{"metadata": {"schema_version": "0.2", "title": "None", "source_filename": "187.mid", "source_format": "midi"}, "resolution": 12, "tempos": [{"time": 0, "qpm": 120.0}], "key_signatures": [{"time": 0, "root": 0, "mode": "major"}], "time_signatures": [{"time": 0, "numerator": 4, "denominator": 4}], "tracks": [{"program": 0, "is_drum": false, "name": "MELODY", "notes": [{"time": 622, "pitch": 76, "duration": 6, "velocity": 101}, {"time": 628, "pitch": 78, "duration": 12, "velocity": 97}, {"time": 640, "pitch": 76, "duration": 6, "velocity": 95}, {"time": 646, "pitch": 81, "duration": 12, "velocity": 80}, {"time": 658, "pitch": 78, "duration": 6, "velocity": 103}, {"time": 664, "pitch": 76, "duration": 6, "velocity": 101}, {"time": 670, "pitch": 73, "duration": 48, "velocity": 93}, {"time": 718, "pitch": 71, "duration": 6, "velocity": 91}, {"time": 724, "pitch": 73, "duration": 12, "velocity": 106}, {"time": 736, "pitch": 76, "duration": 6, "velocity": 101}, {"time": 742, "pitch": 73, "duration": 12, "velocity": 106}, {"time": 754, "pitch": 71, "duration": 6, "velocity": 97}, {"time": 760, "pitch": 73, "duration": 18, "velocity": 101}, {"time": 778, "pitch": 66, "duration": 36, "velocity": 99}, {"time": 814, "pitch": 69, "duration": 6, "velocity": 103}, {"time": 820, "pitch": 69, "duration": 12, "velocity": 101}, {"time": 832, "pitch": 66, "duration": 6, "velocity": 95}, {"time": 838, "pitch": 64, "duration": 12, "velocity": 95}, {"time": 850, "pitch": 66, "duration": 12, "velocity": 95}, {"time": 862, "pitch": 69, "duration": 18, "velocity": 85}, {"time": 880, "pitch": 71, "duration": 6, "velocity": 70}, {"time": 886, "pitch": 69, "duration": 24, "velocity": 88}, {"time": 910, "pitch": 71, "duration": 6, "velocity": 101}, {"time": 916, "pitch": 71, "duration": 12, "velocity": 97}, {"time": 928, "pitch": 69, "duration": 6, "velocity": 91}, {"time": 934, "pitch": 66, "duration": 12, "velocity": 85}, {"time": 946, "pitch": 73, "duration": 12, "velocity": 95}, {"time": 958, "pitch": 73, "duration": 12, "velocity": 97}, {"time": 970, "pitch": 71, "duration": 36, "velocity": 45}, {"time": 1006, "pitch": 76, "duration": 6, "velocity": 97}, {"time": 1012, "pitch": 78, "duration": 12, "velocity": 78}, {"time": 1024, "pitch": 76, "duration": 6, "velocity": 95}, {"time": 1030, "pitch": 81, "duration": 12, "velocity": 82}, {"time": 1042, "pitch": 78, "duration": 6, "velocity": 101}, {"time": 1048, "pitch": 76, "duration": 6, "velocity": 97}, {"time": 1054, "pitch": 76, "duration": 6, "velocity": 95}, {"time": 1060, "pitch": 73, "duration": 42, "velocity": 97}, {"time": 1102, "pitch": 71, "duration": 6, "velocity": 99}, {"time": 1108, "pitch": 73, "duration": 12, "velocity": 80}, {"time": 1120, "pitch": 76, "duration": 6, "velocity": 69}, {"time": 1126, "pitch": 73, "duration": 12, "velocity": 95}, {"time": 1138, "pitch": 71, "duration": 6, "velocity": 97}, {"time": 1144, "pitch": 73, "duration": 6, "velocity": 91}, {"time": 1150, "pitch": 66, "duration": 48, "velocity": 99}, {"time": 1198, "pitch": 69, "duration": 6, "velocity": 103}, {"time": 1204, "pitch": 69, "duration": 12, "velocity": 103}, {"time": 1216, "pitch": 66, "duration": 6, "velocity": 95}, {"time": 1222, "pitch": 64, "duration": 12, "velocity": 101}, {"time": 1234, "pitch": 66, "duration": 12, "velocity": 106}, {"time": 1246, "pitch": 69, "duration": 18, "velocity": 113}, {"time": 1264, "pitch": 71, "duration": 6, "velocity": 103}, {"time": 1270, "pitch": 69, "duration": 24, "velocity": 106}, {"time": 1294, "pitch": 71, "duration": 6, "velocity": 103}, {"time": 1300, "pitch": 71, "duration": 12, "velocity": 99}, {"time": 1312, "pitch": 69, "duration": 6, "velocity": 97}, {"time": 1318, "pitch": 66, "duration": 12, "velocity": 101}, {"time": 1330, "pitch": 71, "duration": 12, "velocity": 97}, {"time": 1342, "pitch": 71, "duration": 6, "velocity": 101}, {"time": 1348, "pitch": 69, "duration": 42, "velocity": 101}, {"time": 1390, "pitch": 76, "duration": 6, "velocity": 103}, {"time": 1396, "pitch": 73, "duration": 10, "velocity": 106}, {"time": 1408, "pitch": 76, "duration": 5, "velocity": 106}, {"time": 1414, "pitch": 73, "duration": 8, "velocity": 106}, {"time": 1426, "pitch": 76, "duration": 9, "velocity": 109}, {"time": 1438, "pitch": 78, "duration": 3, "velocity": 106}, {"time": 1444, "pitch": 78, "duration": 7, "velocity": 106}, {"time": 1456, "pitch": 81, "duration": 3, "velocity": 85}, {"time": 1462, "pitch": 78, "duration": 11, "velocity": 109}, {"time": 1474, "pitch": 76, "duration": 3, "velocity": 80}, {"time": 1486, "pitch": 73, "duration": 3, "velocity": 99}, {"time": 1492, "pitch": 73, "duration": 9, "velocity": 99}, {"time": 1504, "pitch": 71, "duration": 4, "velocity": 106}, {"time": 1510, "pitch": 73, "duration": 7, "velocity": 103}, {"time": 1522, "pitch": 76, "duration": 6, "velocity": 95}, {"time": 1534, "pitch": 73, "duration": 15, "velocity": 95}, {"time": 1582, "pitch": 76, "duration": 6, "velocity": 95}, {"time": 1588, "pitch": 73, "duration": 10, "velocity": 99}, {"time": 1600, "pitch": 76, "duration": 6, "velocity": 99}, {"time": 1606, "pitch": 73, "duration": 11, "velocity": 97}, {"time": 1618, "pitch": 76, "duration": 9, "velocity": 103}, {"time": 1630, "pitch": 78, "duration": 3, "velocity": 101}, {"time": 1636, "pitch": 78, "duration": 10, "velocity": 97}, {"time": 1648, "pitch": 81, "duration": 5, "velocity": 72}, {"time": 1654, "pitch": 78, "duration": 9, "velocity": 99}, {"time": 1666, "pitch": 76, "duration": 7, "velocity": 95}, {"time": 1678, "pitch": 73, "duration": 2, "velocity": 97}, {"time": 1684, "pitch": 73, "duration": 9, "velocity": 101}, {"time": 1696, "pitch": 71, "duration": 4, "velocity": 101}, {"time": 1702, "pitch": 73, "duration": 6, "velocity": 106}, {"time": 1714, "pitch": 76, "duration": 7, "velocity": 106}, {"time": 1726, "pitch": 73, "duration": 6, "velocity": 103}, {"time": 1774, "pitch": 71, "duration": 4, "velocity": 106}, {"time": 1792, "pitch": 73, "duration": 4, "velocity": 106}, {"time": 1798, "pitch": 71, "duration": 7, "velocity": 103}, {"time": 1810, "pitch": 73, "duration": 5, "velocity": 101}, {"time": 1822, "pitch": 76, "duration": 14, "velocity": 109}, {"time": 1840, "pitch": 78, "duration": 4, "velocity": 109}, {"time": 1846, "pitch": 76, "duration": 8, "velocity": 103}, {"time": 1858, "pitch": 78, "duration": 6, "velocity": 103}, {"time": 1870, "pitch": 81, "duration": 33, "velocity": 97}, {"time": 1906, "pitch": 78, "duration": 11, "velocity": 101}, {"time": 1918, "pitch": 81, "duration": 39, "velocity": 80}, {"time": 1966, "pitch": 78, "duration": 2, "velocity": 103}, {"time": 1972, "pitch": 78, "duration": 6, "velocity": 101}, {"time": 1984, "pitch": 78, "duration": 4, "velocity": 106}, {"time": 1990, "pitch": 76, "duration": 9, "velocity": 106}, {"time": 2002, "pitch": 78, "duration": 5, "velocity": 109}, {"time": 2014, "pitch": 76, "duration": 15, "velocity": 99}, {"time": 2032, "pitch": 73, "duration": 6, "velocity": 103}, {"time": 2038, "pitch": 71, "duration": 10, "velocity": 99}, {"time": 2050, "pitch": 73, "duration": 12, "velocity": 101}, {"time": 2062, "pitch": 76, "duration": 48, "velocity": 97}, {"time": 2158, "pitch": 76, "duration": 6, "velocity": 101}, {"time": 2164, "pitch": 78, "duration": 12, "velocity": 97}, {"time": 2176, "pitch": 76, "duration": 6, "velocity": 95}, {"time": 2182, "pitch": 81, "duration": 12, "velocity": 80}, {"time": 2194, "pitch": 78, "duration": 6, "velocity": 103}, {"time": 2200, "pitch": 76, "duration": 6, "velocity": 101}, {"time": 2206, "pitch": 73, "duration": 48, "velocity": 93}, {"time": 2254, "pitch": 71, "duration": 6, "velocity": 91}, {"time": 2260, "pitch": 73, "duration": 12, "velocity": 106}, {"time": 2272, "pitch": 76, "duration": 6, "velocity": 101}, {"time": 2278, "pitch": 73, "duration": 12, "velocity": 106}, {"time": 2290, "pitch": 71, "duration": 6, "velocity": 97}, {"time": 2296, "pitch": 73, "duration": 6, "velocity": 101}, {"time": 2302, "pitch": 66, "duration": 48, "velocity": 99}, {"time": 2350, "pitch": 69, "duration": 6, "velocity": 103}, {"time": 2356, "pitch": 69, "duration": 12, "velocity": 101}, {"time": 2368, "pitch": 66, "duration": 6, "velocity": 95}, {"time": 2374, "pitch": 64, "duration": 12, "velocity": 95}, {"time": 2386, "pitch": 66, "duration": 12, "velocity": 95}, {"time": 2398, "pitch": 69, "duration": 18, "velocity": 85}, {"time": 2416, "pitch": 71, "duration": 6, "velocity": 70}, {"time": 2422, "pitch": 69, "duration": 24, "velocity": 88}, {"time": 2446, "pitch": 71, "duration": 6, "velocity": 101}, {"time": 2452, "pitch": 71, "duration": 12, "velocity": 97}, {"time": 2464, "pitch": 69, "duration": 6, "velocity": 91}, {"time": 2470, "pitch": 66, "duration": 12, "velocity": 85}, {"time": 2482, "pitch": 71, "duration": 12, "velocity": 95}, {"time": 2494, "pitch": 71, "duration": 12, "velocity": 97}, {"time": 2506, "pitch": 69, "duration": 36, "velocity": 45}, {"time": 3310, "pitch": 76, "duration": 6, "velocity": 101}, {"time": 3316, "pitch": 78, "duration": 12, "velocity": 97}, {"time": 3328, "pitch": 76, "duration": 6, "velocity": 95}, {"time": 3334, "pitch": 81, "duration": 12, "velocity": 80}, {"time": 3346, "pitch": 78, "duration": 6, "velocity": 103}, {"time": 3352, "pitch": 76, "duration": 6, "velocity": 101}, {"time": 3358, "pitch": 73, "duration": 48, "velocity": 93}, {"time": 3406, "pitch": 71, "duration": 6, "velocity": 91}, {"time": 3412, "pitch": 73, "duration": 12, "velocity": 106}, {"time": 3424, "pitch": 76, "duration": 6, "velocity": 101}, {"time": 3430, "pitch": 73, "duration": 12, "velocity": 106}, {"time": 3442, "pitch": 71, "duration": 6, "velocity": 97}, {"time": 3448, "pitch": 73, "duration": 18, "velocity": 101}, {"time": 3466, "pitch": 66, "duration": 36, "velocity": 99}, {"time": 3502, "pitch": 69, "duration": 6, "velocity": 103}, {"time": 3508, "pitch": 69, "duration": 12, "velocity": 101}, {"time": 3520, "pitch": 66, "duration": 6, "velocity": 95}, {"time": 3526, "pitch": 64, "duration": 12, "velocity": 95}, {"time": 3538, "pitch": 66, "duration": 12, "velocity": 95}, {"time": 3550, "pitch": 69, "duration": 18, "velocity": 85}, {"time": 3568, "pitch": 71, "duration": 6, "velocity": 70}, {"time": 3574, "pitch": 69, "duration": 24, "velocity": 88}, {"time": 3598, "pitch": 71, "duration": 6, "velocity": 101}, {"time": 3604, "pitch": 71, "duration": 12, "velocity": 97}, {"time": 3616, "pitch": 69, "duration": 6, "velocity": 91}, {"time": 3622, "pitch": 66, "duration": 12, "velocity": 85}, {"time": 3634, "pitch": 73, "duration": 12, "velocity": 95}, {"time": 3646, "pitch": 73, "duration": 12, "velocity": 97}, {"time": 3658, "pitch": 71, "duration": 36, "velocity": 45}, {"time": 3694, "pitch": 76, "duration": 6, "velocity": 97}, {"time": 3700, "pitch": 78, "duration": 12, "velocity": 78}, {"time": 3712, "pitch": 76, "duration": 6, "velocity": 95}, {"time": 3718, "pitch": 81, "duration": 12, "velocity": 82}, {"time": 3730, "pitch": 78, "duration": 6, "velocity": 101}, {"time": 3736, "pitch": 76, "duration": 6, "velocity": 97}, {"time": 3742, "pitch": 76, "duration": 6, "velocity": 95}, {"time": 3748, "pitch": 73, "duration": 42, "velocity": 97}, {"time": 3790, "pitch": 71, "duration": 6, "velocity": 99}, {"time": 3796, "pitch": 73, "duration": 12, "velocity": 80}, {"time": 3808, "pitch": 76, "duration": 6, "velocity": 69}, {"time": 3814, "pitch": 73, "duration": 12, "velocity": 95}, {"time": 3826, "pitch": 71, "duration": 6, "velocity": 97}, {"time": 3832, "pitch": 73, "duration": 6, "velocity": 91}, {"time": 3838, "pitch": 66, "duration": 48, "velocity": 99}, {"time": 3886, "pitch": 69, "duration": 6, "velocity": 103}, {"time": 3892, "pitch": 69, "duration": 12, "velocity": 103}, {"time": 3904, "pitch": 66, "duration": 6, "velocity": 95}, {"time": 3910, "pitch": 64, "duration": 12, "velocity": 101}, {"time": 3922, "pitch": 66, "duration": 12, "velocity": 106}, {"time": 3934, "pitch": 69, "duration": 18, "velocity": 113}, {"time": 3952, "pitch": 71, "duration": 6, "velocity": 103}, {"time": 3958, "pitch": 69, "duration": 24, "velocity": 106}, {"time": 3982, "pitch": 71, "duration": 6, "velocity": 103}, {"time": 3988, "pitch": 71, "duration": 12, "velocity": 99}, {"time": 4000, "pitch": 69, "duration": 6, "velocity": 97}, {"time": 4006, "pitch": 66, "duration": 12, "velocity": 101}, {"time": 4018, "pitch": 71, "duration": 12, "velocity": 97}, {"time": 4030, "pitch": 71, "duration": 6, "velocity": 101}, {"time": 4036, "pitch": 69, "duration": 42, "velocity": 101}, {"time": 4078, "pitch": 76, "duration": 6, "velocity": 103}, {"time": 4084, "pitch": 73, "duration": 10, "velocity": 106}, {"time": 4096, "pitch": 76, "duration": 5, "velocity": 106}, {"time": 4102, "pitch": 73, "duration": 8, "velocity": 106}, {"time": 4114, "pitch": 76, "duration": 9, "velocity": 109}, {"time": 4126, "pitch": 78, "duration": 3, "velocity": 106}, {"time": 4132, "pitch": 78, "duration": 7, "velocity": 106}, {"time": 4144, "pitch": 81, "duration": 3, "velocity": 85}, {"time": 4150, "pitch": 78, "duration": 11, "velocity": 109}, {"time": 4162, "pitch": 76, "duration": 3, "velocity": 80}, {"time": 4174, "pitch": 73, "duration": 3, "velocity": 99}, {"time": 4180, "pitch": 73, "duration": 9, "velocity": 99}, {"time": 4189, "pitch": 71, "duration": 4, "velocity": 106}, {"time": 4198, "pitch": 73, "duration": 7, "velocity": 103}, {"time": 4210, "pitch": 76, "duration": 6, "velocity": 95}, {"time": 4222, "pitch": 73, "duration": 15, "velocity": 95}, {"time": 4270, "pitch": 76, "duration": 6, "velocity": 95}, {"time": 4276, "pitch": 73, "duration": 10, "velocity": 99}, {"time": 4288, "pitch": 76, "duration": 6, "velocity": 99}, {"time": 4294, "pitch": 73, "duration": 11, "velocity": 97}, {"time": 4306, "pitch": 76, "duration": 9, "velocity": 103}, {"time": 4318, "pitch": 78, "duration": 3, "velocity": 101}, {"time": 4324, "pitch": 78, "duration": 10, "velocity": 97}, {"time": 4336, "pitch": 81, "duration": 5, "velocity": 72}, {"time": 4342, "pitch": 78, "duration": 9, "velocity": 99}, {"time": 4354, "pitch": 76, "duration": 7, "velocity": 95}, {"time": 4366, "pitch": 73, "duration": 2, "velocity": 97}, {"time": 4372, "pitch": 73, "duration": 9, "velocity": 101}, {"time": 4384, "pitch": 71, "duration": 4, "velocity": 101}, {"time": 4390, "pitch": 73, "duration": 6, "velocity": 106}, {"time": 4402, "pitch": 76, "duration": 7, "velocity": 106}, {"time": 4414, "pitch": 73, "duration": 6, "velocity": 103}, {"time": 4462, "pitch": 71, "duration": 4, "velocity": 106}, {"time": 4480, "pitch": 73, "duration": 4, "velocity": 106}, {"time": 4486, "pitch": 71, "duration": 7, "velocity": 103}, {"time": 4498, "pitch": 73, "duration": 5, "velocity": 101}, {"time": 4510, "pitch": 76, "duration": 14, "velocity": 109}, {"time": 4528, "pitch": 78, "duration": 4, "velocity": 109}, {"time": 4534, "pitch": 76, "duration": 8, "velocity": 103}, {"time": 4546, "pitch": 78, "duration": 6, "velocity": 103}, {"time": 4558, "pitch": 81, "duration": 33, "velocity": 97}, {"time": 4594, "pitch": 78, "duration": 11, "velocity": 101}, {"time": 4606, "pitch": 81, "duration": 39, "velocity": 80}, {"time": 4654, "pitch": 78, "duration": 2, "velocity": 103}, {"time": 4660, "pitch": 78, "duration": 6, "velocity": 101}, {"time": 4672, "pitch": 78, "duration": 4, "velocity": 106}, {"time": 4678, "pitch": 76, "duration": 9, "velocity": 106}, {"time": 4690, "pitch": 78, "duration": 5, "velocity": 109}, {"time": 4702, "pitch": 76, "duration": 15, "velocity": 99}, {"time": 4720, "pitch": 73, "duration": 6, "velocity": 103}, {"time": 4726, "pitch": 71, "duration": 10, "velocity": 99}, {"time": 4738, "pitch": 73, "duration": 12, "velocity": 101}, {"time": 4750, "pitch": 76, "duration": 48, "velocity": 97}, {"time": 4846, "pitch": 76, "duration": 6, "velocity": 101}, {"time": 4852, "pitch": 78, "duration": 12, "velocity": 97}, {"time": 4864, "pitch": 76, "duration": 6, "velocity": 95}, {"time": 4870, "pitch": 81, "duration": 12, "velocity": 80}, {"time": 4882, "pitch": 78, "duration": 6, "velocity": 103}, {"time": 4888, "pitch": 76, "duration": 6, "velocity": 101}, {"time": 4894, "pitch": 73, "duration": 48, "velocity": 93}, {"time": 4942, "pitch": 71, "duration": 6, "velocity": 91}, {"time": 4948, "pitch": 73, "duration": 12, "velocity": 106}, {"time": 4960, "pitch": 76, "duration": 6, "velocity": 101}, {"time": 4966, "pitch": 73, "duration": 12, "velocity": 106}, {"time": 4978, "pitch": 71, "duration": 6, "velocity": 97}, {"time": 4984, "pitch": 73, "duration": 6, "velocity": 101}, {"time": 4990, "pitch": 66, "duration": 48, "velocity": 99}, {"time": 5038, "pitch": 69, "duration": 6, "velocity": 103}, {"time": 5044, "pitch": 69, "duration": 12, "velocity": 101}, {"time": 5056, "pitch": 66, "duration": 6, "velocity": 95}, {"time": 5062, "pitch": 64, "duration": 12, "velocity": 95}, {"time": 5074, "pitch": 66, "duration": 12, "velocity": 95}, {"time": 5086, "pitch": 69, "duration": 18, "velocity": 85}, {"time": 5104, "pitch": 71, "duration": 6, "velocity": 70}, {"time": 5110, "pitch": 69, "duration": 24, "velocity": 88}, {"time": 5134, "pitch": 71, "duration": 6, "velocity": 101}, {"time": 5140, "pitch": 71, "duration": 12, "velocity": 97}, {"time": 5152, "pitch": 69, "duration": 6, "velocity": 91}, {"time": 5158, "pitch": 66, "duration": 12, "velocity": 85}, {"time": 5170, "pitch": 71, "duration": 12, "velocity": 95}, {"time": 5182, "pitch": 71, "duration": 12, "velocity": 97}, {"time": 5194, "pitch": 69, "duration": 36, "velocity": 45}]}, {"program": 0, "is_drum": false, "name": "BRIDGE", "notes": [{"time": 238, "pitch": 76, "duration": 8, "velocity": 88}, {"time": 244, "pitch": 78, "duration": 12, "velocity": 88}, {"time": 256, "pitch": 76, "duration": 5, "velocity": 85}, {"time": 262, "pitch": 81, "duration": 10, "velocity": 78}, {"time": 274, "pitch": 78, "duration": 6, "velocity": 95}, {"time": 280, "pitch": 76, "duration": 6, "velocity": 69}, {"time": 286, "pitch": 73, "duration": 32, "velocity": 101}, {"time": 328, "pitch": 81, "duration": 5, "velocity": 67}, {"time": 331, "pitch": 78, "duration": 3, "velocity": 93}, {"time": 334, "pitch": 71, "duration": 7, "velocity": 95}, {"time": 334, "pitch": 76, "duration": 2, "velocity": 73}, {"time": 340, "pitch": 73, "duration": 11, "velocity": 101}, {"time": 352, "pitch": 76, "duration": 5, "velocity": 97}, {"time": 358, "pitch": 73, "duration": 10, "velocity": 101}, {"time": 370, "pitch": 71, "duration": 6, "velocity": 101}, {"time": 376, "pitch": 73, "duration": 5, "velocity": 101}, {"time": 382, "pitch": 66, "duration": 39, "velocity": 99}, {"time": 430, "pitch": 66, "duration": 5, "velocity": 90}, {"time": 436, "pitch": 69, "duration": 9, "velocity": 93}, {"time": 448, "pitch": 66, "duration": 5, "velocity": 93}, {"time": 454, "pitch": 64, "duration": 9, "velocity": 87}, {"time": 466, "pitch": 66, "duration": 3, "velocity": 79}, {"time": 478, "pitch": 69, "duration": 2, "velocity": 85}, {"time": 480, "pitch": 81, "duration": 2, "velocity": 59}, {"time": 483, "pitch": 69, "duration": 2, "velocity": 50}, {"time": 485, "pitch": 81, "duration": 2, "velocity": 62}, {"time": 487, "pitch": 69, "duration": 6, "velocity": 53}, {"time": 488, "pitch": 81, "duration": 3, "velocity": 75}, {"time": 496, "pitch": 71, "duration": 4, "velocity": 85}, {"time": 502, "pitch": 69, "duration": 14, "velocity": 106}, {"time": 521, "pitch": 81, "duration": 4, "velocity": 69}, {"time": 524, "pitch": 78, "duration": 3, "velocity": 93}, {"time": 525, "pitch": 76, "duration": 3, "velocity": 73}, {"time": 526, "pitch": 71, "duration": 3, "velocity": 97}, {"time": 532, "pitch": 71, "duration": 11, "velocity": 101}, {"time": 543, "pitch": 69, "duration": 6, "velocity": 101}, {"time": 550, "pitch": 66, "duration": 8, "velocity": 97}, {"time": 562, "pitch": 71, "duration": 8, "velocity": 97}, {"time": 574, "pitch": 69, "duration": 24, "velocity": 97}, {"time": 964, "pitch": 64, "duration": 4, "velocity": 97}, {"time": 967, "pitch": 66, "duration": 5, "velocity": 88}, {"time": 970, "pitch": 69, "duration": 7, "velocity": 93}, {"time": 976, "pitch": 71, "duration": 4, "velocity": 95}, {"time": 982, "pitch": 73, "duration": 3, "velocity": 99}, {"time": 988, "pitch": 76, "duration": 4, "velocity": 106}, {"time": 994, "pitch": 78, "duration": 4, "velocity": 85}, {"time": 1000, "pitch": 73, "duration": 6, "velocity": 103}, {"time": 1006, "pitch": 76, "duration": 23, "velocity": 100}, {"time": 1074, "pitch": 80, "duration": 4, "velocity": 64}, {"time": 1076, "pitch": 78, "duration": 2, "velocity": 67}, {"time": 1077, "pitch": 76, "duration": 2, "velocity": 75}, {"time": 1078, "pitch": 73, "duration": 7, "velocity": 82}, {"time": 1084, "pitch": 76, "duration": 7, "velocity": 101}, {"time": 1090, "pitch": 78, "duration": 6, "velocity": 85}, {"time": 1096, "pitch": 76, "duration": 6, "velocity": 93}, {"time": 1102, "pitch": 71, "duration": 34, "velocity": 101}, {"time": 1162, "pitch": 73, "duration": 6, "velocity": 99}, {"time": 1168, "pitch": 71, "duration": 4, "velocity": 97}, {"time": 1174, "pitch": 69, "duration": 10, "velocity": 103}, {"time": 1186, "pitch": 64, "duration": 14, "velocity": 101}, {"time": 1198, "pitch": 66, "duration": 26, "velocity": 103}, {"time": 1354, "pitch": 64, "duration": 7, "velocity": 93}, {"time": 1360, "pitch": 66, "duration": 7, "velocity": 80}, {"time": 1366, "pitch": 69, "duration": 5, "velocity": 82}, {"time": 1372, "pitch": 71, "duration": 8, "velocity": 97}, {"time": 1378, "pitch": 73, "duration": 4, "velocity": 99}, {"time": 1384, "pitch": 78, "duration": 7, "velocity": 103}, {"time": 1390, "pitch": 76, "duration": 28, "velocity": 106}, {"time": 1546, "pitch": 69, "duration": 7, "velocity": 85}, {"time": 1552, "pitch": 71, "duration": 7, "velocity": 76}, {"time": 1558, "pitch": 73, "duration": 5, "velocity": 85}, {"time": 1564, "pitch": 71, "duration": 8, "velocity": 88}, {"time": 1570, "pitch": 73, "duration": 6, "velocity": 93}, {"time": 1576, "pitch": 78, "duration": 7, "velocity": 80}, {"time": 1582, "pitch": 76, "duration": 25, "velocity": 101}, {"time": 1738, "pitch": 78, "duration": 7, "velocity": 69}, {"time": 1744, "pitch": 76, "duration": 5, "velocity": 88}, {"time": 1750, "pitch": 73, "duration": 6, "velocity": 91}, {"time": 1756, "pitch": 71, "duration": 6, "velocity": 85}, {"time": 1762, "pitch": 69, "duration": 7, "velocity": 91}, {"time": 1768, "pitch": 66, "duration": 6, "velocity": 97}, {"time": 1774, "pitch": 71, "duration": 25, "velocity": 106}, {"time": 2068, "pitch": 64, "duration": 5, "velocity": 88}, {"time": 2074, "pitch": 66, "duration": 5, "velocity": 95}, {"time": 2080, "pitch": 66, "duration": 1, "velocity": 36}, {"time": 2080, "pitch": 69, "duration": 6, "velocity": 80}, {"time": 2086, "pitch": 71, "duration": 3, "velocity": 85}, {"time": 2092, "pitch": 73, "duration": 3, "velocity": 95}, {"time": 2098, "pitch": 78, "duration": 4, "velocity": 91}, {"time": 2104, "pitch": 73, "duration": 6, "velocity": 99}, {"time": 2110, "pitch": 76, "duration": 20, "velocity": 106}, {"time": 2218, "pitch": 81, "duration": 6, "velocity": 70}, {"time": 2224, "pitch": 78, "duration": 4, "velocity": 80}, {"time": 2230, "pitch": 76, "duration": 5, "velocity": 80}, {"time": 2236, "pitch": 71, "duration": 9, "velocity": 69}, {"time": 2242, "pitch": 73, "duration": 5, "velocity": 52}, {"time": 2248, "pitch": 76, "duration": 5, "velocity": 76}, {"time": 2254, "pitch": 71, "duration": 12, "velocity": 78}, {"time": 2313, "pitch": 73, "duration": 6, "velocity": 95}, {"time": 2319, "pitch": 71, "duration": 7, "velocity": 91}, {"time": 2326, "pitch": 69, "duration": 11, "velocity": 93}, {"time": 2337, "pitch": 64, "duration": 14, "velocity": 85}, {"time": 2349, "pitch": 66, "duration": 34, "velocity": 95}, {"time": 2428, "pitch": 64, "duration": 14, "velocity": 61}, {"time": 2434, "pitch": 69, "duration": 8, "velocity": 64}, {"time": 2440, "pitch": 76, "duration": 18, "velocity": 69}, {"time": 2446, "pitch": 71, "duration": 21, "velocity": 76}, {"time": 2464, "pitch": 73, "duration": 8, "velocity": 63}, {"time": 2470, "pitch": 69, "duration": 13, "velocity": 73}, {"time": 2482, "pitch": 71, "duration": 12, "velocity": 58}, {"time": 2494, "pitch": 64, "duration": 19, "velocity": 47}, {"time": 2494, "pitch": 69, "duration": 23, "velocity": 53}, {"time": 2542, "pitch": 76, "duration": 6, "velocity": 75}, {"time": 2548, "pitch": 73, "duration": 11, "velocity": 73}, {"time": 2560, "pitch": 76, "duration": 6, "velocity": 91}, {"time": 2566, "pitch": 73, "duration": 12, "velocity": 76}, {"time": 2578, "pitch": 76, "duration": 12, "velocity": 93}, {"time": 2590, "pitch": 78, "duration": 4, "velocity": 88}, {"time": 2596, "pitch": 78, "duration": 12, "velocity": 95}, {"time": 2608, "pitch": 81, "duration": 7, "velocity": 80}, {"time": 2614, "pitch": 78, "duration": 12, "velocity": 93}, {"time": 2626, "pitch": 76, "duration": 11, "velocity": 93}, {"time": 2638, "pitch": 73, "duration": 18, "velocity": 91}, {"time": 2656, "pitch": 71, "duration": 8, "velocity": 82}, {"time": 2662, "pitch": 73, "duration": 11, "velocity": 82}, {"time": 2674, "pitch": 76, "duration": 13, "velocity": 91}, {"time": 2686, "pitch": 73, "duration": 45, "velocity": 78}, {"time": 2734, "pitch": 76, "duration": 5, "velocity": 73}, {"time": 2740, "pitch": 73, "duration": 12, "velocity": 93}, {"time": 2752, "pitch": 76, "duration": 7, "velocity": 95}, {"time": 2758, "pitch": 73, "duration": 13, "velocity": 88}, {"time": 2770, "pitch": 76, "duration": 12, "velocity": 101}, {"time": 2782, "pitch": 78, "duration": 5, "velocity": 91}, {"time": 2788, "pitch": 78, "duration": 11, "velocity": 88}, {"time": 2800, "pitch": 81, "duration": 7, "velocity": 73}, {"time": 2806, "pitch": 78, "duration": 11, "velocity": 93}, {"time": 2818, "pitch": 76, "duration": 13, "velocity": 93}, {"time": 2830, "pitch": 73, "duration": 17, "velocity": 93}, {"time": 2848, "pitch": 71, "duration": 7, "velocity": 93}, {"time": 2854, "pitch": 73, "duration": 12, "velocity": 70}, {"time": 2866, "pitch": 76, "duration": 14, "velocity": 99}, {"time": 2878, "pitch": 73, "duration": 45, "velocity": 76}, {"time": 2926, "pitch": 71, "duration": 19, "velocity": 97}, {"time": 2944, "pitch": 73, "duration": 5, "velocity": 91}, {"time": 2950, "pitch": 71, "duration": 12, "velocity": 95}, {"time": 2962, "pitch": 73, "duration": 12, "velocity": 91}, {"time": 2974, "pitch": 76, "duration": 19, "velocity": 97}, {"time": 2992, "pitch": 78, "duration": 6, "velocity": 109}, {"time": 2998, "pitch": 76, "duration": 12, "velocity": 103}, {"time": 3010, "pitch": 78, "duration": 13, "velocity": 106}, {"time": 3022, "pitch": 81, "duration": 48, "velocity": 106}, {"time": 3070, "pitch": 81, "duration": 48, "velocity": 106}, {"time": 3118, "pitch": 78, "duration": 2, "velocity": 82}, {"time": 3124, "pitch": 78, "duration": 3, "velocity": 95}, {"time": 3136, "pitch": 78, "duration": 8, "velocity": 93}, {"time": 3142, "pitch": 76, "duration": 11, "velocity": 91}, {"time": 3154, "pitch": 78, "duration": 13, "velocity": 91}, {"time": 3166, "pitch": 76, "duration": 19, "velocity": 93}, {"time": 3184, "pitch": 73, "duration": 6, "velocity": 91}, {"time": 3190, "pitch": 71, "duration": 12, "velocity": 88}, {"time": 3202, "pitch": 73, "duration": 13, "velocity": 93}, {"time": 3214, "pitch": 76, "duration": 89, "velocity": 85}, {"time": 3652, "pitch": 64, "duration": 4, "velocity": 97}, {"time": 3655, "pitch": 66, "duration": 5, "velocity": 88}, {"time": 3658, "pitch": 69, "duration": 7, "velocity": 93}, {"time": 3664, "pitch": 71, "duration": 4, "velocity": 95}, {"time": 3670, "pitch": 73, "duration": 3, "velocity": 99}, {"time": 3676, "pitch": 76, "duration": 4, "velocity": 106}, {"time": 3682, "pitch": 78, "duration": 4, "velocity": 85}, {"time": 3688, "pitch": 73, "duration": 6, "velocity": 103}, {"time": 3694, "pitch": 76, "duration": 23, "velocity": 100}, {"time": 3694, "pitch": 76, "duration": 23, "velocity": 113}, {"time": 3762, "pitch": 80, "duration": 4, "velocity": 64}, {"time": 3764, "pitch": 78, "duration": 2, "velocity": 67}, {"time": 3765, "pitch": 76, "duration": 2, "velocity": 75}, {"time": 3766, "pitch": 73, "duration": 7, "velocity": 82}, {"time": 3772, "pitch": 76, "duration": 7, "velocity": 101}, {"time": 3778, "pitch": 78, "duration": 6, "velocity": 85}, {"time": 3784, "pitch": 76, "duration": 6, "velocity": 93}, {"time": 3790, "pitch": 71, "duration": 34, "velocity": 101}, {"time": 3850, "pitch": 73, "duration": 6, "velocity": 99}, {"time": 3854, "pitch": 71, "duration": 4, "velocity": 97}, {"time": 3856, "pitch": 71, "duration": 2, "velocity": 97}, {"time": 3862, "pitch": 69, "duration": 10, "velocity": 103}, {"time": 3874, "pitch": 64, "duration": 12, "velocity": 101}, {"time": 3886, "pitch": 66, "duration": 26, "velocity": 103}, {"time": 4042, "pitch": 64, "duration": 7, "velocity": 93}, {"time": 4048, "pitch": 66, "duration": 7, "velocity": 80}, {"time": 4054, "pitch": 69, "duration": 5, "velocity": 82}, {"time": 4060, "pitch": 71, "duration": 8, "velocity": 97}, {"time": 4066, "pitch": 73, "duration": 4, "velocity": 99}, {"time": 4072, "pitch": 78, "duration": 7, "velocity": 103}, {"time": 4078, "pitch": 76, "duration": 28, "velocity": 106}, {"time": 4234, "pitch": 69, "duration": 7, "velocity": 85}, {"time": 4240, "pitch": 71, "duration": 7, "velocity": 76}, {"time": 4246, "pitch": 73, "duration": 5, "velocity": 85}, {"time": 4252, "pitch": 71, "duration": 8, "velocity": 88}, {"time": 4258, "pitch": 73, "duration": 6, "velocity": 93}, {"time": 4264, "pitch": 78, "duration": 7, "velocity": 80}, {"time": 4270, "pitch": 76, "duration": 25, "velocity": 101}, {"time": 4426, "pitch": 78, "duration": 7, "velocity": 69}, {"time": 4432, "pitch": 76, "duration": 5, "velocity": 88}, {"time": 4438, "pitch": 73, "duration": 6, "velocity": 91}, {"time": 4444, "pitch": 71, "duration": 6, "velocity": 85}, {"time": 4450, "pitch": 69, "duration": 7, "velocity": 91}, {"time": 4456, "pitch": 66, "duration": 6, "velocity": 97}, {"time": 4462, "pitch": 71, "duration": 25, "velocity": 106}, {"time": 4756, "pitch": 64, "duration": 5, "velocity": 88}, {"time": 4762, "pitch": 66, "duration": 5, "velocity": 95}, {"time": 4768, "pitch": 66, "duration": 1, "velocity": 36}, {"time": 4768, "pitch": 69, "duration": 6, "velocity": 80}, {"time": 4774, "pitch": 71, "duration": 3, "velocity": 85}, {"time": 4780, "pitch": 73, "duration": 3, "velocity": 95}, {"time": 4786, "pitch": 78, "duration": 4, "velocity": 91}, {"time": 4792, "pitch": 73, "duration": 6, "velocity": 99}, {"time": 4798, "pitch": 76, "duration": 20, "velocity": 106}, {"time": 4906, "pitch": 81, "duration": 6, "velocity": 70}, {"time": 4912, "pitch": 78, "duration": 4, "velocity": 80}, {"time": 4918, "pitch": 76, "duration": 5, "velocity": 80}, {"time": 4924, "pitch": 71, "duration": 9, "velocity": 69}, {"time": 4930, "pitch": 73, "duration": 5, "velocity": 52}, {"time": 4936, "pitch": 76, "duration": 5, "velocity": 76}, {"time": 4942, "pitch": 71, "duration": 12, "velocity": 78}, {"time": 5001, "pitch": 73, "duration": 6, "velocity": 95}, {"time": 5007, "pitch": 71, "duration": 7, "velocity": 91}, {"time": 5014, "pitch": 69, "duration": 11, "velocity": 93}, {"time": 5025, "pitch": 64, "duration": 14, "velocity": 85}, {"time": 5037, "pitch": 66, "duration": 34, "velocity": 95}, {"time": 5230, "pitch": 76, "duration": 72, "velocity": 69}, {"time": 5302, "pitch": 76, "duration": 12, "velocity": 78}, {"time": 5314, "pitch": 78, "duration": 6, "velocity": 70}, {"time": 5320, "pitch": 76, "duration": 6, "velocity": 70}, {"time": 5326, "pitch": 73, "duration": 66, "velocity": 63}, {"time": 5392, "pitch": 76, "duration": 18, "velocity": 67}, {"time": 5410, "pitch": 73, "duration": 12, "velocity": 67}, {"time": 5422, "pitch": 71, "duration": 36, "velocity": 69}, {"time": 5458, "pitch": 69, "duration": 12, "velocity": 59}, {"time": 5470, "pitch": 66, "duration": 27, "velocity": 48}, {"time": 5497, "pitch": 64, "duration": 30, "velocity": 57}, {"time": 5527, "pitch": 66, "duration": 39, "velocity": 66}, {"time": 5566, "pitch": 69, "duration": 96, "velocity": 76}], "annotations": [{"time": 236, "annotation": {"number": 64, "value": 127}, "group": "control_change"}, {"time": 330, "annotation": {"number": 64, "value": 127}, "group": "control_change"}, {"time": 333, "annotation": {"number": 64, "value": 0}, "group": "control_change"}, {"time": 429, "annotation": {"number": 64, "value": 127}, "group": "control_change"}, {"time": 440, "annotation": {"number": 64, "value": 0}, "group": "control_change"}, {"time": 480, "annotation": {"number": 64, "value": 127}, "group": "control_change"}, {"time": 519, "annotation": {"number": 64, "value": 0}, "group": "control_change"}, {"time": 526, "annotation": {"number": 64, "value": 127}, "group": "control_change"}, {"time": 561, "annotation": {"number": 64, "value": 0}, "group": "control_change"}, {"time": 958, "annotation": {"number": 64, "value": 127}, "group": "control_change"}, {"time": 1200, "annotation": {"number": 64, "value": 127}, "group": "control_change"}, {"time": 1241, "annotation": {"number": 64, "value": 0}, "group": "control_change"}, {"time": 1345, "annotation": {"number": 64, "value": 127}, "group": "control_change"}, {"time": 1438, "annotation": {"number": 64, "value": 0}, "group": "control_change"}, {"time": 1550, "annotation": {"number": 64, "value": 127}, "group": "control_change"}, {"time": 1629, "annotation": {"number": 64, "value": 0}, "group": "control_change"}, {"time": 1737, "annotation": {"number": 64, "value": 127}, "group": "control_change"}, {"time": 1821, "annotation": {"number": 64, "value": 0}, "group": "control_change"}, {"time": 2064, "annotation": {"number": 64, "value": 127}, "group": "control_change"}, {"time": 2151, "annotation": {"number": 64, "value": 0}, "group": "control_change"}, {"time": 2206, "annotation": {"number": 64, "value": 127}, "group": "control_change"}, {"time": 2275, "annotation": {"number": 64, "value": 0}, "group": "control_change"}, {"time": 2326, "annotation": {"number": 64, "value": 127}, "group": "control_change"}, {"time": 2393, "annotation": {"number": 64, "value": 0}, "group": "control_change"}, {"time": 3646, "annotation": {"number": 64, "value": 127}, "group": "control_change"}, {"time": 3696, "annotation": {"number": 64, "value": 0}, "group": "control_change"}, {"time": 3702, "annotation": {"number": 64, "value": 127}, "group": "control_change"}, {"time": 3744, "annotation": {"number": 64, "value": 0}, "group": "control_change"}, {"time": 3888, "annotation": {"number": 64, "value": 127}, "group": "control_change"}, {"time": 3929, "annotation": {"number": 64, "value": 0}, "group": "control_change"}, {"time": 4033, "annotation": {"number": 64, "value": 127}, "group": "control_change"}, {"time": 4126, "annotation": {"number": 64, "value": 0}, "group": "control_change"}, {"time": 4238, "annotation": {"number": 64, "value": 127}, "group": "control_change"}, {"time": 4317, "annotation": {"number": 64, "value": 0}, "group": "control_change"}, {"time": 4425, "annotation": {"number": 64, "value": 127}, "group": "control_change"}, {"time": 4509, "annotation": {"number": 64, "value": 0}, "group": "control_change"}, {"time": 4752, "annotation": {"number": 64, "value": 127}, "group": "control_change"}, {"time": 4839, "annotation": {"number": 64, "value": 0}, "group": "control_change"}, {"time": 4894, "annotation": {"number": 64, "value": 127}, "group": "control_change"}, {"time": 4963, "annotation": {"number": 64, "value": 0}, "group": "control_change"}, {"time": 5014, "annotation": {"number": 64, "value": 127}, "group": "control_change"}, {"time": 5081, "annotation": {"number": 64, "value": 0}, "group": "control_change"}]}, {"program": 0, "is_drum": false, "name": "PIANO", "notes": [{"time": 196, "pitch": 64, "duration": 8, "velocity": 48}, {"time": 202, "pitch": 66, "duration": 6, "velocity": 59}, {"time": 208, "pitch": 69, "duration": 5, "velocity": 57}, {"time": 214, "pitch": 71, "duration": 6, "velocity": 60}, {"time": 220, "pitch": 73, "duration": 3, "velocity": 47}, {"time": 226, "pitch": 76, "duration": 5, "velocity": 53}, {"time": 232, "pitch": 81, "duration": 7, "velocity": 50}, {"time": 238, "pitch": 45, "duration": 38, "velocity": 60}, {"time": 238, "pitch": 76, "duration": 10, "velocity": 66}, {"time": 244, "pitch": 52, "duration": 32, "velocity": 55}, {"time": 250, "pitch": 57, "duration": 18, "velocity": 44}, {"time": 256, "pitch": 59, "duration": 7, "velocity": 57}, {"time": 262, "pitch": 64, "duration": 6, "velocity": 61}, {"time": 268, "pitch": 66, "duration": 7, "velocity": 54}, {"time": 274, "pitch": 68, "duration": 5, "velocity": 62}, {"time": 280, "pitch": 69, "duration": 7, "velocity": 63}, {"time": 286, "pitch": 49, "duration": 39, "velocity": 75}, {"time": 286, "pitch": 59, "duration": 9, "velocity": 56}, {"time": 286, "pitch": 64, "duration": 9, "velocity": 64}, {"time": 286, "pitch": 68, "duration": 11, "velocity": 64}, {"time": 292, "pitch": 56, "duration": 33, "velocity": 57}, {"time": 298, "pitch": 59, "duration": 8, "velocity": 49}, {"time": 304, "pitch": 64, "duration": 8, "velocity": 49}, {"time": 316, "pitch": 59, "duration": 7, "velocity": 60}, {"time": 316, "pitch": 71, "duration": 7, "velocity": 73}, {"time": 334, "pitch": 47, "duration": 13, "velocity": 69}, {"time": 334, "pitch": 57, "duration": 7, "velocity": 70}, {"time": 334, "pitch": 62, "duration": 7, "velocity": 75}, {"time": 334, "pitch": 66, "duration": 7, "velocity": 70}, {"time": 340, "pitch": 54, "duration": 7, "velocity": 55}, {"time": 346, "pitch": 57, "duration": 5, "velocity": 69}, {"time": 352, "pitch": 68, "duration": 16, "velocity": 66}, {"time": 358, "pitch": 37, "duration": 12, "velocity": 73}, {"time": 358, "pitch": 59, "duration": 11, "velocity": 63}, {"time": 358, "pitch": 64, "duration": 11, "velocity": 64}, {"time": 376, "pitch": 66, "duration": 5, "velocity": 58}, {"time": 379, "pitch": 68, "duration": 3, "velocity": 67}, {"time": 382, "pitch": 42, "duration": 11, "velocity": 70}, {"time": 382, "pitch": 61, "duration": 25, "velocity": 66}, {"time": 382, "pitch": 69, "duration": 25, "velocity": 66}, {"time": 388, "pitch": 49, "duration": 6, "velocity": 55}, {"time": 394, "pitch": 52, "duration": 8, "velocity": 61}, {"time": 400, "pitch": 54, "duration": 19, "velocity": 64}, {"time": 406, "pitch": 56, "duration": 13, "velocity": 63}, {"time": 412, "pitch": 61, "duration": 7, "velocity": 59}, {"time": 418, "pitch": 64, "duration": 6, "velocity": 69}, {"time": 424, "pitch": 69, "duration": 5, "velocity": 60}, {"time": 430, "pitch": 50, "duration": 39, "velocity": 53}, {"time": 430, "pitch": 57, "duration": 8, "velocity": 78}, {"time": 430, "pitch": 62, "duration": 8, "velocity": 76}, {"time": 430, "pitch": 66, "duration": 8, "velocity": 67}, {"time": 436, "pitch": 54, "duration": 33, "velocity": 58}, {"time": 442, "pitch": 57, "duration": 5, "velocity": 67}, {"time": 448, "pitch": 62, "duration": 9, "velocity": 64}, {"time": 460, "pitch": 57, "duration": 8, "velocity": 80}, {"time": 460, "pitch": 66, "duration": 11, "velocity": 88}, {"time": 472, "pitch": 64, "duration": 4, "velocity": 54}, {"time": 478, "pitch": 45, "duration": 37, "velocity": 73}, {"time": 478, "pitch": 61, "duration": 13, "velocity": 64}, {"time": 478, "pitch": 64, "duration": 13, "velocity": 51}, {"time": 478, "pitch": 69, "duration": 13, "velocity": 54}, {"time": 484, "pitch": 52, "duration": 32, "velocity": 48}, {"time": 490, "pitch": 57, "duration": 19, "velocity": 58}, {"time": 496, "pitch": 59, "duration": 8, "velocity": 69}, {"time": 502, "pitch": 61, "duration": 4, "velocity": 57}, {"time": 508, "pitch": 59, "duration": 9, "velocity": 80}, {"time": 508, "pitch": 61, "duration": 5, "velocity": 70}, {"time": 508, "pitch": 64, "duration": 9, "velocity": 80}, {"time": 514, "pitch": 57, "duration": 3, "velocity": 60}, {"time": 526, "pitch": 47, "duration": 12, "velocity": 75}, {"time": 526, "pitch": 57, "duration": 8, "velocity": 76}, {"time": 526, "pitch": 62, "duration": 9, "velocity": 75}, {"time": 526, "pitch": 66, "duration": 8, "velocity": 75}, {"time": 532, "pitch": 54, "duration": 6, "velocity": 62}, {"time": 538, "pitch": 57, "duration": 5, "velocity": 60}, {"time": 544, "pitch": 64, "duration": 4, "velocity": 63}, {"time": 550, "pitch": 40, "duration": 13, "velocity": 76}, {"time": 550, "pitch": 59, "duration": 16, "velocity": 66}, {"time": 550, "pitch": 64, "duration": 12, "velocity": 72}, {"time": 550, "pitch": 68, "duration": 10, "velocity": 72}, {"time": 574, "pitch": 45, "duration": 38, "velocity": 72}, {"time": 574, "pitch": 61, "duration": 13, "velocity": 76}, {"time": 574, "pitch": 64, "duration": 10, "velocity": 70}, {"time": 574, "pitch": 69, "duration": 13, "velocity": 72}, {"time": 580, "pitch": 52, "duration": 33, "velocity": 46}, {"time": 586, "pitch": 57, "duration": 20, "velocity": 61}, {"time": 592, "pitch": 59, "duration": 10, "velocity": 64}, {"time": 592, "pitch": 64, "duration": 6, "velocity": 60}, {"time": 604, "pitch": 61, "duration": 10, "velocity": 61}, {"time": 622, "pitch": 45, "duration": 36, "velocity": 63}, {"time": 622, "pitch": 57, "duration": 36, "velocity": 56}, {"time": 622, "pitch": 59, "duration": 20, "velocity": 60}, {"time": 622, "pitch": 61, "duration": 21, "velocity": 64}, {"time": 622, "pitch": 64, "duration": 21, "velocity": 60}, {"time": 622, "pitch": 69, "duration": 21, "velocity": 63}, {"time": 646, "pitch": 59, "duration": 12, "velocity": 54}, {"time": 646, "pitch": 61, "duration": 12, "velocity": 57}, {"time": 646, "pitch": 64, "duration": 13, "velocity": 60}, {"time": 646, "pitch": 69, "duration": 10, "velocity": 45}, {"time": 670, "pitch": 49, "duration": 37, "velocity": 52}, {"time": 670, "pitch": 56, "duration": 38, "velocity": 57}, {"time": 670, "pitch": 59, "duration": 11, "velocity": 60}, {"time": 670, "pitch": 64, "duration": 11, "velocity": 60}, {"time": 670, "pitch": 68, "duration": 11, "velocity": 60}, {"time": 694, "pitch": 59, "duration": 12, "velocity": 38}, {"time": 694, "pitch": 64, "duration": 11, "velocity": 40}, {"time": 694, "pitch": 68, "duration": 11, "velocity": 44}, {"time": 718, "pitch": 50, "duration": 11, "velocity": 57}, {"time": 718, "pitch": 57, "duration": 11, "velocity": 56}, {"time": 718, "pitch": 62, "duration": 13, "velocity": 48}, {"time": 718, "pitch": 66, "duration": 12, "velocity": 51}, {"time": 742, "pitch": 37, "duration": 13, "velocity": 51}, {"time": 742, "pitch": 49, "duration": 15, "velocity": 43}, {"time": 742, "pitch": 59, "duration": 14, "velocity": 56}, {"time": 742, "pitch": 64, "duration": 15, "velocity": 62}, {"time": 742, "pitch": 68, "duration": 10, "velocity": 57}, {"time": 766, "pitch": 42, "duration": 37, "velocity": 63}, {"time": 766, "pitch": 61, "duration": 11, "velocity": 57}, {"time": 766, "pitch": 69, "duration": 10, "velocity": 62}, {"time": 772, "pitch": 49, "duration": 27, "velocity": 35}, {"time": 778, "pitch": 54, "duration": 16, "velocity": 44}, {"time": 784, "pitch": 56, "duration": 7, "velocity": 50}, {"time": 796, "pitch": 57, "duration": 3, "velocity": 47}, {"time": 802, "pitch": 61, "duration": 5, "velocity": 57}, {"time": 808, "pitch": 64, "duration": 5, "velocity": 55}, {"time": 812, "pitch": 57, "duration": 15, "velocity": 56}, {"time": 812, "pitch": 62, "duration": 15, "velocity": 59}, {"time": 813, "pitch": 66, "duration": 14, "velocity": 60}, {"time": 814, "pitch": 50, "duration": 38, "velocity": 70}, {"time": 814, "pitch": 69, "duration": 13, "velocity": 49}, {"time": 838, "pitch": 57, "duration": 12, "velocity": 56}, {"time": 838, "pitch": 62, "duration": 13, "velocity": 58}, {"time": 838, "pitch": 66, "duration": 16, "velocity": 62}, {"time": 862, "pitch": 45, "duration": 34, "velocity": 61}, {"time": 862, "pitch": 57, "duration": 34, "velocity": 51}, {"time": 862, "pitch": 59, "duration": 16, "velocity": 46}, {"time": 862, "pitch": 61, "duration": 16, "velocity": 57}, {"time": 862, "pitch": 64, "duration": 16, "velocity": 57}, {"time": 862, "pitch": 69, "duration": 18, "velocity": 48}, {"time": 886, "pitch": 59, "duration": 11, "velocity": 61}, {"time": 886, "pitch": 61, "duration": 10, "velocity": 64}, {"time": 886, "pitch": 64, "duration": 11, "velocity": 66}, {"time": 886, "pitch": 69, "duration": 11, "velocity": 49}, {"time": 910, "pitch": 47, "duration": 33, "velocity": 57}, {"time": 910, "pitch": 54, "duration": 32, "velocity": 55}, {"time": 910, "pitch": 57, "duration": 14, "velocity": 58}, {"time": 910, "pitch": 62, "duration": 14, "velocity": 60}, {"time": 910, "pitch": 66, "duration": 14, "velocity": 60}, {"time": 934, "pitch": 57, "duration": 10, "velocity": 55}, {"time": 934, "pitch": 62, "duration": 13, "velocity": 58}, {"time": 934, "pitch": 66, "duration": 13, "velocity": 56}, {"time": 958, "pitch": 40, "duration": 36, "velocity": 57}, {"time": 958, "pitch": 52, "duration": 33, "velocity": 53}, {"time": 958, "pitch": 59, "duration": 16, "velocity": 55}, {"time": 958, "pitch": 64, "duration": 17, "velocity": 66}, {"time": 958, "pitch": 68, "duration": 16, "velocity": 55}, {"time": 982, "pitch": 59, "duration": 11, "velocity": 67}, {"time": 982, "pitch": 64, "duration": 12, "velocity": 72}, {"time": 982, "pitch": 68, "duration": 10, "velocity": 70}, {"time": 994, "pitch": 52, "duration": 12, "velocity": 61}, {"time": 1006, "pitch": 45, "duration": 39, "velocity": 66}, {"time": 1006, "pitch": 59, "duration": 12, "velocity": 57}, {"time": 1006, "pitch": 61, "duration": 13, "velocity": 57}, {"time": 1006, "pitch": 64, "duration": 13, "velocity": 55}, {"time": 1006, "pitch": 69, "duration": 13, "velocity": 44}, {"time": 1018, "pitch": 52, "duration": 28, "velocity": 27}, {"time": 1030, "pitch": 59, "duration": 12, "velocity": 49}, {"time": 1030, "pitch": 61, "duration": 13, "velocity": 54}, {"time": 1030, "pitch": 64, "duration": 13, "velocity": 58}, {"time": 1030, "pitch": 69, "duration": 13, "velocity": 55}, {"time": 1042, "pitch": 57, "duration": 5, "velocity": 52}, {"time": 1054, "pitch": 49, "duration": 18, "velocity": 72}, {"time": 1060, "pitch": 56, "duration": 12, "velocity": 59}, {"time": 1066, "pitch": 59, "duration": 6, "velocity": 69}, {"time": 1072, "pitch": 64, "duration": 19, "velocity": 71}, {"time": 1072, "pitch": 61, "duration": 19, "velocity": 69}, {"time": 1102, "pitch": 47, "duration": 14, "velocity": 51}, {"time": 1102, "pitch": 62, "duration": 13, "velocity": 63}, {"time": 1102, "pitch": 66, "duration": 14, "velocity": 58}, {"time": 1102, "pitch": 69, "duration": 13, "velocity": 48}, {"time": 1108, "pitch": 54, "duration": 8, "velocity": 47}, {"time": 1114, "pitch": 59, "duration": 5, "velocity": 56}, {"time": 1119, "pitch": 64, "duration": 7, "velocity": 56}, {"time": 1125, "pitch": 49, "duration": 11, "velocity": 56}, {"time": 1126, "pitch": 37, "duration": 12, "velocity": 60}, {"time": 1126, "pitch": 59, "duration": 14, "velocity": 63}, {"time": 1126, "pitch": 64, "duration": 1, "velocity": 72}, {"time": 1126, "pitch": 68, "duration": 12, "velocity": 67}, {"time": 1132, "pitch": 56, "duration": 8, "velocity": 51}, {"time": 1138, "pitch": 64, "duration": 2, "velocity": 56}, {"time": 1150, "pitch": 42, "duration": 20, "velocity": 58}, {"time": 1150, "pitch": 57, "duration": 10, "velocity": 56}, {"time": 1150, "pitch": 61, "duration": 10, "velocity": 59}, {"time": 1150, "pitch": 64, "duration": 11, "velocity": 61}, {"time": 1162, "pitch": 49, "duration": 11, "velocity": 39}, {"time": 1174, "pitch": 54, "duration": 13, "velocity": 56}, {"time": 1174, "pitch": 61, "duration": 6, "velocity": 64}, {"time": 1174, "pitch": 69, "duration": 8, "velocity": 75}, {"time": 1186, "pitch": 56, "duration": 2, "velocity": 63}, {"time": 1186, "pitch": 61, "duration": 3, "velocity": 69}, {"time": 1186, "pitch": 68, "duration": 3, "velocity": 62}, {"time": 1198, "pitch": 50, "duration": 35, "velocity": 59}, {"time": 1198, "pitch": 57, "duration": 12, "velocity": 63}, {"time": 1198, "pitch": 62, "duration": 12, "velocity": 63}, {"time": 1198, "pitch": 66, "duration": 11, "velocity": 63}, {"time": 1210, "pitch": 54, "duration": 22, "velocity": 41}, {"time": 1222, "pitch": 57, "duration": 11, "velocity": 66}, {"time": 1222, "pitch": 62, "duration": 11, "velocity": 64}, {"time": 1222, "pitch": 66, "duration": 12, "velocity": 69}, {"time": 1246, "pitch": 45, "duration": 34, "velocity": 64}, {"time": 1246, "pitch": 59, "duration": 14, "velocity": 52}, {"time": 1246, "pitch": 61, "duration": 14, "velocity": 60}, {"time": 1246, "pitch": 64, "duration": 14, "velocity": 63}, {"time": 1246, "pitch": 69, "duration": 14, "velocity": 53}, {"time": 1258, "pitch": 52, "duration": 24, "velocity": 40}, {"time": 1270, "pitch": 57, "duration": 7, "velocity": 48}, {"time": 1270, "pitch": 59, "duration": 10, "velocity": 53}, {"time": 1270, "pitch": 61, "duration": 10, "velocity": 54}, {"time": 1270, "pitch": 64, "duration": 10, "velocity": 61}, {"time": 1270, "pitch": 69, "duration": 8, "velocity": 47}, {"time": 1294, "pitch": 47, "duration": 11, "velocity": 43}, {"time": 1294, "pitch": 54, "duration": 11, "velocity": 63}, {"time": 1294, "pitch": 57, "duration": 11, "velocity": 69}, {"time": 1294, "pitch": 62, "duration": 12, "velocity": 75}, {"time": 1294, "pitch": 66, "duration": 12, "velocity": 72}, {"time": 1318, "pitch": 40, "duration": 14, "velocity": 63}, {"time": 1318, "pitch": 52, "duration": 15, "velocity": 51}, {"time": 1318, "pitch": 59, "duration": 14, "velocity": 64}, {"time": 1318, "pitch": 64, "duration": 14, "velocity": 70}, {"time": 1318, "pitch": 68, "duration": 11, "velocity": 70}, {"time": 1342, "pitch": 45, "duration": 37, "velocity": 72}, {"time": 1342, "pitch": 61, "duration": 10, "velocity": 63}, {"time": 1342, "pitch": 64, "duration": 10, "velocity": 69}, {"time": 1342, "pitch": 69, "duration": 14, "velocity": 64}, {"time": 1354, "pitch": 52, "duration": 28, "velocity": 44}, {"time": 1360, "pitch": 57, "duration": 18, "velocity": 72}, {"time": 1366, "pitch": 59, "duration": 4, "velocity": 63}, {"time": 1372, "pitch": 61, "duration": 4, "velocity": 62}, {"time": 1378, "pitch": 64, "duration": 5, "velocity": 66}, {"time": 1384, "pitch": 69, "duration": 3, "velocity": 51}, {"time": 1390, "pitch": 49, "duration": 40, "velocity": 69}, {"time": 1390, "pitch": 59, "duration": 7, "velocity": 66}, {"time": 1390, "pitch": 64, "duration": 7, "velocity": 69}, {"time": 1390, "pitch": 68, "duration": 7, "velocity": 69}, {"time": 1396, "pitch": 56, "duration": 25, "velocity": 52}, {"time": 1402, "pitch": 59, "duration": 4, "velocity": 56}, {"time": 1408, "pitch": 64, "duration": 10, "velocity": 69}, {"time": 1420, "pitch": 59, "duration": 8, "velocity": 78}, {"time": 1420, "pitch": 68, "duration": 10, "velocity": 80}, {"time": 1426, "pitch": 56, "duration": 3, "velocity": 63}, {"time": 1432, "pitch": 64, "duration": 4, "velocity": 49}, {"time": 1438, "pitch": 42, "duration": 34, "velocity": 72}, {"time": 1438, "pitch": 61, "duration": 8, "velocity": 73}, {"time": 1438, "pitch": 64, "duration": 7, "velocity": 70}, {"time": 1438, "pitch": 69, "duration": 8, "velocity": 73}, {"time": 1444, "pitch": 49, "duration": 28, "velocity": 63}, {"time": 1450, "pitch": 54, "duration": 24, "velocity": 67}, {"time": 1456, "pitch": 56, "duration": 6, "velocity": 63}, {"time": 1462, "pitch": 57, "duration": 3, "velocity": 60}, {"time": 1468, "pitch": 61, "duration": 5, "velocity": 70}, {"time": 1474, "pitch": 66, "duration": 5, "velocity": 76}, {"time": 1480, "pitch": 69, "duration": 5, "velocity": 61}, {"time": 1486, "pitch": 49, "duration": 36, "velocity": 70}, {"time": 1486, "pitch": 59, "duration": 8, "velocity": 63}, {"time": 1486, "pitch": 64, "duration": 8, "velocity": 66}, {"time": 1486, "pitch": 68, "duration": 8, "velocity": 67}, {"time": 1492, "pitch": 56, "duration": 17, "velocity": 59}, {"time": 1498, "pitch": 59, "duration": 4, "velocity": 49}, {"time": 1504, "pitch": 59, "duration": 4, "velocity": 53}, {"time": 1504, "pitch": 64, "duration": 14, "velocity": 91}, {"time": 1516, "pitch": 56, "duration": 11, "velocity": 66}, {"time": 1522, "pitch": 59, "duration": 5, "velocity": 57}, {"time": 1528, "pitch": 64, "duration": 3, "velocity": 54}, {"time": 1534, "pitch": 49, "duration": 40, "velocity": 69}, {"time": 1534, "pitch": 59, "duration": 5, "velocity": 62}, {"time": 1534, "pitch": 64, "duration": 7, "velocity": 66}, {"time": 1534, "pitch": 71, "duration": 15, "velocity": 76}, {"time": 1540, "pitch": 56, "duration": 22, "velocity": 52}, {"time": 1546, "pitch": 57, "duration": 2, "velocity": 43}, {"time": 1546, "pitch": 59, "duration": 19, "velocity": 44}, {"time": 1552, "pitch": 64, "duration": 8, "velocity": 61}, {"time": 1552, "pitch": 71, "duration": 3, "velocity": 33}, {"time": 1558, "pitch": 66, "duration": 4, "velocity": 67}, {"time": 1564, "pitch": 64, "duration": 10, "velocity": 73}, {"time": 1564, "pitch": 68, "duration": 11, "velocity": 70}, {"time": 1570, "pitch": 56, "duration": 4, "velocity": 69}, {"time": 1576, "pitch": 59, "duration": 2, "velocity": 45}, {"time": 1582, "pitch": 45, "duration": 39, "velocity": 69}, {"time": 1582, "pitch": 59, "duration": 13, "velocity": 64}, {"time": 1582, "pitch": 61, "duration": 13, "velocity": 69}, {"time": 1582, "pitch": 64, "duration": 13, "velocity": 70}, {"time": 1588, "pitch": 52, "duration": 32, "velocity": 58}, {"time": 1594, "pitch": 57, "duration": 19, "velocity": 60}, {"time": 1600, "pitch": 59, "duration": 20, "velocity": 67}, {"time": 1612, "pitch": 64, "duration": 8, "velocity": 75}, {"time": 1618, "pitch": 57, "duration": 3, "velocity": 51}, {"time": 1630, "pitch": 42, "duration": 11, "velocity": 61}, {"time": 1630, "pitch": 61, "duration": 30, "velocity": 63}, {"time": 1630, "pitch": 64, "duration": 30, "velocity": 62}, {"time": 1630, "pitch": 69, "duration": 31, "velocity": 64}, {"time": 1636, "pitch": 49, "duration": 6, "velocity": 39}, {"time": 1642, "pitch": 52, "duration": 8, "velocity": 40}, {"time": 1648, "pitch": 54, "duration": 19, "velocity": 66}, {"time": 1660, "pitch": 56, "duration": 7, "velocity": 55}, {"time": 1666, "pitch": 61, "duration": 6, "velocity": 73}, {"time": 1672, "pitch": 69, "duration": 7, "velocity": 69}, {"time": 1678, "pitch": 49, "duration": 38, "velocity": 75}, {"time": 1678, "pitch": 59, "duration": 9, "velocity": 63}, {"time": 1678, "pitch": 64, "duration": 11, "velocity": 75}, {"time": 1678, "pitch": 68, "duration": 15, "velocity": 69}, {"time": 1684, "pitch": 56, "duration": 27, "velocity": 56}, {"time": 1690, "pitch": 59, "duration": 10, "velocity": 56}, {"time": 1696, "pitch": 64, "duration": 10, "velocity": 73}, {"time": 1708, "pitch": 59, "duration": 7, "velocity": 67}, {"time": 1708, "pitch": 64, "duration": 8, "velocity": 66}, {"time": 1708, "pitch": 68, "duration": 8, "velocity": 60}, {"time": 1714, "pitch": 56, "duration": 4, "velocity": 56}, {"time": 1720, "pitch": 59, "duration": 12, "velocity": 55}, {"time": 1726, "pitch": 49, "duration": 35, "velocity": 59}, {"time": 1726, "pitch": 71, "duration": 15, "velocity": 62}, {"time": 1729, "pitch": 64, "duration": 3, "velocity": 15}, {"time": 1732, "pitch": 56, "duration": 14, "velocity": 56}, {"time": 1738, "pitch": 59, "duration": 17, "velocity": 47}, {"time": 1744, "pitch": 64, "duration": 10, "velocity": 69}, {"time": 1744, "pitch": 68, "duration": 11, "velocity": 64}, {"time": 1756, "pitch": 56, "duration": 5, "velocity": 61}, {"time": 1762, "pitch": 59, "duration": 6, "velocity": 63}, {"time": 1762, "pitch": 64, "duration": 5, "velocity": 59}, {"time": 1768, "pitch": 48, "duration": 8, "velocity": 44}, {"time": 1774, "pitch": 47, "duration": 38, "velocity": 61}, {"time": 1774, "pitch": 57, "duration": 8, "velocity": 67}, {"time": 1774, "pitch": 62, "duration": 8, "velocity": 69}, {"time": 1774, "pitch": 66, "duration": 8, "velocity": 67}, {"time": 1780, "pitch": 54, "duration": 24, "velocity": 45}, {"time": 1786, "pitch": 57, "duration": 9, "velocity": 55}, {"time": 1792, "pitch": 62, "duration": 9, "velocity": 72}, {"time": 1798, "pitch": 66, "duration": 10, "velocity": 61}, {"time": 1804, "pitch": 57, "duration": 9, "velocity": 73}, {"time": 1810, "pitch": 62, "duration": 9, "velocity": 67}, {"time": 1816, "pitch": 66, "duration": 5, "velocity": 67}, {"time": 1822, "pitch": 49, "duration": 37, "velocity": 64}, {"time": 1822, "pitch": 59, "duration": 8, "velocity": 64}, {"time": 1822, "pitch": 64, "duration": 9, "velocity": 73}, {"time": 1828, "pitch": 56, "duration": 32, "velocity": 51}, {"time": 1834, "pitch": 59, "duration": 8, "velocity": 53}, {"time": 1840, "pitch": 64, "duration": 6, "velocity": 63}, {"time": 1846, "pitch": 59, "duration": 9, "velocity": 52}, {"time": 1852, "pitch": 68, "duration": 7, "velocity": 72}, {"time": 1858, "pitch": 64, "duration": 5, "velocity": 64}, {"time": 1864, "pitch": 59, "duration": 9, "velocity": 58}, {"time": 1870, "pitch": 50, "duration": 18, "velocity": 75}, {"time": 1876, "pitch": 57, "duration": 9, "velocity": 72}, {"time": 1882, "pitch": 62, "duration": 7, "velocity": 70}, {"time": 1888, "pitch": 66, "duration": 11, "velocity": 62}, {"time": 1894, "pitch": 57, "duration": 8, "velocity": 49}, {"time": 1900, "pitch": 64, "duration": 5, "velocity": 48}, {"time": 1906, "pitch": 40, "duration": 3, "velocity": 73}, {"time": 1906, "pitch": 59, "duration": 6, "velocity": 53}, {"time": 1906, "pitch": 66, "duration": 4, "velocity": 67}, {"time": 1918, "pitch": 45, "duration": 39, "velocity": 67}, {"time": 1918, "pitch": 61, "duration": 11, "velocity": 66}, {"time": 1918, "pitch": 64, "duration": 9, "velocity": 51}, {"time": 1918, "pitch": 69, "duration": 12, "velocity": 61}, {"time": 1924, "pitch": 52, "duration": 35, "velocity": 48}, {"time": 1930, "pitch": 57, "duration": 24, "velocity": 48}, {"time": 1936, "pitch": 59, "duration": 8, "velocity": 69}, {"time": 1942, "pitch": 61, "duration": 4, "velocity": 56}, {"time": 1948, "pitch": 64, "duration": 5, "velocity": 59}, {"time": 1954, "pitch": 69, "duration": 4, "velocity": 57}, {"time": 1960, "pitch": 71, "duration": 5, "velocity": 59}, {"time": 1966, "pitch": 50, "duration": 37, "velocity": 64}, {"time": 1966, "pitch": 62, "duration": 8, "velocity": 63}, {"time": 1966, "pitch": 66, "duration": 10, "velocity": 63}, {"time": 1972, "pitch": 57, "duration": 31, "velocity": 47}, {"time": 1978, "pitch": 61, "duration": 22, "velocity": 50}, {"time": 1984, "pitch": 64, "duration": 12, "velocity": 69}, {"time": 1996, "pitch": 69, "duration": 14, "velocity": 69}, {"time": 2014, "pitch": 47, "duration": 36, "velocity": 61}, {"time": 2014, "pitch": 57, "duration": 8, "velocity": 60}, {"time": 2014, "pitch": 62, "duration": 8, "velocity": 69}, {"time": 2014, "pitch": 66, "duration": 5, "velocity": 64}, {"time": 2020, "pitch": 54, "duration": 30, "velocity": 47}, {"time": 2026, "pitch": 57, "duration": 6, "velocity": 56}, {"time": 2032, "pitch": 62, "duration": 7, "velocity": 64}, {"time": 2038, "pitch": 66, "duration": 4, "velocity": 50}, {"time": 2044, "pitch": 69, "duration": 4, "velocity": 75}, {"time": 2050, "pitch": 71, "duration": 5, "velocity": 69}, {"time": 2056, "pitch": 74, "duration": 3, "velocity": 63}, {"time": 2059, "pitch": 71, "duration": 5, "velocity": 37}, {"time": 2062, "pitch": 52, "duration": 81, "velocity": 66}, {"time": 2062, "pitch": 69, "duration": 12, "velocity": 69}, {"time": 2068, "pitch": 59, "duration": 77, "velocity": 50}, {"time": 2074, "pitch": 64, "duration": 32, "velocity": 53}, {"time": 2080, "pitch": 66, "duration": 5, "velocity": 45}, {"time": 2086, "pitch": 69, "duration": 6, "velocity": 52}, {"time": 2092, "pitch": 71, "duration": 4, "velocity": 60}, {"time": 2098, "pitch": 71, "duration": 2, "velocity": 40}, {"time": 2104, "pitch": 76, "duration": 6, "velocity": 51}, {"time": 2110, "pitch": 71, "duration": 12, "velocity": 54}, {"time": 2110, "pitch": 81, "duration": 13, "velocity": 64}, {"time": 2128, "pitch": 64, "duration": 12, "velocity": 37}, {"time": 2134, "pitch": 71, "duration": 8, "velocity": 58}, {"time": 2134, "pitch": 76, "duration": 7, "velocity": 61}, {"time": 2157, "pitch": 45, "duration": 38, "velocity": 67}, {"time": 2164, "pitch": 52, "duration": 32, "velocity": 61}, {"time": 2170, "pitch": 59, "duration": 36, "velocity": 53}, {"time": 2176, "pitch": 64, "duration": 30, "velocity": 63}, {"time": 2176, "pitch": 61, "duration": 30, "velocity": 58}, {"time": 2206, "pitch": 49, "duration": 42, "velocity": 69}, {"time": 2212, "pitch": 56, "duration": 37, "velocity": 61}, {"time": 2218, "pitch": 59, "duration": 30, "velocity": 67}, {"time": 2223, "pitch": 64, "duration": 27, "velocity": 67}, {"time": 2224, "pitch": 61, "duration": 25, "velocity": 59}, {"time": 2254, "pitch": 47, "duration": 15, "velocity": 63}, {"time": 2260, "pitch": 54, "duration": 11, "velocity": 51}, {"time": 2266, "pitch": 64, "duration": 12, "velocity": 67}, {"time": 2266, "pitch": 61, "duration": 12, "velocity": 61}, {"time": 2277, "pitch": 49, "duration": 13, "velocity": 74}, {"time": 2278, "pitch": 37, "duration": 9, "velocity": 62}, {"time": 2284, "pitch": 56, "duration": 7, "velocity": 61}, {"time": 2289, "pitch": 64, "duration": 12, "velocity": 69}, {"time": 2290, "pitch": 61, "duration": 11, "velocity": 68}, {"time": 2302, "pitch": 42, "duration": 37, "velocity": 72}, {"time": 2302, "pitch": 57, "duration": 12, "velocity": 64}, {"time": 2302, "pitch": 61, "duration": 10, "velocity": 72}, {"time": 2302, "pitch": 66, "duration": 15, "velocity": 70}, {"time": 2308, "pitch": 49, "duration": 30, "velocity": 47}, {"time": 2314, "pitch": 54, "duration": 21, "velocity": 52}, {"time": 2320, "pitch": 56, "duration": 10, "velocity": 62}, {"time": 2332, "pitch": 57, "duration": 10, "velocity": 82}, {"time": 2350, "pitch": 38, "duration": 38, "velocity": 62}, {"time": 2350, "pitch": 50, "duration": 36, "velocity": 46}, {"time": 2350, "pitch": 54, "duration": 16, "velocity": 59}, {"time": 2350, "pitch": 57, "duration": 15, "velocity": 73}, {"time": 2350, "pitch": 62, "duration": 16, "velocity": 62}, {"time": 2374, "pitch": 54, "duration": 13, "velocity": 60}, {"time": 2374, "pitch": 57, "duration": 13, "velocity": 67}, {"time": 2374, "pitch": 62, "duration": 13, "velocity": 69}, {"time": 2386, "pitch": 59, "duration": 10, "velocity": 72}, {"time": 2398, "pitch": 45, "duration": 35, "velocity": 60}, {"time": 2398, "pitch": 52, "duration": 18, "velocity": 59}, {"time": 2398, "pitch": 57, "duration": 18, "velocity": 62}, {"time": 2398, "pitch": 61, "duration": 19, "velocity": 54}, {"time": 2398, "pitch": 64, "duration": 19, "velocity": 52}, {"time": 2422, "pitch": 52, "duration": 10, "velocity": 58}, {"time": 2422, "pitch": 57, "duration": 12, "velocity": 66}, {"time": 2422, "pitch": 61, "duration": 13, "velocity": 64}, {"time": 2446, "pitch": 35, "duration": 13, "velocity": 58}, {"time": 2446, "pitch": 47, "duration": 14, "velocity": 47}, {"time": 2451, "pitch": 54, "duration": 18, "velocity": 39}, {"time": 2458, "pitch": 59, "duration": 11, "velocity": 55}, {"time": 2458, "pitch": 62, "duration": 12, "velocity": 55}, {"time": 2470, "pitch": 40, "duration": 24, "velocity": 59}, {"time": 2470, "pitch": 52, "duration": 24, "velocity": 56}, {"time": 2476, "pitch": 56, "duration": 18, "velocity": 63}, {"time": 2482, "pitch": 64, "duration": 12, "velocity": 61}, {"time": 2482, "pitch": 59, "duration": 12, "velocity": 56}, {"time": 2494, "pitch": 45, "duration": 35, "velocity": 59}, {"time": 2494, "pitch": 59, "duration": 1, "velocity": 48}, {"time": 2494, "pitch": 61, "duration": 11, "velocity": 49}, {"time": 2494, "pitch": 64, "duration": 1, "velocity": 47}, {"time": 2494, "pitch": 68, "duration": 5, "velocity": 44}, {"time": 2494, "pitch": 69, "duration": 5, "velocity": 44}, {"time": 2500, "pitch": 52, "duration": 31, "velocity": 49}, {"time": 2506, "pitch": 57, "duration": 25, "velocity": 58}, {"time": 2512, "pitch": 59, "duration": 4, "velocity": 64}, {"time": 2518, "pitch": 61, "duration": 4, "velocity": 54}, {"time": 2524, "pitch": 64, "duration": 2, "velocity": 59}, {"time": 2530, "pitch": 69, "duration": 6, "velocity": 69}, {"time": 2536, "pitch": 71, "duration": 5, "velocity": 46}, {"time": 2542, "pitch": 49, "duration": 33, "velocity": 78}, {"time": 2542, "pitch": 56, "duration": 24, "velocity": 72}, {"time": 2542, "pitch": 59, "duration": 18, "velocity": 62}, {"time": 2542, "pitch": 64, "duration": 12, "velocity": 76}, {"time": 2542, "pitch": 68, "duration": 17, "velocity": 72}, {"time": 2542, "pitch": 71, "duration": 2, "velocity": 56}, {"time": 2554, "pitch": 71, "duration": 10, "velocity": 14}, {"time": 2566, "pitch": 59, "duration": 7, "velocity": 66}, {"time": 2566, "pitch": 64, "duration": 8, "velocity": 67}, {"time": 2566, "pitch": 68, "duration": 8, "velocity": 72}, {"time": 2566, "pitch": 71, "duration": 6, "velocity": 55}, {"time": 2572, "pitch": 56, "duration": 4, "velocity": 69}, {"time": 2578, "pitch": 66, "duration": 11, "velocity": 73}, {"time": 2584, "pitch": 68, "duration": 5, "velocity": 63}, {"time": 2590, "pitch": 42, "duration": 11, "velocity": 62}, {"time": 2590, "pitch": 61, "duration": 31, "velocity": 69}, {"time": 2590, "pitch": 64, "duration": 31, "velocity": 73}, {"time": 2590, "pitch": 69, "duration": 30, "velocity": 70}, {"time": 2596, "pitch": 49, "duration": 6, "velocity": 44}, {"time": 2602, "pitch": 54, "duration": 8, "velocity": 46}, {"time": 2608, "pitch": 56, "duration": 15, "velocity": 61}, {"time": 2620, "pitch": 57, "duration": 4, "velocity": 69}, {"time": 2626, "pitch": 61, "duration": 6, "velocity": 75}, {"time": 2632, "pitch": 69, "duration": 7, "velocity": 69}, {"time": 2638, "pitch": 49, "duration": 37, "velocity": 66}, {"time": 2638, "pitch": 59, "duration": 9, "velocity": 67}, {"time": 2638, "pitch": 64, "duration": 9, "velocity": 64}, {"time": 2638, "pitch": 68, "duration": 10, "velocity": 72}, {"time": 2644, "pitch": 56, "duration": 26, "velocity": 51}, {"time": 2650, "pitch": 59, "duration": 8, "velocity": 51}, {"time": 2656, "pitch": 64, "duration": 9, "velocity": 75}, {"time": 2668, "pitch": 59, "duration": 7, "velocity": 64}, {"time": 2668, "pitch": 66, "duration": 8, "velocity": 76}, {"time": 2674, "pitch": 56, "duration": 3, "velocity": 49}, {"time": 2680, "pitch": 59, "duration": 5, "velocity": 54}, {"time": 2686, "pitch": 49, "duration": 39, "velocity": 70}, {"time": 2686, "pitch": 64, "duration": 3, "velocity": 75}, {"time": 2692, "pitch": 56, "duration": 33, "velocity": 53}, {"time": 2698, "pitch": 71, "duration": 8, "velocity": 67}, {"time": 2698, "pitch": 76, "duration": 7, "velocity": 73}, {"time": 2704, "pitch": 78, "duration": 7, "velocity": 69}, {"time": 2710, "pitch": 61, "duration": 7, "velocity": 40}, {"time": 2710, "pitch": 76, "duration": 6, "velocity": 57}, {"time": 2716, "pitch": 73, "duration": 6, "velocity": 76}, {"time": 2722, "pitch": 61, "duration": 4, "velocity": 56}, {"time": 2722, "pitch": 71, "duration": 7, "velocity": 80}, {"time": 2728, "pitch": 69, "duration": 5, "velocity": 75}, {"time": 2734, "pitch": 45, "duration": 39, "velocity": 70}, {"time": 2734, "pitch": 64, "duration": 8, "velocity": 70}, {"time": 2734, "pitch": 69, "duration": 7, "velocity": 72}, {"time": 2740, "pitch": 52, "duration": 33, "velocity": 61}, {"time": 2746, "pitch": 57, "duration": 26, "velocity": 52}, {"time": 2752, "pitch": 59, "duration": 7, "velocity": 73}, {"time": 2752, "pitch": 64, "duration": 7, "velocity": 73}, {"time": 2758, "pitch": 61, "duration": 7, "velocity": 69}, {"time": 2764, "pitch": 59, "duration": 10, "velocity": 62}, {"time": 2764, "pitch": 64, "duration": 7, "velocity": 73}, {"time": 2770, "pitch": 66, "duration": 11, "velocity": 62}, {"time": 2776, "pitch": 69, "duration": 3, "velocity": 60}, {"time": 2782, "pitch": 42, "duration": 38, "velocity": 72}, {"time": 2782, "pitch": 57, "duration": 11, "velocity": 58}, {"time": 2782, "pitch": 61, "duration": 12, "velocity": 80}, {"time": 2782, "pitch": 64, "duration": 10, "velocity": 66}, {"time": 2788, "pitch": 49, "duration": 33, "velocity": 55}, {"time": 2794, "pitch": 54, "duration": 25, "velocity": 54}, {"time": 2800, "pitch": 56, "duration": 5, "velocity": 56}, {"time": 2806, "pitch": 57, "duration": 3, "velocity": 51}, {"time": 2812, "pitch": 61, "duration": 5, "velocity": 66}, {"time": 2818, "pitch": 64, "duration": 5, "velocity": 63}, {"time": 2824, "pitch": 69, "duration": 4, "velocity": 55}, {"time": 2830, "pitch": 49, "duration": 15, "velocity": 66}, {"time": 2830, "pitch": 59, "duration": 8, "velocity": 63}, {"time": 2830, "pitch": 64, "duration": 8, "velocity": 75}, {"time": 2836, "pitch": 56, "duration": 8, "velocity": 52}, {"time": 2842, "pitch": 59, "duration": 6, "velocity": 61}, {"time": 2848, "pitch": 64, "duration": 6, "velocity": 56}, {"time": 2854, "pitch": 59, "duration": 8, "velocity": 61}, {"time": 2854, "pitch": 66, "duration": 12, "velocity": 70}, {"time": 2866, "pitch": 59, "duration": 3, "velocity": 59}, {"time": 2866, "pitch": 64, "duration": 3, "velocity": 72}, {"time": 2878, "pitch": 59, "duration": 25, "velocity": 61}, {"time": 2878, "pitch": 64, "duration": 23, "velocity": 73}, {"time": 2884, "pitch": 37, "duration": 6, "velocity": 66}, {"time": 2890, "pitch": 49, "duration": 7, "velocity": 48}, {"time": 2896, "pitch": 52, "duration": 18, "velocity": 49}, {"time": 2902, "pitch": 56, "duration": 11, "velocity": 45}, {"time": 2908, "pitch": 59, "duration": 4, "velocity": 57}, {"time": 2914, "pitch": 64, "duration": 5, "velocity": 62}, {"time": 2920, "pitch": 69, "duration": 4, "velocity": 45}, {"time": 2926, "pitch": 47, "duration": 39, "velocity": 66}, {"time": 2926, "pitch": 57, "duration": 20, "velocity": 67}, {"time": 2926, "pitch": 62, "duration": 19, "velocity": 69}, {"time": 2926, "pitch": 66, "duration": 19, "velocity": 67}, {"time": 2944, "pitch": 54, "duration": 9, "velocity": 54}, {"time": 2950, "pitch": 57, "duration": 13, "velocity": 75}, {"time": 2950, "pitch": 62, "duration": 12, "velocity": 76}, {"time": 2950, "pitch": 66, "duration": 14, "velocity": 73}, {"time": 2962, "pitch": 54, "duration": 2, "velocity": 59}, {"time": 2974, "pitch": 37, "duration": 37, "velocity": 67}, {"time": 2974, "pitch": 59, "duration": 10, "velocity": 70}, {"time": 2974, "pitch": 64, "duration": 11, "velocity": 64}, {"time": 2980, "pitch": 49, "duration": 16, "velocity": 67}, {"time": 2986, "pitch": 54, "duration": 16, "velocity": 48}, {"time": 2992, "pitch": 59, "duration": 4, "velocity": 50}, {"time": 2998, "pitch": 59, "duration": 8, "velocity": 67}, {"time": 2998, "pitch": 64, "duration": 8, "velocity": 72}, {"time": 2998, "pitch": 68, "duration": 8, "velocity": 73}, {"time": 3004, "pitch": 49, "duration": 7, "velocity": 50}, {"time": 3010, "pitch": 59, "duration": 5, "velocity": 55}, {"time": 3016, "pitch": 64, "duration": 4, "velocity": 40}, {"time": 3022, "pitch": 38, "duration": 37, "velocity": 62}, {"time": 3022, "pitch": 50, "duration": 13, "velocity": 63}, {"time": 3022, "pitch": 57, "duration": 19, "velocity": 80}, {"time": 3022, "pitch": 62, "duration": 19, "velocity": 69}, {"time": 3022, "pitch": 66, "duration": 15, "velocity": 66}, {"time": 3040, "pitch": 50, "duration": 11, "velocity": 44}, {"time": 3046, "pitch": 57, "duration": 13, "velocity": 75}, {"time": 3046, "pitch": 62, "duration": 15, "velocity": 72}, {"time": 3046, "pitch": 66, "duration": 14, "velocity": 69}, {"time": 3058, "pitch": 40, "duration": 5, "velocity": 61}, {"time": 3058, "pitch": 50, "duration": 2, "velocity": 31}, {"time": 3070, "pitch": 45, "duration": 39, "velocity": 69}, {"time": 3070, "pitch": 61, "duration": 16, "velocity": 72}, {"time": 3070, "pitch": 64, "duration": 15, "velocity": 73}, {"time": 3070, "pitch": 69, "duration": 17, "velocity": 66}, {"time": 3082, "pitch": 52, "duration": 31, "velocity": 39}, {"time": 3088, "pitch": 57, "duration": 17, "velocity": 58}, {"time": 3094, "pitch": 59, "duration": 8, "velocity": 93}, {"time": 3094, "pitch": 64, "duration": 7, "velocity": 91}, {"time": 3100, "pitch": 61, "duration": 5, "velocity": 59}, {"time": 3106, "pitch": 64, "duration": 5, "velocity": 57}, {"time": 3112, "pitch": 69, "duration": 23, "velocity": 56}, {"time": 3118, "pitch": 38, "duration": 37, "velocity": 60}, {"time": 3118, "pitch": 50, "duration": 13, "velocity": 55}, {"time": 3118, "pitch": 57, "duration": 19, "velocity": 69}, {"time": 3118, "pitch": 62, "duration": 18, "velocity": 73}, {"time": 3118, "pitch": 66, "duration": 19, "velocity": 60}, {"time": 3118, "pitch": 69, "duration": 17, "velocity": 63}, {"time": 3136, "pitch": 50, "duration": 13, "velocity": 47}, {"time": 3142, "pitch": 57, "duration": 12, "velocity": 63}, {"time": 3142, "pitch": 62, "duration": 13, "velocity": 69}, {"time": 3142, "pitch": 66, "duration": 13, "velocity": 69}, {"time": 3142, "pitch": 69, "duration": 12, "velocity": 53}, {"time": 3154, "pitch": 50, "duration": 2, "velocity": 61}, {"time": 3166, "pitch": 35, "duration": 32, "velocity": 47}, {"time": 3166, "pitch": 47, "duration": 33, "velocity": 33}, {"time": 3166, "pitch": 49, "duration": 3, "velocity": 38}, {"time": 3166, "pitch": 59, "duration": 19, "velocity": 61}, {"time": 3166, "pitch": 62, "duration": 19, "velocity": 67}, {"time": 3166, "pitch": 66, "duration": 19, "velocity": 66}, {"time": 3166, "pitch": 69, "duration": 19, "velocity": 58}, {"time": 3190, "pitch": 59, "duration": 12, "velocity": 63}, {"time": 3190, "pitch": 62, "duration": 12, "velocity": 64}, {"time": 3190, "pitch": 66, "duration": 12, "velocity": 70}, {"time": 3190, "pitch": 69, "duration": 11, "velocity": 58}, {"time": 3214, "pitch": 40, "duration": 83, "velocity": 63}, {"time": 3214, "pitch": 52, "duration": 30, "velocity": 60}, {"time": 3214, "pitch": 57, "duration": 17, "velocity": 58}, {"time": 3214, "pitch": 62, "duration": 17, "velocity": 60}, {"time": 3214, "pitch": 66, "duration": 18, "velocity": 62}, {"time": 3214, "pitch": 69, "duration": 18, "velocity": 47}, {"time": 3238, "pitch": 57, "duration": 5, "velocity": 67}, {"time": 3238, "pitch": 62, "duration": 7, "velocity": 72}, {"time": 3238, "pitch": 66, "duration": 9, "velocity": 66}, {"time": 3238, "pitch": 69, "duration": 8, "velocity": 62}, {"time": 3250, "pitch": 52, "duration": 47, "velocity": 46}, {"time": 3260, "pitch": 76, "duration": 18, "velocity": 45}, {"time": 3260, "pitch": 81, "duration": 17, "velocity": 44}, {"time": 3261, "pitch": 83, "duration": 13, "velocity": 48}, {"time": 3262, "pitch": 88, "duration": 17, "velocity": 55}, {"time": 3310, "pitch": 45, "duration": 36, "velocity": 63}, {"time": 3310, "pitch": 57, "duration": 36, "velocity": 56}, {"time": 3310, "pitch": 59, "duration": 20, "velocity": 60}, {"time": 3310, "pitch": 61, "duration": 21, "velocity": 64}, {"time": 3310, "pitch": 64, "duration": 21, "velocity": 60}, {"time": 3310, "pitch": 69, "duration": 21, "velocity": 63}, {"time": 3334, "pitch": 59, "duration": 12, "velocity": 54}, {"time": 3334, "pitch": 61, "duration": 12, "velocity": 57}, {"time": 3334, "pitch": 64, "duration": 13, "velocity": 60}, {"time": 3334, "pitch": 69, "duration": 10, "velocity": 45}, {"time": 3358, "pitch": 49, "duration": 37, "velocity": 52}, {"time": 3358, "pitch": 56, "duration": 38, "velocity": 57}, {"time": 3358, "pitch": 59, "duration": 11, "velocity": 60}, {"time": 3358, "pitch": 64, "duration": 11, "velocity": 60}, {"time": 3358, "pitch": 68, "duration": 11, "velocity": 60}, {"time": 3382, "pitch": 59, "duration": 12, "velocity": 38}, {"time": 3382, "pitch": 64, "duration": 11, "velocity": 40}, {"time": 3382, "pitch": 68, "duration": 11, "velocity": 44}, {"time": 3406, "pitch": 50, "duration": 11, "velocity": 57}, {"time": 3406, "pitch": 57, "duration": 11, "velocity": 56}, {"time": 3406, "pitch": 62, "duration": 13, "velocity": 48}, {"time": 3406, "pitch": 66, "duration": 12, "velocity": 51}, {"time": 3430, "pitch": 37, "duration": 13, "velocity": 51}, {"time": 3430, "pitch": 49, "duration": 15, "velocity": 43}, {"time": 3430, "pitch": 59, "duration": 14, "velocity": 56}, {"time": 3430, "pitch": 64, "duration": 15, "velocity": 62}, {"time": 3430, "pitch": 68, "duration": 10, "velocity": 57}, {"time": 3454, "pitch": 42, "duration": 37, "velocity": 63}, {"time": 3454, "pitch": 61, "duration": 11, "velocity": 57}, {"time": 3454, "pitch": 69, "duration": 10, "velocity": 62}, {"time": 3460, "pitch": 49, "duration": 27, "velocity": 35}, {"time": 3466, "pitch": 54, "duration": 16, "velocity": 44}, {"time": 3472, "pitch": 56, "duration": 7, "velocity": 50}, {"time": 3484, "pitch": 57, "duration": 3, "velocity": 47}, {"time": 3490, "pitch": 61, "duration": 5, "velocity": 57}, {"time": 3496, "pitch": 64, "duration": 5, "velocity": 55}, {"time": 3500, "pitch": 57, "duration": 15, "velocity": 56}, {"time": 3500, "pitch": 62, "duration": 15, "velocity": 59}, {"time": 3501, "pitch": 66, "duration": 14, "velocity": 60}, {"time": 3502, "pitch": 50, "duration": 38, "velocity": 70}, {"time": 3502, "pitch": 69, "duration": 13, "velocity": 49}, {"time": 3526, "pitch": 57, "duration": 12, "velocity": 56}, {"time": 3526, "pitch": 62, "duration": 13, "velocity": 58}, {"time": 3526, "pitch": 66, "duration": 16, "velocity": 62}, {"time": 3550, "pitch": 45, "duration": 34, "velocity": 61}, {"time": 3550, "pitch": 57, "duration": 34, "velocity": 51}, {"time": 3550, "pitch": 59, "duration": 16, "velocity": 46}, {"time": 3550, "pitch": 61, "duration": 16, "velocity": 57}, {"time": 3550, "pitch": 64, "duration": 16, "velocity": 57}, {"time": 3550, "pitch": 69, "duration": 18, "velocity": 48}, {"time": 3574, "pitch": 59, "duration": 11, "velocity": 61}, {"time": 3574, "pitch": 61, "duration": 10, "velocity": 64}, {"time": 3574, "pitch": 64, "duration": 11, "velocity": 66}, {"time": 3574, "pitch": 69, "duration": 11, "velocity": 49}, {"time": 3598, "pitch": 47, "duration": 33, "velocity": 57}, {"time": 3598, "pitch": 54, "duration": 32, "velocity": 55}, {"time": 3598, "pitch": 57, "duration": 14, "velocity": 58}, {"time": 3598, "pitch": 62, "duration": 14, "velocity": 60}, {"time": 3598, "pitch": 66, "duration": 14, "velocity": 60}, {"time": 3622, "pitch": 57, "duration": 10, "velocity": 55}, {"time": 3622, "pitch": 62, "duration": 13, "velocity": 58}, {"time": 3622, "pitch": 66, "duration": 13, "velocity": 56}, {"time": 3646, "pitch": 40, "duration": 36, "velocity": 57}, {"time": 3646, "pitch": 52, "duration": 33, "velocity": 53}, {"time": 3646, "pitch": 59, "duration": 16, "velocity": 55}, {"time": 3646, "pitch": 64, "duration": 17, "velocity": 66}, {"time": 3646, "pitch": 68, "duration": 16, "velocity": 55}, {"time": 3670, "pitch": 59, "duration": 11, "velocity": 67}, {"time": 3670, "pitch": 64, "duration": 12, "velocity": 72}, {"time": 3670, "pitch": 68, "duration": 10, "velocity": 70}, {"time": 3682, "pitch": 52, "duration": 12, "velocity": 61}, {"time": 3694, "pitch": 45, "duration": 37, "velocity": 56}, {"time": 3700, "pitch": 52, "duration": 32, "velocity": 54}, {"time": 3706, "pitch": 59, "duration": 37, "velocity": 50}, {"time": 3712, "pitch": 61, "duration": 31, "velocity": 64}, {"time": 3712, "pitch": 64, "duration": 31, "velocity": 67}, {"time": 3743, "pitch": 49, "duration": 36, "velocity": 64}, {"time": 3748, "pitch": 56, "duration": 31, "velocity": 53}, {"time": 3754, "pitch": 59, "duration": 26, "velocity": 63}, {"time": 3760, "pitch": 61, "duration": 20, "velocity": 65}, {"time": 3760, "pitch": 64, "duration": 20, "velocity": 68}, {"time": 3789, "pitch": 47, "duration": 17, "velocity": 63}, {"time": 3795, "pitch": 54, "duration": 18, "velocity": 56}, {"time": 3801, "pitch": 62, "duration": 12, "velocity": 63}, {"time": 3802, "pitch": 59, "duration": 11, "velocity": 56}, {"time": 3813, "pitch": 49, "duration": 24, "velocity": 44}, {"time": 3813, "pitch": 37, "duration": 24, "velocity": 46}, {"time": 3819, "pitch": 56, "duration": 18, "velocity": 56}, {"time": 3825, "pitch": 64, "duration": 12, "velocity": 69}, {"time": 3826, "pitch": 61, "duration": 12, "velocity": 59}, {"time": 3838, "pitch": 42, "duration": 20, "velocity": 58}, {"time": 3838, "pitch": 57, "duration": 10, "velocity": 56}, {"time": 3838, "pitch": 61, "duration": 10, "velocity": 59}, {"time": 3838, "pitch": 64, "duration": 11, "velocity": 61}, {"time": 3850, "pitch": 49, "duration": 11, "velocity": 39}, {"time": 3862, "pitch": 54, "duration": 13, "velocity": 56}, {"time": 3862, "pitch": 61, "duration": 6, "velocity": 64}, {"time": 3862, "pitch": 69, "duration": 8, "velocity": 75}, {"time": 3874, "pitch": 56, "duration": 2, "velocity": 63}, {"time": 3874, "pitch": 61, "duration": 3, "velocity": 69}, {"time": 3874, "pitch": 68, "duration": 3, "velocity": 62}, {"time": 3886, "pitch": 50, "duration": 38, "velocity": 62}, {"time": 3892, "pitch": 57, "duration": 32, "velocity": 58}, {"time": 3898, "pitch": 64, "duration": 8, "velocity": 58}, {"time": 3904, "pitch": 66, "duration": 20, "velocity": 71}, {"time": 3904, "pitch": 62, "duration": 19, "velocity": 61}, {"time": 3934, "pitch": 45, "duration": 36, "velocity": 67}, {"time": 3939, "pitch": 52, "duration": 32, "velocity": 58}, {"time": 3946, "pitch": 59, "duration": 24, "velocity": 55}, {"time": 3952, "pitch": 64, "duration": 20, "velocity": 69}, {"time": 3952, "pitch": 61, "duration": 19, "velocity": 64}, {"time": 3982, "pitch": 47, "duration": 27, "velocity": 67}, {"time": 3988, "pitch": 54, "duration": 18, "velocity": 56}, {"time": 3994, "pitch": 62, "duration": 13, "velocity": 67}, {"time": 3995, "pitch": 59, "duration": 12, "velocity": 57}, {"time": 4007, "pitch": 40, "duration": 25, "velocity": 67}, {"time": 4007, "pitch": 52, "duration": 24, "velocity": 67}, {"time": 4012, "pitch": 56, "duration": 20, "velocity": 64}, {"time": 4019, "pitch": 64, "duration": 13, "velocity": 69}, {"time": 4019, "pitch": 59, "duration": 14, "velocity": 67}, {"time": 4030, "pitch": 45, "duration": 37, "velocity": 72}, {"time": 4030, "pitch": 61, "duration": 10, "velocity": 63}, {"time": 4030, "pitch": 64, "duration": 2, "velocity": 69}, {"time": 4030, "pitch": 69, "duration": 14, "velocity": 64}, {"time": 4042, "pitch": 52, "duration": 28, "velocity": 44}, {"time": 4048, "pitch": 57, "duration": 18, "velocity": 72}, {"time": 4054, "pitch": 59, "duration": 4, "velocity": 63}, {"time": 4060, "pitch": 61, "duration": 4, "velocity": 62}, {"time": 4066, "pitch": 64, "duration": 5, "velocity": 66}, {"time": 4072, "pitch": 69, "duration": 3, "velocity": 51}, {"time": 4078, "pitch": 49, "duration": 40, "velocity": 69}, {"time": 4078, "pitch": 59, "duration": 7, "velocity": 66}, {"time": 4078, "pitch": 64, "duration": 7, "velocity": 69}, {"time": 4078, "pitch": 68, "duration": 7, "velocity": 69}, {"time": 4084, "pitch": 56, "duration": 25, "velocity": 52}, {"time": 4090, "pitch": 59, "duration": 4, "velocity": 56}, {"time": 4096, "pitch": 64, "duration": 10, "velocity": 69}, {"time": 4108, "pitch": 59, "duration": 8, "velocity": 78}, {"time": 4108, "pitch": 68, "duration": 10, "velocity": 80}, {"time": 4114, "pitch": 56, "duration": 3, "velocity": 63}, {"time": 4120, "pitch": 64, "duration": 4, "velocity": 49}, {"time": 4126, "pitch": 42, "duration": 34, "velocity": 72}, {"time": 4126, "pitch": 61, "duration": 8, "velocity": 73}, {"time": 4126, "pitch": 64, "duration": 7, "velocity": 70}, {"time": 4126, "pitch": 69, "duration": 8, "velocity": 73}, {"time": 4132, "pitch": 49, "duration": 28, "velocity": 63}, {"time": 4138, "pitch": 54, "duration": 24, "velocity": 67}, {"time": 4144, "pitch": 56, "duration": 6, "velocity": 63}, {"time": 4150, "pitch": 57, "duration": 3, "velocity": 60}, {"time": 4156, "pitch": 61, "duration": 5, "velocity": 70}, {"time": 4162, "pitch": 66, "duration": 5, "velocity": 76}, {"time": 4168, "pitch": 69, "duration": 5, "velocity": 61}, {"time": 4174, "pitch": 49, "duration": 36, "velocity": 70}, {"time": 4174, "pitch": 59, "duration": 8, "velocity": 63}, {"time": 4174, "pitch": 64, "duration": 8, "velocity": 66}, {"time": 4174, "pitch": 68, "duration": 8, "velocity": 67}, {"time": 4180, "pitch": 56, "duration": 17, "velocity": 59}, {"time": 4186, "pitch": 59, "duration": 4, "velocity": 49}, {"time": 4192, "pitch": 59, "duration": 4, "velocity": 53}, {"time": 4192, "pitch": 64, "duration": 14, "velocity": 91}, {"time": 4204, "pitch": 56, "duration": 11, "velocity": 66}, {"time": 4210, "pitch": 59, "duration": 5, "velocity": 57}, {"time": 4216, "pitch": 64, "duration": 3, "velocity": 54}, {"time": 4222, "pitch": 49, "duration": 40, "velocity": 69}, {"time": 4222, "pitch": 59, "duration": 5, "velocity": 62}, {"time": 4222, "pitch": 64, "duration": 7, "velocity": 66}, {"time": 4222, "pitch": 71, "duration": 15, "velocity": 76}, {"time": 4228, "pitch": 56, "duration": 22, "velocity": 52}, {"time": 4234, "pitch": 57, "duration": 2, "velocity": 43}, {"time": 4234, "pitch": 59, "duration": 19, "velocity": 44}, {"time": 4240, "pitch": 64, "duration": 8, "velocity": 61}, {"time": 4240, "pitch": 71, "duration": 3, "velocity": 33}, {"time": 4246, "pitch": 66, "duration": 4, "velocity": 67}, {"time": 4252, "pitch": 64, "duration": 10, "velocity": 73}, {"time": 4252, "pitch": 68, "duration": 11, "velocity": 70}, {"time": 4258, "pitch": 56, "duration": 4, "velocity": 69}, {"time": 4264, "pitch": 59, "duration": 2, "velocity": 45}, {"time": 4270, "pitch": 45, "duration": 39, "velocity": 69}, {"time": 4270, "pitch": 59, "duration": 13, "velocity": 64}, {"time": 4270, "pitch": 61, "duration": 13, "velocity": 69}, {"time": 4270, "pitch": 64, "duration": 13, "velocity": 70}, {"time": 4276, "pitch": 52, "duration": 32, "velocity": 58}, {"time": 4282, "pitch": 57, "duration": 19, "velocity": 60}, {"time": 4288, "pitch": 59, "duration": 20, "velocity": 67}, {"time": 4300, "pitch": 64, "duration": 8, "velocity": 75}, {"time": 4306, "pitch": 57, "duration": 3, "velocity": 51}, {"time": 4318, "pitch": 42, "duration": 11, "velocity": 61}, {"time": 4318, "pitch": 61, "duration": 30, "velocity": 63}, {"time": 4318, "pitch": 64, "duration": 30, "velocity": 62}, {"time": 4318, "pitch": 69, "duration": 31, "velocity": 64}, {"time": 4324, "pitch": 49, "duration": 6, "velocity": 39}, {"time": 4330, "pitch": 52, "duration": 8, "velocity": 40}, {"time": 4336, "pitch": 54, "duration": 19, "velocity": 66}, {"time": 4348, "pitch": 56, "duration": 7, "velocity": 55}, {"time": 4354, "pitch": 61, "duration": 6, "velocity": 73}, {"time": 4360, "pitch": 69, "duration": 7, "velocity": 69}, {"time": 4366, "pitch": 49, "duration": 38, "velocity": 75}, {"time": 4366, "pitch": 59, "duration": 9, "velocity": 63}, {"time": 4366, "pitch": 64, "duration": 11, "velocity": 75}, {"time": 4366, "pitch": 68, "duration": 15, "velocity": 69}, {"time": 4372, "pitch": 56, "duration": 27, "velocity": 56}, {"time": 4378, "pitch": 59, "duration": 10, "velocity": 56}, {"time": 4384, "pitch": 64, "duration": 10, "velocity": 73}, {"time": 4396, "pitch": 59, "duration": 7, "velocity": 67}, {"time": 4396, "pitch": 64, "duration": 8, "velocity": 66}, {"time": 4396, "pitch": 68, "duration": 8, "velocity": 60}, {"time": 4402, "pitch": 56, "duration": 4, "velocity": 56}, {"time": 4408, "pitch": 59, "duration": 12, "velocity": 55}, {"time": 4414, "pitch": 49, "duration": 35, "velocity": 59}, {"time": 4414, "pitch": 71, "duration": 15, "velocity": 62}, {"time": 4417, "pitch": 64, "duration": 3, "velocity": 15}, {"time": 4420, "pitch": 56, "duration": 14, "velocity": 56}, {"time": 4426, "pitch": 59, "duration": 17, "velocity": 47}, {"time": 4432, "pitch": 64, "duration": 10, "velocity": 69}, {"time": 4432, "pitch": 68, "duration": 11, "velocity": 64}, {"time": 4444, "pitch": 56, "duration": 5, "velocity": 61}, {"time": 4450, "pitch": 59, "duration": 6, "velocity": 63}, {"time": 4450, "pitch": 64, "duration": 5, "velocity": 59}, {"time": 4456, "pitch": 48, "duration": 8, "velocity": 44}, {"time": 4462, "pitch": 47, "duration": 38, "velocity": 61}, {"time": 4462, "pitch": 57, "duration": 8, "velocity": 67}, {"time": 4462, "pitch": 62, "duration": 8, "velocity": 69}, {"time": 4462, "pitch": 66, "duration": 8, "velocity": 67}, {"time": 4468, "pitch": 54, "duration": 24, "velocity": 45}, {"time": 4474, "pitch": 57, "duration": 9, "velocity": 55}, {"time": 4480, "pitch": 62, "duration": 9, "velocity": 72}, {"time": 4486, "pitch": 66, "duration": 10, "velocity": 61}, {"time": 4492, "pitch": 57, "duration": 9, "velocity": 73}, {"time": 4498, "pitch": 62, "duration": 9, "velocity": 67}, {"time": 4504, "pitch": 66, "duration": 5, "velocity": 67}, {"time": 4510, "pitch": 49, "duration": 37, "velocity": 64}, {"time": 4510, "pitch": 59, "duration": 8, "velocity": 64}, {"time": 4510, "pitch": 64, "duration": 9, "velocity": 73}, {"time": 4516, "pitch": 56, "duration": 32, "velocity": 51}, {"time": 4522, "pitch": 59, "duration": 8, "velocity": 53}, {"time": 4528, "pitch": 64, "duration": 6, "velocity": 63}, {"time": 4534, "pitch": 59, "duration": 9, "velocity": 52}, {"time": 4540, "pitch": 68, "duration": 7, "velocity": 72}, {"time": 4546, "pitch": 64, "duration": 5, "velocity": 64}, {"time": 4552, "pitch": 59, "duration": 9, "velocity": 58}, {"time": 4558, "pitch": 50, "duration": 18, "velocity": 75}, {"time": 4564, "pitch": 57, "duration": 9, "velocity": 72}, {"time": 4570, "pitch": 62, "duration": 7, "velocity": 70}, {"time": 4576, "pitch": 66, "duration": 11, "velocity": 62}, {"time": 4582, "pitch": 57, "duration": 8, "velocity": 49}, {"time": 4588, "pitch": 64, "duration": 5, "velocity": 48}, {"time": 4594, "pitch": 40, "duration": 3, "velocity": 73}, {"time": 4594, "pitch": 59, "duration": 6, "velocity": 53}, {"time": 4594, "pitch": 66, "duration": 4, "velocity": 67}, {"time": 4606, "pitch": 45, "duration": 39, "velocity": 67}, {"time": 4606, "pitch": 61, "duration": 11, "velocity": 66}, {"time": 4606, "pitch": 64, "duration": 9, "velocity": 51}, {"time": 4606, "pitch": 69, "duration": 12, "velocity": 61}, {"time": 4612, "pitch": 52, "duration": 35, "velocity": 48}, {"time": 4618, "pitch": 57, "duration": 24, "velocity": 48}, {"time": 4624, "pitch": 59, "duration": 8, "velocity": 69}, {"time": 4630, "pitch": 61, "duration": 4, "velocity": 56}, {"time": 4636, "pitch": 64, "duration": 5, "velocity": 59}, {"time": 4642, "pitch": 69, "duration": 4, "velocity": 57}, {"time": 4648, "pitch": 71, "duration": 5, "velocity": 59}, {"time": 4654, "pitch": 50, "duration": 37, "velocity": 64}, {"time": 4654, "pitch": 62, "duration": 8, "velocity": 63}, {"time": 4654, "pitch": 66, "duration": 10, "velocity": 63}, {"time": 4660, "pitch": 57, "duration": 31, "velocity": 47}, {"time": 4666, "pitch": 61, "duration": 22, "velocity": 50}, {"time": 4672, "pitch": 64, "duration": 12, "velocity": 69}, {"time": 4684, "pitch": 69, "duration": 14, "velocity": 69}, {"time": 4702, "pitch": 47, "duration": 36, "velocity": 61}, {"time": 4702, "pitch": 57, "duration": 8, "velocity": 60}, {"time": 4702, "pitch": 62, "duration": 8, "velocity": 69}, {"time": 4702, "pitch": 66, "duration": 5, "velocity": 64}, {"time": 4708, "pitch": 54, "duration": 30, "velocity": 47}, {"time": 4714, "pitch": 57, "duration": 6, "velocity": 56}, {"time": 4720, "pitch": 62, "duration": 7, "velocity": 64}, {"time": 4726, "pitch": 66, "duration": 4, "velocity": 50}, {"time": 4732, "pitch": 69, "duration": 4, "velocity": 75}, {"time": 4738, "pitch": 71, "duration": 5, "velocity": 69}, {"time": 4744, "pitch": 74, "duration": 3, "velocity": 63}, {"time": 4747, "pitch": 71, "duration": 5, "velocity": 37}, {"time": 4750, "pitch": 52, "duration": 81, "velocity": 66}, {"time": 4750, "pitch": 69, "duration": 12, "velocity": 69}, {"time": 4756, "pitch": 59, "duration": 77, "velocity": 50}, {"time": 4762, "pitch": 64, "duration": 32, "velocity": 53}, {"time": 4768, "pitch": 66, "duration": 5, "velocity": 45}, {"time": 4774, "pitch": 69, "duration": 6, "velocity": 52}, {"time": 4780, "pitch": 71, "duration": 4, "velocity": 60}, {"time": 4786, "pitch": 71, "duration": 2, "velocity": 40}, {"time": 4792, "pitch": 76, "duration": 6, "velocity": 51}, {"time": 4798, "pitch": 71, "duration": 12, "velocity": 54}, {"time": 4798, "pitch": 81, "duration": 13, "velocity": 64}, {"time": 4816, "pitch": 64, "duration": 12, "velocity": 37}, {"time": 4822, "pitch": 71, "duration": 8, "velocity": 58}, {"time": 4822, "pitch": 76, "duration": 7, "velocity": 61}, {"time": 4845, "pitch": 45, "duration": 41, "velocity": 58}, {"time": 4852, "pitch": 52, "duration": 18, "velocity": 46}, {"time": 4858, "pitch": 59, "duration": 16, "velocity": 49}, {"time": 4863, "pitch": 64, "duration": 15, "velocity": 63}, {"time": 4864, "pitch": 61, "duration": 14, "velocity": 59}, {"time": 4875, "pitch": 52, "duration": 13, "velocity": 47}, {"time": 4881, "pitch": 59, "duration": 14, "velocity": 46}, {"time": 4887, "pitch": 64, "duration": 8, "velocity": 55}, {"time": 4887, "pitch": 61, "duration": 8, "velocity": 50}, {"time": 4894, "pitch": 49, "duration": 48, "velocity": 56}, {"time": 4900, "pitch": 56, "duration": 20, "velocity": 51}, {"time": 4906, "pitch": 59, "duration": 14, "velocity": 58}, {"time": 4912, "pitch": 64, "duration": 14, "velocity": 72}, {"time": 4912, "pitch": 61, "duration": 15, "velocity": 64}, {"time": 4924, "pitch": 56, "duration": 18, "velocity": 51}, {"time": 4930, "pitch": 59, "duration": 11, "velocity": 52}, {"time": 4935, "pitch": 61, "duration": 7, "velocity": 57}, {"time": 4935, "pitch": 64, "duration": 7, "velocity": 58}, {"time": 4942, "pitch": 47, "duration": 19, "velocity": 67}, {"time": 4947, "pitch": 54, "duration": 18, "velocity": 52}, {"time": 4954, "pitch": 59, "duration": 11, "velocity": 64}, {"time": 4954, "pitch": 62, "duration": 12, "velocity": 67}, {"time": 4965, "pitch": 37, "duration": 24, "velocity": 61}, {"time": 4965, "pitch": 49, "duration": 24, "velocity": 62}, {"time": 4971, "pitch": 56, "duration": 18, "velocity": 69}, {"time": 4977, "pitch": 61, "duration": 13, "velocity": 63}, {"time": 4977, "pitch": 64, "duration": 12, "velocity": 72}, {"time": 4990, "pitch": 42, "duration": 37, "velocity": 72}, {"time": 4990, "pitch": 57, "duration": 12, "velocity": 64}, {"time": 4990, "pitch": 61, "duration": 10, "velocity": 72}, {"time": 4990, "pitch": 66, "duration": 15, "velocity": 70}, {"time": 4996, "pitch": 49, "duration": 30, "velocity": 47}, {"time": 5002, "pitch": 54, "duration": 21, "velocity": 52}, {"time": 5008, "pitch": 56, "duration": 10, "velocity": 62}, {"time": 5020, "pitch": 57, "duration": 10, "velocity": 82}, {"time": 5038, "pitch": 38, "duration": 37, "velocity": 62}, {"time": 5044, "pitch": 50, "duration": 31, "velocity": 52}, {"time": 5049, "pitch": 54, "duration": 25, "velocity": 58}, {"time": 5055, "pitch": 62, "duration": 20, "velocity": 67}, {"time": 5055, "pitch": 57, "duration": 21, "velocity": 61}, {"time": 5074, "pitch": 59, "duration": 10, "velocity": 72}, {"time": 5086, "pitch": 45, "duration": 43, "velocity": 65}, {"time": 5091, "pitch": 52, "duration": 37, "velocity": 68}, {"time": 5097, "pitch": 59, "duration": 14, "velocity": 62}, {"time": 5103, "pitch": 64, "duration": 14, "velocity": 69}, {"time": 5103, "pitch": 61, "duration": 13, "velocity": 63}, {"time": 5116, "pitch": 59, "duration": 17, "velocity": 53}, {"time": 5122, "pitch": 64, "duration": 13, "velocity": 63}, {"time": 5122, "pitch": 61, "duration": 12, "velocity": 59}, {"time": 5134, "pitch": 47, "duration": 17, "velocity": 65}, {"time": 5134, "pitch": 35, "duration": 16, "velocity": 72}, {"time": 5140, "pitch": 54, "duration": 17, "velocity": 56}, {"time": 5146, "pitch": 62, "duration": 12, "velocity": 75}, {"time": 5146, "pitch": 59, "duration": 13, "velocity": 65}, {"time": 5158, "pitch": 52, "duration": 24, "velocity": 67}, {"time": 5158, "pitch": 40, "duration": 24, "velocity": 67}, {"time": 5164, "pitch": 56, "duration": 18, "velocity": 51}, {"time": 5170, "pitch": 59, "duration": 13, "velocity": 67}, {"time": 5170, "pitch": 64, "duration": 13, "velocity": 72}, {"time": 5182, "pitch": 45, "duration": 35, "velocity": 59}, {"time": 5182, "pitch": 59, "duration": 1, "velocity": 48}, {"time": 5182, "pitch": 61, "duration": 11, "velocity": 49}, {"time": 5182, "pitch": 64, "duration": 1, "velocity": 47}, {"time": 5182, "pitch": 68, "duration": 5, "velocity": 44}, {"time": 5182, "pitch": 69, "duration": 5, "velocity": 44}, {"time": 5188, "pitch": 52, "duration": 31, "velocity": 49}, {"time": 5194, "pitch": 57, "duration": 25, "velocity": 58}, {"time": 5200, "pitch": 59, "duration": 4, "velocity": 64}, {"time": 5206, "pitch": 61, "duration": 4, "velocity": 54}, {"time": 5212, "pitch": 64, "duration": 2, "velocity": 59}, {"time": 5218, "pitch": 69, "duration": 6, "velocity": 69}, {"time": 5224, "pitch": 71, "duration": 5, "velocity": 46}, {"time": 5230, "pitch": 45, "duration": 40, "velocity": 69}, {"time": 5230, "pitch": 59, "duration": 13, "velocity": 58}, {"time": 5230, "pitch": 64, "duration": 13, "velocity": 57}, {"time": 5230, "pitch": 68, "duration": 13, "velocity": 59}, {"time": 5236, "pitch": 52, "duration": 38, "velocity": 47}, {"time": 5242, "pitch": 57, "duration": 13, "velocity": 52}, {"time": 5248, "pitch": 59, "duration": 4, "velocity": 49}, {"time": 5254, "pitch": 64, "duration": 8, "velocity": 67}, {"time": 5254, "pitch": 69, "duration": 8, "velocity": 61}, {"time": 5260, "pitch": 57, "duration": 8, "velocity": 35}, {"time": 5266, "pitch": 61, "duration": 5, "velocity": 56}, {"time": 5266, "pitch": 66, "duration": 6, "velocity": 61}, {"time": 5272, "pitch": 64, "duration": 7, "velocity": 57}, {"time": 5272, "pitch": 69, "duration": 2, "velocity": 46}, {"time": 5278, "pitch": 45, "duration": 11, "velocity": 48}, {"time": 5284, "pitch": 52, "duration": 6, "velocity": 49}, {"time": 5290, "pitch": 57, "duration": 7, "velocity": 58}, {"time": 5290, "pitch": 71, "duration": 4, "velocity": 54}, {"time": 5290, "pitch": 76, "duration": 4, "velocity": 64}, {"time": 5296, "pitch": 59, "duration": 18, "velocity": 59}, {"time": 5296, "pitch": 73, "duration": 5, "velocity": 52}, {"time": 5296, "pitch": 78, "duration": 6, "velocity": 51}, {"time": 5302, "pitch": 71, "duration": 2, "velocity": 60}, {"time": 5302, "pitch": 76, "duration": 2, "velocity": 58}, {"time": 5308, "pitch": 69, "duration": 3, "velocity": 60}, {"time": 5308, "pitch": 73, "duration": 2, "velocity": 44}, {"time": 5314, "pitch": 68, "duration": 2, "velocity": 48}, {"time": 5314, "pitch": 71, "duration": 3, "velocity": 62}, {"time": 5320, "pitch": 69, "duration": 4, "velocity": 57}, {"time": 5326, "pitch": 37, "duration": 5, "velocity": 72}, {"time": 5326, "pitch": 64, "duration": 18, "velocity": 57}, {"time": 5326, "pitch": 71, "duration": 17, "velocity": 64}, {"time": 5332, "pitch": 49, "duration": 6, "velocity": 49}, {"time": 5338, "pitch": 52, "duration": 20, "velocity": 55}, {"time": 5344, "pitch": 56, "duration": 12, "velocity": 37}, {"time": 5350, "pitch": 59, "duration": 5, "velocity": 37}, {"time": 5356, "pitch": 64, "duration": 4, "velocity": 62}, {"time": 5362, "pitch": 66, "duration": 5, "velocity": 62}, {"time": 5368, "pitch": 64, "duration": 2, "velocity": 54}, {"time": 5368, "pitch": 71, "duration": 4, "velocity": 64}, {"time": 5374, "pitch": 37, "duration": 38, "velocity": 60}, {"time": 5374, "pitch": 64, "duration": 4, "velocity": 63}, {"time": 5374, "pitch": 68, "duration": 6, "velocity": 57}, {"time": 5380, "pitch": 59, "duration": 4, "velocity": 55}, {"time": 5380, "pitch": 66, "duration": 5, "velocity": 61}, {"time": 5386, "pitch": 64, "duration": 4, "velocity": 67}, {"time": 5392, "pitch": 61, "duration": 5, "velocity": 40}, {"time": 5392, "pitch": 66, "duration": 5, "velocity": 58}, {"time": 5398, "pitch": 64, "duration": 2, "velocity": 47}, {"time": 5398, "pitch": 68, "duration": 5, "velocity": 62}, {"time": 5404, "pitch": 64, "duration": 3, "velocity": 45}, {"time": 5404, "pitch": 71, "duration": 4, "velocity": 49}, {"time": 5410, "pitch": 66, "duration": 3, "velocity": 70}, {"time": 5422, "pitch": 35, "duration": 5, "velocity": 61}, {"time": 5422, "pitch": 47, "duration": 8, "velocity": 60}, {"time": 5422, "pitch": 57, "duration": 13, "velocity": 55}, {"time": 5422, "pitch": 62, "duration": 17, "velocity": 57}, {"time": 5422, "pitch": 66, "duration": 20, "velocity": 55}, {"time": 5422, "pitch": 69, "duration": 18, "velocity": 41}, {"time": 5436, "pitch": 47, "duration": 30, "velocity": 40}, {"time": 5442, "pitch": 50, "duration": 25, "velocity": 49}, {"time": 5448, "pitch": 54, "duration": 18, "velocity": 57}, {"time": 5455, "pitch": 57, "duration": 5, "velocity": 55}, {"time": 5463, "pitch": 62, "duration": 5, "velocity": 59}, {"time": 5469, "pitch": 69, "duration": 17, "velocity": 69}, {"time": 5476, "pitch": 59, "duration": 11, "velocity": 54}, {"time": 5476, "pitch": 64, "duration": 14, "velocity": 62}, {"time": 5478, "pitch": 40, "duration": 47, "velocity": 70}, {"time": 5492, "pitch": 47, "duration": 34, "velocity": 51}, {"time": 5505, "pitch": 52, "duration": 22, "velocity": 50}, {"time": 5505, "pitch": 57, "duration": 6, "velocity": 57}, {"time": 5505, "pitch": 64, "duration": 9, "velocity": 62}, {"time": 5520, "pitch": 59, "duration": 8, "velocity": 55}, {"time": 5521, "pitch": 64, "duration": 9, "velocity": 64}, {"time": 5569, "pitch": 64, "duration": 8, "velocity": 43}, {"time": 5570, "pitch": 45, "duration": 74, "velocity": 58}, {"time": 5570, "pitch": 69, "duration": 8, "velocity": 61}, {"time": 5574, "pitch": 73, "duration": 6, "velocity": 47}, {"time": 5581, "pitch": 52, "duration": 62, "velocity": 44}, {"time": 5587, "pitch": 57, "duration": 54, "velocity": 60}, {"time": 5592, "pitch": 59, "duration": 4, "velocity": 76}, {"time": 5598, "pitch": 61, "duration": 3, "velocity": 61}, {"time": 5602, "pitch": 64, "duration": 3, "velocity": 85}, {"time": 5607, "pitch": 69, "duration": 4, "velocity": 78}, {"time": 5613, "pitch": 71, "duration": 5, "velocity": 53}, {"time": 5618, "pitch": 73, "duration": 2, "velocity": 66}, {"time": 5623, "pitch": 76, "duration": 4, "velocity": 85}, {"time": 5629, "pitch": 81, "duration": 4, "velocity": 69}, {"time": 5636, "pitch": 83, "duration": 5, "velocity": 69}, {"time": 5643, "pitch": 85, "duration": 8, "velocity": 61}, {"time": 5653, "pitch": 88, "duration": 8, "velocity": 69}, {"time": 5664, "pitch": 76, "duration": 4, "velocity": 44}, {"time": 5665, "pitch": 33, "duration": 3, "velocity": 88}, {"time": 5666, "pitch": 80, "duration": 12, "velocity": 55}, {"time": 5667, "pitch": 88, "duration": 16, "velocity": 49}], "annotations": [{"time": 193, "annotation": {"number": 64, "value": 127}, "group": "control_change"}, {"time": 237, "annotation": {"number": 64, "value": 0}, "group": "control_change"}, {"time": 243, "annotation": {"number": 64, "value": 127}, "group": "control_change"}, {"time": 287, "annotation": {"number": 64, "value": 0}, "group": "control_change"}, {"time": 293, "annotation": {"number": 64, "value": 127}, "group": "control_change"}, {"time": 334, "annotation": {"number": 64, "value": 0}, "group": "control_change"}, {"time": 339, "annotation": {"number": 64, "value": 127}, "group": "control_change"}, {"time": 358, "annotation": {"number": 64, "value": 0}, "group": "control_change"}, {"time": 362, "annotation": {"number": 64, "value": 127}, "group": "control_change"}, {"time": 381, "annotation": {"number": 64, "value": 0}, "group": "control_change"}, {"time": 384, "annotation": {"number": 64, "value": 127}, "group": "control_change"}, {"time": 430, "annotation": {"number": 64, "value": 0}, "group": "control_change"}, {"time": 434, "annotation": {"number": 64, "value": 127}, "group": "control_change"}, {"time": 478, "annotation": {"number": 64, "value": 0}, "group": "control_change"}, {"time": 483, "annotation": {"number": 64, "value": 127}, "group": "control_change"}, {"time": 524, "annotation": {"number": 64, "value": 0}, "group": "control_change"}, {"time": 528, "annotation": {"number": 64, "value": 127}, "group": "control_change"}, {"time": 549, "annotation": {"number": 64, "value": 0}, "group": "control_change"}, {"time": 554, "annotation": {"number": 64, "value": 127}, "group": "control_change"}, {"time": 574, "annotation": {"number": 64, "value": 0}, "group": "control_change"}, {"time": 578, "annotation": {"number": 64, "value": 127}, "group": "control_change"}, {"time": 621, "annotation": {"number": 64, "value": 0}, "group": "control_change"}, {"time": 627, "annotation": {"number": 64, "value": 127}, "group": "control_change"}, {"time": 670, "annotation": {"number": 64, "value": 0}, "group": "control_change"}, {"time": 676, "annotation": {"number": 64, "value": 127}, "group": "control_change"}, {"time": 720, "annotation": {"number": 64, "value": 0}, "group": "control_change"}, {"time": 724, "annotation": {"number": 64, "value": 127}, "group": "control_change"}, {"time": 742, "annotation": {"number": 64, "value": 0}, "group": "control_change"}, {"time": 747, "annotation": {"number": 64, "value": 127}, "group": "control_change"}, {"time": 766, "annotation": {"number": 64, "value": 0}, "group": "control_change"}, {"time": 770, "annotation": {"number": 64, "value": 127}, "group": "control_change"}, {"time": 815, "annotation": {"number": 64, "value": 0}, "group": "control_change"}, {"time": 818, "annotation": {"number": 64, "value": 127}, "group": "control_change"}, {"time": 863, "annotation": {"number": 64, "value": 0}, "group": "control_change"}, {"time": 868, "annotation": {"number": 64, "value": 127}, "group": "control_change"}, {"time": 911, "annotation": {"number": 64, "value": 0}, "group": "control_change"}, {"time": 918, "annotation": {"number": 64, "value": 127}, "group": "control_change"}, {"time": 957, "annotation": {"number": 64, "value": 0}, "group": "control_change"}, {"time": 963, "annotation": {"number": 64, "value": 127}, "group": "control_change"}, {"time": 1007, "annotation": {"number": 64, "value": 0}, "group": "control_change"}, {"time": 1013, "annotation": {"number": 64, "value": 127}, "group": "control_change"}, {"time": 1055, "annotation": {"number": 64, "value": 0}, "group": "control_change"}, {"time": 1060, "annotation": {"number": 64, "value": 127}, "group": "control_change"}, {"time": 1101, "annotation": {"number": 64, "value": 0}, "group": "control_change"}, {"time": 1108, "annotation": {"number": 64, "value": 127}, "group": "control_change"}, {"time": 1128, "annotation": {"number": 64, "value": 0}, "group": "control_change"}, {"time": 1133, "annotation": {"number": 64, "value": 127}, "group": "control_change"}, {"time": 1150, "annotation": {"number": 64, "value": 0}, "group": "control_change"}, {"time": 1157, "annotation": {"number": 64, "value": 127}, "group": "control_change"}, {"time": 1199, "annotation": {"number": 64, "value": 0}, "group": "control_change"}, {"time": 1205, "annotation": {"number": 64, "value": 127}, "group": "control_change"}, {"time": 1246, "annotation": {"number": 64, "value": 0}, "group": "control_change"}, {"time": 1253, "annotation": {"number": 64, "value": 127}, "group": "control_change"}, {"time": 1294, "annotation": {"number": 64, "value": 0}, "group": "control_change"}, {"time": 1300, "annotation": {"number": 64, "value": 127}, "group": "control_change"}, {"time": 1318, "annotation": {"number": 64, "value": 0}, "group": "control_change"}, {"time": 1324, "annotation": {"number": 64, "value": 127}, "group": "control_change"}, {"time": 1344, "annotation": {"number": 64, "value": 0}, "group": "control_change"}, {"time": 1350, "annotation": {"number": 64, "value": 127}, "group": "control_change"}, {"time": 1392, "annotation": {"number": 64, "value": 127}, "group": "control_change"}, {"time": 1393, "annotation": {"number": 64, "value": 0}, "group": "control_change"}, {"time": 1438, "annotation": {"number": 64, "value": 0}, "group": "control_change"}, {"time": 1441, "annotation": {"number": 64, "value": 127}, "group": "control_change"}, {"time": 1485, "annotation": {"number": 64, "value": 0}, "group": "control_change"}, {"time": 1491, "annotation": {"number": 64, "value": 127}, "group": "control_change"}, {"time": 1582, "annotation": {"number": 64, "value": 0}, "group": "control_change"}, {"time": 1584, "annotation": {"number": 64, "value": 127}, "group": "control_change"}, {"time": 1587, "annotation": {"number": 64, "value": 127}, "group": "control_change"}, {"time": 1596, "annotation": {"number": 64, "value": 0}, "group": "control_change"}, {"time": 1631, "annotation": {"number": 64, "value": 127}, "group": "control_change"}, {"time": 1681, "annotation": {"number": 64, "value": 0}, "group": "control_change"}, {"time": 1689, "annotation": {"number": 64, "value": 127}, "group": "control_change"}, {"time": 1727, "annotation": {"number": 64, "value": 0}, "group": "control_change"}, {"time": 1732, "annotation": {"number": 64, "value": 127}, "group": "control_change"}, {"time": 1774, "annotation": {"number": 64, "value": 0}, "group": "control_change"}, {"time": 1778, "annotation": {"number": 64, "value": 127}, "group": "control_change"}, {"time": 1824, "annotation": {"number": 64, "value": 0}, "group": "control_change"}, {"time": 1828, "annotation": {"number": 64, "value": 127}, "group": "control_change"}, {"time": 1871, "annotation": {"number": 64, "value": 0}, "group": "control_change"}, {"time": 1875, "annotation": {"number": 64, "value": 127}, "group": "control_change"}, {"time": 1918, "annotation": {"number": 64, "value": 0}, "group": "control_change"}, {"time": 1923, "annotation": {"number": 64, "value": 127}, "group": "control_change"}, {"time": 1966, "annotation": {"number": 64, "value": 0}, "group": "control_change"}, {"time": 1966, "annotation": {"number": 64, "value": 127}, "group": "control_change"}, {"time": 2012, "annotation": {"number": 64, "value": 0}, "group": "control_change"}, {"time": 2024, "annotation": {"number": 64, "value": 127}, "group": "control_change"}, {"time": 2064, "annotation": {"number": 64, "value": 0}, "group": "control_change"}, {"time": 2068, "annotation": {"number": 64, "value": 127}, "group": "control_change"}, {"time": 2158, "annotation": {"number": 64, "value": 0}, "group": "control_change"}, {"time": 2158, "annotation": {"number": 64, "value": 127}, "group": "control_change"}, {"time": 2205, "annotation": {"number": 64, "value": 0}, "group": "control_change"}, {"time": 2209, "annotation": {"number": 64, "value": 127}, "group": "control_change"}, {"time": 2252, "annotation": {"number": 64, "value": 0}, "group": "control_change"}, {"time": 2256, "annotation": {"number": 64, "value": 127}, "group": "control_change"}, {"time": 2277, "annotation": {"number": 64, "value": 0}, "group": "control_change"}, {"time": 2281, "annotation": {"number": 64, "value": 127}, "group": "control_change"}, {"time": 2300, "annotation": {"number": 64, "value": 0}, "group": "control_change"}, {"time": 2306, "annotation": {"number": 64, "value": 127}, "group": "control_change"}, {"time": 2349, "annotation": {"number": 64, "value": 0}, "group": "control_change"}, {"time": 2355, "annotation": {"number": 64, "value": 127}, "group": "control_change"}, {"time": 2397, "annotation": {"number": 64, "value": 0}, "group": "control_change"}, {"time": 2403, "annotation": {"number": 64, "value": 127}, "group": "control_change"}, {"time": 2445, "annotation": {"number": 64, "value": 0}, "group": "control_change"}, {"time": 2450, "annotation": {"number": 64, "value": 127}, "group": "control_change"}, {"time": 2469, "annotation": {"number": 64, "value": 0}, "group": "control_change"}, {"time": 2475, "annotation": {"number": 64, "value": 127}, "group": "control_change"}, {"time": 2493, "annotation": {"number": 64, "value": 0}, "group": "control_change"}, {"time": 2497, "annotation": {"number": 64, "value": 127}, "group": "control_change"}, {"time": 2542, "annotation": {"number": 64, "value": 0}, "group": "control_change"}, {"time": 2547, "annotation": {"number": 64, "value": 127}, "group": "control_change"}, {"time": 2591, "annotation": {"number": 64, "value": 0}, "group": "control_change"}, {"time": 2597, "annotation": {"number": 64, "value": 127}, "group": "control_change"}, {"time": 2640, "annotation": {"number": 64, "value": 0}, "group": "control_change"}, {"time": 2647, "annotation": {"number": 64, "value": 127}, "group": "control_change"}, {"time": 2733, "annotation": {"number": 64, "value": 0}, "group": "control_change"}, {"time": 2737, "annotation": {"number": 64, "value": 127}, "group": "control_change"}, {"time": 2783, "annotation": {"number": 64, "value": 0}, "group": "control_change"}, {"time": 2788, "annotation": {"number": 64, "value": 127}, "group": "control_change"}, {"time": 2831, "annotation": {"number": 64, "value": 0}, "group": "control_change"}, {"time": 2835, "annotation": {"number": 64, "value": 127}, "group": "control_change"}, {"time": 2926, "annotation": {"number": 64, "value": 0}, "group": "control_change"}, {"time": 2931, "annotation": {"number": 64, "value": 127}, "group": "control_change"}, {"time": 2977, "annotation": {"number": 64, "value": 0}, "group": "control_change"}, {"time": 2982, "annotation": {"number": 64, "value": 127}, "group": "control_change"}, {"time": 3022, "annotation": {"number": 64, "value": 0}, "group": "control_change"}, {"time": 3028, "annotation": {"number": 64, "value": 127}, "group": "control_change"}, {"time": 3072, "annotation": {"number": 64, "value": 0}, "group": "control_change"}, {"time": 3078, "annotation": {"number": 64, "value": 127}, "group": "control_change"}, {"time": 3119, "annotation": {"number": 64, "value": 127}, "group": "control_change"}, {"time": 3166, "annotation": {"number": 64, "value": 0}, "group": "control_change"}, {"time": 3173, "annotation": {"number": 64, "value": 127}, "group": "control_change"}, {"time": 3215, "annotation": {"number": 64, "value": 0}, "group": "control_change"}, {"time": 3221, "annotation": {"number": 64, "value": 127}, "group": "control_change"}, {"time": 3310, "annotation": {"number": 64, "value": 0}, "group": "control_change"}, {"time": 3315, "annotation": {"number": 64, "value": 127}, "group": "control_change"}, {"time": 3358, "annotation": {"number": 64, "value": 0}, "group": "control_change"}, {"time": 3364, "annotation": {"number": 64, "value": 127}, "group": "control_change"}, {"time": 3408, "annotation": {"number": 64, "value": 0}, "group": "control_change"}, {"time": 3412, "annotation": {"number": 64, "value": 127}, "group": "control_change"}, {"time": 3430, "annotation": {"number": 64, "value": 0}, "group": "control_change"}, {"time": 3435, "annotation": {"number": 64, "value": 127}, "group": "control_change"}, {"time": 3454, "annotation": {"number": 64, "value": 0}, "group": "control_change"}, {"time": 3458, "annotation": {"number": 64, "value": 127}, "group": "control_change"}, {"time": 3503, "annotation": {"number": 64, "value": 0}, "group": "control_change"}, {"time": 3506, "annotation": {"number": 64, "value": 127}, "group": "control_change"}, {"time": 3551, "annotation": {"number": 64, "value": 0}, "group": "control_change"}, {"time": 3556, "annotation": {"number": 64, "value": 127}, "group": "control_change"}, {"time": 3599, "annotation": {"number": 64, "value": 0}, "group": "control_change"}, {"time": 3606, "annotation": {"number": 64, "value": 127}, "group": "control_change"}, {"time": 3645, "annotation": {"number": 64, "value": 0}, "group": "control_change"}, {"time": 3651, "annotation": {"number": 64, "value": 127}, "group": "control_change"}, {"time": 3695, "annotation": {"number": 64, "value": 0}, "group": "control_change"}, {"time": 3701, "annotation": {"number": 64, "value": 127}, "group": "control_change"}, {"time": 3743, "annotation": {"number": 64, "value": 0}, "group": "control_change"}, {"time": 3748, "annotation": {"number": 64, "value": 127}, "group": "control_change"}, {"time": 3789, "annotation": {"number": 64, "value": 0}, "group": "control_change"}, {"time": 3796, "annotation": {"number": 64, "value": 127}, "group": "control_change"}, {"time": 3816, "annotation": {"number": 64, "value": 0}, "group": "control_change"}, {"time": 3821, "annotation": {"number": 64, "value": 127}, "group": "control_change"}, {"time": 3838, "annotation": {"number": 64, "value": 0}, "group": "control_change"}, {"time": 3845, "annotation": {"number": 64, "value": 127}, "group": "control_change"}, {"time": 3887, "annotation": {"number": 64, "value": 0}, "group": "control_change"}, {"time": 3893, "annotation": {"number": 64, "value": 127}, "group": "control_change"}, {"time": 3934, "annotation": {"number": 64, "value": 0}, "group": "control_change"}, {"time": 3941, "annotation": {"number": 64, "value": 127}, "group": "control_change"}, {"time": 3982, "annotation": {"number": 64, "value": 0}, "group": "control_change"}, {"time": 3988, "annotation": {"number": 64, "value": 127}, "group": "control_change"}, {"time": 4006, "annotation": {"number": 64, "value": 0}, "group": "control_change"}, {"time": 4012, "annotation": {"number": 64, "value": 127}, "group": "control_change"}, {"time": 4032, "annotation": {"number": 64, "value": 0}, "group": "control_change"}, {"time": 4038, "annotation": {"number": 64, "value": 127}, "group": "control_change"}, {"time": 4080, "annotation": {"number": 64, "value": 127}, "group": "control_change"}, {"time": 4081, "annotation": {"number": 64, "value": 0}, "group": "control_change"}, {"time": 4126, "annotation": {"number": 64, "value": 0}, "group": "control_change"}, {"time": 4129, "annotation": {"number": 64, "value": 127}, "group": "control_change"}, {"time": 4173, "annotation": {"number": 64, "value": 0}, "group": "control_change"}, {"time": 4179, "annotation": {"number": 64, "value": 127}, "group": "control_change"}, {"time": 4270, "annotation": {"number": 64, "value": 0}, "group": "control_change"}, {"time": 4272, "annotation": {"number": 64, "value": 127}, "group": "control_change"}, {"time": 4275, "annotation": {"number": 64, "value": 127}, "group": "control_change"}, {"time": 4284, "annotation": {"number": 64, "value": 0}, "group": "control_change"}, {"time": 4319, "annotation": {"number": 64, "value": 127}, "group": "control_change"}, {"time": 4369, "annotation": {"number": 64, "value": 0}, "group": "control_change"}, {"time": 4377, "annotation": {"number": 64, "value": 127}, "group": "control_change"}, {"time": 4415, "annotation": {"number": 64, "value": 0}, "group": "control_change"}, {"time": 4420, "annotation": {"number": 64, "value": 127}, "group": "control_change"}, {"time": 4462, "annotation": {"number": 64, "value": 0}, "group": "control_change"}, {"time": 4466, "annotation": {"number": 64, "value": 127}, "group": "control_change"}, {"time": 4512, "annotation": {"number": 64, "value": 0}, "group": "control_change"}, {"time": 4516, "annotation": {"number": 64, "value": 127}, "group": "control_change"}, {"time": 4559, "annotation": {"number": 64, "value": 0}, "group": "control_change"}, {"time": 4563, "annotation": {"number": 64, "value": 127}, "group": "control_change"}, {"time": 4606, "annotation": {"number": 64, "value": 0}, "group": "control_change"}, {"time": 4611, "annotation": {"number": 64, "value": 127}, "group": "control_change"}, {"time": 4654, "annotation": {"number": 64, "value": 0}, "group": "control_change"}, {"time": 4654, "annotation": {"number": 64, "value": 127}, "group": "control_change"}, {"time": 4700, "annotation": {"number": 64, "value": 0}, "group": "control_change"}, {"time": 4712, "annotation": {"number": 64, "value": 127}, "group": "control_change"}, {"time": 4752, "annotation": {"number": 64, "value": 0}, "group": "control_change"}, {"time": 4756, "annotation": {"number": 64, "value": 127}, "group": "control_change"}, {"time": 4846, "annotation": {"number": 64, "value": 0}, "group": "control_change"}, {"time": 4846, "annotation": {"number": 64, "value": 127}, "group": "control_change"}, {"time": 4893, "annotation": {"number": 64, "value": 0}, "group": "control_change"}, {"time": 4897, "annotation": {"number": 64, "value": 127}, "group": "control_change"}, {"time": 4940, "annotation": {"number": 64, "value": 0}, "group": "control_change"}, {"time": 4944, "annotation": {"number": 64, "value": 127}, "group": "control_change"}, {"time": 4965, "annotation": {"number": 64, "value": 0}, "group": "control_change"}, {"time": 4969, "annotation": {"number": 64, "value": 127}, "group": "control_change"}, {"time": 4988, "annotation": {"number": 64, "value": 0}, "group": "control_change"}, {"time": 4994, "annotation": {"number": 64, "value": 127}, "group": "control_change"}, {"time": 5037, "annotation": {"number": 64, "value": 0}, "group": "control_change"}, {"time": 5043, "annotation": {"number": 64, "value": 127}, "group": "control_change"}, {"time": 5085, "annotation": {"number": 64, "value": 0}, "group": "control_change"}, {"time": 5091, "annotation": {"number": 64, "value": 127}, "group": "control_change"}, {"time": 5133, "annotation": {"number": 64, "value": 0}, "group": "control_change"}, {"time": 5138, "annotation": {"number": 64, "value": 127}, "group": "control_change"}, {"time": 5157, "annotation": {"number": 64, "value": 0}, "group": "control_change"}, {"time": 5163, "annotation": {"number": 64, "value": 127}, "group": "control_change"}, {"time": 5181, "annotation": {"number": 64, "value": 0}, "group": "control_change"}, {"time": 5185, "annotation": {"number": 64, "value": 127}, "group": "control_change"}, {"time": 5230, "annotation": {"number": 64, "value": 0}, "group": "control_change"}, {"time": 5232, "annotation": {"number": 64, "value": 127}, "group": "control_change"}, {"time": 5328, "annotation": {"number": 64, "value": 0}, "group": "control_change"}, {"time": 5331, "annotation": {"number": 64, "value": 127}, "group": "control_change"}, {"time": 5422, "annotation": {"number": 64, "value": 0}, "group": "control_change"}, {"time": 5426, "annotation": {"number": 64, "value": 127}, "group": "control_change"}, {"time": 5477, "annotation": {"number": 64, "value": 0}, "group": "control_change"}, {"time": 5480, "annotation": {"number": 64, "value": 127}, "group": "control_change"}, {"time": 5569, "annotation": {"number": 64, "value": 0}, "group": "control_change"}, {"time": 5572, "annotation": {"number": 64, "value": 127}, "group": "control_change"}, {"time": 5712, "annotation": {"number": 64, "value": 0}, "group": "control_change"}]}]}