{"metadata": {"schema_version": "0.2", "title": "None", "source_filename": "188.mid", "source_format": "midi"}, "resolution": 12, "tempos": [{"time": 0, "qpm": 110.00011000011}], "key_signatures": [{"time": 0, "root": 0, "mode": "major"}], "time_signatures": [{"time": 0, "numerator": 4, "denominator": 4}], "tracks": [{"program": 4, "is_drum": false, "name": "MELODY", "notes": [{"time": 390, "pitch": 65, "duration": 12, "velocity": 90}, {"time": 402, "pitch": 74, "duration": 12, "velocity": 83}, {"time": 414, "pitch": 74, "duration": 6, "velocity": 76}, {"time": 420, "pitch": 74, "duration": 6, "velocity": 82}, {"time": 426, "pitch": 74, "duration": 6, "velocity": 86}, {"time": 432, "pitch": 72, "duration": 6, "velocity": 63}, {"time": 438, "pitch": 70, "duration": 6, "velocity": 54}, {"time": 444, "pitch": 72, "duration": 24, "velocity": 73}, {"time": 468, "pitch": 72, "duration": 6, "velocity": 84}, {"time": 474, "pitch": 74, "duration": 12, "velocity": 67}, {"time": 486, "pitch": 72, "duration": 6, "velocity": 63}, {"time": 492, "pitch": 70, "duration": 12, "velocity": 64}, {"time": 504, "pitch": 70, "duration": 6, "velocity": 66}, {"time": 510, "pitch": 70, "duration": 6, "velocity": 69}, {"time": 516, "pitch": 70, "duration": 6, "velocity": 76}, {"time": 522, "pitch": 70, "duration": 6, "velocity": 65}, {"time": 528, "pitch": 69, "duration": 6, "velocity": 62}, {"time": 534, "pitch": 67, "duration": 6, "velocity": 61}, {"time": 540, "pitch": 65, "duration": 24, "velocity": 60}, {"time": 564, "pitch": 65, "duration": 6, "velocity": 82}, {"time": 570, "pitch": 67, "duration": 6, "velocity": 65}, {"time": 576, "pitch": 65, "duration": 6, "velocity": 68}, {"time": 582, "pitch": 67, "duration": 6, "velocity": 66}, {"time": 588, "pitch": 70, "duration": 24, "velocity": 94}, {"time": 612, "pitch": 65, "duration": 6, "velocity": 64}, {"time": 618, "pitch": 65, "duration": 6, "velocity": 85}, {"time": 624, "pitch": 65, "duration": 6, "velocity": 71}, {"time": 630, "pitch": 72, "duration": 6, "velocity": 91}, {"time": 636, "pitch": 70, "duration": 24, "velocity": 77}, {"time": 660, "pitch": 65, "duration": 6, "velocity": 76}, {"time": 666, "pitch": 75, "duration": 6, "velocity": 82}, {"time": 672, "pitch": 74, "duration": 6, "velocity": 66}, {"time": 678, "pitch": 75, "duration": 6, "velocity": 66}, {"time": 684, "pitch": 74, "duration": 6, "velocity": 77}, {"time": 690, "pitch": 70, "duration": 6, "velocity": 67}, {"time": 696, "pitch": 65, "duration": 12, "velocity": 74}, {"time": 708, "pitch": 74, "duration": 12, "velocity": 87}, {"time": 720, "pitch": 77, "duration": 6, "velocity": 90}, {"time": 726, "pitch": 70, "duration": 6, "velocity": 85}, {"time": 732, "pitch": 72, "duration": 42, "velocity": 84}, {"time": 774, "pitch": 65, "duration": 12, "velocity": 87}, {"time": 786, "pitch": 74, "duration": 12, "velocity": 90}, {"time": 798, "pitch": 74, "duration": 6, "velocity": 91}, {"time": 804, "pitch": 74, "duration": 6, "velocity": 86}, {"time": 810, "pitch": 74, "duration": 6, "velocity": 87}, {"time": 816, "pitch": 72, "duration": 6, "velocity": 77}, {"time": 822, "pitch": 72, "duration": 6, "velocity": 68}, {"time": 828, "pitch": 70, "duration": 6, "velocity": 61}, {"time": 834, "pitch": 72, "duration": 18, "velocity": 90}, {"time": 852, "pitch": 72, "duration": 6, "velocity": 92}, {"time": 858, "pitch": 74, "duration": 12, "velocity": 93}, {"time": 870, "pitch": 72, "duration": 6, "velocity": 87}, {"time": 876, "pitch": 72, "duration": 12, "velocity": 93}, {"time": 888, "pitch": 70, "duration": 6, "velocity": 83}, {"time": 894, "pitch": 70, "duration": 6, "velocity": 91}, {"time": 900, "pitch": 70, "duration": 6, "velocity": 87}, {"time": 906, "pitch": 70, "duration": 6, "velocity": 97}, {"time": 912, "pitch": 69, "duration": 6, "velocity": 79}, {"time": 918, "pitch": 67, "duration": 6, "velocity": 79}, {"time": 924, "pitch": 67, "duration": 12, "velocity": 84}, {"time": 936, "pitch": 65, "duration": 12, "velocity": 68}, {"time": 948, "pitch": 65, "duration": 6, "velocity": 74}, {"time": 954, "pitch": 67, "duration": 6, "velocity": 90}, {"time": 960, "pitch": 65, "duration": 6, "velocity": 84}, {"time": 966, "pitch": 67, "duration": 6, "velocity": 89}, {"time": 972, "pitch": 70, "duration": 24, "velocity": 99}, {"time": 996, "pitch": 65, "duration": 6, "velocity": 84}, {"time": 1002, "pitch": 65, "duration": 6, "velocity": 89}, {"time": 1008, "pitch": 65, "duration": 6, "velocity": 73}, {"time": 1014, "pitch": 72, "duration": 6, "velocity": 94}, {"time": 1020, "pitch": 70, "duration": 24, "velocity": 93}, {"time": 1044, "pitch": 65, "duration": 6, "velocity": 72}, {"time": 1050, "pitch": 75, "duration": 6, "velocity": 69}, {"time": 1056, "pitch": 74, "duration": 6, "velocity": 75}, {"time": 1062, "pitch": 75, "duration": 6, "velocity": 82}, {"time": 1068, "pitch": 74, "duration": 6, "velocity": 82}, {"time": 1074, "pitch": 70, "duration": 6, "velocity": 90}, {"time": 1080, "pitch": 65, "duration": 12, "velocity": 77}, {"time": 1092, "pitch": 65, "duration": 6, "velocity": 69}, {"time": 1098, "pitch": 75, "duration": 6, "velocity": 85}, {"time": 1104, "pitch": 74, "duration": 6, "velocity": 84}, {"time": 1110, "pitch": 75, "duration": 6, "velocity": 75}, {"time": 1116, "pitch": 74, "duration": 6, "velocity": 87}, {"time": 1122, "pitch": 70, "duration": 12, "velocity": 91}, {"time": 1134, "pitch": 72, "duration": 6, "velocity": 91}, {"time": 1140, "pitch": 72, "duration": 30, "velocity": 93}, {"time": 1170, "pitch": 70, "duration": 66, "velocity": 87}, {"time": 1236, "pitch": 77, "duration": 6, "velocity": 89}, {"time": 1242, "pitch": 77, "duration": 12, "velocity": 94}, {"time": 1254, "pitch": 70, "duration": 12, "velocity": 93}, {"time": 1266, "pitch": 77, "duration": 12, "velocity": 98}, {"time": 1278, "pitch": 77, "duration": 6, "velocity": 92}, {"time": 1284, "pitch": 77, "duration": 6, "velocity": 90}, {"time": 1290, "pitch": 77, "duration": 6, "velocity": 92}, {"time": 1296, "pitch": 79, "duration": 6, "velocity": 93}, {"time": 1302, "pitch": 74, "duration": 6, "velocity": 79}, {"time": 1308, "pitch": 72, "duration": 24, "velocity": 101}, {"time": 1332, "pitch": 65, "duration": 6, "velocity": 94}, {"time": 1338, "pitch": 74, "duration": 12, "velocity": 94}, {"time": 1350, "pitch": 72, "duration": 6, "velocity": 85}, {"time": 1356, "pitch": 72, "duration": 12, "velocity": 87}, {"time": 1368, "pitch": 70, "duration": 6, "velocity": 73}, {"time": 1374, "pitch": 70, "duration": 6, "velocity": 68}, {"time": 1380, "pitch": 67, "duration": 6, "velocity": 61}, {"time": 1386, "pitch": 70, "duration": 6, "velocity": 75}, {"time": 1392, "pitch": 72, "duration": 6, "velocity": 63}, {"time": 1398, "pitch": 74, "duration": 6, "velocity": 80}, {"time": 1404, "pitch": 75, "duration": 12, "velocity": 75}, {"time": 1416, "pitch": 74, "duration": 21, "velocity": 85}, {"time": 1434, "pitch": 74, "duration": 3, "velocity": 94}, {"time": 1440, "pitch": 72, "duration": 6, "velocity": 79}, {"time": 1446, "pitch": 72, "duration": 6, "velocity": 83}, {"time": 1452, "pitch": 70, "duration": 6, "velocity": 79}, {"time": 1458, "pitch": 67, "duration": 24, "velocity": 87}, {"time": 1482, "pitch": 74, "duration": 6, "velocity": 98}, {"time": 1488, "pitch": 72, "duration": 6, "velocity": 83}, {"time": 1494, "pitch": 72, "duration": 6, "velocity": 81}, {"time": 1500, "pitch": 70, "duration": 6, "velocity": 72}, {"time": 1506, "pitch": 72, "duration": 24, "velocity": 90}, {"time": 1530, "pitch": 74, "duration": 6, "velocity": 97}, {"time": 1536, "pitch": 72, "duration": 6, "velocity": 87}, {"time": 1542, "pitch": 72, "duration": 6, "velocity": 87}, {"time": 1548, "pitch": 70, "duration": 6, "velocity": 72}, {"time": 1554, "pitch": 72, "duration": 12, "velocity": 87}, {"time": 1566, "pitch": 72, "duration": 6, "velocity": 83}, {"time": 1572, "pitch": 74, "duration": 6, "velocity": 82}, {"time": 1578, "pitch": 75, "duration": 6, "velocity": 77}, {"time": 1584, "pitch": 74, "duration": 6, "velocity": 77}, {"time": 1590, "pitch": 75, "duration": 6, "velocity": 84}, {"time": 1596, "pitch": 77, "duration": 12, "velocity": 74}, {"time": 1608, "pitch": 72, "duration": 12, "velocity": 82}, {"time": 1620, "pitch": 77, "duration": 6, "velocity": 89}, {"time": 1626, "pitch": 77, "duration": 12, "velocity": 95}, {"time": 1638, "pitch": 75, "duration": 12, "velocity": 97}, {"time": 1650, "pitch": 74, "duration": 12, "velocity": 90}, {"time": 1662, "pitch": 74, "duration": 6, "velocity": 86}, {"time": 1668, "pitch": 74, "duration": 6, "velocity": 87}, {"time": 1674, "pitch": 74, "duration": 6, "velocity": 87}, {"time": 1680, "pitch": 75, "duration": 6, "velocity": 68}, {"time": 1686, "pitch": 77, "duration": 6, "velocity": 86}, {"time": 1692, "pitch": 77, "duration": 12, "velocity": 87}, {"time": 1704, "pitch": 79, "duration": 6, "velocity": 64}, {"time": 1710, "pitch": 77, "duration": 6, "velocity": 72}, {"time": 1716, "pitch": 70, "duration": 6, "velocity": 98}, {"time": 1722, "pitch": 70, "duration": 12, "velocity": 97}, {"time": 1734, "pitch": 72, "duration": 12, "velocity": 99}, {"time": 1746, "pitch": 74, "duration": 18, "velocity": 105}, {"time": 1764, "pitch": 72, "duration": 6, "velocity": 87}, {"time": 1770, "pitch": 74, "duration": 6, "velocity": 86}, {"time": 1776, "pitch": 72, "duration": 6, "velocity": 82}, {"time": 1782, "pitch": 74, "duration": 6, "velocity": 84}, {"time": 1788, "pitch": 75, "duration": 12, "velocity": 90}, {"time": 1800, "pitch": 74, "duration": 18, "velocity": 90}, {"time": 1818, "pitch": 74, "duration": 12, "velocity": 97}, {"time": 1830, "pitch": 72, "duration": 6, "velocity": 94}, {"time": 1836, "pitch": 70, "duration": 6, "velocity": 89}, {"time": 1842, "pitch": 67, "duration": 18, "velocity": 90}, {"time": 1860, "pitch": 74, "duration": 6, "velocity": 101}, {"time": 1866, "pitch": 74, "duration": 12, "velocity": 97}, {"time": 1878, "pitch": 72, "duration": 6, "velocity": 97}, {"time": 1884, "pitch": 70, "duration": 6, "velocity": 90}, {"time": 1890, "pitch": 72, "duration": 24, "velocity": 97}, {"time": 1914, "pitch": 74, "duration": 12, "velocity": 105}, {"time": 1926, "pitch": 72, "duration": 6, "velocity": 105}, {"time": 1932, "pitch": 70, "duration": 6, "velocity": 95}, {"time": 1938, "pitch": 72, "duration": 12, "velocity": 98}, {"time": 1950, "pitch": 72, "duration": 6, "velocity": 99}, {"time": 1956, "pitch": 74, "duration": 6, "velocity": 97}, {"time": 1962, "pitch": 75, "duration": 6, "velocity": 101}, {"time": 1968, "pitch": 74, "duration": 6, "velocity": 93}, {"time": 1974, "pitch": 75, "duration": 6, "velocity": 100}, {"time": 1980, "pitch": 77, "duration": 12, "velocity": 91}, {"time": 1992, "pitch": 72, "duration": 60, "velocity": 100}, {"time": 2052, "pitch": 65, "duration": 6, "velocity": 87}, {"time": 2058, "pitch": 67, "duration": 6, "velocity": 86}, {"time": 2064, "pitch": 70, "duration": 6, "velocity": 97}, {"time": 2070, "pitch": 72, "duration": 12, "velocity": 85}, {"time": 2082, "pitch": 70, "duration": 90, "velocity": 91}, {"time": 2172, "pitch": 65, "duration": 6, "velocity": 66}, {"time": 2178, "pitch": 74, "duration": 18, "velocity": 83}, {"time": 2196, "pitch": 74, "duration": 6, "velocity": 90}, {"time": 2202, "pitch": 74, "duration": 6, "velocity": 90}, {"time": 2208, "pitch": 72, "duration": 6, "velocity": 77}, {"time": 2214, "pitch": 70, "duration": 6, "velocity": 87}, {"time": 2220, "pitch": 72, "duration": 24, "velocity": 97}, {"time": 2244, "pitch": 72, "duration": 6, "velocity": 97}, {"time": 2250, "pitch": 74, "duration": 12, "velocity": 97}, {"time": 2262, "pitch": 72, "duration": 6, "velocity": 95}, {"time": 2268, "pitch": 72, "duration": 12, "velocity": 97}, {"time": 2280, "pitch": 70, "duration": 6, "velocity": 91}, {"time": 2286, "pitch": 70, "duration": 6, "velocity": 87}, {"time": 2292, "pitch": 70, "duration": 6, "velocity": 93}, {"time": 2298, "pitch": 70, "duration": 6, "velocity": 96}, {"time": 2304, "pitch": 69, "duration": 6, "velocity": 90}, {"time": 2310, "pitch": 67, "duration": 6, "velocity": 87}, {"time": 2316, "pitch": 67, "duration": 12, "velocity": 90}, {"time": 2328, "pitch": 65, "duration": 12, "velocity": 94}, {"time": 2340, "pitch": 65, "duration": 6, "velocity": 84}, {"time": 2346, "pitch": 67, "duration": 6, "velocity": 94}, {"time": 2352, "pitch": 65, "duration": 6, "velocity": 91}, {"time": 2358, "pitch": 67, "duration": 6, "velocity": 96}, {"time": 2364, "pitch": 70, "duration": 30, "velocity": 101}, {"time": 2394, "pitch": 70, "duration": 12, "velocity": 94}, {"time": 2406, "pitch": 67, "duration": 6, "velocity": 97}, {"time": 2412, "pitch": 65, "duration": 24, "velocity": 87}, {"time": 2436, "pitch": 65, "duration": 6, "velocity": 87}, {"time": 2442, "pitch": 67, "duration": 6, "velocity": 90}, {"time": 2448, "pitch": 65, "duration": 6, "velocity": 80}, {"time": 2454, "pitch": 67, "duration": 6, "velocity": 90}, {"time": 2460, "pitch": 74, "duration": 12, "velocity": 87}, {"time": 2472, "pitch": 70, "duration": 6, "velocity": 86}, {"time": 2478, "pitch": 70, "duration": 6, "velocity": 72}, {"time": 2484, "pitch": 67, "duration": 6, "velocity": 72}, {"time": 2490, "pitch": 74, "duration": 6, "velocity": 90}, {"time": 2496, "pitch": 72, "duration": 6, "velocity": 84}, {"time": 2502, "pitch": 70, "duration": 6, "velocity": 81}, {"time": 2508, "pitch": 72, "duration": 42, "velocity": 95}, {"time": 2550, "pitch": 65, "duration": 12, "velocity": 92}, {"time": 2562, "pitch": 74, "duration": 12, "velocity": 90}, {"time": 2574, "pitch": 74, "duration": 6, "velocity": 93}, {"time": 2580, "pitch": 74, "duration": 6, "velocity": 90}, {"time": 2586, "pitch": 74, "duration": 6, "velocity": 87}, {"time": 2592, "pitch": 72, "duration": 6, "velocity": 85}, {"time": 2598, "pitch": 70, "duration": 6, "velocity": 77}, {"time": 2604, "pitch": 72, "duration": 24, "velocity": 93}, {"time": 2628, "pitch": 72, "duration": 6, "velocity": 97}, {"time": 2634, "pitch": 74, "duration": 12, "velocity": 98}, {"time": 2646, "pitch": 72, "duration": 6, "velocity": 93}, {"time": 2652, "pitch": 70, "duration": 12, "velocity": 93}, {"time": 2664, "pitch": 70, "duration": 6, "velocity": 91}, {"time": 2670, "pitch": 70, "duration": 6, "velocity": 91}, {"time": 2676, "pitch": 70, "duration": 6, "velocity": 90}, {"time": 2682, "pitch": 70, "duration": 6, "velocity": 97}, {"time": 2688, "pitch": 69, "duration": 6, "velocity": 91}, {"time": 2694, "pitch": 67, "duration": 6, "velocity": 90}, {"time": 2700, "pitch": 65, "duration": 24, "velocity": 79}, {"time": 2724, "pitch": 65, "duration": 6, "velocity": 85}, {"time": 2730, "pitch": 67, "duration": 6, "velocity": 93}, {"time": 2736, "pitch": 65, "duration": 6, "velocity": 84}, {"time": 2742, "pitch": 67, "duration": 6, "velocity": 93}, {"time": 2748, "pitch": 70, "duration": 30, "velocity": 103}, {"time": 2778, "pitch": 65, "duration": 12, "velocity": 95}, {"time": 2790, "pitch": 72, "duration": 6, "velocity": 101}, {"time": 2796, "pitch": 70, "duration": 24, "velocity": 92}, {"time": 2820, "pitch": 65, "duration": 6, "velocity": 64}, {"time": 2826, "pitch": 74, "duration": 6, "velocity": 93}, {"time": 2832, "pitch": 74, "duration": 6, "velocity": 93}, {"time": 2838, "pitch": 75, "duration": 6, "velocity": 85}, {"time": 2844, "pitch": 74, "duration": 6, "velocity": 89}, {"time": 2850, "pitch": 70, "duration": 6, "velocity": 96}, {"time": 2856, "pitch": 65, "duration": 12, "velocity": 91}, {"time": 2868, "pitch": 65, "duration": 6, "velocity": 77}, {"time": 2874, "pitch": 74, "duration": 6, "velocity": 93}, {"time": 2880, "pitch": 74, "duration": 6, "velocity": 95}, {"time": 2886, "pitch": 75, "duration": 6, "velocity": 90}, {"time": 2892, "pitch": 74, "duration": 6, "velocity": 87}, {"time": 2898, "pitch": 70, "duration": 12, "velocity": 97}, {"time": 2910, "pitch": 72, "duration": 6, "velocity": 90}, {"time": 2916, "pitch": 72, "duration": 24, "velocity": 90}, {"time": 2940, "pitch": 74, "duration": 3, "velocity": 52}, {"time": 2943, "pitch": 72, "duration": 3, "velocity": 42}, {"time": 2946, "pitch": 70, "duration": 18, "velocity": 61}, {"time": 2964, "pitch": 77, "duration": 6, "velocity": 105}, {"time": 2970, "pitch": 77, "duration": 12, "velocity": 97}, {"time": 2982, "pitch": 70, "duration": 12, "velocity": 97}, {"time": 2994, "pitch": 77, "duration": 12, "velocity": 99}, {"time": 3006, "pitch": 77, "duration": 6, "velocity": 91}, {"time": 3012, "pitch": 77, "duration": 6, "velocity": 90}, {"time": 3018, "pitch": 77, "duration": 6, "velocity": 92}, {"time": 3024, "pitch": 79, "duration": 6, "velocity": 91}, {"time": 3030, "pitch": 74, "duration": 6, "velocity": 91}, {"time": 3036, "pitch": 72, "duration": 24, "velocity": 87}, {"time": 3060, "pitch": 65, "duration": 6, "velocity": 87}, {"time": 3066, "pitch": 74, "duration": 12, "velocity": 96}, {"time": 3078, "pitch": 72, "duration": 6, "velocity": 86}, {"time": 3084, "pitch": 72, "duration": 12, "velocity": 87}, {"time": 3096, "pitch": 70, "duration": 6, "velocity": 89}, {"time": 3102, "pitch": 70, "duration": 6, "velocity": 91}, {"time": 3108, "pitch": 67, "duration": 6, "velocity": 59}, {"time": 3114, "pitch": 70, "duration": 6, "velocity": 87}, {"time": 3120, "pitch": 72, "duration": 6, "velocity": 87}, {"time": 3126, "pitch": 74, "duration": 6, "velocity": 93}, {"time": 3132, "pitch": 74, "duration": 12, "velocity": 42}, {"time": 3132, "pitch": 75, "duration": 12, "velocity": 93}, {"time": 3144, "pitch": 74, "duration": 18, "velocity": 96}, {"time": 3162, "pitch": 74, "duration": 6, "velocity": 99}, {"time": 3168, "pitch": 72, "duration": 6, "velocity": 90}, {"time": 3174, "pitch": 72, "duration": 6, "velocity": 87}, {"time": 3180, "pitch": 70, "duration": 6, "velocity": 87}, {"time": 3186, "pitch": 67, "duration": 24, "velocity": 90}, {"time": 3210, "pitch": 74, "duration": 6, "velocity": 101}, {"time": 3216, "pitch": 72, "duration": 6, "velocity": 91}, {"time": 3222, "pitch": 72, "duration": 6, "velocity": 90}, {"time": 3228, "pitch": 70, "duration": 6, "velocity": 90}, {"time": 3234, "pitch": 72, "duration": 24, "velocity": 103}, {"time": 3258, "pitch": 74, "duration": 6, "velocity": 108}, {"time": 3264, "pitch": 72, "duration": 6, "velocity": 95}, {"time": 3270, "pitch": 72, "duration": 6, "velocity": 94}, {"time": 3276, "pitch": 70, "duration": 6, "velocity": 89}, {"time": 3282, "pitch": 72, "duration": 12, "velocity": 92}, {"time": 3294, "pitch": 72, "duration": 6, "velocity": 97}, {"time": 3300, "pitch": 74, "duration": 6, "velocity": 91}, {"time": 3306, "pitch": 75, "duration": 6, "velocity": 94}, {"time": 3312, "pitch": 74, "duration": 6, "velocity": 90}, {"time": 3318, "pitch": 75, "duration": 6, "velocity": 91}, {"time": 3324, "pitch": 77, "duration": 12, "velocity": 86}, {"time": 3336, "pitch": 72, "duration": 12, "velocity": 93}, {"time": 3348, "pitch": 77, "duration": 6, "velocity": 97}, {"time": 3354, "pitch": 77, "duration": 12, "velocity": 97}, {"time": 3366, "pitch": 75, "duration": 12, "velocity": 99}, {"time": 3378, "pitch": 74, "duration": 18, "velocity": 97}, {"time": 3396, "pitch": 74, "duration": 6, "velocity": 91}, {"time": 3402, "pitch": 74, "duration": 6, "velocity": 90}, {"time": 3408, "pitch": 75, "duration": 6, "velocity": 77}, {"time": 3414, "pitch": 77, "duration": 6, "velocity": 86}, {"time": 3420, "pitch": 77, "duration": 12, "velocity": 87}, {"time": 3432, "pitch": 79, "duration": 6, "velocity": 75}, {"time": 3438, "pitch": 77, "duration": 6, "velocity": 74}, {"time": 3444, "pitch": 70, "duration": 6, "velocity": 64}, {"time": 3450, "pitch": 70, "duration": 12, "velocity": 93}, {"time": 3462, "pitch": 72, "duration": 12, "velocity": 105}, {"time": 3474, "pitch": 74, "duration": 12, "velocity": 98}, {"time": 3486, "pitch": 74, "duration": 6, "velocity": 99}, {"time": 3492, "pitch": 72, "duration": 6, "velocity": 87}, {"time": 3498, "pitch": 74, "duration": 6, "velocity": 98}, {"time": 3504, "pitch": 72, "duration": 6, "velocity": 77}, {"time": 3510, "pitch": 74, "duration": 6, "velocity": 93}, {"time": 3516, "pitch": 75, "duration": 12, "velocity": 91}, {"time": 3528, "pitch": 74, "duration": 18, "velocity": 92}, {"time": 3546, "pitch": 72, "duration": 6, "velocity": 101}, {"time": 3552, "pitch": 74, "duration": 6, "velocity": 93}, {"time": 3558, "pitch": 72, "duration": 6, "velocity": 91}, {"time": 3564, "pitch": 70, "duration": 6, "velocity": 84}, {"time": 3570, "pitch": 67, "duration": 18, "velocity": 90}, {"time": 3588, "pitch": 74, "duration": 6, "velocity": 91}, {"time": 3594, "pitch": 74, "duration": 12, "velocity": 99}, {"time": 3606, "pitch": 72, "duration": 6, "velocity": 90}, {"time": 3612, "pitch": 70, "duration": 6, "velocity": 87}, {"time": 3618, "pitch": 72, "duration": 24, "velocity": 100}, {"time": 3642, "pitch": 74, "duration": 12, "velocity": 98}, {"time": 3654, "pitch": 72, "duration": 6, "velocity": 97}, {"time": 3660, "pitch": 70, "duration": 6, "velocity": 86}, {"time": 3666, "pitch": 72, "duration": 12, "velocity": 92}, {"time": 3678, "pitch": 72, "duration": 6, "velocity": 90}, {"time": 3684, "pitch": 74, "duration": 6, "velocity": 90}, {"time": 3690, "pitch": 75, "duration": 6, "velocity": 91}, {"time": 3696, "pitch": 74, "duration": 6, "velocity": 90}, {"time": 3702, "pitch": 75, "duration": 6, "velocity": 77}, {"time": 3708, "pitch": 77, "duration": 12, "velocity": 77}, {"time": 3720, "pitch": 72, "duration": 60, "velocity": 81}, {"time": 3780, "pitch": 65, "duration": 6, "velocity": 83}, {"time": 3786, "pitch": 67, "duration": 6, "velocity": 89}, {"time": 3792, "pitch": 70, "duration": 6, "velocity": 96}, {"time": 3798, "pitch": 72, "duration": 12, "velocity": 85}, {"time": 3810, "pitch": 70, "duration": 72, "velocity": 97}, {"time": 3882, "pitch": 77, "duration": 12, "velocity": 101}, {"time": 3894, "pitch": 70, "duration": 12, "velocity": 86}, {"time": 3906, "pitch": 77, "duration": 12, "velocity": 95}, {"time": 3918, "pitch": 77, "duration": 6, "velocity": 91}, {"time": 3924, "pitch": 77, "duration": 6, "velocity": 91}, {"time": 3930, "pitch": 77, "duration": 6, "velocity": 95}, {"time": 3936, "pitch": 79, "duration": 6, "velocity": 81}, {"time": 3942, "pitch": 74, "duration": 6, "velocity": 77}, {"time": 3948, "pitch": 72, "duration": 24, "velocity": 90}, {"time": 3972, "pitch": 65, "duration": 6, "velocity": 66}, {"time": 3978, "pitch": 74, "duration": 12, "velocity": 89}, {"time": 3990, "pitch": 72, "duration": 6, "velocity": 82}, {"time": 3996, "pitch": 72, "duration": 12, "velocity": 84}, {"time": 4008, "pitch": 70, "duration": 6, "velocity": 71}, {"time": 4014, "pitch": 70, "duration": 6, "velocity": 76}, {"time": 4020, "pitch": 67, "duration": 6, "velocity": 53}, {"time": 4026, "pitch": 70, "duration": 6, "velocity": 71}, {"time": 4032, "pitch": 72, "duration": 6, "velocity": 71}, {"time": 4038, "pitch": 74, "duration": 6, "velocity": 74}, {"time": 4044, "pitch": 75, "duration": 12, "velocity": 72}, {"time": 4056, "pitch": 74, "duration": 18, "velocity": 72}, {"time": 4074, "pitch": 74, "duration": 6, "velocity": 99}, {"time": 4080, "pitch": 72, "duration": 6, "velocity": 90}, {"time": 4086, "pitch": 72, "duration": 6, "velocity": 87}, {"time": 4092, "pitch": 70, "duration": 6, "velocity": 89}, {"time": 4098, "pitch": 67, "duration": 24, "velocity": 91}, {"time": 4122, "pitch": 74, "duration": 6, "velocity": 101}, {"time": 4128, "pitch": 72, "duration": 6, "velocity": 87}, {"time": 4134, "pitch": 72, "duration": 6, "velocity": 87}, {"time": 4140, "pitch": 70, "duration": 6, "velocity": 87}, {"time": 4146, "pitch": 72, "duration": 24, "velocity": 93}, {"time": 4170, "pitch": 74, "duration": 6, "velocity": 99}, {"time": 4176, "pitch": 72, "duration": 6, "velocity": 89}, {"time": 4182, "pitch": 72, "duration": 6, "velocity": 91}, {"time": 4188, "pitch": 70, "duration": 6, "velocity": 82}, {"time": 4194, "pitch": 72, "duration": 12, "velocity": 90}, {"time": 4206, "pitch": 72, "duration": 6, "velocity": 90}, {"time": 4212, "pitch": 74, "duration": 6, "velocity": 85}, {"time": 4218, "pitch": 75, "duration": 6, "velocity": 87}, {"time": 4224, "pitch": 74, "duration": 6, "velocity": 74}, {"time": 4230, "pitch": 75, "duration": 6, "velocity": 89}, {"time": 4236, "pitch": 77, "duration": 12, "velocity": 72}, {"time": 4248, "pitch": 72, "duration": 12, "velocity": 75}, {"time": 4260, "pitch": 77, "duration": 6, "velocity": 91}, {"time": 4266, "pitch": 77, "duration": 12, "velocity": 98}, {"time": 4278, "pitch": 75, "duration": 12, "velocity": 103}, {"time": 4290, "pitch": 74, "duration": 12, "velocity": 97}, {"time": 4302, "pitch": 74, "duration": 6, "velocity": 96}, {"time": 4308, "pitch": 74, "duration": 6, "velocity": 91}, {"time": 4314, "pitch": 74, "duration": 6, "velocity": 91}, {"time": 4320, "pitch": 75, "duration": 6, "velocity": 86}, {"time": 4326, "pitch": 77, "duration": 6, "velocity": 85}, {"time": 4332, "pitch": 77, "duration": 12, "velocity": 90}, {"time": 4344, "pitch": 79, "duration": 6, "velocity": 82}, {"time": 4350, "pitch": 77, "duration": 6, "velocity": 73}, {"time": 4356, "pitch": 70, "duration": 6, "velocity": 64}, {"time": 4362, "pitch": 70, "duration": 12, "velocity": 91}, {"time": 4374, "pitch": 72, "duration": 12, "velocity": 92}, {"time": 4386, "pitch": 74, "duration": 12, "velocity": 90}, {"time": 4398, "pitch": 74, "duration": 6, "velocity": 87}, {"time": 4404, "pitch": 72, "duration": 6, "velocity": 84}, {"time": 4410, "pitch": 74, "duration": 6, "velocity": 85}, {"time": 4416, "pitch": 72, "duration": 6, "velocity": 75}, {"time": 4422, "pitch": 74, "duration": 6, "velocity": 81}, {"time": 4428, "pitch": 75, "duration": 12, "velocity": 92}, {"time": 4440, "pitch": 74, "duration": 18, "velocity": 90}, {"time": 4458, "pitch": 72, "duration": 6, "velocity": 103}, {"time": 4464, "pitch": 74, "duration": 6, "velocity": 93}, {"time": 4470, "pitch": 72, "duration": 6, "velocity": 90}, {"time": 4476, "pitch": 70, "duration": 6, "velocity": 84}, {"time": 4482, "pitch": 67, "duration": 18, "velocity": 90}, {"time": 4500, "pitch": 74, "duration": 6, "velocity": 103}, {"time": 4506, "pitch": 74, "duration": 12, "velocity": 100}, {"time": 4518, "pitch": 72, "duration": 6, "velocity": 91}, {"time": 4524, "pitch": 70, "duration": 6, "velocity": 91}, {"time": 4530, "pitch": 72, "duration": 24, "velocity": 99}, {"time": 4554, "pitch": 74, "duration": 12, "velocity": 100}, {"time": 4566, "pitch": 72, "duration": 6, "velocity": 100}, {"time": 4572, "pitch": 70, "duration": 6, "velocity": 95}, {"time": 4578, "pitch": 72, "duration": 12, "velocity": 94}, {"time": 4590, "pitch": 72, "duration": 6, "velocity": 94}, {"time": 4596, "pitch": 74, "duration": 6, "velocity": 87}, {"time": 4602, "pitch": 75, "duration": 6, "velocity": 92}, {"time": 4608, "pitch": 74, "duration": 6, "velocity": 87}, {"time": 4614, "pitch": 75, "duration": 6, "velocity": 90}, {"time": 4620, "pitch": 77, "duration": 12, "velocity": 79}, {"time": 4632, "pitch": 72, "duration": 60, "velocity": 83}, {"time": 4692, "pitch": 65, "duration": 6, "velocity": 90}, {"time": 4698, "pitch": 67, "duration": 6, "velocity": 91}, {"time": 4704, "pitch": 70, "duration": 6, "velocity": 95}, {"time": 4710, "pitch": 72, "duration": 12, "velocity": 90}, {"time": 4722, "pitch": 70, "duration": 72, "velocity": 98}, {"time": 4794, "pitch": 74, "duration": 6, "velocity": 97}, {"time": 4800, "pitch": 72, "duration": 6, "velocity": 90}, {"time": 4806, "pitch": 70, "duration": 6, "velocity": 91}, {"time": 4812, "pitch": 72, "duration": 18, "velocity": 93}, {"time": 4830, "pitch": 72, "duration": 6, "velocity": 99}, {"time": 4836, "pitch": 74, "duration": 6, "velocity": 86}, {"time": 4842, "pitch": 75, "duration": 6, "velocity": 91}, {"time": 4848, "pitch": 74, "duration": 6, "velocity": 87}, {"time": 4854, "pitch": 75, "duration": 6, "velocity": 89}, {"time": 4860, "pitch": 77, "duration": 12, "velocity": 77}, {"time": 4872, "pitch": 72, "duration": 60, "velocity": 90}, {"time": 4932, "pitch": 67, "duration": 6, "velocity": 84}, {"time": 4938, "pitch": 67, "duration": 6, "velocity": 80}, {"time": 4944, "pitch": 70, "duration": 6, "velocity": 66}, {"time": 4950, "pitch": 72, "duration": 12, "velocity": 90}, {"time": 4962, "pitch": 70, "duration": 48, "velocity": 90}], "annotations": [{"time": 404, "annotation": {"number": 64, "value": 127}, "group": "control_change"}, {"time": 442, "annotation": {"number": 64, "value": 0}, "group": "control_change"}, {"time": 452, "annotation": {"number": 64, "value": 127}, "group": "control_change"}, {"time": 469, "annotation": {"number": 64, "value": 0}, "group": "control_change"}, {"time": 476, "annotation": {"number": 64, "value": 127}, "group": "control_change"}, {"time": 492, "annotation": {"number": 64, "value": 0}, "group": "control_change"}, {"time": 502, "annotation": {"number": 64, "value": 127}, "group": "control_change"}, {"time": 542, "annotation": {"number": 64, "value": 0}, "group": "control_change"}, {"time": 704, "annotation": {"number": 64, "value": 0}, "group": "control_change"}, {"time": 788, "annotation": {"number": 64, "value": 127}, "group": "control_change"}, {"time": 800, "annotation": {"number": 64, "value": 0}, "group": "control_change"}, {"time": 820, "annotation": {"number": 64, "value": 127}, "group": "control_change"}, {"time": 831, "annotation": {"number": 64, "value": 0}, "group": "control_change"}, {"time": 836, "annotation": {"number": 64, "value": 127}, "group": "control_change"}, {"time": 860, "annotation": {"number": 64, "value": 0}, "group": "control_change"}, {"time": 1310, "annotation": {"number": 64, "value": 127}, "group": "control_change"}, {"time": 1326, "annotation": {"number": 64, "value": 0}, "group": "control_change"}, {"time": 1339, "annotation": {"number": 64, "value": 127}, "group": "control_change"}, {"time": 1357, "annotation": {"number": 64, "value": 0}, "group": "control_change"}, {"time": 1363, "annotation": {"number": 64, "value": 127}, "group": "control_change"}, {"time": 1379, "annotation": {"number": 64, "value": 0}, "group": "control_change"}, {"time": 1400, "annotation": {"number": 64, "value": 127}, "group": "control_change"}, {"time": 1408, "annotation": {"number": 64, "value": 0}, "group": "control_change"}, {"time": 1413, "annotation": {"number": 64, "value": 127}, "group": "control_change"}, {"time": 1431, "annotation": {"number": 64, "value": 0}, "group": "control_change"}, {"time": 1435, "annotation": {"number": 64, "value": 127}, "group": "control_change"}, {"time": 1456, "annotation": {"number": 64, "value": 0}, "group": "control_change"}, {"time": 1460, "annotation": {"number": 64, "value": 127}, "group": "control_change"}, {"time": 1493, "annotation": {"number": 64, "value": 127}, "group": "control_change"}, {"time": 1504, "annotation": {"number": 64, "value": 0}, "group": "control_change"}, {"time": 2435, "annotation": {"number": 64, "value": 127}, "group": "control_change"}, {"time": 2438, "annotation": {"number": 64, "value": 0}, "group": "control_change"}, {"time": 2490, "annotation": {"number": 64, "value": 127}, "group": "control_change"}, {"time": 2496, "annotation": {"number": 64, "value": 0}, "group": "control_change"}, {"time": 2514, "annotation": {"number": 64, "value": 127}, "group": "control_change"}, {"time": 2540, "annotation": {"number": 64, "value": 0}, "group": "control_change"}, {"time": 2563, "annotation": {"number": 64, "value": 127}, "group": "control_change"}, {"time": 2574, "annotation": {"number": 64, "value": 0}, "group": "control_change"}, {"time": 2587, "annotation": {"number": 64, "value": 127}, "group": "control_change"}, {"time": 2597, "annotation": {"number": 64, "value": 0}, "group": "control_change"}, {"time": 2610, "annotation": {"number": 64, "value": 127}, "group": "control_change"}, {"time": 2631, "annotation": {"number": 64, "value": 0}, "group": "control_change"}, {"time": 3186, "annotation": {"number": 64, "value": 127}, "group": "control_change"}, {"time": 3200, "annotation": {"number": 64, "value": 0}, "group": "control_change"}]}, {"program": 0, "is_drum": false, "name": "PIANO", "notes": [{"time": 15, "pitch": 70, "duration": 10, "velocity": 47}, {"time": 17, "pitch": 75, "duration": 11, "velocity": 62}, {"time": 18, "pitch": 51, "duration": 16, "velocity": 73}, {"time": 18, "pitch": 82, "duration": 20, "velocity": 69}, {"time": 24, "pitch": 58, "duration": 13, "velocity": 52}, {"time": 30, "pitch": 63, "duration": 5, "velocity": 64}, {"time": 30, "pitch": 77, "duration": 10, "velocity": 73}, {"time": 42, "pitch": 53, "duration": 17, "velocity": 66}, {"time": 42, "pitch": 74, "duration": 8, "velocity": 76}, {"time": 48, "pitch": 60, "duration": 12, "velocity": 58}, {"time": 48, "pitch": 77, "duration": 4, "velocity": 73}, {"time": 54, "pitch": 65, "duration": 6, "velocity": 62}, {"time": 54, "pitch": 77, "duration": 10, "velocity": 76}, {"time": 66, "pitch": 50, "duration": 13, "velocity": 67}, {"time": 66, "pitch": 74, "duration": 5, "velocity": 69}, {"time": 72, "pitch": 57, "duration": 10, "velocity": 56}, {"time": 72, "pitch": 77, "duration": 6, "velocity": 63}, {"time": 78, "pitch": 62, "duration": 12, "velocity": 66}, {"time": 78, "pitch": 79, "duration": 5, "velocity": 60}, {"time": 84, "pitch": 77, "duration": 6, "velocity": 58}, {"time": 90, "pitch": 55, "duration": 18, "velocity": 66}, {"time": 90, "pitch": 74, "duration": 15, "velocity": 69}, {"time": 90, "pitch": 82, "duration": 15, "velocity": 70}, {"time": 96, "pitch": 62, "duration": 12, "velocity": 60}, {"time": 102, "pitch": 67, "duration": 5, "velocity": 62}, {"time": 114, "pitch": 51, "duration": 13, "velocity": 72}, {"time": 114, "pitch": 74, "duration": 3, "velocity": 58}, {"time": 114, "pitch": 82, "duration": 8, "velocity": 70}, {"time": 120, "pitch": 58, "duration": 14, "velocity": 63}, {"time": 120, "pitch": 77, "duration": 5, "velocity": 64}, {"time": 126, "pitch": 63, "duration": 5, "velocity": 69}, {"time": 126, "pitch": 74, "duration": 5, "velocity": 75}, {"time": 132, "pitch": 77, "duration": 6, "velocity": 85}, {"time": 138, "pitch": 53, "duration": 15, "velocity": 72}, {"time": 138, "pitch": 74, "duration": 6, "velocity": 76}, {"time": 144, "pitch": 60, "duration": 10, "velocity": 61}, {"time": 144, "pitch": 72, "duration": 6, "velocity": 70}, {"time": 150, "pitch": 65, "duration": 3, "velocity": 70}, {"time": 150, "pitch": 70, "duration": 6, "velocity": 73}, {"time": 156, "pitch": 72, "duration": 6, "velocity": 67}, {"time": 162, "pitch": 46, "duration": 38, "velocity": 73}, {"time": 162, "pitch": 74, "duration": 6, "velocity": 72}, {"time": 168, "pitch": 53, "duration": 32, "velocity": 61}, {"time": 174, "pitch": 58, "duration": 14, "velocity": 75}, {"time": 180, "pitch": 60, "duration": 7, "velocity": 72}, {"time": 186, "pitch": 62, "duration": 5, "velocity": 91}, {"time": 192, "pitch": 58, "duration": 7, "velocity": 50}, {"time": 198, "pitch": 65, "duration": 3, "velocity": 93}, {"time": 210, "pitch": 39, "duration": 7, "velocity": 53}, {"time": 210, "pitch": 51, "duration": 8, "velocity": 58}, {"time": 210, "pitch": 58, "duration": 6, "velocity": 66}, {"time": 210, "pitch": 63, "duration": 7, "velocity": 65}, {"time": 210, "pitch": 67, "duration": 8, "velocity": 40}, {"time": 210, "pitch": 70, "duration": 7, "velocity": 55}, {"time": 228, "pitch": 41, "duration": 14, "velocity": 60}, {"time": 228, "pitch": 53, "duration": 7, "velocity": 65}, {"time": 228, "pitch": 60, "duration": 11, "velocity": 61}, {"time": 228, "pitch": 65, "duration": 10, "velocity": 56}, {"time": 228, "pitch": 69, "duration": 12, "velocity": 67}, {"time": 240, "pitch": 53, "duration": 6, "velocity": 58}, {"time": 246, "pitch": 60, "duration": 2, "velocity": 77}, {"time": 246, "pitch": 65, "duration": 3, "velocity": 74}, {"time": 246, "pitch": 69, "duration": 4, "velocity": 82}, {"time": 258, "pitch": 50, "duration": 10, "velocity": 79}, {"time": 258, "pitch": 60, "duration": 8, "velocity": 77}, {"time": 258, "pitch": 66, "duration": 8, "velocity": 73}, {"time": 258, "pitch": 69, "duration": 9, "velocity": 67}, {"time": 264, "pitch": 57, "duration": 3, "velocity": 92}, {"time": 270, "pitch": 67, "duration": 5, "velocity": 75}, {"time": 276, "pitch": 43, "duration": 24, "velocity": 86}, {"time": 276, "pitch": 62, "duration": 9, "velocity": 71}, {"time": 276, "pitch": 65, "duration": 9, "velocity": 79}, {"time": 276, "pitch": 70, "duration": 12, "velocity": 71}, {"time": 288, "pitch": 55, "duration": 7, "velocity": 63}, {"time": 294, "pitch": 58, "duration": 4, "velocity": 61}, {"time": 294, "pitch": 62, "duration": 5, "velocity": 81}, {"time": 294, "pitch": 65, "duration": 6, "velocity": 85}, {"time": 306, "pitch": 48, "duration": 36, "velocity": 81}, {"time": 306, "pitch": 58, "duration": 7, "velocity": 81}, {"time": 306, "pitch": 63, "duration": 8, "velocity": 77}, {"time": 306, "pitch": 67, "duration": 7, "velocity": 76}, {"time": 306, "pitch": 70, "duration": 7, "velocity": 54}, {"time": 312, "pitch": 55, "duration": 18, "velocity": 60}, {"time": 318, "pitch": 58, "duration": 20, "velocity": 63}, {"time": 324, "pitch": 63, "duration": 14, "velocity": 84}, {"time": 324, "pitch": 67, "duration": 14, "velocity": 80}, {"time": 324, "pitch": 70, "duration": 14, "velocity": 57}, {"time": 336, "pitch": 55, "duration": 5, "velocity": 76}, {"time": 342, "pitch": 58, "duration": 5, "velocity": 54}, {"time": 348, "pitch": 63, "duration": 2, "velocity": 39}, {"time": 348, "pitch": 67, "duration": 2, "velocity": 50}, {"time": 354, "pitch": 41, "duration": 41, "velocity": 76}, {"time": 354, "pitch": 53, "duration": 4, "velocity": 72}, {"time": 354, "pitch": 58, "duration": 7, "velocity": 68}, {"time": 354, "pitch": 63, "duration": 8, "velocity": 57}, {"time": 354, "pitch": 67, "duration": 8, "velocity": 65}, {"time": 354, "pitch": 70, "duration": 7, "velocity": 63}, {"time": 360, "pitch": 53, "duration": 7, "velocity": 56}, {"time": 366, "pitch": 58, "duration": 3, "velocity": 61}, {"time": 366, "pitch": 63, "duration": 5, "velocity": 49}, {"time": 366, "pitch": 67, "duration": 5, "velocity": 52}, {"time": 372, "pitch": 53, "duration": 22, "velocity": 72}, {"time": 372, "pitch": 60, "duration": 13, "velocity": 68}, {"time": 372, "pitch": 65, "duration": 14, "velocity": 66}, {"time": 372, "pitch": 69, "duration": 13, "velocity": 70}, {"time": 390, "pitch": 60, "duration": 4, "velocity": 40}, {"time": 390, "pitch": 65, "duration": 6, "velocity": 39}, {"time": 402, "pitch": 46, "duration": 41, "velocity": 56}, {"time": 402, "pitch": 58, "duration": 27, "velocity": 62}, {"time": 402, "pitch": 62, "duration": 10, "velocity": 54}, {"time": 402, "pitch": 65, "duration": 11, "velocity": 54}, {"time": 402, "pitch": 70, "duration": 32, "velocity": 50}, {"time": 420, "pitch": 60, "duration": 12, "velocity": 43}, {"time": 420, "pitch": 65, "duration": 13, "velocity": 55}, {"time": 432, "pitch": 58, "duration": 9, "velocity": 48}, {"time": 438, "pitch": 60, "duration": 8, "velocity": 51}, {"time": 438, "pitch": 65, "duration": 11, "velocity": 66}, {"time": 450, "pitch": 45, "duration": 43, "velocity": 53}, {"time": 450, "pitch": 57, "duration": 27, "velocity": 47}, {"time": 450, "pitch": 60, "duration": 15, "velocity": 54}, {"time": 450, "pitch": 65, "duration": 11, "velocity": 48}, {"time": 468, "pitch": 60, "duration": 15, "velocity": 49}, {"time": 468, "pitch": 65, "duration": 15, "velocity": 58}, {"time": 486, "pitch": 57, "duration": 7, "velocity": 37}, {"time": 492, "pitch": 65, "duration": 10, "velocity": 53}, {"time": 498, "pitch": 43, "duration": 40, "velocity": 70}, {"time": 498, "pitch": 58, "duration": 9, "velocity": 59}, {"time": 498, "pitch": 62, "duration": 9, "velocity": 63}, {"time": 504, "pitch": 55, "duration": 20, "velocity": 44}, {"time": 510, "pitch": 57, "duration": 6, "velocity": 27}, {"time": 516, "pitch": 58, "duration": 14, "velocity": 63}, {"time": 516, "pitch": 62, "duration": 14, "velocity": 64}, {"time": 528, "pitch": 55, "duration": 9, "velocity": 41}, {"time": 534, "pitch": 57, "duration": 7, "velocity": 50}, {"time": 534, "pitch": 60, "duration": 7, "velocity": 57}, {"time": 540, "pitch": 62, "duration": 15, "velocity": 55}, {"time": 546, "pitch": 41, "duration": 39, "velocity": 61}, {"time": 546, "pitch": 58, "duration": 9, "velocity": 58}, {"time": 552, "pitch": 53, "duration": 31, "velocity": 47}, {"time": 558, "pitch": 57, "duration": 7, "velocity": 44}, {"time": 564, "pitch": 58, "duration": 16, "velocity": 63}, {"time": 564, "pitch": 62, "duration": 15, "velocity": 61}, {"time": 582, "pitch": 60, "duration": 6, "velocity": 50}, {"time": 588, "pitch": 62, "duration": 6, "velocity": 55}, {"time": 594, "pitch": 39, "duration": 37, "velocity": 61}, {"time": 594, "pitch": 55, "duration": 8, "velocity": 56}, {"time": 594, "pitch": 58, "duration": 10, "velocity": 59}, {"time": 600, "pitch": 51, "duration": 21, "velocity": 48}, {"time": 606, "pitch": 55, "duration": 15, "velocity": 45}, {"time": 612, "pitch": 58, "duration": 9, "velocity": 49}, {"time": 612, "pitch": 63, "duration": 12, "velocity": 67}, {"time": 624, "pitch": 51, "duration": 8, "velocity": 32}, {"time": 630, "pitch": 55, "duration": 7, "velocity": 49}, {"time": 636, "pitch": 63, "duration": 7, "velocity": 58}, {"time": 642, "pitch": 38, "duration": 33, "velocity": 66}, {"time": 642, "pitch": 53, "duration": 9, "velocity": 54}, {"time": 642, "pitch": 62, "duration": 9, "velocity": 62}, {"time": 648, "pitch": 50, "duration": 21, "velocity": 48}, {"time": 654, "pitch": 53, "duration": 13, "velocity": 48}, {"time": 660, "pitch": 58, "duration": 15, "velocity": 72}, {"time": 672, "pitch": 50, "duration": 6, "velocity": 40}, {"time": 678, "pitch": 60, "duration": 8, "velocity": 57}, {"time": 684, "pitch": 62, "duration": 5, "velocity": 57}, {"time": 690, "pitch": 36, "duration": 6, "velocity": 60}, {"time": 690, "pitch": 55, "duration": 14, "velocity": 56}, {"time": 690, "pitch": 58, "duration": 21, "velocity": 62}, {"time": 690, "pitch": 63, "duration": 20, "velocity": 72}, {"time": 696, "pitch": 48, "duration": 8, "velocity": 50}, {"time": 702, "pitch": 50, "duration": 9, "velocity": 63}, {"time": 708, "pitch": 51, "duration": 15, "velocity": 73}, {"time": 720, "pitch": 55, "duration": 6, "velocity": 57}, {"time": 726, "pitch": 58, "duration": 5, "velocity": 49}, {"time": 732, "pitch": 58, "duration": 13, "velocity": 37}, {"time": 732, "pitch": 63, "duration": 12, "velocity": 54}, {"time": 735, "pitch": 55, "duration": 10, "velocity": 22}, {"time": 738, "pitch": 41, "duration": 42, "velocity": 63}, {"time": 744, "pitch": 53, "duration": 37, "velocity": 49}, {"time": 750, "pitch": 55, "duration": 6, "velocity": 53}, {"time": 756, "pitch": 58, "duration": 4, "velocity": 61}, {"time": 768, "pitch": 63, "duration": 5, "velocity": 49}, {"time": 774, "pitch": 65, "duration": 6, "velocity": 49}, {"time": 780, "pitch": 70, "duration": 6, "velocity": 51}, {"time": 786, "pitch": 46, "duration": 10, "velocity": 34}, {"time": 786, "pitch": 72, "duration": 27, "velocity": 53}, {"time": 792, "pitch": 53, "duration": 6, "velocity": 52}, {"time": 798, "pitch": 58, "duration": 8, "velocity": 50}, {"time": 804, "pitch": 60, "duration": 19, "velocity": 66}, {"time": 810, "pitch": 62, "duration": 13, "velocity": 64}, {"time": 816, "pitch": 65, "duration": 8, "velocity": 50}, {"time": 822, "pitch": 70, "duration": 6, "velocity": 56}, {"time": 828, "pitch": 74, "duration": 8, "velocity": 62}, {"time": 834, "pitch": 45, "duration": 46, "velocity": 63}, {"time": 834, "pitch": 65, "duration": 7, "velocity": 56}, {"time": 834, "pitch": 72, "duration": 7, "velocity": 63}, {"time": 840, "pitch": 57, "duration": 18, "velocity": 54}, {"time": 846, "pitch": 60, "duration": 19, "velocity": 50}, {"time": 852, "pitch": 65, "duration": 15, "velocity": 64}, {"time": 864, "pitch": 57, "duration": 7, "velocity": 57}, {"time": 870, "pitch": 67, "duration": 7, "velocity": 61}, {"time": 876, "pitch": 69, "duration": 5, "velocity": 57}, {"time": 882, "pitch": 43, "duration": 35, "velocity": 62}, {"time": 882, "pitch": 62, "duration": 12, "velocity": 52}, {"time": 882, "pitch": 65, "duration": 13, "velocity": 55}, {"time": 882, "pitch": 70, "duration": 12, "velocity": 73}, {"time": 888, "pitch": 50, "duration": 28, "velocity": 55}, {"time": 894, "pitch": 55, "duration": 12, "velocity": 49}, {"time": 900, "pitch": 62, "duration": 12, "velocity": 50}, {"time": 900, "pitch": 65, "duration": 13, "velocity": 53}, {"time": 900, "pitch": 70, "duration": 13, "velocity": 54}, {"time": 912, "pitch": 55, "duration": 8, "velocity": 44}, {"time": 918, "pitch": 62, "duration": 4, "velocity": 55}, {"time": 918, "pitch": 65, "duration": 5, "velocity": 55}, {"time": 918, "pitch": 70, "duration": 11, "velocity": 67}, {"time": 930, "pitch": 50, "duration": 49, "velocity": 55}, {"time": 930, "pitch": 60, "duration": 7, "velocity": 52}, {"time": 930, "pitch": 65, "duration": 8, "velocity": 59}, {"time": 930, "pitch": 69, "duration": 7, "velocity": 53}, {"time": 936, "pitch": 57, "duration": 18, "velocity": 51}, {"time": 942, "pitch": 60, "duration": 16, "velocity": 49}, {"time": 948, "pitch": 65, "duration": 12, "velocity": 61}, {"time": 948, "pitch": 69, "duration": 12, "velocity": 57}, {"time": 960, "pitch": 57, "duration": 10, "velocity": 64}, {"time": 966, "pitch": 60, "duration": 6, "velocity": 47}, {"time": 966, "pitch": 65, "duration": 7, "velocity": 63}, {"time": 972, "pitch": 70, "duration": 6, "velocity": 51}, {"time": 978, "pitch": 51, "duration": 40, "velocity": 62}, {"time": 978, "pitch": 58, "duration": 15, "velocity": 61}, {"time": 978, "pitch": 63, "duration": 8, "velocity": 61}, {"time": 978, "pitch": 67, "duration": 9, "velocity": 63}, {"time": 990, "pitch": 63, "duration": 6, "velocity": 60}, {"time": 996, "pitch": 58, "duration": 9, "velocity": 61}, {"time": 996, "pitch": 65, "duration": 13, "velocity": 66}, {"time": 1008, "pitch": 58, "duration": 4, "velocity": 54}, {"time": 1014, "pitch": 63, "duration": 5, "velocity": 64}, {"time": 1020, "pitch": 67, "duration": 7, "velocity": 63}, {"time": 1026, "pitch": 50, "duration": 37, "velocity": 48}, {"time": 1026, "pitch": 58, "duration": 11, "velocity": 61}, {"time": 1026, "pitch": 65, "duration": 12, "velocity": 69}, {"time": 1038, "pitch": 58, "duration": 6, "velocity": 46}, {"time": 1044, "pitch": 58, "duration": 10, "velocity": 44}, {"time": 1044, "pitch": 62, "duration": 13, "velocity": 73}, {"time": 1056, "pitch": 65, "duration": 9, "velocity": 70}, {"time": 1062, "pitch": 67, "duration": 8, "velocity": 59}, {"time": 1068, "pitch": 70, "duration": 8, "velocity": 63}, {"time": 1074, "pitch": 48, "duration": 35, "velocity": 61}, {"time": 1074, "pitch": 58, "duration": 8, "velocity": 57}, {"time": 1074, "pitch": 63, "duration": 9, "velocity": 61}, {"time": 1074, "pitch": 67, "duration": 9, "velocity": 59}, {"time": 1080, "pitch": 55, "duration": 17, "velocity": 50}, {"time": 1086, "pitch": 58, "duration": 19, "velocity": 54}, {"time": 1092, "pitch": 63, "duration": 12, "velocity": 62}, {"time": 1092, "pitch": 67, "duration": 11, "velocity": 63}, {"time": 1104, "pitch": 55, "duration": 6, "velocity": 53}, {"time": 1110, "pitch": 58, "duration": 6, "velocity": 58}, {"time": 1110, "pitch": 63, "duration": 6, "velocity": 60}, {"time": 1110, "pitch": 67, "duration": 9, "velocity": 55}, {"time": 1122, "pitch": 41, "duration": 40, "velocity": 55}, {"time": 1122, "pitch": 58, "duration": 9, "velocity": 55}, {"time": 1122, "pitch": 63, "duration": 9, "velocity": 60}, {"time": 1122, "pitch": 67, "duration": 8, "velocity": 56}, {"time": 1122, "pitch": 70, "duration": 8, "velocity": 54}, {"time": 1128, "pitch": 48, "duration": 34, "velocity": 64}, {"time": 1134, "pitch": 53, "duration": 19, "velocity": 47}, {"time": 1140, "pitch": 58, "duration": 12, "velocity": 69}, {"time": 1152, "pitch": 60, "duration": 9, "velocity": 69}, {"time": 1158, "pitch": 53, "duration": 5, "velocity": 44}, {"time": 1164, "pitch": 63, "duration": 3, "velocity": 67}, {"time": 1170, "pitch": 34, "duration": 8, "velocity": 59}, {"time": 1170, "pitch": 46, "duration": 8, "velocity": 59}, {"time": 1170, "pitch": 53, "duration": 8, "velocity": 57}, {"time": 1170, "pitch": 58, "duration": 8, "velocity": 69}, {"time": 1170, "pitch": 62, "duration": 8, "velocity": 63}, {"time": 1170, "pitch": 65, "duration": 7, "velocity": 45}, {"time": 1179, "pitch": 34, "duration": 4, "velocity": 63}, {"time": 1179, "pitch": 46, "duration": 4, "velocity": 67}, {"time": 1179, "pitch": 53, "duration": 3, "velocity": 64}, {"time": 1179, "pitch": 58, "duration": 3, "velocity": 66}, {"time": 1179, "pitch": 62, "duration": 3, "velocity": 62}, {"time": 1188, "pitch": 34, "duration": 28, "velocity": 69}, {"time": 1188, "pitch": 46, "duration": 7, "velocity": 61}, {"time": 1188, "pitch": 53, "duration": 14, "velocity": 62}, {"time": 1188, "pitch": 58, "duration": 14, "velocity": 70}, {"time": 1188, "pitch": 62, "duration": 13, "velocity": 66}, {"time": 1188, "pitch": 65, "duration": 13, "velocity": 50}, {"time": 1200, "pitch": 46, "duration": 8, "velocity": 39}, {"time": 1206, "pitch": 53, "duration": 6, "velocity": 60}, {"time": 1206, "pitch": 58, "duration": 6, "velocity": 67}, {"time": 1206, "pitch": 62, "duration": 7, "velocity": 64}, {"time": 1212, "pitch": 46, "duration": 5, "velocity": 49}, {"time": 1218, "pitch": 41, "duration": 32, "velocity": 73}, {"time": 1218, "pitch": 57, "duration": 29, "velocity": 67}, {"time": 1218, "pitch": 60, "duration": 29, "velocity": 62}, {"time": 1218, "pitch": 65, "duration": 29, "velocity": 49}, {"time": 1266, "pitch": 46, "duration": 37, "velocity": 69}, {"time": 1266, "pitch": 62, "duration": 7, "velocity": 54}, {"time": 1266, "pitch": 70, "duration": 12, "velocity": 67}, {"time": 1272, "pitch": 53, "duration": 25, "velocity": 58}, {"time": 1278, "pitch": 60, "duration": 3, "velocity": 40}, {"time": 1278, "pitch": 69, "duration": 7, "velocity": 56}, {"time": 1284, "pitch": 58, "duration": 14, "velocity": 62}, {"time": 1284, "pitch": 62, "duration": 11, "velocity": 62}, {"time": 1284, "pitch": 70, "duration": 14, "velocity": 66}, {"time": 1296, "pitch": 65, "duration": 4, "velocity": 67}, {"time": 1302, "pitch": 53, "duration": 5, "velocity": 57}, {"time": 1308, "pitch": 60, "duration": 16, "velocity": 44}, {"time": 1308, "pitch": 65, "duration": 17, "velocity": 57}, {"time": 1308, "pitch": 69, "duration": 3, "velocity": 38}, {"time": 1308, "pitch": 72, "duration": 32, "velocity": 72}, {"time": 1314, "pitch": 45, "duration": 10, "velocity": 53}, {"time": 1320, "pitch": 53, "duration": 32, "velocity": 56}, {"time": 1326, "pitch": 57, "duration": 11, "velocity": 57}, {"time": 1332, "pitch": 60, "duration": 7, "velocity": 61}, {"time": 1338, "pitch": 65, "duration": 7, "velocity": 67}, {"time": 1344, "pitch": 67, "duration": 5, "velocity": 63}, {"time": 1350, "pitch": 57, "duration": 4, "velocity": 52}, {"time": 1350, "pitch": 69, "duration": 6, "velocity": 66}, {"time": 1356, "pitch": 72, "duration": 3, "velocity": 61}, {"time": 1359, "pitch": 69, "duration": 3, "velocity": 34}, {"time": 1362, "pitch": 43, "duration": 33, "velocity": 70}, {"time": 1362, "pitch": 62, "duration": 7, "velocity": 62}, {"time": 1362, "pitch": 65, "duration": 9, "velocity": 70}, {"time": 1362, "pitch": 70, "duration": 12, "velocity": 62}, {"time": 1368, "pitch": 50, "duration": 14, "velocity": 51}, {"time": 1374, "pitch": 60, "duration": 3, "velocity": 46}, {"time": 1374, "pitch": 69, "duration": 6, "velocity": 61}, {"time": 1380, "pitch": 55, "duration": 16, "velocity": 60}, {"time": 1380, "pitch": 65, "duration": 3, "velocity": 59}, {"time": 1380, "pitch": 70, "duration": 4, "velocity": 72}, {"time": 1392, "pitch": 50, "duration": 4, "velocity": 75}, {"time": 1398, "pitch": 65, "duration": 5, "velocity": 72}, {"time": 1401, "pitch": 70, "duration": 6, "velocity": 62}, {"time": 1404, "pitch": 72, "duration": 6, "velocity": 58}, {"time": 1410, "pitch": 50, "duration": 39, "velocity": 64}, {"time": 1410, "pitch": 65, "duration": 14, "velocity": 48}, {"time": 1410, "pitch": 74, "duration": 2, "velocity": 29}, {"time": 1410, "pitch": 77, "duration": 14, "velocity": 53}, {"time": 1416, "pitch": 57, "duration": 26, "velocity": 57}, {"time": 1422, "pitch": 62, "duration": 20, "velocity": 69}, {"time": 1428, "pitch": 65, "duration": 9, "velocity": 50}, {"time": 1428, "pitch": 72, "duration": 7, "velocity": 64}, {"time": 1440, "pitch": 70, "duration": 7, "velocity": 70}, {"time": 1446, "pitch": 57, "duration": 4, "velocity": 57}, {"time": 1446, "pitch": 69, "duration": 3, "velocity": 61}, {"time": 1452, "pitch": 65, "duration": 5, "velocity": 61}, {"time": 1458, "pitch": 51, "duration": 40, "velocity": 50}, {"time": 1458, "pitch": 58, "duration": 9, "velocity": 60}, {"time": 1458, "pitch": 63, "duration": 9, "velocity": 63}, {"time": 1458, "pitch": 67, "duration": 9, "velocity": 69}, {"time": 1464, "pitch": 55, "duration": 19, "velocity": 70}, {"time": 1470, "pitch": 58, "duration": 5, "velocity": 63}, {"time": 1476, "pitch": 58, "duration": 14, "velocity": 61}, {"time": 1476, "pitch": 63, "duration": 15, "velocity": 78}, {"time": 1488, "pitch": 55, "duration": 7, "velocity": 69}, {"time": 1494, "pitch": 65, "duration": 6, "velocity": 72}, {"time": 1500, "pitch": 70, "duration": 4, "velocity": 54}, {"time": 1506, "pitch": 50, "duration": 41, "velocity": 69}, {"time": 1506, "pitch": 62, "duration": 8, "velocity": 62}, {"time": 1506, "pitch": 65, "duration": 9, "velocity": 69}, {"time": 1506, "pitch": 70, "duration": 9, "velocity": 52}, {"time": 1512, "pitch": 58, "duration": 34, "velocity": 56}, {"time": 1518, "pitch": 62, "duration": 12, "velocity": 61}, {"time": 1524, "pitch": 65, "duration": 8, "velocity": 72}, {"time": 1530, "pitch": 70, "duration": 7, "velocity": 66}, {"time": 1536, "pitch": 74, "duration": 6, "velocity": 56}, {"time": 1542, "pitch": 62, "duration": 3, "velocity": 56}, {"time": 1542, "pitch": 77, "duration": 7, "velocity": 62}, {"time": 1548, "pitch": 75, "duration": 4, "velocity": 70}, {"time": 1554, "pitch": 48, "duration": 11, "velocity": 67}, {"time": 1554, "pitch": 75, "duration": 13, "velocity": 63}, {"time": 1560, "pitch": 55, "duration": 6, "velocity": 56}, {"time": 1566, "pitch": 60, "duration": 8, "velocity": 54}, {"time": 1566, "pitch": 67, "duration": 4, "velocity": 52}, {"time": 1566, "pitch": 74, "duration": 6, "velocity": 56}, {"time": 1572, "pitch": 62, "duration": 15, "velocity": 66}, {"time": 1572, "pitch": 67, "duration": 8, "velocity": 61}, {"time": 1572, "pitch": 75, "duration": 10, "velocity": 62}, {"time": 1578, "pitch": 63, "duration": 8, "velocity": 70}, {"time": 1584, "pitch": 67, "duration": 3, "velocity": 51}, {"time": 1584, "pitch": 74, "duration": 6, "velocity": 66}, {"time": 1584, "pitch": 75, "duration": 2, "velocity": 45}, {"time": 1590, "pitch": 70, "duration": 6, "velocity": 60}, {"time": 1596, "pitch": 65, "duration": 14, "velocity": 64}, {"time": 1602, "pitch": 41, "duration": 39, "velocity": 69}, {"time": 1602, "pitch": 72, "duration": 7, "velocity": 67}, {"time": 1608, "pitch": 48, "duration": 34, "velocity": 69}, {"time": 1614, "pitch": 53, "duration": 33, "velocity": 64}, {"time": 1620, "pitch": 58, "duration": 3, "velocity": 59}, {"time": 1623, "pitch": 60, "duration": 2, "velocity": 61}, {"time": 1626, "pitch": 63, "duration": 4, "velocity": 85}, {"time": 1629, "pitch": 65, "duration": 3, "velocity": 69}, {"time": 1632, "pitch": 67, "duration": 2, "velocity": 66}, {"time": 1635, "pitch": 70, "duration": 6, "velocity": 82}, {"time": 1638, "pitch": 72, "duration": 5, "velocity": 66}, {"time": 1641, "pitch": 74, "duration": 8, "velocity": 61}, {"time": 1644, "pitch": 75, "duration": 7, "velocity": 63}, {"time": 1647, "pitch": 77, "duration": 2, "velocity": 56}, {"time": 1650, "pitch": 46, "duration": 41, "velocity": 70}, {"time": 1650, "pitch": 77, "duration": 8, "velocity": 75}, {"time": 1656, "pitch": 53, "duration": 38, "velocity": 64}, {"time": 1662, "pitch": 58, "duration": 20, "velocity": 66}, {"time": 1668, "pitch": 62, "duration": 4, "velocity": 69}, {"time": 1668, "pitch": 65, "duration": 4, "velocity": 67}, {"time": 1668, "pitch": 70, "duration": 8, "velocity": 76}, {"time": 1674, "pitch": 60, "duration": 5, "velocity": 61}, {"time": 1674, "pitch": 69, "duration": 8, "velocity": 64}, {"time": 1680, "pitch": 65, "duration": 7, "velocity": 69}, {"time": 1686, "pitch": 58, "duration": 5, "velocity": 59}, {"time": 1686, "pitch": 70, "duration": 10, "velocity": 60}, {"time": 1692, "pitch": 60, "duration": 15, "velocity": 59}, {"time": 1692, "pitch": 65, "duration": 16, "velocity": 66}, {"time": 1698, "pitch": 45, "duration": 40, "velocity": 72}, {"time": 1704, "pitch": 53, "duration": 34, "velocity": 67}, {"time": 1710, "pitch": 57, "duration": 15, "velocity": 63}, {"time": 1716, "pitch": 60, "duration": 4, "velocity": 63}, {"time": 1722, "pitch": 65, "duration": 7, "velocity": 59}, {"time": 1728, "pitch": 67, "duration": 6, "velocity": 69}, {"time": 1734, "pitch": 57, "duration": 4, "velocity": 57}, {"time": 1734, "pitch": 69, "duration": 6, "velocity": 76}, {"time": 1740, "pitch": 72, "duration": 6, "velocity": 62}, {"time": 1746, "pitch": 43, "duration": 40, "velocity": 69}, {"time": 1746, "pitch": 70, "duration": 9, "velocity": 70}, {"time": 1752, "pitch": 50, "duration": 34, "velocity": 67}, {"time": 1758, "pitch": 55, "duration": 8, "velocity": 58}, {"time": 1764, "pitch": 62, "duration": 4, "velocity": 60}, {"time": 1764, "pitch": 70, "duration": 10, "velocity": 75}, {"time": 1770, "pitch": 60, "duration": 3, "velocity": 46}, {"time": 1770, "pitch": 69, "duration": 6, "velocity": 54}, {"time": 1776, "pitch": 60, "duration": 8, "velocity": 61}, {"time": 1776, "pitch": 65, "duration": 9, "velocity": 66}, {"time": 1782, "pitch": 55, "duration": 3, "velocity": 63}, {"time": 1788, "pitch": 60, "duration": 4, "velocity": 60}, {"time": 1794, "pitch": 38, "duration": 6, "velocity": 70}, {"time": 1794, "pitch": 60, "duration": 19, "velocity": 63}, {"time": 1794, "pitch": 65, "duration": 19, "velocity": 66}, {"time": 1794, "pitch": 69, "duration": 16, "velocity": 52}, {"time": 1800, "pitch": 50, "duration": 8, "velocity": 59}, {"time": 1806, "pitch": 53, "duration": 26, "velocity": 61}, {"time": 1812, "pitch": 57, "duration": 10, "velocity": 80}, {"time": 1818, "pitch": 60, "duration": 8, "velocity": 58}, {"time": 1818, "pitch": 65, "duration": 8, "velocity": 66}, {"time": 1824, "pitch": 57, "duration": 5, "velocity": 55}, {"time": 1830, "pitch": 60, "duration": 7, "velocity": 67}, {"time": 1836, "pitch": 65, "duration": 5, "velocity": 59}, {"time": 1842, "pitch": 39, "duration": 42, "velocity": 70}, {"time": 1842, "pitch": 55, "duration": 12, "velocity": 66}, {"time": 1842, "pitch": 58, "duration": 13, "velocity": 72}, {"time": 1842, "pitch": 62, "duration": 14, "velocity": 64}, {"time": 1848, "pitch": 46, "duration": 29, "velocity": 67}, {"time": 1854, "pitch": 51, "duration": 12, "velocity": 63}, {"time": 1860, "pitch": 55, "duration": 14, "velocity": 64}, {"time": 1860, "pitch": 58, "duration": 13, "velocity": 72}, {"time": 1860, "pitch": 63, "duration": 14, "velocity": 72}, {"time": 1872, "pitch": 51, "duration": 8, "velocity": 49}, {"time": 1878, "pitch": 55, "duration": 6, "velocity": 67}, {"time": 1878, "pitch": 58, "duration": 6, "velocity": 72}, {"time": 1878, "pitch": 63, "duration": 5, "velocity": 78}, {"time": 1884, "pitch": 46, "duration": 6, "velocity": 41}, {"time": 1890, "pitch": 38, "duration": 32, "velocity": 66}, {"time": 1890, "pitch": 58, "duration": 10, "velocity": 72}, {"time": 1890, "pitch": 62, "duration": 9, "velocity": 70}, {"time": 1890, "pitch": 65, "duration": 15, "velocity": 66}, {"time": 1896, "pitch": 50, "duration": 19, "velocity": 62}, {"time": 1902, "pitch": 53, "duration": 20, "velocity": 69}, {"time": 1908, "pitch": 58, "duration": 15, "velocity": 75}, {"time": 1908, "pitch": 65, "duration": 13, "velocity": 35}, {"time": 1920, "pitch": 50, "duration": 6, "velocity": 61}, {"time": 1926, "pitch": 60, "duration": 7, "velocity": 72}, {"time": 1932, "pitch": 62, "duration": 6, "velocity": 63}, {"time": 1938, "pitch": 48, "duration": 41, "velocity": 67}, {"time": 1938, "pitch": 58, "duration": 7, "velocity": 72}, {"time": 1938, "pitch": 63, "duration": 9, "velocity": 64}, {"time": 1944, "pitch": 55, "duration": 34, "velocity": 52}, {"time": 1950, "pitch": 58, "duration": 14, "velocity": 63}, {"time": 1956, "pitch": 63, "duration": 7, "velocity": 69}, {"time": 1962, "pitch": 67, "duration": 6, "velocity": 59}, {"time": 1968, "pitch": 70, "duration": 8, "velocity": 63}, {"time": 1974, "pitch": 60, "duration": 4, "velocity": 56}, {"time": 1974, "pitch": 69, "duration": 7, "velocity": 75}, {"time": 1980, "pitch": 63, "duration": 7, "velocity": 63}, {"time": 1986, "pitch": 41, "duration": 81, "velocity": 66}, {"time": 1986, "pitch": 65, "duration": 8, "velocity": 67}, {"time": 1992, "pitch": 48, "duration": 75, "velocity": 67}, {"time": 1998, "pitch": 53, "duration": 30, "velocity": 78}, {"time": 2004, "pitch": 58, "duration": 7, "velocity": 69}, {"time": 2010, "pitch": 60, "duration": 4, "velocity": 56}, {"time": 2016, "pitch": 63, "duration": 4, "velocity": 61}, {"time": 2016, "pitch": 65, "duration": 3, "velocity": 63}, {"time": 2022, "pitch": 65, "duration": 6, "velocity": 59}, {"time": 2028, "pitch": 70, "duration": 8, "velocity": 64}, {"time": 2034, "pitch": 53, "duration": 14, "velocity": 53}, {"time": 2034, "pitch": 60, "duration": 15, "velocity": 62}, {"time": 2034, "pitch": 69, "duration": 17, "velocity": 57}, {"time": 2052, "pitch": 60, "duration": 8, "velocity": 64}, {"time": 2052, "pitch": 65, "duration": 9, "velocity": 66}, {"time": 2058, "pitch": 53, "duration": 8, "velocity": 50}, {"time": 2064, "pitch": 60, "duration": 4, "velocity": 49}, {"time": 2070, "pitch": 65, "duration": 4, "velocity": 51}, {"time": 2082, "pitch": 46, "duration": 44, "velocity": 69}, {"time": 2082, "pitch": 58, "duration": 7, "velocity": 56}, {"time": 2082, "pitch": 63, "duration": 8, "velocity": 58}, {"time": 2082, "pitch": 67, "duration": 7, "velocity": 45}, {"time": 2088, "pitch": 53, "duration": 17, "velocity": 54}, {"time": 2094, "pitch": 58, "duration": 4, "velocity": 52}, {"time": 2100, "pitch": 58, "duration": 10, "velocity": 59}, {"time": 2100, "pitch": 62, "duration": 11, "velocity": 60}, {"time": 2100, "pitch": 65, "duration": 13, "velocity": 63}, {"time": 2112, "pitch": 53, "duration": 8, "velocity": 63}, {"time": 2118, "pitch": 58, "duration": 5, "velocity": 50}, {"time": 2118, "pitch": 63, "duration": 6, "velocity": 53}, {"time": 2118, "pitch": 67, "duration": 9, "velocity": 61}, {"time": 2124, "pitch": 53, "duration": 3, "velocity": 54}, {"time": 2130, "pitch": 46, "duration": 4, "velocity": 66}, {"time": 2130, "pitch": 58, "duration": 3, "velocity": 62}, {"time": 2130, "pitch": 62, "duration": 3, "velocity": 72}, {"time": 2130, "pitch": 65, "duration": 3, "velocity": 73}, {"time": 2178, "pitch": 46, "duration": 37, "velocity": 62}, {"time": 2178, "pitch": 58, "duration": 36, "velocity": 57}, {"time": 2178, "pitch": 62, "duration": 8, "velocity": 69}, {"time": 2178, "pitch": 65, "duration": 10, "velocity": 72}, {"time": 2178, "pitch": 70, "duration": 11, "velocity": 73}, {"time": 2196, "pitch": 60, "duration": 9, "velocity": 56}, {"time": 2196, "pitch": 65, "duration": 13, "velocity": 58}, {"time": 2196, "pitch": 69, "duration": 13, "velocity": 58}, {"time": 2214, "pitch": 62, "duration": 3, "velocity": 59}, {"time": 2214, "pitch": 65, "duration": 3, "velocity": 69}, {"time": 2214, "pitch": 70, "duration": 4, "velocity": 75}, {"time": 2226, "pitch": 45, "duration": 39, "velocity": 54}, {"time": 2226, "pitch": 57, "duration": 32, "velocity": 49}, {"time": 2226, "pitch": 60, "duration": 9, "velocity": 61}, {"time": 2226, "pitch": 65, "duration": 9, "velocity": 64}, {"time": 2226, "pitch": 69, "duration": 10, "velocity": 67}, {"time": 2226, "pitch": 72, "duration": 10, "velocity": 52}, {"time": 2244, "pitch": 65, "duration": 15, "velocity": 63}, {"time": 2256, "pitch": 72, "duration": 5, "velocity": 69}, {"time": 2262, "pitch": 57, "duration": 4, "velocity": 40}, {"time": 2274, "pitch": 43, "duration": 40, "velocity": 62}, {"time": 2274, "pitch": 55, "duration": 22, "velocity": 55}, {"time": 2274, "pitch": 58, "duration": 11, "velocity": 55}, {"time": 2274, "pitch": 62, "duration": 11, "velocity": 55}, {"time": 2274, "pitch": 65, "duration": 10, "velocity": 53}, {"time": 2286, "pitch": 58, "duration": 5, "velocity": 55}, {"time": 2292, "pitch": 58, "duration": 12, "velocity": 56}, {"time": 2292, "pitch": 62, "duration": 12, "velocity": 72}, {"time": 2292, "pitch": 65, "duration": 11, "velocity": 70}, {"time": 2304, "pitch": 55, "duration": 7, "velocity": 52}, {"time": 2310, "pitch": 58, "duration": 3, "velocity": 72}, {"time": 2310, "pitch": 65, "duration": 3, "velocity": 70}, {"time": 2322, "pitch": 38, "duration": 7, "velocity": 66}, {"time": 2322, "pitch": 57, "duration": 14, "velocity": 63}, {"time": 2322, "pitch": 60, "duration": 11, "velocity": 50}, {"time": 2322, "pitch": 65, "duration": 20, "velocity": 67}, {"time": 2328, "pitch": 50, "duration": 8, "velocity": 62}, {"time": 2334, "pitch": 53, "duration": 26, "velocity": 55}, {"time": 2340, "pitch": 57, "duration": 13, "velocity": 64}, {"time": 2352, "pitch": 60, "duration": 9, "velocity": 67}, {"time": 2352, "pitch": 65, "duration": 8, "velocity": 70}, {"time": 2358, "pitch": 57, "duration": 2, "velocity": 67}, {"time": 2364, "pitch": 62, "duration": 5, "velocity": 64}, {"time": 2370, "pitch": 39, "duration": 40, "velocity": 66}, {"time": 2370, "pitch": 55, "duration": 14, "velocity": 62}, {"time": 2370, "pitch": 58, "duration": 14, "velocity": 61}, {"time": 2370, "pitch": 63, "duration": 14, "velocity": 72}, {"time": 2376, "pitch": 46, "duration": 33, "velocity": 63}, {"time": 2382, "pitch": 51, "duration": 19, "velocity": 69}, {"time": 2388, "pitch": 55, "duration": 10, "velocity": 59}, {"time": 2400, "pitch": 58, "duration": 8, "velocity": 75}, {"time": 2400, "pitch": 63, "duration": 8, "velocity": 75}, {"time": 2406, "pitch": 51, "duration": 3, "velocity": 59}, {"time": 2418, "pitch": 38, "duration": 39, "velocity": 69}, {"time": 2418, "pitch": 53, "duration": 9, "velocity": 66}, {"time": 2418, "pitch": 58, "duration": 9, "velocity": 73}, {"time": 2418, "pitch": 62, "duration": 9, "velocity": 62}, {"time": 2418, "pitch": 65, "duration": 10, "velocity": 60}, {"time": 2424, "pitch": 50, "duration": 19, "velocity": 53}, {"time": 2430, "pitch": 53, "duration": 8, "velocity": 49}, {"time": 2430, "pitch": 65, "duration": 4, "velocity": 29}, {"time": 2436, "pitch": 58, "duration": 13, "velocity": 80}, {"time": 2448, "pitch": 50, "duration": 7, "velocity": 48}, {"time": 2454, "pitch": 62, "duration": 7, "velocity": 63}, {"time": 2460, "pitch": 63, "duration": 4, "velocity": 48}, {"time": 2466, "pitch": 36, "duration": 32, "velocity": 72}, {"time": 2466, "pitch": 55, "duration": 9, "velocity": 63}, {"time": 2466, "pitch": 58, "duration": 9, "velocity": 66}, {"time": 2466, "pitch": 63, "duration": 8, "velocity": 69}, {"time": 2472, "pitch": 48, "duration": 14, "velocity": 49}, {"time": 2478, "pitch": 55, "duration": 5, "velocity": 58}, {"time": 2484, "pitch": 55, "duration": 11, "velocity": 61}, {"time": 2484, "pitch": 58, "duration": 13, "velocity": 67}, {"time": 2484, "pitch": 63, "duration": 11, "velocity": 73}, {"time": 2496, "pitch": 48, "duration": 4, "velocity": 61}, {"time": 2502, "pitch": 55, "duration": 4, "velocity": 56}, {"time": 2508, "pitch": 58, "duration": 3, "velocity": 82}, {"time": 2520, "pitch": 41, "duration": 4, "velocity": 69}, {"time": 2520, "pitch": 53, "duration": 4, "velocity": 75}, {"time": 2520, "pitch": 55, "duration": 3, "velocity": 63}, {"time": 2520, "pitch": 58, "duration": 3, "velocity": 72}, {"time": 2520, "pitch": 63, "duration": 3, "velocity": 73}, {"time": 2532, "pitch": 41, "duration": 21, "velocity": 72}, {"time": 2532, "pitch": 53, "duration": 8, "velocity": 70}, {"time": 2532, "pitch": 55, "duration": 14, "velocity": 70}, {"time": 2532, "pitch": 58, "duration": 15, "velocity": 75}, {"time": 2532, "pitch": 63, "duration": 14, "velocity": 75}, {"time": 2544, "pitch": 53, "duration": 8, "velocity": 62}, {"time": 2550, "pitch": 57, "duration": 6, "velocity": 67}, {"time": 2550, "pitch": 60, "duration": 7, "velocity": 66}, {"time": 2550, "pitch": 65, "duration": 8, "velocity": 66}, {"time": 2562, "pitch": 34, "duration": 14, "velocity": 69}, {"time": 2562, "pitch": 46, "duration": 14, "velocity": 67}, {"time": 2562, "pitch": 53, "duration": 8, "velocity": 59}, {"time": 2562, "pitch": 58, "duration": 8, "velocity": 70}, {"time": 2562, "pitch": 62, "duration": 8, "velocity": 67}, {"time": 2574, "pitch": 53, "duration": 12, "velocity": 64}, {"time": 2574, "pitch": 58, "duration": 12, "velocity": 67}, {"time": 2574, "pitch": 62, "duration": 11, "velocity": 67}, {"time": 2580, "pitch": 34, "duration": 18, "velocity": 51}, {"time": 2580, "pitch": 46, "duration": 20, "velocity": 47}, {"time": 2592, "pitch": 53, "duration": 7, "velocity": 69}, {"time": 2592, "pitch": 60, "duration": 6, "velocity": 73}, {"time": 2598, "pitch": 62, "duration": 7, "velocity": 67}, {"time": 2604, "pitch": 65, "duration": 5, "velocity": 59}, {"time": 2610, "pitch": 45, "duration": 40, "velocity": 46}, {"time": 2610, "pitch": 46, "duration": 6, "velocity": 47}, {"time": 2610, "pitch": 57, "duration": 8, "velocity": 61}, {"time": 2610, "pitch": 60, "duration": 9, "velocity": 67}, {"time": 2610, "pitch": 65, "duration": 9, "velocity": 51}, {"time": 2616, "pitch": 53, "duration": 16, "velocity": 49}, {"time": 2622, "pitch": 57, "duration": 4, "velocity": 56}, {"time": 2628, "pitch": 57, "duration": 14, "velocity": 64}, {"time": 2628, "pitch": 60, "duration": 13, "velocity": 69}, {"time": 2628, "pitch": 65, "duration": 12, "velocity": 73}, {"time": 2640, "pitch": 53, "duration": 8, "velocity": 58}, {"time": 2646, "pitch": 57, "duration": 6, "velocity": 73}, {"time": 2646, "pitch": 60, "duration": 6, "velocity": 64}, {"time": 2646, "pitch": 65, "duration": 5, "velocity": 66}, {"time": 2652, "pitch": 65, "duration": 9, "velocity": 57}, {"time": 2658, "pitch": 43, "duration": 42, "velocity": 66}, {"time": 2658, "pitch": 58, "duration": 8, "velocity": 70}, {"time": 2658, "pitch": 62, "duration": 7, "velocity": 75}, {"time": 2664, "pitch": 55, "duration": 17, "velocity": 55}, {"time": 2670, "pitch": 57, "duration": 5, "velocity": 47}, {"time": 2676, "pitch": 58, "duration": 12, "velocity": 73}, {"time": 2676, "pitch": 62, "duration": 11, "velocity": 76}, {"time": 2688, "pitch": 55, "duration": 10, "velocity": 50}, {"time": 2694, "pitch": 57, "duration": 6, "velocity": 64}, {"time": 2694, "pitch": 65, "duration": 9, "velocity": 72}, {"time": 2700, "pitch": 62, "duration": 5, "velocity": 64}, {"time": 2706, "pitch": 38, "duration": 38, "velocity": 53}, {"time": 2706, "pitch": 57, "duration": 8, "velocity": 62}, {"time": 2706, "pitch": 62, "duration": 8, "velocity": 55}, {"time": 2712, "pitch": 50, "duration": 17, "velocity": 67}, {"time": 2718, "pitch": 57, "duration": 5, "velocity": 63}, {"time": 2724, "pitch": 57, "duration": 3, "velocity": 70}, {"time": 2724, "pitch": 62, "duration": 4, "velocity": 76}, {"time": 2736, "pitch": 50, "duration": 11, "velocity": 54}, {"time": 2742, "pitch": 62, "duration": 4, "velocity": 70}, {"time": 2748, "pitch": 70, "duration": 8, "velocity": 50}, {"time": 2754, "pitch": 39, "duration": 38, "velocity": 66}, {"time": 2754, "pitch": 58, "duration": 8, "velocity": 72}, {"time": 2754, "pitch": 63, "duration": 8, "velocity": 72}, {"time": 2754, "pitch": 67, "duration": 10, "velocity": 73}, {"time": 2760, "pitch": 51, "duration": 16, "velocity": 54}, {"time": 2766, "pitch": 58, "duration": 3, "velocity": 58}, {"time": 2766, "pitch": 65, "duration": 6, "velocity": 63}, {"time": 2772, "pitch": 58, "duration": 13, "velocity": 72}, {"time": 2772, "pitch": 63, "duration": 13, "velocity": 67}, {"time": 2772, "pitch": 67, "duration": 12, "velocity": 72}, {"time": 2784, "pitch": 51, "duration": 7, "velocity": 58}, {"time": 2790, "pitch": 58, "duration": 5, "velocity": 59}, {"time": 2796, "pitch": 67, "duration": 5, "velocity": 52}, {"time": 2802, "pitch": 38, "duration": 40, "velocity": 70}, {"time": 2802, "pitch": 58, "duration": 9, "velocity": 73}, {"time": 2802, "pitch": 62, "duration": 9, "velocity": 64}, {"time": 2802, "pitch": 65, "duration": 9, "velocity": 63}, {"time": 2808, "pitch": 50, "duration": 16, "velocity": 54}, {"time": 2814, "pitch": 58, "duration": 4, "velocity": 51}, {"time": 2820, "pitch": 58, "duration": 14, "velocity": 72}, {"time": 2820, "pitch": 62, "duration": 14, "velocity": 63}, {"time": 2820, "pitch": 65, "duration": 13, "velocity": 62}, {"time": 2832, "pitch": 50, "duration": 8, "velocity": 56}, {"time": 2838, "pitch": 58, "duration": 5, "velocity": 72}, {"time": 2844, "pitch": 65, "duration": 5, "velocity": 64}, {"time": 2850, "pitch": 36, "duration": 37, "velocity": 72}, {"time": 2850, "pitch": 58, "duration": 8, "velocity": 69}, {"time": 2850, "pitch": 63, "duration": 8, "velocity": 60}, {"time": 2850, "pitch": 67, "duration": 8, "velocity": 75}, {"time": 2856, "pitch": 48, "duration": 26, "velocity": 50}, {"time": 2862, "pitch": 58, "duration": 5, "velocity": 61}, {"time": 2868, "pitch": 63, "duration": 4, "velocity": 59}, {"time": 2880, "pitch": 58, "duration": 5, "velocity": 80}, {"time": 2880, "pitch": 63, "duration": 6, "velocity": 93}, {"time": 2880, "pitch": 67, "duration": 7, "velocity": 76}, {"time": 2886, "pitch": 48, "duration": 3, "velocity": 64}, {"time": 2898, "pitch": 41, "duration": 7, "velocity": 70}, {"time": 2898, "pitch": 53, "duration": 7, "velocity": 76}, {"time": 2898, "pitch": 55, "duration": 8, "velocity": 69}, {"time": 2898, "pitch": 58, "duration": 7, "velocity": 76}, {"time": 2898, "pitch": 63, "duration": 7, "velocity": 73}, {"time": 2908, "pitch": 41, "duration": 2, "velocity": 64}, {"time": 2908, "pitch": 53, "duration": 2, "velocity": 67}, {"time": 2908, "pitch": 55, "duration": 2, "velocity": 73}, {"time": 2908, "pitch": 58, "duration": 1, "velocity": 70}, {"time": 2908, "pitch": 63, "duration": 2, "velocity": 76}, {"time": 2916, "pitch": 41, "duration": 25, "velocity": 66}, {"time": 2916, "pitch": 53, "duration": 8, "velocity": 63}, {"time": 2916, "pitch": 57, "duration": 15, "velocity": 72}, {"time": 2916, "pitch": 60, "duration": 15, "velocity": 73}, {"time": 2916, "pitch": 65, "duration": 14, "velocity": 73}, {"time": 2928, "pitch": 53, "duration": 9, "velocity": 53}, {"time": 2934, "pitch": 57, "duration": 3, "velocity": 70}, {"time": 2934, "pitch": 60, "duration": 3, "velocity": 75}, {"time": 2934, "pitch": 65, "duration": 4, "velocity": 72}, {"time": 2940, "pitch": 48, "duration": 8, "velocity": 66}, {"time": 2946, "pitch": 46, "duration": 6, "velocity": 52}, {"time": 2946, "pitch": 58, "duration": 6, "velocity": 49}, {"time": 2946, "pitch": 62, "duration": 6, "velocity": 64}, {"time": 2946, "pitch": 65, "duration": 6, "velocity": 73}, {"time": 2946, "pitch": 70, "duration": 7, "velocity": 66}, {"time": 2970, "pitch": 41, "duration": 17, "velocity": 50}, {"time": 2970, "pitch": 53, "duration": 17, "velocity": 58}, {"time": 2970, "pitch": 60, "duration": 19, "velocity": 62}, {"time": 2970, "pitch": 65, "duration": 22, "velocity": 67}, {"time": 2970, "pitch": 69, "duration": 22, "velocity": 69}, {"time": 2994, "pitch": 46, "duration": 37, "velocity": 45}, {"time": 2994, "pitch": 62, "duration": 9, "velocity": 57}, {"time": 2994, "pitch": 65, "duration": 9, "velocity": 50}, {"time": 2994, "pitch": 70, "duration": 9, "velocity": 70}, {"time": 3000, "pitch": 53, "duration": 17, "velocity": 66}, {"time": 3006, "pitch": 60, "duration": 4, "velocity": 61}, {"time": 3006, "pitch": 69, "duration": 7, "velocity": 63}, {"time": 3012, "pitch": 58, "duration": 18, "velocity": 58}, {"time": 3012, "pitch": 62, "duration": 13, "velocity": 69}, {"time": 3012, "pitch": 70, "duration": 13, "velocity": 69}, {"time": 3024, "pitch": 53, "duration": 12, "velocity": 59}, {"time": 3030, "pitch": 65, "duration": 5, "velocity": 66}, {"time": 3036, "pitch": 72, "duration": 18, "velocity": 63}, {"time": 3042, "pitch": 45, "duration": 41, "velocity": 62}, {"time": 3042, "pitch": 60, "duration": 13, "velocity": 57}, {"time": 3042, "pitch": 65, "duration": 13, "velocity": 66}, {"time": 3048, "pitch": 53, "duration": 34, "velocity": 52}, {"time": 3054, "pitch": 57, "duration": 18, "velocity": 59}, {"time": 3060, "pitch": 60, "duration": 7, "velocity": 64}, {"time": 3066, "pitch": 65, "duration": 7, "velocity": 57}, {"time": 3072, "pitch": 67, "duration": 5, "velocity": 64}, {"time": 3078, "pitch": 57, "duration": 3, "velocity": 52}, {"time": 3078, "pitch": 69, "duration": 11, "velocity": 59}, {"time": 3084, "pitch": 72, "duration": 3, "velocity": 56}, {"time": 3090, "pitch": 43, "duration": 32, "velocity": 63}, {"time": 3090, "pitch": 62, "duration": 8, "velocity": 63}, {"time": 3090, "pitch": 65, "duration": 10, "velocity": 63}, {"time": 3090, "pitch": 70, "duration": 14, "velocity": 70}, {"time": 3096, "pitch": 50, "duration": 15, "velocity": 38}, {"time": 3102, "pitch": 60, "duration": 3, "velocity": 49}, {"time": 3102, "pitch": 69, "duration": 6, "velocity": 61}, {"time": 3108, "pitch": 55, "duration": 14, "velocity": 57}, {"time": 3108, "pitch": 62, "duration": 10, "velocity": 61}, {"time": 3108, "pitch": 70, "duration": 12, "velocity": 61}, {"time": 3114, "pitch": 65, "duration": 6, "velocity": 17}, {"time": 3120, "pitch": 50, "duration": 4, "velocity": 58}, {"time": 3126, "pitch": 62, "duration": 6, "velocity": 58}, {"time": 3132, "pitch": 70, "duration": 5, "velocity": 60}, {"time": 3138, "pitch": 50, "duration": 37, "velocity": 61}, {"time": 3138, "pitch": 69, "duration": 13, "velocity": 62}, {"time": 3144, "pitch": 57, "duration": 17, "velocity": 62}, {"time": 3150, "pitch": 62, "duration": 16, "velocity": 62}, {"time": 3156, "pitch": 65, "duration": 16, "velocity": 63}, {"time": 3168, "pitch": 57, "duration": 6, "velocity": 62}, {"time": 3174, "pitch": 60, "duration": 6, "velocity": 55}, {"time": 3180, "pitch": 65, "duration": 5, "velocity": 60}, {"time": 3186, "pitch": 39, "duration": 43, "velocity": 72}, {"time": 3186, "pitch": 58, "duration": 31, "velocity": 69}, {"time": 3186, "pitch": 62, "duration": 3, "velocity": 50}, {"time": 3192, "pitch": 46, "duration": 21, "velocity": 72}, {"time": 3198, "pitch": 51, "duration": 12, "velocity": 60}, {"time": 3204, "pitch": 55, "duration": 13, "velocity": 64}, {"time": 3204, "pitch": 63, "duration": 12, "velocity": 75}, {"time": 3216, "pitch": 46, "duration": 6, "velocity": 33}, {"time": 3216, "pitch": 51, "duration": 10, "velocity": 57}, {"time": 3222, "pitch": 55, "duration": 7, "velocity": 62}, {"time": 3228, "pitch": 46, "duration": 7, "velocity": 69}, {"time": 3228, "pitch": 63, "duration": 7, "velocity": 72}, {"time": 3234, "pitch": 38, "duration": 33, "velocity": 69}, {"time": 3234, "pitch": 53, "duration": 14, "velocity": 64}, {"time": 3234, "pitch": 58, "duration": 14, "velocity": 66}, {"time": 3234, "pitch": 62, "duration": 12, "velocity": 72}, {"time": 3240, "pitch": 46, "duration": 28, "velocity": 61}, {"time": 3246, "pitch": 50, "duration": 24, "velocity": 67}, {"time": 3252, "pitch": 53, "duration": 5, "velocity": 70}, {"time": 3258, "pitch": 58, "duration": 8, "velocity": 56}, {"time": 3264, "pitch": 60, "duration": 5, "velocity": 59}, {"time": 3270, "pitch": 62, "duration": 6, "velocity": 61}, {"time": 3276, "pitch": 65, "duration": 8, "velocity": 59}, {"time": 3282, "pitch": 48, "duration": 39, "velocity": 69}, {"time": 3282, "pitch": 63, "duration": 13, "velocity": 57}, {"time": 3288, "pitch": 55, "duration": 20, "velocity": 54}, {"time": 3294, "pitch": 60, "duration": 20, "velocity": 63}, {"time": 3300, "pitch": 62, "duration": 8, "velocity": 69}, {"time": 3306, "pitch": 63, "duration": 17, "velocity": 72}, {"time": 3312, "pitch": 70, "duration": 10, "velocity": 72}, {"time": 3318, "pitch": 55, "duration": 3, "velocity": 70}, {"time": 3324, "pitch": 58, "duration": 5, "velocity": 67}, {"time": 3336, "pitch": 41, "duration": 3, "velocity": 70}, {"time": 3336, "pitch": 53, "duration": 3, "velocity": 57}, {"time": 3336, "pitch": 58, "duration": 3, "velocity": 48}, {"time": 3336, "pitch": 63, "duration": 2, "velocity": 49}, {"time": 3336, "pitch": 67, "duration": 2, "velocity": 46}, {"time": 3342, "pitch": 41, "duration": 8, "velocity": 67}, {"time": 3342, "pitch": 53, "duration": 4, "velocity": 62}, {"time": 3342, "pitch": 58, "duration": 5, "velocity": 58}, {"time": 3342, "pitch": 63, "duration": 5, "velocity": 46}, {"time": 3342, "pitch": 67, "duration": 6, "velocity": 49}, {"time": 3342, "pitch": 70, "duration": 10, "velocity": 44}, {"time": 3348, "pitch": 53, "duration": 4, "velocity": 59}, {"time": 3354, "pitch": 41, "duration": 18, "velocity": 70}, {"time": 3354, "pitch": 60, "duration": 7, "velocity": 61}, {"time": 3354, "pitch": 65, "duration": 7, "velocity": 61}, {"time": 3354, "pitch": 69, "duration": 7, "velocity": 62}, {"time": 3360, "pitch": 53, "duration": 7, "velocity": 53}, {"time": 3366, "pitch": 58, "duration": 5, "velocity": 66}, {"time": 3366, "pitch": 63, "duration": 7, "velocity": 67}, {"time": 3366, "pitch": 67, "duration": 11, "velocity": 64}, {"time": 3372, "pitch": 53, "duration": 7, "velocity": 73}, {"time": 3378, "pitch": 46, "duration": 42, "velocity": 78}, {"time": 3378, "pitch": 58, "duration": 6, "velocity": 62}, {"time": 3378, "pitch": 62, "duration": 14, "velocity": 69}, {"time": 3378, "pitch": 65, "duration": 14, "velocity": 63}, {"time": 3384, "pitch": 53, "duration": 31, "velocity": 66}, {"time": 3390, "pitch": 58, "duration": 9, "velocity": 66}, {"time": 3396, "pitch": 60, "duration": 8, "velocity": 61}, {"time": 3396, "pitch": 65, "duration": 8, "velocity": 67}, {"time": 3402, "pitch": 62, "duration": 10, "velocity": 60}, {"time": 3408, "pitch": 58, "duration": 9, "velocity": 59}, {"time": 3414, "pitch": 60, "duration": 8, "velocity": 66}, {"time": 3414, "pitch": 65, "duration": 8, "velocity": 73}, {"time": 3420, "pitch": 53, "duration": 7, "velocity": 63}, {"time": 3426, "pitch": 45, "duration": 48, "velocity": 64}, {"time": 3426, "pitch": 60, "duration": 10, "velocity": 60}, {"time": 3426, "pitch": 65, "duration": 9, "velocity": 70}, {"time": 3432, "pitch": 53, "duration": 27, "velocity": 66}, {"time": 3438, "pitch": 57, "duration": 10, "velocity": 64}, {"time": 3444, "pitch": 60, "duration": 7, "velocity": 62}, {"time": 3444, "pitch": 65, "duration": 8, "velocity": 70}, {"time": 3450, "pitch": 67, "duration": 8, "velocity": 59}, {"time": 3456, "pitch": 69, "duration": 6, "velocity": 53}, {"time": 3462, "pitch": 53, "duration": 3, "velocity": 40}, {"time": 3462, "pitch": 57, "duration": 5, "velocity": 70}, {"time": 3462, "pitch": 72, "duration": 7, "velocity": 62}, {"time": 3468, "pitch": 69, "duration": 6, "velocity": 66}, {"time": 3474, "pitch": 43, "duration": 11, "velocity": 72}, {"time": 3474, "pitch": 62, "duration": 7, "velocity": 67}, {"time": 3474, "pitch": 70, "duration": 12, "velocity": 58}, {"time": 3480, "pitch": 50, "duration": 6, "velocity": 54}, {"time": 3486, "pitch": 55, "duration": 8, "velocity": 61}, {"time": 3486, "pitch": 60, "duration": 2, "velocity": 46}, {"time": 3486, "pitch": 69, "duration": 6, "velocity": 63}, {"time": 3492, "pitch": 57, "duration": 16, "velocity": 69}, {"time": 3492, "pitch": 62, "duration": 8, "velocity": 59}, {"time": 3492, "pitch": 70, "duration": 9, "velocity": 62}, {"time": 3498, "pitch": 58, "duration": 10, "velocity": 69}, {"time": 3504, "pitch": 62, "duration": 5, "velocity": 60}, {"time": 3510, "pitch": 67, "duration": 6, "velocity": 59}, {"time": 3516, "pitch": 70, "duration": 5, "velocity": 63}, {"time": 3522, "pitch": 50, "duration": 38, "velocity": 69}, {"time": 3522, "pitch": 60, "duration": 7, "velocity": 63}, {"time": 3522, "pitch": 65, "duration": 12, "velocity": 69}, {"time": 3522, "pitch": 69, "duration": 12, "velocity": 73}, {"time": 3528, "pitch": 57, "duration": 31, "velocity": 53}, {"time": 3534, "pitch": 60, "duration": 7, "velocity": 48}, {"time": 3534, "pitch": 62, "duration": 7, "velocity": 52}, {"time": 3540, "pitch": 65, "duration": 15, "velocity": 73}, {"time": 3552, "pitch": 60, "duration": 6, "velocity": 59}, {"time": 3558, "pitch": 62, "duration": 13, "velocity": 61}, {"time": 3564, "pitch": 65, "duration": 3, "velocity": 61}, {"time": 3570, "pitch": 39, "duration": 44, "velocity": 67}, {"time": 3570, "pitch": 55, "duration": 9, "velocity": 53}, {"time": 3570, "pitch": 58, "duration": 11, "velocity": 69}, {"time": 3570, "pitch": 63, "duration": 13, "velocity": 64}, {"time": 3576, "pitch": 46, "duration": 15, "velocity": 66}, {"time": 3582, "pitch": 53, "duration": 3, "velocity": 53}, {"time": 3582, "pitch": 62, "duration": 7, "velocity": 66}, {"time": 3588, "pitch": 51, "duration": 14, "velocity": 56}, {"time": 3588, "pitch": 55, "duration": 13, "velocity": 62}, {"time": 3588, "pitch": 58, "duration": 14, "velocity": 59}, {"time": 3588, "pitch": 63, "duration": 12, "velocity": 64}, {"time": 3600, "pitch": 46, "duration": 17, "velocity": 56}, {"time": 3606, "pitch": 55, "duration": 7, "velocity": 61}, {"time": 3612, "pitch": 63, "duration": 6, "velocity": 64}, {"time": 3618, "pitch": 38, "duration": 41, "velocity": 54}, {"time": 3618, "pitch": 53, "duration": 14, "velocity": 58}, {"time": 3618, "pitch": 58, "duration": 14, "velocity": 63}, {"time": 3618, "pitch": 62, "duration": 12, "velocity": 67}, {"time": 3624, "pitch": 46, "duration": 35, "velocity": 61}, {"time": 3630, "pitch": 50, "duration": 19, "velocity": 62}, {"time": 3636, "pitch": 53, "duration": 7, "velocity": 56}, {"time": 3642, "pitch": 58, "duration": 8, "velocity": 70}, {"time": 3648, "pitch": 60, "duration": 6, "velocity": 56}, {"time": 3654, "pitch": 50, "duration": 4, "velocity": 62}, {"time": 3654, "pitch": 62, "duration": 13, "velocity": 62}, {"time": 3660, "pitch": 65, "duration": 3, "velocity": 61}, {"time": 3666, "pitch": 36, "duration": 32, "velocity": 73}, {"time": 3666, "pitch": 55, "duration": 7, "velocity": 59}, {"time": 3666, "pitch": 58, "duration": 10, "velocity": 60}, {"time": 3666, "pitch": 63, "duration": 13, "velocity": 69}, {"time": 3672, "pitch": 48, "duration": 19, "velocity": 50}, {"time": 3678, "pitch": 53, "duration": 3, "velocity": 48}, {"time": 3678, "pitch": 62, "duration": 6, "velocity": 63}, {"time": 3684, "pitch": 55, "duration": 12, "velocity": 59}, {"time": 3684, "pitch": 58, "duration": 15, "velocity": 63}, {"time": 3684, "pitch": 63, "duration": 14, "velocity": 72}, {"time": 3696, "pitch": 48, "duration": 4, "velocity": 66}, {"time": 3702, "pitch": 55, "duration": 5, "velocity": 57}, {"time": 3702, "pitch": 62, "duration": 6, "velocity": 72}, {"time": 3708, "pitch": 58, "duration": 6, "velocity": 59}, {"time": 3708, "pitch": 63, "duration": 4, "velocity": 57}, {"time": 3714, "pitch": 55, "duration": 4, "velocity": 44}, {"time": 3720, "pitch": 41, "duration": 35, "velocity": 62}, {"time": 3720, "pitch": 53, "duration": 5, "velocity": 56}, {"time": 3720, "pitch": 55, "duration": 13, "velocity": 58}, {"time": 3720, "pitch": 58, "duration": 14, "velocity": 63}, {"time": 3720, "pitch": 63, "duration": 9, "velocity": 63}, {"time": 3732, "pitch": 53, "duration": 9, "velocity": 50}, {"time": 3738, "pitch": 55, "duration": 6, "velocity": 58}, {"time": 3738, "pitch": 58, "duration": 11, "velocity": 66}, {"time": 3738, "pitch": 63, "duration": 10, "velocity": 64}, {"time": 3744, "pitch": 53, "duration": 7, "velocity": 58}, {"time": 3750, "pitch": 48, "duration": 11, "velocity": 64}, {"time": 3762, "pitch": 41, "duration": 31, "velocity": 57}, {"time": 3762, "pitch": 53, "duration": 22, "velocity": 50}, {"time": 3762, "pitch": 65, "duration": 21, "velocity": 50}, {"time": 3762, "pitch": 69, "duration": 22, "velocity": 58}, {"time": 3762, "pitch": 72, "duration": 19, "velocity": 56}, {"time": 3762, "pitch": 77, "duration": 28, "velocity": 62}, {"time": 3786, "pitch": 65, "duration": 8, "velocity": 56}, {"time": 3792, "pitch": 53, "duration": 7, "velocity": 50}, {"time": 3798, "pitch": 70, "duration": 5, "velocity": 58}, {"time": 3804, "pitch": 74, "duration": 7, "velocity": 57}, {"time": 3810, "pitch": 46, "duration": 38, "velocity": 66}, {"time": 3810, "pitch": 65, "duration": 10, "velocity": 49}, {"time": 3810, "pitch": 72, "duration": 9, "velocity": 62}, {"time": 3816, "pitch": 53, "duration": 25, "velocity": 60}, {"time": 3822, "pitch": 58, "duration": 18, "velocity": 50}, {"time": 3828, "pitch": 60, "duration": 11, "velocity": 72}, {"time": 3840, "pitch": 62, "duration": 10, "velocity": 58}, {"time": 3846, "pitch": 53, "duration": 3, "velocity": 20}, {"time": 3846, "pitch": 58, "duration": 5, "velocity": 59}, {"time": 3852, "pitch": 63, "duration": 5, "velocity": 49}, {"time": 3858, "pitch": 39, "duration": 25, "velocity": 43}, {"time": 3858, "pitch": 51, "duration": 27, "velocity": 47}, {"time": 3858, "pitch": 58, "duration": 22, "velocity": 53}, {"time": 3858, "pitch": 63, "duration": 26, "velocity": 59}, {"time": 3858, "pitch": 67, "duration": 28, "velocity": 55}, {"time": 3882, "pitch": 41, "duration": 15, "velocity": 60}, {"time": 3882, "pitch": 60, "duration": 15, "velocity": 59}, {"time": 3882, "pitch": 65, "duration": 17, "velocity": 66}, {"time": 3888, "pitch": 69, "duration": 12, "velocity": 26}, {"time": 3906, "pitch": 46, "duration": 10, "velocity": 48}, {"time": 3906, "pitch": 74, "duration": 24, "velocity": 51}, {"time": 3912, "pitch": 53, "duration": 6, "velocity": 53}, {"time": 3918, "pitch": 58, "duration": 8, "velocity": 54}, {"time": 3924, "pitch": 60, "duration": 10, "velocity": 60}, {"time": 3930, "pitch": 62, "duration": 10, "velocity": 61}, {"time": 3936, "pitch": 65, "duration": 4, "velocity": 52}, {"time": 3942, "pitch": 70, "duration": 5, "velocity": 57}, {"time": 3948, "pitch": 74, "duration": 7, "velocity": 61}, {"time": 3954, "pitch": 57, "duration": 39, "velocity": 48}, {"time": 3954, "pitch": 72, "duration": 9, "velocity": 63}, {"time": 3960, "pitch": 65, "duration": 33, "velocity": 56}, {"time": 3966, "pitch": 69, "duration": 12, "velocity": 61}, {"time": 3972, "pitch": 72, "duration": 8, "velocity": 46}, {"time": 3978, "pitch": 77, "duration": 7, "velocity": 64}, {"time": 3984, "pitch": 79, "duration": 6, "velocity": 54}, {"time": 3990, "pitch": 81, "duration": 6, "velocity": 50}, {"time": 3996, "pitch": 84, "duration": 3, "velocity": 61}, {"time": 4002, "pitch": 55, "duration": 41, "velocity": 63}, {"time": 4002, "pitch": 74, "duration": 9, "velocity": 59}, {"time": 4002, "pitch": 77, "duration": 8, "velocity": 49}, {"time": 4002, "pitch": 82, "duration": 7, "velocity": 63}, {"time": 4008, "pitch": 62, "duration": 19, "velocity": 56}, {"time": 4014, "pitch": 67, "duration": 14, "velocity": 56}, {"time": 4020, "pitch": 70, "duration": 13, "velocity": 55}, {"time": 4020, "pitch": 74, "duration": 13, "velocity": 45}, {"time": 4032, "pitch": 69, "duration": 4, "velocity": 48}, {"time": 4032, "pitch": 72, "duration": 5, "velocity": 64}, {"time": 4038, "pitch": 62, "duration": 7, "velocity": 59}, {"time": 4038, "pitch": 70, "duration": 5, "velocity": 64}, {"time": 4038, "pitch": 74, "duration": 5, "velocity": 63}, {"time": 4044, "pitch": 77, "duration": 4, "velocity": 53}, {"time": 4050, "pitch": 53, "duration": 33, "velocity": 56}, {"time": 4050, "pitch": 69, "duration": 13, "velocity": 52}, {"time": 4050, "pitch": 74, "duration": 12, "velocity": 62}, {"time": 4056, "pitch": 62, "duration": 19, "velocity": 53}, {"time": 4062, "pitch": 65, "duration": 13, "velocity": 57}, {"time": 4068, "pitch": 69, "duration": 9, "velocity": 70}, {"time": 4080, "pitch": 62, "duration": 4, "velocity": 61}, {"time": 4086, "pitch": 65, "duration": 6, "velocity": 60}, {"time": 4092, "pitch": 70, "duration": 6, "velocity": 57}, {"time": 4098, "pitch": 39, "duration": 10, "velocity": 59}, {"time": 4098, "pitch": 58, "duration": 15, "velocity": 58}, {"time": 4098, "pitch": 63, "duration": 22, "velocity": 60}, {"time": 4098, "pitch": 67, "duration": 24, "velocity": 63}, {"time": 4104, "pitch": 46, "duration": 6, "velocity": 47}, {"time": 4110, "pitch": 51, "duration": 8, "velocity": 53}, {"time": 4116, "pitch": 55, "duration": 14, "velocity": 48}, {"time": 4122, "pitch": 58, "duration": 8, "velocity": 61}, {"time": 4128, "pitch": 63, "duration": 4, "velocity": 59}, {"time": 4134, "pitch": 65, "duration": 6, "velocity": 51}, {"time": 4140, "pitch": 70, "duration": 24, "velocity": 50}, {"time": 4146, "pitch": 38, "duration": 5, "velocity": 64}, {"time": 4146, "pitch": 58, "duration": 13, "velocity": 60}, {"time": 4146, "pitch": 65, "duration": 18, "velocity": 53}, {"time": 4152, "pitch": 50, "duration": 8, "velocity": 45}, {"time": 4158, "pitch": 53, "duration": 23, "velocity": 64}, {"time": 4164, "pitch": 58, "duration": 14, "velocity": 78}, {"time": 4170, "pitch": 62, "duration": 5, "velocity": 72}, {"time": 4176, "pitch": 65, "duration": 9, "velocity": 62}, {"time": 4182, "pitch": 67, "duration": 9, "velocity": 70}, {"time": 4188, "pitch": 70, "duration": 14, "velocity": 60}, {"time": 4194, "pitch": 36, "duration": 39, "velocity": 66}, {"time": 4194, "pitch": 58, "duration": 9, "velocity": 67}, {"time": 4194, "pitch": 63, "duration": 10, "velocity": 72}, {"time": 4194, "pitch": 67, "duration": 10, "velocity": 73}, {"time": 4200, "pitch": 48, "duration": 16, "velocity": 61}, {"time": 4206, "pitch": 58, "duration": 4, "velocity": 64}, {"time": 4206, "pitch": 65, "duration": 6, "velocity": 54}, {"time": 4212, "pitch": 58, "duration": 10, "velocity": 73}, {"time": 4212, "pitch": 63, "duration": 12, "velocity": 75}, {"time": 4212, "pitch": 67, "duration": 10, "velocity": 66}, {"time": 4218, "pitch": 48, "duration": 10, "velocity": 64}, {"time": 4224, "pitch": 58, "duration": 8, "velocity": 67}, {"time": 4230, "pitch": 48, "duration": 5, "velocity": 72}, {"time": 4230, "pitch": 63, "duration": 8, "velocity": 70}, {"time": 4236, "pitch": 41, "duration": 8, "velocity": 72}, {"time": 4236, "pitch": 53, "duration": 9, "velocity": 82}, {"time": 4236, "pitch": 55, "duration": 9, "velocity": 80}, {"time": 4236, "pitch": 58, "duration": 9, "velocity": 82}, {"time": 4236, "pitch": 63, "duration": 2, "velocity": 78}, {"time": 4236, "pitch": 67, "duration": 7, "velocity": 67}, {"time": 4248, "pitch": 41, "duration": 14, "velocity": 64}, {"time": 4248, "pitch": 53, "duration": 13, "velocity": 91}, {"time": 4248, "pitch": 57, "duration": 14, "velocity": 76}, {"time": 4248, "pitch": 60, "duration": 14, "velocity": 78}, {"time": 4248, "pitch": 65, "duration": 13, "velocity": 72}, {"time": 4266, "pitch": 39, "duration": 6, "velocity": 66}, {"time": 4266, "pitch": 51, "duration": 7, "velocity": 62}, {"time": 4266, "pitch": 55, "duration": 6, "velocity": 67}, {"time": 4266, "pitch": 58, "duration": 9, "velocity": 76}, {"time": 4266, "pitch": 63, "duration": 6, "velocity": 80}, {"time": 4278, "pitch": 41, "duration": 4, "velocity": 75}, {"time": 4278, "pitch": 53, "duration": 3, "velocity": 69}, {"time": 4278, "pitch": 57, "duration": 6, "velocity": 78}, {"time": 4278, "pitch": 60, "duration": 11, "velocity": 72}, {"time": 4278, "pitch": 65, "duration": 12, "velocity": 72}, {"time": 4290, "pitch": 34, "duration": 20, "velocity": 63}, {"time": 4290, "pitch": 46, "duration": 14, "velocity": 73}, {"time": 4290, "pitch": 53, "duration": 9, "velocity": 73}, {"time": 4290, "pitch": 58, "duration": 9, "velocity": 76}, {"time": 4290, "pitch": 62, "duration": 8, "velocity": 75}, {"time": 4302, "pitch": 53, "duration": 8, "velocity": 75}, {"time": 4302, "pitch": 58, "duration": 8, "velocity": 69}, {"time": 4302, "pitch": 60, "duration": 7, "velocity": 52}, {"time": 4302, "pitch": 62, "duration": 7, "velocity": 45}, {"time": 4302, "pitch": 65, "duration": 6, "velocity": 37}, {"time": 4308, "pitch": 46, "duration": 3, "velocity": 39}, {"time": 4311, "pitch": 53, "duration": 3, "velocity": 66}, {"time": 4311, "pitch": 60, "duration": 2, "velocity": 57}, {"time": 4314, "pitch": 34, "duration": 15, "velocity": 55}, {"time": 4314, "pitch": 46, "duration": 16, "velocity": 44}, {"time": 4320, "pitch": 53, "duration": 8, "velocity": 73}, {"time": 4320, "pitch": 58, "duration": 8, "velocity": 73}, {"time": 4320, "pitch": 60, "duration": 8, "velocity": 72}, {"time": 4320, "pitch": 62, "duration": 8, "velocity": 72}, {"time": 4320, "pitch": 65, "duration": 7, "velocity": 54}, {"time": 4332, "pitch": 53, "duration": 8, "velocity": 66}, {"time": 4332, "pitch": 58, "duration": 8, "velocity": 61}, {"time": 4332, "pitch": 62, "duration": 9, "velocity": 69}, {"time": 4338, "pitch": 38, "duration": 14, "velocity": 59}, {"time": 4338, "pitch": 50, "duration": 15, "velocity": 59}, {"time": 4338, "pitch": 60, "duration": 8, "velocity": 62}, {"time": 4338, "pitch": 62, "duration": 3, "velocity": 31}, {"time": 4338, "pitch": 65, "duration": 6, "velocity": 57}, {"time": 4338, "pitch": 69, "duration": 9, "velocity": 69}, {"time": 4350, "pitch": 60, "duration": 11, "velocity": 80}, {"time": 4350, "pitch": 65, "duration": 11, "velocity": 82}, {"time": 4350, "pitch": 69, "duration": 11, "velocity": 72}, {"time": 4359, "pitch": 38, "duration": 14, "velocity": 69}, {"time": 4359, "pitch": 50, "duration": 10, "velocity": 74}, {"time": 4368, "pitch": 60, "duration": 10, "velocity": 86}, {"time": 4368, "pitch": 65, "duration": 11, "velocity": 87}, {"time": 4368, "pitch": 69, "duration": 10, "velocity": 77}, {"time": 4374, "pitch": 50, "duration": 3, "velocity": 73}, {"time": 4380, "pitch": 41, "duration": 7, "velocity": 76}, {"time": 4386, "pitch": 43, "duration": 41, "velocity": 90}, {"time": 4386, "pitch": 58, "duration": 7, "velocity": 75}, {"time": 4386, "pitch": 62, "duration": 7, "velocity": 79}, {"time": 4386, "pitch": 65, "duration": 8, "velocity": 85}, {"time": 4398, "pitch": 58, "duration": 2, "velocity": 76}, {"time": 4398, "pitch": 62, "duration": 1, "velocity": 64}, {"time": 4398, "pitch": 65, "duration": 2, "velocity": 69}, {"time": 4404, "pitch": 55, "duration": 11, "velocity": 39}, {"time": 4404, "pitch": 65, "duration": 2, "velocity": 22}, {"time": 4407, "pitch": 57, "duration": 2, "velocity": 64}, {"time": 4407, "pitch": 58, "duration": 1, "velocity": 52}, {"time": 4407, "pitch": 62, "duration": 2, "velocity": 69}, {"time": 4407, "pitch": 65, "duration": 4, "velocity": 44}, {"time": 4416, "pitch": 57, "duration": 8, "velocity": 77}, {"time": 4416, "pitch": 58, "duration": 9, "velocity": 81}, {"time": 4416, "pitch": 62, "duration": 9, "velocity": 84}, {"time": 4416, "pitch": 65, "duration": 8, "velocity": 57}, {"time": 4422, "pitch": 55, "duration": 4, "velocity": 90}, {"time": 4428, "pitch": 57, "duration": 2, "velocity": 54}, {"time": 4428, "pitch": 65, "duration": 2, "velocity": 46}, {"time": 4434, "pitch": 38, "duration": 37, "velocity": 64}, {"time": 4434, "pitch": 50, "duration": 9, "velocity": 67}, {"time": 4434, "pitch": 53, "duration": 4, "velocity": 34}, {"time": 4434, "pitch": 57, "duration": 6, "velocity": 47}, {"time": 4434, "pitch": 60, "duration": 7, "velocity": 66}, {"time": 4434, "pitch": 65, "duration": 5, "velocity": 40}, {"time": 4437, "pitch": 55, "duration": 3, "velocity": 20}, {"time": 4443, "pitch": 53, "duration": 1, "velocity": 68}, {"time": 4443, "pitch": 57, "duration": 1, "velocity": 49}, {"time": 4443, "pitch": 60, "duration": 2, "velocity": 59}, {"time": 4449, "pitch": 50, "duration": 25, "velocity": 37}, {"time": 4452, "pitch": 53, "duration": 1, "velocity": 41}, {"time": 4452, "pitch": 57, "duration": 1, "velocity": 71}, {"time": 4452, "pitch": 60, "duration": 1, "velocity": 50}, {"time": 4452, "pitch": 65, "duration": 3, "velocity": 79}, {"time": 4455, "pitch": 62, "duration": 1, "velocity": 21}, {"time": 4461, "pitch": 60, "duration": 3, "velocity": 69}, {"time": 4464, "pitch": 65, "duration": 4, "velocity": 71}, {"time": 4467, "pitch": 67, "duration": 1, "velocity": 76}, {"time": 4470, "pitch": 69, "duration": 3, "velocity": 40}, {"time": 4470, "pitch": 70, "duration": 1, "velocity": 36}, {"time": 4473, "pitch": 70, "duration": 4, "velocity": 46}, {"time": 4476, "pitch": 72, "duration": 4, "velocity": 70}, {"time": 4479, "pitch": 74, "duration": 5, "velocity": 74}, {"time": 4482, "pitch": 39, "duration": 45, "velocity": 75}, {"time": 4482, "pitch": 67, "duration": 5, "velocity": 60}, {"time": 4482, "pitch": 70, "duration": 5, "velocity": 86}, {"time": 4491, "pitch": 58, "duration": 1, "velocity": 57}, {"time": 4491, "pitch": 63, "duration": 1, "velocity": 74}, {"time": 4491, "pitch": 67, "duration": 2, "velocity": 75}, {"time": 4500, "pitch": 51, "duration": 9, "velocity": 59}, {"time": 4500, "pitch": 55, "duration": 3, "velocity": 87}, {"time": 4500, "pitch": 63, "duration": 3, "velocity": 71}, {"time": 4509, "pitch": 53, "duration": 1, "velocity": 73}, {"time": 4509, "pitch": 58, "duration": 2, "velocity": 78}, {"time": 4515, "pitch": 51, "duration": 5, "velocity": 49}, {"time": 4518, "pitch": 53, "duration": 7, "velocity": 90}, {"time": 4518, "pitch": 58, "duration": 8, "velocity": 87}, {"time": 4518, "pitch": 63, "duration": 4, "velocity": 80}, {"time": 4524, "pitch": 51, "duration": 1, "velocity": 57}, {"time": 4530, "pitch": 34, "duration": 5, "velocity": 66}, {"time": 4530, "pitch": 46, "duration": 7, "velocity": 75}, {"time": 4530, "pitch": 53, "duration": 6, "velocity": 80}, {"time": 4530, "pitch": 58, "duration": 7, "velocity": 75}, {"time": 4530, "pitch": 62, "duration": 7, "velocity": 77}, {"time": 4530, "pitch": 65, "duration": 5, "velocity": 48}, {"time": 4539, "pitch": 58, "duration": 2, "velocity": 73}, {"time": 4539, "pitch": 62, "duration": 2, "velocity": 72}, {"time": 4548, "pitch": 46, "duration": 12, "velocity": 54}, {"time": 4548, "pitch": 58, "duration": 11, "velocity": 54}, {"time": 4548, "pitch": 60, "duration": 1, "velocity": 60}, {"time": 4548, "pitch": 62, "duration": 1, "velocity": 54}, {"time": 4557, "pitch": 60, "duration": 2, "velocity": 62}, {"time": 4557, "pitch": 65, "duration": 1, "velocity": 60}, {"time": 4557, "pitch": 70, "duration": 6, "velocity": 88}, {"time": 4563, "pitch": 46, "duration": 5, "velocity": 74}, {"time": 4563, "pitch": 58, "duration": 3, "velocity": 72}, {"time": 4566, "pitch": 60, "duration": 5, "velocity": 84}, {"time": 4566, "pitch": 65, "duration": 7, "velocity": 86}, {"time": 4578, "pitch": 36, "duration": 36, "velocity": 74}, {"time": 4578, "pitch": 48, "duration": 11, "velocity": 64}, {"time": 4578, "pitch": 58, "duration": 6, "velocity": 79}, {"time": 4578, "pitch": 63, "duration": 7, "velocity": 77}, {"time": 4578, "pitch": 67, "duration": 7, "velocity": 66}, {"time": 4578, "pitch": 70, "duration": 4, "velocity": 18}, {"time": 4587, "pitch": 58, "duration": 1, "velocity": 52}, {"time": 4587, "pitch": 63, "duration": 3, "velocity": 67}, {"time": 4587, "pitch": 67, "duration": 4, "velocity": 74}, {"time": 4593, "pitch": 48, "duration": 13, "velocity": 39}, {"time": 4596, "pitch": 58, "duration": 6, "velocity": 79}, {"time": 4596, "pitch": 65, "duration": 8, "velocity": 81}, {"time": 4605, "pitch": 58, "duration": 3, "velocity": 67}, {"time": 4605, "pitch": 63, "duration": 3, "velocity": 79}, {"time": 4605, "pitch": 67, "duration": 5, "velocity": 73}, {"time": 4611, "pitch": 48, "duration": 5, "velocity": 56}, {"time": 4614, "pitch": 58, "duration": 6, "velocity": 87}, {"time": 4614, "pitch": 63, "duration": 6, "velocity": 83}, {"time": 4614, "pitch": 67, "duration": 15, "velocity": 81}, {"time": 4626, "pitch": 41, "duration": 42, "velocity": 81}, {"time": 4626, "pitch": 58, "duration": 7, "velocity": 85}, {"time": 4626, "pitch": 63, "duration": 7, "velocity": 86}, {"time": 4635, "pitch": 58, "duration": 6, "velocity": 65}, {"time": 4638, "pitch": 63, "duration": 1, "velocity": 16}, {"time": 4644, "pitch": 53, "duration": 10, "velocity": 73}, {"time": 4644, "pitch": 63, "duration": 2, "velocity": 77}, {"time": 4653, "pitch": 67, "duration": 3, "velocity": 71}, {"time": 4659, "pitch": 53, "duration": 5, "velocity": 42}, {"time": 4662, "pitch": 70, "duration": 6, "velocity": 86}, {"time": 4668, "pitch": 75, "duration": 2, "velocity": 81}, {"time": 4674, "pitch": 41, "duration": 38, "velocity": 69}, {"time": 4674, "pitch": 53, "duration": 11, "velocity": 67}, {"time": 4674, "pitch": 57, "duration": 22, "velocity": 67}, {"time": 4674, "pitch": 60, "duration": 23, "velocity": 63}, {"time": 4674, "pitch": 65, "duration": 24, "velocity": 63}, {"time": 4698, "pitch": 53, "duration": 12, "velocity": 51}, {"time": 4704, "pitch": 58, "duration": 5, "velocity": 76}, {"time": 4710, "pitch": 60, "duration": 6, "velocity": 57}, {"time": 4716, "pitch": 65, "duration": 7, "velocity": 60}, {"time": 4722, "pitch": 34, "duration": 68, "velocity": 66}, {"time": 4722, "pitch": 46, "duration": 15, "velocity": 52}, {"time": 4722, "pitch": 53, "duration": 9, "velocity": 69}, {"time": 4722, "pitch": 58, "duration": 12, "velocity": 69}, {"time": 4722, "pitch": 62, "duration": 14, "velocity": 70}, {"time": 4734, "pitch": 55, "duration": 4, "velocity": 52}, {"time": 4734, "pitch": 58, "duration": 5, "velocity": 47}, {"time": 4734, "pitch": 63, "duration": 9, "velocity": 67}, {"time": 4740, "pitch": 46, "duration": 6, "velocity": 47}, {"time": 4740, "pitch": 53, "duration": 5, "velocity": 56}, {"time": 4740, "pitch": 55, "duration": 4, "velocity": 53}, {"time": 4740, "pitch": 58, "duration": 1, "velocity": 33}, {"time": 4740, "pitch": 62, "duration": 10, "velocity": 76}, {"time": 4752, "pitch": 46, "duration": 13, "velocity": 43}, {"time": 4758, "pitch": 58, "duration": 6, "velocity": 60}, {"time": 4764, "pitch": 65, "duration": 6, "velocity": 59}, {"time": 4770, "pitch": 46, "duration": 9, "velocity": 39}, {"time": 4770, "pitch": 58, "duration": 16, "velocity": 59}, {"time": 4770, "pitch": 70, "duration": 20, "velocity": 67}, {"time": 4788, "pitch": 46, "duration": 4, "velocity": 46}, {"time": 4794, "pitch": 58, "duration": 4, "velocity": 52}, {"time": 4794, "pitch": 65, "duration": 8, "velocity": 54}, {"time": 4815, "pitch": 58, "duration": 18, "velocity": 41}, {"time": 4817, "pitch": 63, "duration": 18, "velocity": 50}, {"time": 4818, "pitch": 39, "duration": 6, "velocity": 62}, {"time": 4818, "pitch": 67, "duration": 18, "velocity": 63}, {"time": 4824, "pitch": 51, "duration": 7, "velocity": 42}, {"time": 4830, "pitch": 53, "duration": 16, "velocity": 46}, {"time": 4836, "pitch": 55, "duration": 10, "velocity": 44}, {"time": 4842, "pitch": 58, "duration": 4, "velocity": 55}, {"time": 4848, "pitch": 63, "duration": 4, "velocity": 66}, {"time": 4854, "pitch": 65, "duration": 6, "velocity": 44}, {"time": 4860, "pitch": 70, "duration": 8, "velocity": 58}, {"time": 4866, "pitch": 41, "duration": 68, "velocity": 49}, {"time": 4866, "pitch": 58, "duration": 8, "velocity": 60}, {"time": 4866, "pitch": 63, "duration": 9, "velocity": 56}, {"time": 4866, "pitch": 67, "duration": 8, "velocity": 55}, {"time": 4872, "pitch": 53, "duration": 61, "velocity": 46}, {"time": 4878, "pitch": 58, "duration": 4, "velocity": 52}, {"time": 4884, "pitch": 63, "duration": 5, "velocity": 57}, {"time": 4890, "pitch": 65, "duration": 3, "velocity": 53}, {"time": 4896, "pitch": 70, "duration": 5, "velocity": 52}, {"time": 4901, "pitch": 72, "duration": 3, "velocity": 55}, {"time": 4905, "pitch": 75, "duration": 3, "velocity": 34}, {"time": 4911, "pitch": 77, "duration": 6, "velocity": 49}, {"time": 4917, "pitch": 82, "duration": 6, "velocity": 53}, {"time": 4923, "pitch": 84, "duration": 5, "velocity": 43}, {"time": 4932, "pitch": 89, "duration": 3, "velocity": 26}, {"time": 4962, "pitch": 51, "duration": 14, "velocity": 57}, {"time": 4968, "pitch": 58, "duration": 10, "velocity": 48}, {"time": 4974, "pitch": 63, "duration": 3, "velocity": 61}, {"time": 4986, "pitch": 53, "duration": 15, "velocity": 35}, {"time": 4992, "pitch": 60, "duration": 10, "velocity": 54}, {"time": 4998, "pitch": 65, "duration": 3, "velocity": 58}, {"time": 5010, "pitch": 50, "duration": 8, "velocity": 57}, {"time": 5016, "pitch": 57, "duration": 7, "velocity": 45}, {"time": 5022, "pitch": 62, "duration": 10, "velocity": 53}, {"time": 5034, "pitch": 55, "duration": 16, "velocity": 47}, {"time": 5040, "pitch": 62, "duration": 10, "velocity": 48}, {"time": 5046, "pitch": 67, "duration": 3, "velocity": 60}, {"time": 5060, "pitch": 51, "duration": 10, "velocity": 60}, {"time": 5066, "pitch": 58, "duration": 10, "velocity": 51}, {"time": 5073, "pitch": 63, "duration": 3, "velocity": 59}, {"time": 5089, "pitch": 53, "duration": 21, "velocity": 57}, {"time": 5098, "pitch": 60, "duration": 20, "velocity": 47}, {"time": 5108, "pitch": 65, "duration": 5, "velocity": 54}, {"time": 5136, "pitch": 65, "duration": 5, "velocity": 36}, {"time": 5136, "pitch": 46, "duration": 76, "velocity": 49}, {"time": 5145, "pitch": 53, "duration": 67, "velocity": 41}, {"time": 5150, "pitch": 58, "duration": 60, "velocity": 45}, {"time": 5155, "pitch": 60, "duration": 1, "velocity": 46}, {"time": 5159, "pitch": 62, "duration": 4, "velocity": 47}, {"time": 5164, "pitch": 65, "duration": 1, "velocity": 51}, {"time": 5231, "pitch": 34, "duration": 4, "velocity": 44}], "annotations": [{"time": 19, "annotation": {"number": 64, "value": 127}, "group": "control_change"}, {"time": 43, "annotation": {"number": 64, "value": 0}, "group": "control_change"}, {"time": 49, "annotation": {"number": 64, "value": 127}, "group": "control_change"}, {"time": 68, "annotation": {"number": 64, "value": 0}, "group": "control_change"}, {"time": 72, "annotation": {"number": 64, "value": 127}, "group": "control_change"}, {"time": 91, "annotation": {"number": 64, "value": 0}, "group": "control_change"}, {"time": 95, "annotation": {"number": 64, "value": 127}, "group": "control_change"}, {"time": 117, "annotation": {"number": 64, "value": 0}, "group": "control_change"}, {"time": 122, "annotation": {"number": 64, "value": 127}, "group": "control_change"}, {"time": 138, "annotation": {"number": 64, "value": 0}, "group": "control_change"}, {"time": 144, "annotation": {"number": 64, "value": 127}, "group": "control_change"}, {"time": 162, "annotation": {"number": 64, "value": 0}, "group": "control_change"}, {"time": 167, "annotation": {"number": 64, "value": 127}, "group": "control_change"}, {"time": 209, "annotation": {"number": 64, "value": 0}, "group": "control_change"}, {"time": 210, "annotation": {"number": 64, "value": 37}, "group": "control_change"}, {"time": 210, "annotation": {"number": 64, "value": 89}, "group": "control_change"}, {"time": 210, "annotation": {"number": 88, "value": 42}, "group": "control_change"}, {"time": 211, "annotation": {"number": 64, "value": 127}, "group": "control_change"}, {"time": 217, "annotation": {"number": 88, "value": 51}, "group": "control_change"}, {"time": 218, "annotation": {"number": 88, "value": 122}, "group": "control_change"}, {"time": 228, "annotation": {"number": 64, "value": 124}, "group": "control_change"}, {"time": 228, "annotation": {"number": 64, "value": 63}, "group": "control_change"}, {"time": 229, "annotation": {"number": 64, "value": 5}, "group": "control_change"}, {"time": 229, "annotation": {"number": 64, "value": 0}, "group": "control_change"}, {"time": 229, "annotation": {"number": 88, "value": 85}, "group": "control_change"}, {"time": 231, "annotation": {"number": 64, "value": 18}, "group": "control_change"}, {"time": 232, "annotation": {"number": 64, "value": 71}, "group": "control_change"}, {"time": 232, "annotation": {"number": 64, "value": 125}, "group": "control_change"}, {"time": 233, "annotation": {"number": 64, "value": 127}, "group": "control_change"}, {"time": 235, "annotation": {"number": 88, "value": 13}, "group": "control_change"}, {"time": 239, "annotation": {"number": 88, "value": 82}, "group": "control_change"}, {"time": 240, "annotation": {"number": 88, "value": 1}, "group": "control_change"}, {"time": 242, "annotation": {"number": 88, "value": 92}, "group": "control_change"}, {"time": 245, "annotation": {"number": 88, "value": 78}, "group": "control_change"}, {"time": 246, "annotation": {"number": 88, "value": 102}, "group": "control_change"}, {"time": 248, "annotation": {"number": 88, "value": 107}, "group": "control_change"}, {"time": 250, "annotation": {"number": 88, "value": 65}, "group": "control_change"}, {"time": 256, "annotation": {"number": 64, "value": 118}, "group": "control_change"}, {"time": 256, "annotation": {"number": 64, "value": 84}, "group": "control_change"}, {"time": 257, "annotation": {"number": 64, "value": 40}, "group": "control_change"}, {"time": 257, "annotation": {"number": 64, "value": 0}, "group": "control_change"}, {"time": 258, "annotation": {"number": 88, "value": 91}, "group": "control_change"}, {"time": 260, "annotation": {"number": 64, "value": 36}, "group": "control_change"}, {"time": 261, "annotation": {"number": 64, "value": 92}, "group": "control_change"}, {"time": 261, "annotation": {"number": 64, "value": 127}, "group": "control_change"}, {"time": 264, "annotation": {"number": 88, "value": 97}, "group": "control_change"}, {"time": 266, "annotation": {"number": 88, "value": 7}, "group": "control_change"}, {"time": 268, "annotation": {"number": 88, "value": 1}, "group": "control_change"}, {"time": 270, "annotation": {"number": 88, "value": 10}, "group": "control_change"}, {"time": 274, "annotation": {"number": 64, "value": 124}, "group": "control_change"}, {"time": 274, "annotation": {"number": 64, "value": 114}, "group": "control_change"}, {"time": 274, "annotation": {"number": 88, "value": 23}, "group": "control_change"}, {"time": 275, "annotation": {"number": 64, "value": 95}, "group": "control_change"}, {"time": 275, "annotation": {"number": 64, "value": 66}, "group": "control_change"}, {"time": 275, "annotation": {"number": 64, "value": 12}, "group": "control_change"}, {"time": 276, "annotation": {"number": 64, "value": 0}, "group": "control_change"}, {"time": 276, "annotation": {"number": 88, "value": 25}, "group": "control_change"}, {"time": 279, "annotation": {"number": 64, "value": 28}, "group": "control_change"}, {"time": 279, "annotation": {"number": 64, "value": 75}, "group": "control_change"}, {"time": 280, "annotation": {"number": 64, "value": 120}, "group": "control_change"}, {"time": 280, "annotation": {"number": 64, "value": 127}, "group": "control_change"}, {"time": 282, "annotation": {"number": 64, "value": 124}, "group": "control_change"}, {"time": 283, "annotation": {"number": 64, "value": 122}, "group": "control_change"}, {"time": 283, "annotation": {"number": 64, "value": 121}, "group": "control_change"}, {"time": 285, "annotation": {"number": 64, "value": 122}, "group": "control_change"}, {"time": 285, "annotation": {"number": 64, "value": 125}, "group": "control_change"}, {"time": 285, "annotation": {"number": 64, "value": 127}, "group": "control_change"}, {"time": 285, "annotation": {"number": 88, "value": 45}, "group": "control_change"}, {"time": 287, "annotation": {"number": 64, "value": 125}, "group": "control_change"}, {"time": 287, "annotation": {"number": 88, "value": 94}, "group": "control_change"}, {"time": 288, "annotation": {"number": 64, "value": 121}, "group": "control_change"}, {"time": 288, "annotation": {"number": 64, "value": 119}, "group": "control_change"}, {"time": 288, "annotation": {"number": 88, "value": 67}, "group": "control_change"}, {"time": 288, "annotation": {"number": 64, "value": 118}, "group": "control_change"}, {"time": 289, "annotation": {"number": 64, "value": 117}, "group": "control_change"}, {"time": 289, "annotation": {"number": 64, "value": 118}, "group": "control_change"}, {"time": 290, "annotation": {"number": 64, "value": 117}, "group": "control_change"}, {"time": 291, "annotation": {"number": 64, "value": 118}, "group": "control_change"}, {"time": 292, "annotation": {"number": 64, "value": 117}, "group": "control_change"}, {"time": 293, "annotation": {"number": 64, "value": 115}, "group": "control_change"}, {"time": 294, "annotation": {"number": 64, "value": 117}, "group": "control_change"}, {"time": 294, "annotation": {"number": 64, "value": 119}, "group": "control_change"}, {"time": 294, "annotation": {"number": 64, "value": 118}, "group": "control_change"}, {"time": 295, "annotation": {"number": 88, "value": 126}, "group": "control_change"}, {"time": 295, "annotation": {"number": 64, "value": 117}, "group": "control_change"}, {"time": 295, "annotation": {"number": 64, "value": 118}, "group": "control_change"}, {"time": 296, "annotation": {"number": 64, "value": 117}, "group": "control_change"}, {"time": 298, "annotation": {"number": 88, "value": 60}, "group": "control_change"}, {"time": 299, "annotation": {"number": 88, "value": 16}, "group": "control_change"}, {"time": 299, "annotation": {"number": 64, "value": 116}, "group": "control_change"}, {"time": 300, "annotation": {"number": 88, "value": 24}, "group": "control_change"}, {"time": 300, "annotation": {"number": 64, "value": 115}, "group": "control_change"}, {"time": 301, "annotation": {"number": 64, "value": 116}, "group": "control_change"}, {"time": 303, "annotation": {"number": 64, "value": 115}, "group": "control_change"}, {"time": 304, "annotation": {"number": 64, "value": 114}, "group": "control_change"}, {"time": 304, "annotation": {"number": 64, "value": 108}, "group": "control_change"}, {"time": 304, "annotation": {"number": 64, "value": 84}, "group": "control_change"}, {"time": 305, "annotation": {"number": 64, "value": 44}, "group": "control_change"}, {"time": 305, "annotation": {"number": 64, "value": 0}, "group": "control_change"}, {"time": 307, "annotation": {"number": 88, "value": 2}, "group": "control_change"}, {"time": 309, "annotation": {"number": 64, "value": 14}, "group": "control_change"}, {"time": 309, "annotation": {"number": 64, "value": 62}, "group": "control_change"}, {"time": 310, "annotation": {"number": 64, "value": 99}, "group": "control_change"}, {"time": 310, "annotation": {"number": 64, "value": 117}, "group": "control_change"}, {"time": 310, "annotation": {"number": 64, "value": 119}, "group": "control_change"}, {"time": 311, "annotation": {"number": 64, "value": 117}, "group": "control_change"}, {"time": 311, "annotation": {"number": 64, "value": 111}, "group": "control_change"}, {"time": 312, "annotation": {"number": 64, "value": 102}, "group": "control_change"}, {"time": 312, "annotation": {"number": 64, "value": 93}, "group": "control_change"}, {"time": 312, "annotation": {"number": 64, "value": 88}, "group": "control_change"}, {"time": 313, "annotation": {"number": 88, "value": 121}, "group": "control_change"}, {"time": 313, "annotation": {"number": 64, "value": 87}, "group": "control_change"}, {"time": 313, "annotation": {"number": 64, "value": 86}, "group": "control_change"}, {"time": 314, "annotation": {"number": 88, "value": 9}, "group": "control_change"}, {"time": 314, "annotation": {"number": 64, "value": 87}, "group": "control_change"}, {"time": 314, "annotation": {"number": 64, "value": 95}, "group": "control_change"}, {"time": 314, "annotation": {"number": 64, "value": 106}, "group": "control_change"}, {"time": 315, "annotation": {"number": 64, "value": 114}, "group": "control_change"}, {"time": 315, "annotation": {"number": 64, "value": 122}, "group": "control_change"}, {"time": 316, "annotation": {"number": 64, "value": 127}, "group": "control_change"}, {"time": 318, "annotation": {"number": 64, "value": 125}, "group": "control_change"}, {"time": 318, "annotation": {"number": 64, "value": 124}, "group": "control_change"}, {"time": 319, "annotation": {"number": 88, "value": 36}, "group": "control_change"}, {"time": 319, "annotation": {"number": 64, "value": 123}, "group": "control_change"}, {"time": 320, "annotation": {"number": 64, "value": 122}, "group": "control_change"}, {"time": 320, "annotation": {"number": 64, "value": 123}, "group": "control_change"}, {"time": 325, "annotation": {"number": 88, "value": 48}, "group": "control_change"}, {"time": 326, "annotation": {"number": 64, "value": 122}, "group": "control_change"}, {"time": 326, "annotation": {"number": 64, "value": 123}, "group": "control_change"}, {"time": 327, "annotation": {"number": 64, "value": 122}, "group": "control_change"}, {"time": 327, "annotation": {"number": 64, "value": 123}, "group": "control_change"}, {"time": 329, "annotation": {"number": 64, "value": 122}, "group": "control_change"}, {"time": 330, "annotation": {"number": 64, "value": 123}, "group": "control_change"}, {"time": 330, "annotation": {"number": 88, "value": 4}, "group": "control_change"}, {"time": 331, "annotation": {"number": 64, "value": 122}, "group": "control_change"}, {"time": 332, "annotation": {"number": 64, "value": 123}, "group": "control_change"}, {"time": 333, "annotation": {"number": 64, "value": 122}, "group": "control_change"}, {"time": 333, "annotation": {"number": 64, "value": 123}, "group": "control_change"}, {"time": 337, "annotation": {"number": 88, "value": 113}, "group": "control_change"}, {"time": 338, "annotation": {"number": 88, "value": 92}, "group": "control_change"}, {"time": 339, "annotation": {"number": 64, "value": 122}, "group": "control_change"}, {"time": 339, "annotation": {"number": 64, "value": 123}, "group": "control_change"}, {"time": 340, "annotation": {"number": 64, "value": 122}, "group": "control_change"}, {"time": 341, "annotation": {"number": 64, "value": 123}, "group": "control_change"}, {"time": 341, "annotation": {"number": 88, "value": 91}, "group": "control_change"}, {"time": 342, "annotation": {"number": 64, "value": 124}, "group": "control_change"}, {"time": 342, "annotation": {"number": 64, "value": 123}, "group": "control_change"}, {"time": 343, "annotation": {"number": 88, "value": 90}, "group": "control_change"}, {"time": 344, "annotation": {"number": 64, "value": 122}, "group": "control_change"}, {"time": 345, "annotation": {"number": 64, "value": 123}, "group": "control_change"}, {"time": 348, "annotation": {"number": 88, "value": 5}, "group": "control_change"}, {"time": 348, "annotation": {"number": 64, "value": 122}, "group": "control_change"}, {"time": 350, "annotation": {"number": 88, "value": 32}, "group": "control_change"}, {"time": 351, "annotation": {"number": 64, "value": 118}, "group": "control_change"}, {"time": 351, "annotation": {"number": 64, "value": 108}, "group": "control_change"}, {"time": 351, "annotation": {"number": 88, "value": 92}, "group": "control_change"}, {"time": 352, "annotation": {"number": 64, "value": 81}, "group": "control_change"}, {"time": 352, "annotation": {"number": 64, "value": 39}, "group": "control_change"}, {"time": 353, "annotation": {"number": 64, "value": 0}, "group": "control_change"}, {"time": 355, "annotation": {"number": 88, "value": 126}, "group": "control_change"}, {"time": 355, "annotation": {"number": 64, "value": 31}, "group": "control_change"}, {"time": 356, "annotation": {"number": 64, "value": 66}, "group": "control_change"}, {"time": 356, "annotation": {"number": 64, "value": 104}, "group": "control_change"}, {"time": 357, "annotation": {"number": 64, "value": 127}, "group": "control_change"}, {"time": 358, "annotation": {"number": 88, "value": 10}, "group": "control_change"}, {"time": 361, "annotation": {"number": 88, "value": 70}, "group": "control_change"}, {"time": 362, "annotation": {"number": 88, "value": 76}, "group": "control_change"}, {"time": 367, "annotation": {"number": 88, "value": 126}, "group": "control_change"}, {"time": 368, "annotation": {"number": 88, "value": 7}, "group": "control_change"}, {"time": 369, "annotation": {"number": 88, "value": 19}, "group": "control_change"}, {"time": 369, "annotation": {"number": 64, "value": 126}, "group": "control_change"}, {"time": 370, "annotation": {"number": 64, "value": 127}, "group": "control_change"}, {"time": 371, "annotation": {"number": 64, "value": 126}, "group": "control_change"}, {"time": 372, "annotation": {"number": 64, "value": 121}, "group": "control_change"}, {"time": 372, "annotation": {"number": 88, "value": 76}, "group": "control_change"}, {"time": 372, "annotation": {"number": 64, "value": 108}, "group": "control_change"}, {"time": 372, "annotation": {"number": 64, "value": 67}, "group": "control_change"}, {"time": 373, "annotation": {"number": 88, "value": 89}, "group": "control_change"}, {"time": 373, "annotation": {"number": 64, "value": 13}, "group": "control_change"}, {"time": 373, "annotation": {"number": 64, "value": 0}, "group": "control_change"}, {"time": 374, "annotation": {"number": 88, "value": 74}, "group": "control_change"}, {"time": 376, "annotation": {"number": 64, "value": 27}, "group": "control_change"}, {"time": 376, "annotation": {"number": 64, "value": 71}, "group": "control_change"}, {"time": 377, "annotation": {"number": 64, "value": 119}, "group": "control_change"}, {"time": 377, "annotation": {"number": 64, "value": 127}, "group": "control_change"}, {"time": 386, "annotation": {"number": 88, "value": 120}, "group": "control_change"}, {"time": 387, "annotation": {"number": 88, "value": 45}, "group": "control_change"}, {"time": 391, "annotation": {"number": 88, "value": 25}, "group": "control_change"}, {"time": 395, "annotation": {"number": 88, "value": 93}, "group": "control_change"}, {"time": 396, "annotation": {"number": 64, "value": 122}, "group": "control_change"}, {"time": 397, "annotation": {"number": 64, "value": 111}, "group": "control_change"}, {"time": 397, "annotation": {"number": 88, "value": 113}, "group": "control_change"}, {"time": 397, "annotation": {"number": 64, "value": 96}, "group": "control_change"}, {"time": 398, "annotation": {"number": 64, "value": 82}, "group": "control_change"}, {"time": 398, "annotation": {"number": 64, "value": 72}, "group": "control_change"}, {"time": 398, "annotation": {"number": 64, "value": 60}, "group": "control_change"}, {"time": 399, "annotation": {"number": 64, "value": 50}, "group": "control_change"}, {"time": 399, "annotation": {"number": 64, "value": 42}, "group": "control_change"}, {"time": 399, "annotation": {"number": 64, "value": 34}, "group": "control_change"}, {"time": 400, "annotation": {"number": 64, "value": 27}, "group": "control_change"}, {"time": 400, "annotation": {"number": 64, "value": 22}, "group": "control_change"}, {"time": 400, "annotation": {"number": 64, "value": 15}, "group": "control_change"}, {"time": 401, "annotation": {"number": 64, "value": 6}, "group": "control_change"}, {"time": 401, "annotation": {"number": 64, "value": 0}, "group": "control_change"}, {"time": 404, "annotation": {"number": 64, "value": 127}, "group": "control_change"}, {"time": 451, "annotation": {"number": 64, "value": 0}, "group": "control_change"}, {"time": 454, "annotation": {"number": 64, "value": 127}, "group": "control_change"}, {"time": 500, "annotation": {"number": 64, "value": 0}, "group": "control_change"}, {"time": 504, "annotation": {"number": 64, "value": 127}, "group": "control_change"}, {"time": 548, "annotation": {"number": 64, "value": 0}, "group": "control_change"}, {"time": 553, "annotation": {"number": 64, "value": 127}, "group": "control_change"}, {"time": 597, "annotation": {"number": 64, "value": 0}, "group": "control_change"}, {"time": 602, "annotation": {"number": 64, "value": 127}, "group": "control_change"}, {"time": 644, "annotation": {"number": 64, "value": 0}, "group": "control_change"}, {"time": 649, "annotation": {"number": 64, "value": 127}, "group": "control_change"}, {"time": 691, "annotation": {"number": 64, "value": 0}, "group": "control_change"}, {"time": 695, "annotation": {"number": 64, "value": 127}, "group": "control_change"}, {"time": 739, "annotation": {"number": 64, "value": 0}, "group": "control_change"}, {"time": 744, "annotation": {"number": 64, "value": 127}, "group": "control_change"}, {"time": 788, "annotation": {"number": 64, "value": 0}, "group": "control_change"}, {"time": 792, "annotation": {"number": 64, "value": 127}, "group": "control_change"}, {"time": 836, "annotation": {"number": 64, "value": 0}, "group": "control_change"}, {"time": 839, "annotation": {"number": 64, "value": 127}, "group": "control_change"}, {"time": 883, "annotation": {"number": 64, "value": 0}, "group": "control_change"}, {"time": 888, "annotation": {"number": 64, "value": 127}, "group": "control_change"}, {"time": 932, "annotation": {"number": 64, "value": 0}, "group": "control_change"}, {"time": 938, "annotation": {"number": 64, "value": 127}, "group": "control_change"}, {"time": 978, "annotation": {"number": 64, "value": 0}, "group": "control_change"}, {"time": 981, "annotation": {"number": 64, "value": 127}, "group": "control_change"}, {"time": 1028, "annotation": {"number": 64, "value": 0}, "group": "control_change"}, {"time": 1033, "annotation": {"number": 64, "value": 127}, "group": "control_change"}, {"time": 1076, "annotation": {"number": 64, "value": 0}, "group": "control_change"}, {"time": 1081, "annotation": {"number": 64, "value": 127}, "group": "control_change"}, {"time": 1122, "annotation": {"number": 64, "value": 0}, "group": "control_change"}, {"time": 1125, "annotation": {"number": 64, "value": 127}, "group": "control_change"}, {"time": 1169, "annotation": {"number": 64, "value": 127}, "group": "control_change"}, {"time": 1170, "annotation": {"number": 64, "value": 0}, "group": "control_change"}, {"time": 1180, "annotation": {"number": 64, "value": 0}, "group": "control_change"}, {"time": 1189, "annotation": {"number": 64, "value": 127}, "group": "control_change"}, {"time": 1217, "annotation": {"number": 64, "value": 0}, "group": "control_change"}, {"time": 1220, "annotation": {"number": 64, "value": 127}, "group": "control_change"}, {"time": 1266, "annotation": {"number": 64, "value": 0}, "group": "control_change"}, {"time": 1270, "annotation": {"number": 64, "value": 127}, "group": "control_change"}, {"time": 1311, "annotation": {"number": 64, "value": 0}, "group": "control_change"}, {"time": 1314, "annotation": {"number": 64, "value": 127}, "group": "control_change"}, {"time": 1363, "annotation": {"number": 64, "value": 0}, "group": "control_change"}, {"time": 1368, "annotation": {"number": 64, "value": 127}, "group": "control_change"}, {"time": 1409, "annotation": {"number": 64, "value": 0}, "group": "control_change"}, {"time": 1413, "annotation": {"number": 64, "value": 127}, "group": "control_change"}, {"time": 1459, "annotation": {"number": 64, "value": 0}, "group": "control_change"}, {"time": 1464, "annotation": {"number": 64, "value": 127}, "group": "control_change"}, {"time": 1506, "annotation": {"number": 64, "value": 0}, "group": "control_change"}, {"time": 1510, "annotation": {"number": 64, "value": 127}, "group": "control_change"}, {"time": 1555, "annotation": {"number": 64, "value": 0}, "group": "control_change"}, {"time": 1559, "annotation": {"number": 64, "value": 127}, "group": "control_change"}, {"time": 1602, "annotation": {"number": 64, "value": 0}, "group": "control_change"}, {"time": 1605, "annotation": {"number": 64, "value": 127}, "group": "control_change"}, {"time": 1649, "annotation": {"number": 64, "value": 0}, "group": "control_change"}, {"time": 1652, "annotation": {"number": 64, "value": 127}, "group": "control_change"}, {"time": 1698, "annotation": {"number": 64, "value": 0}, "group": "control_change"}, {"time": 1704, "annotation": {"number": 64, "value": 127}, "group": "control_change"}, {"time": 1747, "annotation": {"number": 64, "value": 0}, "group": "control_change"}, {"time": 1752, "annotation": {"number": 64, "value": 127}, "group": "control_change"}, {"time": 1793, "annotation": {"number": 64, "value": 0}, "group": "control_change"}, {"time": 1797, "annotation": {"number": 64, "value": 127}, "group": "control_change"}, {"time": 1842, "annotation": {"number": 64, "value": 0}, "group": "control_change"}, {"time": 1848, "annotation": {"number": 64, "value": 127}, "group": "control_change"}, {"time": 1889, "annotation": {"number": 64, "value": 0}, "group": "control_change"}, {"time": 1895, "annotation": {"number": 64, "value": 127}, "group": "control_change"}, {"time": 1937, "annotation": {"number": 64, "value": 0}, "group": "control_change"}, {"time": 1941, "annotation": {"number": 64, "value": 127}, "group": "control_change"}, {"time": 1988, "annotation": {"number": 64, "value": 0}, "group": "control_change"}, {"time": 1993, "annotation": {"number": 64, "value": 127}, "group": "control_change"}, {"time": 2081, "annotation": {"number": 64, "value": 0}, "group": "control_change"}, {"time": 2085, "annotation": {"number": 64, "value": 127}, "group": "control_change"}, {"time": 2130, "annotation": {"number": 64, "value": 0}, "group": "control_change"}, {"time": 2179, "annotation": {"number": 64, "value": 127}, "group": "control_change"}, {"time": 2225, "annotation": {"number": 64, "value": 0}, "group": "control_change"}, {"time": 2231, "annotation": {"number": 64, "value": 127}, "group": "control_change"}, {"time": 2277, "annotation": {"number": 64, "value": 0}, "group": "control_change"}, {"time": 2282, "annotation": {"number": 64, "value": 127}, "group": "control_change"}, {"time": 2324, "annotation": {"number": 64, "value": 0}, "group": "control_change"}, {"time": 2329, "annotation": {"number": 64, "value": 127}, "group": "control_change"}, {"time": 2370, "annotation": {"number": 64, "value": 0}, "group": "control_change"}, {"time": 2376, "annotation": {"number": 64, "value": 127}, "group": "control_change"}, {"time": 2378, "annotation": {"number": 64, "value": 0}, "group": "control_change"}, {"time": 2380, "annotation": {"number": 64, "value": 127}, "group": "control_change"}, {"time": 2419, "annotation": {"number": 64, "value": 0}, "group": "control_change"}, {"time": 2424, "annotation": {"number": 64, "value": 127}, "group": "control_change"}, {"time": 2468, "annotation": {"number": 64, "value": 0}, "group": "control_change"}, {"time": 2473, "annotation": {"number": 64, "value": 127}, "group": "control_change"}, {"time": 2513, "annotation": {"number": 64, "value": 0}, "group": "control_change"}, {"time": 2525, "annotation": {"number": 64, "value": 127}, "group": "control_change"}, {"time": 2528, "annotation": {"number": 64, "value": 0}, "group": "control_change"}, {"time": 2535, "annotation": {"number": 64, "value": 127}, "group": "control_change"}, {"time": 2561, "annotation": {"number": 64, "value": 0}, "group": "control_change"}, {"time": 2565, "annotation": {"number": 64, "value": 127}, "group": "control_change"}, {"time": 2608, "annotation": {"number": 64, "value": 0}, "group": "control_change"}, {"time": 2613, "annotation": {"number": 64, "value": 127}, "group": "control_change"}, {"time": 2659, "annotation": {"number": 64, "value": 0}, "group": "control_change"}, {"time": 2664, "annotation": {"number": 64, "value": 127}, "group": "control_change"}, {"time": 2708, "annotation": {"number": 64, "value": 0}, "group": "control_change"}, {"time": 2712, "annotation": {"number": 64, "value": 127}, "group": "control_change"}, {"time": 2755, "annotation": {"number": 64, "value": 0}, "group": "control_change"}, {"time": 2760, "annotation": {"number": 64, "value": 127}, "group": "control_change"}, {"time": 2804, "annotation": {"number": 64, "value": 0}, "group": "control_change"}, {"time": 2809, "annotation": {"number": 64, "value": 127}, "group": "control_change"}, {"time": 2852, "annotation": {"number": 64, "value": 0}, "group": "control_change"}, {"time": 2856, "annotation": {"number": 64, "value": 127}, "group": "control_change"}, {"time": 2898, "annotation": {"number": 64, "value": 0}, "group": "control_change"}, {"time": 2899, "annotation": {"number": 64, "value": 127}, "group": "control_change"}, {"time": 2907, "annotation": {"number": 64, "value": 0}, "group": "control_change"}, {"time": 2918, "annotation": {"number": 64, "value": 127}, "group": "control_change"}, {"time": 2993, "annotation": {"number": 64, "value": 0}, "group": "control_change"}, {"time": 2999, "annotation": {"number": 64, "value": 127}, "group": "control_change"}, {"time": 3044, "annotation": {"number": 64, "value": 0}, "group": "control_change"}, {"time": 3048, "annotation": {"number": 64, "value": 127}, "group": "control_change"}, {"time": 3092, "annotation": {"number": 64, "value": 0}, "group": "control_change"}, {"time": 3096, "annotation": {"number": 64, "value": 127}, "group": "control_change"}, {"time": 3138, "annotation": {"number": 64, "value": 0}, "group": "control_change"}, {"time": 3143, "annotation": {"number": 64, "value": 127}, "group": "control_change"}, {"time": 3189, "annotation": {"number": 64, "value": 0}, "group": "control_change"}, {"time": 3193, "annotation": {"number": 64, "value": 127}, "group": "control_change"}, {"time": 3233, "annotation": {"number": 64, "value": 0}, "group": "control_change"}, {"time": 3238, "annotation": {"number": 64, "value": 127}, "group": "control_change"}, {"time": 3282, "annotation": {"number": 64, "value": 0}, "group": "control_change"}, {"time": 3286, "annotation": {"number": 64, "value": 127}, "group": "control_change"}, {"time": 3328, "annotation": {"number": 64, "value": 0}, "group": "control_change"}, {"time": 3342, "annotation": {"number": 64, "value": 127}, "group": "control_change"}, {"time": 3356, "annotation": {"number": 64, "value": 0}, "group": "control_change"}, {"time": 3359, "annotation": {"number": 64, "value": 127}, "group": "control_change"}, {"time": 3377, "annotation": {"number": 64, "value": 0}, "group": "control_change"}, {"time": 3381, "annotation": {"number": 64, "value": 127}, "group": "control_change"}, {"time": 3425, "annotation": {"number": 64, "value": 0}, "group": "control_change"}, {"time": 3430, "annotation": {"number": 64, "value": 127}, "group": "control_change"}, {"time": 3474, "annotation": {"number": 64, "value": 0}, "group": "control_change"}, {"time": 3479, "annotation": {"number": 64, "value": 127}, "group": "control_change"}, {"time": 3524, "annotation": {"number": 64, "value": 0}, "group": "control_change"}, {"time": 3528, "annotation": {"number": 64, "value": 127}, "group": "control_change"}, {"time": 3572, "annotation": {"number": 64, "value": 0}, "group": "control_change"}, {"time": 3577, "annotation": {"number": 64, "value": 127}, "group": "control_change"}, {"time": 3616, "annotation": {"number": 64, "value": 0}, "group": "control_change"}, {"time": 3621, "annotation": {"number": 64, "value": 127}, "group": "control_change"}, {"time": 3663, "annotation": {"number": 64, "value": 0}, "group": "control_change"}, {"time": 3669, "annotation": {"number": 64, "value": 127}, "group": "control_change"}, {"time": 3717, "annotation": {"number": 64, "value": 0}, "group": "control_change"}, {"time": 3723, "annotation": {"number": 64, "value": 127}, "group": "control_change"}, {"time": 3809, "annotation": {"number": 64, "value": 0}, "group": "control_change"}, {"time": 3814, "annotation": {"number": 64, "value": 127}, "group": "control_change"}, {"time": 3857, "annotation": {"number": 64, "value": 0}, "group": "control_change"}, {"time": 3858, "annotation": {"number": 64, "value": 127}, "group": "control_change"}, {"time": 3884, "annotation": {"number": 64, "value": 0}, "group": "control_change"}, {"time": 3890, "annotation": {"number": 64, "value": 127}, "group": "control_change"}, {"time": 3905, "annotation": {"number": 64, "value": 0}, "group": "control_change"}, {"time": 3907, "annotation": {"number": 64, "value": 0}, "group": "control_change"}, {"time": 3910, "annotation": {"number": 64, "value": 127}, "group": "control_change"}, {"time": 3954, "annotation": {"number": 64, "value": 0}, "group": "control_change"}, {"time": 3958, "annotation": {"number": 64, "value": 127}, "group": "control_change"}, {"time": 4003, "annotation": {"number": 64, "value": 0}, "group": "control_change"}, {"time": 4007, "annotation": {"number": 64, "value": 127}, "group": "control_change"}, {"time": 4051, "annotation": {"number": 64, "value": 0}, "group": "control_change"}, {"time": 4056, "annotation": {"number": 64, "value": 127}, "group": "control_change"}, {"time": 4100, "annotation": {"number": 64, "value": 0}, "group": "control_change"}, {"time": 4103, "annotation": {"number": 64, "value": 127}, "group": "control_change"}, {"time": 4148, "annotation": {"number": 64, "value": 0}, "group": "control_change"}, {"time": 4150, "annotation": {"number": 64, "value": 127}, "group": "control_change"}, {"time": 4194, "annotation": {"number": 64, "value": 0}, "group": "control_change"}, {"time": 4196, "annotation": {"number": 64, "value": 127}, "group": "control_change"}, {"time": 4237, "annotation": {"number": 64, "value": 127}, "group": "control_change"}, {"time": 4242, "annotation": {"number": 64, "value": 0}, "group": "control_change"}, {"time": 4243, "annotation": {"number": 64, "value": 0}, "group": "control_change"}, {"time": 4255, "annotation": {"number": 64, "value": 127}, "group": "control_change"}, {"time": 4258, "annotation": {"number": 64, "value": 0}, "group": "control_change"}, {"time": 4260, "annotation": {"number": 64, "value": 127}, "group": "control_change"}, {"time": 4263, "annotation": {"number": 64, "value": 0}, "group": "control_change"}, {"time": 4267, "annotation": {"number": 64, "value": 127}, "group": "control_change"}, {"time": 4275, "annotation": {"number": 64, "value": 0}, "group": "control_change"}, {"time": 4279, "annotation": {"number": 64, "value": 127}, "group": "control_change"}, {"time": 4286, "annotation": {"number": 64, "value": 0}, "group": "control_change"}, {"time": 4292, "annotation": {"number": 64, "value": 127}, "group": "control_change"}, {"time": 4302, "annotation": {"number": 64, "value": 0}, "group": "control_change"}, {"time": 4323, "annotation": {"number": 64, "value": 127}, "group": "control_change"}, {"time": 4334, "annotation": {"number": 64, "value": 0}, "group": "control_change"}, {"time": 4338, "annotation": {"number": 64, "value": 106}, "group": "control_change"}, {"time": 4339, "annotation": {"number": 88, "value": 32}, "group": "control_change"}, {"time": 4339, "annotation": {"number": 88, "value": 113}, "group": "control_change"}, {"time": 4341, "annotation": {"number": 64, "value": 0}, "group": "control_change"}, {"time": 4345, "annotation": {"number": 88, "value": 75}, "group": "control_change"}, {"time": 4346, "annotation": {"number": 88, "value": 70}, "group": "control_change"}, {"time": 4351, "annotation": {"number": 88, "value": 82}, "group": "control_change"}, {"time": 4352, "annotation": {"number": 88, "value": 10}, "group": "control_change"}, {"time": 4353, "annotation": {"number": 88, "value": 95}, "group": "control_change"}, {"time": 4360, "annotation": {"number": 88, "value": 113}, "group": "control_change"}, {"time": 4361, "annotation": {"number": 88, "value": 10}, "group": "control_change"}, {"time": 4369, "annotation": {"number": 88, "value": 96}, "group": "control_change"}, {"time": 4374, "annotation": {"number": 88, "value": 123}, "group": "control_change"}, {"time": 4377, "annotation": {"number": 88, "value": 4}, "group": "control_change"}, {"time": 4378, "annotation": {"number": 88, "value": 4}, "group": "control_change"}, {"time": 4379, "annotation": {"number": 88, "value": 51}, "group": "control_change"}, {"time": 4380, "annotation": {"number": 88, "value": 90}, "group": "control_change"}, {"time": 4386, "annotation": {"number": 64, "value": 0}, "group": "control_change"}, {"time": 4387, "annotation": {"number": 88, "value": 16}, "group": "control_change"}, {"time": 4392, "annotation": {"number": 64, "value": 109}, "group": "control_change"}, {"time": 4393, "annotation": {"number": 88, "value": 124}, "group": "control_change"}, {"time": 4394, "annotation": {"number": 88, "value": 55}, "group": "control_change"}, {"time": 4398, "annotation": {"number": 88, "value": 74}, "group": "control_change"}, {"time": 4399, "annotation": {"number": 88, "value": 70}, "group": "control_change"}, {"time": 4404, "annotation": {"number": 88, "value": 9}, "group": "control_change"}, {"time": 4405, "annotation": {"number": 88, "value": 37}, "group": "control_change"}, {"time": 4408, "annotation": {"number": 88, "value": 120}, "group": "control_change"}, {"time": 4409, "annotation": {"number": 88, "value": 20}, "group": "control_change"}, {"time": 4411, "annotation": {"number": 88, "value": 117}, "group": "control_change"}, {"time": 4415, "annotation": {"number": 88, "value": 126}, "group": "control_change"}, {"time": 4417, "annotation": {"number": 88, "value": 71}, "group": "control_change"}, {"time": 4423, "annotation": {"number": 88, "value": 37}, "group": "control_change"}, {"time": 4424, "annotation": {"number": 88, "value": 23}, "group": "control_change"}, {"time": 4426, "annotation": {"number": 88, "value": 46}, "group": "control_change"}, {"time": 4427, "annotation": {"number": 88, "value": 40}, "group": "control_change"}, {"time": 4428, "annotation": {"number": 88, "value": 101}, "group": "control_change"}, {"time": 4430, "annotation": {"number": 88, "value": 5}, "group": "control_change"}, {"time": 4434, "annotation": {"number": 64, "value": 0}, "group": "control_change"}, {"time": 4435, "annotation": {"number": 88, "value": 88}, "group": "control_change"}, {"time": 4436, "annotation": {"number": 88, "value": 35}, "group": "control_change"}, {"time": 4437, "annotation": {"number": 88, "value": 12}, "group": "control_change"}, {"time": 4437, "annotation": {"number": 64, "value": 111}, "group": "control_change"}, {"time": 4439, "annotation": {"number": 88, "value": 123}, "group": "control_change"}, {"time": 4440, "annotation": {"number": 88, "value": 9}, "group": "control_change"}, {"time": 4441, "annotation": {"number": 88, "value": 107}, "group": "control_change"}, {"time": 4444, "annotation": {"number": 88, "value": 8}, "group": "control_change"}, {"time": 4445, "annotation": {"number": 88, "value": 18}, "group": "control_change"}, {"time": 4448, "annotation": {"number": 88, "value": 11}, "group": "control_change"}, {"time": 4453, "annotation": {"number": 88, "value": 63}, "group": "control_change"}, {"time": 4454, "annotation": {"number": 88, "value": 76}, "group": "control_change"}, {"time": 4455, "annotation": {"number": 88, "value": 35}, "group": "control_change"}, {"time": 4455, "annotation": {"number": 88, "value": 23}, "group": "control_change"}, {"time": 4461, "annotation": {"number": 88, "value": 24}, "group": "control_change"}, {"time": 4464, "annotation": {"number": 88, "value": 78}, "group": "control_change"}, {"time": 4467, "annotation": {"number": 88, "value": 97}, "group": "control_change"}, {"time": 4470, "annotation": {"number": 88, "value": 125}, "group": "control_change"}, {"time": 4471, "annotation": {"number": 88, "value": 9}, "group": "control_change"}, {"time": 4472, "annotation": {"number": 88, "value": 64}, "group": "control_change"}, {"time": 4473, "annotation": {"number": 88, "value": 64}, "group": "control_change"}, {"time": 4475, "annotation": {"number": 88, "value": 110}, "group": "control_change"}, {"time": 4477, "annotation": {"number": 88, "value": 23}, "group": "control_change"}, {"time": 4478, "annotation": {"number": 88, "value": 78}, "group": "control_change"}, {"time": 4482, "annotation": {"number": 88, "value": 114}, "group": "control_change"}, {"time": 4482, "annotation": {"number": 64, "value": 0}, "group": "control_change"}, {"time": 4485, "annotation": {"number": 64, "value": 120}, "group": "control_change"}, {"time": 4487, "annotation": {"number": 88, "value": 84}, "group": "control_change"}, {"time": 4492, "annotation": {"number": 88, "value": 47}, "group": "control_change"}, {"time": 4493, "annotation": {"number": 88, "value": 69}, "group": "control_change"}, {"time": 4501, "annotation": {"number": 88, "value": 25}, "group": "control_change"}, {"time": 4504, "annotation": {"number": 88, "value": 33}, "group": "control_change"}, {"time": 4509, "annotation": {"number": 88, "value": 55}, "group": "control_change"}, {"time": 4510, "annotation": {"number": 88, "value": 25}, "group": "control_change"}, {"time": 4515, "annotation": {"number": 88, "value": 29}, "group": "control_change"}, {"time": 4518, "annotation": {"number": 88, "value": 71}, "group": "control_change"}, {"time": 4519, "annotation": {"number": 88, "value": 93}, "group": "control_change"}, {"time": 4522, "annotation": {"number": 88, "value": 109}, "group": "control_change"}, {"time": 4524, "annotation": {"number": 88, "value": 0}, "group": "control_change"}, {"time": 4525, "annotation": {"number": 88, "value": 103}, "group": "control_change"}, {"time": 4526, "annotation": {"number": 88, "value": 79}, "group": "control_change"}, {"time": 4530, "annotation": {"number": 88, "value": 124}, "group": "control_change"}, {"time": 4530, "annotation": {"number": 64, "value": 0}, "group": "control_change"}, {"time": 4533, "annotation": {"number": 64, "value": 127}, "group": "control_change"}, {"time": 4535, "annotation": {"number": 88, "value": 64}, "group": "control_change"}, {"time": 4536, "annotation": {"number": 88, "value": 21}, "group": "control_change"}, {"time": 4537, "annotation": {"number": 88, "value": 40}, "group": "control_change"}, {"time": 4539, "annotation": {"number": 88, "value": 65}, "group": "control_change"}, {"time": 4540, "annotation": {"number": 88, "value": 86}, "group": "control_change"}, {"time": 4540, "annotation": {"number": 88, "value": 111}, "group": "control_change"}, {"time": 4548, "annotation": {"number": 88, "value": 30}, "group": "control_change"}, {"time": 4549, "annotation": {"number": 88, "value": 121}, "group": "control_change"}, {"time": 4557, "annotation": {"number": 88, "value": 104}, "group": "control_change"}, {"time": 4558, "annotation": {"number": 88, "value": 64}, "group": "control_change"}, {"time": 4559, "annotation": {"number": 88, "value": 57}, "group": "control_change"}, {"time": 4563, "annotation": {"number": 88, "value": 120}, "group": "control_change"}, {"time": 4564, "annotation": {"number": 88, "value": 78}, "group": "control_change"}, {"time": 4567, "annotation": {"number": 88, "value": 28}, "group": "control_change"}, {"time": 4568, "annotation": {"number": 88, "value": 68}, "group": "control_change"}, {"time": 4572, "annotation": {"number": 88, "value": 82}, "group": "control_change"}, {"time": 4573, "annotation": {"number": 88, "value": 13}, "group": "control_change"}, {"time": 4578, "annotation": {"number": 64, "value": 0}, "group": "control_change"}, {"time": 4579, "annotation": {"number": 88, "value": 49}, "group": "control_change"}, {"time": 4580, "annotation": {"number": 88, "value": 29}, "group": "control_change"}, {"time": 4581, "annotation": {"number": 64, "value": 109}, "group": "control_change"}, {"time": 4584, "annotation": {"number": 88, "value": 64}, "group": "control_change"}, {"time": 4585, "annotation": {"number": 88, "value": 91}, "group": "control_change"}, {"time": 4588, "annotation": {"number": 88, "value": 127}, "group": "control_change"}, {"time": 4589, "annotation": {"number": 88, "value": 21}, "group": "control_change"}, {"time": 4590, "annotation": {"number": 88, "value": 51}, "group": "control_change"}, {"time": 4591, "annotation": {"number": 88, "value": 54}, "group": "control_change"}, {"time": 4592, "annotation": {"number": 88, "value": 7}, "group": "control_change"}, {"time": 4597, "annotation": {"number": 88, "value": 58}, "group": "control_change"}, {"time": 4602, "annotation": {"number": 88, "value": 85}, "group": "control_change"}, {"time": 4605, "annotation": {"number": 88, "value": 109}, "group": "control_change"}, {"time": 4606, "annotation": {"number": 88, "value": 96}, "group": "control_change"}, {"time": 4608, "annotation": {"number": 88, "value": 18}, "group": "control_change"}, {"time": 4610, "annotation": {"number": 88, "value": 94}, "group": "control_change"}, {"time": 4612, "annotation": {"number": 88, "value": 118}, "group": "control_change"}, {"time": 4614, "annotation": {"number": 88, "value": 91}, "group": "control_change"}, {"time": 4615, "annotation": {"number": 88, "value": 41}, "group": "control_change"}, {"time": 4617, "annotation": {"number": 88, "value": 67}, "group": "control_change"}, {"time": 4621, "annotation": {"number": 88, "value": 51}, "group": "control_change"}, {"time": 4626, "annotation": {"number": 88, "value": 52}, "group": "control_change"}, {"time": 4626, "annotation": {"number": 64, "value": 3}, "group": "control_change"}, {"time": 4629, "annotation": {"number": 88, "value": 41}, "group": "control_change"}, {"time": 4629, "annotation": {"number": 64, "value": 117}, "group": "control_change"}, {"time": 4633, "annotation": {"number": 88, "value": 114}, "group": "control_change"}, {"time": 4635, "annotation": {"number": 88, "value": 58}, "group": "control_change"}, {"time": 4638, "annotation": {"number": 88, "value": 86}, "group": "control_change"}, {"time": 4641, "annotation": {"number": 88, "value": 30}, "group": "control_change"}, {"time": 4645, "annotation": {"number": 88, "value": 55}, "group": "control_change"}, {"time": 4646, "annotation": {"number": 88, "value": 118}, "group": "control_change"}, {"time": 4654, "annotation": {"number": 88, "value": 109}, "group": "control_change"}, {"time": 4655, "annotation": {"number": 88, "value": 31}, "group": "control_change"}, {"time": 4659, "annotation": {"number": 88, "value": 114}, "group": "control_change"}, {"time": 4662, "annotation": {"number": 88, "value": 69}, "group": "control_change"}, {"time": 4663, "annotation": {"number": 88, "value": 57}, "group": "control_change"}, {"time": 4668, "annotation": {"number": 88, "value": 62}, "group": "control_change"}, {"time": 4668, "annotation": {"number": 88, "value": 58}, "group": "control_change"}, {"time": 4670, "annotation": {"number": 88, "value": 79}, "group": "control_change"}, {"time": 4674, "annotation": {"number": 64, "value": 0}, "group": "control_change"}, {"time": 4677, "annotation": {"number": 64, "value": 97}, "group": "control_change"}, {"time": 4718, "annotation": {"number": 64, "value": 0}, "group": "control_change"}, {"time": 4722, "annotation": {"number": 64, "value": 127}, "group": "control_change"}, {"time": 4817, "annotation": {"number": 64, "value": 0}, "group": "control_change"}, {"time": 4821, "annotation": {"number": 64, "value": 127}, "group": "control_change"}, {"time": 4868, "annotation": {"number": 64, "value": 0}, "group": "control_change"}, {"time": 4873, "annotation": {"number": 64, "value": 127}, "group": "control_change"}, {"time": 4962, "annotation": {"number": 64, "value": 0}, "group": "control_change"}, {"time": 4962, "annotation": {"number": 88, "value": 40}, "group": "control_change"}, {"time": 4962, "annotation": {"number": 88, "value": 79}, "group": "control_change"}, {"time": 4963, "annotation": {"number": 64, "value": 12}, "group": "control_change"}, {"time": 4963, "annotation": {"number": 64, "value": 36}, "group": "control_change"}, {"time": 4964, "annotation": {"number": 64, "value": 59}, "group": "control_change"}, {"time": 4964, "annotation": {"number": 64, "value": 76}, "group": "control_change"}, {"time": 4964, "annotation": {"number": 64, "value": 87}, "group": "control_change"}, {"time": 4965, "annotation": {"number": 64, "value": 99}, "group": "control_change"}, {"time": 4965, "annotation": {"number": 64, "value": 109}, "group": "control_change"}, {"time": 4966, "annotation": {"number": 64, "value": 116}, "group": "control_change"}, {"time": 4966, "annotation": {"number": 64, "value": 122}, "group": "control_change"}, {"time": 4966, "annotation": {"number": 64, "value": 127}, "group": "control_change"}, {"time": 4969, "annotation": {"number": 88, "value": 13}, "group": "control_change"}, {"time": 4975, "annotation": {"number": 88, "value": 113}, "group": "control_change"}, {"time": 4976, "annotation": {"number": 88, "value": 100}, "group": "control_change"}, {"time": 4977, "annotation": {"number": 88, "value": 114}, "group": "control_change"}, {"time": 4978, "annotation": {"number": 88, "value": 31}, "group": "control_change"}, {"time": 4985, "annotation": {"number": 64, "value": 119}, "group": "control_change"}, {"time": 4986, "annotation": {"number": 64, "value": 79}, "group": "control_change"}, {"time": 4986, "annotation": {"number": 64, "value": 31}, "group": "control_change"}, {"time": 4986, "annotation": {"number": 64, "value": 0}, "group": "control_change"}, {"time": 4987, "annotation": {"number": 88, "value": 40}, "group": "control_change"}, {"time": 4990, "annotation": {"number": 64, "value": 2}, "group": "control_change"}, {"time": 4990, "annotation": {"number": 64, "value": 30}, "group": "control_change"}, {"time": 4991, "annotation": {"number": 64, "value": 53}, "group": "control_change"}, {"time": 4991, "annotation": {"number": 88, "value": 88}, "group": "control_change"}, {"time": 4991, "annotation": {"number": 64, "value": 69}, "group": "control_change"}, {"time": 4991, "annotation": {"number": 64, "value": 78}, "group": "control_change"}, {"time": 4992, "annotation": {"number": 64, "value": 87}, "group": "control_change"}, {"time": 4992, "annotation": {"number": 64, "value": 95}, "group": "control_change"}, {"time": 4992, "annotation": {"number": 64, "value": 99}, "group": "control_change"}, {"time": 4993, "annotation": {"number": 88, "value": 83}, "group": "control_change"}, {"time": 4993, "annotation": {"number": 64, "value": 104}, "group": "control_change"}, {"time": 4993, "annotation": {"number": 64, "value": 109}, "group": "control_change"}, {"time": 4994, "annotation": {"number": 64, "value": 112}, "group": "control_change"}, {"time": 4994, "annotation": {"number": 64, "value": 114}, "group": "control_change"}, {"time": 4994, "annotation": {"number": 64, "value": 116}, "group": "control_change"}, {"time": 4995, "annotation": {"number": 88, "value": 23}, "group": "control_change"}, {"time": 4995, "annotation": {"number": 64, "value": 117}, "group": "control_change"}, {"time": 4996, "annotation": {"number": 64, "value": 118}, "group": "control_change"}, {"time": 4996, "annotation": {"number": 64, "value": 117}, "group": "control_change"}, {"time": 4999, "annotation": {"number": 88, "value": 89}, "group": "control_change"}, {"time": 5000, "annotation": {"number": 64, "value": 116}, "group": "control_change"}, {"time": 5000, "annotation": {"number": 64, "value": 117}, "group": "control_change"}, {"time": 5001, "annotation": {"number": 88, "value": 73}, "group": "control_change"}, {"time": 5002, "annotation": {"number": 88, "value": 5}, "group": "control_change"}, {"time": 5002, "annotation": {"number": 64, "value": 116}, "group": "control_change"}, {"time": 5003, "annotation": {"number": 64, "value": 117}, "group": "control_change"}, {"time": 5005, "annotation": {"number": 64, "value": 116}, "group": "control_change"}, {"time": 5005, "annotation": {"number": 64, "value": 117}, "group": "control_change"}, {"time": 5006, "annotation": {"number": 64, "value": 118}, "group": "control_change"}, {"time": 5006, "annotation": {"number": 64, "value": 119}, "group": "control_change"}, {"time": 5006, "annotation": {"number": 64, "value": 120}, "group": "control_change"}, {"time": 5007, "annotation": {"number": 64, "value": 121}, "group": "control_change"}, {"time": 5008, "annotation": {"number": 64, "value": 122}, "group": "control_change"}, {"time": 5008, "annotation": {"number": 88, "value": 48}, "group": "control_change"}, {"time": 5008, "annotation": {"number": 64, "value": 123}, "group": "control_change"}, {"time": 5009, "annotation": {"number": 64, "value": 123}, "group": "control_change"}, {"time": 5010, "annotation": {"number": 64, "value": 122}, "group": "control_change"}, {"time": 5011, "annotation": {"number": 88, "value": 83}, "group": "control_change"}, {"time": 5011, "annotation": {"number": 64, "value": 94}, "group": "control_change"}, {"time": 5012, "annotation": {"number": 64, "value": 41}, "group": "control_change"}, {"time": 5012, "annotation": {"number": 64, "value": 0}, "group": "control_change"}, {"time": 5016, "annotation": {"number": 64, "value": 28}, "group": "control_change"}, {"time": 5016, "annotation": {"number": 64, "value": 59}, "group": "control_change"}, {"time": 5016, "annotation": {"number": 64, "value": 76}, "group": "control_change"}, {"time": 5017, "annotation": {"number": 64, "value": 92}, "group": "control_change"}, {"time": 5017, "annotation": {"number": 88, "value": 127}, "group": "control_change"}, {"time": 5017, "annotation": {"number": 64, "value": 105}, "group": "control_change"}, {"time": 5017, "annotation": {"number": 64, "value": 114}, "group": "control_change"}, {"time": 5018, "annotation": {"number": 64, "value": 121}, "group": "control_change"}, {"time": 5018, "annotation": {"number": 64, "value": 127}, "group": "control_change"}, {"time": 5019, "annotation": {"number": 88, "value": 64}, "group": "control_change"}, {"time": 5021, "annotation": {"number": 88, "value": 60}, "group": "control_change"}, {"time": 5023, "annotation": {"number": 88, "value": 114}, "group": "control_change"}, {"time": 5027, "annotation": {"number": 88, "value": 30}, "group": "control_change"}, {"time": 5028, "annotation": {"number": 88, "value": 46}, "group": "control_change"}, {"time": 5032, "annotation": {"number": 88, "value": 4}, "group": "control_change"}, {"time": 5032, "annotation": {"number": 64, "value": 122}, "group": "control_change"}, {"time": 5033, "annotation": {"number": 64, "value": 105}, "group": "control_change"}, {"time": 5033, "annotation": {"number": 64, "value": 69}, "group": "control_change"}, {"time": 5033, "annotation": {"number": 64, "value": 22}, "group": "control_change"}, {"time": 5034, "annotation": {"number": 64, "value": 0}, "group": "control_change"}, {"time": 5035, "annotation": {"number": 88, "value": 88}, "group": "control_change"}, {"time": 5038, "annotation": {"number": 64, "value": 20}, "group": "control_change"}, {"time": 5038, "annotation": {"number": 64, "value": 49}, "group": "control_change"}, {"time": 5039, "annotation": {"number": 64, "value": 71}, "group": "control_change"}, {"time": 5039, "annotation": {"number": 64, "value": 83}, "group": "control_change"}, {"time": 5039, "annotation": {"number": 64, "value": 96}, "group": "control_change"}, {"time": 5040, "annotation": {"number": 64, "value": 106}, "group": "control_change"}, {"time": 5040, "annotation": {"number": 64, "value": 112}, "group": "control_change"}, {"time": 5040, "annotation": {"number": 64, "value": 119}, "group": "control_change"}, {"time": 5040, "annotation": {"number": 88, "value": 44}, "group": "control_change"}, {"time": 5041, "annotation": {"number": 64, "value": 124}, "group": "control_change"}, {"time": 5041, "annotation": {"number": 64, "value": 127}, "group": "control_change"}, {"time": 5047, "annotation": {"number": 88, "value": 112}, "group": "control_change"}, {"time": 5048, "annotation": {"number": 88, "value": 51}, "group": "control_change"}, {"time": 5049, "annotation": {"number": 88, "value": 54}, "group": "control_change"}, {"time": 5050, "annotation": {"number": 88, "value": 43}, "group": "control_change"}, {"time": 5058, "annotation": {"number": 64, "value": 124}, "group": "control_change"}, {"time": 5059, "annotation": {"number": 64, "value": 87}, "group": "control_change"}, {"time": 5059, "annotation": {"number": 64, "value": 30}, "group": "control_change"}, {"time": 5059, "annotation": {"number": 64, "value": 0}, "group": "control_change"}, {"time": 5060, "annotation": {"number": 88, "value": 47}, "group": "control_change"}, {"time": 5061, "annotation": {"number": 88, "value": 86}, "group": "control_change"}, {"time": 5063, "annotation": {"number": 64, "value": 7}, "group": "control_change"}, {"time": 5063, "annotation": {"number": 64, "value": 44}, "group": "control_change"}, {"time": 5063, "annotation": {"number": 64, "value": 71}, "group": "control_change"}, {"time": 5064, "annotation": {"number": 64, "value": 85}, "group": "control_change"}, {"time": 5064, "annotation": {"number": 64, "value": 98}, "group": "control_change"}, {"time": 5064, "annotation": {"number": 64, "value": 108}, "group": "control_change"}, {"time": 5065, "annotation": {"number": 64, "value": 114}, "group": "control_change"}, {"time": 5065, "annotation": {"number": 64, "value": 120}, "group": "control_change"}, {"time": 5065, "annotation": {"number": 64, "value": 124}, "group": "control_change"}, {"time": 5066, "annotation": {"number": 64, "value": 127}, "group": "control_change"}, {"time": 5066, "annotation": {"number": 88, "value": 87}, "group": "control_change"}, {"time": 5067, "annotation": {"number": 88, "value": 122}, "group": "control_change"}, {"time": 5070, "annotation": {"number": 88, "value": 14}, "group": "control_change"}, {"time": 5071, "annotation": {"number": 88, "value": 47}, "group": "control_change"}, {"time": 5074, "annotation": {"number": 88, "value": 96}, "group": "control_change"}, {"time": 5076, "annotation": {"number": 88, "value": 97}, "group": "control_change"}, {"time": 5077, "annotation": {"number": 88, "value": 95}, "group": "control_change"}, {"time": 5081, "annotation": {"number": 88, "value": 56}, "group": "control_change"}, {"time": 5088, "annotation": {"number": 64, "value": 110}, "group": "control_change"}, {"time": 5088, "annotation": {"number": 64, "value": 73}, "group": "control_change"}, {"time": 5088, "annotation": {"number": 64, "value": 30}, "group": "control_change"}, {"time": 5089, "annotation": {"number": 64, "value": 0}, "group": "control_change"}, {"time": 5090, "annotation": {"number": 88, "value": 5}, "group": "control_change"}, {"time": 5093, "annotation": {"number": 64, "value": 34}, "group": "control_change"}, {"time": 5094, "annotation": {"number": 64, "value": 69}, "group": "control_change"}, {"time": 5094, "annotation": {"number": 64, "value": 88}, "group": "control_change"}, {"time": 5094, "annotation": {"number": 64, "value": 106}, "group": "control_change"}, {"time": 5095, "annotation": {"number": 64, "value": 120}, "group": "control_change"}, {"time": 5095, "annotation": {"number": 64, "value": 127}, "group": "control_change"}, {"time": 5098, "annotation": {"number": 88, "value": 95}, "group": "control_change"}, {"time": 5105, "annotation": {"number": 88, "value": 92}, "group": "control_change"}, {"time": 5108, "annotation": {"number": 88, "value": 83}, "group": "control_change"}, {"time": 5110, "annotation": {"number": 88, "value": 26}, "group": "control_change"}, {"time": 5113, "annotation": {"number": 88, "value": 67}, "group": "control_change"}, {"time": 5118, "annotation": {"number": 88, "value": 114}, "group": "control_change"}, {"time": 5119, "annotation": {"number": 88, "value": 67}, "group": "control_change"}, {"time": 5123, "annotation": {"number": 88, "value": 100}, "group": "control_change"}, {"time": 5136, "annotation": {"number": 64, "value": 106}, "group": "control_change"}, {"time": 5136, "annotation": {"number": 64, "value": 61}, "group": "control_change"}, {"time": 5136, "annotation": {"number": 64, "value": 8}, "group": "control_change"}, {"time": 5136, "annotation": {"number": 88, "value": 69}, "group": "control_change"}, {"time": 5137, "annotation": {"number": 64, "value": 0}, "group": "control_change"}, {"time": 5138, "annotation": {"number": 88, "value": 33}, "group": "control_change"}, {"time": 5139, "annotation": {"number": 64, "value": 15}, "group": "control_change"}, {"time": 5140, "annotation": {"number": 64, "value": 57}, "group": "control_change"}, {"time": 5140, "annotation": {"number": 64, "value": 91}, "group": "control_change"}, {"time": 5140, "annotation": {"number": 64, "value": 111}, "group": "control_change"}, {"time": 5141, "annotation": {"number": 64, "value": 127}, "group": "control_change"}, {"time": 5141, "annotation": {"number": 88, "value": 86}, "group": "control_change"}, {"time": 5145, "annotation": {"number": 88, "value": 61}, "group": "control_change"}, {"time": 5150, "annotation": {"number": 88, "value": 13}, "group": "control_change"}, {"time": 5155, "annotation": {"number": 88, "value": 65}, "group": "control_change"}, {"time": 5156, "annotation": {"number": 88, "value": 43}, "group": "control_change"}, {"time": 5159, "annotation": {"number": 88, "value": 40}, "group": "control_change"}, {"time": 5163, "annotation": {"number": 88, "value": 58}, "group": "control_change"}, {"time": 5164, "annotation": {"number": 88, "value": 2}, "group": "control_change"}, {"time": 5165, "annotation": {"number": 88, "value": 34}, "group": "control_change"}, {"time": 5168, "annotation": {"number": 88, "value": 127}, "group": "control_change"}, {"time": 5172, "annotation": {"number": 88, "value": 72}, "group": "control_change"}, {"time": 5173, "annotation": {"number": 88, "value": 104}, "group": "control_change"}, {"time": 5178, "annotation": {"number": 88, "value": 12}, "group": "control_change"}, {"time": 5179, "annotation": {"number": 88, "value": 122}, "group": "control_change"}, {"time": 5183, "annotation": {"number": 88, "value": 83}, "group": "control_change"}, {"time": 5185, "annotation": {"number": 88, "value": 57}, "group": "control_change"}, {"time": 5189, "annotation": {"number": 88, "value": 113}, "group": "control_change"}, {"time": 5196, "annotation": {"number": 88, "value": 100}, "group": "control_change"}, {"time": 5199, "annotation": {"number": 88, "value": 89}, "group": "control_change"}, {"time": 5204, "annotation": {"number": 88, "value": 117}, "group": "control_change"}, {"time": 5208, "annotation": {"number": 88, "value": 104}, "group": "control_change"}, {"time": 5210, "annotation": {"number": 88, "value": 0}, "group": "control_change"}, {"time": 5212, "annotation": {"number": 88, "value": 17}, "group": "control_change"}, {"time": 5217, "annotation": {"number": 88, "value": 96}, "group": "control_change"}, {"time": 5229, "annotation": {"number": 88, "value": 4}, "group": "control_change"}, {"time": 5231, "annotation": {"number": 88, "value": 37}, "group": "control_change"}, {"time": 5235, "annotation": {"number": 88, "value": 3}, "group": "control_change"}, {"time": 5238, "annotation": {"number": 88, "value": 65}, "group": "control_change"}]}]}