{"metadata": {"schema_version": "0.2", "title": "None", "source_filename": "189.mid", "source_format": "midi"}, "resolution": 12, "tempos": [{"time": 0, "qpm": 70.00007000007}], "time_signatures": [{"time": 0, "numerator": 4, "denominator": 4}], "tracks": [{"program": 0, "is_drum": false, "name": "MELODY", "notes": [{"time": 466, "pitch": 77, "duration": 6, "velocity": 103}, {"time": 472, "pitch": 75, "duration": 6, "velocity": 91}, {"time": 478, "pitch": 73, "duration": 6, "velocity": 87}, {"time": 484, "pitch": 77, "duration": 6, "velocity": 93}, {"time": 490, "pitch": 75, "duration": 13, "velocity": 90}, {"time": 508, "pitch": 73, "duration": 3, "velocity": 96}, {"time": 511, "pitch": 72, "duration": 3, "velocity": 85}, {"time": 514, "pitch": 70, "duration": 6, "velocity": 87}, {"time": 520, "pitch": 72, "duration": 6, "velocity": 91}, {"time": 526, "pitch": 73, "duration": 6, "velocity": 100}, {"time": 532, "pitch": 75, "duration": 6, "velocity": 98}, {"time": 538, "pitch": 77, "duration": 18, "velocity": 96}, {"time": 562, "pitch": 70, "duration": 5, "velocity": 93}, {"time": 568, "pitch": 72, "duration": 6, "velocity": 90}, {"time": 574, "pitch": 73, "duration": 6, "velocity": 74}, {"time": 580, "pitch": 75, "duration": 6, "velocity": 90}, {"time": 586, "pitch": 68, "duration": 11, "velocity": 84}, {"time": 598, "pitch": 77, "duration": 7, "velocity": 90}, {"time": 607, "pitch": 77, "duration": 4, "velocity": 86}, {"time": 610, "pitch": 75, "duration": 6, "velocity": 92}, {"time": 616, "pitch": 73, "duration": 6, "velocity": 84}, {"time": 622, "pitch": 70, "duration": 6, "velocity": 75}, {"time": 628, "pitch": 73, "duration": 6, "velocity": 98}, {"time": 634, "pitch": 75, "duration": 21, "velocity": 101}, {"time": 658, "pitch": 77, "duration": 5, "velocity": 92}, {"time": 664, "pitch": 75, "duration": 6, "velocity": 93}, {"time": 670, "pitch": 73, "duration": 6, "velocity": 87}, {"time": 676, "pitch": 77, "duration": 6, "velocity": 91}, {"time": 682, "pitch": 75, "duration": 17, "velocity": 95}, {"time": 700, "pitch": 73, "duration": 3, "velocity": 89}, {"time": 703, "pitch": 72, "duration": 3, "velocity": 89}, {"time": 706, "pitch": 70, "duration": 6, "velocity": 81}, {"time": 712, "pitch": 72, "duration": 6, "velocity": 72}, {"time": 718, "pitch": 73, "duration": 6, "velocity": 89}, {"time": 724, "pitch": 75, "duration": 6, "velocity": 90}, {"time": 730, "pitch": 77, "duration": 19, "velocity": 90}, {"time": 754, "pitch": 70, "duration": 5, "velocity": 91}, {"time": 760, "pitch": 72, "duration": 6, "velocity": 87}, {"time": 766, "pitch": 73, "duration": 5, "velocity": 87}, {"time": 772, "pitch": 82, "duration": 6, "velocity": 90}, {"time": 778, "pitch": 80, "duration": 12, "velocity": 98}, {"time": 790, "pitch": 73, "duration": 7, "velocity": 98}, {"time": 799, "pitch": 73, "duration": 3, "velocity": 87}, {"time": 802, "pitch": 78, "duration": 6, "velocity": 87}, {"time": 808, "pitch": 77, "duration": 6, "velocity": 77}, {"time": 814, "pitch": 78, "duration": 6, "velocity": 96}, {"time": 820, "pitch": 82, "duration": 6, "velocity": 93}, {"time": 826, "pitch": 80, "duration": 8, "velocity": 98}, {"time": 838, "pitch": 77, "duration": 6, "velocity": 109}, {"time": 844, "pitch": 75, "duration": 5, "velocity": 98}, {"time": 850, "pitch": 73, "duration": 11, "velocity": 90}, {"time": 862, "pitch": 77, "duration": 6, "velocity": 100}, {"time": 868, "pitch": 82, "duration": 6, "velocity": 93}, {"time": 874, "pitch": 80, "duration": 8, "velocity": 100}, {"time": 886, "pitch": 77, "duration": 5, "velocity": 100}, {"time": 892, "pitch": 75, "duration": 6, "velocity": 101}, {"time": 898, "pitch": 73, "duration": 6, "velocity": 97}, {"time": 904, "pitch": 70, "duration": 6, "velocity": 91}, {"time": 910, "pitch": 73, "duration": 6, "velocity": 99}, {"time": 916, "pitch": 75, "duration": 6, "velocity": 97}, {"time": 922, "pitch": 77, "duration": 7, "velocity": 103}, {"time": 934, "pitch": 77, "duration": 4, "velocity": 100}, {"time": 940, "pitch": 77, "duration": 5, "velocity": 96}, {"time": 946, "pitch": 84, "duration": 4, "velocity": 103}, {"time": 952, "pitch": 84, "duration": 4, "velocity": 96}, {"time": 958, "pitch": 84, "duration": 6, "velocity": 93}, {"time": 964, "pitch": 80, "duration": 6, "velocity": 99}, {"time": 970, "pitch": 73, "duration": 6, "velocity": 99}, {"time": 982, "pitch": 73, "duration": 6, "velocity": 109}, {"time": 988, "pitch": 72, "duration": 6, "velocity": 103}, {"time": 994, "pitch": 70, "duration": 6, "velocity": 93}, {"time": 1000, "pitch": 72, "duration": 6, "velocity": 97}, {"time": 1006, "pitch": 73, "duration": 6, "velocity": 96}, {"time": 1012, "pitch": 77, "duration": 6, "velocity": 90}, {"time": 1018, "pitch": 75, "duration": 6, "velocity": 94}, {"time": 1030, "pitch": 77, "duration": 6, "velocity": 101}, {"time": 1036, "pitch": 75, "duration": 6, "velocity": 99}, {"time": 1042, "pitch": 73, "duration": 12, "velocity": 89}, {"time": 1054, "pitch": 77, "duration": 6, "velocity": 99}, {"time": 1060, "pitch": 82, "duration": 6, "velocity": 93}, {"time": 1066, "pitch": 80, "duration": 7, "velocity": 100}, {"time": 1078, "pitch": 77, "duration": 7, "velocity": 97}, {"time": 1084, "pitch": 80, "duration": 6, "velocity": 98}, {"time": 1090, "pitch": 82, "duration": 4, "velocity": 103}, {"time": 1096, "pitch": 82, "duration": 6, "velocity": 103}, {"time": 1102, "pitch": 80, "duration": 6, "velocity": 95}, {"time": 1108, "pitch": 82, "duration": 6, "velocity": 100}, {"time": 1114, "pitch": 77, "duration": 6, "velocity": 96}, {"time": 1126, "pitch": 77, "duration": 4, "velocity": 96}, {"time": 1132, "pitch": 77, "duration": 4, "velocity": 87}, {"time": 1138, "pitch": 84, "duration": 3, "velocity": 105}, {"time": 1144, "pitch": 84, "duration": 4, "velocity": 97}, {"time": 1150, "pitch": 84, "duration": 3, "velocity": 99}, {"time": 1156, "pitch": 80, "duration": 3, "velocity": 95}, {"time": 1162, "pitch": 73, "duration": 6, "velocity": 97}, {"time": 1174, "pitch": 73, "duration": 6, "velocity": 109}, {"time": 1180, "pitch": 72, "duration": 6, "velocity": 100}, {"time": 1186, "pitch": 70, "duration": 6, "velocity": 87}, {"time": 1192, "pitch": 72, "duration": 5, "velocity": 96}, {"time": 1198, "pitch": 73, "duration": 5, "velocity": 95}, {"time": 1204, "pitch": 77, "duration": 6, "velocity": 93}, {"time": 1210, "pitch": 75, "duration": 6, "velocity": 99}, {"time": 1222, "pitch": 77, "duration": 11, "velocity": 106}, {"time": 1234, "pitch": 73, "duration": 36, "velocity": 114}, {"time": 1618, "pitch": 77, "duration": 6, "velocity": 103}, {"time": 1624, "pitch": 75, "duration": 6, "velocity": 91}, {"time": 1630, "pitch": 73, "duration": 6, "velocity": 87}, {"time": 1636, "pitch": 77, "duration": 6, "velocity": 93}, {"time": 1642, "pitch": 75, "duration": 13, "velocity": 90}, {"time": 1660, "pitch": 73, "duration": 3, "velocity": 96}, {"time": 1663, "pitch": 72, "duration": 3, "velocity": 85}, {"time": 1666, "pitch": 70, "duration": 6, "velocity": 87}, {"time": 1672, "pitch": 72, "duration": 6, "velocity": 91}, {"time": 1678, "pitch": 73, "duration": 6, "velocity": 100}, {"time": 1684, "pitch": 75, "duration": 6, "velocity": 98}, {"time": 1690, "pitch": 77, "duration": 18, "velocity": 96}, {"time": 1714, "pitch": 70, "duration": 5, "velocity": 93}, {"time": 1720, "pitch": 72, "duration": 6, "velocity": 90}, {"time": 1726, "pitch": 73, "duration": 6, "velocity": 74}, {"time": 1732, "pitch": 75, "duration": 6, "velocity": 90}, {"time": 1738, "pitch": 68, "duration": 11, "velocity": 84}, {"time": 1750, "pitch": 77, "duration": 7, "velocity": 90}, {"time": 1759, "pitch": 77, "duration": 4, "velocity": 86}, {"time": 1762, "pitch": 75, "duration": 6, "velocity": 92}, {"time": 1768, "pitch": 73, "duration": 6, "velocity": 84}, {"time": 1774, "pitch": 70, "duration": 6, "velocity": 75}, {"time": 1780, "pitch": 73, "duration": 6, "velocity": 98}, {"time": 1786, "pitch": 75, "duration": 21, "velocity": 101}, {"time": 1810, "pitch": 77, "duration": 5, "velocity": 92}, {"time": 1816, "pitch": 75, "duration": 6, "velocity": 93}, {"time": 1822, "pitch": 73, "duration": 6, "velocity": 87}, {"time": 1828, "pitch": 77, "duration": 6, "velocity": 91}, {"time": 1834, "pitch": 75, "duration": 17, "velocity": 95}, {"time": 1852, "pitch": 73, "duration": 3, "velocity": 89}, {"time": 1855, "pitch": 72, "duration": 3, "velocity": 89}, {"time": 1858, "pitch": 70, "duration": 6, "velocity": 81}, {"time": 1864, "pitch": 72, "duration": 6, "velocity": 72}, {"time": 1870, "pitch": 73, "duration": 6, "velocity": 89}, {"time": 1876, "pitch": 75, "duration": 6, "velocity": 90}, {"time": 1882, "pitch": 77, "duration": 19, "velocity": 90}, {"time": 1906, "pitch": 70, "duration": 5, "velocity": 91}, {"time": 1912, "pitch": 72, "duration": 6, "velocity": 87}, {"time": 1918, "pitch": 73, "duration": 5, "velocity": 87}, {"time": 1924, "pitch": 82, "duration": 6, "velocity": 90}, {"time": 1930, "pitch": 80, "duration": 12, "velocity": 98}, {"time": 1942, "pitch": 73, "duration": 7, "velocity": 98}, {"time": 1951, "pitch": 73, "duration": 3, "velocity": 87}, {"time": 1954, "pitch": 78, "duration": 6, "velocity": 87}, {"time": 1960, "pitch": 77, "duration": 6, "velocity": 77}, {"time": 1966, "pitch": 78, "duration": 6, "velocity": 96}, {"time": 1972, "pitch": 82, "duration": 6, "velocity": 93}, {"time": 1978, "pitch": 80, "duration": 8, "velocity": 98}, {"time": 1990, "pitch": 77, "duration": 6, "velocity": 109}, {"time": 1996, "pitch": 75, "duration": 5, "velocity": 98}, {"time": 2002, "pitch": 73, "duration": 11, "velocity": 90}, {"time": 2014, "pitch": 77, "duration": 6, "velocity": 100}, {"time": 2020, "pitch": 82, "duration": 6, "velocity": 93}, {"time": 2026, "pitch": 80, "duration": 8, "velocity": 100}, {"time": 2038, "pitch": 77, "duration": 5, "velocity": 100}, {"time": 2044, "pitch": 75, "duration": 6, "velocity": 101}, {"time": 2050, "pitch": 73, "duration": 6, "velocity": 97}, {"time": 2056, "pitch": 70, "duration": 6, "velocity": 91}, {"time": 2062, "pitch": 73, "duration": 6, "velocity": 99}, {"time": 2068, "pitch": 75, "duration": 6, "velocity": 97}, {"time": 2074, "pitch": 77, "duration": 7, "velocity": 103}, {"time": 2086, "pitch": 77, "duration": 4, "velocity": 100}, {"time": 2092, "pitch": 77, "duration": 5, "velocity": 96}, {"time": 2098, "pitch": 84, "duration": 4, "velocity": 103}, {"time": 2104, "pitch": 84, "duration": 4, "velocity": 96}, {"time": 2110, "pitch": 84, "duration": 6, "velocity": 93}, {"time": 2116, "pitch": 80, "duration": 6, "velocity": 99}, {"time": 2122, "pitch": 73, "duration": 6, "velocity": 99}, {"time": 2134, "pitch": 73, "duration": 6, "velocity": 109}, {"time": 2140, "pitch": 72, "duration": 6, "velocity": 103}, {"time": 2146, "pitch": 70, "duration": 6, "velocity": 93}, {"time": 2152, "pitch": 72, "duration": 6, "velocity": 97}, {"time": 2158, "pitch": 73, "duration": 6, "velocity": 96}, {"time": 2164, "pitch": 77, "duration": 6, "velocity": 90}, {"time": 2170, "pitch": 75, "duration": 6, "velocity": 94}, {"time": 2182, "pitch": 77, "duration": 6, "velocity": 101}, {"time": 2188, "pitch": 75, "duration": 6, "velocity": 99}, {"time": 2194, "pitch": 73, "duration": 12, "velocity": 89}, {"time": 2206, "pitch": 77, "duration": 6, "velocity": 99}, {"time": 2212, "pitch": 82, "duration": 6, "velocity": 93}, {"time": 2218, "pitch": 80, "duration": 7, "velocity": 100}, {"time": 2230, "pitch": 77, "duration": 7, "velocity": 97}, {"time": 2236, "pitch": 80, "duration": 6, "velocity": 98}, {"time": 2242, "pitch": 82, "duration": 4, "velocity": 103}, {"time": 2248, "pitch": 82, "duration": 6, "velocity": 103}, {"time": 2254, "pitch": 80, "duration": 6, "velocity": 95}, {"time": 2260, "pitch": 82, "duration": 6, "velocity": 100}, {"time": 2266, "pitch": 77, "duration": 6, "velocity": 96}, {"time": 2278, "pitch": 77, "duration": 4, "velocity": 96}, {"time": 2284, "pitch": 77, "duration": 4, "velocity": 87}, {"time": 2290, "pitch": 84, "duration": 3, "velocity": 105}, {"time": 2296, "pitch": 84, "duration": 4, "velocity": 97}, {"time": 2302, "pitch": 84, "duration": 3, "velocity": 99}, {"time": 2308, "pitch": 80, "duration": 3, "velocity": 95}, {"time": 2314, "pitch": 73, "duration": 6, "velocity": 97}, {"time": 2326, "pitch": 73, "duration": 6, "velocity": 109}, {"time": 2332, "pitch": 72, "duration": 6, "velocity": 100}, {"time": 2338, "pitch": 70, "duration": 6, "velocity": 87}, {"time": 2344, "pitch": 72, "duration": 5, "velocity": 96}, {"time": 2350, "pitch": 73, "duration": 5, "velocity": 95}, {"time": 2356, "pitch": 77, "duration": 6, "velocity": 93}, {"time": 2362, "pitch": 75, "duration": 6, "velocity": 99}, {"time": 2374, "pitch": 77, "duration": 6, "velocity": 100}, {"time": 2374, "pitch": 77, "duration": 6, "velocity": 106}, {"time": 2374, "pitch": 77, "duration": 6, "velocity": 109}, {"time": 2380, "pitch": 75, "duration": 5, "velocity": 98}, {"time": 2386, "pitch": 73, "duration": 12, "velocity": 90}, {"time": 2386, "pitch": 73, "duration": 12, "velocity": 100}, {"time": 2386, "pitch": 73, "duration": 12, "velocity": 114}, {"time": 2398, "pitch": 77, "duration": 6, "velocity": 100}, {"time": 2404, "pitch": 82, "duration": 6, "velocity": 93}, {"time": 2410, "pitch": 80, "duration": 8, "velocity": 100}, {"time": 2422, "pitch": 77, "duration": 6, "velocity": 100}, {"time": 2428, "pitch": 75, "duration": 6, "velocity": 101}, {"time": 2434, "pitch": 73, "duration": 6, "velocity": 97}, {"time": 2440, "pitch": 70, "duration": 6, "velocity": 91}, {"time": 2446, "pitch": 73, "duration": 6, "velocity": 99}, {"time": 2452, "pitch": 75, "duration": 7, "velocity": 97}, {"time": 2458, "pitch": 77, "duration": 8, "velocity": 103}, {"time": 2470, "pitch": 77, "duration": 4, "velocity": 100}, {"time": 2476, "pitch": 77, "duration": 6, "velocity": 96}, {"time": 2482, "pitch": 84, "duration": 4, "velocity": 103}, {"time": 2488, "pitch": 84, "duration": 4, "velocity": 96}, {"time": 2494, "pitch": 84, "duration": 6, "velocity": 93}, {"time": 2500, "pitch": 80, "duration": 6, "velocity": 99}, {"time": 2506, "pitch": 73, "duration": 7, "velocity": 99}, {"time": 2518, "pitch": 73, "duration": 6, "velocity": 109}, {"time": 2524, "pitch": 72, "duration": 6, "velocity": 103}, {"time": 2530, "pitch": 70, "duration": 6, "velocity": 93}, {"time": 2536, "pitch": 72, "duration": 6, "velocity": 97}, {"time": 2542, "pitch": 73, "duration": 6, "velocity": 96}, {"time": 2548, "pitch": 77, "duration": 6, "velocity": 90}, {"time": 2554, "pitch": 75, "duration": 6, "velocity": 94}, {"time": 2566, "pitch": 77, "duration": 6, "velocity": 101}, {"time": 2572, "pitch": 75, "duration": 6, "velocity": 99}, {"time": 2578, "pitch": 73, "duration": 12, "velocity": 89}, {"time": 2590, "pitch": 77, "duration": 6, "velocity": 99}, {"time": 2596, "pitch": 82, "duration": 6, "velocity": 93}, {"time": 2602, "pitch": 80, "duration": 7, "velocity": 100}, {"time": 2614, "pitch": 77, "duration": 7, "velocity": 97}, {"time": 2620, "pitch": 80, "duration": 6, "velocity": 98}, {"time": 2626, "pitch": 82, "duration": 4, "velocity": 103}, {"time": 2632, "pitch": 82, "duration": 6, "velocity": 103}, {"time": 2638, "pitch": 80, "duration": 6, "velocity": 95}, {"time": 2644, "pitch": 82, "duration": 6, "velocity": 100}, {"time": 2650, "pitch": 77, "duration": 6, "velocity": 96}, {"time": 2662, "pitch": 77, "duration": 4, "velocity": 96}, {"time": 2668, "pitch": 77, "duration": 4, "velocity": 87}, {"time": 2674, "pitch": 84, "duration": 3, "velocity": 105}, {"time": 2680, "pitch": 84, "duration": 4, "velocity": 97}, {"time": 2686, "pitch": 84, "duration": 3, "velocity": 99}, {"time": 2692, "pitch": 80, "duration": 3, "velocity": 95}, {"time": 2698, "pitch": 73, "duration": 6, "velocity": 97}, {"time": 2710, "pitch": 73, "duration": 6, "velocity": 109}, {"time": 2716, "pitch": 72, "duration": 6, "velocity": 100}, {"time": 2722, "pitch": 70, "duration": 6, "velocity": 87}, {"time": 2728, "pitch": 72, "duration": 5, "velocity": 96}, {"time": 2734, "pitch": 73, "duration": 5, "velocity": 95}, {"time": 2740, "pitch": 77, "duration": 6, "velocity": 93}, {"time": 2746, "pitch": 75, "duration": 6, "velocity": 99}, {"time": 2758, "pitch": 77, "duration": 6, "velocity": 105}, {"time": 2764, "pitch": 75, "duration": 6, "velocity": 94}, {"time": 2770, "pitch": 73, "duration": 12, "velocity": 92}, {"time": 2782, "pitch": 77, "duration": 5, "velocity": 98}, {"time": 2788, "pitch": 82, "duration": 6, "velocity": 90}, {"time": 2794, "pitch": 80, "duration": 7, "velocity": 96}, {"time": 2806, "pitch": 77, "duration": 6, "velocity": 99}, {"time": 2812, "pitch": 75, "duration": 6, "velocity": 91}, {"time": 2818, "pitch": 73, "duration": 5, "velocity": 94}, {"time": 2824, "pitch": 70, "duration": 6, "velocity": 91}, {"time": 2830, "pitch": 73, "duration": 6, "velocity": 103}, {"time": 2836, "pitch": 75, "duration": 7, "velocity": 98}, {"time": 2842, "pitch": 77, "duration": 7, "velocity": 101}, {"time": 2854, "pitch": 77, "duration": 4, "velocity": 97}, {"time": 2860, "pitch": 77, "duration": 5, "velocity": 92}, {"time": 2866, "pitch": 84, "duration": 4, "velocity": 101}, {"time": 2872, "pitch": 84, "duration": 4, "velocity": 96}, {"time": 2878, "pitch": 84, "duration": 6, "velocity": 97}, {"time": 2884, "pitch": 80, "duration": 6, "velocity": 96}, {"time": 2890, "pitch": 73, "duration": 7, "velocity": 95}, {"time": 2902, "pitch": 73, "duration": 6, "velocity": 101}, {"time": 2908, "pitch": 72, "duration": 5, "velocity": 98}, {"time": 2914, "pitch": 70, "duration": 6, "velocity": 91}, {"time": 2920, "pitch": 72, "duration": 6, "velocity": 94}, {"time": 2926, "pitch": 73, "duration": 6, "velocity": 97}, {"time": 2932, "pitch": 77, "duration": 7, "velocity": 91}, {"time": 2938, "pitch": 75, "duration": 9, "velocity": 100}, {"time": 2950, "pitch": 77, "duration": 6, "velocity": 105}, {"time": 2956, "pitch": 75, "duration": 6, "velocity": 94}, {"time": 2962, "pitch": 73, "duration": 12, "velocity": 92}, {"time": 2974, "pitch": 77, "duration": 5, "velocity": 98}, {"time": 2980, "pitch": 82, "duration": 6, "velocity": 90}, {"time": 2986, "pitch": 80, "duration": 7, "velocity": 96}, {"time": 2998, "pitch": 77, "duration": 6, "velocity": 99}, {"time": 3004, "pitch": 75, "duration": 6, "velocity": 91}, {"time": 3010, "pitch": 73, "duration": 5, "velocity": 94}, {"time": 3016, "pitch": 70, "duration": 6, "velocity": 91}, {"time": 3022, "pitch": 73, "duration": 6, "velocity": 103}, {"time": 3028, "pitch": 75, "duration": 7, "velocity": 98}, {"time": 3034, "pitch": 77, "duration": 7, "velocity": 101}, {"time": 3046, "pitch": 77, "duration": 4, "velocity": 97}, {"time": 3052, "pitch": 77, "duration": 5, "velocity": 92}, {"time": 3058, "pitch": 84, "duration": 4, "velocity": 101}, {"time": 3064, "pitch": 84, "duration": 4, "velocity": 96}, {"time": 3070, "pitch": 84, "duration": 6, "velocity": 97}, {"time": 3076, "pitch": 80, "duration": 6, "velocity": 96}, {"time": 3082, "pitch": 73, "duration": 7, "velocity": 95}, {"time": 3094, "pitch": 73, "duration": 6, "velocity": 101}, {"time": 3100, "pitch": 72, "duration": 5, "velocity": 98}, {"time": 3106, "pitch": 70, "duration": 6, "velocity": 91}, {"time": 3112, "pitch": 72, "duration": 6, "velocity": 94}, {"time": 3118, "pitch": 73, "duration": 6, "velocity": 97}, {"time": 3124, "pitch": 77, "duration": 7, "velocity": 91}, {"time": 3130, "pitch": 75, "duration": 13, "velocity": 100}, {"time": 3142, "pitch": 77, "duration": 11, "velocity": 111}, {"time": 3154, "pitch": 73, "duration": 38, "velocity": 100}], "annotations": [{"time": 466, "annotation": {"number": 64, "value": 127}, "group": "control_change"}, {"time": 473, "annotation": {"number": 64, "value": 0}, "group": "control_change"}, {"time": 483, "annotation": {"number": 64, "value": 0}, "group": "control_change"}, {"time": 579, "annotation": {"number": 64, "value": 0}, "group": "control_change"}, {"time": 923, "annotation": {"number": 64, "value": 127}, "group": "control_change"}, {"time": 937, "annotation": {"number": 64, "value": 0}, "group": "control_change"}, {"time": 1618, "annotation": {"number": 64, "value": 127}, "group": "control_change"}, {"time": 1624, "annotation": {"number": 64, "value": 0}, "group": "control_change"}, {"time": 1635, "annotation": {"number": 64, "value": 0}, "group": "control_change"}, {"time": 1731, "annotation": {"number": 64, "value": 0}, "group": "control_change"}, {"time": 2075, "annotation": {"number": 64, "value": 127}, "group": "control_change"}, {"time": 2089, "annotation": {"number": 64, "value": 0}, "group": "control_change"}, {"time": 2459, "annotation": {"number": 64, "value": 127}, "group": "control_change"}, {"time": 2473, "annotation": {"number": 64, "value": 0}, "group": "control_change"}, {"time": 2917, "annotation": {"number": 1, "value": 1}, "group": "control_change"}, {"time": 2918, "annotation": {"number": 1, "value": 0}, "group": "control_change"}, {"time": 2920, "annotation": {"number": 1, "value": 1}, "group": "control_change"}, {"time": 2921, "annotation": {"number": 1, "value": 0}, "group": "control_change"}, {"time": 2923, "annotation": {"number": 1, "value": 1}, "group": "control_change"}, {"time": 2926, "annotation": {"number": 1, "value": 0}, "group": "control_change"}, {"time": 2937, "annotation": {"number": 1, "value": 1}, "group": "control_change"}, {"time": 2942, "annotation": {"number": 1, "value": 0}, "group": "control_change"}, {"time": 3110, "annotation": {"number": 1, "value": 1}, "group": "control_change"}, {"time": 3110, "annotation": {"number": 1, "value": 0}, "group": "control_change"}, {"time": 3113, "annotation": {"number": 1, "value": 1}, "group": "control_change"}, {"time": 3113, "annotation": {"number": 1, "value": 0}, "group": "control_change"}, {"time": 3115, "annotation": {"number": 1, "value": 1}, "group": "control_change"}, {"time": 3119, "annotation": {"number": 1, "value": 0}, "group": "control_change"}, {"time": 3129, "annotation": {"number": 1, "value": 1}, "group": "control_change"}, {"time": 3134, "annotation": {"number": 1, "value": 0}, "group": "control_change"}, {"time": 3155, "annotation": {"number": 1, "value": 1}, "group": "control_change"}, {"time": 3155, "annotation": {"number": 1, "value": 2}, "group": "control_change"}, {"time": 3156, "annotation": {"number": 1, "value": 1}, "group": "control_change"}, {"time": 3158, "annotation": {"number": 1, "value": 3}, "group": "control_change"}, {"time": 3158, "annotation": {"number": 1, "value": 5}, "group": "control_change"}, {"time": 3163, "annotation": {"number": 1, "value": 2}, "group": "control_change"}, {"time": 3169, "annotation": {"number": 1, "value": 3}, "group": "control_change"}, {"time": 3180, "annotation": {"number": 1, "value": 2}, "group": "control_change"}]}, {"program": 0, "is_drum": false, "name": "PIANO", "notes": [{"time": 82, "pitch": 61, "duration": 17, "velocity": 49}, {"time": 88, "pitch": 68, "duration": 12, "velocity": 38}, {"time": 94, "pitch": 73, "duration": 5, "velocity": 44}, {"time": 94, "pitch": 80, "duration": 6, "velocity": 49}, {"time": 106, "pitch": 60, "duration": 12, "velocity": 44}, {"time": 112, "pitch": 68, "duration": 7, "velocity": 41}, {"time": 118, "pitch": 72, "duration": 7, "velocity": 49}, {"time": 130, "pitch": 66, "duration": 15, "velocity": 49}, {"time": 136, "pitch": 73, "duration": 9, "velocity": 41}, {"time": 142, "pitch": 78, "duration": 3, "velocity": 55}, {"time": 154, "pitch": 61, "duration": 14, "velocity": 49}, {"time": 154, "pitch": 80, "duration": 8, "velocity": 49}, {"time": 160, "pitch": 68, "duration": 9, "velocity": 39}, {"time": 166, "pitch": 73, "duration": 2, "velocity": 54}, {"time": 166, "pitch": 80, "duration": 3, "velocity": 48}, {"time": 178, "pitch": 53, "duration": 16, "velocity": 48}, {"time": 184, "pitch": 60, "duration": 10, "velocity": 29}, {"time": 190, "pitch": 65, "duration": 5, "velocity": 49}, {"time": 202, "pitch": 58, "duration": 15, "velocity": 61}, {"time": 208, "pitch": 65, "duration": 8, "velocity": 46}, {"time": 214, "pitch": 70, "duration": 2, "velocity": 53}, {"time": 226, "pitch": 54, "duration": 16, "velocity": 51}, {"time": 232, "pitch": 61, "duration": 11, "velocity": 51}, {"time": 238, "pitch": 66, "duration": 4, "velocity": 55}, {"time": 250, "pitch": 56, "duration": 18, "velocity": 70}, {"time": 253, "pitch": 63, "duration": 14, "velocity": 59}, {"time": 256, "pitch": 68, "duration": 8, "velocity": 66}, {"time": 259, "pitch": 70, "duration": 4, "velocity": 72}, {"time": 262, "pitch": 72, "duration": 3, "velocity": 66}, {"time": 265, "pitch": 73, "duration": 3, "velocity": 82}, {"time": 268, "pitch": 75, "duration": 3, "velocity": 66}, {"time": 271, "pitch": 78, "duration": 4, "velocity": 64}, {"time": 274, "pitch": 49, "duration": 18, "velocity": 61}, {"time": 274, "pitch": 68, "duration": 5, "velocity": 66}, {"time": 274, "pitch": 73, "duration": 4, "velocity": 75}, {"time": 280, "pitch": 56, "duration": 6, "velocity": 56}, {"time": 280, "pitch": 65, "duration": 5, "velocity": 63}, {"time": 280, "pitch": 72, "duration": 5, "velocity": 64}, {"time": 286, "pitch": 61, "duration": 5, "velocity": 56}, {"time": 286, "pitch": 68, "duration": 6, "velocity": 62}, {"time": 286, "pitch": 73, "duration": 5, "velocity": 78}, {"time": 292, "pitch": 56, "duration": 2, "velocity": 66}, {"time": 298, "pitch": 41, "duration": 6, "velocity": 60}, {"time": 298, "pitch": 68, "duration": 6, "velocity": 69}, {"time": 298, "pitch": 72, "duration": 4, "velocity": 28}, {"time": 298, "pitch": 75, "duration": 5, "velocity": 72}, {"time": 304, "pitch": 53, "duration": 6, "velocity": 60}, {"time": 304, "pitch": 63, "duration": 6, "velocity": 47}, {"time": 310, "pitch": 56, "duration": 7, "velocity": 60}, {"time": 310, "pitch": 68, "duration": 5, "velocity": 72}, {"time": 310, "pitch": 72, "duration": 6, "velocity": 69}, {"time": 316, "pitch": 60, "duration": 1, "velocity": 59}, {"time": 316, "pitch": 63, "duration": 5, "velocity": 62}, {"time": 322, "pitch": 42, "duration": 6, "velocity": 70}, {"time": 322, "pitch": 66, "duration": 5, "velocity": 63}, {"time": 322, "pitch": 70, "duration": 5, "velocity": 60}, {"time": 328, "pitch": 49, "duration": 6, "velocity": 56}, {"time": 328, "pitch": 61, "duration": 4, "velocity": 64}, {"time": 334, "pitch": 44, "duration": 7, "velocity": 67}, {"time": 334, "pitch": 68, "duration": 6, "velocity": 70}, {"time": 334, "pitch": 72, "duration": 6, "velocity": 70}, {"time": 340, "pitch": 51, "duration": 1, "velocity": 62}, {"time": 346, "pitch": 49, "duration": 19, "velocity": 69}, {"time": 346, "pitch": 63, "duration": 5, "velocity": 62}, {"time": 346, "pitch": 65, "duration": 5, "velocity": 66}, {"time": 346, "pitch": 68, "duration": 5, "velocity": 70}, {"time": 352, "pitch": 56, "duration": 7, "velocity": 55}, {"time": 358, "pitch": 61, "duration": 5, "velocity": 51}, {"time": 358, "pitch": 68, "duration": 5, "velocity": 69}, {"time": 358, "pitch": 73, "duration": 5, "velocity": 73}, {"time": 364, "pitch": 56, "duration": 2, "velocity": 57}, {"time": 364, "pitch": 63, "duration": 3, "velocity": 63}, {"time": 364, "pitch": 72, "duration": 4, "velocity": 70}, {"time": 370, "pitch": 41, "duration": 18, "velocity": 64}, {"time": 370, "pitch": 53, "duration": 18, "velocity": 56}, {"time": 370, "pitch": 68, "duration": 6, "velocity": 66}, {"time": 370, "pitch": 72, "duration": 5, "velocity": 66}, {"time": 376, "pitch": 65, "duration": 5, "velocity": 59}, {"time": 382, "pitch": 68, "duration": 6, "velocity": 73}, {"time": 382, "pitch": 72, "duration": 5, "velocity": 70}, {"time": 388, "pitch": 65, "duration": 2, "velocity": 60}, {"time": 394, "pitch": 46, "duration": 17, "velocity": 62}, {"time": 394, "pitch": 65, "duration": 6, "velocity": 63}, {"time": 394, "pitch": 70, "duration": 5, "velocity": 73}, {"time": 400, "pitch": 58, "duration": 9, "velocity": 48}, {"time": 400, "pitch": 61, "duration": 5, "velocity": 51}, {"time": 406, "pitch": 65, "duration": 6, "velocity": 78}, {"time": 406, "pitch": 70, "duration": 5, "velocity": 75}, {"time": 412, "pitch": 61, "duration": 4, "velocity": 70}, {"time": 418, "pitch": 42, "duration": 5, "velocity": 67}, {"time": 418, "pitch": 54, "duration": 6, "velocity": 58}, {"time": 418, "pitch": 66, "duration": 5, "velocity": 75}, {"time": 418, "pitch": 70, "duration": 5, "velocity": 70}, {"time": 430, "pitch": 44, "duration": 4, "velocity": 67}, {"time": 430, "pitch": 56, "duration": 5, "velocity": 66}, {"time": 430, "pitch": 60, "duration": 5, "velocity": 60}, {"time": 430, "pitch": 63, "duration": 5, "velocity": 66}, {"time": 430, "pitch": 68, "duration": 5, "velocity": 66}, {"time": 442, "pitch": 49, "duration": 24, "velocity": 58}, {"time": 442, "pitch": 68, "duration": 6, "velocity": 67}, {"time": 442, "pitch": 73, "duration": 5, "velocity": 66}, {"time": 448, "pitch": 56, "duration": 18, "velocity": 37}, {"time": 448, "pitch": 65, "duration": 6, "velocity": 51}, {"time": 454, "pitch": 61, "duration": 12, "velocity": 44}, {"time": 454, "pitch": 68, "duration": 6, "velocity": 62}, {"time": 454, "pitch": 73, "duration": 5, "velocity": 70}, {"time": 460, "pitch": 65, "duration": 6, "velocity": 54}, {"time": 466, "pitch": 49, "duration": 15, "velocity": 43}, {"time": 466, "pitch": 61, "duration": 15, "velocity": 46}, {"time": 466, "pitch": 68, "duration": 6, "velocity": 53}, {"time": 466, "pitch": 73, "duration": 6, "velocity": 58}, {"time": 472, "pitch": 65, "duration": 7, "velocity": 40}, {"time": 478, "pitch": 68, "duration": 6, "velocity": 59}, {"time": 478, "pitch": 73, "duration": 5, "velocity": 66}, {"time": 484, "pitch": 65, "duration": 5, "velocity": 52}, {"time": 490, "pitch": 56, "duration": 25, "velocity": 57}, {"time": 490, "pitch": 68, "duration": 6, "velocity": 63}, {"time": 490, "pitch": 72, "duration": 5, "velocity": 64}, {"time": 496, "pitch": 63, "duration": 5, "velocity": 42}, {"time": 502, "pitch": 68, "duration": 6, "velocity": 53}, {"time": 502, "pitch": 72, "duration": 5, "velocity": 55}, {"time": 508, "pitch": 63, "duration": 5, "velocity": 40}, {"time": 514, "pitch": 58, "duration": 15, "velocity": 59}, {"time": 514, "pitch": 70, "duration": 6, "velocity": 60}, {"time": 514, "pitch": 73, "duration": 6, "velocity": 61}, {"time": 520, "pitch": 65, "duration": 7, "velocity": 47}, {"time": 526, "pitch": 70, "duration": 5, "velocity": 58}, {"time": 526, "pitch": 73, "duration": 11, "velocity": 56}, {"time": 532, "pitch": 65, "duration": 6, "velocity": 58}, {"time": 538, "pitch": 53, "duration": 17, "velocity": 44}, {"time": 538, "pitch": 60, "duration": 18, "velocity": 51}, {"time": 538, "pitch": 68, "duration": 6, "velocity": 49}, {"time": 538, "pitch": 72, "duration": 6, "velocity": 59}, {"time": 544, "pitch": 65, "duration": 6, "velocity": 44}, {"time": 550, "pitch": 68, "duration": 6, "velocity": 51}, {"time": 550, "pitch": 72, "duration": 6, "velocity": 58}, {"time": 556, "pitch": 65, "duration": 6, "velocity": 48}, {"time": 562, "pitch": 54, "duration": 17, "velocity": 55}, {"time": 562, "pitch": 66, "duration": 7, "velocity": 56}, {"time": 562, "pitch": 70, "duration": 6, "velocity": 59}, {"time": 568, "pitch": 61, "duration": 7, "velocity": 49}, {"time": 574, "pitch": 66, "duration": 6, "velocity": 67}, {"time": 574, "pitch": 70, "duration": 5, "velocity": 59}, {"time": 580, "pitch": 61, "duration": 5, "velocity": 54}, {"time": 586, "pitch": 49, "duration": 17, "velocity": 45}, {"time": 586, "pitch": 68, "duration": 6, "velocity": 53}, {"time": 586, "pitch": 73, "duration": 5, "velocity": 46}, {"time": 592, "pitch": 65, "duration": 7, "velocity": 49}, {"time": 598, "pitch": 68, "duration": 6, "velocity": 56}, {"time": 598, "pitch": 73, "duration": 5, "velocity": 50}, {"time": 604, "pitch": 65, "duration": 5, "velocity": 58}, {"time": 604, "pitch": 73, "duration": 5, "velocity": 27}, {"time": 610, "pitch": 42, "duration": 16, "velocity": 56}, {"time": 610, "pitch": 66, "duration": 6, "velocity": 58}, {"time": 610, "pitch": 70, "duration": 5, "velocity": 56}, {"time": 616, "pitch": 61, "duration": 7, "velocity": 49}, {"time": 622, "pitch": 66, "duration": 6, "velocity": 59}, {"time": 622, "pitch": 70, "duration": 5, "velocity": 60}, {"time": 628, "pitch": 61, "duration": 4, "velocity": 54}, {"time": 634, "pitch": 44, "duration": 17, "velocity": 54}, {"time": 634, "pitch": 68, "duration": 5, "velocity": 60}, {"time": 634, "pitch": 72, "duration": 6, "velocity": 58}, {"time": 640, "pitch": 51, "duration": 11, "velocity": 43}, {"time": 646, "pitch": 56, "duration": 6, "velocity": 49}, {"time": 646, "pitch": 61, "duration": 4, "velocity": 55}, {"time": 646, "pitch": 66, "duration": 5, "velocity": 63}, {"time": 652, "pitch": 68, "duration": 4, "velocity": 58}, {"time": 658, "pitch": 49, "duration": 18, "velocity": 60}, {"time": 658, "pitch": 65, "duration": 5, "velocity": 63}, {"time": 658, "pitch": 68, "duration": 6, "velocity": 57}, {"time": 658, "pitch": 73, "duration": 7, "velocity": 58}, {"time": 664, "pitch": 56, "duration": 8, "velocity": 39}, {"time": 670, "pitch": 61, "duration": 6, "velocity": 43}, {"time": 670, "pitch": 63, "duration": 6, "velocity": 49}, {"time": 670, "pitch": 65, "duration": 6, "velocity": 53}, {"time": 670, "pitch": 68, "duration": 6, "velocity": 61}, {"time": 676, "pitch": 56, "duration": 3, "velocity": 48}, {"time": 682, "pitch": 44, "duration": 16, "velocity": 39}, {"time": 682, "pitch": 56, "duration": 18, "velocity": 44}, {"time": 682, "pitch": 63, "duration": 3, "velocity": 47}, {"time": 682, "pitch": 68, "duration": 6, "velocity": 50}, {"time": 682, "pitch": 72, "duration": 5, "velocity": 52}, {"time": 688, "pitch": 63, "duration": 5, "velocity": 45}, {"time": 694, "pitch": 68, "duration": 6, "velocity": 66}, {"time": 700, "pitch": 72, "duration": 5, "velocity": 51}, {"time": 706, "pitch": 46, "duration": 15, "velocity": 57}, {"time": 706, "pitch": 65, "duration": 11, "velocity": 56}, {"time": 706, "pitch": 68, "duration": 6, "velocity": 64}, {"time": 706, "pitch": 73, "duration": 6, "velocity": 70}, {"time": 712, "pitch": 53, "duration": 10, "velocity": 37}, {"time": 718, "pitch": 58, "duration": 5, "velocity": 46}, {"time": 718, "pitch": 68, "duration": 6, "velocity": 66}, {"time": 718, "pitch": 73, "duration": 4, "velocity": 60}, {"time": 724, "pitch": 65, "duration": 5, "velocity": 57}, {"time": 730, "pitch": 53, "duration": 17, "velocity": 62}, {"time": 730, "pitch": 68, "duration": 6, "velocity": 62}, {"time": 730, "pitch": 72, "duration": 5, "velocity": 61}, {"time": 736, "pitch": 60, "duration": 11, "velocity": 47}, {"time": 736, "pitch": 63, "duration": 7, "velocity": 56}, {"time": 742, "pitch": 68, "duration": 6, "velocity": 67}, {"time": 748, "pitch": 72, "duration": 1, "velocity": 61}, {"time": 754, "pitch": 42, "duration": 19, "velocity": 57}, {"time": 754, "pitch": 61, "duration": 6, "velocity": 61}, {"time": 754, "pitch": 66, "duration": 5, "velocity": 49}, {"time": 754, "pitch": 70, "duration": 5, "velocity": 64}, {"time": 760, "pitch": 49, "duration": 8, "velocity": 47}, {"time": 766, "pitch": 54, "duration": 7, "velocity": 50}, {"time": 766, "pitch": 58, "duration": 6, "velocity": 58}, {"time": 766, "pitch": 61, "duration": 6, "velocity": 66}, {"time": 766, "pitch": 66, "duration": 5, "velocity": 66}, {"time": 772, "pitch": 49, "duration": 5, "velocity": 41}, {"time": 778, "pitch": 53, "duration": 7, "velocity": 62}, {"time": 778, "pitch": 63, "duration": 5, "velocity": 56}, {"time": 778, "pitch": 68, "duration": 5, "velocity": 66}, {"time": 778, "pitch": 72, "duration": 5, "velocity": 64}, {"time": 784, "pitch": 60, "duration": 1, "velocity": 57}, {"time": 790, "pitch": 46, "duration": 5, "velocity": 40}, {"time": 790, "pitch": 58, "duration": 6, "velocity": 39}, {"time": 790, "pitch": 65, "duration": 6, "velocity": 58}, {"time": 790, "pitch": 68, "duration": 5, "velocity": 62}, {"time": 790, "pitch": 73, "duration": 5, "velocity": 62}, {"time": 802, "pitch": 51, "duration": 17, "velocity": 64}, {"time": 802, "pitch": 61, "duration": 5, "velocity": 62}, {"time": 802, "pitch": 66, "duration": 6, "velocity": 69}, {"time": 802, "pitch": 70, "duration": 5, "velocity": 66}, {"time": 808, "pitch": 58, "duration": 11, "velocity": 41}, {"time": 808, "pitch": 61, "duration": 6, "velocity": 56}, {"time": 814, "pitch": 66, "duration": 6, "velocity": 73}, {"time": 820, "pitch": 70, "duration": 5, "velocity": 66}, {"time": 826, "pitch": 44, "duration": 17, "velocity": 69}, {"time": 826, "pitch": 73, "duration": 2, "velocity": 73}, {"time": 829, "pitch": 51, "duration": 14, "velocity": 70}, {"time": 832, "pitch": 56, "duration": 13, "velocity": 67}, {"time": 835, "pitch": 61, "duration": 3, "velocity": 62}, {"time": 838, "pitch": 63, "duration": 1, "velocity": 56}, {"time": 841, "pitch": 66, "duration": 3, "velocity": 63}, {"time": 844, "pitch": 73, "duration": 3, "velocity": 54}, {"time": 847, "pitch": 75, "duration": 3, "velocity": 64}, {"time": 850, "pitch": 49, "duration": 17, "velocity": 66}, {"time": 850, "pitch": 68, "duration": 4, "velocity": 58}, {"time": 850, "pitch": 77, "duration": 4, "velocity": 69}, {"time": 853, "pitch": 56, "duration": 15, "velocity": 60}, {"time": 856, "pitch": 61, "duration": 7, "velocity": 56}, {"time": 859, "pitch": 65, "duration": 6, "velocity": 48}, {"time": 862, "pitch": 68, "duration": 5, "velocity": 75}, {"time": 862, "pitch": 73, "duration": 4, "velocity": 75}, {"time": 865, "pitch": 61, "duration": 4, "velocity": 55}, {"time": 868, "pitch": 65, "duration": 3, "velocity": 57}, {"time": 871, "pitch": 75, "duration": 5, "velocity": 61}, {"time": 874, "pitch": 53, "duration": 18, "velocity": 69}, {"time": 874, "pitch": 63, "duration": 4, "velocity": 63}, {"time": 874, "pitch": 68, "duration": 4, "velocity": 63}, {"time": 874, "pitch": 72, "duration": 5, "velocity": 64}, {"time": 877, "pitch": 60, "duration": 9, "velocity": 62}, {"time": 880, "pitch": 63, "duration": 5, "velocity": 52}, {"time": 883, "pitch": 68, "duration": 4, "velocity": 62}, {"time": 886, "pitch": 72, "duration": 5, "velocity": 69}, {"time": 889, "pitch": 60, "duration": 3, "velocity": 63}, {"time": 892, "pitch": 63, "duration": 3, "velocity": 57}, {"time": 895, "pitch": 68, "duration": 2, "velocity": 47}, {"time": 898, "pitch": 42, "duration": 7, "velocity": 69}, {"time": 898, "pitch": 61, "duration": 4, "velocity": 60}, {"time": 898, "pitch": 66, "duration": 4, "velocity": 60}, {"time": 898, "pitch": 70, "duration": 4, "velocity": 61}, {"time": 901, "pitch": 54, "duration": 8, "velocity": 55}, {"time": 904, "pitch": 61, "duration": 3, "velocity": 61}, {"time": 907, "pitch": 66, "duration": 8, "velocity": 64}, {"time": 910, "pitch": 44, "duration": 5, "velocity": 67}, {"time": 910, "pitch": 61, "duration": 4, "velocity": 60}, {"time": 910, "pitch": 70, "duration": 5, "velocity": 63}, {"time": 913, "pitch": 56, "duration": 7, "velocity": 59}, {"time": 916, "pitch": 61, "duration": 3, "velocity": 60}, {"time": 919, "pitch": 68, "duration": 9, "velocity": 58}, {"time": 922, "pitch": 49, "duration": 18, "velocity": 67}, {"time": 922, "pitch": 65, "duration": 6, "velocity": 63}, {"time": 922, "pitch": 73, "duration": 5, "velocity": 64}, {"time": 925, "pitch": 56, "duration": 15, "velocity": 66}, {"time": 928, "pitch": 61, "duration": 11, "velocity": 70}, {"time": 931, "pitch": 63, "duration": 3, "velocity": 55}, {"time": 934, "pitch": 65, "duration": 3, "velocity": 64}, {"time": 937, "pitch": 66, "duration": 3, "velocity": 58}, {"time": 940, "pitch": 68, "duration": 3, "velocity": 63}, {"time": 943, "pitch": 70, "duration": 4, "velocity": 62}, {"time": 946, "pitch": 53, "duration": 17, "velocity": 70}, {"time": 946, "pitch": 63, "duration": 4, "velocity": 69}, {"time": 946, "pitch": 68, "duration": 5, "velocity": 67}, {"time": 949, "pitch": 60, "duration": 10, "velocity": 64}, {"time": 952, "pitch": 63, "duration": 3, "velocity": 56}, {"time": 955, "pitch": 68, "duration": 3, "velocity": 55}, {"time": 958, "pitch": 63, "duration": 4, "velocity": 62}, {"time": 958, "pitch": 72, "duration": 5, "velocity": 73}, {"time": 961, "pitch": 60, "duration": 2, "velocity": 62}, {"time": 964, "pitch": 70, "duration": 4, "velocity": 59}, {"time": 967, "pitch": 72, "duration": 3, "velocity": 63}, {"time": 970, "pitch": 46, "duration": 18, "velocity": 70}, {"time": 970, "pitch": 65, "duration": 5, "velocity": 61}, {"time": 970, "pitch": 68, "duration": 5, "velocity": 64}, {"time": 970, "pitch": 73, "duration": 5, "velocity": 66}, {"time": 973, "pitch": 53, "duration": 13, "velocity": 62}, {"time": 976, "pitch": 58, "duration": 7, "velocity": 69}, {"time": 979, "pitch": 61, "duration": 3, "velocity": 51}, {"time": 982, "pitch": 65, "duration": 3, "velocity": 64}, {"time": 985, "pitch": 68, "duration": 4, "velocity": 62}, {"time": 988, "pitch": 70, "duration": 3, "velocity": 62}, {"time": 991, "pitch": 73, "duration": 3, "velocity": 67}, {"time": 994, "pitch": 42, "duration": 3, "velocity": 66}, {"time": 994, "pitch": 61, "duration": 6, "velocity": 66}, {"time": 994, "pitch": 66, "duration": 7, "velocity": 73}, {"time": 994, "pitch": 70, "duration": 9, "velocity": 70}, {"time": 997, "pitch": 54, "duration": 4, "velocity": 59}, {"time": 1000, "pitch": 56, "duration": 6, "velocity": 57}, {"time": 1003, "pitch": 58, "duration": 3, "velocity": 64}, {"time": 1006, "pitch": 61, "duration": 2, "velocity": 64}, {"time": 1009, "pitch": 66, "duration": 2, "velocity": 62}, {"time": 1012, "pitch": 68, "duration": 2, "velocity": 63}, {"time": 1015, "pitch": 73, "duration": 4, "velocity": 67}, {"time": 1018, "pitch": 44, "duration": 4, "velocity": 63}, {"time": 1018, "pitch": 72, "duration": 10, "velocity": 72}, {"time": 1021, "pitch": 51, "duration": 3, "velocity": 69}, {"time": 1024, "pitch": 56, "duration": 4, "velocity": 51}, {"time": 1027, "pitch": 58, "duration": 5, "velocity": 49}, {"time": 1030, "pitch": 60, "duration": 2, "velocity": 56}, {"time": 1033, "pitch": 61, "duration": 3, "velocity": 59}, {"time": 1036, "pitch": 66, "duration": 3, "velocity": 64}, {"time": 1039, "pitch": 68, "duration": 2, "velocity": 67}, {"time": 1042, "pitch": 49, "duration": 19, "velocity": 72}, {"time": 1042, "pitch": 65, "duration": 5, "velocity": 70}, {"time": 1042, "pitch": 68, "duration": 6, "velocity": 62}, {"time": 1042, "pitch": 73, "duration": 9, "velocity": 66}, {"time": 1045, "pitch": 56, "duration": 17, "velocity": 63}, {"time": 1048, "pitch": 61, "duration": 7, "velocity": 59}, {"time": 1051, "pitch": 63, "duration": 2, "velocity": 69}, {"time": 1051, "pitch": 72, "duration": 2, "velocity": 69}, {"time": 1054, "pitch": 65, "duration": 3, "velocity": 72}, {"time": 1054, "pitch": 68, "duration": 5, "velocity": 64}, {"time": 1054, "pitch": 73, "duration": 4, "velocity": 73}, {"time": 1057, "pitch": 61, "duration": 3, "velocity": 75}, {"time": 1060, "pitch": 65, "duration": 3, "velocity": 67}, {"time": 1063, "pitch": 75, "duration": 4, "velocity": 67}, {"time": 1066, "pitch": 41, "duration": 3, "velocity": 69}, {"time": 1066, "pitch": 63, "duration": 9, "velocity": 62}, {"time": 1066, "pitch": 68, "duration": 9, "velocity": 67}, {"time": 1066, "pitch": 72, "duration": 9, "velocity": 75}, {"time": 1069, "pitch": 53, "duration": 3, "velocity": 47}, {"time": 1072, "pitch": 56, "duration": 10, "velocity": 60}, {"time": 1075, "pitch": 60, "duration": 7, "velocity": 55}, {"time": 1078, "pitch": 63, "duration": 2, "velocity": 62}, {"time": 1081, "pitch": 68, "duration": 2, "velocity": 61}, {"time": 1084, "pitch": 70, "duration": 2, "velocity": 54}, {"time": 1087, "pitch": 73, "duration": 3, "velocity": 61}, {"time": 1090, "pitch": 42, "duration": 9, "velocity": 72}, {"time": 1090, "pitch": 66, "duration": 6, "velocity": 60}, {"time": 1090, "pitch": 70, "duration": 6, "velocity": 69}, {"time": 1093, "pitch": 49, "duration": 11, "velocity": 70}, {"time": 1096, "pitch": 54, "duration": 7, "velocity": 66}, {"time": 1099, "pitch": 61, "duration": 2, "velocity": 56}, {"time": 1102, "pitch": 44, "duration": 6, "velocity": 73}, {"time": 1102, "pitch": 61, "duration": 4, "velocity": 66}, {"time": 1102, "pitch": 66, "duration": 6, "velocity": 72}, {"time": 1102, "pitch": 70, "duration": 6, "velocity": 72}, {"time": 1108, "pitch": 51, "duration": 2, "velocity": 66}, {"time": 1114, "pitch": 49, "duration": 16, "velocity": 75}, {"time": 1114, "pitch": 65, "duration": 3, "velocity": 70}, {"time": 1114, "pitch": 68, "duration": 3, "velocity": 70}, {"time": 1114, "pitch": 73, "duration": 4, "velocity": 70}, {"time": 1120, "pitch": 56, "duration": 8, "velocity": 63}, {"time": 1126, "pitch": 61, "duration": 4, "velocity": 57}, {"time": 1126, "pitch": 68, "duration": 4, "velocity": 59}, {"time": 1126, "pitch": 73, "duration": 4, "velocity": 59}, {"time": 1126, "pitch": 80, "duration": 4, "velocity": 70}, {"time": 1132, "pitch": 48, "duration": 3, "velocity": 72}, {"time": 1132, "pitch": 68, "duration": 3, "velocity": 57}, {"time": 1132, "pitch": 77, "duration": 5, "velocity": 66}, {"time": 1138, "pitch": 41, "duration": 17, "velocity": 73}, {"time": 1138, "pitch": 68, "duration": 5, "velocity": 64}, {"time": 1138, "pitch": 75, "duration": 4, "velocity": 63}, {"time": 1144, "pitch": 53, "duration": 8, "velocity": 49}, {"time": 1150, "pitch": 56, "duration": 5, "velocity": 69}, {"time": 1150, "pitch": 60, "duration": 5, "velocity": 73}, {"time": 1150, "pitch": 65, "duration": 5, "velocity": 76}, {"time": 1156, "pitch": 53, "duration": 5, "velocity": 72}, {"time": 1162, "pitch": 46, "duration": 16, "velocity": 67}, {"time": 1162, "pitch": 61, "duration": 3, "velocity": 75}, {"time": 1162, "pitch": 65, "duration": 4, "velocity": 73}, {"time": 1168, "pitch": 53, "duration": 11, "velocity": 49}, {"time": 1168, "pitch": 65, "duration": 3, "velocity": 53}, {"time": 1168, "pitch": 73, "duration": 3, "velocity": 28}, {"time": 1174, "pitch": 58, "duration": 5, "velocity": 50}, {"time": 1174, "pitch": 63, "duration": 4, "velocity": 57}, {"time": 1174, "pitch": 72, "duration": 5, "velocity": 59}, {"time": 1180, "pitch": 68, "duration": 5, "velocity": 58}, {"time": 1186, "pitch": 51, "duration": 16, "velocity": 63}, {"time": 1186, "pitch": 61, "duration": 6, "velocity": 70}, {"time": 1186, "pitch": 66, "duration": 6, "velocity": 63}, {"time": 1186, "pitch": 70, "duration": 6, "velocity": 63}, {"time": 1198, "pitch": 61, "duration": 6, "velocity": 67}, {"time": 1198, "pitch": 66, "duration": 6, "velocity": 73}, {"time": 1198, "pitch": 70, "duration": 6, "velocity": 73}, {"time": 1204, "pitch": 51, "duration": 1, "velocity": 57}, {"time": 1210, "pitch": 44, "duration": 18, "velocity": 69}, {"time": 1210, "pitch": 56, "duration": 5, "velocity": 59}, {"time": 1210, "pitch": 61, "duration": 6, "velocity": 66}, {"time": 1210, "pitch": 66, "duration": 6, "velocity": 66}, {"time": 1210, "pitch": 70, "duration": 5, "velocity": 72}, {"time": 1216, "pitch": 56, "duration": 8, "velocity": 52}, {"time": 1222, "pitch": 61, "duration": 5, "velocity": 72}, {"time": 1222, "pitch": 66, "duration": 6, "velocity": 76}, {"time": 1222, "pitch": 70, "duration": 6, "velocity": 73}, {"time": 1228, "pitch": 56, "duration": 2, "velocity": 63}, {"time": 1234, "pitch": 49, "duration": 17, "velocity": 70}, {"time": 1234, "pitch": 65, "duration": 3, "velocity": 62}, {"time": 1234, "pitch": 68, "duration": 5, "velocity": 64}, {"time": 1234, "pitch": 73, "duration": 5, "velocity": 69}, {"time": 1240, "pitch": 63, "duration": 2, "velocity": 67}, {"time": 1240, "pitch": 72, "duration": 5, "velocity": 69}, {"time": 1246, "pitch": 61, "duration": 5, "velocity": 51}, {"time": 1246, "pitch": 65, "duration": 2, "velocity": 59}, {"time": 1246, "pitch": 68, "duration": 3, "velocity": 69}, {"time": 1246, "pitch": 73, "duration": 3, "velocity": 72}, {"time": 1252, "pitch": 75, "duration": 2, "velocity": 55}, {"time": 1258, "pitch": 53, "duration": 14, "velocity": 48}, {"time": 1258, "pitch": 60, "duration": 13, "velocity": 52}, {"time": 1258, "pitch": 63, "duration": 7, "velocity": 54}, {"time": 1258, "pitch": 68, "duration": 6, "velocity": 59}, {"time": 1258, "pitch": 72, "duration": 6, "velocity": 62}, {"time": 1282, "pitch": 42, "duration": 11, "velocity": 72}, {"time": 1282, "pitch": 61, "duration": 7, "velocity": 61}, {"time": 1282, "pitch": 66, "duration": 10, "velocity": 59}, {"time": 1282, "pitch": 70, "duration": 7, "velocity": 63}, {"time": 1294, "pitch": 44, "duration": 6, "velocity": 56}, {"time": 1294, "pitch": 61, "duration": 1, "velocity": 64}, {"time": 1294, "pitch": 68, "duration": 2, "velocity": 64}, {"time": 1294, "pitch": 70, "duration": 7, "velocity": 58}, {"time": 1300, "pitch": 72, "duration": 8, "velocity": 73}, {"time": 1306, "pitch": 49, "duration": 18, "velocity": 64}, {"time": 1306, "pitch": 65, "duration": 4, "velocity": 56}, {"time": 1306, "pitch": 68, "duration": 5, "velocity": 62}, {"time": 1312, "pitch": 56, "duration": 12, "velocity": 45}, {"time": 1312, "pitch": 73, "duration": 1, "velocity": 36}, {"time": 1318, "pitch": 61, "duration": 6, "velocity": 44}, {"time": 1318, "pitch": 77, "duration": 2, "velocity": 59}, {"time": 1318, "pitch": 85, "duration": 4, "velocity": 72}, {"time": 1324, "pitch": 75, "duration": 2, "velocity": 53}, {"time": 1324, "pitch": 84, "duration": 6, "velocity": 52}, {"time": 1330, "pitch": 53, "duration": 19, "velocity": 67}, {"time": 1330, "pitch": 75, "duration": 5, "velocity": 61}, {"time": 1330, "pitch": 80, "duration": 4, "velocity": 64}, {"time": 1336, "pitch": 60, "duration": 12, "velocity": 43}, {"time": 1339, "pitch": 65, "duration": 9, "velocity": 66}, {"time": 1342, "pitch": 68, "duration": 4, "velocity": 52}, {"time": 1345, "pitch": 72, "duration": 4, "velocity": 59}, {"time": 1348, "pitch": 73, "duration": 3, "velocity": 60}, {"time": 1354, "pitch": 58, "duration": 15, "velocity": 61}, {"time": 1354, "pitch": 65, "duration": 8, "velocity": 55}, {"time": 1354, "pitch": 68, "duration": 9, "velocity": 57}, {"time": 1354, "pitch": 73, "duration": 8, "velocity": 64}, {"time": 1366, "pitch": 65, "duration": 4, "velocity": 66}, {"time": 1366, "pitch": 68, "duration": 3, "velocity": 67}, {"time": 1366, "pitch": 73, "duration": 4, "velocity": 66}, {"time": 1372, "pitch": 70, "duration": 3, "velocity": 36}, {"time": 1378, "pitch": 51, "duration": 17, "velocity": 48}, {"time": 1378, "pitch": 58, "duration": 9, "velocity": 56}, {"time": 1378, "pitch": 61, "duration": 4, "velocity": 57}, {"time": 1378, "pitch": 66, "duration": 5, "velocity": 57}, {"time": 1378, "pitch": 70, "duration": 5, "velocity": 62}, {"time": 1384, "pitch": 61, "duration": 3, "velocity": 57}, {"time": 1384, "pitch": 68, "duration": 5, "velocity": 62}, {"time": 1390, "pitch": 58, "duration": 5, "velocity": 63}, {"time": 1390, "pitch": 61, "duration": 6, "velocity": 60}, {"time": 1390, "pitch": 70, "duration": 6, "velocity": 72}, {"time": 1396, "pitch": 73, "duration": 5, "velocity": 72}, {"time": 1402, "pitch": 44, "duration": 18, "velocity": 64}, {"time": 1402, "pitch": 63, "duration": 4, "velocity": 58}, {"time": 1402, "pitch": 68, "duration": 4, "velocity": 61}, {"time": 1402, "pitch": 72, "duration": 4, "velocity": 64}, {"time": 1405, "pitch": 51, "duration": 14, "velocity": 67}, {"time": 1408, "pitch": 56, "duration": 10, "velocity": 59}, {"time": 1411, "pitch": 61, "duration": 2, "velocity": 64}, {"time": 1414, "pitch": 63, "duration": 3, "velocity": 59}, {"time": 1417, "pitch": 65, "duration": 3, "velocity": 61}, {"time": 1420, "pitch": 66, "duration": 3, "velocity": 70}, {"time": 1423, "pitch": 65, "duration": 10, "velocity": 63}, {"time": 1426, "pitch": 37, "duration": 19, "velocity": 72}, {"time": 1426, "pitch": 56, "duration": 7, "velocity": 60}, {"time": 1426, "pitch": 61, "duration": 7, "velocity": 62}, {"time": 1426, "pitch": 68, "duration": 7, "velocity": 59}, {"time": 1432, "pitch": 49, "duration": 9, "velocity": 39}, {"time": 1438, "pitch": 56, "duration": 7, "velocity": 67}, {"time": 1438, "pitch": 61, "duration": 7, "velocity": 76}, {"time": 1438, "pitch": 65, "duration": 7, "velocity": 76}, {"time": 1438, "pitch": 68, "duration": 7, "velocity": 44}, {"time": 1444, "pitch": 49, "duration": 5, "velocity": 66}, {"time": 1450, "pitch": 48, "duration": 14, "velocity": 69}, {"time": 1450, "pitch": 56, "duration": 10, "velocity": 63}, {"time": 1450, "pitch": 60, "duration": 10, "velocity": 67}, {"time": 1450, "pitch": 63, "duration": 10, "velocity": 70}, {"time": 1450, "pitch": 68, "duration": 10, "velocity": 61}, {"time": 1462, "pitch": 56, "duration": 7, "velocity": 66}, {"time": 1462, "pitch": 60, "duration": 6, "velocity": 67}, {"time": 1462, "pitch": 63, "duration": 8, "velocity": 70}, {"time": 1462, "pitch": 68, "duration": 7, "velocity": 61}, {"time": 1468, "pitch": 48, "duration": 6, "velocity": 59}, {"time": 1474, "pitch": 42, "duration": 7, "velocity": 67}, {"time": 1474, "pitch": 54, "duration": 9, "velocity": 62}, {"time": 1474, "pitch": 58, "duration": 7, "velocity": 66}, {"time": 1474, "pitch": 61, "duration": 7, "velocity": 69}, {"time": 1474, "pitch": 66, "duration": 6, "velocity": 69}, {"time": 1480, "pitch": 63, "duration": 4, "velocity": 58}, {"time": 1486, "pitch": 44, "duration": 7, "velocity": 69}, {"time": 1486, "pitch": 51, "duration": 6, "velocity": 67}, {"time": 1486, "pitch": 56, "duration": 7, "velocity": 55}, {"time": 1486, "pitch": 61, "duration": 6, "velocity": 64}, {"time": 1486, "pitch": 65, "duration": 6, "velocity": 72}, {"time": 1492, "pitch": 63, "duration": 4, "velocity": 66}, {"time": 1498, "pitch": 49, "duration": 15, "velocity": 67}, {"time": 1498, "pitch": 56, "duration": 7, "velocity": 59}, {"time": 1498, "pitch": 61, "duration": 7, "velocity": 64}, {"time": 1498, "pitch": 65, "duration": 6, "velocity": 69}, {"time": 1504, "pitch": 53, "duration": 9, "velocity": 44}, {"time": 1510, "pitch": 56, "duration": 7, "velocity": 61}, {"time": 1510, "pitch": 61, "duration": 6, "velocity": 67}, {"time": 1510, "pitch": 65, "duration": 7, "velocity": 70}, {"time": 1516, "pitch": 49, "duration": 1, "velocity": 67}, {"time": 1522, "pitch": 41, "duration": 18, "velocity": 58}, {"time": 1522, "pitch": 53, "duration": 14, "velocity": 55}, {"time": 1522, "pitch": 56, "duration": 7, "velocity": 62}, {"time": 1522, "pitch": 60, "duration": 7, "velocity": 63}, {"time": 1522, "pitch": 63, "duration": 7, "velocity": 66}, {"time": 1522, "pitch": 68, "duration": 7, "velocity": 61}, {"time": 1534, "pitch": 56, "duration": 6, "velocity": 61}, {"time": 1534, "pitch": 60, "duration": 6, "velocity": 64}, {"time": 1534, "pitch": 63, "duration": 6, "velocity": 70}, {"time": 1534, "pitch": 68, "duration": 6, "velocity": 55}, {"time": 1540, "pitch": 53, "duration": 1, "velocity": 61}, {"time": 1546, "pitch": 46, "duration": 15, "velocity": 47}, {"time": 1546, "pitch": 53, "duration": 14, "velocity": 61}, {"time": 1546, "pitch": 58, "duration": 8, "velocity": 62}, {"time": 1546, "pitch": 61, "duration": 9, "velocity": 72}, {"time": 1546, "pitch": 65, "duration": 8, "velocity": 66}, {"time": 1558, "pitch": 58, "duration": 7, "velocity": 64}, {"time": 1558, "pitch": 61, "duration": 6, "velocity": 70}, {"time": 1558, "pitch": 65, "duration": 7, "velocity": 72}, {"time": 1564, "pitch": 46, "duration": 1, "velocity": 48}, {"time": 1564, "pitch": 53, "duration": 1, "velocity": 54}, {"time": 1570, "pitch": 42, "duration": 13, "velocity": 62}, {"time": 1570, "pitch": 54, "duration": 13, "velocity": 50}, {"time": 1570, "pitch": 58, "duration": 8, "velocity": 62}, {"time": 1570, "pitch": 61, "duration": 7, "velocity": 73}, {"time": 1570, "pitch": 66, "duration": 6, "velocity": 70}, {"time": 1582, "pitch": 44, "duration": 5, "velocity": 61}, {"time": 1582, "pitch": 58, "duration": 6, "velocity": 70}, {"time": 1582, "pitch": 61, "duration": 7, "velocity": 78}, {"time": 1582, "pitch": 66, "duration": 7, "velocity": 76}, {"time": 1588, "pitch": 65, "duration": 4, "velocity": 66}, {"time": 1594, "pitch": 37, "duration": 18, "velocity": 66}, {"time": 1594, "pitch": 49, "duration": 13, "velocity": 62}, {"time": 1594, "pitch": 56, "duration": 6, "velocity": 61}, {"time": 1594, "pitch": 61, "duration": 6, "velocity": 64}, {"time": 1594, "pitch": 65, "duration": 6, "velocity": 69}, {"time": 1606, "pitch": 58, "duration": 5, "velocity": 56}, {"time": 1606, "pitch": 61, "duration": 5, "velocity": 70}, {"time": 1606, "pitch": 66, "duration": 4, "velocity": 67}, {"time": 1612, "pitch": 49, "duration": 6, "velocity": 58}, {"time": 1618, "pitch": 49, "duration": 15, "velocity": 43}, {"time": 1618, "pitch": 61, "duration": 15, "velocity": 46}, {"time": 1618, "pitch": 68, "duration": 6, "velocity": 53}, {"time": 1618, "pitch": 73, "duration": 6, "velocity": 58}, {"time": 1624, "pitch": 65, "duration": 7, "velocity": 40}, {"time": 1630, "pitch": 68, "duration": 6, "velocity": 59}, {"time": 1630, "pitch": 73, "duration": 5, "velocity": 66}, {"time": 1636, "pitch": 65, "duration": 5, "velocity": 52}, {"time": 1642, "pitch": 56, "duration": 25, "velocity": 57}, {"time": 1642, "pitch": 68, "duration": 6, "velocity": 63}, {"time": 1642, "pitch": 72, "duration": 5, "velocity": 64}, {"time": 1648, "pitch": 63, "duration": 5, "velocity": 42}, {"time": 1654, "pitch": 68, "duration": 6, "velocity": 53}, {"time": 1654, "pitch": 72, "duration": 5, "velocity": 55}, {"time": 1660, "pitch": 63, "duration": 5, "velocity": 40}, {"time": 1666, "pitch": 58, "duration": 15, "velocity": 59}, {"time": 1666, "pitch": 70, "duration": 6, "velocity": 60}, {"time": 1666, "pitch": 73, "duration": 6, "velocity": 61}, {"time": 1672, "pitch": 65, "duration": 7, "velocity": 47}, {"time": 1678, "pitch": 70, "duration": 5, "velocity": 58}, {"time": 1678, "pitch": 73, "duration": 11, "velocity": 56}, {"time": 1684, "pitch": 65, "duration": 6, "velocity": 58}, {"time": 1690, "pitch": 53, "duration": 17, "velocity": 44}, {"time": 1690, "pitch": 60, "duration": 18, "velocity": 51}, {"time": 1690, "pitch": 68, "duration": 6, "velocity": 49}, {"time": 1690, "pitch": 72, "duration": 6, "velocity": 59}, {"time": 1696, "pitch": 65, "duration": 6, "velocity": 44}, {"time": 1702, "pitch": 68, "duration": 6, "velocity": 51}, {"time": 1702, "pitch": 72, "duration": 6, "velocity": 58}, {"time": 1708, "pitch": 65, "duration": 6, "velocity": 48}, {"time": 1714, "pitch": 54, "duration": 17, "velocity": 55}, {"time": 1714, "pitch": 66, "duration": 7, "velocity": 56}, {"time": 1714, "pitch": 70, "duration": 6, "velocity": 59}, {"time": 1720, "pitch": 61, "duration": 7, "velocity": 49}, {"time": 1726, "pitch": 66, "duration": 6, "velocity": 67}, {"time": 1726, "pitch": 70, "duration": 5, "velocity": 59}, {"time": 1732, "pitch": 61, "duration": 5, "velocity": 54}, {"time": 1738, "pitch": 49, "duration": 17, "velocity": 45}, {"time": 1738, "pitch": 68, "duration": 6, "velocity": 53}, {"time": 1738, "pitch": 73, "duration": 5, "velocity": 46}, {"time": 1744, "pitch": 65, "duration": 7, "velocity": 49}, {"time": 1750, "pitch": 68, "duration": 6, "velocity": 56}, {"time": 1750, "pitch": 73, "duration": 5, "velocity": 50}, {"time": 1756, "pitch": 65, "duration": 5, "velocity": 58}, {"time": 1756, "pitch": 73, "duration": 5, "velocity": 27}, {"time": 1762, "pitch": 42, "duration": 16, "velocity": 56}, {"time": 1762, "pitch": 66, "duration": 6, "velocity": 58}, {"time": 1762, "pitch": 70, "duration": 5, "velocity": 56}, {"time": 1768, "pitch": 61, "duration": 7, "velocity": 49}, {"time": 1774, "pitch": 66, "duration": 6, "velocity": 59}, {"time": 1774, "pitch": 70, "duration": 5, "velocity": 60}, {"time": 1780, "pitch": 61, "duration": 4, "velocity": 54}, {"time": 1786, "pitch": 44, "duration": 17, "velocity": 54}, {"time": 1786, "pitch": 68, "duration": 5, "velocity": 60}, {"time": 1786, "pitch": 72, "duration": 6, "velocity": 58}, {"time": 1792, "pitch": 51, "duration": 11, "velocity": 43}, {"time": 1798, "pitch": 56, "duration": 6, "velocity": 49}, {"time": 1798, "pitch": 61, "duration": 4, "velocity": 55}, {"time": 1798, "pitch": 66, "duration": 5, "velocity": 63}, {"time": 1804, "pitch": 68, "duration": 4, "velocity": 58}, {"time": 1810, "pitch": 49, "duration": 18, "velocity": 60}, {"time": 1810, "pitch": 65, "duration": 5, "velocity": 63}, {"time": 1810, "pitch": 68, "duration": 6, "velocity": 57}, {"time": 1810, "pitch": 73, "duration": 7, "velocity": 58}, {"time": 1816, "pitch": 56, "duration": 8, "velocity": 39}, {"time": 1822, "pitch": 61, "duration": 6, "velocity": 43}, {"time": 1822, "pitch": 63, "duration": 6, "velocity": 49}, {"time": 1822, "pitch": 65, "duration": 6, "velocity": 53}, {"time": 1822, "pitch": 68, "duration": 6, "velocity": 61}, {"time": 1828, "pitch": 56, "duration": 3, "velocity": 48}, {"time": 1834, "pitch": 44, "duration": 16, "velocity": 39}, {"time": 1834, "pitch": 56, "duration": 18, "velocity": 44}, {"time": 1834, "pitch": 63, "duration": 3, "velocity": 47}, {"time": 1834, "pitch": 68, "duration": 6, "velocity": 50}, {"time": 1834, "pitch": 72, "duration": 5, "velocity": 52}, {"time": 1840, "pitch": 63, "duration": 5, "velocity": 45}, {"time": 1846, "pitch": 68, "duration": 6, "velocity": 66}, {"time": 1852, "pitch": 72, "duration": 5, "velocity": 51}, {"time": 1858, "pitch": 46, "duration": 15, "velocity": 57}, {"time": 1858, "pitch": 65, "duration": 11, "velocity": 56}, {"time": 1858, "pitch": 68, "duration": 6, "velocity": 64}, {"time": 1858, "pitch": 73, "duration": 6, "velocity": 70}, {"time": 1864, "pitch": 53, "duration": 10, "velocity": 37}, {"time": 1870, "pitch": 58, "duration": 5, "velocity": 46}, {"time": 1870, "pitch": 68, "duration": 6, "velocity": 66}, {"time": 1870, "pitch": 73, "duration": 4, "velocity": 60}, {"time": 1876, "pitch": 65, "duration": 5, "velocity": 57}, {"time": 1882, "pitch": 53, "duration": 17, "velocity": 62}, {"time": 1882, "pitch": 68, "duration": 6, "velocity": 62}, {"time": 1882, "pitch": 72, "duration": 5, "velocity": 61}, {"time": 1888, "pitch": 60, "duration": 11, "velocity": 47}, {"time": 1888, "pitch": 63, "duration": 7, "velocity": 56}, {"time": 1894, "pitch": 68, "duration": 6, "velocity": 67}, {"time": 1900, "pitch": 72, "duration": 1, "velocity": 61}, {"time": 1906, "pitch": 42, "duration": 19, "velocity": 57}, {"time": 1906, "pitch": 61, "duration": 6, "velocity": 61}, {"time": 1906, "pitch": 66, "duration": 5, "velocity": 49}, {"time": 1906, "pitch": 70, "duration": 5, "velocity": 64}, {"time": 1912, "pitch": 49, "duration": 8, "velocity": 47}, {"time": 1918, "pitch": 54, "duration": 7, "velocity": 50}, {"time": 1918, "pitch": 58, "duration": 6, "velocity": 58}, {"time": 1918, "pitch": 61, "duration": 6, "velocity": 66}, {"time": 1918, "pitch": 66, "duration": 5, "velocity": 66}, {"time": 1924, "pitch": 49, "duration": 5, "velocity": 41}, {"time": 1930, "pitch": 53, "duration": 7, "velocity": 62}, {"time": 1930, "pitch": 63, "duration": 5, "velocity": 56}, {"time": 1930, "pitch": 68, "duration": 5, "velocity": 66}, {"time": 1930, "pitch": 72, "duration": 5, "velocity": 64}, {"time": 1936, "pitch": 60, "duration": 1, "velocity": 57}, {"time": 1942, "pitch": 46, "duration": 5, "velocity": 40}, {"time": 1942, "pitch": 58, "duration": 6, "velocity": 39}, {"time": 1942, "pitch": 65, "duration": 6, "velocity": 58}, {"time": 1942, "pitch": 68, "duration": 5, "velocity": 62}, {"time": 1942, "pitch": 73, "duration": 5, "velocity": 62}, {"time": 1954, "pitch": 51, "duration": 17, "velocity": 64}, {"time": 1954, "pitch": 61, "duration": 5, "velocity": 62}, {"time": 1954, "pitch": 66, "duration": 6, "velocity": 69}, {"time": 1954, "pitch": 70, "duration": 5, "velocity": 66}, {"time": 1960, "pitch": 58, "duration": 11, "velocity": 41}, {"time": 1960, "pitch": 61, "duration": 6, "velocity": 56}, {"time": 1966, "pitch": 66, "duration": 6, "velocity": 73}, {"time": 1972, "pitch": 70, "duration": 5, "velocity": 66}, {"time": 1978, "pitch": 44, "duration": 17, "velocity": 69}, {"time": 1978, "pitch": 73, "duration": 2, "velocity": 73}, {"time": 1981, "pitch": 51, "duration": 14, "velocity": 70}, {"time": 1984, "pitch": 56, "duration": 13, "velocity": 67}, {"time": 1987, "pitch": 61, "duration": 3, "velocity": 62}, {"time": 1990, "pitch": 63, "duration": 1, "velocity": 56}, {"time": 1993, "pitch": 66, "duration": 3, "velocity": 63}, {"time": 1996, "pitch": 73, "duration": 3, "velocity": 54}, {"time": 1999, "pitch": 75, "duration": 3, "velocity": 64}, {"time": 2002, "pitch": 49, "duration": 17, "velocity": 66}, {"time": 2002, "pitch": 68, "duration": 4, "velocity": 58}, {"time": 2002, "pitch": 77, "duration": 4, "velocity": 69}, {"time": 2005, "pitch": 56, "duration": 15, "velocity": 60}, {"time": 2008, "pitch": 61, "duration": 7, "velocity": 56}, {"time": 2011, "pitch": 65, "duration": 6, "velocity": 48}, {"time": 2014, "pitch": 68, "duration": 5, "velocity": 75}, {"time": 2014, "pitch": 73, "duration": 4, "velocity": 75}, {"time": 2017, "pitch": 61, "duration": 4, "velocity": 55}, {"time": 2020, "pitch": 65, "duration": 3, "velocity": 57}, {"time": 2023, "pitch": 75, "duration": 5, "velocity": 61}, {"time": 2026, "pitch": 53, "duration": 18, "velocity": 69}, {"time": 2026, "pitch": 63, "duration": 4, "velocity": 63}, {"time": 2026, "pitch": 68, "duration": 4, "velocity": 63}, {"time": 2026, "pitch": 72, "duration": 5, "velocity": 64}, {"time": 2029, "pitch": 60, "duration": 9, "velocity": 62}, {"time": 2032, "pitch": 63, "duration": 5, "velocity": 52}, {"time": 2035, "pitch": 68, "duration": 4, "velocity": 62}, {"time": 2038, "pitch": 72, "duration": 5, "velocity": 69}, {"time": 2041, "pitch": 60, "duration": 3, "velocity": 63}, {"time": 2044, "pitch": 63, "duration": 3, "velocity": 57}, {"time": 2047, "pitch": 68, "duration": 2, "velocity": 47}, {"time": 2050, "pitch": 42, "duration": 7, "velocity": 69}, {"time": 2050, "pitch": 61, "duration": 4, "velocity": 60}, {"time": 2050, "pitch": 66, "duration": 4, "velocity": 60}, {"time": 2050, "pitch": 70, "duration": 4, "velocity": 61}, {"time": 2053, "pitch": 54, "duration": 8, "velocity": 55}, {"time": 2056, "pitch": 61, "duration": 3, "velocity": 61}, {"time": 2059, "pitch": 66, "duration": 8, "velocity": 64}, {"time": 2062, "pitch": 44, "duration": 5, "velocity": 67}, {"time": 2062, "pitch": 61, "duration": 4, "velocity": 60}, {"time": 2062, "pitch": 70, "duration": 5, "velocity": 63}, {"time": 2065, "pitch": 56, "duration": 7, "velocity": 59}, {"time": 2068, "pitch": 61, "duration": 3, "velocity": 60}, {"time": 2071, "pitch": 68, "duration": 9, "velocity": 58}, {"time": 2074, "pitch": 49, "duration": 18, "velocity": 67}, {"time": 2074, "pitch": 65, "duration": 6, "velocity": 63}, {"time": 2074, "pitch": 73, "duration": 5, "velocity": 64}, {"time": 2077, "pitch": 56, "duration": 15, "velocity": 66}, {"time": 2080, "pitch": 61, "duration": 11, "velocity": 70}, {"time": 2083, "pitch": 63, "duration": 3, "velocity": 55}, {"time": 2086, "pitch": 65, "duration": 3, "velocity": 64}, {"time": 2089, "pitch": 66, "duration": 3, "velocity": 58}, {"time": 2092, "pitch": 68, "duration": 3, "velocity": 63}, {"time": 2095, "pitch": 70, "duration": 4, "velocity": 62}, {"time": 2098, "pitch": 53, "duration": 17, "velocity": 70}, {"time": 2098, "pitch": 63, "duration": 4, "velocity": 69}, {"time": 2098, "pitch": 68, "duration": 5, "velocity": 67}, {"time": 2101, "pitch": 60, "duration": 10, "velocity": 64}, {"time": 2104, "pitch": 63, "duration": 3, "velocity": 56}, {"time": 2107, "pitch": 68, "duration": 3, "velocity": 55}, {"time": 2110, "pitch": 63, "duration": 4, "velocity": 62}, {"time": 2110, "pitch": 72, "duration": 5, "velocity": 73}, {"time": 2113, "pitch": 60, "duration": 2, "velocity": 62}, {"time": 2116, "pitch": 70, "duration": 4, "velocity": 59}, {"time": 2119, "pitch": 72, "duration": 3, "velocity": 63}, {"time": 2122, "pitch": 46, "duration": 18, "velocity": 70}, {"time": 2122, "pitch": 65, "duration": 5, "velocity": 61}, {"time": 2122, "pitch": 68, "duration": 5, "velocity": 64}, {"time": 2122, "pitch": 73, "duration": 5, "velocity": 66}, {"time": 2125, "pitch": 53, "duration": 13, "velocity": 62}, {"time": 2128, "pitch": 58, "duration": 7, "velocity": 69}, {"time": 2131, "pitch": 61, "duration": 3, "velocity": 51}, {"time": 2134, "pitch": 65, "duration": 3, "velocity": 64}, {"time": 2137, "pitch": 68, "duration": 4, "velocity": 62}, {"time": 2140, "pitch": 70, "duration": 3, "velocity": 62}, {"time": 2143, "pitch": 73, "duration": 3, "velocity": 67}, {"time": 2146, "pitch": 42, "duration": 3, "velocity": 66}, {"time": 2146, "pitch": 61, "duration": 6, "velocity": 66}, {"time": 2146, "pitch": 66, "duration": 7, "velocity": 73}, {"time": 2146, "pitch": 70, "duration": 9, "velocity": 70}, {"time": 2149, "pitch": 54, "duration": 4, "velocity": 59}, {"time": 2152, "pitch": 56, "duration": 6, "velocity": 57}, {"time": 2155, "pitch": 58, "duration": 3, "velocity": 64}, {"time": 2158, "pitch": 61, "duration": 2, "velocity": 64}, {"time": 2161, "pitch": 66, "duration": 2, "velocity": 62}, {"time": 2164, "pitch": 68, "duration": 2, "velocity": 63}, {"time": 2167, "pitch": 73, "duration": 4, "velocity": 67}, {"time": 2170, "pitch": 44, "duration": 4, "velocity": 63}, {"time": 2170, "pitch": 72, "duration": 10, "velocity": 72}, {"time": 2173, "pitch": 51, "duration": 3, "velocity": 69}, {"time": 2176, "pitch": 56, "duration": 4, "velocity": 51}, {"time": 2179, "pitch": 58, "duration": 5, "velocity": 49}, {"time": 2182, "pitch": 60, "duration": 2, "velocity": 56}, {"time": 2185, "pitch": 61, "duration": 3, "velocity": 59}, {"time": 2188, "pitch": 66, "duration": 3, "velocity": 64}, {"time": 2191, "pitch": 68, "duration": 2, "velocity": 67}, {"time": 2194, "pitch": 49, "duration": 19, "velocity": 72}, {"time": 2194, "pitch": 65, "duration": 5, "velocity": 70}, {"time": 2194, "pitch": 68, "duration": 6, "velocity": 62}, {"time": 2194, "pitch": 73, "duration": 9, "velocity": 66}, {"time": 2197, "pitch": 56, "duration": 17, "velocity": 63}, {"time": 2200, "pitch": 61, "duration": 7, "velocity": 59}, {"time": 2203, "pitch": 63, "duration": 2, "velocity": 69}, {"time": 2203, "pitch": 72, "duration": 2, "velocity": 69}, {"time": 2206, "pitch": 65, "duration": 3, "velocity": 72}, {"time": 2206, "pitch": 68, "duration": 5, "velocity": 64}, {"time": 2206, "pitch": 73, "duration": 4, "velocity": 73}, {"time": 2209, "pitch": 61, "duration": 3, "velocity": 75}, {"time": 2212, "pitch": 65, "duration": 3, "velocity": 67}, {"time": 2215, "pitch": 75, "duration": 4, "velocity": 67}, {"time": 2218, "pitch": 41, "duration": 3, "velocity": 69}, {"time": 2218, "pitch": 63, "duration": 9, "velocity": 62}, {"time": 2218, "pitch": 68, "duration": 9, "velocity": 67}, {"time": 2218, "pitch": 72, "duration": 9, "velocity": 75}, {"time": 2221, "pitch": 53, "duration": 3, "velocity": 47}, {"time": 2224, "pitch": 56, "duration": 10, "velocity": 60}, {"time": 2227, "pitch": 60, "duration": 7, "velocity": 55}, {"time": 2230, "pitch": 63, "duration": 2, "velocity": 62}, {"time": 2233, "pitch": 68, "duration": 2, "velocity": 61}, {"time": 2236, "pitch": 70, "duration": 2, "velocity": 54}, {"time": 2239, "pitch": 73, "duration": 3, "velocity": 61}, {"time": 2242, "pitch": 42, "duration": 9, "velocity": 72}, {"time": 2242, "pitch": 66, "duration": 6, "velocity": 60}, {"time": 2242, "pitch": 70, "duration": 6, "velocity": 69}, {"time": 2245, "pitch": 49, "duration": 11, "velocity": 70}, {"time": 2248, "pitch": 54, "duration": 7, "velocity": 66}, {"time": 2251, "pitch": 61, "duration": 2, "velocity": 56}, {"time": 2254, "pitch": 44, "duration": 6, "velocity": 73}, {"time": 2254, "pitch": 61, "duration": 4, "velocity": 66}, {"time": 2254, "pitch": 66, "duration": 6, "velocity": 72}, {"time": 2254, "pitch": 70, "duration": 6, "velocity": 72}, {"time": 2260, "pitch": 51, "duration": 2, "velocity": 66}, {"time": 2266, "pitch": 49, "duration": 16, "velocity": 75}, {"time": 2266, "pitch": 65, "duration": 3, "velocity": 70}, {"time": 2266, "pitch": 68, "duration": 3, "velocity": 70}, {"time": 2266, "pitch": 73, "duration": 4, "velocity": 70}, {"time": 2272, "pitch": 56, "duration": 8, "velocity": 63}, {"time": 2278, "pitch": 61, "duration": 4, "velocity": 57}, {"time": 2278, "pitch": 68, "duration": 4, "velocity": 59}, {"time": 2278, "pitch": 73, "duration": 4, "velocity": 59}, {"time": 2278, "pitch": 80, "duration": 4, "velocity": 70}, {"time": 2284, "pitch": 48, "duration": 3, "velocity": 72}, {"time": 2284, "pitch": 68, "duration": 3, "velocity": 57}, {"time": 2284, "pitch": 77, "duration": 5, "velocity": 66}, {"time": 2290, "pitch": 41, "duration": 17, "velocity": 73}, {"time": 2290, "pitch": 68, "duration": 5, "velocity": 64}, {"time": 2290, "pitch": 75, "duration": 4, "velocity": 63}, {"time": 2296, "pitch": 53, "duration": 8, "velocity": 49}, {"time": 2302, "pitch": 56, "duration": 5, "velocity": 69}, {"time": 2302, "pitch": 60, "duration": 5, "velocity": 73}, {"time": 2302, "pitch": 65, "duration": 5, "velocity": 76}, {"time": 2308, "pitch": 53, "duration": 5, "velocity": 72}, {"time": 2314, "pitch": 46, "duration": 16, "velocity": 67}, {"time": 2314, "pitch": 61, "duration": 3, "velocity": 75}, {"time": 2314, "pitch": 65, "duration": 4, "velocity": 73}, {"time": 2320, "pitch": 53, "duration": 11, "velocity": 49}, {"time": 2320, "pitch": 65, "duration": 3, "velocity": 53}, {"time": 2320, "pitch": 73, "duration": 3, "velocity": 28}, {"time": 2326, "pitch": 58, "duration": 5, "velocity": 50}, {"time": 2326, "pitch": 63, "duration": 4, "velocity": 57}, {"time": 2326, "pitch": 72, "duration": 5, "velocity": 59}, {"time": 2332, "pitch": 68, "duration": 5, "velocity": 58}, {"time": 2338, "pitch": 51, "duration": 16, "velocity": 63}, {"time": 2338, "pitch": 61, "duration": 6, "velocity": 70}, {"time": 2338, "pitch": 66, "duration": 6, "velocity": 63}, {"time": 2338, "pitch": 70, "duration": 6, "velocity": 63}, {"time": 2350, "pitch": 61, "duration": 6, "velocity": 67}, {"time": 2350, "pitch": 66, "duration": 6, "velocity": 73}, {"time": 2350, "pitch": 70, "duration": 6, "velocity": 73}, {"time": 2356, "pitch": 51, "duration": 1, "velocity": 57}, {"time": 2362, "pitch": 44, "duration": 18, "velocity": 69}, {"time": 2362, "pitch": 56, "duration": 5, "velocity": 59}, {"time": 2362, "pitch": 61, "duration": 6, "velocity": 66}, {"time": 2362, "pitch": 66, "duration": 6, "velocity": 66}, {"time": 2362, "pitch": 70, "duration": 5, "velocity": 72}, {"time": 2368, "pitch": 56, "duration": 8, "velocity": 52}, {"time": 2374, "pitch": 61, "duration": 5, "velocity": 72}, {"time": 2374, "pitch": 66, "duration": 6, "velocity": 76}, {"time": 2374, "pitch": 70, "duration": 6, "velocity": 73}, {"time": 2380, "pitch": 56, "duration": 2, "velocity": 63}, {"time": 2386, "pitch": 49, "duration": 17, "velocity": 70}, {"time": 2386, "pitch": 65, "duration": 3, "velocity": 62}, {"time": 2386, "pitch": 68, "duration": 5, "velocity": 64}, {"time": 2386, "pitch": 73, "duration": 5, "velocity": 69}, {"time": 2392, "pitch": 63, "duration": 2, "velocity": 67}, {"time": 2392, "pitch": 72, "duration": 5, "velocity": 69}, {"time": 2398, "pitch": 61, "duration": 5, "velocity": 51}, {"time": 2398, "pitch": 65, "duration": 2, "velocity": 59}, {"time": 2398, "pitch": 68, "duration": 3, "velocity": 69}, {"time": 2398, "pitch": 73, "duration": 3, "velocity": 72}, {"time": 2404, "pitch": 75, "duration": 2, "velocity": 55}, {"time": 2410, "pitch": 53, "duration": 14, "velocity": 48}, {"time": 2410, "pitch": 60, "duration": 13, "velocity": 52}, {"time": 2410, "pitch": 63, "duration": 7, "velocity": 54}, {"time": 2410, "pitch": 68, "duration": 6, "velocity": 59}, {"time": 2410, "pitch": 72, "duration": 6, "velocity": 62}, {"time": 2434, "pitch": 42, "duration": 11, "velocity": 72}, {"time": 2434, "pitch": 61, "duration": 7, "velocity": 61}, {"time": 2434, "pitch": 66, "duration": 10, "velocity": 59}, {"time": 2434, "pitch": 70, "duration": 7, "velocity": 63}, {"time": 2446, "pitch": 44, "duration": 6, "velocity": 56}, {"time": 2446, "pitch": 61, "duration": 1, "velocity": 64}, {"time": 2446, "pitch": 68, "duration": 2, "velocity": 64}, {"time": 2446, "pitch": 70, "duration": 7, "velocity": 58}, {"time": 2452, "pitch": 72, "duration": 8, "velocity": 73}, {"time": 2458, "pitch": 49, "duration": 18, "velocity": 64}, {"time": 2458, "pitch": 65, "duration": 4, "velocity": 56}, {"time": 2458, "pitch": 68, "duration": 5, "velocity": 62}, {"time": 2464, "pitch": 56, "duration": 12, "velocity": 45}, {"time": 2464, "pitch": 73, "duration": 1, "velocity": 36}, {"time": 2470, "pitch": 61, "duration": 6, "velocity": 44}, {"time": 2470, "pitch": 77, "duration": 2, "velocity": 59}, {"time": 2470, "pitch": 85, "duration": 4, "velocity": 72}, {"time": 2476, "pitch": 75, "duration": 2, "velocity": 53}, {"time": 2476, "pitch": 84, "duration": 6, "velocity": 52}, {"time": 2482, "pitch": 53, "duration": 19, "velocity": 67}, {"time": 2482, "pitch": 75, "duration": 5, "velocity": 61}, {"time": 2482, "pitch": 80, "duration": 4, "velocity": 64}, {"time": 2488, "pitch": 60, "duration": 12, "velocity": 43}, {"time": 2491, "pitch": 65, "duration": 9, "velocity": 66}, {"time": 2494, "pitch": 68, "duration": 4, "velocity": 52}, {"time": 2497, "pitch": 72, "duration": 4, "velocity": 59}, {"time": 2500, "pitch": 73, "duration": 3, "velocity": 60}, {"time": 2506, "pitch": 58, "duration": 15, "velocity": 61}, {"time": 2506, "pitch": 65, "duration": 8, "velocity": 55}, {"time": 2506, "pitch": 68, "duration": 9, "velocity": 57}, {"time": 2506, "pitch": 73, "duration": 8, "velocity": 64}, {"time": 2518, "pitch": 65, "duration": 4, "velocity": 66}, {"time": 2518, "pitch": 68, "duration": 3, "velocity": 67}, {"time": 2518, "pitch": 73, "duration": 4, "velocity": 66}, {"time": 2524, "pitch": 70, "duration": 3, "velocity": 36}, {"time": 2530, "pitch": 51, "duration": 17, "velocity": 48}, {"time": 2530, "pitch": 58, "duration": 9, "velocity": 56}, {"time": 2530, "pitch": 61, "duration": 4, "velocity": 57}, {"time": 2530, "pitch": 66, "duration": 5, "velocity": 57}, {"time": 2530, "pitch": 70, "duration": 5, "velocity": 62}, {"time": 2536, "pitch": 61, "duration": 3, "velocity": 57}, {"time": 2536, "pitch": 68, "duration": 5, "velocity": 62}, {"time": 2542, "pitch": 58, "duration": 5, "velocity": 63}, {"time": 2542, "pitch": 61, "duration": 6, "velocity": 60}, {"time": 2542, "pitch": 70, "duration": 6, "velocity": 72}, {"time": 2548, "pitch": 73, "duration": 5, "velocity": 72}, {"time": 2554, "pitch": 44, "duration": 18, "velocity": 64}, {"time": 2554, "pitch": 63, "duration": 4, "velocity": 58}, {"time": 2554, "pitch": 68, "duration": 4, "velocity": 61}, {"time": 2554, "pitch": 72, "duration": 4, "velocity": 64}, {"time": 2557, "pitch": 51, "duration": 14, "velocity": 67}, {"time": 2560, "pitch": 56, "duration": 10, "velocity": 59}, {"time": 2563, "pitch": 61, "duration": 2, "velocity": 64}, {"time": 2566, "pitch": 63, "duration": 3, "velocity": 59}, {"time": 2569, "pitch": 65, "duration": 3, "velocity": 61}, {"time": 2572, "pitch": 66, "duration": 3, "velocity": 70}, {"time": 2575, "pitch": 65, "duration": 10, "velocity": 63}, {"time": 2578, "pitch": 37, "duration": 19, "velocity": 72}, {"time": 2578, "pitch": 56, "duration": 7, "velocity": 60}, {"time": 2578, "pitch": 61, "duration": 7, "velocity": 62}, {"time": 2578, "pitch": 68, "duration": 7, "velocity": 59}, {"time": 2584, "pitch": 49, "duration": 9, "velocity": 39}, {"time": 2590, "pitch": 56, "duration": 7, "velocity": 67}, {"time": 2590, "pitch": 61, "duration": 7, "velocity": 76}, {"time": 2590, "pitch": 65, "duration": 7, "velocity": 76}, {"time": 2590, "pitch": 68, "duration": 7, "velocity": 44}, {"time": 2596, "pitch": 49, "duration": 5, "velocity": 66}, {"time": 2602, "pitch": 48, "duration": 14, "velocity": 69}, {"time": 2602, "pitch": 56, "duration": 10, "velocity": 63}, {"time": 2602, "pitch": 60, "duration": 10, "velocity": 67}, {"time": 2602, "pitch": 63, "duration": 10, "velocity": 70}, {"time": 2602, "pitch": 68, "duration": 10, "velocity": 61}, {"time": 2614, "pitch": 56, "duration": 7, "velocity": 66}, {"time": 2614, "pitch": 60, "duration": 6, "velocity": 67}, {"time": 2614, "pitch": 63, "duration": 8, "velocity": 70}, {"time": 2614, "pitch": 68, "duration": 7, "velocity": 61}, {"time": 2620, "pitch": 48, "duration": 6, "velocity": 59}, {"time": 2626, "pitch": 42, "duration": 7, "velocity": 67}, {"time": 2626, "pitch": 54, "duration": 9, "velocity": 62}, {"time": 2626, "pitch": 58, "duration": 7, "velocity": 66}, {"time": 2626, "pitch": 61, "duration": 7, "velocity": 69}, {"time": 2626, "pitch": 66, "duration": 6, "velocity": 69}, {"time": 2632, "pitch": 63, "duration": 4, "velocity": 58}, {"time": 2638, "pitch": 44, "duration": 7, "velocity": 69}, {"time": 2638, "pitch": 51, "duration": 6, "velocity": 67}, {"time": 2638, "pitch": 56, "duration": 7, "velocity": 55}, {"time": 2638, "pitch": 61, "duration": 6, "velocity": 64}, {"time": 2638, "pitch": 65, "duration": 6, "velocity": 72}, {"time": 2644, "pitch": 63, "duration": 4, "velocity": 66}, {"time": 2650, "pitch": 49, "duration": 15, "velocity": 67}, {"time": 2650, "pitch": 56, "duration": 7, "velocity": 59}, {"time": 2650, "pitch": 61, "duration": 7, "velocity": 64}, {"time": 2650, "pitch": 65, "duration": 6, "velocity": 69}, {"time": 2656, "pitch": 53, "duration": 9, "velocity": 44}, {"time": 2662, "pitch": 56, "duration": 7, "velocity": 61}, {"time": 2662, "pitch": 61, "duration": 6, "velocity": 67}, {"time": 2662, "pitch": 65, "duration": 7, "velocity": 70}, {"time": 2668, "pitch": 49, "duration": 1, "velocity": 67}, {"time": 2674, "pitch": 41, "duration": 18, "velocity": 58}, {"time": 2674, "pitch": 53, "duration": 14, "velocity": 55}, {"time": 2674, "pitch": 56, "duration": 7, "velocity": 62}, {"time": 2674, "pitch": 60, "duration": 7, "velocity": 63}, {"time": 2674, "pitch": 63, "duration": 7, "velocity": 66}, {"time": 2674, "pitch": 68, "duration": 7, "velocity": 61}, {"time": 2686, "pitch": 56, "duration": 6, "velocity": 61}, {"time": 2686, "pitch": 60, "duration": 6, "velocity": 64}, {"time": 2686, "pitch": 63, "duration": 6, "velocity": 70}, {"time": 2686, "pitch": 68, "duration": 6, "velocity": 55}, {"time": 2692, "pitch": 53, "duration": 1, "velocity": 61}, {"time": 2698, "pitch": 46, "duration": 18, "velocity": 63}, {"time": 2698, "pitch": 61, "duration": 4, "velocity": 59}, {"time": 2698, "pitch": 65, "duration": 6, "velocity": 64}, {"time": 2698, "pitch": 70, "duration": 5, "velocity": 59}, {"time": 2704, "pitch": 53, "duration": 12, "velocity": 49}, {"time": 2704, "pitch": 61, "duration": 5, "velocity": 52}, {"time": 2704, "pitch": 68, "duration": 5, "velocity": 64}, {"time": 2710, "pitch": 58, "duration": 5, "velocity": 60}, {"time": 2710, "pitch": 61, "duration": 4, "velocity": 45}, {"time": 2710, "pitch": 65, "duration": 5, "velocity": 63}, {"time": 2710, "pitch": 70, "duration": 5, "velocity": 59}, {"time": 2716, "pitch": 58, "duration": 2, "velocity": 40}, {"time": 2716, "pitch": 61, "duration": 4, "velocity": 69}, {"time": 2722, "pitch": 54, "duration": 6, "velocity": 69}, {"time": 2722, "pitch": 61, "duration": 6, "velocity": 63}, {"time": 2722, "pitch": 66, "duration": 6, "velocity": 64}, {"time": 2722, "pitch": 70, "duration": 5, "velocity": 64}, {"time": 2728, "pitch": 58, "duration": 1, "velocity": 58}, {"time": 2734, "pitch": 61, "duration": 4, "velocity": 64}, {"time": 2734, "pitch": 66, "duration": 6, "velocity": 66}, {"time": 2734, "pitch": 70, "duration": 6, "velocity": 64}, {"time": 2740, "pitch": 73, "duration": 5, "velocity": 66}, {"time": 2746, "pitch": 44, "duration": 6, "velocity": 62}, {"time": 2746, "pitch": 68, "duration": 6, "velocity": 69}, {"time": 2746, "pitch": 72, "duration": 7, "velocity": 66}, {"time": 2752, "pitch": 56, "duration": 4, "velocity": 51}, {"time": 2755, "pitch": 58, "duration": 5, "velocity": 54}, {"time": 2758, "pitch": 60, "duration": 2, "velocity": 56}, {"time": 2761, "pitch": 68, "duration": 2, "velocity": 63}, {"time": 2764, "pitch": 73, "duration": 3, "velocity": 57}, {"time": 2767, "pitch": 75, "duration": 3, "velocity": 59}, {"time": 2770, "pitch": 49, "duration": 16, "velocity": 72}, {"time": 2770, "pitch": 68, "duration": 6, "velocity": 61}, {"time": 2770, "pitch": 77, "duration": 5, "velocity": 69}, {"time": 2776, "pitch": 56, "duration": 7, "velocity": 46}, {"time": 2782, "pitch": 61, "duration": 4, "velocity": 55}, {"time": 2782, "pitch": 65, "duration": 3, "velocity": 60}, {"time": 2782, "pitch": 68, "duration": 3, "velocity": 62}, {"time": 2782, "pitch": 73, "duration": 3, "velocity": 66}, {"time": 2785, "pitch": 56, "duration": 3, "velocity": 57}, {"time": 2788, "pitch": 65, "duration": 2, "velocity": 59}, {"time": 2791, "pitch": 73, "duration": 4, "velocity": 66}, {"time": 2794, "pitch": 41, "duration": 6, "velocity": 70}, {"time": 2794, "pitch": 63, "duration": 7, "velocity": 61}, {"time": 2794, "pitch": 68, "duration": 7, "velocity": 62}, {"time": 2794, "pitch": 72, "duration": 7, "velocity": 72}, {"time": 2800, "pitch": 53, "duration": 6, "velocity": 56}, {"time": 2806, "pitch": 56, "duration": 6, "velocity": 59}, {"time": 2806, "pitch": 63, "duration": 4, "velocity": 64}, {"time": 2806, "pitch": 68, "duration": 4, "velocity": 73}, {"time": 2812, "pitch": 63, "duration": 2, "velocity": 57}, {"time": 2818, "pitch": 42, "duration": 6, "velocity": 67}, {"time": 2818, "pitch": 58, "duration": 6, "velocity": 62}, {"time": 2818, "pitch": 61, "duration": 6, "velocity": 57}, {"time": 2818, "pitch": 66, "duration": 6, "velocity": 72}, {"time": 2824, "pitch": 54, "duration": 2, "velocity": 47}, {"time": 2830, "pitch": 44, "duration": 5, "velocity": 66}, {"time": 2830, "pitch": 56, "duration": 11, "velocity": 60}, {"time": 2830, "pitch": 60, "duration": 6, "velocity": 62}, {"time": 2830, "pitch": 63, "duration": 5, "velocity": 63}, {"time": 2830, "pitch": 68, "duration": 4, "velocity": 54}, {"time": 2836, "pitch": 61, "duration": 3, "velocity": 41}, {"time": 2842, "pitch": 49, "duration": 19, "velocity": 64}, {"time": 2842, "pitch": 61, "duration": 4, "velocity": 67}, {"time": 2842, "pitch": 65, "duration": 5, "velocity": 70}, {"time": 2848, "pitch": 56, "duration": 7, "velocity": 51}, {"time": 2854, "pitch": 61, "duration": 5, "velocity": 58}, {"time": 2854, "pitch": 63, "duration": 2, "velocity": 56}, {"time": 2854, "pitch": 68, "duration": 5, "velocity": 61}, {"time": 2860, "pitch": 56, "duration": 1, "velocity": 67}, {"time": 2860, "pitch": 65, "duration": 1, "velocity": 52}, {"time": 2860, "pitch": 70, "duration": 3, "velocity": 62}, {"time": 2866, "pitch": 41, "duration": 5, "velocity": 70}, {"time": 2866, "pitch": 63, "duration": 12, "velocity": 58}, {"time": 2866, "pitch": 68, "duration": 12, "velocity": 63}, {"time": 2866, "pitch": 72, "duration": 12, "velocity": 64}, {"time": 2872, "pitch": 53, "duration": 4, "velocity": 58}, {"time": 2875, "pitch": 56, "duration": 6, "velocity": 53}, {"time": 2878, "pitch": 60, "duration": 3, "velocity": 61}, {"time": 2881, "pitch": 63, "duration": 2, "velocity": 56}, {"time": 2884, "pitch": 68, "duration": 2, "velocity": 57}, {"time": 2887, "pitch": 72, "duration": 3, "velocity": 60}, {"time": 2890, "pitch": 46, "duration": 19, "velocity": 69}, {"time": 2890, "pitch": 65, "duration": 5, "velocity": 60}, {"time": 2890, "pitch": 68, "duration": 5, "velocity": 56}, {"time": 2890, "pitch": 73, "duration": 7, "velocity": 69}, {"time": 2896, "pitch": 53, "duration": 8, "velocity": 33}, {"time": 2896, "pitch": 65, "duration": 3, "velocity": 41}, {"time": 2896, "pitch": 72, "duration": 7, "velocity": 58}, {"time": 2902, "pitch": 58, "duration": 6, "velocity": 52}, {"time": 2902, "pitch": 65, "duration": 4, "velocity": 63}, {"time": 2902, "pitch": 68, "duration": 3, "velocity": 62}, {"time": 2908, "pitch": 53, "duration": 1, "velocity": 75}, {"time": 2914, "pitch": 42, "duration": 18, "velocity": 72}, {"time": 2914, "pitch": 58, "duration": 4, "velocity": 58}, {"time": 2914, "pitch": 61, "duration": 4, "velocity": 66}, {"time": 2914, "pitch": 66, "duration": 4, "velocity": 64}, {"time": 2917, "pitch": 54, "duration": 19, "velocity": 48}, {"time": 2920, "pitch": 58, "duration": 2, "velocity": 59}, {"time": 2923, "pitch": 61, "duration": 3, "velocity": 62}, {"time": 2926, "pitch": 66, "duration": 2, "velocity": 69}, {"time": 2929, "pitch": 61, "duration": 2, "velocity": 59}, {"time": 2932, "pitch": 66, "duration": 3, "velocity": 67}, {"time": 2935, "pitch": 70, "duration": 3, "velocity": 63}, {"time": 2938, "pitch": 44, "duration": 16, "velocity": 67}, {"time": 2938, "pitch": 68, "duration": 4, "velocity": 61}, {"time": 2941, "pitch": 51, "duration": 14, "velocity": 70}, {"time": 2944, "pitch": 56, "duration": 13, "velocity": 72}, {"time": 2947, "pitch": 61, "duration": 3, "velocity": 80}, {"time": 2950, "pitch": 63, "duration": 1, "velocity": 64}, {"time": 2953, "pitch": 68, "duration": 3, "velocity": 78}, {"time": 2956, "pitch": 73, "duration": 2, "velocity": 56}, {"time": 2959, "pitch": 75, "duration": 3, "velocity": 64}, {"time": 2962, "pitch": 49, "duration": 4, "velocity": 72}, {"time": 2962, "pitch": 77, "duration": 3, "velocity": 72}, {"time": 2965, "pitch": 56, "duration": 3, "velocity": 50}, {"time": 2965, "pitch": 68, "duration": 4, "velocity": 54}, {"time": 2968, "pitch": 61, "duration": 4, "velocity": 52}, {"time": 2968, "pitch": 73, "duration": 3, "velocity": 60}, {"time": 2971, "pitch": 63, "duration": 6, "velocity": 49}, {"time": 2971, "pitch": 75, "duration": 3, "velocity": 57}, {"time": 2974, "pitch": 65, "duration": 3, "velocity": 53}, {"time": 2974, "pitch": 77, "duration": 2, "velocity": 64}, {"time": 2977, "pitch": 68, "duration": 2, "velocity": 54}, {"time": 2980, "pitch": 73, "duration": 2, "velocity": 60}, {"time": 2983, "pitch": 75, "duration": 2, "velocity": 55}, {"time": 2986, "pitch": 41, "duration": 2, "velocity": 73}, {"time": 2986, "pitch": 80, "duration": 8, "velocity": 69}, {"time": 2989, "pitch": 53, "duration": 3, "velocity": 66}, {"time": 2992, "pitch": 56, "duration": 12, "velocity": 59}, {"time": 2995, "pitch": 60, "duration": 8, "velocity": 56}, {"time": 2998, "pitch": 65, "duration": 3, "velocity": 64}, {"time": 3001, "pitch": 68, "duration": 3, "velocity": 56}, {"time": 3004, "pitch": 70, "duration": 2, "velocity": 53}, {"time": 3007, "pitch": 72, "duration": 2, "velocity": 62}, {"time": 3010, "pitch": 42, "duration": 8, "velocity": 72}, {"time": 3010, "pitch": 73, "duration": 9, "velocity": 78}, {"time": 3013, "pitch": 49, "duration": 7, "velocity": 63}, {"time": 3016, "pitch": 54, "duration": 5, "velocity": 76}, {"time": 3019, "pitch": 61, "duration": 2, "velocity": 54}, {"time": 3022, "pitch": 44, "duration": 7, "velocity": 69}, {"time": 3022, "pitch": 73, "duration": 9, "velocity": 73}, {"time": 3025, "pitch": 51, "duration": 4, "velocity": 69}, {"time": 3028, "pitch": 56, "duration": 5, "velocity": 64}, {"time": 3031, "pitch": 72, "duration": 3, "velocity": 70}, {"time": 3034, "pitch": 49, "duration": 18, "velocity": 73}, {"time": 3034, "pitch": 65, "duration": 6, "velocity": 62}, {"time": 3034, "pitch": 73, "duration": 7, "velocity": 59}, {"time": 3037, "pitch": 56, "duration": 16, "velocity": 55}, {"time": 3040, "pitch": 61, "duration": 10, "velocity": 67}, {"time": 3043, "pitch": 63, "duration": 2, "velocity": 58}, {"time": 3046, "pitch": 65, "duration": 3, "velocity": 66}, {"time": 3049, "pitch": 68, "duration": 3, "velocity": 56}, {"time": 3052, "pitch": 61, "duration": 4, "velocity": 61}, {"time": 3052, "pitch": 70, "duration": 4, "velocity": 64}, {"time": 3055, "pitch": 68, "duration": 3, "velocity": 63}, {"time": 3058, "pitch": 53, "duration": 19, "velocity": 67}, {"time": 3058, "pitch": 63, "duration": 4, "velocity": 61}, {"time": 3058, "pitch": 68, "duration": 3, "velocity": 53}, {"time": 3061, "pitch": 60, "duration": 10, "velocity": 62}, {"time": 3064, "pitch": 63, "duration": 3, "velocity": 55}, {"time": 3067, "pitch": 68, "duration": 3, "velocity": 72}, {"time": 3070, "pitch": 70, "duration": 4, "velocity": 63}, {"time": 3073, "pitch": 72, "duration": 3, "velocity": 63}, {"time": 3076, "pitch": 60, "duration": 1, "velocity": 72}, {"time": 3076, "pitch": 75, "duration": 2, "velocity": 57}, {"time": 3079, "pitch": 72, "duration": 3, "velocity": 51}, {"time": 3082, "pitch": 46, "duration": 5, "velocity": 72}, {"time": 3082, "pitch": 65, "duration": 11, "velocity": 60}, {"time": 3082, "pitch": 73, "duration": 13, "velocity": 73}, {"time": 3085, "pitch": 53, "duration": 3, "velocity": 70}, {"time": 3088, "pitch": 58, "duration": 4, "velocity": 69}, {"time": 3091, "pitch": 60, "duration": 6, "velocity": 56}, {"time": 3094, "pitch": 61, "duration": 3, "velocity": 72}, {"time": 3097, "pitch": 65, "duration": 2, "velocity": 52}, {"time": 3100, "pitch": 68, "duration": 2, "velocity": 52}, {"time": 3103, "pitch": 73, "duration": 3, "velocity": 64}, {"time": 3106, "pitch": 42, "duration": 18, "velocity": 75}, {"time": 3106, "pitch": 61, "duration": 5, "velocity": 63}, {"time": 3106, "pitch": 66, "duration": 6, "velocity": 67}, {"time": 3106, "pitch": 70, "duration": 6, "velocity": 76}, {"time": 3112, "pitch": 54, "duration": 10, "velocity": 56}, {"time": 3112, "pitch": 68, "duration": 6, "velocity": 72}, {"time": 3118, "pitch": 61, "duration": 3, "velocity": 66}, {"time": 3118, "pitch": 70, "duration": 6, "velocity": 78}, {"time": 3124, "pitch": 54, "duration": 5, "velocity": 61}, {"time": 3124, "pitch": 66, "duration": 1, "velocity": 55}, {"time": 3124, "pitch": 73, "duration": 5, "velocity": 73}, {"time": 3130, "pitch": 44, "duration": 18, "velocity": 73}, {"time": 3130, "pitch": 63, "duration": 6, "velocity": 66}, {"time": 3130, "pitch": 68, "duration": 6, "velocity": 64}, {"time": 3130, "pitch": 72, "duration": 6, "velocity": 73}, {"time": 3136, "pitch": 51, "duration": 7, "velocity": 57}, {"time": 3142, "pitch": 56, "duration": 12, "velocity": 53}, {"time": 3142, "pitch": 63, "duration": 6, "velocity": 63}, {"time": 3142, "pitch": 68, "duration": 6, "velocity": 66}, {"time": 3142, "pitch": 72, "duration": 11, "velocity": 70}, {"time": 3148, "pitch": 51, "duration": 6, "velocity": 55}, {"time": 3154, "pitch": 49, "duration": 38, "velocity": 61}, {"time": 3154, "pitch": 68, "duration": 4, "velocity": 67}, {"time": 3154, "pitch": 73, "duration": 8, "velocity": 62}, {"time": 3160, "pitch": 56, "duration": 7, "velocity": 56}, {"time": 3160, "pitch": 66, "duration": 6, "velocity": 60}, {"time": 3166, "pitch": 61, "duration": 6, "velocity": 51}, {"time": 3166, "pitch": 68, "duration": 5, "velocity": 69}, {"time": 3172, "pitch": 56, "duration": 20, "velocity": 45}, {"time": 3172, "pitch": 70, "duration": 5, "velocity": 52}, {"time": 3178, "pitch": 61, "duration": 15, "velocity": 52}, {"time": 3178, "pitch": 65, "duration": 3, "velocity": 54}, {"time": 3178, "pitch": 68, "duration": 6, "velocity": 58}, {"time": 3178, "pitch": 73, "duration": 7, "velocity": 55}, {"time": 3190, "pitch": 68, "duration": 2, "velocity": 61}, {"time": 3193, "pitch": 73, "duration": 2, "velocity": 60}, {"time": 3196, "pitch": 75, "duration": 3, "velocity": 55}, {"time": 3199, "pitch": 77, "duration": 4, "velocity": 61}, {"time": 3202, "pitch": 54, "duration": 16, "velocity": 62}, {"time": 3202, "pitch": 68, "duration": 7, "velocity": 47}, {"time": 3202, "pitch": 75, "duration": 6, "velocity": 69}, {"time": 3208, "pitch": 61, "duration": 12, "velocity": 44}, {"time": 3208, "pitch": 73, "duration": 5, "velocity": 63}, {"time": 3214, "pitch": 66, "duration": 4, "velocity": 51}, {"time": 3214, "pitch": 70, "duration": 5, "velocity": 64}, {"time": 3220, "pitch": 56, "duration": 2, "velocity": 60}, {"time": 3220, "pitch": 68, "duration": 5, "velocity": 57}, {"time": 3226, "pitch": 49, "duration": 17, "velocity": 69}, {"time": 3226, "pitch": 65, "duration": 9, "velocity": 54}, {"time": 3226, "pitch": 68, "duration": 6, "velocity": 64}, {"time": 3232, "pitch": 56, "duration": 12, "velocity": 40}, {"time": 3238, "pitch": 61, "duration": 6, "velocity": 50}, {"time": 3238, "pitch": 63, "duration": 4, "velocity": 58}, {"time": 3238, "pitch": 68, "duration": 4, "velocity": 63}, {"time": 3244, "pitch": 65, "duration": 1, "velocity": 78}, {"time": 3250, "pitch": 53, "duration": 16, "velocity": 63}, {"time": 3250, "pitch": 63, "duration": 4, "velocity": 53}, {"time": 3250, "pitch": 68, "duration": 4, "velocity": 57}, {"time": 3250, "pitch": 72, "duration": 6, "velocity": 60}, {"time": 3256, "pitch": 60, "duration": 10, "velocity": 44}, {"time": 3256, "pitch": 70, "duration": 5, "velocity": 57}, {"time": 3262, "pitch": 65, "duration": 3, "velocity": 49}, {"time": 3262, "pitch": 68, "duration": 2, "velocity": 59}, {"time": 3262, "pitch": 72, "duration": 1, "velocity": 66}, {"time": 3268, "pitch": 75, "duration": 2, "velocity": 60}, {"time": 3274, "pitch": 46, "duration": 16, "velocity": 58}, {"time": 3274, "pitch": 65, "duration": 4, "velocity": 56}, {"time": 3274, "pitch": 68, "duration": 5, "velocity": 57}, {"time": 3274, "pitch": 73, "duration": 8, "velocity": 61}, {"time": 3280, "pitch": 53, "duration": 10, "velocity": 44}, {"time": 3280, "pitch": 65, "duration": 2, "velocity": 48}, {"time": 3280, "pitch": 72, "duration": 4, "velocity": 55}, {"time": 3286, "pitch": 58, "duration": 3, "velocity": 55}, {"time": 3286, "pitch": 65, "duration": 1, "velocity": 53}, {"time": 3286, "pitch": 68, "duration": 3, "velocity": 63}, {"time": 3292, "pitch": 65, "duration": 2, "velocity": 58}, {"time": 3298, "pitch": 42, "duration": 18, "velocity": 69}, {"time": 3298, "pitch": 61, "duration": 6, "velocity": 60}, {"time": 3298, "pitch": 66, "duration": 5, "velocity": 57}, {"time": 3298, "pitch": 70, "duration": 6, "velocity": 62}, {"time": 3304, "pitch": 54, "duration": 12, "velocity": 38}, {"time": 3304, "pitch": 68, "duration": 4, "velocity": 52}, {"time": 3310, "pitch": 61, "duration": 2, "velocity": 59}, {"time": 3310, "pitch": 70, "duration": 5, "velocity": 70}, {"time": 3316, "pitch": 73, "duration": 6, "velocity": 69}, {"time": 3322, "pitch": 44, "duration": 15, "velocity": 59}, {"time": 3322, "pitch": 56, "duration": 16, "velocity": 45}, {"time": 3322, "pitch": 63, "duration": 7, "velocity": 52}, {"time": 3322, "pitch": 68, "duration": 5, "velocity": 49}, {"time": 3322, "pitch": 72, "duration": 8, "velocity": 57}, {"time": 3334, "pitch": 68, "duration": 4, "velocity": 58}, {"time": 3334, "pitch": 75, "duration": 3, "velocity": 57}, {"time": 3346, "pitch": 49, "duration": 34, "velocity": 70}, {"time": 3346, "pitch": 65, "duration": 12, "velocity": 48}, {"time": 3346, "pitch": 73, "duration": 15, "velocity": 62}, {"time": 3369, "pitch": 85, "duration": 3, "velocity": 33}, {"time": 3370, "pitch": 89, "duration": 8, "velocity": 45}, {"time": 3371, "pitch": 92, "duration": 7, "velocity": 24}, {"time": 3372, "pitch": 97, "duration": 7, "velocity": 53}], "annotations": [{"time": 69, "annotation": {"number": 64, "value": 127}, "group": "control_change"}, {"time": 84, "annotation": {"number": 64, "value": 0}, "group": "control_change"}, {"time": 89, "annotation": {"number": 64, "value": 127}, "group": "control_change"}, {"time": 108, "annotation": {"number": 64, "value": 0}, "group": "control_change"}, {"time": 112, "annotation": {"number": 64, "value": 127}, "group": "control_change"}, {"time": 131, "annotation": {"number": 64, "value": 0}, "group": "control_change"}, {"time": 136, "annotation": {"number": 64, "value": 127}, "group": "control_change"}, {"time": 155, "annotation": {"number": 64, "value": 0}, "group": "control_change"}, {"time": 160, "annotation": {"number": 64, "value": 127}, "group": "control_change"}, {"time": 179, "annotation": {"number": 64, "value": 0}, "group": "control_change"}, {"time": 184, "annotation": {"number": 64, "value": 127}, "group": "control_change"}, {"time": 203, "annotation": {"number": 64, "value": 0}, "group": "control_change"}, {"time": 208, "annotation": {"number": 64, "value": 127}, "group": "control_change"}, {"time": 227, "annotation": {"number": 64, "value": 0}, "group": "control_change"}, {"time": 232, "annotation": {"number": 64, "value": 127}, "group": "control_change"}, {"time": 249, "annotation": {"number": 64, "value": 0}, "group": "control_change"}, {"time": 253, "annotation": {"number": 64, "value": 127}, "group": "control_change"}, {"time": 274, "annotation": {"number": 64, "value": 0}, "group": "control_change"}, {"time": 276, "annotation": {"number": 64, "value": 127}, "group": "control_change"}, {"time": 298, "annotation": {"number": 64, "value": 0}, "group": "control_change"}, {"time": 303, "annotation": {"number": 64, "value": 127}, "group": "control_change"}, {"time": 322, "annotation": {"number": 64, "value": 0}, "group": "control_change"}, {"time": 328, "annotation": {"number": 64, "value": 127}, "group": "control_change"}, {"time": 334, "annotation": {"number": 64, "value": 0}, "group": "control_change"}, {"time": 339, "annotation": {"number": 64, "value": 127}, "group": "control_change"}, {"time": 346, "annotation": {"number": 64, "value": 0}, "group": "control_change"}, {"time": 352, "annotation": {"number": 64, "value": 127}, "group": "control_change"}, {"time": 370, "annotation": {"number": 64, "value": 0}, "group": "control_change"}, {"time": 372, "annotation": {"number": 64, "value": 127}, "group": "control_change"}, {"time": 394, "annotation": {"number": 64, "value": 0}, "group": "control_change"}, {"time": 399, "annotation": {"number": 64, "value": 127}, "group": "control_change"}, {"time": 417, "annotation": {"number": 64, "value": 0}, "group": "control_change"}, {"time": 421, "annotation": {"number": 64, "value": 127}, "group": "control_change"}, {"time": 430, "annotation": {"number": 64, "value": 0}, "group": "control_change"}, {"time": 434, "annotation": {"number": 64, "value": 127}, "group": "control_change"}, {"time": 442, "annotation": {"number": 64, "value": 0}, "group": "control_change"}, {"time": 448, "annotation": {"number": 64, "value": 127}, "group": "control_change"}, {"time": 466, "annotation": {"number": 64, "value": 0}, "group": "control_change"}, {"time": 472, "annotation": {"number": 64, "value": 127}, "group": "control_change"}, {"time": 490, "annotation": {"number": 64, "value": 0}, "group": "control_change"}, {"time": 496, "annotation": {"number": 64, "value": 127}, "group": "control_change"}, {"time": 514, "annotation": {"number": 64, "value": 0}, "group": "control_change"}, {"time": 520, "annotation": {"number": 64, "value": 127}, "group": "control_change"}, {"time": 538, "annotation": {"number": 64, "value": 0}, "group": "control_change"}, {"time": 544, "annotation": {"number": 64, "value": 127}, "group": "control_change"}, {"time": 562, "annotation": {"number": 64, "value": 0}, "group": "control_change"}, {"time": 564, "annotation": {"number": 64, "value": 127}, "group": "control_change"}, {"time": 586, "annotation": {"number": 64, "value": 0}, "group": "control_change"}, {"time": 592, "annotation": {"number": 64, "value": 127}, "group": "control_change"}, {"time": 610, "annotation": {"number": 64, "value": 0}, "group": "control_change"}, {"time": 615, "annotation": {"number": 64, "value": 127}, "group": "control_change"}, {"time": 634, "annotation": {"number": 64, "value": 0}, "group": "control_change"}, {"time": 639, "annotation": {"number": 64, "value": 127}, "group": "control_change"}, {"time": 658, "annotation": {"number": 64, "value": 0}, "group": "control_change"}, {"time": 664, "annotation": {"number": 64, "value": 127}, "group": "control_change"}, {"time": 682, "annotation": {"number": 64, "value": 0}, "group": "control_change"}, {"time": 684, "annotation": {"number": 64, "value": 127}, "group": "control_change"}, {"time": 705, "annotation": {"number": 64, "value": 0}, "group": "control_change"}, {"time": 711, "annotation": {"number": 64, "value": 127}, "group": "control_change"}, {"time": 730, "annotation": {"number": 64, "value": 0}, "group": "control_change"}, {"time": 736, "annotation": {"number": 64, "value": 127}, "group": "control_change"}, {"time": 754, "annotation": {"number": 64, "value": 0}, "group": "control_change"}, {"time": 759, "annotation": {"number": 64, "value": 127}, "group": "control_change"}, {"time": 778, "annotation": {"number": 64, "value": 0}, "group": "control_change"}, {"time": 779, "annotation": {"number": 64, "value": 127}, "group": "control_change"}, {"time": 791, "annotation": {"number": 64, "value": 0}, "group": "control_change"}, {"time": 795, "annotation": {"number": 64, "value": 127}, "group": "control_change"}, {"time": 802, "annotation": {"number": 64, "value": 0}, "group": "control_change"}, {"time": 808, "annotation": {"number": 64, "value": 127}, "group": "control_change"}, {"time": 826, "annotation": {"number": 64, "value": 0}, "group": "control_change"}, {"time": 829, "annotation": {"number": 64, "value": 127}, "group": "control_change"}, {"time": 850, "annotation": {"number": 64, "value": 0}, "group": "control_change"}, {"time": 853, "annotation": {"number": 64, "value": 127}, "group": "control_change"}, {"time": 875, "annotation": {"number": 64, "value": 0}, "group": "control_change"}, {"time": 878, "annotation": {"number": 64, "value": 127}, "group": "control_change"}, {"time": 899, "annotation": {"number": 64, "value": 0}, "group": "control_change"}, {"time": 903, "annotation": {"number": 64, "value": 127}, "group": "control_change"}, {"time": 910, "annotation": {"number": 64, "value": 0}, "group": "control_change"}, {"time": 913, "annotation": {"number": 64, "value": 127}, "group": "control_change"}, {"time": 922, "annotation": {"number": 64, "value": 0}, "group": "control_change"}, {"time": 926, "annotation": {"number": 64, "value": 127}, "group": "control_change"}, {"time": 947, "annotation": {"number": 64, "value": 0}, "group": "control_change"}, {"time": 951, "annotation": {"number": 64, "value": 127}, "group": "control_change"}, {"time": 970, "annotation": {"number": 64, "value": 0}, "group": "control_change"}, {"time": 974, "annotation": {"number": 64, "value": 127}, "group": "control_change"}, {"time": 994, "annotation": {"number": 64, "value": 0}, "group": "control_change"}, {"time": 998, "annotation": {"number": 64, "value": 127}, "group": "control_change"}, {"time": 1017, "annotation": {"number": 64, "value": 0}, "group": "control_change"}, {"time": 1021, "annotation": {"number": 64, "value": 127}, "group": "control_change"}, {"time": 1042, "annotation": {"number": 64, "value": 0}, "group": "control_change"}, {"time": 1047, "annotation": {"number": 64, "value": 127}, "group": "control_change"}, {"time": 1067, "annotation": {"number": 64, "value": 0}, "group": "control_change"}, {"time": 1071, "annotation": {"number": 64, "value": 127}, "group": "control_change"}, {"time": 1090, "annotation": {"number": 64, "value": 0}, "group": "control_change"}, {"time": 1094, "annotation": {"number": 64, "value": 127}, "group": "control_change"}, {"time": 1103, "annotation": {"number": 64, "value": 0}, "group": "control_change"}, {"time": 1107, "annotation": {"number": 64, "value": 127}, "group": "control_change"}, {"time": 1115, "annotation": {"number": 64, "value": 0}, "group": "control_change"}, {"time": 1118, "annotation": {"number": 64, "value": 127}, "group": "control_change"}, {"time": 1138, "annotation": {"number": 64, "value": 0}, "group": "control_change"}, {"time": 1141, "annotation": {"number": 64, "value": 127}, "group": "control_change"}, {"time": 1161, "annotation": {"number": 64, "value": 0}, "group": "control_change"}, {"time": 1165, "annotation": {"number": 64, "value": 127}, "group": "control_change"}, {"time": 1186, "annotation": {"number": 64, "value": 0}, "group": "control_change"}, {"time": 1190, "annotation": {"number": 64, "value": 127}, "group": "control_change"}, {"time": 1210, "annotation": {"number": 64, "value": 0}, "group": "control_change"}, {"time": 1214, "annotation": {"number": 64, "value": 127}, "group": "control_change"}, {"time": 1234, "annotation": {"number": 64, "value": 0}, "group": "control_change"}, {"time": 1235, "annotation": {"number": 64, "value": 127}, "group": "control_change"}, {"time": 1258, "annotation": {"number": 64, "value": 0}, "group": "control_change"}, {"time": 1263, "annotation": {"number": 64, "value": 127}, "group": "control_change"}, {"time": 1274, "annotation": {"number": 64, "value": 0}, "group": "control_change"}, {"time": 1287, "annotation": {"number": 64, "value": 127}, "group": "control_change"}, {"time": 1293, "annotation": {"number": 64, "value": 0}, "group": "control_change"}, {"time": 1297, "annotation": {"number": 64, "value": 127}, "group": "control_change"}, {"time": 1305, "annotation": {"number": 64, "value": 0}, "group": "control_change"}, {"time": 1309, "annotation": {"number": 64, "value": 127}, "group": "control_change"}, {"time": 1330, "annotation": {"number": 64, "value": 0}, "group": "control_change"}, {"time": 1335, "annotation": {"number": 64, "value": 127}, "group": "control_change"}, {"time": 1355, "annotation": {"number": 64, "value": 0}, "group": "control_change"}, {"time": 1360, "annotation": {"number": 64, "value": 127}, "group": "control_change"}, {"time": 1378, "annotation": {"number": 64, "value": 0}, "group": "control_change"}, {"time": 1383, "annotation": {"number": 64, "value": 127}, "group": "control_change"}, {"time": 1398, "annotation": {"number": 64, "value": 0}, "group": "control_change"}, {"time": 1406, "annotation": {"number": 64, "value": 127}, "group": "control_change"}, {"time": 1414, "annotation": {"number": 64, "value": 0}, "group": "control_change"}, {"time": 1422, "annotation": {"number": 64, "value": 127}, "group": "control_change"}, {"time": 1426, "annotation": {"number": 64, "value": 0}, "group": "control_change"}, {"time": 1430, "annotation": {"number": 64, "value": 127}, "group": "control_change"}, {"time": 1451, "annotation": {"number": 64, "value": 0}, "group": "control_change"}, {"time": 1455, "annotation": {"number": 64, "value": 127}, "group": "control_change"}, {"time": 1474, "annotation": {"number": 64, "value": 0}, "group": "control_change"}, {"time": 1478, "annotation": {"number": 64, "value": 127}, "group": "control_change"}, {"time": 1486, "annotation": {"number": 64, "value": 0}, "group": "control_change"}, {"time": 1491, "annotation": {"number": 64, "value": 127}, "group": "control_change"}, {"time": 1498, "annotation": {"number": 64, "value": 0}, "group": "control_change"}, {"time": 1503, "annotation": {"number": 64, "value": 127}, "group": "control_change"}, {"time": 1521, "annotation": {"number": 64, "value": 0}, "group": "control_change"}, {"time": 1526, "annotation": {"number": 64, "value": 127}, "group": "control_change"}, {"time": 1545, "annotation": {"number": 64, "value": 0}, "group": "control_change"}, {"time": 1550, "annotation": {"number": 64, "value": 127}, "group": "control_change"}, {"time": 1569, "annotation": {"number": 64, "value": 0}, "group": "control_change"}, {"time": 1575, "annotation": {"number": 64, "value": 127}, "group": "control_change"}, {"time": 1594, "annotation": {"number": 64, "value": 0}, "group": "control_change"}, {"time": 1599, "annotation": {"number": 64, "value": 127}, "group": "control_change"}, {"time": 1616, "annotation": {"number": 64, "value": 0}, "group": "control_change"}, {"time": 1624, "annotation": {"number": 64, "value": 127}, "group": "control_change"}, {"time": 1642, "annotation": {"number": 64, "value": 0}, "group": "control_change"}, {"time": 1648, "annotation": {"number": 64, "value": 127}, "group": "control_change"}, {"time": 1666, "annotation": {"number": 64, "value": 0}, "group": "control_change"}, {"time": 1672, "annotation": {"number": 64, "value": 127}, "group": "control_change"}, {"time": 1690, "annotation": {"number": 64, "value": 0}, "group": "control_change"}, {"time": 1696, "annotation": {"number": 64, "value": 127}, "group": "control_change"}, {"time": 1714, "annotation": {"number": 64, "value": 0}, "group": "control_change"}, {"time": 1716, "annotation": {"number": 64, "value": 127}, "group": "control_change"}, {"time": 1738, "annotation": {"number": 64, "value": 0}, "group": "control_change"}, {"time": 1744, "annotation": {"number": 64, "value": 127}, "group": "control_change"}, {"time": 1762, "annotation": {"number": 64, "value": 0}, "group": "control_change"}, {"time": 1767, "annotation": {"number": 64, "value": 127}, "group": "control_change"}, {"time": 1786, "annotation": {"number": 64, "value": 0}, "group": "control_change"}, {"time": 1791, "annotation": {"number": 64, "value": 127}, "group": "control_change"}, {"time": 1810, "annotation": {"number": 64, "value": 0}, "group": "control_change"}, {"time": 1816, "annotation": {"number": 64, "value": 127}, "group": "control_change"}, {"time": 1834, "annotation": {"number": 64, "value": 0}, "group": "control_change"}, {"time": 1836, "annotation": {"number": 64, "value": 127}, "group": "control_change"}, {"time": 1857, "annotation": {"number": 64, "value": 0}, "group": "control_change"}, {"time": 1863, "annotation": {"number": 64, "value": 127}, "group": "control_change"}, {"time": 1882, "annotation": {"number": 64, "value": 0}, "group": "control_change"}, {"time": 1888, "annotation": {"number": 64, "value": 127}, "group": "control_change"}, {"time": 1906, "annotation": {"number": 64, "value": 0}, "group": "control_change"}, {"time": 1911, "annotation": {"number": 64, "value": 127}, "group": "control_change"}, {"time": 1930, "annotation": {"number": 64, "value": 0}, "group": "control_change"}, {"time": 1931, "annotation": {"number": 64, "value": 127}, "group": "control_change"}, {"time": 1943, "annotation": {"number": 64, "value": 0}, "group": "control_change"}, {"time": 1947, "annotation": {"number": 64, "value": 127}, "group": "control_change"}, {"time": 1954, "annotation": {"number": 64, "value": 0}, "group": "control_change"}, {"time": 1960, "annotation": {"number": 64, "value": 127}, "group": "control_change"}, {"time": 1978, "annotation": {"number": 64, "value": 0}, "group": "control_change"}, {"time": 1981, "annotation": {"number": 64, "value": 127}, "group": "control_change"}, {"time": 2002, "annotation": {"number": 64, "value": 0}, "group": "control_change"}, {"time": 2005, "annotation": {"number": 64, "value": 127}, "group": "control_change"}, {"time": 2027, "annotation": {"number": 64, "value": 0}, "group": "control_change"}, {"time": 2030, "annotation": {"number": 64, "value": 127}, "group": "control_change"}, {"time": 2051, "annotation": {"number": 64, "value": 0}, "group": "control_change"}, {"time": 2055, "annotation": {"number": 64, "value": 127}, "group": "control_change"}, {"time": 2062, "annotation": {"number": 64, "value": 0}, "group": "control_change"}, {"time": 2065, "annotation": {"number": 64, "value": 127}, "group": "control_change"}, {"time": 2074, "annotation": {"number": 64, "value": 0}, "group": "control_change"}, {"time": 2078, "annotation": {"number": 64, "value": 127}, "group": "control_change"}, {"time": 2099, "annotation": {"number": 64, "value": 0}, "group": "control_change"}, {"time": 2103, "annotation": {"number": 64, "value": 127}, "group": "control_change"}, {"time": 2122, "annotation": {"number": 64, "value": 0}, "group": "control_change"}, {"time": 2126, "annotation": {"number": 64, "value": 127}, "group": "control_change"}, {"time": 2146, "annotation": {"number": 64, "value": 0}, "group": "control_change"}, {"time": 2150, "annotation": {"number": 64, "value": 127}, "group": "control_change"}, {"time": 2169, "annotation": {"number": 64, "value": 0}, "group": "control_change"}, {"time": 2173, "annotation": {"number": 64, "value": 127}, "group": "control_change"}, {"time": 2194, "annotation": {"number": 64, "value": 0}, "group": "control_change"}, {"time": 2199, "annotation": {"number": 64, "value": 127}, "group": "control_change"}, {"time": 2219, "annotation": {"number": 64, "value": 0}, "group": "control_change"}, {"time": 2223, "annotation": {"number": 64, "value": 127}, "group": "control_change"}, {"time": 2242, "annotation": {"number": 64, "value": 0}, "group": "control_change"}, {"time": 2246, "annotation": {"number": 64, "value": 127}, "group": "control_change"}, {"time": 2255, "annotation": {"number": 64, "value": 0}, "group": "control_change"}, {"time": 2259, "annotation": {"number": 64, "value": 127}, "group": "control_change"}, {"time": 2267, "annotation": {"number": 64, "value": 0}, "group": "control_change"}, {"time": 2270, "annotation": {"number": 64, "value": 127}, "group": "control_change"}, {"time": 2290, "annotation": {"number": 64, "value": 0}, "group": "control_change"}, {"time": 2293, "annotation": {"number": 64, "value": 127}, "group": "control_change"}, {"time": 2313, "annotation": {"number": 64, "value": 0}, "group": "control_change"}, {"time": 2317, "annotation": {"number": 64, "value": 127}, "group": "control_change"}, {"time": 2338, "annotation": {"number": 64, "value": 0}, "group": "control_change"}, {"time": 2342, "annotation": {"number": 64, "value": 127}, "group": "control_change"}, {"time": 2362, "annotation": {"number": 64, "value": 0}, "group": "control_change"}, {"time": 2366, "annotation": {"number": 64, "value": 127}, "group": "control_change"}, {"time": 2386, "annotation": {"number": 64, "value": 0}, "group": "control_change"}, {"time": 2387, "annotation": {"number": 64, "value": 127}, "group": "control_change"}, {"time": 2410, "annotation": {"number": 64, "value": 0}, "group": "control_change"}, {"time": 2415, "annotation": {"number": 64, "value": 127}, "group": "control_change"}, {"time": 2426, "annotation": {"number": 64, "value": 0}, "group": "control_change"}, {"time": 2439, "annotation": {"number": 64, "value": 127}, "group": "control_change"}, {"time": 2445, "annotation": {"number": 64, "value": 0}, "group": "control_change"}, {"time": 2449, "annotation": {"number": 64, "value": 127}, "group": "control_change"}, {"time": 2457, "annotation": {"number": 64, "value": 0}, "group": "control_change"}, {"time": 2461, "annotation": {"number": 64, "value": 127}, "group": "control_change"}, {"time": 2482, "annotation": {"number": 64, "value": 0}, "group": "control_change"}, {"time": 2487, "annotation": {"number": 64, "value": 127}, "group": "control_change"}, {"time": 2507, "annotation": {"number": 64, "value": 0}, "group": "control_change"}, {"time": 2512, "annotation": {"number": 64, "value": 127}, "group": "control_change"}, {"time": 2530, "annotation": {"number": 64, "value": 0}, "group": "control_change"}, {"time": 2535, "annotation": {"number": 64, "value": 127}, "group": "control_change"}, {"time": 2550, "annotation": {"number": 64, "value": 0}, "group": "control_change"}, {"time": 2558, "annotation": {"number": 64, "value": 127}, "group": "control_change"}, {"time": 2566, "annotation": {"number": 64, "value": 0}, "group": "control_change"}, {"time": 2574, "annotation": {"number": 64, "value": 127}, "group": "control_change"}, {"time": 2578, "annotation": {"number": 64, "value": 0}, "group": "control_change"}, {"time": 2582, "annotation": {"number": 64, "value": 127}, "group": "control_change"}, {"time": 2603, "annotation": {"number": 64, "value": 0}, "group": "control_change"}, {"time": 2607, "annotation": {"number": 64, "value": 127}, "group": "control_change"}, {"time": 2626, "annotation": {"number": 64, "value": 0}, "group": "control_change"}, {"time": 2630, "annotation": {"number": 64, "value": 127}, "group": "control_change"}, {"time": 2638, "annotation": {"number": 64, "value": 0}, "group": "control_change"}, {"time": 2643, "annotation": {"number": 64, "value": 127}, "group": "control_change"}, {"time": 2650, "annotation": {"number": 64, "value": 0}, "group": "control_change"}, {"time": 2655, "annotation": {"number": 64, "value": 127}, "group": "control_change"}, {"time": 2673, "annotation": {"number": 64, "value": 0}, "group": "control_change"}, {"time": 2678, "annotation": {"number": 64, "value": 127}, "group": "control_change"}, {"time": 2697, "annotation": {"number": 64, "value": 0}, "group": "control_change"}, {"time": 2699, "annotation": {"number": 64, "value": 127}, "group": "control_change"}, {"time": 2722, "annotation": {"number": 64, "value": 0}, "group": "control_change"}, {"time": 2727, "annotation": {"number": 64, "value": 127}, "group": "control_change"}, {"time": 2745, "annotation": {"number": 64, "value": 0}, "group": "control_change"}, {"time": 2751, "annotation": {"number": 64, "value": 127}, "group": "control_change"}, {"time": 2768, "annotation": {"number": 64, "value": 0}, "group": "control_change"}, {"time": 2773, "annotation": {"number": 64, "value": 127}, "group": "control_change"}, {"time": 2784, "annotation": {"number": 64, "value": 0}, "group": "control_change"}, {"time": 2786, "annotation": {"number": 64, "value": 127}, "group": "control_change"}, {"time": 2794, "annotation": {"number": 64, "value": 0}, "group": "control_change"}, {"time": 2798, "annotation": {"number": 64, "value": 127}, "group": "control_change"}, {"time": 2819, "annotation": {"number": 64, "value": 0}, "group": "control_change"}, {"time": 2822, "annotation": {"number": 64, "value": 127}, "group": "control_change"}, {"time": 2831, "annotation": {"number": 64, "value": 0}, "group": "control_change"}, {"time": 2835, "annotation": {"number": 64, "value": 127}, "group": "control_change"}, {"time": 2842, "annotation": {"number": 64, "value": 0}, "group": "control_change"}, {"time": 2847, "annotation": {"number": 64, "value": 127}, "group": "control_change"}, {"time": 2866, "annotation": {"number": 64, "value": 0}, "group": "control_change"}, {"time": 2871, "annotation": {"number": 64, "value": 127}, "group": "control_change"}, {"time": 2891, "annotation": {"number": 64, "value": 0}, "group": "control_change"}, {"time": 2896, "annotation": {"number": 64, "value": 127}, "group": "control_change"}, {"time": 2914, "annotation": {"number": 64, "value": 0}, "group": "control_change"}, {"time": 2915, "annotation": {"number": 64, "value": 127}, "group": "control_change"}, {"time": 2938, "annotation": {"number": 64, "value": 0}, "group": "control_change"}, {"time": 2942, "annotation": {"number": 64, "value": 127}, "group": "control_change"}, {"time": 2961, "annotation": {"number": 64, "value": 0}, "group": "control_change"}, {"time": 2965, "annotation": {"number": 64, "value": 127}, "group": "control_change"}, {"time": 2985, "annotation": {"number": 64, "value": 0}, "group": "control_change"}, {"time": 2989, "annotation": {"number": 64, "value": 127}, "group": "control_change"}, {"time": 3010, "annotation": {"number": 64, "value": 0}, "group": "control_change"}, {"time": 3014, "annotation": {"number": 64, "value": 127}, "group": "control_change"}, {"time": 3023, "annotation": {"number": 64, "value": 0}, "group": "control_change"}, {"time": 3027, "annotation": {"number": 64, "value": 127}, "group": "control_change"}, {"time": 3034, "annotation": {"number": 64, "value": 0}, "group": "control_change"}, {"time": 3039, "annotation": {"number": 64, "value": 127}, "group": "control_change"}, {"time": 3057, "annotation": {"number": 64, "value": 0}, "group": "control_change"}, {"time": 3062, "annotation": {"number": 64, "value": 127}, "group": "control_change"}, {"time": 3082, "annotation": {"number": 64, "value": 0}, "group": "control_change"}, {"time": 3086, "annotation": {"number": 64, "value": 127}, "group": "control_change"}, {"time": 3105, "annotation": {"number": 64, "value": 0}, "group": "control_change"}, {"time": 3110, "annotation": {"number": 64, "value": 127}, "group": "control_change"}, {"time": 3129, "annotation": {"number": 64, "value": 0}, "group": "control_change"}, {"time": 3135, "annotation": {"number": 64, "value": 127}, "group": "control_change"}, {"time": 3153, "annotation": {"number": 64, "value": 0}, "group": "control_change"}, {"time": 3160, "annotation": {"number": 64, "value": 127}, "group": "control_change"}, {"time": 3194, "annotation": {"number": 64, "value": 0}, "group": "control_change"}, {"time": 3208, "annotation": {"number": 64, "value": 127}, "group": "control_change"}, {"time": 3225, "annotation": {"number": 64, "value": 0}, "group": "control_change"}, {"time": 3232, "annotation": {"number": 64, "value": 127}, "group": "control_change"}, {"time": 3248, "annotation": {"number": 64, "value": 0}, "group": "control_change"}, {"time": 3256, "annotation": {"number": 64, "value": 127}, "group": "control_change"}, {"time": 3274, "annotation": {"number": 64, "value": 0}, "group": "control_change"}, {"time": 3279, "annotation": {"number": 64, "value": 127}, "group": "control_change"}, {"time": 3296, "annotation": {"number": 64, "value": 0}, "group": "control_change"}, {"time": 3302, "annotation": {"number": 64, "value": 127}, "group": "control_change"}, {"time": 3321, "annotation": {"number": 64, "value": 0}, "group": "control_change"}, {"time": 3326, "annotation": {"number": 64, "value": 127}, "group": "control_change"}, {"time": 3342, "annotation": {"number": 64, "value": 0}, "group": "control_change"}, {"time": 3348, "annotation": {"number": 64, "value": 127}, "group": "control_change"}, {"time": 3392, "annotation": {"number": 64, "value": 0}, "group": "control_change"}]}]}