{"metadata": {"schema_version": "0.2", "title": "None", "source_filename": "190.mid", "source_format": "midi"}, "resolution": 12, "tempos": [{"time": 0, "qpm": 75.0}], "key_signatures": [{"time": 0, "root": 0, "mode": "major"}], "time_signatures": [{"time": 0, "numerator": 4, "denominator": 4}], "tracks": [{"program": 0, "is_drum": false, "name": "MELODY", "notes": [{"time": 660, "pitch": 67, "duration": 13, "velocity": 87}, {"time": 672, "pitch": 72, "duration": 12, "velocity": 91}, {"time": 684, "pitch": 76, "duration": 12, "velocity": 90}, {"time": 696, "pitch": 74, "duration": 9, "velocity": 97}, {"time": 714, "pitch": 77, "duration": 2, "velocity": 90}, {"time": 717, "pitch": 77, "duration": 2, "velocity": 87}, {"time": 720, "pitch": 77, "duration": 4, "velocity": 90}, {"time": 726, "pitch": 76, "duration": 3, "velocity": 87}, {"time": 729, "pitch": 74, "duration": 9, "velocity": 86}, {"time": 738, "pitch": 72, "duration": 2, "velocity": 66}, {"time": 741, "pitch": 72, "duration": 12, "velocity": 87}, {"time": 756, "pitch": 67, "duration": 12, "velocity": 84}, {"time": 768, "pitch": 72, "duration": 9, "velocity": 101}, {"time": 780, "pitch": 71, "duration": 6, "velocity": 97}, {"time": 792, "pitch": 69, "duration": 13, "velocity": 97}, {"time": 810, "pitch": 69, "duration": 2, "velocity": 74}, {"time": 813, "pitch": 69, "duration": 2, "velocity": 79}, {"time": 816, "pitch": 69, "duration": 4, "velocity": 77}, {"time": 822, "pitch": 67, "duration": 3, "velocity": 68}, {"time": 825, "pitch": 65, "duration": 7, "velocity": 68}, {"time": 831, "pitch": 64, "duration": 7, "velocity": 58}, {"time": 837, "pitch": 67, "duration": 14, "velocity": 77}, {"time": 852, "pitch": 67, "duration": 14, "velocity": 92}, {"time": 864, "pitch": 72, "duration": 12, "velocity": 86}, {"time": 876, "pitch": 76, "duration": 13, "velocity": 90}, {"time": 888, "pitch": 74, "duration": 12, "velocity": 106}, {"time": 906, "pitch": 77, "duration": 2, "velocity": 105}, {"time": 909, "pitch": 77, "duration": 2, "velocity": 95}, {"time": 912, "pitch": 77, "duration": 4, "velocity": 100}, {"time": 918, "pitch": 76, "duration": 3, "velocity": 106}, {"time": 921, "pitch": 74, "duration": 6, "velocity": 101}, {"time": 927, "pitch": 72, "duration": 7, "velocity": 90}, {"time": 933, "pitch": 76, "duration": 13, "velocity": 99}, {"time": 948, "pitch": 67, "duration": 13, "velocity": 91}, {"time": 960, "pitch": 72, "duration": 11, "velocity": 103}, {"time": 972, "pitch": 71, "duration": 13, "velocity": 95}, {"time": 984, "pitch": 69, "duration": 16, "velocity": 101}, {"time": 1002, "pitch": 72, "duration": 2, "velocity": 98}, {"time": 1005, "pitch": 72, "duration": 2, "velocity": 97}, {"time": 1008, "pitch": 72, "duration": 7, "velocity": 93}, {"time": 1014, "pitch": 71, "duration": 4, "velocity": 97}, {"time": 1017, "pitch": 72, "duration": 7, "velocity": 96}, {"time": 1023, "pitch": 74, "duration": 6, "velocity": 83}, {"time": 1029, "pitch": 76, "duration": 7, "velocity": 97}, {"time": 1038, "pitch": 69, "duration": 3, "velocity": 90}, {"time": 1041, "pitch": 71, "duration": 3, "velocity": 79}, {"time": 1044, "pitch": 72, "duration": 3, "velocity": 93}, {"time": 1050, "pitch": 69, "duration": 3, "velocity": 90}, {"time": 1053, "pitch": 71, "duration": 4, "velocity": 66}, {"time": 1056, "pitch": 72, "duration": 13, "velocity": 96}, {"time": 1086, "pitch": 67, "duration": 4, "velocity": 61}, {"time": 1089, "pitch": 69, "duration": 4, "velocity": 76}, {"time": 1092, "pitch": 71, "duration": 5, "velocity": 83}, {"time": 1098, "pitch": 67, "duration": 4, "velocity": 68}, {"time": 1101, "pitch": 69, "duration": 4, "velocity": 66}, {"time": 1104, "pitch": 71, "duration": 4, "velocity": 77}, {"time": 1107, "pitch": 69, "duration": 4, "velocity": 66}, {"time": 1110, "pitch": 71, "duration": 7, "velocity": 93}, {"time": 1134, "pitch": 69, "duration": 4, "velocity": 100}, {"time": 1140, "pitch": 69, "duration": 6, "velocity": 98}, {"time": 1146, "pitch": 71, "duration": 6, "velocity": 97}, {"time": 1152, "pitch": 72, "duration": 6, "velocity": 95}, {"time": 1158, "pitch": 74, "duration": 7, "velocity": 91}, {"time": 1164, "pitch": 76, "duration": 5, "velocity": 93}, {"time": 1170, "pitch": 77, "duration": 4, "velocity": 94}, {"time": 1176, "pitch": 76, "duration": 11, "velocity": 101}, {"time": 1188, "pitch": 74, "duration": 3, "velocity": 100}, {"time": 1194, "pitch": 72, "duration": 14, "velocity": 98}, {"time": 1212, "pitch": 71, "duration": 14, "velocity": 89}, {"time": 1230, "pitch": 69, "duration": 4, "velocity": 94}, {"time": 1233, "pitch": 71, "duration": 3, "velocity": 90}, {"time": 1236, "pitch": 72, "duration": 4, "velocity": 96}, {"time": 1242, "pitch": 69, "duration": 4, "velocity": 91}, {"time": 1245, "pitch": 71, "duration": 9, "velocity": 82}, {"time": 1251, "pitch": 72, "duration": 17, "velocity": 92}, {"time": 1278, "pitch": 71, "duration": 3, "velocity": 94}, {"time": 1281, "pitch": 72, "duration": 3, "velocity": 90}, {"time": 1284, "pitch": 74, "duration": 4, "velocity": 92}, {"time": 1290, "pitch": 71, "duration": 3, "velocity": 91}, {"time": 1293, "pitch": 72, "duration": 5, "velocity": 94}, {"time": 1299, "pitch": 74, "duration": 16, "velocity": 97}, {"time": 1326, "pitch": 74, "duration": 4, "velocity": 103}, {"time": 1332, "pitch": 74, "duration": 6, "velocity": 96}, {"time": 1338, "pitch": 76, "duration": 7, "velocity": 95}, {"time": 1344, "pitch": 77, "duration": 7, "velocity": 99}, {"time": 1350, "pitch": 76, "duration": 6, "velocity": 93}, {"time": 1356, "pitch": 74, "duration": 6, "velocity": 93}, {"time": 1362, "pitch": 79, "duration": 9, "velocity": 97}, {"time": 1374, "pitch": 79, "duration": 6, "velocity": 99}, {"time": 1380, "pitch": 81, "duration": 9, "velocity": 106}, {"time": 1386, "pitch": 79, "duration": 33, "velocity": 103}, {"time": 1416, "pitch": 81, "duration": 42, "velocity": 109}, {"time": 1476, "pitch": 81, "duration": 12, "velocity": 109}, {"time": 1488, "pitch": 79, "duration": 12, "velocity": 109}, {"time": 1500, "pitch": 78, "duration": 13, "velocity": 99}, {"time": 1512, "pitch": 76, "duration": 16, "velocity": 97}, {"time": 1533, "pitch": 69, "duration": 3, "velocity": 86}, {"time": 1536, "pitch": 81, "duration": 6, "velocity": 90}, {"time": 1542, "pitch": 79, "duration": 4, "velocity": 87}, {"time": 1545, "pitch": 78, "duration": 6, "velocity": 98}, {"time": 1551, "pitch": 76, "duration": 9, "velocity": 103}, {"time": 1560, "pitch": 74, "duration": 9, "velocity": 97}, {"time": 1572, "pitch": 81, "duration": 9, "velocity": 97}, {"time": 1584, "pitch": 74, "duration": 13, "velocity": 106}, {"time": 1596, "pitch": 73, "duration": 12, "velocity": 104}, {"time": 1608, "pitch": 71, "duration": 14, "velocity": 98}, {"time": 1626, "pitch": 79, "duration": 2, "velocity": 95}, {"time": 1629, "pitch": 79, "duration": 2, "velocity": 105}, {"time": 1632, "pitch": 79, "duration": 4, "velocity": 99}, {"time": 1638, "pitch": 79, "duration": 4, "velocity": 95}, {"time": 1641, "pitch": 78, "duration": 7, "velocity": 89}, {"time": 1647, "pitch": 79, "duration": 6, "velocity": 93}, {"time": 1653, "pitch": 81, "duration": 21, "velocity": 99}, {"time": 1668, "pitch": 81, "duration": 6, "velocity": 105}, {"time": 1680, "pitch": 79, "duration": 12, "velocity": 109}, {"time": 1692, "pitch": 78, "duration": 12, "velocity": 100}, {"time": 1704, "pitch": 76, "duration": 17, "velocity": 101}, {"time": 1722, "pitch": 69, "duration": 2, "velocity": 71}, {"time": 1725, "pitch": 69, "duration": 2, "velocity": 75}, {"time": 1728, "pitch": 81, "duration": 6, "velocity": 90}, {"time": 1734, "pitch": 79, "duration": 4, "velocity": 91}, {"time": 1737, "pitch": 78, "duration": 6, "velocity": 97}, {"time": 1743, "pitch": 76, "duration": 9, "velocity": 90}, {"time": 1752, "pitch": 74, "duration": 7, "velocity": 90}, {"time": 1758, "pitch": 71, "duration": 3, "velocity": 91}, {"time": 1761, "pitch": 73, "duration": 4, "velocity": 95}, {"time": 1764, "pitch": 74, "duration": 6, "velocity": 95}, {"time": 1770, "pitch": 71, "duration": 3, "velocity": 93}, {"time": 1773, "pitch": 73, "duration": 3, "velocity": 79}, {"time": 1776, "pitch": 74, "duration": 12, "velocity": 97}, {"time": 1794, "pitch": 71, "duration": 3, "velocity": 77}, {"time": 1797, "pitch": 73, "duration": 4, "velocity": 86}, {"time": 1800, "pitch": 74, "duration": 5, "velocity": 97}, {"time": 1806, "pitch": 73, "duration": 3, "velocity": 89}, {"time": 1809, "pitch": 74, "duration": 3, "velocity": 91}, {"time": 1815, "pitch": 83, "duration": 7, "velocity": 101}, {"time": 1824, "pitch": 81, "duration": 3, "velocity": 103}, {"time": 1830, "pitch": 73, "duration": 2, "velocity": 98}, {"time": 1833, "pitch": 73, "duration": 4, "velocity": 93}, {"time": 1839, "pitch": 76, "duration": 10, "velocity": 89}, {"time": 1848, "pitch": 74, "duration": 35, "velocity": 105}, {"time": 2334, "pitch": 69, "duration": 3, "velocity": 90}, {"time": 2337, "pitch": 71, "duration": 3, "velocity": 79}, {"time": 2340, "pitch": 72, "duration": 3, "velocity": 93}, {"time": 2346, "pitch": 69, "duration": 3, "velocity": 90}, {"time": 2349, "pitch": 71, "duration": 4, "velocity": 66}, {"time": 2352, "pitch": 72, "duration": 13, "velocity": 96}, {"time": 2382, "pitch": 67, "duration": 4, "velocity": 61}, {"time": 2385, "pitch": 69, "duration": 4, "velocity": 76}, {"time": 2388, "pitch": 71, "duration": 5, "velocity": 83}, {"time": 2394, "pitch": 67, "duration": 4, "velocity": 68}, {"time": 2397, "pitch": 69, "duration": 4, "velocity": 66}, {"time": 2400, "pitch": 71, "duration": 4, "velocity": 77}, {"time": 2403, "pitch": 69, "duration": 4, "velocity": 66}, {"time": 2406, "pitch": 71, "duration": 7, "velocity": 93}, {"time": 2430, "pitch": 69, "duration": 4, "velocity": 100}, {"time": 2436, "pitch": 69, "duration": 6, "velocity": 98}, {"time": 2442, "pitch": 71, "duration": 6, "velocity": 97}, {"time": 2448, "pitch": 72, "duration": 6, "velocity": 95}, {"time": 2454, "pitch": 74, "duration": 7, "velocity": 91}, {"time": 2460, "pitch": 76, "duration": 5, "velocity": 93}, {"time": 2466, "pitch": 77, "duration": 4, "velocity": 94}, {"time": 2472, "pitch": 76, "duration": 11, "velocity": 101}, {"time": 2484, "pitch": 74, "duration": 3, "velocity": 100}, {"time": 2490, "pitch": 72, "duration": 14, "velocity": 98}, {"time": 2508, "pitch": 71, "duration": 14, "velocity": 89}, {"time": 2526, "pitch": 69, "duration": 4, "velocity": 94}, {"time": 2529, "pitch": 71, "duration": 4, "velocity": 90}, {"time": 2532, "pitch": 72, "duration": 4, "velocity": 96}, {"time": 2538, "pitch": 69, "duration": 4, "velocity": 91}, {"time": 2541, "pitch": 71, "duration": 9, "velocity": 82}, {"time": 2547, "pitch": 72, "duration": 17, "velocity": 92}, {"time": 2574, "pitch": 71, "duration": 3, "velocity": 94}, {"time": 2577, "pitch": 72, "duration": 3, "velocity": 90}, {"time": 2580, "pitch": 74, "duration": 4, "velocity": 92}, {"time": 2586, "pitch": 71, "duration": 3, "velocity": 91}, {"time": 2589, "pitch": 72, "duration": 5, "velocity": 94}, {"time": 2595, "pitch": 74, "duration": 16, "velocity": 97}, {"time": 2622, "pitch": 74, "duration": 4, "velocity": 103}, {"time": 2628, "pitch": 74, "duration": 6, "velocity": 96}, {"time": 2634, "pitch": 76, "duration": 7, "velocity": 95}, {"time": 2640, "pitch": 77, "duration": 7, "velocity": 99}, {"time": 2646, "pitch": 76, "duration": 6, "velocity": 93}, {"time": 2652, "pitch": 74, "duration": 6, "velocity": 93}, {"time": 2658, "pitch": 79, "duration": 9, "velocity": 97}, {"time": 2670, "pitch": 81, "duration": 6, "velocity": 99}, {"time": 2676, "pitch": 81, "duration": 1, "velocity": 106}, {"time": 2682, "pitch": 79, "duration": 22, "velocity": 103}, {"time": 2703, "pitch": 76, "duration": 3, "velocity": 100}, {"time": 2706, "pitch": 79, "duration": 3, "velocity": 100}, {"time": 2709, "pitch": 81, "duration": 45, "velocity": 109}, {"time": 2772, "pitch": 81, "duration": 12, "velocity": 109}, {"time": 2784, "pitch": 79, "duration": 12, "velocity": 109}, {"time": 2796, "pitch": 78, "duration": 13, "velocity": 99}, {"time": 2808, "pitch": 76, "duration": 16, "velocity": 97}, {"time": 2829, "pitch": 69, "duration": 3, "velocity": 86}, {"time": 2832, "pitch": 81, "duration": 6, "velocity": 90}, {"time": 2838, "pitch": 79, "duration": 4, "velocity": 87}, {"time": 2841, "pitch": 78, "duration": 6, "velocity": 98}, {"time": 2847, "pitch": 76, "duration": 9, "velocity": 103}, {"time": 2856, "pitch": 74, "duration": 9, "velocity": 97}, {"time": 2868, "pitch": 81, "duration": 9, "velocity": 97}, {"time": 2880, "pitch": 74, "duration": 13, "velocity": 106}, {"time": 2892, "pitch": 73, "duration": 12, "velocity": 104}, {"time": 2904, "pitch": 71, "duration": 14, "velocity": 98}, {"time": 2922, "pitch": 79, "duration": 2, "velocity": 95}, {"time": 2925, "pitch": 79, "duration": 2, "velocity": 105}, {"time": 2928, "pitch": 79, "duration": 4, "velocity": 99}, {"time": 2934, "pitch": 79, "duration": 4, "velocity": 95}, {"time": 2937, "pitch": 78, "duration": 7, "velocity": 89}, {"time": 2943, "pitch": 79, "duration": 6, "velocity": 93}, {"time": 2949, "pitch": 81, "duration": 21, "velocity": 99}, {"time": 2964, "pitch": 81, "duration": 6, "velocity": 105}, {"time": 2976, "pitch": 79, "duration": 12, "velocity": 109}, {"time": 2988, "pitch": 78, "duration": 12, "velocity": 100}, {"time": 3000, "pitch": 76, "duration": 17, "velocity": 101}, {"time": 3018, "pitch": 69, "duration": 2, "velocity": 71}, {"time": 3021, "pitch": 69, "duration": 2, "velocity": 75}, {"time": 3024, "pitch": 81, "duration": 6, "velocity": 90}, {"time": 3030, "pitch": 79, "duration": 4, "velocity": 91}, {"time": 3033, "pitch": 78, "duration": 6, "velocity": 97}, {"time": 3039, "pitch": 76, "duration": 9, "velocity": 90}, {"time": 3048, "pitch": 74, "duration": 7, "velocity": 90}, {"time": 3054, "pitch": 71, "duration": 3, "velocity": 91}, {"time": 3057, "pitch": 73, "duration": 4, "velocity": 95}, {"time": 3060, "pitch": 74, "duration": 6, "velocity": 95}, {"time": 3066, "pitch": 71, "duration": 3, "velocity": 93}, {"time": 3069, "pitch": 73, "duration": 3, "velocity": 79}, {"time": 3072, "pitch": 74, "duration": 12, "velocity": 97}, {"time": 3090, "pitch": 71, "duration": 3, "velocity": 77}, {"time": 3093, "pitch": 73, "duration": 4, "velocity": 86}, {"time": 3096, "pitch": 74, "duration": 5, "velocity": 97}, {"time": 3102, "pitch": 73, "duration": 3, "velocity": 89}, {"time": 3105, "pitch": 74, "duration": 3, "velocity": 91}, {"time": 3111, "pitch": 83, "duration": 7, "velocity": 101}, {"time": 3120, "pitch": 81, "duration": 3, "velocity": 103}, {"time": 3126, "pitch": 73, "duration": 2, "velocity": 98}, {"time": 3129, "pitch": 73, "duration": 4, "velocity": 93}, {"time": 3135, "pitch": 76, "duration": 10, "velocity": 89}, {"time": 3144, "pitch": 74, "duration": 35, "velocity": 105}, {"time": 3204, "pitch": 81, "duration": 12, "velocity": 109}, {"time": 3216, "pitch": 79, "duration": 12, "velocity": 109}, {"time": 3228, "pitch": 78, "duration": 13, "velocity": 99}, {"time": 3240, "pitch": 76, "duration": 16, "velocity": 97}, {"time": 3261, "pitch": 69, "duration": 3, "velocity": 86}, {"time": 3264, "pitch": 81, "duration": 6, "velocity": 90}, {"time": 3270, "pitch": 79, "duration": 4, "velocity": 87}, {"time": 3273, "pitch": 78, "duration": 6, "velocity": 98}, {"time": 3279, "pitch": 76, "duration": 9, "velocity": 103}, {"time": 3288, "pitch": 74, "duration": 9, "velocity": 97}, {"time": 3300, "pitch": 81, "duration": 9, "velocity": 97}, {"time": 3312, "pitch": 74, "duration": 13, "velocity": 106}, {"time": 3324, "pitch": 73, "duration": 12, "velocity": 104}, {"time": 3336, "pitch": 71, "duration": 14, "velocity": 98}, {"time": 3354, "pitch": 79, "duration": 2, "velocity": 95}, {"time": 3357, "pitch": 79, "duration": 2, "velocity": 105}, {"time": 3360, "pitch": 79, "duration": 4, "velocity": 99}, {"time": 3366, "pitch": 79, "duration": 4, "velocity": 95}, {"time": 3369, "pitch": 78, "duration": 7, "velocity": 89}, {"time": 3375, "pitch": 79, "duration": 9, "velocity": 93}, {"time": 3384, "pitch": 81, "duration": 18, "velocity": 99}, {"time": 3396, "pitch": 81, "duration": 6, "velocity": 105}, {"time": 3408, "pitch": 79, "duration": 12, "velocity": 109}, {"time": 3420, "pitch": 78, "duration": 12, "velocity": 100}, {"time": 3432, "pitch": 76, "duration": 17, "velocity": 101}, {"time": 3450, "pitch": 69, "duration": 2, "velocity": 71}, {"time": 3453, "pitch": 69, "duration": 2, "velocity": 75}, {"time": 3456, "pitch": 81, "duration": 6, "velocity": 90}, {"time": 3462, "pitch": 79, "duration": 4, "velocity": 91}, {"time": 3465, "pitch": 78, "duration": 6, "velocity": 97}, {"time": 3471, "pitch": 76, "duration": 9, "velocity": 90}, {"time": 3480, "pitch": 74, "duration": 7, "velocity": 90}, {"time": 3486, "pitch": 71, "duration": 3, "velocity": 91}, {"time": 3489, "pitch": 73, "duration": 4, "velocity": 95}, {"time": 3492, "pitch": 74, "duration": 6, "velocity": 95}, {"time": 3498, "pitch": 71, "duration": 3, "velocity": 93}, {"time": 3501, "pitch": 73, "duration": 3, "velocity": 79}, {"time": 3504, "pitch": 74, "duration": 12, "velocity": 97}, {"time": 3522, "pitch": 71, "duration": 3, "velocity": 77}, {"time": 3525, "pitch": 73, "duration": 4, "velocity": 86}, {"time": 3528, "pitch": 74, "duration": 5, "velocity": 97}, {"time": 3534, "pitch": 73, "duration": 3, "velocity": 89}, {"time": 3537, "pitch": 74, "duration": 3, "velocity": 91}, {"time": 3543, "pitch": 83, "duration": 7, "velocity": 101}, {"time": 3552, "pitch": 81, "duration": 3, "velocity": 103}, {"time": 3558, "pitch": 73, "duration": 2, "velocity": 98}, {"time": 3561, "pitch": 73, "duration": 4, "velocity": 93}, {"time": 3567, "pitch": 76, "duration": 10, "velocity": 89}, {"time": 3576, "pitch": 74, "duration": 42, "velocity": 105}, {"time": 3618, "pitch": 71, "duration": 3, "velocity": 77}, {"time": 3621, "pitch": 73, "duration": 4, "velocity": 86}, {"time": 3624, "pitch": 74, "duration": 5, "velocity": 97}, {"time": 3630, "pitch": 73, "duration": 3, "velocity": 89}, {"time": 3633, "pitch": 74, "duration": 3, "velocity": 91}, {"time": 3639, "pitch": 83, "duration": 7, "velocity": 101}, {"time": 3648, "pitch": 81, "duration": 3, "velocity": 103}, {"time": 3654, "pitch": 73, "duration": 2, "velocity": 98}, {"time": 3657, "pitch": 73, "duration": 4, "velocity": 93}, {"time": 3663, "pitch": 76, "duration": 10, "velocity": 89}, {"time": 3672, "pitch": 74, "duration": 50, "velocity": 105}]}, {"program": 0, "is_drum": false, "name": "BRIDGE", "notes": [{"time": 60, "pitch": 89, "duration": 12, "velocity": 35}, {"time": 72, "pitch": 91, "duration": 36, "velocity": 44}, {"time": 108, "pitch": 86, "duration": 4, "velocity": 40}, {"time": 111, "pitch": 88, "duration": 3, "velocity": 46}, {"time": 114, "pitch": 89, "duration": 7, "velocity": 49}, {"time": 120, "pitch": 88, "duration": 33, "velocity": 51}, {"time": 156, "pitch": 89, "duration": 12, "velocity": 35}, {"time": 168, "pitch": 91, "duration": 26, "velocity": 32}, {"time": 192, "pitch": 72, "duration": 6, "velocity": 69}, {"time": 192, "pitch": 84, "duration": 6, "velocity": 69}, {"time": 198, "pitch": 67, "duration": 6, "velocity": 80}, {"time": 198, "pitch": 79, "duration": 6, "velocity": 80}, {"time": 204, "pitch": 65, "duration": 6, "velocity": 85}, {"time": 204, "pitch": 77, "duration": 6, "velocity": 85}, {"time": 210, "pitch": 62, "duration": 6, "velocity": 70}, {"time": 210, "pitch": 74, "duration": 6, "velocity": 70}, {"time": 216, "pitch": 64, "duration": 6, "velocity": 57}, {"time": 216, "pitch": 76, "duration": 6, "velocity": 67}, {"time": 222, "pitch": 64, "duration": 6, "velocity": 52}, {"time": 222, "pitch": 76, "duration": 6, "velocity": 64}, {"time": 228, "pitch": 64, "duration": 6, "velocity": 56}, {"time": 228, "pitch": 76, "duration": 6, "velocity": 61}, {"time": 234, "pitch": 64, "duration": 6, "velocity": 60}, {"time": 234, "pitch": 76, "duration": 6, "velocity": 62}, {"time": 240, "pitch": 64, "duration": 6, "velocity": 61}, {"time": 240, "pitch": 76, "duration": 6, "velocity": 52}, {"time": 246, "pitch": 65, "duration": 6, "velocity": 67}, {"time": 246, "pitch": 77, "duration": 6, "velocity": 69}, {"time": 252, "pitch": 65, "duration": 6, "velocity": 60}, {"time": 252, "pitch": 77, "duration": 6, "velocity": 69}, {"time": 258, "pitch": 67, "duration": 6, "velocity": 62}, {"time": 258, "pitch": 79, "duration": 6, "velocity": 66}, {"time": 264, "pitch": 67, "duration": 6, "velocity": 60}, {"time": 264, "pitch": 79, "duration": 6, "velocity": 43}, {"time": 270, "pitch": 67, "duration": 6, "velocity": 57}, {"time": 270, "pitch": 79, "duration": 6, "velocity": 64}, {"time": 276, "pitch": 67, "duration": 6, "velocity": 63}, {"time": 276, "pitch": 79, "duration": 6, "velocity": 67}, {"time": 282, "pitch": 67, "duration": 6, "velocity": 56}, {"time": 282, "pitch": 79, "duration": 6, "velocity": 63}, {"time": 288, "pitch": 67, "duration": 6, "velocity": 63}, {"time": 288, "pitch": 79, "duration": 6, "velocity": 72}, {"time": 294, "pitch": 69, "duration": 6, "velocity": 50}, {"time": 294, "pitch": 81, "duration": 6, "velocity": 76}, {"time": 300, "pitch": 69, "duration": 6, "velocity": 62}, {"time": 300, "pitch": 81, "duration": 6, "velocity": 66}, {"time": 306, "pitch": 71, "duration": 6, "velocity": 60}, {"time": 306, "pitch": 83, "duration": 6, "velocity": 69}, {"time": 312, "pitch": 72, "duration": 6, "velocity": 62}, {"time": 312, "pitch": 84, "duration": 6, "velocity": 76}, {"time": 318, "pitch": 72, "duration": 6, "velocity": 59}, {"time": 318, "pitch": 84, "duration": 6, "velocity": 60}, {"time": 324, "pitch": 72, "duration": 6, "velocity": 62}, {"time": 324, "pitch": 84, "duration": 6, "velocity": 64}, {"time": 330, "pitch": 72, "duration": 6, "velocity": 62}, {"time": 330, "pitch": 84, "duration": 6, "velocity": 63}, {"time": 336, "pitch": 72, "duration": 6, "velocity": 62}, {"time": 336, "pitch": 84, "duration": 6, "velocity": 64}, {"time": 342, "pitch": 64, "duration": 6, "velocity": 53}, {"time": 342, "pitch": 76, "duration": 6, "velocity": 66}, {"time": 348, "pitch": 64, "duration": 3, "velocity": 66}, {"time": 348, "pitch": 76, "duration": 3, "velocity": 66}, {"time": 351, "pitch": 65, "duration": 3, "velocity": 66}, {"time": 351, "pitch": 77, "duration": 3, "velocity": 66}, {"time": 354, "pitch": 67, "duration": 6, "velocity": 66}, {"time": 354, "pitch": 79, "duration": 6, "velocity": 66}, {"time": 360, "pitch": 69, "duration": 6, "velocity": 66}, {"time": 360, "pitch": 81, "duration": 6, "velocity": 66}, {"time": 366, "pitch": 69, "duration": 3, "velocity": 66}, {"time": 366, "pitch": 81, "duration": 3, "velocity": 66}, {"time": 369, "pitch": 69, "duration": 6, "velocity": 66}, {"time": 369, "pitch": 81, "duration": 6, "velocity": 66}, {"time": 375, "pitch": 69, "duration": 3, "velocity": 66}, {"time": 375, "pitch": 81, "duration": 3, "velocity": 66}, {"time": 378, "pitch": 69, "duration": 9, "velocity": 66}, {"time": 378, "pitch": 81, "duration": 9, "velocity": 66}, {"time": 387, "pitch": 69, "duration": 3, "velocity": 66}, {"time": 387, "pitch": 81, "duration": 3, "velocity": 66}, {"time": 390, "pitch": 67, "duration": 6, "velocity": 66}, {"time": 390, "pitch": 79, "duration": 6, "velocity": 66}, {"time": 396, "pitch": 65, "duration": 6, "velocity": 66}, {"time": 396, "pitch": 77, "duration": 6, "velocity": 66}, {"time": 402, "pitch": 64, "duration": 3, "velocity": 66}, {"time": 402, "pitch": 76, "duration": 3, "velocity": 66}, {"time": 405, "pitch": 65, "duration": 3, "velocity": 66}, {"time": 405, "pitch": 77, "duration": 3, "velocity": 66}, {"time": 408, "pitch": 64, "duration": 6, "velocity": 57}, {"time": 408, "pitch": 76, "duration": 6, "velocity": 67}, {"time": 414, "pitch": 64, "duration": 6, "velocity": 52}, {"time": 414, "pitch": 76, "duration": 6, "velocity": 64}, {"time": 420, "pitch": 64, "duration": 6, "velocity": 56}, {"time": 420, "pitch": 76, "duration": 6, "velocity": 61}, {"time": 426, "pitch": 64, "duration": 6, "velocity": 60}, {"time": 426, "pitch": 76, "duration": 6, "velocity": 62}, {"time": 432, "pitch": 64, "duration": 6, "velocity": 61}, {"time": 432, "pitch": 76, "duration": 6, "velocity": 52}, {"time": 438, "pitch": 65, "duration": 6, "velocity": 67}, {"time": 438, "pitch": 77, "duration": 6, "velocity": 69}, {"time": 444, "pitch": 65, "duration": 6, "velocity": 60}, {"time": 444, "pitch": 77, "duration": 6, "velocity": 69}, {"time": 450, "pitch": 67, "duration": 6, "velocity": 62}, {"time": 450, "pitch": 79, "duration": 6, "velocity": 66}, {"time": 456, "pitch": 67, "duration": 6, "velocity": 60}, {"time": 456, "pitch": 79, "duration": 6, "velocity": 43}, {"time": 462, "pitch": 67, "duration": 6, "velocity": 57}, {"time": 462, "pitch": 79, "duration": 6, "velocity": 64}, {"time": 468, "pitch": 67, "duration": 6, "velocity": 63}, {"time": 468, "pitch": 79, "duration": 6, "velocity": 67}, {"time": 474, "pitch": 67, "duration": 6, "velocity": 56}, {"time": 474, "pitch": 79, "duration": 6, "velocity": 63}, {"time": 480, "pitch": 67, "duration": 6, "velocity": 63}, {"time": 480, "pitch": 79, "duration": 6, "velocity": 72}, {"time": 486, "pitch": 69, "duration": 6, "velocity": 50}, {"time": 486, "pitch": 81, "duration": 6, "velocity": 76}, {"time": 492, "pitch": 69, "duration": 6, "velocity": 62}, {"time": 492, "pitch": 81, "duration": 6, "velocity": 66}, {"time": 498, "pitch": 71, "duration": 6, "velocity": 60}, {"time": 498, "pitch": 83, "duration": 6, "velocity": 69}, {"time": 504, "pitch": 72, "duration": 6, "velocity": 62}, {"time": 504, "pitch": 84, "duration": 6, "velocity": 76}, {"time": 510, "pitch": 72, "duration": 6, "velocity": 59}, {"time": 510, "pitch": 84, "duration": 6, "velocity": 60}, {"time": 516, "pitch": 72, "duration": 6, "velocity": 62}, {"time": 516, "pitch": 84, "duration": 6, "velocity": 64}, {"time": 522, "pitch": 72, "duration": 6, "velocity": 62}, {"time": 522, "pitch": 84, "duration": 6, "velocity": 63}, {"time": 528, "pitch": 72, "duration": 6, "velocity": 62}, {"time": 528, "pitch": 84, "duration": 6, "velocity": 64}, {"time": 534, "pitch": 64, "duration": 6, "velocity": 53}, {"time": 534, "pitch": 76, "duration": 6, "velocity": 66}, {"time": 540, "pitch": 64, "duration": 3, "velocity": 66}, {"time": 540, "pitch": 76, "duration": 3, "velocity": 66}, {"time": 543, "pitch": 65, "duration": 3, "velocity": 66}, {"time": 543, "pitch": 77, "duration": 3, "velocity": 66}, {"time": 546, "pitch": 67, "duration": 6, "velocity": 66}, {"time": 546, "pitch": 79, "duration": 6, "velocity": 66}, {"time": 552, "pitch": 69, "duration": 6, "velocity": 66}, {"time": 552, "pitch": 81, "duration": 6, "velocity": 66}, {"time": 558, "pitch": 69, "duration": 3, "velocity": 66}, {"time": 558, "pitch": 81, "duration": 3, "velocity": 66}, {"time": 561, "pitch": 69, "duration": 6, "velocity": 66}, {"time": 561, "pitch": 81, "duration": 6, "velocity": 66}, {"time": 567, "pitch": 69, "duration": 3, "velocity": 66}, {"time": 567, "pitch": 81, "duration": 3, "velocity": 66}, {"time": 570, "pitch": 69, "duration": 9, "velocity": 66}, {"time": 570, "pitch": 81, "duration": 9, "velocity": 66}, {"time": 579, "pitch": 69, "duration": 3, "velocity": 66}, {"time": 579, "pitch": 81, "duration": 3, "velocity": 66}, {"time": 582, "pitch": 67, "duration": 6, "velocity": 66}, {"time": 582, "pitch": 79, "duration": 6, "velocity": 66}, {"time": 588, "pitch": 65, "duration": 6, "velocity": 66}, {"time": 588, "pitch": 77, "duration": 6, "velocity": 66}, {"time": 594, "pitch": 64, "duration": 3, "velocity": 66}, {"time": 594, "pitch": 76, "duration": 3, "velocity": 66}, {"time": 597, "pitch": 65, "duration": 3, "velocity": 66}, {"time": 597, "pitch": 77, "duration": 3, "velocity": 66}, {"time": 600, "pitch": 64, "duration": 48, "velocity": 67}, {"time": 600, "pitch": 76, "duration": 48, "velocity": 67}, {"time": 1896, "pitch": 64, "duration": 6, "velocity": 57}, {"time": 1896, "pitch": 76, "duration": 6, "velocity": 67}, {"time": 1902, "pitch": 64, "duration": 6, "velocity": 52}, {"time": 1902, "pitch": 76, "duration": 6, "velocity": 64}, {"time": 1908, "pitch": 64, "duration": 6, "velocity": 56}, {"time": 1908, "pitch": 76, "duration": 6, "velocity": 61}, {"time": 1914, "pitch": 64, "duration": 6, "velocity": 60}, {"time": 1914, "pitch": 76, "duration": 6, "velocity": 62}, {"time": 1920, "pitch": 64, "duration": 6, "velocity": 61}, {"time": 1920, "pitch": 76, "duration": 6, "velocity": 52}, {"time": 1926, "pitch": 65, "duration": 6, "velocity": 67}, {"time": 1926, "pitch": 77, "duration": 6, "velocity": 69}, {"time": 1932, "pitch": 65, "duration": 6, "velocity": 60}, {"time": 1932, "pitch": 77, "duration": 6, "velocity": 69}, {"time": 1938, "pitch": 67, "duration": 6, "velocity": 62}, {"time": 1938, "pitch": 79, "duration": 6, "velocity": 66}, {"time": 1944, "pitch": 67, "duration": 6, "velocity": 60}, {"time": 1944, "pitch": 79, "duration": 6, "velocity": 43}, {"time": 1950, "pitch": 67, "duration": 6, "velocity": 57}, {"time": 1950, "pitch": 79, "duration": 6, "velocity": 64}, {"time": 1956, "pitch": 67, "duration": 6, "velocity": 63}, {"time": 1956, "pitch": 79, "duration": 6, "velocity": 67}, {"time": 1962, "pitch": 67, "duration": 6, "velocity": 56}, {"time": 1962, "pitch": 79, "duration": 6, "velocity": 63}, {"time": 1968, "pitch": 67, "duration": 6, "velocity": 63}, {"time": 1968, "pitch": 79, "duration": 6, "velocity": 72}, {"time": 1974, "pitch": 69, "duration": 6, "velocity": 50}, {"time": 1974, "pitch": 81, "duration": 6, "velocity": 76}, {"time": 1980, "pitch": 69, "duration": 6, "velocity": 62}, {"time": 1980, "pitch": 81, "duration": 6, "velocity": 66}, {"time": 1986, "pitch": 71, "duration": 6, "velocity": 60}, {"time": 1986, "pitch": 83, "duration": 6, "velocity": 69}, {"time": 1992, "pitch": 72, "duration": 6, "velocity": 62}, {"time": 1992, "pitch": 84, "duration": 6, "velocity": 76}, {"time": 1998, "pitch": 72, "duration": 6, "velocity": 59}, {"time": 1998, "pitch": 84, "duration": 6, "velocity": 60}, {"time": 2004, "pitch": 72, "duration": 6, "velocity": 62}, {"time": 2004, "pitch": 84, "duration": 6, "velocity": 64}, {"time": 2010, "pitch": 72, "duration": 6, "velocity": 62}, {"time": 2010, "pitch": 84, "duration": 6, "velocity": 63}, {"time": 2016, "pitch": 72, "duration": 6, "velocity": 62}, {"time": 2016, "pitch": 84, "duration": 6, "velocity": 64}, {"time": 2022, "pitch": 64, "duration": 6, "velocity": 53}, {"time": 2022, "pitch": 76, "duration": 6, "velocity": 66}, {"time": 2028, "pitch": 64, "duration": 3, "velocity": 66}, {"time": 2028, "pitch": 76, "duration": 3, "velocity": 66}, {"time": 2031, "pitch": 65, "duration": 3, "velocity": 66}, {"time": 2031, "pitch": 77, "duration": 3, "velocity": 66}, {"time": 2034, "pitch": 67, "duration": 6, "velocity": 66}, {"time": 2034, "pitch": 79, "duration": 6, "velocity": 66}, {"time": 2040, "pitch": 69, "duration": 6, "velocity": 66}, {"time": 2040, "pitch": 81, "duration": 6, "velocity": 66}, {"time": 2046, "pitch": 69, "duration": 3, "velocity": 66}, {"time": 2046, "pitch": 81, "duration": 3, "velocity": 66}, {"time": 2049, "pitch": 69, "duration": 6, "velocity": 66}, {"time": 2049, "pitch": 81, "duration": 6, "velocity": 66}, {"time": 2055, "pitch": 69, "duration": 3, "velocity": 66}, {"time": 2055, "pitch": 81, "duration": 3, "velocity": 66}, {"time": 2058, "pitch": 69, "duration": 9, "velocity": 66}, {"time": 2058, "pitch": 81, "duration": 9, "velocity": 66}, {"time": 2067, "pitch": 69, "duration": 3, "velocity": 66}, {"time": 2067, "pitch": 81, "duration": 3, "velocity": 66}, {"time": 2070, "pitch": 67, "duration": 6, "velocity": 66}, {"time": 2070, "pitch": 79, "duration": 6, "velocity": 66}, {"time": 2076, "pitch": 65, "duration": 6, "velocity": 66}, {"time": 2076, "pitch": 77, "duration": 6, "velocity": 66}, {"time": 2082, "pitch": 60, "duration": 3, "velocity": 66}, {"time": 2082, "pitch": 76, "duration": 3, "velocity": 66}, {"time": 2085, "pitch": 62, "duration": 3, "velocity": 66}, {"time": 2085, "pitch": 77, "duration": 3, "velocity": 66}, {"time": 2088, "pitch": 64, "duration": 6, "velocity": 57}, {"time": 2088, "pitch": 76, "duration": 6, "velocity": 67}, {"time": 2094, "pitch": 64, "duration": 6, "velocity": 52}, {"time": 2094, "pitch": 76, "duration": 6, "velocity": 64}, {"time": 2100, "pitch": 64, "duration": 6, "velocity": 56}, {"time": 2100, "pitch": 76, "duration": 6, "velocity": 61}, {"time": 2106, "pitch": 64, "duration": 6, "velocity": 60}, {"time": 2106, "pitch": 76, "duration": 6, "velocity": 62}, {"time": 2112, "pitch": 64, "duration": 6, "velocity": 61}, {"time": 2112, "pitch": 76, "duration": 6, "velocity": 52}, {"time": 2118, "pitch": 65, "duration": 6, "velocity": 67}, {"time": 2118, "pitch": 77, "duration": 6, "velocity": 69}, {"time": 2124, "pitch": 65, "duration": 6, "velocity": 60}, {"time": 2124, "pitch": 77, "duration": 6, "velocity": 69}, {"time": 2130, "pitch": 67, "duration": 6, "velocity": 62}, {"time": 2130, "pitch": 79, "duration": 6, "velocity": 66}, {"time": 2136, "pitch": 67, "duration": 6, "velocity": 60}, {"time": 2136, "pitch": 79, "duration": 6, "velocity": 43}, {"time": 2142, "pitch": 67, "duration": 6, "velocity": 57}, {"time": 2142, "pitch": 79, "duration": 6, "velocity": 64}, {"time": 2148, "pitch": 67, "duration": 6, "velocity": 63}, {"time": 2148, "pitch": 79, "duration": 6, "velocity": 67}, {"time": 2154, "pitch": 67, "duration": 6, "velocity": 56}, {"time": 2154, "pitch": 79, "duration": 6, "velocity": 63}, {"time": 2160, "pitch": 67, "duration": 6, "velocity": 63}, {"time": 2160, "pitch": 79, "duration": 6, "velocity": 72}, {"time": 2166, "pitch": 69, "duration": 6, "velocity": 50}, {"time": 2166, "pitch": 81, "duration": 6, "velocity": 76}, {"time": 2172, "pitch": 69, "duration": 6, "velocity": 62}, {"time": 2172, "pitch": 81, "duration": 6, "velocity": 66}, {"time": 2178, "pitch": 71, "duration": 6, "velocity": 60}, {"time": 2178, "pitch": 83, "duration": 6, "velocity": 69}, {"time": 2184, "pitch": 72, "duration": 6, "velocity": 62}, {"time": 2184, "pitch": 84, "duration": 6, "velocity": 76}, {"time": 2190, "pitch": 72, "duration": 6, "velocity": 59}, {"time": 2190, "pitch": 84, "duration": 6, "velocity": 60}, {"time": 2196, "pitch": 72, "duration": 6, "velocity": 62}, {"time": 2196, "pitch": 84, "duration": 6, "velocity": 64}, {"time": 2202, "pitch": 72, "duration": 6, "velocity": 62}, {"time": 2202, "pitch": 84, "duration": 6, "velocity": 63}, {"time": 2208, "pitch": 72, "duration": 6, "velocity": 62}, {"time": 2208, "pitch": 84, "duration": 6, "velocity": 64}, {"time": 2214, "pitch": 64, "duration": 6, "velocity": 53}, {"time": 2214, "pitch": 76, "duration": 6, "velocity": 66}, {"time": 2220, "pitch": 64, "duration": 3, "velocity": 66}, {"time": 2220, "pitch": 76, "duration": 3, "velocity": 66}, {"time": 2223, "pitch": 65, "duration": 3, "velocity": 66}, {"time": 2223, "pitch": 77, "duration": 3, "velocity": 66}, {"time": 2226, "pitch": 67, "duration": 6, "velocity": 66}, {"time": 2226, "pitch": 79, "duration": 6, "velocity": 66}, {"time": 2232, "pitch": 69, "duration": 6, "velocity": 66}, {"time": 2232, "pitch": 81, "duration": 6, "velocity": 66}, {"time": 2238, "pitch": 69, "duration": 3, "velocity": 66}, {"time": 2238, "pitch": 81, "duration": 3, "velocity": 66}, {"time": 2241, "pitch": 69, "duration": 6, "velocity": 66}, {"time": 2241, "pitch": 81, "duration": 6, "velocity": 66}, {"time": 2247, "pitch": 69, "duration": 3, "velocity": 66}, {"time": 2247, "pitch": 81, "duration": 3, "velocity": 66}, {"time": 2250, "pitch": 69, "duration": 9, "velocity": 66}, {"time": 2250, "pitch": 81, "duration": 9, "velocity": 66}, {"time": 2259, "pitch": 69, "duration": 3, "velocity": 66}, {"time": 2259, "pitch": 81, "duration": 3, "velocity": 66}, {"time": 2262, "pitch": 67, "duration": 6, "velocity": 66}, {"time": 2262, "pitch": 79, "duration": 6, "velocity": 66}, {"time": 2268, "pitch": 65, "duration": 6, "velocity": 66}, {"time": 2268, "pitch": 77, "duration": 6, "velocity": 66}, {"time": 2274, "pitch": 64, "duration": 3, "velocity": 66}, {"time": 2274, "pitch": 76, "duration": 3, "velocity": 66}, {"time": 2277, "pitch": 65, "duration": 3, "velocity": 66}, {"time": 2277, "pitch": 77, "duration": 3, "velocity": 66}, {"time": 2280, "pitch": 64, "duration": 36, "velocity": 67}, {"time": 2280, "pitch": 76, "duration": 36, "velocity": 67}, {"time": 2316, "pitch": 72, "duration": 4, "velocity": 90}, {"time": 2316, "pitch": 60, "duration": 4, "velocity": 87}, {"time": 2323, "pitch": 59, "duration": 3, "velocity": 94}, {"time": 2323, "pitch": 71, "duration": 3, "velocity": 95}, {"time": 2328, "pitch": 69, "duration": 14, "velocity": 95}, {"time": 2328, "pitch": 57, "duration": 14, "velocity": 91}], "annotations": [{"time": 28, "annotation": {"number": 64, "value": 127}, "group": "control_change"}, {"time": 192, "annotation": {"number": 64, "value": 0}, "group": "control_change"}]}, {"program": 0, "is_drum": false, "name": "PIANO", "notes": [{"time": 24, "pitch": 36, "duration": 123, "velocity": 44}, {"time": 24, "pitch": 48, "duration": 20, "velocity": 51}, {"time": 30, "pitch": 60, "duration": 19, "velocity": 43}, {"time": 37, "pitch": 55, "duration": 13, "velocity": 39}, {"time": 43, "pitch": 48, "duration": 1, "velocity": 21}, {"time": 49, "pitch": 48, "duration": 12, "velocity": 27}, {"time": 55, "pitch": 60, "duration": 12, "velocity": 35}, {"time": 62, "pitch": 55, "duration": 5, "velocity": 26}, {"time": 67, "pitch": 48, "duration": 2, "velocity": 27}, {"time": 73, "pitch": 48, "duration": 11, "velocity": 35}, {"time": 79, "pitch": 60, "duration": 12, "velocity": 30}, {"time": 85, "pitch": 55, "duration": 6, "velocity": 25}, {"time": 92, "pitch": 48, "duration": 1, "velocity": 15}, {"time": 97, "pitch": 48, "duration": 11, "velocity": 25}, {"time": 103, "pitch": 60, "duration": 12, "velocity": 34}, {"time": 110, "pitch": 55, "duration": 5, "velocity": 32}, {"time": 115, "pitch": 48, "duration": 1, "velocity": 17}, {"time": 121, "pitch": 48, "duration": 10, "velocity": 29}, {"time": 127, "pitch": 60, "duration": 9, "velocity": 29}, {"time": 133, "pitch": 55, "duration": 6, "velocity": 34}, {"time": 139, "pitch": 48, "duration": 1, "velocity": 18}, {"time": 146, "pitch": 48, "duration": 1, "velocity": 22}, {"time": 151, "pitch": 60, "duration": 7, "velocity": 38}, {"time": 156, "pitch": 43, "duration": 3, "velocity": 36}, {"time": 157, "pitch": 55, "duration": 8, "velocity": 39}, {"time": 163, "pitch": 48, "duration": 2, "velocity": 19}, {"time": 168, "pitch": 36, "duration": 3, "velocity": 45}, {"time": 169, "pitch": 48, "duration": 9, "velocity": 20}, {"time": 175, "pitch": 60, "duration": 6, "velocity": 45}, {"time": 181, "pitch": 55, "duration": 7, "velocity": 35}, {"time": 216, "pitch": 48, "duration": 8, "velocity": 69}, {"time": 216, "pitch": 60, "duration": 8, "velocity": 66}, {"time": 216, "pitch": 67, "duration": 3, "velocity": 72}, {"time": 216, "pitch": 72, "duration": 5, "velocity": 73}, {"time": 219, "pitch": 64, "duration": 4, "velocity": 46}, {"time": 222, "pitch": 67, "duration": 4, "velocity": 61}, {"time": 225, "pitch": 48, "duration": 8, "velocity": 66}, {"time": 225, "pitch": 60, "duration": 9, "velocity": 70}, {"time": 225, "pitch": 64, "duration": 7, "velocity": 43}, {"time": 225, "pitch": 72, "duration": 7, "velocity": 73}, {"time": 231, "pitch": 67, "duration": 4, "velocity": 60}, {"time": 234, "pitch": 48, "duration": 8, "velocity": 62}, {"time": 234, "pitch": 60, "duration": 8, "velocity": 64}, {"time": 234, "pitch": 72, "duration": 7, "velocity": 70}, {"time": 237, "pitch": 64, "duration": 4, "velocity": 48}, {"time": 240, "pitch": 67, "duration": 4, "velocity": 56}, {"time": 243, "pitch": 48, "duration": 8, "velocity": 70}, {"time": 243, "pitch": 60, "duration": 8, "velocity": 70}, {"time": 243, "pitch": 72, "duration": 7, "velocity": 72}, {"time": 246, "pitch": 64, "duration": 4, "velocity": 50}, {"time": 249, "pitch": 67, "duration": 5, "velocity": 59}, {"time": 252, "pitch": 48, "duration": 5, "velocity": 64}, {"time": 252, "pitch": 60, "duration": 5, "velocity": 66}, {"time": 252, "pitch": 72, "duration": 4, "velocity": 73}, {"time": 255, "pitch": 64, "duration": 4, "velocity": 56}, {"time": 258, "pitch": 48, "duration": 2, "velocity": 75}, {"time": 258, "pitch": 60, "duration": 1, "velocity": 59}, {"time": 258, "pitch": 67, "duration": 3, "velocity": 67}, {"time": 261, "pitch": 72, "duration": 5, "velocity": 73}, {"time": 264, "pitch": 43, "duration": 8, "velocity": 69}, {"time": 264, "pitch": 55, "duration": 9, "velocity": 76}, {"time": 264, "pitch": 71, "duration": 5, "velocity": 61}, {"time": 267, "pitch": 62, "duration": 5, "velocity": 49}, {"time": 270, "pitch": 67, "duration": 3, "velocity": 53}, {"time": 273, "pitch": 43, "duration": 7, "velocity": 75}, {"time": 273, "pitch": 55, "duration": 8, "velocity": 70}, {"time": 273, "pitch": 71, "duration": 4, "velocity": 72}, {"time": 276, "pitch": 62, "duration": 5, "velocity": 43}, {"time": 279, "pitch": 67, "duration": 3, "velocity": 62}, {"time": 282, "pitch": 43, "duration": 8, "velocity": 73}, {"time": 282, "pitch": 55, "duration": 8, "velocity": 67}, {"time": 282, "pitch": 69, "duration": 5, "velocity": 69}, {"time": 285, "pitch": 62, "duration": 5, "velocity": 48}, {"time": 288, "pitch": 67, "duration": 2, "velocity": 56}, {"time": 291, "pitch": 43, "duration": 7, "velocity": 70}, {"time": 291, "pitch": 55, "duration": 8, "velocity": 63}, {"time": 291, "pitch": 62, "duration": 7, "velocity": 45}, {"time": 291, "pitch": 74, "duration": 7, "velocity": 60}, {"time": 297, "pitch": 67, "duration": 3, "velocity": 60}, {"time": 300, "pitch": 43, "duration": 8, "velocity": 66}, {"time": 300, "pitch": 55, "duration": 5, "velocity": 63}, {"time": 300, "pitch": 69, "duration": 4, "velocity": 61}, {"time": 303, "pitch": 62, "duration": 3, "velocity": 55}, {"time": 306, "pitch": 55, "duration": 3, "velocity": 78}, {"time": 306, "pitch": 67, "duration": 4, "velocity": 66}, {"time": 309, "pitch": 69, "duration": 4, "velocity": 64}, {"time": 312, "pitch": 45, "duration": 8, "velocity": 69}, {"time": 312, "pitch": 57, "duration": 8, "velocity": 76}, {"time": 312, "pitch": 72, "duration": 4, "velocity": 64}, {"time": 315, "pitch": 64, "duration": 5, "velocity": 49}, {"time": 318, "pitch": 67, "duration": 4, "velocity": 59}, {"time": 321, "pitch": 45, "duration": 7, "velocity": 72}, {"time": 321, "pitch": 57, "duration": 7, "velocity": 70}, {"time": 321, "pitch": 69, "duration": 3, "velocity": 36}, {"time": 321, "pitch": 72, "duration": 2, "velocity": 48}, {"time": 324, "pitch": 64, "duration": 4, "velocity": 53}, {"time": 327, "pitch": 67, "duration": 4, "velocity": 58}, {"time": 330, "pitch": 45, "duration": 8, "velocity": 70}, {"time": 330, "pitch": 57, "duration": 9, "velocity": 66}, {"time": 330, "pitch": 69, "duration": 3, "velocity": 60}, {"time": 333, "pitch": 64, "duration": 4, "velocity": 48}, {"time": 336, "pitch": 67, "duration": 4, "velocity": 57}, {"time": 339, "pitch": 45, "duration": 8, "velocity": 69}, {"time": 339, "pitch": 57, "duration": 8, "velocity": 67}, {"time": 339, "pitch": 72, "duration": 5, "velocity": 75}, {"time": 342, "pitch": 64, "duration": 4, "velocity": 48}, {"time": 345, "pitch": 67, "duration": 5, "velocity": 58}, {"time": 348, "pitch": 45, "duration": 5, "velocity": 70}, {"time": 348, "pitch": 57, "duration": 5, "velocity": 64}, {"time": 348, "pitch": 72, "duration": 5, "velocity": 76}, {"time": 351, "pitch": 64, "duration": 3, "velocity": 60}, {"time": 354, "pitch": 45, "duration": 3, "velocity": 73}, {"time": 354, "pitch": 67, "duration": 4, "velocity": 59}, {"time": 357, "pitch": 69, "duration": 8, "velocity": 64}, {"time": 360, "pitch": 41, "duration": 7, "velocity": 66}, {"time": 360, "pitch": 53, "duration": 8, "velocity": 91}, {"time": 363, "pitch": 60, "duration": 4, "velocity": 48}, {"time": 366, "pitch": 65, "duration": 4, "velocity": 60}, {"time": 369, "pitch": 41, "duration": 7, "velocity": 67}, {"time": 369, "pitch": 53, "duration": 8, "velocity": 72}, {"time": 369, "pitch": 67, "duration": 4, "velocity": 60}, {"time": 372, "pitch": 60, "duration": 4, "velocity": 50}, {"time": 375, "pitch": 65, "duration": 3, "velocity": 62}, {"time": 378, "pitch": 41, "duration": 8, "velocity": 67}, {"time": 378, "pitch": 53, "duration": 8, "velocity": 67}, {"time": 378, "pitch": 69, "duration": 4, "velocity": 57}, {"time": 381, "pitch": 60, "duration": 4, "velocity": 52}, {"time": 384, "pitch": 65, "duration": 2, "velocity": 67}, {"time": 387, "pitch": 41, "duration": 8, "velocity": 73}, {"time": 387, "pitch": 53, "duration": 8, "velocity": 67}, {"time": 387, "pitch": 67, "duration": 3, "velocity": 67}, {"time": 390, "pitch": 60, "duration": 4, "velocity": 53}, {"time": 393, "pitch": 65, "duration": 3, "velocity": 62}, {"time": 396, "pitch": 41, "duration": 7, "velocity": 69}, {"time": 396, "pitch": 53, "duration": 5, "velocity": 67}, {"time": 396, "pitch": 69, "duration": 4, "velocity": 64}, {"time": 399, "pitch": 60, "duration": 3, "velocity": 55}, {"time": 402, "pitch": 53, "duration": 3, "velocity": 78}, {"time": 402, "pitch": 65, "duration": 4, "velocity": 67}, {"time": 405, "pitch": 67, "duration": 3, "velocity": 64}, {"time": 408, "pitch": 48, "duration": 8, "velocity": 75}, {"time": 408, "pitch": 72, "duration": 5, "velocity": 64}, {"time": 411, "pitch": 62, "duration": 5, "velocity": 53}, {"time": 414, "pitch": 64, "duration": 2, "velocity": 63}, {"time": 417, "pitch": 48, "duration": 8, "velocity": 72}, {"time": 417, "pitch": 60, "duration": 9, "velocity": 88}, {"time": 417, "pitch": 67, "duration": 5, "velocity": 61}, {"time": 420, "pitch": 62, "duration": 5, "velocity": 51}, {"time": 423, "pitch": 64, "duration": 3, "velocity": 64}, {"time": 426, "pitch": 48, "duration": 7, "velocity": 72}, {"time": 426, "pitch": 60, "duration": 8, "velocity": 72}, {"time": 426, "pitch": 72, "duration": 6, "velocity": 69}, {"time": 429, "pitch": 62, "duration": 3, "velocity": 53}, {"time": 432, "pitch": 64, "duration": 3, "velocity": 55}, {"time": 435, "pitch": 48, "duration": 7, "velocity": 73}, {"time": 435, "pitch": 60, "duration": 8, "velocity": 73}, {"time": 435, "pitch": 67, "duration": 2, "velocity": 62}, {"time": 435, "pitch": 72, "duration": 6, "velocity": 57}, {"time": 438, "pitch": 64, "duration": 4, "velocity": 52}, {"time": 441, "pitch": 67, "duration": 4, "velocity": 59}, {"time": 444, "pitch": 48, "duration": 5, "velocity": 72}, {"time": 444, "pitch": 60, "duration": 5, "velocity": 69}, {"time": 444, "pitch": 72, "duration": 4, "velocity": 67}, {"time": 447, "pitch": 64, "duration": 4, "velocity": 56}, {"time": 450, "pitch": 48, "duration": 3, "velocity": 76}, {"time": 450, "pitch": 60, "duration": 1, "velocity": 62}, {"time": 450, "pitch": 67, "duration": 3, "velocity": 61}, {"time": 453, "pitch": 72, "duration": 7, "velocity": 69}, {"time": 456, "pitch": 43, "duration": 8, "velocity": 58}, {"time": 456, "pitch": 55, "duration": 8, "velocity": 66}, {"time": 456, "pitch": 71, "duration": 4, "velocity": 63}, {"time": 459, "pitch": 62, "duration": 5, "velocity": 51}, {"time": 462, "pitch": 67, "duration": 2, "velocity": 57}, {"time": 465, "pitch": 43, "duration": 8, "velocity": 76}, {"time": 465, "pitch": 55, "duration": 8, "velocity": 72}, {"time": 465, "pitch": 69, "duration": 4, "velocity": 61}, {"time": 468, "pitch": 62, "duration": 4, "velocity": 44}, {"time": 471, "pitch": 67, "duration": 3, "velocity": 62}, {"time": 474, "pitch": 43, "duration": 8, "velocity": 75}, {"time": 474, "pitch": 55, "duration": 8, "velocity": 72}, {"time": 474, "pitch": 74, "duration": 6, "velocity": 64}, {"time": 477, "pitch": 62, "duration": 4, "velocity": 44}, {"time": 480, "pitch": 67, "duration": 2, "velocity": 57}, {"time": 483, "pitch": 43, "duration": 8, "velocity": 72}, {"time": 483, "pitch": 55, "duration": 8, "velocity": 66}, {"time": 483, "pitch": 69, "duration": 4, "velocity": 61}, {"time": 486, "pitch": 62, "duration": 5, "velocity": 47}, {"time": 489, "pitch": 67, "duration": 4, "velocity": 60}, {"time": 492, "pitch": 43, "duration": 9, "velocity": 67}, {"time": 492, "pitch": 55, "duration": 5, "velocity": 60}, {"time": 492, "pitch": 71, "duration": 4, "velocity": 59}, {"time": 495, "pitch": 72, "duration": 4, "velocity": 62}, {"time": 498, "pitch": 55, "duration": 3, "velocity": 78}, {"time": 498, "pitch": 71, "duration": 3, "velocity": 66}, {"time": 501, "pitch": 67, "duration": 3, "velocity": 61}, {"time": 504, "pitch": 45, "duration": 8, "velocity": 72}, {"time": 504, "pitch": 57, "duration": 8, "velocity": 80}, {"time": 504, "pitch": 69, "duration": 3, "velocity": 60}, {"time": 507, "pitch": 60, "duration": 5, "velocity": 41}, {"time": 510, "pitch": 64, "duration": 3, "velocity": 52}, {"time": 513, "pitch": 45, "duration": 7, "velocity": 73}, {"time": 513, "pitch": 57, "duration": 7, "velocity": 70}, {"time": 513, "pitch": 69, "duration": 6, "velocity": 72}, {"time": 516, "pitch": 60, "duration": 4, "velocity": 44}, {"time": 519, "pitch": 64, "duration": 3, "velocity": 61}, {"time": 522, "pitch": 45, "duration": 8, "velocity": 69}, {"time": 522, "pitch": 57, "duration": 8, "velocity": 63}, {"time": 522, "pitch": 67, "duration": 3, "velocity": 57}, {"time": 525, "pitch": 60, "duration": 2, "velocity": 45}, {"time": 528, "pitch": 64, "duration": 2, "velocity": 60}, {"time": 531, "pitch": 45, "duration": 8, "velocity": 73}, {"time": 531, "pitch": 57, "duration": 8, "velocity": 75}, {"time": 531, "pitch": 69, "duration": 4, "velocity": 64}, {"time": 534, "pitch": 60, "duration": 3, "velocity": 52}, {"time": 537, "pitch": 64, "duration": 3, "velocity": 59}, {"time": 540, "pitch": 45, "duration": 4, "velocity": 73}, {"time": 540, "pitch": 57, "duration": 4, "velocity": 69}, {"time": 540, "pitch": 67, "duration": 4, "velocity": 75}, {"time": 543, "pitch": 60, "duration": 2, "velocity": 50}, {"time": 546, "pitch": 45, "duration": 4, "velocity": 76}, {"time": 546, "pitch": 57, "duration": 2, "velocity": 67}, {"time": 546, "pitch": 64, "duration": 4, "velocity": 61}, {"time": 549, "pitch": 67, "duration": 3, "velocity": 64}, {"time": 552, "pitch": 41, "duration": 8, "velocity": 75}, {"time": 552, "pitch": 53, "duration": 8, "velocity": 91}, {"time": 552, "pitch": 69, "duration": 4, "velocity": 53}, {"time": 555, "pitch": 60, "duration": 3, "velocity": 49}, {"time": 558, "pitch": 65, "duration": 3, "velocity": 54}, {"time": 561, "pitch": 41, "duration": 7, "velocity": 69}, {"time": 561, "pitch": 53, "duration": 7, "velocity": 73}, {"time": 561, "pitch": 67, "duration": 4, "velocity": 63}, {"time": 564, "pitch": 60, "duration": 3, "velocity": 49}, {"time": 567, "pitch": 65, "duration": 3, "velocity": 61}, {"time": 570, "pitch": 41, "duration": 8, "velocity": 73}, {"time": 570, "pitch": 53, "duration": 8, "velocity": 73}, {"time": 570, "pitch": 69, "duration": 5, "velocity": 64}, {"time": 573, "pitch": 60, "duration": 4, "velocity": 59}, {"time": 576, "pitch": 65, "duration": 3, "velocity": 54}, {"time": 579, "pitch": 41, "duration": 8, "velocity": 72}, {"time": 579, "pitch": 53, "duration": 8, "velocity": 69}, {"time": 579, "pitch": 69, "duration": 5, "velocity": 67}, {"time": 582, "pitch": 60, "duration": 3, "velocity": 51}, {"time": 585, "pitch": 65, "duration": 4, "velocity": 50}, {"time": 588, "pitch": 41, "duration": 6, "velocity": 75}, {"time": 588, "pitch": 53, "duration": 4, "velocity": 73}, {"time": 588, "pitch": 69, "duration": 4, "velocity": 64}, {"time": 591, "pitch": 60, "duration": 4, "velocity": 53}, {"time": 594, "pitch": 53, "duration": 2, "velocity": 75}, {"time": 594, "pitch": 65, "duration": 4, "velocity": 58}, {"time": 597, "pitch": 69, "duration": 3, "velocity": 69}, {"time": 600, "pitch": 48, "duration": 22, "velocity": 60}, {"time": 600, "pitch": 60, "duration": 20, "velocity": 82}, {"time": 600, "pitch": 64, "duration": 22, "velocity": 78}, {"time": 600, "pitch": 67, "duration": 22, "velocity": 70}, {"time": 603, "pitch": 62, "duration": 19, "velocity": 38}, {"time": 624, "pitch": 76, "duration": 3, "velocity": 48}, {"time": 624, "pitch": 84, "duration": 3, "velocity": 50}, {"time": 636, "pitch": 74, "duration": 2, "velocity": 44}, {"time": 636, "pitch": 83, "duration": 2, "velocity": 48}, {"time": 648, "pitch": 48, "duration": 23, "velocity": 49}, {"time": 648, "pitch": 60, "duration": 22, "velocity": 53}, {"time": 648, "pitch": 64, "duration": 5, "velocity": 49}, {"time": 648, "pitch": 67, "duration": 5, "velocity": 58}, {"time": 648, "pitch": 72, "duration": 5, "velocity": 48}, {"time": 654, "pitch": 64, "duration": 5, "velocity": 40}, {"time": 654, "pitch": 67, "duration": 5, "velocity": 44}, {"time": 654, "pitch": 72, "duration": 5, "velocity": 35}, {"time": 660, "pitch": 64, "duration": 5, "velocity": 42}, {"time": 660, "pitch": 67, "duration": 5, "velocity": 50}, {"time": 660, "pitch": 72, "duration": 11, "velocity": 38}, {"time": 666, "pitch": 64, "duration": 5, "velocity": 44}, {"time": 666, "pitch": 67, "duration": 5, "velocity": 60}, {"time": 672, "pitch": 48, "duration": 16, "velocity": 45}, {"time": 672, "pitch": 60, "duration": 15, "velocity": 52}, {"time": 672, "pitch": 64, "duration": 5, "velocity": 44}, {"time": 672, "pitch": 67, "duration": 4, "velocity": 52}, {"time": 672, "pitch": 72, "duration": 5, "velocity": 39}, {"time": 678, "pitch": 64, "duration": 4, "velocity": 37}, {"time": 678, "pitch": 67, "duration": 4, "velocity": 40}, {"time": 678, "pitch": 72, "duration": 4, "velocity": 32}, {"time": 684, "pitch": 64, "duration": 4, "velocity": 45}, {"time": 684, "pitch": 67, "duration": 4, "velocity": 51}, {"time": 684, "pitch": 72, "duration": 4, "velocity": 46}, {"time": 690, "pitch": 64, "duration": 4, "velocity": 50}, {"time": 690, "pitch": 67, "duration": 4, "velocity": 54}, {"time": 690, "pitch": 72, "duration": 5, "velocity": 60}, {"time": 696, "pitch": 43, "duration": 44, "velocity": 52}, {"time": 696, "pitch": 55, "duration": 36, "velocity": 46}, {"time": 696, "pitch": 62, "duration": 5, "velocity": 49}, {"time": 696, "pitch": 67, "duration": 5, "velocity": 50}, {"time": 696, "pitch": 71, "duration": 5, "velocity": 51}, {"time": 702, "pitch": 62, "duration": 4, "velocity": 36}, {"time": 702, "pitch": 67, "duration": 4, "velocity": 39}, {"time": 702, "pitch": 71, "duration": 4, "velocity": 39}, {"time": 708, "pitch": 62, "duration": 4, "velocity": 40}, {"time": 708, "pitch": 67, "duration": 5, "velocity": 44}, {"time": 708, "pitch": 71, "duration": 4, "velocity": 45}, {"time": 714, "pitch": 62, "duration": 5, "velocity": 43}, {"time": 714, "pitch": 67, "duration": 5, "velocity": 44}, {"time": 714, "pitch": 71, "duration": 5, "velocity": 43}, {"time": 720, "pitch": 62, "duration": 5, "velocity": 44}, {"time": 720, "pitch": 67, "duration": 5, "velocity": 44}, {"time": 720, "pitch": 71, "duration": 5, "velocity": 49}, {"time": 726, "pitch": 62, "duration": 4, "velocity": 36}, {"time": 726, "pitch": 67, "duration": 5, "velocity": 40}, {"time": 726, "pitch": 71, "duration": 4, "velocity": 41}, {"time": 732, "pitch": 55, "duration": 5, "velocity": 63}, {"time": 732, "pitch": 62, "duration": 5, "velocity": 52}, {"time": 732, "pitch": 67, "duration": 5, "velocity": 56}, {"time": 732, "pitch": 71, "duration": 5, "velocity": 55}, {"time": 738, "pitch": 62, "duration": 3, "velocity": 49}, {"time": 738, "pitch": 67, "duration": 4, "velocity": 56}, {"time": 738, "pitch": 71, "duration": 6, "velocity": 61}, {"time": 744, "pitch": 45, "duration": 42, "velocity": 37}, {"time": 744, "pitch": 57, "duration": 23, "velocity": 54}, {"time": 744, "pitch": 64, "duration": 4, "velocity": 51}, {"time": 744, "pitch": 67, "duration": 4, "velocity": 56}, {"time": 744, "pitch": 72, "duration": 5, "velocity": 62}, {"time": 750, "pitch": 64, "duration": 4, "velocity": 41}, {"time": 750, "pitch": 67, "duration": 4, "velocity": 46}, {"time": 750, "pitch": 72, "duration": 5, "velocity": 48}, {"time": 756, "pitch": 64, "duration": 5, "velocity": 44}, {"time": 756, "pitch": 67, "duration": 5, "velocity": 46}, {"time": 756, "pitch": 72, "duration": 5, "velocity": 44}, {"time": 762, "pitch": 64, "duration": 5, "velocity": 40}, {"time": 762, "pitch": 67, "duration": 4, "velocity": 44}, {"time": 762, "pitch": 72, "duration": 5, "velocity": 40}, {"time": 768, "pitch": 57, "duration": 11, "velocity": 58}, {"time": 768, "pitch": 64, "duration": 4, "velocity": 48}, {"time": 768, "pitch": 67, "duration": 4, "velocity": 52}, {"time": 768, "pitch": 72, "duration": 4, "velocity": 42}, {"time": 774, "pitch": 64, "duration": 5, "velocity": 42}, {"time": 774, "pitch": 67, "duration": 5, "velocity": 43}, {"time": 774, "pitch": 72, "duration": 5, "velocity": 44}, {"time": 780, "pitch": 57, "duration": 5, "velocity": 52}, {"time": 780, "pitch": 64, "duration": 4, "velocity": 50}, {"time": 780, "pitch": 67, "duration": 4, "velocity": 56}, {"time": 780, "pitch": 72, "duration": 4, "velocity": 43}, {"time": 786, "pitch": 64, "duration": 2, "velocity": 62}, {"time": 786, "pitch": 67, "duration": 1, "velocity": 47}, {"time": 786, "pitch": 72, "duration": 3, "velocity": 61}, {"time": 792, "pitch": 41, "duration": 22, "velocity": 54}, {"time": 792, "pitch": 53, "duration": 22, "velocity": 54}, {"time": 792, "pitch": 60, "duration": 4, "velocity": 48}, {"time": 792, "pitch": 65, "duration": 4, "velocity": 54}, {"time": 792, "pitch": 69, "duration": 4, "velocity": 49}, {"time": 798, "pitch": 60, "duration": 4, "velocity": 46}, {"time": 798, "pitch": 65, "duration": 4, "velocity": 48}, {"time": 798, "pitch": 69, "duration": 4, "velocity": 46}, {"time": 804, "pitch": 60, "duration": 4, "velocity": 44}, {"time": 804, "pitch": 65, "duration": 4, "velocity": 48}, {"time": 804, "pitch": 69, "duration": 3, "velocity": 45}, {"time": 810, "pitch": 60, "duration": 4, "velocity": 48}, {"time": 810, "pitch": 65, "duration": 4, "velocity": 47}, {"time": 810, "pitch": 69, "duration": 5, "velocity": 53}, {"time": 816, "pitch": 41, "duration": 19, "velocity": 59}, {"time": 816, "pitch": 53, "duration": 10, "velocity": 53}, {"time": 816, "pitch": 60, "duration": 4, "velocity": 54}, {"time": 816, "pitch": 67, "duration": 4, "velocity": 58}, {"time": 822, "pitch": 60, "duration": 4, "velocity": 52}, {"time": 822, "pitch": 67, "duration": 5, "velocity": 57}, {"time": 828, "pitch": 53, "duration": 4, "velocity": 56}, {"time": 828, "pitch": 60, "duration": 4, "velocity": 58}, {"time": 828, "pitch": 65, "duration": 4, "velocity": 60}, {"time": 834, "pitch": 53, "duration": 2, "velocity": 66}, {"time": 834, "pitch": 60, "duration": 3, "velocity": 62}, {"time": 834, "pitch": 65, "duration": 2, "velocity": 57}, {"time": 840, "pitch": 48, "duration": 23, "velocity": 69}, {"time": 840, "pitch": 60, "duration": 4, "velocity": 57}, {"time": 840, "pitch": 64, "duration": 4, "velocity": 59}, {"time": 840, "pitch": 67, "duration": 4, "velocity": 48}, {"time": 846, "pitch": 60, "duration": 4, "velocity": 49}, {"time": 846, "pitch": 64, "duration": 4, "velocity": 47}, {"time": 846, "pitch": 67, "duration": 4, "velocity": 47}, {"time": 852, "pitch": 60, "duration": 4, "velocity": 46}, {"time": 852, "pitch": 64, "duration": 4, "velocity": 52}, {"time": 852, "pitch": 67, "duration": 4, "velocity": 44}, {"time": 858, "pitch": 60, "duration": 4, "velocity": 49}, {"time": 858, "pitch": 64, "duration": 4, "velocity": 54}, {"time": 858, "pitch": 67, "duration": 5, "velocity": 45}, {"time": 864, "pitch": 48, "duration": 17, "velocity": 60}, {"time": 864, "pitch": 60, "duration": 4, "velocity": 50}, {"time": 864, "pitch": 64, "duration": 4, "velocity": 51}, {"time": 864, "pitch": 67, "duration": 4, "velocity": 47}, {"time": 870, "pitch": 60, "duration": 4, "velocity": 46}, {"time": 870, "pitch": 64, "duration": 4, "velocity": 48}, {"time": 870, "pitch": 67, "duration": 4, "velocity": 42}, {"time": 876, "pitch": 60, "duration": 4, "velocity": 49}, {"time": 876, "pitch": 64, "duration": 4, "velocity": 52}, {"time": 876, "pitch": 67, "duration": 4, "velocity": 45}, {"time": 882, "pitch": 48, "duration": 6, "velocity": 54}, {"time": 882, "pitch": 60, "duration": 4, "velocity": 59}, {"time": 882, "pitch": 64, "duration": 4, "velocity": 58}, {"time": 882, "pitch": 67, "duration": 4, "velocity": 56}, {"time": 888, "pitch": 43, "duration": 23, "velocity": 64}, {"time": 888, "pitch": 59, "duration": 4, "velocity": 57}, {"time": 888, "pitch": 62, "duration": 4, "velocity": 59}, {"time": 888, "pitch": 67, "duration": 4, "velocity": 58}, {"time": 894, "pitch": 59, "duration": 5, "velocity": 47}, {"time": 894, "pitch": 62, "duration": 5, "velocity": 51}, {"time": 894, "pitch": 67, "duration": 5, "velocity": 46}, {"time": 900, "pitch": 59, "duration": 4, "velocity": 44}, {"time": 900, "pitch": 62, "duration": 4, "velocity": 46}, {"time": 900, "pitch": 67, "duration": 4, "velocity": 44}, {"time": 906, "pitch": 59, "duration": 4, "velocity": 44}, {"time": 906, "pitch": 62, "duration": 4, "velocity": 47}, {"time": 906, "pitch": 67, "duration": 4, "velocity": 41}, {"time": 912, "pitch": 43, "duration": 20, "velocity": 64}, {"time": 912, "pitch": 59, "duration": 5, "velocity": 50}, {"time": 912, "pitch": 62, "duration": 5, "velocity": 55}, {"time": 912, "pitch": 67, "duration": 5, "velocity": 53}, {"time": 918, "pitch": 59, "duration": 4, "velocity": 45}, {"time": 918, "pitch": 62, "duration": 4, "velocity": 49}, {"time": 918, "pitch": 67, "duration": 3, "velocity": 42}, {"time": 924, "pitch": 59, "duration": 4, "velocity": 49}, {"time": 924, "pitch": 62, "duration": 4, "velocity": 48}, {"time": 924, "pitch": 67, "duration": 4, "velocity": 49}, {"time": 930, "pitch": 59, "duration": 3, "velocity": 57}, {"time": 930, "pitch": 62, "duration": 2, "velocity": 54}, {"time": 930, "pitch": 67, "duration": 11, "velocity": 57}, {"time": 933, "pitch": 43, "duration": 4, "velocity": 72}, {"time": 936, "pitch": 45, "duration": 23, "velocity": 64}, {"time": 936, "pitch": 57, "duration": 5, "velocity": 47}, {"time": 936, "pitch": 60, "duration": 5, "velocity": 51}, {"time": 936, "pitch": 64, "duration": 5, "velocity": 54}, {"time": 942, "pitch": 57, "duration": 4, "velocity": 46}, {"time": 942, "pitch": 60, "duration": 4, "velocity": 47}, {"time": 942, "pitch": 64, "duration": 4, "velocity": 47}, {"time": 942, "pitch": 67, "duration": 4, "velocity": 37}, {"time": 948, "pitch": 57, "duration": 4, "velocity": 45}, {"time": 948, "pitch": 60, "duration": 4, "velocity": 53}, {"time": 948, "pitch": 64, "duration": 5, "velocity": 44}, {"time": 954, "pitch": 57, "duration": 5, "velocity": 49}, {"time": 954, "pitch": 60, "duration": 5, "velocity": 59}, {"time": 954, "pitch": 64, "duration": 5, "velocity": 53}, {"time": 960, "pitch": 45, "duration": 17, "velocity": 64}, {"time": 960, "pitch": 57, "duration": 5, "velocity": 50}, {"time": 960, "pitch": 60, "duration": 5, "velocity": 58}, {"time": 960, "pitch": 64, "duration": 5, "velocity": 48}, {"time": 966, "pitch": 57, "duration": 4, "velocity": 44}, {"time": 966, "pitch": 60, "duration": 5, "velocity": 54}, {"time": 966, "pitch": 64, "duration": 5, "velocity": 44}, {"time": 972, "pitch": 57, "duration": 4, "velocity": 51}, {"time": 972, "pitch": 60, "duration": 4, "velocity": 57}, {"time": 972, "pitch": 64, "duration": 4, "velocity": 56}, {"time": 978, "pitch": 45, "duration": 6, "velocity": 49}, {"time": 978, "pitch": 57, "duration": 4, "velocity": 46}, {"time": 978, "pitch": 60, "duration": 4, "velocity": 52}, {"time": 978, "pitch": 64, "duration": 6, "velocity": 56}, {"time": 984, "pitch": 41, "duration": 43, "velocity": 61}, {"time": 984, "pitch": 53, "duration": 11, "velocity": 59}, {"time": 984, "pitch": 57, "duration": 5, "velocity": 59}, {"time": 984, "pitch": 60, "duration": 5, "velocity": 54}, {"time": 984, "pitch": 65, "duration": 5, "velocity": 73}, {"time": 990, "pitch": 57, "duration": 4, "velocity": 45}, {"time": 990, "pitch": 60, "duration": 4, "velocity": 53}, {"time": 990, "pitch": 65, "duration": 4, "velocity": 47}, {"time": 996, "pitch": 53, "duration": 9, "velocity": 48}, {"time": 996, "pitch": 57, "duration": 4, "velocity": 51}, {"time": 996, "pitch": 60, "duration": 4, "velocity": 56}, {"time": 996, "pitch": 65, "duration": 4, "velocity": 49}, {"time": 1002, "pitch": 57, "duration": 4, "velocity": 44}, {"time": 1002, "pitch": 60, "duration": 4, "velocity": 44}, {"time": 1002, "pitch": 65, "duration": 3, "velocity": 43}, {"time": 1008, "pitch": 53, "duration": 8, "velocity": 49}, {"time": 1008, "pitch": 57, "duration": 5, "velocity": 51}, {"time": 1008, "pitch": 60, "duration": 5, "velocity": 55}, {"time": 1008, "pitch": 65, "duration": 4, "velocity": 52}, {"time": 1014, "pitch": 57, "duration": 4, "velocity": 51}, {"time": 1014, "pitch": 60, "duration": 4, "velocity": 58}, {"time": 1014, "pitch": 65, "duration": 4, "velocity": 49}, {"time": 1017, "pitch": 53, "duration": 4, "velocity": 43}, {"time": 1020, "pitch": 57, "duration": 4, "velocity": 59}, {"time": 1020, "pitch": 60, "duration": 4, "velocity": 63}, {"time": 1020, "pitch": 65, "duration": 4, "velocity": 61}, {"time": 1023, "pitch": 53, "duration": 3, "velocity": 50}, {"time": 1026, "pitch": 57, "duration": 3, "velocity": 58}, {"time": 1026, "pitch": 60, "duration": 2, "velocity": 67}, {"time": 1026, "pitch": 65, "duration": 3, "velocity": 66}, {"time": 1032, "pitch": 45, "duration": 22, "velocity": 64}, {"time": 1032, "pitch": 57, "duration": 9, "velocity": 62}, {"time": 1032, "pitch": 64, "duration": 4, "velocity": 66}, {"time": 1032, "pitch": 69, "duration": 4, "velocity": 66}, {"time": 1032, "pitch": 72, "duration": 5, "velocity": 72}, {"time": 1038, "pitch": 69, "duration": 4, "velocity": 60}, {"time": 1041, "pitch": 64, "duration": 2, "velocity": 55}, {"time": 1041, "pitch": 71, "duration": 4, "velocity": 67}, {"time": 1044, "pitch": 57, "duration": 9, "velocity": 56}, {"time": 1044, "pitch": 64, "duration": 5, "velocity": 69}, {"time": 1044, "pitch": 72, "duration": 5, "velocity": 72}, {"time": 1050, "pitch": 69, "duration": 5, "velocity": 66}, {"time": 1053, "pitch": 71, "duration": 3, "velocity": 70}, {"time": 1056, "pitch": 45, "duration": 19, "velocity": 73}, {"time": 1056, "pitch": 64, "duration": 6, "velocity": 64}, {"time": 1056, "pitch": 69, "duration": 6, "velocity": 62}, {"time": 1056, "pitch": 72, "duration": 6, "velocity": 69}, {"time": 1059, "pitch": 57, "duration": 7, "velocity": 57}, {"time": 1062, "pitch": 64, "duration": 3, "velocity": 63}, {"time": 1065, "pitch": 64, "duration": 4, "velocity": 57}, {"time": 1065, "pitch": 69, "duration": 5, "velocity": 69}, {"time": 1068, "pitch": 57, "duration": 3, "velocity": 62}, {"time": 1071, "pitch": 64, "duration": 3, "velocity": 66}, {"time": 1071, "pitch": 72, "duration": 8, "velocity": 76}, {"time": 1074, "pitch": 57, "duration": 2, "velocity": 60}, {"time": 1080, "pitch": 43, "duration": 5, "velocity": 70}, {"time": 1080, "pitch": 55, "duration": 4, "velocity": 75}, {"time": 1080, "pitch": 62, "duration": 4, "velocity": 64}, {"time": 1080, "pitch": 67, "duration": 3, "velocity": 60}, {"time": 1080, "pitch": 71, "duration": 5, "velocity": 72}, {"time": 1086, "pitch": 43, "duration": 2, "velocity": 63}, {"time": 1086, "pitch": 55, "duration": 2, "velocity": 61}, {"time": 1086, "pitch": 62, "duration": 2, "velocity": 48}, {"time": 1086, "pitch": 67, "duration": 3, "velocity": 53}, {"time": 1089, "pitch": 45, "duration": 2, "velocity": 66}, {"time": 1089, "pitch": 57, "duration": 2, "velocity": 66}, {"time": 1089, "pitch": 62, "duration": 2, "velocity": 41}, {"time": 1089, "pitch": 69, "duration": 3, "velocity": 58}, {"time": 1092, "pitch": 47, "duration": 3, "velocity": 63}, {"time": 1092, "pitch": 59, "duration": 3, "velocity": 72}, {"time": 1092, "pitch": 62, "duration": 5, "velocity": 63}, {"time": 1092, "pitch": 71, "duration": 5, "velocity": 75}, {"time": 1098, "pitch": 43, "duration": 2, "velocity": 63}, {"time": 1098, "pitch": 55, "duration": 2, "velocity": 66}, {"time": 1098, "pitch": 62, "duration": 3, "velocity": 48}, {"time": 1098, "pitch": 67, "duration": 3, "velocity": 56}, {"time": 1101, "pitch": 45, "duration": 2, "velocity": 64}, {"time": 1101, "pitch": 57, "duration": 1, "velocity": 59}, {"time": 1101, "pitch": 69, "duration": 3, "velocity": 63}, {"time": 1104, "pitch": 43, "duration": 18, "velocity": 76}, {"time": 1104, "pitch": 55, "duration": 5, "velocity": 73}, {"time": 1104, "pitch": 62, "duration": 10, "velocity": 64}, {"time": 1104, "pitch": 67, "duration": 7, "velocity": 60}, {"time": 1104, "pitch": 71, "duration": 6, "velocity": 67}, {"time": 1113, "pitch": 55, "duration": 4, "velocity": 58}, {"time": 1116, "pitch": 62, "duration": 4, "velocity": 72}, {"time": 1116, "pitch": 67, "duration": 4, "velocity": 76}, {"time": 1116, "pitch": 71, "duration": 4, "velocity": 78}, {"time": 1119, "pitch": 55, "duration": 3, "velocity": 67}, {"time": 1122, "pitch": 62, "duration": 3, "velocity": 49}, {"time": 1125, "pitch": 67, "duration": 3, "velocity": 53}, {"time": 1128, "pitch": 41, "duration": 43, "velocity": 66}, {"time": 1128, "pitch": 53, "duration": 6, "velocity": 72}, {"time": 1128, "pitch": 60, "duration": 8, "velocity": 64}, {"time": 1128, "pitch": 65, "duration": 8, "velocity": 72}, {"time": 1128, "pitch": 69, "duration": 9, "velocity": 67}, {"time": 1134, "pitch": 67, "duration": 2, "velocity": 33}, {"time": 1137, "pitch": 53, "duration": 5, "velocity": 49}, {"time": 1140, "pitch": 60, "duration": 7, "velocity": 63}, {"time": 1140, "pitch": 65, "duration": 6, "velocity": 67}, {"time": 1140, "pitch": 67, "duration": 6, "velocity": 67}, {"time": 1140, "pitch": 69, "duration": 6, "velocity": 66}, {"time": 1146, "pitch": 53, "duration": 11, "velocity": 52}, {"time": 1152, "pitch": 60, "duration": 7, "velocity": 58}, {"time": 1152, "pitch": 65, "duration": 6, "velocity": 67}, {"time": 1152, "pitch": 67, "duration": 8, "velocity": 67}, {"time": 1152, "pitch": 69, "duration": 6, "velocity": 63}, {"time": 1161, "pitch": 53, "duration": 6, "velocity": 42}, {"time": 1164, "pitch": 60, "duration": 6, "velocity": 70}, {"time": 1164, "pitch": 65, "duration": 6, "velocity": 69}, {"time": 1164, "pitch": 67, "duration": 6, "velocity": 69}, {"time": 1164, "pitch": 69, "duration": 7, "velocity": 72}, {"time": 1170, "pitch": 53, "duration": 6, "velocity": 69}, {"time": 1176, "pitch": 48, "duration": 21, "velocity": 75}, {"time": 1176, "pitch": 62, "duration": 6, "velocity": 60}, {"time": 1176, "pitch": 64, "duration": 6, "velocity": 67}, {"time": 1176, "pitch": 67, "duration": 6, "velocity": 63}, {"time": 1176, "pitch": 72, "duration": 9, "velocity": 62}, {"time": 1182, "pitch": 55, "duration": 9, "velocity": 58}, {"time": 1188, "pitch": 60, "duration": 7, "velocity": 64}, {"time": 1188, "pitch": 62, "duration": 6, "velocity": 66}, {"time": 1188, "pitch": 64, "duration": 7, "velocity": 73}, {"time": 1188, "pitch": 67, "duration": 6, "velocity": 72}, {"time": 1194, "pitch": 55, "duration": 4, "velocity": 67}, {"time": 1200, "pitch": 47, "duration": 20, "velocity": 69}, {"time": 1200, "pitch": 62, "duration": 6, "velocity": 60}, {"time": 1200, "pitch": 67, "duration": 6, "velocity": 67}, {"time": 1200, "pitch": 71, "duration": 6, "velocity": 57}, {"time": 1206, "pitch": 59, "duration": 7, "velocity": 58}, {"time": 1212, "pitch": 62, "duration": 6, "velocity": 70}, {"time": 1212, "pitch": 67, "duration": 6, "velocity": 73}, {"time": 1212, "pitch": 71, "duration": 4, "velocity": 64}, {"time": 1218, "pitch": 59, "duration": 2, "velocity": 61}, {"time": 1224, "pitch": 33, "duration": 20, "velocity": 69}, {"time": 1224, "pitch": 45, "duration": 20, "velocity": 69}, {"time": 1224, "pitch": 57, "duration": 9, "velocity": 69}, {"time": 1224, "pitch": 60, "duration": 4, "velocity": 67}, {"time": 1224, "pitch": 64, "duration": 4, "velocity": 64}, {"time": 1224, "pitch": 69, "duration": 5, "velocity": 72}, {"time": 1230, "pitch": 60, "duration": 4, "velocity": 58}, {"time": 1230, "pitch": 69, "duration": 2, "velocity": 27}, {"time": 1233, "pitch": 62, "duration": 2, "velocity": 45}, {"time": 1236, "pitch": 57, "duration": 4, "velocity": 56}, {"time": 1236, "pitch": 60, "duration": 5, "velocity": 61}, {"time": 1236, "pitch": 64, "duration": 5, "velocity": 70}, {"time": 1239, "pitch": 69, "duration": 3, "velocity": 17}, {"time": 1242, "pitch": 57, "duration": 6, "velocity": 55}, {"time": 1245, "pitch": 60, "duration": 3, "velocity": 51}, {"time": 1248, "pitch": 33, "duration": 21, "velocity": 63}, {"time": 1248, "pitch": 45, "duration": 21, "velocity": 63}, {"time": 1248, "pitch": 60, "duration": 7, "velocity": 66}, {"time": 1248, "pitch": 64, "duration": 6, "velocity": 66}, {"time": 1248, "pitch": 69, "duration": 7, "velocity": 63}, {"time": 1254, "pitch": 57, "duration": 10, "velocity": 53}, {"time": 1257, "pitch": 60, "duration": 2, "velocity": 70}, {"time": 1257, "pitch": 64, "duration": 3, "velocity": 75}, {"time": 1263, "pitch": 59, "duration": 3, "velocity": 66}, {"time": 1263, "pitch": 62, "duration": 3, "velocity": 70}, {"time": 1266, "pitch": 57, "duration": 2, "velocity": 67}, {"time": 1272, "pitch": 31, "duration": 7, "velocity": 75}, {"time": 1272, "pitch": 43, "duration": 7, "velocity": 75}, {"time": 1272, "pitch": 55, "duration": 4, "velocity": 70}, {"time": 1272, "pitch": 59, "duration": 5, "velocity": 63}, {"time": 1272, "pitch": 62, "duration": 5, "velocity": 64}, {"time": 1275, "pitch": 67, "duration": 3, "velocity": 19}, {"time": 1278, "pitch": 55, "duration": 4, "velocity": 75}, {"time": 1281, "pitch": 43, "duration": 2, "velocity": 73}, {"time": 1284, "pitch": 47, "duration": 3, "velocity": 70}, {"time": 1290, "pitch": 43, "duration": 3, "velocity": 70}, {"time": 1290, "pitch": 59, "duration": 3, "velocity": 51}, {"time": 1293, "pitch": 45, "duration": 3, "velocity": 67}, {"time": 1293, "pitch": 62, "duration": 3, "velocity": 52}, {"time": 1296, "pitch": 31, "duration": 7, "velocity": 75}, {"time": 1296, "pitch": 43, "duration": 20, "velocity": 69}, {"time": 1296, "pitch": 59, "duration": 8, "velocity": 63}, {"time": 1296, "pitch": 62, "duration": 8, "velocity": 44}, {"time": 1296, "pitch": 67, "duration": 7, "velocity": 69}, {"time": 1302, "pitch": 50, "duration": 14, "velocity": 54}, {"time": 1305, "pitch": 55, "duration": 6, "velocity": 64}, {"time": 1308, "pitch": 59, "duration": 2, "velocity": 69}, {"time": 1311, "pitch": 62, "duration": 4, "velocity": 69}, {"time": 1314, "pitch": 55, "duration": 2, "velocity": 64}, {"time": 1314, "pitch": 67, "duration": 2, "velocity": 72}, {"time": 1320, "pitch": 34, "duration": 20, "velocity": 78}, {"time": 1320, "pitch": 46, "duration": 20, "velocity": 78}, {"time": 1320, "pitch": 62, "duration": 5, "velocity": 67}, {"time": 1320, "pitch": 65, "duration": 5, "velocity": 70}, {"time": 1320, "pitch": 70, "duration": 5, "velocity": 72}, {"time": 1323, "pitch": 53, "duration": 19, "velocity": 62}, {"time": 1326, "pitch": 60, "duration": 2, "velocity": 52}, {"time": 1326, "pitch": 69, "duration": 2, "velocity": 66}, {"time": 1329, "pitch": 58, "duration": 2, "velocity": 60}, {"time": 1329, "pitch": 62, "duration": 4, "velocity": 58}, {"time": 1329, "pitch": 65, "duration": 2, "velocity": 70}, {"time": 1329, "pitch": 70, "duration": 5, "velocity": 91}, {"time": 1332, "pitch": 58, "duration": 4, "velocity": 69}, {"time": 1335, "pitch": 60, "duration": 2, "velocity": 57}, {"time": 1335, "pitch": 65, "duration": 1, "velocity": 44}, {"time": 1335, "pitch": 69, "duration": 2, "velocity": 72}, {"time": 1341, "pitch": 60, "duration": 10, "velocity": 67}, {"time": 1341, "pitch": 65, "duration": 10, "velocity": 69}, {"time": 1344, "pitch": 34, "duration": 18, "velocity": 76}, {"time": 1344, "pitch": 46, "duration": 18, "velocity": 76}, {"time": 1347, "pitch": 53, "duration": 14, "velocity": 67}, {"time": 1350, "pitch": 58, "duration": 7, "velocity": 73}, {"time": 1353, "pitch": 60, "duration": 3, "velocity": 66}, {"time": 1356, "pitch": 60, "duration": 2, "velocity": 59}, {"time": 1356, "pitch": 65, "duration": 6, "velocity": 67}, {"time": 1359, "pitch": 58, "duration": 2, "velocity": 80}, {"time": 1362, "pitch": 60, "duration": 3, "velocity": 59}, {"time": 1365, "pitch": 72, "duration": 7, "velocity": 73}, {"time": 1368, "pitch": 31, "duration": 22, "velocity": 73}, {"time": 1368, "pitch": 43, "duration": 22, "velocity": 73}, {"time": 1368, "pitch": 55, "duration": 6, "velocity": 78}, {"time": 1368, "pitch": 62, "duration": 5, "velocity": 78}, {"time": 1368, "pitch": 67, "duration": 5, "velocity": 78}, {"time": 1368, "pitch": 71, "duration": 5, "velocity": 62}, {"time": 1374, "pitch": 62, "duration": 4, "velocity": 60}, {"time": 1374, "pitch": 69, "duration": 5, "velocity": 62}, {"time": 1377, "pitch": 55, "duration": 5, "velocity": 60}, {"time": 1380, "pitch": 62, "duration": 3, "velocity": 70}, {"time": 1380, "pitch": 67, "duration": 1, "velocity": 61}, {"time": 1380, "pitch": 71, "duration": 5, "velocity": 70}, {"time": 1383, "pitch": 55, "duration": 3, "velocity": 70}, {"time": 1386, "pitch": 55, "duration": 4, "velocity": 63}, {"time": 1386, "pitch": 62, "duration": 2, "velocity": 69}, {"time": 1386, "pitch": 67, "duration": 2, "velocity": 64}, {"time": 1386, "pitch": 72, "duration": 2, "velocity": 69}, {"time": 1392, "pitch": 31, "duration": 19, "velocity": 73}, {"time": 1392, "pitch": 43, "duration": 19, "velocity": 73}, {"time": 1392, "pitch": 55, "duration": 2, "velocity": 58}, {"time": 1392, "pitch": 67, "duration": 5, "velocity": 75}, {"time": 1392, "pitch": 74, "duration": 4, "velocity": 80}, {"time": 1398, "pitch": 55, "duration": 4, "velocity": 54}, {"time": 1398, "pitch": 67, "duration": 5, "velocity": 75}, {"time": 1398, "pitch": 72, "duration": 5, "velocity": 76}, {"time": 1404, "pitch": 55, "duration": 4, "velocity": 63}, {"time": 1404, "pitch": 62, "duration": 4, "velocity": 82}, {"time": 1404, "pitch": 71, "duration": 7, "velocity": 69}, {"time": 1410, "pitch": 55, "duration": 2, "velocity": 91}, {"time": 1410, "pitch": 62, "duration": 2, "velocity": 57}, {"time": 1410, "pitch": 67, "duration": 2, "velocity": 72}, {"time": 1416, "pitch": 33, "duration": 5, "velocity": 75}, {"time": 1416, "pitch": 45, "duration": 5, "velocity": 75}, {"time": 1416, "pitch": 57, "duration": 5, "velocity": 70}, {"time": 1416, "pitch": 61, "duration": 5, "velocity": 80}, {"time": 1416, "pitch": 64, "duration": 6, "velocity": 78}, {"time": 1416, "pitch": 69, "duration": 5, "velocity": 70}, {"time": 1422, "pitch": 33, "duration": 5, "velocity": 53}, {"time": 1422, "pitch": 45, "duration": 5, "velocity": 53}, {"time": 1422, "pitch": 57, "duration": 5, "velocity": 58}, {"time": 1422, "pitch": 61, "duration": 5, "velocity": 73}, {"time": 1422, "pitch": 64, "duration": 5, "velocity": 69}, {"time": 1422, "pitch": 69, "duration": 4, "velocity": 69}, {"time": 1428, "pitch": 33, "duration": 4, "velocity": 62}, {"time": 1428, "pitch": 45, "duration": 4, "velocity": 62}, {"time": 1428, "pitch": 57, "duration": 4, "velocity": 61}, {"time": 1428, "pitch": 61, "duration": 4, "velocity": 69}, {"time": 1428, "pitch": 64, "duration": 4, "velocity": 64}, {"time": 1428, "pitch": 69, "duration": 4, "velocity": 75}, {"time": 1434, "pitch": 33, "duration": 5, "velocity": 66}, {"time": 1434, "pitch": 45, "duration": 5, "velocity": 66}, {"time": 1434, "pitch": 57, "duration": 5, "velocity": 61}, {"time": 1434, "pitch": 61, "duration": 5, "velocity": 63}, {"time": 1434, "pitch": 64, "duration": 5, "velocity": 63}, {"time": 1434, "pitch": 69, "duration": 4, "velocity": 67}, {"time": 1440, "pitch": 33, "duration": 17, "velocity": 72}, {"time": 1440, "pitch": 45, "duration": 17, "velocity": 72}, {"time": 1440, "pitch": 57, "duration": 16, "velocity": 78}, {"time": 1440, "pitch": 61, "duration": 16, "velocity": 73}, {"time": 1440, "pitch": 64, "duration": 16, "velocity": 73}, {"time": 1440, "pitch": 69, "duration": 16, "velocity": 76}, {"time": 1452, "pitch": 33, "duration": 5, "velocity": 75}, {"time": 1452, "pitch": 45, "duration": 5, "velocity": 75}, {"time": 1452, "pitch": 57, "duration": 4, "velocity": 72}, {"time": 1452, "pitch": 61, "duration": 4, "velocity": 70}, {"time": 1455, "pitch": 59, "duration": 5, "velocity": 66}, {"time": 1455, "pitch": 62, "duration": 4, "velocity": 36}, {"time": 1458, "pitch": 57, "duration": 1, "velocity": 46}, {"time": 1458, "pitch": 64, "duration": 2, "velocity": 78}, {"time": 1464, "pitch": 38, "duration": 20, "velocity": 80}, {"time": 1464, "pitch": 50, "duration": 20, "velocity": 80}, {"time": 1464, "pitch": 62, "duration": 4, "velocity": 78}, {"time": 1464, "pitch": 66, "duration": 4, "velocity": 82}, {"time": 1464, "pitch": 69, "duration": 4, "velocity": 78}, {"time": 1467, "pitch": 57, "duration": 7, "velocity": 63}, {"time": 1470, "pitch": 62, "duration": 2, "velocity": 51}, {"time": 1473, "pitch": 62, "duration": 7, "velocity": 70}, {"time": 1473, "pitch": 66, "duration": 7, "velocity": 78}, {"time": 1473, "pitch": 69, "duration": 6, "velocity": 75}, {"time": 1479, "pitch": 57, "duration": 7, "velocity": 69}, {"time": 1482, "pitch": 62, "duration": 2, "velocity": 47}, {"time": 1485, "pitch": 62, "duration": 7, "velocity": 66}, {"time": 1485, "pitch": 66, "duration": 8, "velocity": 80}, {"time": 1485, "pitch": 69, "duration": 7, "velocity": 75}, {"time": 1488, "pitch": 38, "duration": 17, "velocity": 69}, {"time": 1488, "pitch": 50, "duration": 17, "velocity": 69}, {"time": 1491, "pitch": 57, "duration": 7, "velocity": 57}, {"time": 1494, "pitch": 62, "duration": 2, "velocity": 60}, {"time": 1497, "pitch": 62, "duration": 5, "velocity": 75}, {"time": 1497, "pitch": 66, "duration": 7, "velocity": 76}, {"time": 1497, "pitch": 69, "duration": 5, "velocity": 76}, {"time": 1500, "pitch": 57, "duration": 4, "velocity": 64}, {"time": 1503, "pitch": 62, "duration": 5, "velocity": 73}, {"time": 1506, "pitch": 66, "duration": 5, "velocity": 62}, {"time": 1509, "pitch": 69, "duration": 2, "velocity": 64}, {"time": 1512, "pitch": 33, "duration": 20, "velocity": 70}, {"time": 1512, "pitch": 45, "duration": 20, "velocity": 70}, {"time": 1512, "pitch": 61, "duration": 6, "velocity": 82}, {"time": 1512, "pitch": 64, "duration": 6, "velocity": 80}, {"time": 1512, "pitch": 69, "duration": 7, "velocity": 45}, {"time": 1515, "pitch": 52, "duration": 19, "velocity": 66}, {"time": 1518, "pitch": 57, "duration": 4, "velocity": 51}, {"time": 1521, "pitch": 61, "duration": 7, "velocity": 73}, {"time": 1521, "pitch": 64, "duration": 3, "velocity": 78}, {"time": 1521, "pitch": 69, "duration": 7, "velocity": 64}, {"time": 1527, "pitch": 57, "duration": 6, "velocity": 63}, {"time": 1530, "pitch": 61, "duration": 2, "velocity": 67}, {"time": 1530, "pitch": 67, "duration": 3, "velocity": 62}, {"time": 1533, "pitch": 61, "duration": 7, "velocity": 66}, {"time": 1533, "pitch": 64, "duration": 7, "velocity": 76}, {"time": 1533, "pitch": 69, "duration": 7, "velocity": 70}, {"time": 1536, "pitch": 33, "duration": 14, "velocity": 70}, {"time": 1536, "pitch": 45, "duration": 14, "velocity": 70}, {"time": 1539, "pitch": 57, "duration": 7, "velocity": 75}, {"time": 1542, "pitch": 61, "duration": 3, "velocity": 60}, {"time": 1545, "pitch": 61, "duration": 5, "velocity": 76}, {"time": 1545, "pitch": 64, "duration": 5, "velocity": 80}, {"time": 1545, "pitch": 69, "duration": 5, "velocity": 82}, {"time": 1548, "pitch": 57, "duration": 3, "velocity": 58}, {"time": 1551, "pitch": 61, "duration": 3, "velocity": 62}, {"time": 1551, "pitch": 69, "duration": 1, "velocity": 37}, {"time": 1554, "pitch": 34, "duration": 3, "velocity": 91}, {"time": 1554, "pitch": 46, "duration": 3, "velocity": 91}, {"time": 1554, "pitch": 69, "duration": 2, "velocity": 62}, {"time": 1557, "pitch": 66, "duration": 2, "velocity": 57}, {"time": 1560, "pitch": 35, "duration": 22, "velocity": 80}, {"time": 1560, "pitch": 47, "duration": 22, "velocity": 80}, {"time": 1560, "pitch": 62, "duration": 4, "velocity": 69}, {"time": 1560, "pitch": 66, "duration": 4, "velocity": 76}, {"time": 1560, "pitch": 69, "duration": 5, "velocity": 70}, {"time": 1563, "pitch": 59, "duration": 7, "velocity": 62}, {"time": 1566, "pitch": 62, "duration": 2, "velocity": 58}, {"time": 1569, "pitch": 62, "duration": 4, "velocity": 70}, {"time": 1569, "pitch": 66, "duration": 5, "velocity": 75}, {"time": 1569, "pitch": 69, "duration": 5, "velocity": 78}, {"time": 1572, "pitch": 59, "duration": 10, "velocity": 60}, {"time": 1575, "pitch": 62, "duration": 2, "velocity": 64}, {"time": 1575, "pitch": 67, "duration": 2, "velocity": 54}, {"time": 1581, "pitch": 62, "duration": 7, "velocity": 78}, {"time": 1581, "pitch": 66, "duration": 5, "velocity": 51}, {"time": 1581, "pitch": 69, "duration": 7, "velocity": 78}, {"time": 1584, "pitch": 35, "duration": 19, "velocity": 70}, {"time": 1584, "pitch": 47, "duration": 19, "velocity": 70}, {"time": 1587, "pitch": 59, "duration": 7, "velocity": 75}, {"time": 1590, "pitch": 62, "duration": 2, "velocity": 57}, {"time": 1593, "pitch": 62, "duration": 7, "velocity": 75}, {"time": 1593, "pitch": 66, "duration": 7, "velocity": 67}, {"time": 1593, "pitch": 69, "duration": 5, "velocity": 76}, {"time": 1599, "pitch": 59, "duration": 4, "velocity": 61}, {"time": 1602, "pitch": 62, "duration": 4, "velocity": 76}, {"time": 1602, "pitch": 66, "duration": 2, "velocity": 67}, {"time": 1602, "pitch": 69, "duration": 4, "velocity": 70}, {"time": 1605, "pitch": 66, "duration": 2, "velocity": 73}, {"time": 1608, "pitch": 31, "duration": 22, "velocity": 76}, {"time": 1608, "pitch": 43, "duration": 22, "velocity": 76}, {"time": 1608, "pitch": 55, "duration": 3, "velocity": 75}, {"time": 1608, "pitch": 59, "duration": 4, "velocity": 75}, {"time": 1608, "pitch": 62, "duration": 4, "velocity": 72}, {"time": 1608, "pitch": 67, "duration": 7, "velocity": 78}, {"time": 1614, "pitch": 55, "duration": 4, "velocity": 40}, {"time": 1617, "pitch": 57, "duration": 3, "velocity": 80}, {"time": 1617, "pitch": 66, "duration": 4, "velocity": 76}, {"time": 1620, "pitch": 55, "duration": 4, "velocity": 44}, {"time": 1623, "pitch": 59, "duration": 3, "velocity": 67}, {"time": 1623, "pitch": 62, "duration": 2, "velocity": 72}, {"time": 1623, "pitch": 67, "duration": 9, "velocity": 72}, {"time": 1629, "pitch": 55, "duration": 3, "velocity": 69}, {"time": 1632, "pitch": 31, "duration": 18, "velocity": 72}, {"time": 1632, "pitch": 43, "duration": 18, "velocity": 72}, {"time": 1635, "pitch": 55, "duration": 7, "velocity": 76}, {"time": 1638, "pitch": 57, "duration": 2, "velocity": 76}, {"time": 1638, "pitch": 66, "duration": 3, "velocity": 93}, {"time": 1641, "pitch": 62, "duration": 4, "velocity": 64}, {"time": 1641, "pitch": 67, "duration": 4, "velocity": 63}, {"time": 1644, "pitch": 55, "duration": 4, "velocity": 56}, {"time": 1647, "pitch": 59, "duration": 2, "velocity": 72}, {"time": 1647, "pitch": 66, "duration": 2, "velocity": 78}, {"time": 1650, "pitch": 55, "duration": 5, "velocity": 76}, {"time": 1653, "pitch": 62, "duration": 2, "velocity": 33}, {"time": 1656, "pitch": 38, "duration": 20, "velocity": 70}, {"time": 1656, "pitch": 50, "duration": 20, "velocity": 70}, {"time": 1656, "pitch": 62, "duration": 3, "velocity": 70}, {"time": 1656, "pitch": 66, "duration": 6, "velocity": 95}, {"time": 1659, "pitch": 57, "duration": 19, "velocity": 59}, {"time": 1662, "pitch": 62, "duration": 7, "velocity": 66}, {"time": 1665, "pitch": 64, "duration": 3, "velocity": 67}, {"time": 1668, "pitch": 66, "duration": 3, "velocity": 66}, {"time": 1671, "pitch": 66, "duration": 1, "velocity": 43}, {"time": 1671, "pitch": 74, "duration": 5, "velocity": 73}, {"time": 1674, "pitch": 62, "duration": 9, "velocity": 52}, {"time": 1677, "pitch": 69, "duration": 4, "velocity": 73}, {"time": 1680, "pitch": 38, "duration": 20, "velocity": 73}, {"time": 1680, "pitch": 50, "duration": 20, "velocity": 73}, {"time": 1683, "pitch": 57, "duration": 7, "velocity": 62}, {"time": 1686, "pitch": 62, "duration": 2, "velocity": 60}, {"time": 1686, "pitch": 66, "duration": 2, "velocity": 76}, {"time": 1689, "pitch": 64, "duration": 5, "velocity": 67}, {"time": 1689, "pitch": 67, "duration": 4, "velocity": 70}, {"time": 1692, "pitch": 57, "duration": 3, "velocity": 60}, {"time": 1695, "pitch": 62, "duration": 4, "velocity": 75}, {"time": 1695, "pitch": 66, "duration": 3, "velocity": 70}, {"time": 1695, "pitch": 69, "duration": 4, "velocity": 72}, {"time": 1698, "pitch": 57, "duration": 2, "velocity": 59}, {"time": 1704, "pitch": 33, "duration": 19, "velocity": 69}, {"time": 1704, "pitch": 45, "duration": 19, "velocity": 69}, {"time": 1704, "pitch": 61, "duration": 6, "velocity": 91}, {"time": 1704, "pitch": 64, "duration": 6, "velocity": 78}, {"time": 1704, "pitch": 69, "duration": 6, "velocity": 69}, {"time": 1710, "pitch": 57, "duration": 5, "velocity": 58}, {"time": 1713, "pitch": 59, "duration": 2, "velocity": 76}, {"time": 1713, "pitch": 61, "duration": 2, "velocity": 76}, {"time": 1716, "pitch": 57, "duration": 5, "velocity": 49}, {"time": 1719, "pitch": 62, "duration": 3, "velocity": 69}, {"time": 1722, "pitch": 52, "duration": 2, "velocity": 46}, {"time": 1725, "pitch": 61, "duration": 1, "velocity": 78}, {"time": 1725, "pitch": 64, "duration": 2, "velocity": 75}, {"time": 1728, "pitch": 33, "duration": 18, "velocity": 66}, {"time": 1728, "pitch": 45, "duration": 18, "velocity": 66}, {"time": 1731, "pitch": 52, "duration": 9, "velocity": 51}, {"time": 1734, "pitch": 57, "duration": 1, "velocity": 91}, {"time": 1734, "pitch": 69, "duration": 2, "velocity": 82}, {"time": 1737, "pitch": 59, "duration": 1, "velocity": 78}, {"time": 1737, "pitch": 71, "duration": 2, "velocity": 78}, {"time": 1740, "pitch": 55, "duration": 3, "velocity": 43}, {"time": 1740, "pitch": 57, "duration": 4, "velocity": 44}, {"time": 1743, "pitch": 61, "duration": 2, "velocity": 69}, {"time": 1743, "pitch": 73, "duration": 2, "velocity": 62}, {"time": 1746, "pitch": 52, "duration": 2, "velocity": 63}, {"time": 1752, "pitch": 35, "duration": 19, "velocity": 64}, {"time": 1752, "pitch": 47, "duration": 19, "velocity": 64}, {"time": 1752, "pitch": 59, "duration": 7, "velocity": 59}, {"time": 1752, "pitch": 62, "duration": 7, "velocity": 70}, {"time": 1752, "pitch": 66, "duration": 7, "velocity": 63}, {"time": 1761, "pitch": 54, "duration": 6, "velocity": 67}, {"time": 1764, "pitch": 59, "duration": 5, "velocity": 76}, {"time": 1764, "pitch": 62, "duration": 6, "velocity": 72}, {"time": 1764, "pitch": 66, "duration": 6, "velocity": 78}, {"time": 1770, "pitch": 54, "duration": 4, "velocity": 66}, {"time": 1773, "pitch": 35, "duration": 22, "velocity": 61}, {"time": 1773, "pitch": 47, "duration": 22, "velocity": 61}, {"time": 1773, "pitch": 57, "duration": 2, "velocity": 67}, {"time": 1773, "pitch": 62, "duration": 2, "velocity": 69}, {"time": 1773, "pitch": 66, "duration": 2, "velocity": 64}, {"time": 1776, "pitch": 59, "duration": 4, "velocity": 70}, {"time": 1776, "pitch": 66, "duration": 5, "velocity": 73}, {"time": 1782, "pitch": 57, "duration": 2, "velocity": 47}, {"time": 1782, "pitch": 64, "duration": 2, "velocity": 67}, {"time": 1785, "pitch": 57, "duration": 5, "velocity": 67}, {"time": 1785, "pitch": 64, "duration": 5, "velocity": 80}, {"time": 1788, "pitch": 54, "duration": 4, "velocity": 57}, {"time": 1791, "pitch": 57, "duration": 3, "velocity": 76}, {"time": 1791, "pitch": 62, "duration": 3, "velocity": 78}, {"time": 1794, "pitch": 54, "duration": 2, "velocity": 57}, {"time": 1797, "pitch": 62, "duration": 2, "velocity": 39}, {"time": 1800, "pitch": 31, "duration": 21, "velocity": 75}, {"time": 1800, "pitch": 43, "duration": 21, "velocity": 75}, {"time": 1800, "pitch": 55, "duration": 4, "velocity": 73}, {"time": 1800, "pitch": 59, "duration": 3, "velocity": 78}, {"time": 1800, "pitch": 62, "duration": 5, "velocity": 66}, {"time": 1800, "pitch": 67, "duration": 5, "velocity": 76}, {"time": 1806, "pitch": 57, "duration": 2, "velocity": 60}, {"time": 1806, "pitch": 66, "duration": 3, "velocity": 67}, {"time": 1809, "pitch": 59, "duration": 2, "velocity": 69}, {"time": 1809, "pitch": 62, "duration": 3, "velocity": 72}, {"time": 1809, "pitch": 67, "duration": 5, "velocity": 80}, {"time": 1812, "pitch": 55, "duration": 5, "velocity": 64}, {"time": 1815, "pitch": 57, "duration": 2, "velocity": 64}, {"time": 1815, "pitch": 66, "duration": 2, "velocity": 72}, {"time": 1821, "pitch": 57, "duration": 7, "velocity": 64}, {"time": 1821, "pitch": 62, "duration": 7, "velocity": 73}, {"time": 1824, "pitch": 31, "duration": 10, "velocity": 73}, {"time": 1824, "pitch": 43, "duration": 10, "velocity": 73}, {"time": 1827, "pitch": 55, "duration": 8, "velocity": 80}, {"time": 1830, "pitch": 57, "duration": 2, "velocity": 69}, {"time": 1833, "pitch": 62, "duration": 3, "velocity": 53}, {"time": 1836, "pitch": 33, "duration": 5, "velocity": 70}, {"time": 1836, "pitch": 45, "duration": 5, "velocity": 70}, {"time": 1836, "pitch": 66, "duration": 5, "velocity": 82}, {"time": 1842, "pitch": 33, "duration": 2, "velocity": 57}, {"time": 1842, "pitch": 45, "duration": 2, "velocity": 57}, {"time": 1842, "pitch": 57, "duration": 3, "velocity": 16}, {"time": 1842, "pitch": 61, "duration": 2, "velocity": 70}, {"time": 1848, "pitch": 26, "duration": 26, "velocity": 75}, {"time": 1848, "pitch": 38, "duration": 26, "velocity": 75}, {"time": 1848, "pitch": 50, "duration": 6, "velocity": 75}, {"time": 1848, "pitch": 57, "duration": 7, "velocity": 76}, {"time": 1848, "pitch": 62, "duration": 7, "velocity": 75}, {"time": 1848, "pitch": 66, "duration": 6, "velocity": 75}, {"time": 1857, "pitch": 50, "duration": 6, "velocity": 40}, {"time": 1860, "pitch": 57, "duration": 7, "velocity": 72}, {"time": 1860, "pitch": 62, "duration": 7, "velocity": 67}, {"time": 1860, "pitch": 66, "duration": 8, "velocity": 73}, {"time": 1866, "pitch": 50, "duration": 7, "velocity": 43}, {"time": 1872, "pitch": 57, "duration": 2, "velocity": 75}, {"time": 1872, "pitch": 62, "duration": 1, "velocity": 75}, {"time": 1872, "pitch": 66, "duration": 2, "velocity": 76}, {"time": 1896, "pitch": 36, "duration": 8, "velocity": 69}, {"time": 1896, "pitch": 48, "duration": 8, "velocity": 66}, {"time": 1896, "pitch": 67, "duration": 3, "velocity": 72}, {"time": 1896, "pitch": 72, "duration": 5, "velocity": 73}, {"time": 1899, "pitch": 64, "duration": 4, "velocity": 46}, {"time": 1902, "pitch": 67, "duration": 4, "velocity": 61}, {"time": 1905, "pitch": 36, "duration": 8, "velocity": 66}, {"time": 1905, "pitch": 48, "duration": 9, "velocity": 70}, {"time": 1905, "pitch": 64, "duration": 7, "velocity": 43}, {"time": 1905, "pitch": 72, "duration": 7, "velocity": 73}, {"time": 1911, "pitch": 67, "duration": 4, "velocity": 60}, {"time": 1914, "pitch": 36, "duration": 8, "velocity": 62}, {"time": 1914, "pitch": 48, "duration": 8, "velocity": 64}, {"time": 1914, "pitch": 72, "duration": 7, "velocity": 70}, {"time": 1917, "pitch": 64, "duration": 4, "velocity": 48}, {"time": 1920, "pitch": 67, "duration": 4, "velocity": 56}, {"time": 1923, "pitch": 36, "duration": 8, "velocity": 70}, {"time": 1923, "pitch": 48, "duration": 8, "velocity": 70}, {"time": 1923, "pitch": 72, "duration": 7, "velocity": 72}, {"time": 1926, "pitch": 64, "duration": 4, "velocity": 50}, {"time": 1929, "pitch": 67, "duration": 5, "velocity": 59}, {"time": 1932, "pitch": 36, "duration": 5, "velocity": 64}, {"time": 1932, "pitch": 48, "duration": 5, "velocity": 66}, {"time": 1932, "pitch": 72, "duration": 4, "velocity": 73}, {"time": 1935, "pitch": 64, "duration": 4, "velocity": 56}, {"time": 1938, "pitch": 36, "duration": 2, "velocity": 75}, {"time": 1938, "pitch": 48, "duration": 1, "velocity": 59}, {"time": 1938, "pitch": 67, "duration": 3, "velocity": 67}, {"time": 1941, "pitch": 72, "duration": 5, "velocity": 73}, {"time": 1944, "pitch": 31, "duration": 8, "velocity": 69}, {"time": 1944, "pitch": 43, "duration": 9, "velocity": 76}, {"time": 1944, "pitch": 71, "duration": 5, "velocity": 61}, {"time": 1947, "pitch": 62, "duration": 5, "velocity": 49}, {"time": 1950, "pitch": 67, "duration": 3, "velocity": 53}, {"time": 1953, "pitch": 31, "duration": 7, "velocity": 75}, {"time": 1953, "pitch": 43, "duration": 8, "velocity": 70}, {"time": 1953, "pitch": 71, "duration": 4, "velocity": 72}, {"time": 1956, "pitch": 62, "duration": 5, "velocity": 43}, {"time": 1959, "pitch": 67, "duration": 3, "velocity": 62}, {"time": 1962, "pitch": 31, "duration": 8, "velocity": 73}, {"time": 1962, "pitch": 43, "duration": 8, "velocity": 67}, {"time": 1962, "pitch": 69, "duration": 5, "velocity": 69}, {"time": 1965, "pitch": 62, "duration": 5, "velocity": 48}, {"time": 1968, "pitch": 67, "duration": 2, "velocity": 56}, {"time": 1971, "pitch": 31, "duration": 7, "velocity": 70}, {"time": 1971, "pitch": 43, "duration": 8, "velocity": 63}, {"time": 1971, "pitch": 62, "duration": 7, "velocity": 45}, {"time": 1971, "pitch": 74, "duration": 7, "velocity": 60}, {"time": 1977, "pitch": 67, "duration": 3, "velocity": 60}, {"time": 1980, "pitch": 31, "duration": 8, "velocity": 66}, {"time": 1980, "pitch": 43, "duration": 5, "velocity": 63}, {"time": 1980, "pitch": 69, "duration": 4, "velocity": 61}, {"time": 1983, "pitch": 62, "duration": 3, "velocity": 55}, {"time": 1986, "pitch": 43, "duration": 3, "velocity": 78}, {"time": 1986, "pitch": 67, "duration": 4, "velocity": 66}, {"time": 1989, "pitch": 69, "duration": 4, "velocity": 64}, {"time": 1992, "pitch": 33, "duration": 8, "velocity": 69}, {"time": 1992, "pitch": 45, "duration": 8, "velocity": 76}, {"time": 1992, "pitch": 72, "duration": 4, "velocity": 64}, {"time": 1995, "pitch": 64, "duration": 5, "velocity": 49}, {"time": 1998, "pitch": 67, "duration": 4, "velocity": 59}, {"time": 2001, "pitch": 33, "duration": 7, "velocity": 72}, {"time": 2001, "pitch": 45, "duration": 7, "velocity": 70}, {"time": 2001, "pitch": 69, "duration": 3, "velocity": 36}, {"time": 2001, "pitch": 72, "duration": 2, "velocity": 48}, {"time": 2004, "pitch": 64, "duration": 4, "velocity": 53}, {"time": 2007, "pitch": 67, "duration": 4, "velocity": 58}, {"time": 2010, "pitch": 33, "duration": 8, "velocity": 70}, {"time": 2010, "pitch": 45, "duration": 9, "velocity": 66}, {"time": 2010, "pitch": 69, "duration": 3, "velocity": 60}, {"time": 2013, "pitch": 64, "duration": 4, "velocity": 48}, {"time": 2016, "pitch": 67, "duration": 4, "velocity": 57}, {"time": 2019, "pitch": 33, "duration": 8, "velocity": 69}, {"time": 2019, "pitch": 45, "duration": 8, "velocity": 67}, {"time": 2019, "pitch": 72, "duration": 5, "velocity": 75}, {"time": 2022, "pitch": 64, "duration": 4, "velocity": 48}, {"time": 2025, "pitch": 67, "duration": 5, "velocity": 58}, {"time": 2028, "pitch": 33, "duration": 5, "velocity": 70}, {"time": 2028, "pitch": 45, "duration": 5, "velocity": 64}, {"time": 2028, "pitch": 72, "duration": 5, "velocity": 76}, {"time": 2031, "pitch": 64, "duration": 3, "velocity": 60}, {"time": 2034, "pitch": 33, "duration": 3, "velocity": 73}, {"time": 2034, "pitch": 67, "duration": 4, "velocity": 59}, {"time": 2037, "pitch": 69, "duration": 8, "velocity": 64}, {"time": 2040, "pitch": 29, "duration": 7, "velocity": 66}, {"time": 2040, "pitch": 41, "duration": 8, "velocity": 91}, {"time": 2043, "pitch": 60, "duration": 4, "velocity": 48}, {"time": 2046, "pitch": 65, "duration": 4, "velocity": 60}, {"time": 2049, "pitch": 29, "duration": 7, "velocity": 67}, {"time": 2049, "pitch": 41, "duration": 8, "velocity": 72}, {"time": 2049, "pitch": 67, "duration": 4, "velocity": 60}, {"time": 2052, "pitch": 60, "duration": 4, "velocity": 50}, {"time": 2055, "pitch": 65, "duration": 3, "velocity": 62}, {"time": 2058, "pitch": 29, "duration": 8, "velocity": 67}, {"time": 2058, "pitch": 41, "duration": 8, "velocity": 67}, {"time": 2058, "pitch": 69, "duration": 4, "velocity": 57}, {"time": 2061, "pitch": 60, "duration": 4, "velocity": 52}, {"time": 2064, "pitch": 65, "duration": 2, "velocity": 67}, {"time": 2067, "pitch": 29, "duration": 8, "velocity": 73}, {"time": 2067, "pitch": 41, "duration": 8, "velocity": 67}, {"time": 2067, "pitch": 67, "duration": 3, "velocity": 67}, {"time": 2070, "pitch": 60, "duration": 4, "velocity": 53}, {"time": 2073, "pitch": 65, "duration": 3, "velocity": 62}, {"time": 2076, "pitch": 29, "duration": 7, "velocity": 69}, {"time": 2076, "pitch": 41, "duration": 5, "velocity": 67}, {"time": 2076, "pitch": 69, "duration": 4, "velocity": 64}, {"time": 2079, "pitch": 60, "duration": 3, "velocity": 55}, {"time": 2082, "pitch": 41, "duration": 3, "velocity": 78}, {"time": 2082, "pitch": 65, "duration": 4, "velocity": 67}, {"time": 2085, "pitch": 67, "duration": 3, "velocity": 64}, {"time": 2088, "pitch": 36, "duration": 8, "velocity": 75}, {"time": 2088, "pitch": 72, "duration": 5, "velocity": 64}, {"time": 2091, "pitch": 62, "duration": 5, "velocity": 53}, {"time": 2094, "pitch": 64, "duration": 2, "velocity": 63}, {"time": 2097, "pitch": 36, "duration": 8, "velocity": 72}, {"time": 2097, "pitch": 48, "duration": 9, "velocity": 88}, {"time": 2097, "pitch": 67, "duration": 5, "velocity": 61}, {"time": 2100, "pitch": 62, "duration": 5, "velocity": 51}, {"time": 2103, "pitch": 64, "duration": 3, "velocity": 64}, {"time": 2106, "pitch": 36, "duration": 7, "velocity": 72}, {"time": 2106, "pitch": 48, "duration": 8, "velocity": 72}, {"time": 2106, "pitch": 72, "duration": 6, "velocity": 69}, {"time": 2109, "pitch": 62, "duration": 3, "velocity": 53}, {"time": 2112, "pitch": 64, "duration": 3, "velocity": 55}, {"time": 2115, "pitch": 36, "duration": 7, "velocity": 73}, {"time": 2115, "pitch": 48, "duration": 8, "velocity": 73}, {"time": 2115, "pitch": 67, "duration": 2, "velocity": 62}, {"time": 2115, "pitch": 72, "duration": 6, "velocity": 57}, {"time": 2118, "pitch": 64, "duration": 4, "velocity": 52}, {"time": 2121, "pitch": 67, "duration": 4, "velocity": 59}, {"time": 2124, "pitch": 36, "duration": 5, "velocity": 72}, {"time": 2124, "pitch": 48, "duration": 5, "velocity": 69}, {"time": 2124, "pitch": 72, "duration": 4, "velocity": 67}, {"time": 2127, "pitch": 64, "duration": 4, "velocity": 56}, {"time": 2130, "pitch": 36, "duration": 3, "velocity": 76}, {"time": 2130, "pitch": 48, "duration": 1, "velocity": 62}, {"time": 2130, "pitch": 67, "duration": 3, "velocity": 61}, {"time": 2133, "pitch": 72, "duration": 7, "velocity": 69}, {"time": 2136, "pitch": 31, "duration": 8, "velocity": 58}, {"time": 2136, "pitch": 43, "duration": 8, "velocity": 66}, {"time": 2136, "pitch": 71, "duration": 4, "velocity": 63}, {"time": 2139, "pitch": 62, "duration": 5, "velocity": 51}, {"time": 2142, "pitch": 67, "duration": 2, "velocity": 57}, {"time": 2145, "pitch": 31, "duration": 8, "velocity": 76}, {"time": 2145, "pitch": 43, "duration": 8, "velocity": 72}, {"time": 2145, "pitch": 69, "duration": 4, "velocity": 61}, {"time": 2148, "pitch": 62, "duration": 4, "velocity": 44}, {"time": 2151, "pitch": 67, "duration": 3, "velocity": 62}, {"time": 2154, "pitch": 31, "duration": 8, "velocity": 75}, {"time": 2154, "pitch": 43, "duration": 8, "velocity": 72}, {"time": 2154, "pitch": 74, "duration": 6, "velocity": 64}, {"time": 2157, "pitch": 62, "duration": 4, "velocity": 44}, {"time": 2160, "pitch": 67, "duration": 2, "velocity": 57}, {"time": 2163, "pitch": 31, "duration": 8, "velocity": 72}, {"time": 2163, "pitch": 43, "duration": 8, "velocity": 66}, {"time": 2163, "pitch": 69, "duration": 4, "velocity": 61}, {"time": 2166, "pitch": 62, "duration": 5, "velocity": 47}, {"time": 2169, "pitch": 67, "duration": 4, "velocity": 60}, {"time": 2172, "pitch": 31, "duration": 9, "velocity": 67}, {"time": 2172, "pitch": 43, "duration": 5, "velocity": 60}, {"time": 2172, "pitch": 71, "duration": 4, "velocity": 59}, {"time": 2175, "pitch": 72, "duration": 4, "velocity": 62}, {"time": 2178, "pitch": 43, "duration": 3, "velocity": 78}, {"time": 2178, "pitch": 71, "duration": 3, "velocity": 66}, {"time": 2181, "pitch": 67, "duration": 3, "velocity": 61}, {"time": 2184, "pitch": 33, "duration": 8, "velocity": 72}, {"time": 2184, "pitch": 45, "duration": 8, "velocity": 80}, {"time": 2184, "pitch": 69, "duration": 3, "velocity": 60}, {"time": 2187, "pitch": 60, "duration": 5, "velocity": 41}, {"time": 2190, "pitch": 64, "duration": 3, "velocity": 52}, {"time": 2193, "pitch": 33, "duration": 7, "velocity": 73}, {"time": 2193, "pitch": 45, "duration": 7, "velocity": 70}, {"time": 2193, "pitch": 69, "duration": 6, "velocity": 72}, {"time": 2196, "pitch": 60, "duration": 4, "velocity": 44}, {"time": 2199, "pitch": 64, "duration": 3, "velocity": 61}, {"time": 2202, "pitch": 33, "duration": 8, "velocity": 69}, {"time": 2202, "pitch": 45, "duration": 8, "velocity": 63}, {"time": 2202, "pitch": 67, "duration": 3, "velocity": 57}, {"time": 2205, "pitch": 60, "duration": 2, "velocity": 45}, {"time": 2208, "pitch": 64, "duration": 2, "velocity": 60}, {"time": 2211, "pitch": 33, "duration": 8, "velocity": 73}, {"time": 2211, "pitch": 45, "duration": 8, "velocity": 75}, {"time": 2211, "pitch": 69, "duration": 4, "velocity": 64}, {"time": 2214, "pitch": 60, "duration": 3, "velocity": 52}, {"time": 2217, "pitch": 64, "duration": 3, "velocity": 59}, {"time": 2220, "pitch": 33, "duration": 4, "velocity": 73}, {"time": 2220, "pitch": 45, "duration": 4, "velocity": 69}, {"time": 2220, "pitch": 67, "duration": 4, "velocity": 75}, {"time": 2223, "pitch": 60, "duration": 2, "velocity": 50}, {"time": 2226, "pitch": 33, "duration": 4, "velocity": 76}, {"time": 2226, "pitch": 45, "duration": 2, "velocity": 67}, {"time": 2226, "pitch": 64, "duration": 4, "velocity": 61}, {"time": 2229, "pitch": 67, "duration": 3, "velocity": 64}, {"time": 2232, "pitch": 29, "duration": 8, "velocity": 75}, {"time": 2232, "pitch": 41, "duration": 8, "velocity": 91}, {"time": 2232, "pitch": 69, "duration": 4, "velocity": 53}, {"time": 2235, "pitch": 60, "duration": 3, "velocity": 49}, {"time": 2238, "pitch": 65, "duration": 3, "velocity": 54}, {"time": 2241, "pitch": 29, "duration": 7, "velocity": 69}, {"time": 2241, "pitch": 41, "duration": 7, "velocity": 73}, {"time": 2241, "pitch": 67, "duration": 4, "velocity": 63}, {"time": 2244, "pitch": 60, "duration": 3, "velocity": 49}, {"time": 2247, "pitch": 65, "duration": 3, "velocity": 61}, {"time": 2250, "pitch": 29, "duration": 8, "velocity": 73}, {"time": 2250, "pitch": 41, "duration": 8, "velocity": 73}, {"time": 2250, "pitch": 69, "duration": 5, "velocity": 64}, {"time": 2253, "pitch": 60, "duration": 4, "velocity": 59}, {"time": 2256, "pitch": 65, "duration": 3, "velocity": 54}, {"time": 2259, "pitch": 29, "duration": 8, "velocity": 72}, {"time": 2259, "pitch": 41, "duration": 8, "velocity": 69}, {"time": 2259, "pitch": 69, "duration": 5, "velocity": 67}, {"time": 2262, "pitch": 60, "duration": 3, "velocity": 51}, {"time": 2265, "pitch": 65, "duration": 4, "velocity": 50}, {"time": 2268, "pitch": 29, "duration": 6, "velocity": 75}, {"time": 2268, "pitch": 41, "duration": 4, "velocity": 73}, {"time": 2268, "pitch": 69, "duration": 4, "velocity": 64}, {"time": 2271, "pitch": 60, "duration": 4, "velocity": 53}, {"time": 2274, "pitch": 41, "duration": 2, "velocity": 75}, {"time": 2274, "pitch": 65, "duration": 4, "velocity": 58}, {"time": 2277, "pitch": 69, "duration": 3, "velocity": 69}, {"time": 2280, "pitch": 36, "duration": 22, "velocity": 60}, {"time": 2280, "pitch": 48, "duration": 22, "velocity": 60}, {"time": 2280, "pitch": 60, "duration": 20, "velocity": 82}, {"time": 2280, "pitch": 64, "duration": 22, "velocity": 78}, {"time": 2280, "pitch": 67, "duration": 22, "velocity": 70}, {"time": 2283, "pitch": 62, "duration": 19, "velocity": 38}, {"time": 2316, "pitch": 69, "duration": 3, "velocity": 84}, {"time": 2316, "pitch": 76, "duration": 3, "velocity": 86}, {"time": 2316, "pitch": 64, "duration": 4, "velocity": 84}, {"time": 2316, "pitch": 72, "duration": 3, "velocity": 82}, {"time": 2316, "pitch": 36, "duration": 4, "velocity": 90}, {"time": 2316, "pitch": 48, "duration": 4, "velocity": 90}, {"time": 2322, "pitch": 74, "duration": 6, "velocity": 87}, {"time": 2322, "pitch": 35, "duration": 6, "velocity": 90}, {"time": 2322, "pitch": 47, "duration": 6, "velocity": 92}, {"time": 2322, "pitch": 62, "duration": 5, "velocity": 83}, {"time": 2322, "pitch": 67, "duration": 6, "velocity": 79}, {"time": 2322, "pitch": 71, "duration": 6, "velocity": 79}, {"time": 2328, "pitch": 33, "duration": 22, "velocity": 64}, {"time": 2328, "pitch": 45, "duration": 9, "velocity": 62}, {"time": 2328, "pitch": 64, "duration": 4, "velocity": 66}, {"time": 2328, "pitch": 69, "duration": 4, "velocity": 66}, {"time": 2328, "pitch": 72, "duration": 5, "velocity": 72}, {"time": 2334, "pitch": 69, "duration": 4, "velocity": 60}, {"time": 2337, "pitch": 64, "duration": 2, "velocity": 55}, {"time": 2337, "pitch": 71, "duration": 4, "velocity": 67}, {"time": 2340, "pitch": 45, "duration": 9, "velocity": 56}, {"time": 2340, "pitch": 64, "duration": 5, "velocity": 69}, {"time": 2340, "pitch": 72, "duration": 5, "velocity": 72}, {"time": 2346, "pitch": 69, "duration": 5, "velocity": 66}, {"time": 2349, "pitch": 71, "duration": 3, "velocity": 70}, {"time": 2352, "pitch": 33, "duration": 19, "velocity": 73}, {"time": 2352, "pitch": 64, "duration": 6, "velocity": 64}, {"time": 2352, "pitch": 69, "duration": 6, "velocity": 62}, {"time": 2352, "pitch": 72, "duration": 6, "velocity": 69}, {"time": 2355, "pitch": 45, "duration": 7, "velocity": 57}, {"time": 2358, "pitch": 64, "duration": 3, "velocity": 63}, {"time": 2361, "pitch": 64, "duration": 4, "velocity": 57}, {"time": 2361, "pitch": 69, "duration": 5, "velocity": 69}, {"time": 2364, "pitch": 45, "duration": 3, "velocity": 62}, {"time": 2367, "pitch": 64, "duration": 3, "velocity": 66}, {"time": 2367, "pitch": 72, "duration": 8, "velocity": 76}, {"time": 2370, "pitch": 45, "duration": 2, "velocity": 60}, {"time": 2376, "pitch": 31, "duration": 5, "velocity": 70}, {"time": 2376, "pitch": 43, "duration": 4, "velocity": 75}, {"time": 2376, "pitch": 62, "duration": 4, "velocity": 64}, {"time": 2376, "pitch": 67, "duration": 3, "velocity": 60}, {"time": 2376, "pitch": 71, "duration": 5, "velocity": 72}, {"time": 2382, "pitch": 43, "duration": 2, "velocity": 61}, {"time": 2382, "pitch": 62, "duration": 2, "velocity": 48}, {"time": 2382, "pitch": 67, "duration": 3, "velocity": 53}, {"time": 2385, "pitch": 45, "duration": 2, "velocity": 66}, {"time": 2385, "pitch": 62, "duration": 2, "velocity": 41}, {"time": 2385, "pitch": 69, "duration": 3, "velocity": 58}, {"time": 2388, "pitch": 47, "duration": 3, "velocity": 72}, {"time": 2388, "pitch": 62, "duration": 5, "velocity": 63}, {"time": 2388, "pitch": 71, "duration": 5, "velocity": 75}, {"time": 2394, "pitch": 31, "duration": 2, "velocity": 63}, {"time": 2394, "pitch": 43, "duration": 2, "velocity": 66}, {"time": 2394, "pitch": 62, "duration": 3, "velocity": 48}, {"time": 2394, "pitch": 67, "duration": 3, "velocity": 56}, {"time": 2397, "pitch": 33, "duration": 2, "velocity": 64}, {"time": 2397, "pitch": 45, "duration": 1, "velocity": 59}, {"time": 2397, "pitch": 69, "duration": 3, "velocity": 63}, {"time": 2400, "pitch": 31, "duration": 18, "velocity": 76}, {"time": 2400, "pitch": 43, "duration": 5, "velocity": 73}, {"time": 2400, "pitch": 62, "duration": 10, "velocity": 64}, {"time": 2400, "pitch": 67, "duration": 7, "velocity": 60}, {"time": 2400, "pitch": 71, "duration": 6, "velocity": 67}, {"time": 2409, "pitch": 43, "duration": 4, "velocity": 58}, {"time": 2412, "pitch": 62, "duration": 4, "velocity": 72}, {"time": 2412, "pitch": 67, "duration": 4, "velocity": 76}, {"time": 2412, "pitch": 71, "duration": 4, "velocity": 78}, {"time": 2415, "pitch": 43, "duration": 3, "velocity": 67}, {"time": 2418, "pitch": 62, "duration": 3, "velocity": 49}, {"time": 2421, "pitch": 67, "duration": 3, "velocity": 53}, {"time": 2424, "pitch": 29, "duration": 43, "velocity": 66}, {"time": 2424, "pitch": 41, "duration": 6, "velocity": 72}, {"time": 2424, "pitch": 60, "duration": 8, "velocity": 64}, {"time": 2424, "pitch": 65, "duration": 8, "velocity": 72}, {"time": 2424, "pitch": 69, "duration": 9, "velocity": 67}, {"time": 2430, "pitch": 67, "duration": 2, "velocity": 33}, {"time": 2433, "pitch": 41, "duration": 5, "velocity": 49}, {"time": 2436, "pitch": 60, "duration": 7, "velocity": 63}, {"time": 2436, "pitch": 65, "duration": 6, "velocity": 67}, {"time": 2436, "pitch": 67, "duration": 6, "velocity": 67}, {"time": 2436, "pitch": 69, "duration": 6, "velocity": 66}, {"time": 2442, "pitch": 41, "duration": 11, "velocity": 52}, {"time": 2448, "pitch": 60, "duration": 7, "velocity": 58}, {"time": 2448, "pitch": 65, "duration": 6, "velocity": 67}, {"time": 2448, "pitch": 67, "duration": 8, "velocity": 67}, {"time": 2448, "pitch": 69, "duration": 6, "velocity": 63}, {"time": 2457, "pitch": 41, "duration": 6, "velocity": 42}, {"time": 2460, "pitch": 60, "duration": 6, "velocity": 70}, {"time": 2460, "pitch": 65, "duration": 6, "velocity": 69}, {"time": 2460, "pitch": 67, "duration": 6, "velocity": 69}, {"time": 2460, "pitch": 69, "duration": 7, "velocity": 72}, {"time": 2466, "pitch": 41, "duration": 6, "velocity": 69}, {"time": 2472, "pitch": 36, "duration": 12, "velocity": 75}, {"time": 2472, "pitch": 62, "duration": 6, "velocity": 60}, {"time": 2472, "pitch": 64, "duration": 6, "velocity": 67}, {"time": 2472, "pitch": 67, "duration": 6, "velocity": 63}, {"time": 2472, "pitch": 72, "duration": 9, "velocity": 62}, {"time": 2478, "pitch": 43, "duration": 6, "velocity": 58}, {"time": 2484, "pitch": 35, "duration": 7, "velocity": 75}, {"time": 2484, "pitch": 47, "duration": 5, "velocity": 65}, {"time": 2484, "pitch": 64, "duration": 5, "velocity": 69}, {"time": 2484, "pitch": 67, "duration": 5, "velocity": 74}, {"time": 2484, "pitch": 71, "duration": 5, "velocity": 75}, {"time": 2490, "pitch": 31, "duration": 20, "velocity": 69}, {"time": 2490, "pitch": 43, "duration": 4, "velocity": 67}, {"time": 2490, "pitch": 62, "duration": 6, "velocity": 60}, {"time": 2490, "pitch": 67, "duration": 6, "velocity": 67}, {"time": 2490, "pitch": 71, "duration": 6, "velocity": 57}, {"time": 2502, "pitch": 47, "duration": 7, "velocity": 58}, {"time": 2508, "pitch": 62, "duration": 6, "velocity": 70}, {"time": 2508, "pitch": 67, "duration": 6, "velocity": 73}, {"time": 2508, "pitch": 71, "duration": 4, "velocity": 64}, {"time": 2514, "pitch": 47, "duration": 2, "velocity": 61}, {"time": 2520, "pitch": 33, "duration": 20, "velocity": 69}, {"time": 2520, "pitch": 45, "duration": 9, "velocity": 69}, {"time": 2520, "pitch": 60, "duration": 4, "velocity": 67}, {"time": 2520, "pitch": 64, "duration": 4, "velocity": 64}, {"time": 2520, "pitch": 69, "duration": 5, "velocity": 72}, {"time": 2526, "pitch": 60, "duration": 4, "velocity": 58}, {"time": 2526, "pitch": 69, "duration": 2, "velocity": 27}, {"time": 2529, "pitch": 62, "duration": 2, "velocity": 45}, {"time": 2532, "pitch": 45, "duration": 4, "velocity": 56}, {"time": 2532, "pitch": 60, "duration": 5, "velocity": 61}, {"time": 2532, "pitch": 64, "duration": 5, "velocity": 70}, {"time": 2535, "pitch": 69, "duration": 3, "velocity": 17}, {"time": 2538, "pitch": 45, "duration": 6, "velocity": 55}, {"time": 2541, "pitch": 60, "duration": 3, "velocity": 51}, {"time": 2544, "pitch": 33, "duration": 21, "velocity": 63}, {"time": 2544, "pitch": 60, "duration": 7, "velocity": 66}, {"time": 2544, "pitch": 64, "duration": 6, "velocity": 66}, {"time": 2544, "pitch": 69, "duration": 7, "velocity": 63}, {"time": 2550, "pitch": 45, "duration": 10, "velocity": 53}, {"time": 2553, "pitch": 60, "duration": 2, "velocity": 70}, {"time": 2553, "pitch": 64, "duration": 3, "velocity": 75}, {"time": 2559, "pitch": 59, "duration": 3, "velocity": 66}, {"time": 2559, "pitch": 62, "duration": 3, "velocity": 70}, {"time": 2562, "pitch": 57, "duration": 2, "velocity": 67}, {"time": 2568, "pitch": 31, "duration": 7, "velocity": 75}, {"time": 2568, "pitch": 43, "duration": 7, "velocity": 75}, {"time": 2568, "pitch": 55, "duration": 4, "velocity": 70}, {"time": 2568, "pitch": 59, "duration": 5, "velocity": 63}, {"time": 2568, "pitch": 62, "duration": 5, "velocity": 64}, {"time": 2571, "pitch": 67, "duration": 3, "velocity": 19}, {"time": 2574, "pitch": 55, "duration": 4, "velocity": 75}, {"time": 2577, "pitch": 43, "duration": 2, "velocity": 73}, {"time": 2580, "pitch": 47, "duration": 3, "velocity": 70}, {"time": 2586, "pitch": 43, "duration": 3, "velocity": 70}, {"time": 2586, "pitch": 59, "duration": 3, "velocity": 51}, {"time": 2589, "pitch": 45, "duration": 3, "velocity": 67}, {"time": 2589, "pitch": 62, "duration": 3, "velocity": 52}, {"time": 2592, "pitch": 31, "duration": 20, "velocity": 69}, {"time": 2592, "pitch": 43, "duration": 20, "velocity": 69}, {"time": 2592, "pitch": 59, "duration": 8, "velocity": 63}, {"time": 2592, "pitch": 62, "duration": 8, "velocity": 44}, {"time": 2592, "pitch": 67, "duration": 7, "velocity": 69}, {"time": 2598, "pitch": 50, "duration": 14, "velocity": 54}, {"time": 2601, "pitch": 55, "duration": 6, "velocity": 64}, {"time": 2604, "pitch": 59, "duration": 2, "velocity": 69}, {"time": 2607, "pitch": 62, "duration": 4, "velocity": 69}, {"time": 2610, "pitch": 55, "duration": 2, "velocity": 64}, {"time": 2610, "pitch": 67, "duration": 2, "velocity": 72}, {"time": 2616, "pitch": 34, "duration": 20, "velocity": 78}, {"time": 2616, "pitch": 46, "duration": 20, "velocity": 78}, {"time": 2616, "pitch": 62, "duration": 5, "velocity": 67}, {"time": 2616, "pitch": 65, "duration": 5, "velocity": 70}, {"time": 2616, "pitch": 70, "duration": 5, "velocity": 72}, {"time": 2619, "pitch": 53, "duration": 19, "velocity": 62}, {"time": 2622, "pitch": 60, "duration": 2, "velocity": 52}, {"time": 2622, "pitch": 69, "duration": 2, "velocity": 66}, {"time": 2625, "pitch": 58, "duration": 2, "velocity": 60}, {"time": 2625, "pitch": 62, "duration": 4, "velocity": 58}, {"time": 2625, "pitch": 65, "duration": 2, "velocity": 70}, {"time": 2625, "pitch": 70, "duration": 5, "velocity": 91}, {"time": 2628, "pitch": 58, "duration": 4, "velocity": 69}, {"time": 2631, "pitch": 60, "duration": 2, "velocity": 57}, {"time": 2631, "pitch": 65, "duration": 1, "velocity": 44}, {"time": 2631, "pitch": 69, "duration": 2, "velocity": 72}, {"time": 2637, "pitch": 60, "duration": 10, "velocity": 67}, {"time": 2637, "pitch": 65, "duration": 10, "velocity": 69}, {"time": 2640, "pitch": 34, "duration": 18, "velocity": 76}, {"time": 2640, "pitch": 46, "duration": 18, "velocity": 76}, {"time": 2643, "pitch": 53, "duration": 14, "velocity": 67}, {"time": 2646, "pitch": 58, "duration": 7, "velocity": 73}, {"time": 2649, "pitch": 60, "duration": 3, "velocity": 66}, {"time": 2652, "pitch": 60, "duration": 2, "velocity": 59}, {"time": 2652, "pitch": 65, "duration": 6, "velocity": 67}, {"time": 2655, "pitch": 58, "duration": 2, "velocity": 80}, {"time": 2658, "pitch": 60, "duration": 3, "velocity": 59}, {"time": 2661, "pitch": 72, "duration": 7, "velocity": 73}, {"time": 2664, "pitch": 31, "duration": 22, "velocity": 73}, {"time": 2664, "pitch": 43, "duration": 22, "velocity": 73}, {"time": 2664, "pitch": 55, "duration": 6, "velocity": 78}, {"time": 2664, "pitch": 62, "duration": 5, "velocity": 78}, {"time": 2664, "pitch": 67, "duration": 5, "velocity": 78}, {"time": 2664, "pitch": 71, "duration": 5, "velocity": 62}, {"time": 2670, "pitch": 62, "duration": 4, "velocity": 60}, {"time": 2670, "pitch": 69, "duration": 5, "velocity": 62}, {"time": 2673, "pitch": 55, "duration": 5, "velocity": 60}, {"time": 2676, "pitch": 62, "duration": 3, "velocity": 70}, {"time": 2676, "pitch": 67, "duration": 1, "velocity": 61}, {"time": 2676, "pitch": 71, "duration": 5, "velocity": 70}, {"time": 2679, "pitch": 55, "duration": 3, "velocity": 70}, {"time": 2682, "pitch": 55, "duration": 4, "velocity": 63}, {"time": 2682, "pitch": 62, "duration": 2, "velocity": 69}, {"time": 2682, "pitch": 67, "duration": 2, "velocity": 64}, {"time": 2682, "pitch": 72, "duration": 2, "velocity": 69}, {"time": 2688, "pitch": 31, "duration": 19, "velocity": 73}, {"time": 2688, "pitch": 43, "duration": 19, "velocity": 73}, {"time": 2688, "pitch": 55, "duration": 2, "velocity": 58}, {"time": 2688, "pitch": 67, "duration": 5, "velocity": 75}, {"time": 2688, "pitch": 74, "duration": 4, "velocity": 80}, {"time": 2694, "pitch": 55, "duration": 4, "velocity": 54}, {"time": 2694, "pitch": 67, "duration": 5, "velocity": 75}, {"time": 2694, "pitch": 72, "duration": 5, "velocity": 76}, {"time": 2700, "pitch": 55, "duration": 4, "velocity": 63}, {"time": 2700, "pitch": 62, "duration": 4, "velocity": 82}, {"time": 2700, "pitch": 71, "duration": 7, "velocity": 69}, {"time": 2706, "pitch": 55, "duration": 2, "velocity": 91}, {"time": 2706, "pitch": 62, "duration": 2, "velocity": 57}, {"time": 2706, "pitch": 67, "duration": 2, "velocity": 72}, {"time": 2712, "pitch": 33, "duration": 5, "velocity": 75}, {"time": 2712, "pitch": 45, "duration": 5, "velocity": 75}, {"time": 2712, "pitch": 57, "duration": 5, "velocity": 70}, {"time": 2712, "pitch": 61, "duration": 5, "velocity": 80}, {"time": 2712, "pitch": 64, "duration": 6, "velocity": 78}, {"time": 2712, "pitch": 69, "duration": 5, "velocity": 70}, {"time": 2718, "pitch": 33, "duration": 5, "velocity": 53}, {"time": 2718, "pitch": 45, "duration": 5, "velocity": 53}, {"time": 2718, "pitch": 57, "duration": 5, "velocity": 58}, {"time": 2718, "pitch": 61, "duration": 5, "velocity": 73}, {"time": 2718, "pitch": 64, "duration": 5, "velocity": 69}, {"time": 2718, "pitch": 69, "duration": 4, "velocity": 69}, {"time": 2724, "pitch": 33, "duration": 4, "velocity": 62}, {"time": 2724, "pitch": 45, "duration": 4, "velocity": 62}, {"time": 2724, "pitch": 57, "duration": 4, "velocity": 61}, {"time": 2724, "pitch": 61, "duration": 4, "velocity": 69}, {"time": 2724, "pitch": 64, "duration": 4, "velocity": 64}, {"time": 2724, "pitch": 69, "duration": 4, "velocity": 75}, {"time": 2730, "pitch": 33, "duration": 5, "velocity": 66}, {"time": 2730, "pitch": 45, "duration": 5, "velocity": 66}, {"time": 2730, "pitch": 57, "duration": 5, "velocity": 61}, {"time": 2730, "pitch": 61, "duration": 5, "velocity": 63}, {"time": 2730, "pitch": 64, "duration": 5, "velocity": 63}, {"time": 2730, "pitch": 69, "duration": 4, "velocity": 67}, {"time": 2736, "pitch": 33, "duration": 17, "velocity": 72}, {"time": 2736, "pitch": 45, "duration": 17, "velocity": 72}, {"time": 2736, "pitch": 57, "duration": 16, "velocity": 78}, {"time": 2736, "pitch": 61, "duration": 16, "velocity": 73}, {"time": 2736, "pitch": 64, "duration": 16, "velocity": 73}, {"time": 2736, "pitch": 69, "duration": 16, "velocity": 76}, {"time": 2748, "pitch": 33, "duration": 5, "velocity": 75}, {"time": 2748, "pitch": 45, "duration": 5, "velocity": 75}, {"time": 2748, "pitch": 57, "duration": 4, "velocity": 72}, {"time": 2748, "pitch": 61, "duration": 4, "velocity": 70}, {"time": 2751, "pitch": 59, "duration": 5, "velocity": 66}, {"time": 2751, "pitch": 62, "duration": 4, "velocity": 36}, {"time": 2754, "pitch": 57, "duration": 1, "velocity": 46}, {"time": 2754, "pitch": 64, "duration": 2, "velocity": 78}, {"time": 2760, "pitch": 38, "duration": 20, "velocity": 80}, {"time": 2760, "pitch": 50, "duration": 20, "velocity": 80}, {"time": 2760, "pitch": 62, "duration": 4, "velocity": 78}, {"time": 2760, "pitch": 66, "duration": 4, "velocity": 82}, {"time": 2760, "pitch": 69, "duration": 4, "velocity": 78}, {"time": 2763, "pitch": 57, "duration": 7, "velocity": 63}, {"time": 2766, "pitch": 62, "duration": 2, "velocity": 51}, {"time": 2769, "pitch": 62, "duration": 7, "velocity": 70}, {"time": 2769, "pitch": 66, "duration": 7, "velocity": 78}, {"time": 2769, "pitch": 69, "duration": 6, "velocity": 75}, {"time": 2775, "pitch": 57, "duration": 7, "velocity": 69}, {"time": 2778, "pitch": 62, "duration": 2, "velocity": 47}, {"time": 2781, "pitch": 62, "duration": 7, "velocity": 66}, {"time": 2781, "pitch": 66, "duration": 8, "velocity": 80}, {"time": 2781, "pitch": 69, "duration": 7, "velocity": 75}, {"time": 2784, "pitch": 38, "duration": 17, "velocity": 69}, {"time": 2784, "pitch": 50, "duration": 17, "velocity": 69}, {"time": 2787, "pitch": 57, "duration": 7, "velocity": 57}, {"time": 2790, "pitch": 62, "duration": 2, "velocity": 60}, {"time": 2793, "pitch": 62, "duration": 5, "velocity": 75}, {"time": 2793, "pitch": 66, "duration": 7, "velocity": 76}, {"time": 2793, "pitch": 69, "duration": 5, "velocity": 76}, {"time": 2796, "pitch": 57, "duration": 4, "velocity": 64}, {"time": 2799, "pitch": 62, "duration": 5, "velocity": 73}, {"time": 2802, "pitch": 66, "duration": 5, "velocity": 62}, {"time": 2805, "pitch": 69, "duration": 2, "velocity": 64}, {"time": 2808, "pitch": 33, "duration": 20, "velocity": 70}, {"time": 2808, "pitch": 45, "duration": 20, "velocity": 70}, {"time": 2808, "pitch": 61, "duration": 6, "velocity": 82}, {"time": 2808, "pitch": 64, "duration": 6, "velocity": 80}, {"time": 2808, "pitch": 69, "duration": 7, "velocity": 45}, {"time": 2811, "pitch": 52, "duration": 19, "velocity": 66}, {"time": 2814, "pitch": 57, "duration": 4, "velocity": 51}, {"time": 2817, "pitch": 61, "duration": 7, "velocity": 73}, {"time": 2817, "pitch": 64, "duration": 3, "velocity": 78}, {"time": 2817, "pitch": 69, "duration": 7, "velocity": 64}, {"time": 2823, "pitch": 57, "duration": 6, "velocity": 63}, {"time": 2826, "pitch": 61, "duration": 2, "velocity": 67}, {"time": 2826, "pitch": 67, "duration": 3, "velocity": 62}, {"time": 2829, "pitch": 61, "duration": 7, "velocity": 66}, {"time": 2829, "pitch": 64, "duration": 7, "velocity": 76}, {"time": 2829, "pitch": 69, "duration": 7, "velocity": 70}, {"time": 2832, "pitch": 33, "duration": 14, "velocity": 70}, {"time": 2832, "pitch": 45, "duration": 14, "velocity": 70}, {"time": 2835, "pitch": 57, "duration": 7, "velocity": 75}, {"time": 2838, "pitch": 61, "duration": 3, "velocity": 60}, {"time": 2841, "pitch": 61, "duration": 5, "velocity": 76}, {"time": 2841, "pitch": 64, "duration": 5, "velocity": 80}, {"time": 2841, "pitch": 69, "duration": 5, "velocity": 82}, {"time": 2844, "pitch": 57, "duration": 3, "velocity": 58}, {"time": 2847, "pitch": 61, "duration": 3, "velocity": 62}, {"time": 2847, "pitch": 69, "duration": 1, "velocity": 37}, {"time": 2850, "pitch": 34, "duration": 3, "velocity": 91}, {"time": 2850, "pitch": 46, "duration": 3, "velocity": 91}, {"time": 2850, "pitch": 69, "duration": 2, "velocity": 62}, {"time": 2853, "pitch": 66, "duration": 2, "velocity": 57}, {"time": 2856, "pitch": 35, "duration": 22, "velocity": 80}, {"time": 2856, "pitch": 47, "duration": 22, "velocity": 80}, {"time": 2856, "pitch": 62, "duration": 4, "velocity": 69}, {"time": 2856, "pitch": 66, "duration": 4, "velocity": 76}, {"time": 2856, "pitch": 69, "duration": 5, "velocity": 70}, {"time": 2859, "pitch": 59, "duration": 7, "velocity": 62}, {"time": 2862, "pitch": 62, "duration": 2, "velocity": 58}, {"time": 2865, "pitch": 62, "duration": 4, "velocity": 70}, {"time": 2865, "pitch": 66, "duration": 5, "velocity": 75}, {"time": 2865, "pitch": 69, "duration": 5, "velocity": 78}, {"time": 2868, "pitch": 59, "duration": 10, "velocity": 60}, {"time": 2871, "pitch": 62, "duration": 2, "velocity": 64}, {"time": 2871, "pitch": 67, "duration": 2, "velocity": 54}, {"time": 2877, "pitch": 62, "duration": 7, "velocity": 78}, {"time": 2877, "pitch": 66, "duration": 5, "velocity": 51}, {"time": 2877, "pitch": 69, "duration": 7, "velocity": 78}, {"time": 2880, "pitch": 35, "duration": 19, "velocity": 70}, {"time": 2880, "pitch": 47, "duration": 19, "velocity": 70}, {"time": 2883, "pitch": 59, "duration": 7, "velocity": 75}, {"time": 2886, "pitch": 62, "duration": 2, "velocity": 57}, {"time": 2889, "pitch": 62, "duration": 7, "velocity": 75}, {"time": 2889, "pitch": 66, "duration": 7, "velocity": 67}, {"time": 2889, "pitch": 69, "duration": 5, "velocity": 76}, {"time": 2895, "pitch": 59, "duration": 4, "velocity": 61}, {"time": 2898, "pitch": 62, "duration": 4, "velocity": 76}, {"time": 2898, "pitch": 66, "duration": 2, "velocity": 67}, {"time": 2898, "pitch": 69, "duration": 4, "velocity": 70}, {"time": 2901, "pitch": 66, "duration": 2, "velocity": 73}, {"time": 2904, "pitch": 31, "duration": 22, "velocity": 76}, {"time": 2904, "pitch": 43, "duration": 22, "velocity": 76}, {"time": 2904, "pitch": 55, "duration": 3, "velocity": 75}, {"time": 2904, "pitch": 59, "duration": 4, "velocity": 75}, {"time": 2904, "pitch": 62, "duration": 4, "velocity": 72}, {"time": 2904, "pitch": 67, "duration": 7, "velocity": 78}, {"time": 2910, "pitch": 55, "duration": 4, "velocity": 40}, {"time": 2913, "pitch": 57, "duration": 3, "velocity": 80}, {"time": 2913, "pitch": 66, "duration": 4, "velocity": 76}, {"time": 2916, "pitch": 55, "duration": 4, "velocity": 44}, {"time": 2919, "pitch": 59, "duration": 3, "velocity": 67}, {"time": 2919, "pitch": 62, "duration": 2, "velocity": 72}, {"time": 2919, "pitch": 67, "duration": 9, "velocity": 72}, {"time": 2925, "pitch": 55, "duration": 3, "velocity": 69}, {"time": 2928, "pitch": 31, "duration": 18, "velocity": 72}, {"time": 2928, "pitch": 43, "duration": 18, "velocity": 72}, {"time": 2931, "pitch": 55, "duration": 7, "velocity": 76}, {"time": 2934, "pitch": 57, "duration": 2, "velocity": 76}, {"time": 2934, "pitch": 66, "duration": 3, "velocity": 93}, {"time": 2937, "pitch": 62, "duration": 4, "velocity": 64}, {"time": 2937, "pitch": 67, "duration": 4, "velocity": 63}, {"time": 2940, "pitch": 55, "duration": 4, "velocity": 56}, {"time": 2943, "pitch": 59, "duration": 2, "velocity": 72}, {"time": 2943, "pitch": 66, "duration": 2, "velocity": 78}, {"time": 2946, "pitch": 55, "duration": 5, "velocity": 76}, {"time": 2949, "pitch": 62, "duration": 2, "velocity": 33}, {"time": 2952, "pitch": 38, "duration": 20, "velocity": 70}, {"time": 2952, "pitch": 50, "duration": 20, "velocity": 70}, {"time": 2952, "pitch": 62, "duration": 3, "velocity": 70}, {"time": 2952, "pitch": 66, "duration": 6, "velocity": 95}, {"time": 2955, "pitch": 57, "duration": 19, "velocity": 59}, {"time": 2958, "pitch": 62, "duration": 7, "velocity": 66}, {"time": 2961, "pitch": 64, "duration": 3, "velocity": 67}, {"time": 2964, "pitch": 66, "duration": 3, "velocity": 66}, {"time": 2967, "pitch": 66, "duration": 1, "velocity": 43}, {"time": 2967, "pitch": 74, "duration": 5, "velocity": 73}, {"time": 2970, "pitch": 62, "duration": 9, "velocity": 52}, {"time": 2973, "pitch": 69, "duration": 4, "velocity": 73}, {"time": 2976, "pitch": 38, "duration": 20, "velocity": 73}, {"time": 2976, "pitch": 50, "duration": 20, "velocity": 73}, {"time": 2979, "pitch": 57, "duration": 7, "velocity": 62}, {"time": 2982, "pitch": 62, "duration": 2, "velocity": 60}, {"time": 2982, "pitch": 66, "duration": 2, "velocity": 76}, {"time": 2985, "pitch": 64, "duration": 5, "velocity": 67}, {"time": 2985, "pitch": 67, "duration": 4, "velocity": 70}, {"time": 2988, "pitch": 57, "duration": 3, "velocity": 60}, {"time": 2991, "pitch": 62, "duration": 4, "velocity": 75}, {"time": 2991, "pitch": 66, "duration": 3, "velocity": 70}, {"time": 2991, "pitch": 69, "duration": 4, "velocity": 72}, {"time": 2994, "pitch": 57, "duration": 2, "velocity": 59}, {"time": 3000, "pitch": 33, "duration": 19, "velocity": 69}, {"time": 3000, "pitch": 45, "duration": 19, "velocity": 69}, {"time": 3000, "pitch": 61, "duration": 6, "velocity": 91}, {"time": 3000, "pitch": 64, "duration": 6, "velocity": 78}, {"time": 3000, "pitch": 69, "duration": 6, "velocity": 69}, {"time": 3006, "pitch": 57, "duration": 5, "velocity": 58}, {"time": 3009, "pitch": 59, "duration": 2, "velocity": 76}, {"time": 3009, "pitch": 61, "duration": 2, "velocity": 76}, {"time": 3012, "pitch": 57, "duration": 5, "velocity": 49}, {"time": 3015, "pitch": 62, "duration": 3, "velocity": 69}, {"time": 3018, "pitch": 52, "duration": 2, "velocity": 46}, {"time": 3021, "pitch": 61, "duration": 1, "velocity": 78}, {"time": 3021, "pitch": 64, "duration": 2, "velocity": 75}, {"time": 3024, "pitch": 33, "duration": 18, "velocity": 66}, {"time": 3024, "pitch": 45, "duration": 18, "velocity": 66}, {"time": 3027, "pitch": 52, "duration": 9, "velocity": 51}, {"time": 3030, "pitch": 57, "duration": 1, "velocity": 91}, {"time": 3030, "pitch": 69, "duration": 2, "velocity": 82}, {"time": 3033, "pitch": 59, "duration": 1, "velocity": 78}, {"time": 3033, "pitch": 71, "duration": 2, "velocity": 78}, {"time": 3036, "pitch": 55, "duration": 3, "velocity": 43}, {"time": 3036, "pitch": 57, "duration": 4, "velocity": 44}, {"time": 3039, "pitch": 61, "duration": 2, "velocity": 69}, {"time": 3039, "pitch": 73, "duration": 2, "velocity": 62}, {"time": 3042, "pitch": 52, "duration": 2, "velocity": 63}, {"time": 3048, "pitch": 35, "duration": 19, "velocity": 64}, {"time": 3048, "pitch": 47, "duration": 19, "velocity": 64}, {"time": 3048, "pitch": 59, "duration": 7, "velocity": 59}, {"time": 3048, "pitch": 62, "duration": 7, "velocity": 70}, {"time": 3048, "pitch": 66, "duration": 7, "velocity": 63}, {"time": 3057, "pitch": 54, "duration": 6, "velocity": 67}, {"time": 3060, "pitch": 59, "duration": 5, "velocity": 76}, {"time": 3060, "pitch": 62, "duration": 6, "velocity": 72}, {"time": 3060, "pitch": 66, "duration": 6, "velocity": 78}, {"time": 3066, "pitch": 54, "duration": 4, "velocity": 66}, {"time": 3069, "pitch": 35, "duration": 22, "velocity": 61}, {"time": 3069, "pitch": 47, "duration": 22, "velocity": 61}, {"time": 3069, "pitch": 57, "duration": 2, "velocity": 67}, {"time": 3069, "pitch": 62, "duration": 2, "velocity": 69}, {"time": 3069, "pitch": 66, "duration": 2, "velocity": 64}, {"time": 3072, "pitch": 59, "duration": 4, "velocity": 70}, {"time": 3072, "pitch": 66, "duration": 5, "velocity": 73}, {"time": 3078, "pitch": 57, "duration": 2, "velocity": 47}, {"time": 3078, "pitch": 64, "duration": 2, "velocity": 67}, {"time": 3081, "pitch": 57, "duration": 5, "velocity": 67}, {"time": 3081, "pitch": 64, "duration": 5, "velocity": 80}, {"time": 3084, "pitch": 54, "duration": 4, "velocity": 57}, {"time": 3087, "pitch": 57, "duration": 3, "velocity": 76}, {"time": 3087, "pitch": 62, "duration": 3, "velocity": 78}, {"time": 3090, "pitch": 54, "duration": 2, "velocity": 57}, {"time": 3093, "pitch": 62, "duration": 2, "velocity": 39}, {"time": 3096, "pitch": 31, "duration": 21, "velocity": 75}, {"time": 3096, "pitch": 43, "duration": 21, "velocity": 75}, {"time": 3096, "pitch": 55, "duration": 4, "velocity": 73}, {"time": 3096, "pitch": 59, "duration": 3, "velocity": 78}, {"time": 3096, "pitch": 62, "duration": 5, "velocity": 66}, {"time": 3096, "pitch": 67, "duration": 5, "velocity": 76}, {"time": 3102, "pitch": 57, "duration": 2, "velocity": 60}, {"time": 3102, "pitch": 66, "duration": 3, "velocity": 67}, {"time": 3105, "pitch": 59, "duration": 2, "velocity": 69}, {"time": 3105, "pitch": 62, "duration": 3, "velocity": 72}, {"time": 3105, "pitch": 67, "duration": 5, "velocity": 80}, {"time": 3108, "pitch": 55, "duration": 5, "velocity": 64}, {"time": 3111, "pitch": 57, "duration": 2, "velocity": 64}, {"time": 3111, "pitch": 66, "duration": 2, "velocity": 72}, {"time": 3117, "pitch": 57, "duration": 7, "velocity": 64}, {"time": 3117, "pitch": 62, "duration": 7, "velocity": 73}, {"time": 3120, "pitch": 31, "duration": 10, "velocity": 73}, {"time": 3120, "pitch": 43, "duration": 10, "velocity": 73}, {"time": 3123, "pitch": 55, "duration": 8, "velocity": 80}, {"time": 3126, "pitch": 57, "duration": 2, "velocity": 69}, {"time": 3129, "pitch": 62, "duration": 3, "velocity": 53}, {"time": 3132, "pitch": 45, "duration": 5, "velocity": 70}, {"time": 3132, "pitch": 66, "duration": 5, "velocity": 82}, {"time": 3138, "pitch": 45, "duration": 2, "velocity": 57}, {"time": 3138, "pitch": 57, "duration": 3, "velocity": 16}, {"time": 3138, "pitch": 61, "duration": 2, "velocity": 70}, {"time": 3144, "pitch": 26, "duration": 26, "velocity": 75}, {"time": 3144, "pitch": 38, "duration": 26, "velocity": 75}, {"time": 3144, "pitch": 50, "duration": 6, "velocity": 75}, {"time": 3144, "pitch": 57, "duration": 7, "velocity": 76}, {"time": 3144, "pitch": 62, "duration": 7, "velocity": 75}, {"time": 3144, "pitch": 66, "duration": 6, "velocity": 75}, {"time": 3153, "pitch": 50, "duration": 6, "velocity": 40}, {"time": 3156, "pitch": 57, "duration": 7, "velocity": 72}, {"time": 3156, "pitch": 62, "duration": 7, "velocity": 67}, {"time": 3156, "pitch": 66, "duration": 8, "velocity": 73}, {"time": 3162, "pitch": 50, "duration": 7, "velocity": 43}, {"time": 3168, "pitch": 28, "duration": 4, "velocity": 85}, {"time": 3168, "pitch": 40, "duration": 4, "velocity": 85}, {"time": 3168, "pitch": 59, "duration": 4, "velocity": 82}, {"time": 3168, "pitch": 64, "duration": 4, "velocity": 82}, {"time": 3172, "pitch": 30, "duration": 5, "velocity": 58}, {"time": 3172, "pitch": 42, "duration": 5, "velocity": 58}, {"time": 3172, "pitch": 61, "duration": 5, "velocity": 85}, {"time": 3172, "pitch": 66, "duration": 5, "velocity": 85}, {"time": 3177, "pitch": 31, "duration": 3, "velocity": 60}, {"time": 3177, "pitch": 43, "duration": 3, "velocity": 60}, {"time": 3177, "pitch": 62, "duration": 3, "velocity": 88}, {"time": 3177, "pitch": 67, "duration": 3, "velocity": 88}, {"time": 3181, "pitch": 33, "duration": 4, "velocity": 91}, {"time": 3181, "pitch": 45, "duration": 4, "velocity": 91}, {"time": 3181, "pitch": 64, "duration": 3, "velocity": 75}, {"time": 3181, "pitch": 69, "duration": 3, "velocity": 75}, {"time": 3185, "pitch": 35, "duration": 3, "velocity": 78}, {"time": 3185, "pitch": 47, "duration": 3, "velocity": 78}, {"time": 3185, "pitch": 66, "duration": 3, "velocity": 91}, {"time": 3185, "pitch": 71, "duration": 3, "velocity": 91}, {"time": 3188, "pitch": 37, "duration": 4, "velocity": 85}, {"time": 3188, "pitch": 49, "duration": 4, "velocity": 85}, {"time": 3188, "pitch": 68, "duration": 4, "velocity": 95}, {"time": 3188, "pitch": 73, "duration": 4, "velocity": 95}, {"time": 3192, "pitch": 38, "duration": 6, "velocity": 93}, {"time": 3192, "pitch": 50, "duration": 6, "velocity": 93}, {"time": 3192, "pitch": 69, "duration": 6, "velocity": 78}, {"time": 3192, "pitch": 74, "duration": 6, "velocity": 78}, {"time": 3228, "pitch": 38, "duration": 5, "velocity": 88}, {"time": 3228, "pitch": 50, "duration": 5, "velocity": 88}, {"time": 3228, "pitch": 62, "duration": 4, "velocity": 88}, {"time": 3233, "pitch": 37, "duration": 3, "velocity": 80}, {"time": 3233, "pitch": 49, "duration": 3, "velocity": 80}, {"time": 3233, "pitch": 61, "duration": 3, "velocity": 95}, {"time": 3236, "pitch": 35, "duration": 3, "velocity": 85}, {"time": 3236, "pitch": 47, "duration": 3, "velocity": 85}, {"time": 3236, "pitch": 59, "duration": 3, "velocity": 82}, {"time": 3240, "pitch": 33, "duration": 20, "velocity": 82}, {"time": 3240, "pitch": 45, "duration": 20, "velocity": 82}, {"time": 3240, "pitch": 57, "duration": 4, "velocity": 99}, {"time": 3240, "pitch": 61, "duration": 4, "velocity": 97}, {"time": 3246, "pitch": 52, "duration": 12, "velocity": 56}, {"time": 3249, "pitch": 57, "duration": 4, "velocity": 54}, {"time": 3252, "pitch": 59, "duration": 3, "velocity": 80}, {"time": 3252, "pitch": 61, "duration": 4, "velocity": 91}, {"time": 3252, "pitch": 64, "duration": 4, "velocity": 95}, {"time": 3252, "pitch": 69, "duration": 4, "velocity": 82}, {"time": 3255, "pitch": 57, "duration": 5, "velocity": 47}, {"time": 3258, "pitch": 52, "duration": 3, "velocity": 73}, {"time": 3258, "pitch": 59, "duration": 2, "velocity": 57}, {"time": 3261, "pitch": 33, "duration": 20, "velocity": 88}, {"time": 3261, "pitch": 45, "duration": 20, "velocity": 88}, {"time": 3261, "pitch": 59, "duration": 1, "velocity": 75}, {"time": 3261, "pitch": 61, "duration": 3, "velocity": 93}, {"time": 3261, "pitch": 64, "duration": 3, "velocity": 88}, {"time": 3261, "pitch": 69, "duration": 5, "velocity": 78}, {"time": 3264, "pitch": 52, "duration": 13, "velocity": 48}, {"time": 3267, "pitch": 59, "duration": 5, "velocity": 73}, {"time": 3267, "pitch": 64, "duration": 4, "velocity": 76}, {"time": 3267, "pitch": 69, "duration": 6, "velocity": 67}, {"time": 3270, "pitch": 61, "duration": 3, "velocity": 52}, {"time": 3273, "pitch": 57, "duration": 4, "velocity": 91}, {"time": 3276, "pitch": 59, "duration": 4, "velocity": 82}, {"time": 3276, "pitch": 61, "duration": 7, "velocity": 78}, {"time": 3276, "pitch": 64, "duration": 8, "velocity": 78}, {"time": 3276, "pitch": 69, "duration": 10, "velocity": 78}, {"time": 3279, "pitch": 57, "duration": 3, "velocity": 93}, {"time": 3282, "pitch": 59, "duration": 3, "velocity": 73}, {"time": 3285, "pitch": 34, "duration": 2, "velocity": 73}, {"time": 3285, "pitch": 46, "duration": 2, "velocity": 73}, {"time": 3285, "pitch": 64, "duration": 2, "velocity": 59}, {"time": 3288, "pitch": 35, "duration": 20, "velocity": 93}, {"time": 3288, "pitch": 47, "duration": 20, "velocity": 93}, {"time": 3288, "pitch": 57, "duration": 5, "velocity": 99}, {"time": 3288, "pitch": 62, "duration": 7, "velocity": 73}, {"time": 3288, "pitch": 66, "duration": 5, "velocity": 76}, {"time": 3294, "pitch": 54, "duration": 7, "velocity": 66}, {"time": 3297, "pitch": 57, "duration": 2, "velocity": 51}, {"time": 3300, "pitch": 57, "duration": 2, "velocity": 48}, {"time": 3300, "pitch": 57, "duration": 2, "velocity": 93}, {"time": 3300, "pitch": 62, "duration": 6, "velocity": 95}, {"time": 3300, "pitch": 64, "duration": 2, "velocity": 51}, {"time": 3300, "pitch": 66, "duration": 6, "velocity": 97}, {"time": 3306, "pitch": 54, "duration": 4, "velocity": 73}, {"time": 3309, "pitch": 35, "duration": 20, "velocity": 76}, {"time": 3309, "pitch": 47, "duration": 20, "velocity": 76}, {"time": 3309, "pitch": 57, "duration": 2, "velocity": 82}, {"time": 3309, "pitch": 64, "duration": 3, "velocity": 62}, {"time": 3312, "pitch": 54, "duration": 3, "velocity": 67}, {"time": 3312, "pitch": 62, "duration": 2, "velocity": 66}, {"time": 3315, "pitch": 57, "duration": 2, "velocity": 82}, {"time": 3315, "pitch": 62, "duration": 2, "velocity": 78}, {"time": 3315, "pitch": 66, "duration": 3, "velocity": 73}, {"time": 3321, "pitch": 54, "duration": 3, "velocity": 72}, {"time": 3324, "pitch": 57, "duration": 4, "velocity": 85}, {"time": 3324, "pitch": 62, "duration": 4, "velocity": 101}, {"time": 3324, "pitch": 69, "duration": 4, "velocity": 80}, {"time": 3327, "pitch": 54, "duration": 3, "velocity": 73}, {"time": 3330, "pitch": 57, "duration": 3, "velocity": 76}, {"time": 3330, "pitch": 64, "duration": 1, "velocity": 41}, {"time": 3330, "pitch": 69, "duration": 2, "velocity": 55}, {"time": 3333, "pitch": 64, "duration": 2, "velocity": 73}, {"time": 3336, "pitch": 31, "duration": 22, "velocity": 82}, {"time": 3336, "pitch": 43, "duration": 22, "velocity": 82}, {"time": 3336, "pitch": 59, "duration": 5, "velocity": 88}, {"time": 3336, "pitch": 62, "duration": 7, "velocity": 85}, {"time": 3336, "pitch": 67, "duration": 7, "velocity": 70}, {"time": 3339, "pitch": 50, "duration": 14, "velocity": 75}, {"time": 3342, "pitch": 55, "duration": 5, "velocity": 88}, {"time": 3345, "pitch": 57, "duration": 2, "velocity": 88}, {"time": 3345, "pitch": 66, "duration": 5, "velocity": 93}, {"time": 3348, "pitch": 55, "duration": 3, "velocity": 31}, {"time": 3348, "pitch": 62, "duration": 1, "velocity": 64}, {"time": 3351, "pitch": 59, "duration": 2, "velocity": 91}, {"time": 3351, "pitch": 62, "duration": 1, "velocity": 99}, {"time": 3351, "pitch": 67, "duration": 2, "velocity": 88}, {"time": 3354, "pitch": 55, "duration": 4, "velocity": 97}, {"time": 3357, "pitch": 50, "duration": 2, "velocity": 72}, {"time": 3357, "pitch": 67, "duration": 2, "velocity": 61}, {"time": 3357, "pitch": 74, "duration": 2, "velocity": 80}, {"time": 3360, "pitch": 31, "duration": 5, "velocity": 75}, {"time": 3360, "pitch": 43, "duration": 5, "velocity": 75}, {"time": 3360, "pitch": 66, "duration": 3, "velocity": 97}, {"time": 3360, "pitch": 74, "duration": 5, "velocity": 88}, {"time": 3363, "pitch": 50, "duration": 3, "velocity": 70}, {"time": 3366, "pitch": 55, "duration": 5, "velocity": 85}, {"time": 3366, "pitch": 64, "duration": 2, "velocity": 88}, {"time": 3366, "pitch": 73, "duration": 2, "velocity": 69}, {"time": 3369, "pitch": 57, "duration": 10, "velocity": 91}, {"time": 3369, "pitch": 66, "duration": 2, "velocity": 91}, {"time": 3369, "pitch": 74, "duration": 2, "velocity": 75}, {"time": 3372, "pitch": 69, "duration": 1, "velocity": 42}, {"time": 3375, "pitch": 69, "duration": 1, "velocity": 101}, {"time": 3375, "pitch": 76, "duration": 2, "velocity": 88}, {"time": 3378, "pitch": 59, "duration": 2, "velocity": 93}, {"time": 3381, "pitch": 74, "duration": 2, "velocity": 78}, {"time": 3384, "pitch": 38, "duration": 21, "velocity": 91}, {"time": 3384, "pitch": 50, "duration": 21, "velocity": 91}, {"time": 3384, "pitch": 69, "duration": 4, "velocity": 85}, {"time": 3384, "pitch": 74, "duration": 4, "velocity": 95}, {"time": 3384, "pitch": 78, "duration": 4, "velocity": 95}, {"time": 3387, "pitch": 57, "duration": 20, "velocity": 64}, {"time": 3390, "pitch": 62, "duration": 5, "velocity": 82}, {"time": 3393, "pitch": 64, "duration": 2, "velocity": 85}, {"time": 3393, "pitch": 69, "duration": 3, "velocity": 91}, {"time": 3396, "pitch": 62, "duration": 10, "velocity": 60}, {"time": 3396, "pitch": 66, "duration": 2, "velocity": 59}, {"time": 3399, "pitch": 64, "duration": 1, "velocity": 59}, {"time": 3399, "pitch": 69, "duration": 2, "velocity": 82}, {"time": 3402, "pitch": 66, "duration": 2, "velocity": 95}, {"time": 3402, "pitch": 74, "duration": 2, "velocity": 73}, {"time": 3405, "pitch": 66, "duration": 5, "velocity": 95}, {"time": 3405, "pitch": 74, "duration": 12, "velocity": 80}, {"time": 3408, "pitch": 38, "duration": 21, "velocity": 78}, {"time": 3408, "pitch": 50, "duration": 21, "velocity": 78}, {"time": 3411, "pitch": 57, "duration": 13, "velocity": 58}, {"time": 3414, "pitch": 62, "duration": 5, "velocity": 82}, {"time": 3417, "pitch": 64, "duration": 5, "velocity": 91}, {"time": 3417, "pitch": 69, "duration": 5, "velocity": 97}, {"time": 3417, "pitch": 74, "duration": 5, "velocity": 62}, {"time": 3420, "pitch": 62, "duration": 4, "velocity": 67}, {"time": 3423, "pitch": 64, "duration": 4, "velocity": 91}, {"time": 3423, "pitch": 73, "duration": 4, "velocity": 78}, {"time": 3426, "pitch": 57, "duration": 2, "velocity": 66}, {"time": 3426, "pitch": 74, "duration": 4, "velocity": 80}, {"time": 3429, "pitch": 73, "duration": 2, "velocity": 78}, {"time": 3432, "pitch": 33, "duration": 5, "velocity": 85}, {"time": 3432, "pitch": 45, "duration": 5, "velocity": 85}, {"time": 3432, "pitch": 64, "duration": 13, "velocity": 91}, {"time": 3432, "pitch": 69, "duration": 13, "velocity": 88}, {"time": 3432, "pitch": 73, "duration": 12, "velocity": 80}, {"time": 3435, "pitch": 52, "duration": 4, "velocity": 73}, {"time": 3438, "pitch": 57, "duration": 5, "velocity": 75}, {"time": 3441, "pitch": 59, "duration": 5, "velocity": 70}, {"time": 3444, "pitch": 61, "duration": 2, "velocity": 93}, {"time": 3447, "pitch": 64, "duration": 2, "velocity": 97}, {"time": 3450, "pitch": 69, "duration": 2, "velocity": 69}, {"time": 3453, "pitch": 33, "duration": 10, "velocity": 88}, {"time": 3453, "pitch": 45, "duration": 10, "velocity": 88}, {"time": 3453, "pitch": 64, "duration": 5, "velocity": 91}, {"time": 3453, "pitch": 69, "duration": 8, "velocity": 80}, {"time": 3453, "pitch": 76, "duration": 8, "velocity": 78}, {"time": 3456, "pitch": 57, "duration": 2, "velocity": 53}, {"time": 3459, "pitch": 57, "duration": 3, "velocity": 95}, {"time": 3462, "pitch": 64, "duration": 3, "velocity": 76}, {"time": 3465, "pitch": 69, "duration": 2, "velocity": 75}, {"time": 3468, "pitch": 64, "duration": 1, "velocity": 52}, {"time": 3468, "pitch": 73, "duration": 3, "velocity": 88}, {"time": 3471, "pitch": 34, "duration": 5, "velocity": 82}, {"time": 3471, "pitch": 46, "duration": 5, "velocity": 82}, {"time": 3471, "pitch": 58, "duration": 5, "velocity": 101}, {"time": 3471, "pitch": 64, "duration": 7, "velocity": 82}, {"time": 3471, "pitch": 70, "duration": 4, "velocity": 103}, {"time": 3471, "pitch": 73, "duration": 6, "velocity": 64}, {"time": 3480, "pitch": 35, "duration": 17, "velocity": 91}, {"time": 3480, "pitch": 47, "duration": 17, "velocity": 91}, {"time": 3480, "pitch": 62, "duration": 5, "velocity": 93}, {"time": 3480, "pitch": 66, "duration": 6, "velocity": 95}, {"time": 3480, "pitch": 71, "duration": 7, "velocity": 88}, {"time": 3483, "pitch": 54, "duration": 17, "velocity": 75}, {"time": 3486, "pitch": 59, "duration": 4, "velocity": 82}, {"time": 3489, "pitch": 61, "duration": 2, "velocity": 88}, {"time": 3489, "pitch": 66, "duration": 2, "velocity": 88}, {"time": 3489, "pitch": 69, "duration": 3, "velocity": 82}, {"time": 3492, "pitch": 59, "duration": 4, "velocity": 54}, {"time": 3495, "pitch": 62, "duration": 2, "velocity": 88}, {"time": 3495, "pitch": 66, "duration": 2, "velocity": 82}, {"time": 3495, "pitch": 69, "duration": 2, "velocity": 80}, {"time": 3501, "pitch": 35, "duration": 13, "velocity": 70}, {"time": 3501, "pitch": 47, "duration": 13, "velocity": 70}, {"time": 3504, "pitch": 54, "duration": 8, "velocity": 67}, {"time": 3507, "pitch": 61, "duration": 2, "velocity": 58}, {"time": 3507, "pitch": 66, "duration": 2, "velocity": 56}, {"time": 3510, "pitch": 59, "duration": 5, "velocity": 69}, {"time": 3513, "pitch": 54, "duration": 3, "velocity": 76}, {"time": 3516, "pitch": 35, "duration": 9, "velocity": 78}, {"time": 3516, "pitch": 47, "duration": 9, "velocity": 78}, {"time": 3516, "pitch": 66, "duration": 3, "velocity": 78}, {"time": 3516, "pitch": 74, "duration": 5, "velocity": 85}, {"time": 3519, "pitch": 54, "duration": 6, "velocity": 70}, {"time": 3519, "pitch": 64, "duration": 3, "velocity": 75}, {"time": 3519, "pitch": 73, "duration": 3, "velocity": 72}, {"time": 3522, "pitch": 59, "duration": 3, "velocity": 78}, {"time": 3525, "pitch": 74, "duration": 5, "velocity": 73}, {"time": 3528, "pitch": 31, "duration": 6, "velocity": 69}, {"time": 3528, "pitch": 43, "duration": 6, "velocity": 69}, {"time": 3528, "pitch": 62, "duration": 4, "velocity": 80}, {"time": 3528, "pitch": 67, "duration": 5, "velocity": 67}, {"time": 3528, "pitch": 71, "duration": 5, "velocity": 72}, {"time": 3531, "pitch": 50, "duration": 3, "velocity": 72}, {"time": 3534, "pitch": 55, "duration": 4, "velocity": 67}, {"time": 3534, "pitch": 62, "duration": 2, "velocity": 64}, {"time": 3534, "pitch": 69, "duration": 2, "velocity": 54}, {"time": 3537, "pitch": 57, "duration": 5, "velocity": 46}, {"time": 3537, "pitch": 71, "duration": 3, "velocity": 70}, {"time": 3540, "pitch": 59, "duration": 2, "velocity": 93}, {"time": 3540, "pitch": 62, "duration": 2, "velocity": 73}, {"time": 3540, "pitch": 67, "duration": 3, "velocity": 64}, {"time": 3540, "pitch": 74, "duration": 3, "velocity": 73}, {"time": 3543, "pitch": 62, "duration": 3, "velocity": 75}, {"time": 3546, "pitch": 67, "duration": 2, "velocity": 73}, {"time": 3549, "pitch": 62, "duration": 2, "velocity": 54}, {"time": 3549, "pitch": 71, "duration": 2, "velocity": 66}, {"time": 3552, "pitch": 33, "duration": 17, "velocity": 82}, {"time": 3552, "pitch": 45, "duration": 17, "velocity": 82}, {"time": 3552, "pitch": 62, "duration": 6, "velocity": 76}, {"time": 3552, "pitch": 67, "duration": 8, "velocity": 88}, {"time": 3552, "pitch": 71, "duration": 6, "velocity": 80}, {"time": 3558, "pitch": 57, "duration": 8, "velocity": 59}, {"time": 3561, "pitch": 62, "duration": 2, "velocity": 46}, {"time": 3564, "pitch": 62, "duration": 4, "velocity": 93}, {"time": 3564, "pitch": 67, "duration": 5, "velocity": 95}, {"time": 3564, "pitch": 71, "duration": 5, "velocity": 85}, {"time": 3567, "pitch": 57, "duration": 4, "velocity": 91}, {"time": 3570, "pitch": 62, "duration": 4, "velocity": 73}, {"time": 3573, "pitch": 69, "duration": 3, "velocity": 64}, {"time": 3576, "pitch": 38, "duration": 42, "velocity": 76}, {"time": 3576, "pitch": 50, "duration": 42, "velocity": 76}, {"time": 3576, "pitch": 66, "duration": 10, "velocity": 91}, {"time": 3576, "pitch": 69, "duration": 7, "velocity": 82}, {"time": 3576, "pitch": 74, "duration": 10, "velocity": 72}, {"time": 3582, "pitch": 57, "duration": 34, "velocity": 54}, {"time": 3585, "pitch": 62, "duration": 4, "velocity": 37}, {"time": 3588, "pitch": 64, "duration": 7, "velocity": 82}, {"time": 3588, "pitch": 66, "duration": 7, "velocity": 82}, {"time": 3588, "pitch": 69, "duration": 5, "velocity": 76}, {"time": 3588, "pitch": 74, "duration": 7, "velocity": 80}, {"time": 3594, "pitch": 62, "duration": 4, "velocity": 49}, {"time": 3597, "pitch": 64, "duration": 8, "velocity": 78}, {"time": 3597, "pitch": 69, "duration": 8, "velocity": 75}, {"time": 3603, "pitch": 62, "duration": 9, "velocity": 72}, {"time": 3606, "pitch": 64, "duration": 4, "velocity": 70}, {"time": 3606, "pitch": 66, "duration": 1, "velocity": 47}, {"time": 3609, "pitch": 66, "duration": 2, "velocity": 72}, {"time": 3612, "pitch": 64, "duration": 4, "velocity": 76}, {"time": 3612, "pitch": 66, "duration": 5, "velocity": 82}, {"time": 3612, "pitch": 69, "duration": 4, "velocity": 85}, {"time": 3612, "pitch": 74, "duration": 2, "velocity": 66}, {"time": 3615, "pitch": 62, "duration": 2, "velocity": 85}, {"time": 3624, "pitch": 31, "duration": 20, "velocity": 64}, {"time": 3624, "pitch": 43, "duration": 20, "velocity": 64}, {"time": 3624, "pitch": 55, "duration": 7, "velocity": 82}, {"time": 3624, "pitch": 59, "duration": 10, "velocity": 90}, {"time": 3624, "pitch": 62, "duration": 8, "velocity": 102}, {"time": 3624, "pitch": 67, "duration": 8, "velocity": 90}, {"time": 3633, "pitch": 55, "duration": 8, "velocity": 31}, {"time": 3636, "pitch": 59, "duration": 8, "velocity": 90}, {"time": 3636, "pitch": 62, "duration": 8, "velocity": 99}, {"time": 3636, "pitch": 67, "duration": 7, "velocity": 90}, {"time": 3642, "pitch": 55, "duration": 3, "velocity": 75}, {"time": 3648, "pitch": 33, "duration": 16, "velocity": 81}, {"time": 3648, "pitch": 45, "duration": 16, "velocity": 81}, {"time": 3648, "pitch": 57, "duration": 15, "velocity": 78}, {"time": 3648, "pitch": 59, "duration": 9, "velocity": 88}, {"time": 3648, "pitch": 62, "duration": 8, "velocity": 92}, {"time": 3648, "pitch": 67, "duration": 9, "velocity": 90}, {"time": 3660, "pitch": 59, "duration": 8, "velocity": 88}, {"time": 3660, "pitch": 62, "duration": 7, "velocity": 99}, {"time": 3660, "pitch": 67, "duration": 5, "velocity": 88}, {"time": 3666, "pitch": 33, "duration": 2, "velocity": 82}, {"time": 3666, "pitch": 45, "duration": 2, "velocity": 82}, {"time": 3666, "pitch": 57, "duration": 1, "velocity": 55}, {"time": 3672, "pitch": 34, "duration": 19, "velocity": 84}, {"time": 3672, "pitch": 46, "duration": 19, "velocity": 84}, {"time": 3672, "pitch": 58, "duration": 16, "velocity": 79}, {"time": 3672, "pitch": 62, "duration": 9, "velocity": 79}, {"time": 3672, "pitch": 65, "duration": 9, "velocity": 88}, {"time": 3672, "pitch": 70, "duration": 9, "velocity": 82}, {"time": 3684, "pitch": 62, "duration": 6, "velocity": 78}, {"time": 3684, "pitch": 65, "duration": 6, "velocity": 85}, {"time": 3684, "pitch": 70, "duration": 6, "velocity": 82}, {"time": 3690, "pitch": 58, "duration": 2, "velocity": 68}, {"time": 3696, "pitch": 36, "duration": 15, "velocity": 84}, {"time": 3696, "pitch": 48, "duration": 15, "velocity": 84}, {"time": 3696, "pitch": 60, "duration": 15, "velocity": 79}, {"time": 3696, "pitch": 64, "duration": 8, "velocity": 74}, {"time": 3696, "pitch": 67, "duration": 8, "velocity": 81}, {"time": 3696, "pitch": 72, "duration": 10, "velocity": 84}, {"time": 3708, "pitch": 64, "duration": 4, "velocity": 81}, {"time": 3708, "pitch": 67, "duration": 4, "velocity": 90}, {"time": 3708, "pitch": 72, "duration": 4, "velocity": 85}, {"time": 3714, "pitch": 36, "duration": 2, "velocity": 82}, {"time": 3714, "pitch": 48, "duration": 2, "velocity": 82}, {"time": 3720, "pitch": 38, "duration": 24, "velocity": 93}, {"time": 3720, "pitch": 50, "duration": 24, "velocity": 93}, {"time": 3720, "pitch": 62, "duration": 23, "velocity": 90}, {"time": 3720, "pitch": 66, "duration": 24, "velocity": 103}, {"time": 3720, "pitch": 69, "duration": 24, "velocity": 101}, {"time": 3720, "pitch": 74, "duration": 25, "velocity": 99}], "annotations": [{"time": 28, "annotation": {"number": 64, "value": 127}, "group": "control_change"}, {"time": 38, "annotation": {"number": 64, "value": 71}, "group": "control_change"}, {"time": 40, "annotation": {"number": 64, "value": 127}, "group": "control_change"}, {"time": 192, "annotation": {"number": 64, "value": 71}, "group": "control_change"}, {"time": 192, "annotation": {"number": 64, "value": 0}, "group": "control_change"}, {"time": 193, "annotation": {"number": 64, "value": 0}, "group": "control_change"}, {"time": 216, "annotation": {"number": 64, "value": 127}, "group": "control_change"}, {"time": 265, "annotation": {"number": 64, "value": 0}, "group": "control_change"}, {"time": 267, "annotation": {"number": 64, "value": 127}, "group": "control_change"}, {"time": 312, "annotation": {"number": 64, "value": 0}, "group": "control_change"}, {"time": 314, "annotation": {"number": 64, "value": 127}, "group": "control_change"}, {"time": 360, "annotation": {"number": 64, "value": 0}, "group": "control_change"}, {"time": 362, "annotation": {"number": 64, "value": 127}, "group": "control_change"}, {"time": 407, "annotation": {"number": 64, "value": 0}, "group": "control_change"}, {"time": 410, "annotation": {"number": 64, "value": 127}, "group": "control_change"}, {"time": 418, "annotation": {"number": 64, "value": 0}, "group": "control_change"}, {"time": 421, "annotation": {"number": 64, "value": 127}, "group": "control_change"}, {"time": 456, "annotation": {"number": 64, "value": 0}, "group": "control_change"}, {"time": 459, "annotation": {"number": 64, "value": 127}, "group": "control_change"}, {"time": 503, "annotation": {"number": 64, "value": 0}, "group": "control_change"}, {"time": 506, "annotation": {"number": 64, "value": 127}, "group": "control_change"}, {"time": 513, "annotation": {"number": 64, "value": 0}, "group": "control_change"}, {"time": 515, "annotation": {"number": 64, "value": 127}, "group": "control_change"}, {"time": 551, "annotation": {"number": 64, "value": 0}, "group": "control_change"}, {"time": 554, "annotation": {"number": 64, "value": 127}, "group": "control_change"}, {"time": 600, "annotation": {"number": 64, "value": 0}, "group": "control_change"}, {"time": 603, "annotation": {"number": 64, "value": 127}, "group": "control_change"}, {"time": 622, "annotation": {"number": 64, "value": 127}, "group": "control_change"}, {"time": 639, "annotation": {"number": 64, "value": 0}, "group": "control_change"}, {"time": 648, "annotation": {"number": 64, "value": 127}, "group": "control_change"}, {"time": 695, "annotation": {"number": 64, "value": 0}, "group": "control_change"}, {"time": 698, "annotation": {"number": 64, "value": 127}, "group": "control_change"}, {"time": 745, "annotation": {"number": 64, "value": 0}, "group": "control_change"}, {"time": 748, "annotation": {"number": 64, "value": 127}, "group": "control_change"}, {"time": 793, "annotation": {"number": 64, "value": 0}, "group": "control_change"}, {"time": 796, "annotation": {"number": 64, "value": 127}, "group": "control_change"}, {"time": 840, "annotation": {"number": 64, "value": 0}, "group": "control_change"}, {"time": 843, "annotation": {"number": 64, "value": 127}, "group": "control_change"}, {"time": 889, "annotation": {"number": 64, "value": 0}, "group": "control_change"}, {"time": 892, "annotation": {"number": 64, "value": 127}, "group": "control_change"}, {"time": 936, "annotation": {"number": 64, "value": 0}, "group": "control_change"}, {"time": 939, "annotation": {"number": 64, "value": 127}, "group": "control_change"}, {"time": 984, "annotation": {"number": 64, "value": 0}, "group": "control_change"}, {"time": 987, "annotation": {"number": 64, "value": 127}, "group": "control_change"}, {"time": 1032, "annotation": {"number": 64, "value": 0}, "group": "control_change"}, {"time": 1032, "annotation": {"number": 64, "value": 127}, "group": "control_change"}, {"time": 1079, "annotation": {"number": 64, "value": 0}, "group": "control_change"}, {"time": 1081, "annotation": {"number": 64, "value": 127}, "group": "control_change"}, {"time": 1092, "annotation": {"number": 64, "value": 0}, "group": "control_change"}, {"time": 1094, "annotation": {"number": 64, "value": 127}, "group": "control_change"}, {"time": 1096, "annotation": {"number": 64, "value": 0}, "group": "control_change"}, {"time": 1106, "annotation": {"number": 64, "value": 127}, "group": "control_change"}, {"time": 1127, "annotation": {"number": 64, "value": 0}, "group": "control_change"}, {"time": 1130, "annotation": {"number": 64, "value": 127}, "group": "control_change"}, {"time": 1177, "annotation": {"number": 64, "value": 0}, "group": "control_change"}, {"time": 1179, "annotation": {"number": 64, "value": 127}, "group": "control_change"}, {"time": 1201, "annotation": {"number": 64, "value": 0}, "group": "control_change"}, {"time": 1204, "annotation": {"number": 64, "value": 127}, "group": "control_change"}, {"time": 1223, "annotation": {"number": 64, "value": 0}, "group": "control_change"}, {"time": 1226, "annotation": {"number": 64, "value": 127}, "group": "control_change"}, {"time": 1246, "annotation": {"number": 64, "value": 0}, "group": "control_change"}, {"time": 1249, "annotation": {"number": 64, "value": 127}, "group": "control_change"}, {"time": 1272, "annotation": {"number": 64, "value": 0}, "group": "control_change"}, {"time": 1274, "annotation": {"number": 64, "value": 127}, "group": "control_change"}, {"time": 1293, "annotation": {"number": 64, "value": 0}, "group": "control_change"}, {"time": 1296, "annotation": {"number": 64, "value": 127}, "group": "control_change"}, {"time": 1320, "annotation": {"number": 64, "value": 0}, "group": "control_change"}, {"time": 1320, "annotation": {"number": 64, "value": 127}, "group": "control_change"}, {"time": 1367, "annotation": {"number": 64, "value": 0}, "group": "control_change"}, {"time": 1370, "annotation": {"number": 64, "value": 127}, "group": "control_change"}, {"time": 1414, "annotation": {"number": 64, "value": 0}, "group": "control_change"}, {"time": 1420, "annotation": {"number": 64, "value": 127}, "group": "control_change"}, {"time": 1440, "annotation": {"number": 64, "value": 0}, "group": "control_change"}, {"time": 1441, "annotation": {"number": 64, "value": 127}, "group": "control_change"}, {"time": 1453, "annotation": {"number": 64, "value": 127}, "group": "control_change"}, {"time": 1462, "annotation": {"number": 64, "value": 0}, "group": "control_change"}, {"time": 1465, "annotation": {"number": 64, "value": 0}, "group": "control_change"}, {"time": 1467, "annotation": {"number": 64, "value": 127}, "group": "control_change"}, {"time": 1489, "annotation": {"number": 64, "value": 0}, "group": "control_change"}, {"time": 1491, "annotation": {"number": 64, "value": 127}, "group": "control_change"}, {"time": 1512, "annotation": {"number": 64, "value": 0}, "group": "control_change"}, {"time": 1514, "annotation": {"number": 64, "value": 127}, "group": "control_change"}, {"time": 1536, "annotation": {"number": 64, "value": 0}, "group": "control_change"}, {"time": 1538, "annotation": {"number": 64, "value": 127}, "group": "control_change"}, {"time": 1560, "annotation": {"number": 64, "value": 0}, "group": "control_change"}, {"time": 1563, "annotation": {"number": 64, "value": 127}, "group": "control_change"}, {"time": 1584, "annotation": {"number": 64, "value": 0}, "group": "control_change"}, {"time": 1587, "annotation": {"number": 64, "value": 127}, "group": "control_change"}, {"time": 1608, "annotation": {"number": 64, "value": 0}, "group": "control_change"}, {"time": 1609, "annotation": {"number": 64, "value": 0}, "group": "control_change"}, {"time": 1612, "annotation": {"number": 64, "value": 127}, "group": "control_change"}, {"time": 1655, "annotation": {"number": 64, "value": 0}, "group": "control_change"}, {"time": 1658, "annotation": {"number": 64, "value": 127}, "group": "control_change"}, {"time": 1704, "annotation": {"number": 64, "value": 0}, "group": "control_change"}, {"time": 1707, "annotation": {"number": 64, "value": 127}, "group": "control_change"}, {"time": 1752, "annotation": {"number": 64, "value": 0}, "group": "control_change"}, {"time": 1755, "annotation": {"number": 64, "value": 127}, "group": "control_change"}, {"time": 1798, "annotation": {"number": 64, "value": 0}, "group": "control_change"}, {"time": 1802, "annotation": {"number": 64, "value": 127}, "group": "control_change"}, {"time": 1837, "annotation": {"number": 64, "value": 0}, "group": "control_change"}, {"time": 1839, "annotation": {"number": 64, "value": 127}, "group": "control_change"}, {"time": 1846, "annotation": {"number": 64, "value": 0}, "group": "control_change"}, {"time": 1851, "annotation": {"number": 64, "value": 127}, "group": "control_change"}, {"time": 1874, "annotation": {"number": 64, "value": 0}, "group": "control_change"}, {"time": 1896, "annotation": {"number": 64, "value": 127}, "group": "control_change"}, {"time": 1945, "annotation": {"number": 64, "value": 0}, "group": "control_change"}, {"time": 1947, "annotation": {"number": 64, "value": 127}, "group": "control_change"}, {"time": 1992, "annotation": {"number": 64, "value": 0}, "group": "control_change"}, {"time": 1994, "annotation": {"number": 64, "value": 127}, "group": "control_change"}, {"time": 2040, "annotation": {"number": 64, "value": 0}, "group": "control_change"}, {"time": 2042, "annotation": {"number": 64, "value": 127}, "group": "control_change"}, {"time": 2087, "annotation": {"number": 64, "value": 0}, "group": "control_change"}, {"time": 2090, "annotation": {"number": 64, "value": 127}, "group": "control_change"}, {"time": 2098, "annotation": {"number": 64, "value": 0}, "group": "control_change"}, {"time": 2101, "annotation": {"number": 64, "value": 127}, "group": "control_change"}, {"time": 2136, "annotation": {"number": 64, "value": 0}, "group": "control_change"}, {"time": 2139, "annotation": {"number": 64, "value": 127}, "group": "control_change"}, {"time": 2183, "annotation": {"number": 64, "value": 0}, "group": "control_change"}, {"time": 2186, "annotation": {"number": 64, "value": 127}, "group": "control_change"}, {"time": 2193, "annotation": {"number": 64, "value": 0}, "group": "control_change"}, {"time": 2195, "annotation": {"number": 64, "value": 127}, "group": "control_change"}, {"time": 2231, "annotation": {"number": 64, "value": 0}, "group": "control_change"}, {"time": 2234, "annotation": {"number": 64, "value": 127}, "group": "control_change"}, {"time": 2280, "annotation": {"number": 64, "value": 0}, "group": "control_change"}, {"time": 2283, "annotation": {"number": 64, "value": 127}, "group": "control_change"}, {"time": 2302, "annotation": {"number": 64, "value": 127}, "group": "control_change"}, {"time": 2319, "annotation": {"number": 64, "value": 0}, "group": "control_change"}, {"time": 2328, "annotation": {"number": 64, "value": 127}, "group": "control_change"}, {"time": 2328, "annotation": {"number": 64, "value": 0}, "group": "control_change"}, {"time": 2375, "annotation": {"number": 64, "value": 0}, "group": "control_change"}, {"time": 2377, "annotation": {"number": 64, "value": 127}, "group": "control_change"}, {"time": 2388, "annotation": {"number": 64, "value": 0}, "group": "control_change"}, {"time": 2390, "annotation": {"number": 64, "value": 127}, "group": "control_change"}, {"time": 2392, "annotation": {"number": 64, "value": 0}, "group": "control_change"}, {"time": 2402, "annotation": {"number": 64, "value": 127}, "group": "control_change"}, {"time": 2423, "annotation": {"number": 64, "value": 0}, "group": "control_change"}, {"time": 2426, "annotation": {"number": 64, "value": 127}, "group": "control_change"}, {"time": 2473, "annotation": {"number": 64, "value": 0}, "group": "control_change"}, {"time": 2475, "annotation": {"number": 64, "value": 127}, "group": "control_change"}, {"time": 2485, "annotation": {"number": 64, "value": 0}, "group": "control_change"}, {"time": 2491, "annotation": {"number": 64, "value": 124}, "group": "control_change"}, {"time": 2497, "annotation": {"number": 64, "value": 0}, "group": "control_change"}, {"time": 2500, "annotation": {"number": 64, "value": 127}, "group": "control_change"}, {"time": 2519, "annotation": {"number": 64, "value": 0}, "group": "control_change"}, {"time": 2522, "annotation": {"number": 64, "value": 127}, "group": "control_change"}, {"time": 2542, "annotation": {"number": 64, "value": 0}, "group": "control_change"}, {"time": 2545, "annotation": {"number": 64, "value": 127}, "group": "control_change"}, {"time": 2568, "annotation": {"number": 64, "value": 0}, "group": "control_change"}, {"time": 2570, "annotation": {"number": 64, "value": 127}, "group": "control_change"}, {"time": 2589, "annotation": {"number": 64, "value": 0}, "group": "control_change"}, {"time": 2592, "annotation": {"number": 64, "value": 127}, "group": "control_change"}, {"time": 2616, "annotation": {"number": 64, "value": 0}, "group": "control_change"}, {"time": 2616, "annotation": {"number": 64, "value": 127}, "group": "control_change"}, {"time": 2663, "annotation": {"number": 64, "value": 0}, "group": "control_change"}, {"time": 2666, "annotation": {"number": 64, "value": 127}, "group": "control_change"}, {"time": 2710, "annotation": {"number": 64, "value": 0}, "group": "control_change"}, {"time": 2716, "annotation": {"number": 64, "value": 127}, "group": "control_change"}, {"time": 2736, "annotation": {"number": 64, "value": 0}, "group": "control_change"}, {"time": 2737, "annotation": {"number": 64, "value": 127}, "group": "control_change"}, {"time": 2749, "annotation": {"number": 64, "value": 127}, "group": "control_change"}, {"time": 2758, "annotation": {"number": 64, "value": 0}, "group": "control_change"}, {"time": 2761, "annotation": {"number": 64, "value": 0}, "group": "control_change"}, {"time": 2763, "annotation": {"number": 64, "value": 127}, "group": "control_change"}, {"time": 2785, "annotation": {"number": 64, "value": 0}, "group": "control_change"}, {"time": 2787, "annotation": {"number": 64, "value": 127}, "group": "control_change"}, {"time": 2808, "annotation": {"number": 64, "value": 0}, "group": "control_change"}, {"time": 2810, "annotation": {"number": 64, "value": 127}, "group": "control_change"}, {"time": 2832, "annotation": {"number": 64, "value": 0}, "group": "control_change"}, {"time": 2834, "annotation": {"number": 64, "value": 127}, "group": "control_change"}, {"time": 2856, "annotation": {"number": 64, "value": 0}, "group": "control_change"}, {"time": 2859, "annotation": {"number": 64, "value": 127}, "group": "control_change"}, {"time": 2880, "annotation": {"number": 64, "value": 0}, "group": "control_change"}, {"time": 2883, "annotation": {"number": 64, "value": 127}, "group": "control_change"}, {"time": 2904, "annotation": {"number": 64, "value": 0}, "group": "control_change"}, {"time": 2905, "annotation": {"number": 64, "value": 0}, "group": "control_change"}, {"time": 2908, "annotation": {"number": 64, "value": 127}, "group": "control_change"}, {"time": 2951, "annotation": {"number": 64, "value": 0}, "group": "control_change"}, {"time": 2954, "annotation": {"number": 64, "value": 127}, "group": "control_change"}, {"time": 3000, "annotation": {"number": 64, "value": 0}, "group": "control_change"}, {"time": 3003, "annotation": {"number": 64, "value": 127}, "group": "control_change"}, {"time": 3048, "annotation": {"number": 64, "value": 0}, "group": "control_change"}, {"time": 3051, "annotation": {"number": 64, "value": 127}, "group": "control_change"}, {"time": 3094, "annotation": {"number": 64, "value": 0}, "group": "control_change"}, {"time": 3098, "annotation": {"number": 64, "value": 127}, "group": "control_change"}, {"time": 3133, "annotation": {"number": 64, "value": 0}, "group": "control_change"}, {"time": 3135, "annotation": {"number": 64, "value": 127}, "group": "control_change"}, {"time": 3142, "annotation": {"number": 64, "value": 0}, "group": "control_change"}, {"time": 3147, "annotation": {"number": 64, "value": 127}, "group": "control_change"}, {"time": 3169, "annotation": {"number": 64, "value": 127}, "group": "control_change"}, {"time": 3170, "annotation": {"number": 64, "value": 0}, "group": "control_change"}, {"time": 3193, "annotation": {"number": 64, "value": 0}, "group": "control_change"}, {"time": 3230, "annotation": {"number": 64, "value": 127}, "group": "control_change"}, {"time": 3239, "annotation": {"number": 64, "value": 0}, "group": "control_change"}, {"time": 3242, "annotation": {"number": 64, "value": 127}, "group": "control_change"}, {"time": 3287, "annotation": {"number": 64, "value": 0}, "group": "control_change"}, {"time": 3290, "annotation": {"number": 64, "value": 127}, "group": "control_change"}, {"time": 3336, "annotation": {"number": 64, "value": 0}, "group": "control_change"}, {"time": 3339, "annotation": {"number": 64, "value": 127}, "group": "control_change"}, {"time": 3384, "annotation": {"number": 64, "value": 0}, "group": "control_change"}, {"time": 3386, "annotation": {"number": 64, "value": 127}, "group": "control_change"}, {"time": 3432, "annotation": {"number": 64, "value": 0}, "group": "control_change"}, {"time": 3434, "annotation": {"number": 64, "value": 127}, "group": "control_change"}, {"time": 3472, "annotation": {"number": 64, "value": 0}, "group": "control_change"}, {"time": 3475, "annotation": {"number": 64, "value": 127}, "group": "control_change"}, {"time": 3481, "annotation": {"number": 64, "value": 0}, "group": "control_change"}, {"time": 3483, "annotation": {"number": 64, "value": 127}, "group": "control_change"}, {"time": 3529, "annotation": {"number": 64, "value": 0}, "group": "control_change"}, {"time": 3531, "annotation": {"number": 64, "value": 127}, "group": "control_change"}, {"time": 3552, "annotation": {"number": 64, "value": 0}, "group": "control_change"}, {"time": 3555, "annotation": {"number": 64, "value": 127}, "group": "control_change"}, {"time": 3576, "annotation": {"number": 64, "value": 0}, "group": "control_change"}, {"time": 3578, "annotation": {"number": 64, "value": 127}, "group": "control_change"}, {"time": 3625, "annotation": {"number": 64, "value": 0}, "group": "control_change"}, {"time": 3628, "annotation": {"number": 64, "value": 127}, "group": "control_change"}, {"time": 3649, "annotation": {"number": 64, "value": 0}, "group": "control_change"}, {"time": 3652, "annotation": {"number": 64, "value": 127}, "group": "control_change"}, {"time": 3672, "annotation": {"number": 64, "value": 0}, "group": "control_change"}, {"time": 3673, "annotation": {"number": 64, "value": 127}, "group": "control_change"}, {"time": 3697, "annotation": {"number": 64, "value": 0}, "group": "control_change"}, {"time": 3700, "annotation": {"number": 64, "value": 127}, "group": "control_change"}, {"time": 3721, "annotation": {"number": 64, "value": 0}, "group": "control_change"}, {"time": 3726, "annotation": {"number": 64, "value": 123}, "group": "control_change"}, {"time": 3769, "annotation": {"number": 64, "value": 0}, "group": "control_change"}]}]}