{"metadata": {"schema_version": "0.2", "title": "None", "source_filename": "192.mid", "source_format": "midi"}, "resolution": 12, "tempos": [{"time": 0, "qpm": 64.99999458333379}], "key_signatures": [{"time": 0, "root": 0, "mode": "major"}], "time_signatures": [{"time": 0, "numerator": 4, "denominator": 4}], "tracks": [{"program": 0, "is_drum": false, "name": "MELODY", "notes": [{"time": 434, "pitch": 81, "duration": 10, "velocity": 84}, {"time": 446, "pitch": 81, "duration": 6, "velocity": 95}, {"time": 452, "pitch": 79, "duration": 6, "velocity": 91}, {"time": 458, "pitch": 77, "duration": 12, "velocity": 98}, {"time": 482, "pitch": 84, "duration": 6, "velocity": 97}, {"time": 488, "pitch": 81, "duration": 4, "velocity": 86}, {"time": 494, "pitch": 81, "duration": 5, "velocity": 94}, {"time": 500, "pitch": 72, "duration": 6, "velocity": 87}, {"time": 506, "pitch": 74, "duration": 9, "velocity": 87}, {"time": 530, "pitch": 74, "duration": 10, "velocity": 97}, {"time": 542, "pitch": 74, "duration": 6, "velocity": 90}, {"time": 548, "pitch": 77, "duration": 6, "velocity": 91}, {"time": 554, "pitch": 79, "duration": 11, "velocity": 68}, {"time": 578, "pitch": 74, "duration": 3, "velocity": 54}, {"time": 581, "pitch": 81, "duration": 2, "velocity": 54}, {"time": 584, "pitch": 79, "duration": 3, "velocity": 54}, {"time": 587, "pitch": 77, "duration": 3, "velocity": 60}, {"time": 590, "pitch": 79, "duration": 6, "velocity": 66}, {"time": 596, "pitch": 81, "duration": 2, "velocity": 54}, {"time": 599, "pitch": 81, "duration": 5, "velocity": 63}, {"time": 605, "pitch": 79, "duration": 12, "velocity": 48}, {"time": 626, "pitch": 81, "duration": 9, "velocity": 93}, {"time": 638, "pitch": 81, "duration": 5, "velocity": 97}, {"time": 644, "pitch": 84, "duration": 2, "velocity": 96}, {"time": 647, "pitch": 86, "duration": 6, "velocity": 90}, {"time": 656, "pitch": 84, "duration": 9, "velocity": 95}, {"time": 674, "pitch": 86, "duration": 1, "velocity": 95}, {"time": 677, "pitch": 86, "duration": 3, "velocity": 84}, {"time": 683, "pitch": 84, "duration": 1, "velocity": 84}, {"time": 686, "pitch": 84, "duration": 5, "velocity": 80}, {"time": 692, "pitch": 81, "duration": 1, "velocity": 66}, {"time": 695, "pitch": 81, "duration": 4, "velocity": 77}, {"time": 701, "pitch": 81, "duration": 11, "velocity": 79}, {"time": 722, "pitch": 72, "duration": 12, "velocity": 90}, {"time": 734, "pitch": 74, "duration": 5, "velocity": 97}, {"time": 740, "pitch": 81, "duration": 5, "velocity": 90}, {"time": 746, "pitch": 79, "duration": 13, "velocity": 89}, {"time": 770, "pitch": 81, "duration": 6, "velocity": 105}, {"time": 776, "pitch": 79, "duration": 30, "velocity": 95}, {"time": 818, "pitch": 81, "duration": 8, "velocity": 101}, {"time": 830, "pitch": 81, "duration": 6, "velocity": 98}, {"time": 836, "pitch": 79, "duration": 5, "velocity": 95}, {"time": 842, "pitch": 77, "duration": 12, "velocity": 99}, {"time": 866, "pitch": 84, "duration": 5, "velocity": 106}, {"time": 872, "pitch": 81, "duration": 4, "velocity": 97}, {"time": 878, "pitch": 81, "duration": 5, "velocity": 97}, {"time": 884, "pitch": 72, "duration": 6, "velocity": 87}, {"time": 890, "pitch": 74, "duration": 20, "velocity": 98}, {"time": 914, "pitch": 74, "duration": 9, "velocity": 100}, {"time": 926, "pitch": 74, "duration": 5, "velocity": 93}, {"time": 932, "pitch": 77, "duration": 6, "velocity": 97}, {"time": 938, "pitch": 79, "duration": 16, "velocity": 105}, {"time": 962, "pitch": 72, "duration": 3, "velocity": 90}, {"time": 965, "pitch": 81, "duration": 3, "velocity": 89}, {"time": 968, "pitch": 79, "duration": 3, "velocity": 85}, {"time": 971, "pitch": 77, "duration": 3, "velocity": 82}, {"time": 974, "pitch": 79, "duration": 6, "velocity": 89}, {"time": 980, "pitch": 81, "duration": 1, "velocity": 79}, {"time": 983, "pitch": 81, "duration": 5, "velocity": 93}, {"time": 989, "pitch": 79, "duration": 12, "velocity": 66}, {"time": 1010, "pitch": 81, "duration": 9, "velocity": 93}, {"time": 1022, "pitch": 81, "duration": 5, "velocity": 91}, {"time": 1028, "pitch": 84, "duration": 3, "velocity": 87}, {"time": 1031, "pitch": 86, "duration": 7, "velocity": 90}, {"time": 1040, "pitch": 84, "duration": 12, "velocity": 89}, {"time": 1058, "pitch": 86, "duration": 1, "velocity": 96}, {"time": 1061, "pitch": 86, "duration": 1, "velocity": 90}, {"time": 1064, "pitch": 86, "duration": 3, "velocity": 82}, {"time": 1067, "pitch": 84, "duration": 1, "velocity": 79}, {"time": 1070, "pitch": 84, "duration": 5, "velocity": 79}, {"time": 1076, "pitch": 81, "duration": 3, "velocity": 69}, {"time": 1082, "pitch": 81, "duration": 15, "velocity": 84}, {"time": 1106, "pitch": 72, "duration": 10, "velocity": 95}, {"time": 1118, "pitch": 74, "duration": 5, "velocity": 98}, {"time": 1124, "pitch": 81, "duration": 3, "velocity": 63}, {"time": 1127, "pitch": 81, "duration": 1, "velocity": 90}, {"time": 1133, "pitch": 79, "duration": 11, "velocity": 65}, {"time": 1154, "pitch": 81, "duration": 7, "velocity": 97}, {"time": 1160, "pitch": 79, "duration": 18, "velocity": 87}, {"time": 1184, "pitch": 79, "duration": 2, "velocity": 89}, {"time": 1187, "pitch": 77, "duration": 3, "velocity": 90}, {"time": 1190, "pitch": 74, "duration": 6, "velocity": 79}, {"time": 1196, "pitch": 77, "duration": 4, "velocity": 90}, {"time": 1202, "pitch": 77, "duration": 32, "velocity": 91}, {"time": 1238, "pitch": 72, "duration": 3, "velocity": 94}, {"time": 1241, "pitch": 74, "duration": 2, "velocity": 82}, {"time": 1244, "pitch": 77, "duration": 2, "velocity": 92}, {"time": 1247, "pitch": 79, "duration": 2, "velocity": 86}, {"time": 1250, "pitch": 81, "duration": 17, "velocity": 87}, {"time": 1268, "pitch": 84, "duration": 6, "velocity": 87}, {"time": 1274, "pitch": 81, "duration": 9, "velocity": 93}, {"time": 1286, "pitch": 77, "duration": 3, "velocity": 92}, {"time": 1289, "pitch": 79, "duration": 3, "velocity": 87}, {"time": 1292, "pitch": 81, "duration": 2, "velocity": 83}, {"time": 1295, "pitch": 84, "duration": 2, "velocity": 90}, {"time": 1298, "pitch": 86, "duration": 17, "velocity": 90}, {"time": 1316, "pitch": 84, "duration": 5, "velocity": 106}, {"time": 1322, "pitch": 81, "duration": 10, "velocity": 106}, {"time": 1334, "pitch": 81, "duration": 2, "velocity": 95}, {"time": 1337, "pitch": 84, "duration": 2, "velocity": 94}, {"time": 1340, "pitch": 86, "duration": 2, "velocity": 90}, {"time": 1343, "pitch": 89, "duration": 1, "velocity": 92}, {"time": 1346, "pitch": 89, "duration": 15, "velocity": 90}, {"time": 1364, "pitch": 89, "duration": 3, "velocity": 99}, {"time": 1367, "pitch": 86, "duration": 2, "velocity": 94}, {"time": 1370, "pitch": 89, "duration": 5, "velocity": 100}, {"time": 1376, "pitch": 86, "duration": 5, "velocity": 99}, {"time": 1382, "pitch": 81, "duration": 5, "velocity": 90}, {"time": 1388, "pitch": 86, "duration": 3, "velocity": 95}, {"time": 1391, "pitch": 84, "duration": 26, "velocity": 99}, {"time": 1430, "pitch": 72, "duration": 2, "velocity": 96}, {"time": 1433, "pitch": 74, "duration": 2, "velocity": 89}, {"time": 1436, "pitch": 77, "duration": 2, "velocity": 93}, {"time": 1439, "pitch": 79, "duration": 2, "velocity": 84}, {"time": 1442, "pitch": 81, "duration": 19, "velocity": 84}, {"time": 1460, "pitch": 84, "duration": 5, "velocity": 100}, {"time": 1466, "pitch": 81, "duration": 8, "velocity": 105}, {"time": 1478, "pitch": 77, "duration": 2, "velocity": 98}, {"time": 1481, "pitch": 79, "duration": 3, "velocity": 87}, {"time": 1484, "pitch": 81, "duration": 2, "velocity": 86}, {"time": 1487, "pitch": 84, "duration": 3, "velocity": 87}, {"time": 1490, "pitch": 86, "duration": 19, "velocity": 80}, {"time": 1508, "pitch": 84, "duration": 5, "velocity": 90}, {"time": 1514, "pitch": 81, "duration": 9, "velocity": 84}, {"time": 1526, "pitch": 72, "duration": 3, "velocity": 87}, {"time": 1529, "pitch": 74, "duration": 2, "velocity": 77}, {"time": 1532, "pitch": 77, "duration": 3, "velocity": 89}, {"time": 1535, "pitch": 81, "duration": 3, "velocity": 90}, {"time": 1538, "pitch": 79, "duration": 16, "velocity": 95}, {"time": 1556, "pitch": 79, "duration": 2, "velocity": 96}, {"time": 1559, "pitch": 77, "duration": 3, "velocity": 85}, {"time": 1562, "pitch": 79, "duration": 5, "velocity": 87}, {"time": 1568, "pitch": 72, "duration": 6, "velocity": 90}, {"time": 1574, "pitch": 74, "duration": 5, "velocity": 89}, {"time": 1580, "pitch": 77, "duration": 6, "velocity": 86}, {"time": 1592, "pitch": 77, "duration": 38, "velocity": 97}, {"time": 2018, "pitch": 81, "duration": 10, "velocity": 84}, {"time": 2030, "pitch": 81, "duration": 6, "velocity": 95}, {"time": 2036, "pitch": 79, "duration": 6, "velocity": 91}, {"time": 2042, "pitch": 77, "duration": 12, "velocity": 98}, {"time": 2066, "pitch": 84, "duration": 5, "velocity": 97}, {"time": 2072, "pitch": 81, "duration": 4, "velocity": 86}, {"time": 2078, "pitch": 81, "duration": 5, "velocity": 94}, {"time": 2084, "pitch": 72, "duration": 6, "velocity": 87}, {"time": 2090, "pitch": 74, "duration": 9, "velocity": 87}, {"time": 2114, "pitch": 74, "duration": 10, "velocity": 97}, {"time": 2126, "pitch": 74, "duration": 6, "velocity": 90}, {"time": 2132, "pitch": 77, "duration": 6, "velocity": 91}, {"time": 2138, "pitch": 79, "duration": 11, "velocity": 68}, {"time": 2162, "pitch": 74, "duration": 3, "velocity": 54}, {"time": 2165, "pitch": 81, "duration": 2, "velocity": 54}, {"time": 2168, "pitch": 79, "duration": 3, "velocity": 54}, {"time": 2171, "pitch": 77, "duration": 3, "velocity": 60}, {"time": 2174, "pitch": 79, "duration": 6, "velocity": 66}, {"time": 2180, "pitch": 81, "duration": 2, "velocity": 54}, {"time": 2183, "pitch": 81, "duration": 5, "velocity": 63}, {"time": 2189, "pitch": 79, "duration": 12, "velocity": 48}, {"time": 2210, "pitch": 81, "duration": 9, "velocity": 93}, {"time": 2222, "pitch": 81, "duration": 5, "velocity": 97}, {"time": 2228, "pitch": 84, "duration": 2, "velocity": 96}, {"time": 2231, "pitch": 86, "duration": 8, "velocity": 90}, {"time": 2240, "pitch": 84, "duration": 9, "velocity": 95}, {"time": 2258, "pitch": 86, "duration": 1, "velocity": 95}, {"time": 2261, "pitch": 86, "duration": 1, "velocity": 100}, {"time": 2264, "pitch": 86, "duration": 2, "velocity": 84}, {"time": 2267, "pitch": 84, "duration": 1, "velocity": 84}, {"time": 2270, "pitch": 84, "duration": 5, "velocity": 80}, {"time": 2276, "pitch": 81, "duration": 1, "velocity": 66}, {"time": 2282, "pitch": 81, "duration": 12, "velocity": 77}, {"time": 2306, "pitch": 74, "duration": 11, "velocity": 90}, {"time": 2318, "pitch": 74, "duration": 5, "velocity": 97}, {"time": 2324, "pitch": 81, "duration": 3, "velocity": 90}, {"time": 2327, "pitch": 81, "duration": 4, "velocity": 90}, {"time": 2330, "pitch": 79, "duration": 13, "velocity": 89}, {"time": 2354, "pitch": 81, "duration": 6, "velocity": 105}, {"time": 2360, "pitch": 79, "duration": 18, "velocity": 95}, {"time": 2387, "pitch": 79, "duration": 4, "velocity": 100}, {"time": 2390, "pitch": 77, "duration": 3, "velocity": 100}, {"time": 2393, "pitch": 74, "duration": 4, "velocity": 100}, {"time": 2396, "pitch": 77, "duration": 4, "velocity": 100}, {"time": 2405, "pitch": 77, "duration": 20, "velocity": 100}, {"time": 2438, "pitch": 72, "duration": 3, "velocity": 94}, {"time": 2441, "pitch": 74, "duration": 3, "velocity": 82}, {"time": 2444, "pitch": 77, "duration": 2, "velocity": 92}, {"time": 2447, "pitch": 79, "duration": 2, "velocity": 86}, {"time": 2450, "pitch": 81, "duration": 17, "velocity": 87}, {"time": 2468, "pitch": 84, "duration": 6, "velocity": 87}, {"time": 2474, "pitch": 81, "duration": 9, "velocity": 93}, {"time": 2486, "pitch": 77, "duration": 3, "velocity": 92}, {"time": 2489, "pitch": 79, "duration": 3, "velocity": 87}, {"time": 2492, "pitch": 81, "duration": 2, "velocity": 83}, {"time": 2495, "pitch": 84, "duration": 2, "velocity": 90}, {"time": 2498, "pitch": 86, "duration": 17, "velocity": 90}, {"time": 2516, "pitch": 84, "duration": 5, "velocity": 106}, {"time": 2522, "pitch": 81, "duration": 10, "velocity": 106}, {"time": 2534, "pitch": 81, "duration": 2, "velocity": 95}, {"time": 2537, "pitch": 84, "duration": 2, "velocity": 94}, {"time": 2540, "pitch": 86, "duration": 2, "velocity": 90}, {"time": 2543, "pitch": 89, "duration": 1, "velocity": 92}, {"time": 2546, "pitch": 89, "duration": 15, "velocity": 90}, {"time": 2564, "pitch": 89, "duration": 3, "velocity": 99}, {"time": 2567, "pitch": 86, "duration": 2, "velocity": 94}, {"time": 2570, "pitch": 89, "duration": 5, "velocity": 100}, {"time": 2576, "pitch": 86, "duration": 5, "velocity": 99}, {"time": 2582, "pitch": 81, "duration": 5, "velocity": 90}, {"time": 2588, "pitch": 86, "duration": 3, "velocity": 95}, {"time": 2591, "pitch": 84, "duration": 26, "velocity": 99}, {"time": 2630, "pitch": 72, "duration": 2, "velocity": 96}, {"time": 2633, "pitch": 74, "duration": 2, "velocity": 89}, {"time": 2636, "pitch": 77, "duration": 2, "velocity": 93}, {"time": 2639, "pitch": 79, "duration": 2, "velocity": 84}, {"time": 2642, "pitch": 81, "duration": 19, "velocity": 84}, {"time": 2660, "pitch": 84, "duration": 5, "velocity": 100}, {"time": 2666, "pitch": 81, "duration": 8, "velocity": 105}, {"time": 2678, "pitch": 77, "duration": 3, "velocity": 98}, {"time": 2681, "pitch": 79, "duration": 3, "velocity": 87}, {"time": 2684, "pitch": 81, "duration": 2, "velocity": 86}, {"time": 2687, "pitch": 84, "duration": 3, "velocity": 87}, {"time": 2690, "pitch": 86, "duration": 18, "velocity": 80}, {"time": 2708, "pitch": 84, "duration": 5, "velocity": 90}, {"time": 2714, "pitch": 81, "duration": 9, "velocity": 84}, {"time": 2726, "pitch": 72, "duration": 3, "velocity": 87}, {"time": 2729, "pitch": 74, "duration": 2, "velocity": 77}, {"time": 2732, "pitch": 77, "duration": 3, "velocity": 89}, {"time": 2735, "pitch": 81, "duration": 3, "velocity": 90}, {"time": 2738, "pitch": 79, "duration": 16, "velocity": 95}, {"time": 2756, "pitch": 79, "duration": 2, "velocity": 96}, {"time": 2759, "pitch": 77, "duration": 3, "velocity": 85}, {"time": 2762, "pitch": 79, "duration": 5, "velocity": 87}, {"time": 2768, "pitch": 72, "duration": 8, "velocity": 90}, {"time": 2777, "pitch": 74, "duration": 3, "velocity": 89}, {"time": 2780, "pitch": 77, "duration": 10, "velocity": 86}, {"time": 2792, "pitch": 77, "duration": 25, "velocity": 97}, {"time": 2822, "pitch": 72, "duration": 3, "velocity": 94}, {"time": 2825, "pitch": 74, "duration": 3, "velocity": 82}, {"time": 2828, "pitch": 77, "duration": 2, "velocity": 92}, {"time": 2831, "pitch": 79, "duration": 2, "velocity": 86}, {"time": 2834, "pitch": 81, "duration": 17, "velocity": 87}, {"time": 2852, "pitch": 84, "duration": 6, "velocity": 87}, {"time": 2858, "pitch": 81, "duration": 9, "velocity": 93}, {"time": 2870, "pitch": 77, "duration": 3, "velocity": 92}, {"time": 2873, "pitch": 79, "duration": 3, "velocity": 87}, {"time": 2876, "pitch": 81, "duration": 2, "velocity": 83}, {"time": 2879, "pitch": 84, "duration": 2, "velocity": 90}, {"time": 2882, "pitch": 86, "duration": 17, "velocity": 90}, {"time": 2900, "pitch": 84, "duration": 5, "velocity": 106}, {"time": 2906, "pitch": 81, "duration": 10, "velocity": 106}, {"time": 2918, "pitch": 81, "duration": 2, "velocity": 95}, {"time": 2921, "pitch": 84, "duration": 2, "velocity": 94}, {"time": 2924, "pitch": 86, "duration": 2, "velocity": 90}, {"time": 2927, "pitch": 89, "duration": 1, "velocity": 92}, {"time": 2930, "pitch": 89, "duration": 15, "velocity": 90}, {"time": 2948, "pitch": 89, "duration": 3, "velocity": 99}, {"time": 2951, "pitch": 86, "duration": 2, "velocity": 94}, {"time": 2954, "pitch": 89, "duration": 5, "velocity": 100}, {"time": 2960, "pitch": 86, "duration": 5, "velocity": 99}, {"time": 2966, "pitch": 81, "duration": 5, "velocity": 90}, {"time": 2972, "pitch": 86, "duration": 3, "velocity": 95}, {"time": 2975, "pitch": 84, "duration": 26, "velocity": 99}, {"time": 3014, "pitch": 72, "duration": 2, "velocity": 96}, {"time": 3017, "pitch": 74, "duration": 2, "velocity": 89}, {"time": 3020, "pitch": 77, "duration": 2, "velocity": 93}, {"time": 3023, "pitch": 79, "duration": 2, "velocity": 84}, {"time": 3026, "pitch": 81, "duration": 19, "velocity": 84}, {"time": 3044, "pitch": 84, "duration": 5, "velocity": 100}, {"time": 3050, "pitch": 81, "duration": 8, "velocity": 105}, {"time": 3062, "pitch": 77, "duration": 3, "velocity": 98}, {"time": 3065, "pitch": 79, "duration": 3, "velocity": 87}, {"time": 3068, "pitch": 81, "duration": 2, "velocity": 86}, {"time": 3071, "pitch": 84, "duration": 3, "velocity": 87}, {"time": 3074, "pitch": 86, "duration": 19, "velocity": 80}, {"time": 3092, "pitch": 84, "duration": 5, "velocity": 90}, {"time": 3098, "pitch": 81, "duration": 9, "velocity": 84}, {"time": 3110, "pitch": 72, "duration": 3, "velocity": 87}, {"time": 3113, "pitch": 74, "duration": 2, "velocity": 77}, {"time": 3116, "pitch": 77, "duration": 3, "velocity": 89}, {"time": 3119, "pitch": 81, "duration": 3, "velocity": 90}, {"time": 3122, "pitch": 79, "duration": 16, "velocity": 95}, {"time": 3140, "pitch": 79, "duration": 2, "velocity": 96}, {"time": 3143, "pitch": 77, "duration": 3, "velocity": 85}, {"time": 3146, "pitch": 79, "duration": 5, "velocity": 87}, {"time": 3152, "pitch": 72, "duration": 8, "velocity": 90}, {"time": 3158, "pitch": 74, "duration": 6, "velocity": 89}, {"time": 3164, "pitch": 77, "duration": 11, "velocity": 86}, {"time": 3176, "pitch": 77, "duration": 29, "velocity": 97}, {"time": 3206, "pitch": 72, "duration": 2, "velocity": 96}, {"time": 3209, "pitch": 74, "duration": 2, "velocity": 89}, {"time": 3212, "pitch": 77, "duration": 3, "velocity": 93}, {"time": 3215, "pitch": 79, "duration": 2, "velocity": 84}, {"time": 3218, "pitch": 81, "duration": 19, "velocity": 84}, {"time": 3236, "pitch": 84, "duration": 5, "velocity": 100}, {"time": 3242, "pitch": 81, "duration": 8, "velocity": 105}, {"time": 3254, "pitch": 77, "duration": 3, "velocity": 98}, {"time": 3257, "pitch": 79, "duration": 3, "velocity": 87}, {"time": 3260, "pitch": 81, "duration": 2, "velocity": 86}, {"time": 3263, "pitch": 84, "duration": 3, "velocity": 87}, {"time": 3266, "pitch": 86, "duration": 18, "velocity": 80}, {"time": 3284, "pitch": 84, "duration": 5, "velocity": 90}, {"time": 3290, "pitch": 81, "duration": 9, "velocity": 84}, {"time": 3302, "pitch": 72, "duration": 3, "velocity": 87}, {"time": 3305, "pitch": 74, "duration": 2, "velocity": 77}, {"time": 3308, "pitch": 77, "duration": 3, "velocity": 89}, {"time": 3311, "pitch": 81, "duration": 3, "velocity": 90}, {"time": 3314, "pitch": 79, "duration": 16, "velocity": 95}, {"time": 3332, "pitch": 79, "duration": 2, "velocity": 96}, {"time": 3335, "pitch": 77, "duration": 3, "velocity": 85}, {"time": 3338, "pitch": 79, "duration": 5, "velocity": 87}, {"time": 3344, "pitch": 72, "duration": 8, "velocity": 90}, {"time": 3353, "pitch": 74, "duration": 6, "velocity": 89}, {"time": 3359, "pitch": 77, "duration": 14, "velocity": 86}, {"time": 3377, "pitch": 77, "duration": 39, "velocity": 97}], "annotations": [{"time": 479, "annotation": {"number": 64, "value": 0}, "group": "control_change"}, {"time": 483, "annotation": {"number": 64, "value": 127}, "group": "control_change"}, {"time": 500, "annotation": {"number": 64, "value": 0}, "group": "control_change"}, {"time": 506, "annotation": {"number": 64, "value": 127}, "group": "control_change"}, {"time": 530, "annotation": {"number": 64, "value": 127}, "group": "control_change"}, {"time": 537, "annotation": {"number": 64, "value": 0}, "group": "control_change"}, {"time": 555, "annotation": {"number": 64, "value": 127}, "group": "control_change"}, {"time": 602, "annotation": {"number": 64, "value": 127}, "group": "control_change"}, {"time": 614, "annotation": {"number": 64, "value": 0}, "group": "control_change"}, {"time": 811, "annotation": {"number": 64, "value": 127}, "group": "control_change"}, {"time": 968, "annotation": {"number": 64, "value": 127}, "group": "control_change"}, {"time": 971, "annotation": {"number": 64, "value": 0}, "group": "control_change"}, {"time": 975, "annotation": {"number": 64, "value": 127}, "group": "control_change"}, {"time": 976, "annotation": {"number": 64, "value": 0}, "group": "control_change"}, {"time": 986, "annotation": {"number": 64, "value": 127}, "group": "control_change"}, {"time": 998, "annotation": {"number": 64, "value": 0}, "group": "control_change"}, {"time": 1011, "annotation": {"number": 64, "value": 127}, "group": "control_change"}, {"time": 1017, "annotation": {"number": 64, "value": 0}, "group": "control_change"}, {"time": 1057, "annotation": {"number": 64, "value": 127}, "group": "control_change"}, {"time": 1063, "annotation": {"number": 64, "value": 0}, "group": "control_change"}, {"time": 1085, "annotation": {"number": 64, "value": 127}, "group": "control_change"}, {"time": 1093, "annotation": {"number": 64, "value": 0}, "group": "control_change"}, {"time": 1135, "annotation": {"number": 64, "value": 127}, "group": "control_change"}, {"time": 1142, "annotation": {"number": 64, "value": 0}, "group": "control_change"}, {"time": 1154, "annotation": {"number": 64, "value": 127}, "group": "control_change"}, {"time": 1180, "annotation": {"number": 64, "value": 0}, "group": "control_change"}, {"time": 1264, "annotation": {"number": 64, "value": 127}, "group": "control_change"}, {"time": 1268, "annotation": {"number": 64, "value": 0}, "group": "control_change"}, {"time": 1274, "annotation": {"number": 64, "value": 127}, "group": "control_change"}, {"time": 1372, "annotation": {"number": 1, "value": 0}, "group": "control_change"}, {"time": 1372, "annotation": {"number": 1, "value": 1}, "group": "control_change"}, {"time": 1372, "annotation": {"number": 1, "value": 2}, "group": "control_change"}, {"time": 1382, "annotation": {"number": 1, "value": 1}, "group": "control_change"}, {"time": 1401, "annotation": {"number": 1, "value": 2}, "group": "control_change"}, {"time": 1402, "annotation": {"number": 1, "value": 1}, "group": "control_change"}, {"time": 1409, "annotation": {"number": 1, "value": 0}, "group": "control_change"}, {"time": 1410, "annotation": {"number": 1, "value": 1}, "group": "control_change"}, {"time": 1442, "annotation": {"number": 64, "value": 127}, "group": "control_change"}, {"time": 1454, "annotation": {"number": 64, "value": 0}, "group": "control_change"}, {"time": 1463, "annotation": {"number": 1, "value": 0}, "group": "control_change"}, {"time": 1463, "annotation": {"number": 1, "value": 1}, "group": "control_change"}, {"time": 1490, "annotation": {"number": 64, "value": 127}, "group": "control_change"}, {"time": 1494, "annotation": {"number": 64, "value": 0}, "group": "control_change"}, {"time": 1592, "annotation": {"number": 64, "value": 127}, "group": "control_change"}, {"time": 1601, "annotation": {"number": 64, "value": 0}, "group": "control_change"}, {"time": 2063, "annotation": {"number": 64, "value": 0}, "group": "control_change"}, {"time": 2067, "annotation": {"number": 64, "value": 127}, "group": "control_change"}, {"time": 2084, "annotation": {"number": 64, "value": 0}, "group": "control_change"}, {"time": 2090, "annotation": {"number": 64, "value": 127}, "group": "control_change"}, {"time": 2114, "annotation": {"number": 64, "value": 127}, "group": "control_change"}, {"time": 2121, "annotation": {"number": 64, "value": 0}, "group": "control_change"}, {"time": 2139, "annotation": {"number": 64, "value": 127}, "group": "control_change"}, {"time": 2186, "annotation": {"number": 64, "value": 127}, "group": "control_change"}, {"time": 2198, "annotation": {"number": 64, "value": 0}, "group": "control_change"}, {"time": 2395, "annotation": {"number": 64, "value": 127}, "group": "control_change"}, {"time": 2464, "annotation": {"number": 64, "value": 127}, "group": "control_change"}, {"time": 2468, "annotation": {"number": 64, "value": 0}, "group": "control_change"}, {"time": 2474, "annotation": {"number": 64, "value": 127}, "group": "control_change"}, {"time": 2572, "annotation": {"number": 1, "value": 0}, "group": "control_change"}, {"time": 2572, "annotation": {"number": 1, "value": 1}, "group": "control_change"}, {"time": 2572, "annotation": {"number": 1, "value": 2}, "group": "control_change"}, {"time": 2582, "annotation": {"number": 1, "value": 1}, "group": "control_change"}, {"time": 2601, "annotation": {"number": 1, "value": 2}, "group": "control_change"}, {"time": 2602, "annotation": {"number": 1, "value": 1}, "group": "control_change"}, {"time": 2609, "annotation": {"number": 1, "value": 0}, "group": "control_change"}, {"time": 2610, "annotation": {"number": 1, "value": 1}, "group": "control_change"}, {"time": 2642, "annotation": {"number": 64, "value": 127}, "group": "control_change"}, {"time": 2654, "annotation": {"number": 64, "value": 0}, "group": "control_change"}, {"time": 2663, "annotation": {"number": 1, "value": 0}, "group": "control_change"}, {"time": 2663, "annotation": {"number": 1, "value": 1}, "group": "control_change"}, {"time": 2690, "annotation": {"number": 64, "value": 127}, "group": "control_change"}, {"time": 2694, "annotation": {"number": 64, "value": 0}, "group": "control_change"}, {"time": 2792, "annotation": {"number": 64, "value": 127}, "group": "control_change"}, {"time": 2801, "annotation": {"number": 64, "value": 0}, "group": "control_change"}, {"time": 2848, "annotation": {"number": 64, "value": 127}, "group": "control_change"}, {"time": 2852, "annotation": {"number": 64, "value": 0}, "group": "control_change"}, {"time": 2858, "annotation": {"number": 64, "value": 127}, "group": "control_change"}, {"time": 2956, "annotation": {"number": 1, "value": 0}, "group": "control_change"}, {"time": 2956, "annotation": {"number": 1, "value": 1}, "group": "control_change"}, {"time": 2957, "annotation": {"number": 1, "value": 2}, "group": "control_change"}, {"time": 2966, "annotation": {"number": 1, "value": 1}, "group": "control_change"}, {"time": 2986, "annotation": {"number": 1, "value": 2}, "group": "control_change"}, {"time": 2986, "annotation": {"number": 1, "value": 1}, "group": "control_change"}, {"time": 2994, "annotation": {"number": 1, "value": 0}, "group": "control_change"}, {"time": 2994, "annotation": {"number": 1, "value": 1}, "group": "control_change"}, {"time": 3026, "annotation": {"number": 64, "value": 127}, "group": "control_change"}, {"time": 3038, "annotation": {"number": 64, "value": 0}, "group": "control_change"}, {"time": 3047, "annotation": {"number": 1, "value": 0}, "group": "control_change"}, {"time": 3047, "annotation": {"number": 1, "value": 1}, "group": "control_change"}, {"time": 3074, "annotation": {"number": 64, "value": 127}, "group": "control_change"}, {"time": 3078, "annotation": {"number": 64, "value": 0}, "group": "control_change"}, {"time": 3176, "annotation": {"number": 64, "value": 127}, "group": "control_change"}, {"time": 3185, "annotation": {"number": 64, "value": 0}, "group": "control_change"}, {"time": 3218, "annotation": {"number": 64, "value": 127}, "group": "control_change"}, {"time": 3230, "annotation": {"number": 64, "value": 0}, "group": "control_change"}, {"time": 3239, "annotation": {"number": 1, "value": 0}, "group": "control_change"}, {"time": 3239, "annotation": {"number": 1, "value": 1}, "group": "control_change"}, {"time": 3266, "annotation": {"number": 64, "value": 127}, "group": "control_change"}, {"time": 3270, "annotation": {"number": 64, "value": 0}, "group": "control_change"}, {"time": 3368, "annotation": {"number": 64, "value": 127}, "group": "control_change"}, {"time": 3376, "annotation": {"number": 64, "value": 0}, "group": "control_change"}]}, {"program": 0, "is_drum": false, "name": "PIANO", "notes": [{"time": 50, "pitch": 41, "duration": 18, "velocity": 55}, {"time": 56, "pitch": 48, "duration": 6, "velocity": 46}, {"time": 62, "pitch": 53, "duration": 6, "velocity": 45}, {"time": 68, "pitch": 48, "duration": 6, "velocity": 43}, {"time": 74, "pitch": 55, "duration": 6, "velocity": 31}, {"time": 80, "pitch": 48, "duration": 6, "velocity": 49}, {"time": 86, "pitch": 57, "duration": 5, "velocity": 47}, {"time": 92, "pitch": 48, "duration": 1, "velocity": 63}, {"time": 98, "pitch": 38, "duration": 6, "velocity": 53}, {"time": 104, "pitch": 45, "duration": 6, "velocity": 44}, {"time": 110, "pitch": 53, "duration": 6, "velocity": 48}, {"time": 116, "pitch": 45, "duration": 6, "velocity": 37}, {"time": 122, "pitch": 55, "duration": 6, "velocity": 43}, {"time": 128, "pitch": 45, "duration": 6, "velocity": 45}, {"time": 134, "pitch": 57, "duration": 6, "velocity": 37}, {"time": 140, "pitch": 45, "duration": 2, "velocity": 58}, {"time": 146, "pitch": 43, "duration": 10, "velocity": 60}, {"time": 152, "pitch": 50, "duration": 7, "velocity": 53}, {"time": 158, "pitch": 55, "duration": 6, "velocity": 56}, {"time": 164, "pitch": 50, "duration": 6, "velocity": 37}, {"time": 170, "pitch": 57, "duration": 6, "velocity": 42}, {"time": 176, "pitch": 50, "duration": 7, "velocity": 50}, {"time": 182, "pitch": 58, "duration": 5, "velocity": 52}, {"time": 188, "pitch": 50, "duration": 1, "velocity": 62}, {"time": 194, "pitch": 36, "duration": 6, "velocity": 63}, {"time": 200, "pitch": 48, "duration": 7, "velocity": 54}, {"time": 206, "pitch": 50, "duration": 11, "velocity": 64}, {"time": 212, "pitch": 53, "duration": 6, "velocity": 38}, {"time": 218, "pitch": 55, "duration": 6, "velocity": 57}, {"time": 218, "pitch": 60, "duration": 8, "velocity": 50}, {"time": 218, "pitch": 64, "duration": 8, "velocity": 70}, {"time": 224, "pitch": 57, "duration": 12, "velocity": 56}, {"time": 230, "pitch": 60, "duration": 5, "velocity": 58}, {"time": 236, "pitch": 64, "duration": 2, "velocity": 52}, {"time": 242, "pitch": 41, "duration": 38, "velocity": 70}, {"time": 248, "pitch": 53, "duration": 9, "velocity": 38}, {"time": 254, "pitch": 55, "duration": 7, "velocity": 52}, {"time": 254, "pitch": 57, "duration": 6, "velocity": 58}, {"time": 254, "pitch": 60, "duration": 6, "velocity": 60}, {"time": 254, "pitch": 65, "duration": 8, "velocity": 51}, {"time": 260, "pitch": 53, "duration": 9, "velocity": 33}, {"time": 266, "pitch": 55, "duration": 8, "velocity": 58}, {"time": 266, "pitch": 57, "duration": 7, "velocity": 62}, {"time": 266, "pitch": 60, "duration": 7, "velocity": 67}, {"time": 266, "pitch": 65, "duration": 9, "velocity": 56}, {"time": 272, "pitch": 53, "duration": 6, "velocity": 24}, {"time": 278, "pitch": 55, "duration": 6, "velocity": 64}, {"time": 278, "pitch": 57, "duration": 6, "velocity": 67}, {"time": 278, "pitch": 60, "duration": 6, "velocity": 70}, {"time": 278, "pitch": 65, "duration": 7, "velocity": 59}, {"time": 284, "pitch": 40, "duration": 4, "velocity": 46}, {"time": 290, "pitch": 38, "duration": 41, "velocity": 58}, {"time": 290, "pitch": 50, "duration": 16, "velocity": 56}, {"time": 290, "pitch": 53, "duration": 7, "velocity": 59}, {"time": 290, "pitch": 57, "duration": 7, "velocity": 60}, {"time": 290, "pitch": 60, "duration": 7, "velocity": 66}, {"time": 290, "pitch": 65, "duration": 6, "velocity": 28}, {"time": 302, "pitch": 53, "duration": 6, "velocity": 56}, {"time": 302, "pitch": 57, "duration": 6, "velocity": 56}, {"time": 302, "pitch": 60, "duration": 6, "velocity": 58}, {"time": 302, "pitch": 65, "duration": 6, "velocity": 54}, {"time": 308, "pitch": 50, "duration": 7, "velocity": 31}, {"time": 314, "pitch": 53, "duration": 7, "velocity": 48}, {"time": 314, "pitch": 57, "duration": 6, "velocity": 57}, {"time": 314, "pitch": 60, "duration": 6, "velocity": 59}, {"time": 314, "pitch": 65, "duration": 8, "velocity": 52}, {"time": 320, "pitch": 50, "duration": 7, "velocity": 41}, {"time": 326, "pitch": 53, "duration": 6, "velocity": 61}, {"time": 326, "pitch": 57, "duration": 6, "velocity": 64}, {"time": 326, "pitch": 60, "duration": 6, "velocity": 70}, {"time": 326, "pitch": 65, "duration": 6, "velocity": 57}, {"time": 332, "pitch": 50, "duration": 1, "velocity": 57}, {"time": 338, "pitch": 43, "duration": 19, "velocity": 64}, {"time": 338, "pitch": 53, "duration": 6, "velocity": 59}, {"time": 338, "pitch": 58, "duration": 6, "velocity": 66}, {"time": 338, "pitch": 62, "duration": 6, "velocity": 63}, {"time": 338, "pitch": 65, "duration": 6, "velocity": 57}, {"time": 344, "pitch": 50, "duration": 7, "velocity": 40}, {"time": 350, "pitch": 58, "duration": 6, "velocity": 69}, {"time": 350, "pitch": 62, "duration": 6, "velocity": 67}, {"time": 350, "pitch": 65, "duration": 6, "velocity": 44}, {"time": 356, "pitch": 50, "duration": 1, "velocity": 69}, {"time": 362, "pitch": 36, "duration": 17, "velocity": 67}, {"time": 362, "pitch": 53, "duration": 5, "velocity": 64}, {"time": 362, "pitch": 58, "duration": 6, "velocity": 66}, {"time": 362, "pitch": 62, "duration": 6, "velocity": 66}, {"time": 368, "pitch": 48, "duration": 10, "velocity": 49}, {"time": 374, "pitch": 55, "duration": 5, "velocity": 63}, {"time": 374, "pitch": 60, "duration": 5, "velocity": 69}, {"time": 374, "pitch": 64, "duration": 5, "velocity": 75}, {"time": 380, "pitch": 40, "duration": 1, "velocity": 75}, {"time": 386, "pitch": 41, "duration": 42, "velocity": 67}, {"time": 386, "pitch": 57, "duration": 5, "velocity": 72}, {"time": 386, "pitch": 60, "duration": 6, "velocity": 70}, {"time": 386, "pitch": 65, "duration": 6, "velocity": 66}, {"time": 398, "pitch": 53, "duration": 5, "velocity": 36}, {"time": 401, "pitch": 58, "duration": 5, "velocity": 70}, {"time": 401, "pitch": 62, "duration": 5, "velocity": 63}, {"time": 407, "pitch": 53, "duration": 20, "velocity": 33}, {"time": 410, "pitch": 57, "duration": 13, "velocity": 46}, {"time": 410, "pitch": 60, "duration": 12, "velocity": 44}, {"time": 410, "pitch": 65, "duration": 13, "velocity": 46}, {"time": 428, "pitch": 60, "duration": 4, "velocity": 39}, {"time": 434, "pitch": 53, "duration": 40, "velocity": 49}, {"time": 434, "pitch": 69, "duration": 5, "velocity": 49}, {"time": 434, "pitch": 77, "duration": 7, "velocity": 62}, {"time": 440, "pitch": 60, "duration": 8, "velocity": 36}, {"time": 446, "pitch": 65, "duration": 6, "velocity": 43}, {"time": 446, "pitch": 67, "duration": 4, "velocity": 51}, {"time": 446, "pitch": 72, "duration": 4, "velocity": 54}, {"time": 452, "pitch": 60, "duration": 6, "velocity": 24}, {"time": 458, "pitch": 65, "duration": 14, "velocity": 38}, {"time": 458, "pitch": 67, "duration": 5, "velocity": 40}, {"time": 458, "pitch": 69, "duration": 5, "velocity": 44}, {"time": 458, "pitch": 72, "duration": 6, "velocity": 44}, {"time": 464, "pitch": 60, "duration": 4, "velocity": 30}, {"time": 470, "pitch": 67, "duration": 2, "velocity": 52}, {"time": 470, "pitch": 69, "duration": 2, "velocity": 60}, {"time": 470, "pitch": 72, "duration": 2, "velocity": 57}, {"time": 476, "pitch": 60, "duration": 1, "velocity": 62}, {"time": 482, "pitch": 45, "duration": 18, "velocity": 70}, {"time": 482, "pitch": 64, "duration": 6, "velocity": 53}, {"time": 482, "pitch": 67, "duration": 6, "velocity": 59}, {"time": 482, "pitch": 72, "duration": 5, "velocity": 52}, {"time": 488, "pitch": 57, "duration": 8, "velocity": 33}, {"time": 494, "pitch": 64, "duration": 6, "velocity": 53}, {"time": 494, "pitch": 67, "duration": 5, "velocity": 65}, {"time": 494, "pitch": 72, "duration": 6, "velocity": 52}, {"time": 500, "pitch": 57, "duration": 5, "velocity": 46}, {"time": 506, "pitch": 50, "duration": 19, "velocity": 66}, {"time": 506, "pitch": 60, "duration": 5, "velocity": 56}, {"time": 506, "pitch": 65, "duration": 6, "velocity": 60}, {"time": 506, "pitch": 69, "duration": 5, "velocity": 53}, {"time": 512, "pitch": 57, "duration": 7, "velocity": 42}, {"time": 518, "pitch": 60, "duration": 5, "velocity": 56}, {"time": 518, "pitch": 65, "duration": 6, "velocity": 60}, {"time": 518, "pitch": 69, "duration": 6, "velocity": 58}, {"time": 524, "pitch": 57, "duration": 1, "velocity": 45}, {"time": 530, "pitch": 46, "duration": 20, "velocity": 60}, {"time": 530, "pitch": 62, "duration": 6, "velocity": 55}, {"time": 530, "pitch": 65, "duration": 5, "velocity": 65}, {"time": 530, "pitch": 70, "duration": 7, "velocity": 46}, {"time": 536, "pitch": 53, "duration": 6, "velocity": 39}, {"time": 542, "pitch": 58, "duration": 6, "velocity": 48}, {"time": 542, "pitch": 60, "duration": 5, "velocity": 66}, {"time": 542, "pitch": 65, "duration": 8, "velocity": 74}, {"time": 548, "pitch": 53, "duration": 5, "velocity": 36}, {"time": 554, "pitch": 48, "duration": 20, "velocity": 78}, {"time": 554, "pitch": 60, "duration": 5, "velocity": 56}, {"time": 554, "pitch": 65, "duration": 5, "velocity": 60}, {"time": 554, "pitch": 69, "duration": 5, "velocity": 48}, {"time": 557, "pitch": 67, "duration": 2, "velocity": 29}, {"time": 560, "pitch": 55, "duration": 6, "velocity": 49}, {"time": 566, "pitch": 60, "duration": 8, "velocity": 49}, {"time": 566, "pitch": 65, "duration": 6, "velocity": 69}, {"time": 566, "pitch": 67, "duration": 6, "velocity": 58}, {"time": 566, "pitch": 72, "duration": 6, "velocity": 53}, {"time": 575, "pitch": 55, "duration": 1, "velocity": 22}, {"time": 578, "pitch": 48, "duration": 9, "velocity": 58}, {"time": 578, "pitch": 62, "duration": 7, "velocity": 55}, {"time": 578, "pitch": 64, "duration": 9, "velocity": 68}, {"time": 578, "pitch": 67, "duration": 9, "velocity": 66}, {"time": 584, "pitch": 55, "duration": 5, "velocity": 51}, {"time": 590, "pitch": 60, "duration": 6, "velocity": 71}, {"time": 596, "pitch": 62, "duration": 21, "velocity": 61}, {"time": 602, "pitch": 64, "duration": 15, "velocity": 65}, {"time": 608, "pitch": 67, "duration": 3, "velocity": 64}, {"time": 614, "pitch": 72, "duration": 6, "velocity": 61}, {"time": 620, "pitch": 77, "duration": 1, "velocity": 79}, {"time": 626, "pitch": 41, "duration": 34, "velocity": 48}, {"time": 626, "pitch": 53, "duration": 27, "velocity": 46}, {"time": 626, "pitch": 60, "duration": 8, "velocity": 51}, {"time": 626, "pitch": 65, "duration": 6, "velocity": 55}, {"time": 626, "pitch": 67, "duration": 8, "velocity": 52}, {"time": 626, "pitch": 69, "duration": 7, "velocity": 49}, {"time": 626, "pitch": 72, "duration": 7, "velocity": 36}, {"time": 638, "pitch": 60, "duration": 8, "velocity": 46}, {"time": 638, "pitch": 65, "duration": 7, "velocity": 56}, {"time": 638, "pitch": 67, "duration": 8, "velocity": 52}, {"time": 638, "pitch": 69, "duration": 7, "velocity": 50}, {"time": 638, "pitch": 72, "duration": 7, "velocity": 23}, {"time": 650, "pitch": 60, "duration": 7, "velocity": 46}, {"time": 650, "pitch": 65, "duration": 6, "velocity": 56}, {"time": 650, "pitch": 67, "duration": 7, "velocity": 48}, {"time": 650, "pitch": 69, "duration": 7, "velocity": 51}, {"time": 650, "pitch": 72, "duration": 6, "velocity": 22}, {"time": 656, "pitch": 53, "duration": 12, "velocity": 28}, {"time": 662, "pitch": 60, "duration": 6, "velocity": 65}, {"time": 662, "pitch": 65, "duration": 6, "velocity": 72}, {"time": 662, "pitch": 67, "duration": 6, "velocity": 51}, {"time": 662, "pitch": 69, "duration": 6, "velocity": 47}, {"time": 668, "pitch": 52, "duration": 7, "velocity": 49}, {"time": 674, "pitch": 50, "duration": 39, "velocity": 69}, {"time": 674, "pitch": 60, "duration": 7, "velocity": 52}, {"time": 674, "pitch": 65, "duration": 7, "velocity": 69}, {"time": 674, "pitch": 69, "duration": 7, "velocity": 51}, {"time": 686, "pitch": 60, "duration": 6, "velocity": 55}, {"time": 686, "pitch": 65, "duration": 6, "velocity": 56}, {"time": 686, "pitch": 69, "duration": 6, "velocity": 45}, {"time": 686, "pitch": 72, "duration": 5, "velocity": 30}, {"time": 698, "pitch": 60, "duration": 6, "velocity": 41}, {"time": 698, "pitch": 65, "duration": 7, "velocity": 45}, {"time": 698, "pitch": 69, "duration": 7, "velocity": 35}, {"time": 710, "pitch": 60, "duration": 7, "velocity": 63}, {"time": 710, "pitch": 65, "duration": 6, "velocity": 71}, {"time": 710, "pitch": 69, "duration": 6, "velocity": 61}, {"time": 716, "pitch": 67, "duration": 3, "velocity": 60}, {"time": 719, "pitch": 69, "duration": 1, "velocity": 31}, {"time": 722, "pitch": 48, "duration": 41, "velocity": 53}, {"time": 722, "pitch": 60, "duration": 4, "velocity": 51}, {"time": 722, "pitch": 64, "duration": 5, "velocity": 64}, {"time": 722, "pitch": 67, "duration": 5, "velocity": 63}, {"time": 728, "pitch": 55, "duration": 7, "velocity": 41}, {"time": 734, "pitch": 60, "duration": 7, "velocity": 47}, {"time": 734, "pitch": 62, "duration": 6, "velocity": 58}, {"time": 734, "pitch": 67, "duration": 6, "velocity": 69}, {"time": 740, "pitch": 64, "duration": 3, "velocity": 67}, {"time": 743, "pitch": 55, "duration": 24, "velocity": 17}, {"time": 746, "pitch": 60, "duration": 17, "velocity": 40}, {"time": 746, "pitch": 64, "duration": 1, "velocity": 48}, {"time": 746, "pitch": 72, "duration": 1, "velocity": 70}, {"time": 752, "pitch": 74, "duration": 2, "velocity": 55}, {"time": 758, "pitch": 76, "duration": 1, "velocity": 77}, {"time": 764, "pitch": 77, "duration": 1, "velocity": 56}, {"time": 770, "pitch": 48, "duration": 20, "velocity": 65}, {"time": 770, "pitch": 67, "duration": 5, "velocity": 65}, {"time": 770, "pitch": 72, "duration": 4, "velocity": 54}, {"time": 770, "pitch": 76, "duration": 4, "velocity": 62}, {"time": 770, "pitch": 79, "duration": 3, "velocity": 59}, {"time": 776, "pitch": 55, "duration": 12, "velocity": 47}, {"time": 782, "pitch": 60, "duration": 3, "velocity": 50}, {"time": 782, "pitch": 65, "duration": 6, "velocity": 76}, {"time": 788, "pitch": 67, "duration": 1, "velocity": 58}, {"time": 794, "pitch": 48, "duration": 8, "velocity": 71}, {"time": 794, "pitch": 69, "duration": 1, "velocity": 61}, {"time": 800, "pitch": 55, "duration": 6, "velocity": 56}, {"time": 803, "pitch": 60, "duration": 3, "velocity": 64}, {"time": 806, "pitch": 65, "duration": 3, "velocity": 72}, {"time": 809, "pitch": 67, "duration": 2, "velocity": 67}, {"time": 812, "pitch": 69, "duration": 3, "velocity": 71}, {"time": 815, "pitch": 72, "duration": 1, "velocity": 54}, {"time": 818, "pitch": 41, "duration": 38, "velocity": 38}, {"time": 818, "pitch": 53, "duration": 15, "velocity": 47}, {"time": 818, "pitch": 60, "duration": 7, "velocity": 67}, {"time": 818, "pitch": 65, "duration": 8, "velocity": 74}, {"time": 818, "pitch": 69, "duration": 7, "velocity": 65}, {"time": 830, "pitch": 60, "duration": 7, "velocity": 52}, {"time": 830, "pitch": 65, "duration": 7, "velocity": 52}, {"time": 830, "pitch": 67, "duration": 7, "velocity": 51}, {"time": 830, "pitch": 69, "duration": 7, "velocity": 51}, {"time": 836, "pitch": 53, "duration": 8, "velocity": 21}, {"time": 842, "pitch": 60, "duration": 6, "velocity": 51}, {"time": 842, "pitch": 65, "duration": 6, "velocity": 51}, {"time": 842, "pitch": 67, "duration": 6, "velocity": 63}, {"time": 842, "pitch": 69, "duration": 6, "velocity": 46}, {"time": 848, "pitch": 53, "duration": 6, "velocity": 24}, {"time": 854, "pitch": 60, "duration": 3, "velocity": 65}, {"time": 854, "pitch": 65, "duration": 3, "velocity": 77}, {"time": 854, "pitch": 69, "duration": 4, "velocity": 72}, {"time": 860, "pitch": 60, "duration": 2, "velocity": 52}, {"time": 860, "pitch": 67, "duration": 3, "velocity": 74}, {"time": 866, "pitch": 45, "duration": 14, "velocity": 62}, {"time": 866, "pitch": 60, "duration": 7, "velocity": 75}, {"time": 866, "pitch": 65, "duration": 6, "velocity": 80}, {"time": 878, "pitch": 57, "duration": 13, "velocity": 52}, {"time": 878, "pitch": 60, "duration": 6, "velocity": 57}, {"time": 878, "pitch": 64, "duration": 7, "velocity": 68}, {"time": 878, "pitch": 67, "duration": 5, "velocity": 63}, {"time": 890, "pitch": 50, "duration": 14, "velocity": 28}, {"time": 890, "pitch": 60, "duration": 6, "velocity": 66}, {"time": 890, "pitch": 65, "duration": 7, "velocity": 77}, {"time": 902, "pitch": 60, "duration": 6, "velocity": 63}, {"time": 902, "pitch": 65, "duration": 7, "velocity": 75}, {"time": 908, "pitch": 50, "duration": 4, "velocity": 62}, {"time": 914, "pitch": 46, "duration": 21, "velocity": 55}, {"time": 914, "pitch": 58, "duration": 17, "velocity": 39}, {"time": 914, "pitch": 62, "duration": 6, "velocity": 57}, {"time": 914, "pitch": 65, "duration": 6, "velocity": 62}, {"time": 914, "pitch": 70, "duration": 4, "velocity": 38}, {"time": 926, "pitch": 62, "duration": 6, "velocity": 64}, {"time": 926, "pitch": 65, "duration": 7, "velocity": 70}, {"time": 926, "pitch": 70, "duration": 8, "velocity": 57}, {"time": 938, "pitch": 43, "duration": 19, "velocity": 67}, {"time": 938, "pitch": 55, "duration": 17, "velocity": 62}, {"time": 938, "pitch": 58, "duration": 9, "velocity": 73}, {"time": 938, "pitch": 62, "duration": 8, "velocity": 75}, {"time": 938, "pitch": 67, "duration": 9, "velocity": 72}, {"time": 950, "pitch": 58, "duration": 7, "velocity": 64}, {"time": 950, "pitch": 62, "duration": 7, "velocity": 72}, {"time": 950, "pitch": 67, "duration": 9, "velocity": 70}, {"time": 962, "pitch": 36, "duration": 18, "velocity": 67}, {"time": 962, "pitch": 48, "duration": 14, "velocity": 59}, {"time": 962, "pitch": 60, "duration": 9, "velocity": 70}, {"time": 962, "pitch": 64, "duration": 9, "velocity": 76}, {"time": 962, "pitch": 67, "duration": 9, "velocity": 76}, {"time": 974, "pitch": 60, "duration": 5, "velocity": 72}, {"time": 974, "pitch": 64, "duration": 5, "velocity": 75}, {"time": 974, "pitch": 67, "duration": 5, "velocity": 73}, {"time": 980, "pitch": 48, "duration": 5, "velocity": 49}, {"time": 986, "pitch": 36, "duration": 18, "velocity": 63}, {"time": 986, "pitch": 60, "duration": 4, "velocity": 61}, {"time": 986, "pitch": 64, "duration": 4, "velocity": 63}, {"time": 986, "pitch": 72, "duration": 5, "velocity": 73}, {"time": 992, "pitch": 48, "duration": 9, "velocity": 49}, {"time": 998, "pitch": 72, "duration": 4, "velocity": 64}, {"time": 998, "pitch": 76, "duration": 5, "velocity": 88}, {"time": 1004, "pitch": 48, "duration": 5, "velocity": 54}, {"time": 1004, "pitch": 74, "duration": 5, "velocity": 69}, {"time": 1004, "pitch": 77, "duration": 5, "velocity": 69}, {"time": 1010, "pitch": 41, "duration": 36, "velocity": 63}, {"time": 1016, "pitch": 53, "duration": 8, "velocity": 51}, {"time": 1022, "pitch": 57, "duration": 6, "velocity": 73}, {"time": 1022, "pitch": 60, "duration": 6, "velocity": 73}, {"time": 1022, "pitch": 65, "duration": 6, "velocity": 69}, {"time": 1028, "pitch": 53, "duration": 9, "velocity": 31}, {"time": 1034, "pitch": 57, "duration": 6, "velocity": 63}, {"time": 1034, "pitch": 60, "duration": 6, "velocity": 67}, {"time": 1034, "pitch": 65, "duration": 6, "velocity": 60}, {"time": 1040, "pitch": 53, "duration": 8, "velocity": 37}, {"time": 1046, "pitch": 57, "duration": 9, "velocity": 73}, {"time": 1046, "pitch": 60, "duration": 9, "velocity": 73}, {"time": 1046, "pitch": 65, "duration": 9, "velocity": 66}, {"time": 1052, "pitch": 40, "duration": 3, "velocity": 74}, {"time": 1052, "pitch": 53, "duration": 1, "velocity": 48}, {"time": 1058, "pitch": 38, "duration": 42, "velocity": 69}, {"time": 1058, "pitch": 50, "duration": 16, "velocity": 70}, {"time": 1058, "pitch": 57, "duration": 9, "velocity": 75}, {"time": 1058, "pitch": 60, "duration": 10, "velocity": 73}, {"time": 1058, "pitch": 65, "duration": 9, "velocity": 70}, {"time": 1070, "pitch": 57, "duration": 8, "velocity": 72}, {"time": 1070, "pitch": 60, "duration": 8, "velocity": 75}, {"time": 1070, "pitch": 65, "duration": 7, "velocity": 70}, {"time": 1076, "pitch": 50, "duration": 8, "velocity": 27}, {"time": 1082, "pitch": 57, "duration": 6, "velocity": 60}, {"time": 1082, "pitch": 60, "duration": 6, "velocity": 63}, {"time": 1082, "pitch": 65, "duration": 7, "velocity": 60}, {"time": 1088, "pitch": 50, "duration": 8, "velocity": 42}, {"time": 1094, "pitch": 57, "duration": 7, "velocity": 60}, {"time": 1094, "pitch": 60, "duration": 7, "velocity": 67}, {"time": 1094, "pitch": 65, "duration": 7, "velocity": 60}, {"time": 1100, "pitch": 50, "duration": 2, "velocity": 61}, {"time": 1106, "pitch": 43, "duration": 17, "velocity": 60}, {"time": 1106, "pitch": 58, "duration": 5, "velocity": 73}, {"time": 1106, "pitch": 62, "duration": 5, "velocity": 69}, {"time": 1112, "pitch": 50, "duration": 6, "velocity": 41}, {"time": 1118, "pitch": 55, "duration": 6, "velocity": 48}, {"time": 1118, "pitch": 58, "duration": 5, "velocity": 56}, {"time": 1118, "pitch": 62, "duration": 6, "velocity": 64}, {"time": 1118, "pitch": 67, "duration": 5, "velocity": 61}, {"time": 1124, "pitch": 50, "duration": 7, "velocity": 48}, {"time": 1130, "pitch": 43, "duration": 18, "velocity": 66}, {"time": 1130, "pitch": 58, "duration": 4, "velocity": 56}, {"time": 1130, "pitch": 62, "duration": 4, "velocity": 63}, {"time": 1130, "pitch": 67, "duration": 4, "velocity": 61}, {"time": 1136, "pitch": 50, "duration": 6, "velocity": 41}, {"time": 1142, "pitch": 55, "duration": 7, "velocity": 44}, {"time": 1142, "pitch": 62, "duration": 2, "velocity": 64}, {"time": 1142, "pitch": 70, "duration": 4, "velocity": 75}, {"time": 1148, "pitch": 50, "duration": 5, "velocity": 60}, {"time": 1148, "pitch": 65, "duration": 5, "velocity": 70}, {"time": 1154, "pitch": 48, "duration": 17, "velocity": 59}, {"time": 1154, "pitch": 60, "duration": 5, "velocity": 63}, {"time": 1154, "pitch": 64, "duration": 2, "velocity": 49}, {"time": 1154, "pitch": 67, "duration": 7, "velocity": 72}, {"time": 1160, "pitch": 55, "duration": 11, "velocity": 49}, {"time": 1166, "pitch": 60, "duration": 3, "velocity": 47}, {"time": 1166, "pitch": 65, "duration": 6, "velocity": 69}, {"time": 1172, "pitch": 67, "duration": 3, "velocity": 62}, {"time": 1178, "pitch": 36, "duration": 6, "velocity": 70}, {"time": 1178, "pitch": 53, "duration": 4, "velocity": 58}, {"time": 1178, "pitch": 58, "duration": 5, "velocity": 49}, {"time": 1178, "pitch": 62, "duration": 5, "velocity": 57}, {"time": 1184, "pitch": 48, "duration": 4, "velocity": 59}, {"time": 1190, "pitch": 38, "duration": 5, "velocity": 46}, {"time": 1190, "pitch": 60, "duration": 6, "velocity": 66}, {"time": 1190, "pitch": 64, "duration": 6, "velocity": 73}, {"time": 1196, "pitch": 40, "duration": 4, "velocity": 69}, {"time": 1202, "pitch": 41, "duration": 22, "velocity": 73}, {"time": 1202, "pitch": 58, "duration": 6, "velocity": 73}, {"time": 1202, "pitch": 65, "duration": 6, "velocity": 67}, {"time": 1205, "pitch": 48, "duration": 21, "velocity": 60}, {"time": 1208, "pitch": 53, "duration": 9, "velocity": 58}, {"time": 1211, "pitch": 57, "duration": 5, "velocity": 70}, {"time": 1217, "pitch": 58, "duration": 7, "velocity": 73}, {"time": 1223, "pitch": 53, "duration": 4, "velocity": 56}, {"time": 1226, "pitch": 41, "duration": 1, "velocity": 70}, {"time": 1226, "pitch": 57, "duration": 1, "velocity": 67}, {"time": 1226, "pitch": 60, "duration": 1, "velocity": 69}, {"time": 1226, "pitch": 65, "duration": 1, "velocity": 54}, {"time": 1229, "pitch": 41, "duration": 2, "velocity": 76}, {"time": 1229, "pitch": 53, "duration": 1, "velocity": 76}, {"time": 1229, "pitch": 57, "duration": 1, "velocity": 80}, {"time": 1229, "pitch": 60, "duration": 1, "velocity": 76}, {"time": 1229, "pitch": 65, "duration": 1, "velocity": 73}, {"time": 1238, "pitch": 36, "duration": 4, "velocity": 70}, {"time": 1238, "pitch": 55, "duration": 6, "velocity": 70}, {"time": 1238, "pitch": 60, "duration": 7, "velocity": 67}, {"time": 1238, "pitch": 64, "duration": 7, "velocity": 80}, {"time": 1241, "pitch": 38, "duration": 3, "velocity": 63}, {"time": 1244, "pitch": 40, "duration": 2, "velocity": 78}, {"time": 1247, "pitch": 55, "duration": 1, "velocity": 48}, {"time": 1250, "pitch": 41, "duration": 18, "velocity": 72}, {"time": 1250, "pitch": 57, "duration": 6, "velocity": 73}, {"time": 1250, "pitch": 60, "duration": 6, "velocity": 72}, {"time": 1250, "pitch": 65, "duration": 6, "velocity": 72}, {"time": 1253, "pitch": 48, "duration": 20, "velocity": 64}, {"time": 1256, "pitch": 53, "duration": 6, "velocity": 57}, {"time": 1259, "pitch": 55, "duration": 5, "velocity": 47}, {"time": 1262, "pitch": 60, "duration": 4, "velocity": 76}, {"time": 1265, "pitch": 53, "duration": 4, "velocity": 61}, {"time": 1268, "pitch": 55, "duration": 10, "velocity": 49}, {"time": 1271, "pitch": 65, "duration": 9, "velocity": 69}, {"time": 1274, "pitch": 41, "duration": 7, "velocity": 66}, {"time": 1277, "pitch": 48, "duration": 4, "velocity": 64}, {"time": 1280, "pitch": 53, "duration": 1, "velocity": 69}, {"time": 1283, "pitch": 55, "duration": 6, "velocity": 66}, {"time": 1286, "pitch": 40, "duration": 12, "velocity": 80}, {"time": 1286, "pitch": 64, "duration": 4, "velocity": 67}, {"time": 1289, "pitch": 52, "duration": 4, "velocity": 63}, {"time": 1292, "pitch": 55, "duration": 3, "velocity": 55}, {"time": 1295, "pitch": 64, "duration": 2, "velocity": 72}, {"time": 1298, "pitch": 38, "duration": 13, "velocity": 69}, {"time": 1298, "pitch": 57, "duration": 6, "velocity": 64}, {"time": 1298, "pitch": 60, "duration": 6, "velocity": 61}, {"time": 1298, "pitch": 65, "duration": 9, "velocity": 69}, {"time": 1301, "pitch": 50, "duration": 2, "velocity": 62}, {"time": 1304, "pitch": 52, "duration": 10, "velocity": 46}, {"time": 1307, "pitch": 53, "duration": 7, "velocity": 64}, {"time": 1310, "pitch": 57, "duration": 4, "velocity": 56}, {"time": 1313, "pitch": 60, "duration": 3, "velocity": 54}, {"time": 1316, "pitch": 64, "duration": 4, "velocity": 57}, {"time": 1319, "pitch": 67, "duration": 1, "velocity": 53}, {"time": 1322, "pitch": 38, "duration": 13, "velocity": 61}, {"time": 1322, "pitch": 60, "duration": 9, "velocity": 55}, {"time": 1322, "pitch": 65, "duration": 9, "velocity": 64}, {"time": 1325, "pitch": 45, "duration": 9, "velocity": 63}, {"time": 1328, "pitch": 50, "duration": 3, "velocity": 49}, {"time": 1331, "pitch": 52, "duration": 9, "velocity": 64}, {"time": 1334, "pitch": 53, "duration": 5, "velocity": 67}, {"time": 1337, "pitch": 64, "duration": 3, "velocity": 63}, {"time": 1340, "pitch": 65, "duration": 4, "velocity": 61}, {"time": 1343, "pitch": 60, "duration": 2, "velocity": 64}, {"time": 1346, "pitch": 46, "duration": 16, "velocity": 69}, {"time": 1346, "pitch": 62, "duration": 4, "velocity": 66}, {"time": 1349, "pitch": 53, "duration": 14, "velocity": 64}, {"time": 1352, "pitch": 58, "duration": 4, "velocity": 60}, {"time": 1355, "pitch": 60, "duration": 4, "velocity": 60}, {"time": 1355, "pitch": 62, "duration": 6, "velocity": 64}, {"time": 1355, "pitch": 65, "duration": 4, "velocity": 69}, {"time": 1361, "pitch": 58, "duration": 2, "velocity": 58}, {"time": 1364, "pitch": 60, "duration": 3, "velocity": 60}, {"time": 1367, "pitch": 62, "duration": 8, "velocity": 66}, {"time": 1370, "pitch": 46, "duration": 19, "velocity": 70}, {"time": 1370, "pitch": 60, "duration": 6, "velocity": 60}, {"time": 1370, "pitch": 65, "duration": 6, "velocity": 64}, {"time": 1373, "pitch": 53, "duration": 16, "velocity": 54}, {"time": 1376, "pitch": 58, "duration": 6, "velocity": 56}, {"time": 1379, "pitch": 60, "duration": 2, "velocity": 58}, {"time": 1382, "pitch": 60, "duration": 3, "velocity": 63}, {"time": 1382, "pitch": 62, "duration": 1, "velocity": 66}, {"time": 1382, "pitch": 65, "duration": 5, "velocity": 76}, {"time": 1385, "pitch": 58, "duration": 2, "velocity": 64}, {"time": 1388, "pitch": 60, "duration": 4, "velocity": 59}, {"time": 1391, "pitch": 65, "duration": 2, "velocity": 72}, {"time": 1394, "pitch": 48, "duration": 15, "velocity": 67}, {"time": 1394, "pitch": 60, "duration": 5, "velocity": 62}, {"time": 1394, "pitch": 65, "duration": 6, "velocity": 67}, {"time": 1397, "pitch": 53, "duration": 12, "velocity": 61}, {"time": 1400, "pitch": 55, "duration": 13, "velocity": 60}, {"time": 1403, "pitch": 60, "duration": 4, "velocity": 56}, {"time": 1406, "pitch": 65, "duration": 3, "velocity": 47}, {"time": 1409, "pitch": 67, "duration": 2, "velocity": 62}, {"time": 1412, "pitch": 60, "duration": 1, "velocity": 51}, {"time": 1415, "pitch": 60, "duration": 5, "velocity": 60}, {"time": 1415, "pitch": 64, "duration": 6, "velocity": 78}, {"time": 1418, "pitch": 48, "duration": 4, "velocity": 70}, {"time": 1421, "pitch": 55, "duration": 3, "velocity": 60}, {"time": 1424, "pitch": 50, "duration": 6, "velocity": 62}, {"time": 1424, "pitch": 60, "duration": 1, "velocity": 57}, {"time": 1424, "pitch": 65, "duration": 2, "velocity": 62}, {"time": 1427, "pitch": 60, "duration": 2, "velocity": 62}, {"time": 1427, "pitch": 67, "duration": 3, "velocity": 69}, {"time": 1430, "pitch": 52, "duration": 7, "velocity": 54}, {"time": 1433, "pitch": 60, "duration": 2, "velocity": 59}, {"time": 1433, "pitch": 64, "duration": 1, "velocity": 50}, {"time": 1433, "pitch": 70, "duration": 4, "velocity": 72}, {"time": 1436, "pitch": 55, "duration": 1, "velocity": 75}, {"time": 1439, "pitch": 60, "duration": 1, "velocity": 54}, {"time": 1442, "pitch": 41, "duration": 18, "velocity": 69}, {"time": 1442, "pitch": 60, "duration": 4, "velocity": 64}, {"time": 1442, "pitch": 65, "duration": 4, "velocity": 70}, {"time": 1442, "pitch": 69, "duration": 4, "velocity": 72}, {"time": 1445, "pitch": 48, "duration": 19, "velocity": 67}, {"time": 1448, "pitch": 53, "duration": 6, "velocity": 61}, {"time": 1451, "pitch": 57, "duration": 1, "velocity": 21}, {"time": 1454, "pitch": 57, "duration": 3, "velocity": 57}, {"time": 1454, "pitch": 60, "duration": 4, "velocity": 75}, {"time": 1454, "pitch": 65, "duration": 3, "velocity": 73}, {"time": 1457, "pitch": 53, "duration": 4, "velocity": 55}, {"time": 1460, "pitch": 57, "duration": 12, "velocity": 55}, {"time": 1463, "pitch": 64, "duration": 9, "velocity": 67}, {"time": 1466, "pitch": 41, "duration": 9, "velocity": 73}, {"time": 1466, "pitch": 65, "duration": 6, "velocity": 69}, {"time": 1469, "pitch": 48, "duration": 7, "velocity": 64}, {"time": 1472, "pitch": 53, "duration": 2, "velocity": 61}, {"time": 1475, "pitch": 57, "duration": 2, "velocity": 57}, {"time": 1478, "pitch": 57, "duration": 1, "velocity": 43}, {"time": 1478, "pitch": 60, "duration": 2, "velocity": 69}, {"time": 1478, "pitch": 65, "duration": 4, "velocity": 73}, {"time": 1481, "pitch": 57, "duration": 4, "velocity": 58}, {"time": 1484, "pitch": 40, "duration": 2, "velocity": 66}, {"time": 1484, "pitch": 52, "duration": 1, "velocity": 50}, {"time": 1484, "pitch": 64, "duration": 4, "velocity": 70}, {"time": 1490, "pitch": 38, "duration": 18, "velocity": 72}, {"time": 1490, "pitch": 57, "duration": 5, "velocity": 57}, {"time": 1490, "pitch": 60, "duration": 5, "velocity": 63}, {"time": 1490, "pitch": 65, "duration": 5, "velocity": 63}, {"time": 1493, "pitch": 45, "duration": 19, "velocity": 61}, {"time": 1496, "pitch": 50, "duration": 6, "velocity": 50}, {"time": 1502, "pitch": 53, "duration": 3, "velocity": 51}, {"time": 1502, "pitch": 60, "duration": 3, "velocity": 67}, {"time": 1505, "pitch": 50, "duration": 2, "velocity": 48}, {"time": 1508, "pitch": 53, "duration": 3, "velocity": 55}, {"time": 1511, "pitch": 57, "duration": 9, "velocity": 60}, {"time": 1514, "pitch": 38, "duration": 19, "velocity": 66}, {"time": 1514, "pitch": 53, "duration": 6, "velocity": 63}, {"time": 1514, "pitch": 62, "duration": 6, "velocity": 63}, {"time": 1517, "pitch": 45, "duration": 12, "velocity": 54}, {"time": 1520, "pitch": 50, "duration": 3, "velocity": 58}, {"time": 1523, "pitch": 53, "duration": 4, "velocity": 72}, {"time": 1523, "pitch": 60, "duration": 4, "velocity": 69}, {"time": 1526, "pitch": 50, "duration": 2, "velocity": 41}, {"time": 1529, "pitch": 53, "duration": 3, "velocity": 66}, {"time": 1529, "pitch": 57, "duration": 3, "velocity": 75}, {"time": 1529, "pitch": 62, "duration": 3, "velocity": 73}, {"time": 1532, "pitch": 45, "duration": 1, "velocity": 34}, {"time": 1532, "pitch": 50, "duration": 1, "velocity": 49}, {"time": 1535, "pitch": 53, "duration": 2, "velocity": 58}, {"time": 1538, "pitch": 34, "duration": 18, "velocity": 67}, {"time": 1538, "pitch": 53, "duration": 6, "velocity": 72}, {"time": 1538, "pitch": 58, "duration": 6, "velocity": 73}, {"time": 1538, "pitch": 62, "duration": 6, "velocity": 72}, {"time": 1538, "pitch": 65, "duration": 7, "velocity": 66}, {"time": 1544, "pitch": 46, "duration": 7, "velocity": 45}, {"time": 1547, "pitch": 53, "duration": 1, "velocity": 44}, {"time": 1550, "pitch": 53, "duration": 3, "velocity": 72}, {"time": 1550, "pitch": 58, "duration": 4, "velocity": 73}, {"time": 1550, "pitch": 62, "duration": 4, "velocity": 75}, {"time": 1550, "pitch": 65, "duration": 2, "velocity": 49}, {"time": 1553, "pitch": 46, "duration": 5, "velocity": 57}, {"time": 1556, "pitch": 53, "duration": 4, "velocity": 49}, {"time": 1559, "pitch": 60, "duration": 2, "velocity": 61}, {"time": 1562, "pitch": 36, "duration": 18, "velocity": 70}, {"time": 1562, "pitch": 53, "duration": 5, "velocity": 64}, {"time": 1562, "pitch": 58, "duration": 6, "velocity": 69}, {"time": 1562, "pitch": 62, "duration": 5, "velocity": 67}, {"time": 1568, "pitch": 48, "duration": 7, "velocity": 45}, {"time": 1571, "pitch": 53, "duration": 2, "velocity": 44}, {"time": 1574, "pitch": 53, "duration": 4, "velocity": 73}, {"time": 1574, "pitch": 58, "duration": 4, "velocity": 76}, {"time": 1574, "pitch": 62, "duration": 4, "velocity": 75}, {"time": 1577, "pitch": 48, "duration": 3, "velocity": 51}, {"time": 1580, "pitch": 53, "duration": 2, "velocity": 60}, {"time": 1583, "pitch": 58, "duration": 2, "velocity": 67}, {"time": 1586, "pitch": 41, "duration": 4, "velocity": 61}, {"time": 1586, "pitch": 60, "duration": 8, "velocity": 43}, {"time": 1586, "pitch": 65, "duration": 11, "velocity": 53}, {"time": 1586, "pitch": 72, "duration": 14, "velocity": 61}, {"time": 1589, "pitch": 48, "duration": 2, "velocity": 48}, {"time": 1592, "pitch": 53, "duration": 3, "velocity": 46}, {"time": 1595, "pitch": 55, "duration": 6, "velocity": 50}, {"time": 1598, "pitch": 57, "duration": 26, "velocity": 52}, {"time": 1601, "pitch": 60, "duration": 23, "velocity": 62}, {"time": 1604, "pitch": 65, "duration": 3, "velocity": 52}, {"time": 1607, "pitch": 67, "duration": 4, "velocity": 60}, {"time": 1610, "pitch": 69, "duration": 4, "velocity": 60}, {"time": 1622, "pitch": 72, "duration": 1, "velocity": 56}, {"time": 1634, "pitch": 46, "duration": 40, "velocity": 69}, {"time": 1634, "pitch": 60, "duration": 6, "velocity": 64}, {"time": 1634, "pitch": 65, "duration": 6, "velocity": 67}, {"time": 1640, "pitch": 53, "duration": 33, "velocity": 52}, {"time": 1646, "pitch": 58, "duration": 13, "velocity": 44}, {"time": 1646, "pitch": 62, "duration": 4, "velocity": 53}, {"time": 1646, "pitch": 65, "duration": 5, "velocity": 60}, {"time": 1658, "pitch": 60, "duration": 5, "velocity": 38}, {"time": 1658, "pitch": 62, "duration": 5, "velocity": 44}, {"time": 1658, "pitch": 65, "duration": 6, "velocity": 46}, {"time": 1664, "pitch": 58, "duration": 6, "velocity": 31}, {"time": 1670, "pitch": 60, "duration": 3, "velocity": 61}, {"time": 1670, "pitch": 62, "duration": 3, "velocity": 67}, {"time": 1670, "pitch": 65, "duration": 3, "velocity": 60}, {"time": 1682, "pitch": 36, "duration": 19, "velocity": 56}, {"time": 1682, "pitch": 53, "duration": 5, "velocity": 51}, {"time": 1682, "pitch": 58, "duration": 5, "velocity": 56}, {"time": 1682, "pitch": 62, "duration": 5, "velocity": 61}, {"time": 1688, "pitch": 48, "duration": 7, "velocity": 36}, {"time": 1694, "pitch": 58, "duration": 5, "velocity": 61}, {"time": 1694, "pitch": 62, "duration": 4, "velocity": 61}, {"time": 1700, "pitch": 48, "duration": 7, "velocity": 37}, {"time": 1706, "pitch": 36, "duration": 14, "velocity": 46}, {"time": 1706, "pitch": 55, "duration": 5, "velocity": 51}, {"time": 1706, "pitch": 60, "duration": 5, "velocity": 53}, {"time": 1706, "pitch": 64, "duration": 6, "velocity": 69}, {"time": 1712, "pitch": 48, "duration": 9, "velocity": 40}, {"time": 1718, "pitch": 60, "duration": 4, "velocity": 57}, {"time": 1718, "pitch": 65, "duration": 4, "velocity": 56}, {"time": 1724, "pitch": 60, "duration": 1, "velocity": 46}, {"time": 1724, "pitch": 67, "duration": 1, "velocity": 62}, {"time": 1730, "pitch": 46, "duration": 41, "velocity": 53}, {"time": 1730, "pitch": 60, "duration": 6, "velocity": 53}, {"time": 1730, "pitch": 65, "duration": 7, "velocity": 61}, {"time": 1736, "pitch": 53, "duration": 6, "velocity": 45}, {"time": 1742, "pitch": 58, "duration": 5, "velocity": 30}, {"time": 1742, "pitch": 60, "duration": 5, "velocity": 40}, {"time": 1742, "pitch": 62, "duration": 5, "velocity": 45}, {"time": 1742, "pitch": 65, "duration": 5, "velocity": 49}, {"time": 1748, "pitch": 53, "duration": 6, "velocity": 36}, {"time": 1754, "pitch": 58, "duration": 8, "velocity": 33}, {"time": 1754, "pitch": 60, "duration": 6, "velocity": 45}, {"time": 1754, "pitch": 62, "duration": 6, "velocity": 48}, {"time": 1754, "pitch": 65, "duration": 6, "velocity": 54}, {"time": 1763, "pitch": 53, "duration": 3, "velocity": 37}, {"time": 1766, "pitch": 60, "duration": 3, "velocity": 62}, {"time": 1766, "pitch": 65, "duration": 3, "velocity": 66}, {"time": 1769, "pitch": 53, "duration": 2, "velocity": 57}, {"time": 1772, "pitch": 60, "duration": 2, "velocity": 48}, {"time": 1775, "pitch": 62, "duration": 1, "velocity": 58}, {"time": 1778, "pitch": 36, "duration": 18, "velocity": 62}, {"time": 1778, "pitch": 58, "duration": 5, "velocity": 59}, {"time": 1778, "pitch": 62, "duration": 5, "velocity": 70}, {"time": 1784, "pitch": 48, "duration": 7, "velocity": 34}, {"time": 1787, "pitch": 53, "duration": 1, "velocity": 43}, {"time": 1790, "pitch": 53, "duration": 4, "velocity": 80}, {"time": 1790, "pitch": 58, "duration": 4, "velocity": 75}, {"time": 1790, "pitch": 62, "duration": 5, "velocity": 73}, {"time": 1796, "pitch": 48, "duration": 1, "velocity": 56}, {"time": 1799, "pitch": 53, "duration": 1, "velocity": 40}, {"time": 1802, "pitch": 36, "duration": 7, "velocity": 78}, {"time": 1802, "pitch": 55, "duration": 1, "velocity": 80}, {"time": 1802, "pitch": 60, "duration": 1, "velocity": 80}, {"time": 1802, "pitch": 64, "duration": 2, "velocity": 73}, {"time": 1805, "pitch": 48, "duration": 1, "velocity": 51}, {"time": 1808, "pitch": 48, "duration": 2, "velocity": 63}, {"time": 1811, "pitch": 38, "duration": 7, "velocity": 73}, {"time": 1811, "pitch": 60, "duration": 1, "velocity": 82}, {"time": 1811, "pitch": 65, "duration": 4, "velocity": 76}, {"time": 1817, "pitch": 60, "duration": 1, "velocity": 78}, {"time": 1817, "pitch": 67, "duration": 1, "velocity": 73}, {"time": 1820, "pitch": 40, "duration": 1, "velocity": 72}, {"time": 1826, "pitch": 41, "duration": 19, "velocity": 73}, {"time": 1826, "pitch": 57, "duration": 4, "velocity": 82}, {"time": 1826, "pitch": 60, "duration": 4, "velocity": 73}, {"time": 1826, "pitch": 65, "duration": 4, "velocity": 80}, {"time": 1829, "pitch": 48, "duration": 18, "velocity": 61}, {"time": 1832, "pitch": 53, "duration": 3, "velocity": 51}, {"time": 1835, "pitch": 55, "duration": 3, "velocity": 76}, {"time": 1835, "pitch": 60, "duration": 4, "velocity": 72}, {"time": 1841, "pitch": 57, "duration": 2, "velocity": 72}, {"time": 1841, "pitch": 65, "duration": 3, "velocity": 73}, {"time": 1844, "pitch": 53, "duration": 3, "velocity": 48}, {"time": 1847, "pitch": 55, "duration": 9, "velocity": 64}, {"time": 1847, "pitch": 60, "duration": 8, "velocity": 70}, {"time": 1850, "pitch": 41, "duration": 16, "velocity": 75}, {"time": 1853, "pitch": 48, "duration": 13, "velocity": 69}, {"time": 1856, "pitch": 53, "duration": 3, "velocity": 60}, {"time": 1859, "pitch": 55, "duration": 4, "velocity": 78}, {"time": 1859, "pitch": 60, "duration": 5, "velocity": 78}, {"time": 1865, "pitch": 53, "duration": 1, "velocity": 44}, {"time": 1868, "pitch": 55, "duration": 2, "velocity": 75}, {"time": 1868, "pitch": 65, "duration": 3, "velocity": 75}, {"time": 1871, "pitch": 40, "duration": 8, "velocity": 50}, {"time": 1874, "pitch": 38, "duration": 17, "velocity": 69}, {"time": 1874, "pitch": 53, "duration": 5, "velocity": 75}, {"time": 1874, "pitch": 57, "duration": 4, "velocity": 70}, {"time": 1874, "pitch": 60, "duration": 5, "velocity": 69}, {"time": 1874, "pitch": 65, "duration": 5, "velocity": 62}, {"time": 1880, "pitch": 50, "duration": 4, "velocity": 38}, {"time": 1883, "pitch": 53, "duration": 5, "velocity": 78}, {"time": 1883, "pitch": 57, "duration": 4, "velocity": 78}, {"time": 1883, "pitch": 60, "duration": 5, "velocity": 78}, {"time": 1889, "pitch": 50, "duration": 6, "velocity": 60}, {"time": 1892, "pitch": 53, "duration": 2, "velocity": 56}, {"time": 1895, "pitch": 57, "duration": 1, "velocity": 60}, {"time": 1895, "pitch": 60, "duration": 1, "velocity": 64}, {"time": 1898, "pitch": 38, "duration": 15, "velocity": 70}, {"time": 1898, "pitch": 53, "duration": 3, "velocity": 75}, {"time": 1898, "pitch": 57, "duration": 3, "velocity": 69}, {"time": 1898, "pitch": 60, "duration": 3, "velocity": 60}, {"time": 1898, "pitch": 65, "duration": 3, "velocity": 49}, {"time": 1901, "pitch": 50, "duration": 6, "velocity": 53}, {"time": 1904, "pitch": 53, "duration": 1, "velocity": 48}, {"time": 1907, "pitch": 53, "duration": 6, "velocity": 80}, {"time": 1907, "pitch": 57, "duration": 5, "velocity": 78}, {"time": 1907, "pitch": 60, "duration": 6, "velocity": 76}, {"time": 1907, "pitch": 65, "duration": 6, "velocity": 57}, {"time": 1913, "pitch": 50, "duration": 2, "velocity": 66}, {"time": 1916, "pitch": 53, "duration": 3, "velocity": 88}, {"time": 1916, "pitch": 57, "duration": 2, "velocity": 85}, {"time": 1916, "pitch": 60, "duration": 4, "velocity": 80}, {"time": 1916, "pitch": 65, "duration": 3, "velocity": 60}, {"time": 1919, "pitch": 41, "duration": 3, "velocity": 56}, {"time": 1922, "pitch": 43, "duration": 12, "velocity": 60}, {"time": 1922, "pitch": 53, "duration": 4, "velocity": 85}, {"time": 1922, "pitch": 58, "duration": 4, "velocity": 78}, {"time": 1922, "pitch": 62, "duration": 4, "velocity": 80}, {"time": 1922, "pitch": 65, "duration": 1, "velocity": 60}, {"time": 1928, "pitch": 53, "duration": 1, "velocity": 39}, {"time": 1931, "pitch": 53, "duration": 5, "velocity": 73}, {"time": 1931, "pitch": 58, "duration": 5, "velocity": 75}, {"time": 1931, "pitch": 62, "duration": 5, "velocity": 72}, {"time": 1937, "pitch": 43, "duration": 6, "velocity": 49}, {"time": 1940, "pitch": 53, "duration": 3, "velocity": 52}, {"time": 1943, "pitch": 58, "duration": 1, "velocity": 63}, {"time": 1946, "pitch": 36, "duration": 14, "velocity": 70}, {"time": 1946, "pitch": 48, "duration": 3, "velocity": 72}, {"time": 1946, "pitch": 60, "duration": 7, "velocity": 70}, {"time": 1946, "pitch": 64, "duration": 7, "velocity": 75}, {"time": 1946, "pitch": 67, "duration": 7, "velocity": 72}, {"time": 1952, "pitch": 48, "duration": 5, "velocity": 48}, {"time": 1958, "pitch": 48, "duration": 1, "velocity": 39}, {"time": 1958, "pitch": 60, "duration": 1, "velocity": 56}, {"time": 1961, "pitch": 36, "duration": 3, "velocity": 76}, {"time": 1961, "pitch": 48, "duration": 3, "velocity": 88}, {"time": 1961, "pitch": 60, "duration": 3, "velocity": 88}, {"time": 1961, "pitch": 64, "duration": 3, "velocity": 85}, {"time": 1961, "pitch": 67, "duration": 3, "velocity": 75}, {"time": 1970, "pitch": 41, "duration": 43, "velocity": 56}, {"time": 1970, "pitch": 53, "duration": 4, "velocity": 53}, {"time": 1970, "pitch": 57, "duration": 6, "velocity": 78}, {"time": 1970, "pitch": 60, "duration": 5, "velocity": 78}, {"time": 1970, "pitch": 65, "duration": 7, "velocity": 73}, {"time": 1979, "pitch": 53, "duration": 7, "velocity": 61}, {"time": 1985, "pitch": 55, "duration": 5, "velocity": 58}, {"time": 1985, "pitch": 60, "duration": 6, "velocity": 59}, {"time": 1991, "pitch": 53, "duration": 21, "velocity": 35}, {"time": 1994, "pitch": 55, "duration": 9, "velocity": 43}, {"time": 1994, "pitch": 57, "duration": 10, "velocity": 47}, {"time": 1994, "pitch": 60, "duration": 10, "velocity": 48}, {"time": 1994, "pitch": 65, "duration": 16, "velocity": 42}, {"time": 2006, "pitch": 55, "duration": 5, "velocity": 39}, {"time": 2009, "pitch": 57, "duration": 3, "velocity": 45}, {"time": 2012, "pitch": 60, "duration": 3, "velocity": 47}, {"time": 2018, "pitch": 41, "duration": 38, "velocity": 38}, {"time": 2018, "pitch": 53, "duration": 15, "velocity": 47}, {"time": 2018, "pitch": 60, "duration": 7, "velocity": 67}, {"time": 2018, "pitch": 65, "duration": 8, "velocity": 74}, {"time": 2018, "pitch": 69, "duration": 7, "velocity": 65}, {"time": 2030, "pitch": 60, "duration": 7, "velocity": 52}, {"time": 2030, "pitch": 65, "duration": 7, "velocity": 52}, {"time": 2030, "pitch": 67, "duration": 7, "velocity": 51}, {"time": 2030, "pitch": 69, "duration": 7, "velocity": 51}, {"time": 2036, "pitch": 53, "duration": 8, "velocity": 21}, {"time": 2042, "pitch": 60, "duration": 6, "velocity": 51}, {"time": 2042, "pitch": 65, "duration": 6, "velocity": 51}, {"time": 2042, "pitch": 67, "duration": 6, "velocity": 63}, {"time": 2042, "pitch": 69, "duration": 6, "velocity": 46}, {"time": 2048, "pitch": 53, "duration": 6, "velocity": 24}, {"time": 2054, "pitch": 60, "duration": 3, "velocity": 65}, {"time": 2054, "pitch": 65, "duration": 3, "velocity": 77}, {"time": 2054, "pitch": 69, "duration": 4, "velocity": 72}, {"time": 2060, "pitch": 60, "duration": 2, "velocity": 52}, {"time": 2060, "pitch": 67, "duration": 3, "velocity": 74}, {"time": 2066, "pitch": 45, "duration": 22, "velocity": 61}, {"time": 2066, "pitch": 57, "duration": 16, "velocity": 57}, {"time": 2066, "pitch": 60, "duration": 9, "velocity": 52}, {"time": 2066, "pitch": 64, "duration": 9, "velocity": 60}, {"time": 2066, "pitch": 69, "duration": 9, "velocity": 56}, {"time": 2078, "pitch": 60, "duration": 7, "velocity": 54}, {"time": 2078, "pitch": 64, "duration": 7, "velocity": 61}, {"time": 2078, "pitch": 69, "duration": 7, "velocity": 59}, {"time": 2084, "pitch": 57, "duration": 6, "velocity": 52}, {"time": 2090, "pitch": 50, "duration": 16, "velocity": 49}, {"time": 2090, "pitch": 60, "duration": 9, "velocity": 56}, {"time": 2090, "pitch": 65, "duration": 9, "velocity": 59}, {"time": 2090, "pitch": 69, "duration": 9, "velocity": 56}, {"time": 2102, "pitch": 60, "duration": 9, "velocity": 62}, {"time": 2102, "pitch": 65, "duration": 10, "velocity": 67}, {"time": 2102, "pitch": 69, "duration": 10, "velocity": 67}, {"time": 2108, "pitch": 50, "duration": 4, "velocity": 67}, {"time": 2114, "pitch": 46, "duration": 21, "velocity": 55}, {"time": 2114, "pitch": 58, "duration": 17, "velocity": 39}, {"time": 2114, "pitch": 62, "duration": 6, "velocity": 57}, {"time": 2114, "pitch": 65, "duration": 6, "velocity": 62}, {"time": 2114, "pitch": 70, "duration": 4, "velocity": 38}, {"time": 2126, "pitch": 62, "duration": 6, "velocity": 64}, {"time": 2126, "pitch": 65, "duration": 7, "velocity": 70}, {"time": 2126, "pitch": 70, "duration": 8, "velocity": 57}, {"time": 2138, "pitch": 43, "duration": 19, "velocity": 67}, {"time": 2138, "pitch": 55, "duration": 17, "velocity": 62}, {"time": 2138, "pitch": 58, "duration": 9, "velocity": 73}, {"time": 2138, "pitch": 62, "duration": 8, "velocity": 75}, {"time": 2138, "pitch": 67, "duration": 9, "velocity": 72}, {"time": 2150, "pitch": 58, "duration": 7, "velocity": 64}, {"time": 2150, "pitch": 62, "duration": 7, "velocity": 72}, {"time": 2150, "pitch": 67, "duration": 9, "velocity": 70}, {"time": 2162, "pitch": 36, "duration": 18, "velocity": 67}, {"time": 2162, "pitch": 48, "duration": 14, "velocity": 59}, {"time": 2162, "pitch": 60, "duration": 9, "velocity": 70}, {"time": 2162, "pitch": 64, "duration": 9, "velocity": 76}, {"time": 2162, "pitch": 67, "duration": 9, "velocity": 76}, {"time": 2174, "pitch": 60, "duration": 5, "velocity": 72}, {"time": 2174, "pitch": 64, "duration": 5, "velocity": 75}, {"time": 2174, "pitch": 67, "duration": 5, "velocity": 73}, {"time": 2180, "pitch": 48, "duration": 5, "velocity": 49}, {"time": 2186, "pitch": 36, "duration": 18, "velocity": 63}, {"time": 2186, "pitch": 60, "duration": 4, "velocity": 61}, {"time": 2186, "pitch": 64, "duration": 4, "velocity": 63}, {"time": 2186, "pitch": 72, "duration": 5, "velocity": 73}, {"time": 2192, "pitch": 48, "duration": 9, "velocity": 49}, {"time": 2198, "pitch": 72, "duration": 4, "velocity": 64}, {"time": 2198, "pitch": 76, "duration": 5, "velocity": 88}, {"time": 2204, "pitch": 48, "duration": 5, "velocity": 54}, {"time": 2204, "pitch": 74, "duration": 5, "velocity": 69}, {"time": 2204, "pitch": 77, "duration": 5, "velocity": 69}, {"time": 2210, "pitch": 41, "duration": 36, "velocity": 63}, {"time": 2216, "pitch": 53, "duration": 8, "velocity": 51}, {"time": 2222, "pitch": 57, "duration": 6, "velocity": 73}, {"time": 2222, "pitch": 60, "duration": 6, "velocity": 73}, {"time": 2222, "pitch": 65, "duration": 6, "velocity": 69}, {"time": 2228, "pitch": 53, "duration": 9, "velocity": 31}, {"time": 2234, "pitch": 57, "duration": 6, "velocity": 63}, {"time": 2234, "pitch": 60, "duration": 6, "velocity": 67}, {"time": 2234, "pitch": 65, "duration": 6, "velocity": 60}, {"time": 2240, "pitch": 53, "duration": 8, "velocity": 37}, {"time": 2246, "pitch": 57, "duration": 9, "velocity": 73}, {"time": 2246, "pitch": 60, "duration": 9, "velocity": 73}, {"time": 2246, "pitch": 65, "duration": 9, "velocity": 66}, {"time": 2252, "pitch": 40, "duration": 3, "velocity": 74}, {"time": 2252, "pitch": 53, "duration": 1, "velocity": 48}, {"time": 2258, "pitch": 38, "duration": 42, "velocity": 69}, {"time": 2258, "pitch": 50, "duration": 16, "velocity": 70}, {"time": 2258, "pitch": 57, "duration": 9, "velocity": 75}, {"time": 2258, "pitch": 60, "duration": 10, "velocity": 73}, {"time": 2258, "pitch": 65, "duration": 9, "velocity": 70}, {"time": 2270, "pitch": 57, "duration": 8, "velocity": 72}, {"time": 2270, "pitch": 60, "duration": 8, "velocity": 75}, {"time": 2270, "pitch": 65, "duration": 7, "velocity": 70}, {"time": 2276, "pitch": 50, "duration": 8, "velocity": 27}, {"time": 2282, "pitch": 57, "duration": 6, "velocity": 60}, {"time": 2282, "pitch": 60, "duration": 6, "velocity": 63}, {"time": 2282, "pitch": 65, "duration": 7, "velocity": 60}, {"time": 2288, "pitch": 50, "duration": 8, "velocity": 42}, {"time": 2294, "pitch": 57, "duration": 7, "velocity": 60}, {"time": 2294, "pitch": 60, "duration": 7, "velocity": 67}, {"time": 2294, "pitch": 65, "duration": 7, "velocity": 60}, {"time": 2300, "pitch": 50, "duration": 2, "velocity": 61}, {"time": 2306, "pitch": 43, "duration": 17, "velocity": 60}, {"time": 2306, "pitch": 58, "duration": 5, "velocity": 73}, {"time": 2306, "pitch": 62, "duration": 5, "velocity": 69}, {"time": 2312, "pitch": 50, "duration": 6, "velocity": 41}, {"time": 2318, "pitch": 55, "duration": 6, "velocity": 48}, {"time": 2318, "pitch": 58, "duration": 5, "velocity": 56}, {"time": 2318, "pitch": 62, "duration": 6, "velocity": 64}, {"time": 2318, "pitch": 67, "duration": 5, "velocity": 61}, {"time": 2324, "pitch": 50, "duration": 7, "velocity": 48}, {"time": 2330, "pitch": 43, "duration": 18, "velocity": 66}, {"time": 2330, "pitch": 58, "duration": 4, "velocity": 56}, {"time": 2330, "pitch": 62, "duration": 4, "velocity": 63}, {"time": 2330, "pitch": 67, "duration": 4, "velocity": 61}, {"time": 2336, "pitch": 50, "duration": 6, "velocity": 41}, {"time": 2342, "pitch": 55, "duration": 7, "velocity": 44}, {"time": 2342, "pitch": 62, "duration": 2, "velocity": 64}, {"time": 2342, "pitch": 70, "duration": 4, "velocity": 75}, {"time": 2348, "pitch": 50, "duration": 5, "velocity": 60}, {"time": 2348, "pitch": 65, "duration": 5, "velocity": 70}, {"time": 2354, "pitch": 48, "duration": 17, "velocity": 59}, {"time": 2354, "pitch": 60, "duration": 5, "velocity": 63}, {"time": 2354, "pitch": 64, "duration": 2, "velocity": 49}, {"time": 2354, "pitch": 67, "duration": 7, "velocity": 72}, {"time": 2360, "pitch": 55, "duration": 11, "velocity": 49}, {"time": 2366, "pitch": 60, "duration": 3, "velocity": 47}, {"time": 2366, "pitch": 65, "duration": 6, "velocity": 69}, {"time": 2372, "pitch": 67, "duration": 3, "velocity": 62}, {"time": 2378, "pitch": 36, "duration": 6, "velocity": 70}, {"time": 2378, "pitch": 53, "duration": 4, "velocity": 58}, {"time": 2378, "pitch": 58, "duration": 5, "velocity": 49}, {"time": 2378, "pitch": 62, "duration": 5, "velocity": 57}, {"time": 2384, "pitch": 48, "duration": 4, "velocity": 59}, {"time": 2390, "pitch": 38, "duration": 5, "velocity": 46}, {"time": 2390, "pitch": 60, "duration": 6, "velocity": 66}, {"time": 2390, "pitch": 64, "duration": 6, "velocity": 73}, {"time": 2396, "pitch": 40, "duration": 4, "velocity": 69}, {"time": 2402, "pitch": 41, "duration": 22, "velocity": 73}, {"time": 2402, "pitch": 58, "duration": 6, "velocity": 73}, {"time": 2402, "pitch": 65, "duration": 6, "velocity": 67}, {"time": 2405, "pitch": 48, "duration": 21, "velocity": 60}, {"time": 2408, "pitch": 53, "duration": 9, "velocity": 58}, {"time": 2411, "pitch": 57, "duration": 5, "velocity": 70}, {"time": 2417, "pitch": 58, "duration": 7, "velocity": 73}, {"time": 2423, "pitch": 53, "duration": 4, "velocity": 56}, {"time": 2426, "pitch": 41, "duration": 1, "velocity": 70}, {"time": 2426, "pitch": 57, "duration": 1, "velocity": 67}, {"time": 2426, "pitch": 60, "duration": 1, "velocity": 69}, {"time": 2426, "pitch": 65, "duration": 1, "velocity": 54}, {"time": 2429, "pitch": 41, "duration": 2, "velocity": 76}, {"time": 2429, "pitch": 53, "duration": 1, "velocity": 76}, {"time": 2429, "pitch": 57, "duration": 1, "velocity": 80}, {"time": 2429, "pitch": 60, "duration": 1, "velocity": 76}, {"time": 2429, "pitch": 65, "duration": 1, "velocity": 73}, {"time": 2438, "pitch": 36, "duration": 4, "velocity": 70}, {"time": 2438, "pitch": 55, "duration": 6, "velocity": 70}, {"time": 2438, "pitch": 60, "duration": 7, "velocity": 67}, {"time": 2438, "pitch": 64, "duration": 7, "velocity": 80}, {"time": 2441, "pitch": 38, "duration": 3, "velocity": 63}, {"time": 2444, "pitch": 40, "duration": 2, "velocity": 78}, {"time": 2447, "pitch": 55, "duration": 1, "velocity": 48}, {"time": 2450, "pitch": 41, "duration": 18, "velocity": 72}, {"time": 2450, "pitch": 57, "duration": 6, "velocity": 73}, {"time": 2450, "pitch": 60, "duration": 6, "velocity": 72}, {"time": 2450, "pitch": 65, "duration": 6, "velocity": 72}, {"time": 2453, "pitch": 48, "duration": 20, "velocity": 64}, {"time": 2456, "pitch": 53, "duration": 6, "velocity": 57}, {"time": 2459, "pitch": 55, "duration": 5, "velocity": 47}, {"time": 2462, "pitch": 60, "duration": 4, "velocity": 76}, {"time": 2465, "pitch": 53, "duration": 4, "velocity": 61}, {"time": 2468, "pitch": 55, "duration": 10, "velocity": 49}, {"time": 2471, "pitch": 65, "duration": 9, "velocity": 69}, {"time": 2474, "pitch": 41, "duration": 7, "velocity": 66}, {"time": 2477, "pitch": 48, "duration": 4, "velocity": 64}, {"time": 2480, "pitch": 53, "duration": 1, "velocity": 69}, {"time": 2483, "pitch": 55, "duration": 6, "velocity": 66}, {"time": 2486, "pitch": 40, "duration": 12, "velocity": 80}, {"time": 2486, "pitch": 64, "duration": 4, "velocity": 67}, {"time": 2489, "pitch": 52, "duration": 4, "velocity": 63}, {"time": 2492, "pitch": 55, "duration": 3, "velocity": 55}, {"time": 2495, "pitch": 64, "duration": 2, "velocity": 72}, {"time": 2498, "pitch": 38, "duration": 13, "velocity": 69}, {"time": 2498, "pitch": 57, "duration": 6, "velocity": 64}, {"time": 2498, "pitch": 60, "duration": 6, "velocity": 61}, {"time": 2498, "pitch": 65, "duration": 9, "velocity": 69}, {"time": 2501, "pitch": 50, "duration": 2, "velocity": 62}, {"time": 2504, "pitch": 52, "duration": 10, "velocity": 46}, {"time": 2507, "pitch": 53, "duration": 7, "velocity": 64}, {"time": 2510, "pitch": 57, "duration": 4, "velocity": 56}, {"time": 2513, "pitch": 60, "duration": 3, "velocity": 54}, {"time": 2516, "pitch": 64, "duration": 4, "velocity": 57}, {"time": 2519, "pitch": 67, "duration": 1, "velocity": 53}, {"time": 2522, "pitch": 38, "duration": 13, "velocity": 61}, {"time": 2522, "pitch": 60, "duration": 9, "velocity": 55}, {"time": 2522, "pitch": 65, "duration": 9, "velocity": 64}, {"time": 2525, "pitch": 45, "duration": 9, "velocity": 63}, {"time": 2528, "pitch": 50, "duration": 3, "velocity": 49}, {"time": 2531, "pitch": 52, "duration": 9, "velocity": 64}, {"time": 2534, "pitch": 53, "duration": 5, "velocity": 67}, {"time": 2537, "pitch": 64, "duration": 3, "velocity": 63}, {"time": 2540, "pitch": 65, "duration": 4, "velocity": 61}, {"time": 2543, "pitch": 60, "duration": 2, "velocity": 64}, {"time": 2546, "pitch": 46, "duration": 16, "velocity": 69}, {"time": 2546, "pitch": 62, "duration": 4, "velocity": 66}, {"time": 2549, "pitch": 53, "duration": 14, "velocity": 64}, {"time": 2552, "pitch": 58, "duration": 4, "velocity": 60}, {"time": 2555, "pitch": 60, "duration": 4, "velocity": 60}, {"time": 2555, "pitch": 62, "duration": 6, "velocity": 64}, {"time": 2555, "pitch": 65, "duration": 4, "velocity": 69}, {"time": 2561, "pitch": 58, "duration": 2, "velocity": 58}, {"time": 2564, "pitch": 60, "duration": 3, "velocity": 60}, {"time": 2567, "pitch": 62, "duration": 8, "velocity": 66}, {"time": 2570, "pitch": 46, "duration": 19, "velocity": 70}, {"time": 2570, "pitch": 60, "duration": 6, "velocity": 60}, {"time": 2570, "pitch": 65, "duration": 6, "velocity": 64}, {"time": 2573, "pitch": 53, "duration": 16, "velocity": 54}, {"time": 2576, "pitch": 58, "duration": 6, "velocity": 56}, {"time": 2579, "pitch": 60, "duration": 2, "velocity": 58}, {"time": 2582, "pitch": 60, "duration": 3, "velocity": 63}, {"time": 2582, "pitch": 62, "duration": 1, "velocity": 66}, {"time": 2582, "pitch": 65, "duration": 5, "velocity": 76}, {"time": 2585, "pitch": 58, "duration": 2, "velocity": 64}, {"time": 2588, "pitch": 60, "duration": 4, "velocity": 59}, {"time": 2591, "pitch": 65, "duration": 2, "velocity": 72}, {"time": 2594, "pitch": 48, "duration": 15, "velocity": 67}, {"time": 2594, "pitch": 60, "duration": 5, "velocity": 62}, {"time": 2594, "pitch": 65, "duration": 6, "velocity": 67}, {"time": 2597, "pitch": 53, "duration": 12, "velocity": 61}, {"time": 2600, "pitch": 55, "duration": 13, "velocity": 60}, {"time": 2603, "pitch": 60, "duration": 4, "velocity": 56}, {"time": 2606, "pitch": 65, "duration": 3, "velocity": 47}, {"time": 2609, "pitch": 67, "duration": 2, "velocity": 62}, {"time": 2612, "pitch": 60, "duration": 1, "velocity": 51}, {"time": 2615, "pitch": 60, "duration": 5, "velocity": 60}, {"time": 2615, "pitch": 64, "duration": 6, "velocity": 78}, {"time": 2618, "pitch": 48, "duration": 4, "velocity": 70}, {"time": 2621, "pitch": 55, "duration": 3, "velocity": 60}, {"time": 2624, "pitch": 50, "duration": 6, "velocity": 62}, {"time": 2624, "pitch": 60, "duration": 1, "velocity": 57}, {"time": 2624, "pitch": 65, "duration": 2, "velocity": 62}, {"time": 2627, "pitch": 60, "duration": 2, "velocity": 62}, {"time": 2627, "pitch": 67, "duration": 3, "velocity": 69}, {"time": 2630, "pitch": 52, "duration": 7, "velocity": 54}, {"time": 2633, "pitch": 60, "duration": 2, "velocity": 59}, {"time": 2633, "pitch": 64, "duration": 1, "velocity": 50}, {"time": 2633, "pitch": 70, "duration": 4, "velocity": 72}, {"time": 2636, "pitch": 55, "duration": 1, "velocity": 75}, {"time": 2639, "pitch": 60, "duration": 1, "velocity": 54}, {"time": 2642, "pitch": 41, "duration": 18, "velocity": 69}, {"time": 2642, "pitch": 60, "duration": 4, "velocity": 64}, {"time": 2642, "pitch": 65, "duration": 4, "velocity": 70}, {"time": 2642, "pitch": 69, "duration": 4, "velocity": 72}, {"time": 2645, "pitch": 48, "duration": 19, "velocity": 67}, {"time": 2648, "pitch": 53, "duration": 6, "velocity": 61}, {"time": 2651, "pitch": 57, "duration": 1, "velocity": 21}, {"time": 2654, "pitch": 57, "duration": 3, "velocity": 57}, {"time": 2654, "pitch": 60, "duration": 4, "velocity": 75}, {"time": 2654, "pitch": 65, "duration": 3, "velocity": 73}, {"time": 2657, "pitch": 53, "duration": 4, "velocity": 55}, {"time": 2660, "pitch": 57, "duration": 12, "velocity": 55}, {"time": 2663, "pitch": 64, "duration": 9, "velocity": 67}, {"time": 2666, "pitch": 41, "duration": 9, "velocity": 73}, {"time": 2666, "pitch": 65, "duration": 6, "velocity": 69}, {"time": 2669, "pitch": 48, "duration": 7, "velocity": 64}, {"time": 2672, "pitch": 53, "duration": 2, "velocity": 61}, {"time": 2675, "pitch": 57, "duration": 2, "velocity": 57}, {"time": 2678, "pitch": 57, "duration": 1, "velocity": 43}, {"time": 2678, "pitch": 60, "duration": 2, "velocity": 69}, {"time": 2678, "pitch": 65, "duration": 4, "velocity": 73}, {"time": 2681, "pitch": 57, "duration": 4, "velocity": 58}, {"time": 2684, "pitch": 40, "duration": 2, "velocity": 66}, {"time": 2684, "pitch": 52, "duration": 1, "velocity": 50}, {"time": 2684, "pitch": 64, "duration": 4, "velocity": 70}, {"time": 2690, "pitch": 38, "duration": 18, "velocity": 72}, {"time": 2690, "pitch": 57, "duration": 5, "velocity": 57}, {"time": 2690, "pitch": 60, "duration": 5, "velocity": 63}, {"time": 2690, "pitch": 65, "duration": 5, "velocity": 63}, {"time": 2693, "pitch": 45, "duration": 19, "velocity": 61}, {"time": 2696, "pitch": 50, "duration": 6, "velocity": 50}, {"time": 2702, "pitch": 53, "duration": 3, "velocity": 51}, {"time": 2702, "pitch": 60, "duration": 3, "velocity": 67}, {"time": 2705, "pitch": 50, "duration": 2, "velocity": 48}, {"time": 2708, "pitch": 53, "duration": 3, "velocity": 55}, {"time": 2711, "pitch": 57, "duration": 9, "velocity": 60}, {"time": 2714, "pitch": 38, "duration": 19, "velocity": 66}, {"time": 2714, "pitch": 53, "duration": 6, "velocity": 63}, {"time": 2714, "pitch": 62, "duration": 6, "velocity": 63}, {"time": 2717, "pitch": 45, "duration": 12, "velocity": 54}, {"time": 2720, "pitch": 50, "duration": 3, "velocity": 58}, {"time": 2723, "pitch": 53, "duration": 4, "velocity": 72}, {"time": 2723, "pitch": 60, "duration": 4, "velocity": 69}, {"time": 2726, "pitch": 50, "duration": 2, "velocity": 41}, {"time": 2729, "pitch": 53, "duration": 3, "velocity": 66}, {"time": 2729, "pitch": 57, "duration": 3, "velocity": 75}, {"time": 2729, "pitch": 62, "duration": 3, "velocity": 73}, {"time": 2732, "pitch": 45, "duration": 1, "velocity": 34}, {"time": 2732, "pitch": 50, "duration": 1, "velocity": 49}, {"time": 2735, "pitch": 53, "duration": 2, "velocity": 58}, {"time": 2738, "pitch": 34, "duration": 18, "velocity": 67}, {"time": 2738, "pitch": 53, "duration": 6, "velocity": 72}, {"time": 2738, "pitch": 58, "duration": 6, "velocity": 73}, {"time": 2738, "pitch": 62, "duration": 6, "velocity": 72}, {"time": 2738, "pitch": 65, "duration": 7, "velocity": 66}, {"time": 2744, "pitch": 46, "duration": 7, "velocity": 45}, {"time": 2747, "pitch": 53, "duration": 1, "velocity": 44}, {"time": 2750, "pitch": 53, "duration": 3, "velocity": 72}, {"time": 2750, "pitch": 58, "duration": 4, "velocity": 73}, {"time": 2750, "pitch": 62, "duration": 4, "velocity": 75}, {"time": 2750, "pitch": 65, "duration": 2, "velocity": 49}, {"time": 2753, "pitch": 46, "duration": 5, "velocity": 57}, {"time": 2756, "pitch": 53, "duration": 4, "velocity": 49}, {"time": 2759, "pitch": 60, "duration": 2, "velocity": 61}, {"time": 2762, "pitch": 36, "duration": 18, "velocity": 70}, {"time": 2762, "pitch": 53, "duration": 5, "velocity": 64}, {"time": 2762, "pitch": 58, "duration": 6, "velocity": 69}, {"time": 2762, "pitch": 62, "duration": 5, "velocity": 67}, {"time": 2768, "pitch": 48, "duration": 7, "velocity": 45}, {"time": 2771, "pitch": 53, "duration": 2, "velocity": 44}, {"time": 2774, "pitch": 53, "duration": 4, "velocity": 73}, {"time": 2774, "pitch": 58, "duration": 4, "velocity": 76}, {"time": 2774, "pitch": 62, "duration": 4, "velocity": 75}, {"time": 2777, "pitch": 48, "duration": 3, "velocity": 51}, {"time": 2780, "pitch": 53, "duration": 2, "velocity": 60}, {"time": 2783, "pitch": 58, "duration": 2, "velocity": 67}, {"time": 2786, "pitch": 41, "duration": 4, "velocity": 61}, {"time": 2786, "pitch": 60, "duration": 8, "velocity": 43}, {"time": 2786, "pitch": 65, "duration": 11, "velocity": 53}, {"time": 2786, "pitch": 72, "duration": 14, "velocity": 61}, {"time": 2789, "pitch": 48, "duration": 2, "velocity": 48}, {"time": 2792, "pitch": 53, "duration": 3, "velocity": 46}, {"time": 2795, "pitch": 55, "duration": 6, "velocity": 50}, {"time": 2798, "pitch": 57, "duration": 26, "velocity": 52}, {"time": 2801, "pitch": 60, "duration": 23, "velocity": 62}, {"time": 2804, "pitch": 65, "duration": 3, "velocity": 52}, {"time": 2807, "pitch": 67, "duration": 4, "velocity": 60}, {"time": 2810, "pitch": 69, "duration": 4, "velocity": 60}, {"time": 2822, "pitch": 72, "duration": 1, "velocity": 56}, {"time": 2834, "pitch": 41, "duration": 3, "velocity": 69}, {"time": 2834, "pitch": 60, "duration": 8, "velocity": 66}, {"time": 2834, "pitch": 65, "duration": 8, "velocity": 66}, {"time": 2834, "pitch": 69, "duration": 9, "velocity": 67}, {"time": 2837, "pitch": 53, "duration": 4, "velocity": 51}, {"time": 2840, "pitch": 55, "duration": 5, "velocity": 54}, {"time": 2843, "pitch": 57, "duration": 3, "velocity": 52}, {"time": 2846, "pitch": 60, "duration": 2, "velocity": 55}, {"time": 2849, "pitch": 65, "duration": 2, "velocity": 72}, {"time": 2852, "pitch": 67, "duration": 2, "velocity": 66}, {"time": 2855, "pitch": 72, "duration": 9, "velocity": 64}, {"time": 2858, "pitch": 41, "duration": 11, "velocity": 70}, {"time": 2858, "pitch": 60, "duration": 6, "velocity": 62}, {"time": 2858, "pitch": 69, "duration": 7, "velocity": 67}, {"time": 2861, "pitch": 48, "duration": 8, "velocity": 63}, {"time": 2864, "pitch": 53, "duration": 12, "velocity": 75}, {"time": 2867, "pitch": 60, "duration": 2, "velocity": 72}, {"time": 2870, "pitch": 67, "duration": 2, "velocity": 63}, {"time": 2873, "pitch": 69, "duration": 3, "velocity": 73}, {"time": 2876, "pitch": 52, "duration": 5, "velocity": 54}, {"time": 2876, "pitch": 72, "duration": 4, "velocity": 67}, {"time": 2879, "pitch": 69, "duration": 2, "velocity": 70}, {"time": 2882, "pitch": 50, "duration": 20, "velocity": 76}, {"time": 2882, "pitch": 60, "duration": 4, "velocity": 78}, {"time": 2882, "pitch": 65, "duration": 4, "velocity": 72}, {"time": 2882, "pitch": 69, "duration": 2, "velocity": 52}, {"time": 2882, "pitch": 72, "duration": 3, "velocity": 45}, {"time": 2885, "pitch": 57, "duration": 10, "velocity": 58}, {"time": 2888, "pitch": 60, "duration": 4, "velocity": 55}, {"time": 2891, "pitch": 65, "duration": 4, "velocity": 73}, {"time": 2894, "pitch": 60, "duration": 2, "velocity": 49}, {"time": 2894, "pitch": 67, "duration": 4, "velocity": 72}, {"time": 2897, "pitch": 57, "duration": 8, "velocity": 61}, {"time": 2900, "pitch": 60, "duration": 3, "velocity": 55}, {"time": 2903, "pitch": 67, "duration": 3, "velocity": 69}, {"time": 2906, "pitch": 50, "duration": 19, "velocity": 64}, {"time": 2906, "pitch": 60, "duration": 4, "velocity": 67}, {"time": 2906, "pitch": 72, "duration": 4, "velocity": 70}, {"time": 2909, "pitch": 57, "duration": 6, "velocity": 57}, {"time": 2912, "pitch": 60, "duration": 2, "velocity": 67}, {"time": 2912, "pitch": 72, "duration": 1, "velocity": 34}, {"time": 2915, "pitch": 60, "duration": 4, "velocity": 70}, {"time": 2915, "pitch": 67, "duration": 4, "velocity": 63}, {"time": 2915, "pitch": 72, "duration": 1, "velocity": 39}, {"time": 2918, "pitch": 57, "duration": 4, "velocity": 50}, {"time": 2921, "pitch": 60, "duration": 4, "velocity": 63}, {"time": 2924, "pitch": 65, "duration": 3, "velocity": 67}, {"time": 2927, "pitch": 67, "duration": 2, "velocity": 70}, {"time": 2930, "pitch": 46, "duration": 17, "velocity": 72}, {"time": 2930, "pitch": 60, "duration": 6, "velocity": 66}, {"time": 2930, "pitch": 65, "duration": 6, "velocity": 75}, {"time": 2933, "pitch": 53, "duration": 19, "velocity": 60}, {"time": 2936, "pitch": 58, "duration": 6, "velocity": 63}, {"time": 2939, "pitch": 60, "duration": 2, "velocity": 61}, {"time": 2942, "pitch": 62, "duration": 4, "velocity": 76}, {"time": 2945, "pitch": 58, "duration": 3, "velocity": 60}, {"time": 2948, "pitch": 60, "duration": 3, "velocity": 61}, {"time": 2951, "pitch": 62, "duration": 2, "velocity": 72}, {"time": 2954, "pitch": 46, "duration": 16, "velocity": 72}, {"time": 2954, "pitch": 60, "duration": 6, "velocity": 61}, {"time": 2954, "pitch": 65, "duration": 6, "velocity": 70}, {"time": 2957, "pitch": 53, "duration": 9, "velocity": 67}, {"time": 2960, "pitch": 58, "duration": 7, "velocity": 76}, {"time": 2963, "pitch": 60, "duration": 5, "velocity": 53}, {"time": 2966, "pitch": 65, "duration": 3, "velocity": 78}, {"time": 2969, "pitch": 53, "duration": 3, "velocity": 67}, {"time": 2972, "pitch": 62, "duration": 2, "velocity": 63}, {"time": 2975, "pitch": 65, "duration": 2, "velocity": 75}, {"time": 2978, "pitch": 48, "duration": 18, "velocity": 66}, {"time": 2978, "pitch": 58, "duration": 1, "velocity": 56}, {"time": 2978, "pitch": 62, "duration": 5, "velocity": 63}, {"time": 2981, "pitch": 55, "duration": 10, "velocity": 59}, {"time": 2984, "pitch": 60, "duration": 8, "velocity": 61}, {"time": 2990, "pitch": 65, "duration": 2, "velocity": 48}, {"time": 2993, "pitch": 67, "duration": 5, "velocity": 64}, {"time": 2996, "pitch": 55, "duration": 4, "velocity": 72}, {"time": 2999, "pitch": 60, "duration": 2, "velocity": 66}, {"time": 3002, "pitch": 48, "duration": 4, "velocity": 67}, {"time": 3002, "pitch": 60, "duration": 3, "velocity": 64}, {"time": 3002, "pitch": 64, "duration": 4, "velocity": 88}, {"time": 3005, "pitch": 50, "duration": 7, "velocity": 61}, {"time": 3008, "pitch": 62, "duration": 3, "velocity": 70}, {"time": 3008, "pitch": 65, "duration": 4, "velocity": 70}, {"time": 3011, "pitch": 48, "duration": 5, "velocity": 22}, {"time": 3011, "pitch": 55, "duration": 7, "velocity": 63}, {"time": 3014, "pitch": 60, "duration": 1, "velocity": 62}, {"time": 3014, "pitch": 67, "duration": 1, "velocity": 47}, {"time": 3020, "pitch": 52, "duration": 1, "velocity": 58}, {"time": 3020, "pitch": 60, "duration": 1, "velocity": 73}, {"time": 3020, "pitch": 64, "duration": 1, "velocity": 88}, {"time": 3020, "pitch": 70, "duration": 2, "velocity": 73}, {"time": 3023, "pitch": 70, "duration": 1, "velocity": 36}, {"time": 3026, "pitch": 41, "duration": 5, "velocity": 72}, {"time": 3026, "pitch": 60, "duration": 9, "velocity": 66}, {"time": 3026, "pitch": 65, "duration": 10, "velocity": 63}, {"time": 3026, "pitch": 69, "duration": 8, "velocity": 72}, {"time": 3029, "pitch": 48, "duration": 2, "velocity": 55}, {"time": 3032, "pitch": 53, "duration": 3, "velocity": 64}, {"time": 3035, "pitch": 55, "duration": 4, "velocity": 58}, {"time": 3038, "pitch": 57, "duration": 5, "velocity": 63}, {"time": 3041, "pitch": 60, "duration": 2, "velocity": 67}, {"time": 3044, "pitch": 60, "duration": 1, "velocity": 38}, {"time": 3044, "pitch": 65, "duration": 4, "velocity": 78}, {"time": 3047, "pitch": 60, "duration": 1, "velocity": 43}, {"time": 3047, "pitch": 67, "duration": 4, "velocity": 67}, {"time": 3050, "pitch": 41, "duration": 13, "velocity": 69}, {"time": 3050, "pitch": 60, "duration": 6, "velocity": 60}, {"time": 3050, "pitch": 65, "duration": 6, "velocity": 46}, {"time": 3050, "pitch": 69, "duration": 6, "velocity": 70}, {"time": 3053, "pitch": 48, "duration": 10, "velocity": 64}, {"time": 3056, "pitch": 53, "duration": 3, "velocity": 64}, {"time": 3059, "pitch": 60, "duration": 4, "velocity": 72}, {"time": 3059, "pitch": 65, "duration": 1, "velocity": 73}, {"time": 3059, "pitch": 72, "duration": 4, "velocity": 82}, {"time": 3062, "pitch": 53, "duration": 1, "velocity": 55}, {"time": 3065, "pitch": 60, "duration": 3, "velocity": 72}, {"time": 3065, "pitch": 67, "duration": 6, "velocity": 78}, {"time": 3068, "pitch": 40, "duration": 4, "velocity": 56}, {"time": 3071, "pitch": 69, "duration": 4, "velocity": 72}, {"time": 3074, "pitch": 38, "duration": 2, "velocity": 66}, {"time": 3074, "pitch": 60, "duration": 9, "velocity": 82}, {"time": 3074, "pitch": 65, "duration": 9, "velocity": 76}, {"time": 3077, "pitch": 50, "duration": 4, "velocity": 72}, {"time": 3080, "pitch": 53, "duration": 9, "velocity": 57}, {"time": 3083, "pitch": 55, "duration": 6, "velocity": 69}, {"time": 3086, "pitch": 60, "duration": 2, "velocity": 72}, {"time": 3089, "pitch": 65, "duration": 2, "velocity": 66}, {"time": 3092, "pitch": 67, "duration": 3, "velocity": 73}, {"time": 3095, "pitch": 72, "duration": 4, "velocity": 69}, {"time": 3098, "pitch": 38, "duration": 2, "velocity": 69}, {"time": 3098, "pitch": 60, "duration": 9, "velocity": 73}, {"time": 3098, "pitch": 69, "duration": 9, "velocity": 73}, {"time": 3101, "pitch": 50, "duration": 3, "velocity": 58}, {"time": 3104, "pitch": 53, "duration": 12, "velocity": 58}, {"time": 3107, "pitch": 55, "duration": 8, "velocity": 56}, {"time": 3110, "pitch": 60, "duration": 2, "velocity": 88}, {"time": 3113, "pitch": 65, "duration": 2, "velocity": 59}, {"time": 3116, "pitch": 67, "duration": 2, "velocity": 78}, {"time": 3119, "pitch": 69, "duration": 2, "velocity": 62}, {"time": 3122, "pitch": 43, "duration": 19, "velocity": 75}, {"time": 3122, "pitch": 58, "duration": 6, "velocity": 73}, {"time": 3122, "pitch": 62, "duration": 6, "velocity": 78}, {"time": 3122, "pitch": 67, "duration": 6, "velocity": 75}, {"time": 3125, "pitch": 50, "duration": 19, "velocity": 63}, {"time": 3128, "pitch": 55, "duration": 6, "velocity": 63}, {"time": 3131, "pitch": 58, "duration": 2, "velocity": 60}, {"time": 3134, "pitch": 62, "duration": 4, "velocity": 72}, {"time": 3137, "pitch": 55, "duration": 4, "velocity": 49}, {"time": 3140, "pitch": 58, "duration": 4, "velocity": 59}, {"time": 3143, "pitch": 65, "duration": 2, "velocity": 73}, {"time": 3146, "pitch": 48, "duration": 16, "velocity": 72}, {"time": 3146, "pitch": 58, "duration": 6, "velocity": 70}, {"time": 3146, "pitch": 67, "duration": 7, "velocity": 63}, {"time": 3152, "pitch": 55, "duration": 6, "velocity": 63}, {"time": 3155, "pitch": 58, "duration": 2, "velocity": 82}, {"time": 3158, "pitch": 62, "duration": 6, "velocity": 72}, {"time": 3161, "pitch": 55, "duration": 2, "velocity": 64}, {"time": 3164, "pitch": 65, "duration": 3, "velocity": 70}, {"time": 3167, "pitch": 67, "duration": 2, "velocity": 63}, {"time": 3170, "pitch": 41, "duration": 37, "velocity": 69}, {"time": 3170, "pitch": 58, "duration": 6, "velocity": 69}, {"time": 3170, "pitch": 65, "duration": 6, "velocity": 85}, {"time": 3170, "pitch": 67, "duration": 1, "velocity": 59}, {"time": 3173, "pitch": 48, "duration": 35, "velocity": 56}, {"time": 3176, "pitch": 53, "duration": 13, "velocity": 72}, {"time": 3179, "pitch": 58, "duration": 2, "velocity": 64}, {"time": 3182, "pitch": 60, "duration": 3, "velocity": 61}, {"time": 3185, "pitch": 65, "duration": 2, "velocity": 54}, {"time": 3188, "pitch": 67, "duration": 3, "velocity": 69}, {"time": 3191, "pitch": 69, "duration": 1, "velocity": 62}, {"time": 3194, "pitch": 53, "duration": 14, "velocity": 53}, {"time": 3194, "pitch": 72, "duration": 2, "velocity": 75}, {"time": 3206, "pitch": 77, "duration": 2, "velocity": 62}, {"time": 3209, "pitch": 72, "duration": 2, "velocity": 58}, {"time": 3212, "pitch": 77, "duration": 2, "velocity": 58}, {"time": 3215, "pitch": 79, "duration": 3, "velocity": 57}, {"time": 3218, "pitch": 53, "duration": 5, "velocity": 64}, {"time": 3218, "pitch": 81, "duration": 11, "velocity": 69}, {"time": 3221, "pitch": 60, "duration": 2, "velocity": 53}, {"time": 3224, "pitch": 65, "duration": 3, "velocity": 53}, {"time": 3227, "pitch": 67, "duration": 5, "velocity": 55}, {"time": 3230, "pitch": 69, "duration": 5, "velocity": 61}, {"time": 3233, "pitch": 72, "duration": 2, "velocity": 46}, {"time": 3236, "pitch": 77, "duration": 2, "velocity": 54}, {"time": 3239, "pitch": 84, "duration": 8, "velocity": 62}, {"time": 3242, "pitch": 65, "duration": 6, "velocity": 48}, {"time": 3242, "pitch": 72, "duration": 7, "velocity": 48}, {"time": 3242, "pitch": 81, "duration": 9, "velocity": 64}, {"time": 3254, "pitch": 64, "duration": 11, "velocity": 76}, {"time": 3254, "pitch": 72, "duration": 2, "velocity": 61}, {"time": 3254, "pitch": 79, "duration": 3, "velocity": 70}, {"time": 3257, "pitch": 81, "duration": 3, "velocity": 67}, {"time": 3260, "pitch": 79, "duration": 3, "velocity": 54}, {"time": 3263, "pitch": 77, "duration": 2, "velocity": 67}, {"time": 3266, "pitch": 62, "duration": 40, "velocity": 67}, {"time": 3266, "pitch": 72, "duration": 4, "velocity": 67}, {"time": 3266, "pitch": 77, "duration": 4, "velocity": 66}, {"time": 3269, "pitch": 69, "duration": 9, "velocity": 61}, {"time": 3272, "pitch": 72, "duration": 2, "velocity": 57}, {"time": 3275, "pitch": 72, "duration": 6, "velocity": 56}, {"time": 3275, "pitch": 77, "duration": 7, "velocity": 58}, {"time": 3281, "pitch": 69, "duration": 5, "velocity": 53}, {"time": 3284, "pitch": 79, "duration": 2, "velocity": 62}, {"time": 3287, "pitch": 81, "duration": 9, "velocity": 48}, {"time": 3290, "pitch": 69, "duration": 14, "velocity": 53}, {"time": 3290, "pitch": 72, "duration": 7, "velocity": 58}, {"time": 3302, "pitch": 72, "duration": 3, "velocity": 76}, {"time": 3302, "pitch": 77, "duration": 3, "velocity": 91}, {"time": 3314, "pitch": 46, "duration": 20, "velocity": 69}, {"time": 3314, "pitch": 62, "duration": 6, "velocity": 60}, {"time": 3314, "pitch": 65, "duration": 8, "velocity": 64}, {"time": 3314, "pitch": 70, "duration": 9, "velocity": 58}, {"time": 3320, "pitch": 53, "duration": 15, "velocity": 47}, {"time": 3323, "pitch": 58, "duration": 10, "velocity": 64}, {"time": 3326, "pitch": 62, "duration": 4, "velocity": 73}, {"time": 3329, "pitch": 65, "duration": 3, "velocity": 64}, {"time": 3332, "pitch": 69, "duration": 3, "velocity": 57}, {"time": 3335, "pitch": 70, "duration": 4, "velocity": 37}, {"time": 3338, "pitch": 48, "duration": 26, "velocity": 64}, {"time": 3338, "pitch": 55, "duration": 26, "velocity": 59}, {"time": 3338, "pitch": 60, "duration": 7, "velocity": 57}, {"time": 3338, "pitch": 64, "duration": 8, "velocity": 66}, {"time": 3338, "pitch": 67, "duration": 7, "velocity": 37}, {"time": 3350, "pitch": 60, "duration": 6, "velocity": 49}, {"time": 3350, "pitch": 64, "duration": 7, "velocity": 62}, {"time": 3350, "pitch": 67, "duration": 11, "velocity": 49}, {"time": 3381, "pitch": 60, "duration": 4, "velocity": 45}, {"time": 3382, "pitch": 41, "duration": 55, "velocity": 70}, {"time": 3383, "pitch": 67, "duration": 7, "velocity": 66}, {"time": 3387, "pitch": 48, "duration": 51, "velocity": 57}, {"time": 3390, "pitch": 53, "duration": 45, "velocity": 63}, {"time": 3394, "pitch": 58, "duration": 1, "velocity": 44}, {"time": 3397, "pitch": 60, "duration": 1, "velocity": 66}, {"time": 3400, "pitch": 65, "duration": 2, "velocity": 63}, {"time": 3403, "pitch": 70, "duration": 4, "velocity": 44}, {"time": 3406, "pitch": 72, "duration": 2, "velocity": 67}, {"time": 3410, "pitch": 77, "duration": 2, "velocity": 70}, {"time": 3414, "pitch": 82, "duration": 2, "velocity": 54}, {"time": 3418, "pitch": 84, "duration": 2, "velocity": 56}, {"time": 3423, "pitch": 89, "duration": 2, "velocity": 51}, {"time": 3428, "pitch": 88, "duration": 2, "velocity": 49}, {"time": 3440, "pitch": 77, "duration": 5, "velocity": 42}, {"time": 3441, "pitch": 81, "duration": 8, "velocity": 53}, {"time": 3442, "pitch": 84, "duration": 7, "velocity": 59}, {"time": 3444, "pitch": 89, "duration": 7, "velocity": 57}], "annotations": [{"time": 40, "annotation": {"number": 64, "value": 127}, "group": "control_change"}, {"time": 50, "annotation": {"number": 64, "value": 127}, "group": "control_change"}, {"time": 98, "annotation": {"number": 64, "value": 0}, "group": "control_change"}, {"time": 101, "annotation": {"number": 64, "value": 127}, "group": "control_change"}, {"time": 144, "annotation": {"number": 64, "value": 127}, "group": "control_change"}, {"time": 146, "annotation": {"number": 64, "value": 0}, "group": "control_change"}, {"time": 150, "annotation": {"number": 64, "value": 127}, "group": "control_change"}, {"time": 198, "annotation": {"number": 64, "value": 0}, "group": "control_change"}, {"time": 202, "annotation": {"number": 64, "value": 127}, "group": "control_change"}, {"time": 218, "annotation": {"number": 64, "value": 127}, "group": "control_change"}, {"time": 230, "annotation": {"number": 64, "value": 0}, "group": "control_change"}, {"time": 233, "annotation": {"number": 64, "value": 127}, "group": "control_change"}, {"time": 244, "annotation": {"number": 64, "value": 0}, "group": "control_change"}, {"time": 248, "annotation": {"number": 64, "value": 127}, "group": "control_change"}, {"time": 290, "annotation": {"number": 64, "value": 0}, "group": "control_change"}, {"time": 292, "annotation": {"number": 64, "value": 127}, "group": "control_change"}, {"time": 338, "annotation": {"number": 64, "value": 0}, "group": "control_change"}, {"time": 340, "annotation": {"number": 64, "value": 127}, "group": "control_change"}, {"time": 362, "annotation": {"number": 64, "value": 0}, "group": "control_change"}, {"time": 366, "annotation": {"number": 64, "value": 127}, "group": "control_change"}, {"time": 385, "annotation": {"number": 64, "value": 0}, "group": "control_change"}, {"time": 386, "annotation": {"number": 64, "value": 0}, "group": "control_change"}, {"time": 388, "annotation": {"number": 64, "value": 127}, "group": "control_change"}, {"time": 389, "annotation": {"number": 64, "value": 100}, "group": "control_change"}, {"time": 435, "annotation": {"number": 64, "value": 112}, "group": "control_change"}, {"time": 435, "annotation": {"number": 64, "value": 56}, "group": "control_change"}, {"time": 435, "annotation": {"number": 64, "value": 0}, "group": "control_change"}, {"time": 436, "annotation": {"number": 64, "value": 0}, "group": "control_change"}, {"time": 438, "annotation": {"number": 64, "value": 29}, "group": "control_change"}, {"time": 438, "annotation": {"number": 64, "value": 75}, "group": "control_change"}, {"time": 438, "annotation": {"number": 64, "value": 118}, "group": "control_change"}, {"time": 438, "annotation": {"number": 64, "value": 127}, "group": "control_change"}, {"time": 482, "annotation": {"number": 64, "value": 0}, "group": "control_change"}, {"time": 485, "annotation": {"number": 64, "value": 118}, "group": "control_change"}, {"time": 530, "annotation": {"number": 64, "value": 0}, "group": "control_change"}, {"time": 533, "annotation": {"number": 64, "value": 127}, "group": "control_change"}, {"time": 578, "annotation": {"number": 64, "value": 0}, "group": "control_change"}, {"time": 581, "annotation": {"number": 64, "value": 127}, "group": "control_change"}, {"time": 626, "annotation": {"number": 64, "value": 3}, "group": "control_change"}, {"time": 629, "annotation": {"number": 64, "value": 127}, "group": "control_change"}, {"time": 676, "annotation": {"number": 64, "value": 101}, "group": "control_change"}, {"time": 676, "annotation": {"number": 64, "value": 48}, "group": "control_change"}, {"time": 676, "annotation": {"number": 64, "value": 0}, "group": "control_change"}, {"time": 678, "annotation": {"number": 64, "value": 45}, "group": "control_change"}, {"time": 678, "annotation": {"number": 64, "value": 106}, "group": "control_change"}, {"time": 678, "annotation": {"number": 64, "value": 127}, "group": "control_change"}, {"time": 722, "annotation": {"number": 64, "value": 3}, "group": "control_change"}, {"time": 725, "annotation": {"number": 64, "value": 127}, "group": "control_change"}, {"time": 770, "annotation": {"number": 64, "value": 0}, "group": "control_change"}, {"time": 773, "annotation": {"number": 64, "value": 127}, "group": "control_change"}, {"time": 818, "annotation": {"number": 64, "value": 3}, "group": "control_change"}, {"time": 821, "annotation": {"number": 64, "value": 127}, "group": "control_change"}, {"time": 866, "annotation": {"number": 64, "value": 0}, "group": "control_change"}, {"time": 869, "annotation": {"number": 64, "value": 118}, "group": "control_change"}, {"time": 914, "annotation": {"number": 64, "value": 0}, "group": "control_change"}, {"time": 917, "annotation": {"number": 64, "value": 124}, "group": "control_change"}, {"time": 962, "annotation": {"number": 64, "value": 0}, "group": "control_change"}, {"time": 967, "annotation": {"number": 64, "value": 127}, "group": "control_change"}, {"time": 1010, "annotation": {"number": 64, "value": 0}, "group": "control_change"}, {"time": 1016, "annotation": {"number": 64, "value": 127}, "group": "control_change"}, {"time": 1058, "annotation": {"number": 64, "value": 0}, "group": "control_change"}, {"time": 1064, "annotation": {"number": 64, "value": 127}, "group": "control_change"}, {"time": 1106, "annotation": {"number": 64, "value": 0}, "group": "control_change"}, {"time": 1108, "annotation": {"number": 64, "value": 127}, "group": "control_change"}, {"time": 1154, "annotation": {"number": 64, "value": 0}, "group": "control_change"}, {"time": 1159, "annotation": {"number": 64, "value": 127}, "group": "control_change"}, {"time": 1190, "annotation": {"number": 64, "value": 0}, "group": "control_change"}, {"time": 1195, "annotation": {"number": 64, "value": 127}, "group": "control_change"}, {"time": 1203, "annotation": {"number": 64, "value": 0}, "group": "control_change"}, {"time": 1207, "annotation": {"number": 64, "value": 127}, "group": "control_change"}, {"time": 1224, "annotation": {"number": 64, "value": 0}, "group": "control_change"}, {"time": 1239, "annotation": {"number": 64, "value": 127}, "group": "control_change"}, {"time": 1250, "annotation": {"number": 64, "value": 0}, "group": "control_change"}, {"time": 1254, "annotation": {"number": 64, "value": 127}, "group": "control_change"}, {"time": 1275, "annotation": {"number": 64, "value": 0}, "group": "control_change"}, {"time": 1280, "annotation": {"number": 64, "value": 127}, "group": "control_change"}, {"time": 1287, "annotation": {"number": 64, "value": 0}, "group": "control_change"}, {"time": 1291, "annotation": {"number": 64, "value": 127}, "group": "control_change"}, {"time": 1298, "annotation": {"number": 64, "value": 0}, "group": "control_change"}, {"time": 1302, "annotation": {"number": 64, "value": 127}, "group": "control_change"}, {"time": 1324, "annotation": {"number": 64, "value": 0}, "group": "control_change"}, {"time": 1328, "annotation": {"number": 64, "value": 127}, "group": "control_change"}, {"time": 1347, "annotation": {"number": 64, "value": 0}, "group": "control_change"}, {"time": 1350, "annotation": {"number": 64, "value": 127}, "group": "control_change"}, {"time": 1370, "annotation": {"number": 64, "value": 0}, "group": "control_change"}, {"time": 1374, "annotation": {"number": 64, "value": 127}, "group": "control_change"}, {"time": 1396, "annotation": {"number": 64, "value": 0}, "group": "control_change"}, {"time": 1399, "annotation": {"number": 64, "value": 127}, "group": "control_change"}, {"time": 1442, "annotation": {"number": 64, "value": 0}, "group": "control_change"}, {"time": 1444, "annotation": {"number": 64, "value": 127}, "group": "control_change"}, {"time": 1469, "annotation": {"number": 64, "value": 0}, "group": "control_change"}, {"time": 1472, "annotation": {"number": 64, "value": 127}, "group": "control_change"}, {"time": 1492, "annotation": {"number": 64, "value": 0}, "group": "control_change"}, {"time": 1494, "annotation": {"number": 64, "value": 127}, "group": "control_change"}, {"time": 1516, "annotation": {"number": 64, "value": 0}, "group": "control_change"}, {"time": 1520, "annotation": {"number": 64, "value": 127}, "group": "control_change"}, {"time": 1539, "annotation": {"number": 64, "value": 0}, "group": "control_change"}, {"time": 1541, "annotation": {"number": 64, "value": 127}, "group": "control_change"}, {"time": 1564, "annotation": {"number": 64, "value": 0}, "group": "control_change"}, {"time": 1567, "annotation": {"number": 64, "value": 127}, "group": "control_change"}, {"time": 1586, "annotation": {"number": 64, "value": 0}, "group": "control_change"}, {"time": 1587, "annotation": {"number": 64, "value": 127}, "group": "control_change"}, {"time": 1634, "annotation": {"number": 64, "value": 0}, "group": "control_change"}, {"time": 1636, "annotation": {"number": 64, "value": 127}, "group": "control_change"}, {"time": 1681, "annotation": {"number": 64, "value": 0}, "group": "control_change"}, {"time": 1686, "annotation": {"number": 64, "value": 127}, "group": "control_change"}, {"time": 1706, "annotation": {"number": 64, "value": 0}, "group": "control_change"}, {"time": 1710, "annotation": {"number": 64, "value": 127}, "group": "control_change"}, {"time": 1730, "annotation": {"number": 64, "value": 0}, "group": "control_change"}, {"time": 1735, "annotation": {"number": 64, "value": 127}, "group": "control_change"}, {"time": 1747, "annotation": {"number": 64, "value": 0}, "group": "control_change"}, {"time": 1754, "annotation": {"number": 64, "value": 127}, "group": "control_change"}, {"time": 1779, "annotation": {"number": 64, "value": 0}, "group": "control_change"}, {"time": 1783, "annotation": {"number": 64, "value": 127}, "group": "control_change"}, {"time": 1801, "annotation": {"number": 64, "value": 0}, "group": "control_change"}, {"time": 1803, "annotation": {"number": 64, "value": 127}, "group": "control_change"}, {"time": 1825, "annotation": {"number": 64, "value": 0}, "group": "control_change"}, {"time": 1828, "annotation": {"number": 64, "value": 127}, "group": "control_change"}, {"time": 1851, "annotation": {"number": 64, "value": 0}, "group": "control_change"}, {"time": 1854, "annotation": {"number": 64, "value": 127}, "group": "control_change"}, {"time": 1873, "annotation": {"number": 64, "value": 0}, "group": "control_change"}, {"time": 1875, "annotation": {"number": 64, "value": 127}, "group": "control_change"}, {"time": 1921, "annotation": {"number": 64, "value": 0}, "group": "control_change"}, {"time": 1924, "annotation": {"number": 64, "value": 127}, "group": "control_change"}, {"time": 1946, "annotation": {"number": 64, "value": 0}, "group": "control_change"}, {"time": 1946, "annotation": {"number": 64, "value": 127}, "group": "control_change"}, {"time": 1960, "annotation": {"number": 64, "value": 0}, "group": "control_change"}, {"time": 1971, "annotation": {"number": 64, "value": 127}, "group": "control_change"}, {"time": 2017, "annotation": {"number": 64, "value": 0}, "group": "control_change"}, {"time": 2018, "annotation": {"number": 64, "value": 3}, "group": "control_change"}, {"time": 2019, "annotation": {"number": 64, "value": 0}, "group": "control_change"}, {"time": 2021, "annotation": {"number": 64, "value": 127}, "group": "control_change"}, {"time": 2066, "annotation": {"number": 64, "value": 0}, "group": "control_change"}, {"time": 2069, "annotation": {"number": 64, "value": 118}, "group": "control_change"}, {"time": 2114, "annotation": {"number": 64, "value": 0}, "group": "control_change"}, {"time": 2117, "annotation": {"number": 64, "value": 124}, "group": "control_change"}, {"time": 2162, "annotation": {"number": 64, "value": 0}, "group": "control_change"}, {"time": 2167, "annotation": {"number": 64, "value": 127}, "group": "control_change"}, {"time": 2210, "annotation": {"number": 64, "value": 0}, "group": "control_change"}, {"time": 2216, "annotation": {"number": 64, "value": 127}, "group": "control_change"}, {"time": 2258, "annotation": {"number": 64, "value": 0}, "group": "control_change"}, {"time": 2264, "annotation": {"number": 64, "value": 127}, "group": "control_change"}, {"time": 2306, "annotation": {"number": 64, "value": 0}, "group": "control_change"}, {"time": 2308, "annotation": {"number": 64, "value": 127}, "group": "control_change"}, {"time": 2354, "annotation": {"number": 64, "value": 0}, "group": "control_change"}, {"time": 2359, "annotation": {"number": 64, "value": 127}, "group": "control_change"}, {"time": 2390, "annotation": {"number": 64, "value": 0}, "group": "control_change"}, {"time": 2395, "annotation": {"number": 64, "value": 127}, "group": "control_change"}, {"time": 2403, "annotation": {"number": 64, "value": 0}, "group": "control_change"}, {"time": 2407, "annotation": {"number": 64, "value": 127}, "group": "control_change"}, {"time": 2424, "annotation": {"number": 64, "value": 0}, "group": "control_change"}, {"time": 2439, "annotation": {"number": 64, "value": 127}, "group": "control_change"}, {"time": 2450, "annotation": {"number": 64, "value": 0}, "group": "control_change"}, {"time": 2454, "annotation": {"number": 64, "value": 127}, "group": "control_change"}, {"time": 2475, "annotation": {"number": 64, "value": 0}, "group": "control_change"}, {"time": 2480, "annotation": {"number": 64, "value": 127}, "group": "control_change"}, {"time": 2487, "annotation": {"number": 64, "value": 0}, "group": "control_change"}, {"time": 2491, "annotation": {"number": 64, "value": 127}, "group": "control_change"}, {"time": 2498, "annotation": {"number": 64, "value": 0}, "group": "control_change"}, {"time": 2502, "annotation": {"number": 64, "value": 127}, "group": "control_change"}, {"time": 2524, "annotation": {"number": 64, "value": 0}, "group": "control_change"}, {"time": 2528, "annotation": {"number": 64, "value": 127}, "group": "control_change"}, {"time": 2547, "annotation": {"number": 64, "value": 0}, "group": "control_change"}, {"time": 2550, "annotation": {"number": 64, "value": 127}, "group": "control_change"}, {"time": 2570, "annotation": {"number": 64, "value": 0}, "group": "control_change"}, {"time": 2574, "annotation": {"number": 64, "value": 127}, "group": "control_change"}, {"time": 2596, "annotation": {"number": 64, "value": 0}, "group": "control_change"}, {"time": 2599, "annotation": {"number": 64, "value": 127}, "group": "control_change"}, {"time": 2642, "annotation": {"number": 64, "value": 0}, "group": "control_change"}, {"time": 2644, "annotation": {"number": 64, "value": 127}, "group": "control_change"}, {"time": 2669, "annotation": {"number": 64, "value": 0}, "group": "control_change"}, {"time": 2672, "annotation": {"number": 64, "value": 127}, "group": "control_change"}, {"time": 2692, "annotation": {"number": 64, "value": 0}, "group": "control_change"}, {"time": 2694, "annotation": {"number": 64, "value": 127}, "group": "control_change"}, {"time": 2716, "annotation": {"number": 64, "value": 0}, "group": "control_change"}, {"time": 2720, "annotation": {"number": 64, "value": 127}, "group": "control_change"}, {"time": 2739, "annotation": {"number": 64, "value": 0}, "group": "control_change"}, {"time": 2741, "annotation": {"number": 64, "value": 127}, "group": "control_change"}, {"time": 2764, "annotation": {"number": 64, "value": 0}, "group": "control_change"}, {"time": 2767, "annotation": {"number": 64, "value": 127}, "group": "control_change"}, {"time": 2786, "annotation": {"number": 64, "value": 0}, "group": "control_change"}, {"time": 2787, "annotation": {"number": 64, "value": 127}, "group": "control_change"}, {"time": 2834, "annotation": {"number": 64, "value": 0}, "group": "control_change"}, {"time": 2835, "annotation": {"number": 64, "value": 127}, "group": "control_change"}, {"time": 2859, "annotation": {"number": 64, "value": 0}, "group": "control_change"}, {"time": 2863, "annotation": {"number": 64, "value": 127}, "group": "control_change"}, {"time": 2881, "annotation": {"number": 64, "value": 0}, "group": "control_change"}, {"time": 2885, "annotation": {"number": 64, "value": 127}, "group": "control_change"}, {"time": 2906, "annotation": {"number": 64, "value": 0}, "group": "control_change"}, {"time": 2911, "annotation": {"number": 64, "value": 127}, "group": "control_change"}, {"time": 2917, "annotation": {"number": 64, "value": 0}, "group": "control_change"}, {"time": 2934, "annotation": {"number": 64, "value": 127}, "group": "control_change"}, {"time": 2954, "annotation": {"number": 64, "value": 0}, "group": "control_change"}, {"time": 2959, "annotation": {"number": 64, "value": 127}, "group": "control_change"}, {"time": 2966, "annotation": {"number": 64, "value": 0}, "group": "control_change"}, {"time": 2981, "annotation": {"number": 64, "value": 127}, "group": "control_change"}, {"time": 3002, "annotation": {"number": 64, "value": 0}, "group": "control_change"}, {"time": 3005, "annotation": {"number": 64, "value": 127}, "group": "control_change"}, {"time": 3014, "annotation": {"number": 64, "value": 0}, "group": "control_change"}, {"time": 3014, "annotation": {"number": 64, "value": 127}, "group": "control_change"}, {"time": 3021, "annotation": {"number": 64, "value": 127}, "group": "control_change"}, {"time": 3026, "annotation": {"number": 64, "value": 0}, "group": "control_change"}, {"time": 3029, "annotation": {"number": 64, "value": 127}, "group": "control_change"}, {"time": 3050, "annotation": {"number": 64, "value": 0}, "group": "control_change"}, {"time": 3054, "annotation": {"number": 64, "value": 127}, "group": "control_change"}, {"time": 3075, "annotation": {"number": 64, "value": 0}, "group": "control_change"}, {"time": 3078, "annotation": {"number": 64, "value": 127}, "group": "control_change"}, {"time": 3123, "annotation": {"number": 64, "value": 127}, "group": "control_change"}, {"time": 3128, "annotation": {"number": 64, "value": 0}, "group": "control_change"}, {"time": 3147, "annotation": {"number": 64, "value": 0}, "group": "control_change"}, {"time": 3151, "annotation": {"number": 64, "value": 127}, "group": "control_change"}, {"time": 3170, "annotation": {"number": 64, "value": 0}, "group": "control_change"}, {"time": 3174, "annotation": {"number": 64, "value": 127}, "group": "control_change"}, {"time": 3217, "annotation": {"number": 64, "value": 0}, "group": "control_change"}, {"time": 3221, "annotation": {"number": 64, "value": 127}, "group": "control_change"}, {"time": 3254, "annotation": {"number": 64, "value": 0}, "group": "control_change"}, {"time": 3257, "annotation": {"number": 64, "value": 127}, "group": "control_change"}, {"time": 3266, "annotation": {"number": 64, "value": 0}, "group": "control_change"}, {"time": 3270, "annotation": {"number": 64, "value": 127}, "group": "control_change"}, {"time": 3297, "annotation": {"number": 64, "value": 0}, "group": "control_change"}, {"time": 3301, "annotation": {"number": 64, "value": 127}, "group": "control_change"}, {"time": 3315, "annotation": {"number": 64, "value": 0}, "group": "control_change"}, {"time": 3316, "annotation": {"number": 64, "value": 127}, "group": "control_change"}, {"time": 3319, "annotation": {"number": 64, "value": 127}, "group": "control_change"}, {"time": 3335, "annotation": {"number": 64, "value": 0}, "group": "control_change"}, {"time": 3338, "annotation": {"number": 64, "value": 0}, "group": "control_change"}, {"time": 3343, "annotation": {"number": 64, "value": 127}, "group": "control_change"}, {"time": 3382, "annotation": {"number": 64, "value": 0}, "group": "control_change"}, {"time": 3385, "annotation": {"number": 64, "value": 127}, "group": "control_change"}, {"time": 3463, "annotation": {"number": 64, "value": 0}, "group": "control_change"}]}]}