{"metadata": {"schema_version": "0.2", "title": "None", "source_filename": "193.mid", "source_format": "midi"}, "resolution": 12, "tempos": [{"time": 0, "qpm": 72.00011520018433}], "time_signatures": [{"time": 0, "numerator": 4, "denominator": 4}], "tracks": [{"program": 4, "is_drum": false, "name": "MELODY", "notes": [{"time": 446, "pitch": 73, "duration": 3, "velocity": 64}, {"time": 449, "pitch": 78, "duration": 6, "velocity": 81}, {"time": 455, "pitch": 80, "duration": 7, "velocity": 86}, {"time": 461, "pitch": 77, "duration": 9, "velocity": 90}, {"time": 479, "pitch": 75, "duration": 3, "velocity": 68}, {"time": 482, "pitch": 77, "duration": 3, "velocity": 68}, {"time": 485, "pitch": 78, "duration": 9, "velocity": 87}, {"time": 494, "pitch": 77, "duration": 9, "velocity": 87}, {"time": 503, "pitch": 70, "duration": 5, "velocity": 66}, {"time": 509, "pitch": 73, "duration": 5, "velocity": 80}, {"time": 512, "pitch": 75, "duration": 13, "velocity": 86}, {"time": 527, "pitch": 78, "duration": 5, "velocity": 92}, {"time": 530, "pitch": 75, "duration": 6, "velocity": 87}, {"time": 533, "pitch": 73, "duration": 14, "velocity": 66}, {"time": 551, "pitch": 73, "duration": 1, "velocity": 82}, {"time": 554, "pitch": 73, "duration": 2, "velocity": 67}, {"time": 557, "pitch": 77, "duration": 8, "velocity": 93}, {"time": 566, "pitch": 73, "duration": 6, "velocity": 87}, {"time": 575, "pitch": 73, "duration": 3, "velocity": 87}, {"time": 581, "pitch": 71, "duration": 4, "velocity": 74}, {"time": 587, "pitch": 70, "duration": 10, "velocity": 65}, {"time": 623, "pitch": 70, "duration": 3, "velocity": 80}, {"time": 626, "pitch": 73, "duration": 4, "velocity": 72}, {"time": 629, "pitch": 75, "duration": 8, "velocity": 96}, {"time": 638, "pitch": 78, "duration": 4, "velocity": 69}, {"time": 641, "pitch": 80, "duration": 6, "velocity": 72}, {"time": 647, "pitch": 78, "duration": 6, "velocity": 87}, {"time": 653, "pitch": 75, "duration": 6, "velocity": 67}, {"time": 659, "pitch": 82, "duration": 6, "velocity": 95}, {"time": 665, "pitch": 80, "duration": 6, "velocity": 97}, {"time": 671, "pitch": 78, "duration": 5, "velocity": 97}, {"time": 683, "pitch": 73, "duration": 5, "velocity": 87}, {"time": 689, "pitch": 82, "duration": 6, "velocity": 98}, {"time": 695, "pitch": 80, "duration": 7, "velocity": 96}, {"time": 701, "pitch": 78, "duration": 16, "velocity": 105}, {"time": 725, "pitch": 75, "duration": 28, "velocity": 108}, {"time": 749, "pitch": 77, "duration": 9, "velocity": 93}, {"time": 758, "pitch": 73, "duration": 9, "velocity": 82}, {"time": 767, "pitch": 77, "duration": 6, "velocity": 95}, {"time": 773, "pitch": 78, "duration": 20, "velocity": 93}, {"time": 830, "pitch": 73, "duration": 3, "velocity": 64}, {"time": 833, "pitch": 78, "duration": 6, "velocity": 81}, {"time": 839, "pitch": 80, "duration": 7, "velocity": 86}, {"time": 845, "pitch": 77, "duration": 9, "velocity": 90}, {"time": 863, "pitch": 75, "duration": 3, "velocity": 68}, {"time": 866, "pitch": 77, "duration": 3, "velocity": 68}, {"time": 869, "pitch": 78, "duration": 9, "velocity": 87}, {"time": 878, "pitch": 77, "duration": 9, "velocity": 87}, {"time": 887, "pitch": 70, "duration": 5, "velocity": 66}, {"time": 893, "pitch": 73, "duration": 5, "velocity": 80}, {"time": 896, "pitch": 75, "duration": 13, "velocity": 86}, {"time": 911, "pitch": 78, "duration": 5, "velocity": 92}, {"time": 914, "pitch": 75, "duration": 6, "velocity": 87}, {"time": 917, "pitch": 73, "duration": 14, "velocity": 66}, {"time": 935, "pitch": 73, "duration": 1, "velocity": 82}, {"time": 938, "pitch": 73, "duration": 2, "velocity": 67}, {"time": 941, "pitch": 77, "duration": 5, "velocity": 93}, {"time": 947, "pitch": 73, "duration": 5, "velocity": 87}, {"time": 953, "pitch": 73, "duration": 3, "velocity": 87}, {"time": 959, "pitch": 71, "duration": 4, "velocity": 74}, {"time": 965, "pitch": 70, "duration": 10, "velocity": 65}, {"time": 1007, "pitch": 70, "duration": 2, "velocity": 83}, {"time": 1010, "pitch": 73, "duration": 2, "velocity": 90}, {"time": 1013, "pitch": 75, "duration": 12, "velocity": 93}, {"time": 1025, "pitch": 78, "duration": 23, "velocity": 87}, {"time": 1049, "pitch": 80, "duration": 6, "velocity": 98}, {"time": 1055, "pitch": 78, "duration": 3, "velocity": 93}, {"time": 1058, "pitch": 80, "duration": 4, "velocity": 90}, {"time": 1061, "pitch": 82, "duration": 22, "velocity": 106}, {"time": 1079, "pitch": 80, "duration": 6, "velocity": 106}, {"time": 1085, "pitch": 78, "duration": 13, "velocity": 111}, {"time": 1103, "pitch": 73, "duration": 3, "velocity": 96}, {"time": 1106, "pitch": 75, "duration": 3, "velocity": 91}, {"time": 1109, "pitch": 78, "duration": 6, "velocity": 108}, {"time": 1118, "pitch": 75, "duration": 16, "velocity": 106}, {"time": 1142, "pitch": 73, "duration": 6, "velocity": 127}, {"time": 1148, "pitch": 75, "duration": 3, "velocity": 75}, {"time": 1151, "pitch": 78, "duration": 3, "velocity": 86}, {"time": 1154, "pitch": 75, "duration": 3, "velocity": 85}, {"time": 1157, "pitch": 80, "duration": 36, "velocity": 90}, {"time": 1193, "pitch": 70, "duration": 6, "velocity": 98}, {"time": 1199, "pitch": 71, "duration": 6, "velocity": 103}, {"time": 1205, "pitch": 73, "duration": 17, "velocity": 100}, {"time": 1226, "pitch": 82, "duration": 4, "velocity": 93}, {"time": 1229, "pitch": 80, "duration": 6, "velocity": 92}, {"time": 1235, "pitch": 78, "duration": 6, "velocity": 98}, {"time": 1241, "pitch": 70, "duration": 4, "velocity": 92}, {"time": 1244, "pitch": 73, "duration": 9, "velocity": 87}, {"time": 1253, "pitch": 75, "duration": 17, "velocity": 97}, {"time": 1274, "pitch": 82, "duration": 3, "velocity": 101}, {"time": 1277, "pitch": 80, "duration": 9, "velocity": 96}, {"time": 1286, "pitch": 78, "duration": 12, "velocity": 99}, {"time": 1307, "pitch": 73, "duration": 2, "velocity": 77}, {"time": 1310, "pitch": 80, "duration": 1, "velocity": 84}, {"time": 1313, "pitch": 80, "duration": 5, "velocity": 92}, {"time": 1319, "pitch": 73, "duration": 5, "velocity": 85}, {"time": 1325, "pitch": 80, "duration": 8, "velocity": 96}, {"time": 1334, "pitch": 82, "duration": 9, "velocity": 100}, {"time": 1343, "pitch": 85, "duration": 6, "velocity": 84}, {"time": 1349, "pitch": 82, "duration": 19, "velocity": 97}, {"time": 1385, "pitch": 82, "duration": 6, "velocity": 99}, {"time": 1391, "pitch": 80, "duration": 6, "velocity": 95}, {"time": 1397, "pitch": 75, "duration": 6, "velocity": 90}, {"time": 1403, "pitch": 82, "duration": 6, "velocity": 98}, {"time": 1409, "pitch": 80, "duration": 6, "velocity": 90}, {"time": 1415, "pitch": 78, "duration": 6, "velocity": 90}, {"time": 1421, "pitch": 80, "duration": 8, "velocity": 95}, {"time": 1430, "pitch": 75, "duration": 9, "velocity": 87}, {"time": 1451, "pitch": 73, "duration": 4, "velocity": 77}, {"time": 1457, "pitch": 82, "duration": 6, "velocity": 87}, {"time": 1463, "pitch": 80, "duration": 1, "velocity": 64}, {"time": 1466, "pitch": 80, "duration": 6, "velocity": 87}, {"time": 1472, "pitch": 78, "duration": 14, "velocity": 81}, {"time": 1487, "pitch": 73, "duration": 3, "velocity": 87}, {"time": 1490, "pitch": 75, "duration": 3, "velocity": 79}, {"time": 1493, "pitch": 78, "duration": 6, "velocity": 101}, {"time": 1502, "pitch": 78, "duration": 1, "velocity": 93}, {"time": 1505, "pitch": 78, "duration": 4, "velocity": 96}, {"time": 1511, "pitch": 80, "duration": 4, "velocity": 90}, {"time": 1514, "pitch": 82, "duration": 8, "velocity": 90}, {"time": 1523, "pitch": 80, "duration": 4, "velocity": 84}, {"time": 1529, "pitch": 80, "duration": 4, "velocity": 91}, {"time": 1535, "pitch": 78, "duration": 4, "velocity": 90}, {"time": 1541, "pitch": 85, "duration": 7, "velocity": 93}, {"time": 1550, "pitch": 80, "duration": 19, "velocity": 83}, {"time": 1577, "pitch": 70, "duration": 7, "velocity": 93}, {"time": 1583, "pitch": 71, "duration": 6, "velocity": 93}, {"time": 1589, "pitch": 73, "duration": 12, "velocity": 96}, {"time": 1610, "pitch": 82, "duration": 3, "velocity": 93}, {"time": 1613, "pitch": 80, "duration": 6, "velocity": 92}, {"time": 1619, "pitch": 78, "duration": 3, "velocity": 93}, {"time": 1625, "pitch": 70, "duration": 6, "velocity": 91}, {"time": 1628, "pitch": 73, "duration": 9, "velocity": 98}, {"time": 1637, "pitch": 75, "duration": 10, "velocity": 105}, {"time": 1658, "pitch": 82, "duration": 4, "velocity": 74}, {"time": 1661, "pitch": 80, "duration": 9, "velocity": 91}, {"time": 1670, "pitch": 78, "duration": 13, "velocity": 91}, {"time": 1691, "pitch": 73, "duration": 2, "velocity": 72}, {"time": 1694, "pitch": 80, "duration": 1, "velocity": 79}, {"time": 1697, "pitch": 80, "duration": 4, "velocity": 94}, {"time": 1703, "pitch": 82, "duration": 4, "velocity": 96}, {"time": 1709, "pitch": 85, "duration": 6, "velocity": 90}, {"time": 1718, "pitch": 82, "duration": 7, "velocity": 93}, {"time": 1727, "pitch": 80, "duration": 4, "velocity": 98}, {"time": 1733, "pitch": 82, "duration": 28, "velocity": 103}, {"time": 1769, "pitch": 82, "duration": 6, "velocity": 101}, {"time": 1775, "pitch": 80, "duration": 6, "velocity": 93}, {"time": 1781, "pitch": 75, "duration": 5, "velocity": 93}, {"time": 1787, "pitch": 82, "duration": 7, "velocity": 100}, {"time": 1793, "pitch": 80, "duration": 6, "velocity": 93}, {"time": 1799, "pitch": 78, "duration": 6, "velocity": 93}, {"time": 1805, "pitch": 80, "duration": 9, "velocity": 98}, {"time": 1814, "pitch": 75, "duration": 13, "velocity": 92}, {"time": 1835, "pitch": 82, "duration": 4, "velocity": 100}, {"time": 1841, "pitch": 82, "duration": 9, "velocity": 105}, {"time": 1850, "pitch": 77, "duration": 6, "velocity": 87}, {"time": 1856, "pitch": 78, "duration": 10, "velocity": 96}, {"time": 1871, "pitch": 73, "duration": 3, "velocity": 90}, {"time": 1874, "pitch": 75, "duration": 2, "velocity": 91}, {"time": 1877, "pitch": 78, "duration": 8, "velocity": 100}, {"time": 1886, "pitch": 75, "duration": 15, "velocity": 105}, {"time": 1901, "pitch": 78, "duration": 7, "velocity": 100}, {"time": 1910, "pitch": 75, "duration": 8, "velocity": 103}, {"time": 1919, "pitch": 73, "duration": 6, "velocity": 90}, {"time": 1925, "pitch": 82, "duration": 8, "velocity": 100}, {"time": 1931, "pitch": 80, "duration": 15, "velocity": 98}, {"time": 1949, "pitch": 80, "duration": 9, "velocity": 105}, {"time": 1958, "pitch": 75, "duration": 9, "velocity": 98}, {"time": 1967, "pitch": 80, "duration": 5, "velocity": 97}, {"time": 1973, "pitch": 78, "duration": 38, "velocity": 91}, {"time": 2393, "pitch": 70, "duration": 6, "velocity": 98}, {"time": 2399, "pitch": 71, "duration": 6, "velocity": 103}, {"time": 2405, "pitch": 73, "duration": 17, "velocity": 100}, {"time": 2426, "pitch": 82, "duration": 4, "velocity": 93}, {"time": 2429, "pitch": 80, "duration": 6, "velocity": 92}, {"time": 2435, "pitch": 78, "duration": 6, "velocity": 98}, {"time": 2441, "pitch": 70, "duration": 4, "velocity": 92}, {"time": 2444, "pitch": 73, "duration": 9, "velocity": 87}, {"time": 2453, "pitch": 75, "duration": 17, "velocity": 97}, {"time": 2474, "pitch": 82, "duration": 3, "velocity": 101}, {"time": 2477, "pitch": 80, "duration": 9, "velocity": 96}, {"time": 2486, "pitch": 78, "duration": 12, "velocity": 99}, {"time": 2507, "pitch": 73, "duration": 2, "velocity": 77}, {"time": 2510, "pitch": 80, "duration": 1, "velocity": 84}, {"time": 2513, "pitch": 80, "duration": 5, "velocity": 92}, {"time": 2519, "pitch": 73, "duration": 5, "velocity": 85}, {"time": 2525, "pitch": 80, "duration": 8, "velocity": 96}, {"time": 2534, "pitch": 82, "duration": 9, "velocity": 100}, {"time": 2543, "pitch": 85, "duration": 6, "velocity": 84}, {"time": 2549, "pitch": 82, "duration": 19, "velocity": 97}, {"time": 2585, "pitch": 82, "duration": 6, "velocity": 99}, {"time": 2591, "pitch": 80, "duration": 6, "velocity": 95}, {"time": 2597, "pitch": 75, "duration": 6, "velocity": 90}, {"time": 2603, "pitch": 82, "duration": 6, "velocity": 98}, {"time": 2609, "pitch": 80, "duration": 6, "velocity": 90}, {"time": 2615, "pitch": 78, "duration": 6, "velocity": 90}, {"time": 2621, "pitch": 80, "duration": 8, "velocity": 95}, {"time": 2630, "pitch": 75, "duration": 9, "velocity": 87}, {"time": 2651, "pitch": 73, "duration": 4, "velocity": 77}, {"time": 2657, "pitch": 82, "duration": 6, "velocity": 87}, {"time": 2663, "pitch": 80, "duration": 10, "velocity": 87}, {"time": 2669, "pitch": 78, "duration": 17, "velocity": 81}, {"time": 2687, "pitch": 73, "duration": 3, "velocity": 87}, {"time": 2690, "pitch": 75, "duration": 3, "velocity": 79}, {"time": 2693, "pitch": 78, "duration": 6, "velocity": 101}, {"time": 2702, "pitch": 78, "duration": 1, "velocity": 93}, {"time": 2705, "pitch": 78, "duration": 4, "velocity": 96}, {"time": 2711, "pitch": 80, "duration": 4, "velocity": 90}, {"time": 2714, "pitch": 82, "duration": 8, "velocity": 90}, {"time": 2723, "pitch": 80, "duration": 4, "velocity": 84}, {"time": 2729, "pitch": 80, "duration": 4, "velocity": 91}, {"time": 2735, "pitch": 78, "duration": 4, "velocity": 90}, {"time": 2741, "pitch": 85, "duration": 7, "velocity": 93}, {"time": 2747, "pitch": 80, "duration": 21, "velocity": 83}, {"time": 2777, "pitch": 70, "duration": 7, "velocity": 93}, {"time": 2783, "pitch": 71, "duration": 6, "velocity": 93}, {"time": 2789, "pitch": 73, "duration": 12, "velocity": 96}, {"time": 2810, "pitch": 82, "duration": 3, "velocity": 93}, {"time": 2813, "pitch": 80, "duration": 6, "velocity": 92}, {"time": 2819, "pitch": 78, "duration": 3, "velocity": 93}, {"time": 2825, "pitch": 70, "duration": 6, "velocity": 91}, {"time": 2828, "pitch": 73, "duration": 9, "velocity": 98}, {"time": 2837, "pitch": 75, "duration": 10, "velocity": 105}, {"time": 2858, "pitch": 82, "duration": 4, "velocity": 74}, {"time": 2861, "pitch": 80, "duration": 9, "velocity": 91}, {"time": 2870, "pitch": 78, "duration": 13, "velocity": 91}, {"time": 2891, "pitch": 73, "duration": 2, "velocity": 72}, {"time": 2894, "pitch": 80, "duration": 1, "velocity": 79}, {"time": 2897, "pitch": 80, "duration": 4, "velocity": 94}, {"time": 2903, "pitch": 82, "duration": 4, "velocity": 96}, {"time": 2909, "pitch": 85, "duration": 6, "velocity": 90}, {"time": 2918, "pitch": 82, "duration": 7, "velocity": 93}, {"time": 2927, "pitch": 80, "duration": 4, "velocity": 98}, {"time": 2933, "pitch": 82, "duration": 28, "velocity": 103}, {"time": 2969, "pitch": 82, "duration": 6, "velocity": 101}, {"time": 2975, "pitch": 80, "duration": 6, "velocity": 93}, {"time": 2981, "pitch": 75, "duration": 5, "velocity": 93}, {"time": 2987, "pitch": 82, "duration": 7, "velocity": 100}, {"time": 2993, "pitch": 80, "duration": 6, "velocity": 93}, {"time": 2999, "pitch": 78, "duration": 6, "velocity": 93}, {"time": 3005, "pitch": 80, "duration": 9, "velocity": 98}, {"time": 3014, "pitch": 75, "duration": 13, "velocity": 92}, {"time": 3035, "pitch": 82, "duration": 4, "velocity": 100}, {"time": 3041, "pitch": 82, "duration": 9, "velocity": 105}, {"time": 3050, "pitch": 77, "duration": 6, "velocity": 87}, {"time": 3056, "pitch": 78, "duration": 10, "velocity": 96}, {"time": 3071, "pitch": 73, "duration": 3, "velocity": 90}, {"time": 3074, "pitch": 75, "duration": 2, "velocity": 91}, {"time": 3077, "pitch": 78, "duration": 8, "velocity": 100}, {"time": 3086, "pitch": 75, "duration": 15, "velocity": 105}, {"time": 3101, "pitch": 78, "duration": 7, "velocity": 100}, {"time": 3110, "pitch": 75, "duration": 8, "velocity": 103}, {"time": 3119, "pitch": 73, "duration": 6, "velocity": 90}, {"time": 3125, "pitch": 82, "duration": 8, "velocity": 100}, {"time": 3131, "pitch": 80, "duration": 15, "velocity": 98}, {"time": 3149, "pitch": 80, "duration": 9, "velocity": 105}, {"time": 3158, "pitch": 75, "duration": 9, "velocity": 98}, {"time": 3167, "pitch": 80, "duration": 5, "velocity": 97}, {"time": 3173, "pitch": 78, "duration": 63, "velocity": 91}]}, {"program": 0, "is_drum": false, "name": "PIANO", "notes": [{"time": 5, "pitch": 66, "duration": 23, "velocity": 60}, {"time": 5, "pitch": 73, "duration": 17, "velocity": 53}, {"time": 29, "pitch": 65, "duration": 18, "velocity": 64}, {"time": 29, "pitch": 73, "duration": 9, "velocity": 53}, {"time": 53, "pitch": 63, "duration": 15, "velocity": 50}, {"time": 53, "pitch": 70, "duration": 16, "velocity": 57}, {"time": 53, "pitch": 73, "duration": 16, "velocity": 58}, {"time": 77, "pitch": 61, "duration": 18, "velocity": 49}, {"time": 77, "pitch": 70, "duration": 17, "velocity": 48}, {"time": 101, "pitch": 59, "duration": 16, "velocity": 54}, {"time": 125, "pitch": 58, "duration": 15, "velocity": 62}, {"time": 149, "pitch": 56, "duration": 9, "velocity": 54}, {"time": 149, "pitch": 63, "duration": 9, "velocity": 58}, {"time": 149, "pitch": 66, "duration": 9, "velocity": 57}, {"time": 149, "pitch": 71, "duration": 9, "velocity": 66}, {"time": 158, "pitch": 58, "duration": 9, "velocity": 54}, {"time": 167, "pitch": 59, "duration": 6, "velocity": 54}, {"time": 173, "pitch": 61, "duration": 9, "velocity": 54}, {"time": 173, "pitch": 68, "duration": 9, "velocity": 45}, {"time": 197, "pitch": 66, "duration": 17, "velocity": 49}, {"time": 197, "pitch": 73, "duration": 8, "velocity": 55}, {"time": 206, "pitch": 70, "duration": 15, "velocity": 48}, {"time": 209, "pitch": 73, "duration": 3, "velocity": 66}, {"time": 221, "pitch": 65, "duration": 19, "velocity": 62}, {"time": 221, "pitch": 73, "duration": 10, "velocity": 59}, {"time": 245, "pitch": 63, "duration": 18, "velocity": 46}, {"time": 245, "pitch": 73, "duration": 7, "velocity": 53}, {"time": 251, "pitch": 70, "duration": 13, "velocity": 46}, {"time": 257, "pitch": 73, "duration": 4, "velocity": 69}, {"time": 269, "pitch": 61, "duration": 17, "velocity": 58}, {"time": 275, "pitch": 70, "duration": 5, "velocity": 45}, {"time": 284, "pitch": 70, "duration": 2, "velocity": 59}, {"time": 293, "pitch": 59, "duration": 17, "velocity": 66}, {"time": 299, "pitch": 66, "duration": 11, "velocity": 41}, {"time": 317, "pitch": 58, "duration": 17, "velocity": 60}, {"time": 341, "pitch": 56, "duration": 18, "velocity": 58}, {"time": 341, "pitch": 63, "duration": 7, "velocity": 63}, {"time": 341, "pitch": 66, "duration": 6, "velocity": 72}, {"time": 362, "pitch": 66, "duration": 2, "velocity": 49}, {"time": 365, "pitch": 49, "duration": 20, "velocity": 67}, {"time": 371, "pitch": 61, "duration": 8, "velocity": 58}, {"time": 374, "pitch": 66, "duration": 4, "velocity": 91}, {"time": 383, "pitch": 61, "duration": 2, "velocity": 53}, {"time": 389, "pitch": 49, "duration": 12, "velocity": 66}, {"time": 389, "pitch": 65, "duration": 7, "velocity": 73}, {"time": 389, "pitch": 68, "duration": 5, "velocity": 62}, {"time": 395, "pitch": 61, "duration": 5, "velocity": 36}, {"time": 401, "pitch": 51, "duration": 12, "velocity": 66}, {"time": 401, "pitch": 63, "duration": 4, "velocity": 72}, {"time": 401, "pitch": 66, "duration": 4, "velocity": 61}, {"time": 413, "pitch": 53, "duration": 11, "velocity": 54}, {"time": 413, "pitch": 61, "duration": 8, "velocity": 69}, {"time": 413, "pitch": 68, "duration": 10, "velocity": 78}, {"time": 425, "pitch": 53, "duration": 3, "velocity": 70}, {"time": 425, "pitch": 61, "duration": 3, "velocity": 59}, {"time": 425, "pitch": 65, "duration": 3, "velocity": 51}, {"time": 425, "pitch": 68, "duration": 4, "velocity": 62}, {"time": 437, "pitch": 42, "duration": 10, "velocity": 70}, {"time": 437, "pitch": 61, "duration": 5, "velocity": 64}, {"time": 437, "pitch": 66, "duration": 6, "velocity": 63}, {"time": 437, "pitch": 70, "duration": 5, "velocity": 69}, {"time": 443, "pitch": 54, "duration": 8, "velocity": 49}, {"time": 449, "pitch": 61, "duration": 5, "velocity": 75}, {"time": 455, "pitch": 70, "duration": 4, "velocity": 69}, {"time": 461, "pitch": 53, "duration": 16, "velocity": 45}, {"time": 461, "pitch": 61, "duration": 8, "velocity": 63}, {"time": 461, "pitch": 65, "duration": 6, "velocity": 82}, {"time": 461, "pitch": 68, "duration": 7, "velocity": 75}, {"time": 467, "pitch": 58, "duration": 10, "velocity": 61}, {"time": 473, "pitch": 61, "duration": 6, "velocity": 76}, {"time": 479, "pitch": 65, "duration": 4, "velocity": 69}, {"time": 485, "pitch": 51, "duration": 6, "velocity": 66}, {"time": 485, "pitch": 61, "duration": 6, "velocity": 73}, {"time": 485, "pitch": 66, "duration": 6, "velocity": 80}, {"time": 491, "pitch": 58, "duration": 6, "velocity": 59}, {"time": 497, "pitch": 49, "duration": 8, "velocity": 64}, {"time": 497, "pitch": 61, "duration": 6, "velocity": 63}, {"time": 497, "pitch": 65, "duration": 6, "velocity": 72}, {"time": 497, "pitch": 68, "duration": 6, "velocity": 75}, {"time": 503, "pitch": 58, "duration": 4, "velocity": 66}, {"time": 509, "pitch": 47, "duration": 18, "velocity": 63}, {"time": 509, "pitch": 61, "duration": 8, "velocity": 69}, {"time": 509, "pitch": 63, "duration": 9, "velocity": 70}, {"time": 509, "pitch": 66, "duration": 10, "velocity": 73}, {"time": 515, "pitch": 54, "duration": 13, "velocity": 36}, {"time": 521, "pitch": 59, "duration": 6, "velocity": 62}, {"time": 527, "pitch": 61, "duration": 4, "velocity": 76}, {"time": 533, "pitch": 44, "duration": 17, "velocity": 69}, {"time": 533, "pitch": 59, "duration": 5, "velocity": 72}, {"time": 533, "pitch": 63, "duration": 6, "velocity": 75}, {"time": 533, "pitch": 66, "duration": 4, "velocity": 73}, {"time": 539, "pitch": 56, "duration": 8, "velocity": 44}, {"time": 545, "pitch": 59, "duration": 5, "velocity": 75}, {"time": 545, "pitch": 63, "duration": 6, "velocity": 76}, {"time": 545, "pitch": 66, "duration": 6, "velocity": 76}, {"time": 551, "pitch": 56, "duration": 5, "velocity": 66}, {"time": 557, "pitch": 47, "duration": 11, "velocity": 75}, {"time": 557, "pitch": 63, "duration": 7, "velocity": 80}, {"time": 557, "pitch": 66, "duration": 6, "velocity": 75}, {"time": 563, "pitch": 59, "duration": 6, "velocity": 50}, {"time": 566, "pitch": 63, "duration": 1, "velocity": 35}, {"time": 569, "pitch": 49, "duration": 7, "velocity": 63}, {"time": 569, "pitch": 61, "duration": 5, "velocity": 78}, {"time": 569, "pitch": 65, "duration": 6, "velocity": 78}, {"time": 569, "pitch": 68, "duration": 5, "velocity": 75}, {"time": 575, "pitch": 61, "duration": 3, "velocity": 49}, {"time": 581, "pitch": 42, "duration": 19, "velocity": 64}, {"time": 581, "pitch": 61, "duration": 6, "velocity": 76}, {"time": 581, "pitch": 66, "duration": 7, "velocity": 73}, {"time": 581, "pitch": 70, "duration": 5, "velocity": 73}, {"time": 587, "pitch": 54, "duration": 8, "velocity": 42}, {"time": 593, "pitch": 61, "duration": 6, "velocity": 78}, {"time": 593, "pitch": 66, "duration": 6, "velocity": 82}, {"time": 593, "pitch": 70, "duration": 5, "velocity": 72}, {"time": 599, "pitch": 54, "duration": 3, "velocity": 53}, {"time": 605, "pitch": 42, "duration": 17, "velocity": 58}, {"time": 605, "pitch": 54, "duration": 5, "velocity": 55}, {"time": 605, "pitch": 58, "duration": 5, "velocity": 60}, {"time": 605, "pitch": 61, "duration": 5, "velocity": 66}, {"time": 605, "pitch": 66, "duration": 6, "velocity": 63}, {"time": 611, "pitch": 54, "duration": 11, "velocity": 44}, {"time": 617, "pitch": 61, "duration": 3, "velocity": 67}, {"time": 617, "pitch": 68, "duration": 5, "velocity": 69}, {"time": 623, "pitch": 61, "duration": 4, "velocity": 48}, {"time": 623, "pitch": 70, "duration": 5, "velocity": 67}, {"time": 629, "pitch": 47, "duration": 20, "velocity": 73}, {"time": 629, "pitch": 63, "duration": 12, "velocity": 72}, {"time": 629, "pitch": 71, "duration": 13, "velocity": 76}, {"time": 635, "pitch": 54, "duration": 15, "velocity": 60}, {"time": 641, "pitch": 59, "duration": 9, "velocity": 67}, {"time": 647, "pitch": 66, "duration": 5, "velocity": 67}, {"time": 653, "pitch": 47, "duration": 18, "velocity": 69}, {"time": 653, "pitch": 61, "duration": 6, "velocity": 69}, {"time": 653, "pitch": 65, "duration": 6, "velocity": 72}, {"time": 653, "pitch": 68, "duration": 6, "velocity": 70}, {"time": 659, "pitch": 59, "duration": 12, "velocity": 45}, {"time": 665, "pitch": 73, "duration": 5, "velocity": 67}, {"time": 671, "pitch": 68, "duration": 5, "velocity": 72}, {"time": 677, "pitch": 46, "duration": 6, "velocity": 72}, {"time": 677, "pitch": 61, "duration": 5, "velocity": 72}, {"time": 677, "pitch": 65, "duration": 10, "velocity": 101}, {"time": 683, "pitch": 58, "duration": 6, "velocity": 60}, {"time": 689, "pitch": 61, "duration": 6, "velocity": 61}, {"time": 695, "pitch": 60, "duration": 1, "velocity": 42}, {"time": 695, "pitch": 65, "duration": 1, "velocity": 75}, {"time": 701, "pitch": 51, "duration": 18, "velocity": 72}, {"time": 701, "pitch": 61, "duration": 4, "velocity": 67}, {"time": 701, "pitch": 66, "duration": 6, "velocity": 64}, {"time": 707, "pitch": 58, "duration": 12, "velocity": 59}, {"time": 707, "pitch": 68, "duration": 5, "velocity": 67}, {"time": 713, "pitch": 63, "duration": 5, "velocity": 60}, {"time": 713, "pitch": 66, "duration": 8, "velocity": 60}, {"time": 713, "pitch": 70, "duration": 10, "velocity": 64}, {"time": 725, "pitch": 47, "duration": 18, "velocity": 73}, {"time": 725, "pitch": 63, "duration": 8, "velocity": 64}, {"time": 725, "pitch": 71, "duration": 12, "velocity": 73}, {"time": 731, "pitch": 54, "duration": 12, "velocity": 60}, {"time": 737, "pitch": 59, "duration": 6, "velocity": 63}, {"time": 743, "pitch": 66, "duration": 5, "velocity": 76}, {"time": 749, "pitch": 49, "duration": 8, "velocity": 67}, {"time": 749, "pitch": 61, "duration": 7, "velocity": 73}, {"time": 749, "pitch": 65, "duration": 12, "velocity": 75}, {"time": 749, "pitch": 68, "duration": 12, "velocity": 73}, {"time": 755, "pitch": 56, "duration": 7, "velocity": 62}, {"time": 761, "pitch": 53, "duration": 6, "velocity": 85}, {"time": 767, "pitch": 61, "duration": 4, "velocity": 62}, {"time": 773, "pitch": 42, "duration": 11, "velocity": 75}, {"time": 773, "pitch": 61, "duration": 5, "velocity": 69}, {"time": 773, "pitch": 66, "duration": 5, "velocity": 63}, {"time": 773, "pitch": 70, "duration": 10, "velocity": 69}, {"time": 779, "pitch": 49, "duration": 6, "velocity": 53}, {"time": 785, "pitch": 54, "duration": 6, "velocity": 46}, {"time": 785, "pitch": 66, "duration": 3, "velocity": 66}, {"time": 785, "pitch": 71, "duration": 3, "velocity": 70}, {"time": 791, "pitch": 56, "duration": 23, "velocity": 49}, {"time": 791, "pitch": 73, "duration": 2, "velocity": 63}, {"time": 797, "pitch": 58, "duration": 15, "velocity": 53}, {"time": 797, "pitch": 61, "duration": 7, "velocity": 55}, {"time": 797, "pitch": 66, "duration": 7, "velocity": 56}, {"time": 797, "pitch": 70, "duration": 8, "velocity": 54}, {"time": 809, "pitch": 68, "duration": 4, "velocity": 80}, {"time": 812, "pitch": 70, "duration": 4, "velocity": 57}, {"time": 815, "pitch": 71, "duration": 2, "velocity": 56}, {"time": 821, "pitch": 42, "duration": 16, "velocity": 54}, {"time": 821, "pitch": 54, "duration": 17, "velocity": 52}, {"time": 821, "pitch": 61, "duration": 9, "velocity": 58}, {"time": 821, "pitch": 66, "duration": 9, "velocity": 64}, {"time": 821, "pitch": 70, "duration": 9, "velocity": 63}, {"time": 833, "pitch": 61, "duration": 7, "velocity": 60}, {"time": 833, "pitch": 66, "duration": 8, "velocity": 67}, {"time": 833, "pitch": 70, "duration": 8, "velocity": 64}, {"time": 845, "pitch": 53, "duration": 15, "velocity": 64}, {"time": 845, "pitch": 61, "duration": 9, "velocity": 59}, {"time": 845, "pitch": 65, "duration": 10, "velocity": 69}, {"time": 845, "pitch": 68, "duration": 9, "velocity": 63}, {"time": 857, "pitch": 61, "duration": 3, "velocity": 63}, {"time": 857, "pitch": 65, "duration": 4, "velocity": 69}, {"time": 857, "pitch": 68, "duration": 4, "velocity": 67}, {"time": 869, "pitch": 51, "duration": 5, "velocity": 67}, {"time": 869, "pitch": 61, "duration": 5, "velocity": 61}, {"time": 869, "pitch": 66, "duration": 5, "velocity": 69}, {"time": 869, "pitch": 70, "duration": 5, "velocity": 63}, {"time": 881, "pitch": 49, "duration": 5, "velocity": 69}, {"time": 881, "pitch": 61, "duration": 5, "velocity": 58}, {"time": 881, "pitch": 65, "duration": 4, "velocity": 69}, {"time": 881, "pitch": 68, "duration": 5, "velocity": 64}, {"time": 893, "pitch": 47, "duration": 18, "velocity": 70}, {"time": 893, "pitch": 63, "duration": 11, "velocity": 62}, {"time": 893, "pitch": 66, "duration": 6, "velocity": 58}, {"time": 893, "pitch": 70, "duration": 12, "velocity": 59}, {"time": 899, "pitch": 54, "duration": 12, "velocity": 43}, {"time": 905, "pitch": 59, "duration": 6, "velocity": 58}, {"time": 911, "pitch": 61, "duration": 3, "velocity": 49}, {"time": 911, "pitch": 66, "duration": 6, "velocity": 61}, {"time": 917, "pitch": 44, "duration": 5, "velocity": 70}, {"time": 917, "pitch": 59, "duration": 7, "velocity": 59}, {"time": 917, "pitch": 63, "duration": 10, "velocity": 60}, {"time": 917, "pitch": 68, "duration": 12, "velocity": 60}, {"time": 923, "pitch": 56, "duration": 7, "velocity": 60}, {"time": 929, "pitch": 59, "duration": 7, "velocity": 67}, {"time": 935, "pitch": 61, "duration": 1, "velocity": 72}, {"time": 941, "pitch": 49, "duration": 17, "velocity": 67}, {"time": 941, "pitch": 61, "duration": 7, "velocity": 64}, {"time": 941, "pitch": 65, "duration": 7, "velocity": 73}, {"time": 941, "pitch": 68, "duration": 7, "velocity": 66}, {"time": 947, "pitch": 56, "duration": 12, "velocity": 63}, {"time": 953, "pitch": 61, "duration": 3, "velocity": 52}, {"time": 953, "pitch": 63, "duration": 6, "velocity": 62}, {"time": 953, "pitch": 66, "duration": 6, "velocity": 67}, {"time": 959, "pitch": 61, "duration": 2, "velocity": 52}, {"time": 959, "pitch": 68, "duration": 1, "velocity": 63}, {"time": 965, "pitch": 54, "duration": 15, "velocity": 55}, {"time": 965, "pitch": 61, "duration": 6, "velocity": 62}, {"time": 965, "pitch": 66, "duration": 7, "velocity": 69}, {"time": 965, "pitch": 70, "duration": 6, "velocity": 73}, {"time": 977, "pitch": 61, "duration": 5, "velocity": 63}, {"time": 977, "pitch": 66, "duration": 5, "velocity": 67}, {"time": 977, "pitch": 70, "duration": 4, "velocity": 64}, {"time": 983, "pitch": 54, "duration": 1, "velocity": 61}, {"time": 989, "pitch": 54, "duration": 15, "velocity": 63}, {"time": 989, "pitch": 61, "duration": 6, "velocity": 63}, {"time": 989, "pitch": 64, "duration": 8, "velocity": 67}, {"time": 989, "pitch": 66, "duration": 8, "velocity": 64}, {"time": 989, "pitch": 70, "duration": 9, "velocity": 63}, {"time": 1001, "pitch": 61, "duration": 5, "velocity": 66}, {"time": 1001, "pitch": 64, "duration": 5, "velocity": 69}, {"time": 1001, "pitch": 66, "duration": 6, "velocity": 72}, {"time": 1001, "pitch": 70, "duration": 5, "velocity": 66}, {"time": 1007, "pitch": 54, "duration": 2, "velocity": 61}, {"time": 1013, "pitch": 47, "duration": 20, "velocity": 63}, {"time": 1013, "pitch": 63, "duration": 6, "velocity": 64}, {"time": 1013, "pitch": 66, "duration": 6, "velocity": 60}, {"time": 1013, "pitch": 70, "duration": 6, "velocity": 60}, {"time": 1019, "pitch": 54, "duration": 7, "velocity": 52}, {"time": 1025, "pitch": 59, "duration": 7, "velocity": 53}, {"time": 1025, "pitch": 61, "duration": 6, "velocity": 55}, {"time": 1025, "pitch": 63, "duration": 6, "velocity": 62}, {"time": 1025, "pitch": 66, "duration": 6, "velocity": 61}, {"time": 1025, "pitch": 70, "duration": 6, "velocity": 50}, {"time": 1031, "pitch": 54, "duration": 6, "velocity": 55}, {"time": 1037, "pitch": 47, "duration": 20, "velocity": 63}, {"time": 1037, "pitch": 59, "duration": 15, "velocity": 51}, {"time": 1037, "pitch": 62, "duration": 9, "velocity": 75}, {"time": 1037, "pitch": 66, "duration": 9, "velocity": 75}, {"time": 1037, "pitch": 68, "duration": 8, "velocity": 69}, {"time": 1049, "pitch": 62, "duration": 5, "velocity": 72}, {"time": 1049, "pitch": 66, "duration": 6, "velocity": 72}, {"time": 1049, "pitch": 68, "duration": 6, "velocity": 70}, {"time": 1055, "pitch": 59, "duration": 1, "velocity": 54}, {"time": 1061, "pitch": 46, "duration": 17, "velocity": 67}, {"time": 1061, "pitch": 58, "duration": 16, "velocity": 62}, {"time": 1061, "pitch": 61, "duration": 9, "velocity": 69}, {"time": 1061, "pitch": 65, "duration": 9, "velocity": 82}, {"time": 1061, "pitch": 70, "duration": 8, "velocity": 69}, {"time": 1073, "pitch": 61, "duration": 6, "velocity": 57}, {"time": 1073, "pitch": 65, "duration": 5, "velocity": 69}, {"time": 1073, "pitch": 70, "duration": 6, "velocity": 70}, {"time": 1085, "pitch": 51, "duration": 17, "velocity": 70}, {"time": 1085, "pitch": 61, "duration": 8, "velocity": 70}, {"time": 1085, "pitch": 66, "duration": 8, "velocity": 72}, {"time": 1085, "pitch": 70, "duration": 7, "velocity": 72}, {"time": 1091, "pitch": 58, "duration": 10, "velocity": 44}, {"time": 1097, "pitch": 61, "duration": 5, "velocity": 67}, {"time": 1097, "pitch": 68, "duration": 5, "velocity": 70}, {"time": 1103, "pitch": 61, "duration": 1, "velocity": 48}, {"time": 1103, "pitch": 70, "duration": 5, "velocity": 72}, {"time": 1109, "pitch": 44, "duration": 19, "velocity": 67}, {"time": 1109, "pitch": 56, "duration": 14, "velocity": 66}, {"time": 1109, "pitch": 59, "duration": 7, "velocity": 69}, {"time": 1109, "pitch": 63, "duration": 8, "velocity": 72}, {"time": 1109, "pitch": 68, "duration": 8, "velocity": 67}, {"time": 1121, "pitch": 59, "duration": 7, "velocity": 70}, {"time": 1121, "pitch": 63, "duration": 7, "velocity": 72}, {"time": 1121, "pitch": 68, "duration": 7, "velocity": 72}, {"time": 1127, "pitch": 56, "duration": 2, "velocity": 57}, {"time": 1133, "pitch": 44, "duration": 16, "velocity": 66}, {"time": 1133, "pitch": 56, "duration": 16, "velocity": 60}, {"time": 1133, "pitch": 60, "duration": 10, "velocity": 75}, {"time": 1133, "pitch": 63, "duration": 10, "velocity": 76}, {"time": 1133, "pitch": 68, "duration": 10, "velocity": 66}, {"time": 1145, "pitch": 60, "duration": 7, "velocity": 82}, {"time": 1145, "pitch": 63, "duration": 7, "velocity": 82}, {"time": 1145, "pitch": 68, "duration": 9, "velocity": 80}, {"time": 1151, "pitch": 44, "duration": 1, "velocity": 63}, {"time": 1157, "pitch": 37, "duration": 19, "velocity": 76}, {"time": 1157, "pitch": 61, "duration": 8, "velocity": 72}, {"time": 1157, "pitch": 63, "duration": 7, "velocity": 80}, {"time": 1157, "pitch": 68, "duration": 8, "velocity": 72}, {"time": 1163, "pitch": 49, "duration": 8, "velocity": 48}, {"time": 1169, "pitch": 61, "duration": 6, "velocity": 69}, {"time": 1169, "pitch": 63, "duration": 6, "velocity": 78}, {"time": 1169, "pitch": 68, "duration": 6, "velocity": 72}, {"time": 1175, "pitch": 49, "duration": 1, "velocity": 57}, {"time": 1181, "pitch": 37, "duration": 5, "velocity": 75}, {"time": 1181, "pitch": 49, "duration": 5, "velocity": 82}, {"time": 1181, "pitch": 61, "duration": 4, "velocity": 76}, {"time": 1181, "pitch": 65, "duration": 5, "velocity": 80}, {"time": 1181, "pitch": 68, "duration": 2, "velocity": 44}, {"time": 1187, "pitch": 39, "duration": 6, "velocity": 63}, {"time": 1187, "pitch": 63, "duration": 5, "velocity": 73}, {"time": 1187, "pitch": 66, "duration": 5, "velocity": 76}, {"time": 1193, "pitch": 41, "duration": 2, "velocity": 93}, {"time": 1193, "pitch": 61, "duration": 1, "velocity": 66}, {"time": 1193, "pitch": 68, "duration": 1, "velocity": 72}, {"time": 1199, "pitch": 41, "duration": 1, "velocity": 72}, {"time": 1199, "pitch": 53, "duration": 1, "velocity": 75}, {"time": 1199, "pitch": 61, "duration": 1, "velocity": 64}, {"time": 1199, "pitch": 65, "duration": 1, "velocity": 69}, {"time": 1199, "pitch": 71, "duration": 4, "velocity": 78}, {"time": 1205, "pitch": 42, "duration": 5, "velocity": 64}, {"time": 1205, "pitch": 61, "duration": 13, "velocity": 64}, {"time": 1205, "pitch": 66, "duration": 13, "velocity": 70}, {"time": 1205, "pitch": 70, "duration": 13, "velocity": 73}, {"time": 1208, "pitch": 49, "duration": 3, "velocity": 62}, {"time": 1211, "pitch": 54, "duration": 4, "velocity": 60}, {"time": 1214, "pitch": 56, "duration": 5, "velocity": 55}, {"time": 1217, "pitch": 58, "duration": 2, "velocity": 73}, {"time": 1220, "pitch": 61, "duration": 2, "velocity": 80}, {"time": 1223, "pitch": 66, "duration": 2, "velocity": 75}, {"time": 1226, "pitch": 70, "duration": 4, "velocity": 57}, {"time": 1229, "pitch": 53, "duration": 17, "velocity": 93}, {"time": 1229, "pitch": 61, "duration": 4, "velocity": 76}, {"time": 1229, "pitch": 68, "duration": 4, "velocity": 85}, {"time": 1232, "pitch": 58, "duration": 9, "velocity": 61}, {"time": 1235, "pitch": 61, "duration": 4, "velocity": 67}, {"time": 1238, "pitch": 65, "duration": 2, "velocity": 64}, {"time": 1241, "pitch": 61, "duration": 3, "velocity": 82}, {"time": 1241, "pitch": 65, "duration": 1, "velocity": 46}, {"time": 1241, "pitch": 73, "duration": 7, "velocity": 75}, {"time": 1244, "pitch": 58, "duration": 2, "velocity": 63}, {"time": 1247, "pitch": 61, "duration": 2, "velocity": 64}, {"time": 1250, "pitch": 68, "duration": 3, "velocity": 64}, {"time": 1253, "pitch": 51, "duration": 17, "velocity": 72}, {"time": 1253, "pitch": 61, "duration": 4, "velocity": 80}, {"time": 1253, "pitch": 66, "duration": 4, "velocity": 78}, {"time": 1256, "pitch": 58, "duration": 10, "velocity": 57}, {"time": 1259, "pitch": 61, "duration": 3, "velocity": 64}, {"time": 1262, "pitch": 66, "duration": 2, "velocity": 75}, {"time": 1265, "pitch": 68, "duration": 4, "velocity": 88}, {"time": 1268, "pitch": 58, "duration": 2, "velocity": 70}, {"time": 1268, "pitch": 70, "duration": 3, "velocity": 49}, {"time": 1271, "pitch": 61, "duration": 3, "velocity": 76}, {"time": 1274, "pitch": 66, "duration": 2, "velocity": 49}, {"time": 1274, "pitch": 70, "duration": 1, "velocity": 35}, {"time": 1277, "pitch": 49, "duration": 7, "velocity": 78}, {"time": 1277, "pitch": 61, "duration": 4, "velocity": 85}, {"time": 1277, "pitch": 64, "duration": 5, "velocity": 85}, {"time": 1277, "pitch": 68, "duration": 5, "velocity": 80}, {"time": 1280, "pitch": 56, "duration": 4, "velocity": 75}, {"time": 1283, "pitch": 61, "duration": 3, "velocity": 70}, {"time": 1286, "pitch": 64, "duration": 2, "velocity": 70}, {"time": 1286, "pitch": 68, "duration": 2, "velocity": 62}, {"time": 1289, "pitch": 42, "duration": 7, "velocity": 75}, {"time": 1289, "pitch": 61, "duration": 5, "velocity": 75}, {"time": 1289, "pitch": 66, "duration": 7, "velocity": 73}, {"time": 1289, "pitch": 70, "duration": 5, "velocity": 73}, {"time": 1292, "pitch": 49, "duration": 4, "velocity": 70}, {"time": 1295, "pitch": 54, "duration": 5, "velocity": 72}, {"time": 1298, "pitch": 61, "duration": 1, "velocity": 63}, {"time": 1301, "pitch": 47, "duration": 21, "velocity": 80}, {"time": 1301, "pitch": 63, "duration": 5, "velocity": 85}, {"time": 1301, "pitch": 66, "duration": 7, "velocity": 75}, {"time": 1301, "pitch": 71, "duration": 7, "velocity": 73}, {"time": 1304, "pitch": 54, "duration": 18, "velocity": 66}, {"time": 1307, "pitch": 59, "duration": 9, "velocity": 70}, {"time": 1310, "pitch": 61, "duration": 4, "velocity": 73}, {"time": 1310, "pitch": 71, "duration": 2, "velocity": 40}, {"time": 1316, "pitch": 61, "duration": 3, "velocity": 78}, {"time": 1316, "pitch": 66, "duration": 4, "velocity": 85}, {"time": 1316, "pitch": 71, "duration": 1, "velocity": 63}, {"time": 1319, "pitch": 59, "duration": 3, "velocity": 63}, {"time": 1322, "pitch": 61, "duration": 1, "velocity": 47}, {"time": 1325, "pitch": 49, "duration": 9, "velocity": 75}, {"time": 1325, "pitch": 61, "duration": 4, "velocity": 88}, {"time": 1325, "pitch": 65, "duration": 8, "velocity": 97}, {"time": 1325, "pitch": 68, "duration": 3, "velocity": 64}, {"time": 1328, "pitch": 56, "duration": 5, "velocity": 61}, {"time": 1331, "pitch": 63, "duration": 1, "velocity": 30}, {"time": 1334, "pitch": 51, "duration": 8, "velocity": 78}, {"time": 1334, "pitch": 61, "duration": 3, "velocity": 78}, {"time": 1334, "pitch": 63, "duration": 7, "velocity": 59}, {"time": 1334, "pitch": 66, "duration": 7, "velocity": 85}, {"time": 1343, "pitch": 53, "duration": 2, "velocity": 78}, {"time": 1343, "pitch": 61, "duration": 2, "velocity": 76}, {"time": 1343, "pitch": 63, "duration": 1, "velocity": 47}, {"time": 1343, "pitch": 65, "duration": 1, "velocity": 76}, {"time": 1343, "pitch": 68, "duration": 2, "velocity": 78}, {"time": 1349, "pitch": 42, "duration": 42, "velocity": 72}, {"time": 1349, "pitch": 61, "duration": 6, "velocity": 64}, {"time": 1349, "pitch": 66, "duration": 8, "velocity": 76}, {"time": 1349, "pitch": 70, "duration": 7, "velocity": 73}, {"time": 1355, "pitch": 49, "duration": 28, "velocity": 56}, {"time": 1358, "pitch": 54, "duration": 12, "velocity": 73}, {"time": 1361, "pitch": 61, "duration": 2, "velocity": 64}, {"time": 1364, "pitch": 66, "duration": 2, "velocity": 72}, {"time": 1367, "pitch": 68, "duration": 2, "velocity": 75}, {"time": 1370, "pitch": 61, "duration": 1, "velocity": 40}, {"time": 1370, "pitch": 70, "duration": 2, "velocity": 69}, {"time": 1373, "pitch": 54, "duration": 8, "velocity": 69}, {"time": 1373, "pitch": 61, "duration": 2, "velocity": 70}, {"time": 1373, "pitch": 66, "duration": 2, "velocity": 76}, {"time": 1373, "pitch": 71, "duration": 4, "velocity": 69}, {"time": 1379, "pitch": 61, "duration": 1, "velocity": 60}, {"time": 1379, "pitch": 70, "duration": 2, "velocity": 75}, {"time": 1382, "pitch": 61, "duration": 4, "velocity": 85}, {"time": 1382, "pitch": 68, "duration": 3, "velocity": 99}, {"time": 1385, "pitch": 49, "duration": 4, "velocity": 33}, {"time": 1385, "pitch": 54, "duration": 3, "velocity": 72}, {"time": 1388, "pitch": 61, "duration": 3, "velocity": 91}, {"time": 1388, "pitch": 66, "duration": 4, "velocity": 101}, {"time": 1391, "pitch": 54, "duration": 4, "velocity": 82}, {"time": 1394, "pitch": 63, "duration": 1, "velocity": 63}, {"time": 1397, "pitch": 47, "duration": 19, "velocity": 76}, {"time": 1397, "pitch": 63, "duration": 8, "velocity": 88}, {"time": 1397, "pitch": 66, "duration": 6, "velocity": 93}, {"time": 1397, "pitch": 70, "duration": 9, "velocity": 80}, {"time": 1403, "pitch": 54, "duration": 13, "velocity": 56}, {"time": 1406, "pitch": 59, "duration": 6, "velocity": 76}, {"time": 1409, "pitch": 61, "duration": 4, "velocity": 88}, {"time": 1409, "pitch": 70, "duration": 3, "velocity": 63}, {"time": 1412, "pitch": 63, "duration": 2, "velocity": 76}, {"time": 1415, "pitch": 59, "duration": 2, "velocity": 64}, {"time": 1415, "pitch": 66, "duration": 2, "velocity": 76}, {"time": 1421, "pitch": 49, "duration": 17, "velocity": 66}, {"time": 1421, "pitch": 61, "duration": 4, "velocity": 76}, {"time": 1421, "pitch": 65, "duration": 5, "velocity": 80}, {"time": 1424, "pitch": 56, "duration": 6, "velocity": 50}, {"time": 1427, "pitch": 63, "duration": 2, "velocity": 64}, {"time": 1427, "pitch": 66, "duration": 2, "velocity": 62}, {"time": 1430, "pitch": 61, "duration": 6, "velocity": 78}, {"time": 1430, "pitch": 68, "duration": 6, "velocity": 76}, {"time": 1436, "pitch": 56, "duration": 2, "velocity": 73}, {"time": 1439, "pitch": 61, "duration": 3, "velocity": 64}, {"time": 1442, "pitch": 68, "duration": 9, "velocity": 69}, {"time": 1445, "pitch": 46, "duration": 17, "velocity": 69}, {"time": 1445, "pitch": 61, "duration": 6, "velocity": 80}, {"time": 1445, "pitch": 65, "duration": 6, "velocity": 76}, {"time": 1451, "pitch": 58, "duration": 7, "velocity": 50}, {"time": 1454, "pitch": 61, "duration": 2, "velocity": 67}, {"time": 1457, "pitch": 61, "duration": 1, "velocity": 35}, {"time": 1457, "pitch": 66, "duration": 3, "velocity": 64}, {"time": 1460, "pitch": 68, "duration": 4, "velocity": 60}, {"time": 1463, "pitch": 70, "duration": 3, "velocity": 66}, {"time": 1466, "pitch": 73, "duration": 6, "velocity": 69}, {"time": 1469, "pitch": 51, "duration": 18, "velocity": 69}, {"time": 1469, "pitch": 61, "duration": 4, "velocity": 66}, {"time": 1469, "pitch": 66, "duration": 4, "velocity": 66}, {"time": 1469, "pitch": 70, "duration": 5, "velocity": 72}, {"time": 1472, "pitch": 58, "duration": 7, "velocity": 63}, {"time": 1475, "pitch": 61, "duration": 1, "velocity": 57}, {"time": 1478, "pitch": 61, "duration": 5, "velocity": 78}, {"time": 1478, "pitch": 66, "duration": 5, "velocity": 91}, {"time": 1484, "pitch": 58, "duration": 2, "velocity": 73}, {"time": 1487, "pitch": 61, "duration": 1, "velocity": 73}, {"time": 1487, "pitch": 66, "duration": 1, "velocity": 78}, {"time": 1493, "pitch": 44, "duration": 28, "velocity": 69}, {"time": 1493, "pitch": 58, "duration": 1, "velocity": 57}, {"time": 1493, "pitch": 59, "duration": 7, "velocity": 54}, {"time": 1493, "pitch": 64, "duration": 2, "velocity": 64}, {"time": 1493, "pitch": 66, "duration": 7, "velocity": 63}, {"time": 1499, "pitch": 56, "duration": 7, "velocity": 47}, {"time": 1505, "pitch": 59, "duration": 7, "velocity": 88}, {"time": 1505, "pitch": 66, "duration": 7, "velocity": 75}, {"time": 1511, "pitch": 56, "duration": 2, "velocity": 52}, {"time": 1517, "pitch": 54, "duration": 4, "velocity": 55}, {"time": 1517, "pitch": 59, "duration": 4, "velocity": 69}, {"time": 1517, "pitch": 63, "duration": 4, "velocity": 63}, {"time": 1529, "pitch": 54, "duration": 7, "velocity": 91}, {"time": 1529, "pitch": 59, "duration": 7, "velocity": 91}, {"time": 1529, "pitch": 63, "duration": 7, "velocity": 80}, {"time": 1535, "pitch": 46, "duration": 2, "velocity": 46}, {"time": 1535, "pitch": 47, "duration": 1, "velocity": 66}, {"time": 1538, "pitch": 61, "duration": 2, "velocity": 56}, {"time": 1541, "pitch": 37, "duration": 19, "velocity": 72}, {"time": 1541, "pitch": 49, "duration": 5, "velocity": 82}, {"time": 1541, "pitch": 54, "duration": 6, "velocity": 78}, {"time": 1541, "pitch": 59, "duration": 6, "velocity": 75}, {"time": 1541, "pitch": 63, "duration": 6, "velocity": 75}, {"time": 1550, "pitch": 49, "duration": 5, "velocity": 45}, {"time": 1553, "pitch": 54, "duration": 5, "velocity": 88}, {"time": 1553, "pitch": 59, "duration": 5, "velocity": 82}, {"time": 1553, "pitch": 63, "duration": 7, "velocity": 73}, {"time": 1559, "pitch": 49, "duration": 1, "velocity": 70}, {"time": 1565, "pitch": 37, "duration": 16, "velocity": 70}, {"time": 1565, "pitch": 49, "duration": 4, "velocity": 75}, {"time": 1565, "pitch": 56, "duration": 4, "velocity": 70}, {"time": 1565, "pitch": 61, "duration": 4, "velocity": 78}, {"time": 1565, "pitch": 65, "duration": 5, "velocity": 72}, {"time": 1571, "pitch": 49, "duration": 9, "velocity": 47}, {"time": 1577, "pitch": 61, "duration": 3, "velocity": 73}, {"time": 1577, "pitch": 66, "duration": 6, "velocity": 88}, {"time": 1583, "pitch": 61, "duration": 1, "velocity": 62}, {"time": 1583, "pitch": 68, "duration": 1, "velocity": 58}, {"time": 1589, "pitch": 42, "duration": 19, "velocity": 73}, {"time": 1589, "pitch": 61, "duration": 5, "velocity": 56}, {"time": 1589, "pitch": 66, "duration": 6, "velocity": 64}, {"time": 1589, "pitch": 70, "duration": 5, "velocity": 72}, {"time": 1595, "pitch": 54, "duration": 7, "velocity": 48}, {"time": 1595, "pitch": 61, "duration": 2, "velocity": 57}, {"time": 1598, "pitch": 66, "duration": 1, "velocity": 64}, {"time": 1601, "pitch": 61, "duration": 3, "velocity": 85}, {"time": 1601, "pitch": 68, "duration": 3, "velocity": 93}, {"time": 1604, "pitch": 54, "duration": 3, "velocity": 57}, {"time": 1607, "pitch": 61, "duration": 1, "velocity": 70}, {"time": 1607, "pitch": 70, "duration": 4, "velocity": 97}, {"time": 1610, "pitch": 73, "duration": 1, "velocity": 63}, {"time": 1613, "pitch": 41, "duration": 16, "velocity": 67}, {"time": 1613, "pitch": 61, "duration": 5, "velocity": 91}, {"time": 1613, "pitch": 65, "duration": 5, "velocity": 73}, {"time": 1613, "pitch": 68, "duration": 5, "velocity": 85}, {"time": 1619, "pitch": 53, "duration": 7, "velocity": 70}, {"time": 1625, "pitch": 61, "duration": 3, "velocity": 82}, {"time": 1625, "pitch": 65, "duration": 4, "velocity": 93}, {"time": 1625, "pitch": 68, "duration": 4, "velocity": 88}, {"time": 1628, "pitch": 53, "duration": 2, "velocity": 91}, {"time": 1631, "pitch": 61, "duration": 3, "velocity": 82}, {"time": 1634, "pitch": 73, "duration": 2, "velocity": 63}, {"time": 1637, "pitch": 51, "duration": 18, "velocity": 72}, {"time": 1637, "pitch": 61, "duration": 7, "velocity": 85}, {"time": 1637, "pitch": 66, "duration": 7, "velocity": 91}, {"time": 1637, "pitch": 73, "duration": 6, "velocity": 56}, {"time": 1643, "pitch": 58, "duration": 11, "velocity": 62}, {"time": 1646, "pitch": 61, "duration": 3, "velocity": 76}, {"time": 1649, "pitch": 61, "duration": 1, "velocity": 39}, {"time": 1649, "pitch": 65, "duration": 3, "velocity": 99}, {"time": 1652, "pitch": 66, "duration": 4, "velocity": 70}, {"time": 1655, "pitch": 68, "duration": 3, "velocity": 76}, {"time": 1658, "pitch": 70, "duration": 2, "velocity": 70}, {"time": 1661, "pitch": 49, "duration": 18, "velocity": 73}, {"time": 1661, "pitch": 61, "duration": 9, "velocity": 82}, {"time": 1661, "pitch": 64, "duration": 7, "velocity": 91}, {"time": 1661, "pitch": 68, "duration": 6, "velocity": 82}, {"time": 1670, "pitch": 56, "duration": 5, "velocity": 49}, {"time": 1673, "pitch": 61, "duration": 3, "velocity": 75}, {"time": 1673, "pitch": 64, "duration": 5, "velocity": 82}, {"time": 1673, "pitch": 68, "duration": 4, "velocity": 76}, {"time": 1676, "pitch": 56, "duration": 2, "velocity": 72}, {"time": 1679, "pitch": 61, "duration": 3, "velocity": 69}, {"time": 1682, "pitch": 66, "duration": 2, "velocity": 61}, {"time": 1685, "pitch": 47, "duration": 21, "velocity": 72}, {"time": 1685, "pitch": 61, "duration": 6, "velocity": 85}, {"time": 1685, "pitch": 63, "duration": 7, "velocity": 91}, {"time": 1685, "pitch": 66, "duration": 6, "velocity": 78}, {"time": 1691, "pitch": 54, "duration": 17, "velocity": 54}, {"time": 1694, "pitch": 59, "duration": 8, "velocity": 80}, {"time": 1697, "pitch": 61, "duration": 4, "velocity": 85}, {"time": 1700, "pitch": 63, "duration": 2, "velocity": 88}, {"time": 1703, "pitch": 66, "duration": 3, "velocity": 80}, {"time": 1706, "pitch": 68, "duration": 2, "velocity": 73}, {"time": 1709, "pitch": 49, "duration": 9, "velocity": 82}, {"time": 1709, "pitch": 61, "duration": 5, "velocity": 82}, {"time": 1709, "pitch": 65, "duration": 6, "velocity": 93}, {"time": 1718, "pitch": 51, "duration": 9, "velocity": 64}, {"time": 1718, "pitch": 61, "duration": 2, "velocity": 69}, {"time": 1718, "pitch": 63, "duration": 8, "velocity": 64}, {"time": 1718, "pitch": 65, "duration": 1, "velocity": 53}, {"time": 1718, "pitch": 66, "duration": 9, "velocity": 76}, {"time": 1727, "pitch": 53, "duration": 2, "velocity": 70}, {"time": 1727, "pitch": 61, "duration": 1, "velocity": 75}, {"time": 1727, "pitch": 65, "duration": 1, "velocity": 46}, {"time": 1727, "pitch": 68, "duration": 1, "velocity": 53}, {"time": 1733, "pitch": 42, "duration": 4, "velocity": 76}, {"time": 1733, "pitch": 61, "duration": 11, "velocity": 73}, {"time": 1733, "pitch": 66, "duration": 12, "velocity": 76}, {"time": 1733, "pitch": 70, "duration": 12, "velocity": 75}, {"time": 1736, "pitch": 49, "duration": 2, "velocity": 72}, {"time": 1739, "pitch": 54, "duration": 4, "velocity": 59}, {"time": 1742, "pitch": 56, "duration": 5, "velocity": 57}, {"time": 1745, "pitch": 58, "duration": 1, "velocity": 48}, {"time": 1745, "pitch": 59, "duration": 1, "velocity": 67}, {"time": 1748, "pitch": 61, "duration": 2, "velocity": 78}, {"time": 1751, "pitch": 66, "duration": 2, "velocity": 78}, {"time": 1754, "pitch": 68, "duration": 2, "velocity": 76}, {"time": 1757, "pitch": 42, "duration": 6, "velocity": 73}, {"time": 1757, "pitch": 61, "duration": 3, "velocity": 75}, {"time": 1757, "pitch": 66, "duration": 5, "velocity": 80}, {"time": 1757, "pitch": 70, "duration": 4, "velocity": 78}, {"time": 1763, "pitch": 54, "duration": 1, "velocity": 67}, {"time": 1769, "pitch": 42, "duration": 4, "velocity": 70}, {"time": 1769, "pitch": 54, "duration": 4, "velocity": 80}, {"time": 1769, "pitch": 61, "duration": 4, "velocity": 76}, {"time": 1769, "pitch": 64, "duration": 5, "velocity": 95}, {"time": 1769, "pitch": 66, "duration": 4, "velocity": 76}, {"time": 1769, "pitch": 70, "duration": 5, "velocity": 72}, {"time": 1775, "pitch": 46, "duration": 1, "velocity": 69}, {"time": 1775, "pitch": 61, "duration": 2, "velocity": 73}, {"time": 1775, "pitch": 66, "duration": 2, "velocity": 78}, {"time": 1775, "pitch": 70, "duration": 1, "velocity": 61}, {"time": 1781, "pitch": 47, "duration": 18, "velocity": 69}, {"time": 1781, "pitch": 61, "duration": 2, "velocity": 62}, {"time": 1781, "pitch": 63, "duration": 6, "velocity": 93}, {"time": 1781, "pitch": 66, "duration": 5, "velocity": 88}, {"time": 1781, "pitch": 70, "duration": 5, "velocity": 80}, {"time": 1784, "pitch": 54, "duration": 16, "velocity": 67}, {"time": 1787, "pitch": 59, "duration": 9, "velocity": 69}, {"time": 1790, "pitch": 61, "duration": 2, "velocity": 67}, {"time": 1793, "pitch": 63, "duration": 2, "velocity": 78}, {"time": 1796, "pitch": 63, "duration": 1, "velocity": 53}, {"time": 1796, "pitch": 66, "duration": 1, "velocity": 62}, {"time": 1799, "pitch": 59, "duration": 2, "velocity": 67}, {"time": 1799, "pitch": 66, "duration": 4, "velocity": 75}, {"time": 1802, "pitch": 68, "duration": 2, "velocity": 72}, {"time": 1805, "pitch": 49, "duration": 19, "velocity": 73}, {"time": 1805, "pitch": 61, "duration": 6, "velocity": 69}, {"time": 1805, "pitch": 65, "duration": 6, "velocity": 95}, {"time": 1805, "pitch": 68, "duration": 6, "velocity": 64}, {"time": 1811, "pitch": 56, "duration": 9, "velocity": 60}, {"time": 1814, "pitch": 61, "duration": 1, "velocity": 66}, {"time": 1814, "pitch": 65, "duration": 2, "velocity": 99}, {"time": 1817, "pitch": 63, "duration": 1, "velocity": 78}, {"time": 1817, "pitch": 66, "duration": 2, "velocity": 76}, {"time": 1820, "pitch": 63, "duration": 1, "velocity": 47}, {"time": 1820, "pitch": 66, "duration": 1, "velocity": 54}, {"time": 1823, "pitch": 56, "duration": 1, "velocity": 72}, {"time": 1823, "pitch": 61, "duration": 1, "velocity": 82}, {"time": 1823, "pitch": 63, "duration": 1, "velocity": 60}, {"time": 1823, "pitch": 65, "duration": 1, "velocity": 46}, {"time": 1823, "pitch": 68, "duration": 1, "velocity": 82}, {"time": 1829, "pitch": 46, "duration": 15, "velocity": 73}, {"time": 1829, "pitch": 62, "duration": 6, "velocity": 88}, {"time": 1829, "pitch": 65, "duration": 6, "velocity": 85}, {"time": 1829, "pitch": 70, "duration": 5, "velocity": 75}, {"time": 1835, "pitch": 58, "duration": 9, "velocity": 57}, {"time": 1838, "pitch": 62, "duration": 2, "velocity": 64}, {"time": 1841, "pitch": 62, "duration": 4, "velocity": 85}, {"time": 1841, "pitch": 70, "duration": 4, "velocity": 80}, {"time": 1844, "pitch": 50, "duration": 2, "velocity": 62}, {"time": 1847, "pitch": 62, "duration": 2, "velocity": 70}, {"time": 1850, "pitch": 66, "duration": 1, "velocity": 42}, {"time": 1850, "pitch": 70, "duration": 2, "velocity": 70}, {"time": 1853, "pitch": 39, "duration": 18, "velocity": 73}, {"time": 1853, "pitch": 61, "duration": 6, "velocity": 82}, {"time": 1853, "pitch": 66, "duration": 6, "velocity": 73}, {"time": 1853, "pitch": 70, "duration": 7, "velocity": 69}, {"time": 1859, "pitch": 51, "duration": 9, "velocity": 50}, {"time": 1862, "pitch": 61, "duration": 4, "velocity": 78}, {"time": 1862, "pitch": 65, "duration": 5, "velocity": 72}, {"time": 1862, "pitch": 70, "duration": 1, "velocity": 58}, {"time": 1868, "pitch": 61, "duration": 2, "velocity": 85}, {"time": 1868, "pitch": 65, "duration": 1, "velocity": 56}, {"time": 1868, "pitch": 66, "duration": 2, "velocity": 85}, {"time": 1871, "pitch": 51, "duration": 1, "velocity": 61}, {"time": 1877, "pitch": 44, "duration": 42, "velocity": 70}, {"time": 1877, "pitch": 59, "duration": 9, "velocity": 82}, {"time": 1877, "pitch": 63, "duration": 9, "velocity": 82}, {"time": 1877, "pitch": 68, "duration": 9, "velocity": 78}, {"time": 1886, "pitch": 56, "duration": 4, "velocity": 13}, {"time": 1889, "pitch": 59, "duration": 10, "velocity": 73}, {"time": 1889, "pitch": 63, "duration": 10, "velocity": 73}, {"time": 1889, "pitch": 68, "duration": 10, "velocity": 78}, {"time": 1901, "pitch": 59, "duration": 4, "velocity": 85}, {"time": 1901, "pitch": 63, "duration": 1, "velocity": 45}, {"time": 1901, "pitch": 66, "duration": 5, "velocity": 76}, {"time": 1907, "pitch": 59, "duration": 3, "velocity": 69}, {"time": 1907, "pitch": 63, "duration": 5, "velocity": 67}, {"time": 1907, "pitch": 68, "duration": 5, "velocity": 66}, {"time": 1913, "pitch": 56, "duration": 4, "velocity": 62}, {"time": 1913, "pitch": 59, "duration": 4, "velocity": 82}, {"time": 1913, "pitch": 66, "duration": 5, "velocity": 73}, {"time": 1919, "pitch": 63, "duration": 1, "velocity": 88}, {"time": 1925, "pitch": 37, "duration": 25, "velocity": 66}, {"time": 1925, "pitch": 54, "duration": 5, "velocity": 82}, {"time": 1925, "pitch": 59, "duration": 5, "velocity": 75}, {"time": 1925, "pitch": 63, "duration": 5, "velocity": 82}, {"time": 1931, "pitch": 49, "duration": 8, "velocity": 48}, {"time": 1937, "pitch": 61, "duration": 4, "velocity": 75}, {"time": 1937, "pitch": 65, "duration": 4, "velocity": 103}, {"time": 1943, "pitch": 49, "duration": 3, "velocity": 56}, {"time": 1943, "pitch": 63, "duration": 4, "velocity": 85}, {"time": 1943, "pitch": 66, "duration": 4, "velocity": 85}, {"time": 1949, "pitch": 49, "duration": 2, "velocity": 88}, {"time": 1949, "pitch": 61, "duration": 2, "velocity": 78}, {"time": 1949, "pitch": 63, "duration": 1, "velocity": 52}, {"time": 1949, "pitch": 68, "duration": 2, "velocity": 59}, {"time": 1955, "pitch": 61, "duration": 4, "velocity": 61}, {"time": 1961, "pitch": 41, "duration": 4, "velocity": 69}, {"time": 1961, "pitch": 53, "duration": 5, "velocity": 63}, {"time": 1961, "pitch": 61, "duration": 5, "velocity": 73}, {"time": 1961, "pitch": 65, "duration": 5, "velocity": 97}, {"time": 1961, "pitch": 71, "duration": 7, "velocity": 76}, {"time": 1967, "pitch": 68, "duration": 4, "velocity": 69}, {"time": 1973, "pitch": 54, "duration": 18, "velocity": 70}, {"time": 1973, "pitch": 70, "duration": 4, "velocity": 72}, {"time": 1973, "pitch": 78, "duration": 5, "velocity": 70}, {"time": 1979, "pitch": 61, "duration": 8, "velocity": 45}, {"time": 1985, "pitch": 66, "duration": 6, "velocity": 55}, {"time": 1985, "pitch": 70, "duration": 4, "velocity": 75}, {"time": 1985, "pitch": 77, "duration": 5, "velocity": 80}, {"time": 1991, "pitch": 61, "duration": 5, "velocity": 64}, {"time": 1991, "pitch": 70, "duration": 1, "velocity": 61}, {"time": 1991, "pitch": 78, "duration": 5, "velocity": 62}, {"time": 1997, "pitch": 53, "duration": 8, "velocity": 60}, {"time": 1997, "pitch": 68, "duration": 9, "velocity": 60}, {"time": 2003, "pitch": 61, "duration": 10, "velocity": 61}, {"time": 2006, "pitch": 65, "duration": 6, "velocity": 70}, {"time": 2009, "pitch": 68, "duration": 2, "velocity": 72}, {"time": 2012, "pitch": 73, "duration": 2, "velocity": 66}, {"time": 2015, "pitch": 75, "duration": 4, "velocity": 80}, {"time": 2018, "pitch": 77, "duration": 3, "velocity": 66}, {"time": 2021, "pitch": 51, "duration": 18, "velocity": 63}, {"time": 2021, "pitch": 70, "duration": 4, "velocity": 73}, {"time": 2021, "pitch": 78, "duration": 6, "velocity": 67}, {"time": 2027, "pitch": 58, "duration": 7, "velocity": 61}, {"time": 2027, "pitch": 68, "duration": 2, "velocity": 73}, {"time": 2027, "pitch": 77, "duration": 5, "velocity": 64}, {"time": 2033, "pitch": 63, "duration": 5, "velocity": 54}, {"time": 2033, "pitch": 70, "duration": 4, "velocity": 64}, {"time": 2033, "pitch": 78, "duration": 4, "velocity": 63}, {"time": 2039, "pitch": 58, "duration": 5, "velocity": 70}, {"time": 2039, "pitch": 70, "duration": 1, "velocity": 43}, {"time": 2039, "pitch": 77, "duration": 2, "velocity": 69}, {"time": 2045, "pitch": 49, "duration": 17, "velocity": 69}, {"time": 2045, "pitch": 73, "duration": 4, "velocity": 78}, {"time": 2051, "pitch": 58, "duration": 11, "velocity": 64}, {"time": 2054, "pitch": 61, "duration": 7, "velocity": 70}, {"time": 2057, "pitch": 65, "duration": 2, "velocity": 70}, {"time": 2060, "pitch": 66, "duration": 4, "velocity": 63}, {"time": 2063, "pitch": 68, "duration": 3, "velocity": 73}, {"time": 2066, "pitch": 70, "duration": 4, "velocity": 70}, {"time": 2069, "pitch": 47, "duration": 19, "velocity": 72}, {"time": 2069, "pitch": 61, "duration": 7, "velocity": 72}, {"time": 2069, "pitch": 66, "duration": 7, "velocity": 75}, {"time": 2075, "pitch": 54, "duration": 7, "velocity": 66}, {"time": 2081, "pitch": 59, "duration": 6, "velocity": 78}, {"time": 2081, "pitch": 61, "duration": 6, "velocity": 78}, {"time": 2081, "pitch": 66, "duration": 6, "velocity": 88}, {"time": 2087, "pitch": 54, "duration": 6, "velocity": 58}, {"time": 2093, "pitch": 46, "duration": 18, "velocity": 73}, {"time": 2093, "pitch": 61, "duration": 6, "velocity": 73}, {"time": 2093, "pitch": 65, "duration": 6, "velocity": 70}, {"time": 2093, "pitch": 68, "duration": 6, "velocity": 72}, {"time": 2099, "pitch": 58, "duration": 12, "velocity": 55}, {"time": 2105, "pitch": 61, "duration": 4, "velocity": 66}, {"time": 2105, "pitch": 66, "duration": 4, "velocity": 75}, {"time": 2108, "pitch": 68, "duration": 4, "velocity": 72}, {"time": 2111, "pitch": 70, "duration": 3, "velocity": 64}, {"time": 2114, "pitch": 73, "duration": 4, "velocity": 76}, {"time": 2117, "pitch": 47, "duration": 5, "velocity": 85}, {"time": 2117, "pitch": 59, "duration": 5, "velocity": 73}, {"time": 2117, "pitch": 63, "duration": 4, "velocity": 76}, {"time": 2117, "pitch": 66, "duration": 5, "velocity": 85}, {"time": 2126, "pitch": 49, "duration": 10, "velocity": 72}, {"time": 2126, "pitch": 61, "duration": 7, "velocity": 78}, {"time": 2126, "pitch": 65, "duration": 6, "velocity": 80}, {"time": 2126, "pitch": 68, "duration": 8, "velocity": 76}, {"time": 2135, "pitch": 51, "duration": 7, "velocity": 66}, {"time": 2135, "pitch": 61, "duration": 4, "velocity": 82}, {"time": 2135, "pitch": 66, "duration": 5, "velocity": 88}, {"time": 2141, "pitch": 53, "duration": 9, "velocity": 70}, {"time": 2141, "pitch": 61, "duration": 7, "velocity": 91}, {"time": 2141, "pitch": 68, "duration": 8, "velocity": 75}, {"time": 2150, "pitch": 54, "duration": 9, "velocity": 95}, {"time": 2150, "pitch": 61, "duration": 4, "velocity": 91}, {"time": 2150, "pitch": 66, "duration": 7, "velocity": 91}, {"time": 2150, "pitch": 70, "duration": 5, "velocity": 91}, {"time": 2159, "pitch": 56, "duration": 6, "velocity": 80}, {"time": 2159, "pitch": 63, "duration": 5, "velocity": 82}, {"time": 2159, "pitch": 66, "duration": 1, "velocity": 63}, {"time": 2159, "pitch": 71, "duration": 6, "velocity": 99}, {"time": 2165, "pitch": 42, "duration": 5, "velocity": 78}, {"time": 2165, "pitch": 61, "duration": 12, "velocity": 78}, {"time": 2165, "pitch": 66, "duration": 12, "velocity": 75}, {"time": 2165, "pitch": 73, "duration": 13, "velocity": 85}, {"time": 2171, "pitch": 54, "duration": 4, "velocity": 59}, {"time": 2174, "pitch": 56, "duration": 9, "velocity": 59}, {"time": 2177, "pitch": 58, "duration": 7, "velocity": 78}, {"time": 2180, "pitch": 61, "duration": 2, "velocity": 88}, {"time": 2183, "pitch": 66, "duration": 3, "velocity": 67}, {"time": 2186, "pitch": 73, "duration": 16, "velocity": 73}, {"time": 2189, "pitch": 56, "duration": 20, "velocity": 82}, {"time": 2189, "pitch": 61, "duration": 13, "velocity": 76}, {"time": 2189, "pitch": 68, "duration": 13, "velocity": 73}, {"time": 2201, "pitch": 58, "duration": 6, "velocity": 60}, {"time": 2204, "pitch": 61, "duration": 2, "velocity": 70}, {"time": 2204, "pitch": 73, "duration": 1, "velocity": 26}, {"time": 2207, "pitch": 68, "duration": 4, "velocity": 88}, {"time": 2210, "pitch": 73, "duration": 14, "velocity": 78}, {"time": 2213, "pitch": 51, "duration": 20, "velocity": 72}, {"time": 2213, "pitch": 61, "duration": 7, "velocity": 78}, {"time": 2213, "pitch": 66, "duration": 7, "velocity": 72}, {"time": 2219, "pitch": 58, "duration": 9, "velocity": 46}, {"time": 2222, "pitch": 61, "duration": 2, "velocity": 80}, {"time": 2225, "pitch": 66, "duration": 4, "velocity": 73}, {"time": 2228, "pitch": 68, "duration": 5, "velocity": 73}, {"time": 2231, "pitch": 58, "duration": 3, "velocity": 67}, {"time": 2231, "pitch": 70, "duration": 7, "velocity": 72}, {"time": 2234, "pitch": 73, "duration": 2, "velocity": 69}, {"time": 2237, "pitch": 49, "duration": 16, "velocity": 69}, {"time": 2237, "pitch": 61, "duration": 3, "velocity": 93}, {"time": 2237, "pitch": 65, "duration": 4, "velocity": 78}, {"time": 2237, "pitch": 68, "duration": 7, "velocity": 82}, {"time": 2240, "pitch": 56, "duration": 13, "velocity": 58}, {"time": 2243, "pitch": 60, "duration": 9, "velocity": 47}, {"time": 2246, "pitch": 63, "duration": 4, "velocity": 67}, {"time": 2249, "pitch": 65, "duration": 4, "velocity": 69}, {"time": 2252, "pitch": 66, "duration": 4, "velocity": 69}, {"time": 2255, "pitch": 68, "duration": 4, "velocity": 66}, {"time": 2258, "pitch": 70, "duration": 4, "velocity": 54}, {"time": 2261, "pitch": 47, "duration": 19, "velocity": 80}, {"time": 2261, "pitch": 61, "duration": 5, "velocity": 80}, {"time": 2261, "pitch": 66, "duration": 7, "velocity": 85}, {"time": 2267, "pitch": 54, "duration": 12, "velocity": 61}, {"time": 2267, "pitch": 61, "duration": 4, "velocity": 45}, {"time": 2267, "pitch": 63, "duration": 7, "velocity": 70}, {"time": 2273, "pitch": 59, "duration": 5, "velocity": 64}, {"time": 2273, "pitch": 61, "duration": 2, "velocity": 70}, {"time": 2273, "pitch": 66, "duration": 1, "velocity": 76}, {"time": 2279, "pitch": 61, "duration": 1, "velocity": 56}, {"time": 2279, "pitch": 68, "duration": 6, "velocity": 82}, {"time": 2285, "pitch": 46, "duration": 17, "velocity": 75}, {"time": 2285, "pitch": 61, "duration": 9, "velocity": 70}, {"time": 2285, "pitch": 66, "duration": 8, "velocity": 75}, {"time": 2291, "pitch": 53, "duration": 13, "velocity": 59}, {"time": 2294, "pitch": 58, "duration": 8, "velocity": 72}, {"time": 2297, "pitch": 61, "duration": 2, "velocity": 82}, {"time": 2300, "pitch": 66, "duration": 2, "velocity": 73}, {"time": 2303, "pitch": 68, "duration": 2, "velocity": 85}, {"time": 2306, "pitch": 73, "duration": 5, "velocity": 73}, {"time": 2309, "pitch": 44, "duration": 22, "velocity": 69}, {"time": 2309, "pitch": 63, "duration": 4, "velocity": 69}, {"time": 2309, "pitch": 66, "duration": 4, "velocity": 63}, {"time": 2309, "pitch": 71, "duration": 4, "velocity": 82}, {"time": 2315, "pitch": 51, "duration": 16, "velocity": 61}, {"time": 2315, "pitch": 61, "duration": 3, "velocity": 70}, {"time": 2315, "pitch": 70, "duration": 4, "velocity": 75}, {"time": 2321, "pitch": 56, "duration": 3, "velocity": 55}, {"time": 2321, "pitch": 63, "duration": 4, "velocity": 70}, {"time": 2321, "pitch": 66, "duration": 1, "velocity": 46}, {"time": 2321, "pitch": 71, "duration": 5, "velocity": 101}, {"time": 2327, "pitch": 56, "duration": 4, "velocity": 91}, {"time": 2327, "pitch": 66, "duration": 4, "velocity": 64}, {"time": 2327, "pitch": 73, "duration": 4, "velocity": 76}, {"time": 2333, "pitch": 47, "duration": 9, "velocity": 76}, {"time": 2333, "pitch": 61, "duration": 7, "velocity": 91}, {"time": 2333, "pitch": 70, "duration": 9, "velocity": 70}, {"time": 2342, "pitch": 49, "duration": 9, "velocity": 76}, {"time": 2342, "pitch": 61, "duration": 7, "velocity": 80}, {"time": 2342, "pitch": 68, "duration": 7, "velocity": 85}, {"time": 2342, "pitch": 70, "duration": 1, "velocity": 43}, {"time": 2351, "pitch": 66, "duration": 5, "velocity": 88}, {"time": 2357, "pitch": 49, "duration": 19, "velocity": 82}, {"time": 2357, "pitch": 66, "duration": 6, "velocity": 93}, {"time": 2357, "pitch": 73, "duration": 7, "velocity": 76}, {"time": 2360, "pitch": 56, "duration": 19, "velocity": 67}, {"time": 2363, "pitch": 61, "duration": 14, "velocity": 93}, {"time": 2366, "pitch": 66, "duration": 3, "velocity": 85}, {"time": 2369, "pitch": 68, "duration": 1, "velocity": 82}, {"time": 2372, "pitch": 73, "duration": 3, "velocity": 85}, {"time": 2375, "pitch": 78, "duration": 3, "velocity": 80}, {"time": 2378, "pitch": 80, "duration": 2, "velocity": 73}, {"time": 2381, "pitch": 49, "duration": 16, "velocity": 64}, {"time": 2381, "pitch": 73, "duration": 5, "velocity": 88}, {"time": 2381, "pitch": 85, "duration": 4, "velocity": 82}, {"time": 2384, "pitch": 56, "duration": 10, "velocity": 73}, {"time": 2387, "pitch": 61, "duration": 7, "velocity": 82}, {"time": 2393, "pitch": 66, "duration": 5, "velocity": 91}, {"time": 2393, "pitch": 70, "duration": 4, "velocity": 91}, {"time": 2396, "pitch": 56, "duration": 2, "velocity": 69}, {"time": 2399, "pitch": 66, "duration": 1, "velocity": 45}, {"time": 2399, "pitch": 68, "duration": 2, "velocity": 80}, {"time": 2402, "pitch": 70, "duration": 2, "velocity": 67}, {"time": 2405, "pitch": 54, "duration": 9, "velocity": 91}, {"time": 2405, "pitch": 73, "duration": 7, "velocity": 85}, {"time": 2408, "pitch": 61, "duration": 2, "velocity": 60}, {"time": 2411, "pitch": 61, "duration": 1, "velocity": 34}, {"time": 2411, "pitch": 66, "duration": 2, "velocity": 67}, {"time": 2414, "pitch": 68, "duration": 3, "velocity": 82}, {"time": 2414, "pitch": 73, "duration": 1, "velocity": 51}, {"time": 2417, "pitch": 54, "duration": 11, "velocity": 73}, {"time": 2417, "pitch": 61, "duration": 4, "velocity": 70}, {"time": 2417, "pitch": 73, "duration": 1, "velocity": 31}, {"time": 2420, "pitch": 66, "duration": 2, "velocity": 69}, {"time": 2423, "pitch": 73, "duration": 7, "velocity": 78}, {"time": 2426, "pitch": 61, "duration": 4, "velocity": 59}, {"time": 2429, "pitch": 53, "duration": 19, "velocity": 69}, {"time": 2429, "pitch": 68, "duration": 2, "velocity": 73}, {"time": 2432, "pitch": 61, "duration": 4, "velocity": 67}, {"time": 2435, "pitch": 65, "duration": 4, "velocity": 69}, {"time": 2438, "pitch": 73, "duration": 7, "velocity": 76}, {"time": 2441, "pitch": 61, "duration": 4, "velocity": 63}, {"time": 2444, "pitch": 65, "duration": 2, "velocity": 67}, {"time": 2447, "pitch": 68, "duration": 5, "velocity": 61}, {"time": 2450, "pitch": 73, "duration": 5, "velocity": 75}, {"time": 2453, "pitch": 51, "duration": 17, "velocity": 73}, {"time": 2453, "pitch": 61, "duration": 4, "velocity": 85}, {"time": 2453, "pitch": 66, "duration": 4, "velocity": 73}, {"time": 2456, "pitch": 58, "duration": 7, "velocity": 66}, {"time": 2459, "pitch": 65, "duration": 3, "velocity": 64}, {"time": 2462, "pitch": 61, "duration": 4, "velocity": 66}, {"time": 2462, "pitch": 66, "duration": 4, "velocity": 82}, {"time": 2465, "pitch": 58, "duration": 5, "velocity": 66}, {"time": 2468, "pitch": 61, "duration": 2, "velocity": 61}, {"time": 2468, "pitch": 66, "duration": 1, "velocity": 66}, {"time": 2468, "pitch": 68, "duration": 6, "velocity": 91}, {"time": 2474, "pitch": 70, "duration": 2, "velocity": 93}, {"time": 2477, "pitch": 49, "duration": 19, "velocity": 72}, {"time": 2477, "pitch": 61, "duration": 3, "velocity": 85}, {"time": 2477, "pitch": 64, "duration": 4, "velocity": 101}, {"time": 2477, "pitch": 68, "duration": 4, "velocity": 99}, {"time": 2477, "pitch": 70, "duration": 1, "velocity": 69}, {"time": 2480, "pitch": 56, "duration": 13, "velocity": 73}, {"time": 2483, "pitch": 61, "duration": 4, "velocity": 69}, {"time": 2486, "pitch": 64, "duration": 5, "velocity": 99}, {"time": 2492, "pitch": 61, "duration": 3, "velocity": 91}, {"time": 2492, "pitch": 66, "duration": 5, "velocity": 82}, {"time": 2495, "pitch": 56, "duration": 1, "velocity": 50}, {"time": 2498, "pitch": 68, "duration": 2, "velocity": 59}, {"time": 2501, "pitch": 47, "duration": 18, "velocity": 78}, {"time": 2501, "pitch": 61, "duration": 1, "velocity": 60}, {"time": 2501, "pitch": 63, "duration": 4, "velocity": 52}, {"time": 2501, "pitch": 66, "duration": 5, "velocity": 60}, {"time": 2501, "pitch": 70, "duration": 2, "velocity": 57}, {"time": 2504, "pitch": 59, "duration": 9, "velocity": 45}, {"time": 2510, "pitch": 61, "duration": 6, "velocity": 88}, {"time": 2510, "pitch": 66, "duration": 7, "velocity": 95}, {"time": 2516, "pitch": 59, "duration": 5, "velocity": 62}, {"time": 2519, "pitch": 61, "duration": 1, "velocity": 50}, {"time": 2519, "pitch": 68, "duration": 2, "velocity": 63}, {"time": 2522, "pitch": 70, "duration": 1, "velocity": 56}, {"time": 2525, "pitch": 47, "duration": 18, "velocity": 73}, {"time": 2525, "pitch": 61, "duration": 6, "velocity": 88}, {"time": 2525, "pitch": 65, "duration": 6, "velocity": 82}, {"time": 2525, "pitch": 68, "duration": 6, "velocity": 80}, {"time": 2531, "pitch": 59, "duration": 6, "velocity": 36}, {"time": 2534, "pitch": 61, "duration": 6, "velocity": 95}, {"time": 2534, "pitch": 66, "duration": 6, "velocity": 99}, {"time": 2537, "pitch": 59, "duration": 6, "velocity": 39}, {"time": 2543, "pitch": 61, "duration": 4, "velocity": 88}, {"time": 2543, "pitch": 70, "duration": 5, "velocity": 97}, {"time": 2549, "pitch": 54, "duration": 21, "velocity": 78}, {"time": 2549, "pitch": 61, "duration": 4, "velocity": 93}, {"time": 2549, "pitch": 68, "duration": 4, "velocity": 82}, {"time": 2552, "pitch": 58, "duration": 7, "velocity": 63}, {"time": 2555, "pitch": 61, "duration": 1, "velocity": 59}, {"time": 2558, "pitch": 61, "duration": 7, "velocity": 82}, {"time": 2558, "pitch": 66, "duration": 7, "velocity": 93}, {"time": 2564, "pitch": 58, "duration": 7, "velocity": 69}, {"time": 2567, "pitch": 61, "duration": 2, "velocity": 73}, {"time": 2567, "pitch": 68, "duration": 4, "velocity": 85}, {"time": 2570, "pitch": 70, "duration": 2, "velocity": 70}, {"time": 2573, "pitch": 54, "duration": 16, "velocity": 99}, {"time": 2573, "pitch": 63, "duration": 1, "velocity": 35}, {"time": 2573, "pitch": 71, "duration": 4, "velocity": 95}, {"time": 2579, "pitch": 70, "duration": 2, "velocity": 88}, {"time": 2582, "pitch": 66, "duration": 4, "velocity": 95}, {"time": 2585, "pitch": 58, "duration": 4, "velocity": 76}, {"time": 2588, "pitch": 61, "duration": 2, "velocity": 93}, {"time": 2591, "pitch": 66, "duration": 2, "velocity": 63}, {"time": 2594, "pitch": 68, "duration": 2, "velocity": 76}, {"time": 2597, "pitch": 47, "duration": 19, "velocity": 72}, {"time": 2597, "pitch": 75, "duration": 2, "velocity": 67}, {"time": 2597, "pitch": 77, "duration": 5, "velocity": 72}, {"time": 2600, "pitch": 54, "duration": 19, "velocity": 69}, {"time": 2603, "pitch": 59, "duration": 5, "velocity": 76}, {"time": 2606, "pitch": 73, "duration": 5, "velocity": 95}, {"time": 2606, "pitch": 78, "duration": 5, "velocity": 85}, {"time": 2612, "pitch": 59, "duration": 5, "velocity": 76}, {"time": 2615, "pitch": 75, "duration": 3, "velocity": 76}, {"time": 2618, "pitch": 78, "duration": 2, "velocity": 67}, {"time": 2621, "pitch": 47, "duration": 19, "velocity": 80}, {"time": 2621, "pitch": 68, "duration": 7, "velocity": 85}, {"time": 2621, "pitch": 77, "duration": 7, "velocity": 95}, {"time": 2621, "pitch": 78, "duration": 1, "velocity": 59}, {"time": 2627, "pitch": 59, "duration": 11, "velocity": 70}, {"time": 2630, "pitch": 68, "duration": 4, "velocity": 91}, {"time": 2630, "pitch": 75, "duration": 6, "velocity": 91}, {"time": 2639, "pitch": 68, "duration": 1, "velocity": 88}, {"time": 2639, "pitch": 73, "duration": 1, "velocity": 88}, {"time": 2645, "pitch": 46, "duration": 18, "velocity": 85}, {"time": 2645, "pitch": 65, "duration": 5, "velocity": 85}, {"time": 2645, "pitch": 68, "duration": 5, "velocity": 93}, {"time": 2651, "pitch": 58, "duration": 4, "velocity": 55}, {"time": 2654, "pitch": 61, "duration": 6, "velocity": 78}, {"time": 2654, "pitch": 65, "duration": 3, "velocity": 85}, {"time": 2660, "pitch": 58, "duration": 2, "velocity": 66}, {"time": 2663, "pitch": 63, "duration": 5, "velocity": 85}, {"time": 2666, "pitch": 65, "duration": 2, "velocity": 67}, {"time": 2669, "pitch": 51, "duration": 18, "velocity": 82}, {"time": 2669, "pitch": 58, "duration": 4, "velocity": 93}, {"time": 2669, "pitch": 61, "duration": 6, "velocity": 97}, {"time": 2669, "pitch": 66, "duration": 5, "velocity": 63}, {"time": 2672, "pitch": 54, "duration": 13, "velocity": 61}, {"time": 2675, "pitch": 58, "duration": 4, "velocity": 66}, {"time": 2678, "pitch": 61, "duration": 5, "velocity": 91}, {"time": 2684, "pitch": 65, "duration": 5, "velocity": 97}, {"time": 2690, "pitch": 63, "duration": 2, "velocity": 60}, {"time": 2693, "pitch": 44, "duration": 21, "velocity": 76}, {"time": 2693, "pitch": 59, "duration": 3, "velocity": 95}, {"time": 2693, "pitch": 63, "duration": 4, "velocity": 72}, {"time": 2693, "pitch": 66, "duration": 4, "velocity": 72}, {"time": 2696, "pitch": 56, "duration": 7, "velocity": 66}, {"time": 2699, "pitch": 58, "duration": 2, "velocity": 52}, {"time": 2702, "pitch": 58, "duration": 1, "velocity": 57}, {"time": 2702, "pitch": 59, "duration": 6, "velocity": 106}, {"time": 2702, "pitch": 66, "duration": 5, "velocity": 50}, {"time": 2708, "pitch": 56, "duration": 6, "velocity": 66}, {"time": 2711, "pitch": 58, "duration": 2, "velocity": 73}, {"time": 2714, "pitch": 59, "duration": 1, "velocity": 91}, {"time": 2717, "pitch": 44, "duration": 18, "velocity": 76}, {"time": 2717, "pitch": 59, "duration": 5, "velocity": 85}, {"time": 2717, "pitch": 66, "duration": 5, "velocity": 82}, {"time": 2720, "pitch": 56, "duration": 7, "velocity": 72}, {"time": 2726, "pitch": 59, "duration": 6, "velocity": 101}, {"time": 2726, "pitch": 66, "duration": 6, "velocity": 82}, {"time": 2732, "pitch": 56, "duration": 3, "velocity": 64}, {"time": 2735, "pitch": 59, "duration": 3, "velocity": 85}, {"time": 2741, "pitch": 49, "duration": 19, "velocity": 88}, {"time": 2741, "pitch": 68, "duration": 7, "velocity": 93}, {"time": 2741, "pitch": 73, "duration": 6, "velocity": 85}, {"time": 2744, "pitch": 56, "duration": 12, "velocity": 62}, {"time": 2747, "pitch": 61, "duration": 13, "velocity": 75}, {"time": 2750, "pitch": 66, "duration": 7, "velocity": 99}, {"time": 2756, "pitch": 68, "duration": 5, "velocity": 85}, {"time": 2759, "pitch": 56, "duration": 3, "velocity": 72}, {"time": 2762, "pitch": 65, "duration": 3, "velocity": 91}, {"time": 2762, "pitch": 68, "duration": 3, "velocity": 82}, {"time": 2765, "pitch": 49, "duration": 19, "velocity": 66}, {"time": 2768, "pitch": 63, "duration": 3, "velocity": 54}, {"time": 2768, "pitch": 66, "duration": 4, "velocity": 85}, {"time": 2771, "pitch": 56, "duration": 8, "velocity": 61}, {"time": 2774, "pitch": 65, "duration": 1, "velocity": 80}, {"time": 2774, "pitch": 68, "duration": 2, "velocity": 75}, {"time": 2777, "pitch": 61, "duration": 6, "velocity": 62}, {"time": 2777, "pitch": 66, "duration": 3, "velocity": 57}, {"time": 2777, "pitch": 68, "duration": 3, "velocity": 62}, {"time": 2777, "pitch": 70, "duration": 4, "velocity": 101}, {"time": 2783, "pitch": 56, "duration": 1, "velocity": 52}, {"time": 2783, "pitch": 71, "duration": 1, "velocity": 106}, {"time": 2789, "pitch": 42, "duration": 3, "velocity": 70}, {"time": 2789, "pitch": 61, "duration": 10, "velocity": 88}, {"time": 2789, "pitch": 66, "duration": 10, "velocity": 91}, {"time": 2789, "pitch": 70, "duration": 9, "velocity": 85}, {"time": 2789, "pitch": 73, "duration": 9, "velocity": 70}, {"time": 2792, "pitch": 54, "duration": 4, "velocity": 57}, {"time": 2795, "pitch": 56, "duration": 8, "velocity": 70}, {"time": 2798, "pitch": 58, "duration": 8, "velocity": 93}, {"time": 2801, "pitch": 61, "duration": 2, "velocity": 91}, {"time": 2804, "pitch": 66, "duration": 2, "velocity": 82}, {"time": 2807, "pitch": 68, "duration": 2, "velocity": 69}, {"time": 2810, "pitch": 73, "duration": 5, "velocity": 82}, {"time": 2813, "pitch": 53, "duration": 19, "velocity": 73}, {"time": 2813, "pitch": 68, "duration": 5, "velocity": 93}, {"time": 2816, "pitch": 61, "duration": 16, "velocity": 60}, {"time": 2819, "pitch": 65, "duration": 7, "velocity": 78}, {"time": 2822, "pitch": 68, "duration": 2, "velocity": 78}, {"time": 2825, "pitch": 73, "duration": 2, "velocity": 82}, {"time": 2828, "pitch": 75, "duration": 2, "velocity": 95}, {"time": 2831, "pitch": 77, "duration": 2, "velocity": 66}, {"time": 2834, "pitch": 80, "duration": 4, "velocity": 76}, {"time": 2837, "pitch": 51, "duration": 19, "velocity": 67}, {"time": 2837, "pitch": 78, "duration": 5, "velocity": 99}, {"time": 2840, "pitch": 58, "duration": 12, "velocity": 61}, {"time": 2843, "pitch": 63, "duration": 9, "velocity": 75}, {"time": 2846, "pitch": 66, "duration": 4, "velocity": 91}, {"time": 2852, "pitch": 66, "duration": 3, "velocity": 91}, {"time": 2852, "pitch": 70, "duration": 2, "velocity": 88}, {"time": 2855, "pitch": 58, "duration": 4, "velocity": 55}, {"time": 2861, "pitch": 49, "duration": 17, "velocity": 67}, {"time": 2861, "pitch": 65, "duration": 4, "velocity": 93}, {"time": 2861, "pitch": 68, "duration": 8, "velocity": 97}, {"time": 2870, "pitch": 61, "duration": 7, "velocity": 61}, {"time": 2870, "pitch": 64, "duration": 5, "velocity": 99}, {"time": 2870, "pitch": 68, "duration": 6, "velocity": 44}, {"time": 2876, "pitch": 66, "duration": 4, "velocity": 85}, {"time": 2879, "pitch": 68, "duration": 4, "velocity": 85}, {"time": 2882, "pitch": 70, "duration": 12, "velocity": 60}, {"time": 2885, "pitch": 47, "duration": 21, "velocity": 76}, {"time": 2885, "pitch": 61, "duration": 7, "velocity": 85}, {"time": 2885, "pitch": 66, "duration": 8, "velocity": 93}, {"time": 2891, "pitch": 54, "duration": 16, "velocity": 58}, {"time": 2894, "pitch": 59, "duration": 12, "velocity": 76}, {"time": 2897, "pitch": 61, "duration": 4, "velocity": 67}, {"time": 2900, "pitch": 66, "duration": 4, "velocity": 73}, {"time": 2903, "pitch": 68, "duration": 3, "velocity": 66}, {"time": 2906, "pitch": 70, "duration": 2, "velocity": 72}, {"time": 2909, "pitch": 47, "duration": 19, "velocity": 85}, {"time": 2909, "pitch": 61, "duration": 4, "velocity": 78}, {"time": 2909, "pitch": 65, "duration": 5, "velocity": 82}, {"time": 2909, "pitch": 68, "duration": 5, "velocity": 91}, {"time": 2909, "pitch": 70, "duration": 1, "velocity": 52}, {"time": 2912, "pitch": 59, "duration": 7, "velocity": 75}, {"time": 2915, "pitch": 61, "duration": 2, "velocity": 67}, {"time": 2918, "pitch": 61, "duration": 4, "velocity": 88}, {"time": 2918, "pitch": 66, "duration": 7, "velocity": 95}, {"time": 2924, "pitch": 59, "duration": 4, "velocity": 66}, {"time": 2924, "pitch": 61, "duration": 4, "velocity": 91}, {"time": 2924, "pitch": 68, "duration": 7, "velocity": 80}, {"time": 2930, "pitch": 61, "duration": 1, "velocity": 58}, {"time": 2930, "pitch": 70, "duration": 1, "velocity": 73}, {"time": 2933, "pitch": 54, "duration": 17, "velocity": 66}, {"time": 2933, "pitch": 61, "duration": 2, "velocity": 85}, {"time": 2933, "pitch": 66, "duration": 4, "velocity": 95}, {"time": 2933, "pitch": 70, "duration": 5, "velocity": 88}, {"time": 2939, "pitch": 61, "duration": 15, "velocity": 69}, {"time": 2942, "pitch": 66, "duration": 9, "velocity": 78}, {"time": 2948, "pitch": 70, "duration": 1, "velocity": 85}, {"time": 2948, "pitch": 78, "duration": 2, "velocity": 67}, {"time": 2951, "pitch": 70, "duration": 1, "velocity": 72}, {"time": 2951, "pitch": 78, "duration": 2, "velocity": 82}, {"time": 2954, "pitch": 68, "duration": 1, "velocity": 75}, {"time": 2954, "pitch": 77, "duration": 2, "velocity": 85}, {"time": 2957, "pitch": 54, "duration": 18, "velocity": 72}, {"time": 2957, "pitch": 68, "duration": 3, "velocity": 73}, {"time": 2957, "pitch": 77, "duration": 4, "velocity": 91}, {"time": 2960, "pitch": 61, "duration": 6, "velocity": 56}, {"time": 2963, "pitch": 66, "duration": 1, "velocity": 73}, {"time": 2963, "pitch": 73, "duration": 1, "velocity": 82}, {"time": 2966, "pitch": 66, "duration": 2, "velocity": 91}, {"time": 2966, "pitch": 73, "duration": 2, "velocity": 95}, {"time": 2969, "pitch": 61, "duration": 4, "velocity": 54}, {"time": 2981, "pitch": 47, "duration": 19, "velocity": 88}, {"time": 2981, "pitch": 61, "duration": 7, "velocity": 76}, {"time": 2981, "pitch": 66, "duration": 8, "velocity": 80}, {"time": 2987, "pitch": 54, "duration": 13, "velocity": 46}, {"time": 2990, "pitch": 61, "duration": 2, "velocity": 64}, {"time": 2990, "pitch": 68, "duration": 5, "velocity": 69}, {"time": 2993, "pitch": 59, "duration": 4, "velocity": 64}, {"time": 2996, "pitch": 61, "duration": 4, "velocity": 76}, {"time": 2996, "pitch": 66, "duration": 2, "velocity": 63}, {"time": 2996, "pitch": 70, "duration": 5, "velocity": 75}, {"time": 2999, "pitch": 59, "duration": 2, "velocity": 72}, {"time": 3005, "pitch": 47, "duration": 19, "velocity": 76}, {"time": 3005, "pitch": 59, "duration": 7, "velocity": 85}, {"time": 3005, "pitch": 61, "duration": 9, "velocity": 82}, {"time": 3005, "pitch": 65, "duration": 10, "velocity": 88}, {"time": 3005, "pitch": 68, "duration": 10, "velocity": 80}, {"time": 3005, "pitch": 73, "duration": 10, "velocity": 78}, {"time": 3014, "pitch": 59, "duration": 6, "velocity": 55}, {"time": 3017, "pitch": 61, "duration": 7, "velocity": 85}, {"time": 3017, "pitch": 65, "duration": 6, "velocity": 85}, {"time": 3017, "pitch": 68, "duration": 7, "velocity": 80}, {"time": 3017, "pitch": 73, "duration": 8, "velocity": 66}, {"time": 3023, "pitch": 59, "duration": 2, "velocity": 85}, {"time": 3029, "pitch": 46, "duration": 20, "velocity": 72}, {"time": 3029, "pitch": 58, "duration": 5, "velocity": 76}, {"time": 3029, "pitch": 61, "duration": 9, "velocity": 88}, {"time": 3029, "pitch": 65, "duration": 8, "velocity": 91}, {"time": 3029, "pitch": 68, "duration": 9, "velocity": 85}, {"time": 3038, "pitch": 58, "duration": 8, "velocity": 48}, {"time": 3044, "pitch": 61, "duration": 1, "velocity": 53}, {"time": 3044, "pitch": 68, "duration": 1, "velocity": 52}, {"time": 3047, "pitch": 58, "duration": 3, "velocity": 61}, {"time": 3047, "pitch": 62, "duration": 4, "velocity": 95}, {"time": 3047, "pitch": 65, "duration": 4, "velocity": 75}, {"time": 3047, "pitch": 68, "duration": 4, "velocity": 82}, {"time": 3053, "pitch": 51, "duration": 11, "velocity": 76}, {"time": 3053, "pitch": 61, "duration": 7, "velocity": 82}, {"time": 3053, "pitch": 66, "duration": 10, "velocity": 76}, {"time": 3053, "pitch": 67, "duration": 1, "velocity": 66}, {"time": 3053, "pitch": 70, "duration": 5, "velocity": 70}, {"time": 3059, "pitch": 54, "duration": 4, "velocity": 47}, {"time": 3065, "pitch": 49, "duration": 6, "velocity": 82}, {"time": 3065, "pitch": 61, "duration": 4, "velocity": 91}, {"time": 3065, "pitch": 65, "duration": 5, "velocity": 85}, {"time": 3065, "pitch": 68, "duration": 5, "velocity": 91}, {"time": 3071, "pitch": 66, "duration": 4, "velocity": 73}, {"time": 3077, "pitch": 47, "duration": 17, "velocity": 76}, {"time": 3077, "pitch": 59, "duration": 16, "velocity": 85}, {"time": 3077, "pitch": 63, "duration": 10, "velocity": 88}, {"time": 3077, "pitch": 66, "duration": 10, "velocity": 78}, {"time": 3077, "pitch": 70, "duration": 9, "velocity": 76}, {"time": 3089, "pitch": 63, "duration": 8, "velocity": 88}, {"time": 3089, "pitch": 66, "duration": 8, "velocity": 97}, {"time": 3089, "pitch": 70, "duration": 7, "velocity": 80}, {"time": 3095, "pitch": 47, "duration": 22, "velocity": 69}, {"time": 3095, "pitch": 59, "duration": 10, "velocity": 62}, {"time": 3101, "pitch": 63, "duration": 8, "velocity": 76}, {"time": 3101, "pitch": 66, "duration": 8, "velocity": 78}, {"time": 3101, "pitch": 70, "duration": 8, "velocity": 73}, {"time": 3107, "pitch": 59, "duration": 8, "velocity": 35}, {"time": 3113, "pitch": 63, "duration": 5, "velocity": 76}, {"time": 3113, "pitch": 66, "duration": 4, "velocity": 80}, {"time": 3113, "pitch": 70, "duration": 3, "velocity": 70}, {"time": 3119, "pitch": 47, "duration": 2, "velocity": 78}, {"time": 3125, "pitch": 37, "duration": 42, "velocity": 70}, {"time": 3125, "pitch": 61, "duration": 7, "velocity": 80}, {"time": 3125, "pitch": 66, "duration": 7, "velocity": 80}, {"time": 3125, "pitch": 68, "duration": 10, "velocity": 82}, {"time": 3125, "pitch": 73, "duration": 9, "velocity": 73}, {"time": 3131, "pitch": 49, "duration": 8, "velocity": 56}, {"time": 3137, "pitch": 61, "duration": 3, "velocity": 88}, {"time": 3137, "pitch": 66, "duration": 3, "velocity": 97}, {"time": 3137, "pitch": 68, "duration": 4, "velocity": 95}, {"time": 3137, "pitch": 73, "duration": 4, "velocity": 75}, {"time": 3143, "pitch": 49, "duration": 3, "velocity": 78}, {"time": 3149, "pitch": 49, "duration": 9, "velocity": 76}, {"time": 3149, "pitch": 70, "duration": 2, "velocity": 72}, {"time": 3149, "pitch": 73, "duration": 3, "velocity": 88}, {"time": 3149, "pitch": 78, "duration": 3, "velocity": 73}, {"time": 3155, "pitch": 68, "duration": 3, "velocity": 70}, {"time": 3155, "pitch": 77, "duration": 5, "velocity": 63}, {"time": 3161, "pitch": 70, "duration": 2, "velocity": 72}, {"time": 3161, "pitch": 73, "duration": 2, "velocity": 76}, {"time": 3161, "pitch": 78, "duration": 3, "velocity": 66}, {"time": 3167, "pitch": 49, "duration": 1, "velocity": 70}, {"time": 3173, "pitch": 47, "duration": 21, "velocity": 76}, {"time": 3173, "pitch": 63, "duration": 5, "velocity": 95}, {"time": 3173, "pitch": 66, "duration": 5, "velocity": 99}, {"time": 3179, "pitch": 54, "duration": 16, "velocity": 57}, {"time": 3179, "pitch": 66, "duration": 2, "velocity": 78}, {"time": 3182, "pitch": 63, "duration": 1, "velocity": 69}, {"time": 3182, "pitch": 65, "duration": 1, "velocity": 69}, {"time": 3185, "pitch": 59, "duration": 9, "velocity": 69}, {"time": 3185, "pitch": 65, "duration": 4, "velocity": 82}, {"time": 3191, "pitch": 63, "duration": 3, "velocity": 73}, {"time": 3191, "pitch": 66, "duration": 3, "velocity": 91}, {"time": 3194, "pitch": 65, "duration": 2, "velocity": 67}, {"time": 3197, "pitch": 47, "duration": 18, "velocity": 78}, {"time": 3197, "pitch": 63, "duration": 3, "velocity": 75}, {"time": 3197, "pitch": 66, "duration": 4, "velocity": 88}, {"time": 3200, "pitch": 54, "duration": 14, "velocity": 60}, {"time": 3203, "pitch": 63, "duration": 3, "velocity": 66}, {"time": 3203, "pitch": 66, "duration": 2, "velocity": 76}, {"time": 3206, "pitch": 65, "duration": 2, "velocity": 72}, {"time": 3209, "pitch": 59, "duration": 4, "velocity": 72}, {"time": 3209, "pitch": 63, "duration": 2, "velocity": 67}, {"time": 3209, "pitch": 66, "duration": 2, "velocity": 91}, {"time": 3212, "pitch": 63, "duration": 1, "velocity": 50}, {"time": 3212, "pitch": 66, "duration": 1, "velocity": 55}, {"time": 3212, "pitch": 68, "duration": 3, "velocity": 82}, {"time": 3215, "pitch": 70, "duration": 4, "velocity": 73}, {"time": 3221, "pitch": 46, "duration": 20, "velocity": 70}, {"time": 3221, "pitch": 58, "duration": 9, "velocity": 88}, {"time": 3221, "pitch": 61, "duration": 4, "velocity": 80}, {"time": 3221, "pitch": 65, "duration": 4, "velocity": 85}, {"time": 3227, "pitch": 61, "duration": 2, "velocity": 70}, {"time": 3227, "pitch": 65, "duration": 2, "velocity": 85}, {"time": 3230, "pitch": 63, "duration": 2, "velocity": 75}, {"time": 3233, "pitch": 58, "duration": 7, "velocity": 57}, {"time": 3233, "pitch": 61, "duration": 3, "velocity": 72}, {"time": 3233, "pitch": 65, "duration": 3, "velocity": 78}, {"time": 3239, "pitch": 61, "duration": 2, "velocity": 73}, {"time": 3239, "pitch": 65, "duration": 2, "velocity": 91}, {"time": 3242, "pitch": 63, "duration": 3, "velocity": 64}, {"time": 3245, "pitch": 46, "duration": 15, "velocity": 70}, {"time": 3245, "pitch": 58, "duration": 9, "velocity": 50}, {"time": 3245, "pitch": 65, "duration": 2, "velocity": 76}, {"time": 3248, "pitch": 66, "duration": 2, "velocity": 76}, {"time": 3251, "pitch": 61, "duration": 3, "velocity": 72}, {"time": 3254, "pitch": 66, "duration": 4, "velocity": 85}, {"time": 3257, "pitch": 58, "duration": 4, "velocity": 66}, {"time": 3257, "pitch": 68, "duration": 2, "velocity": 80}, {"time": 3260, "pitch": 70, "duration": 3, "velocity": 82}, {"time": 3263, "pitch": 73, "duration": 3, "velocity": 88}, {"time": 3266, "pitch": 75, "duration": 2, "velocity": 88}, {"time": 3269, "pitch": 64, "duration": 11, "velocity": 95}, {"time": 3269, "pitch": 45, "duration": 20, "velocity": 70}, {"time": 3269, "pitch": 61, "duration": 11, "velocity": 80}, {"time": 3269, "pitch": 69, "duration": 12, "velocity": 99}, {"time": 3269, "pitch": 57, "duration": 21, "velocity": 69}, {"time": 3282, "pitch": 61, "duration": 7, "velocity": 63}, {"time": 3288, "pitch": 64, "duration": 2, "velocity": 85}, {"time": 3293, "pitch": 71, "duration": 8, "velocity": 72}, {"time": 3293, "pitch": 63, "duration": 8, "velocity": 67}, {"time": 3293, "pitch": 66, "duration": 8, "velocity": 70}, {"time": 3293, "pitch": 47, "duration": 19, "velocity": 82}, {"time": 3293, "pitch": 59, "duration": 20, "velocity": 80}, {"time": 3306, "pitch": 63, "duration": 7, "velocity": 64}, {"time": 3306, "pitch": 66, "duration": 7, "velocity": 75}, {"time": 3312, "pitch": 71, "duration": 10, "velocity": 62}, {"time": 3316, "pitch": 66, "duration": 3, "velocity": 19}, {"time": 3324, "pitch": 54, "duration": 47, "velocity": 75}, {"time": 3325, "pitch": 66, "duration": 2, "velocity": 67}, {"time": 3325, "pitch": 68, "duration": 3, "velocity": 73}, {"time": 3326, "pitch": 70, "duration": 8, "velocity": 61}, {"time": 3331, "pitch": 61, "duration": 39, "velocity": 49}, {"time": 3336, "pitch": 66, "duration": 34, "velocity": 67}, {"time": 3339, "pitch": 70, "duration": 2, "velocity": 69}, {"time": 3342, "pitch": 73, "duration": 3, "velocity": 46}, {"time": 3345, "pitch": 78, "duration": 2, "velocity": 53}, {"time": 3349, "pitch": 80, "duration": 2, "velocity": 51}, {"time": 3352, "pitch": 82, "duration": 2, "velocity": 57}, {"time": 3356, "pitch": 85, "duration": 2, "velocity": 61}, {"time": 3361, "pitch": 90, "duration": 1, "velocity": 55}, {"time": 3365, "pitch": 92, "duration": 3, "velocity": 61}, {"time": 3371, "pitch": 94, "duration": 1, "velocity": 58}, {"time": 3376, "pitch": 97, "duration": 1, "velocity": 58}], "annotations": [{"time": 6, "annotation": {"number": 64, "value": 127}, "group": "control_change"}, {"time": 28, "annotation": {"number": 64, "value": 0}, "group": "control_change"}, {"time": 33, "annotation": {"number": 64, "value": 127}, "group": "control_change"}, {"time": 52, "annotation": {"number": 64, "value": 0}, "group": "control_change"}, {"time": 59, "annotation": {"number": 64, "value": 127}, "group": "control_change"}, {"time": 76, "annotation": {"number": 64, "value": 0}, "group": "control_change"}, {"time": 81, "annotation": {"number": 64, "value": 127}, "group": "control_change"}, {"time": 100, "annotation": {"number": 64, "value": 0}, "group": "control_change"}, {"time": 105, "annotation": {"number": 64, "value": 127}, "group": "control_change"}, {"time": 124, "annotation": {"number": 64, "value": 0}, "group": "control_change"}, {"time": 129, "annotation": {"number": 64, "value": 127}, "group": "control_change"}, {"time": 149, "annotation": {"number": 64, "value": 0}, "group": "control_change"}, {"time": 153, "annotation": {"number": 64, "value": 127}, "group": "control_change"}, {"time": 171, "annotation": {"number": 64, "value": 0}, "group": "control_change"}, {"time": 175, "annotation": {"number": 64, "value": 127}, "group": "control_change"}, {"time": 196, "annotation": {"number": 64, "value": 0}, "group": "control_change"}, {"time": 202, "annotation": {"number": 64, "value": 127}, "group": "control_change"}, {"time": 219, "annotation": {"number": 64, "value": 0}, "group": "control_change"}, {"time": 224, "annotation": {"number": 64, "value": 127}, "group": "control_change"}, {"time": 230, "annotation": {"number": 64, "value": 0}, "group": "control_change"}, {"time": 250, "annotation": {"number": 64, "value": 127}, "group": "control_change"}, {"time": 267, "annotation": {"number": 64, "value": 0}, "group": "control_change"}, {"time": 273, "annotation": {"number": 64, "value": 127}, "group": "control_change"}, {"time": 287, "annotation": {"number": 64, "value": 0}, "group": "control_change"}, {"time": 298, "annotation": {"number": 64, "value": 127}, "group": "control_change"}, {"time": 306, "annotation": {"number": 64, "value": 0}, "group": "control_change"}, {"time": 321, "annotation": {"number": 64, "value": 127}, "group": "control_change"}, {"time": 328, "annotation": {"number": 64, "value": 0}, "group": "control_change"}, {"time": 344, "annotation": {"number": 64, "value": 127}, "group": "control_change"}, {"time": 352, "annotation": {"number": 64, "value": 0}, "group": "control_change"}, {"time": 367, "annotation": {"number": 64, "value": 127}, "group": "control_change"}, {"time": 381, "annotation": {"number": 64, "value": 0}, "group": "control_change"}, {"time": 392, "annotation": {"number": 64, "value": 127}, "group": "control_change"}, {"time": 403, "annotation": {"number": 64, "value": 0}, "group": "control_change"}, {"time": 404, "annotation": {"number": 64, "value": 127}, "group": "control_change"}, {"time": 404, "annotation": {"number": 64, "value": 0}, "group": "control_change"}, {"time": 417, "annotation": {"number": 64, "value": 127}, "group": "control_change"}, {"time": 422, "annotation": {"number": 64, "value": 0}, "group": "control_change"}, {"time": 438, "annotation": {"number": 64, "value": 127}, "group": "control_change"}, {"time": 461, "annotation": {"number": 64, "value": 0}, "group": "control_change"}, {"time": 467, "annotation": {"number": 64, "value": 127}, "group": "control_change"}, {"time": 483, "annotation": {"number": 64, "value": 0}, "group": "control_change"}, {"time": 489, "annotation": {"number": 64, "value": 127}, "group": "control_change"}, {"time": 496, "annotation": {"number": 64, "value": 0}, "group": "control_change"}, {"time": 502, "annotation": {"number": 64, "value": 127}, "group": "control_change"}, {"time": 508, "annotation": {"number": 64, "value": 0}, "group": "control_change"}, {"time": 514, "annotation": {"number": 64, "value": 127}, "group": "control_change"}, {"time": 533, "annotation": {"number": 64, "value": 0}, "group": "control_change"}, {"time": 534, "annotation": {"number": 64, "value": 127}, "group": "control_change"}, {"time": 557, "annotation": {"number": 64, "value": 0}, "group": "control_change"}, {"time": 563, "annotation": {"number": 64, "value": 127}, "group": "control_change"}, {"time": 568, "annotation": {"number": 64, "value": 0}, "group": "control_change"}, {"time": 574, "annotation": {"number": 64, "value": 127}, "group": "control_change"}, {"time": 581, "annotation": {"number": 64, "value": 0}, "group": "control_change"}, {"time": 588, "annotation": {"number": 64, "value": 127}, "group": "control_change"}, {"time": 605, "annotation": {"number": 64, "value": 0}, "group": "control_change"}, {"time": 607, "annotation": {"number": 64, "value": 127}, "group": "control_change"}, {"time": 629, "annotation": {"number": 64, "value": 0}, "group": "control_change"}, {"time": 631, "annotation": {"number": 64, "value": 127}, "group": "control_change"}, {"time": 653, "annotation": {"number": 64, "value": 0}, "group": "control_change"}, {"time": 658, "annotation": {"number": 64, "value": 127}, "group": "control_change"}, {"time": 677, "annotation": {"number": 64, "value": 0}, "group": "control_change"}, {"time": 684, "annotation": {"number": 64, "value": 127}, "group": "control_change"}, {"time": 700, "annotation": {"number": 64, "value": 0}, "group": "control_change"}, {"time": 707, "annotation": {"number": 64, "value": 127}, "group": "control_change"}, {"time": 725, "annotation": {"number": 64, "value": 0}, "group": "control_change"}, {"time": 726, "annotation": {"number": 64, "value": 127}, "group": "control_change"}, {"time": 748, "annotation": {"number": 64, "value": 0}, "group": "control_change"}, {"time": 756, "annotation": {"number": 64, "value": 127}, "group": "control_change"}, {"time": 774, "annotation": {"number": 64, "value": 0}, "group": "control_change"}, {"time": 779, "annotation": {"number": 64, "value": 127}, "group": "control_change"}, {"time": 819, "annotation": {"number": 64, "value": 0}, "group": "control_change"}, {"time": 823, "annotation": {"number": 64, "value": 127}, "group": "control_change"}, {"time": 845, "annotation": {"number": 64, "value": 0}, "group": "control_change"}, {"time": 849, "annotation": {"number": 64, "value": 127}, "group": "control_change"}, {"time": 869, "annotation": {"number": 64, "value": 0}, "group": "control_change"}, {"time": 871, "annotation": {"number": 64, "value": 127}, "group": "control_change"}, {"time": 881, "annotation": {"number": 64, "value": 0}, "group": "control_change"}, {"time": 883, "annotation": {"number": 64, "value": 127}, "group": "control_change"}, {"time": 894, "annotation": {"number": 64, "value": 0}, "group": "control_change"}, {"time": 897, "annotation": {"number": 64, "value": 127}, "group": "control_change"}, {"time": 918, "annotation": {"number": 64, "value": 0}, "group": "control_change"}, {"time": 921, "annotation": {"number": 64, "value": 127}, "group": "control_change"}, {"time": 938, "annotation": {"number": 64, "value": 0}, "group": "control_change"}, {"time": 941, "annotation": {"number": 64, "value": 127}, "group": "control_change"}, {"time": 965, "annotation": {"number": 64, "value": 0}, "group": "control_change"}, {"time": 967, "annotation": {"number": 64, "value": 127}, "group": "control_change"}, {"time": 990, "annotation": {"number": 64, "value": 0}, "group": "control_change"}, {"time": 992, "annotation": {"number": 64, "value": 127}, "group": "control_change"}, {"time": 1014, "annotation": {"number": 64, "value": 0}, "group": "control_change"}, {"time": 1017, "annotation": {"number": 64, "value": 127}, "group": "control_change"}, {"time": 1037, "annotation": {"number": 64, "value": 127}, "group": "control_change"}, {"time": 1037, "annotation": {"number": 64, "value": 0}, "group": "control_change"}, {"time": 1060, "annotation": {"number": 64, "value": 0}, "group": "control_change"}, {"time": 1063, "annotation": {"number": 64, "value": 127}, "group": "control_change"}, {"time": 1085, "annotation": {"number": 64, "value": 0}, "group": "control_change"}, {"time": 1087, "annotation": {"number": 64, "value": 127}, "group": "control_change"}, {"time": 1108, "annotation": {"number": 64, "value": 0}, "group": "control_change"}, {"time": 1109, "annotation": {"number": 64, "value": 127}, "group": "control_change"}, {"time": 1134, "annotation": {"number": 64, "value": 0}, "group": "control_change"}, {"time": 1137, "annotation": {"number": 64, "value": 127}, "group": "control_change"}, {"time": 1157, "annotation": {"number": 64, "value": 0}, "group": "control_change"}, {"time": 1161, "annotation": {"number": 64, "value": 127}, "group": "control_change"}, {"time": 1180, "annotation": {"number": 64, "value": 0}, "group": "control_change"}, {"time": 1182, "annotation": {"number": 64, "value": 127}, "group": "control_change"}, {"time": 1205, "annotation": {"number": 64, "value": 127}, "group": "control_change"}, {"time": 1229, "annotation": {"number": 64, "value": 0}, "group": "control_change"}, {"time": 1232, "annotation": {"number": 64, "value": 127}, "group": "control_change"}, {"time": 1253, "annotation": {"number": 64, "value": 0}, "group": "control_change"}, {"time": 1256, "annotation": {"number": 64, "value": 127}, "group": "control_change"}, {"time": 1276, "annotation": {"number": 64, "value": 0}, "group": "control_change"}, {"time": 1278, "annotation": {"number": 64, "value": 127}, "group": "control_change"}, {"time": 1289, "annotation": {"number": 64, "value": 0}, "group": "control_change"}, {"time": 1291, "annotation": {"number": 64, "value": 127}, "group": "control_change"}, {"time": 1301, "annotation": {"number": 64, "value": 0}, "group": "control_change"}, {"time": 1304, "annotation": {"number": 64, "value": 127}, "group": "control_change"}, {"time": 1325, "annotation": {"number": 64, "value": 127}, "group": "control_change"}, {"time": 1325, "annotation": {"number": 64, "value": 0}, "group": "control_change"}, {"time": 1333, "annotation": {"number": 64, "value": 0}, "group": "control_change"}, {"time": 1335, "annotation": {"number": 64, "value": 127}, "group": "control_change"}, {"time": 1348, "annotation": {"number": 64, "value": 0}, "group": "control_change"}, {"time": 1350, "annotation": {"number": 64, "value": 127}, "group": "control_change"}, {"time": 1395, "annotation": {"number": 64, "value": 0}, "group": "control_change"}, {"time": 1399, "annotation": {"number": 64, "value": 127}, "group": "control_change"}, {"time": 1420, "annotation": {"number": 64, "value": 0}, "group": "control_change"}, {"time": 1421, "annotation": {"number": 64, "value": 127}, "group": "control_change"}, {"time": 1444, "annotation": {"number": 64, "value": 0}, "group": "control_change"}, {"time": 1446, "annotation": {"number": 64, "value": 127}, "group": "control_change"}, {"time": 1467, "annotation": {"number": 64, "value": 0}, "group": "control_change"}, {"time": 1471, "annotation": {"number": 64, "value": 127}, "group": "control_change"}, {"time": 1493, "annotation": {"number": 64, "value": 0}, "group": "control_change"}, {"time": 1495, "annotation": {"number": 64, "value": 127}, "group": "control_change"}, {"time": 1541, "annotation": {"number": 64, "value": 0}, "group": "control_change"}, {"time": 1545, "annotation": {"number": 64, "value": 127}, "group": "control_change"}, {"time": 1564, "annotation": {"number": 64, "value": 0}, "group": "control_change"}, {"time": 1568, "annotation": {"number": 64, "value": 127}, "group": "control_change"}, {"time": 1588, "annotation": {"number": 64, "value": 0}, "group": "control_change"}, {"time": 1594, "annotation": {"number": 64, "value": 127}, "group": "control_change"}, {"time": 1612, "annotation": {"number": 64, "value": 0}, "group": "control_change"}, {"time": 1616, "annotation": {"number": 64, "value": 127}, "group": "control_change"}, {"time": 1636, "annotation": {"number": 64, "value": 0}, "group": "control_change"}, {"time": 1638, "annotation": {"number": 64, "value": 127}, "group": "control_change"}, {"time": 1660, "annotation": {"number": 64, "value": 0}, "group": "control_change"}, {"time": 1662, "annotation": {"number": 64, "value": 127}, "group": "control_change"}, {"time": 1684, "annotation": {"number": 64, "value": 0}, "group": "control_change"}, {"time": 1686, "annotation": {"number": 64, "value": 127}, "group": "control_change"}, {"time": 1709, "annotation": {"number": 64, "value": 127}, "group": "control_change"}, {"time": 1709, "annotation": {"number": 64, "value": 0}, "group": "control_change"}, {"time": 1718, "annotation": {"number": 64, "value": 0}, "group": "control_change"}, {"time": 1720, "annotation": {"number": 64, "value": 127}, "group": "control_change"}, {"time": 1732, "annotation": {"number": 64, "value": 0}, "group": "control_change"}, {"time": 1734, "annotation": {"number": 64, "value": 127}, "group": "control_change"}, {"time": 1767, "annotation": {"number": 64, "value": 0}, "group": "control_change"}, {"time": 1770, "annotation": {"number": 64, "value": 127}, "group": "control_change"}, {"time": 1780, "annotation": {"number": 64, "value": 0}, "group": "control_change"}, {"time": 1782, "annotation": {"number": 64, "value": 127}, "group": "control_change"}, {"time": 1805, "annotation": {"number": 64, "value": 0}, "group": "control_change"}, {"time": 1807, "annotation": {"number": 64, "value": 127}, "group": "control_change"}, {"time": 1828, "annotation": {"number": 64, "value": 0}, "group": "control_change"}, {"time": 1829, "annotation": {"number": 64, "value": 127}, "group": "control_change"}, {"time": 1851, "annotation": {"number": 64, "value": 0}, "group": "control_change"}, {"time": 1854, "annotation": {"number": 64, "value": 127}, "group": "control_change"}, {"time": 1876, "annotation": {"number": 64, "value": 0}, "group": "control_change"}, {"time": 1877, "annotation": {"number": 64, "value": 127}, "group": "control_change"}, {"time": 1924, "annotation": {"number": 64, "value": 0}, "group": "control_change"}, {"time": 1927, "annotation": {"number": 64, "value": 127}, "group": "control_change"}, {"time": 1972, "annotation": {"number": 64, "value": 0}, "group": "control_change"}, {"time": 1973, "annotation": {"number": 64, "value": 127}, "group": "control_change"}, {"time": 1997, "annotation": {"number": 64, "value": 0}, "group": "control_change"}, {"time": 1999, "annotation": {"number": 64, "value": 127}, "group": "control_change"}, {"time": 2021, "annotation": {"number": 64, "value": 0}, "group": "control_change"}, {"time": 2024, "annotation": {"number": 64, "value": 127}, "group": "control_change"}, {"time": 2044, "annotation": {"number": 64, "value": 0}, "group": "control_change"}, {"time": 2048, "annotation": {"number": 64, "value": 127}, "group": "control_change"}, {"time": 2068, "annotation": {"number": 64, "value": 0}, "group": "control_change"}, {"time": 2072, "annotation": {"number": 64, "value": 127}, "group": "control_change"}, {"time": 2092, "annotation": {"number": 64, "value": 0}, "group": "control_change"}, {"time": 2095, "annotation": {"number": 64, "value": 127}, "group": "control_change"}, {"time": 2116, "annotation": {"number": 64, "value": 0}, "group": "control_change"}, {"time": 2120, "annotation": {"number": 64, "value": 127}, "group": "control_change"}, {"time": 2140, "annotation": {"number": 64, "value": 0}, "group": "control_change"}, {"time": 2143, "annotation": {"number": 64, "value": 127}, "group": "control_change"}, {"time": 2164, "annotation": {"number": 64, "value": 0}, "group": "control_change"}, {"time": 2167, "annotation": {"number": 64, "value": 127}, "group": "control_change"}, {"time": 2188, "annotation": {"number": 64, "value": 0}, "group": "control_change"}, {"time": 2191, "annotation": {"number": 64, "value": 127}, "group": "control_change"}, {"time": 2212, "annotation": {"number": 64, "value": 0}, "group": "control_change"}, {"time": 2215, "annotation": {"number": 64, "value": 127}, "group": "control_change"}, {"time": 2236, "annotation": {"number": 64, "value": 0}, "group": "control_change"}, {"time": 2240, "annotation": {"number": 64, "value": 127}, "group": "control_change"}, {"time": 2259, "annotation": {"number": 64, "value": 0}, "group": "control_change"}, {"time": 2262, "annotation": {"number": 64, "value": 127}, "group": "control_change"}, {"time": 2285, "annotation": {"number": 64, "value": 0}, "group": "control_change"}, {"time": 2287, "annotation": {"number": 64, "value": 127}, "group": "control_change"}, {"time": 2308, "annotation": {"number": 64, "value": 0}, "group": "control_change"}, {"time": 2312, "annotation": {"number": 64, "value": 127}, "group": "control_change"}, {"time": 2331, "annotation": {"number": 64, "value": 0}, "group": "control_change"}, {"time": 2338, "annotation": {"number": 64, "value": 127}, "group": "control_change"}, {"time": 2355, "annotation": {"number": 64, "value": 0}, "group": "control_change"}, {"time": 2358, "annotation": {"number": 64, "value": 127}, "group": "control_change"}, {"time": 2404, "annotation": {"number": 64, "value": 0}, "group": "control_change"}, {"time": 2406, "annotation": {"number": 64, "value": 127}, "group": "control_change"}, {"time": 2433, "annotation": {"number": 64, "value": 0}, "group": "control_change"}, {"time": 2437, "annotation": {"number": 64, "value": 127}, "group": "control_change"}, {"time": 2454, "annotation": {"number": 64, "value": 0}, "group": "control_change"}, {"time": 2458, "annotation": {"number": 64, "value": 127}, "group": "control_change"}, {"time": 2477, "annotation": {"number": 64, "value": 0}, "group": "control_change"}, {"time": 2480, "annotation": {"number": 64, "value": 127}, "group": "control_change"}, {"time": 2501, "annotation": {"number": 64, "value": 0}, "group": "control_change"}, {"time": 2502, "annotation": {"number": 64, "value": 127}, "group": "control_change"}, {"time": 2524, "annotation": {"number": 64, "value": 0}, "group": "control_change"}, {"time": 2528, "annotation": {"number": 64, "value": 127}, "group": "control_change"}, {"time": 2548, "annotation": {"number": 64, "value": 0}, "group": "control_change"}, {"time": 2552, "annotation": {"number": 64, "value": 127}, "group": "control_change"}, {"time": 2598, "annotation": {"number": 64, "value": 0}, "group": "control_change"}, {"time": 2602, "annotation": {"number": 64, "value": 127}, "group": "control_change"}, {"time": 2621, "annotation": {"number": 64, "value": 0}, "group": "control_change"}, {"time": 2627, "annotation": {"number": 64, "value": 127}, "group": "control_change"}, {"time": 2645, "annotation": {"number": 64, "value": 0}, "group": "control_change"}, {"time": 2649, "annotation": {"number": 64, "value": 127}, "group": "control_change"}, {"time": 2668, "annotation": {"number": 64, "value": 0}, "group": "control_change"}, {"time": 2674, "annotation": {"number": 64, "value": 127}, "group": "control_change"}, {"time": 2691, "annotation": {"number": 64, "value": 0}, "group": "control_change"}, {"time": 2700, "annotation": {"number": 64, "value": 127}, "group": "control_change"}, {"time": 2702, "annotation": {"number": 64, "value": 0}, "group": "control_change"}, {"time": 2743, "annotation": {"number": 64, "value": 127}, "group": "control_change"}, {"time": 2769, "annotation": {"number": 64, "value": 0}, "group": "control_change"}, {"time": 2769, "annotation": {"number": 64, "value": 127}, "group": "control_change"}, {"time": 2770, "annotation": {"number": 64, "value": 127}, "group": "control_change"}, {"time": 2770, "annotation": {"number": 64, "value": 0}, "group": "control_change"}, {"time": 2794, "annotation": {"number": 64, "value": 127}, "group": "control_change"}, {"time": 2812, "annotation": {"number": 64, "value": 0}, "group": "control_change"}, {"time": 2816, "annotation": {"number": 64, "value": 127}, "group": "control_change"}, {"time": 2837, "annotation": {"number": 64, "value": 0}, "group": "control_change"}, {"time": 2841, "annotation": {"number": 64, "value": 127}, "group": "control_change"}, {"time": 2863, "annotation": {"number": 64, "value": 0}, "group": "control_change"}, {"time": 2868, "annotation": {"number": 64, "value": 127}, "group": "control_change"}, {"time": 2885, "annotation": {"number": 64, "value": 0}, "group": "control_change"}, {"time": 2891, "annotation": {"number": 64, "value": 127}, "group": "control_change"}, {"time": 2907, "annotation": {"number": 64, "value": 0}, "group": "control_change"}, {"time": 2915, "annotation": {"number": 64, "value": 127}, "group": "control_change"}, {"time": 2933, "annotation": {"number": 64, "value": 0}, "group": "control_change"}, {"time": 2936, "annotation": {"number": 64, "value": 127}, "group": "control_change"}, {"time": 2982, "annotation": {"number": 64, "value": 0}, "group": "control_change"}, {"time": 2987, "annotation": {"number": 64, "value": 127}, "group": "control_change"}, {"time": 3004, "annotation": {"number": 64, "value": 0}, "group": "control_change"}, {"time": 3012, "annotation": {"number": 64, "value": 127}, "group": "control_change"}, {"time": 3027, "annotation": {"number": 64, "value": 0}, "group": "control_change"}, {"time": 3035, "annotation": {"number": 64, "value": 127}, "group": "control_change"}, {"time": 3044, "annotation": {"number": 64, "value": 0}, "group": "control_change"}, {"time": 3058, "annotation": {"number": 64, "value": 127}, "group": "control_change"}, {"time": 3065, "annotation": {"number": 64, "value": 0}, "group": "control_change"}, {"time": 3070, "annotation": {"number": 64, "value": 127}, "group": "control_change"}, {"time": 3077, "annotation": {"number": 64, "value": 0}, "group": "control_change"}, {"time": 3083, "annotation": {"number": 64, "value": 127}, "group": "control_change"}, {"time": 3108, "annotation": {"number": 64, "value": 0}, "group": "control_change"}, {"time": 3109, "annotation": {"number": 64, "value": 127}, "group": "control_change"}, {"time": 3109, "annotation": {"number": 64, "value": 0}, "group": "control_change"}, {"time": 3115, "annotation": {"number": 64, "value": 127}, "group": "control_change"}, {"time": 3125, "annotation": {"number": 64, "value": 0}, "group": "control_change"}, {"time": 3130, "annotation": {"number": 64, "value": 127}, "group": "control_change"}, {"time": 3173, "annotation": {"number": 64, "value": 0}, "group": "control_change"}, {"time": 3173, "annotation": {"number": 64, "value": 127}, "group": "control_change"}, {"time": 3218, "annotation": {"number": 64, "value": 0}, "group": "control_change"}, {"time": 3223, "annotation": {"number": 64, "value": 127}, "group": "control_change"}, {"time": 3268, "annotation": {"number": 64, "value": 0}, "group": "control_change"}, {"time": 3269, "annotation": {"number": 64, "value": 127}, "group": "control_change"}, {"time": 3295, "annotation": {"number": 64, "value": 127}, "group": "control_change"}, {"time": 3302, "annotation": {"number": 64, "value": 0}, "group": "control_change"}, {"time": 3324, "annotation": {"number": 64, "value": 0}, "group": "control_change"}, {"time": 3328, "annotation": {"number": 64, "value": 127}, "group": "control_change"}, {"time": 3408, "annotation": {"number": 64, "value": 0}, "group": "control_change"}]}]}