{"metadata": {"schema_version": "0.2", "title": "None", "source_filename": "194.mid", "source_format": "midi"}, "resolution": 12, "tempos": [{"time": 0, "qpm": 120.0}, {"time": 42, "qpm": 103.0000480666891}, {"time": 48, "qpm": 120.0}, {"time": 144, "qpm": 122.0000691333725}, {"time": 168, "qpm": 120.0}, {"time": 288, "qpm": 120.99994353335968}, {"time": 336, "qpm": 120.0}, {"time": 384, "qpm": 122.99996925000768}, {"time": 432, "qpm": 120.0}, {"time": 576, "qpm": 122.0000691333725}, {"time": 624, "qpm": 120.0}, {"time": 721, "qpm": 123.99999173333389}, {"time": 768, "qpm": 120.99994353335968}, {"time": 2592, "qpm": 118.99992463338107}, {"time": 2640, "qpm": 120.99994353335968}], "key_signatures": [{"time": 0, "root": 0, "mode": "major"}], "time_signatures": [{"time": 0, "numerator": 4, "denominator": 4}], "tracks": [{"program": 0, "is_drum": false, "name": "MELODY", "notes": [{"time": 366, "pitch": 64, "duration": 12, "velocity": 65}, {"time": 378, "pitch": 66, "duration": 13, "velocity": 79}, {"time": 390, "pitch": 69, "duration": 11, "velocity": 87}, {"time": 402, "pitch": 68, "duration": 11, "velocity": 60}, {"time": 414, "pitch": 68, "duration": 40, "velocity": 66}, {"time": 462, "pitch": 68, "duration": 7, "velocity": 90}, {"time": 468, "pitch": 69, "duration": 7, "velocity": 66}, {"time": 474, "pitch": 71, "duration": 13, "velocity": 90}, {"time": 486, "pitch": 69, "duration": 11, "velocity": 89}, {"time": 498, "pitch": 68, "duration": 12, "velocity": 85}, {"time": 504, "pitch": 64, "duration": 35, "velocity": 64}, {"time": 558, "pitch": 64, "duration": 12, "velocity": 91}, {"time": 570, "pitch": 66, "duration": 12, "velocity": 74}, {"time": 582, "pitch": 69, "duration": 11, "velocity": 96}, {"time": 594, "pitch": 68, "duration": 5, "velocity": 66}, {"time": 600, "pitch": 68, "duration": 34, "velocity": 92}, {"time": 642, "pitch": 68, "duration": 12, "velocity": 90}, {"time": 654, "pitch": 66, "duration": 12, "velocity": 87}, {"time": 666, "pitch": 64, "duration": 11, "velocity": 79}, {"time": 678, "pitch": 61, "duration": 11, "velocity": 76}, {"time": 690, "pitch": 66, "duration": 3, "velocity": 66}, {"time": 696, "pitch": 66, "duration": 28, "velocity": 66}, {"time": 750, "pitch": 64, "duration": 12, "velocity": 87}, {"time": 762, "pitch": 66, "duration": 13, "velocity": 90}, {"time": 774, "pitch": 69, "duration": 12, "velocity": 95}, {"time": 786, "pitch": 68, "duration": 4, "velocity": 91}, {"time": 792, "pitch": 68, "duration": 36, "velocity": 87}, {"time": 846, "pitch": 68, "duration": 7, "velocity": 87}, {"time": 852, "pitch": 69, "duration": 9, "velocity": 80}, {"time": 858, "pitch": 71, "duration": 14, "velocity": 91}, {"time": 870, "pitch": 69, "duration": 12, "velocity": 97}, {"time": 882, "pitch": 68, "duration": 13, "velocity": 93}, {"time": 894, "pitch": 64, "duration": 13, "velocity": 86}, {"time": 906, "pitch": 71, "duration": 16, "velocity": 92}, {"time": 918, "pitch": 69, "duration": 13, "velocity": 100}, {"time": 966, "pitch": 69, "duration": 12, "velocity": 97}, {"time": 978, "pitch": 68, "duration": 8, "velocity": 87}, {"time": 984, "pitch": 76, "duration": 25, "velocity": 87}, {"time": 1014, "pitch": 68, "duration": 12, "velocity": 101}, {"time": 1026, "pitch": 66, "duration": 5, "velocity": 87}, {"time": 1032, "pitch": 66, "duration": 18, "velocity": 66}, {"time": 1050, "pitch": 64, "duration": 4, "velocity": 67}, {"time": 1056, "pitch": 64, "duration": 39, "velocity": 65}, {"time": 1134, "pitch": 64, "duration": 11, "velocity": 91}, {"time": 1146, "pitch": 66, "duration": 9, "velocity": 84}, {"time": 1158, "pitch": 69, "duration": 12, "velocity": 96}, {"time": 1170, "pitch": 68, "duration": 4, "velocity": 93}, {"time": 1176, "pitch": 68, "duration": 32, "velocity": 91}, {"time": 1230, "pitch": 68, "duration": 7, "velocity": 87}, {"time": 1236, "pitch": 69, "duration": 4, "velocity": 80}, {"time": 1242, "pitch": 71, "duration": 13, "velocity": 93}, {"time": 1254, "pitch": 69, "duration": 13, "velocity": 89}, {"time": 1266, "pitch": 68, "duration": 15, "velocity": 66}, {"time": 1272, "pitch": 64, "duration": 33, "velocity": 38}, {"time": 1326, "pitch": 64, "duration": 9, "velocity": 91}, {"time": 1338, "pitch": 66, "duration": 13, "velocity": 84}, {"time": 1350, "pitch": 69, "duration": 11, "velocity": 92}, {"time": 1362, "pitch": 68, "duration": 4, "velocity": 72}, {"time": 1368, "pitch": 68, "duration": 34, "velocity": 86}, {"time": 1410, "pitch": 68, "duration": 12, "velocity": 100}, {"time": 1422, "pitch": 66, "duration": 11, "velocity": 100}, {"time": 1434, "pitch": 64, "duration": 11, "velocity": 93}, {"time": 1446, "pitch": 61, "duration": 11, "velocity": 90}, {"time": 1458, "pitch": 66, "duration": 4, "velocity": 97}, {"time": 1464, "pitch": 66, "duration": 16, "velocity": 97}, {"time": 1488, "pitch": 64, "duration": 6, "velocity": 100}, {"time": 1494, "pitch": 66, "duration": 9, "velocity": 100}, {"time": 1521, "pitch": 64, "duration": 12, "velocity": 105}, {"time": 1530, "pitch": 66, "duration": 12, "velocity": 98}, {"time": 1542, "pitch": 69, "duration": 12, "velocity": 97}, {"time": 1554, "pitch": 68, "duration": 5, "velocity": 86}, {"time": 1560, "pitch": 68, "duration": 35, "velocity": 90}, {"time": 1611, "pitch": 68, "duration": 6, "velocity": 91}, {"time": 1620, "pitch": 69, "duration": 7, "velocity": 62}, {"time": 1626, "pitch": 71, "duration": 12, "velocity": 90}, {"time": 1638, "pitch": 69, "duration": 12, "velocity": 98}, {"time": 1650, "pitch": 68, "duration": 11, "velocity": 87}, {"time": 1662, "pitch": 64, "duration": 7, "velocity": 76}, {"time": 1674, "pitch": 78, "duration": 12, "velocity": 84}, {"time": 1686, "pitch": 76, "duration": 29, "velocity": 95}, {"time": 1728, "pitch": 64, "duration": 6, "velocity": 87}, {"time": 1734, "pitch": 68, "duration": 10, "velocity": 95}, {"time": 1746, "pitch": 68, "duration": 7, "velocity": 82}, {"time": 1752, "pitch": 76, "duration": 21, "velocity": 98}, {"time": 1776, "pitch": 64, "duration": 6, "velocity": 86}, {"time": 1782, "pitch": 68, "duration": 12, "velocity": 96}, {"time": 1794, "pitch": 66, "duration": 3, "velocity": 87}, {"time": 1800, "pitch": 76, "duration": 20, "velocity": 93}, {"time": 1818, "pitch": 75, "duration": 9, "velocity": 87}, {"time": 1824, "pitch": 76, "duration": 47, "velocity": 97}, {"time": 1890, "pitch": 80, "duration": 13, "velocity": 109}, {"time": 1902, "pitch": 78, "duration": 12, "velocity": 106}, {"time": 1914, "pitch": 76, "duration": 13, "velocity": 98}, {"time": 1926, "pitch": 73, "duration": 9, "velocity": 94}, {"time": 1938, "pitch": 78, "duration": 3, "velocity": 96}, {"time": 1944, "pitch": 78, "duration": 33, "velocity": 97}, {"time": 1986, "pitch": 80, "duration": 11, "velocity": 98}, {"time": 1998, "pitch": 78, "duration": 12, "velocity": 98}, {"time": 2010, "pitch": 76, "duration": 11, "velocity": 90}, {"time": 2022, "pitch": 71, "duration": 12, "velocity": 89}, {"time": 2034, "pitch": 78, "duration": 7, "velocity": 96}, {"time": 2040, "pitch": 78, "duration": 1, "velocity": 99}, {"time": 2058, "pitch": 75, "duration": 7, "velocity": 84}, {"time": 2064, "pitch": 76, "duration": 9, "velocity": 90}, {"time": 2082, "pitch": 80, "duration": 12, "velocity": 105}, {"time": 2094, "pitch": 78, "duration": 13, "velocity": 103}, {"time": 2106, "pitch": 76, "duration": 12, "velocity": 98}, {"time": 2118, "pitch": 73, "duration": 11, "velocity": 91}, {"time": 2130, "pitch": 78, "duration": 3, "velocity": 87}, {"time": 2136, "pitch": 78, "duration": 16, "velocity": 95}, {"time": 2154, "pitch": 76, "duration": 3, "velocity": 91}, {"time": 2160, "pitch": 81, "duration": 15, "velocity": 104}, {"time": 2178, "pitch": 80, "duration": 6, "velocity": 97}, {"time": 2184, "pitch": 78, "duration": 12, "velocity": 100}, {"time": 2196, "pitch": 76, "duration": 9, "velocity": 97}, {"time": 2208, "pitch": 71, "duration": 6, "velocity": 87}, {"time": 2214, "pitch": 81, "duration": 9, "velocity": 96}, {"time": 2226, "pitch": 80, "duration": 3, "velocity": 66}, {"time": 2232, "pitch": 80, "duration": 15, "velocity": 66}, {"time": 2241, "pitch": 78, "duration": 14, "velocity": 90}, {"time": 2256, "pitch": 80, "duration": 19, "velocity": 89}, {"time": 2274, "pitch": 80, "duration": 1, "velocity": 99}, {"time": 2280, "pitch": 81, "duration": 17, "velocity": 91}, {"time": 2298, "pitch": 80, "duration": 6, "velocity": 93}, {"time": 2304, "pitch": 85, "duration": 19, "velocity": 103}, {"time": 2322, "pitch": 80, "duration": 3, "velocity": 98}, {"time": 2328, "pitch": 80, "duration": 19, "velocity": 90}, {"time": 2346, "pitch": 78, "duration": 3, "velocity": 66}, {"time": 2352, "pitch": 78, "duration": 12, "velocity": 80}, {"time": 2370, "pitch": 78, "duration": 4, "velocity": 93}, {"time": 2376, "pitch": 80, "duration": 13, "velocity": 97}, {"time": 2394, "pitch": 78, "duration": 3, "velocity": 97}, {"time": 2400, "pitch": 83, "duration": 14, "velocity": 97}, {"time": 2418, "pitch": 78, "duration": 3, "velocity": 84}, {"time": 2424, "pitch": 78, "duration": 9, "velocity": 79}, {"time": 2436, "pitch": 75, "duration": 9, "velocity": 90}, {"time": 2448, "pitch": 78, "duration": 9, "velocity": 90}, {"time": 2460, "pitch": 76, "duration": 24, "velocity": 99}, {"time": 2490, "pitch": 71, "duration": 5, "velocity": 98}, {"time": 2496, "pitch": 68, "duration": 7, "velocity": 84}, {"time": 2502, "pitch": 69, "duration": 10, "velocity": 93}, {"time": 2514, "pitch": 76, "duration": 3, "velocity": 72}, {"time": 2520, "pitch": 76, "duration": 17, "velocity": 100}, {"time": 2538, "pitch": 78, "duration": 4, "velocity": 92}, {"time": 2544, "pitch": 81, "duration": 13, "velocity": 103}, {"time": 2562, "pitch": 80, "duration": 7, "velocity": 98}, {"time": 2574, "pitch": 78, "duration": 8, "velocity": 109}, {"time": 2586, "pitch": 76, "duration": 12, "velocity": 103}, {"time": 2598, "pitch": 76, "duration": 91, "velocity": 105}, {"time": 2958, "pitch": 64, "duration": 12, "velocity": 65}, {"time": 2970, "pitch": 66, "duration": 13, "velocity": 79}, {"time": 2982, "pitch": 69, "duration": 11, "velocity": 87}, {"time": 2994, "pitch": 68, "duration": 6, "velocity": 60}, {"time": 3000, "pitch": 68, "duration": 1, "velocity": 66}, {"time": 3054, "pitch": 68, "duration": 7, "velocity": 90}, {"time": 3060, "pitch": 69, "duration": 7, "velocity": 66}, {"time": 3066, "pitch": 71, "duration": 13, "velocity": 90}, {"time": 3078, "pitch": 69, "duration": 11, "velocity": 89}, {"time": 3090, "pitch": 68, "duration": 12, "velocity": 85}, {"time": 3096, "pitch": 64, "duration": 35, "velocity": 64}, {"time": 3150, "pitch": 64, "duration": 12, "velocity": 91}, {"time": 3162, "pitch": 66, "duration": 12, "velocity": 74}, {"time": 3174, "pitch": 69, "duration": 11, "velocity": 96}, {"time": 3186, "pitch": 68, "duration": 5, "velocity": 66}, {"time": 3192, "pitch": 68, "duration": 34, "velocity": 92}, {"time": 3234, "pitch": 68, "duration": 12, "velocity": 90}, {"time": 3246, "pitch": 66, "duration": 12, "velocity": 87}, {"time": 3258, "pitch": 64, "duration": 11, "velocity": 79}, {"time": 3270, "pitch": 61, "duration": 11, "velocity": 76}, {"time": 3282, "pitch": 66, "duration": 3, "velocity": 66}, {"time": 3288, "pitch": 66, "duration": 21, "velocity": 66}, {"time": 3309, "pitch": 68, "duration": 3, "velocity": 100}, {"time": 3312, "pitch": 66, "duration": 3, "velocity": 100}, {"time": 3315, "pitch": 64, "duration": 2, "velocity": 100}, {"time": 3318, "pitch": 66, "duration": 14, "velocity": 100}, {"time": 3342, "pitch": 64, "duration": 12, "velocity": 87}, {"time": 3354, "pitch": 66, "duration": 12, "velocity": 90}, {"time": 3366, "pitch": 69, "duration": 12, "velocity": 95}, {"time": 3378, "pitch": 68, "duration": 6, "velocity": 91}, {"time": 3384, "pitch": 68, "duration": 54, "velocity": 87}, {"time": 3438, "pitch": 68, "duration": 6, "velocity": 87}, {"time": 3444, "pitch": 69, "duration": 6, "velocity": 80}, {"time": 3450, "pitch": 71, "duration": 12, "velocity": 91}, {"time": 3462, "pitch": 69, "duration": 12, "velocity": 97}, {"time": 3474, "pitch": 68, "duration": 12, "velocity": 93}, {"time": 3486, "pitch": 64, "duration": 12, "velocity": 86}, {"time": 3498, "pitch": 78, "duration": 24, "velocity": 92}, {"time": 3522, "pitch": 76, "duration": 30, "velocity": 100}, {"time": 3552, "pitch": 64, "duration": 6, "velocity": 100}, {"time": 3558, "pitch": 69, "duration": 12, "velocity": 97}, {"time": 3570, "pitch": 68, "duration": 6, "velocity": 87}, {"time": 3576, "pitch": 76, "duration": 24, "velocity": 87}, {"time": 3600, "pitch": 64, "duration": 6, "velocity": 86}, {"time": 3606, "pitch": 68, "duration": 12, "velocity": 87}, {"time": 3618, "pitch": 66, "duration": 6, "velocity": 73}, {"time": 3624, "pitch": 76, "duration": 18, "velocity": 66}, {"time": 3642, "pitch": 75, "duration": 12, "velocity": 67}, {"time": 3654, "pitch": 76, "duration": 60, "velocity": 65}, {"time": 3714, "pitch": 80, "duration": 12, "velocity": 109}, {"time": 3726, "pitch": 78, "duration": 12, "velocity": 106}, {"time": 3738, "pitch": 76, "duration": 12, "velocity": 98}, {"time": 3750, "pitch": 73, "duration": 12, "velocity": 94}, {"time": 3762, "pitch": 78, "duration": 6, "velocity": 96}, {"time": 3768, "pitch": 78, "duration": 39, "velocity": 97}, {"time": 3810, "pitch": 80, "duration": 12, "velocity": 98}, {"time": 3822, "pitch": 78, "duration": 12, "velocity": 98}, {"time": 3834, "pitch": 76, "duration": 12, "velocity": 90}, {"time": 3846, "pitch": 71, "duration": 9, "velocity": 89}, {"time": 3858, "pitch": 78, "duration": 6, "velocity": 96}, {"time": 3864, "pitch": 78, "duration": 18, "velocity": 99}, {"time": 3882, "pitch": 76, "duration": 9, "velocity": 84}, {"time": 3888, "pitch": 76, "duration": 3, "velocity": 90}, {"time": 3906, "pitch": 80, "duration": 12, "velocity": 105}, {"time": 3918, "pitch": 78, "duration": 12, "velocity": 103}, {"time": 3930, "pitch": 76, "duration": 12, "velocity": 98}, {"time": 3942, "pitch": 73, "duration": 12, "velocity": 91}, {"time": 3954, "pitch": 78, "duration": 6, "velocity": 87}, {"time": 3960, "pitch": 78, "duration": 15, "velocity": 95}, {"time": 3978, "pitch": 76, "duration": 6, "velocity": 91}, {"time": 3984, "pitch": 81, "duration": 13, "velocity": 104}, {"time": 4002, "pitch": 80, "duration": 6, "velocity": 97}, {"time": 4008, "pitch": 78, "duration": 12, "velocity": 100}, {"time": 4020, "pitch": 76, "duration": 12, "velocity": 97}, {"time": 4032, "pitch": 71, "duration": 6, "velocity": 87}, {"time": 4038, "pitch": 81, "duration": 12, "velocity": 96}, {"time": 4053, "pitch": 80, "duration": 3, "velocity": 66}, {"time": 4056, "pitch": 80, "duration": 6, "velocity": 66}, {"time": 4068, "pitch": 78, "duration": 15, "velocity": 90}, {"time": 4080, "pitch": 80, "duration": 15, "velocity": 89}, {"time": 4098, "pitch": 80, "duration": 6, "velocity": 99}, {"time": 4104, "pitch": 81, "duration": 18, "velocity": 91}, {"time": 4122, "pitch": 80, "duration": 6, "velocity": 93}, {"time": 4128, "pitch": 85, "duration": 18, "velocity": 103}, {"time": 4146, "pitch": 80, "duration": 6, "velocity": 98}, {"time": 4152, "pitch": 80, "duration": 21, "velocity": 90}, {"time": 4170, "pitch": 78, "duration": 6, "velocity": 66}, {"time": 4176, "pitch": 78, "duration": 15, "velocity": 80}, {"time": 4194, "pitch": 78, "duration": 6, "velocity": 93}, {"time": 4200, "pitch": 80, "duration": 18, "velocity": 97}, {"time": 4218, "pitch": 78, "duration": 6, "velocity": 97}, {"time": 4224, "pitch": 83, "duration": 18, "velocity": 97}, {"time": 4242, "pitch": 78, "duration": 6, "velocity": 84}, {"time": 4248, "pitch": 78, "duration": 12, "velocity": 79}, {"time": 4260, "pitch": 75, "duration": 12, "velocity": 90}, {"time": 4272, "pitch": 78, "duration": 12, "velocity": 90}, {"time": 4284, "pitch": 76, "duration": 27, "velocity": 99}, {"time": 4314, "pitch": 71, "duration": 6, "velocity": 98}, {"time": 4320, "pitch": 68, "duration": 6, "velocity": 84}, {"time": 4326, "pitch": 69, "duration": 12, "velocity": 93}, {"time": 4338, "pitch": 76, "duration": 6, "velocity": 72}, {"time": 4344, "pitch": 76, "duration": 18, "velocity": 100}, {"time": 4362, "pitch": 78, "duration": 6, "velocity": 92}, {"time": 4368, "pitch": 81, "duration": 18, "velocity": 103}, {"time": 4386, "pitch": 80, "duration": 12, "velocity": 98}, {"time": 4398, "pitch": 78, "duration": 12, "velocity": 109}, {"time": 4410, "pitch": 76, "duration": 12, "velocity": 103}, {"time": 4422, "pitch": 76, "duration": 57, "velocity": 105}, {"time": 4482, "pitch": 80, "duration": 12, "velocity": 109}, {"time": 4494, "pitch": 78, "duration": 15, "velocity": 106}, {"time": 4509, "pitch": 76, "duration": 12, "velocity": 98}, {"time": 4518, "pitch": 73, "duration": 12, "velocity": 94}, {"time": 4530, "pitch": 78, "duration": 6, "velocity": 96}, {"time": 4536, "pitch": 78, "duration": 39, "velocity": 97}, {"time": 4578, "pitch": 80, "duration": 12, "velocity": 98}, {"time": 4590, "pitch": 78, "duration": 15, "velocity": 98}, {"time": 4605, "pitch": 76, "duration": 9, "velocity": 90}, {"time": 4614, "pitch": 71, "duration": 12, "velocity": 89}, {"time": 4626, "pitch": 78, "duration": 9, "velocity": 96}, {"time": 4632, "pitch": 78, "duration": 3, "velocity": 99}, {"time": 4650, "pitch": 80, "duration": 6, "velocity": 84}, {"time": 4656, "pitch": 76, "duration": 21, "velocity": 90}, {"time": 4674, "pitch": 80, "duration": 9, "velocity": 105}, {"time": 4686, "pitch": 78, "duration": 12, "velocity": 103}, {"time": 4698, "pitch": 76, "duration": 12, "velocity": 98}, {"time": 4710, "pitch": 73, "duration": 12, "velocity": 91}, {"time": 4722, "pitch": 78, "duration": 6, "velocity": 87}, {"time": 4728, "pitch": 78, "duration": 18, "velocity": 95}, {"time": 4746, "pitch": 76, "duration": 9, "velocity": 91}, {"time": 4752, "pitch": 81, "duration": 15, "velocity": 104}, {"time": 4770, "pitch": 80, "duration": 6, "velocity": 97}, {"time": 4776, "pitch": 78, "duration": 12, "velocity": 100}, {"time": 4788, "pitch": 76, "duration": 12, "velocity": 97}, {"time": 4800, "pitch": 71, "duration": 6, "velocity": 87}, {"time": 4806, "pitch": 81, "duration": 12, "velocity": 96}, {"time": 4818, "pitch": 80, "duration": 6, "velocity": 66}, {"time": 4824, "pitch": 80, "duration": 12, "velocity": 66}, {"time": 4836, "pitch": 81, "duration": 12, "velocity": 90}, {"time": 4848, "pitch": 80, "duration": 18, "velocity": 89}, {"time": 4866, "pitch": 80, "duration": 6, "velocity": 99}, {"time": 4872, "pitch": 81, "duration": 18, "velocity": 91}, {"time": 4890, "pitch": 80, "duration": 6, "velocity": 93}, {"time": 4896, "pitch": 85, "duration": 18, "velocity": 103}, {"time": 4914, "pitch": 80, "duration": 6, "velocity": 98}, {"time": 4920, "pitch": 80, "duration": 21, "velocity": 90}, {"time": 4941, "pitch": 78, "duration": 6, "velocity": 66}, {"time": 4947, "pitch": 78, "duration": 15, "velocity": 80}, {"time": 4962, "pitch": 78, "duration": 6, "velocity": 93}, {"time": 4968, "pitch": 80, "duration": 18, "velocity": 97}, {"time": 4986, "pitch": 78, "duration": 6, "velocity": 97}, {"time": 4992, "pitch": 83, "duration": 18, "velocity": 97}, {"time": 5010, "pitch": 78, "duration": 6, "velocity": 84}, {"time": 5016, "pitch": 78, "duration": 12, "velocity": 79}, {"time": 5034, "pitch": 75, "duration": 9, "velocity": 90}, {"time": 5040, "pitch": 78, "duration": 15, "velocity": 90}, {"time": 5055, "pitch": 76, "duration": 78, "velocity": 99}, {"time": 5130, "pitch": 71, "duration": 6, "velocity": 98}, {"time": 5136, "pitch": 68, "duration": 6, "velocity": 84}, {"time": 5142, "pitch": 69, "duration": 12, "velocity": 93}, {"time": 5154, "pitch": 76, "duration": 6, "velocity": 72}, {"time": 5160, "pitch": 76, "duration": 18, "velocity": 100}, {"time": 5178, "pitch": 78, "duration": 6, "velocity": 92}, {"time": 5184, "pitch": 81, "duration": 15, "velocity": 103}, {"time": 5199, "pitch": 80, "duration": 12, "velocity": 98}, {"time": 5211, "pitch": 78, "duration": 12, "velocity": 109}, {"time": 5223, "pitch": 76, "duration": 15, "velocity": 103}, {"time": 5238, "pitch": 76, "duration": 180, "velocity": 105}], "annotations": [{"time": 1539, "annotation": {"number": 64, "value": 127}, "group": "control_change"}, {"time": 1547, "annotation": {"number": 64, "value": 0}, "group": "control_change"}, {"time": 1562, "annotation": {"number": 64, "value": 127}, "group": "control_change"}, {"time": 1587, "annotation": {"number": 64, "value": 0}, "group": "control_change"}, {"time": 2232, "annotation": {"number": 64, "value": 127}, "group": "control_change"}, {"time": 2245, "annotation": {"number": 64, "value": 0}, "group": "control_change"}, {"time": 2260, "annotation": {"number": 64, "value": 127}, "group": "control_change"}, {"time": 2274, "annotation": {"number": 64, "value": 0}, "group": "control_change"}, {"time": 2602, "annotation": {"number": 64, "value": 127}, "group": "control_change"}, {"time": 2614, "annotation": {"number": 64, "value": 0}, "group": "control_change"}, {"time": 3341, "annotation": {"number": 64, "value": 127}, "group": "control_change"}, {"time": 4053, "annotation": {"number": 64, "value": 127}, "group": "control_change"}, {"time": 4062, "annotation": {"number": 64, "value": 0}, "group": "control_change"}, {"time": 4078, "annotation": {"number": 64, "value": 0}, "group": "control_change"}, {"time": 4093, "annotation": {"number": 64, "value": 127}, "group": "control_change"}, {"time": 4107, "annotation": {"number": 64, "value": 0}, "group": "control_change"}, {"time": 4426, "annotation": {"number": 64, "value": 127}, "group": "control_change"}, {"time": 4439, "annotation": {"number": 64, "value": 0}, "group": "control_change"}, {"time": 4821, "annotation": {"number": 64, "value": 127}, "group": "control_change"}, {"time": 4833, "annotation": {"number": 64, "value": 0}, "group": "control_change"}, {"time": 4848, "annotation": {"number": 64, "value": 127}, "group": "control_change"}, {"time": 4862, "annotation": {"number": 64, "value": 0}, "group": "control_change"}, {"time": 5238, "annotation": {"number": 64, "value": 127}, "group": "control_change"}, {"time": 5250, "annotation": {"number": 64, "value": 0}, "group": "control_change"}]}, {"program": 0, "is_drum": false, "name": "PIANO", "notes": [{"time": 390, "pitch": 40, "duration": 19, "velocity": 37}, {"time": 390, "pitch": 52, "duration": 47, "velocity": 49}, {"time": 390, "pitch": 59, "duration": 14, "velocity": 71}, {"time": 390, "pitch": 64, "duration": 13, "velocity": 71}, {"time": 390, "pitch": 68, "duration": 14, "velocity": 66}, {"time": 414, "pitch": 59, "duration": 11, "velocity": 75}, {"time": 414, "pitch": 64, "duration": 11, "velocity": 78}, {"time": 414, "pitch": 68, "duration": 10, "velocity": 72}, {"time": 438, "pitch": 50, "duration": 30, "velocity": 63}, {"time": 438, "pitch": 59, "duration": 21, "velocity": 63}, {"time": 438, "pitch": 62, "duration": 13, "velocity": 70}, {"time": 438, "pitch": 68, "duration": 12, "velocity": 68}, {"time": 462, "pitch": 62, "duration": 11, "velocity": 77}, {"time": 462, "pitch": 68, "duration": 11, "velocity": 73}, {"time": 465, "pitch": 59, "duration": 2, "velocity": 19}, {"time": 474, "pitch": 50, "duration": 13, "velocity": 61}, {"time": 486, "pitch": 49, "duration": 29, "velocity": 70}, {"time": 486, "pitch": 61, "duration": 14, "velocity": 65}, {"time": 486, "pitch": 64, "duration": 13, "velocity": 73}, {"time": 486, "pitch": 69, "duration": 15, "velocity": 52}, {"time": 510, "pitch": 61, "duration": 14, "velocity": 62}, {"time": 510, "pitch": 64, "duration": 14, "velocity": 67}, {"time": 510, "pitch": 69, "duration": 14, "velocity": 50}, {"time": 522, "pitch": 49, "duration": 13, "velocity": 49}, {"time": 534, "pitch": 48, "duration": 31, "velocity": 55}, {"time": 534, "pitch": 61, "duration": 15, "velocity": 46}, {"time": 534, "pitch": 64, "duration": 14, "velocity": 60}, {"time": 534, "pitch": 69, "duration": 16, "velocity": 44}, {"time": 558, "pitch": 61, "duration": 12, "velocity": 54}, {"time": 558, "pitch": 64, "duration": 12, "velocity": 64}, {"time": 558, "pitch": 69, "duration": 13, "velocity": 49}, {"time": 567, "pitch": 48, "duration": 13, "velocity": 35}, {"time": 582, "pitch": 52, "duration": 37, "velocity": 60}, {"time": 582, "pitch": 59, "duration": 16, "velocity": 56}, {"time": 582, "pitch": 64, "duration": 15, "velocity": 59}, {"time": 582, "pitch": 66, "duration": 14, "velocity": 55}, {"time": 582, "pitch": 68, "duration": 15, "velocity": 57}, {"time": 606, "pitch": 59, "duration": 12, "velocity": 50}, {"time": 606, "pitch": 64, "duration": 12, "velocity": 61}, {"time": 606, "pitch": 68, "duration": 12, "velocity": 54}, {"time": 618, "pitch": 51, "duration": 12, "velocity": 48}, {"time": 630, "pitch": 49, "duration": 34, "velocity": 65}, {"time": 630, "pitch": 59, "duration": 15, "velocity": 55}, {"time": 630, "pitch": 64, "duration": 15, "velocity": 61}, {"time": 630, "pitch": 68, "duration": 16, "velocity": 56}, {"time": 630, "pitch": 71, "duration": 15, "velocity": 54}, {"time": 654, "pitch": 59, "duration": 8, "velocity": 58}, {"time": 654, "pitch": 64, "duration": 8, "velocity": 74}, {"time": 654, "pitch": 68, "duration": 10, "velocity": 61}, {"time": 654, "pitch": 71, "duration": 2, "velocity": 35}, {"time": 678, "pitch": 42, "duration": 35, "velocity": 68}, {"time": 678, "pitch": 58, "duration": 12, "velocity": 59}, {"time": 678, "pitch": 61, "duration": 12, "velocity": 60}, {"time": 678, "pitch": 66, "duration": 12, "velocity": 62}, {"time": 690, "pitch": 54, "duration": 25, "velocity": 36}, {"time": 702, "pitch": 58, "duration": 10, "velocity": 49}, {"time": 702, "pitch": 61, "duration": 11, "velocity": 58}, {"time": 702, "pitch": 66, "duration": 9, "velocity": 51}, {"time": 726, "pitch": 47, "duration": 33, "velocity": 56}, {"time": 726, "pitch": 59, "duration": 10, "velocity": 55}, {"time": 726, "pitch": 64, "duration": 10, "velocity": 63}, {"time": 726, "pitch": 66, "duration": 7, "velocity": 63}, {"time": 738, "pitch": 54, "duration": 22, "velocity": 45}, {"time": 738, "pitch": 66, "duration": 9, "velocity": 65}, {"time": 750, "pitch": 59, "duration": 7, "velocity": 51}, {"time": 750, "pitch": 64, "duration": 1, "velocity": 74}, {"time": 750, "pitch": 68, "duration": 1, "velocity": 74}, {"time": 762, "pitch": 64, "duration": 1, "velocity": 64}, {"time": 762, "pitch": 69, "duration": 3, "velocity": 60}, {"time": 774, "pitch": 52, "duration": 37, "velocity": 62}, {"time": 774, "pitch": 59, "duration": 11, "velocity": 54}, {"time": 774, "pitch": 64, "duration": 11, "velocity": 61}, {"time": 774, "pitch": 68, "duration": 11, "velocity": 55}, {"time": 774, "pitch": 71, "duration": 11, "velocity": 52}, {"time": 783, "pitch": 56, "duration": 17, "velocity": 35}, {"time": 798, "pitch": 59, "duration": 12, "velocity": 54}, {"time": 798, "pitch": 64, "duration": 12, "velocity": 67}, {"time": 798, "pitch": 68, "duration": 12, "velocity": 64}, {"time": 798, "pitch": 71, "duration": 3, "velocity": 29}, {"time": 810, "pitch": 56, "duration": 2, "velocity": 46}, {"time": 822, "pitch": 52, "duration": 21, "velocity": 64}, {"time": 822, "pitch": 59, "duration": 15, "velocity": 58}, {"time": 822, "pitch": 62, "duration": 17, "velocity": 64}, {"time": 822, "pitch": 68, "duration": 14, "velocity": 71}, {"time": 846, "pitch": 50, "duration": 12, "velocity": 55}, {"time": 846, "pitch": 59, "duration": 10, "velocity": 61}, {"time": 846, "pitch": 62, "duration": 11, "velocity": 61}, {"time": 846, "pitch": 68, "duration": 10, "velocity": 69}, {"time": 870, "pitch": 49, "duration": 31, "velocity": 60}, {"time": 870, "pitch": 61, "duration": 15, "velocity": 71}, {"time": 870, "pitch": 64, "duration": 14, "velocity": 67}, {"time": 870, "pitch": 69, "duration": 15, "velocity": 49}, {"time": 894, "pitch": 61, "duration": 14, "velocity": 62}, {"time": 894, "pitch": 64, "duration": 13, "velocity": 63}, {"time": 894, "pitch": 69, "duration": 14, "velocity": 48}, {"time": 903, "pitch": 49, "duration": 7, "velocity": 41}, {"time": 918, "pitch": 45, "duration": 35, "velocity": 45}, {"time": 918, "pitch": 57, "duration": 35, "velocity": 47}, {"time": 918, "pitch": 60, "duration": 14, "velocity": 54}, {"time": 918, "pitch": 64, "duration": 13, "velocity": 69}, {"time": 918, "pitch": 69, "duration": 14, "velocity": 50}, {"time": 942, "pitch": 60, "duration": 11, "velocity": 48}, {"time": 942, "pitch": 64, "duration": 10, "velocity": 58}, {"time": 942, "pitch": 69, "duration": 12, "velocity": 47}, {"time": 966, "pitch": 40, "duration": 29, "velocity": 47}, {"time": 966, "pitch": 52, "duration": 37, "velocity": 48}, {"time": 966, "pitch": 59, "duration": 11, "velocity": 50}, {"time": 966, "pitch": 64, "duration": 12, "velocity": 52}, {"time": 966, "pitch": 66, "duration": 14, "velocity": 43}, {"time": 966, "pitch": 68, "duration": 13, "velocity": 47}, {"time": 990, "pitch": 59, "duration": 10, "velocity": 60}, {"time": 990, "pitch": 64, "duration": 11, "velocity": 64}, {"time": 990, "pitch": 66, "duration": 8, "velocity": 28}, {"time": 990, "pitch": 68, "duration": 11, "velocity": 56}, {"time": 1014, "pitch": 47, "duration": 34, "velocity": 67}, {"time": 1014, "pitch": 59, "duration": 14, "velocity": 44}, {"time": 1014, "pitch": 63, "duration": 12, "velocity": 80}, {"time": 1014, "pitch": 66, "duration": 13, "velocity": 81}, {"time": 1014, "pitch": 68, "duration": 1, "velocity": 19}, {"time": 1038, "pitch": 59, "duration": 9, "velocity": 54}, {"time": 1038, "pitch": 63, "duration": 8, "velocity": 59}, {"time": 1038, "pitch": 66, "duration": 9, "velocity": 67}, {"time": 1062, "pitch": 40, "duration": 79, "velocity": 53}, {"time": 1062, "pitch": 56, "duration": 13, "velocity": 63}, {"time": 1062, "pitch": 59, "duration": 12, "velocity": 63}, {"time": 1062, "pitch": 64, "duration": 12, "velocity": 57}, {"time": 1071, "pitch": 52, "duration": 14, "velocity": 39}, {"time": 1086, "pitch": 59, "duration": 6, "velocity": 57}, {"time": 1086, "pitch": 64, "duration": 7, "velocity": 69}, {"time": 1086, "pitch": 68, "duration": 6, "velocity": 62}, {"time": 1098, "pitch": 61, "duration": 2, "velocity": 68}, {"time": 1098, "pitch": 69, "duration": 3, "velocity": 63}, {"time": 1110, "pitch": 52, "duration": 34, "velocity": 44}, {"time": 1110, "pitch": 59, "duration": 15, "velocity": 51}, {"time": 1110, "pitch": 64, "duration": 16, "velocity": 55}, {"time": 1110, "pitch": 71, "duration": 17, "velocity": 48}, {"time": 1128, "pitch": 59, "duration": 8, "velocity": 57}, {"time": 1134, "pitch": 64, "duration": 5, "velocity": 55}, {"time": 1140, "pitch": 66, "duration": 6, "velocity": 59}, {"time": 1146, "pitch": 68, "duration": 1, "velocity": 30}, {"time": 1158, "pitch": 40, "duration": 36, "velocity": 37}, {"time": 1158, "pitch": 52, "duration": 29, "velocity": 59}, {"time": 1158, "pitch": 59, "duration": 17, "velocity": 69}, {"time": 1158, "pitch": 64, "duration": 16, "velocity": 75}, {"time": 1158, "pitch": 68, "duration": 16, "velocity": 73}, {"time": 1182, "pitch": 59, "duration": 14, "velocity": 59}, {"time": 1182, "pitch": 64, "duration": 13, "velocity": 64}, {"time": 1182, "pitch": 68, "duration": 13, "velocity": 61}, {"time": 1194, "pitch": 52, "duration": 13, "velocity": 54}, {"time": 1206, "pitch": 50, "duration": 31, "velocity": 73}, {"time": 1206, "pitch": 59, "duration": 16, "velocity": 60}, {"time": 1206, "pitch": 62, "duration": 16, "velocity": 72}, {"time": 1206, "pitch": 68, "duration": 16, "velocity": 67}, {"time": 1230, "pitch": 59, "duration": 12, "velocity": 63}, {"time": 1230, "pitch": 62, "duration": 11, "velocity": 75}, {"time": 1230, "pitch": 68, "duration": 12, "velocity": 69}, {"time": 1242, "pitch": 50, "duration": 15, "velocity": 69}, {"time": 1254, "pitch": 49, "duration": 32, "velocity": 72}, {"time": 1254, "pitch": 61, "duration": 17, "velocity": 63}, {"time": 1254, "pitch": 64, "duration": 15, "velocity": 63}, {"time": 1254, "pitch": 69, "duration": 14, "velocity": 67}, {"time": 1278, "pitch": 61, "duration": 14, "velocity": 66}, {"time": 1278, "pitch": 64, "duration": 14, "velocity": 75}, {"time": 1278, "pitch": 69, "duration": 14, "velocity": 70}, {"time": 1290, "pitch": 49, "duration": 12, "velocity": 61}, {"time": 1302, "pitch": 48, "duration": 31, "velocity": 69}, {"time": 1302, "pitch": 61, "duration": 17, "velocity": 62}, {"time": 1302, "pitch": 66, "duration": 17, "velocity": 63}, {"time": 1302, "pitch": 69, "duration": 17, "velocity": 38}, {"time": 1326, "pitch": 61, "duration": 13, "velocity": 58}, {"time": 1326, "pitch": 66, "duration": 13, "velocity": 70}, {"time": 1326, "pitch": 69, "duration": 13, "velocity": 56}, {"time": 1338, "pitch": 48, "duration": 5, "velocity": 69}, {"time": 1350, "pitch": 47, "duration": 31, "velocity": 70}, {"time": 1350, "pitch": 59, "duration": 14, "velocity": 72}, {"time": 1350, "pitch": 64, "duration": 13, "velocity": 69}, {"time": 1350, "pitch": 68, "duration": 13, "velocity": 70}, {"time": 1374, "pitch": 59, "duration": 13, "velocity": 64}, {"time": 1374, "pitch": 64, "duration": 12, "velocity": 66}, {"time": 1374, "pitch": 68, "duration": 13, "velocity": 67}, {"time": 1386, "pitch": 47, "duration": 12, "velocity": 62}, {"time": 1398, "pitch": 49, "duration": 32, "velocity": 72}, {"time": 1398, "pitch": 59, "duration": 12, "velocity": 64}, {"time": 1398, "pitch": 64, "duration": 14, "velocity": 70}, {"time": 1398, "pitch": 68, "duration": 13, "velocity": 67}, {"time": 1422, "pitch": 59, "duration": 13, "velocity": 67}, {"time": 1422, "pitch": 64, "duration": 14, "velocity": 67}, {"time": 1422, "pitch": 68, "duration": 14, "velocity": 73}, {"time": 1434, "pitch": 49, "duration": 9, "velocity": 55}, {"time": 1446, "pitch": 42, "duration": 37, "velocity": 73}, {"time": 1446, "pitch": 61, "duration": 15, "velocity": 72}, {"time": 1446, "pitch": 66, "duration": 14, "velocity": 73}, {"time": 1446, "pitch": 70, "duration": 13, "velocity": 70}, {"time": 1458, "pitch": 54, "duration": 16, "velocity": 30}, {"time": 1470, "pitch": 61, "duration": 13, "velocity": 63}, {"time": 1470, "pitch": 66, "duration": 14, "velocity": 67}, {"time": 1470, "pitch": 70, "duration": 11, "velocity": 64}, {"time": 1482, "pitch": 54, "duration": 11, "velocity": 46}, {"time": 1494, "pitch": 47, "duration": 45, "velocity": 49}, {"time": 1494, "pitch": 59, "duration": 12, "velocity": 63}, {"time": 1494, "pitch": 64, "duration": 12, "velocity": 64}, {"time": 1494, "pitch": 66, "duration": 6, "velocity": 54}, {"time": 1518, "pitch": 59, "duration": 10, "velocity": 58}, {"time": 1518, "pitch": 66, "duration": 11, "velocity": 70}, {"time": 1530, "pitch": 64, "duration": 8, "velocity": 70}, {"time": 1542, "pitch": 52, "duration": 33, "velocity": 64}, {"time": 1542, "pitch": 59, "duration": 11, "velocity": 63}, {"time": 1542, "pitch": 64, "duration": 11, "velocity": 67}, {"time": 1542, "pitch": 68, "duration": 12, "velocity": 66}, {"time": 1566, "pitch": 59, "duration": 14, "velocity": 64}, {"time": 1566, "pitch": 64, "duration": 13, "velocity": 67}, {"time": 1566, "pitch": 68, "duration": 12, "velocity": 63}, {"time": 1578, "pitch": 52, "duration": 15, "velocity": 69}, {"time": 1590, "pitch": 50, "duration": 31, "velocity": 72}, {"time": 1590, "pitch": 59, "duration": 20, "velocity": 70}, {"time": 1590, "pitch": 62, "duration": 20, "velocity": 75}, {"time": 1590, "pitch": 68, "duration": 19, "velocity": 76}, {"time": 1614, "pitch": 59, "duration": 12, "velocity": 91}, {"time": 1614, "pitch": 62, "duration": 13, "velocity": 99}, {"time": 1614, "pitch": 68, "duration": 13, "velocity": 78}, {"time": 1626, "pitch": 50, "duration": 5, "velocity": 67}, {"time": 1638, "pitch": 45, "duration": 31, "velocity": 72}, {"time": 1638, "pitch": 61, "duration": 14, "velocity": 70}, {"time": 1638, "pitch": 64, "duration": 13, "velocity": 76}, {"time": 1638, "pitch": 69, "duration": 15, "velocity": 73}, {"time": 1647, "pitch": 57, "duration": 20, "velocity": 44}, {"time": 1662, "pitch": 61, "duration": 16, "velocity": 80}, {"time": 1662, "pitch": 64, "duration": 15, "velocity": 95}, {"time": 1662, "pitch": 69, "duration": 16, "velocity": 85}, {"time": 1674, "pitch": 45, "duration": 4, "velocity": 76}, {"time": 1674, "pitch": 57, "duration": 3, "velocity": 64}, {"time": 1686, "pitch": 45, "duration": 38, "velocity": 67}, {"time": 1686, "pitch": 57, "duration": 31, "velocity": 64}, {"time": 1686, "pitch": 60, "duration": 16, "velocity": 63}, {"time": 1686, "pitch": 64, "duration": 14, "velocity": 72}, {"time": 1686, "pitch": 69, "duration": 18, "velocity": 63}, {"time": 1710, "pitch": 60, "duration": 14, "velocity": 70}, {"time": 1710, "pitch": 64, "duration": 12, "velocity": 76}, {"time": 1710, "pitch": 69, "duration": 15, "velocity": 70}, {"time": 1722, "pitch": 57, "duration": 4, "velocity": 75}, {"time": 1734, "pitch": 47, "duration": 32, "velocity": 67}, {"time": 1734, "pitch": 59, "duration": 14, "velocity": 62}, {"time": 1734, "pitch": 63, "duration": 14, "velocity": 67}, {"time": 1734, "pitch": 66, "duration": 15, "velocity": 64}, {"time": 1734, "pitch": 71, "duration": 15, "velocity": 62}, {"time": 1758, "pitch": 59, "duration": 12, "velocity": 55}, {"time": 1758, "pitch": 63, "duration": 12, "velocity": 62}, {"time": 1758, "pitch": 66, "duration": 12, "velocity": 64}, {"time": 1758, "pitch": 71, "duration": 10, "velocity": 30}, {"time": 1770, "pitch": 47, "duration": 3, "velocity": 61}, {"time": 1782, "pitch": 47, "duration": 38, "velocity": 69}, {"time": 1782, "pitch": 61, "duration": 15, "velocity": 66}, {"time": 1782, "pitch": 64, "duration": 14, "velocity": 70}, {"time": 1782, "pitch": 69, "duration": 17, "velocity": 70}, {"time": 1806, "pitch": 59, "duration": 10, "velocity": 47}, {"time": 1806, "pitch": 64, "duration": 9, "velocity": 61}, {"time": 1806, "pitch": 69, "duration": 10, "velocity": 75}, {"time": 1818, "pitch": 66, "duration": 9, "velocity": 69}, {"time": 1830, "pitch": 40, "duration": 13, "velocity": 70}, {"time": 1830, "pitch": 59, "duration": 17, "velocity": 72}, {"time": 1830, "pitch": 64, "duration": 22, "velocity": 73}, {"time": 1830, "pitch": 68, "duration": 23, "velocity": 76}, {"time": 1842, "pitch": 52, "duration": 14, "velocity": 47}, {"time": 1854, "pitch": 54, "duration": 60, "velocity": 66}, {"time": 1854, "pitch": 59, "duration": 8, "velocity": 66}, {"time": 1854, "pitch": 66, "duration": 11, "velocity": 67}, {"time": 1866, "pitch": 56, "duration": 13, "velocity": 60}, {"time": 1866, "pitch": 59, "duration": 6, "velocity": 63}, {"time": 1866, "pitch": 68, "duration": 10, "velocity": 69}, {"time": 1878, "pitch": 59, "duration": 7, "velocity": 70}, {"time": 1878, "pitch": 64, "duration": 8, "velocity": 53}, {"time": 1878, "pitch": 71, "duration": 9, "velocity": 64}, {"time": 1890, "pitch": 59, "duration": 6, "velocity": 61}, {"time": 1890, "pitch": 69, "duration": 4, "velocity": 99}, {"time": 1902, "pitch": 59, "duration": 6, "velocity": 82}, {"time": 1902, "pitch": 68, "duration": 9, "velocity": 88}, {"time": 1914, "pitch": 59, "duration": 2, "velocity": 80}, {"time": 1914, "pitch": 66, "duration": 3, "velocity": 95}, {"time": 1926, "pitch": 45, "duration": 40, "velocity": 76}, {"time": 1926, "pitch": 61, "duration": 13, "velocity": 75}, {"time": 1926, "pitch": 64, "duration": 13, "velocity": 80}, {"time": 1926, "pitch": 69, "duration": 13, "velocity": 76}, {"time": 1932, "pitch": 52, "duration": 31, "velocity": 60}, {"time": 1938, "pitch": 57, "duration": 19, "velocity": 75}, {"time": 1944, "pitch": 61, "duration": 9, "velocity": 67}, {"time": 1956, "pitch": 61, "duration": 7, "velocity": 75}, {"time": 1956, "pitch": 64, "duration": 8, "velocity": 80}, {"time": 1956, "pitch": 69, "duration": 7, "velocity": 80}, {"time": 1962, "pitch": 57, "duration": 8, "velocity": 63}, {"time": 1968, "pitch": 52, "duration": 7, "velocity": 66}, {"time": 1974, "pitch": 45, "duration": 39, "velocity": 69}, {"time": 1974, "pitch": 63, "duration": 12, "velocity": 75}, {"time": 1974, "pitch": 66, "duration": 12, "velocity": 73}, {"time": 1974, "pitch": 71, "duration": 11, "velocity": 72}, {"time": 1980, "pitch": 52, "duration": 33, "velocity": 66}, {"time": 1986, "pitch": 57, "duration": 15, "velocity": 69}, {"time": 1992, "pitch": 63, "duration": 14, "velocity": 58}, {"time": 1998, "pitch": 66, "duration": 10, "velocity": 76}, {"time": 2004, "pitch": 57, "duration": 7, "velocity": 60}, {"time": 2010, "pitch": 66, "duration": 6, "velocity": 73}, {"time": 2016, "pitch": 71, "duration": 5, "velocity": 70}, {"time": 2022, "pitch": 44, "duration": 36, "velocity": 75}, {"time": 2022, "pitch": 59, "duration": 8, "velocity": 69}, {"time": 2022, "pitch": 63, "duration": 9, "velocity": 69}, {"time": 2022, "pitch": 66, "duration": 9, "velocity": 72}, {"time": 2028, "pitch": 56, "duration": 27, "velocity": 47}, {"time": 2034, "pitch": 59, "duration": 5, "velocity": 59}, {"time": 2040, "pitch": 59, "duration": 3, "velocity": 41}, {"time": 2040, "pitch": 63, "duration": 11, "velocity": 67}, {"time": 2052, "pitch": 59, "duration": 7, "velocity": 69}, {"time": 2052, "pitch": 63, "duration": 4, "velocity": 56}, {"time": 2052, "pitch": 66, "duration": 9, "velocity": 78}, {"time": 2058, "pitch": 56, "duration": 4, "velocity": 72}, {"time": 2070, "pitch": 49, "duration": 38, "velocity": 73}, {"time": 2070, "pitch": 64, "duration": 10, "velocity": 75}, {"time": 2070, "pitch": 68, "duration": 10, "velocity": 70}, {"time": 2076, "pitch": 56, "duration": 24, "velocity": 46}, {"time": 2082, "pitch": 63, "duration": 4, "velocity": 75}, {"time": 2082, "pitch": 66, "duration": 5, "velocity": 73}, {"time": 2088, "pitch": 64, "duration": 2, "velocity": 93}, {"time": 2088, "pitch": 68, "duration": 4, "velocity": 82}, {"time": 2094, "pitch": 61, "duration": 8, "velocity": 82}, {"time": 2100, "pitch": 64, "duration": 8, "velocity": 99}, {"time": 2100, "pitch": 71, "duration": 7, "velocity": 82}, {"time": 2106, "pitch": 56, "duration": 2, "velocity": 70}, {"time": 2112, "pitch": 66, "duration": 4, "velocity": 49}, {"time": 2115, "pitch": 68, "duration": 3, "velocity": 66}, {"time": 2118, "pitch": 42, "duration": 10, "velocity": 73}, {"time": 2118, "pitch": 61, "duration": 25, "velocity": 62}, {"time": 2118, "pitch": 64, "duration": 25, "velocity": 80}, {"time": 2118, "pitch": 69, "duration": 25, "velocity": 73}, {"time": 2124, "pitch": 49, "duration": 6, "velocity": 69}, {"time": 2130, "pitch": 54, "duration": 7, "velocity": 64}, {"time": 2136, "pitch": 56, "duration": 17, "velocity": 61}, {"time": 2142, "pitch": 57, "duration": 11, "velocity": 72}, {"time": 2148, "pitch": 61, "duration": 4, "velocity": 93}, {"time": 2154, "pitch": 64, "duration": 6, "velocity": 91}, {"time": 2160, "pitch": 71, "duration": 5, "velocity": 75}, {"time": 2166, "pitch": 47, "duration": 10, "velocity": 78}, {"time": 2166, "pitch": 59, "duration": 9, "velocity": 78}, {"time": 2166, "pitch": 66, "duration": 11, "velocity": 70}, {"time": 2166, "pitch": 68, "duration": 1, "velocity": 48}, {"time": 2166, "pitch": 71, "duration": 7, "velocity": 60}, {"time": 2172, "pitch": 52, "duration": 34, "velocity": 67}, {"time": 2178, "pitch": 47, "duration": 27, "velocity": 27}, {"time": 2178, "pitch": 54, "duration": 19, "velocity": 62}, {"time": 2178, "pitch": 64, "duration": 6, "velocity": 88}, {"time": 2184, "pitch": 63, "duration": 8, "velocity": 82}, {"time": 2184, "pitch": 66, "duration": 9, "velocity": 80}, {"time": 2190, "pitch": 59, "duration": 10, "velocity": 73}, {"time": 2196, "pitch": 64, "duration": 5, "velocity": 93}, {"time": 2196, "pitch": 68, "duration": 4, "velocity": 93}, {"time": 2202, "pitch": 54, "duration": 3, "velocity": 67}, {"time": 2208, "pitch": 64, "duration": 3, "velocity": 69}, {"time": 2208, "pitch": 69, "duration": 4, "velocity": 99}, {"time": 2214, "pitch": 40, "duration": 10, "velocity": 72}, {"time": 2214, "pitch": 64, "duration": 22, "velocity": 88}, {"time": 2214, "pitch": 68, "duration": 22, "velocity": 78}, {"time": 2220, "pitch": 47, "duration": 6, "velocity": 69}, {"time": 2226, "pitch": 52, "duration": 8, "velocity": 66}, {"time": 2232, "pitch": 54, "duration": 11, "velocity": 58}, {"time": 2238, "pitch": 56, "duration": 4, "velocity": 70}, {"time": 2244, "pitch": 59, "duration": 4, "velocity": 93}, {"time": 2250, "pitch": 64, "duration": 5, "velocity": 76}, {"time": 2256, "pitch": 66, "duration": 3, "velocity": 75}, {"time": 2262, "pitch": 40, "duration": 34, "velocity": 72}, {"time": 2262, "pitch": 59, "duration": 11, "velocity": 91}, {"time": 2262, "pitch": 62, "duration": 13, "velocity": 103}, {"time": 2262, "pitch": 68, "duration": 12, "velocity": 88}, {"time": 2268, "pitch": 47, "duration": 28, "velocity": 53}, {"time": 2274, "pitch": 52, "duration": 22, "velocity": 93}, {"time": 2280, "pitch": 59, "duration": 4, "velocity": 78}, {"time": 2286, "pitch": 59, "duration": 4, "velocity": 78}, {"time": 2286, "pitch": 62, "duration": 9, "velocity": 101}, {"time": 2286, "pitch": 68, "duration": 9, "velocity": 82}, {"time": 2298, "pitch": 44, "duration": 3, "velocity": 72}, {"time": 2298, "pitch": 59, "duration": 4, "velocity": 95}, {"time": 2298, "pitch": 64, "duration": 4, "velocity": 95}, {"time": 2298, "pitch": 68, "duration": 1, "velocity": 60}, {"time": 2310, "pitch": 45, "duration": 40, "velocity": 80}, {"time": 2310, "pitch": 61, "duration": 13, "velocity": 91}, {"time": 2310, "pitch": 64, "duration": 14, "velocity": 95}, {"time": 2310, "pitch": 68, "duration": 12, "velocity": 80}, {"time": 2316, "pitch": 52, "duration": 34, "velocity": 70}, {"time": 2322, "pitch": 57, "duration": 15, "velocity": 88}, {"time": 2328, "pitch": 61, "duration": 4, "velocity": 85}, {"time": 2334, "pitch": 61, "duration": 7, "velocity": 93}, {"time": 2334, "pitch": 64, "duration": 9, "velocity": 99}, {"time": 2334, "pitch": 68, "duration": 8, "velocity": 75}, {"time": 2340, "pitch": 57, "duration": 9, "velocity": 76}, {"time": 2346, "pitch": 61, "duration": 5, "velocity": 78}, {"time": 2352, "pitch": 64, "duration": 4, "velocity": 66}, {"time": 2358, "pitch": 45, "duration": 39, "velocity": 75}, {"time": 2358, "pitch": 59, "duration": 12, "velocity": 73}, {"time": 2358, "pitch": 63, "duration": 12, "velocity": 76}, {"time": 2358, "pitch": 66, "duration": 13, "velocity": 75}, {"time": 2364, "pitch": 52, "duration": 33, "velocity": 62}, {"time": 2370, "pitch": 57, "duration": 18, "velocity": 63}, {"time": 2376, "pitch": 59, "duration": 4, "velocity": 88}, {"time": 2382, "pitch": 63, "duration": 4, "velocity": 61}, {"time": 2388, "pitch": 59, "duration": 8, "velocity": 93}, {"time": 2388, "pitch": 66, "duration": 10, "velocity": 85}, {"time": 2394, "pitch": 57, "duration": 4, "velocity": 85}, {"time": 2400, "pitch": 59, "duration": 3, "velocity": 58}, {"time": 2406, "pitch": 44, "duration": 31, "velocity": 78}, {"time": 2406, "pitch": 59, "duration": 8, "velocity": 88}, {"time": 2406, "pitch": 63, "duration": 8, "velocity": 82}, {"time": 2406, "pitch": 66, "duration": 8, "velocity": 80}, {"time": 2406, "pitch": 71, "duration": 7, "velocity": 80}, {"time": 2412, "pitch": 56, "duration": 15, "velocity": 63}, {"time": 2418, "pitch": 59, "duration": 4, "velocity": 64}, {"time": 2424, "pitch": 59, "duration": 9, "velocity": 91}, {"time": 2424, "pitch": 63, "duration": 9, "velocity": 80}, {"time": 2424, "pitch": 66, "duration": 11, "velocity": 78}, {"time": 2436, "pitch": 56, "duration": 6, "velocity": 63}, {"time": 2442, "pitch": 59, "duration": 4, "velocity": 73}, {"time": 2442, "pitch": 66, "duration": 7, "velocity": 85}, {"time": 2448, "pitch": 71, "duration": 4, "velocity": 70}, {"time": 2454, "pitch": 49, "duration": 36, "velocity": 70}, {"time": 2454, "pitch": 64, "duration": 10, "velocity": 88}, {"time": 2454, "pitch": 68, "duration": 11, "velocity": 82}, {"time": 2460, "pitch": 56, "duration": 29, "velocity": 64}, {"time": 2466, "pitch": 63, "duration": 4, "velocity": 69}, {"time": 2466, "pitch": 66, "duration": 5, "velocity": 76}, {"time": 2472, "pitch": 64, "duration": 9, "velocity": 88}, {"time": 2472, "pitch": 68, "duration": 10, "velocity": 85}, {"time": 2478, "pitch": 61, "duration": 8, "velocity": 69}, {"time": 2484, "pitch": 63, "duration": 6, "velocity": 76}, {"time": 2484, "pitch": 66, "duration": 6, "velocity": 82}, {"time": 2490, "pitch": 64, "duration": 3, "velocity": 75}, {"time": 2490, "pitch": 68, "duration": 3, "velocity": 75}, {"time": 2502, "pitch": 42, "duration": 37, "velocity": 70}, {"time": 2502, "pitch": 61, "duration": 8, "velocity": 73}, {"time": 2502, "pitch": 64, "duration": 8, "velocity": 88}, {"time": 2502, "pitch": 69, "duration": 8, "velocity": 78}, {"time": 2508, "pitch": 49, "duration": 33, "velocity": 64}, {"time": 2514, "pitch": 54, "duration": 34, "velocity": 72}, {"time": 2520, "pitch": 56, "duration": 10, "velocity": 62}, {"time": 2526, "pitch": 57, "duration": 6, "velocity": 80}, {"time": 2532, "pitch": 61, "duration": 6, "velocity": 59}, {"time": 2538, "pitch": 64, "duration": 10, "velocity": 70}, {"time": 2544, "pitch": 59, "duration": 4, "velocity": 61}, {"time": 2550, "pitch": 47, "duration": 32, "velocity": 64}, {"time": 2550, "pitch": 59, "duration": 3, "velocity": 58}, {"time": 2550, "pitch": 63, "duration": 16, "velocity": 75}, {"time": 2556, "pitch": 51, "duration": 2, "velocity": 57}, {"time": 2562, "pitch": 52, "duration": 24, "velocity": 72}, {"time": 2568, "pitch": 54, "duration": 17, "velocity": 57}, {"time": 2574, "pitch": 59, "duration": 10, "velocity": 76}, {"time": 2580, "pitch": 64, "duration": 5, "velocity": 85}, {"time": 2586, "pitch": 66, "duration": 5, "velocity": 62}, {"time": 2592, "pitch": 68, "duration": 4, "velocity": 76}, {"time": 2598, "pitch": 52, "duration": 37, "velocity": 73}, {"time": 2598, "pitch": 68, "duration": 12, "velocity": 62}, {"time": 2598, "pitch": 71, "duration": 11, "velocity": 67}, {"time": 2598, "pitch": 76, "duration": 14, "velocity": 70}, {"time": 2604, "pitch": 59, "duration": 40, "velocity": 58}, {"time": 2610, "pitch": 64, "duration": 9, "velocity": 56}, {"time": 2616, "pitch": 66, "duration": 14, "velocity": 76}, {"time": 2616, "pitch": 71, "duration": 15, "velocity": 70}, {"time": 2628, "pitch": 64, "duration": 10, "velocity": 53}, {"time": 2634, "pitch": 66, "duration": 8, "velocity": 59}, {"time": 2640, "pitch": 71, "duration": 18, "velocity": 70}, {"time": 2646, "pitch": 52, "duration": 38, "velocity": 72}, {"time": 2646, "pitch": 66, "duration": 13, "velocity": 63}, {"time": 2646, "pitch": 68, "duration": 14, "velocity": 66}, {"time": 2652, "pitch": 59, "duration": 24, "velocity": 70}, {"time": 2658, "pitch": 64, "duration": 20, "velocity": 70}, {"time": 2664, "pitch": 66, "duration": 9, "velocity": 64}, {"time": 2670, "pitch": 68, "duration": 7, "velocity": 76}, {"time": 2676, "pitch": 71, "duration": 10, "velocity": 63}, {"time": 2682, "pitch": 59, "duration": 3, "velocity": 73}, {"time": 2688, "pitch": 66, "duration": 11, "velocity": 72}, {"time": 2694, "pitch": 48, "duration": 39, "velocity": 76}, {"time": 2700, "pitch": 60, "duration": 16, "velocity": 85}, {"time": 2706, "pitch": 64, "duration": 18, "velocity": 66}, {"time": 2712, "pitch": 67, "duration": 13, "velocity": 69}, {"time": 2718, "pitch": 72, "duration": 9, "velocity": 57}, {"time": 2724, "pitch": 60, "duration": 15, "velocity": 66}, {"time": 2730, "pitch": 64, "duration": 18, "velocity": 58}, {"time": 2736, "pitch": 72, "duration": 14, "velocity": 61}, {"time": 2742, "pitch": 48, "duration": 36, "velocity": 73}, {"time": 2748, "pitch": 60, "duration": 15, "velocity": 80}, {"time": 2754, "pitch": 64, "duration": 14, "velocity": 76}, {"time": 2760, "pitch": 72, "duration": 9, "velocity": 95}, {"time": 2766, "pitch": 60, "duration": 12, "velocity": 63}, {"time": 2772, "pitch": 64, "duration": 8, "velocity": 70}, {"time": 2778, "pitch": 67, "duration": 6, "velocity": 78}, {"time": 2784, "pitch": 69, "duration": 6, "velocity": 70}, {"time": 2790, "pitch": 52, "duration": 36, "velocity": 69}, {"time": 2790, "pitch": 71, "duration": 17, "velocity": 75}, {"time": 2796, "pitch": 59, "duration": 34, "velocity": 62}, {"time": 2802, "pitch": 64, "duration": 12, "velocity": 75}, {"time": 2808, "pitch": 66, "duration": 8, "velocity": 67}, {"time": 2814, "pitch": 68, "duration": 8, "velocity": 70}, {"time": 2820, "pitch": 64, "duration": 8, "velocity": 63}, {"time": 2826, "pitch": 66, "duration": 8, "velocity": 64}, {"time": 2832, "pitch": 71, "duration": 9, "velocity": 61}, {"time": 2838, "pitch": 49, "duration": 35, "velocity": 72}, {"time": 2838, "pitch": 63, "duration": 2, "velocity": 60}, {"time": 2838, "pitch": 64, "duration": 14, "velocity": 47}, {"time": 2838, "pitch": 68, "duration": 14, "velocity": 66}, {"time": 2844, "pitch": 56, "duration": 29, "velocity": 39}, {"time": 2850, "pitch": 61, "duration": 14, "velocity": 66}, {"time": 2856, "pitch": 63, "duration": 4, "velocity": 66}, {"time": 2856, "pitch": 66, "duration": 5, "velocity": 62}, {"time": 2862, "pitch": 64, "duration": 7, "velocity": 72}, {"time": 2862, "pitch": 68, "duration": 8, "velocity": 76}, {"time": 2868, "pitch": 61, "duration": 4, "velocity": 57}, {"time": 2874, "pitch": 64, "duration": 5, "velocity": 85}, {"time": 2880, "pitch": 66, "duration": 4, "velocity": 58}, {"time": 2886, "pitch": 42, "duration": 38, "velocity": 78}, {"time": 2886, "pitch": 61, "duration": 6, "velocity": 57}, {"time": 2886, "pitch": 64, "duration": 10, "velocity": 75}, {"time": 2892, "pitch": 54, "duration": 19, "velocity": 76}, {"time": 2898, "pitch": 61, "duration": 10, "velocity": 59}, {"time": 2904, "pitch": 66, "duration": 13, "velocity": 72}, {"time": 2910, "pitch": 61, "duration": 2, "velocity": 31}, {"time": 2910, "pitch": 70, "duration": 6, "velocity": 56}, {"time": 2916, "pitch": 54, "duration": 10, "velocity": 51}, {"time": 2922, "pitch": 61, "duration": 10, "velocity": 61}, {"time": 2922, "pitch": 70, "duration": 2, "velocity": 53}, {"time": 2928, "pitch": 44, "duration": 6, "velocity": 60}, {"time": 2934, "pitch": 45, "duration": 15, "velocity": 67}, {"time": 2934, "pitch": 61, "duration": 16, "velocity": 73}, {"time": 2934, "pitch": 64, "duration": 16, "velocity": 73}, {"time": 2934, "pitch": 69, "duration": 15, "velocity": 82}, {"time": 2958, "pitch": 47, "duration": 15, "velocity": 63}, {"time": 2958, "pitch": 59, "duration": 14, "velocity": 62}, {"time": 2958, "pitch": 61, "duration": 14, "velocity": 64}, {"time": 2958, "pitch": 64, "duration": 14, "velocity": 73}, {"time": 2958, "pitch": 69, "duration": 14, "velocity": 66}, {"time": 2982, "pitch": 40, "duration": 36, "velocity": 37}, {"time": 2982, "pitch": 52, "duration": 29, "velocity": 59}, {"time": 2982, "pitch": 59, "duration": 17, "velocity": 69}, {"time": 2982, "pitch": 64, "duration": 16, "velocity": 75}, {"time": 2982, "pitch": 68, "duration": 16, "velocity": 73}, {"time": 3006, "pitch": 59, "duration": 14, "velocity": 59}, {"time": 3006, "pitch": 64, "duration": 13, "velocity": 64}, {"time": 3006, "pitch": 68, "duration": 13, "velocity": 61}, {"time": 3018, "pitch": 52, "duration": 13, "velocity": 54}, {"time": 3030, "pitch": 50, "duration": 31, "velocity": 73}, {"time": 3030, "pitch": 59, "duration": 16, "velocity": 60}, {"time": 3030, "pitch": 62, "duration": 16, "velocity": 72}, {"time": 3030, "pitch": 68, "duration": 16, "velocity": 67}, {"time": 3054, "pitch": 59, "duration": 12, "velocity": 63}, {"time": 3054, "pitch": 62, "duration": 11, "velocity": 75}, {"time": 3054, "pitch": 68, "duration": 12, "velocity": 69}, {"time": 3066, "pitch": 50, "duration": 15, "velocity": 69}, {"time": 3078, "pitch": 49, "duration": 32, "velocity": 72}, {"time": 3078, "pitch": 61, "duration": 17, "velocity": 63}, {"time": 3078, "pitch": 64, "duration": 15, "velocity": 63}, {"time": 3078, "pitch": 69, "duration": 14, "velocity": 67}, {"time": 3102, "pitch": 61, "duration": 14, "velocity": 66}, {"time": 3102, "pitch": 64, "duration": 14, "velocity": 75}, {"time": 3102, "pitch": 69, "duration": 14, "velocity": 70}, {"time": 3114, "pitch": 49, "duration": 12, "velocity": 61}, {"time": 3126, "pitch": 48, "duration": 31, "velocity": 69}, {"time": 3126, "pitch": 61, "duration": 17, "velocity": 62}, {"time": 3126, "pitch": 66, "duration": 17, "velocity": 63}, {"time": 3126, "pitch": 69, "duration": 17, "velocity": 38}, {"time": 3150, "pitch": 61, "duration": 13, "velocity": 58}, {"time": 3150, "pitch": 66, "duration": 13, "velocity": 70}, {"time": 3150, "pitch": 69, "duration": 13, "velocity": 56}, {"time": 3162, "pitch": 48, "duration": 5, "velocity": 69}, {"time": 3174, "pitch": 47, "duration": 31, "velocity": 70}, {"time": 3174, "pitch": 59, "duration": 14, "velocity": 72}, {"time": 3174, "pitch": 64, "duration": 13, "velocity": 69}, {"time": 3174, "pitch": 68, "duration": 13, "velocity": 70}, {"time": 3198, "pitch": 59, "duration": 13, "velocity": 64}, {"time": 3198, "pitch": 64, "duration": 12, "velocity": 66}, {"time": 3198, "pitch": 68, "duration": 13, "velocity": 67}, {"time": 3210, "pitch": 47, "duration": 12, "velocity": 62}, {"time": 3222, "pitch": 49, "duration": 32, "velocity": 72}, {"time": 3222, "pitch": 59, "duration": 12, "velocity": 64}, {"time": 3222, "pitch": 64, "duration": 14, "velocity": 70}, {"time": 3222, "pitch": 68, "duration": 13, "velocity": 67}, {"time": 3246, "pitch": 59, "duration": 13, "velocity": 67}, {"time": 3246, "pitch": 64, "duration": 14, "velocity": 67}, {"time": 3246, "pitch": 68, "duration": 14, "velocity": 73}, {"time": 3258, "pitch": 49, "duration": 9, "velocity": 55}, {"time": 3270, "pitch": 42, "duration": 37, "velocity": 73}, {"time": 3270, "pitch": 61, "duration": 15, "velocity": 72}, {"time": 3270, "pitch": 66, "duration": 14, "velocity": 73}, {"time": 3270, "pitch": 70, "duration": 13, "velocity": 70}, {"time": 3282, "pitch": 54, "duration": 16, "velocity": 30}, {"time": 3294, "pitch": 61, "duration": 13, "velocity": 63}, {"time": 3294, "pitch": 66, "duration": 14, "velocity": 67}, {"time": 3294, "pitch": 70, "duration": 11, "velocity": 64}, {"time": 3306, "pitch": 54, "duration": 11, "velocity": 46}, {"time": 3318, "pitch": 47, "duration": 45, "velocity": 49}, {"time": 3318, "pitch": 59, "duration": 12, "velocity": 63}, {"time": 3318, "pitch": 64, "duration": 12, "velocity": 64}, {"time": 3318, "pitch": 66, "duration": 6, "velocity": 54}, {"time": 3342, "pitch": 59, "duration": 10, "velocity": 58}, {"time": 3342, "pitch": 66, "duration": 11, "velocity": 70}, {"time": 3354, "pitch": 64, "duration": 8, "velocity": 70}, {"time": 3366, "pitch": 52, "duration": 33, "velocity": 64}, {"time": 3366, "pitch": 59, "duration": 11, "velocity": 63}, {"time": 3366, "pitch": 64, "duration": 11, "velocity": 67}, {"time": 3366, "pitch": 68, "duration": 12, "velocity": 66}, {"time": 3390, "pitch": 59, "duration": 14, "velocity": 64}, {"time": 3390, "pitch": 64, "duration": 13, "velocity": 67}, {"time": 3390, "pitch": 68, "duration": 12, "velocity": 63}, {"time": 3402, "pitch": 52, "duration": 15, "velocity": 69}, {"time": 3414, "pitch": 50, "duration": 31, "velocity": 72}, {"time": 3414, "pitch": 59, "duration": 20, "velocity": 70}, {"time": 3414, "pitch": 62, "duration": 20, "velocity": 75}, {"time": 3414, "pitch": 68, "duration": 19, "velocity": 76}, {"time": 3438, "pitch": 59, "duration": 12, "velocity": 91}, {"time": 3438, "pitch": 62, "duration": 13, "velocity": 99}, {"time": 3438, "pitch": 68, "duration": 13, "velocity": 78}, {"time": 3450, "pitch": 50, "duration": 5, "velocity": 67}, {"time": 3462, "pitch": 45, "duration": 31, "velocity": 72}, {"time": 3462, "pitch": 61, "duration": 14, "velocity": 70}, {"time": 3462, "pitch": 64, "duration": 13, "velocity": 76}, {"time": 3462, "pitch": 69, "duration": 15, "velocity": 73}, {"time": 3471, "pitch": 57, "duration": 20, "velocity": 44}, {"time": 3486, "pitch": 61, "duration": 16, "velocity": 80}, {"time": 3486, "pitch": 64, "duration": 15, "velocity": 95}, {"time": 3486, "pitch": 69, "duration": 16, "velocity": 85}, {"time": 3498, "pitch": 45, "duration": 4, "velocity": 76}, {"time": 3498, "pitch": 57, "duration": 3, "velocity": 64}, {"time": 3510, "pitch": 45, "duration": 38, "velocity": 67}, {"time": 3510, "pitch": 57, "duration": 31, "velocity": 64}, {"time": 3510, "pitch": 60, "duration": 16, "velocity": 63}, {"time": 3510, "pitch": 64, "duration": 14, "velocity": 72}, {"time": 3510, "pitch": 69, "duration": 18, "velocity": 63}, {"time": 3534, "pitch": 60, "duration": 14, "velocity": 70}, {"time": 3534, "pitch": 64, "duration": 12, "velocity": 76}, {"time": 3534, "pitch": 69, "duration": 15, "velocity": 70}, {"time": 3546, "pitch": 57, "duration": 4, "velocity": 75}, {"time": 3558, "pitch": 47, "duration": 32, "velocity": 67}, {"time": 3558, "pitch": 59, "duration": 14, "velocity": 62}, {"time": 3558, "pitch": 63, "duration": 14, "velocity": 67}, {"time": 3558, "pitch": 66, "duration": 15, "velocity": 64}, {"time": 3558, "pitch": 71, "duration": 15, "velocity": 62}, {"time": 3582, "pitch": 59, "duration": 12, "velocity": 55}, {"time": 3582, "pitch": 63, "duration": 12, "velocity": 62}, {"time": 3582, "pitch": 66, "duration": 12, "velocity": 64}, {"time": 3582, "pitch": 71, "duration": 10, "velocity": 30}, {"time": 3594, "pitch": 47, "duration": 3, "velocity": 61}, {"time": 3606, "pitch": 47, "duration": 38, "velocity": 69}, {"time": 3606, "pitch": 61, "duration": 15, "velocity": 66}, {"time": 3606, "pitch": 64, "duration": 14, "velocity": 70}, {"time": 3606, "pitch": 69, "duration": 17, "velocity": 70}, {"time": 3630, "pitch": 59, "duration": 10, "velocity": 47}, {"time": 3630, "pitch": 64, "duration": 9, "velocity": 61}, {"time": 3630, "pitch": 69, "duration": 10, "velocity": 75}, {"time": 3642, "pitch": 66, "duration": 9, "velocity": 69}, {"time": 3654, "pitch": 40, "duration": 13, "velocity": 70}, {"time": 3654, "pitch": 59, "duration": 17, "velocity": 72}, {"time": 3654, "pitch": 64, "duration": 22, "velocity": 73}, {"time": 3654, "pitch": 68, "duration": 23, "velocity": 76}, {"time": 3666, "pitch": 52, "duration": 14, "velocity": 47}, {"time": 3678, "pitch": 54, "duration": 60, "velocity": 66}, {"time": 3678, "pitch": 59, "duration": 8, "velocity": 66}, {"time": 3678, "pitch": 66, "duration": 11, "velocity": 67}, {"time": 3690, "pitch": 56, "duration": 13, "velocity": 60}, {"time": 3690, "pitch": 59, "duration": 6, "velocity": 63}, {"time": 3690, "pitch": 68, "duration": 10, "velocity": 69}, {"time": 3702, "pitch": 59, "duration": 7, "velocity": 70}, {"time": 3702, "pitch": 64, "duration": 8, "velocity": 53}, {"time": 3702, "pitch": 71, "duration": 9, "velocity": 64}, {"time": 3714, "pitch": 59, "duration": 6, "velocity": 61}, {"time": 3714, "pitch": 69, "duration": 4, "velocity": 99}, {"time": 3726, "pitch": 59, "duration": 6, "velocity": 82}, {"time": 3726, "pitch": 68, "duration": 9, "velocity": 88}, {"time": 3738, "pitch": 59, "duration": 2, "velocity": 80}, {"time": 3738, "pitch": 66, "duration": 3, "velocity": 95}, {"time": 3750, "pitch": 45, "duration": 40, "velocity": 76}, {"time": 3750, "pitch": 61, "duration": 13, "velocity": 75}, {"time": 3750, "pitch": 64, "duration": 13, "velocity": 80}, {"time": 3750, "pitch": 69, "duration": 13, "velocity": 76}, {"time": 3756, "pitch": 52, "duration": 31, "velocity": 60}, {"time": 3762, "pitch": 57, "duration": 19, "velocity": 75}, {"time": 3768, "pitch": 61, "duration": 9, "velocity": 67}, {"time": 3780, "pitch": 61, "duration": 7, "velocity": 75}, {"time": 3780, "pitch": 64, "duration": 8, "velocity": 80}, {"time": 3780, "pitch": 69, "duration": 7, "velocity": 80}, {"time": 3786, "pitch": 57, "duration": 8, "velocity": 63}, {"time": 3792, "pitch": 52, "duration": 7, "velocity": 66}, {"time": 3798, "pitch": 45, "duration": 39, "velocity": 69}, {"time": 3798, "pitch": 63, "duration": 12, "velocity": 75}, {"time": 3798, "pitch": 66, "duration": 12, "velocity": 73}, {"time": 3798, "pitch": 71, "duration": 11, "velocity": 72}, {"time": 3804, "pitch": 52, "duration": 33, "velocity": 66}, {"time": 3810, "pitch": 57, "duration": 15, "velocity": 69}, {"time": 3816, "pitch": 63, "duration": 14, "velocity": 58}, {"time": 3822, "pitch": 66, "duration": 10, "velocity": 76}, {"time": 3828, "pitch": 57, "duration": 7, "velocity": 60}, {"time": 3834, "pitch": 66, "duration": 6, "velocity": 73}, {"time": 3840, "pitch": 71, "duration": 5, "velocity": 70}, {"time": 3846, "pitch": 44, "duration": 36, "velocity": 75}, {"time": 3846, "pitch": 59, "duration": 8, "velocity": 69}, {"time": 3846, "pitch": 63, "duration": 9, "velocity": 69}, {"time": 3846, "pitch": 66, "duration": 9, "velocity": 72}, {"time": 3852, "pitch": 56, "duration": 27, "velocity": 47}, {"time": 3858, "pitch": 59, "duration": 5, "velocity": 59}, {"time": 3864, "pitch": 59, "duration": 3, "velocity": 41}, {"time": 3864, "pitch": 63, "duration": 11, "velocity": 67}, {"time": 3876, "pitch": 59, "duration": 7, "velocity": 69}, {"time": 3876, "pitch": 63, "duration": 4, "velocity": 56}, {"time": 3876, "pitch": 66, "duration": 9, "velocity": 78}, {"time": 3882, "pitch": 56, "duration": 4, "velocity": 72}, {"time": 3894, "pitch": 49, "duration": 38, "velocity": 73}, {"time": 3894, "pitch": 64, "duration": 10, "velocity": 75}, {"time": 3894, "pitch": 68, "duration": 10, "velocity": 70}, {"time": 3900, "pitch": 56, "duration": 24, "velocity": 46}, {"time": 3906, "pitch": 63, "duration": 4, "velocity": 75}, {"time": 3906, "pitch": 66, "duration": 5, "velocity": 73}, {"time": 3912, "pitch": 64, "duration": 2, "velocity": 93}, {"time": 3912, "pitch": 68, "duration": 4, "velocity": 82}, {"time": 3918, "pitch": 61, "duration": 8, "velocity": 82}, {"time": 3924, "pitch": 64, "duration": 8, "velocity": 99}, {"time": 3924, "pitch": 71, "duration": 7, "velocity": 82}, {"time": 3930, "pitch": 56, "duration": 2, "velocity": 70}, {"time": 3936, "pitch": 66, "duration": 4, "velocity": 49}, {"time": 3939, "pitch": 68, "duration": 3, "velocity": 66}, {"time": 3942, "pitch": 42, "duration": 10, "velocity": 73}, {"time": 3942, "pitch": 61, "duration": 25, "velocity": 62}, {"time": 3942, "pitch": 64, "duration": 25, "velocity": 80}, {"time": 3942, "pitch": 69, "duration": 25, "velocity": 73}, {"time": 3948, "pitch": 49, "duration": 6, "velocity": 69}, {"time": 3954, "pitch": 54, "duration": 7, "velocity": 64}, {"time": 3960, "pitch": 56, "duration": 17, "velocity": 61}, {"time": 3966, "pitch": 57, "duration": 11, "velocity": 72}, {"time": 3972, "pitch": 61, "duration": 4, "velocity": 93}, {"time": 3978, "pitch": 64, "duration": 6, "velocity": 91}, {"time": 3984, "pitch": 71, "duration": 5, "velocity": 75}, {"time": 3990, "pitch": 47, "duration": 10, "velocity": 78}, {"time": 3990, "pitch": 59, "duration": 9, "velocity": 78}, {"time": 3990, "pitch": 66, "duration": 11, "velocity": 70}, {"time": 3990, "pitch": 68, "duration": 1, "velocity": 48}, {"time": 3990, "pitch": 71, "duration": 7, "velocity": 60}, {"time": 3996, "pitch": 52, "duration": 34, "velocity": 67}, {"time": 4002, "pitch": 47, "duration": 27, "velocity": 27}, {"time": 4002, "pitch": 54, "duration": 19, "velocity": 62}, {"time": 4002, "pitch": 64, "duration": 6, "velocity": 88}, {"time": 4008, "pitch": 63, "duration": 8, "velocity": 82}, {"time": 4008, "pitch": 66, "duration": 9, "velocity": 80}, {"time": 4014, "pitch": 59, "duration": 10, "velocity": 73}, {"time": 4020, "pitch": 64, "duration": 5, "velocity": 93}, {"time": 4020, "pitch": 68, "duration": 4, "velocity": 93}, {"time": 4026, "pitch": 54, "duration": 3, "velocity": 67}, {"time": 4032, "pitch": 64, "duration": 3, "velocity": 69}, {"time": 4032, "pitch": 69, "duration": 4, "velocity": 99}, {"time": 4038, "pitch": 40, "duration": 10, "velocity": 72}, {"time": 4038, "pitch": 64, "duration": 22, "velocity": 88}, {"time": 4038, "pitch": 68, "duration": 22, "velocity": 78}, {"time": 4044, "pitch": 47, "duration": 6, "velocity": 69}, {"time": 4050, "pitch": 52, "duration": 8, "velocity": 66}, {"time": 4056, "pitch": 54, "duration": 11, "velocity": 58}, {"time": 4062, "pitch": 56, "duration": 4, "velocity": 70}, {"time": 4068, "pitch": 59, "duration": 4, "velocity": 93}, {"time": 4074, "pitch": 64, "duration": 5, "velocity": 76}, {"time": 4080, "pitch": 66, "duration": 3, "velocity": 75}, {"time": 4086, "pitch": 40, "duration": 34, "velocity": 72}, {"time": 4086, "pitch": 59, "duration": 11, "velocity": 91}, {"time": 4086, "pitch": 62, "duration": 13, "velocity": 103}, {"time": 4086, "pitch": 68, "duration": 12, "velocity": 88}, {"time": 4092, "pitch": 47, "duration": 28, "velocity": 53}, {"time": 4098, "pitch": 52, "duration": 22, "velocity": 93}, {"time": 4104, "pitch": 59, "duration": 4, "velocity": 78}, {"time": 4110, "pitch": 59, "duration": 4, "velocity": 78}, {"time": 4110, "pitch": 62, "duration": 9, "velocity": 101}, {"time": 4110, "pitch": 68, "duration": 9, "velocity": 82}, {"time": 4122, "pitch": 44, "duration": 3, "velocity": 72}, {"time": 4122, "pitch": 59, "duration": 4, "velocity": 95}, {"time": 4122, "pitch": 64, "duration": 4, "velocity": 95}, {"time": 4122, "pitch": 68, "duration": 1, "velocity": 60}, {"time": 4134, "pitch": 45, "duration": 40, "velocity": 80}, {"time": 4134, "pitch": 61, "duration": 13, "velocity": 91}, {"time": 4134, "pitch": 64, "duration": 14, "velocity": 95}, {"time": 4134, "pitch": 68, "duration": 12, "velocity": 80}, {"time": 4140, "pitch": 52, "duration": 34, "velocity": 70}, {"time": 4146, "pitch": 57, "duration": 15, "velocity": 88}, {"time": 4152, "pitch": 61, "duration": 4, "velocity": 85}, {"time": 4158, "pitch": 61, "duration": 7, "velocity": 93}, {"time": 4158, "pitch": 64, "duration": 9, "velocity": 99}, {"time": 4158, "pitch": 68, "duration": 8, "velocity": 75}, {"time": 4164, "pitch": 57, "duration": 9, "velocity": 76}, {"time": 4170, "pitch": 61, "duration": 5, "velocity": 78}, {"time": 4176, "pitch": 64, "duration": 4, "velocity": 66}, {"time": 4182, "pitch": 45, "duration": 39, "velocity": 75}, {"time": 4182, "pitch": 59, "duration": 12, "velocity": 73}, {"time": 4182, "pitch": 63, "duration": 12, "velocity": 76}, {"time": 4182, "pitch": 66, "duration": 13, "velocity": 75}, {"time": 4188, "pitch": 52, "duration": 33, "velocity": 62}, {"time": 4194, "pitch": 57, "duration": 18, "velocity": 63}, {"time": 4200, "pitch": 59, "duration": 4, "velocity": 88}, {"time": 4206, "pitch": 63, "duration": 4, "velocity": 61}, {"time": 4212, "pitch": 59, "duration": 8, "velocity": 93}, {"time": 4212, "pitch": 66, "duration": 10, "velocity": 85}, {"time": 4218, "pitch": 57, "duration": 4, "velocity": 85}, {"time": 4224, "pitch": 59, "duration": 3, "velocity": 58}, {"time": 4230, "pitch": 44, "duration": 31, "velocity": 78}, {"time": 4230, "pitch": 59, "duration": 8, "velocity": 88}, {"time": 4230, "pitch": 63, "duration": 8, "velocity": 82}, {"time": 4230, "pitch": 66, "duration": 8, "velocity": 80}, {"time": 4230, "pitch": 71, "duration": 7, "velocity": 80}, {"time": 4236, "pitch": 56, "duration": 15, "velocity": 63}, {"time": 4242, "pitch": 59, "duration": 4, "velocity": 64}, {"time": 4248, "pitch": 59, "duration": 9, "velocity": 91}, {"time": 4248, "pitch": 63, "duration": 9, "velocity": 80}, {"time": 4248, "pitch": 66, "duration": 11, "velocity": 78}, {"time": 4260, "pitch": 56, "duration": 6, "velocity": 63}, {"time": 4266, "pitch": 59, "duration": 4, "velocity": 73}, {"time": 4266, "pitch": 66, "duration": 7, "velocity": 85}, {"time": 4272, "pitch": 71, "duration": 4, "velocity": 70}, {"time": 4278, "pitch": 49, "duration": 36, "velocity": 70}, {"time": 4278, "pitch": 64, "duration": 10, "velocity": 88}, {"time": 4278, "pitch": 68, "duration": 11, "velocity": 82}, {"time": 4284, "pitch": 56, "duration": 29, "velocity": 64}, {"time": 4290, "pitch": 63, "duration": 4, "velocity": 69}, {"time": 4290, "pitch": 66, "duration": 5, "velocity": 76}, {"time": 4296, "pitch": 64, "duration": 9, "velocity": 88}, {"time": 4296, "pitch": 68, "duration": 10, "velocity": 85}, {"time": 4302, "pitch": 61, "duration": 8, "velocity": 69}, {"time": 4308, "pitch": 63, "duration": 6, "velocity": 76}, {"time": 4308, "pitch": 66, "duration": 6, "velocity": 82}, {"time": 4314, "pitch": 64, "duration": 3, "velocity": 75}, {"time": 4314, "pitch": 68, "duration": 3, "velocity": 75}, {"time": 4326, "pitch": 42, "duration": 37, "velocity": 70}, {"time": 4326, "pitch": 61, "duration": 8, "velocity": 73}, {"time": 4326, "pitch": 64, "duration": 8, "velocity": 88}, {"time": 4326, "pitch": 69, "duration": 8, "velocity": 78}, {"time": 4332, "pitch": 49, "duration": 33, "velocity": 64}, {"time": 4338, "pitch": 54, "duration": 34, "velocity": 72}, {"time": 4344, "pitch": 56, "duration": 10, "velocity": 62}, {"time": 4350, "pitch": 57, "duration": 6, "velocity": 80}, {"time": 4356, "pitch": 61, "duration": 6, "velocity": 59}, {"time": 4362, "pitch": 64, "duration": 10, "velocity": 70}, {"time": 4368, "pitch": 59, "duration": 4, "velocity": 61}, {"time": 4374, "pitch": 47, "duration": 32, "velocity": 64}, {"time": 4374, "pitch": 59, "duration": 3, "velocity": 58}, {"time": 4374, "pitch": 63, "duration": 16, "velocity": 75}, {"time": 4380, "pitch": 51, "duration": 2, "velocity": 57}, {"time": 4386, "pitch": 52, "duration": 24, "velocity": 72}, {"time": 4392, "pitch": 54, "duration": 17, "velocity": 57}, {"time": 4398, "pitch": 59, "duration": 10, "velocity": 76}, {"time": 4404, "pitch": 64, "duration": 5, "velocity": 85}, {"time": 4410, "pitch": 66, "duration": 5, "velocity": 62}, {"time": 4416, "pitch": 68, "duration": 4, "velocity": 76}, {"time": 4422, "pitch": 40, "duration": 38, "velocity": 73}, {"time": 4422, "pitch": 52, "duration": 7, "velocity": 73}, {"time": 4422, "pitch": 59, "duration": 14, "velocity": 75}, {"time": 4422, "pitch": 64, "duration": 17, "velocity": 78}, {"time": 4422, "pitch": 68, "duration": 21, "velocity": 75}, {"time": 4434, "pitch": 52, "duration": 18, "velocity": 51}, {"time": 4446, "pitch": 59, "duration": 13, "velocity": 75}, {"time": 4446, "pitch": 63, "duration": 13, "velocity": 80}, {"time": 4446, "pitch": 64, "duration": 13, "velocity": 80}, {"time": 4446, "pitch": 68, "duration": 10, "velocity": 78}, {"time": 4458, "pitch": 52, "duration": 3, "velocity": 78}, {"time": 4470, "pitch": 40, "duration": 36, "velocity": 78}, {"time": 4470, "pitch": 52, "duration": 6, "velocity": 70}, {"time": 4470, "pitch": 59, "duration": 9, "velocity": 88}, {"time": 4470, "pitch": 62, "duration": 10, "velocity": 95}, {"time": 4470, "pitch": 64, "duration": 7, "velocity": 47}, {"time": 4470, "pitch": 68, "duration": 9, "velocity": 82}, {"time": 4479, "pitch": 52, "duration": 20, "velocity": 70}, {"time": 4482, "pitch": 59, "duration": 7, "velocity": 57}, {"time": 4488, "pitch": 62, "duration": 3, "velocity": 57}, {"time": 4494, "pitch": 59, "duration": 11, "velocity": 78}, {"time": 4494, "pitch": 62, "duration": 11, "velocity": 72}, {"time": 4494, "pitch": 64, "duration": 10, "velocity": 61}, {"time": 4494, "pitch": 68, "duration": 10, "velocity": 76}, {"time": 4500, "pitch": 52, "duration": 8, "velocity": 75}, {"time": 4506, "pitch": 44, "duration": 3, "velocity": 73}, {"time": 4512, "pitch": 59, "duration": 4, "velocity": 40}, {"time": 4518, "pitch": 45, "duration": 42, "velocity": 64}, {"time": 4518, "pitch": 61, "duration": 7, "velocity": 62}, {"time": 4518, "pitch": 64, "duration": 11, "velocity": 70}, {"time": 4518, "pitch": 69, "duration": 9, "velocity": 70}, {"time": 4524, "pitch": 52, "duration": 27, "velocity": 55}, {"time": 4530, "pitch": 61, "duration": 4, "velocity": 52}, {"time": 4530, "pitch": 68, "duration": 5, "velocity": 53}, {"time": 4536, "pitch": 61, "duration": 8, "velocity": 56}, {"time": 4536, "pitch": 64, "duration": 7, "velocity": 75}, {"time": 4536, "pitch": 69, "duration": 7, "velocity": 80}, {"time": 4542, "pitch": 57, "duration": 11, "velocity": 59}, {"time": 4548, "pitch": 61, "duration": 8, "velocity": 55}, {"time": 4554, "pitch": 64, "duration": 11, "velocity": 73}, {"time": 4560, "pitch": 52, "duration": 7, "velocity": 43}, {"time": 4560, "pitch": 69, "duration": 4, "velocity": 62}, {"time": 4566, "pitch": 45, "duration": 37, "velocity": 72}, {"time": 4566, "pitch": 63, "duration": 12, "velocity": 62}, {"time": 4566, "pitch": 66, "duration": 12, "velocity": 66}, {"time": 4566, "pitch": 71, "duration": 12, "velocity": 61}, {"time": 4572, "pitch": 52, "duration": 31, "velocity": 61}, {"time": 4578, "pitch": 57, "duration": 13, "velocity": 59}, {"time": 4584, "pitch": 63, "duration": 11, "velocity": 61}, {"time": 4590, "pitch": 71, "duration": 7, "velocity": 70}, {"time": 4596, "pitch": 57, "duration": 6, "velocity": 67}, {"time": 4602, "pitch": 63, "duration": 5, "velocity": 53}, {"time": 4608, "pitch": 71, "duration": 13, "velocity": 64}, {"time": 4614, "pitch": 44, "duration": 31, "velocity": 70}, {"time": 4614, "pitch": 59, "duration": 8, "velocity": 64}, {"time": 4614, "pitch": 66, "duration": 8, "velocity": 64}, {"time": 4620, "pitch": 56, "duration": 14, "velocity": 59}, {"time": 4626, "pitch": 59, "duration": 14, "velocity": 51}, {"time": 4632, "pitch": 66, "duration": 8, "velocity": 67}, {"time": 4638, "pitch": 56, "duration": 10, "velocity": 58}, {"time": 4644, "pitch": 59, "duration": 8, "velocity": 69}, {"time": 4650, "pitch": 66, "duration": 7, "velocity": 59}, {"time": 4656, "pitch": 71, "duration": 8, "velocity": 63}, {"time": 4662, "pitch": 49, "duration": 36, "velocity": 70}, {"time": 4662, "pitch": 64, "duration": 11, "velocity": 75}, {"time": 4662, "pitch": 68, "duration": 11, "velocity": 64}, {"time": 4668, "pitch": 56, "duration": 31, "velocity": 60}, {"time": 4674, "pitch": 63, "duration": 8, "velocity": 47}, {"time": 4674, "pitch": 66, "duration": 5, "velocity": 55}, {"time": 4680, "pitch": 64, "duration": 8, "velocity": 75}, {"time": 4680, "pitch": 68, "duration": 9, "velocity": 70}, {"time": 4686, "pitch": 61, "duration": 14, "velocity": 64}, {"time": 4692, "pitch": 63, "duration": 9, "velocity": 60}, {"time": 4698, "pitch": 64, "duration": 8, "velocity": 67}, {"time": 4704, "pitch": 68, "duration": 5, "velocity": 57}, {"time": 4710, "pitch": 54, "duration": 36, "velocity": 51}, {"time": 4710, "pitch": 61, "duration": 9, "velocity": 61}, {"time": 4710, "pitch": 64, "duration": 9, "velocity": 56}, {"time": 4710, "pitch": 69, "duration": 9, "velocity": 73}, {"time": 4716, "pitch": 57, "duration": 14, "velocity": 60}, {"time": 4722, "pitch": 61, "duration": 14, "velocity": 56}, {"time": 4728, "pitch": 68, "duration": 9, "velocity": 70}, {"time": 4734, "pitch": 57, "duration": 12, "velocity": 70}, {"time": 4740, "pitch": 61, "duration": 9, "velocity": 59}, {"time": 4746, "pitch": 64, "duration": 8, "velocity": 61}, {"time": 4752, "pitch": 69, "duration": 7, "velocity": 66}, {"time": 4758, "pitch": 47, "duration": 35, "velocity": 66}, {"time": 4758, "pitch": 59, "duration": 11, "velocity": 61}, {"time": 4758, "pitch": 68, "duration": 13, "velocity": 76}, {"time": 4764, "pitch": 54, "duration": 31, "velocity": 64}, {"time": 4770, "pitch": 59, "duration": 20, "velocity": 63}, {"time": 4776, "pitch": 64, "duration": 7, "velocity": 73}, {"time": 4782, "pitch": 66, "duration": 4, "velocity": 62}, {"time": 4788, "pitch": 69, "duration": 8, "velocity": 64}, {"time": 4794, "pitch": 59, "duration": 9, "velocity": 59}, {"time": 4794, "pitch": 71, "duration": 5, "velocity": 59}, {"time": 4800, "pitch": 76, "duration": 7, "velocity": 61}, {"time": 4806, "pitch": 52, "duration": 39, "velocity": 75}, {"time": 4806, "pitch": 75, "duration": 14, "velocity": 58}, {"time": 4812, "pitch": 59, "duration": 24, "velocity": 58}, {"time": 4818, "pitch": 64, "duration": 8, "velocity": 64}, {"time": 4824, "pitch": 66, "duration": 8, "velocity": 66}, {"time": 4824, "pitch": 71, "duration": 4, "velocity": 49}, {"time": 4830, "pitch": 64, "duration": 7, "velocity": 48}, {"time": 4836, "pitch": 68, "duration": 10, "velocity": 67}, {"time": 4842, "pitch": 59, "duration": 3, "velocity": 64}, {"time": 4854, "pitch": 40, "duration": 37, "velocity": 72}, {"time": 4854, "pitch": 59, "duration": 8, "velocity": 67}, {"time": 4854, "pitch": 62, "duration": 9, "velocity": 67}, {"time": 4854, "pitch": 68, "duration": 7, "velocity": 72}, {"time": 4860, "pitch": 52, "duration": 20, "velocity": 59}, {"time": 4866, "pitch": 59, "duration": 8, "velocity": 51}, {"time": 4872, "pitch": 62, "duration": 13, "velocity": 73}, {"time": 4878, "pitch": 59, "duration": 2, "velocity": 36}, {"time": 4878, "pitch": 71, "duration": 6, "velocity": 72}, {"time": 4884, "pitch": 52, "duration": 10, "velocity": 59}, {"time": 4890, "pitch": 59, "duration": 5, "velocity": 67}, {"time": 4896, "pitch": 66, "duration": 5, "velocity": 66}, {"time": 4902, "pitch": 45, "duration": 41, "velocity": 66}, {"time": 4902, "pitch": 61, "duration": 14, "velocity": 56}, {"time": 4902, "pitch": 64, "duration": 12, "velocity": 62}, {"time": 4902, "pitch": 69, "duration": 10, "velocity": 73}, {"time": 4908, "pitch": 52, "duration": 33, "velocity": 63}, {"time": 4914, "pitch": 57, "duration": 13, "velocity": 66}, {"time": 4920, "pitch": 61, "duration": 8, "velocity": 63}, {"time": 4926, "pitch": 64, "duration": 9, "velocity": 62}, {"time": 4932, "pitch": 57, "duration": 10, "velocity": 60}, {"time": 4938, "pitch": 61, "duration": 5, "velocity": 72}, {"time": 4944, "pitch": 64, "duration": 5, "velocity": 49}, {"time": 4950, "pitch": 45, "duration": 37, "velocity": 66}, {"time": 4950, "pitch": 60, "duration": 12, "velocity": 75}, {"time": 4950, "pitch": 64, "duration": 5, "velocity": 54}, {"time": 4950, "pitch": 69, "duration": 11, "velocity": 66}, {"time": 4956, "pitch": 52, "duration": 33, "velocity": 69}, {"time": 4962, "pitch": 57, "duration": 25, "velocity": 70}, {"time": 4968, "pitch": 60, "duration": 6, "velocity": 82}, {"time": 4974, "pitch": 64, "duration": 8, "velocity": 73}, {"time": 4980, "pitch": 66, "duration": 5, "velocity": 62}, {"time": 4986, "pitch": 68, "duration": 7, "velocity": 62}, {"time": 4992, "pitch": 69, "duration": 7, "velocity": 61}, {"time": 4998, "pitch": 44, "duration": 31, "velocity": 69}, {"time": 4998, "pitch": 59, "duration": 8, "velocity": 75}, {"time": 4998, "pitch": 63, "duration": 9, "velocity": 61}, {"time": 4998, "pitch": 66, "duration": 12, "velocity": 64}, {"time": 5004, "pitch": 56, "duration": 14, "velocity": 59}, {"time": 5010, "pitch": 59, "duration": 14, "velocity": 62}, {"time": 5016, "pitch": 63, "duration": 9, "velocity": 72}, {"time": 5016, "pitch": 71, "duration": 15, "velocity": 72}, {"time": 5022, "pitch": 56, "duration": 10, "velocity": 60}, {"time": 5028, "pitch": 59, "duration": 6, "velocity": 73}, {"time": 5034, "pitch": 66, "duration": 7, "velocity": 63}, {"time": 5040, "pitch": 71, "duration": 6, "velocity": 66}, {"time": 5046, "pitch": 45, "duration": 95, "velocity": 66}, {"time": 5046, "pitch": 57, "duration": 94, "velocity": 64}, {"time": 5046, "pitch": 60, "duration": 28, "velocity": 70}, {"time": 5046, "pitch": 64, "duration": 35, "velocity": 75}, {"time": 5046, "pitch": 66, "duration": 35, "velocity": 73}, {"time": 5112, "pitch": 72, "duration": 13, "velocity": 46}, {"time": 5118, "pitch": 76, "duration": 10, "velocity": 49}, {"time": 5124, "pitch": 78, "duration": 8, "velocity": 40}, {"time": 5130, "pitch": 81, "duration": 8, "velocity": 47}, {"time": 5142, "pitch": 42, "duration": 31, "velocity": 58}, {"time": 5142, "pitch": 54, "duration": 33, "velocity": 56}, {"time": 5142, "pitch": 61, "duration": 20, "velocity": 55}, {"time": 5142, "pitch": 64, "duration": 15, "velocity": 63}, {"time": 5142, "pitch": 69, "duration": 19, "velocity": 53}, {"time": 5172, "pitch": 61, "duration": 4, "velocity": 49}, {"time": 5178, "pitch": 64, "duration": 4, "velocity": 59}, {"time": 5184, "pitch": 68, "duration": 5, "velocity": 58}, {"time": 5190, "pitch": 47, "duration": 37, "velocity": 62}, {"time": 5190, "pitch": 61, "duration": 9, "velocity": 50}, {"time": 5190, "pitch": 64, "duration": 9, "velocity": 60}, {"time": 5190, "pitch": 69, "duration": 9, "velocity": 58}, {"time": 5214, "pitch": 64, "duration": 5, "velocity": 50}, {"time": 5214, "pitch": 69, "duration": 8, "velocity": 53}, {"time": 5214, "pitch": 73, "duration": 9, "velocity": 50}, {"time": 5226, "pitch": 59, "duration": 4, "velocity": 46}, {"time": 5238, "pitch": 40, "duration": 38, "velocity": 73}, {"time": 5238, "pitch": 59, "duration": 14, "velocity": 70}, {"time": 5238, "pitch": 64, "duration": 14, "velocity": 75}, {"time": 5238, "pitch": 66, "duration": 14, "velocity": 60}, {"time": 5238, "pitch": 68, "duration": 14, "velocity": 66}, {"time": 5250, "pitch": 52, "duration": 18, "velocity": 39}, {"time": 5262, "pitch": 59, "duration": 13, "velocity": 63}, {"time": 5262, "pitch": 64, "duration": 12, "velocity": 67}, {"time": 5262, "pitch": 66, "duration": 13, "velocity": 64}, {"time": 5262, "pitch": 68, "duration": 12, "velocity": 72}, {"time": 5274, "pitch": 52, "duration": 15, "velocity": 49}, {"time": 5286, "pitch": 40, "duration": 12, "velocity": 62}, {"time": 5286, "pitch": 59, "duration": 7, "velocity": 58}, {"time": 5286, "pitch": 64, "duration": 8, "velocity": 57}, {"time": 5286, "pitch": 71, "duration": 6, "velocity": 64}, {"time": 5298, "pitch": 52, "duration": 24, "velocity": 50}, {"time": 5298, "pitch": 59, "duration": 8, "velocity": 57}, {"time": 5298, "pitch": 69, "duration": 10, "velocity": 69}, {"time": 5310, "pitch": 59, "duration": 9, "velocity": 66}, {"time": 5310, "pitch": 68, "duration": 9, "velocity": 76}, {"time": 5322, "pitch": 64, "duration": 8, "velocity": 66}, {"time": 5334, "pitch": 45, "duration": 38, "velocity": 63}, {"time": 5334, "pitch": 61, "duration": 8, "velocity": 59}, {"time": 5334, "pitch": 64, "duration": 10, "velocity": 67}, {"time": 5334, "pitch": 69, "duration": 9, "velocity": 66}, {"time": 5346, "pitch": 52, "duration": 14, "velocity": 42}, {"time": 5346, "pitch": 61, "duration": 8, "velocity": 63}, {"time": 5346, "pitch": 68, "duration": 11, "velocity": 72}, {"time": 5358, "pitch": 57, "duration": 14, "velocity": 47}, {"time": 5358, "pitch": 61, "duration": 3, "velocity": 58}, {"time": 5358, "pitch": 64, "duration": 4, "velocity": 67}, {"time": 5358, "pitch": 69, "duration": 4, "velocity": 69}, {"time": 5370, "pitch": 52, "duration": 3, "velocity": 48}, {"time": 5370, "pitch": 64, "duration": 2, "velocity": 70}, {"time": 5370, "pitch": 71, "duration": 3, "velocity": 73}, {"time": 5382, "pitch": 45, "duration": 14, "velocity": 53}, {"time": 5382, "pitch": 57, "duration": 6, "velocity": 45}, {"time": 5382, "pitch": 60, "duration": 11, "velocity": 54}, {"time": 5382, "pitch": 64, "duration": 11, "velocity": 60}, {"time": 5382, "pitch": 69, "duration": 12, "velocity": 50}, {"time": 5394, "pitch": 57, "duration": 4, "velocity": 60}, {"time": 5406, "pitch": 59, "duration": 7, "velocity": 45}, {"time": 5406, "pitch": 64, "duration": 8, "velocity": 56}, {"time": 5406, "pitch": 69, "duration": 7, "velocity": 70}, {"time": 5418, "pitch": 59, "duration": 7, "velocity": 44}, {"time": 5418, "pitch": 66, "duration": 9, "velocity": 63}, {"time": 5430, "pitch": 40, "duration": 19, "velocity": 69}, {"time": 5430, "pitch": 59, "duration": 16, "velocity": 47}, {"time": 5430, "pitch": 64, "duration": 15, "velocity": 44}, {"time": 5430, "pitch": 68, "duration": 13, "velocity": 54}, {"time": 5447, "pitch": 52, "duration": 4, "velocity": 49}, {"time": 5451, "pitch": 59, "duration": 3, "velocity": 48}, {"time": 5455, "pitch": 64, "duration": 4, "velocity": 51}, {"time": 5459, "pitch": 66, "duration": 1, "velocity": 54}, {"time": 5463, "pitch": 71, "duration": 3, "velocity": 62}, {"time": 5468, "pitch": 76, "duration": 4, "velocity": 59}, {"time": 5473, "pitch": 78, "duration": 2, "velocity": 48}, {"time": 5478, "pitch": 83, "duration": 6, "velocity": 70}, {"time": 5484, "pitch": 88, "duration": 3, "velocity": 41}, {"time": 5490, "pitch": 90, "duration": 4, "velocity": 44}, {"time": 5498, "pitch": 92, "duration": 2, "velocity": 34}, {"time": 5505, "pitch": 95, "duration": 1, "velocity": 40}, {"time": 5525, "pitch": 100, "duration": 5, "velocity": 44}], "annotations": [{"time": 357, "annotation": {"number": 64, "value": 46}, "group": "control_change"}, {"time": 363, "annotation": {"number": 64, "value": 48}, "group": "control_change"}, {"time": 364, "annotation": {"number": 64, "value": 46}, "group": "control_change"}, {"time": 364, "annotation": {"number": 64, "value": 47}, "group": "control_change"}, {"time": 365, "annotation": {"number": 64, "value": 46}, "group": "control_change"}, {"time": 367, "annotation": {"number": 64, "value": 47}, "group": "control_change"}, {"time": 367, "annotation": {"number": 64, "value": 46}, "group": "control_change"}, {"time": 372, "annotation": {"number": 64, "value": 44}, "group": "control_change"}, {"time": 373, "annotation": {"number": 64, "value": 39}, "group": "control_change"}, {"time": 373, "annotation": {"number": 64, "value": 35}, "group": "control_change"}, {"time": 373, "annotation": {"number": 64, "value": 31}, "group": "control_change"}, {"time": 374, "annotation": {"number": 64, "value": 28}, "group": "control_change"}, {"time": 374, "annotation": {"number": 64, "value": 22}, "group": "control_change"}, {"time": 375, "annotation": {"number": 64, "value": 14}, "group": "control_change"}, {"time": 375, "annotation": {"number": 64, "value": 7}, "group": "control_change"}, {"time": 375, "annotation": {"number": 64, "value": 0}, "group": "control_change"}, {"time": 391, "annotation": {"number": 64, "value": 15}, "group": "control_change"}, {"time": 392, "annotation": {"number": 64, "value": 40}, "group": "control_change"}, {"time": 392, "annotation": {"number": 64, "value": 64}, "group": "control_change"}, {"time": 393, "annotation": {"number": 64, "value": 83}, "group": "control_change"}, {"time": 393, "annotation": {"number": 88, "value": 45}, "group": "control_change"}, {"time": 393, "annotation": {"number": 64, "value": 102}, "group": "control_change"}, {"time": 393, "annotation": {"number": 64, "value": 118}, "group": "control_change"}, {"time": 394, "annotation": {"number": 88, "value": 5}, "group": "control_change"}, {"time": 394, "annotation": {"number": 64, "value": 127}, "group": "control_change"}, {"time": 406, "annotation": {"number": 88, "value": 30}, "group": "control_change"}, {"time": 407, "annotation": {"number": 88, "value": 124}, "group": "control_change"}, {"time": 412, "annotation": {"number": 88, "value": 75}, "group": "control_change"}, {"time": 416, "annotation": {"number": 88, "value": 0}, "group": "control_change"}, {"time": 426, "annotation": {"number": 88, "value": 3}, "group": "control_change"}, {"time": 427, "annotation": {"number": 88, "value": 88}, "group": "control_change"}, {"time": 439, "annotation": {"number": 88, "value": 115}, "group": "control_change"}, {"time": 440, "annotation": {"number": 64, "value": 119}, "group": "control_change"}, {"time": 440, "annotation": {"number": 64, "value": 72}, "group": "control_change"}, {"time": 441, "annotation": {"number": 88, "value": 121}, "group": "control_change"}, {"time": 441, "annotation": {"number": 64, "value": 31}, "group": "control_change"}, {"time": 441, "annotation": {"number": 64, "value": 0}, "group": "control_change"}, {"time": 444, "annotation": {"number": 64, "value": 1}, "group": "control_change"}, {"time": 444, "annotation": {"number": 64, "value": 56}, "group": "control_change"}, {"time": 444, "annotation": {"number": 64, "value": 111}, "group": "control_change"}, {"time": 445, "annotation": {"number": 64, "value": 127}, "group": "control_change"}, {"time": 451, "annotation": {"number": 88, "value": 60}, "group": "control_change"}, {"time": 452, "annotation": {"number": 88, "value": 21}, "group": "control_change"}, {"time": 460, "annotation": {"number": 88, "value": 22}, "group": "control_change"}, {"time": 463, "annotation": {"number": 88, "value": 96}, "group": "control_change"}, {"time": 465, "annotation": {"number": 88, "value": 0}, "group": "control_change"}, {"time": 466, "annotation": {"number": 88, "value": 90}, "group": "control_change"}, {"time": 470, "annotation": {"number": 88, "value": 57}, "group": "control_change"}, {"time": 473, "annotation": {"number": 88, "value": 63}, "group": "control_change"}, {"time": 475, "annotation": {"number": 88, "value": 117}, "group": "control_change"}, {"time": 487, "annotation": {"number": 88, "value": 103}, "group": "control_change"}, {"time": 489, "annotation": {"number": 64, "value": 107}, "group": "control_change"}, {"time": 490, "annotation": {"number": 64, "value": 61}, "group": "control_change"}, {"time": 490, "annotation": {"number": 64, "value": 24}, "group": "control_change"}, {"time": 491, "annotation": {"number": 64, "value": 0}, "group": "control_change"}, {"time": 493, "annotation": {"number": 64, "value": 17}, "group": "control_change"}, {"time": 493, "annotation": {"number": 64, "value": 78}, "group": "control_change"}, {"time": 494, "annotation": {"number": 64, "value": 127}, "group": "control_change"}, {"time": 500, "annotation": {"number": 88, "value": 126}, "group": "control_change"}, {"time": 501, "annotation": {"number": 88, "value": 28}, "group": "control_change"}, {"time": 510, "annotation": {"number": 88, "value": 53}, "group": "control_change"}, {"time": 516, "annotation": {"number": 88, "value": 25}, "group": "control_change"}, {"time": 523, "annotation": {"number": 88, "value": 75}, "group": "control_change"}, {"time": 524, "annotation": {"number": 88, "value": 38}, "group": "control_change"}, {"time": 534, "annotation": {"number": 88, "value": 70}, "group": "control_change"}, {"time": 534, "annotation": {"number": 64, "value": 124}, "group": "control_change"}, {"time": 535, "annotation": {"number": 64, "value": 115}, "group": "control_change"}, {"time": 535, "annotation": {"number": 64, "value": 94}, "group": "control_change"}, {"time": 535, "annotation": {"number": 88, "value": 35}, "group": "control_change"}, {"time": 536, "annotation": {"number": 64, "value": 66}, "group": "control_change"}, {"time": 536, "annotation": {"number": 64, "value": 34}, "group": "control_change"}, {"time": 536, "annotation": {"number": 64, "value": 0}, "group": "control_change"}, {"time": 540, "annotation": {"number": 64, "value": 15}, "group": "control_change"}, {"time": 540, "annotation": {"number": 64, "value": 71}, "group": "control_change"}, {"time": 540, "annotation": {"number": 64, "value": 123}, "group": "control_change"}, {"time": 541, "annotation": {"number": 64, "value": 127}, "group": "control_change"}, {"time": 544, "annotation": {"number": 64, "value": 124}, "group": "control_change"}, {"time": 544, "annotation": {"number": 64, "value": 115}, "group": "control_change"}, {"time": 544, "annotation": {"number": 64, "value": 113}, "group": "control_change"}, {"time": 545, "annotation": {"number": 64, "value": 112}, "group": "control_change"}, {"time": 545, "annotation": {"number": 64, "value": 113}, "group": "control_change"}, {"time": 545, "annotation": {"number": 64, "value": 123}, "group": "control_change"}, {"time": 546, "annotation": {"number": 64, "value": 127}, "group": "control_change"}, {"time": 548, "annotation": {"number": 88, "value": 16}, "group": "control_change"}, {"time": 550, "annotation": {"number": 88, "value": 15}, "group": "control_change"}, {"time": 558, "annotation": {"number": 88, "value": 116}, "group": "control_change"}, {"time": 565, "annotation": {"number": 88, "value": 0}, "group": "control_change"}, {"time": 568, "annotation": {"number": 88, "value": 106}, "group": "control_change"}, {"time": 571, "annotation": {"number": 88, "value": 45}, "group": "control_change"}, {"time": 582, "annotation": {"number": 88, "value": 83}, "group": "control_change"}, {"time": 582, "annotation": {"number": 64, "value": 121}, "group": "control_change"}, {"time": 582, "annotation": {"number": 64, "value": 107}, "group": "control_change"}, {"time": 583, "annotation": {"number": 88, "value": 100}, "group": "control_change"}, {"time": 583, "annotation": {"number": 64, "value": 85}, "group": "control_change"}, {"time": 583, "annotation": {"number": 64, "value": 57}, "group": "control_change"}, {"time": 584, "annotation": {"number": 64, "value": 13}, "group": "control_change"}, {"time": 584, "annotation": {"number": 64, "value": 0}, "group": "control_change"}, {"time": 587, "annotation": {"number": 64, "value": 46}, "group": "control_change"}, {"time": 587, "annotation": {"number": 64, "value": 98}, "group": "control_change"}, {"time": 588, "annotation": {"number": 64, "value": 127}, "group": "control_change"}, {"time": 591, "annotation": {"number": 64, "value": 124}, "group": "control_change"}, {"time": 592, "annotation": {"number": 64, "value": 122}, "group": "control_change"}, {"time": 592, "annotation": {"number": 64, "value": 127}, "group": "control_change"}, {"time": 597, "annotation": {"number": 88, "value": 5}, "group": "control_change"}, {"time": 598, "annotation": {"number": 88, "value": 61}, "group": "control_change"}, {"time": 607, "annotation": {"number": 88, "value": 30}, "group": "control_change"}, {"time": 619, "annotation": {"number": 88, "value": 4}, "group": "control_change"}, {"time": 620, "annotation": {"number": 88, "value": 93}, "group": "control_change"}, {"time": 630, "annotation": {"number": 88, "value": 124}, "group": "control_change"}, {"time": 631, "annotation": {"number": 88, "value": 7}, "group": "control_change"}, {"time": 631, "annotation": {"number": 64, "value": 111}, "group": "control_change"}, {"time": 632, "annotation": {"number": 64, "value": 60}, "group": "control_change"}, {"time": 632, "annotation": {"number": 64, "value": 8}, "group": "control_change"}, {"time": 632, "annotation": {"number": 64, "value": 0}, "group": "control_change"}, {"time": 635, "annotation": {"number": 64, "value": 41}, "group": "control_change"}, {"time": 636, "annotation": {"number": 64, "value": 97}, "group": "control_change"}, {"time": 636, "annotation": {"number": 64, "value": 127}, "group": "control_change"}, {"time": 639, "annotation": {"number": 64, "value": 125}, "group": "control_change"}, {"time": 640, "annotation": {"number": 64, "value": 122}, "group": "control_change"}, {"time": 640, "annotation": {"number": 64, "value": 121}, "group": "control_change"}, {"time": 640, "annotation": {"number": 64, "value": 124}, "group": "control_change"}, {"time": 641, "annotation": {"number": 64, "value": 127}, "group": "control_change"}, {"time": 646, "annotation": {"number": 88, "value": 36}, "group": "control_change"}, {"time": 654, "annotation": {"number": 88, "value": 92}, "group": "control_change"}, {"time": 654, "annotation": {"number": 88, "value": 38}, "group": "control_change"}, {"time": 656, "annotation": {"number": 88, "value": 73}, "group": "control_change"}, {"time": 662, "annotation": {"number": 88, "value": 44}, "group": "control_change"}, {"time": 663, "annotation": {"number": 88, "value": 70}, "group": "control_change"}, {"time": 665, "annotation": {"number": 88, "value": 76}, "group": "control_change"}, {"time": 677, "annotation": {"number": 88, "value": 27}, "group": "control_change"}, {"time": 678, "annotation": {"number": 64, "value": 119}, "group": "control_change"}, {"time": 678, "annotation": {"number": 64, "value": 88}, "group": "control_change"}, {"time": 679, "annotation": {"number": 64, "value": 46}, "group": "control_change"}, {"time": 679, "annotation": {"number": 64, "value": 8}, "group": "control_change"}, {"time": 679, "annotation": {"number": 64, "value": 0}, "group": "control_change"}, {"time": 682, "annotation": {"number": 64, "value": 34}, "group": "control_change"}, {"time": 682, "annotation": {"number": 64, "value": 92}, "group": "control_change"}, {"time": 683, "annotation": {"number": 64, "value": 127}, "group": "control_change"}, {"time": 689, "annotation": {"number": 88, "value": 40}, "group": "control_change"}, {"time": 690, "annotation": {"number": 88, "value": 48}, "group": "control_change"}, {"time": 701, "annotation": {"number": 88, "value": 83}, "group": "control_change"}, {"time": 710, "annotation": {"number": 88, "value": 88}, "group": "control_change"}, {"time": 711, "annotation": {"number": 88, "value": 94}, "group": "control_change"}, {"time": 712, "annotation": {"number": 88, "value": 19}, "group": "control_change"}, {"time": 714, "annotation": {"number": 88, "value": 67}, "group": "control_change"}, {"time": 724, "annotation": {"number": 64, "value": 118}, "group": "control_change"}, {"time": 724, "annotation": {"number": 64, "value": 85}, "group": "control_change"}, {"time": 724, "annotation": {"number": 64, "value": 56}, "group": "control_change"}, {"time": 725, "annotation": {"number": 64, "value": 22}, "group": "control_change"}, {"time": 725, "annotation": {"number": 88, "value": 11}, "group": "control_change"}, {"time": 725, "annotation": {"number": 64, "value": 0}, "group": "control_change"}, {"time": 727, "annotation": {"number": 64, "value": 22}, "group": "control_change"}, {"time": 728, "annotation": {"number": 64, "value": 55}, "group": "control_change"}, {"time": 728, "annotation": {"number": 64, "value": 98}, "group": "control_change"}, {"time": 729, "annotation": {"number": 64, "value": 127}, "group": "control_change"}, {"time": 731, "annotation": {"number": 88, "value": 13}, "group": "control_change"}, {"time": 734, "annotation": {"number": 88, "value": 30}, "group": "control_change"}, {"time": 737, "annotation": {"number": 88, "value": 2}, "group": "control_change"}, {"time": 745, "annotation": {"number": 88, "value": 26}, "group": "control_change"}, {"time": 749, "annotation": {"number": 88, "value": 87}, "group": "control_change"}, {"time": 750, "annotation": {"number": 88, "value": 64}, "group": "control_change"}, {"time": 756, "annotation": {"number": 88, "value": 84}, "group": "control_change"}, {"time": 759, "annotation": {"number": 88, "value": 84}, "group": "control_change"}, {"time": 760, "annotation": {"number": 88, "value": 74}, "group": "control_change"}, {"time": 762, "annotation": {"number": 88, "value": 109}, "group": "control_change"}, {"time": 763, "annotation": {"number": 88, "value": 0}, "group": "control_change"}, {"time": 773, "annotation": {"number": 88, "value": 28}, "group": "control_change"}, {"time": 774, "annotation": {"number": 64, "value": 104}, "group": "control_change"}, {"time": 774, "annotation": {"number": 64, "value": 66}, "group": "control_change"}, {"time": 775, "annotation": {"number": 64, "value": 34}, "group": "control_change"}, {"time": 775, "annotation": {"number": 64, "value": 0}, "group": "control_change"}, {"time": 778, "annotation": {"number": 64, "value": 7}, "group": "control_change"}, {"time": 778, "annotation": {"number": 64, "value": 54}, "group": "control_change"}, {"time": 779, "annotation": {"number": 64, "value": 114}, "group": "control_change"}, {"time": 779, "annotation": {"number": 64, "value": 127}, "group": "control_change"}, {"time": 783, "annotation": {"number": 88, "value": 73}, "group": "control_change"}, {"time": 784, "annotation": {"number": 88, "value": 66}, "group": "control_change"}, {"time": 797, "annotation": {"number": 88, "value": 56}, "group": "control_change"}, {"time": 797, "annotation": {"number": 88, "value": 112}, "group": "control_change"}, {"time": 800, "annotation": {"number": 88, "value": 84}, "group": "control_change"}, {"time": 809, "annotation": {"number": 88, "value": 34}, "group": "control_change"}, {"time": 810, "annotation": {"number": 88, "value": 4}, "group": "control_change"}, {"time": 811, "annotation": {"number": 88, "value": 95}, "group": "control_change"}, {"time": 821, "annotation": {"number": 88, "value": 5}, "group": "control_change"}, {"time": 824, "annotation": {"number": 64, "value": 121}, "group": "control_change"}, {"time": 824, "annotation": {"number": 64, "value": 91}, "group": "control_change"}, {"time": 825, "annotation": {"number": 64, "value": 48}, "group": "control_change"}, {"time": 825, "annotation": {"number": 64, "value": 1}, "group": "control_change"}, {"time": 825, "annotation": {"number": 64, "value": 0}, "group": "control_change"}, {"time": 828, "annotation": {"number": 64, "value": 1}, "group": "control_change"}, {"time": 828, "annotation": {"number": 64, "value": 65}, "group": "control_change"}, {"time": 829, "annotation": {"number": 64, "value": 127}, "group": "control_change"}, {"time": 834, "annotation": {"number": 88, "value": 94}, "group": "control_change"}, {"time": 837, "annotation": {"number": 88, "value": 94}, "group": "control_change"}, {"time": 841, "annotation": {"number": 88, "value": 106}, "group": "control_change"}, {"time": 845, "annotation": {"number": 88, "value": 15}, "group": "control_change"}, {"time": 855, "annotation": {"number": 88, "value": 126}, "group": "control_change"}, {"time": 856, "annotation": {"number": 88, "value": 46}, "group": "control_change"}, {"time": 868, "annotation": {"number": 88, "value": 121}, "group": "control_change"}, {"time": 869, "annotation": {"number": 64, "value": 124}, "group": "control_change"}, {"time": 869, "annotation": {"number": 64, "value": 90}, "group": "control_change"}, {"time": 870, "annotation": {"number": 64, "value": 51}, "group": "control_change"}, {"time": 870, "annotation": {"number": 64, "value": 18}, "group": "control_change"}, {"time": 871, "annotation": {"number": 64, "value": 0}, "group": "control_change"}, {"time": 873, "annotation": {"number": 64, "value": 49}, "group": "control_change"}, {"time": 874, "annotation": {"number": 64, "value": 101}, "group": "control_change"}, {"time": 874, "annotation": {"number": 64, "value": 127}, "group": "control_change"}, {"time": 883, "annotation": {"number": 88, "value": 2}, "group": "control_change"}, {"time": 892, "annotation": {"number": 88, "value": 48}, "group": "control_change"}, {"time": 899, "annotation": {"number": 88, "value": 70}, "group": "control_change"}, {"time": 903, "annotation": {"number": 88, "value": 85}, "group": "control_change"}, {"time": 905, "annotation": {"number": 88, "value": 96}, "group": "control_change"}, {"time": 906, "annotation": {"number": 88, "value": 126}, "group": "control_change"}, {"time": 911, "annotation": {"number": 88, "value": 49}, "group": "control_change"}, {"time": 914, "annotation": {"number": 64, "value": 16}, "group": "control_change"}, {"time": 915, "annotation": {"number": 64, "value": 39}, "group": "control_change"}, {"time": 915, "annotation": {"number": 64, "value": 63}, "group": "control_change"}, {"time": 915, "annotation": {"number": 64, "value": 84}, "group": "control_change"}, {"time": 916, "annotation": {"number": 64, "value": 97}, "group": "control_change"}, {"time": 916, "annotation": {"number": 64, "value": 109}, "group": "control_change"}, {"time": 916, "annotation": {"number": 88, "value": 120}, "group": "control_change"}, {"time": 917, "annotation": {"number": 64, "value": 119}, "group": "control_change"}, {"time": 917, "annotation": {"number": 64, "value": 126}, "group": "control_change"}, {"time": 917, "annotation": {"number": 64, "value": 127}, "group": "control_change"}, {"time": 918, "annotation": {"number": 64, "value": 118}, "group": "control_change"}, {"time": 918, "annotation": {"number": 64, "value": 113}, "group": "control_change"}, {"time": 918, "annotation": {"number": 64, "value": 110}, "group": "control_change"}, {"time": 919, "annotation": {"number": 64, "value": 106}, "group": "control_change"}, {"time": 919, "annotation": {"number": 64, "value": 101}, "group": "control_change"}, {"time": 919, "annotation": {"number": 64, "value": 95}, "group": "control_change"}, {"time": 920, "annotation": {"number": 64, "value": 81}, "group": "control_change"}, {"time": 920, "annotation": {"number": 64, "value": 65}, "group": "control_change"}, {"time": 921, "annotation": {"number": 64, "value": 54}, "group": "control_change"}, {"time": 921, "annotation": {"number": 64, "value": 40}, "group": "control_change"}, {"time": 921, "annotation": {"number": 64, "value": 28}, "group": "control_change"}, {"time": 922, "annotation": {"number": 64, "value": 19}, "group": "control_change"}, {"time": 922, "annotation": {"number": 64, "value": 10}, "group": "control_change"}, {"time": 923, "annotation": {"number": 64, "value": 2}, "group": "control_change"}, {"time": 923, "annotation": {"number": 64, "value": 0}, "group": "control_change"}, {"time": 929, "annotation": {"number": 88, "value": 76}, "group": "control_change"}, {"time": 930, "annotation": {"number": 88, "value": 5}, "group": "control_change"}, {"time": 939, "annotation": {"number": 88, "value": 16}, "group": "control_change"}, {"time": 939, "annotation": {"number": 88, "value": 14}, "group": "control_change"}, {"time": 950, "annotation": {"number": 88, "value": 31}, "group": "control_change"}, {"time": 951, "annotation": {"number": 88, "value": 72}, "group": "control_change"}, {"time": 963, "annotation": {"number": 64, "value": 24}, "group": "control_change"}, {"time": 963, "annotation": {"number": 88, "value": 109}, "group": "control_change"}, {"time": 963, "annotation": {"number": 64, "value": 43}, "group": "control_change"}, {"time": 964, "annotation": {"number": 88, "value": 65}, "group": "control_change"}, {"time": 964, "annotation": {"number": 64, "value": 60}, "group": "control_change"}, {"time": 964, "annotation": {"number": 64, "value": 76}, "group": "control_change"}, {"time": 964, "annotation": {"number": 64, "value": 86}, "group": "control_change"}, {"time": 965, "annotation": {"number": 64, "value": 97}, "group": "control_change"}, {"time": 965, "annotation": {"number": 64, "value": 104}, "group": "control_change"}, {"time": 966, "annotation": {"number": 64, "value": 108}, "group": "control_change"}, {"time": 966, "annotation": {"number": 64, "value": 117}, "group": "control_change"}, {"time": 966, "annotation": {"number": 64, "value": 114}, "group": "control_change"}, {"time": 966, "annotation": {"number": 64, "value": 95}, "group": "control_change"}, {"time": 966, "annotation": {"number": 64, "value": 119}, "group": "control_change"}, {"time": 967, "annotation": {"number": 64, "value": 124}, "group": "control_change"}, {"time": 967, "annotation": {"number": 64, "value": 62}, "group": "control_change"}, {"time": 967, "annotation": {"number": 64, "value": 27}, "group": "control_change"}, {"time": 967, "annotation": {"number": 64, "value": 127}, "group": "control_change"}, {"time": 968, "annotation": {"number": 64, "value": 2}, "group": "control_change"}, {"time": 968, "annotation": {"number": 64, "value": 0}, "group": "control_change"}, {"time": 975, "annotation": {"number": 88, "value": 117}, "group": "control_change"}, {"time": 975, "annotation": {"number": 88, "value": 54}, "group": "control_change"}, {"time": 977, "annotation": {"number": 88, "value": 14}, "group": "control_change"}, {"time": 988, "annotation": {"number": 88, "value": 10}, "group": "control_change"}, {"time": 990, "annotation": {"number": 88, "value": 66}, "group": "control_change"}, {"time": 992, "annotation": {"number": 88, "value": 121}, "group": "control_change"}, {"time": 998, "annotation": {"number": 88, "value": 0}, "group": "control_change"}, {"time": 999, "annotation": {"number": 88, "value": 64}, "group": "control_change"}, {"time": 1001, "annotation": {"number": 88, "value": 30}, "group": "control_change"}, {"time": 1012, "annotation": {"number": 88, "value": 99}, "group": "control_change"}, {"time": 1013, "annotation": {"number": 88, "value": 11}, "group": "control_change"}, {"time": 1014, "annotation": {"number": 64, "value": 100}, "group": "control_change"}, {"time": 1014, "annotation": {"number": 64, "value": 54}, "group": "control_change"}, {"time": 1014, "annotation": {"number": 88, "value": 105}, "group": "control_change"}, {"time": 1015, "annotation": {"number": 64, "value": 9}, "group": "control_change"}, {"time": 1015, "annotation": {"number": 64, "value": 0}, "group": "control_change"}, {"time": 1018, "annotation": {"number": 64, "value": 29}, "group": "control_change"}, {"time": 1018, "annotation": {"number": 64, "value": 79}, "group": "control_change"}, {"time": 1019, "annotation": {"number": 64, "value": 115}, "group": "control_change"}, {"time": 1019, "annotation": {"number": 64, "value": 127}, "group": "control_change"}, {"time": 1021, "annotation": {"number": 64, "value": 106}, "group": "control_change"}, {"time": 1021, "annotation": {"number": 64, "value": 84}, "group": "control_change"}, {"time": 1022, "annotation": {"number": 64, "value": 67}, "group": "control_change"}, {"time": 1022, "annotation": {"number": 64, "value": 60}, "group": "control_change"}, {"time": 1023, "annotation": {"number": 64, "value": 58}, "group": "control_change"}, {"time": 1023, "annotation": {"number": 64, "value": 57}, "group": "control_change"}, {"time": 1023, "annotation": {"number": 64, "value": 65}, "group": "control_change"}, {"time": 1024, "annotation": {"number": 64, "value": 95}, "group": "control_change"}, {"time": 1024, "annotation": {"number": 64, "value": 127}, "group": "control_change"}, {"time": 1026, "annotation": {"number": 88, "value": 48}, "group": "control_change"}, {"time": 1027, "annotation": {"number": 88, "value": 51}, "group": "control_change"}, {"time": 1028, "annotation": {"number": 64, "value": 123}, "group": "control_change"}, {"time": 1028, "annotation": {"number": 64, "value": 120}, "group": "control_change"}, {"time": 1028, "annotation": {"number": 64, "value": 119}, "group": "control_change"}, {"time": 1029, "annotation": {"number": 64, "value": 124}, "group": "control_change"}, {"time": 1030, "annotation": {"number": 64, "value": 127}, "group": "control_change"}, {"time": 1035, "annotation": {"number": 88, "value": 15}, "group": "control_change"}, {"time": 1044, "annotation": {"number": 88, "value": 79}, "group": "control_change"}, {"time": 1046, "annotation": {"number": 88, "value": 25}, "group": "control_change"}, {"time": 1058, "annotation": {"number": 64, "value": 108}, "group": "control_change"}, {"time": 1059, "annotation": {"number": 88, "value": 86}, "group": "control_change"}, {"time": 1059, "annotation": {"number": 64, "value": 80}, "group": "control_change"}, {"time": 1059, "annotation": {"number": 64, "value": 48}, "group": "control_change"}, {"time": 1059, "annotation": {"number": 64, "value": 23}, "group": "control_change"}, {"time": 1060, "annotation": {"number": 64, "value": 10}, "group": "control_change"}, {"time": 1060, "annotation": {"number": 64, "value": 3}, "group": "control_change"}, {"time": 1061, "annotation": {"number": 64, "value": 0}, "group": "control_change"}, {"time": 1061, "annotation": {"number": 64, "value": 18}, "group": "control_change"}, {"time": 1062, "annotation": {"number": 64, "value": 54}, "group": "control_change"}, {"time": 1062, "annotation": {"number": 64, "value": 93}, "group": "control_change"}, {"time": 1063, "annotation": {"number": 64, "value": 127}, "group": "control_change"}, {"time": 1066, "annotation": {"number": 64, "value": 126}, "group": "control_change"}, {"time": 1068, "annotation": {"number": 64, "value": 127}, "group": "control_change"}, {"time": 1069, "annotation": {"number": 88, "value": 52}, "group": "control_change"}, {"time": 1070, "annotation": {"number": 88, "value": 55}, "group": "control_change"}, {"time": 1082, "annotation": {"number": 88, "value": 66}, "group": "control_change"}, {"time": 1083, "annotation": {"number": 64, "value": 123}, "group": "control_change"}, {"time": 1083, "annotation": {"number": 64, "value": 122}, "group": "control_change"}, {"time": 1083, "annotation": {"number": 64, "value": 124}, "group": "control_change"}, {"time": 1084, "annotation": {"number": 88, "value": 10}, "group": "control_change"}, {"time": 1084, "annotation": {"number": 64, "value": 127}, "group": "control_change"}, {"time": 1088, "annotation": {"number": 88, "value": 22}, "group": "control_change"}, {"time": 1089, "annotation": {"number": 88, "value": 92}, "group": "control_change"}, {"time": 1094, "annotation": {"number": 88, "value": 39}, "group": "control_change"}, {"time": 1095, "annotation": {"number": 88, "value": 23}, "group": "control_change"}, {"time": 1097, "annotation": {"number": 88, "value": 34}, "group": "control_change"}, {"time": 1106, "annotation": {"number": 88, "value": 68}, "group": "control_change"}, {"time": 1122, "annotation": {"number": 88, "value": 110}, "group": "control_change"}, {"time": 1123, "annotation": {"number": 88, "value": 105}, "group": "control_change"}, {"time": 1129, "annotation": {"number": 88, "value": 90}, "group": "control_change"}, {"time": 1135, "annotation": {"number": 88, "value": 28}, "group": "control_change"}, {"time": 1138, "annotation": {"number": 88, "value": 120}, "group": "control_change"}, {"time": 1140, "annotation": {"number": 88, "value": 25}, "group": "control_change"}, {"time": 1141, "annotation": {"number": 88, "value": 23}, "group": "control_change"}, {"time": 1145, "annotation": {"number": 64, "value": 122}, "group": "control_change"}, {"time": 1146, "annotation": {"number": 64, "value": 116}, "group": "control_change"}, {"time": 1146, "annotation": {"number": 64, "value": 107}, "group": "control_change"}, {"time": 1146, "annotation": {"number": 64, "value": 95}, "group": "control_change"}, {"time": 1147, "annotation": {"number": 64, "value": 84}, "group": "control_change"}, {"time": 1147, "annotation": {"number": 88, "value": 43}, "group": "control_change"}, {"time": 1147, "annotation": {"number": 64, "value": 71}, "group": "control_change"}, {"time": 1148, "annotation": {"number": 64, "value": 59}, "group": "control_change"}, {"time": 1148, "annotation": {"number": 64, "value": 47}, "group": "control_change"}, {"time": 1148, "annotation": {"number": 88, "value": 110}, "group": "control_change"}, {"time": 1148, "annotation": {"number": 64, "value": 31}, "group": "control_change"}, {"time": 1149, "annotation": {"number": 64, "value": 14}, "group": "control_change"}, {"time": 1149, "annotation": {"number": 64, "value": 0}, "group": "control_change"}, {"time": 1149, "annotation": {"number": 88, "value": 116}, "group": "control_change"}, {"time": 1167, "annotation": {"number": 64, "value": 127}, "group": "control_change"}, {"time": 1206, "annotation": {"number": 64, "value": 0}, "group": "control_change"}, {"time": 1212, "annotation": {"number": 64, "value": 127}, "group": "control_change"}, {"time": 1255, "annotation": {"number": 64, "value": 0}, "group": "control_change"}, {"time": 1260, "annotation": {"number": 64, "value": 127}, "group": "control_change"}, {"time": 1303, "annotation": {"number": 64, "value": 0}, "group": "control_change"}, {"time": 1307, "annotation": {"number": 64, "value": 127}, "group": "control_change"}, {"time": 1351, "annotation": {"number": 64, "value": 0}, "group": "control_change"}, {"time": 1355, "annotation": {"number": 64, "value": 127}, "group": "control_change"}, {"time": 1398, "annotation": {"number": 64, "value": 0}, "group": "control_change"}, {"time": 1403, "annotation": {"number": 64, "value": 127}, "group": "control_change"}, {"time": 1447, "annotation": {"number": 64, "value": 0}, "group": "control_change"}, {"time": 1452, "annotation": {"number": 64, "value": 127}, "group": "control_change"}, {"time": 1495, "annotation": {"number": 64, "value": 0}, "group": "control_change"}, {"time": 1500, "annotation": {"number": 64, "value": 127}, "group": "control_change"}, {"time": 1543, "annotation": {"number": 64, "value": 0}, "group": "control_change"}, {"time": 1548, "annotation": {"number": 64, "value": 127}, "group": "control_change"}, {"time": 1592, "annotation": {"number": 64, "value": 0}, "group": "control_change"}, {"time": 1598, "annotation": {"number": 64, "value": 127}, "group": "control_change"}, {"time": 1639, "annotation": {"number": 64, "value": 0}, "group": "control_change"}, {"time": 1644, "annotation": {"number": 64, "value": 127}, "group": "control_change"}, {"time": 1686, "annotation": {"number": 64, "value": 127}, "group": "control_change"}, {"time": 1688, "annotation": {"number": 64, "value": 0}, "group": "control_change"}, {"time": 1735, "annotation": {"number": 64, "value": 127}, "group": "control_change"}, {"time": 1782, "annotation": {"number": 64, "value": 0}, "group": "control_change"}, {"time": 1786, "annotation": {"number": 64, "value": 127}, "group": "control_change"}, {"time": 1830, "annotation": {"number": 64, "value": 0}, "group": "control_change"}, {"time": 1834, "annotation": {"number": 64, "value": 127}, "group": "control_change"}, {"time": 1925, "annotation": {"number": 64, "value": 0}, "group": "control_change"}, {"time": 1928, "annotation": {"number": 64, "value": 127}, "group": "control_change"}, {"time": 1976, "annotation": {"number": 64, "value": 0}, "group": "control_change"}, {"time": 1980, "annotation": {"number": 64, "value": 127}, "group": "control_change"}, {"time": 2023, "annotation": {"number": 64, "value": 0}, "group": "control_change"}, {"time": 2027, "annotation": {"number": 64, "value": 127}, "group": "control_change"}, {"time": 2069, "annotation": {"number": 64, "value": 0}, "group": "control_change"}, {"time": 2072, "annotation": {"number": 64, "value": 0}, "group": "control_change"}, {"time": 2076, "annotation": {"number": 64, "value": 127}, "group": "control_change"}, {"time": 2118, "annotation": {"number": 64, "value": 0}, "group": "control_change"}, {"time": 2123, "annotation": {"number": 64, "value": 127}, "group": "control_change"}, {"time": 2168, "annotation": {"number": 64, "value": 0}, "group": "control_change"}, {"time": 2172, "annotation": {"number": 64, "value": 127}, "group": "control_change"}, {"time": 2216, "annotation": {"number": 64, "value": 0}, "group": "control_change"}, {"time": 2221, "annotation": {"number": 64, "value": 127}, "group": "control_change"}, {"time": 2265, "annotation": {"number": 64, "value": 0}, "group": "control_change"}, {"time": 2269, "annotation": {"number": 64, "value": 127}, "group": "control_change"}, {"time": 2312, "annotation": {"number": 64, "value": 0}, "group": "control_change"}, {"time": 2316, "annotation": {"number": 64, "value": 127}, "group": "control_change"}, {"time": 2358, "annotation": {"number": 64, "value": 0}, "group": "control_change"}, {"time": 2360, "annotation": {"number": 64, "value": 127}, "group": "control_change"}, {"time": 2406, "annotation": {"number": 64, "value": 0}, "group": "control_change"}, {"time": 2411, "annotation": {"number": 64, "value": 127}, "group": "control_change"}, {"time": 2453, "annotation": {"number": 64, "value": 0}, "group": "control_change"}, {"time": 2459, "annotation": {"number": 64, "value": 127}, "group": "control_change"}, {"time": 2502, "annotation": {"number": 64, "value": 0}, "group": "control_change"}, {"time": 2507, "annotation": {"number": 64, "value": 127}, "group": "control_change"}, {"time": 2554, "annotation": {"number": 64, "value": 0}, "group": "control_change"}, {"time": 2558, "annotation": {"number": 64, "value": 127}, "group": "control_change"}, {"time": 2597, "annotation": {"number": 64, "value": 127}, "group": "control_change"}, {"time": 2647, "annotation": {"number": 64, "value": 0}, "group": "control_change"}, {"time": 2651, "annotation": {"number": 64, "value": 127}, "group": "control_change"}, {"time": 2696, "annotation": {"number": 64, "value": 0}, "group": "control_change"}, {"time": 2701, "annotation": {"number": 64, "value": 127}, "group": "control_change"}, {"time": 2791, "annotation": {"number": 64, "value": 0}, "group": "control_change"}, {"time": 2795, "annotation": {"number": 64, "value": 127}, "group": "control_change"}, {"time": 2840, "annotation": {"number": 64, "value": 0}, "group": "control_change"}, {"time": 2844, "annotation": {"number": 64, "value": 127}, "group": "control_change"}, {"time": 2888, "annotation": {"number": 64, "value": 0}, "group": "control_change"}, {"time": 2892, "annotation": {"number": 64, "value": 127}, "group": "control_change"}, {"time": 2933, "annotation": {"number": 64, "value": 0}, "group": "control_change"}, {"time": 2936, "annotation": {"number": 64, "value": 127}, "group": "control_change"}, {"time": 2958, "annotation": {"number": 64, "value": 0}, "group": "control_change"}, {"time": 2962, "annotation": {"number": 64, "value": 127}, "group": "control_change"}, {"time": 2983, "annotation": {"number": 64, "value": 0}, "group": "control_change"}, {"time": 2991, "annotation": {"number": 64, "value": 127}, "group": "control_change"}, {"time": 3030, "annotation": {"number": 64, "value": 0}, "group": "control_change"}, {"time": 3036, "annotation": {"number": 64, "value": 127}, "group": "control_change"}, {"time": 3079, "annotation": {"number": 64, "value": 0}, "group": "control_change"}, {"time": 3084, "annotation": {"number": 64, "value": 127}, "group": "control_change"}, {"time": 3127, "annotation": {"number": 64, "value": 0}, "group": "control_change"}, {"time": 3131, "annotation": {"number": 64, "value": 127}, "group": "control_change"}, {"time": 3175, "annotation": {"number": 64, "value": 0}, "group": "control_change"}, {"time": 3179, "annotation": {"number": 64, "value": 127}, "group": "control_change"}, {"time": 3222, "annotation": {"number": 64, "value": 0}, "group": "control_change"}, {"time": 3227, "annotation": {"number": 64, "value": 127}, "group": "control_change"}, {"time": 3271, "annotation": {"number": 64, "value": 0}, "group": "control_change"}, {"time": 3276, "annotation": {"number": 64, "value": 127}, "group": "control_change"}, {"time": 3319, "annotation": {"number": 64, "value": 0}, "group": "control_change"}, {"time": 3324, "annotation": {"number": 64, "value": 127}, "group": "control_change"}, {"time": 3367, "annotation": {"number": 64, "value": 0}, "group": "control_change"}, {"time": 3372, "annotation": {"number": 64, "value": 127}, "group": "control_change"}, {"time": 3416, "annotation": {"number": 64, "value": 0}, "group": "control_change"}, {"time": 3422, "annotation": {"number": 64, "value": 127}, "group": "control_change"}, {"time": 3463, "annotation": {"number": 64, "value": 0}, "group": "control_change"}, {"time": 3468, "annotation": {"number": 64, "value": 127}, "group": "control_change"}, {"time": 3510, "annotation": {"number": 64, "value": 127}, "group": "control_change"}, {"time": 3512, "annotation": {"number": 64, "value": 0}, "group": "control_change"}, {"time": 3559, "annotation": {"number": 64, "value": 127}, "group": "control_change"}, {"time": 3606, "annotation": {"number": 64, "value": 0}, "group": "control_change"}, {"time": 3610, "annotation": {"number": 64, "value": 127}, "group": "control_change"}, {"time": 3654, "annotation": {"number": 64, "value": 0}, "group": "control_change"}, {"time": 3658, "annotation": {"number": 64, "value": 127}, "group": "control_change"}, {"time": 3749, "annotation": {"number": 64, "value": 0}, "group": "control_change"}, {"time": 3752, "annotation": {"number": 64, "value": 127}, "group": "control_change"}, {"time": 3800, "annotation": {"number": 64, "value": 0}, "group": "control_change"}, {"time": 3804, "annotation": {"number": 64, "value": 127}, "group": "control_change"}, {"time": 3847, "annotation": {"number": 64, "value": 0}, "group": "control_change"}, {"time": 3851, "annotation": {"number": 64, "value": 127}, "group": "control_change"}, {"time": 3893, "annotation": {"number": 64, "value": 0}, "group": "control_change"}, {"time": 3896, "annotation": {"number": 64, "value": 0}, "group": "control_change"}, {"time": 3900, "annotation": {"number": 64, "value": 127}, "group": "control_change"}, {"time": 3942, "annotation": {"number": 64, "value": 0}, "group": "control_change"}, {"time": 3947, "annotation": {"number": 64, "value": 127}, "group": "control_change"}, {"time": 3992, "annotation": {"number": 64, "value": 0}, "group": "control_change"}, {"time": 3996, "annotation": {"number": 64, "value": 127}, "group": "control_change"}, {"time": 4040, "annotation": {"number": 64, "value": 0}, "group": "control_change"}, {"time": 4045, "annotation": {"number": 64, "value": 127}, "group": "control_change"}, {"time": 4089, "annotation": {"number": 64, "value": 0}, "group": "control_change"}, {"time": 4093, "annotation": {"number": 64, "value": 127}, "group": "control_change"}, {"time": 4136, "annotation": {"number": 64, "value": 0}, "group": "control_change"}, {"time": 4140, "annotation": {"number": 64, "value": 127}, "group": "control_change"}, {"time": 4182, "annotation": {"number": 64, "value": 0}, "group": "control_change"}, {"time": 4184, "annotation": {"number": 64, "value": 127}, "group": "control_change"}, {"time": 4230, "annotation": {"number": 64, "value": 0}, "group": "control_change"}, {"time": 4235, "annotation": {"number": 64, "value": 127}, "group": "control_change"}, {"time": 4277, "annotation": {"number": 64, "value": 0}, "group": "control_change"}, {"time": 4283, "annotation": {"number": 64, "value": 127}, "group": "control_change"}, {"time": 4326, "annotation": {"number": 64, "value": 0}, "group": "control_change"}, {"time": 4331, "annotation": {"number": 64, "value": 127}, "group": "control_change"}, {"time": 4378, "annotation": {"number": 64, "value": 0}, "group": "control_change"}, {"time": 4382, "annotation": {"number": 64, "value": 127}, "group": "control_change"}, {"time": 4422, "annotation": {"number": 64, "value": 0}, "group": "control_change"}, {"time": 4423, "annotation": {"number": 64, "value": 127}, "group": "control_change"}, {"time": 4468, "annotation": {"number": 64, "value": 0}, "group": "control_change"}, {"time": 4470, "annotation": {"number": 64, "value": 127}, "group": "control_change"}, {"time": 4518, "annotation": {"number": 64, "value": 0}, "group": "control_change"}, {"time": 4523, "annotation": {"number": 64, "value": 127}, "group": "control_change"}, {"time": 4568, "annotation": {"number": 64, "value": 0}, "group": "control_change"}, {"time": 4573, "annotation": {"number": 64, "value": 127}, "group": "control_change"}, {"time": 4616, "annotation": {"number": 64, "value": 0}, "group": "control_change"}, {"time": 4621, "annotation": {"number": 64, "value": 127}, "group": "control_change"}, {"time": 4663, "annotation": {"number": 64, "value": 0}, "group": "control_change"}, {"time": 4668, "annotation": {"number": 64, "value": 127}, "group": "control_change"}, {"time": 4712, "annotation": {"number": 64, "value": 0}, "group": "control_change"}, {"time": 4717, "annotation": {"number": 64, "value": 127}, "group": "control_change"}, {"time": 4761, "annotation": {"number": 64, "value": 0}, "group": "control_change"}, {"time": 4765, "annotation": {"number": 64, "value": 127}, "group": "control_change"}, {"time": 4807, "annotation": {"number": 64, "value": 0}, "group": "control_change"}, {"time": 4811, "annotation": {"number": 64, "value": 127}, "group": "control_change"}, {"time": 4857, "annotation": {"number": 64, "value": 0}, "group": "control_change"}, {"time": 4861, "annotation": {"number": 64, "value": 127}, "group": "control_change"}, {"time": 4904, "annotation": {"number": 64, "value": 0}, "group": "control_change"}, {"time": 4909, "annotation": {"number": 64, "value": 127}, "group": "control_change"}, {"time": 4953, "annotation": {"number": 64, "value": 0}, "group": "control_change"}, {"time": 4957, "annotation": {"number": 64, "value": 127}, "group": "control_change"}, {"time": 5001, "annotation": {"number": 64, "value": 0}, "group": "control_change"}, {"time": 5006, "annotation": {"number": 64, "value": 127}, "group": "control_change"}, {"time": 5045, "annotation": {"number": 64, "value": 0}, "group": "control_change"}, {"time": 5047, "annotation": {"number": 64, "value": 127}, "group": "control_change"}, {"time": 5145, "annotation": {"number": 64, "value": 127}, "group": "control_change"}, {"time": 5150, "annotation": {"number": 64, "value": 0}, "group": "control_change"}, {"time": 5189, "annotation": {"number": 64, "value": 0}, "group": "control_change"}, {"time": 5195, "annotation": {"number": 64, "value": 127}, "group": "control_change"}, {"time": 5238, "annotation": {"number": 64, "value": 0}, "group": "control_change"}, {"time": 5239, "annotation": {"number": 64, "value": 127}, "group": "control_change"}, {"time": 5336, "annotation": {"number": 64, "value": 0}, "group": "control_change"}, {"time": 5342, "annotation": {"number": 64, "value": 127}, "group": "control_change"}, {"time": 5383, "annotation": {"number": 64, "value": 0}, "group": "control_change"}, {"time": 5386, "annotation": {"number": 64, "value": 127}, "group": "control_change"}, {"time": 5429, "annotation": {"number": 64, "value": 0}, "group": "control_change"}, {"time": 5434, "annotation": {"number": 64, "value": 127}, "group": "control_change"}, {"time": 5588, "annotation": {"number": 64, "value": 0}, "group": "control_change"}]}]}