{"metadata": {"schema_version": "0.2", "title": "None", "source_filename": "195.mid", "source_format": "midi"}, "resolution": 12, "tempos": [{"time": 0, "qpm": 97.9999836666694}, {"time": 3264, "qpm": 98.99993565004183}, {"time": 3360, "qpm": 96.99995311668933}, {"time": 3408, "qpm": 100.0}, {"time": 3456, "qpm": 96.99995311668933}, {"time": 3504, "qpm": 97.9999836666694}, {"time": 3552, "qpm": 98.99993565004183}, {"time": 3600, "qpm": 96.99995311668933}, {"time": 3648, "qpm": 94.99999208333399}, {"time": 3696, "qpm": 100.0}, {"time": 3792, "qpm": 96.99995311668933}, {"time": 3888, "qpm": 100.0}, {"time": 3936, "qpm": 96.99995311668933}, {"time": 3960, "qpm": 100.0}, {"time": 3984, "qpm": 96.0}, {"time": 4008, "qpm": 100.0}, {"time": 4056, "qpm": 96.0}, {"time": 4080, "qpm": 96.99995311668933}, {"time": 4128, "qpm": 100.0}, {"time": 4164, "qpm": 94.99999208333399}, {"time": 4176, "qpm": 100.0}, {"time": 4200, "qpm": 96.0}, {"time": 4212, "qpm": 94.99999208333399}, {"time": 4224, "qpm": 100.0}, {"time": 4260, "qpm": 96.0}, {"time": 4272, "qpm": 97.9999836666694}, {"time": 4320, "qpm": 100.0}, {"time": 4368, "qpm": 95.28649472748063}, {"time": 4371, "qpm": 95.85981460711855}, {"time": 4374, "qpm": 96.43325532954458}, {"time": 4377, "qpm": 97.00669669562855}, {"time": 4380, "qpm": 97.5800156128025}, {"time": 4383, "qpm": 98.15340723194305}, {"time": 4386, "qpm": 98.72691641285621}, {"time": 4389, "qpm": 99.30026413870262}, {"time": 4392, "qpm": 99.87365982032729}, {"time": 4395, "qpm": 100.45506142827006}, {"time": 4398, "qpm": 100.75008437819567}, {"time": 4416, "qpm": 100.50032411354526}], "time_signatures": [{"time": 0, "numerator": 4, "denominator": 4}], "tracks": [{"program": 4, "is_drum": false, "name": "MELODY", "notes": [{"time": 507, "pitch": 67, "duration": 15, "velocity": 87}, {"time": 525, "pitch": 74, "duration": 7, "velocity": 96}, {"time": 531, "pitch": 72, "duration": 6, "velocity": 93}, {"time": 537, "pitch": 74, "duration": 7, "velocity": 87}, {"time": 543, "pitch": 70, "duration": 6, "velocity": 93}, {"time": 549, "pitch": 69, "duration": 6, "velocity": 92}, {"time": 555, "pitch": 67, "duration": 31, "velocity": 105}, {"time": 603, "pitch": 74, "duration": 9, "velocity": 99}, {"time": 615, "pitch": 74, "duration": 5, "velocity": 97}, {"time": 621, "pitch": 67, "duration": 7, "velocity": 84}, {"time": 627, "pitch": 70, "duration": 6, "velocity": 98}, {"time": 633, "pitch": 72, "duration": 7, "velocity": 100}, {"time": 639, "pitch": 74, "duration": 13, "velocity": 98}, {"time": 651, "pitch": 72, "duration": 28, "velocity": 111}, {"time": 699, "pitch": 74, "duration": 10, "velocity": 103}, {"time": 711, "pitch": 74, "duration": 5, "velocity": 97}, {"time": 717, "pitch": 67, "duration": 6, "velocity": 80}, {"time": 723, "pitch": 70, "duration": 8, "velocity": 91}, {"time": 735, "pitch": 70, "duration": 7, "velocity": 97}, {"time": 741, "pitch": 72, "duration": 7, "velocity": 97}, {"time": 747, "pitch": 74, "duration": 4, "velocity": 98}, {"time": 753, "pitch": 74, "duration": 4, "velocity": 94}, {"time": 759, "pitch": 74, "duration": 5, "velocity": 92}, {"time": 765, "pitch": 67, "duration": 6, "velocity": 91}, {"time": 771, "pitch": 70, "duration": 14, "velocity": 103}, {"time": 795, "pitch": 69, "duration": 17, "velocity": 95}, {"time": 813, "pitch": 67, "duration": 6, "velocity": 66}, {"time": 819, "pitch": 65, "duration": 7, "velocity": 79}, {"time": 825, "pitch": 67, "duration": 3, "velocity": 55}, {"time": 828, "pitch": 65, "duration": 3, "velocity": 79}, {"time": 831, "pitch": 62, "duration": 8, "velocity": 73}, {"time": 837, "pitch": 65, "duration": 7, "velocity": 76}, {"time": 843, "pitch": 67, "duration": 31, "velocity": 105}, {"time": 891, "pitch": 70, "duration": 18, "velocity": 101}, {"time": 915, "pitch": 70, "duration": 14, "velocity": 97}, {"time": 933, "pitch": 69, "duration": 6, "velocity": 96}, {"time": 939, "pitch": 67, "duration": 6, "velocity": 87}, {"time": 945, "pitch": 69, "duration": 7, "velocity": 87}, {"time": 951, "pitch": 67, "duration": 6, "velocity": 92}, {"time": 957, "pitch": 65, "duration": 7, "velocity": 87}, {"time": 963, "pitch": 62, "duration": 16, "velocity": 98}, {"time": 987, "pitch": 74, "duration": 4, "velocity": 103}, {"time": 993, "pitch": 74, "duration": 8, "velocity": 96}, {"time": 1005, "pitch": 67, "duration": 5, "velocity": 93}, {"time": 1011, "pitch": 70, "duration": 6, "velocity": 97}, {"time": 1017, "pitch": 72, "duration": 7, "velocity": 98}, {"time": 1023, "pitch": 74, "duration": 12, "velocity": 105}, {"time": 1035, "pitch": 72, "duration": 38, "velocity": 109}, {"time": 1083, "pitch": 74, "duration": 4, "velocity": 99}, {"time": 1089, "pitch": 74, "duration": 3, "velocity": 96}, {"time": 1095, "pitch": 74, "duration": 5, "velocity": 96}, {"time": 1101, "pitch": 67, "duration": 6, "velocity": 93}, {"time": 1107, "pitch": 70, "duration": 14, "velocity": 99}, {"time": 1125, "pitch": 72, "duration": 7, "velocity": 101}, {"time": 1131, "pitch": 74, "duration": 4, "velocity": 97}, {"time": 1137, "pitch": 74, "duration": 3, "velocity": 97}, {"time": 1143, "pitch": 74, "duration": 6, "velocity": 96}, {"time": 1149, "pitch": 67, "duration": 7, "velocity": 96}, {"time": 1155, "pitch": 70, "duration": 14, "velocity": 105}, {"time": 1179, "pitch": 69, "duration": 3, "velocity": 97}, {"time": 1185, "pitch": 69, "duration": 3, "velocity": 94}, {"time": 1191, "pitch": 69, "duration": 6, "velocity": 93}, {"time": 1197, "pitch": 67, "duration": 6, "velocity": 90}, {"time": 1203, "pitch": 65, "duration": 6, "velocity": 91}, {"time": 1209, "pitch": 67, "duration": 4, "velocity": 63}, {"time": 1212, "pitch": 65, "duration": 3, "velocity": 90}, {"time": 1215, "pitch": 62, "duration": 7, "velocity": 84}, {"time": 1221, "pitch": 65, "duration": 6, "velocity": 83}, {"time": 1227, "pitch": 67, "duration": 41, "velocity": 108}, {"time": 1323, "pitch": 67, "duration": 5, "velocity": 90}, {"time": 1329, "pitch": 67, "duration": 8, "velocity": 91}, {"time": 1341, "pitch": 74, "duration": 7, "velocity": 101}, {"time": 1347, "pitch": 72, "duration": 6, "velocity": 93}, {"time": 1353, "pitch": 74, "duration": 7, "velocity": 87}, {"time": 1359, "pitch": 70, "duration": 6, "velocity": 95}, {"time": 1365, "pitch": 69, "duration": 6, "velocity": 92}, {"time": 1371, "pitch": 67, "duration": 42, "velocity": 103}, {"time": 1419, "pitch": 74, "duration": 10, "velocity": 108}, {"time": 1431, "pitch": 74, "duration": 5, "velocity": 98}, {"time": 1437, "pitch": 67, "duration": 5, "velocity": 89}, {"time": 1443, "pitch": 70, "duration": 6, "velocity": 90}, {"time": 1449, "pitch": 72, "duration": 8, "velocity": 97}, {"time": 1455, "pitch": 74, "duration": 12, "velocity": 105}, {"time": 1467, "pitch": 72, "duration": 34, "velocity": 109}, {"time": 1515, "pitch": 74, "duration": 9, "velocity": 100}, {"time": 1527, "pitch": 74, "duration": 6, "velocity": 101}, {"time": 1533, "pitch": 67, "duration": 5, "velocity": 87}, {"time": 1539, "pitch": 70, "duration": 10, "velocity": 98}, {"time": 1551, "pitch": 70, "duration": 5, "velocity": 108}, {"time": 1557, "pitch": 72, "duration": 7, "velocity": 93}, {"time": 1563, "pitch": 74, "duration": 4, "velocity": 103}, {"time": 1569, "pitch": 74, "duration": 3, "velocity": 100}, {"time": 1575, "pitch": 74, "duration": 6, "velocity": 103}, {"time": 1581, "pitch": 67, "duration": 6, "velocity": 92}, {"time": 1587, "pitch": 70, "duration": 16, "velocity": 97}, {"time": 1611, "pitch": 69, "duration": 3, "velocity": 103}, {"time": 1617, "pitch": 69, "duration": 2, "velocity": 96}, {"time": 1623, "pitch": 69, "duration": 7, "velocity": 93}, {"time": 1629, "pitch": 67, "duration": 6, "velocity": 90}, {"time": 1635, "pitch": 65, "duration": 6, "velocity": 87}, {"time": 1641, "pitch": 67, "duration": 4, "velocity": 80}, {"time": 1644, "pitch": 65, "duration": 3, "velocity": 86}, {"time": 1647, "pitch": 62, "duration": 7, "velocity": 90}, {"time": 1653, "pitch": 65, "duration": 7, "velocity": 93}, {"time": 1659, "pitch": 67, "duration": 36, "velocity": 97}, {"time": 1707, "pitch": 70, "duration": 18, "velocity": 108}, {"time": 1731, "pitch": 70, "duration": 15, "velocity": 100}, {"time": 1749, "pitch": 69, "duration": 5, "velocity": 100}, {"time": 1755, "pitch": 67, "duration": 4, "velocity": 87}, {"time": 1761, "pitch": 69, "duration": 5, "velocity": 94}, {"time": 1767, "pitch": 67, "duration": 6, "velocity": 89}, {"time": 1773, "pitch": 65, "duration": 7, "velocity": 103}, {"time": 1779, "pitch": 62, "duration": 13, "velocity": 94}, {"time": 1803, "pitch": 74, "duration": 4, "velocity": 100}, {"time": 1809, "pitch": 74, "duration": 8, "velocity": 100}, {"time": 1821, "pitch": 67, "duration": 5, "velocity": 92}, {"time": 1827, "pitch": 70, "duration": 6, "velocity": 98}, {"time": 1833, "pitch": 72, "duration": 7, "velocity": 96}, {"time": 1839, "pitch": 74, "duration": 13, "velocity": 106}, {"time": 1851, "pitch": 72, "duration": 33, "velocity": 103}, {"time": 1899, "pitch": 74, "duration": 4, "velocity": 99}, {"time": 1905, "pitch": 74, "duration": 3, "velocity": 95}, {"time": 1911, "pitch": 74, "duration": 5, "velocity": 99}, {"time": 1917, "pitch": 67, "duration": 6, "velocity": 93}, {"time": 1923, "pitch": 70, "duration": 14, "velocity": 103}, {"time": 1941, "pitch": 72, "duration": 6, "velocity": 98}, {"time": 1947, "pitch": 74, "duration": 9, "velocity": 103}, {"time": 1959, "pitch": 74, "duration": 6, "velocity": 97}, {"time": 1965, "pitch": 67, "duration": 6, "velocity": 93}, {"time": 1971, "pitch": 70, "duration": 11, "velocity": 100}, {"time": 1995, "pitch": 69, "duration": 3, "velocity": 99}, {"time": 2001, "pitch": 69, "duration": 3, "velocity": 97}, {"time": 2007, "pitch": 69, "duration": 7, "velocity": 89}, {"time": 2013, "pitch": 67, "duration": 6, "velocity": 93}, {"time": 2019, "pitch": 65, "duration": 6, "velocity": 83}, {"time": 2025, "pitch": 67, "duration": 4, "velocity": 90}, {"time": 2028, "pitch": 65, "duration": 3, "velocity": 84}, {"time": 2031, "pitch": 62, "duration": 6, "velocity": 84}, {"time": 2037, "pitch": 65, "duration": 6, "velocity": 93}, {"time": 2043, "pitch": 67, "duration": 34, "velocity": 108}, {"time": 2091, "pitch": 74, "duration": 3, "velocity": 97}, {"time": 2097, "pitch": 74, "duration": 3, "velocity": 95}, {"time": 2103, "pitch": 74, "duration": 5, "velocity": 98}, {"time": 2109, "pitch": 67, "duration": 5, "velocity": 93}, {"time": 2115, "pitch": 70, "duration": 15, "velocity": 98}, {"time": 2133, "pitch": 72, "duration": 7, "velocity": 103}, {"time": 2139, "pitch": 74, "duration": 4, "velocity": 98}, {"time": 2145, "pitch": 74, "duration": 4, "velocity": 99}, {"time": 2151, "pitch": 74, "duration": 5, "velocity": 97}, {"time": 2157, "pitch": 67, "duration": 6, "velocity": 90}, {"time": 2163, "pitch": 70, "duration": 16, "velocity": 96}, {"time": 2187, "pitch": 69, "duration": 3, "velocity": 97}, {"time": 2193, "pitch": 69, "duration": 4, "velocity": 100}, {"time": 2199, "pitch": 69, "duration": 6, "velocity": 101}, {"time": 2205, "pitch": 67, "duration": 7, "velocity": 98}, {"time": 2211, "pitch": 65, "duration": 7, "velocity": 98}, {"time": 2217, "pitch": 67, "duration": 4, "velocity": 85}, {"time": 2220, "pitch": 65, "duration": 3, "velocity": 90}, {"time": 2223, "pitch": 62, "duration": 6, "velocity": 91}, {"time": 2229, "pitch": 65, "duration": 6, "velocity": 90}, {"time": 2235, "pitch": 67, "duration": 37, "velocity": 106}, {"time": 2523, "pitch": 67, "duration": 15, "velocity": 87}, {"time": 2541, "pitch": 74, "duration": 7, "velocity": 96}, {"time": 2547, "pitch": 72, "duration": 6, "velocity": 93}, {"time": 2553, "pitch": 74, "duration": 7, "velocity": 87}, {"time": 2559, "pitch": 70, "duration": 6, "velocity": 93}, {"time": 2565, "pitch": 69, "duration": 6, "velocity": 92}, {"time": 2571, "pitch": 67, "duration": 31, "velocity": 105}, {"time": 2619, "pitch": 74, "duration": 9, "velocity": 99}, {"time": 2631, "pitch": 74, "duration": 5, "velocity": 97}, {"time": 2637, "pitch": 67, "duration": 7, "velocity": 84}, {"time": 2643, "pitch": 70, "duration": 6, "velocity": 98}, {"time": 2649, "pitch": 72, "duration": 7, "velocity": 100}, {"time": 2655, "pitch": 74, "duration": 13, "velocity": 98}, {"time": 2667, "pitch": 72, "duration": 28, "velocity": 111}, {"time": 2715, "pitch": 74, "duration": 10, "velocity": 103}, {"time": 2727, "pitch": 74, "duration": 5, "velocity": 97}, {"time": 2733, "pitch": 67, "duration": 6, "velocity": 80}, {"time": 2739, "pitch": 70, "duration": 8, "velocity": 91}, {"time": 2751, "pitch": 70, "duration": 7, "velocity": 97}, {"time": 2757, "pitch": 72, "duration": 7, "velocity": 97}, {"time": 2763, "pitch": 74, "duration": 7, "velocity": 98}, {"time": 2775, "pitch": 74, "duration": 5, "velocity": 92}, {"time": 2781, "pitch": 67, "duration": 6, "velocity": 91}, {"time": 2787, "pitch": 70, "duration": 14, "velocity": 103}, {"time": 2811, "pitch": 69, "duration": 6, "velocity": 95}, {"time": 2817, "pitch": 69, "duration": 1, "velocity": 95}, {"time": 2820, "pitch": 69, "duration": 1, "velocity": 95}, {"time": 2829, "pitch": 67, "duration": 6, "velocity": 66}, {"time": 2835, "pitch": 65, "duration": 7, "velocity": 79}, {"time": 2841, "pitch": 67, "duration": 3, "velocity": 55}, {"time": 2844, "pitch": 65, "duration": 3, "velocity": 79}, {"time": 2847, "pitch": 62, "duration": 8, "velocity": 73}, {"time": 2853, "pitch": 65, "duration": 7, "velocity": 76}, {"time": 2859, "pitch": 67, "duration": 31, "velocity": 105}, {"time": 2907, "pitch": 70, "duration": 18, "velocity": 101}, {"time": 2931, "pitch": 70, "duration": 14, "velocity": 97}, {"time": 2949, "pitch": 69, "duration": 6, "velocity": 96}, {"time": 2955, "pitch": 67, "duration": 6, "velocity": 87}, {"time": 2961, "pitch": 69, "duration": 7, "velocity": 87}, {"time": 2967, "pitch": 67, "duration": 6, "velocity": 92}, {"time": 2973, "pitch": 65, "duration": 7, "velocity": 87}, {"time": 2979, "pitch": 62, "duration": 16, "velocity": 98}, {"time": 3003, "pitch": 74, "duration": 4, "velocity": 103}, {"time": 3009, "pitch": 74, "duration": 8, "velocity": 96}, {"time": 3021, "pitch": 67, "duration": 5, "velocity": 93}, {"time": 3027, "pitch": 70, "duration": 6, "velocity": 97}, {"time": 3033, "pitch": 72, "duration": 7, "velocity": 98}, {"time": 3039, "pitch": 74, "duration": 12, "velocity": 105}, {"time": 3051, "pitch": 72, "duration": 38, "velocity": 109}, {"time": 3099, "pitch": 74, "duration": 4, "velocity": 99}, {"time": 3105, "pitch": 74, "duration": 3, "velocity": 96}, {"time": 3111, "pitch": 74, "duration": 5, "velocity": 96}, {"time": 3117, "pitch": 67, "duration": 6, "velocity": 93}, {"time": 3123, "pitch": 70, "duration": 14, "velocity": 99}, {"time": 3141, "pitch": 72, "duration": 7, "velocity": 101}, {"time": 3147, "pitch": 74, "duration": 4, "velocity": 97}, {"time": 3153, "pitch": 74, "duration": 3, "velocity": 97}, {"time": 3159, "pitch": 74, "duration": 6, "velocity": 96}, {"time": 3165, "pitch": 67, "duration": 7, "velocity": 96}, {"time": 3171, "pitch": 70, "duration": 14, "velocity": 105}, {"time": 3195, "pitch": 69, "duration": 3, "velocity": 97}, {"time": 3201, "pitch": 69, "duration": 3, "velocity": 94}, {"time": 3207, "pitch": 69, "duration": 6, "velocity": 93}, {"time": 3213, "pitch": 67, "duration": 6, "velocity": 90}, {"time": 3219, "pitch": 65, "duration": 6, "velocity": 91}, {"time": 3225, "pitch": 67, "duration": 4, "velocity": 63}, {"time": 3228, "pitch": 65, "duration": 3, "velocity": 90}, {"time": 3231, "pitch": 62, "duration": 7, "velocity": 84}, {"time": 3237, "pitch": 65, "duration": 6, "velocity": 83}, {"time": 3243, "pitch": 67, "duration": 47, "velocity": 108}, {"time": 3339, "pitch": 67, "duration": 12, "velocity": 90}, {"time": 3357, "pitch": 74, "duration": 7, "velocity": 101}, {"time": 3363, "pitch": 72, "duration": 6, "velocity": 93}, {"time": 3369, "pitch": 74, "duration": 7, "velocity": 87}, {"time": 3375, "pitch": 70, "duration": 6, "velocity": 95}, {"time": 3381, "pitch": 69, "duration": 6, "velocity": 92}, {"time": 3387, "pitch": 67, "duration": 42, "velocity": 103}, {"time": 3435, "pitch": 74, "duration": 10, "velocity": 108}, {"time": 3447, "pitch": 74, "duration": 5, "velocity": 98}, {"time": 3453, "pitch": 67, "duration": 5, "velocity": 89}, {"time": 3459, "pitch": 70, "duration": 6, "velocity": 90}, {"time": 3465, "pitch": 72, "duration": 8, "velocity": 97}, {"time": 3471, "pitch": 74, "duration": 12, "velocity": 105}, {"time": 3477, "pitch": 72, "duration": 6, "velocity": 100}, {"time": 3483, "pitch": 72, "duration": 34, "velocity": 109}, {"time": 3531, "pitch": 74, "duration": 9, "velocity": 100}, {"time": 3543, "pitch": 74, "duration": 6, "velocity": 101}, {"time": 3549, "pitch": 67, "duration": 5, "velocity": 87}, {"time": 3555, "pitch": 70, "duration": 10, "velocity": 98}, {"time": 3567, "pitch": 70, "duration": 5, "velocity": 108}, {"time": 3573, "pitch": 72, "duration": 7, "velocity": 93}, {"time": 3579, "pitch": 74, "duration": 4, "velocity": 103}, {"time": 3585, "pitch": 74, "duration": 3, "velocity": 100}, {"time": 3591, "pitch": 74, "duration": 5, "velocity": 103}, {"time": 3597, "pitch": 67, "duration": 6, "velocity": 92}, {"time": 3603, "pitch": 70, "duration": 16, "velocity": 97}, {"time": 3627, "pitch": 69, "duration": 20, "velocity": 103}, {"time": 3645, "pitch": 67, "duration": 6, "velocity": 90}, {"time": 3651, "pitch": 65, "duration": 6, "velocity": 87}, {"time": 3657, "pitch": 67, "duration": 4, "velocity": 80}, {"time": 3660, "pitch": 65, "duration": 3, "velocity": 86}, {"time": 3663, "pitch": 62, "duration": 7, "velocity": 90}, {"time": 3669, "pitch": 65, "duration": 7, "velocity": 93}, {"time": 3675, "pitch": 67, "duration": 36, "velocity": 97}, {"time": 3723, "pitch": 70, "duration": 18, "velocity": 108}, {"time": 3747, "pitch": 70, "duration": 15, "velocity": 100}, {"time": 3765, "pitch": 69, "duration": 5, "velocity": 100}, {"time": 3771, "pitch": 67, "duration": 5, "velocity": 87}, {"time": 3777, "pitch": 69, "duration": 5, "velocity": 94}, {"time": 3783, "pitch": 67, "duration": 6, "velocity": 89}, {"time": 3789, "pitch": 65, "duration": 7, "velocity": 103}, {"time": 3795, "pitch": 62, "duration": 13, "velocity": 94}, {"time": 3819, "pitch": 74, "duration": 4, "velocity": 100}, {"time": 3825, "pitch": 74, "duration": 8, "velocity": 100}, {"time": 3837, "pitch": 67, "duration": 5, "velocity": 92}, {"time": 3843, "pitch": 70, "duration": 6, "velocity": 98}, {"time": 3849, "pitch": 72, "duration": 7, "velocity": 96}, {"time": 3855, "pitch": 74, "duration": 13, "velocity": 106}, {"time": 3867, "pitch": 72, "duration": 33, "velocity": 103}, {"time": 3915, "pitch": 74, "duration": 4, "velocity": 99}, {"time": 3921, "pitch": 74, "duration": 3, "velocity": 95}, {"time": 3927, "pitch": 74, "duration": 5, "velocity": 99}, {"time": 3933, "pitch": 67, "duration": 6, "velocity": 93}, {"time": 3939, "pitch": 70, "duration": 14, "velocity": 103}, {"time": 3957, "pitch": 72, "duration": 6, "velocity": 98}, {"time": 3963, "pitch": 74, "duration": 9, "velocity": 103}, {"time": 3975, "pitch": 74, "duration": 6, "velocity": 97}, {"time": 3981, "pitch": 67, "duration": 6, "velocity": 93}, {"time": 3987, "pitch": 70, "duration": 11, "velocity": 100}, {"time": 4011, "pitch": 69, "duration": 3, "velocity": 99}, {"time": 4017, "pitch": 69, "duration": 3, "velocity": 97}, {"time": 4023, "pitch": 69, "duration": 7, "velocity": 89}, {"time": 4029, "pitch": 67, "duration": 6, "velocity": 93}, {"time": 4035, "pitch": 65, "duration": 6, "velocity": 83}, {"time": 4041, "pitch": 67, "duration": 4, "velocity": 90}, {"time": 4044, "pitch": 65, "duration": 3, "velocity": 84}, {"time": 4047, "pitch": 62, "duration": 6, "velocity": 84}, {"time": 4053, "pitch": 65, "duration": 6, "velocity": 93}, {"time": 4059, "pitch": 67, "duration": 34, "velocity": 108}, {"time": 4107, "pitch": 74, "duration": 3, "velocity": 97}, {"time": 4113, "pitch": 74, "duration": 3, "velocity": 95}, {"time": 4119, "pitch": 74, "duration": 5, "velocity": 98}, {"time": 4125, "pitch": 67, "duration": 5, "velocity": 93}, {"time": 4131, "pitch": 70, "duration": 15, "velocity": 98}, {"time": 4149, "pitch": 72, "duration": 7, "velocity": 103}, {"time": 4155, "pitch": 74, "duration": 4, "velocity": 98}, {"time": 4161, "pitch": 74, "duration": 4, "velocity": 99}, {"time": 4167, "pitch": 74, "duration": 5, "velocity": 97}, {"time": 4173, "pitch": 67, "duration": 6, "velocity": 90}, {"time": 4179, "pitch": 70, "duration": 16, "velocity": 96}, {"time": 4203, "pitch": 69, "duration": 3, "velocity": 97}, {"time": 4209, "pitch": 69, "duration": 4, "velocity": 100}, {"time": 4215, "pitch": 69, "duration": 6, "velocity": 101}, {"time": 4221, "pitch": 67, "duration": 7, "velocity": 98}, {"time": 4227, "pitch": 65, "duration": 7, "velocity": 98}, {"time": 4233, "pitch": 67, "duration": 4, "velocity": 85}, {"time": 4236, "pitch": 65, "duration": 3, "velocity": 90}, {"time": 4239, "pitch": 62, "duration": 6, "velocity": 91}, {"time": 4245, "pitch": 65, "duration": 6, "velocity": 90}, {"time": 4251, "pitch": 67, "duration": 37, "velocity": 106}, {"time": 4299, "pitch": 69, "duration": 4, "velocity": 97}, {"time": 4305, "pitch": 69, "duration": 3, "velocity": 92}, {"time": 4311, "pitch": 69, "duration": 7, "velocity": 84}, {"time": 4317, "pitch": 67, "duration": 6, "velocity": 89}, {"time": 4323, "pitch": 65, "duration": 15, "velocity": 87}, {"time": 4335, "pitch": 62, "duration": 48, "velocity": 67}, {"time": 4383, "pitch": 65, "duration": 25, "velocity": 94}, {"time": 4407, "pitch": 67, "duration": 83, "velocity": 92}], "annotations": [{"time": 2163, "annotation": {"number": 64, "value": 127}, "group": "control_change"}, {"time": 2179, "annotation": {"number": 64, "value": 0}, "group": "control_change"}, {"time": 4179, "annotation": {"number": 64, "value": 127}, "group": "control_change"}, {"time": 4195, "annotation": {"number": 64, "value": 0}, "group": "control_change"}, {"time": 4300, "annotation": {"number": 64, "value": 127}, "group": "control_change"}, {"time": 4307, "annotation": {"number": 64, "value": 0}, "group": "control_change"}, {"time": 4326, "annotation": {"number": 64, "value": 127}, "group": "control_change"}, {"time": 4336, "annotation": {"number": 64, "value": 0}, "group": "control_change"}]}, {"program": 0, "is_drum": false, "name": "PIANO", "notes": [{"time": 27, "pitch": 43, "duration": 33, "velocity": 66}, {"time": 27, "pitch": 55, "duration": 33, "velocity": 64}, {"time": 27, "pitch": 67, "duration": 5, "velocity": 70}, {"time": 33, "pitch": 58, "duration": 5, "velocity": 47}, {"time": 39, "pitch": 67, "duration": 4, "velocity": 49}, {"time": 45, "pitch": 58, "duration": 5, "velocity": 39}, {"time": 51, "pitch": 67, "duration": 4, "velocity": 47}, {"time": 57, "pitch": 58, "duration": 5, "velocity": 49}, {"time": 63, "pitch": 67, "duration": 5, "velocity": 62}, {"time": 69, "pitch": 58, "duration": 7, "velocity": 57}, {"time": 75, "pitch": 43, "duration": 37, "velocity": 60}, {"time": 75, "pitch": 55, "duration": 38, "velocity": 54}, {"time": 75, "pitch": 62, "duration": 7, "velocity": 64}, {"time": 75, "pitch": 67, "duration": 6, "velocity": 64}, {"time": 81, "pitch": 58, "duration": 6, "velocity": 59}, {"time": 87, "pitch": 62, "duration": 7, "velocity": 55}, {"time": 87, "pitch": 67, "duration": 6, "velocity": 63}, {"time": 93, "pitch": 58, "duration": 6, "velocity": 52}, {"time": 99, "pitch": 62, "duration": 6, "velocity": 64}, {"time": 99, "pitch": 67, "duration": 5, "velocity": 60}, {"time": 105, "pitch": 58, "duration": 6, "velocity": 60}, {"time": 111, "pitch": 62, "duration": 6, "velocity": 69}, {"time": 111, "pitch": 67, "duration": 4, "velocity": 67}, {"time": 117, "pitch": 58, "duration": 7, "velocity": 55}, {"time": 123, "pitch": 43, "duration": 34, "velocity": 67}, {"time": 123, "pitch": 55, "duration": 33, "velocity": 57}, {"time": 123, "pitch": 62, "duration": 6, "velocity": 72}, {"time": 123, "pitch": 67, "duration": 5, "velocity": 69}, {"time": 129, "pitch": 58, "duration": 8, "velocity": 59}, {"time": 135, "pitch": 62, "duration": 6, "velocity": 63}, {"time": 135, "pitch": 67, "duration": 7, "velocity": 72}, {"time": 141, "pitch": 58, "duration": 7, "velocity": 57}, {"time": 147, "pitch": 62, "duration": 5, "velocity": 67}, {"time": 147, "pitch": 67, "duration": 4, "velocity": 69}, {"time": 153, "pitch": 58, "duration": 5, "velocity": 55}, {"time": 159, "pitch": 62, "duration": 5, "velocity": 66}, {"time": 159, "pitch": 67, "duration": 3, "velocity": 70}, {"time": 165, "pitch": 48, "duration": 6, "velocity": 59}, {"time": 165, "pitch": 58, "duration": 5, "velocity": 60}, {"time": 171, "pitch": 43, "duration": 36, "velocity": 76}, {"time": 171, "pitch": 62, "duration": 6, "velocity": 69}, {"time": 171, "pitch": 67, "duration": 7, "velocity": 67}, {"time": 177, "pitch": 58, "duration": 4, "velocity": 47}, {"time": 183, "pitch": 62, "duration": 6, "velocity": 61}, {"time": 183, "pitch": 67, "duration": 8, "velocity": 61}, {"time": 189, "pitch": 58, "duration": 8, "velocity": 48}, {"time": 195, "pitch": 62, "duration": 5, "velocity": 61}, {"time": 195, "pitch": 67, "duration": 9, "velocity": 59}, {"time": 201, "pitch": 58, "duration": 5, "velocity": 49}, {"time": 207, "pitch": 62, "duration": 6, "velocity": 72}, {"time": 207, "pitch": 67, "duration": 4, "velocity": 63}, {"time": 213, "pitch": 58, "duration": 6, "velocity": 51}, {"time": 219, "pitch": 36, "duration": 37, "velocity": 58}, {"time": 219, "pitch": 48, "duration": 38, "velocity": 46}, {"time": 219, "pitch": 63, "duration": 5, "velocity": 61}, {"time": 219, "pitch": 67, "duration": 6, "velocity": 58}, {"time": 225, "pitch": 60, "duration": 8, "velocity": 58}, {"time": 231, "pitch": 63, "duration": 6, "velocity": 57}, {"time": 231, "pitch": 67, "duration": 8, "velocity": 52}, {"time": 237, "pitch": 60, "duration": 8, "velocity": 53}, {"time": 243, "pitch": 63, "duration": 5, "velocity": 62}, {"time": 243, "pitch": 67, "duration": 8, "velocity": 47}, {"time": 249, "pitch": 60, "duration": 8, "velocity": 57}, {"time": 255, "pitch": 63, "duration": 6, "velocity": 62}, {"time": 255, "pitch": 67, "duration": 5, "velocity": 64}, {"time": 261, "pitch": 60, "duration": 7, "velocity": 56}, {"time": 267, "pitch": 43, "duration": 40, "velocity": 56}, {"time": 267, "pitch": 55, "duration": 40, "velocity": 59}, {"time": 267, "pitch": 62, "duration": 7, "velocity": 70}, {"time": 267, "pitch": 67, "duration": 8, "velocity": 67}, {"time": 273, "pitch": 58, "duration": 7, "velocity": 54}, {"time": 279, "pitch": 62, "duration": 7, "velocity": 69}, {"time": 279, "pitch": 67, "duration": 8, "velocity": 66}, {"time": 285, "pitch": 58, "duration": 7, "velocity": 62}, {"time": 291, "pitch": 62, "duration": 6, "velocity": 66}, {"time": 291, "pitch": 67, "duration": 8, "velocity": 70}, {"time": 297, "pitch": 58, "duration": 8, "velocity": 66}, {"time": 303, "pitch": 62, "duration": 12, "velocity": 82}, {"time": 303, "pitch": 67, "duration": 6, "velocity": 73}, {"time": 309, "pitch": 50, "duration": 7, "velocity": 78}, {"time": 315, "pitch": 43, "duration": 35, "velocity": 72}, {"time": 315, "pitch": 55, "duration": 33, "velocity": 82}, {"time": 315, "pitch": 58, "duration": 1, "velocity": 54}, {"time": 315, "pitch": 62, "duration": 7, "velocity": 60}, {"time": 315, "pitch": 67, "duration": 7, "velocity": 73}, {"time": 321, "pitch": 58, "duration": 7, "velocity": 59}, {"time": 327, "pitch": 62, "duration": 7, "velocity": 70}, {"time": 327, "pitch": 67, "duration": 8, "velocity": 61}, {"time": 333, "pitch": 58, "duration": 5, "velocity": 61}, {"time": 339, "pitch": 62, "duration": 6, "velocity": 66}, {"time": 339, "pitch": 67, "duration": 7, "velocity": 69}, {"time": 345, "pitch": 58, "duration": 5, "velocity": 59}, {"time": 351, "pitch": 62, "duration": 7, "velocity": 63}, {"time": 351, "pitch": 67, "duration": 3, "velocity": 61}, {"time": 357, "pitch": 58, "duration": 5, "velocity": 69}, {"time": 363, "pitch": 38, "duration": 35, "velocity": 66}, {"time": 363, "pitch": 50, "duration": 37, "velocity": 60}, {"time": 363, "pitch": 62, "duration": 8, "velocity": 70}, {"time": 363, "pitch": 65, "duration": 6, "velocity": 59}, {"time": 369, "pitch": 57, "duration": 7, "velocity": 63}, {"time": 375, "pitch": 62, "duration": 8, "velocity": 66}, {"time": 375, "pitch": 65, "duration": 4, "velocity": 46}, {"time": 381, "pitch": 57, "duration": 8, "velocity": 59}, {"time": 387, "pitch": 62, "duration": 7, "velocity": 72}, {"time": 387, "pitch": 65, "duration": 5, "velocity": 70}, {"time": 393, "pitch": 57, "duration": 6, "velocity": 59}, {"time": 399, "pitch": 62, "duration": 4, "velocity": 54}, {"time": 399, "pitch": 65, "duration": 5, "velocity": 52}, {"time": 405, "pitch": 57, "duration": 5, "velocity": 59}, {"time": 411, "pitch": 43, "duration": 92, "velocity": 62}, {"time": 411, "pitch": 62, "duration": 7, "velocity": 70}, {"time": 411, "pitch": 67, "duration": 7, "velocity": 69}, {"time": 417, "pitch": 50, "duration": 56, "velocity": 58}, {"time": 417, "pitch": 58, "duration": 7, "velocity": 56}, {"time": 423, "pitch": 62, "duration": 7, "velocity": 67}, {"time": 429, "pitch": 65, "duration": 7, "velocity": 54}, {"time": 435, "pitch": 67, "duration": 3, "velocity": 63}, {"time": 441, "pitch": 70, "duration": 5, "velocity": 62}, {"time": 447, "pitch": 72, "duration": 4, "velocity": 82}, {"time": 453, "pitch": 74, "duration": 8, "velocity": 59}, {"time": 459, "pitch": 55, "duration": 20, "velocity": 51}, {"time": 459, "pitch": 79, "duration": 6, "velocity": 64}, {"time": 477, "pitch": 50, "duration": 22, "velocity": 49}, {"time": 483, "pitch": 57, "duration": 6, "velocity": 69}, {"time": 489, "pitch": 58, "duration": 5, "velocity": 67}, {"time": 495, "pitch": 62, "duration": 6, "velocity": 73}, {"time": 501, "pitch": 67, "duration": 7, "velocity": 51}, {"time": 507, "pitch": 43, "duration": 42, "velocity": 64}, {"time": 513, "pitch": 55, "duration": 37, "velocity": 70}, {"time": 519, "pitch": 57, "duration": 7, "velocity": 58}, {"time": 525, "pitch": 58, "duration": 6, "velocity": 67}, {"time": 531, "pitch": 62, "duration": 5, "velocity": 63}, {"time": 537, "pitch": 58, "duration": 7, "velocity": 64}, {"time": 543, "pitch": 67, "duration": 7, "velocity": 67}, {"time": 549, "pitch": 65, "duration": 15, "velocity": 64}, {"time": 555, "pitch": 43, "duration": 42, "velocity": 66}, {"time": 561, "pitch": 55, "duration": 19, "velocity": 69}, {"time": 567, "pitch": 58, "duration": 8, "velocity": 69}, {"time": 573, "pitch": 62, "duration": 12, "velocity": 67}, {"time": 579, "pitch": 67, "duration": 18, "velocity": 70}, {"time": 585, "pitch": 55, "duration": 13, "velocity": 48}, {"time": 591, "pitch": 58, "duration": 7, "velocity": 50}, {"time": 597, "pitch": 65, "duration": 18, "velocity": 62}, {"time": 603, "pitch": 43, "duration": 40, "velocity": 70}, {"time": 609, "pitch": 50, "duration": 33, "velocity": 72}, {"time": 615, "pitch": 55, "duration": 14, "velocity": 70}, {"time": 621, "pitch": 58, "duration": 13, "velocity": 54}, {"time": 627, "pitch": 62, "duration": 7, "velocity": 72}, {"time": 633, "pitch": 55, "duration": 8, "velocity": 59}, {"time": 639, "pitch": 58, "duration": 8, "velocity": 60}, {"time": 645, "pitch": 65, "duration": 15, "velocity": 66}, {"time": 651, "pitch": 41, "duration": 37, "velocity": 67}, {"time": 657, "pitch": 48, "duration": 33, "velocity": 64}, {"time": 663, "pitch": 53, "duration": 13, "velocity": 66}, {"time": 669, "pitch": 57, "duration": 12, "velocity": 49}, {"time": 675, "pitch": 60, "duration": 7, "velocity": 70}, {"time": 681, "pitch": 53, "duration": 17, "velocity": 63}, {"time": 687, "pitch": 57, "duration": 7, "velocity": 57}, {"time": 693, "pitch": 65, "duration": 7, "velocity": 66}, {"time": 699, "pitch": 43, "duration": 39, "velocity": 73}, {"time": 699, "pitch": 62, "duration": 13, "velocity": 70}, {"time": 705, "pitch": 50, "duration": 35, "velocity": 63}, {"time": 711, "pitch": 55, "duration": 12, "velocity": 72}, {"time": 717, "pitch": 57, "duration": 5, "velocity": 49}, {"time": 723, "pitch": 58, "duration": 6, "velocity": 75}, {"time": 729, "pitch": 55, "duration": 10, "velocity": 62}, {"time": 735, "pitch": 58, "duration": 5, "velocity": 62}, {"time": 741, "pitch": 62, "duration": 15, "velocity": 69}, {"time": 747, "pitch": 43, "duration": 38, "velocity": 72}, {"time": 753, "pitch": 50, "duration": 32, "velocity": 72}, {"time": 759, "pitch": 55, "duration": 13, "velocity": 69}, {"time": 765, "pitch": 57, "duration": 5, "velocity": 61}, {"time": 771, "pitch": 58, "duration": 7, "velocity": 73}, {"time": 777, "pitch": 55, "duration": 8, "velocity": 57}, {"time": 783, "pitch": 57, "duration": 5, "velocity": 55}, {"time": 789, "pitch": 62, "duration": 9, "velocity": 61}, {"time": 795, "pitch": 38, "duration": 37, "velocity": 64}, {"time": 795, "pitch": 62, "duration": 3, "velocity": 56}, {"time": 801, "pitch": 50, "duration": 18, "velocity": 62}, {"time": 807, "pitch": 53, "duration": 8, "velocity": 53}, {"time": 813, "pitch": 57, "duration": 11, "velocity": 64}, {"time": 819, "pitch": 53, "duration": 2, "velocity": 29}, {"time": 819, "pitch": 62, "duration": 14, "velocity": 73}, {"time": 825, "pitch": 50, "duration": 9, "velocity": 47}, {"time": 831, "pitch": 53, "duration": 6, "velocity": 56}, {"time": 837, "pitch": 60, "duration": 6, "velocity": 63}, {"time": 843, "pitch": 43, "duration": 38, "velocity": 62}, {"time": 843, "pitch": 58, "duration": 12, "velocity": 63}, {"time": 849, "pitch": 50, "duration": 31, "velocity": 55}, {"time": 855, "pitch": 55, "duration": 26, "velocity": 63}, {"time": 861, "pitch": 57, "duration": 5, "velocity": 64}, {"time": 867, "pitch": 58, "duration": 3, "velocity": 61}, {"time": 873, "pitch": 62, "duration": 6, "velocity": 76}, {"time": 879, "pitch": 67, "duration": 5, "velocity": 56}, {"time": 885, "pitch": 69, "duration": 6, "velocity": 61}, {"time": 891, "pitch": 51, "duration": 41, "velocity": 60}, {"time": 891, "pitch": 74, "duration": 17, "velocity": 61}, {"time": 897, "pitch": 58, "duration": 39, "velocity": 52}, {"time": 903, "pitch": 63, "duration": 14, "velocity": 52}, {"time": 909, "pitch": 67, "duration": 13, "velocity": 45}, {"time": 915, "pitch": 70, "duration": 8, "velocity": 47}, {"time": 921, "pitch": 63, "duration": 17, "velocity": 46}, {"time": 927, "pitch": 67, "duration": 13, "velocity": 54}, {"time": 933, "pitch": 74, "duration": 7, "velocity": 60}, {"time": 939, "pitch": 55, "duration": 38, "velocity": 56}, {"time": 939, "pitch": 72, "duration": 13, "velocity": 62}, {"time": 945, "pitch": 62, "duration": 34, "velocity": 49}, {"time": 951, "pitch": 67, "duration": 26, "velocity": 45}, {"time": 957, "pitch": 69, "duration": 7, "velocity": 40}, {"time": 963, "pitch": 70, "duration": 12, "velocity": 55}, {"time": 975, "pitch": 72, "duration": 11, "velocity": 52}, {"time": 987, "pitch": 55, "duration": 31, "velocity": 52}, {"time": 987, "pitch": 74, "duration": 13, "velocity": 47}, {"time": 993, "pitch": 62, "duration": 28, "velocity": 56}, {"time": 999, "pitch": 67, "duration": 18, "velocity": 43}, {"time": 1005, "pitch": 69, "duration": 8, "velocity": 55}, {"time": 1011, "pitch": 70, "duration": 5, "velocity": 56}, {"time": 1017, "pitch": 72, "duration": 5, "velocity": 56}, {"time": 1023, "pitch": 74, "duration": 6, "velocity": 46}, {"time": 1029, "pitch": 77, "duration": 7, "velocity": 44}, {"time": 1035, "pitch": 53, "duration": 32, "velocity": 44}, {"time": 1035, "pitch": 72, "duration": 13, "velocity": 56}, {"time": 1041, "pitch": 60, "duration": 19, "velocity": 55}, {"time": 1047, "pitch": 65, "duration": 17, "velocity": 43}, {"time": 1053, "pitch": 67, "duration": 11, "velocity": 46}, {"time": 1059, "pitch": 72, "duration": 11, "velocity": 58}, {"time": 1065, "pitch": 60, "duration": 9, "velocity": 44}, {"time": 1071, "pitch": 67, "duration": 5, "velocity": 39}, {"time": 1077, "pitch": 69, "duration": 10, "velocity": 59}, {"time": 1083, "pitch": 55, "duration": 30, "velocity": 49}, {"time": 1089, "pitch": 62, "duration": 18, "velocity": 46}, {"time": 1095, "pitch": 67, "duration": 19, "velocity": 48}, {"time": 1101, "pitch": 69, "duration": 9, "velocity": 44}, {"time": 1107, "pitch": 70, "duration": 8, "velocity": 53}, {"time": 1113, "pitch": 62, "duration": 10, "velocity": 46}, {"time": 1119, "pitch": 72, "duration": 6, "velocity": 56}, {"time": 1125, "pitch": 74, "duration": 3, "velocity": 48}, {"time": 1131, "pitch": 55, "duration": 33, "velocity": 46}, {"time": 1131, "pitch": 70, "duration": 12, "velocity": 44}, {"time": 1131, "pitch": 74, "duration": 13, "velocity": 55}, {"time": 1137, "pitch": 62, "duration": 19, "velocity": 54}, {"time": 1143, "pitch": 67, "duration": 15, "velocity": 49}, {"time": 1149, "pitch": 69, "duration": 8, "velocity": 44}, {"time": 1155, "pitch": 70, "duration": 9, "velocity": 62}, {"time": 1161, "pitch": 62, "duration": 6, "velocity": 60}, {"time": 1167, "pitch": 72, "duration": 6, "velocity": 61}, {"time": 1173, "pitch": 74, "duration": 7, "velocity": 57}, {"time": 1179, "pitch": 50, "duration": 36, "velocity": 45}, {"time": 1179, "pitch": 69, "duration": 11, "velocity": 53}, {"time": 1185, "pitch": 57, "duration": 17, "velocity": 40}, {"time": 1191, "pitch": 62, "duration": 8, "velocity": 47}, {"time": 1197, "pitch": 65, "duration": 7, "velocity": 41}, {"time": 1203, "pitch": 69, "duration": 7, "velocity": 64}, {"time": 1209, "pitch": 60, "duration": 9, "velocity": 46}, {"time": 1215, "pitch": 65, "duration": 6, "velocity": 55}, {"time": 1221, "pitch": 69, "duration": 5, "velocity": 57}, {"time": 1227, "pitch": 43, "duration": 38, "velocity": 44}, {"time": 1227, "pitch": 62, "duration": 11, "velocity": 52}, {"time": 1227, "pitch": 70, "duration": 9, "velocity": 64}, {"time": 1233, "pitch": 50, "duration": 37, "velocity": 48}, {"time": 1239, "pitch": 55, "duration": 27, "velocity": 46}, {"time": 1245, "pitch": 57, "duration": 6, "velocity": 50}, {"time": 1251, "pitch": 58, "duration": 7, "velocity": 49}, {"time": 1257, "pitch": 60, "duration": 6, "velocity": 37}, {"time": 1263, "pitch": 62, "duration": 5, "velocity": 56}, {"time": 1269, "pitch": 57, "duration": 16, "velocity": 44}, {"time": 1275, "pitch": 43, "duration": 41, "velocity": 59}, {"time": 1281, "pitch": 50, "duration": 33, "velocity": 53}, {"time": 1287, "pitch": 55, "duration": 26, "velocity": 51}, {"time": 1293, "pitch": 57, "duration": 7, "velocity": 44}, {"time": 1299, "pitch": 58, "duration": 11, "velocity": 70}, {"time": 1311, "pitch": 57, "duration": 5, "velocity": 48}, {"time": 1311, "pitch": 60, "duration": 6, "velocity": 54}, {"time": 1317, "pitch": 58, "duration": 5, "velocity": 60}, {"time": 1317, "pitch": 62, "duration": 5, "velocity": 61}, {"time": 1323, "pitch": 43, "duration": 41, "velocity": 64}, {"time": 1323, "pitch": 58, "duration": 14, "velocity": 64}, {"time": 1323, "pitch": 62, "duration": 12, "velocity": 66}, {"time": 1329, "pitch": 50, "duration": 32, "velocity": 56}, {"time": 1335, "pitch": 55, "duration": 13, "velocity": 50}, {"time": 1341, "pitch": 57, "duration": 7, "velocity": 49}, {"time": 1347, "pitch": 58, "duration": 10, "velocity": 67}, {"time": 1353, "pitch": 55, "duration": 11, "velocity": 58}, {"time": 1359, "pitch": 60, "duration": 5, "velocity": 64}, {"time": 1365, "pitch": 62, "duration": 19, "velocity": 60}, {"time": 1371, "pitch": 43, "duration": 40, "velocity": 59}, {"time": 1377, "pitch": 50, "duration": 22, "velocity": 62}, {"time": 1383, "pitch": 55, "duration": 14, "velocity": 58}, {"time": 1389, "pitch": 57, "duration": 5, "velocity": 45}, {"time": 1395, "pitch": 58, "duration": 8, "velocity": 61}, {"time": 1401, "pitch": 50, "duration": 11, "velocity": 27}, {"time": 1401, "pitch": 55, "duration": 10, "velocity": 51}, {"time": 1407, "pitch": 57, "duration": 5, "velocity": 55}, {"time": 1413, "pitch": 58, "duration": 7, "velocity": 62}, {"time": 1419, "pitch": 43, "duration": 39, "velocity": 57}, {"time": 1419, "pitch": 60, "duration": 13, "velocity": 58}, {"time": 1425, "pitch": 50, "duration": 21, "velocity": 46}, {"time": 1431, "pitch": 55, "duration": 12, "velocity": 49}, {"time": 1437, "pitch": 57, "duration": 5, "velocity": 42}, {"time": 1443, "pitch": 62, "duration": 9, "velocity": 62}, {"time": 1449, "pitch": 50, "duration": 10, "velocity": 30}, {"time": 1449, "pitch": 55, "duration": 10, "velocity": 70}, {"time": 1455, "pitch": 57, "duration": 5, "velocity": 56}, {"time": 1461, "pitch": 62, "duration": 7, "velocity": 55}, {"time": 1467, "pitch": 41, "duration": 41, "velocity": 59}, {"time": 1467, "pitch": 60, "duration": 11, "velocity": 63}, {"time": 1473, "pitch": 48, "duration": 34, "velocity": 47}, {"time": 1479, "pitch": 53, "duration": 13, "velocity": 53}, {"time": 1485, "pitch": 57, "duration": 13, "velocity": 52}, {"time": 1491, "pitch": 65, "duration": 10, "velocity": 64}, {"time": 1497, "pitch": 53, "duration": 9, "velocity": 58}, {"time": 1503, "pitch": 57, "duration": 5, "velocity": 49}, {"time": 1509, "pitch": 60, "duration": 5, "velocity": 66}, {"time": 1515, "pitch": 43, "duration": 40, "velocity": 61}, {"time": 1515, "pitch": 62, "duration": 8, "velocity": 60}, {"time": 1521, "pitch": 50, "duration": 33, "velocity": 56}, {"time": 1527, "pitch": 55, "duration": 20, "velocity": 72}, {"time": 1533, "pitch": 60, "duration": 6, "velocity": 56}, {"time": 1539, "pitch": 62, "duration": 8, "velocity": 62}, {"time": 1545, "pitch": 67, "duration": 7, "velocity": 62}, {"time": 1551, "pitch": 65, "duration": 5, "velocity": 60}, {"time": 1557, "pitch": 60, "duration": 6, "velocity": 48}, {"time": 1563, "pitch": 43, "duration": 11, "velocity": 59}, {"time": 1563, "pitch": 62, "duration": 18, "velocity": 66}, {"time": 1569, "pitch": 50, "duration": 6, "velocity": 61}, {"time": 1575, "pitch": 55, "duration": 8, "velocity": 63}, {"time": 1581, "pitch": 57, "duration": 17, "velocity": 63}, {"time": 1587, "pitch": 58, "duration": 16, "velocity": 67}, {"time": 1593, "pitch": 60, "duration": 10, "velocity": 50}, {"time": 1599, "pitch": 65, "duration": 5, "velocity": 69}, {"time": 1605, "pitch": 67, "duration": 5, "velocity": 59}, {"time": 1611, "pitch": 50, "duration": 38, "velocity": 62}, {"time": 1611, "pitch": 69, "duration": 14, "velocity": 66}, {"time": 1617, "pitch": 57, "duration": 32, "velocity": 53}, {"time": 1623, "pitch": 62, "duration": 13, "velocity": 67}, {"time": 1629, "pitch": 65, "duration": 9, "velocity": 57}, {"time": 1635, "pitch": 72, "duration": 10, "velocity": 73}, {"time": 1641, "pitch": 62, "duration": 5, "velocity": 52}, {"time": 1647, "pitch": 69, "duration": 5, "velocity": 63}, {"time": 1653, "pitch": 65, "duration": 7, "velocity": 60}, {"time": 1659, "pitch": 43, "duration": 43, "velocity": 64}, {"time": 1659, "pitch": 67, "duration": 6, "velocity": 64}, {"time": 1665, "pitch": 50, "duration": 35, "velocity": 47}, {"time": 1671, "pitch": 55, "duration": 13, "velocity": 72}, {"time": 1677, "pitch": 57, "duration": 5, "velocity": 56}, {"time": 1677, "pitch": 60, "duration": 5, "velocity": 62}, {"time": 1683, "pitch": 58, "duration": 6, "velocity": 69}, {"time": 1683, "pitch": 62, "duration": 7, "velocity": 72}, {"time": 1689, "pitch": 55, "duration": 7, "velocity": 49}, {"time": 1695, "pitch": 62, "duration": 3, "velocity": 61}, {"time": 1695, "pitch": 67, "duration": 6, "velocity": 63}, {"time": 1701, "pitch": 50, "duration": 1, "velocity": 45}, {"time": 1701, "pitch": 55, "duration": 2, "velocity": 69}, {"time": 1707, "pitch": 39, "duration": 6, "velocity": 69}, {"time": 1707, "pitch": 55, "duration": 7, "velocity": 62}, {"time": 1707, "pitch": 58, "duration": 11, "velocity": 70}, {"time": 1707, "pitch": 63, "duration": 12, "velocity": 66}, {"time": 1713, "pitch": 51, "duration": 7, "velocity": 59}, {"time": 1719, "pitch": 53, "duration": 26, "velocity": 61}, {"time": 1725, "pitch": 55, "duration": 8, "velocity": 70}, {"time": 1731, "pitch": 58, "duration": 8, "velocity": 73}, {"time": 1731, "pitch": 63, "duration": 9, "velocity": 70}, {"time": 1731, "pitch": 67, "duration": 10, "velocity": 64}, {"time": 1737, "pitch": 55, "duration": 7, "velocity": 60}, {"time": 1743, "pitch": 58, "duration": 4, "velocity": 61}, {"time": 1743, "pitch": 63, "duration": 3, "velocity": 47}, {"time": 1743, "pitch": 70, "duration": 7, "velocity": 70}, {"time": 1749, "pitch": 69, "duration": 5, "velocity": 67}, {"time": 1755, "pitch": 43, "duration": 11, "velocity": 64}, {"time": 1755, "pitch": 62, "duration": 10, "velocity": 66}, {"time": 1755, "pitch": 67, "duration": 10, "velocity": 73}, {"time": 1761, "pitch": 50, "duration": 7, "velocity": 62}, {"time": 1761, "pitch": 69, "duration": 6, "velocity": 62}, {"time": 1767, "pitch": 55, "duration": 7, "velocity": 52}, {"time": 1767, "pitch": 67, "duration": 5, "velocity": 64}, {"time": 1773, "pitch": 57, "duration": 22, "velocity": 62}, {"time": 1773, "pitch": 65, "duration": 6, "velocity": 73}, {"time": 1779, "pitch": 58, "duration": 15, "velocity": 75}, {"time": 1779, "pitch": 62, "duration": 9, "velocity": 62}, {"time": 1791, "pitch": 67, "duration": 5, "velocity": 63}, {"time": 1797, "pitch": 70, "duration": 4, "velocity": 58}, {"time": 1803, "pitch": 43, "duration": 11, "velocity": 73}, {"time": 1803, "pitch": 62, "duration": 21, "velocity": 64}, {"time": 1803, "pitch": 69, "duration": 24, "velocity": 70}, {"time": 1809, "pitch": 50, "duration": 7, "velocity": 69}, {"time": 1815, "pitch": 55, "duration": 8, "velocity": 69}, {"time": 1821, "pitch": 57, "duration": 19, "velocity": 61}, {"time": 1827, "pitch": 58, "duration": 12, "velocity": 75}, {"time": 1833, "pitch": 62, "duration": 5, "velocity": 69}, {"time": 1839, "pitch": 67, "duration": 6, "velocity": 72}, {"time": 1845, "pitch": 70, "duration": 4, "velocity": 54}, {"time": 1851, "pitch": 41, "duration": 10, "velocity": 72}, {"time": 1851, "pitch": 60, "duration": 8, "velocity": 67}, {"time": 1851, "pitch": 65, "duration": 8, "velocity": 72}, {"time": 1851, "pitch": 69, "duration": 10, "velocity": 67}, {"time": 1857, "pitch": 48, "duration": 6, "velocity": 66}, {"time": 1863, "pitch": 53, "duration": 7, "velocity": 67}, {"time": 1869, "pitch": 55, "duration": 21, "velocity": 50}, {"time": 1875, "pitch": 57, "duration": 14, "velocity": 59}, {"time": 1881, "pitch": 82, "duration": 4, "velocity": 73}, {"time": 1887, "pitch": 58, "duration": 3, "velocity": 67}, {"time": 1887, "pitch": 81, "duration": 4, "velocity": 61}, {"time": 1893, "pitch": 77, "duration": 6, "velocity": 62}, {"time": 1899, "pitch": 43, "duration": 39, "velocity": 70}, {"time": 1899, "pitch": 79, "duration": 6, "velocity": 73}, {"time": 1905, "pitch": 50, "duration": 39, "velocity": 64}, {"time": 1908, "pitch": 55, "duration": 15, "velocity": 64}, {"time": 1911, "pitch": 57, "duration": 6, "velocity": 75}, {"time": 1917, "pitch": 58, "duration": 5, "velocity": 61}, {"time": 1923, "pitch": 60, "duration": 5, "velocity": 64}, {"time": 1929, "pitch": 62, "duration": 5, "velocity": 67}, {"time": 1935, "pitch": 55, "duration": 3, "velocity": 49}, {"time": 1935, "pitch": 58, "duration": 3, "velocity": 67}, {"time": 1935, "pitch": 65, "duration": 3, "velocity": 70}, {"time": 1941, "pitch": 57, "duration": 3, "velocity": 58}, {"time": 1941, "pitch": 58, "duration": 1, "velocity": 46}, {"time": 1941, "pitch": 62, "duration": 5, "velocity": 53}, {"time": 1947, "pitch": 43, "duration": 37, "velocity": 70}, {"time": 1947, "pitch": 57, "duration": 4, "velocity": 53}, {"time": 1947, "pitch": 60, "duration": 6, "velocity": 75}, {"time": 1953, "pitch": 50, "duration": 31, "velocity": 69}, {"time": 1953, "pitch": 58, "duration": 2, "velocity": 64}, {"time": 1953, "pitch": 62, "duration": 3, "velocity": 64}, {"time": 1959, "pitch": 58, "duration": 5, "velocity": 69}, {"time": 1959, "pitch": 62, "duration": 4, "velocity": 72}, {"time": 1965, "pitch": 57, "duration": 5, "velocity": 60}, {"time": 1965, "pitch": 60, "duration": 5, "velocity": 66}, {"time": 1971, "pitch": 58, "duration": 8, "velocity": 76}, {"time": 1977, "pitch": 55, "duration": 6, "velocity": 78}, {"time": 1983, "pitch": 57, "duration": 4, "velocity": 76}, {"time": 1986, "pitch": 58, "duration": 4, "velocity": 54}, {"time": 1989, "pitch": 60, "duration": 4, "velocity": 58}, {"time": 1992, "pitch": 62, "duration": 2, "velocity": 44}, {"time": 1995, "pitch": 38, "duration": 5, "velocity": 72}, {"time": 1995, "pitch": 57, "duration": 12, "velocity": 66}, {"time": 1995, "pitch": 60, "duration": 2, "velocity": 59}, {"time": 1995, "pitch": 65, "duration": 19, "velocity": 61}, {"time": 2001, "pitch": 50, "duration": 7, "velocity": 60}, {"time": 2007, "pitch": 53, "duration": 29, "velocity": 59}, {"time": 2013, "pitch": 57, "duration": 13, "velocity": 73}, {"time": 2019, "pitch": 60, "duration": 4, "velocity": 66}, {"time": 2019, "pitch": 65, "duration": 11, "velocity": 67}, {"time": 2028, "pitch": 57, "duration": 1, "velocity": 32}, {"time": 2031, "pitch": 57, "duration": 3, "velocity": 52}, {"time": 2031, "pitch": 60, "duration": 3, "velocity": 69}, {"time": 2031, "pitch": 67, "duration": 4, "velocity": 70}, {"time": 2037, "pitch": 62, "duration": 3, "velocity": 64}, {"time": 2037, "pitch": 69, "duration": 3, "velocity": 64}, {"time": 2043, "pitch": 43, "duration": 11, "velocity": 72}, {"time": 2043, "pitch": 62, "duration": 25, "velocity": 64}, {"time": 2043, "pitch": 70, "duration": 25, "velocity": 75}, {"time": 2049, "pitch": 50, "duration": 6, "velocity": 56}, {"time": 2055, "pitch": 55, "duration": 7, "velocity": 50}, {"time": 2061, "pitch": 57, "duration": 18, "velocity": 55}, {"time": 2067, "pitch": 58, "duration": 11, "velocity": 69}, {"time": 2073, "pitch": 62, "duration": 4, "velocity": 61}, {"time": 2079, "pitch": 67, "duration": 5, "velocity": 53}, {"time": 2085, "pitch": 69, "duration": 5, "velocity": 72}, {"time": 2091, "pitch": 43, "duration": 43, "velocity": 70}, {"time": 2091, "pitch": 62, "duration": 8, "velocity": 63}, {"time": 2091, "pitch": 67, "duration": 9, "velocity": 67}, {"time": 2091, "pitch": 70, "duration": 8, "velocity": 59}, {"time": 2103, "pitch": 50, "duration": 23, "velocity": 30}, {"time": 2103, "pitch": 62, "duration": 6, "velocity": 57}, {"time": 2103, "pitch": 67, "duration": 7, "velocity": 61}, {"time": 2103, "pitch": 70, "duration": 7, "velocity": 63}, {"time": 2109, "pitch": 55, "duration": 6, "velocity": 37}, {"time": 2115, "pitch": 60, "duration": 5, "velocity": 63}, {"time": 2115, "pitch": 69, "duration": 8, "velocity": 69}, {"time": 2121, "pitch": 55, "duration": 7, "velocity": 34}, {"time": 2127, "pitch": 60, "duration": 3, "velocity": 70}, {"time": 2127, "pitch": 67, "duration": 2, "velocity": 72}, {"time": 2133, "pitch": 50, "duration": 6, "velocity": 56}, {"time": 2139, "pitch": 43, "duration": 39, "velocity": 67}, {"time": 2139, "pitch": 58, "duration": 6, "velocity": 63}, {"time": 2139, "pitch": 62, "duration": 6, "velocity": 67}, {"time": 2139, "pitch": 67, "duration": 7, "velocity": 63}, {"time": 2145, "pitch": 50, "duration": 28, "velocity": 47}, {"time": 2151, "pitch": 58, "duration": 5, "velocity": 57}, {"time": 2151, "pitch": 62, "duration": 6, "velocity": 60}, {"time": 2151, "pitch": 67, "duration": 8, "velocity": 60}, {"time": 2157, "pitch": 55, "duration": 7, "velocity": 49}, {"time": 2163, "pitch": 57, "duration": 4, "velocity": 67}, {"time": 2163, "pitch": 62, "duration": 6, "velocity": 63}, {"time": 2163, "pitch": 65, "duration": 7, "velocity": 73}, {"time": 2169, "pitch": 55, "duration": 5, "velocity": 36}, {"time": 2175, "pitch": 58, "duration": 3, "velocity": 69}, {"time": 2175, "pitch": 62, "duration": 4, "velocity": 72}, {"time": 2175, "pitch": 67, "duration": 5, "velocity": 69}, {"time": 2181, "pitch": 50, "duration": 1, "velocity": 52}, {"time": 2187, "pitch": 38, "duration": 6, "velocity": 70}, {"time": 2187, "pitch": 60, "duration": 8, "velocity": 55}, {"time": 2187, "pitch": 65, "duration": 8, "velocity": 66}, {"time": 2187, "pitch": 69, "duration": 8, "velocity": 67}, {"time": 2193, "pitch": 50, "duration": 8, "velocity": 58}, {"time": 2199, "pitch": 53, "duration": 25, "velocity": 61}, {"time": 2199, "pitch": 60, "duration": 4, "velocity": 62}, {"time": 2199, "pitch": 65, "duration": 4, "velocity": 62}, {"time": 2199, "pitch": 69, "duration": 5, "velocity": 67}, {"time": 2205, "pitch": 57, "duration": 18, "velocity": 45}, {"time": 2205, "pitch": 60, "duration": 3, "velocity": 51}, {"time": 2205, "pitch": 67, "duration": 5, "velocity": 64}, {"time": 2211, "pitch": 65, "duration": 3, "velocity": 66}, {"time": 2211, "pitch": 69, "duration": 6, "velocity": 64}, {"time": 2217, "pitch": 60, "duration": 5, "velocity": 55}, {"time": 2217, "pitch": 65, "duration": 3, "velocity": 58}, {"time": 2217, "pitch": 72, "duration": 3, "velocity": 56}, {"time": 2223, "pitch": 65, "duration": 3, "velocity": 64}, {"time": 2223, "pitch": 69, "duration": 5, "velocity": 67}, {"time": 2229, "pitch": 65, "duration": 4, "velocity": 66}, {"time": 2235, "pitch": 43, "duration": 49, "velocity": 69}, {"time": 2235, "pitch": 67, "duration": 5, "velocity": 61}, {"time": 2241, "pitch": 50, "duration": 42, "velocity": 64}, {"time": 2247, "pitch": 55, "duration": 36, "velocity": 76}, {"time": 2253, "pitch": 57, "duration": 7, "velocity": 60}, {"time": 2259, "pitch": 58, "duration": 2, "velocity": 59}, {"time": 2262, "pitch": 62, "duration": 3, "velocity": 78}, {"time": 2265, "pitch": 67, "duration": 4, "velocity": 54}, {"time": 2268, "pitch": 69, "duration": 2, "velocity": 80}, {"time": 2271, "pitch": 70, "duration": 4, "velocity": 91}, {"time": 2274, "pitch": 72, "duration": 3, "velocity": 73}, {"time": 2277, "pitch": 74, "duration": 3, "velocity": 80}, {"time": 2280, "pitch": 77, "duration": 3, "velocity": 54}, {"time": 2283, "pitch": 43, "duration": 1, "velocity": 69}, {"time": 2283, "pitch": 70, "duration": 31, "velocity": 67}, {"time": 2283, "pitch": 74, "duration": 30, "velocity": 72}, {"time": 2283, "pitch": 79, "duration": 30, "velocity": 67}, {"time": 2289, "pitch": 50, "duration": 7, "velocity": 55}, {"time": 2295, "pitch": 55, "duration": 8, "velocity": 61}, {"time": 2301, "pitch": 57, "duration": 23, "velocity": 51}, {"time": 2307, "pitch": 58, "duration": 17, "velocity": 62}, {"time": 2313, "pitch": 62, "duration": 10, "velocity": 58}, {"time": 2319, "pitch": 67, "duration": 5, "velocity": 62}, {"time": 2325, "pitch": 70, "duration": 7, "velocity": 61}, {"time": 2331, "pitch": 69, "duration": 7, "velocity": 69}, {"time": 2334, "pitch": 55, "duration": 33, "velocity": 46}, {"time": 2337, "pitch": 70, "duration": 9, "velocity": 50}, {"time": 2343, "pitch": 58, "duration": 23, "velocity": 40}, {"time": 2343, "pitch": 69, "duration": 7, "velocity": 59}, {"time": 2349, "pitch": 62, "duration": 6, "velocity": 54}, {"time": 2349, "pitch": 70, "duration": 4, "velocity": 23}, {"time": 2355, "pitch": 62, "duration": 11, "velocity": 47}, {"time": 2355, "pitch": 67, "duration": 11, "velocity": 56}, {"time": 2379, "pitch": 38, "duration": 5, "velocity": 51}, {"time": 2379, "pitch": 60, "duration": 19, "velocity": 57}, {"time": 2379, "pitch": 65, "duration": 19, "velocity": 66}, {"time": 2385, "pitch": 50, "duration": 7, "velocity": 57}, {"time": 2391, "pitch": 53, "duration": 30, "velocity": 57}, {"time": 2397, "pitch": 57, "duration": 22, "velocity": 64}, {"time": 2403, "pitch": 60, "duration": 9, "velocity": 55}, {"time": 2409, "pitch": 65, "duration": 12, "velocity": 59}, {"time": 2421, "pitch": 62, "duration": 3, "velocity": 57}, {"time": 2427, "pitch": 43, "duration": 40, "velocity": 57}, {"time": 2427, "pitch": 58, "duration": 10, "velocity": 49}, {"time": 2427, "pitch": 67, "duration": 20, "velocity": 60}, {"time": 2433, "pitch": 50, "duration": 37, "velocity": 53}, {"time": 2439, "pitch": 55, "duration": 29, "velocity": 54}, {"time": 2445, "pitch": 58, "duration": 4, "velocity": 46}, {"time": 2445, "pitch": 62, "duration": 6, "velocity": 54}, {"time": 2451, "pitch": 60, "duration": 6, "velocity": 50}, {"time": 2457, "pitch": 62, "duration": 5, "velocity": 40}, {"time": 2463, "pitch": 58, "duration": 5, "velocity": 51}, {"time": 2469, "pitch": 57, "duration": 19, "velocity": 46}, {"time": 2475, "pitch": 43, "duration": 44, "velocity": 45}, {"time": 2481, "pitch": 50, "duration": 36, "velocity": 46}, {"time": 2487, "pitch": 55, "duration": 28, "velocity": 47}, {"time": 2493, "pitch": 60, "duration": 5, "velocity": 43}, {"time": 2499, "pitch": 58, "duration": 12, "velocity": 55}, {"time": 2511, "pitch": 57, "duration": 6, "velocity": 35}, {"time": 2517, "pitch": 58, "duration": 6, "velocity": 44}, {"time": 2523, "pitch": 43, "duration": 38, "velocity": 64}, {"time": 2523, "pitch": 58, "duration": 12, "velocity": 60}, {"time": 2523, "pitch": 62, "duration": 11, "velocity": 63}, {"time": 2523, "pitch": 67, "duration": 13, "velocity": 66}, {"time": 2529, "pitch": 50, "duration": 19, "velocity": 52}, {"time": 2535, "pitch": 55, "duration": 24, "velocity": 50}, {"time": 2541, "pitch": 57, "duration": 8, "velocity": 51}, {"time": 2547, "pitch": 58, "duration": 8, "velocity": 69}, {"time": 2553, "pitch": 50, "duration": 14, "velocity": 49}, {"time": 2559, "pitch": 60, "duration": 5, "velocity": 62}, {"time": 2565, "pitch": 65, "duration": 6, "velocity": 66}, {"time": 2571, "pitch": 43, "duration": 38, "velocity": 57}, {"time": 2571, "pitch": 58, "duration": 15, "velocity": 60}, {"time": 2571, "pitch": 62, "duration": 13, "velocity": 57}, {"time": 2577, "pitch": 50, "duration": 19, "velocity": 56}, {"time": 2583, "pitch": 55, "duration": 21, "velocity": 46}, {"time": 2589, "pitch": 57, "duration": 4, "velocity": 56}, {"time": 2589, "pitch": 60, "duration": 5, "velocity": 62}, {"time": 2595, "pitch": 58, "duration": 3, "velocity": 62}, {"time": 2595, "pitch": 62, "duration": 6, "velocity": 64}, {"time": 2601, "pitch": 58, "duration": 7, "velocity": 50}, {"time": 2601, "pitch": 65, "duration": 4, "velocity": 66}, {"time": 2607, "pitch": 60, "duration": 5, "velocity": 67}, {"time": 2613, "pitch": 62, "duration": 4, "velocity": 63}, {"time": 2619, "pitch": 43, "duration": 16, "velocity": 69}, {"time": 2619, "pitch": 58, "duration": 12, "velocity": 64}, {"time": 2619, "pitch": 62, "duration": 11, "velocity": 58}, {"time": 2625, "pitch": 50, "duration": 10, "velocity": 55}, {"time": 2631, "pitch": 55, "duration": 4, "velocity": 60}, {"time": 2637, "pitch": 57, "duration": 5, "velocity": 48}, {"time": 2643, "pitch": 58, "duration": 5, "velocity": 53}, {"time": 2649, "pitch": 60, "duration": 5, "velocity": 41}, {"time": 2655, "pitch": 62, "duration": 5, "velocity": 61}, {"time": 2661, "pitch": 65, "duration": 5, "velocity": 67}, {"time": 2667, "pitch": 41, "duration": 42, "velocity": 64}, {"time": 2667, "pitch": 57, "duration": 11, "velocity": 48}, {"time": 2667, "pitch": 60, "duration": 9, "velocity": 60}, {"time": 2667, "pitch": 65, "duration": 9, "velocity": 33}, {"time": 2673, "pitch": 48, "duration": 38, "velocity": 49}, {"time": 2679, "pitch": 53, "duration": 25, "velocity": 56}, {"time": 2685, "pitch": 55, "duration": 4, "velocity": 52}, {"time": 2691, "pitch": 57, "duration": 3, "velocity": 50}, {"time": 2703, "pitch": 57, "duration": 3, "velocity": 60}, {"time": 2703, "pitch": 60, "duration": 3, "velocity": 67}, {"time": 2703, "pitch": 65, "duration": 3, "velocity": 70}, {"time": 2709, "pitch": 53, "duration": 4, "velocity": 47}, {"time": 2715, "pitch": 43, "duration": 11, "velocity": 72}, {"time": 2715, "pitch": 58, "duration": 7, "velocity": 58}, {"time": 2715, "pitch": 62, "duration": 7, "velocity": 70}, {"time": 2715, "pitch": 67, "duration": 8, "velocity": 62}, {"time": 2721, "pitch": 50, "duration": 5, "velocity": 59}, {"time": 2727, "pitch": 55, "duration": 7, "velocity": 44}, {"time": 2733, "pitch": 57, "duration": 18, "velocity": 55}, {"time": 2733, "pitch": 62, "duration": 3, "velocity": 57}, {"time": 2733, "pitch": 67, "duration": 3, "velocity": 45}, {"time": 2733, "pitch": 70, "duration": 3, "velocity": 57}, {"time": 2739, "pitch": 58, "duration": 12, "velocity": 67}, {"time": 2739, "pitch": 62, "duration": 4, "velocity": 59}, {"time": 2739, "pitch": 69, "duration": 9, "velocity": 66}, {"time": 2751, "pitch": 62, "duration": 2, "velocity": 59}, {"time": 2751, "pitch": 70, "duration": 3, "velocity": 69}, {"time": 2757, "pitch": 62, "duration": 3, "velocity": 48}, {"time": 2757, "pitch": 69, "duration": 5, "velocity": 53}, {"time": 2763, "pitch": 43, "duration": 37, "velocity": 64}, {"time": 2763, "pitch": 62, "duration": 8, "velocity": 61}, {"time": 2763, "pitch": 67, "duration": 8, "velocity": 60}, {"time": 2769, "pitch": 50, "duration": 31, "velocity": 56}, {"time": 2775, "pitch": 55, "duration": 13, "velocity": 48}, {"time": 2781, "pitch": 58, "duration": 5, "velocity": 55}, {"time": 2787, "pitch": 58, "duration": 7, "velocity": 44}, {"time": 2787, "pitch": 62, "duration": 7, "velocity": 72}, {"time": 2787, "pitch": 67, "duration": 7, "velocity": 57}, {"time": 2793, "pitch": 55, "duration": 6, "velocity": 48}, {"time": 2799, "pitch": 58, "duration": 5, "velocity": 60}, {"time": 2799, "pitch": 62, "duration": 7, "velocity": 63}, {"time": 2799, "pitch": 67, "duration": 8, "velocity": 57}, {"time": 2805, "pitch": 65, "duration": 4, "velocity": 59}, {"time": 2811, "pitch": 38, "duration": 5, "velocity": 72}, {"time": 2811, "pitch": 57, "duration": 13, "velocity": 60}, {"time": 2811, "pitch": 62, "duration": 15, "velocity": 63}, {"time": 2811, "pitch": 65, "duration": 17, "velocity": 57}, {"time": 2817, "pitch": 50, "duration": 8, "velocity": 59}, {"time": 2823, "pitch": 53, "duration": 27, "velocity": 61}, {"time": 2829, "pitch": 57, "duration": 12, "velocity": 67}, {"time": 2835, "pitch": 62, "duration": 6, "velocity": 67}, {"time": 2841, "pitch": 65, "duration": 7, "velocity": 69}, {"time": 2847, "pitch": 57, "duration": 3, "velocity": 64}, {"time": 2847, "pitch": 60, "duration": 6, "velocity": 59}, {"time": 2853, "pitch": 62, "duration": 5, "velocity": 58}, {"time": 2859, "pitch": 43, "duration": 39, "velocity": 62}, {"time": 2859, "pitch": 58, "duration": 8, "velocity": 58}, {"time": 2859, "pitch": 65, "duration": 10, "velocity": 70}, {"time": 2865, "pitch": 50, "duration": 39, "velocity": 60}, {"time": 2871, "pitch": 55, "duration": 27, "velocity": 73}, {"time": 2877, "pitch": 57, "duration": 5, "velocity": 62}, {"time": 2883, "pitch": 58, "duration": 4, "velocity": 76}, {"time": 2889, "pitch": 62, "duration": 8, "velocity": 72}, {"time": 2895, "pitch": 67, "duration": 5, "velocity": 54}, {"time": 2901, "pitch": 69, "duration": 5, "velocity": 66}, {"time": 2907, "pitch": 39, "duration": 5, "velocity": 69}, {"time": 2907, "pitch": 58, "duration": 20, "velocity": 52}, {"time": 2907, "pitch": 63, "duration": 17, "velocity": 59}, {"time": 2907, "pitch": 67, "duration": 19, "velocity": 57}, {"time": 2913, "pitch": 51, "duration": 8, "velocity": 43}, {"time": 2919, "pitch": 53, "duration": 25, "velocity": 60}, {"time": 2925, "pitch": 55, "duration": 18, "velocity": 55}, {"time": 2931, "pitch": 58, "duration": 5, "velocity": 49}, {"time": 2937, "pitch": 58, "duration": 2, "velocity": 35}, {"time": 2937, "pitch": 63, "duration": 4, "velocity": 67}, {"time": 2943, "pitch": 67, "duration": 6, "velocity": 59}, {"time": 2949, "pitch": 70, "duration": 6, "velocity": 49}, {"time": 2955, "pitch": 43, "duration": 11, "velocity": 66}, {"time": 2955, "pitch": 69, "duration": 7, "velocity": 49}, {"time": 2961, "pitch": 50, "duration": 6, "velocity": 60}, {"time": 2961, "pitch": 67, "duration": 19, "velocity": 51}, {"time": 2967, "pitch": 55, "duration": 8, "velocity": 47}, {"time": 2973, "pitch": 57, "duration": 20, "velocity": 56}, {"time": 2979, "pitch": 58, "duration": 13, "velocity": 70}, {"time": 2985, "pitch": 62, "duration": 4, "velocity": 60}, {"time": 2991, "pitch": 67, "duration": 5, "velocity": 63}, {"time": 2997, "pitch": 69, "duration": 6, "velocity": 66}, {"time": 3003, "pitch": 43, "duration": 38, "velocity": 72}, {"time": 3003, "pitch": 62, "duration": 9, "velocity": 69}, {"time": 3003, "pitch": 70, "duration": 8, "velocity": 80}, {"time": 3009, "pitch": 50, "duration": 34, "velocity": 66}, {"time": 3015, "pitch": 55, "duration": 14, "velocity": 60}, {"time": 3021, "pitch": 58, "duration": 4, "velocity": 58}, {"time": 3027, "pitch": 58, "duration": 7, "velocity": 56}, {"time": 3027, "pitch": 62, "duration": 8, "velocity": 73}, {"time": 3027, "pitch": 67, "duration": 8, "velocity": 70}, {"time": 3033, "pitch": 55, "duration": 9, "velocity": 48}, {"time": 3039, "pitch": 58, "duration": 5, "velocity": 60}, {"time": 3045, "pitch": 67, "duration": 4, "velocity": 66}, {"time": 3051, "pitch": 41, "duration": 11, "velocity": 69}, {"time": 3051, "pitch": 65, "duration": 25, "velocity": 72}, {"time": 3057, "pitch": 48, "duration": 7, "velocity": 58}, {"time": 3063, "pitch": 53, "duration": 8, "velocity": 54}, {"time": 3069, "pitch": 55, "duration": 19, "velocity": 56}, {"time": 3075, "pitch": 57, "duration": 13, "velocity": 67}, {"time": 3081, "pitch": 60, "duration": 4, "velocity": 44}, {"time": 3087, "pitch": 65, "duration": 4, "velocity": 59}, {"time": 3093, "pitch": 67, "duration": 6, "velocity": 59}, {"time": 3099, "pitch": 43, "duration": 11, "velocity": 72}, {"time": 3099, "pitch": 62, "duration": 13, "velocity": 61}, {"time": 3099, "pitch": 70, "duration": 12, "velocity": 67}, {"time": 3102, "pitch": 67, "duration": 11, "velocity": 23}, {"time": 3105, "pitch": 50, "duration": 6, "velocity": 63}, {"time": 3111, "pitch": 55, "duration": 7, "velocity": 57}, {"time": 3117, "pitch": 57, "duration": 21, "velocity": 67}, {"time": 3123, "pitch": 58, "duration": 14, "velocity": 66}, {"time": 3123, "pitch": 62, "duration": 7, "velocity": 57}, {"time": 3123, "pitch": 67, "duration": 12, "velocity": 58}, {"time": 3123, "pitch": 70, "duration": 8, "velocity": 50}, {"time": 3135, "pitch": 60, "duration": 4, "velocity": 57}, {"time": 3135, "pitch": 69, "duration": 9, "velocity": 72}, {"time": 3147, "pitch": 43, "duration": 11, "velocity": 66}, {"time": 3147, "pitch": 62, "duration": 16, "velocity": 69}, {"time": 3147, "pitch": 67, "duration": 17, "velocity": 69}, {"time": 3147, "pitch": 70, "duration": 12, "velocity": 66}, {"time": 3153, "pitch": 50, "duration": 6, "velocity": 59}, {"time": 3159, "pitch": 55, "duration": 7, "velocity": 53}, {"time": 3165, "pitch": 57, "duration": 17, "velocity": 63}, {"time": 3171, "pitch": 58, "duration": 9, "velocity": 69}, {"time": 3171, "pitch": 62, "duration": 5, "velocity": 72}, {"time": 3171, "pitch": 67, "duration": 9, "velocity": 70}, {"time": 3171, "pitch": 70, "duration": 7, "velocity": 66}, {"time": 3183, "pitch": 60, "duration": 1, "velocity": 39}, {"time": 3183, "pitch": 67, "duration": 11, "velocity": 61}, {"time": 3195, "pitch": 38, "duration": 6, "velocity": 66}, {"time": 3195, "pitch": 60, "duration": 20, "velocity": 57}, {"time": 3195, "pitch": 65, "duration": 19, "velocity": 66}, {"time": 3195, "pitch": 69, "duration": 19, "velocity": 60}, {"time": 3201, "pitch": 50, "duration": 8, "velocity": 56}, {"time": 3207, "pitch": 53, "duration": 23, "velocity": 64}, {"time": 3213, "pitch": 57, "duration": 15, "velocity": 64}, {"time": 3219, "pitch": 60, "duration": 4, "velocity": 61}, {"time": 3225, "pitch": 65, "duration": 7, "velocity": 64}, {"time": 3231, "pitch": 67, "duration": 6, "velocity": 67}, {"time": 3237, "pitch": 69, "duration": 6, "velocity": 61}, {"time": 3243, "pitch": 43, "duration": 11, "velocity": 72}, {"time": 3243, "pitch": 70, "duration": 17, "velocity": 70}, {"time": 3249, "pitch": 50, "duration": 6, "velocity": 60}, {"time": 3255, "pitch": 55, "duration": 7, "velocity": 53}, {"time": 3261, "pitch": 57, "duration": 20, "velocity": 67}, {"time": 3261, "pitch": 69, "duration": 6, "velocity": 69}, {"time": 3267, "pitch": 58, "duration": 12, "velocity": 72}, {"time": 3267, "pitch": 67, "duration": 7, "velocity": 60}, {"time": 3273, "pitch": 69, "duration": 5, "velocity": 53}, {"time": 3279, "pitch": 70, "duration": 5, "velocity": 56}, {"time": 3285, "pitch": 72, "duration": 5, "velocity": 49}, {"time": 3291, "pitch": 43, "duration": 21, "velocity": 63}, {"time": 3291, "pitch": 74, "duration": 4, "velocity": 50}, {"time": 3297, "pitch": 70, "duration": 8, "velocity": 49}, {"time": 3303, "pitch": 72, "duration": 5, "velocity": 60}, {"time": 3309, "pitch": 74, "duration": 6, "velocity": 76}, {"time": 3315, "pitch": 43, "duration": 14, "velocity": 60}, {"time": 3315, "pitch": 77, "duration": 5, "velocity": 58}, {"time": 3321, "pitch": 72, "duration": 8, "velocity": 61}, {"time": 3327, "pitch": 55, "duration": 5, "velocity": 47}, {"time": 3327, "pitch": 74, "duration": 4, "velocity": 55}, {"time": 3333, "pitch": 77, "duration": 6, "velocity": 62}, {"time": 3339, "pitch": 43, "duration": 41, "velocity": 56}, {"time": 3339, "pitch": 58, "duration": 13, "velocity": 62}, {"time": 3339, "pitch": 62, "duration": 13, "velocity": 67}, {"time": 3339, "pitch": 67, "duration": 14, "velocity": 64}, {"time": 3339, "pitch": 79, "duration": 10, "velocity": 66}, {"time": 3345, "pitch": 50, "duration": 28, "velocity": 54}, {"time": 3351, "pitch": 55, "duration": 13, "velocity": 69}, {"time": 3357, "pitch": 58, "duration": 6, "velocity": 56}, {"time": 3363, "pitch": 58, "duration": 2, "velocity": 46}, {"time": 3363, "pitch": 62, "duration": 8, "velocity": 76}, {"time": 3363, "pitch": 67, "duration": 11, "velocity": 59}, {"time": 3369, "pitch": 55, "duration": 10, "velocity": 49}, {"time": 3369, "pitch": 58, "duration": 3, "velocity": 25}, {"time": 3375, "pitch": 58, "duration": 4, "velocity": 63}, {"time": 3375, "pitch": 65, "duration": 6, "velocity": 69}, {"time": 3381, "pitch": 50, "duration": 6, "velocity": 53}, {"time": 3381, "pitch": 67, "duration": 4, "velocity": 55}, {"time": 3387, "pitch": 43, "duration": 11, "velocity": 73}, {"time": 3387, "pitch": 58, "duration": 7, "velocity": 66}, {"time": 3387, "pitch": 62, "duration": 7, "velocity": 73}, {"time": 3387, "pitch": 67, "duration": 9, "velocity": 69}, {"time": 3393, "pitch": 50, "duration": 5, "velocity": 63}, {"time": 3399, "pitch": 55, "duration": 8, "velocity": 55}, {"time": 3405, "pitch": 57, "duration": 17, "velocity": 61}, {"time": 3405, "pitch": 62, "duration": 3, "velocity": 56}, {"time": 3405, "pitch": 70, "duration": 4, "velocity": 67}, {"time": 3411, "pitch": 58, "duration": 10, "velocity": 66}, {"time": 3411, "pitch": 62, "duration": 3, "velocity": 64}, {"time": 3411, "pitch": 70, "duration": 7, "velocity": 75}, {"time": 3417, "pitch": 60, "duration": 3, "velocity": 62}, {"time": 3417, "pitch": 69, "duration": 3, "velocity": 80}, {"time": 3423, "pitch": 60, "duration": 3, "velocity": 60}, {"time": 3423, "pitch": 69, "duration": 4, "velocity": 67}, {"time": 3429, "pitch": 60, "duration": 4, "velocity": 60}, {"time": 3429, "pitch": 67, "duration": 5, "velocity": 56}, {"time": 3435, "pitch": 43, "duration": 10, "velocity": 61}, {"time": 3435, "pitch": 67, "duration": 27, "velocity": 62}, {"time": 3435, "pitch": 70, "duration": 26, "velocity": 73}, {"time": 3441, "pitch": 50, "duration": 6, "velocity": 51}, {"time": 3447, "pitch": 55, "duration": 7, "velocity": 44}, {"time": 3453, "pitch": 57, "duration": 19, "velocity": 61}, {"time": 3459, "pitch": 58, "duration": 12, "velocity": 76}, {"time": 3465, "pitch": 67, "duration": 5, "velocity": 69}, {"time": 3471, "pitch": 69, "duration": 6, "velocity": 58}, {"time": 3477, "pitch": 70, "duration": 5, "velocity": 62}, {"time": 3483, "pitch": 41, "duration": 6, "velocity": 59}, {"time": 3483, "pitch": 60, "duration": 16, "velocity": 51}, {"time": 3483, "pitch": 65, "duration": 12, "velocity": 53}, {"time": 3483, "pitch": 69, "duration": 13, "velocity": 60}, {"time": 3489, "pitch": 53, "duration": 7, "velocity": 50}, {"time": 3495, "pitch": 55, "duration": 32, "velocity": 70}, {"time": 3501, "pitch": 57, "duration": 15, "velocity": 63}, {"time": 3507, "pitch": 60, "duration": 4, "velocity": 66}, {"time": 3510, "pitch": 65, "duration": 5, "velocity": 58}, {"time": 3513, "pitch": 67, "duration": 4, "velocity": 60}, {"time": 3516, "pitch": 69, "duration": 3, "velocity": 66}, {"time": 3519, "pitch": 57, "duration": 7, "velocity": 69}, {"time": 3519, "pitch": 65, "duration": 5, "velocity": 56}, {"time": 3522, "pitch": 67, "duration": 6, "velocity": 55}, {"time": 3525, "pitch": 69, "duration": 3, "velocity": 48}, {"time": 3528, "pitch": 72, "duration": 4, "velocity": 44}, {"time": 3531, "pitch": 43, "duration": 7, "velocity": 73}, {"time": 3531, "pitch": 70, "duration": 25, "velocity": 72}, {"time": 3537, "pitch": 50, "duration": 6, "velocity": 62}, {"time": 3543, "pitch": 55, "duration": 8, "velocity": 69}, {"time": 3549, "pitch": 57, "duration": 15, "velocity": 58}, {"time": 3555, "pitch": 58, "duration": 8, "velocity": 70}, {"time": 3561, "pitch": 62, "duration": 5, "velocity": 70}, {"time": 3567, "pitch": 67, "duration": 5, "velocity": 61}, {"time": 3573, "pitch": 69, "duration": 5, "velocity": 63}, {"time": 3579, "pitch": 43, "duration": 11, "velocity": 70}, {"time": 3579, "pitch": 62, "duration": 8, "velocity": 63}, {"time": 3579, "pitch": 70, "duration": 8, "velocity": 76}, {"time": 3585, "pitch": 50, "duration": 6, "velocity": 62}, {"time": 3591, "pitch": 55, "duration": 8, "velocity": 44}, {"time": 3591, "pitch": 62, "duration": 4, "velocity": 62}, {"time": 3591, "pitch": 70, "duration": 7, "velocity": 75}, {"time": 3597, "pitch": 57, "duration": 15, "velocity": 58}, {"time": 3603, "pitch": 62, "duration": 6, "velocity": 62}, {"time": 3603, "pitch": 69, "duration": 7, "velocity": 73}, {"time": 3609, "pitch": 58, "duration": 2, "velocity": 59}, {"time": 3615, "pitch": 67, "duration": 6, "velocity": 62}, {"time": 3621, "pitch": 70, "duration": 5, "velocity": 70}, {"time": 3627, "pitch": 50, "duration": 36, "velocity": 72}, {"time": 3627, "pitch": 60, "duration": 7, "velocity": 57}, {"time": 3627, "pitch": 65, "duration": 7, "velocity": 64}, {"time": 3627, "pitch": 69, "duration": 7, "velocity": 66}, {"time": 3633, "pitch": 57, "duration": 17, "velocity": 66}, {"time": 3639, "pitch": 60, "duration": 4, "velocity": 61}, {"time": 3645, "pitch": 65, "duration": 5, "velocity": 69}, {"time": 3651, "pitch": 67, "duration": 5, "velocity": 66}, {"time": 3657, "pitch": 69, "duration": 5, "velocity": 67}, {"time": 3663, "pitch": 57, "duration": 2, "velocity": 53}, {"time": 3663, "pitch": 65, "duration": 5, "velocity": 66}, {"time": 3675, "pitch": 43, "duration": 11, "velocity": 70}, {"time": 3675, "pitch": 58, "duration": 11, "velocity": 61}, {"time": 3675, "pitch": 62, "duration": 12, "velocity": 67}, {"time": 3675, "pitch": 67, "duration": 23, "velocity": 61}, {"time": 3681, "pitch": 50, "duration": 6, "velocity": 52}, {"time": 3687, "pitch": 55, "duration": 7, "velocity": 57}, {"time": 3693, "pitch": 57, "duration": 18, "velocity": 56}, {"time": 3699, "pitch": 58, "duration": 12, "velocity": 70}, {"time": 3705, "pitch": 62, "duration": 5, "velocity": 72}, {"time": 3711, "pitch": 67, "duration": 4, "velocity": 63}, {"time": 3723, "pitch": 39, "duration": 5, "velocity": 69}, {"time": 3723, "pitch": 58, "duration": 20, "velocity": 52}, {"time": 3723, "pitch": 63, "duration": 17, "velocity": 59}, {"time": 3723, "pitch": 67, "duration": 19, "velocity": 57}, {"time": 3729, "pitch": 51, "duration": 8, "velocity": 43}, {"time": 3735, "pitch": 53, "duration": 25, "velocity": 60}, {"time": 3741, "pitch": 55, "duration": 18, "velocity": 55}, {"time": 3747, "pitch": 58, "duration": 5, "velocity": 49}, {"time": 3753, "pitch": 58, "duration": 2, "velocity": 35}, {"time": 3753, "pitch": 63, "duration": 4, "velocity": 67}, {"time": 3759, "pitch": 67, "duration": 6, "velocity": 59}, {"time": 3765, "pitch": 70, "duration": 6, "velocity": 49}, {"time": 3771, "pitch": 43, "duration": 11, "velocity": 66}, {"time": 3771, "pitch": 69, "duration": 7, "velocity": 49}, {"time": 3777, "pitch": 50, "duration": 6, "velocity": 60}, {"time": 3777, "pitch": 67, "duration": 19, "velocity": 51}, {"time": 3783, "pitch": 55, "duration": 8, "velocity": 47}, {"time": 3789, "pitch": 57, "duration": 20, "velocity": 56}, {"time": 3795, "pitch": 58, "duration": 13, "velocity": 70}, {"time": 3801, "pitch": 62, "duration": 4, "velocity": 60}, {"time": 3807, "pitch": 67, "duration": 5, "velocity": 63}, {"time": 3813, "pitch": 69, "duration": 6, "velocity": 66}, {"time": 3819, "pitch": 43, "duration": 38, "velocity": 72}, {"time": 3819, "pitch": 62, "duration": 9, "velocity": 69}, {"time": 3819, "pitch": 70, "duration": 8, "velocity": 80}, {"time": 3825, "pitch": 50, "duration": 34, "velocity": 66}, {"time": 3831, "pitch": 55, "duration": 14, "velocity": 60}, {"time": 3837, "pitch": 58, "duration": 4, "velocity": 58}, {"time": 3843, "pitch": 58, "duration": 7, "velocity": 56}, {"time": 3843, "pitch": 62, "duration": 8, "velocity": 73}, {"time": 3843, "pitch": 67, "duration": 8, "velocity": 70}, {"time": 3849, "pitch": 55, "duration": 9, "velocity": 48}, {"time": 3855, "pitch": 58, "duration": 5, "velocity": 60}, {"time": 3861, "pitch": 67, "duration": 4, "velocity": 66}, {"time": 3867, "pitch": 41, "duration": 11, "velocity": 69}, {"time": 3867, "pitch": 65, "duration": 25, "velocity": 72}, {"time": 3873, "pitch": 48, "duration": 7, "velocity": 58}, {"time": 3879, "pitch": 53, "duration": 8, "velocity": 54}, {"time": 3885, "pitch": 55, "duration": 19, "velocity": 56}, {"time": 3891, "pitch": 57, "duration": 13, "velocity": 67}, {"time": 3897, "pitch": 60, "duration": 4, "velocity": 44}, {"time": 3903, "pitch": 65, "duration": 4, "velocity": 59}, {"time": 3909, "pitch": 67, "duration": 6, "velocity": 59}, {"time": 3915, "pitch": 43, "duration": 11, "velocity": 72}, {"time": 3915, "pitch": 62, "duration": 13, "velocity": 61}, {"time": 3915, "pitch": 70, "duration": 12, "velocity": 67}, {"time": 3918, "pitch": 67, "duration": 11, "velocity": 23}, {"time": 3921, "pitch": 50, "duration": 6, "velocity": 63}, {"time": 3927, "pitch": 55, "duration": 7, "velocity": 57}, {"time": 3933, "pitch": 57, "duration": 21, "velocity": 67}, {"time": 3939, "pitch": 58, "duration": 14, "velocity": 66}, {"time": 3939, "pitch": 62, "duration": 7, "velocity": 57}, {"time": 3939, "pitch": 67, "duration": 12, "velocity": 58}, {"time": 3939, "pitch": 70, "duration": 8, "velocity": 50}, {"time": 3951, "pitch": 60, "duration": 4, "velocity": 57}, {"time": 3951, "pitch": 69, "duration": 9, "velocity": 72}, {"time": 3963, "pitch": 43, "duration": 11, "velocity": 66}, {"time": 3963, "pitch": 62, "duration": 16, "velocity": 69}, {"time": 3963, "pitch": 67, "duration": 17, "velocity": 69}, {"time": 3963, "pitch": 70, "duration": 12, "velocity": 66}, {"time": 3969, "pitch": 50, "duration": 6, "velocity": 59}, {"time": 3975, "pitch": 55, "duration": 7, "velocity": 53}, {"time": 3981, "pitch": 57, "duration": 17, "velocity": 63}, {"time": 3987, "pitch": 58, "duration": 9, "velocity": 69}, {"time": 3987, "pitch": 62, "duration": 5, "velocity": 72}, {"time": 3987, "pitch": 67, "duration": 9, "velocity": 70}, {"time": 3987, "pitch": 70, "duration": 7, "velocity": 66}, {"time": 3999, "pitch": 60, "duration": 1, "velocity": 39}, {"time": 3999, "pitch": 67, "duration": 11, "velocity": 61}, {"time": 4011, "pitch": 38, "duration": 6, "velocity": 66}, {"time": 4011, "pitch": 60, "duration": 20, "velocity": 57}, {"time": 4011, "pitch": 65, "duration": 19, "velocity": 66}, {"time": 4011, "pitch": 69, "duration": 19, "velocity": 60}, {"time": 4017, "pitch": 50, "duration": 8, "velocity": 56}, {"time": 4023, "pitch": 53, "duration": 23, "velocity": 64}, {"time": 4029, "pitch": 57, "duration": 15, "velocity": 64}, {"time": 4035, "pitch": 60, "duration": 4, "velocity": 61}, {"time": 4041, "pitch": 65, "duration": 7, "velocity": 64}, {"time": 4047, "pitch": 67, "duration": 6, "velocity": 67}, {"time": 4053, "pitch": 69, "duration": 6, "velocity": 61}, {"time": 4059, "pitch": 43, "duration": 9, "velocity": 64}, {"time": 4059, "pitch": 67, "duration": 22, "velocity": 67}, {"time": 4065, "pitch": 50, "duration": 6, "velocity": 76}, {"time": 4071, "pitch": 55, "duration": 7, "velocity": 69}, {"time": 4077, "pitch": 57, "duration": 14, "velocity": 64}, {"time": 4083, "pitch": 58, "duration": 7, "velocity": 67}, {"time": 4089, "pitch": 62, "duration": 4, "velocity": 70}, {"time": 4095, "pitch": 67, "duration": 5, "velocity": 56}, {"time": 4101, "pitch": 69, "duration": 6, "velocity": 64}, {"time": 4107, "pitch": 43, "duration": 11, "velocity": 72}, {"time": 4107, "pitch": 62, "duration": 13, "velocity": 61}, {"time": 4107, "pitch": 70, "duration": 12, "velocity": 67}, {"time": 4110, "pitch": 67, "duration": 11, "velocity": 23}, {"time": 4113, "pitch": 50, "duration": 6, "velocity": 63}, {"time": 4119, "pitch": 55, "duration": 7, "velocity": 57}, {"time": 4125, "pitch": 57, "duration": 21, "velocity": 67}, {"time": 4131, "pitch": 58, "duration": 14, "velocity": 66}, {"time": 4131, "pitch": 62, "duration": 7, "velocity": 57}, {"time": 4131, "pitch": 67, "duration": 12, "velocity": 58}, {"time": 4131, "pitch": 70, "duration": 8, "velocity": 50}, {"time": 4143, "pitch": 60, "duration": 4, "velocity": 57}, {"time": 4143, "pitch": 69, "duration": 9, "velocity": 72}, {"time": 4155, "pitch": 43, "duration": 11, "velocity": 66}, {"time": 4155, "pitch": 62, "duration": 16, "velocity": 69}, {"time": 4155, "pitch": 67, "duration": 17, "velocity": 69}, {"time": 4155, "pitch": 70, "duration": 12, "velocity": 66}, {"time": 4161, "pitch": 50, "duration": 6, "velocity": 59}, {"time": 4167, "pitch": 55, "duration": 7, "velocity": 53}, {"time": 4173, "pitch": 57, "duration": 17, "velocity": 63}, {"time": 4179, "pitch": 58, "duration": 9, "velocity": 69}, {"time": 4179, "pitch": 62, "duration": 5, "velocity": 72}, {"time": 4179, "pitch": 67, "duration": 9, "velocity": 70}, {"time": 4179, "pitch": 70, "duration": 7, "velocity": 66}, {"time": 4191, "pitch": 60, "duration": 1, "velocity": 39}, {"time": 4191, "pitch": 67, "duration": 11, "velocity": 61}, {"time": 4203, "pitch": 38, "duration": 6, "velocity": 66}, {"time": 4203, "pitch": 60, "duration": 20, "velocity": 57}, {"time": 4203, "pitch": 65, "duration": 19, "velocity": 66}, {"time": 4203, "pitch": 69, "duration": 19, "velocity": 60}, {"time": 4209, "pitch": 50, "duration": 8, "velocity": 56}, {"time": 4215, "pitch": 53, "duration": 23, "velocity": 64}, {"time": 4221, "pitch": 57, "duration": 15, "velocity": 64}, {"time": 4227, "pitch": 60, "duration": 4, "velocity": 61}, {"time": 4233, "pitch": 65, "duration": 7, "velocity": 64}, {"time": 4239, "pitch": 67, "duration": 6, "velocity": 67}, {"time": 4245, "pitch": 69, "duration": 6, "velocity": 61}, {"time": 4251, "pitch": 43, "duration": 9, "velocity": 64}, {"time": 4251, "pitch": 67, "duration": 22, "velocity": 67}, {"time": 4257, "pitch": 50, "duration": 6, "velocity": 76}, {"time": 4263, "pitch": 55, "duration": 7, "velocity": 69}, {"time": 4269, "pitch": 57, "duration": 14, "velocity": 64}, {"time": 4275, "pitch": 58, "duration": 7, "velocity": 67}, {"time": 4281, "pitch": 62, "duration": 4, "velocity": 70}, {"time": 4287, "pitch": 67, "duration": 5, "velocity": 56}, {"time": 4293, "pitch": 69, "duration": 6, "velocity": 64}, {"time": 4299, "pitch": 69, "duration": 27, "velocity": 57}, {"time": 4299, "pitch": 41, "duration": 12, "velocity": 59}, {"time": 4299, "pitch": 65, "duration": 27, "velocity": 60}, {"time": 4299, "pitch": 60, "duration": 26, "velocity": 54}, {"time": 4305, "pitch": 48, "duration": 7, "velocity": 49}, {"time": 4312, "pitch": 53, "duration": 8, "velocity": 59}, {"time": 4318, "pitch": 55, "duration": 77, "velocity": 53}, {"time": 4325, "pitch": 57, "duration": 70, "velocity": 61}, {"time": 4330, "pitch": 60, "duration": 3, "velocity": 55}, {"time": 4335, "pitch": 65, "duration": 5, "velocity": 69}, {"time": 4339, "pitch": 67, "duration": 3, "velocity": 59}, {"time": 4343, "pitch": 69, "duration": 4, "velocity": 70}, {"time": 4349, "pitch": 72, "duration": 3, "velocity": 49}, {"time": 4354, "pitch": 77, "duration": 3, "velocity": 61}, {"time": 4360, "pitch": 79, "duration": 2, "velocity": 43}, {"time": 4367, "pitch": 81, "duration": 3, "velocity": 63}, {"time": 4377, "pitch": 84, "duration": 3, "velocity": 67}, {"time": 4410, "pitch": 55, "duration": 38, "velocity": 64}, {"time": 4410, "pitch": 74, "duration": 4, "velocity": 50}, {"time": 4416, "pitch": 62, "duration": 16, "velocity": 53}, {"time": 4416, "pitch": 74, "duration": 3, "velocity": 51}, {"time": 4422, "pitch": 67, "duration": 5, "velocity": 57}, {"time": 4422, "pitch": 74, "duration": 5, "velocity": 66}, {"time": 4428, "pitch": 67, "duration": 6, "velocity": 49}, {"time": 4434, "pitch": 70, "duration": 9, "velocity": 70}, {"time": 4440, "pitch": 62, "duration": 10, "velocity": 49}, {"time": 4446, "pitch": 70, "duration": 6, "velocity": 49}, {"time": 4452, "pitch": 72, "duration": 5, "velocity": 47}, {"time": 4458, "pitch": 55, "duration": 35, "velocity": 55}, {"time": 4458, "pitch": 67, "duration": 4, "velocity": 56}, {"time": 4458, "pitch": 74, "duration": 4, "velocity": 60}, {"time": 4464, "pitch": 62, "duration": 30, "velocity": 47}, {"time": 4464, "pitch": 67, "duration": 3, "velocity": 56}, {"time": 4464, "pitch": 74, "duration": 3, "velocity": 59}, {"time": 4470, "pitch": 67, "duration": 3, "velocity": 59}, {"time": 4470, "pitch": 74, "duration": 6, "velocity": 72}, {"time": 4476, "pitch": 67, "duration": 7, "velocity": 44}, {"time": 4482, "pitch": 70, "duration": 8, "velocity": 66}, {"time": 4488, "pitch": 65, "duration": 5, "velocity": 44}, {"time": 4494, "pitch": 72, "duration": 4, "velocity": 61}, {"time": 4500, "pitch": 70, "duration": 5, "velocity": 53}, {"time": 4506, "pitch": 50, "duration": 58, "velocity": 55}, {"time": 4506, "pitch": 69, "duration": 3, "velocity": 64}, {"time": 4512, "pitch": 57, "duration": 14, "velocity": 55}, {"time": 4512, "pitch": 69, "duration": 3, "velocity": 57}, {"time": 4518, "pitch": 62, "duration": 5, "velocity": 50}, {"time": 4518, "pitch": 69, "duration": 5, "velocity": 56}, {"time": 4524, "pitch": 67, "duration": 7, "velocity": 50}, {"time": 4530, "pitch": 57, "duration": 11, "velocity": 51}, {"time": 4530, "pitch": 60, "duration": 4, "velocity": 36}, {"time": 4530, "pitch": 65, "duration": 7, "velocity": 46}, {"time": 4539, "pitch": 67, "duration": 4, "velocity": 57}, {"time": 4542, "pitch": 57, "duration": 13, "velocity": 56}, {"time": 4542, "pitch": 60, "duration": 7, "velocity": 49}, {"time": 4554, "pitch": 62, "duration": 4, "velocity": 50}, {"time": 4560, "pitch": 43, "duration": 72, "velocity": 62}, {"time": 4561, "pitch": 58, "duration": 11, "velocity": 45}, {"time": 4562, "pitch": 62, "duration": 10, "velocity": 59}, {"time": 4565, "pitch": 67, "duration": 10, "velocity": 59}, {"time": 4571, "pitch": 50, "duration": 62, "velocity": 46}, {"time": 4576, "pitch": 55, "duration": 58, "velocity": 44}, {"time": 4581, "pitch": 58, "duration": 4, "velocity": 44}, {"time": 4586, "pitch": 62, "duration": 4, "velocity": 48}, {"time": 4591, "pitch": 67, "duration": 2, "velocity": 58}, {"time": 4595, "pitch": 69, "duration": 3, "velocity": 58}, {"time": 4600, "pitch": 70, "duration": 2, "velocity": 57}, {"time": 4605, "pitch": 74, "duration": 3, "velocity": 56}, {"time": 4610, "pitch": 79, "duration": 4, "velocity": 57}, {"time": 4616, "pitch": 81, "duration": 4, "velocity": 33}, {"time": 4621, "pitch": 82, "duration": 2, "velocity": 44}, {"time": 4627, "pitch": 86, "duration": 3, "velocity": 48}, {"time": 4636, "pitch": 91, "duration": 1, "velocity": 40}], "annotations": [{"time": 29, "annotation": {"number": 64, "value": 127}, "group": "control_change"}, {"time": 76, "annotation": {"number": 64, "value": 0}, "group": "control_change"}, {"time": 79, "annotation": {"number": 64, "value": 127}, "group": "control_change"}, {"time": 124, "annotation": {"number": 64, "value": 0}, "group": "control_change"}, {"time": 129, "annotation": {"number": 64, "value": 127}, "group": "control_change"}, {"time": 171, "annotation": {"number": 64, "value": 0}, "group": "control_change"}, {"time": 173, "annotation": {"number": 64, "value": 127}, "group": "control_change"}, {"time": 220, "annotation": {"number": 64, "value": 0}, "group": "control_change"}, {"time": 225, "annotation": {"number": 64, "value": 127}, "group": "control_change"}, {"time": 267, "annotation": {"number": 64, "value": 0}, "group": "control_change"}, {"time": 272, "annotation": {"number": 64, "value": 127}, "group": "control_change"}, {"time": 314, "annotation": {"number": 64, "value": 0}, "group": "control_change"}, {"time": 318, "annotation": {"number": 64, "value": 127}, "group": "control_change"}, {"time": 364, "annotation": {"number": 64, "value": 0}, "group": "control_change"}, {"time": 368, "annotation": {"number": 64, "value": 127}, "group": "control_change"}, {"time": 411, "annotation": {"number": 64, "value": 0}, "group": "control_change"}, {"time": 416, "annotation": {"number": 64, "value": 127}, "group": "control_change"}, {"time": 508, "annotation": {"number": 64, "value": 0}, "group": "control_change"}, {"time": 508, "annotation": {"number": 64, "value": 127}, "group": "control_change"}, {"time": 557, "annotation": {"number": 64, "value": 0}, "group": "control_change"}, {"time": 561, "annotation": {"number": 64, "value": 127}, "group": "control_change"}, {"time": 607, "annotation": {"number": 64, "value": 0}, "group": "control_change"}, {"time": 610, "annotation": {"number": 64, "value": 127}, "group": "control_change"}, {"time": 652, "annotation": {"number": 64, "value": 0}, "group": "control_change"}, {"time": 656, "annotation": {"number": 64, "value": 127}, "group": "control_change"}, {"time": 701, "annotation": {"number": 64, "value": 0}, "group": "control_change"}, {"time": 706, "annotation": {"number": 64, "value": 127}, "group": "control_change"}, {"time": 748, "annotation": {"number": 64, "value": 0}, "group": "control_change"}, {"time": 752, "annotation": {"number": 64, "value": 127}, "group": "control_change"}, {"time": 795, "annotation": {"number": 64, "value": 127}, "group": "control_change"}, {"time": 797, "annotation": {"number": 64, "value": 0}, "group": "control_change"}, {"time": 844, "annotation": {"number": 64, "value": 0}, "group": "control_change"}, {"time": 850, "annotation": {"number": 64, "value": 127}, "group": "control_change"}, {"time": 891, "annotation": {"number": 64, "value": 0}, "group": "control_change"}, {"time": 891, "annotation": {"number": 64, "value": 127}, "group": "control_change"}, {"time": 940, "annotation": {"number": 64, "value": 0}, "group": "control_change"}, {"time": 946, "annotation": {"number": 64, "value": 127}, "group": "control_change"}, {"time": 988, "annotation": {"number": 64, "value": 0}, "group": "control_change"}, {"time": 994, "annotation": {"number": 64, "value": 127}, "group": "control_change"}, {"time": 1036, "annotation": {"number": 64, "value": 0}, "group": "control_change"}, {"time": 1041, "annotation": {"number": 64, "value": 127}, "group": "control_change"}, {"time": 1084, "annotation": {"number": 64, "value": 0}, "group": "control_change"}, {"time": 1089, "annotation": {"number": 64, "value": 127}, "group": "control_change"}, {"time": 1134, "annotation": {"number": 64, "value": 0}, "group": "control_change"}, {"time": 1139, "annotation": {"number": 64, "value": 127}, "group": "control_change"}, {"time": 1180, "annotation": {"number": 64, "value": 0}, "group": "control_change"}, {"time": 1186, "annotation": {"number": 64, "value": 127}, "group": "control_change"}, {"time": 1227, "annotation": {"number": 64, "value": 0}, "group": "control_change"}, {"time": 1233, "annotation": {"number": 64, "value": 127}, "group": "control_change"}, {"time": 1276, "annotation": {"number": 64, "value": 0}, "group": "control_change"}, {"time": 1281, "annotation": {"number": 64, "value": 127}, "group": "control_change"}, {"time": 1321, "annotation": {"number": 64, "value": 0}, "group": "control_change"}, {"time": 1325, "annotation": {"number": 64, "value": 127}, "group": "control_change"}, {"time": 1373, "annotation": {"number": 64, "value": 0}, "group": "control_change"}, {"time": 1379, "annotation": {"number": 64, "value": 127}, "group": "control_change"}, {"time": 1421, "annotation": {"number": 64, "value": 0}, "group": "control_change"}, {"time": 1427, "annotation": {"number": 64, "value": 127}, "group": "control_change"}, {"time": 1468, "annotation": {"number": 64, "value": 0}, "group": "control_change"}, {"time": 1473, "annotation": {"number": 64, "value": 127}, "group": "control_change"}, {"time": 1515, "annotation": {"number": 64, "value": 0}, "group": "control_change"}, {"time": 1518, "annotation": {"number": 64, "value": 127}, "group": "control_change"}, {"time": 1564, "annotation": {"number": 64, "value": 0}, "group": "control_change"}, {"time": 1571, "annotation": {"number": 64, "value": 127}, "group": "control_change"}, {"time": 1611, "annotation": {"number": 64, "value": 0}, "group": "control_change"}, {"time": 1618, "annotation": {"number": 64, "value": 127}, "group": "control_change"}, {"time": 1659, "annotation": {"number": 64, "value": 0}, "group": "control_change"}, {"time": 1665, "annotation": {"number": 64, "value": 127}, "group": "control_change"}, {"time": 1705, "annotation": {"number": 64, "value": 0}, "group": "control_change"}, {"time": 1708, "annotation": {"number": 64, "value": 127}, "group": "control_change"}, {"time": 1757, "annotation": {"number": 64, "value": 0}, "group": "control_change"}, {"time": 1762, "annotation": {"number": 64, "value": 127}, "group": "control_change"}, {"time": 1804, "annotation": {"number": 64, "value": 0}, "group": "control_change"}, {"time": 1810, "annotation": {"number": 64, "value": 127}, "group": "control_change"}, {"time": 1851, "annotation": {"number": 64, "value": 0}, "group": "control_change"}, {"time": 1856, "annotation": {"number": 64, "value": 127}, "group": "control_change"}, {"time": 1899, "annotation": {"number": 64, "value": 0}, "group": "control_change"}, {"time": 1905, "annotation": {"number": 64, "value": 127}, "group": "control_change"}, {"time": 1948, "annotation": {"number": 64, "value": 0}, "group": "control_change"}, {"time": 1954, "annotation": {"number": 64, "value": 127}, "group": "control_change"}, {"time": 1994, "annotation": {"number": 64, "value": 0}, "group": "control_change"}, {"time": 1998, "annotation": {"number": 64, "value": 127}, "group": "control_change"}, {"time": 2044, "annotation": {"number": 64, "value": 0}, "group": "control_change"}, {"time": 2050, "annotation": {"number": 64, "value": 127}, "group": "control_change"}, {"time": 2090, "annotation": {"number": 64, "value": 0}, "group": "control_change"}, {"time": 2097, "annotation": {"number": 64, "value": 127}, "group": "control_change"}, {"time": 2137, "annotation": {"number": 64, "value": 0}, "group": "control_change"}, {"time": 2142, "annotation": {"number": 64, "value": 127}, "group": "control_change"}, {"time": 2186, "annotation": {"number": 64, "value": 0}, "group": "control_change"}, {"time": 2191, "annotation": {"number": 64, "value": 127}, "group": "control_change"}, {"time": 2234, "annotation": {"number": 64, "value": 0}, "group": "control_change"}, {"time": 2239, "annotation": {"number": 64, "value": 127}, "group": "control_change"}, {"time": 2286, "annotation": {"number": 64, "value": 0}, "group": "control_change"}, {"time": 2288, "annotation": {"number": 64, "value": 127}, "group": "control_change"}, {"time": 2333, "annotation": {"number": 64, "value": 0}, "group": "control_change"}, {"time": 2338, "annotation": {"number": 64, "value": 127}, "group": "control_change"}, {"time": 2379, "annotation": {"number": 64, "value": 0}, "group": "control_change"}, {"time": 2385, "annotation": {"number": 64, "value": 127}, "group": "control_change"}, {"time": 2402, "annotation": {"number": 64, "value": 0}, "group": "control_change"}, {"time": 2408, "annotation": {"number": 64, "value": 127}, "group": "control_change"}, {"time": 2428, "annotation": {"number": 64, "value": 0}, "group": "control_change"}, {"time": 2435, "annotation": {"number": 64, "value": 127}, "group": "control_change"}, {"time": 2475, "annotation": {"number": 64, "value": 0}, "group": "control_change"}, {"time": 2484, "annotation": {"number": 64, "value": 127}, "group": "control_change"}, {"time": 2524, "annotation": {"number": 64, "value": 0}, "group": "control_change"}, {"time": 2526, "annotation": {"number": 64, "value": 127}, "group": "control_change"}, {"time": 2571, "annotation": {"number": 64, "value": 0}, "group": "control_change"}, {"time": 2576, "annotation": {"number": 64, "value": 127}, "group": "control_change"}, {"time": 2621, "annotation": {"number": 64, "value": 0}, "group": "control_change"}, {"time": 2624, "annotation": {"number": 64, "value": 127}, "group": "control_change"}, {"time": 2668, "annotation": {"number": 64, "value": 0}, "group": "control_change"}, {"time": 2673, "annotation": {"number": 64, "value": 127}, "group": "control_change"}, {"time": 2717, "annotation": {"number": 64, "value": 0}, "group": "control_change"}, {"time": 2720, "annotation": {"number": 64, "value": 127}, "group": "control_change"}, {"time": 2765, "annotation": {"number": 64, "value": 0}, "group": "control_change"}, {"time": 2768, "annotation": {"number": 64, "value": 127}, "group": "control_change"}, {"time": 2812, "annotation": {"number": 64, "value": 0}, "group": "control_change"}, {"time": 2816, "annotation": {"number": 64, "value": 127}, "group": "control_change"}, {"time": 2859, "annotation": {"number": 64, "value": 0}, "group": "control_change"}, {"time": 2864, "annotation": {"number": 64, "value": 127}, "group": "control_change"}, {"time": 2907, "annotation": {"number": 64, "value": 0}, "group": "control_change"}, {"time": 2908, "annotation": {"number": 64, "value": 127}, "group": "control_change"}, {"time": 2956, "annotation": {"number": 64, "value": 0}, "group": "control_change"}, {"time": 2961, "annotation": {"number": 64, "value": 127}, "group": "control_change"}, {"time": 3004, "annotation": {"number": 64, "value": 0}, "group": "control_change"}, {"time": 3008, "annotation": {"number": 64, "value": 127}, "group": "control_change"}, {"time": 3053, "annotation": {"number": 64, "value": 0}, "group": "control_change"}, {"time": 3057, "annotation": {"number": 64, "value": 127}, "group": "control_change"}, {"time": 3102, "annotation": {"number": 64, "value": 0}, "group": "control_change"}, {"time": 3106, "annotation": {"number": 64, "value": 127}, "group": "control_change"}, {"time": 3148, "annotation": {"number": 64, "value": 0}, "group": "control_change"}, {"time": 3153, "annotation": {"number": 64, "value": 127}, "group": "control_change"}, {"time": 3196, "annotation": {"number": 64, "value": 0}, "group": "control_change"}, {"time": 3200, "annotation": {"number": 64, "value": 127}, "group": "control_change"}, {"time": 3243, "annotation": {"number": 64, "value": 0}, "group": "control_change"}, {"time": 3244, "annotation": {"number": 64, "value": 127}, "group": "control_change"}, {"time": 3341, "annotation": {"number": 64, "value": 127}, "group": "control_change"}, {"time": 3342, "annotation": {"number": 64, "value": 0}, "group": "control_change"}, {"time": 3345, "annotation": {"number": 64, "value": 127}, "group": "control_change"}, {"time": 3358, "annotation": {"number": 64, "value": 0}, "group": "control_change"}, {"time": 3387, "annotation": {"number": 64, "value": 0}, "group": "control_change"}, {"time": 3390, "annotation": {"number": 64, "value": 127}, "group": "control_change"}, {"time": 3435, "annotation": {"number": 64, "value": 0}, "group": "control_change"}, {"time": 3436, "annotation": {"number": 64, "value": 127}, "group": "control_change"}, {"time": 3486, "annotation": {"number": 64, "value": 0}, "group": "control_change"}, {"time": 3489, "annotation": {"number": 64, "value": 127}, "group": "control_change"}, {"time": 3532, "annotation": {"number": 64, "value": 0}, "group": "control_change"}, {"time": 3535, "annotation": {"number": 64, "value": 127}, "group": "control_change"}, {"time": 3579, "annotation": {"number": 64, "value": 0}, "group": "control_change"}, {"time": 3583, "annotation": {"number": 64, "value": 127}, "group": "control_change"}, {"time": 3629, "annotation": {"number": 64, "value": 0}, "group": "control_change"}, {"time": 3633, "annotation": {"number": 64, "value": 127}, "group": "control_change"}, {"time": 3671, "annotation": {"number": 64, "value": 0}, "group": "control_change"}, {"time": 3674, "annotation": {"number": 64, "value": 127}, "group": "control_change"}, {"time": 3719, "annotation": {"number": 64, "value": 0}, "group": "control_change"}, {"time": 3724, "annotation": {"number": 64, "value": 127}, "group": "control_change"}, {"time": 3772, "annotation": {"number": 64, "value": 0}, "group": "control_change"}, {"time": 3777, "annotation": {"number": 64, "value": 127}, "group": "control_change"}, {"time": 3819, "annotation": {"number": 64, "value": 0}, "group": "control_change"}, {"time": 3820, "annotation": {"number": 64, "value": 0}, "group": "control_change"}, {"time": 3824, "annotation": {"number": 64, "value": 127}, "group": "control_change"}, {"time": 3869, "annotation": {"number": 64, "value": 0}, "group": "control_change"}, {"time": 3873, "annotation": {"number": 64, "value": 127}, "group": "control_change"}, {"time": 3915, "annotation": {"number": 64, "value": 0}, "group": "control_change"}, {"time": 3918, "annotation": {"number": 64, "value": 0}, "group": "control_change"}, {"time": 3922, "annotation": {"number": 64, "value": 127}, "group": "control_change"}, {"time": 3963, "annotation": {"number": 64, "value": 0}, "group": "control_change"}, {"time": 3964, "annotation": {"number": 64, "value": 0}, "group": "control_change"}, {"time": 3969, "annotation": {"number": 64, "value": 127}, "group": "control_change"}, {"time": 4012, "annotation": {"number": 64, "value": 0}, "group": "control_change"}, {"time": 4016, "annotation": {"number": 64, "value": 127}, "group": "control_change"}, {"time": 4057, "annotation": {"number": 64, "value": 127}, "group": "control_change"}, {"time": 4059, "annotation": {"number": 64, "value": 0}, "group": "control_change"}, {"time": 4110, "annotation": {"number": 64, "value": 0}, "group": "control_change"}, {"time": 4114, "annotation": {"number": 64, "value": 127}, "group": "control_change"}, {"time": 4155, "annotation": {"number": 64, "value": 0}, "group": "control_change"}, {"time": 4156, "annotation": {"number": 64, "value": 0}, "group": "control_change"}, {"time": 4161, "annotation": {"number": 64, "value": 127}, "group": "control_change"}, {"time": 4204, "annotation": {"number": 64, "value": 0}, "group": "control_change"}, {"time": 4208, "annotation": {"number": 64, "value": 127}, "group": "control_change"}, {"time": 4231, "annotation": {"number": 64, "value": 127}, "group": "control_change"}, {"time": 4249, "annotation": {"number": 64, "value": 0}, "group": "control_change"}, {"time": 4249, "annotation": {"number": 64, "value": 127}, "group": "control_change"}, {"time": 4251, "annotation": {"number": 64, "value": 0}, "group": "control_change"}, {"time": 4253, "annotation": {"number": 64, "value": 127}, "group": "control_change"}, {"time": 4299, "annotation": {"number": 64, "value": 0}, "group": "control_change"}, {"time": 4303, "annotation": {"number": 64, "value": 127}, "group": "control_change"}, {"time": 4413, "annotation": {"number": 64, "value": 0}, "group": "control_change"}, {"time": 4417, "annotation": {"number": 64, "value": 127}, "group": "control_change"}, {"time": 4463, "annotation": {"number": 64, "value": 0}, "group": "control_change"}, {"time": 4465, "annotation": {"number": 64, "value": 127}, "group": "control_change"}, {"time": 4511, "annotation": {"number": 64, "value": 0}, "group": "control_change"}, {"time": 4512, "annotation": {"number": 64, "value": 127}, "group": "control_change"}, {"time": 4587, "annotation": {"number": 64, "value": 0}, "group": "control_change"}, {"time": 4590, "annotation": {"number": 64, "value": 127}, "group": "control_change"}]}]}