{"metadata": {"schema_version": "0.2", "title": "None", "source_filename": "196.mid", "source_format": "midi"}, "resolution": 12, "tempos": [{"time": 0, "qpm": 100.0}], "key_signatures": [{"time": 0, "root": 0, "mode": "major"}], "time_signatures": [{"time": 0, "numerator": 4, "denominator": 4}], "tracks": [{"program": 4, "is_drum": false, "name": "MELODY", "notes": [{"time": 423, "pitch": 63, "duration": 4, "velocity": 61}, {"time": 429, "pitch": 63, "duration": 4, "velocity": 66}, {"time": 435, "pitch": 63, "duration": 6, "velocity": 59}, {"time": 441, "pitch": 70, "duration": 6, "velocity": 77}, {"time": 447, "pitch": 70, "duration": 10, "velocity": 65}, {"time": 459, "pitch": 70, "duration": 6, "velocity": 65}, {"time": 465, "pitch": 68, "duration": 4, "velocity": 87}, {"time": 471, "pitch": 68, "duration": 4, "velocity": 75}, {"time": 477, "pitch": 68, "duration": 6, "velocity": 71}, {"time": 483, "pitch": 70, "duration": 6, "velocity": 75}, {"time": 489, "pitch": 66, "duration": 6, "velocity": 71}, {"time": 495, "pitch": 63, "duration": 10, "velocity": 64}, {"time": 513, "pitch": 68, "duration": 10, "velocity": 99}, {"time": 525, "pitch": 68, "duration": 9, "velocity": 93}, {"time": 537, "pitch": 68, "duration": 6, "velocity": 90}, {"time": 543, "pitch": 70, "duration": 18, "velocity": 97}, {"time": 561, "pitch": 66, "duration": 5, "velocity": 96}, {"time": 567, "pitch": 63, "duration": 28, "velocity": 68}, {"time": 615, "pitch": 75, "duration": 2, "velocity": 96}, {"time": 621, "pitch": 75, "duration": 2, "velocity": 95}, {"time": 627, "pitch": 75, "duration": 3, "velocity": 87}, {"time": 633, "pitch": 75, "duration": 3, "velocity": 94}, {"time": 639, "pitch": 75, "duration": 3, "velocity": 87}, {"time": 645, "pitch": 75, "duration": 4, "velocity": 90}, {"time": 651, "pitch": 75, "duration": 6, "velocity": 66}, {"time": 657, "pitch": 73, "duration": 5, "velocity": 84}, {"time": 663, "pitch": 70, "duration": 4, "velocity": 54}, {"time": 669, "pitch": 70, "duration": 3, "velocity": 66}, {"time": 675, "pitch": 70, "duration": 7, "velocity": 66}, {"time": 681, "pitch": 73, "duration": 6, "velocity": 91}, {"time": 687, "pitch": 70, "duration": 11, "velocity": 92}, {"time": 705, "pitch": 68, "duration": 11, "velocity": 97}, {"time": 717, "pitch": 68, "duration": 12, "velocity": 101}, {"time": 729, "pitch": 66, "duration": 7, "velocity": 93}, {"time": 735, "pitch": 68, "duration": 17, "velocity": 101}, {"time": 747, "pitch": 70, "duration": 15, "velocity": 98}, {"time": 795, "pitch": 70, "duration": 6, "velocity": 82}, {"time": 801, "pitch": 78, "duration": 4, "velocity": 85}, {"time": 807, "pitch": 78, "duration": 3, "velocity": 92}, {"time": 813, "pitch": 78, "duration": 7, "velocity": 90}, {"time": 819, "pitch": 77, "duration": 6, "velocity": 93}, {"time": 825, "pitch": 75, "duration": 13, "velocity": 90}, {"time": 843, "pitch": 73, "duration": 5, "velocity": 91}, {"time": 849, "pitch": 75, "duration": 3, "velocity": 66}, {"time": 855, "pitch": 75, "duration": 3, "velocity": 76}, {"time": 861, "pitch": 75, "duration": 6, "velocity": 73}, {"time": 867, "pitch": 73, "duration": 6, "velocity": 89}, {"time": 873, "pitch": 70, "duration": 7, "velocity": 82}, {"time": 879, "pitch": 73, "duration": 15, "velocity": 100}, {"time": 897, "pitch": 68, "duration": 3, "velocity": 94}, {"time": 903, "pitch": 68, "duration": 4, "velocity": 90}, {"time": 909, "pitch": 68, "duration": 3, "velocity": 79}, {"time": 915, "pitch": 68, "duration": 4, "velocity": 74}, {"time": 921, "pitch": 68, "duration": 4, "velocity": 76}, {"time": 927, "pitch": 68, "duration": 6, "velocity": 77}, {"time": 933, "pitch": 66, "duration": 6, "velocity": 66}, {"time": 939, "pitch": 63, "duration": 7, "velocity": 64}, {"time": 945, "pitch": 68, "duration": 5, "velocity": 66}, {"time": 951, "pitch": 70, "duration": 4, "velocity": 91}, {"time": 957, "pitch": 70, "duration": 5, "velocity": 92}, {"time": 963, "pitch": 73, "duration": 5, "velocity": 87}, {"time": 969, "pitch": 70, "duration": 15, "velocity": 92}, {"time": 987, "pitch": 70, "duration": 6, "velocity": 93}, {"time": 993, "pitch": 78, "duration": 4, "velocity": 94}, {"time": 999, "pitch": 78, "duration": 3, "velocity": 97}, {"time": 1005, "pitch": 78, "duration": 6, "velocity": 92}, {"time": 1011, "pitch": 77, "duration": 6, "velocity": 100}, {"time": 1017, "pitch": 75, "duration": 15, "velocity": 105}, {"time": 1041, "pitch": 75, "duration": 3, "velocity": 98}, {"time": 1047, "pitch": 75, "duration": 3, "velocity": 97}, {"time": 1053, "pitch": 75, "duration": 6, "velocity": 96}, {"time": 1059, "pitch": 70, "duration": 6, "velocity": 91}, {"time": 1065, "pitch": 73, "duration": 14, "velocity": 100}, {"time": 1083, "pitch": 66, "duration": 5, "velocity": 79}, {"time": 1089, "pitch": 68, "duration": 8, "velocity": 76}, {"time": 1101, "pitch": 68, "duration": 4, "velocity": 87}, {"time": 1107, "pitch": 68, "duration": 3, "velocity": 73}, {"time": 1113, "pitch": 68, "duration": 3, "velocity": 75}, {"time": 1119, "pitch": 68, "duration": 6, "velocity": 66}, {"time": 1125, "pitch": 66, "duration": 6, "velocity": 69}, {"time": 1131, "pitch": 63, "duration": 7, "velocity": 61}, {"time": 1137, "pitch": 68, "duration": 4, "velocity": 59}, {"time": 1143, "pitch": 70, "duration": 5, "velocity": 55}, {"time": 1149, "pitch": 70, "duration": 5, "velocity": 62}, {"time": 1155, "pitch": 70, "duration": 11, "velocity": 100}, {"time": 1167, "pitch": 70, "duration": 7, "velocity": 98}, {"time": 1173, "pitch": 68, "duration": 5, "velocity": 89}, {"time": 1179, "pitch": 66, "duration": 7, "velocity": 80}, {"time": 1185, "pitch": 68, "duration": 19, "velocity": 91}, {"time": 1203, "pitch": 63, "duration": 36, "velocity": 62}, {"time": 1269, "pitch": 63, "duration": 4, "velocity": 87}, {"time": 1275, "pitch": 63, "duration": 5, "velocity": 80}, {"time": 1281, "pitch": 70, "duration": 10, "velocity": 93}, {"time": 1293, "pitch": 70, "duration": 5, "velocity": 91}, {"time": 1299, "pitch": 73, "duration": 6, "velocity": 86}, {"time": 1305, "pitch": 68, "duration": 9, "velocity": 90}, {"time": 1317, "pitch": 68, "duration": 6, "velocity": 71}, {"time": 1323, "pitch": 70, "duration": 5, "velocity": 73}, {"time": 1329, "pitch": 66, "duration": 10, "velocity": 83}, {"time": 1341, "pitch": 63, "duration": 6, "velocity": 56}, {"time": 1347, "pitch": 61, "duration": 13, "velocity": 57}, {"time": 1359, "pitch": 63, "duration": 36, "velocity": 68}, {"time": 1479, "pitch": 63, "duration": 4, "velocity": 66}, {"time": 1485, "pitch": 63, "duration": 4, "velocity": 63}, {"time": 1491, "pitch": 63, "duration": 6, "velocity": 56}, {"time": 1497, "pitch": 70, "duration": 4, "velocity": 66}, {"time": 1503, "pitch": 70, "duration": 4, "velocity": 69}, {"time": 1509, "pitch": 70, "duration": 6, "velocity": 87}, {"time": 1515, "pitch": 73, "duration": 7, "velocity": 69}, {"time": 1521, "pitch": 68, "duration": 4, "velocity": 72}, {"time": 1527, "pitch": 68, "duration": 4, "velocity": 66}, {"time": 1533, "pitch": 68, "duration": 7, "velocity": 61}, {"time": 1539, "pitch": 66, "duration": 9, "velocity": 100}, {"time": 1545, "pitch": 63, "duration": 11, "velocity": 58}, {"time": 1569, "pitch": 68, "duration": 10, "velocity": 91}, {"time": 1581, "pitch": 68, "duration": 9, "velocity": 90}, {"time": 1593, "pitch": 68, "duration": 6, "velocity": 84}, {"time": 1599, "pitch": 70, "duration": 18, "velocity": 92}, {"time": 1617, "pitch": 66, "duration": 6, "velocity": 96}, {"time": 1623, "pitch": 63, "duration": 22, "velocity": 87}, {"time": 1671, "pitch": 75, "duration": 3, "velocity": 96}, {"time": 1677, "pitch": 75, "duration": 3, "velocity": 97}, {"time": 1683, "pitch": 75, "duration": 3, "velocity": 90}, {"time": 1689, "pitch": 75, "duration": 3, "velocity": 90}, {"time": 1695, "pitch": 75, "duration": 3, "velocity": 87}, {"time": 1701, "pitch": 75, "duration": 2, "velocity": 91}, {"time": 1707, "pitch": 75, "duration": 3, "velocity": 91}, {"time": 1713, "pitch": 73, "duration": 12, "velocity": 106}, {"time": 1725, "pitch": 70, "duration": 6, "velocity": 86}, {"time": 1731, "pitch": 73, "duration": 12, "velocity": 92}, {"time": 1743, "pitch": 70, "duration": 10, "velocity": 81}, {"time": 1761, "pitch": 68, "duration": 10, "velocity": 94}, {"time": 1773, "pitch": 68, "duration": 6, "velocity": 94}, {"time": 1779, "pitch": 68, "duration": 18, "velocity": 91}, {"time": 1797, "pitch": 66, "duration": 12, "velocity": 84}, {"time": 1809, "pitch": 70, "duration": 25, "velocity": 101}, {"time": 1851, "pitch": 70, "duration": 5, "velocity": 83}, {"time": 1857, "pitch": 78, "duration": 4, "velocity": 92}, {"time": 1863, "pitch": 78, "duration": 2, "velocity": 97}, {"time": 1869, "pitch": 78, "duration": 6, "velocity": 97}, {"time": 1875, "pitch": 77, "duration": 12, "velocity": 101}, {"time": 1887, "pitch": 75, "duration": 7, "velocity": 106}, {"time": 1899, "pitch": 73, "duration": 5, "velocity": 87}, {"time": 1905, "pitch": 75, "duration": 4, "velocity": 93}, {"time": 1911, "pitch": 75, "duration": 4, "velocity": 90}, {"time": 1917, "pitch": 75, "duration": 6, "velocity": 91}, {"time": 1923, "pitch": 73, "duration": 6, "velocity": 97}, {"time": 1929, "pitch": 70, "duration": 7, "velocity": 87}, {"time": 1935, "pitch": 73, "duration": 15, "velocity": 101}, {"time": 1953, "pitch": 68, "duration": 3, "velocity": 101}, {"time": 1959, "pitch": 68, "duration": 4, "velocity": 90}, {"time": 1965, "pitch": 68, "duration": 4, "velocity": 91}, {"time": 1971, "pitch": 68, "duration": 4, "velocity": 91}, {"time": 1977, "pitch": 68, "duration": 4, "velocity": 89}, {"time": 1983, "pitch": 68, "duration": 6, "velocity": 87}, {"time": 1989, "pitch": 66, "duration": 6, "velocity": 75}, {"time": 1995, "pitch": 63, "duration": 7, "velocity": 72}, {"time": 2001, "pitch": 68, "duration": 6, "velocity": 68}, {"time": 2007, "pitch": 70, "duration": 4, "velocity": 81}, {"time": 2013, "pitch": 70, "duration": 4, "velocity": 91}, {"time": 2019, "pitch": 70, "duration": 18, "velocity": 100}, {"time": 2043, "pitch": 70, "duration": 6, "velocity": 74}, {"time": 2049, "pitch": 78, "duration": 4, "velocity": 94}, {"time": 2055, "pitch": 78, "duration": 3, "velocity": 97}, {"time": 2061, "pitch": 78, "duration": 7, "velocity": 93}, {"time": 2067, "pitch": 77, "duration": 7, "velocity": 91}, {"time": 2073, "pitch": 75, "duration": 15, "velocity": 90}, {"time": 2097, "pitch": 75, "duration": 3, "velocity": 106}, {"time": 2103, "pitch": 75, "duration": 3, "velocity": 91}, {"time": 2109, "pitch": 75, "duration": 5, "velocity": 91}, {"time": 2115, "pitch": 70, "duration": 6, "velocity": 93}, {"time": 2121, "pitch": 73, "duration": 14, "velocity": 106}, {"time": 2139, "pitch": 66, "duration": 7, "velocity": 92}, {"time": 2145, "pitch": 68, "duration": 4, "velocity": 93}, {"time": 2151, "pitch": 68, "duration": 4, "velocity": 97}, {"time": 2157, "pitch": 68, "duration": 4, "velocity": 92}, {"time": 2163, "pitch": 68, "duration": 3, "velocity": 95}, {"time": 2169, "pitch": 68, "duration": 3, "velocity": 90}, {"time": 2175, "pitch": 68, "duration": 6, "velocity": 91}, {"time": 2181, "pitch": 66, "duration": 5, "velocity": 85}, {"time": 2187, "pitch": 63, "duration": 7, "velocity": 64}, {"time": 2193, "pitch": 68, "duration": 6, "velocity": 66}, {"time": 2199, "pitch": 70, "duration": 4, "velocity": 87}, {"time": 2205, "pitch": 70, "duration": 3, "velocity": 97}, {"time": 2211, "pitch": 70, "duration": 10, "velocity": 99}, {"time": 2223, "pitch": 70, "duration": 7, "velocity": 99}, {"time": 2229, "pitch": 68, "duration": 5, "velocity": 97}, {"time": 2235, "pitch": 66, "duration": 7, "velocity": 87}, {"time": 2241, "pitch": 68, "duration": 19, "velocity": 99}, {"time": 2259, "pitch": 63, "duration": 33, "velocity": 86}, {"time": 2325, "pitch": 63, "duration": 4, "velocity": 90}, {"time": 2331, "pitch": 63, "duration": 4, "velocity": 75}, {"time": 2337, "pitch": 70, "duration": 9, "velocity": 91}, {"time": 2349, "pitch": 70, "duration": 5, "velocity": 97}, {"time": 2355, "pitch": 73, "duration": 6, "velocity": 87}, {"time": 2361, "pitch": 68, "duration": 9, "velocity": 97}, {"time": 2373, "pitch": 68, "duration": 5, "velocity": 93}, {"time": 2379, "pitch": 70, "duration": 6, "velocity": 96}, {"time": 2385, "pitch": 66, "duration": 12, "velocity": 92}, {"time": 2397, "pitch": 63, "duration": 6, "velocity": 89}, {"time": 2403, "pitch": 61, "duration": 13, "velocity": 91}, {"time": 2415, "pitch": 63, "duration": 47, "velocity": 103}, {"time": 2511, "pitch": 73, "duration": 7, "velocity": 57}, {"time": 2517, "pitch": 75, "duration": 6, "velocity": 90}, {"time": 2523, "pitch": 78, "duration": 6, "velocity": 96}, {"time": 2529, "pitch": 80, "duration": 3, "velocity": 89}, {"time": 2535, "pitch": 80, "duration": 4, "velocity": 87}, {"time": 2541, "pitch": 80, "duration": 4, "velocity": 87}, {"time": 2547, "pitch": 80, "duration": 3, "velocity": 97}, {"time": 2553, "pitch": 80, "duration": 4, "velocity": 92}, {"time": 2559, "pitch": 80, "duration": 3, "velocity": 91}, {"time": 2565, "pitch": 80, "duration": 6, "velocity": 97}, {"time": 2571, "pitch": 82, "duration": 7, "velocity": 89}, {"time": 2577, "pitch": 80, "duration": 6, "velocity": 97}, {"time": 2583, "pitch": 78, "duration": 12, "velocity": 100}, {"time": 2595, "pitch": 75, "duration": 10, "velocity": 93}, {"time": 2625, "pitch": 75, "duration": 4, "velocity": 97}, {"time": 2631, "pitch": 75, "duration": 4, "velocity": 101}, {"time": 2637, "pitch": 75, "duration": 4, "velocity": 91}, {"time": 2643, "pitch": 75, "duration": 4, "velocity": 92}, {"time": 2649, "pitch": 75, "duration": 4, "velocity": 90}, {"time": 2655, "pitch": 75, "duration": 3, "velocity": 90}, {"time": 2661, "pitch": 75, "duration": 6, "velocity": 90}, {"time": 2667, "pitch": 78, "duration": 6, "velocity": 99}, {"time": 2673, "pitch": 75, "duration": 6, "velocity": 97}, {"time": 2679, "pitch": 73, "duration": 4, "velocity": 91}, {"time": 2685, "pitch": 73, "duration": 12, "velocity": 72}, {"time": 2697, "pitch": 70, "duration": 14, "velocity": 87}, {"time": 2715, "pitch": 70, "duration": 5, "velocity": 103}, {"time": 2721, "pitch": 68, "duration": 6, "velocity": 98}, {"time": 2727, "pitch": 70, "duration": 7, "velocity": 97}, {"time": 2733, "pitch": 68, "duration": 5, "velocity": 97}, {"time": 2739, "pitch": 66, "duration": 13, "velocity": 93}, {"time": 2751, "pitch": 63, "duration": 8, "velocity": 100}, {"time": 2763, "pitch": 70, "duration": 6, "velocity": 127}, {"time": 2769, "pitch": 68, "duration": 7, "velocity": 90}, {"time": 2775, "pitch": 70, "duration": 7, "velocity": 87}, {"time": 2781, "pitch": 68, "duration": 6, "velocity": 84}, {"time": 2787, "pitch": 66, "duration": 13, "velocity": 91}, {"time": 2799, "pitch": 63, "duration": 8, "velocity": 82}, {"time": 2811, "pitch": 63, "duration": 6, "velocity": 76}, {"time": 2817, "pitch": 75, "duration": 2, "velocity": 87}, {"time": 2823, "pitch": 75, "duration": 3, "velocity": 91}, {"time": 2829, "pitch": 75, "duration": 3, "velocity": 96}, {"time": 2835, "pitch": 75, "duration": 3, "velocity": 95}, {"time": 2841, "pitch": 75, "duration": 11, "velocity": 93}, {"time": 2853, "pitch": 70, "duration": 4, "velocity": 100}, {"time": 2859, "pitch": 75, "duration": 12, "velocity": 100}, {"time": 2871, "pitch": 73, "duration": 16, "velocity": 100}, {"time": 2895, "pitch": 73, "duration": 5, "velocity": 97}, {"time": 2901, "pitch": 75, "duration": 4, "velocity": 101}, {"time": 2907, "pitch": 78, "duration": 7, "velocity": 97}, {"time": 2913, "pitch": 80, "duration": 11, "velocity": 97}, {"time": 2925, "pitch": 80, "duration": 4, "velocity": 94}, {"time": 2931, "pitch": 80, "duration": 3, "velocity": 77}, {"time": 2937, "pitch": 80, "duration": 8, "velocity": 105}, {"time": 2949, "pitch": 80, "duration": 6, "velocity": 100}, {"time": 2955, "pitch": 82, "duration": 7, "velocity": 99}, {"time": 2961, "pitch": 80, "duration": 7, "velocity": 105}, {"time": 2967, "pitch": 78, "duration": 11, "velocity": 106}, {"time": 2979, "pitch": 75, "duration": 13, "velocity": 98}, {"time": 3003, "pitch": 73, "duration": 6, "velocity": 105}, {"time": 3009, "pitch": 75, "duration": 4, "velocity": 92}, {"time": 3015, "pitch": 75, "duration": 3, "velocity": 96}, {"time": 3021, "pitch": 75, "duration": 4, "velocity": 89}, {"time": 3027, "pitch": 75, "duration": 3, "velocity": 94}, {"time": 3033, "pitch": 75, "duration": 9, "velocity": 94}, {"time": 3045, "pitch": 75, "duration": 6, "velocity": 92}, {"time": 3051, "pitch": 78, "duration": 6, "velocity": 87}, {"time": 3057, "pitch": 75, "duration": 6, "velocity": 93}, {"time": 3063, "pitch": 73, "duration": 3, "velocity": 97}, {"time": 3069, "pitch": 73, "duration": 11, "velocity": 85}, {"time": 3081, "pitch": 70, "duration": 10, "velocity": 87}, {"time": 3099, "pitch": 70, "duration": 6, "velocity": 98}, {"time": 3105, "pitch": 68, "duration": 6, "velocity": 97}, {"time": 3111, "pitch": 70, "duration": 7, "velocity": 93}, {"time": 3117, "pitch": 68, "duration": 6, "velocity": 93}, {"time": 3123, "pitch": 66, "duration": 11, "velocity": 92}, {"time": 3135, "pitch": 63, "duration": 8, "velocity": 90}, {"time": 3147, "pitch": 70, "duration": 6, "velocity": 101}, {"time": 3153, "pitch": 68, "duration": 6, "velocity": 97}, {"time": 3159, "pitch": 70, "duration": 7, "velocity": 93}, {"time": 3165, "pitch": 68, "duration": 6, "velocity": 93}, {"time": 3171, "pitch": 66, "duration": 12, "velocity": 95}, {"time": 3183, "pitch": 63, "duration": 8, "velocity": 66}, {"time": 3195, "pitch": 63, "duration": 3, "velocity": 76}, {"time": 3201, "pitch": 75, "duration": 4, "velocity": 87}, {"time": 3207, "pitch": 75, "duration": 4, "velocity": 68}, {"time": 3213, "pitch": 75, "duration": 3, "velocity": 98}, {"time": 3219, "pitch": 75, "duration": 4, "velocity": 91}, {"time": 3225, "pitch": 75, "duration": 3, "velocity": 90}, {"time": 3231, "pitch": 75, "duration": 3, "velocity": 90}, {"time": 3237, "pitch": 75, "duration": 6, "velocity": 90}, {"time": 3243, "pitch": 78, "duration": 6, "velocity": 90}, {"time": 3249, "pitch": 75, "duration": 6, "velocity": 93}, {"time": 3255, "pitch": 73, "duration": 7, "velocity": 91}, {"time": 3261, "pitch": 75, "duration": 6, "velocity": 95}, {"time": 3267, "pitch": 73, "duration": 13, "velocity": 89}, {"time": 3279, "pitch": 73, "duration": 1, "velocity": 93}, {"time": 3285, "pitch": 75, "duration": 6, "velocity": 91}, {"time": 3291, "pitch": 78, "duration": 7, "velocity": 87}, {"time": 3297, "pitch": 80, "duration": 4, "velocity": 95}, {"time": 3303, "pitch": 80, "duration": 4, "velocity": 96}, {"time": 3309, "pitch": 80, "duration": 4, "velocity": 93}, {"time": 3315, "pitch": 80, "duration": 4, "velocity": 91}, {"time": 3321, "pitch": 80, "duration": 3, "velocity": 91}, {"time": 3327, "pitch": 80, "duration": 3, "velocity": 90}, {"time": 3333, "pitch": 80, "duration": 7, "velocity": 97}, {"time": 3339, "pitch": 82, "duration": 7, "velocity": 97}, {"time": 3345, "pitch": 80, "duration": 6, "velocity": 93}, {"time": 3351, "pitch": 78, "duration": 3, "velocity": 87}, {"time": 3357, "pitch": 78, "duration": 12, "velocity": 83}, {"time": 3369, "pitch": 75, "duration": 12, "velocity": 96}, {"time": 3387, "pitch": 73, "duration": 6, "velocity": 108}, {"time": 3393, "pitch": 75, "duration": 4, "velocity": 95}, {"time": 3399, "pitch": 75, "duration": 4, "velocity": 92}, {"time": 3405, "pitch": 75, "duration": 4, "velocity": 97}, {"time": 3411, "pitch": 75, "duration": 3, "velocity": 92}, {"time": 3417, "pitch": 75, "duration": 3, "velocity": 94}, {"time": 3423, "pitch": 75, "duration": 3, "velocity": 90}, {"time": 3429, "pitch": 75, "duration": 5, "velocity": 99}, {"time": 3435, "pitch": 78, "duration": 5, "velocity": 91}, {"time": 3441, "pitch": 75, "duration": 5, "velocity": 98}, {"time": 3447, "pitch": 73, "duration": 4, "velocity": 94}, {"time": 3453, "pitch": 73, "duration": 11, "velocity": 91}, {"time": 3465, "pitch": 70, "duration": 14, "velocity": 90}, {"time": 3483, "pitch": 70, "duration": 6, "velocity": 97}, {"time": 3489, "pitch": 68, "duration": 7, "velocity": 93}, {"time": 3495, "pitch": 70, "duration": 7, "velocity": 89}, {"time": 3501, "pitch": 68, "duration": 6, "velocity": 89}, {"time": 3507, "pitch": 66, "duration": 6, "velocity": 86}, {"time": 3513, "pitch": 63, "duration": 12, "velocity": 71}, {"time": 3531, "pitch": 70, "duration": 6, "velocity": 90}, {"time": 3537, "pitch": 68, "duration": 7, "velocity": 93}, {"time": 3543, "pitch": 70, "duration": 7, "velocity": 87}, {"time": 3549, "pitch": 68, "duration": 6, "velocity": 84}, {"time": 3555, "pitch": 66, "duration": 12, "velocity": 91}, {"time": 3567, "pitch": 63, "duration": 9, "velocity": 63}, {"time": 3579, "pitch": 63, "duration": 5, "velocity": 86}, {"time": 3585, "pitch": 75, "duration": 4, "velocity": 79}, {"time": 3591, "pitch": 75, "duration": 4, "velocity": 90}, {"time": 3597, "pitch": 75, "duration": 3, "velocity": 83}, {"time": 3603, "pitch": 75, "duration": 4, "velocity": 87}, {"time": 3609, "pitch": 75, "duration": 4, "velocity": 90}, {"time": 3615, "pitch": 75, "duration": 11, "velocity": 90}, {"time": 3627, "pitch": 78, "duration": 7, "velocity": 89}, {"time": 3633, "pitch": 75, "duration": 6, "velocity": 96}, {"time": 3639, "pitch": 73, "duration": 7, "velocity": 90}, {"time": 3645, "pitch": 75, "duration": 5, "velocity": 67}, {"time": 3651, "pitch": 73, "duration": 15, "velocity": 87}, {"time": 3663, "pitch": 73, "duration": 3, "velocity": 97}, {"time": 3669, "pitch": 75, "duration": 5, "velocity": 95}, {"time": 3675, "pitch": 78, "duration": 8, "velocity": 97}, {"time": 3681, "pitch": 80, "duration": 3, "velocity": 89}, {"time": 3687, "pitch": 80, "duration": 4, "velocity": 87}, {"time": 3693, "pitch": 80, "duration": 4, "velocity": 90}, {"time": 3699, "pitch": 80, "duration": 4, "velocity": 86}, {"time": 3705, "pitch": 80, "duration": 8, "velocity": 97}, {"time": 3717, "pitch": 80, "duration": 7, "velocity": 101}, {"time": 3723, "pitch": 82, "duration": 7, "velocity": 96}, {"time": 3729, "pitch": 80, "duration": 6, "velocity": 99}, {"time": 3735, "pitch": 78, "duration": 4, "velocity": 90}, {"time": 3741, "pitch": 78, "duration": 12, "velocity": 90}, {"time": 3753, "pitch": 75, "duration": 15, "velocity": 98}, {"time": 3777, "pitch": 75, "duration": 4, "velocity": 101}, {"time": 3783, "pitch": 75, "duration": 3, "velocity": 101}, {"time": 3789, "pitch": 75, "duration": 3, "velocity": 95}, {"time": 3795, "pitch": 75, "duration": 3, "velocity": 94}, {"time": 3801, "pitch": 75, "duration": 9, "velocity": 105}, {"time": 3813, "pitch": 75, "duration": 6, "velocity": 103}, {"time": 3819, "pitch": 78, "duration": 5, "velocity": 94}, {"time": 3825, "pitch": 75, "duration": 6, "velocity": 105}, {"time": 3831, "pitch": 73, "duration": 4, "velocity": 97}, {"time": 3837, "pitch": 73, "duration": 11, "velocity": 99}, {"time": 3849, "pitch": 70, "duration": 13, "velocity": 98}, {"time": 3867, "pitch": 70, "duration": 5, "velocity": 97}, {"time": 3873, "pitch": 68, "duration": 6, "velocity": 86}, {"time": 3879, "pitch": 70, "duration": 7, "velocity": 95}, {"time": 3885, "pitch": 68, "duration": 6, "velocity": 94}, {"time": 3891, "pitch": 66, "duration": 6, "velocity": 90}, {"time": 3897, "pitch": 63, "duration": 11, "velocity": 77}, {"time": 3915, "pitch": 70, "duration": 7, "velocity": 94}, {"time": 3921, "pitch": 68, "duration": 6, "velocity": 94}, {"time": 3927, "pitch": 70, "duration": 7, "velocity": 92}, {"time": 3933, "pitch": 68, "duration": 6, "velocity": 89}, {"time": 3939, "pitch": 66, "duration": 11, "velocity": 91}, {"time": 3951, "pitch": 63, "duration": 7, "velocity": 74}, {"time": 3975, "pitch": 61, "duration": 6, "velocity": 73}, {"time": 3981, "pitch": 63, "duration": 6, "velocity": 73}, {"time": 3987, "pitch": 66, "duration": 4, "velocity": 66}, {"time": 3993, "pitch": 75, "duration": 9, "velocity": 90}, {"time": 4002, "pitch": 73, "duration": 13, "velocity": 94}, {"time": 4011, "pitch": 70, "duration": 21, "velocity": 100}, {"time": 4041, "pitch": 68, "duration": 11, "velocity": 96}, {"time": 4053, "pitch": 68, "duration": 6, "velocity": 97}, {"time": 4059, "pitch": 70, "duration": 6, "velocity": 91}, {"time": 4065, "pitch": 66, "duration": 6, "velocity": 91}, {"time": 4083, "pitch": 63, "duration": 37, "velocity": 68}, {"time": 4551, "pitch": 63, "duration": 4, "velocity": 66}, {"time": 4557, "pitch": 63, "duration": 4, "velocity": 63}, {"time": 4563, "pitch": 63, "duration": 6, "velocity": 56}, {"time": 4569, "pitch": 70, "duration": 4, "velocity": 66}, {"time": 4575, "pitch": 70, "duration": 4, "velocity": 69}, {"time": 4581, "pitch": 70, "duration": 6, "velocity": 87}, {"time": 4587, "pitch": 73, "duration": 7, "velocity": 69}, {"time": 4593, "pitch": 68, "duration": 4, "velocity": 72}, {"time": 4599, "pitch": 68, "duration": 4, "velocity": 66}, {"time": 4605, "pitch": 68, "duration": 7, "velocity": 61}, {"time": 4611, "pitch": 66, "duration": 9, "velocity": 100}, {"time": 4617, "pitch": 63, "duration": 11, "velocity": 58}, {"time": 4641, "pitch": 68, "duration": 10, "velocity": 91}, {"time": 4653, "pitch": 68, "duration": 9, "velocity": 90}, {"time": 4665, "pitch": 68, "duration": 6, "velocity": 84}, {"time": 4671, "pitch": 70, "duration": 18, "velocity": 92}, {"time": 4689, "pitch": 66, "duration": 6, "velocity": 96}, {"time": 4695, "pitch": 63, "duration": 22, "velocity": 87}, {"time": 4743, "pitch": 75, "duration": 3, "velocity": 96}, {"time": 4749, "pitch": 75, "duration": 3, "velocity": 97}, {"time": 4755, "pitch": 75, "duration": 3, "velocity": 90}, {"time": 4761, "pitch": 75, "duration": 3, "velocity": 90}, {"time": 4767, "pitch": 75, "duration": 3, "velocity": 87}, {"time": 4773, "pitch": 75, "duration": 2, "velocity": 91}, {"time": 4779, "pitch": 75, "duration": 3, "velocity": 91}, {"time": 4785, "pitch": 73, "duration": 12, "velocity": 106}, {"time": 4797, "pitch": 70, "duration": 6, "velocity": 86}, {"time": 4803, "pitch": 73, "duration": 12, "velocity": 92}, {"time": 4815, "pitch": 70, "duration": 10, "velocity": 81}, {"time": 4833, "pitch": 68, "duration": 10, "velocity": 94}, {"time": 4845, "pitch": 68, "duration": 6, "velocity": 94}, {"time": 4851, "pitch": 68, "duration": 18, "velocity": 91}, {"time": 4869, "pitch": 66, "duration": 12, "velocity": 84}, {"time": 4881, "pitch": 70, "duration": 25, "velocity": 101}, {"time": 4923, "pitch": 70, "duration": 5, "velocity": 83}, {"time": 4929, "pitch": 78, "duration": 4, "velocity": 92}, {"time": 4935, "pitch": 78, "duration": 2, "velocity": 97}, {"time": 4941, "pitch": 78, "duration": 6, "velocity": 97}, {"time": 4947, "pitch": 77, "duration": 12, "velocity": 101}, {"time": 4959, "pitch": 75, "duration": 7, "velocity": 106}, {"time": 4971, "pitch": 73, "duration": 5, "velocity": 87}, {"time": 4977, "pitch": 75, "duration": 4, "velocity": 93}, {"time": 4983, "pitch": 75, "duration": 4, "velocity": 90}, {"time": 4989, "pitch": 75, "duration": 6, "velocity": 91}, {"time": 4995, "pitch": 73, "duration": 6, "velocity": 97}, {"time": 5001, "pitch": 70, "duration": 7, "velocity": 87}, {"time": 5007, "pitch": 73, "duration": 15, "velocity": 101}, {"time": 5025, "pitch": 68, "duration": 3, "velocity": 101}, {"time": 5031, "pitch": 68, "duration": 4, "velocity": 90}, {"time": 5037, "pitch": 68, "duration": 4, "velocity": 91}, {"time": 5043, "pitch": 68, "duration": 4, "velocity": 91}, {"time": 5049, "pitch": 68, "duration": 4, "velocity": 89}, {"time": 5055, "pitch": 68, "duration": 6, "velocity": 87}, {"time": 5061, "pitch": 66, "duration": 6, "velocity": 75}, {"time": 5067, "pitch": 63, "duration": 7, "velocity": 72}, {"time": 5073, "pitch": 68, "duration": 6, "velocity": 68}, {"time": 5079, "pitch": 70, "duration": 4, "velocity": 81}, {"time": 5085, "pitch": 70, "duration": 4, "velocity": 91}, {"time": 5091, "pitch": 70, "duration": 18, "velocity": 100}, {"time": 5115, "pitch": 70, "duration": 6, "velocity": 74}, {"time": 5121, "pitch": 78, "duration": 4, "velocity": 94}, {"time": 5127, "pitch": 78, "duration": 3, "velocity": 97}, {"time": 5133, "pitch": 78, "duration": 7, "velocity": 93}, {"time": 5139, "pitch": 77, "duration": 7, "velocity": 91}, {"time": 5145, "pitch": 75, "duration": 15, "velocity": 90}, {"time": 5169, "pitch": 75, "duration": 3, "velocity": 106}, {"time": 5175, "pitch": 75, "duration": 3, "velocity": 91}, {"time": 5181, "pitch": 75, "duration": 5, "velocity": 91}, {"time": 5187, "pitch": 70, "duration": 6, "velocity": 93}, {"time": 5193, "pitch": 73, "duration": 14, "velocity": 106}, {"time": 5211, "pitch": 66, "duration": 7, "velocity": 92}, {"time": 5217, "pitch": 68, "duration": 4, "velocity": 93}, {"time": 5223, "pitch": 68, "duration": 4, "velocity": 97}, {"time": 5229, "pitch": 68, "duration": 4, "velocity": 92}, {"time": 5235, "pitch": 68, "duration": 3, "velocity": 95}, {"time": 5241, "pitch": 68, "duration": 3, "velocity": 90}, {"time": 5247, "pitch": 68, "duration": 6, "velocity": 91}, {"time": 5253, "pitch": 66, "duration": 5, "velocity": 85}, {"time": 5259, "pitch": 63, "duration": 7, "velocity": 64}, {"time": 5265, "pitch": 68, "duration": 6, "velocity": 66}, {"time": 5271, "pitch": 70, "duration": 4, "velocity": 87}, {"time": 5277, "pitch": 70, "duration": 3, "velocity": 97}, {"time": 5283, "pitch": 70, "duration": 10, "velocity": 99}, {"time": 5295, "pitch": 70, "duration": 7, "velocity": 99}, {"time": 5301, "pitch": 68, "duration": 5, "velocity": 97}, {"time": 5307, "pitch": 66, "duration": 7, "velocity": 87}, {"time": 5313, "pitch": 68, "duration": 19, "velocity": 99}, {"time": 5331, "pitch": 63, "duration": 33, "velocity": 86}, {"time": 5397, "pitch": 63, "duration": 4, "velocity": 90}, {"time": 5403, "pitch": 63, "duration": 4, "velocity": 75}, {"time": 5409, "pitch": 70, "duration": 9, "velocity": 91}, {"time": 5421, "pitch": 70, "duration": 5, "velocity": 97}, {"time": 5427, "pitch": 73, "duration": 6, "velocity": 87}, {"time": 5433, "pitch": 68, "duration": 9, "velocity": 97}, {"time": 5445, "pitch": 68, "duration": 5, "velocity": 93}, {"time": 5451, "pitch": 70, "duration": 6, "velocity": 96}, {"time": 5457, "pitch": 66, "duration": 12, "velocity": 92}, {"time": 5469, "pitch": 63, "duration": 6, "velocity": 89}, {"time": 5475, "pitch": 61, "duration": 13, "velocity": 91}, {"time": 5487, "pitch": 63, "duration": 47, "velocity": 103}, {"time": 5535, "pitch": 73, "duration": 7, "velocity": 57}, {"time": 5541, "pitch": 75, "duration": 6, "velocity": 90}, {"time": 5547, "pitch": 78, "duration": 6, "velocity": 96}, {"time": 5553, "pitch": 80, "duration": 3, "velocity": 89}, {"time": 5559, "pitch": 80, "duration": 4, "velocity": 87}, {"time": 5565, "pitch": 80, "duration": 4, "velocity": 87}, {"time": 5571, "pitch": 80, "duration": 3, "velocity": 97}, {"time": 5577, "pitch": 80, "duration": 4, "velocity": 92}, {"time": 5583, "pitch": 80, "duration": 3, "velocity": 91}, {"time": 5589, "pitch": 80, "duration": 6, "velocity": 97}, {"time": 5595, "pitch": 82, "duration": 7, "velocity": 89}, {"time": 5601, "pitch": 80, "duration": 6, "velocity": 97}, {"time": 5607, "pitch": 78, "duration": 12, "velocity": 100}, {"time": 5619, "pitch": 75, "duration": 10, "velocity": 93}, {"time": 5649, "pitch": 75, "duration": 4, "velocity": 97}, {"time": 5655, "pitch": 75, "duration": 4, "velocity": 101}, {"time": 5661, "pitch": 75, "duration": 4, "velocity": 91}, {"time": 5667, "pitch": 75, "duration": 4, "velocity": 92}, {"time": 5673, "pitch": 75, "duration": 4, "velocity": 90}, {"time": 5679, "pitch": 75, "duration": 3, "velocity": 90}, {"time": 5685, "pitch": 75, "duration": 6, "velocity": 90}, {"time": 5691, "pitch": 78, "duration": 6, "velocity": 99}, {"time": 5697, "pitch": 75, "duration": 6, "velocity": 97}, {"time": 5703, "pitch": 73, "duration": 4, "velocity": 91}, {"time": 5709, "pitch": 73, "duration": 12, "velocity": 72}, {"time": 5721, "pitch": 70, "duration": 14, "velocity": 87}, {"time": 5739, "pitch": 70, "duration": 5, "velocity": 103}, {"time": 5745, "pitch": 68, "duration": 6, "velocity": 98}, {"time": 5751, "pitch": 70, "duration": 7, "velocity": 97}, {"time": 5757, "pitch": 68, "duration": 5, "velocity": 97}, {"time": 5763, "pitch": 66, "duration": 13, "velocity": 93}, {"time": 5775, "pitch": 63, "duration": 8, "velocity": 100}, {"time": 5787, "pitch": 70, "duration": 5, "velocity": 100}, {"time": 5793, "pitch": 68, "duration": 7, "velocity": 90}, {"time": 5799, "pitch": 70, "duration": 7, "velocity": 87}, {"time": 5805, "pitch": 68, "duration": 6, "velocity": 84}, {"time": 5811, "pitch": 66, "duration": 13, "velocity": 91}, {"time": 5823, "pitch": 63, "duration": 8, "velocity": 82}, {"time": 5835, "pitch": 63, "duration": 6, "velocity": 76}, {"time": 5841, "pitch": 75, "duration": 2, "velocity": 87}, {"time": 5847, "pitch": 75, "duration": 3, "velocity": 91}, {"time": 5853, "pitch": 75, "duration": 3, "velocity": 96}, {"time": 5859, "pitch": 75, "duration": 3, "velocity": 95}, {"time": 5865, "pitch": 75, "duration": 11, "velocity": 93}, {"time": 5877, "pitch": 70, "duration": 4, "velocity": 100}, {"time": 5883, "pitch": 75, "duration": 12, "velocity": 100}, {"time": 5895, "pitch": 73, "duration": 16, "velocity": 100}, {"time": 5919, "pitch": 73, "duration": 5, "velocity": 97}, {"time": 5925, "pitch": 75, "duration": 4, "velocity": 101}, {"time": 5931, "pitch": 78, "duration": 7, "velocity": 97}, {"time": 5937, "pitch": 80, "duration": 11, "velocity": 97}, {"time": 5949, "pitch": 80, "duration": 4, "velocity": 94}, {"time": 5955, "pitch": 80, "duration": 3, "velocity": 77}, {"time": 5961, "pitch": 80, "duration": 8, "velocity": 105}, {"time": 5973, "pitch": 80, "duration": 6, "velocity": 100}, {"time": 5979, "pitch": 82, "duration": 7, "velocity": 99}, {"time": 5985, "pitch": 80, "duration": 7, "velocity": 105}, {"time": 5991, "pitch": 78, "duration": 11, "velocity": 106}, {"time": 6003, "pitch": 75, "duration": 13, "velocity": 98}, {"time": 6027, "pitch": 73, "duration": 6, "velocity": 105}, {"time": 6033, "pitch": 75, "duration": 4, "velocity": 92}, {"time": 6039, "pitch": 75, "duration": 3, "velocity": 96}, {"time": 6045, "pitch": 75, "duration": 4, "velocity": 89}, {"time": 6051, "pitch": 75, "duration": 3, "velocity": 94}, {"time": 6057, "pitch": 75, "duration": 9, "velocity": 94}, {"time": 6069, "pitch": 75, "duration": 6, "velocity": 92}, {"time": 6075, "pitch": 78, "duration": 6, "velocity": 87}, {"time": 6081, "pitch": 75, "duration": 6, "velocity": 93}, {"time": 6087, "pitch": 73, "duration": 3, "velocity": 97}, {"time": 6093, "pitch": 73, "duration": 11, "velocity": 85}, {"time": 6105, "pitch": 70, "duration": 10, "velocity": 87}, {"time": 6123, "pitch": 70, "duration": 6, "velocity": 98}, {"time": 6129, "pitch": 68, "duration": 6, "velocity": 97}, {"time": 6135, "pitch": 70, "duration": 7, "velocity": 93}, {"time": 6141, "pitch": 68, "duration": 6, "velocity": 93}, {"time": 6147, "pitch": 66, "duration": 11, "velocity": 92}, {"time": 6159, "pitch": 63, "duration": 8, "velocity": 90}, {"time": 6171, "pitch": 70, "duration": 6, "velocity": 101}, {"time": 6177, "pitch": 68, "duration": 6, "velocity": 97}, {"time": 6183, "pitch": 70, "duration": 7, "velocity": 93}, {"time": 6189, "pitch": 68, "duration": 6, "velocity": 93}, {"time": 6195, "pitch": 66, "duration": 12, "velocity": 95}, {"time": 6207, "pitch": 63, "duration": 8, "velocity": 66}, {"time": 6219, "pitch": 63, "duration": 6, "velocity": 76}, {"time": 6225, "pitch": 75, "duration": 4, "velocity": 87}, {"time": 6231, "pitch": 75, "duration": 4, "velocity": 68}, {"time": 6237, "pitch": 75, "duration": 3, "velocity": 98}, {"time": 6243, "pitch": 75, "duration": 4, "velocity": 91}, {"time": 6249, "pitch": 75, "duration": 3, "velocity": 90}, {"time": 6255, "pitch": 75, "duration": 3, "velocity": 90}, {"time": 6261, "pitch": 75, "duration": 6, "velocity": 90}, {"time": 6267, "pitch": 78, "duration": 6, "velocity": 90}, {"time": 6273, "pitch": 75, "duration": 6, "velocity": 93}, {"time": 6279, "pitch": 73, "duration": 7, "velocity": 91}, {"time": 6285, "pitch": 75, "duration": 6, "velocity": 95}, {"time": 6291, "pitch": 73, "duration": 13, "velocity": 89}, {"time": 6303, "pitch": 73, "duration": 1, "velocity": 93}, {"time": 6309, "pitch": 75, "duration": 6, "velocity": 91}, {"time": 6315, "pitch": 78, "duration": 7, "velocity": 87}, {"time": 6321, "pitch": 80, "duration": 4, "velocity": 95}, {"time": 6327, "pitch": 80, "duration": 4, "velocity": 96}, {"time": 6333, "pitch": 80, "duration": 4, "velocity": 93}, {"time": 6339, "pitch": 80, "duration": 4, "velocity": 91}, {"time": 6345, "pitch": 80, "duration": 3, "velocity": 91}, {"time": 6351, "pitch": 80, "duration": 3, "velocity": 90}, {"time": 6357, "pitch": 80, "duration": 7, "velocity": 97}, {"time": 6363, "pitch": 82, "duration": 7, "velocity": 97}, {"time": 6369, "pitch": 80, "duration": 6, "velocity": 93}, {"time": 6375, "pitch": 78, "duration": 3, "velocity": 87}, {"time": 6381, "pitch": 78, "duration": 12, "velocity": 83}, {"time": 6393, "pitch": 75, "duration": 12, "velocity": 96}, {"time": 6411, "pitch": 73, "duration": 6, "velocity": 108}, {"time": 6417, "pitch": 75, "duration": 4, "velocity": 95}, {"time": 6423, "pitch": 75, "duration": 4, "velocity": 92}, {"time": 6429, "pitch": 75, "duration": 4, "velocity": 97}, {"time": 6435, "pitch": 75, "duration": 3, "velocity": 92}, {"time": 6441, "pitch": 75, "duration": 3, "velocity": 94}, {"time": 6447, "pitch": 75, "duration": 3, "velocity": 90}, {"time": 6453, "pitch": 75, "duration": 5, "velocity": 99}, {"time": 6459, "pitch": 78, "duration": 5, "velocity": 91}, {"time": 6465, "pitch": 75, "duration": 5, "velocity": 98}, {"time": 6471, "pitch": 73, "duration": 4, "velocity": 94}, {"time": 6477, "pitch": 73, "duration": 11, "velocity": 91}, {"time": 6489, "pitch": 70, "duration": 14, "velocity": 90}, {"time": 6507, "pitch": 70, "duration": 6, "velocity": 97}, {"time": 6513, "pitch": 68, "duration": 7, "velocity": 93}, {"time": 6519, "pitch": 70, "duration": 7, "velocity": 89}, {"time": 6525, "pitch": 68, "duration": 6, "velocity": 89}, {"time": 6531, "pitch": 66, "duration": 6, "velocity": 86}, {"time": 6537, "pitch": 63, "duration": 12, "velocity": 71}, {"time": 6555, "pitch": 70, "duration": 6, "velocity": 90}, {"time": 6561, "pitch": 68, "duration": 7, "velocity": 93}, {"time": 6567, "pitch": 70, "duration": 7, "velocity": 87}, {"time": 6573, "pitch": 68, "duration": 6, "velocity": 84}, {"time": 6579, "pitch": 66, "duration": 12, "velocity": 91}, {"time": 6591, "pitch": 63, "duration": 9, "velocity": 63}, {"time": 6603, "pitch": 63, "duration": 5, "velocity": 86}, {"time": 6609, "pitch": 75, "duration": 4, "velocity": 79}, {"time": 6615, "pitch": 75, "duration": 4, "velocity": 90}, {"time": 6621, "pitch": 75, "duration": 3, "velocity": 83}, {"time": 6627, "pitch": 75, "duration": 4, "velocity": 87}, {"time": 6633, "pitch": 75, "duration": 4, "velocity": 90}, {"time": 6639, "pitch": 75, "duration": 11, "velocity": 90}, {"time": 6651, "pitch": 78, "duration": 7, "velocity": 89}, {"time": 6657, "pitch": 75, "duration": 6, "velocity": 96}, {"time": 6663, "pitch": 73, "duration": 7, "velocity": 90}, {"time": 6669, "pitch": 75, "duration": 5, "velocity": 67}, {"time": 6675, "pitch": 73, "duration": 15, "velocity": 87}, {"time": 6687, "pitch": 73, "duration": 3, "velocity": 97}, {"time": 6693, "pitch": 75, "duration": 5, "velocity": 95}, {"time": 6699, "pitch": 78, "duration": 8, "velocity": 97}, {"time": 6705, "pitch": 80, "duration": 3, "velocity": 89}, {"time": 6711, "pitch": 80, "duration": 4, "velocity": 87}, {"time": 6717, "pitch": 80, "duration": 4, "velocity": 90}, {"time": 6723, "pitch": 80, "duration": 4, "velocity": 86}, {"time": 6729, "pitch": 80, "duration": 8, "velocity": 97}, {"time": 6741, "pitch": 80, "duration": 7, "velocity": 101}, {"time": 6747, "pitch": 82, "duration": 7, "velocity": 96}, {"time": 6753, "pitch": 80, "duration": 6, "velocity": 99}, {"time": 6759, "pitch": 78, "duration": 4, "velocity": 90}, {"time": 6765, "pitch": 78, "duration": 12, "velocity": 90}, {"time": 6777, "pitch": 75, "duration": 15, "velocity": 98}, {"time": 6801, "pitch": 75, "duration": 5, "velocity": 101}, {"time": 6807, "pitch": 75, "duration": 6, "velocity": 101}, {"time": 6813, "pitch": 75, "duration": 5, "velocity": 95}, {"time": 6819, "pitch": 75, "duration": 6, "velocity": 94}, {"time": 6825, "pitch": 75, "duration": 9, "velocity": 105}, {"time": 6837, "pitch": 75, "duration": 6, "velocity": 103}, {"time": 6843, "pitch": 78, "duration": 5, "velocity": 94}, {"time": 6849, "pitch": 75, "duration": 6, "velocity": 105}, {"time": 6855, "pitch": 73, "duration": 4, "velocity": 97}, {"time": 6861, "pitch": 73, "duration": 11, "velocity": 99}, {"time": 6873, "pitch": 70, "duration": 13, "velocity": 98}, {"time": 6891, "pitch": 70, "duration": 5, "velocity": 97}, {"time": 6897, "pitch": 68, "duration": 6, "velocity": 86}, {"time": 6903, "pitch": 70, "duration": 7, "velocity": 95}, {"time": 6909, "pitch": 68, "duration": 6, "velocity": 94}, {"time": 6915, "pitch": 66, "duration": 6, "velocity": 90}, {"time": 6921, "pitch": 63, "duration": 11, "velocity": 77}, {"time": 6939, "pitch": 70, "duration": 7, "velocity": 94}, {"time": 6945, "pitch": 68, "duration": 6, "velocity": 94}, {"time": 6951, "pitch": 70, "duration": 7, "velocity": 92}, {"time": 6957, "pitch": 68, "duration": 6, "velocity": 89}, {"time": 6963, "pitch": 66, "duration": 11, "velocity": 91}, {"time": 6975, "pitch": 63, "duration": 7, "velocity": 74}, {"time": 6999, "pitch": 61, "duration": 6, "velocity": 73}, {"time": 7005, "pitch": 63, "duration": 6, "velocity": 73}, {"time": 7011, "pitch": 66, "duration": 4, "velocity": 66}, {"time": 7017, "pitch": 75, "duration": 9, "velocity": 90}, {"time": 7026, "pitch": 73, "duration": 13, "velocity": 94}, {"time": 7035, "pitch": 70, "duration": 21, "velocity": 100}, {"time": 7065, "pitch": 68, "duration": 12, "velocity": 96}, {"time": 7077, "pitch": 68, "duration": 6, "velocity": 97}, {"time": 7083, "pitch": 70, "duration": 6, "velocity": 91}, {"time": 7089, "pitch": 66, "duration": 7, "velocity": 91}, {"time": 7095, "pitch": 63, "duration": 9, "velocity": 100}, {"time": 7107, "pitch": 63, "duration": 40, "velocity": 84}, {"time": 7167, "pitch": 61, "duration": 6, "velocity": 66}, {"time": 7173, "pitch": 63, "duration": 6, "velocity": 73}, {"time": 7179, "pitch": 66, "duration": 4, "velocity": 66}, {"time": 7185, "pitch": 75, "duration": 11, "velocity": 90}, {"time": 7197, "pitch": 73, "duration": 11, "velocity": 94}, {"time": 7203, "pitch": 70, "duration": 21, "velocity": 100}, {"time": 7233, "pitch": 68, "duration": 13, "velocity": 93}, {"time": 7245, "pitch": 68, "duration": 1, "velocity": 97}, {"time": 7251, "pitch": 70, "duration": 6, "velocity": 91}, {"time": 7257, "pitch": 66, "duration": 7, "velocity": 91}, {"time": 7263, "pitch": 63, "duration": 14, "velocity": 100}, {"time": 7278, "pitch": 75, "duration": 36, "velocity": 127}, {"time": 7329, "pitch": 78, "duration": 36, "velocity": 100}, {"time": 7377, "pitch": 82, "duration": 142, "velocity": 127}, {"time": 8367, "pitch": 73, "duration": 5, "velocity": 87}, {"time": 8373, "pitch": 75, "duration": 5, "velocity": 95}, {"time": 8379, "pitch": 78, "duration": 8, "velocity": 97}, {"time": 8385, "pitch": 80, "duration": 3, "velocity": 89}, {"time": 8391, "pitch": 80, "duration": 4, "velocity": 87}, {"time": 8397, "pitch": 80, "duration": 4, "velocity": 90}, {"time": 8403, "pitch": 80, "duration": 4, "velocity": 86}, {"time": 8409, "pitch": 80, "duration": 4, "velocity": 97}, {"time": 8415, "pitch": 80, "duration": 3, "velocity": 97}, {"time": 8421, "pitch": 80, "duration": 7, "velocity": 101}, {"time": 8427, "pitch": 82, "duration": 7, "velocity": 96}, {"time": 8433, "pitch": 80, "duration": 6, "velocity": 99}, {"time": 8439, "pitch": 78, "duration": 13, "velocity": 90}, {"time": 8451, "pitch": 75, "duration": 21, "velocity": 98}, {"time": 8481, "pitch": 75, "duration": 5, "velocity": 101}, {"time": 8487, "pitch": 75, "duration": 6, "velocity": 101}, {"time": 8493, "pitch": 75, "duration": 5, "velocity": 95}, {"time": 8499, "pitch": 75, "duration": 6, "velocity": 94}, {"time": 8505, "pitch": 75, "duration": 5, "velocity": 105}, {"time": 8511, "pitch": 75, "duration": 4, "velocity": 105}, {"time": 8517, "pitch": 75, "duration": 6, "velocity": 103}, {"time": 8523, "pitch": 78, "duration": 5, "velocity": 94}, {"time": 8529, "pitch": 75, "duration": 6, "velocity": 105}, {"time": 8535, "pitch": 73, "duration": 4, "velocity": 97}, {"time": 8541, "pitch": 73, "duration": 11, "velocity": 99}, {"time": 8553, "pitch": 70, "duration": 13, "velocity": 98}, {"time": 8571, "pitch": 70, "duration": 5, "velocity": 97}, {"time": 8577, "pitch": 68, "duration": 6, "velocity": 86}, {"time": 8583, "pitch": 70, "duration": 7, "velocity": 95}, {"time": 8589, "pitch": 68, "duration": 6, "velocity": 94}, {"time": 8595, "pitch": 66, "duration": 13, "velocity": 90}, {"time": 8607, "pitch": 63, "duration": 9, "velocity": 77}, {"time": 8619, "pitch": 70, "duration": 7, "velocity": 94}, {"time": 8625, "pitch": 68, "duration": 6, "velocity": 94}, {"time": 8631, "pitch": 70, "duration": 7, "velocity": 92}, {"time": 8637, "pitch": 68, "duration": 6, "velocity": 89}, {"time": 8643, "pitch": 66, "duration": 11, "velocity": 91}, {"time": 8655, "pitch": 63, "duration": 7, "velocity": 74}, {"time": 8667, "pitch": 63, "duration": 6, "velocity": 76}, {"time": 8673, "pitch": 75, "duration": 2, "velocity": 87}, {"time": 8679, "pitch": 75, "duration": 3, "velocity": 91}, {"time": 8685, "pitch": 75, "duration": 3, "velocity": 96}, {"time": 8691, "pitch": 75, "duration": 3, "velocity": 95}, {"time": 8697, "pitch": 75, "duration": 11, "velocity": 93}, {"time": 8709, "pitch": 70, "duration": 4, "velocity": 100}, {"time": 8715, "pitch": 75, "duration": 12, "velocity": 100}, {"time": 8727, "pitch": 73, "duration": 16, "velocity": 100}, {"time": 8751, "pitch": 73, "duration": 5, "velocity": 97}, {"time": 8757, "pitch": 75, "duration": 4, "velocity": 101}, {"time": 8763, "pitch": 78, "duration": 7, "velocity": 97}, {"time": 8769, "pitch": 80, "duration": 11, "velocity": 97}, {"time": 8781, "pitch": 80, "duration": 4, "velocity": 94}, {"time": 8787, "pitch": 80, "duration": 3, "velocity": 77}, {"time": 8793, "pitch": 80, "duration": 8, "velocity": 105}, {"time": 8805, "pitch": 80, "duration": 6, "velocity": 100}, {"time": 8811, "pitch": 82, "duration": 7, "velocity": 99}, {"time": 8817, "pitch": 80, "duration": 7, "velocity": 105}, {"time": 8823, "pitch": 78, "duration": 11, "velocity": 106}, {"time": 8835, "pitch": 75, "duration": 13, "velocity": 98}, {"time": 8859, "pitch": 73, "duration": 6, "velocity": 105}, {"time": 8865, "pitch": 75, "duration": 4, "velocity": 92}, {"time": 8871, "pitch": 75, "duration": 3, "velocity": 96}, {"time": 8877, "pitch": 75, "duration": 4, "velocity": 89}, {"time": 8883, "pitch": 75, "duration": 3, "velocity": 94}, {"time": 8889, "pitch": 75, "duration": 9, "velocity": 94}, {"time": 8901, "pitch": 75, "duration": 6, "velocity": 92}, {"time": 8907, "pitch": 78, "duration": 6, "velocity": 87}, {"time": 8913, "pitch": 75, "duration": 6, "velocity": 93}, {"time": 8919, "pitch": 73, "duration": 3, "velocity": 97}, {"time": 8925, "pitch": 73, "duration": 11, "velocity": 85}, {"time": 8937, "pitch": 70, "duration": 10, "velocity": 87}, {"time": 8955, "pitch": 70, "duration": 6, "velocity": 98}, {"time": 8961, "pitch": 68, "duration": 6, "velocity": 97}, {"time": 8967, "pitch": 70, "duration": 7, "velocity": 93}, {"time": 8973, "pitch": 68, "duration": 6, "velocity": 93}, {"time": 8979, "pitch": 66, "duration": 11, "velocity": 92}, {"time": 8991, "pitch": 63, "duration": 8, "velocity": 90}, {"time": 9003, "pitch": 70, "duration": 6, "velocity": 101}, {"time": 9009, "pitch": 68, "duration": 6, "velocity": 97}, {"time": 9015, "pitch": 70, "duration": 7, "velocity": 93}, {"time": 9021, "pitch": 68, "duration": 6, "velocity": 93}, {"time": 9027, "pitch": 66, "duration": 12, "velocity": 95}, {"time": 9039, "pitch": 63, "duration": 8, "velocity": 66}, {"time": 9051, "pitch": 63, "duration": 3, "velocity": 76}, {"time": 9057, "pitch": 75, "duration": 4, "velocity": 87}, {"time": 9063, "pitch": 75, "duration": 4, "velocity": 68}, {"time": 9069, "pitch": 75, "duration": 3, "velocity": 98}, {"time": 9075, "pitch": 75, "duration": 4, "velocity": 91}, {"time": 9081, "pitch": 75, "duration": 3, "velocity": 90}, {"time": 9087, "pitch": 75, "duration": 3, "velocity": 90}, {"time": 9093, "pitch": 75, "duration": 6, "velocity": 90}, {"time": 9099, "pitch": 78, "duration": 6, "velocity": 90}, {"time": 9105, "pitch": 75, "duration": 6, "velocity": 93}, {"time": 9111, "pitch": 73, "duration": 7, "velocity": 91}, {"time": 9117, "pitch": 75, "duration": 6, "velocity": 95}, {"time": 9123, "pitch": 73, "duration": 13, "velocity": 89}, {"time": 9135, "pitch": 73, "duration": 1, "velocity": 93}, {"time": 9141, "pitch": 75, "duration": 6, "velocity": 91}, {"time": 9147, "pitch": 78, "duration": 7, "velocity": 87}, {"time": 9153, "pitch": 80, "duration": 4, "velocity": 95}, {"time": 9159, "pitch": 80, "duration": 4, "velocity": 96}, {"time": 9165, "pitch": 80, "duration": 4, "velocity": 93}, {"time": 9171, "pitch": 80, "duration": 3, "velocity": 91}, {"time": 9177, "pitch": 80, "duration": 3, "velocity": 91}, {"time": 9183, "pitch": 80, "duration": 3, "velocity": 90}, {"time": 9189, "pitch": 80, "duration": 7, "velocity": 97}, {"time": 9195, "pitch": 82, "duration": 7, "velocity": 97}, {"time": 9201, "pitch": 80, "duration": 6, "velocity": 93}, {"time": 9207, "pitch": 78, "duration": 3, "velocity": 87}, {"time": 9213, "pitch": 78, "duration": 12, "velocity": 83}, {"time": 9225, "pitch": 75, "duration": 12, "velocity": 96}, {"time": 9243, "pitch": 73, "duration": 6, "velocity": 108}, {"time": 9249, "pitch": 75, "duration": 4, "velocity": 95}, {"time": 9255, "pitch": 75, "duration": 4, "velocity": 92}, {"time": 9261, "pitch": 75, "duration": 4, "velocity": 97}, {"time": 9267, "pitch": 75, "duration": 3, "velocity": 92}, {"time": 9273, "pitch": 75, "duration": 3, "velocity": 94}, {"time": 9279, "pitch": 75, "duration": 3, "velocity": 90}, {"time": 9285, "pitch": 75, "duration": 5, "velocity": 99}, {"time": 9291, "pitch": 78, "duration": 5, "velocity": 91}, {"time": 9297, "pitch": 75, "duration": 5, "velocity": 98}, {"time": 9303, "pitch": 73, "duration": 4, "velocity": 94}, {"time": 9309, "pitch": 73, "duration": 11, "velocity": 91}, {"time": 9321, "pitch": 70, "duration": 14, "velocity": 90}, {"time": 9339, "pitch": 70, "duration": 6, "velocity": 97}, {"time": 9345, "pitch": 68, "duration": 7, "velocity": 93}, {"time": 9351, "pitch": 70, "duration": 7, "velocity": 89}, {"time": 9357, "pitch": 68, "duration": 6, "velocity": 89}, {"time": 9363, "pitch": 66, "duration": 6, "velocity": 86}, {"time": 9369, "pitch": 63, "duration": 12, "velocity": 71}]}, {"program": 0, "is_drum": false, "name": "PIANO", "notes": [{"time": 33, "pitch": 51, "duration": 41, "velocity": 56}, {"time": 33, "pitch": 58, "duration": 49, "velocity": 62}, {"time": 33, "pitch": 63, "duration": 15, "velocity": 56}, {"time": 33, "pitch": 66, "duration": 30, "velocity": 63}, {"time": 33, "pitch": 70, "duration": 29, "velocity": 53}, {"time": 63, "pitch": 63, "duration": 11, "velocity": 28}, {"time": 69, "pitch": 65, "duration": 5, "velocity": 48}, {"time": 69, "pitch": 68, "duration": 6, "velocity": 52}, {"time": 75, "pitch": 70, "duration": 6, "velocity": 58}, {"time": 81, "pitch": 51, "duration": 42, "velocity": 53}, {"time": 81, "pitch": 65, "duration": 13, "velocity": 46}, {"time": 81, "pitch": 68, "duration": 15, "velocity": 60}, {"time": 87, "pitch": 58, "duration": 39, "velocity": 51}, {"time": 93, "pitch": 63, "duration": 14, "velocity": 48}, {"time": 99, "pitch": 66, "duration": 12, "velocity": 55}, {"time": 99, "pitch": 70, "duration": 13, "velocity": 48}, {"time": 111, "pitch": 63, "duration": 13, "velocity": 27}, {"time": 117, "pitch": 65, "duration": 5, "velocity": 49}, {"time": 117, "pitch": 68, "duration": 6, "velocity": 55}, {"time": 123, "pitch": 66, "duration": 7, "velocity": 51}, {"time": 123, "pitch": 70, "duration": 7, "velocity": 59}, {"time": 129, "pitch": 51, "duration": 34, "velocity": 60}, {"time": 129, "pitch": 65, "duration": 13, "velocity": 51}, {"time": 129, "pitch": 68, "duration": 17, "velocity": 54}, {"time": 135, "pitch": 58, "duration": 30, "velocity": 41}, {"time": 141, "pitch": 63, "duration": 20, "velocity": 51}, {"time": 147, "pitch": 66, "duration": 12, "velocity": 50}, {"time": 147, "pitch": 70, "duration": 12, "velocity": 49}, {"time": 165, "pitch": 65, "duration": 2, "velocity": 51}, {"time": 165, "pitch": 68, "duration": 2, "velocity": 59}, {"time": 177, "pitch": 46, "duration": 37, "velocity": 56}, {"time": 177, "pitch": 61, "duration": 12, "velocity": 51}, {"time": 177, "pitch": 65, "duration": 13, "velocity": 51}, {"time": 177, "pitch": 68, "duration": 13, "velocity": 51}, {"time": 183, "pitch": 53, "duration": 31, "velocity": 46}, {"time": 189, "pitch": 58, "duration": 19, "velocity": 47}, {"time": 195, "pitch": 61, "duration": 9, "velocity": 46}, {"time": 201, "pitch": 65, "duration": 11, "velocity": 49}, {"time": 207, "pitch": 68, "duration": 9, "velocity": 56}, {"time": 213, "pitch": 58, "duration": 6, "velocity": 63}, {"time": 225, "pitch": 51, "duration": 39, "velocity": 58}, {"time": 225, "pitch": 63, "duration": 10, "velocity": 46}, {"time": 225, "pitch": 65, "duration": 10, "velocity": 44}, {"time": 225, "pitch": 66, "duration": 11, "velocity": 47}, {"time": 225, "pitch": 70, "duration": 37, "velocity": 44}, {"time": 231, "pitch": 58, "duration": 34, "velocity": 49}, {"time": 237, "pitch": 63, "duration": 26, "velocity": 48}, {"time": 243, "pitch": 65, "duration": 18, "velocity": 40}, {"time": 261, "pitch": 66, "duration": 5, "velocity": 53}, {"time": 273, "pitch": 46, "duration": 11, "velocity": 67}, {"time": 273, "pitch": 61, "duration": 7, "velocity": 59}, {"time": 273, "pitch": 65, "duration": 8, "velocity": 51}, {"time": 273, "pitch": 68, "duration": 7, "velocity": 62}, {"time": 279, "pitch": 58, "duration": 7, "velocity": 35}, {"time": 285, "pitch": 61, "duration": 1, "velocity": 29}, {"time": 291, "pitch": 51, "duration": 22, "velocity": 69}, {"time": 291, "pitch": 63, "duration": 11, "velocity": 51}, {"time": 291, "pitch": 66, "duration": 12, "velocity": 66}, {"time": 303, "pitch": 58, "duration": 11, "velocity": 46}, {"time": 309, "pitch": 65, "duration": 5, "velocity": 58}, {"time": 309, "pitch": 68, "duration": 6, "velocity": 53}, {"time": 315, "pitch": 70, "duration": 3, "velocity": 47}, {"time": 321, "pitch": 51, "duration": 32, "velocity": 56}, {"time": 321, "pitch": 65, "duration": 10, "velocity": 50}, {"time": 321, "pitch": 68, "duration": 13, "velocity": 52}, {"time": 327, "pitch": 58, "duration": 26, "velocity": 47}, {"time": 333, "pitch": 63, "duration": 15, "velocity": 45}, {"time": 339, "pitch": 66, "duration": 12, "velocity": 58}, {"time": 339, "pitch": 70, "duration": 13, "velocity": 56}, {"time": 369, "pitch": 46, "duration": 7, "velocity": 56}, {"time": 369, "pitch": 53, "duration": 7, "velocity": 60}, {"time": 369, "pitch": 56, "duration": 7, "velocity": 57}, {"time": 369, "pitch": 61, "duration": 7, "velocity": 64}, {"time": 369, "pitch": 65, "duration": 8, "velocity": 60}, {"time": 369, "pitch": 68, "duration": 6, "velocity": 35}, {"time": 387, "pitch": 39, "duration": 21, "velocity": 55}, {"time": 387, "pitch": 51, "duration": 21, "velocity": 46}, {"time": 387, "pitch": 58, "duration": 14, "velocity": 50}, {"time": 387, "pitch": 61, "duration": 14, "velocity": 60}, {"time": 387, "pitch": 66, "duration": 15, "velocity": 50}, {"time": 405, "pitch": 65, "duration": 5, "velocity": 37}, {"time": 417, "pitch": 51, "duration": 36, "velocity": 56}, {"time": 417, "pitch": 66, "duration": 12, "velocity": 55}, {"time": 417, "pitch": 70, "duration": 12, "velocity": 56}, {"time": 417, "pitch": 75, "duration": 13, "velocity": 63}, {"time": 423, "pitch": 58, "duration": 30, "velocity": 46}, {"time": 429, "pitch": 63, "duration": 23, "velocity": 46}, {"time": 435, "pitch": 65, "duration": 9, "velocity": 55}, {"time": 441, "pitch": 66, "duration": 12, "velocity": 48}, {"time": 465, "pitch": 44, "duration": 6, "velocity": 59}, {"time": 465, "pitch": 63, "duration": 19, "velocity": 53}, {"time": 465, "pitch": 68, "duration": 21, "velocity": 57}, {"time": 465, "pitch": 71, "duration": 31, "velocity": 53}, {"time": 471, "pitch": 56, "duration": 7, "velocity": 47}, {"time": 477, "pitch": 58, "duration": 32, "velocity": 57}, {"time": 483, "pitch": 59, "duration": 25, "velocity": 52}, {"time": 495, "pitch": 63, "duration": 7, "velocity": 30}, {"time": 501, "pitch": 68, "duration": 4, "velocity": 43}, {"time": 507, "pitch": 70, "duration": 4, "velocity": 56}, {"time": 513, "pitch": 56, "duration": 38, "velocity": 44}, {"time": 513, "pitch": 63, "duration": 7, "velocity": 48}, {"time": 513, "pitch": 68, "duration": 11, "velocity": 44}, {"time": 513, "pitch": 71, "duration": 8, "velocity": 67}, {"time": 519, "pitch": 59, "duration": 31, "velocity": 49}, {"time": 525, "pitch": 63, "duration": 8, "velocity": 48}, {"time": 531, "pitch": 68, "duration": 13, "velocity": 57}, {"time": 543, "pitch": 63, "duration": 7, "velocity": 45}, {"time": 543, "pitch": 70, "duration": 7, "velocity": 46}, {"time": 561, "pitch": 51, "duration": 40, "velocity": 52}, {"time": 561, "pitch": 66, "duration": 13, "velocity": 49}, {"time": 561, "pitch": 70, "duration": 12, "velocity": 51}, {"time": 567, "pitch": 58, "duration": 35, "velocity": 31}, {"time": 573, "pitch": 63, "duration": 27, "velocity": 48}, {"time": 579, "pitch": 65, "duration": 14, "velocity": 46}, {"time": 597, "pitch": 66, "duration": 3, "velocity": 44}, {"time": 603, "pitch": 68, "duration": 6, "velocity": 52}, {"time": 609, "pitch": 51, "duration": 38, "velocity": 46}, {"time": 609, "pitch": 66, "duration": 13, "velocity": 50}, {"time": 609, "pitch": 70, "duration": 13, "velocity": 54}, {"time": 615, "pitch": 58, "duration": 33, "velocity": 44}, {"time": 621, "pitch": 63, "duration": 18, "velocity": 49}, {"time": 627, "pitch": 65, "duration": 4, "velocity": 47}, {"time": 627, "pitch": 68, "duration": 6, "velocity": 46}, {"time": 633, "pitch": 66, "duration": 2, "velocity": 61}, {"time": 633, "pitch": 70, "duration": 7, "velocity": 58}, {"time": 645, "pitch": 75, "duration": 2, "velocity": 62}, {"time": 657, "pitch": 46, "duration": 41, "velocity": 66}, {"time": 657, "pitch": 61, "duration": 8, "velocity": 61}, {"time": 657, "pitch": 65, "duration": 8, "velocity": 67}, {"time": 657, "pitch": 68, "duration": 8, "velocity": 61}, {"time": 663, "pitch": 58, "duration": 36, "velocity": 45}, {"time": 669, "pitch": 61, "duration": 8, "velocity": 52}, {"time": 675, "pitch": 65, "duration": 5, "velocity": 48}, {"time": 681, "pitch": 68, "duration": 7, "velocity": 54}, {"time": 687, "pitch": 73, "duration": 13, "velocity": 62}, {"time": 705, "pitch": 44, "duration": 36, "velocity": 75}, {"time": 705, "pitch": 63, "duration": 9, "velocity": 44}, {"time": 705, "pitch": 68, "duration": 11, "velocity": 70}, {"time": 705, "pitch": 71, "duration": 13, "velocity": 47}, {"time": 711, "pitch": 56, "duration": 23, "velocity": 44}, {"time": 717, "pitch": 63, "duration": 8, "velocity": 44}, {"time": 723, "pitch": 68, "duration": 9, "velocity": 51}, {"time": 735, "pitch": 63, "duration": 7, "velocity": 56}, {"time": 735, "pitch": 68, "duration": 6, "velocity": 66}, {"time": 741, "pitch": 56, "duration": 4, "velocity": 44}, {"time": 753, "pitch": 46, "duration": 39, "velocity": 61}, {"time": 753, "pitch": 61, "duration": 9, "velocity": 50}, {"time": 753, "pitch": 65, "duration": 8, "velocity": 56}, {"time": 753, "pitch": 68, "duration": 12, "velocity": 53}, {"time": 759, "pitch": 53, "duration": 33, "velocity": 52}, {"time": 765, "pitch": 58, "duration": 35, "velocity": 61}, {"time": 771, "pitch": 65, "duration": 5, "velocity": 60}, {"time": 777, "pitch": 68, "duration": 5, "velocity": 64}, {"time": 783, "pitch": 70, "duration": 8, "velocity": 56}, {"time": 789, "pitch": 73, "duration": 5, "velocity": 36}, {"time": 795, "pitch": 77, "duration": 5, "velocity": 55}, {"time": 801, "pitch": 47, "duration": 38, "velocity": 63}, {"time": 801, "pitch": 63, "duration": 13, "velocity": 55}, {"time": 801, "pitch": 66, "duration": 12, "velocity": 59}, {"time": 801, "pitch": 70, "duration": 14, "velocity": 58}, {"time": 807, "pitch": 54, "duration": 32, "velocity": 55}, {"time": 813, "pitch": 59, "duration": 22, "velocity": 49}, {"time": 819, "pitch": 63, "duration": 9, "velocity": 51}, {"time": 825, "pitch": 66, "duration": 13, "velocity": 57}, {"time": 837, "pitch": 59, "duration": 4, "velocity": 53}, {"time": 843, "pitch": 68, "duration": 6, "velocity": 46}, {"time": 849, "pitch": 51, "duration": 38, "velocity": 67}, {"time": 849, "pitch": 66, "duration": 13, "velocity": 56}, {"time": 849, "pitch": 70, "duration": 14, "velocity": 50}, {"time": 855, "pitch": 58, "duration": 33, "velocity": 52}, {"time": 861, "pitch": 63, "duration": 14, "velocity": 51}, {"time": 867, "pitch": 65, "duration": 5, "velocity": 46}, {"time": 867, "pitch": 68, "duration": 8, "velocity": 48}, {"time": 873, "pitch": 66, "duration": 7, "velocity": 56}, {"time": 873, "pitch": 70, "duration": 8, "velocity": 52}, {"time": 885, "pitch": 63, "duration": 2, "velocity": 59}, {"time": 897, "pitch": 44, "duration": 6, "velocity": 57}, {"time": 897, "pitch": 63, "duration": 20, "velocity": 51}, {"time": 897, "pitch": 68, "duration": 19, "velocity": 56}, {"time": 897, "pitch": 71, "duration": 21, "velocity": 54}, {"time": 903, "pitch": 56, "duration": 8, "velocity": 40}, {"time": 909, "pitch": 58, "duration": 31, "velocity": 52}, {"time": 915, "pitch": 59, "duration": 14, "velocity": 62}, {"time": 921, "pitch": 63, "duration": 9, "velocity": 53}, {"time": 927, "pitch": 68, "duration": 5, "velocity": 57}, {"time": 933, "pitch": 71, "duration": 3, "velocity": 49}, {"time": 939, "pitch": 59, "duration": 2, "velocity": 59}, {"time": 945, "pitch": 46, "duration": 37, "velocity": 63}, {"time": 945, "pitch": 61, "duration": 8, "velocity": 52}, {"time": 945, "pitch": 65, "duration": 8, "velocity": 53}, {"time": 945, "pitch": 70, "duration": 8, "velocity": 51}, {"time": 951, "pitch": 58, "duration": 18, "velocity": 54}, {"time": 957, "pitch": 61, "duration": 14, "velocity": 57}, {"time": 963, "pitch": 65, "duration": 12, "velocity": 67}, {"time": 963, "pitch": 70, "duration": 12, "velocity": 61}, {"time": 975, "pitch": 58, "duration": 14, "velocity": 45}, {"time": 981, "pitch": 61, "duration": 5, "velocity": 58}, {"time": 987, "pitch": 70, "duration": 4, "velocity": 49}, {"time": 993, "pitch": 47, "duration": 35, "velocity": 60}, {"time": 993, "pitch": 63, "duration": 9, "velocity": 47}, {"time": 993, "pitch": 66, "duration": 11, "velocity": 46}, {"time": 993, "pitch": 70, "duration": 12, "velocity": 58}, {"time": 999, "pitch": 54, "duration": 27, "velocity": 53}, {"time": 1005, "pitch": 59, "duration": 13, "velocity": 56}, {"time": 1011, "pitch": 63, "duration": 9, "velocity": 50}, {"time": 1017, "pitch": 66, "duration": 6, "velocity": 66}, {"time": 1023, "pitch": 59, "duration": 6, "velocity": 53}, {"time": 1029, "pitch": 63, "duration": 4, "velocity": 49}, {"time": 1041, "pitch": 51, "duration": 11, "velocity": 72}, {"time": 1041, "pitch": 66, "duration": 7, "velocity": 67}, {"time": 1041, "pitch": 70, "duration": 7, "velocity": 61}, {"time": 1047, "pitch": 58, "duration": 7, "velocity": 48}, {"time": 1053, "pitch": 70, "duration": 7, "velocity": 56}, {"time": 1065, "pitch": 46, "duration": 14, "velocity": 61}, {"time": 1065, "pitch": 61, "duration": 12, "velocity": 56}, {"time": 1065, "pitch": 65, "duration": 13, "velocity": 59}, {"time": 1065, "pitch": 68, "duration": 14, "velocity": 55}, {"time": 1089, "pitch": 44, "duration": 6, "velocity": 62}, {"time": 1089, "pitch": 63, "duration": 13, "velocity": 56}, {"time": 1089, "pitch": 68, "duration": 17, "velocity": 53}, {"time": 1089, "pitch": 71, "duration": 18, "velocity": 53}, {"time": 1095, "pitch": 56, "duration": 7, "velocity": 44}, {"time": 1101, "pitch": 58, "duration": 26, "velocity": 70}, {"time": 1107, "pitch": 59, "duration": 13, "velocity": 51}, {"time": 1113, "pitch": 63, "duration": 8, "velocity": 40}, {"time": 1119, "pitch": 68, "duration": 7, "velocity": 64}, {"time": 1125, "pitch": 71, "duration": 3, "velocity": 66}, {"time": 1137, "pitch": 46, "duration": 37, "velocity": 66}, {"time": 1137, "pitch": 61, "duration": 9, "velocity": 61}, {"time": 1137, "pitch": 65, "duration": 9, "velocity": 58}, {"time": 1137, "pitch": 70, "duration": 9, "velocity": 62}, {"time": 1143, "pitch": 53, "duration": 27, "velocity": 56}, {"time": 1149, "pitch": 58, "duration": 10, "velocity": 49}, {"time": 1155, "pitch": 61, "duration": 9, "velocity": 56}, {"time": 1155, "pitch": 70, "duration": 4, "velocity": 33}, {"time": 1167, "pitch": 65, "duration": 4, "velocity": 67}, {"time": 1173, "pitch": 53, "duration": 1, "velocity": 26}, {"time": 1173, "pitch": 58, "duration": 2, "velocity": 49}, {"time": 1185, "pitch": 51, "duration": 43, "velocity": 70}, {"time": 1185, "pitch": 66, "duration": 15, "velocity": 58}, {"time": 1185, "pitch": 68, "duration": 15, "velocity": 61}, {"time": 1185, "pitch": 75, "duration": 42, "velocity": 62}, {"time": 1197, "pitch": 63, "duration": 31, "velocity": 33}, {"time": 1203, "pitch": 73, "duration": 3, "velocity": 37}, {"time": 1206, "pitch": 66, "duration": 12, "velocity": 21}, {"time": 1215, "pitch": 70, "duration": 13, "velocity": 51}, {"time": 1227, "pitch": 73, "duration": 4, "velocity": 33}, {"time": 1233, "pitch": 51, "duration": 38, "velocity": 72}, {"time": 1233, "pitch": 66, "duration": 12, "velocity": 59}, {"time": 1233, "pitch": 70, "duration": 13, "velocity": 62}, {"time": 1233, "pitch": 75, "duration": 14, "velocity": 64}, {"time": 1251, "pitch": 63, "duration": 19, "velocity": 41}, {"time": 1251, "pitch": 66, "duration": 20, "velocity": 32}, {"time": 1251, "pitch": 70, "duration": 19, "velocity": 24}, {"time": 1251, "pitch": 75, "duration": 21, "velocity": 23}, {"time": 1281, "pitch": 46, "duration": 14, "velocity": 60}, {"time": 1281, "pitch": 58, "duration": 13, "velocity": 62}, {"time": 1281, "pitch": 61, "duration": 13, "velocity": 62}, {"time": 1281, "pitch": 65, "duration": 11, "velocity": 69}, {"time": 1281, "pitch": 70, "duration": 12, "velocity": 63}, {"time": 1305, "pitch": 44, "duration": 12, "velocity": 58}, {"time": 1305, "pitch": 56, "duration": 13, "velocity": 58}, {"time": 1305, "pitch": 59, "duration": 11, "velocity": 70}, {"time": 1305, "pitch": 63, "duration": 11, "velocity": 66}, {"time": 1305, "pitch": 66, "duration": 11, "velocity": 54}, {"time": 1329, "pitch": 51, "duration": 39, "velocity": 58}, {"time": 1329, "pitch": 63, "duration": 38, "velocity": 59}, {"time": 1329, "pitch": 66, "duration": 39, "velocity": 56}, {"time": 1329, "pitch": 70, "duration": 39, "velocity": 59}, {"time": 1329, "pitch": 75, "duration": 38, "velocity": 56}, {"time": 1377, "pitch": 51, "duration": 62, "velocity": 63}, {"time": 1377, "pitch": 63, "duration": 61, "velocity": 57}, {"time": 1377, "pitch": 66, "duration": 61, "velocity": 53}, {"time": 1377, "pitch": 70, "duration": 61, "velocity": 62}, {"time": 1377, "pitch": 75, "duration": 62, "velocity": 57}, {"time": 1473, "pitch": 51, "duration": 41, "velocity": 54}, {"time": 1473, "pitch": 58, "duration": 40, "velocity": 56}, {"time": 1473, "pitch": 66, "duration": 15, "velocity": 66}, {"time": 1473, "pitch": 70, "duration": 15, "velocity": 59}, {"time": 1491, "pitch": 63, "duration": 11, "velocity": 42}, {"time": 1491, "pitch": 65, "duration": 18, "velocity": 52}, {"time": 1491, "pitch": 66, "duration": 17, "velocity": 53}, {"time": 1491, "pitch": 70, "duration": 19, "velocity": 49}, {"time": 1509, "pitch": 63, "duration": 3, "velocity": 55}, {"time": 1521, "pitch": 44, "duration": 44, "velocity": 69}, {"time": 1521, "pitch": 56, "duration": 23, "velocity": 63}, {"time": 1521, "pitch": 63, "duration": 27, "velocity": 58}, {"time": 1521, "pitch": 66, "duration": 25, "velocity": 69}, {"time": 1521, "pitch": 68, "duration": 29, "velocity": 63}, {"time": 1521, "pitch": 71, "duration": 40, "velocity": 62}, {"time": 1548, "pitch": 56, "duration": 10, "velocity": 17}, {"time": 1557, "pitch": 63, "duration": 6, "velocity": 47}, {"time": 1557, "pitch": 68, "duration": 7, "velocity": 45}, {"time": 1563, "pitch": 56, "duration": 4, "velocity": 57}, {"time": 1569, "pitch": 44, "duration": 37, "velocity": 66}, {"time": 1569, "pitch": 56, "duration": 3, "velocity": 46}, {"time": 1569, "pitch": 63, "duration": 30, "velocity": 57}, {"time": 1569, "pitch": 66, "duration": 28, "velocity": 60}, {"time": 1569, "pitch": 68, "duration": 30, "velocity": 63}, {"time": 1569, "pitch": 71, "duration": 34, "velocity": 61}, {"time": 1599, "pitch": 56, "duration": 10, "velocity": 50}, {"time": 1605, "pitch": 63, "duration": 7, "velocity": 67}, {"time": 1605, "pitch": 68, "duration": 13, "velocity": 72}, {"time": 1605, "pitch": 71, "duration": 2, "velocity": 40}, {"time": 1617, "pitch": 51, "duration": 43, "velocity": 70}, {"time": 1617, "pitch": 66, "duration": 19, "velocity": 63}, {"time": 1617, "pitch": 70, "duration": 14, "velocity": 64}, {"time": 1623, "pitch": 58, "duration": 31, "velocity": 29}, {"time": 1641, "pitch": 65, "duration": 7, "velocity": 37}, {"time": 1641, "pitch": 68, "duration": 9, "velocity": 43}, {"time": 1647, "pitch": 63, "duration": 7, "velocity": 50}, {"time": 1653, "pitch": 66, "duration": 6, "velocity": 73}, {"time": 1653, "pitch": 70, "duration": 5, "velocity": 70}, {"time": 1659, "pitch": 58, "duration": 4, "velocity": 61}, {"time": 1665, "pitch": 51, "duration": 39, "velocity": 66}, {"time": 1665, "pitch": 65, "duration": 19, "velocity": 64}, {"time": 1665, "pitch": 66, "duration": 29, "velocity": 67}, {"time": 1665, "pitch": 70, "duration": 28, "velocity": 61}, {"time": 1695, "pitch": 63, "duration": 6, "velocity": 46}, {"time": 1701, "pitch": 65, "duration": 3, "velocity": 75}, {"time": 1701, "pitch": 66, "duration": 3, "velocity": 80}, {"time": 1701, "pitch": 70, "duration": 3, "velocity": 75}, {"time": 1713, "pitch": 46, "duration": 43, "velocity": 72}, {"time": 1713, "pitch": 58, "duration": 3, "velocity": 60}, {"time": 1713, "pitch": 61, "duration": 11, "velocity": 69}, {"time": 1713, "pitch": 65, "duration": 29, "velocity": 73}, {"time": 1713, "pitch": 68, "duration": 29, "velocity": 70}, {"time": 1743, "pitch": 58, "duration": 7, "velocity": 40}, {"time": 1749, "pitch": 61, "duration": 3, "velocity": 72}, {"time": 1749, "pitch": 65, "duration": 3, "velocity": 66}, {"time": 1749, "pitch": 68, "duration": 5, "velocity": 69}, {"time": 1755, "pitch": 58, "duration": 2, "velocity": 58}, {"time": 1761, "pitch": 44, "duration": 39, "velocity": 64}, {"time": 1761, "pitch": 56, "duration": 21, "velocity": 58}, {"time": 1761, "pitch": 63, "duration": 19, "velocity": 66}, {"time": 1761, "pitch": 66, "duration": 30, "velocity": 70}, {"time": 1761, "pitch": 71, "duration": 33, "velocity": 73}, {"time": 1791, "pitch": 56, "duration": 9, "velocity": 48}, {"time": 1797, "pitch": 63, "duration": 5, "velocity": 62}, {"time": 1797, "pitch": 66, "duration": 5, "velocity": 70}, {"time": 1797, "pitch": 71, "duration": 5, "velocity": 62}, {"time": 1809, "pitch": 46, "duration": 37, "velocity": 72}, {"time": 1809, "pitch": 61, "duration": 10, "velocity": 70}, {"time": 1809, "pitch": 65, "duration": 12, "velocity": 72}, {"time": 1809, "pitch": 68, "duration": 12, "velocity": 69}, {"time": 1821, "pitch": 58, "duration": 15, "velocity": 44}, {"time": 1827, "pitch": 61, "duration": 13, "velocity": 56}, {"time": 1827, "pitch": 65, "duration": 13, "velocity": 56}, {"time": 1827, "pitch": 68, "duration": 13, "velocity": 56}, {"time": 1839, "pitch": 58, "duration": 7, "velocity": 46}, {"time": 1845, "pitch": 61, "duration": 4, "velocity": 70}, {"time": 1845, "pitch": 65, "duration": 4, "velocity": 69}, {"time": 1845, "pitch": 68, "duration": 5, "velocity": 70}, {"time": 1857, "pitch": 47, "duration": 39, "velocity": 75}, {"time": 1857, "pitch": 59, "duration": 25, "velocity": 76}, {"time": 1857, "pitch": 63, "duration": 31, "velocity": 69}, {"time": 1857, "pitch": 66, "duration": 32, "velocity": 72}, {"time": 1857, "pitch": 70, "duration": 32, "velocity": 66}, {"time": 1887, "pitch": 59, "duration": 10, "velocity": 46}, {"time": 1893, "pitch": 63, "duration": 6, "velocity": 66}, {"time": 1893, "pitch": 68, "duration": 7, "velocity": 70}, {"time": 1899, "pitch": 70, "duration": 3, "velocity": 56}, {"time": 1905, "pitch": 51, "duration": 39, "velocity": 67}, {"time": 1905, "pitch": 66, "duration": 30, "velocity": 73}, {"time": 1905, "pitch": 70, "duration": 29, "velocity": 64}, {"time": 1908, "pitch": 65, "duration": 25, "velocity": 35}, {"time": 1935, "pitch": 63, "duration": 8, "velocity": 44}, {"time": 1941, "pitch": 65, "duration": 5, "velocity": 70}, {"time": 1941, "pitch": 66, "duration": 5, "velocity": 73}, {"time": 1941, "pitch": 70, "duration": 5, "velocity": 72}, {"time": 1947, "pitch": 51, "duration": 1, "velocity": 52}, {"time": 1953, "pitch": 44, "duration": 42, "velocity": 66}, {"time": 1953, "pitch": 63, "duration": 29, "velocity": 63}, {"time": 1953, "pitch": 66, "duration": 28, "velocity": 67}, {"time": 1953, "pitch": 68, "duration": 15, "velocity": 63}, {"time": 1953, "pitch": 71, "duration": 31, "velocity": 70}, {"time": 1983, "pitch": 56, "duration": 7, "velocity": 44}, {"time": 1989, "pitch": 63, "duration": 5, "velocity": 62}, {"time": 1989, "pitch": 66, "duration": 5, "velocity": 69}, {"time": 1989, "pitch": 68, "duration": 5, "velocity": 55}, {"time": 1989, "pitch": 71, "duration": 5, "velocity": 56}, {"time": 1995, "pitch": 56, "duration": 2, "velocity": 64}, {"time": 2001, "pitch": 46, "duration": 42, "velocity": 73}, {"time": 2001, "pitch": 61, "duration": 10, "velocity": 66}, {"time": 2001, "pitch": 65, "duration": 11, "velocity": 69}, {"time": 2001, "pitch": 70, "duration": 8, "velocity": 66}, {"time": 2007, "pitch": 58, "duration": 21, "velocity": 41}, {"time": 2013, "pitch": 61, "duration": 19, "velocity": 44}, {"time": 2019, "pitch": 65, "duration": 13, "velocity": 61}, {"time": 2019, "pitch": 70, "duration": 14, "velocity": 54}, {"time": 2031, "pitch": 58, "duration": 8, "velocity": 30}, {"time": 2037, "pitch": 61, "duration": 3, "velocity": 59}, {"time": 2043, "pitch": 58, "duration": 2, "velocity": 63}, {"time": 2049, "pitch": 51, "duration": 37, "velocity": 60}, {"time": 2049, "pitch": 63, "duration": 35, "velocity": 58}, {"time": 2049, "pitch": 66, "duration": 17, "velocity": 63}, {"time": 2049, "pitch": 70, "duration": 17, "velocity": 66}, {"time": 2049, "pitch": 75, "duration": 17, "velocity": 66}, {"time": 2073, "pitch": 66, "duration": 12, "velocity": 44}, {"time": 2073, "pitch": 70, "duration": 11, "velocity": 50}, {"time": 2073, "pitch": 75, "duration": 10, "velocity": 45}, {"time": 2097, "pitch": 51, "duration": 16, "velocity": 70}, {"time": 2097, "pitch": 63, "duration": 15, "velocity": 49}, {"time": 2097, "pitch": 66, "duration": 15, "velocity": 60}, {"time": 2097, "pitch": 70, "duration": 15, "velocity": 63}, {"time": 2097, "pitch": 75, "duration": 14, "velocity": 61}, {"time": 2121, "pitch": 49, "duration": 15, "velocity": 66}, {"time": 2121, "pitch": 61, "duration": 13, "velocity": 51}, {"time": 2121, "pitch": 65, "duration": 15, "velocity": 62}, {"time": 2121, "pitch": 68, "duration": 15, "velocity": 69}, {"time": 2121, "pitch": 73, "duration": 15, "velocity": 64}, {"time": 2145, "pitch": 44, "duration": 38, "velocity": 64}, {"time": 2145, "pitch": 63, "duration": 9, "velocity": 67}, {"time": 2145, "pitch": 68, "duration": 9, "velocity": 66}, {"time": 2145, "pitch": 71, "duration": 12, "velocity": 69}, {"time": 2151, "pitch": 56, "duration": 34, "velocity": 48}, {"time": 2157, "pitch": 63, "duration": 27, "velocity": 40}, {"time": 2163, "pitch": 68, "duration": 19, "velocity": 50}, {"time": 2163, "pitch": 71, "duration": 20, "velocity": 55}, {"time": 2193, "pitch": 46, "duration": 33, "velocity": 67}, {"time": 2193, "pitch": 58, "duration": 36, "velocity": 67}, {"time": 2193, "pitch": 61, "duration": 20, "velocity": 63}, {"time": 2193, "pitch": 65, "duration": 16, "velocity": 62}, {"time": 2193, "pitch": 70, "duration": 16, "velocity": 57}, {"time": 2217, "pitch": 61, "duration": 11, "velocity": 58}, {"time": 2217, "pitch": 65, "duration": 11, "velocity": 61}, {"time": 2217, "pitch": 70, "duration": 12, "velocity": 56}, {"time": 2241, "pitch": 51, "duration": 46, "velocity": 58}, {"time": 2241, "pitch": 66, "duration": 18, "velocity": 62}, {"time": 2241, "pitch": 70, "duration": 17, "velocity": 61}, {"time": 2241, "pitch": 75, "duration": 18, "velocity": 64}, {"time": 2265, "pitch": 66, "duration": 18, "velocity": 44}, {"time": 2265, "pitch": 70, "duration": 17, "velocity": 55}, {"time": 2265, "pitch": 75, "duration": 17, "velocity": 45}, {"time": 2289, "pitch": 51, "duration": 33, "velocity": 41}, {"time": 2289, "pitch": 63, "duration": 33, "velocity": 51}, {"time": 2289, "pitch": 66, "duration": 18, "velocity": 50}, {"time": 2289, "pitch": 70, "duration": 17, "velocity": 58}, {"time": 2289, "pitch": 75, "duration": 18, "velocity": 49}, {"time": 2313, "pitch": 66, "duration": 13, "velocity": 56}, {"time": 2313, "pitch": 70, "duration": 12, "velocity": 66}, {"time": 2313, "pitch": 75, "duration": 12, "velocity": 59}, {"time": 2325, "pitch": 51, "duration": 3, "velocity": 72}, {"time": 2325, "pitch": 63, "duration": 2, "velocity": 51}, {"time": 2337, "pitch": 46, "duration": 15, "velocity": 63}, {"time": 2337, "pitch": 58, "duration": 17, "velocity": 56}, {"time": 2337, "pitch": 61, "duration": 15, "velocity": 61}, {"time": 2337, "pitch": 65, "duration": 15, "velocity": 42}, {"time": 2337, "pitch": 68, "duration": 16, "velocity": 53}, {"time": 2361, "pitch": 44, "duration": 12, "velocity": 62}, {"time": 2361, "pitch": 56, "duration": 14, "velocity": 60}, {"time": 2361, "pitch": 63, "duration": 16, "velocity": 59}, {"time": 2361, "pitch": 66, "duration": 13, "velocity": 53}, {"time": 2361, "pitch": 68, "duration": 14, "velocity": 59}, {"time": 2361, "pitch": 71, "duration": 14, "velocity": 59}, {"time": 2385, "pitch": 51, "duration": 88, "velocity": 60}, {"time": 2385, "pitch": 66, "duration": 20, "velocity": 69}, {"time": 2385, "pitch": 70, "duration": 21, "velocity": 60}, {"time": 2409, "pitch": 63, "duration": 18, "velocity": 42}, {"time": 2409, "pitch": 65, "duration": 15, "velocity": 49}, {"time": 2409, "pitch": 68, "duration": 14, "velocity": 49}, {"time": 2421, "pitch": 66, "duration": 9, "velocity": 57}, {"time": 2421, "pitch": 70, "duration": 10, "velocity": 52}, {"time": 2433, "pitch": 63, "duration": 40, "velocity": 32}, {"time": 2433, "pitch": 75, "duration": 39, "velocity": 66}, {"time": 2445, "pitch": 66, "duration": 24, "velocity": 1}, {"time": 2481, "pitch": 39, "duration": 4, "velocity": 69}, {"time": 2481, "pitch": 51, "duration": 4, "velocity": 64}, {"time": 2481, "pitch": 58, "duration": 4, "velocity": 60}, {"time": 2481, "pitch": 63, "duration": 4, "velocity": 70}, {"time": 2481, "pitch": 66, "duration": 4, "velocity": 64}, {"time": 2487, "pitch": 39, "duration": 5, "velocity": 76}, {"time": 2487, "pitch": 51, "duration": 5, "velocity": 72}, {"time": 2487, "pitch": 58, "duration": 5, "velocity": 70}, {"time": 2487, "pitch": 63, "duration": 5, "velocity": 73}, {"time": 2487, "pitch": 66, "duration": 5, "velocity": 72}, {"time": 2502, "pitch": 39, "duration": 20, "velocity": 76}, {"time": 2502, "pitch": 51, "duration": 16, "velocity": 73}, {"time": 2502, "pitch": 58, "duration": 11, "velocity": 62}, {"time": 2502, "pitch": 61, "duration": 10, "velocity": 76}, {"time": 2502, "pitch": 63, "duration": 11, "velocity": 70}, {"time": 2502, "pitch": 66, "duration": 11, "velocity": 72}, {"time": 2517, "pitch": 58, "duration": 6, "velocity": 70}, {"time": 2517, "pitch": 61, "duration": 6, "velocity": 73}, {"time": 2517, "pitch": 63, "duration": 6, "velocity": 72}, {"time": 2517, "pitch": 66, "duration": 7, "velocity": 58}, {"time": 2523, "pitch": 51, "duration": 2, "velocity": 76}, {"time": 2529, "pitch": 44, "duration": 42, "velocity": 78}, {"time": 2529, "pitch": 63, "duration": 9, "velocity": 69}, {"time": 2529, "pitch": 66, "duration": 10, "velocity": 80}, {"time": 2529, "pitch": 71, "duration": 11, "velocity": 78}, {"time": 2535, "pitch": 56, "duration": 16, "velocity": 39}, {"time": 2541, "pitch": 63, "duration": 3, "velocity": 56}, {"time": 2547, "pitch": 63, "duration": 7, "velocity": 73}, {"time": 2547, "pitch": 66, "duration": 6, "velocity": 76}, {"time": 2547, "pitch": 71, "duration": 6, "velocity": 69}, {"time": 2553, "pitch": 56, "duration": 5, "velocity": 55}, {"time": 2559, "pitch": 63, "duration": 3, "velocity": 80}, {"time": 2559, "pitch": 66, "duration": 7, "velocity": 80}, {"time": 2559, "pitch": 70, "duration": 6, "velocity": 78}, {"time": 2565, "pitch": 56, "duration": 3, "velocity": 44}, {"time": 2568, "pitch": 63, "duration": 2, "velocity": 70}, {"time": 2568, "pitch": 66, "duration": 2, "velocity": 76}, {"time": 2568, "pitch": 71, "duration": 3, "velocity": 76}, {"time": 2571, "pitch": 56, "duration": 2, "velocity": 62}, {"time": 2577, "pitch": 51, "duration": 37, "velocity": 70}, {"time": 2577, "pitch": 66, "duration": 7, "velocity": 76}, {"time": 2577, "pitch": 70, "duration": 7, "velocity": 75}, {"time": 2583, "pitch": 58, "duration": 31, "velocity": 32}, {"time": 2589, "pitch": 65, "duration": 4, "velocity": 76}, {"time": 2589, "pitch": 68, "duration": 5, "velocity": 76}, {"time": 2595, "pitch": 65, "duration": 1, "velocity": 57}, {"time": 2595, "pitch": 66, "duration": 2, "velocity": 78}, {"time": 2595, "pitch": 70, "duration": 3, "velocity": 80}, {"time": 2604, "pitch": 63, "duration": 6, "velocity": 66}, {"time": 2607, "pitch": 66, "duration": 4, "velocity": 72}, {"time": 2610, "pitch": 68, "duration": 4, "velocity": 66}, {"time": 2613, "pitch": 70, "duration": 4, "velocity": 66}, {"time": 2616, "pitch": 73, "duration": 6, "velocity": 75}, {"time": 2625, "pitch": 47, "duration": 44, "velocity": 75}, {"time": 2625, "pitch": 63, "duration": 8, "velocity": 76}, {"time": 2625, "pitch": 66, "duration": 8, "velocity": 73}, {"time": 2625, "pitch": 71, "duration": 8, "velocity": 72}, {"time": 2631, "pitch": 54, "duration": 21, "velocity": 49}, {"time": 2634, "pitch": 59, "duration": 18, "velocity": 72}, {"time": 2643, "pitch": 63, "duration": 5, "velocity": 69}, {"time": 2643, "pitch": 66, "duration": 4, "velocity": 69}, {"time": 2643, "pitch": 71, "duration": 4, "velocity": 72}, {"time": 2652, "pitch": 61, "duration": 2, "velocity": 76}, {"time": 2652, "pitch": 66, "duration": 2, "velocity": 72}, {"time": 2652, "pitch": 70, "duration": 2, "velocity": 76}, {"time": 2658, "pitch": 59, "duration": 5, "velocity": 57}, {"time": 2661, "pitch": 54, "duration": 2, "velocity": 11}, {"time": 2661, "pitch": 63, "duration": 4, "velocity": 73}, {"time": 2661, "pitch": 66, "duration": 4, "velocity": 76}, {"time": 2661, "pitch": 71, "duration": 4, "velocity": 76}, {"time": 2667, "pitch": 54, "duration": 1, "velocity": 52}, {"time": 2673, "pitch": 46, "duration": 39, "velocity": 82}, {"time": 2673, "pitch": 61, "duration": 7, "velocity": 72}, {"time": 2673, "pitch": 65, "duration": 8, "velocity": 75}, {"time": 2673, "pitch": 70, "duration": 7, "velocity": 72}, {"time": 2679, "pitch": 58, "duration": 15, "velocity": 47}, {"time": 2685, "pitch": 61, "duration": 6, "velocity": 66}, {"time": 2691, "pitch": 61, "duration": 13, "velocity": 61}, {"time": 2691, "pitch": 65, "duration": 13, "velocity": 80}, {"time": 2691, "pitch": 70, "duration": 13, "velocity": 72}, {"time": 2703, "pitch": 58, "duration": 7, "velocity": 69}, {"time": 2709, "pitch": 61, "duration": 4, "velocity": 75}, {"time": 2709, "pitch": 65, "duration": 4, "velocity": 75}, {"time": 2709, "pitch": 70, "duration": 4, "velocity": 78}, {"time": 2715, "pitch": 46, "duration": 3, "velocity": 63}, {"time": 2715, "pitch": 58, "duration": 1, "velocity": 47}, {"time": 2721, "pitch": 44, "duration": 7, "velocity": 76}, {"time": 2721, "pitch": 63, "duration": 20, "velocity": 61}, {"time": 2721, "pitch": 66, "duration": 3, "velocity": 61}, {"time": 2721, "pitch": 68, "duration": 19, "velocity": 73}, {"time": 2721, "pitch": 71, "duration": 19, "velocity": 76}, {"time": 2727, "pitch": 56, "duration": 7, "velocity": 61}, {"time": 2733, "pitch": 58, "duration": 29, "velocity": 61}, {"time": 2739, "pitch": 59, "duration": 15, "velocity": 67}, {"time": 2745, "pitch": 63, "duration": 10, "velocity": 57}, {"time": 2751, "pitch": 68, "duration": 4, "velocity": 66}, {"time": 2757, "pitch": 63, "duration": 4, "velocity": 66}, {"time": 2757, "pitch": 70, "duration": 4, "velocity": 66}, {"time": 2763, "pitch": 59, "duration": 2, "velocity": 72}, {"time": 2769, "pitch": 44, "duration": 39, "velocity": 76}, {"time": 2769, "pitch": 63, "duration": 8, "velocity": 72}, {"time": 2769, "pitch": 68, "duration": 9, "velocity": 69}, {"time": 2769, "pitch": 71, "duration": 7, "velocity": 76}, {"time": 2775, "pitch": 56, "duration": 15, "velocity": 55}, {"time": 2781, "pitch": 63, "duration": 4, "velocity": 61}, {"time": 2781, "pitch": 71, "duration": 4, "velocity": 78}, {"time": 2787, "pitch": 63, "duration": 6, "velocity": 70}, {"time": 2787, "pitch": 70, "duration": 9, "velocity": 70}, {"time": 2787, "pitch": 71, "duration": 1, "velocity": 73}, {"time": 2793, "pitch": 56, "duration": 6, "velocity": 47}, {"time": 2799, "pitch": 61, "duration": 8, "velocity": 73}, {"time": 2799, "pitch": 68, "duration": 11, "velocity": 75}, {"time": 2799, "pitch": 70, "duration": 1, "velocity": 43}, {"time": 2805, "pitch": 56, "duration": 4, "velocity": 55}, {"time": 2811, "pitch": 61, "duration": 2, "velocity": 48}, {"time": 2817, "pitch": 47, "duration": 42, "velocity": 76}, {"time": 2817, "pitch": 63, "duration": 11, "velocity": 66}, {"time": 2817, "pitch": 66, "duration": 11, "velocity": 70}, {"time": 2817, "pitch": 71, "duration": 12, "velocity": 69}, {"time": 2823, "pitch": 54, "duration": 36, "velocity": 60}, {"time": 2829, "pitch": 59, "duration": 20, "velocity": 76}, {"time": 2835, "pitch": 63, "duration": 4, "velocity": 58}, {"time": 2835, "pitch": 71, "duration": 4, "velocity": 60}, {"time": 2841, "pitch": 63, "duration": 3, "velocity": 66}, {"time": 2841, "pitch": 70, "duration": 3, "velocity": 69}, {"time": 2847, "pitch": 63, "duration": 7, "velocity": 58}, {"time": 2847, "pitch": 71, "duration": 8, "velocity": 66}, {"time": 2853, "pitch": 59, "duration": 6, "velocity": 62}, {"time": 2859, "pitch": 63, "duration": 2, "velocity": 62}, {"time": 2859, "pitch": 75, "duration": 3, "velocity": 67}, {"time": 2865, "pitch": 46, "duration": 43, "velocity": 73}, {"time": 2865, "pitch": 61, "duration": 8, "velocity": 63}, {"time": 2865, "pitch": 65, "duration": 7, "velocity": 64}, {"time": 2865, "pitch": 68, "duration": 8, "velocity": 72}, {"time": 2871, "pitch": 58, "duration": 14, "velocity": 59}, {"time": 2877, "pitch": 61, "duration": 4, "velocity": 58}, {"time": 2883, "pitch": 61, "duration": 2, "velocity": 51}, {"time": 2883, "pitch": 65, "duration": 7, "velocity": 59}, {"time": 2889, "pitch": 58, "duration": 14, "velocity": 64}, {"time": 2889, "pitch": 68, "duration": 4, "velocity": 64}, {"time": 2895, "pitch": 61, "duration": 3, "velocity": 66}, {"time": 2895, "pitch": 65, "duration": 2, "velocity": 51}, {"time": 2895, "pitch": 73, "duration": 3, "velocity": 63}, {"time": 2901, "pitch": 61, "duration": 4, "velocity": 52}, {"time": 2901, "pitch": 65, "duration": 3, "velocity": 64}, {"time": 2901, "pitch": 73, "duration": 4, "velocity": 67}, {"time": 2907, "pitch": 58, "duration": 2, "velocity": 55}, {"time": 2907, "pitch": 61, "duration": 2, "velocity": 59}, {"time": 2907, "pitch": 71, "duration": 3, "velocity": 59}, {"time": 2913, "pitch": 44, "duration": 7, "velocity": 70}, {"time": 2913, "pitch": 63, "duration": 8, "velocity": 67}, {"time": 2913, "pitch": 68, "duration": 9, "velocity": 73}, {"time": 2913, "pitch": 72, "duration": 9, "velocity": 73}, {"time": 2919, "pitch": 56, "duration": 7, "velocity": 53}, {"time": 2925, "pitch": 58, "duration": 27, "velocity": 72}, {"time": 2925, "pitch": 63, "duration": 5, "velocity": 55}, {"time": 2925, "pitch": 70, "duration": 9, "velocity": 63}, {"time": 2931, "pitch": 60, "duration": 8, "velocity": 70}, {"time": 2937, "pitch": 63, "duration": 7, "velocity": 73}, {"time": 2937, "pitch": 68, "duration": 7, "velocity": 72}, {"time": 2937, "pitch": 72, "duration": 8, "velocity": 75}, {"time": 2943, "pitch": 60, "duration": 5, "velocity": 53}, {"time": 2949, "pitch": 63, "duration": 5, "velocity": 54}, {"time": 2949, "pitch": 68, "duration": 4, "velocity": 69}, {"time": 2949, "pitch": 75, "duration": 6, "velocity": 73}, {"time": 2955, "pitch": 58, "duration": 2, "velocity": 52}, {"time": 2961, "pitch": 51, "duration": 39, "velocity": 73}, {"time": 2961, "pitch": 65, "duration": 5, "velocity": 73}, {"time": 2961, "pitch": 68, "duration": 5, "velocity": 69}, {"time": 2967, "pitch": 58, "duration": 29, "velocity": 63}, {"time": 2967, "pitch": 63, "duration": 3, "velocity": 61}, {"time": 2967, "pitch": 66, "duration": 5, "velocity": 73}, {"time": 2973, "pitch": 66, "duration": 2, "velocity": 70}, {"time": 2973, "pitch": 70, "duration": 3, "velocity": 70}, {"time": 2979, "pitch": 63, "duration": 8, "velocity": 50}, {"time": 2985, "pitch": 70, "duration": 8, "velocity": 59}, {"time": 2985, "pitch": 78, "duration": 9, "velocity": 66}, {"time": 2991, "pitch": 63, "duration": 6, "velocity": 48}, {"time": 2997, "pitch": 58, "duration": 1, "velocity": 46}, {"time": 2997, "pitch": 70, "duration": 3, "velocity": 73}, {"time": 2997, "pitch": 75, "duration": 4, "velocity": 78}, {"time": 3003, "pitch": 49, "duration": 2, "velocity": 63}, {"time": 3003, "pitch": 68, "duration": 2, "velocity": 46}, {"time": 3003, "pitch": 73, "duration": 5, "velocity": 60}, {"time": 3009, "pitch": 47, "duration": 41, "velocity": 72}, {"time": 3009, "pitch": 63, "duration": 13, "velocity": 63}, {"time": 3009, "pitch": 71, "duration": 12, "velocity": 41}, {"time": 3012, "pitch": 66, "duration": 6, "velocity": 11}, {"time": 3015, "pitch": 54, "duration": 28, "velocity": 67}, {"time": 3021, "pitch": 59, "duration": 20, "velocity": 70}, {"time": 3027, "pitch": 63, "duration": 2, "velocity": 69}, {"time": 3027, "pitch": 66, "duration": 2, "velocity": 66}, {"time": 3027, "pitch": 71, "duration": 4, "velocity": 72}, {"time": 3033, "pitch": 61, "duration": 3, "velocity": 62}, {"time": 3033, "pitch": 70, "duration": 3, "velocity": 69}, {"time": 3039, "pitch": 63, "duration": 5, "velocity": 63}, {"time": 3039, "pitch": 71, "duration": 7, "velocity": 75}, {"time": 3045, "pitch": 54, "duration": 5, "velocity": 34}, {"time": 3045, "pitch": 59, "duration": 5, "velocity": 56}, {"time": 3051, "pitch": 63, "duration": 2, "velocity": 63}, {"time": 3051, "pitch": 66, "duration": 1, "velocity": 54}, {"time": 3051, "pitch": 73, "duration": 3, "velocity": 70}, {"time": 3057, "pitch": 46, "duration": 40, "velocity": 76}, {"time": 3057, "pitch": 61, "duration": 7, "velocity": 63}, {"time": 3057, "pitch": 66, "duration": 6, "velocity": 58}, {"time": 3057, "pitch": 70, "duration": 9, "velocity": 66}, {"time": 3063, "pitch": 58, "duration": 14, "velocity": 60}, {"time": 3069, "pitch": 61, "duration": 5, "velocity": 59}, {"time": 3075, "pitch": 61, "duration": 8, "velocity": 70}, {"time": 3075, "pitch": 65, "duration": 8, "velocity": 73}, {"time": 3075, "pitch": 68, "duration": 8, "velocity": 69}, {"time": 3081, "pitch": 58, "duration": 9, "velocity": 53}, {"time": 3087, "pitch": 61, "duration": 6, "velocity": 58}, {"time": 3087, "pitch": 73, "duration": 7, "velocity": 62}, {"time": 3093, "pitch": 58, "duration": 3, "velocity": 52}, {"time": 3093, "pitch": 68, "duration": 5, "velocity": 64}, {"time": 3099, "pitch": 73, "duration": 5, "velocity": 61}, {"time": 3105, "pitch": 44, "duration": 10, "velocity": 70}, {"time": 3105, "pitch": 63, "duration": 25, "velocity": 59}, {"time": 3105, "pitch": 71, "duration": 25, "velocity": 76}, {"time": 3111, "pitch": 51, "duration": 6, "velocity": 56}, {"time": 3117, "pitch": 56, "duration": 8, "velocity": 69}, {"time": 3123, "pitch": 58, "duration": 15, "velocity": 62}, {"time": 3129, "pitch": 59, "duration": 11, "velocity": 61}, {"time": 3135, "pitch": 63, "duration": 5, "velocity": 62}, {"time": 3141, "pitch": 68, "duration": 5, "velocity": 69}, {"time": 3147, "pitch": 70, "duration": 4, "velocity": 67}, {"time": 3153, "pitch": 44, "duration": 12, "velocity": 70}, {"time": 3153, "pitch": 63, "duration": 9, "velocity": 60}, {"time": 3153, "pitch": 68, "duration": 7, "velocity": 61}, {"time": 3159, "pitch": 51, "duration": 7, "velocity": 62}, {"time": 3159, "pitch": 70, "duration": 5, "velocity": 76}, {"time": 3165, "pitch": 56, "duration": 7, "velocity": 60}, {"time": 3165, "pitch": 63, "duration": 5, "velocity": 60}, {"time": 3165, "pitch": 68, "duration": 5, "velocity": 72}, {"time": 3171, "pitch": 58, "duration": 18, "velocity": 64}, {"time": 3171, "pitch": 63, "duration": 7, "velocity": 55}, {"time": 3171, "pitch": 70, "duration": 8, "velocity": 67}, {"time": 3177, "pitch": 59, "duration": 10, "velocity": 63}, {"time": 3183, "pitch": 63, "duration": 8, "velocity": 72}, {"time": 3183, "pitch": 68, "duration": 7, "velocity": 76}, {"time": 3189, "pitch": 66, "duration": 4, "velocity": 76}, {"time": 3195, "pitch": 68, "duration": 5, "velocity": 64}, {"time": 3201, "pitch": 47, "duration": 42, "velocity": 70}, {"time": 3201, "pitch": 63, "duration": 9, "velocity": 45}, {"time": 3201, "pitch": 66, "duration": 11, "velocity": 59}, {"time": 3201, "pitch": 75, "duration": 7, "velocity": 49}, {"time": 3207, "pitch": 54, "duration": 36, "velocity": 62}, {"time": 3213, "pitch": 59, "duration": 12, "velocity": 72}, {"time": 3219, "pitch": 63, "duration": 4, "velocity": 51}, {"time": 3219, "pitch": 66, "duration": 4, "velocity": 62}, {"time": 3219, "pitch": 75, "duration": 4, "velocity": 49}, {"time": 3225, "pitch": 63, "duration": 6, "velocity": 66}, {"time": 3225, "pitch": 66, "duration": 6, "velocity": 72}, {"time": 3225, "pitch": 75, "duration": 5, "velocity": 73}, {"time": 3228, "pitch": 59, "duration": 5, "velocity": 49}, {"time": 3234, "pitch": 63, "duration": 5, "velocity": 57}, {"time": 3234, "pitch": 66, "duration": 5, "velocity": 63}, {"time": 3234, "pitch": 73, "duration": 5, "velocity": 75}, {"time": 3237, "pitch": 59, "duration": 6, "velocity": 62}, {"time": 3243, "pitch": 63, "duration": 2, "velocity": 49}, {"time": 3243, "pitch": 70, "duration": 4, "velocity": 66}, {"time": 3249, "pitch": 46, "duration": 39, "velocity": 70}, {"time": 3249, "pitch": 61, "duration": 8, "velocity": 73}, {"time": 3249, "pitch": 65, "duration": 7, "velocity": 52}, {"time": 3249, "pitch": 68, "duration": 8, "velocity": 64}, {"time": 3255, "pitch": 58, "duration": 14, "velocity": 63}, {"time": 3261, "pitch": 61, "duration": 5, "velocity": 54}, {"time": 3267, "pitch": 61, "duration": 8, "velocity": 72}, {"time": 3267, "pitch": 65, "duration": 8, "velocity": 73}, {"time": 3267, "pitch": 68, "duration": 9, "velocity": 72}, {"time": 3273, "pitch": 58, "duration": 9, "velocity": 52}, {"time": 3279, "pitch": 61, "duration": 7, "velocity": 72}, {"time": 3279, "pitch": 68, "duration": 5, "velocity": 44}, {"time": 3285, "pitch": 58, "duration": 4, "velocity": 58}, {"time": 3285, "pitch": 65, "duration": 3, "velocity": 75}, {"time": 3291, "pitch": 73, "duration": 4, "velocity": 72}, {"time": 3297, "pitch": 44, "duration": 6, "velocity": 70}, {"time": 3297, "pitch": 63, "duration": 8, "velocity": 59}, {"time": 3297, "pitch": 68, "duration": 9, "velocity": 69}, {"time": 3297, "pitch": 75, "duration": 9, "velocity": 66}, {"time": 3303, "pitch": 56, "duration": 8, "velocity": 47}, {"time": 3309, "pitch": 58, "duration": 26, "velocity": 69}, {"time": 3309, "pitch": 63, "duration": 3, "velocity": 57}, {"time": 3309, "pitch": 72, "duration": 5, "velocity": 63}, {"time": 3315, "pitch": 63, "duration": 8, "velocity": 69}, {"time": 3315, "pitch": 70, "duration": 9, "velocity": 75}, {"time": 3321, "pitch": 60, "duration": 8, "velocity": 61}, {"time": 3327, "pitch": 63, "duration": 6, "velocity": 70}, {"time": 3327, "pitch": 68, "duration": 6, "velocity": 75}, {"time": 3333, "pitch": 60, "duration": 2, "velocity": 67}, {"time": 3336, "pitch": 63, "duration": 4, "velocity": 69}, {"time": 3339, "pitch": 68, "duration": 5, "velocity": 72}, {"time": 3342, "pitch": 75, "duration": 7, "velocity": 61}, {"time": 3345, "pitch": 51, "duration": 33, "velocity": 66}, {"time": 3345, "pitch": 66, "duration": 10, "velocity": 52}, {"time": 3345, "pitch": 70, "duration": 9, "velocity": 67}, {"time": 3351, "pitch": 58, "duration": 26, "velocity": 51}, {"time": 3357, "pitch": 63, "duration": 7, "velocity": 66}, {"time": 3363, "pitch": 65, "duration": 4, "velocity": 67}, {"time": 3363, "pitch": 68, "duration": 6, "velocity": 69}, {"time": 3369, "pitch": 63, "duration": 9, "velocity": 56}, {"time": 3369, "pitch": 66, "duration": 2, "velocity": 70}, {"time": 3369, "pitch": 70, "duration": 5, "velocity": 72}, {"time": 3375, "pitch": 66, "duration": 6, "velocity": 67}, {"time": 3375, "pitch": 73, "duration": 4, "velocity": 69}, {"time": 3381, "pitch": 49, "duration": 4, "velocity": 63}, {"time": 3381, "pitch": 65, "duration": 4, "velocity": 69}, {"time": 3381, "pitch": 70, "duration": 5, "velocity": 67}, {"time": 3387, "pitch": 68, "duration": 5, "velocity": 67}, {"time": 3393, "pitch": 47, "duration": 40, "velocity": 76}, {"time": 3393, "pitch": 63, "duration": 14, "velocity": 63}, {"time": 3393, "pitch": 66, "duration": 11, "velocity": 66}, {"time": 3393, "pitch": 70, "duration": 12, "velocity": 64}, {"time": 3399, "pitch": 54, "duration": 33, "velocity": 58}, {"time": 3405, "pitch": 59, "duration": 9, "velocity": 60}, {"time": 3411, "pitch": 63, "duration": 14, "velocity": 64}, {"time": 3411, "pitch": 66, "duration": 13, "velocity": 75}, {"time": 3423, "pitch": 59, "duration": 8, "velocity": 58}, {"time": 3429, "pitch": 63, "duration": 5, "velocity": 76}, {"time": 3432, "pitch": 66, "duration": 7, "velocity": 48}, {"time": 3435, "pitch": 68, "duration": 4, "velocity": 60}, {"time": 3438, "pitch": 73, "duration": 4, "velocity": 29}, {"time": 3441, "pitch": 42, "duration": 43, "velocity": 67}, {"time": 3441, "pitch": 61, "duration": 8, "velocity": 60}, {"time": 3441, "pitch": 66, "duration": 9, "velocity": 59}, {"time": 3441, "pitch": 70, "duration": 14, "velocity": 50}, {"time": 3447, "pitch": 54, "duration": 14, "velocity": 60}, {"time": 3453, "pitch": 61, "duration": 3, "velocity": 59}, {"time": 3453, "pitch": 68, "duration": 6, "velocity": 62}, {"time": 3459, "pitch": 61, "duration": 9, "velocity": 63}, {"time": 3459, "pitch": 66, "duration": 9, "velocity": 66}, {"time": 3459, "pitch": 70, "duration": 10, "velocity": 66}, {"time": 3465, "pitch": 54, "duration": 14, "velocity": 44}, {"time": 3471, "pitch": 61, "duration": 5, "velocity": 64}, {"time": 3477, "pitch": 66, "duration": 7, "velocity": 78}, {"time": 3483, "pitch": 54, "duration": 4, "velocity": 53}, {"time": 3483, "pitch": 70, "duration": 3, "velocity": 72}, {"time": 3489, "pitch": 44, "duration": 10, "velocity": 75}, {"time": 3489, "pitch": 63, "duration": 24, "velocity": 58}, {"time": 3489, "pitch": 68, "duration": 23, "velocity": 70}, {"time": 3489, "pitch": 71, "duration": 24, "velocity": 61}, {"time": 3495, "pitch": 51, "duration": 6, "velocity": 61}, {"time": 3501, "pitch": 56, "duration": 7, "velocity": 53}, {"time": 3507, "pitch": 58, "duration": 20, "velocity": 62}, {"time": 3513, "pitch": 59, "duration": 8, "velocity": 67}, {"time": 3519, "pitch": 66, "duration": 2, "velocity": 73}, {"time": 3519, "pitch": 78, "duration": 3, "velocity": 64}, {"time": 3525, "pitch": 59, "duration": 2, "velocity": 64}, {"time": 3525, "pitch": 68, "duration": 2, "velocity": 60}, {"time": 3525, "pitch": 80, "duration": 3, "velocity": 53}, {"time": 3531, "pitch": 70, "duration": 2, "velocity": 66}, {"time": 3531, "pitch": 82, "duration": 3, "velocity": 76}, {"time": 3537, "pitch": 44, "duration": 12, "velocity": 69}, {"time": 3537, "pitch": 68, "duration": 9, "velocity": 63}, {"time": 3537, "pitch": 80, "duration": 8, "velocity": 78}, {"time": 3543, "pitch": 51, "duration": 7, "velocity": 70}, {"time": 3549, "pitch": 56, "duration": 7, "velocity": 67}, {"time": 3549, "pitch": 68, "duration": 12, "velocity": 54}, {"time": 3549, "pitch": 80, "duration": 12, "velocity": 75}, {"time": 3555, "pitch": 58, "duration": 19, "velocity": 69}, {"time": 3561, "pitch": 59, "duration": 13, "velocity": 57}, {"time": 3567, "pitch": 66, "duration": 2, "velocity": 58}, {"time": 3567, "pitch": 78, "duration": 3, "velocity": 67}, {"time": 3573, "pitch": 68, "duration": 2, "velocity": 57}, {"time": 3573, "pitch": 80, "duration": 3, "velocity": 67}, {"time": 3579, "pitch": 70, "duration": 2, "velocity": 44}, {"time": 3579, "pitch": 82, "duration": 3, "velocity": 62}, {"time": 3585, "pitch": 47, "duration": 41, "velocity": 72}, {"time": 3585, "pitch": 71, "duration": 7, "velocity": 52}, {"time": 3585, "pitch": 83, "duration": 5, "velocity": 42}, {"time": 3591, "pitch": 54, "duration": 34, "velocity": 60}, {"time": 3597, "pitch": 59, "duration": 8, "velocity": 52}, {"time": 3603, "pitch": 63, "duration": 6, "velocity": 63}, {"time": 3603, "pitch": 66, "duration": 5, "velocity": 51}, {"time": 3603, "pitch": 71, "duration": 6, "velocity": 72}, {"time": 3609, "pitch": 59, "duration": 8, "velocity": 44}, {"time": 3615, "pitch": 61, "duration": 2, "velocity": 63}, {"time": 3615, "pitch": 66, "duration": 1, "velocity": 46}, {"time": 3615, "pitch": 70, "duration": 3, "velocity": 61}, {"time": 3621, "pitch": 59, "duration": 5, "velocity": 66}, {"time": 3621, "pitch": 63, "duration": 3, "velocity": 60}, {"time": 3621, "pitch": 66, "duration": 3, "velocity": 57}, {"time": 3621, "pitch": 71, "duration": 4, "velocity": 53}, {"time": 3633, "pitch": 46, "duration": 14, "velocity": 75}, {"time": 3633, "pitch": 61, "duration": 8, "velocity": 62}, {"time": 3633, "pitch": 65, "duration": 8, "velocity": 63}, {"time": 3633, "pitch": 68, "duration": 8, "velocity": 64}, {"time": 3633, "pitch": 73, "duration": 8, "velocity": 56}, {"time": 3639, "pitch": 58, "duration": 9, "velocity": 56}, {"time": 3645, "pitch": 61, "duration": 4, "velocity": 50}, {"time": 3651, "pitch": 61, "duration": 11, "velocity": 69}, {"time": 3651, "pitch": 65, "duration": 11, "velocity": 69}, {"time": 3651, "pitch": 68, "duration": 11, "velocity": 69}, {"time": 3651, "pitch": 73, "duration": 12, "velocity": 47}, {"time": 3669, "pitch": 61, "duration": 2, "velocity": 67}, {"time": 3669, "pitch": 65, "duration": 2, "velocity": 61}, {"time": 3669, "pitch": 68, "duration": 4, "velocity": 70}, {"time": 3669, "pitch": 73, "duration": 2, "velocity": 46}, {"time": 3681, "pitch": 44, "duration": 6, "velocity": 67}, {"time": 3681, "pitch": 63, "duration": 15, "velocity": 69}, {"time": 3681, "pitch": 68, "duration": 14, "velocity": 73}, {"time": 3681, "pitch": 72, "duration": 14, "velocity": 73}, {"time": 3687, "pitch": 56, "duration": 8, "velocity": 49}, {"time": 3693, "pitch": 58, "duration": 28, "velocity": 64}, {"time": 3699, "pitch": 60, "duration": 8, "velocity": 72}, {"time": 3705, "pitch": 63, "duration": 3, "velocity": 61}, {"time": 3705, "pitch": 68, "duration": 2, "velocity": 54}, {"time": 3705, "pitch": 75, "duration": 4, "velocity": 72}, {"time": 3711, "pitch": 60, "duration": 7, "velocity": 60}, {"time": 3717, "pitch": 75, "duration": 5, "velocity": 63}, {"time": 3717, "pitch": 80, "duration": 5, "velocity": 73}, {"time": 3723, "pitch": 82, "duration": 6, "velocity": 61}, {"time": 3729, "pitch": 51, "duration": 38, "velocity": 72}, {"time": 3729, "pitch": 75, "duration": 12, "velocity": 64}, {"time": 3729, "pitch": 80, "duration": 11, "velocity": 70}, {"time": 3735, "pitch": 58, "duration": 25, "velocity": 51}, {"time": 3741, "pitch": 63, "duration": 8, "velocity": 61}, {"time": 3747, "pitch": 70, "duration": 4, "velocity": 63}, {"time": 3747, "pitch": 75, "duration": 8, "velocity": 75}, {"time": 3753, "pitch": 63, "duration": 8, "velocity": 41}, {"time": 3759, "pitch": 68, "duration": 2, "velocity": 70}, {"time": 3759, "pitch": 73, "duration": 4, "velocity": 72}, {"time": 3765, "pitch": 58, "duration": 3, "velocity": 70}, {"time": 3765, "pitch": 68, "duration": 1, "velocity": 49}, {"time": 3765, "pitch": 70, "duration": 3, "velocity": 45}, {"time": 3765, "pitch": 75, "duration": 10, "velocity": 56}, {"time": 3771, "pitch": 49, "duration": 2, "velocity": 73}, {"time": 3777, "pitch": 47, "duration": 44, "velocity": 73}, {"time": 3777, "pitch": 70, "duration": 7, "velocity": 59}, {"time": 3777, "pitch": 75, "duration": 6, "velocity": 62}, {"time": 3783, "pitch": 54, "duration": 35, "velocity": 62}, {"time": 3789, "pitch": 59, "duration": 8, "velocity": 67}, {"time": 3795, "pitch": 63, "duration": 7, "velocity": 64}, {"time": 3795, "pitch": 66, "duration": 7, "velocity": 63}, {"time": 3795, "pitch": 70, "duration": 10, "velocity": 69}, {"time": 3801, "pitch": 59, "duration": 8, "velocity": 58}, {"time": 3807, "pitch": 61, "duration": 3, "velocity": 64}, {"time": 3807, "pitch": 68, "duration": 6, "velocity": 70}, {"time": 3813, "pitch": 59, "duration": 3, "velocity": 67}, {"time": 3813, "pitch": 63, "duration": 4, "velocity": 61}, {"time": 3813, "pitch": 66, "duration": 4, "velocity": 55}, {"time": 3813, "pitch": 70, "duration": 6, "velocity": 69}, {"time": 3819, "pitch": 54, "duration": 2, "velocity": 46}, {"time": 3819, "pitch": 59, "duration": 2, "velocity": 63}, {"time": 3819, "pitch": 70, "duration": 2, "velocity": 48}, {"time": 3825, "pitch": 46, "duration": 44, "velocity": 76}, {"time": 3825, "pitch": 61, "duration": 8, "velocity": 60}, {"time": 3825, "pitch": 65, "duration": 8, "velocity": 66}, {"time": 3825, "pitch": 68, "duration": 8, "velocity": 63}, {"time": 3831, "pitch": 58, "duration": 20, "velocity": 54}, {"time": 3837, "pitch": 61, "duration": 4, "velocity": 67}, {"time": 3843, "pitch": 61, "duration": 13, "velocity": 60}, {"time": 3843, "pitch": 65, "duration": 13, "velocity": 66}, {"time": 3843, "pitch": 68, "duration": 13, "velocity": 62}, {"time": 3855, "pitch": 58, "duration": 7, "velocity": 45}, {"time": 3861, "pitch": 61, "duration": 4, "velocity": 59}, {"time": 3861, "pitch": 65, "duration": 3, "velocity": 54}, {"time": 3861, "pitch": 68, "duration": 5, "velocity": 67}, {"time": 3867, "pitch": 58, "duration": 2, "velocity": 69}, {"time": 3873, "pitch": 44, "duration": 6, "velocity": 70}, {"time": 3873, "pitch": 63, "duration": 18, "velocity": 62}, {"time": 3873, "pitch": 66, "duration": 18, "velocity": 69}, {"time": 3873, "pitch": 71, "duration": 20, "velocity": 69}, {"time": 3879, "pitch": 56, "duration": 9, "velocity": 50}, {"time": 3885, "pitch": 58, "duration": 27, "velocity": 59}, {"time": 3891, "pitch": 59, "duration": 13, "velocity": 63}, {"time": 3897, "pitch": 63, "duration": 8, "velocity": 64}, {"time": 3903, "pitch": 68, "duration": 6, "velocity": 73}, {"time": 3909, "pitch": 59, "duration": 3, "velocity": 70}, {"time": 3909, "pitch": 70, "duration": 5, "velocity": 63}, {"time": 3915, "pitch": 71, "duration": 4, "velocity": 70}, {"time": 3921, "pitch": 44, "duration": 9, "velocity": 72}, {"time": 3921, "pitch": 63, "duration": 9, "velocity": 58}, {"time": 3921, "pitch": 68, "duration": 9, "velocity": 72}, {"time": 3927, "pitch": 51, "duration": 6, "velocity": 66}, {"time": 3927, "pitch": 70, "duration": 8, "velocity": 66}, {"time": 3933, "pitch": 56, "duration": 7, "velocity": 62}, {"time": 3933, "pitch": 63, "duration": 14, "velocity": 57}, {"time": 3933, "pitch": 68, "duration": 7, "velocity": 69}, {"time": 3939, "pitch": 58, "duration": 20, "velocity": 60}, {"time": 3939, "pitch": 66, "duration": 8, "velocity": 66}, {"time": 3945, "pitch": 59, "duration": 9, "velocity": 62}, {"time": 3951, "pitch": 63, "duration": 5, "velocity": 56}, {"time": 3957, "pitch": 59, "duration": 2, "velocity": 63}, {"time": 3957, "pitch": 63, "duration": 2, "velocity": 43}, {"time": 3957, "pitch": 66, "duration": 4, "velocity": 73}, {"time": 3963, "pitch": 68, "duration": 6, "velocity": 63}, {"time": 3969, "pitch": 42, "duration": 37, "velocity": 72}, {"time": 3969, "pitch": 54, "duration": 37, "velocity": 67}, {"time": 3969, "pitch": 61, "duration": 38, "velocity": 66}, {"time": 3969, "pitch": 66, "duration": 37, "velocity": 70}, {"time": 3969, "pitch": 70, "duration": 40, "velocity": 67}, {"time": 4017, "pitch": 46, "duration": 57, "velocity": 59}, {"time": 4017, "pitch": 58, "duration": 55, "velocity": 62}, {"time": 4017, "pitch": 61, "duration": 60, "velocity": 63}, {"time": 4017, "pitch": 65, "duration": 58, "velocity": 69}, {"time": 4017, "pitch": 68, "duration": 63, "velocity": 64}, {"time": 4086, "pitch": 51, "duration": 57, "velocity": 70}, {"time": 4086, "pitch": 63, "duration": 54, "velocity": 57}, {"time": 4086, "pitch": 66, "duration": 57, "velocity": 63}, {"time": 4086, "pitch": 70, "duration": 66, "velocity": 57}, {"time": 4137, "pitch": 51, "duration": 6, "velocity": 63}, {"time": 4137, "pitch": 63, "duration": 3, "velocity": 60}, {"time": 4137, "pitch": 66, "duration": 6, "velocity": 62}, {"time": 4143, "pitch": 53, "duration": 7, "velocity": 53}, {"time": 4143, "pitch": 65, "duration": 5, "velocity": 64}, {"time": 4143, "pitch": 68, "duration": 6, "velocity": 66}, {"time": 4149, "pitch": 54, "duration": 3, "velocity": 76}, {"time": 4149, "pitch": 66, "duration": 3, "velocity": 69}, {"time": 4149, "pitch": 70, "duration": 3, "velocity": 67}, {"time": 4161, "pitch": 47, "duration": 41, "velocity": 67}, {"time": 4161, "pitch": 54, "duration": 40, "velocity": 67}, {"time": 4161, "pitch": 59, "duration": 11, "velocity": 67}, {"time": 4161, "pitch": 63, "duration": 9, "velocity": 58}, {"time": 4161, "pitch": 66, "duration": 9, "velocity": 61}, {"time": 4161, "pitch": 70, "duration": 9, "velocity": 58}, {"time": 4161, "pitch": 73, "duration": 10, "velocity": 61}, {"time": 4173, "pitch": 59, "duration": 18, "velocity": 48}, {"time": 4179, "pitch": 66, "duration": 18, "velocity": 54}, {"time": 4179, "pitch": 70, "duration": 16, "velocity": 47}, {"time": 4179, "pitch": 75, "duration": 18, "velocity": 48}, {"time": 4197, "pitch": 59, "duration": 5, "velocity": 56}, {"time": 4209, "pitch": 47, "duration": 42, "velocity": 66}, {"time": 4209, "pitch": 59, "duration": 43, "velocity": 69}, {"time": 4209, "pitch": 61, "duration": 7, "velocity": 57}, {"time": 4209, "pitch": 65, "duration": 8, "velocity": 61}, {"time": 4209, "pitch": 68, "duration": 8, "velocity": 57}, {"time": 4209, "pitch": 73, "duration": 9, "velocity": 57}, {"time": 4239, "pitch": 73, "duration": 6, "velocity": 49}, {"time": 4239, "pitch": 77, "duration": 5, "velocity": 50}, {"time": 4239, "pitch": 80, "duration": 5, "velocity": 52}, {"time": 4239, "pitch": 85, "duration": 5, "velocity": 45}, {"time": 4257, "pitch": 49, "duration": 43, "velocity": 61}, {"time": 4257, "pitch": 61, "duration": 6, "velocity": 51}, {"time": 4257, "pitch": 65, "duration": 10, "velocity": 64}, {"time": 4257, "pitch": 68, "duration": 11, "velocity": 62}, {"time": 4263, "pitch": 56, "duration": 34, "velocity": 49}, {"time": 4269, "pitch": 61, "duration": 10, "velocity": 49}, {"time": 4275, "pitch": 63, "duration": 11, "velocity": 47}, {"time": 4275, "pitch": 65, "duration": 11, "velocity": 54}, {"time": 4275, "pitch": 68, "duration": 11, "velocity": 50}, {"time": 4275, "pitch": 73, "duration": 13, "velocity": 52}, {"time": 4287, "pitch": 61, "duration": 8, "velocity": 33}, {"time": 4293, "pitch": 63, "duration": 4, "velocity": 48}, {"time": 4299, "pitch": 65, "duration": 7, "velocity": 50}, {"time": 4305, "pitch": 49, "duration": 38, "velocity": 64}, {"time": 4311, "pitch": 56, "duration": 12, "velocity": 59}, {"time": 4317, "pitch": 61, "duration": 7, "velocity": 59}, {"time": 4323, "pitch": 68, "duration": 7, "velocity": 56}, {"time": 4329, "pitch": 56, "duration": 14, "velocity": 59}, {"time": 4329, "pitch": 61, "duration": 14, "velocity": 52}, {"time": 4329, "pitch": 66, "duration": 16, "velocity": 64}, {"time": 4353, "pitch": 47, "duration": 40, "velocity": 63}, {"time": 4353, "pitch": 63, "duration": 10, "velocity": 47}, {"time": 4353, "pitch": 66, "duration": 11, "velocity": 48}, {"time": 4353, "pitch": 70, "duration": 12, "velocity": 45}, {"time": 4359, "pitch": 54, "duration": 34, "velocity": 43}, {"time": 4365, "pitch": 59, "duration": 19, "velocity": 50}, {"time": 4371, "pitch": 63, "duration": 9, "velocity": 49}, {"time": 4371, "pitch": 66, "duration": 10, "velocity": 49}, {"time": 4383, "pitch": 65, "duration": 6, "velocity": 50}, {"time": 4383, "pitch": 68, "duration": 7, "velocity": 61}, {"time": 4389, "pitch": 59, "duration": 4, "velocity": 49}, {"time": 4392, "pitch": 63, "duration": 2, "velocity": 56}, {"time": 4392, "pitch": 66, "duration": 2, "velocity": 64}, {"time": 4392, "pitch": 70, "duration": 3, "velocity": 63}, {"time": 4401, "pitch": 47, "duration": 40, "velocity": 61}, {"time": 4401, "pitch": 59, "duration": 14, "velocity": 58}, {"time": 4401, "pitch": 61, "duration": 14, "velocity": 57}, {"time": 4401, "pitch": 65, "duration": 20, "velocity": 56}, {"time": 4401, "pitch": 68, "duration": 20, "velocity": 57}, {"time": 4419, "pitch": 59, "duration": 19, "velocity": 44}, {"time": 4437, "pitch": 61, "duration": 4, "velocity": 46}, {"time": 4437, "pitch": 65, "duration": 5, "velocity": 44}, {"time": 4437, "pitch": 68, "duration": 5, "velocity": 49}, {"time": 4449, "pitch": 49, "duration": 43, "velocity": 73}, {"time": 4449, "pitch": 63, "duration": 11, "velocity": 60}, {"time": 4449, "pitch": 65, "duration": 11, "velocity": 61}, {"time": 4449, "pitch": 68, "duration": 13, "velocity": 64}, {"time": 4455, "pitch": 56, "duration": 36, "velocity": 49}, {"time": 4461, "pitch": 61, "duration": 15, "velocity": 49}, {"time": 4467, "pitch": 63, "duration": 13, "velocity": 50}, {"time": 4467, "pitch": 65, "duration": 13, "velocity": 54}, {"time": 4467, "pitch": 68, "duration": 14, "velocity": 50}, {"time": 4479, "pitch": 61, "duration": 11, "velocity": 45}, {"time": 4485, "pitch": 63, "duration": 5, "velocity": 49}, {"time": 4491, "pitch": 65, "duration": 5, "velocity": 52}, {"time": 4497, "pitch": 49, "duration": 36, "velocity": 66}, {"time": 4497, "pitch": 63, "duration": 16, "velocity": 52}, {"time": 4497, "pitch": 65, "duration": 16, "velocity": 44}, {"time": 4497, "pitch": 68, "duration": 18, "velocity": 55}, {"time": 4515, "pitch": 61, "duration": 11, "velocity": 36}, {"time": 4521, "pitch": 63, "duration": 9, "velocity": 44}, {"time": 4521, "pitch": 65, "duration": 13, "velocity": 46}, {"time": 4521, "pitch": 68, "duration": 14, "velocity": 42}, {"time": 4533, "pitch": 56, "duration": 3, "velocity": 17}, {"time": 4545, "pitch": 51, "duration": 41, "velocity": 54}, {"time": 4545, "pitch": 58, "duration": 40, "velocity": 56}, {"time": 4545, "pitch": 66, "duration": 15, "velocity": 66}, {"time": 4545, "pitch": 70, "duration": 15, "velocity": 59}, {"time": 4563, "pitch": 63, "duration": 11, "velocity": 42}, {"time": 4563, "pitch": 65, "duration": 18, "velocity": 52}, {"time": 4563, "pitch": 66, "duration": 17, "velocity": 53}, {"time": 4563, "pitch": 70, "duration": 19, "velocity": 49}, {"time": 4581, "pitch": 63, "duration": 3, "velocity": 55}, {"time": 4593, "pitch": 44, "duration": 44, "velocity": 69}, {"time": 4593, "pitch": 56, "duration": 23, "velocity": 63}, {"time": 4593, "pitch": 63, "duration": 27, "velocity": 58}, {"time": 4593, "pitch": 66, "duration": 25, "velocity": 69}, {"time": 4593, "pitch": 68, "duration": 29, "velocity": 63}, {"time": 4593, "pitch": 71, "duration": 40, "velocity": 62}, {"time": 4620, "pitch": 56, "duration": 10, "velocity": 17}, {"time": 4629, "pitch": 63, "duration": 6, "velocity": 47}, {"time": 4629, "pitch": 68, "duration": 7, "velocity": 45}, {"time": 4635, "pitch": 56, "duration": 4, "velocity": 57}, {"time": 4641, "pitch": 44, "duration": 37, "velocity": 66}, {"time": 4641, "pitch": 56, "duration": 3, "velocity": 46}, {"time": 4641, "pitch": 63, "duration": 30, "velocity": 57}, {"time": 4641, "pitch": 66, "duration": 28, "velocity": 60}, {"time": 4641, "pitch": 68, "duration": 30, "velocity": 63}, {"time": 4641, "pitch": 71, "duration": 34, "velocity": 61}, {"time": 4671, "pitch": 56, "duration": 10, "velocity": 50}, {"time": 4677, "pitch": 63, "duration": 7, "velocity": 67}, {"time": 4677, "pitch": 68, "duration": 13, "velocity": 72}, {"time": 4677, "pitch": 71, "duration": 2, "velocity": 40}, {"time": 4689, "pitch": 51, "duration": 43, "velocity": 70}, {"time": 4689, "pitch": 66, "duration": 19, "velocity": 63}, {"time": 4689, "pitch": 70, "duration": 14, "velocity": 64}, {"time": 4695, "pitch": 58, "duration": 31, "velocity": 29}, {"time": 4713, "pitch": 65, "duration": 7, "velocity": 37}, {"time": 4713, "pitch": 68, "duration": 9, "velocity": 43}, {"time": 4719, "pitch": 63, "duration": 7, "velocity": 50}, {"time": 4725, "pitch": 66, "duration": 6, "velocity": 73}, {"time": 4725, "pitch": 70, "duration": 5, "velocity": 70}, {"time": 4731, "pitch": 58, "duration": 4, "velocity": 61}, {"time": 4737, "pitch": 51, "duration": 39, "velocity": 66}, {"time": 4737, "pitch": 63, "duration": 19, "velocity": 64}, {"time": 4737, "pitch": 66, "duration": 29, "velocity": 67}, {"time": 4737, "pitch": 70, "duration": 28, "velocity": 61}, {"time": 4767, "pitch": 63, "duration": 6, "velocity": 46}, {"time": 4773, "pitch": 63, "duration": 3, "velocity": 75}, {"time": 4773, "pitch": 66, "duration": 3, "velocity": 80}, {"time": 4773, "pitch": 70, "duration": 3, "velocity": 75}, {"time": 4785, "pitch": 46, "duration": 43, "velocity": 72}, {"time": 4785, "pitch": 58, "duration": 3, "velocity": 60}, {"time": 4785, "pitch": 61, "duration": 11, "velocity": 69}, {"time": 4785, "pitch": 65, "duration": 29, "velocity": 73}, {"time": 4785, "pitch": 68, "duration": 29, "velocity": 70}, {"time": 4815, "pitch": 58, "duration": 7, "velocity": 40}, {"time": 4821, "pitch": 61, "duration": 3, "velocity": 72}, {"time": 4821, "pitch": 65, "duration": 3, "velocity": 66}, {"time": 4821, "pitch": 68, "duration": 5, "velocity": 69}, {"time": 4827, "pitch": 58, "duration": 2, "velocity": 58}, {"time": 4833, "pitch": 44, "duration": 39, "velocity": 64}, {"time": 4833, "pitch": 56, "duration": 21, "velocity": 58}, {"time": 4833, "pitch": 63, "duration": 19, "velocity": 66}, {"time": 4833, "pitch": 66, "duration": 30, "velocity": 70}, {"time": 4833, "pitch": 71, "duration": 33, "velocity": 73}, {"time": 4863, "pitch": 56, "duration": 9, "velocity": 48}, {"time": 4869, "pitch": 63, "duration": 5, "velocity": 62}, {"time": 4869, "pitch": 66, "duration": 5, "velocity": 70}, {"time": 4869, "pitch": 71, "duration": 5, "velocity": 62}, {"time": 4881, "pitch": 46, "duration": 37, "velocity": 72}, {"time": 4881, "pitch": 61, "duration": 10, "velocity": 70}, {"time": 4881, "pitch": 65, "duration": 12, "velocity": 72}, {"time": 4881, "pitch": 68, "duration": 12, "velocity": 69}, {"time": 4893, "pitch": 58, "duration": 15, "velocity": 44}, {"time": 4899, "pitch": 61, "duration": 13, "velocity": 56}, {"time": 4899, "pitch": 65, "duration": 13, "velocity": 56}, {"time": 4899, "pitch": 68, "duration": 13, "velocity": 56}, {"time": 4911, "pitch": 58, "duration": 7, "velocity": 46}, {"time": 4917, "pitch": 61, "duration": 4, "velocity": 70}, {"time": 4917, "pitch": 65, "duration": 4, "velocity": 69}, {"time": 4917, "pitch": 68, "duration": 5, "velocity": 70}, {"time": 4929, "pitch": 47, "duration": 39, "velocity": 75}, {"time": 4929, "pitch": 59, "duration": 25, "velocity": 76}, {"time": 4929, "pitch": 63, "duration": 31, "velocity": 69}, {"time": 4929, "pitch": 66, "duration": 32, "velocity": 72}, {"time": 4929, "pitch": 70, "duration": 32, "velocity": 66}, {"time": 4959, "pitch": 59, "duration": 10, "velocity": 46}, {"time": 4965, "pitch": 63, "duration": 6, "velocity": 66}, {"time": 4965, "pitch": 68, "duration": 7, "velocity": 70}, {"time": 4971, "pitch": 70, "duration": 3, "velocity": 56}, {"time": 4977, "pitch": 51, "duration": 39, "velocity": 67}, {"time": 4977, "pitch": 63, "duration": 28, "velocity": 35}, {"time": 4977, "pitch": 66, "duration": 30, "velocity": 73}, {"time": 4977, "pitch": 70, "duration": 29, "velocity": 64}, {"time": 5007, "pitch": 63, "duration": 8, "velocity": 44}, {"time": 5013, "pitch": 66, "duration": 5, "velocity": 73}, {"time": 5013, "pitch": 70, "duration": 5, "velocity": 72}, {"time": 5019, "pitch": 51, "duration": 1, "velocity": 52}, {"time": 5025, "pitch": 44, "duration": 42, "velocity": 66}, {"time": 5025, "pitch": 63, "duration": 29, "velocity": 63}, {"time": 5025, "pitch": 68, "duration": 15, "velocity": 63}, {"time": 5025, "pitch": 71, "duration": 31, "velocity": 70}, {"time": 5055, "pitch": 56, "duration": 7, "velocity": 44}, {"time": 5061, "pitch": 63, "duration": 5, "velocity": 62}, {"time": 5061, "pitch": 66, "duration": 5, "velocity": 69}, {"time": 5061, "pitch": 68, "duration": 5, "velocity": 55}, {"time": 5061, "pitch": 71, "duration": 5, "velocity": 56}, {"time": 5067, "pitch": 56, "duration": 2, "velocity": 64}, {"time": 5073, "pitch": 46, "duration": 42, "velocity": 73}, {"time": 5073, "pitch": 61, "duration": 10, "velocity": 66}, {"time": 5073, "pitch": 65, "duration": 11, "velocity": 69}, {"time": 5073, "pitch": 70, "duration": 8, "velocity": 66}, {"time": 5079, "pitch": 58, "duration": 21, "velocity": 41}, {"time": 5085, "pitch": 61, "duration": 19, "velocity": 44}, {"time": 5091, "pitch": 65, "duration": 13, "velocity": 61}, {"time": 5091, "pitch": 70, "duration": 14, "velocity": 54}, {"time": 5103, "pitch": 58, "duration": 8, "velocity": 30}, {"time": 5109, "pitch": 61, "duration": 3, "velocity": 59}, {"time": 5115, "pitch": 58, "duration": 2, "velocity": 63}, {"time": 5121, "pitch": 51, "duration": 37, "velocity": 60}, {"time": 5121, "pitch": 63, "duration": 35, "velocity": 58}, {"time": 5121, "pitch": 66, "duration": 17, "velocity": 63}, {"time": 5121, "pitch": 70, "duration": 17, "velocity": 66}, {"time": 5121, "pitch": 75, "duration": 17, "velocity": 66}, {"time": 5145, "pitch": 66, "duration": 12, "velocity": 44}, {"time": 5145, "pitch": 70, "duration": 11, "velocity": 50}, {"time": 5145, "pitch": 75, "duration": 10, "velocity": 45}, {"time": 5169, "pitch": 51, "duration": 16, "velocity": 70}, {"time": 5169, "pitch": 63, "duration": 15, "velocity": 49}, {"time": 5169, "pitch": 66, "duration": 15, "velocity": 60}, {"time": 5169, "pitch": 70, "duration": 15, "velocity": 63}, {"time": 5169, "pitch": 75, "duration": 14, "velocity": 61}, {"time": 5193, "pitch": 49, "duration": 15, "velocity": 66}, {"time": 5193, "pitch": 61, "duration": 13, "velocity": 51}, {"time": 5193, "pitch": 65, "duration": 15, "velocity": 62}, {"time": 5193, "pitch": 68, "duration": 15, "velocity": 69}, {"time": 5193, "pitch": 73, "duration": 15, "velocity": 64}, {"time": 5217, "pitch": 44, "duration": 38, "velocity": 64}, {"time": 5217, "pitch": 63, "duration": 9, "velocity": 67}, {"time": 5217, "pitch": 68, "duration": 9, "velocity": 66}, {"time": 5217, "pitch": 71, "duration": 12, "velocity": 69}, {"time": 5223, "pitch": 56, "duration": 34, "velocity": 48}, {"time": 5229, "pitch": 63, "duration": 27, "velocity": 40}, {"time": 5235, "pitch": 68, "duration": 19, "velocity": 50}, {"time": 5235, "pitch": 71, "duration": 20, "velocity": 55}, {"time": 5265, "pitch": 46, "duration": 33, "velocity": 67}, {"time": 5265, "pitch": 58, "duration": 36, "velocity": 67}, {"time": 5265, "pitch": 61, "duration": 20, "velocity": 63}, {"time": 5265, "pitch": 65, "duration": 16, "velocity": 62}, {"time": 5265, "pitch": 70, "duration": 16, "velocity": 57}, {"time": 5289, "pitch": 61, "duration": 11, "velocity": 58}, {"time": 5289, "pitch": 65, "duration": 11, "velocity": 61}, {"time": 5289, "pitch": 70, "duration": 12, "velocity": 56}, {"time": 5313, "pitch": 51, "duration": 46, "velocity": 58}, {"time": 5313, "pitch": 66, "duration": 18, "velocity": 62}, {"time": 5313, "pitch": 70, "duration": 17, "velocity": 61}, {"time": 5313, "pitch": 75, "duration": 18, "velocity": 64}, {"time": 5337, "pitch": 66, "duration": 18, "velocity": 44}, {"time": 5337, "pitch": 70, "duration": 17, "velocity": 55}, {"time": 5337, "pitch": 75, "duration": 17, "velocity": 45}, {"time": 5361, "pitch": 51, "duration": 33, "velocity": 41}, {"time": 5361, "pitch": 63, "duration": 33, "velocity": 51}, {"time": 5361, "pitch": 66, "duration": 18, "velocity": 50}, {"time": 5361, "pitch": 70, "duration": 17, "velocity": 58}, {"time": 5361, "pitch": 75, "duration": 18, "velocity": 49}, {"time": 5385, "pitch": 66, "duration": 13, "velocity": 56}, {"time": 5385, "pitch": 70, "duration": 12, "velocity": 66}, {"time": 5385, "pitch": 75, "duration": 12, "velocity": 59}, {"time": 5397, "pitch": 51, "duration": 3, "velocity": 72}, {"time": 5397, "pitch": 63, "duration": 2, "velocity": 51}, {"time": 5409, "pitch": 46, "duration": 15, "velocity": 63}, {"time": 5409, "pitch": 58, "duration": 17, "velocity": 56}, {"time": 5409, "pitch": 61, "duration": 15, "velocity": 61}, {"time": 5409, "pitch": 65, "duration": 15, "velocity": 42}, {"time": 5409, "pitch": 68, "duration": 16, "velocity": 53}, {"time": 5433, "pitch": 44, "duration": 12, "velocity": 62}, {"time": 5433, "pitch": 56, "duration": 14, "velocity": 60}, {"time": 5433, "pitch": 63, "duration": 16, "velocity": 59}, {"time": 5433, "pitch": 68, "duration": 14, "velocity": 59}, {"time": 5433, "pitch": 71, "duration": 14, "velocity": 59}, {"time": 5457, "pitch": 51, "duration": 88, "velocity": 60}, {"time": 5457, "pitch": 66, "duration": 20, "velocity": 69}, {"time": 5457, "pitch": 70, "duration": 21, "velocity": 60}, {"time": 5481, "pitch": 63, "duration": 18, "velocity": 42}, {"time": 5481, "pitch": 65, "duration": 15, "velocity": 49}, {"time": 5481, "pitch": 68, "duration": 14, "velocity": 49}, {"time": 5493, "pitch": 66, "duration": 9, "velocity": 57}, {"time": 5493, "pitch": 70, "duration": 10, "velocity": 52}, {"time": 5505, "pitch": 63, "duration": 40, "velocity": 32}, {"time": 5505, "pitch": 75, "duration": 39, "velocity": 66}, {"time": 5517, "pitch": 66, "duration": 24, "velocity": 1}, {"time": 5553, "pitch": 44, "duration": 42, "velocity": 78}, {"time": 5553, "pitch": 63, "duration": 9, "velocity": 69}, {"time": 5553, "pitch": 66, "duration": 10, "velocity": 80}, {"time": 5553, "pitch": 71, "duration": 11, "velocity": 78}, {"time": 5559, "pitch": 56, "duration": 16, "velocity": 39}, {"time": 5565, "pitch": 63, "duration": 3, "velocity": 56}, {"time": 5571, "pitch": 63, "duration": 7, "velocity": 73}, {"time": 5571, "pitch": 66, "duration": 6, "velocity": 76}, {"time": 5571, "pitch": 71, "duration": 6, "velocity": 69}, {"time": 5577, "pitch": 56, "duration": 5, "velocity": 55}, {"time": 5583, "pitch": 63, "duration": 3, "velocity": 80}, {"time": 5583, "pitch": 66, "duration": 7, "velocity": 80}, {"time": 5583, "pitch": 70, "duration": 6, "velocity": 78}, {"time": 5589, "pitch": 56, "duration": 3, "velocity": 44}, {"time": 5592, "pitch": 63, "duration": 2, "velocity": 70}, {"time": 5592, "pitch": 66, "duration": 2, "velocity": 76}, {"time": 5592, "pitch": 71, "duration": 3, "velocity": 76}, {"time": 5595, "pitch": 56, "duration": 2, "velocity": 62}, {"time": 5601, "pitch": 51, "duration": 37, "velocity": 70}, {"time": 5601, "pitch": 66, "duration": 7, "velocity": 76}, {"time": 5601, "pitch": 70, "duration": 7, "velocity": 75}, {"time": 5607, "pitch": 58, "duration": 31, "velocity": 32}, {"time": 5613, "pitch": 65, "duration": 4, "velocity": 76}, {"time": 5613, "pitch": 68, "duration": 5, "velocity": 76}, {"time": 5619, "pitch": 66, "duration": 2, "velocity": 78}, {"time": 5619, "pitch": 70, "duration": 3, "velocity": 80}, {"time": 5628, "pitch": 63, "duration": 6, "velocity": 66}, {"time": 5631, "pitch": 66, "duration": 4, "velocity": 72}, {"time": 5634, "pitch": 68, "duration": 4, "velocity": 66}, {"time": 5637, "pitch": 70, "duration": 4, "velocity": 66}, {"time": 5640, "pitch": 73, "duration": 6, "velocity": 75}, {"time": 5649, "pitch": 47, "duration": 44, "velocity": 75}, {"time": 5649, "pitch": 63, "duration": 8, "velocity": 76}, {"time": 5649, "pitch": 66, "duration": 8, "velocity": 73}, {"time": 5649, "pitch": 71, "duration": 8, "velocity": 72}, {"time": 5655, "pitch": 54, "duration": 21, "velocity": 49}, {"time": 5658, "pitch": 59, "duration": 18, "velocity": 72}, {"time": 5667, "pitch": 63, "duration": 5, "velocity": 69}, {"time": 5667, "pitch": 66, "duration": 4, "velocity": 69}, {"time": 5667, "pitch": 71, "duration": 4, "velocity": 72}, {"time": 5676, "pitch": 61, "duration": 2, "velocity": 76}, {"time": 5676, "pitch": 66, "duration": 2, "velocity": 72}, {"time": 5676, "pitch": 70, "duration": 2, "velocity": 76}, {"time": 5682, "pitch": 59, "duration": 5, "velocity": 57}, {"time": 5685, "pitch": 54, "duration": 2, "velocity": 11}, {"time": 5685, "pitch": 63, "duration": 4, "velocity": 73}, {"time": 5685, "pitch": 66, "duration": 4, "velocity": 76}, {"time": 5685, "pitch": 71, "duration": 4, "velocity": 76}, {"time": 5691, "pitch": 54, "duration": 1, "velocity": 52}, {"time": 5697, "pitch": 46, "duration": 39, "velocity": 82}, {"time": 5697, "pitch": 61, "duration": 7, "velocity": 72}, {"time": 5697, "pitch": 65, "duration": 8, "velocity": 75}, {"time": 5697, "pitch": 70, "duration": 7, "velocity": 72}, {"time": 5703, "pitch": 58, "duration": 15, "velocity": 47}, {"time": 5709, "pitch": 61, "duration": 6, "velocity": 66}, {"time": 5715, "pitch": 61, "duration": 13, "velocity": 61}, {"time": 5715, "pitch": 65, "duration": 13, "velocity": 80}, {"time": 5715, "pitch": 70, "duration": 13, "velocity": 72}, {"time": 5727, "pitch": 58, "duration": 7, "velocity": 69}, {"time": 5733, "pitch": 61, "duration": 4, "velocity": 75}, {"time": 5733, "pitch": 65, "duration": 4, "velocity": 75}, {"time": 5733, "pitch": 70, "duration": 4, "velocity": 78}, {"time": 5739, "pitch": 46, "duration": 3, "velocity": 63}, {"time": 5739, "pitch": 58, "duration": 1, "velocity": 47}, {"time": 5745, "pitch": 44, "duration": 7, "velocity": 76}, {"time": 5745, "pitch": 63, "duration": 20, "velocity": 61}, {"time": 5745, "pitch": 68, "duration": 19, "velocity": 73}, {"time": 5745, "pitch": 71, "duration": 19, "velocity": 76}, {"time": 5751, "pitch": 56, "duration": 7, "velocity": 61}, {"time": 5757, "pitch": 58, "duration": 29, "velocity": 61}, {"time": 5763, "pitch": 59, "duration": 15, "velocity": 67}, {"time": 5769, "pitch": 63, "duration": 10, "velocity": 57}, {"time": 5775, "pitch": 68, "duration": 4, "velocity": 66}, {"time": 5781, "pitch": 63, "duration": 4, "velocity": 66}, {"time": 5781, "pitch": 70, "duration": 4, "velocity": 66}, {"time": 5787, "pitch": 59, "duration": 2, "velocity": 72}, {"time": 5793, "pitch": 44, "duration": 39, "velocity": 76}, {"time": 5793, "pitch": 63, "duration": 8, "velocity": 72}, {"time": 5793, "pitch": 68, "duration": 9, "velocity": 69}, {"time": 5793, "pitch": 71, "duration": 7, "velocity": 76}, {"time": 5799, "pitch": 56, "duration": 15, "velocity": 55}, {"time": 5805, "pitch": 63, "duration": 4, "velocity": 61}, {"time": 5805, "pitch": 71, "duration": 4, "velocity": 78}, {"time": 5811, "pitch": 63, "duration": 6, "velocity": 70}, {"time": 5811, "pitch": 70, "duration": 9, "velocity": 70}, {"time": 5817, "pitch": 56, "duration": 6, "velocity": 47}, {"time": 5823, "pitch": 63, "duration": 8, "velocity": 73}, {"time": 5823, "pitch": 68, "duration": 11, "velocity": 75}, {"time": 5829, "pitch": 56, "duration": 4, "velocity": 55}, {"time": 5835, "pitch": 63, "duration": 2, "velocity": 48}, {"time": 5841, "pitch": 47, "duration": 42, "velocity": 76}, {"time": 5841, "pitch": 63, "duration": 11, "velocity": 66}, {"time": 5841, "pitch": 66, "duration": 11, "velocity": 70}, {"time": 5841, "pitch": 71, "duration": 12, "velocity": 69}, {"time": 5847, "pitch": 54, "duration": 36, "velocity": 60}, {"time": 5853, "pitch": 59, "duration": 20, "velocity": 76}, {"time": 5859, "pitch": 63, "duration": 4, "velocity": 58}, {"time": 5859, "pitch": 71, "duration": 4, "velocity": 60}, {"time": 5865, "pitch": 63, "duration": 3, "velocity": 66}, {"time": 5865, "pitch": 70, "duration": 3, "velocity": 69}, {"time": 5871, "pitch": 63, "duration": 7, "velocity": 58}, {"time": 5871, "pitch": 71, "duration": 8, "velocity": 66}, {"time": 5877, "pitch": 59, "duration": 6, "velocity": 62}, {"time": 5883, "pitch": 63, "duration": 2, "velocity": 62}, {"time": 5883, "pitch": 75, "duration": 3, "velocity": 67}, {"time": 5889, "pitch": 46, "duration": 43, "velocity": 73}, {"time": 5889, "pitch": 61, "duration": 8, "velocity": 63}, {"time": 5889, "pitch": 65, "duration": 7, "velocity": 64}, {"time": 5889, "pitch": 68, "duration": 8, "velocity": 72}, {"time": 5895, "pitch": 58, "duration": 14, "velocity": 59}, {"time": 5901, "pitch": 61, "duration": 4, "velocity": 58}, {"time": 5907, "pitch": 61, "duration": 2, "velocity": 51}, {"time": 5907, "pitch": 65, "duration": 7, "velocity": 59}, {"time": 5913, "pitch": 58, "duration": 14, "velocity": 64}, {"time": 5913, "pitch": 68, "duration": 4, "velocity": 64}, {"time": 5919, "pitch": 61, "duration": 3, "velocity": 66}, {"time": 5919, "pitch": 65, "duration": 2, "velocity": 51}, {"time": 5919, "pitch": 73, "duration": 3, "velocity": 63}, {"time": 5925, "pitch": 61, "duration": 4, "velocity": 52}, {"time": 5925, "pitch": 65, "duration": 3, "velocity": 64}, {"time": 5925, "pitch": 75, "duration": 4, "velocity": 67}, {"time": 5931, "pitch": 58, "duration": 2, "velocity": 55}, {"time": 5931, "pitch": 61, "duration": 2, "velocity": 59}, {"time": 5931, "pitch": 71, "duration": 3, "velocity": 59}, {"time": 5937, "pitch": 44, "duration": 7, "velocity": 70}, {"time": 5937, "pitch": 63, "duration": 8, "velocity": 67}, {"time": 5937, "pitch": 68, "duration": 9, "velocity": 73}, {"time": 5937, "pitch": 72, "duration": 9, "velocity": 73}, {"time": 5943, "pitch": 56, "duration": 7, "velocity": 53}, {"time": 5949, "pitch": 58, "duration": 27, "velocity": 72}, {"time": 5949, "pitch": 63, "duration": 5, "velocity": 55}, {"time": 5949, "pitch": 70, "duration": 9, "velocity": 63}, {"time": 5955, "pitch": 60, "duration": 8, "velocity": 70}, {"time": 5961, "pitch": 63, "duration": 7, "velocity": 73}, {"time": 5961, "pitch": 68, "duration": 7, "velocity": 72}, {"time": 5961, "pitch": 72, "duration": 8, "velocity": 75}, {"time": 5967, "pitch": 60, "duration": 5, "velocity": 53}, {"time": 5973, "pitch": 63, "duration": 5, "velocity": 54}, {"time": 5973, "pitch": 68, "duration": 4, "velocity": 69}, {"time": 5973, "pitch": 75, "duration": 6, "velocity": 73}, {"time": 5979, "pitch": 58, "duration": 2, "velocity": 52}, {"time": 5985, "pitch": 51, "duration": 39, "velocity": 73}, {"time": 5985, "pitch": 66, "duration": 5, "velocity": 73}, {"time": 5985, "pitch": 70, "duration": 5, "velocity": 69}, {"time": 5991, "pitch": 58, "duration": 29, "velocity": 63}, {"time": 5991, "pitch": 65, "duration": 3, "velocity": 61}, {"time": 5991, "pitch": 68, "duration": 5, "velocity": 73}, {"time": 5997, "pitch": 66, "duration": 2, "velocity": 70}, {"time": 5997, "pitch": 70, "duration": 3, "velocity": 70}, {"time": 6003, "pitch": 63, "duration": 8, "velocity": 50}, {"time": 6009, "pitch": 70, "duration": 8, "velocity": 59}, {"time": 6009, "pitch": 78, "duration": 9, "velocity": 66}, {"time": 6015, "pitch": 63, "duration": 6, "velocity": 48}, {"time": 6021, "pitch": 58, "duration": 1, "velocity": 46}, {"time": 6021, "pitch": 70, "duration": 3, "velocity": 73}, {"time": 6021, "pitch": 75, "duration": 4, "velocity": 78}, {"time": 6027, "pitch": 49, "duration": 2, "velocity": 63}, {"time": 6027, "pitch": 68, "duration": 2, "velocity": 46}, {"time": 6027, "pitch": 73, "duration": 5, "velocity": 60}, {"time": 6033, "pitch": 47, "duration": 41, "velocity": 72}, {"time": 6033, "pitch": 63, "duration": 13, "velocity": 63}, {"time": 6033, "pitch": 71, "duration": 12, "velocity": 41}, {"time": 6036, "pitch": 66, "duration": 6, "velocity": 11}, {"time": 6039, "pitch": 54, "duration": 28, "velocity": 67}, {"time": 6045, "pitch": 59, "duration": 20, "velocity": 70}, {"time": 6051, "pitch": 63, "duration": 2, "velocity": 69}, {"time": 6051, "pitch": 66, "duration": 2, "velocity": 66}, {"time": 6051, "pitch": 71, "duration": 4, "velocity": 72}, {"time": 6057, "pitch": 61, "duration": 3, "velocity": 62}, {"time": 6057, "pitch": 70, "duration": 3, "velocity": 69}, {"time": 6063, "pitch": 63, "duration": 5, "velocity": 63}, {"time": 6063, "pitch": 71, "duration": 7, "velocity": 75}, {"time": 6069, "pitch": 54, "duration": 5, "velocity": 34}, {"time": 6069, "pitch": 59, "duration": 5, "velocity": 56}, {"time": 6075, "pitch": 63, "duration": 2, "velocity": 63}, {"time": 6075, "pitch": 66, "duration": 1, "velocity": 54}, {"time": 6075, "pitch": 73, "duration": 3, "velocity": 70}, {"time": 6081, "pitch": 46, "duration": 40, "velocity": 76}, {"time": 6081, "pitch": 61, "duration": 7, "velocity": 63}, {"time": 6081, "pitch": 66, "duration": 6, "velocity": 58}, {"time": 6081, "pitch": 70, "duration": 9, "velocity": 66}, {"time": 6087, "pitch": 58, "duration": 14, "velocity": 60}, {"time": 6093, "pitch": 61, "duration": 5, "velocity": 59}, {"time": 6099, "pitch": 61, "duration": 8, "velocity": 70}, {"time": 6099, "pitch": 65, "duration": 8, "velocity": 73}, {"time": 6099, "pitch": 68, "duration": 8, "velocity": 69}, {"time": 6105, "pitch": 58, "duration": 9, "velocity": 53}, {"time": 6111, "pitch": 61, "duration": 6, "velocity": 58}, {"time": 6111, "pitch": 73, "duration": 7, "velocity": 62}, {"time": 6117, "pitch": 58, "duration": 3, "velocity": 52}, {"time": 6117, "pitch": 68, "duration": 5, "velocity": 64}, {"time": 6123, "pitch": 73, "duration": 5, "velocity": 61}, {"time": 6129, "pitch": 44, "duration": 10, "velocity": 70}, {"time": 6129, "pitch": 63, "duration": 25, "velocity": 59}, {"time": 6129, "pitch": 71, "duration": 25, "velocity": 76}, {"time": 6135, "pitch": 51, "duration": 6, "velocity": 56}, {"time": 6141, "pitch": 56, "duration": 8, "velocity": 69}, {"time": 6147, "pitch": 58, "duration": 15, "velocity": 62}, {"time": 6153, "pitch": 59, "duration": 11, "velocity": 61}, {"time": 6159, "pitch": 63, "duration": 5, "velocity": 62}, {"time": 6165, "pitch": 68, "duration": 5, "velocity": 69}, {"time": 6171, "pitch": 70, "duration": 4, "velocity": 67}, {"time": 6177, "pitch": 44, "duration": 12, "velocity": 70}, {"time": 6177, "pitch": 63, "duration": 9, "velocity": 60}, {"time": 6177, "pitch": 68, "duration": 7, "velocity": 61}, {"time": 6183, "pitch": 51, "duration": 7, "velocity": 62}, {"time": 6183, "pitch": 70, "duration": 5, "velocity": 76}, {"time": 6189, "pitch": 56, "duration": 7, "velocity": 60}, {"time": 6189, "pitch": 63, "duration": 5, "velocity": 60}, {"time": 6189, "pitch": 68, "duration": 5, "velocity": 72}, {"time": 6195, "pitch": 58, "duration": 18, "velocity": 64}, {"time": 6195, "pitch": 63, "duration": 7, "velocity": 55}, {"time": 6195, "pitch": 66, "duration": 8, "velocity": 67}, {"time": 6201, "pitch": 59, "duration": 10, "velocity": 63}, {"time": 6207, "pitch": 63, "duration": 7, "velocity": 72}, {"time": 6207, "pitch": 63, "duration": 7, "velocity": 76}, {"time": 6225, "pitch": 47, "duration": 42, "velocity": 70}, {"time": 6225, "pitch": 63, "duration": 9, "velocity": 45}, {"time": 6225, "pitch": 66, "duration": 11, "velocity": 59}, {"time": 6225, "pitch": 75, "duration": 7, "velocity": 48}, {"time": 6231, "pitch": 54, "duration": 36, "velocity": 62}, {"time": 6237, "pitch": 59, "duration": 12, "velocity": 72}, {"time": 6243, "pitch": 63, "duration": 4, "velocity": 51}, {"time": 6243, "pitch": 66, "duration": 4, "velocity": 62}, {"time": 6243, "pitch": 75, "duration": 4, "velocity": 49}, {"time": 6249, "pitch": 63, "duration": 6, "velocity": 66}, {"time": 6249, "pitch": 66, "duration": 6, "velocity": 72}, {"time": 6249, "pitch": 75, "duration": 5, "velocity": 73}, {"time": 6252, "pitch": 59, "duration": 5, "velocity": 49}, {"time": 6258, "pitch": 63, "duration": 5, "velocity": 57}, {"time": 6258, "pitch": 66, "duration": 5, "velocity": 63}, {"time": 6258, "pitch": 73, "duration": 5, "velocity": 75}, {"time": 6261, "pitch": 59, "duration": 6, "velocity": 62}, {"time": 6267, "pitch": 63, "duration": 2, "velocity": 49}, {"time": 6267, "pitch": 70, "duration": 4, "velocity": 66}, {"time": 6273, "pitch": 46, "duration": 39, "velocity": 70}, {"time": 6273, "pitch": 61, "duration": 8, "velocity": 73}, {"time": 6273, "pitch": 65, "duration": 7, "velocity": 52}, {"time": 6273, "pitch": 68, "duration": 8, "velocity": 64}, {"time": 6279, "pitch": 58, "duration": 14, "velocity": 63}, {"time": 6285, "pitch": 61, "duration": 5, "velocity": 54}, {"time": 6291, "pitch": 61, "duration": 8, "velocity": 72}, {"time": 6291, "pitch": 65, "duration": 8, "velocity": 73}, {"time": 6291, "pitch": 68, "duration": 9, "velocity": 72}, {"time": 6297, "pitch": 58, "duration": 9, "velocity": 52}, {"time": 6303, "pitch": 61, "duration": 7, "velocity": 72}, {"time": 6303, "pitch": 68, "duration": 5, "velocity": 44}, {"time": 6309, "pitch": 58, "duration": 4, "velocity": 58}, {"time": 6309, "pitch": 65, "duration": 3, "velocity": 75}, {"time": 6315, "pitch": 73, "duration": 4, "velocity": 72}, {"time": 6321, "pitch": 44, "duration": 6, "velocity": 70}, {"time": 6321, "pitch": 63, "duration": 8, "velocity": 59}, {"time": 6321, "pitch": 68, "duration": 9, "velocity": 69}, {"time": 6321, "pitch": 75, "duration": 9, "velocity": 66}, {"time": 6327, "pitch": 56, "duration": 8, "velocity": 47}, {"time": 6333, "pitch": 58, "duration": 26, "velocity": 69}, {"time": 6333, "pitch": 63, "duration": 3, "velocity": 57}, {"time": 6333, "pitch": 72, "duration": 5, "velocity": 63}, {"time": 6339, "pitch": 63, "duration": 8, "velocity": 69}, {"time": 6339, "pitch": 70, "duration": 9, "velocity": 75}, {"time": 6345, "pitch": 60, "duration": 8, "velocity": 61}, {"time": 6351, "pitch": 63, "duration": 6, "velocity": 70}, {"time": 6351, "pitch": 68, "duration": 6, "velocity": 75}, {"time": 6357, "pitch": 60, "duration": 2, "velocity": 67}, {"time": 6360, "pitch": 63, "duration": 4, "velocity": 69}, {"time": 6363, "pitch": 68, "duration": 5, "velocity": 72}, {"time": 6366, "pitch": 75, "duration": 7, "velocity": 61}, {"time": 6369, "pitch": 51, "duration": 33, "velocity": 66}, {"time": 6369, "pitch": 66, "duration": 10, "velocity": 52}, {"time": 6369, "pitch": 70, "duration": 9, "velocity": 67}, {"time": 6375, "pitch": 58, "duration": 26, "velocity": 51}, {"time": 6381, "pitch": 63, "duration": 7, "velocity": 66}, {"time": 6387, "pitch": 65, "duration": 4, "velocity": 67}, {"time": 6387, "pitch": 68, "duration": 6, "velocity": 69}, {"time": 6393, "pitch": 63, "duration": 9, "velocity": 56}, {"time": 6393, "pitch": 66, "duration": 2, "velocity": 70}, {"time": 6393, "pitch": 70, "duration": 5, "velocity": 72}, {"time": 6399, "pitch": 66, "duration": 10, "velocity": 67}, {"time": 6399, "pitch": 73, "duration": 4, "velocity": 69}, {"time": 6405, "pitch": 49, "duration": 4, "velocity": 63}, {"time": 6405, "pitch": 65, "duration": 4, "velocity": 69}, {"time": 6405, "pitch": 70, "duration": 5, "velocity": 67}, {"time": 6411, "pitch": 68, "duration": 5, "velocity": 67}, {"time": 6417, "pitch": 47, "duration": 40, "velocity": 76}, {"time": 6417, "pitch": 63, "duration": 14, "velocity": 63}, {"time": 6417, "pitch": 66, "duration": 11, "velocity": 66}, {"time": 6417, "pitch": 70, "duration": 12, "velocity": 64}, {"time": 6423, "pitch": 54, "duration": 33, "velocity": 58}, {"time": 6429, "pitch": 59, "duration": 9, "velocity": 60}, {"time": 6435, "pitch": 63, "duration": 14, "velocity": 64}, {"time": 6435, "pitch": 66, "duration": 13, "velocity": 75}, {"time": 6447, "pitch": 59, "duration": 8, "velocity": 58}, {"time": 6453, "pitch": 63, "duration": 5, "velocity": 76}, {"time": 6456, "pitch": 66, "duration": 7, "velocity": 48}, {"time": 6459, "pitch": 68, "duration": 4, "velocity": 60}, {"time": 6462, "pitch": 73, "duration": 4, "velocity": 29}, {"time": 6465, "pitch": 42, "duration": 43, "velocity": 67}, {"time": 6465, "pitch": 61, "duration": 8, "velocity": 60}, {"time": 6465, "pitch": 66, "duration": 9, "velocity": 59}, {"time": 6465, "pitch": 70, "duration": 14, "velocity": 50}, {"time": 6471, "pitch": 54, "duration": 14, "velocity": 60}, {"time": 6477, "pitch": 61, "duration": 3, "velocity": 59}, {"time": 6477, "pitch": 68, "duration": 6, "velocity": 62}, {"time": 6483, "pitch": 61, "duration": 9, "velocity": 63}, {"time": 6483, "pitch": 66, "duration": 9, "velocity": 66}, {"time": 6483, "pitch": 70, "duration": 10, "velocity": 66}, {"time": 6489, "pitch": 54, "duration": 14, "velocity": 44}, {"time": 6495, "pitch": 61, "duration": 5, "velocity": 64}, {"time": 6501, "pitch": 66, "duration": 7, "velocity": 78}, {"time": 6507, "pitch": 54, "duration": 4, "velocity": 53}, {"time": 6507, "pitch": 70, "duration": 3, "velocity": 72}, {"time": 6513, "pitch": 44, "duration": 10, "velocity": 75}, {"time": 6513, "pitch": 63, "duration": 24, "velocity": 58}, {"time": 6513, "pitch": 68, "duration": 23, "velocity": 70}, {"time": 6513, "pitch": 71, "duration": 24, "velocity": 61}, {"time": 6519, "pitch": 51, "duration": 6, "velocity": 61}, {"time": 6525, "pitch": 56, "duration": 7, "velocity": 53}, {"time": 6531, "pitch": 58, "duration": 20, "velocity": 62}, {"time": 6537, "pitch": 59, "duration": 8, "velocity": 67}, {"time": 6543, "pitch": 66, "duration": 2, "velocity": 73}, {"time": 6543, "pitch": 78, "duration": 3, "velocity": 64}, {"time": 6549, "pitch": 59, "duration": 2, "velocity": 64}, {"time": 6549, "pitch": 68, "duration": 2, "velocity": 60}, {"time": 6549, "pitch": 80, "duration": 3, "velocity": 53}, {"time": 6555, "pitch": 70, "duration": 2, "velocity": 66}, {"time": 6555, "pitch": 82, "duration": 3, "velocity": 76}, {"time": 6561, "pitch": 44, "duration": 12, "velocity": 69}, {"time": 6561, "pitch": 68, "duration": 9, "velocity": 63}, {"time": 6561, "pitch": 80, "duration": 8, "velocity": 78}, {"time": 6567, "pitch": 51, "duration": 7, "velocity": 70}, {"time": 6573, "pitch": 56, "duration": 7, "velocity": 67}, {"time": 6573, "pitch": 68, "duration": 12, "velocity": 54}, {"time": 6573, "pitch": 80, "duration": 12, "velocity": 75}, {"time": 6579, "pitch": 58, "duration": 19, "velocity": 69}, {"time": 6585, "pitch": 59, "duration": 13, "velocity": 57}, {"time": 6591, "pitch": 66, "duration": 2, "velocity": 58}, {"time": 6591, "pitch": 78, "duration": 3, "velocity": 67}, {"time": 6597, "pitch": 68, "duration": 2, "velocity": 57}, {"time": 6597, "pitch": 80, "duration": 3, "velocity": 67}, {"time": 6603, "pitch": 70, "duration": 2, "velocity": 44}, {"time": 6603, "pitch": 82, "duration": 3, "velocity": 62}, {"time": 6609, "pitch": 47, "duration": 41, "velocity": 72}, {"time": 6609, "pitch": 71, "duration": 7, "velocity": 52}, {"time": 6609, "pitch": 83, "duration": 5, "velocity": 42}, {"time": 6615, "pitch": 54, "duration": 34, "velocity": 60}, {"time": 6621, "pitch": 59, "duration": 8, "velocity": 52}, {"time": 6627, "pitch": 63, "duration": 6, "velocity": 63}, {"time": 6627, "pitch": 66, "duration": 5, "velocity": 51}, {"time": 6627, "pitch": 71, "duration": 6, "velocity": 72}, {"time": 6633, "pitch": 59, "duration": 8, "velocity": 44}, {"time": 6639, "pitch": 61, "duration": 2, "velocity": 63}, {"time": 6639, "pitch": 66, "duration": 1, "velocity": 46}, {"time": 6639, "pitch": 70, "duration": 3, "velocity": 61}, {"time": 6645, "pitch": 59, "duration": 5, "velocity": 66}, {"time": 6645, "pitch": 63, "duration": 3, "velocity": 60}, {"time": 6645, "pitch": 66, "duration": 3, "velocity": 57}, {"time": 6645, "pitch": 71, "duration": 4, "velocity": 53}, {"time": 6657, "pitch": 46, "duration": 14, "velocity": 75}, {"time": 6657, "pitch": 61, "duration": 8, "velocity": 62}, {"time": 6657, "pitch": 65, "duration": 8, "velocity": 63}, {"time": 6657, "pitch": 68, "duration": 8, "velocity": 64}, {"time": 6657, "pitch": 73, "duration": 8, "velocity": 56}, {"time": 6663, "pitch": 58, "duration": 9, "velocity": 56}, {"time": 6669, "pitch": 61, "duration": 4, "velocity": 50}, {"time": 6675, "pitch": 61, "duration": 11, "velocity": 69}, {"time": 6675, "pitch": 65, "duration": 11, "velocity": 69}, {"time": 6675, "pitch": 68, "duration": 11, "velocity": 69}, {"time": 6675, "pitch": 73, "duration": 12, "velocity": 47}, {"time": 6693, "pitch": 61, "duration": 2, "velocity": 67}, {"time": 6693, "pitch": 65, "duration": 2, "velocity": 61}, {"time": 6693, "pitch": 68, "duration": 4, "velocity": 70}, {"time": 6693, "pitch": 73, "duration": 2, "velocity": 46}, {"time": 6705, "pitch": 44, "duration": 6, "velocity": 67}, {"time": 6705, "pitch": 63, "duration": 15, "velocity": 69}, {"time": 6705, "pitch": 68, "duration": 14, "velocity": 73}, {"time": 6705, "pitch": 72, "duration": 14, "velocity": 73}, {"time": 6711, "pitch": 56, "duration": 8, "velocity": 49}, {"time": 6717, "pitch": 58, "duration": 28, "velocity": 64}, {"time": 6723, "pitch": 60, "duration": 8, "velocity": 72}, {"time": 6729, "pitch": 63, "duration": 3, "velocity": 61}, {"time": 6729, "pitch": 68, "duration": 2, "velocity": 54}, {"time": 6729, "pitch": 75, "duration": 4, "velocity": 72}, {"time": 6735, "pitch": 60, "duration": 7, "velocity": 60}, {"time": 6741, "pitch": 75, "duration": 5, "velocity": 63}, {"time": 6741, "pitch": 80, "duration": 5, "velocity": 73}, {"time": 6747, "pitch": 82, "duration": 6, "velocity": 61}, {"time": 6753, "pitch": 51, "duration": 38, "velocity": 72}, {"time": 6753, "pitch": 75, "duration": 12, "velocity": 64}, {"time": 6753, "pitch": 80, "duration": 11, "velocity": 70}, {"time": 6759, "pitch": 58, "duration": 25, "velocity": 51}, {"time": 6765, "pitch": 63, "duration": 8, "velocity": 61}, {"time": 6771, "pitch": 70, "duration": 4, "velocity": 63}, {"time": 6771, "pitch": 75, "duration": 8, "velocity": 75}, {"time": 6777, "pitch": 63, "duration": 8, "velocity": 41}, {"time": 6783, "pitch": 68, "duration": 2, "velocity": 70}, {"time": 6783, "pitch": 73, "duration": 4, "velocity": 72}, {"time": 6789, "pitch": 58, "duration": 3, "velocity": 70}, {"time": 6789, "pitch": 68, "duration": 1, "velocity": 49}, {"time": 6789, "pitch": 70, "duration": 3, "velocity": 45}, {"time": 6789, "pitch": 75, "duration": 10, "velocity": 56}, {"time": 6795, "pitch": 49, "duration": 2, "velocity": 73}, {"time": 6801, "pitch": 47, "duration": 44, "velocity": 73}, {"time": 6801, "pitch": 70, "duration": 7, "velocity": 59}, {"time": 6801, "pitch": 75, "duration": 6, "velocity": 62}, {"time": 6807, "pitch": 54, "duration": 35, "velocity": 62}, {"time": 6813, "pitch": 59, "duration": 8, "velocity": 67}, {"time": 6819, "pitch": 63, "duration": 7, "velocity": 64}, {"time": 6819, "pitch": 66, "duration": 7, "velocity": 63}, {"time": 6819, "pitch": 70, "duration": 10, "velocity": 69}, {"time": 6825, "pitch": 59, "duration": 8, "velocity": 58}, {"time": 6831, "pitch": 61, "duration": 3, "velocity": 64}, {"time": 6831, "pitch": 68, "duration": 6, "velocity": 70}, {"time": 6837, "pitch": 59, "duration": 3, "velocity": 67}, {"time": 6837, "pitch": 63, "duration": 4, "velocity": 61}, {"time": 6837, "pitch": 66, "duration": 4, "velocity": 55}, {"time": 6837, "pitch": 70, "duration": 6, "velocity": 69}, {"time": 6843, "pitch": 54, "duration": 2, "velocity": 46}, {"time": 6843, "pitch": 59, "duration": 2, "velocity": 63}, {"time": 6843, "pitch": 70, "duration": 2, "velocity": 48}, {"time": 6849, "pitch": 46, "duration": 44, "velocity": 76}, {"time": 6849, "pitch": 61, "duration": 8, "velocity": 60}, {"time": 6849, "pitch": 65, "duration": 8, "velocity": 66}, {"time": 6849, "pitch": 68, "duration": 8, "velocity": 63}, {"time": 6855, "pitch": 58, "duration": 20, "velocity": 54}, {"time": 6861, "pitch": 61, "duration": 4, "velocity": 67}, {"time": 6867, "pitch": 61, "duration": 13, "velocity": 60}, {"time": 6867, "pitch": 65, "duration": 13, "velocity": 66}, {"time": 6867, "pitch": 68, "duration": 13, "velocity": 62}, {"time": 6879, "pitch": 58, "duration": 7, "velocity": 45}, {"time": 6885, "pitch": 61, "duration": 4, "velocity": 59}, {"time": 6885, "pitch": 65, "duration": 3, "velocity": 54}, {"time": 6885, "pitch": 68, "duration": 5, "velocity": 67}, {"time": 6891, "pitch": 58, "duration": 2, "velocity": 69}, {"time": 6897, "pitch": 44, "duration": 6, "velocity": 70}, {"time": 6897, "pitch": 63, "duration": 18, "velocity": 62}, {"time": 6897, "pitch": 66, "duration": 18, "velocity": 69}, {"time": 6897, "pitch": 71, "duration": 20, "velocity": 69}, {"time": 6903, "pitch": 56, "duration": 9, "velocity": 50}, {"time": 6909, "pitch": 58, "duration": 27, "velocity": 59}, {"time": 6915, "pitch": 59, "duration": 13, "velocity": 63}, {"time": 6921, "pitch": 63, "duration": 8, "velocity": 64}, {"time": 6927, "pitch": 68, "duration": 6, "velocity": 73}, {"time": 6933, "pitch": 59, "duration": 3, "velocity": 70}, {"time": 6933, "pitch": 70, "duration": 5, "velocity": 63}, {"time": 6939, "pitch": 71, "duration": 4, "velocity": 70}, {"time": 6945, "pitch": 42, "duration": 38, "velocity": 66}, {"time": 6945, "pitch": 54, "duration": 14, "velocity": 66}, {"time": 6945, "pitch": 61, "duration": 18, "velocity": 63}, {"time": 6945, "pitch": 66, "duration": 19, "velocity": 66}, {"time": 6945, "pitch": 70, "duration": 19, "velocity": 66}, {"time": 6963, "pitch": 54, "duration": 15, "velocity": 45}, {"time": 6969, "pitch": 61, "duration": 14, "velocity": 56}, {"time": 6969, "pitch": 66, "duration": 13, "velocity": 58}, {"time": 6969, "pitch": 70, "duration": 14, "velocity": 52}, {"time": 6981, "pitch": 54, "duration": 3, "velocity": 64}, {"time": 6993, "pitch": 46, "duration": 38, "velocity": 64}, {"time": 6993, "pitch": 58, "duration": 10, "velocity": 61}, {"time": 6993, "pitch": 61, "duration": 14, "velocity": 57}, {"time": 6993, "pitch": 65, "duration": 18, "velocity": 64}, {"time": 6993, "pitch": 70, "duration": 19, "velocity": 57}, {"time": 7011, "pitch": 58, "duration": 10, "velocity": 44}, {"time": 7017, "pitch": 61, "duration": 14, "velocity": 58}, {"time": 7017, "pitch": 65, "duration": 14, "velocity": 63}, {"time": 7017, "pitch": 70, "duration": 15, "velocity": 58}, {"time": 7029, "pitch": 58, "duration": 3, "velocity": 63}, {"time": 7041, "pitch": 51, "duration": 41, "velocity": 73}, {"time": 7041, "pitch": 66, "duration": 13, "velocity": 64}, {"time": 7041, "pitch": 70, "duration": 14, "velocity": 63}, {"time": 7047, "pitch": 58, "duration": 41, "velocity": 61}, {"time": 7053, "pitch": 63, "duration": 19, "velocity": 72}, {"time": 7059, "pitch": 65, "duration": 5, "velocity": 58}, {"time": 7065, "pitch": 66, "duration": 7, "velocity": 64}, {"time": 7071, "pitch": 68, "duration": 5, "velocity": 64}, {"time": 7077, "pitch": 63, "duration": 6, "velocity": 51}, {"time": 7077, "pitch": 70, "duration": 5, "velocity": 58}, {"time": 7083, "pitch": 73, "duration": 4, "velocity": 66}, {"time": 7089, "pitch": 51, "duration": 33, "velocity": 40}, {"time": 7089, "pitch": 75, "duration": 7, "velocity": 62}, {"time": 7095, "pitch": 58, "duration": 21, "velocity": 56}, {"time": 7095, "pitch": 73, "duration": 8, "velocity": 48}, {"time": 7101, "pitch": 70, "duration": 6, "velocity": 49}, {"time": 7107, "pitch": 63, "duration": 11, "velocity": 52}, {"time": 7107, "pitch": 68, "duration": 6, "velocity": 47}, {"time": 7113, "pitch": 66, "duration": 5, "velocity": 34}, {"time": 7119, "pitch": 58, "duration": 7, "velocity": 66}, {"time": 7125, "pitch": 63, "duration": 4, "velocity": 56}, {"time": 7131, "pitch": 66, "duration": 4, "velocity": 66}, {"time": 7137, "pitch": 51, "duration": 19, "velocity": 67}, {"time": 7137, "pitch": 66, "duration": 14, "velocity": 70}, {"time": 7137, "pitch": 70, "duration": 14, "velocity": 66}, {"time": 7143, "pitch": 58, "duration": 12, "velocity": 55}, {"time": 7149, "pitch": 63, "duration": 6, "velocity": 56}, {"time": 7161, "pitch": 46, "duration": 17, "velocity": 69}, {"time": 7161, "pitch": 61, "duration": 17, "velocity": 61}, {"time": 7161, "pitch": 65, "duration": 17, "velocity": 59}, {"time": 7161, "pitch": 68, "duration": 17, "velocity": 58}, {"time": 7185, "pitch": 44, "duration": 38, "velocity": 61}, {"time": 7185, "pitch": 56, "duration": 32, "velocity": 57}, {"time": 7185, "pitch": 59, "duration": 14, "velocity": 70}, {"time": 7185, "pitch": 63, "duration": 17, "velocity": 72}, {"time": 7185, "pitch": 66, "duration": 28, "velocity": 66}, {"time": 7203, "pitch": 58, "duration": 18, "velocity": 37}, {"time": 7215, "pitch": 59, "duration": 7, "velocity": 72}, {"time": 7215, "pitch": 66, "duration": 7, "velocity": 26}, {"time": 7221, "pitch": 56, "duration": 3, "velocity": 48}, {"time": 7233, "pitch": 46, "duration": 37, "velocity": 64}, {"time": 7233, "pitch": 58, "duration": 36, "velocity": 62}, {"time": 7233, "pitch": 61, "duration": 36, "velocity": 63}, {"time": 7233, "pitch": 65, "duration": 36, "velocity": 70}, {"time": 7233, "pitch": 70, "duration": 37, "velocity": 70}, {"time": 7281, "pitch": 47, "duration": 44, "velocity": 85}, {"time": 7281, "pitch": 63, "duration": 13, "velocity": 70}, {"time": 7281, "pitch": 66, "duration": 12, "velocity": 70}, {"time": 7281, "pitch": 70, "duration": 13, "velocity": 70}, {"time": 7287, "pitch": 54, "duration": 7, "velocity": 50}, {"time": 7293, "pitch": 59, "duration": 12, "velocity": 63}, {"time": 7299, "pitch": 63, "duration": 13, "velocity": 62}, {"time": 7299, "pitch": 66, "duration": 13, "velocity": 63}, {"time": 7299, "pitch": 70, "duration": 13, "velocity": 62}, {"time": 7311, "pitch": 54, "duration": 8, "velocity": 34}, {"time": 7311, "pitch": 59, "duration": 8, "velocity": 45}, {"time": 7317, "pitch": 63, "duration": 5, "velocity": 64}, {"time": 7317, "pitch": 66, "duration": 6, "velocity": 72}, {"time": 7317, "pitch": 70, "duration": 6, "velocity": 67}, {"time": 7323, "pitch": 59, "duration": 3, "velocity": 70}, {"time": 7329, "pitch": 47, "duration": 38, "velocity": 78}, {"time": 7329, "pitch": 59, "duration": 37, "velocity": 76}, {"time": 7329, "pitch": 63, "duration": 12, "velocity": 69}, {"time": 7329, "pitch": 66, "duration": 12, "velocity": 76}, {"time": 7329, "pitch": 70, "duration": 12, "velocity": 69}, {"time": 7347, "pitch": 63, "duration": 11, "velocity": 63}, {"time": 7347, "pitch": 66, "duration": 11, "velocity": 70}, {"time": 7347, "pitch": 70, "duration": 11, "velocity": 61}, {"time": 7365, "pitch": 63, "duration": 5, "velocity": 69}, {"time": 7365, "pitch": 66, "duration": 5, "velocity": 73}, {"time": 7365, "pitch": 70, "duration": 5, "velocity": 67}, {"time": 7371, "pitch": 47, "duration": 3, "velocity": 78}, {"time": 7371, "pitch": 59, "duration": 2, "velocity": 62}, {"time": 7377, "pitch": 46, "duration": 105, "velocity": 78}, {"time": 7377, "pitch": 62, "duration": 9, "velocity": 85}, {"time": 7377, "pitch": 65, "duration": 8, "velocity": 75}, {"time": 7377, "pitch": 70, "duration": 11, "velocity": 64}, {"time": 7383, "pitch": 58, "duration": 9, "velocity": 44}, {"time": 7389, "pitch": 62, "duration": 8, "velocity": 66}, {"time": 7389, "pitch": 68, "duration": 11, "velocity": 67}, {"time": 7395, "pitch": 58, "duration": 7, "velocity": 44}, {"time": 7401, "pitch": 62, "duration": 5, "velocity": 67}, {"time": 7401, "pitch": 65, "duration": 5, "velocity": 88}, {"time": 7401, "pitch": 70, "duration": 7, "velocity": 62}, {"time": 7407, "pitch": 58, "duration": 8, "velocity": 49}, {"time": 7413, "pitch": 70, "duration": 4, "velocity": 67}, {"time": 7413, "pitch": 74, "duration": 5, "velocity": 73}, {"time": 7419, "pitch": 58, "duration": 60, "velocity": 57}, {"time": 7428, "pitch": 82, "duration": 49, "velocity": 60}, {"time": 7428, "pitch": 86, "duration": 49, "velocity": 66}, {"time": 7428, "pitch": 89, "duration": 4, "velocity": 56}, {"time": 7428, "pitch": 94, "duration": 50, "velocity": 64}, {"time": 7497, "pitch": 46, "duration": 10, "velocity": 67}, {"time": 7497, "pitch": 58, "duration": 9, "velocity": 66}, {"time": 7497, "pitch": 61, "duration": 10, "velocity": 80}, {"time": 7497, "pitch": 65, "duration": 10, "velocity": 78}, {"time": 7497, "pitch": 70, "duration": 11, "velocity": 78}, {"time": 7521, "pitch": 39, "duration": 85, "velocity": 76}, {"time": 7521, "pitch": 51, "duration": 9, "velocity": 72}, {"time": 7521, "pitch": 63, "duration": 10, "velocity": 70}, {"time": 7521, "pitch": 66, "duration": 18, "velocity": 72}, {"time": 7521, "pitch": 70, "duration": 18, "velocity": 67}, {"time": 7539, "pitch": 51, "duration": 9, "velocity": 51}, {"time": 7545, "pitch": 65, "duration": 7, "velocity": 76}, {"time": 7545, "pitch": 66, "duration": 9, "velocity": 76}, {"time": 7545, "pitch": 70, "duration": 11, "velocity": 72}, {"time": 7551, "pitch": 51, "duration": 14, "velocity": 46}, {"time": 7557, "pitch": 65, "duration": 4, "velocity": 62}, {"time": 7557, "pitch": 68, "duration": 5, "velocity": 70}, {"time": 7563, "pitch": 63, "duration": 12, "velocity": 67}, {"time": 7563, "pitch": 66, "duration": 13, "velocity": 64}, {"time": 7563, "pitch": 70, "duration": 13, "velocity": 60}, {"time": 7575, "pitch": 51, "duration": 6, "velocity": 44}, {"time": 7587, "pitch": 51, "duration": 9, "velocity": 51}, {"time": 7593, "pitch": 63, "duration": 7, "velocity": 76}, {"time": 7593, "pitch": 66, "duration": 7, "velocity": 80}, {"time": 7593, "pitch": 70, "duration": 7, "velocity": 78}, {"time": 7599, "pitch": 51, "duration": 10, "velocity": 69}, {"time": 7605, "pitch": 61, "duration": 5, "velocity": 64}, {"time": 7611, "pitch": 63, "duration": 22, "velocity": 63}, {"time": 7617, "pitch": 44, "duration": 43, "velocity": 73}, {"time": 7617, "pitch": 56, "duration": 12, "velocity": 69}, {"time": 7617, "pitch": 59, "duration": 15, "velocity": 73}, {"time": 7617, "pitch": 68, "duration": 15, "velocity": 70}, {"time": 7629, "pitch": 56, "duration": 14, "velocity": 51}, {"time": 7635, "pitch": 59, "duration": 13, "velocity": 69}, {"time": 7635, "pitch": 63, "duration": 13, "velocity": 51}, {"time": 7635, "pitch": 66, "duration": 12, "velocity": 70}, {"time": 7647, "pitch": 56, "duration": 8, "velocity": 47}, {"time": 7653, "pitch": 59, "duration": 4, "velocity": 72}, {"time": 7653, "pitch": 63, "duration": 4, "velocity": 70}, {"time": 7653, "pitch": 66, "duration": 6, "velocity": 78}, {"time": 7659, "pitch": 59, "duration": 11, "velocity": 70}, {"time": 7659, "pitch": 63, "duration": 15, "velocity": 72}, {"time": 7659, "pitch": 68, "duration": 15, "velocity": 70}, {"time": 7665, "pitch": 44, "duration": 19, "velocity": 64}, {"time": 7665, "pitch": 56, "duration": 19, "velocity": 54}, {"time": 7671, "pitch": 59, "duration": 4, "velocity": 50}, {"time": 7677, "pitch": 59, "duration": 4, "velocity": 55}, {"time": 7677, "pitch": 63, "duration": 5, "velocity": 69}, {"time": 7677, "pitch": 66, "duration": 6, "velocity": 70}, {"time": 7683, "pitch": 59, "duration": 4, "velocity": 67}, {"time": 7683, "pitch": 63, "duration": 9, "velocity": 67}, {"time": 7683, "pitch": 68, "duration": 6, "velocity": 59}, {"time": 7689, "pitch": 46, "duration": 17, "velocity": 70}, {"time": 7689, "pitch": 58, "duration": 8, "velocity": 49}, {"time": 7695, "pitch": 61, "duration": 8, "velocity": 76}, {"time": 7695, "pitch": 65, "duration": 10, "velocity": 73}, {"time": 7695, "pitch": 68, "duration": 9, "velocity": 73}, {"time": 7701, "pitch": 58, "duration": 4, "velocity": 61}, {"time": 7704, "pitch": 61, "duration": 2, "velocity": 45}, {"time": 7713, "pitch": 39, "duration": 40, "velocity": 73}, {"time": 7713, "pitch": 51, "duration": 10, "velocity": 66}, {"time": 7713, "pitch": 58, "duration": 15, "velocity": 70}, {"time": 7713, "pitch": 61, "duration": 16, "velocity": 69}, {"time": 7713, "pitch": 66, "duration": 15, "velocity": 72}, {"time": 7725, "pitch": 51, "duration": 11, "velocity": 45}, {"time": 7731, "pitch": 58, "duration": 13, "velocity": 70}, {"time": 7731, "pitch": 61, "duration": 13, "velocity": 66}, {"time": 7731, "pitch": 65, "duration": 14, "velocity": 78}, {"time": 7743, "pitch": 51, "duration": 11, "velocity": 47}, {"time": 7749, "pitch": 58, "duration": 4, "velocity": 73}, {"time": 7749, "pitch": 61, "duration": 4, "velocity": 80}, {"time": 7749, "pitch": 65, "duration": 5, "velocity": 75}, {"time": 7755, "pitch": 39, "duration": 42, "velocity": 73}, {"time": 7755, "pitch": 51, "duration": 19, "velocity": 61}, {"time": 7755, "pitch": 58, "duration": 10, "velocity": 76}, {"time": 7755, "pitch": 61, "duration": 9, "velocity": 76}, {"time": 7755, "pitch": 66, "duration": 14, "velocity": 66}, {"time": 7767, "pitch": 56, "duration": 7, "velocity": 66}, {"time": 7767, "pitch": 61, "duration": 9, "velocity": 64}, {"time": 7767, "pitch": 65, "duration": 10, "velocity": 75}, {"time": 7779, "pitch": 58, "duration": 10, "velocity": 70}, {"time": 7779, "pitch": 61, "duration": 10, "velocity": 70}, {"time": 7779, "pitch": 66, "duration": 10, "velocity": 72}, {"time": 7785, "pitch": 51, "duration": 8, "velocity": 57}, {"time": 7791, "pitch": 58, "duration": 8, "velocity": 73}, {"time": 7791, "pitch": 61, "duration": 8, "velocity": 78}, {"time": 7791, "pitch": 66, "duration": 8, "velocity": 70}, {"time": 7797, "pitch": 51, "duration": 2, "velocity": 58}, {"time": 7809, "pitch": 47, "duration": 44, "velocity": 78}, {"time": 7809, "pitch": 54, "duration": 44, "velocity": 64}, {"time": 7809, "pitch": 59, "duration": 13, "velocity": 66}, {"time": 7809, "pitch": 61, "duration": 8, "velocity": 73}, {"time": 7809, "pitch": 63, "duration": 8, "velocity": 72}, {"time": 7809, "pitch": 66, "duration": 8, "velocity": 72}, {"time": 7824, "pitch": 59, "duration": 15, "velocity": 35}, {"time": 7827, "pitch": 63, "duration": 8, "velocity": 70}, {"time": 7827, "pitch": 66, "duration": 9, "velocity": 70}, {"time": 7827, "pitch": 70, "duration": 14, "velocity": 60}, {"time": 7839, "pitch": 63, "duration": 8, "velocity": 62}, {"time": 7839, "pitch": 66, "duration": 7, "velocity": 61}, {"time": 7845, "pitch": 59, "duration": 9, "velocity": 55}, {"time": 7851, "pitch": 63, "duration": 7, "velocity": 45}, {"time": 7851, "pitch": 66, "duration": 8, "velocity": 35}, {"time": 7857, "pitch": 47, "duration": 38, "velocity": 66}, {"time": 7863, "pitch": 54, "duration": 31, "velocity": 37}, {"time": 7869, "pitch": 59, "duration": 16, "velocity": 52}, {"time": 7875, "pitch": 61, "duration": 13, "velocity": 69}, {"time": 7875, "pitch": 63, "duration": 14, "velocity": 67}, {"time": 7875, "pitch": 66, "duration": 14, "velocity": 70}, {"time": 7887, "pitch": 59, "duration": 8, "velocity": 60}, {"time": 7893, "pitch": 61, "duration": 2, "velocity": 64}, {"time": 7893, "pitch": 63, "duration": 2, "velocity": 62}, {"time": 7893, "pitch": 66, "duration": 4, "velocity": 72}, {"time": 7905, "pitch": 44, "duration": 42, "velocity": 67}, {"time": 7905, "pitch": 59, "duration": 11, "velocity": 72}, {"time": 7905, "pitch": 63, "duration": 12, "velocity": 69}, {"time": 7905, "pitch": 66, "duration": 11, "velocity": 55}, {"time": 7911, "pitch": 51, "duration": 38, "velocity": 50}, {"time": 7917, "pitch": 56, "duration": 11, "velocity": 49}, {"time": 7923, "pitch": 59, "duration": 12, "velocity": 73}, {"time": 7923, "pitch": 63, "duration": 15, "velocity": 75}, {"time": 7923, "pitch": 66, "duration": 13, "velocity": 78}, {"time": 7935, "pitch": 56, "duration": 7, "velocity": 39}, {"time": 7941, "pitch": 59, "duration": 3, "velocity": 78}, {"time": 7941, "pitch": 63, "duration": 3, "velocity": 76}, {"time": 7941, "pitch": 66, "duration": 3, "velocity": 73}, {"time": 7953, "pitch": 46, "duration": 43, "velocity": 73}, {"time": 7953, "pitch": 56, "duration": 8, "velocity": 62}, {"time": 7953, "pitch": 61, "duration": 9, "velocity": 75}, {"time": 7953, "pitch": 65, "duration": 8, "velocity": 72}, {"time": 7953, "pitch": 68, "duration": 9, "velocity": 64}, {"time": 7959, "pitch": 53, "duration": 16, "velocity": 57}, {"time": 7965, "pitch": 56, "duration": 2, "velocity": 43}, {"time": 7971, "pitch": 56, "duration": 8, "velocity": 61}, {"time": 7971, "pitch": 61, "duration": 12, "velocity": 63}, {"time": 7971, "pitch": 65, "duration": 12, "velocity": 70}, {"time": 7971, "pitch": 68, "duration": 12, "velocity": 41}, {"time": 7983, "pitch": 53, "duration": 8, "velocity": 47}, {"time": 7989, "pitch": 61, "duration": 3, "velocity": 82}, {"time": 7989, "pitch": 65, "duration": 3, "velocity": 73}, {"time": 8001, "pitch": 47, "duration": 87, "velocity": 76}, {"time": 8001, "pitch": 63, "duration": 16, "velocity": 67}, {"time": 8001, "pitch": 66, "duration": 16, "velocity": 73}, {"time": 8001, "pitch": 70, "duration": 17, "velocity": 66}, {"time": 8010, "pitch": 54, "duration": 60, "velocity": 40}, {"time": 8016, "pitch": 59, "duration": 13, "velocity": 47}, {"time": 8025, "pitch": 63, "duration": 14, "velocity": 66}, {"time": 8025, "pitch": 66, "duration": 14, "velocity": 73}, {"time": 8025, "pitch": 70, "duration": 14, "velocity": 69}, {"time": 8037, "pitch": 59, "duration": 8, "velocity": 53}, {"time": 8043, "pitch": 63, "duration": 5, "velocity": 61}, {"time": 8043, "pitch": 66, "duration": 9, "velocity": 63}, {"time": 8043, "pitch": 70, "duration": 8, "velocity": 59}, {"time": 8049, "pitch": 59, "duration": 7, "velocity": 59}, {"time": 8055, "pitch": 65, "duration": 5, "velocity": 55}, {"time": 8055, "pitch": 68, "duration": 10, "velocity": 69}, {"time": 8067, "pitch": 59, "duration": 2, "velocity": 30}, {"time": 8067, "pitch": 65, "duration": 6, "velocity": 58}, {"time": 8067, "pitch": 66, "duration": 8, "velocity": 66}, {"time": 8067, "pitch": 70, "duration": 8, "velocity": 62}, {"time": 8073, "pitch": 54, "duration": 9, "velocity": 36}, {"time": 8073, "pitch": 59, "duration": 8, "velocity": 63}, {"time": 8079, "pitch": 65, "duration": 7, "velocity": 67}, {"time": 8079, "pitch": 66, "duration": 7, "velocity": 64}, {"time": 8079, "pitch": 70, "duration": 8, "velocity": 67}, {"time": 8085, "pitch": 54, "duration": 1, "velocity": 46}, {"time": 8085, "pitch": 59, "duration": 2, "velocity": 64}, {"time": 8094, "pitch": 51, "duration": 46, "velocity": 72}, {"time": 8094, "pitch": 63, "duration": 9, "velocity": 72}, {"time": 8094, "pitch": 66, "duration": 15, "velocity": 75}, {"time": 8094, "pitch": 70, "duration": 14, "velocity": 73}, {"time": 8103, "pitch": 58, "duration": 39, "velocity": 49}, {"time": 8109, "pitch": 63, "duration": 12, "velocity": 58}, {"time": 8115, "pitch": 65, "duration": 8, "velocity": 75}, {"time": 8115, "pitch": 68, "duration": 10, "velocity": 78}, {"time": 8127, "pitch": 65, "duration": 1, "velocity": 47}, {"time": 8127, "pitch": 66, "duration": 8, "velocity": 73}, {"time": 8127, "pitch": 68, "duration": 1, "velocity": 41}, {"time": 8127, "pitch": 70, "duration": 10, "velocity": 64}, {"time": 8133, "pitch": 63, "duration": 8, "velocity": 39}, {"time": 8139, "pitch": 65, "duration": 2, "velocity": 72}, {"time": 8139, "pitch": 66, "duration": 2, "velocity": 61}, {"time": 8139, "pitch": 70, "duration": 4, "velocity": 59}, {"time": 8145, "pitch": 51, "duration": 39, "velocity": 53}, {"time": 8151, "pitch": 58, "duration": 26, "velocity": 46}, {"time": 8151, "pitch": 70, "duration": 4, "velocity": 59}, {"time": 8151, "pitch": 78, "duration": 3, "velocity": 80}, {"time": 8157, "pitch": 63, "duration": 8, "velocity": 51}, {"time": 8157, "pitch": 70, "duration": 3, "velocity": 63}, {"time": 8157, "pitch": 78, "duration": 5, "velocity": 72}, {"time": 8163, "pitch": 68, "duration": 4, "velocity": 56}, {"time": 8163, "pitch": 75, "duration": 4, "velocity": 75}, {"time": 8166, "pitch": 63, "duration": 11, "velocity": 43}, {"time": 8175, "pitch": 66, "duration": 6, "velocity": 63}, {"time": 8175, "pitch": 73, "duration": 6, "velocity": 73}, {"time": 8181, "pitch": 58, "duration": 4, "velocity": 49}, {"time": 8193, "pitch": 44, "duration": 33, "velocity": 67}, {"time": 8193, "pitch": 56, "duration": 32, "velocity": 67}, {"time": 8193, "pitch": 59, "duration": 16, "velocity": 76}, {"time": 8193, "pitch": 63, "duration": 16, "velocity": 70}, {"time": 8193, "pitch": 66, "duration": 21, "velocity": 76}, {"time": 8217, "pitch": 58, "duration": 12, "velocity": 62}, {"time": 8217, "pitch": 59, "duration": 12, "velocity": 73}, {"time": 8217, "pitch": 63, "duration": 12, "velocity": 69}, {"time": 8217, "pitch": 66, "duration": 14, "velocity": 45}, {"time": 8229, "pitch": 46, "duration": 2, "velocity": 72}, {"time": 8241, "pitch": 47, "duration": 39, "velocity": 63}, {"time": 8241, "pitch": 59, "duration": 15, "velocity": 62}, {"time": 8241, "pitch": 63, "duration": 19, "velocity": 69}, {"time": 8241, "pitch": 66, "duration": 19, "velocity": 75}, {"time": 8241, "pitch": 70, "duration": 19, "velocity": 66}, {"time": 8259, "pitch": 59, "duration": 15, "velocity": 55}, {"time": 8265, "pitch": 63, "duration": 13, "velocity": 62}, {"time": 8265, "pitch": 66, "duration": 13, "velocity": 73}, {"time": 8265, "pitch": 70, "duration": 14, "velocity": 70}, {"time": 8277, "pitch": 59, "duration": 3, "velocity": 66}, {"time": 8289, "pitch": 46, "duration": 44, "velocity": 70}, {"time": 8289, "pitch": 61, "duration": 9, "velocity": 66}, {"time": 8289, "pitch": 65, "duration": 9, "velocity": 69}, {"time": 8289, "pitch": 68, "duration": 9, "velocity": 69}, {"time": 8295, "pitch": 58, "duration": 20, "velocity": 45}, {"time": 8301, "pitch": 61, "duration": 4, "velocity": 44}, {"time": 8307, "pitch": 61, "duration": 15, "velocity": 56}, {"time": 8307, "pitch": 65, "duration": 15, "velocity": 70}, {"time": 8307, "pitch": 68, "duration": 16, "velocity": 66}, {"time": 8319, "pitch": 58, "duration": 9, "velocity": 41}, {"time": 8325, "pitch": 61, "duration": 7, "velocity": 59}, {"time": 8325, "pitch": 68, "duration": 8, "velocity": 60}, {"time": 8331, "pitch": 58, "duration": 4, "velocity": 44}, {"time": 8337, "pitch": 46, "duration": 38, "velocity": 63}, {"time": 8337, "pitch": 61, "duration": 8, "velocity": 62}, {"time": 8337, "pitch": 65, "duration": 8, "velocity": 62}, {"time": 8337, "pitch": 68, "duration": 8, "velocity": 62}, {"time": 8343, "pitch": 58, "duration": 10, "velocity": 50}, {"time": 8349, "pitch": 61, "duration": 9, "velocity": 58}, {"time": 8355, "pitch": 65, "duration": 5, "velocity": 69}, {"time": 8355, "pitch": 68, "duration": 3, "velocity": 40}, {"time": 8361, "pitch": 58, "duration": 9, "velocity": 57}, {"time": 8361, "pitch": 61, "duration": 2, "velocity": 57}, {"time": 8361, "pitch": 65, "duration": 3, "velocity": 55}, {"time": 8361, "pitch": 68, "duration": 3, "velocity": 48}, {"time": 8367, "pitch": 61, "duration": 8, "velocity": 76}, {"time": 8367, "pitch": 65, "duration": 8, "velocity": 76}, {"time": 8367, "pitch": 68, "duration": 8, "velocity": 73}, {"time": 8373, "pitch": 58, "duration": 2, "velocity": 80}, {"time": 8385, "pitch": 44, "duration": 42, "velocity": 78}, {"time": 8385, "pitch": 63, "duration": 9, "velocity": 69}, {"time": 8385, "pitch": 66, "duration": 10, "velocity": 80}, {"time": 8385, "pitch": 71, "duration": 11, "velocity": 78}, {"time": 8391, "pitch": 56, "duration": 16, "velocity": 39}, {"time": 8397, "pitch": 63, "duration": 3, "velocity": 56}, {"time": 8403, "pitch": 63, "duration": 7, "velocity": 73}, {"time": 8403, "pitch": 66, "duration": 6, "velocity": 76}, {"time": 8403, "pitch": 71, "duration": 6, "velocity": 69}, {"time": 8409, "pitch": 56, "duration": 5, "velocity": 55}, {"time": 8415, "pitch": 63, "duration": 3, "velocity": 80}, {"time": 8415, "pitch": 66, "duration": 7, "velocity": 80}, {"time": 8415, "pitch": 70, "duration": 6, "velocity": 78}, {"time": 8421, "pitch": 56, "duration": 3, "velocity": 44}, {"time": 8424, "pitch": 63, "duration": 2, "velocity": 70}, {"time": 8424, "pitch": 66, "duration": 2, "velocity": 76}, {"time": 8424, "pitch": 71, "duration": 3, "velocity": 76}, {"time": 8427, "pitch": 56, "duration": 2, "velocity": 62}, {"time": 8433, "pitch": 51, "duration": 37, "velocity": 70}, {"time": 8433, "pitch": 66, "duration": 7, "velocity": 76}, {"time": 8433, "pitch": 70, "duration": 7, "velocity": 75}, {"time": 8439, "pitch": 58, "duration": 31, "velocity": 32}, {"time": 8445, "pitch": 65, "duration": 4, "velocity": 76}, {"time": 8445, "pitch": 68, "duration": 5, "velocity": 76}, {"time": 8451, "pitch": 66, "duration": 2, "velocity": 78}, {"time": 8451, "pitch": 70, "duration": 3, "velocity": 80}, {"time": 8460, "pitch": 63, "duration": 6, "velocity": 66}, {"time": 8463, "pitch": 66, "duration": 4, "velocity": 72}, {"time": 8466, "pitch": 68, "duration": 4, "velocity": 66}, {"time": 8469, "pitch": 70, "duration": 4, "velocity": 66}, {"time": 8472, "pitch": 73, "duration": 6, "velocity": 75}, {"time": 8481, "pitch": 47, "duration": 44, "velocity": 75}, {"time": 8481, "pitch": 63, "duration": 8, "velocity": 76}, {"time": 8481, "pitch": 66, "duration": 8, "velocity": 73}, {"time": 8481, "pitch": 71, "duration": 8, "velocity": 72}, {"time": 8487, "pitch": 54, "duration": 21, "velocity": 49}, {"time": 8490, "pitch": 59, "duration": 18, "velocity": 72}, {"time": 8499, "pitch": 63, "duration": 5, "velocity": 69}, {"time": 8499, "pitch": 66, "duration": 4, "velocity": 69}, {"time": 8499, "pitch": 71, "duration": 4, "velocity": 72}, {"time": 8508, "pitch": 61, "duration": 2, "velocity": 76}, {"time": 8508, "pitch": 66, "duration": 2, "velocity": 72}, {"time": 8508, "pitch": 70, "duration": 2, "velocity": 76}, {"time": 8514, "pitch": 59, "duration": 5, "velocity": 57}, {"time": 8517, "pitch": 54, "duration": 2, "velocity": 11}, {"time": 8517, "pitch": 63, "duration": 4, "velocity": 73}, {"time": 8517, "pitch": 66, "duration": 4, "velocity": 76}, {"time": 8517, "pitch": 71, "duration": 4, "velocity": 76}, {"time": 8523, "pitch": 54, "duration": 1, "velocity": 52}, {"time": 8529, "pitch": 46, "duration": 39, "velocity": 82}, {"time": 8529, "pitch": 61, "duration": 7, "velocity": 72}, {"time": 8529, "pitch": 65, "duration": 8, "velocity": 75}, {"time": 8529, "pitch": 70, "duration": 7, "velocity": 72}, {"time": 8535, "pitch": 58, "duration": 15, "velocity": 47}, {"time": 8541, "pitch": 61, "duration": 6, "velocity": 66}, {"time": 8547, "pitch": 61, "duration": 13, "velocity": 61}, {"time": 8547, "pitch": 65, "duration": 13, "velocity": 80}, {"time": 8547, "pitch": 70, "duration": 13, "velocity": 72}, {"time": 8559, "pitch": 58, "duration": 7, "velocity": 69}, {"time": 8565, "pitch": 61, "duration": 4, "velocity": 75}, {"time": 8565, "pitch": 65, "duration": 4, "velocity": 75}, {"time": 8565, "pitch": 70, "duration": 4, "velocity": 78}, {"time": 8571, "pitch": 46, "duration": 3, "velocity": 63}, {"time": 8571, "pitch": 58, "duration": 1, "velocity": 47}, {"time": 8577, "pitch": 44, "duration": 7, "velocity": 76}, {"time": 8577, "pitch": 63, "duration": 20, "velocity": 61}, {"time": 8577, "pitch": 66, "duration": 3, "velocity": 61}, {"time": 8577, "pitch": 68, "duration": 19, "velocity": 73}, {"time": 8577, "pitch": 71, "duration": 19, "velocity": 76}, {"time": 8583, "pitch": 56, "duration": 7, "velocity": 61}, {"time": 8589, "pitch": 58, "duration": 29, "velocity": 61}, {"time": 8595, "pitch": 59, "duration": 15, "velocity": 67}, {"time": 8601, "pitch": 63, "duration": 10, "velocity": 57}, {"time": 8607, "pitch": 68, "duration": 4, "velocity": 66}, {"time": 8613, "pitch": 63, "duration": 4, "velocity": 66}, {"time": 8613, "pitch": 70, "duration": 4, "velocity": 66}, {"time": 8619, "pitch": 59, "duration": 2, "velocity": 72}, {"time": 8625, "pitch": 44, "duration": 39, "velocity": 76}, {"time": 8625, "pitch": 63, "duration": 8, "velocity": 72}, {"time": 8625, "pitch": 68, "duration": 9, "velocity": 69}, {"time": 8625, "pitch": 71, "duration": 7, "velocity": 76}, {"time": 8631, "pitch": 56, "duration": 15, "velocity": 55}, {"time": 8637, "pitch": 63, "duration": 4, "velocity": 61}, {"time": 8637, "pitch": 71, "duration": 4, "velocity": 78}, {"time": 8643, "pitch": 63, "duration": 6, "velocity": 70}, {"time": 8643, "pitch": 70, "duration": 9, "velocity": 70}, {"time": 8649, "pitch": 56, "duration": 6, "velocity": 47}, {"time": 8655, "pitch": 63, "duration": 8, "velocity": 73}, {"time": 8661, "pitch": 56, "duration": 4, "velocity": 55}, {"time": 8667, "pitch": 63, "duration": 3, "velocity": 48}, {"time": 8673, "pitch": 47, "duration": 42, "velocity": 76}, {"time": 8673, "pitch": 63, "duration": 11, "velocity": 66}, {"time": 8673, "pitch": 66, "duration": 11, "velocity": 70}, {"time": 8673, "pitch": 71, "duration": 12, "velocity": 69}, {"time": 8679, "pitch": 54, "duration": 36, "velocity": 60}, {"time": 8685, "pitch": 59, "duration": 20, "velocity": 76}, {"time": 8691, "pitch": 63, "duration": 4, "velocity": 58}, {"time": 8691, "pitch": 71, "duration": 4, "velocity": 60}, {"time": 8697, "pitch": 63, "duration": 3, "velocity": 66}, {"time": 8697, "pitch": 70, "duration": 3, "velocity": 69}, {"time": 8703, "pitch": 63, "duration": 7, "velocity": 58}, {"time": 8703, "pitch": 71, "duration": 8, "velocity": 66}, {"time": 8709, "pitch": 59, "duration": 6, "velocity": 62}, {"time": 8715, "pitch": 63, "duration": 2, "velocity": 62}, {"time": 8715, "pitch": 75, "duration": 3, "velocity": 67}, {"time": 8721, "pitch": 46, "duration": 43, "velocity": 73}, {"time": 8721, "pitch": 61, "duration": 8, "velocity": 63}, {"time": 8721, "pitch": 65, "duration": 7, "velocity": 64}, {"time": 8721, "pitch": 68, "duration": 8, "velocity": 72}, {"time": 8727, "pitch": 58, "duration": 14, "velocity": 59}, {"time": 8733, "pitch": 61, "duration": 4, "velocity": 58}, {"time": 8739, "pitch": 61, "duration": 2, "velocity": 51}, {"time": 8739, "pitch": 65, "duration": 7, "velocity": 59}, {"time": 8745, "pitch": 58, "duration": 14, "velocity": 64}, {"time": 8745, "pitch": 68, "duration": 4, "velocity": 64}, {"time": 8751, "pitch": 61, "duration": 3, "velocity": 66}, {"time": 8751, "pitch": 65, "duration": 2, "velocity": 51}, {"time": 8751, "pitch": 73, "duration": 3, "velocity": 63}, {"time": 8757, "pitch": 61, "duration": 4, "velocity": 52}, {"time": 8757, "pitch": 65, "duration": 3, "velocity": 64}, {"time": 8757, "pitch": 75, "duration": 4, "velocity": 67}, {"time": 8763, "pitch": 58, "duration": 2, "velocity": 55}, {"time": 8763, "pitch": 61, "duration": 2, "velocity": 59}, {"time": 8763, "pitch": 73, "duration": 3, "velocity": 59}, {"time": 8769, "pitch": 44, "duration": 7, "velocity": 70}, {"time": 8769, "pitch": 63, "duration": 8, "velocity": 67}, {"time": 8769, "pitch": 68, "duration": 9, "velocity": 73}, {"time": 8769, "pitch": 72, "duration": 9, "velocity": 73}, {"time": 8775, "pitch": 56, "duration": 7, "velocity": 53}, {"time": 8781, "pitch": 58, "duration": 27, "velocity": 72}, {"time": 8781, "pitch": 63, "duration": 5, "velocity": 55}, {"time": 8781, "pitch": 70, "duration": 9, "velocity": 63}, {"time": 8787, "pitch": 60, "duration": 8, "velocity": 70}, {"time": 8793, "pitch": 63, "duration": 7, "velocity": 73}, {"time": 8793, "pitch": 68, "duration": 7, "velocity": 72}, {"time": 8793, "pitch": 72, "duration": 8, "velocity": 75}, {"time": 8799, "pitch": 60, "duration": 5, "velocity": 53}, {"time": 8805, "pitch": 63, "duration": 5, "velocity": 54}, {"time": 8805, "pitch": 68, "duration": 4, "velocity": 69}, {"time": 8805, "pitch": 75, "duration": 6, "velocity": 73}, {"time": 8811, "pitch": 58, "duration": 2, "velocity": 52}, {"time": 8811, "pitch": 60, "duration": 2, "velocity": 70}, {"time": 8817, "pitch": 51, "duration": 39, "velocity": 73}, {"time": 8817, "pitch": 66, "duration": 5, "velocity": 73}, {"time": 8817, "pitch": 70, "duration": 5, "velocity": 69}, {"time": 8823, "pitch": 58, "duration": 29, "velocity": 63}, {"time": 8823, "pitch": 65, "duration": 3, "velocity": 61}, {"time": 8823, "pitch": 68, "duration": 5, "velocity": 73}, {"time": 8829, "pitch": 66, "duration": 2, "velocity": 70}, {"time": 8829, "pitch": 70, "duration": 3, "velocity": 70}, {"time": 8835, "pitch": 63, "duration": 8, "velocity": 50}, {"time": 8841, "pitch": 70, "duration": 8, "velocity": 59}, {"time": 8841, "pitch": 78, "duration": 9, "velocity": 66}, {"time": 8847, "pitch": 63, "duration": 6, "velocity": 48}, {"time": 8853, "pitch": 58, "duration": 1, "velocity": 46}, {"time": 8853, "pitch": 70, "duration": 3, "velocity": 73}, {"time": 8853, "pitch": 75, "duration": 4, "velocity": 78}, {"time": 8859, "pitch": 49, "duration": 2, "velocity": 63}, {"time": 8859, "pitch": 68, "duration": 2, "velocity": 46}, {"time": 8859, "pitch": 73, "duration": 5, "velocity": 60}, {"time": 8865, "pitch": 47, "duration": 41, "velocity": 72}, {"time": 8865, "pitch": 63, "duration": 13, "velocity": 63}, {"time": 8865, "pitch": 71, "duration": 12, "velocity": 41}, {"time": 8868, "pitch": 66, "duration": 6, "velocity": 11}, {"time": 8871, "pitch": 54, "duration": 28, "velocity": 67}, {"time": 8877, "pitch": 59, "duration": 20, "velocity": 70}, {"time": 8883, "pitch": 63, "duration": 2, "velocity": 69}, {"time": 8883, "pitch": 66, "duration": 2, "velocity": 66}, {"time": 8883, "pitch": 71, "duration": 4, "velocity": 72}, {"time": 8889, "pitch": 61, "duration": 3, "velocity": 62}, {"time": 8889, "pitch": 70, "duration": 3, "velocity": 69}, {"time": 8895, "pitch": 63, "duration": 5, "velocity": 63}, {"time": 8895, "pitch": 71, "duration": 7, "velocity": 75}, {"time": 8901, "pitch": 54, "duration": 5, "velocity": 34}, {"time": 8901, "pitch": 59, "duration": 5, "velocity": 56}, {"time": 8907, "pitch": 63, "duration": 2, "velocity": 63}, {"time": 8907, "pitch": 66, "duration": 1, "velocity": 54}, {"time": 8907, "pitch": 73, "duration": 3, "velocity": 70}, {"time": 8913, "pitch": 46, "duration": 40, "velocity": 76}, {"time": 8913, "pitch": 61, "duration": 7, "velocity": 63}, {"time": 8913, "pitch": 66, "duration": 6, "velocity": 58}, {"time": 8913, "pitch": 70, "duration": 9, "velocity": 66}, {"time": 8919, "pitch": 58, "duration": 14, "velocity": 60}, {"time": 8925, "pitch": 61, "duration": 5, "velocity": 59}, {"time": 8931, "pitch": 61, "duration": 8, "velocity": 70}, {"time": 8931, "pitch": 65, "duration": 8, "velocity": 73}, {"time": 8931, "pitch": 68, "duration": 8, "velocity": 69}, {"time": 8937, "pitch": 58, "duration": 9, "velocity": 53}, {"time": 8943, "pitch": 61, "duration": 6, "velocity": 58}, {"time": 8943, "pitch": 73, "duration": 7, "velocity": 62}, {"time": 8949, "pitch": 58, "duration": 3, "velocity": 52}, {"time": 8949, "pitch": 68, "duration": 5, "velocity": 64}, {"time": 8955, "pitch": 73, "duration": 5, "velocity": 61}, {"time": 8961, "pitch": 44, "duration": 10, "velocity": 70}, {"time": 8961, "pitch": 63, "duration": 25, "velocity": 59}, {"time": 8961, "pitch": 68, "duration": 25, "velocity": 76}, {"time": 8967, "pitch": 51, "duration": 6, "velocity": 56}, {"time": 8973, "pitch": 56, "duration": 8, "velocity": 69}, {"time": 8979, "pitch": 58, "duration": 15, "velocity": 62}, {"time": 8985, "pitch": 59, "duration": 11, "velocity": 61}, {"time": 8991, "pitch": 63, "duration": 5, "velocity": 62}, {"time": 8997, "pitch": 68, "duration": 5, "velocity": 69}, {"time": 9003, "pitch": 70, "duration": 4, "velocity": 67}, {"time": 9009, "pitch": 44, "duration": 12, "velocity": 70}, {"time": 9009, "pitch": 63, "duration": 9, "velocity": 60}, {"time": 9009, "pitch": 68, "duration": 7, "velocity": 61}, {"time": 9015, "pitch": 51, "duration": 7, "velocity": 62}, {"time": 9015, "pitch": 70, "duration": 5, "velocity": 76}, {"time": 9021, "pitch": 56, "duration": 7, "velocity": 60}, {"time": 9021, "pitch": 63, "duration": 5, "velocity": 60}, {"time": 9027, "pitch": 58, "duration": 18, "velocity": 64}, {"time": 9027, "pitch": 63, "duration": 7, "velocity": 55}, {"time": 9027, "pitch": 70, "duration": 8, "velocity": 67}, {"time": 9033, "pitch": 59, "duration": 10, "velocity": 63}, {"time": 9039, "pitch": 63, "duration": 8, "velocity": 72}, {"time": 9039, "pitch": 68, "duration": 7, "velocity": 76}, {"time": 9045, "pitch": 66, "duration": 4, "velocity": 76}, {"time": 9051, "pitch": 68, "duration": 5, "velocity": 64}, {"time": 9057, "pitch": 47, "duration": 42, "velocity": 70}, {"time": 9057, "pitch": 63, "duration": 9, "velocity": 45}, {"time": 9057, "pitch": 66, "duration": 11, "velocity": 59}, {"time": 9057, "pitch": 75, "duration": 7, "velocity": 49}, {"time": 9063, "pitch": 54, "duration": 36, "velocity": 62}, {"time": 9069, "pitch": 59, "duration": 12, "velocity": 72}, {"time": 9075, "pitch": 63, "duration": 4, "velocity": 51}, {"time": 9075, "pitch": 66, "duration": 4, "velocity": 62}, {"time": 9075, "pitch": 75, "duration": 4, "velocity": 49}, {"time": 9081, "pitch": 63, "duration": 6, "velocity": 66}, {"time": 9081, "pitch": 66, "duration": 6, "velocity": 72}, {"time": 9081, "pitch": 75, "duration": 5, "velocity": 73}, {"time": 9084, "pitch": 59, "duration": 5, "velocity": 49}, {"time": 9090, "pitch": 63, "duration": 5, "velocity": 57}, {"time": 9090, "pitch": 66, "duration": 5, "velocity": 63}, {"time": 9090, "pitch": 73, "duration": 5, "velocity": 75}, {"time": 9093, "pitch": 59, "duration": 6, "velocity": 62}, {"time": 9099, "pitch": 63, "duration": 2, "velocity": 49}, {"time": 9099, "pitch": 70, "duration": 4, "velocity": 66}, {"time": 9105, "pitch": 46, "duration": 39, "velocity": 70}, {"time": 9105, "pitch": 61, "duration": 8, "velocity": 73}, {"time": 9105, "pitch": 65, "duration": 7, "velocity": 52}, {"time": 9105, "pitch": 68, "duration": 8, "velocity": 64}, {"time": 9111, "pitch": 58, "duration": 14, "velocity": 63}, {"time": 9117, "pitch": 61, "duration": 5, "velocity": 54}, {"time": 9123, "pitch": 61, "duration": 8, "velocity": 72}, {"time": 9123, "pitch": 65, "duration": 8, "velocity": 73}, {"time": 9123, "pitch": 68, "duration": 9, "velocity": 72}, {"time": 9129, "pitch": 58, "duration": 9, "velocity": 52}, {"time": 9135, "pitch": 61, "duration": 7, "velocity": 72}, {"time": 9135, "pitch": 68, "duration": 5, "velocity": 44}, {"time": 9141, "pitch": 58, "duration": 4, "velocity": 58}, {"time": 9141, "pitch": 65, "duration": 3, "velocity": 75}, {"time": 9147, "pitch": 73, "duration": 4, "velocity": 72}, {"time": 9153, "pitch": 44, "duration": 6, "velocity": 70}, {"time": 9153, "pitch": 63, "duration": 8, "velocity": 59}, {"time": 9153, "pitch": 68, "duration": 9, "velocity": 69}, {"time": 9153, "pitch": 75, "duration": 9, "velocity": 66}, {"time": 9159, "pitch": 56, "duration": 8, "velocity": 47}, {"time": 9165, "pitch": 58, "duration": 26, "velocity": 69}, {"time": 9165, "pitch": 63, "duration": 3, "velocity": 57}, {"time": 9165, "pitch": 72, "duration": 5, "velocity": 63}, {"time": 9171, "pitch": 63, "duration": 8, "velocity": 69}, {"time": 9171, "pitch": 70, "duration": 9, "velocity": 75}, {"time": 9177, "pitch": 60, "duration": 8, "velocity": 61}, {"time": 9183, "pitch": 63, "duration": 6, "velocity": 70}, {"time": 9183, "pitch": 68, "duration": 6, "velocity": 75}, {"time": 9189, "pitch": 60, "duration": 2, "velocity": 67}, {"time": 9192, "pitch": 63, "duration": 4, "velocity": 69}, {"time": 9195, "pitch": 68, "duration": 5, "velocity": 72}, {"time": 9198, "pitch": 75, "duration": 7, "velocity": 61}, {"time": 9201, "pitch": 51, "duration": 33, "velocity": 66}, {"time": 9201, "pitch": 66, "duration": 10, "velocity": 52}, {"time": 9201, "pitch": 70, "duration": 9, "velocity": 67}, {"time": 9207, "pitch": 58, "duration": 26, "velocity": 51}, {"time": 9213, "pitch": 63, "duration": 7, "velocity": 66}, {"time": 9219, "pitch": 65, "duration": 4, "velocity": 67}, {"time": 9219, "pitch": 68, "duration": 6, "velocity": 69}, {"time": 9225, "pitch": 63, "duration": 9, "velocity": 56}, {"time": 9225, "pitch": 66, "duration": 2, "velocity": 70}, {"time": 9225, "pitch": 70, "duration": 5, "velocity": 72}, {"time": 9231, "pitch": 66, "duration": 6, "velocity": 67}, {"time": 9231, "pitch": 73, "duration": 4, "velocity": 69}, {"time": 9237, "pitch": 49, "duration": 4, "velocity": 63}, {"time": 9237, "pitch": 65, "duration": 4, "velocity": 69}, {"time": 9237, "pitch": 70, "duration": 5, "velocity": 67}, {"time": 9243, "pitch": 68, "duration": 5, "velocity": 67}, {"time": 9249, "pitch": 47, "duration": 40, "velocity": 76}, {"time": 9249, "pitch": 63, "duration": 14, "velocity": 63}, {"time": 9249, "pitch": 66, "duration": 11, "velocity": 66}, {"time": 9249, "pitch": 70, "duration": 12, "velocity": 64}, {"time": 9255, "pitch": 54, "duration": 33, "velocity": 58}, {"time": 9261, "pitch": 59, "duration": 9, "velocity": 60}, {"time": 9267, "pitch": 63, "duration": 14, "velocity": 64}, {"time": 9267, "pitch": 66, "duration": 13, "velocity": 75}, {"time": 9279, "pitch": 59, "duration": 8, "velocity": 58}, {"time": 9285, "pitch": 63, "duration": 5, "velocity": 76}, {"time": 9288, "pitch": 66, "duration": 7, "velocity": 48}, {"time": 9291, "pitch": 68, "duration": 4, "velocity": 60}, {"time": 9294, "pitch": 73, "duration": 4, "velocity": 29}, {"time": 9297, "pitch": 42, "duration": 43, "velocity": 67}, {"time": 9297, "pitch": 61, "duration": 8, "velocity": 60}, {"time": 9297, "pitch": 66, "duration": 9, "velocity": 59}, {"time": 9297, "pitch": 70, "duration": 14, "velocity": 50}, {"time": 9303, "pitch": 54, "duration": 14, "velocity": 60}, {"time": 9309, "pitch": 61, "duration": 3, "velocity": 59}, {"time": 9309, "pitch": 68, "duration": 6, "velocity": 62}, {"time": 9315, "pitch": 61, "duration": 9, "velocity": 63}, {"time": 9315, "pitch": 66, "duration": 9, "velocity": 66}, {"time": 9315, "pitch": 70, "duration": 10, "velocity": 66}, {"time": 9321, "pitch": 54, "duration": 14, "velocity": 44}, {"time": 9327, "pitch": 61, "duration": 5, "velocity": 64}, {"time": 9333, "pitch": 66, "duration": 7, "velocity": 78}, {"time": 9339, "pitch": 54, "duration": 4, "velocity": 53}, {"time": 9339, "pitch": 70, "duration": 3, "velocity": 72}, {"time": 9345, "pitch": 44, "duration": 10, "velocity": 75}, {"time": 9345, "pitch": 63, "duration": 24, "velocity": 58}, {"time": 9345, "pitch": 68, "duration": 23, "velocity": 70}, {"time": 9345, "pitch": 71, "duration": 24, "velocity": 61}, {"time": 9351, "pitch": 51, "duration": 6, "velocity": 61}, {"time": 9357, "pitch": 56, "duration": 7, "velocity": 53}, {"time": 9363, "pitch": 58, "duration": 20, "velocity": 62}, {"time": 9369, "pitch": 59, "duration": 8, "velocity": 67}, {"time": 9375, "pitch": 68, "duration": 2, "velocity": 73}, {"time": 9375, "pitch": 80, "duration": 3, "velocity": 64}, {"time": 9381, "pitch": 59, "duration": 2, "velocity": 64}, {"time": 9381, "pitch": 70, "duration": 2, "velocity": 60}, {"time": 9381, "pitch": 82, "duration": 3, "velocity": 53}, {"time": 9387, "pitch": 71, "duration": 2, "velocity": 66}, {"time": 9387, "pitch": 83, "duration": 3, "velocity": 76}, {"time": 9393, "pitch": 44, "duration": 12, "velocity": 69}, {"time": 9393, "pitch": 70, "duration": 9, "velocity": 63}, {"time": 9393, "pitch": 82, "duration": 8, "velocity": 78}, {"time": 9399, "pitch": 51, "duration": 7, "velocity": 70}, {"time": 9405, "pitch": 56, "duration": 7, "velocity": 67}, {"time": 9405, "pitch": 68, "duration": 12, "velocity": 54}, {"time": 9405, "pitch": 80, "duration": 12, "velocity": 75}, {"time": 9411, "pitch": 58, "duration": 12, "velocity": 69}], "annotations": [{"time": 34, "annotation": {"number": 64, "value": 127}, "group": "control_change"}, {"time": 84, "annotation": {"number": 64, "value": 0}, "group": "control_change"}, {"time": 88, "annotation": {"number": 64, "value": 127}, "group": "control_change"}, {"time": 132, "annotation": {"number": 64, "value": 0}, "group": "control_change"}, {"time": 135, "annotation": {"number": 64, "value": 127}, "group": "control_change"}, {"time": 177, "annotation": {"number": 64, "value": 0}, "group": "control_change"}, {"time": 180, "annotation": {"number": 64, "value": 127}, "group": "control_change"}, {"time": 224, "annotation": {"number": 64, "value": 0}, "group": "control_change"}, {"time": 227, "annotation": {"number": 64, "value": 127}, "group": "control_change"}, {"time": 274, "annotation": {"number": 64, "value": 0}, "group": "control_change"}, {"time": 277, "annotation": {"number": 64, "value": 127}, "group": "control_change"}, {"time": 292, "annotation": {"number": 64, "value": 0}, "group": "control_change"}, {"time": 296, "annotation": {"number": 64, "value": 127}, "group": "control_change"}, {"time": 322, "annotation": {"number": 64, "value": 0}, "group": "control_change"}, {"time": 325, "annotation": {"number": 64, "value": 127}, "group": "control_change"}, {"time": 366, "annotation": {"number": 64, "value": 0}, "group": "control_change"}, {"time": 370, "annotation": {"number": 64, "value": 127}, "group": "control_change"}, {"time": 384, "annotation": {"number": 64, "value": 0}, "group": "control_change"}, {"time": 389, "annotation": {"number": 64, "value": 127}, "group": "control_change"}, {"time": 416, "annotation": {"number": 64, "value": 0}, "group": "control_change"}, {"time": 417, "annotation": {"number": 64, "value": 127}, "group": "control_change"}, {"time": 465, "annotation": {"number": 64, "value": 0}, "group": "control_change"}, {"time": 470, "annotation": {"number": 64, "value": 127}, "group": "control_change"}, {"time": 513, "annotation": {"number": 64, "value": 0}, "group": "control_change"}, {"time": 517, "annotation": {"number": 64, "value": 127}, "group": "control_change"}, {"time": 561, "annotation": {"number": 64, "value": 0}, "group": "control_change"}, {"time": 567, "annotation": {"number": 64, "value": 127}, "group": "control_change"}, {"time": 610, "annotation": {"number": 64, "value": 0}, "group": "control_change"}, {"time": 616, "annotation": {"number": 64, "value": 127}, "group": "control_change"}, {"time": 657, "annotation": {"number": 64, "value": 0}, "group": "control_change"}, {"time": 658, "annotation": {"number": 64, "value": 127}, "group": "control_change"}, {"time": 707, "annotation": {"number": 64, "value": 0}, "group": "control_change"}, {"time": 712, "annotation": {"number": 64, "value": 127}, "group": "control_change"}, {"time": 752, "annotation": {"number": 64, "value": 0}, "group": "control_change"}, {"time": 759, "annotation": {"number": 64, "value": 127}, "group": "control_change"}, {"time": 801, "annotation": {"number": 64, "value": 0}, "group": "control_change"}, {"time": 803, "annotation": {"number": 64, "value": 127}, "group": "control_change"}, {"time": 850, "annotation": {"number": 64, "value": 0}, "group": "control_change"}, {"time": 856, "annotation": {"number": 64, "value": 127}, "group": "control_change"}, {"time": 896, "annotation": {"number": 64, "value": 127}, "group": "control_change"}, {"time": 899, "annotation": {"number": 64, "value": 0}, "group": "control_change"}, {"time": 946, "annotation": {"number": 64, "value": 0}, "group": "control_change"}, {"time": 952, "annotation": {"number": 64, "value": 127}, "group": "control_change"}, {"time": 992, "annotation": {"number": 64, "value": 127}, "group": "control_change"}, {"time": 993, "annotation": {"number": 64, "value": 0}, "group": "control_change"}, {"time": 1041, "annotation": {"number": 64, "value": 0}, "group": "control_change"}, {"time": 1046, "annotation": {"number": 64, "value": 127}, "group": "control_change"}, {"time": 1064, "annotation": {"number": 64, "value": 0}, "group": "control_change"}, {"time": 1069, "annotation": {"number": 64, "value": 127}, "group": "control_change"}, {"time": 1089, "annotation": {"number": 64, "value": 0}, "group": "control_change"}, {"time": 1095, "annotation": {"number": 64, "value": 127}, "group": "control_change"}, {"time": 1138, "annotation": {"number": 64, "value": 0}, "group": "control_change"}, {"time": 1143, "annotation": {"number": 64, "value": 127}, "group": "control_change"}, {"time": 1184, "annotation": {"number": 64, "value": 127}, "group": "control_change"}, {"time": 1185, "annotation": {"number": 64, "value": 0}, "group": "control_change"}, {"time": 1185, "annotation": {"number": 64, "value": 127}, "group": "control_change"}, {"time": 1234, "annotation": {"number": 64, "value": 0}, "group": "control_change"}, {"time": 1237, "annotation": {"number": 64, "value": 127}, "group": "control_change"}, {"time": 1279, "annotation": {"number": 64, "value": 0}, "group": "control_change"}, {"time": 1281, "annotation": {"number": 64, "value": 127}, "group": "control_change"}, {"time": 1305, "annotation": {"number": 64, "value": 0}, "group": "control_change"}, {"time": 1309, "annotation": {"number": 64, "value": 127}, "group": "control_change"}, {"time": 1329, "annotation": {"number": 64, "value": 0}, "group": "control_change"}, {"time": 1330, "annotation": {"number": 64, "value": 127}, "group": "control_change"}, {"time": 1377, "annotation": {"number": 64, "value": 0}, "group": "control_change"}, {"time": 1382, "annotation": {"number": 64, "value": 127}, "group": "control_change"}, {"time": 1443, "annotation": {"number": 64, "value": 0}, "group": "control_change"}, {"time": 1472, "annotation": {"number": 64, "value": 127}, "group": "control_change"}, {"time": 1473, "annotation": {"number": 64, "value": 0}, "group": "control_change"}, {"time": 1520, "annotation": {"number": 64, "value": 0}, "group": "control_change"}, {"time": 1525, "annotation": {"number": 64, "value": 127}, "group": "control_change"}, {"time": 1568, "annotation": {"number": 64, "value": 0}, "group": "control_change"}, {"time": 1573, "annotation": {"number": 64, "value": 127}, "group": "control_change"}, {"time": 1617, "annotation": {"number": 64, "value": 0}, "group": "control_change"}, {"time": 1621, "annotation": {"number": 64, "value": 127}, "group": "control_change"}, {"time": 1665, "annotation": {"number": 64, "value": 0}, "group": "control_change"}, {"time": 1669, "annotation": {"number": 64, "value": 127}, "group": "control_change"}, {"time": 1713, "annotation": {"number": 64, "value": 0}, "group": "control_change"}, {"time": 1719, "annotation": {"number": 64, "value": 127}, "group": "control_change"}, {"time": 1762, "annotation": {"number": 64, "value": 0}, "group": "control_change"}, {"time": 1766, "annotation": {"number": 64, "value": 127}, "group": "control_change"}, {"time": 1809, "annotation": {"number": 64, "value": 0}, "group": "control_change"}, {"time": 1815, "annotation": {"number": 64, "value": 127}, "group": "control_change"}, {"time": 1856, "annotation": {"number": 64, "value": 0}, "group": "control_change"}, {"time": 1862, "annotation": {"number": 64, "value": 127}, "group": "control_change"}, {"time": 1905, "annotation": {"number": 64, "value": 0}, "group": "control_change"}, {"time": 1909, "annotation": {"number": 64, "value": 127}, "group": "control_change"}, {"time": 1954, "annotation": {"number": 64, "value": 0}, "group": "control_change"}, {"time": 1959, "annotation": {"number": 64, "value": 127}, "group": "control_change"}, {"time": 2002, "annotation": {"number": 64, "value": 0}, "group": "control_change"}, {"time": 2007, "annotation": {"number": 64, "value": 127}, "group": "control_change"}, {"time": 2049, "annotation": {"number": 64, "value": 0}, "group": "control_change"}, {"time": 2050, "annotation": {"number": 64, "value": 127}, "group": "control_change"}, {"time": 2097, "annotation": {"number": 64, "value": 127}, "group": "control_change"}, {"time": 2119, "annotation": {"number": 64, "value": 0}, "group": "control_change"}, {"time": 2125, "annotation": {"number": 64, "value": 127}, "group": "control_change"}, {"time": 2144, "annotation": {"number": 64, "value": 0}, "group": "control_change"}, {"time": 2148, "annotation": {"number": 64, "value": 127}, "group": "control_change"}, {"time": 2192, "annotation": {"number": 64, "value": 0}, "group": "control_change"}, {"time": 2196, "annotation": {"number": 64, "value": 127}, "group": "control_change"}, {"time": 2240, "annotation": {"number": 64, "value": 0}, "group": "control_change"}, {"time": 2245, "annotation": {"number": 64, "value": 127}, "group": "control_change"}, {"time": 2336, "annotation": {"number": 64, "value": 0}, "group": "control_change"}, {"time": 2342, "annotation": {"number": 64, "value": 127}, "group": "control_change"}, {"time": 2361, "annotation": {"number": 64, "value": 0}, "group": "control_change"}, {"time": 2365, "annotation": {"number": 64, "value": 127}, "group": "control_change"}, {"time": 2382, "annotation": {"number": 64, "value": 0}, "group": "control_change"}, {"time": 2386, "annotation": {"number": 64, "value": 127}, "group": "control_change"}, {"time": 2480, "annotation": {"number": 64, "value": 127}, "group": "control_change"}, {"time": 2484, "annotation": {"number": 64, "value": 0}, "group": "control_change"}, {"time": 2504, "annotation": {"number": 64, "value": 127}, "group": "control_change"}, {"time": 2525, "annotation": {"number": 64, "value": 0}, "group": "control_change"}, {"time": 2535, "annotation": {"number": 64, "value": 127}, "group": "control_change"}, {"time": 2576, "annotation": {"number": 64, "value": 0}, "group": "control_change"}, {"time": 2579, "annotation": {"number": 64, "value": 127}, "group": "control_change"}, {"time": 2625, "annotation": {"number": 64, "value": 0}, "group": "control_change"}, {"time": 2628, "annotation": {"number": 64, "value": 127}, "group": "control_change"}, {"time": 2671, "annotation": {"number": 64, "value": 0}, "group": "control_change"}, {"time": 2675, "annotation": {"number": 64, "value": 127}, "group": "control_change"}, {"time": 2721, "annotation": {"number": 64, "value": 0}, "group": "control_change"}, {"time": 2727, "annotation": {"number": 64, "value": 127}, "group": "control_change"}, {"time": 2769, "annotation": {"number": 64, "value": 0}, "group": "control_change"}, {"time": 2776, "annotation": {"number": 64, "value": 127}, "group": "control_change"}, {"time": 2817, "annotation": {"number": 64, "value": 0}, "group": "control_change"}, {"time": 2819, "annotation": {"number": 64, "value": 127}, "group": "control_change"}, {"time": 2865, "annotation": {"number": 64, "value": 0}, "group": "control_change"}, {"time": 2872, "annotation": {"number": 64, "value": 127}, "group": "control_change"}, {"time": 2913, "annotation": {"number": 64, "value": 0}, "group": "control_change"}, {"time": 2915, "annotation": {"number": 64, "value": 127}, "group": "control_change"}, {"time": 2961, "annotation": {"number": 64, "value": 0}, "group": "control_change"}, {"time": 2968, "annotation": {"number": 64, "value": 127}, "group": "control_change"}, {"time": 3009, "annotation": {"number": 64, "value": 0}, "group": "control_change"}, {"time": 3013, "annotation": {"number": 64, "value": 127}, "group": "control_change"}, {"time": 3057, "annotation": {"number": 64, "value": 0}, "group": "control_change"}, {"time": 3065, "annotation": {"number": 64, "value": 127}, "group": "control_change"}, {"time": 3087, "annotation": {"number": 64, "value": 0}, "group": "control_change"}, {"time": 3088, "annotation": {"number": 64, "value": 127}, "group": "control_change"}, {"time": 3099, "annotation": {"number": 64, "value": 0}, "group": "control_change"}, {"time": 3113, "annotation": {"number": 64, "value": 127}, "group": "control_change"}, {"time": 3137, "annotation": {"number": 64, "value": 0}, "group": "control_change"}, {"time": 3159, "annotation": {"number": 64, "value": 127}, "group": "control_change"}, {"time": 3170, "annotation": {"number": 64, "value": 0}, "group": "control_change"}, {"time": 3210, "annotation": {"number": 64, "value": 127}, "group": "control_change"}, {"time": 3219, "annotation": {"number": 64, "value": 0}, "group": "control_change"}, {"time": 3220, "annotation": {"number": 64, "value": 127}, "group": "control_change"}, {"time": 3221, "annotation": {"number": 64, "value": 0}, "group": "control_change"}, {"time": 3258, "annotation": {"number": 64, "value": 127}, "group": "control_change"}, {"time": 3267, "annotation": {"number": 64, "value": 0}, "group": "control_change"}, {"time": 3300, "annotation": {"number": 64, "value": 127}, "group": "control_change"}, {"time": 3342, "annotation": {"number": 64, "value": 0}, "group": "control_change"}, {"time": 3400, "annotation": {"number": 64, "value": 127}, "group": "control_change"}, {"time": 3440, "annotation": {"number": 64, "value": 0}, "group": "control_change"}, {"time": 3447, "annotation": {"number": 64, "value": 127}, "group": "control_change"}, {"time": 3491, "annotation": {"number": 64, "value": 0}, "group": "control_change"}, {"time": 3496, "annotation": {"number": 64, "value": 127}, "group": "control_change"}, {"time": 3540, "annotation": {"number": 64, "value": 0}, "group": "control_change"}, {"time": 3543, "annotation": {"number": 64, "value": 127}, "group": "control_change"}, {"time": 3586, "annotation": {"number": 64, "value": 0}, "group": "control_change"}, {"time": 3590, "annotation": {"number": 64, "value": 127}, "group": "control_change"}, {"time": 3633, "annotation": {"number": 64, "value": 0}, "group": "control_change"}, {"time": 3637, "annotation": {"number": 64, "value": 127}, "group": "control_change"}, {"time": 3680, "annotation": {"number": 64, "value": 0}, "group": "control_change"}, {"time": 3685, "annotation": {"number": 64, "value": 127}, "group": "control_change"}, {"time": 3731, "annotation": {"number": 64, "value": 0}, "group": "control_change"}, {"time": 3734, "annotation": {"number": 64, "value": 127}, "group": "control_change"}, {"time": 3778, "annotation": {"number": 64, "value": 0}, "group": "control_change"}, {"time": 3782, "annotation": {"number": 64, "value": 127}, "group": "control_change"}, {"time": 3827, "annotation": {"number": 64, "value": 0}, "group": "control_change"}, {"time": 3831, "annotation": {"number": 64, "value": 127}, "group": "control_change"}, {"time": 3872, "annotation": {"number": 64, "value": 0}, "group": "control_change"}, {"time": 3877, "annotation": {"number": 64, "value": 127}, "group": "control_change"}, {"time": 3922, "annotation": {"number": 64, "value": 0}, "group": "control_change"}, {"time": 3926, "annotation": {"number": 64, "value": 127}, "group": "control_change"}, {"time": 3967, "annotation": {"number": 64, "value": 0}, "group": "control_change"}, {"time": 3970, "annotation": {"number": 64, "value": 127}, "group": "control_change"}, {"time": 4017, "annotation": {"number": 64, "value": 0}, "group": "control_change"}, {"time": 4021, "annotation": {"number": 64, "value": 127}, "group": "control_change"}, {"time": 4086, "annotation": {"number": 64, "value": 0}, "group": "control_change"}, {"time": 4088, "annotation": {"number": 64, "value": 127}, "group": "control_change"}, {"time": 4140, "annotation": {"number": 64, "value": 127}, "group": "control_change"}, {"time": 4161, "annotation": {"number": 64, "value": 0}, "group": "control_change"}, {"time": 4164, "annotation": {"number": 64, "value": 127}, "group": "control_change"}, {"time": 4179, "annotation": {"number": 64, "value": 0}, "group": "control_change"}, {"time": 4208, "annotation": {"number": 64, "value": 0}, "group": "control_change"}, {"time": 4211, "annotation": {"number": 64, "value": 127}, "group": "control_change"}, {"time": 4257, "annotation": {"number": 64, "value": 0}, "group": "control_change"}, {"time": 4261, "annotation": {"number": 64, "value": 127}, "group": "control_change"}, {"time": 4352, "annotation": {"number": 64, "value": 0}, "group": "control_change"}, {"time": 4356, "annotation": {"number": 64, "value": 127}, "group": "control_change"}, {"time": 4402, "annotation": {"number": 64, "value": 0}, "group": "control_change"}, {"time": 4406, "annotation": {"number": 64, "value": 127}, "group": "control_change"}, {"time": 4449, "annotation": {"number": 64, "value": 0}, "group": "control_change"}, {"time": 4452, "annotation": {"number": 64, "value": 127}, "group": "control_change"}, {"time": 4498, "annotation": {"number": 64, "value": 0}, "group": "control_change"}, {"time": 4501, "annotation": {"number": 64, "value": 127}, "group": "control_change"}, {"time": 4543, "annotation": {"number": 64, "value": 0}, "group": "control_change"}, {"time": 4592, "annotation": {"number": 64, "value": 0}, "group": "control_change"}, {"time": 4597, "annotation": {"number": 64, "value": 127}, "group": "control_change"}, {"time": 4640, "annotation": {"number": 64, "value": 0}, "group": "control_change"}, {"time": 4645, "annotation": {"number": 64, "value": 127}, "group": "control_change"}, {"time": 4689, "annotation": {"number": 64, "value": 0}, "group": "control_change"}, {"time": 4693, "annotation": {"number": 64, "value": 127}, "group": "control_change"}, {"time": 4737, "annotation": {"number": 64, "value": 0}, "group": "control_change"}, {"time": 4741, "annotation": {"number": 64, "value": 127}, "group": "control_change"}, {"time": 4785, "annotation": {"number": 64, "value": 0}, "group": "control_change"}, {"time": 4791, "annotation": {"number": 64, "value": 127}, "group": "control_change"}, {"time": 4834, "annotation": {"number": 64, "value": 0}, "group": "control_change"}, {"time": 4838, "annotation": {"number": 64, "value": 127}, "group": "control_change"}, {"time": 4881, "annotation": {"number": 64, "value": 0}, "group": "control_change"}, {"time": 4887, "annotation": {"number": 64, "value": 127}, "group": "control_change"}, {"time": 4928, "annotation": {"number": 64, "value": 0}, "group": "control_change"}, {"time": 4934, "annotation": {"number": 64, "value": 127}, "group": "control_change"}, {"time": 4977, "annotation": {"number": 64, "value": 0}, "group": "control_change"}, {"time": 4981, "annotation": {"number": 64, "value": 127}, "group": "control_change"}, {"time": 5026, "annotation": {"number": 64, "value": 0}, "group": "control_change"}, {"time": 5031, "annotation": {"number": 64, "value": 127}, "group": "control_change"}, {"time": 5074, "annotation": {"number": 64, "value": 0}, "group": "control_change"}, {"time": 5079, "annotation": {"number": 64, "value": 127}, "group": "control_change"}, {"time": 5121, "annotation": {"number": 64, "value": 0}, "group": "control_change"}, {"time": 5122, "annotation": {"number": 64, "value": 127}, "group": "control_change"}, {"time": 5169, "annotation": {"number": 64, "value": 127}, "group": "control_change"}, {"time": 5191, "annotation": {"number": 64, "value": 0}, "group": "control_change"}, {"time": 5197, "annotation": {"number": 64, "value": 127}, "group": "control_change"}, {"time": 5216, "annotation": {"number": 64, "value": 0}, "group": "control_change"}, {"time": 5220, "annotation": {"number": 64, "value": 127}, "group": "control_change"}, {"time": 5264, "annotation": {"number": 64, "value": 0}, "group": "control_change"}, {"time": 5268, "annotation": {"number": 64, "value": 127}, "group": "control_change"}, {"time": 5312, "annotation": {"number": 64, "value": 0}, "group": "control_change"}, {"time": 5317, "annotation": {"number": 64, "value": 127}, "group": "control_change"}, {"time": 5408, "annotation": {"number": 64, "value": 0}, "group": "control_change"}, {"time": 5414, "annotation": {"number": 64, "value": 127}, "group": "control_change"}, {"time": 5433, "annotation": {"number": 64, "value": 0}, "group": "control_change"}, {"time": 5437, "annotation": {"number": 64, "value": 127}, "group": "control_change"}, {"time": 5454, "annotation": {"number": 64, "value": 0}, "group": "control_change"}, {"time": 5458, "annotation": {"number": 64, "value": 127}, "group": "control_change"}, {"time": 5552, "annotation": {"number": 64, "value": 127}, "group": "control_change"}, {"time": 5553, "annotation": {"number": 64, "value": 0}, "group": "control_change"}, {"time": 5559, "annotation": {"number": 64, "value": 127}, "group": "control_change"}, {"time": 5600, "annotation": {"number": 64, "value": 0}, "group": "control_change"}, {"time": 5603, "annotation": {"number": 64, "value": 127}, "group": "control_change"}, {"time": 5649, "annotation": {"number": 64, "value": 0}, "group": "control_change"}, {"time": 5652, "annotation": {"number": 64, "value": 127}, "group": "control_change"}, {"time": 5695, "annotation": {"number": 64, "value": 0}, "group": "control_change"}, {"time": 5699, "annotation": {"number": 64, "value": 127}, "group": "control_change"}, {"time": 5745, "annotation": {"number": 64, "value": 0}, "group": "control_change"}, {"time": 5751, "annotation": {"number": 64, "value": 127}, "group": "control_change"}, {"time": 5793, "annotation": {"number": 64, "value": 0}, "group": "control_change"}, {"time": 5800, "annotation": {"number": 64, "value": 127}, "group": "control_change"}, {"time": 5841, "annotation": {"number": 64, "value": 0}, "group": "control_change"}, {"time": 5843, "annotation": {"number": 64, "value": 127}, "group": "control_change"}, {"time": 5889, "annotation": {"number": 64, "value": 0}, "group": "control_change"}, {"time": 5896, "annotation": {"number": 64, "value": 127}, "group": "control_change"}, {"time": 5937, "annotation": {"number": 64, "value": 0}, "group": "control_change"}, {"time": 5939, "annotation": {"number": 64, "value": 127}, "group": "control_change"}, {"time": 5985, "annotation": {"number": 64, "value": 0}, "group": "control_change"}, {"time": 5992, "annotation": {"number": 64, "value": 127}, "group": "control_change"}, {"time": 6033, "annotation": {"number": 64, "value": 0}, "group": "control_change"}, {"time": 6037, "annotation": {"number": 64, "value": 127}, "group": "control_change"}, {"time": 6081, "annotation": {"number": 64, "value": 0}, "group": "control_change"}, {"time": 6089, "annotation": {"number": 64, "value": 127}, "group": "control_change"}, {"time": 6111, "annotation": {"number": 64, "value": 0}, "group": "control_change"}, {"time": 6112, "annotation": {"number": 64, "value": 127}, "group": "control_change"}, {"time": 6123, "annotation": {"number": 64, "value": 0}, "group": "control_change"}, {"time": 6137, "annotation": {"number": 64, "value": 127}, "group": "control_change"}, {"time": 6161, "annotation": {"number": 64, "value": 0}, "group": "control_change"}, {"time": 6183, "annotation": {"number": 64, "value": 127}, "group": "control_change"}, {"time": 6194, "annotation": {"number": 64, "value": 0}, "group": "control_change"}, {"time": 6234, "annotation": {"number": 64, "value": 127}, "group": "control_change"}, {"time": 6243, "annotation": {"number": 64, "value": 0}, "group": "control_change"}, {"time": 6244, "annotation": {"number": 64, "value": 127}, "group": "control_change"}, {"time": 6245, "annotation": {"number": 64, "value": 0}, "group": "control_change"}, {"time": 6282, "annotation": {"number": 64, "value": 127}, "group": "control_change"}, {"time": 6291, "annotation": {"number": 64, "value": 0}, "group": "control_change"}, {"time": 6324, "annotation": {"number": 64, "value": 127}, "group": "control_change"}, {"time": 6366, "annotation": {"number": 64, "value": 0}, "group": "control_change"}, {"time": 6424, "annotation": {"number": 64, "value": 127}, "group": "control_change"}, {"time": 6464, "annotation": {"number": 64, "value": 0}, "group": "control_change"}, {"time": 6471, "annotation": {"number": 64, "value": 127}, "group": "control_change"}, {"time": 6515, "annotation": {"number": 64, "value": 0}, "group": "control_change"}, {"time": 6520, "annotation": {"number": 64, "value": 127}, "group": "control_change"}, {"time": 6564, "annotation": {"number": 64, "value": 0}, "group": "control_change"}, {"time": 6567, "annotation": {"number": 64, "value": 127}, "group": "control_change"}, {"time": 6609, "annotation": {"number": 64, "value": 0}, "group": "control_change"}, {"time": 6610, "annotation": {"number": 64, "value": 0}, "group": "control_change"}, {"time": 6614, "annotation": {"number": 64, "value": 127}, "group": "control_change"}, {"time": 6657, "annotation": {"number": 64, "value": 0}, "group": "control_change"}, {"time": 6661, "annotation": {"number": 64, "value": 127}, "group": "control_change"}, {"time": 6704, "annotation": {"number": 64, "value": 0}, "group": "control_change"}, {"time": 6709, "annotation": {"number": 64, "value": 127}, "group": "control_change"}, {"time": 6755, "annotation": {"number": 64, "value": 0}, "group": "control_change"}, {"time": 6758, "annotation": {"number": 64, "value": 127}, "group": "control_change"}, {"time": 6802, "annotation": {"number": 64, "value": 0}, "group": "control_change"}, {"time": 6806, "annotation": {"number": 64, "value": 127}, "group": "control_change"}, {"time": 6851, "annotation": {"number": 64, "value": 0}, "group": "control_change"}, {"time": 6855, "annotation": {"number": 64, "value": 127}, "group": "control_change"}, {"time": 6896, "annotation": {"number": 64, "value": 0}, "group": "control_change"}, {"time": 6901, "annotation": {"number": 64, "value": 127}, "group": "control_change"}, {"time": 6945, "annotation": {"number": 64, "value": 0}, "group": "control_change"}, {"time": 6947, "annotation": {"number": 64, "value": 127}, "group": "control_change"}, {"time": 6994, "annotation": {"number": 64, "value": 0}, "group": "control_change"}, {"time": 6998, "annotation": {"number": 64, "value": 127}, "group": "control_change"}, {"time": 7042, "annotation": {"number": 64, "value": 0}, "group": "control_change"}, {"time": 7046, "annotation": {"number": 64, "value": 127}, "group": "control_change"}, {"time": 7137, "annotation": {"number": 64, "value": 0}, "group": "control_change"}, {"time": 7140, "annotation": {"number": 64, "value": 127}, "group": "control_change"}, {"time": 7162, "annotation": {"number": 64, "value": 0}, "group": "control_change"}, {"time": 7165, "annotation": {"number": 64, "value": 127}, "group": "control_change"}, {"time": 7185, "annotation": {"number": 64, "value": 0}, "group": "control_change"}, {"time": 7187, "annotation": {"number": 64, "value": 127}, "group": "control_change"}, {"time": 7233, "annotation": {"number": 64, "value": 0}, "group": "control_change"}, {"time": 7234, "annotation": {"number": 64, "value": 127}, "group": "control_change"}, {"time": 7280, "annotation": {"number": 64, "value": 0}, "group": "control_change"}, {"time": 7282, "annotation": {"number": 64, "value": 0}, "group": "control_change"}, {"time": 7286, "annotation": {"number": 64, "value": 127}, "group": "control_change"}, {"time": 7329, "annotation": {"number": 64, "value": 0}, "group": "control_change"}, {"time": 7332, "annotation": {"number": 64, "value": 127}, "group": "control_change"}, {"time": 7377, "annotation": {"number": 64, "value": 0}, "group": "control_change"}, {"time": 7382, "annotation": {"number": 64, "value": 127}, "group": "control_change"}, {"time": 7494, "annotation": {"number": 64, "value": 0}, "group": "control_change"}, {"time": 7501, "annotation": {"number": 64, "value": 127}, "group": "control_change"}, {"time": 7521, "annotation": {"number": 64, "value": 0}, "group": "control_change"}, {"time": 7525, "annotation": {"number": 64, "value": 127}, "group": "control_change"}, {"time": 7618, "annotation": {"number": 64, "value": 0}, "group": "control_change"}, {"time": 7625, "annotation": {"number": 64, "value": 127}, "group": "control_change"}, {"time": 7666, "annotation": {"number": 64, "value": 0}, "group": "control_change"}, {"time": 7671, "annotation": {"number": 64, "value": 127}, "group": "control_change"}, {"time": 7697, "annotation": {"number": 64, "value": 0}, "group": "control_change"}, {"time": 7701, "annotation": {"number": 64, "value": 127}, "group": "control_change"}, {"time": 7714, "annotation": {"number": 64, "value": 0}, "group": "control_change"}, {"time": 7718, "annotation": {"number": 64, "value": 127}, "group": "control_change"}, {"time": 7809, "annotation": {"number": 64, "value": 0}, "group": "control_change"}, {"time": 7811, "annotation": {"number": 64, "value": 127}, "group": "control_change"}, {"time": 7905, "annotation": {"number": 64, "value": 0}, "group": "control_change"}, {"time": 7906, "annotation": {"number": 64, "value": 127}, "group": "control_change"}, {"time": 7953, "annotation": {"number": 64, "value": 0}, "group": "control_change"}, {"time": 7959, "annotation": {"number": 64, "value": 127}, "group": "control_change"}, {"time": 8000, "annotation": {"number": 64, "value": 0}, "group": "control_change"}, {"time": 8012, "annotation": {"number": 64, "value": 127}, "group": "control_change"}, {"time": 8094, "annotation": {"number": 64, "value": 0}, "group": "control_change"}, {"time": 8097, "annotation": {"number": 64, "value": 127}, "group": "control_change"}, {"time": 8193, "annotation": {"number": 64, "value": 0}, "group": "control_change"}, {"time": 8203, "annotation": {"number": 64, "value": 127}, "group": "control_change"}, {"time": 8242, "annotation": {"number": 64, "value": 0}, "group": "control_change"}, {"time": 8246, "annotation": {"number": 64, "value": 127}, "group": "control_change"}, {"time": 8290, "annotation": {"number": 64, "value": 127}, "group": "control_change"}, {"time": 8291, "annotation": {"number": 64, "value": 0}, "group": "control_change"}, {"time": 8337, "annotation": {"number": 64, "value": 0}, "group": "control_change"}, {"time": 8341, "annotation": {"number": 64, "value": 127}, "group": "control_change"}, {"time": 8384, "annotation": {"number": 64, "value": 0}, "group": "control_change"}, {"time": 8391, "annotation": {"number": 64, "value": 127}, "group": "control_change"}, {"time": 8432, "annotation": {"number": 64, "value": 0}, "group": "control_change"}, {"time": 8435, "annotation": {"number": 64, "value": 127}, "group": "control_change"}, {"time": 8481, "annotation": {"number": 64, "value": 0}, "group": "control_change"}, {"time": 8484, "annotation": {"number": 64, "value": 127}, "group": "control_change"}, {"time": 8527, "annotation": {"number": 64, "value": 0}, "group": "control_change"}, {"time": 8531, "annotation": {"number": 64, "value": 127}, "group": "control_change"}, {"time": 8577, "annotation": {"number": 64, "value": 0}, "group": "control_change"}, {"time": 8583, "annotation": {"number": 64, "value": 127}, "group": "control_change"}, {"time": 8625, "annotation": {"number": 64, "value": 0}, "group": "control_change"}, {"time": 8632, "annotation": {"number": 64, "value": 127}, "group": "control_change"}, {"time": 8673, "annotation": {"number": 64, "value": 0}, "group": "control_change"}, {"time": 8675, "annotation": {"number": 64, "value": 127}, "group": "control_change"}, {"time": 8721, "annotation": {"number": 64, "value": 0}, "group": "control_change"}, {"time": 8728, "annotation": {"number": 64, "value": 127}, "group": "control_change"}, {"time": 8769, "annotation": {"number": 64, "value": 0}, "group": "control_change"}, {"time": 8771, "annotation": {"number": 64, "value": 127}, "group": "control_change"}, {"time": 8817, "annotation": {"number": 64, "value": 0}, "group": "control_change"}, {"time": 8824, "annotation": {"number": 64, "value": 127}, "group": "control_change"}, {"time": 8865, "annotation": {"number": 64, "value": 0}, "group": "control_change"}, {"time": 8869, "annotation": {"number": 64, "value": 127}, "group": "control_change"}, {"time": 8913, "annotation": {"number": 64, "value": 0}, "group": "control_change"}, {"time": 8921, "annotation": {"number": 64, "value": 127}, "group": "control_change"}, {"time": 8943, "annotation": {"number": 64, "value": 0}, "group": "control_change"}, {"time": 8944, "annotation": {"number": 64, "value": 127}, "group": "control_change"}, {"time": 8955, "annotation": {"number": 64, "value": 0}, "group": "control_change"}, {"time": 8969, "annotation": {"number": 64, "value": 127}, "group": "control_change"}, {"time": 8993, "annotation": {"number": 64, "value": 0}, "group": "control_change"}, {"time": 9015, "annotation": {"number": 64, "value": 127}, "group": "control_change"}, {"time": 9026, "annotation": {"number": 64, "value": 0}, "group": "control_change"}, {"time": 9066, "annotation": {"number": 64, "value": 127}, "group": "control_change"}, {"time": 9075, "annotation": {"number": 64, "value": 0}, "group": "control_change"}, {"time": 9076, "annotation": {"number": 64, "value": 127}, "group": "control_change"}, {"time": 9077, "annotation": {"number": 64, "value": 0}, "group": "control_change"}, {"time": 9114, "annotation": {"number": 64, "value": 127}, "group": "control_change"}, {"time": 9123, "annotation": {"number": 64, "value": 0}, "group": "control_change"}, {"time": 9156, "annotation": {"number": 64, "value": 127}, "group": "control_change"}, {"time": 9198, "annotation": {"number": 64, "value": 0}, "group": "control_change"}, {"time": 9256, "annotation": {"number": 64, "value": 127}, "group": "control_change"}, {"time": 9296, "annotation": {"number": 64, "value": 0}, "group": "control_change"}, {"time": 9303, "annotation": {"number": 64, "value": 127}, "group": "control_change"}, {"time": 9347, "annotation": {"number": 64, "value": 0}, "group": "control_change"}, {"time": 9352, "annotation": {"number": 64, "value": 127}, "group": "control_change"}, {"time": 9396, "annotation": {"number": 64, "value": 0}, "group": "control_change"}, {"time": 9399, "annotation": {"number": 64, "value": 127}, "group": "control_change"}]}]}