{"metadata": {"schema_version": "0.2", "title": "None", "source_filename": "197.mid", "source_format": "midi"}, "resolution": 12, "tempos": [{"time": 0, "qpm": 123.00047355182318}], "key_signatures": [{"time": 0, "root": 0, "mode": "major"}], "time_signatures": [{"time": 0, "numerator": 4, "denominator": 4}], "tracks": [{"program": 4, "is_drum": false, "name": "MELODY", "notes": [{"time": 388, "pitch": 64, "duration": 7, "velocity": 63}, {"time": 400, "pitch": 72, "duration": 8, "velocity": 71}, {"time": 412, "pitch": 74, "duration": 9, "velocity": 89}, {"time": 424, "pitch": 72, "duration": 4, "velocity": 83}, {"time": 430, "pitch": 76, "duration": 10, "velocity": 87}, {"time": 442, "pitch": 72, "duration": 7, "velocity": 83}, {"time": 454, "pitch": 74, "duration": 8, "velocity": 93}, {"time": 466, "pitch": 72, "duration": 12, "velocity": 97}, {"time": 496, "pitch": 72, "duration": 8, "velocity": 71}, {"time": 508, "pitch": 74, "duration": 8, "velocity": 75}, {"time": 520, "pitch": 72, "duration": 3, "velocity": 80}, {"time": 526, "pitch": 76, "duration": 8, "velocity": 90}, {"time": 538, "pitch": 72, "duration": 7, "velocity": 77}, {"time": 550, "pitch": 72, "duration": 8, "velocity": 68}, {"time": 556, "pitch": 74, "duration": 7, "velocity": 84}, {"time": 562, "pitch": 76, "duration": 12, "velocity": 87}, {"time": 580, "pitch": 76, "duration": 31, "velocity": 106}, {"time": 610, "pitch": 74, "duration": 7, "velocity": 91}, {"time": 616, "pitch": 72, "duration": 7, "velocity": 87}, {"time": 622, "pitch": 74, "duration": 8, "velocity": 94}, {"time": 634, "pitch": 67, "duration": 19, "velocity": 94}, {"time": 646, "pitch": 67, "duration": 7, "velocity": 62}, {"time": 652, "pitch": 69, "duration": 6, "velocity": 71}, {"time": 658, "pitch": 72, "duration": 12, "velocity": 100}, {"time": 676, "pitch": 77, "duration": 10, "velocity": 100}, {"time": 688, "pitch": 76, "duration": 10, "velocity": 94}, {"time": 700, "pitch": 74, "duration": 11, "velocity": 89}, {"time": 712, "pitch": 72, "duration": 7, "velocity": 66}, {"time": 718, "pitch": 74, "duration": 13, "velocity": 87}, {"time": 730, "pitch": 76, "duration": 5, "velocity": 90}, {"time": 736, "pitch": 72, "duration": 7, "velocity": 64}, {"time": 742, "pitch": 74, "duration": 13, "velocity": 89}, {"time": 754, "pitch": 76, "duration": 11, "velocity": 95}, {"time": 772, "pitch": 64, "duration": 12, "velocity": 82}, {"time": 784, "pitch": 72, "duration": 12, "velocity": 83}, {"time": 796, "pitch": 74, "duration": 12, "velocity": 86}, {"time": 808, "pitch": 72, "duration": 6, "velocity": 66}, {"time": 814, "pitch": 76, "duration": 12, "velocity": 89}, {"time": 826, "pitch": 72, "duration": 8, "velocity": 85}, {"time": 838, "pitch": 72, "duration": 8, "velocity": 90}, {"time": 844, "pitch": 74, "duration": 7, "velocity": 90}, {"time": 850, "pitch": 72, "duration": 11, "velocity": 93}, {"time": 868, "pitch": 64, "duration": 8, "velocity": 86}, {"time": 880, "pitch": 72, "duration": 7, "velocity": 90}, {"time": 892, "pitch": 74, "duration": 9, "velocity": 98}, {"time": 904, "pitch": 72, "duration": 4, "velocity": 95}, {"time": 910, "pitch": 76, "duration": 7, "velocity": 90}, {"time": 922, "pitch": 72, "duration": 7, "velocity": 95}, {"time": 934, "pitch": 72, "duration": 4, "velocity": 93}, {"time": 940, "pitch": 74, "duration": 4, "velocity": 96}, {"time": 946, "pitch": 76, "duration": 12, "velocity": 91}, {"time": 964, "pitch": 76, "duration": 23, "velocity": 98}, {"time": 994, "pitch": 74, "duration": 7, "velocity": 90}, {"time": 1000, "pitch": 72, "duration": 7, "velocity": 82}, {"time": 1006, "pitch": 74, "duration": 10, "velocity": 83}, {"time": 1018, "pitch": 67, "duration": 7, "velocity": 81}, {"time": 1030, "pitch": 67, "duration": 4, "velocity": 79}, {"time": 1036, "pitch": 69, "duration": 4, "velocity": 91}, {"time": 1042, "pitch": 72, "duration": 9, "velocity": 95}, {"time": 1060, "pitch": 77, "duration": 8, "velocity": 101}, {"time": 1072, "pitch": 76, "duration": 8, "velocity": 97}, {"time": 1084, "pitch": 74, "duration": 11, "velocity": 96}, {"time": 1096, "pitch": 72, "duration": 4, "velocity": 86}, {"time": 1102, "pitch": 76, "duration": 10, "velocity": 97}, {"time": 1114, "pitch": 74, "duration": 8, "velocity": 83}, {"time": 1120, "pitch": 72, "duration": 9, "velocity": 83}, {"time": 1126, "pitch": 76, "duration": 15, "velocity": 90}, {"time": 1138, "pitch": 74, "duration": 10, "velocity": 96}, {"time": 1168, "pitch": 79, "duration": 8, "velocity": 97}, {"time": 1180, "pitch": 79, "duration": 10, "velocity": 96}, {"time": 1192, "pitch": 72, "duration": 5, "velocity": 84}, {"time": 1198, "pitch": 76, "duration": 12, "velocity": 96}, {"time": 1210, "pitch": 74, "duration": 12, "velocity": 87}, {"time": 1222, "pitch": 76, "duration": 9, "velocity": 98}, {"time": 1243, "pitch": 72, "duration": 5, "velocity": 71}, {"time": 1246, "pitch": 74, "duration": 7, "velocity": 66}, {"time": 1252, "pitch": 76, "duration": 12, "velocity": 98}, {"time": 1264, "pitch": 77, "duration": 7, "velocity": 95}, {"time": 1270, "pitch": 76, "duration": 7, "velocity": 103}, {"time": 1276, "pitch": 74, "duration": 12, "velocity": 91}, {"time": 1288, "pitch": 76, "duration": 12, "velocity": 96}, {"time": 1300, "pitch": 72, "duration": 23, "velocity": 101}, {"time": 1348, "pitch": 76, "duration": 13, "velocity": 93}, {"time": 1360, "pitch": 72, "duration": 7, "velocity": 95}, {"time": 1372, "pitch": 72, "duration": 11, "velocity": 87}, {"time": 1384, "pitch": 69, "duration": 7, "velocity": 77}, {"time": 1390, "pitch": 76, "duration": 12, "velocity": 105}, {"time": 1402, "pitch": 74, "duration": 23, "velocity": 101}, {"time": 1432, "pitch": 72, "duration": 8, "velocity": 98}, {"time": 1438, "pitch": 74, "duration": 22, "velocity": 108}, {"time": 1459, "pitch": 72, "duration": 42, "velocity": 93}, {"time": 1543, "pitch": 76, "duration": 5, "velocity": 97}, {"time": 1546, "pitch": 72, "duration": 3, "velocity": 90}, {"time": 1552, "pitch": 72, "duration": 4, "velocity": 90}, {"time": 1558, "pitch": 74, "duration": 8, "velocity": 97}, {"time": 1570, "pitch": 72, "duration": 9, "velocity": 98}, {"time": 1582, "pitch": 76, "duration": 9, "velocity": 103}, {"time": 1594, "pitch": 72, "duration": 3, "velocity": 82}, {"time": 1600, "pitch": 72, "duration": 4, "velocity": 91}, {"time": 1606, "pitch": 74, "duration": 3, "velocity": 90}, {"time": 1612, "pitch": 74, "duration": 5, "velocity": 94}, {"time": 1618, "pitch": 72, "duration": 7, "velocity": 91}, {"time": 1624, "pitch": 74, "duration": 7, "velocity": 100}, {"time": 1639, "pitch": 76, "duration": 4, "velocity": 109}, {"time": 1642, "pitch": 72, "duration": 3, "velocity": 87}, {"time": 1648, "pitch": 72, "duration": 3, "velocity": 92}, {"time": 1654, "pitch": 74, "duration": 8, "velocity": 100}, {"time": 1666, "pitch": 72, "duration": 7, "velocity": 100}, {"time": 1678, "pitch": 76, "duration": 7, "velocity": 114}, {"time": 1690, "pitch": 72, "duration": 3, "velocity": 97}, {"time": 1696, "pitch": 72, "duration": 4, "velocity": 93}, {"time": 1702, "pitch": 74, "duration": 3, "velocity": 97}, {"time": 1708, "pitch": 74, "duration": 5, "velocity": 100}, {"time": 1714, "pitch": 72, "duration": 4, "velocity": 97}, {"time": 1720, "pitch": 74, "duration": 6, "velocity": 108}, {"time": 1732, "pitch": 79, "duration": 30, "velocity": 97}, {"time": 1762, "pitch": 77, "duration": 7, "velocity": 90}, {"time": 1768, "pitch": 76, "duration": 6, "velocity": 92}, {"time": 1774, "pitch": 72, "duration": 10, "velocity": 90}, {"time": 1786, "pitch": 72, "duration": 19, "velocity": 92}, {"time": 1810, "pitch": 67, "duration": 7, "velocity": 67}, {"time": 1816, "pitch": 69, "duration": 6, "velocity": 85}, {"time": 1822, "pitch": 72, "duration": 3, "velocity": 96}, {"time": 1828, "pitch": 72, "duration": 6, "velocity": 94}, {"time": 1834, "pitch": 65, "duration": 4, "velocity": 62}, {"time": 1834, "pitch": 67, "duration": 6, "velocity": 62}, {"time": 1840, "pitch": 69, "duration": 6, "velocity": 82}, {"time": 1846, "pitch": 72, "duration": 3, "velocity": 92}, {"time": 1852, "pitch": 72, "duration": 5, "velocity": 96}, {"time": 1858, "pitch": 67, "duration": 7, "velocity": 65}, {"time": 1864, "pitch": 69, "duration": 6, "velocity": 77}, {"time": 1870, "pitch": 72, "duration": 4, "velocity": 92}, {"time": 1876, "pitch": 76, "duration": 10, "velocity": 90}, {"time": 1888, "pitch": 77, "duration": 6, "velocity": 77}, {"time": 1894, "pitch": 72, "duration": 9, "velocity": 93}, {"time": 1906, "pitch": 74, "duration": 15, "velocity": 105}, {"time": 1924, "pitch": 76, "duration": 5, "velocity": 100}, {"time": 1930, "pitch": 72, "duration": 3, "velocity": 93}, {"time": 1936, "pitch": 72, "duration": 3, "velocity": 94}, {"time": 1942, "pitch": 74, "duration": 7, "velocity": 100}, {"time": 1954, "pitch": 72, "duration": 7, "velocity": 101}, {"time": 1966, "pitch": 76, "duration": 10, "velocity": 101}, {"time": 1978, "pitch": 72, "duration": 3, "velocity": 97}, {"time": 1984, "pitch": 72, "duration": 4, "velocity": 90}, {"time": 1990, "pitch": 74, "duration": 3, "velocity": 93}, {"time": 1996, "pitch": 74, "duration": 4, "velocity": 95}, {"time": 2002, "pitch": 72, "duration": 3, "velocity": 97}, {"time": 2008, "pitch": 74, "duration": 6, "velocity": 105}, {"time": 2020, "pitch": 76, "duration": 4, "velocity": 95}, {"time": 2026, "pitch": 72, "duration": 3, "velocity": 89}, {"time": 2032, "pitch": 72, "duration": 3, "velocity": 93}, {"time": 2038, "pitch": 74, "duration": 7, "velocity": 99}, {"time": 2050, "pitch": 72, "duration": 6, "velocity": 97}, {"time": 2062, "pitch": 76, "duration": 7, "velocity": 97}, {"time": 2074, "pitch": 72, "duration": 2, "velocity": 95}, {"time": 2080, "pitch": 72, "duration": 2, "velocity": 90}, {"time": 2086, "pitch": 74, "duration": 2, "velocity": 89}, {"time": 2092, "pitch": 74, "duration": 5, "velocity": 91}, {"time": 2098, "pitch": 72, "duration": 3, "velocity": 87}, {"time": 2104, "pitch": 74, "duration": 4, "velocity": 97}, {"time": 2116, "pitch": 79, "duration": 25, "velocity": 106}, {"time": 2146, "pitch": 77, "duration": 8, "velocity": 101}, {"time": 2152, "pitch": 76, "duration": 7, "velocity": 87}, {"time": 2158, "pitch": 74, "duration": 11, "velocity": 90}, {"time": 2170, "pitch": 72, "duration": 15, "velocity": 99}, {"time": 2197, "pitch": 67, "duration": 5, "velocity": 87}, {"time": 2200, "pitch": 69, "duration": 5, "velocity": 90}, {"time": 2206, "pitch": 72, "duration": 3, "velocity": 97}, {"time": 2212, "pitch": 72, "duration": 5, "velocity": 105}, {"time": 2218, "pitch": 67, "duration": 6, "velocity": 82}, {"time": 2224, "pitch": 69, "duration": 6, "velocity": 90}, {"time": 2230, "pitch": 72, "duration": 3, "velocity": 96}, {"time": 2236, "pitch": 72, "duration": 5, "velocity": 101}, {"time": 2242, "pitch": 67, "duration": 7, "velocity": 89}, {"time": 2248, "pitch": 69, "duration": 5, "velocity": 89}, {"time": 2254, "pitch": 72, "duration": 3, "velocity": 93}, {"time": 2260, "pitch": 76, "duration": 11, "velocity": 98}, {"time": 2272, "pitch": 74, "duration": 4, "velocity": 87}, {"time": 2278, "pitch": 72, "duration": 7, "velocity": 98}, {"time": 2290, "pitch": 67, "duration": 7, "velocity": 92}, {"time": 2296, "pitch": 69, "duration": 5, "velocity": 97}, {"time": 2302, "pitch": 72, "duration": 3, "velocity": 99}, {"time": 2308, "pitch": 72, "duration": 6, "velocity": 105}, {"time": 2314, "pitch": 67, "duration": 6, "velocity": 90}, {"time": 2320, "pitch": 69, "duration": 7, "velocity": 91}, {"time": 2326, "pitch": 72, "duration": 3, "velocity": 101}, {"time": 2332, "pitch": 72, "duration": 5, "velocity": 99}, {"time": 2338, "pitch": 67, "duration": 8, "velocity": 64}, {"time": 2344, "pitch": 69, "duration": 5, "velocity": 92}, {"time": 2350, "pitch": 72, "duration": 5, "velocity": 96}, {"time": 2356, "pitch": 76, "duration": 12, "velocity": 85}, {"time": 2368, "pitch": 77, "duration": 5, "velocity": 100}, {"time": 2374, "pitch": 74, "duration": 10, "velocity": 97}, {"time": 2392, "pitch": 74, "duration": 5, "velocity": 100}, {"time": 2398, "pitch": 74, "duration": 8, "velocity": 97}, {"time": 2410, "pitch": 72, "duration": 32, "velocity": 89}, {"time": 3268, "pitch": 64, "duration": 7, "velocity": 63}, {"time": 3280, "pitch": 72, "duration": 8, "velocity": 71}, {"time": 3292, "pitch": 74, "duration": 9, "velocity": 89}, {"time": 3304, "pitch": 72, "duration": 4, "velocity": 83}, {"time": 3310, "pitch": 76, "duration": 10, "velocity": 87}, {"time": 3322, "pitch": 72, "duration": 7, "velocity": 83}, {"time": 3334, "pitch": 74, "duration": 8, "velocity": 93}, {"time": 3346, "pitch": 72, "duration": 12, "velocity": 97}, {"time": 3376, "pitch": 72, "duration": 8, "velocity": 71}, {"time": 3388, "pitch": 74, "duration": 8, "velocity": 75}, {"time": 3400, "pitch": 72, "duration": 3, "velocity": 80}, {"time": 3406, "pitch": 76, "duration": 8, "velocity": 90}, {"time": 3418, "pitch": 72, "duration": 7, "velocity": 77}, {"time": 3430, "pitch": 72, "duration": 8, "velocity": 68}, {"time": 3436, "pitch": 74, "duration": 7, "velocity": 84}, {"time": 3442, "pitch": 76, "duration": 12, "velocity": 87}, {"time": 3460, "pitch": 76, "duration": 31, "velocity": 106}, {"time": 3490, "pitch": 74, "duration": 7, "velocity": 91}, {"time": 3496, "pitch": 72, "duration": 7, "velocity": 87}, {"time": 3502, "pitch": 74, "duration": 8, "velocity": 94}, {"time": 3514, "pitch": 67, "duration": 19, "velocity": 94}, {"time": 3526, "pitch": 67, "duration": 7, "velocity": 62}, {"time": 3532, "pitch": 69, "duration": 6, "velocity": 71}, {"time": 3538, "pitch": 72, "duration": 12, "velocity": 100}, {"time": 3556, "pitch": 77, "duration": 10, "velocity": 100}, {"time": 3568, "pitch": 76, "duration": 10, "velocity": 94}, {"time": 3580, "pitch": 74, "duration": 11, "velocity": 89}, {"time": 3592, "pitch": 72, "duration": 7, "velocity": 66}, {"time": 3598, "pitch": 74, "duration": 13, "velocity": 87}, {"time": 3610, "pitch": 76, "duration": 5, "velocity": 90}, {"time": 3616, "pitch": 72, "duration": 7, "velocity": 64}, {"time": 3622, "pitch": 74, "duration": 13, "velocity": 89}, {"time": 3634, "pitch": 76, "duration": 11, "velocity": 95}, {"time": 3652, "pitch": 64, "duration": 12, "velocity": 82}, {"time": 3664, "pitch": 72, "duration": 12, "velocity": 83}, {"time": 3676, "pitch": 74, "duration": 12, "velocity": 86}, {"time": 3688, "pitch": 72, "duration": 6, "velocity": 66}, {"time": 3694, "pitch": 76, "duration": 12, "velocity": 89}, {"time": 3706, "pitch": 72, "duration": 8, "velocity": 85}, {"time": 3718, "pitch": 72, "duration": 8, "velocity": 90}, {"time": 3724, "pitch": 74, "duration": 7, "velocity": 90}, {"time": 3730, "pitch": 72, "duration": 11, "velocity": 93}, {"time": 3748, "pitch": 64, "duration": 8, "velocity": 86}, {"time": 3760, "pitch": 72, "duration": 7, "velocity": 90}, {"time": 3772, "pitch": 74, "duration": 9, "velocity": 98}, {"time": 3784, "pitch": 72, "duration": 4, "velocity": 95}, {"time": 3790, "pitch": 76, "duration": 7, "velocity": 90}, {"time": 3802, "pitch": 72, "duration": 7, "velocity": 95}, {"time": 3814, "pitch": 72, "duration": 4, "velocity": 93}, {"time": 3820, "pitch": 74, "duration": 4, "velocity": 96}, {"time": 3826, "pitch": 76, "duration": 12, "velocity": 91}, {"time": 3844, "pitch": 76, "duration": 23, "velocity": 98}, {"time": 3874, "pitch": 74, "duration": 7, "velocity": 90}, {"time": 3880, "pitch": 72, "duration": 7, "velocity": 82}, {"time": 3886, "pitch": 74, "duration": 10, "velocity": 83}, {"time": 3898, "pitch": 67, "duration": 7, "velocity": 81}, {"time": 3910, "pitch": 67, "duration": 4, "velocity": 79}, {"time": 3916, "pitch": 69, "duration": 4, "velocity": 91}, {"time": 3922, "pitch": 72, "duration": 9, "velocity": 95}, {"time": 3940, "pitch": 77, "duration": 8, "velocity": 101}, {"time": 3952, "pitch": 76, "duration": 8, "velocity": 97}, {"time": 3964, "pitch": 74, "duration": 11, "velocity": 96}, {"time": 3976, "pitch": 72, "duration": 4, "velocity": 86}, {"time": 3982, "pitch": 76, "duration": 10, "velocity": 97}, {"time": 3994, "pitch": 74, "duration": 8, "velocity": 83}, {"time": 4000, "pitch": 72, "duration": 9, "velocity": 83}, {"time": 4006, "pitch": 76, "duration": 15, "velocity": 90}, {"time": 4018, "pitch": 74, "duration": 10, "velocity": 96}, {"time": 4048, "pitch": 79, "duration": 8, "velocity": 97}, {"time": 4060, "pitch": 79, "duration": 10, "velocity": 96}, {"time": 4072, "pitch": 72, "duration": 5, "velocity": 84}, {"time": 4078, "pitch": 76, "duration": 12, "velocity": 96}, {"time": 4090, "pitch": 74, "duration": 12, "velocity": 87}, {"time": 4102, "pitch": 76, "duration": 9, "velocity": 98}, {"time": 4123, "pitch": 72, "duration": 5, "velocity": 71}, {"time": 4126, "pitch": 74, "duration": 7, "velocity": 66}, {"time": 4132, "pitch": 76, "duration": 12, "velocity": 98}, {"time": 4144, "pitch": 77, "duration": 7, "velocity": 95}, {"time": 4150, "pitch": 76, "duration": 7, "velocity": 103}, {"time": 4156, "pitch": 74, "duration": 12, "velocity": 91}, {"time": 4168, "pitch": 76, "duration": 12, "velocity": 96}, {"time": 4180, "pitch": 72, "duration": 23, "velocity": 101}, {"time": 4228, "pitch": 76, "duration": 13, "velocity": 93}, {"time": 4240, "pitch": 72, "duration": 7, "velocity": 95}, {"time": 4252, "pitch": 72, "duration": 11, "velocity": 87}, {"time": 4264, "pitch": 69, "duration": 7, "velocity": 77}, {"time": 4270, "pitch": 76, "duration": 12, "velocity": 105}, {"time": 4282, "pitch": 74, "duration": 23, "velocity": 101}, {"time": 4312, "pitch": 72, "duration": 8, "velocity": 98}, {"time": 4318, "pitch": 74, "duration": 22, "velocity": 108}, {"time": 4339, "pitch": 72, "duration": 42, "velocity": 93}, {"time": 4420, "pitch": 76, "duration": 5, "velocity": 97}, {"time": 4426, "pitch": 72, "duration": 3, "velocity": 90}, {"time": 4432, "pitch": 72, "duration": 4, "velocity": 90}, {"time": 4438, "pitch": 74, "duration": 8, "velocity": 97}, {"time": 4450, "pitch": 72, "duration": 9, "velocity": 98}, {"time": 4462, "pitch": 76, "duration": 9, "velocity": 103}, {"time": 4474, "pitch": 72, "duration": 3, "velocity": 82}, {"time": 4480, "pitch": 72, "duration": 4, "velocity": 91}, {"time": 4486, "pitch": 74, "duration": 3, "velocity": 90}, {"time": 4492, "pitch": 74, "duration": 5, "velocity": 94}, {"time": 4498, "pitch": 72, "duration": 7, "velocity": 91}, {"time": 4504, "pitch": 74, "duration": 7, "velocity": 100}, {"time": 4516, "pitch": 76, "duration": 4, "velocity": 109}, {"time": 4522, "pitch": 72, "duration": 3, "velocity": 87}, {"time": 4528, "pitch": 72, "duration": 3, "velocity": 92}, {"time": 4534, "pitch": 74, "duration": 8, "velocity": 100}, {"time": 4546, "pitch": 72, "duration": 7, "velocity": 100}, {"time": 4558, "pitch": 76, "duration": 7, "velocity": 114}, {"time": 4570, "pitch": 72, "duration": 3, "velocity": 97}, {"time": 4576, "pitch": 72, "duration": 4, "velocity": 93}, {"time": 4582, "pitch": 74, "duration": 3, "velocity": 97}, {"time": 4588, "pitch": 74, "duration": 5, "velocity": 100}, {"time": 4594, "pitch": 72, "duration": 4, "velocity": 97}, {"time": 4600, "pitch": 74, "duration": 6, "velocity": 108}, {"time": 4612, "pitch": 79, "duration": 30, "velocity": 97}, {"time": 4642, "pitch": 77, "duration": 7, "velocity": 90}, {"time": 4648, "pitch": 76, "duration": 6, "velocity": 92}, {"time": 4654, "pitch": 71, "duration": 10, "velocity": 90}, {"time": 4666, "pitch": 72, "duration": 19, "velocity": 92}, {"time": 4690, "pitch": 67, "duration": 7, "velocity": 67}, {"time": 4696, "pitch": 69, "duration": 6, "velocity": 85}, {"time": 4702, "pitch": 72, "duration": 3, "velocity": 96}, {"time": 4708, "pitch": 72, "duration": 6, "velocity": 94}, {"time": 4714, "pitch": 67, "duration": 6, "velocity": 62}, {"time": 4720, "pitch": 69, "duration": 6, "velocity": 82}, {"time": 4726, "pitch": 72, "duration": 3, "velocity": 92}, {"time": 4732, "pitch": 72, "duration": 5, "velocity": 96}, {"time": 4738, "pitch": 67, "duration": 7, "velocity": 65}, {"time": 4744, "pitch": 69, "duration": 6, "velocity": 77}, {"time": 4750, "pitch": 72, "duration": 4, "velocity": 92}, {"time": 4756, "pitch": 76, "duration": 10, "velocity": 90}, {"time": 4768, "pitch": 77, "duration": 6, "velocity": 77}, {"time": 4774, "pitch": 72, "duration": 9, "velocity": 93}, {"time": 4786, "pitch": 74, "duration": 15, "velocity": 105}, {"time": 4804, "pitch": 76, "duration": 6, "velocity": 100}, {"time": 4810, "pitch": 72, "duration": 3, "velocity": 93}, {"time": 4816, "pitch": 72, "duration": 3, "velocity": 94}, {"time": 4822, "pitch": 74, "duration": 7, "velocity": 100}, {"time": 4834, "pitch": 72, "duration": 7, "velocity": 101}, {"time": 4846, "pitch": 76, "duration": 10, "velocity": 101}, {"time": 4858, "pitch": 72, "duration": 3, "velocity": 97}, {"time": 4864, "pitch": 72, "duration": 4, "velocity": 90}, {"time": 4870, "pitch": 74, "duration": 3, "velocity": 93}, {"time": 4876, "pitch": 74, "duration": 4, "velocity": 95}, {"time": 4882, "pitch": 72, "duration": 3, "velocity": 97}, {"time": 4888, "pitch": 74, "duration": 6, "velocity": 105}, {"time": 4900, "pitch": 76, "duration": 4, "velocity": 95}, {"time": 4906, "pitch": 72, "duration": 3, "velocity": 89}, {"time": 4912, "pitch": 72, "duration": 3, "velocity": 93}, {"time": 4918, "pitch": 74, "duration": 7, "velocity": 99}, {"time": 4930, "pitch": 72, "duration": 6, "velocity": 97}, {"time": 4942, "pitch": 76, "duration": 7, "velocity": 97}, {"time": 4954, "pitch": 72, "duration": 2, "velocity": 95}, {"time": 4960, "pitch": 72, "duration": 2, "velocity": 90}, {"time": 4966, "pitch": 74, "duration": 2, "velocity": 89}, {"time": 4972, "pitch": 74, "duration": 5, "velocity": 91}, {"time": 4978, "pitch": 72, "duration": 3, "velocity": 87}, {"time": 4984, "pitch": 74, "duration": 4, "velocity": 97}, {"time": 4996, "pitch": 79, "duration": 25, "velocity": 106}, {"time": 5026, "pitch": 77, "duration": 8, "velocity": 101}, {"time": 5032, "pitch": 76, "duration": 7, "velocity": 87}, {"time": 5038, "pitch": 74, "duration": 11, "velocity": 90}, {"time": 5050, "pitch": 72, "duration": 15, "velocity": 99}, {"time": 5077, "pitch": 67, "duration": 5, "velocity": 87}, {"time": 5080, "pitch": 69, "duration": 5, "velocity": 90}, {"time": 5086, "pitch": 72, "duration": 3, "velocity": 97}, {"time": 5092, "pitch": 72, "duration": 5, "velocity": 105}, {"time": 5098, "pitch": 67, "duration": 6, "velocity": 82}, {"time": 5104, "pitch": 69, "duration": 6, "velocity": 90}, {"time": 5110, "pitch": 72, "duration": 3, "velocity": 96}, {"time": 5116, "pitch": 72, "duration": 5, "velocity": 101}, {"time": 5122, "pitch": 67, "duration": 7, "velocity": 89}, {"time": 5128, "pitch": 69, "duration": 5, "velocity": 89}, {"time": 5134, "pitch": 72, "duration": 3, "velocity": 93}, {"time": 5140, "pitch": 76, "duration": 11, "velocity": 98}, {"time": 5152, "pitch": 74, "duration": 4, "velocity": 87}, {"time": 5158, "pitch": 72, "duration": 7, "velocity": 98}, {"time": 5170, "pitch": 67, "duration": 7, "velocity": 92}, {"time": 5176, "pitch": 69, "duration": 5, "velocity": 97}, {"time": 5182, "pitch": 72, "duration": 3, "velocity": 99}, {"time": 5188, "pitch": 72, "duration": 6, "velocity": 105}, {"time": 5194, "pitch": 67, "duration": 6, "velocity": 90}, {"time": 5200, "pitch": 69, "duration": 7, "velocity": 91}, {"time": 5206, "pitch": 72, "duration": 3, "velocity": 101}, {"time": 5212, "pitch": 72, "duration": 5, "velocity": 99}, {"time": 5218, "pitch": 67, "duration": 8, "velocity": 64}, {"time": 5224, "pitch": 69, "duration": 5, "velocity": 92}, {"time": 5230, "pitch": 72, "duration": 5, "velocity": 96}, {"time": 5236, "pitch": 76, "duration": 12, "velocity": 85}, {"time": 5248, "pitch": 77, "duration": 5, "velocity": 100}, {"time": 5254, "pitch": 74, "duration": 10, "velocity": 97}, {"time": 5272, "pitch": 74, "duration": 5, "velocity": 100}, {"time": 5278, "pitch": 74, "duration": 8, "velocity": 97}, {"time": 5290, "pitch": 72, "duration": 43, "velocity": 89}, {"time": 5332, "pitch": 81, "duration": 18, "velocity": 108}, {"time": 5350, "pitch": 79, "duration": 3, "velocity": 127}, {"time": 5353, "pitch": 81, "duration": 3, "velocity": 127}, {"time": 5356, "pitch": 79, "duration": 21, "velocity": 127}, {"time": 5380, "pitch": 76, "duration": 5, "velocity": 100}, {"time": 5386, "pitch": 72, "duration": 3, "velocity": 93}, {"time": 5392, "pitch": 72, "duration": 3, "velocity": 94}, {"time": 5398, "pitch": 74, "duration": 7, "velocity": 100}, {"time": 5410, "pitch": 72, "duration": 7, "velocity": 101}, {"time": 5422, "pitch": 76, "duration": 10, "velocity": 101}, {"time": 5434, "pitch": 72, "duration": 3, "velocity": 97}, {"time": 5440, "pitch": 72, "duration": 4, "velocity": 90}, {"time": 5446, "pitch": 74, "duration": 3, "velocity": 93}, {"time": 5452, "pitch": 74, "duration": 4, "velocity": 95}, {"time": 5458, "pitch": 72, "duration": 3, "velocity": 97}, {"time": 5464, "pitch": 74, "duration": 7, "velocity": 105}, {"time": 5476, "pitch": 76, "duration": 6, "velocity": 95}, {"time": 5482, "pitch": 72, "duration": 3, "velocity": 89}, {"time": 5488, "pitch": 72, "duration": 3, "velocity": 93}, {"time": 5494, "pitch": 74, "duration": 7, "velocity": 99}, {"time": 5506, "pitch": 72, "duration": 6, "velocity": 97}, {"time": 5518, "pitch": 76, "duration": 7, "velocity": 97}, {"time": 5530, "pitch": 72, "duration": 2, "velocity": 95}, {"time": 5536, "pitch": 72, "duration": 2, "velocity": 90}, {"time": 5542, "pitch": 74, "duration": 2, "velocity": 89}, {"time": 5548, "pitch": 74, "duration": 5, "velocity": 91}, {"time": 5554, "pitch": 72, "duration": 3, "velocity": 87}, {"time": 5560, "pitch": 74, "duration": 4, "velocity": 97}, {"time": 5572, "pitch": 79, "duration": 25, "velocity": 106}, {"time": 5602, "pitch": 77, "duration": 8, "velocity": 101}, {"time": 5608, "pitch": 76, "duration": 7, "velocity": 87}, {"time": 5614, "pitch": 71, "duration": 11, "velocity": 90}, {"time": 5626, "pitch": 72, "duration": 15, "velocity": 99}, {"time": 5650, "pitch": 67, "duration": 8, "velocity": 87}, {"time": 5656, "pitch": 69, "duration": 6, "velocity": 90}, {"time": 5662, "pitch": 72, "duration": 4, "velocity": 97}, {"time": 5668, "pitch": 72, "duration": 5, "velocity": 105}, {"time": 5674, "pitch": 67, "duration": 6, "velocity": 82}, {"time": 5680, "pitch": 69, "duration": 6, "velocity": 90}, {"time": 5686, "pitch": 72, "duration": 3, "velocity": 96}, {"time": 5692, "pitch": 72, "duration": 5, "velocity": 101}, {"time": 5698, "pitch": 67, "duration": 7, "velocity": 89}, {"time": 5704, "pitch": 69, "duration": 5, "velocity": 89}, {"time": 5710, "pitch": 72, "duration": 3, "velocity": 93}, {"time": 5716, "pitch": 76, "duration": 12, "velocity": 98}, {"time": 5728, "pitch": 77, "duration": 6, "velocity": 87}, {"time": 5734, "pitch": 79, "duration": 9, "velocity": 98}, {"time": 5746, "pitch": 74, "duration": 13, "velocity": 92}, {"time": 5764, "pitch": 76, "duration": 5, "velocity": 100}, {"time": 5770, "pitch": 72, "duration": 3, "velocity": 93}, {"time": 5776, "pitch": 72, "duration": 3, "velocity": 94}, {"time": 5782, "pitch": 74, "duration": 7, "velocity": 100}, {"time": 5794, "pitch": 72, "duration": 7, "velocity": 101}, {"time": 5806, "pitch": 76, "duration": 10, "velocity": 101}, {"time": 5818, "pitch": 72, "duration": 3, "velocity": 97}, {"time": 5824, "pitch": 72, "duration": 4, "velocity": 90}, {"time": 5830, "pitch": 74, "duration": 3, "velocity": 93}, {"time": 5836, "pitch": 74, "duration": 4, "velocity": 95}, {"time": 5842, "pitch": 72, "duration": 3, "velocity": 97}, {"time": 5848, "pitch": 74, "duration": 7, "velocity": 105}, {"time": 5860, "pitch": 76, "duration": 6, "velocity": 95}, {"time": 5866, "pitch": 72, "duration": 3, "velocity": 89}, {"time": 5872, "pitch": 72, "duration": 3, "velocity": 93}, {"time": 5878, "pitch": 74, "duration": 7, "velocity": 99}, {"time": 5890, "pitch": 72, "duration": 6, "velocity": 97}, {"time": 5902, "pitch": 76, "duration": 7, "velocity": 97}, {"time": 5914, "pitch": 72, "duration": 2, "velocity": 95}, {"time": 5920, "pitch": 72, "duration": 2, "velocity": 90}, {"time": 5926, "pitch": 74, "duration": 2, "velocity": 89}, {"time": 5932, "pitch": 74, "duration": 5, "velocity": 91}, {"time": 5938, "pitch": 72, "duration": 3, "velocity": 87}, {"time": 5944, "pitch": 74, "duration": 4, "velocity": 97}, {"time": 5956, "pitch": 79, "duration": 25, "velocity": 106}, {"time": 5986, "pitch": 77, "duration": 8, "velocity": 101}, {"time": 5992, "pitch": 76, "duration": 7, "velocity": 87}, {"time": 5998, "pitch": 74, "duration": 10, "velocity": 100}, {"time": 6010, "pitch": 72, "duration": 15, "velocity": 99}, {"time": 6031, "pitch": 67, "duration": 8, "velocity": 87}, {"time": 6040, "pitch": 69, "duration": 6, "velocity": 90}, {"time": 6046, "pitch": 72, "duration": 4, "velocity": 97}, {"time": 6052, "pitch": 72, "duration": 5, "velocity": 105}, {"time": 6058, "pitch": 67, "duration": 6, "velocity": 82}, {"time": 6064, "pitch": 69, "duration": 6, "velocity": 90}, {"time": 6070, "pitch": 72, "duration": 3, "velocity": 96}, {"time": 6076, "pitch": 72, "duration": 5, "velocity": 101}, {"time": 6082, "pitch": 67, "duration": 7, "velocity": 89}, {"time": 6088, "pitch": 69, "duration": 5, "velocity": 89}, {"time": 6094, "pitch": 72, "duration": 3, "velocity": 93}, {"time": 6100, "pitch": 76, "duration": 12, "velocity": 98}, {"time": 6112, "pitch": 74, "duration": 6, "velocity": 87}, {"time": 6118, "pitch": 72, "duration": 9, "velocity": 98}, {"time": 6127, "pitch": 67, "duration": 8, "velocity": 87}, {"time": 6133, "pitch": 69, "duration": 7, "velocity": 90}, {"time": 6142, "pitch": 72, "duration": 4, "velocity": 97}, {"time": 6148, "pitch": 72, "duration": 5, "velocity": 105}, {"time": 6154, "pitch": 67, "duration": 6, "velocity": 82}, {"time": 6160, "pitch": 69, "duration": 6, "velocity": 90}, {"time": 6166, "pitch": 72, "duration": 3, "velocity": 96}, {"time": 6172, "pitch": 72, "duration": 5, "velocity": 101}, {"time": 6178, "pitch": 67, "duration": 7, "velocity": 89}, {"time": 6184, "pitch": 69, "duration": 5, "velocity": 89}, {"time": 6190, "pitch": 72, "duration": 3, "velocity": 93}, {"time": 6196, "pitch": 76, "duration": 12, "velocity": 98}, {"time": 6208, "pitch": 77, "duration": 6, "velocity": 87}, {"time": 6214, "pitch": 76, "duration": 13, "velocity": 98}, {"time": 6232, "pitch": 74, "duration": 5, "velocity": 100}, {"time": 6238, "pitch": 74, "duration": 12, "velocity": 100}, {"time": 6250, "pitch": 72, "duration": 15, "velocity": 100}, {"time": 6319, "pitch": 67, "duration": 8, "velocity": 87}, {"time": 6328, "pitch": 69, "duration": 6, "velocity": 90}, {"time": 6334, "pitch": 72, "duration": 4, "velocity": 97}, {"time": 6340, "pitch": 72, "duration": 5, "velocity": 105}, {"time": 6346, "pitch": 67, "duration": 6, "velocity": 82}, {"time": 6352, "pitch": 69, "duration": 6, "velocity": 90}, {"time": 6358, "pitch": 72, "duration": 3, "velocity": 96}, {"time": 6364, "pitch": 72, "duration": 5, "velocity": 101}, {"time": 6370, "pitch": 67, "duration": 7, "velocity": 89}, {"time": 6376, "pitch": 69, "duration": 5, "velocity": 89}, {"time": 6382, "pitch": 72, "duration": 3, "velocity": 93}, {"time": 6388, "pitch": 76, "duration": 15, "velocity": 98}, {"time": 6400, "pitch": 74, "duration": 10, "velocity": 87}, {"time": 6406, "pitch": 72, "duration": 11, "velocity": 98}, {"time": 6420, "pitch": 67, "duration": 10, "velocity": 87}, {"time": 6428, "pitch": 69, "duration": 7, "velocity": 90}, {"time": 6435, "pitch": 72, "duration": 3, "velocity": 97}, {"time": 6442, "pitch": 72, "duration": 7, "velocity": 93}, {"time": 6448, "pitch": 67, "duration": 6, "velocity": 85}, {"time": 6454, "pitch": 69, "duration": 7, "velocity": 93}, {"time": 6460, "pitch": 72, "duration": 2, "velocity": 85}, {"time": 6467, "pitch": 72, "duration": 7, "velocity": 104}, {"time": 6473, "pitch": 67, "duration": 7, "velocity": 91}, {"time": 6479, "pitch": 69, "duration": 7, "velocity": 99}, {"time": 6486, "pitch": 72, "duration": 8, "velocity": 104}, {"time": 6494, "pitch": 76, "duration": 11, "velocity": 100}, {"time": 6504, "pitch": 77, "duration": 10, "velocity": 110}, {"time": 6514, "pitch": 76, "duration": 24, "velocity": 95}, {"time": 6536, "pitch": 74, "duration": 10, "velocity": 110}, {"time": 6548, "pitch": 74, "duration": 22, "velocity": 112}, {"time": 6571, "pitch": 72, "duration": 3, "velocity": 73}, {"time": 6574, "pitch": 74, "duration": 3, "velocity": 65}, {"time": 6576, "pitch": 72, "duration": 58, "velocity": 81}], "annotations": [{"time": 775, "annotation": {"number": 64, "value": 127}, "group": "control_change"}, {"time": 783, "annotation": {"number": 64, "value": 0}, "group": "control_change"}, {"time": 860, "annotation": {"number": 64, "value": 127}, "group": "control_change"}, {"time": 1156, "annotation": {"number": 64, "value": 127}, "group": "control_change"}, {"time": 1161, "annotation": {"number": 64, "value": 0}, "group": "control_change"}, {"time": 3656, "annotation": {"number": 64, "value": 127}, "group": "control_change"}, {"time": 3664, "annotation": {"number": 64, "value": 0}, "group": "control_change"}, {"time": 3740, "annotation": {"number": 64, "value": 127}, "group": "control_change"}, {"time": 4036, "annotation": {"number": 64, "value": 127}, "group": "control_change"}, {"time": 4041, "annotation": {"number": 64, "value": 0}, "group": "control_change"}, {"time": 5746, "annotation": {"number": 64, "value": 0}, "group": "control_change"}]}, {"program": 0, "is_drum": false, "name": "PIANO", "notes": [{"time": 4, "pitch": 48, "duration": 23, "velocity": 59}, {"time": 16, "pitch": 55, "duration": 12, "velocity": 46}, {"time": 28, "pitch": 60, "duration": 13, "velocity": 44}, {"time": 40, "pitch": 62, "duration": 2, "velocity": 57}, {"time": 52, "pitch": 47, "duration": 38, "velocity": 55}, {"time": 100, "pitch": 57, "duration": 28, "velocity": 66}, {"time": 112, "pitch": 64, "duration": 16, "velocity": 40}, {"time": 124, "pitch": 69, "duration": 3, "velocity": 53}, {"time": 136, "pitch": 46, "duration": 42, "velocity": 51}, {"time": 136, "pitch": 58, "duration": 44, "velocity": 48}, {"time": 136, "pitch": 62, "duration": 43, "velocity": 41}, {"time": 136, "pitch": 65, "duration": 43, "velocity": 47}, {"time": 136, "pitch": 69, "duration": 45, "velocity": 44}, {"time": 196, "pitch": 48, "duration": 34, "velocity": 49}, {"time": 196, "pitch": 62, "duration": 15, "velocity": 54}, {"time": 196, "pitch": 64, "duration": 16, "velocity": 46}, {"time": 196, "pitch": 67, "duration": 13, "velocity": 50}, {"time": 196, "pitch": 72, "duration": 30, "velocity": 46}, {"time": 208, "pitch": 55, "duration": 22, "velocity": 44}, {"time": 220, "pitch": 60, "duration": 8, "velocity": 44}, {"time": 220, "pitch": 62, "duration": 10, "velocity": 53}, {"time": 220, "pitch": 67, "duration": 10, "velocity": 49}, {"time": 244, "pitch": 47, "duration": 36, "velocity": 46}, {"time": 244, "pitch": 62, "duration": 14, "velocity": 46}, {"time": 244, "pitch": 67, "duration": 13, "velocity": 48}, {"time": 244, "pitch": 71, "duration": 16, "velocity": 49}, {"time": 256, "pitch": 59, "duration": 23, "velocity": 35}, {"time": 268, "pitch": 62, "duration": 12, "velocity": 44}, {"time": 268, "pitch": 67, "duration": 11, "velocity": 47}, {"time": 292, "pitch": 58, "duration": 19, "velocity": 66}, {"time": 292, "pitch": 62, "duration": 20, "velocity": 54}, {"time": 292, "pitch": 65, "duration": 20, "velocity": 61}, {"time": 292, "pitch": 69, "duration": 20, "velocity": 63}, {"time": 328, "pitch": 43, "duration": 56, "velocity": 39}, {"time": 328, "pitch": 55, "duration": 56, "velocity": 44}, {"time": 328, "pitch": 59, "duration": 56, "velocity": 51}, {"time": 328, "pitch": 62, "duration": 30, "velocity": 50}, {"time": 328, "pitch": 67, "duration": 36, "velocity": 48}, {"time": 364, "pitch": 62, "duration": 21, "velocity": 46}, {"time": 376, "pitch": 67, "duration": 10, "velocity": 40}, {"time": 388, "pitch": 48, "duration": 37, "velocity": 62}, {"time": 388, "pitch": 64, "duration": 10, "velocity": 45}, {"time": 388, "pitch": 67, "duration": 10, "velocity": 49}, {"time": 388, "pitch": 72, "duration": 15, "velocity": 57}, {"time": 400, "pitch": 55, "duration": 27, "velocity": 29}, {"time": 412, "pitch": 60, "duration": 11, "velocity": 44}, {"time": 412, "pitch": 62, "duration": 13, "velocity": 48}, {"time": 412, "pitch": 67, "duration": 13, "velocity": 52}, {"time": 436, "pitch": 47, "duration": 46, "velocity": 60}, {"time": 436, "pitch": 62, "duration": 16, "velocity": 55}, {"time": 436, "pitch": 67, "duration": 17, "velocity": 60}, {"time": 436, "pitch": 74, "duration": 36, "velocity": 51}, {"time": 472, "pitch": 67, "duration": 9, "velocity": 70}, {"time": 484, "pitch": 45, "duration": 35, "velocity": 61}, {"time": 484, "pitch": 64, "duration": 12, "velocity": 59}, {"time": 484, "pitch": 67, "duration": 12, "velocity": 46}, {"time": 484, "pitch": 72, "duration": 12, "velocity": 63}, {"time": 508, "pitch": 64, "duration": 12, "velocity": 54}, {"time": 508, "pitch": 67, "duration": 11, "velocity": 57}, {"time": 508, "pitch": 72, "duration": 11, "velocity": 54}, {"time": 532, "pitch": 40, "duration": 38, "velocity": 47}, {"time": 532, "pitch": 52, "duration": 26, "velocity": 42}, {"time": 532, "pitch": 62, "duration": 14, "velocity": 47}, {"time": 532, "pitch": 67, "duration": 14, "velocity": 51}, {"time": 532, "pitch": 71, "duration": 21, "velocity": 47}, {"time": 556, "pitch": 62, "duration": 10, "velocity": 56}, {"time": 556, "pitch": 67, "duration": 9, "velocity": 67}, {"time": 568, "pitch": 52, "duration": 3, "velocity": 46}, {"time": 580, "pitch": 41, "duration": 39, "velocity": 54}, {"time": 580, "pitch": 53, "duration": 30, "velocity": 45}, {"time": 580, "pitch": 60, "duration": 13, "velocity": 55}, {"time": 580, "pitch": 65, "duration": 14, "velocity": 58}, {"time": 580, "pitch": 69, "duration": 14, "velocity": 54}, {"time": 604, "pitch": 60, "duration": 12, "velocity": 47}, {"time": 604, "pitch": 65, "duration": 12, "velocity": 49}, {"time": 604, "pitch": 69, "duration": 13, "velocity": 51}, {"time": 616, "pitch": 53, "duration": 4, "velocity": 46}, {"time": 628, "pitch": 40, "duration": 36, "velocity": 49}, {"time": 628, "pitch": 52, "duration": 29, "velocity": 45}, {"time": 628, "pitch": 60, "duration": 12, "velocity": 55}, {"time": 628, "pitch": 64, "duration": 12, "velocity": 55}, {"time": 628, "pitch": 67, "duration": 12, "velocity": 54}, {"time": 652, "pitch": 60, "duration": 10, "velocity": 49}, {"time": 652, "pitch": 64, "duration": 9, "velocity": 56}, {"time": 652, "pitch": 67, "duration": 10, "velocity": 56}, {"time": 664, "pitch": 52, "duration": 2, "velocity": 35}, {"time": 676, "pitch": 50, "duration": 35, "velocity": 54}, {"time": 676, "pitch": 60, "duration": 15, "velocity": 48}, {"time": 676, "pitch": 65, "duration": 15, "velocity": 57}, {"time": 676, "pitch": 69, "duration": 16, "velocity": 48}, {"time": 676, "pitch": 72, "duration": 16, "velocity": 43}, {"time": 700, "pitch": 60, "duration": 9, "velocity": 48}, {"time": 700, "pitch": 65, "duration": 8, "velocity": 52}, {"time": 700, "pitch": 69, "duration": 9, "velocity": 49}, {"time": 724, "pitch": 43, "duration": 36, "velocity": 61}, {"time": 724, "pitch": 60, "duration": 9, "velocity": 55}, {"time": 724, "pitch": 65, "duration": 11, "velocity": 57}, {"time": 724, "pitch": 69, "duration": 10, "velocity": 55}, {"time": 736, "pitch": 55, "duration": 24, "velocity": 42}, {"time": 748, "pitch": 62, "duration": 4, "velocity": 56}, {"time": 748, "pitch": 67, "duration": 4, "velocity": 63}, {"time": 748, "pitch": 71, "duration": 3, "velocity": 57}, {"time": 760, "pitch": 64, "duration": 3, "velocity": 47}, {"time": 760, "pitch": 72, "duration": 4, "velocity": 59}, {"time": 772, "pitch": 48, "duration": 37, "velocity": 52}, {"time": 772, "pitch": 64, "duration": 11, "velocity": 57}, {"time": 772, "pitch": 67, "duration": 11, "velocity": 66}, {"time": 772, "pitch": 72, "duration": 7, "velocity": 56}, {"time": 784, "pitch": 55, "duration": 15, "velocity": 48}, {"time": 796, "pitch": 60, "duration": 11, "velocity": 48}, {"time": 796, "pitch": 62, "duration": 12, "velocity": 51}, {"time": 796, "pitch": 64, "duration": 12, "velocity": 55}, {"time": 796, "pitch": 67, "duration": 10, "velocity": 60}, {"time": 808, "pitch": 55, "duration": 13, "velocity": 61}, {"time": 820, "pitch": 47, "duration": 49, "velocity": 62}, {"time": 820, "pitch": 62, "duration": 11, "velocity": 54}, {"time": 820, "pitch": 67, "duration": 8, "velocity": 67}, {"time": 832, "pitch": 55, "duration": 13, "velocity": 44}, {"time": 844, "pitch": 59, "duration": 13, "velocity": 40}, {"time": 844, "pitch": 62, "duration": 13, "velocity": 47}, {"time": 844, "pitch": 67, "duration": 10, "velocity": 58}, {"time": 844, "pitch": 74, "duration": 10, "velocity": 54}, {"time": 856, "pitch": 55, "duration": 1, "velocity": 39}, {"time": 856, "pitch": 71, "duration": 11, "velocity": 67}, {"time": 868, "pitch": 45, "duration": 36, "velocity": 44}, {"time": 868, "pitch": 64, "duration": 13, "velocity": 49}, {"time": 868, "pitch": 67, "duration": 13, "velocity": 55}, {"time": 868, "pitch": 72, "duration": 13, "velocity": 59}, {"time": 880, "pitch": 52, "duration": 13, "velocity": 43}, {"time": 892, "pitch": 57, "duration": 12, "velocity": 48}, {"time": 892, "pitch": 64, "duration": 11, "velocity": 48}, {"time": 892, "pitch": 67, "duration": 11, "velocity": 51}, {"time": 892, "pitch": 72, "duration": 18, "velocity": 63}, {"time": 904, "pitch": 52, "duration": 13, "velocity": 49}, {"time": 916, "pitch": 43, "duration": 47, "velocity": 60}, {"time": 916, "pitch": 62, "duration": 14, "velocity": 56}, {"time": 916, "pitch": 67, "duration": 13, "velocity": 56}, {"time": 916, "pitch": 71, "duration": 13, "velocity": 58}, {"time": 928, "pitch": 52, "duration": 13, "velocity": 49}, {"time": 940, "pitch": 55, "duration": 13, "velocity": 56}, {"time": 940, "pitch": 62, "duration": 12, "velocity": 53}, {"time": 940, "pitch": 67, "duration": 8, "velocity": 56}, {"time": 940, "pitch": 71, "duration": 11, "velocity": 64}, {"time": 949, "pitch": 52, "duration": 4, "velocity": 60}, {"time": 964, "pitch": 41, "duration": 37, "velocity": 70}, {"time": 964, "pitch": 60, "duration": 12, "velocity": 61}, {"time": 964, "pitch": 65, "duration": 12, "velocity": 62}, {"time": 964, "pitch": 69, "duration": 12, "velocity": 61}, {"time": 976, "pitch": 48, "duration": 14, "velocity": 40}, {"time": 988, "pitch": 53, "duration": 13, "velocity": 58}, {"time": 988, "pitch": 60, "duration": 10, "velocity": 64}, {"time": 988, "pitch": 65, "duration": 10, "velocity": 64}, {"time": 988, "pitch": 69, "duration": 12, "velocity": 57}, {"time": 1000, "pitch": 48, "duration": 10, "velocity": 61}, {"time": 1012, "pitch": 40, "duration": 37, "velocity": 67}, {"time": 1012, "pitch": 64, "duration": 14, "velocity": 58}, {"time": 1012, "pitch": 67, "duration": 13, "velocity": 54}, {"time": 1012, "pitch": 72, "duration": 12, "velocity": 58}, {"time": 1024, "pitch": 48, "duration": 14, "velocity": 48}, {"time": 1036, "pitch": 52, "duration": 13, "velocity": 59}, {"time": 1036, "pitch": 64, "duration": 11, "velocity": 64}, {"time": 1036, "pitch": 67, "duration": 12, "velocity": 66}, {"time": 1036, "pitch": 72, "duration": 15, "velocity": 62}, {"time": 1048, "pitch": 48, "duration": 3, "velocity": 62}, {"time": 1060, "pitch": 38, "duration": 36, "velocity": 69}, {"time": 1060, "pitch": 62, "duration": 14, "velocity": 59}, {"time": 1060, "pitch": 65, "duration": 13, "velocity": 70}, {"time": 1060, "pitch": 69, "duration": 13, "velocity": 59}, {"time": 1060, "pitch": 72, "duration": 12, "velocity": 56}, {"time": 1069, "pitch": 50, "duration": 18, "velocity": 39}, {"time": 1084, "pitch": 62, "duration": 12, "velocity": 63}, {"time": 1084, "pitch": 65, "duration": 12, "velocity": 72}, {"time": 1084, "pitch": 69, "duration": 13, "velocity": 67}, {"time": 1084, "pitch": 72, "duration": 9, "velocity": 44}, {"time": 1096, "pitch": 50, "duration": 3, "velocity": 53}, {"time": 1108, "pitch": 43, "duration": 38, "velocity": 72}, {"time": 1108, "pitch": 60, "duration": 11, "velocity": 66}, {"time": 1108, "pitch": 65, "duration": 12, "velocity": 66}, {"time": 1108, "pitch": 69, "duration": 11, "velocity": 66}, {"time": 1117, "pitch": 50, "duration": 14, "velocity": 33}, {"time": 1132, "pitch": 55, "duration": 11, "velocity": 48}, {"time": 1132, "pitch": 62, "duration": 14, "velocity": 62}, {"time": 1132, "pitch": 67, "duration": 12, "velocity": 67}, {"time": 1132, "pitch": 71, "duration": 9, "velocity": 62}, {"time": 1144, "pitch": 50, "duration": 2, "velocity": 49}, {"time": 1156, "pitch": 53, "duration": 37, "velocity": 66}, {"time": 1156, "pitch": 69, "duration": 7, "velocity": 59}, {"time": 1156, "pitch": 72, "duration": 9, "velocity": 67}, {"time": 1156, "pitch": 77, "duration": 10, "velocity": 70}, {"time": 1168, "pitch": 60, "duration": 16, "velocity": 46}, {"time": 1168, "pitch": 67, "duration": 4, "velocity": 55}, {"time": 1168, "pitch": 76, "duration": 9, "velocity": 62}, {"time": 1180, "pitch": 65, "duration": 6, "velocity": 59}, {"time": 1180, "pitch": 69, "duration": 3, "velocity": 66}, {"time": 1180, "pitch": 72, "duration": 4, "velocity": 75}, {"time": 1180, "pitch": 77, "duration": 4, "velocity": 76}, {"time": 1192, "pitch": 79, "duration": 5, "velocity": 66}, {"time": 1204, "pitch": 43, "duration": 34, "velocity": 69}, {"time": 1204, "pitch": 67, "duration": 8, "velocity": 57}, {"time": 1204, "pitch": 71, "duration": 8, "velocity": 60}, {"time": 1204, "pitch": 74, "duration": 7, "velocity": 66}, {"time": 1216, "pitch": 50, "duration": 16, "velocity": 28}, {"time": 1228, "pitch": 55, "duration": 4, "velocity": 58}, {"time": 1228, "pitch": 59, "duration": 3, "velocity": 72}, {"time": 1228, "pitch": 62, "duration": 3, "velocity": 69}, {"time": 1228, "pitch": 67, "duration": 5, "velocity": 69}, {"time": 1240, "pitch": 45, "duration": 13, "velocity": 55}, {"time": 1240, "pitch": 55, "duration": 5, "velocity": 53}, {"time": 1240, "pitch": 60, "duration": 6, "velocity": 47}, {"time": 1240, "pitch": 64, "duration": 7, "velocity": 46}, {"time": 1252, "pitch": 48, "duration": 25, "velocity": 70}, {"time": 1252, "pitch": 55, "duration": 11, "velocity": 62}, {"time": 1252, "pitch": 60, "duration": 13, "velocity": 70}, {"time": 1252, "pitch": 64, "duration": 17, "velocity": 63}, {"time": 1252, "pitch": 67, "duration": 11, "velocity": 58}, {"time": 1276, "pitch": 47, "duration": 14, "velocity": 63}, {"time": 1276, "pitch": 59, "duration": 12, "velocity": 73}, {"time": 1276, "pitch": 62, "duration": 12, "velocity": 70}, {"time": 1276, "pitch": 67, "duration": 12, "velocity": 62}, {"time": 1300, "pitch": 45, "duration": 15, "velocity": 66}, {"time": 1300, "pitch": 60, "duration": 12, "velocity": 64}, {"time": 1300, "pitch": 64, "duration": 12, "velocity": 70}, {"time": 1300, "pitch": 69, "duration": 12, "velocity": 66}, {"time": 1312, "pitch": 52, "duration": 27, "velocity": 45}, {"time": 1324, "pitch": 60, "duration": 8, "velocity": 60}, {"time": 1324, "pitch": 64, "duration": 11, "velocity": 66}, {"time": 1324, "pitch": 69, "duration": 11, "velocity": 67}, {"time": 1336, "pitch": 43, "duration": 7, "velocity": 70}, {"time": 1336, "pitch": 60, "duration": 5, "velocity": 43}, {"time": 1336, "pitch": 67, "duration": 7, "velocity": 67}, {"time": 1348, "pitch": 41, "duration": 36, "velocity": 67}, {"time": 1348, "pitch": 57, "duration": 12, "velocity": 49}, {"time": 1348, "pitch": 60, "duration": 7, "velocity": 51}, {"time": 1348, "pitch": 62, "duration": 10, "velocity": 48}, {"time": 1348, "pitch": 67, "duration": 10, "velocity": 49}, {"time": 1360, "pitch": 48, "duration": 13, "velocity": 46}, {"time": 1372, "pitch": 53, "duration": 11, "velocity": 53}, {"time": 1372, "pitch": 57, "duration": 13, "velocity": 63}, {"time": 1372, "pitch": 60, "duration": 12, "velocity": 72}, {"time": 1372, "pitch": 65, "duration": 9, "velocity": 72}, {"time": 1384, "pitch": 48, "duration": 6, "velocity": 43}, {"time": 1396, "pitch": 43, "duration": 38, "velocity": 66}, {"time": 1396, "pitch": 55, "duration": 11, "velocity": 62}, {"time": 1396, "pitch": 60, "duration": 12, "velocity": 72}, {"time": 1396, "pitch": 64, "duration": 12, "velocity": 75}, {"time": 1408, "pitch": 50, "duration": 14, "velocity": 41}, {"time": 1420, "pitch": 59, "duration": 14, "velocity": 72}, {"time": 1420, "pitch": 62, "duration": 13, "velocity": 76}, {"time": 1420, "pitch": 67, "duration": 14, "velocity": 70}, {"time": 1432, "pitch": 50, "duration": 2, "velocity": 66}, {"time": 1444, "pitch": 36, "duration": 36, "velocity": 64}, {"time": 1444, "pitch": 55, "duration": 12, "velocity": 70}, {"time": 1444, "pitch": 60, "duration": 13, "velocity": 73}, {"time": 1444, "pitch": 64, "duration": 13, "velocity": 73}, {"time": 1459, "pitch": 48, "duration": 12, "velocity": 39}, {"time": 1468, "pitch": 57, "duration": 12, "velocity": 63}, {"time": 1468, "pitch": 60, "duration": 11, "velocity": 72}, {"time": 1468, "pitch": 65, "duration": 10, "velocity": 73}, {"time": 1480, "pitch": 48, "duration": 53, "velocity": 57}, {"time": 1492, "pitch": 36, "duration": 39, "velocity": 66}, {"time": 1492, "pitch": 55, "duration": 39, "velocity": 63}, {"time": 1492, "pitch": 60, "duration": 38, "velocity": 72}, {"time": 1492, "pitch": 64, "duration": 39, "velocity": 66}, {"time": 1540, "pitch": 48, "duration": 43, "velocity": 64}, {"time": 1540, "pitch": 64, "duration": 10, "velocity": 63}, {"time": 1540, "pitch": 67, "duration": 10, "velocity": 67}, {"time": 1540, "pitch": 72, "duration": 15, "velocity": 72}, {"time": 1546, "pitch": 55, "duration": 25, "velocity": 57}, {"time": 1552, "pitch": 60, "duration": 22, "velocity": 55}, {"time": 1558, "pitch": 62, "duration": 6, "velocity": 60}, {"time": 1558, "pitch": 67, "duration": 9, "velocity": 61}, {"time": 1558, "pitch": 71, "duration": 10, "velocity": 72}, {"time": 1570, "pitch": 64, "duration": 4, "velocity": 67}, {"time": 1570, "pitch": 67, "duration": 4, "velocity": 66}, {"time": 1570, "pitch": 72, "duration": 4, "velocity": 72}, {"time": 1582, "pitch": 55, "duration": 6, "velocity": 52}, {"time": 1588, "pitch": 48, "duration": 17, "velocity": 69}, {"time": 1588, "pitch": 64, "duration": 10, "velocity": 66}, {"time": 1588, "pitch": 67, "duration": 13, "velocity": 66}, {"time": 1588, "pitch": 74, "duration": 10, "velocity": 70}, {"time": 1594, "pitch": 55, "duration": 16, "velocity": 66}, {"time": 1600, "pitch": 60, "duration": 4, "velocity": 80}, {"time": 1606, "pitch": 64, "duration": 2, "velocity": 46}, {"time": 1606, "pitch": 67, "duration": 3, "velocity": 62}, {"time": 1606, "pitch": 72, "duration": 5, "velocity": 78}, {"time": 1612, "pitch": 47, "duration": 18, "velocity": 69}, {"time": 1612, "pitch": 62, "duration": 13, "velocity": 82}, {"time": 1612, "pitch": 67, "duration": 13, "velocity": 76}, {"time": 1612, "pitch": 71, "duration": 14, "velocity": 76}, {"time": 1618, "pitch": 55, "duration": 11, "velocity": 69}, {"time": 1624, "pitch": 59, "duration": 4, "velocity": 85}, {"time": 1630, "pitch": 69, "duration": 6, "velocity": 59}, {"time": 1633, "pitch": 71, "duration": 3, "velocity": 66}, {"time": 1636, "pitch": 45, "duration": 42, "velocity": 73}, {"time": 1636, "pitch": 64, "duration": 12, "velocity": 72}, {"time": 1636, "pitch": 67, "duration": 13, "velocity": 69}, {"time": 1636, "pitch": 72, "duration": 12, "velocity": 62}, {"time": 1642, "pitch": 52, "duration": 39, "velocity": 50}, {"time": 1648, "pitch": 57, "duration": 18, "velocity": 76}, {"time": 1654, "pitch": 64, "duration": 3, "velocity": 69}, {"time": 1654, "pitch": 67, "duration": 3, "velocity": 75}, {"time": 1654, "pitch": 72, "duration": 8, "velocity": 76}, {"time": 1666, "pitch": 62, "duration": 4, "velocity": 72}, {"time": 1666, "pitch": 67, "duration": 2, "velocity": 61}, {"time": 1666, "pitch": 71, "duration": 6, "velocity": 78}, {"time": 1672, "pitch": 57, "duration": 5, "velocity": 61}, {"time": 1678, "pitch": 64, "duration": 15, "velocity": 75}, {"time": 1678, "pitch": 67, "duration": 15, "velocity": 75}, {"time": 1678, "pitch": 72, "duration": 14, "velocity": 78}, {"time": 1684, "pitch": 45, "duration": 18, "velocity": 70}, {"time": 1690, "pitch": 52, "duration": 19, "velocity": 73}, {"time": 1696, "pitch": 57, "duration": 5, "velocity": 88}, {"time": 1702, "pitch": 67, "duration": 4, "velocity": 61}, {"time": 1702, "pitch": 72, "duration": 5, "velocity": 72}, {"time": 1708, "pitch": 43, "duration": 16, "velocity": 70}, {"time": 1708, "pitch": 62, "duration": 13, "velocity": 75}, {"time": 1708, "pitch": 71, "duration": 9, "velocity": 82}, {"time": 1708, "pitch": 72, "duration": 1, "velocity": 49}, {"time": 1714, "pitch": 52, "duration": 9, "velocity": 73}, {"time": 1720, "pitch": 55, "duration": 3, "velocity": 88}, {"time": 1726, "pitch": 67, "duration": 5, "velocity": 70}, {"time": 1732, "pitch": 41, "duration": 10, "velocity": 73}, {"time": 1732, "pitch": 60, "duration": 22, "velocity": 73}, {"time": 1732, "pitch": 65, "duration": 24, "velocity": 73}, {"time": 1732, "pitch": 69, "duration": 25, "velocity": 75}, {"time": 1738, "pitch": 48, "duration": 6, "velocity": 69}, {"time": 1744, "pitch": 53, "duration": 8, "velocity": 70}, {"time": 1750, "pitch": 55, "duration": 12, "velocity": 62}, {"time": 1756, "pitch": 57, "duration": 6, "velocity": 69}, {"time": 1762, "pitch": 60, "duration": 4, "velocity": 82}, {"time": 1768, "pitch": 65, "duration": 6, "velocity": 66}, {"time": 1774, "pitch": 69, "duration": 4, "velocity": 63}, {"time": 1780, "pitch": 40, "duration": 8, "velocity": 72}, {"time": 1780, "pitch": 60, "duration": 15, "velocity": 73}, {"time": 1780, "pitch": 67, "duration": 16, "velocity": 66}, {"time": 1786, "pitch": 52, "duration": 8, "velocity": 60}, {"time": 1792, "pitch": 55, "duration": 21, "velocity": 69}, {"time": 1798, "pitch": 60, "duration": 8, "velocity": 69}, {"time": 1804, "pitch": 67, "duration": 5, "velocity": 63}, {"time": 1810, "pitch": 67, "duration": 1, "velocity": 45}, {"time": 1810, "pitch": 69, "duration": 7, "velocity": 67}, {"time": 1816, "pitch": 72, "duration": 8, "velocity": 78}, {"time": 1822, "pitch": 69, "duration": 14, "velocity": 69}, {"time": 1828, "pitch": 50, "duration": 37, "velocity": 66}, {"time": 1828, "pitch": 60, "duration": 8, "velocity": 88}, {"time": 1828, "pitch": 65, "duration": 8, "velocity": 75}, {"time": 1834, "pitch": 57, "duration": 15, "velocity": 72}, {"time": 1840, "pitch": 60, "duration": 4, "velocity": 49}, {"time": 1846, "pitch": 60, "duration": 14, "velocity": 76}, {"time": 1846, "pitch": 65, "duration": 14, "velocity": 69}, {"time": 1846, "pitch": 69, "duration": 14, "velocity": 73}, {"time": 1858, "pitch": 57, "duration": 5, "velocity": 72}, {"time": 1864, "pitch": 60, "duration": 4, "velocity": 85}, {"time": 1870, "pitch": 65, "duration": 3, "velocity": 70}, {"time": 1876, "pitch": 43, "duration": 25, "velocity": 76}, {"time": 1876, "pitch": 60, "duration": 9, "velocity": 85}, {"time": 1876, "pitch": 65, "duration": 11, "velocity": 75}, {"time": 1876, "pitch": 69, "duration": 10, "velocity": 70}, {"time": 1882, "pitch": 50, "duration": 19, "velocity": 67}, {"time": 1888, "pitch": 55, "duration": 6, "velocity": 91}, {"time": 1894, "pitch": 62, "duration": 2, "velocity": 85}, {"time": 1894, "pitch": 74, "duration": 3, "velocity": 85}, {"time": 1900, "pitch": 55, "duration": 8, "velocity": 85}, {"time": 1900, "pitch": 64, "duration": 2, "velocity": 67}, {"time": 1900, "pitch": 76, "duration": 3, "velocity": 82}, {"time": 1906, "pitch": 57, "duration": 10, "velocity": 41}, {"time": 1906, "pitch": 65, "duration": 3, "velocity": 60}, {"time": 1906, "pitch": 77, "duration": 3, "velocity": 78}, {"time": 1912, "pitch": 59, "duration": 3, "velocity": 67}, {"time": 1912, "pitch": 67, "duration": 2, "velocity": 57}, {"time": 1912, "pitch": 79, "duration": 3, "velocity": 80}, {"time": 1918, "pitch": 69, "duration": 2, "velocity": 56}, {"time": 1918, "pitch": 81, "duration": 3, "velocity": 73}, {"time": 1924, "pitch": 48, "duration": 10, "velocity": 69}, {"time": 1924, "pitch": 72, "duration": 14, "velocity": 69}, {"time": 1924, "pitch": 79, "duration": 24, "velocity": 72}, {"time": 1930, "pitch": 55, "duration": 5, "velocity": 66}, {"time": 1936, "pitch": 60, "duration": 7, "velocity": 67}, {"time": 1942, "pitch": 62, "duration": 16, "velocity": 59}, {"time": 1948, "pitch": 64, "duration": 9, "velocity": 66}, {"time": 1954, "pitch": 67, "duration": 8, "velocity": 88}, {"time": 1960, "pitch": 72, "duration": 4, "velocity": 76}, {"time": 1966, "pitch": 67, "duration": 10, "velocity": 69}, {"time": 1966, "pitch": 72, "duration": 15, "velocity": 67}, {"time": 1966, "pitch": 79, "duration": 15, "velocity": 78}, {"time": 1972, "pitch": 48, "duration": 14, "velocity": 73}, {"time": 1978, "pitch": 55, "duration": 16, "velocity": 72}, {"time": 1984, "pitch": 60, "duration": 4, "velocity": 76}, {"time": 1984, "pitch": 79, "duration": 3, "velocity": 30}, {"time": 1990, "pitch": 67, "duration": 3, "velocity": 67}, {"time": 1990, "pitch": 76, "duration": 3, "velocity": 73}, {"time": 1996, "pitch": 47, "duration": 18, "velocity": 70}, {"time": 1996, "pitch": 67, "duration": 10, "velocity": 70}, {"time": 1996, "pitch": 76, "duration": 8, "velocity": 76}, {"time": 2002, "pitch": 55, "duration": 10, "velocity": 67}, {"time": 2002, "pitch": 74, "duration": 4, "velocity": 72}, {"time": 2008, "pitch": 59, "duration": 4, "velocity": 73}, {"time": 2008, "pitch": 67, "duration": 9, "velocity": 69}, {"time": 2008, "pitch": 74, "duration": 5, "velocity": 72}, {"time": 2014, "pitch": 72, "duration": 4, "velocity": 75}, {"time": 2020, "pitch": 45, "duration": 11, "velocity": 73}, {"time": 2020, "pitch": 67, "duration": 25, "velocity": 70}, {"time": 2020, "pitch": 72, "duration": 25, "velocity": 75}, {"time": 2026, "pitch": 52, "duration": 6, "velocity": 59}, {"time": 2032, "pitch": 57, "duration": 7, "velocity": 51}, {"time": 2038, "pitch": 59, "duration": 19, "velocity": 66}, {"time": 2044, "pitch": 60, "duration": 12, "velocity": 63}, {"time": 2050, "pitch": 67, "duration": 4, "velocity": 70}, {"time": 2056, "pitch": 67, "duration": 2, "velocity": 40}, {"time": 2056, "pitch": 72, "duration": 8, "velocity": 67}, {"time": 2062, "pitch": 67, "duration": 8, "velocity": 69}, {"time": 2062, "pitch": 79, "duration": 8, "velocity": 75}, {"time": 2068, "pitch": 45, "duration": 17, "velocity": 64}, {"time": 2074, "pitch": 52, "duration": 17, "velocity": 70}, {"time": 2074, "pitch": 67, "duration": 5, "velocity": 72}, {"time": 2074, "pitch": 76, "duration": 9, "velocity": 76}, {"time": 2080, "pitch": 57, "duration": 6, "velocity": 72}, {"time": 2086, "pitch": 67, "duration": 16, "velocity": 61}, {"time": 2086, "pitch": 74, "duration": 10, "velocity": 80}, {"time": 2092, "pitch": 43, "duration": 18, "velocity": 58}, {"time": 2098, "pitch": 52, "duration": 11, "velocity": 64}, {"time": 2104, "pitch": 55, "duration": 5, "velocity": 78}, {"time": 2110, "pitch": 72, "duration": 6, "velocity": 62}, {"time": 2113, "pitch": 74, "duration": 3, "velocity": 60}, {"time": 2116, "pitch": 41, "duration": 44, "velocity": 66}, {"time": 2116, "pitch": 67, "duration": 11, "velocity": 66}, {"time": 2116, "pitch": 76, "duration": 9, "velocity": 59}, {"time": 2122, "pitch": 48, "duration": 44, "velocity": 63}, {"time": 2128, "pitch": 53, "duration": 16, "velocity": 73}, {"time": 2134, "pitch": 57, "duration": 8, "velocity": 69}, {"time": 2140, "pitch": 60, "duration": 10, "velocity": 73}, {"time": 2146, "pitch": 57, "duration": 8, "velocity": 60}, {"time": 2146, "pitch": 65, "duration": 9, "velocity": 64}, {"time": 2152, "pitch": 53, "duration": 4, "velocity": 48}, {"time": 2158, "pitch": 57, "duration": 8, "velocity": 73}, {"time": 2158, "pitch": 60, "duration": 9, "velocity": 66}, {"time": 2158, "pitch": 65, "duration": 20, "velocity": 78}, {"time": 2164, "pitch": 40, "duration": 43, "velocity": 69}, {"time": 2170, "pitch": 48, "duration": 37, "velocity": 64}, {"time": 2176, "pitch": 52, "duration": 16, "velocity": 78}, {"time": 2182, "pitch": 55, "duration": 8, "velocity": 69}, {"time": 2188, "pitch": 60, "duration": 5, "velocity": 76}, {"time": 2194, "pitch": 60, "duration": 8, "velocity": 49}, {"time": 2194, "pitch": 67, "duration": 9, "velocity": 72}, {"time": 2200, "pitch": 52, "duration": 7, "velocity": 62}, {"time": 2206, "pitch": 62, "duration": 5, "velocity": 69}, {"time": 2212, "pitch": 38, "duration": 36, "velocity": 73}, {"time": 2212, "pitch": 57, "duration": 9, "velocity": 67}, {"time": 2212, "pitch": 60, "duration": 9, "velocity": 59}, {"time": 2212, "pitch": 65, "duration": 10, "velocity": 78}, {"time": 2218, "pitch": 50, "duration": 14, "velocity": 57}, {"time": 2224, "pitch": 57, "duration": 3, "velocity": 67}, {"time": 2224, "pitch": 64, "duration": 5, "velocity": 73}, {"time": 2230, "pitch": 57, "duration": 8, "velocity": 64}, {"time": 2230, "pitch": 60, "duration": 9, "velocity": 76}, {"time": 2230, "pitch": 65, "duration": 8, "velocity": 76}, {"time": 2236, "pitch": 50, "duration": 14, "velocity": 51}, {"time": 2242, "pitch": 57, "duration": 5, "velocity": 62}, {"time": 2248, "pitch": 57, "duration": 2, "velocity": 40}, {"time": 2248, "pitch": 60, "duration": 4, "velocity": 64}, {"time": 2254, "pitch": 62, "duration": 4, "velocity": 61}, {"time": 2260, "pitch": 43, "duration": 39, "velocity": 66}, {"time": 2260, "pitch": 57, "duration": 9, "velocity": 64}, {"time": 2260, "pitch": 60, "duration": 15, "velocity": 72}, {"time": 2260, "pitch": 65, "duration": 8, "velocity": 73}, {"time": 2266, "pitch": 50, "duration": 33, "velocity": 72}, {"time": 2272, "pitch": 55, "duration": 8, "velocity": 72}, {"time": 2278, "pitch": 59, "duration": 9, "velocity": 80}, {"time": 2278, "pitch": 62, "duration": 9, "velocity": 76}, {"time": 2278, "pitch": 67, "duration": 8, "velocity": 75}, {"time": 2290, "pitch": 59, "duration": 8, "velocity": 73}, {"time": 2290, "pitch": 62, "duration": 5, "velocity": 69}, {"time": 2290, "pitch": 67, "duration": 6, "velocity": 70}, {"time": 2296, "pitch": 55, "duration": 2, "velocity": 70}, {"time": 2302, "pitch": 62, "duration": 5, "velocity": 67}, {"time": 2308, "pitch": 41, "duration": 33, "velocity": 67}, {"time": 2308, "pitch": 57, "duration": 15, "velocity": 70}, {"time": 2308, "pitch": 60, "duration": 15, "velocity": 70}, {"time": 2308, "pitch": 65, "duration": 12, "velocity": 72}, {"time": 2314, "pitch": 48, "duration": 29, "velocity": 67}, {"time": 2320, "pitch": 53, "duration": 14, "velocity": 72}, {"time": 2326, "pitch": 57, "duration": 3, "velocity": 64}, {"time": 2326, "pitch": 64, "duration": 5, "velocity": 73}, {"time": 2332, "pitch": 57, "duration": 2, "velocity": 48}, {"time": 2332, "pitch": 60, "duration": 9, "velocity": 75}, {"time": 2332, "pitch": 65, "duration": 8, "velocity": 61}, {"time": 2338, "pitch": 53, "duration": 5, "velocity": 56}, {"time": 2344, "pitch": 57, "duration": 3, "velocity": 59}, {"time": 2347, "pitch": 62, "duration": 1, "velocity": 36}, {"time": 2350, "pitch": 59, "duration": 18, "velocity": 69}, {"time": 2350, "pitch": 62, "duration": 16, "velocity": 67}, {"time": 2350, "pitch": 67, "duration": 15, "velocity": 72}, {"time": 2353, "pitch": 43, "duration": 1, "velocity": 57}, {"time": 2356, "pitch": 43, "duration": 31, "velocity": 75}, {"time": 2362, "pitch": 50, "duration": 26, "velocity": 69}, {"time": 2368, "pitch": 55, "duration": 12, "velocity": 78}, {"time": 2374, "pitch": 60, "duration": 13, "velocity": 88}, {"time": 2374, "pitch": 65, "duration": 13, "velocity": 78}, {"time": 2386, "pitch": 55, "duration": 3, "velocity": 67}, {"time": 2404, "pitch": 48, "duration": 87, "velocity": 63}, {"time": 2404, "pitch": 65, "duration": 12, "velocity": 64}, {"time": 2404, "pitch": 67, "duration": 12, "velocity": 73}, {"time": 2410, "pitch": 55, "duration": 80, "velocity": 46}, {"time": 2416, "pitch": 60, "duration": 12, "velocity": 73}, {"time": 2422, "pitch": 64, "duration": 29, "velocity": 67}, {"time": 2422, "pitch": 67, "duration": 32, "velocity": 60}, {"time": 2476, "pitch": 72, "duration": 2, "velocity": 78}, {"time": 2476, "pitch": 84, "duration": 3, "velocity": 78}, {"time": 2482, "pitch": 74, "duration": 2, "velocity": 73}, {"time": 2482, "pitch": 86, "duration": 2, "velocity": 85}, {"time": 2488, "pitch": 75, "duration": 2, "velocity": 73}, {"time": 2488, "pitch": 87, "duration": 2, "velocity": 82}, {"time": 2494, "pitch": 77, "duration": 2, "velocity": 78}, {"time": 2494, "pitch": 89, "duration": 2, "velocity": 88}, {"time": 2500, "pitch": 44, "duration": 40, "velocity": 70}, {"time": 2500, "pitch": 60, "duration": 10, "velocity": 61}, {"time": 2500, "pitch": 65, "duration": 10, "velocity": 40}, {"time": 2500, "pitch": 68, "duration": 11, "velocity": 55}, {"time": 2506, "pitch": 51, "duration": 38, "velocity": 63}, {"time": 2512, "pitch": 56, "duration": 30, "velocity": 64}, {"time": 2518, "pitch": 60, "duration": 6, "velocity": 66}, {"time": 2518, "pitch": 63, "duration": 10, "velocity": 67}, {"time": 2518, "pitch": 67, "duration": 10, "velocity": 66}, {"time": 2530, "pitch": 62, "duration": 9, "velocity": 41}, {"time": 2530, "pitch": 65, "duration": 10, "velocity": 44}, {"time": 2542, "pitch": 63, "duration": 6, "velocity": 57}, {"time": 2542, "pitch": 67, "duration": 8, "velocity": 53}, {"time": 2548, "pitch": 44, "duration": 10, "velocity": 69}, {"time": 2554, "pitch": 51, "duration": 5, "velocity": 62}, {"time": 2560, "pitch": 56, "duration": 7, "velocity": 59}, {"time": 2566, "pitch": 58, "duration": 19, "velocity": 50}, {"time": 2566, "pitch": 67, "duration": 6, "velocity": 54}, {"time": 2566, "pitch": 70, "duration": 7, "velocity": 63}, {"time": 2566, "pitch": 75, "duration": 8, "velocity": 63}, {"time": 2572, "pitch": 60, "duration": 12, "velocity": 63}, {"time": 2578, "pitch": 65, "duration": 4, "velocity": 53}, {"time": 2578, "pitch": 74, "duration": 9, "velocity": 75}, {"time": 2596, "pitch": 51, "duration": 36, "velocity": 63}, {"time": 2596, "pitch": 67, "duration": 9, "velocity": 54}, {"time": 2596, "pitch": 70, "duration": 10, "velocity": 57}, {"time": 2596, "pitch": 74, "duration": 10, "velocity": 59}, {"time": 2602, "pitch": 58, "duration": 37, "velocity": 49}, {"time": 2608, "pitch": 62, "duration": 20, "velocity": 47}, {"time": 2614, "pitch": 65, "duration": 8, "velocity": 44}, {"time": 2620, "pitch": 70, "duration": 6, "velocity": 42}, {"time": 2626, "pitch": 74, "duration": 7, "velocity": 69}, {"time": 2632, "pitch": 72, "duration": 5, "velocity": 56}, {"time": 2638, "pitch": 65, "duration": 11, "velocity": 52}, {"time": 2638, "pitch": 70, "duration": 16, "velocity": 70}, {"time": 2644, "pitch": 51, "duration": 34, "velocity": 64}, {"time": 2650, "pitch": 58, "duration": 28, "velocity": 62}, {"time": 2656, "pitch": 63, "duration": 17, "velocity": 76}, {"time": 2662, "pitch": 65, "duration": 4, "velocity": 64}, {"time": 2668, "pitch": 65, "duration": 2, "velocity": 43}, {"time": 2668, "pitch": 67, "duration": 3, "velocity": 59}, {"time": 2674, "pitch": 70, "duration": 4, "velocity": 60}, {"time": 2689, "pitch": 60, "duration": 17, "velocity": 57}, {"time": 2689, "pitch": 63, "duration": 13, "velocity": 70}, {"time": 2692, "pitch": 44, "duration": 41, "velocity": 69}, {"time": 2692, "pitch": 67, "duration": 14, "velocity": 73}, {"time": 2698, "pitch": 51, "duration": 38, "velocity": 63}, {"time": 2704, "pitch": 56, "duration": 17, "velocity": 70}, {"time": 2704, "pitch": 70, "duration": 3, "velocity": 20}, {"time": 2710, "pitch": 60, "duration": 7, "velocity": 57}, {"time": 2710, "pitch": 65, "duration": 9, "velocity": 67}, {"time": 2722, "pitch": 63, "duration": 7, "velocity": 64}, {"time": 2722, "pitch": 67, "duration": 8, "velocity": 60}, {"time": 2728, "pitch": 56, "duration": 6, "velocity": 57}, {"time": 2734, "pitch": 62, "duration": 3, "velocity": 54}, {"time": 2734, "pitch": 65, "duration": 5, "velocity": 55}, {"time": 2740, "pitch": 44, "duration": 33, "velocity": 69}, {"time": 2740, "pitch": 63, "duration": 13, "velocity": 69}, {"time": 2740, "pitch": 67, "duration": 11, "velocity": 78}, {"time": 2746, "pitch": 51, "duration": 27, "velocity": 55}, {"time": 2752, "pitch": 56, "duration": 9, "velocity": 66}, {"time": 2758, "pitch": 60, "duration": 13, "velocity": 58}, {"time": 2758, "pitch": 63, "duration": 14, "velocity": 72}, {"time": 2758, "pitch": 67, "duration": 13, "velocity": 67}, {"time": 2770, "pitch": 56, "duration": 2, "velocity": 66}, {"time": 2788, "pitch": 39, "duration": 6, "velocity": 70}, {"time": 2788, "pitch": 58, "duration": 17, "velocity": 57}, {"time": 2788, "pitch": 62, "duration": 20, "velocity": 67}, {"time": 2788, "pitch": 67, "duration": 17, "velocity": 70}, {"time": 2794, "pitch": 51, "duration": 7, "velocity": 54}, {"time": 2800, "pitch": 53, "duration": 16, "velocity": 60}, {"time": 2806, "pitch": 55, "duration": 9, "velocity": 72}, {"time": 2812, "pitch": 58, "duration": 4, "velocity": 75}, {"time": 2818, "pitch": 58, "duration": 1, "velocity": 44}, {"time": 2818, "pitch": 62, "duration": 5, "velocity": 76}, {"time": 2824, "pitch": 63, "duration": 5, "velocity": 70}, {"time": 2830, "pitch": 58, "duration": 14, "velocity": 69}, {"time": 2830, "pitch": 65, "duration": 14, "velocity": 72}, {"time": 2836, "pitch": 39, "duration": 32, "velocity": 67}, {"time": 2842, "pitch": 51, "duration": 14, "velocity": 85}, {"time": 2848, "pitch": 58, "duration": 4, "velocity": 52}, {"time": 2854, "pitch": 58, "duration": 13, "velocity": 72}, {"time": 2854, "pitch": 62, "duration": 13, "velocity": 78}, {"time": 2854, "pitch": 67, "duration": 13, "velocity": 78}, {"time": 2866, "pitch": 51, "duration": 3, "velocity": 72}, {"time": 2884, "pitch": 47, "duration": 41, "velocity": 70}, {"time": 2884, "pitch": 63, "duration": 13, "velocity": 67}, {"time": 2884, "pitch": 66, "duration": 13, "velocity": 78}, {"time": 2884, "pitch": 71, "duration": 16, "velocity": 67}, {"time": 2884, "pitch": 73, "duration": 13, "velocity": 67}, {"time": 2890, "pitch": 54, "duration": 38, "velocity": 66}, {"time": 2896, "pitch": 59, "duration": 19, "velocity": 72}, {"time": 2902, "pitch": 61, "duration": 7, "velocity": 72}, {"time": 2902, "pitch": 68, "duration": 9, "velocity": 59}, {"time": 2914, "pitch": 61, "duration": 7, "velocity": 64}, {"time": 2914, "pitch": 66, "duration": 8, "velocity": 75}, {"time": 2920, "pitch": 59, "duration": 4, "velocity": 60}, {"time": 2926, "pitch": 61, "duration": 3, "velocity": 48}, {"time": 2932, "pitch": 46, "duration": 38, "velocity": 73}, {"time": 2932, "pitch": 61, "duration": 11, "velocity": 69}, {"time": 2932, "pitch": 66, "duration": 11, "velocity": 69}, {"time": 2932, "pitch": 70, "duration": 11, "velocity": 64}, {"time": 2938, "pitch": 54, "duration": 31, "velocity": 62}, {"time": 2944, "pitch": 58, "duration": 17, "velocity": 61}, {"time": 2950, "pitch": 61, "duration": 9, "velocity": 73}, {"time": 2950, "pitch": 66, "duration": 10, "velocity": 76}, {"time": 2962, "pitch": 61, "duration": 7, "velocity": 72}, {"time": 2962, "pitch": 66, "duration": 8, "velocity": 78}, {"time": 2962, "pitch": 73, "duration": 8, "velocity": 70}, {"time": 2968, "pitch": 58, "duration": 3, "velocity": 64}, {"time": 2980, "pitch": 44, "duration": 33, "velocity": 69}, {"time": 2980, "pitch": 63, "duration": 8, "velocity": 67}, {"time": 2980, "pitch": 66, "duration": 8, "velocity": 75}, {"time": 2980, "pitch": 71, "duration": 9, "velocity": 75}, {"time": 2986, "pitch": 51, "duration": 28, "velocity": 60}, {"time": 2992, "pitch": 61, "duration": 2, "velocity": 47}, {"time": 2992, "pitch": 70, "duration": 3, "velocity": 49}, {"time": 2998, "pitch": 63, "duration": 7, "velocity": 57}, {"time": 2998, "pitch": 66, "duration": 7, "velocity": 66}, {"time": 2998, "pitch": 71, "duration": 8, "velocity": 97}, {"time": 3004, "pitch": 56, "duration": 11, "velocity": 59}, {"time": 3010, "pitch": 66, "duration": 4, "velocity": 72}, {"time": 3016, "pitch": 68, "duration": 6, "velocity": 62}, {"time": 3022, "pitch": 73, "duration": 4, "velocity": 63}, {"time": 3028, "pitch": 54, "duration": 39, "velocity": 73}, {"time": 3028, "pitch": 66, "duration": 6, "velocity": 73}, {"time": 3028, "pitch": 70, "duration": 7, "velocity": 69}, {"time": 3034, "pitch": 61, "duration": 22, "velocity": 66}, {"time": 3040, "pitch": 66, "duration": 17, "velocity": 59}, {"time": 3046, "pitch": 70, "duration": 3, "velocity": 62}, {"time": 3046, "pitch": 77, "duration": 8, "velocity": 75}, {"time": 3058, "pitch": 68, "duration": 8, "velocity": 91}, {"time": 3058, "pitch": 73, "duration": 9, "velocity": 88}, {"time": 3064, "pitch": 61, "duration": 2, "velocity": 78}, {"time": 3076, "pitch": 56, "duration": 31, "velocity": 64}, {"time": 3076, "pitch": 60, "duration": 21, "velocity": 62}, {"time": 3076, "pitch": 63, "duration": 22, "velocity": 62}, {"time": 3076, "pitch": 67, "duration": 22, "velocity": 72}, {"time": 3079, "pitch": 44, "duration": 37, "velocity": 23}, {"time": 3100, "pitch": 60, "duration": 13, "velocity": 69}, {"time": 3100, "pitch": 63, "duration": 13, "velocity": 80}, {"time": 3100, "pitch": 67, "duration": 13, "velocity": 75}, {"time": 3112, "pitch": 56, "duration": 4, "velocity": 70}, {"time": 3124, "pitch": 43, "duration": 38, "velocity": 69}, {"time": 3124, "pitch": 55, "duration": 29, "velocity": 64}, {"time": 3124, "pitch": 62, "duration": 19, "velocity": 63}, {"time": 3124, "pitch": 65, "duration": 19, "velocity": 72}, {"time": 3124, "pitch": 67, "duration": 19, "velocity": 73}, {"time": 3148, "pitch": 62, "duration": 15, "velocity": 61}, {"time": 3148, "pitch": 65, "duration": 14, "velocity": 64}, {"time": 3148, "pitch": 67, "duration": 14, "velocity": 61}, {"time": 3148, "pitch": 70, "duration": 14, "velocity": 70}, {"time": 3160, "pitch": 55, "duration": 3, "velocity": 73}, {"time": 3172, "pitch": 38, "duration": 36, "velocity": 72}, {"time": 3172, "pitch": 53, "duration": 30, "velocity": 72}, {"time": 3172, "pitch": 60, "duration": 20, "velocity": 69}, {"time": 3172, "pitch": 65, "duration": 20, "velocity": 70}, {"time": 3172, "pitch": 69, "duration": 20, "velocity": 66}, {"time": 3172, "pitch": 67, "duration": 21, "velocity": 28}, {"time": 3196, "pitch": 60, "duration": 13, "velocity": 72}, {"time": 3196, "pitch": 65, "duration": 13, "velocity": 70}, {"time": 3196, "pitch": 67, "duration": 14, "velocity": 73}, {"time": 3196, "pitch": 69, "duration": 13, "velocity": 72}, {"time": 3208, "pitch": 53, "duration": 3, "velocity": 88}, {"time": 3220, "pitch": 43, "duration": 37, "velocity": 73}, {"time": 3220, "pitch": 62, "duration": 18, "velocity": 64}, {"time": 3220, "pitch": 67, "duration": 18, "velocity": 69}, {"time": 3220, "pitch": 71, "duration": 19, "velocity": 67}, {"time": 3238, "pitch": 55, "duration": 17, "velocity": 44}, {"time": 3244, "pitch": 62, "duration": 8, "velocity": 62}, {"time": 3244, "pitch": 74, "duration": 12, "velocity": 72}, {"time": 3250, "pitch": 71, "duration": 6, "velocity": 64}, {"time": 3256, "pitch": 69, "duration": 8, "velocity": 58}, {"time": 3262, "pitch": 62, "duration": 7, "velocity": 40}, {"time": 3262, "pitch": 67, "duration": 9, "velocity": 59}, {"time": 3268, "pitch": 48, "duration": 37, "velocity": 62}, {"time": 3268, "pitch": 64, "duration": 10, "velocity": 45}, {"time": 3268, "pitch": 67, "duration": 3, "velocity": 49}, {"time": 3268, "pitch": 72, "duration": 15, "velocity": 57}, {"time": 3280, "pitch": 55, "duration": 27, "velocity": 29}, {"time": 3292, "pitch": 60, "duration": 11, "velocity": 44}, {"time": 3292, "pitch": 62, "duration": 13, "velocity": 48}, {"time": 3292, "pitch": 67, "duration": 13, "velocity": 52}, {"time": 3316, "pitch": 47, "duration": 46, "velocity": 60}, {"time": 3316, "pitch": 62, "duration": 16, "velocity": 55}, {"time": 3316, "pitch": 67, "duration": 17, "velocity": 60}, {"time": 3316, "pitch": 74, "duration": 36, "velocity": 51}, {"time": 3352, "pitch": 67, "duration": 9, "velocity": 70}, {"time": 3364, "pitch": 45, "duration": 35, "velocity": 61}, {"time": 3364, "pitch": 64, "duration": 12, "velocity": 59}, {"time": 3364, "pitch": 67, "duration": 12, "velocity": 46}, {"time": 3364, "pitch": 72, "duration": 12, "velocity": 63}, {"time": 3388, "pitch": 64, "duration": 12, "velocity": 54}, {"time": 3388, "pitch": 67, "duration": 11, "velocity": 57}, {"time": 3388, "pitch": 72, "duration": 11, "velocity": 54}, {"time": 3412, "pitch": 40, "duration": 38, "velocity": 47}, {"time": 3412, "pitch": 52, "duration": 26, "velocity": 42}, {"time": 3412, "pitch": 62, "duration": 14, "velocity": 47}, {"time": 3412, "pitch": 67, "duration": 14, "velocity": 51}, {"time": 3412, "pitch": 71, "duration": 21, "velocity": 47}, {"time": 3436, "pitch": 62, "duration": 10, "velocity": 56}, {"time": 3436, "pitch": 67, "duration": 9, "velocity": 67}, {"time": 3448, "pitch": 52, "duration": 3, "velocity": 46}, {"time": 3460, "pitch": 41, "duration": 39, "velocity": 54}, {"time": 3460, "pitch": 53, "duration": 30, "velocity": 45}, {"time": 3460, "pitch": 60, "duration": 13, "velocity": 55}, {"time": 3460, "pitch": 65, "duration": 14, "velocity": 58}, {"time": 3460, "pitch": 69, "duration": 14, "velocity": 54}, {"time": 3484, "pitch": 60, "duration": 12, "velocity": 47}, {"time": 3484, "pitch": 65, "duration": 12, "velocity": 49}, {"time": 3484, "pitch": 69, "duration": 13, "velocity": 51}, {"time": 3496, "pitch": 53, "duration": 4, "velocity": 46}, {"time": 3508, "pitch": 40, "duration": 36, "velocity": 49}, {"time": 3508, "pitch": 52, "duration": 29, "velocity": 45}, {"time": 3508, "pitch": 60, "duration": 12, "velocity": 55}, {"time": 3508, "pitch": 64, "duration": 12, "velocity": 55}, {"time": 3508, "pitch": 67, "duration": 12, "velocity": 54}, {"time": 3532, "pitch": 60, "duration": 10, "velocity": 49}, {"time": 3532, "pitch": 64, "duration": 9, "velocity": 56}, {"time": 3532, "pitch": 67, "duration": 10, "velocity": 56}, {"time": 3544, "pitch": 52, "duration": 2, "velocity": 35}, {"time": 3556, "pitch": 50, "duration": 35, "velocity": 54}, {"time": 3556, "pitch": 60, "duration": 15, "velocity": 48}, {"time": 3556, "pitch": 65, "duration": 15, "velocity": 57}, {"time": 3556, "pitch": 69, "duration": 16, "velocity": 48}, {"time": 3556, "pitch": 72, "duration": 16, "velocity": 43}, {"time": 3580, "pitch": 60, "duration": 9, "velocity": 48}, {"time": 3580, "pitch": 65, "duration": 8, "velocity": 52}, {"time": 3580, "pitch": 69, "duration": 9, "velocity": 49}, {"time": 3604, "pitch": 43, "duration": 36, "velocity": 61}, {"time": 3604, "pitch": 60, "duration": 9, "velocity": 55}, {"time": 3604, "pitch": 65, "duration": 11, "velocity": 57}, {"time": 3604, "pitch": 69, "duration": 10, "velocity": 55}, {"time": 3616, "pitch": 55, "duration": 24, "velocity": 42}, {"time": 3628, "pitch": 62, "duration": 4, "velocity": 56}, {"time": 3628, "pitch": 67, "duration": 4, "velocity": 63}, {"time": 3628, "pitch": 71, "duration": 3, "velocity": 57}, {"time": 3640, "pitch": 64, "duration": 3, "velocity": 47}, {"time": 3640, "pitch": 72, "duration": 4, "velocity": 59}, {"time": 3652, "pitch": 48, "duration": 37, "velocity": 52}, {"time": 3652, "pitch": 64, "duration": 11, "velocity": 57}, {"time": 3652, "pitch": 67, "duration": 11, "velocity": 66}, {"time": 3652, "pitch": 72, "duration": 7, "velocity": 56}, {"time": 3664, "pitch": 55, "duration": 15, "velocity": 48}, {"time": 3676, "pitch": 60, "duration": 11, "velocity": 48}, {"time": 3676, "pitch": 62, "duration": 12, "velocity": 51}, {"time": 3676, "pitch": 64, "duration": 12, "velocity": 55}, {"time": 3676, "pitch": 67, "duration": 10, "velocity": 60}, {"time": 3688, "pitch": 55, "duration": 13, "velocity": 61}, {"time": 3700, "pitch": 47, "duration": 49, "velocity": 62}, {"time": 3700, "pitch": 62, "duration": 11, "velocity": 54}, {"time": 3700, "pitch": 67, "duration": 8, "velocity": 67}, {"time": 3712, "pitch": 55, "duration": 13, "velocity": 44}, {"time": 3724, "pitch": 59, "duration": 13, "velocity": 40}, {"time": 3724, "pitch": 62, "duration": 13, "velocity": 47}, {"time": 3724, "pitch": 67, "duration": 10, "velocity": 58}, {"time": 3724, "pitch": 74, "duration": 10, "velocity": 54}, {"time": 3736, "pitch": 55, "duration": 1, "velocity": 39}, {"time": 3736, "pitch": 71, "duration": 11, "velocity": 67}, {"time": 3748, "pitch": 45, "duration": 36, "velocity": 44}, {"time": 3748, "pitch": 64, "duration": 13, "velocity": 49}, {"time": 3748, "pitch": 67, "duration": 13, "velocity": 55}, {"time": 3748, "pitch": 72, "duration": 13, "velocity": 59}, {"time": 3760, "pitch": 52, "duration": 13, "velocity": 43}, {"time": 3772, "pitch": 57, "duration": 12, "velocity": 48}, {"time": 3772, "pitch": 64, "duration": 11, "velocity": 48}, {"time": 3772, "pitch": 67, "duration": 11, "velocity": 51}, {"time": 3772, "pitch": 72, "duration": 18, "velocity": 63}, {"time": 3784, "pitch": 52, "duration": 13, "velocity": 49}, {"time": 3796, "pitch": 43, "duration": 47, "velocity": 60}, {"time": 3796, "pitch": 62, "duration": 14, "velocity": 56}, {"time": 3796, "pitch": 67, "duration": 13, "velocity": 56}, {"time": 3796, "pitch": 71, "duration": 13, "velocity": 58}, {"time": 3808, "pitch": 52, "duration": 13, "velocity": 49}, {"time": 3820, "pitch": 55, "duration": 13, "velocity": 56}, {"time": 3820, "pitch": 62, "duration": 12, "velocity": 53}, {"time": 3820, "pitch": 67, "duration": 8, "velocity": 56}, {"time": 3820, "pitch": 71, "duration": 11, "velocity": 64}, {"time": 3829, "pitch": 52, "duration": 4, "velocity": 60}, {"time": 3844, "pitch": 41, "duration": 37, "velocity": 70}, {"time": 3844, "pitch": 60, "duration": 12, "velocity": 61}, {"time": 3844, "pitch": 65, "duration": 12, "velocity": 62}, {"time": 3844, "pitch": 69, "duration": 12, "velocity": 61}, {"time": 3856, "pitch": 48, "duration": 14, "velocity": 40}, {"time": 3868, "pitch": 53, "duration": 13, "velocity": 58}, {"time": 3868, "pitch": 60, "duration": 10, "velocity": 64}, {"time": 3868, "pitch": 65, "duration": 10, "velocity": 64}, {"time": 3868, "pitch": 69, "duration": 12, "velocity": 57}, {"time": 3880, "pitch": 48, "duration": 10, "velocity": 61}, {"time": 3892, "pitch": 40, "duration": 37, "velocity": 67}, {"time": 3892, "pitch": 64, "duration": 14, "velocity": 58}, {"time": 3892, "pitch": 67, "duration": 13, "velocity": 54}, {"time": 3892, "pitch": 72, "duration": 12, "velocity": 58}, {"time": 3904, "pitch": 48, "duration": 14, "velocity": 48}, {"time": 3916, "pitch": 52, "duration": 13, "velocity": 59}, {"time": 3916, "pitch": 64, "duration": 11, "velocity": 64}, {"time": 3916, "pitch": 67, "duration": 12, "velocity": 66}, {"time": 3916, "pitch": 72, "duration": 15, "velocity": 62}, {"time": 3928, "pitch": 48, "duration": 3, "velocity": 62}, {"time": 3940, "pitch": 38, "duration": 36, "velocity": 69}, {"time": 3940, "pitch": 62, "duration": 14, "velocity": 59}, {"time": 3940, "pitch": 65, "duration": 13, "velocity": 70}, {"time": 3940, "pitch": 69, "duration": 13, "velocity": 59}, {"time": 3940, "pitch": 72, "duration": 12, "velocity": 56}, {"time": 3949, "pitch": 50, "duration": 18, "velocity": 39}, {"time": 3964, "pitch": 62, "duration": 12, "velocity": 63}, {"time": 3964, "pitch": 65, "duration": 12, "velocity": 72}, {"time": 3964, "pitch": 69, "duration": 13, "velocity": 67}, {"time": 3964, "pitch": 72, "duration": 9, "velocity": 44}, {"time": 3976, "pitch": 50, "duration": 3, "velocity": 53}, {"time": 3988, "pitch": 43, "duration": 38, "velocity": 72}, {"time": 3988, "pitch": 60, "duration": 11, "velocity": 66}, {"time": 3988, "pitch": 65, "duration": 12, "velocity": 66}, {"time": 3988, "pitch": 69, "duration": 11, "velocity": 66}, {"time": 3997, "pitch": 50, "duration": 14, "velocity": 33}, {"time": 4012, "pitch": 55, "duration": 11, "velocity": 48}, {"time": 4012, "pitch": 62, "duration": 14, "velocity": 62}, {"time": 4012, "pitch": 67, "duration": 12, "velocity": 67}, {"time": 4012, "pitch": 71, "duration": 9, "velocity": 62}, {"time": 4024, "pitch": 50, "duration": 2, "velocity": 49}, {"time": 4036, "pitch": 53, "duration": 37, "velocity": 66}, {"time": 4036, "pitch": 69, "duration": 7, "velocity": 59}, {"time": 4036, "pitch": 72, "duration": 9, "velocity": 67}, {"time": 4036, "pitch": 77, "duration": 10, "velocity": 70}, {"time": 4048, "pitch": 60, "duration": 16, "velocity": 46}, {"time": 4048, "pitch": 67, "duration": 4, "velocity": 55}, {"time": 4048, "pitch": 76, "duration": 9, "velocity": 62}, {"time": 4060, "pitch": 65, "duration": 6, "velocity": 59}, {"time": 4060, "pitch": 69, "duration": 3, "velocity": 66}, {"time": 4060, "pitch": 72, "duration": 4, "velocity": 75}, {"time": 4060, "pitch": 77, "duration": 4, "velocity": 76}, {"time": 4072, "pitch": 79, "duration": 5, "velocity": 66}, {"time": 4084, "pitch": 43, "duration": 34, "velocity": 69}, {"time": 4084, "pitch": 67, "duration": 8, "velocity": 57}, {"time": 4084, "pitch": 71, "duration": 8, "velocity": 60}, {"time": 4084, "pitch": 74, "duration": 7, "velocity": 66}, {"time": 4096, "pitch": 50, "duration": 16, "velocity": 28}, {"time": 4108, "pitch": 55, "duration": 4, "velocity": 58}, {"time": 4108, "pitch": 59, "duration": 3, "velocity": 72}, {"time": 4108, "pitch": 62, "duration": 3, "velocity": 69}, {"time": 4108, "pitch": 67, "duration": 5, "velocity": 69}, {"time": 4120, "pitch": 45, "duration": 13, "velocity": 55}, {"time": 4120, "pitch": 55, "duration": 5, "velocity": 53}, {"time": 4120, "pitch": 60, "duration": 6, "velocity": 47}, {"time": 4120, "pitch": 64, "duration": 7, "velocity": 46}, {"time": 4132, "pitch": 48, "duration": 25, "velocity": 70}, {"time": 4132, "pitch": 55, "duration": 11, "velocity": 62}, {"time": 4132, "pitch": 60, "duration": 13, "velocity": 70}, {"time": 4132, "pitch": 64, "duration": 17, "velocity": 63}, {"time": 4132, "pitch": 67, "duration": 11, "velocity": 58}, {"time": 4156, "pitch": 47, "duration": 14, "velocity": 63}, {"time": 4156, "pitch": 59, "duration": 12, "velocity": 73}, {"time": 4156, "pitch": 62, "duration": 12, "velocity": 70}, {"time": 4156, "pitch": 67, "duration": 12, "velocity": 62}, {"time": 4180, "pitch": 45, "duration": 15, "velocity": 66}, {"time": 4180, "pitch": 60, "duration": 12, "velocity": 64}, {"time": 4180, "pitch": 64, "duration": 12, "velocity": 70}, {"time": 4180, "pitch": 69, "duration": 12, "velocity": 66}, {"time": 4192, "pitch": 52, "duration": 27, "velocity": 45}, {"time": 4204, "pitch": 60, "duration": 8, "velocity": 60}, {"time": 4204, "pitch": 64, "duration": 11, "velocity": 66}, {"time": 4204, "pitch": 69, "duration": 11, "velocity": 67}, {"time": 4216, "pitch": 43, "duration": 7, "velocity": 70}, {"time": 4216, "pitch": 60, "duration": 5, "velocity": 43}, {"time": 4216, "pitch": 67, "duration": 7, "velocity": 67}, {"time": 4228, "pitch": 41, "duration": 36, "velocity": 67}, {"time": 4228, "pitch": 57, "duration": 12, "velocity": 49}, {"time": 4228, "pitch": 60, "duration": 7, "velocity": 51}, {"time": 4228, "pitch": 62, "duration": 10, "velocity": 48}, {"time": 4228, "pitch": 67, "duration": 10, "velocity": 49}, {"time": 4240, "pitch": 48, "duration": 13, "velocity": 46}, {"time": 4252, "pitch": 53, "duration": 11, "velocity": 53}, {"time": 4252, "pitch": 57, "duration": 13, "velocity": 63}, {"time": 4252, "pitch": 60, "duration": 12, "velocity": 72}, {"time": 4252, "pitch": 65, "duration": 9, "velocity": 72}, {"time": 4264, "pitch": 48, "duration": 6, "velocity": 43}, {"time": 4276, "pitch": 43, "duration": 38, "velocity": 66}, {"time": 4276, "pitch": 55, "duration": 11, "velocity": 62}, {"time": 4276, "pitch": 60, "duration": 12, "velocity": 72}, {"time": 4276, "pitch": 64, "duration": 12, "velocity": 75}, {"time": 4288, "pitch": 50, "duration": 14, "velocity": 41}, {"time": 4300, "pitch": 59, "duration": 14, "velocity": 72}, {"time": 4300, "pitch": 62, "duration": 13, "velocity": 76}, {"time": 4300, "pitch": 67, "duration": 14, "velocity": 70}, {"time": 4312, "pitch": 50, "duration": 2, "velocity": 66}, {"time": 4324, "pitch": 36, "duration": 36, "velocity": 64}, {"time": 4324, "pitch": 55, "duration": 12, "velocity": 70}, {"time": 4324, "pitch": 60, "duration": 13, "velocity": 73}, {"time": 4324, "pitch": 64, "duration": 13, "velocity": 73}, {"time": 4339, "pitch": 48, "duration": 12, "velocity": 39}, {"time": 4348, "pitch": 57, "duration": 12, "velocity": 63}, {"time": 4348, "pitch": 60, "duration": 11, "velocity": 72}, {"time": 4348, "pitch": 65, "duration": 10, "velocity": 73}, {"time": 4360, "pitch": 48, "duration": 53, "velocity": 57}, {"time": 4372, "pitch": 36, "duration": 39, "velocity": 66}, {"time": 4372, "pitch": 55, "duration": 39, "velocity": 63}, {"time": 4372, "pitch": 60, "duration": 38, "velocity": 72}, {"time": 4372, "pitch": 64, "duration": 39, "velocity": 66}, {"time": 4420, "pitch": 48, "duration": 43, "velocity": 64}, {"time": 4420, "pitch": 64, "duration": 10, "velocity": 63}, {"time": 4420, "pitch": 67, "duration": 10, "velocity": 67}, {"time": 4420, "pitch": 72, "duration": 15, "velocity": 72}, {"time": 4426, "pitch": 55, "duration": 25, "velocity": 57}, {"time": 4432, "pitch": 60, "duration": 22, "velocity": 55}, {"time": 4438, "pitch": 62, "duration": 6, "velocity": 60}, {"time": 4438, "pitch": 67, "duration": 9, "velocity": 61}, {"time": 4438, "pitch": 71, "duration": 10, "velocity": 72}, {"time": 4450, "pitch": 64, "duration": 4, "velocity": 67}, {"time": 4450, "pitch": 67, "duration": 4, "velocity": 66}, {"time": 4450, "pitch": 72, "duration": 4, "velocity": 72}, {"time": 4462, "pitch": 55, "duration": 6, "velocity": 52}, {"time": 4468, "pitch": 48, "duration": 17, "velocity": 69}, {"time": 4468, "pitch": 64, "duration": 10, "velocity": 66}, {"time": 4468, "pitch": 67, "duration": 13, "velocity": 66}, {"time": 4468, "pitch": 74, "duration": 10, "velocity": 70}, {"time": 4474, "pitch": 55, "duration": 16, "velocity": 66}, {"time": 4480, "pitch": 60, "duration": 4, "velocity": 80}, {"time": 4486, "pitch": 64, "duration": 2, "velocity": 46}, {"time": 4486, "pitch": 67, "duration": 3, "velocity": 62}, {"time": 4486, "pitch": 72, "duration": 5, "velocity": 78}, {"time": 4492, "pitch": 47, "duration": 18, "velocity": 69}, {"time": 4492, "pitch": 62, "duration": 13, "velocity": 82}, {"time": 4492, "pitch": 67, "duration": 13, "velocity": 76}, {"time": 4492, "pitch": 71, "duration": 14, "velocity": 76}, {"time": 4498, "pitch": 55, "duration": 11, "velocity": 69}, {"time": 4504, "pitch": 59, "duration": 4, "velocity": 85}, {"time": 4510, "pitch": 69, "duration": 6, "velocity": 59}, {"time": 4513, "pitch": 71, "duration": 3, "velocity": 66}, {"time": 4516, "pitch": 45, "duration": 42, "velocity": 73}, {"time": 4516, "pitch": 64, "duration": 12, "velocity": 72}, {"time": 4516, "pitch": 67, "duration": 13, "velocity": 69}, {"time": 4516, "pitch": 72, "duration": 12, "velocity": 62}, {"time": 4522, "pitch": 52, "duration": 39, "velocity": 50}, {"time": 4528, "pitch": 57, "duration": 18, "velocity": 76}, {"time": 4534, "pitch": 74, "duration": 8, "velocity": 76}, {"time": 4534, "pitch": 64, "duration": 3, "velocity": 69}, {"time": 4534, "pitch": 67, "duration": 3, "velocity": 75}, {"time": 4546, "pitch": 62, "duration": 4, "velocity": 72}, {"time": 4546, "pitch": 67, "duration": 2, "velocity": 61}, {"time": 4546, "pitch": 72, "duration": 6, "velocity": 78}, {"time": 4552, "pitch": 57, "duration": 5, "velocity": 61}, {"time": 4558, "pitch": 64, "duration": 15, "velocity": 75}, {"time": 4558, "pitch": 67, "duration": 15, "velocity": 75}, {"time": 4558, "pitch": 72, "duration": 14, "velocity": 78}, {"time": 4564, "pitch": 45, "duration": 18, "velocity": 70}, {"time": 4570, "pitch": 52, "duration": 19, "velocity": 73}, {"time": 4576, "pitch": 57, "duration": 5, "velocity": 88}, {"time": 4582, "pitch": 67, "duration": 4, "velocity": 61}, {"time": 4582, "pitch": 72, "duration": 5, "velocity": 72}, {"time": 4588, "pitch": 43, "duration": 16, "velocity": 70}, {"time": 4588, "pitch": 62, "duration": 13, "velocity": 75}, {"time": 4588, "pitch": 71, "duration": 9, "velocity": 82}, {"time": 4594, "pitch": 52, "duration": 9, "velocity": 73}, {"time": 4600, "pitch": 55, "duration": 3, "velocity": 88}, {"time": 4606, "pitch": 67, "duration": 5, "velocity": 70}, {"time": 4612, "pitch": 41, "duration": 10, "velocity": 73}, {"time": 4612, "pitch": 60, "duration": 22, "velocity": 73}, {"time": 4612, "pitch": 65, "duration": 24, "velocity": 73}, {"time": 4612, "pitch": 69, "duration": 25, "velocity": 75}, {"time": 4618, "pitch": 48, "duration": 6, "velocity": 69}, {"time": 4624, "pitch": 53, "duration": 8, "velocity": 70}, {"time": 4630, "pitch": 55, "duration": 12, "velocity": 62}, {"time": 4636, "pitch": 57, "duration": 6, "velocity": 69}, {"time": 4642, "pitch": 60, "duration": 4, "velocity": 82}, {"time": 4648, "pitch": 65, "duration": 6, "velocity": 66}, {"time": 4654, "pitch": 67, "duration": 4, "velocity": 63}, {"time": 4660, "pitch": 40, "duration": 8, "velocity": 72}, {"time": 4660, "pitch": 60, "duration": 15, "velocity": 73}, {"time": 4660, "pitch": 67, "duration": 16, "velocity": 66}, {"time": 4666, "pitch": 52, "duration": 8, "velocity": 60}, {"time": 4672, "pitch": 55, "duration": 21, "velocity": 69}, {"time": 4678, "pitch": 60, "duration": 8, "velocity": 69}, {"time": 4684, "pitch": 67, "duration": 5, "velocity": 63}, {"time": 4690, "pitch": 69, "duration": 7, "velocity": 67}, {"time": 4696, "pitch": 72, "duration": 8, "velocity": 78}, {"time": 4702, "pitch": 69, "duration": 14, "velocity": 69}, {"time": 4708, "pitch": 50, "duration": 37, "velocity": 66}, {"time": 4708, "pitch": 60, "duration": 8, "velocity": 88}, {"time": 4708, "pitch": 65, "duration": 8, "velocity": 75}, {"time": 4714, "pitch": 57, "duration": 15, "velocity": 72}, {"time": 4720, "pitch": 60, "duration": 4, "velocity": 49}, {"time": 4726, "pitch": 60, "duration": 14, "velocity": 76}, {"time": 4726, "pitch": 65, "duration": 14, "velocity": 69}, {"time": 4726, "pitch": 69, "duration": 14, "velocity": 73}, {"time": 4738, "pitch": 57, "duration": 5, "velocity": 72}, {"time": 4744, "pitch": 60, "duration": 4, "velocity": 85}, {"time": 4750, "pitch": 65, "duration": 3, "velocity": 70}, {"time": 4756, "pitch": 43, "duration": 25, "velocity": 76}, {"time": 4756, "pitch": 60, "duration": 9, "velocity": 85}, {"time": 4756, "pitch": 65, "duration": 11, "velocity": 75}, {"time": 4756, "pitch": 69, "duration": 10, "velocity": 70}, {"time": 4762, "pitch": 50, "duration": 19, "velocity": 67}, {"time": 4768, "pitch": 55, "duration": 6, "velocity": 91}, {"time": 4780, "pitch": 55, "duration": 8, "velocity": 85}, {"time": 4780, "pitch": 64, "duration": 2, "velocity": 67}, {"time": 4780, "pitch": 76, "duration": 3, "velocity": 82}, {"time": 4786, "pitch": 57, "duration": 10, "velocity": 41}, {"time": 4786, "pitch": 65, "duration": 3, "velocity": 60}, {"time": 4786, "pitch": 77, "duration": 3, "velocity": 78}, {"time": 4792, "pitch": 59, "duration": 3, "velocity": 67}, {"time": 4792, "pitch": 67, "duration": 2, "velocity": 57}, {"time": 4792, "pitch": 79, "duration": 3, "velocity": 80}, {"time": 4798, "pitch": 69, "duration": 2, "velocity": 56}, {"time": 4798, "pitch": 81, "duration": 3, "velocity": 73}, {"time": 4804, "pitch": 48, "duration": 10, "velocity": 69}, {"time": 4804, "pitch": 72, "duration": 14, "velocity": 69}, {"time": 4804, "pitch": 79, "duration": 24, "velocity": 72}, {"time": 4810, "pitch": 55, "duration": 5, "velocity": 66}, {"time": 4816, "pitch": 60, "duration": 7, "velocity": 67}, {"time": 4822, "pitch": 62, "duration": 16, "velocity": 59}, {"time": 4828, "pitch": 64, "duration": 9, "velocity": 66}, {"time": 4834, "pitch": 67, "duration": 8, "velocity": 88}, {"time": 4840, "pitch": 72, "duration": 4, "velocity": 76}, {"time": 4846, "pitch": 67, "duration": 10, "velocity": 69}, {"time": 4846, "pitch": 72, "duration": 15, "velocity": 67}, {"time": 4846, "pitch": 79, "duration": 15, "velocity": 78}, {"time": 4852, "pitch": 48, "duration": 14, "velocity": 73}, {"time": 4858, "pitch": 55, "duration": 16, "velocity": 72}, {"time": 4864, "pitch": 60, "duration": 4, "velocity": 76}, {"time": 4864, "pitch": 79, "duration": 3, "velocity": 30}, {"time": 4870, "pitch": 74, "duration": 3, "velocity": 73}, {"time": 4870, "pitch": 67, "duration": 3, "velocity": 67}, {"time": 4876, "pitch": 47, "duration": 18, "velocity": 70}, {"time": 4876, "pitch": 67, "duration": 10, "velocity": 70}, {"time": 4876, "pitch": 74, "duration": 5, "velocity": 76}, {"time": 4882, "pitch": 72, "duration": 4, "velocity": 72}, {"time": 4882, "pitch": 55, "duration": 10, "velocity": 67}, {"time": 4888, "pitch": 59, "duration": 4, "velocity": 73}, {"time": 4888, "pitch": 67, "duration": 9, "velocity": 69}, {"time": 4888, "pitch": 74, "duration": 5, "velocity": 72}, {"time": 4894, "pitch": 72, "duration": 4, "velocity": 75}, {"time": 4900, "pitch": 45, "duration": 11, "velocity": 73}, {"time": 4900, "pitch": 67, "duration": 25, "velocity": 70}, {"time": 4900, "pitch": 72, "duration": 25, "velocity": 75}, {"time": 4906, "pitch": 52, "duration": 6, "velocity": 59}, {"time": 4912, "pitch": 57, "duration": 7, "velocity": 51}, {"time": 4918, "pitch": 59, "duration": 19, "velocity": 66}, {"time": 4924, "pitch": 60, "duration": 12, "velocity": 63}, {"time": 4930, "pitch": 67, "duration": 4, "velocity": 70}, {"time": 4936, "pitch": 67, "duration": 2, "velocity": 40}, {"time": 4936, "pitch": 72, "duration": 8, "velocity": 67}, {"time": 4942, "pitch": 67, "duration": 8, "velocity": 69}, {"time": 4942, "pitch": 79, "duration": 8, "velocity": 75}, {"time": 4948, "pitch": 45, "duration": 17, "velocity": 64}, {"time": 4954, "pitch": 52, "duration": 17, "velocity": 70}, {"time": 4954, "pitch": 67, "duration": 5, "velocity": 72}, {"time": 4954, "pitch": 76, "duration": 9, "velocity": 76}, {"time": 4960, "pitch": 57, "duration": 6, "velocity": 72}, {"time": 4966, "pitch": 67, "duration": 16, "velocity": 61}, {"time": 4966, "pitch": 74, "duration": 10, "velocity": 80}, {"time": 4972, "pitch": 43, "duration": 18, "velocity": 58}, {"time": 4978, "pitch": 52, "duration": 11, "velocity": 64}, {"time": 4984, "pitch": 55, "duration": 5, "velocity": 78}, {"time": 4990, "pitch": 72, "duration": 6, "velocity": 62}, {"time": 4993, "pitch": 74, "duration": 3, "velocity": 60}, {"time": 4996, "pitch": 41, "duration": 44, "velocity": 66}, {"time": 4996, "pitch": 67, "duration": 11, "velocity": 66}, {"time": 4996, "pitch": 76, "duration": 9, "velocity": 59}, {"time": 5002, "pitch": 48, "duration": 44, "velocity": 63}, {"time": 5008, "pitch": 53, "duration": 16, "velocity": 73}, {"time": 5014, "pitch": 57, "duration": 8, "velocity": 69}, {"time": 5020, "pitch": 60, "duration": 10, "velocity": 73}, {"time": 5026, "pitch": 57, "duration": 8, "velocity": 60}, {"time": 5026, "pitch": 65, "duration": 9, "velocity": 64}, {"time": 5032, "pitch": 53, "duration": 4, "velocity": 48}, {"time": 5038, "pitch": 57, "duration": 8, "velocity": 73}, {"time": 5038, "pitch": 60, "duration": 9, "velocity": 66}, {"time": 5038, "pitch": 65, "duration": 20, "velocity": 78}, {"time": 5044, "pitch": 40, "duration": 43, "velocity": 69}, {"time": 5050, "pitch": 48, "duration": 37, "velocity": 64}, {"time": 5056, "pitch": 52, "duration": 16, "velocity": 78}, {"time": 5062, "pitch": 55, "duration": 8, "velocity": 69}, {"time": 5068, "pitch": 60, "duration": 5, "velocity": 76}, {"time": 5074, "pitch": 60, "duration": 8, "velocity": 49}, {"time": 5074, "pitch": 67, "duration": 9, "velocity": 72}, {"time": 5080, "pitch": 52, "duration": 7, "velocity": 62}, {"time": 5086, "pitch": 62, "duration": 5, "velocity": 69}, {"time": 5092, "pitch": 38, "duration": 36, "velocity": 73}, {"time": 5092, "pitch": 57, "duration": 9, "velocity": 67}, {"time": 5092, "pitch": 60, "duration": 9, "velocity": 59}, {"time": 5092, "pitch": 65, "duration": 10, "velocity": 78}, {"time": 5098, "pitch": 50, "duration": 14, "velocity": 57}, {"time": 5104, "pitch": 57, "duration": 3, "velocity": 67}, {"time": 5104, "pitch": 64, "duration": 5, "velocity": 73}, {"time": 5110, "pitch": 57, "duration": 8, "velocity": 64}, {"time": 5110, "pitch": 60, "duration": 9, "velocity": 76}, {"time": 5110, "pitch": 65, "duration": 8, "velocity": 76}, {"time": 5116, "pitch": 50, "duration": 14, "velocity": 51}, {"time": 5122, "pitch": 57, "duration": 5, "velocity": 62}, {"time": 5128, "pitch": 57, "duration": 2, "velocity": 40}, {"time": 5128, "pitch": 60, "duration": 4, "velocity": 64}, {"time": 5134, "pitch": 62, "duration": 4, "velocity": 61}, {"time": 5140, "pitch": 43, "duration": 39, "velocity": 66}, {"time": 5140, "pitch": 57, "duration": 9, "velocity": 64}, {"time": 5140, "pitch": 60, "duration": 15, "velocity": 72}, {"time": 5140, "pitch": 65, "duration": 8, "velocity": 73}, {"time": 5146, "pitch": 50, "duration": 33, "velocity": 72}, {"time": 5152, "pitch": 55, "duration": 8, "velocity": 72}, {"time": 5158, "pitch": 59, "duration": 9, "velocity": 80}, {"time": 5158, "pitch": 62, "duration": 9, "velocity": 76}, {"time": 5158, "pitch": 67, "duration": 8, "velocity": 75}, {"time": 5170, "pitch": 59, "duration": 8, "velocity": 73}, {"time": 5170, "pitch": 62, "duration": 5, "velocity": 69}, {"time": 5170, "pitch": 67, "duration": 6, "velocity": 70}, {"time": 5176, "pitch": 55, "duration": 2, "velocity": 70}, {"time": 5182, "pitch": 62, "duration": 5, "velocity": 67}, {"time": 5188, "pitch": 41, "duration": 33, "velocity": 67}, {"time": 5188, "pitch": 57, "duration": 15, "velocity": 70}, {"time": 5188, "pitch": 60, "duration": 15, "velocity": 70}, {"time": 5188, "pitch": 65, "duration": 12, "velocity": 72}, {"time": 5194, "pitch": 48, "duration": 29, "velocity": 67}, {"time": 5200, "pitch": 53, "duration": 14, "velocity": 72}, {"time": 5206, "pitch": 57, "duration": 3, "velocity": 64}, {"time": 5206, "pitch": 64, "duration": 5, "velocity": 73}, {"time": 5212, "pitch": 57, "duration": 2, "velocity": 48}, {"time": 5212, "pitch": 60, "duration": 9, "velocity": 75}, {"time": 5212, "pitch": 65, "duration": 8, "velocity": 61}, {"time": 5218, "pitch": 53, "duration": 5, "velocity": 56}, {"time": 5224, "pitch": 57, "duration": 3, "velocity": 59}, {"time": 5227, "pitch": 62, "duration": 1, "velocity": 36}, {"time": 5230, "pitch": 59, "duration": 18, "velocity": 69}, {"time": 5230, "pitch": 62, "duration": 16, "velocity": 67}, {"time": 5230, "pitch": 67, "duration": 15, "velocity": 72}, {"time": 5233, "pitch": 43, "duration": 1, "velocity": 57}, {"time": 5236, "pitch": 43, "duration": 31, "velocity": 75}, {"time": 5242, "pitch": 50, "duration": 26, "velocity": 69}, {"time": 5248, "pitch": 55, "duration": 12, "velocity": 78}, {"time": 5254, "pitch": 60, "duration": 13, "velocity": 88}, {"time": 5254, "pitch": 65, "duration": 13, "velocity": 78}, {"time": 5266, "pitch": 55, "duration": 3, "velocity": 67}, {"time": 5284, "pitch": 39, "duration": 11, "velocity": 75}, {"time": 5284, "pitch": 51, "duration": 9, "velocity": 91}, {"time": 5284, "pitch": 63, "duration": 9, "velocity": 75}, {"time": 5284, "pitch": 67, "duration": 9, "velocity": 73}, {"time": 5302, "pitch": 38, "duration": 8, "velocity": 66}, {"time": 5302, "pitch": 50, "duration": 7, "velocity": 62}, {"time": 5302, "pitch": 57, "duration": 8, "velocity": 66}, {"time": 5302, "pitch": 60, "duration": 8, "velocity": 76}, {"time": 5302, "pitch": 65, "duration": 8, "velocity": 75}, {"time": 5320, "pitch": 36, "duration": 26, "velocity": 72}, {"time": 5320, "pitch": 48, "duration": 8, "velocity": 85}, {"time": 5320, "pitch": 55, "duration": 14, "velocity": 73}, {"time": 5320, "pitch": 60, "duration": 14, "velocity": 72}, {"time": 5320, "pitch": 64, "duration": 12, "velocity": 78}, {"time": 5332, "pitch": 48, "duration": 17, "velocity": 46}, {"time": 5338, "pitch": 55, "duration": 5, "velocity": 55}, {"time": 5344, "pitch": 60, "duration": 5, "velocity": 70}, {"time": 5350, "pitch": 62, "duration": 5, "velocity": 69}, {"time": 5356, "pitch": 43, "duration": 12, "velocity": 82}, {"time": 5356, "pitch": 57, "duration": 7, "velocity": 75}, {"time": 5356, "pitch": 60, "duration": 9, "velocity": 82}, {"time": 5356, "pitch": 65, "duration": 6, "velocity": 73}, {"time": 5368, "pitch": 60, "duration": 3, "velocity": 73}, {"time": 5368, "pitch": 67, "duration": 7, "velocity": 80}, {"time": 5380, "pitch": 36, "duration": 39, "velocity": 72}, {"time": 5380, "pitch": 48, "duration": 10, "velocity": 82}, {"time": 5380, "pitch": 55, "duration": 12, "velocity": 82}, {"time": 5380, "pitch": 60, "duration": 15, "velocity": 82}, {"time": 5380, "pitch": 64, "duration": 12, "velocity": 75}, {"time": 5392, "pitch": 48, "duration": 18, "velocity": 55}, {"time": 5398, "pitch": 55, "duration": 8, "velocity": 76}, {"time": 5398, "pitch": 62, "duration": 9, "velocity": 82}, {"time": 5410, "pitch": 60, "duration": 2, "velocity": 85}, {"time": 5410, "pitch": 64, "duration": 3, "velocity": 73}, {"time": 5416, "pitch": 48, "duration": 7, "velocity": 48}, {"time": 5422, "pitch": 64, "duration": 3, "velocity": 91}, {"time": 5422, "pitch": 67, "duration": 3, "velocity": 93}, {"time": 5422, "pitch": 72, "duration": 3, "velocity": 78}, {"time": 5428, "pitch": 36, "duration": 6, "velocity": 67}, {"time": 5428, "pitch": 64, "duration": 7, "velocity": 80}, {"time": 5428, "pitch": 67, "duration": 8, "velocity": 88}, {"time": 5428, "pitch": 72, "duration": 7, "velocity": 78}, {"time": 5434, "pitch": 48, "duration": 4, "velocity": 70}, {"time": 5440, "pitch": 62, "duration": 3, "velocity": 75}, {"time": 5440, "pitch": 72, "duration": 3, "velocity": 75}, {"time": 5446, "pitch": 62, "duration": 8, "velocity": 88}, {"time": 5446, "pitch": 71, "duration": 10, "velocity": 85}, {"time": 5452, "pitch": 47, "duration": 15, "velocity": 66}, {"time": 5458, "pitch": 62, "duration": 8, "velocity": 73}, {"time": 5458, "pitch": 67, "duration": 9, "velocity": 75}, {"time": 5464, "pitch": 53, "duration": 3, "velocity": 78}, {"time": 5470, "pitch": 69, "duration": 5, "velocity": 64}, {"time": 5473, "pitch": 71, "duration": 4, "velocity": 67}, {"time": 5476, "pitch": 45, "duration": 11, "velocity": 69}, {"time": 5476, "pitch": 64, "duration": 18, "velocity": 73}, {"time": 5476, "pitch": 67, "duration": 25, "velocity": 73}, {"time": 5476, "pitch": 72, "duration": 24, "velocity": 70}, {"time": 5482, "pitch": 52, "duration": 6, "velocity": 70}, {"time": 5488, "pitch": 57, "duration": 7, "velocity": 93}, {"time": 5494, "pitch": 59, "duration": 12, "velocity": 62}, {"time": 5500, "pitch": 60, "duration": 6, "velocity": 72}, {"time": 5506, "pitch": 64, "duration": 4, "velocity": 80}, {"time": 5512, "pitch": 67, "duration": 4, "velocity": 80}, {"time": 5518, "pitch": 64, "duration": 11, "velocity": 91}, {"time": 5518, "pitch": 72, "duration": 15, "velocity": 78}, {"time": 5524, "pitch": 43, "duration": 38, "velocity": 69}, {"time": 5530, "pitch": 52, "duration": 32, "velocity": 72}, {"time": 5536, "pitch": 55, "duration": 7, "velocity": 67}, {"time": 5542, "pitch": 62, "duration": 4, "velocity": 66}, {"time": 5542, "pitch": 71, "duration": 5, "velocity": 82}, {"time": 5548, "pitch": 55, "duration": 6, "velocity": 57}, {"time": 5554, "pitch": 62, "duration": 8, "velocity": 80}, {"time": 5554, "pitch": 67, "duration": 8, "velocity": 88}, {"time": 5560, "pitch": 55, "duration": 2, "velocity": 78}, {"time": 5566, "pitch": 65, "duration": 4, "velocity": 62}, {"time": 5569, "pitch": 67, "duration": 3, "velocity": 67}, {"time": 5572, "pitch": 41, "duration": 40, "velocity": 73}, {"time": 5572, "pitch": 60, "duration": 12, "velocity": 91}, {"time": 5572, "pitch": 65, "duration": 12, "velocity": 70}, {"time": 5572, "pitch": 69, "duration": 15, "velocity": 76}, {"time": 5578, "pitch": 48, "duration": 40, "velocity": 67}, {"time": 5584, "pitch": 53, "duration": 8, "velocity": 80}, {"time": 5590, "pitch": 60, "duration": 8, "velocity": 82}, {"time": 5590, "pitch": 67, "duration": 9, "velocity": 73}, {"time": 5596, "pitch": 53, "duration": 6, "velocity": 46}, {"time": 5602, "pitch": 60, "duration": 4, "velocity": 78}, {"time": 5602, "pitch": 65, "duration": 4, "velocity": 76}, {"time": 5608, "pitch": 53, "duration": 4, "velocity": 78}, {"time": 5608, "pitch": 60, "duration": 2, "velocity": 46}, {"time": 5608, "pitch": 64, "duration": 4, "velocity": 82}, {"time": 5614, "pitch": 60, "duration": 12, "velocity": 67}, {"time": 5614, "pitch": 64, "duration": 1, "velocity": 58}, {"time": 5614, "pitch": 67, "duration": 20, "velocity": 78}, {"time": 5620, "pitch": 40, "duration": 38, "velocity": 70}, {"time": 5626, "pitch": 48, "duration": 25, "velocity": 69}, {"time": 5632, "pitch": 52, "duration": 8, "velocity": 88}, {"time": 5638, "pitch": 55, "duration": 8, "velocity": 97}, {"time": 5638, "pitch": 60, "duration": 9, "velocity": 97}, {"time": 5638, "pitch": 67, "duration": 7, "velocity": 78}, {"time": 5644, "pitch": 52, "duration": 6, "velocity": 51}, {"time": 5650, "pitch": 62, "duration": 9, "velocity": 76}, {"time": 5656, "pitch": 48, "duration": 2, "velocity": 76}, {"time": 5656, "pitch": 52, "duration": 1, "velocity": 47}, {"time": 5656, "pitch": 57, "duration": 2, "velocity": 36}, {"time": 5656, "pitch": 64, "duration": 11, "velocity": 75}, {"time": 5662, "pitch": 67, "duration": 3, "velocity": 73}, {"time": 5668, "pitch": 38, "duration": 36, "velocity": 76}, {"time": 5668, "pitch": 57, "duration": 8, "velocity": 75}, {"time": 5668, "pitch": 60, "duration": 9, "velocity": 75}, {"time": 5668, "pitch": 65, "duration": 8, "velocity": 76}, {"time": 5674, "pitch": 50, "duration": 13, "velocity": 57}, {"time": 5680, "pitch": 57, "duration": 3, "velocity": 63}, {"time": 5680, "pitch": 64, "duration": 4, "velocity": 67}, {"time": 5686, "pitch": 57, "duration": 8, "velocity": 76}, {"time": 5686, "pitch": 60, "duration": 9, "velocity": 88}, {"time": 5686, "pitch": 65, "duration": 9, "velocity": 69}, {"time": 5692, "pitch": 50, "duration": 7, "velocity": 80}, {"time": 5698, "pitch": 57, "duration": 3, "velocity": 59}, {"time": 5698, "pitch": 62, "duration": 9, "velocity": 70}, {"time": 5704, "pitch": 50, "duration": 4, "velocity": 80}, {"time": 5704, "pitch": 57, "duration": 1, "velocity": 45}, {"time": 5704, "pitch": 64, "duration": 4, "velocity": 70}, {"time": 5710, "pitch": 57, "duration": 10, "velocity": 82}, {"time": 5710, "pitch": 60, "duration": 11, "velocity": 88}, {"time": 5710, "pitch": 65, "duration": 12, "velocity": 70}, {"time": 5716, "pitch": 43, "duration": 11, "velocity": 66}, {"time": 5722, "pitch": 50, "duration": 6, "velocity": 66}, {"time": 5728, "pitch": 55, "duration": 7, "velocity": 73}, {"time": 5734, "pitch": 57, "duration": 9, "velocity": 63}, {"time": 5734, "pitch": 67, "duration": 2, "velocity": 72}, {"time": 5734, "pitch": 79, "duration": 3, "velocity": 85}, {"time": 5740, "pitch": 59, "duration": 6, "velocity": 67}, {"time": 5740, "pitch": 69, "duration": 3, "velocity": 60}, {"time": 5740, "pitch": 81, "duration": 4, "velocity": 66}, {"time": 5746, "pitch": 60, "duration": 7, "velocity": 73}, {"time": 5746, "pitch": 71, "duration": 3, "velocity": 63}, {"time": 5746, "pitch": 83, "duration": 3, "velocity": 88}, {"time": 5752, "pitch": 62, "duration": 3, "velocity": 60}, {"time": 5752, "pitch": 72, "duration": 3, "velocity": 61}, {"time": 5752, "pitch": 84, "duration": 3, "velocity": 78}, {"time": 5758, "pitch": 74, "duration": 3, "velocity": 60}, {"time": 5758, "pitch": 86, "duration": 3, "velocity": 75}, {"time": 5764, "pitch": 48, "duration": 12, "velocity": 76}, {"time": 5764, "pitch": 64, "duration": 12, "velocity": 91}, {"time": 5764, "pitch": 67, "duration": 12, "velocity": 95}, {"time": 5764, "pitch": 72, "duration": 13, "velocity": 82}, {"time": 5770, "pitch": 55, "duration": 7, "velocity": 67}, {"time": 5776, "pitch": 60, "duration": 7, "velocity": 85}, {"time": 5782, "pitch": 62, "duration": 9, "velocity": 67}, {"time": 5788, "pitch": 64, "duration": 3, "velocity": 73}, {"time": 5794, "pitch": 67, "duration": 8, "velocity": 95}, {"time": 5794, "pitch": 72, "duration": 9, "velocity": 101}, {"time": 5794, "pitch": 79, "duration": 8, "velocity": 85}, {"time": 5806, "pitch": 67, "duration": 9, "velocity": 76}, {"time": 5806, "pitch": 72, "duration": 9, "velocity": 91}, {"time": 5806, "pitch": 76, "duration": 9, "velocity": 80}, {"time": 5812, "pitch": 48, "duration": 9, "velocity": 75}, {"time": 5818, "pitch": 60, "duration": 3, "velocity": 101}, {"time": 5836, "pitch": 47, "duration": 16, "velocity": 82}, {"time": 5836, "pitch": 64, "duration": 9, "velocity": 95}, {"time": 5836, "pitch": 68, "duration": 10, "velocity": 101}, {"time": 5836, "pitch": 71, "duration": 10, "velocity": 95}, {"time": 5842, "pitch": 59, "duration": 9, "velocity": 70}, {"time": 5848, "pitch": 69, "duration": 5, "velocity": 67}, {"time": 5854, "pitch": 69, "duration": 1, "velocity": 50}, {"time": 5854, "pitch": 71, "duration": 5, "velocity": 82}, {"time": 5860, "pitch": 45, "duration": 11, "velocity": 80}, {"time": 5860, "pitch": 64, "duration": 23, "velocity": 75}, {"time": 5860, "pitch": 67, "duration": 26, "velocity": 76}, {"time": 5860, "pitch": 72, "duration": 25, "velocity": 67}, {"time": 5866, "pitch": 52, "duration": 7, "velocity": 72}, {"time": 5872, "pitch": 57, "duration": 8, "velocity": 75}, {"time": 5878, "pitch": 59, "duration": 11, "velocity": 63}, {"time": 5884, "pitch": 60, "duration": 4, "velocity": 75}, {"time": 5890, "pitch": 64, "duration": 4, "velocity": 80}, {"time": 5890, "pitch": 67, "duration": 2, "velocity": 59}, {"time": 5896, "pitch": 64, "duration": 1, "velocity": 39}, {"time": 5896, "pitch": 67, "duration": 8, "velocity": 76}, {"time": 5902, "pitch": 72, "duration": 4, "velocity": 80}, {"time": 5908, "pitch": 43, "duration": 13, "velocity": 78}, {"time": 5908, "pitch": 62, "duration": 15, "velocity": 82}, {"time": 5908, "pitch": 67, "duration": 16, "velocity": 91}, {"time": 5908, "pitch": 70, "duration": 17, "velocity": 95}, {"time": 5914, "pitch": 50, "duration": 8, "velocity": 78}, {"time": 5920, "pitch": 55, "duration": 3, "velocity": 95}, {"time": 5926, "pitch": 62, "duration": 2, "velocity": 64}, {"time": 5932, "pitch": 48, "duration": 14, "velocity": 76}, {"time": 5932, "pitch": 55, "duration": 13, "velocity": 73}, {"time": 5932, "pitch": 60, "duration": 4, "velocity": 76}, {"time": 5932, "pitch": 64, "duration": 8, "velocity": 95}, {"time": 5932, "pitch": 67, "duration": 8, "velocity": 76}, {"time": 5932, "pitch": 72, "duration": 8, "velocity": 76}, {"time": 5938, "pitch": 60, "duration": 5, "velocity": 82}, {"time": 5944, "pitch": 67, "duration": 8, "velocity": 93}, {"time": 5950, "pitch": 69, "duration": 5, "velocity": 73}, {"time": 5956, "pitch": 41, "duration": 11, "velocity": 85}, {"time": 5956, "pitch": 60, "duration": 26, "velocity": 91}, {"time": 5956, "pitch": 65, "duration": 26, "velocity": 60}, {"time": 5956, "pitch": 69, "duration": 27, "velocity": 66}, {"time": 5956, "pitch": 72, "duration": 26, "velocity": 72}, {"time": 5962, "pitch": 48, "duration": 7, "velocity": 69}, {"time": 5968, "pitch": 53, "duration": 8, "velocity": 69}, {"time": 5974, "pitch": 55, "duration": 13, "velocity": 59}, {"time": 5980, "pitch": 57, "duration": 7, "velocity": 75}, {"time": 5986, "pitch": 60, "duration": 4, "velocity": 93}, {"time": 5986, "pitch": 72, "duration": 1, "velocity": 61}, {"time": 5992, "pitch": 60, "duration": 1, "velocity": 35}, {"time": 5992, "pitch": 65, "duration": 7, "velocity": 85}, {"time": 5998, "pitch": 72, "duration": 32, "velocity": 76}, {"time": 6004, "pitch": 40, "duration": 5, "velocity": 73}, {"time": 6004, "pitch": 60, "duration": 16, "velocity": 66}, {"time": 6004, "pitch": 64, "duration": 18, "velocity": 67}, {"time": 6004, "pitch": 67, "duration": 19, "velocity": 64}, {"time": 6010, "pitch": 52, "duration": 7, "velocity": 64}, {"time": 6016, "pitch": 55, "duration": 23, "velocity": 56}, {"time": 6022, "pitch": 60, "duration": 14, "velocity": 88}, {"time": 6034, "pitch": 64, "duration": 7, "velocity": 82}, {"time": 6040, "pitch": 69, "duration": 7, "velocity": 73}, {"time": 6046, "pitch": 72, "duration": 10, "velocity": 85}, {"time": 6052, "pitch": 50, "duration": 35, "velocity": 76}, {"time": 6052, "pitch": 60, "duration": 9, "velocity": 82}, {"time": 6052, "pitch": 65, "duration": 10, "velocity": 73}, {"time": 6052, "pitch": 69, "duration": 9, "velocity": 73}, {"time": 6058, "pitch": 57, "duration": 20, "velocity": 70}, {"time": 6064, "pitch": 60, "duration": 4, "velocity": 63}, {"time": 6070, "pitch": 60, "duration": 2, "velocity": 36}, {"time": 6070, "pitch": 65, "duration": 5, "velocity": 69}, {"time": 6076, "pitch": 60, "duration": 8, "velocity": 75}, {"time": 6076, "pitch": 65, "duration": 9, "velocity": 70}, {"time": 6076, "pitch": 69, "duration": 8, "velocity": 76}, {"time": 6082, "pitch": 57, "duration": 4, "velocity": 76}, {"time": 6088, "pitch": 60, "duration": 5, "velocity": 72}, {"time": 6094, "pitch": 65, "duration": 5, "velocity": 76}, {"time": 6100, "pitch": 43, "duration": 37, "velocity": 69}, {"time": 6100, "pitch": 62, "duration": 10, "velocity": 75}, {"time": 6100, "pitch": 67, "duration": 12, "velocity": 76}, {"time": 6100, "pitch": 71, "duration": 8, "velocity": 76}, {"time": 6106, "pitch": 50, "duration": 28, "velocity": 60}, {"time": 6112, "pitch": 55, "duration": 7, "velocity": 80}, {"time": 6118, "pitch": 64, "duration": 4, "velocity": 76}, {"time": 6118, "pitch": 67, "duration": 4, "velocity": 78}, {"time": 6118, "pitch": 72, "duration": 5, "velocity": 75}, {"time": 6121, "pitch": 55, "duration": 7, "velocity": 59}, {"time": 6130, "pitch": 64, "duration": 8, "velocity": 91}, {"time": 6130, "pitch": 67, "duration": 9, "velocity": 97}, {"time": 6136, "pitch": 50, "duration": 2, "velocity": 44}, {"time": 6136, "pitch": 55, "duration": 3, "velocity": 93}, {"time": 6142, "pitch": 67, "duration": 3, "velocity": 64}, {"time": 6148, "pitch": 50, "duration": 33, "velocity": 73}, {"time": 6148, "pitch": 60, "duration": 8, "velocity": 95}, {"time": 6148, "pitch": 65, "duration": 9, "velocity": 91}, {"time": 6148, "pitch": 69, "duration": 9, "velocity": 80}, {"time": 6154, "pitch": 57, "duration": 20, "velocity": 67}, {"time": 6160, "pitch": 60, "duration": 4, "velocity": 76}, {"time": 6166, "pitch": 65, "duration": 5, "velocity": 72}, {"time": 6172, "pitch": 60, "duration": 8, "velocity": 76}, {"time": 6172, "pitch": 67, "duration": 9, "velocity": 80}, {"time": 6178, "pitch": 57, "duration": 3, "velocity": 70}, {"time": 6184, "pitch": 69, "duration": 8, "velocity": 48}, {"time": 6190, "pitch": 72, "duration": 1, "velocity": 52}, {"time": 6196, "pitch": 43, "duration": 42, "velocity": 69}, {"time": 6196, "pitch": 60, "duration": 13, "velocity": 93}, {"time": 6196, "pitch": 65, "duration": 13, "velocity": 80}, {"time": 6196, "pitch": 72, "duration": 13, "velocity": 76}, {"time": 6202, "pitch": 50, "duration": 37, "velocity": 70}, {"time": 6208, "pitch": 55, "duration": 24, "velocity": 73}, {"time": 6214, "pitch": 60, "duration": 10, "velocity": 80}, {"time": 6226, "pitch": 60, "duration": 2, "velocity": 49}, {"time": 6226, "pitch": 65, "duration": 13, "velocity": 72}, {"time": 6244, "pitch": 48, "duration": 75, "velocity": 73}, {"time": 6244, "pitch": 64, "duration": 15, "velocity": 78}, {"time": 6244, "pitch": 67, "duration": 15, "velocity": 78}, {"time": 6244, "pitch": 72, "duration": 13, "velocity": 56}, {"time": 6250, "pitch": 55, "duration": 69, "velocity": 48}, {"time": 6262, "pitch": 65, "duration": 13, "velocity": 73}, {"time": 6262, "pitch": 69, "duration": 15, "velocity": 72}, {"time": 6274, "pitch": 60, "duration": 10, "velocity": 44}, {"time": 6292, "pitch": 60, "duration": 28, "velocity": 45}, {"time": 6292, "pitch": 64, "duration": 20, "velocity": 49}, {"time": 6292, "pitch": 67, "duration": 21, "velocity": 59}, {"time": 6340, "pitch": 50, "duration": 36, "velocity": 64}, {"time": 6340, "pitch": 69, "duration": 12, "velocity": 62}, {"time": 6340, "pitch": 72, "duration": 12, "velocity": 66}, {"time": 6340, "pitch": 77, "duration": 11, "velocity": 66}, {"time": 6352, "pitch": 57, "duration": 25, "velocity": 40}, {"time": 6364, "pitch": 62, "duration": 11, "velocity": 49}, {"time": 6364, "pitch": 69, "duration": 13, "velocity": 62}, {"time": 6364, "pitch": 72, "duration": 12, "velocity": 70}, {"time": 6364, "pitch": 77, "duration": 11, "velocity": 66}, {"time": 6388, "pitch": 55, "duration": 36, "velocity": 69}, {"time": 6388, "pitch": 67, "duration": 13, "velocity": 56}, {"time": 6388, "pitch": 76, "duration": 16, "velocity": 69}, {"time": 6406, "pitch": 67, "duration": 9, "velocity": 52}, {"time": 6406, "pitch": 72, "duration": 6, "velocity": 63}, {"time": 6420, "pitch": 67, "duration": 6, "velocity": 61}, {"time": 6442, "pitch": 50, "duration": 18, "velocity": 70}, {"time": 6442, "pitch": 60, "duration": 8, "velocity": 69}, {"time": 6442, "pitch": 65, "duration": 8, "velocity": 70}, {"time": 6442, "pitch": 69, "duration": 8, "velocity": 60}, {"time": 6442, "pitch": 72, "duration": 6, "velocity": 47}, {"time": 6448, "pitch": 57, "duration": 11, "velocity": 59}, {"time": 6454, "pitch": 60, "duration": 7, "velocity": 60}, {"time": 6460, "pitch": 65, "duration": 6, "velocity": 69}, {"time": 6468, "pitch": 60, "duration": 5, "velocity": 70}, {"time": 6468, "pitch": 65, "duration": 10, "velocity": 70}, {"time": 6468, "pitch": 69, "duration": 8, "velocity": 60}, {"time": 6480, "pitch": 60, "duration": 5, "velocity": 56}, {"time": 6487, "pitch": 65, "duration": 4, "velocity": 61}, {"time": 6494, "pitch": 43, "duration": 56, "velocity": 67}, {"time": 6494, "pitch": 60, "duration": 10, "velocity": 67}, {"time": 6494, "pitch": 65, "duration": 12, "velocity": 76}, {"time": 6494, "pitch": 72, "duration": 10, "velocity": 73}, {"time": 6515, "pitch": 55, "duration": 35, "velocity": 75}, {"time": 6515, "pitch": 60, "duration": 9, "velocity": 82}, {"time": 6515, "pitch": 65, "duration": 10, "velocity": 82}, {"time": 6515, "pitch": 69, "duration": 10, "velocity": 63}, {"time": 6530, "pitch": 60, "duration": 15, "velocity": 62}, {"time": 6530, "pitch": 67, "duration": 18, "velocity": 64}, {"time": 6548, "pitch": 65, "duration": 14, "velocity": 46}, {"time": 6577, "pitch": 55, "duration": 6, "velocity": 46}, {"time": 6580, "pitch": 59, "duration": 7, "velocity": 64}, {"time": 6583, "pitch": 48, "duration": 51, "velocity": 46}, {"time": 6583, "pitch": 64, "duration": 6, "velocity": 44}, {"time": 6592, "pitch": 55, "duration": 42, "velocity": 48}, {"time": 6598, "pitch": 60, "duration": 36, "velocity": 55}, {"time": 6604, "pitch": 67, "duration": 3, "velocity": 53}, {"time": 6613, "pitch": 71, "duration": 15, "velocity": 62}, {"time": 6629, "pitch": 74, "duration": 8, "velocity": 64}, {"time": 6637, "pitch": 76, "duration": 7, "velocity": 63}, {"time": 6643, "pitch": 53, "duration": 43, "velocity": 64}, {"time": 6643, "pitch": 76, "duration": 1, "velocity": 62}, {"time": 6650, "pitch": 60, "duration": 36, "velocity": 34}, {"time": 6658, "pitch": 69, "duration": 6, "velocity": 48}, {"time": 6664, "pitch": 72, "duration": 13, "velocity": 55}, {"time": 6682, "pitch": 74, "duration": 5, "velocity": 63}, {"time": 6688, "pitch": 76, "duration": 5, "velocity": 69}, {"time": 6694, "pitch": 52, "duration": 33, "velocity": 58}, {"time": 6694, "pitch": 67, "duration": 11, "velocity": 52}, {"time": 6694, "pitch": 74, "duration": 17, "velocity": 69}, {"time": 6706, "pitch": 60, "duration": 21, "velocity": 35}, {"time": 6712, "pitch": 64, "duration": 12, "velocity": 53}, {"time": 6712, "pitch": 67, "duration": 7, "velocity": 52}, {"time": 6712, "pitch": 72, "duration": 10, "velocity": 64}, {"time": 6727, "pitch": 67, "duration": 6, "velocity": 44}, {"time": 6733, "pitch": 72, "duration": 7, "velocity": 56}, {"time": 6739, "pitch": 74, "duration": 4, "velocity": 61}, {"time": 6745, "pitch": 50, "duration": 41, "velocity": 62}, {"time": 6745, "pitch": 67, "duration": 8, "velocity": 54}, {"time": 6745, "pitch": 72, "duration": 6, "velocity": 61}, {"time": 6757, "pitch": 57, "duration": 28, "velocity": 39}, {"time": 6757, "pitch": 65, "duration": 6, "velocity": 52}, {"time": 6757, "pitch": 69, "duration": 7, "velocity": 47}, {"time": 6772, "pitch": 60, "duration": 6, "velocity": 36}, {"time": 6772, "pitch": 65, "duration": 6, "velocity": 48}, {"time": 6772, "pitch": 72, "duration": 8, "velocity": 50}, {"time": 6787, "pitch": 65, "duration": 3, "velocity": 76}, {"time": 6805, "pitch": 55, "duration": 12, "velocity": 43}, {"time": 6808, "pitch": 36, "duration": 7, "velocity": 63}, {"time": 6808, "pitch": 59, "duration": 15, "velocity": 62}, {"time": 6811, "pitch": 64, "duration": 14, "velocity": 66}, {"time": 6844, "pitch": 67, "duration": 6, "velocity": 46}, {"time": 6853, "pitch": 69, "duration": 5, "velocity": 15}, {"time": 6859, "pitch": 72, "duration": 2, "velocity": 39}, {"time": 6865, "pitch": 76, "duration": 4, "velocity": 40}, {"time": 6871, "pitch": 79, "duration": 4, "velocity": 49}, {"time": 6877, "pitch": 83, "duration": 3, "velocity": 54}, {"time": 6883, "pitch": 84, "duration": 3, "velocity": 53}, {"time": 6889, "pitch": 88, "duration": 2, "velocity": 50}, {"time": 6895, "pitch": 91, "duration": 2, "velocity": 53}, {"time": 6904, "pitch": 95, "duration": 2, "velocity": 48}], "annotations": [{"time": 1, "annotation": {"number": 64, "value": 127}, "group": "control_change"}, {"time": 2, "annotation": {"number": 64, "value": 127}, "group": "control_change"}, {"time": 100, "annotation": {"number": 64, "value": 0}, "group": "control_change"}, {"time": 107, "annotation": {"number": 64, "value": 127}, "group": "control_change"}, {"time": 143, "annotation": {"number": 64, "value": 127}, "group": "control_change"}, {"time": 148, "annotation": {"number": 64, "value": 0}, "group": "control_change"}, {"time": 194, "annotation": {"number": 64, "value": 0}, "group": "control_change"}, {"time": 200, "annotation": {"number": 64, "value": 127}, "group": "control_change"}, {"time": 244, "annotation": {"number": 64, "value": 0}, "group": "control_change"}, {"time": 251, "annotation": {"number": 64, "value": 127}, "group": "control_change"}, {"time": 292, "annotation": {"number": 64, "value": 0}, "group": "control_change"}, {"time": 294, "annotation": {"number": 64, "value": 127}, "group": "control_change"}, {"time": 328, "annotation": {"number": 64, "value": 0}, "group": "control_change"}, {"time": 332, "annotation": {"number": 64, "value": 127}, "group": "control_change"}, {"time": 387, "annotation": {"number": 64, "value": 0}, "group": "control_change"}, {"time": 388, "annotation": {"number": 64, "value": 127}, "group": "control_change"}, {"time": 437, "annotation": {"number": 64, "value": 0}, "group": "control_change"}, {"time": 441, "annotation": {"number": 64, "value": 127}, "group": "control_change"}, {"time": 485, "annotation": {"number": 64, "value": 0}, "group": "control_change"}, {"time": 489, "annotation": {"number": 64, "value": 127}, "group": "control_change"}, {"time": 532, "annotation": {"number": 64, "value": 0}, "group": "control_change"}, {"time": 535, "annotation": {"number": 64, "value": 127}, "group": "control_change"}, {"time": 580, "annotation": {"number": 64, "value": 0}, "group": "control_change"}, {"time": 584, "annotation": {"number": 64, "value": 127}, "group": "control_change"}, {"time": 629, "annotation": {"number": 64, "value": 0}, "group": "control_change"}, {"time": 632, "annotation": {"number": 64, "value": 127}, "group": "control_change"}, {"time": 676, "annotation": {"number": 64, "value": 0}, "group": "control_change"}, {"time": 679, "annotation": {"number": 64, "value": 127}, "group": "control_change"}, {"time": 725, "annotation": {"number": 64, "value": 0}, "group": "control_change"}, {"time": 729, "annotation": {"number": 64, "value": 127}, "group": "control_change"}, {"time": 773, "annotation": {"number": 64, "value": 0}, "group": "control_change"}, {"time": 780, "annotation": {"number": 64, "value": 127}, "group": "control_change"}, {"time": 819, "annotation": {"number": 64, "value": 0}, "group": "control_change"}, {"time": 823, "annotation": {"number": 64, "value": 127}, "group": "control_change"}, {"time": 869, "annotation": {"number": 64, "value": 0}, "group": "control_change"}, {"time": 873, "annotation": {"number": 64, "value": 127}, "group": "control_change"}, {"time": 915, "annotation": {"number": 64, "value": 0}, "group": "control_change"}, {"time": 920, "annotation": {"number": 64, "value": 127}, "group": "control_change"}, {"time": 963, "annotation": {"number": 64, "value": 0}, "group": "control_change"}, {"time": 967, "annotation": {"number": 64, "value": 127}, "group": "control_change"}, {"time": 1014, "annotation": {"number": 64, "value": 0}, "group": "control_change"}, {"time": 1020, "annotation": {"number": 64, "value": 127}, "group": "control_change"}, {"time": 1060, "annotation": {"number": 64, "value": 0}, "group": "control_change"}, {"time": 1067, "annotation": {"number": 64, "value": 127}, "group": "control_change"}, {"time": 1108, "annotation": {"number": 64, "value": 0}, "group": "control_change"}, {"time": 1112, "annotation": {"number": 64, "value": 127}, "group": "control_change"}, {"time": 1156, "annotation": {"number": 64, "value": 0}, "group": "control_change"}, {"time": 1156, "annotation": {"number": 64, "value": 127}, "group": "control_change"}, {"time": 1202, "annotation": {"number": 64, "value": 0}, "group": "control_change"}, {"time": 1207, "annotation": {"number": 64, "value": 127}, "group": "control_change"}, {"time": 1250, "annotation": {"number": 64, "value": 0}, "group": "control_change"}, {"time": 1254, "annotation": {"number": 64, "value": 127}, "group": "control_change"}, {"time": 1275, "annotation": {"number": 64, "value": 0}, "group": "control_change"}, {"time": 1279, "annotation": {"number": 64, "value": 127}, "group": "control_change"}, {"time": 1299, "annotation": {"number": 64, "value": 0}, "group": "control_change"}, {"time": 1303, "annotation": {"number": 64, "value": 127}, "group": "control_change"}, {"time": 1349, "annotation": {"number": 64, "value": 0}, "group": "control_change"}, {"time": 1353, "annotation": {"number": 64, "value": 127}, "group": "control_change"}, {"time": 1397, "annotation": {"number": 64, "value": 0}, "group": "control_change"}, {"time": 1401, "annotation": {"number": 64, "value": 127}, "group": "control_change"}, {"time": 1445, "annotation": {"number": 64, "value": 0}, "group": "control_change"}, {"time": 1450, "annotation": {"number": 64, "value": 127}, "group": "control_change"}, {"time": 1489, "annotation": {"number": 64, "value": 0}, "group": "control_change"}, {"time": 1493, "annotation": {"number": 64, "value": 127}, "group": "control_change"}, {"time": 1540, "annotation": {"number": 64, "value": 127}, "group": "control_change"}, {"time": 1541, "annotation": {"number": 64, "value": 0}, "group": "control_change"}, {"time": 1589, "annotation": {"number": 64, "value": 0}, "group": "control_change"}, {"time": 1593, "annotation": {"number": 64, "value": 127}, "group": "control_change"}, {"time": 1611, "annotation": {"number": 64, "value": 0}, "group": "control_change"}, {"time": 1615, "annotation": {"number": 64, "value": 127}, "group": "control_change"}, {"time": 1634, "annotation": {"number": 64, "value": 0}, "group": "control_change"}, {"time": 1638, "annotation": {"number": 64, "value": 127}, "group": "control_change"}, {"time": 1683, "annotation": {"number": 64, "value": 0}, "group": "control_change"}, {"time": 1687, "annotation": {"number": 64, "value": 127}, "group": "control_change"}, {"time": 1707, "annotation": {"number": 64, "value": 0}, "group": "control_change"}, {"time": 1712, "annotation": {"number": 64, "value": 127}, "group": "control_change"}, {"time": 1731, "annotation": {"number": 64, "value": 0}, "group": "control_change"}, {"time": 1736, "annotation": {"number": 64, "value": 127}, "group": "control_change"}, {"time": 1784, "annotation": {"number": 64, "value": 0}, "group": "control_change"}, {"time": 1788, "annotation": {"number": 64, "value": 127}, "group": "control_change"}, {"time": 1829, "annotation": {"number": 64, "value": 0}, "group": "control_change"}, {"time": 1834, "annotation": {"number": 64, "value": 127}, "group": "control_change"}, {"time": 1879, "annotation": {"number": 64, "value": 0}, "group": "control_change"}, {"time": 1883, "annotation": {"number": 64, "value": 127}, "group": "control_change"}, {"time": 1924, "annotation": {"number": 64, "value": 0}, "group": "control_change"}, {"time": 1925, "annotation": {"number": 64, "value": 127}, "group": "control_change"}, {"time": 1997, "annotation": {"number": 64, "value": 0}, "group": "control_change"}, {"time": 2001, "annotation": {"number": 64, "value": 127}, "group": "control_change"}, {"time": 2020, "annotation": {"number": 64, "value": 0}, "group": "control_change"}, {"time": 2025, "annotation": {"number": 64, "value": 127}, "group": "control_change"}, {"time": 2097, "annotation": {"number": 64, "value": 0}, "group": "control_change"}, {"time": 2102, "annotation": {"number": 64, "value": 127}, "group": "control_change"}, {"time": 2117, "annotation": {"number": 64, "value": 0}, "group": "control_change"}, {"time": 2122, "annotation": {"number": 64, "value": 127}, "group": "control_change"}, {"time": 2172, "annotation": {"number": 64, "value": 0}, "group": "control_change"}, {"time": 2177, "annotation": {"number": 64, "value": 127}, "group": "control_change"}, {"time": 2215, "annotation": {"number": 64, "value": 0}, "group": "control_change"}, {"time": 2220, "annotation": {"number": 64, "value": 127}, "group": "control_change"}, {"time": 2262, "annotation": {"number": 64, "value": 0}, "group": "control_change"}, {"time": 2267, "annotation": {"number": 64, "value": 127}, "group": "control_change"}, {"time": 2308, "annotation": {"number": 64, "value": 0}, "group": "control_change"}, {"time": 2314, "annotation": {"number": 64, "value": 127}, "group": "control_change"}, {"time": 2354, "annotation": {"number": 64, "value": 0}, "group": "control_change"}, {"time": 2360, "annotation": {"number": 64, "value": 127}, "group": "control_change"}, {"time": 2405, "annotation": {"number": 64, "value": 0}, "group": "control_change"}, {"time": 2409, "annotation": {"number": 64, "value": 127}, "group": "control_change"}, {"time": 2475, "annotation": {"number": 64, "value": 127}, "group": "control_change"}, {"time": 2500, "annotation": {"number": 64, "value": 0}, "group": "control_change"}, {"time": 2504, "annotation": {"number": 64, "value": 127}, "group": "control_change"}, {"time": 2597, "annotation": {"number": 64, "value": 0}, "group": "control_change"}, {"time": 2606, "annotation": {"number": 64, "value": 127}, "group": "control_change"}, {"time": 2691, "annotation": {"number": 64, "value": 0}, "group": "control_change"}, {"time": 2697, "annotation": {"number": 64, "value": 127}, "group": "control_change"}, {"time": 2743, "annotation": {"number": 64, "value": 0}, "group": "control_change"}, {"time": 2749, "annotation": {"number": 64, "value": 127}, "group": "control_change"}, {"time": 2790, "annotation": {"number": 64, "value": 0}, "group": "control_change"}, {"time": 2795, "annotation": {"number": 64, "value": 127}, "group": "control_change"}, {"time": 2839, "annotation": {"number": 64, "value": 0}, "group": "control_change"}, {"time": 2847, "annotation": {"number": 64, "value": 127}, "group": "control_change"}, {"time": 2875, "annotation": {"number": 64, "value": 0}, "group": "control_change"}, {"time": 2884, "annotation": {"number": 64, "value": 127}, "group": "control_change"}, {"time": 2934, "annotation": {"number": 64, "value": 0}, "group": "control_change"}, {"time": 2941, "annotation": {"number": 64, "value": 127}, "group": "control_change"}, {"time": 2982, "annotation": {"number": 64, "value": 0}, "group": "control_change"}, {"time": 2987, "annotation": {"number": 64, "value": 127}, "group": "control_change"}, {"time": 3027, "annotation": {"number": 64, "value": 0}, "group": "control_change"}, {"time": 3032, "annotation": {"number": 64, "value": 127}, "group": "control_change"}, {"time": 3073, "annotation": {"number": 64, "value": 0}, "group": "control_change"}, {"time": 3076, "annotation": {"number": 64, "value": 127}, "group": "control_change"}, {"time": 3126, "annotation": {"number": 64, "value": 0}, "group": "control_change"}, {"time": 3131, "annotation": {"number": 64, "value": 127}, "group": "control_change"}, {"time": 3174, "annotation": {"number": 64, "value": 0}, "group": "control_change"}, {"time": 3179, "annotation": {"number": 64, "value": 127}, "group": "control_change"}, {"time": 3222, "annotation": {"number": 64, "value": 0}, "group": "control_change"}, {"time": 3226, "annotation": {"number": 64, "value": 127}, "group": "control_change"}, {"time": 3268, "annotation": {"number": 64, "value": 127}, "group": "control_change"}, {"time": 3316, "annotation": {"number": 64, "value": 0}, "group": "control_change"}, {"time": 3317, "annotation": {"number": 64, "value": 0}, "group": "control_change"}, {"time": 3321, "annotation": {"number": 64, "value": 127}, "group": "control_change"}, {"time": 3365, "annotation": {"number": 64, "value": 0}, "group": "control_change"}, {"time": 3369, "annotation": {"number": 64, "value": 127}, "group": "control_change"}, {"time": 3412, "annotation": {"number": 64, "value": 0}, "group": "control_change"}, {"time": 3415, "annotation": {"number": 64, "value": 127}, "group": "control_change"}, {"time": 3460, "annotation": {"number": 64, "value": 0}, "group": "control_change"}, {"time": 3464, "annotation": {"number": 64, "value": 127}, "group": "control_change"}, {"time": 3509, "annotation": {"number": 64, "value": 0}, "group": "control_change"}, {"time": 3512, "annotation": {"number": 64, "value": 127}, "group": "control_change"}, {"time": 3556, "annotation": {"number": 64, "value": 0}, "group": "control_change"}, {"time": 3559, "annotation": {"number": 64, "value": 127}, "group": "control_change"}, {"time": 3605, "annotation": {"number": 64, "value": 0}, "group": "control_change"}, {"time": 3609, "annotation": {"number": 64, "value": 127}, "group": "control_change"}, {"time": 3653, "annotation": {"number": 64, "value": 0}, "group": "control_change"}, {"time": 3660, "annotation": {"number": 64, "value": 127}, "group": "control_change"}, {"time": 3699, "annotation": {"number": 64, "value": 0}, "group": "control_change"}, {"time": 3703, "annotation": {"number": 64, "value": 127}, "group": "control_change"}, {"time": 3749, "annotation": {"number": 64, "value": 0}, "group": "control_change"}, {"time": 3753, "annotation": {"number": 64, "value": 127}, "group": "control_change"}, {"time": 3795, "annotation": {"number": 64, "value": 0}, "group": "control_change"}, {"time": 3800, "annotation": {"number": 64, "value": 127}, "group": "control_change"}, {"time": 3843, "annotation": {"number": 64, "value": 0}, "group": "control_change"}, {"time": 3847, "annotation": {"number": 64, "value": 127}, "group": "control_change"}, {"time": 3894, "annotation": {"number": 64, "value": 0}, "group": "control_change"}, {"time": 3900, "annotation": {"number": 64, "value": 127}, "group": "control_change"}, {"time": 3940, "annotation": {"number": 64, "value": 0}, "group": "control_change"}, {"time": 3947, "annotation": {"number": 64, "value": 127}, "group": "control_change"}, {"time": 3988, "annotation": {"number": 64, "value": 0}, "group": "control_change"}, {"time": 3992, "annotation": {"number": 64, "value": 127}, "group": "control_change"}, {"time": 4036, "annotation": {"number": 64, "value": 0}, "group": "control_change"}, {"time": 4036, "annotation": {"number": 64, "value": 127}, "group": "control_change"}, {"time": 4082, "annotation": {"number": 64, "value": 0}, "group": "control_change"}, {"time": 4087, "annotation": {"number": 64, "value": 127}, "group": "control_change"}, {"time": 4130, "annotation": {"number": 64, "value": 0}, "group": "control_change"}, {"time": 4134, "annotation": {"number": 64, "value": 127}, "group": "control_change"}, {"time": 4155, "annotation": {"number": 64, "value": 0}, "group": "control_change"}, {"time": 4159, "annotation": {"number": 64, "value": 127}, "group": "control_change"}, {"time": 4179, "annotation": {"number": 64, "value": 0}, "group": "control_change"}, {"time": 4183, "annotation": {"number": 64, "value": 127}, "group": "control_change"}, {"time": 4229, "annotation": {"number": 64, "value": 0}, "group": "control_change"}, {"time": 4233, "annotation": {"number": 64, "value": 127}, "group": "control_change"}, {"time": 4277, "annotation": {"number": 64, "value": 0}, "group": "control_change"}, {"time": 4281, "annotation": {"number": 64, "value": 127}, "group": "control_change"}, {"time": 4325, "annotation": {"number": 64, "value": 0}, "group": "control_change"}, {"time": 4330, "annotation": {"number": 64, "value": 127}, "group": "control_change"}, {"time": 4369, "annotation": {"number": 64, "value": 0}, "group": "control_change"}, {"time": 4373, "annotation": {"number": 64, "value": 127}, "group": "control_change"}, {"time": 4420, "annotation": {"number": 64, "value": 127}, "group": "control_change"}, {"time": 4421, "annotation": {"number": 64, "value": 0}, "group": "control_change"}, {"time": 4469, "annotation": {"number": 64, "value": 0}, "group": "control_change"}, {"time": 4473, "annotation": {"number": 64, "value": 127}, "group": "control_change"}, {"time": 4491, "annotation": {"number": 64, "value": 0}, "group": "control_change"}, {"time": 4495, "annotation": {"number": 64, "value": 127}, "group": "control_change"}, {"time": 4514, "annotation": {"number": 64, "value": 0}, "group": "control_change"}, {"time": 4518, "annotation": {"number": 64, "value": 127}, "group": "control_change"}, {"time": 4563, "annotation": {"number": 64, "value": 0}, "group": "control_change"}, {"time": 4567, "annotation": {"number": 64, "value": 127}, "group": "control_change"}, {"time": 4587, "annotation": {"number": 64, "value": 0}, "group": "control_change"}, {"time": 4592, "annotation": {"number": 64, "value": 127}, "group": "control_change"}, {"time": 4611, "annotation": {"number": 64, "value": 0}, "group": "control_change"}, {"time": 4616, "annotation": {"number": 64, "value": 127}, "group": "control_change"}, {"time": 4664, "annotation": {"number": 64, "value": 0}, "group": "control_change"}, {"time": 4668, "annotation": {"number": 64, "value": 127}, "group": "control_change"}, {"time": 4709, "annotation": {"number": 64, "value": 0}, "group": "control_change"}, {"time": 4714, "annotation": {"number": 64, "value": 127}, "group": "control_change"}, {"time": 4759, "annotation": {"number": 64, "value": 0}, "group": "control_change"}, {"time": 4763, "annotation": {"number": 64, "value": 127}, "group": "control_change"}, {"time": 4804, "annotation": {"number": 64, "value": 0}, "group": "control_change"}, {"time": 4805, "annotation": {"number": 64, "value": 127}, "group": "control_change"}, {"time": 4877, "annotation": {"number": 64, "value": 0}, "group": "control_change"}, {"time": 4881, "annotation": {"number": 64, "value": 127}, "group": "control_change"}, {"time": 4900, "annotation": {"number": 64, "value": 0}, "group": "control_change"}, {"time": 4905, "annotation": {"number": 64, "value": 127}, "group": "control_change"}, {"time": 4977, "annotation": {"number": 64, "value": 0}, "group": "control_change"}, {"time": 4982, "annotation": {"number": 64, "value": 127}, "group": "control_change"}, {"time": 4997, "annotation": {"number": 64, "value": 0}, "group": "control_change"}, {"time": 5002, "annotation": {"number": 64, "value": 127}, "group": "control_change"}, {"time": 5052, "annotation": {"number": 64, "value": 0}, "group": "control_change"}, {"time": 5057, "annotation": {"number": 64, "value": 127}, "group": "control_change"}, {"time": 5095, "annotation": {"number": 64, "value": 0}, "group": "control_change"}, {"time": 5100, "annotation": {"number": 64, "value": 127}, "group": "control_change"}, {"time": 5142, "annotation": {"number": 64, "value": 0}, "group": "control_change"}, {"time": 5147, "annotation": {"number": 64, "value": 127}, "group": "control_change"}, {"time": 5188, "annotation": {"number": 64, "value": 0}, "group": "control_change"}, {"time": 5194, "annotation": {"number": 64, "value": 127}, "group": "control_change"}, {"time": 5234, "annotation": {"number": 64, "value": 0}, "group": "control_change"}, {"time": 5240, "annotation": {"number": 64, "value": 127}, "group": "control_change"}, {"time": 5284, "annotation": {"number": 64, "value": 0}, "group": "control_change"}, {"time": 5286, "annotation": {"number": 64, "value": 127}, "group": "control_change"}, {"time": 5301, "annotation": {"number": 64, "value": 0}, "group": "control_change"}, {"time": 5307, "annotation": {"number": 64, "value": 127}, "group": "control_change"}, {"time": 5318, "annotation": {"number": 64, "value": 0}, "group": "control_change"}, {"time": 5324, "annotation": {"number": 64, "value": 127}, "group": "control_change"}, {"time": 5357, "annotation": {"number": 64, "value": 0}, "group": "control_change"}, {"time": 5363, "annotation": {"number": 64, "value": 127}, "group": "control_change"}, {"time": 5379, "annotation": {"number": 64, "value": 0}, "group": "control_change"}, {"time": 5386, "annotation": {"number": 64, "value": 127}, "group": "control_change"}, {"time": 5454, "annotation": {"number": 64, "value": 0}, "group": "control_change"}, {"time": 5461, "annotation": {"number": 64, "value": 127}, "group": "control_change"}, {"time": 5478, "annotation": {"number": 64, "value": 0}, "group": "control_change"}, {"time": 5485, "annotation": {"number": 64, "value": 127}, "group": "control_change"}, {"time": 5525, "annotation": {"number": 64, "value": 0}, "group": "control_change"}, {"time": 5534, "annotation": {"number": 64, "value": 127}, "group": "control_change"}, {"time": 5570, "annotation": {"number": 64, "value": 0}, "group": "control_change"}, {"time": 5578, "annotation": {"number": 64, "value": 127}, "group": "control_change"}, {"time": 5616, "annotation": {"number": 64, "value": 0}, "group": "control_change"}, {"time": 5623, "annotation": {"number": 64, "value": 127}, "group": "control_change"}, {"time": 5669, "annotation": {"number": 64, "value": 0}, "group": "control_change"}, {"time": 5676, "annotation": {"number": 64, "value": 127}, "group": "control_change"}, {"time": 5713, "annotation": {"number": 64, "value": 0}, "group": "control_change"}, {"time": 5722, "annotation": {"number": 64, "value": 127}, "group": "control_change"}, {"time": 5745, "annotation": {"number": 64, "value": 0}, "group": "control_change"}, {"time": 5747, "annotation": {"number": 64, "value": 127}, "group": "control_change"}, {"time": 5766, "annotation": {"number": 64, "value": 0}, "group": "control_change"}, {"time": 5768, "annotation": {"number": 64, "value": 127}, "group": "control_change"}, {"time": 5838, "annotation": {"number": 64, "value": 0}, "group": "control_change"}, {"time": 5845, "annotation": {"number": 64, "value": 127}, "group": "control_change"}, {"time": 5861, "annotation": {"number": 64, "value": 0}, "group": "control_change"}, {"time": 5868, "annotation": {"number": 64, "value": 127}, "group": "control_change"}, {"time": 5893, "annotation": {"number": 64, "value": 0}, "group": "control_change"}, {"time": 5899, "annotation": {"number": 64, "value": 127}, "group": "control_change"}, {"time": 5899, "annotation": {"number": 64, "value": 0}, "group": "control_change"}, {"time": 5900, "annotation": {"number": 64, "value": 0}, "group": "control_change"}, {"time": 5900, "annotation": {"number": 64, "value": 127}, "group": "control_change"}, {"time": 5909, "annotation": {"number": 64, "value": 0}, "group": "control_change"}, {"time": 5916, "annotation": {"number": 64, "value": 127}, "group": "control_change"}, {"time": 5933, "annotation": {"number": 64, "value": 0}, "group": "control_change"}, {"time": 5939, "annotation": {"number": 64, "value": 127}, "group": "control_change"}, {"time": 5957, "annotation": {"number": 64, "value": 0}, "group": "control_change"}, {"time": 5964, "annotation": {"number": 64, "value": 127}, "group": "control_change"}, {"time": 6004, "annotation": {"number": 64, "value": 0}, "group": "control_change"}, {"time": 6013, "annotation": {"number": 64, "value": 127}, "group": "control_change"}, {"time": 6051, "annotation": {"number": 64, "value": 0}, "group": "control_change"}, {"time": 6062, "annotation": {"number": 64, "value": 127}, "group": "control_change"}, {"time": 6094, "annotation": {"number": 64, "value": 0}, "group": "control_change"}, {"time": 6095, "annotation": {"number": 64, "value": 127}, "group": "control_change"}, {"time": 6095, "annotation": {"number": 64, "value": 0}, "group": "control_change"}, {"time": 6097, "annotation": {"number": 64, "value": 0}, "group": "control_change"}, {"time": 6110, "annotation": {"number": 64, "value": 127}, "group": "control_change"}, {"time": 6147, "annotation": {"number": 64, "value": 0}, "group": "control_change"}, {"time": 6156, "annotation": {"number": 64, "value": 127}, "group": "control_change"}, {"time": 6194, "annotation": {"number": 64, "value": 0}, "group": "control_change"}, {"time": 6202, "annotation": {"number": 64, "value": 127}, "group": "control_change"}, {"time": 6231, "annotation": {"number": 64, "value": 0}, "group": "control_change"}, {"time": 6255, "annotation": {"number": 64, "value": 127}, "group": "control_change"}, {"time": 6266, "annotation": {"number": 64, "value": 0}, "group": "control_change"}, {"time": 6266, "annotation": {"number": 64, "value": 127}, "group": "control_change"}, {"time": 6345, "annotation": {"number": 64, "value": 127}, "group": "control_change"}, {"time": 6387, "annotation": {"number": 64, "value": 0}, "group": "control_change"}, {"time": 6395, "annotation": {"number": 64, "value": 127}, "group": "control_change"}, {"time": 6438, "annotation": {"number": 64, "value": 0}, "group": "control_change"}, {"time": 6445, "annotation": {"number": 64, "value": 127}, "group": "control_change"}, {"time": 6468, "annotation": {"number": 64, "value": 0}, "group": "control_change"}, {"time": 6474, "annotation": {"number": 64, "value": 127}, "group": "control_change"}, {"time": 6495, "annotation": {"number": 64, "value": 0}, "group": "control_change"}, {"time": 6502, "annotation": {"number": 64, "value": 127}, "group": "control_change"}, {"time": 6575, "annotation": {"number": 64, "value": 0}, "group": "control_change"}, {"time": 6580, "annotation": {"number": 64, "value": 127}, "group": "control_change"}, {"time": 6644, "annotation": {"number": 64, "value": 0}, "group": "control_change"}, {"time": 6651, "annotation": {"number": 64, "value": 127}, "group": "control_change"}, {"time": 6694, "annotation": {"number": 64, "value": 0}, "group": "control_change"}, {"time": 6701, "annotation": {"number": 64, "value": 127}, "group": "control_change"}, {"time": 6744, "annotation": {"number": 64, "value": 0}, "group": "control_change"}, {"time": 6750, "annotation": {"number": 64, "value": 127}, "group": "control_change"}, {"time": 6808, "annotation": {"number": 64, "value": 0}, "group": "control_change"}, {"time": 6815, "annotation": {"number": 64, "value": 127}, "group": "control_change"}, {"time": 6959, "annotation": {"number": 64, "value": 0}, "group": "control_change"}]}]}