{"metadata": {"schema_version": "0.2", "title": "None", "source_filename": "198.mid", "source_format": "midi"}, "resolution": 12, "tempos": [{"time": 0, "qpm": 129.00035475097556}, {"time": 1440, "qpm": 126.99998518333506}, {"time": 1464, "qpm": 129.00035475097556}, {"time": 1560, "qpm": 126.000126000126}, {"time": 1584, "qpm": 129.00035475097556}, {"time": 2040, "qpm": 126.000126000126}, {"time": 2064, "qpm": 129.00035475097556}, {"time": 2232, "qpm": 126.000126000126}, {"time": 2256, "qpm": 129.00035475097556}, {"time": 3192, "qpm": 120.99994353335968}, {"time": 3216, "qpm": 129.00035475097556}, {"time": 3744, "qpm": 126.99998518333506}, {"time": 3792, "qpm": 129.00035475097556}, {"time": 4224, "qpm": 126.000126000126}, {"time": 4248, "qpm": 129.00035475097556}, {"time": 4548, "qpm": 126.000126000126}, {"time": 4560, "qpm": 129.00035475097556}, {"time": 4776, "qpm": 125.0}, {"time": 4824, "qpm": 126.99998518333506}, {"time": 4896, "qpm": 131.00007641671124}, {"time": 5016, "qpm": 126.99998518333506}, {"time": 5088, "qpm": 129.00035475097556}], "key_signatures": [{"time": 0, "root": 0, "mode": "major"}], "time_signatures": [{"time": 0, "numerator": 4, "denominator": 4}, {"time": 0, "numerator": 2, "denominator": 4}], "tracks": [{"program": 4, "is_drum": false, "name": "MELODY", "notes": [{"time": 714, "pitch": 74, "duration": 12, "velocity": 94}, {"time": 726, "pitch": 74, "duration": 12, "velocity": 94}, {"time": 738, "pitch": 74, "duration": 13, "velocity": 82}, {"time": 750, "pitch": 72, "duration": 7, "velocity": 84}, {"time": 756, "pitch": 69, "duration": 42, "velocity": 66}, {"time": 798, "pitch": 65, "duration": 7, "velocity": 64}, {"time": 804, "pitch": 67, "duration": 7, "velocity": 85}, {"time": 810, "pitch": 69, "duration": 19, "velocity": 91}, {"time": 828, "pitch": 72, "duration": 18, "velocity": 93}, {"time": 846, "pitch": 72, "duration": 60, "velocity": 95}, {"time": 906, "pitch": 67, "duration": 12, "velocity": 94}, {"time": 918, "pitch": 67, "duration": 12, "velocity": 91}, {"time": 930, "pitch": 67, "duration": 12, "velocity": 93}, {"time": 942, "pitch": 67, "duration": 7, "velocity": 92}, {"time": 948, "pitch": 60, "duration": 42, "velocity": 87}, {"time": 990, "pitch": 67, "duration": 8, "velocity": 95}, {"time": 996, "pitch": 60, "duration": 6, "velocity": 91}, {"time": 1002, "pitch": 62, "duration": 12, "velocity": 84}, {"time": 1014, "pitch": 62, "duration": 12, "velocity": 89}, {"time": 1026, "pitch": 62, "duration": 72, "velocity": 97}, {"time": 1098, "pitch": 77, "duration": 12, "velocity": 79}, {"time": 1110, "pitch": 77, "duration": 12, "velocity": 80}, {"time": 1122, "pitch": 77, "duration": 12, "velocity": 79}, {"time": 1134, "pitch": 76, "duration": 7, "velocity": 83}, {"time": 1140, "pitch": 77, "duration": 42, "velocity": 98}, {"time": 1182, "pitch": 74, "duration": 10, "velocity": 91}, {"time": 1188, "pitch": 72, "duration": 8, "velocity": 80}, {"time": 1194, "pitch": 69, "duration": 30, "velocity": 90}, {"time": 1224, "pitch": 72, "duration": 12, "velocity": 97}, {"time": 1236, "pitch": 72, "duration": 14, "velocity": 93}, {"time": 1242, "pitch": 69, "duration": 48, "velocity": 82}, {"time": 1290, "pitch": 67, "duration": 12, "velocity": 84}, {"time": 1302, "pitch": 69, "duration": 12, "velocity": 73}, {"time": 1314, "pitch": 67, "duration": 11, "velocity": 72}, {"time": 1320, "pitch": 60, "duration": 6, "velocity": 56}, {"time": 1326, "pitch": 67, "duration": 48, "velocity": 86}, {"time": 1374, "pitch": 65, "duration": 7, "velocity": 79}, {"time": 1380, "pitch": 64, "duration": 6, "velocity": 77}, {"time": 1386, "pitch": 62, "duration": 12, "velocity": 68}, {"time": 1398, "pitch": 62, "duration": 12, "velocity": 81}, {"time": 1410, "pitch": 62, "duration": 72, "velocity": 80}, {"time": 1482, "pitch": 77, "duration": 12, "velocity": 91}, {"time": 1494, "pitch": 69, "duration": 12, "velocity": 84}, {"time": 1506, "pitch": 77, "duration": 14, "velocity": 96}, {"time": 1518, "pitch": 69, "duration": 7, "velocity": 73}, {"time": 1524, "pitch": 77, "duration": 42, "velocity": 91}, {"time": 1566, "pitch": 65, "duration": 6, "velocity": 87}, {"time": 1572, "pitch": 67, "duration": 8, "velocity": 66}, {"time": 1578, "pitch": 69, "duration": 33, "velocity": 82}, {"time": 1608, "pitch": 72, "duration": 12, "velocity": 66}, {"time": 1620, "pitch": 69, "duration": 54, "velocity": 107}, {"time": 1674, "pitch": 67, "duration": 12, "velocity": 89}, {"time": 1686, "pitch": 60, "duration": 12, "velocity": 64}, {"time": 1698, "pitch": 67, "duration": 12, "velocity": 89}, {"time": 1710, "pitch": 67, "duration": 6, "velocity": 93}, {"time": 1716, "pitch": 60, "duration": 42, "velocity": 79}, {"time": 1758, "pitch": 60, "duration": 7, "velocity": 81}, {"time": 1764, "pitch": 62, "duration": 6, "velocity": 65}, {"time": 1770, "pitch": 65, "duration": 12, "velocity": 91}, {"time": 1782, "pitch": 65, "duration": 1, "velocity": 85}, {"time": 1794, "pitch": 65, "duration": 8, "velocity": 85}, {"time": 1800, "pitch": 62, "duration": 66, "velocity": 64}, {"time": 1866, "pitch": 77, "duration": 12, "velocity": 100}, {"time": 1878, "pitch": 77, "duration": 12, "velocity": 97}, {"time": 1890, "pitch": 77, "duration": 12, "velocity": 99}, {"time": 1902, "pitch": 77, "duration": 6, "velocity": 98}, {"time": 1908, "pitch": 69, "duration": 42, "velocity": 95}, {"time": 1950, "pitch": 65, "duration": 7, "velocity": 66}, {"time": 1956, "pitch": 67, "duration": 8, "velocity": 66}, {"time": 1962, "pitch": 69, "duration": 31, "velocity": 91}, {"time": 1986, "pitch": 72, "duration": 12, "velocity": 75}, {"time": 1998, "pitch": 72, "duration": 6, "velocity": 68}, {"time": 2004, "pitch": 69, "duration": 54, "velocity": 72}, {"time": 2058, "pitch": 67, "duration": 12, "velocity": 90}, {"time": 2070, "pitch": 67, "duration": 12, "velocity": 89}, {"time": 2082, "pitch": 67, "duration": 12, "velocity": 85}, {"time": 2094, "pitch": 67, "duration": 6, "velocity": 82}, {"time": 2100, "pitch": 60, "duration": 42, "velocity": 83}, {"time": 2142, "pitch": 65, "duration": 6, "velocity": 87}, {"time": 2148, "pitch": 65, "duration": 6, "velocity": 80}, {"time": 2154, "pitch": 65, "duration": 12, "velocity": 79}, {"time": 2166, "pitch": 65, "duration": 12, "velocity": 90}, {"time": 2178, "pitch": 62, "duration": 72, "velocity": 86}, {"time": 2250, "pitch": 62, "duration": 30, "velocity": 66}, {"time": 2280, "pitch": 62, "duration": 6, "velocity": 84}, {"time": 2286, "pitch": 62, "duration": 7, "velocity": 68}, {"time": 2292, "pitch": 65, "duration": 7, "velocity": 64}, {"time": 2298, "pitch": 69, "duration": 12, "velocity": 72}, {"time": 2304, "pitch": 72, "duration": 12, "velocity": 72}, {"time": 2316, "pitch": 69, "duration": 20, "velocity": 87}, {"time": 2334, "pitch": 67, "duration": 6, "velocity": 87}, {"time": 2340, "pitch": 65, "duration": 8, "velocity": 66}, {"time": 2346, "pitch": 67, "duration": 9, "velocity": 89}, {"time": 2355, "pitch": 67, "duration": 9, "velocity": 84}, {"time": 2364, "pitch": 67, "duration": 9, "velocity": 87}, {"time": 2373, "pitch": 67, "duration": 7, "velocity": 87}, {"time": 2379, "pitch": 64, "duration": 9, "velocity": 74}, {"time": 2388, "pitch": 60, "duration": 6, "velocity": 62}, {"time": 2394, "pitch": 62, "duration": 54, "velocity": 80}, {"time": 2448, "pitch": 74, "duration": 6, "velocity": 91}, {"time": 2454, "pitch": 74, "duration": 6, "velocity": 87}, {"time": 2460, "pitch": 74, "duration": 6, "velocity": 77}, {"time": 2466, "pitch": 74, "duration": 9, "velocity": 79}, {"time": 2475, "pitch": 74, "duration": 9, "velocity": 77}, {"time": 2484, "pitch": 72, "duration": 7, "velocity": 76}, {"time": 2490, "pitch": 74, "duration": 9, "velocity": 86}, {"time": 2499, "pitch": 77, "duration": 11, "velocity": 87}, {"time": 2508, "pitch": 74, "duration": 18, "velocity": 90}, {"time": 2526, "pitch": 72, "duration": 6, "velocity": 93}, {"time": 2532, "pitch": 65, "duration": 7, "velocity": 64}, {"time": 2538, "pitch": 67, "duration": 9, "velocity": 62}, {"time": 2547, "pitch": 67, "duration": 9, "velocity": 77}, {"time": 2556, "pitch": 69, "duration": 6, "velocity": 92}, {"time": 2562, "pitch": 77, "duration": 9, "velocity": 95}, {"time": 2571, "pitch": 76, "duration": 9, "velocity": 68}, {"time": 2580, "pitch": 72, "duration": 9, "velocity": 66}, {"time": 2586, "pitch": 74, "duration": 54, "velocity": 81}, {"time": 3210, "pitch": 74, "duration": 9, "velocity": 94}, {"time": 3222, "pitch": 74, "duration": 9, "velocity": 94}, {"time": 3234, "pitch": 74, "duration": 13, "velocity": 82}, {"time": 3246, "pitch": 72, "duration": 7, "velocity": 84}, {"time": 3252, "pitch": 69, "duration": 34, "velocity": 66}, {"time": 3294, "pitch": 65, "duration": 7, "velocity": 64}, {"time": 3300, "pitch": 67, "duration": 7, "velocity": 85}, {"time": 3306, "pitch": 69, "duration": 19, "velocity": 91}, {"time": 3324, "pitch": 72, "duration": 16, "velocity": 93}, {"time": 3342, "pitch": 72, "duration": 33, "velocity": 95}, {"time": 3402, "pitch": 67, "duration": 9, "velocity": 94}, {"time": 3414, "pitch": 67, "duration": 10, "velocity": 91}, {"time": 3426, "pitch": 67, "duration": 9, "velocity": 93}, {"time": 3438, "pitch": 67, "duration": 6, "velocity": 92}, {"time": 3444, "pitch": 60, "duration": 35, "velocity": 87}, {"time": 3486, "pitch": 67, "duration": 5, "velocity": 95}, {"time": 3492, "pitch": 60, "duration": 5, "velocity": 91}, {"time": 3498, "pitch": 62, "duration": 9, "velocity": 84}, {"time": 3510, "pitch": 62, "duration": 8, "velocity": 89}, {"time": 3522, "pitch": 62, "duration": 47, "velocity": 97}, {"time": 3594, "pitch": 77, "duration": 9, "velocity": 79}, {"time": 3606, "pitch": 77, "duration": 10, "velocity": 80}, {"time": 3618, "pitch": 77, "duration": 12, "velocity": 79}, {"time": 3630, "pitch": 76, "duration": 7, "velocity": 83}, {"time": 3636, "pitch": 77, "duration": 36, "velocity": 98}, {"time": 3678, "pitch": 74, "duration": 7, "velocity": 91}, {"time": 3684, "pitch": 72, "duration": 6, "velocity": 80}, {"time": 3690, "pitch": 69, "duration": 25, "velocity": 90}, {"time": 3720, "pitch": 72, "duration": 11, "velocity": 97}, {"time": 3732, "pitch": 72, "duration": 8, "velocity": 93}, {"time": 3738, "pitch": 69, "duration": 27, "velocity": 82}, {"time": 3786, "pitch": 67, "duration": 7, "velocity": 84}, {"time": 3798, "pitch": 67, "duration": 9, "velocity": 73}, {"time": 3810, "pitch": 67, "duration": 11, "velocity": 72}, {"time": 3822, "pitch": 60, "duration": 6, "velocity": 56}, {"time": 3828, "pitch": 67, "duration": 30, "velocity": 86}, {"time": 3864, "pitch": 60, "duration": 7, "velocity": 72}, {"time": 3870, "pitch": 65, "duration": 7, "velocity": 79}, {"time": 3876, "pitch": 60, "duration": 6, "velocity": 77}, {"time": 3882, "pitch": 62, "duration": 9, "velocity": 68}, {"time": 3894, "pitch": 62, "duration": 9, "velocity": 81}, {"time": 3906, "pitch": 62, "duration": 40, "velocity": 80}, {"time": 3978, "pitch": 77, "duration": 12, "velocity": 91}, {"time": 3990, "pitch": 69, "duration": 11, "velocity": 84}, {"time": 4002, "pitch": 77, "duration": 14, "velocity": 96}, {"time": 4014, "pitch": 69, "duration": 7, "velocity": 73}, {"time": 4020, "pitch": 77, "duration": 17, "velocity": 91}, {"time": 4062, "pitch": 65, "duration": 6, "velocity": 87}, {"time": 4068, "pitch": 67, "duration": 8, "velocity": 66}, {"time": 4074, "pitch": 69, "duration": 33, "velocity": 82}, {"time": 4104, "pitch": 72, "duration": 12, "velocity": 66}, {"time": 4116, "pitch": 72, "duration": 6, "velocity": 66}, {"time": 4122, "pitch": 69, "duration": 19, "velocity": 107}, {"time": 4170, "pitch": 67, "duration": 11, "velocity": 89}, {"time": 4182, "pitch": 60, "duration": 11, "velocity": 64}, {"time": 4194, "pitch": 67, "duration": 10, "velocity": 89}, {"time": 4206, "pitch": 67, "duration": 6, "velocity": 93}, {"time": 4212, "pitch": 60, "duration": 16, "velocity": 79}, {"time": 4248, "pitch": 60, "duration": 7, "velocity": 81}, {"time": 4254, "pitch": 67, "duration": 7, "velocity": 81}, {"time": 4260, "pitch": 60, "duration": 6, "velocity": 65}, {"time": 4266, "pitch": 65, "duration": 12, "velocity": 91}, {"time": 4281, "pitch": 65, "duration": 7, "velocity": 85}, {"time": 4290, "pitch": 65, "duration": 6, "velocity": 85}, {"time": 4296, "pitch": 62, "duration": 22, "velocity": 64}, {"time": 4362, "pitch": 77, "duration": 9, "velocity": 100}, {"time": 4374, "pitch": 77, "duration": 9, "velocity": 97}, {"time": 4386, "pitch": 77, "duration": 9, "velocity": 99}, {"time": 4398, "pitch": 77, "duration": 6, "velocity": 98}, {"time": 4404, "pitch": 69, "duration": 25, "velocity": 95}, {"time": 4446, "pitch": 65, "duration": 7, "velocity": 66}, {"time": 4452, "pitch": 67, "duration": 8, "velocity": 66}, {"time": 4458, "pitch": 69, "duration": 31, "velocity": 91}, {"time": 4488, "pitch": 72, "duration": 9, "velocity": 75}, {"time": 4500, "pitch": 72, "duration": 6, "velocity": 68}, {"time": 4506, "pitch": 69, "duration": 28, "velocity": 72}, {"time": 4554, "pitch": 67, "duration": 10, "velocity": 90}, {"time": 4566, "pitch": 67, "duration": 8, "velocity": 89}, {"time": 4578, "pitch": 67, "duration": 9, "velocity": 85}, {"time": 4590, "pitch": 67, "duration": 6, "velocity": 82}, {"time": 4596, "pitch": 60, "duration": 21, "velocity": 83}, {"time": 4638, "pitch": 65, "duration": 4, "velocity": 87}, {"time": 4644, "pitch": 60, "duration": 4, "velocity": 80}, {"time": 4650, "pitch": 65, "duration": 9, "velocity": 79}, {"time": 4662, "pitch": 65, "duration": 12, "velocity": 90}, {"time": 4674, "pitch": 62, "duration": 33, "velocity": 86}, {"time": 4746, "pitch": 62, "duration": 26, "velocity": 66}, {"time": 4776, "pitch": 62, "duration": 3, "velocity": 84}, {"time": 4782, "pitch": 62, "duration": 7, "velocity": 68}, {"time": 4788, "pitch": 65, "duration": 7, "velocity": 64}, {"time": 4794, "pitch": 69, "duration": 12, "velocity": 72}, {"time": 4803, "pitch": 72, "duration": 11, "velocity": 72}, {"time": 4812, "pitch": 69, "duration": 19, "velocity": 87}, {"time": 4830, "pitch": 67, "duration": 6, "velocity": 87}, {"time": 4836, "pitch": 65, "duration": 8, "velocity": 66}, {"time": 4842, "pitch": 67, "duration": 6, "velocity": 89}, {"time": 4851, "pitch": 67, "duration": 6, "velocity": 84}, {"time": 4860, "pitch": 67, "duration": 4, "velocity": 87}, {"time": 4866, "pitch": 67, "duration": 7, "velocity": 87}, {"time": 4875, "pitch": 64, "duration": 8, "velocity": 74}, {"time": 4884, "pitch": 60, "duration": 6, "velocity": 62}, {"time": 4890, "pitch": 62, "duration": 23, "velocity": 80}, {"time": 4944, "pitch": 74, "duration": 3, "velocity": 91}, {"time": 4950, "pitch": 74, "duration": 3, "velocity": 87}, {"time": 4956, "pitch": 74, "duration": 4, "velocity": 77}, {"time": 4962, "pitch": 74, "duration": 6, "velocity": 79}, {"time": 4971, "pitch": 74, "duration": 8, "velocity": 77}, {"time": 4980, "pitch": 72, "duration": 7, "velocity": 76}, {"time": 4986, "pitch": 74, "duration": 7, "velocity": 86}, {"time": 4995, "pitch": 77, "duration": 11, "velocity": 87}, {"time": 5004, "pitch": 74, "duration": 12, "velocity": 90}, {"time": 5022, "pitch": 72, "duration": 6, "velocity": 93}, {"time": 5028, "pitch": 65, "duration": 7, "velocity": 64}, {"time": 5034, "pitch": 67, "duration": 6, "velocity": 62}, {"time": 5043, "pitch": 67, "duration": 6, "velocity": 77}, {"time": 5052, "pitch": 69, "duration": 4, "velocity": 92}, {"time": 5058, "pitch": 77, "duration": 9, "velocity": 95}, {"time": 5067, "pitch": 76, "duration": 9, "velocity": 68}, {"time": 5079, "pitch": 72, "duration": 9, "velocity": 66}, {"time": 5085, "pitch": 74, "duration": 65, "velocity": 81}], "annotations": [{"time": 717, "annotation": {"number": 64, "value": 127}, "group": "control_change"}, {"time": 726, "annotation": {"number": 64, "value": 0}, "group": "control_change"}, {"time": 738, "annotation": {"number": 64, "value": 127}, "group": "control_change"}, {"time": 748, "annotation": {"number": 64, "value": 0}, "group": "control_change"}, {"time": 763, "annotation": {"number": 64, "value": 127}, "group": "control_change"}, {"time": 790, "annotation": {"number": 64, "value": 0}, "group": "control_change"}, {"time": 811, "annotation": {"number": 64, "value": 127}, "group": "control_change"}, {"time": 823, "annotation": {"number": 64, "value": 0}, "group": "control_change"}, {"time": 867, "annotation": {"number": 64, "value": 127}, "group": "control_change"}, {"time": 910, "annotation": {"number": 64, "value": 127}, "group": "control_change"}, {"time": 916, "annotation": {"number": 64, "value": 0}, "group": "control_change"}, {"time": 950, "annotation": {"number": 64, "value": 127}, "group": "control_change"}, {"time": 968, "annotation": {"number": 64, "value": 0}, "group": "control_change"}, {"time": 1068, "annotation": {"number": 64, "value": 127}, "group": "control_change"}, {"time": 1098, "annotation": {"number": 64, "value": 127}, "group": "control_change"}, {"time": 1107, "annotation": {"number": 64, "value": 0}, "group": "control_change"}, {"time": 1148, "annotation": {"number": 64, "value": 127}, "group": "control_change"}, {"time": 1176, "annotation": {"number": 64, "value": 0}, "group": "control_change"}, {"time": 1277, "annotation": {"number": 64, "value": 127}, "group": "control_change"}, {"time": 1282, "annotation": {"number": 64, "value": 0}, "group": "control_change"}, {"time": 1339, "annotation": {"number": 64, "value": 127}, "group": "control_change"}, {"time": 1353, "annotation": {"number": 64, "value": 0}, "group": "control_change"}, {"time": 1360, "annotation": {"number": 64, "value": 127}, "group": "control_change"}, {"time": 1367, "annotation": {"number": 64, "value": 0}, "group": "control_change"}, {"time": 1384, "annotation": {"number": 64, "value": 127}, "group": "control_change"}, {"time": 1393, "annotation": {"number": 64, "value": 0}, "group": "control_change"}, {"time": 1408, "annotation": {"number": 64, "value": 127}, "group": "control_change"}, {"time": 1419, "annotation": {"number": 64, "value": 0}, "group": "control_change"}, {"time": 1428, "annotation": {"number": 64, "value": 127}, "group": "control_change"}, {"time": 1457, "annotation": {"number": 64, "value": 127}, "group": "control_change"}, {"time": 1463, "annotation": {"number": 64, "value": 0}, "group": "control_change"}, {"time": 1469, "annotation": {"number": 64, "value": 127}, "group": "control_change"}, {"time": 1471, "annotation": {"number": 64, "value": 0}, "group": "control_change"}, {"time": 1479, "annotation": {"number": 64, "value": 127}, "group": "control_change"}, {"time": 1495, "annotation": {"number": 64, "value": 0}, "group": "control_change"}, {"time": 1525, "annotation": {"number": 64, "value": 127}, "group": "control_change"}, {"time": 1539, "annotation": {"number": 64, "value": 0}, "group": "control_change"}, {"time": 1577, "annotation": {"number": 64, "value": 127}, "group": "control_change"}, {"time": 1607, "annotation": {"number": 64, "value": 0}, "group": "control_change"}, {"time": 1625, "annotation": {"number": 64, "value": 127}, "group": "control_change"}, {"time": 1640, "annotation": {"number": 64, "value": 0}, "group": "control_change"}, {"time": 1645, "annotation": {"number": 64, "value": 127}, "group": "control_change"}, {"time": 1660, "annotation": {"number": 64, "value": 0}, "group": "control_change"}, {"time": 1700, "annotation": {"number": 64, "value": 127}, "group": "control_change"}, {"time": 1710, "annotation": {"number": 64, "value": 0}, "group": "control_change"}, {"time": 1854, "annotation": {"number": 64, "value": 0}, "group": "control_change"}, {"time": 1962, "annotation": {"number": 64, "value": 127}, "group": "control_change"}, {"time": 1976, "annotation": {"number": 64, "value": 0}, "group": "control_change"}, {"time": 2088, "annotation": {"number": 64, "value": 127}, "group": "control_change"}, {"time": 2094, "annotation": {"number": 64, "value": 0}, "group": "control_change"}, {"time": 2164, "annotation": {"number": 64, "value": 127}, "group": "control_change"}, {"time": 2174, "annotation": {"number": 64, "value": 0}, "group": "control_change"}, {"time": 2200, "annotation": {"number": 64, "value": 127}, "group": "control_change"}, {"time": 2278, "annotation": {"number": 64, "value": 127}, "group": "control_change"}, {"time": 2283, "annotation": {"number": 64, "value": 0}, "group": "control_change"}, {"time": 2322, "annotation": {"number": 64, "value": 127}, "group": "control_change"}, {"time": 2328, "annotation": {"number": 64, "value": 0}, "group": "control_change"}, {"time": 2332, "annotation": {"number": 64, "value": 0}, "group": "control_change"}, {"time": 2442, "annotation": {"number": 64, "value": 127}, "group": "control_change"}, {"time": 2449, "annotation": {"number": 64, "value": 0}, "group": "control_change"}, {"time": 2466, "annotation": {"number": 64, "value": 127}, "group": "control_change"}, {"time": 2482, "annotation": {"number": 64, "value": 0}, "group": "control_change"}, {"time": 3212, "annotation": {"number": 64, "value": 127}, "group": "control_change"}, {"time": 3222, "annotation": {"number": 64, "value": 0}, "group": "control_change"}, {"time": 3233, "annotation": {"number": 64, "value": 127}, "group": "control_change"}, {"time": 3243, "annotation": {"number": 64, "value": 0}, "group": "control_change"}, {"time": 3258, "annotation": {"number": 64, "value": 127}, "group": "control_change"}, {"time": 3286, "annotation": {"number": 64, "value": 0}, "group": "control_change"}, {"time": 3307, "annotation": {"number": 64, "value": 127}, "group": "control_change"}, {"time": 3319, "annotation": {"number": 64, "value": 0}, "group": "control_change"}, {"time": 3362, "annotation": {"number": 64, "value": 127}, "group": "control_change"}, {"time": 3398, "annotation": {"number": 64, "value": 0}, "group": "control_change"}, {"time": 3407, "annotation": {"number": 64, "value": 127}, "group": "control_change"}, {"time": 3413, "annotation": {"number": 64, "value": 0}, "group": "control_change"}, {"time": 3447, "annotation": {"number": 64, "value": 127}, "group": "control_change"}, {"time": 3465, "annotation": {"number": 64, "value": 0}, "group": "control_change"}, {"time": 3565, "annotation": {"number": 64, "value": 127}, "group": "control_change"}, {"time": 3594, "annotation": {"number": 64, "value": 127}, "group": "control_change"}, {"time": 3603, "annotation": {"number": 64, "value": 0}, "group": "control_change"}, {"time": 3643, "annotation": {"number": 64, "value": 127}, "group": "control_change"}, {"time": 3671, "annotation": {"number": 64, "value": 0}, "group": "control_change"}, {"time": 3772, "annotation": {"number": 64, "value": 127}, "group": "control_change"}, {"time": 3778, "annotation": {"number": 64, "value": 0}, "group": "control_change"}, {"time": 3838, "annotation": {"number": 64, "value": 127}, "group": "control_change"}, {"time": 3852, "annotation": {"number": 64, "value": 0}, "group": "control_change"}, {"time": 3860, "annotation": {"number": 64, "value": 127}, "group": "control_change"}, {"time": 3867, "annotation": {"number": 64, "value": 0}, "group": "control_change"}, {"time": 3884, "annotation": {"number": 64, "value": 127}, "group": "control_change"}, {"time": 3893, "annotation": {"number": 64, "value": 0}, "group": "control_change"}, {"time": 3907, "annotation": {"number": 64, "value": 127}, "group": "control_change"}, {"time": 3919, "annotation": {"number": 64, "value": 0}, "group": "control_change"}, {"time": 3928, "annotation": {"number": 64, "value": 127}, "group": "control_change"}, {"time": 3957, "annotation": {"number": 64, "value": 127}, "group": "control_change"}, {"time": 3963, "annotation": {"number": 64, "value": 0}, "group": "control_change"}, {"time": 3967, "annotation": {"number": 64, "value": 127}, "group": "control_change"}, {"time": 3969, "annotation": {"number": 64, "value": 0}, "group": "control_change"}, {"time": 3980, "annotation": {"number": 64, "value": 127}, "group": "control_change"}, {"time": 3996, "annotation": {"number": 64, "value": 0}, "group": "control_change"}, {"time": 4025, "annotation": {"number": 64, "value": 127}, "group": "control_change"}, {"time": 4039, "annotation": {"number": 64, "value": 0}, "group": "control_change"}, {"time": 4077, "annotation": {"number": 64, "value": 127}, "group": "control_change"}, {"time": 4108, "annotation": {"number": 64, "value": 0}, "group": "control_change"}, {"time": 4126, "annotation": {"number": 64, "value": 127}, "group": "control_change"}, {"time": 4141, "annotation": {"number": 64, "value": 0}, "group": "control_change"}, {"time": 4146, "annotation": {"number": 64, "value": 127}, "group": "control_change"}, {"time": 4158, "annotation": {"number": 64, "value": 0}, "group": "control_change"}, {"time": 4194, "annotation": {"number": 64, "value": 127}, "group": "control_change"}, {"time": 4204, "annotation": {"number": 64, "value": 0}, "group": "control_change"}, {"time": 4348, "annotation": {"number": 64, "value": 0}, "group": "control_change"}, {"time": 4458, "annotation": {"number": 64, "value": 127}, "group": "control_change"}, {"time": 4473, "annotation": {"number": 64, "value": 0}, "group": "control_change"}, {"time": 4585, "annotation": {"number": 64, "value": 127}, "group": "control_change"}, {"time": 4591, "annotation": {"number": 64, "value": 0}, "group": "control_change"}, {"time": 4657, "annotation": {"number": 64, "value": 127}, "group": "control_change"}, {"time": 4668, "annotation": {"number": 64, "value": 0}, "group": "control_change"}, {"time": 4694, "annotation": {"number": 64, "value": 127}, "group": "control_change"}, {"time": 4771, "annotation": {"number": 64, "value": 127}, "group": "control_change"}, {"time": 4775, "annotation": {"number": 64, "value": 0}, "group": "control_change"}, {"time": 4817, "annotation": {"number": 64, "value": 127}, "group": "control_change"}, {"time": 4823, "annotation": {"number": 64, "value": 0}, "group": "control_change"}, {"time": 4827, "annotation": {"number": 64, "value": 0}, "group": "control_change"}, {"time": 4937, "annotation": {"number": 64, "value": 127}, "group": "control_change"}, {"time": 4944, "annotation": {"number": 64, "value": 0}, "group": "control_change"}, {"time": 4962, "annotation": {"number": 64, "value": 127}, "group": "control_change"}, {"time": 4977, "annotation": {"number": 64, "value": 0}, "group": "control_change"}]}, {"program": 0, "is_drum": false, "name": "PIANO", "notes": [{"time": 11, "pitch": 38, "duration": 25, "velocity": 82}, {"time": 37, "pitch": 36, "duration": 26, "velocity": 82}, {"time": 65, "pitch": 34, "duration": 27, "velocity": 82}, {"time": 92, "pitch": 33, "duration": 27, "velocity": 82}, {"time": 120, "pitch": 31, "duration": 81, "velocity": 82}, {"time": 120, "pitch": 46, "duration": 76, "velocity": 45}, {"time": 120, "pitch": 62, "duration": 12, "velocity": 48}, {"time": 120, "pitch": 65, "duration": 14, "velocity": 46}, {"time": 120, "pitch": 69, "duration": 14, "velocity": 45}, {"time": 147, "pitch": 69, "duration": 7, "velocity": 53}, {"time": 147, "pitch": 72, "duration": 8, "velocity": 56}, {"time": 147, "pitch": 77, "duration": 9, "velocity": 44}, {"time": 174, "pitch": 81, "duration": 7, "velocity": 55}, {"time": 174, "pitch": 86, "duration": 8, "velocity": 42}, {"time": 206, "pitch": 34, "duration": 12, "velocity": 82}, {"time": 214, "pitch": 36, "duration": 12, "velocity": 82}, {"time": 223, "pitch": 36, "duration": 3, "velocity": 82}, {"time": 234, "pitch": 50, "duration": 46, "velocity": 55}, {"time": 234, "pitch": 62, "duration": 5, "velocity": 55}, {"time": 240, "pitch": 64, "duration": 5, "velocity": 58}, {"time": 246, "pitch": 65, "duration": 6, "velocity": 54}, {"time": 252, "pitch": 69, "duration": 6, "velocity": 58}, {"time": 258, "pitch": 53, "duration": 20, "velocity": 46}, {"time": 258, "pitch": 57, "duration": 19, "velocity": 45}, {"time": 258, "pitch": 62, "duration": 8, "velocity": 55}, {"time": 264, "pitch": 64, "duration": 5, "velocity": 47}, {"time": 270, "pitch": 65, "duration": 6, "velocity": 44}, {"time": 276, "pitch": 69, "duration": 8, "velocity": 57}, {"time": 282, "pitch": 50, "duration": 38, "velocity": 54}, {"time": 282, "pitch": 53, "duration": 40, "velocity": 61}, {"time": 282, "pitch": 57, "duration": 35, "velocity": 52}, {"time": 282, "pitch": 62, "duration": 9, "velocity": 49}, {"time": 288, "pitch": 64, "duration": 6, "velocity": 49}, {"time": 294, "pitch": 65, "duration": 6, "velocity": 48}, {"time": 300, "pitch": 69, "duration": 7, "velocity": 62}, {"time": 306, "pitch": 62, "duration": 8, "velocity": 46}, {"time": 312, "pitch": 64, "duration": 5, "velocity": 51}, {"time": 318, "pitch": 65, "duration": 6, "velocity": 49}, {"time": 324, "pitch": 69, "duration": 7, "velocity": 55}, {"time": 330, "pitch": 50, "duration": 79, "velocity": 51}, {"time": 330, "pitch": 53, "duration": 80, "velocity": 50}, {"time": 330, "pitch": 57, "duration": 24, "velocity": 46}, {"time": 330, "pitch": 62, "duration": 8, "velocity": 44}, {"time": 336, "pitch": 64, "duration": 8, "velocity": 48}, {"time": 342, "pitch": 65, "duration": 7, "velocity": 50}, {"time": 348, "pitch": 69, "duration": 7, "velocity": 59}, {"time": 354, "pitch": 62, "duration": 8, "velocity": 48}, {"time": 360, "pitch": 64, "duration": 6, "velocity": 40}, {"time": 366, "pitch": 65, "duration": 7, "velocity": 45}, {"time": 372, "pitch": 69, "duration": 11, "velocity": 49}, {"time": 378, "pitch": 57, "duration": 16, "velocity": 44}, {"time": 378, "pitch": 62, "duration": 9, "velocity": 43}, {"time": 384, "pitch": 64, "duration": 6, "velocity": 46}, {"time": 390, "pitch": 65, "duration": 7, "velocity": 47}, {"time": 396, "pitch": 69, "duration": 7, "velocity": 54}, {"time": 402, "pitch": 57, "duration": 5, "velocity": 49}, {"time": 402, "pitch": 62, "duration": 7, "velocity": 47}, {"time": 408, "pitch": 64, "duration": 4, "velocity": 50}, {"time": 414, "pitch": 65, "duration": 8, "velocity": 50}, {"time": 420, "pitch": 67, "duration": 7, "velocity": 49}, {"time": 426, "pitch": 41, "duration": 43, "velocity": 59}, {"time": 426, "pitch": 53, "duration": 21, "velocity": 58}, {"time": 426, "pitch": 69, "duration": 6, "velocity": 64}, {"time": 432, "pitch": 60, "duration": 13, "velocity": 46}, {"time": 438, "pitch": 62, "duration": 8, "velocity": 48}, {"time": 444, "pitch": 65, "duration": 6, "velocity": 62}, {"time": 450, "pitch": 53, "duration": 18, "velocity": 45}, {"time": 450, "pitch": 60, "duration": 13, "velocity": 52}, {"time": 456, "pitch": 62, "duration": 5, "velocity": 48}, {"time": 462, "pitch": 65, "duration": 7, "velocity": 54}, {"time": 468, "pitch": 67, "duration": 6, "velocity": 63}, {"time": 474, "pitch": 41, "duration": 33, "velocity": 51}, {"time": 474, "pitch": 53, "duration": 19, "velocity": 44}, {"time": 474, "pitch": 60, "duration": 9, "velocity": 49}, {"time": 480, "pitch": 62, "duration": 6, "velocity": 44}, {"time": 486, "pitch": 65, "duration": 7, "velocity": 47}, {"time": 492, "pitch": 67, "duration": 5, "velocity": 53}, {"time": 498, "pitch": 53, "duration": 9, "velocity": 44}, {"time": 498, "pitch": 60, "duration": 8, "velocity": 44}, {"time": 504, "pitch": 62, "duration": 4, "velocity": 53}, {"time": 510, "pitch": 65, "duration": 7, "velocity": 57}, {"time": 516, "pitch": 67, "duration": 3, "velocity": 62}, {"time": 522, "pitch": 48, "duration": 43, "velocity": 62}, {"time": 522, "pitch": 67, "duration": 6, "velocity": 56}, {"time": 528, "pitch": 60, "duration": 10, "velocity": 47}, {"time": 534, "pitch": 62, "duration": 6, "velocity": 51}, {"time": 540, "pitch": 67, "duration": 10, "velocity": 52}, {"time": 546, "pitch": 60, "duration": 8, "velocity": 44}, {"time": 552, "pitch": 62, "duration": 5, "velocity": 48}, {"time": 558, "pitch": 64, "duration": 7, "velocity": 54}, {"time": 564, "pitch": 67, "duration": 9, "velocity": 62}, {"time": 570, "pitch": 48, "duration": 18, "velocity": 61}, {"time": 570, "pitch": 60, "duration": 8, "velocity": 48}, {"time": 576, "pitch": 62, "duration": 6, "velocity": 49}, {"time": 582, "pitch": 64, "duration": 6, "velocity": 56}, {"time": 588, "pitch": 67, "duration": 7, "velocity": 69}, {"time": 594, "pitch": 48, "duration": 10, "velocity": 66}, {"time": 594, "pitch": 60, "duration": 8, "velocity": 54}, {"time": 600, "pitch": 62, "duration": 4, "velocity": 57}, {"time": 606, "pitch": 64, "duration": 6, "velocity": 55}, {"time": 612, "pitch": 67, "duration": 8, "velocity": 60}, {"time": 618, "pitch": 50, "duration": 86, "velocity": 64}, {"time": 618, "pitch": 65, "duration": 5, "velocity": 61}, {"time": 624, "pitch": 62, "duration": 8, "velocity": 46}, {"time": 630, "pitch": 64, "duration": 6, "velocity": 55}, {"time": 636, "pitch": 69, "duration": 9, "velocity": 63}, {"time": 642, "pitch": 62, "duration": 8, "velocity": 47}, {"time": 648, "pitch": 64, "duration": 6, "velocity": 52}, {"time": 654, "pitch": 65, "duration": 6, "velocity": 42}, {"time": 660, "pitch": 69, "duration": 13, "velocity": 57}, {"time": 666, "pitch": 57, "duration": 38, "velocity": 50}, {"time": 666, "pitch": 62, "duration": 8, "velocity": 43}, {"time": 672, "pitch": 64, "duration": 6, "velocity": 47}, {"time": 678, "pitch": 65, "duration": 6, "velocity": 50}, {"time": 684, "pitch": 69, "duration": 9, "velocity": 57}, {"time": 690, "pitch": 62, "duration": 9, "velocity": 39}, {"time": 696, "pitch": 64, "duration": 5, "velocity": 46}, {"time": 702, "pitch": 65, "duration": 11, "velocity": 49}, {"time": 708, "pitch": 67, "duration": 4, "velocity": 37}, {"time": 714, "pitch": 50, "duration": 44, "velocity": 46}, {"time": 714, "pitch": 57, "duration": 19, "velocity": 57}, {"time": 714, "pitch": 62, "duration": 18, "velocity": 37}, {"time": 714, "pitch": 65, "duration": 6, "velocity": 45}, {"time": 714, "pitch": 69, "duration": 10, "velocity": 44}, {"time": 726, "pitch": 64, "duration": 6, "velocity": 42}, {"time": 732, "pitch": 69, "duration": 9, "velocity": 47}, {"time": 738, "pitch": 57, "duration": 21, "velocity": 47}, {"time": 738, "pitch": 62, "duration": 13, "velocity": 40}, {"time": 744, "pitch": 64, "duration": 8, "velocity": 42}, {"time": 750, "pitch": 65, "duration": 7, "velocity": 44}, {"time": 756, "pitch": 69, "duration": 10, "velocity": 48}, {"time": 762, "pitch": 50, "duration": 38, "velocity": 45}, {"time": 762, "pitch": 53, "duration": 39, "velocity": 57}, {"time": 762, "pitch": 57, "duration": 39, "velocity": 60}, {"time": 762, "pitch": 62, "duration": 8, "velocity": 37}, {"time": 768, "pitch": 64, "duration": 5, "velocity": 44}, {"time": 774, "pitch": 65, "duration": 6, "velocity": 42}, {"time": 780, "pitch": 69, "duration": 9, "velocity": 51}, {"time": 786, "pitch": 62, "duration": 7, "velocity": 42}, {"time": 792, "pitch": 64, "duration": 5, "velocity": 40}, {"time": 798, "pitch": 65, "duration": 7, "velocity": 51}, {"time": 804, "pitch": 69, "duration": 14, "velocity": 49}, {"time": 810, "pitch": 53, "duration": 45, "velocity": 62}, {"time": 810, "pitch": 65, "duration": 5, "velocity": 47}, {"time": 816, "pitch": 60, "duration": 9, "velocity": 48}, {"time": 822, "pitch": 65, "duration": 7, "velocity": 62}, {"time": 828, "pitch": 67, "duration": 6, "velocity": 59}, {"time": 834, "pitch": 69, "duration": 6, "velocity": 48}, {"time": 840, "pitch": 60, "duration": 10, "velocity": 40}, {"time": 846, "pitch": 65, "duration": 7, "velocity": 50}, {"time": 852, "pitch": 72, "duration": 13, "velocity": 53}, {"time": 858, "pitch": 53, "duration": 38, "velocity": 57}, {"time": 858, "pitch": 60, "duration": 7, "velocity": 39}, {"time": 864, "pitch": 65, "duration": 5, "velocity": 44}, {"time": 870, "pitch": 67, "duration": 7, "velocity": 47}, {"time": 876, "pitch": 72, "duration": 10, "velocity": 54}, {"time": 882, "pitch": 48, "duration": 12, "velocity": 52}, {"time": 882, "pitch": 57, "duration": 13, "velocity": 48}, {"time": 882, "pitch": 60, "duration": 8, "velocity": 44}, {"time": 888, "pitch": 65, "duration": 5, "velocity": 48}, {"time": 894, "pitch": 67, "duration": 6, "velocity": 57}, {"time": 900, "pitch": 69, "duration": 7, "velocity": 51}, {"time": 906, "pitch": 48, "duration": 44, "velocity": 45}, {"time": 906, "pitch": 52, "duration": 46, "velocity": 59}, {"time": 906, "pitch": 55, "duration": 46, "velocity": 64}, {"time": 906, "pitch": 67, "duration": 8, "velocity": 58}, {"time": 912, "pitch": 60, "duration": 7, "velocity": 41}, {"time": 918, "pitch": 64, "duration": 7, "velocity": 47}, {"time": 924, "pitch": 60, "duration": 13, "velocity": 57}, {"time": 924, "pitch": 72, "duration": 8, "velocity": 66}, {"time": 930, "pitch": 62, "duration": 8, "velocity": 40}, {"time": 936, "pitch": 64, "duration": 7, "velocity": 48}, {"time": 942, "pitch": 67, "duration": 6, "velocity": 55}, {"time": 948, "pitch": 72, "duration": 8, "velocity": 59}, {"time": 954, "pitch": 48, "duration": 31, "velocity": 59}, {"time": 954, "pitch": 52, "duration": 33, "velocity": 63}, {"time": 954, "pitch": 55, "duration": 33, "velocity": 60}, {"time": 954, "pitch": 60, "duration": 32, "velocity": 66}, {"time": 954, "pitch": 62, "duration": 14, "velocity": 46}, {"time": 960, "pitch": 64, "duration": 8, "velocity": 44}, {"time": 966, "pitch": 67, "duration": 7, "velocity": 54}, {"time": 972, "pitch": 72, "duration": 7, "velocity": 60}, {"time": 978, "pitch": 62, "duration": 8, "velocity": 48}, {"time": 984, "pitch": 64, "duration": 7, "velocity": 46}, {"time": 990, "pitch": 67, "duration": 7, "velocity": 61}, {"time": 996, "pitch": 72, "duration": 9, "velocity": 61}, {"time": 1002, "pitch": 50, "duration": 42, "velocity": 57}, {"time": 1002, "pitch": 65, "duration": 6, "velocity": 56}, {"time": 1008, "pitch": 64, "duration": 7, "velocity": 45}, {"time": 1014, "pitch": 65, "duration": 6, "velocity": 52}, {"time": 1020, "pitch": 67, "duration": 3, "velocity": 45}, {"time": 1020, "pitch": 72, "duration": 8, "velocity": 55}, {"time": 1026, "pitch": 57, "duration": 19, "velocity": 45}, {"time": 1026, "pitch": 62, "duration": 15, "velocity": 51}, {"time": 1026, "pitch": 64, "duration": 8, "velocity": 46}, {"time": 1032, "pitch": 65, "duration": 7, "velocity": 57}, {"time": 1038, "pitch": 67, "duration": 4, "velocity": 56}, {"time": 1044, "pitch": 69, "duration": 6, "velocity": 55}, {"time": 1050, "pitch": 50, "duration": 43, "velocity": 46}, {"time": 1050, "pitch": 57, "duration": 35, "velocity": 45}, {"time": 1050, "pitch": 62, "duration": 16, "velocity": 49}, {"time": 1050, "pitch": 64, "duration": 13, "velocity": 48}, {"time": 1056, "pitch": 65, "duration": 8, "velocity": 51}, {"time": 1062, "pitch": 67, "duration": 6, "velocity": 54}, {"time": 1068, "pitch": 69, "duration": 7, "velocity": 62}, {"time": 1074, "pitch": 62, "duration": 16, "velocity": 47}, {"time": 1074, "pitch": 64, "duration": 10, "velocity": 45}, {"time": 1080, "pitch": 65, "duration": 10, "velocity": 55}, {"time": 1086, "pitch": 72, "duration": 3, "velocity": 59}, {"time": 1092, "pitch": 72, "duration": 4, "velocity": 47}, {"time": 1095, "pitch": 69, "duration": 4, "velocity": 57}, {"time": 1098, "pitch": 50, "duration": 83, "velocity": 63}, {"time": 1098, "pitch": 69, "duration": 1, "velocity": 52}, {"time": 1104, "pitch": 64, "duration": 9, "velocity": 48}, {"time": 1110, "pitch": 65, "duration": 6, "velocity": 53}, {"time": 1116, "pitch": 69, "duration": 7, "velocity": 55}, {"time": 1122, "pitch": 62, "duration": 16, "velocity": 46}, {"time": 1122, "pitch": 72, "duration": 7, "velocity": 60}, {"time": 1128, "pitch": 64, "duration": 9, "velocity": 46}, {"time": 1134, "pitch": 65, "duration": 6, "velocity": 53}, {"time": 1140, "pitch": 69, "duration": 11, "velocity": 58}, {"time": 1146, "pitch": 57, "duration": 35, "velocity": 55}, {"time": 1146, "pitch": 62, "duration": 18, "velocity": 59}, {"time": 1152, "pitch": 64, "duration": 9, "velocity": 44}, {"time": 1158, "pitch": 65, "duration": 6, "velocity": 49}, {"time": 1164, "pitch": 72, "duration": 8, "velocity": 66}, {"time": 1170, "pitch": 62, "duration": 9, "velocity": 48}, {"time": 1170, "pitch": 64, "duration": 8, "velocity": 44}, {"time": 1176, "pitch": 65, "duration": 4, "velocity": 55}, {"time": 1182, "pitch": 67, "duration": 6, "velocity": 50}, {"time": 1188, "pitch": 69, "duration": 5, "velocity": 60}, {"time": 1194, "pitch": 53, "duration": 41, "velocity": 67}, {"time": 1194, "pitch": 67, "duration": 6, "velocity": 58}, {"time": 1200, "pitch": 60, "duration": 10, "velocity": 46}, {"time": 1206, "pitch": 65, "duration": 7, "velocity": 61}, {"time": 1212, "pitch": 72, "duration": 15, "velocity": 70}, {"time": 1218, "pitch": 60, "duration": 9, "velocity": 42}, {"time": 1224, "pitch": 65, "duration": 6, "velocity": 52}, {"time": 1230, "pitch": 67, "duration": 6, "velocity": 52}, {"time": 1236, "pitch": 72, "duration": 12, "velocity": 61}, {"time": 1242, "pitch": 48, "duration": 40, "velocity": 49}, {"time": 1242, "pitch": 53, "duration": 38, "velocity": 66}, {"time": 1242, "pitch": 57, "duration": 17, "velocity": 54}, {"time": 1245, "pitch": 69, "duration": 5, "velocity": 36}, {"time": 1248, "pitch": 60, "duration": 7, "velocity": 44}, {"time": 1254, "pitch": 65, "duration": 7, "velocity": 53}, {"time": 1260, "pitch": 67, "duration": 8, "velocity": 61}, {"time": 1266, "pitch": 69, "duration": 6, "velocity": 51}, {"time": 1272, "pitch": 60, "duration": 5, "velocity": 50}, {"time": 1278, "pitch": 65, "duration": 6, "velocity": 54}, {"time": 1284, "pitch": 72, "duration": 8, "velocity": 58}, {"time": 1290, "pitch": 48, "duration": 42, "velocity": 44}, {"time": 1290, "pitch": 52, "duration": 43, "velocity": 62}, {"time": 1290, "pitch": 55, "duration": 43, "velocity": 63}, {"time": 1290, "pitch": 67, "duration": 9, "velocity": 56}, {"time": 1296, "pitch": 60, "duration": 7, "velocity": 49}, {"time": 1302, "pitch": 64, "duration": 8, "velocity": 43}, {"time": 1308, "pitch": 72, "duration": 7, "velocity": 64}, {"time": 1314, "pitch": 60, "duration": 8, "velocity": 46}, {"time": 1320, "pitch": 64, "duration": 7, "velocity": 51}, {"time": 1326, "pitch": 67, "duration": 7, "velocity": 52}, {"time": 1332, "pitch": 72, "duration": 13, "velocity": 50}, {"time": 1338, "pitch": 48, "duration": 37, "velocity": 47}, {"time": 1338, "pitch": 52, "duration": 38, "velocity": 64}, {"time": 1338, "pitch": 55, "duration": 38, "velocity": 59}, {"time": 1344, "pitch": 60, "duration": 8, "velocity": 47}, {"time": 1350, "pitch": 64, "duration": 7, "velocity": 46}, {"time": 1356, "pitch": 67, "duration": 6, "velocity": 60}, {"time": 1362, "pitch": 60, "duration": 6, "velocity": 48}, {"time": 1368, "pitch": 64, "duration": 8, "velocity": 47}, {"time": 1374, "pitch": 72, "duration": 7, "velocity": 63}, {"time": 1380, "pitch": 60, "duration": 5, "velocity": 49}, {"time": 1386, "pitch": 50, "duration": 37, "velocity": 45}, {"time": 1386, "pitch": 53, "duration": 40, "velocity": 57}, {"time": 1386, "pitch": 57, "duration": 41, "velocity": 54}, {"time": 1386, "pitch": 65, "duration": 5, "velocity": 63}, {"time": 1392, "pitch": 62, "duration": 6, "velocity": 32}, {"time": 1398, "pitch": 65, "duration": 6, "velocity": 56}, {"time": 1404, "pitch": 62, "duration": 15, "velocity": 48}, {"time": 1404, "pitch": 69, "duration": 6, "velocity": 58}, {"time": 1410, "pitch": 64, "duration": 8, "velocity": 44}, {"time": 1416, "pitch": 65, "duration": 6, "velocity": 60}, {"time": 1422, "pitch": 69, "duration": 7, "velocity": 54}, {"time": 1428, "pitch": 72, "duration": 8, "velocity": 51}, {"time": 1434, "pitch": 50, "duration": 39, "velocity": 46}, {"time": 1434, "pitch": 53, "duration": 41, "velocity": 57}, {"time": 1434, "pitch": 57, "duration": 22, "velocity": 59}, {"time": 1434, "pitch": 64, "duration": 5, "velocity": 47}, {"time": 1441, "pitch": 64, "duration": 5, "velocity": 50}, {"time": 1447, "pitch": 65, "duration": 5, "velocity": 58}, {"time": 1452, "pitch": 69, "duration": 6, "velocity": 64}, {"time": 1458, "pitch": 57, "duration": 15, "velocity": 61}, {"time": 1459, "pitch": 62, "duration": 7, "velocity": 51}, {"time": 1464, "pitch": 64, "duration": 4, "velocity": 55}, {"time": 1470, "pitch": 65, "duration": 5, "velocity": 56}, {"time": 1476, "pitch": 69, "duration": 4, "velocity": 63}, {"time": 1482, "pitch": 50, "duration": 43, "velocity": 49}, {"time": 1482, "pitch": 53, "duration": 43, "velocity": 63}, {"time": 1482, "pitch": 57, "duration": 43, "velocity": 60}, {"time": 1482, "pitch": 62, "duration": 8, "velocity": 57}, {"time": 1488, "pitch": 64, "duration": 5, "velocity": 59}, {"time": 1494, "pitch": 65, "duration": 5, "velocity": 59}, {"time": 1500, "pitch": 69, "duration": 5, "velocity": 47}, {"time": 1506, "pitch": 62, "duration": 6, "velocity": 43}, {"time": 1512, "pitch": 64, "duration": 4, "velocity": 50}, {"time": 1518, "pitch": 65, "duration": 6, "velocity": 53}, {"time": 1524, "pitch": 69, "duration": 11, "velocity": 60}, {"time": 1530, "pitch": 50, "duration": 33, "velocity": 55}, {"time": 1530, "pitch": 53, "duration": 34, "velocity": 66}, {"time": 1530, "pitch": 57, "duration": 34, "velocity": 66}, {"time": 1536, "pitch": 62, "duration": 8, "velocity": 49}, {"time": 1542, "pitch": 64, "duration": 4, "velocity": 50}, {"time": 1548, "pitch": 69, "duration": 9, "velocity": 69}, {"time": 1554, "pitch": 62, "duration": 5, "velocity": 45}, {"time": 1560, "pitch": 64, "duration": 4, "velocity": 57}, {"time": 1566, "pitch": 65, "duration": 6, "velocity": 57}, {"time": 1578, "pitch": 53, "duration": 44, "velocity": 69}, {"time": 1578, "pitch": 65, "duration": 6, "velocity": 60}, {"time": 1584, "pitch": 60, "duration": 6, "velocity": 48}, {"time": 1590, "pitch": 65, "duration": 6, "velocity": 49}, {"time": 1596, "pitch": 67, "duration": 6, "velocity": 49}, {"time": 1602, "pitch": 48, "duration": 20, "velocity": 56}, {"time": 1602, "pitch": 57, "duration": 20, "velocity": 54}, {"time": 1602, "pitch": 69, "duration": 7, "velocity": 61}, {"time": 1608, "pitch": 60, "duration": 6, "velocity": 46}, {"time": 1614, "pitch": 65, "duration": 5, "velocity": 54}, {"time": 1620, "pitch": 69, "duration": 9, "velocity": 56}, {"time": 1626, "pitch": 48, "duration": 92, "velocity": 57}, {"time": 1626, "pitch": 53, "duration": 38, "velocity": 63}, {"time": 1626, "pitch": 57, "duration": 38, "velocity": 60}, {"time": 1626, "pitch": 60, "duration": 8, "velocity": 49}, {"time": 1632, "pitch": 65, "duration": 6, "velocity": 53}, {"time": 1638, "pitch": 67, "duration": 5, "velocity": 49}, {"time": 1644, "pitch": 69, "duration": 7, "velocity": 59}, {"time": 1650, "pitch": 60, "duration": 8, "velocity": 44}, {"time": 1656, "pitch": 65, "duration": 10, "velocity": 51}, {"time": 1662, "pitch": 67, "duration": 6, "velocity": 49}, {"time": 1668, "pitch": 69, "duration": 7, "velocity": 61}, {"time": 1674, "pitch": 52, "duration": 44, "velocity": 58}, {"time": 1674, "pitch": 55, "duration": 44, "velocity": 61}, {"time": 1674, "pitch": 67, "duration": 6, "velocity": 63}, {"time": 1680, "pitch": 60, "duration": 8, "velocity": 49}, {"time": 1686, "pitch": 64, "duration": 6, "velocity": 57}, {"time": 1692, "pitch": 67, "duration": 5, "velocity": 57}, {"time": 1698, "pitch": 60, "duration": 10, "velocity": 54}, {"time": 1704, "pitch": 64, "duration": 7, "velocity": 54}, {"time": 1710, "pitch": 72, "duration": 8, "velocity": 60}, {"time": 1716, "pitch": 60, "duration": 6, "velocity": 49}, {"time": 1722, "pitch": 48, "duration": 34, "velocity": 49}, {"time": 1722, "pitch": 52, "duration": 36, "velocity": 61}, {"time": 1722, "pitch": 55, "duration": 36, "velocity": 57}, {"time": 1722, "pitch": 67, "duration": 7, "velocity": 49}, {"time": 1728, "pitch": 60, "duration": 9, "velocity": 43}, {"time": 1734, "pitch": 64, "duration": 5, "velocity": 46}, {"time": 1740, "pitch": 72, "duration": 7, "velocity": 53}, {"time": 1746, "pitch": 60, "duration": 8, "velocity": 45}, {"time": 1752, "pitch": 64, "duration": 6, "velocity": 51}, {"time": 1758, "pitch": 67, "duration": 7, "velocity": 54}, {"time": 1764, "pitch": 72, "duration": 9, "velocity": 64}, {"time": 1770, "pitch": 50, "duration": 44, "velocity": 46}, {"time": 1770, "pitch": 53, "duration": 45, "velocity": 59}, {"time": 1770, "pitch": 57, "duration": 45, "velocity": 53}, {"time": 1770, "pitch": 65, "duration": 5, "velocity": 60}, {"time": 1776, "pitch": 62, "duration": 7, "velocity": 48}, {"time": 1782, "pitch": 65, "duration": 6, "velocity": 55}, {"time": 1788, "pitch": 72, "duration": 8, "velocity": 63}, {"time": 1794, "pitch": 64, "duration": 9, "velocity": 43}, {"time": 1800, "pitch": 65, "duration": 6, "velocity": 49}, {"time": 1806, "pitch": 67, "duration": 7, "velocity": 54}, {"time": 1812, "pitch": 72, "duration": 9, "velocity": 54}, {"time": 1818, "pitch": 50, "duration": 33, "velocity": 49}, {"time": 1818, "pitch": 53, "duration": 34, "velocity": 58}, {"time": 1818, "pitch": 57, "duration": 33, "velocity": 52}, {"time": 1818, "pitch": 64, "duration": 8, "velocity": 49}, {"time": 1824, "pitch": 65, "duration": 5, "velocity": 58}, {"time": 1830, "pitch": 67, "duration": 6, "velocity": 60}, {"time": 1836, "pitch": 69, "duration": 6, "velocity": 64}, {"time": 1842, "pitch": 62, "duration": 6, "velocity": 67}, {"time": 1842, "pitch": 64, "duration": 7, "velocity": 59}, {"time": 1848, "pitch": 65, "duration": 4, "velocity": 60}, {"time": 1854, "pitch": 67, "duration": 5, "velocity": 49}, {"time": 1860, "pitch": 69, "duration": 7, "velocity": 66}, {"time": 1866, "pitch": 50, "duration": 40, "velocity": 56}, {"time": 1866, "pitch": 53, "duration": 42, "velocity": 70}, {"time": 1866, "pitch": 57, "duration": 44, "velocity": 64}, {"time": 1866, "pitch": 72, "duration": 8, "velocity": 67}, {"time": 1872, "pitch": 64, "duration": 5, "velocity": 48}, {"time": 1878, "pitch": 65, "duration": 7, "velocity": 55}, {"time": 1884, "pitch": 72, "duration": 7, "velocity": 64}, {"time": 1890, "pitch": 62, "duration": 15, "velocity": 45}, {"time": 1890, "pitch": 64, "duration": 5, "velocity": 48}, {"time": 1896, "pitch": 65, "duration": 4, "velocity": 59}, {"time": 1902, "pitch": 67, "duration": 7, "velocity": 60}, {"time": 1908, "pitch": 64, "duration": 4, "velocity": 62}, {"time": 1908, "pitch": 69, "duration": 3, "velocity": 59}, {"time": 1914, "pitch": 50, "duration": 37, "velocity": 70}, {"time": 1914, "pitch": 65, "duration": 5, "velocity": 64}, {"time": 1914, "pitch": 69, "duration": 4, "velocity": 60}, {"time": 1920, "pitch": 53, "duration": 30, "velocity": 32}, {"time": 1920, "pitch": 64, "duration": 3, "velocity": 60}, {"time": 1920, "pitch": 67, "duration": 4, "velocity": 70}, {"time": 1926, "pitch": 64, "duration": 5, "velocity": 51}, {"time": 1926, "pitch": 67, "duration": 5, "velocity": 56}, {"time": 1929, "pitch": 57, "duration": 21, "velocity": 20}, {"time": 1932, "pitch": 65, "duration": 3, "velocity": 54}, {"time": 1932, "pitch": 69, "duration": 3, "velocity": 60}, {"time": 1938, "pitch": 65, "duration": 4, "velocity": 67}, {"time": 1938, "pitch": 69, "duration": 5, "velocity": 64}, {"time": 1944, "pitch": 62, "duration": 5, "velocity": 57}, {"time": 1944, "pitch": 64, "duration": 3, "velocity": 53}, {"time": 1944, "pitch": 67, "duration": 4, "velocity": 54}, {"time": 1950, "pitch": 64, "duration": 5, "velocity": 67}, {"time": 1950, "pitch": 67, "duration": 4, "velocity": 70}, {"time": 1956, "pitch": 69, "duration": 4, "velocity": 54}, {"time": 1962, "pitch": 53, "duration": 46, "velocity": 72}, {"time": 1962, "pitch": 57, "duration": 18, "velocity": 62}, {"time": 1962, "pitch": 65, "duration": 7, "velocity": 61}, {"time": 1962, "pitch": 69, "duration": 7, "velocity": 59}, {"time": 1968, "pitch": 60, "duration": 3, "velocity": 39}, {"time": 1968, "pitch": 67, "duration": 3, "velocity": 56}, {"time": 1974, "pitch": 60, "duration": 4, "velocity": 62}, {"time": 1974, "pitch": 67, "duration": 5, "velocity": 67}, {"time": 1980, "pitch": 60, "duration": 3, "velocity": 54}, {"time": 1980, "pitch": 65, "duration": 4, "velocity": 60}, {"time": 1986, "pitch": 57, "duration": 22, "velocity": 49}, {"time": 1986, "pitch": 60, "duration": 3, "velocity": 59}, {"time": 1986, "pitch": 65, "duration": 5, "velocity": 72}, {"time": 1992, "pitch": 60, "duration": 3, "velocity": 45}, {"time": 1992, "pitch": 67, "duration": 4, "velocity": 61}, {"time": 1998, "pitch": 60, "duration": 4, "velocity": 60}, {"time": 1998, "pitch": 67, "duration": 5, "velocity": 66}, {"time": 2004, "pitch": 60, "duration": 3, "velocity": 44}, {"time": 2004, "pitch": 69, "duration": 4, "velocity": 59}, {"time": 2010, "pitch": 53, "duration": 34, "velocity": 67}, {"time": 2010, "pitch": 57, "duration": 21, "velocity": 66}, {"time": 2010, "pitch": 69, "duration": 7, "velocity": 69}, {"time": 2016, "pitch": 60, "duration": 5, "velocity": 58}, {"time": 2022, "pitch": 65, "duration": 5, "velocity": 59}, {"time": 2028, "pitch": 60, "duration": 3, "velocity": 50}, {"time": 2028, "pitch": 67, "duration": 5, "velocity": 60}, {"time": 2034, "pitch": 60, "duration": 3, "velocity": 46}, {"time": 2034, "pitch": 69, "duration": 7, "velocity": 61}, {"time": 2040, "pitch": 57, "duration": 4, "velocity": 61}, {"time": 2040, "pitch": 60, "duration": 5, "velocity": 55}, {"time": 2046, "pitch": 65, "duration": 5, "velocity": 58}, {"time": 2052, "pitch": 69, "duration": 8, "velocity": 69}, {"time": 2058, "pitch": 48, "duration": 43, "velocity": 57}, {"time": 2058, "pitch": 52, "duration": 43, "velocity": 58}, {"time": 2058, "pitch": 55, "duration": 43, "velocity": 59}, {"time": 2058, "pitch": 60, "duration": 3, "velocity": 57}, {"time": 2058, "pitch": 67, "duration": 4, "velocity": 60}, {"time": 2064, "pitch": 60, "duration": 2, "velocity": 47}, {"time": 2064, "pitch": 67, "duration": 8, "velocity": 58}, {"time": 2070, "pitch": 60, "duration": 8, "velocity": 60}, {"time": 2076, "pitch": 62, "duration": 2, "velocity": 40}, {"time": 2076, "pitch": 64, "duration": 1, "velocity": 37}, {"time": 2082, "pitch": 64, "duration": 5, "velocity": 60}, {"time": 2088, "pitch": 65, "duration": 5, "velocity": 55}, {"time": 2094, "pitch": 67, "duration": 5, "velocity": 75}, {"time": 2100, "pitch": 60, "duration": 5, "velocity": 58}, {"time": 2106, "pitch": 48, "duration": 38, "velocity": 49}, {"time": 2106, "pitch": 52, "duration": 39, "velocity": 64}, {"time": 2106, "pitch": 55, "duration": 31, "velocity": 63}, {"time": 2106, "pitch": 64, "duration": 9, "velocity": 60}, {"time": 2112, "pitch": 60, "duration": 6, "velocity": 57}, {"time": 2118, "pitch": 62, "duration": 5, "velocity": 58}, {"time": 2124, "pitch": 64, "duration": 6, "velocity": 59}, {"time": 2130, "pitch": 67, "duration": 6, "velocity": 70}, {"time": 2136, "pitch": 60, "duration": 4, "velocity": 61}, {"time": 2142, "pitch": 55, "duration": 4, "velocity": 60}, {"time": 2142, "pitch": 62, "duration": 4, "velocity": 60}, {"time": 2148, "pitch": 64, "duration": 6, "velocity": 51}, {"time": 2154, "pitch": 50, "duration": 36, "velocity": 67}, {"time": 2154, "pitch": 65, "duration": 13, "velocity": 67}, {"time": 2160, "pitch": 57, "duration": 23, "velocity": 57}, {"time": 2166, "pitch": 62, "duration": 19, "velocity": 60}, {"time": 2172, "pitch": 64, "duration": 5, "velocity": 64}, {"time": 2178, "pitch": 65, "duration": 7, "velocity": 60}, {"time": 2184, "pitch": 67, "duration": 5, "velocity": 60}, {"time": 2190, "pitch": 57, "duration": 9, "velocity": 62}, {"time": 2190, "pitch": 69, "duration": 11, "velocity": 62}, {"time": 2202, "pitch": 50, "duration": 41, "velocity": 63}, {"time": 2208, "pitch": 57, "duration": 17, "velocity": 60}, {"time": 2214, "pitch": 62, "duration": 21, "velocity": 53}, {"time": 2220, "pitch": 65, "duration": 3, "velocity": 59}, {"time": 2220, "pitch": 74, "duration": 3, "velocity": 76}, {"time": 2226, "pitch": 65, "duration": 3, "velocity": 58}, {"time": 2226, "pitch": 74, "duration": 5, "velocity": 69}, {"time": 2232, "pitch": 64, "duration": 3, "velocity": 58}, {"time": 2232, "pitch": 72, "duration": 3, "velocity": 57}, {"time": 2238, "pitch": 57, "duration": 7, "velocity": 53}, {"time": 2238, "pitch": 64, "duration": 3, "velocity": 66}, {"time": 2238, "pitch": 72, "duration": 3, "velocity": 61}, {"time": 2244, "pitch": 67, "duration": 3, "velocity": 63}, {"time": 2250, "pitch": 50, "duration": 48, "velocity": 75}, {"time": 2250, "pitch": 62, "duration": 17, "velocity": 75}, {"time": 2250, "pitch": 65, "duration": 16, "velocity": 78}, {"time": 2250, "pitch": 69, "duration": 18, "velocity": 75}, {"time": 2274, "pitch": 62, "duration": 16, "velocity": 69}, {"time": 2274, "pitch": 65, "duration": 13, "velocity": 73}, {"time": 2274, "pitch": 69, "duration": 15, "velocity": 67}, {"time": 2298, "pitch": 53, "duration": 33, "velocity": 69}, {"time": 2298, "pitch": 60, "duration": 18, "velocity": 70}, {"time": 2298, "pitch": 65, "duration": 16, "velocity": 70}, {"time": 2298, "pitch": 69, "duration": 20, "velocity": 66}, {"time": 2316, "pitch": 41, "duration": 28, "velocity": 59}, {"time": 2322, "pitch": 60, "duration": 14, "velocity": 72}, {"time": 2322, "pitch": 65, "duration": 13, "velocity": 72}, {"time": 2322, "pitch": 69, "duration": 21, "velocity": 76}, {"time": 2334, "pitch": 53, "duration": 14, "velocity": 55}, {"time": 2346, "pitch": 48, "duration": 35, "velocity": 78}, {"time": 2346, "pitch": 60, "duration": 14, "velocity": 69}, {"time": 2346, "pitch": 64, "duration": 15, "velocity": 73}, {"time": 2346, "pitch": 67, "duration": 14, "velocity": 70}, {"time": 2346, "pitch": 72, "duration": 16, "velocity": 60}, {"time": 2364, "pitch": 52, "duration": 16, "velocity": 38}, {"time": 2370, "pitch": 60, "duration": 12, "velocity": 64}, {"time": 2370, "pitch": 64, "duration": 12, "velocity": 73}, {"time": 2370, "pitch": 67, "duration": 12, "velocity": 73}, {"time": 2370, "pitch": 72, "duration": 21, "velocity": 70}, {"time": 2394, "pitch": 50, "duration": 37, "velocity": 69}, {"time": 2394, "pitch": 62, "duration": 8, "velocity": 70}, {"time": 2394, "pitch": 65, "duration": 6, "velocity": 67}, {"time": 2400, "pitch": 57, "duration": 32, "velocity": 50}, {"time": 2406, "pitch": 62, "duration": 25, "velocity": 64}, {"time": 2412, "pitch": 64, "duration": 7, "velocity": 73}, {"time": 2418, "pitch": 65, "duration": 5, "velocity": 69}, {"time": 2424, "pitch": 69, "duration": 8, "velocity": 70}, {"time": 2430, "pitch": 74, "duration": 7, "velocity": 62}, {"time": 2436, "pitch": 76, "duration": 5, "velocity": 69}, {"time": 2442, "pitch": 50, "duration": 38, "velocity": 63}, {"time": 2442, "pitch": 69, "duration": 18, "velocity": 69}, {"time": 2442, "pitch": 74, "duration": 17, "velocity": 72}, {"time": 2442, "pitch": 77, "duration": 15, "velocity": 70}, {"time": 2454, "pitch": 57, "duration": 20, "velocity": 42}, {"time": 2466, "pitch": 62, "duration": 12, "velocity": 56}, {"time": 2466, "pitch": 69, "duration": 12, "velocity": 76}, {"time": 2466, "pitch": 74, "duration": 10, "velocity": 78}, {"time": 2466, "pitch": 77, "duration": 11, "velocity": 80}, {"time": 2478, "pitch": 76, "duration": 11, "velocity": 75}, {"time": 2490, "pitch": 41, "duration": 35, "velocity": 47}, {"time": 2490, "pitch": 69, "duration": 17, "velocity": 73}, {"time": 2490, "pitch": 72, "duration": 14, "velocity": 75}, {"time": 2490, "pitch": 77, "duration": 18, "velocity": 75}, {"time": 2502, "pitch": 48, "duration": 14, "velocity": 34}, {"time": 2514, "pitch": 53, "duration": 24, "velocity": 51}, {"time": 2514, "pitch": 69, "duration": 13, "velocity": 69}, {"time": 2514, "pitch": 72, "duration": 12, "velocity": 76}, {"time": 2526, "pitch": 77, "duration": 14, "velocity": 67}, {"time": 2538, "pitch": 48, "duration": 37, "velocity": 75}, {"time": 2538, "pitch": 67, "duration": 15, "velocity": 63}, {"time": 2538, "pitch": 76, "duration": 14, "velocity": 72}, {"time": 2550, "pitch": 55, "duration": 24, "velocity": 48}, {"time": 2562, "pitch": 60, "duration": 12, "velocity": 58}, {"time": 2562, "pitch": 67, "duration": 10, "velocity": 63}, {"time": 2562, "pitch": 72, "duration": 9, "velocity": 76}, {"time": 2586, "pitch": 50, "duration": 35, "velocity": 72}, {"time": 2586, "pitch": 65, "duration": 14, "velocity": 69}, {"time": 2586, "pitch": 69, "duration": 13, "velocity": 54}, {"time": 2592, "pitch": 57, "duration": 28, "velocity": 50}, {"time": 2598, "pitch": 62, "duration": 22, "velocity": 58}, {"time": 2604, "pitch": 64, "duration": 6, "velocity": 55}, {"time": 2610, "pitch": 65, "duration": 4, "velocity": 66}, {"time": 2616, "pitch": 69, "duration": 6, "velocity": 60}, {"time": 2622, "pitch": 74, "duration": 6, "velocity": 58}, {"time": 2628, "pitch": 74, "duration": 1, "velocity": 45}, {"time": 2634, "pitch": 46, "duration": 15, "velocity": 80}, {"time": 2634, "pitch": 62, "duration": 14, "velocity": 64}, {"time": 2634, "pitch": 65, "duration": 14, "velocity": 66}, {"time": 2634, "pitch": 69, "duration": 14, "velocity": 62}, {"time": 2640, "pitch": 53, "duration": 9, "velocity": 46}, {"time": 2646, "pitch": 58, "duration": 5, "velocity": 57}, {"time": 2652, "pitch": 69, "duration": 7, "velocity": 69}, {"time": 2658, "pitch": 48, "duration": 11, "velocity": 67}, {"time": 2658, "pitch": 60, "duration": 8, "velocity": 57}, {"time": 2658, "pitch": 64, "duration": 9, "velocity": 61}, {"time": 2658, "pitch": 67, "duration": 10, "velocity": 63}, {"time": 2664, "pitch": 55, "duration": 8, "velocity": 57}, {"time": 2670, "pitch": 60, "duration": 7, "velocity": 56}, {"time": 2676, "pitch": 72, "duration": 4, "velocity": 52}, {"time": 2682, "pitch": 65, "duration": 6, "velocity": 66}, {"time": 2682, "pitch": 69, "duration": 7, "velocity": 62}, {"time": 2685, "pitch": 53, "duration": 31, "velocity": 32}, {"time": 2688, "pitch": 60, "duration": 19, "velocity": 39}, {"time": 2694, "pitch": 65, "duration": 16, "velocity": 55}, {"time": 2700, "pitch": 69, "duration": 3, "velocity": 55}, {"time": 2700, "pitch": 77, "duration": 4, "velocity": 67}, {"time": 2706, "pitch": 67, "duration": 6, "velocity": 52}, {"time": 2706, "pitch": 76, "duration": 8, "velocity": 67}, {"time": 2712, "pitch": 60, "duration": 4, "velocity": 67}, {"time": 2715, "pitch": 72, "duration": 7, "velocity": 48}, {"time": 2730, "pitch": 46, "duration": 19, "velocity": 69}, {"time": 2730, "pitch": 69, "duration": 6, "velocity": 63}, {"time": 2730, "pitch": 74, "duration": 5, "velocity": 69}, {"time": 2736, "pitch": 53, "duration": 12, "velocity": 66}, {"time": 2742, "pitch": 58, "duration": 5, "velocity": 60}, {"time": 2748, "pitch": 67, "duration": 5, "velocity": 60}, {"time": 2754, "pitch": 48, "duration": 15, "velocity": 66}, {"time": 2754, "pitch": 60, "duration": 7, "velocity": 52}, {"time": 2754, "pitch": 64, "duration": 7, "velocity": 59}, {"time": 2754, "pitch": 67, "duration": 3, "velocity": 39}, {"time": 2760, "pitch": 52, "duration": 7, "velocity": 58}, {"time": 2766, "pitch": 60, "duration": 4, "velocity": 51}, {"time": 2772, "pitch": 65, "duration": 5, "velocity": 53}, {"time": 2778, "pitch": 41, "duration": 14, "velocity": 69}, {"time": 2778, "pitch": 60, "duration": 8, "velocity": 72}, {"time": 2778, "pitch": 65, "duration": 9, "velocity": 78}, {"time": 2778, "pitch": 69, "duration": 9, "velocity": 73}, {"time": 2784, "pitch": 53, "duration": 15, "velocity": 55}, {"time": 2790, "pitch": 60, "duration": 7, "velocity": 64}, {"time": 2802, "pitch": 45, "duration": 24, "velocity": 50}, {"time": 2802, "pitch": 57, "duration": 24, "velocity": 53}, {"time": 2802, "pitch": 61, "duration": 24, "velocity": 76}, {"time": 2802, "pitch": 64, "duration": 24, "velocity": 72}, {"time": 2802, "pitch": 69, "duration": 24, "velocity": 73}, {"time": 2826, "pitch": 46, "duration": 18, "velocity": 67}, {"time": 2826, "pitch": 62, "duration": 13, "velocity": 54}, {"time": 2826, "pitch": 65, "duration": 13, "velocity": 63}, {"time": 2826, "pitch": 69, "duration": 12, "velocity": 63}, {"time": 2832, "pitch": 53, "duration": 12, "velocity": 54}, {"time": 2838, "pitch": 58, "duration": 6, "velocity": 51}, {"time": 2844, "pitch": 62, "duration": 3, "velocity": 40}, {"time": 2844, "pitch": 69, "duration": 6, "velocity": 61}, {"time": 2850, "pitch": 60, "duration": 9, "velocity": 57}, {"time": 2850, "pitch": 64, "duration": 12, "velocity": 66}, {"time": 2850, "pitch": 67, "duration": 14, "velocity": 62}, {"time": 2859, "pitch": 48, "duration": 8, "velocity": 31}, {"time": 2874, "pitch": 50, "duration": 32, "velocity": 64}, {"time": 2874, "pitch": 60, "duration": 8, "velocity": 56}, {"time": 2874, "pitch": 65, "duration": 7, "velocity": 66}, {"time": 2874, "pitch": 69, "duration": 6, "velocity": 55}, {"time": 2880, "pitch": 67, "duration": 5, "velocity": 57}, {"time": 2886, "pitch": 65, "duration": 6, "velocity": 63}, {"time": 2892, "pitch": 64, "duration": 8, "velocity": 61}, {"time": 2904, "pitch": 67, "duration": 7, "velocity": 60}, {"time": 2910, "pitch": 69, "duration": 4, "velocity": 66}, {"time": 2922, "pitch": 46, "duration": 40, "velocity": 62}, {"time": 2922, "pitch": 62, "duration": 8, "velocity": 54}, {"time": 2922, "pitch": 65, "duration": 8, "velocity": 66}, {"time": 2928, "pitch": 58, "duration": 13, "velocity": 75}, {"time": 2934, "pitch": 62, "duration": 5, "velocity": 50}, {"time": 2940, "pitch": 67, "duration": 3, "velocity": 52}, {"time": 2958, "pitch": 62, "duration": 4, "velocity": 63}, {"time": 2958, "pitch": 65, "duration": 5, "velocity": 73}, {"time": 2964, "pitch": 46, "duration": 5, "velocity": 66}, {"time": 2970, "pitch": 45, "duration": 33, "velocity": 63}, {"time": 2970, "pitch": 60, "duration": 7, "velocity": 61}, {"time": 2970, "pitch": 64, "duration": 7, "velocity": 62}, {"time": 2970, "pitch": 67, "duration": 7, "velocity": 63}, {"time": 2976, "pitch": 57, "duration": 17, "velocity": 58}, {"time": 2982, "pitch": 60, "duration": 4, "velocity": 51}, {"time": 2988, "pitch": 60, "duration": 13, "velocity": 62}, {"time": 2988, "pitch": 64, "duration": 13, "velocity": 62}, {"time": 2988, "pitch": 72, "duration": 14, "velocity": 49}, {"time": 3000, "pitch": 57, "duration": 11, "velocity": 62}, {"time": 3006, "pitch": 60, "duration": 7, "velocity": 52}, {"time": 3012, "pitch": 69, "duration": 3, "velocity": 55}, {"time": 3018, "pitch": 50, "duration": 42, "velocity": 64}, {"time": 3018, "pitch": 65, "duration": 9, "velocity": 67}, {"time": 3018, "pitch": 69, "duration": 9, "velocity": 64}, {"time": 3024, "pitch": 57, "duration": 27, "velocity": 52}, {"time": 3030, "pitch": 64, "duration": 6, "velocity": 60}, {"time": 3036, "pitch": 65, "duration": 5, "velocity": 57}, {"time": 3042, "pitch": 62, "duration": 13, "velocity": 49}, {"time": 3042, "pitch": 72, "duration": 4, "velocity": 41}, {"time": 3048, "pitch": 64, "duration": 5, "velocity": 57}, {"time": 3054, "pitch": 65, "duration": 6, "velocity": 57}, {"time": 3060, "pitch": 67, "duration": 4, "velocity": 50}, {"time": 3066, "pitch": 50, "duration": 43, "velocity": 56}, {"time": 3066, "pitch": 57, "duration": 17, "velocity": 66}, {"time": 3072, "pitch": 62, "duration": 5, "velocity": 44}, {"time": 3078, "pitch": 64, "duration": 4, "velocity": 54}, {"time": 3084, "pitch": 69, "duration": 4, "velocity": 52}, {"time": 3090, "pitch": 57, "duration": 19, "velocity": 47}, {"time": 3090, "pitch": 62, "duration": 5, "velocity": 52}, {"time": 3096, "pitch": 64, "duration": 4, "velocity": 52}, {"time": 3102, "pitch": 65, "duration": 5, "velocity": 45}, {"time": 3108, "pitch": 69, "duration": 5, "velocity": 62}, {"time": 3114, "pitch": 50, "duration": 44, "velocity": 53}, {"time": 3114, "pitch": 57, "duration": 43, "velocity": 58}, {"time": 3114, "pitch": 62, "duration": 8, "velocity": 50}, {"time": 3120, "pitch": 64, "duration": 5, "velocity": 49}, {"time": 3126, "pitch": 65, "duration": 6, "velocity": 39}, {"time": 3132, "pitch": 69, "duration": 7, "velocity": 57}, {"time": 3138, "pitch": 62, "duration": 5, "velocity": 49}, {"time": 3144, "pitch": 64, "duration": 5, "velocity": 48}, {"time": 3150, "pitch": 65, "duration": 7, "velocity": 47}, {"time": 3156, "pitch": 69, "duration": 5, "velocity": 57}, {"time": 3162, "pitch": 50, "duration": 7, "velocity": 47}, {"time": 3162, "pitch": 57, "duration": 6, "velocity": 59}, {"time": 3162, "pitch": 62, "duration": 6, "velocity": 40}, {"time": 3168, "pitch": 64, "duration": 5, "velocity": 49}, {"time": 3174, "pitch": 65, "duration": 6, "velocity": 57}, {"time": 3180, "pitch": 69, "duration": 6, "velocity": 63}, {"time": 3186, "pitch": 67, "duration": 5, "velocity": 52}, {"time": 3192, "pitch": 65, "duration": 6, "velocity": 57}, {"time": 3198, "pitch": 64, "duration": 7, "velocity": 60}, {"time": 3204, "pitch": 62, "duration": 4, "velocity": 55}, {"time": 3210, "pitch": 50, "duration": 44, "velocity": 46}, {"time": 3210, "pitch": 57, "duration": 19, "velocity": 57}, {"time": 3210, "pitch": 62, "duration": 18, "velocity": 37}, {"time": 3210, "pitch": 65, "duration": 6, "velocity": 45}, {"time": 3210, "pitch": 69, "duration": 10, "velocity": 44}, {"time": 3222, "pitch": 64, "duration": 6, "velocity": 42}, {"time": 3228, "pitch": 69, "duration": 9, "velocity": 47}, {"time": 3234, "pitch": 57, "duration": 21, "velocity": 47}, {"time": 3234, "pitch": 62, "duration": 13, "velocity": 40}, {"time": 3240, "pitch": 64, "duration": 8, "velocity": 42}, {"time": 3246, "pitch": 65, "duration": 7, "velocity": 44}, {"time": 3252, "pitch": 69, "duration": 10, "velocity": 48}, {"time": 3258, "pitch": 50, "duration": 38, "velocity": 45}, {"time": 3258, "pitch": 53, "duration": 39, "velocity": 57}, {"time": 3258, "pitch": 57, "duration": 39, "velocity": 60}, {"time": 3258, "pitch": 62, "duration": 8, "velocity": 37}, {"time": 3264, "pitch": 64, "duration": 5, "velocity": 44}, {"time": 3270, "pitch": 65, "duration": 6, "velocity": 42}, {"time": 3276, "pitch": 69, "duration": 9, "velocity": 51}, {"time": 3282, "pitch": 62, "duration": 7, "velocity": 42}, {"time": 3288, "pitch": 64, "duration": 5, "velocity": 40}, {"time": 3294, "pitch": 65, "duration": 7, "velocity": 51}, {"time": 3300, "pitch": 69, "duration": 14, "velocity": 49}, {"time": 3306, "pitch": 53, "duration": 45, "velocity": 62}, {"time": 3306, "pitch": 65, "duration": 5, "velocity": 47}, {"time": 3312, "pitch": 60, "duration": 9, "velocity": 48}, {"time": 3318, "pitch": 65, "duration": 7, "velocity": 62}, {"time": 3324, "pitch": 67, "duration": 6, "velocity": 59}, {"time": 3330, "pitch": 69, "duration": 6, "velocity": 48}, {"time": 3336, "pitch": 60, "duration": 10, "velocity": 40}, {"time": 3342, "pitch": 65, "duration": 7, "velocity": 50}, {"time": 3348, "pitch": 72, "duration": 13, "velocity": 53}, {"time": 3354, "pitch": 53, "duration": 38, "velocity": 57}, {"time": 3354, "pitch": 60, "duration": 7, "velocity": 39}, {"time": 3360, "pitch": 65, "duration": 5, "velocity": 44}, {"time": 3366, "pitch": 67, "duration": 7, "velocity": 47}, {"time": 3372, "pitch": 72, "duration": 10, "velocity": 54}, {"time": 3378, "pitch": 48, "duration": 12, "velocity": 52}, {"time": 3378, "pitch": 57, "duration": 13, "velocity": 48}, {"time": 3378, "pitch": 60, "duration": 8, "velocity": 44}, {"time": 3384, "pitch": 65, "duration": 5, "velocity": 48}, {"time": 3390, "pitch": 67, "duration": 6, "velocity": 57}, {"time": 3396, "pitch": 69, "duration": 7, "velocity": 51}, {"time": 3402, "pitch": 48, "duration": 44, "velocity": 45}, {"time": 3402, "pitch": 52, "duration": 46, "velocity": 59}, {"time": 3402, "pitch": 55, "duration": 46, "velocity": 64}, {"time": 3402, "pitch": 67, "duration": 8, "velocity": 58}, {"time": 3408, "pitch": 60, "duration": 7, "velocity": 41}, {"time": 3414, "pitch": 64, "duration": 7, "velocity": 47}, {"time": 3420, "pitch": 60, "duration": 13, "velocity": 57}, {"time": 3420, "pitch": 72, "duration": 8, "velocity": 66}, {"time": 3426, "pitch": 62, "duration": 8, "velocity": 40}, {"time": 3432, "pitch": 64, "duration": 7, "velocity": 48}, {"time": 3438, "pitch": 67, "duration": 6, "velocity": 55}, {"time": 3444, "pitch": 72, "duration": 8, "velocity": 59}, {"time": 3450, "pitch": 48, "duration": 31, "velocity": 59}, {"time": 3450, "pitch": 52, "duration": 33, "velocity": 63}, {"time": 3450, "pitch": 55, "duration": 33, "velocity": 60}, {"time": 3450, "pitch": 60, "duration": 32, "velocity": 66}, {"time": 3450, "pitch": 62, "duration": 14, "velocity": 46}, {"time": 3456, "pitch": 64, "duration": 8, "velocity": 44}, {"time": 3462, "pitch": 67, "duration": 7, "velocity": 54}, {"time": 3468, "pitch": 72, "duration": 7, "velocity": 60}, {"time": 3474, "pitch": 62, "duration": 8, "velocity": 48}, {"time": 3480, "pitch": 64, "duration": 7, "velocity": 46}, {"time": 3486, "pitch": 67, "duration": 7, "velocity": 61}, {"time": 3492, "pitch": 72, "duration": 9, "velocity": 61}, {"time": 3498, "pitch": 50, "duration": 42, "velocity": 57}, {"time": 3498, "pitch": 65, "duration": 6, "velocity": 56}, {"time": 3504, "pitch": 64, "duration": 7, "velocity": 45}, {"time": 3510, "pitch": 65, "duration": 6, "velocity": 52}, {"time": 3516, "pitch": 67, "duration": 3, "velocity": 45}, {"time": 3516, "pitch": 72, "duration": 8, "velocity": 55}, {"time": 3522, "pitch": 57, "duration": 19, "velocity": 45}, {"time": 3522, "pitch": 62, "duration": 15, "velocity": 51}, {"time": 3522, "pitch": 64, "duration": 8, "velocity": 46}, {"time": 3528, "pitch": 65, "duration": 7, "velocity": 57}, {"time": 3534, "pitch": 67, "duration": 4, "velocity": 56}, {"time": 3540, "pitch": 69, "duration": 6, "velocity": 55}, {"time": 3546, "pitch": 50, "duration": 43, "velocity": 46}, {"time": 3546, "pitch": 57, "duration": 35, "velocity": 45}, {"time": 3546, "pitch": 62, "duration": 16, "velocity": 49}, {"time": 3546, "pitch": 64, "duration": 13, "velocity": 48}, {"time": 3552, "pitch": 65, "duration": 8, "velocity": 51}, {"time": 3558, "pitch": 67, "duration": 6, "velocity": 54}, {"time": 3564, "pitch": 69, "duration": 7, "velocity": 62}, {"time": 3570, "pitch": 62, "duration": 16, "velocity": 47}, {"time": 3570, "pitch": 64, "duration": 10, "velocity": 45}, {"time": 3576, "pitch": 65, "duration": 10, "velocity": 55}, {"time": 3582, "pitch": 72, "duration": 3, "velocity": 59}, {"time": 3588, "pitch": 72, "duration": 4, "velocity": 47}, {"time": 3591, "pitch": 69, "duration": 4, "velocity": 57}, {"time": 3594, "pitch": 50, "duration": 83, "velocity": 63}, {"time": 3594, "pitch": 69, "duration": 1, "velocity": 52}, {"time": 3600, "pitch": 64, "duration": 9, "velocity": 48}, {"time": 3606, "pitch": 65, "duration": 6, "velocity": 53}, {"time": 3612, "pitch": 69, "duration": 7, "velocity": 55}, {"time": 3618, "pitch": 62, "duration": 16, "velocity": 46}, {"time": 3618, "pitch": 72, "duration": 7, "velocity": 60}, {"time": 3624, "pitch": 64, "duration": 9, "velocity": 46}, {"time": 3630, "pitch": 65, "duration": 6, "velocity": 53}, {"time": 3636, "pitch": 69, "duration": 11, "velocity": 58}, {"time": 3642, "pitch": 57, "duration": 35, "velocity": 55}, {"time": 3642, "pitch": 62, "duration": 18, "velocity": 59}, {"time": 3648, "pitch": 64, "duration": 9, "velocity": 44}, {"time": 3654, "pitch": 65, "duration": 6, "velocity": 49}, {"time": 3660, "pitch": 72, "duration": 8, "velocity": 66}, {"time": 3666, "pitch": 62, "duration": 9, "velocity": 48}, {"time": 3666, "pitch": 64, "duration": 8, "velocity": 44}, {"time": 3672, "pitch": 65, "duration": 4, "velocity": 55}, {"time": 3678, "pitch": 67, "duration": 6, "velocity": 50}, {"time": 3684, "pitch": 69, "duration": 5, "velocity": 60}, {"time": 3690, "pitch": 53, "duration": 41, "velocity": 67}, {"time": 3690, "pitch": 67, "duration": 6, "velocity": 58}, {"time": 3696, "pitch": 60, "duration": 10, "velocity": 46}, {"time": 3702, "pitch": 65, "duration": 7, "velocity": 61}, {"time": 3708, "pitch": 72, "duration": 15, "velocity": 70}, {"time": 3714, "pitch": 60, "duration": 9, "velocity": 42}, {"time": 3720, "pitch": 65, "duration": 6, "velocity": 52}, {"time": 3726, "pitch": 67, "duration": 6, "velocity": 52}, {"time": 3732, "pitch": 72, "duration": 12, "velocity": 61}, {"time": 3738, "pitch": 48, "duration": 40, "velocity": 49}, {"time": 3738, "pitch": 53, "duration": 38, "velocity": 66}, {"time": 3738, "pitch": 57, "duration": 17, "velocity": 54}, {"time": 3741, "pitch": 69, "duration": 5, "velocity": 36}, {"time": 3744, "pitch": 60, "duration": 7, "velocity": 44}, {"time": 3750, "pitch": 65, "duration": 7, "velocity": 53}, {"time": 3756, "pitch": 67, "duration": 8, "velocity": 61}, {"time": 3762, "pitch": 69, "duration": 6, "velocity": 51}, {"time": 3768, "pitch": 60, "duration": 5, "velocity": 50}, {"time": 3774, "pitch": 65, "duration": 6, "velocity": 54}, {"time": 3780, "pitch": 72, "duration": 8, "velocity": 58}, {"time": 3786, "pitch": 48, "duration": 42, "velocity": 44}, {"time": 3786, "pitch": 52, "duration": 43, "velocity": 62}, {"time": 3786, "pitch": 55, "duration": 43, "velocity": 63}, {"time": 3786, "pitch": 67, "duration": 9, "velocity": 56}, {"time": 3792, "pitch": 60, "duration": 7, "velocity": 49}, {"time": 3798, "pitch": 64, "duration": 8, "velocity": 43}, {"time": 3804, "pitch": 72, "duration": 7, "velocity": 64}, {"time": 3810, "pitch": 60, "duration": 8, "velocity": 46}, {"time": 3816, "pitch": 64, "duration": 7, "velocity": 51}, {"time": 3822, "pitch": 67, "duration": 7, "velocity": 52}, {"time": 3828, "pitch": 72, "duration": 13, "velocity": 50}, {"time": 3834, "pitch": 48, "duration": 37, "velocity": 47}, {"time": 3834, "pitch": 52, "duration": 38, "velocity": 64}, {"time": 3834, "pitch": 55, "duration": 38, "velocity": 59}, {"time": 3840, "pitch": 60, "duration": 8, "velocity": 47}, {"time": 3846, "pitch": 64, "duration": 7, "velocity": 46}, {"time": 3852, "pitch": 67, "duration": 6, "velocity": 60}, {"time": 3858, "pitch": 60, "duration": 6, "velocity": 48}, {"time": 3864, "pitch": 64, "duration": 8, "velocity": 47}, {"time": 3870, "pitch": 72, "duration": 7, "velocity": 63}, {"time": 3876, "pitch": 60, "duration": 5, "velocity": 49}, {"time": 3882, "pitch": 50, "duration": 37, "velocity": 45}, {"time": 3882, "pitch": 53, "duration": 40, "velocity": 57}, {"time": 3882, "pitch": 57, "duration": 41, "velocity": 54}, {"time": 3882, "pitch": 65, "duration": 5, "velocity": 63}, {"time": 3888, "pitch": 62, "duration": 6, "velocity": 32}, {"time": 3894, "pitch": 65, "duration": 6, "velocity": 56}, {"time": 3900, "pitch": 62, "duration": 15, "velocity": 48}, {"time": 3900, "pitch": 69, "duration": 6, "velocity": 58}, {"time": 3906, "pitch": 64, "duration": 8, "velocity": 44}, {"time": 3912, "pitch": 65, "duration": 6, "velocity": 60}, {"time": 3918, "pitch": 69, "duration": 7, "velocity": 54}, {"time": 3924, "pitch": 72, "duration": 8, "velocity": 51}, {"time": 3930, "pitch": 50, "duration": 39, "velocity": 46}, {"time": 3930, "pitch": 53, "duration": 41, "velocity": 57}, {"time": 3930, "pitch": 57, "duration": 39, "velocity": 59}, {"time": 3930, "pitch": 62, "duration": 8, "velocity": 57}, {"time": 3936, "pitch": 64, "duration": 5, "velocity": 59}, {"time": 3942, "pitch": 65, "duration": 5, "velocity": 59}, {"time": 3948, "pitch": 69, "duration": 5, "velocity": 47}, {"time": 3954, "pitch": 62, "duration": 6, "velocity": 43}, {"time": 3960, "pitch": 64, "duration": 4, "velocity": 50}, {"time": 3966, "pitch": 65, "duration": 6, "velocity": 53}, {"time": 3972, "pitch": 69, "duration": 11, "velocity": 60}, {"time": 3978, "pitch": 50, "duration": 43, "velocity": 49}, {"time": 3978, "pitch": 53, "duration": 43, "velocity": 63}, {"time": 3978, "pitch": 57, "duration": 43, "velocity": 60}, {"time": 3978, "pitch": 62, "duration": 8, "velocity": 57}, {"time": 3984, "pitch": 64, "duration": 5, "velocity": 59}, {"time": 3990, "pitch": 65, "duration": 5, "velocity": 59}, {"time": 3996, "pitch": 69, "duration": 5, "velocity": 47}, {"time": 4002, "pitch": 62, "duration": 6, "velocity": 43}, {"time": 4008, "pitch": 64, "duration": 4, "velocity": 50}, {"time": 4014, "pitch": 65, "duration": 6, "velocity": 53}, {"time": 4020, "pitch": 69, "duration": 11, "velocity": 60}, {"time": 4026, "pitch": 50, "duration": 33, "velocity": 55}, {"time": 4026, "pitch": 53, "duration": 34, "velocity": 66}, {"time": 4026, "pitch": 57, "duration": 34, "velocity": 66}, {"time": 4032, "pitch": 62, "duration": 8, "velocity": 49}, {"time": 4038, "pitch": 64, "duration": 4, "velocity": 50}, {"time": 4044, "pitch": 69, "duration": 9, "velocity": 69}, {"time": 4050, "pitch": 62, "duration": 5, "velocity": 45}, {"time": 4056, "pitch": 64, "duration": 4, "velocity": 57}, {"time": 4062, "pitch": 65, "duration": 6, "velocity": 57}, {"time": 4068, "pitch": 69, "duration": 4, "velocity": 66}, {"time": 4074, "pitch": 53, "duration": 44, "velocity": 69}, {"time": 4074, "pitch": 65, "duration": 6, "velocity": 60}, {"time": 4080, "pitch": 60, "duration": 6, "velocity": 48}, {"time": 4086, "pitch": 65, "duration": 6, "velocity": 49}, {"time": 4092, "pitch": 67, "duration": 6, "velocity": 49}, {"time": 4098, "pitch": 48, "duration": 20, "velocity": 56}, {"time": 4098, "pitch": 57, "duration": 20, "velocity": 54}, {"time": 4098, "pitch": 69, "duration": 7, "velocity": 61}, {"time": 4104, "pitch": 60, "duration": 6, "velocity": 46}, {"time": 4110, "pitch": 65, "duration": 5, "velocity": 54}, {"time": 4116, "pitch": 69, "duration": 9, "velocity": 56}, {"time": 4122, "pitch": 48, "duration": 92, "velocity": 57}, {"time": 4122, "pitch": 53, "duration": 38, "velocity": 63}, {"time": 4122, "pitch": 57, "duration": 38, "velocity": 60}, {"time": 4122, "pitch": 60, "duration": 8, "velocity": 49}, {"time": 4128, "pitch": 65, "duration": 6, "velocity": 53}, {"time": 4134, "pitch": 67, "duration": 5, "velocity": 49}, {"time": 4140, "pitch": 69, "duration": 7, "velocity": 59}, {"time": 4146, "pitch": 60, "duration": 8, "velocity": 44}, {"time": 4152, "pitch": 65, "duration": 10, "velocity": 51}, {"time": 4158, "pitch": 67, "duration": 6, "velocity": 49}, {"time": 4164, "pitch": 69, "duration": 7, "velocity": 61}, {"time": 4170, "pitch": 52, "duration": 44, "velocity": 58}, {"time": 4170, "pitch": 55, "duration": 44, "velocity": 61}, {"time": 4170, "pitch": 67, "duration": 6, "velocity": 63}, {"time": 4176, "pitch": 60, "duration": 8, "velocity": 49}, {"time": 4182, "pitch": 64, "duration": 6, "velocity": 57}, {"time": 4188, "pitch": 67, "duration": 5, "velocity": 57}, {"time": 4194, "pitch": 60, "duration": 10, "velocity": 54}, {"time": 4200, "pitch": 64, "duration": 7, "velocity": 54}, {"time": 4206, "pitch": 72, "duration": 8, "velocity": 60}, {"time": 4212, "pitch": 60, "duration": 6, "velocity": 49}, {"time": 4218, "pitch": 48, "duration": 34, "velocity": 49}, {"time": 4218, "pitch": 52, "duration": 36, "velocity": 61}, {"time": 4218, "pitch": 55, "duration": 36, "velocity": 57}, {"time": 4218, "pitch": 67, "duration": 7, "velocity": 49}, {"time": 4224, "pitch": 60, "duration": 9, "velocity": 43}, {"time": 4230, "pitch": 64, "duration": 5, "velocity": 46}, {"time": 4236, "pitch": 72, "duration": 7, "velocity": 53}, {"time": 4242, "pitch": 60, "duration": 8, "velocity": 45}, {"time": 4248, "pitch": 64, "duration": 6, "velocity": 51}, {"time": 4254, "pitch": 67, "duration": 7, "velocity": 54}, {"time": 4260, "pitch": 72, "duration": 9, "velocity": 64}, {"time": 4266, "pitch": 50, "duration": 44, "velocity": 46}, {"time": 4266, "pitch": 53, "duration": 45, "velocity": 59}, {"time": 4266, "pitch": 57, "duration": 45, "velocity": 53}, {"time": 4266, "pitch": 65, "duration": 5, "velocity": 60}, {"time": 4272, "pitch": 62, "duration": 7, "velocity": 48}, {"time": 4278, "pitch": 65, "duration": 6, "velocity": 55}, {"time": 4284, "pitch": 72, "duration": 8, "velocity": 63}, {"time": 4290, "pitch": 64, "duration": 9, "velocity": 43}, {"time": 4296, "pitch": 65, "duration": 6, "velocity": 49}, {"time": 4302, "pitch": 67, "duration": 7, "velocity": 54}, {"time": 4308, "pitch": 72, "duration": 9, "velocity": 54}, {"time": 4314, "pitch": 50, "duration": 33, "velocity": 49}, {"time": 4314, "pitch": 53, "duration": 34, "velocity": 58}, {"time": 4314, "pitch": 57, "duration": 33, "velocity": 52}, {"time": 4314, "pitch": 64, "duration": 8, "velocity": 49}, {"time": 4320, "pitch": 65, "duration": 5, "velocity": 58}, {"time": 4326, "pitch": 67, "duration": 6, "velocity": 60}, {"time": 4332, "pitch": 69, "duration": 6, "velocity": 64}, {"time": 4338, "pitch": 62, "duration": 6, "velocity": 67}, {"time": 4338, "pitch": 64, "duration": 7, "velocity": 59}, {"time": 4344, "pitch": 65, "duration": 4, "velocity": 60}, {"time": 4350, "pitch": 67, "duration": 5, "velocity": 49}, {"time": 4356, "pitch": 69, "duration": 7, "velocity": 66}, {"time": 4362, "pitch": 50, "duration": 40, "velocity": 56}, {"time": 4362, "pitch": 53, "duration": 42, "velocity": 70}, {"time": 4362, "pitch": 57, "duration": 44, "velocity": 64}, {"time": 4362, "pitch": 72, "duration": 8, "velocity": 67}, {"time": 4368, "pitch": 64, "duration": 5, "velocity": 48}, {"time": 4374, "pitch": 65, "duration": 7, "velocity": 55}, {"time": 4380, "pitch": 72, "duration": 7, "velocity": 64}, {"time": 4386, "pitch": 62, "duration": 15, "velocity": 45}, {"time": 4386, "pitch": 64, "duration": 5, "velocity": 48}, {"time": 4392, "pitch": 65, "duration": 4, "velocity": 59}, {"time": 4398, "pitch": 67, "duration": 7, "velocity": 60}, {"time": 4404, "pitch": 64, "duration": 4, "velocity": 62}, {"time": 4404, "pitch": 69, "duration": 3, "velocity": 59}, {"time": 4410, "pitch": 50, "duration": 37, "velocity": 70}, {"time": 4410, "pitch": 65, "duration": 5, "velocity": 64}, {"time": 4410, "pitch": 69, "duration": 4, "velocity": 60}, {"time": 4416, "pitch": 53, "duration": 30, "velocity": 32}, {"time": 4416, "pitch": 64, "duration": 3, "velocity": 60}, {"time": 4416, "pitch": 67, "duration": 4, "velocity": 70}, {"time": 4422, "pitch": 64, "duration": 5, "velocity": 51}, {"time": 4422, "pitch": 67, "duration": 5, "velocity": 56}, {"time": 4425, "pitch": 57, "duration": 21, "velocity": 20}, {"time": 4428, "pitch": 65, "duration": 3, "velocity": 54}, {"time": 4428, "pitch": 69, "duration": 3, "velocity": 60}, {"time": 4434, "pitch": 65, "duration": 4, "velocity": 67}, {"time": 4434, "pitch": 69, "duration": 5, "velocity": 64}, {"time": 4440, "pitch": 62, "duration": 5, "velocity": 57}, {"time": 4440, "pitch": 64, "duration": 3, "velocity": 53}, {"time": 4440, "pitch": 67, "duration": 4, "velocity": 54}, {"time": 4446, "pitch": 64, "duration": 5, "velocity": 67}, {"time": 4446, "pitch": 67, "duration": 4, "velocity": 70}, {"time": 4452, "pitch": 69, "duration": 4, "velocity": 54}, {"time": 4458, "pitch": 53, "duration": 46, "velocity": 72}, {"time": 4458, "pitch": 57, "duration": 18, "velocity": 62}, {"time": 4458, "pitch": 65, "duration": 7, "velocity": 61}, {"time": 4458, "pitch": 69, "duration": 7, "velocity": 59}, {"time": 4464, "pitch": 60, "duration": 3, "velocity": 39}, {"time": 4464, "pitch": 67, "duration": 3, "velocity": 56}, {"time": 4470, "pitch": 60, "duration": 4, "velocity": 62}, {"time": 4470, "pitch": 67, "duration": 5, "velocity": 67}, {"time": 4476, "pitch": 60, "duration": 3, "velocity": 54}, {"time": 4476, "pitch": 65, "duration": 4, "velocity": 60}, {"time": 4482, "pitch": 57, "duration": 22, "velocity": 49}, {"time": 4482, "pitch": 60, "duration": 3, "velocity": 59}, {"time": 4482, "pitch": 65, "duration": 5, "velocity": 72}, {"time": 4488, "pitch": 60, "duration": 3, "velocity": 45}, {"time": 4488, "pitch": 67, "duration": 4, "velocity": 61}, {"time": 4494, "pitch": 60, "duration": 4, "velocity": 60}, {"time": 4494, "pitch": 67, "duration": 5, "velocity": 66}, {"time": 4500, "pitch": 60, "duration": 3, "velocity": 44}, {"time": 4500, "pitch": 69, "duration": 4, "velocity": 59}, {"time": 4506, "pitch": 53, "duration": 34, "velocity": 67}, {"time": 4506, "pitch": 57, "duration": 21, "velocity": 66}, {"time": 4506, "pitch": 69, "duration": 7, "velocity": 69}, {"time": 4512, "pitch": 60, "duration": 5, "velocity": 58}, {"time": 4518, "pitch": 65, "duration": 5, "velocity": 59}, {"time": 4524, "pitch": 60, "duration": 3, "velocity": 50}, {"time": 4524, "pitch": 67, "duration": 5, "velocity": 60}, {"time": 4530, "pitch": 60, "duration": 3, "velocity": 46}, {"time": 4530, "pitch": 69, "duration": 7, "velocity": 61}, {"time": 4536, "pitch": 57, "duration": 4, "velocity": 61}, {"time": 4536, "pitch": 60, "duration": 5, "velocity": 55}, {"time": 4542, "pitch": 65, "duration": 5, "velocity": 58}, {"time": 4548, "pitch": 69, "duration": 8, "velocity": 69}, {"time": 4554, "pitch": 48, "duration": 43, "velocity": 57}, {"time": 4554, "pitch": 52, "duration": 43, "velocity": 58}, {"time": 4554, "pitch": 55, "duration": 43, "velocity": 59}, {"time": 4554, "pitch": 60, "duration": 3, "velocity": 57}, {"time": 4554, "pitch": 67, "duration": 4, "velocity": 60}, {"time": 4560, "pitch": 60, "duration": 2, "velocity": 47}, {"time": 4560, "pitch": 67, "duration": 8, "velocity": 58}, {"time": 4566, "pitch": 60, "duration": 8, "velocity": 60}, {"time": 4572, "pitch": 62, "duration": 2, "velocity": 40}, {"time": 4572, "pitch": 64, "duration": 1, "velocity": 37}, {"time": 4578, "pitch": 64, "duration": 5, "velocity": 60}, {"time": 4584, "pitch": 65, "duration": 5, "velocity": 55}, {"time": 4590, "pitch": 67, "duration": 5, "velocity": 75}, {"time": 4596, "pitch": 60, "duration": 5, "velocity": 58}, {"time": 4602, "pitch": 48, "duration": 38, "velocity": 49}, {"time": 4602, "pitch": 52, "duration": 39, "velocity": 64}, {"time": 4602, "pitch": 55, "duration": 31, "velocity": 63}, {"time": 4602, "pitch": 64, "duration": 9, "velocity": 60}, {"time": 4608, "pitch": 60, "duration": 6, "velocity": 57}, {"time": 4614, "pitch": 62, "duration": 5, "velocity": 58}, {"time": 4620, "pitch": 64, "duration": 6, "velocity": 59}, {"time": 4626, "pitch": 67, "duration": 6, "velocity": 70}, {"time": 4632, "pitch": 60, "duration": 4, "velocity": 61}, {"time": 4638, "pitch": 55, "duration": 4, "velocity": 60}, {"time": 4638, "pitch": 62, "duration": 4, "velocity": 60}, {"time": 4644, "pitch": 64, "duration": 6, "velocity": 51}, {"time": 4650, "pitch": 50, "duration": 36, "velocity": 67}, {"time": 4650, "pitch": 65, "duration": 13, "velocity": 67}, {"time": 4656, "pitch": 57, "duration": 23, "velocity": 57}, {"time": 4662, "pitch": 62, "duration": 19, "velocity": 60}, {"time": 4668, "pitch": 64, "duration": 5, "velocity": 64}, {"time": 4674, "pitch": 65, "duration": 7, "velocity": 60}, {"time": 4680, "pitch": 67, "duration": 5, "velocity": 60}, {"time": 4686, "pitch": 57, "duration": 9, "velocity": 62}, {"time": 4686, "pitch": 69, "duration": 11, "velocity": 62}, {"time": 4698, "pitch": 50, "duration": 41, "velocity": 63}, {"time": 4704, "pitch": 57, "duration": 17, "velocity": 60}, {"time": 4710, "pitch": 62, "duration": 21, "velocity": 53}, {"time": 4716, "pitch": 65, "duration": 3, "velocity": 59}, {"time": 4716, "pitch": 74, "duration": 3, "velocity": 76}, {"time": 4722, "pitch": 65, "duration": 3, "velocity": 58}, {"time": 4722, "pitch": 74, "duration": 5, "velocity": 69}, {"time": 4728, "pitch": 64, "duration": 3, "velocity": 58}, {"time": 4728, "pitch": 72, "duration": 3, "velocity": 57}, {"time": 4734, "pitch": 57, "duration": 7, "velocity": 53}, {"time": 4734, "pitch": 64, "duration": 3, "velocity": 66}, {"time": 4734, "pitch": 72, "duration": 3, "velocity": 61}, {"time": 4740, "pitch": 67, "duration": 3, "velocity": 63}, {"time": 4746, "pitch": 50, "duration": 40, "velocity": 67}, {"time": 4746, "pitch": 50, "duration": 40, "velocity": 75}, {"time": 4746, "pitch": 62, "duration": 17, "velocity": 75}, {"time": 4746, "pitch": 65, "duration": 11, "velocity": 69}, {"time": 4746, "pitch": 65, "duration": 11, "velocity": 78}, {"time": 4746, "pitch": 69, "duration": 14, "velocity": 69}, {"time": 4746, "pitch": 69, "duration": 14, "velocity": 75}, {"time": 4752, "pitch": 57, "duration": 38, "velocity": 58}, {"time": 4758, "pitch": 62, "duration": 5, "velocity": 47}, {"time": 4764, "pitch": 64, "duration": 4, "velocity": 52}, {"time": 4764, "pitch": 67, "duration": 9, "velocity": 61}, {"time": 4770, "pitch": 62, "duration": 7, "velocity": 69}, {"time": 4770, "pitch": 65, "duration": 13, "velocity": 73}, {"time": 4770, "pitch": 69, "duration": 15, "velocity": 67}, {"time": 4776, "pitch": 65, "duration": 7, "velocity": 62}, {"time": 4776, "pitch": 69, "duration": 9, "velocity": 66}, {"time": 4782, "pitch": 62, "duration": 4, "velocity": 51}, {"time": 4788, "pitch": 64, "duration": 3, "velocity": 43}, {"time": 4788, "pitch": 67, "duration": 5, "velocity": 53}, {"time": 4794, "pitch": 50, "duration": 22, "velocity": 64}, {"time": 4794, "pitch": 53, "duration": 33, "velocity": 69}, {"time": 4794, "pitch": 60, "duration": 18, "velocity": 70}, {"time": 4794, "pitch": 65, "duration": 11, "velocity": 60}, {"time": 4794, "pitch": 65, "duration": 11, "velocity": 70}, {"time": 4794, "pitch": 69, "duration": 11, "velocity": 64}, {"time": 4794, "pitch": 69, "duration": 11, "velocity": 66}, {"time": 4800, "pitch": 57, "duration": 13, "velocity": 59}, {"time": 4806, "pitch": 62, "duration": 5, "velocity": 48}, {"time": 4812, "pitch": 41, "duration": 28, "velocity": 59}, {"time": 4818, "pitch": 53, "duration": 9, "velocity": 67}, {"time": 4818, "pitch": 60, "duration": 8, "velocity": 72}, {"time": 4818, "pitch": 60, "duration": 8, "velocity": 76}, {"time": 4818, "pitch": 65, "duration": 9, "velocity": 62}, {"time": 4818, "pitch": 65, "duration": 9, "velocity": 72}, {"time": 4818, "pitch": 69, "duration": 10, "velocity": 56}, {"time": 4818, "pitch": 69, "duration": 10, "velocity": 76}, {"time": 4830, "pitch": 53, "duration": 3, "velocity": 55}, {"time": 4830, "pitch": 60, "duration": 2, "velocity": 55}, {"time": 4830, "pitch": 67, "duration": 6, "velocity": 66}, {"time": 4836, "pitch": 69, "duration": 3, "velocity": 62}, {"time": 4842, "pitch": 48, "duration": 11, "velocity": 75}, {"time": 4842, "pitch": 48, "duration": 11, "velocity": 78}, {"time": 4842, "pitch": 60, "duration": 7, "velocity": 66}, {"time": 4842, "pitch": 60, "duration": 7, "velocity": 69}, {"time": 4842, "pitch": 64, "duration": 7, "velocity": 59}, {"time": 4842, "pitch": 64, "duration": 7, "velocity": 73}, {"time": 4842, "pitch": 67, "duration": 9, "velocity": 62}, {"time": 4842, "pitch": 67, "duration": 9, "velocity": 70}, {"time": 4842, "pitch": 72, "duration": 16, "velocity": 60}, {"time": 4848, "pitch": 55, "duration": 6, "velocity": 61}, {"time": 4854, "pitch": 60, "duration": 2, "velocity": 62}, {"time": 4860, "pitch": 52, "duration": 16, "velocity": 38}, {"time": 4860, "pitch": 64, "duration": 8, "velocity": 70}, {"time": 4860, "pitch": 72, "duration": 9, "velocity": 78}, {"time": 4866, "pitch": 60, "duration": 2, "velocity": 64}, {"time": 4866, "pitch": 62, "duration": 4, "velocity": 70}, {"time": 4866, "pitch": 64, "duration": 2, "velocity": 73}, {"time": 4866, "pitch": 67, "duration": 10, "velocity": 73}, {"time": 4866, "pitch": 72, "duration": 3, "velocity": 70}, {"time": 4872, "pitch": 64, "duration": 6, "velocity": 64}, {"time": 4872, "pitch": 67, "duration": 4, "velocity": 63}, {"time": 4878, "pitch": 67, "duration": 6, "velocity": 67}, {"time": 4884, "pitch": 69, "duration": 5, "velocity": 64}, {"time": 4890, "pitch": 50, "duration": 8, "velocity": 62}, {"time": 4890, "pitch": 50, "duration": 8, "velocity": 69}, {"time": 4890, "pitch": 62, "duration": 8, "velocity": 70}, {"time": 4890, "pitch": 65, "duration": 4, "velocity": 67}, {"time": 4890, "pitch": 65, "duration": 4, "velocity": 70}, {"time": 4890, "pitch": 69, "duration": 5, "velocity": 54}, {"time": 4896, "pitch": 57, "duration": 6, "velocity": 50}, {"time": 4896, "pitch": 57, "duration": 6, "velocity": 61}, {"time": 4902, "pitch": 62, "duration": 8, "velocity": 50}, {"time": 4902, "pitch": 62, "duration": 8, "velocity": 64}, {"time": 4908, "pitch": 64, "duration": 7, "velocity": 53}, {"time": 4908, "pitch": 64, "duration": 7, "velocity": 73}, {"time": 4908, "pitch": 69, "duration": 3, "velocity": 59}, {"time": 4908, "pitch": 77, "duration": 3, "velocity": 72}, {"time": 4914, "pitch": 65, "duration": 5, "velocity": 69}, {"time": 4914, "pitch": 67, "duration": 8, "velocity": 69}, {"time": 4914, "pitch": 76, "duration": 8, "velocity": 63}, {"time": 4920, "pitch": 65, "duration": 4, "velocity": 69}, {"time": 4920, "pitch": 69, "duration": 8, "velocity": 70}, {"time": 4920, "pitch": 74, "duration": 3, "velocity": 61}, {"time": 4926, "pitch": 72, "duration": 6, "velocity": 62}, {"time": 4926, "pitch": 74, "duration": 7, "velocity": 62}, {"time": 4932, "pitch": 69, "duration": 5, "velocity": 53}, {"time": 4932, "pitch": 76, "duration": 5, "velocity": 69}, {"time": 4938, "pitch": 50, "duration": 37, "velocity": 63}, {"time": 4938, "pitch": 50, "duration": 37, "velocity": 69}, {"time": 4938, "pitch": 69, "duration": 9, "velocity": 54}, {"time": 4938, "pitch": 69, "duration": 9, "velocity": 69}, {"time": 4938, "pitch": 74, "duration": 8, "velocity": 72}, {"time": 4938, "pitch": 77, "duration": 15, "velocity": 70}, {"time": 4944, "pitch": 57, "duration": 18, "velocity": 67}, {"time": 4950, "pitch": 57, "duration": 12, "velocity": 42}, {"time": 4950, "pitch": 62, "duration": 15, "velocity": 62}, {"time": 4956, "pitch": 64, "duration": 4, "velocity": 58}, {"time": 4962, "pitch": 62, "duration": 3, "velocity": 56}, {"time": 4962, "pitch": 65, "duration": 2, "velocity": 43}, {"time": 4962, "pitch": 67, "duration": 6, "velocity": 61}, {"time": 4962, "pitch": 69, "duration": 12, "velocity": 76}, {"time": 4962, "pitch": 74, "duration": 10, "velocity": 78}, {"time": 4962, "pitch": 77, "duration": 11, "velocity": 80}, {"time": 4968, "pitch": 57, "duration": 2, "velocity": 64}, {"time": 4974, "pitch": 65, "duration": 6, "velocity": 69}, {"time": 4974, "pitch": 76, "duration": 11, "velocity": 75}, {"time": 4980, "pitch": 52, "duration": 9, "velocity": 69}, {"time": 4980, "pitch": 67, "duration": 5, "velocity": 59}, {"time": 4986, "pitch": 41, "duration": 35, "velocity": 47}, {"time": 4986, "pitch": 53, "duration": 35, "velocity": 67}, {"time": 4986, "pitch": 60, "duration": 4, "velocity": 66}, {"time": 4986, "pitch": 65, "duration": 7, "velocity": 59}, {"time": 4986, "pitch": 69, "duration": 7, "velocity": 69}, {"time": 4986, "pitch": 69, "duration": 7, "velocity": 73}, {"time": 4986, "pitch": 72, "duration": 14, "velocity": 75}, {"time": 4986, "pitch": 77, "duration": 18, "velocity": 75}, {"time": 4992, "pitch": 57, "duration": 14, "velocity": 60}, {"time": 4992, "pitch": 60, "duration": 7, "velocity": 53}, {"time": 4998, "pitch": 48, "duration": 14, "velocity": 34}, {"time": 4998, "pitch": 65, "duration": 5, "velocity": 67}, {"time": 5004, "pitch": 60, "duration": 13, "velocity": 64}, {"time": 5004, "pitch": 69, "duration": 13, "velocity": 69}, {"time": 5010, "pitch": 53, "duration": 11, "velocity": 51}, {"time": 5010, "pitch": 69, "duration": 7, "velocity": 69}, {"time": 5010, "pitch": 72, "duration": 12, "velocity": 76}, {"time": 5016, "pitch": 57, "duration": 4, "velocity": 67}, {"time": 5022, "pitch": 60, "duration": 6, "velocity": 63}, {"time": 5022, "pitch": 77, "duration": 14, "velocity": 67}, {"time": 5028, "pitch": 67, "duration": 5, "velocity": 64}, {"time": 5034, "pitch": 48, "duration": 37, "velocity": 73}, {"time": 5034, "pitch": 48, "duration": 37, "velocity": 75}, {"time": 5034, "pitch": 62, "duration": 10, "velocity": 54}, {"time": 5034, "pitch": 64, "duration": 13, "velocity": 63}, {"time": 5034, "pitch": 67, "duration": 4, "velocity": 42}, {"time": 5034, "pitch": 67, "duration": 4, "velocity": 63}, {"time": 5034, "pitch": 76, "duration": 14, "velocity": 72}, {"time": 5040, "pitch": 55, "duration": 30, "velocity": 53}, {"time": 5046, "pitch": 55, "duration": 24, "velocity": 48}, {"time": 5046, "pitch": 60, "duration": 17, "velocity": 59}, {"time": 5052, "pitch": 62, "duration": 9, "velocity": 51}, {"time": 5052, "pitch": 67, "duration": 7, "velocity": 53}, {"time": 5058, "pitch": 60, "duration": 5, "velocity": 58}, {"time": 5058, "pitch": 64, "duration": 6, "velocity": 61}, {"time": 5058, "pitch": 67, "duration": 1, "velocity": 63}, {"time": 5058, "pitch": 72, "duration": 9, "velocity": 76}, {"time": 5064, "pitch": 67, "duration": 4, "velocity": 63}, {"time": 5070, "pitch": 60, "duration": 10, "velocity": 58}, {"time": 5070, "pitch": 69, "duration": 2, "velocity": 44}, {"time": 5076, "pitch": 69, "duration": 2, "velocity": 48}, {"time": 5082, "pitch": 50, "duration": 35, "velocity": 70}, {"time": 5082, "pitch": 50, "duration": 35, "velocity": 72}, {"time": 5082, "pitch": 65, "duration": 14, "velocity": 69}, {"time": 5082, "pitch": 65, "duration": 14, "velocity": 75}, {"time": 5082, "pitch": 69, "duration": 12, "velocity": 54}, {"time": 5082, "pitch": 69, "duration": 12, "velocity": 70}, {"time": 5088, "pitch": 57, "duration": 28, "velocity": 50}, {"time": 5088, "pitch": 57, "duration": 28, "velocity": 66}, {"time": 5094, "pitch": 62, "duration": 22, "velocity": 58}, {"time": 5094, "pitch": 62, "duration": 22, "velocity": 59}, {"time": 5100, "pitch": 64, "duration": 5, "velocity": 55}, {"time": 5100, "pitch": 64, "duration": 5, "velocity": 58}, {"time": 5106, "pitch": 65, "duration": 4, "velocity": 61}, {"time": 5106, "pitch": 65, "duration": 4, "velocity": 66}, {"time": 5112, "pitch": 69, "duration": 6, "velocity": 56}, {"time": 5112, "pitch": 69, "duration": 6, "velocity": 60}, {"time": 5118, "pitch": 74, "duration": 6, "velocity": 46}, {"time": 5118, "pitch": 74, "duration": 6, "velocity": 58}, {"time": 5124, "pitch": 74, "duration": 1, "velocity": 45}, {"time": 5124, "pitch": 76, "duration": 4, "velocity": 59}, {"time": 5130, "pitch": 46, "duration": 15, "velocity": 80}, {"time": 5130, "pitch": 50, "duration": 21, "velocity": 62}, {"time": 5130, "pitch": 62, "duration": 14, "velocity": 57}, {"time": 5130, "pitch": 62, "duration": 14, "velocity": 64}, {"time": 5130, "pitch": 65, "duration": 14, "velocity": 66}, {"time": 5130, "pitch": 69, "duration": 14, "velocity": 62}, {"time": 5130, "pitch": 69, "duration": 14, "velocity": 64}, {"time": 5130, "pitch": 74, "duration": 18, "velocity": 67}, {"time": 5130, "pitch": 77, "duration": 16, "velocity": 63}, {"time": 5136, "pitch": 53, "duration": 9, "velocity": 46}, {"time": 5142, "pitch": 58, "duration": 5, "velocity": 57}, {"time": 5148, "pitch": 69, "duration": 7, "velocity": 69}, {"time": 5154, "pitch": 48, "duration": 11, "velocity": 67}, {"time": 5154, "pitch": 60, "duration": 8, "velocity": 57}, {"time": 5154, "pitch": 64, "duration": 9, "velocity": 61}, {"time": 5154, "pitch": 67, "duration": 10, "velocity": 63}, {"time": 5160, "pitch": 55, "duration": 8, "velocity": 57}, {"time": 5166, "pitch": 60, "duration": 7, "velocity": 56}, {"time": 5172, "pitch": 72, "duration": 4, "velocity": 52}, {"time": 5178, "pitch": 65, "duration": 6, "velocity": 66}, {"time": 5178, "pitch": 69, "duration": 7, "velocity": 62}, {"time": 5181, "pitch": 53, "duration": 31, "velocity": 32}, {"time": 5184, "pitch": 60, "duration": 19, "velocity": 39}, {"time": 5190, "pitch": 65, "duration": 16, "velocity": 55}, {"time": 5196, "pitch": 69, "duration": 3, "velocity": 55}, {"time": 5196, "pitch": 77, "duration": 4, "velocity": 67}, {"time": 5202, "pitch": 67, "duration": 6, "velocity": 52}, {"time": 5202, "pitch": 76, "duration": 8, "velocity": 67}, {"time": 5208, "pitch": 60, "duration": 4, "velocity": 67}, {"time": 5211, "pitch": 72, "duration": 7, "velocity": 48}, {"time": 5226, "pitch": 46, "duration": 19, "velocity": 69}, {"time": 5226, "pitch": 69, "duration": 6, "velocity": 63}, {"time": 5226, "pitch": 74, "duration": 5, "velocity": 69}, {"time": 5232, "pitch": 53, "duration": 12, "velocity": 66}, {"time": 5238, "pitch": 58, "duration": 5, "velocity": 60}, {"time": 5244, "pitch": 67, "duration": 5, "velocity": 60}, {"time": 5250, "pitch": 48, "duration": 15, "velocity": 66}, {"time": 5250, "pitch": 60, "duration": 7, "velocity": 52}, {"time": 5250, "pitch": 64, "duration": 7, "velocity": 59}, {"time": 5250, "pitch": 67, "duration": 3, "velocity": 39}, {"time": 5256, "pitch": 52, "duration": 7, "velocity": 58}, {"time": 5262, "pitch": 60, "duration": 4, "velocity": 51}, {"time": 5268, "pitch": 65, "duration": 5, "velocity": 53}, {"time": 5274, "pitch": 41, "duration": 9, "velocity": 69}, {"time": 5274, "pitch": 60, "duration": 20, "velocity": 62}, {"time": 5274, "pitch": 65, "duration": 21, "velocity": 52}, {"time": 5274, "pitch": 69, "duration": 23, "velocity": 67}, {"time": 5280, "pitch": 48, "duration": 6, "velocity": 66}, {"time": 5286, "pitch": 53, "duration": 8, "velocity": 50}, {"time": 5292, "pitch": 55, "duration": 14, "velocity": 56}, {"time": 5298, "pitch": 57, "duration": 7, "velocity": 57}, {"time": 5304, "pitch": 60, "duration": 5, "velocity": 50}, {"time": 5310, "pitch": 65, "duration": 7, "velocity": 53}, {"time": 5316, "pitch": 69, "duration": 4, "velocity": 63}, {"time": 5322, "pitch": 46, "duration": 18, "velocity": 67}, {"time": 5322, "pitch": 62, "duration": 13, "velocity": 54}, {"time": 5322, "pitch": 65, "duration": 13, "velocity": 63}, {"time": 5322, "pitch": 69, "duration": 12, "velocity": 63}, {"time": 5328, "pitch": 53, "duration": 12, "velocity": 54}, {"time": 5334, "pitch": 58, "duration": 6, "velocity": 51}, {"time": 5340, "pitch": 62, "duration": 3, "velocity": 40}, {"time": 5340, "pitch": 69, "duration": 6, "velocity": 61}, {"time": 5346, "pitch": 60, "duration": 9, "velocity": 57}, {"time": 5346, "pitch": 64, "duration": 12, "velocity": 66}, {"time": 5346, "pitch": 67, "duration": 14, "velocity": 62}, {"time": 5355, "pitch": 48, "duration": 8, "velocity": 31}, {"time": 5370, "pitch": 50, "duration": 32, "velocity": 64}, {"time": 5370, "pitch": 60, "duration": 8, "velocity": 56}, {"time": 5370, "pitch": 65, "duration": 7, "velocity": 66}, {"time": 5370, "pitch": 69, "duration": 6, "velocity": 55}, {"time": 5376, "pitch": 67, "duration": 5, "velocity": 57}, {"time": 5382, "pitch": 65, "duration": 6, "velocity": 63}, {"time": 5388, "pitch": 64, "duration": 8, "velocity": 61}, {"time": 5394, "pitch": 65, "duration": 5, "velocity": 62}, {"time": 5400, "pitch": 67, "duration": 7, "velocity": 60}, {"time": 5406, "pitch": 69, "duration": 4, "velocity": 66}, {"time": 5418, "pitch": 46, "duration": 40, "velocity": 62}, {"time": 5418, "pitch": 62, "duration": 8, "velocity": 54}, {"time": 5418, "pitch": 65, "duration": 8, "velocity": 66}, {"time": 5424, "pitch": 58, "duration": 13, "velocity": 75}, {"time": 5430, "pitch": 62, "duration": 5, "velocity": 50}, {"time": 5436, "pitch": 67, "duration": 3, "velocity": 52}, {"time": 5454, "pitch": 62, "duration": 4, "velocity": 63}, {"time": 5454, "pitch": 65, "duration": 5, "velocity": 73}, {"time": 5460, "pitch": 46, "duration": 5, "velocity": 66}, {"time": 5466, "pitch": 45, "duration": 33, "velocity": 63}, {"time": 5466, "pitch": 60, "duration": 7, "velocity": 61}, {"time": 5466, "pitch": 64, "duration": 7, "velocity": 62}, {"time": 5466, "pitch": 67, "duration": 7, "velocity": 63}, {"time": 5472, "pitch": 57, "duration": 17, "velocity": 58}, {"time": 5478, "pitch": 60, "duration": 4, "velocity": 51}, {"time": 5484, "pitch": 60, "duration": 13, "velocity": 62}, {"time": 5484, "pitch": 64, "duration": 13, "velocity": 62}, {"time": 5484, "pitch": 72, "duration": 14, "velocity": 49}, {"time": 5514, "pitch": 38, "duration": 16, "velocity": 69}, {"time": 5514, "pitch": 50, "duration": 17, "velocity": 67}, {"time": 5514, "pitch": 57, "duration": 16, "velocity": 78}, {"time": 5514, "pitch": 62, "duration": 16, "velocity": 93}, {"time": 5514, "pitch": 65, "duration": 10, "velocity": 75}, {"time": 5532, "pitch": 60, "duration": 4, "velocity": 51}, {"time": 5535, "pitch": 62, "duration": 3, "velocity": 62}, {"time": 5538, "pitch": 41, "duration": 14, "velocity": 62}, {"time": 5538, "pitch": 53, "duration": 16, "velocity": 73}, {"time": 5538, "pitch": 57, "duration": 8, "velocity": 80}, {"time": 5538, "pitch": 60, "duration": 9, "velocity": 80}, {"time": 5538, "pitch": 65, "duration": 10, "velocity": 72}, {"time": 5556, "pitch": 62, "duration": 4, "velocity": 54}, {"time": 5559, "pitch": 65, "duration": 3, "velocity": 61}, {"time": 5562, "pitch": 43, "duration": 14, "velocity": 69}, {"time": 5562, "pitch": 55, "duration": 15, "velocity": 72}, {"time": 5562, "pitch": 60, "duration": 15, "velocity": 91}, {"time": 5562, "pitch": 67, "duration": 18, "velocity": 70}, {"time": 5583, "pitch": 65, "duration": 5, "velocity": 58}, {"time": 5586, "pitch": 67, "duration": 2, "velocity": 60}, {"time": 5589, "pitch": 45, "duration": 13, "velocity": 70}, {"time": 5589, "pitch": 57, "duration": 14, "velocity": 72}, {"time": 5589, "pitch": 60, "duration": 8, "velocity": 88}, {"time": 5589, "pitch": 65, "duration": 8, "velocity": 75}, {"time": 5589, "pitch": 69, "duration": 9, "velocity": 78}, {"time": 5610, "pitch": 67, "duration": 6, "velocity": 61}, {"time": 5616, "pitch": 48, "duration": 95, "velocity": 72}, {"time": 5616, "pitch": 60, "duration": 10, "velocity": 80}, {"time": 5616, "pitch": 65, "duration": 11, "velocity": 82}, {"time": 5616, "pitch": 67, "duration": 10, "velocity": 57}, {"time": 5616, "pitch": 72, "duration": 12, "velocity": 78}, {"time": 5628, "pitch": 55, "duration": 15, "velocity": 44}, {"time": 5640, "pitch": 60, "duration": 17, "velocity": 55}, {"time": 5640, "pitch": 67, "duration": 5, "velocity": 63}, {"time": 5640, "pitch": 72, "duration": 6, "velocity": 67}, {"time": 5640, "pitch": 74, "duration": 6, "velocity": 70}, {"time": 5640, "pitch": 76, "duration": 7, "velocity": 69}, {"time": 5654, "pitch": 55, "duration": 43, "velocity": 36}, {"time": 5667, "pitch": 76, "duration": 3, "velocity": 64}, {"time": 5667, "pitch": 84, "duration": 3, "velocity": 70}, {"time": 5667, "pitch": 79, "duration": 3, "velocity": 76}, {"time": 5667, "pitch": 60, "duration": 16, "velocity": 48}, {"time": 5694, "pitch": 76, "duration": 2, "velocity": 54}, {"time": 5694, "pitch": 88, "duration": 3, "velocity": 70}, {"time": 5708, "pitch": 55, "duration": 2, "velocity": 69}, {"time": 5724, "pitch": 86, "duration": 6, "velocity": 76}, {"time": 5724, "pitch": 38, "duration": 100, "velocity": 78}, {"time": 5724, "pitch": 74, "duration": 8, "velocity": 73}, {"time": 5738, "pitch": 50, "duration": 86, "velocity": 47}, {"time": 5744, "pitch": 52, "duration": 4, "velocity": 58}, {"time": 5749, "pitch": 53, "duration": 3, "velocity": 64}, {"time": 5755, "pitch": 57, "duration": 3, "velocity": 76}, {"time": 5760, "pitch": 62, "duration": 6, "velocity": 48}, {"time": 5765, "pitch": 64, "duration": 3, "velocity": 60}, {"time": 5771, "pitch": 65, "duration": 4, "velocity": 50}, {"time": 5777, "pitch": 69, "duration": 3, "velocity": 37}, {"time": 5784, "pitch": 74, "duration": 3, "velocity": 56}, {"time": 5791, "pitch": 76, "duration": 3, "velocity": 58}, {"time": 5800, "pitch": 77, "duration": 3, "velocity": 69}, {"time": 5810, "pitch": 81, "duration": 2, "velocity": 57}, {"time": 5822, "pitch": 86, "duration": 1, "velocity": 61}], "annotations": [{"time": 122, "annotation": {"number": 64, "value": 127}, "group": "control_change"}, {"time": 227, "annotation": {"number": 64, "value": 0}, "group": "control_change"}, {"time": 232, "annotation": {"number": 64, "value": 127}, "group": "control_change"}, {"time": 331, "annotation": {"number": 64, "value": 0}, "group": "control_change"}, {"time": 336, "annotation": {"number": 64, "value": 127}, "group": "control_change"}, {"time": 425, "annotation": {"number": 64, "value": 0}, "group": "control_change"}, {"time": 430, "annotation": {"number": 64, "value": 127}, "group": "control_change"}, {"time": 520, "annotation": {"number": 64, "value": 0}, "group": "control_change"}, {"time": 525, "annotation": {"number": 64, "value": 127}, "group": "control_change"}, {"time": 617, "annotation": {"number": 64, "value": 0}, "group": "control_change"}, {"time": 623, "annotation": {"number": 64, "value": 127}, "group": "control_change"}, {"time": 712, "annotation": {"number": 64, "value": 0}, "group": "control_change"}, {"time": 718, "annotation": {"number": 64, "value": 127}, "group": "control_change"}, {"time": 810, "annotation": {"number": 64, "value": 0}, "group": "control_change"}, {"time": 817, "annotation": {"number": 64, "value": 127}, "group": "control_change"}, {"time": 906, "annotation": {"number": 64, "value": 0}, "group": "control_change"}, {"time": 912, "annotation": {"number": 64, "value": 127}, "group": "control_change"}, {"time": 956, "annotation": {"number": 64, "value": 0}, "group": "control_change"}, {"time": 961, "annotation": {"number": 64, "value": 127}, "group": "control_change"}, {"time": 1001, "annotation": {"number": 64, "value": 0}, "group": "control_change"}, {"time": 1006, "annotation": {"number": 64, "value": 127}, "group": "control_change"}, {"time": 1049, "annotation": {"number": 64, "value": 0}, "group": "control_change"}, {"time": 1054, "annotation": {"number": 64, "value": 127}, "group": "control_change"}, {"time": 1098, "annotation": {"number": 64, "value": 0}, "group": "control_change"}, {"time": 1104, "annotation": {"number": 64, "value": 127}, "group": "control_change"}, {"time": 1145, "annotation": {"number": 64, "value": 0}, "group": "control_change"}, {"time": 1151, "annotation": {"number": 64, "value": 127}, "group": "control_change"}, {"time": 1193, "annotation": {"number": 64, "value": 0}, "group": "control_change"}, {"time": 1198, "annotation": {"number": 64, "value": 127}, "group": "control_change"}, {"time": 1243, "annotation": {"number": 64, "value": 0}, "group": "control_change"}, {"time": 1248, "annotation": {"number": 64, "value": 127}, "group": "control_change"}, {"time": 1291, "annotation": {"number": 64, "value": 0}, "group": "control_change"}, {"time": 1297, "annotation": {"number": 64, "value": 127}, "group": "control_change"}, {"time": 1339, "annotation": {"number": 64, "value": 0}, "group": "control_change"}, {"time": 1344, "annotation": {"number": 64, "value": 127}, "group": "control_change"}, {"time": 1385, "annotation": {"number": 64, "value": 0}, "group": "control_change"}, {"time": 1391, "annotation": {"number": 64, "value": 127}, "group": "control_change"}, {"time": 1433, "annotation": {"number": 64, "value": 0}, "group": "control_change"}, {"time": 1438, "annotation": {"number": 64, "value": 127}, "group": "control_change"}, {"time": 1482, "annotation": {"number": 64, "value": 0}, "group": "control_change"}, {"time": 1489, "annotation": {"number": 64, "value": 127}, "group": "control_change"}, {"time": 1531, "annotation": {"number": 64, "value": 0}, "group": "control_change"}, {"time": 1537, "annotation": {"number": 64, "value": 127}, "group": "control_change"}, {"time": 1578, "annotation": {"number": 64, "value": 0}, "group": "control_change"}, {"time": 1584, "annotation": {"number": 64, "value": 127}, "group": "control_change"}, {"time": 1624, "annotation": {"number": 64, "value": 0}, "group": "control_change"}, {"time": 1629, "annotation": {"number": 64, "value": 127}, "group": "control_change"}, {"time": 1673, "annotation": {"number": 64, "value": 0}, "group": "control_change"}, {"time": 1679, "annotation": {"number": 64, "value": 127}, "group": "control_change"}, {"time": 1722, "annotation": {"number": 64, "value": 0}, "group": "control_change"}, {"time": 1727, "annotation": {"number": 64, "value": 127}, "group": "control_change"}, {"time": 1770, "annotation": {"number": 64, "value": 0}, "group": "control_change"}, {"time": 1776, "annotation": {"number": 64, "value": 127}, "group": "control_change"}, {"time": 1816, "annotation": {"number": 64, "value": 0}, "group": "control_change"}, {"time": 1821, "annotation": {"number": 64, "value": 127}, "group": "control_change"}, {"time": 1865, "annotation": {"number": 64, "value": 0}, "group": "control_change"}, {"time": 1870, "annotation": {"number": 64, "value": 127}, "group": "control_change"}, {"time": 1961, "annotation": {"number": 64, "value": 0}, "group": "control_change"}, {"time": 1966, "annotation": {"number": 64, "value": 127}, "group": "control_change"}, {"time": 2010, "annotation": {"number": 64, "value": 0}, "group": "control_change"}, {"time": 2015, "annotation": {"number": 64, "value": 127}, "group": "control_change"}, {"time": 2058, "annotation": {"number": 64, "value": 0}, "group": "control_change"}, {"time": 2064, "annotation": {"number": 64, "value": 127}, "group": "control_change"}, {"time": 2106, "annotation": {"number": 64, "value": 0}, "group": "control_change"}, {"time": 2112, "annotation": {"number": 64, "value": 127}, "group": "control_change"}, {"time": 2154, "annotation": {"number": 64, "value": 0}, "group": "control_change"}, {"time": 2159, "annotation": {"number": 64, "value": 127}, "group": "control_change"}, {"time": 2250, "annotation": {"number": 64, "value": 0}, "group": "control_change"}, {"time": 2257, "annotation": {"number": 64, "value": 127}, "group": "control_change"}, {"time": 2298, "annotation": {"number": 64, "value": 0}, "group": "control_change"}, {"time": 2304, "annotation": {"number": 64, "value": 127}, "group": "control_change"}, {"time": 2346, "annotation": {"number": 64, "value": 0}, "group": "control_change"}, {"time": 2353, "annotation": {"number": 64, "value": 127}, "group": "control_change"}, {"time": 2393, "annotation": {"number": 64, "value": 0}, "group": "control_change"}, {"time": 2398, "annotation": {"number": 64, "value": 127}, "group": "control_change"}, {"time": 2442, "annotation": {"number": 64, "value": 0}, "group": "control_change"}, {"time": 2448, "annotation": {"number": 64, "value": 127}, "group": "control_change"}, {"time": 2491, "annotation": {"number": 64, "value": 0}, "group": "control_change"}, {"time": 2497, "annotation": {"number": 64, "value": 127}, "group": "control_change"}, {"time": 2539, "annotation": {"number": 64, "value": 0}, "group": "control_change"}, {"time": 2547, "annotation": {"number": 64, "value": 127}, "group": "control_change"}, {"time": 2587, "annotation": {"number": 64, "value": 0}, "group": "control_change"}, {"time": 2594, "annotation": {"number": 64, "value": 127}, "group": "control_change"}, {"time": 2631, "annotation": {"number": 64, "value": 0}, "group": "control_change"}, {"time": 2637, "annotation": {"number": 64, "value": 127}, "group": "control_change"}, {"time": 2660, "annotation": {"number": 64, "value": 0}, "group": "control_change"}, {"time": 2664, "annotation": {"number": 64, "value": 127}, "group": "control_change"}, {"time": 2682, "annotation": {"number": 64, "value": 0}, "group": "control_change"}, {"time": 2686, "annotation": {"number": 64, "value": 127}, "group": "control_change"}, {"time": 2730, "annotation": {"number": 64, "value": 0}, "group": "control_change"}, {"time": 2734, "annotation": {"number": 64, "value": 127}, "group": "control_change"}, {"time": 2754, "annotation": {"number": 64, "value": 0}, "group": "control_change"}, {"time": 2758, "annotation": {"number": 64, "value": 127}, "group": "control_change"}, {"time": 2777, "annotation": {"number": 64, "value": 0}, "group": "control_change"}, {"time": 2780, "annotation": {"number": 64, "value": 127}, "group": "control_change"}, {"time": 2804, "annotation": {"number": 64, "value": 0}, "group": "control_change"}, {"time": 2815, "annotation": {"number": 64, "value": 127}, "group": "control_change"}, {"time": 2824, "annotation": {"number": 64, "value": 0}, "group": "control_change"}, {"time": 2828, "annotation": {"number": 64, "value": 127}, "group": "control_change"}, {"time": 2852, "annotation": {"number": 64, "value": 0}, "group": "control_change"}, {"time": 2857, "annotation": {"number": 64, "value": 127}, "group": "control_change"}, {"time": 2873, "annotation": {"number": 64, "value": 0}, "group": "control_change"}, {"time": 2877, "annotation": {"number": 64, "value": 127}, "group": "control_change"}, {"time": 2921, "annotation": {"number": 64, "value": 0}, "group": "control_change"}, {"time": 2925, "annotation": {"number": 64, "value": 127}, "group": "control_change"}, {"time": 2970, "annotation": {"number": 64, "value": 0}, "group": "control_change"}, {"time": 2974, "annotation": {"number": 64, "value": 127}, "group": "control_change"}, {"time": 3017, "annotation": {"number": 64, "value": 0}, "group": "control_change"}, {"time": 3020, "annotation": {"number": 64, "value": 127}, "group": "control_change"}, {"time": 3065, "annotation": {"number": 64, "value": 0}, "group": "control_change"}, {"time": 3069, "annotation": {"number": 64, "value": 127}, "group": "control_change"}, {"time": 3112, "annotation": {"number": 64, "value": 0}, "group": "control_change"}, {"time": 3115, "annotation": {"number": 64, "value": 127}, "group": "control_change"}, {"time": 3209, "annotation": {"number": 64, "value": 0}, "group": "control_change"}, {"time": 3214, "annotation": {"number": 64, "value": 127}, "group": "control_change"}, {"time": 3306, "annotation": {"number": 64, "value": 0}, "group": "control_change"}, {"time": 3313, "annotation": {"number": 64, "value": 127}, "group": "control_change"}, {"time": 3402, "annotation": {"number": 64, "value": 0}, "group": "control_change"}, {"time": 3408, "annotation": {"number": 64, "value": 127}, "group": "control_change"}, {"time": 3452, "annotation": {"number": 64, "value": 0}, "group": "control_change"}, {"time": 3457, "annotation": {"number": 64, "value": 127}, "group": "control_change"}, {"time": 3497, "annotation": {"number": 64, "value": 0}, "group": "control_change"}, {"time": 3502, "annotation": {"number": 64, "value": 127}, "group": "control_change"}, {"time": 3545, "annotation": {"number": 64, "value": 0}, "group": "control_change"}, {"time": 3550, "annotation": {"number": 64, "value": 127}, "group": "control_change"}, {"time": 3594, "annotation": {"number": 64, "value": 0}, "group": "control_change"}, {"time": 3600, "annotation": {"number": 64, "value": 127}, "group": "control_change"}, {"time": 3641, "annotation": {"number": 64, "value": 0}, "group": "control_change"}, {"time": 3647, "annotation": {"number": 64, "value": 127}, "group": "control_change"}, {"time": 3689, "annotation": {"number": 64, "value": 0}, "group": "control_change"}, {"time": 3694, "annotation": {"number": 64, "value": 127}, "group": "control_change"}, {"time": 3739, "annotation": {"number": 64, "value": 0}, "group": "control_change"}, {"time": 3744, "annotation": {"number": 64, "value": 127}, "group": "control_change"}, {"time": 3787, "annotation": {"number": 64, "value": 0}, "group": "control_change"}, {"time": 3793, "annotation": {"number": 64, "value": 127}, "group": "control_change"}, {"time": 3835, "annotation": {"number": 64, "value": 0}, "group": "control_change"}, {"time": 3840, "annotation": {"number": 64, "value": 127}, "group": "control_change"}, {"time": 3881, "annotation": {"number": 64, "value": 0}, "group": "control_change"}, {"time": 3887, "annotation": {"number": 64, "value": 127}, "group": "control_change"}, {"time": 3929, "annotation": {"number": 64, "value": 0}, "group": "control_change"}, {"time": 3934, "annotation": {"number": 64, "value": 127}, "group": "control_change"}, {"time": 3978, "annotation": {"number": 64, "value": 0}, "group": "control_change"}, {"time": 3985, "annotation": {"number": 64, "value": 127}, "group": "control_change"}, {"time": 4027, "annotation": {"number": 64, "value": 0}, "group": "control_change"}, {"time": 4033, "annotation": {"number": 64, "value": 127}, "group": "control_change"}, {"time": 4074, "annotation": {"number": 64, "value": 0}, "group": "control_change"}, {"time": 4080, "annotation": {"number": 64, "value": 127}, "group": "control_change"}, {"time": 4120, "annotation": {"number": 64, "value": 0}, "group": "control_change"}, {"time": 4125, "annotation": {"number": 64, "value": 127}, "group": "control_change"}, {"time": 4169, "annotation": {"number": 64, "value": 0}, "group": "control_change"}, {"time": 4175, "annotation": {"number": 64, "value": 127}, "group": "control_change"}, {"time": 4218, "annotation": {"number": 64, "value": 0}, "group": "control_change"}, {"time": 4223, "annotation": {"number": 64, "value": 127}, "group": "control_change"}, {"time": 4266, "annotation": {"number": 64, "value": 0}, "group": "control_change"}, {"time": 4272, "annotation": {"number": 64, "value": 127}, "group": "control_change"}, {"time": 4312, "annotation": {"number": 64, "value": 0}, "group": "control_change"}, {"time": 4317, "annotation": {"number": 64, "value": 127}, "group": "control_change"}, {"time": 4361, "annotation": {"number": 64, "value": 0}, "group": "control_change"}, {"time": 4366, "annotation": {"number": 64, "value": 127}, "group": "control_change"}, {"time": 4457, "annotation": {"number": 64, "value": 0}, "group": "control_change"}, {"time": 4462, "annotation": {"number": 64, "value": 127}, "group": "control_change"}, {"time": 4506, "annotation": {"number": 64, "value": 0}, "group": "control_change"}, {"time": 4511, "annotation": {"number": 64, "value": 127}, "group": "control_change"}, {"time": 4554, "annotation": {"number": 64, "value": 0}, "group": "control_change"}, {"time": 4560, "annotation": {"number": 64, "value": 127}, "group": "control_change"}, {"time": 4602, "annotation": {"number": 64, "value": 0}, "group": "control_change"}, {"time": 4608, "annotation": {"number": 64, "value": 127}, "group": "control_change"}, {"time": 4650, "annotation": {"number": 64, "value": 0}, "group": "control_change"}, {"time": 4655, "annotation": {"number": 64, "value": 127}, "group": "control_change"}, {"time": 4747, "annotation": {"number": 64, "value": 0}, "group": "control_change"}, {"time": 4752, "annotation": {"number": 64, "value": 127}, "group": "control_change"}, {"time": 4753, "annotation": {"number": 64, "value": 127}, "group": "control_change"}, {"time": 4794, "annotation": {"number": 64, "value": 0}, "group": "control_change"}, {"time": 4800, "annotation": {"number": 64, "value": 127}, "group": "control_change"}, {"time": 4819, "annotation": {"number": 64, "value": 0}, "group": "control_change"}, {"time": 4831, "annotation": {"number": 64, "value": 127}, "group": "control_change"}, {"time": 4842, "annotation": {"number": 64, "value": 0}, "group": "control_change"}, {"time": 4843, "annotation": {"number": 64, "value": 0}, "group": "control_change"}, {"time": 4848, "annotation": {"number": 64, "value": 127}, "group": "control_change"}, {"time": 4849, "annotation": {"number": 64, "value": 127}, "group": "control_change"}, {"time": 4889, "annotation": {"number": 64, "value": 0}, "group": "control_change"}, {"time": 4894, "annotation": {"number": 64, "value": 127}, "group": "control_change"}, {"time": 4938, "annotation": {"number": 64, "value": 0}, "group": "control_change"}, {"time": 4941, "annotation": {"number": 64, "value": 0}, "group": "control_change"}, {"time": 4944, "annotation": {"number": 64, "value": 127}, "group": "control_change"}, {"time": 4945, "annotation": {"number": 64, "value": 127}, "group": "control_change"}, {"time": 4985, "annotation": {"number": 64, "value": 0}, "group": "control_change"}, {"time": 4987, "annotation": {"number": 64, "value": 0}, "group": "control_change"}, {"time": 4990, "annotation": {"number": 64, "value": 127}, "group": "control_change"}, {"time": 4993, "annotation": {"number": 64, "value": 127}, "group": "control_change"}, {"time": 5035, "annotation": {"number": 64, "value": 0}, "group": "control_change"}, {"time": 5038, "annotation": {"number": 64, "value": 0}, "group": "control_change"}, {"time": 5043, "annotation": {"number": 64, "value": 127}, "group": "control_change"}, {"time": 5044, "annotation": {"number": 64, "value": 127}, "group": "control_change"}, {"time": 5083, "annotation": {"number": 64, "value": 0}, "group": "control_change"}, {"time": 5090, "annotation": {"number": 64, "value": 127}, "group": "control_change"}, {"time": 5092, "annotation": {"number": 64, "value": 127}, "group": "control_change"}, {"time": 5127, "annotation": {"number": 64, "value": 0}, "group": "control_change"}, {"time": 5133, "annotation": {"number": 64, "value": 127}, "group": "control_change"}, {"time": 5156, "annotation": {"number": 64, "value": 0}, "group": "control_change"}, {"time": 5160, "annotation": {"number": 64, "value": 127}, "group": "control_change"}, {"time": 5163, "annotation": {"number": 64, "value": 0}, "group": "control_change"}, {"time": 5178, "annotation": {"number": 64, "value": 0}, "group": "control_change"}, {"time": 5182, "annotation": {"number": 64, "value": 127}, "group": "control_change"}, {"time": 5226, "annotation": {"number": 64, "value": 0}, "group": "control_change"}, {"time": 5230, "annotation": {"number": 64, "value": 127}, "group": "control_change"}, {"time": 5250, "annotation": {"number": 64, "value": 0}, "group": "control_change"}, {"time": 5254, "annotation": {"number": 64, "value": 127}, "group": "control_change"}, {"time": 5273, "annotation": {"number": 64, "value": 0}, "group": "control_change"}, {"time": 5277, "annotation": {"number": 64, "value": 127}, "group": "control_change"}, {"time": 5320, "annotation": {"number": 64, "value": 0}, "group": "control_change"}, {"time": 5324, "annotation": {"number": 64, "value": 127}, "group": "control_change"}, {"time": 5348, "annotation": {"number": 64, "value": 0}, "group": "control_change"}, {"time": 5353, "annotation": {"number": 64, "value": 127}, "group": "control_change"}, {"time": 5369, "annotation": {"number": 64, "value": 0}, "group": "control_change"}, {"time": 5373, "annotation": {"number": 64, "value": 127}, "group": "control_change"}, {"time": 5417, "annotation": {"number": 64, "value": 0}, "group": "control_change"}, {"time": 5421, "annotation": {"number": 64, "value": 127}, "group": "control_change"}, {"time": 5466, "annotation": {"number": 64, "value": 0}, "group": "control_change"}, {"time": 5470, "annotation": {"number": 64, "value": 127}, "group": "control_change"}, {"time": 5514, "annotation": {"number": 64, "value": 0}, "group": "control_change"}, {"time": 5518, "annotation": {"number": 64, "value": 127}, "group": "control_change"}, {"time": 5541, "annotation": {"number": 64, "value": 0}, "group": "control_change"}, {"time": 5544, "annotation": {"number": 64, "value": 127}, "group": "control_change"}, {"time": 5565, "annotation": {"number": 64, "value": 0}, "group": "control_change"}, {"time": 5569, "annotation": {"number": 64, "value": 127}, "group": "control_change"}, {"time": 5589, "annotation": {"number": 64, "value": 0}, "group": "control_change"}, {"time": 5593, "annotation": {"number": 64, "value": 127}, "group": "control_change"}, {"time": 5616, "annotation": {"number": 64, "value": 0}, "group": "control_change"}, {"time": 5620, "annotation": {"number": 64, "value": 127}, "group": "control_change"}, {"time": 5724, "annotation": {"number": 64, "value": 0}, "group": "control_change"}, {"time": 5728, "annotation": {"number": 64, "value": 127}, "group": "control_change"}, {"time": 5853, "annotation": {"number": 64, "value": 0}, "group": "control_change"}]}]}