{"metadata": {"schema_version": "0.2", "title": "None", "source_filename": "199.mid", "source_format": "midi"}, "resolution": 12, "tempos": [{"time": 0, "qpm": 58.00004253336452}], "key_signatures": [{"time": 0, "root": 0, "mode": "major"}], "time_signatures": [{"time": 0, "numerator": 4, "denominator": 4}], "tracks": [{"program": 0, "is_drum": false, "name": "MELODY", "notes": [{"time": 85, "pitch": 68, "duration": 3, "velocity": 78}, {"time": 88, "pitch": 70, "duration": 3, "velocity": 73}, {"time": 91, "pitch": 68, "duration": 3, "velocity": 73}, {"time": 94, "pitch": 70, "duration": 3, "velocity": 61}, {"time": 97, "pitch": 72, "duration": 12, "velocity": 73}, {"time": 109, "pitch": 72, "duration": 12, "velocity": 57}, {"time": 121, "pitch": 75, "duration": 6, "velocity": 80}, {"time": 127, "pitch": 77, "duration": 3, "velocity": 80}, {"time": 130, "pitch": 75, "duration": 6, "velocity": 91}, {"time": 136, "pitch": 70, "duration": 9, "velocity": 91}, {"time": 145, "pitch": 72, "duration": 6, "velocity": 82}, {"time": 151, "pitch": 72, "duration": 6, "velocity": 76}, {"time": 157, "pitch": 72, "duration": 6, "velocity": 78}, {"time": 163, "pitch": 70, "duration": 3, "velocity": 64}, {"time": 166, "pitch": 72, "duration": 15, "velocity": 64}, {"time": 181, "pitch": 72, "duration": 3, "velocity": 88}, {"time": 184, "pitch": 75, "duration": 6, "velocity": 72}, {"time": 190, "pitch": 72, "duration": 3, "velocity": 63}, {"time": 193, "pitch": 77, "duration": 6, "velocity": 66}, {"time": 199, "pitch": 75, "duration": 3, "velocity": 69}, {"time": 202, "pitch": 75, "duration": 6, "velocity": 80}, {"time": 208, "pitch": 72, "duration": 9, "velocity": 75}, {"time": 217, "pitch": 77, "duration": 6, "velocity": 64}, {"time": 223, "pitch": 75, "duration": 6, "velocity": 82}, {"time": 229, "pitch": 72, "duration": 9, "velocity": 82}, {"time": 238, "pitch": 70, "duration": 3, "velocity": 73}, {"time": 241, "pitch": 72, "duration": 36, "velocity": 72}, {"time": 277, "pitch": 68, "duration": 3, "velocity": 78}, {"time": 280, "pitch": 70, "duration": 3, "velocity": 73}, {"time": 283, "pitch": 68, "duration": 3, "velocity": 73}, {"time": 286, "pitch": 70, "duration": 3, "velocity": 61}, {"time": 289, "pitch": 72, "duration": 12, "velocity": 73}, {"time": 301, "pitch": 72, "duration": 12, "velocity": 57}, {"time": 313, "pitch": 75, "duration": 6, "velocity": 80}, {"time": 319, "pitch": 77, "duration": 3, "velocity": 80}, {"time": 322, "pitch": 75, "duration": 6, "velocity": 91}, {"time": 328, "pitch": 70, "duration": 9, "velocity": 91}, {"time": 337, "pitch": 72, "duration": 6, "velocity": 82}, {"time": 343, "pitch": 72, "duration": 6, "velocity": 76}, {"time": 349, "pitch": 72, "duration": 3, "velocity": 78}, {"time": 352, "pitch": 75, "duration": 9, "velocity": 64}, {"time": 361, "pitch": 72, "duration": 6, "velocity": 80}, {"time": 367, "pitch": 70, "duration": 3, "velocity": 82}, {"time": 370, "pitch": 70, "duration": 3, "velocity": 82}, {"time": 373, "pitch": 68, "duration": 6, "velocity": 78}, {"time": 379, "pitch": 65, "duration": 3, "velocity": 75}, {"time": 382, "pitch": 67, "duration": 3, "velocity": 76}, {"time": 385, "pitch": 68, "duration": 6, "velocity": 82}, {"time": 391, "pitch": 68, "duration": 3, "velocity": 62}, {"time": 394, "pitch": 68, "duration": 6, "velocity": 70}, {"time": 400, "pitch": 72, "duration": 9, "velocity": 82}, {"time": 409, "pitch": 70, "duration": 6, "velocity": 91}, {"time": 415, "pitch": 68, "duration": 3, "velocity": 67}, {"time": 418, "pitch": 67, "duration": 12, "velocity": 91}, {"time": 430, "pitch": 68, "duration": 6, "velocity": 56}, {"time": 436, "pitch": 67, "duration": 3, "velocity": 56}, {"time": 439, "pitch": 65, "duration": 48, "velocity": 56}, {"time": 487, "pitch": 60, "duration": 3, "velocity": 52}, {"time": 490, "pitch": 58, "duration": 3, "velocity": 59}, {"time": 493, "pitch": 60, "duration": 3, "velocity": 61}, {"time": 496, "pitch": 58, "duration": 9, "velocity": 57}, {"time": 505, "pitch": 60, "duration": 6, "velocity": 57}, {"time": 511, "pitch": 63, "duration": 3, "velocity": 60}, {"time": 514, "pitch": 65, "duration": 6, "velocity": 66}, {"time": 520, "pitch": 63, "duration": 9, "velocity": 64}, {"time": 529, "pitch": 60, "duration": 6, "velocity": 66}, {"time": 535, "pitch": 60, "duration": 6, "velocity": 66}, {"time": 541, "pitch": 60, "duration": 6, "velocity": 44}, {"time": 547, "pitch": 63, "duration": 3, "velocity": 67}, {"time": 550, "pitch": 60, "duration": 15, "velocity": 61}, {"time": 565, "pitch": 60, "duration": 3, "velocity": 54}, {"time": 568, "pitch": 63, "duration": 6, "velocity": 67}, {"time": 574, "pitch": 60, "duration": 3, "velocity": 54}, {"time": 577, "pitch": 68, "duration": 6, "velocity": 63}, {"time": 583, "pitch": 67, "duration": 3, "velocity": 66}, {"time": 586, "pitch": 65, "duration": 6, "velocity": 63}, {"time": 592, "pitch": 63, "duration": 9, "velocity": 52}, {"time": 601, "pitch": 65, "duration": 6, "velocity": 64}, {"time": 607, "pitch": 63, "duration": 9, "velocity": 62}, {"time": 616, "pitch": 60, "duration": 9, "velocity": 44}, {"time": 625, "pitch": 58, "duration": 3, "velocity": 60}, {"time": 628, "pitch": 60, "duration": 51, "velocity": 60}, {"time": 679, "pitch": 60, "duration": 3, "velocity": 52}, {"time": 682, "pitch": 58, "duration": 3, "velocity": 59}, {"time": 685, "pitch": 60, "duration": 3, "velocity": 61}, {"time": 688, "pitch": 58, "duration": 9, "velocity": 57}, {"time": 697, "pitch": 60, "duration": 6, "velocity": 57}, {"time": 703, "pitch": 63, "duration": 3, "velocity": 60}, {"time": 706, "pitch": 65, "duration": 6, "velocity": 66}, {"time": 712, "pitch": 63, "duration": 9, "velocity": 64}, {"time": 721, "pitch": 60, "duration": 6, "velocity": 66}, {"time": 727, "pitch": 60, "duration": 6, "velocity": 66}, {"time": 733, "pitch": 60, "duration": 6, "velocity": 44}, {"time": 739, "pitch": 63, "duration": 3, "velocity": 67}, {"time": 742, "pitch": 60, "duration": 15, "velocity": 61}, {"time": 757, "pitch": 60, "duration": 3, "velocity": 54}, {"time": 760, "pitch": 63, "duration": 6, "velocity": 67}, {"time": 766, "pitch": 60, "duration": 3, "velocity": 54}, {"time": 769, "pitch": 68, "duration": 6, "velocity": 63}, {"time": 775, "pitch": 67, "duration": 3, "velocity": 66}, {"time": 778, "pitch": 65, "duration": 6, "velocity": 63}, {"time": 784, "pitch": 63, "duration": 9, "velocity": 52}, {"time": 793, "pitch": 68, "duration": 3, "velocity": 76}, {"time": 796, "pitch": 67, "duration": 15, "velocity": 69}, {"time": 811, "pitch": 65, "duration": 6, "velocity": 63}, {"time": 817, "pitch": 63, "duration": 3, "velocity": 60}, {"time": 820, "pitch": 67, "duration": 6, "velocity": 67}, {"time": 826, "pitch": 65, "duration": 39, "velocity": 67}, {"time": 853, "pitch": 68, "duration": 3, "velocity": 78}, {"time": 856, "pitch": 70, "duration": 3, "velocity": 73}, {"time": 859, "pitch": 68, "duration": 3, "velocity": 73}, {"time": 862, "pitch": 70, "duration": 3, "velocity": 61}, {"time": 865, "pitch": 72, "duration": 12, "velocity": 73}, {"time": 877, "pitch": 72, "duration": 12, "velocity": 57}, {"time": 889, "pitch": 75, "duration": 6, "velocity": 80}, {"time": 895, "pitch": 77, "duration": 3, "velocity": 80}, {"time": 898, "pitch": 75, "duration": 6, "velocity": 91}, {"time": 904, "pitch": 70, "duration": 9, "velocity": 91}, {"time": 913, "pitch": 72, "duration": 6, "velocity": 82}, {"time": 919, "pitch": 72, "duration": 6, "velocity": 76}, {"time": 925, "pitch": 72, "duration": 6, "velocity": 78}, {"time": 931, "pitch": 70, "duration": 3, "velocity": 64}, {"time": 934, "pitch": 72, "duration": 15, "velocity": 64}, {"time": 949, "pitch": 72, "duration": 3, "velocity": 88}, {"time": 952, "pitch": 75, "duration": 6, "velocity": 72}, {"time": 958, "pitch": 72, "duration": 3, "velocity": 63}, {"time": 961, "pitch": 77, "duration": 6, "velocity": 66}, {"time": 967, "pitch": 75, "duration": 3, "velocity": 69}, {"time": 970, "pitch": 75, "duration": 6, "velocity": 80}, {"time": 976, "pitch": 72, "duration": 9, "velocity": 75}, {"time": 985, "pitch": 77, "duration": 6, "velocity": 64}, {"time": 991, "pitch": 75, "duration": 6, "velocity": 82}, {"time": 997, "pitch": 72, "duration": 9, "velocity": 82}, {"time": 1006, "pitch": 70, "duration": 3, "velocity": 73}, {"time": 1009, "pitch": 72, "duration": 36, "velocity": 72}, {"time": 1045, "pitch": 68, "duration": 3, "velocity": 78}, {"time": 1048, "pitch": 70, "duration": 3, "velocity": 73}, {"time": 1051, "pitch": 68, "duration": 3, "velocity": 73}, {"time": 1054, "pitch": 70, "duration": 3, "velocity": 61}, {"time": 1057, "pitch": 72, "duration": 12, "velocity": 73}, {"time": 1069, "pitch": 72, "duration": 12, "velocity": 57}, {"time": 1081, "pitch": 75, "duration": 6, "velocity": 80}, {"time": 1087, "pitch": 77, "duration": 3, "velocity": 80}, {"time": 1090, "pitch": 75, "duration": 6, "velocity": 91}, {"time": 1096, "pitch": 70, "duration": 9, "velocity": 91}, {"time": 1105, "pitch": 72, "duration": 6, "velocity": 82}, {"time": 1111, "pitch": 72, "duration": 6, "velocity": 76}, {"time": 1117, "pitch": 72, "duration": 3, "velocity": 78}, {"time": 1120, "pitch": 75, "duration": 9, "velocity": 64}, {"time": 1129, "pitch": 72, "duration": 6, "velocity": 80}, {"time": 1135, "pitch": 70, "duration": 3, "velocity": 82}, {"time": 1138, "pitch": 70, "duration": 3, "velocity": 82}, {"time": 1141, "pitch": 68, "duration": 6, "velocity": 78}, {"time": 1147, "pitch": 65, "duration": 3, "velocity": 75}, {"time": 1150, "pitch": 67, "duration": 3, "velocity": 76}, {"time": 1153, "pitch": 68, "duration": 6, "velocity": 82}, {"time": 1159, "pitch": 68, "duration": 3, "velocity": 62}, {"time": 1162, "pitch": 68, "duration": 6, "velocity": 70}, {"time": 1168, "pitch": 72, "duration": 9, "velocity": 82}, {"time": 1177, "pitch": 70, "duration": 6, "velocity": 91}, {"time": 1183, "pitch": 68, "duration": 3, "velocity": 67}, {"time": 1186, "pitch": 67, "duration": 12, "velocity": 91}, {"time": 1198, "pitch": 68, "duration": 6, "velocity": 56}, {"time": 1204, "pitch": 67, "duration": 3, "velocity": 56}, {"time": 1207, "pitch": 65, "duration": 48, "velocity": 56}, {"time": 1255, "pitch": 60, "duration": 3, "velocity": 52}, {"time": 1258, "pitch": 58, "duration": 3, "velocity": 59}, {"time": 1261, "pitch": 60, "duration": 3, "velocity": 61}, {"time": 1264, "pitch": 58, "duration": 9, "velocity": 57}, {"time": 1273, "pitch": 60, "duration": 6, "velocity": 57}, {"time": 1279, "pitch": 63, "duration": 3, "velocity": 60}, {"time": 1282, "pitch": 65, "duration": 6, "velocity": 66}, {"time": 1288, "pitch": 63, "duration": 9, "velocity": 64}, {"time": 1297, "pitch": 60, "duration": 6, "velocity": 66}, {"time": 1303, "pitch": 60, "duration": 6, "velocity": 66}, {"time": 1309, "pitch": 60, "duration": 6, "velocity": 44}, {"time": 1315, "pitch": 63, "duration": 3, "velocity": 67}, {"time": 1318, "pitch": 60, "duration": 15, "velocity": 61}, {"time": 1333, "pitch": 60, "duration": 3, "velocity": 54}, {"time": 1336, "pitch": 63, "duration": 6, "velocity": 67}, {"time": 1342, "pitch": 60, "duration": 3, "velocity": 54}, {"time": 1345, "pitch": 68, "duration": 6, "velocity": 63}, {"time": 1351, "pitch": 67, "duration": 3, "velocity": 66}, {"time": 1354, "pitch": 65, "duration": 6, "velocity": 63}, {"time": 1360, "pitch": 63, "duration": 9, "velocity": 52}, {"time": 1369, "pitch": 65, "duration": 6, "velocity": 64}, {"time": 1375, "pitch": 63, "duration": 9, "velocity": 62}, {"time": 1384, "pitch": 60, "duration": 9, "velocity": 44}, {"time": 1393, "pitch": 58, "duration": 3, "velocity": 60}, {"time": 1396, "pitch": 56, "duration": 9, "velocity": 64}, {"time": 1429, "pitch": 68, "duration": 3, "velocity": 78}, {"time": 1432, "pitch": 70, "duration": 3, "velocity": 73}, {"time": 1435, "pitch": 68, "duration": 3, "velocity": 73}, {"time": 1438, "pitch": 70, "duration": 3, "velocity": 61}, {"time": 1441, "pitch": 72, "duration": 12, "velocity": 73}, {"time": 1453, "pitch": 72, "duration": 12, "velocity": 57}, {"time": 1465, "pitch": 75, "duration": 6, "velocity": 80}, {"time": 1471, "pitch": 77, "duration": 3, "velocity": 80}, {"time": 1474, "pitch": 75, "duration": 6, "velocity": 91}, {"time": 1480, "pitch": 70, "duration": 6, "velocity": 91}, {"time": 1486, "pitch": 70, "duration": 6, "velocity": 91}, {"time": 1489, "pitch": 72, "duration": 6, "velocity": 82}, {"time": 1495, "pitch": 72, "duration": 6, "velocity": 76}, {"time": 1501, "pitch": 72, "duration": 3, "velocity": 78}, {"time": 1504, "pitch": 75, "duration": 9, "velocity": 64}, {"time": 1513, "pitch": 72, "duration": 6, "velocity": 80}, {"time": 1519, "pitch": 70, "duration": 3, "velocity": 82}, {"time": 1522, "pitch": 70, "duration": 3, "velocity": 82}, {"time": 1525, "pitch": 68, "duration": 6, "velocity": 78}, {"time": 1531, "pitch": 65, "duration": 6, "velocity": 91}, {"time": 1534, "pitch": 67, "duration": 3, "velocity": 76}, {"time": 1537, "pitch": 68, "duration": 6, "velocity": 82}, {"time": 1543, "pitch": 68, "duration": 3, "velocity": 62}, {"time": 1546, "pitch": 68, "duration": 6, "velocity": 70}, {"time": 1552, "pitch": 72, "duration": 9, "velocity": 82}, {"time": 1561, "pitch": 70, "duration": 6, "velocity": 91}, {"time": 1567, "pitch": 68, "duration": 3, "velocity": 67}, {"time": 1570, "pitch": 67, "duration": 12, "velocity": 91}, {"time": 1609, "pitch": 68, "duration": 6, "velocity": 56}, {"time": 1627, "pitch": 67, "duration": 3, "velocity": 56}, {"time": 1633, "pitch": 65, "duration": 48, "velocity": 56}, {"time": 1705, "pitch": 84, "duration": 37, "velocity": 67}]}, {"program": 0, "is_drum": false, "name": "BRIDGE", "notes": [{"time": 49, "pitch": 80, "duration": 12, "velocity": 62}, {"time": 61, "pitch": 75, "duration": 6, "velocity": 61}, {"time": 73, "pitch": 75, "duration": 3, "velocity": 48}, {"time": 85, "pitch": 75, "duration": 1, "velocity": 64}, {"time": 373, "pitch": 67, "duration": 3, "velocity": 53}, {"time": 376, "pitch": 68, "duration": 3, "velocity": 73}, {"time": 379, "pitch": 70, "duration": 6, "velocity": 72}, {"time": 385, "pitch": 68, "duration": 7, "velocity": 63}, {"time": 433, "pitch": 72, "duration": 2, "velocity": 62}, {"time": 433, "pitch": 80, "duration": 3, "velocity": 72}, {"time": 436, "pitch": 72, "duration": 3, "velocity": 50}, {"time": 439, "pitch": 77, "duration": 2, "velocity": 59}, {"time": 442, "pitch": 79, "duration": 3, "velocity": 36}, {"time": 445, "pitch": 72, "duration": 2, "velocity": 64}, {"time": 448, "pitch": 72, "duration": 2, "velocity": 64}, {"time": 448, "pitch": 80, "duration": 1, "velocity": 69}, {"time": 454, "pitch": 72, "duration": 4, "velocity": 58}, {"time": 457, "pitch": 84, "duration": 3, "velocity": 64}, {"time": 1207, "pitch": 55, "duration": 3, "velocity": 46}, {"time": 1210, "pitch": 58, "duration": 3, "velocity": 46}, {"time": 1213, "pitch": 60, "duration": 3, "velocity": 46}, {"time": 1216, "pitch": 63, "duration": 3, "velocity": 46}, {"time": 1219, "pitch": 67, "duration": 3, "velocity": 46}, {"time": 1222, "pitch": 68, "duration": 3, "velocity": 46}, {"time": 1225, "pitch": 75, "duration": 3, "velocity": 46}, {"time": 1228, "pitch": 80, "duration": 8, "velocity": 46}, {"time": 1237, "pitch": 63, "duration": 6, "velocity": 53}, {"time": 1237, "pitch": 67, "duration": 5, "velocity": 44}, {"time": 1237, "pitch": 70, "duration": 5, "velocity": 44}, {"time": 1237, "pitch": 75, "duration": 6, "velocity": 47}, {"time": 1261, "pitch": 68, "duration": 3, "velocity": 46}, {"time": 1264, "pitch": 70, "duration": 3, "velocity": 46}, {"time": 1267, "pitch": 72, "duration": 3, "velocity": 46}, {"time": 1288, "pitch": 75, "duration": 3, "velocity": 46}, {"time": 1291, "pitch": 82, "duration": 3, "velocity": 46}, {"time": 1297, "pitch": 80, "duration": 3, "velocity": 46}, {"time": 1309, "pitch": 68, "duration": 3, "velocity": 46}, {"time": 1312, "pitch": 72, "duration": 3, "velocity": 46}, {"time": 1315, "pitch": 75, "duration": 3, "velocity": 46}, {"time": 1333, "pitch": 73, "duration": 3, "velocity": 46}, {"time": 1336, "pitch": 72, "duration": 3, "velocity": 46}, {"time": 1339, "pitch": 68, "duration": 3, "velocity": 46}, {"time": 1405, "pitch": 56, "duration": 3, "velocity": 46}, {"time": 1405, "pitch": 68, "duration": 3, "velocity": 46}, {"time": 1408, "pitch": 58, "duration": 3, "velocity": 46}, {"time": 1408, "pitch": 70, "duration": 3, "velocity": 46}, {"time": 1411, "pitch": 60, "duration": 3, "velocity": 46}, {"time": 1411, "pitch": 72, "duration": 3, "velocity": 46}], "annotations": [{"time": 49, "annotation": {"number": 64, "value": 127}, "group": "control_change"}, {"time": 96, "annotation": {"number": 64, "value": 0}, "group": "control_change"}, {"time": 433, "annotation": {"number": 64, "value": 127}, "group": "control_change"}, {"time": 723, "annotation": {"number": 64, "value": 0}, "group": "control_change"}, {"time": 1237, "annotation": {"number": 64, "value": 127}, "group": "control_change"}, {"time": 1249, "annotation": {"number": 64, "value": 0}, "group": "control_change"}]}, {"program": 0, "is_drum": false, "name": "PIANO", "notes": [{"time": 97, "pitch": 44, "duration": 19, "velocity": 63}, {"time": 97, "pitch": 58, "duration": 6, "velocity": 61}, {"time": 97, "pitch": 60, "duration": 6, "velocity": 66}, {"time": 97, "pitch": 63, "duration": 6, "velocity": 69}, {"time": 97, "pitch": 68, "duration": 6, "velocity": 61}, {"time": 109, "pitch": 58, "duration": 7, "velocity": 63}, {"time": 109, "pitch": 60, "duration": 6, "velocity": 66}, {"time": 109, "pitch": 63, "duration": 6, "velocity": 70}, {"time": 109, "pitch": 68, "duration": 6, "velocity": 58}, {"time": 115, "pitch": 56, "duration": 1, "velocity": 57}, {"time": 121, "pitch": 43, "duration": 19, "velocity": 66}, {"time": 121, "pitch": 55, "duration": 16, "velocity": 60}, {"time": 121, "pitch": 58, "duration": 8, "velocity": 64}, {"time": 121, "pitch": 63, "duration": 9, "velocity": 66}, {"time": 121, "pitch": 67, "duration": 9, "velocity": 64}, {"time": 133, "pitch": 58, "duration": 6, "velocity": 69}, {"time": 133, "pitch": 63, "duration": 6, "velocity": 69}, {"time": 133, "pitch": 67, "duration": 6, "velocity": 70}, {"time": 145, "pitch": 41, "duration": 21, "velocity": 61}, {"time": 145, "pitch": 53, "duration": 5, "velocity": 59}, {"time": 145, "pitch": 56, "duration": 7, "velocity": 60}, {"time": 145, "pitch": 60, "duration": 7, "velocity": 67}, {"time": 145, "pitch": 65, "duration": 7, "velocity": 61}, {"time": 154, "pitch": 53, "duration": 6, "velocity": 30}, {"time": 157, "pitch": 56, "duration": 8, "velocity": 64}, {"time": 157, "pitch": 60, "duration": 7, "velocity": 69}, {"time": 157, "pitch": 63, "duration": 6, "velocity": 61}, {"time": 157, "pitch": 65, "duration": 8, "velocity": 61}, {"time": 166, "pitch": 48, "duration": 3, "velocity": 63}, {"time": 169, "pitch": 39, "duration": 20, "velocity": 70}, {"time": 169, "pitch": 56, "duration": 9, "velocity": 69}, {"time": 169, "pitch": 60, "duration": 9, "velocity": 75}, {"time": 169, "pitch": 65, "duration": 9, "velocity": 64}, {"time": 178, "pitch": 51, "duration": 5, "velocity": 31}, {"time": 181, "pitch": 56, "duration": 6, "velocity": 75}, {"time": 181, "pitch": 60, "duration": 7, "velocity": 78}, {"time": 181, "pitch": 65, "duration": 7, "velocity": 70}, {"time": 187, "pitch": 51, "duration": 1, "velocity": 63}, {"time": 193, "pitch": 37, "duration": 19, "velocity": 62}, {"time": 193, "pitch": 49, "duration": 15, "velocity": 58}, {"time": 193, "pitch": 53, "duration": 10, "velocity": 70}, {"time": 193, "pitch": 56, "duration": 9, "velocity": 78}, {"time": 193, "pitch": 61, "duration": 10, "velocity": 78}, {"time": 205, "pitch": 53, "duration": 7, "velocity": 66}, {"time": 205, "pitch": 56, "duration": 7, "velocity": 78}, {"time": 205, "pitch": 61, "duration": 7, "velocity": 75}, {"time": 211, "pitch": 49, "duration": 2, "velocity": 60}, {"time": 217, "pitch": 39, "duration": 20, "velocity": 70}, {"time": 217, "pitch": 51, "duration": 15, "velocity": 61}, {"time": 217, "pitch": 55, "duration": 10, "velocity": 72}, {"time": 217, "pitch": 58, "duration": 10, "velocity": 76}, {"time": 217, "pitch": 63, "duration": 10, "velocity": 69}, {"time": 229, "pitch": 55, "duration": 6, "velocity": 76}, {"time": 229, "pitch": 58, "duration": 7, "velocity": 85}, {"time": 229, "pitch": 63, "duration": 7, "velocity": 76}, {"time": 235, "pitch": 51, "duration": 1, "velocity": 59}, {"time": 241, "pitch": 32, "duration": 19, "velocity": 58}, {"time": 241, "pitch": 44, "duration": 6, "velocity": 50}, {"time": 241, "pitch": 51, "duration": 8, "velocity": 66}, {"time": 241, "pitch": 56, "duration": 9, "velocity": 70}, {"time": 241, "pitch": 58, "duration": 8, "velocity": 66}, {"time": 241, "pitch": 60, "duration": 9, "velocity": 75}, {"time": 250, "pitch": 44, "duration": 7, "velocity": 39}, {"time": 253, "pitch": 51, "duration": 7, "velocity": 61}, {"time": 253, "pitch": 56, "duration": 7, "velocity": 62}, {"time": 253, "pitch": 60, "duration": 7, "velocity": 64}, {"time": 259, "pitch": 44, "duration": 3, "velocity": 44}, {"time": 265, "pitch": 37, "duration": 7, "velocity": 72}, {"time": 265, "pitch": 65, "duration": 2, "velocity": 58}, {"time": 265, "pitch": 68, "duration": 3, "velocity": 70}, {"time": 265, "pitch": 73, "duration": 4, "velocity": 76}, {"time": 268, "pitch": 49, "duration": 3, "velocity": 35}, {"time": 268, "pitch": 65, "duration": 5, "velocity": 59}, {"time": 271, "pitch": 68, "duration": 4, "velocity": 64}, {"time": 274, "pitch": 73, "duration": 2, "velocity": 70}, {"time": 277, "pitch": 39, "duration": 7, "velocity": 63}, {"time": 277, "pitch": 51, "duration": 4, "velocity": 62}, {"time": 277, "pitch": 67, "duration": 7, "velocity": 64}, {"time": 277, "pitch": 70, "duration": 5, "velocity": 72}, {"time": 277, "pitch": 75, "duration": 5, "velocity": 75}, {"time": 283, "pitch": 51, "duration": 1, "velocity": 60}, {"time": 283, "pitch": 70, "duration": 1, "velocity": 46}, {"time": 283, "pitch": 73, "duration": 2, "velocity": 66}, {"time": 289, "pitch": 44, "duration": 21, "velocity": 72}, {"time": 289, "pitch": 63, "duration": 5, "velocity": 57}, {"time": 289, "pitch": 68, "duration": 4, "velocity": 69}, {"time": 289, "pitch": 70, "duration": 4, "velocity": 59}, {"time": 289, "pitch": 72, "duration": 4, "velocity": 67}, {"time": 301, "pitch": 58, "duration": 7, "velocity": 63}, {"time": 301, "pitch": 60, "duration": 7, "velocity": 69}, {"time": 301, "pitch": 63, "duration": 7, "velocity": 69}, {"time": 301, "pitch": 68, "duration": 7, "velocity": 57}, {"time": 307, "pitch": 56, "duration": 2, "velocity": 49}, {"time": 313, "pitch": 43, "duration": 19, "velocity": 66}, {"time": 313, "pitch": 55, "duration": 6, "velocity": 60}, {"time": 313, "pitch": 58, "duration": 8, "velocity": 67}, {"time": 313, "pitch": 63, "duration": 9, "velocity": 67}, {"time": 313, "pitch": 67, "duration": 8, "velocity": 59}, {"time": 322, "pitch": 55, "duration": 5, "velocity": 48}, {"time": 325, "pitch": 58, "duration": 6, "velocity": 60}, {"time": 325, "pitch": 63, "duration": 6, "velocity": 69}, {"time": 325, "pitch": 67, "duration": 4, "velocity": 64}, {"time": 331, "pitch": 55, "duration": 1, "velocity": 49}, {"time": 337, "pitch": 41, "duration": 19, "velocity": 64}, {"time": 337, "pitch": 53, "duration": 15, "velocity": 61}, {"time": 337, "pitch": 56, "duration": 7, "velocity": 70}, {"time": 337, "pitch": 60, "duration": 8, "velocity": 75}, {"time": 337, "pitch": 65, "duration": 8, "velocity": 66}, {"time": 349, "pitch": 56, "duration": 7, "velocity": 63}, {"time": 349, "pitch": 60, "duration": 7, "velocity": 70}, {"time": 349, "pitch": 65, "duration": 7, "velocity": 56}, {"time": 355, "pitch": 53, "duration": 1, "velocity": 54}, {"time": 361, "pitch": 39, "duration": 20, "velocity": 66}, {"time": 361, "pitch": 51, "duration": 14, "velocity": 62}, {"time": 361, "pitch": 56, "duration": 8, "velocity": 69}, {"time": 361, "pitch": 60, "duration": 8, "velocity": 69}, {"time": 361, "pitch": 65, "duration": 9, "velocity": 64}, {"time": 373, "pitch": 56, "duration": 7, "velocity": 67}, {"time": 373, "pitch": 60, "duration": 7, "velocity": 72}, {"time": 373, "pitch": 65, "duration": 7, "velocity": 70}, {"time": 379, "pitch": 51, "duration": 1, "velocity": 62}, {"time": 385, "pitch": 37, "duration": 20, "velocity": 73}, {"time": 385, "pitch": 49, "duration": 6, "velocity": 69}, {"time": 385, "pitch": 56, "duration": 9, "velocity": 69}, {"time": 385, "pitch": 61, "duration": 9, "velocity": 75}, {"time": 385, "pitch": 65, "duration": 9, "velocity": 69}, {"time": 394, "pitch": 49, "duration": 7, "velocity": 40}, {"time": 397, "pitch": 56, "duration": 7, "velocity": 73}, {"time": 397, "pitch": 61, "duration": 7, "velocity": 76}, {"time": 397, "pitch": 65, "duration": 7, "velocity": 66}, {"time": 403, "pitch": 49, "duration": 2, "velocity": 53}, {"time": 409, "pitch": 39, "duration": 19, "velocity": 73}, {"time": 409, "pitch": 55, "duration": 8, "velocity": 67}, {"time": 409, "pitch": 58, "duration": 8, "velocity": 70}, {"time": 409, "pitch": 63, "duration": 10, "velocity": 70}, {"time": 418, "pitch": 51, "duration": 11, "velocity": 36}, {"time": 421, "pitch": 55, "duration": 7, "velocity": 60}, {"time": 421, "pitch": 58, "duration": 7, "velocity": 62}, {"time": 421, "pitch": 63, "duration": 7, "velocity": 60}, {"time": 433, "pitch": 41, "duration": 36, "velocity": 61}, {"time": 433, "pitch": 53, "duration": 36, "velocity": 61}, {"time": 433, "pitch": 56, "duration": 36, "velocity": 61}, {"time": 433, "pitch": 60, "duration": 36, "velocity": 67}, {"time": 433, "pitch": 65, "duration": 36, "velocity": 57}, {"time": 469, "pitch": 39, "duration": 12, "velocity": 64}, {"time": 469, "pitch": 51, "duration": 12, "velocity": 60}, {"time": 469, "pitch": 55, "duration": 12, "velocity": 67}, {"time": 469, "pitch": 58, "duration": 12, "velocity": 69}, {"time": 469, "pitch": 63, "duration": 12, "velocity": 66}, {"time": 481, "pitch": 44, "duration": 39, "velocity": 58}, {"time": 481, "pitch": 56, "duration": 27, "velocity": 54}, {"time": 481, "pitch": 63, "duration": 7, "velocity": 69}, {"time": 481, "pitch": 68, "duration": 7, "velocity": 70}, {"time": 481, "pitch": 72, "duration": 7, "velocity": 72}, {"time": 493, "pitch": 63, "duration": 8, "velocity": 56}, {"time": 493, "pitch": 68, "duration": 9, "velocity": 61}, {"time": 493, "pitch": 72, "duration": 7, "velocity": 61}, {"time": 505, "pitch": 63, "duration": 7, "velocity": 58}, {"time": 505, "pitch": 68, "duration": 7, "velocity": 58}, {"time": 505, "pitch": 72, "duration": 7, "velocity": 54}, {"time": 511, "pitch": 56, "duration": 8, "velocity": 51}, {"time": 517, "pitch": 63, "duration": 7, "velocity": 53}, {"time": 517, "pitch": 68, "duration": 7, "velocity": 52}, {"time": 517, "pitch": 72, "duration": 7, "velocity": 54}, {"time": 523, "pitch": 56, "duration": 7, "velocity": 66}, {"time": 529, "pitch": 55, "duration": 17, "velocity": 66}, {"time": 529, "pitch": 63, "duration": 8, "velocity": 64}, {"time": 529, "pitch": 67, "duration": 8, "velocity": 70}, {"time": 529, "pitch": 70, "duration": 8, "velocity": 70}, {"time": 541, "pitch": 63, "duration": 8, "velocity": 54}, {"time": 541, "pitch": 67, "duration": 8, "velocity": 51}, {"time": 541, "pitch": 70, "duration": 8, "velocity": 54}, {"time": 547, "pitch": 55, "duration": 19, "velocity": 53}, {"time": 553, "pitch": 63, "duration": 9, "velocity": 45}, {"time": 553, "pitch": 67, "duration": 9, "velocity": 44}, {"time": 553, "pitch": 70, "duration": 10, "velocity": 51}, {"time": 565, "pitch": 63, "duration": 4, "velocity": 67}, {"time": 565, "pitch": 67, "duration": 4, "velocity": 69}, {"time": 565, "pitch": 70, "duration": 4, "velocity": 72}, {"time": 568, "pitch": 55, "duration": 5, "velocity": 66}, {"time": 571, "pitch": 63, "duration": 3, "velocity": 60}, {"time": 571, "pitch": 67, "duration": 3, "velocity": 48}, {"time": 574, "pitch": 70, "duration": 3, "velocity": 62}, {"time": 577, "pitch": 49, "duration": 19, "velocity": 76}, {"time": 577, "pitch": 63, "duration": 9, "velocity": 66}, {"time": 577, "pitch": 65, "duration": 8, "velocity": 67}, {"time": 577, "pitch": 68, "duration": 9, "velocity": 72}, {"time": 589, "pitch": 63, "duration": 6, "velocity": 60}, {"time": 589, "pitch": 65, "duration": 6, "velocity": 64}, {"time": 589, "pitch": 68, "duration": 7, "velocity": 63}, {"time": 595, "pitch": 61, "duration": 1, "velocity": 33}, {"time": 601, "pitch": 51, "duration": 20, "velocity": 63}, {"time": 601, "pitch": 58, "duration": 16, "velocity": 66}, {"time": 601, "pitch": 63, "duration": 9, "velocity": 66}, {"time": 601, "pitch": 67, "duration": 9, "velocity": 70}, {"time": 601, "pitch": 70, "duration": 9, "velocity": 67}, {"time": 613, "pitch": 63, "duration": 6, "velocity": 57}, {"time": 613, "pitch": 67, "duration": 6, "velocity": 61}, {"time": 613, "pitch": 70, "duration": 6, "velocity": 60}, {"time": 619, "pitch": 58, "duration": 1, "velocity": 64}, {"time": 625, "pitch": 44, "duration": 19, "velocity": 64}, {"time": 625, "pitch": 56, "duration": 15, "velocity": 66}, {"time": 625, "pitch": 63, "duration": 9, "velocity": 67}, {"time": 625, "pitch": 68, "duration": 9, "velocity": 70}, {"time": 625, "pitch": 72, "duration": 9, "velocity": 69}, {"time": 637, "pitch": 63, "duration": 7, "velocity": 64}, {"time": 637, "pitch": 68, "duration": 7, "velocity": 70}, {"time": 637, "pitch": 72, "duration": 6, "velocity": 66}, {"time": 643, "pitch": 56, "duration": 2, "velocity": 66}, {"time": 649, "pitch": 41, "duration": 6, "velocity": 58}, {"time": 649, "pitch": 53, "duration": 6, "velocity": 54}, {"time": 649, "pitch": 65, "duration": 6, "velocity": 67}, {"time": 649, "pitch": 70, "duration": 7, "velocity": 69}, {"time": 649, "pitch": 73, "duration": 6, "velocity": 69}, {"time": 661, "pitch": 43, "duration": 8, "velocity": 72}, {"time": 661, "pitch": 55, "duration": 9, "velocity": 61}, {"time": 661, "pitch": 63, "duration": 8, "velocity": 61}, {"time": 661, "pitch": 67, "duration": 8, "velocity": 69}, {"time": 661, "pitch": 70, "duration": 8, "velocity": 64}, {"time": 661, "pitch": 75, "duration": 9, "velocity": 58}, {"time": 673, "pitch": 44, "duration": 30, "velocity": 60}, {"time": 673, "pitch": 56, "duration": 29, "velocity": 59}, {"time": 673, "pitch": 63, "duration": 8, "velocity": 58}, {"time": 673, "pitch": 68, "duration": 7, "velocity": 58}, {"time": 673, "pitch": 70, "duration": 8, "velocity": 59}, {"time": 673, "pitch": 72, "duration": 8, "velocity": 60}, {"time": 685, "pitch": 63, "duration": 8, "velocity": 52}, {"time": 685, "pitch": 68, "duration": 7, "velocity": 60}, {"time": 685, "pitch": 70, "duration": 8, "velocity": 58}, {"time": 685, "pitch": 72, "duration": 8, "velocity": 57}, {"time": 697, "pitch": 63, "duration": 5, "velocity": 53}, {"time": 697, "pitch": 68, "duration": 9, "velocity": 56}, {"time": 697, "pitch": 70, "duration": 9, "velocity": 48}, {"time": 697, "pitch": 72, "duration": 9, "velocity": 50}, {"time": 703, "pitch": 63, "duration": 3, "velocity": 51}, {"time": 706, "pitch": 65, "duration": 3, "velocity": 48}, {"time": 706, "pitch": 44, "duration": 9, "velocity": 58}, {"time": 709, "pitch": 73, "duration": 3, "velocity": 67}, {"time": 709, "pitch": 63, "duration": 4, "velocity": 56}, {"time": 712, "pitch": 72, "duration": 3, "velocity": 58}, {"time": 712, "pitch": 56, "duration": 3, "velocity": 61}, {"time": 715, "pitch": 68, "duration": 3, "velocity": 62}, {"time": 718, "pitch": 72, "duration": 3, "velocity": 53}, {"time": 721, "pitch": 43, "duration": 44, "velocity": 80}, {"time": 721, "pitch": 55, "duration": 29, "velocity": 75}, {"time": 721, "pitch": 63, "duration": 10, "velocity": 67}, {"time": 721, "pitch": 67, "duration": 10, "velocity": 70}, {"time": 721, "pitch": 70, "duration": 10, "velocity": 62}, {"time": 733, "pitch": 63, "duration": 8, "velocity": 51}, {"time": 733, "pitch": 67, "duration": 9, "velocity": 57}, {"time": 733, "pitch": 70, "duration": 9, "velocity": 58}, {"time": 733, "pitch": 75, "duration": 9, "velocity": 52}, {"time": 745, "pitch": 63, "duration": 9, "velocity": 46}, {"time": 745, "pitch": 67, "duration": 10, "velocity": 51}, {"time": 745, "pitch": 70, "duration": 10, "velocity": 50}, {"time": 745, "pitch": 75, "duration": 10, "velocity": 42}, {"time": 754, "pitch": 55, "duration": 4, "velocity": 45}, {"time": 757, "pitch": 63, "duration": 3, "velocity": 60}, {"time": 757, "pitch": 67, "duration": 4, "velocity": 63}, {"time": 757, "pitch": 70, "duration": 4, "velocity": 62}, {"time": 757, "pitch": 75, "duration": 4, "velocity": 56}, {"time": 760, "pitch": 55, "duration": 3, "velocity": 61}, {"time": 763, "pitch": 63, "duration": 3, "velocity": 55}, {"time": 763, "pitch": 67, "duration": 1, "velocity": 39}, {"time": 766, "pitch": 75, "duration": 2, "velocity": 62}, {"time": 769, "pitch": 49, "duration": 19, "velocity": 67}, {"time": 769, "pitch": 65, "duration": 8, "velocity": 63}, {"time": 769, "pitch": 68, "duration": 8, "velocity": 69}, {"time": 769, "pitch": 73, "duration": 8, "velocity": 61}, {"time": 778, "pitch": 61, "duration": 8, "velocity": 21}, {"time": 781, "pitch": 65, "duration": 6, "velocity": 62}, {"time": 781, "pitch": 68, "duration": 6, "velocity": 64}, {"time": 781, "pitch": 73, "duration": 6, "velocity": 55}, {"time": 787, "pitch": 61, "duration": 1, "velocity": 46}, {"time": 793, "pitch": 39, "duration": 19, "velocity": 61}, {"time": 793, "pitch": 51, "duration": 15, "velocity": 52}, {"time": 793, "pitch": 63, "duration": 8, "velocity": 55}, {"time": 793, "pitch": 67, "duration": 8, "velocity": 66}, {"time": 793, "pitch": 70, "duration": 8, "velocity": 56}, {"time": 805, "pitch": 63, "duration": 7, "velocity": 66}, {"time": 805, "pitch": 67, "duration": 7, "velocity": 70}, {"time": 805, "pitch": 70, "duration": 7, "velocity": 64}, {"time": 811, "pitch": 51, "duration": 2, "velocity": 56}, {"time": 817, "pitch": 41, "duration": 19, "velocity": 72}, {"time": 817, "pitch": 53, "duration": 14, "velocity": 72}, {"time": 817, "pitch": 65, "duration": 10, "velocity": 70}, {"time": 817, "pitch": 70, "duration": 10, "velocity": 70}, {"time": 817, "pitch": 72, "duration": 10, "velocity": 70}, {"time": 829, "pitch": 65, "duration": 7, "velocity": 66}, {"time": 829, "pitch": 70, "duration": 7, "velocity": 69}, {"time": 829, "pitch": 72, "duration": 7, "velocity": 69}, {"time": 835, "pitch": 53, "duration": 2, "velocity": 70}, {"time": 841, "pitch": 41, "duration": 20, "velocity": 64}, {"time": 841, "pitch": 53, "duration": 6, "velocity": 50}, {"time": 841, "pitch": 65, "duration": 8, "velocity": 67}, {"time": 841, "pitch": 69, "duration": 9, "velocity": 70}, {"time": 841, "pitch": 72, "duration": 9, "velocity": 64}, {"time": 841, "pitch": 75, "duration": 8, "velocity": 66}, {"time": 850, "pitch": 53, "duration": 8, "velocity": 36}, {"time": 853, "pitch": 65, "duration": 3, "velocity": 67}, {"time": 853, "pitch": 69, "duration": 5, "velocity": 72}, {"time": 853, "pitch": 72, "duration": 5, "velocity": 67}, {"time": 853, "pitch": 75, "duration": 3, "velocity": 70}, {"time": 859, "pitch": 53, "duration": 2, "velocity": 61}, {"time": 859, "pitch": 65, "duration": 2, "velocity": 66}, {"time": 859, "pitch": 69, "duration": 2, "velocity": 67}, {"time": 859, "pitch": 77, "duration": 3, "velocity": 72}, {"time": 865, "pitch": 44, "duration": 19, "velocity": 66}, {"time": 865, "pitch": 56, "duration": 15, "velocity": 63}, {"time": 865, "pitch": 63, "duration": 10, "velocity": 69}, {"time": 865, "pitch": 68, "duration": 10, "velocity": 70}, {"time": 865, "pitch": 72, "duration": 10, "velocity": 72}, {"time": 877, "pitch": 63, "duration": 7, "velocity": 69}, {"time": 877, "pitch": 68, "duration": 7, "velocity": 75}, {"time": 877, "pitch": 72, "duration": 7, "velocity": 73}, {"time": 883, "pitch": 56, "duration": 2, "velocity": 69}, {"time": 889, "pitch": 43, "duration": 16, "velocity": 75}, {"time": 889, "pitch": 55, "duration": 15, "velocity": 70}, {"time": 889, "pitch": 63, "duration": 9, "velocity": 67}, {"time": 889, "pitch": 67, "duration": 8, "velocity": 72}, {"time": 889, "pitch": 70, "duration": 9, "velocity": 69}, {"time": 901, "pitch": 63, "duration": 7, "velocity": 63}, {"time": 901, "pitch": 67, "duration": 7, "velocity": 72}, {"time": 901, "pitch": 70, "duration": 8, "velocity": 63}, {"time": 907, "pitch": 43, "duration": 2, "velocity": 70}, {"time": 907, "pitch": 55, "duration": 2, "velocity": 59}, {"time": 913, "pitch": 41, "duration": 16, "velocity": 67}, {"time": 913, "pitch": 53, "duration": 15, "velocity": 66}, {"time": 913, "pitch": 63, "duration": 9, "velocity": 67}, {"time": 913, "pitch": 68, "duration": 9, "velocity": 73}, {"time": 913, "pitch": 72, "duration": 9, "velocity": 73}, {"time": 925, "pitch": 63, "duration": 7, "velocity": 62}, {"time": 925, "pitch": 68, "duration": 8, "velocity": 67}, {"time": 925, "pitch": 72, "duration": 8, "velocity": 63}, {"time": 931, "pitch": 41, "duration": 2, "velocity": 58}, {"time": 931, "pitch": 53, "duration": 1, "velocity": 58}, {"time": 937, "pitch": 39, "duration": 13, "velocity": 46}, {"time": 937, "pitch": 51, "duration": 12, "velocity": 32}, {"time": 937, "pitch": 63, "duration": 8, "velocity": 72}, {"time": 937, "pitch": 68, "duration": 9, "velocity": 73}, {"time": 937, "pitch": 72, "duration": 7, "velocity": 73}, {"time": 949, "pitch": 63, "duration": 7, "velocity": 70}, {"time": 949, "pitch": 68, "duration": 6, "velocity": 75}, {"time": 949, "pitch": 72, "duration": 6, "velocity": 73}, {"time": 955, "pitch": 39, "duration": 2, "velocity": 73}, {"time": 955, "pitch": 51, "duration": 1, "velocity": 60}, {"time": 961, "pitch": 37, "duration": 19, "velocity": 70}, {"time": 961, "pitch": 49, "duration": 7, "velocity": 69}, {"time": 961, "pitch": 65, "duration": 10, "velocity": 70}, {"time": 961, "pitch": 68, "duration": 10, "velocity": 70}, {"time": 961, "pitch": 73, "duration": 10, "velocity": 72}, {"time": 970, "pitch": 49, "duration": 5, "velocity": 55}, {"time": 973, "pitch": 65, "duration": 7, "velocity": 75}, {"time": 973, "pitch": 68, "duration": 7, "velocity": 76}, {"time": 973, "pitch": 73, "duration": 7, "velocity": 75}, {"time": 979, "pitch": 49, "duration": 2, "velocity": 52}, {"time": 985, "pitch": 37, "duration": 9, "velocity": 69}, {"time": 985, "pitch": 49, "duration": 6, "velocity": 66}, {"time": 985, "pitch": 63, "duration": 9, "velocity": 61}, {"time": 985, "pitch": 67, "duration": 9, "velocity": 69}, {"time": 985, "pitch": 70, "duration": 9, "velocity": 67}, {"time": 985, "pitch": 75, "duration": 9, "velocity": 59}, {"time": 994, "pitch": 49, "duration": 2, "velocity": 58}, {"time": 997, "pitch": 39, "duration": 7, "velocity": 64}, {"time": 997, "pitch": 51, "duration": 4, "velocity": 67}, {"time": 997, "pitch": 63, "duration": 7, "velocity": 64}, {"time": 997, "pitch": 67, "duration": 6, "velocity": 72}, {"time": 997, "pitch": 70, "duration": 7, "velocity": 73}, {"time": 997, "pitch": 75, "duration": 6, "velocity": 57}, {"time": 1003, "pitch": 51, "duration": 1, "velocity": 70}, {"time": 1009, "pitch": 44, "duration": 23, "velocity": 72}, {"time": 1009, "pitch": 56, "duration": 15, "velocity": 59}, {"time": 1009, "pitch": 63, "duration": 9, "velocity": 63}, {"time": 1009, "pitch": 68, "duration": 8, "velocity": 67}, {"time": 1009, "pitch": 70, "duration": 10, "velocity": 58}, {"time": 1009, "pitch": 72, "duration": 8, "velocity": 64}, {"time": 1021, "pitch": 63, "duration": 7, "velocity": 61}, {"time": 1021, "pitch": 68, "duration": 7, "velocity": 64}, {"time": 1021, "pitch": 70, "duration": 3, "velocity": 47}, {"time": 1021, "pitch": 72, "duration": 7, "velocity": 67}, {"time": 1027, "pitch": 56, "duration": 5, "velocity": 55}, {"time": 1030, "pitch": 63, "duration": 2, "velocity": 48}, {"time": 1033, "pitch": 39, "duration": 19, "velocity": 61}, {"time": 1033, "pitch": 51, "duration": 6, "velocity": 61}, {"time": 1033, "pitch": 63, "duration": 9, "velocity": 62}, {"time": 1033, "pitch": 67, "duration": 9, "velocity": 69}, {"time": 1033, "pitch": 70, "duration": 9, "velocity": 67}, {"time": 1033, "pitch": 73, "duration": 9, "velocity": 67}, {"time": 1042, "pitch": 51, "duration": 5, "velocity": 43}, {"time": 1045, "pitch": 63, "duration": 7, "velocity": 62}, {"time": 1045, "pitch": 67, "duration": 7, "velocity": 69}, {"time": 1045, "pitch": 70, "duration": 7, "velocity": 70}, {"time": 1045, "pitch": 73, "duration": 7, "velocity": 69}, {"time": 1051, "pitch": 51, "duration": 2, "velocity": 85}, {"time": 1057, "pitch": 44, "duration": 19, "velocity": 70}, {"time": 1057, "pitch": 56, "duration": 15, "velocity": 60}, {"time": 1057, "pitch": 63, "duration": 9, "velocity": 62}, {"time": 1057, "pitch": 68, "duration": 9, "velocity": 67}, {"time": 1057, "pitch": 70, "duration": 9, "velocity": 62}, {"time": 1057, "pitch": 72, "duration": 8, "velocity": 67}, {"time": 1069, "pitch": 63, "duration": 7, "velocity": 66}, {"time": 1069, "pitch": 68, "duration": 7, "velocity": 69}, {"time": 1069, "pitch": 70, "duration": 7, "velocity": 66}, {"time": 1069, "pitch": 72, "duration": 7, "velocity": 67}, {"time": 1075, "pitch": 56, "duration": 4, "velocity": 62}, {"time": 1081, "pitch": 43, "duration": 23, "velocity": 67}, {"time": 1081, "pitch": 63, "duration": 6, "velocity": 64}, {"time": 1081, "pitch": 67, "duration": 7, "velocity": 70}, {"time": 1081, "pitch": 70, "duration": 7, "velocity": 70}, {"time": 1087, "pitch": 55, "duration": 11, "velocity": 29}, {"time": 1090, "pitch": 63, "duration": 2, "velocity": 38}, {"time": 1093, "pitch": 63, "duration": 10, "velocity": 67}, {"time": 1093, "pitch": 67, "duration": 10, "velocity": 73}, {"time": 1093, "pitch": 70, "duration": 10, "velocity": 70}, {"time": 1102, "pitch": 55, "duration": 1, "velocity": 70}, {"time": 1105, "pitch": 41, "duration": 20, "velocity": 59}, {"time": 1105, "pitch": 53, "duration": 6, "velocity": 51}, {"time": 1105, "pitch": 63, "duration": 9, "velocity": 64}, {"time": 1105, "pitch": 68, "duration": 9, "velocity": 72}, {"time": 1105, "pitch": 72, "duration": 9, "velocity": 69}, {"time": 1114, "pitch": 53, "duration": 6, "velocity": 42}, {"time": 1117, "pitch": 63, "duration": 7, "velocity": 67}, {"time": 1117, "pitch": 68, "duration": 7, "velocity": 73}, {"time": 1117, "pitch": 72, "duration": 7, "velocity": 69}, {"time": 1123, "pitch": 53, "duration": 2, "velocity": 58}, {"time": 1126, "pitch": 63, "duration": 2, "velocity": 42}, {"time": 1129, "pitch": 39, "duration": 17, "velocity": 76}, {"time": 1129, "pitch": 51, "duration": 6, "velocity": 61}, {"time": 1129, "pitch": 63, "duration": 9, "velocity": 69}, {"time": 1129, "pitch": 68, "duration": 9, "velocity": 69}, {"time": 1129, "pitch": 72, "duration": 8, "velocity": 66}, {"time": 1138, "pitch": 51, "duration": 4, "velocity": 49}, {"time": 1141, "pitch": 63, "duration": 4, "velocity": 70}, {"time": 1141, "pitch": 68, "duration": 4, "velocity": 73}, {"time": 1141, "pitch": 72, "duration": 4, "velocity": 70}, {"time": 1144, "pitch": 51, "duration": 3, "velocity": 57}, {"time": 1147, "pitch": 63, "duration": 3, "velocity": 58}, {"time": 1150, "pitch": 68, "duration": 2, "velocity": 64}, {"time": 1150, "pitch": 72, "duration": 2, "velocity": 57}, {"time": 1153, "pitch": 49, "duration": 17, "velocity": 60}, {"time": 1153, "pitch": 61, "duration": 16, "velocity": 72}, {"time": 1153, "pitch": 65, "duration": 11, "velocity": 69}, {"time": 1153, "pitch": 68, "duration": 11, "velocity": 66}, {"time": 1153, "pitch": 73, "duration": 11, "velocity": 67}, {"time": 1165, "pitch": 65, "duration": 7, "velocity": 75}, {"time": 1165, "pitch": 68, "duration": 7, "velocity": 73}, {"time": 1165, "pitch": 73, "duration": 7, "velocity": 73}, {"time": 1171, "pitch": 49, "duration": 1, "velocity": 70}, {"time": 1171, "pitch": 61, "duration": 1, "velocity": 49}, {"time": 1177, "pitch": 39, "duration": 18, "velocity": 72}, {"time": 1177, "pitch": 51, "duration": 15, "velocity": 67}, {"time": 1177, "pitch": 63, "duration": 11, "velocity": 67}, {"time": 1177, "pitch": 67, "duration": 10, "velocity": 72}, {"time": 1177, "pitch": 70, "duration": 10, "velocity": 70}, {"time": 1189, "pitch": 63, "duration": 7, "velocity": 67}, {"time": 1189, "pitch": 67, "duration": 6, "velocity": 66}, {"time": 1189, "pitch": 70, "duration": 6, "velocity": 72}, {"time": 1195, "pitch": 51, "duration": 1, "velocity": 47}, {"time": 1201, "pitch": 41, "duration": 33, "velocity": 72}, {"time": 1201, "pitch": 53, "duration": 33, "velocity": 70}, {"time": 1201, "pitch": 63, "duration": 10, "velocity": 63}, {"time": 1201, "pitch": 68, "duration": 8, "velocity": 67}, {"time": 1201, "pitch": 72, "duration": 8, "velocity": 60}, {"time": 1216, "pitch": 63, "duration": 4, "velocity": 33}, {"time": 1225, "pitch": 63, "duration": 8, "velocity": 35}, {"time": 1225, "pitch": 68, "duration": 7, "velocity": 37}, {"time": 1225, "pitch": 72, "duration": 7, "velocity": 39}, {"time": 1249, "pitch": 56, "duration": 18, "velocity": 56}, {"time": 1249, "pitch": 72, "duration": 8, "velocity": 40}, {"time": 1249, "pitch": 75, "duration": 7, "velocity": 59}, {"time": 1249, "pitch": 80, "duration": 19, "velocity": 54}, {"time": 1255, "pitch": 63, "duration": 13, "velocity": 28}, {"time": 1261, "pitch": 68, "duration": 5, "velocity": 43}, {"time": 1261, "pitch": 72, "duration": 6, "velocity": 42}, {"time": 1261, "pitch": 75, "duration": 7, "velocity": 54}, {"time": 1273, "pitch": 55, "duration": 18, "velocity": 62}, {"time": 1273, "pitch": 70, "duration": 7, "velocity": 51}, {"time": 1273, "pitch": 75, "duration": 7, "velocity": 57}, {"time": 1279, "pitch": 63, "duration": 10, "velocity": 36}, {"time": 1285, "pitch": 67, "duration": 5, "velocity": 43}, {"time": 1285, "pitch": 70, "duration": 7, "velocity": 40}, {"time": 1285, "pitch": 75, "duration": 6, "velocity": 56}, {"time": 1297, "pitch": 53, "duration": 19, "velocity": 58}, {"time": 1297, "pitch": 72, "duration": 8, "velocity": 53}, {"time": 1297, "pitch": 75, "duration": 8, "velocity": 62}, {"time": 1297, "pitch": 80, "duration": 8, "velocity": 58}, {"time": 1303, "pitch": 60, "duration": 10, "velocity": 34}, {"time": 1309, "pitch": 65, "duration": 6, "velocity": 46}, {"time": 1309, "pitch": 72, "duration": 7, "velocity": 44}, {"time": 1309, "pitch": 75, "duration": 6, "velocity": 58}, {"time": 1309, "pitch": 80, "duration": 7, "velocity": 41}, {"time": 1321, "pitch": 51, "duration": 18, "velocity": 59}, {"time": 1321, "pitch": 70, "duration": 7, "velocity": 49}, {"time": 1321, "pitch": 75, "duration": 7, "velocity": 59}, {"time": 1327, "pitch": 60, "duration": 12, "velocity": 39}, {"time": 1333, "pitch": 63, "duration": 6, "velocity": 43}, {"time": 1333, "pitch": 72, "duration": 5, "velocity": 48}, {"time": 1333, "pitch": 75, "duration": 3, "velocity": 31}, {"time": 1333, "pitch": 80, "duration": 4, "velocity": 54}, {"time": 1339, "pitch": 77, "duration": 1, "velocity": 62}, {"time": 1345, "pitch": 49, "duration": 18, "velocity": 64}, {"time": 1345, "pitch": 68, "duration": 5, "velocity": 53}, {"time": 1345, "pitch": 73, "duration": 4, "velocity": 61}, {"time": 1345, "pitch": 77, "duration": 4, "velocity": 60}, {"time": 1351, "pitch": 56, "duration": 12, "velocity": 39}, {"time": 1357, "pitch": 61, "duration": 6, "velocity": 55}, {"time": 1357, "pitch": 65, "duration": 6, "velocity": 59}, {"time": 1357, "pitch": 68, "duration": 6, "velocity": 63}, {"time": 1357, "pitch": 73, "duration": 5, "velocity": 61}, {"time": 1369, "pitch": 51, "duration": 17, "velocity": 63}, {"time": 1369, "pitch": 63, "duration": 6, "velocity": 54}, {"time": 1369, "pitch": 67, "duration": 7, "velocity": 59}, {"time": 1369, "pitch": 70, "duration": 6, "velocity": 53}, {"time": 1375, "pitch": 58, "duration": 12, "velocity": 40}, {"time": 1381, "pitch": 63, "duration": 6, "velocity": 52}, {"time": 1381, "pitch": 67, "duration": 6, "velocity": 51}, {"time": 1381, "pitch": 70, "duration": 6, "velocity": 59}, {"time": 1393, "pitch": 56, "duration": 18, "velocity": 63}, {"time": 1393, "pitch": 68, "duration": 4, "velocity": 58}, {"time": 1393, "pitch": 72, "duration": 5, "velocity": 58}, {"time": 1399, "pitch": 63, "duration": 9, "velocity": 37}, {"time": 1405, "pitch": 68, "duration": 6, "velocity": 38}, {"time": 1405, "pitch": 70, "duration": 6, "velocity": 57}, {"time": 1405, "pitch": 75, "duration": 6, "velocity": 60}, {"time": 1411, "pitch": 72, "duration": 1, "velocity": 60}, {"time": 1417, "pitch": 39, "duration": 8, "velocity": 72}, {"time": 1417, "pitch": 51, "duration": 9, "velocity": 60}, {"time": 1417, "pitch": 63, "duration": 9, "velocity": 75}, {"time": 1417, "pitch": 67, "duration": 9, "velocity": 85}, {"time": 1417, "pitch": 70, "duration": 9, "velocity": 75}, {"time": 1429, "pitch": 43, "duration": 7, "velocity": 64}, {"time": 1429, "pitch": 55, "duration": 7, "velocity": 62}, {"time": 1429, "pitch": 63, "duration": 7, "velocity": 66}, {"time": 1429, "pitch": 67, "duration": 7, "velocity": 73}, {"time": 1429, "pitch": 70, "duration": 7, "velocity": 73}, {"time": 1429, "pitch": 75, "duration": 10, "velocity": 66}, {"time": 1441, "pitch": 44, "duration": 6, "velocity": 75}, {"time": 1441, "pitch": 63, "duration": 13, "velocity": 69}, {"time": 1441, "pitch": 68, "duration": 13, "velocity": 73}, {"time": 1441, "pitch": 72, "duration": 13, "velocity": 70}, {"time": 1444, "pitch": 51, "duration": 3, "velocity": 61}, {"time": 1447, "pitch": 56, "duration": 4, "velocity": 59}, {"time": 1450, "pitch": 58, "duration": 7, "velocity": 56}, {"time": 1453, "pitch": 60, "duration": 4, "velocity": 67}, {"time": 1456, "pitch": 63, "duration": 2, "velocity": 88}, {"time": 1459, "pitch": 63, "duration": 1, "velocity": 42}, {"time": 1459, "pitch": 68, "duration": 2, "velocity": 66}, {"time": 1462, "pitch": 72, "duration": 3, "velocity": 63}, {"time": 1465, "pitch": 43, "duration": 20, "velocity": 78}, {"time": 1465, "pitch": 63, "duration": 5, "velocity": 67}, {"time": 1465, "pitch": 67, "duration": 6, "velocity": 91}, {"time": 1465, "pitch": 70, "duration": 6, "velocity": 70}, {"time": 1468, "pitch": 51, "duration": 16, "velocity": 47}, {"time": 1471, "pitch": 55, "duration": 10, "velocity": 75}, {"time": 1474, "pitch": 63, "duration": 2, "velocity": 53}, {"time": 1477, "pitch": 67, "duration": 2, "velocity": 46}, {"time": 1480, "pitch": 63, "duration": 4, "velocity": 91}, {"time": 1480, "pitch": 67, "duration": 5, "velocity": 75}, {"time": 1480, "pitch": 75, "duration": 5, "velocity": 76}, {"time": 1483, "pitch": 55, "duration": 2, "velocity": 69}, {"time": 1486, "pitch": 63, "duration": 2, "velocity": 48}, {"time": 1489, "pitch": 41, "duration": 3, "velocity": 75}, {"time": 1489, "pitch": 63, "duration": 10, "velocity": 75}, {"time": 1489, "pitch": 68, "duration": 9, "velocity": 73}, {"time": 1489, "pitch": 72, "duration": 9, "velocity": 70}, {"time": 1492, "pitch": 53, "duration": 4, "velocity": 70}, {"time": 1495, "pitch": 55, "duration": 12, "velocity": 52}, {"time": 1498, "pitch": 56, "duration": 8, "velocity": 73}, {"time": 1501, "pitch": 63, "duration": 3, "velocity": 72}, {"time": 1504, "pitch": 63, "duration": 1, "velocity": 37}, {"time": 1504, "pitch": 68, "duration": 2, "velocity": 70}, {"time": 1507, "pitch": 70, "duration": 3, "velocity": 63}, {"time": 1510, "pitch": 72, "duration": 2, "velocity": 63}, {"time": 1513, "pitch": 39, "duration": 6, "velocity": 66}, {"time": 1513, "pitch": 51, "duration": 4, "velocity": 62}, {"time": 1513, "pitch": 63, "duration": 5, "velocity": 67}, {"time": 1513, "pitch": 67, "duration": 6, "velocity": 70}, {"time": 1513, "pitch": 70, "duration": 6, "velocity": 73}, {"time": 1519, "pitch": 51, "duration": 1, "velocity": 64}, {"time": 1525, "pitch": 66, "duration": 12, "velocity": 67}, {"time": 1525, "pitch": 44, "duration": 12, "velocity": 59}, {"time": 1525, "pitch": 63, "duration": 11, "velocity": 63}, {"time": 1525, "pitch": 72, "duration": 11, "velocity": 71}, {"time": 1526, "pitch": 56, "duration": 11, "velocity": 63}, {"time": 1537, "pitch": 37, "duration": 3, "velocity": 73}, {"time": 1537, "pitch": 61, "duration": 9, "velocity": 67}, {"time": 1537, "pitch": 65, "duration": 10, "velocity": 73}, {"time": 1537, "pitch": 68, "duration": 10, "velocity": 73}, {"time": 1537, "pitch": 73, "duration": 9, "velocity": 28}, {"time": 1540, "pitch": 49, "duration": 4, "velocity": 57}, {"time": 1543, "pitch": 53, "duration": 13, "velocity": 64}, {"time": 1546, "pitch": 56, "duration": 7, "velocity": 53}, {"time": 1549, "pitch": 61, "duration": 2, "velocity": 66}, {"time": 1552, "pitch": 61, "duration": 3, "velocity": 76}, {"time": 1552, "pitch": 65, "duration": 4, "velocity": 80}, {"time": 1552, "pitch": 68, "duration": 4, "velocity": 85}, {"time": 1555, "pitch": 56, "duration": 2, "velocity": 67}, {"time": 1558, "pitch": 61, "duration": 1, "velocity": 63}, {"time": 1561, "pitch": 51, "duration": 19, "velocity": 80}, {"time": 1561, "pitch": 63, "duration": 5, "velocity": 76}, {"time": 1561, "pitch": 67, "duration": 6, "velocity": 76}, {"time": 1561, "pitch": 70, "duration": 6, "velocity": 72}, {"time": 1567, "pitch": 58, "duration": 11, "velocity": 59}, {"time": 1570, "pitch": 63, "duration": 2, "velocity": 48}, {"time": 1576, "pitch": 63, "duration": 4, "velocity": 70}, {"time": 1576, "pitch": 70, "duration": 4, "velocity": 72}, {"time": 1579, "pitch": 58, "duration": 1, "velocity": 64}, {"time": 1585, "pitch": 53, "duration": 40, "velocity": 69}, {"time": 1585, "pitch": 60, "duration": 22, "velocity": 72}, {"time": 1585, "pitch": 63, "duration": 10, "velocity": 69}, {"time": 1585, "pitch": 68, "duration": 10, "velocity": 73}, {"time": 1585, "pitch": 72, "duration": 10, "velocity": 69}, {"time": 1597, "pitch": 63, "duration": 4, "velocity": 45}, {"time": 1600, "pitch": 68, "duration": 2, "velocity": 57}, {"time": 1603, "pitch": 70, "duration": 2, "velocity": 63}, {"time": 1606, "pitch": 72, "duration": 2, "velocity": 52}, {"time": 1609, "pitch": 60, "duration": 15, "velocity": 50}, {"time": 1609, "pitch": 63, "duration": 9, "velocity": 36}, {"time": 1609, "pitch": 68, "duration": 8, "velocity": 42}, {"time": 1609, "pitch": 75, "duration": 13, "velocity": 48}, {"time": 1621, "pitch": 68, "duration": 6, "velocity": 67}, {"time": 1627, "pitch": 79, "duration": 6, "velocity": 62}, {"time": 1633, "pitch": 49, "duration": 21, "velocity": 61}, {"time": 1633, "pitch": 80, "duration": 7, "velocity": 66}, {"time": 1639, "pitch": 56, "duration": 16, "velocity": 42}, {"time": 1645, "pitch": 61, "duration": 9, "velocity": 51}, {"time": 1645, "pitch": 68, "duration": 9, "velocity": 44}, {"time": 1645, "pitch": 73, "duration": 8, "velocity": 61}, {"time": 1654, "pitch": 77, "duration": 3, "velocity": 70}, {"time": 1660, "pitch": 51, "duration": 33, "velocity": 63}, {"time": 1660, "pitch": 70, "duration": 7, "velocity": 54}, {"time": 1660, "pitch": 75, "duration": 7, "velocity": 69}, {"time": 1666, "pitch": 58, "duration": 26, "velocity": 41}, {"time": 1675, "pitch": 63, "duration": 15, "velocity": 51}, {"time": 1675, "pitch": 67, "duration": 12, "velocity": 63}, {"time": 1675, "pitch": 70, "duration": 4, "velocity": 48}, {"time": 1675, "pitch": 73, "duration": 12, "velocity": 64}, {"time": 1687, "pitch": 70, "duration": 13, "velocity": 64}, {"time": 1723, "pitch": 44, "duration": 59, "velocity": 50}, {"time": 1723, "pitch": 63, "duration": 6, "velocity": 38}, {"time": 1723, "pitch": 68, "duration": 5, "velocity": 47}, {"time": 1723, "pitch": 72, "duration": 5, "velocity": 59}, {"time": 1726, "pitch": 51, "duration": 54, "velocity": 44}, {"time": 1729, "pitch": 56, "duration": 50, "velocity": 61}, {"time": 1732, "pitch": 61, "duration": 2, "velocity": 57}, {"time": 1735, "pitch": 63, "duration": 1, "velocity": 51}, {"time": 1738, "pitch": 68, "duration": 2, "velocity": 50}, {"time": 1741, "pitch": 73, "duration": 2, "velocity": 55}, {"time": 1744, "pitch": 75, "duration": 1, "velocity": 60}, {"time": 1747, "pitch": 80, "duration": 2, "velocity": 50}, {"time": 1753, "pitch": 85, "duration": 2, "velocity": 47}, {"time": 1756, "pitch": 87, "duration": 1, "velocity": 53}, {"time": 1765, "pitch": 92, "duration": 2, "velocity": 52}, {"time": 1771, "pitch": 44, "duration": 11, "velocity": 67}, {"time": 1771, "pitch": 48, "duration": 23, "velocity": 62}, {"time": 1774, "pitch": 51, "duration": 6, "velocity": 63}, {"time": 1774, "pitch": 56, "duration": 5, "velocity": 46}], "annotations": [{"time": 96, "annotation": {"number": 64, "value": 127}, "group": "control_change"}, {"time": 122, "annotation": {"number": 64, "value": 0}, "group": "control_change"}, {"time": 125, "annotation": {"number": 64, "value": 127}, "group": "control_change"}, {"time": 146, "annotation": {"number": 64, "value": 0}, "group": "control_change"}, {"time": 149, "annotation": {"number": 64, "value": 127}, "group": "control_change"}, {"time": 169, "annotation": {"number": 64, "value": 0}, "group": "control_change"}, {"time": 171, "annotation": {"number": 64, "value": 127}, "group": "control_change"}, {"time": 193, "annotation": {"number": 64, "value": 0}, "group": "control_change"}, {"time": 194, "annotation": {"number": 64, "value": 127}, "group": "control_change"}, {"time": 218, "annotation": {"number": 64, "value": 0}, "group": "control_change"}, {"time": 220, "annotation": {"number": 64, "value": 127}, "group": "control_change"}, {"time": 241, "annotation": {"number": 64, "value": 0}, "group": "control_change"}, {"time": 244, "annotation": {"number": 64, "value": 127}, "group": "control_change"}, {"time": 264, "annotation": {"number": 64, "value": 0}, "group": "control_change"}, {"time": 265, "annotation": {"number": 64, "value": 127}, "group": "control_change"}, {"time": 277, "annotation": {"number": 64, "value": 0}, "group": "control_change"}, {"time": 279, "annotation": {"number": 64, "value": 127}, "group": "control_change"}, {"time": 289, "annotation": {"number": 64, "value": 0}, "group": "control_change"}, {"time": 291, "annotation": {"number": 64, "value": 127}, "group": "control_change"}, {"time": 314, "annotation": {"number": 64, "value": 0}, "group": "control_change"}, {"time": 317, "annotation": {"number": 64, "value": 127}, "group": "control_change"}, {"time": 338, "annotation": {"number": 64, "value": 0}, "group": "control_change"}, {"time": 341, "annotation": {"number": 64, "value": 127}, "group": "control_change"}, {"time": 361, "annotation": {"number": 64, "value": 0}, "group": "control_change"}, {"time": 363, "annotation": {"number": 64, "value": 127}, "group": "control_change"}, {"time": 385, "annotation": {"number": 64, "value": 0}, "group": "control_change"}, {"time": 387, "annotation": {"number": 64, "value": 127}, "group": "control_change"}, {"time": 409, "annotation": {"number": 64, "value": 0}, "group": "control_change"}, {"time": 409, "annotation": {"number": 64, "value": 127}, "group": "control_change"}, {"time": 433, "annotation": {"number": 64, "value": 0}, "group": "control_change"}, {"time": 433, "annotation": {"number": 64, "value": 127}, "group": "control_change"}, {"time": 470, "annotation": {"number": 64, "value": 127}, "group": "control_change"}, {"time": 477, "annotation": {"number": 64, "value": 0}, "group": "control_change"}, {"time": 484, "annotation": {"number": 64, "value": 127}, "group": "control_change"}, {"time": 530, "annotation": {"number": 64, "value": 0}, "group": "control_change"}, {"time": 532, "annotation": {"number": 64, "value": 127}, "group": "control_change"}, {"time": 578, "annotation": {"number": 64, "value": 0}, "group": "control_change"}, {"time": 580, "annotation": {"number": 64, "value": 127}, "group": "control_change"}, {"time": 601, "annotation": {"number": 64, "value": 0}, "group": "control_change"}, {"time": 604, "annotation": {"number": 64, "value": 127}, "group": "control_change"}, {"time": 625, "annotation": {"number": 64, "value": 0}, "group": "control_change"}, {"time": 626, "annotation": {"number": 64, "value": 127}, "group": "control_change"}, {"time": 650, "annotation": {"number": 64, "value": 127}, "group": "control_change"}, {"time": 662, "annotation": {"number": 64, "value": 0}, "group": "control_change"}, {"time": 664, "annotation": {"number": 64, "value": 127}, "group": "control_change"}, {"time": 673, "annotation": {"number": 64, "value": 0}, "group": "control_change"}, {"time": 676, "annotation": {"number": 64, "value": 127}, "group": "control_change"}, {"time": 721, "annotation": {"number": 64, "value": 0}, "group": "control_change"}, {"time": 724, "annotation": {"number": 64, "value": 127}, "group": "control_change"}, {"time": 726, "annotation": {"number": 64, "value": 0}, "group": "control_change"}, {"time": 727, "annotation": {"number": 64, "value": 127}, "group": "control_change"}, {"time": 770, "annotation": {"number": 64, "value": 0}, "group": "control_change"}, {"time": 773, "annotation": {"number": 64, "value": 127}, "group": "control_change"}, {"time": 793, "annotation": {"number": 64, "value": 0}, "group": "control_change"}, {"time": 794, "annotation": {"number": 64, "value": 127}, "group": "control_change"}, {"time": 818, "annotation": {"number": 64, "value": 0}, "group": "control_change"}, {"time": 820, "annotation": {"number": 64, "value": 127}, "group": "control_change"}, {"time": 841, "annotation": {"number": 64, "value": 0}, "group": "control_change"}, {"time": 842, "annotation": {"number": 64, "value": 127}, "group": "control_change"}, {"time": 865, "annotation": {"number": 64, "value": 0}, "group": "control_change"}, {"time": 866, "annotation": {"number": 64, "value": 127}, "group": "control_change"}, {"time": 889, "annotation": {"number": 64, "value": 0}, "group": "control_change"}, {"time": 892, "annotation": {"number": 64, "value": 127}, "group": "control_change"}, {"time": 913, "annotation": {"number": 64, "value": 0}, "group": "control_change"}, {"time": 916, "annotation": {"number": 64, "value": 127}, "group": "control_change"}, {"time": 938, "annotation": {"number": 64, "value": 0}, "group": "control_change"}, {"time": 939, "annotation": {"number": 64, "value": 127}, "group": "control_change"}, {"time": 961, "annotation": {"number": 64, "value": 0}, "group": "control_change"}, {"time": 963, "annotation": {"number": 64, "value": 127}, "group": "control_change"}, {"time": 985, "annotation": {"number": 64, "value": 0}, "group": "control_change"}, {"time": 987, "annotation": {"number": 64, "value": 127}, "group": "control_change"}, {"time": 1008, "annotation": {"number": 64, "value": 0}, "group": "control_change"}, {"time": 1010, "annotation": {"number": 64, "value": 127}, "group": "control_change"}, {"time": 1033, "annotation": {"number": 64, "value": 0}, "group": "control_change"}, {"time": 1033, "annotation": {"number": 64, "value": 127}, "group": "control_change"}, {"time": 1035, "annotation": {"number": 64, "value": 127}, "group": "control_change"}, {"time": 1041, "annotation": {"number": 64, "value": 0}, "group": "control_change"}, {"time": 1056, "annotation": {"number": 64, "value": 0}, "group": "control_change"}, {"time": 1059, "annotation": {"number": 64, "value": 127}, "group": "control_change"}, {"time": 1081, "annotation": {"number": 64, "value": 0}, "group": "control_change"}, {"time": 1083, "annotation": {"number": 64, "value": 127}, "group": "control_change"}, {"time": 1105, "annotation": {"number": 64, "value": 0}, "group": "control_change"}, {"time": 1108, "annotation": {"number": 64, "value": 127}, "group": "control_change"}, {"time": 1129, "annotation": {"number": 64, "value": 0}, "group": "control_change"}, {"time": 1131, "annotation": {"number": 64, "value": 127}, "group": "control_change"}, {"time": 1151, "annotation": {"number": 64, "value": 0}, "group": "control_change"}, {"time": 1153, "annotation": {"number": 64, "value": 127}, "group": "control_change"}, {"time": 1177, "annotation": {"number": 64, "value": 0}, "group": "control_change"}, {"time": 1180, "annotation": {"number": 64, "value": 127}, "group": "control_change"}, {"time": 1200, "annotation": {"number": 64, "value": 0}, "group": "control_change"}, {"time": 1202, "annotation": {"number": 64, "value": 127}, "group": "control_change"}, {"time": 1235, "annotation": {"number": 64, "value": 0}, "group": "control_change"}, {"time": 1250, "annotation": {"number": 64, "value": 127}, "group": "control_change"}, {"time": 1273, "annotation": {"number": 64, "value": 0}, "group": "control_change"}, {"time": 1276, "annotation": {"number": 64, "value": 127}, "group": "control_change"}, {"time": 1297, "annotation": {"number": 64, "value": 0}, "group": "control_change"}, {"time": 1299, "annotation": {"number": 64, "value": 127}, "group": "control_change"}, {"time": 1321, "annotation": {"number": 64, "value": 0}, "group": "control_change"}, {"time": 1324, "annotation": {"number": 64, "value": 127}, "group": "control_change"}, {"time": 1344, "annotation": {"number": 64, "value": 0}, "group": "control_change"}, {"time": 1346, "annotation": {"number": 64, "value": 127}, "group": "control_change"}, {"time": 1369, "annotation": {"number": 64, "value": 0}, "group": "control_change"}, {"time": 1371, "annotation": {"number": 64, "value": 127}, "group": "control_change"}, {"time": 1392, "annotation": {"number": 64, "value": 0}, "group": "control_change"}, {"time": 1394, "annotation": {"number": 64, "value": 127}, "group": "control_change"}, {"time": 1416, "annotation": {"number": 64, "value": 0}, "group": "control_change"}, {"time": 1418, "annotation": {"number": 64, "value": 127}, "group": "control_change"}, {"time": 1430, "annotation": {"number": 64, "value": 0}, "group": "control_change"}, {"time": 1432, "annotation": {"number": 64, "value": 127}, "group": "control_change"}, {"time": 1440, "annotation": {"number": 64, "value": 0}, "group": "control_change"}, {"time": 1443, "annotation": {"number": 64, "value": 127}, "group": "control_change"}, {"time": 1465, "annotation": {"number": 64, "value": 0}, "group": "control_change"}, {"time": 1467, "annotation": {"number": 64, "value": 127}, "group": "control_change"}, {"time": 1488, "annotation": {"number": 64, "value": 0}, "group": "control_change"}, {"time": 1490, "annotation": {"number": 64, "value": 127}, "group": "control_change"}, {"time": 1513, "annotation": {"number": 64, "value": 0}, "group": "control_change"}, {"time": 1514, "annotation": {"number": 64, "value": 127}, "group": "control_change"}, {"time": 1524, "annotation": {"number": 64, "value": 0}, "group": "control_change"}, {"time": 1526, "annotation": {"number": 64, "value": 127}, "group": "control_change"}, {"time": 1535, "annotation": {"number": 64, "value": 0}, "group": "control_change"}, {"time": 1538, "annotation": {"number": 64, "value": 127}, "group": "control_change"}, {"time": 1561, "annotation": {"number": 64, "value": 0}, "group": "control_change"}, {"time": 1563, "annotation": {"number": 64, "value": 127}, "group": "control_change"}, {"time": 1584, "annotation": {"number": 64, "value": 0}, "group": "control_change"}, {"time": 1587, "annotation": {"number": 64, "value": 127}, "group": "control_change"}, {"time": 1631, "annotation": {"number": 64, "value": 0}, "group": "control_change"}, {"time": 1633, "annotation": {"number": 64, "value": 127}, "group": "control_change"}, {"time": 1661, "annotation": {"number": 64, "value": 0}, "group": "control_change"}, {"time": 1663, "annotation": {"number": 64, "value": 127}, "group": "control_change"}, {"time": 1723, "annotation": {"number": 64, "value": 0}, "group": "control_change"}, {"time": 1725, "annotation": {"number": 64, "value": 127}, "group": "control_change"}, {"time": 1772, "annotation": {"number": 64, "value": 127}, "group": "control_change"}, {"time": 1812, "annotation": {"number": 64, "value": 0}, "group": "control_change"}]}]}