{"metadata": {"schema_version": "0.2", "title": "None", "source_filename": "200.mid", "source_format": "midi"}, "resolution": 12, "tempos": [{"time": 0, "qpm": 120.0}], "key_signatures": [{"time": 0, "root": 0, "mode": "major"}], "time_signatures": [{"time": 0, "numerator": 4, "denominator": 4}], "tracks": [{"program": 0, "is_drum": false, "name": "MELODY", "notes": [{"time": 711, "pitch": 68, "duration": 18, "velocity": 84}, {"time": 729, "pitch": 75, "duration": 22, "velocity": 94}, {"time": 759, "pitch": 73, "duration": 6, "velocity": 89}, {"time": 765, "pitch": 75, "duration": 5, "velocity": 84}, {"time": 771, "pitch": 73, "duration": 7, "velocity": 79}, {"time": 778, "pitch": 71, "duration": 21, "velocity": 89}, {"time": 814, "pitch": 71, "duration": 3, "velocity": 87}, {"time": 820, "pitch": 71, "duration": 2, "velocity": 84}, {"time": 826, "pitch": 71, "duration": 7, "velocity": 64}, {"time": 832, "pitch": 70, "duration": 12, "velocity": 68}, {"time": 844, "pitch": 68, "duration": 12, "velocity": 57}, {"time": 856, "pitch": 66, "duration": 6, "velocity": 64}, {"time": 862, "pitch": 68, "duration": 32, "velocity": 82}, {"time": 904, "pitch": 68, "duration": 19, "velocity": 90}, {"time": 922, "pitch": 80, "duration": 25, "velocity": 101}, {"time": 952, "pitch": 78, "duration": 7, "velocity": 90}, {"time": 958, "pitch": 80, "duration": 6, "velocity": 66}, {"time": 964, "pitch": 78, "duration": 5, "velocity": 72}, {"time": 970, "pitch": 75, "duration": 21, "velocity": 85}, {"time": 1006, "pitch": 73, "duration": 2, "velocity": 86}, {"time": 1012, "pitch": 73, "duration": 3, "velocity": 84}, {"time": 1018, "pitch": 73, "duration": 2, "velocity": 80}, {"time": 1024, "pitch": 73, "duration": 10, "velocity": 84}, {"time": 1036, "pitch": 71, "duration": 5, "velocity": 90}, {"time": 1042, "pitch": 68, "duration": 12, "velocity": 79}, {"time": 1054, "pitch": 70, "duration": 32, "velocity": 87}, {"time": 1096, "pitch": 68, "duration": 18, "velocity": 97}, {"time": 1114, "pitch": 75, "duration": 25, "velocity": 105}, {"time": 1144, "pitch": 73, "duration": 6, "velocity": 105}, {"time": 1150, "pitch": 75, "duration": 6, "velocity": 93}, {"time": 1156, "pitch": 73, "duration": 7, "velocity": 90}, {"time": 1162, "pitch": 71, "duration": 21, "velocity": 96}, {"time": 1198, "pitch": 71, "duration": 3, "velocity": 94}, {"time": 1204, "pitch": 71, "duration": 3, "velocity": 84}, {"time": 1210, "pitch": 71, "duration": 6, "velocity": 80}, {"time": 1216, "pitch": 70, "duration": 12, "velocity": 87}, {"time": 1228, "pitch": 68, "duration": 8, "velocity": 71}, {"time": 1234, "pitch": 66, "duration": 12, "velocity": 66}, {"time": 1246, "pitch": 68, "duration": 31, "velocity": 84}, {"time": 1288, "pitch": 68, "duration": 13, "velocity": 96}, {"time": 1300, "pitch": 80, "duration": 31, "velocity": 72}, {"time": 1336, "pitch": 78, "duration": 6, "velocity": 91}, {"time": 1342, "pitch": 80, "duration": 7, "velocity": 84}, {"time": 1348, "pitch": 78, "duration": 5, "velocity": 64}, {"time": 1354, "pitch": 75, "duration": 16, "velocity": 96}, {"time": 1390, "pitch": 80, "duration": 3, "velocity": 91}, {"time": 1396, "pitch": 80, "duration": 3, "velocity": 77}, {"time": 1402, "pitch": 80, "duration": 4, "velocity": 79}, {"time": 1408, "pitch": 82, "duration": 12, "velocity": 86}, {"time": 1420, "pitch": 80, "duration": 8, "velocity": 90}, {"time": 1426, "pitch": 78, "duration": 20, "velocity": 79}, {"time": 1446, "pitch": 80, "duration": 98, "velocity": 95}, {"time": 1576, "pitch": 80, "duration": 8, "velocity": 96}, {"time": 1585, "pitch": 78, "duration": 3, "velocity": 73}, {"time": 1588, "pitch": 75, "duration": 4, "velocity": 82}, {"time": 1594, "pitch": 75, "duration": 4, "velocity": 82}, {"time": 1600, "pitch": 80, "duration": 7, "velocity": 94}, {"time": 1609, "pitch": 78, "duration": 4, "velocity": 66}, {"time": 1612, "pitch": 80, "duration": 5, "velocity": 82}, {"time": 1618, "pitch": 83, "duration": 5, "velocity": 83}, {"time": 1624, "pitch": 78, "duration": 7, "velocity": 90}, {"time": 1633, "pitch": 75, "duration": 5, "velocity": 65}, {"time": 1636, "pitch": 78, "duration": 5, "velocity": 82}, {"time": 1642, "pitch": 80, "duration": 6, "velocity": 91}, {"time": 1648, "pitch": 78, "duration": 16, "velocity": 90}, {"time": 1672, "pitch": 73, "duration": 8, "velocity": 93}, {"time": 1681, "pitch": 71, "duration": 3, "velocity": 75}, {"time": 1684, "pitch": 68, "duration": 3, "velocity": 77}, {"time": 1690, "pitch": 68, "duration": 5, "velocity": 66}, {"time": 1696, "pitch": 73, "duration": 9, "velocity": 90}, {"time": 1705, "pitch": 71, "duration": 4, "velocity": 77}, {"time": 1708, "pitch": 73, "duration": 5, "velocity": 74}, {"time": 1714, "pitch": 75, "duration": 7, "velocity": 85}, {"time": 1720, "pitch": 71, "duration": 8, "velocity": 90}, {"time": 1729, "pitch": 68, "duration": 4, "velocity": 64}, {"time": 1732, "pitch": 71, "duration": 5, "velocity": 87}, {"time": 1738, "pitch": 68, "duration": 5, "velocity": 66}, {"time": 1744, "pitch": 66, "duration": 14, "velocity": 83}, {"time": 1768, "pitch": 80, "duration": 6, "velocity": 96}, {"time": 1774, "pitch": 78, "duration": 7, "velocity": 95}, {"time": 1780, "pitch": 75, "duration": 4, "velocity": 92}, {"time": 1786, "pitch": 75, "duration": 4, "velocity": 92}, {"time": 1792, "pitch": 80, "duration": 3, "velocity": 100}, {"time": 1798, "pitch": 78, "duration": 3, "velocity": 100}, {"time": 1800, "pitch": 80, "duration": 7, "velocity": 97}, {"time": 1810, "pitch": 80, "duration": 6, "velocity": 99}, {"time": 1816, "pitch": 83, "duration": 6, "velocity": 95}, {"time": 1822, "pitch": 80, "duration": 7, "velocity": 105}, {"time": 1828, "pitch": 78, "duration": 3, "velocity": 106}, {"time": 1834, "pitch": 78, "duration": 5, "velocity": 106}, {"time": 1840, "pitch": 83, "duration": 3, "velocity": 101}, {"time": 1846, "pitch": 80, "duration": 3, "velocity": 101}, {"time": 1852, "pitch": 83, "duration": 4, "velocity": 100}, {"time": 1858, "pitch": 83, "duration": 6, "velocity": 114}, {"time": 1870, "pitch": 83, "duration": 2, "velocity": 99}, {"time": 1876, "pitch": 83, "duration": 2, "velocity": 98}, {"time": 1882, "pitch": 83, "duration": 4, "velocity": 95}, {"time": 1888, "pitch": 82, "duration": 11, "velocity": 93}, {"time": 1900, "pitch": 80, "duration": 6, "velocity": 94}, {"time": 1906, "pitch": 78, "duration": 12, "velocity": 101}, {"time": 1918, "pitch": 80, "duration": 32, "velocity": 101}, {"time": 1960, "pitch": 80, "duration": 8, "velocity": 101}, {"time": 1969, "pitch": 78, "duration": 3, "velocity": 76}, {"time": 1972, "pitch": 75, "duration": 3, "velocity": 81}, {"time": 1978, "pitch": 75, "duration": 3, "velocity": 81}, {"time": 1984, "pitch": 80, "duration": 8, "velocity": 94}, {"time": 1993, "pitch": 78, "duration": 4, "velocity": 75}, {"time": 1996, "pitch": 80, "duration": 5, "velocity": 84}, {"time": 2002, "pitch": 83, "duration": 7, "velocity": 85}, {"time": 2008, "pitch": 78, "duration": 8, "velocity": 91}, {"time": 2017, "pitch": 75, "duration": 4, "velocity": 64}, {"time": 2020, "pitch": 78, "duration": 6, "velocity": 86}, {"time": 2026, "pitch": 80, "duration": 6, "velocity": 90}, {"time": 2032, "pitch": 78, "duration": 17, "velocity": 91}, {"time": 2056, "pitch": 73, "duration": 9, "velocity": 97}, {"time": 2065, "pitch": 71, "duration": 3, "velocity": 80}, {"time": 2068, "pitch": 68, "duration": 2, "velocity": 66}, {"time": 2074, "pitch": 68, "duration": 3, "velocity": 68}, {"time": 2080, "pitch": 73, "duration": 7, "velocity": 87}, {"time": 2089, "pitch": 71, "duration": 4, "velocity": 68}, {"time": 2092, "pitch": 73, "duration": 5, "velocity": 72}, {"time": 2098, "pitch": 75, "duration": 6, "velocity": 74}, {"time": 2104, "pitch": 71, "duration": 7, "velocity": 87}, {"time": 2113, "pitch": 68, "duration": 5, "velocity": 65}, {"time": 2116, "pitch": 71, "duration": 5, "velocity": 85}, {"time": 2122, "pitch": 68, "duration": 6, "velocity": 79}, {"time": 2128, "pitch": 66, "duration": 16, "velocity": 98}, {"time": 2152, "pitch": 80, "duration": 4, "velocity": 100}, {"time": 2158, "pitch": 78, "duration": 9, "velocity": 87}, {"time": 2170, "pitch": 75, "duration": 5, "velocity": 82}, {"time": 2176, "pitch": 80, "duration": 3, "velocity": 99}, {"time": 2182, "pitch": 78, "duration": 3, "velocity": 99}, {"time": 2188, "pitch": 80, "duration": 2, "velocity": 98}, {"time": 2194, "pitch": 80, "duration": 6, "velocity": 90}, {"time": 2200, "pitch": 83, "duration": 6, "velocity": 89}, {"time": 2206, "pitch": 80, "duration": 5, "velocity": 101}, {"time": 2212, "pitch": 78, "duration": 4, "velocity": 101}, {"time": 2218, "pitch": 78, "duration": 6, "velocity": 97}, {"time": 2224, "pitch": 83, "duration": 3, "velocity": 100}, {"time": 2230, "pitch": 80, "duration": 3, "velocity": 100}, {"time": 2236, "pitch": 83, "duration": 3, "velocity": 97}, {"time": 2242, "pitch": 83, "duration": 7, "velocity": 108}, {"time": 2254, "pitch": 83, "duration": 2, "velocity": 103}, {"time": 2260, "pitch": 83, "duration": 2, "velocity": 100}, {"time": 2266, "pitch": 83, "duration": 2, "velocity": 105}, {"time": 2272, "pitch": 82, "duration": 6, "velocity": 100}, {"time": 2284, "pitch": 80, "duration": 3, "velocity": 108}, {"time": 2290, "pitch": 78, "duration": 8, "velocity": 105}, {"time": 2302, "pitch": 80, "duration": 39, "velocity": 109}, {"time": 2728, "pitch": 68, "duration": 19, "velocity": 97}, {"time": 2746, "pitch": 75, "duration": 26, "velocity": 95}, {"time": 2776, "pitch": 73, "duration": 7, "velocity": 93}, {"time": 2782, "pitch": 75, "duration": 7, "velocity": 90}, {"time": 2788, "pitch": 73, "duration": 6, "velocity": 86}, {"time": 2794, "pitch": 71, "duration": 21, "velocity": 89}, {"time": 2830, "pitch": 71, "duration": 3, "velocity": 87}, {"time": 2836, "pitch": 71, "duration": 3, "velocity": 84}, {"time": 2842, "pitch": 71, "duration": 7, "velocity": 64}, {"time": 2848, "pitch": 70, "duration": 12, "velocity": 68}, {"time": 2860, "pitch": 68, "duration": 12, "velocity": 57}, {"time": 2872, "pitch": 66, "duration": 6, "velocity": 64}, {"time": 2878, "pitch": 68, "duration": 32, "velocity": 82}, {"time": 2920, "pitch": 68, "duration": 10, "velocity": 90}, {"time": 2932, "pitch": 80, "duration": 32, "velocity": 121}, {"time": 2968, "pitch": 78, "duration": 7, "velocity": 90}, {"time": 2974, "pitch": 80, "duration": 6, "velocity": 66}, {"time": 2980, "pitch": 78, "duration": 5, "velocity": 72}, {"time": 2986, "pitch": 75, "duration": 21, "velocity": 85}, {"time": 3022, "pitch": 73, "duration": 3, "velocity": 86}, {"time": 3028, "pitch": 73, "duration": 4, "velocity": 84}, {"time": 3034, "pitch": 73, "duration": 3, "velocity": 80}, {"time": 3040, "pitch": 73, "duration": 10, "velocity": 84}, {"time": 3052, "pitch": 71, "duration": 5, "velocity": 90}, {"time": 3058, "pitch": 68, "duration": 12, "velocity": 79}, {"time": 3070, "pitch": 70, "duration": 32, "velocity": 87}, {"time": 3112, "pitch": 68, "duration": 18, "velocity": 97}, {"time": 3130, "pitch": 75, "duration": 25, "velocity": 105}, {"time": 3160, "pitch": 73, "duration": 6, "velocity": 105}, {"time": 3166, "pitch": 75, "duration": 6, "velocity": 93}, {"time": 3172, "pitch": 73, "duration": 7, "velocity": 90}, {"time": 3178, "pitch": 71, "duration": 21, "velocity": 96}, {"time": 3214, "pitch": 71, "duration": 3, "velocity": 94}, {"time": 3220, "pitch": 71, "duration": 3, "velocity": 84}, {"time": 3226, "pitch": 71, "duration": 6, "velocity": 80}, {"time": 3232, "pitch": 70, "duration": 12, "velocity": 87}, {"time": 3244, "pitch": 68, "duration": 9, "velocity": 71}, {"time": 3250, "pitch": 66, "duration": 12, "velocity": 66}, {"time": 3262, "pitch": 68, "duration": 31, "velocity": 84}, {"time": 3304, "pitch": 68, "duration": 13, "velocity": 96}, {"time": 3316, "pitch": 80, "duration": 31, "velocity": 72}, {"time": 3352, "pitch": 78, "duration": 6, "velocity": 91}, {"time": 3358, "pitch": 80, "duration": 7, "velocity": 84}, {"time": 3364, "pitch": 78, "duration": 5, "velocity": 64}, {"time": 3370, "pitch": 75, "duration": 16, "velocity": 96}, {"time": 3406, "pitch": 80, "duration": 3, "velocity": 91}, {"time": 3412, "pitch": 80, "duration": 3, "velocity": 77}, {"time": 3418, "pitch": 80, "duration": 4, "velocity": 79}, {"time": 3424, "pitch": 82, "duration": 12, "velocity": 86}, {"time": 3436, "pitch": 80, "duration": 8, "velocity": 90}, {"time": 3445, "pitch": 78, "duration": 14, "velocity": 79}, {"time": 3459, "pitch": 80, "duration": 98, "velocity": 95}, {"time": 3592, "pitch": 80, "duration": 8, "velocity": 96}, {"time": 3601, "pitch": 78, "duration": 3, "velocity": 73}, {"time": 3604, "pitch": 75, "duration": 4, "velocity": 82}, {"time": 3610, "pitch": 75, "duration": 4, "velocity": 82}, {"time": 3616, "pitch": 80, "duration": 7, "velocity": 94}, {"time": 3625, "pitch": 78, "duration": 4, "velocity": 66}, {"time": 3628, "pitch": 80, "duration": 5, "velocity": 82}, {"time": 3634, "pitch": 83, "duration": 5, "velocity": 83}, {"time": 3640, "pitch": 78, "duration": 7, "velocity": 90}, {"time": 3649, "pitch": 75, "duration": 5, "velocity": 65}, {"time": 3652, "pitch": 78, "duration": 5, "velocity": 82}, {"time": 3658, "pitch": 80, "duration": 6, "velocity": 91}, {"time": 3664, "pitch": 78, "duration": 16, "velocity": 90}, {"time": 3688, "pitch": 73, "duration": 8, "velocity": 93}, {"time": 3697, "pitch": 71, "duration": 3, "velocity": 75}, {"time": 3700, "pitch": 68, "duration": 3, "velocity": 77}, {"time": 3706, "pitch": 68, "duration": 5, "velocity": 66}, {"time": 3712, "pitch": 73, "duration": 9, "velocity": 90}, {"time": 3721, "pitch": 71, "duration": 4, "velocity": 77}, {"time": 3724, "pitch": 73, "duration": 5, "velocity": 74}, {"time": 3730, "pitch": 75, "duration": 7, "velocity": 85}, {"time": 3736, "pitch": 71, "duration": 8, "velocity": 90}, {"time": 3745, "pitch": 68, "duration": 4, "velocity": 64}, {"time": 3748, "pitch": 71, "duration": 5, "velocity": 87}, {"time": 3754, "pitch": 68, "duration": 6, "velocity": 66}, {"time": 3760, "pitch": 66, "duration": 14, "velocity": 83}, {"time": 3784, "pitch": 80, "duration": 6, "velocity": 96}, {"time": 3790, "pitch": 78, "duration": 7, "velocity": 95}, {"time": 3796, "pitch": 75, "duration": 4, "velocity": 92}, {"time": 3802, "pitch": 75, "duration": 4, "velocity": 92}, {"time": 3808, "pitch": 80, "duration": 4, "velocity": 100}, {"time": 3814, "pitch": 78, "duration": 4, "velocity": 100}, {"time": 3820, "pitch": 80, "duration": 4, "velocity": 97}, {"time": 3826, "pitch": 80, "duration": 6, "velocity": 99}, {"time": 3832, "pitch": 83, "duration": 6, "velocity": 95}, {"time": 3838, "pitch": 80, "duration": 4, "velocity": 105}, {"time": 3844, "pitch": 78, "duration": 5, "velocity": 105}, {"time": 3850, "pitch": 78, "duration": 5, "velocity": 106}, {"time": 3856, "pitch": 83, "duration": 3, "velocity": 101}, {"time": 3862, "pitch": 80, "duration": 3, "velocity": 101}, {"time": 3868, "pitch": 83, "duration": 5, "velocity": 100}, {"time": 3874, "pitch": 83, "duration": 6, "velocity": 114}, {"time": 3886, "pitch": 83, "duration": 2, "velocity": 99}, {"time": 3892, "pitch": 83, "duration": 2, "velocity": 98}, {"time": 3898, "pitch": 83, "duration": 4, "velocity": 95}, {"time": 3904, "pitch": 82, "duration": 11, "velocity": 93}, {"time": 3916, "pitch": 80, "duration": 6, "velocity": 94}, {"time": 3922, "pitch": 78, "duration": 12, "velocity": 101}, {"time": 3934, "pitch": 80, "duration": 32, "velocity": 101}, {"time": 3976, "pitch": 80, "duration": 8, "velocity": 101}, {"time": 3985, "pitch": 78, "duration": 3, "velocity": 76}, {"time": 3988, "pitch": 75, "duration": 3, "velocity": 57}, {"time": 3994, "pitch": 75, "duration": 3, "velocity": 81}, {"time": 4000, "pitch": 80, "duration": 8, "velocity": 94}, {"time": 4009, "pitch": 78, "duration": 4, "velocity": 75}, {"time": 4012, "pitch": 80, "duration": 5, "velocity": 84}, {"time": 4018, "pitch": 83, "duration": 7, "velocity": 85}, {"time": 4024, "pitch": 78, "duration": 8, "velocity": 91}, {"time": 4033, "pitch": 75, "duration": 4, "velocity": 64}, {"time": 4036, "pitch": 78, "duration": 6, "velocity": 86}, {"time": 4042, "pitch": 80, "duration": 6, "velocity": 90}, {"time": 4048, "pitch": 78, "duration": 17, "velocity": 91}, {"time": 4072, "pitch": 73, "duration": 9, "velocity": 97}, {"time": 4081, "pitch": 71, "duration": 3, "velocity": 80}, {"time": 4084, "pitch": 68, "duration": 2, "velocity": 66}, {"time": 4090, "pitch": 68, "duration": 3, "velocity": 68}, {"time": 4096, "pitch": 73, "duration": 7, "velocity": 87}, {"time": 4105, "pitch": 71, "duration": 4, "velocity": 68}, {"time": 4108, "pitch": 73, "duration": 5, "velocity": 72}, {"time": 4114, "pitch": 75, "duration": 6, "velocity": 74}, {"time": 4120, "pitch": 71, "duration": 8, "velocity": 87}, {"time": 4129, "pitch": 68, "duration": 2, "velocity": 65}, {"time": 4132, "pitch": 71, "duration": 6, "velocity": 85}, {"time": 4138, "pitch": 68, "duration": 5, "velocity": 79}, {"time": 4144, "pitch": 66, "duration": 17, "velocity": 98}, {"time": 4168, "pitch": 80, "duration": 6, "velocity": 100}, {"time": 4174, "pitch": 78, "duration": 6, "velocity": 87}, {"time": 4180, "pitch": 75, "duration": 5, "velocity": 82}, {"time": 4186, "pitch": 75, "duration": 5, "velocity": 82}, {"time": 4192, "pitch": 80, "duration": 3, "velocity": 99}, {"time": 4198, "pitch": 78, "duration": 3, "velocity": 99}, {"time": 4204, "pitch": 80, "duration": 5, "velocity": 98}, {"time": 4210, "pitch": 80, "duration": 6, "velocity": 90}, {"time": 4216, "pitch": 83, "duration": 6, "velocity": 89}, {"time": 4222, "pitch": 80, "duration": 6, "velocity": 101}, {"time": 4228, "pitch": 78, "duration": 3, "velocity": 101}, {"time": 4234, "pitch": 78, "duration": 6, "velocity": 97}, {"time": 4240, "pitch": 83, "duration": 3, "velocity": 100}, {"time": 4246, "pitch": 80, "duration": 3, "velocity": 100}, {"time": 4252, "pitch": 83, "duration": 2, "velocity": 97}, {"time": 4258, "pitch": 83, "duration": 7, "velocity": 108}, {"time": 4270, "pitch": 83, "duration": 2, "velocity": 103}, {"time": 4276, "pitch": 83, "duration": 2, "velocity": 100}, {"time": 4282, "pitch": 83, "duration": 2, "velocity": 105}, {"time": 4288, "pitch": 82, "duration": 6, "velocity": 100}, {"time": 4300, "pitch": 80, "duration": 3, "velocity": 108}, {"time": 4306, "pitch": 78, "duration": 8, "velocity": 105}, {"time": 4318, "pitch": 80, "duration": 39, "velocity": 109}, {"time": 4360, "pitch": 80, "duration": 8, "velocity": 101}, {"time": 4369, "pitch": 78, "duration": 3, "velocity": 76}, {"time": 4372, "pitch": 75, "duration": 3, "velocity": 85}, {"time": 4378, "pitch": 75, "duration": 3, "velocity": 81}, {"time": 4384, "pitch": 80, "duration": 8, "velocity": 94}, {"time": 4393, "pitch": 78, "duration": 4, "velocity": 75}, {"time": 4396, "pitch": 80, "duration": 5, "velocity": 84}, {"time": 4402, "pitch": 83, "duration": 7, "velocity": 85}, {"time": 4408, "pitch": 78, "duration": 8, "velocity": 91}, {"time": 4417, "pitch": 75, "duration": 4, "velocity": 64}, {"time": 4420, "pitch": 78, "duration": 6, "velocity": 86}, {"time": 4426, "pitch": 80, "duration": 5, "velocity": 90}, {"time": 4432, "pitch": 80, "duration": 5, "velocity": 91}, {"time": 4438, "pitch": 78, "duration": 12, "velocity": 91}, {"time": 4456, "pitch": 73, "duration": 9, "velocity": 97}, {"time": 4465, "pitch": 71, "duration": 3, "velocity": 80}, {"time": 4468, "pitch": 68, "duration": 2, "velocity": 66}, {"time": 4474, "pitch": 68, "duration": 3, "velocity": 68}, {"time": 4480, "pitch": 73, "duration": 7, "velocity": 87}, {"time": 4489, "pitch": 71, "duration": 4, "velocity": 68}, {"time": 4492, "pitch": 73, "duration": 5, "velocity": 72}, {"time": 4498, "pitch": 75, "duration": 6, "velocity": 74}, {"time": 4504, "pitch": 71, "duration": 7, "velocity": 87}, {"time": 4513, "pitch": 68, "duration": 5, "velocity": 65}, {"time": 4516, "pitch": 71, "duration": 5, "velocity": 85}, {"time": 4522, "pitch": 68, "duration": 6, "velocity": 79}, {"time": 4528, "pitch": 66, "duration": 16, "velocity": 98}, {"time": 4552, "pitch": 80, "duration": 4, "velocity": 100}, {"time": 4558, "pitch": 78, "duration": 9, "velocity": 87}, {"time": 4564, "pitch": 75, "duration": 5, "velocity": 82}, {"time": 4570, "pitch": 75, "duration": 5, "velocity": 82}, {"time": 4576, "pitch": 80, "duration": 3, "velocity": 99}, {"time": 4582, "pitch": 78, "duration": 4, "velocity": 99}, {"time": 4588, "pitch": 80, "duration": 4, "velocity": 98}, {"time": 4594, "pitch": 80, "duration": 6, "velocity": 90}, {"time": 4600, "pitch": 83, "duration": 6, "velocity": 89}, {"time": 4606, "pitch": 80, "duration": 4, "velocity": 101}, {"time": 4612, "pitch": 78, "duration": 4, "velocity": 101}, {"time": 4618, "pitch": 78, "duration": 6, "velocity": 97}, {"time": 4624, "pitch": 83, "duration": 3, "velocity": 100}, {"time": 4630, "pitch": 80, "duration": 3, "velocity": 100}, {"time": 4636, "pitch": 83, "duration": 2, "velocity": 97}, {"time": 4642, "pitch": 83, "duration": 7, "velocity": 108}, {"time": 4654, "pitch": 83, "duration": 2, "velocity": 103}, {"time": 4660, "pitch": 83, "duration": 2, "velocity": 100}, {"time": 4666, "pitch": 83, "duration": 2, "velocity": 105}, {"time": 4672, "pitch": 82, "duration": 6, "velocity": 100}, {"time": 4684, "pitch": 80, "duration": 3, "velocity": 108}, {"time": 4690, "pitch": 78, "duration": 8, "velocity": 105}, {"time": 4702, "pitch": 80, "duration": 39, "velocity": 109}, {"time": 4750, "pitch": 83, "duration": 3, "velocity": 84}, {"time": 4756, "pitch": 83, "duration": 3, "velocity": 89}, {"time": 4762, "pitch": 83, "duration": 7, "velocity": 83}, {"time": 4768, "pitch": 85, "duration": 13, "velocity": 93}, {"time": 4780, "pitch": 82, "duration": 11, "velocity": 93}, {"time": 4792, "pitch": 78, "duration": 11, "velocity": 93}, {"time": 4804, "pitch": 80, "duration": 92, "velocity": 76}], "annotations": [{"time": 781, "annotation": {"number": 64, "value": 127}, "group": "control_change"}, {"time": 789, "annotation": {"number": 64, "value": 0}, "group": "control_change"}, {"time": 806, "annotation": {"number": 64, "value": 127}, "group": "control_change"}, {"time": 810, "annotation": {"number": 64, "value": 0}, "group": "control_change"}, {"time": 831, "annotation": {"number": 64, "value": 127}, "group": "control_change"}, {"time": 845, "annotation": {"number": 64, "value": 0}, "group": "control_change"}, {"time": 857, "annotation": {"number": 64, "value": 127}, "group": "control_change"}, {"time": 884, "annotation": {"number": 64, "value": 0}, "group": "control_change"}, {"time": 905, "annotation": {"number": 64, "value": 127}, "group": "control_change"}, {"time": 914, "annotation": {"number": 64, "value": 0}, "group": "control_change"}, {"time": 952, "annotation": {"number": 64, "value": 127}, "group": "control_change"}, {"time": 959, "annotation": {"number": 64, "value": 0}, "group": "control_change"}, {"time": 1035, "annotation": {"number": 64, "value": 127}, "group": "control_change"}, {"time": 1040, "annotation": {"number": 64, "value": 0}, "group": "control_change"}, {"time": 1144, "annotation": {"number": 64, "value": 127}, "group": "control_change"}, {"time": 1148, "annotation": {"number": 64, "value": 0}, "group": "control_change"}, {"time": 1214, "annotation": {"number": 64, "value": 127}, "group": "control_change"}, {"time": 1222, "annotation": {"number": 64, "value": 0}, "group": "control_change"}, {"time": 1241, "annotation": {"number": 64, "value": 127}, "group": "control_change"}, {"time": 1247, "annotation": {"number": 64, "value": 0}, "group": "control_change"}, {"time": 1289, "annotation": {"number": 64, "value": 127}, "group": "control_change"}, {"time": 1289, "annotation": {"number": 64, "value": 0}, "group": "control_change"}, {"time": 1294, "annotation": {"number": 64, "value": 127}, "group": "control_change"}, {"time": 1300, "annotation": {"number": 64, "value": 0}, "group": "control_change"}, {"time": 1337, "annotation": {"number": 64, "value": 127}, "group": "control_change"}, {"time": 1341, "annotation": {"number": 64, "value": 0}, "group": "control_change"}, {"time": 1384, "annotation": {"number": 64, "value": 127}, "group": "control_change"}, {"time": 1389, "annotation": {"number": 64, "value": 0}, "group": "control_change"}, {"time": 1407, "annotation": {"number": 64, "value": 127}, "group": "control_change"}, {"time": 1419, "annotation": {"number": 64, "value": 0}, "group": "control_change"}, {"time": 1434, "annotation": {"number": 64, "value": 127}, "group": "control_change"}, {"time": 1444, "annotation": {"number": 64, "value": 0}, "group": "control_change"}, {"time": 1461, "annotation": {"number": 64, "value": 127}, "group": "control_change"}, {"time": 1475, "annotation": {"number": 64, "value": 0}, "group": "control_change"}, {"time": 2742, "annotation": {"number": 64, "value": 127}, "group": "control_change"}, {"time": 2746, "annotation": {"number": 64, "value": 0}, "group": "control_change"}, {"time": 2777, "annotation": {"number": 64, "value": 127}, "group": "control_change"}, {"time": 2778, "annotation": {"number": 64, "value": 0}, "group": "control_change"}, {"time": 2797, "annotation": {"number": 64, "value": 127}, "group": "control_change"}, {"time": 2806, "annotation": {"number": 64, "value": 0}, "group": "control_change"}, {"time": 2822, "annotation": {"number": 64, "value": 127}, "group": "control_change"}, {"time": 2827, "annotation": {"number": 64, "value": 0}, "group": "control_change"}, {"time": 2848, "annotation": {"number": 64, "value": 127}, "group": "control_change"}, {"time": 2862, "annotation": {"number": 64, "value": 0}, "group": "control_change"}, {"time": 2874, "annotation": {"number": 64, "value": 127}, "group": "control_change"}, {"time": 2900, "annotation": {"number": 64, "value": 0}, "group": "control_change"}, {"time": 2922, "annotation": {"number": 64, "value": 127}, "group": "control_change"}, {"time": 2931, "annotation": {"number": 64, "value": 0}, "group": "control_change"}, {"time": 2968, "annotation": {"number": 64, "value": 127}, "group": "control_change"}, {"time": 2976, "annotation": {"number": 64, "value": 0}, "group": "control_change"}, {"time": 3052, "annotation": {"number": 64, "value": 127}, "group": "control_change"}, {"time": 3057, "annotation": {"number": 64, "value": 0}, "group": "control_change"}, {"time": 3160, "annotation": {"number": 64, "value": 127}, "group": "control_change"}, {"time": 3164, "annotation": {"number": 64, "value": 0}, "group": "control_change"}, {"time": 3231, "annotation": {"number": 64, "value": 127}, "group": "control_change"}, {"time": 3238, "annotation": {"number": 64, "value": 0}, "group": "control_change"}, {"time": 3258, "annotation": {"number": 64, "value": 127}, "group": "control_change"}, {"time": 3263, "annotation": {"number": 64, "value": 0}, "group": "control_change"}, {"time": 3305, "annotation": {"number": 64, "value": 127}, "group": "control_change"}, {"time": 3306, "annotation": {"number": 64, "value": 0}, "group": "control_change"}, {"time": 3310, "annotation": {"number": 64, "value": 127}, "group": "control_change"}, {"time": 3317, "annotation": {"number": 64, "value": 0}, "group": "control_change"}, {"time": 3353, "annotation": {"number": 64, "value": 127}, "group": "control_change"}, {"time": 3357, "annotation": {"number": 64, "value": 0}, "group": "control_change"}, {"time": 3400, "annotation": {"number": 64, "value": 127}, "group": "control_change"}, {"time": 3406, "annotation": {"number": 64, "value": 0}, "group": "control_change"}, {"time": 3424, "annotation": {"number": 64, "value": 127}, "group": "control_change"}, {"time": 3436, "annotation": {"number": 64, "value": 0}, "group": "control_change"}, {"time": 3451, "annotation": {"number": 64, "value": 127}, "group": "control_change"}, {"time": 3461, "annotation": {"number": 64, "value": 0}, "group": "control_change"}, {"time": 3478, "annotation": {"number": 64, "value": 127}, "group": "control_change"}, {"time": 3491, "annotation": {"number": 64, "value": 0}, "group": "control_change"}, {"time": 4744, "annotation": {"number": 64, "value": 127}, "group": "control_change"}, {"time": 4763, "annotation": {"number": 64, "value": 0}, "group": "control_change"}]}, {"program": 0, "is_drum": false, "name": "BRIDGE", "notes": [{"time": 232, "pitch": 80, "duration": 20, "velocity": 106}, {"time": 250, "pitch": 78, "duration": 19, "velocity": 103}, {"time": 268, "pitch": 75, "duration": 6, "velocity": 103}, {"time": 274, "pitch": 78, "duration": 6, "velocity": 93}, {"time": 280, "pitch": 80, "duration": 18, "velocity": 103}, {"time": 298, "pitch": 78, "duration": 18, "velocity": 109}, {"time": 316, "pitch": 75, "duration": 7, "velocity": 99}, {"time": 322, "pitch": 71, "duration": 6, "velocity": 80}, {"time": 328, "pitch": 73, "duration": 16, "velocity": 106}, {"time": 364, "pitch": 71, "duration": 4, "velocity": 109}, {"time": 370, "pitch": 73, "duration": 5, "velocity": 97}, {"time": 376, "pitch": 75, "duration": 18, "velocity": 106}, {"time": 394, "pitch": 73, "duration": 5, "velocity": 99}, {"time": 400, "pitch": 71, "duration": 9, "velocity": 113}, {"time": 406, "pitch": 85, "duration": 7, "velocity": 84}, {"time": 412, "pitch": 73, "duration": 10, "velocity": 103}, {"time": 412, "pitch": 87, "duration": 7, "velocity": 84}, {"time": 418, "pitch": 90, "duration": 4, "velocity": 85}, {"time": 424, "pitch": 68, "duration": 19, "velocity": 101}, {"time": 424, "pitch": 92, "duration": 17, "velocity": 91}, {"time": 442, "pitch": 71, "duration": 16, "velocity": 99}, {"time": 442, "pitch": 90, "duration": 18, "velocity": 99}, {"time": 460, "pitch": 68, "duration": 7, "velocity": 82}, {"time": 460, "pitch": 87, "duration": 5, "velocity": 78}, {"time": 466, "pitch": 71, "duration": 6, "velocity": 103}, {"time": 466, "pitch": 90, "duration": 6, "velocity": 82}, {"time": 472, "pitch": 73, "duration": 17, "velocity": 97}, {"time": 472, "pitch": 92, "duration": 18, "velocity": 93}, {"time": 490, "pitch": 95, "duration": 12, "velocity": 95}, {"time": 502, "pitch": 71, "duration": 6, "velocity": 106}, {"time": 508, "pitch": 73, "duration": 6, "velocity": 75}, {"time": 508, "pitch": 90, "duration": 12, "velocity": 95}, {"time": 514, "pitch": 78, "duration": 6, "velocity": 91}, {"time": 520, "pitch": 75, "duration": 17, "velocity": 103}, {"time": 520, "pitch": 92, "duration": 18, "velocity": 95}, {"time": 538, "pitch": 78, "duration": 4, "velocity": 75}, {"time": 538, "pitch": 90, "duration": 6, "velocity": 95}, {"time": 544, "pitch": 73, "duration": 11, "velocity": 99}, {"time": 544, "pitch": 87, "duration": 12, "velocity": 95}, {"time": 556, "pitch": 71, "duration": 10, "velocity": 97}, {"time": 556, "pitch": 94, "duration": 12, "velocity": 95}, {"time": 568, "pitch": 68, "duration": 48, "velocity": 88}, {"time": 568, "pitch": 92, "duration": 48, "velocity": 95}, {"time": 862, "pitch": 75, "duration": 3, "velocity": 67}, {"time": 865, "pitch": 73, "duration": 3, "velocity": 67}, {"time": 868, "pitch": 71, "duration": 6, "velocity": 62}, {"time": 874, "pitch": 68, "duration": 6, "velocity": 76}, {"time": 880, "pitch": 66, "duration": 9, "velocity": 97}, {"time": 889, "pitch": 63, "duration": 2, "velocity": 66}, {"time": 892, "pitch": 66, "duration": 6, "velocity": 75}, {"time": 898, "pitch": 70, "duration": 6, "velocity": 78}, {"time": 904, "pitch": 68, "duration": 12, "velocity": 78}, {"time": 1048, "pitch": 68, "duration": 16, "velocity": 93}, {"time": 1066, "pitch": 66, "duration": 5, "velocity": 78}, {"time": 1072, "pitch": 63, "duration": 10, "velocity": 80}, {"time": 1084, "pitch": 70, "duration": 12, "velocity": 72}, {"time": 1096, "pitch": 68, "duration": 50, "velocity": 82}, {"time": 1246, "pitch": 71, "duration": 3, "velocity": 73}, {"time": 1249, "pitch": 68, "duration": 4, "velocity": 63}, {"time": 1252, "pitch": 66, "duration": 5, "velocity": 63}, {"time": 1258, "pitch": 63, "duration": 7, "velocity": 64}, {"time": 1264, "pitch": 66, "duration": 10, "velocity": 73}, {"time": 1276, "pitch": 70, "duration": 12, "velocity": 70}, {"time": 1288, "pitch": 68, "duration": 7, "velocity": 69}, {"time": 1654, "pitch": 80, "duration": 3, "velocity": 69}, {"time": 1657, "pitch": 78, "duration": 4, "velocity": 69}, {"time": 1660, "pitch": 75, "duration": 4, "velocity": 78}, {"time": 1666, "pitch": 71, "duration": 8, "velocity": 80}, {"time": 1672, "pitch": 73, "duration": 19, "velocity": 80}, {"time": 1744, "pitch": 63, "duration": 3, "velocity": 95}, {"time": 1747, "pitch": 66, "duration": 5, "velocity": 69}, {"time": 1750, "pitch": 68, "duration": 3, "velocity": 58}, {"time": 1753, "pitch": 71, "duration": 3, "velocity": 67}, {"time": 1756, "pitch": 66, "duration": 5, "velocity": 88}, {"time": 1759, "pitch": 68, "duration": 5, "velocity": 59}, {"time": 1762, "pitch": 71, "duration": 4, "velocity": 60}, {"time": 1765, "pitch": 73, "duration": 3, "velocity": 69}, {"time": 1768, "pitch": 68, "duration": 11, "velocity": 88}, {"time": 2038, "pitch": 78, "duration": 6, "velocity": 76}, {"time": 2044, "pitch": 80, "duration": 7, "velocity": 66}, {"time": 2050, "pitch": 75, "duration": 6, "velocity": 85}, {"time": 2056, "pitch": 73, "duration": 34, "velocity": 82}, {"time": 2104, "pitch": 75, "duration": 13, "velocity": 75}, {"time": 2122, "pitch": 78, "duration": 4, "velocity": 64}, {"time": 2125, "pitch": 75, "duration": 4, "velocity": 82}, {"time": 2128, "pitch": 73, "duration": 14, "velocity": 97}, {"time": 2140, "pitch": 71, "duration": 13, "velocity": 75}, {"time": 2152, "pitch": 68, "duration": 13, "velocity": 75}, {"time": 2230, "pitch": 68, "duration": 8, "velocity": 93}, {"time": 2236, "pitch": 71, "duration": 6, "velocity": 80}, {"time": 2242, "pitch": 75, "duration": 6, "velocity": 88}, {"time": 2248, "pitch": 73, "duration": 62, "velocity": 76}, {"time": 2332, "pitch": 75, "duration": 6, "velocity": 93}, {"time": 2338, "pitch": 78, "duration": 5, "velocity": 82}, {"time": 2344, "pitch": 80, "duration": 31, "velocity": 88}, {"time": 2416, "pitch": 80, "duration": 3, "velocity": 85}, {"time": 2419, "pitch": 83, "duration": 20, "velocity": 73}, {"time": 2440, "pitch": 78, "duration": 34, "velocity": 80}, {"time": 2476, "pitch": 73, "duration": 3, "velocity": 66}, {"time": 2479, "pitch": 75, "duration": 4, "velocity": 58}, {"time": 2482, "pitch": 73, "duration": 4, "velocity": 61}, {"time": 2488, "pitch": 71, "duration": 32, "velocity": 69}, {"time": 2524, "pitch": 71, "duration": 7, "velocity": 91}, {"time": 2530, "pitch": 73, "duration": 6, "velocity": 73}, {"time": 2536, "pitch": 75, "duration": 31, "velocity": 75}, {"time": 2572, "pitch": 73, "duration": 5, "velocity": 61}, {"time": 2578, "pitch": 75, "duration": 6, "velocity": 70}, {"time": 2584, "pitch": 78, "duration": 20, "velocity": 67}, {"time": 2608, "pitch": 80, "duration": 5, "velocity": 61}, {"time": 2614, "pitch": 83, "duration": 5, "velocity": 75}, {"time": 2620, "pitch": 80, "duration": 4, "velocity": 62}, {"time": 2626, "pitch": 75, "duration": 5, "velocity": 67}, {"time": 2632, "pitch": 78, "duration": 44, "velocity": 72}, {"time": 2878, "pitch": 75, "duration": 3, "velocity": 67}, {"time": 2881, "pitch": 73, "duration": 3, "velocity": 67}, {"time": 2884, "pitch": 71, "duration": 6, "velocity": 62}, {"time": 2890, "pitch": 68, "duration": 6, "velocity": 76}, {"time": 2896, "pitch": 66, "duration": 9, "velocity": 97}, {"time": 2905, "pitch": 63, "duration": 2, "velocity": 66}, {"time": 2908, "pitch": 66, "duration": 6, "velocity": 75}, {"time": 2914, "pitch": 70, "duration": 6, "velocity": 78}, {"time": 2920, "pitch": 68, "duration": 12, "velocity": 78}, {"time": 3064, "pitch": 68, "duration": 16, "velocity": 93}, {"time": 3082, "pitch": 66, "duration": 5, "velocity": 78}, {"time": 3088, "pitch": 63, "duration": 10, "velocity": 80}, {"time": 3100, "pitch": 70, "duration": 12, "velocity": 72}, {"time": 3112, "pitch": 68, "duration": 50, "velocity": 82}, {"time": 3262, "pitch": 71, "duration": 3, "velocity": 73}, {"time": 3265, "pitch": 68, "duration": 4, "velocity": 63}, {"time": 3268, "pitch": 66, "duration": 5, "velocity": 63}, {"time": 3274, "pitch": 63, "duration": 7, "velocity": 64}, {"time": 3280, "pitch": 66, "duration": 10, "velocity": 73}, {"time": 3292, "pitch": 70, "duration": 12, "velocity": 70}, {"time": 3304, "pitch": 68, "duration": 7, "velocity": 69}, {"time": 3670, "pitch": 80, "duration": 3, "velocity": 69}, {"time": 3673, "pitch": 78, "duration": 4, "velocity": 69}, {"time": 3676, "pitch": 75, "duration": 4, "velocity": 78}, {"time": 3682, "pitch": 71, "duration": 8, "velocity": 80}, {"time": 3688, "pitch": 73, "duration": 19, "velocity": 80}, {"time": 3760, "pitch": 63, "duration": 3, "velocity": 95}, {"time": 3763, "pitch": 66, "duration": 5, "velocity": 69}, {"time": 3766, "pitch": 68, "duration": 3, "velocity": 58}, {"time": 3769, "pitch": 71, "duration": 3, "velocity": 67}, {"time": 3772, "pitch": 66, "duration": 5, "velocity": 88}, {"time": 3775, "pitch": 68, "duration": 5, "velocity": 59}, {"time": 3778, "pitch": 71, "duration": 4, "velocity": 60}, {"time": 3781, "pitch": 73, "duration": 3, "velocity": 69}, {"time": 3784, "pitch": 68, "duration": 11, "velocity": 88}, {"time": 4054, "pitch": 78, "duration": 6, "velocity": 76}, {"time": 4060, "pitch": 80, "duration": 7, "velocity": 66}, {"time": 4066, "pitch": 75, "duration": 6, "velocity": 85}, {"time": 4072, "pitch": 73, "duration": 34, "velocity": 82}, {"time": 4120, "pitch": 75, "duration": 13, "velocity": 75}, {"time": 4138, "pitch": 78, "duration": 4, "velocity": 64}, {"time": 4141, "pitch": 75, "duration": 4, "velocity": 82}, {"time": 4144, "pitch": 73, "duration": 14, "velocity": 97}, {"time": 4156, "pitch": 71, "duration": 13, "velocity": 75}, {"time": 4168, "pitch": 68, "duration": 13, "velocity": 75}, {"time": 4438, "pitch": 80, "duration": 3, "velocity": 69}, {"time": 4441, "pitch": 78, "duration": 4, "velocity": 69}, {"time": 4444, "pitch": 75, "duration": 4, "velocity": 78}, {"time": 4450, "pitch": 71, "duration": 8, "velocity": 80}, {"time": 4456, "pitch": 73, "duration": 19, "velocity": 80}, {"time": 4528, "pitch": 63, "duration": 3, "velocity": 95}, {"time": 4531, "pitch": 66, "duration": 5, "velocity": 69}, {"time": 4534, "pitch": 68, "duration": 3, "velocity": 58}, {"time": 4537, "pitch": 71, "duration": 3, "velocity": 67}, {"time": 4540, "pitch": 66, "duration": 5, "velocity": 88}, {"time": 4543, "pitch": 68, "duration": 5, "velocity": 59}, {"time": 4546, "pitch": 71, "duration": 4, "velocity": 60}, {"time": 4549, "pitch": 73, "duration": 3, "velocity": 69}, {"time": 4552, "pitch": 68, "duration": 11, "velocity": 88}, {"time": 4840, "pitch": 80, "duration": 20, "velocity": 106}, {"time": 4858, "pitch": 78, "duration": 19, "velocity": 103}, {"time": 4876, "pitch": 75, "duration": 6, "velocity": 103}, {"time": 4882, "pitch": 78, "duration": 6, "velocity": 93}, {"time": 4888, "pitch": 80, "duration": 18, "velocity": 103}, {"time": 4906, "pitch": 78, "duration": 18, "velocity": 109}, {"time": 4924, "pitch": 75, "duration": 7, "velocity": 99}, {"time": 4930, "pitch": 71, "duration": 6, "velocity": 80}, {"time": 4936, "pitch": 73, "duration": 16, "velocity": 106}, {"time": 4972, "pitch": 71, "duration": 4, "velocity": 109}, {"time": 4978, "pitch": 73, "duration": 5, "velocity": 97}, {"time": 4984, "pitch": 75, "duration": 18, "velocity": 106}, {"time": 5002, "pitch": 73, "duration": 5, "velocity": 99}, {"time": 5008, "pitch": 71, "duration": 9, "velocity": 113}, {"time": 5014, "pitch": 85, "duration": 7, "velocity": 84}, {"time": 5020, "pitch": 73, "duration": 10, "velocity": 103}, {"time": 5020, "pitch": 87, "duration": 7, "velocity": 84}, {"time": 5026, "pitch": 90, "duration": 4, "velocity": 85}, {"time": 5032, "pitch": 68, "duration": 19, "velocity": 101}, {"time": 5032, "pitch": 92, "duration": 17, "velocity": 91}, {"time": 5050, "pitch": 71, "duration": 16, "velocity": 99}, {"time": 5050, "pitch": 90, "duration": 18, "velocity": 99}, {"time": 5068, "pitch": 68, "duration": 7, "velocity": 82}, {"time": 5068, "pitch": 87, "duration": 5, "velocity": 78}, {"time": 5074, "pitch": 71, "duration": 6, "velocity": 103}, {"time": 5074, "pitch": 90, "duration": 6, "velocity": 82}, {"time": 5080, "pitch": 73, "duration": 17, "velocity": 97}, {"time": 5080, "pitch": 92, "duration": 18, "velocity": 93}, {"time": 5098, "pitch": 95, "duration": 12, "velocity": 95}, {"time": 5110, "pitch": 71, "duration": 6, "velocity": 106}, {"time": 5116, "pitch": 73, "duration": 6, "velocity": 75}, {"time": 5116, "pitch": 90, "duration": 12, "velocity": 95}, {"time": 5122, "pitch": 78, "duration": 6, "velocity": 91}, {"time": 5128, "pitch": 75, "duration": 17, "velocity": 103}, {"time": 5128, "pitch": 92, "duration": 18, "velocity": 95}, {"time": 5146, "pitch": 78, "duration": 4, "velocity": 75}, {"time": 5146, "pitch": 90, "duration": 6, "velocity": 95}, {"time": 5152, "pitch": 73, "duration": 11, "velocity": 99}, {"time": 5152, "pitch": 87, "duration": 12, "velocity": 95}, {"time": 5164, "pitch": 71, "duration": 10, "velocity": 97}, {"time": 5164, "pitch": 94, "duration": 12, "velocity": 95}, {"time": 5176, "pitch": 68, "duration": 48, "velocity": 88}, {"time": 5176, "pitch": 92, "duration": 48, "velocity": 95}]}, {"program": 0, "is_drum": false, "name": "PIANO", "notes": [{"time": 232, "pitch": 44, "duration": 23, "velocity": 45}, {"time": 232, "pitch": 51, "duration": 24, "velocity": 50}, {"time": 232, "pitch": 56, "duration": 24, "velocity": 47}, {"time": 232, "pitch": 59, "duration": 24, "velocity": 58}, {"time": 232, "pitch": 63, "duration": 25, "velocity": 59}, {"time": 232, "pitch": 68, "duration": 25, "velocity": 60}, {"time": 268, "pitch": 46, "duration": 4, "velocity": 46}, {"time": 268, "pitch": 52, "duration": 4, "velocity": 57}, {"time": 268, "pitch": 58, "duration": 4, "velocity": 51}, {"time": 268, "pitch": 61, "duration": 6, "velocity": 57}, {"time": 268, "pitch": 66, "duration": 6, "velocity": 58}, {"time": 268, "pitch": 70, "duration": 7, "velocity": 63}, {"time": 280, "pitch": 47, "duration": 34, "velocity": 45}, {"time": 280, "pitch": 54, "duration": 34, "velocity": 44}, {"time": 280, "pitch": 59, "duration": 34, "velocity": 51}, {"time": 280, "pitch": 63, "duration": 35, "velocity": 59}, {"time": 280, "pitch": 66, "duration": 34, "velocity": 61}, {"time": 280, "pitch": 71, "duration": 34, "velocity": 58}, {"time": 328, "pitch": 40, "duration": 37, "velocity": 54}, {"time": 328, "pitch": 52, "duration": 11, "velocity": 59}, {"time": 328, "pitch": 56, "duration": 12, "velocity": 63}, {"time": 328, "pitch": 59, "duration": 13, "velocity": 70}, {"time": 328, "pitch": 64, "duration": 26, "velocity": 66}, {"time": 346, "pitch": 56, "duration": 19, "velocity": 48}, {"time": 352, "pitch": 59, "duration": 13, "velocity": 47}, {"time": 358, "pitch": 64, "duration": 7, "velocity": 76}, {"time": 376, "pitch": 42, "duration": 37, "velocity": 52}, {"time": 376, "pitch": 54, "duration": 10, "velocity": 49}, {"time": 376, "pitch": 58, "duration": 17, "velocity": 64}, {"time": 376, "pitch": 61, "duration": 15, "velocity": 70}, {"time": 376, "pitch": 66, "duration": 16, "velocity": 63}, {"time": 394, "pitch": 54, "duration": 20, "velocity": 44}, {"time": 400, "pitch": 58, "duration": 5, "velocity": 59}, {"time": 406, "pitch": 59, "duration": 4, "velocity": 70}, {"time": 412, "pitch": 61, "duration": 6, "velocity": 60}, {"time": 418, "pitch": 66, "duration": 5, "velocity": 66}, {"time": 424, "pitch": 44, "duration": 45, "velocity": 67}, {"time": 424, "pitch": 59, "duration": 16, "velocity": 73}, {"time": 424, "pitch": 63, "duration": 20, "velocity": 73}, {"time": 442, "pitch": 58, "duration": 13, "velocity": 61}, {"time": 442, "pitch": 61, "duration": 14, "velocity": 62}, {"time": 454, "pitch": 56, "duration": 8, "velocity": 45}, {"time": 460, "pitch": 59, "duration": 4, "velocity": 70}, {"time": 460, "pitch": 63, "duration": 6, "velocity": 70}, {"time": 472, "pitch": 47, "duration": 26, "velocity": 72}, {"time": 472, "pitch": 54, "duration": 31, "velocity": 62}, {"time": 472, "pitch": 59, "duration": 32, "velocity": 67}, {"time": 472, "pitch": 63, "duration": 31, "velocity": 67}, {"time": 502, "pitch": 47, "duration": 16, "velocity": 44}, {"time": 508, "pitch": 54, "duration": 4, "velocity": 76}, {"time": 508, "pitch": 59, "duration": 9, "velocity": 75}, {"time": 508, "pitch": 63, "duration": 7, "velocity": 80}, {"time": 520, "pitch": 40, "duration": 13, "velocity": 60}, {"time": 520, "pitch": 52, "duration": 12, "velocity": 67}, {"time": 520, "pitch": 56, "duration": 14, "velocity": 66}, {"time": 520, "pitch": 59, "duration": 14, "velocity": 73}, {"time": 520, "pitch": 64, "duration": 13, "velocity": 69}, {"time": 544, "pitch": 39, "duration": 13, "velocity": 59}, {"time": 544, "pitch": 51, "duration": 15, "velocity": 58}, {"time": 544, "pitch": 54, "duration": 14, "velocity": 72}, {"time": 544, "pitch": 58, "duration": 13, "velocity": 72}, {"time": 544, "pitch": 63, "duration": 15, "velocity": 67}, {"time": 568, "pitch": 44, "duration": 90, "velocity": 72}, {"time": 568, "pitch": 59, "duration": 13, "velocity": 72}, {"time": 568, "pitch": 63, "duration": 13, "velocity": 69}, {"time": 574, "pitch": 51, "duration": 82, "velocity": 47}, {"time": 580, "pitch": 56, "duration": 76, "velocity": 57}, {"time": 586, "pitch": 58, "duration": 7, "velocity": 58}, {"time": 592, "pitch": 59, "duration": 2, "velocity": 66}, {"time": 598, "pitch": 63, "duration": 4, "velocity": 70}, {"time": 604, "pitch": 68, "duration": 8, "velocity": 61}, {"time": 610, "pitch": 70, "duration": 5, "velocity": 54}, {"time": 616, "pitch": 63, "duration": 14, "velocity": 47}, {"time": 616, "pitch": 71, "duration": 16, "velocity": 55}, {"time": 646, "pitch": 75, "duration": 5, "velocity": 55}, {"time": 652, "pitch": 83, "duration": 5, "velocity": 61}, {"time": 658, "pitch": 82, "duration": 7, "velocity": 54}, {"time": 664, "pitch": 44, "duration": 37, "velocity": 54}, {"time": 664, "pitch": 63, "duration": 14, "velocity": 48}, {"time": 664, "pitch": 71, "duration": 13, "velocity": 54}, {"time": 664, "pitch": 80, "duration": 29, "velocity": 62}, {"time": 676, "pitch": 70, "duration": 2, "velocity": 42}, {"time": 682, "pitch": 66, "duration": 12, "velocity": 44}, {"time": 694, "pitch": 61, "duration": 7, "velocity": 48}, {"time": 712, "pitch": 44, "duration": 35, "velocity": 47}, {"time": 712, "pitch": 56, "duration": 25, "velocity": 48}, {"time": 712, "pitch": 59, "duration": 8, "velocity": 54}, {"time": 712, "pitch": 63, "duration": 9, "velocity": 59}, {"time": 712, "pitch": 68, "duration": 14, "velocity": 57}, {"time": 724, "pitch": 58, "duration": 16, "velocity": 47}, {"time": 730, "pitch": 59, "duration": 12, "velocity": 54}, {"time": 742, "pitch": 56, "duration": 8, "velocity": 31}, {"time": 748, "pitch": 58, "duration": 4, "velocity": 44}, {"time": 754, "pitch": 59, "duration": 11, "velocity": 32}, {"time": 760, "pitch": 44, "duration": 36, "velocity": 42}, {"time": 766, "pitch": 51, "duration": 29, "velocity": 48}, {"time": 772, "pitch": 56, "duration": 22, "velocity": 60}, {"time": 778, "pitch": 58, "duration": 6, "velocity": 51}, {"time": 784, "pitch": 59, "duration": 7, "velocity": 58}, {"time": 790, "pitch": 63, "duration": 7, "velocity": 61}, {"time": 808, "pitch": 40, "duration": 16, "velocity": 56}, {"time": 808, "pitch": 52, "duration": 15, "velocity": 50}, {"time": 808, "pitch": 56, "duration": 15, "velocity": 60}, {"time": 808, "pitch": 59, "duration": 15, "velocity": 66}, {"time": 808, "pitch": 64, "duration": 15, "velocity": 67}, {"time": 832, "pitch": 39, "duration": 13, "velocity": 56}, {"time": 832, "pitch": 51, "duration": 16, "velocity": 56}, {"time": 832, "pitch": 58, "duration": 18, "velocity": 61}, {"time": 832, "pitch": 61, "duration": 18, "velocity": 64}, {"time": 832, "pitch": 66, "duration": 19, "velocity": 60}, {"time": 856, "pitch": 44, "duration": 40, "velocity": 64}, {"time": 856, "pitch": 59, "duration": 14, "velocity": 61}, {"time": 856, "pitch": 63, "duration": 15, "velocity": 62}, {"time": 862, "pitch": 51, "duration": 34, "velocity": 47}, {"time": 868, "pitch": 56, "duration": 28, "velocity": 45}, {"time": 874, "pitch": 58, "duration": 15, "velocity": 54}, {"time": 874, "pitch": 61, "duration": 20, "velocity": 63}, {"time": 892, "pitch": 59, "duration": 8, "velocity": 62}, {"time": 892, "pitch": 63, "duration": 10, "velocity": 64}, {"time": 904, "pitch": 44, "duration": 36, "velocity": 67}, {"time": 904, "pitch": 58, "duration": 10, "velocity": 55}, {"time": 904, "pitch": 59, "duration": 13, "velocity": 57}, {"time": 904, "pitch": 63, "duration": 11, "velocity": 60}, {"time": 910, "pitch": 51, "duration": 21, "velocity": 52}, {"time": 916, "pitch": 56, "duration": 21, "velocity": 55}, {"time": 922, "pitch": 58, "duration": 11, "velocity": 54}, {"time": 922, "pitch": 59, "duration": 12, "velocity": 59}, {"time": 922, "pitch": 63, "duration": 12, "velocity": 60}, {"time": 934, "pitch": 51, "duration": 6, "velocity": 46}, {"time": 940, "pitch": 58, "duration": 3, "velocity": 45}, {"time": 952, "pitch": 35, "duration": 36, "velocity": 60}, {"time": 952, "pitch": 47, "duration": 27, "velocity": 60}, {"time": 952, "pitch": 54, "duration": 8, "velocity": 59}, {"time": 952, "pitch": 59, "duration": 11, "velocity": 63}, {"time": 952, "pitch": 63, "duration": 12, "velocity": 66}, {"time": 976, "pitch": 54, "duration": 13, "velocity": 49}, {"time": 976, "pitch": 59, "duration": 11, "velocity": 53}, {"time": 976, "pitch": 63, "duration": 12, "velocity": 50}, {"time": 988, "pitch": 47, "duration": 3, "velocity": 47}, {"time": 1000, "pitch": 37, "duration": 36, "velocity": 46}, {"time": 1000, "pitch": 49, "duration": 36, "velocity": 42}, {"time": 1000, "pitch": 56, "duration": 16, "velocity": 49}, {"time": 1000, "pitch": 59, "duration": 13, "velocity": 64}, {"time": 1000, "pitch": 64, "duration": 16, "velocity": 54}, {"time": 1024, "pitch": 56, "duration": 13, "velocity": 59}, {"time": 1024, "pitch": 61, "duration": 11, "velocity": 60}, {"time": 1024, "pitch": 64, "duration": 12, "velocity": 56}, {"time": 1048, "pitch": 39, "duration": 37, "velocity": 58}, {"time": 1048, "pitch": 51, "duration": 31, "velocity": 55}, {"time": 1048, "pitch": 54, "duration": 18, "velocity": 64}, {"time": 1048, "pitch": 58, "duration": 18, "velocity": 66}, {"time": 1048, "pitch": 63, "duration": 18, "velocity": 66}, {"time": 1072, "pitch": 54, "duration": 12, "velocity": 64}, {"time": 1072, "pitch": 58, "duration": 12, "velocity": 73}, {"time": 1072, "pitch": 63, "duration": 12, "velocity": 67}, {"time": 1084, "pitch": 51, "duration": 2, "velocity": 67}, {"time": 1096, "pitch": 44, "duration": 38, "velocity": 72}, {"time": 1096, "pitch": 59, "duration": 11, "velocity": 67}, {"time": 1096, "pitch": 63, "duration": 10, "velocity": 67}, {"time": 1108, "pitch": 56, "duration": 17, "velocity": 37}, {"time": 1120, "pitch": 59, "duration": 14, "velocity": 61}, {"time": 1120, "pitch": 63, "duration": 14, "velocity": 67}, {"time": 1120, "pitch": 68, "duration": 14, "velocity": 57}, {"time": 1132, "pitch": 56, "duration": 3, "velocity": 58}, {"time": 1144, "pitch": 59, "duration": 11, "velocity": 62}, {"time": 1144, "pitch": 63, "duration": 12, "velocity": 66}, {"time": 1144, "pitch": 68, "duration": 11, "velocity": 67}, {"time": 1156, "pitch": 44, "duration": 16, "velocity": 28}, {"time": 1159, "pitch": 56, "duration": 12, "velocity": 40}, {"time": 1168, "pitch": 59, "duration": 12, "velocity": 64}, {"time": 1168, "pitch": 63, "duration": 10, "velocity": 70}, {"time": 1168, "pitch": 68, "duration": 10, "velocity": 64}, {"time": 1180, "pitch": 44, "duration": 3, "velocity": 66}, {"time": 1192, "pitch": 40, "duration": 15, "velocity": 58}, {"time": 1192, "pitch": 52, "duration": 9, "velocity": 50}, {"time": 1192, "pitch": 59, "duration": 13, "velocity": 61}, {"time": 1192, "pitch": 64, "duration": 13, "velocity": 64}, {"time": 1192, "pitch": 68, "duration": 13, "velocity": 62}, {"time": 1204, "pitch": 52, "duration": 2, "velocity": 70}, {"time": 1216, "pitch": 39, "duration": 13, "velocity": 66}, {"time": 1216, "pitch": 51, "duration": 9, "velocity": 57}, {"time": 1216, "pitch": 61, "duration": 13, "velocity": 61}, {"time": 1216, "pitch": 66, "duration": 12, "velocity": 66}, {"time": 1216, "pitch": 70, "duration": 11, "velocity": 67}, {"time": 1228, "pitch": 51, "duration": 9, "velocity": 57}, {"time": 1240, "pitch": 44, "duration": 37, "velocity": 62}, {"time": 1240, "pitch": 59, "duration": 12, "velocity": 58}, {"time": 1240, "pitch": 63, "duration": 12, "velocity": 62}, {"time": 1240, "pitch": 68, "duration": 12, "velocity": 47}, {"time": 1252, "pitch": 51, "duration": 13, "velocity": 50}, {"time": 1264, "pitch": 56, "duration": 12, "velocity": 49}, {"time": 1264, "pitch": 59, "duration": 14, "velocity": 58}, {"time": 1264, "pitch": 63, "duration": 14, "velocity": 59}, {"time": 1264, "pitch": 68, "duration": 15, "velocity": 57}, {"time": 1276, "pitch": 51, "duration": 4, "velocity": 47}, {"time": 1288, "pitch": 44, "duration": 36, "velocity": 75}, {"time": 1288, "pitch": 59, "duration": 14, "velocity": 60}, {"time": 1288, "pitch": 63, "duration": 14, "velocity": 63}, {"time": 1288, "pitch": 68, "duration": 13, "velocity": 59}, {"time": 1300, "pitch": 51, "duration": 13, "velocity": 35}, {"time": 1312, "pitch": 56, "duration": 10, "velocity": 50}, {"time": 1312, "pitch": 59, "duration": 12, "velocity": 63}, {"time": 1312, "pitch": 63, "duration": 12, "velocity": 66}, {"time": 1312, "pitch": 68, "duration": 12, "velocity": 62}, {"time": 1324, "pitch": 51, "duration": 2, "velocity": 67}, {"time": 1336, "pitch": 47, "duration": 36, "velocity": 67}, {"time": 1336, "pitch": 61, "duration": 13, "velocity": 51}, {"time": 1336, "pitch": 63, "duration": 13, "velocity": 66}, {"time": 1336, "pitch": 66, "duration": 14, "velocity": 66}, {"time": 1348, "pitch": 54, "duration": 16, "velocity": 33}, {"time": 1360, "pitch": 59, "duration": 11, "velocity": 47}, {"time": 1360, "pitch": 61, "duration": 12, "velocity": 45}, {"time": 1360, "pitch": 63, "duration": 11, "velocity": 49}, {"time": 1360, "pitch": 66, "duration": 12, "velocity": 54}, {"time": 1372, "pitch": 54, "duration": 3, "velocity": 51}, {"time": 1384, "pitch": 37, "duration": 14, "velocity": 60}, {"time": 1384, "pitch": 49, "duration": 14, "velocity": 47}, {"time": 1384, "pitch": 61, "duration": 14, "velocity": 57}, {"time": 1384, "pitch": 64, "duration": 15, "velocity": 60}, {"time": 1384, "pitch": 68, "duration": 14, "velocity": 58}, {"time": 1408, "pitch": 39, "duration": 12, "velocity": 67}, {"time": 1408, "pitch": 51, "duration": 14, "velocity": 44}, {"time": 1408, "pitch": 61, "duration": 14, "velocity": 61}, {"time": 1408, "pitch": 66, "duration": 13, "velocity": 66}, {"time": 1408, "pitch": 70, "duration": 13, "velocity": 66}, {"time": 1432, "pitch": 44, "duration": 39, "velocity": 67}, {"time": 1432, "pitch": 63, "duration": 13, "velocity": 64}, {"time": 1432, "pitch": 68, "duration": 13, "velocity": 66}, {"time": 1432, "pitch": 71, "duration": 13, "velocity": 63}, {"time": 1456, "pitch": 63, "duration": 12, "velocity": 62}, {"time": 1456, "pitch": 68, "duration": 12, "velocity": 66}, {"time": 1456, "pitch": 71, "duration": 12, "velocity": 59}, {"time": 1468, "pitch": 56, "duration": 6, "velocity": 46}, {"time": 1480, "pitch": 44, "duration": 39, "velocity": 64}, {"time": 1480, "pitch": 63, "duration": 9, "velocity": 57}, {"time": 1480, "pitch": 66, "duration": 8, "velocity": 63}, {"time": 1480, "pitch": 71, "duration": 9, "velocity": 57}, {"time": 1486, "pitch": 51, "duration": 36, "velocity": 49}, {"time": 1492, "pitch": 56, "duration": 25, "velocity": 50}, {"time": 1498, "pitch": 58, "duration": 6, "velocity": 57}, {"time": 1504, "pitch": 59, "duration": 3, "velocity": 70}, {"time": 1510, "pitch": 63, "duration": 6, "velocity": 62}, {"time": 1516, "pitch": 68, "duration": 6, "velocity": 54}, {"time": 1522, "pitch": 70, "duration": 4, "velocity": 61}, {"time": 1528, "pitch": 44, "duration": 43, "velocity": 70}, {"time": 1528, "pitch": 63, "duration": 10, "velocity": 64}, {"time": 1528, "pitch": 68, "duration": 13, "velocity": 70}, {"time": 1528, "pitch": 71, "duration": 12, "velocity": 66}, {"time": 1534, "pitch": 51, "duration": 29, "velocity": 59}, {"time": 1540, "pitch": 56, "duration": 13, "velocity": 49}, {"time": 1546, "pitch": 63, "duration": 3, "velocity": 58}, {"time": 1546, "pitch": 71, "duration": 5, "velocity": 61}, {"time": 1552, "pitch": 61, "duration": 7, "velocity": 67}, {"time": 1552, "pitch": 70, "duration": 9, "velocity": 72}, {"time": 1558, "pitch": 56, "duration": 7, "velocity": 36}, {"time": 1564, "pitch": 61, "duration": 6, "velocity": 63}, {"time": 1564, "pitch": 66, "duration": 7, "velocity": 69}, {"time": 1570, "pitch": 51, "duration": 4, "velocity": 37}, {"time": 1576, "pitch": 44, "duration": 15, "velocity": 62}, {"time": 1576, "pitch": 56, "duration": 8, "velocity": 60}, {"time": 1576, "pitch": 59, "duration": 7, "velocity": 69}, {"time": 1576, "pitch": 63, "duration": 8, "velocity": 69}, {"time": 1576, "pitch": 68, "duration": 7, "velocity": 73}, {"time": 1585, "pitch": 59, "duration": 3, "velocity": 45}, {"time": 1594, "pitch": 44, "duration": 29, "velocity": 72}, {"time": 1594, "pitch": 56, "duration": 8, "velocity": 75}, {"time": 1594, "pitch": 59, "duration": 11, "velocity": 72}, {"time": 1594, "pitch": 63, "duration": 11, "velocity": 72}, {"time": 1594, "pitch": 68, "duration": 11, "velocity": 73}, {"time": 1606, "pitch": 56, "duration": 7, "velocity": 47}, {"time": 1612, "pitch": 59, "duration": 4, "velocity": 75}, {"time": 1612, "pitch": 63, "duration": 5, "velocity": 78}, {"time": 1612, "pitch": 68, "duration": 4, "velocity": 75}, {"time": 1618, "pitch": 56, "duration": 6, "velocity": 57}, {"time": 1624, "pitch": 47, "duration": 27, "velocity": 67}, {"time": 1624, "pitch": 59, "duration": 9, "velocity": 75}, {"time": 1624, "pitch": 63, "duration": 9, "velocity": 75}, {"time": 1624, "pitch": 66, "duration": 10, "velocity": 75}, {"time": 1642, "pitch": 59, "duration": 11, "velocity": 70}, {"time": 1642, "pitch": 63, "duration": 12, "velocity": 67}, {"time": 1642, "pitch": 66, "duration": 11, "velocity": 70}, {"time": 1654, "pitch": 47, "duration": 7, "velocity": 62}, {"time": 1660, "pitch": 59, "duration": 2, "velocity": 76}, {"time": 1660, "pitch": 63, "duration": 2, "velocity": 73}, {"time": 1660, "pitch": 66, "duration": 3, "velocity": 73}, {"time": 1666, "pitch": 47, "duration": 3, "velocity": 63}, {"time": 1672, "pitch": 37, "duration": 42, "velocity": 73}, {"time": 1672, "pitch": 49, "duration": 15, "velocity": 72}, {"time": 1672, "pitch": 61, "duration": 14, "velocity": 72}, {"time": 1672, "pitch": 64, "duration": 14, "velocity": 75}, {"time": 1672, "pitch": 68, "duration": 11, "velocity": 72}, {"time": 1690, "pitch": 49, "duration": 9, "velocity": 44}, {"time": 1690, "pitch": 61, "duration": 11, "velocity": 70}, {"time": 1690, "pitch": 64, "duration": 11, "velocity": 73}, {"time": 1690, "pitch": 68, "duration": 11, "velocity": 72}, {"time": 1702, "pitch": 49, "duration": 7, "velocity": 53}, {"time": 1708, "pitch": 61, "duration": 4, "velocity": 73}, {"time": 1708, "pitch": 64, "duration": 4, "velocity": 76}, {"time": 1708, "pitch": 68, "duration": 4, "velocity": 70}, {"time": 1720, "pitch": 40, "duration": 13, "velocity": 73}, {"time": 1720, "pitch": 52, "duration": 6, "velocity": 75}, {"time": 1720, "pitch": 59, "duration": 12, "velocity": 73}, {"time": 1720, "pitch": 64, "duration": 12, "velocity": 75}, {"time": 1720, "pitch": 68, "duration": 12, "velocity": 73}, {"time": 1729, "pitch": 52, "duration": 3, "velocity": 67}, {"time": 1744, "pitch": 39, "duration": 13, "velocity": 73}, {"time": 1744, "pitch": 51, "duration": 8, "velocity": 73}, {"time": 1744, "pitch": 58, "duration": 14, "velocity": 73}, {"time": 1744, "pitch": 61, "duration": 14, "velocity": 78}, {"time": 1744, "pitch": 66, "duration": 13, "velocity": 73}, {"time": 1756, "pitch": 51, "duration": 3, "velocity": 85}, {"time": 1768, "pitch": 44, "duration": 45, "velocity": 73}, {"time": 1768, "pitch": 56, "duration": 24, "velocity": 76}, {"time": 1768, "pitch": 59, "duration": 7, "velocity": 76}, {"time": 1768, "pitch": 63, "duration": 10, "velocity": 76}, {"time": 1768, "pitch": 68, "duration": 11, "velocity": 76}, {"time": 1780, "pitch": 59, "duration": 1, "velocity": 35}, {"time": 1786, "pitch": 59, "duration": 12, "velocity": 80}, {"time": 1786, "pitch": 63, "duration": 13, "velocity": 75}, {"time": 1786, "pitch": 68, "duration": 12, "velocity": 73}, {"time": 1798, "pitch": 56, "duration": 7, "velocity": 50}, {"time": 1804, "pitch": 59, "duration": 4, "velocity": 78}, {"time": 1804, "pitch": 63, "duration": 5, "velocity": 80}, {"time": 1804, "pitch": 68, "duration": 5, "velocity": 73}, {"time": 1810, "pitch": 56, "duration": 5, "velocity": 67}, {"time": 1816, "pitch": 47, "duration": 27, "velocity": 75}, {"time": 1816, "pitch": 59, "duration": 10, "velocity": 80}, {"time": 1816, "pitch": 63, "duration": 12, "velocity": 80}, {"time": 1816, "pitch": 66, "duration": 10, "velocity": 78}, {"time": 1834, "pitch": 59, "duration": 13, "velocity": 72}, {"time": 1834, "pitch": 63, "duration": 13, "velocity": 70}, {"time": 1834, "pitch": 66, "duration": 12, "velocity": 72}, {"time": 1846, "pitch": 47, "duration": 6, "velocity": 62}, {"time": 1852, "pitch": 59, "duration": 2, "velocity": 78}, {"time": 1852, "pitch": 63, "duration": 2, "velocity": 80}, {"time": 1852, "pitch": 66, "duration": 3, "velocity": 78}, {"time": 1858, "pitch": 47, "duration": 1, "velocity": 64}, {"time": 1864, "pitch": 37, "duration": 18, "velocity": 64}, {"time": 1864, "pitch": 49, "duration": 20, "velocity": 58}, {"time": 1864, "pitch": 61, "duration": 15, "velocity": 63}, {"time": 1864, "pitch": 64, "duration": 15, "velocity": 76}, {"time": 1864, "pitch": 68, "duration": 14, "velocity": 69}, {"time": 1882, "pitch": 61, "duration": 2, "velocity": 72}, {"time": 1882, "pitch": 64, "duration": 4, "velocity": 78}, {"time": 1882, "pitch": 68, "duration": 4, "velocity": 72}, {"time": 1888, "pitch": 39, "duration": 13, "velocity": 66}, {"time": 1888, "pitch": 51, "duration": 9, "velocity": 80}, {"time": 1888, "pitch": 63, "duration": 15, "velocity": 85}, {"time": 1888, "pitch": 66, "duration": 15, "velocity": 76}, {"time": 1888, "pitch": 70, "duration": 13, "velocity": 75}, {"time": 1900, "pitch": 51, "duration": 3, "velocity": 62}, {"time": 1912, "pitch": 44, "duration": 33, "velocity": 75}, {"time": 1912, "pitch": 59, "duration": 11, "velocity": 78}, {"time": 1912, "pitch": 63, "duration": 11, "velocity": 80}, {"time": 1912, "pitch": 68, "duration": 12, "velocity": 75}, {"time": 1918, "pitch": 51, "duration": 27, "velocity": 64}, {"time": 1924, "pitch": 56, "duration": 23, "velocity": 67}, {"time": 1930, "pitch": 58, "duration": 6, "velocity": 66}, {"time": 1936, "pitch": 59, "duration": 2, "velocity": 72}, {"time": 1942, "pitch": 63, "duration": 5, "velocity": 67}, {"time": 1948, "pitch": 68, "duration": 4, "velocity": 62}, {"time": 1954, "pitch": 70, "duration": 4, "velocity": 66}, {"time": 1960, "pitch": 56, "duration": 27, "velocity": 78}, {"time": 1960, "pitch": 63, "duration": 11, "velocity": 80}, {"time": 1960, "pitch": 68, "duration": 14, "velocity": 75}, {"time": 1960, "pitch": 71, "duration": 12, "velocity": 76}, {"time": 1972, "pitch": 59, "duration": 2, "velocity": 37}, {"time": 1978, "pitch": 63, "duration": 13, "velocity": 78}, {"time": 1978, "pitch": 68, "duration": 13, "velocity": 75}, {"time": 1978, "pitch": 71, "duration": 12, "velocity": 75}, {"time": 1990, "pitch": 56, "duration": 14, "velocity": 66}, {"time": 1996, "pitch": 63, "duration": 6, "velocity": 78}, {"time": 1996, "pitch": 68, "duration": 9, "velocity": 75}, {"time": 1996, "pitch": 71, "duration": 5, "velocity": 76}, {"time": 2002, "pitch": 54, "duration": 4, "velocity": 63}, {"time": 2008, "pitch": 47, "duration": 42, "velocity": 78}, {"time": 2008, "pitch": 63, "duration": 12, "velocity": 73}, {"time": 2008, "pitch": 66, "duration": 11, "velocity": 75}, {"time": 2008, "pitch": 71, "duration": 12, "velocity": 76}, {"time": 2020, "pitch": 59, "duration": 12, "velocity": 40}, {"time": 2026, "pitch": 63, "duration": 11, "velocity": 70}, {"time": 2026, "pitch": 66, "duration": 12, "velocity": 73}, {"time": 2026, "pitch": 71, "duration": 11, "velocity": 72}, {"time": 2038, "pitch": 59, "duration": 6, "velocity": 40}, {"time": 2044, "pitch": 63, "duration": 3, "velocity": 78}, {"time": 2044, "pitch": 66, "duration": 3, "velocity": 76}, {"time": 2044, "pitch": 71, "duration": 3, "velocity": 73}, {"time": 2050, "pitch": 59, "duration": 2, "velocity": 48}, {"time": 2056, "pitch": 49, "duration": 36, "velocity": 70}, {"time": 2056, "pitch": 59, "duration": 10, "velocity": 76}, {"time": 2056, "pitch": 64, "duration": 11, "velocity": 76}, {"time": 2056, "pitch": 68, "duration": 7, "velocity": 73}, {"time": 2068, "pitch": 56, "duration": 9, "velocity": 40}, {"time": 2074, "pitch": 61, "duration": 13, "velocity": 76}, {"time": 2074, "pitch": 64, "duration": 11, "velocity": 80}, {"time": 2074, "pitch": 68, "duration": 10, "velocity": 75}, {"time": 2086, "pitch": 56, "duration": 5, "velocity": 63}, {"time": 2092, "pitch": 61, "duration": 4, "velocity": 75}, {"time": 2092, "pitch": 64, "duration": 4, "velocity": 80}, {"time": 2092, "pitch": 68, "duration": 2, "velocity": 33}, {"time": 2098, "pitch": 66, "duration": 4, "velocity": 63}, {"time": 2104, "pitch": 40, "duration": 15, "velocity": 72}, {"time": 2104, "pitch": 52, "duration": 7, "velocity": 66}, {"time": 2104, "pitch": 59, "duration": 13, "velocity": 88}, {"time": 2104, "pitch": 64, "duration": 15, "velocity": 85}, {"time": 2104, "pitch": 68, "duration": 12, "velocity": 80}, {"time": 2116, "pitch": 52, "duration": 2, "velocity": 70}, {"time": 2128, "pitch": 39, "duration": 12, "velocity": 76}, {"time": 2128, "pitch": 51, "duration": 6, "velocity": 73}, {"time": 2128, "pitch": 61, "duration": 12, "velocity": 85}, {"time": 2128, "pitch": 66, "duration": 11, "velocity": 78}, {"time": 2128, "pitch": 70, "duration": 8, "velocity": 76}, {"time": 2140, "pitch": 51, "duration": 3, "velocity": 75}, {"time": 2146, "pitch": 66, "duration": 5, "velocity": 67}, {"time": 2149, "pitch": 68, "duration": 4, "velocity": 70}, {"time": 2152, "pitch": 44, "duration": 45, "velocity": 73}, {"time": 2152, "pitch": 63, "duration": 11, "velocity": 75}, {"time": 2152, "pitch": 71, "duration": 11, "velocity": 76}, {"time": 2158, "pitch": 51, "duration": 32, "velocity": 57}, {"time": 2164, "pitch": 56, "duration": 12, "velocity": 70}, {"time": 2170, "pitch": 59, "duration": 13, "velocity": 85}, {"time": 2170, "pitch": 63, "duration": 13, "velocity": 93}, {"time": 2170, "pitch": 68, "duration": 10, "velocity": 70}, {"time": 2182, "pitch": 56, "duration": 7, "velocity": 48}, {"time": 2188, "pitch": 59, "duration": 7, "velocity": 76}, {"time": 2188, "pitch": 63, "duration": 8, "velocity": 80}, {"time": 2188, "pitch": 68, "duration": 8, "velocity": 76}, {"time": 2194, "pitch": 51, "duration": 3, "velocity": 44}, {"time": 2194, "pitch": 56, "duration": 3, "velocity": 60}, {"time": 2200, "pitch": 47, "duration": 15, "velocity": 75}, {"time": 2200, "pitch": 59, "duration": 13, "velocity": 80}, {"time": 2200, "pitch": 63, "duration": 15, "velocity": 78}, {"time": 2200, "pitch": 66, "duration": 9, "velocity": 78}, {"time": 2218, "pitch": 59, "duration": 2, "velocity": 72}, {"time": 2218, "pitch": 63, "duration": 3, "velocity": 75}, {"time": 2218, "pitch": 66, "duration": 5, "velocity": 76}, {"time": 2230, "pitch": 59, "duration": 7, "velocity": 75}, {"time": 2230, "pitch": 63, "duration": 10, "velocity": 82}, {"time": 2230, "pitch": 66, "duration": 7, "velocity": 76}, {"time": 2242, "pitch": 47, "duration": 2, "velocity": 64}, {"time": 2248, "pitch": 37, "duration": 13, "velocity": 75}, {"time": 2248, "pitch": 49, "duration": 9, "velocity": 64}, {"time": 2248, "pitch": 61, "duration": 13, "velocity": 76}, {"time": 2248, "pitch": 64, "duration": 13, "velocity": 76}, {"time": 2248, "pitch": 68, "duration": 11, "velocity": 73}, {"time": 2260, "pitch": 49, "duration": 3, "velocity": 66}, {"time": 2266, "pitch": 64, "duration": 3, "velocity": 63}, {"time": 2266, "pitch": 68, "duration": 3, "velocity": 51}, {"time": 2272, "pitch": 39, "duration": 12, "velocity": 75}, {"time": 2272, "pitch": 51, "duration": 9, "velocity": 76}, {"time": 2272, "pitch": 61, "duration": 14, "velocity": 88}, {"time": 2272, "pitch": 66, "duration": 13, "velocity": 72}, {"time": 2272, "pitch": 70, "duration": 11, "velocity": 73}, {"time": 2284, "pitch": 51, "duration": 3, "velocity": 75}, {"time": 2296, "pitch": 44, "duration": 41, "velocity": 73}, {"time": 2296, "pitch": 63, "duration": 10, "velocity": 76}, {"time": 2296, "pitch": 68, "duration": 10, "velocity": 75}, {"time": 2296, "pitch": 71, "duration": 8, "velocity": 78}, {"time": 2302, "pitch": 51, "duration": 41, "velocity": 61}, {"time": 2308, "pitch": 56, "duration": 27, "velocity": 64}, {"time": 2314, "pitch": 58, "duration": 5, "velocity": 72}, {"time": 2320, "pitch": 59, "duration": 3, "velocity": 66}, {"time": 2326, "pitch": 63, "duration": 4, "velocity": 78}, {"time": 2332, "pitch": 68, "duration": 8, "velocity": 63}, {"time": 2338, "pitch": 70, "duration": 4, "velocity": 61}, {"time": 2344, "pitch": 40, "duration": 37, "velocity": 63}, {"time": 2344, "pitch": 52, "duration": 38, "velocity": 64}, {"time": 2344, "pitch": 56, "duration": 20, "velocity": 64}, {"time": 2344, "pitch": 59, "duration": 29, "velocity": 69}, {"time": 2344, "pitch": 64, "duration": 34, "velocity": 62}, {"time": 2374, "pitch": 56, "duration": 5, "velocity": 40}, {"time": 2392, "pitch": 40, "duration": 37, "velocity": 53}, {"time": 2392, "pitch": 52, "duration": 34, "velocity": 40}, {"time": 2392, "pitch": 55, "duration": 34, "velocity": 59}, {"time": 2392, "pitch": 59, "duration": 31, "velocity": 61}, {"time": 2392, "pitch": 61, "duration": 30, "velocity": 57}, {"time": 2392, "pitch": 64, "duration": 33, "velocity": 44}, {"time": 2440, "pitch": 39, "duration": 5, "velocity": 62}, {"time": 2440, "pitch": 54, "duration": 7, "velocity": 50}, {"time": 2440, "pitch": 58, "duration": 8, "velocity": 53}, {"time": 2440, "pitch": 61, "duration": 8, "velocity": 58}, {"time": 2440, "pitch": 66, "duration": 17, "velocity": 39}, {"time": 2446, "pitch": 51, "duration": 7, "velocity": 50}, {"time": 2452, "pitch": 54, "duration": 23, "velocity": 49}, {"time": 2458, "pitch": 58, "duration": 14, "velocity": 56}, {"time": 2464, "pitch": 61, "duration": 7, "velocity": 49}, {"time": 2470, "pitch": 66, "duration": 8, "velocity": 67}, {"time": 2482, "pitch": 61, "duration": 7, "velocity": 50}, {"time": 2488, "pitch": 44, "duration": 36, "velocity": 70}, {"time": 2488, "pitch": 54, "duration": 5, "velocity": 55}, {"time": 2488, "pitch": 59, "duration": 10, "velocity": 63}, {"time": 2494, "pitch": 51, "duration": 17, "velocity": 50}, {"time": 2500, "pitch": 56, "duration": 15, "velocity": 47}, {"time": 2506, "pitch": 59, "duration": 12, "velocity": 49}, {"time": 2512, "pitch": 63, "duration": 7, "velocity": 61}, {"time": 2518, "pitch": 51, "duration": 5, "velocity": 51}, {"time": 2524, "pitch": 59, "duration": 6, "velocity": 57}, {"time": 2530, "pitch": 63, "duration": 4, "velocity": 49}, {"time": 2536, "pitch": 37, "duration": 5, "velocity": 70}, {"time": 2536, "pitch": 56, "duration": 15, "velocity": 55}, {"time": 2536, "pitch": 59, "duration": 17, "velocity": 60}, {"time": 2536, "pitch": 64, "duration": 17, "velocity": 67}, {"time": 2542, "pitch": 49, "duration": 7, "velocity": 49}, {"time": 2548, "pitch": 51, "duration": 19, "velocity": 60}, {"time": 2554, "pitch": 52, "duration": 12, "velocity": 61}, {"time": 2560, "pitch": 56, "duration": 7, "velocity": 49}, {"time": 2566, "pitch": 59, "duration": 4, "velocity": 56}, {"time": 2572, "pitch": 63, "duration": 6, "velocity": 60}, {"time": 2578, "pitch": 64, "duration": 23, "velocity": 58}, {"time": 2584, "pitch": 37, "duration": 5, "velocity": 72}, {"time": 2584, "pitch": 56, "duration": 14, "velocity": 60}, {"time": 2584, "pitch": 59, "duration": 16, "velocity": 58}, {"time": 2590, "pitch": 49, "duration": 7, "velocity": 39}, {"time": 2596, "pitch": 51, "duration": 22, "velocity": 48}, {"time": 2602, "pitch": 52, "duration": 15, "velocity": 64}, {"time": 2608, "pitch": 56, "duration": 4, "velocity": 56}, {"time": 2614, "pitch": 59, "duration": 4, "velocity": 61}, {"time": 2620, "pitch": 61, "duration": 5, "velocity": 50}, {"time": 2626, "pitch": 64, "duration": 6, "velocity": 66}, {"time": 2632, "pitch": 42, "duration": 86, "velocity": 63}, {"time": 2632, "pitch": 58, "duration": 10, "velocity": 62}, {"time": 2632, "pitch": 61, "duration": 10, "velocity": 72}, {"time": 2638, "pitch": 49, "duration": 78, "velocity": 58}, {"time": 2644, "pitch": 54, "duration": 27, "velocity": 52}, {"time": 2650, "pitch": 58, "duration": 4, "velocity": 51}, {"time": 2656, "pitch": 59, "duration": 3, "velocity": 66}, {"time": 2662, "pitch": 64, "duration": 1, "velocity": 40}, {"time": 2668, "pitch": 66, "duration": 7, "velocity": 45}, {"time": 2674, "pitch": 71, "duration": 21, "velocity": 52}, {"time": 2680, "pitch": 54, "duration": 35, "velocity": 37}, {"time": 2680, "pitch": 66, "duration": 26, "velocity": 42}, {"time": 2680, "pitch": 78, "duration": 15, "velocity": 44}, {"time": 2716, "pitch": 73, "duration": 8, "velocity": 37}, {"time": 2728, "pitch": 44, "duration": 35, "velocity": 47}, {"time": 2728, "pitch": 56, "duration": 25, "velocity": 48}, {"time": 2728, "pitch": 59, "duration": 8, "velocity": 54}, {"time": 2728, "pitch": 63, "duration": 9, "velocity": 59}, {"time": 2728, "pitch": 68, "duration": 14, "velocity": 57}, {"time": 2740, "pitch": 58, "duration": 16, "velocity": 47}, {"time": 2746, "pitch": 59, "duration": 12, "velocity": 54}, {"time": 2758, "pitch": 56, "duration": 8, "velocity": 31}, {"time": 2764, "pitch": 58, "duration": 4, "velocity": 44}, {"time": 2770, "pitch": 59, "duration": 11, "velocity": 32}, {"time": 2776, "pitch": 44, "duration": 36, "velocity": 42}, {"time": 2782, "pitch": 51, "duration": 29, "velocity": 48}, {"time": 2788, "pitch": 56, "duration": 22, "velocity": 60}, {"time": 2794, "pitch": 58, "duration": 6, "velocity": 51}, {"time": 2800, "pitch": 59, "duration": 7, "velocity": 58}, {"time": 2806, "pitch": 63, "duration": 7, "velocity": 61}, {"time": 2824, "pitch": 40, "duration": 16, "velocity": 56}, {"time": 2824, "pitch": 52, "duration": 15, "velocity": 50}, {"time": 2824, "pitch": 56, "duration": 15, "velocity": 60}, {"time": 2824, "pitch": 59, "duration": 15, "velocity": 66}, {"time": 2824, "pitch": 64, "duration": 15, "velocity": 67}, {"time": 2848, "pitch": 39, "duration": 13, "velocity": 56}, {"time": 2848, "pitch": 51, "duration": 16, "velocity": 56}, {"time": 2848, "pitch": 58, "duration": 18, "velocity": 61}, {"time": 2848, "pitch": 61, "duration": 18, "velocity": 64}, {"time": 2848, "pitch": 66, "duration": 19, "velocity": 60}, {"time": 2872, "pitch": 44, "duration": 40, "velocity": 64}, {"time": 2872, "pitch": 59, "duration": 14, "velocity": 61}, {"time": 2872, "pitch": 63, "duration": 15, "velocity": 62}, {"time": 2878, "pitch": 51, "duration": 34, "velocity": 47}, {"time": 2884, "pitch": 56, "duration": 28, "velocity": 45}, {"time": 2890, "pitch": 58, "duration": 15, "velocity": 54}, {"time": 2890, "pitch": 61, "duration": 20, "velocity": 63}, {"time": 2908, "pitch": 59, "duration": 8, "velocity": 62}, {"time": 2908, "pitch": 63, "duration": 10, "velocity": 64}, {"time": 2920, "pitch": 44, "duration": 36, "velocity": 67}, {"time": 2920, "pitch": 58, "duration": 10, "velocity": 55}, {"time": 2920, "pitch": 59, "duration": 13, "velocity": 57}, {"time": 2920, "pitch": 63, "duration": 11, "velocity": 60}, {"time": 2926, "pitch": 51, "duration": 21, "velocity": 52}, {"time": 2932, "pitch": 56, "duration": 21, "velocity": 55}, {"time": 2938, "pitch": 58, "duration": 11, "velocity": 54}, {"time": 2938, "pitch": 59, "duration": 12, "velocity": 59}, {"time": 2938, "pitch": 63, "duration": 12, "velocity": 60}, {"time": 2950, "pitch": 51, "duration": 6, "velocity": 46}, {"time": 2956, "pitch": 58, "duration": 3, "velocity": 45}, {"time": 2968, "pitch": 35, "duration": 36, "velocity": 60}, {"time": 2968, "pitch": 47, "duration": 27, "velocity": 60}, {"time": 2968, "pitch": 54, "duration": 8, "velocity": 59}, {"time": 2968, "pitch": 59, "duration": 11, "velocity": 63}, {"time": 2968, "pitch": 63, "duration": 12, "velocity": 66}, {"time": 2992, "pitch": 54, "duration": 13, "velocity": 49}, {"time": 2992, "pitch": 59, "duration": 11, "velocity": 53}, {"time": 2992, "pitch": 63, "duration": 12, "velocity": 50}, {"time": 3004, "pitch": 47, "duration": 3, "velocity": 47}, {"time": 3016, "pitch": 37, "duration": 36, "velocity": 46}, {"time": 3016, "pitch": 49, "duration": 36, "velocity": 42}, {"time": 3016, "pitch": 56, "duration": 16, "velocity": 49}, {"time": 3016, "pitch": 59, "duration": 13, "velocity": 64}, {"time": 3016, "pitch": 64, "duration": 16, "velocity": 54}, {"time": 3040, "pitch": 56, "duration": 13, "velocity": 59}, {"time": 3040, "pitch": 61, "duration": 11, "velocity": 60}, {"time": 3040, "pitch": 64, "duration": 12, "velocity": 56}, {"time": 3064, "pitch": 39, "duration": 37, "velocity": 58}, {"time": 3064, "pitch": 51, "duration": 31, "velocity": 55}, {"time": 3064, "pitch": 54, "duration": 18, "velocity": 64}, {"time": 3064, "pitch": 58, "duration": 18, "velocity": 66}, {"time": 3064, "pitch": 63, "duration": 18, "velocity": 66}, {"time": 3088, "pitch": 54, "duration": 12, "velocity": 64}, {"time": 3088, "pitch": 58, "duration": 12, "velocity": 73}, {"time": 3088, "pitch": 63, "duration": 12, "velocity": 67}, {"time": 3100, "pitch": 51, "duration": 2, "velocity": 67}, {"time": 3112, "pitch": 44, "duration": 38, "velocity": 72}, {"time": 3112, "pitch": 59, "duration": 11, "velocity": 67}, {"time": 3112, "pitch": 63, "duration": 10, "velocity": 67}, {"time": 3124, "pitch": 56, "duration": 17, "velocity": 37}, {"time": 3136, "pitch": 59, "duration": 14, "velocity": 61}, {"time": 3136, "pitch": 63, "duration": 14, "velocity": 67}, {"time": 3136, "pitch": 68, "duration": 14, "velocity": 57}, {"time": 3148, "pitch": 56, "duration": 3, "velocity": 58}, {"time": 3160, "pitch": 59, "duration": 11, "velocity": 62}, {"time": 3160, "pitch": 63, "duration": 12, "velocity": 66}, {"time": 3160, "pitch": 68, "duration": 11, "velocity": 67}, {"time": 3172, "pitch": 44, "duration": 16, "velocity": 28}, {"time": 3175, "pitch": 56, "duration": 12, "velocity": 40}, {"time": 3184, "pitch": 59, "duration": 12, "velocity": 64}, {"time": 3184, "pitch": 63, "duration": 10, "velocity": 70}, {"time": 3184, "pitch": 68, "duration": 10, "velocity": 64}, {"time": 3196, "pitch": 44, "duration": 3, "velocity": 66}, {"time": 3208, "pitch": 40, "duration": 15, "velocity": 58}, {"time": 3208, "pitch": 52, "duration": 9, "velocity": 50}, {"time": 3208, "pitch": 59, "duration": 13, "velocity": 61}, {"time": 3208, "pitch": 64, "duration": 13, "velocity": 64}, {"time": 3208, "pitch": 68, "duration": 13, "velocity": 62}, {"time": 3220, "pitch": 52, "duration": 2, "velocity": 70}, {"time": 3232, "pitch": 39, "duration": 13, "velocity": 66}, {"time": 3232, "pitch": 51, "duration": 9, "velocity": 57}, {"time": 3232, "pitch": 61, "duration": 13, "velocity": 61}, {"time": 3232, "pitch": 66, "duration": 12, "velocity": 66}, {"time": 3232, "pitch": 70, "duration": 11, "velocity": 67}, {"time": 3244, "pitch": 51, "duration": 9, "velocity": 57}, {"time": 3256, "pitch": 44, "duration": 37, "velocity": 62}, {"time": 3256, "pitch": 59, "duration": 12, "velocity": 58}, {"time": 3256, "pitch": 63, "duration": 12, "velocity": 62}, {"time": 3256, "pitch": 68, "duration": 12, "velocity": 47}, {"time": 3268, "pitch": 51, "duration": 13, "velocity": 50}, {"time": 3280, "pitch": 56, "duration": 12, "velocity": 49}, {"time": 3280, "pitch": 59, "duration": 14, "velocity": 58}, {"time": 3280, "pitch": 63, "duration": 14, "velocity": 59}, {"time": 3280, "pitch": 68, "duration": 15, "velocity": 57}, {"time": 3292, "pitch": 51, "duration": 4, "velocity": 47}, {"time": 3304, "pitch": 44, "duration": 36, "velocity": 75}, {"time": 3304, "pitch": 59, "duration": 14, "velocity": 60}, {"time": 3304, "pitch": 63, "duration": 14, "velocity": 63}, {"time": 3304, "pitch": 68, "duration": 13, "velocity": 59}, {"time": 3316, "pitch": 51, "duration": 13, "velocity": 35}, {"time": 3328, "pitch": 56, "duration": 10, "velocity": 50}, {"time": 3328, "pitch": 59, "duration": 12, "velocity": 63}, {"time": 3328, "pitch": 63, "duration": 12, "velocity": 66}, {"time": 3328, "pitch": 68, "duration": 12, "velocity": 62}, {"time": 3340, "pitch": 51, "duration": 2, "velocity": 67}, {"time": 3352, "pitch": 47, "duration": 36, "velocity": 67}, {"time": 3352, "pitch": 61, "duration": 13, "velocity": 51}, {"time": 3352, "pitch": 63, "duration": 13, "velocity": 66}, {"time": 3352, "pitch": 66, "duration": 14, "velocity": 66}, {"time": 3364, "pitch": 54, "duration": 16, "velocity": 33}, {"time": 3376, "pitch": 59, "duration": 11, "velocity": 47}, {"time": 3376, "pitch": 61, "duration": 12, "velocity": 45}, {"time": 3376, "pitch": 63, "duration": 11, "velocity": 49}, {"time": 3376, "pitch": 66, "duration": 12, "velocity": 54}, {"time": 3388, "pitch": 54, "duration": 3, "velocity": 51}, {"time": 3400, "pitch": 37, "duration": 14, "velocity": 60}, {"time": 3400, "pitch": 49, "duration": 14, "velocity": 47}, {"time": 3400, "pitch": 61, "duration": 14, "velocity": 57}, {"time": 3400, "pitch": 64, "duration": 15, "velocity": 60}, {"time": 3400, "pitch": 68, "duration": 14, "velocity": 58}, {"time": 3424, "pitch": 39, "duration": 12, "velocity": 67}, {"time": 3424, "pitch": 51, "duration": 14, "velocity": 44}, {"time": 3424, "pitch": 61, "duration": 14, "velocity": 61}, {"time": 3424, "pitch": 66, "duration": 13, "velocity": 66}, {"time": 3424, "pitch": 70, "duration": 13, "velocity": 66}, {"time": 3448, "pitch": 44, "duration": 39, "velocity": 67}, {"time": 3448, "pitch": 63, "duration": 13, "velocity": 64}, {"time": 3448, "pitch": 68, "duration": 13, "velocity": 66}, {"time": 3448, "pitch": 71, "duration": 13, "velocity": 63}, {"time": 3472, "pitch": 63, "duration": 12, "velocity": 62}, {"time": 3472, "pitch": 68, "duration": 12, "velocity": 66}, {"time": 3472, "pitch": 71, "duration": 12, "velocity": 59}, {"time": 3484, "pitch": 56, "duration": 6, "velocity": 46}, {"time": 3496, "pitch": 44, "duration": 39, "velocity": 64}, {"time": 3496, "pitch": 63, "duration": 9, "velocity": 57}, {"time": 3496, "pitch": 66, "duration": 8, "velocity": 63}, {"time": 3496, "pitch": 71, "duration": 9, "velocity": 57}, {"time": 3502, "pitch": 51, "duration": 36, "velocity": 49}, {"time": 3508, "pitch": 56, "duration": 25, "velocity": 50}, {"time": 3514, "pitch": 58, "duration": 6, "velocity": 57}, {"time": 3520, "pitch": 59, "duration": 3, "velocity": 70}, {"time": 3526, "pitch": 63, "duration": 6, "velocity": 62}, {"time": 3532, "pitch": 68, "duration": 6, "velocity": 54}, {"time": 3538, "pitch": 70, "duration": 4, "velocity": 61}, {"time": 3544, "pitch": 44, "duration": 43, "velocity": 70}, {"time": 3544, "pitch": 63, "duration": 10, "velocity": 64}, {"time": 3544, "pitch": 68, "duration": 13, "velocity": 70}, {"time": 3544, "pitch": 71, "duration": 12, "velocity": 66}, {"time": 3550, "pitch": 51, "duration": 29, "velocity": 59}, {"time": 3556, "pitch": 56, "duration": 13, "velocity": 49}, {"time": 3562, "pitch": 63, "duration": 3, "velocity": 58}, {"time": 3562, "pitch": 71, "duration": 5, "velocity": 61}, {"time": 3568, "pitch": 61, "duration": 7, "velocity": 67}, {"time": 3568, "pitch": 70, "duration": 9, "velocity": 72}, {"time": 3574, "pitch": 56, "duration": 7, "velocity": 36}, {"time": 3580, "pitch": 61, "duration": 6, "velocity": 63}, {"time": 3580, "pitch": 66, "duration": 7, "velocity": 69}, {"time": 3586, "pitch": 51, "duration": 4, "velocity": 37}, {"time": 3592, "pitch": 44, "duration": 15, "velocity": 62}, {"time": 3592, "pitch": 56, "duration": 8, "velocity": 60}, {"time": 3592, "pitch": 59, "duration": 7, "velocity": 69}, {"time": 3592, "pitch": 63, "duration": 8, "velocity": 69}, {"time": 3592, "pitch": 68, "duration": 7, "velocity": 73}, {"time": 3601, "pitch": 59, "duration": 3, "velocity": 45}, {"time": 3610, "pitch": 44, "duration": 29, "velocity": 72}, {"time": 3610, "pitch": 56, "duration": 8, "velocity": 75}, {"time": 3610, "pitch": 59, "duration": 11, "velocity": 72}, {"time": 3610, "pitch": 63, "duration": 11, "velocity": 72}, {"time": 3610, "pitch": 68, "duration": 11, "velocity": 73}, {"time": 3622, "pitch": 56, "duration": 7, "velocity": 47}, {"time": 3628, "pitch": 59, "duration": 4, "velocity": 75}, {"time": 3628, "pitch": 63, "duration": 5, "velocity": 78}, {"time": 3628, "pitch": 68, "duration": 4, "velocity": 75}, {"time": 3634, "pitch": 56, "duration": 6, "velocity": 57}, {"time": 3640, "pitch": 47, "duration": 27, "velocity": 67}, {"time": 3640, "pitch": 59, "duration": 9, "velocity": 75}, {"time": 3640, "pitch": 63, "duration": 9, "velocity": 75}, {"time": 3640, "pitch": 66, "duration": 10, "velocity": 75}, {"time": 3658, "pitch": 59, "duration": 11, "velocity": 70}, {"time": 3658, "pitch": 63, "duration": 12, "velocity": 67}, {"time": 3658, "pitch": 66, "duration": 11, "velocity": 70}, {"time": 3670, "pitch": 47, "duration": 7, "velocity": 62}, {"time": 3676, "pitch": 59, "duration": 2, "velocity": 76}, {"time": 3676, "pitch": 63, "duration": 2, "velocity": 73}, {"time": 3676, "pitch": 66, "duration": 3, "velocity": 73}, {"time": 3682, "pitch": 47, "duration": 3, "velocity": 63}, {"time": 3688, "pitch": 37, "duration": 42, "velocity": 73}, {"time": 3688, "pitch": 49, "duration": 15, "velocity": 72}, {"time": 3688, "pitch": 61, "duration": 14, "velocity": 72}, {"time": 3688, "pitch": 64, "duration": 14, "velocity": 75}, {"time": 3688, "pitch": 68, "duration": 11, "velocity": 72}, {"time": 3706, "pitch": 49, "duration": 9, "velocity": 44}, {"time": 3706, "pitch": 61, "duration": 11, "velocity": 70}, {"time": 3706, "pitch": 64, "duration": 11, "velocity": 73}, {"time": 3706, "pitch": 68, "duration": 11, "velocity": 72}, {"time": 3718, "pitch": 49, "duration": 7, "velocity": 53}, {"time": 3724, "pitch": 61, "duration": 4, "velocity": 73}, {"time": 3724, "pitch": 64, "duration": 4, "velocity": 76}, {"time": 3724, "pitch": 68, "duration": 4, "velocity": 70}, {"time": 3736, "pitch": 40, "duration": 13, "velocity": 73}, {"time": 3736, "pitch": 52, "duration": 6, "velocity": 75}, {"time": 3736, "pitch": 59, "duration": 12, "velocity": 73}, {"time": 3736, "pitch": 64, "duration": 12, "velocity": 75}, {"time": 3736, "pitch": 68, "duration": 12, "velocity": 73}, {"time": 3745, "pitch": 52, "duration": 3, "velocity": 67}, {"time": 3760, "pitch": 39, "duration": 13, "velocity": 73}, {"time": 3760, "pitch": 51, "duration": 8, "velocity": 73}, {"time": 3760, "pitch": 58, "duration": 14, "velocity": 73}, {"time": 3760, "pitch": 61, "duration": 14, "velocity": 78}, {"time": 3760, "pitch": 66, "duration": 13, "velocity": 73}, {"time": 3772, "pitch": 51, "duration": 3, "velocity": 85}, {"time": 3784, "pitch": 44, "duration": 45, "velocity": 73}, {"time": 3784, "pitch": 56, "duration": 24, "velocity": 76}, {"time": 3784, "pitch": 59, "duration": 7, "velocity": 76}, {"time": 3784, "pitch": 63, "duration": 10, "velocity": 76}, {"time": 3784, "pitch": 68, "duration": 11, "velocity": 76}, {"time": 3796, "pitch": 59, "duration": 1, "velocity": 35}, {"time": 3802, "pitch": 59, "duration": 12, "velocity": 80}, {"time": 3802, "pitch": 63, "duration": 13, "velocity": 75}, {"time": 3802, "pitch": 68, "duration": 12, "velocity": 73}, {"time": 3814, "pitch": 56, "duration": 7, "velocity": 50}, {"time": 3820, "pitch": 59, "duration": 4, "velocity": 78}, {"time": 3820, "pitch": 63, "duration": 5, "velocity": 80}, {"time": 3820, "pitch": 68, "duration": 5, "velocity": 73}, {"time": 3826, "pitch": 56, "duration": 5, "velocity": 67}, {"time": 3832, "pitch": 47, "duration": 27, "velocity": 75}, {"time": 3832, "pitch": 59, "duration": 10, "velocity": 80}, {"time": 3832, "pitch": 63, "duration": 12, "velocity": 80}, {"time": 3832, "pitch": 66, "duration": 10, "velocity": 78}, {"time": 3850, "pitch": 59, "duration": 13, "velocity": 72}, {"time": 3850, "pitch": 63, "duration": 13, "velocity": 70}, {"time": 3850, "pitch": 66, "duration": 12, "velocity": 72}, {"time": 3862, "pitch": 47, "duration": 6, "velocity": 62}, {"time": 3868, "pitch": 59, "duration": 2, "velocity": 78}, {"time": 3868, "pitch": 63, "duration": 2, "velocity": 80}, {"time": 3868, "pitch": 66, "duration": 3, "velocity": 78}, {"time": 3874, "pitch": 47, "duration": 1, "velocity": 64}, {"time": 3880, "pitch": 37, "duration": 18, "velocity": 64}, {"time": 3880, "pitch": 49, "duration": 20, "velocity": 58}, {"time": 3880, "pitch": 61, "duration": 15, "velocity": 63}, {"time": 3880, "pitch": 64, "duration": 15, "velocity": 76}, {"time": 3880, "pitch": 68, "duration": 14, "velocity": 69}, {"time": 3898, "pitch": 61, "duration": 2, "velocity": 72}, {"time": 3898, "pitch": 64, "duration": 4, "velocity": 78}, {"time": 3898, "pitch": 68, "duration": 4, "velocity": 72}, {"time": 3904, "pitch": 39, "duration": 13, "velocity": 66}, {"time": 3904, "pitch": 51, "duration": 9, "velocity": 80}, {"time": 3904, "pitch": 63, "duration": 15, "velocity": 85}, {"time": 3904, "pitch": 66, "duration": 15, "velocity": 76}, {"time": 3904, "pitch": 70, "duration": 13, "velocity": 75}, {"time": 3916, "pitch": 51, "duration": 3, "velocity": 62}, {"time": 3928, "pitch": 44, "duration": 33, "velocity": 75}, {"time": 3928, "pitch": 59, "duration": 11, "velocity": 78}, {"time": 3928, "pitch": 63, "duration": 11, "velocity": 80}, {"time": 3928, "pitch": 68, "duration": 12, "velocity": 75}, {"time": 3934, "pitch": 51, "duration": 27, "velocity": 64}, {"time": 3940, "pitch": 56, "duration": 23, "velocity": 67}, {"time": 3946, "pitch": 58, "duration": 6, "velocity": 66}, {"time": 3952, "pitch": 59, "duration": 2, "velocity": 72}, {"time": 3958, "pitch": 63, "duration": 5, "velocity": 67}, {"time": 3964, "pitch": 68, "duration": 4, "velocity": 62}, {"time": 3970, "pitch": 70, "duration": 4, "velocity": 66}, {"time": 3976, "pitch": 56, "duration": 27, "velocity": 78}, {"time": 3976, "pitch": 63, "duration": 11, "velocity": 80}, {"time": 3976, "pitch": 68, "duration": 14, "velocity": 75}, {"time": 3976, "pitch": 71, "duration": 12, "velocity": 76}, {"time": 3988, "pitch": 59, "duration": 2, "velocity": 37}, {"time": 3994, "pitch": 63, "duration": 13, "velocity": 78}, {"time": 3994, "pitch": 68, "duration": 13, "velocity": 75}, {"time": 3994, "pitch": 71, "duration": 12, "velocity": 75}, {"time": 4006, "pitch": 56, "duration": 14, "velocity": 66}, {"time": 4012, "pitch": 63, "duration": 6, "velocity": 78}, {"time": 4012, "pitch": 68, "duration": 9, "velocity": 75}, {"time": 4012, "pitch": 71, "duration": 5, "velocity": 76}, {"time": 4018, "pitch": 54, "duration": 4, "velocity": 63}, {"time": 4024, "pitch": 47, "duration": 42, "velocity": 78}, {"time": 4024, "pitch": 63, "duration": 12, "velocity": 73}, {"time": 4024, "pitch": 66, "duration": 11, "velocity": 75}, {"time": 4024, "pitch": 71, "duration": 12, "velocity": 76}, {"time": 4036, "pitch": 59, "duration": 12, "velocity": 40}, {"time": 4042, "pitch": 63, "duration": 11, "velocity": 70}, {"time": 4042, "pitch": 66, "duration": 12, "velocity": 73}, {"time": 4042, "pitch": 71, "duration": 11, "velocity": 72}, {"time": 4054, "pitch": 59, "duration": 6, "velocity": 40}, {"time": 4060, "pitch": 63, "duration": 3, "velocity": 78}, {"time": 4060, "pitch": 66, "duration": 3, "velocity": 76}, {"time": 4060, "pitch": 71, "duration": 3, "velocity": 73}, {"time": 4066, "pitch": 59, "duration": 2, "velocity": 48}, {"time": 4072, "pitch": 49, "duration": 36, "velocity": 70}, {"time": 4072, "pitch": 59, "duration": 10, "velocity": 76}, {"time": 4072, "pitch": 64, "duration": 11, "velocity": 76}, {"time": 4072, "pitch": 68, "duration": 7, "velocity": 73}, {"time": 4084, "pitch": 56, "duration": 9, "velocity": 40}, {"time": 4090, "pitch": 61, "duration": 13, "velocity": 76}, {"time": 4090, "pitch": 64, "duration": 11, "velocity": 80}, {"time": 4090, "pitch": 68, "duration": 10, "velocity": 75}, {"time": 4102, "pitch": 56, "duration": 5, "velocity": 63}, {"time": 4108, "pitch": 61, "duration": 4, "velocity": 75}, {"time": 4108, "pitch": 64, "duration": 4, "velocity": 80}, {"time": 4108, "pitch": 68, "duration": 2, "velocity": 33}, {"time": 4114, "pitch": 66, "duration": 4, "velocity": 63}, {"time": 4120, "pitch": 40, "duration": 15, "velocity": 72}, {"time": 4120, "pitch": 52, "duration": 7, "velocity": 66}, {"time": 4120, "pitch": 59, "duration": 13, "velocity": 88}, {"time": 4120, "pitch": 64, "duration": 15, "velocity": 85}, {"time": 4120, "pitch": 68, "duration": 12, "velocity": 80}, {"time": 4132, "pitch": 52, "duration": 2, "velocity": 70}, {"time": 4144, "pitch": 39, "duration": 12, "velocity": 76}, {"time": 4144, "pitch": 51, "duration": 6, "velocity": 73}, {"time": 4144, "pitch": 61, "duration": 12, "velocity": 85}, {"time": 4144, "pitch": 66, "duration": 11, "velocity": 78}, {"time": 4144, "pitch": 70, "duration": 8, "velocity": 76}, {"time": 4156, "pitch": 51, "duration": 3, "velocity": 75}, {"time": 4162, "pitch": 66, "duration": 5, "velocity": 67}, {"time": 4165, "pitch": 68, "duration": 4, "velocity": 70}, {"time": 4168, "pitch": 44, "duration": 45, "velocity": 73}, {"time": 4168, "pitch": 63, "duration": 11, "velocity": 75}, {"time": 4168, "pitch": 71, "duration": 11, "velocity": 76}, {"time": 4174, "pitch": 51, "duration": 32, "velocity": 57}, {"time": 4180, "pitch": 56, "duration": 12, "velocity": 70}, {"time": 4186, "pitch": 59, "duration": 13, "velocity": 85}, {"time": 4186, "pitch": 63, "duration": 13, "velocity": 93}, {"time": 4186, "pitch": 68, "duration": 10, "velocity": 70}, {"time": 4198, "pitch": 56, "duration": 7, "velocity": 48}, {"time": 4204, "pitch": 59, "duration": 7, "velocity": 76}, {"time": 4204, "pitch": 63, "duration": 8, "velocity": 80}, {"time": 4204, "pitch": 68, "duration": 8, "velocity": 76}, {"time": 4210, "pitch": 51, "duration": 3, "velocity": 44}, {"time": 4210, "pitch": 56, "duration": 3, "velocity": 60}, {"time": 4216, "pitch": 47, "duration": 15, "velocity": 75}, {"time": 4216, "pitch": 59, "duration": 13, "velocity": 80}, {"time": 4216, "pitch": 63, "duration": 15, "velocity": 78}, {"time": 4216, "pitch": 66, "duration": 9, "velocity": 78}, {"time": 4234, "pitch": 59, "duration": 2, "velocity": 72}, {"time": 4234, "pitch": 63, "duration": 3, "velocity": 75}, {"time": 4234, "pitch": 66, "duration": 5, "velocity": 76}, {"time": 4246, "pitch": 59, "duration": 7, "velocity": 75}, {"time": 4246, "pitch": 63, "duration": 10, "velocity": 82}, {"time": 4246, "pitch": 66, "duration": 7, "velocity": 76}, {"time": 4258, "pitch": 47, "duration": 2, "velocity": 64}, {"time": 4264, "pitch": 37, "duration": 13, "velocity": 75}, {"time": 4264, "pitch": 49, "duration": 9, "velocity": 64}, {"time": 4264, "pitch": 61, "duration": 13, "velocity": 76}, {"time": 4264, "pitch": 64, "duration": 13, "velocity": 76}, {"time": 4264, "pitch": 68, "duration": 11, "velocity": 73}, {"time": 4276, "pitch": 49, "duration": 3, "velocity": 66}, {"time": 4282, "pitch": 64, "duration": 3, "velocity": 63}, {"time": 4282, "pitch": 68, "duration": 3, "velocity": 51}, {"time": 4288, "pitch": 39, "duration": 12, "velocity": 75}, {"time": 4288, "pitch": 51, "duration": 9, "velocity": 76}, {"time": 4288, "pitch": 61, "duration": 14, "velocity": 88}, {"time": 4288, "pitch": 66, "duration": 13, "velocity": 72}, {"time": 4288, "pitch": 70, "duration": 11, "velocity": 73}, {"time": 4300, "pitch": 51, "duration": 3, "velocity": 75}, {"time": 4312, "pitch": 44, "duration": 41, "velocity": 73}, {"time": 4312, "pitch": 63, "duration": 10, "velocity": 76}, {"time": 4312, "pitch": 68, "duration": 10, "velocity": 75}, {"time": 4312, "pitch": 71, "duration": 8, "velocity": 78}, {"time": 4318, "pitch": 51, "duration": 41, "velocity": 61}, {"time": 4324, "pitch": 56, "duration": 27, "velocity": 64}, {"time": 4330, "pitch": 58, "duration": 5, "velocity": 72}, {"time": 4336, "pitch": 59, "duration": 3, "velocity": 66}, {"time": 4342, "pitch": 63, "duration": 4, "velocity": 78}, {"time": 4348, "pitch": 68, "duration": 8, "velocity": 63}, {"time": 4354, "pitch": 70, "duration": 4, "velocity": 61}, {"time": 4360, "pitch": 44, "duration": 15, "velocity": 62}, {"time": 4360, "pitch": 56, "duration": 8, "velocity": 60}, {"time": 4360, "pitch": 59, "duration": 7, "velocity": 69}, {"time": 4360, "pitch": 63, "duration": 8, "velocity": 69}, {"time": 4360, "pitch": 68, "duration": 7, "velocity": 73}, {"time": 4369, "pitch": 59, "duration": 3, "velocity": 45}, {"time": 4378, "pitch": 44, "duration": 29, "velocity": 72}, {"time": 4378, "pitch": 56, "duration": 8, "velocity": 75}, {"time": 4378, "pitch": 59, "duration": 11, "velocity": 72}, {"time": 4378, "pitch": 63, "duration": 11, "velocity": 72}, {"time": 4378, "pitch": 68, "duration": 11, "velocity": 73}, {"time": 4390, "pitch": 56, "duration": 7, "velocity": 47}, {"time": 4396, "pitch": 59, "duration": 4, "velocity": 75}, {"time": 4396, "pitch": 63, "duration": 5, "velocity": 78}, {"time": 4396, "pitch": 68, "duration": 4, "velocity": 75}, {"time": 4402, "pitch": 56, "duration": 6, "velocity": 57}, {"time": 4408, "pitch": 47, "duration": 27, "velocity": 67}, {"time": 4408, "pitch": 59, "duration": 9, "velocity": 75}, {"time": 4408, "pitch": 63, "duration": 9, "velocity": 75}, {"time": 4408, "pitch": 66, "duration": 10, "velocity": 75}, {"time": 4426, "pitch": 59, "duration": 11, "velocity": 70}, {"time": 4426, "pitch": 63, "duration": 12, "velocity": 67}, {"time": 4426, "pitch": 66, "duration": 11, "velocity": 70}, {"time": 4438, "pitch": 47, "duration": 7, "velocity": 62}, {"time": 4444, "pitch": 59, "duration": 2, "velocity": 76}, {"time": 4444, "pitch": 63, "duration": 2, "velocity": 73}, {"time": 4444, "pitch": 66, "duration": 3, "velocity": 73}, {"time": 4450, "pitch": 47, "duration": 3, "velocity": 63}, {"time": 4456, "pitch": 37, "duration": 42, "velocity": 73}, {"time": 4456, "pitch": 49, "duration": 15, "velocity": 72}, {"time": 4456, "pitch": 61, "duration": 14, "velocity": 72}, {"time": 4456, "pitch": 64, "duration": 14, "velocity": 75}, {"time": 4456, "pitch": 68, "duration": 11, "velocity": 72}, {"time": 4474, "pitch": 49, "duration": 9, "velocity": 44}, {"time": 4474, "pitch": 61, "duration": 11, "velocity": 70}, {"time": 4474, "pitch": 64, "duration": 11, "velocity": 73}, {"time": 4474, "pitch": 68, "duration": 11, "velocity": 72}, {"time": 4486, "pitch": 49, "duration": 7, "velocity": 53}, {"time": 4492, "pitch": 61, "duration": 4, "velocity": 73}, {"time": 4492, "pitch": 64, "duration": 4, "velocity": 76}, {"time": 4492, "pitch": 68, "duration": 4, "velocity": 70}, {"time": 4504, "pitch": 40, "duration": 13, "velocity": 73}, {"time": 4504, "pitch": 52, "duration": 6, "velocity": 75}, {"time": 4504, "pitch": 59, "duration": 12, "velocity": 73}, {"time": 4504, "pitch": 64, "duration": 12, "velocity": 75}, {"time": 4504, "pitch": 68, "duration": 12, "velocity": 73}, {"time": 4513, "pitch": 52, "duration": 3, "velocity": 67}, {"time": 4528, "pitch": 39, "duration": 13, "velocity": 73}, {"time": 4528, "pitch": 51, "duration": 8, "velocity": 73}, {"time": 4528, "pitch": 58, "duration": 14, "velocity": 73}, {"time": 4528, "pitch": 61, "duration": 14, "velocity": 78}, {"time": 4528, "pitch": 66, "duration": 13, "velocity": 73}, {"time": 4540, "pitch": 51, "duration": 3, "velocity": 85}, {"time": 4552, "pitch": 44, "duration": 45, "velocity": 73}, {"time": 4552, "pitch": 56, "duration": 24, "velocity": 76}, {"time": 4552, "pitch": 59, "duration": 7, "velocity": 76}, {"time": 4552, "pitch": 63, "duration": 10, "velocity": 76}, {"time": 4552, "pitch": 68, "duration": 11, "velocity": 76}, {"time": 4564, "pitch": 59, "duration": 1, "velocity": 35}, {"time": 4570, "pitch": 59, "duration": 12, "velocity": 80}, {"time": 4570, "pitch": 63, "duration": 13, "velocity": 75}, {"time": 4570, "pitch": 68, "duration": 12, "velocity": 73}, {"time": 4582, "pitch": 56, "duration": 7, "velocity": 50}, {"time": 4588, "pitch": 59, "duration": 4, "velocity": 78}, {"time": 4588, "pitch": 63, "duration": 5, "velocity": 80}, {"time": 4588, "pitch": 68, "duration": 5, "velocity": 73}, {"time": 4594, "pitch": 56, "duration": 5, "velocity": 67}, {"time": 4600, "pitch": 47, "duration": 27, "velocity": 75}, {"time": 4600, "pitch": 59, "duration": 10, "velocity": 80}, {"time": 4600, "pitch": 63, "duration": 12, "velocity": 80}, {"time": 4600, "pitch": 66, "duration": 10, "velocity": 78}, {"time": 4618, "pitch": 59, "duration": 13, "velocity": 72}, {"time": 4618, "pitch": 63, "duration": 13, "velocity": 70}, {"time": 4618, "pitch": 66, "duration": 12, "velocity": 72}, {"time": 4630, "pitch": 47, "duration": 6, "velocity": 62}, {"time": 4636, "pitch": 59, "duration": 2, "velocity": 78}, {"time": 4636, "pitch": 63, "duration": 2, "velocity": 80}, {"time": 4636, "pitch": 66, "duration": 3, "velocity": 78}, {"time": 4642, "pitch": 47, "duration": 1, "velocity": 64}, {"time": 4648, "pitch": 37, "duration": 18, "velocity": 64}, {"time": 4648, "pitch": 49, "duration": 20, "velocity": 58}, {"time": 4648, "pitch": 61, "duration": 15, "velocity": 63}, {"time": 4648, "pitch": 64, "duration": 15, "velocity": 76}, {"time": 4648, "pitch": 68, "duration": 14, "velocity": 69}, {"time": 4666, "pitch": 61, "duration": 2, "velocity": 72}, {"time": 4666, "pitch": 64, "duration": 4, "velocity": 78}, {"time": 4666, "pitch": 68, "duration": 4, "velocity": 72}, {"time": 4672, "pitch": 39, "duration": 13, "velocity": 66}, {"time": 4672, "pitch": 51, "duration": 9, "velocity": 80}, {"time": 4672, "pitch": 63, "duration": 15, "velocity": 85}, {"time": 4672, "pitch": 66, "duration": 15, "velocity": 76}, {"time": 4672, "pitch": 70, "duration": 13, "velocity": 75}, {"time": 4684, "pitch": 51, "duration": 3, "velocity": 62}, {"time": 4696, "pitch": 44, "duration": 33, "velocity": 75}, {"time": 4696, "pitch": 59, "duration": 11, "velocity": 78}, {"time": 4696, "pitch": 63, "duration": 11, "velocity": 80}, {"time": 4696, "pitch": 68, "duration": 12, "velocity": 75}, {"time": 4702, "pitch": 51, "duration": 27, "velocity": 64}, {"time": 4708, "pitch": 56, "duration": 23, "velocity": 67}, {"time": 4714, "pitch": 58, "duration": 6, "velocity": 66}, {"time": 4720, "pitch": 59, "duration": 2, "velocity": 72}, {"time": 4726, "pitch": 63, "duration": 5, "velocity": 67}, {"time": 4732, "pitch": 68, "duration": 4, "velocity": 62}, {"time": 4738, "pitch": 70, "duration": 4, "velocity": 66}, {"time": 4744, "pitch": 40, "duration": 14, "velocity": 67}, {"time": 4744, "pitch": 52, "duration": 14, "velocity": 64}, {"time": 4744, "pitch": 56, "duration": 15, "velocity": 67}, {"time": 4744, "pitch": 59, "duration": 15, "velocity": 73}, {"time": 4744, "pitch": 64, "duration": 15, "velocity": 70}, {"time": 4768, "pitch": 39, "duration": 13, "velocity": 67}, {"time": 4768, "pitch": 51, "duration": 15, "velocity": 66}, {"time": 4768, "pitch": 58, "duration": 17, "velocity": 73}, {"time": 4768, "pitch": 61, "duration": 16, "velocity": 76}, {"time": 4768, "pitch": 66, "duration": 18, "velocity": 75}, {"time": 4792, "pitch": 44, "duration": 38, "velocity": 69}, {"time": 4792, "pitch": 59, "duration": 8, "velocity": 72}, {"time": 4792, "pitch": 63, "duration": 8, "velocity": 72}, {"time": 4798, "pitch": 56, "duration": 33, "velocity": 62}, {"time": 4804, "pitch": 58, "duration": 7, "velocity": 63}, {"time": 4810, "pitch": 59, "duration": 3, "velocity": 73}, {"time": 4816, "pitch": 63, "duration": 4, "velocity": 58}, {"time": 4822, "pitch": 68, "duration": 7, "velocity": 66}, {"time": 4828, "pitch": 70, "duration": 6, "velocity": 63}, {"time": 4834, "pitch": 71, "duration": 3, "velocity": 70}, {"time": 4840, "pitch": 44, "duration": 23, "velocity": 45}, {"time": 4840, "pitch": 51, "duration": 24, "velocity": 50}, {"time": 4840, "pitch": 56, "duration": 24, "velocity": 47}, {"time": 4840, "pitch": 59, "duration": 24, "velocity": 58}, {"time": 4840, "pitch": 63, "duration": 25, "velocity": 59}, {"time": 4840, "pitch": 68, "duration": 25, "velocity": 60}, {"time": 4876, "pitch": 46, "duration": 4, "velocity": 46}, {"time": 4876, "pitch": 52, "duration": 4, "velocity": 57}, {"time": 4876, "pitch": 58, "duration": 4, "velocity": 51}, {"time": 4876, "pitch": 61, "duration": 6, "velocity": 57}, {"time": 4876, "pitch": 66, "duration": 6, "velocity": 58}, {"time": 4876, "pitch": 70, "duration": 7, "velocity": 63}, {"time": 4888, "pitch": 47, "duration": 34, "velocity": 45}, {"time": 4888, "pitch": 54, "duration": 34, "velocity": 44}, {"time": 4888, "pitch": 59, "duration": 34, "velocity": 51}, {"time": 4888, "pitch": 63, "duration": 35, "velocity": 59}, {"time": 4888, "pitch": 66, "duration": 34, "velocity": 61}, {"time": 4888, "pitch": 71, "duration": 34, "velocity": 58}, {"time": 4936, "pitch": 40, "duration": 37, "velocity": 54}, {"time": 4936, "pitch": 52, "duration": 11, "velocity": 59}, {"time": 4936, "pitch": 56, "duration": 12, "velocity": 63}, {"time": 4936, "pitch": 59, "duration": 13, "velocity": 70}, {"time": 4936, "pitch": 64, "duration": 26, "velocity": 66}, {"time": 4954, "pitch": 56, "duration": 19, "velocity": 48}, {"time": 4960, "pitch": 59, "duration": 13, "velocity": 47}, {"time": 4966, "pitch": 64, "duration": 7, "velocity": 76}, {"time": 4984, "pitch": 42, "duration": 37, "velocity": 52}, {"time": 4984, "pitch": 54, "duration": 10, "velocity": 49}, {"time": 4984, "pitch": 58, "duration": 17, "velocity": 64}, {"time": 4984, "pitch": 61, "duration": 15, "velocity": 70}, {"time": 4984, "pitch": 66, "duration": 16, "velocity": 63}, {"time": 5002, "pitch": 54, "duration": 20, "velocity": 44}, {"time": 5008, "pitch": 58, "duration": 5, "velocity": 59}, {"time": 5014, "pitch": 59, "duration": 4, "velocity": 70}, {"time": 5020, "pitch": 61, "duration": 6, "velocity": 60}, {"time": 5026, "pitch": 66, "duration": 5, "velocity": 66}, {"time": 5032, "pitch": 44, "duration": 45, "velocity": 67}, {"time": 5032, "pitch": 59, "duration": 16, "velocity": 73}, {"time": 5032, "pitch": 63, "duration": 20, "velocity": 73}, {"time": 5050, "pitch": 58, "duration": 13, "velocity": 61}, {"time": 5050, "pitch": 61, "duration": 14, "velocity": 62}, {"time": 5062, "pitch": 56, "duration": 8, "velocity": 45}, {"time": 5068, "pitch": 59, "duration": 4, "velocity": 70}, {"time": 5068, "pitch": 63, "duration": 6, "velocity": 70}, {"time": 5080, "pitch": 47, "duration": 26, "velocity": 72}, {"time": 5080, "pitch": 54, "duration": 31, "velocity": 62}, {"time": 5080, "pitch": 59, "duration": 32, "velocity": 67}, {"time": 5080, "pitch": 63, "duration": 31, "velocity": 67}, {"time": 5110, "pitch": 47, "duration": 16, "velocity": 44}, {"time": 5116, "pitch": 54, "duration": 4, "velocity": 76}, {"time": 5116, "pitch": 59, "duration": 9, "velocity": 75}, {"time": 5116, "pitch": 63, "duration": 7, "velocity": 80}, {"time": 5128, "pitch": 40, "duration": 13, "velocity": 60}, {"time": 5128, "pitch": 52, "duration": 12, "velocity": 67}, {"time": 5128, "pitch": 56, "duration": 14, "velocity": 66}, {"time": 5128, "pitch": 59, "duration": 14, "velocity": 73}, {"time": 5128, "pitch": 64, "duration": 13, "velocity": 69}, {"time": 5152, "pitch": 39, "duration": 13, "velocity": 59}, {"time": 5152, "pitch": 51, "duration": 15, "velocity": 58}, {"time": 5152, "pitch": 54, "duration": 14, "velocity": 72}, {"time": 5152, "pitch": 58, "duration": 13, "velocity": 72}, {"time": 5152, "pitch": 63, "duration": 15, "velocity": 67}, {"time": 5176, "pitch": 44, "duration": 90, "velocity": 72}, {"time": 5176, "pitch": 59, "duration": 13, "velocity": 72}, {"time": 5176, "pitch": 63, "duration": 13, "velocity": 69}, {"time": 5182, "pitch": 51, "duration": 82, "velocity": 47}, {"time": 5188, "pitch": 56, "duration": 76, "velocity": 57}, {"time": 5194, "pitch": 58, "duration": 7, "velocity": 58}, {"time": 5200, "pitch": 59, "duration": 2, "velocity": 66}, {"time": 5206, "pitch": 63, "duration": 4, "velocity": 70}, {"time": 5212, "pitch": 68, "duration": 8, "velocity": 61}, {"time": 5218, "pitch": 70, "duration": 5, "velocity": 54}, {"time": 5224, "pitch": 63, "duration": 14, "velocity": 47}, {"time": 5224, "pitch": 71, "duration": 16, "velocity": 55}], "annotations": [{"time": 232, "annotation": {"number": 64, "value": 127}, "group": "control_change"}, {"time": 267, "annotation": {"number": 64, "value": 0}, "group": "control_change"}, {"time": 270, "annotation": {"number": 64, "value": 127}, "group": "control_change"}, {"time": 281, "annotation": {"number": 64, "value": 0}, "group": "control_change"}, {"time": 285, "annotation": {"number": 64, "value": 127}, "group": "control_change"}, {"time": 328, "annotation": {"number": 64, "value": 0}, "group": "control_change"}, {"time": 329, "annotation": {"number": 64, "value": 127}, "group": "control_change"}, {"time": 376, "annotation": {"number": 64, "value": 0}, "group": "control_change"}, {"time": 380, "annotation": {"number": 64, "value": 127}, "group": "control_change"}, {"time": 424, "annotation": {"number": 64, "value": 0}, "group": "control_change"}, {"time": 428, "annotation": {"number": 64, "value": 127}, "group": "control_change"}, {"time": 472, "annotation": {"number": 64, "value": 0}, "group": "control_change"}, {"time": 477, "annotation": {"number": 64, "value": 127}, "group": "control_change"}, {"time": 520, "annotation": {"number": 64, "value": 0}, "group": "control_change"}, {"time": 521, "annotation": {"number": 64, "value": 127}, "group": "control_change"}, {"time": 543, "annotation": {"number": 64, "value": 0}, "group": "control_change"}, {"time": 547, "annotation": {"number": 64, "value": 127}, "group": "control_change"}, {"time": 568, "annotation": {"number": 64, "value": 0}, "group": "control_change"}, {"time": 572, "annotation": {"number": 64, "value": 127}, "group": "control_change"}, {"time": 664, "annotation": {"number": 64, "value": 127}, "group": "control_change"}, {"time": 711, "annotation": {"number": 64, "value": 0}, "group": "control_change"}, {"time": 712, "annotation": {"number": 64, "value": 0}, "group": "control_change"}, {"time": 713, "annotation": {"number": 64, "value": 127}, "group": "control_change"}, {"time": 807, "annotation": {"number": 64, "value": 0}, "group": "control_change"}, {"time": 809, "annotation": {"number": 64, "value": 127}, "group": "control_change"}, {"time": 832, "annotation": {"number": 64, "value": 0}, "group": "control_change"}, {"time": 837, "annotation": {"number": 64, "value": 127}, "group": "control_change"}, {"time": 855, "annotation": {"number": 64, "value": 0}, "group": "control_change"}, {"time": 859, "annotation": {"number": 64, "value": 127}, "group": "control_change"}, {"time": 905, "annotation": {"number": 64, "value": 0}, "group": "control_change"}, {"time": 910, "annotation": {"number": 64, "value": 127}, "group": "control_change"}, {"time": 954, "annotation": {"number": 64, "value": 127}, "group": "control_change"}, {"time": 955, "annotation": {"number": 64, "value": 0}, "group": "control_change"}, {"time": 999, "annotation": {"number": 64, "value": 127}, "group": "control_change"}, {"time": 1047, "annotation": {"number": 64, "value": 0}, "group": "control_change"}, {"time": 1048, "annotation": {"number": 64, "value": 127}, "group": "control_change"}, {"time": 1097, "annotation": {"number": 64, "value": 0}, "group": "control_change"}, {"time": 1101, "annotation": {"number": 64, "value": 127}, "group": "control_change"}, {"time": 1192, "annotation": {"number": 64, "value": 0}, "group": "control_change"}, {"time": 1197, "annotation": {"number": 64, "value": 127}, "group": "control_change"}, {"time": 1216, "annotation": {"number": 64, "value": 0}, "group": "control_change"}, {"time": 1221, "annotation": {"number": 64, "value": 127}, "group": "control_change"}, {"time": 1240, "annotation": {"number": 64, "value": 0}, "group": "control_change"}, {"time": 1244, "annotation": {"number": 64, "value": 127}, "group": "control_change"}, {"time": 1288, "annotation": {"number": 64, "value": 0}, "group": "control_change"}, {"time": 1293, "annotation": {"number": 64, "value": 127}, "group": "control_change"}, {"time": 1336, "annotation": {"number": 64, "value": 0}, "group": "control_change"}, {"time": 1342, "annotation": {"number": 64, "value": 127}, "group": "control_change"}, {"time": 1384, "annotation": {"number": 64, "value": 0}, "group": "control_change"}, {"time": 1385, "annotation": {"number": 64, "value": 127}, "group": "control_change"}, {"time": 1409, "annotation": {"number": 64, "value": 0}, "group": "control_change"}, {"time": 1413, "annotation": {"number": 64, "value": 127}, "group": "control_change"}, {"time": 1432, "annotation": {"number": 64, "value": 0}, "group": "control_change"}, {"time": 1435, "annotation": {"number": 64, "value": 127}, "group": "control_change"}, {"time": 1576, "annotation": {"number": 64, "value": 0}, "group": "control_change"}, {"time": 1576, "annotation": {"number": 64, "value": 127}, "group": "control_change"}, {"time": 1622, "annotation": {"number": 64, "value": 0}, "group": "control_change"}, {"time": 1626, "annotation": {"number": 64, "value": 127}, "group": "control_change"}, {"time": 1671, "annotation": {"number": 64, "value": 0}, "group": "control_change"}, {"time": 1672, "annotation": {"number": 64, "value": 127}, "group": "control_change"}, {"time": 1718, "annotation": {"number": 64, "value": 0}, "group": "control_change"}, {"time": 1722, "annotation": {"number": 64, "value": 127}, "group": "control_change"}, {"time": 1743, "annotation": {"number": 64, "value": 0}, "group": "control_change"}, {"time": 1746, "annotation": {"number": 64, "value": 127}, "group": "control_change"}, {"time": 1765, "annotation": {"number": 64, "value": 0}, "group": "control_change"}, {"time": 1769, "annotation": {"number": 64, "value": 127}, "group": "control_change"}, {"time": 1814, "annotation": {"number": 64, "value": 0}, "group": "control_change"}, {"time": 1817, "annotation": {"number": 64, "value": 127}, "group": "control_change"}, {"time": 1861, "annotation": {"number": 64, "value": 0}, "group": "control_change"}, {"time": 1863, "annotation": {"number": 64, "value": 127}, "group": "control_change"}, {"time": 1887, "annotation": {"number": 64, "value": 0}, "group": "control_change"}, {"time": 1890, "annotation": {"number": 64, "value": 127}, "group": "control_change"}, {"time": 1910, "annotation": {"number": 64, "value": 0}, "group": "control_change"}, {"time": 1913, "annotation": {"number": 64, "value": 127}, "group": "control_change"}, {"time": 1958, "annotation": {"number": 64, "value": 0}, "group": "control_change"}, {"time": 1962, "annotation": {"number": 64, "value": 127}, "group": "control_change"}, {"time": 2006, "annotation": {"number": 64, "value": 0}, "group": "control_change"}, {"time": 2010, "annotation": {"number": 64, "value": 127}, "group": "control_change"}, {"time": 2054, "annotation": {"number": 64, "value": 0}, "group": "control_change"}, {"time": 2058, "annotation": {"number": 64, "value": 127}, "group": "control_change"}, {"time": 2102, "annotation": {"number": 64, "value": 0}, "group": "control_change"}, {"time": 2105, "annotation": {"number": 64, "value": 127}, "group": "control_change"}, {"time": 2126, "annotation": {"number": 64, "value": 0}, "group": "control_change"}, {"time": 2129, "annotation": {"number": 64, "value": 127}, "group": "control_change"}, {"time": 2150, "annotation": {"number": 64, "value": 0}, "group": "control_change"}, {"time": 2153, "annotation": {"number": 64, "value": 127}, "group": "control_change"}, {"time": 2196, "annotation": {"number": 64, "value": 0}, "group": "control_change"}, {"time": 2200, "annotation": {"number": 64, "value": 127}, "group": "control_change"}, {"time": 2249, "annotation": {"number": 64, "value": 0}, "group": "control_change"}, {"time": 2252, "annotation": {"number": 64, "value": 127}, "group": "control_change"}, {"time": 2271, "annotation": {"number": 64, "value": 0}, "group": "control_change"}, {"time": 2275, "annotation": {"number": 64, "value": 127}, "group": "control_change"}, {"time": 2293, "annotation": {"number": 64, "value": 0}, "group": "control_change"}, {"time": 2297, "annotation": {"number": 64, "value": 127}, "group": "control_change"}, {"time": 2344, "annotation": {"number": 64, "value": 0}, "group": "control_change"}, {"time": 2344, "annotation": {"number": 64, "value": 127}, "group": "control_change"}, {"time": 2392, "annotation": {"number": 64, "value": 0}, "group": "control_change"}, {"time": 2397, "annotation": {"number": 64, "value": 127}, "group": "control_change"}, {"time": 2439, "annotation": {"number": 64, "value": 0}, "group": "control_change"}, {"time": 2442, "annotation": {"number": 64, "value": 127}, "group": "control_change"}, {"time": 2487, "annotation": {"number": 64, "value": 0}, "group": "control_change"}, {"time": 2491, "annotation": {"number": 64, "value": 127}, "group": "control_change"}, {"time": 2536, "annotation": {"number": 64, "value": 0}, "group": "control_change"}, {"time": 2540, "annotation": {"number": 64, "value": 127}, "group": "control_change"}, {"time": 2584, "annotation": {"number": 64, "value": 0}, "group": "control_change"}, {"time": 2589, "annotation": {"number": 64, "value": 127}, "group": "control_change"}, {"time": 2631, "annotation": {"number": 64, "value": 0}, "group": "control_change"}, {"time": 2637, "annotation": {"number": 64, "value": 127}, "group": "control_change"}, {"time": 2726, "annotation": {"number": 64, "value": 0}, "group": "control_change"}, {"time": 2729, "annotation": {"number": 64, "value": 127}, "group": "control_change"}, {"time": 2823, "annotation": {"number": 64, "value": 0}, "group": "control_change"}, {"time": 2825, "annotation": {"number": 64, "value": 127}, "group": "control_change"}, {"time": 2848, "annotation": {"number": 64, "value": 0}, "group": "control_change"}, {"time": 2853, "annotation": {"number": 64, "value": 127}, "group": "control_change"}, {"time": 2871, "annotation": {"number": 64, "value": 0}, "group": "control_change"}, {"time": 2875, "annotation": {"number": 64, "value": 127}, "group": "control_change"}, {"time": 2921, "annotation": {"number": 64, "value": 0}, "group": "control_change"}, {"time": 2926, "annotation": {"number": 64, "value": 127}, "group": "control_change"}, {"time": 2970, "annotation": {"number": 64, "value": 127}, "group": "control_change"}, {"time": 2971, "annotation": {"number": 64, "value": 0}, "group": "control_change"}, {"time": 3015, "annotation": {"number": 64, "value": 127}, "group": "control_change"}, {"time": 3063, "annotation": {"number": 64, "value": 0}, "group": "control_change"}, {"time": 3064, "annotation": {"number": 64, "value": 127}, "group": "control_change"}, {"time": 3113, "annotation": {"number": 64, "value": 0}, "group": "control_change"}, {"time": 3117, "annotation": {"number": 64, "value": 127}, "group": "control_change"}, {"time": 3208, "annotation": {"number": 64, "value": 0}, "group": "control_change"}, {"time": 3213, "annotation": {"number": 64, "value": 127}, "group": "control_change"}, {"time": 3232, "annotation": {"number": 64, "value": 0}, "group": "control_change"}, {"time": 3237, "annotation": {"number": 64, "value": 127}, "group": "control_change"}, {"time": 3256, "annotation": {"number": 64, "value": 0}, "group": "control_change"}, {"time": 3260, "annotation": {"number": 64, "value": 127}, "group": "control_change"}, {"time": 3304, "annotation": {"number": 64, "value": 0}, "group": "control_change"}, {"time": 3309, "annotation": {"number": 64, "value": 127}, "group": "control_change"}, {"time": 3352, "annotation": {"number": 64, "value": 0}, "group": "control_change"}, {"time": 3358, "annotation": {"number": 64, "value": 127}, "group": "control_change"}, {"time": 3400, "annotation": {"number": 64, "value": 0}, "group": "control_change"}, {"time": 3401, "annotation": {"number": 64, "value": 127}, "group": "control_change"}, {"time": 3425, "annotation": {"number": 64, "value": 0}, "group": "control_change"}, {"time": 3429, "annotation": {"number": 64, "value": 127}, "group": "control_change"}, {"time": 3448, "annotation": {"number": 64, "value": 0}, "group": "control_change"}, {"time": 3451, "annotation": {"number": 64, "value": 127}, "group": "control_change"}, {"time": 3592, "annotation": {"number": 64, "value": 0}, "group": "control_change"}, {"time": 3592, "annotation": {"number": 64, "value": 127}, "group": "control_change"}, {"time": 3638, "annotation": {"number": 64, "value": 0}, "group": "control_change"}, {"time": 3642, "annotation": {"number": 64, "value": 127}, "group": "control_change"}, {"time": 3687, "annotation": {"number": 64, "value": 0}, "group": "control_change"}, {"time": 3688, "annotation": {"number": 64, "value": 127}, "group": "control_change"}, {"time": 3734, "annotation": {"number": 64, "value": 0}, "group": "control_change"}, {"time": 3738, "annotation": {"number": 64, "value": 127}, "group": "control_change"}, {"time": 3759, "annotation": {"number": 64, "value": 0}, "group": "control_change"}, {"time": 3762, "annotation": {"number": 64, "value": 127}, "group": "control_change"}, {"time": 3781, "annotation": {"number": 64, "value": 0}, "group": "control_change"}, {"time": 3785, "annotation": {"number": 64, "value": 127}, "group": "control_change"}, {"time": 3830, "annotation": {"number": 64, "value": 0}, "group": "control_change"}, {"time": 3833, "annotation": {"number": 64, "value": 127}, "group": "control_change"}, {"time": 3877, "annotation": {"number": 64, "value": 0}, "group": "control_change"}, {"time": 3879, "annotation": {"number": 64, "value": 127}, "group": "control_change"}, {"time": 3903, "annotation": {"number": 64, "value": 0}, "group": "control_change"}, {"time": 3906, "annotation": {"number": 64, "value": 127}, "group": "control_change"}, {"time": 3926, "annotation": {"number": 64, "value": 0}, "group": "control_change"}, {"time": 3929, "annotation": {"number": 64, "value": 127}, "group": "control_change"}, {"time": 3974, "annotation": {"number": 64, "value": 0}, "group": "control_change"}, {"time": 3978, "annotation": {"number": 64, "value": 127}, "group": "control_change"}, {"time": 4022, "annotation": {"number": 64, "value": 0}, "group": "control_change"}, {"time": 4026, "annotation": {"number": 64, "value": 127}, "group": "control_change"}, {"time": 4070, "annotation": {"number": 64, "value": 0}, "group": "control_change"}, {"time": 4074, "annotation": {"number": 64, "value": 127}, "group": "control_change"}, {"time": 4118, "annotation": {"number": 64, "value": 0}, "group": "control_change"}, {"time": 4121, "annotation": {"number": 64, "value": 127}, "group": "control_change"}, {"time": 4142, "annotation": {"number": 64, "value": 0}, "group": "control_change"}, {"time": 4145, "annotation": {"number": 64, "value": 127}, "group": "control_change"}, {"time": 4166, "annotation": {"number": 64, "value": 0}, "group": "control_change"}, {"time": 4169, "annotation": {"number": 64, "value": 127}, "group": "control_change"}, {"time": 4212, "annotation": {"number": 64, "value": 0}, "group": "control_change"}, {"time": 4216, "annotation": {"number": 64, "value": 127}, "group": "control_change"}, {"time": 4265, "annotation": {"number": 64, "value": 0}, "group": "control_change"}, {"time": 4268, "annotation": {"number": 64, "value": 127}, "group": "control_change"}, {"time": 4287, "annotation": {"number": 64, "value": 0}, "group": "control_change"}, {"time": 4291, "annotation": {"number": 64, "value": 127}, "group": "control_change"}, {"time": 4309, "annotation": {"number": 64, "value": 0}, "group": "control_change"}, {"time": 4313, "annotation": {"number": 64, "value": 127}, "group": "control_change"}, {"time": 4360, "annotation": {"number": 64, "value": 0}, "group": "control_change"}, {"time": 4360, "annotation": {"number": 64, "value": 127}, "group": "control_change"}, {"time": 4406, "annotation": {"number": 64, "value": 0}, "group": "control_change"}, {"time": 4410, "annotation": {"number": 64, "value": 127}, "group": "control_change"}, {"time": 4455, "annotation": {"number": 64, "value": 0}, "group": "control_change"}, {"time": 4456, "annotation": {"number": 64, "value": 127}, "group": "control_change"}, {"time": 4502, "annotation": {"number": 64, "value": 0}, "group": "control_change"}, {"time": 4506, "annotation": {"number": 64, "value": 127}, "group": "control_change"}, {"time": 4527, "annotation": {"number": 64, "value": 0}, "group": "control_change"}, {"time": 4530, "annotation": {"number": 64, "value": 127}, "group": "control_change"}, {"time": 4549, "annotation": {"number": 64, "value": 0}, "group": "control_change"}, {"time": 4553, "annotation": {"number": 64, "value": 127}, "group": "control_change"}, {"time": 4598, "annotation": {"number": 64, "value": 0}, "group": "control_change"}, {"time": 4601, "annotation": {"number": 64, "value": 127}, "group": "control_change"}, {"time": 4645, "annotation": {"number": 64, "value": 0}, "group": "control_change"}, {"time": 4647, "annotation": {"number": 64, "value": 127}, "group": "control_change"}, {"time": 4671, "annotation": {"number": 64, "value": 0}, "group": "control_change"}, {"time": 4674, "annotation": {"number": 64, "value": 127}, "group": "control_change"}, {"time": 4694, "annotation": {"number": 64, "value": 0}, "group": "control_change"}, {"time": 4697, "annotation": {"number": 64, "value": 127}, "group": "control_change"}, {"time": 4742, "annotation": {"number": 64, "value": 0}, "group": "control_change"}, {"time": 4744, "annotation": {"number": 64, "value": 127}, "group": "control_change"}, {"time": 4768, "annotation": {"number": 64, "value": 0}, "group": "control_change"}, {"time": 4772, "annotation": {"number": 64, "value": 127}, "group": "control_change"}, {"time": 4791, "annotation": {"number": 64, "value": 0}, "group": "control_change"}, {"time": 4794, "annotation": {"number": 64, "value": 127}, "group": "control_change"}, {"time": 4840, "annotation": {"number": 64, "value": 0}, "group": "control_change"}, {"time": 4840, "annotation": {"number": 64, "value": 127}, "group": "control_change"}, {"time": 4875, "annotation": {"number": 64, "value": 0}, "group": "control_change"}, {"time": 4878, "annotation": {"number": 64, "value": 127}, "group": "control_change"}, {"time": 4889, "annotation": {"number": 64, "value": 0}, "group": "control_change"}, {"time": 4893, "annotation": {"number": 64, "value": 127}, "group": "control_change"}, {"time": 4936, "annotation": {"number": 64, "value": 0}, "group": "control_change"}, {"time": 4937, "annotation": {"number": 64, "value": 127}, "group": "control_change"}, {"time": 4984, "annotation": {"number": 64, "value": 0}, "group": "control_change"}, {"time": 4988, "annotation": {"number": 64, "value": 127}, "group": "control_change"}, {"time": 5032, "annotation": {"number": 64, "value": 0}, "group": "control_change"}, {"time": 5036, "annotation": {"number": 64, "value": 127}, "group": "control_change"}, {"time": 5080, "annotation": {"number": 64, "value": 0}, "group": "control_change"}, {"time": 5085, "annotation": {"number": 64, "value": 127}, "group": "control_change"}, {"time": 5128, "annotation": {"number": 64, "value": 0}, "group": "control_change"}, {"time": 5129, "annotation": {"number": 64, "value": 127}, "group": "control_change"}, {"time": 5151, "annotation": {"number": 64, "value": 0}, "group": "control_change"}, {"time": 5155, "annotation": {"number": 64, "value": 127}, "group": "control_change"}, {"time": 5176, "annotation": {"number": 64, "value": 0}, "group": "control_change"}, {"time": 5180, "annotation": {"number": 64, "value": 127}, "group": "control_change"}]}]}