{"metadata": {"schema_version": "0.2", "title": "None", "source_filename": "201.mid", "source_format": "midi"}, "resolution": 12, "tempos": [{"time": 0, "qpm": 89.00004005001803}], "time_signatures": [{"time": 0, "numerator": 4, "denominator": 4}], "tracks": [{"program": 4, "is_drum": false, "name": "MELODY", "notes": [{"time": 506, "pitch": 71, "duration": 6, "velocity": 83}, {"time": 512, "pitch": 73, "duration": 6, "velocity": 67}, {"time": 518, "pitch": 74, "duration": 6, "velocity": 68}, {"time": 524, "pitch": 73, "duration": 6, "velocity": 80}, {"time": 530, "pitch": 71, "duration": 24, "velocity": 66}, {"time": 554, "pitch": 69, "duration": 6, "velocity": 90}, {"time": 560, "pitch": 71, "duration": 6, "velocity": 66}, {"time": 566, "pitch": 73, "duration": 6, "velocity": 73}, {"time": 572, "pitch": 69, "duration": 6, "velocity": 66}, {"time": 578, "pitch": 66, "duration": 24, "velocity": 74}, {"time": 602, "pitch": 67, "duration": 6, "velocity": 94}, {"time": 608, "pitch": 67, "duration": 12, "velocity": 85}, {"time": 620, "pitch": 71, "duration": 6, "velocity": 94}, {"time": 626, "pitch": 69, "duration": 12, "velocity": 84}, {"time": 638, "pitch": 69, "duration": 6, "velocity": 77}, {"time": 644, "pitch": 67, "duration": 9, "velocity": 57}, {"time": 653, "pitch": 64, "duration": 15, "velocity": 58}, {"time": 668, "pitch": 66, "duration": 30, "velocity": 35}, {"time": 698, "pitch": 71, "duration": 6, "velocity": 97}, {"time": 704, "pitch": 73, "duration": 6, "velocity": 85}, {"time": 710, "pitch": 74, "duration": 6, "velocity": 87}, {"time": 716, "pitch": 73, "duration": 6, "velocity": 91}, {"time": 722, "pitch": 71, "duration": 18, "velocity": 91}, {"time": 740, "pitch": 66, "duration": 6, "velocity": 66}, {"time": 746, "pitch": 69, "duration": 6, "velocity": 84}, {"time": 752, "pitch": 71, "duration": 6, "velocity": 87}, {"time": 758, "pitch": 73, "duration": 6, "velocity": 84}, {"time": 764, "pitch": 71, "duration": 6, "velocity": 91}, {"time": 770, "pitch": 69, "duration": 24, "velocity": 81}, {"time": 794, "pitch": 71, "duration": 6, "velocity": 98}, {"time": 800, "pitch": 71, "duration": 12, "velocity": 92}, {"time": 812, "pitch": 74, "duration": 6, "velocity": 97}, {"time": 818, "pitch": 73, "duration": 12, "velocity": 96}, {"time": 830, "pitch": 71, "duration": 6, "velocity": 96}, {"time": 836, "pitch": 69, "duration": 12, "velocity": 87}, {"time": 848, "pitch": 71, "duration": 42, "velocity": 90}, {"time": 890, "pitch": 71, "duration": 6, "velocity": 90}, {"time": 896, "pitch": 73, "duration": 6, "velocity": 92}, {"time": 902, "pitch": 74, "duration": 6, "velocity": 98}, {"time": 908, "pitch": 73, "duration": 6, "velocity": 93}, {"time": 914, "pitch": 71, "duration": 24, "velocity": 97}, {"time": 938, "pitch": 69, "duration": 6, "velocity": 92}, {"time": 944, "pitch": 71, "duration": 6, "velocity": 87}, {"time": 950, "pitch": 73, "duration": 6, "velocity": 87}, {"time": 956, "pitch": 69, "duration": 6, "velocity": 67}, {"time": 962, "pitch": 66, "duration": 24, "velocity": 68}, {"time": 986, "pitch": 67, "duration": 6, "velocity": 93}, {"time": 992, "pitch": 67, "duration": 12, "velocity": 85}, {"time": 1004, "pitch": 71, "duration": 6, "velocity": 97}, {"time": 1010, "pitch": 69, "duration": 12, "velocity": 81}, {"time": 1022, "pitch": 69, "duration": 6, "velocity": 80}, {"time": 1028, "pitch": 67, "duration": 12, "velocity": 66}, {"time": 1040, "pitch": 64, "duration": 12, "velocity": 58}, {"time": 1052, "pitch": 66, "duration": 30, "velocity": 48}, {"time": 1082, "pitch": 71, "duration": 6, "velocity": 100}, {"time": 1088, "pitch": 73, "duration": 6, "velocity": 91}, {"time": 1094, "pitch": 74, "duration": 6, "velocity": 96}, {"time": 1100, "pitch": 73, "duration": 6, "velocity": 93}, {"time": 1106, "pitch": 71, "duration": 24, "velocity": 96}, {"time": 1130, "pitch": 69, "duration": 6, "velocity": 90}, {"time": 1136, "pitch": 71, "duration": 6, "velocity": 75}, {"time": 1142, "pitch": 73, "duration": 6, "velocity": 86}, {"time": 1148, "pitch": 71, "duration": 12, "velocity": 65}, {"time": 1160, "pitch": 69, "duration": 18, "velocity": 75}, {"time": 1178, "pitch": 71, "duration": 6, "velocity": 99}, {"time": 1184, "pitch": 71, "duration": 12, "velocity": 93}, {"time": 1196, "pitch": 74, "duration": 6, "velocity": 98}, {"time": 1202, "pitch": 73, "duration": 12, "velocity": 90}, {"time": 1214, "pitch": 71, "duration": 6, "velocity": 93}, {"time": 1220, "pitch": 69, "duration": 6, "velocity": 90}, {"time": 1226, "pitch": 71, "duration": 84, "velocity": 95}, {"time": 1310, "pitch": 74, "duration": 6, "velocity": 92}, {"time": 1316, "pitch": 76, "duration": 6, "velocity": 71}, {"time": 1322, "pitch": 78, "duration": 6, "velocity": 66}, {"time": 1328, "pitch": 78, "duration": 6, "velocity": 77}, {"time": 1334, "pitch": 78, "duration": 6, "velocity": 84}, {"time": 1340, "pitch": 76, "duration": 6, "velocity": 66}, {"time": 1346, "pitch": 76, "duration": 12, "velocity": 74}, {"time": 1358, "pitch": 78, "duration": 6, "velocity": 106}, {"time": 1364, "pitch": 76, "duration": 6, "velocity": 84}, {"time": 1370, "pitch": 76, "duration": 6, "velocity": 87}, {"time": 1376, "pitch": 74, "duration": 6, "velocity": 64}, {"time": 1382, "pitch": 76, "duration": 6, "velocity": 81}, {"time": 1388, "pitch": 74, "duration": 6, "velocity": 77}, {"time": 1400, "pitch": 73, "duration": 12, "velocity": 87}, {"time": 1412, "pitch": 69, "duration": 6, "velocity": 97}, {"time": 1418, "pitch": 71, "duration": 6, "velocity": 97}, {"time": 1424, "pitch": 71, "duration": 12, "velocity": 96}, {"time": 1436, "pitch": 71, "duration": 6, "velocity": 103}, {"time": 1442, "pitch": 69, "duration": 12, "velocity": 95}, {"time": 1454, "pitch": 71, "duration": 12, "velocity": 97}, {"time": 1466, "pitch": 66, "duration": 36, "velocity": 83}, {"time": 1502, "pitch": 74, "duration": 6, "velocity": 109}, {"time": 1508, "pitch": 76, "duration": 6, "velocity": 87}, {"time": 1514, "pitch": 78, "duration": 6, "velocity": 93}, {"time": 1520, "pitch": 78, "duration": 6, "velocity": 96}, {"time": 1526, "pitch": 78, "duration": 6, "velocity": 97}, {"time": 1532, "pitch": 76, "duration": 6, "velocity": 87}, {"time": 1538, "pitch": 76, "duration": 12, "velocity": 92}, {"time": 1550, "pitch": 78, "duration": 6, "velocity": 101}, {"time": 1556, "pitch": 76, "duration": 6, "velocity": 90}, {"time": 1562, "pitch": 76, "duration": 6, "velocity": 95}, {"time": 1568, "pitch": 74, "duration": 6, "velocity": 90}, {"time": 1574, "pitch": 76, "duration": 6, "velocity": 96}, {"time": 1580, "pitch": 74, "duration": 12, "velocity": 96}, {"time": 1592, "pitch": 73, "duration": 12, "velocity": 74}, {"time": 1604, "pitch": 69, "duration": 6, "velocity": 91}, {"time": 1610, "pitch": 71, "duration": 18, "velocity": 89}, {"time": 1628, "pitch": 71, "duration": 6, "velocity": 96}, {"time": 1634, "pitch": 73, "duration": 9, "velocity": 97}, {"time": 1643, "pitch": 71, "duration": 9, "velocity": 98}, {"time": 1652, "pitch": 69, "duration": 6, "velocity": 97}, {"time": 1658, "pitch": 71, "duration": 48, "velocity": 94}, {"time": 2138, "pitch": 71, "duration": 6, "velocity": 83}, {"time": 2144, "pitch": 73, "duration": 6, "velocity": 67}, {"time": 2150, "pitch": 74, "duration": 6, "velocity": 68}, {"time": 2156, "pitch": 73, "duration": 6, "velocity": 80}, {"time": 2162, "pitch": 71, "duration": 24, "velocity": 66}, {"time": 2186, "pitch": 69, "duration": 6, "velocity": 90}, {"time": 2192, "pitch": 71, "duration": 6, "velocity": 66}, {"time": 2198, "pitch": 73, "duration": 6, "velocity": 73}, {"time": 2204, "pitch": 69, "duration": 6, "velocity": 66}, {"time": 2210, "pitch": 66, "duration": 24, "velocity": 74}, {"time": 2234, "pitch": 67, "duration": 6, "velocity": 94}, {"time": 2240, "pitch": 67, "duration": 12, "velocity": 85}, {"time": 2252, "pitch": 71, "duration": 6, "velocity": 94}, {"time": 2258, "pitch": 69, "duration": 6, "velocity": 84}, {"time": 2264, "pitch": 69, "duration": 12, "velocity": 77}, {"time": 2276, "pitch": 67, "duration": 6, "velocity": 57}, {"time": 2282, "pitch": 64, "duration": 9, "velocity": 58}, {"time": 2291, "pitch": 66, "duration": 39, "velocity": 35}, {"time": 2330, "pitch": 71, "duration": 6, "velocity": 97}, {"time": 2336, "pitch": 73, "duration": 6, "velocity": 85}, {"time": 2342, "pitch": 74, "duration": 6, "velocity": 87}, {"time": 2348, "pitch": 73, "duration": 6, "velocity": 91}, {"time": 2354, "pitch": 71, "duration": 18, "velocity": 91}, {"time": 2372, "pitch": 66, "duration": 6, "velocity": 66}, {"time": 2378, "pitch": 69, "duration": 6, "velocity": 84}, {"time": 2384, "pitch": 71, "duration": 6, "velocity": 87}, {"time": 2390, "pitch": 73, "duration": 6, "velocity": 84}, {"time": 2396, "pitch": 71, "duration": 6, "velocity": 91}, {"time": 2402, "pitch": 69, "duration": 24, "velocity": 81}, {"time": 2426, "pitch": 71, "duration": 9, "velocity": 98}, {"time": 2435, "pitch": 71, "duration": 9, "velocity": 92}, {"time": 2444, "pitch": 74, "duration": 6, "velocity": 97}, {"time": 2450, "pitch": 73, "duration": 12, "velocity": 96}, {"time": 2462, "pitch": 71, "duration": 6, "velocity": 96}, {"time": 2468, "pitch": 69, "duration": 12, "velocity": 87}, {"time": 2480, "pitch": 71, "duration": 42, "velocity": 90}, {"time": 2522, "pitch": 71, "duration": 6, "velocity": 90}, {"time": 2528, "pitch": 73, "duration": 6, "velocity": 92}, {"time": 2534, "pitch": 74, "duration": 6, "velocity": 98}, {"time": 2540, "pitch": 73, "duration": 6, "velocity": 93}, {"time": 2546, "pitch": 71, "duration": 24, "velocity": 97}, {"time": 2570, "pitch": 69, "duration": 6, "velocity": 92}, {"time": 2576, "pitch": 71, "duration": 6, "velocity": 87}, {"time": 2582, "pitch": 73, "duration": 6, "velocity": 87}, {"time": 2588, "pitch": 69, "duration": 6, "velocity": 67}, {"time": 2594, "pitch": 66, "duration": 24, "velocity": 68}, {"time": 2618, "pitch": 67, "duration": 9, "velocity": 93}, {"time": 2627, "pitch": 67, "duration": 12, "velocity": 85}, {"time": 2639, "pitch": 71, "duration": 6, "velocity": 97}, {"time": 2645, "pitch": 69, "duration": 12, "velocity": 81}, {"time": 2657, "pitch": 69, "duration": 6, "velocity": 80}, {"time": 2663, "pitch": 67, "duration": 12, "velocity": 66}, {"time": 2675, "pitch": 64, "duration": 12, "velocity": 58}, {"time": 2687, "pitch": 66, "duration": 26, "velocity": 48}, {"time": 2713, "pitch": 71, "duration": 6, "velocity": 100}, {"time": 2719, "pitch": 73, "duration": 6, "velocity": 91}, {"time": 2725, "pitch": 74, "duration": 6, "velocity": 96}, {"time": 2731, "pitch": 73, "duration": 6, "velocity": 93}, {"time": 2737, "pitch": 71, "duration": 21, "velocity": 96}, {"time": 2762, "pitch": 69, "duration": 6, "velocity": 90}, {"time": 2768, "pitch": 71, "duration": 5, "velocity": 101}, {"time": 2774, "pitch": 73, "duration": 2, "velocity": 99}, {"time": 2780, "pitch": 71, "duration": 12, "velocity": 91}, {"time": 2792, "pitch": 69, "duration": 18, "velocity": 75}, {"time": 2810, "pitch": 71, "duration": 9, "velocity": 99}, {"time": 2819, "pitch": 71, "duration": 9, "velocity": 93}, {"time": 2828, "pitch": 74, "duration": 6, "velocity": 98}, {"time": 2834, "pitch": 73, "duration": 12, "velocity": 90}, {"time": 2846, "pitch": 71, "duration": 6, "velocity": 93}, {"time": 2852, "pitch": 69, "duration": 6, "velocity": 90}, {"time": 2858, "pitch": 71, "duration": 84, "velocity": 95}, {"time": 2942, "pitch": 74, "duration": 6, "velocity": 92}, {"time": 2948, "pitch": 76, "duration": 6, "velocity": 71}, {"time": 2954, "pitch": 78, "duration": 6, "velocity": 66}, {"time": 2960, "pitch": 78, "duration": 6, "velocity": 77}, {"time": 2966, "pitch": 78, "duration": 6, "velocity": 84}, {"time": 2972, "pitch": 76, "duration": 9, "velocity": 66}, {"time": 2981, "pitch": 76, "duration": 9, "velocity": 74}, {"time": 2990, "pitch": 78, "duration": 6, "velocity": 106}, {"time": 2996, "pitch": 76, "duration": 6, "velocity": 84}, {"time": 3002, "pitch": 76, "duration": 6, "velocity": 87}, {"time": 3008, "pitch": 74, "duration": 6, "velocity": 64}, {"time": 3014, "pitch": 76, "duration": 6, "velocity": 81}, {"time": 3020, "pitch": 74, "duration": 12, "velocity": 77}, {"time": 3032, "pitch": 73, "duration": 12, "velocity": 87}, {"time": 3044, "pitch": 69, "duration": 6, "velocity": 97}, {"time": 3050, "pitch": 71, "duration": 6, "velocity": 97}, {"time": 3056, "pitch": 71, "duration": 12, "velocity": 96}, {"time": 3068, "pitch": 71, "duration": 6, "velocity": 103}, {"time": 3074, "pitch": 69, "duration": 12, "velocity": 95}, {"time": 3086, "pitch": 71, "duration": 12, "velocity": 97}, {"time": 3098, "pitch": 66, "duration": 33, "velocity": 83}, {"time": 3134, "pitch": 74, "duration": 6, "velocity": 109}, {"time": 3140, "pitch": 76, "duration": 6, "velocity": 87}, {"time": 3146, "pitch": 78, "duration": 6, "velocity": 93}, {"time": 3152, "pitch": 78, "duration": 6, "velocity": 96}, {"time": 3158, "pitch": 78, "duration": 6, "velocity": 97}, {"time": 3164, "pitch": 76, "duration": 6, "velocity": 87}, {"time": 3170, "pitch": 76, "duration": 12, "velocity": 92}, {"time": 3182, "pitch": 78, "duration": 6, "velocity": 101}, {"time": 3188, "pitch": 76, "duration": 6, "velocity": 90}, {"time": 3194, "pitch": 76, "duration": 6, "velocity": 95}, {"time": 3200, "pitch": 74, "duration": 6, "velocity": 90}, {"time": 3206, "pitch": 76, "duration": 6, "velocity": 96}, {"time": 3212, "pitch": 74, "duration": 12, "velocity": 96}, {"time": 3224, "pitch": 73, "duration": 12, "velocity": 74}, {"time": 3236, "pitch": 69, "duration": 6, "velocity": 91}, {"time": 3242, "pitch": 71, "duration": 18, "velocity": 89}, {"time": 3260, "pitch": 71, "duration": 6, "velocity": 96}, {"time": 3266, "pitch": 69, "duration": 9, "velocity": 97}, {"time": 3275, "pitch": 66, "duration": 9, "velocity": 98}, {"time": 3284, "pitch": 69, "duration": 6, "velocity": 97}, {"time": 3290, "pitch": 71, "duration": 36, "velocity": 94}, {"time": 3326, "pitch": 74, "duration": 6, "velocity": 92}, {"time": 3332, "pitch": 76, "duration": 6, "velocity": 71}, {"time": 3338, "pitch": 78, "duration": 6, "velocity": 66}, {"time": 3344, "pitch": 78, "duration": 6, "velocity": 77}, {"time": 3350, "pitch": 78, "duration": 6, "velocity": 84}, {"time": 3356, "pitch": 76, "duration": 6, "velocity": 66}, {"time": 3362, "pitch": 76, "duration": 1, "velocity": 74}, {"time": 3374, "pitch": 78, "duration": 6, "velocity": 106}, {"time": 3380, "pitch": 76, "duration": 6, "velocity": 84}, {"time": 3386, "pitch": 76, "duration": 6, "velocity": 87}, {"time": 3392, "pitch": 74, "duration": 6, "velocity": 64}, {"time": 3398, "pitch": 76, "duration": 6, "velocity": 81}, {"time": 3404, "pitch": 74, "duration": 12, "velocity": 77}, {"time": 3416, "pitch": 73, "duration": 12, "velocity": 87}, {"time": 3428, "pitch": 69, "duration": 6, "velocity": 97}, {"time": 3434, "pitch": 71, "duration": 6, "velocity": 97}, {"time": 3440, "pitch": 71, "duration": 12, "velocity": 96}, {"time": 3452, "pitch": 71, "duration": 6, "velocity": 103}, {"time": 3458, "pitch": 69, "duration": 12, "velocity": 95}, {"time": 3470, "pitch": 71, "duration": 12, "velocity": 97}, {"time": 3482, "pitch": 66, "duration": 36, "velocity": 83}, {"time": 3518, "pitch": 74, "duration": 6, "velocity": 109}, {"time": 3524, "pitch": 76, "duration": 6, "velocity": 87}, {"time": 3530, "pitch": 78, "duration": 6, "velocity": 93}, {"time": 3536, "pitch": 78, "duration": 6, "velocity": 96}, {"time": 3542, "pitch": 78, "duration": 6, "velocity": 97}, {"time": 3548, "pitch": 76, "duration": 6, "velocity": 87}, {"time": 3554, "pitch": 76, "duration": 12, "velocity": 92}, {"time": 3566, "pitch": 78, "duration": 6, "velocity": 101}, {"time": 3572, "pitch": 76, "duration": 6, "velocity": 90}, {"time": 3578, "pitch": 76, "duration": 6, "velocity": 95}, {"time": 3584, "pitch": 74, "duration": 6, "velocity": 90}, {"time": 3590, "pitch": 76, "duration": 6, "velocity": 96}, {"time": 3596, "pitch": 74, "duration": 12, "velocity": 96}, {"time": 3608, "pitch": 73, "duration": 12, "velocity": 74}, {"time": 3620, "pitch": 69, "duration": 6, "velocity": 91}, {"time": 3626, "pitch": 71, "duration": 18, "velocity": 89}, {"time": 3644, "pitch": 71, "duration": 6, "velocity": 96}, {"time": 3650, "pitch": 69, "duration": 9, "velocity": 97}, {"time": 3659, "pitch": 66, "duration": 6, "velocity": 98}, {"time": 3665, "pitch": 69, "duration": 9, "velocity": 97}, {"time": 3674, "pitch": 71, "duration": 144, "velocity": 94}, {"time": 3818, "pitch": 83, "duration": 12, "velocity": 96}, {"time": 3830, "pitch": 83, "duration": 15, "velocity": 90}, {"time": 3845, "pitch": 86, "duration": 6, "velocity": 93}, {"time": 3851, "pitch": 85, "duration": 15, "velocity": 94}, {"time": 3866, "pitch": 83, "duration": 18, "velocity": 93}, {"time": 3884, "pitch": 81, "duration": 36, "velocity": 75}, {"time": 3920, "pitch": 83, "duration": 102, "velocity": 85}]}, {"program": 0, "is_drum": false, "name": "PIANO", "notes": [{"time": 26, "pitch": 47, "duration": 133, "velocity": 60}, {"time": 26, "pitch": 59, "duration": 112, "velocity": 60}, {"time": 26, "pitch": 62, "duration": 112, "velocity": 60}, {"time": 26, "pitch": 66, "duration": 116, "velocity": 60}, {"time": 26, "pitch": 69, "duration": 125, "velocity": 60}, {"time": 26, "pitch": 83, "duration": 119, "velocity": 60}, {"time": 140, "pitch": 59, "duration": 19, "velocity": 34}, {"time": 146, "pitch": 62, "duration": 7, "velocity": 39}, {"time": 152, "pitch": 66, "duration": 6, "velocity": 44}, {"time": 158, "pitch": 69, "duration": 2, "velocity": 58}, {"time": 170, "pitch": 46, "duration": 36, "velocity": 59}, {"time": 170, "pitch": 58, "duration": 68, "velocity": 53}, {"time": 170, "pitch": 61, "duration": 40, "velocity": 48}, {"time": 170, "pitch": 66, "duration": 42, "velocity": 63}, {"time": 170, "pitch": 70, "duration": 45, "velocity": 67}, {"time": 215, "pitch": 61, "duration": 22, "velocity": 32}, {"time": 216, "pitch": 66, "duration": 22, "velocity": 25}, {"time": 218, "pitch": 73, "duration": 20, "velocity": 35}, {"time": 224, "pitch": 42, "duration": 5, "velocity": 77}, {"time": 230, "pitch": 54, "duration": 6, "velocity": 78}, {"time": 230, "pitch": 78, "duration": 7, "velocity": 78}, {"time": 236, "pitch": 42, "duration": 6, "velocity": 79}, {"time": 236, "pitch": 85, "duration": 19, "velocity": 78}, {"time": 242, "pitch": 49, "duration": 20, "velocity": 83}, {"time": 242, "pitch": 90, "duration": 13, "velocity": 82}, {"time": 266, "pitch": 50, "duration": 18, "velocity": 72}, {"time": 266, "pitch": 66, "duration": 9, "velocity": 76}, {"time": 266, "pitch": 69, "duration": 8, "velocity": 82}, {"time": 266, "pitch": 74, "duration": 10, "velocity": 76}, {"time": 272, "pitch": 57, "duration": 12, "velocity": 54}, {"time": 278, "pitch": 62, "duration": 5, "velocity": 61}, {"time": 278, "pitch": 66, "duration": 6, "velocity": 75}, {"time": 278, "pitch": 73, "duration": 6, "velocity": 69}, {"time": 284, "pitch": 71, "duration": 2, "velocity": 72}, {"time": 290, "pitch": 45, "duration": 15, "velocity": 70}, {"time": 290, "pitch": 64, "duration": 8, "velocity": 62}, {"time": 290, "pitch": 69, "duration": 7, "velocity": 75}, {"time": 290, "pitch": 76, "duration": 8, "velocity": 78}, {"time": 296, "pitch": 57, "duration": 14, "velocity": 44}, {"time": 302, "pitch": 64, "duration": 3, "velocity": 78}, {"time": 305, "pitch": 69, "duration": 4, "velocity": 67}, {"time": 308, "pitch": 71, "duration": 4, "velocity": 67}, {"time": 311, "pitch": 73, "duration": 3, "velocity": 63}, {"time": 314, "pitch": 47, "duration": 15, "velocity": 69}, {"time": 314, "pitch": 66, "duration": 8, "velocity": 64}, {"time": 314, "pitch": 69, "duration": 11, "velocity": 63}, {"time": 314, "pitch": 74, "duration": 11, "velocity": 57}, {"time": 320, "pitch": 54, "duration": 9, "velocity": 50}, {"time": 326, "pitch": 59, "duration": 4, "velocity": 59}, {"time": 326, "pitch": 66, "duration": 4, "velocity": 62}, {"time": 326, "pitch": 71, "duration": 6, "velocity": 67}, {"time": 332, "pitch": 74, "duration": 5, "velocity": 70}, {"time": 338, "pitch": 54, "duration": 15, "velocity": 60}, {"time": 338, "pitch": 61, "duration": 14, "velocity": 66}, {"time": 338, "pitch": 64, "duration": 7, "velocity": 66}, {"time": 338, "pitch": 69, "duration": 7, "velocity": 72}, {"time": 338, "pitch": 73, "duration": 10, "velocity": 73}, {"time": 350, "pitch": 64, "duration": 4, "velocity": 69}, {"time": 350, "pitch": 69, "duration": 5, "velocity": 72}, {"time": 362, "pitch": 43, "duration": 17, "velocity": 73}, {"time": 362, "pitch": 59, "duration": 8, "velocity": 70}, {"time": 362, "pitch": 62, "duration": 8, "velocity": 78}, {"time": 362, "pitch": 67, "duration": 7, "velocity": 73}, {"time": 368, "pitch": 55, "duration": 17, "velocity": 53}, {"time": 374, "pitch": 59, "duration": 6, "velocity": 64}, {"time": 380, "pitch": 64, "duration": 5, "velocity": 70}, {"time": 386, "pitch": 45, "duration": 19, "velocity": 70}, {"time": 386, "pitch": 61, "duration": 10, "velocity": 75}, {"time": 386, "pitch": 64, "duration": 13, "velocity": 70}, {"time": 386, "pitch": 69, "duration": 13, "velocity": 75}, {"time": 392, "pitch": 52, "duration": 18, "velocity": 60}, {"time": 398, "pitch": 57, "duration": 10, "velocity": 57}, {"time": 404, "pitch": 61, "duration": 5, "velocity": 72}, {"time": 410, "pitch": 47, "duration": 11, "velocity": 69}, {"time": 410, "pitch": 62, "duration": 9, "velocity": 76}, {"time": 410, "pitch": 66, "duration": 7, "velocity": 73}, {"time": 416, "pitch": 54, "duration": 6, "velocity": 62}, {"time": 422, "pitch": 59, "duration": 6, "velocity": 55}, {"time": 428, "pitch": 61, "duration": 13, "velocity": 55}, {"time": 434, "pitch": 62, "duration": 9, "velocity": 62}, {"time": 440, "pitch": 66, "duration": 4, "velocity": 61}, {"time": 446, "pitch": 71, "duration": 6, "velocity": 67}, {"time": 452, "pitch": 73, "duration": 4, "velocity": 67}, {"time": 458, "pitch": 47, "duration": 39, "velocity": 49}, {"time": 458, "pitch": 59, "duration": 38, "velocity": 52}, {"time": 458, "pitch": 63, "duration": 38, "velocity": 64}, {"time": 458, "pitch": 66, "duration": 38, "velocity": 60}, {"time": 458, "pitch": 71, "duration": 39, "velocity": 59}, {"time": 506, "pitch": 47, "duration": 40, "velocity": 72}, {"time": 512, "pitch": 54, "duration": 35, "velocity": 58}, {"time": 518, "pitch": 59, "duration": 27, "velocity": 73}, {"time": 524, "pitch": 62, "duration": 8, "velocity": 55}, {"time": 530, "pitch": 66, "duration": 18, "velocity": 60}, {"time": 530, "pitch": 71, "duration": 23, "velocity": 67}, {"time": 554, "pitch": 54, "duration": 37, "velocity": 55}, {"time": 554, "pitch": 69, "duration": 10, "velocity": 69}, {"time": 560, "pitch": 61, "duration": 32, "velocity": 42}, {"time": 566, "pitch": 64, "duration": 8, "velocity": 49}, {"time": 572, "pitch": 69, "duration": 19, "velocity": 57}, {"time": 578, "pitch": 64, "duration": 13, "velocity": 22}, {"time": 578, "pitch": 73, "duration": 14, "velocity": 59}, {"time": 602, "pitch": 43, "duration": 16, "velocity": 45}, {"time": 602, "pitch": 59, "duration": 8, "velocity": 39}, {"time": 602, "pitch": 62, "duration": 7, "velocity": 66}, {"time": 602, "pitch": 67, "duration": 7, "velocity": 58}, {"time": 608, "pitch": 55, "duration": 12, "velocity": 56}, {"time": 614, "pitch": 59, "duration": 5, "velocity": 73}, {"time": 620, "pitch": 62, "duration": 5, "velocity": 69}, {"time": 626, "pitch": 45, "duration": 13, "velocity": 75}, {"time": 626, "pitch": 61, "duration": 7, "velocity": 62}, {"time": 626, "pitch": 64, "duration": 7, "velocity": 66}, {"time": 626, "pitch": 69, "duration": 6, "velocity": 66}, {"time": 632, "pitch": 57, "duration": 11, "velocity": 54}, {"time": 638, "pitch": 61, "duration": 4, "velocity": 60}, {"time": 650, "pitch": 50, "duration": 15, "velocity": 73}, {"time": 650, "pitch": 66, "duration": 13, "velocity": 62}, {"time": 650, "pitch": 69, "duration": 12, "velocity": 63}, {"time": 656, "pitch": 57, "duration": 10, "velocity": 57}, {"time": 662, "pitch": 62, "duration": 3, "velocity": 69}, {"time": 668, "pitch": 71, "duration": 4, "velocity": 62}, {"time": 674, "pitch": 49, "duration": 16, "velocity": 67}, {"time": 674, "pitch": 64, "duration": 13, "velocity": 54}, {"time": 674, "pitch": 70, "duration": 13, "velocity": 69}, {"time": 686, "pitch": 71, "duration": 7, "velocity": 58}, {"time": 692, "pitch": 73, "duration": 5, "velocity": 57}, {"time": 698, "pitch": 47, "duration": 39, "velocity": 66}, {"time": 698, "pitch": 66, "duration": 10, "velocity": 51}, {"time": 698, "pitch": 69, "duration": 10, "velocity": 63}, {"time": 698, "pitch": 74, "duration": 10, "velocity": 62}, {"time": 704, "pitch": 54, "duration": 34, "velocity": 56}, {"time": 710, "pitch": 59, "duration": 27, "velocity": 70}, {"time": 716, "pitch": 62, "duration": 18, "velocity": 50}, {"time": 734, "pitch": 66, "duration": 6, "velocity": 53}, {"time": 740, "pitch": 71, "duration": 6, "velocity": 46}, {"time": 746, "pitch": 42, "duration": 5, "velocity": 63}, {"time": 746, "pitch": 69, "duration": 15, "velocity": 63}, {"time": 752, "pitch": 54, "duration": 7, "velocity": 61}, {"time": 758, "pitch": 57, "duration": 26, "velocity": 58}, {"time": 764, "pitch": 61, "duration": 19, "velocity": 63}, {"time": 782, "pitch": 66, "duration": 2, "velocity": 60}, {"time": 782, "pitch": 69, "duration": 2, "velocity": 56}, {"time": 794, "pitch": 43, "duration": 16, "velocity": 72}, {"time": 794, "pitch": 59, "duration": 12, "velocity": 55}, {"time": 794, "pitch": 62, "duration": 12, "velocity": 67}, {"time": 794, "pitch": 67, "duration": 10, "velocity": 64}, {"time": 800, "pitch": 50, "duration": 11, "velocity": 66}, {"time": 806, "pitch": 55, "duration": 6, "velocity": 73}, {"time": 812, "pitch": 59, "duration": 3, "velocity": 69}, {"time": 818, "pitch": 45, "duration": 16, "velocity": 58}, {"time": 818, "pitch": 52, "duration": 18, "velocity": 69}, {"time": 818, "pitch": 57, "duration": 18, "velocity": 64}, {"time": 818, "pitch": 61, "duration": 8, "velocity": 66}, {"time": 818, "pitch": 64, "duration": 8, "velocity": 64}, {"time": 818, "pitch": 69, "duration": 7, "velocity": 69}, {"time": 830, "pitch": 61, "duration": 7, "velocity": 57}, {"time": 836, "pitch": 64, "duration": 5, "velocity": 62}, {"time": 842, "pitch": 47, "duration": 10, "velocity": 67}, {"time": 842, "pitch": 62, "duration": 9, "velocity": 63}, {"time": 842, "pitch": 66, "duration": 10, "velocity": 64}, {"time": 848, "pitch": 54, "duration": 6, "velocity": 56}, {"time": 854, "pitch": 59, "duration": 7, "velocity": 52}, {"time": 860, "pitch": 61, "duration": 16, "velocity": 63}, {"time": 866, "pitch": 62, "duration": 12, "velocity": 70}, {"time": 872, "pitch": 66, "duration": 5, "velocity": 57}, {"time": 878, "pitch": 71, "duration": 5, "velocity": 62}, {"time": 884, "pitch": 73, "duration": 4, "velocity": 43}, {"time": 890, "pitch": 47, "duration": 9, "velocity": 69}, {"time": 890, "pitch": 71, "duration": 5, "velocity": 58}, {"time": 890, "pitch": 74, "duration": 5, "velocity": 69}, {"time": 896, "pitch": 54, "duration": 6, "velocity": 56}, {"time": 896, "pitch": 73, "duration": 3, "velocity": 53}, {"time": 896, "pitch": 76, "duration": 4, "velocity": 58}, {"time": 902, "pitch": 59, "duration": 7, "velocity": 46}, {"time": 902, "pitch": 74, "duration": 4, "velocity": 69}, {"time": 902, "pitch": 78, "duration": 4, "velocity": 66}, {"time": 908, "pitch": 61, "duration": 21, "velocity": 56}, {"time": 908, "pitch": 73, "duration": 5, "velocity": 50}, {"time": 908, "pitch": 76, "duration": 6, "velocity": 56}, {"time": 914, "pitch": 62, "duration": 15, "velocity": 66}, {"time": 914, "pitch": 71, "duration": 5, "velocity": 59}, {"time": 914, "pitch": 74, "duration": 5, "velocity": 64}, {"time": 926, "pitch": 66, "duration": 3, "velocity": 54}, {"time": 929, "pitch": 71, "duration": 4, "velocity": 51}, {"time": 932, "pitch": 74, "duration": 6, "velocity": 69}, {"time": 938, "pitch": 54, "duration": 39, "velocity": 78}, {"time": 938, "pitch": 64, "duration": 9, "velocity": 54}, {"time": 938, "pitch": 69, "duration": 9, "velocity": 52}, {"time": 938, "pitch": 73, "duration": 10, "velocity": 64}, {"time": 944, "pitch": 61, "duration": 19, "velocity": 60}, {"time": 950, "pitch": 64, "duration": 19, "velocity": 54}, {"time": 956, "pitch": 69, "duration": 16, "velocity": 59}, {"time": 968, "pitch": 61, "duration": 7, "velocity": 57}, {"time": 974, "pitch": 73, "duration": 5, "velocity": 58}, {"time": 980, "pitch": 69, "duration": 5, "velocity": 62}, {"time": 986, "pitch": 43, "duration": 17, "velocity": 63}, {"time": 986, "pitch": 62, "duration": 8, "velocity": 54}, {"time": 986, "pitch": 67, "duration": 7, "velocity": 58}, {"time": 986, "pitch": 71, "duration": 8, "velocity": 56}, {"time": 992, "pitch": 50, "duration": 12, "velocity": 56}, {"time": 998, "pitch": 55, "duration": 8, "velocity": 55}, {"time": 1004, "pitch": 59, "duration": 3, "velocity": 56}, {"time": 1010, "pitch": 45, "duration": 13, "velocity": 67}, {"time": 1010, "pitch": 61, "duration": 11, "velocity": 72}, {"time": 1010, "pitch": 64, "duration": 12, "velocity": 67}, {"time": 1010, "pitch": 69, "duration": 12, "velocity": 67}, {"time": 1016, "pitch": 52, "duration": 8, "velocity": 63}, {"time": 1022, "pitch": 57, "duration": 11, "velocity": 54}, {"time": 1034, "pitch": 50, "duration": 16, "velocity": 66}, {"time": 1034, "pitch": 66, "duration": 10, "velocity": 60}, {"time": 1034, "pitch": 69, "duration": 13, "velocity": 61}, {"time": 1034, "pitch": 74, "duration": 13, "velocity": 60}, {"time": 1040, "pitch": 57, "duration": 11, "velocity": 53}, {"time": 1046, "pitch": 62, "duration": 3, "velocity": 67}, {"time": 1052, "pitch": 71, "duration": 4, "velocity": 62}, {"time": 1058, "pitch": 49, "duration": 17, "velocity": 72}, {"time": 1058, "pitch": 64, "duration": 7, "velocity": 58}, {"time": 1058, "pitch": 70, "duration": 10, "velocity": 66}, {"time": 1064, "pitch": 61, "duration": 10, "velocity": 47}, {"time": 1070, "pitch": 66, "duration": 3, "velocity": 48}, {"time": 1070, "pitch": 71, "duration": 5, "velocity": 51}, {"time": 1076, "pitch": 66, "duration": 2, "velocity": 32}, {"time": 1076, "pitch": 73, "duration": 6, "velocity": 58}, {"time": 1082, "pitch": 47, "duration": 38, "velocity": 67}, {"time": 1082, "pitch": 66, "duration": 10, "velocity": 56}, {"time": 1082, "pitch": 69, "duration": 9, "velocity": 50}, {"time": 1082, "pitch": 74, "duration": 8, "velocity": 62}, {"time": 1088, "pitch": 54, "duration": 33, "velocity": 53}, {"time": 1094, "pitch": 59, "duration": 14, "velocity": 64}, {"time": 1100, "pitch": 62, "duration": 12, "velocity": 56}, {"time": 1106, "pitch": 66, "duration": 7, "velocity": 59}, {"time": 1106, "pitch": 71, "duration": 7, "velocity": 60}, {"time": 1112, "pitch": 59, "duration": 7, "velocity": 52}, {"time": 1118, "pitch": 62, "duration": 4, "velocity": 55}, {"time": 1124, "pitch": 71, "duration": 8, "velocity": 73}, {"time": 1130, "pitch": 42, "duration": 6, "velocity": 69}, {"time": 1130, "pitch": 69, "duration": 20, "velocity": 64}, {"time": 1136, "pitch": 54, "duration": 8, "velocity": 64}, {"time": 1142, "pitch": 57, "duration": 27, "velocity": 55}, {"time": 1148, "pitch": 61, "duration": 19, "velocity": 57}, {"time": 1154, "pitch": 64, "duration": 8, "velocity": 46}, {"time": 1160, "pitch": 69, "duration": 5, "velocity": 48}, {"time": 1166, "pitch": 73, "duration": 2, "velocity": 67}, {"time": 1178, "pitch": 43, "duration": 16, "velocity": 73}, {"time": 1178, "pitch": 62, "duration": 10, "velocity": 60}, {"time": 1178, "pitch": 67, "duration": 11, "velocity": 63}, {"time": 1178, "pitch": 71, "duration": 11, "velocity": 54}, {"time": 1184, "pitch": 50, "duration": 10, "velocity": 57}, {"time": 1190, "pitch": 55, "duration": 4, "velocity": 57}, {"time": 1196, "pitch": 62, "duration": 2, "velocity": 55}, {"time": 1202, "pitch": 45, "duration": 15, "velocity": 73}, {"time": 1202, "pitch": 64, "duration": 11, "velocity": 57}, {"time": 1202, "pitch": 69, "duration": 13, "velocity": 58}, {"time": 1202, "pitch": 73, "duration": 12, "velocity": 63}, {"time": 1208, "pitch": 52, "duration": 11, "velocity": 55}, {"time": 1214, "pitch": 57, "duration": 5, "velocity": 53}, {"time": 1226, "pitch": 47, "duration": 40, "velocity": 69}, {"time": 1226, "pitch": 62, "duration": 11, "velocity": 60}, {"time": 1226, "pitch": 66, "duration": 10, "velocity": 67}, {"time": 1226, "pitch": 71, "duration": 12, "velocity": 64}, {"time": 1232, "pitch": 54, "duration": 37, "velocity": 58}, {"time": 1238, "pitch": 59, "duration": 30, "velocity": 69}, {"time": 1244, "pitch": 61, "duration": 4, "velocity": 57}, {"time": 1250, "pitch": 62, "duration": 5, "velocity": 58}, {"time": 1256, "pitch": 64, "duration": 2, "velocity": 49}, {"time": 1262, "pitch": 66, "duration": 5, "velocity": 54}, {"time": 1268, "pitch": 69, "duration": 5, "velocity": 55}, {"time": 1274, "pitch": 47, "duration": 32, "velocity": 75}, {"time": 1274, "pitch": 62, "duration": 6, "velocity": 73}, {"time": 1274, "pitch": 66, "duration": 6, "velocity": 76}, {"time": 1274, "pitch": 71, "duration": 6, "velocity": 70}, {"time": 1286, "pitch": 59, "duration": 4, "velocity": 72}, {"time": 1286, "pitch": 64, "duration": 3, "velocity": 72}, {"time": 1286, "pitch": 69, "duration": 3, "velocity": 72}, {"time": 1286, "pitch": 73, "duration": 4, "velocity": 75}, {"time": 1298, "pitch": 66, "duration": 6, "velocity": 75}, {"time": 1298, "pitch": 69, "duration": 6, "velocity": 78}, {"time": 1298, "pitch": 74, "duration": 6, "velocity": 73}, {"time": 1301, "pitch": 59, "duration": 4, "velocity": 46}, {"time": 1310, "pitch": 45, "duration": 5, "velocity": 64}, {"time": 1310, "pitch": 64, "duration": 6, "velocity": 75}, {"time": 1310, "pitch": 69, "duration": 7, "velocity": 82}, {"time": 1310, "pitch": 76, "duration": 7, "velocity": 82}, {"time": 1322, "pitch": 50, "duration": 18, "velocity": 91}, {"time": 1322, "pitch": 66, "duration": 7, "velocity": 80}, {"time": 1322, "pitch": 69, "duration": 6, "velocity": 78}, {"time": 1322, "pitch": 74, "duration": 10, "velocity": 80}, {"time": 1328, "pitch": 57, "duration": 11, "velocity": 47}, {"time": 1334, "pitch": 62, "duration": 4, "velocity": 62}, {"time": 1334, "pitch": 64, "duration": 3, "velocity": 82}, {"time": 1334, "pitch": 73, "duration": 4, "velocity": 78}, {"time": 1340, "pitch": 66, "duration": 2, "velocity": 75}, {"time": 1340, "pitch": 74, "duration": 2, "velocity": 67}, {"time": 1346, "pitch": 45, "duration": 18, "velocity": 76}, {"time": 1346, "pitch": 64, "duration": 8, "velocity": 67}, {"time": 1346, "pitch": 69, "duration": 8, "velocity": 73}, {"time": 1346, "pitch": 76, "duration": 8, "velocity": 73}, {"time": 1352, "pitch": 57, "duration": 13, "velocity": 44}, {"time": 1358, "pitch": 64, "duration": 4, "velocity": 78}, {"time": 1364, "pitch": 69, "duration": 4, "velocity": 63}, {"time": 1367, "pitch": 71, "duration": 2, "velocity": 64}, {"time": 1370, "pitch": 47, "duration": 14, "velocity": 72}, {"time": 1370, "pitch": 66, "duration": 5, "velocity": 80}, {"time": 1370, "pitch": 69, "duration": 6, "velocity": 67}, {"time": 1370, "pitch": 74, "duration": 7, "velocity": 69}, {"time": 1376, "pitch": 54, "duration": 9, "velocity": 64}, {"time": 1382, "pitch": 59, "duration": 3, "velocity": 66}, {"time": 1382, "pitch": 66, "duration": 3, "velocity": 70}, {"time": 1388, "pitch": 74, "duration": 5, "velocity": 63}, {"time": 1394, "pitch": 54, "duration": 17, "velocity": 73}, {"time": 1394, "pitch": 61, "duration": 11, "velocity": 69}, {"time": 1394, "pitch": 64, "duration": 8, "velocity": 69}, {"time": 1394, "pitch": 69, "duration": 6, "velocity": 75}, {"time": 1394, "pitch": 73, "duration": 8, "velocity": 76}, {"time": 1406, "pitch": 64, "duration": 3, "velocity": 85}, {"time": 1406, "pitch": 69, "duration": 3, "velocity": 93}, {"time": 1412, "pitch": 64, "duration": 3, "velocity": 73}, {"time": 1418, "pitch": 43, "duration": 17, "velocity": 70}, {"time": 1418, "pitch": 62, "duration": 9, "velocity": 82}, {"time": 1418, "pitch": 67, "duration": 7, "velocity": 85}, {"time": 1418, "pitch": 71, "duration": 7, "velocity": 85}, {"time": 1424, "pitch": 50, "duration": 12, "velocity": 61}, {"time": 1424, "pitch": 69, "duration": 6, "velocity": 75}, {"time": 1430, "pitch": 55, "duration": 5, "velocity": 70}, {"time": 1430, "pitch": 62, "duration": 5, "velocity": 76}, {"time": 1430, "pitch": 71, "duration": 5, "velocity": 78}, {"time": 1436, "pitch": 74, "duration": 6, "velocity": 73}, {"time": 1442, "pitch": 45, "duration": 13, "velocity": 70}, {"time": 1442, "pitch": 64, "duration": 9, "velocity": 75}, {"time": 1442, "pitch": 69, "duration": 10, "velocity": 78}, {"time": 1442, "pitch": 73, "duration": 10, "velocity": 75}, {"time": 1448, "pitch": 52, "duration": 9, "velocity": 60}, {"time": 1454, "pitch": 57, "duration": 4, "velocity": 70}, {"time": 1454, "pitch": 64, "duration": 4, "velocity": 75}, {"time": 1454, "pitch": 71, "duration": 5, "velocity": 69}, {"time": 1460, "pitch": 69, "duration": 5, "velocity": 64}, {"time": 1466, "pitch": 50, "duration": 10, "velocity": 72}, {"time": 1466, "pitch": 66, "duration": 10, "velocity": 70}, {"time": 1466, "pitch": 69, "duration": 11, "velocity": 66}, {"time": 1466, "pitch": 74, "duration": 11, "velocity": 75}, {"time": 1472, "pitch": 57, "duration": 5, "velocity": 64}, {"time": 1478, "pitch": 62, "duration": 5, "velocity": 59}, {"time": 1484, "pitch": 64, "duration": 1, "velocity": 78}, {"time": 1490, "pitch": 49, "duration": 7, "velocity": 73}, {"time": 1490, "pitch": 64, "duration": 6, "velocity": 66}, {"time": 1490, "pitch": 70, "duration": 6, "velocity": 85}, {"time": 1490, "pitch": 73, "duration": 7, "velocity": 80}, {"time": 1496, "pitch": 61, "duration": 2, "velocity": 60}, {"time": 1496, "pitch": 71, "duration": 5, "velocity": 63}, {"time": 1502, "pitch": 46, "duration": 8, "velocity": 76}, {"time": 1502, "pitch": 66, "duration": 4, "velocity": 73}, {"time": 1508, "pitch": 58, "duration": 1, "velocity": 55}, {"time": 1508, "pitch": 76, "duration": 3, "velocity": 82}, {"time": 1514, "pitch": 50, "duration": 17, "velocity": 72}, {"time": 1514, "pitch": 66, "duration": 4, "velocity": 75}, {"time": 1514, "pitch": 69, "duration": 5, "velocity": 73}, {"time": 1514, "pitch": 74, "duration": 5, "velocity": 78}, {"time": 1520, "pitch": 57, "duration": 11, "velocity": 62}, {"time": 1520, "pitch": 64, "duration": 3, "velocity": 60}, {"time": 1520, "pitch": 73, "duration": 8, "velocity": 75}, {"time": 1526, "pitch": 62, "duration": 3, "velocity": 67}, {"time": 1526, "pitch": 66, "duration": 2, "velocity": 73}, {"time": 1526, "pitch": 69, "duration": 1, "velocity": 44}, {"time": 1538, "pitch": 45, "duration": 16, "velocity": 72}, {"time": 1538, "pitch": 69, "duration": 9, "velocity": 64}, {"time": 1538, "pitch": 76, "duration": 5, "velocity": 69}, {"time": 1544, "pitch": 52, "duration": 10, "velocity": 60}, {"time": 1550, "pitch": 57, "duration": 5, "velocity": 82}, {"time": 1556, "pitch": 69, "duration": 4, "velocity": 59}, {"time": 1562, "pitch": 47, "duration": 16, "velocity": 73}, {"time": 1562, "pitch": 66, "duration": 4, "velocity": 80}, {"time": 1562, "pitch": 69, "duration": 5, "velocity": 70}, {"time": 1568, "pitch": 54, "duration": 10, "velocity": 67}, {"time": 1568, "pitch": 64, "duration": 1, "velocity": 56}, {"time": 1568, "pitch": 66, "duration": 3, "velocity": 54}, {"time": 1574, "pitch": 59, "duration": 6, "velocity": 64}, {"time": 1574, "pitch": 66, "duration": 1, "velocity": 57}, {"time": 1586, "pitch": 54, "duration": 18, "velocity": 70}, {"time": 1586, "pitch": 74, "duration": 11, "velocity": 73}, {"time": 1592, "pitch": 61, "duration": 12, "velocity": 63}, {"time": 1598, "pitch": 64, "duration": 3, "velocity": 64}, {"time": 1601, "pitch": 69, "duration": 4, "velocity": 66}, {"time": 1604, "pitch": 73, "duration": 4, "velocity": 64}, {"time": 1607, "pitch": 74, "duration": 5, "velocity": 66}, {"time": 1610, "pitch": 55, "duration": 15, "velocity": 73}, {"time": 1610, "pitch": 62, "duration": 7, "velocity": 93}, {"time": 1610, "pitch": 67, "duration": 8, "velocity": 76}, {"time": 1610, "pitch": 71, "duration": 8, "velocity": 70}, {"time": 1616, "pitch": 59, "duration": 8, "velocity": 69}, {"time": 1619, "pitch": 74, "duration": 5, "velocity": 1}, {"time": 1622, "pitch": 62, "duration": 5, "velocity": 85}, {"time": 1628, "pitch": 74, "duration": 6, "velocity": 72}, {"time": 1634, "pitch": 45, "duration": 15, "velocity": 72}, {"time": 1634, "pitch": 64, "duration": 8, "velocity": 75}, {"time": 1634, "pitch": 69, "duration": 5, "velocity": 66}, {"time": 1634, "pitch": 73, "duration": 9, "velocity": 70}, {"time": 1640, "pitch": 52, "duration": 11, "velocity": 48}, {"time": 1646, "pitch": 57, "duration": 5, "velocity": 75}, {"time": 1646, "pitch": 69, "duration": 5, "velocity": 78}, {"time": 1652, "pitch": 66, "duration": 4, "velocity": 76}, {"time": 1658, "pitch": 47, "duration": 11, "velocity": 69}, {"time": 1658, "pitch": 66, "duration": 10, "velocity": 70}, {"time": 1658, "pitch": 74, "duration": 8, "velocity": 73}, {"time": 1664, "pitch": 54, "duration": 6, "velocity": 69}, {"time": 1664, "pitch": 73, "duration": 7, "velocity": 69}, {"time": 1670, "pitch": 59, "duration": 6, "velocity": 44}, {"time": 1670, "pitch": 66, "duration": 2, "velocity": 32}, {"time": 1670, "pitch": 71, "duration": 6, "velocity": 64}, {"time": 1676, "pitch": 61, "duration": 12, "velocity": 64}, {"time": 1676, "pitch": 69, "duration": 6, "velocity": 61}, {"time": 1682, "pitch": 62, "duration": 5, "velocity": 59}, {"time": 1682, "pitch": 66, "duration": 5, "velocity": 54}, {"time": 1682, "pitch": 71, "duration": 6, "velocity": 64}, {"time": 1706, "pitch": 50, "duration": 17, "velocity": 73}, {"time": 1706, "pitch": 66, "duration": 14, "velocity": 61}, {"time": 1706, "pitch": 69, "duration": 15, "velocity": 67}, {"time": 1706, "pitch": 74, "duration": 15, "velocity": 64}, {"time": 1712, "pitch": 57, "duration": 11, "velocity": 54}, {"time": 1718, "pitch": 62, "duration": 4, "velocity": 63}, {"time": 1730, "pitch": 57, "duration": 16, "velocity": 62}, {"time": 1730, "pitch": 64, "duration": 11, "velocity": 61}, {"time": 1730, "pitch": 69, "duration": 11, "velocity": 63}, {"time": 1730, "pitch": 73, "duration": 14, "velocity": 63}, {"time": 1742, "pitch": 71, "duration": 6, "velocity": 53}, {"time": 1748, "pitch": 73, "duration": 4, "velocity": 50}, {"time": 1754, "pitch": 47, "duration": 14, "velocity": 62}, {"time": 1754, "pitch": 66, "duration": 14, "velocity": 59}, {"time": 1754, "pitch": 69, "duration": 15, "velocity": 62}, {"time": 1754, "pitch": 74, "duration": 14, "velocity": 63}, {"time": 1760, "pitch": 54, "duration": 10, "velocity": 49}, {"time": 1766, "pitch": 59, "duration": 4, "velocity": 59}, {"time": 1778, "pitch": 54, "duration": 16, "velocity": 56}, {"time": 1778, "pitch": 61, "duration": 15, "velocity": 62}, {"time": 1778, "pitch": 64, "duration": 12, "velocity": 51}, {"time": 1778, "pitch": 69, "duration": 9, "velocity": 54}, {"time": 1778, "pitch": 73, "duration": 11, "velocity": 56}, {"time": 1790, "pitch": 69, "duration": 5, "velocity": 47}, {"time": 1802, "pitch": 55, "duration": 15, "velocity": 58}, {"time": 1802, "pitch": 62, "duration": 8, "velocity": 56}, {"time": 1802, "pitch": 67, "duration": 8, "velocity": 55}, {"time": 1802, "pitch": 69, "duration": 7, "velocity": 47}, {"time": 1802, "pitch": 71, "duration": 8, "velocity": 55}, {"time": 1808, "pitch": 59, "duration": 9, "velocity": 43}, {"time": 1814, "pitch": 62, "duration": 4, "velocity": 55}, {"time": 1826, "pitch": 45, "duration": 14, "velocity": 66}, {"time": 1826, "pitch": 61, "duration": 8, "velocity": 57}, {"time": 1826, "pitch": 64, "duration": 8, "velocity": 44}, {"time": 1832, "pitch": 57, "duration": 9, "velocity": 49}, {"time": 1838, "pitch": 61, "duration": 3, "velocity": 48}, {"time": 1850, "pitch": 50, "duration": 16, "velocity": 64}, {"time": 1850, "pitch": 66, "duration": 12, "velocity": 56}, {"time": 1850, "pitch": 69, "duration": 13, "velocity": 59}, {"time": 1850, "pitch": 74, "duration": 13, "velocity": 58}, {"time": 1856, "pitch": 57, "duration": 10, "velocity": 60}, {"time": 1862, "pitch": 62, "duration": 3, "velocity": 62}, {"time": 1868, "pitch": 74, "duration": 6, "velocity": 63}, {"time": 1874, "pitch": 42, "duration": 16, "velocity": 73}, {"time": 1874, "pitch": 64, "duration": 7, "velocity": 56}, {"time": 1874, "pitch": 70, "duration": 8, "velocity": 66}, {"time": 1874, "pitch": 73, "duration": 10, "velocity": 70}, {"time": 1880, "pitch": 54, "duration": 12, "velocity": 46}, {"time": 1886, "pitch": 66, "duration": 3, "velocity": 58}, {"time": 1886, "pitch": 71, "duration": 5, "velocity": 62}, {"time": 1892, "pitch": 73, "duration": 6, "velocity": 69}, {"time": 1898, "pitch": 50, "duration": 16, "velocity": 75}, {"time": 1898, "pitch": 66, "duration": 9, "velocity": 63}, {"time": 1898, "pitch": 69, "duration": 10, "velocity": 70}, {"time": 1898, "pitch": 74, "duration": 10, "velocity": 78}, {"time": 1904, "pitch": 57, "duration": 10, "velocity": 61}, {"time": 1910, "pitch": 62, "duration": 4, "velocity": 63}, {"time": 1916, "pitch": 69, "duration": 3, "velocity": 66}, {"time": 1916, "pitch": 74, "duration": 2, "velocity": 69}, {"time": 1922, "pitch": 49, "duration": 17, "velocity": 73}, {"time": 1922, "pitch": 64, "duration": 10, "velocity": 51}, {"time": 1922, "pitch": 69, "duration": 12, "velocity": 69}, {"time": 1922, "pitch": 76, "duration": 13, "velocity": 76}, {"time": 1928, "pitch": 57, "duration": 10, "velocity": 32}, {"time": 1934, "pitch": 61, "duration": 4, "velocity": 67}, {"time": 1940, "pitch": 71, "duration": 4, "velocity": 51}, {"time": 1943, "pitch": 73, "duration": 2, "velocity": 69}, {"time": 1946, "pitch": 47, "duration": 17, "velocity": 70}, {"time": 1946, "pitch": 66, "duration": 9, "velocity": 67}, {"time": 1946, "pitch": 69, "duration": 13, "velocity": 73}, {"time": 1946, "pitch": 74, "duration": 13, "velocity": 78}, {"time": 1952, "pitch": 54, "duration": 11, "velocity": 57}, {"time": 1958, "pitch": 59, "duration": 5, "velocity": 64}, {"time": 1964, "pitch": 66, "duration": 2, "velocity": 62}, {"time": 1964, "pitch": 69, "duration": 1, "velocity": 37}, {"time": 1964, "pitch": 74, "duration": 3, "velocity": 73}, {"time": 1970, "pitch": 45, "duration": 16, "velocity": 72}, {"time": 1970, "pitch": 64, "duration": 10, "velocity": 62}, {"time": 1970, "pitch": 69, "duration": 11, "velocity": 70}, {"time": 1970, "pitch": 73, "duration": 10, "velocity": 49}, {"time": 1976, "pitch": 54, "duration": 12, "velocity": 58}, {"time": 1982, "pitch": 57, "duration": 4, "velocity": 63}, {"time": 1988, "pitch": 69, "duration": 5, "velocity": 66}, {"time": 1994, "pitch": 43, "duration": 11, "velocity": 72}, {"time": 1994, "pitch": 62, "duration": 9, "velocity": 76}, {"time": 1994, "pitch": 67, "duration": 7, "velocity": 75}, {"time": 1994, "pitch": 71, "duration": 7, "velocity": 76}, {"time": 2000, "pitch": 50, "duration": 6, "velocity": 61}, {"time": 2000, "pitch": 69, "duration": 5, "velocity": 69}, {"time": 2006, "pitch": 55, "duration": 7, "velocity": 59}, {"time": 2006, "pitch": 62, "duration": 5, "velocity": 69}, {"time": 2006, "pitch": 71, "duration": 6, "velocity": 73}, {"time": 2012, "pitch": 57, "duration": 2, "velocity": 67}, {"time": 2012, "pitch": 74, "duration": 4, "velocity": 61}, {"time": 2018, "pitch": 45, "duration": 13, "velocity": 70}, {"time": 2018, "pitch": 64, "duration": 12, "velocity": 60}, {"time": 2018, "pitch": 69, "duration": 13, "velocity": 66}, {"time": 2018, "pitch": 73, "duration": 14, "velocity": 72}, {"time": 2024, "pitch": 52, "duration": 9, "velocity": 54}, {"time": 2030, "pitch": 57, "duration": 4, "velocity": 62}, {"time": 2036, "pitch": 69, "duration": 6, "velocity": 59}, {"time": 2042, "pitch": 47, "duration": 45, "velocity": 73}, {"time": 2042, "pitch": 66, "duration": 7, "velocity": 58}, {"time": 2042, "pitch": 71, "duration": 5, "velocity": 67}, {"time": 2048, "pitch": 54, "duration": 40, "velocity": 64}, {"time": 2054, "pitch": 59, "duration": 32, "velocity": 63}, {"time": 2060, "pitch": 61, "duration": 7, "velocity": 60}, {"time": 2066, "pitch": 62, "duration": 6, "velocity": 64}, {"time": 2078, "pitch": 64, "duration": 7, "velocity": 54}, {"time": 2084, "pitch": 66, "duration": 7, "velocity": 49}, {"time": 2090, "pitch": 47, "duration": 36, "velocity": 56}, {"time": 2090, "pitch": 59, "duration": 35, "velocity": 51}, {"time": 2090, "pitch": 63, "duration": 12, "velocity": 64}, {"time": 2090, "pitch": 66, "duration": 1, "velocity": 67}, {"time": 2090, "pitch": 71, "duration": 13, "velocity": 62}, {"time": 2114, "pitch": 75, "duration": 10, "velocity": 39}, {"time": 2114, "pitch": 78, "duration": 10, "velocity": 43}, {"time": 2114, "pitch": 83, "duration": 10, "velocity": 33}, {"time": 2138, "pitch": 47, "duration": 40, "velocity": 72}, {"time": 2144, "pitch": 54, "duration": 35, "velocity": 58}, {"time": 2150, "pitch": 59, "duration": 27, "velocity": 73}, {"time": 2156, "pitch": 62, "duration": 8, "velocity": 55}, {"time": 2162, "pitch": 66, "duration": 18, "velocity": 60}, {"time": 2162, "pitch": 71, "duration": 23, "velocity": 67}, {"time": 2186, "pitch": 54, "duration": 37, "velocity": 55}, {"time": 2186, "pitch": 69, "duration": 10, "velocity": 69}, {"time": 2192, "pitch": 61, "duration": 32, "velocity": 42}, {"time": 2198, "pitch": 64, "duration": 8, "velocity": 49}, {"time": 2204, "pitch": 69, "duration": 19, "velocity": 57}, {"time": 2210, "pitch": 64, "duration": 13, "velocity": 22}, {"time": 2210, "pitch": 73, "duration": 14, "velocity": 59}, {"time": 2234, "pitch": 43, "duration": 16, "velocity": 45}, {"time": 2234, "pitch": 59, "duration": 8, "velocity": 39}, {"time": 2234, "pitch": 62, "duration": 7, "velocity": 66}, {"time": 2234, "pitch": 67, "duration": 7, "velocity": 58}, {"time": 2240, "pitch": 55, "duration": 12, "velocity": 56}, {"time": 2246, "pitch": 59, "duration": 5, "velocity": 73}, {"time": 2252, "pitch": 62, "duration": 5, "velocity": 69}, {"time": 2258, "pitch": 45, "duration": 13, "velocity": 75}, {"time": 2258, "pitch": 61, "duration": 7, "velocity": 62}, {"time": 2258, "pitch": 64, "duration": 7, "velocity": 66}, {"time": 2258, "pitch": 69, "duration": 6, "velocity": 66}, {"time": 2264, "pitch": 57, "duration": 11, "velocity": 54}, {"time": 2270, "pitch": 61, "duration": 4, "velocity": 60}, {"time": 2282, "pitch": 50, "duration": 15, "velocity": 73}, {"time": 2282, "pitch": 66, "duration": 13, "velocity": 62}, {"time": 2282, "pitch": 69, "duration": 12, "velocity": 63}, {"time": 2288, "pitch": 57, "duration": 10, "velocity": 57}, {"time": 2294, "pitch": 62, "duration": 3, "velocity": 69}, {"time": 2300, "pitch": 71, "duration": 4, "velocity": 62}, {"time": 2306, "pitch": 49, "duration": 16, "velocity": 67}, {"time": 2306, "pitch": 64, "duration": 13, "velocity": 54}, {"time": 2306, "pitch": 70, "duration": 13, "velocity": 69}, {"time": 2318, "pitch": 71, "duration": 7, "velocity": 58}, {"time": 2324, "pitch": 73, "duration": 5, "velocity": 57}, {"time": 2330, "pitch": 47, "duration": 39, "velocity": 66}, {"time": 2330, "pitch": 66, "duration": 10, "velocity": 51}, {"time": 2330, "pitch": 69, "duration": 10, "velocity": 63}, {"time": 2330, "pitch": 74, "duration": 10, "velocity": 62}, {"time": 2336, "pitch": 54, "duration": 34, "velocity": 56}, {"time": 2342, "pitch": 59, "duration": 27, "velocity": 70}, {"time": 2348, "pitch": 62, "duration": 18, "velocity": 50}, {"time": 2366, "pitch": 66, "duration": 6, "velocity": 53}, {"time": 2372, "pitch": 71, "duration": 6, "velocity": 46}, {"time": 2378, "pitch": 42, "duration": 5, "velocity": 63}, {"time": 2378, "pitch": 69, "duration": 15, "velocity": 63}, {"time": 2384, "pitch": 54, "duration": 7, "velocity": 61}, {"time": 2390, "pitch": 57, "duration": 26, "velocity": 58}, {"time": 2396, "pitch": 61, "duration": 19, "velocity": 63}, {"time": 2414, "pitch": 66, "duration": 2, "velocity": 60}, {"time": 2414, "pitch": 69, "duration": 2, "velocity": 56}, {"time": 2426, "pitch": 43, "duration": 16, "velocity": 72}, {"time": 2426, "pitch": 59, "duration": 12, "velocity": 55}, {"time": 2426, "pitch": 62, "duration": 12, "velocity": 67}, {"time": 2426, "pitch": 67, "duration": 10, "velocity": 64}, {"time": 2432, "pitch": 50, "duration": 11, "velocity": 66}, {"time": 2438, "pitch": 55, "duration": 6, "velocity": 73}, {"time": 2444, "pitch": 59, "duration": 3, "velocity": 69}, {"time": 2450, "pitch": 45, "duration": 16, "velocity": 58}, {"time": 2450, "pitch": 52, "duration": 18, "velocity": 69}, {"time": 2450, "pitch": 57, "duration": 18, "velocity": 64}, {"time": 2450, "pitch": 61, "duration": 8, "velocity": 66}, {"time": 2450, "pitch": 64, "duration": 8, "velocity": 64}, {"time": 2450, "pitch": 69, "duration": 7, "velocity": 69}, {"time": 2462, "pitch": 61, "duration": 7, "velocity": 57}, {"time": 2468, "pitch": 64, "duration": 5, "velocity": 62}, {"time": 2474, "pitch": 47, "duration": 10, "velocity": 67}, {"time": 2474, "pitch": 62, "duration": 9, "velocity": 63}, {"time": 2474, "pitch": 66, "duration": 10, "velocity": 64}, {"time": 2480, "pitch": 54, "duration": 6, "velocity": 56}, {"time": 2486, "pitch": 59, "duration": 7, "velocity": 52}, {"time": 2492, "pitch": 61, "duration": 16, "velocity": 63}, {"time": 2498, "pitch": 62, "duration": 12, "velocity": 70}, {"time": 2504, "pitch": 66, "duration": 5, "velocity": 57}, {"time": 2510, "pitch": 71, "duration": 5, "velocity": 62}, {"time": 2516, "pitch": 73, "duration": 4, "velocity": 43}, {"time": 2522, "pitch": 47, "duration": 9, "velocity": 69}, {"time": 2522, "pitch": 71, "duration": 5, "velocity": 58}, {"time": 2522, "pitch": 74, "duration": 5, "velocity": 69}, {"time": 2528, "pitch": 54, "duration": 6, "velocity": 56}, {"time": 2528, "pitch": 73, "duration": 3, "velocity": 53}, {"time": 2528, "pitch": 76, "duration": 4, "velocity": 58}, {"time": 2534, "pitch": 59, "duration": 7, "velocity": 46}, {"time": 2534, "pitch": 74, "duration": 4, "velocity": 69}, {"time": 2534, "pitch": 78, "duration": 4, "velocity": 66}, {"time": 2540, "pitch": 61, "duration": 21, "velocity": 56}, {"time": 2540, "pitch": 73, "duration": 5, "velocity": 50}, {"time": 2540, "pitch": 76, "duration": 6, "velocity": 56}, {"time": 2546, "pitch": 62, "duration": 15, "velocity": 66}, {"time": 2546, "pitch": 71, "duration": 5, "velocity": 59}, {"time": 2546, "pitch": 74, "duration": 5, "velocity": 64}, {"time": 2558, "pitch": 66, "duration": 3, "velocity": 54}, {"time": 2561, "pitch": 71, "duration": 4, "velocity": 51}, {"time": 2564, "pitch": 74, "duration": 6, "velocity": 69}, {"time": 2570, "pitch": 54, "duration": 39, "velocity": 78}, {"time": 2570, "pitch": 64, "duration": 9, "velocity": 54}, {"time": 2570, "pitch": 69, "duration": 9, "velocity": 52}, {"time": 2570, "pitch": 73, "duration": 10, "velocity": 64}, {"time": 2576, "pitch": 61, "duration": 19, "velocity": 60}, {"time": 2582, "pitch": 64, "duration": 19, "velocity": 54}, {"time": 2588, "pitch": 69, "duration": 16, "velocity": 59}, {"time": 2600, "pitch": 61, "duration": 7, "velocity": 57}, {"time": 2606, "pitch": 73, "duration": 5, "velocity": 58}, {"time": 2612, "pitch": 69, "duration": 5, "velocity": 62}, {"time": 2618, "pitch": 43, "duration": 17, "velocity": 63}, {"time": 2618, "pitch": 62, "duration": 8, "velocity": 54}, {"time": 2618, "pitch": 67, "duration": 7, "velocity": 58}, {"time": 2618, "pitch": 71, "duration": 8, "velocity": 56}, {"time": 2624, "pitch": 50, "duration": 12, "velocity": 56}, {"time": 2630, "pitch": 55, "duration": 8, "velocity": 55}, {"time": 2636, "pitch": 59, "duration": 3, "velocity": 56}, {"time": 2642, "pitch": 45, "duration": 13, "velocity": 67}, {"time": 2642, "pitch": 61, "duration": 11, "velocity": 72}, {"time": 2642, "pitch": 64, "duration": 12, "velocity": 67}, {"time": 2642, "pitch": 69, "duration": 12, "velocity": 67}, {"time": 2648, "pitch": 52, "duration": 8, "velocity": 63}, {"time": 2654, "pitch": 57, "duration": 11, "velocity": 54}, {"time": 2666, "pitch": 50, "duration": 16, "velocity": 66}, {"time": 2666, "pitch": 66, "duration": 10, "velocity": 60}, {"time": 2666, "pitch": 69, "duration": 13, "velocity": 61}, {"time": 2666, "pitch": 74, "duration": 13, "velocity": 60}, {"time": 2672, "pitch": 57, "duration": 11, "velocity": 53}, {"time": 2678, "pitch": 62, "duration": 3, "velocity": 67}, {"time": 2684, "pitch": 71, "duration": 4, "velocity": 62}, {"time": 2690, "pitch": 49, "duration": 17, "velocity": 72}, {"time": 2690, "pitch": 64, "duration": 7, "velocity": 58}, {"time": 2690, "pitch": 70, "duration": 10, "velocity": 66}, {"time": 2696, "pitch": 61, "duration": 10, "velocity": 47}, {"time": 2702, "pitch": 66, "duration": 3, "velocity": 48}, {"time": 2702, "pitch": 71, "duration": 5, "velocity": 51}, {"time": 2708, "pitch": 66, "duration": 2, "velocity": 32}, {"time": 2708, "pitch": 73, "duration": 6, "velocity": 58}, {"time": 2714, "pitch": 47, "duration": 38, "velocity": 67}, {"time": 2714, "pitch": 66, "duration": 10, "velocity": 56}, {"time": 2714, "pitch": 69, "duration": 9, "velocity": 50}, {"time": 2714, "pitch": 74, "duration": 8, "velocity": 62}, {"time": 2720, "pitch": 54, "duration": 33, "velocity": 53}, {"time": 2726, "pitch": 59, "duration": 14, "velocity": 64}, {"time": 2732, "pitch": 62, "duration": 12, "velocity": 56}, {"time": 2738, "pitch": 66, "duration": 7, "velocity": 59}, {"time": 2738, "pitch": 71, "duration": 7, "velocity": 60}, {"time": 2744, "pitch": 59, "duration": 7, "velocity": 52}, {"time": 2750, "pitch": 62, "duration": 4, "velocity": 55}, {"time": 2756, "pitch": 71, "duration": 8, "velocity": 73}, {"time": 2762, "pitch": 42, "duration": 6, "velocity": 69}, {"time": 2762, "pitch": 69, "duration": 20, "velocity": 64}, {"time": 2768, "pitch": 54, "duration": 8, "velocity": 64}, {"time": 2774, "pitch": 57, "duration": 27, "velocity": 55}, {"time": 2780, "pitch": 61, "duration": 19, "velocity": 57}, {"time": 2786, "pitch": 64, "duration": 8, "velocity": 46}, {"time": 2792, "pitch": 69, "duration": 5, "velocity": 48}, {"time": 2798, "pitch": 73, "duration": 2, "velocity": 67}, {"time": 2810, "pitch": 43, "duration": 16, "velocity": 73}, {"time": 2810, "pitch": 62, "duration": 10, "velocity": 60}, {"time": 2810, "pitch": 67, "duration": 11, "velocity": 63}, {"time": 2810, "pitch": 71, "duration": 11, "velocity": 54}, {"time": 2816, "pitch": 50, "duration": 10, "velocity": 57}, {"time": 2822, "pitch": 55, "duration": 4, "velocity": 57}, {"time": 2828, "pitch": 62, "duration": 2, "velocity": 55}, {"time": 2834, "pitch": 45, "duration": 15, "velocity": 73}, {"time": 2834, "pitch": 64, "duration": 11, "velocity": 57}, {"time": 2834, "pitch": 69, "duration": 13, "velocity": 58}, {"time": 2834, "pitch": 73, "duration": 12, "velocity": 63}, {"time": 2840, "pitch": 52, "duration": 11, "velocity": 55}, {"time": 2846, "pitch": 57, "duration": 5, "velocity": 53}, {"time": 2858, "pitch": 47, "duration": 40, "velocity": 69}, {"time": 2858, "pitch": 62, "duration": 11, "velocity": 60}, {"time": 2858, "pitch": 66, "duration": 10, "velocity": 67}, {"time": 2858, "pitch": 71, "duration": 12, "velocity": 64}, {"time": 2864, "pitch": 54, "duration": 37, "velocity": 58}, {"time": 2870, "pitch": 59, "duration": 30, "velocity": 69}, {"time": 2876, "pitch": 61, "duration": 4, "velocity": 57}, {"time": 2882, "pitch": 62, "duration": 5, "velocity": 58}, {"time": 2888, "pitch": 64, "duration": 2, "velocity": 49}, {"time": 2894, "pitch": 66, "duration": 5, "velocity": 54}, {"time": 2900, "pitch": 69, "duration": 5, "velocity": 55}, {"time": 2906, "pitch": 47, "duration": 32, "velocity": 75}, {"time": 2906, "pitch": 62, "duration": 6, "velocity": 73}, {"time": 2906, "pitch": 66, "duration": 6, "velocity": 76}, {"time": 2906, "pitch": 71, "duration": 6, "velocity": 70}, {"time": 2918, "pitch": 59, "duration": 4, "velocity": 72}, {"time": 2918, "pitch": 64, "duration": 3, "velocity": 72}, {"time": 2918, "pitch": 69, "duration": 3, "velocity": 72}, {"time": 2918, "pitch": 73, "duration": 4, "velocity": 75}, {"time": 2930, "pitch": 66, "duration": 6, "velocity": 75}, {"time": 2930, "pitch": 69, "duration": 6, "velocity": 78}, {"time": 2930, "pitch": 74, "duration": 6, "velocity": 73}, {"time": 2933, "pitch": 59, "duration": 4, "velocity": 46}, {"time": 2942, "pitch": 45, "duration": 5, "velocity": 64}, {"time": 2942, "pitch": 64, "duration": 6, "velocity": 75}, {"time": 2942, "pitch": 69, "duration": 7, "velocity": 82}, {"time": 2942, "pitch": 76, "duration": 7, "velocity": 82}, {"time": 2954, "pitch": 50, "duration": 18, "velocity": 91}, {"time": 2954, "pitch": 66, "duration": 7, "velocity": 80}, {"time": 2954, "pitch": 69, "duration": 6, "velocity": 78}, {"time": 2954, "pitch": 74, "duration": 10, "velocity": 80}, {"time": 2960, "pitch": 57, "duration": 11, "velocity": 47}, {"time": 2966, "pitch": 62, "duration": 4, "velocity": 62}, {"time": 2966, "pitch": 64, "duration": 3, "velocity": 82}, {"time": 2966, "pitch": 73, "duration": 4, "velocity": 78}, {"time": 2972, "pitch": 66, "duration": 2, "velocity": 75}, {"time": 2972, "pitch": 74, "duration": 2, "velocity": 67}, {"time": 2978, "pitch": 45, "duration": 18, "velocity": 76}, {"time": 2978, "pitch": 64, "duration": 8, "velocity": 67}, {"time": 2978, "pitch": 69, "duration": 8, "velocity": 73}, {"time": 2978, "pitch": 76, "duration": 8, "velocity": 73}, {"time": 2984, "pitch": 57, "duration": 13, "velocity": 44}, {"time": 2990, "pitch": 64, "duration": 4, "velocity": 78}, {"time": 2996, "pitch": 69, "duration": 4, "velocity": 63}, {"time": 2999, "pitch": 71, "duration": 2, "velocity": 64}, {"time": 3002, "pitch": 47, "duration": 14, "velocity": 72}, {"time": 3002, "pitch": 66, "duration": 5, "velocity": 80}, {"time": 3002, "pitch": 69, "duration": 6, "velocity": 67}, {"time": 3002, "pitch": 74, "duration": 7, "velocity": 69}, {"time": 3008, "pitch": 54, "duration": 9, "velocity": 64}, {"time": 3008, "pitch": 66, "duration": 3, "velocity": 60}, {"time": 3008, "pitch": 73, "duration": 5, "velocity": 76}, {"time": 3014, "pitch": 59, "duration": 3, "velocity": 66}, {"time": 3014, "pitch": 66, "duration": 3, "velocity": 70}, {"time": 3014, "pitch": 74, "duration": 3, "velocity": 76}, {"time": 3020, "pitch": 74, "duration": 5, "velocity": 63}, {"time": 3026, "pitch": 54, "duration": 17, "velocity": 73}, {"time": 3026, "pitch": 61, "duration": 11, "velocity": 69}, {"time": 3026, "pitch": 64, "duration": 8, "velocity": 69}, {"time": 3026, "pitch": 69, "duration": 6, "velocity": 75}, {"time": 3026, "pitch": 73, "duration": 8, "velocity": 76}, {"time": 3038, "pitch": 64, "duration": 3, "velocity": 85}, {"time": 3038, "pitch": 69, "duration": 3, "velocity": 93}, {"time": 3041, "pitch": 61, "duration": 2, "velocity": 73}, {"time": 3044, "pitch": 64, "duration": 3, "velocity": 73}, {"time": 3047, "pitch": 69, "duration": 2, "velocity": 70}, {"time": 3050, "pitch": 43, "duration": 17, "velocity": 70}, {"time": 3050, "pitch": 62, "duration": 9, "velocity": 82}, {"time": 3050, "pitch": 67, "duration": 7, "velocity": 85}, {"time": 3050, "pitch": 71, "duration": 7, "velocity": 85}, {"time": 3056, "pitch": 50, "duration": 12, "velocity": 61}, {"time": 3056, "pitch": 69, "duration": 6, "velocity": 75}, {"time": 3062, "pitch": 55, "duration": 5, "velocity": 70}, {"time": 3062, "pitch": 62, "duration": 5, "velocity": 76}, {"time": 3062, "pitch": 71, "duration": 5, "velocity": 78}, {"time": 3068, "pitch": 74, "duration": 6, "velocity": 73}, {"time": 3074, "pitch": 45, "duration": 13, "velocity": 70}, {"time": 3074, "pitch": 64, "duration": 9, "velocity": 75}, {"time": 3074, "pitch": 69, "duration": 10, "velocity": 78}, {"time": 3074, "pitch": 73, "duration": 10, "velocity": 75}, {"time": 3080, "pitch": 52, "duration": 9, "velocity": 60}, {"time": 3086, "pitch": 57, "duration": 4, "velocity": 70}, {"time": 3086, "pitch": 64, "duration": 4, "velocity": 75}, {"time": 3086, "pitch": 71, "duration": 5, "velocity": 69}, {"time": 3092, "pitch": 69, "duration": 5, "velocity": 64}, {"time": 3098, "pitch": 50, "duration": 10, "velocity": 72}, {"time": 3098, "pitch": 66, "duration": 10, "velocity": 70}, {"time": 3098, "pitch": 69, "duration": 11, "velocity": 66}, {"time": 3098, "pitch": 74, "duration": 11, "velocity": 75}, {"time": 3104, "pitch": 57, "duration": 5, "velocity": 64}, {"time": 3107, "pitch": 62, "duration": 8, "velocity": 59}, {"time": 3113, "pitch": 64, "duration": 1, "velocity": 78}, {"time": 3122, "pitch": 49, "duration": 7, "velocity": 73}, {"time": 3122, "pitch": 64, "duration": 6, "velocity": 66}, {"time": 3122, "pitch": 70, "duration": 6, "velocity": 85}, {"time": 3122, "pitch": 73, "duration": 7, "velocity": 80}, {"time": 3128, "pitch": 61, "duration": 2, "velocity": 60}, {"time": 3128, "pitch": 71, "duration": 5, "velocity": 63}, {"time": 3134, "pitch": 46, "duration": 8, "velocity": 76}, {"time": 3134, "pitch": 66, "duration": 4, "velocity": 73}, {"time": 3134, "pitch": 73, "duration": 5, "velocity": 91}, {"time": 3140, "pitch": 58, "duration": 1, "velocity": 55}, {"time": 3140, "pitch": 76, "duration": 3, "velocity": 82}, {"time": 3146, "pitch": 50, "duration": 17, "velocity": 72}, {"time": 3146, "pitch": 66, "duration": 4, "velocity": 75}, {"time": 3146, "pitch": 69, "duration": 5, "velocity": 73}, {"time": 3146, "pitch": 74, "duration": 5, "velocity": 78}, {"time": 3152, "pitch": 57, "duration": 11, "velocity": 62}, {"time": 3152, "pitch": 64, "duration": 3, "velocity": 60}, {"time": 3152, "pitch": 73, "duration": 8, "velocity": 75}, {"time": 3158, "pitch": 62, "duration": 3, "velocity": 67}, {"time": 3158, "pitch": 66, "duration": 2, "velocity": 73}, {"time": 3158, "pitch": 69, "duration": 1, "velocity": 44}, {"time": 3158, "pitch": 74, "duration": 1, "velocity": 62}, {"time": 3164, "pitch": 78, "duration": 2, "velocity": 78}, {"time": 3170, "pitch": 45, "duration": 16, "velocity": 72}, {"time": 3170, "pitch": 69, "duration": 9, "velocity": 64}, {"time": 3170, "pitch": 74, "duration": 5, "velocity": 72}, {"time": 3170, "pitch": 76, "duration": 5, "velocity": 69}, {"time": 3176, "pitch": 52, "duration": 10, "velocity": 60}, {"time": 3182, "pitch": 57, "duration": 5, "velocity": 82}, {"time": 3185, "pitch": 64, "duration": 2, "velocity": 88}, {"time": 3188, "pitch": 69, "duration": 4, "velocity": 59}, {"time": 3191, "pitch": 71, "duration": 2, "velocity": 69}, {"time": 3194, "pitch": 47, "duration": 16, "velocity": 73}, {"time": 3194, "pitch": 66, "duration": 4, "velocity": 80}, {"time": 3194, "pitch": 69, "duration": 5, "velocity": 70}, {"time": 3194, "pitch": 74, "duration": 6, "velocity": 64}, {"time": 3200, "pitch": 54, "duration": 10, "velocity": 67}, {"time": 3200, "pitch": 64, "duration": 1, "velocity": 56}, {"time": 3200, "pitch": 66, "duration": 3, "velocity": 54}, {"time": 3200, "pitch": 73, "duration": 6, "velocity": 70}, {"time": 3206, "pitch": 59, "duration": 6, "velocity": 64}, {"time": 3206, "pitch": 66, "duration": 1, "velocity": 57}, {"time": 3206, "pitch": 74, "duration": 2, "velocity": 75}, {"time": 3212, "pitch": 76, "duration": 5, "velocity": 66}, {"time": 3218, "pitch": 54, "duration": 18, "velocity": 70}, {"time": 3218, "pitch": 74, "duration": 11, "velocity": 73}, {"time": 3224, "pitch": 61, "duration": 12, "velocity": 63}, {"time": 3230, "pitch": 64, "duration": 3, "velocity": 64}, {"time": 3233, "pitch": 69, "duration": 4, "velocity": 66}, {"time": 3236, "pitch": 73, "duration": 4, "velocity": 64}, {"time": 3239, "pitch": 74, "duration": 5, "velocity": 66}, {"time": 3242, "pitch": 55, "duration": 15, "velocity": 73}, {"time": 3242, "pitch": 62, "duration": 7, "velocity": 93}, {"time": 3242, "pitch": 67, "duration": 8, "velocity": 76}, {"time": 3242, "pitch": 71, "duration": 8, "velocity": 70}, {"time": 3248, "pitch": 59, "duration": 8, "velocity": 69}, {"time": 3251, "pitch": 74, "duration": 5, "velocity": 1}, {"time": 3254, "pitch": 62, "duration": 5, "velocity": 85}, {"time": 3260, "pitch": 74, "duration": 6, "velocity": 72}, {"time": 3266, "pitch": 45, "duration": 15, "velocity": 72}, {"time": 3266, "pitch": 64, "duration": 8, "velocity": 75}, {"time": 3266, "pitch": 69, "duration": 5, "velocity": 66}, {"time": 3266, "pitch": 73, "duration": 9, "velocity": 70}, {"time": 3272, "pitch": 52, "duration": 11, "velocity": 48}, {"time": 3278, "pitch": 57, "duration": 5, "velocity": 75}, {"time": 3278, "pitch": 69, "duration": 5, "velocity": 78}, {"time": 3284, "pitch": 66, "duration": 4, "velocity": 76}, {"time": 3290, "pitch": 47, "duration": 11, "velocity": 69}, {"time": 3290, "pitch": 66, "duration": 10, "velocity": 70}, {"time": 3290, "pitch": 74, "duration": 8, "velocity": 73}, {"time": 3296, "pitch": 54, "duration": 6, "velocity": 69}, {"time": 3296, "pitch": 73, "duration": 7, "velocity": 69}, {"time": 3302, "pitch": 59, "duration": 6, "velocity": 44}, {"time": 3302, "pitch": 66, "duration": 2, "velocity": 32}, {"time": 3302, "pitch": 71, "duration": 6, "velocity": 64}, {"time": 3308, "pitch": 61, "duration": 12, "velocity": 64}, {"time": 3308, "pitch": 69, "duration": 6, "velocity": 61}, {"time": 3314, "pitch": 62, "duration": 5, "velocity": 59}, {"time": 3314, "pitch": 66, "duration": 5, "velocity": 54}, {"time": 3314, "pitch": 71, "duration": 6, "velocity": 64}, {"time": 3338, "pitch": 50, "duration": 17, "velocity": 73}, {"time": 3338, "pitch": 66, "duration": 14, "velocity": 61}, {"time": 3338, "pitch": 69, "duration": 15, "velocity": 67}, {"time": 3338, "pitch": 74, "duration": 15, "velocity": 64}, {"time": 3344, "pitch": 57, "duration": 11, "velocity": 54}, {"time": 3350, "pitch": 62, "duration": 4, "velocity": 63}, {"time": 3362, "pitch": 57, "duration": 16, "velocity": 62}, {"time": 3362, "pitch": 64, "duration": 11, "velocity": 61}, {"time": 3362, "pitch": 69, "duration": 11, "velocity": 63}, {"time": 3362, "pitch": 73, "duration": 14, "velocity": 63}, {"time": 3374, "pitch": 71, "duration": 6, "velocity": 53}, {"time": 3380, "pitch": 73, "duration": 4, "velocity": 50}, {"time": 3386, "pitch": 47, "duration": 14, "velocity": 62}, {"time": 3386, "pitch": 66, "duration": 14, "velocity": 59}, {"time": 3386, "pitch": 69, "duration": 15, "velocity": 62}, {"time": 3386, "pitch": 74, "duration": 14, "velocity": 63}, {"time": 3392, "pitch": 54, "duration": 10, "velocity": 49}, {"time": 3398, "pitch": 59, "duration": 4, "velocity": 59}, {"time": 3410, "pitch": 54, "duration": 16, "velocity": 56}, {"time": 3410, "pitch": 61, "duration": 15, "velocity": 62}, {"time": 3410, "pitch": 64, "duration": 12, "velocity": 51}, {"time": 3410, "pitch": 69, "duration": 9, "velocity": 54}, {"time": 3410, "pitch": 73, "duration": 11, "velocity": 56}, {"time": 3422, "pitch": 69, "duration": 5, "velocity": 47}, {"time": 3434, "pitch": 55, "duration": 15, "velocity": 58}, {"time": 3434, "pitch": 62, "duration": 8, "velocity": 56}, {"time": 3434, "pitch": 67, "duration": 8, "velocity": 55}, {"time": 3434, "pitch": 69, "duration": 7, "velocity": 47}, {"time": 3434, "pitch": 71, "duration": 8, "velocity": 55}, {"time": 3440, "pitch": 59, "duration": 9, "velocity": 43}, {"time": 3446, "pitch": 62, "duration": 4, "velocity": 55}, {"time": 3458, "pitch": 45, "duration": 14, "velocity": 66}, {"time": 3458, "pitch": 61, "duration": 8, "velocity": 57}, {"time": 3458, "pitch": 64, "duration": 8, "velocity": 44}, {"time": 3464, "pitch": 57, "duration": 9, "velocity": 49}, {"time": 3470, "pitch": 61, "duration": 3, "velocity": 48}, {"time": 3482, "pitch": 50, "duration": 16, "velocity": 64}, {"time": 3482, "pitch": 66, "duration": 12, "velocity": 56}, {"time": 3482, "pitch": 69, "duration": 13, "velocity": 59}, {"time": 3482, "pitch": 74, "duration": 13, "velocity": 58}, {"time": 3488, "pitch": 57, "duration": 10, "velocity": 60}, {"time": 3494, "pitch": 62, "duration": 3, "velocity": 62}, {"time": 3500, "pitch": 74, "duration": 6, "velocity": 63}, {"time": 3506, "pitch": 42, "duration": 16, "velocity": 73}, {"time": 3506, "pitch": 64, "duration": 7, "velocity": 56}, {"time": 3506, "pitch": 70, "duration": 8, "velocity": 66}, {"time": 3506, "pitch": 73, "duration": 10, "velocity": 70}, {"time": 3512, "pitch": 54, "duration": 12, "velocity": 46}, {"time": 3518, "pitch": 66, "duration": 3, "velocity": 58}, {"time": 3518, "pitch": 71, "duration": 5, "velocity": 62}, {"time": 3524, "pitch": 73, "duration": 6, "velocity": 69}, {"time": 3530, "pitch": 50, "duration": 16, "velocity": 75}, {"time": 3530, "pitch": 66, "duration": 9, "velocity": 63}, {"time": 3530, "pitch": 69, "duration": 10, "velocity": 70}, {"time": 3530, "pitch": 74, "duration": 10, "velocity": 78}, {"time": 3536, "pitch": 57, "duration": 10, "velocity": 61}, {"time": 3542, "pitch": 62, "duration": 4, "velocity": 63}, {"time": 3548, "pitch": 69, "duration": 3, "velocity": 66}, {"time": 3548, "pitch": 74, "duration": 2, "velocity": 69}, {"time": 3554, "pitch": 49, "duration": 17, "velocity": 73}, {"time": 3554, "pitch": 64, "duration": 10, "velocity": 51}, {"time": 3554, "pitch": 69, "duration": 12, "velocity": 69}, {"time": 3554, "pitch": 76, "duration": 13, "velocity": 76}, {"time": 3560, "pitch": 57, "duration": 10, "velocity": 32}, {"time": 3566, "pitch": 61, "duration": 4, "velocity": 67}, {"time": 3572, "pitch": 71, "duration": 4, "velocity": 51}, {"time": 3575, "pitch": 73, "duration": 2, "velocity": 69}, {"time": 3578, "pitch": 47, "duration": 17, "velocity": 70}, {"time": 3578, "pitch": 66, "duration": 9, "velocity": 67}, {"time": 3578, "pitch": 69, "duration": 13, "velocity": 73}, {"time": 3578, "pitch": 74, "duration": 13, "velocity": 78}, {"time": 3584, "pitch": 54, "duration": 11, "velocity": 57}, {"time": 3590, "pitch": 59, "duration": 5, "velocity": 64}, {"time": 3596, "pitch": 66, "duration": 2, "velocity": 62}, {"time": 3596, "pitch": 69, "duration": 1, "velocity": 37}, {"time": 3596, "pitch": 74, "duration": 3, "velocity": 73}, {"time": 3602, "pitch": 45, "duration": 16, "velocity": 72}, {"time": 3602, "pitch": 64, "duration": 10, "velocity": 62}, {"time": 3602, "pitch": 69, "duration": 11, "velocity": 70}, {"time": 3602, "pitch": 73, "duration": 10, "velocity": 49}, {"time": 3608, "pitch": 54, "duration": 12, "velocity": 58}, {"time": 3614, "pitch": 57, "duration": 4, "velocity": 63}, {"time": 3620, "pitch": 69, "duration": 5, "velocity": 66}, {"time": 3626, "pitch": 43, "duration": 11, "velocity": 72}, {"time": 3626, "pitch": 62, "duration": 9, "velocity": 76}, {"time": 3626, "pitch": 67, "duration": 7, "velocity": 75}, {"time": 3626, "pitch": 71, "duration": 7, "velocity": 76}, {"time": 3632, "pitch": 50, "duration": 6, "velocity": 61}, {"time": 3632, "pitch": 69, "duration": 5, "velocity": 69}, {"time": 3638, "pitch": 55, "duration": 7, "velocity": 59}, {"time": 3638, "pitch": 62, "duration": 5, "velocity": 69}, {"time": 3638, "pitch": 71, "duration": 6, "velocity": 73}, {"time": 3644, "pitch": 57, "duration": 2, "velocity": 67}, {"time": 3644, "pitch": 74, "duration": 4, "velocity": 61}, {"time": 3650, "pitch": 45, "duration": 13, "velocity": 70}, {"time": 3650, "pitch": 64, "duration": 12, "velocity": 60}, {"time": 3650, "pitch": 69, "duration": 13, "velocity": 66}, {"time": 3650, "pitch": 73, "duration": 14, "velocity": 72}, {"time": 3656, "pitch": 52, "duration": 9, "velocity": 54}, {"time": 3662, "pitch": 57, "duration": 4, "velocity": 62}, {"time": 3668, "pitch": 69, "duration": 6, "velocity": 59}, {"time": 3673, "pitch": 47, "duration": 12, "velocity": 69}, {"time": 3674, "pitch": 73, "duration": 11, "velocity": 67}, {"time": 3680, "pitch": 54, "duration": 6, "velocity": 62}, {"time": 3686, "pitch": 59, "duration": 7, "velocity": 63}, {"time": 3692, "pitch": 61, "duration": 21, "velocity": 60}, {"time": 3698, "pitch": 62, "duration": 14, "velocity": 73}, {"time": 3704, "pitch": 69, "duration": 7, "velocity": 70}, {"time": 3710, "pitch": 74, "duration": 6, "velocity": 76}, {"time": 3716, "pitch": 76, "duration": 4, "velocity": 60}, {"time": 3720, "pitch": 69, "duration": 10, "velocity": 44}, {"time": 3721, "pitch": 74, "duration": 3, "velocity": 49}, {"time": 3721, "pitch": 50, "duration": 13, "velocity": 60}, {"time": 3722, "pitch": 78, "duration": 12, "velocity": 63}, {"time": 3728, "pitch": 57, "duration": 7, "velocity": 36}, {"time": 3734, "pitch": 62, "duration": 3, "velocity": 53}, {"time": 3734, "pitch": 81, "duration": 5, "velocity": 56}, {"time": 3740, "pitch": 78, "duration": 5, "velocity": 50}, {"time": 3745, "pitch": 61, "duration": 15, "velocity": 60}, {"time": 3745, "pitch": 76, "duration": 15, "velocity": 66}, {"time": 3745, "pitch": 69, "duration": 13, "velocity": 53}, {"time": 3764, "pitch": 78, "duration": 3, "velocity": 49}, {"time": 3766, "pitch": 76, "duration": 4, "velocity": 60}, {"time": 3769, "pitch": 59, "duration": 16, "velocity": 69}, {"time": 3770, "pitch": 74, "duration": 8, "velocity": 70}, {"time": 3776, "pitch": 66, "duration": 9, "velocity": 55}, {"time": 3782, "pitch": 74, "duration": 5, "velocity": 67}, {"time": 3788, "pitch": 76, "duration": 3, "velocity": 51}, {"time": 3790, "pitch": 74, "duration": 4, "velocity": 58}, {"time": 3794, "pitch": 57, "duration": 12, "velocity": 58}, {"time": 3794, "pitch": 73, "duration": 8, "velocity": 62}, {"time": 3800, "pitch": 66, "duration": 5, "velocity": 47}, {"time": 3805, "pitch": 69, "duration": 2, "velocity": 62}, {"time": 3817, "pitch": 67, "duration": 8, "velocity": 66}, {"time": 3817, "pitch": 43, "duration": 20, "velocity": 69}, {"time": 3817, "pitch": 71, "duration": 8, "velocity": 64}, {"time": 3817, "pitch": 69, "duration": 8, "velocity": 63}, {"time": 3817, "pitch": 62, "duration": 9, "velocity": 63}, {"time": 3824, "pitch": 55, "duration": 15, "velocity": 46}, {"time": 3831, "pitch": 62, "duration": 5, "velocity": 62}, {"time": 3837, "pitch": 71, "duration": 9, "velocity": 70}, {"time": 3855, "pitch": 45, "duration": 64, "velocity": 73}, {"time": 3855, "pitch": 69, "duration": 11, "velocity": 67}, {"time": 3855, "pitch": 64, "duration": 9, "velocity": 57}, {"time": 3855, "pitch": 73, "duration": 11, "velocity": 64}, {"time": 3861, "pitch": 52, "duration": 59, "velocity": 52}, {"time": 3867, "pitch": 57, "duration": 50, "velocity": 72}, {"time": 3871, "pitch": 64, "duration": 4, "velocity": 53}, {"time": 3878, "pitch": 69, "duration": 4, "velocity": 56}, {"time": 3885, "pitch": 73, "duration": 6, "velocity": 51}, {"time": 3892, "pitch": 76, "duration": 13, "velocity": 61}, {"time": 3911, "pitch": 81, "duration": 6, "velocity": 45}, {"time": 3935, "pitch": 66, "duration": 10, "velocity": 39}, {"time": 3937, "pitch": 69, "duration": 13, "velocity": 41}, {"time": 3940, "pitch": 74, "duration": 18, "velocity": 53}, {"time": 3941, "pitch": 47, "duration": 9, "velocity": 69}, {"time": 3947, "pitch": 54, "duration": 4, "velocity": 67}, {"time": 3951, "pitch": 59, "duration": 5, "velocity": 67}, {"time": 3955, "pitch": 61, "duration": 57, "velocity": 62}, {"time": 3959, "pitch": 62, "duration": 53, "velocity": 85}, {"time": 3963, "pitch": 66, "duration": 3, "velocity": 66}, {"time": 3967, "pitch": 71, "duration": 5, "velocity": 60}, {"time": 3972, "pitch": 73, "duration": 2, "velocity": 66}, {"time": 3976, "pitch": 74, "duration": 3, "velocity": 59}, {"time": 3980, "pitch": 78, "duration": 2, "velocity": 54}, {"time": 3985, "pitch": 83, "duration": 3, "velocity": 70}, {"time": 3990, "pitch": 85, "duration": 2, "velocity": 60}, {"time": 3996, "pitch": 86, "duration": 3, "velocity": 39}, {"time": 4002, "pitch": 90, "duration": 2, "velocity": 47}, {"time": 4010, "pitch": 95, "duration": 2, "velocity": 47}, {"time": 4053, "pitch": 83, "duration": 9, "velocity": 41}, {"time": 4054, "pitch": 86, "duration": 8, "velocity": 46}, {"time": 4054, "pitch": 47, "duration": 9, "velocity": 54}, {"time": 4055, "pitch": 90, "duration": 7, "velocity": 42}, {"time": 4056, "pitch": 95, "duration": 7, "velocity": 46}], "annotations": [{"time": 99, "annotation": {"number": 64, "value": 127}, "group": "control_change"}, {"time": 169, "annotation": {"number": 64, "value": 0}, "group": "control_change"}, {"time": 176, "annotation": {"number": 64, "value": 127}, "group": "control_change"}, {"time": 232, "annotation": {"number": 64, "value": 127}, "group": "control_change"}, {"time": 253, "annotation": {"number": 64, "value": 0}, "group": "control_change"}, {"time": 265, "annotation": {"number": 64, "value": 127}, "group": "control_change"}, {"time": 266, "annotation": {"number": 64, "value": 0}, "group": "control_change"}, {"time": 290, "annotation": {"number": 64, "value": 0}, "group": "control_change"}, {"time": 293, "annotation": {"number": 64, "value": 127}, "group": "control_change"}, {"time": 311, "annotation": {"number": 64, "value": 0}, "group": "control_change"}, {"time": 315, "annotation": {"number": 64, "value": 127}, "group": "control_change"}, {"time": 336, "annotation": {"number": 64, "value": 0}, "group": "control_change"}, {"time": 340, "annotation": {"number": 64, "value": 127}, "group": "control_change"}, {"time": 361, "annotation": {"number": 64, "value": 0}, "group": "control_change"}, {"time": 363, "annotation": {"number": 64, "value": 127}, "group": "control_change"}, {"time": 385, "annotation": {"number": 64, "value": 0}, "group": "control_change"}, {"time": 388, "annotation": {"number": 64, "value": 127}, "group": "control_change"}, {"time": 408, "annotation": {"number": 64, "value": 0}, "group": "control_change"}, {"time": 412, "annotation": {"number": 64, "value": 127}, "group": "control_change"}, {"time": 455, "annotation": {"number": 64, "value": 0}, "group": "control_change"}, {"time": 456, "annotation": {"number": 64, "value": 127}, "group": "control_change"}, {"time": 505, "annotation": {"number": 64, "value": 0}, "group": "control_change"}, {"time": 506, "annotation": {"number": 64, "value": 127}, "group": "control_change"}, {"time": 553, "annotation": {"number": 64, "value": 0}, "group": "control_change"}, {"time": 558, "annotation": {"number": 64, "value": 127}, "group": "control_change"}, {"time": 603, "annotation": {"number": 64, "value": 0}, "group": "control_change"}, {"time": 608, "annotation": {"number": 64, "value": 127}, "group": "control_change"}, {"time": 625, "annotation": {"number": 64, "value": 0}, "group": "control_change"}, {"time": 631, "annotation": {"number": 64, "value": 127}, "group": "control_change"}, {"time": 649, "annotation": {"number": 64, "value": 0}, "group": "control_change"}, {"time": 655, "annotation": {"number": 64, "value": 127}, "group": "control_change"}, {"time": 672, "annotation": {"number": 64, "value": 0}, "group": "control_change"}, {"time": 676, "annotation": {"number": 64, "value": 127}, "group": "control_change"}, {"time": 698, "annotation": {"number": 64, "value": 0}, "group": "control_change"}, {"time": 703, "annotation": {"number": 64, "value": 127}, "group": "control_change"}, {"time": 748, "annotation": {"number": 64, "value": 0}, "group": "control_change"}, {"time": 752, "annotation": {"number": 64, "value": 127}, "group": "control_change"}, {"time": 794, "annotation": {"number": 64, "value": 0}, "group": "control_change"}, {"time": 796, "annotation": {"number": 64, "value": 127}, "group": "control_change"}, {"time": 818, "annotation": {"number": 64, "value": 0}, "group": "control_change"}, {"time": 823, "annotation": {"number": 64, "value": 127}, "group": "control_change"}, {"time": 841, "annotation": {"number": 64, "value": 0}, "group": "control_change"}, {"time": 847, "annotation": {"number": 64, "value": 127}, "group": "control_change"}, {"time": 889, "annotation": {"number": 64, "value": 0}, "group": "control_change"}, {"time": 894, "annotation": {"number": 64, "value": 127}, "group": "control_change"}, {"time": 937, "annotation": {"number": 64, "value": 0}, "group": "control_change"}, {"time": 941, "annotation": {"number": 64, "value": 127}, "group": "control_change"}, {"time": 984, "annotation": {"number": 64, "value": 0}, "group": "control_change"}, {"time": 990, "annotation": {"number": 64, "value": 127}, "group": "control_change"}, {"time": 1010, "annotation": {"number": 64, "value": 0}, "group": "control_change"}, {"time": 1015, "annotation": {"number": 64, "value": 127}, "group": "control_change"}, {"time": 1032, "annotation": {"number": 64, "value": 0}, "group": "control_change"}, {"time": 1039, "annotation": {"number": 64, "value": 127}, "group": "control_change"}, {"time": 1056, "annotation": {"number": 64, "value": 0}, "group": "control_change"}, {"time": 1062, "annotation": {"number": 64, "value": 127}, "group": "control_change"}, {"time": 1081, "annotation": {"number": 64, "value": 0}, "group": "control_change"}, {"time": 1086, "annotation": {"number": 64, "value": 127}, "group": "control_change"}, {"time": 1129, "annotation": {"number": 64, "value": 0}, "group": "control_change"}, {"time": 1135, "annotation": {"number": 64, "value": 127}, "group": "control_change"}, {"time": 1176, "annotation": {"number": 64, "value": 0}, "group": "control_change"}, {"time": 1183, "annotation": {"number": 64, "value": 127}, "group": "control_change"}, {"time": 1201, "annotation": {"number": 64, "value": 0}, "group": "control_change"}, {"time": 1207, "annotation": {"number": 64, "value": 127}, "group": "control_change"}, {"time": 1224, "annotation": {"number": 64, "value": 0}, "group": "control_change"}, {"time": 1232, "annotation": {"number": 64, "value": 127}, "group": "control_change"}, {"time": 1273, "annotation": {"number": 64, "value": 127}, "group": "control_change"}, {"time": 1274, "annotation": {"number": 64, "value": 0}, "group": "control_change"}, {"time": 1275, "annotation": {"number": 64, "value": 127}, "group": "control_change"}, {"time": 1298, "annotation": {"number": 64, "value": 0}, "group": "control_change"}, {"time": 1302, "annotation": {"number": 64, "value": 127}, "group": "control_change"}, {"time": 1320, "annotation": {"number": 64, "value": 0}, "group": "control_change"}, {"time": 1326, "annotation": {"number": 64, "value": 127}, "group": "control_change"}, {"time": 1345, "annotation": {"number": 64, "value": 0}, "group": "control_change"}, {"time": 1350, "annotation": {"number": 64, "value": 127}, "group": "control_change"}, {"time": 1369, "annotation": {"number": 64, "value": 0}, "group": "control_change"}, {"time": 1375, "annotation": {"number": 64, "value": 127}, "group": "control_change"}, {"time": 1392, "annotation": {"number": 64, "value": 0}, "group": "control_change"}, {"time": 1398, "annotation": {"number": 64, "value": 127}, "group": "control_change"}, {"time": 1419, "annotation": {"number": 64, "value": 0}, "group": "control_change"}, {"time": 1424, "annotation": {"number": 64, "value": 127}, "group": "control_change"}, {"time": 1441, "annotation": {"number": 64, "value": 0}, "group": "control_change"}, {"time": 1447, "annotation": {"number": 64, "value": 127}, "group": "control_change"}, {"time": 1464, "annotation": {"number": 64, "value": 0}, "group": "control_change"}, {"time": 1470, "annotation": {"number": 64, "value": 127}, "group": "control_change"}, {"time": 1489, "annotation": {"number": 64, "value": 0}, "group": "control_change"}, {"time": 1494, "annotation": {"number": 64, "value": 127}, "group": "control_change"}, {"time": 1513, "annotation": {"number": 64, "value": 0}, "group": "control_change"}, {"time": 1515, "annotation": {"number": 64, "value": 127}, "group": "control_change"}, {"time": 1538, "annotation": {"number": 64, "value": 0}, "group": "control_change"}, {"time": 1543, "annotation": {"number": 64, "value": 127}, "group": "control_change"}, {"time": 1560, "annotation": {"number": 64, "value": 0}, "group": "control_change"}, {"time": 1566, "annotation": {"number": 64, "value": 127}, "group": "control_change"}, {"time": 1585, "annotation": {"number": 64, "value": 0}, "group": "control_change"}, {"time": 1591, "annotation": {"number": 64, "value": 127}, "group": "control_change"}, {"time": 1608, "annotation": {"number": 64, "value": 0}, "group": "control_change"}, {"time": 1613, "annotation": {"number": 64, "value": 127}, "group": "control_change"}, {"time": 1632, "annotation": {"number": 64, "value": 0}, "group": "control_change"}, {"time": 1639, "annotation": {"number": 64, "value": 127}, "group": "control_change"}, {"time": 1656, "annotation": {"number": 64, "value": 0}, "group": "control_change"}, {"time": 1659, "annotation": {"number": 64, "value": 127}, "group": "control_change"}, {"time": 1705, "annotation": {"number": 64, "value": 0}, "group": "control_change"}, {"time": 1711, "annotation": {"number": 64, "value": 127}, "group": "control_change"}, {"time": 1729, "annotation": {"number": 64, "value": 0}, "group": "control_change"}, {"time": 1734, "annotation": {"number": 64, "value": 127}, "group": "control_change"}, {"time": 1753, "annotation": {"number": 64, "value": 0}, "group": "control_change"}, {"time": 1759, "annotation": {"number": 64, "value": 127}, "group": "control_change"}, {"time": 1777, "annotation": {"number": 64, "value": 0}, "group": "control_change"}, {"time": 1783, "annotation": {"number": 64, "value": 127}, "group": "control_change"}, {"time": 1802, "annotation": {"number": 64, "value": 0}, "group": "control_change"}, {"time": 1808, "annotation": {"number": 64, "value": 127}, "group": "control_change"}, {"time": 1826, "annotation": {"number": 64, "value": 0}, "group": "control_change"}, {"time": 1831, "annotation": {"number": 64, "value": 127}, "group": "control_change"}, {"time": 1850, "annotation": {"number": 64, "value": 0}, "group": "control_change"}, {"time": 1850, "annotation": {"number": 64, "value": 127}, "group": "control_change"}, {"time": 1874, "annotation": {"number": 64, "value": 0}, "group": "control_change"}, {"time": 1878, "annotation": {"number": 64, "value": 127}, "group": "control_change"}, {"time": 1897, "annotation": {"number": 64, "value": 0}, "group": "control_change"}, {"time": 1903, "annotation": {"number": 64, "value": 127}, "group": "control_change"}, {"time": 1922, "annotation": {"number": 64, "value": 0}, "group": "control_change"}, {"time": 1927, "annotation": {"number": 64, "value": 127}, "group": "control_change"}, {"time": 1944, "annotation": {"number": 64, "value": 0}, "group": "control_change"}, {"time": 1949, "annotation": {"number": 64, "value": 127}, "group": "control_change"}, {"time": 1970, "annotation": {"number": 64, "value": 0}, "group": "control_change"}, {"time": 1976, "annotation": {"number": 64, "value": 127}, "group": "control_change"}, {"time": 1993, "annotation": {"number": 64, "value": 0}, "group": "control_change"}, {"time": 2000, "annotation": {"number": 64, "value": 127}, "group": "control_change"}, {"time": 2019, "annotation": {"number": 64, "value": 0}, "group": "control_change"}, {"time": 2025, "annotation": {"number": 64, "value": 127}, "group": "control_change"}, {"time": 2041, "annotation": {"number": 64, "value": 0}, "group": "control_change"}, {"time": 2048, "annotation": {"number": 64, "value": 127}, "group": "control_change"}, {"time": 2090, "annotation": {"number": 64, "value": 0}, "group": "control_change"}, {"time": 2091, "annotation": {"number": 64, "value": 127}, "group": "control_change"}, {"time": 2138, "annotation": {"number": 64, "value": 127}, "group": "control_change"}, {"time": 2139, "annotation": {"number": 64, "value": 0}, "group": "control_change"}, {"time": 2185, "annotation": {"number": 64, "value": 0}, "group": "control_change"}, {"time": 2190, "annotation": {"number": 64, "value": 127}, "group": "control_change"}, {"time": 2235, "annotation": {"number": 64, "value": 0}, "group": "control_change"}, {"time": 2240, "annotation": {"number": 64, "value": 127}, "group": "control_change"}, {"time": 2257, "annotation": {"number": 64, "value": 0}, "group": "control_change"}, {"time": 2263, "annotation": {"number": 64, "value": 127}, "group": "control_change"}, {"time": 2281, "annotation": {"number": 64, "value": 0}, "group": "control_change"}, {"time": 2287, "annotation": {"number": 64, "value": 127}, "group": "control_change"}, {"time": 2304, "annotation": {"number": 64, "value": 0}, "group": "control_change"}, {"time": 2308, "annotation": {"number": 64, "value": 127}, "group": "control_change"}, {"time": 2330, "annotation": {"number": 64, "value": 0}, "group": "control_change"}, {"time": 2335, "annotation": {"number": 64, "value": 127}, "group": "control_change"}, {"time": 2380, "annotation": {"number": 64, "value": 0}, "group": "control_change"}, {"time": 2384, "annotation": {"number": 64, "value": 127}, "group": "control_change"}, {"time": 2426, "annotation": {"number": 64, "value": 0}, "group": "control_change"}, {"time": 2428, "annotation": {"number": 64, "value": 127}, "group": "control_change"}, {"time": 2450, "annotation": {"number": 64, "value": 0}, "group": "control_change"}, {"time": 2455, "annotation": {"number": 64, "value": 127}, "group": "control_change"}, {"time": 2473, "annotation": {"number": 64, "value": 0}, "group": "control_change"}, {"time": 2479, "annotation": {"number": 64, "value": 127}, "group": "control_change"}, {"time": 2521, "annotation": {"number": 64, "value": 0}, "group": "control_change"}, {"time": 2526, "annotation": {"number": 64, "value": 127}, "group": "control_change"}, {"time": 2569, "annotation": {"number": 64, "value": 0}, "group": "control_change"}, {"time": 2573, "annotation": {"number": 64, "value": 127}, "group": "control_change"}, {"time": 2616, "annotation": {"number": 64, "value": 0}, "group": "control_change"}, {"time": 2622, "annotation": {"number": 64, "value": 127}, "group": "control_change"}, {"time": 2642, "annotation": {"number": 64, "value": 0}, "group": "control_change"}, {"time": 2647, "annotation": {"number": 64, "value": 127}, "group": "control_change"}, {"time": 2664, "annotation": {"number": 64, "value": 0}, "group": "control_change"}, {"time": 2671, "annotation": {"number": 64, "value": 127}, "group": "control_change"}, {"time": 2688, "annotation": {"number": 64, "value": 0}, "group": "control_change"}, {"time": 2694, "annotation": {"number": 64, "value": 127}, "group": "control_change"}, {"time": 2713, "annotation": {"number": 64, "value": 0}, "group": "control_change"}, {"time": 2718, "annotation": {"number": 64, "value": 127}, "group": "control_change"}, {"time": 2761, "annotation": {"number": 64, "value": 0}, "group": "control_change"}, {"time": 2767, "annotation": {"number": 64, "value": 127}, "group": "control_change"}, {"time": 2808, "annotation": {"number": 64, "value": 0}, "group": "control_change"}, {"time": 2815, "annotation": {"number": 64, "value": 127}, "group": "control_change"}, {"time": 2833, "annotation": {"number": 64, "value": 0}, "group": "control_change"}, {"time": 2839, "annotation": {"number": 64, "value": 127}, "group": "control_change"}, {"time": 2856, "annotation": {"number": 64, "value": 0}, "group": "control_change"}, {"time": 2864, "annotation": {"number": 64, "value": 127}, "group": "control_change"}, {"time": 2905, "annotation": {"number": 64, "value": 127}, "group": "control_change"}, {"time": 2906, "annotation": {"number": 64, "value": 0}, "group": "control_change"}, {"time": 2907, "annotation": {"number": 64, "value": 127}, "group": "control_change"}, {"time": 2930, "annotation": {"number": 64, "value": 0}, "group": "control_change"}, {"time": 2934, "annotation": {"number": 64, "value": 127}, "group": "control_change"}, {"time": 2952, "annotation": {"number": 64, "value": 0}, "group": "control_change"}, {"time": 2958, "annotation": {"number": 64, "value": 127}, "group": "control_change"}, {"time": 2977, "annotation": {"number": 64, "value": 0}, "group": "control_change"}, {"time": 2982, "annotation": {"number": 64, "value": 127}, "group": "control_change"}, {"time": 3001, "annotation": {"number": 64, "value": 0}, "group": "control_change"}, {"time": 3007, "annotation": {"number": 64, "value": 127}, "group": "control_change"}, {"time": 3024, "annotation": {"number": 64, "value": 0}, "group": "control_change"}, {"time": 3030, "annotation": {"number": 64, "value": 127}, "group": "control_change"}, {"time": 3051, "annotation": {"number": 64, "value": 0}, "group": "control_change"}, {"time": 3056, "annotation": {"number": 64, "value": 127}, "group": "control_change"}, {"time": 3073, "annotation": {"number": 64, "value": 0}, "group": "control_change"}, {"time": 3079, "annotation": {"number": 64, "value": 127}, "group": "control_change"}, {"time": 3096, "annotation": {"number": 64, "value": 0}, "group": "control_change"}, {"time": 3102, "annotation": {"number": 64, "value": 127}, "group": "control_change"}, {"time": 3121, "annotation": {"number": 64, "value": 0}, "group": "control_change"}, {"time": 3126, "annotation": {"number": 64, "value": 127}, "group": "control_change"}, {"time": 3145, "annotation": {"number": 64, "value": 0}, "group": "control_change"}, {"time": 3147, "annotation": {"number": 64, "value": 127}, "group": "control_change"}, {"time": 3170, "annotation": {"number": 64, "value": 0}, "group": "control_change"}, {"time": 3175, "annotation": {"number": 64, "value": 127}, "group": "control_change"}, {"time": 3192, "annotation": {"number": 64, "value": 0}, "group": "control_change"}, {"time": 3198, "annotation": {"number": 64, "value": 127}, "group": "control_change"}, {"time": 3217, "annotation": {"number": 64, "value": 0}, "group": "control_change"}, {"time": 3223, "annotation": {"number": 64, "value": 127}, "group": "control_change"}, {"time": 3240, "annotation": {"number": 64, "value": 0}, "group": "control_change"}, {"time": 3245, "annotation": {"number": 64, "value": 127}, "group": "control_change"}, {"time": 3264, "annotation": {"number": 64, "value": 0}, "group": "control_change"}, {"time": 3271, "annotation": {"number": 64, "value": 127}, "group": "control_change"}, {"time": 3288, "annotation": {"number": 64, "value": 0}, "group": "control_change"}, {"time": 3291, "annotation": {"number": 64, "value": 127}, "group": "control_change"}, {"time": 3337, "annotation": {"number": 64, "value": 0}, "group": "control_change"}, {"time": 3343, "annotation": {"number": 64, "value": 127}, "group": "control_change"}, {"time": 3361, "annotation": {"number": 64, "value": 0}, "group": "control_change"}, {"time": 3366, "annotation": {"number": 64, "value": 127}, "group": "control_change"}, {"time": 3385, "annotation": {"number": 64, "value": 0}, "group": "control_change"}, {"time": 3391, "annotation": {"number": 64, "value": 127}, "group": "control_change"}, {"time": 3409, "annotation": {"number": 64, "value": 0}, "group": "control_change"}, {"time": 3415, "annotation": {"number": 64, "value": 127}, "group": "control_change"}, {"time": 3434, "annotation": {"number": 64, "value": 0}, "group": "control_change"}, {"time": 3440, "annotation": {"number": 64, "value": 127}, "group": "control_change"}, {"time": 3458, "annotation": {"number": 64, "value": 0}, "group": "control_change"}, {"time": 3463, "annotation": {"number": 64, "value": 127}, "group": "control_change"}, {"time": 3482, "annotation": {"number": 64, "value": 0}, "group": "control_change"}, {"time": 3482, "annotation": {"number": 64, "value": 127}, "group": "control_change"}, {"time": 3506, "annotation": {"number": 64, "value": 0}, "group": "control_change"}, {"time": 3510, "annotation": {"number": 64, "value": 127}, "group": "control_change"}, {"time": 3529, "annotation": {"number": 64, "value": 0}, "group": "control_change"}, {"time": 3535, "annotation": {"number": 64, "value": 127}, "group": "control_change"}, {"time": 3554, "annotation": {"number": 64, "value": 0}, "group": "control_change"}, {"time": 3559, "annotation": {"number": 64, "value": 127}, "group": "control_change"}, {"time": 3576, "annotation": {"number": 64, "value": 0}, "group": "control_change"}, {"time": 3581, "annotation": {"number": 64, "value": 127}, "group": "control_change"}, {"time": 3602, "annotation": {"number": 64, "value": 0}, "group": "control_change"}, {"time": 3608, "annotation": {"number": 64, "value": 127}, "group": "control_change"}, {"time": 3625, "annotation": {"number": 64, "value": 0}, "group": "control_change"}, {"time": 3632, "annotation": {"number": 64, "value": 127}, "group": "control_change"}, {"time": 3651, "annotation": {"number": 64, "value": 0}, "group": "control_change"}, {"time": 3657, "annotation": {"number": 64, "value": 127}, "group": "control_change"}, {"time": 3673, "annotation": {"number": 64, "value": 0}, "group": "control_change"}, {"time": 3675, "annotation": {"number": 64, "value": 127}, "group": "control_change"}, {"time": 3722, "annotation": {"number": 64, "value": 0}, "group": "control_change"}, {"time": 3727, "annotation": {"number": 64, "value": 127}, "group": "control_change"}, {"time": 3746, "annotation": {"number": 64, "value": 0}, "group": "control_change"}, {"time": 3750, "annotation": {"number": 64, "value": 127}, "group": "control_change"}, {"time": 3769, "annotation": {"number": 64, "value": 0}, "group": "control_change"}, {"time": 3774, "annotation": {"number": 64, "value": 127}, "group": "control_change"}, {"time": 3794, "annotation": {"number": 64, "value": 0}, "group": "control_change"}, {"time": 3799, "annotation": {"number": 64, "value": 127}, "group": "control_change"}, {"time": 3817, "annotation": {"number": 64, "value": 0}, "group": "control_change"}, {"time": 3821, "annotation": {"number": 64, "value": 127}, "group": "control_change"}, {"time": 3854, "annotation": {"number": 64, "value": 0}, "group": "control_change"}, {"time": 3859, "annotation": {"number": 64, "value": 127}, "group": "control_change"}, {"time": 3942, "annotation": {"number": 64, "value": 0}, "group": "control_change"}, {"time": 3947, "annotation": {"number": 64, "value": 127}, "group": "control_change"}, {"time": 4054, "annotation": {"number": 64, "value": 0}, "group": "control_change"}, {"time": 4058, "annotation": {"number": 64, "value": 127}, "group": "control_change"}, {"time": 4080, "annotation": {"number": 64, "value": 0}, "group": "control_change"}]}]}