{"metadata": {"schema_version": "0.2", "title": "None", "source_filename": "204.mid", "source_format": "midi"}, "resolution": 12, "tempos": [{"time": 0, "qpm": 97.9999836666694}], "time_signatures": [{"time": 0, "numerator": 4, "denominator": 4}], "tracks": [{"program": 0, "is_drum": false, "name": "MELODY", "notes": [{"time": 494, "pitch": 73, "duration": 12, "velocity": 95}, {"time": 506, "pitch": 72, "duration": 12, "velocity": 97}, {"time": 518, "pitch": 70, "duration": 18, "velocity": 68}, {"time": 536, "pitch": 68, "duration": 7, "velocity": 86}, {"time": 542, "pitch": 70, "duration": 6, "velocity": 68}, {"time": 548, "pitch": 68, "duration": 6, "velocity": 66}, {"time": 554, "pitch": 65, "duration": 6, "velocity": 81}, {"time": 560, "pitch": 68, "duration": 30, "velocity": 90}, {"time": 590, "pitch": 73, "duration": 12, "velocity": 101}, {"time": 602, "pitch": 72, "duration": 12, "velocity": 105}, {"time": 614, "pitch": 70, "duration": 18, "velocity": 94}, {"time": 632, "pitch": 68, "duration": 6, "velocity": 71}, {"time": 638, "pitch": 70, "duration": 7, "velocity": 72}, {"time": 644, "pitch": 73, "duration": 6, "velocity": 89}, {"time": 650, "pitch": 75, "duration": 6, "velocity": 97}, {"time": 656, "pitch": 77, "duration": 30, "velocity": 84}, {"time": 686, "pitch": 77, "duration": 12, "velocity": 103}, {"time": 698, "pitch": 77, "duration": 13, "velocity": 98}, {"time": 710, "pitch": 75, "duration": 18, "velocity": 103}, {"time": 728, "pitch": 73, "duration": 7, "velocity": 100}, {"time": 734, "pitch": 75, "duration": 6, "velocity": 97}, {"time": 740, "pitch": 73, "duration": 6, "velocity": 93}, {"time": 746, "pitch": 70, "duration": 6, "velocity": 87}, {"time": 752, "pitch": 73, "duration": 30, "velocity": 97}, {"time": 782, "pitch": 73, "duration": 12, "velocity": 103}, {"time": 794, "pitch": 72, "duration": 12, "velocity": 103}, {"time": 806, "pitch": 70, "duration": 18, "velocity": 97}, {"time": 824, "pitch": 70, "duration": 6, "velocity": 101}, {"time": 830, "pitch": 68, "duration": 6, "velocity": 95}, {"time": 836, "pitch": 65, "duration": 6, "velocity": 91}, {"time": 842, "pitch": 68, "duration": 6, "velocity": 100}, {"time": 848, "pitch": 70, "duration": 78, "velocity": 103}, {"time": 926, "pitch": 73, "duration": 12, "velocity": 95}, {"time": 938, "pitch": 72, "duration": 12, "velocity": 97}, {"time": 950, "pitch": 70, "duration": 18, "velocity": 68}, {"time": 968, "pitch": 68, "duration": 7, "velocity": 86}, {"time": 974, "pitch": 70, "duration": 6, "velocity": 68}, {"time": 980, "pitch": 68, "duration": 6, "velocity": 66}, {"time": 986, "pitch": 65, "duration": 6, "velocity": 81}, {"time": 992, "pitch": 68, "duration": 30, "velocity": 90}, {"time": 1022, "pitch": 73, "duration": 12, "velocity": 101}, {"time": 1034, "pitch": 72, "duration": 12, "velocity": 105}, {"time": 1046, "pitch": 70, "duration": 18, "velocity": 94}, {"time": 1064, "pitch": 68, "duration": 6, "velocity": 71}, {"time": 1070, "pitch": 70, "duration": 7, "velocity": 72}, {"time": 1076, "pitch": 73, "duration": 6, "velocity": 89}, {"time": 1082, "pitch": 75, "duration": 6, "velocity": 97}, {"time": 1088, "pitch": 77, "duration": 30, "velocity": 84}, {"time": 1118, "pitch": 77, "duration": 12, "velocity": 103}, {"time": 1130, "pitch": 77, "duration": 13, "velocity": 98}, {"time": 1142, "pitch": 75, "duration": 18, "velocity": 103}, {"time": 1160, "pitch": 73, "duration": 7, "velocity": 100}, {"time": 1166, "pitch": 75, "duration": 6, "velocity": 97}, {"time": 1172, "pitch": 73, "duration": 6, "velocity": 93}, {"time": 1178, "pitch": 70, "duration": 6, "velocity": 87}, {"time": 1184, "pitch": 73, "duration": 30, "velocity": 97}, {"time": 1214, "pitch": 73, "duration": 12, "velocity": 103}, {"time": 1226, "pitch": 72, "duration": 12, "velocity": 103}, {"time": 1238, "pitch": 70, "duration": 18, "velocity": 97}, {"time": 1256, "pitch": 70, "duration": 6, "velocity": 101}, {"time": 1262, "pitch": 68, "duration": 6, "velocity": 95}, {"time": 1268, "pitch": 65, "duration": 6, "velocity": 91}, {"time": 1274, "pitch": 68, "duration": 6, "velocity": 100}, {"time": 1280, "pitch": 70, "duration": 78, "velocity": 103}, {"time": 1358, "pitch": 73, "duration": 12, "velocity": 98}, {"time": 1370, "pitch": 75, "duration": 13, "velocity": 98}, {"time": 1382, "pitch": 77, "duration": 18, "velocity": 100}, {"time": 1400, "pitch": 75, "duration": 7, "velocity": 97}, {"time": 1406, "pitch": 77, "duration": 7, "velocity": 91}, {"time": 1412, "pitch": 75, "duration": 9, "velocity": 83}, {"time": 1418, "pitch": 77, "duration": 7, "velocity": 93}, {"time": 1424, "pitch": 80, "duration": 12, "velocity": 90}, {"time": 1436, "pitch": 75, "duration": 18, "velocity": 76}, {"time": 1454, "pitch": 73, "duration": 12, "velocity": 100}, {"time": 1466, "pitch": 75, "duration": 12, "velocity": 97}, {"time": 1478, "pitch": 82, "duration": 18, "velocity": 92}, {"time": 1496, "pitch": 80, "duration": 7, "velocity": 101}, {"time": 1502, "pitch": 82, "duration": 7, "velocity": 98}, {"time": 1508, "pitch": 80, "duration": 6, "velocity": 83}, {"time": 1514, "pitch": 77, "duration": 6, "velocity": 91}, {"time": 1520, "pitch": 80, "duration": 12, "velocity": 99}, {"time": 1532, "pitch": 77, "duration": 18, "velocity": 99}, {"time": 1550, "pitch": 80, "duration": 12, "velocity": 103}, {"time": 1562, "pitch": 82, "duration": 6, "velocity": 108}, {"time": 1568, "pitch": 85, "duration": 24, "velocity": 114}, {"time": 1592, "pitch": 82, "duration": 12, "velocity": 109}, {"time": 1604, "pitch": 80, "duration": 6, "velocity": 98}, {"time": 1610, "pitch": 77, "duration": 6, "velocity": 98}, {"time": 1616, "pitch": 80, "duration": 12, "velocity": 100}, {"time": 1628, "pitch": 77, "duration": 18, "velocity": 97}, {"time": 1646, "pitch": 77, "duration": 12, "velocity": 109}, {"time": 1658, "pitch": 77, "duration": 12, "velocity": 101}, {"time": 1670, "pitch": 75, "duration": 12, "velocity": 111}, {"time": 1682, "pitch": 75, "duration": 12, "velocity": 106}, {"time": 1694, "pitch": 73, "duration": 7, "velocity": 101}, {"time": 1700, "pitch": 75, "duration": 13, "velocity": 99}, {"time": 1712, "pitch": 77, "duration": 30, "velocity": 105}, {"time": 1742, "pitch": 73, "duration": 13, "velocity": 106}, {"time": 1754, "pitch": 75, "duration": 12, "velocity": 103}, {"time": 1766, "pitch": 77, "duration": 18, "velocity": 105}, {"time": 1784, "pitch": 75, "duration": 6, "velocity": 98}, {"time": 1790, "pitch": 77, "duration": 7, "velocity": 100}, {"time": 1796, "pitch": 75, "duration": 6, "velocity": 98}, {"time": 1802, "pitch": 77, "duration": 6, "velocity": 97}, {"time": 1808, "pitch": 80, "duration": 12, "velocity": 92}, {"time": 1820, "pitch": 75, "duration": 18, "velocity": 106}, {"time": 1838, "pitch": 73, "duration": 12, "velocity": 97}, {"time": 1850, "pitch": 75, "duration": 12, "velocity": 103}, {"time": 1862, "pitch": 82, "duration": 18, "velocity": 97}, {"time": 1880, "pitch": 80, "duration": 6, "velocity": 106}, {"time": 1886, "pitch": 82, "duration": 6, "velocity": 93}, {"time": 1892, "pitch": 80, "duration": 6, "velocity": 92}, {"time": 1898, "pitch": 77, "duration": 7, "velocity": 97}, {"time": 1904, "pitch": 80, "duration": 12, "velocity": 108}, {"time": 1916, "pitch": 77, "duration": 18, "velocity": 97}, {"time": 1934, "pitch": 80, "duration": 13, "velocity": 101}, {"time": 1946, "pitch": 82, "duration": 6, "velocity": 103}, {"time": 1952, "pitch": 85, "duration": 24, "velocity": 109}, {"time": 1976, "pitch": 82, "duration": 12, "velocity": 103}, {"time": 1988, "pitch": 80, "duration": 6, "velocity": 99}, {"time": 1994, "pitch": 77, "duration": 6, "velocity": 99}, {"time": 2000, "pitch": 80, "duration": 12, "velocity": 106}, {"time": 2012, "pitch": 77, "duration": 18, "velocity": 100}, {"time": 2030, "pitch": 77, "duration": 12, "velocity": 101}, {"time": 2042, "pitch": 77, "duration": 13, "velocity": 98}, {"time": 2054, "pitch": 75, "duration": 12, "velocity": 98}, {"time": 2066, "pitch": 75, "duration": 12, "velocity": 90}, {"time": 2078, "pitch": 73, "duration": 6, "velocity": 90}, {"time": 2084, "pitch": 75, "duration": 12, "velocity": 93}, {"time": 2096, "pitch": 77, "duration": 78, "velocity": 101}, {"time": 2174, "pitch": 73, "duration": 12, "velocity": 95}, {"time": 2186, "pitch": 72, "duration": 12, "velocity": 97}, {"time": 2198, "pitch": 70, "duration": 18, "velocity": 68}, {"time": 2216, "pitch": 68, "duration": 7, "velocity": 86}, {"time": 2222, "pitch": 70, "duration": 6, "velocity": 68}, {"time": 2228, "pitch": 68, "duration": 6, "velocity": 66}, {"time": 2234, "pitch": 65, "duration": 12, "velocity": 81}, {"time": 2246, "pitch": 68, "duration": 24, "velocity": 90}, {"time": 2270, "pitch": 73, "duration": 12, "velocity": 101}, {"time": 2282, "pitch": 72, "duration": 12, "velocity": 105}, {"time": 2294, "pitch": 70, "duration": 18, "velocity": 94}, {"time": 2312, "pitch": 68, "duration": 6, "velocity": 71}, {"time": 2318, "pitch": 70, "duration": 7, "velocity": 72}, {"time": 2324, "pitch": 73, "duration": 6, "velocity": 89}, {"time": 2330, "pitch": 75, "duration": 6, "velocity": 97}, {"time": 2336, "pitch": 77, "duration": 30, "velocity": 84}, {"time": 2366, "pitch": 77, "duration": 12, "velocity": 103}, {"time": 2378, "pitch": 77, "duration": 12, "velocity": 98}, {"time": 2390, "pitch": 75, "duration": 18, "velocity": 103}, {"time": 2408, "pitch": 73, "duration": 6, "velocity": 100}, {"time": 2414, "pitch": 75, "duration": 6, "velocity": 97}, {"time": 2420, "pitch": 73, "duration": 6, "velocity": 93}, {"time": 2426, "pitch": 70, "duration": 6, "velocity": 87}, {"time": 2432, "pitch": 73, "duration": 30, "velocity": 97}, {"time": 2462, "pitch": 73, "duration": 12, "velocity": 103}, {"time": 2474, "pitch": 72, "duration": 12, "velocity": 103}, {"time": 2486, "pitch": 70, "duration": 18, "velocity": 97}, {"time": 2504, "pitch": 70, "duration": 6, "velocity": 101}, {"time": 2510, "pitch": 68, "duration": 6, "velocity": 95}, {"time": 2516, "pitch": 65, "duration": 6, "velocity": 91}, {"time": 2522, "pitch": 68, "duration": 6, "velocity": 100}, {"time": 2528, "pitch": 70, "duration": 54, "velocity": 103}, {"time": 3470, "pitch": 73, "duration": 12, "velocity": 98}, {"time": 3482, "pitch": 75, "duration": 13, "velocity": 98}, {"time": 3494, "pitch": 77, "duration": 18, "velocity": 100}, {"time": 3512, "pitch": 75, "duration": 7, "velocity": 97}, {"time": 3518, "pitch": 77, "duration": 7, "velocity": 91}, {"time": 3524, "pitch": 75, "duration": 9, "velocity": 83}, {"time": 3530, "pitch": 77, "duration": 7, "velocity": 93}, {"time": 3536, "pitch": 80, "duration": 12, "velocity": 90}, {"time": 3548, "pitch": 75, "duration": 18, "velocity": 76}, {"time": 3566, "pitch": 73, "duration": 12, "velocity": 100}, {"time": 3578, "pitch": 75, "duration": 12, "velocity": 97}, {"time": 3590, "pitch": 82, "duration": 18, "velocity": 92}, {"time": 3608, "pitch": 80, "duration": 7, "velocity": 101}, {"time": 3614, "pitch": 82, "duration": 7, "velocity": 98}, {"time": 3620, "pitch": 80, "duration": 6, "velocity": 83}, {"time": 3626, "pitch": 77, "duration": 6, "velocity": 91}, {"time": 3632, "pitch": 80, "duration": 12, "velocity": 99}, {"time": 3644, "pitch": 77, "duration": 18, "velocity": 99}, {"time": 3662, "pitch": 80, "duration": 12, "velocity": 103}, {"time": 3674, "pitch": 82, "duration": 6, "velocity": 108}, {"time": 3680, "pitch": 85, "duration": 24, "velocity": 114}, {"time": 3704, "pitch": 82, "duration": 12, "velocity": 109}, {"time": 3716, "pitch": 80, "duration": 6, "velocity": 98}, {"time": 3722, "pitch": 77, "duration": 6, "velocity": 98}, {"time": 3728, "pitch": 80, "duration": 12, "velocity": 100}, {"time": 3740, "pitch": 77, "duration": 18, "velocity": 97}, {"time": 3758, "pitch": 77, "duration": 12, "velocity": 109}, {"time": 3770, "pitch": 77, "duration": 12, "velocity": 101}, {"time": 3782, "pitch": 75, "duration": 12, "velocity": 111}, {"time": 3794, "pitch": 75, "duration": 12, "velocity": 106}, {"time": 3806, "pitch": 73, "duration": 7, "velocity": 101}, {"time": 3812, "pitch": 75, "duration": 13, "velocity": 99}, {"time": 3824, "pitch": 77, "duration": 30, "velocity": 105}, {"time": 3854, "pitch": 73, "duration": 13, "velocity": 106}, {"time": 3866, "pitch": 75, "duration": 12, "velocity": 103}, {"time": 3878, "pitch": 77, "duration": 18, "velocity": 105}, {"time": 3896, "pitch": 75, "duration": 6, "velocity": 98}, {"time": 3902, "pitch": 77, "duration": 7, "velocity": 100}, {"time": 3908, "pitch": 75, "duration": 6, "velocity": 98}, {"time": 3914, "pitch": 77, "duration": 6, "velocity": 97}, {"time": 3920, "pitch": 80, "duration": 12, "velocity": 92}, {"time": 3932, "pitch": 75, "duration": 18, "velocity": 106}, {"time": 3950, "pitch": 73, "duration": 12, "velocity": 97}, {"time": 3962, "pitch": 75, "duration": 12, "velocity": 103}, {"time": 3974, "pitch": 82, "duration": 18, "velocity": 97}, {"time": 3992, "pitch": 80, "duration": 6, "velocity": 106}, {"time": 3998, "pitch": 82, "duration": 6, "velocity": 93}, {"time": 4004, "pitch": 80, "duration": 6, "velocity": 92}, {"time": 4010, "pitch": 77, "duration": 7, "velocity": 97}, {"time": 4016, "pitch": 80, "duration": 12, "velocity": 108}, {"time": 4028, "pitch": 77, "duration": 18, "velocity": 97}, {"time": 4046, "pitch": 80, "duration": 13, "velocity": 101}, {"time": 4058, "pitch": 82, "duration": 6, "velocity": 103}, {"time": 4064, "pitch": 85, "duration": 24, "velocity": 109}, {"time": 4088, "pitch": 82, "duration": 12, "velocity": 103}, {"time": 4100, "pitch": 80, "duration": 6, "velocity": 99}, {"time": 4106, "pitch": 77, "duration": 6, "velocity": 99}, {"time": 4112, "pitch": 80, "duration": 12, "velocity": 106}, {"time": 4124, "pitch": 77, "duration": 18, "velocity": 100}, {"time": 4142, "pitch": 77, "duration": 12, "velocity": 101}, {"time": 4154, "pitch": 77, "duration": 13, "velocity": 98}, {"time": 4166, "pitch": 75, "duration": 12, "velocity": 98}, {"time": 4178, "pitch": 75, "duration": 12, "velocity": 90}, {"time": 4190, "pitch": 73, "duration": 6, "velocity": 90}, {"time": 4196, "pitch": 75, "duration": 12, "velocity": 93}, {"time": 4208, "pitch": 77, "duration": 78, "velocity": 101}, {"time": 4286, "pitch": 73, "duration": 12, "velocity": 95}, {"time": 4298, "pitch": 72, "duration": 12, "velocity": 97}, {"time": 4310, "pitch": 70, "duration": 18, "velocity": 68}, {"time": 4328, "pitch": 68, "duration": 7, "velocity": 86}, {"time": 4334, "pitch": 70, "duration": 6, "velocity": 68}, {"time": 4340, "pitch": 68, "duration": 6, "velocity": 66}, {"time": 4346, "pitch": 65, "duration": 6, "velocity": 81}, {"time": 4352, "pitch": 68, "duration": 30, "velocity": 90}, {"time": 4382, "pitch": 73, "duration": 12, "velocity": 101}, {"time": 4394, "pitch": 72, "duration": 12, "velocity": 105}, {"time": 4406, "pitch": 70, "duration": 18, "velocity": 94}, {"time": 4424, "pitch": 68, "duration": 6, "velocity": 71}, {"time": 4430, "pitch": 70, "duration": 7, "velocity": 72}, {"time": 4436, "pitch": 73, "duration": 6, "velocity": 89}, {"time": 4442, "pitch": 75, "duration": 6, "velocity": 97}, {"time": 4448, "pitch": 77, "duration": 30, "velocity": 84}, {"time": 4478, "pitch": 77, "duration": 12, "velocity": 103}, {"time": 4490, "pitch": 77, "duration": 12, "velocity": 98}, {"time": 4502, "pitch": 75, "duration": 18, "velocity": 103}, {"time": 4520, "pitch": 73, "duration": 6, "velocity": 100}, {"time": 4526, "pitch": 75, "duration": 6, "velocity": 97}, {"time": 4532, "pitch": 73, "duration": 6, "velocity": 93}, {"time": 4538, "pitch": 70, "duration": 6, "velocity": 87}, {"time": 4544, "pitch": 73, "duration": 30, "velocity": 97}, {"time": 4574, "pitch": 73, "duration": 12, "velocity": 103}, {"time": 4586, "pitch": 72, "duration": 12, "velocity": 103}, {"time": 4598, "pitch": 70, "duration": 18, "velocity": 97}, {"time": 4616, "pitch": 70, "duration": 6, "velocity": 101}, {"time": 4622, "pitch": 68, "duration": 6, "velocity": 95}, {"time": 4628, "pitch": 65, "duration": 6, "velocity": 91}, {"time": 4634, "pitch": 68, "duration": 6, "velocity": 100}, {"time": 4640, "pitch": 70, "duration": 54, "velocity": 103}], "annotations": [{"time": 492, "annotation": {"number": 64, "value": 127}, "group": "control_change"}, {"time": 497, "annotation": {"number": 64, "value": 0}, "group": "control_change"}, {"time": 519, "annotation": {"number": 64, "value": 127}, "group": "control_change"}, {"time": 528, "annotation": {"number": 64, "value": 0}, "group": "control_change"}, {"time": 543, "annotation": {"number": 64, "value": 127}, "group": "control_change"}, {"time": 549, "annotation": {"number": 64, "value": 0}, "group": "control_change"}, {"time": 567, "annotation": {"number": 64, "value": 127}, "group": "control_change"}, {"time": 572, "annotation": {"number": 64, "value": 0}, "group": "control_change"}, {"time": 615, "annotation": {"number": 64, "value": 127}, "group": "control_change"}, {"time": 633, "annotation": {"number": 64, "value": 127}, "group": "control_change"}, {"time": 636, "annotation": {"number": 64, "value": 0}, "group": "control_change"}, {"time": 661, "annotation": {"number": 64, "value": 127}, "group": "control_change"}, {"time": 683, "annotation": {"number": 64, "value": 127}, "group": "control_change"}, {"time": 687, "annotation": {"number": 64, "value": 0}, "group": "control_change"}, {"time": 711, "annotation": {"number": 64, "value": 127}, "group": "control_change"}, {"time": 721, "annotation": {"number": 64, "value": 0}, "group": "control_change"}, {"time": 758, "annotation": {"number": 64, "value": 127}, "group": "control_change"}, {"time": 764, "annotation": {"number": 64, "value": 0}, "group": "control_change"}, {"time": 794, "annotation": {"number": 1, "value": 29}, "group": "control_change"}, {"time": 807, "annotation": {"number": 64, "value": 127}, "group": "control_change"}, {"time": 814, "annotation": {"number": 64, "value": 0}, "group": "control_change"}, {"time": 830, "annotation": {"number": 64, "value": 127}, "group": "control_change"}, {"time": 833, "annotation": {"number": 64, "value": 0}, "group": "control_change"}, {"time": 854, "annotation": {"number": 64, "value": 127}, "group": "control_change"}, {"time": 861, "annotation": {"number": 64, "value": 0}, "group": "control_change"}, {"time": 929, "annotation": {"number": 64, "value": 0}, "group": "control_change"}, {"time": 951, "annotation": {"number": 64, "value": 127}, "group": "control_change"}, {"time": 961, "annotation": {"number": 64, "value": 0}, "group": "control_change"}, {"time": 975, "annotation": {"number": 64, "value": 127}, "group": "control_change"}, {"time": 981, "annotation": {"number": 64, "value": 0}, "group": "control_change"}, {"time": 999, "annotation": {"number": 64, "value": 127}, "group": "control_change"}, {"time": 1004, "annotation": {"number": 64, "value": 0}, "group": "control_change"}, {"time": 1047, "annotation": {"number": 64, "value": 127}, "group": "control_change"}, {"time": 1066, "annotation": {"number": 64, "value": 127}, "group": "control_change"}, {"time": 1068, "annotation": {"number": 64, "value": 0}, "group": "control_change"}, {"time": 1094, "annotation": {"number": 64, "value": 127}, "group": "control_change"}, {"time": 1143, "annotation": {"number": 64, "value": 127}, "group": "control_change"}, {"time": 1153, "annotation": {"number": 64, "value": 0}, "group": "control_change"}, {"time": 1190, "annotation": {"number": 64, "value": 127}, "group": "control_change"}, {"time": 1196, "annotation": {"number": 64, "value": 0}, "group": "control_change"}, {"time": 1226, "annotation": {"number": 1, "value": 29}, "group": "control_change"}, {"time": 1238, "annotation": {"number": 64, "value": 127}, "group": "control_change"}, {"time": 1245, "annotation": {"number": 64, "value": 0}, "group": "control_change"}, {"time": 1262, "annotation": {"number": 64, "value": 127}, "group": "control_change"}, {"time": 1266, "annotation": {"number": 64, "value": 0}, "group": "control_change"}, {"time": 1286, "annotation": {"number": 64, "value": 127}, "group": "control_change"}, {"time": 1293, "annotation": {"number": 64, "value": 0}, "group": "control_change"}, {"time": 1577, "annotation": {"number": 64, "value": 127}, "group": "control_change"}, {"time": 1583, "annotation": {"number": 64, "value": 0}, "group": "control_change"}, {"time": 1595, "annotation": {"number": 1, "value": 25}, "group": "control_change"}, {"time": 1595, "annotation": {"number": 1, "value": 27}, "group": "control_change"}, {"time": 1603, "annotation": {"number": 1, "value": 24}, "group": "control_change"}, {"time": 1604, "annotation": {"number": 64, "value": 127}, "group": "control_change"}, {"time": 1604, "annotation": {"number": 1, "value": 27}, "group": "control_change"}, {"time": 1604, "annotation": {"number": 1, "value": 24}, "group": "control_change"}, {"time": 1605, "annotation": {"number": 1, "value": 27}, "group": "control_change"}, {"time": 1605, "annotation": {"number": 1, "value": 25}, "group": "control_change"}, {"time": 1606, "annotation": {"number": 1, "value": 24}, "group": "control_change"}, {"time": 1607, "annotation": {"number": 1, "value": 27}, "group": "control_change"}, {"time": 1607, "annotation": {"number": 64, "value": 0}, "group": "control_change"}, {"time": 1618, "annotation": {"number": 1, "value": 25}, "group": "control_change"}, {"time": 1619, "annotation": {"number": 1, "value": 27}, "group": "control_change"}, {"time": 1620, "annotation": {"number": 1, "value": 24}, "group": "control_change"}, {"time": 1630, "annotation": {"number": 1, "value": 25}, "group": "control_change"}, {"time": 1632, "annotation": {"number": 1, "value": 27}, "group": "control_change"}, {"time": 1636, "annotation": {"number": 1, "value": 25}, "group": "control_change"}, {"time": 1637, "annotation": {"number": 1, "value": 27}, "group": "control_change"}, {"time": 1637, "annotation": {"number": 1, "value": 25}, "group": "control_change"}, {"time": 1660, "annotation": {"number": 1, "value": 25}, "group": "control_change"}, {"time": 1660, "annotation": {"number": 1, "value": 27}, "group": "control_change"}, {"time": 1709, "annotation": {"number": 64, "value": 127}, "group": "control_change"}, {"time": 1711, "annotation": {"number": 1, "value": 25}, "group": "control_change"}, {"time": 1711, "annotation": {"number": 1, "value": 27}, "group": "control_change"}, {"time": 1712, "annotation": {"number": 1, "value": 25}, "group": "control_change"}, {"time": 1712, "annotation": {"number": 1, "value": 27}, "group": "control_change"}, {"time": 1713, "annotation": {"number": 64, "value": 0}, "group": "control_change"}, {"time": 1743, "annotation": {"number": 1, "value": 29}, "group": "control_change"}, {"time": 2073, "annotation": {"number": 1, "value": 25}, "group": "control_change"}, {"time": 2073, "annotation": {"number": 1, "value": 27}, "group": "control_change"}, {"time": 2091, "annotation": {"number": 1, "value": 25}, "group": "control_change"}, {"time": 2091, "annotation": {"number": 1, "value": 27}, "group": "control_change"}, {"time": 2093, "annotation": {"number": 1, "value": 25}, "group": "control_change"}, {"time": 2093, "annotation": {"number": 1, "value": 27}, "group": "control_change"}, {"time": 2094, "annotation": {"number": 1, "value": 27}, "group": "control_change"}, {"time": 2095, "annotation": {"number": 1, "value": 25}, "group": "control_change"}, {"time": 2095, "annotation": {"number": 1, "value": 27}, "group": "control_change"}, {"time": 2097, "annotation": {"number": 1, "value": 24}, "group": "control_change"}, {"time": 2097, "annotation": {"number": 1, "value": 27}, "group": "control_change"}, {"time": 2098, "annotation": {"number": 1, "value": 25}, "group": "control_change"}, {"time": 2098, "annotation": {"number": 1, "value": 27}, "group": "control_change"}, {"time": 2099, "annotation": {"number": 1, "value": 24}, "group": "control_change"}, {"time": 2101, "annotation": {"number": 1, "value": 27}, "group": "control_change"}, {"time": 2116, "annotation": {"number": 1, "value": 25}, "group": "control_change"}, {"time": 2116, "annotation": {"number": 1, "value": 24}, "group": "control_change"}, {"time": 2116, "annotation": {"number": 1, "value": 27}, "group": "control_change"}, {"time": 2117, "annotation": {"number": 1, "value": 25}, "group": "control_change"}, {"time": 2117, "annotation": {"number": 1, "value": 24}, "group": "control_change"}, {"time": 2178, "annotation": {"number": 64, "value": 0}, "group": "control_change"}, {"time": 2199, "annotation": {"number": 64, "value": 127}, "group": "control_change"}, {"time": 2209, "annotation": {"number": 64, "value": 0}, "group": "control_change"}, {"time": 2224, "annotation": {"number": 64, "value": 127}, "group": "control_change"}, {"time": 2230, "annotation": {"number": 64, "value": 0}, "group": "control_change"}, {"time": 2247, "annotation": {"number": 64, "value": 127}, "group": "control_change"}, {"time": 2252, "annotation": {"number": 64, "value": 0}, "group": "control_change"}, {"time": 2295, "annotation": {"number": 64, "value": 127}, "group": "control_change"}, {"time": 2313, "annotation": {"number": 64, "value": 127}, "group": "control_change"}, {"time": 2316, "annotation": {"number": 64, "value": 0}, "group": "control_change"}, {"time": 2342, "annotation": {"number": 64, "value": 127}, "group": "control_change"}, {"time": 2364, "annotation": {"number": 64, "value": 127}, "group": "control_change"}, {"time": 2367, "annotation": {"number": 64, "value": 0}, "group": "control_change"}, {"time": 2392, "annotation": {"number": 64, "value": 127}, "group": "control_change"}, {"time": 2401, "annotation": {"number": 64, "value": 0}, "group": "control_change"}, {"time": 2438, "annotation": {"number": 64, "value": 127}, "group": "control_change"}, {"time": 2444, "annotation": {"number": 64, "value": 0}, "group": "control_change"}, {"time": 2474, "annotation": {"number": 1, "value": 29}, "group": "control_change"}, {"time": 2487, "annotation": {"number": 64, "value": 127}, "group": "control_change"}, {"time": 2494, "annotation": {"number": 64, "value": 0}, "group": "control_change"}, {"time": 2510, "annotation": {"number": 64, "value": 127}, "group": "control_change"}, {"time": 2514, "annotation": {"number": 64, "value": 0}, "group": "control_change"}, {"time": 2534, "annotation": {"number": 64, "value": 127}, "group": "control_change"}, {"time": 2541, "annotation": {"number": 64, "value": 0}, "group": "control_change"}, {"time": 3689, "annotation": {"number": 64, "value": 127}, "group": "control_change"}, {"time": 3695, "annotation": {"number": 64, "value": 0}, "group": "control_change"}, {"time": 3706, "annotation": {"number": 1, "value": 25}, "group": "control_change"}, {"time": 3706, "annotation": {"number": 1, "value": 27}, "group": "control_change"}, {"time": 3715, "annotation": {"number": 1, "value": 24}, "group": "control_change"}, {"time": 3716, "annotation": {"number": 64, "value": 127}, "group": "control_change"}, {"time": 3716, "annotation": {"number": 1, "value": 27}, "group": "control_change"}, {"time": 3716, "annotation": {"number": 1, "value": 24}, "group": "control_change"}, {"time": 3717, "annotation": {"number": 1, "value": 27}, "group": "control_change"}, {"time": 3717, "annotation": {"number": 1, "value": 25}, "group": "control_change"}, {"time": 3718, "annotation": {"number": 1, "value": 24}, "group": "control_change"}, {"time": 3718, "annotation": {"number": 1, "value": 27}, "group": "control_change"}, {"time": 3719, "annotation": {"number": 64, "value": 0}, "group": "control_change"}, {"time": 3730, "annotation": {"number": 1, "value": 25}, "group": "control_change"}, {"time": 3731, "annotation": {"number": 1, "value": 27}, "group": "control_change"}, {"time": 3732, "annotation": {"number": 1, "value": 24}, "group": "control_change"}, {"time": 3742, "annotation": {"number": 1, "value": 25}, "group": "control_change"}, {"time": 3744, "annotation": {"number": 1, "value": 27}, "group": "control_change"}, {"time": 3748, "annotation": {"number": 1, "value": 25}, "group": "control_change"}, {"time": 3748, "annotation": {"number": 1, "value": 27}, "group": "control_change"}, {"time": 3749, "annotation": {"number": 1, "value": 25}, "group": "control_change"}, {"time": 3772, "annotation": {"number": 1, "value": 25}, "group": "control_change"}, {"time": 3772, "annotation": {"number": 1, "value": 27}, "group": "control_change"}, {"time": 3821, "annotation": {"number": 64, "value": 127}, "group": "control_change"}, {"time": 3823, "annotation": {"number": 1, "value": 25}, "group": "control_change"}, {"time": 3823, "annotation": {"number": 1, "value": 27}, "group": "control_change"}, {"time": 3824, "annotation": {"number": 1, "value": 27}, "group": "control_change"}, {"time": 3825, "annotation": {"number": 64, "value": 0}, "group": "control_change"}, {"time": 3854, "annotation": {"number": 1, "value": 29}, "group": "control_change"}, {"time": 4185, "annotation": {"number": 1, "value": 25}, "group": "control_change"}, {"time": 4185, "annotation": {"number": 1, "value": 27}, "group": "control_change"}, {"time": 4203, "annotation": {"number": 1, "value": 25}, "group": "control_change"}, {"time": 4203, "annotation": {"number": 1, "value": 27}, "group": "control_change"}, {"time": 4205, "annotation": {"number": 1, "value": 25}, "group": "control_change"}, {"time": 4205, "annotation": {"number": 1, "value": 27}, "group": "control_change"}, {"time": 4206, "annotation": {"number": 1, "value": 27}, "group": "control_change"}, {"time": 4207, "annotation": {"number": 1, "value": 25}, "group": "control_change"}, {"time": 4207, "annotation": {"number": 1, "value": 27}, "group": "control_change"}, {"time": 4209, "annotation": {"number": 1, "value": 24}, "group": "control_change"}, {"time": 4209, "annotation": {"number": 1, "value": 27}, "group": "control_change"}, {"time": 4209, "annotation": {"number": 1, "value": 25}, "group": "control_change"}, {"time": 4210, "annotation": {"number": 1, "value": 27}, "group": "control_change"}, {"time": 4211, "annotation": {"number": 1, "value": 24}, "group": "control_change"}, {"time": 4213, "annotation": {"number": 1, "value": 27}, "group": "control_change"}, {"time": 4227, "annotation": {"number": 1, "value": 25}, "group": "control_change"}, {"time": 4228, "annotation": {"number": 1, "value": 24}, "group": "control_change"}, {"time": 4228, "annotation": {"number": 1, "value": 27}, "group": "control_change"}, {"time": 4229, "annotation": {"number": 1, "value": 25}, "group": "control_change"}, {"time": 4229, "annotation": {"number": 1, "value": 24}, "group": "control_change"}, {"time": 4289, "annotation": {"number": 64, "value": 0}, "group": "control_change"}, {"time": 4311, "annotation": {"number": 64, "value": 127}, "group": "control_change"}, {"time": 4321, "annotation": {"number": 64, "value": 0}, "group": "control_change"}, {"time": 4335, "annotation": {"number": 64, "value": 127}, "group": "control_change"}, {"time": 4341, "annotation": {"number": 64, "value": 0}, "group": "control_change"}, {"time": 4359, "annotation": {"number": 64, "value": 127}, "group": "control_change"}, {"time": 4364, "annotation": {"number": 64, "value": 0}, "group": "control_change"}, {"time": 4407, "annotation": {"number": 64, "value": 127}, "group": "control_change"}, {"time": 4425, "annotation": {"number": 64, "value": 127}, "group": "control_change"}, {"time": 4428, "annotation": {"number": 64, "value": 0}, "group": "control_change"}, {"time": 4453, "annotation": {"number": 64, "value": 127}, "group": "control_change"}, {"time": 4475, "annotation": {"number": 64, "value": 127}, "group": "control_change"}, {"time": 4479, "annotation": {"number": 64, "value": 0}, "group": "control_change"}, {"time": 4503, "annotation": {"number": 64, "value": 127}, "group": "control_change"}, {"time": 4513, "annotation": {"number": 64, "value": 0}, "group": "control_change"}, {"time": 4550, "annotation": {"number": 64, "value": 127}, "group": "control_change"}, {"time": 4556, "annotation": {"number": 64, "value": 0}, "group": "control_change"}, {"time": 4586, "annotation": {"number": 1, "value": 29}, "group": "control_change"}, {"time": 4598, "annotation": {"number": 64, "value": 127}, "group": "control_change"}, {"time": 4606, "annotation": {"number": 64, "value": 0}, "group": "control_change"}, {"time": 4622, "annotation": {"number": 64, "value": 127}, "group": "control_change"}, {"time": 4625, "annotation": {"number": 64, "value": 0}, "group": "control_change"}, {"time": 4646, "annotation": {"number": 64, "value": 127}, "group": "control_change"}, {"time": 4653, "annotation": {"number": 64, "value": 0}, "group": "control_change"}]}, {"program": 0, "is_drum": false, "name": "BRIDGE", "notes": [{"time": 62, "pitch": 85, "duration": 12, "velocity": 67}, {"time": 62, "pitch": 97, "duration": 12, "velocity": 67}, {"time": 74, "pitch": 84, "duration": 12, "velocity": 67}, {"time": 74, "pitch": 96, "duration": 12, "velocity": 67}, {"time": 86, "pitch": 82, "duration": 12, "velocity": 72}, {"time": 86, "pitch": 94, "duration": 12, "velocity": 72}, {"time": 98, "pitch": 82, "duration": 6, "velocity": 67}, {"time": 98, "pitch": 94, "duration": 6, "velocity": 67}, {"time": 104, "pitch": 80, "duration": 6, "velocity": 64}, {"time": 104, "pitch": 92, "duration": 6, "velocity": 64}, {"time": 110, "pitch": 82, "duration": 6, "velocity": 61}, {"time": 110, "pitch": 94, "duration": 6, "velocity": 61}, {"time": 116, "pitch": 80, "duration": 6, "velocity": 63}, {"time": 116, "pitch": 92, "duration": 6, "velocity": 63}, {"time": 122, "pitch": 77, "duration": 6, "velocity": 54}, {"time": 122, "pitch": 89, "duration": 6, "velocity": 54}, {"time": 128, "pitch": 80, "duration": 30, "velocity": 50}, {"time": 128, "pitch": 92, "duration": 30, "velocity": 50}, {"time": 158, "pitch": 85, "duration": 12, "velocity": 66}, {"time": 158, "pitch": 97, "duration": 12, "velocity": 66}, {"time": 170, "pitch": 84, "duration": 12, "velocity": 72}, {"time": 170, "pitch": 96, "duration": 12, "velocity": 72}, {"time": 182, "pitch": 82, "duration": 12, "velocity": 70}, {"time": 182, "pitch": 94, "duration": 12, "velocity": 70}, {"time": 194, "pitch": 82, "duration": 6, "velocity": 66}, {"time": 194, "pitch": 94, "duration": 6, "velocity": 66}, {"time": 200, "pitch": 80, "duration": 6, "velocity": 64}, {"time": 200, "pitch": 92, "duration": 6, "velocity": 64}, {"time": 206, "pitch": 82, "duration": 6, "velocity": 67}, {"time": 206, "pitch": 94, "duration": 6, "velocity": 67}, {"time": 212, "pitch": 85, "duration": 6, "velocity": 64}, {"time": 212, "pitch": 97, "duration": 6, "velocity": 64}, {"time": 218, "pitch": 87, "duration": 6, "velocity": 78}, {"time": 218, "pitch": 99, "duration": 6, "velocity": 78}, {"time": 224, "pitch": 89, "duration": 30, "velocity": 69}, {"time": 224, "pitch": 101, "duration": 30, "velocity": 69}, {"time": 254, "pitch": 87, "duration": 3, "velocity": 63}, {"time": 254, "pitch": 99, "duration": 3, "velocity": 63}, {"time": 257, "pitch": 89, "duration": 9, "velocity": 54}, {"time": 257, "pitch": 101, "duration": 9, "velocity": 54}, {"time": 266, "pitch": 89, "duration": 12, "velocity": 67}, {"time": 266, "pitch": 101, "duration": 12, "velocity": 67}, {"time": 278, "pitch": 87, "duration": 18, "velocity": 91}, {"time": 278, "pitch": 99, "duration": 18, "velocity": 91}, {"time": 296, "pitch": 85, "duration": 6, "velocity": 70}, {"time": 296, "pitch": 97, "duration": 6, "velocity": 70}, {"time": 302, "pitch": 87, "duration": 6, "velocity": 64}, {"time": 302, "pitch": 99, "duration": 6, "velocity": 64}, {"time": 308, "pitch": 85, "duration": 6, "velocity": 62}, {"time": 308, "pitch": 97, "duration": 6, "velocity": 62}, {"time": 314, "pitch": 82, "duration": 6, "velocity": 51}, {"time": 314, "pitch": 94, "duration": 6, "velocity": 51}, {"time": 320, "pitch": 85, "duration": 30, "velocity": 62}, {"time": 320, "pitch": 97, "duration": 30, "velocity": 62}, {"time": 350, "pitch": 84, "duration": 3, "velocity": 48}, {"time": 350, "pitch": 96, "duration": 3, "velocity": 48}, {"time": 353, "pitch": 85, "duration": 9, "velocity": 55}, {"time": 353, "pitch": 97, "duration": 9, "velocity": 55}, {"time": 362, "pitch": 84, "duration": 12, "velocity": 53}, {"time": 362, "pitch": 96, "duration": 12, "velocity": 53}, {"time": 374, "pitch": 82, "duration": 18, "velocity": 61}, {"time": 374, "pitch": 94, "duration": 18, "velocity": 61}, {"time": 392, "pitch": 82, "duration": 6, "velocity": 64}, {"time": 392, "pitch": 94, "duration": 6, "velocity": 64}, {"time": 398, "pitch": 80, "duration": 6, "velocity": 64}, {"time": 398, "pitch": 92, "duration": 6, "velocity": 64}, {"time": 404, "pitch": 77, "duration": 6, "velocity": 46}, {"time": 404, "pitch": 89, "duration": 6, "velocity": 46}, {"time": 410, "pitch": 80, "duration": 6, "velocity": 66}, {"time": 410, "pitch": 92, "duration": 6, "velocity": 66}, {"time": 416, "pitch": 82, "duration": 102, "velocity": 62}, {"time": 416, "pitch": 94, "duration": 102, "velocity": 62}, {"time": 2606, "pitch": 85, "duration": 12, "velocity": 67}, {"time": 2606, "pitch": 97, "duration": 12, "velocity": 67}, {"time": 2618, "pitch": 84, "duration": 12, "velocity": 67}, {"time": 2618, "pitch": 96, "duration": 12, "velocity": 67}, {"time": 2630, "pitch": 82, "duration": 12, "velocity": 72}, {"time": 2630, "pitch": 94, "duration": 12, "velocity": 72}, {"time": 2642, "pitch": 82, "duration": 6, "velocity": 67}, {"time": 2642, "pitch": 94, "duration": 6, "velocity": 67}, {"time": 2648, "pitch": 80, "duration": 6, "velocity": 64}, {"time": 2648, "pitch": 92, "duration": 6, "velocity": 64}, {"time": 2654, "pitch": 82, "duration": 6, "velocity": 61}, {"time": 2654, "pitch": 94, "duration": 6, "velocity": 61}, {"time": 2660, "pitch": 80, "duration": 6, "velocity": 63}, {"time": 2660, "pitch": 92, "duration": 6, "velocity": 63}, {"time": 2666, "pitch": 77, "duration": 6, "velocity": 54}, {"time": 2666, "pitch": 89, "duration": 6, "velocity": 54}, {"time": 2672, "pitch": 80, "duration": 30, "velocity": 50}, {"time": 2672, "pitch": 92, "duration": 30, "velocity": 50}, {"time": 2702, "pitch": 85, "duration": 12, "velocity": 66}, {"time": 2702, "pitch": 97, "duration": 12, "velocity": 66}, {"time": 2714, "pitch": 84, "duration": 12, "velocity": 72}, {"time": 2714, "pitch": 96, "duration": 12, "velocity": 72}, {"time": 2726, "pitch": 82, "duration": 12, "velocity": 70}, {"time": 2726, "pitch": 94, "duration": 12, "velocity": 70}, {"time": 2738, "pitch": 82, "duration": 6, "velocity": 66}, {"time": 2738, "pitch": 94, "duration": 6, "velocity": 66}, {"time": 2744, "pitch": 80, "duration": 6, "velocity": 64}, {"time": 2744, "pitch": 92, "duration": 6, "velocity": 64}, {"time": 2750, "pitch": 82, "duration": 6, "velocity": 67}, {"time": 2750, "pitch": 94, "duration": 6, "velocity": 67}, {"time": 2756, "pitch": 85, "duration": 6, "velocity": 64}, {"time": 2756, "pitch": 97, "duration": 6, "velocity": 64}, {"time": 2762, "pitch": 87, "duration": 6, "velocity": 78}, {"time": 2762, "pitch": 99, "duration": 6, "velocity": 78}, {"time": 2768, "pitch": 89, "duration": 30, "velocity": 69}, {"time": 2768, "pitch": 101, "duration": 30, "velocity": 69}, {"time": 2798, "pitch": 87, "duration": 3, "velocity": 63}, {"time": 2798, "pitch": 99, "duration": 3, "velocity": 63}, {"time": 2801, "pitch": 89, "duration": 9, "velocity": 54}, {"time": 2801, "pitch": 101, "duration": 9, "velocity": 54}, {"time": 2810, "pitch": 89, "duration": 12, "velocity": 67}, {"time": 2810, "pitch": 101, "duration": 12, "velocity": 67}, {"time": 2822, "pitch": 87, "duration": 18, "velocity": 91}, {"time": 2822, "pitch": 99, "duration": 18, "velocity": 91}, {"time": 2840, "pitch": 85, "duration": 6, "velocity": 70}, {"time": 2840, "pitch": 97, "duration": 6, "velocity": 70}, {"time": 2846, "pitch": 87, "duration": 6, "velocity": 64}, {"time": 2846, "pitch": 99, "duration": 6, "velocity": 64}, {"time": 2852, "pitch": 85, "duration": 6, "velocity": 62}, {"time": 2852, "pitch": 97, "duration": 6, "velocity": 62}, {"time": 2858, "pitch": 82, "duration": 6, "velocity": 51}, {"time": 2858, "pitch": 94, "duration": 6, "velocity": 51}, {"time": 2864, "pitch": 85, "duration": 30, "velocity": 62}, {"time": 2864, "pitch": 97, "duration": 30, "velocity": 62}, {"time": 2894, "pitch": 84, "duration": 3, "velocity": 48}, {"time": 2894, "pitch": 96, "duration": 3, "velocity": 48}, {"time": 2897, "pitch": 85, "duration": 9, "velocity": 55}, {"time": 2897, "pitch": 97, "duration": 9, "velocity": 55}, {"time": 2906, "pitch": 84, "duration": 12, "velocity": 53}, {"time": 2906, "pitch": 96, "duration": 12, "velocity": 53}, {"time": 2918, "pitch": 82, "duration": 18, "velocity": 61}, {"time": 2918, "pitch": 94, "duration": 18, "velocity": 61}, {"time": 2936, "pitch": 82, "duration": 6, "velocity": 64}, {"time": 2936, "pitch": 94, "duration": 6, "velocity": 64}, {"time": 2942, "pitch": 80, "duration": 6, "velocity": 64}, {"time": 2942, "pitch": 92, "duration": 6, "velocity": 64}, {"time": 2948, "pitch": 77, "duration": 6, "velocity": 46}, {"time": 2948, "pitch": 89, "duration": 6, "velocity": 46}, {"time": 2954, "pitch": 80, "duration": 6, "velocity": 66}, {"time": 2954, "pitch": 92, "duration": 6, "velocity": 66}, {"time": 2960, "pitch": 82, "duration": 42, "velocity": 62}, {"time": 2960, "pitch": 94, "duration": 42, "velocity": 62}, {"time": 3002, "pitch": 70, "duration": 6, "velocity": 47}, {"time": 3008, "pitch": 72, "duration": 6, "velocity": 52}, {"time": 3014, "pitch": 70, "duration": 6, "velocity": 33}, {"time": 3014, "pitch": 73, "duration": 6, "velocity": 48}, {"time": 3020, "pitch": 70, "duration": 6, "velocity": 80}, {"time": 3026, "pitch": 73, "duration": 7, "velocity": 56}, {"time": 3032, "pitch": 75, "duration": 6, "velocity": 67}, {"time": 3038, "pitch": 77, "duration": 6, "velocity": 67}, {"time": 3044, "pitch": 80, "duration": 6, "velocity": 67}, {"time": 3050, "pitch": 85, "duration": 6, "velocity": 67}, {"time": 3056, "pitch": 85, "duration": 18, "velocity": 67}, {"time": 3074, "pitch": 82, "duration": 3, "velocity": 67}, {"time": 3077, "pitch": 80, "duration": 3, "velocity": 67}, {"time": 3080, "pitch": 82, "duration": 12, "velocity": 67}, {"time": 3092, "pitch": 85, "duration": 24, "velocity": 67}, {"time": 3116, "pitch": 87, "duration": 30, "velocity": 67}, {"time": 3146, "pitch": 87, "duration": 12, "velocity": 67}, {"time": 3158, "pitch": 85, "duration": 12, "velocity": 67}, {"time": 3170, "pitch": 82, "duration": 6, "velocity": 67}, {"time": 3176, "pitch": 80, "duration": 12, "velocity": 67}, {"time": 3188, "pitch": 75, "duration": 6, "velocity": 67}, {"time": 3194, "pitch": 73, "duration": 6, "velocity": 67}, {"time": 3200, "pitch": 77, "duration": 12, "velocity": 67}, {"time": 3212, "pitch": 80, "duration": 6, "velocity": 67}, {"time": 3218, "pitch": 80, "duration": 30, "velocity": 67}, {"time": 3236, "pitch": 77, "duration": 6, "velocity": 61}, {"time": 3242, "pitch": 77, "duration": 7, "velocity": 76}, {"time": 3248, "pitch": 75, "duration": 6, "velocity": 64}, {"time": 3254, "pitch": 75, "duration": 12, "velocity": 67}, {"time": 3266, "pitch": 77, "duration": 6, "velocity": 67}, {"time": 3272, "pitch": 78, "duration": 12, "velocity": 67}, {"time": 3284, "pitch": 77, "duration": 6, "velocity": 67}, {"time": 3290, "pitch": 77, "duration": 6, "velocity": 62}, {"time": 3296, "pitch": 78, "duration": 6, "velocity": 69}, {"time": 3302, "pitch": 77, "duration": 14, "velocity": 78}, {"time": 3314, "pitch": 72, "duration": 6, "velocity": 46}, {"time": 3314, "pitch": 75, "duration": 6, "velocity": 66}, {"time": 3314, "pitch": 77, "duration": 2, "velocity": 67}, {"time": 3320, "pitch": 73, "duration": 12, "velocity": 67}, {"time": 3320, "pitch": 75, "duration": 1, "velocity": 67}, {"time": 3332, "pitch": 73, "duration": 18, "velocity": 67}, {"time": 3350, "pitch": 82, "duration": 6, "velocity": 67}, {"time": 3356, "pitch": 85, "duration": 6, "velocity": 67}, {"time": 3362, "pitch": 87, "duration": 6, "velocity": 67}, {"time": 3368, "pitch": 89, "duration": 18, "velocity": 67}, {"time": 3386, "pitch": 87, "duration": 3, "velocity": 67}, {"time": 3389, "pitch": 85, "duration": 3, "velocity": 67}, {"time": 3392, "pitch": 85, "duration": 3, "velocity": 67}, {"time": 3395, "pitch": 82, "duration": 3, "velocity": 67}, {"time": 3398, "pitch": 82, "duration": 96, "velocity": 67}, {"time": 4736, "pitch": 77, "duration": 6, "velocity": 40}, {"time": 4742, "pitch": 75, "duration": 18, "velocity": 72}, {"time": 4760, "pitch": 73, "duration": 42, "velocity": 75}, {"time": 4802, "pitch": 77, "duration": 6, "velocity": 93}, {"time": 4808, "pitch": 80, "duration": 18, "velocity": 66}, {"time": 4826, "pitch": 82, "duration": 6, "velocity": 62}, {"time": 4832, "pitch": 82, "duration": 12, "velocity": 66}, {"time": 4844, "pitch": 80, "duration": 6, "velocity": 69}, {"time": 4850, "pitch": 77, "duration": 6, "velocity": 72}, {"time": 4856, "pitch": 75, "duration": 12, "velocity": 60}, {"time": 4868, "pitch": 73, "duration": 6, "velocity": 73}, {"time": 4874, "pitch": 77, "duration": 6, "velocity": 75}, {"time": 4880, "pitch": 77, "duration": 36, "velocity": 59}, {"time": 4916, "pitch": 82, "duration": 12, "velocity": 56}, {"time": 4928, "pitch": 85, "duration": 3, "velocity": 70}, {"time": 4931, "pitch": 87, "duration": 3, "velocity": 61}, {"time": 4934, "pitch": 87, "duration": 12, "velocity": 70}, {"time": 4946, "pitch": 85, "duration": 6, "velocity": 62}, {"time": 4952, "pitch": 87, "duration": 12, "velocity": 66}, {"time": 4964, "pitch": 85, "duration": 6, "velocity": 63}, {"time": 4970, "pitch": 89, "duration": 6, "velocity": 62}, {"time": 4976, "pitch": 89, "duration": 18, "velocity": 67}, {"time": 4994, "pitch": 92, "duration": 6, "velocity": 64}, {"time": 5000, "pitch": 89, "duration": 18, "velocity": 76}, {"time": 5018, "pitch": 89, "duration": 3, "velocity": 53}, {"time": 5021, "pitch": 87, "duration": 3, "velocity": 55}, {"time": 5024, "pitch": 85, "duration": 3, "velocity": 59}, {"time": 5027, "pitch": 87, "duration": 15, "velocity": 59}, {"time": 5042, "pitch": 85, "duration": 6, "velocity": 63}, {"time": 5048, "pitch": 85, "duration": 18, "velocity": 75}, {"time": 5066, "pitch": 82, "duration": 3, "velocity": 63}, {"time": 5069, "pitch": 80, "duration": 3, "velocity": 60}, {"time": 5072, "pitch": 82, "duration": 12, "velocity": 61}, {"time": 5084, "pitch": 80, "duration": 6, "velocity": 73}, {"time": 5090, "pitch": 77, "duration": 6, "velocity": 60}, {"time": 5096, "pitch": 73, "duration": 18, "velocity": 70}, {"time": 5114, "pitch": 70, "duration": 6, "velocity": 62}, {"time": 5120, "pitch": 73, "duration": 6, "velocity": 64}, {"time": 5126, "pitch": 73, "duration": 12, "velocity": 70}, {"time": 5138, "pitch": 70, "duration": 3, "velocity": 55}, {"time": 5141, "pitch": 68, "duration": 3, "velocity": 55}, {"time": 5144, "pitch": 70, "duration": 12, "velocity": 56}, {"time": 5156, "pitch": 73, "duration": 18, "velocity": 70}, {"time": 5174, "pitch": 75, "duration": 12, "velocity": 67}, {"time": 5186, "pitch": 73, "duration": 6, "velocity": 62}, {"time": 5192, "pitch": 77, "duration": 12, "velocity": 72}, {"time": 5204, "pitch": 75, "duration": 6, "velocity": 67}, {"time": 5210, "pitch": 73, "duration": 6, "velocity": 76}, {"time": 5216, "pitch": 73, "duration": 18, "velocity": 80}, {"time": 5234, "pitch": 70, "duration": 3, "velocity": 45}, {"time": 5237, "pitch": 68, "duration": 3, "velocity": 60}, {"time": 5240, "pitch": 70, "duration": 12, "velocity": 66}, {"time": 5252, "pitch": 73, "duration": 6, "velocity": 70}, {"time": 5258, "pitch": 75, "duration": 6, "velocity": 66}, {"time": 5264, "pitch": 77, "duration": 54, "velocity": 64}, {"time": 5318, "pitch": 87, "duration": 12, "velocity": 76}, {"time": 5330, "pitch": 85, "duration": 6, "velocity": 57}, {"time": 5336, "pitch": 82, "duration": 12, "velocity": 75}, {"time": 5348, "pitch": 75, "duration": 6, "velocity": 70}, {"time": 5354, "pitch": 73, "duration": 6, "velocity": 70}, {"time": 5360, "pitch": 75, "duration": 6, "velocity": 73}, {"time": 5366, "pitch": 75, "duration": 9, "velocity": 62}, {"time": 5375, "pitch": 73, "duration": 3, "velocity": 61}, {"time": 5378, "pitch": 70, "duration": 6, "velocity": 73}, {"time": 5384, "pitch": 70, "duration": 12, "velocity": 75}, {"time": 5396, "pitch": 73, "duration": 18, "velocity": 91}, {"time": 5414, "pitch": 70, "duration": 6, "velocity": 70}, {"time": 5420, "pitch": 73, "duration": 6, "velocity": 64}, {"time": 5426, "pitch": 77, "duration": 6, "velocity": 75}, {"time": 5432, "pitch": 80, "duration": 6, "velocity": 64}, {"time": 5438, "pitch": 80, "duration": 6, "velocity": 88}, {"time": 5444, "pitch": 77, "duration": 6, "velocity": 49}, {"time": 5450, "pitch": 80, "duration": 6, "velocity": 75}, {"time": 5456, "pitch": 82, "duration": 36, "velocity": 70}, {"time": 5492, "pitch": 82, "duration": 6, "velocity": 62}, {"time": 5498, "pitch": 85, "duration": 6, "velocity": 72}, {"time": 5504, "pitch": 89, "duration": 12, "velocity": 95}, {"time": 5516, "pitch": 92, "duration": 3, "velocity": 69}, {"time": 5519, "pitch": 89, "duration": 9, "velocity": 78}, {"time": 5528, "pitch": 92, "duration": 3, "velocity": 64}, {"time": 5531, "pitch": 89, "duration": 6, "velocity": 63}, {"time": 5537, "pitch": 92, "duration": 3, "velocity": 58}, {"time": 5540, "pitch": 89, "duration": 6, "velocity": 57}, {"time": 5546, "pitch": 89, "duration": 6, "velocity": 57}, {"time": 5552, "pitch": 87, "duration": 6, "velocity": 37}, {"time": 5558, "pitch": 89, "duration": 3, "velocity": 80}, {"time": 5561, "pitch": 87, "duration": 3, "velocity": 57}, {"time": 5564, "pitch": 85, "duration": 3, "velocity": 63}, {"time": 5567, "pitch": 87, "duration": 27, "velocity": 62}, {"time": 5594, "pitch": 89, "duration": 6, "velocity": 80}, {"time": 5600, "pitch": 92, "duration": 6, "velocity": 72}, {"time": 5606, "pitch": 94, "duration": 12, "velocity": 73}, {"time": 5618, "pitch": 97, "duration": 6, "velocity": 78}, {"time": 5624, "pitch": 94, "duration": 18, "velocity": 82}, {"time": 5642, "pitch": 94, "duration": 3, "velocity": 72}, {"time": 5645, "pitch": 92, "duration": 3, "velocity": 51}, {"time": 5648, "pitch": 89, "duration": 3, "velocity": 55}, {"time": 5651, "pitch": 92, "duration": 3, "velocity": 60}, {"time": 5654, "pitch": 92, "duration": 12, "velocity": 63}, {"time": 5666, "pitch": 89, "duration": 6, "velocity": 66}, {"time": 5672, "pitch": 92, "duration": 24, "velocity": 66}, {"time": 5696, "pitch": 87, "duration": 3, "velocity": 62}, {"time": 5699, "pitch": 89, "duration": 3, "velocity": 67}, {"time": 5702, "pitch": 90, "duration": 6, "velocity": 70}, {"time": 5708, "pitch": 89, "duration": 6, "velocity": 64}, {"time": 5714, "pitch": 90, "duration": 6, "velocity": 64}, {"time": 5720, "pitch": 90, "duration": 18, "velocity": 66}, {"time": 5738, "pitch": 89, "duration": 3, "velocity": 58}, {"time": 5741, "pitch": 87, "duration": 3, "velocity": 62}, {"time": 5744, "pitch": 85, "duration": 3, "velocity": 62}, {"time": 5747, "pitch": 82, "duration": 3, "velocity": 61}, {"time": 5750, "pitch": 85, "duration": 12, "velocity": 59}, {"time": 5762, "pitch": 82, "duration": 3, "velocity": 60}, {"time": 5765, "pitch": 80, "duration": 3, "velocity": 57}, {"time": 5768, "pitch": 82, "duration": 12, "velocity": 67}, {"time": 5780, "pitch": 80, "duration": 6, "velocity": 67}, {"time": 5786, "pitch": 77, "duration": 12, "velocity": 59}, {"time": 5798, "pitch": 75, "duration": 6, "velocity": 64}, {"time": 5804, "pitch": 80, "duration": 6, "velocity": 64}, {"time": 5810, "pitch": 82, "duration": 6, "velocity": 64}, {"time": 5816, "pitch": 82, "duration": 6, "velocity": 57}, {"time": 5822, "pitch": 85, "duration": 6, "velocity": 64}, {"time": 5828, "pitch": 89, "duration": 6, "velocity": 60}, {"time": 5834, "pitch": 87, "duration": 6, "velocity": 63}, {"time": 5840, "pitch": 85, "duration": 3, "velocity": 64}, {"time": 5843, "pitch": 82, "duration": 51, "velocity": 66}], "annotations": [{"time": 86, "annotation": {"number": 64, "value": 127}, "group": "control_change"}, {"time": 134, "annotation": {"number": 64, "value": 0}, "group": "control_change"}, {"time": 140, "annotation": {"number": 64, "value": 127}, "group": "control_change"}, {"time": 184, "annotation": {"number": 64, "value": 0}, "group": "control_change"}, {"time": 188, "annotation": {"number": 64, "value": 127}, "group": "control_change"}, {"time": 228, "annotation": {"number": 64, "value": 0}, "group": "control_change"}, {"time": 233, "annotation": {"number": 64, "value": 127}, "group": "control_change"}, {"time": 279, "annotation": {"number": 64, "value": 0}, "group": "control_change"}, {"time": 284, "annotation": {"number": 64, "value": 127}, "group": "control_change"}, {"time": 286, "annotation": {"number": 64, "value": 0}, "group": "control_change"}, {"time": 287, "annotation": {"number": 64, "value": 127}, "group": "control_change"}, {"time": 327, "annotation": {"number": 64, "value": 0}, "group": "control_change"}, {"time": 331, "annotation": {"number": 64, "value": 127}, "group": "control_change"}, {"time": 373, "annotation": {"number": 64, "value": 0}, "group": "control_change"}, {"time": 377, "annotation": {"number": 64, "value": 127}, "group": "control_change"}, {"time": 397, "annotation": {"number": 64, "value": 0}, "group": "control_change"}, {"time": 401, "annotation": {"number": 64, "value": 127}, "group": "control_change"}, {"time": 415, "annotation": {"number": 64, "value": 0}, "group": "control_change"}, {"time": 419, "annotation": {"number": 64, "value": 127}, "group": "control_change"}, {"time": 504, "annotation": {"number": 64, "value": 0}, "group": "control_change"}, {"time": 2630, "annotation": {"number": 64, "value": 127}, "group": "control_change"}, {"time": 2678, "annotation": {"number": 64, "value": 0}, "group": "control_change"}, {"time": 2684, "annotation": {"number": 64, "value": 127}, "group": "control_change"}, {"time": 2728, "annotation": {"number": 64, "value": 0}, "group": "control_change"}, {"time": 2732, "annotation": {"number": 64, "value": 127}, "group": "control_change"}, {"time": 2772, "annotation": {"number": 64, "value": 0}, "group": "control_change"}, {"time": 2777, "annotation": {"number": 64, "value": 127}, "group": "control_change"}, {"time": 2823, "annotation": {"number": 64, "value": 0}, "group": "control_change"}, {"time": 2828, "annotation": {"number": 64, "value": 127}, "group": "control_change"}, {"time": 2830, "annotation": {"number": 64, "value": 0}, "group": "control_change"}, {"time": 2831, "annotation": {"number": 64, "value": 127}, "group": "control_change"}, {"time": 2871, "annotation": {"number": 64, "value": 0}, "group": "control_change"}, {"time": 2875, "annotation": {"number": 64, "value": 127}, "group": "control_change"}, {"time": 2917, "annotation": {"number": 64, "value": 0}, "group": "control_change"}, {"time": 2921, "annotation": {"number": 64, "value": 127}, "group": "control_change"}, {"time": 2941, "annotation": {"number": 64, "value": 0}, "group": "control_change"}, {"time": 2945, "annotation": {"number": 64, "value": 127}, "group": "control_change"}, {"time": 2959, "annotation": {"number": 64, "value": 0}, "group": "control_change"}, {"time": 2963, "annotation": {"number": 64, "value": 127}, "group": "control_change"}, {"time": 3048, "annotation": {"number": 64, "value": 0}, "group": "control_change"}, {"time": 3064, "annotation": {"number": 64, "value": 127}, "group": "control_change"}, {"time": 3111, "annotation": {"number": 64, "value": 0}, "group": "control_change"}, {"time": 3115, "annotation": {"number": 64, "value": 127}, "group": "control_change"}, {"time": 3158, "annotation": {"number": 64, "value": 0}, "group": "control_change"}, {"time": 3162, "annotation": {"number": 64, "value": 127}, "group": "control_change"}, {"time": 3206, "annotation": {"number": 64, "value": 0}, "group": "control_change"}, {"time": 3210, "annotation": {"number": 64, "value": 127}, "group": "control_change"}, {"time": 3254, "annotation": {"number": 64, "value": 0}, "group": "control_change"}, {"time": 3258, "annotation": {"number": 64, "value": 127}, "group": "control_change"}, {"time": 3305, "annotation": {"number": 64, "value": 0}, "group": "control_change"}, {"time": 3309, "annotation": {"number": 64, "value": 127}, "group": "control_change"}, {"time": 3353, "annotation": {"number": 64, "value": 0}, "group": "control_change"}, {"time": 3357, "annotation": {"number": 64, "value": 127}, "group": "control_change"}, {"time": 3377, "annotation": {"number": 64, "value": 0}, "group": "control_change"}, {"time": 3381, "annotation": {"number": 64, "value": 127}, "group": "control_change"}, {"time": 3398, "annotation": {"number": 64, "value": 0}, "group": "control_change"}, {"time": 3401, "annotation": {"number": 64, "value": 127}, "group": "control_change"}, {"time": 3476, "annotation": {"number": 64, "value": 0}, "group": "control_change"}]}, {"program": 0, "is_drum": false, "name": "PIANO", "notes": [{"time": 86, "pitch": 46, "duration": 36, "velocity": 61}, {"time": 92, "pitch": 53, "duration": 30, "velocity": 45}, {"time": 98, "pitch": 58, "duration": 25, "velocity": 53}, {"time": 104, "pitch": 60, "duration": 4, "velocity": 51}, {"time": 110, "pitch": 61, "duration": 4, "velocity": 59}, {"time": 116, "pitch": 63, "duration": 5, "velocity": 56}, {"time": 122, "pitch": 65, "duration": 5, "velocity": 50}, {"time": 128, "pitch": 70, "duration": 6, "velocity": 50}, {"time": 134, "pitch": 53, "duration": 38, "velocity": 59}, {"time": 134, "pitch": 68, "duration": 10, "velocity": 43}, {"time": 140, "pitch": 60, "duration": 24, "velocity": 57}, {"time": 146, "pitch": 63, "duration": 6, "velocity": 52}, {"time": 152, "pitch": 68, "duration": 15, "velocity": 56}, {"time": 164, "pitch": 65, "duration": 7, "velocity": 69}, {"time": 170, "pitch": 60, "duration": 2, "velocity": 57}, {"time": 182, "pitch": 42, "duration": 36, "velocity": 63}, {"time": 182, "pitch": 58, "duration": 13, "velocity": 53}, {"time": 182, "pitch": 61, "duration": 11, "velocity": 60}, {"time": 182, "pitch": 65, "duration": 12, "velocity": 62}, {"time": 188, "pitch": 49, "duration": 30, "velocity": 41}, {"time": 194, "pitch": 54, "duration": 18, "velocity": 48}, {"time": 200, "pitch": 58, "duration": 8, "velocity": 48}, {"time": 212, "pitch": 61, "duration": 8, "velocity": 52}, {"time": 218, "pitch": 54, "duration": 10, "velocity": 46}, {"time": 224, "pitch": 63, "duration": 6, "velocity": 37}, {"time": 230, "pitch": 49, "duration": 12, "velocity": 36}, {"time": 230, "pitch": 65, "duration": 9, "velocity": 44}, {"time": 236, "pitch": 56, "duration": 6, "velocity": 60}, {"time": 242, "pitch": 61, "duration": 7, "velocity": 56}, {"time": 248, "pitch": 63, "duration": 15, "velocity": 49}, {"time": 254, "pitch": 65, "duration": 9, "velocity": 49}, {"time": 260, "pitch": 68, "duration": 4, "velocity": 43}, {"time": 266, "pitch": 72, "duration": 10, "velocity": 59}, {"time": 278, "pitch": 51, "duration": 37, "velocity": 57}, {"time": 284, "pitch": 58, "duration": 22, "velocity": 48}, {"time": 290, "pitch": 63, "duration": 19, "velocity": 54}, {"time": 296, "pitch": 65, "duration": 10, "velocity": 55}, {"time": 308, "pitch": 66, "duration": 6, "velocity": 60}, {"time": 314, "pitch": 58, "duration": 3, "velocity": 59}, {"time": 326, "pitch": 46, "duration": 38, "velocity": 55}, {"time": 326, "pitch": 61, "duration": 11, "velocity": 48}, {"time": 326, "pitch": 65, "duration": 10, "velocity": 42}, {"time": 332, "pitch": 53, "duration": 20, "velocity": 40}, {"time": 338, "pitch": 58, "duration": 21, "velocity": 44}, {"time": 344, "pitch": 60, "duration": 3, "velocity": 42}, {"time": 344, "pitch": 63, "duration": 5, "velocity": 49}, {"time": 350, "pitch": 61, "duration": 9, "velocity": 55}, {"time": 350, "pitch": 65, "duration": 9, "velocity": 55}, {"time": 362, "pitch": 53, "duration": 2, "velocity": 61}, {"time": 374, "pitch": 42, "duration": 14, "velocity": 52}, {"time": 374, "pitch": 58, "duration": 11, "velocity": 51}, {"time": 374, "pitch": 61, "duration": 10, "velocity": 57}, {"time": 374, "pitch": 65, "duration": 9, "velocity": 57}, {"time": 380, "pitch": 49, "duration": 9, "velocity": 49}, {"time": 386, "pitch": 54, "duration": 3, "velocity": 49}, {"time": 398, "pitch": 41, "duration": 10, "velocity": 57}, {"time": 398, "pitch": 53, "duration": 12, "velocity": 53}, {"time": 398, "pitch": 56, "duration": 11, "velocity": 47}, {"time": 398, "pitch": 60, "duration": 10, "velocity": 53}, {"time": 398, "pitch": 63, "duration": 11, "velocity": 56}, {"time": 416, "pitch": 46, "duration": 67, "velocity": 61}, {"time": 416, "pitch": 61, "duration": 10, "velocity": 58}, {"time": 416, "pitch": 65, "duration": 9, "velocity": 55}, {"time": 428, "pitch": 58, "duration": 54, "velocity": 37}, {"time": 434, "pitch": 60, "duration": 5, "velocity": 44}, {"time": 440, "pitch": 61, "duration": 4, "velocity": 56}, {"time": 446, "pitch": 65, "duration": 7, "velocity": 34}, {"time": 458, "pitch": 70, "duration": 4, "velocity": 47}, {"time": 464, "pitch": 72, "duration": 4, "velocity": 52}, {"time": 470, "pitch": 65, "duration": 12, "velocity": 40}, {"time": 470, "pitch": 70, "duration": 12, "velocity": 33}, {"time": 470, "pitch": 73, "duration": 13, "velocity": 48}, {"time": 518, "pitch": 46, "duration": 33, "velocity": 46}, {"time": 518, "pitch": 65, "duration": 14, "velocity": 54}, {"time": 518, "pitch": 70, "duration": 14, "velocity": 57}, {"time": 518, "pitch": 73, "duration": 14, "velocity": 52}, {"time": 524, "pitch": 53, "duration": 28, "velocity": 54}, {"time": 530, "pitch": 58, "duration": 14, "velocity": 49}, {"time": 536, "pitch": 65, "duration": 13, "velocity": 52}, {"time": 536, "pitch": 70, "duration": 12, "velocity": 54}, {"time": 536, "pitch": 73, "duration": 12, "velocity": 50}, {"time": 548, "pitch": 58, "duration": 8, "velocity": 36}, {"time": 554, "pitch": 65, "duration": 5, "velocity": 56}, {"time": 560, "pitch": 73, "duration": 4, "velocity": 56}, {"time": 566, "pitch": 53, "duration": 46, "velocity": 60}, {"time": 566, "pitch": 63, "duration": 8, "velocity": 53}, {"time": 566, "pitch": 68, "duration": 7, "velocity": 55}, {"time": 566, "pitch": 72, "duration": 8, "velocity": 61}, {"time": 572, "pitch": 60, "duration": 18, "velocity": 42}, {"time": 578, "pitch": 63, "duration": 9, "velocity": 44}, {"time": 584, "pitch": 68, "duration": 12, "velocity": 54}, {"time": 596, "pitch": 60, "duration": 7, "velocity": 40}, {"time": 602, "pitch": 63, "duration": 4, "velocity": 55}, {"time": 602, "pitch": 72, "duration": 10, "velocity": 69}, {"time": 608, "pitch": 60, "duration": 4, "velocity": 47}, {"time": 614, "pitch": 54, "duration": 34, "velocity": 59}, {"time": 614, "pitch": 61, "duration": 7, "velocity": 58}, {"time": 614, "pitch": 66, "duration": 7, "velocity": 53}, {"time": 614, "pitch": 70, "duration": 10, "velocity": 58}, {"time": 620, "pitch": 58, "duration": 15, "velocity": 48}, {"time": 626, "pitch": 61, "duration": 14, "velocity": 52}, {"time": 632, "pitch": 66, "duration": 14, "velocity": 76}, {"time": 632, "pitch": 70, "duration": 13, "velocity": 67}, {"time": 644, "pitch": 58, "duration": 9, "velocity": 56}, {"time": 650, "pitch": 63, "duration": 5, "velocity": 56}, {"time": 650, "pitch": 68, "duration": 6, "velocity": 63}, {"time": 656, "pitch": 70, "duration": 5, "velocity": 59}, {"time": 662, "pitch": 49, "duration": 39, "velocity": 60}, {"time": 662, "pitch": 63, "duration": 9, "velocity": 53}, {"time": 662, "pitch": 68, "duration": 13, "velocity": 59}, {"time": 668, "pitch": 56, "duration": 33, "velocity": 46}, {"time": 674, "pitch": 61, "duration": 10, "velocity": 48}, {"time": 680, "pitch": 63, "duration": 10, "velocity": 54}, {"time": 680, "pitch": 65, "duration": 13, "velocity": 59}, {"time": 680, "pitch": 68, "duration": 9, "velocity": 63}, {"time": 698, "pitch": 61, "duration": 5, "velocity": 58}, {"time": 701, "pitch": 63, "duration": 4, "velocity": 61}, {"time": 704, "pitch": 65, "duration": 5, "velocity": 60}, {"time": 707, "pitch": 68, "duration": 4, "velocity": 61}, {"time": 710, "pitch": 51, "duration": 39, "velocity": 69}, {"time": 710, "pitch": 66, "duration": 7, "velocity": 67}, {"time": 716, "pitch": 58, "duration": 34, "velocity": 54}, {"time": 722, "pitch": 63, "duration": 12, "velocity": 45}, {"time": 728, "pitch": 66, "duration": 13, "velocity": 56}, {"time": 728, "pitch": 70, "duration": 13, "velocity": 55}, {"time": 740, "pitch": 63, "duration": 7, "velocity": 46}, {"time": 746, "pitch": 65, "duration": 4, "velocity": 49}, {"time": 752, "pitch": 70, "duration": 4, "velocity": 52}, {"time": 758, "pitch": 46, "duration": 32, "velocity": 57}, {"time": 758, "pitch": 61, "duration": 11, "velocity": 53}, {"time": 758, "pitch": 65, "duration": 12, "velocity": 55}, {"time": 758, "pitch": 70, "duration": 13, "velocity": 58}, {"time": 764, "pitch": 53, "duration": 30, "velocity": 53}, {"time": 770, "pitch": 58, "duration": 19, "velocity": 47}, {"time": 776, "pitch": 61, "duration": 7, "velocity": 60}, {"time": 782, "pitch": 65, "duration": 12, "velocity": 63}, {"time": 788, "pitch": 70, "duration": 5, "velocity": 66}, {"time": 794, "pitch": 44, "duration": 11, "velocity": 57}, {"time": 794, "pitch": 61, "duration": 7, "velocity": 52}, {"time": 794, "pitch": 68, "duration": 11, "velocity": 62}, {"time": 806, "pitch": 42, "duration": 15, "velocity": 63}, {"time": 806, "pitch": 61, "duration": 11, "velocity": 46}, {"time": 806, "pitch": 66, "duration": 12, "velocity": 55}, {"time": 806, "pitch": 70, "duration": 12, "velocity": 41}, {"time": 812, "pitch": 49, "duration": 10, "velocity": 47}, {"time": 818, "pitch": 54, "duration": 4, "velocity": 53}, {"time": 830, "pitch": 41, "duration": 8, "velocity": 59}, {"time": 830, "pitch": 63, "duration": 8, "velocity": 55}, {"time": 830, "pitch": 68, "duration": 7, "velocity": 51}, {"time": 830, "pitch": 72, "duration": 7, "velocity": 51}, {"time": 836, "pitch": 53, "duration": 5, "velocity": 46}, {"time": 842, "pitch": 72, "duration": 5, "velocity": 52}, {"time": 848, "pitch": 65, "duration": 15, "velocity": 54}, {"time": 848, "pitch": 68, "duration": 18, "velocity": 60}, {"time": 848, "pitch": 73, "duration": 28, "velocity": 55}, {"time": 854, "pitch": 46, "duration": 12, "velocity": 61}, {"time": 860, "pitch": 53, "duration": 6, "velocity": 59}, {"time": 866, "pitch": 58, "duration": 7, "velocity": 53}, {"time": 872, "pitch": 60, "duration": 12, "velocity": 57}, {"time": 878, "pitch": 61, "duration": 7, "velocity": 61}, {"time": 884, "pitch": 65, "duration": 3, "velocity": 50}, {"time": 890, "pitch": 72, "duration": 5, "velocity": 47}, {"time": 896, "pitch": 73, "duration": 4, "velocity": 56}, {"time": 902, "pitch": 46, "duration": 17, "velocity": 58}, {"time": 902, "pitch": 65, "duration": 16, "velocity": 41}, {"time": 902, "pitch": 70, "duration": 16, "velocity": 40}, {"time": 902, "pitch": 73, "duration": 17, "velocity": 28}, {"time": 950, "pitch": 46, "duration": 37, "velocity": 64}, {"time": 950, "pitch": 65, "duration": 7, "velocity": 49}, {"time": 950, "pitch": 70, "duration": 7, "velocity": 57}, {"time": 950, "pitch": 73, "duration": 7, "velocity": 56}, {"time": 962, "pitch": 65, "duration": 6, "velocity": 38}, {"time": 962, "pitch": 70, "duration": 6, "velocity": 40}, {"time": 962, "pitch": 73, "duration": 7, "velocity": 41}, {"time": 968, "pitch": 58, "duration": 14, "velocity": 35}, {"time": 974, "pitch": 65, "duration": 14, "velocity": 44}, {"time": 980, "pitch": 70, "duration": 7, "velocity": 43}, {"time": 986, "pitch": 58, "duration": 2, "velocity": 49}, {"time": 986, "pitch": 73, "duration": 7, "velocity": 62}, {"time": 992, "pitch": 72, "duration": 3, "velocity": 46}, {"time": 998, "pitch": 53, "duration": 43, "velocity": 57}, {"time": 998, "pitch": 63, "duration": 8, "velocity": 49}, {"time": 998, "pitch": 68, "duration": 8, "velocity": 51}, {"time": 998, "pitch": 72, "duration": 8, "velocity": 44}, {"time": 1004, "pitch": 60, "duration": 18, "velocity": 48}, {"time": 1010, "pitch": 63, "duration": 14, "velocity": 36}, {"time": 1016, "pitch": 68, "duration": 11, "velocity": 56}, {"time": 1016, "pitch": 72, "duration": 12, "velocity": 47}, {"time": 1028, "pitch": 60, "duration": 13, "velocity": 44}, {"time": 1034, "pitch": 63, "duration": 4, "velocity": 59}, {"time": 1037, "pitch": 68, "duration": 5, "velocity": 53}, {"time": 1040, "pitch": 70, "duration": 3, "velocity": 61}, {"time": 1046, "pitch": 54, "duration": 24, "velocity": 58}, {"time": 1046, "pitch": 61, "duration": 9, "velocity": 61}, {"time": 1046, "pitch": 66, "duration": 11, "velocity": 62}, {"time": 1046, "pitch": 70, "duration": 12, "velocity": 49}, {"time": 1058, "pitch": 61, "duration": 6, "velocity": 53}, {"time": 1058, "pitch": 68, "duration": 5, "velocity": 57}, {"time": 1064, "pitch": 70, "duration": 5, "velocity": 66}, {"time": 1070, "pitch": 56, "duration": 12, "velocity": 54}, {"time": 1070, "pitch": 63, "duration": 8, "velocity": 53}, {"time": 1070, "pitch": 68, "duration": 10, "velocity": 61}, {"time": 1082, "pitch": 66, "duration": 4, "velocity": 59}, {"time": 1088, "pitch": 63, "duration": 14, "velocity": 57}, {"time": 1088, "pitch": 65, "duration": 14, "velocity": 73}, {"time": 1088, "pitch": 68, "duration": 16, "velocity": 64}, {"time": 1094, "pitch": 49, "duration": 42, "velocity": 58}, {"time": 1100, "pitch": 56, "duration": 31, "velocity": 63}, {"time": 1106, "pitch": 61, "duration": 10, "velocity": 52}, {"time": 1112, "pitch": 63, "duration": 11, "velocity": 59}, {"time": 1112, "pitch": 65, "duration": 12, "velocity": 62}, {"time": 1112, "pitch": 68, "duration": 8, "velocity": 45}, {"time": 1124, "pitch": 61, "duration": 7, "velocity": 39}, {"time": 1130, "pitch": 63, "duration": 5, "velocity": 55}, {"time": 1130, "pitch": 65, "duration": 5, "velocity": 63}, {"time": 1130, "pitch": 68, "duration": 8, "velocity": 63}, {"time": 1136, "pitch": 56, "duration": 6, "velocity": 53}, {"time": 1142, "pitch": 51, "duration": 41, "velocity": 62}, {"time": 1142, "pitch": 61, "duration": 8, "velocity": 59}, {"time": 1142, "pitch": 66, "duration": 9, "velocity": 44}, {"time": 1142, "pitch": 70, "duration": 9, "velocity": 58}, {"time": 1148, "pitch": 58, "duration": 12, "velocity": 55}, {"time": 1154, "pitch": 61, "duration": 4, "velocity": 55}, {"time": 1160, "pitch": 66, "duration": 9, "velocity": 61}, {"time": 1160, "pitch": 70, "duration": 10, "velocity": 49}, {"time": 1172, "pitch": 58, "duration": 5, "velocity": 58}, {"time": 1178, "pitch": 70, "duration": 6, "velocity": 46}, {"time": 1184, "pitch": 72, "duration": 5, "velocity": 53}, {"time": 1190, "pitch": 46, "duration": 32, "velocity": 54}, {"time": 1190, "pitch": 65, "duration": 10, "velocity": 57}, {"time": 1190, "pitch": 70, "duration": 14, "velocity": 55}, {"time": 1190, "pitch": 73, "duration": 12, "velocity": 61}, {"time": 1196, "pitch": 53, "duration": 27, "velocity": 38}, {"time": 1202, "pitch": 58, "duration": 9, "velocity": 47}, {"time": 1208, "pitch": 65, "duration": 11, "velocity": 60}, {"time": 1208, "pitch": 73, "duration": 14, "velocity": 56}, {"time": 1220, "pitch": 58, "duration": 3, "velocity": 43}, {"time": 1226, "pitch": 44, "duration": 9, "velocity": 40}, {"time": 1226, "pitch": 63, "duration": 5, "velocity": 53}, {"time": 1226, "pitch": 72, "duration": 8, "velocity": 60}, {"time": 1238, "pitch": 42, "duration": 15, "velocity": 53}, {"time": 1238, "pitch": 61, "duration": 10, "velocity": 62}, {"time": 1238, "pitch": 66, "duration": 10, "velocity": 62}, {"time": 1238, "pitch": 70, "duration": 12, "velocity": 61}, {"time": 1244, "pitch": 49, "duration": 11, "velocity": 48}, {"time": 1250, "pitch": 54, "duration": 4, "velocity": 46}, {"time": 1256, "pitch": 61, "duration": 2, "velocity": 49}, {"time": 1256, "pitch": 70, "duration": 5, "velocity": 51}, {"time": 1262, "pitch": 41, "duration": 10, "velocity": 50}, {"time": 1262, "pitch": 63, "duration": 7, "velocity": 49}, {"time": 1262, "pitch": 68, "duration": 7, "velocity": 61}, {"time": 1268, "pitch": 53, "duration": 7, "velocity": 39}, {"time": 1274, "pitch": 63, "duration": 4, "velocity": 48}, {"time": 1280, "pitch": 68, "duration": 4, "velocity": 55}, {"time": 1286, "pitch": 46, "duration": 42, "velocity": 63}, {"time": 1286, "pitch": 61, "duration": 12, "velocity": 51}, {"time": 1286, "pitch": 65, "duration": 12, "velocity": 59}, {"time": 1292, "pitch": 53, "duration": 29, "velocity": 48}, {"time": 1298, "pitch": 58, "duration": 16, "velocity": 55}, {"time": 1304, "pitch": 60, "duration": 7, "velocity": 58}, {"time": 1310, "pitch": 61, "duration": 3, "velocity": 69}, {"time": 1316, "pitch": 65, "duration": 4, "velocity": 62}, {"time": 1322, "pitch": 58, "duration": 5, "velocity": 46}, {"time": 1322, "pitch": 73, "duration": 5, "velocity": 63}, {"time": 1328, "pitch": 53, "duration": 5, "velocity": 59}, {"time": 1328, "pitch": 72, "duration": 6, "velocity": 61}, {"time": 1334, "pitch": 46, "duration": 17, "velocity": 62}, {"time": 1334, "pitch": 65, "duration": 15, "velocity": 52}, {"time": 1334, "pitch": 70, "duration": 16, "velocity": 61}, {"time": 1382, "pitch": 49, "duration": 44, "velocity": 64}, {"time": 1382, "pitch": 65, "duration": 8, "velocity": 54}, {"time": 1382, "pitch": 68, "duration": 7, "velocity": 57}, {"time": 1382, "pitch": 73, "duration": 8, "velocity": 57}, {"time": 1388, "pitch": 61, "duration": 15, "velocity": 48}, {"time": 1394, "pitch": 65, "duration": 5, "velocity": 48}, {"time": 1400, "pitch": 68, "duration": 12, "velocity": 63}, {"time": 1400, "pitch": 73, "duration": 12, "velocity": 60}, {"time": 1412, "pitch": 61, "duration": 6, "velocity": 57}, {"time": 1418, "pitch": 65, "duration": 5, "velocity": 60}, {"time": 1418, "pitch": 68, "duration": 5, "velocity": 62}, {"time": 1418, "pitch": 73, "duration": 9, "velocity": 69}, {"time": 1430, "pitch": 44, "duration": 40, "velocity": 63}, {"time": 1430, "pitch": 63, "duration": 9, "velocity": 51}, {"time": 1430, "pitch": 68, "duration": 10, "velocity": 56}, {"time": 1430, "pitch": 72, "duration": 9, "velocity": 56}, {"time": 1436, "pitch": 51, "duration": 19, "velocity": 50}, {"time": 1442, "pitch": 56, "duration": 11, "velocity": 54}, {"time": 1448, "pitch": 63, "duration": 6, "velocity": 60}, {"time": 1448, "pitch": 68, "duration": 10, "velocity": 70}, {"time": 1460, "pitch": 51, "duration": 10, "velocity": 14}, {"time": 1460, "pitch": 56, "duration": 10, "velocity": 55}, {"time": 1466, "pitch": 60, "duration": 6, "velocity": 70}, {"time": 1466, "pitch": 63, "duration": 7, "velocity": 72}, {"time": 1472, "pitch": 68, "duration": 4, "velocity": 53}, {"time": 1478, "pitch": 46, "duration": 39, "velocity": 64}, {"time": 1478, "pitch": 61, "duration": 11, "velocity": 64}, {"time": 1478, "pitch": 65, "duration": 12, "velocity": 64}, {"time": 1484, "pitch": 53, "duration": 13, "velocity": 52}, {"time": 1490, "pitch": 60, "duration": 5, "velocity": 49}, {"time": 1490, "pitch": 63, "duration": 6, "velocity": 58}, {"time": 1496, "pitch": 58, "duration": 18, "velocity": 49}, {"time": 1496, "pitch": 61, "duration": 11, "velocity": 53}, {"time": 1496, "pitch": 65, "duration": 11, "velocity": 67}, {"time": 1508, "pitch": 53, "duration": 6, "velocity": 45}, {"time": 1514, "pitch": 60, "duration": 4, "velocity": 63}, {"time": 1514, "pitch": 61, "duration": 4, "velocity": 70}, {"time": 1514, "pitch": 65, "duration": 4, "velocity": 66}, {"time": 1526, "pitch": 41, "duration": 42, "velocity": 69}, {"time": 1526, "pitch": 56, "duration": 8, "velocity": 57}, {"time": 1526, "pitch": 60, "duration": 7, "velocity": 62}, {"time": 1526, "pitch": 63, "duration": 8, "velocity": 63}, {"time": 1526, "pitch": 68, "duration": 7, "velocity": 52}, {"time": 1532, "pitch": 53, "duration": 18, "velocity": 45}, {"time": 1538, "pitch": 56, "duration": 4, "velocity": 52}, {"time": 1544, "pitch": 56, "duration": 13, "velocity": 45}, {"time": 1544, "pitch": 60, "duration": 12, "velocity": 63}, {"time": 1544, "pitch": 63, "duration": 12, "velocity": 66}, {"time": 1544, "pitch": 68, "duration": 14, "velocity": 47}, {"time": 1556, "pitch": 53, "duration": 7, "velocity": 54}, {"time": 1562, "pitch": 56, "duration": 5, "velocity": 56}, {"time": 1562, "pitch": 60, "duration": 5, "velocity": 60}, {"time": 1562, "pitch": 63, "duration": 6, "velocity": 63}, {"time": 1562, "pitch": 68, "duration": 6, "velocity": 47}, {"time": 1568, "pitch": 53, "duration": 3, "velocity": 70}, {"time": 1574, "pitch": 42, "duration": 39, "velocity": 73}, {"time": 1574, "pitch": 58, "duration": 13, "velocity": 62}, {"time": 1574, "pitch": 61, "duration": 12, "velocity": 70}, {"time": 1574, "pitch": 66, "duration": 14, "velocity": 69}, {"time": 1580, "pitch": 49, "duration": 32, "velocity": 49}, {"time": 1586, "pitch": 54, "duration": 15, "velocity": 61}, {"time": 1592, "pitch": 58, "duration": 4, "velocity": 53}, {"time": 1592, "pitch": 65, "duration": 5, "velocity": 57}, {"time": 1598, "pitch": 61, "duration": 8, "velocity": 69}, {"time": 1598, "pitch": 66, "duration": 8, "velocity": 67}, {"time": 1604, "pitch": 54, "duration": 7, "velocity": 51}, {"time": 1610, "pitch": 58, "duration": 5, "velocity": 60}, {"time": 1610, "pitch": 61, "duration": 4, "velocity": 55}, {"time": 1616, "pitch": 66, "duration": 4, "velocity": 67}, {"time": 1622, "pitch": 41, "duration": 9, "velocity": 70}, {"time": 1622, "pitch": 56, "duration": 10, "velocity": 50}, {"time": 1622, "pitch": 61, "duration": 10, "velocity": 62}, {"time": 1622, "pitch": 65, "duration": 9, "velocity": 63}, {"time": 1628, "pitch": 49, "duration": 7, "velocity": 60}, {"time": 1634, "pitch": 53, "duration": 24, "velocity": 70}, {"time": 1640, "pitch": 56, "duration": 9, "velocity": 70}, {"time": 1640, "pitch": 61, "duration": 11, "velocity": 73}, {"time": 1652, "pitch": 56, "duration": 8, "velocity": 67}, {"time": 1652, "pitch": 65, "duration": 9, "velocity": 73}, {"time": 1658, "pitch": 49, "duration": 3, "velocity": 67}, {"time": 1664, "pitch": 68, "duration": 6, "velocity": 67}, {"time": 1670, "pitch": 51, "duration": 38, "velocity": 67}, {"time": 1670, "pitch": 63, "duration": 5, "velocity": 66}, {"time": 1670, "pitch": 66, "duration": 7, "velocity": 44}, {"time": 1676, "pitch": 58, "duration": 32, "velocity": 55}, {"time": 1682, "pitch": 63, "duration": 9, "velocity": 48}, {"time": 1688, "pitch": 65, "duration": 9, "velocity": 60}, {"time": 1688, "pitch": 66, "duration": 11, "velocity": 60}, {"time": 1688, "pitch": 70, "duration": 11, "velocity": 59}, {"time": 1700, "pitch": 63, "duration": 5, "velocity": 59}, {"time": 1706, "pitch": 65, "duration": 5, "velocity": 54}, {"time": 1712, "pitch": 70, "duration": 6, "velocity": 60}, {"time": 1718, "pitch": 41, "duration": 32, "velocity": 60}, {"time": 1718, "pitch": 57, "duration": 7, "velocity": 60}, {"time": 1718, "pitch": 60, "duration": 8, "velocity": 49}, {"time": 1718, "pitch": 65, "duration": 8, "velocity": 58}, {"time": 1724, "pitch": 53, "duration": 13, "velocity": 54}, {"time": 1730, "pitch": 57, "duration": 7, "velocity": 75}, {"time": 1730, "pitch": 63, "duration": 6, "velocity": 72}, {"time": 1736, "pitch": 60, "duration": 7, "velocity": 75}, {"time": 1736, "pitch": 65, "duration": 9, "velocity": 76}, {"time": 1742, "pitch": 53, "duration": 9, "velocity": 51}, {"time": 1748, "pitch": 60, "duration": 6, "velocity": 70}, {"time": 1748, "pitch": 63, "duration": 7, "velocity": 61}, {"time": 1754, "pitch": 44, "duration": 3, "velocity": 66}, {"time": 1754, "pitch": 58, "duration": 3, "velocity": 58}, {"time": 1754, "pitch": 61, "duration": 2, "velocity": 72}, {"time": 1766, "pitch": 49, "duration": 42, "velocity": 75}, {"time": 1766, "pitch": 63, "duration": 12, "velocity": 51}, {"time": 1766, "pitch": 65, "duration": 11, "velocity": 59}, {"time": 1766, "pitch": 68, "duration": 12, "velocity": 64}, {"time": 1772, "pitch": 56, "duration": 29, "velocity": 59}, {"time": 1778, "pitch": 61, "duration": 12, "velocity": 56}, {"time": 1784, "pitch": 63, "duration": 8, "velocity": 59}, {"time": 1784, "pitch": 65, "duration": 14, "velocity": 60}, {"time": 1784, "pitch": 68, "duration": 9, "velocity": 59}, {"time": 1796, "pitch": 61, "duration": 8, "velocity": 60}, {"time": 1802, "pitch": 63, "duration": 4, "velocity": 64}, {"time": 1802, "pitch": 65, "duration": 5, "velocity": 69}, {"time": 1802, "pitch": 68, "duration": 5, "velocity": 67}, {"time": 1808, "pitch": 56, "duration": 6, "velocity": 61}, {"time": 1814, "pitch": 48, "duration": 9, "velocity": 63}, {"time": 1814, "pitch": 63, "duration": 9, "velocity": 66}, {"time": 1814, "pitch": 68, "duration": 9, "velocity": 72}, {"time": 1820, "pitch": 56, "duration": 14, "velocity": 55}, {"time": 1826, "pitch": 60, "duration": 25, "velocity": 54}, {"time": 1832, "pitch": 63, "duration": 10, "velocity": 60}, {"time": 1832, "pitch": 68, "duration": 12, "velocity": 78}, {"time": 1844, "pitch": 48, "duration": 17, "velocity": 47}, {"time": 1850, "pitch": 63, "duration": 4, "velocity": 59}, {"time": 1850, "pitch": 75, "duration": 4, "velocity": 73}, {"time": 1856, "pitch": 70, "duration": 1, "velocity": 37}, {"time": 1856, "pitch": 72, "duration": 5, "velocity": 66}, {"time": 1862, "pitch": 46, "duration": 41, "velocity": 73}, {"time": 1862, "pitch": 65, "duration": 10, "velocity": 60}, {"time": 1862, "pitch": 68, "duration": 12, "velocity": 61}, {"time": 1862, "pitch": 73, "duration": 11, "velocity": 69}, {"time": 1868, "pitch": 53, "duration": 38, "velocity": 56}, {"time": 1874, "pitch": 58, "duration": 11, "velocity": 48}, {"time": 1880, "pitch": 65, "duration": 3, "velocity": 60}, {"time": 1880, "pitch": 68, "duration": 3, "velocity": 59}, {"time": 1880, "pitch": 73, "duration": 9, "velocity": 70}, {"time": 1889, "pitch": 58, "duration": 5, "velocity": 40}, {"time": 1892, "pitch": 63, "duration": 7, "velocity": 69}, {"time": 1892, "pitch": 72, "duration": 8, "velocity": 67}, {"time": 1898, "pitch": 58, "duration": 3, "velocity": 52}, {"time": 1904, "pitch": 72, "duration": 4, "velocity": 47}, {"time": 1910, "pitch": 53, "duration": 38, "velocity": 63}, {"time": 1910, "pitch": 63, "duration": 8, "velocity": 61}, {"time": 1910, "pitch": 68, "duration": 8, "velocity": 62}, {"time": 1910, "pitch": 72, "duration": 8, "velocity": 62}, {"time": 1916, "pitch": 60, "duration": 16, "velocity": 47}, {"time": 1922, "pitch": 63, "duration": 4, "velocity": 49}, {"time": 1928, "pitch": 68, "duration": 11, "velocity": 61}, {"time": 1928, "pitch": 72, "duration": 10, "velocity": 58}, {"time": 1940, "pitch": 60, "duration": 5, "velocity": 48}, {"time": 1946, "pitch": 63, "duration": 4, "velocity": 57}, {"time": 1946, "pitch": 68, "duration": 11, "velocity": 60}, {"time": 1958, "pitch": 42, "duration": 10, "velocity": 57}, {"time": 1958, "pitch": 61, "duration": 8, "velocity": 49}, {"time": 1958, "pitch": 66, "duration": 9, "velocity": 61}, {"time": 1958, "pitch": 70, "duration": 11, "velocity": 57}, {"time": 1961, "pitch": 68, "duration": 6, "velocity": 28}, {"time": 1964, "pitch": 49, "duration": 5, "velocity": 50}, {"time": 1970, "pitch": 54, "duration": 6, "velocity": 40}, {"time": 1970, "pitch": 61, "duration": 4, "velocity": 42}, {"time": 1970, "pitch": 68, "duration": 7, "velocity": 45}, {"time": 1976, "pitch": 56, "duration": 16, "velocity": 61}, {"time": 1976, "pitch": 61, "duration": 6, "velocity": 51}, {"time": 1976, "pitch": 66, "duration": 7, "velocity": 62}, {"time": 1982, "pitch": 58, "duration": 10, "velocity": 46}, {"time": 1988, "pitch": 61, "duration": 3, "velocity": 56}, {"time": 1994, "pitch": 66, "duration": 5, "velocity": 66}, {"time": 2000, "pitch": 70, "duration": 5, "velocity": 60}, {"time": 2006, "pitch": 53, "duration": 39, "velocity": 57}, {"time": 2006, "pitch": 61, "duration": 31, "velocity": 57}, {"time": 2006, "pitch": 65, "duration": 6, "velocity": 60}, {"time": 2006, "pitch": 68, "duration": 7, "velocity": 58}, {"time": 2018, "pitch": 65, "duration": 14, "velocity": 46}, {"time": 2024, "pitch": 73, "duration": 20, "velocity": 61}, {"time": 2036, "pitch": 65, "duration": 8, "velocity": 67}, {"time": 2036, "pitch": 72, "duration": 7, "velocity": 72}, {"time": 2042, "pitch": 61, "duration": 2, "velocity": 62}, {"time": 2048, "pitch": 68, "duration": 6, "velocity": 63}, {"time": 2054, "pitch": 51, "duration": 37, "velocity": 66}, {"time": 2054, "pitch": 61, "duration": 8, "velocity": 48}, {"time": 2054, "pitch": 66, "duration": 9, "velocity": 59}, {"time": 2054, "pitch": 70, "duration": 8, "velocity": 49}, {"time": 2060, "pitch": 58, "duration": 16, "velocity": 59}, {"time": 2066, "pitch": 61, "duration": 8, "velocity": 54}, {"time": 2072, "pitch": 66, "duration": 10, "velocity": 67}, {"time": 2072, "pitch": 70, "duration": 11, "velocity": 61}, {"time": 2084, "pitch": 58, "duration": 7, "velocity": 55}, {"time": 2090, "pitch": 61, "duration": 2, "velocity": 72}, {"time": 2090, "pitch": 66, "duration": 1, "velocity": 66}, {"time": 2090, "pitch": 70, "duration": 2, "velocity": 61}, {"time": 2102, "pitch": 41, "duration": 67, "velocity": 72}, {"time": 2102, "pitch": 57, "duration": 8, "velocity": 70}, {"time": 2102, "pitch": 60, "duration": 7, "velocity": 73}, {"time": 2102, "pitch": 65, "duration": 8, "velocity": 63}, {"time": 2108, "pitch": 53, "duration": 18, "velocity": 53}, {"time": 2114, "pitch": 57, "duration": 6, "velocity": 66}, {"time": 2120, "pitch": 60, "duration": 7, "velocity": 73}, {"time": 2126, "pitch": 63, "duration": 5, "velocity": 69}, {"time": 2132, "pitch": 65, "duration": 7, "velocity": 59}, {"time": 2138, "pitch": 70, "duration": 5, "velocity": 37}, {"time": 2144, "pitch": 72, "duration": 6, "velocity": 70}, {"time": 2150, "pitch": 53, "duration": 18, "velocity": 54}, {"time": 2150, "pitch": 65, "duration": 19, "velocity": 50}, {"time": 2150, "pitch": 69, "duration": 19, "velocity": 59}, {"time": 2150, "pitch": 77, "duration": 18, "velocity": 46}, {"time": 2198, "pitch": 46, "duration": 37, "velocity": 64}, {"time": 2198, "pitch": 65, "duration": 7, "velocity": 49}, {"time": 2198, "pitch": 70, "duration": 7, "velocity": 57}, {"time": 2198, "pitch": 73, "duration": 7, "velocity": 56}, {"time": 2210, "pitch": 65, "duration": 6, "velocity": 38}, {"time": 2210, "pitch": 70, "duration": 6, "velocity": 40}, {"time": 2210, "pitch": 73, "duration": 7, "velocity": 41}, {"time": 2216, "pitch": 58, "duration": 14, "velocity": 35}, {"time": 2222, "pitch": 65, "duration": 14, "velocity": 44}, {"time": 2228, "pitch": 70, "duration": 7, "velocity": 43}, {"time": 2234, "pitch": 58, "duration": 2, "velocity": 49}, {"time": 2234, "pitch": 73, "duration": 7, "velocity": 62}, {"time": 2240, "pitch": 72, "duration": 3, "velocity": 46}, {"time": 2246, "pitch": 53, "duration": 43, "velocity": 57}, {"time": 2246, "pitch": 63, "duration": 8, "velocity": 49}, {"time": 2246, "pitch": 68, "duration": 8, "velocity": 51}, {"time": 2246, "pitch": 72, "duration": 8, "velocity": 44}, {"time": 2252, "pitch": 60, "duration": 18, "velocity": 48}, {"time": 2258, "pitch": 63, "duration": 14, "velocity": 36}, {"time": 2264, "pitch": 68, "duration": 11, "velocity": 56}, {"time": 2264, "pitch": 72, "duration": 12, "velocity": 47}, {"time": 2276, "pitch": 60, "duration": 13, "velocity": 44}, {"time": 2282, "pitch": 63, "duration": 4, "velocity": 59}, {"time": 2285, "pitch": 68, "duration": 5, "velocity": 53}, {"time": 2288, "pitch": 70, "duration": 3, "velocity": 61}, {"time": 2294, "pitch": 54, "duration": 24, "velocity": 58}, {"time": 2294, "pitch": 61, "duration": 9, "velocity": 61}, {"time": 2294, "pitch": 66, "duration": 11, "velocity": 62}, {"time": 2294, "pitch": 70, "duration": 12, "velocity": 49}, {"time": 2306, "pitch": 61, "duration": 6, "velocity": 53}, {"time": 2306, "pitch": 68, "duration": 5, "velocity": 57}, {"time": 2312, "pitch": 70, "duration": 5, "velocity": 66}, {"time": 2318, "pitch": 56, "duration": 12, "velocity": 54}, {"time": 2318, "pitch": 63, "duration": 8, "velocity": 53}, {"time": 2318, "pitch": 68, "duration": 10, "velocity": 61}, {"time": 2330, "pitch": 66, "duration": 4, "velocity": 59}, {"time": 2336, "pitch": 63, "duration": 14, "velocity": 57}, {"time": 2336, "pitch": 65, "duration": 14, "velocity": 73}, {"time": 2336, "pitch": 68, "duration": 16, "velocity": 64}, {"time": 2342, "pitch": 49, "duration": 42, "velocity": 58}, {"time": 2348, "pitch": 56, "duration": 31, "velocity": 63}, {"time": 2354, "pitch": 61, "duration": 10, "velocity": 52}, {"time": 2360, "pitch": 63, "duration": 11, "velocity": 59}, {"time": 2360, "pitch": 65, "duration": 12, "velocity": 62}, {"time": 2360, "pitch": 68, "duration": 8, "velocity": 45}, {"time": 2372, "pitch": 61, "duration": 7, "velocity": 39}, {"time": 2378, "pitch": 63, "duration": 5, "velocity": 55}, {"time": 2378, "pitch": 65, "duration": 5, "velocity": 63}, {"time": 2378, "pitch": 68, "duration": 8, "velocity": 63}, {"time": 2384, "pitch": 56, "duration": 6, "velocity": 53}, {"time": 2390, "pitch": 51, "duration": 41, "velocity": 62}, {"time": 2390, "pitch": 61, "duration": 8, "velocity": 59}, {"time": 2390, "pitch": 66, "duration": 9, "velocity": 44}, {"time": 2390, "pitch": 70, "duration": 9, "velocity": 58}, {"time": 2396, "pitch": 58, "duration": 12, "velocity": 55}, {"time": 2402, "pitch": 61, "duration": 4, "velocity": 55}, {"time": 2408, "pitch": 66, "duration": 9, "velocity": 61}, {"time": 2408, "pitch": 70, "duration": 10, "velocity": 49}, {"time": 2420, "pitch": 58, "duration": 5, "velocity": 58}, {"time": 2426, "pitch": 70, "duration": 6, "velocity": 46}, {"time": 2432, "pitch": 72, "duration": 5, "velocity": 53}, {"time": 2438, "pitch": 46, "duration": 32, "velocity": 54}, {"time": 2438, "pitch": 65, "duration": 10, "velocity": 57}, {"time": 2438, "pitch": 70, "duration": 14, "velocity": 55}, {"time": 2438, "pitch": 73, "duration": 12, "velocity": 61}, {"time": 2444, "pitch": 53, "duration": 27, "velocity": 38}, {"time": 2450, "pitch": 58, "duration": 9, "velocity": 47}, {"time": 2456, "pitch": 65, "duration": 11, "velocity": 60}, {"time": 2456, "pitch": 73, "duration": 14, "velocity": 56}, {"time": 2468, "pitch": 58, "duration": 3, "velocity": 43}, {"time": 2474, "pitch": 44, "duration": 9, "velocity": 40}, {"time": 2474, "pitch": 63, "duration": 5, "velocity": 53}, {"time": 2474, "pitch": 72, "duration": 8, "velocity": 60}, {"time": 2486, "pitch": 42, "duration": 15, "velocity": 53}, {"time": 2486, "pitch": 61, "duration": 10, "velocity": 62}, {"time": 2486, "pitch": 66, "duration": 10, "velocity": 62}, {"time": 2486, "pitch": 70, "duration": 12, "velocity": 61}, {"time": 2492, "pitch": 49, "duration": 11, "velocity": 48}, {"time": 2498, "pitch": 54, "duration": 4, "velocity": 46}, {"time": 2504, "pitch": 61, "duration": 2, "velocity": 49}, {"time": 2504, "pitch": 70, "duration": 5, "velocity": 51}, {"time": 2510, "pitch": 41, "duration": 10, "velocity": 50}, {"time": 2510, "pitch": 63, "duration": 7, "velocity": 49}, {"time": 2510, "pitch": 68, "duration": 7, "velocity": 61}, {"time": 2516, "pitch": 53, "duration": 7, "velocity": 39}, {"time": 2522, "pitch": 63, "duration": 4, "velocity": 48}, {"time": 2528, "pitch": 68, "duration": 4, "velocity": 55}, {"time": 2534, "pitch": 46, "duration": 42, "velocity": 63}, {"time": 2534, "pitch": 61, "duration": 12, "velocity": 51}, {"time": 2534, "pitch": 65, "duration": 12, "velocity": 59}, {"time": 2540, "pitch": 53, "duration": 29, "velocity": 48}, {"time": 2546, "pitch": 58, "duration": 16, "velocity": 55}, {"time": 2552, "pitch": 60, "duration": 7, "velocity": 58}, {"time": 2558, "pitch": 61, "duration": 3, "velocity": 69}, {"time": 2564, "pitch": 65, "duration": 4, "velocity": 62}, {"time": 2570, "pitch": 58, "duration": 5, "velocity": 46}, {"time": 2570, "pitch": 73, "duration": 5, "velocity": 63}, {"time": 2576, "pitch": 53, "duration": 5, "velocity": 59}, {"time": 2576, "pitch": 72, "duration": 6, "velocity": 61}, {"time": 2582, "pitch": 46, "duration": 17, "velocity": 62}, {"time": 2582, "pitch": 65, "duration": 15, "velocity": 52}, {"time": 2582, "pitch": 70, "duration": 16, "velocity": 61}, {"time": 2630, "pitch": 46, "duration": 6, "velocity": 61}, {"time": 2636, "pitch": 53, "duration": 6, "velocity": 45}, {"time": 2642, "pitch": 58, "duration": 6, "velocity": 53}, {"time": 2648, "pitch": 60, "duration": 6, "velocity": 51}, {"time": 2654, "pitch": 61, "duration": 6, "velocity": 59}, {"time": 2660, "pitch": 63, "duration": 6, "velocity": 56}, {"time": 2666, "pitch": 65, "duration": 6, "velocity": 50}, {"time": 2672, "pitch": 70, "duration": 6, "velocity": 50}, {"time": 2678, "pitch": 53, "duration": 6, "velocity": 59}, {"time": 2678, "pitch": 68, "duration": 6, "velocity": 43}, {"time": 2684, "pitch": 60, "duration": 6, "velocity": 57}, {"time": 2690, "pitch": 63, "duration": 6, "velocity": 52}, {"time": 2696, "pitch": 68, "duration": 6, "velocity": 56}, {"time": 2708, "pitch": 65, "duration": 6, "velocity": 69}, {"time": 2714, "pitch": 60, "duration": 12, "velocity": 57}, {"time": 2726, "pitch": 42, "duration": 6, "velocity": 63}, {"time": 2726, "pitch": 58, "duration": 6, "velocity": 53}, {"time": 2726, "pitch": 61, "duration": 6, "velocity": 60}, {"time": 2726, "pitch": 65, "duration": 6, "velocity": 62}, {"time": 2732, "pitch": 49, "duration": 6, "velocity": 41}, {"time": 2738, "pitch": 54, "duration": 6, "velocity": 48}, {"time": 2744, "pitch": 58, "duration": 6, "velocity": 48}, {"time": 2756, "pitch": 61, "duration": 6, "velocity": 52}, {"time": 2762, "pitch": 54, "duration": 6, "velocity": 46}, {"time": 2768, "pitch": 63, "duration": 6, "velocity": 37}, {"time": 2774, "pitch": 49, "duration": 6, "velocity": 61}, {"time": 2774, "pitch": 65, "duration": 6, "velocity": 44}, {"time": 2780, "pitch": 56, "duration": 6, "velocity": 60}, {"time": 2786, "pitch": 61, "duration": 6, "velocity": 56}, {"time": 2792, "pitch": 63, "duration": 6, "velocity": 49}, {"time": 2798, "pitch": 65, "duration": 3, "velocity": 49}, {"time": 2804, "pitch": 68, "duration": 6, "velocity": 43}, {"time": 2810, "pitch": 72, "duration": 12, "velocity": 59}, {"time": 2822, "pitch": 51, "duration": 6, "velocity": 57}, {"time": 2828, "pitch": 58, "duration": 6, "velocity": 48}, {"time": 2834, "pitch": 63, "duration": 6, "velocity": 54}, {"time": 2840, "pitch": 65, "duration": 6, "velocity": 55}, {"time": 2852, "pitch": 66, "duration": 6, "velocity": 60}, {"time": 2858, "pitch": 58, "duration": 6, "velocity": 59}, {"time": 2870, "pitch": 46, "duration": 6, "velocity": 55}, {"time": 2870, "pitch": 61, "duration": 6, "velocity": 48}, {"time": 2870, "pitch": 65, "duration": 6, "velocity": 42}, {"time": 2876, "pitch": 53, "duration": 6, "velocity": 40}, {"time": 2882, "pitch": 58, "duration": 6, "velocity": 44}, {"time": 2888, "pitch": 60, "duration": 6, "velocity": 42}, {"time": 2888, "pitch": 63, "duration": 6, "velocity": 49}, {"time": 2894, "pitch": 61, "duration": 3, "velocity": 55}, {"time": 2894, "pitch": 65, "duration": 3, "velocity": 55}, {"time": 2906, "pitch": 53, "duration": 12, "velocity": 61}, {"time": 2918, "pitch": 42, "duration": 6, "velocity": 52}, {"time": 2918, "pitch": 58, "duration": 6, "velocity": 51}, {"time": 2918, "pitch": 61, "duration": 6, "velocity": 57}, {"time": 2918, "pitch": 65, "duration": 6, "velocity": 57}, {"time": 2924, "pitch": 49, "duration": 6, "velocity": 49}, {"time": 2930, "pitch": 54, "duration": 6, "velocity": 49}, {"time": 2942, "pitch": 41, "duration": 6, "velocity": 57}, {"time": 2942, "pitch": 53, "duration": 6, "velocity": 53}, {"time": 2942, "pitch": 56, "duration": 6, "velocity": 47}, {"time": 2942, "pitch": 60, "duration": 6, "velocity": 53}, {"time": 2942, "pitch": 63, "duration": 6, "velocity": 56}, {"time": 2960, "pitch": 46, "duration": 12, "velocity": 61}, {"time": 2960, "pitch": 61, "duration": 12, "velocity": 58}, {"time": 2960, "pitch": 65, "duration": 12, "velocity": 55}, {"time": 2972, "pitch": 58, "duration": 6, "velocity": 37}, {"time": 2978, "pitch": 60, "duration": 6, "velocity": 44}, {"time": 2984, "pitch": 61, "duration": 6, "velocity": 56}, {"time": 2990, "pitch": 65, "duration": 12, "velocity": 34}, {"time": 3014, "pitch": 65, "duration": 6, "velocity": 40}, {"time": 3062, "pitch": 34, "duration": 6, "velocity": 70}, {"time": 3062, "pitch": 46, "duration": 6, "velocity": 62}, {"time": 3062, "pitch": 58, "duration": 1, "velocity": 39}, {"time": 3062, "pitch": 65, "duration": 7, "velocity": 60}, {"time": 3062, "pitch": 70, "duration": 8, "velocity": 59}, {"time": 3062, "pitch": 73, "duration": 8, "velocity": 58}, {"time": 3068, "pitch": 58, "duration": 9, "velocity": 45}, {"time": 3074, "pitch": 65, "duration": 3, "velocity": 49}, {"time": 3074, "pitch": 72, "duration": 7, "velocity": 59}, {"time": 3077, "pitch": 60, "duration": 25, "velocity": 53}, {"time": 3080, "pitch": 61, "duration": 6, "velocity": 63}, {"time": 3080, "pitch": 65, "duration": 12, "velocity": 63}, {"time": 3080, "pitch": 70, "duration": 10, "velocity": 58}, {"time": 3080, "pitch": 73, "duration": 12, "velocity": 73}, {"time": 3092, "pitch": 61, "duration": 6, "velocity": 40}, {"time": 3098, "pitch": 65, "duration": 7, "velocity": 61}, {"time": 3098, "pitch": 70, "duration": 5, "velocity": 63}, {"time": 3098, "pitch": 73, "duration": 5, "velocity": 67}, {"time": 3104, "pitch": 61, "duration": 5, "velocity": 63}, {"time": 3110, "pitch": 41, "duration": 35, "velocity": 67}, {"time": 3110, "pitch": 53, "duration": 38, "velocity": 67}, {"time": 3110, "pitch": 63, "duration": 7, "velocity": 67}, {"time": 3110, "pitch": 68, "duration": 7, "velocity": 67}, {"time": 3110, "pitch": 72, "duration": 6, "velocity": 67}, {"time": 3116, "pitch": 60, "duration": 14, "velocity": 49}, {"time": 3122, "pitch": 63, "duration": 5, "velocity": 38}, {"time": 3128, "pitch": 63, "duration": 11, "velocity": 55}, {"time": 3128, "pitch": 68, "duration": 12, "velocity": 67}, {"time": 3128, "pitch": 72, "duration": 8, "velocity": 64}, {"time": 3140, "pitch": 60, "duration": 8, "velocity": 53}, {"time": 3146, "pitch": 63, "duration": 6, "velocity": 69}, {"time": 3146, "pitch": 68, "duration": 5, "velocity": 70}, {"time": 3146, "pitch": 72, "duration": 6, "velocity": 73}, {"time": 3152, "pitch": 41, "duration": 6, "velocity": 65}, {"time": 3152, "pitch": 53, "duration": 5, "velocity": 65}, {"time": 3158, "pitch": 42, "duration": 39, "velocity": 81}, {"time": 3158, "pitch": 54, "duration": 45, "velocity": 81}, {"time": 3158, "pitch": 61, "duration": 8, "velocity": 81}, {"time": 3158, "pitch": 66, "duration": 7, "velocity": 81}, {"time": 3158, "pitch": 70, "duration": 6, "velocity": 81}, {"time": 3164, "pitch": 58, "duration": 17, "velocity": 47}, {"time": 3170, "pitch": 61, "duration": 4, "velocity": 57}, {"time": 3176, "pitch": 61, "duration": 13, "velocity": 66}, {"time": 3176, "pitch": 66, "duration": 12, "velocity": 70}, {"time": 3176, "pitch": 70, "duration": 8, "velocity": 66}, {"time": 3188, "pitch": 58, "duration": 6, "velocity": 50}, {"time": 3194, "pitch": 61, "duration": 6, "velocity": 70}, {"time": 3194, "pitch": 66, "duration": 5, "velocity": 70}, {"time": 3194, "pitch": 70, "duration": 7, "velocity": 70}, {"time": 3200, "pitch": 56, "duration": 4, "velocity": 62}, {"time": 3200, "pitch": 68, "duration": 5, "velocity": 70}, {"time": 3206, "pitch": 37, "duration": 9, "velocity": 70}, {"time": 3206, "pitch": 49, "duration": 11, "velocity": 70}, {"time": 3206, "pitch": 65, "duration": 10, "velocity": 70}, {"time": 3206, "pitch": 68, "duration": 10, "velocity": 70}, {"time": 3206, "pitch": 73, "duration": 11, "velocity": 70}, {"time": 3212, "pitch": 56, "duration": 6, "velocity": 52}, {"time": 3218, "pitch": 61, "duration": 6, "velocity": 58}, {"time": 3224, "pitch": 63, "duration": 22, "velocity": 64}, {"time": 3230, "pitch": 65, "duration": 16, "velocity": 67}, {"time": 3236, "pitch": 68, "duration": 4, "velocity": 57}, {"time": 3236, "pitch": 73, "duration": 4, "velocity": 54}, {"time": 3242, "pitch": 68, "duration": 7, "velocity": 64}, {"time": 3242, "pitch": 73, "duration": 1, "velocity": 57}, {"time": 3248, "pitch": 73, "duration": 6, "velocity": 67}, {"time": 3254, "pitch": 39, "duration": 12, "velocity": 75}, {"time": 3254, "pitch": 51, "duration": 38, "velocity": 75}, {"time": 3254, "pitch": 61, "duration": 4, "velocity": 75}, {"time": 3254, "pitch": 66, "duration": 13, "velocity": 75}, {"time": 3254, "pitch": 70, "duration": 12, "velocity": 75}, {"time": 3254, "pitch": 73, "duration": 12, "velocity": 75}, {"time": 3260, "pitch": 58, "duration": 33, "velocity": 57}, {"time": 3266, "pitch": 63, "duration": 8, "velocity": 54}, {"time": 3272, "pitch": 65, "duration": 5, "velocity": 63}, {"time": 3272, "pitch": 66, "duration": 6, "velocity": 70}, {"time": 3272, "pitch": 70, "duration": 7, "velocity": 61}, {"time": 3284, "pitch": 63, "duration": 9, "velocity": 61}, {"time": 3290, "pitch": 70, "duration": 6, "velocity": 76}, {"time": 3290, "pitch": 75, "duration": 6, "velocity": 67}, {"time": 3296, "pitch": 73, "duration": 3, "velocity": 67}, {"time": 3299, "pitch": 70, "duration": 3, "velocity": 67}, {"time": 3302, "pitch": 34, "duration": 9, "velocity": 71}, {"time": 3302, "pitch": 46, "duration": 11, "velocity": 71}, {"time": 3302, "pitch": 73, "duration": 11, "velocity": 71}, {"time": 3308, "pitch": 53, "duration": 6, "velocity": 51}, {"time": 3314, "pitch": 58, "duration": 7, "velocity": 40}, {"time": 3320, "pitch": 60, "duration": 24, "velocity": 69}, {"time": 3320, "pitch": 70, "duration": 6, "velocity": 58}, {"time": 3332, "pitch": 61, "duration": 6, "velocity": 64}, {"time": 3338, "pitch": 65, "duration": 3, "velocity": 66}, {"time": 3338, "pitch": 70, "duration": 3, "velocity": 75}, {"time": 3338, "pitch": 73, "duration": 4, "velocity": 69}, {"time": 3341, "pitch": 61, "duration": 2, "velocity": 66}, {"time": 3344, "pitch": 65, "duration": 2, "velocity": 48}, {"time": 3347, "pitch": 68, "duration": 2, "velocity": 55}, {"time": 3350, "pitch": 42, "duration": 11, "velocity": 71}, {"time": 3350, "pitch": 54, "duration": 14, "velocity": 71}, {"time": 3350, "pitch": 61, "duration": 7, "velocity": 71}, {"time": 3350, "pitch": 66, "duration": 8, "velocity": 71}, {"time": 3350, "pitch": 70, "duration": 7, "velocity": 71}, {"time": 3356, "pitch": 58, "duration": 8, "velocity": 59}, {"time": 3362, "pitch": 61, "duration": 5, "velocity": 66}, {"time": 3368, "pitch": 70, "duration": 5, "velocity": 66}, {"time": 3374, "pitch": 41, "duration": 14, "velocity": 64}, {"time": 3374, "pitch": 53, "duration": 14, "velocity": 59}, {"time": 3374, "pitch": 63, "duration": 14, "velocity": 63}, {"time": 3374, "pitch": 68, "duration": 10, "velocity": 63}, {"time": 3374, "pitch": 72, "duration": 14, "velocity": 58}, {"time": 3398, "pitch": 34, "duration": 10, "velocity": 68}, {"time": 3398, "pitch": 46, "duration": 11, "velocity": 68}, {"time": 3398, "pitch": 65, "duration": 24, "velocity": 68}, {"time": 3398, "pitch": 73, "duration": 25, "velocity": 68}, {"time": 3404, "pitch": 53, "duration": 6, "velocity": 57}, {"time": 3410, "pitch": 58, "duration": 9, "velocity": 59}, {"time": 3416, "pitch": 60, "duration": 57, "velocity": 64}, {"time": 3422, "pitch": 61, "duration": 19, "velocity": 63}, {"time": 3428, "pitch": 65, "duration": 9, "velocity": 59}, {"time": 3434, "pitch": 73, "duration": 6, "velocity": 63}, {"time": 3440, "pitch": 70, "duration": 7, "velocity": 62}, {"time": 3446, "pitch": 61, "duration": 14, "velocity": 57}, {"time": 3446, "pitch": 65, "duration": 16, "velocity": 48}, {"time": 3446, "pitch": 72, "duration": 18, "velocity": 61}, {"time": 3464, "pitch": 61, "duration": 9, "velocity": 30}, {"time": 3470, "pitch": 70, "duration": 4, "velocity": 49}, {"time": 3494, "pitch": 49, "duration": 44, "velocity": 64}, {"time": 3494, "pitch": 65, "duration": 8, "velocity": 54}, {"time": 3494, "pitch": 68, "duration": 7, "velocity": 57}, {"time": 3494, "pitch": 73, "duration": 8, "velocity": 57}, {"time": 3500, "pitch": 61, "duration": 15, "velocity": 48}, {"time": 3506, "pitch": 65, "duration": 5, "velocity": 48}, {"time": 3512, "pitch": 68, "duration": 12, "velocity": 63}, {"time": 3512, "pitch": 73, "duration": 12, "velocity": 60}, {"time": 3524, "pitch": 61, "duration": 6, "velocity": 57}, {"time": 3530, "pitch": 65, "duration": 5, "velocity": 60}, {"time": 3530, "pitch": 68, "duration": 5, "velocity": 62}, {"time": 3530, "pitch": 73, "duration": 9, "velocity": 69}, {"time": 3542, "pitch": 44, "duration": 40, "velocity": 63}, {"time": 3542, "pitch": 63, "duration": 9, "velocity": 51}, {"time": 3542, "pitch": 68, "duration": 10, "velocity": 56}, {"time": 3542, "pitch": 72, "duration": 9, "velocity": 56}, {"time": 3548, "pitch": 51, "duration": 19, "velocity": 50}, {"time": 3554, "pitch": 56, "duration": 11, "velocity": 54}, {"time": 3560, "pitch": 63, "duration": 6, "velocity": 60}, {"time": 3560, "pitch": 68, "duration": 10, "velocity": 70}, {"time": 3572, "pitch": 51, "duration": 10, "velocity": 14}, {"time": 3572, "pitch": 56, "duration": 10, "velocity": 55}, {"time": 3578, "pitch": 60, "duration": 6, "velocity": 70}, {"time": 3578, "pitch": 63, "duration": 7, "velocity": 72}, {"time": 3584, "pitch": 68, "duration": 4, "velocity": 53}, {"time": 3590, "pitch": 46, "duration": 39, "velocity": 64}, {"time": 3590, "pitch": 61, "duration": 11, "velocity": 64}, {"time": 3590, "pitch": 65, "duration": 12, "velocity": 64}, {"time": 3596, "pitch": 53, "duration": 13, "velocity": 52}, {"time": 3602, "pitch": 60, "duration": 5, "velocity": 49}, {"time": 3602, "pitch": 63, "duration": 6, "velocity": 58}, {"time": 3608, "pitch": 58, "duration": 18, "velocity": 49}, {"time": 3608, "pitch": 61, "duration": 11, "velocity": 53}, {"time": 3608, "pitch": 65, "duration": 11, "velocity": 67}, {"time": 3620, "pitch": 53, "duration": 6, "velocity": 45}, {"time": 3626, "pitch": 60, "duration": 4, "velocity": 63}, {"time": 3626, "pitch": 61, "duration": 4, "velocity": 70}, {"time": 3626, "pitch": 65, "duration": 4, "velocity": 66}, {"time": 3638, "pitch": 41, "duration": 42, "velocity": 69}, {"time": 3638, "pitch": 56, "duration": 8, "velocity": 57}, {"time": 3638, "pitch": 60, "duration": 7, "velocity": 62}, {"time": 3638, "pitch": 63, "duration": 8, "velocity": 63}, {"time": 3638, "pitch": 68, "duration": 7, "velocity": 52}, {"time": 3644, "pitch": 53, "duration": 18, "velocity": 45}, {"time": 3650, "pitch": 56, "duration": 4, "velocity": 52}, {"time": 3656, "pitch": 56, "duration": 13, "velocity": 45}, {"time": 3656, "pitch": 60, "duration": 12, "velocity": 63}, {"time": 3656, "pitch": 63, "duration": 12, "velocity": 66}, {"time": 3656, "pitch": 68, "duration": 14, "velocity": 47}, {"time": 3668, "pitch": 53, "duration": 7, "velocity": 54}, {"time": 3674, "pitch": 56, "duration": 5, "velocity": 56}, {"time": 3674, "pitch": 60, "duration": 5, "velocity": 60}, {"time": 3674, "pitch": 63, "duration": 6, "velocity": 63}, {"time": 3674, "pitch": 68, "duration": 6, "velocity": 47}, {"time": 3680, "pitch": 53, "duration": 3, "velocity": 70}, {"time": 3686, "pitch": 42, "duration": 39, "velocity": 73}, {"time": 3686, "pitch": 58, "duration": 13, "velocity": 62}, {"time": 3686, "pitch": 61, "duration": 12, "velocity": 70}, {"time": 3686, "pitch": 66, "duration": 14, "velocity": 69}, {"time": 3692, "pitch": 49, "duration": 32, "velocity": 49}, {"time": 3698, "pitch": 54, "duration": 15, "velocity": 61}, {"time": 3704, "pitch": 58, "duration": 4, "velocity": 53}, {"time": 3704, "pitch": 65, "duration": 5, "velocity": 57}, {"time": 3710, "pitch": 61, "duration": 8, "velocity": 69}, {"time": 3710, "pitch": 66, "duration": 8, "velocity": 67}, {"time": 3716, "pitch": 54, "duration": 7, "velocity": 51}, {"time": 3722, "pitch": 58, "duration": 5, "velocity": 60}, {"time": 3722, "pitch": 61, "duration": 4, "velocity": 55}, {"time": 3728, "pitch": 66, "duration": 4, "velocity": 67}, {"time": 3734, "pitch": 41, "duration": 9, "velocity": 70}, {"time": 3734, "pitch": 56, "duration": 10, "velocity": 50}, {"time": 3734, "pitch": 61, "duration": 10, "velocity": 62}, {"time": 3734, "pitch": 65, "duration": 9, "velocity": 63}, {"time": 3740, "pitch": 49, "duration": 7, "velocity": 60}, {"time": 3746, "pitch": 53, "duration": 24, "velocity": 70}, {"time": 3752, "pitch": 56, "duration": 9, "velocity": 70}, {"time": 3752, "pitch": 61, "duration": 11, "velocity": 73}, {"time": 3764, "pitch": 56, "duration": 8, "velocity": 67}, {"time": 3764, "pitch": 65, "duration": 9, "velocity": 73}, {"time": 3770, "pitch": 49, "duration": 3, "velocity": 67}, {"time": 3776, "pitch": 68, "duration": 6, "velocity": 67}, {"time": 3782, "pitch": 51, "duration": 38, "velocity": 67}, {"time": 3782, "pitch": 63, "duration": 5, "velocity": 66}, {"time": 3782, "pitch": 66, "duration": 7, "velocity": 44}, {"time": 3788, "pitch": 58, "duration": 32, "velocity": 55}, {"time": 3794, "pitch": 63, "duration": 9, "velocity": 48}, {"time": 3800, "pitch": 65, "duration": 9, "velocity": 60}, {"time": 3800, "pitch": 66, "duration": 11, "velocity": 60}, {"time": 3800, "pitch": 70, "duration": 11, "velocity": 59}, {"time": 3812, "pitch": 63, "duration": 5, "velocity": 59}, {"time": 3818, "pitch": 65, "duration": 5, "velocity": 54}, {"time": 3824, "pitch": 70, "duration": 6, "velocity": 60}, {"time": 3830, "pitch": 41, "duration": 32, "velocity": 60}, {"time": 3830, "pitch": 57, "duration": 7, "velocity": 60}, {"time": 3830, "pitch": 60, "duration": 8, "velocity": 49}, {"time": 3830, "pitch": 65, "duration": 8, "velocity": 58}, {"time": 3836, "pitch": 53, "duration": 13, "velocity": 54}, {"time": 3842, "pitch": 57, "duration": 7, "velocity": 75}, {"time": 3842, "pitch": 63, "duration": 6, "velocity": 72}, {"time": 3848, "pitch": 60, "duration": 7, "velocity": 75}, {"time": 3848, "pitch": 65, "duration": 9, "velocity": 76}, {"time": 3854, "pitch": 53, "duration": 9, "velocity": 51}, {"time": 3860, "pitch": 60, "duration": 6, "velocity": 70}, {"time": 3860, "pitch": 63, "duration": 7, "velocity": 61}, {"time": 3866, "pitch": 44, "duration": 3, "velocity": 66}, {"time": 3866, "pitch": 58, "duration": 3, "velocity": 58}, {"time": 3866, "pitch": 61, "duration": 2, "velocity": 72}, {"time": 3878, "pitch": 49, "duration": 42, "velocity": 75}, {"time": 3878, "pitch": 63, "duration": 12, "velocity": 51}, {"time": 3878, "pitch": 65, "duration": 11, "velocity": 59}, {"time": 3878, "pitch": 68, "duration": 12, "velocity": 64}, {"time": 3884, "pitch": 56, "duration": 29, "velocity": 59}, {"time": 3890, "pitch": 61, "duration": 12, "velocity": 56}, {"time": 3896, "pitch": 63, "duration": 8, "velocity": 59}, {"time": 3896, "pitch": 65, "duration": 14, "velocity": 60}, {"time": 3896, "pitch": 68, "duration": 9, "velocity": 59}, {"time": 3908, "pitch": 61, "duration": 8, "velocity": 60}, {"time": 3914, "pitch": 63, "duration": 4, "velocity": 64}, {"time": 3914, "pitch": 65, "duration": 5, "velocity": 69}, {"time": 3914, "pitch": 68, "duration": 5, "velocity": 67}, {"time": 3920, "pitch": 56, "duration": 6, "velocity": 61}, {"time": 3926, "pitch": 48, "duration": 9, "velocity": 63}, {"time": 3926, "pitch": 63, "duration": 9, "velocity": 66}, {"time": 3926, "pitch": 68, "duration": 9, "velocity": 72}, {"time": 3932, "pitch": 56, "duration": 14, "velocity": 55}, {"time": 3938, "pitch": 60, "duration": 25, "velocity": 54}, {"time": 3944, "pitch": 63, "duration": 10, "velocity": 60}, {"time": 3944, "pitch": 68, "duration": 12, "velocity": 78}, {"time": 3956, "pitch": 48, "duration": 17, "velocity": 47}, {"time": 3962, "pitch": 63, "duration": 4, "velocity": 59}, {"time": 3962, "pitch": 75, "duration": 4, "velocity": 73}, {"time": 3968, "pitch": 70, "duration": 1, "velocity": 37}, {"time": 3968, "pitch": 72, "duration": 5, "velocity": 66}, {"time": 3974, "pitch": 46, "duration": 41, "velocity": 73}, {"time": 3974, "pitch": 65, "duration": 10, "velocity": 60}, {"time": 3974, "pitch": 68, "duration": 12, "velocity": 61}, {"time": 3974, "pitch": 73, "duration": 11, "velocity": 69}, {"time": 3980, "pitch": 53, "duration": 38, "velocity": 56}, {"time": 3986, "pitch": 58, "duration": 11, "velocity": 48}, {"time": 3992, "pitch": 65, "duration": 3, "velocity": 60}, {"time": 3992, "pitch": 68, "duration": 3, "velocity": 59}, {"time": 3992, "pitch": 73, "duration": 9, "velocity": 70}, {"time": 4001, "pitch": 58, "duration": 5, "velocity": 40}, {"time": 4004, "pitch": 63, "duration": 7, "velocity": 69}, {"time": 4004, "pitch": 72, "duration": 8, "velocity": 67}, {"time": 4010, "pitch": 58, "duration": 3, "velocity": 52}, {"time": 4016, "pitch": 72, "duration": 4, "velocity": 47}, {"time": 4022, "pitch": 53, "duration": 38, "velocity": 63}, {"time": 4022, "pitch": 63, "duration": 8, "velocity": 61}, {"time": 4022, "pitch": 68, "duration": 8, "velocity": 62}, {"time": 4022, "pitch": 72, "duration": 8, "velocity": 62}, {"time": 4028, "pitch": 60, "duration": 16, "velocity": 47}, {"time": 4034, "pitch": 63, "duration": 4, "velocity": 49}, {"time": 4040, "pitch": 68, "duration": 11, "velocity": 61}, {"time": 4040, "pitch": 72, "duration": 10, "velocity": 58}, {"time": 4052, "pitch": 60, "duration": 5, "velocity": 48}, {"time": 4058, "pitch": 63, "duration": 4, "velocity": 57}, {"time": 4058, "pitch": 68, "duration": 11, "velocity": 60}, {"time": 4070, "pitch": 42, "duration": 10, "velocity": 57}, {"time": 4070, "pitch": 61, "duration": 8, "velocity": 49}, {"time": 4070, "pitch": 66, "duration": 9, "velocity": 61}, {"time": 4070, "pitch": 70, "duration": 11, "velocity": 57}, {"time": 4073, "pitch": 68, "duration": 6, "velocity": 28}, {"time": 4076, "pitch": 49, "duration": 5, "velocity": 50}, {"time": 4082, "pitch": 54, "duration": 6, "velocity": 40}, {"time": 4082, "pitch": 61, "duration": 4, "velocity": 42}, {"time": 4082, "pitch": 68, "duration": 7, "velocity": 45}, {"time": 4088, "pitch": 56, "duration": 16, "velocity": 61}, {"time": 4088, "pitch": 61, "duration": 6, "velocity": 51}, {"time": 4088, "pitch": 66, "duration": 7, "velocity": 62}, {"time": 4094, "pitch": 58, "duration": 10, "velocity": 46}, {"time": 4100, "pitch": 61, "duration": 3, "velocity": 56}, {"time": 4106, "pitch": 66, "duration": 5, "velocity": 66}, {"time": 4112, "pitch": 70, "duration": 5, "velocity": 60}, {"time": 4118, "pitch": 53, "duration": 39, "velocity": 57}, {"time": 4118, "pitch": 61, "duration": 31, "velocity": 57}, {"time": 4118, "pitch": 65, "duration": 6, "velocity": 60}, {"time": 4118, "pitch": 68, "duration": 7, "velocity": 58}, {"time": 4130, "pitch": 65, "duration": 14, "velocity": 46}, {"time": 4136, "pitch": 73, "duration": 20, "velocity": 61}, {"time": 4148, "pitch": 65, "duration": 8, "velocity": 67}, {"time": 4148, "pitch": 72, "duration": 7, "velocity": 72}, {"time": 4154, "pitch": 61, "duration": 2, "velocity": 62}, {"time": 4160, "pitch": 68, "duration": 6, "velocity": 63}, {"time": 4166, "pitch": 51, "duration": 37, "velocity": 66}, {"time": 4166, "pitch": 61, "duration": 8, "velocity": 48}, {"time": 4166, "pitch": 66, "duration": 9, "velocity": 59}, {"time": 4166, "pitch": 70, "duration": 8, "velocity": 49}, {"time": 4172, "pitch": 58, "duration": 16, "velocity": 59}, {"time": 4178, "pitch": 61, "duration": 8, "velocity": 54}, {"time": 4184, "pitch": 66, "duration": 10, "velocity": 67}, {"time": 4184, "pitch": 70, "duration": 11, "velocity": 61}, {"time": 4196, "pitch": 58, "duration": 7, "velocity": 55}, {"time": 4202, "pitch": 61, "duration": 2, "velocity": 72}, {"time": 4202, "pitch": 66, "duration": 1, "velocity": 66}, {"time": 4202, "pitch": 70, "duration": 2, "velocity": 61}, {"time": 4214, "pitch": 41, "duration": 67, "velocity": 72}, {"time": 4214, "pitch": 57, "duration": 8, "velocity": 70}, {"time": 4214, "pitch": 60, "duration": 7, "velocity": 73}, {"time": 4214, "pitch": 65, "duration": 8, "velocity": 63}, {"time": 4220, "pitch": 53, "duration": 18, "velocity": 53}, {"time": 4226, "pitch": 57, "duration": 6, "velocity": 66}, {"time": 4232, "pitch": 60, "duration": 7, "velocity": 73}, {"time": 4238, "pitch": 63, "duration": 5, "velocity": 69}, {"time": 4244, "pitch": 65, "duration": 7, "velocity": 59}, {"time": 4250, "pitch": 70, "duration": 5, "velocity": 37}, {"time": 4256, "pitch": 72, "duration": 6, "velocity": 70}, {"time": 4262, "pitch": 53, "duration": 18, "velocity": 54}, {"time": 4262, "pitch": 65, "duration": 19, "velocity": 50}, {"time": 4262, "pitch": 69, "duration": 19, "velocity": 59}, {"time": 4262, "pitch": 77, "duration": 18, "velocity": 46}, {"time": 4310, "pitch": 46, "duration": 37, "velocity": 64}, {"time": 4310, "pitch": 65, "duration": 7, "velocity": 49}, {"time": 4310, "pitch": 70, "duration": 7, "velocity": 57}, {"time": 4310, "pitch": 73, "duration": 7, "velocity": 56}, {"time": 4322, "pitch": 65, "duration": 6, "velocity": 38}, {"time": 4322, "pitch": 70, "duration": 6, "velocity": 40}, {"time": 4322, "pitch": 73, "duration": 7, "velocity": 41}, {"time": 4328, "pitch": 58, "duration": 14, "velocity": 35}, {"time": 4334, "pitch": 65, "duration": 14, "velocity": 44}, {"time": 4340, "pitch": 70, "duration": 7, "velocity": 43}, {"time": 4346, "pitch": 58, "duration": 2, "velocity": 49}, {"time": 4346, "pitch": 73, "duration": 7, "velocity": 62}, {"time": 4352, "pitch": 72, "duration": 3, "velocity": 46}, {"time": 4358, "pitch": 53, "duration": 43, "velocity": 57}, {"time": 4358, "pitch": 63, "duration": 8, "velocity": 49}, {"time": 4358, "pitch": 68, "duration": 8, "velocity": 51}, {"time": 4358, "pitch": 72, "duration": 8, "velocity": 44}, {"time": 4364, "pitch": 60, "duration": 18, "velocity": 48}, {"time": 4370, "pitch": 63, "duration": 14, "velocity": 36}, {"time": 4376, "pitch": 68, "duration": 11, "velocity": 56}, {"time": 4376, "pitch": 72, "duration": 12, "velocity": 47}, {"time": 4388, "pitch": 60, "duration": 13, "velocity": 44}, {"time": 4394, "pitch": 63, "duration": 4, "velocity": 59}, {"time": 4397, "pitch": 68, "duration": 5, "velocity": 53}, {"time": 4400, "pitch": 70, "duration": 3, "velocity": 61}, {"time": 4406, "pitch": 54, "duration": 24, "velocity": 58}, {"time": 4406, "pitch": 61, "duration": 9, "velocity": 61}, {"time": 4406, "pitch": 66, "duration": 11, "velocity": 62}, {"time": 4406, "pitch": 70, "duration": 12, "velocity": 49}, {"time": 4418, "pitch": 61, "duration": 6, "velocity": 53}, {"time": 4418, "pitch": 68, "duration": 5, "velocity": 57}, {"time": 4424, "pitch": 70, "duration": 5, "velocity": 66}, {"time": 4430, "pitch": 56, "duration": 12, "velocity": 54}, {"time": 4430, "pitch": 63, "duration": 8, "velocity": 53}, {"time": 4430, "pitch": 68, "duration": 10, "velocity": 61}, {"time": 4442, "pitch": 66, "duration": 4, "velocity": 59}, {"time": 4448, "pitch": 63, "duration": 14, "velocity": 57}, {"time": 4448, "pitch": 65, "duration": 14, "velocity": 73}, {"time": 4448, "pitch": 68, "duration": 16, "velocity": 64}, {"time": 4454, "pitch": 49, "duration": 42, "velocity": 58}, {"time": 4460, "pitch": 56, "duration": 31, "velocity": 63}, {"time": 4466, "pitch": 61, "duration": 10, "velocity": 52}, {"time": 4472, "pitch": 63, "duration": 11, "velocity": 59}, {"time": 4472, "pitch": 65, "duration": 12, "velocity": 62}, {"time": 4472, "pitch": 68, "duration": 8, "velocity": 45}, {"time": 4484, "pitch": 61, "duration": 7, "velocity": 39}, {"time": 4490, "pitch": 63, "duration": 5, "velocity": 55}, {"time": 4490, "pitch": 65, "duration": 5, "velocity": 63}, {"time": 4490, "pitch": 68, "duration": 8, "velocity": 63}, {"time": 4496, "pitch": 56, "duration": 6, "velocity": 53}, {"time": 4502, "pitch": 51, "duration": 41, "velocity": 62}, {"time": 4502, "pitch": 61, "duration": 8, "velocity": 59}, {"time": 4502, "pitch": 66, "duration": 9, "velocity": 44}, {"time": 4502, "pitch": 70, "duration": 9, "velocity": 58}, {"time": 4508, "pitch": 58, "duration": 12, "velocity": 55}, {"time": 4514, "pitch": 61, "duration": 4, "velocity": 55}, {"time": 4520, "pitch": 66, "duration": 9, "velocity": 61}, {"time": 4520, "pitch": 70, "duration": 10, "velocity": 49}, {"time": 4532, "pitch": 58, "duration": 5, "velocity": 58}, {"time": 4538, "pitch": 70, "duration": 6, "velocity": 46}, {"time": 4544, "pitch": 72, "duration": 5, "velocity": 53}, {"time": 4550, "pitch": 46, "duration": 32, "velocity": 54}, {"time": 4550, "pitch": 65, "duration": 10, "velocity": 57}, {"time": 4550, "pitch": 70, "duration": 14, "velocity": 55}, {"time": 4550, "pitch": 73, "duration": 12, "velocity": 61}, {"time": 4556, "pitch": 53, "duration": 27, "velocity": 38}, {"time": 4562, "pitch": 58, "duration": 9, "velocity": 47}, {"time": 4568, "pitch": 65, "duration": 11, "velocity": 60}, {"time": 4568, "pitch": 73, "duration": 14, "velocity": 56}, {"time": 4580, "pitch": 58, "duration": 3, "velocity": 43}, {"time": 4586, "pitch": 44, "duration": 9, "velocity": 40}, {"time": 4586, "pitch": 63, "duration": 5, "velocity": 53}, {"time": 4586, "pitch": 72, "duration": 8, "velocity": 60}, {"time": 4598, "pitch": 42, "duration": 15, "velocity": 53}, {"time": 4598, "pitch": 61, "duration": 10, "velocity": 62}, {"time": 4598, "pitch": 66, "duration": 10, "velocity": 62}, {"time": 4598, "pitch": 70, "duration": 12, "velocity": 61}, {"time": 4604, "pitch": 49, "duration": 11, "velocity": 48}, {"time": 4610, "pitch": 54, "duration": 4, "velocity": 46}, {"time": 4616, "pitch": 61, "duration": 2, "velocity": 49}, {"time": 4616, "pitch": 70, "duration": 5, "velocity": 51}, {"time": 4622, "pitch": 41, "duration": 10, "velocity": 50}, {"time": 4622, "pitch": 63, "duration": 7, "velocity": 49}, {"time": 4622, "pitch": 68, "duration": 7, "velocity": 61}, {"time": 4628, "pitch": 53, "duration": 7, "velocity": 39}, {"time": 4634, "pitch": 63, "duration": 4, "velocity": 48}, {"time": 4640, "pitch": 68, "duration": 4, "velocity": 55}, {"time": 4646, "pitch": 46, "duration": 42, "velocity": 63}, {"time": 4646, "pitch": 61, "duration": 12, "velocity": 51}, {"time": 4646, "pitch": 65, "duration": 12, "velocity": 59}, {"time": 4652, "pitch": 53, "duration": 29, "velocity": 48}, {"time": 4658, "pitch": 58, "duration": 16, "velocity": 55}, {"time": 4664, "pitch": 60, "duration": 7, "velocity": 58}, {"time": 4670, "pitch": 61, "duration": 3, "velocity": 69}, {"time": 4676, "pitch": 65, "duration": 4, "velocity": 62}, {"time": 4682, "pitch": 58, "duration": 5, "velocity": 46}, {"time": 4682, "pitch": 73, "duration": 5, "velocity": 63}, {"time": 4688, "pitch": 53, "duration": 5, "velocity": 59}, {"time": 4688, "pitch": 72, "duration": 6, "velocity": 61}, {"time": 4694, "pitch": 46, "duration": 17, "velocity": 62}, {"time": 4694, "pitch": 65, "duration": 15, "velocity": 52}, {"time": 4694, "pitch": 70, "duration": 16, "velocity": 61}, {"time": 4742, "pitch": 58, "duration": 23, "velocity": 75}, {"time": 4742, "pitch": 60, "duration": 8, "velocity": 73}, {"time": 4742, "pitch": 61, "duration": 9, "velocity": 82}, {"time": 4742, "pitch": 65, "duration": 8, "velocity": 67}, {"time": 4751, "pitch": 60, "duration": 2, "velocity": 66}, {"time": 4751, "pitch": 63, "duration": 2, "velocity": 73}, {"time": 4760, "pitch": 60, "duration": 12, "velocity": 70}, {"time": 4760, "pitch": 61, "duration": 12, "velocity": 72}, {"time": 4760, "pitch": 65, "duration": 12, "velocity": 73}, {"time": 4760, "pitch": 68, "duration": 12, "velocity": 60}, {"time": 4772, "pitch": 58, "duration": 7, "velocity": 56}, {"time": 4778, "pitch": 60, "duration": 4, "velocity": 82}, {"time": 4778, "pitch": 61, "duration": 5, "velocity": 85}, {"time": 4778, "pitch": 65, "duration": 5, "velocity": 70}, {"time": 4778, "pitch": 68, "duration": 1, "velocity": 63}, {"time": 4790, "pitch": 60, "duration": 6, "velocity": 75}, {"time": 4790, "pitch": 65, "duration": 7, "velocity": 78}, {"time": 4790, "pitch": 68, "duration": 5, "velocity": 63}, {"time": 4799, "pitch": 60, "duration": 1, "velocity": 58}, {"time": 4799, "pitch": 61, "duration": 1, "velocity": 70}, {"time": 4799, "pitch": 65, "duration": 1, "velocity": 67}, {"time": 4799, "pitch": 68, "duration": 1, "velocity": 44}, {"time": 4802, "pitch": 56, "duration": 2, "velocity": 53}, {"time": 4808, "pitch": 60, "duration": 12, "velocity": 66}, {"time": 4808, "pitch": 61, "duration": 12, "velocity": 64}, {"time": 4808, "pitch": 65, "duration": 11, "velocity": 57}, {"time": 4808, "pitch": 68, "duration": 12, "velocity": 52}, {"time": 4826, "pitch": 60, "duration": 8, "velocity": 88}, {"time": 4826, "pitch": 63, "duration": 6, "velocity": 95}, {"time": 4826, "pitch": 68, "duration": 8, "velocity": 76}, {"time": 4832, "pitch": 63, "duration": 4, "velocity": 33}, {"time": 4838, "pitch": 56, "duration": 1, "velocity": 50}, {"time": 4838, "pitch": 58, "duration": 7, "velocity": 73}, {"time": 4838, "pitch": 61, "duration": 7, "velocity": 72}, {"time": 4838, "pitch": 66, "duration": 7, "velocity": 80}, {"time": 4847, "pitch": 58, "duration": 1, "velocity": 75}, {"time": 4847, "pitch": 61, "duration": 1, "velocity": 78}, {"time": 4847, "pitch": 66, "duration": 1, "velocity": 70}, {"time": 4856, "pitch": 58, "duration": 12, "velocity": 76}, {"time": 4856, "pitch": 61, "duration": 12, "velocity": 80}, {"time": 4856, "pitch": 65, "duration": 12, "velocity": 72}, {"time": 4856, "pitch": 66, "duration": 12, "velocity": 54}, {"time": 4874, "pitch": 58, "duration": 4, "velocity": 82}, {"time": 4874, "pitch": 61, "duration": 4, "velocity": 97}, {"time": 4874, "pitch": 65, "duration": 4, "velocity": 88}, {"time": 4874, "pitch": 66, "duration": 2, "velocity": 70}, {"time": 4886, "pitch": 56, "duration": 6, "velocity": 78}, {"time": 4886, "pitch": 60, "duration": 6, "velocity": 93}, {"time": 4886, "pitch": 65, "duration": 6, "velocity": 69}, {"time": 4895, "pitch": 56, "duration": 1, "velocity": 67}, {"time": 4895, "pitch": 60, "duration": 1, "velocity": 72}, {"time": 4895, "pitch": 61, "duration": 1, "velocity": 75}, {"time": 4895, "pitch": 65, "duration": 1, "velocity": 69}, {"time": 4904, "pitch": 56, "duration": 14, "velocity": 60}, {"time": 4904, "pitch": 61, "duration": 14, "velocity": 80}, {"time": 4904, "pitch": 63, "duration": 11, "velocity": 63}, {"time": 4904, "pitch": 65, "duration": 11, "velocity": 76}, {"time": 4922, "pitch": 56, "duration": 4, "velocity": 93}, {"time": 4922, "pitch": 61, "duration": 4, "velocity": 95}, {"time": 4922, "pitch": 65, "duration": 6, "velocity": 93}, {"time": 4928, "pitch": 63, "duration": 5, "velocity": 59}, {"time": 4931, "pitch": 65, "duration": 2, "velocity": 73}, {"time": 4934, "pitch": 58, "duration": 17, "velocity": 73}, {"time": 4934, "pitch": 61, "duration": 9, "velocity": 82}, {"time": 4934, "pitch": 66, "duration": 8, "velocity": 73}, {"time": 4952, "pitch": 58, "duration": 14, "velocity": 69}, {"time": 4952, "pitch": 61, "duration": 13, "velocity": 78}, {"time": 4952, "pitch": 66, "duration": 13, "velocity": 75}, {"time": 4970, "pitch": 58, "duration": 6, "velocity": 93}, {"time": 4970, "pitch": 61, "duration": 7, "velocity": 97}, {"time": 4970, "pitch": 66, "duration": 5, "velocity": 69}, {"time": 4976, "pitch": 63, "duration": 4, "velocity": 60}, {"time": 4979, "pitch": 65, "duration": 1, "velocity": 44}, {"time": 4979, "pitch": 68, "duration": 4, "velocity": 69}, {"time": 4982, "pitch": 58, "duration": 22, "velocity": 61}, {"time": 4982, "pitch": 61, "duration": 6, "velocity": 64}, {"time": 4982, "pitch": 61, "duration": 6, "velocity": 70}, {"time": 4982, "pitch": 65, "duration": 7, "velocity": 66}, {"time": 4982, "pitch": 65, "duration": 7, "velocity": 78}, {"time": 4982, "pitch": 70, "duration": 14, "velocity": 67}, {"time": 5000, "pitch": 61, "duration": 13, "velocity": 61}, {"time": 5000, "pitch": 65, "duration": 13, "velocity": 61}, {"time": 5000, "pitch": 70, "duration": 13, "velocity": 61}, {"time": 5012, "pitch": 58, "duration": 9, "velocity": 48}, {"time": 5018, "pitch": 61, "duration": 5, "velocity": 82}, {"time": 5018, "pitch": 65, "duration": 2, "velocity": 76}, {"time": 5018, "pitch": 70, "duration": 3, "velocity": 76}, {"time": 5030, "pitch": 58, "duration": 11, "velocity": 73}, {"time": 5030, "pitch": 61, "duration": 12, "velocity": 70}, {"time": 5030, "pitch": 66, "duration": 11, "velocity": 75}, {"time": 5048, "pitch": 56, "duration": 13, "velocity": 61}, {"time": 5048, "pitch": 60, "duration": 12, "velocity": 67}, {"time": 5048, "pitch": 63, "duration": 11, "velocity": 70}, {"time": 5066, "pitch": 56, "duration": 7, "velocity": 66}, {"time": 5066, "pitch": 60, "duration": 5, "velocity": 70}, {"time": 5066, "pitch": 63, "duration": 9, "velocity": 73}, {"time": 5078, "pitch": 61, "duration": 9, "velocity": 80}, {"time": 5078, "pitch": 65, "duration": 9, "velocity": 82}, {"time": 5090, "pitch": 60, "duration": 5, "velocity": 64}, {"time": 5090, "pitch": 63, "duration": 5, "velocity": 70}, {"time": 5096, "pitch": 58, "duration": 18, "velocity": 78}, {"time": 5096, "pitch": 60, "duration": 1, "velocity": 48}, {"time": 5096, "pitch": 61, "duration": 5, "velocity": 76}, {"time": 5096, "pitch": 65, "duration": 7, "velocity": 76}, {"time": 5114, "pitch": 65, "duration": 7, "velocity": 78}, {"time": 5114, "pitch": 73, "duration": 7, "velocity": 82}, {"time": 5120, "pitch": 72, "duration": 5, "velocity": 62}, {"time": 5126, "pitch": 65, "duration": 8, "velocity": 72}, {"time": 5126, "pitch": 70, "duration": 10, "velocity": 66}, {"time": 5126, "pitch": 73, "duration": 10, "velocity": 70}, {"time": 5135, "pitch": 65, "duration": 3, "velocity": 64}, {"time": 5135, "pitch": 72, "duration": 4, "velocity": 67}, {"time": 5138, "pitch": 58, "duration": 9, "velocity": 51}, {"time": 5144, "pitch": 65, "duration": 4, "velocity": 69}, {"time": 5144, "pitch": 70, "duration": 4, "velocity": 66}, {"time": 5144, "pitch": 73, "duration": 4, "velocity": 69}, {"time": 5156, "pitch": 58, "duration": 9, "velocity": 58}, {"time": 5162, "pitch": 60, "duration": 2, "velocity": 73}, {"time": 5162, "pitch": 61, "duration": 2, "velocity": 85}, {"time": 5162, "pitch": 65, "duration": 5, "velocity": 78}, {"time": 5168, "pitch": 63, "duration": 2, "velocity": 37}, {"time": 5174, "pitch": 60, "duration": 6, "velocity": 76}, {"time": 5174, "pitch": 65, "duration": 7, "velocity": 72}, {"time": 5174, "pitch": 68, "duration": 6, "velocity": 69}, {"time": 5183, "pitch": 60, "duration": 2, "velocity": 78}, {"time": 5183, "pitch": 63, "duration": 2, "velocity": 72}, {"time": 5192, "pitch": 56, "duration": 7, "velocity": 62}, {"time": 5192, "pitch": 60, "duration": 12, "velocity": 63}, {"time": 5192, "pitch": 63, "duration": 7, "velocity": 64}, {"time": 5210, "pitch": 56, "duration": 3, "velocity": 80}, {"time": 5210, "pitch": 60, "duration": 4, "velocity": 85}, {"time": 5210, "pitch": 63, "duration": 4, "velocity": 76}, {"time": 5222, "pitch": 58, "duration": 7, "velocity": 80}, {"time": 5222, "pitch": 61, "duration": 7, "velocity": 85}, {"time": 5222, "pitch": 66, "duration": 7, "velocity": 62}, {"time": 5231, "pitch": 58, "duration": 3, "velocity": 67}, {"time": 5231, "pitch": 65, "duration": 2, "velocity": 67}, {"time": 5240, "pitch": 58, "duration": 8, "velocity": 58}, {"time": 5240, "pitch": 61, "duration": 8, "velocity": 60}, {"time": 5240, "pitch": 66, "duration": 12, "velocity": 76}, {"time": 5249, "pitch": 58, "duration": 2, "velocity": 55}, {"time": 5249, "pitch": 61, "duration": 2, "velocity": 51}, {"time": 5258, "pitch": 58, "duration": 4, "velocity": 70}, {"time": 5258, "pitch": 61, "duration": 4, "velocity": 72}, {"time": 5258, "pitch": 66, "duration": 3, "velocity": 70}, {"time": 5270, "pitch": 56, "duration": 7, "velocity": 82}, {"time": 5270, "pitch": 61, "duration": 7, "velocity": 80}, {"time": 5270, "pitch": 65, "duration": 6, "velocity": 73}, {"time": 5279, "pitch": 56, "duration": 2, "velocity": 58}, {"time": 5279, "pitch": 61, "duration": 2, "velocity": 64}, {"time": 5279, "pitch": 63, "duration": 2, "velocity": 56}, {"time": 5279, "pitch": 65, "duration": 2, "velocity": 57}, {"time": 5288, "pitch": 56, "duration": 5, "velocity": 82}, {"time": 5288, "pitch": 61, "duration": 5, "velocity": 88}, {"time": 5288, "pitch": 65, "duration": 5, "velocity": 75}, {"time": 5297, "pitch": 56, "duration": 2, "velocity": 72}, {"time": 5297, "pitch": 61, "duration": 2, "velocity": 73}, {"time": 5297, "pitch": 65, "duration": 2, "velocity": 62}, {"time": 5306, "pitch": 56, "duration": 4, "velocity": 75}, {"time": 5306, "pitch": 61, "duration": 4, "velocity": 85}, {"time": 5306, "pitch": 65, "duration": 8, "velocity": 73}, {"time": 5318, "pitch": 58, "duration": 6, "velocity": 78}, {"time": 5318, "pitch": 63, "duration": 6, "velocity": 93}, {"time": 5318, "pitch": 66, "duration": 5, "velocity": 73}, {"time": 5327, "pitch": 58, "duration": 5, "velocity": 64}, {"time": 5327, "pitch": 65, "duration": 7, "velocity": 75}, {"time": 5336, "pitch": 58, "duration": 4, "velocity": 75}, {"time": 5336, "pitch": 61, "duration": 7, "velocity": 78}, {"time": 5336, "pitch": 66, "duration": 7, "velocity": 80}, {"time": 5354, "pitch": 65, "duration": 4, "velocity": 70}, {"time": 5354, "pitch": 73, "duration": 5, "velocity": 73}, {"time": 5360, "pitch": 70, "duration": 5, "velocity": 67}, {"time": 5360, "pitch": 72, "duration": 4, "velocity": 61}, {"time": 5366, "pitch": 65, "duration": 5, "velocity": 73}, {"time": 5366, "pitch": 68, "duration": 7, "velocity": 73}, {"time": 5366, "pitch": 73, "duration": 7, "velocity": 66}, {"time": 5375, "pitch": 65, "duration": 3, "velocity": 66}, {"time": 5375, "pitch": 72, "duration": 2, "velocity": 45}, {"time": 5378, "pitch": 58, "duration": 9, "velocity": 52}, {"time": 5384, "pitch": 63, "duration": 5, "velocity": 63}, {"time": 5384, "pitch": 68, "duration": 11, "velocity": 55}, {"time": 5396, "pitch": 65, "duration": 2, "velocity": 72}, {"time": 5396, "pitch": 70, "duration": 3, "velocity": 72}, {"time": 5402, "pitch": 58, "duration": 5, "velocity": 52}, {"time": 5405, "pitch": 63, "duration": 2, "velocity": 73}, {"time": 5405, "pitch": 68, "duration": 6, "velocity": 73}, {"time": 5414, "pitch": 58, "duration": 10, "velocity": 76}, {"time": 5414, "pitch": 61, "duration": 10, "velocity": 67}, {"time": 5414, "pitch": 65, "duration": 8, "velocity": 70}, {"time": 5429, "pitch": 58, "duration": 3, "velocity": 54}, {"time": 5432, "pitch": 61, "duration": 4, "velocity": 63}, {"time": 5438, "pitch": 60, "duration": 9, "velocity": 76}, {"time": 5438, "pitch": 63, "duration": 6, "velocity": 72}, {"time": 5438, "pitch": 68, "duration": 7, "velocity": 75}, {"time": 5450, "pitch": 60, "duration": 2, "velocity": 70}, {"time": 5450, "pitch": 63, "duration": 2, "velocity": 85}, {"time": 5450, "pitch": 68, "duration": 1, "velocity": 61}, {"time": 5456, "pitch": 61, "duration": 13, "velocity": 88}, {"time": 5456, "pitch": 65, "duration": 9, "velocity": 85}, {"time": 5474, "pitch": 58, "duration": 8, "velocity": 75}, {"time": 5477, "pitch": 60, "duration": 3, "velocity": 75}, {"time": 5480, "pitch": 61, "duration": 2, "velocity": 73}, {"time": 5483, "pitch": 65, "duration": 4, "velocity": 66}, {"time": 5486, "pitch": 73, "duration": 7, "velocity": 75}, {"time": 5492, "pitch": 72, "duration": 6, "velocity": 66}, {"time": 5498, "pitch": 68, "duration": 4, "velocity": 55}, {"time": 5504, "pitch": 61, "duration": 3, "velocity": 49}, {"time": 5510, "pitch": 61, "duration": 6, "velocity": 60}, {"time": 5510, "pitch": 65, "duration": 7, "velocity": 63}, {"time": 5510, "pitch": 70, "duration": 6, "velocity": 66}, {"time": 5519, "pitch": 61, "duration": 1, "velocity": 54}, {"time": 5519, "pitch": 65, "duration": 1, "velocity": 56}, {"time": 5519, "pitch": 70, "duration": 1, "velocity": 53}, {"time": 5522, "pitch": 58, "duration": 8, "velocity": 51}, {"time": 5528, "pitch": 61, "duration": 13, "velocity": 58}, {"time": 5528, "pitch": 65, "duration": 13, "velocity": 63}, {"time": 5528, "pitch": 70, "duration": 13, "velocity": 59}, {"time": 5540, "pitch": 58, "duration": 8, "velocity": 53}, {"time": 5546, "pitch": 61, "duration": 4, "velocity": 66}, {"time": 5546, "pitch": 65, "duration": 8, "velocity": 64}, {"time": 5546, "pitch": 70, "duration": 8, "velocity": 75}, {"time": 5558, "pitch": 60, "duration": 6, "velocity": 76}, {"time": 5558, "pitch": 65, "duration": 6, "velocity": 76}, {"time": 5558, "pitch": 68, "duration": 6, "velocity": 64}, {"time": 5567, "pitch": 60, "duration": 2, "velocity": 56}, {"time": 5567, "pitch": 65, "duration": 1, "velocity": 55}, {"time": 5567, "pitch": 68, "duration": 2, "velocity": 56}, {"time": 5576, "pitch": 56, "duration": 14, "velocity": 69}, {"time": 5576, "pitch": 60, "duration": 13, "velocity": 67}, {"time": 5576, "pitch": 63, "duration": 3, "velocity": 60}, {"time": 5594, "pitch": 56, "duration": 3, "velocity": 69}, {"time": 5594, "pitch": 60, "duration": 3, "velocity": 69}, {"time": 5594, "pitch": 63, "duration": 3, "velocity": 80}, {"time": 5606, "pitch": 58, "duration": 7, "velocity": 75}, {"time": 5606, "pitch": 61, "duration": 7, "velocity": 75}, {"time": 5606, "pitch": 66, "duration": 6, "velocity": 76}, {"time": 5615, "pitch": 58, "duration": 6, "velocity": 63}, {"time": 5615, "pitch": 61, "duration": 5, "velocity": 70}, {"time": 5615, "pitch": 66, "duration": 3, "velocity": 69}, {"time": 5624, "pitch": 61, "duration": 2, "velocity": 39}, {"time": 5630, "pitch": 56, "duration": 5, "velocity": 73}, {"time": 5630, "pitch": 60, "duration": 7, "velocity": 61}, {"time": 5630, "pitch": 63, "duration": 7, "velocity": 66}, {"time": 5630, "pitch": 68, "duration": 7, "velocity": 49}, {"time": 5636, "pitch": 56, "duration": 6, "velocity": 48}, {"time": 5642, "pitch": 60, "duration": 3, "velocity": 70}, {"time": 5642, "pitch": 63, "duration": 3, "velocity": 78}, {"time": 5642, "pitch": 68, "duration": 2, "velocity": 62}, {"time": 5654, "pitch": 56, "duration": 6, "velocity": 60}, {"time": 5654, "pitch": 61, "duration": 7, "velocity": 64}, {"time": 5654, "pitch": 65, "duration": 7, "velocity": 63}, {"time": 5663, "pitch": 56, "duration": 2, "velocity": 62}, {"time": 5663, "pitch": 61, "duration": 1, "velocity": 60}, {"time": 5663, "pitch": 65, "duration": 1, "velocity": 61}, {"time": 5672, "pitch": 56, "duration": 14, "velocity": 52}, {"time": 5672, "pitch": 61, "duration": 13, "velocity": 70}, {"time": 5672, "pitch": 65, "duration": 11, "velocity": 61}, {"time": 5690, "pitch": 56, "duration": 7, "velocity": 91}, {"time": 5690, "pitch": 61, "duration": 8, "velocity": 91}, {"time": 5690, "pitch": 65, "duration": 10, "velocity": 78}, {"time": 5702, "pitch": 58, "duration": 11, "velocity": 78}, {"time": 5702, "pitch": 61, "duration": 7, "velocity": 75}, {"time": 5702, "pitch": 66, "duration": 7, "velocity": 73}, {"time": 5714, "pitch": 61, "duration": 6, "velocity": 70}, {"time": 5720, "pitch": 58, "duration": 14, "velocity": 76}, {"time": 5720, "pitch": 66, "duration": 13, "velocity": 73}, {"time": 5738, "pitch": 58, "duration": 10, "velocity": 97}, {"time": 5738, "pitch": 66, "duration": 13, "velocity": 67}, {"time": 5750, "pitch": 58, "duration": 4, "velocity": 70}, {"time": 5750, "pitch": 61, "duration": 7, "velocity": 80}, {"time": 5750, "pitch": 65, "duration": 7, "velocity": 61}, {"time": 5759, "pitch": 60, "duration": 6, "velocity": 76}, {"time": 5759, "pitch": 63, "duration": 7, "velocity": 75}, {"time": 5768, "pitch": 61, "duration": 2, "velocity": 73}, {"time": 5768, "pitch": 65, "duration": 2, "velocity": 75}, {"time": 5774, "pitch": 58, "duration": 5, "velocity": 44}, {"time": 5774, "pitch": 65, "duration": 5, "velocity": 85}, {"time": 5780, "pitch": 70, "duration": 5, "velocity": 93}, {"time": 5786, "pitch": 72, "duration": 5, "velocity": 63}, {"time": 5792, "pitch": 73, "duration": 20, "velocity": 64}, {"time": 5795, "pitch": 61, "duration": 4, "velocity": 48}, {"time": 5798, "pitch": 66, "duration": 13, "velocity": 75}, {"time": 5798, "pitch": 70, "duration": 13, "velocity": 67}, {"time": 5816, "pitch": 61, "duration": 3, "velocity": 47}, {"time": 5816, "pitch": 73, "duration": 5, "velocity": 12}, {"time": 5822, "pitch": 68, "duration": 13, "velocity": 72}, {"time": 5822, "pitch": 72, "duration": 13, "velocity": 62}, {"time": 5834, "pitch": 56, "duration": 10, "velocity": 75}, {"time": 5840, "pitch": 63, "duration": 4, "velocity": 69}, {"time": 5840, "pitch": 73, "duration": 1, "velocity": 38}, {"time": 5846, "pitch": 70, "duration": 7, "velocity": 67}, {"time": 5852, "pitch": 72, "duration": 7, "velocity": 63}, {"time": 5858, "pitch": 58, "duration": 7, "velocity": 44}, {"time": 5858, "pitch": 73, "duration": 6, "velocity": 85}, {"time": 5864, "pitch": 60, "duration": 23, "velocity": 58}, {"time": 5864, "pitch": 77, "duration": 3, "velocity": 70}, {"time": 5870, "pitch": 61, "duration": 17, "velocity": 60}, {"time": 5870, "pitch": 82, "duration": 4, "velocity": 66}, {"time": 5876, "pitch": 84, "duration": 3, "velocity": 58}, {"time": 5882, "pitch": 85, "duration": 3, "velocity": 72}, {"time": 5888, "pitch": 85, "duration": 1, "velocity": 37}, {"time": 5888, "pitch": 89, "duration": 6, "velocity": 75}, {"time": 5894, "pitch": 94, "duration": 16, "velocity": 72}], "annotations": [{"time": 91, "annotation": {"number": 64, "value": 127}, "group": "control_change"}, {"time": 129, "annotation": {"number": 64, "value": 0}, "group": "control_change"}, {"time": 133, "annotation": {"number": 64, "value": 127}, "group": "control_change"}, {"time": 182, "annotation": {"number": 64, "value": 0}, "group": "control_change"}, {"time": 186, "annotation": {"number": 64, "value": 127}, "group": "control_change"}, {"time": 229, "annotation": {"number": 64, "value": 0}, "group": "control_change"}, {"time": 234, "annotation": {"number": 64, "value": 127}, "group": "control_change"}, {"time": 276, "annotation": {"number": 64, "value": 0}, "group": "control_change"}, {"time": 282, "annotation": {"number": 64, "value": 127}, "group": "control_change"}, {"time": 325, "annotation": {"number": 64, "value": 0}, "group": "control_change"}, {"time": 329, "annotation": {"number": 64, "value": 127}, "group": "control_change"}, {"time": 375, "annotation": {"number": 64, "value": 0}, "group": "control_change"}, {"time": 378, "annotation": {"number": 64, "value": 127}, "group": "control_change"}, {"time": 400, "annotation": {"number": 64, "value": 0}, "group": "control_change"}, {"time": 403, "annotation": {"number": 64, "value": 127}, "group": "control_change"}, {"time": 421, "annotation": {"number": 64, "value": 0}, "group": "control_change"}, {"time": 424, "annotation": {"number": 64, "value": 127}, "group": "control_change"}, {"time": 469, "annotation": {"number": 64, "value": 0}, "group": "control_change"}, {"time": 518, "annotation": {"number": 64, "value": 127}, "group": "control_change"}, {"time": 567, "annotation": {"number": 64, "value": 0}, "group": "control_change"}, {"time": 571, "annotation": {"number": 64, "value": 127}, "group": "control_change"}, {"time": 612, "annotation": {"number": 64, "value": 0}, "group": "control_change"}, {"time": 616, "annotation": {"number": 64, "value": 127}, "group": "control_change"}, {"time": 663, "annotation": {"number": 64, "value": 0}, "group": "control_change"}, {"time": 667, "annotation": {"number": 64, "value": 127}, "group": "control_change"}, {"time": 709, "annotation": {"number": 64, "value": 0}, "group": "control_change"}, {"time": 713, "annotation": {"number": 64, "value": 127}, "group": "control_change"}, {"time": 758, "annotation": {"number": 64, "value": 0}, "group": "control_change"}, {"time": 759, "annotation": {"number": 64, "value": 127}, "group": "control_change"}, {"time": 807, "annotation": {"number": 64, "value": 0}, "group": "control_change"}, {"time": 811, "annotation": {"number": 64, "value": 127}, "group": "control_change"}, {"time": 830, "annotation": {"number": 64, "value": 0}, "group": "control_change"}, {"time": 835, "annotation": {"number": 64, "value": 127}, "group": "control_change"}, {"time": 852, "annotation": {"number": 64, "value": 0}, "group": "control_change"}, {"time": 856, "annotation": {"number": 64, "value": 127}, "group": "control_change"}, {"time": 937, "annotation": {"number": 64, "value": 0}, "group": "control_change"}, {"time": 951, "annotation": {"number": 64, "value": 127}, "group": "control_change"}, {"time": 1000, "annotation": {"number": 64, "value": 0}, "group": "control_change"}, {"time": 1004, "annotation": {"number": 64, "value": 127}, "group": "control_change"}, {"time": 1045, "annotation": {"number": 64, "value": 0}, "group": "control_change"}, {"time": 1049, "annotation": {"number": 64, "value": 127}, "group": "control_change"}, {"time": 1071, "annotation": {"number": 64, "value": 0}, "group": "control_change"}, {"time": 1074, "annotation": {"number": 64, "value": 127}, "group": "control_change"}, {"time": 1094, "annotation": {"number": 64, "value": 0}, "group": "control_change"}, {"time": 1099, "annotation": {"number": 64, "value": 127}, "group": "control_change"}, {"time": 1144, "annotation": {"number": 64, "value": 0}, "group": "control_change"}, {"time": 1150, "annotation": {"number": 64, "value": 127}, "group": "control_change"}, {"time": 1192, "annotation": {"number": 64, "value": 0}, "group": "control_change"}, {"time": 1198, "annotation": {"number": 64, "value": 127}, "group": "control_change"}, {"time": 1240, "annotation": {"number": 64, "value": 0}, "group": "control_change"}, {"time": 1244, "annotation": {"number": 64, "value": 127}, "group": "control_change"}, {"time": 1263, "annotation": {"number": 64, "value": 0}, "group": "control_change"}, {"time": 1267, "annotation": {"number": 64, "value": 127}, "group": "control_change"}, {"time": 1287, "annotation": {"number": 64, "value": 0}, "group": "control_change"}, {"time": 1291, "annotation": {"number": 64, "value": 127}, "group": "control_change"}, {"time": 1335, "annotation": {"number": 64, "value": 0}, "group": "control_change"}, {"time": 1339, "annotation": {"number": 64, "value": 127}, "group": "control_change"}, {"time": 1381, "annotation": {"number": 64, "value": 0}, "group": "control_change"}, {"time": 1383, "annotation": {"number": 64, "value": 127}, "group": "control_change"}, {"time": 1432, "annotation": {"number": 64, "value": 0}, "group": "control_change"}, {"time": 1436, "annotation": {"number": 64, "value": 127}, "group": "control_change"}, {"time": 1481, "annotation": {"number": 64, "value": 0}, "group": "control_change"}, {"time": 1485, "annotation": {"number": 64, "value": 127}, "group": "control_change"}, {"time": 1529, "annotation": {"number": 64, "value": 0}, "group": "control_change"}, {"time": 1533, "annotation": {"number": 64, "value": 127}, "group": "control_change"}, {"time": 1576, "annotation": {"number": 64, "value": 0}, "group": "control_change"}, {"time": 1580, "annotation": {"number": 64, "value": 127}, "group": "control_change"}, {"time": 1623, "annotation": {"number": 64, "value": 0}, "group": "control_change"}, {"time": 1628, "annotation": {"number": 64, "value": 127}, "group": "control_change"}, {"time": 1671, "annotation": {"number": 64, "value": 0}, "group": "control_change"}, {"time": 1675, "annotation": {"number": 64, "value": 127}, "group": "control_change"}, {"time": 1718, "annotation": {"number": 64, "value": 0}, "group": "control_change"}, {"time": 1719, "annotation": {"number": 64, "value": 127}, "group": "control_change"}, {"time": 1766, "annotation": {"number": 64, "value": 0}, "group": "control_change"}, {"time": 1770, "annotation": {"number": 64, "value": 127}, "group": "control_change"}, {"time": 1814, "annotation": {"number": 64, "value": 0}, "group": "control_change"}, {"time": 1818, "annotation": {"number": 64, "value": 127}, "group": "control_change"}, {"time": 1864, "annotation": {"number": 64, "value": 0}, "group": "control_change"}, {"time": 1868, "annotation": {"number": 64, "value": 127}, "group": "control_change"}, {"time": 1910, "annotation": {"number": 64, "value": 0}, "group": "control_change"}, {"time": 1911, "annotation": {"number": 64, "value": 127}, "group": "control_change"}, {"time": 1959, "annotation": {"number": 64, "value": 0}, "group": "control_change"}, {"time": 1962, "annotation": {"number": 64, "value": 127}, "group": "control_change"}, {"time": 2006, "annotation": {"number": 64, "value": 0}, "group": "control_change"}, {"time": 2007, "annotation": {"number": 64, "value": 127}, "group": "control_change"}, {"time": 2054, "annotation": {"number": 64, "value": 0}, "group": "control_change"}, {"time": 2054, "annotation": {"number": 64, "value": 127}, "group": "control_change"}, {"time": 2102, "annotation": {"number": 64, "value": 0}, "group": "control_change"}, {"time": 2106, "annotation": {"number": 64, "value": 127}, "group": "control_change"}, {"time": 2178, "annotation": {"number": 64, "value": 0}, "group": "control_change"}, {"time": 2199, "annotation": {"number": 64, "value": 127}, "group": "control_change"}, {"time": 2248, "annotation": {"number": 64, "value": 0}, "group": "control_change"}, {"time": 2252, "annotation": {"number": 64, "value": 127}, "group": "control_change"}, {"time": 2293, "annotation": {"number": 64, "value": 0}, "group": "control_change"}, {"time": 2297, "annotation": {"number": 64, "value": 127}, "group": "control_change"}, {"time": 2319, "annotation": {"number": 64, "value": 0}, "group": "control_change"}, {"time": 2322, "annotation": {"number": 64, "value": 127}, "group": "control_change"}, {"time": 2342, "annotation": {"number": 64, "value": 0}, "group": "control_change"}, {"time": 2347, "annotation": {"number": 64, "value": 127}, "group": "control_change"}, {"time": 2392, "annotation": {"number": 64, "value": 0}, "group": "control_change"}, {"time": 2398, "annotation": {"number": 64, "value": 127}, "group": "control_change"}, {"time": 2440, "annotation": {"number": 64, "value": 0}, "group": "control_change"}, {"time": 2446, "annotation": {"number": 64, "value": 127}, "group": "control_change"}, {"time": 2488, "annotation": {"number": 64, "value": 0}, "group": "control_change"}, {"time": 2492, "annotation": {"number": 64, "value": 127}, "group": "control_change"}, {"time": 2511, "annotation": {"number": 64, "value": 0}, "group": "control_change"}, {"time": 2515, "annotation": {"number": 64, "value": 127}, "group": "control_change"}, {"time": 2535, "annotation": {"number": 64, "value": 0}, "group": "control_change"}, {"time": 2539, "annotation": {"number": 64, "value": 127}, "group": "control_change"}, {"time": 2583, "annotation": {"number": 64, "value": 0}, "group": "control_change"}, {"time": 2587, "annotation": {"number": 64, "value": 127}, "group": "control_change"}, {"time": 2629, "annotation": {"number": 64, "value": 0}, "group": "control_change"}, {"time": 2629, "annotation": {"number": 64, "value": 127}, "group": "control_change"}, {"time": 2649, "annotation": {"number": 64, "value": 0}, "group": "control_change"}, {"time": 2651, "annotation": {"number": 64, "value": 127}, "group": "control_change"}, {"time": 2678, "annotation": {"number": 64, "value": 0}, "group": "control_change"}, {"time": 2681, "annotation": {"number": 64, "value": 127}, "group": "control_change"}, {"time": 2726, "annotation": {"number": 64, "value": 0}, "group": "control_change"}, {"time": 2730, "annotation": {"number": 64, "value": 127}, "group": "control_change"}, {"time": 2774, "annotation": {"number": 64, "value": 0}, "group": "control_change"}, {"time": 2777, "annotation": {"number": 64, "value": 127}, "group": "control_change"}, {"time": 2821, "annotation": {"number": 64, "value": 0}, "group": "control_change"}, {"time": 2826, "annotation": {"number": 64, "value": 127}, "group": "control_change"}, {"time": 2870, "annotation": {"number": 64, "value": 0}, "group": "control_change"}, {"time": 2874, "annotation": {"number": 64, "value": 127}, "group": "control_change"}, {"time": 2921, "annotation": {"number": 64, "value": 0}, "group": "control_change"}, {"time": 2924, "annotation": {"number": 64, "value": 127}, "group": "control_change"}, {"time": 2965, "annotation": {"number": 64, "value": 0}, "group": "control_change"}, {"time": 2968, "annotation": {"number": 64, "value": 127}, "group": "control_change"}, {"time": 3015, "annotation": {"number": 64, "value": 0}, "group": "control_change"}, {"time": 3018, "annotation": {"number": 64, "value": 127}, "group": "control_change"}, {"time": 3061, "annotation": {"number": 64, "value": 127}, "group": "control_change"}, {"time": 3062, "annotation": {"number": 64, "value": 0}, "group": "control_change"}, {"time": 3066, "annotation": {"number": 64, "value": 127}, "group": "control_change"}, {"time": 3110, "annotation": {"number": 64, "value": 0}, "group": "control_change"}, {"time": 3113, "annotation": {"number": 64, "value": 127}, "group": "control_change"}, {"time": 3157, "annotation": {"number": 64, "value": 0}, "group": "control_change"}, {"time": 3160, "annotation": {"number": 64, "value": 127}, "group": "control_change"}, {"time": 3208, "annotation": {"number": 64, "value": 0}, "group": "control_change"}, {"time": 3212, "annotation": {"number": 64, "value": 127}, "group": "control_change"}, {"time": 3252, "annotation": {"number": 64, "value": 0}, "group": "control_change"}, {"time": 3256, "annotation": {"number": 64, "value": 127}, "group": "control_change"}, {"time": 3301, "annotation": {"number": 64, "value": 0}, "group": "control_change"}, {"time": 3305, "annotation": {"number": 64, "value": 127}, "group": "control_change"}, {"time": 3346, "annotation": {"number": 64, "value": 0}, "group": "control_change"}, {"time": 3350, "annotation": {"number": 64, "value": 127}, "group": "control_change"}, {"time": 3370, "annotation": {"number": 64, "value": 0}, "group": "control_change"}, {"time": 3374, "annotation": {"number": 64, "value": 127}, "group": "control_change"}, {"time": 3388, "annotation": {"number": 64, "value": 0}, "group": "control_change"}, {"time": 3392, "annotation": {"number": 64, "value": 127}, "group": "control_change"}, {"time": 3481, "annotation": {"number": 64, "value": 0}, "group": "control_change"}, {"time": 3491, "annotation": {"number": 64, "value": 0}, "group": "control_change"}, {"time": 3495, "annotation": {"number": 64, "value": 127}, "group": "control_change"}, {"time": 3544, "annotation": {"number": 64, "value": 0}, "group": "control_change"}, {"time": 3548, "annotation": {"number": 64, "value": 127}, "group": "control_change"}, {"time": 3593, "annotation": {"number": 64, "value": 0}, "group": "control_change"}, {"time": 3597, "annotation": {"number": 64, "value": 127}, "group": "control_change"}, {"time": 3641, "annotation": {"number": 64, "value": 0}, "group": "control_change"}, {"time": 3645, "annotation": {"number": 64, "value": 127}, "group": "control_change"}, {"time": 3688, "annotation": {"number": 64, "value": 0}, "group": "control_change"}, {"time": 3692, "annotation": {"number": 64, "value": 127}, "group": "control_change"}, {"time": 3735, "annotation": {"number": 64, "value": 0}, "group": "control_change"}, {"time": 3740, "annotation": {"number": 64, "value": 127}, "group": "control_change"}, {"time": 3783, "annotation": {"number": 64, "value": 0}, "group": "control_change"}, {"time": 3787, "annotation": {"number": 64, "value": 127}, "group": "control_change"}, {"time": 3830, "annotation": {"number": 64, "value": 0}, "group": "control_change"}, {"time": 3831, "annotation": {"number": 64, "value": 127}, "group": "control_change"}, {"time": 3878, "annotation": {"number": 64, "value": 0}, "group": "control_change"}, {"time": 3882, "annotation": {"number": 64, "value": 127}, "group": "control_change"}, {"time": 3926, "annotation": {"number": 64, "value": 0}, "group": "control_change"}, {"time": 3930, "annotation": {"number": 64, "value": 127}, "group": "control_change"}, {"time": 3976, "annotation": {"number": 64, "value": 0}, "group": "control_change"}, {"time": 3980, "annotation": {"number": 64, "value": 127}, "group": "control_change"}, {"time": 4022, "annotation": {"number": 64, "value": 0}, "group": "control_change"}, {"time": 4023, "annotation": {"number": 64, "value": 127}, "group": "control_change"}, {"time": 4071, "annotation": {"number": 64, "value": 0}, "group": "control_change"}, {"time": 4074, "annotation": {"number": 64, "value": 127}, "group": "control_change"}, {"time": 4118, "annotation": {"number": 64, "value": 0}, "group": "control_change"}, {"time": 4119, "annotation": {"number": 64, "value": 127}, "group": "control_change"}, {"time": 4166, "annotation": {"number": 64, "value": 0}, "group": "control_change"}, {"time": 4166, "annotation": {"number": 64, "value": 127}, "group": "control_change"}, {"time": 4214, "annotation": {"number": 64, "value": 0}, "group": "control_change"}, {"time": 4218, "annotation": {"number": 64, "value": 127}, "group": "control_change"}, {"time": 4290, "annotation": {"number": 64, "value": 0}, "group": "control_change"}, {"time": 4311, "annotation": {"number": 64, "value": 127}, "group": "control_change"}, {"time": 4360, "annotation": {"number": 64, "value": 0}, "group": "control_change"}, {"time": 4364, "annotation": {"number": 64, "value": 127}, "group": "control_change"}, {"time": 4405, "annotation": {"number": 64, "value": 0}, "group": "control_change"}, {"time": 4409, "annotation": {"number": 64, "value": 127}, "group": "control_change"}, {"time": 4431, "annotation": {"number": 64, "value": 0}, "group": "control_change"}, {"time": 4434, "annotation": {"number": 64, "value": 127}, "group": "control_change"}, {"time": 4454, "annotation": {"number": 64, "value": 0}, "group": "control_change"}, {"time": 4459, "annotation": {"number": 64, "value": 127}, "group": "control_change"}, {"time": 4504, "annotation": {"number": 64, "value": 0}, "group": "control_change"}, {"time": 4510, "annotation": {"number": 64, "value": 127}, "group": "control_change"}, {"time": 4552, "annotation": {"number": 64, "value": 0}, "group": "control_change"}, {"time": 4558, "annotation": {"number": 64, "value": 127}, "group": "control_change"}, {"time": 4600, "annotation": {"number": 64, "value": 0}, "group": "control_change"}, {"time": 4604, "annotation": {"number": 64, "value": 127}, "group": "control_change"}, {"time": 4623, "annotation": {"number": 64, "value": 0}, "group": "control_change"}, {"time": 4627, "annotation": {"number": 64, "value": 127}, "group": "control_change"}, {"time": 4647, "annotation": {"number": 64, "value": 0}, "group": "control_change"}, {"time": 4651, "annotation": {"number": 64, "value": 127}, "group": "control_change"}, {"time": 4695, "annotation": {"number": 64, "value": 0}, "group": "control_change"}, {"time": 4699, "annotation": {"number": 64, "value": 127}, "group": "control_change"}, {"time": 4741, "annotation": {"number": 64, "value": 0}, "group": "control_change"}, {"time": 4743, "annotation": {"number": 64, "value": 127}, "group": "control_change"}, {"time": 4758, "annotation": {"number": 64, "value": 0}, "group": "control_change"}, {"time": 4762, "annotation": {"number": 64, "value": 127}, "group": "control_change"}, {"time": 4791, "annotation": {"number": 64, "value": 0}, "group": "control_change"}, {"time": 4798, "annotation": {"number": 64, "value": 127}, "group": "control_change"}, {"time": 4805, "annotation": {"number": 64, "value": 0}, "group": "control_change"}, {"time": 4810, "annotation": {"number": 64, "value": 127}, "group": "control_change"}, {"time": 4835, "annotation": {"number": 64, "value": 0}, "group": "control_change"}, {"time": 4840, "annotation": {"number": 64, "value": 127}, "group": "control_change"}, {"time": 4847, "annotation": {"number": 64, "value": 0}, "group": "control_change"}, {"time": 4857, "annotation": {"number": 64, "value": 127}, "group": "control_change"}, {"time": 4882, "annotation": {"number": 64, "value": 0}, "group": "control_change"}, {"time": 4887, "annotation": {"number": 64, "value": 127}, "group": "control_change"}, {"time": 4894, "annotation": {"number": 64, "value": 0}, "group": "control_change"}, {"time": 4904, "annotation": {"number": 64, "value": 127}, "group": "control_change"}, {"time": 4932, "annotation": {"number": 64, "value": 0}, "group": "control_change"}, {"time": 4936, "annotation": {"number": 64, "value": 127}, "group": "control_change"}, {"time": 4952, "annotation": {"number": 64, "value": 0}, "group": "control_change"}, {"time": 4983, "annotation": {"number": 64, "value": 127}, "group": "control_change"}, {"time": 4986, "annotation": {"number": 64, "value": 127}, "group": "control_change"}, {"time": 4992, "annotation": {"number": 64, "value": 0}, "group": "control_change"}, {"time": 5030, "annotation": {"number": 64, "value": 0}, "group": "control_change"}, {"time": 5034, "annotation": {"number": 64, "value": 127}, "group": "control_change"}, {"time": 5050, "annotation": {"number": 64, "value": 0}, "group": "control_change"}, {"time": 5053, "annotation": {"number": 64, "value": 127}, "group": "control_change"}, {"time": 5075, "annotation": {"number": 64, "value": 0}, "group": "control_change"}, {"time": 5078, "annotation": {"number": 64, "value": 127}, "group": "control_change"}, {"time": 5122, "annotation": {"number": 64, "value": 0}, "group": "control_change"}, {"time": 5133, "annotation": {"number": 64, "value": 127}, "group": "control_change"}, {"time": 5172, "annotation": {"number": 64, "value": 0}, "group": "control_change"}, {"time": 5176, "annotation": {"number": 64, "value": 127}, "group": "control_change"}, {"time": 5220, "annotation": {"number": 64, "value": 0}, "group": "control_change"}, {"time": 5224, "annotation": {"number": 64, "value": 127}, "group": "control_change"}, {"time": 5269, "annotation": {"number": 64, "value": 0}, "group": "control_change"}, {"time": 5272, "annotation": {"number": 64, "value": 127}, "group": "control_change"}, {"time": 5316, "annotation": {"number": 64, "value": 0}, "group": "control_change"}, {"time": 5320, "annotation": {"number": 64, "value": 127}, "group": "control_change"}, {"time": 5364, "annotation": {"number": 64, "value": 0}, "group": "control_change"}, {"time": 5368, "annotation": {"number": 64, "value": 127}, "group": "control_change"}, {"time": 5413, "annotation": {"number": 64, "value": 0}, "group": "control_change"}, {"time": 5417, "annotation": {"number": 64, "value": 127}, "group": "control_change"}, {"time": 5436, "annotation": {"number": 64, "value": 0}, "group": "control_change"}, {"time": 5439, "annotation": {"number": 64, "value": 127}, "group": "control_change"}, {"time": 5454, "annotation": {"number": 64, "value": 0}, "group": "control_change"}, {"time": 5458, "annotation": {"number": 64, "value": 127}, "group": "control_change"}, {"time": 5509, "annotation": {"number": 64, "value": 0}, "group": "control_change"}, {"time": 5512, "annotation": {"number": 64, "value": 127}, "group": "control_change"}, {"time": 5520, "annotation": {"number": 64, "value": 0}, "group": "control_change"}, {"time": 5525, "annotation": {"number": 64, "value": 127}, "group": "control_change"}, {"time": 5556, "annotation": {"number": 64, "value": 0}, "group": "control_change"}, {"time": 5560, "annotation": {"number": 64, "value": 127}, "group": "control_change"}, {"time": 5604, "annotation": {"number": 64, "value": 0}, "group": "control_change"}, {"time": 5607, "annotation": {"number": 64, "value": 127}, "group": "control_change"}, {"time": 5628, "annotation": {"number": 64, "value": 0}, "group": "control_change"}, {"time": 5631, "annotation": {"number": 64, "value": 127}, "group": "control_change"}, {"time": 5652, "annotation": {"number": 64, "value": 0}, "group": "control_change"}, {"time": 5656, "annotation": {"number": 64, "value": 127}, "group": "control_change"}, {"time": 5667, "annotation": {"number": 64, "value": 0}, "group": "control_change"}, {"time": 5670, "annotation": {"number": 64, "value": 127}, "group": "control_change"}, {"time": 5700, "annotation": {"number": 64, "value": 0}, "group": "control_change"}, {"time": 5705, "annotation": {"number": 64, "value": 127}, "group": "control_change"}, {"time": 5748, "annotation": {"number": 64, "value": 0}, "group": "control_change"}, {"time": 5752, "annotation": {"number": 64, "value": 127}, "group": "control_change"}, {"time": 5795, "annotation": {"number": 64, "value": 0}, "group": "control_change"}, {"time": 5799, "annotation": {"number": 64, "value": 127}, "group": "control_change"}, {"time": 5821, "annotation": {"number": 64, "value": 0}, "group": "control_change"}, {"time": 5825, "annotation": {"number": 64, "value": 127}, "group": "control_change"}, {"time": 5845, "annotation": {"number": 64, "value": 0}, "group": "control_change"}, {"time": 5848, "annotation": {"number": 64, "value": 127}, "group": "control_change"}, {"time": 5926, "annotation": {"number": 64, "value": 0}, "group": "control_change"}]}]}