{"metadata": {"schema_version": "0.2", "title": "None", "source_filename": "205.mid", "source_format": "midi"}, "resolution": 12, "tempos": [{"time": 0, "qpm": 121.00043156820593}], "key_signatures": [{"time": 0, "root": 0, "mode": "major"}], "time_signatures": [{"time": 0, "numerator": 4, "denominator": 4}], "tracks": [{"program": 0, "is_drum": false, "name": "MELODY", "notes": [{"time": 196, "pitch": 61, "duration": 12, "velocity": 90}, {"time": 208, "pitch": 70, "duration": 14, "velocity": 93}, {"time": 226, "pitch": 70, "duration": 4, "velocity": 97}, {"time": 232, "pitch": 70, "duration": 9, "velocity": 92}, {"time": 241, "pitch": 68, "duration": 9, "velocity": 95}, {"time": 250, "pitch": 66, "duration": 5, "velocity": 84}, {"time": 256, "pitch": 66, "duration": 28, "velocity": 85}, {"time": 292, "pitch": 68, "duration": 7, "velocity": 84}, {"time": 298, "pitch": 70, "duration": 6, "velocity": 73}, {"time": 304, "pitch": 73, "duration": 5, "velocity": 101}, {"time": 310, "pitch": 73, "duration": 9, "velocity": 101}, {"time": 322, "pitch": 73, "duration": 3, "velocity": 106}, {"time": 328, "pitch": 73, "duration": 11, "velocity": 99}, {"time": 340, "pitch": 75, "duration": 5, "velocity": 89}, {"time": 346, "pitch": 73, "duration": 6, "velocity": 89}, {"time": 352, "pitch": 70, "duration": 24, "velocity": 100}, {"time": 394, "pitch": 66, "duration": 7, "velocity": 66}, {"time": 400, "pitch": 75, "duration": 6, "velocity": 92}, {"time": 409, "pitch": 75, "duration": 7, "velocity": 96}, {"time": 418, "pitch": 75, "duration": 5, "velocity": 94}, {"time": 424, "pitch": 75, "duration": 13, "velocity": 95}, {"time": 436, "pitch": 73, "duration": 6, "velocity": 89}, {"time": 442, "pitch": 75, "duration": 6, "velocity": 86}, {"time": 448, "pitch": 73, "duration": 12, "velocity": 95}, {"time": 460, "pitch": 70, "duration": 20, "velocity": 91}, {"time": 484, "pitch": 68, "duration": 6, "velocity": 89}, {"time": 490, "pitch": 70, "duration": 6, "velocity": 77}, {"time": 496, "pitch": 71, "duration": 4, "velocity": 78}, {"time": 502, "pitch": 71, "duration": 4, "velocity": 76}, {"time": 508, "pitch": 71, "duration": 6, "velocity": 74}, {"time": 514, "pitch": 70, "duration": 6, "velocity": 66}, {"time": 520, "pitch": 66, "duration": 9, "velocity": 61}, {"time": 529, "pitch": 63, "duration": 15, "velocity": 54}, {"time": 538, "pitch": 66, "duration": 14, "velocity": 64}, {"time": 544, "pitch": 68, "duration": 18, "velocity": 64}, {"time": 586, "pitch": 61, "duration": 6, "velocity": 65}, {"time": 592, "pitch": 70, "duration": 14, "velocity": 94}, {"time": 610, "pitch": 70, "duration": 4, "velocity": 105}, {"time": 616, "pitch": 70, "duration": 9, "velocity": 97}, {"time": 625, "pitch": 68, "duration": 10, "velocity": 97}, {"time": 634, "pitch": 66, "duration": 5, "velocity": 87}, {"time": 640, "pitch": 66, "duration": 29, "velocity": 87}, {"time": 673, "pitch": 68, "duration": 7, "velocity": 90}, {"time": 679, "pitch": 70, "duration": 6, "velocity": 90}, {"time": 685, "pitch": 73, "duration": 7, "velocity": 103}, {"time": 694, "pitch": 73, "duration": 6, "velocity": 99}, {"time": 703, "pitch": 73, "duration": 4, "velocity": 99}, {"time": 712, "pitch": 73, "duration": 11, "velocity": 105}, {"time": 724, "pitch": 75, "duration": 7, "velocity": 97}, {"time": 730, "pitch": 73, "duration": 6, "velocity": 98}, {"time": 736, "pitch": 70, "duration": 17, "velocity": 98}, {"time": 778, "pitch": 66, "duration": 6, "velocity": 76}, {"time": 784, "pitch": 75, "duration": 7, "velocity": 95}, {"time": 793, "pitch": 75, "duration": 6, "velocity": 98}, {"time": 802, "pitch": 75, "duration": 3, "velocity": 100}, {"time": 808, "pitch": 75, "duration": 8, "velocity": 96}, {"time": 820, "pitch": 73, "duration": 6, "velocity": 103}, {"time": 826, "pitch": 75, "duration": 8, "velocity": 93}, {"time": 832, "pitch": 73, "duration": 9, "velocity": 97}, {"time": 841, "pitch": 70, "duration": 22, "velocity": 87}, {"time": 868, "pitch": 68, "duration": 7, "velocity": 90}, {"time": 874, "pitch": 70, "duration": 7, "velocity": 90}, {"time": 880, "pitch": 71, "duration": 8, "velocity": 93}, {"time": 889, "pitch": 71, "duration": 2, "velocity": 89}, {"time": 892, "pitch": 71, "duration": 5, "velocity": 68}, {"time": 898, "pitch": 70, "duration": 6, "velocity": 87}, {"time": 904, "pitch": 66, "duration": 8, "velocity": 84}, {"time": 913, "pitch": 63, "duration": 12, "velocity": 64}, {"time": 925, "pitch": 65, "duration": 7, "velocity": 81}, {"time": 931, "pitch": 66, "duration": 16, "velocity": 86}, {"time": 964, "pitch": 61, "duration": 4, "velocity": 90}, {"time": 970, "pitch": 61, "duration": 5, "velocity": 89}, {"time": 976, "pitch": 70, "duration": 7, "velocity": 97}, {"time": 985, "pitch": 70, "duration": 5, "velocity": 97}, {"time": 994, "pitch": 70, "duration": 3, "velocity": 96}, {"time": 1000, "pitch": 70, "duration": 7, "velocity": 99}, {"time": 1009, "pitch": 68, "duration": 8, "velocity": 97}, {"time": 1018, "pitch": 66, "duration": 6, "velocity": 83}, {"time": 1024, "pitch": 73, "duration": 24, "velocity": 100}, {"time": 1060, "pitch": 70, "duration": 6, "velocity": 90}, {"time": 1066, "pitch": 73, "duration": 7, "velocity": 97}, {"time": 1072, "pitch": 75, "duration": 14, "velocity": 99}, {"time": 1090, "pitch": 75, "duration": 3, "velocity": 96}, {"time": 1096, "pitch": 75, "duration": 7, "velocity": 95}, {"time": 1105, "pitch": 78, "duration": 9, "velocity": 97}, {"time": 1114, "pitch": 75, "duration": 7, "velocity": 103}, {"time": 1120, "pitch": 73, "duration": 24, "velocity": 105}, {"time": 1156, "pitch": 70, "duration": 6, "velocity": 94}, {"time": 1162, "pitch": 73, "duration": 6, "velocity": 97}, {"time": 1168, "pitch": 75, "duration": 7, "velocity": 93}, {"time": 1177, "pitch": 75, "duration": 6, "velocity": 97}, {"time": 1186, "pitch": 75, "duration": 4, "velocity": 105}, {"time": 1192, "pitch": 75, "duration": 7, "velocity": 97}, {"time": 1204, "pitch": 73, "duration": 7, "velocity": 103}, {"time": 1210, "pitch": 75, "duration": 6, "velocity": 99}, {"time": 1216, "pitch": 73, "duration": 10, "velocity": 98}, {"time": 1225, "pitch": 70, "duration": 17, "velocity": 95}, {"time": 1252, "pitch": 68, "duration": 4, "velocity": 91}, {"time": 1258, "pitch": 70, "duration": 7, "velocity": 77}, {"time": 1264, "pitch": 71, "duration": 3, "velocity": 89}, {"time": 1270, "pitch": 71, "duration": 3, "velocity": 87}, {"time": 1276, "pitch": 71, "duration": 3, "velocity": 84}, {"time": 1282, "pitch": 71, "duration": 2, "velocity": 89}, {"time": 1288, "pitch": 70, "duration": 5, "velocity": 92}, {"time": 1297, "pitch": 66, "duration": 7, "velocity": 68}, {"time": 1306, "pitch": 63, "duration": 6, "velocity": 64}, {"time": 1312, "pitch": 66, "duration": 63, "velocity": 76}, {"time": 1444, "pitch": 61, "duration": 12, "velocity": 90}, {"time": 1456, "pitch": 70, "duration": 14, "velocity": 93}, {"time": 1474, "pitch": 70, "duration": 4, "velocity": 97}, {"time": 1480, "pitch": 70, "duration": 9, "velocity": 92}, {"time": 1489, "pitch": 68, "duration": 9, "velocity": 95}, {"time": 1495, "pitch": 66, "duration": 5, "velocity": 84}, {"time": 1504, "pitch": 66, "duration": 28, "velocity": 85}, {"time": 1540, "pitch": 68, "duration": 7, "velocity": 84}, {"time": 1546, "pitch": 70, "duration": 6, "velocity": 73}, {"time": 1552, "pitch": 73, "duration": 5, "velocity": 101}, {"time": 1558, "pitch": 73, "duration": 9, "velocity": 101}, {"time": 1570, "pitch": 73, "duration": 3, "velocity": 106}, {"time": 1576, "pitch": 73, "duration": 11, "velocity": 99}, {"time": 1588, "pitch": 75, "duration": 5, "velocity": 89}, {"time": 1594, "pitch": 73, "duration": 6, "velocity": 89}, {"time": 1600, "pitch": 70, "duration": 24, "velocity": 100}, {"time": 1642, "pitch": 66, "duration": 7, "velocity": 66}, {"time": 1648, "pitch": 75, "duration": 6, "velocity": 92}, {"time": 1657, "pitch": 75, "duration": 7, "velocity": 96}, {"time": 1666, "pitch": 75, "duration": 5, "velocity": 94}, {"time": 1672, "pitch": 75, "duration": 13, "velocity": 95}, {"time": 1684, "pitch": 73, "duration": 6, "velocity": 89}, {"time": 1690, "pitch": 75, "duration": 6, "velocity": 86}, {"time": 1696, "pitch": 73, "duration": 12, "velocity": 95}, {"time": 1708, "pitch": 70, "duration": 20, "velocity": 91}, {"time": 1732, "pitch": 68, "duration": 6, "velocity": 89}, {"time": 1738, "pitch": 70, "duration": 6, "velocity": 77}, {"time": 1744, "pitch": 71, "duration": 4, "velocity": 78}, {"time": 1750, "pitch": 71, "duration": 4, "velocity": 76}, {"time": 1756, "pitch": 71, "duration": 6, "velocity": 74}, {"time": 1762, "pitch": 70, "duration": 6, "velocity": 66}, {"time": 1768, "pitch": 66, "duration": 9, "velocity": 61}, {"time": 1777, "pitch": 63, "duration": 11, "velocity": 54}, {"time": 1786, "pitch": 66, "duration": 6, "velocity": 64}, {"time": 1792, "pitch": 68, "duration": 18, "velocity": 64}, {"time": 1834, "pitch": 61, "duration": 6, "velocity": 65}, {"time": 1840, "pitch": 70, "duration": 13, "velocity": 94}, {"time": 1858, "pitch": 70, "duration": 4, "velocity": 105}, {"time": 1864, "pitch": 70, "duration": 9, "velocity": 97}, {"time": 1873, "pitch": 68, "duration": 10, "velocity": 97}, {"time": 1882, "pitch": 66, "duration": 5, "velocity": 87}, {"time": 1888, "pitch": 66, "duration": 29, "velocity": 87}, {"time": 1924, "pitch": 68, "duration": 7, "velocity": 90}, {"time": 1930, "pitch": 70, "duration": 6, "velocity": 90}, {"time": 1936, "pitch": 73, "duration": 7, "velocity": 103}, {"time": 1945, "pitch": 73, "duration": 5, "velocity": 99}, {"time": 1954, "pitch": 73, "duration": 4, "velocity": 99}, {"time": 1960, "pitch": 73, "duration": 11, "velocity": 105}, {"time": 1972, "pitch": 75, "duration": 7, "velocity": 97}, {"time": 1978, "pitch": 73, "duration": 6, "velocity": 98}, {"time": 1984, "pitch": 70, "duration": 17, "velocity": 98}, {"time": 2026, "pitch": 66, "duration": 6, "velocity": 76}, {"time": 2032, "pitch": 75, "duration": 7, "velocity": 95}, {"time": 2041, "pitch": 75, "duration": 6, "velocity": 98}, {"time": 2050, "pitch": 75, "duration": 3, "velocity": 100}, {"time": 2056, "pitch": 75, "duration": 8, "velocity": 96}, {"time": 2068, "pitch": 73, "duration": 6, "velocity": 103}, {"time": 2074, "pitch": 75, "duration": 8, "velocity": 93}, {"time": 2080, "pitch": 73, "duration": 9, "velocity": 97}, {"time": 2089, "pitch": 70, "duration": 22, "velocity": 87}, {"time": 2116, "pitch": 68, "duration": 7, "velocity": 90}, {"time": 2122, "pitch": 70, "duration": 5, "velocity": 90}, {"time": 2128, "pitch": 71, "duration": 9, "velocity": 93}, {"time": 2137, "pitch": 71, "duration": 3, "velocity": 89}, {"time": 2140, "pitch": 71, "duration": 7, "velocity": 68}, {"time": 2146, "pitch": 70, "duration": 8, "velocity": 87}, {"time": 2152, "pitch": 66, "duration": 11, "velocity": 84}, {"time": 2161, "pitch": 63, "duration": 14, "velocity": 64}, {"time": 2170, "pitch": 65, "duration": 10, "velocity": 81}, {"time": 2176, "pitch": 66, "duration": 20, "velocity": 86}, {"time": 2212, "pitch": 61, "duration": 4, "velocity": 90}, {"time": 2218, "pitch": 61, "duration": 5, "velocity": 89}, {"time": 2224, "pitch": 70, "duration": 7, "velocity": 97}, {"time": 2233, "pitch": 70, "duration": 5, "velocity": 97}, {"time": 2242, "pitch": 70, "duration": 3, "velocity": 96}, {"time": 2248, "pitch": 70, "duration": 7, "velocity": 99}, {"time": 2257, "pitch": 68, "duration": 8, "velocity": 97}, {"time": 2266, "pitch": 66, "duration": 6, "velocity": 83}, {"time": 2272, "pitch": 73, "duration": 24, "velocity": 100}, {"time": 2308, "pitch": 70, "duration": 6, "velocity": 90}, {"time": 2314, "pitch": 73, "duration": 7, "velocity": 97}, {"time": 2320, "pitch": 75, "duration": 14, "velocity": 99}, {"time": 2338, "pitch": 75, "duration": 3, "velocity": 96}, {"time": 2344, "pitch": 75, "duration": 7, "velocity": 95}, {"time": 2353, "pitch": 78, "duration": 9, "velocity": 97}, {"time": 2362, "pitch": 75, "duration": 7, "velocity": 103}, {"time": 2368, "pitch": 73, "duration": 24, "velocity": 105}, {"time": 2404, "pitch": 70, "duration": 6, "velocity": 94}, {"time": 2410, "pitch": 73, "duration": 6, "velocity": 97}, {"time": 2416, "pitch": 75, "duration": 7, "velocity": 93}, {"time": 2425, "pitch": 75, "duration": 6, "velocity": 97}, {"time": 2434, "pitch": 75, "duration": 4, "velocity": 105}, {"time": 2440, "pitch": 75, "duration": 7, "velocity": 97}, {"time": 2452, "pitch": 73, "duration": 7, "velocity": 103}, {"time": 2458, "pitch": 75, "duration": 6, "velocity": 99}, {"time": 2464, "pitch": 73, "duration": 10, "velocity": 98}, {"time": 2473, "pitch": 70, "duration": 17, "velocity": 95}, {"time": 2500, "pitch": 68, "duration": 4, "velocity": 91}, {"time": 2506, "pitch": 70, "duration": 7, "velocity": 77}, {"time": 2512, "pitch": 71, "duration": 3, "velocity": 89}, {"time": 2518, "pitch": 71, "duration": 3, "velocity": 87}, {"time": 2524, "pitch": 71, "duration": 3, "velocity": 84}, {"time": 2530, "pitch": 71, "duration": 2, "velocity": 89}, {"time": 2536, "pitch": 70, "duration": 5, "velocity": 92}, {"time": 2545, "pitch": 66, "duration": 7, "velocity": 68}, {"time": 2554, "pitch": 63, "duration": 6, "velocity": 64}, {"time": 2560, "pitch": 66, "duration": 63, "velocity": 76}, {"time": 2692, "pitch": 61, "duration": 12, "velocity": 90}, {"time": 2704, "pitch": 70, "duration": 14, "velocity": 93}, {"time": 2722, "pitch": 70, "duration": 4, "velocity": 97}, {"time": 2728, "pitch": 70, "duration": 9, "velocity": 92}, {"time": 2737, "pitch": 68, "duration": 9, "velocity": 95}, {"time": 2746, "pitch": 66, "duration": 5, "velocity": 84}, {"time": 2752, "pitch": 66, "duration": 28, "velocity": 85}, {"time": 2788, "pitch": 68, "duration": 7, "velocity": 84}, {"time": 2794, "pitch": 70, "duration": 6, "velocity": 73}, {"time": 2800, "pitch": 73, "duration": 5, "velocity": 101}, {"time": 2806, "pitch": 73, "duration": 9, "velocity": 101}, {"time": 2818, "pitch": 73, "duration": 4, "velocity": 106}, {"time": 2824, "pitch": 73, "duration": 12, "velocity": 99}, {"time": 2836, "pitch": 75, "duration": 6, "velocity": 89}, {"time": 2842, "pitch": 73, "duration": 6, "velocity": 89}, {"time": 2848, "pitch": 70, "duration": 24, "velocity": 100}, {"time": 2890, "pitch": 66, "duration": 7, "velocity": 66}, {"time": 2896, "pitch": 75, "duration": 6, "velocity": 92}, {"time": 2905, "pitch": 75, "duration": 7, "velocity": 96}, {"time": 2914, "pitch": 75, "duration": 5, "velocity": 94}, {"time": 2920, "pitch": 75, "duration": 13, "velocity": 95}, {"time": 2932, "pitch": 73, "duration": 6, "velocity": 89}, {"time": 2938, "pitch": 75, "duration": 10, "velocity": 86}, {"time": 2944, "pitch": 73, "duration": 12, "velocity": 95}, {"time": 2956, "pitch": 70, "duration": 20, "velocity": 91}, {"time": 2980, "pitch": 68, "duration": 9, "velocity": 89}, {"time": 2986, "pitch": 70, "duration": 7, "velocity": 77}, {"time": 2992, "pitch": 71, "duration": 4, "velocity": 78}, {"time": 2998, "pitch": 71, "duration": 4, "velocity": 76}, {"time": 3004, "pitch": 71, "duration": 6, "velocity": 74}, {"time": 3010, "pitch": 70, "duration": 6, "velocity": 66}, {"time": 3016, "pitch": 66, "duration": 9, "velocity": 61}, {"time": 3025, "pitch": 63, "duration": 12, "velocity": 54}, {"time": 3037, "pitch": 65, "duration": 14, "velocity": 64}, {"time": 3049, "pitch": 66, "duration": 13, "velocity": 64}, {"time": 3844, "pitch": 73, "duration": 3, "velocity": 82}, {"time": 3850, "pitch": 73, "duration": 6, "velocity": 87}, {"time": 3856, "pitch": 82, "duration": 6, "velocity": 95}, {"time": 3865, "pitch": 82, "duration": 7, "velocity": 93}, {"time": 3874, "pitch": 82, "duration": 4, "velocity": 93}, {"time": 3880, "pitch": 82, "duration": 9, "velocity": 90}, {"time": 3889, "pitch": 80, "duration": 9, "velocity": 84}, {"time": 3898, "pitch": 78, "duration": 7, "velocity": 71}, {"time": 3904, "pitch": 85, "duration": 22, "velocity": 76}, {"time": 3940, "pitch": 82, "duration": 7, "velocity": 91}, {"time": 3946, "pitch": 85, "duration": 7, "velocity": 91}, {"time": 3952, "pitch": 87, "duration": 14, "velocity": 94}, {"time": 3970, "pitch": 87, "duration": 4, "velocity": 91}, {"time": 3976, "pitch": 87, "duration": 9, "velocity": 92}, {"time": 3985, "pitch": 90, "duration": 7, "velocity": 90}, {"time": 3994, "pitch": 87, "duration": 7, "velocity": 100}, {"time": 4000, "pitch": 85, "duration": 33, "velocity": 98}, {"time": 4036, "pitch": 82, "duration": 7, "velocity": 93}, {"time": 4042, "pitch": 85, "duration": 6, "velocity": 89}, {"time": 4048, "pitch": 87, "duration": 6, "velocity": 95}, {"time": 4057, "pitch": 87, "duration": 6, "velocity": 93}, {"time": 4066, "pitch": 87, "duration": 4, "velocity": 94}, {"time": 4072, "pitch": 87, "duration": 11, "velocity": 95}, {"time": 4084, "pitch": 85, "duration": 6, "velocity": 96}, {"time": 4090, "pitch": 87, "duration": 7, "velocity": 90}, {"time": 4096, "pitch": 85, "duration": 9, "velocity": 85}, {"time": 4105, "pitch": 82, "duration": 19, "velocity": 87}, {"time": 4132, "pitch": 80, "duration": 6, "velocity": 93}, {"time": 4138, "pitch": 82, "duration": 6, "velocity": 80}, {"time": 4144, "pitch": 83, "duration": 4, "velocity": 93}, {"time": 4150, "pitch": 83, "duration": 3, "velocity": 86}, {"time": 4156, "pitch": 83, "duration": 2, "velocity": 89}, {"time": 4162, "pitch": 83, "duration": 4, "velocity": 89}, {"time": 4168, "pitch": 82, "duration": 8, "velocity": 94}, {"time": 4177, "pitch": 78, "duration": 8, "velocity": 87}, {"time": 4186, "pitch": 75, "duration": 6, "velocity": 57}, {"time": 4192, "pitch": 78, "duration": 15, "velocity": 91}, {"time": 4324, "pitch": 61, "duration": 12, "velocity": 90}, {"time": 4336, "pitch": 70, "duration": 14, "velocity": 93}, {"time": 4354, "pitch": 70, "duration": 4, "velocity": 97}, {"time": 4360, "pitch": 70, "duration": 9, "velocity": 92}, {"time": 4369, "pitch": 68, "duration": 9, "velocity": 95}, {"time": 4378, "pitch": 66, "duration": 5, "velocity": 84}, {"time": 4384, "pitch": 66, "duration": 28, "velocity": 85}, {"time": 4420, "pitch": 68, "duration": 7, "velocity": 84}, {"time": 4426, "pitch": 70, "duration": 6, "velocity": 73}, {"time": 4432, "pitch": 73, "duration": 5, "velocity": 101}, {"time": 4438, "pitch": 73, "duration": 9, "velocity": 101}, {"time": 4450, "pitch": 73, "duration": 4, "velocity": 106}, {"time": 4456, "pitch": 73, "duration": 12, "velocity": 99}, {"time": 4468, "pitch": 75, "duration": 6, "velocity": 89}, {"time": 4474, "pitch": 73, "duration": 6, "velocity": 89}, {"time": 4480, "pitch": 70, "duration": 24, "velocity": 100}, {"time": 4522, "pitch": 66, "duration": 7, "velocity": 66}, {"time": 4528, "pitch": 75, "duration": 6, "velocity": 92}, {"time": 4537, "pitch": 75, "duration": 7, "velocity": 96}, {"time": 4546, "pitch": 75, "duration": 5, "velocity": 94}, {"time": 4552, "pitch": 75, "duration": 13, "velocity": 95}, {"time": 4564, "pitch": 73, "duration": 6, "velocity": 89}, {"time": 4570, "pitch": 75, "duration": 10, "velocity": 86}, {"time": 4576, "pitch": 73, "duration": 12, "velocity": 95}, {"time": 4588, "pitch": 70, "duration": 20, "velocity": 91}, {"time": 4612, "pitch": 68, "duration": 6, "velocity": 92}, {"time": 4618, "pitch": 70, "duration": 7, "velocity": 90}, {"time": 4624, "pitch": 71, "duration": 4, "velocity": 93}, {"time": 4630, "pitch": 71, "duration": 5, "velocity": 93}, {"time": 4636, "pitch": 71, "duration": 9, "velocity": 91}, {"time": 4642, "pitch": 70, "duration": 12, "velocity": 95}, {"time": 4651, "pitch": 66, "duration": 12, "velocity": 82}, {"time": 4660, "pitch": 63, "duration": 15, "velocity": 74}, {"time": 4669, "pitch": 65, "duration": 16, "velocity": 90}, {"time": 4684, "pitch": 66, "duration": 76, "velocity": 96}], "annotations": [{"time": 304, "annotation": {"number": 1, "value": 27}, "group": "control_change"}, {"time": 401, "annotation": {"number": 64, "value": 127}, "group": "control_change"}, {"time": 404, "annotation": {"number": 64, "value": 0}, "group": "control_change"}, {"time": 439, "annotation": {"number": 64, "value": 127}, "group": "control_change"}, {"time": 443, "annotation": {"number": 64, "value": 0}, "group": "control_change"}, {"time": 485, "annotation": {"number": 1, "value": 27}, "group": "control_change"}, {"time": 507, "annotation": {"number": 1, "value": 24}, "group": "control_change"}, {"time": 507, "annotation": {"number": 1, "value": 25}, "group": "control_change"}, {"time": 512, "annotation": {"number": 1, "value": 24}, "group": "control_change"}, {"time": 512, "annotation": {"number": 1, "value": 25}, "group": "control_change"}, {"time": 517, "annotation": {"number": 1, "value": 27}, "group": "control_change"}, {"time": 628, "annotation": {"number": 1, "value": 25}, "group": "control_change"}, {"time": 630, "annotation": {"number": 1, "value": 24}, "group": "control_change"}, {"time": 630, "annotation": {"number": 1, "value": 25}, "group": "control_change"}, {"time": 634, "annotation": {"number": 1, "value": 24}, "group": "control_change"}, {"time": 634, "annotation": {"number": 1, "value": 25}, "group": "control_change"}, {"time": 642, "annotation": {"number": 64, "value": 127}, "group": "control_change"}, {"time": 648, "annotation": {"number": 64, "value": 0}, "group": "control_change"}, {"time": 736, "annotation": {"number": 1, "value": 27}, "group": "control_change"}, {"time": 746, "annotation": {"number": 1, "value": 24}, "group": "control_change"}, {"time": 746, "annotation": {"number": 1, "value": 27}, "group": "control_change"}, {"time": 802, "annotation": {"number": 1, "value": 27}, "group": "control_change"}, {"time": 831, "annotation": {"number": 1, "value": 25}, "group": "control_change"}, {"time": 844, "annotation": {"number": 1, "value": 24}, "group": "control_change"}, {"time": 845, "annotation": {"number": 1, "value": 25}, "group": "control_change"}, {"time": 853, "annotation": {"number": 1, "value": 24}, "group": "control_change"}, {"time": 854, "annotation": {"number": 1, "value": 25}, "group": "control_change"}, {"time": 926, "annotation": {"number": 1, "value": 24}, "group": "control_change"}, {"time": 927, "annotation": {"number": 1, "value": 25}, "group": "control_change"}, {"time": 929, "annotation": {"number": 1, "value": 24}, "group": "control_change"}, {"time": 930, "annotation": {"number": 1, "value": 25}, "group": "control_change"}, {"time": 1552, "annotation": {"number": 1, "value": 27}, "group": "control_change"}, {"time": 1648, "annotation": {"number": 64, "value": 127}, "group": "control_change"}, {"time": 1652, "annotation": {"number": 64, "value": 0}, "group": "control_change"}, {"time": 1686, "annotation": {"number": 64, "value": 127}, "group": "control_change"}, {"time": 1691, "annotation": {"number": 64, "value": 0}, "group": "control_change"}, {"time": 1734, "annotation": {"number": 1, "value": 27}, "group": "control_change"}, {"time": 1755, "annotation": {"number": 1, "value": 24}, "group": "control_change"}, {"time": 1756, "annotation": {"number": 1, "value": 25}, "group": "control_change"}, {"time": 1761, "annotation": {"number": 1, "value": 24}, "group": "control_change"}, {"time": 1761, "annotation": {"number": 1, "value": 25}, "group": "control_change"}, {"time": 1766, "annotation": {"number": 1, "value": 27}, "group": "control_change"}, {"time": 1877, "annotation": {"number": 1, "value": 25}, "group": "control_change"}, {"time": 1878, "annotation": {"number": 1, "value": 24}, "group": "control_change"}, {"time": 1878, "annotation": {"number": 1, "value": 25}, "group": "control_change"}, {"time": 1882, "annotation": {"number": 1, "value": 24}, "group": "control_change"}, {"time": 1882, "annotation": {"number": 1, "value": 25}, "group": "control_change"}, {"time": 1890, "annotation": {"number": 64, "value": 127}, "group": "control_change"}, {"time": 1896, "annotation": {"number": 64, "value": 0}, "group": "control_change"}, {"time": 1984, "annotation": {"number": 1, "value": 27}, "group": "control_change"}, {"time": 1995, "annotation": {"number": 1, "value": 24}, "group": "control_change"}, {"time": 1995, "annotation": {"number": 1, "value": 27}, "group": "control_change"}, {"time": 2050, "annotation": {"number": 1, "value": 27}, "group": "control_change"}, {"time": 2079, "annotation": {"number": 1, "value": 25}, "group": "control_change"}, {"time": 2092, "annotation": {"number": 1, "value": 24}, "group": "control_change"}, {"time": 2094, "annotation": {"number": 1, "value": 25}, "group": "control_change"}, {"time": 2101, "annotation": {"number": 1, "value": 24}, "group": "control_change"}, {"time": 2102, "annotation": {"number": 1, "value": 25}, "group": "control_change"}, {"time": 2175, "annotation": {"number": 1, "value": 24}, "group": "control_change"}, {"time": 2175, "annotation": {"number": 1, "value": 25}, "group": "control_change"}, {"time": 2177, "annotation": {"number": 1, "value": 24}, "group": "control_change"}, {"time": 2179, "annotation": {"number": 1, "value": 25}, "group": "control_change"}, {"time": 2801, "annotation": {"number": 1, "value": 27}, "group": "control_change"}, {"time": 2897, "annotation": {"number": 64, "value": 127}, "group": "control_change"}, {"time": 2900, "annotation": {"number": 64, "value": 0}, "group": "control_change"}, {"time": 2935, "annotation": {"number": 64, "value": 127}, "group": "control_change"}, {"time": 2939, "annotation": {"number": 64, "value": 0}, "group": "control_change"}, {"time": 2982, "annotation": {"number": 1, "value": 27}, "group": "control_change"}, {"time": 3004, "annotation": {"number": 1, "value": 24}, "group": "control_change"}, {"time": 3004, "annotation": {"number": 1, "value": 25}, "group": "control_change"}, {"time": 3009, "annotation": {"number": 1, "value": 24}, "group": "control_change"}, {"time": 3009, "annotation": {"number": 1, "value": 25}, "group": "control_change"}, {"time": 3014, "annotation": {"number": 1, "value": 27}, "group": "control_change"}, {"time": 3855, "annotation": {"number": 64, "value": 127}, "group": "control_change"}, {"time": 3861, "annotation": {"number": 64, "value": 0}, "group": "control_change"}, {"time": 4015, "annotation": {"number": 64, "value": 127}, "group": "control_change"}, {"time": 4025, "annotation": {"number": 64, "value": 0}, "group": "control_change"}, {"time": 4049, "annotation": {"number": 64, "value": 127}, "group": "control_change"}, {"time": 4054, "annotation": {"number": 64, "value": 0}, "group": "control_change"}, {"time": 4433, "annotation": {"number": 1, "value": 27}, "group": "control_change"}, {"time": 4529, "annotation": {"number": 64, "value": 127}, "group": "control_change"}, {"time": 4533, "annotation": {"number": 64, "value": 0}, "group": "control_change"}, {"time": 4567, "annotation": {"number": 64, "value": 127}, "group": "control_change"}, {"time": 4571, "annotation": {"number": 64, "value": 0}, "group": "control_change"}]}, {"program": 0, "is_drum": false, "name": "BRIDGE", "notes": [{"time": 118, "pitch": 82, "duration": 6, "velocity": 84}, {"time": 124, "pitch": 85, "duration": 6, "velocity": 84}, {"time": 130, "pitch": 90, "duration": 6, "velocity": 84}, {"time": 136, "pitch": 89, "duration": 6, "velocity": 84}, {"time": 142, "pitch": 85, "duration": 6, "velocity": 84}, {"time": 148, "pitch": 82, "duration": 6, "velocity": 84}, {"time": 154, "pitch": 80, "duration": 6, "velocity": 84}, {"time": 160, "pitch": 82, "duration": 6, "velocity": 84}, {"time": 262, "pitch": 90, "duration": 9, "velocity": 67}, {"time": 268, "pitch": 89, "duration": 6, "velocity": 53}, {"time": 274, "pitch": 87, "duration": 6, "velocity": 58}, {"time": 280, "pitch": 85, "duration": 4, "velocity": 51}, {"time": 286, "pitch": 82, "duration": 7, "velocity": 48}, {"time": 292, "pitch": 80, "duration": 5, "velocity": 52}, {"time": 298, "pitch": 78, "duration": 4, "velocity": 48}, {"time": 304, "pitch": 82, "duration": 17, "velocity": 50}, {"time": 358, "pitch": 82, "duration": 4, "velocity": 55}, {"time": 364, "pitch": 85, "duration": 4, "velocity": 63}, {"time": 370, "pitch": 90, "duration": 8, "velocity": 72}, {"time": 376, "pitch": 89, "duration": 5, "velocity": 64}, {"time": 382, "pitch": 87, "duration": 5, "velocity": 50}, {"time": 388, "pitch": 85, "duration": 5, "velocity": 62}, {"time": 394, "pitch": 82, "duration": 8, "velocity": 53}, {"time": 400, "pitch": 83, "duration": 39, "velocity": 61}, {"time": 478, "pitch": 80, "duration": 5, "velocity": 51}, {"time": 484, "pitch": 82, "duration": 6, "velocity": 59}, {"time": 490, "pitch": 87, "duration": 46, "velocity": 51}, {"time": 550, "pitch": 90, "duration": 9, "velocity": 67}, {"time": 556, "pitch": 89, "duration": 6, "velocity": 53}, {"time": 562, "pitch": 87, "duration": 6, "velocity": 58}, {"time": 568, "pitch": 85, "duration": 4, "velocity": 51}, {"time": 574, "pitch": 82, "duration": 7, "velocity": 48}, {"time": 580, "pitch": 80, "duration": 5, "velocity": 52}, {"time": 586, "pitch": 78, "duration": 4, "velocity": 48}, {"time": 592, "pitch": 82, "duration": 17, "velocity": 50}, {"time": 646, "pitch": 90, "duration": 9, "velocity": 67}, {"time": 652, "pitch": 89, "duration": 6, "velocity": 53}, {"time": 658, "pitch": 87, "duration": 6, "velocity": 58}, {"time": 664, "pitch": 85, "duration": 4, "velocity": 51}, {"time": 670, "pitch": 82, "duration": 7, "velocity": 48}, {"time": 676, "pitch": 80, "duration": 5, "velocity": 52}, {"time": 682, "pitch": 78, "duration": 4, "velocity": 48}, {"time": 688, "pitch": 82, "duration": 17, "velocity": 50}, {"time": 742, "pitch": 82, "duration": 4, "velocity": 55}, {"time": 748, "pitch": 85, "duration": 4, "velocity": 63}, {"time": 754, "pitch": 90, "duration": 8, "velocity": 72}, {"time": 760, "pitch": 89, "duration": 5, "velocity": 64}, {"time": 766, "pitch": 87, "duration": 5, "velocity": 50}, {"time": 772, "pitch": 85, "duration": 5, "velocity": 62}, {"time": 778, "pitch": 82, "duration": 8, "velocity": 53}, {"time": 784, "pitch": 83, "duration": 39, "velocity": 61}, {"time": 862, "pitch": 80, "duration": 5, "velocity": 51}, {"time": 868, "pitch": 82, "duration": 6, "velocity": 59}, {"time": 874, "pitch": 87, "duration": 46, "velocity": 51}, {"time": 1798, "pitch": 90, "duration": 9, "velocity": 67}, {"time": 1804, "pitch": 89, "duration": 6, "velocity": 53}, {"time": 1810, "pitch": 87, "duration": 6, "velocity": 58}, {"time": 1816, "pitch": 85, "duration": 4, "velocity": 51}, {"time": 1822, "pitch": 82, "duration": 7, "velocity": 48}, {"time": 1828, "pitch": 80, "duration": 5, "velocity": 52}, {"time": 1834, "pitch": 78, "duration": 4, "velocity": 48}, {"time": 1840, "pitch": 82, "duration": 17, "velocity": 50}, {"time": 1894, "pitch": 80, "duration": 4, "velocity": 63}, {"time": 1900, "pitch": 82, "duration": 4, "velocity": 63}, {"time": 1906, "pitch": 85, "duration": 4, "velocity": 63}, {"time": 1912, "pitch": 90, "duration": 4, "velocity": 63}, {"time": 1918, "pitch": 89, "duration": 4, "velocity": 63}, {"time": 1924, "pitch": 85, "duration": 4, "velocity": 63}, {"time": 1930, "pitch": 80, "duration": 4, "velocity": 63}, {"time": 1936, "pitch": 82, "duration": 4, "velocity": 63}, {"time": 1990, "pitch": 82, "duration": 6, "velocity": 49}, {"time": 1996, "pitch": 85, "duration": 4, "velocity": 59}, {"time": 2002, "pitch": 90, "duration": 9, "velocity": 64}, {"time": 2008, "pitch": 89, "duration": 5, "velocity": 63}, {"time": 2014, "pitch": 87, "duration": 4, "velocity": 60}, {"time": 2020, "pitch": 85, "duration": 5, "velocity": 59}, {"time": 2026, "pitch": 80, "duration": 7, "velocity": 49}, {"time": 2032, "pitch": 82, "duration": 15, "velocity": 58}, {"time": 2086, "pitch": 82, "duration": 5, "velocity": 42}, {"time": 2092, "pitch": 85, "duration": 5, "velocity": 58}, {"time": 2098, "pitch": 90, "duration": 9, "velocity": 62}, {"time": 2104, "pitch": 89, "duration": 5, "velocity": 60}, {"time": 2110, "pitch": 87, "duration": 4, "velocity": 54}, {"time": 2116, "pitch": 85, "duration": 5, "velocity": 57}, {"time": 2122, "pitch": 80, "duration": 8, "velocity": 48}, {"time": 2128, "pitch": 78, "duration": 20, "velocity": 59}, {"time": 3094, "pitch": 61, "duration": 3, "velocity": 99}, {"time": 3097, "pitch": 63, "duration": 3, "velocity": 85}, {"time": 3100, "pitch": 66, "duration": 6, "velocity": 101}, {"time": 3106, "pitch": 68, "duration": 6, "velocity": 97}, {"time": 3112, "pitch": 70, "duration": 9, "velocity": 82}, {"time": 3121, "pitch": 68, "duration": 9, "velocity": 82}, {"time": 3130, "pitch": 66, "duration": 6, "velocity": 82}, {"time": 3136, "pitch": 68, "duration": 12, "velocity": 82}, {"time": 3148, "pitch": 70, "duration": 6, "velocity": 82}, {"time": 3154, "pitch": 63, "duration": 18, "velocity": 82}, {"time": 3172, "pitch": 66, "duration": 6, "velocity": 82}, {"time": 3178, "pitch": 68, "duration": 6, "velocity": 82}, {"time": 3184, "pitch": 70, "duration": 9, "velocity": 82}, {"time": 3193, "pitch": 68, "duration": 9, "velocity": 82}, {"time": 3202, "pitch": 66, "duration": 6, "velocity": 82}, {"time": 3208, "pitch": 75, "duration": 30, "velocity": 82}, {"time": 3238, "pitch": 75, "duration": 6, "velocity": 82}, {"time": 3244, "pitch": 73, "duration": 6, "velocity": 82}, {"time": 3250, "pitch": 70, "duration": 6, "velocity": 82}, {"time": 3256, "pitch": 73, "duration": 6, "velocity": 82}, {"time": 3262, "pitch": 68, "duration": 6, "velocity": 82}, {"time": 3268, "pitch": 70, "duration": 6, "velocity": 82}, {"time": 3274, "pitch": 66, "duration": 12, "velocity": 82}, {"time": 3286, "pitch": 70, "duration": 3, "velocity": 82}, {"time": 3289, "pitch": 68, "duration": 3, "velocity": 82}, {"time": 3292, "pitch": 66, "duration": 3, "velocity": 82}, {"time": 3295, "pitch": 68, "duration": 3, "velocity": 82}, {"time": 3298, "pitch": 66, "duration": 3, "velocity": 82}, {"time": 3301, "pitch": 61, "duration": 3, "velocity": 82}, {"time": 3304, "pitch": 63, "duration": 3, "velocity": 82}, {"time": 3307, "pitch": 56, "duration": 3, "velocity": 82}, {"time": 3310, "pitch": 58, "duration": 3, "velocity": 82}, {"time": 3313, "pitch": 56, "duration": 3, "velocity": 82}, {"time": 3316, "pitch": 54, "duration": 3, "velocity": 82}, {"time": 3319, "pitch": 51, "duration": 3, "velocity": 82}, {"time": 3322, "pitch": 54, "duration": 3, "velocity": 82}, {"time": 3325, "pitch": 56, "duration": 3, "velocity": 82}, {"time": 3328, "pitch": 51, "duration": 6, "velocity": 82}, {"time": 3334, "pitch": 54, "duration": 3, "velocity": 82}, {"time": 3337, "pitch": 51, "duration": 3, "velocity": 82}, {"time": 3340, "pitch": 54, "duration": 3, "velocity": 82}, {"time": 3343, "pitch": 54, "duration": 3, "velocity": 82}, {"time": 3346, "pitch": 56, "duration": 3, "velocity": 82}, {"time": 3349, "pitch": 58, "duration": 27, "velocity": 82}, {"time": 3376, "pitch": 63, "duration": 54, "velocity": 82}, {"time": 3430, "pitch": 66, "duration": 6, "velocity": 82}, {"time": 3436, "pitch": 68, "duration": 6, "velocity": 82}, {"time": 3442, "pitch": 66, "duration": 12, "velocity": 82}, {"time": 3454, "pitch": 68, "duration": 3, "velocity": 82}, {"time": 3457, "pitch": 66, "duration": 15, "velocity": 82}, {"time": 3472, "pitch": 70, "duration": 12, "velocity": 82}, {"time": 3484, "pitch": 66, "duration": 6, "velocity": 82}, {"time": 3490, "pitch": 63, "duration": 12, "velocity": 82}, {"time": 3502, "pitch": 70, "duration": 6, "velocity": 82}, {"time": 3508, "pitch": 66, "duration": 6, "velocity": 82}, {"time": 3514, "pitch": 63, "duration": 6, "velocity": 82}, {"time": 3520, "pitch": 73, "duration": 12, "velocity": 82}, {"time": 3532, "pitch": 68, "duration": 6, "velocity": 82}, {"time": 3538, "pitch": 70, "duration": 12, "velocity": 82}, {"time": 3550, "pitch": 73, "duration": 6, "velocity": 82}, {"time": 3556, "pitch": 75, "duration": 6, "velocity": 82}, {"time": 3562, "pitch": 77, "duration": 6, "velocity": 82}, {"time": 3568, "pitch": 78, "duration": 12, "velocity": 82}, {"time": 3580, "pitch": 77, "duration": 6, "velocity": 82}, {"time": 3586, "pitch": 73, "duration": 12, "velocity": 82}, {"time": 3598, "pitch": 78, "duration": 6, "velocity": 82}, {"time": 3604, "pitch": 77, "duration": 6, "velocity": 82}, {"time": 3610, "pitch": 73, "duration": 6, "velocity": 82}, {"time": 3616, "pitch": 78, "duration": 6, "velocity": 82}, {"time": 3622, "pitch": 77, "duration": 3, "velocity": 82}, {"time": 3625, "pitch": 73, "duration": 6, "velocity": 82}, {"time": 3631, "pitch": 78, "duration": 3, "velocity": 82}, {"time": 3634, "pitch": 77, "duration": 3, "velocity": 82}, {"time": 3637, "pitch": 73, "duration": 3, "velocity": 82}, {"time": 3640, "pitch": 68, "duration": 3, "velocity": 82}, {"time": 3643, "pitch": 77, "duration": 3, "velocity": 82}, {"time": 3646, "pitch": 73, "duration": 3, "velocity": 82}, {"time": 3649, "pitch": 68, "duration": 3, "velocity": 82}, {"time": 3652, "pitch": 70, "duration": 3, "velocity": 82}, {"time": 3655, "pitch": 68, "duration": 3, "velocity": 82}, {"time": 3658, "pitch": 63, "duration": 3, "velocity": 82}, {"time": 3661, "pitch": 68, "duration": 9, "velocity": 82}, {"time": 3670, "pitch": 61, "duration": 3, "velocity": 82}, {"time": 3673, "pitch": 63, "duration": 3, "velocity": 82}, {"time": 3676, "pitch": 66, "duration": 6, "velocity": 82}, {"time": 3682, "pitch": 68, "duration": 6, "velocity": 82}, {"time": 3688, "pitch": 70, "duration": 6, "velocity": 82}, {"time": 3694, "pitch": 68, "duration": 6, "velocity": 82}, {"time": 3700, "pitch": 66, "duration": 6, "velocity": 82}, {"time": 3706, "pitch": 63, "duration": 6, "velocity": 82}, {"time": 3712, "pitch": 66, "duration": 12, "velocity": 82}, {"time": 3724, "pitch": 68, "duration": 6, "velocity": 82}, {"time": 3730, "pitch": 70, "duration": 15, "velocity": 82}, {"time": 3745, "pitch": 73, "duration": 3, "velocity": 82}, {"time": 3748, "pitch": 75, "duration": 12, "velocity": 82}, {"time": 3760, "pitch": 78, "duration": 6, "velocity": 82}, {"time": 3766, "pitch": 77, "duration": 3, "velocity": 82}, {"time": 3769, "pitch": 73, "duration": 3, "velocity": 82}, {"time": 3772, "pitch": 77, "duration": 6, "velocity": 82}, {"time": 3778, "pitch": 73, "duration": 3, "velocity": 82}, {"time": 3781, "pitch": 68, "duration": 3, "velocity": 82}, {"time": 3784, "pitch": 73, "duration": 3, "velocity": 82}, {"time": 3787, "pitch": 75, "duration": 3, "velocity": 82}, {"time": 3790, "pitch": 78, "duration": 3, "velocity": 82}, {"time": 3793, "pitch": 80, "duration": 3, "velocity": 82}, {"time": 3796, "pitch": 85, "duration": 6, "velocity": 82}, {"time": 3802, "pitch": 80, "duration": 6, "velocity": 82}, {"time": 3808, "pitch": 77, "duration": 3, "velocity": 82}, {"time": 3811, "pitch": 73, "duration": 3, "velocity": 82}, {"time": 3814, "pitch": 68, "duration": 3, "velocity": 82}, {"time": 3817, "pitch": 65, "duration": 3, "velocity": 82}, {"time": 3820, "pitch": 61, "duration": 3, "velocity": 82}, {"time": 3823, "pitch": 63, "duration": 3, "velocity": 82}, {"time": 3826, "pitch": 66, "duration": 3, "velocity": 82}, {"time": 3829, "pitch": 68, "duration": 3, "velocity": 82}, {"time": 3832, "pitch": 73, "duration": 24, "velocity": 82}, {"time": 4486, "pitch": 90, "duration": 9, "velocity": 67}, {"time": 4492, "pitch": 89, "duration": 6, "velocity": 53}, {"time": 4498, "pitch": 87, "duration": 6, "velocity": 58}, {"time": 4504, "pitch": 85, "duration": 4, "velocity": 51}, {"time": 4510, "pitch": 82, "duration": 7, "velocity": 48}, {"time": 4516, "pitch": 80, "duration": 5, "velocity": 52}, {"time": 4522, "pitch": 78, "duration": 4, "velocity": 48}, {"time": 4528, "pitch": 82, "duration": 17, "velocity": 50}, {"time": 4774, "pitch": 90, "duration": 9, "velocity": 67}, {"time": 4780, "pitch": 89, "duration": 6, "velocity": 53}, {"time": 4786, "pitch": 87, "duration": 6, "velocity": 58}, {"time": 4792, "pitch": 85, "duration": 4, "velocity": 51}, {"time": 4798, "pitch": 82, "duration": 7, "velocity": 48}, {"time": 4804, "pitch": 80, "duration": 5, "velocity": 52}, {"time": 4810, "pitch": 78, "duration": 4, "velocity": 48}, {"time": 4816, "pitch": 82, "duration": 17, "velocity": 50}], "annotations": [{"time": 17, "annotation": {"number": 64, "value": 127}, "group": "control_change"}, {"time": 62, "annotation": {"number": 64, "value": 0}, "group": "control_change"}, {"time": 66, "annotation": {"number": 64, "value": 127}, "group": "control_change"}, {"time": 109, "annotation": {"number": 64, "value": 0}, "group": "control_change"}, {"time": 113, "annotation": {"number": 64, "value": 127}, "group": "control_change"}, {"time": 158, "annotation": {"number": 64, "value": 0}, "group": "control_change"}, {"time": 162, "annotation": {"number": 64, "value": 127}, "group": "control_change"}, {"time": 205, "annotation": {"number": 64, "value": 0}, "group": "control_change"}]}, {"program": 0, "is_drum": false, "name": "PIANO", "notes": [{"time": 16, "pitch": 42, "duration": 42, "velocity": 72}, {"time": 16, "pitch": 61, "duration": 5, "velocity": 62}, {"time": 16, "pitch": 66, "duration": 6, "velocity": 63}, {"time": 16, "pitch": 70, "duration": 6, "velocity": 64}, {"time": 22, "pitch": 49, "duration": 25, "velocity": 43}, {"time": 28, "pitch": 54, "duration": 7, "velocity": 48}, {"time": 34, "pitch": 61, "duration": 4, "velocity": 58}, {"time": 34, "pitch": 66, "duration": 2, "velocity": 49}, {"time": 34, "pitch": 71, "duration": 10, "velocity": 70}, {"time": 46, "pitch": 54, "duration": 9, "velocity": 48}, {"time": 52, "pitch": 61, "duration": 6, "velocity": 53}, {"time": 52, "pitch": 66, "duration": 5, "velocity": 56}, {"time": 52, "pitch": 73, "duration": 8, "velocity": 72}, {"time": 58, "pitch": 49, "duration": 6, "velocity": 52}, {"time": 64, "pitch": 42, "duration": 41, "velocity": 70}, {"time": 64, "pitch": 61, "duration": 7, "velocity": 70}, {"time": 64, "pitch": 66, "duration": 8, "velocity": 66}, {"time": 64, "pitch": 70, "duration": 8, "velocity": 75}, {"time": 70, "pitch": 49, "duration": 26, "velocity": 48}, {"time": 76, "pitch": 54, "duration": 7, "velocity": 45}, {"time": 82, "pitch": 61, "duration": 7, "velocity": 59}, {"time": 82, "pitch": 66, "duration": 3, "velocity": 45}, {"time": 82, "pitch": 71, "duration": 13, "velocity": 62}, {"time": 94, "pitch": 54, "duration": 10, "velocity": 44}, {"time": 100, "pitch": 61, "duration": 7, "velocity": 48}, {"time": 100, "pitch": 66, "duration": 5, "velocity": 54}, {"time": 100, "pitch": 73, "duration": 8, "velocity": 69}, {"time": 106, "pitch": 49, "duration": 4, "velocity": 62}, {"time": 112, "pitch": 42, "duration": 44, "velocity": 67}, {"time": 112, "pitch": 61, "duration": 5, "velocity": 66}, {"time": 112, "pitch": 66, "duration": 4, "velocity": 49}, {"time": 112, "pitch": 70, "duration": 5, "velocity": 66}, {"time": 124, "pitch": 49, "duration": 25, "velocity": 47}, {"time": 130, "pitch": 71, "duration": 4, "velocity": 95}, {"time": 136, "pitch": 73, "duration": 3, "velocity": 63}, {"time": 148, "pitch": 54, "duration": 7, "velocity": 48}, {"time": 148, "pitch": 78, "duration": 3, "velocity": 69}, {"time": 154, "pitch": 49, "duration": 4, "velocity": 64}, {"time": 160, "pitch": 42, "duration": 40, "velocity": 72}, {"time": 160, "pitch": 61, "duration": 6, "velocity": 73}, {"time": 160, "pitch": 66, "duration": 10, "velocity": 75}, {"time": 160, "pitch": 70, "duration": 8, "velocity": 66}, {"time": 172, "pitch": 49, "duration": 16, "velocity": 60}, {"time": 178, "pitch": 61, "duration": 6, "velocity": 50}, {"time": 178, "pitch": 71, "duration": 12, "velocity": 67}, {"time": 190, "pitch": 49, "duration": 2, "velocity": 22}, {"time": 196, "pitch": 54, "duration": 8, "velocity": 49}, {"time": 196, "pitch": 61, "duration": 5, "velocity": 52}, {"time": 196, "pitch": 66, "duration": 2, "velocity": 58}, {"time": 196, "pitch": 73, "duration": 8, "velocity": 78}, {"time": 202, "pitch": 49, "duration": 5, "velocity": 61}, {"time": 208, "pitch": 54, "duration": 26, "velocity": 69}, {"time": 208, "pitch": 61, "duration": 5, "velocity": 97}, {"time": 208, "pitch": 66, "duration": 8, "velocity": 99}, {"time": 208, "pitch": 70, "duration": 7, "velocity": 97}, {"time": 214, "pitch": 61, "duration": 5, "velocity": 48}, {"time": 220, "pitch": 66, "duration": 5, "velocity": 73}, {"time": 226, "pitch": 61, "duration": 13, "velocity": 78}, {"time": 226, "pitch": 68, "duration": 13, "velocity": 76}, {"time": 238, "pitch": 54, "duration": 8, "velocity": 62}, {"time": 244, "pitch": 61, "duration": 6, "velocity": 70}, {"time": 244, "pitch": 70, "duration": 9, "velocity": 73}, {"time": 250, "pitch": 54, "duration": 3, "velocity": 62}, {"time": 256, "pitch": 54, "duration": 23, "velocity": 66}, {"time": 256, "pitch": 61, "duration": 9, "velocity": 70}, {"time": 256, "pitch": 66, "duration": 10, "velocity": 69}, {"time": 256, "pitch": 73, "duration": 14, "velocity": 75}, {"time": 268, "pitch": 61, "duration": 2, "velocity": 33}, {"time": 274, "pitch": 61, "duration": 12, "velocity": 66}, {"time": 274, "pitch": 66, "duration": 12, "velocity": 64}, {"time": 274, "pitch": 70, "duration": 13, "velocity": 72}, {"time": 286, "pitch": 54, "duration": 7, "velocity": 63}, {"time": 292, "pitch": 61, "duration": 7, "velocity": 69}, {"time": 292, "pitch": 68, "duration": 9, "velocity": 70}, {"time": 298, "pitch": 54, "duration": 4, "velocity": 62}, {"time": 304, "pitch": 53, "duration": 25, "velocity": 61}, {"time": 304, "pitch": 61, "duration": 12, "velocity": 66}, {"time": 304, "pitch": 65, "duration": 14, "velocity": 54}, {"time": 304, "pitch": 68, "duration": 11, "velocity": 61}, {"time": 322, "pitch": 61, "duration": 13, "velocity": 70}, {"time": 322, "pitch": 65, "duration": 13, "velocity": 72}, {"time": 322, "pitch": 68, "duration": 11, "velocity": 72}, {"time": 334, "pitch": 53, "duration": 7, "velocity": 54}, {"time": 340, "pitch": 61, "duration": 6, "velocity": 70}, {"time": 340, "pitch": 68, "duration": 10, "velocity": 70}, {"time": 346, "pitch": 53, "duration": 4, "velocity": 57}, {"time": 352, "pitch": 51, "duration": 40, "velocity": 67}, {"time": 352, "pitch": 61, "duration": 10, "velocity": 70}, {"time": 352, "pitch": 66, "duration": 13, "velocity": 76}, {"time": 352, "pitch": 70, "duration": 8, "velocity": 70}, {"time": 364, "pitch": 58, "duration": 8, "velocity": 46}, {"time": 370, "pitch": 61, "duration": 10, "velocity": 67}, {"time": 370, "pitch": 66, "duration": 2, "velocity": 66}, {"time": 370, "pitch": 68, "duration": 12, "velocity": 70}, {"time": 382, "pitch": 58, "duration": 6, "velocity": 59}, {"time": 388, "pitch": 61, "duration": 5, "velocity": 72}, {"time": 388, "pitch": 66, "duration": 5, "velocity": 78}, {"time": 394, "pitch": 51, "duration": 1, "velocity": 39}, {"time": 394, "pitch": 58, "duration": 2, "velocity": 58}, {"time": 400, "pitch": 47, "duration": 38, "velocity": 64}, {"time": 400, "pitch": 59, "duration": 9, "velocity": 80}, {"time": 400, "pitch": 63, "duration": 8, "velocity": 70}, {"time": 400, "pitch": 66, "duration": 11, "velocity": 73}, {"time": 400, "pitch": 71, "duration": 8, "velocity": 75}, {"time": 412, "pitch": 59, "duration": 12, "velocity": 56}, {"time": 418, "pitch": 63, "duration": 12, "velocity": 72}, {"time": 418, "pitch": 66, "duration": 12, "velocity": 78}, {"time": 418, "pitch": 71, "duration": 11, "velocity": 73}, {"time": 430, "pitch": 59, "duration": 7, "velocity": 58}, {"time": 436, "pitch": 63, "duration": 4, "velocity": 69}, {"time": 436, "pitch": 66, "duration": 4, "velocity": 76}, {"time": 436, "pitch": 71, "duration": 5, "velocity": 72}, {"time": 442, "pitch": 47, "duration": 2, "velocity": 60}, {"time": 448, "pitch": 46, "duration": 12, "velocity": 75}, {"time": 448, "pitch": 61, "duration": 9, "velocity": 72}, {"time": 448, "pitch": 66, "duration": 10, "velocity": 76}, {"time": 448, "pitch": 70, "duration": 8, "velocity": 73}, {"time": 457, "pitch": 58, "duration": 5, "velocity": 41}, {"time": 472, "pitch": 51, "duration": 13, "velocity": 70}, {"time": 472, "pitch": 63, "duration": 10, "velocity": 78}, {"time": 472, "pitch": 66, "duration": 10, "velocity": 78}, {"time": 472, "pitch": 70, "duration": 8, "velocity": 80}, {"time": 484, "pitch": 58, "duration": 3, "velocity": 60}, {"time": 490, "pitch": 63, "duration": 3, "velocity": 54}, {"time": 496, "pitch": 44, "duration": 41, "velocity": 73}, {"time": 496, "pitch": 63, "duration": 8, "velocity": 82}, {"time": 496, "pitch": 66, "duration": 10, "velocity": 73}, {"time": 496, "pitch": 71, "duration": 8, "velocity": 63}, {"time": 508, "pitch": 56, "duration": 10, "velocity": 40}, {"time": 514, "pitch": 63, "duration": 11, "velocity": 63}, {"time": 514, "pitch": 71, "duration": 12, "velocity": 70}, {"time": 526, "pitch": 56, "duration": 6, "velocity": 52}, {"time": 532, "pitch": 63, "duration": 4, "velocity": 67}, {"time": 532, "pitch": 66, "duration": 4, "velocity": 82}, {"time": 532, "pitch": 71, "duration": 4, "velocity": 70}, {"time": 538, "pitch": 56, "duration": 3, "velocity": 50}, {"time": 544, "pitch": 49, "duration": 39, "velocity": 70}, {"time": 544, "pitch": 61, "duration": 7, "velocity": 85}, {"time": 544, "pitch": 66, "duration": 9, "velocity": 76}, {"time": 544, "pitch": 73, "duration": 10, "velocity": 69}, {"time": 550, "pitch": 56, "duration": 21, "velocity": 57}, {"time": 556, "pitch": 61, "duration": 15, "velocity": 57}, {"time": 562, "pitch": 71, "duration": 4, "velocity": 93}, {"time": 568, "pitch": 70, "duration": 4, "velocity": 63}, {"time": 574, "pitch": 68, "duration": 6, "velocity": 57}, {"time": 580, "pitch": 56, "duration": 3, "velocity": 70}, {"time": 580, "pitch": 66, "duration": 5, "velocity": 67}, {"time": 586, "pitch": 61, "duration": 3, "velocity": 52}, {"time": 592, "pitch": 42, "duration": 41, "velocity": 73}, {"time": 592, "pitch": 61, "duration": 11, "velocity": 80}, {"time": 592, "pitch": 66, "duration": 12, "velocity": 85}, {"time": 592, "pitch": 70, "duration": 9, "velocity": 57}, {"time": 604, "pitch": 54, "duration": 11, "velocity": 47}, {"time": 610, "pitch": 61, "duration": 11, "velocity": 75}, {"time": 610, "pitch": 68, "duration": 11, "velocity": 73}, {"time": 622, "pitch": 54, "duration": 6, "velocity": 44}, {"time": 628, "pitch": 61, "duration": 4, "velocity": 66}, {"time": 628, "pitch": 66, "duration": 5, "velocity": 76}, {"time": 634, "pitch": 54, "duration": 4, "velocity": 51}, {"time": 640, "pitch": 42, "duration": 43, "velocity": 73}, {"time": 640, "pitch": 61, "duration": 8, "velocity": 73}, {"time": 640, "pitch": 66, "duration": 10, "velocity": 75}, {"time": 640, "pitch": 73, "duration": 10, "velocity": 75}, {"time": 652, "pitch": 54, "duration": 10, "velocity": 47}, {"time": 658, "pitch": 63, "duration": 8, "velocity": 76}, {"time": 658, "pitch": 66, "duration": 8, "velocity": 78}, {"time": 658, "pitch": 71, "duration": 7, "velocity": 76}, {"time": 670, "pitch": 54, "duration": 8, "velocity": 44}, {"time": 676, "pitch": 61, "duration": 4, "velocity": 82}, {"time": 676, "pitch": 66, "duration": 5, "velocity": 69}, {"time": 676, "pitch": 70, "duration": 5, "velocity": 59}, {"time": 682, "pitch": 54, "duration": 4, "velocity": 53}, {"time": 688, "pitch": 41, "duration": 31, "velocity": 75}, {"time": 688, "pitch": 61, "duration": 8, "velocity": 73}, {"time": 688, "pitch": 65, "duration": 8, "velocity": 76}, {"time": 688, "pitch": 68, "duration": 8, "velocity": 76}, {"time": 694, "pitch": 53, "duration": 17, "velocity": 44}, {"time": 706, "pitch": 61, "duration": 13, "velocity": 73}, {"time": 706, "pitch": 65, "duration": 13, "velocity": 70}, {"time": 706, "pitch": 68, "duration": 12, "velocity": 72}, {"time": 718, "pitch": 53, "duration": 5, "velocity": 57}, {"time": 724, "pitch": 61, "duration": 6, "velocity": 85}, {"time": 730, "pitch": 68, "duration": 4, "velocity": 67}, {"time": 736, "pitch": 51, "duration": 37, "velocity": 70}, {"time": 736, "pitch": 61, "duration": 8, "velocity": 80}, {"time": 736, "pitch": 66, "duration": 9, "velocity": 82}, {"time": 742, "pitch": 58, "duration": 15, "velocity": 48}, {"time": 748, "pitch": 61, "duration": 3, "velocity": 59}, {"time": 754, "pitch": 61, "duration": 13, "velocity": 78}, {"time": 754, "pitch": 66, "duration": 13, "velocity": 76}, {"time": 754, "pitch": 70, "duration": 9, "velocity": 73}, {"time": 766, "pitch": 58, "duration": 7, "velocity": 60}, {"time": 772, "pitch": 61, "duration": 2, "velocity": 82}, {"time": 772, "pitch": 66, "duration": 2, "velocity": 82}, {"time": 772, "pitch": 70, "duration": 4, "velocity": 75}, {"time": 784, "pitch": 47, "duration": 44, "velocity": 70}, {"time": 784, "pitch": 63, "duration": 12, "velocity": 76}, {"time": 784, "pitch": 66, "duration": 11, "velocity": 78}, {"time": 784, "pitch": 71, "duration": 11, "velocity": 73}, {"time": 790, "pitch": 54, "duration": 31, "velocity": 57}, {"time": 796, "pitch": 59, "duration": 12, "velocity": 66}, {"time": 802, "pitch": 63, "duration": 12, "velocity": 69}, {"time": 802, "pitch": 66, "duration": 11, "velocity": 73}, {"time": 802, "pitch": 71, "duration": 13, "velocity": 73}, {"time": 814, "pitch": 59, "duration": 7, "velocity": 53}, {"time": 820, "pitch": 63, "duration": 3, "velocity": 72}, {"time": 820, "pitch": 66, "duration": 3, "velocity": 78}, {"time": 820, "pitch": 71, "duration": 4, "velocity": 76}, {"time": 826, "pitch": 59, "duration": 2, "velocity": 66}, {"time": 832, "pitch": 46, "duration": 8, "velocity": 85}, {"time": 832, "pitch": 61, "duration": 7, "velocity": 88}, {"time": 832, "pitch": 65, "duration": 8, "velocity": 82}, {"time": 832, "pitch": 68, "duration": 8, "velocity": 72}, {"time": 838, "pitch": 58, "duration": 5, "velocity": 51}, {"time": 844, "pitch": 61, "duration": 3, "velocity": 82}, {"time": 856, "pitch": 51, "duration": 15, "velocity": 73}, {"time": 856, "pitch": 58, "duration": 9, "velocity": 73}, {"time": 856, "pitch": 61, "duration": 9, "velocity": 76}, {"time": 856, "pitch": 66, "duration": 9, "velocity": 75}, {"time": 868, "pitch": 58, "duration": 2, "velocity": 45}, {"time": 868, "pitch": 63, "duration": 5, "velocity": 67}, {"time": 874, "pitch": 65, "duration": 4, "velocity": 70}, {"time": 880, "pitch": 44, "duration": 24, "velocity": 73}, {"time": 880, "pitch": 59, "duration": 8, "velocity": 76}, {"time": 880, "pitch": 63, "duration": 8, "velocity": 75}, {"time": 880, "pitch": 66, "duration": 7, "velocity": 69}, {"time": 886, "pitch": 56, "duration": 16, "velocity": 55}, {"time": 892, "pitch": 59, "duration": 5, "velocity": 63}, {"time": 898, "pitch": 59, "duration": 4, "velocity": 72}, {"time": 898, "pitch": 63, "duration": 5, "velocity": 80}, {"time": 898, "pitch": 66, "duration": 5, "velocity": 78}, {"time": 904, "pitch": 49, "duration": 13, "velocity": 69}, {"time": 904, "pitch": 56, "duration": 12, "velocity": 56}, {"time": 904, "pitch": 61, "duration": 15, "velocity": 78}, {"time": 904, "pitch": 65, "duration": 12, "velocity": 70}, {"time": 922, "pitch": 63, "duration": 4, "velocity": 47}, {"time": 925, "pitch": 65, "duration": 3, "velocity": 62}, {"time": 928, "pitch": 42, "duration": 40, "velocity": 75}, {"time": 928, "pitch": 58, "duration": 12, "velocity": 72}, {"time": 928, "pitch": 61, "duration": 12, "velocity": 76}, {"time": 928, "pitch": 66, "duration": 11, "velocity": 73}, {"time": 934, "pitch": 49, "duration": 28, "velocity": 75}, {"time": 940, "pitch": 54, "duration": 13, "velocity": 64}, {"time": 946, "pitch": 58, "duration": 9, "velocity": 75}, {"time": 946, "pitch": 61, "duration": 13, "velocity": 58}, {"time": 946, "pitch": 66, "duration": 9, "velocity": 78}, {"time": 958, "pitch": 54, "duration": 7, "velocity": 50}, {"time": 964, "pitch": 61, "duration": 4, "velocity": 75}, {"time": 964, "pitch": 68, "duration": 4, "velocity": 73}, {"time": 970, "pitch": 49, "duration": 1, "velocity": 55}, {"time": 976, "pitch": 42, "duration": 12, "velocity": 73}, {"time": 976, "pitch": 61, "duration": 27, "velocity": 73}, {"time": 976, "pitch": 66, "duration": 27, "velocity": 78}, {"time": 976, "pitch": 70, "duration": 28, "velocity": 75}, {"time": 982, "pitch": 49, "duration": 7, "velocity": 70}, {"time": 988, "pitch": 54, "duration": 8, "velocity": 52}, {"time": 994, "pitch": 56, "duration": 6, "velocity": 58}, {"time": 1000, "pitch": 58, "duration": 6, "velocity": 66}, {"time": 1006, "pitch": 61, "duration": 4, "velocity": 73}, {"time": 1012, "pitch": 66, "duration": 7, "velocity": 67}, {"time": 1018, "pitch": 73, "duration": 5, "velocity": 62}, {"time": 1024, "pitch": 41, "duration": 8, "velocity": 70}, {"time": 1024, "pitch": 61, "duration": 30, "velocity": 78}, {"time": 1024, "pitch": 68, "duration": 20, "velocity": 62}, {"time": 1024, "pitch": 73, "duration": 25, "velocity": 50}, {"time": 1030, "pitch": 53, "duration": 8, "velocity": 61}, {"time": 1036, "pitch": 56, "duration": 26, "velocity": 46}, {"time": 1054, "pitch": 68, "duration": 9, "velocity": 93}, {"time": 1072, "pitch": 51, "duration": 35, "velocity": 70}, {"time": 1072, "pitch": 61, "duration": 8, "velocity": 78}, {"time": 1072, "pitch": 66, "duration": 8, "velocity": 80}, {"time": 1072, "pitch": 70, "duration": 8, "velocity": 70}, {"time": 1078, "pitch": 58, "duration": 16, "velocity": 66}, {"time": 1084, "pitch": 61, "duration": 4, "velocity": 73}, {"time": 1090, "pitch": 61, "duration": 13, "velocity": 78}, {"time": 1090, "pitch": 66, "duration": 15, "velocity": 82}, {"time": 1102, "pitch": 58, "duration": 5, "velocity": 73}, {"time": 1108, "pitch": 61, "duration": 5, "velocity": 72}, {"time": 1114, "pitch": 68, "duration": 4, "velocity": 72}, {"time": 1120, "pitch": 49, "duration": 37, "velocity": 70}, {"time": 1120, "pitch": 61, "duration": 8, "velocity": 75}, {"time": 1120, "pitch": 65, "duration": 11, "velocity": 75}, {"time": 1120, "pitch": 68, "duration": 14, "velocity": 75}, {"time": 1126, "pitch": 56, "duration": 20, "velocity": 63}, {"time": 1132, "pitch": 61, "duration": 24, "velocity": 75}, {"time": 1138, "pitch": 66, "duration": 8, "velocity": 85}, {"time": 1144, "pitch": 68, "duration": 4, "velocity": 70}, {"time": 1150, "pitch": 70, "duration": 7, "velocity": 75}, {"time": 1156, "pitch": 56, "duration": 3, "velocity": 66}, {"time": 1156, "pitch": 73, "duration": 10, "velocity": 67}, {"time": 1162, "pitch": 78, "duration": 4, "velocity": 70}, {"time": 1168, "pitch": 47, "duration": 38, "velocity": 72}, {"time": 1168, "pitch": 71, "duration": 9, "velocity": 88}, {"time": 1168, "pitch": 75, "duration": 8, "velocity": 69}, {"time": 1174, "pitch": 54, "duration": 32, "velocity": 63}, {"time": 1180, "pitch": 59, "duration": 10, "velocity": 76}, {"time": 1186, "pitch": 63, "duration": 14, "velocity": 75}, {"time": 1186, "pitch": 66, "duration": 13, "velocity": 78}, {"time": 1186, "pitch": 71, "duration": 13, "velocity": 76}, {"time": 1198, "pitch": 59, "duration": 7, "velocity": 78}, {"time": 1204, "pitch": 63, "duration": 5, "velocity": 76}, {"time": 1204, "pitch": 71, "duration": 3, "velocity": 62}, {"time": 1210, "pitch": 71, "duration": 3, "velocity": 66}, {"time": 1216, "pitch": 46, "duration": 13, "velocity": 76}, {"time": 1216, "pitch": 61, "duration": 8, "velocity": 85}, {"time": 1216, "pitch": 65, "duration": 9, "velocity": 80}, {"time": 1216, "pitch": 68, "duration": 9, "velocity": 78}, {"time": 1222, "pitch": 58, "duration": 11, "velocity": 52}, {"time": 1228, "pitch": 61, "duration": 6, "velocity": 85}, {"time": 1234, "pitch": 73, "duration": 5, "velocity": 69}, {"time": 1240, "pitch": 51, "duration": 13, "velocity": 76}, {"time": 1240, "pitch": 61, "duration": 8, "velocity": 69}, {"time": 1240, "pitch": 66, "duration": 9, "velocity": 69}, {"time": 1240, "pitch": 70, "duration": 8, "velocity": 73}, {"time": 1240, "pitch": 73, "duration": 2, "velocity": 46}, {"time": 1246, "pitch": 58, "duration": 7, "velocity": 70}, {"time": 1252, "pitch": 61, "duration": 6, "velocity": 88}, {"time": 1258, "pitch": 68, "duration": 4, "velocity": 66}, {"time": 1264, "pitch": 47, "duration": 15, "velocity": 75}, {"time": 1264, "pitch": 63, "duration": 17, "velocity": 75}, {"time": 1264, "pitch": 66, "duration": 15, "velocity": 76}, {"time": 1264, "pitch": 71, "duration": 14, "velocity": 80}, {"time": 1270, "pitch": 54, "duration": 10, "velocity": 66}, {"time": 1276, "pitch": 59, "duration": 6, "velocity": 85}, {"time": 1282, "pitch": 73, "duration": 13, "velocity": 78}, {"time": 1288, "pitch": 49, "duration": 13, "velocity": 78}, {"time": 1288, "pitch": 61, "duration": 8, "velocity": 88}, {"time": 1288, "pitch": 65, "duration": 9, "velocity": 63}, {"time": 1288, "pitch": 68, "duration": 9, "velocity": 69}, {"time": 1294, "pitch": 56, "duration": 7, "velocity": 60}, {"time": 1300, "pitch": 61, "duration": 7, "velocity": 78}, {"time": 1306, "pitch": 66, "duration": 4, "velocity": 55}, {"time": 1312, "pitch": 42, "duration": 43, "velocity": 73}, {"time": 1312, "pitch": 61, "duration": 9, "velocity": 88}, {"time": 1312, "pitch": 66, "duration": 10, "velocity": 61}, {"time": 1312, "pitch": 70, "duration": 11, "velocity": 76}, {"time": 1318, "pitch": 49, "duration": 31, "velocity": 72}, {"time": 1324, "pitch": 54, "duration": 8, "velocity": 62}, {"time": 1330, "pitch": 61, "duration": 10, "velocity": 58}, {"time": 1330, "pitch": 71, "duration": 8, "velocity": 113}, {"time": 1336, "pitch": 66, "duration": 8, "velocity": 50}, {"time": 1342, "pitch": 61, "duration": 3, "velocity": 31}, {"time": 1342, "pitch": 71, "duration": 4, "velocity": 72}, {"time": 1348, "pitch": 54, "duration": 7, "velocity": 69}, {"time": 1348, "pitch": 71, "duration": 3, "velocity": 60}, {"time": 1354, "pitch": 49, "duration": 6, "velocity": 73}, {"time": 1354, "pitch": 77, "duration": 1, "velocity": 49}, {"time": 1360, "pitch": 42, "duration": 43, "velocity": 66}, {"time": 1360, "pitch": 70, "duration": 11, "velocity": 95}, {"time": 1366, "pitch": 49, "duration": 27, "velocity": 57}, {"time": 1372, "pitch": 54, "duration": 8, "velocity": 78}, {"time": 1378, "pitch": 63, "duration": 7, "velocity": 80}, {"time": 1378, "pitch": 66, "duration": 12, "velocity": 61}, {"time": 1378, "pitch": 71, "duration": 9, "velocity": 73}, {"time": 1390, "pitch": 54, "duration": 13, "velocity": 64}, {"time": 1396, "pitch": 63, "duration": 2, "velocity": 80}, {"time": 1396, "pitch": 71, "duration": 3, "velocity": 99}, {"time": 1402, "pitch": 49, "duration": 6, "velocity": 70}, {"time": 1402, "pitch": 78, "duration": 3, "velocity": 76}, {"time": 1408, "pitch": 42, "duration": 42, "velocity": 62}, {"time": 1408, "pitch": 70, "duration": 14, "velocity": 67}, {"time": 1408, "pitch": 73, "duration": 9, "velocity": 73}, {"time": 1414, "pitch": 49, "duration": 26, "velocity": 63}, {"time": 1420, "pitch": 54, "duration": 7, "velocity": 69}, {"time": 1426, "pitch": 68, "duration": 10, "velocity": 82}, {"time": 1426, "pitch": 71, "duration": 8, "velocity": 93}, {"time": 1432, "pitch": 70, "duration": 6, "velocity": 37}, {"time": 1438, "pitch": 54, "duration": 9, "velocity": 76}, {"time": 1444, "pitch": 68, "duration": 3, "velocity": 64}, {"time": 1444, "pitch": 71, "duration": 2, "velocity": 69}, {"time": 1450, "pitch": 49, "duration": 7, "velocity": 72}, {"time": 1450, "pitch": 78, "duration": 5, "velocity": 76}, {"time": 1456, "pitch": 42, "duration": 82, "velocity": 64}, {"time": 1456, "pitch": 54, "duration": 83, "velocity": 67}, {"time": 1456, "pitch": 58, "duration": 28, "velocity": 70}, {"time": 1456, "pitch": 61, "duration": 30, "velocity": 78}, {"time": 1456, "pitch": 66, "duration": 32, "velocity": 76}, {"time": 1504, "pitch": 61, "duration": 11, "velocity": 61}, {"time": 1504, "pitch": 66, "duration": 10, "velocity": 61}, {"time": 1504, "pitch": 70, "duration": 10, "velocity": 64}, {"time": 1528, "pitch": 63, "duration": 9, "velocity": 60}, {"time": 1528, "pitch": 66, "duration": 9, "velocity": 61}, {"time": 1528, "pitch": 71, "duration": 10, "velocity": 70}, {"time": 1552, "pitch": 53, "duration": 39, "velocity": 64}, {"time": 1552, "pitch": 61, "duration": 13, "velocity": 64}, {"time": 1552, "pitch": 65, "duration": 17, "velocity": 69}, {"time": 1552, "pitch": 68, "duration": 18, "velocity": 70}, {"time": 1552, "pitch": 73, "duration": 22, "velocity": 57}, {"time": 1576, "pitch": 61, "duration": 13, "velocity": 38}, {"time": 1588, "pitch": 68, "duration": 12, "velocity": 61}, {"time": 1600, "pitch": 51, "duration": 33, "velocity": 57}, {"time": 1600, "pitch": 58, "duration": 31, "velocity": 62}, {"time": 1600, "pitch": 61, "duration": 20, "velocity": 63}, {"time": 1600, "pitch": 66, "duration": 22, "velocity": 60}, {"time": 1600, "pitch": 70, "duration": 24, "velocity": 61}, {"time": 1624, "pitch": 68, "duration": 12, "velocity": 58}, {"time": 1636, "pitch": 70, "duration": 3, "velocity": 61}, {"time": 1648, "pitch": 47, "duration": 35, "velocity": 56}, {"time": 1648, "pitch": 54, "duration": 33, "velocity": 51}, {"time": 1648, "pitch": 59, "duration": 33, "velocity": 61}, {"time": 1648, "pitch": 63, "duration": 25, "velocity": 57}, {"time": 1648, "pitch": 66, "duration": 24, "velocity": 64}, {"time": 1648, "pitch": 71, "duration": 26, "velocity": 64}, {"time": 1678, "pitch": 63, "duration": 7, "velocity": 44}, {"time": 1684, "pitch": 71, "duration": 3, "velocity": 63}, {"time": 1696, "pitch": 46, "duration": 11, "velocity": 58}, {"time": 1696, "pitch": 58, "duration": 13, "velocity": 56}, {"time": 1696, "pitch": 61, "duration": 12, "velocity": 61}, {"time": 1696, "pitch": 65, "duration": 12, "velocity": 66}, {"time": 1696, "pitch": 68, "duration": 12, "velocity": 63}, {"time": 1720, "pitch": 51, "duration": 11, "velocity": 55}, {"time": 1720, "pitch": 58, "duration": 11, "velocity": 56}, {"time": 1720, "pitch": 61, "duration": 10, "velocity": 57}, {"time": 1720, "pitch": 66, "duration": 11, "velocity": 59}, {"time": 1720, "pitch": 70, "duration": 12, "velocity": 58}, {"time": 1744, "pitch": 47, "duration": 36, "velocity": 76}, {"time": 1744, "pitch": 63, "duration": 13, "velocity": 66}, {"time": 1744, "pitch": 66, "duration": 14, "velocity": 67}, {"time": 1744, "pitch": 71, "duration": 16, "velocity": 69}, {"time": 1750, "pitch": 54, "duration": 29, "velocity": 60}, {"time": 1756, "pitch": 59, "duration": 22, "velocity": 55}, {"time": 1762, "pitch": 63, "duration": 10, "velocity": 44}, {"time": 1768, "pitch": 66, "duration": 12, "velocity": 58}, {"time": 1768, "pitch": 71, "duration": 12, "velocity": 50}, {"time": 1792, "pitch": 49, "duration": 37, "velocity": 72}, {"time": 1792, "pitch": 61, "duration": 7, "velocity": 64}, {"time": 1792, "pitch": 66, "duration": 9, "velocity": 67}, {"time": 1792, "pitch": 68, "duration": 9, "velocity": 64}, {"time": 1792, "pitch": 73, "duration": 14, "velocity": 58}, {"time": 1798, "pitch": 56, "duration": 32, "velocity": 57}, {"time": 1804, "pitch": 61, "duration": 10, "velocity": 56}, {"time": 1810, "pitch": 66, "duration": 6, "velocity": 62}, {"time": 1816, "pitch": 61, "duration": 12, "velocity": 37}, {"time": 1816, "pitch": 65, "duration": 10, "velocity": 64}, {"time": 1816, "pitch": 68, "duration": 11, "velocity": 67}, {"time": 1828, "pitch": 66, "duration": 4, "velocity": 70}, {"time": 1840, "pitch": 42, "duration": 84, "velocity": 72}, {"time": 1840, "pitch": 61, "duration": 12, "velocity": 66}, {"time": 1840, "pitch": 66, "duration": 13, "velocity": 69}, {"time": 1840, "pitch": 70, "duration": 14, "velocity": 64}, {"time": 1852, "pitch": 54, "duration": 20, "velocity": 37}, {"time": 1864, "pitch": 61, "duration": 11, "velocity": 54}, {"time": 1864, "pitch": 66, "duration": 12, "velocity": 59}, {"time": 1864, "pitch": 70, "duration": 12, "velocity": 47}, {"time": 1876, "pitch": 54, "duration": 50, "velocity": 31}, {"time": 1888, "pitch": 61, "duration": 14, "velocity": 41}, {"time": 1888, "pitch": 66, "duration": 14, "velocity": 49}, {"time": 1888, "pitch": 70, "duration": 11, "velocity": 49}, {"time": 1912, "pitch": 61, "duration": 10, "velocity": 58}, {"time": 1912, "pitch": 66, "duration": 10, "velocity": 61}, {"time": 1912, "pitch": 70, "duration": 11, "velocity": 58}, {"time": 1924, "pitch": 68, "duration": 3, "velocity": 57}, {"time": 1936, "pitch": 53, "duration": 32, "velocity": 58}, {"time": 1936, "pitch": 61, "duration": 14, "velocity": 63}, {"time": 1936, "pitch": 65, "duration": 12, "velocity": 63}, {"time": 1936, "pitch": 68, "duration": 12, "velocity": 66}, {"time": 1960, "pitch": 61, "duration": 10, "velocity": 53}, {"time": 1960, "pitch": 65, "duration": 10, "velocity": 59}, {"time": 1960, "pitch": 68, "duration": 11, "velocity": 61}, {"time": 1972, "pitch": 53, "duration": 11, "velocity": 58}, {"time": 1984, "pitch": 51, "duration": 36, "velocity": 58}, {"time": 1984, "pitch": 61, "duration": 12, "velocity": 62}, {"time": 1984, "pitch": 66, "duration": 11, "velocity": 64}, {"time": 1984, "pitch": 70, "duration": 10, "velocity": 58}, {"time": 1996, "pitch": 58, "duration": 16, "velocity": 36}, {"time": 2008, "pitch": 61, "duration": 8, "velocity": 59}, {"time": 2008, "pitch": 66, "duration": 12, "velocity": 63}, {"time": 2020, "pitch": 70, "duration": 3, "velocity": 69}, {"time": 2032, "pitch": 47, "duration": 37, "velocity": 66}, {"time": 2032, "pitch": 63, "duration": 11, "velocity": 66}, {"time": 2032, "pitch": 66, "duration": 11, "velocity": 72}, {"time": 2032, "pitch": 71, "duration": 13, "velocity": 72}, {"time": 2044, "pitch": 54, "duration": 24, "velocity": 31}, {"time": 2056, "pitch": 59, "duration": 13, "velocity": 54}, {"time": 2056, "pitch": 61, "duration": 11, "velocity": 66}, {"time": 2056, "pitch": 66, "duration": 13, "velocity": 70}, {"time": 2068, "pitch": 71, "duration": 4, "velocity": 69}, {"time": 2080, "pitch": 46, "duration": 13, "velocity": 72}, {"time": 2080, "pitch": 61, "duration": 13, "velocity": 67}, {"time": 2080, "pitch": 65, "duration": 13, "velocity": 67}, {"time": 2080, "pitch": 68, "duration": 13, "velocity": 63}, {"time": 2104, "pitch": 51, "duration": 14, "velocity": 39}, {"time": 2104, "pitch": 61, "duration": 12, "velocity": 61}, {"time": 2104, "pitch": 66, "duration": 11, "velocity": 62}, {"time": 2104, "pitch": 70, "duration": 12, "velocity": 59}, {"time": 2116, "pitch": 58, "duration": 3, "velocity": 72}, {"time": 2128, "pitch": 47, "duration": 14, "velocity": 64}, {"time": 2128, "pitch": 63, "duration": 12, "velocity": 66}, {"time": 2128, "pitch": 66, "duration": 12, "velocity": 70}, {"time": 2128, "pitch": 71, "duration": 14, "velocity": 69}, {"time": 2140, "pitch": 54, "duration": 3, "velocity": 70}, {"time": 2152, "pitch": 49, "duration": 14, "velocity": 76}, {"time": 2152, "pitch": 61, "duration": 11, "velocity": 63}, {"time": 2152, "pitch": 65, "duration": 11, "velocity": 70}, {"time": 2152, "pitch": 68, "duration": 13, "velocity": 70}, {"time": 2176, "pitch": 42, "duration": 39, "velocity": 66}, {"time": 2176, "pitch": 61, "duration": 12, "velocity": 58}, {"time": 2176, "pitch": 66, "duration": 14, "velocity": 58}, {"time": 2176, "pitch": 70, "duration": 13, "velocity": 62}, {"time": 2188, "pitch": 49, "duration": 26, "velocity": 48}, {"time": 2194, "pitch": 54, "duration": 19, "velocity": 57}, {"time": 2200, "pitch": 61, "duration": 5, "velocity": 66}, {"time": 2206, "pitch": 63, "duration": 4, "velocity": 63}, {"time": 2212, "pitch": 66, "duration": 4, "velocity": 57}, {"time": 2218, "pitch": 68, "duration": 5, "velocity": 53}, {"time": 2224, "pitch": 42, "duration": 12, "velocity": 73}, {"time": 2224, "pitch": 61, "duration": 27, "velocity": 73}, {"time": 2224, "pitch": 66, "duration": 27, "velocity": 78}, {"time": 2224, "pitch": 70, "duration": 28, "velocity": 75}, {"time": 2230, "pitch": 49, "duration": 7, "velocity": 70}, {"time": 2236, "pitch": 54, "duration": 8, "velocity": 52}, {"time": 2242, "pitch": 56, "duration": 12, "velocity": 58}, {"time": 2248, "pitch": 58, "duration": 6, "velocity": 66}, {"time": 2254, "pitch": 61, "duration": 4, "velocity": 73}, {"time": 2260, "pitch": 66, "duration": 7, "velocity": 67}, {"time": 2266, "pitch": 73, "duration": 5, "velocity": 62}, {"time": 2272, "pitch": 41, "duration": 8, "velocity": 70}, {"time": 2272, "pitch": 61, "duration": 30, "velocity": 78}, {"time": 2272, "pitch": 68, "duration": 20, "velocity": 62}, {"time": 2272, "pitch": 73, "duration": 25, "velocity": 50}, {"time": 2278, "pitch": 53, "duration": 8, "velocity": 61}, {"time": 2284, "pitch": 56, "duration": 26, "velocity": 46}, {"time": 2302, "pitch": 68, "duration": 9, "velocity": 93}, {"time": 2320, "pitch": 51, "duration": 35, "velocity": 70}, {"time": 2320, "pitch": 61, "duration": 8, "velocity": 78}, {"time": 2320, "pitch": 66, "duration": 8, "velocity": 80}, {"time": 2320, "pitch": 70, "duration": 8, "velocity": 70}, {"time": 2326, "pitch": 58, "duration": 16, "velocity": 66}, {"time": 2332, "pitch": 61, "duration": 4, "velocity": 73}, {"time": 2338, "pitch": 61, "duration": 13, "velocity": 78}, {"time": 2338, "pitch": 66, "duration": 15, "velocity": 82}, {"time": 2350, "pitch": 58, "duration": 5, "velocity": 73}, {"time": 2356, "pitch": 61, "duration": 5, "velocity": 72}, {"time": 2362, "pitch": 68, "duration": 4, "velocity": 72}, {"time": 2368, "pitch": 49, "duration": 37, "velocity": 70}, {"time": 2368, "pitch": 61, "duration": 8, "velocity": 75}, {"time": 2368, "pitch": 65, "duration": 11, "velocity": 75}, {"time": 2368, "pitch": 68, "duration": 14, "velocity": 75}, {"time": 2374, "pitch": 56, "duration": 20, "velocity": 63}, {"time": 2380, "pitch": 61, "duration": 24, "velocity": 75}, {"time": 2386, "pitch": 66, "duration": 8, "velocity": 85}, {"time": 2392, "pitch": 68, "duration": 4, "velocity": 70}, {"time": 2398, "pitch": 70, "duration": 7, "velocity": 75}, {"time": 2404, "pitch": 56, "duration": 3, "velocity": 66}, {"time": 2404, "pitch": 73, "duration": 10, "velocity": 67}, {"time": 2410, "pitch": 78, "duration": 4, "velocity": 70}, {"time": 2416, "pitch": 47, "duration": 38, "velocity": 72}, {"time": 2416, "pitch": 71, "duration": 9, "velocity": 88}, {"time": 2416, "pitch": 75, "duration": 8, "velocity": 69}, {"time": 2422, "pitch": 54, "duration": 32, "velocity": 63}, {"time": 2428, "pitch": 59, "duration": 10, "velocity": 76}, {"time": 2434, "pitch": 63, "duration": 14, "velocity": 75}, {"time": 2434, "pitch": 66, "duration": 13, "velocity": 78}, {"time": 2434, "pitch": 71, "duration": 13, "velocity": 76}, {"time": 2446, "pitch": 59, "duration": 7, "velocity": 78}, {"time": 2452, "pitch": 63, "duration": 5, "velocity": 76}, {"time": 2452, "pitch": 71, "duration": 3, "velocity": 62}, {"time": 2458, "pitch": 71, "duration": 3, "velocity": 66}, {"time": 2464, "pitch": 46, "duration": 13, "velocity": 76}, {"time": 2464, "pitch": 61, "duration": 8, "velocity": 85}, {"time": 2464, "pitch": 65, "duration": 9, "velocity": 80}, {"time": 2464, "pitch": 68, "duration": 9, "velocity": 78}, {"time": 2470, "pitch": 58, "duration": 11, "velocity": 52}, {"time": 2476, "pitch": 61, "duration": 6, "velocity": 85}, {"time": 2482, "pitch": 73, "duration": 5, "velocity": 69}, {"time": 2488, "pitch": 51, "duration": 13, "velocity": 76}, {"time": 2488, "pitch": 61, "duration": 8, "velocity": 69}, {"time": 2488, "pitch": 66, "duration": 9, "velocity": 69}, {"time": 2488, "pitch": 70, "duration": 8, "velocity": 73}, {"time": 2488, "pitch": 73, "duration": 2, "velocity": 46}, {"time": 2494, "pitch": 58, "duration": 7, "velocity": 70}, {"time": 2500, "pitch": 61, "duration": 6, "velocity": 88}, {"time": 2506, "pitch": 68, "duration": 4, "velocity": 66}, {"time": 2512, "pitch": 47, "duration": 15, "velocity": 75}, {"time": 2512, "pitch": 63, "duration": 17, "velocity": 75}, {"time": 2512, "pitch": 66, "duration": 15, "velocity": 76}, {"time": 2512, "pitch": 71, "duration": 14, "velocity": 80}, {"time": 2518, "pitch": 54, "duration": 10, "velocity": 66}, {"time": 2524, "pitch": 59, "duration": 6, "velocity": 85}, {"time": 2530, "pitch": 73, "duration": 13, "velocity": 78}, {"time": 2536, "pitch": 49, "duration": 13, "velocity": 78}, {"time": 2536, "pitch": 61, "duration": 8, "velocity": 88}, {"time": 2536, "pitch": 65, "duration": 9, "velocity": 63}, {"time": 2536, "pitch": 68, "duration": 9, "velocity": 69}, {"time": 2542, "pitch": 56, "duration": 7, "velocity": 60}, {"time": 2548, "pitch": 61, "duration": 7, "velocity": 78}, {"time": 2554, "pitch": 66, "duration": 4, "velocity": 55}, {"time": 2560, "pitch": 42, "duration": 43, "velocity": 73}, {"time": 2560, "pitch": 61, "duration": 9, "velocity": 88}, {"time": 2560, "pitch": 66, "duration": 10, "velocity": 61}, {"time": 2560, "pitch": 70, "duration": 11, "velocity": 76}, {"time": 2566, "pitch": 49, "duration": 31, "velocity": 72}, {"time": 2572, "pitch": 54, "duration": 8, "velocity": 62}, {"time": 2578, "pitch": 61, "duration": 10, "velocity": 58}, {"time": 2578, "pitch": 71, "duration": 8, "velocity": 113}, {"time": 2584, "pitch": 66, "duration": 8, "velocity": 50}, {"time": 2590, "pitch": 61, "duration": 3, "velocity": 31}, {"time": 2590, "pitch": 71, "duration": 4, "velocity": 72}, {"time": 2596, "pitch": 54, "duration": 7, "velocity": 69}, {"time": 2596, "pitch": 71, "duration": 3, "velocity": 60}, {"time": 2602, "pitch": 49, "duration": 6, "velocity": 73}, {"time": 2602, "pitch": 77, "duration": 1, "velocity": 49}, {"time": 2608, "pitch": 42, "duration": 43, "velocity": 66}, {"time": 2608, "pitch": 70, "duration": 11, "velocity": 95}, {"time": 2614, "pitch": 49, "duration": 27, "velocity": 57}, {"time": 2620, "pitch": 54, "duration": 8, "velocity": 78}, {"time": 2626, "pitch": 63, "duration": 7, "velocity": 80}, {"time": 2626, "pitch": 66, "duration": 12, "velocity": 61}, {"time": 2626, "pitch": 71, "duration": 9, "velocity": 73}, {"time": 2638, "pitch": 54, "duration": 13, "velocity": 64}, {"time": 2644, "pitch": 63, "duration": 2, "velocity": 80}, {"time": 2644, "pitch": 71, "duration": 3, "velocity": 99}, {"time": 2650, "pitch": 49, "duration": 6, "velocity": 70}, {"time": 2650, "pitch": 78, "duration": 3, "velocity": 76}, {"time": 2656, "pitch": 42, "duration": 42, "velocity": 62}, {"time": 2656, "pitch": 70, "duration": 14, "velocity": 67}, {"time": 2656, "pitch": 73, "duration": 9, "velocity": 73}, {"time": 2662, "pitch": 49, "duration": 26, "velocity": 63}, {"time": 2668, "pitch": 54, "duration": 7, "velocity": 69}, {"time": 2674, "pitch": 68, "duration": 10, "velocity": 82}, {"time": 2674, "pitch": 71, "duration": 8, "velocity": 93}, {"time": 2680, "pitch": 70, "duration": 6, "velocity": 37}, {"time": 2686, "pitch": 54, "duration": 9, "velocity": 76}, {"time": 2692, "pitch": 68, "duration": 3, "velocity": 64}, {"time": 2692, "pitch": 71, "duration": 2, "velocity": 69}, {"time": 2698, "pitch": 49, "duration": 7, "velocity": 72}, {"time": 2698, "pitch": 78, "duration": 5, "velocity": 76}, {"time": 2704, "pitch": 42, "duration": 82, "velocity": 64}, {"time": 2704, "pitch": 54, "duration": 83, "velocity": 67}, {"time": 2704, "pitch": 58, "duration": 28, "velocity": 70}, {"time": 2704, "pitch": 61, "duration": 30, "velocity": 78}, {"time": 2704, "pitch": 66, "duration": 32, "velocity": 76}, {"time": 2752, "pitch": 61, "duration": 11, "velocity": 61}, {"time": 2752, "pitch": 66, "duration": 10, "velocity": 61}, {"time": 2752, "pitch": 70, "duration": 10, "velocity": 64}, {"time": 2776, "pitch": 63, "duration": 9, "velocity": 60}, {"time": 2776, "pitch": 66, "duration": 9, "velocity": 61}, {"time": 2776, "pitch": 71, "duration": 10, "velocity": 70}, {"time": 2800, "pitch": 53, "duration": 39, "velocity": 64}, {"time": 2800, "pitch": 61, "duration": 13, "velocity": 64}, {"time": 2800, "pitch": 65, "duration": 17, "velocity": 69}, {"time": 2800, "pitch": 68, "duration": 18, "velocity": 70}, {"time": 2800, "pitch": 73, "duration": 22, "velocity": 57}, {"time": 2824, "pitch": 61, "duration": 13, "velocity": 38}, {"time": 2836, "pitch": 68, "duration": 12, "velocity": 61}, {"time": 2848, "pitch": 51, "duration": 33, "velocity": 57}, {"time": 2848, "pitch": 58, "duration": 31, "velocity": 62}, {"time": 2848, "pitch": 61, "duration": 20, "velocity": 63}, {"time": 2848, "pitch": 66, "duration": 22, "velocity": 60}, {"time": 2848, "pitch": 70, "duration": 24, "velocity": 61}, {"time": 2872, "pitch": 68, "duration": 12, "velocity": 58}, {"time": 2884, "pitch": 70, "duration": 3, "velocity": 61}, {"time": 2896, "pitch": 47, "duration": 35, "velocity": 56}, {"time": 2896, "pitch": 54, "duration": 33, "velocity": 51}, {"time": 2896, "pitch": 59, "duration": 33, "velocity": 61}, {"time": 2896, "pitch": 63, "duration": 25, "velocity": 57}, {"time": 2896, "pitch": 66, "duration": 24, "velocity": 64}, {"time": 2896, "pitch": 71, "duration": 26, "velocity": 64}, {"time": 2926, "pitch": 63, "duration": 7, "velocity": 44}, {"time": 2932, "pitch": 71, "duration": 3, "velocity": 63}, {"time": 2944, "pitch": 46, "duration": 11, "velocity": 58}, {"time": 2944, "pitch": 58, "duration": 13, "velocity": 56}, {"time": 2944, "pitch": 61, "duration": 12, "velocity": 61}, {"time": 2944, "pitch": 65, "duration": 12, "velocity": 66}, {"time": 2944, "pitch": 68, "duration": 12, "velocity": 63}, {"time": 2968, "pitch": 51, "duration": 11, "velocity": 55}, {"time": 2968, "pitch": 58, "duration": 11, "velocity": 56}, {"time": 2968, "pitch": 61, "duration": 10, "velocity": 57}, {"time": 2968, "pitch": 66, "duration": 11, "velocity": 59}, {"time": 2968, "pitch": 70, "duration": 12, "velocity": 58}, {"time": 2992, "pitch": 47, "duration": 36, "velocity": 76}, {"time": 2992, "pitch": 63, "duration": 13, "velocity": 66}, {"time": 2992, "pitch": 66, "duration": 14, "velocity": 67}, {"time": 2992, "pitch": 71, "duration": 16, "velocity": 69}, {"time": 2998, "pitch": 54, "duration": 29, "velocity": 60}, {"time": 3004, "pitch": 59, "duration": 22, "velocity": 55}, {"time": 3010, "pitch": 63, "duration": 10, "velocity": 44}, {"time": 3016, "pitch": 66, "duration": 12, "velocity": 58}, {"time": 3016, "pitch": 71, "duration": 12, "velocity": 50}, {"time": 3067, "pitch": 37, "duration": 13, "velocity": 72}, {"time": 3067, "pitch": 49, "duration": 13, "velocity": 91}, {"time": 3067, "pitch": 56, "duration": 14, "velocity": 82}, {"time": 3067, "pitch": 61, "duration": 13, "velocity": 88}, {"time": 3067, "pitch": 65, "duration": 13, "velocity": 82}, {"time": 3088, "pitch": 49, "duration": 5, "velocity": 78}, {"time": 3088, "pitch": 59, "duration": 11, "velocity": 76}, {"time": 3088, "pitch": 63, "duration": 11, "velocity": 82}, {"time": 3088, "pitch": 66, "duration": 11, "velocity": 67}, {"time": 3136, "pitch": 37, "duration": 8, "velocity": 80}, {"time": 3136, "pitch": 49, "duration": 8, "velocity": 93}, {"time": 3136, "pitch": 56, "duration": 7, "velocity": 78}, {"time": 3136, "pitch": 61, "duration": 7, "velocity": 99}, {"time": 3136, "pitch": 65, "duration": 7, "velocity": 78}, {"time": 3148, "pitch": 37, "duration": 13, "velocity": 73}, {"time": 3148, "pitch": 49, "duration": 6, "velocity": 88}, {"time": 3148, "pitch": 56, "duration": 12, "velocity": 91}, {"time": 3148, "pitch": 61, "duration": 11, "velocity": 97}, {"time": 3148, "pitch": 65, "duration": 10, "velocity": 82}, {"time": 3160, "pitch": 49, "duration": 3, "velocity": 75}, {"time": 3175, "pitch": 37, "duration": 5, "velocity": 58}, {"time": 3178, "pitch": 49, "duration": 3, "velocity": 41}, {"time": 3184, "pitch": 47, "duration": 32, "velocity": 99}, {"time": 3184, "pitch": 59, "duration": 17, "velocity": 95}, {"time": 3184, "pitch": 63, "duration": 18, "velocity": 88}, {"time": 3184, "pitch": 66, "duration": 18, "velocity": 70}, {"time": 3208, "pitch": 59, "duration": 14, "velocity": 91}, {"time": 3208, "pitch": 63, "duration": 15, "velocity": 85}, {"time": 3208, "pitch": 66, "duration": 13, "velocity": 78}, {"time": 3220, "pitch": 47, "duration": 10, "velocity": 91}, {"time": 3256, "pitch": 47, "duration": 4, "velocity": 82}, {"time": 3256, "pitch": 59, "duration": 3, "velocity": 70}, {"time": 3256, "pitch": 63, "duration": 3, "velocity": 72}, {"time": 3256, "pitch": 66, "duration": 3, "velocity": 75}, {"time": 3256, "pitch": 71, "duration": 4, "velocity": 75}, {"time": 3262, "pitch": 49, "duration": 11, "velocity": 75}, {"time": 3262, "pitch": 61, "duration": 12, "velocity": 80}, {"time": 3262, "pitch": 65, "duration": 12, "velocity": 93}, {"time": 3262, "pitch": 68, "duration": 15, "velocity": 80}, {"time": 3262, "pitch": 73, "duration": 15, "velocity": 80}, {"time": 3280, "pitch": 51, "duration": 37, "velocity": 73}, {"time": 3280, "pitch": 58, "duration": 30, "velocity": 73}, {"time": 3280, "pitch": 63, "duration": 15, "velocity": 73}, {"time": 3280, "pitch": 66, "duration": 16, "velocity": 78}, {"time": 3280, "pitch": 70, "duration": 18, "velocity": 75}, {"time": 3280, "pitch": 73, "duration": 18, "velocity": 64}, {"time": 3304, "pitch": 63, "duration": 13, "velocity": 69}, {"time": 3304, "pitch": 66, "duration": 13, "velocity": 72}, {"time": 3304, "pitch": 70, "duration": 14, "velocity": 70}, {"time": 3304, "pitch": 73, "duration": 13, "velocity": 49}, {"time": 3313, "pitch": 58, "duration": 3, "velocity": 64}, {"time": 3328, "pitch": 49, "duration": 30, "velocity": 73}, {"time": 3328, "pitch": 61, "duration": 15, "velocity": 75}, {"time": 3328, "pitch": 65, "duration": 15, "velocity": 78}, {"time": 3328, "pitch": 68, "duration": 15, "velocity": 76}, {"time": 3340, "pitch": 58, "duration": 17, "velocity": 49}, {"time": 3352, "pitch": 61, "duration": 13, "velocity": 73}, {"time": 3352, "pitch": 65, "duration": 11, "velocity": 76}, {"time": 3352, "pitch": 68, "duration": 13, "velocity": 75}, {"time": 3364, "pitch": 49, "duration": 3, "velocity": 72}, {"time": 3364, "pitch": 58, "duration": 1, "velocity": 57}, {"time": 3376, "pitch": 47, "duration": 37, "velocity": 82}, {"time": 3376, "pitch": 59, "duration": 13, "velocity": 76}, {"time": 3376, "pitch": 63, "duration": 15, "velocity": 75}, {"time": 3376, "pitch": 66, "duration": 17, "velocity": 78}, {"time": 3376, "pitch": 71, "duration": 17, "velocity": 76}, {"time": 3394, "pitch": 59, "duration": 12, "velocity": 30}, {"time": 3400, "pitch": 63, "duration": 13, "velocity": 70}, {"time": 3400, "pitch": 66, "duration": 13, "velocity": 76}, {"time": 3400, "pitch": 71, "duration": 13, "velocity": 72}, {"time": 3412, "pitch": 59, "duration": 4, "velocity": 62}, {"time": 3424, "pitch": 47, "duration": 20, "velocity": 76}, {"time": 3424, "pitch": 59, "duration": 12, "velocity": 75}, {"time": 3424, "pitch": 63, "duration": 16, "velocity": 70}, {"time": 3424, "pitch": 66, "duration": 16, "velocity": 75}, {"time": 3424, "pitch": 71, "duration": 17, "velocity": 75}, {"time": 3436, "pitch": 59, "duration": 4, "velocity": 64}, {"time": 3448, "pitch": 47, "duration": 4, "velocity": 82}, {"time": 3448, "pitch": 59, "duration": 3, "velocity": 67}, {"time": 3448, "pitch": 63, "duration": 3, "velocity": 78}, {"time": 3448, "pitch": 66, "duration": 3, "velocity": 88}, {"time": 3448, "pitch": 71, "duration": 4, "velocity": 80}, {"time": 3454, "pitch": 46, "duration": 10, "velocity": 75}, {"time": 3454, "pitch": 58, "duration": 9, "velocity": 95}, {"time": 3454, "pitch": 61, "duration": 9, "velocity": 88}, {"time": 3454, "pitch": 66, "duration": 9, "velocity": 99}, {"time": 3454, "pitch": 70, "duration": 10, "velocity": 85}, {"time": 3472, "pitch": 44, "duration": 39, "velocity": 75}, {"time": 3472, "pitch": 56, "duration": 28, "velocity": 85}, {"time": 3472, "pitch": 63, "duration": 15, "velocity": 76}, {"time": 3472, "pitch": 66, "duration": 18, "velocity": 85}, {"time": 3472, "pitch": 71, "duration": 18, "velocity": 80}, {"time": 3496, "pitch": 63, "duration": 15, "velocity": 73}, {"time": 3496, "pitch": 66, "duration": 14, "velocity": 82}, {"time": 3496, "pitch": 71, "duration": 15, "velocity": 76}, {"time": 3508, "pitch": 56, "duration": 6, "velocity": 63}, {"time": 3520, "pitch": 46, "duration": 39, "velocity": 72}, {"time": 3520, "pitch": 58, "duration": 30, "velocity": 72}, {"time": 3520, "pitch": 61, "duration": 15, "velocity": 78}, {"time": 3520, "pitch": 66, "duration": 16, "velocity": 78}, {"time": 3520, "pitch": 70, "duration": 16, "velocity": 76}, {"time": 3544, "pitch": 61, "duration": 15, "velocity": 80}, {"time": 3544, "pitch": 66, "duration": 15, "velocity": 78}, {"time": 3544, "pitch": 70, "duration": 15, "velocity": 72}, {"time": 3556, "pitch": 58, "duration": 3, "velocity": 67}, {"time": 3568, "pitch": 47, "duration": 38, "velocity": 82}, {"time": 3568, "pitch": 59, "duration": 29, "velocity": 91}, {"time": 3568, "pitch": 63, "duration": 20, "velocity": 82}, {"time": 3568, "pitch": 66, "duration": 20, "velocity": 80}, {"time": 3568, "pitch": 71, "duration": 21, "velocity": 72}, {"time": 3592, "pitch": 63, "duration": 14, "velocity": 85}, {"time": 3592, "pitch": 66, "duration": 14, "velocity": 78}, {"time": 3592, "pitch": 71, "duration": 15, "velocity": 78}, {"time": 3601, "pitch": 59, "duration": 4, "velocity": 75}, {"time": 3616, "pitch": 47, "duration": 31, "velocity": 78}, {"time": 3616, "pitch": 59, "duration": 11, "velocity": 85}, {"time": 3616, "pitch": 63, "duration": 16, "velocity": 76}, {"time": 3616, "pitch": 66, "duration": 16, "velocity": 82}, {"time": 3616, "pitch": 71, "duration": 16, "velocity": 75}, {"time": 3631, "pitch": 59, "duration": 14, "velocity": 39}, {"time": 3640, "pitch": 63, "duration": 11, "velocity": 73}, {"time": 3640, "pitch": 66, "duration": 11, "velocity": 82}, {"time": 3640, "pitch": 71, "duration": 14, "velocity": 80}, {"time": 3652, "pitch": 49, "duration": 4, "velocity": 72}, {"time": 3664, "pitch": 44, "duration": 39, "velocity": 72}, {"time": 3664, "pitch": 56, "duration": 31, "velocity": 80}, {"time": 3664, "pitch": 63, "duration": 21, "velocity": 72}, {"time": 3664, "pitch": 66, "duration": 20, "velocity": 82}, {"time": 3664, "pitch": 71, "duration": 20, "velocity": 75}, {"time": 3688, "pitch": 63, "duration": 14, "velocity": 78}, {"time": 3688, "pitch": 66, "duration": 14, "velocity": 80}, {"time": 3688, "pitch": 71, "duration": 14, "velocity": 78}, {"time": 3700, "pitch": 56, "duration": 3, "velocity": 70}, {"time": 3712, "pitch": 46, "duration": 37, "velocity": 69}, {"time": 3712, "pitch": 58, "duration": 31, "velocity": 75}, {"time": 3712, "pitch": 61, "duration": 19, "velocity": 82}, {"time": 3712, "pitch": 66, "duration": 18, "velocity": 88}, {"time": 3712, "pitch": 70, "duration": 19, "velocity": 73}, {"time": 3712, "pitch": 73, "duration": 18, "velocity": 69}, {"time": 3736, "pitch": 61, "duration": 14, "velocity": 82}, {"time": 3736, "pitch": 66, "duration": 14, "velocity": 85}, {"time": 3736, "pitch": 70, "duration": 14, "velocity": 82}, {"time": 3748, "pitch": 58, "duration": 2, "velocity": 63}, {"time": 3760, "pitch": 63, "duration": 20, "velocity": 66}, {"time": 3760, "pitch": 66, "duration": 20, "velocity": 70}, {"time": 3760, "pitch": 71, "duration": 20, "velocity": 76}, {"time": 3784, "pitch": 63, "duration": 19, "velocity": 91}, {"time": 3784, "pitch": 66, "duration": 20, "velocity": 97}, {"time": 3784, "pitch": 71, "duration": 16, "velocity": 88}, {"time": 3787, "pitch": 49, "duration": 16, "velocity": 70}, {"time": 3796, "pitch": 56, "duration": 9, "velocity": 56}, {"time": 3808, "pitch": 49, "duration": 34, "velocity": 67}, {"time": 3808, "pitch": 63, "duration": 14, "velocity": 75}, {"time": 3808, "pitch": 66, "duration": 15, "velocity": 78}, {"time": 3808, "pitch": 71, "duration": 14, "velocity": 76}, {"time": 3826, "pitch": 56, "duration": 7, "velocity": 69}, {"time": 3832, "pitch": 63, "duration": 6, "velocity": 85}, {"time": 3832, "pitch": 66, "duration": 8, "velocity": 85}, {"time": 3832, "pitch": 71, "duration": 8, "velocity": 82}, {"time": 3838, "pitch": 56, "duration": 4, "velocity": 76}, {"time": 3844, "pitch": 68, "duration": 7, "velocity": 70}, {"time": 3850, "pitch": 70, "duration": 3, "velocity": 70}, {"time": 3856, "pitch": 42, "duration": 12, "velocity": 73}, {"time": 3856, "pitch": 61, "duration": 27, "velocity": 73}, {"time": 3856, "pitch": 66, "duration": 27, "velocity": 78}, {"time": 3856, "pitch": 70, "duration": 28, "velocity": 75}, {"time": 3862, "pitch": 49, "duration": 7, "velocity": 70}, {"time": 3868, "pitch": 54, "duration": 8, "velocity": 52}, {"time": 3874, "pitch": 56, "duration": 12, "velocity": 58}, {"time": 3880, "pitch": 58, "duration": 6, "velocity": 66}, {"time": 3886, "pitch": 61, "duration": 4, "velocity": 73}, {"time": 3892, "pitch": 66, "duration": 7, "velocity": 67}, {"time": 3898, "pitch": 73, "duration": 5, "velocity": 62}, {"time": 3904, "pitch": 41, "duration": 8, "velocity": 70}, {"time": 3904, "pitch": 61, "duration": 30, "velocity": 78}, {"time": 3904, "pitch": 68, "duration": 20, "velocity": 62}, {"time": 3904, "pitch": 73, "duration": 25, "velocity": 50}, {"time": 3910, "pitch": 53, "duration": 8, "velocity": 61}, {"time": 3916, "pitch": 56, "duration": 26, "velocity": 46}, {"time": 3934, "pitch": 68, "duration": 9, "velocity": 93}, {"time": 3952, "pitch": 51, "duration": 35, "velocity": 70}, {"time": 3952, "pitch": 61, "duration": 8, "velocity": 78}, {"time": 3952, "pitch": 66, "duration": 8, "velocity": 80}, {"time": 3952, "pitch": 70, "duration": 8, "velocity": 70}, {"time": 3958, "pitch": 58, "duration": 16, "velocity": 66}, {"time": 3964, "pitch": 61, "duration": 4, "velocity": 73}, {"time": 3970, "pitch": 61, "duration": 13, "velocity": 78}, {"time": 3970, "pitch": 66, "duration": 15, "velocity": 82}, {"time": 3982, "pitch": 58, "duration": 5, "velocity": 73}, {"time": 3988, "pitch": 61, "duration": 5, "velocity": 72}, {"time": 3994, "pitch": 68, "duration": 4, "velocity": 72}, {"time": 4000, "pitch": 49, "duration": 37, "velocity": 70}, {"time": 4000, "pitch": 61, "duration": 8, "velocity": 75}, {"time": 4000, "pitch": 65, "duration": 11, "velocity": 75}, {"time": 4000, "pitch": 68, "duration": 14, "velocity": 75}, {"time": 4006, "pitch": 56, "duration": 20, "velocity": 63}, {"time": 4012, "pitch": 61, "duration": 24, "velocity": 75}, {"time": 4018, "pitch": 66, "duration": 8, "velocity": 85}, {"time": 4024, "pitch": 68, "duration": 4, "velocity": 70}, {"time": 4030, "pitch": 70, "duration": 7, "velocity": 75}, {"time": 4036, "pitch": 56, "duration": 3, "velocity": 66}, {"time": 4036, "pitch": 73, "duration": 10, "velocity": 67}, {"time": 4042, "pitch": 78, "duration": 4, "velocity": 70}, {"time": 4048, "pitch": 47, "duration": 38, "velocity": 72}, {"time": 4048, "pitch": 71, "duration": 9, "velocity": 88}, {"time": 4048, "pitch": 75, "duration": 8, "velocity": 69}, {"time": 4054, "pitch": 54, "duration": 32, "velocity": 63}, {"time": 4060, "pitch": 59, "duration": 10, "velocity": 76}, {"time": 4066, "pitch": 63, "duration": 14, "velocity": 75}, {"time": 4066, "pitch": 66, "duration": 13, "velocity": 78}, {"time": 4066, "pitch": 71, "duration": 13, "velocity": 76}, {"time": 4078, "pitch": 59, "duration": 7, "velocity": 78}, {"time": 4084, "pitch": 63, "duration": 5, "velocity": 76}, {"time": 4084, "pitch": 71, "duration": 3, "velocity": 62}, {"time": 4090, "pitch": 71, "duration": 3, "velocity": 66}, {"time": 4096, "pitch": 46, "duration": 13, "velocity": 76}, {"time": 4096, "pitch": 61, "duration": 8, "velocity": 85}, {"time": 4096, "pitch": 65, "duration": 9, "velocity": 80}, {"time": 4096, "pitch": 68, "duration": 9, "velocity": 78}, {"time": 4102, "pitch": 58, "duration": 11, "velocity": 52}, {"time": 4108, "pitch": 61, "duration": 6, "velocity": 85}, {"time": 4114, "pitch": 73, "duration": 5, "velocity": 69}, {"time": 4120, "pitch": 51, "duration": 13, "velocity": 76}, {"time": 4120, "pitch": 61, "duration": 8, "velocity": 69}, {"time": 4120, "pitch": 66, "duration": 9, "velocity": 69}, {"time": 4120, "pitch": 70, "duration": 8, "velocity": 73}, {"time": 4120, "pitch": 73, "duration": 2, "velocity": 46}, {"time": 4126, "pitch": 58, "duration": 7, "velocity": 70}, {"time": 4132, "pitch": 61, "duration": 6, "velocity": 88}, {"time": 4138, "pitch": 68, "duration": 4, "velocity": 66}, {"time": 4144, "pitch": 47, "duration": 15, "velocity": 75}, {"time": 4144, "pitch": 63, "duration": 17, "velocity": 75}, {"time": 4144, "pitch": 66, "duration": 15, "velocity": 76}, {"time": 4144, "pitch": 71, "duration": 14, "velocity": 80}, {"time": 4150, "pitch": 54, "duration": 10, "velocity": 66}, {"time": 4156, "pitch": 59, "duration": 6, "velocity": 85}, {"time": 4162, "pitch": 73, "duration": 13, "velocity": 78}, {"time": 4168, "pitch": 49, "duration": 13, "velocity": 78}, {"time": 4168, "pitch": 61, "duration": 8, "velocity": 88}, {"time": 4168, "pitch": 65, "duration": 9, "velocity": 63}, {"time": 4168, "pitch": 68, "duration": 9, "velocity": 69}, {"time": 4174, "pitch": 56, "duration": 7, "velocity": 60}, {"time": 4180, "pitch": 61, "duration": 7, "velocity": 78}, {"time": 4186, "pitch": 66, "duration": 4, "velocity": 55}, {"time": 4192, "pitch": 42, "duration": 43, "velocity": 73}, {"time": 4192, "pitch": 61, "duration": 9, "velocity": 88}, {"time": 4192, "pitch": 66, "duration": 10, "velocity": 61}, {"time": 4192, "pitch": 70, "duration": 11, "velocity": 76}, {"time": 4198, "pitch": 49, "duration": 31, "velocity": 72}, {"time": 4204, "pitch": 54, "duration": 8, "velocity": 62}, {"time": 4210, "pitch": 61, "duration": 10, "velocity": 58}, {"time": 4210, "pitch": 71, "duration": 8, "velocity": 113}, {"time": 4216, "pitch": 66, "duration": 8, "velocity": 50}, {"time": 4222, "pitch": 61, "duration": 3, "velocity": 31}, {"time": 4222, "pitch": 71, "duration": 4, "velocity": 72}, {"time": 4228, "pitch": 54, "duration": 7, "velocity": 69}, {"time": 4228, "pitch": 71, "duration": 3, "velocity": 60}, {"time": 4234, "pitch": 49, "duration": 6, "velocity": 73}, {"time": 4234, "pitch": 77, "duration": 1, "velocity": 49}, {"time": 4240, "pitch": 42, "duration": 43, "velocity": 66}, {"time": 4240, "pitch": 70, "duration": 11, "velocity": 95}, {"time": 4246, "pitch": 49, "duration": 27, "velocity": 57}, {"time": 4252, "pitch": 54, "duration": 8, "velocity": 78}, {"time": 4258, "pitch": 63, "duration": 7, "velocity": 80}, {"time": 4258, "pitch": 66, "duration": 12, "velocity": 61}, {"time": 4258, "pitch": 71, "duration": 9, "velocity": 73}, {"time": 4270, "pitch": 54, "duration": 13, "velocity": 64}, {"time": 4276, "pitch": 63, "duration": 2, "velocity": 80}, {"time": 4276, "pitch": 71, "duration": 3, "velocity": 99}, {"time": 4282, "pitch": 49, "duration": 6, "velocity": 70}, {"time": 4282, "pitch": 78, "duration": 3, "velocity": 76}, {"time": 4288, "pitch": 42, "duration": 42, "velocity": 62}, {"time": 4288, "pitch": 70, "duration": 14, "velocity": 67}, {"time": 4288, "pitch": 73, "duration": 9, "velocity": 73}, {"time": 4294, "pitch": 49, "duration": 26, "velocity": 63}, {"time": 4300, "pitch": 54, "duration": 7, "velocity": 69}, {"time": 4306, "pitch": 68, "duration": 10, "velocity": 82}, {"time": 4306, "pitch": 71, "duration": 8, "velocity": 93}, {"time": 4312, "pitch": 70, "duration": 6, "velocity": 37}, {"time": 4318, "pitch": 54, "duration": 9, "velocity": 76}, {"time": 4324, "pitch": 68, "duration": 3, "velocity": 64}, {"time": 4324, "pitch": 71, "duration": 2, "velocity": 69}, {"time": 4330, "pitch": 49, "duration": 7, "velocity": 72}, {"time": 4330, "pitch": 78, "duration": 5, "velocity": 76}, {"time": 4336, "pitch": 42, "duration": 82, "velocity": 64}, {"time": 4336, "pitch": 54, "duration": 83, "velocity": 67}, {"time": 4336, "pitch": 58, "duration": 28, "velocity": 70}, {"time": 4336, "pitch": 61, "duration": 30, "velocity": 78}, {"time": 4336, "pitch": 66, "duration": 32, "velocity": 76}, {"time": 4384, "pitch": 61, "duration": 11, "velocity": 61}, {"time": 4384, "pitch": 66, "duration": 10, "velocity": 61}, {"time": 4384, "pitch": 70, "duration": 10, "velocity": 64}, {"time": 4408, "pitch": 63, "duration": 9, "velocity": 60}, {"time": 4408, "pitch": 66, "duration": 9, "velocity": 61}, {"time": 4408, "pitch": 71, "duration": 10, "velocity": 70}, {"time": 4432, "pitch": 53, "duration": 39, "velocity": 64}, {"time": 4432, "pitch": 61, "duration": 13, "velocity": 64}, {"time": 4432, "pitch": 65, "duration": 17, "velocity": 69}, {"time": 4432, "pitch": 68, "duration": 18, "velocity": 70}, {"time": 4432, "pitch": 73, "duration": 22, "velocity": 57}, {"time": 4456, "pitch": 61, "duration": 13, "velocity": 38}, {"time": 4468, "pitch": 68, "duration": 12, "velocity": 61}, {"time": 4480, "pitch": 51, "duration": 33, "velocity": 57}, {"time": 4480, "pitch": 58, "duration": 31, "velocity": 62}, {"time": 4480, "pitch": 61, "duration": 20, "velocity": 63}, {"time": 4480, "pitch": 66, "duration": 22, "velocity": 60}, {"time": 4480, "pitch": 70, "duration": 24, "velocity": 61}, {"time": 4504, "pitch": 68, "duration": 12, "velocity": 58}, {"time": 4516, "pitch": 70, "duration": 3, "velocity": 61}, {"time": 4528, "pitch": 47, "duration": 35, "velocity": 56}, {"time": 4528, "pitch": 54, "duration": 33, "velocity": 51}, {"time": 4528, "pitch": 59, "duration": 33, "velocity": 61}, {"time": 4528, "pitch": 63, "duration": 25, "velocity": 57}, {"time": 4528, "pitch": 66, "duration": 24, "velocity": 64}, {"time": 4528, "pitch": 71, "duration": 26, "velocity": 64}, {"time": 4558, "pitch": 63, "duration": 7, "velocity": 44}, {"time": 4564, "pitch": 71, "duration": 3, "velocity": 63}, {"time": 4576, "pitch": 46, "duration": 11, "velocity": 58}, {"time": 4576, "pitch": 58, "duration": 13, "velocity": 56}, {"time": 4576, "pitch": 61, "duration": 12, "velocity": 61}, {"time": 4576, "pitch": 65, "duration": 12, "velocity": 66}, {"time": 4576, "pitch": 68, "duration": 12, "velocity": 63}, {"time": 4600, "pitch": 51, "duration": 11, "velocity": 55}, {"time": 4600, "pitch": 58, "duration": 11, "velocity": 56}, {"time": 4600, "pitch": 61, "duration": 10, "velocity": 57}, {"time": 4600, "pitch": 66, "duration": 11, "velocity": 59}, {"time": 4600, "pitch": 70, "duration": 12, "velocity": 58}, {"time": 4624, "pitch": 47, "duration": 36, "velocity": 76}, {"time": 4624, "pitch": 63, "duration": 13, "velocity": 66}, {"time": 4624, "pitch": 66, "duration": 14, "velocity": 67}, {"time": 4624, "pitch": 71, "duration": 16, "velocity": 69}, {"time": 4630, "pitch": 54, "duration": 29, "velocity": 60}, {"time": 4636, "pitch": 59, "duration": 22, "velocity": 55}, {"time": 4642, "pitch": 63, "duration": 10, "velocity": 44}, {"time": 4648, "pitch": 66, "duration": 12, "velocity": 58}, {"time": 4648, "pitch": 71, "duration": 12, "velocity": 50}, {"time": 4671, "pitch": 66, "duration": 9, "velocity": 67}, {"time": 4672, "pitch": 70, "duration": 9, "velocity": 69}, {"time": 4672, "pitch": 61, "duration": 8, "velocity": 67}, {"time": 4672, "pitch": 54, "duration": 41, "velocity": 63}, {"time": 4683, "pitch": 58, "duration": 9, "velocity": 41}, {"time": 4689, "pitch": 71, "duration": 8, "velocity": 70}, {"time": 4689, "pitch": 63, "duration": 5, "velocity": 61}, {"time": 4689, "pitch": 66, "duration": 4, "velocity": 57}, {"time": 4700, "pitch": 58, "duration": 7, "velocity": 25}, {"time": 4706, "pitch": 73, "duration": 9, "velocity": 73}, {"time": 4706, "pitch": 63, "duration": 7, "velocity": 62}, {"time": 4706, "pitch": 66, "duration": 5, "velocity": 60}, {"time": 4713, "pitch": 58, "duration": 8, "velocity": 52}, {"time": 4719, "pitch": 70, "duration": 10, "velocity": 66}, {"time": 4719, "pitch": 66, "duration": 10, "velocity": 59}, {"time": 4720, "pitch": 61, "duration": 9, "velocity": 64}, {"time": 4720, "pitch": 54, "duration": 42, "velocity": 64}, {"time": 4732, "pitch": 58, "duration": 11, "velocity": 36}, {"time": 4739, "pitch": 71, "duration": 4, "velocity": 70}, {"time": 4739, "pitch": 63, "duration": 3, "velocity": 61}, {"time": 4739, "pitch": 66, "duration": 3, "velocity": 58}, {"time": 4750, "pitch": 58, "duration": 6, "velocity": 37}, {"time": 4756, "pitch": 73, "duration": 6, "velocity": 61}, {"time": 4763, "pitch": 75, "duration": 3, "velocity": 62}, {"time": 4764, "pitch": 58, "duration": 3, "velocity": 32}, {"time": 4769, "pitch": 66, "duration": 9, "velocity": 51}, {"time": 4769, "pitch": 70, "duration": 9, "velocity": 45}, {"time": 4769, "pitch": 54, "duration": 41, "velocity": 59}, {"time": 4770, "pitch": 73, "duration": 8, "velocity": 34}, {"time": 4780, "pitch": 58, "duration": 9, "velocity": 47}, {"time": 4786, "pitch": 71, "duration": 8, "velocity": 61}, {"time": 4786, "pitch": 66, "duration": 7, "velocity": 54}, {"time": 4786, "pitch": 63, "duration": 6, "velocity": 54}, {"time": 4797, "pitch": 58, "duration": 8, "velocity": 47}, {"time": 4804, "pitch": 66, "duration": 6, "velocity": 66}, {"time": 4804, "pitch": 73, "duration": 7, "velocity": 67}, {"time": 4810, "pitch": 58, "duration": 7, "velocity": 53}, {"time": 4816, "pitch": 54, "duration": 37, "velocity": 60}, {"time": 4816, "pitch": 70, "duration": 11, "velocity": 64}, {"time": 4816, "pitch": 68, "duration": 4, "velocity": 66}, {"time": 4817, "pitch": 65, "duration": 6, "velocity": 39}, {"time": 4828, "pitch": 58, "duration": 9, "velocity": 46}, {"time": 4834, "pitch": 71, "duration": 4, "velocity": 70}, {"time": 4834, "pitch": 66, "duration": 7, "velocity": 63}, {"time": 4845, "pitch": 58, "duration": 7, "velocity": 53}, {"time": 4851, "pitch": 68, "duration": 3, "velocity": 93}, {"time": 4851, "pitch": 73, "duration": 6, "velocity": 67}, {"time": 4857, "pitch": 58, "duration": 5, "velocity": 44}, {"time": 4863, "pitch": 70, "duration": 7, "velocity": 73}, {"time": 4863, "pitch": 66, "duration": 8, "velocity": 76}, {"time": 4863, "pitch": 61, "duration": 7, "velocity": 82}, {"time": 4864, "pitch": 54, "duration": 35, "velocity": 82}, {"time": 4874, "pitch": 58, "duration": 8, "velocity": 55}, {"time": 4881, "pitch": 71, "duration": 9, "velocity": 95}, {"time": 4881, "pitch": 66, "duration": 3, "velocity": 85}, {"time": 4881, "pitch": 63, "duration": 3, "velocity": 73}, {"time": 4892, "pitch": 58, "duration": 6, "velocity": 80}, {"time": 4899, "pitch": 66, "duration": 3, "velocity": 97}, {"time": 4899, "pitch": 73, "duration": 4, "velocity": 91}, {"time": 4899, "pitch": 63, "duration": 3, "velocity": 85}, {"time": 4905, "pitch": 73, "duration": 2, "velocity": 34}, {"time": 4911, "pitch": 42, "duration": 69, "velocity": 76}, {"time": 4911, "pitch": 66, "duration": 69, "velocity": 93}, {"time": 4911, "pitch": 70, "duration": 69, "velocity": 76}, {"time": 4911, "pitch": 54, "duration": 68, "velocity": 80}, {"time": 4911, "pitch": 73, "duration": 70, "velocity": 64}, {"time": 4911, "pitch": 61, "duration": 69, "velocity": 95}], "annotations": [{"time": 17, "annotation": {"number": 64, "value": 127}, "group": "control_change"}, {"time": 62, "annotation": {"number": 64, "value": 0}, "group": "control_change"}, {"time": 66, "annotation": {"number": 64, "value": 127}, "group": "control_change"}, {"time": 109, "annotation": {"number": 64, "value": 0}, "group": "control_change"}, {"time": 113, "annotation": {"number": 64, "value": 127}, "group": "control_change"}, {"time": 158, "annotation": {"number": 64, "value": 0}, "group": "control_change"}, {"time": 162, "annotation": {"number": 64, "value": 127}, "group": "control_change"}, {"time": 205, "annotation": {"number": 64, "value": 0}, "group": "control_change"}, {"time": 217, "annotation": {"number": 64, "value": 127}, "group": "control_change"}, {"time": 257, "annotation": {"number": 64, "value": 0}, "group": "control_change"}, {"time": 261, "annotation": {"number": 64, "value": 127}, "group": "control_change"}, {"time": 304, "annotation": {"number": 64, "value": 0}, "group": "control_change"}, {"time": 309, "annotation": {"number": 64, "value": 127}, "group": "control_change"}, {"time": 350, "annotation": {"number": 64, "value": 0}, "group": "control_change"}, {"time": 354, "annotation": {"number": 64, "value": 127}, "group": "control_change"}, {"time": 396, "annotation": {"number": 64, "value": 0}, "group": "control_change"}, {"time": 402, "annotation": {"number": 64, "value": 127}, "group": "control_change"}, {"time": 446, "annotation": {"number": 64, "value": 0}, "group": "control_change"}, {"time": 450, "annotation": {"number": 64, "value": 127}, "group": "control_change"}, {"time": 473, "annotation": {"number": 64, "value": 0}, "group": "control_change"}, {"time": 477, "annotation": {"number": 64, "value": 127}, "group": "control_change"}, {"time": 496, "annotation": {"number": 64, "value": 0}, "group": "control_change"}, {"time": 500, "annotation": {"number": 64, "value": 127}, "group": "control_change"}, {"time": 541, "annotation": {"number": 64, "value": 0}, "group": "control_change"}, {"time": 545, "annotation": {"number": 64, "value": 127}, "group": "control_change"}, {"time": 592, "annotation": {"number": 64, "value": 0}, "group": "control_change"}, {"time": 599, "annotation": {"number": 64, "value": 127}, "group": "control_change"}, {"time": 639, "annotation": {"number": 64, "value": 0}, "group": "control_change"}, {"time": 642, "annotation": {"number": 64, "value": 127}, "group": "control_change"}, {"time": 688, "annotation": {"number": 64, "value": 0}, "group": "control_change"}, {"time": 689, "annotation": {"number": 64, "value": 127}, "group": "control_change"}, {"time": 692, "annotation": {"number": 64, "value": 127}, "group": "control_change"}, {"time": 703, "annotation": {"number": 64, "value": 0}, "group": "control_change"}, {"time": 736, "annotation": {"number": 64, "value": 0}, "group": "control_change"}, {"time": 741, "annotation": {"number": 64, "value": 127}, "group": "control_change"}, {"time": 785, "annotation": {"number": 64, "value": 0}, "group": "control_change"}, {"time": 790, "annotation": {"number": 64, "value": 127}, "group": "control_change"}, {"time": 831, "annotation": {"number": 64, "value": 0}, "group": "control_change"}, {"time": 835, "annotation": {"number": 64, "value": 127}, "group": "control_change"}, {"time": 853, "annotation": {"number": 64, "value": 0}, "group": "control_change"}, {"time": 858, "annotation": {"number": 64, "value": 127}, "group": "control_change"}, {"time": 859, "annotation": {"number": 64, "value": 127}, "group": "control_change"}, {"time": 880, "annotation": {"number": 64, "value": 0}, "group": "control_change"}, {"time": 881, "annotation": {"number": 64, "value": 0}, "group": "control_change"}, {"time": 884, "annotation": {"number": 64, "value": 127}, "group": "control_change"}, {"time": 886, "annotation": {"number": 64, "value": 127}, "group": "control_change"}, {"time": 905, "annotation": {"number": 64, "value": 0}, "group": "control_change"}, {"time": 910, "annotation": {"number": 64, "value": 127}, "group": "control_change"}, {"time": 919, "annotation": {"number": 64, "value": 0}, "group": "control_change"}, {"time": 927, "annotation": {"number": 64, "value": 0}, "group": "control_change"}, {"time": 931, "annotation": {"number": 64, "value": 127}, "group": "control_change"}, {"time": 972, "annotation": {"number": 64, "value": 0}, "group": "control_change"}, {"time": 975, "annotation": {"number": 64, "value": 127}, "group": "control_change"}, {"time": 1027, "annotation": {"number": 64, "value": 0}, "group": "control_change"}, {"time": 1031, "annotation": {"number": 64, "value": 127}, "group": "control_change"}, {"time": 1072, "annotation": {"number": 64, "value": 0}, "group": "control_change"}, {"time": 1076, "annotation": {"number": 64, "value": 127}, "group": "control_change"}, {"time": 1122, "annotation": {"number": 64, "value": 0}, "group": "control_change"}, {"time": 1127, "annotation": {"number": 64, "value": 127}, "group": "control_change"}, {"time": 1168, "annotation": {"number": 64, "value": 0}, "group": "control_change"}, {"time": 1172, "annotation": {"number": 64, "value": 127}, "group": "control_change"}, {"time": 1216, "annotation": {"number": 64, "value": 0}, "group": "control_change"}, {"time": 1220, "annotation": {"number": 64, "value": 127}, "group": "control_change"}, {"time": 1241, "annotation": {"number": 64, "value": 0}, "group": "control_change"}, {"time": 1245, "annotation": {"number": 64, "value": 127}, "group": "control_change"}, {"time": 1264, "annotation": {"number": 64, "value": 0}, "group": "control_change"}, {"time": 1266, "annotation": {"number": 64, "value": 127}, "group": "control_change"}, {"time": 1288, "annotation": {"number": 64, "value": 0}, "group": "control_change"}, {"time": 1292, "annotation": {"number": 64, "value": 127}, "group": "control_change"}, {"time": 1311, "annotation": {"number": 64, "value": 0}, "group": "control_change"}, {"time": 1314, "annotation": {"number": 64, "value": 127}, "group": "control_change"}, {"time": 1358, "annotation": {"number": 64, "value": 0}, "group": "control_change"}, {"time": 1362, "annotation": {"number": 64, "value": 127}, "group": "control_change"}, {"time": 1407, "annotation": {"number": 64, "value": 0}, "group": "control_change"}, {"time": 1410, "annotation": {"number": 64, "value": 127}, "group": "control_change"}, {"time": 1453, "annotation": {"number": 64, "value": 0}, "group": "control_change"}, {"time": 1456, "annotation": {"number": 64, "value": 127}, "group": "control_change"}, {"time": 1552, "annotation": {"number": 64, "value": 0}, "group": "control_change"}, {"time": 1555, "annotation": {"number": 64, "value": 127}, "group": "control_change"}, {"time": 1602, "annotation": {"number": 64, "value": 0}, "group": "control_change"}, {"time": 1606, "annotation": {"number": 64, "value": 127}, "group": "control_change"}, {"time": 1648, "annotation": {"number": 64, "value": 0}, "group": "control_change"}, {"time": 1652, "annotation": {"number": 64, "value": 127}, "group": "control_change"}, {"time": 1696, "annotation": {"number": 64, "value": 0}, "group": "control_change"}, {"time": 1700, "annotation": {"number": 64, "value": 127}, "group": "control_change"}, {"time": 1722, "annotation": {"number": 64, "value": 0}, "group": "control_change"}, {"time": 1726, "annotation": {"number": 64, "value": 127}, "group": "control_change"}, {"time": 1744, "annotation": {"number": 64, "value": 0}, "group": "control_change"}, {"time": 1745, "annotation": {"number": 64, "value": 127}, "group": "control_change"}, {"time": 1748, "annotation": {"number": 64, "value": 127}, "group": "control_change"}, {"time": 1771, "annotation": {"number": 64, "value": 0}, "group": "control_change"}, {"time": 1775, "annotation": {"number": 64, "value": 127}, "group": "control_change"}, {"time": 1792, "annotation": {"number": 64, "value": 0}, "group": "control_change"}, {"time": 1794, "annotation": {"number": 64, "value": 0}, "group": "control_change"}, {"time": 1796, "annotation": {"number": 64, "value": 127}, "group": "control_change"}, {"time": 1841, "annotation": {"number": 64, "value": 0}, "group": "control_change"}, {"time": 1850, "annotation": {"number": 64, "value": 127}, "group": "control_change"}, {"time": 1936, "annotation": {"number": 64, "value": 0}, "group": "control_change"}, {"time": 1941, "annotation": {"number": 64, "value": 127}, "group": "control_change"}, {"time": 1983, "annotation": {"number": 64, "value": 0}, "group": "control_change"}, {"time": 1989, "annotation": {"number": 64, "value": 127}, "group": "control_change"}, {"time": 2033, "annotation": {"number": 64, "value": 0}, "group": "control_change"}, {"time": 2038, "annotation": {"number": 64, "value": 127}, "group": "control_change"}, {"time": 2078, "annotation": {"number": 64, "value": 0}, "group": "control_change"}, {"time": 2082, "annotation": {"number": 64, "value": 127}, "group": "control_change"}, {"time": 2103, "annotation": {"number": 64, "value": 0}, "group": "control_change"}, {"time": 2106, "annotation": {"number": 64, "value": 127}, "group": "control_change"}, {"time": 2128, "annotation": {"number": 64, "value": 0}, "group": "control_change"}, {"time": 2132, "annotation": {"number": 64, "value": 127}, "group": "control_change"}, {"time": 2152, "annotation": {"number": 64, "value": 0}, "group": "control_change"}, {"time": 2155, "annotation": {"number": 64, "value": 127}, "group": "control_change"}, {"time": 2174, "annotation": {"number": 64, "value": 0}, "group": "control_change"}, {"time": 2178, "annotation": {"number": 64, "value": 127}, "group": "control_change"}, {"time": 2223, "annotation": {"number": 64, "value": 0}, "group": "control_change"}, {"time": 2275, "annotation": {"number": 64, "value": 0}, "group": "control_change"}, {"time": 2279, "annotation": {"number": 64, "value": 127}, "group": "control_change"}, {"time": 2320, "annotation": {"number": 64, "value": 0}, "group": "control_change"}, {"time": 2324, "annotation": {"number": 64, "value": 127}, "group": "control_change"}, {"time": 2370, "annotation": {"number": 64, "value": 0}, "group": "control_change"}, {"time": 2375, "annotation": {"number": 64, "value": 127}, "group": "control_change"}, {"time": 2416, "annotation": {"number": 64, "value": 0}, "group": "control_change"}, {"time": 2420, "annotation": {"number": 64, "value": 127}, "group": "control_change"}, {"time": 2464, "annotation": {"number": 64, "value": 0}, "group": "control_change"}, {"time": 2468, "annotation": {"number": 64, "value": 127}, "group": "control_change"}, {"time": 2489, "annotation": {"number": 64, "value": 0}, "group": "control_change"}, {"time": 2493, "annotation": {"number": 64, "value": 127}, "group": "control_change"}, {"time": 2512, "annotation": {"number": 64, "value": 0}, "group": "control_change"}, {"time": 2514, "annotation": {"number": 64, "value": 127}, "group": "control_change"}, {"time": 2536, "annotation": {"number": 64, "value": 0}, "group": "control_change"}, {"time": 2540, "annotation": {"number": 64, "value": 127}, "group": "control_change"}, {"time": 2559, "annotation": {"number": 64, "value": 0}, "group": "control_change"}, {"time": 2562, "annotation": {"number": 64, "value": 127}, "group": "control_change"}, {"time": 2606, "annotation": {"number": 64, "value": 0}, "group": "control_change"}, {"time": 2610, "annotation": {"number": 64, "value": 127}, "group": "control_change"}, {"time": 2655, "annotation": {"number": 64, "value": 0}, "group": "control_change"}, {"time": 2658, "annotation": {"number": 64, "value": 127}, "group": "control_change"}, {"time": 2701, "annotation": {"number": 64, "value": 0}, "group": "control_change"}, {"time": 2704, "annotation": {"number": 64, "value": 127}, "group": "control_change"}, {"time": 2800, "annotation": {"number": 64, "value": 0}, "group": "control_change"}, {"time": 2803, "annotation": {"number": 64, "value": 127}, "group": "control_change"}, {"time": 2850, "annotation": {"number": 64, "value": 0}, "group": "control_change"}, {"time": 2854, "annotation": {"number": 64, "value": 127}, "group": "control_change"}, {"time": 2896, "annotation": {"number": 64, "value": 0}, "group": "control_change"}, {"time": 2900, "annotation": {"number": 64, "value": 127}, "group": "control_change"}, {"time": 2944, "annotation": {"number": 64, "value": 0}, "group": "control_change"}, {"time": 2948, "annotation": {"number": 64, "value": 127}, "group": "control_change"}, {"time": 2970, "annotation": {"number": 64, "value": 0}, "group": "control_change"}, {"time": 2974, "annotation": {"number": 64, "value": 127}, "group": "control_change"}, {"time": 2992, "annotation": {"number": 64, "value": 0}, "group": "control_change"}, {"time": 2993, "annotation": {"number": 64, "value": 127}, "group": "control_change"}, {"time": 2996, "annotation": {"number": 64, "value": 127}, "group": "control_change"}, {"time": 3019, "annotation": {"number": 64, "value": 0}, "group": "control_change"}, {"time": 3023, "annotation": {"number": 64, "value": 127}, "group": "control_change"}, {"time": 3040, "annotation": {"number": 64, "value": 0}, "group": "control_change"}, {"time": 3067, "annotation": {"number": 64, "value": 127}, "group": "control_change"}, {"time": 3093, "annotation": {"number": 64, "value": 0}, "group": "control_change"}, {"time": 3098, "annotation": {"number": 64, "value": 127}, "group": "control_change"}, {"time": 3130, "annotation": {"number": 64, "value": 0}, "group": "control_change"}, {"time": 3136, "annotation": {"number": 64, "value": 127}, "group": "control_change"}, {"time": 3144, "annotation": {"number": 64, "value": 0}, "group": "control_change"}, {"time": 3150, "annotation": {"number": 64, "value": 127}, "group": "control_change"}, {"time": 3184, "annotation": {"number": 64, "value": 0}, "group": "control_change"}, {"time": 3188, "annotation": {"number": 64, "value": 127}, "group": "control_change"}, {"time": 3231, "annotation": {"number": 64, "value": 0}, "group": "control_change"}, {"time": 3253, "annotation": {"number": 64, "value": 127}, "group": "control_change"}, {"time": 3262, "annotation": {"number": 64, "value": 0}, "group": "control_change"}, {"time": 3267, "annotation": {"number": 64, "value": 127}, "group": "control_change"}, {"time": 3278, "annotation": {"number": 64, "value": 0}, "group": "control_change"}, {"time": 3285, "annotation": {"number": 64, "value": 127}, "group": "control_change"}, {"time": 3327, "annotation": {"number": 64, "value": 0}, "group": "control_change"}, {"time": 3333, "annotation": {"number": 64, "value": 127}, "group": "control_change"}, {"time": 3374, "annotation": {"number": 64, "value": 0}, "group": "control_change"}, {"time": 3382, "annotation": {"number": 64, "value": 127}, "group": "control_change"}, {"time": 3424, "annotation": {"number": 64, "value": 0}, "group": "control_change"}, {"time": 3429, "annotation": {"number": 64, "value": 127}, "group": "control_change"}, {"time": 3445, "annotation": {"number": 64, "value": 0}, "group": "control_change"}, {"time": 3459, "annotation": {"number": 64, "value": 127}, "group": "control_change"}, {"time": 3472, "annotation": {"number": 64, "value": 0}, "group": "control_change"}, {"time": 3480, "annotation": {"number": 64, "value": 127}, "group": "control_change"}, {"time": 3517, "annotation": {"number": 64, "value": 0}, "group": "control_change"}, {"time": 3522, "annotation": {"number": 64, "value": 127}, "group": "control_change"}, {"time": 3569, "annotation": {"number": 64, "value": 0}, "group": "control_change"}, {"time": 3573, "annotation": {"number": 64, "value": 127}, "group": "control_change"}, {"time": 3616, "annotation": {"number": 64, "value": 0}, "group": "control_change"}, {"time": 3619, "annotation": {"number": 64, "value": 127}, "group": "control_change"}, {"time": 3664, "annotation": {"number": 64, "value": 0}, "group": "control_change"}, {"time": 3665, "annotation": {"number": 64, "value": 127}, "group": "control_change"}, {"time": 3713, "annotation": {"number": 64, "value": 0}, "group": "control_change"}, {"time": 3718, "annotation": {"number": 64, "value": 127}, "group": "control_change"}, {"time": 3761, "annotation": {"number": 64, "value": 0}, "group": "control_change"}, {"time": 3766, "annotation": {"number": 64, "value": 127}, "group": "control_change"}, {"time": 3851, "annotation": {"number": 64, "value": 0}, "group": "control_change"}, {"time": 3907, "annotation": {"number": 64, "value": 0}, "group": "control_change"}, {"time": 3911, "annotation": {"number": 64, "value": 127}, "group": "control_change"}, {"time": 3952, "annotation": {"number": 64, "value": 0}, "group": "control_change"}, {"time": 3956, "annotation": {"number": 64, "value": 127}, "group": "control_change"}, {"time": 4002, "annotation": {"number": 64, "value": 0}, "group": "control_change"}, {"time": 4007, "annotation": {"number": 64, "value": 127}, "group": "control_change"}, {"time": 4048, "annotation": {"number": 64, "value": 0}, "group": "control_change"}, {"time": 4052, "annotation": {"number": 64, "value": 127}, "group": "control_change"}, {"time": 4096, "annotation": {"number": 64, "value": 0}, "group": "control_change"}, {"time": 4100, "annotation": {"number": 64, "value": 127}, "group": "control_change"}, {"time": 4121, "annotation": {"number": 64, "value": 0}, "group": "control_change"}, {"time": 4125, "annotation": {"number": 64, "value": 127}, "group": "control_change"}, {"time": 4144, "annotation": {"number": 64, "value": 0}, "group": "control_change"}, {"time": 4146, "annotation": {"number": 64, "value": 127}, "group": "control_change"}, {"time": 4168, "annotation": {"number": 64, "value": 0}, "group": "control_change"}, {"time": 4172, "annotation": {"number": 64, "value": 127}, "group": "control_change"}, {"time": 4191, "annotation": {"number": 64, "value": 0}, "group": "control_change"}, {"time": 4194, "annotation": {"number": 64, "value": 127}, "group": "control_change"}, {"time": 4238, "annotation": {"number": 64, "value": 0}, "group": "control_change"}, {"time": 4242, "annotation": {"number": 64, "value": 127}, "group": "control_change"}, {"time": 4287, "annotation": {"number": 64, "value": 0}, "group": "control_change"}, {"time": 4290, "annotation": {"number": 64, "value": 127}, "group": "control_change"}, {"time": 4333, "annotation": {"number": 64, "value": 0}, "group": "control_change"}, {"time": 4336, "annotation": {"number": 64, "value": 127}, "group": "control_change"}, {"time": 4432, "annotation": {"number": 64, "value": 0}, "group": "control_change"}, {"time": 4435, "annotation": {"number": 64, "value": 127}, "group": "control_change"}, {"time": 4482, "annotation": {"number": 64, "value": 0}, "group": "control_change"}, {"time": 4486, "annotation": {"number": 64, "value": 127}, "group": "control_change"}, {"time": 4528, "annotation": {"number": 64, "value": 0}, "group": "control_change"}, {"time": 4532, "annotation": {"number": 64, "value": 127}, "group": "control_change"}, {"time": 4576, "annotation": {"number": 64, "value": 0}, "group": "control_change"}, {"time": 4580, "annotation": {"number": 64, "value": 127}, "group": "control_change"}, {"time": 4602, "annotation": {"number": 64, "value": 0}, "group": "control_change"}, {"time": 4606, "annotation": {"number": 64, "value": 127}, "group": "control_change"}, {"time": 4624, "annotation": {"number": 64, "value": 0}, "group": "control_change"}, {"time": 4625, "annotation": {"number": 64, "value": 127}, "group": "control_change"}, {"time": 4628, "annotation": {"number": 64, "value": 127}, "group": "control_change"}, {"time": 4651, "annotation": {"number": 64, "value": 0}, "group": "control_change"}, {"time": 4655, "annotation": {"number": 64, "value": 127}, "group": "control_change"}, {"time": 4672, "annotation": {"number": 64, "value": 127}, "group": "control_change"}, {"time": 4718, "annotation": {"number": 64, "value": 0}, "group": "control_change"}, {"time": 4722, "annotation": {"number": 64, "value": 127}, "group": "control_change"}, {"time": 4770, "annotation": {"number": 64, "value": 0}, "group": "control_change"}, {"time": 4773, "annotation": {"number": 64, "value": 127}, "group": "control_change"}, {"time": 4817, "annotation": {"number": 64, "value": 0}, "group": "control_change"}, {"time": 4817, "annotation": {"number": 64, "value": 127}, "group": "control_change"}, {"time": 4861, "annotation": {"number": 64, "value": 0}, "group": "control_change"}, {"time": 4864, "annotation": {"number": 64, "value": 127}, "group": "control_change"}, {"time": 4910, "annotation": {"number": 64, "value": 0}, "group": "control_change"}, {"time": 4914, "annotation": {"number": 64, "value": 127}, "group": "control_change"}, {"time": 5004, "annotation": {"number": 64, "value": 0}, "group": "control_change"}]}]}