{"metadata": {"schema_version": "0.2", "title": "None", "source_filename": "206.mid", "source_format": "midi"}, "resolution": 12, "tempos": [{"time": 0, "qpm": 89.9999550000225}, {"time": 156, "qpm": 90.99995298335763}, {"time": 240, "qpm": 89.9999550000225}, {"time": 408, "qpm": 89.7499566208543}, {"time": 818, "qpm": 89.77305372019535}, {"time": 821, "qpm": 89.81888022802019}, {"time": 824, "qpm": 89.8647535459134}, {"time": 827, "qpm": 89.91067374563372}, {"time": 830, "qpm": 89.9668921836764}, {"time": 834, "qpm": 89.9999550000225}], "key_signatures": [{"time": 0, "root": 0, "mode": "major"}], "time_signatures": [{"time": 0, "numerator": 4, "denominator": 4}], "tracks": [{"program": 4, "is_drum": false, "name": "MELODY", "notes": [{"time": 190, "pitch": 73, "duration": 6, "velocity": 82}, {"time": 196, "pitch": 75, "duration": 6, "velocity": 84}, {"time": 202, "pitch": 71, "duration": 11, "velocity": 75}, {"time": 214, "pitch": 68, "duration": 13, "velocity": 64}, {"time": 226, "pitch": 75, "duration": 9, "velocity": 66}, {"time": 235, "pitch": 73, "duration": 3, "velocity": 100}, {"time": 238, "pitch": 73, "duration": 5, "velocity": 100}, {"time": 244, "pitch": 75, "duration": 6, "velocity": 77}, {"time": 250, "pitch": 68, "duration": 5, "velocity": 72}, {"time": 256, "pitch": 68, "duration": 5, "velocity": 64}, {"time": 262, "pitch": 71, "duration": 6, "velocity": 66}, {"time": 268, "pitch": 73, "duration": 3, "velocity": 62}, {"time": 271, "pitch": 75, "duration": 8, "velocity": 77}, {"time": 286, "pitch": 73, "duration": 6, "velocity": 98}, {"time": 292, "pitch": 75, "duration": 6, "velocity": 80}, {"time": 298, "pitch": 70, "duration": 11, "velocity": 93}, {"time": 310, "pitch": 66, "duration": 9, "velocity": 82}, {"time": 319, "pitch": 73, "duration": 11, "velocity": 95}, {"time": 334, "pitch": 71, "duration": 5, "velocity": 91}, {"time": 340, "pitch": 73, "duration": 5, "velocity": 76}, {"time": 346, "pitch": 75, "duration": 4, "velocity": 92}, {"time": 352, "pitch": 75, "duration": 3, "velocity": 96}, {"time": 358, "pitch": 73, "duration": 3, "velocity": 86}, {"time": 364, "pitch": 71, "duration": 2, "velocity": 72}, {"time": 367, "pitch": 73, "duration": 5, "velocity": 87}, {"time": 379, "pitch": 68, "duration": 3, "velocity": 60}, {"time": 382, "pitch": 73, "duration": 5, "velocity": 57}, {"time": 388, "pitch": 75, "duration": 6, "velocity": 84}, {"time": 394, "pitch": 71, "duration": 11, "velocity": 75}, {"time": 406, "pitch": 68, "duration": 10, "velocity": 64}, {"time": 415, "pitch": 75, "duration": 15, "velocity": 66}, {"time": 430, "pitch": 80, "duration": 7, "velocity": 97}, {"time": 436, "pitch": 78, "duration": 5, "velocity": 90}, {"time": 442, "pitch": 73, "duration": 4, "velocity": 75}, {"time": 448, "pitch": 73, "duration": 3, "velocity": 91}, {"time": 454, "pitch": 73, "duration": 5, "velocity": 90}, {"time": 460, "pitch": 71, "duration": 4, "velocity": 82}, {"time": 463, "pitch": 73, "duration": 10, "velocity": 87}, {"time": 478, "pitch": 73, "duration": 6, "velocity": 92}, {"time": 484, "pitch": 83, "duration": 5, "velocity": 90}, {"time": 490, "pitch": 82, "duration": 12, "velocity": 96}, {"time": 502, "pitch": 85, "duration": 7, "velocity": 91}, {"time": 514, "pitch": 78, "duration": 5, "velocity": 97}, {"time": 520, "pitch": 76, "duration": 5, "velocity": 79}, {"time": 526, "pitch": 76, "duration": 11, "velocity": 72}, {"time": 538, "pitch": 75, "duration": 22, "velocity": 62}, {"time": 562, "pitch": 81, "duration": 12, "velocity": 104}, {"time": 574, "pitch": 80, "duration": 8, "velocity": 106}, {"time": 586, "pitch": 76, "duration": 6, "velocity": 100}, {"time": 592, "pitch": 75, "duration": 3, "velocity": 83}, {"time": 598, "pitch": 76, "duration": 5, "velocity": 93}, {"time": 604, "pitch": 75, "duration": 3, "velocity": 85}, {"time": 610, "pitch": 76, "duration": 4, "velocity": 93}, {"time": 616, "pitch": 75, "duration": 3, "velocity": 85}, {"time": 619, "pitch": 76, "duration": 7, "velocity": 94}, {"time": 631, "pitch": 66, "duration": 3, "velocity": 67}, {"time": 634, "pitch": 76, "duration": 6, "velocity": 67}, {"time": 640, "pitch": 75, "duration": 6, "velocity": 76}, {"time": 646, "pitch": 76, "duration": 6, "velocity": 64}, {"time": 652, "pitch": 75, "duration": 7, "velocity": 80}, {"time": 658, "pitch": 76, "duration": 6, "velocity": 62}, {"time": 664, "pitch": 75, "duration": 3, "velocity": 76}, {"time": 667, "pitch": 73, "duration": 7, "velocity": 66}, {"time": 676, "pitch": 73, "duration": 5, "velocity": 69}, {"time": 682, "pitch": 75, "duration": 16, "velocity": 90}, {"time": 706, "pitch": 73, "duration": 11, "velocity": 93}, {"time": 718, "pitch": 70, "duration": 12, "velocity": 97}, {"time": 730, "pitch": 75, "duration": 26, "velocity": 109}, {"time": 754, "pitch": 76, "duration": 12, "velocity": 105}, {"time": 766, "pitch": 75, "duration": 5, "velocity": 99}, {"time": 778, "pitch": 76, "duration": 5, "velocity": 101}, {"time": 784, "pitch": 75, "duration": 3, "velocity": 98}, {"time": 790, "pitch": 76, "duration": 4, "velocity": 99}, {"time": 796, "pitch": 75, "duration": 3, "velocity": 99}, {"time": 802, "pitch": 76, "duration": 4, "velocity": 105}, {"time": 808, "pitch": 75, "duration": 3, "velocity": 97}, {"time": 811, "pitch": 76, "duration": 8, "velocity": 100}, {"time": 823, "pitch": 66, "duration": 3, "velocity": 62}, {"time": 826, "pitch": 76, "duration": 5, "velocity": 84}, {"time": 832, "pitch": 75, "duration": 6, "velocity": 91}, {"time": 838, "pitch": 76, "duration": 6, "velocity": 72}, {"time": 844, "pitch": 75, "duration": 6, "velocity": 89}, {"time": 850, "pitch": 76, "duration": 6, "velocity": 66}, {"time": 856, "pitch": 75, "duration": 3, "velocity": 83}, {"time": 859, "pitch": 76, "duration": 9, "velocity": 79}, {"time": 868, "pitch": 73, "duration": 7, "velocity": 79}, {"time": 874, "pitch": 75, "duration": 39, "velocity": 95}, {"time": 898, "pitch": 73, "duration": 11, "velocity": 101}, {"time": 910, "pitch": 70, "duration": 12, "velocity": 99}, {"time": 922, "pitch": 75, "duration": 28, "velocity": 109}, {"time": 946, "pitch": 76, "duration": 11, "velocity": 105}, {"time": 958, "pitch": 75, "duration": 6, "velocity": 92}, {"time": 970, "pitch": 76, "duration": 5, "velocity": 98}, {"time": 976, "pitch": 78, "duration": 5, "velocity": 93}, {"time": 982, "pitch": 80, "duration": 6, "velocity": 95}, {"time": 988, "pitch": 76, "duration": 4, "velocity": 83}, {"time": 991, "pitch": 73, "duration": 16, "velocity": 87}, {"time": 1015, "pitch": 66, "duration": 3, "velocity": 55}, {"time": 1018, "pitch": 75, "duration": 6, "velocity": 90}, {"time": 1024, "pitch": 76, "duration": 6, "velocity": 62}, {"time": 1030, "pitch": 75, "duration": 6, "velocity": 82}, {"time": 1036, "pitch": 71, "duration": 6, "velocity": 66}, {"time": 1042, "pitch": 68, "duration": 9, "velocity": 77}, {"time": 1066, "pitch": 75, "duration": 6, "velocity": 95}, {"time": 1072, "pitch": 71, "duration": 5, "velocity": 91}, {"time": 1078, "pitch": 68, "duration": 6, "velocity": 87}, {"time": 1084, "pitch": 71, "duration": 3, "velocity": 76}, {"time": 1087, "pitch": 68, "duration": 16, "velocity": 82}, {"time": 1114, "pitch": 75, "duration": 4, "velocity": 95}, {"time": 1120, "pitch": 71, "duration": 2, "velocity": 87}, {"time": 1126, "pitch": 73, "duration": 4, "velocity": 91}, {"time": 1132, "pitch": 71, "duration": 3, "velocity": 92}, {"time": 1138, "pitch": 75, "duration": 4, "velocity": 94}, {"time": 1144, "pitch": 71, "duration": 6, "velocity": 77}, {"time": 1150, "pitch": 73, "duration": 6, "velocity": 81}, {"time": 1156, "pitch": 71, "duration": 5, "velocity": 63}, {"time": 1162, "pitch": 68, "duration": 16, "velocity": 73}, {"time": 1342, "pitch": 73, "duration": 6, "velocity": 82}, {"time": 1348, "pitch": 75, "duration": 6, "velocity": 84}, {"time": 1354, "pitch": 71, "duration": 11, "velocity": 75}, {"time": 1366, "pitch": 68, "duration": 13, "velocity": 64}, {"time": 1378, "pitch": 75, "duration": 9, "velocity": 66}, {"time": 1387, "pitch": 73, "duration": 3, "velocity": 100}, {"time": 1390, "pitch": 73, "duration": 5, "velocity": 100}, {"time": 1396, "pitch": 75, "duration": 6, "velocity": 77}, {"time": 1402, "pitch": 68, "duration": 5, "velocity": 72}, {"time": 1408, "pitch": 68, "duration": 5, "velocity": 64}, {"time": 1414, "pitch": 71, "duration": 6, "velocity": 66}, {"time": 1420, "pitch": 73, "duration": 3, "velocity": 62}, {"time": 1423, "pitch": 75, "duration": 8, "velocity": 77}, {"time": 1438, "pitch": 73, "duration": 6, "velocity": 98}, {"time": 1444, "pitch": 75, "duration": 6, "velocity": 80}, {"time": 1450, "pitch": 70, "duration": 11, "velocity": 93}, {"time": 1462, "pitch": 66, "duration": 9, "velocity": 82}, {"time": 1471, "pitch": 73, "duration": 11, "velocity": 95}, {"time": 1486, "pitch": 71, "duration": 5, "velocity": 91}, {"time": 1492, "pitch": 73, "duration": 5, "velocity": 76}, {"time": 1498, "pitch": 75, "duration": 4, "velocity": 92}, {"time": 1504, "pitch": 75, "duration": 3, "velocity": 96}, {"time": 1510, "pitch": 73, "duration": 3, "velocity": 86}, {"time": 1516, "pitch": 71, "duration": 4, "velocity": 72}, {"time": 1519, "pitch": 73, "duration": 9, "velocity": 87}, {"time": 1534, "pitch": 73, "duration": 5, "velocity": 57}, {"time": 1540, "pitch": 75, "duration": 8, "velocity": 84}, {"time": 1546, "pitch": 71, "duration": 12, "velocity": 75}, {"time": 1558, "pitch": 68, "duration": 8, "velocity": 64}, {"time": 1567, "pitch": 75, "duration": 14, "velocity": 66}, {"time": 1582, "pitch": 80, "duration": 6, "velocity": 97}, {"time": 1588, "pitch": 78, "duration": 4, "velocity": 90}, {"time": 1594, "pitch": 73, "duration": 4, "velocity": 75}, {"time": 1600, "pitch": 73, "duration": 4, "velocity": 91}, {"time": 1606, "pitch": 73, "duration": 5, "velocity": 90}, {"time": 1612, "pitch": 71, "duration": 4, "velocity": 82}, {"time": 1615, "pitch": 73, "duration": 10, "velocity": 87}, {"time": 1630, "pitch": 73, "duration": 6, "velocity": 92}, {"time": 1636, "pitch": 83, "duration": 5, "velocity": 90}, {"time": 1642, "pitch": 82, "duration": 12, "velocity": 96}, {"time": 1654, "pitch": 85, "duration": 7, "velocity": 91}, {"time": 1666, "pitch": 78, "duration": 5, "velocity": 97}, {"time": 1672, "pitch": 76, "duration": 5, "velocity": 79}, {"time": 1678, "pitch": 76, "duration": 11, "velocity": 72}, {"time": 1690, "pitch": 75, "duration": 22, "velocity": 62}, {"time": 1714, "pitch": 81, "duration": 12, "velocity": 104}, {"time": 1726, "pitch": 80, "duration": 8, "velocity": 106}, {"time": 1738, "pitch": 76, "duration": 6, "velocity": 100}, {"time": 1744, "pitch": 75, "duration": 2, "velocity": 83}, {"time": 1750, "pitch": 76, "duration": 5, "velocity": 93}, {"time": 1756, "pitch": 75, "duration": 3, "velocity": 85}, {"time": 1762, "pitch": 76, "duration": 4, "velocity": 93}, {"time": 1768, "pitch": 75, "duration": 3, "velocity": 85}, {"time": 1771, "pitch": 76, "duration": 7, "velocity": 94}, {"time": 1783, "pitch": 66, "duration": 3, "velocity": 67}, {"time": 1786, "pitch": 76, "duration": 6, "velocity": 67}, {"time": 1792, "pitch": 75, "duration": 6, "velocity": 76}, {"time": 1798, "pitch": 76, "duration": 6, "velocity": 64}, {"time": 1804, "pitch": 75, "duration": 7, "velocity": 80}, {"time": 1810, "pitch": 76, "duration": 6, "velocity": 62}, {"time": 1816, "pitch": 75, "duration": 3, "velocity": 76}, {"time": 1819, "pitch": 73, "duration": 7, "velocity": 66}, {"time": 1828, "pitch": 73, "duration": 5, "velocity": 69}, {"time": 1834, "pitch": 75, "duration": 16, "velocity": 90}, {"time": 1858, "pitch": 73, "duration": 11, "velocity": 93}, {"time": 1870, "pitch": 70, "duration": 12, "velocity": 97}, {"time": 1882, "pitch": 75, "duration": 24, "velocity": 109}, {"time": 1906, "pitch": 76, "duration": 11, "velocity": 105}, {"time": 1918, "pitch": 75, "duration": 5, "velocity": 99}, {"time": 1930, "pitch": 76, "duration": 7, "velocity": 101}, {"time": 1936, "pitch": 75, "duration": 5, "velocity": 98}, {"time": 1942, "pitch": 76, "duration": 4, "velocity": 99}, {"time": 1948, "pitch": 75, "duration": 3, "velocity": 99}, {"time": 1954, "pitch": 76, "duration": 4, "velocity": 105}, {"time": 1960, "pitch": 75, "duration": 3, "velocity": 97}, {"time": 1963, "pitch": 76, "duration": 8, "velocity": 100}, {"time": 1975, "pitch": 66, "duration": 3, "velocity": 62}, {"time": 1978, "pitch": 76, "duration": 5, "velocity": 84}, {"time": 1984, "pitch": 75, "duration": 6, "velocity": 91}, {"time": 1990, "pitch": 76, "duration": 6, "velocity": 72}, {"time": 1996, "pitch": 75, "duration": 6, "velocity": 89}, {"time": 2002, "pitch": 76, "duration": 6, "velocity": 66}, {"time": 2008, "pitch": 75, "duration": 3, "velocity": 83}, {"time": 2011, "pitch": 76, "duration": 9, "velocity": 79}, {"time": 2020, "pitch": 73, "duration": 7, "velocity": 79}, {"time": 2026, "pitch": 75, "duration": 39, "velocity": 95}, {"time": 2050, "pitch": 73, "duration": 11, "velocity": 101}, {"time": 2062, "pitch": 70, "duration": 12, "velocity": 99}, {"time": 2074, "pitch": 75, "duration": 27, "velocity": 109}, {"time": 2098, "pitch": 76, "duration": 11, "velocity": 105}, {"time": 2110, "pitch": 75, "duration": 6, "velocity": 92}, {"time": 2122, "pitch": 76, "duration": 5, "velocity": 98}, {"time": 2128, "pitch": 78, "duration": 5, "velocity": 93}, {"time": 2134, "pitch": 80, "duration": 6, "velocity": 95}, {"time": 2140, "pitch": 76, "duration": 4, "velocity": 83}, {"time": 2143, "pitch": 73, "duration": 16, "velocity": 87}, {"time": 2167, "pitch": 66, "duration": 3, "velocity": 55}, {"time": 2170, "pitch": 75, "duration": 6, "velocity": 90}, {"time": 2176, "pitch": 76, "duration": 6, "velocity": 62}, {"time": 2182, "pitch": 75, "duration": 6, "velocity": 82}, {"time": 2188, "pitch": 71, "duration": 6, "velocity": 66}, {"time": 2194, "pitch": 68, "duration": 9, "velocity": 77}, {"time": 2218, "pitch": 75, "duration": 6, "velocity": 95}, {"time": 2224, "pitch": 71, "duration": 5, "velocity": 91}, {"time": 2230, "pitch": 68, "duration": 6, "velocity": 87}, {"time": 2236, "pitch": 71, "duration": 3, "velocity": 76}, {"time": 2239, "pitch": 68, "duration": 16, "velocity": 82}, {"time": 2266, "pitch": 75, "duration": 4, "velocity": 95}, {"time": 2272, "pitch": 71, "duration": 2, "velocity": 87}, {"time": 2278, "pitch": 73, "duration": 4, "velocity": 91}, {"time": 2284, "pitch": 71, "duration": 3, "velocity": 92}, {"time": 2290, "pitch": 75, "duration": 4, "velocity": 94}, {"time": 2296, "pitch": 71, "duration": 6, "velocity": 77}, {"time": 2302, "pitch": 73, "duration": 6, "velocity": 81}, {"time": 2308, "pitch": 71, "duration": 5, "velocity": 63}, {"time": 2314, "pitch": 68, "duration": 16, "velocity": 73}, {"time": 2698, "pitch": 76, "duration": 7, "velocity": 101}, {"time": 2704, "pitch": 75, "duration": 5, "velocity": 98}, {"time": 2710, "pitch": 76, "duration": 4, "velocity": 99}, {"time": 2716, "pitch": 75, "duration": 3, "velocity": 99}, {"time": 2722, "pitch": 76, "duration": 4, "velocity": 105}, {"time": 2728, "pitch": 75, "duration": 3, "velocity": 97}, {"time": 2731, "pitch": 76, "duration": 8, "velocity": 100}, {"time": 2743, "pitch": 66, "duration": 3, "velocity": 62}, {"time": 2746, "pitch": 76, "duration": 5, "velocity": 84}, {"time": 2752, "pitch": 75, "duration": 6, "velocity": 91}, {"time": 2758, "pitch": 76, "duration": 6, "velocity": 72}, {"time": 2764, "pitch": 75, "duration": 6, "velocity": 89}, {"time": 2770, "pitch": 76, "duration": 6, "velocity": 66}, {"time": 2776, "pitch": 75, "duration": 5, "velocity": 83}, {"time": 2779, "pitch": 73, "duration": 8, "velocity": 79}, {"time": 2788, "pitch": 73, "duration": 7, "velocity": 79}, {"time": 2794, "pitch": 75, "duration": 24, "velocity": 95}, {"time": 2818, "pitch": 73, "duration": 10, "velocity": 101}, {"time": 2830, "pitch": 70, "duration": 12, "velocity": 99}, {"time": 2842, "pitch": 75, "duration": 24, "velocity": 109}, {"time": 2866, "pitch": 76, "duration": 11, "velocity": 105}, {"time": 2878, "pitch": 75, "duration": 6, "velocity": 92}, {"time": 2890, "pitch": 76, "duration": 7, "velocity": 101}, {"time": 2896, "pitch": 75, "duration": 5, "velocity": 98}, {"time": 2902, "pitch": 76, "duration": 4, "velocity": 99}, {"time": 2908, "pitch": 75, "duration": 3, "velocity": 99}, {"time": 2914, "pitch": 76, "duration": 4, "velocity": 105}, {"time": 2920, "pitch": 75, "duration": 3, "velocity": 97}, {"time": 2923, "pitch": 76, "duration": 8, "velocity": 100}, {"time": 2935, "pitch": 66, "duration": 3, "velocity": 62}, {"time": 2938, "pitch": 76, "duration": 5, "velocity": 84}, {"time": 2944, "pitch": 75, "duration": 6, "velocity": 91}, {"time": 2950, "pitch": 76, "duration": 6, "velocity": 72}, {"time": 2956, "pitch": 75, "duration": 6, "velocity": 89}, {"time": 2962, "pitch": 76, "duration": 6, "velocity": 66}, {"time": 2968, "pitch": 75, "duration": 3, "velocity": 83}, {"time": 2971, "pitch": 76, "duration": 9, "velocity": 79}, {"time": 2980, "pitch": 73, "duration": 7, "velocity": 79}, {"time": 2986, "pitch": 75, "duration": 25, "velocity": 95}, {"time": 3010, "pitch": 73, "duration": 10, "velocity": 101}, {"time": 3022, "pitch": 70, "duration": 12, "velocity": 99}, {"time": 3034, "pitch": 75, "duration": 27, "velocity": 109}, {"time": 3058, "pitch": 76, "duration": 11, "velocity": 105}, {"time": 3070, "pitch": 75, "duration": 6, "velocity": 92}, {"time": 3082, "pitch": 76, "duration": 5, "velocity": 98}, {"time": 3088, "pitch": 78, "duration": 5, "velocity": 93}, {"time": 3094, "pitch": 80, "duration": 6, "velocity": 95}, {"time": 3100, "pitch": 76, "duration": 3, "velocity": 83}, {"time": 3103, "pitch": 73, "duration": 16, "velocity": 87}, {"time": 3127, "pitch": 66, "duration": 3, "velocity": 55}, {"time": 3130, "pitch": 75, "duration": 6, "velocity": 90}, {"time": 3136, "pitch": 76, "duration": 6, "velocity": 62}, {"time": 3142, "pitch": 75, "duration": 6, "velocity": 82}, {"time": 3148, "pitch": 71, "duration": 6, "velocity": 66}, {"time": 3154, "pitch": 68, "duration": 9, "velocity": 77}, {"time": 3178, "pitch": 75, "duration": 6, "velocity": 95}, {"time": 3184, "pitch": 71, "duration": 5, "velocity": 91}, {"time": 3190, "pitch": 68, "duration": 6, "velocity": 87}, {"time": 3196, "pitch": 71, "duration": 3, "velocity": 76}, {"time": 3199, "pitch": 68, "duration": 16, "velocity": 82}, {"time": 3226, "pitch": 75, "duration": 4, "velocity": 95}, {"time": 3232, "pitch": 71, "duration": 2, "velocity": 87}, {"time": 3238, "pitch": 73, "duration": 4, "velocity": 91}, {"time": 3244, "pitch": 71, "duration": 3, "velocity": 92}, {"time": 3250, "pitch": 75, "duration": 4, "velocity": 94}, {"time": 3256, "pitch": 71, "duration": 6, "velocity": 77}, {"time": 3262, "pitch": 73, "duration": 6, "velocity": 81}, {"time": 3268, "pitch": 71, "duration": 5, "velocity": 63}, {"time": 3274, "pitch": 68, "duration": 16, "velocity": 73}, {"time": 3322, "pitch": 76, "duration": 7, "velocity": 101}, {"time": 3328, "pitch": 75, "duration": 5, "velocity": 98}, {"time": 3334, "pitch": 76, "duration": 4, "velocity": 99}, {"time": 3340, "pitch": 75, "duration": 3, "velocity": 99}, {"time": 3346, "pitch": 76, "duration": 4, "velocity": 105}, {"time": 3352, "pitch": 75, "duration": 3, "velocity": 97}, {"time": 3355, "pitch": 76, "duration": 8, "velocity": 100}, {"time": 3367, "pitch": 66, "duration": 3, "velocity": 62}, {"time": 3370, "pitch": 76, "duration": 5, "velocity": 84}, {"time": 3376, "pitch": 75, "duration": 6, "velocity": 91}, {"time": 3382, "pitch": 76, "duration": 6, "velocity": 72}, {"time": 3388, "pitch": 75, "duration": 6, "velocity": 89}, {"time": 3394, "pitch": 76, "duration": 6, "velocity": 66}, {"time": 3400, "pitch": 75, "duration": 5, "velocity": 83}, {"time": 3403, "pitch": 73, "duration": 8, "velocity": 79}, {"time": 3412, "pitch": 73, "duration": 7, "velocity": 79}, {"time": 3418, "pitch": 75, "duration": 24, "velocity": 95}, {"time": 3442, "pitch": 73, "duration": 10, "velocity": 101}, {"time": 3454, "pitch": 70, "duration": 12, "velocity": 99}, {"time": 3466, "pitch": 75, "duration": 24, "velocity": 109}, {"time": 3490, "pitch": 80, "duration": 11, "velocity": 105}, {"time": 3502, "pitch": 78, "duration": 6, "velocity": 92}, {"time": 3514, "pitch": 76, "duration": 7, "velocity": 101}, {"time": 3520, "pitch": 75, "duration": 5, "velocity": 98}, {"time": 3526, "pitch": 76, "duration": 4, "velocity": 99}, {"time": 3532, "pitch": 75, "duration": 3, "velocity": 99}, {"time": 3538, "pitch": 76, "duration": 4, "velocity": 105}, {"time": 3544, "pitch": 75, "duration": 3, "velocity": 97}, {"time": 3547, "pitch": 76, "duration": 8, "velocity": 100}, {"time": 3559, "pitch": 66, "duration": 3, "velocity": 62}, {"time": 3562, "pitch": 76, "duration": 5, "velocity": 84}, {"time": 3568, "pitch": 75, "duration": 6, "velocity": 91}, {"time": 3574, "pitch": 76, "duration": 6, "velocity": 72}, {"time": 3580, "pitch": 75, "duration": 6, "velocity": 89}, {"time": 3586, "pitch": 76, "duration": 6, "velocity": 66}, {"time": 3592, "pitch": 75, "duration": 5, "velocity": 83}, {"time": 3595, "pitch": 76, "duration": 8, "velocity": 79}, {"time": 3604, "pitch": 73, "duration": 7, "velocity": 79}, {"time": 3610, "pitch": 75, "duration": 24, "velocity": 95}, {"time": 3634, "pitch": 73, "duration": 10, "velocity": 101}, {"time": 3646, "pitch": 70, "duration": 12, "velocity": 99}, {"time": 3658, "pitch": 75, "duration": 24, "velocity": 109}, {"time": 3682, "pitch": 76, "duration": 12, "velocity": 105}, {"time": 3694, "pitch": 75, "duration": 7, "velocity": 92}, {"time": 3703, "pitch": 68, "duration": 2, "velocity": 100}, {"time": 3706, "pitch": 76, "duration": 5, "velocity": 98}, {"time": 3712, "pitch": 78, "duration": 5, "velocity": 93}, {"time": 3718, "pitch": 80, "duration": 6, "velocity": 95}, {"time": 3724, "pitch": 76, "duration": 3, "velocity": 83}, {"time": 3727, "pitch": 73, "duration": 16, "velocity": 87}, {"time": 3751, "pitch": 66, "duration": 3, "velocity": 55}, {"time": 3754, "pitch": 75, "duration": 6, "velocity": 90}, {"time": 3760, "pitch": 76, "duration": 6, "velocity": 62}, {"time": 3766, "pitch": 75, "duration": 6, "velocity": 82}, {"time": 3772, "pitch": 71, "duration": 6, "velocity": 66}, {"time": 3778, "pitch": 68, "duration": 9, "velocity": 77}, {"time": 3802, "pitch": 75, "duration": 6, "velocity": 95}, {"time": 3808, "pitch": 71, "duration": 5, "velocity": 91}, {"time": 3814, "pitch": 68, "duration": 6, "velocity": 87}, {"time": 3820, "pitch": 71, "duration": 3, "velocity": 76}, {"time": 3823, "pitch": 68, "duration": 16, "velocity": 82}, {"time": 3850, "pitch": 75, "duration": 4, "velocity": 95}, {"time": 3856, "pitch": 71, "duration": 2, "velocity": 87}, {"time": 3862, "pitch": 73, "duration": 4, "velocity": 91}, {"time": 3868, "pitch": 71, "duration": 3, "velocity": 92}, {"time": 3874, "pitch": 75, "duration": 4, "velocity": 94}, {"time": 3880, "pitch": 71, "duration": 6, "velocity": 77}, {"time": 3886, "pitch": 73, "duration": 6, "velocity": 81}, {"time": 3892, "pitch": 71, "duration": 5, "velocity": 63}, {"time": 3898, "pitch": 68, "duration": 16, "velocity": 73}, {"time": 3934, "pitch": 75, "duration": 4, "velocity": 97}, {"time": 3940, "pitch": 71, "duration": 6, "velocity": 91}, {"time": 3946, "pitch": 68, "duration": 15, "velocity": 83}, {"time": 3982, "pitch": 80, "duration": 7, "velocity": 103}, {"time": 3988, "pitch": 78, "duration": 5, "velocity": 91}, {"time": 3994, "pitch": 78, "duration": 15, "velocity": 99}, {"time": 4018, "pitch": 76, "duration": 14, "velocity": 94}, {"time": 4036, "pitch": 76, "duration": 6, "velocity": 97}, {"time": 4042, "pitch": 75, "duration": 18, "velocity": 98}, {"time": 4066, "pitch": 75, "duration": 6, "velocity": 98}, {"time": 4072, "pitch": 71, "duration": 5, "velocity": 87}, {"time": 4078, "pitch": 73, "duration": 6, "velocity": 91}, {"time": 4084, "pitch": 71, "duration": 6, "velocity": 87}, {"time": 4090, "pitch": 68, "duration": 16, "velocity": 94}, {"time": 4126, "pitch": 75, "duration": 4, "velocity": 103}, {"time": 4132, "pitch": 71, "duration": 6, "velocity": 91}, {"time": 4138, "pitch": 68, "duration": 11, "velocity": 90}, {"time": 4174, "pitch": 80, "duration": 6, "velocity": 99}, {"time": 4180, "pitch": 78, "duration": 5, "velocity": 93}, {"time": 4186, "pitch": 78, "duration": 23, "velocity": 93}, {"time": 4210, "pitch": 76, "duration": 13, "velocity": 96}, {"time": 4228, "pitch": 76, "duration": 6, "velocity": 97}, {"time": 4234, "pitch": 75, "duration": 18, "velocity": 95}, {"time": 4255, "pitch": 68, "duration": 3, "velocity": 45}, {"time": 4258, "pitch": 75, "duration": 6, "velocity": 73}, {"time": 4264, "pitch": 71, "duration": 7, "velocity": 54}, {"time": 4270, "pitch": 73, "duration": 7, "velocity": 54}, {"time": 4276, "pitch": 71, "duration": 9, "velocity": 66}, {"time": 4285, "pitch": 68, "duration": 65, "velocity": 61}], "annotations": [{"time": 230, "annotation": {"number": 1, "value": 1}, "group": "control_change"}, {"time": 421, "annotation": {"number": 1, "value": 1}, "group": "control_change"}, {"time": 1382, "annotation": {"number": 1, "value": 1}, "group": "control_change"}, {"time": 1573, "annotation": {"number": 1, "value": 1}, "group": "control_change"}, {"time": 3947, "annotation": {"number": 64, "value": 127}, "group": "control_change"}, {"time": 3970, "annotation": {"number": 64, "value": 0}, "group": "control_change"}, {"time": 3983, "annotation": {"number": 64, "value": 127}, "group": "control_change"}, {"time": 3989, "annotation": {"number": 64, "value": 0}, "group": "control_change"}, {"time": 3995, "annotation": {"number": 64, "value": 127}, "group": "control_change"}, {"time": 4024, "annotation": {"number": 64, "value": 127}, "group": "control_change"}, {"time": 4034, "annotation": {"number": 64, "value": 0}, "group": "control_change"}, {"time": 4041, "annotation": {"number": 64, "value": 127}, "group": "control_change"}, {"time": 4069, "annotation": {"number": 64, "value": 127}, "group": "control_change"}, {"time": 4076, "annotation": {"number": 64, "value": 0}, "group": "control_change"}, {"time": 4091, "annotation": {"number": 64, "value": 127}, "group": "control_change"}, {"time": 4098, "annotation": {"number": 64, "value": 0}, "group": "control_change"}, {"time": 4137, "annotation": {"number": 64, "value": 127}, "group": "control_change"}, {"time": 4190, "annotation": {"number": 64, "value": 127}, "group": "control_change"}, {"time": 4196, "annotation": {"number": 1, "value": 0}, "group": "control_change"}, {"time": 4210, "annotation": {"number": 64, "value": 0}, "group": "control_change"}, {"time": 4210, "annotation": {"number": 64, "value": 127}, "group": "control_change"}, {"time": 4220, "annotation": {"number": 64, "value": 0}, "group": "control_change"}, {"time": 4234, "annotation": {"number": 64, "value": 127}, "group": "control_change"}, {"time": 4251, "annotation": {"number": 64, "value": 0}, "group": "control_change"}]}, {"program": 0, "is_drum": false, "name": "PIANO", "notes": [{"time": 10, "pitch": 44, "duration": 6, "velocity": 67}, {"time": 16, "pitch": 59, "duration": 2, "velocity": 72}, {"time": 16, "pitch": 63, "duration": 2, "velocity": 70}, {"time": 16, "pitch": 68, "duration": 3, "velocity": 76}, {"time": 22, "pitch": 51, "duration": 7, "velocity": 66}, {"time": 28, "pitch": 59, "duration": 2, "velocity": 70}, {"time": 28, "pitch": 63, "duration": 2, "velocity": 75}, {"time": 28, "pitch": 68, "duration": 2, "velocity": 73}, {"time": 34, "pitch": 44, "duration": 7, "velocity": 67}, {"time": 40, "pitch": 59, "duration": 2, "velocity": 66}, {"time": 40, "pitch": 63, "duration": 2, "velocity": 72}, {"time": 40, "pitch": 68, "duration": 3, "velocity": 80}, {"time": 46, "pitch": 51, "duration": 6, "velocity": 67}, {"time": 52, "pitch": 59, "duration": 2, "velocity": 67}, {"time": 52, "pitch": 63, "duration": 2, "velocity": 73}, {"time": 52, "pitch": 68, "duration": 2, "velocity": 78}, {"time": 58, "pitch": 49, "duration": 8, "velocity": 69}, {"time": 64, "pitch": 61, "duration": 2, "velocity": 69}, {"time": 64, "pitch": 64, "duration": 2, "velocity": 70}, {"time": 64, "pitch": 68, "duration": 2, "velocity": 66}, {"time": 70, "pitch": 56, "duration": 8, "velocity": 78}, {"time": 76, "pitch": 61, "duration": 2, "velocity": 69}, {"time": 76, "pitch": 64, "duration": 2, "velocity": 72}, {"time": 76, "pitch": 68, "duration": 2, "velocity": 64}, {"time": 82, "pitch": 49, "duration": 6, "velocity": 64}, {"time": 88, "pitch": 61, "duration": 2, "velocity": 69}, {"time": 88, "pitch": 64, "duration": 2, "velocity": 70}, {"time": 88, "pitch": 68, "duration": 2, "velocity": 72}, {"time": 94, "pitch": 56, "duration": 5, "velocity": 69}, {"time": 100, "pitch": 61, "duration": 2, "velocity": 76}, {"time": 100, "pitch": 64, "duration": 2, "velocity": 80}, {"time": 100, "pitch": 68, "duration": 2, "velocity": 72}, {"time": 106, "pitch": 42, "duration": 7, "velocity": 70}, {"time": 112, "pitch": 58, "duration": 2, "velocity": 78}, {"time": 112, "pitch": 61, "duration": 2, "velocity": 82}, {"time": 112, "pitch": 64, "duration": 2, "velocity": 75}, {"time": 118, "pitch": 49, "duration": 8, "velocity": 69}, {"time": 124, "pitch": 58, "duration": 2, "velocity": 64}, {"time": 124, "pitch": 61, "duration": 2, "velocity": 64}, {"time": 124, "pitch": 64, "duration": 2, "velocity": 70}, {"time": 130, "pitch": 42, "duration": 8, "velocity": 64}, {"time": 136, "pitch": 58, "duration": 2, "velocity": 76}, {"time": 136, "pitch": 61, "duration": 2, "velocity": 78}, {"time": 136, "pitch": 64, "duration": 2, "velocity": 73}, {"time": 142, "pitch": 49, "duration": 7, "velocity": 72}, {"time": 148, "pitch": 58, "duration": 2, "velocity": 67}, {"time": 148, "pitch": 61, "duration": 2, "velocity": 66}, {"time": 148, "pitch": 64, "duration": 2, "velocity": 69}, {"time": 154, "pitch": 47, "duration": 7, "velocity": 75}, {"time": 160, "pitch": 59, "duration": 2, "velocity": 76}, {"time": 160, "pitch": 63, "duration": 2, "velocity": 82}, {"time": 160, "pitch": 66, "duration": 2, "velocity": 78}, {"time": 166, "pitch": 47, "duration": 3, "velocity": 72}, {"time": 172, "pitch": 49, "duration": 3, "velocity": 93}, {"time": 178, "pitch": 51, "duration": 6, "velocity": 91}, {"time": 184, "pitch": 61, "duration": 2, "velocity": 72}, {"time": 184, "pitch": 67, "duration": 2, "velocity": 97}, {"time": 184, "pitch": 70, "duration": 2, "velocity": 69}, {"time": 190, "pitch": 51, "duration": 5, "velocity": 67}, {"time": 196, "pitch": 61, "duration": 1, "velocity": 70}, {"time": 196, "pitch": 67, "duration": 2, "velocity": 95}, {"time": 196, "pitch": 70, "duration": 2, "velocity": 76}, {"time": 202, "pitch": 44, "duration": 9, "velocity": 73}, {"time": 208, "pitch": 59, "duration": 2, "velocity": 76}, {"time": 208, "pitch": 63, "duration": 2, "velocity": 82}, {"time": 208, "pitch": 68, "duration": 3, "velocity": 82}, {"time": 214, "pitch": 51, "duration": 7, "velocity": 75}, {"time": 220, "pitch": 59, "duration": 2, "velocity": 73}, {"time": 220, "pitch": 63, "duration": 1, "velocity": 73}, {"time": 220, "pitch": 68, "duration": 2, "velocity": 76}, {"time": 226, "pitch": 44, "duration": 9, "velocity": 69}, {"time": 232, "pitch": 59, "duration": 2, "velocity": 76}, {"time": 232, "pitch": 63, "duration": 2, "velocity": 82}, {"time": 232, "pitch": 68, "duration": 2, "velocity": 78}, {"time": 238, "pitch": 51, "duration": 7, "velocity": 76}, {"time": 244, "pitch": 59, "duration": 2, "velocity": 78}, {"time": 244, "pitch": 63, "duration": 2, "velocity": 82}, {"time": 244, "pitch": 68, "duration": 3, "velocity": 80}, {"time": 250, "pitch": 49, "duration": 8, "velocity": 73}, {"time": 256, "pitch": 61, "duration": 2, "velocity": 75}, {"time": 256, "pitch": 64, "duration": 2, "velocity": 80}, {"time": 256, "pitch": 68, "duration": 2, "velocity": 75}, {"time": 262, "pitch": 56, "duration": 8, "velocity": 75}, {"time": 268, "pitch": 61, "duration": 2, "velocity": 66}, {"time": 268, "pitch": 64, "duration": 2, "velocity": 70}, {"time": 268, "pitch": 68, "duration": 2, "velocity": 69}, {"time": 268, "pitch": 71, "duration": 2, "velocity": 72}, {"time": 274, "pitch": 49, "duration": 7, "velocity": 70}, {"time": 280, "pitch": 61, "duration": 2, "velocity": 76}, {"time": 280, "pitch": 64, "duration": 2, "velocity": 88}, {"time": 280, "pitch": 68, "duration": 3, "velocity": 78}, {"time": 286, "pitch": 56, "duration": 6, "velocity": 63}, {"time": 292, "pitch": 61, "duration": 2, "velocity": 73}, {"time": 292, "pitch": 64, "duration": 2, "velocity": 73}, {"time": 292, "pitch": 68, "duration": 2, "velocity": 73}, {"time": 298, "pitch": 42, "duration": 7, "velocity": 78}, {"time": 304, "pitch": 58, "duration": 2, "velocity": 73}, {"time": 304, "pitch": 61, "duration": 2, "velocity": 75}, {"time": 304, "pitch": 64, "duration": 2, "velocity": 78}, {"time": 310, "pitch": 49, "duration": 8, "velocity": 76}, {"time": 316, "pitch": 58, "duration": 2, "velocity": 76}, {"time": 316, "pitch": 61, "duration": 2, "velocity": 78}, {"time": 316, "pitch": 64, "duration": 2, "velocity": 80}, {"time": 316, "pitch": 66, "duration": 2, "velocity": 75}, {"time": 322, "pitch": 42, "duration": 8, "velocity": 70}, {"time": 328, "pitch": 58, "duration": 2, "velocity": 70}, {"time": 328, "pitch": 61, "duration": 2, "velocity": 67}, {"time": 328, "pitch": 64, "duration": 2, "velocity": 80}, {"time": 328, "pitch": 66, "duration": 2, "velocity": 75}, {"time": 334, "pitch": 44, "duration": 7, "velocity": 80}, {"time": 340, "pitch": 46, "duration": 4, "velocity": 58}, {"time": 346, "pitch": 47, "duration": 6, "velocity": 91}, {"time": 352, "pitch": 59, "duration": 2, "velocity": 72}, {"time": 352, "pitch": 63, "duration": 2, "velocity": 76}, {"time": 352, "pitch": 66, "duration": 2, "velocity": 80}, {"time": 358, "pitch": 47, "duration": 7, "velocity": 82}, {"time": 364, "pitch": 59, "duration": 2, "velocity": 70}, {"time": 364, "pitch": 63, "duration": 2, "velocity": 85}, {"time": 364, "pitch": 66, "duration": 2, "velocity": 88}, {"time": 370, "pitch": 39, "duration": 21, "velocity": 82}, {"time": 376, "pitch": 61, "duration": 19, "velocity": 85}, {"time": 376, "pitch": 67, "duration": 19, "velocity": 101}, {"time": 376, "pitch": 70, "duration": 18, "velocity": 80}, {"time": 394, "pitch": 44, "duration": 8, "velocity": 72}, {"time": 400, "pitch": 59, "duration": 2, "velocity": 85}, {"time": 400, "pitch": 63, "duration": 2, "velocity": 101}, {"time": 400, "pitch": 68, "duration": 2, "velocity": 85}, {"time": 406, "pitch": 51, "duration": 8, "velocity": 53}, {"time": 412, "pitch": 59, "duration": 2, "velocity": 70}, {"time": 412, "pitch": 63, "duration": 2, "velocity": 78}, {"time": 412, "pitch": 68, "duration": 2, "velocity": 73}, {"time": 418, "pitch": 44, "duration": 8, "velocity": 75}, {"time": 424, "pitch": 59, "duration": 2, "velocity": 72}, {"time": 424, "pitch": 63, "duration": 2, "velocity": 82}, {"time": 424, "pitch": 68, "duration": 2, "velocity": 75}, {"time": 430, "pitch": 51, "duration": 6, "velocity": 73}, {"time": 436, "pitch": 59, "duration": 2, "velocity": 80}, {"time": 436, "pitch": 63, "duration": 2, "velocity": 80}, {"time": 436, "pitch": 68, "duration": 2, "velocity": 76}, {"time": 442, "pitch": 37, "duration": 9, "velocity": 66}, {"time": 442, "pitch": 49, "duration": 8, "velocity": 57}, {"time": 448, "pitch": 61, "duration": 2, "velocity": 75}, {"time": 448, "pitch": 64, "duration": 2, "velocity": 80}, {"time": 448, "pitch": 68, "duration": 2, "velocity": 76}, {"time": 454, "pitch": 44, "duration": 8, "velocity": 75}, {"time": 460, "pitch": 61, "duration": 2, "velocity": 73}, {"time": 460, "pitch": 64, "duration": 2, "velocity": 73}, {"time": 460, "pitch": 68, "duration": 3, "velocity": 76}, {"time": 466, "pitch": 37, "duration": 9, "velocity": 82}, {"time": 472, "pitch": 61, "duration": 2, "velocity": 80}, {"time": 472, "pitch": 64, "duration": 2, "velocity": 80}, {"time": 472, "pitch": 68, "duration": 2, "velocity": 82}, {"time": 478, "pitch": 44, "duration": 7, "velocity": 66}, {"time": 484, "pitch": 61, "duration": 3, "velocity": 75}, {"time": 484, "pitch": 64, "duration": 3, "velocity": 72}, {"time": 484, "pitch": 68, "duration": 3, "velocity": 70}, {"time": 490, "pitch": 42, "duration": 9, "velocity": 70}, {"time": 496, "pitch": 61, "duration": 2, "velocity": 85}, {"time": 496, "pitch": 64, "duration": 2, "velocity": 99}, {"time": 496, "pitch": 66, "duration": 2, "velocity": 99}, {"time": 496, "pitch": 68, "duration": 2, "velocity": 82}, {"time": 502, "pitch": 49, "duration": 8, "velocity": 72}, {"time": 508, "pitch": 61, "duration": 2, "velocity": 67}, {"time": 508, "pitch": 64, "duration": 2, "velocity": 64}, {"time": 508, "pitch": 66, "duration": 2, "velocity": 64}, {"time": 508, "pitch": 68, "duration": 2, "velocity": 70}, {"time": 514, "pitch": 42, "duration": 8, "velocity": 85}, {"time": 520, "pitch": 61, "duration": 2, "velocity": 70}, {"time": 520, "pitch": 64, "duration": 2, "velocity": 72}, {"time": 520, "pitch": 66, "duration": 2, "velocity": 72}, {"time": 520, "pitch": 68, "duration": 2, "velocity": 69}, {"time": 526, "pitch": 44, "duration": 7, "velocity": 88}, {"time": 532, "pitch": 61, "duration": 3, "velocity": 78}, {"time": 532, "pitch": 64, "duration": 3, "velocity": 82}, {"time": 532, "pitch": 68, "duration": 4, "velocity": 78}, {"time": 538, "pitch": 47, "duration": 7, "velocity": 95}, {"time": 544, "pitch": 59, "duration": 3, "velocity": 88}, {"time": 544, "pitch": 63, "duration": 3, "velocity": 97}, {"time": 544, "pitch": 66, "duration": 3, "velocity": 99}, {"time": 550, "pitch": 51, "duration": 6, "velocity": 93}, {"time": 556, "pitch": 59, "duration": 3, "velocity": 82}, {"time": 556, "pitch": 63, "duration": 4, "velocity": 93}, {"time": 556, "pitch": 66, "duration": 4, "velocity": 93}, {"time": 562, "pitch": 44, "duration": 14, "velocity": 70}, {"time": 562, "pitch": 56, "duration": 15, "velocity": 59}, {"time": 562, "pitch": 60, "duration": 12, "velocity": 88}, {"time": 562, "pitch": 63, "duration": 14, "velocity": 85}, {"time": 562, "pitch": 68, "duration": 14, "velocity": 78}, {"time": 574, "pitch": 60, "duration": 2, "velocity": 35}, {"time": 574, "pitch": 66, "duration": 10, "velocity": 73}, {"time": 586, "pitch": 49, "duration": 7, "velocity": 85}, {"time": 592, "pitch": 61, "duration": 2, "velocity": 70}, {"time": 592, "pitch": 64, "duration": 2, "velocity": 75}, {"time": 592, "pitch": 68, "duration": 2, "velocity": 75}, {"time": 598, "pitch": 56, "duration": 7, "velocity": 53}, {"time": 604, "pitch": 61, "duration": 2, "velocity": 73}, {"time": 604, "pitch": 64, "duration": 2, "velocity": 76}, {"time": 604, "pitch": 68, "duration": 2, "velocity": 75}, {"time": 610, "pitch": 49, "duration": 8, "velocity": 63}, {"time": 616, "pitch": 61, "duration": 2, "velocity": 72}, {"time": 616, "pitch": 64, "duration": 2, "velocity": 78}, {"time": 616, "pitch": 68, "duration": 2, "velocity": 75}, {"time": 622, "pitch": 56, "duration": 6, "velocity": 69}, {"time": 628, "pitch": 61, "duration": 2, "velocity": 75}, {"time": 628, "pitch": 64, "duration": 2, "velocity": 75}, {"time": 628, "pitch": 68, "duration": 2, "velocity": 76}, {"time": 634, "pitch": 42, "duration": 8, "velocity": 70}, {"time": 640, "pitch": 58, "duration": 2, "velocity": 80}, {"time": 640, "pitch": 61, "duration": 2, "velocity": 75}, {"time": 640, "pitch": 64, "duration": 2, "velocity": 67}, {"time": 646, "pitch": 49, "duration": 8, "velocity": 75}, {"time": 652, "pitch": 58, "duration": 2, "velocity": 75}, {"time": 652, "pitch": 61, "duration": 2, "velocity": 76}, {"time": 652, "pitch": 64, "duration": 3, "velocity": 78}, {"time": 658, "pitch": 42, "duration": 9, "velocity": 67}, {"time": 664, "pitch": 58, "duration": 2, "velocity": 76}, {"time": 664, "pitch": 61, "duration": 2, "velocity": 78}, {"time": 664, "pitch": 64, "duration": 2, "velocity": 76}, {"time": 670, "pitch": 49, "duration": 6, "velocity": 85}, {"time": 676, "pitch": 44, "duration": 4, "velocity": 70}, {"time": 676, "pitch": 58, "duration": 2, "velocity": 73}, {"time": 676, "pitch": 61, "duration": 2, "velocity": 75}, {"time": 676, "pitch": 64, "duration": 3, "velocity": 78}, {"time": 679, "pitch": 46, "duration": 3, "velocity": 56}, {"time": 682, "pitch": 47, "duration": 6, "velocity": 76}, {"time": 688, "pitch": 54, "duration": 2, "velocity": 85}, {"time": 688, "pitch": 59, "duration": 2, "velocity": 80}, {"time": 688, "pitch": 63, "duration": 2, "velocity": 82}, {"time": 694, "pitch": 51, "duration": 8, "velocity": 95}, {"time": 700, "pitch": 54, "duration": 2, "velocity": 82}, {"time": 700, "pitch": 59, "duration": 2, "velocity": 80}, {"time": 700, "pitch": 63, "duration": 3, "velocity": 85}, {"time": 706, "pitch": 47, "duration": 9, "velocity": 93}, {"time": 712, "pitch": 54, "duration": 2, "velocity": 76}, {"time": 712, "pitch": 59, "duration": 2, "velocity": 76}, {"time": 712, "pitch": 63, "duration": 2, "velocity": 78}, {"time": 718, "pitch": 51, "duration": 6, "velocity": 85}, {"time": 724, "pitch": 54, "duration": 2, "velocity": 78}, {"time": 724, "pitch": 59, "duration": 2, "velocity": 73}, {"time": 724, "pitch": 63, "duration": 3, "velocity": 80}, {"time": 730, "pitch": 39, "duration": 9, "velocity": 70}, {"time": 730, "pitch": 51, "duration": 9, "velocity": 69}, {"time": 736, "pitch": 54, "duration": 2, "velocity": 67}, {"time": 736, "pitch": 57, "duration": 4, "velocity": 85}, {"time": 736, "pitch": 63, "duration": 3, "velocity": 78}, {"time": 742, "pitch": 46, "duration": 9, "velocity": 72}, {"time": 748, "pitch": 54, "duration": 4, "velocity": 70}, {"time": 748, "pitch": 57, "duration": 4, "velocity": 76}, {"time": 748, "pitch": 61, "duration": 4, "velocity": 78}, {"time": 748, "pitch": 63, "duration": 4, "velocity": 80}, {"time": 754, "pitch": 39, "duration": 9, "velocity": 73}, {"time": 754, "pitch": 51, "duration": 8, "velocity": 67}, {"time": 760, "pitch": 54, "duration": 3, "velocity": 75}, {"time": 760, "pitch": 57, "duration": 6, "velocity": 80}, {"time": 760, "pitch": 61, "duration": 6, "velocity": 80}, {"time": 760, "pitch": 63, "duration": 3, "velocity": 80}, {"time": 766, "pitch": 46, "duration": 5, "velocity": 70}, {"time": 772, "pitch": 54, "duration": 2, "velocity": 76}, {"time": 772, "pitch": 57, "duration": 5, "velocity": 82}, {"time": 772, "pitch": 61, "duration": 3, "velocity": 78}, {"time": 772, "pitch": 63, "duration": 3, "velocity": 82}, {"time": 778, "pitch": 37, "duration": 9, "velocity": 72}, {"time": 778, "pitch": 49, "duration": 9, "velocity": 70}, {"time": 784, "pitch": 56, "duration": 2, "velocity": 78}, {"time": 784, "pitch": 59, "duration": 2, "velocity": 88}, {"time": 784, "pitch": 64, "duration": 2, "velocity": 80}, {"time": 790, "pitch": 44, "duration": 8, "velocity": 73}, {"time": 796, "pitch": 56, "duration": 2, "velocity": 78}, {"time": 796, "pitch": 59, "duration": 2, "velocity": 88}, {"time": 796, "pitch": 64, "duration": 2, "velocity": 85}, {"time": 802, "pitch": 37, "duration": 8, "velocity": 70}, {"time": 802, "pitch": 49, "duration": 8, "velocity": 75}, {"time": 808, "pitch": 56, "duration": 3, "velocity": 75}, {"time": 808, "pitch": 59, "duration": 3, "velocity": 78}, {"time": 808, "pitch": 64, "duration": 3, "velocity": 61}, {"time": 814, "pitch": 37, "duration": 2, "velocity": 67}, {"time": 814, "pitch": 49, "duration": 3, "velocity": 80}, {"time": 820, "pitch": 40, "duration": 3, "velocity": 75}, {"time": 823, "pitch": 41, "duration": 2, "velocity": 64}, {"time": 826, "pitch": 42, "duration": 8, "velocity": 80}, {"time": 832, "pitch": 56, "duration": 2, "velocity": 78}, {"time": 832, "pitch": 59, "duration": 2, "velocity": 88}, {"time": 832, "pitch": 64, "duration": 3, "velocity": 85}, {"time": 838, "pitch": 47, "duration": 4, "velocity": 80}, {"time": 844, "pitch": 56, "duration": 2, "velocity": 80}, {"time": 844, "pitch": 61, "duration": 2, "velocity": 78}, {"time": 844, "pitch": 64, "duration": 2, "velocity": 88}, {"time": 850, "pitch": 42, "duration": 7, "velocity": 76}, {"time": 856, "pitch": 58, "duration": 2, "velocity": 85}, {"time": 856, "pitch": 61, "duration": 2, "velocity": 85}, {"time": 856, "pitch": 66, "duration": 2, "velocity": 82}, {"time": 862, "pitch": 44, "duration": 7, "velocity": 85}, {"time": 868, "pitch": 46, "duration": 3, "velocity": 95}, {"time": 874, "pitch": 47, "duration": 6, "velocity": 93}, {"time": 880, "pitch": 54, "duration": 2, "velocity": 75}, {"time": 880, "pitch": 59, "duration": 2, "velocity": 73}, {"time": 880, "pitch": 63, "duration": 3, "velocity": 80}, {"time": 886, "pitch": 51, "duration": 5, "velocity": 72}, {"time": 892, "pitch": 54, "duration": 2, "velocity": 85}, {"time": 892, "pitch": 59, "duration": 3, "velocity": 78}, {"time": 892, "pitch": 63, "duration": 3, "velocity": 80}, {"time": 898, "pitch": 42, "duration": 6, "velocity": 80}, {"time": 904, "pitch": 54, "duration": 3, "velocity": 80}, {"time": 904, "pitch": 59, "duration": 3, "velocity": 78}, {"time": 904, "pitch": 63, "duration": 3, "velocity": 82}, {"time": 910, "pitch": 35, "duration": 7, "velocity": 72}, {"time": 916, "pitch": 54, "duration": 3, "velocity": 76}, {"time": 916, "pitch": 59, "duration": 3, "velocity": 75}, {"time": 916, "pitch": 63, "duration": 3, "velocity": 80}, {"time": 922, "pitch": 39, "duration": 8, "velocity": 67}, {"time": 922, "pitch": 51, "duration": 8, "velocity": 64}, {"time": 928, "pitch": 54, "duration": 2, "velocity": 73}, {"time": 928, "pitch": 57, "duration": 3, "velocity": 80}, {"time": 928, "pitch": 61, "duration": 2, "velocity": 78}, {"time": 928, "pitch": 63, "duration": 2, "velocity": 78}, {"time": 934, "pitch": 46, "duration": 8, "velocity": 60}, {"time": 940, "pitch": 54, "duration": 2, "velocity": 72}, {"time": 940, "pitch": 57, "duration": 3, "velocity": 78}, {"time": 940, "pitch": 61, "duration": 3, "velocity": 78}, {"time": 946, "pitch": 44, "duration": 8, "velocity": 80}, {"time": 952, "pitch": 56, "duration": 4, "velocity": 80}, {"time": 952, "pitch": 60, "duration": 4, "velocity": 78}, {"time": 952, "pitch": 63, "duration": 4, "velocity": 85}, {"time": 958, "pitch": 48, "duration": 6, "velocity": 93}, {"time": 964, "pitch": 56, "duration": 2, "velocity": 78}, {"time": 964, "pitch": 60, "duration": 3, "velocity": 85}, {"time": 964, "pitch": 63, "duration": 2, "velocity": 85}, {"time": 970, "pitch": 37, "duration": 9, "velocity": 72}, {"time": 970, "pitch": 49, "duration": 9, "velocity": 72}, {"time": 976, "pitch": 56, "duration": 2, "velocity": 69}, {"time": 976, "pitch": 59, "duration": 2, "velocity": 85}, {"time": 976, "pitch": 64, "duration": 2, "velocity": 80}, {"time": 982, "pitch": 44, "duration": 7, "velocity": 73}, {"time": 988, "pitch": 56, "duration": 2, "velocity": 78}, {"time": 988, "pitch": 59, "duration": 2, "velocity": 82}, {"time": 988, "pitch": 64, "duration": 2, "velocity": 78}, {"time": 994, "pitch": 42, "duration": 8, "velocity": 72}, {"time": 1000, "pitch": 58, "duration": 2, "velocity": 85}, {"time": 1000, "pitch": 61, "duration": 3, "velocity": 97}, {"time": 1000, "pitch": 66, "duration": 3, "velocity": 76}, {"time": 1006, "pitch": 49, "duration": 5, "velocity": 75}, {"time": 1012, "pitch": 58, "duration": 4, "velocity": 95}, {"time": 1012, "pitch": 61, "duration": 5, "velocity": 85}, {"time": 1012, "pitch": 66, "duration": 6, "velocity": 80}, {"time": 1018, "pitch": 35, "duration": 8, "velocity": 73}, {"time": 1018, "pitch": 47, "duration": 9, "velocity": 75}, {"time": 1024, "pitch": 54, "duration": 2, "velocity": 78}, {"time": 1024, "pitch": 59, "duration": 2, "velocity": 82}, {"time": 1024, "pitch": 63, "duration": 3, "velocity": 80}, {"time": 1030, "pitch": 42, "duration": 7, "velocity": 70}, {"time": 1036, "pitch": 54, "duration": 2, "velocity": 80}, {"time": 1036, "pitch": 58, "duration": 2, "velocity": 73}, {"time": 1036, "pitch": 59, "duration": 3, "velocity": 88}, {"time": 1036, "pitch": 63, "duration": 2, "velocity": 82}, {"time": 1042, "pitch": 44, "duration": 9, "velocity": 73}, {"time": 1048, "pitch": 56, "duration": 2, "velocity": 67}, {"time": 1048, "pitch": 59, "duration": 2, "velocity": 88}, {"time": 1048, "pitch": 63, "duration": 2, "velocity": 78}, {"time": 1048, "pitch": 66, "duration": 2, "velocity": 67}, {"time": 1054, "pitch": 51, "duration": 7, "velocity": 69}, {"time": 1060, "pitch": 56, "duration": 2, "velocity": 82}, {"time": 1060, "pitch": 60, "duration": 3, "velocity": 101}, {"time": 1060, "pitch": 63, "duration": 3, "velocity": 80}, {"time": 1063, "pitch": 64, "duration": 4, "velocity": 13}, {"time": 1066, "pitch": 37, "duration": 9, "velocity": 78}, {"time": 1066, "pitch": 49, "duration": 9, "velocity": 82}, {"time": 1072, "pitch": 56, "duration": 2, "velocity": 70}, {"time": 1072, "pitch": 59, "duration": 2, "velocity": 75}, {"time": 1072, "pitch": 61, "duration": 2, "velocity": 73}, {"time": 1072, "pitch": 64, "duration": 3, "velocity": 75}, {"time": 1078, "pitch": 44, "duration": 7, "velocity": 67}, {"time": 1084, "pitch": 56, "duration": 3, "velocity": 73}, {"time": 1084, "pitch": 59, "duration": 3, "velocity": 75}, {"time": 1084, "pitch": 61, "duration": 3, "velocity": 75}, {"time": 1084, "pitch": 64, "duration": 3, "velocity": 75}, {"time": 1090, "pitch": 44, "duration": 6, "velocity": 72}, {"time": 1096, "pitch": 56, "duration": 3, "velocity": 73}, {"time": 1096, "pitch": 59, "duration": 3, "velocity": 78}, {"time": 1096, "pitch": 63, "duration": 3, "velocity": 76}, {"time": 1102, "pitch": 37, "duration": 7, "velocity": 80}, {"time": 1108, "pitch": 56, "duration": 3, "velocity": 75}, {"time": 1108, "pitch": 59, "duration": 3, "velocity": 76}, {"time": 1108, "pitch": 64, "duration": 3, "velocity": 82}, {"time": 1114, "pitch": 46, "duration": 10, "velocity": 76}, {"time": 1120, "pitch": 58, "duration": 2, "velocity": 76}, {"time": 1120, "pitch": 61, "duration": 2, "velocity": 80}, {"time": 1120, "pitch": 64, "duration": 2, "velocity": 78}, {"time": 1126, "pitch": 52, "duration": 6, "velocity": 76}, {"time": 1132, "pitch": 58, "duration": 2, "velocity": 75}, {"time": 1132, "pitch": 61, "duration": 2, "velocity": 80}, {"time": 1132, "pitch": 64, "duration": 3, "velocity": 76}, {"time": 1138, "pitch": 39, "duration": 9, "velocity": 73}, {"time": 1138, "pitch": 51, "duration": 8, "velocity": 78}, {"time": 1144, "pitch": 55, "duration": 2, "velocity": 97}, {"time": 1144, "pitch": 58, "duration": 2, "velocity": 80}, {"time": 1144, "pitch": 61, "duration": 2, "velocity": 82}, {"time": 1150, "pitch": 39, "duration": 10, "velocity": 73}, {"time": 1150, "pitch": 46, "duration": 2, "velocity": 64}, {"time": 1150, "pitch": 51, "duration": 11, "velocity": 80}, {"time": 1150, "pitch": 55, "duration": 12, "velocity": 78}, {"time": 1150, "pitch": 58, "duration": 12, "velocity": 76}, {"time": 1150, "pitch": 61, "duration": 12, "velocity": 76}, {"time": 1150, "pitch": 63, "duration": 13, "velocity": 72}, {"time": 1162, "pitch": 44, "duration": 8, "velocity": 73}, {"time": 1168, "pitch": 59, "duration": 2, "velocity": 76}, {"time": 1168, "pitch": 63, "duration": 2, "velocity": 80}, {"time": 1168, "pitch": 68, "duration": 2, "velocity": 78}, {"time": 1174, "pitch": 51, "duration": 8, "velocity": 59}, {"time": 1180, "pitch": 59, "duration": 2, "velocity": 78}, {"time": 1180, "pitch": 63, "duration": 2, "velocity": 82}, {"time": 1180, "pitch": 68, "duration": 2, "velocity": 78}, {"time": 1186, "pitch": 44, "duration": 9, "velocity": 63}, {"time": 1192, "pitch": 59, "duration": 2, "velocity": 76}, {"time": 1192, "pitch": 63, "duration": 2, "velocity": 82}, {"time": 1192, "pitch": 68, "duration": 3, "velocity": 80}, {"time": 1198, "pitch": 51, "duration": 7, "velocity": 70}, {"time": 1204, "pitch": 59, "duration": 2, "velocity": 75}, {"time": 1204, "pitch": 63, "duration": 3, "velocity": 78}, {"time": 1204, "pitch": 68, "duration": 3, "velocity": 80}, {"time": 1210, "pitch": 49, "duration": 9, "velocity": 70}, {"time": 1216, "pitch": 61, "duration": 2, "velocity": 75}, {"time": 1216, "pitch": 64, "duration": 2, "velocity": 82}, {"time": 1216, "pitch": 68, "duration": 2, "velocity": 75}, {"time": 1222, "pitch": 56, "duration": 8, "velocity": 56}, {"time": 1228, "pitch": 61, "duration": 2, "velocity": 73}, {"time": 1228, "pitch": 64, "duration": 2, "velocity": 78}, {"time": 1228, "pitch": 68, "duration": 2, "velocity": 75}, {"time": 1234, "pitch": 49, "duration": 8, "velocity": 64}, {"time": 1240, "pitch": 61, "duration": 2, "velocity": 76}, {"time": 1240, "pitch": 64, "duration": 2, "velocity": 80}, {"time": 1240, "pitch": 68, "duration": 2, "velocity": 80}, {"time": 1246, "pitch": 56, "duration": 5, "velocity": 64}, {"time": 1252, "pitch": 61, "duration": 2, "velocity": 75}, {"time": 1252, "pitch": 64, "duration": 2, "velocity": 82}, {"time": 1252, "pitch": 68, "duration": 2, "velocity": 80}, {"time": 1258, "pitch": 42, "duration": 8, "velocity": 76}, {"time": 1264, "pitch": 58, "duration": 2, "velocity": 76}, {"time": 1264, "pitch": 61, "duration": 2, "velocity": 76}, {"time": 1264, "pitch": 64, "duration": 2, "velocity": 73}, {"time": 1270, "pitch": 49, "duration": 8, "velocity": 63}, {"time": 1276, "pitch": 58, "duration": 2, "velocity": 70}, {"time": 1276, "pitch": 61, "duration": 2, "velocity": 76}, {"time": 1276, "pitch": 64, "duration": 2, "velocity": 75}, {"time": 1282, "pitch": 42, "duration": 8, "velocity": 69}, {"time": 1288, "pitch": 58, "duration": 2, "velocity": 69}, {"time": 1288, "pitch": 61, "duration": 2, "velocity": 66}, {"time": 1288, "pitch": 64, "duration": 2, "velocity": 76}, {"time": 1294, "pitch": 42, "duration": 10, "velocity": 64}, {"time": 1306, "pitch": 47, "duration": 7, "velocity": 66}, {"time": 1312, "pitch": 54, "duration": 2, "velocity": 80}, {"time": 1312, "pitch": 59, "duration": 2, "velocity": 91}, {"time": 1312, "pitch": 63, "duration": 2, "velocity": 82}, {"time": 1318, "pitch": 47, "duration": 7, "velocity": 72}, {"time": 1324, "pitch": 54, "duration": 2, "velocity": 76}, {"time": 1324, "pitch": 59, "duration": 2, "velocity": 82}, {"time": 1324, "pitch": 63, "duration": 2, "velocity": 72}, {"time": 1330, "pitch": 39, "duration": 21, "velocity": 80}, {"time": 1342, "pitch": 55, "duration": 10, "velocity": 75}, {"time": 1342, "pitch": 58, "duration": 9, "velocity": 78}, {"time": 1342, "pitch": 61, "duration": 10, "velocity": 78}, {"time": 1342, "pitch": 63, "duration": 12, "velocity": 66}, {"time": 1354, "pitch": 44, "duration": 9, "velocity": 73}, {"time": 1360, "pitch": 59, "duration": 2, "velocity": 76}, {"time": 1360, "pitch": 63, "duration": 2, "velocity": 82}, {"time": 1360, "pitch": 68, "duration": 3, "velocity": 82}, {"time": 1366, "pitch": 51, "duration": 7, "velocity": 75}, {"time": 1372, "pitch": 59, "duration": 2, "velocity": 73}, {"time": 1372, "pitch": 63, "duration": 1, "velocity": 73}, {"time": 1372, "pitch": 68, "duration": 2, "velocity": 76}, {"time": 1378, "pitch": 44, "duration": 9, "velocity": 69}, {"time": 1384, "pitch": 59, "duration": 2, "velocity": 76}, {"time": 1384, "pitch": 63, "duration": 2, "velocity": 82}, {"time": 1384, "pitch": 68, "duration": 2, "velocity": 78}, {"time": 1390, "pitch": 51, "duration": 7, "velocity": 76}, {"time": 1396, "pitch": 59, "duration": 2, "velocity": 78}, {"time": 1396, "pitch": 63, "duration": 2, "velocity": 82}, {"time": 1396, "pitch": 68, "duration": 3, "velocity": 80}, {"time": 1402, "pitch": 49, "duration": 8, "velocity": 73}, {"time": 1408, "pitch": 61, "duration": 2, "velocity": 75}, {"time": 1408, "pitch": 64, "duration": 2, "velocity": 80}, {"time": 1408, "pitch": 68, "duration": 2, "velocity": 75}, {"time": 1414, "pitch": 56, "duration": 8, "velocity": 75}, {"time": 1420, "pitch": 61, "duration": 2, "velocity": 66}, {"time": 1420, "pitch": 64, "duration": 2, "velocity": 70}, {"time": 1420, "pitch": 68, "duration": 2, "velocity": 69}, {"time": 1420, "pitch": 71, "duration": 2, "velocity": 72}, {"time": 1426, "pitch": 49, "duration": 7, "velocity": 70}, {"time": 1432, "pitch": 61, "duration": 2, "velocity": 76}, {"time": 1432, "pitch": 64, "duration": 2, "velocity": 88}, {"time": 1432, "pitch": 68, "duration": 3, "velocity": 78}, {"time": 1438, "pitch": 56, "duration": 6, "velocity": 63}, {"time": 1444, "pitch": 61, "duration": 2, "velocity": 73}, {"time": 1444, "pitch": 64, "duration": 2, "velocity": 73}, {"time": 1444, "pitch": 68, "duration": 2, "velocity": 73}, {"time": 1450, "pitch": 42, "duration": 7, "velocity": 78}, {"time": 1456, "pitch": 58, "duration": 2, "velocity": 73}, {"time": 1456, "pitch": 61, "duration": 2, "velocity": 75}, {"time": 1456, "pitch": 64, "duration": 2, "velocity": 78}, {"time": 1462, "pitch": 49, "duration": 8, "velocity": 76}, {"time": 1468, "pitch": 58, "duration": 2, "velocity": 76}, {"time": 1468, "pitch": 61, "duration": 2, "velocity": 78}, {"time": 1468, "pitch": 64, "duration": 2, "velocity": 80}, {"time": 1468, "pitch": 66, "duration": 2, "velocity": 75}, {"time": 1474, "pitch": 42, "duration": 8, "velocity": 70}, {"time": 1480, "pitch": 58, "duration": 2, "velocity": 70}, {"time": 1480, "pitch": 61, "duration": 2, "velocity": 67}, {"time": 1480, "pitch": 64, "duration": 2, "velocity": 80}, {"time": 1480, "pitch": 66, "duration": 2, "velocity": 75}, {"time": 1486, "pitch": 44, "duration": 7, "velocity": 80}, {"time": 1492, "pitch": 46, "duration": 4, "velocity": 58}, {"time": 1498, "pitch": 47, "duration": 6, "velocity": 91}, {"time": 1504, "pitch": 59, "duration": 2, "velocity": 72}, {"time": 1504, "pitch": 63, "duration": 2, "velocity": 76}, {"time": 1504, "pitch": 66, "duration": 2, "velocity": 80}, {"time": 1510, "pitch": 47, "duration": 7, "velocity": 82}, {"time": 1516, "pitch": 59, "duration": 2, "velocity": 70}, {"time": 1516, "pitch": 63, "duration": 2, "velocity": 85}, {"time": 1516, "pitch": 66, "duration": 2, "velocity": 88}, {"time": 1522, "pitch": 39, "duration": 21, "velocity": 82}, {"time": 1528, "pitch": 61, "duration": 19, "velocity": 85}, {"time": 1528, "pitch": 67, "duration": 19, "velocity": 101}, {"time": 1528, "pitch": 70, "duration": 18, "velocity": 80}, {"time": 1546, "pitch": 44, "duration": 8, "velocity": 72}, {"time": 1552, "pitch": 59, "duration": 2, "velocity": 85}, {"time": 1552, "pitch": 63, "duration": 2, "velocity": 101}, {"time": 1552, "pitch": 68, "duration": 2, "velocity": 85}, {"time": 1558, "pitch": 51, "duration": 8, "velocity": 53}, {"time": 1564, "pitch": 59, "duration": 2, "velocity": 70}, {"time": 1564, "pitch": 63, "duration": 2, "velocity": 78}, {"time": 1564, "pitch": 68, "duration": 2, "velocity": 73}, {"time": 1570, "pitch": 44, "duration": 8, "velocity": 75}, {"time": 1576, "pitch": 59, "duration": 2, "velocity": 72}, {"time": 1576, "pitch": 63, "duration": 2, "velocity": 82}, {"time": 1576, "pitch": 68, "duration": 2, "velocity": 75}, {"time": 1582, "pitch": 51, "duration": 6, "velocity": 73}, {"time": 1588, "pitch": 59, "duration": 2, "velocity": 80}, {"time": 1588, "pitch": 63, "duration": 2, "velocity": 80}, {"time": 1588, "pitch": 68, "duration": 2, "velocity": 76}, {"time": 1594, "pitch": 37, "duration": 9, "velocity": 66}, {"time": 1594, "pitch": 49, "duration": 8, "velocity": 57}, {"time": 1600, "pitch": 61, "duration": 2, "velocity": 75}, {"time": 1600, "pitch": 64, "duration": 2, "velocity": 80}, {"time": 1600, "pitch": 68, "duration": 2, "velocity": 76}, {"time": 1606, "pitch": 44, "duration": 8, "velocity": 75}, {"time": 1612, "pitch": 61, "duration": 2, "velocity": 73}, {"time": 1612, "pitch": 64, "duration": 2, "velocity": 73}, {"time": 1612, "pitch": 68, "duration": 3, "velocity": 76}, {"time": 1618, "pitch": 37, "duration": 9, "velocity": 82}, {"time": 1624, "pitch": 61, "duration": 2, "velocity": 80}, {"time": 1624, "pitch": 64, "duration": 2, "velocity": 80}, {"time": 1624, "pitch": 68, "duration": 2, "velocity": 82}, {"time": 1630, "pitch": 44, "duration": 7, "velocity": 66}, {"time": 1636, "pitch": 61, "duration": 3, "velocity": 75}, {"time": 1636, "pitch": 64, "duration": 3, "velocity": 72}, {"time": 1636, "pitch": 68, "duration": 3, "velocity": 70}, {"time": 1642, "pitch": 42, "duration": 9, "velocity": 70}, {"time": 1648, "pitch": 61, "duration": 2, "velocity": 85}, {"time": 1648, "pitch": 64, "duration": 2, "velocity": 99}, {"time": 1648, "pitch": 66, "duration": 2, "velocity": 99}, {"time": 1648, "pitch": 68, "duration": 2, "velocity": 82}, {"time": 1654, "pitch": 49, "duration": 8, "velocity": 72}, {"time": 1660, "pitch": 61, "duration": 2, "velocity": 67}, {"time": 1660, "pitch": 64, "duration": 2, "velocity": 64}, {"time": 1660, "pitch": 66, "duration": 2, "velocity": 64}, {"time": 1660, "pitch": 68, "duration": 2, "velocity": 70}, {"time": 1666, "pitch": 42, "duration": 8, "velocity": 85}, {"time": 1672, "pitch": 61, "duration": 2, "velocity": 70}, {"time": 1672, "pitch": 64, "duration": 2, "velocity": 72}, {"time": 1672, "pitch": 66, "duration": 2, "velocity": 72}, {"time": 1672, "pitch": 68, "duration": 2, "velocity": 69}, {"time": 1678, "pitch": 44, "duration": 7, "velocity": 88}, {"time": 1684, "pitch": 61, "duration": 3, "velocity": 78}, {"time": 1684, "pitch": 64, "duration": 3, "velocity": 82}, {"time": 1684, "pitch": 68, "duration": 4, "velocity": 78}, {"time": 1690, "pitch": 47, "duration": 7, "velocity": 95}, {"time": 1696, "pitch": 59, "duration": 3, "velocity": 88}, {"time": 1696, "pitch": 63, "duration": 3, "velocity": 97}, {"time": 1696, "pitch": 66, "duration": 3, "velocity": 99}, {"time": 1702, "pitch": 51, "duration": 6, "velocity": 93}, {"time": 1708, "pitch": 59, "duration": 3, "velocity": 82}, {"time": 1708, "pitch": 63, "duration": 4, "velocity": 93}, {"time": 1708, "pitch": 66, "duration": 4, "velocity": 93}, {"time": 1714, "pitch": 44, "duration": 14, "velocity": 70}, {"time": 1714, "pitch": 56, "duration": 15, "velocity": 59}, {"time": 1714, "pitch": 60, "duration": 12, "velocity": 88}, {"time": 1714, "pitch": 63, "duration": 14, "velocity": 85}, {"time": 1714, "pitch": 68, "duration": 14, "velocity": 78}, {"time": 1726, "pitch": 60, "duration": 2, "velocity": 35}, {"time": 1726, "pitch": 66, "duration": 10, "velocity": 73}, {"time": 1738, "pitch": 49, "duration": 7, "velocity": 85}, {"time": 1744, "pitch": 61, "duration": 2, "velocity": 70}, {"time": 1744, "pitch": 64, "duration": 2, "velocity": 75}, {"time": 1744, "pitch": 68, "duration": 2, "velocity": 75}, {"time": 1750, "pitch": 56, "duration": 7, "velocity": 53}, {"time": 1756, "pitch": 61, "duration": 2, "velocity": 73}, {"time": 1756, "pitch": 64, "duration": 2, "velocity": 76}, {"time": 1756, "pitch": 68, "duration": 2, "velocity": 75}, {"time": 1762, "pitch": 49, "duration": 8, "velocity": 63}, {"time": 1768, "pitch": 61, "duration": 2, "velocity": 72}, {"time": 1768, "pitch": 64, "duration": 2, "velocity": 78}, {"time": 1768, "pitch": 68, "duration": 2, "velocity": 75}, {"time": 1774, "pitch": 56, "duration": 6, "velocity": 69}, {"time": 1780, "pitch": 61, "duration": 2, "velocity": 75}, {"time": 1780, "pitch": 64, "duration": 2, "velocity": 75}, {"time": 1780, "pitch": 68, "duration": 2, "velocity": 76}, {"time": 1786, "pitch": 42, "duration": 8, "velocity": 70}, {"time": 1792, "pitch": 58, "duration": 2, "velocity": 80}, {"time": 1792, "pitch": 61, "duration": 2, "velocity": 75}, {"time": 1792, "pitch": 64, "duration": 2, "velocity": 67}, {"time": 1798, "pitch": 49, "duration": 8, "velocity": 75}, {"time": 1804, "pitch": 58, "duration": 2, "velocity": 75}, {"time": 1804, "pitch": 61, "duration": 2, "velocity": 76}, {"time": 1804, "pitch": 64, "duration": 3, "velocity": 78}, {"time": 1810, "pitch": 42, "duration": 9, "velocity": 67}, {"time": 1816, "pitch": 58, "duration": 2, "velocity": 76}, {"time": 1816, "pitch": 61, "duration": 2, "velocity": 78}, {"time": 1816, "pitch": 64, "duration": 2, "velocity": 76}, {"time": 1822, "pitch": 49, "duration": 6, "velocity": 85}, {"time": 1828, "pitch": 44, "duration": 4, "velocity": 70}, {"time": 1828, "pitch": 58, "duration": 2, "velocity": 73}, {"time": 1828, "pitch": 61, "duration": 2, "velocity": 75}, {"time": 1828, "pitch": 64, "duration": 3, "velocity": 78}, {"time": 1831, "pitch": 46, "duration": 3, "velocity": 56}, {"time": 1834, "pitch": 47, "duration": 6, "velocity": 76}, {"time": 1840, "pitch": 54, "duration": 2, "velocity": 85}, {"time": 1840, "pitch": 59, "duration": 2, "velocity": 80}, {"time": 1840, "pitch": 63, "duration": 2, "velocity": 82}, {"time": 1846, "pitch": 51, "duration": 8, "velocity": 95}, {"time": 1852, "pitch": 54, "duration": 2, "velocity": 82}, {"time": 1852, "pitch": 59, "duration": 2, "velocity": 80}, {"time": 1852, "pitch": 63, "duration": 3, "velocity": 85}, {"time": 1858, "pitch": 47, "duration": 9, "velocity": 93}, {"time": 1864, "pitch": 54, "duration": 2, "velocity": 76}, {"time": 1864, "pitch": 59, "duration": 2, "velocity": 76}, {"time": 1864, "pitch": 63, "duration": 2, "velocity": 78}, {"time": 1870, "pitch": 51, "duration": 6, "velocity": 85}, {"time": 1876, "pitch": 54, "duration": 2, "velocity": 78}, {"time": 1876, "pitch": 59, "duration": 2, "velocity": 73}, {"time": 1876, "pitch": 63, "duration": 3, "velocity": 80}, {"time": 1882, "pitch": 39, "duration": 9, "velocity": 70}, {"time": 1882, "pitch": 51, "duration": 9, "velocity": 69}, {"time": 1888, "pitch": 54, "duration": 2, "velocity": 67}, {"time": 1888, "pitch": 57, "duration": 4, "velocity": 85}, {"time": 1888, "pitch": 63, "duration": 3, "velocity": 78}, {"time": 1894, "pitch": 46, "duration": 9, "velocity": 72}, {"time": 1900, "pitch": 54, "duration": 4, "velocity": 70}, {"time": 1900, "pitch": 57, "duration": 4, "velocity": 76}, {"time": 1900, "pitch": 61, "duration": 4, "velocity": 78}, {"time": 1900, "pitch": 63, "duration": 4, "velocity": 80}, {"time": 1906, "pitch": 39, "duration": 9, "velocity": 73}, {"time": 1906, "pitch": 51, "duration": 8, "velocity": 67}, {"time": 1912, "pitch": 54, "duration": 3, "velocity": 75}, {"time": 1912, "pitch": 57, "duration": 6, "velocity": 80}, {"time": 1912, "pitch": 61, "duration": 6, "velocity": 80}, {"time": 1912, "pitch": 63, "duration": 3, "velocity": 80}, {"time": 1918, "pitch": 46, "duration": 5, "velocity": 70}, {"time": 1924, "pitch": 54, "duration": 2, "velocity": 76}, {"time": 1924, "pitch": 57, "duration": 5, "velocity": 82}, {"time": 1924, "pitch": 61, "duration": 3, "velocity": 78}, {"time": 1924, "pitch": 63, "duration": 3, "velocity": 82}, {"time": 1930, "pitch": 37, "duration": 9, "velocity": 72}, {"time": 1930, "pitch": 49, "duration": 9, "velocity": 70}, {"time": 1936, "pitch": 56, "duration": 2, "velocity": 78}, {"time": 1936, "pitch": 59, "duration": 2, "velocity": 88}, {"time": 1936, "pitch": 64, "duration": 2, "velocity": 80}, {"time": 1942, "pitch": 44, "duration": 8, "velocity": 73}, {"time": 1948, "pitch": 56, "duration": 2, "velocity": 78}, {"time": 1948, "pitch": 59, "duration": 2, "velocity": 88}, {"time": 1948, "pitch": 64, "duration": 2, "velocity": 85}, {"time": 1954, "pitch": 37, "duration": 8, "velocity": 70}, {"time": 1954, "pitch": 49, "duration": 8, "velocity": 75}, {"time": 1960, "pitch": 56, "duration": 3, "velocity": 75}, {"time": 1960, "pitch": 59, "duration": 3, "velocity": 78}, {"time": 1960, "pitch": 64, "duration": 3, "velocity": 61}, {"time": 1966, "pitch": 37, "duration": 2, "velocity": 67}, {"time": 1966, "pitch": 49, "duration": 3, "velocity": 80}, {"time": 1972, "pitch": 40, "duration": 3, "velocity": 75}, {"time": 1975, "pitch": 41, "duration": 2, "velocity": 64}, {"time": 1978, "pitch": 42, "duration": 8, "velocity": 80}, {"time": 1984, "pitch": 56, "duration": 2, "velocity": 78}, {"time": 1984, "pitch": 59, "duration": 2, "velocity": 88}, {"time": 1984, "pitch": 64, "duration": 3, "velocity": 85}, {"time": 1990, "pitch": 47, "duration": 4, "velocity": 80}, {"time": 1996, "pitch": 56, "duration": 2, "velocity": 80}, {"time": 1996, "pitch": 61, "duration": 2, "velocity": 78}, {"time": 1996, "pitch": 64, "duration": 2, "velocity": 88}, {"time": 2002, "pitch": 42, "duration": 7, "velocity": 76}, {"time": 2008, "pitch": 58, "duration": 2, "velocity": 85}, {"time": 2008, "pitch": 61, "duration": 2, "velocity": 85}, {"time": 2008, "pitch": 66, "duration": 2, "velocity": 82}, {"time": 2014, "pitch": 44, "duration": 7, "velocity": 85}, {"time": 2020, "pitch": 46, "duration": 3, "velocity": 95}, {"time": 2026, "pitch": 47, "duration": 6, "velocity": 93}, {"time": 2032, "pitch": 54, "duration": 2, "velocity": 75}, {"time": 2032, "pitch": 59, "duration": 2, "velocity": 73}, {"time": 2032, "pitch": 63, "duration": 3, "velocity": 80}, {"time": 2038, "pitch": 51, "duration": 5, "velocity": 72}, {"time": 2044, "pitch": 54, "duration": 2, "velocity": 85}, {"time": 2044, "pitch": 59, "duration": 3, "velocity": 78}, {"time": 2044, "pitch": 63, "duration": 3, "velocity": 80}, {"time": 2050, "pitch": 42, "duration": 6, "velocity": 80}, {"time": 2056, "pitch": 54, "duration": 3, "velocity": 80}, {"time": 2056, "pitch": 59, "duration": 3, "velocity": 78}, {"time": 2056, "pitch": 63, "duration": 3, "velocity": 82}, {"time": 2062, "pitch": 35, "duration": 7, "velocity": 72}, {"time": 2068, "pitch": 54, "duration": 3, "velocity": 76}, {"time": 2068, "pitch": 59, "duration": 3, "velocity": 75}, {"time": 2068, "pitch": 63, "duration": 3, "velocity": 80}, {"time": 2074, "pitch": 39, "duration": 8, "velocity": 67}, {"time": 2074, "pitch": 51, "duration": 8, "velocity": 64}, {"time": 2080, "pitch": 54, "duration": 2, "velocity": 73}, {"time": 2080, "pitch": 57, "duration": 3, "velocity": 80}, {"time": 2080, "pitch": 61, "duration": 2, "velocity": 78}, {"time": 2080, "pitch": 63, "duration": 2, "velocity": 78}, {"time": 2086, "pitch": 46, "duration": 8, "velocity": 60}, {"time": 2092, "pitch": 54, "duration": 2, "velocity": 72}, {"time": 2092, "pitch": 57, "duration": 3, "velocity": 78}, {"time": 2092, "pitch": 61, "duration": 3, "velocity": 78}, {"time": 2098, "pitch": 44, "duration": 8, "velocity": 80}, {"time": 2104, "pitch": 56, "duration": 4, "velocity": 80}, {"time": 2104, "pitch": 60, "duration": 4, "velocity": 78}, {"time": 2104, "pitch": 63, "duration": 4, "velocity": 85}, {"time": 2110, "pitch": 48, "duration": 6, "velocity": 93}, {"time": 2116, "pitch": 56, "duration": 2, "velocity": 78}, {"time": 2116, "pitch": 60, "duration": 3, "velocity": 85}, {"time": 2116, "pitch": 63, "duration": 2, "velocity": 85}, {"time": 2122, "pitch": 37, "duration": 9, "velocity": 72}, {"time": 2122, "pitch": 49, "duration": 9, "velocity": 72}, {"time": 2128, "pitch": 56, "duration": 2, "velocity": 69}, {"time": 2128, "pitch": 59, "duration": 2, "velocity": 85}, {"time": 2128, "pitch": 64, "duration": 2, "velocity": 80}, {"time": 2134, "pitch": 44, "duration": 7, "velocity": 73}, {"time": 2140, "pitch": 56, "duration": 2, "velocity": 78}, {"time": 2140, "pitch": 59, "duration": 2, "velocity": 82}, {"time": 2140, "pitch": 64, "duration": 2, "velocity": 78}, {"time": 2146, "pitch": 42, "duration": 8, "velocity": 72}, {"time": 2152, "pitch": 58, "duration": 2, "velocity": 85}, {"time": 2152, "pitch": 61, "duration": 3, "velocity": 97}, {"time": 2152, "pitch": 66, "duration": 3, "velocity": 76}, {"time": 2158, "pitch": 49, "duration": 5, "velocity": 75}, {"time": 2164, "pitch": 58, "duration": 4, "velocity": 95}, {"time": 2164, "pitch": 61, "duration": 5, "velocity": 85}, {"time": 2164, "pitch": 66, "duration": 6, "velocity": 80}, {"time": 2170, "pitch": 35, "duration": 8, "velocity": 73}, {"time": 2170, "pitch": 47, "duration": 9, "velocity": 75}, {"time": 2176, "pitch": 54, "duration": 2, "velocity": 78}, {"time": 2176, "pitch": 59, "duration": 2, "velocity": 82}, {"time": 2176, "pitch": 63, "duration": 3, "velocity": 80}, {"time": 2182, "pitch": 42, "duration": 7, "velocity": 70}, {"time": 2188, "pitch": 54, "duration": 2, "velocity": 80}, {"time": 2188, "pitch": 58, "duration": 2, "velocity": 73}, {"time": 2188, "pitch": 59, "duration": 3, "velocity": 88}, {"time": 2188, "pitch": 63, "duration": 2, "velocity": 82}, {"time": 2194, "pitch": 44, "duration": 9, "velocity": 73}, {"time": 2200, "pitch": 56, "duration": 2, "velocity": 67}, {"time": 2200, "pitch": 59, "duration": 2, "velocity": 88}, {"time": 2200, "pitch": 63, "duration": 2, "velocity": 78}, {"time": 2200, "pitch": 66, "duration": 2, "velocity": 67}, {"time": 2206, "pitch": 51, "duration": 7, "velocity": 69}, {"time": 2212, "pitch": 56, "duration": 2, "velocity": 82}, {"time": 2212, "pitch": 60, "duration": 3, "velocity": 101}, {"time": 2212, "pitch": 63, "duration": 3, "velocity": 80}, {"time": 2215, "pitch": 64, "duration": 4, "velocity": 13}, {"time": 2218, "pitch": 37, "duration": 9, "velocity": 78}, {"time": 2218, "pitch": 49, "duration": 9, "velocity": 82}, {"time": 2224, "pitch": 56, "duration": 2, "velocity": 70}, {"time": 2224, "pitch": 59, "duration": 2, "velocity": 75}, {"time": 2224, "pitch": 61, "duration": 2, "velocity": 73}, {"time": 2224, "pitch": 64, "duration": 3, "velocity": 75}, {"time": 2230, "pitch": 44, "duration": 7, "velocity": 67}, {"time": 2236, "pitch": 56, "duration": 3, "velocity": 73}, {"time": 2236, "pitch": 59, "duration": 3, "velocity": 75}, {"time": 2236, "pitch": 61, "duration": 3, "velocity": 75}, {"time": 2236, "pitch": 64, "duration": 3, "velocity": 75}, {"time": 2242, "pitch": 44, "duration": 6, "velocity": 72}, {"time": 2248, "pitch": 56, "duration": 3, "velocity": 73}, {"time": 2248, "pitch": 59, "duration": 3, "velocity": 78}, {"time": 2248, "pitch": 63, "duration": 3, "velocity": 76}, {"time": 2254, "pitch": 37, "duration": 7, "velocity": 80}, {"time": 2260, "pitch": 56, "duration": 3, "velocity": 75}, {"time": 2260, "pitch": 59, "duration": 3, "velocity": 76}, {"time": 2260, "pitch": 64, "duration": 3, "velocity": 82}, {"time": 2266, "pitch": 46, "duration": 10, "velocity": 76}, {"time": 2272, "pitch": 58, "duration": 2, "velocity": 76}, {"time": 2272, "pitch": 61, "duration": 2, "velocity": 80}, {"time": 2272, "pitch": 64, "duration": 2, "velocity": 78}, {"time": 2278, "pitch": 52, "duration": 6, "velocity": 76}, {"time": 2284, "pitch": 58, "duration": 2, "velocity": 75}, {"time": 2284, "pitch": 61, "duration": 2, "velocity": 80}, {"time": 2284, "pitch": 64, "duration": 3, "velocity": 76}, {"time": 2290, "pitch": 39, "duration": 9, "velocity": 73}, {"time": 2290, "pitch": 51, "duration": 8, "velocity": 78}, {"time": 2296, "pitch": 55, "duration": 2, "velocity": 97}, {"time": 2296, "pitch": 58, "duration": 2, "velocity": 80}, {"time": 2296, "pitch": 61, "duration": 2, "velocity": 82}, {"time": 2302, "pitch": 39, "duration": 10, "velocity": 73}, {"time": 2302, "pitch": 46, "duration": 2, "velocity": 64}, {"time": 2302, "pitch": 51, "duration": 11, "velocity": 80}, {"time": 2302, "pitch": 55, "duration": 12, "velocity": 78}, {"time": 2302, "pitch": 58, "duration": 12, "velocity": 76}, {"time": 2302, "pitch": 61, "duration": 12, "velocity": 76}, {"time": 2302, "pitch": 63, "duration": 13, "velocity": 72}, {"time": 2312, "pitch": 44, "duration": 9, "velocity": 70}, {"time": 2312, "pitch": 56, "duration": 9, "velocity": 85}, {"time": 2319, "pitch": 68, "duration": 2, "velocity": 82}, {"time": 2319, "pitch": 59, "duration": 2, "velocity": 82}, {"time": 2319, "pitch": 63, "duration": 2, "velocity": 85}, {"time": 2325, "pitch": 51, "duration": 9, "velocity": 57}, {"time": 2325, "pitch": 52, "duration": 3, "velocity": 66}, {"time": 2331, "pitch": 59, "duration": 2, "velocity": 82}, {"time": 2331, "pitch": 63, "duration": 2, "velocity": 88}, {"time": 2331, "pitch": 68, "duration": 3, "velocity": 85}, {"time": 2337, "pitch": 44, "duration": 8, "velocity": 75}, {"time": 2337, "pitch": 56, "duration": 8, "velocity": 75}, {"time": 2343, "pitch": 68, "duration": 3, "velocity": 85}, {"time": 2343, "pitch": 59, "duration": 3, "velocity": 88}, {"time": 2343, "pitch": 63, "duration": 3, "velocity": 85}, {"time": 2349, "pitch": 44, "duration": 5, "velocity": 72}, {"time": 2349, "pitch": 56, "duration": 3, "velocity": 99}, {"time": 2353, "pitch": 47, "duration": 4, "velocity": 80}, {"time": 2356, "pitch": 48, "duration": 5, "velocity": 82}, {"time": 2361, "pitch": 49, "duration": 7, "velocity": 63}, {"time": 2368, "pitch": 61, "duration": 1, "velocity": 85}, {"time": 2368, "pitch": 68, "duration": 1, "velocity": 88}, {"time": 2368, "pitch": 64, "duration": 1, "velocity": 85}, {"time": 2368, "pitch": 66, "duration": 1, "velocity": 57}, {"time": 2373, "pitch": 56, "duration": 8, "velocity": 85}, {"time": 2380, "pitch": 64, "duration": 1, "velocity": 76}, {"time": 2380, "pitch": 68, "duration": 2, "velocity": 78}, {"time": 2380, "pitch": 61, "duration": 1, "velocity": 76}, {"time": 2385, "pitch": 49, "duration": 9, "velocity": 67}, {"time": 2391, "pitch": 64, "duration": 2, "velocity": 85}, {"time": 2391, "pitch": 61, "duration": 2, "velocity": 78}, {"time": 2391, "pitch": 68, "duration": 3, "velocity": 80}, {"time": 2397, "pitch": 56, "duration": 6, "velocity": 75}, {"time": 2403, "pitch": 64, "duration": 1, "velocity": 72}, {"time": 2403, "pitch": 61, "duration": 1, "velocity": 72}, {"time": 2403, "pitch": 68, "duration": 2, "velocity": 78}, {"time": 2410, "pitch": 46, "duration": 8, "velocity": 70}, {"time": 2416, "pitch": 61, "duration": 2, "velocity": 73}, {"time": 2416, "pitch": 64, "duration": 2, "velocity": 80}, {"time": 2416, "pitch": 68, "duration": 2, "velocity": 72}, {"time": 2416, "pitch": 70, "duration": 1, "velocity": 66}, {"time": 2422, "pitch": 58, "duration": 8, "velocity": 85}, {"time": 2428, "pitch": 61, "duration": 2, "velocity": 73}, {"time": 2428, "pitch": 64, "duration": 3, "velocity": 73}, {"time": 2428, "pitch": 68, "duration": 3, "velocity": 73}, {"time": 2428, "pitch": 70, "duration": 1, "velocity": 63}, {"time": 2440, "pitch": 61, "duration": 3, "velocity": 66}, {"time": 2440, "pitch": 64, "duration": 3, "velocity": 70}, {"time": 2440, "pitch": 68, "duration": 4, "velocity": 75}, {"time": 2446, "pitch": 44, "duration": 1, "velocity": 48}, {"time": 2446, "pitch": 56, "duration": 4, "velocity": 56}, {"time": 2452, "pitch": 61, "duration": 2, "velocity": 78}, {"time": 2452, "pitch": 64, "duration": 2, "velocity": 78}, {"time": 2452, "pitch": 68, "duration": 3, "velocity": 78}, {"time": 2458, "pitch": 39, "duration": 8, "velocity": 67}, {"time": 2458, "pitch": 51, "duration": 8, "velocity": 82}, {"time": 2464, "pitch": 55, "duration": 3, "velocity": 91}, {"time": 2464, "pitch": 58, "duration": 3, "velocity": 73}, {"time": 2464, "pitch": 63, "duration": 3, "velocity": 88}, {"time": 2470, "pitch": 46, "duration": 8, "velocity": 67}, {"time": 2476, "pitch": 55, "duration": 3, "velocity": 80}, {"time": 2476, "pitch": 58, "duration": 2, "velocity": 70}, {"time": 2476, "pitch": 61, "duration": 4, "velocity": 75}, {"time": 2482, "pitch": 39, "duration": 7, "velocity": 72}, {"time": 2482, "pitch": 51, "duration": 7, "velocity": 88}, {"time": 2488, "pitch": 55, "duration": 3, "velocity": 78}, {"time": 2488, "pitch": 58, "duration": 3, "velocity": 72}, {"time": 2488, "pitch": 61, "duration": 4, "velocity": 80}, {"time": 2494, "pitch": 42, "duration": 7, "velocity": 82}, {"time": 2500, "pitch": 43, "duration": 3, "velocity": 70}, {"time": 2506, "pitch": 44, "duration": 7, "velocity": 85}, {"time": 2512, "pitch": 56, "duration": 2, "velocity": 66}, {"time": 2512, "pitch": 59, "duration": 2, "velocity": 70}, {"time": 2512, "pitch": 63, "duration": 2, "velocity": 64}, {"time": 2512, "pitch": 66, "duration": 1, "velocity": 63}, {"time": 2518, "pitch": 51, "duration": 7, "velocity": 85}, {"time": 2524, "pitch": 56, "duration": 2, "velocity": 69}, {"time": 2524, "pitch": 59, "duration": 2, "velocity": 75}, {"time": 2524, "pitch": 63, "duration": 2, "velocity": 63}, {"time": 2524, "pitch": 66, "duration": 1, "velocity": 64}, {"time": 2530, "pitch": 44, "duration": 7, "velocity": 69}, {"time": 2536, "pitch": 56, "duration": 2, "velocity": 70}, {"time": 2536, "pitch": 59, "duration": 2, "velocity": 78}, {"time": 2536, "pitch": 63, "duration": 2, "velocity": 73}, {"time": 2542, "pitch": 51, "duration": 6, "velocity": 64}, {"time": 2548, "pitch": 56, "duration": 2, "velocity": 69}, {"time": 2548, "pitch": 59, "duration": 2, "velocity": 76}, {"time": 2548, "pitch": 63, "duration": 3, "velocity": 76}, {"time": 2554, "pitch": 37, "duration": 8, "velocity": 72}, {"time": 2554, "pitch": 49, "duration": 9, "velocity": 66}, {"time": 2560, "pitch": 56, "duration": 3, "velocity": 70}, {"time": 2560, "pitch": 61, "duration": 3, "velocity": 66}, {"time": 2560, "pitch": 64, "duration": 2, "velocity": 80}, {"time": 2566, "pitch": 44, "duration": 9, "velocity": 73}, {"time": 2572, "pitch": 56, "duration": 2, "velocity": 67}, {"time": 2572, "pitch": 61, "duration": 2, "velocity": 80}, {"time": 2572, "pitch": 64, "duration": 2, "velocity": 64}, {"time": 2578, "pitch": 37, "duration": 9, "velocity": 66}, {"time": 2578, "pitch": 49, "duration": 8, "velocity": 64}, {"time": 2584, "pitch": 56, "duration": 2, "velocity": 73}, {"time": 2584, "pitch": 61, "duration": 2, "velocity": 76}, {"time": 2584, "pitch": 64, "duration": 2, "velocity": 70}, {"time": 2590, "pitch": 37, "duration": 3, "velocity": 57}, {"time": 2590, "pitch": 49, "duration": 8, "velocity": 82}, {"time": 2596, "pitch": 56, "duration": 2, "velocity": 72}, {"time": 2596, "pitch": 61, "duration": 2, "velocity": 76}, {"time": 2596, "pitch": 64, "duration": 2, "velocity": 67}, {"time": 2602, "pitch": 46, "duration": 8, "velocity": 72}, {"time": 2602, "pitch": 58, "duration": 8, "velocity": 75}, {"time": 2608, "pitch": 61, "duration": 2, "velocity": 69}, {"time": 2608, "pitch": 64, "duration": 2, "velocity": 78}, {"time": 2608, "pitch": 68, "duration": 2, "velocity": 73}, {"time": 2608, "pitch": 71, "duration": 2, "velocity": 66}, {"time": 2614, "pitch": 52, "duration": 8, "velocity": 70}, {"time": 2620, "pitch": 61, "duration": 2, "velocity": 72}, {"time": 2620, "pitch": 64, "duration": 3, "velocity": 76}, {"time": 2620, "pitch": 68, "duration": 3, "velocity": 73}, {"time": 2626, "pitch": 46, "duration": 10, "velocity": 62}, {"time": 2626, "pitch": 58, "duration": 8, "velocity": 78}, {"time": 2632, "pitch": 61, "duration": 2, "velocity": 69}, {"time": 2632, "pitch": 64, "duration": 2, "velocity": 78}, {"time": 2632, "pitch": 68, "duration": 3, "velocity": 73}, {"time": 2632, "pitch": 71, "duration": 2, "velocity": 66}, {"time": 2638, "pitch": 52, "duration": 5, "velocity": 78}, {"time": 2644, "pitch": 61, "duration": 2, "velocity": 75}, {"time": 2644, "pitch": 64, "duration": 2, "velocity": 78}, {"time": 2644, "pitch": 68, "duration": 3, "velocity": 78}, {"time": 2650, "pitch": 39, "duration": 8, "velocity": 69}, {"time": 2650, "pitch": 51, "duration": 8, "velocity": 78}, {"time": 2656, "pitch": 55, "duration": 2, "velocity": 93}, {"time": 2656, "pitch": 58, "duration": 2, "velocity": 80}, {"time": 2656, "pitch": 63, "duration": 3, "velocity": 85}, {"time": 2662, "pitch": 46, "duration": 8, "velocity": 66}, {"time": 2668, "pitch": 55, "duration": 3, "velocity": 72}, {"time": 2668, "pitch": 61, "duration": 4, "velocity": 82}, {"time": 2674, "pitch": 39, "duration": 6, "velocity": 69}, {"time": 2674, "pitch": 51, "duration": 7, "velocity": 88}, {"time": 2680, "pitch": 55, "duration": 3, "velocity": 78}, {"time": 2680, "pitch": 58, "duration": 3, "velocity": 76}, {"time": 2680, "pitch": 63, "duration": 8, "velocity": 82}, {"time": 2686, "pitch": 42, "duration": 6, "velocity": 76}, {"time": 2692, "pitch": 43, "duration": 2, "velocity": 54}, {"time": 2698, "pitch": 49, "duration": 7, "velocity": 85}, {"time": 2704, "pitch": 61, "duration": 2, "velocity": 70}, {"time": 2704, "pitch": 64, "duration": 2, "velocity": 75}, {"time": 2704, "pitch": 68, "duration": 2, "velocity": 75}, {"time": 2710, "pitch": 56, "duration": 7, "velocity": 53}, {"time": 2716, "pitch": 61, "duration": 2, "velocity": 73}, {"time": 2716, "pitch": 64, "duration": 2, "velocity": 76}, {"time": 2716, "pitch": 68, "duration": 2, "velocity": 75}, {"time": 2722, "pitch": 49, "duration": 8, "velocity": 63}, {"time": 2728, "pitch": 61, "duration": 2, "velocity": 72}, {"time": 2728, "pitch": 64, "duration": 2, "velocity": 78}, {"time": 2728, "pitch": 68, "duration": 2, "velocity": 75}, {"time": 2734, "pitch": 56, "duration": 6, "velocity": 69}, {"time": 2740, "pitch": 61, "duration": 2, "velocity": 75}, {"time": 2740, "pitch": 64, "duration": 2, "velocity": 75}, {"time": 2740, "pitch": 68, "duration": 2, "velocity": 76}, {"time": 2746, "pitch": 42, "duration": 8, "velocity": 70}, {"time": 2752, "pitch": 58, "duration": 2, "velocity": 80}, {"time": 2752, "pitch": 61, "duration": 2, "velocity": 75}, {"time": 2752, "pitch": 64, "duration": 2, "velocity": 67}, {"time": 2758, "pitch": 49, "duration": 8, "velocity": 75}, {"time": 2764, "pitch": 58, "duration": 2, "velocity": 75}, {"time": 2764, "pitch": 61, "duration": 2, "velocity": 76}, {"time": 2764, "pitch": 64, "duration": 3, "velocity": 78}, {"time": 2770, "pitch": 42, "duration": 9, "velocity": 67}, {"time": 2776, "pitch": 58, "duration": 2, "velocity": 76}, {"time": 2776, "pitch": 61, "duration": 2, "velocity": 78}, {"time": 2776, "pitch": 64, "duration": 2, "velocity": 76}, {"time": 2782, "pitch": 49, "duration": 6, "velocity": 85}, {"time": 2788, "pitch": 44, "duration": 4, "velocity": 70}, {"time": 2788, "pitch": 58, "duration": 2, "velocity": 73}, {"time": 2788, "pitch": 61, "duration": 2, "velocity": 75}, {"time": 2788, "pitch": 64, "duration": 3, "velocity": 78}, {"time": 2791, "pitch": 46, "duration": 3, "velocity": 56}, {"time": 2794, "pitch": 47, "duration": 6, "velocity": 76}, {"time": 2800, "pitch": 54, "duration": 2, "velocity": 85}, {"time": 2800, "pitch": 59, "duration": 2, "velocity": 80}, {"time": 2800, "pitch": 63, "duration": 2, "velocity": 82}, {"time": 2806, "pitch": 51, "duration": 8, "velocity": 95}, {"time": 2812, "pitch": 54, "duration": 2, "velocity": 82}, {"time": 2812, "pitch": 59, "duration": 2, "velocity": 80}, {"time": 2812, "pitch": 63, "duration": 3, "velocity": 85}, {"time": 2818, "pitch": 47, "duration": 9, "velocity": 93}, {"time": 2824, "pitch": 54, "duration": 2, "velocity": 76}, {"time": 2824, "pitch": 59, "duration": 2, "velocity": 76}, {"time": 2824, "pitch": 63, "duration": 2, "velocity": 78}, {"time": 2830, "pitch": 51, "duration": 6, "velocity": 85}, {"time": 2836, "pitch": 54, "duration": 2, "velocity": 78}, {"time": 2836, "pitch": 59, "duration": 2, "velocity": 73}, {"time": 2836, "pitch": 63, "duration": 3, "velocity": 80}, {"time": 2842, "pitch": 39, "duration": 9, "velocity": 70}, {"time": 2842, "pitch": 51, "duration": 9, "velocity": 69}, {"time": 2848, "pitch": 54, "duration": 2, "velocity": 67}, {"time": 2848, "pitch": 57, "duration": 4, "velocity": 85}, {"time": 2848, "pitch": 63, "duration": 3, "velocity": 78}, {"time": 2854, "pitch": 46, "duration": 9, "velocity": 72}, {"time": 2860, "pitch": 54, "duration": 4, "velocity": 70}, {"time": 2860, "pitch": 57, "duration": 4, "velocity": 76}, {"time": 2860, "pitch": 61, "duration": 4, "velocity": 78}, {"time": 2860, "pitch": 63, "duration": 4, "velocity": 80}, {"time": 2866, "pitch": 39, "duration": 9, "velocity": 73}, {"time": 2866, "pitch": 51, "duration": 8, "velocity": 67}, {"time": 2872, "pitch": 54, "duration": 3, "velocity": 75}, {"time": 2872, "pitch": 57, "duration": 6, "velocity": 80}, {"time": 2872, "pitch": 61, "duration": 6, "velocity": 80}, {"time": 2872, "pitch": 63, "duration": 3, "velocity": 80}, {"time": 2878, "pitch": 46, "duration": 5, "velocity": 70}, {"time": 2884, "pitch": 54, "duration": 2, "velocity": 76}, {"time": 2884, "pitch": 57, "duration": 5, "velocity": 82}, {"time": 2884, "pitch": 61, "duration": 3, "velocity": 78}, {"time": 2884, "pitch": 63, "duration": 3, "velocity": 82}, {"time": 2890, "pitch": 37, "duration": 9, "velocity": 72}, {"time": 2890, "pitch": 49, "duration": 9, "velocity": 70}, {"time": 2896, "pitch": 56, "duration": 2, "velocity": 78}, {"time": 2896, "pitch": 59, "duration": 2, "velocity": 88}, {"time": 2896, "pitch": 64, "duration": 2, "velocity": 80}, {"time": 2902, "pitch": 44, "duration": 8, "velocity": 73}, {"time": 2908, "pitch": 56, "duration": 2, "velocity": 78}, {"time": 2908, "pitch": 59, "duration": 2, "velocity": 88}, {"time": 2908, "pitch": 64, "duration": 2, "velocity": 85}, {"time": 2914, "pitch": 37, "duration": 8, "velocity": 70}, {"time": 2914, "pitch": 49, "duration": 8, "velocity": 75}, {"time": 2920, "pitch": 56, "duration": 3, "velocity": 75}, {"time": 2920, "pitch": 59, "duration": 3, "velocity": 78}, {"time": 2920, "pitch": 64, "duration": 3, "velocity": 61}, {"time": 2926, "pitch": 37, "duration": 2, "velocity": 67}, {"time": 2926, "pitch": 49, "duration": 3, "velocity": 80}, {"time": 2932, "pitch": 40, "duration": 3, "velocity": 75}, {"time": 2935, "pitch": 41, "duration": 2, "velocity": 64}, {"time": 2938, "pitch": 42, "duration": 8, "velocity": 80}, {"time": 2944, "pitch": 56, "duration": 2, "velocity": 78}, {"time": 2944, "pitch": 59, "duration": 2, "velocity": 88}, {"time": 2944, "pitch": 64, "duration": 3, "velocity": 85}, {"time": 2950, "pitch": 47, "duration": 4, "velocity": 80}, {"time": 2956, "pitch": 56, "duration": 2, "velocity": 80}, {"time": 2956, "pitch": 61, "duration": 2, "velocity": 78}, {"time": 2956, "pitch": 64, "duration": 2, "velocity": 88}, {"time": 2962, "pitch": 42, "duration": 7, "velocity": 76}, {"time": 2968, "pitch": 58, "duration": 2, "velocity": 85}, {"time": 2968, "pitch": 61, "duration": 2, "velocity": 85}, {"time": 2968, "pitch": 66, "duration": 2, "velocity": 82}, {"time": 2974, "pitch": 44, "duration": 7, "velocity": 85}, {"time": 2980, "pitch": 46, "duration": 3, "velocity": 95}, {"time": 2986, "pitch": 47, "duration": 6, "velocity": 93}, {"time": 2992, "pitch": 54, "duration": 2, "velocity": 75}, {"time": 2992, "pitch": 59, "duration": 2, "velocity": 73}, {"time": 2992, "pitch": 63, "duration": 3, "velocity": 80}, {"time": 2998, "pitch": 51, "duration": 5, "velocity": 72}, {"time": 3004, "pitch": 54, "duration": 2, "velocity": 85}, {"time": 3004, "pitch": 59, "duration": 3, "velocity": 78}, {"time": 3004, "pitch": 63, "duration": 3, "velocity": 80}, {"time": 3010, "pitch": 42, "duration": 6, "velocity": 80}, {"time": 3016, "pitch": 54, "duration": 3, "velocity": 80}, {"time": 3016, "pitch": 59, "duration": 3, "velocity": 78}, {"time": 3016, "pitch": 63, "duration": 3, "velocity": 82}, {"time": 3022, "pitch": 35, "duration": 7, "velocity": 72}, {"time": 3028, "pitch": 54, "duration": 3, "velocity": 76}, {"time": 3028, "pitch": 59, "duration": 3, "velocity": 75}, {"time": 3028, "pitch": 63, "duration": 3, "velocity": 80}, {"time": 3034, "pitch": 39, "duration": 8, "velocity": 67}, {"time": 3034, "pitch": 51, "duration": 8, "velocity": 64}, {"time": 3040, "pitch": 54, "duration": 2, "velocity": 73}, {"time": 3040, "pitch": 57, "duration": 3, "velocity": 80}, {"time": 3040, "pitch": 61, "duration": 2, "velocity": 78}, {"time": 3040, "pitch": 63, "duration": 2, "velocity": 78}, {"time": 3046, "pitch": 46, "duration": 8, "velocity": 60}, {"time": 3052, "pitch": 54, "duration": 2, "velocity": 72}, {"time": 3052, "pitch": 57, "duration": 3, "velocity": 78}, {"time": 3052, "pitch": 61, "duration": 3, "velocity": 78}, {"time": 3058, "pitch": 44, "duration": 8, "velocity": 80}, {"time": 3064, "pitch": 56, "duration": 4, "velocity": 80}, {"time": 3064, "pitch": 60, "duration": 4, "velocity": 78}, {"time": 3064, "pitch": 63, "duration": 4, "velocity": 85}, {"time": 3070, "pitch": 48, "duration": 6, "velocity": 93}, {"time": 3076, "pitch": 56, "duration": 2, "velocity": 78}, {"time": 3076, "pitch": 60, "duration": 3, "velocity": 85}, {"time": 3076, "pitch": 63, "duration": 2, "velocity": 85}, {"time": 3082, "pitch": 37, "duration": 9, "velocity": 72}, {"time": 3082, "pitch": 49, "duration": 9, "velocity": 72}, {"time": 3088, "pitch": 56, "duration": 2, "velocity": 69}, {"time": 3088, "pitch": 59, "duration": 2, "velocity": 85}, {"time": 3088, "pitch": 64, "duration": 2, "velocity": 80}, {"time": 3094, "pitch": 44, "duration": 7, "velocity": 73}, {"time": 3100, "pitch": 56, "duration": 2, "velocity": 78}, {"time": 3100, "pitch": 59, "duration": 2, "velocity": 82}, {"time": 3100, "pitch": 64, "duration": 2, "velocity": 78}, {"time": 3106, "pitch": 42, "duration": 8, "velocity": 72}, {"time": 3112, "pitch": 58, "duration": 2, "velocity": 85}, {"time": 3112, "pitch": 61, "duration": 3, "velocity": 97}, {"time": 3112, "pitch": 66, "duration": 3, "velocity": 76}, {"time": 3118, "pitch": 49, "duration": 5, "velocity": 75}, {"time": 3124, "pitch": 58, "duration": 4, "velocity": 95}, {"time": 3124, "pitch": 61, "duration": 5, "velocity": 85}, {"time": 3124, "pitch": 66, "duration": 6, "velocity": 80}, {"time": 3130, "pitch": 35, "duration": 8, "velocity": 73}, {"time": 3130, "pitch": 47, "duration": 9, "velocity": 75}, {"time": 3136, "pitch": 54, "duration": 2, "velocity": 78}, {"time": 3136, "pitch": 59, "duration": 2, "velocity": 82}, {"time": 3136, "pitch": 63, "duration": 3, "velocity": 80}, {"time": 3142, "pitch": 42, "duration": 7, "velocity": 70}, {"time": 3148, "pitch": 54, "duration": 2, "velocity": 80}, {"time": 3148, "pitch": 58, "duration": 2, "velocity": 73}, {"time": 3148, "pitch": 59, "duration": 3, "velocity": 88}, {"time": 3148, "pitch": 63, "duration": 2, "velocity": 82}, {"time": 3154, "pitch": 44, "duration": 9, "velocity": 73}, {"time": 3160, "pitch": 56, "duration": 2, "velocity": 67}, {"time": 3160, "pitch": 59, "duration": 2, "velocity": 88}, {"time": 3160, "pitch": 63, "duration": 2, "velocity": 78}, {"time": 3160, "pitch": 66, "duration": 2, "velocity": 67}, {"time": 3166, "pitch": 51, "duration": 7, "velocity": 69}, {"time": 3172, "pitch": 56, "duration": 2, "velocity": 82}, {"time": 3172, "pitch": 60, "duration": 3, "velocity": 101}, {"time": 3172, "pitch": 63, "duration": 3, "velocity": 80}, {"time": 3175, "pitch": 64, "duration": 4, "velocity": 13}, {"time": 3178, "pitch": 37, "duration": 9, "velocity": 78}, {"time": 3178, "pitch": 49, "duration": 9, "velocity": 82}, {"time": 3184, "pitch": 56, "duration": 2, "velocity": 70}, {"time": 3184, "pitch": 59, "duration": 2, "velocity": 75}, {"time": 3184, "pitch": 61, "duration": 2, "velocity": 73}, {"time": 3184, "pitch": 64, "duration": 3, "velocity": 75}, {"time": 3190, "pitch": 44, "duration": 7, "velocity": 67}, {"time": 3196, "pitch": 56, "duration": 3, "velocity": 73}, {"time": 3196, "pitch": 59, "duration": 3, "velocity": 75}, {"time": 3196, "pitch": 61, "duration": 3, "velocity": 75}, {"time": 3196, "pitch": 64, "duration": 3, "velocity": 75}, {"time": 3202, "pitch": 44, "duration": 6, "velocity": 72}, {"time": 3208, "pitch": 56, "duration": 3, "velocity": 73}, {"time": 3208, "pitch": 59, "duration": 3, "velocity": 78}, {"time": 3208, "pitch": 63, "duration": 3, "velocity": 76}, {"time": 3214, "pitch": 37, "duration": 7, "velocity": 80}, {"time": 3220, "pitch": 56, "duration": 3, "velocity": 75}, {"time": 3220, "pitch": 59, "duration": 3, "velocity": 76}, {"time": 3220, "pitch": 64, "duration": 3, "velocity": 82}, {"time": 3226, "pitch": 46, "duration": 10, "velocity": 76}, {"time": 3232, "pitch": 58, "duration": 2, "velocity": 76}, {"time": 3232, "pitch": 61, "duration": 2, "velocity": 80}, {"time": 3232, "pitch": 64, "duration": 2, "velocity": 78}, {"time": 3238, "pitch": 52, "duration": 6, "velocity": 76}, {"time": 3244, "pitch": 58, "duration": 2, "velocity": 75}, {"time": 3244, "pitch": 61, "duration": 2, "velocity": 80}, {"time": 3244, "pitch": 64, "duration": 3, "velocity": 76}, {"time": 3250, "pitch": 39, "duration": 9, "velocity": 73}, {"time": 3250, "pitch": 51, "duration": 8, "velocity": 78}, {"time": 3256, "pitch": 55, "duration": 2, "velocity": 97}, {"time": 3256, "pitch": 58, "duration": 2, "velocity": 80}, {"time": 3256, "pitch": 61, "duration": 2, "velocity": 82}, {"time": 3262, "pitch": 39, "duration": 10, "velocity": 73}, {"time": 3262, "pitch": 46, "duration": 2, "velocity": 64}, {"time": 3262, "pitch": 51, "duration": 11, "velocity": 80}, {"time": 3262, "pitch": 55, "duration": 12, "velocity": 78}, {"time": 3262, "pitch": 58, "duration": 12, "velocity": 76}, {"time": 3262, "pitch": 61, "duration": 12, "velocity": 76}, {"time": 3262, "pitch": 63, "duration": 13, "velocity": 72}, {"time": 3272, "pitch": 44, "duration": 9, "velocity": 70}, {"time": 3272, "pitch": 56, "duration": 9, "velocity": 85}, {"time": 3279, "pitch": 68, "duration": 2, "velocity": 82}, {"time": 3279, "pitch": 59, "duration": 2, "velocity": 82}, {"time": 3279, "pitch": 63, "duration": 2, "velocity": 85}, {"time": 3285, "pitch": 51, "duration": 9, "velocity": 57}, {"time": 3285, "pitch": 52, "duration": 3, "velocity": 66}, {"time": 3291, "pitch": 59, "duration": 2, "velocity": 82}, {"time": 3291, "pitch": 63, "duration": 2, "velocity": 88}, {"time": 3291, "pitch": 68, "duration": 3, "velocity": 85}, {"time": 3297, "pitch": 44, "duration": 8, "velocity": 75}, {"time": 3297, "pitch": 56, "duration": 8, "velocity": 75}, {"time": 3303, "pitch": 68, "duration": 3, "velocity": 85}, {"time": 3303, "pitch": 59, "duration": 3, "velocity": 88}, {"time": 3303, "pitch": 63, "duration": 3, "velocity": 85}, {"time": 3309, "pitch": 44, "duration": 5, "velocity": 72}, {"time": 3309, "pitch": 56, "duration": 3, "velocity": 99}, {"time": 3313, "pitch": 47, "duration": 4, "velocity": 80}, {"time": 3316, "pitch": 48, "duration": 5, "velocity": 82}, {"time": 3321, "pitch": 49, "duration": 1, "velocity": 63}, {"time": 3322, "pitch": 49, "duration": 7, "velocity": 85}, {"time": 3328, "pitch": 61, "duration": 2, "velocity": 70}, {"time": 3328, "pitch": 64, "duration": 2, "velocity": 75}, {"time": 3328, "pitch": 68, "duration": 2, "velocity": 75}, {"time": 3334, "pitch": 56, "duration": 7, "velocity": 53}, {"time": 3340, "pitch": 61, "duration": 2, "velocity": 73}, {"time": 3340, "pitch": 64, "duration": 2, "velocity": 76}, {"time": 3340, "pitch": 68, "duration": 2, "velocity": 75}, {"time": 3346, "pitch": 49, "duration": 8, "velocity": 63}, {"time": 3352, "pitch": 61, "duration": 2, "velocity": 72}, {"time": 3352, "pitch": 64, "duration": 2, "velocity": 78}, {"time": 3352, "pitch": 68, "duration": 2, "velocity": 75}, {"time": 3358, "pitch": 56, "duration": 6, "velocity": 69}, {"time": 3364, "pitch": 61, "duration": 2, "velocity": 75}, {"time": 3364, "pitch": 64, "duration": 2, "velocity": 75}, {"time": 3364, "pitch": 68, "duration": 2, "velocity": 76}, {"time": 3370, "pitch": 42, "duration": 8, "velocity": 70}, {"time": 3376, "pitch": 58, "duration": 2, "velocity": 80}, {"time": 3376, "pitch": 61, "duration": 2, "velocity": 75}, {"time": 3376, "pitch": 64, "duration": 2, "velocity": 67}, {"time": 3382, "pitch": 49, "duration": 8, "velocity": 75}, {"time": 3388, "pitch": 58, "duration": 2, "velocity": 75}, {"time": 3388, "pitch": 61, "duration": 2, "velocity": 76}, {"time": 3388, "pitch": 64, "duration": 3, "velocity": 78}, {"time": 3394, "pitch": 42, "duration": 9, "velocity": 67}, {"time": 3400, "pitch": 58, "duration": 2, "velocity": 76}, {"time": 3400, "pitch": 61, "duration": 2, "velocity": 78}, {"time": 3400, "pitch": 64, "duration": 2, "velocity": 76}, {"time": 3406, "pitch": 49, "duration": 6, "velocity": 85}, {"time": 3412, "pitch": 44, "duration": 4, "velocity": 70}, {"time": 3412, "pitch": 58, "duration": 2, "velocity": 73}, {"time": 3412, "pitch": 61, "duration": 2, "velocity": 75}, {"time": 3412, "pitch": 64, "duration": 3, "velocity": 78}, {"time": 3415, "pitch": 46, "duration": 3, "velocity": 56}, {"time": 3418, "pitch": 47, "duration": 6, "velocity": 76}, {"time": 3424, "pitch": 54, "duration": 2, "velocity": 85}, {"time": 3424, "pitch": 59, "duration": 2, "velocity": 80}, {"time": 3424, "pitch": 63, "duration": 2, "velocity": 82}, {"time": 3430, "pitch": 51, "duration": 8, "velocity": 95}, {"time": 3436, "pitch": 54, "duration": 2, "velocity": 82}, {"time": 3436, "pitch": 59, "duration": 2, "velocity": 80}, {"time": 3436, "pitch": 63, "duration": 3, "velocity": 85}, {"time": 3442, "pitch": 47, "duration": 9, "velocity": 93}, {"time": 3448, "pitch": 54, "duration": 2, "velocity": 76}, {"time": 3448, "pitch": 59, "duration": 2, "velocity": 76}, {"time": 3448, "pitch": 63, "duration": 2, "velocity": 78}, {"time": 3454, "pitch": 51, "duration": 6, "velocity": 85}, {"time": 3460, "pitch": 54, "duration": 2, "velocity": 78}, {"time": 3460, "pitch": 59, "duration": 2, "velocity": 73}, {"time": 3460, "pitch": 63, "duration": 3, "velocity": 80}, {"time": 3466, "pitch": 39, "duration": 9, "velocity": 70}, {"time": 3466, "pitch": 51, "duration": 9, "velocity": 69}, {"time": 3472, "pitch": 54, "duration": 2, "velocity": 67}, {"time": 3472, "pitch": 57, "duration": 4, "velocity": 85}, {"time": 3472, "pitch": 63, "duration": 3, "velocity": 78}, {"time": 3478, "pitch": 46, "duration": 9, "velocity": 72}, {"time": 3484, "pitch": 54, "duration": 4, "velocity": 70}, {"time": 3484, "pitch": 57, "duration": 4, "velocity": 76}, {"time": 3484, "pitch": 61, "duration": 4, "velocity": 78}, {"time": 3484, "pitch": 63, "duration": 4, "velocity": 80}, {"time": 3490, "pitch": 39, "duration": 9, "velocity": 73}, {"time": 3490, "pitch": 51, "duration": 8, "velocity": 67}, {"time": 3496, "pitch": 54, "duration": 3, "velocity": 75}, {"time": 3496, "pitch": 57, "duration": 6, "velocity": 80}, {"time": 3496, "pitch": 61, "duration": 6, "velocity": 80}, {"time": 3496, "pitch": 63, "duration": 3, "velocity": 80}, {"time": 3502, "pitch": 46, "duration": 5, "velocity": 70}, {"time": 3508, "pitch": 54, "duration": 2, "velocity": 76}, {"time": 3508, "pitch": 57, "duration": 5, "velocity": 82}, {"time": 3508, "pitch": 61, "duration": 3, "velocity": 78}, {"time": 3508, "pitch": 63, "duration": 3, "velocity": 82}, {"time": 3514, "pitch": 37, "duration": 9, "velocity": 72}, {"time": 3514, "pitch": 49, "duration": 9, "velocity": 70}, {"time": 3520, "pitch": 56, "duration": 2, "velocity": 78}, {"time": 3520, "pitch": 59, "duration": 2, "velocity": 88}, {"time": 3520, "pitch": 64, "duration": 2, "velocity": 80}, {"time": 3526, "pitch": 44, "duration": 8, "velocity": 73}, {"time": 3532, "pitch": 56, "duration": 2, "velocity": 78}, {"time": 3532, "pitch": 59, "duration": 2, "velocity": 88}, {"time": 3532, "pitch": 64, "duration": 2, "velocity": 85}, {"time": 3538, "pitch": 37, "duration": 8, "velocity": 70}, {"time": 3538, "pitch": 49, "duration": 8, "velocity": 75}, {"time": 3544, "pitch": 56, "duration": 3, "velocity": 75}, {"time": 3544, "pitch": 59, "duration": 3, "velocity": 78}, {"time": 3544, "pitch": 64, "duration": 3, "velocity": 61}, {"time": 3550, "pitch": 37, "duration": 2, "velocity": 67}, {"time": 3550, "pitch": 49, "duration": 3, "velocity": 80}, {"time": 3556, "pitch": 40, "duration": 3, "velocity": 75}, {"time": 3559, "pitch": 41, "duration": 2, "velocity": 64}, {"time": 3562, "pitch": 42, "duration": 8, "velocity": 80}, {"time": 3568, "pitch": 56, "duration": 2, "velocity": 78}, {"time": 3568, "pitch": 59, "duration": 2, "velocity": 88}, {"time": 3568, "pitch": 64, "duration": 3, "velocity": 85}, {"time": 3574, "pitch": 47, "duration": 4, "velocity": 80}, {"time": 3580, "pitch": 56, "duration": 2, "velocity": 80}, {"time": 3580, "pitch": 61, "duration": 2, "velocity": 78}, {"time": 3580, "pitch": 64, "duration": 2, "velocity": 88}, {"time": 3586, "pitch": 42, "duration": 7, "velocity": 76}, {"time": 3592, "pitch": 58, "duration": 2, "velocity": 85}, {"time": 3592, "pitch": 61, "duration": 2, "velocity": 85}, {"time": 3592, "pitch": 66, "duration": 2, "velocity": 82}, {"time": 3598, "pitch": 44, "duration": 7, "velocity": 85}, {"time": 3604, "pitch": 46, "duration": 3, "velocity": 95}, {"time": 3610, "pitch": 47, "duration": 6, "velocity": 93}, {"time": 3616, "pitch": 54, "duration": 2, "velocity": 75}, {"time": 3616, "pitch": 59, "duration": 2, "velocity": 73}, {"time": 3616, "pitch": 63, "duration": 3, "velocity": 80}, {"time": 3622, "pitch": 51, "duration": 5, "velocity": 72}, {"time": 3628, "pitch": 54, "duration": 2, "velocity": 85}, {"time": 3628, "pitch": 59, "duration": 3, "velocity": 78}, {"time": 3628, "pitch": 63, "duration": 3, "velocity": 80}, {"time": 3634, "pitch": 42, "duration": 6, "velocity": 80}, {"time": 3640, "pitch": 54, "duration": 3, "velocity": 80}, {"time": 3640, "pitch": 59, "duration": 3, "velocity": 78}, {"time": 3640, "pitch": 63, "duration": 3, "velocity": 82}, {"time": 3646, "pitch": 35, "duration": 7, "velocity": 72}, {"time": 3652, "pitch": 54, "duration": 3, "velocity": 76}, {"time": 3652, "pitch": 59, "duration": 3, "velocity": 75}, {"time": 3652, "pitch": 63, "duration": 3, "velocity": 80}, {"time": 3658, "pitch": 39, "duration": 8, "velocity": 67}, {"time": 3658, "pitch": 51, "duration": 8, "velocity": 64}, {"time": 3664, "pitch": 54, "duration": 2, "velocity": 73}, {"time": 3664, "pitch": 57, "duration": 3, "velocity": 80}, {"time": 3664, "pitch": 61, "duration": 2, "velocity": 78}, {"time": 3664, "pitch": 63, "duration": 2, "velocity": 78}, {"time": 3670, "pitch": 46, "duration": 8, "velocity": 60}, {"time": 3676, "pitch": 54, "duration": 2, "velocity": 72}, {"time": 3676, "pitch": 57, "duration": 3, "velocity": 78}, {"time": 3676, "pitch": 61, "duration": 3, "velocity": 78}, {"time": 3682, "pitch": 44, "duration": 8, "velocity": 80}, {"time": 3688, "pitch": 56, "duration": 4, "velocity": 80}, {"time": 3688, "pitch": 60, "duration": 4, "velocity": 78}, {"time": 3688, "pitch": 63, "duration": 4, "velocity": 85}, {"time": 3694, "pitch": 48, "duration": 6, "velocity": 93}, {"time": 3700, "pitch": 56, "duration": 2, "velocity": 78}, {"time": 3700, "pitch": 60, "duration": 3, "velocity": 85}, {"time": 3700, "pitch": 63, "duration": 2, "velocity": 85}, {"time": 3706, "pitch": 37, "duration": 9, "velocity": 72}, {"time": 3706, "pitch": 49, "duration": 9, "velocity": 72}, {"time": 3712, "pitch": 56, "duration": 2, "velocity": 69}, {"time": 3712, "pitch": 59, "duration": 2, "velocity": 85}, {"time": 3712, "pitch": 64, "duration": 2, "velocity": 80}, {"time": 3718, "pitch": 44, "duration": 7, "velocity": 73}, {"time": 3724, "pitch": 56, "duration": 2, "velocity": 78}, {"time": 3724, "pitch": 59, "duration": 2, "velocity": 82}, {"time": 3724, "pitch": 64, "duration": 2, "velocity": 78}, {"time": 3730, "pitch": 42, "duration": 8, "velocity": 72}, {"time": 3736, "pitch": 58, "duration": 2, "velocity": 85}, {"time": 3736, "pitch": 61, "duration": 3, "velocity": 97}, {"time": 3736, "pitch": 66, "duration": 3, "velocity": 76}, {"time": 3742, "pitch": 49, "duration": 5, "velocity": 75}, {"time": 3748, "pitch": 58, "duration": 4, "velocity": 95}, {"time": 3748, "pitch": 61, "duration": 5, "velocity": 85}, {"time": 3748, "pitch": 66, "duration": 6, "velocity": 80}, {"time": 3754, "pitch": 35, "duration": 8, "velocity": 73}, {"time": 3754, "pitch": 47, "duration": 9, "velocity": 75}, {"time": 3760, "pitch": 54, "duration": 2, "velocity": 78}, {"time": 3760, "pitch": 59, "duration": 2, "velocity": 82}, {"time": 3760, "pitch": 63, "duration": 3, "velocity": 80}, {"time": 3766, "pitch": 42, "duration": 7, "velocity": 70}, {"time": 3772, "pitch": 54, "duration": 2, "velocity": 80}, {"time": 3772, "pitch": 58, "duration": 2, "velocity": 73}, {"time": 3772, "pitch": 59, "duration": 3, "velocity": 88}, {"time": 3772, "pitch": 63, "duration": 2, "velocity": 82}, {"time": 3778, "pitch": 44, "duration": 9, "velocity": 73}, {"time": 3784, "pitch": 56, "duration": 2, "velocity": 67}, {"time": 3784, "pitch": 59, "duration": 2, "velocity": 88}, {"time": 3784, "pitch": 63, "duration": 2, "velocity": 78}, {"time": 3784, "pitch": 66, "duration": 2, "velocity": 67}, {"time": 3790, "pitch": 51, "duration": 7, "velocity": 69}, {"time": 3796, "pitch": 56, "duration": 2, "velocity": 82}, {"time": 3796, "pitch": 60, "duration": 3, "velocity": 101}, {"time": 3796, "pitch": 63, "duration": 3, "velocity": 80}, {"time": 3799, "pitch": 64, "duration": 4, "velocity": 13}, {"time": 3802, "pitch": 37, "duration": 9, "velocity": 78}, {"time": 3802, "pitch": 49, "duration": 9, "velocity": 82}, {"time": 3808, "pitch": 56, "duration": 2, "velocity": 70}, {"time": 3808, "pitch": 59, "duration": 2, "velocity": 75}, {"time": 3808, "pitch": 61, "duration": 2, "velocity": 73}, {"time": 3808, "pitch": 64, "duration": 3, "velocity": 75}, {"time": 3814, "pitch": 44, "duration": 7, "velocity": 67}, {"time": 3820, "pitch": 56, "duration": 3, "velocity": 73}, {"time": 3820, "pitch": 59, "duration": 3, "velocity": 75}, {"time": 3820, "pitch": 61, "duration": 3, "velocity": 75}, {"time": 3820, "pitch": 64, "duration": 3, "velocity": 75}, {"time": 3826, "pitch": 44, "duration": 6, "velocity": 72}, {"time": 3832, "pitch": 56, "duration": 3, "velocity": 73}, {"time": 3832, "pitch": 59, "duration": 3, "velocity": 78}, {"time": 3832, "pitch": 63, "duration": 3, "velocity": 76}, {"time": 3838, "pitch": 37, "duration": 7, "velocity": 80}, {"time": 3844, "pitch": 56, "duration": 3, "velocity": 75}, {"time": 3844, "pitch": 59, "duration": 3, "velocity": 76}, {"time": 3844, "pitch": 64, "duration": 3, "velocity": 82}, {"time": 3850, "pitch": 46, "duration": 10, "velocity": 76}, {"time": 3856, "pitch": 58, "duration": 2, "velocity": 76}, {"time": 3856, "pitch": 61, "duration": 2, "velocity": 80}, {"time": 3856, "pitch": 64, "duration": 2, "velocity": 78}, {"time": 3862, "pitch": 52, "duration": 6, "velocity": 76}, {"time": 3868, "pitch": 58, "duration": 2, "velocity": 75}, {"time": 3868, "pitch": 61, "duration": 2, "velocity": 80}, {"time": 3868, "pitch": 64, "duration": 3, "velocity": 76}, {"time": 3874, "pitch": 39, "duration": 9, "velocity": 73}, {"time": 3874, "pitch": 51, "duration": 8, "velocity": 78}, {"time": 3880, "pitch": 55, "duration": 2, "velocity": 97}, {"time": 3880, "pitch": 58, "duration": 2, "velocity": 80}, {"time": 3880, "pitch": 61, "duration": 2, "velocity": 82}, {"time": 3886, "pitch": 39, "duration": 10, "velocity": 73}, {"time": 3886, "pitch": 46, "duration": 2, "velocity": 64}, {"time": 3886, "pitch": 51, "duration": 11, "velocity": 80}, {"time": 3886, "pitch": 55, "duration": 12, "velocity": 78}, {"time": 3886, "pitch": 58, "duration": 12, "velocity": 76}, {"time": 3886, "pitch": 61, "duration": 12, "velocity": 76}, {"time": 3886, "pitch": 63, "duration": 13, "velocity": 72}, {"time": 3896, "pitch": 44, "duration": 9, "velocity": 70}, {"time": 3896, "pitch": 56, "duration": 9, "velocity": 85}, {"time": 3903, "pitch": 68, "duration": 2, "velocity": 82}, {"time": 3903, "pitch": 59, "duration": 2, "velocity": 82}, {"time": 3903, "pitch": 63, "duration": 2, "velocity": 85}, {"time": 3909, "pitch": 51, "duration": 9, "velocity": 57}, {"time": 3909, "pitch": 52, "duration": 3, "velocity": 66}, {"time": 3915, "pitch": 59, "duration": 2, "velocity": 82}, {"time": 3915, "pitch": 63, "duration": 2, "velocity": 88}, {"time": 3915, "pitch": 68, "duration": 3, "velocity": 85}, {"time": 3921, "pitch": 44, "duration": 8, "velocity": 75}, {"time": 3921, "pitch": 56, "duration": 8, "velocity": 75}, {"time": 3927, "pitch": 68, "duration": 3, "velocity": 85}, {"time": 3927, "pitch": 59, "duration": 3, "velocity": 88}, {"time": 3927, "pitch": 63, "duration": 3, "velocity": 85}, {"time": 3933, "pitch": 44, "duration": 5, "velocity": 72}, {"time": 3933, "pitch": 56, "duration": 3, "velocity": 99}, {"time": 3937, "pitch": 47, "duration": 4, "velocity": 80}, {"time": 3940, "pitch": 48, "duration": 5, "velocity": 82}, {"time": 3945, "pitch": 49, "duration": 1, "velocity": 63}, {"time": 3946, "pitch": 37, "duration": 8, "velocity": 75}, {"time": 3946, "pitch": 49, "duration": 9, "velocity": 67}, {"time": 3952, "pitch": 56, "duration": 2, "velocity": 72}, {"time": 3952, "pitch": 61, "duration": 2, "velocity": 80}, {"time": 3952, "pitch": 64, "duration": 2, "velocity": 78}, {"time": 3958, "pitch": 44, "duration": 9, "velocity": 73}, {"time": 3964, "pitch": 56, "duration": 2, "velocity": 75}, {"time": 3964, "pitch": 61, "duration": 2, "velocity": 82}, {"time": 3964, "pitch": 64, "duration": 2, "velocity": 78}, {"time": 3970, "pitch": 37, "duration": 8, "velocity": 72}, {"time": 3970, "pitch": 49, "duration": 8, "velocity": 80}, {"time": 3976, "pitch": 56, "duration": 2, "velocity": 70}, {"time": 3976, "pitch": 61, "duration": 3, "velocity": 80}, {"time": 3976, "pitch": 64, "duration": 2, "velocity": 73}, {"time": 3982, "pitch": 44, "duration": 7, "velocity": 72}, {"time": 3988, "pitch": 56, "duration": 2, "velocity": 72}, {"time": 3988, "pitch": 61, "duration": 3, "velocity": 78}, {"time": 3988, "pitch": 64, "duration": 2, "velocity": 73}, {"time": 3994, "pitch": 40, "duration": 2, "velocity": 73}, {"time": 3994, "pitch": 42, "duration": 7, "velocity": 75}, {"time": 4000, "pitch": 58, "duration": 2, "velocity": 75}, {"time": 4000, "pitch": 61, "duration": 2, "velocity": 80}, {"time": 4000, "pitch": 64, "duration": 2, "velocity": 78}, {"time": 4006, "pitch": 49, "duration": 8, "velocity": 69}, {"time": 4012, "pitch": 58, "duration": 2, "velocity": 76}, {"time": 4012, "pitch": 61, "duration": 2, "velocity": 80}, {"time": 4012, "pitch": 64, "duration": 2, "velocity": 80}, {"time": 4018, "pitch": 42, "duration": 9, "velocity": 72}, {"time": 4024, "pitch": 58, "duration": 2, "velocity": 75}, {"time": 4024, "pitch": 61, "duration": 3, "velocity": 73}, {"time": 4024, "pitch": 64, "duration": 3, "velocity": 78}, {"time": 4030, "pitch": 44, "duration": 8, "velocity": 85}, {"time": 4036, "pitch": 46, "duration": 5, "velocity": 93}, {"time": 4042, "pitch": 47, "duration": 9, "velocity": 93}, {"time": 4048, "pitch": 54, "duration": 2, "velocity": 85}, {"time": 4048, "pitch": 59, "duration": 2, "velocity": 88}, {"time": 4048, "pitch": 63, "duration": 2, "velocity": 82}, {"time": 4054, "pitch": 51, "duration": 6, "velocity": 76}, {"time": 4060, "pitch": 54, "duration": 2, "velocity": 93}, {"time": 4060, "pitch": 59, "duration": 2, "velocity": 97}, {"time": 4060, "pitch": 63, "duration": 2, "velocity": 93}, {"time": 4066, "pitch": 39, "duration": 8, "velocity": 70}, {"time": 4066, "pitch": 51, "duration": 8, "velocity": 91}, {"time": 4072, "pitch": 55, "duration": 3, "velocity": 99}, {"time": 4072, "pitch": 58, "duration": 3, "velocity": 95}, {"time": 4072, "pitch": 63, "duration": 7, "velocity": 85}, {"time": 4078, "pitch": 43, "duration": 7, "velocity": 93}, {"time": 4084, "pitch": 55, "duration": 2, "velocity": 99}, {"time": 4084, "pitch": 58, "duration": 2, "velocity": 99}, {"time": 4084, "pitch": 61, "duration": 3, "velocity": 80}, {"time": 4090, "pitch": 44, "duration": 8, "velocity": 62}, {"time": 4096, "pitch": 56, "duration": 2, "velocity": 76}, {"time": 4096, "pitch": 59, "duration": 2, "velocity": 85}, {"time": 4096, "pitch": 63, "duration": 2, "velocity": 76}, {"time": 4102, "pitch": 51, "duration": 8, "velocity": 73}, {"time": 4108, "pitch": 44, "duration": 1, "velocity": 40}, {"time": 4108, "pitch": 56, "duration": 2, "velocity": 78}, {"time": 4108, "pitch": 59, "duration": 2, "velocity": 85}, {"time": 4108, "pitch": 63, "duration": 2, "velocity": 82}, {"time": 4114, "pitch": 44, "duration": 9, "velocity": 73}, {"time": 4120, "pitch": 56, "duration": 2, "velocity": 80}, {"time": 4120, "pitch": 59, "duration": 2, "velocity": 88}, {"time": 4120, "pitch": 63, "duration": 3, "velocity": 75}, {"time": 4126, "pitch": 51, "duration": 4, "velocity": 91}, {"time": 4132, "pitch": 56, "duration": 2, "velocity": 82}, {"time": 4132, "pitch": 59, "duration": 2, "velocity": 88}, {"time": 4132, "pitch": 63, "duration": 8, "velocity": 91}, {"time": 4138, "pitch": 37, "duration": 8, "velocity": 73}, {"time": 4138, "pitch": 49, "duration": 8, "velocity": 85}, {"time": 4144, "pitch": 56, "duration": 2, "velocity": 91}, {"time": 4144, "pitch": 61, "duration": 2, "velocity": 95}, {"time": 4144, "pitch": 64, "duration": 2, "velocity": 82}, {"time": 4150, "pitch": 44, "duration": 8, "velocity": 67}, {"time": 4156, "pitch": 56, "duration": 3, "velocity": 70}, {"time": 4156, "pitch": 61, "duration": 3, "velocity": 72}, {"time": 4156, "pitch": 64, "duration": 3, "velocity": 76}, {"time": 4162, "pitch": 37, "duration": 9, "velocity": 66}, {"time": 4162, "pitch": 49, "duration": 7, "velocity": 73}, {"time": 4168, "pitch": 56, "duration": 3, "velocity": 82}, {"time": 4168, "pitch": 61, "duration": 3, "velocity": 95}, {"time": 4168, "pitch": 64, "duration": 3, "velocity": 75}, {"time": 4174, "pitch": 44, "duration": 7, "velocity": 70}, {"time": 4180, "pitch": 56, "duration": 3, "velocity": 75}, {"time": 4180, "pitch": 61, "duration": 3, "velocity": 70}, {"time": 4180, "pitch": 64, "duration": 3, "velocity": 78}, {"time": 4186, "pitch": 42, "duration": 8, "velocity": 82}, {"time": 4187, "pitch": 54, "duration": 1, "velocity": 46}, {"time": 4192, "pitch": 58, "duration": 2, "velocity": 85}, {"time": 4192, "pitch": 61, "duration": 2, "velocity": 85}, {"time": 4192, "pitch": 66, "duration": 2, "velocity": 85}, {"time": 4198, "pitch": 49, "duration": 8, "velocity": 64}, {"time": 4204, "pitch": 66, "duration": 2, "velocity": 80}, {"time": 4204, "pitch": 58, "duration": 2, "velocity": 76}, {"time": 4204, "pitch": 61, "duration": 2, "velocity": 78}, {"time": 4209, "pitch": 42, "duration": 9, "velocity": 70}, {"time": 4209, "pitch": 54, "duration": 8, "velocity": 80}, {"time": 4216, "pitch": 61, "duration": 3, "velocity": 91}, {"time": 4216, "pitch": 64, "duration": 3, "velocity": 80}, {"time": 4216, "pitch": 58, "duration": 3, "velocity": 85}, {"time": 4221, "pitch": 49, "duration": 5, "velocity": 70}, {"time": 4227, "pitch": 64, "duration": 3, "velocity": 85}, {"time": 4228, "pitch": 61, "duration": 2, "velocity": 78}, {"time": 4228, "pitch": 58, "duration": 2, "velocity": 76}, {"time": 4233, "pitch": 35, "duration": 8, "velocity": 75}, {"time": 4233, "pitch": 47, "duration": 8, "velocity": 78}, {"time": 4239, "pitch": 59, "duration": 3, "velocity": 88}, {"time": 4239, "pitch": 63, "duration": 4, "velocity": 75}, {"time": 4239, "pitch": 54, "duration": 3, "velocity": 88}, {"time": 4245, "pitch": 42, "duration": 4, "velocity": 76}, {"time": 4251, "pitch": 54, "duration": 2, "velocity": 78}, {"time": 4251, "pitch": 63, "duration": 3, "velocity": 75}, {"time": 4252, "pitch": 59, "duration": 1, "velocity": 70}, {"time": 4257, "pitch": 39, "duration": 9, "velocity": 70}, {"time": 4257, "pitch": 51, "duration": 9, "velocity": 91}, {"time": 4263, "pitch": 55, "duration": 3, "velocity": 69}, {"time": 4263, "pitch": 58, "duration": 4, "velocity": 78}, {"time": 4263, "pitch": 63, "duration": 1, "velocity": 52}, {"time": 4263, "pitch": 61, "duration": 3, "velocity": 58}, {"time": 4269, "pitch": 43, "duration": 8, "velocity": 101}, {"time": 4275, "pitch": 55, "duration": 2, "velocity": 78}, {"time": 4275, "pitch": 58, "duration": 1, "velocity": 73}, {"time": 4275, "pitch": 63, "duration": 2, "velocity": 69}, {"time": 4282, "pitch": 44, "duration": 74, "velocity": 93}, {"time": 4282, "pitch": 59, "duration": 21, "velocity": 88}, {"time": 4282, "pitch": 63, "duration": 22, "velocity": 75}, {"time": 4282, "pitch": 56, "duration": 19, "velocity": 75}, {"time": 4311, "pitch": 68, "duration": 3, "velocity": 70}, {"time": 4314, "pitch": 70, "duration": 3, "velocity": 53}, {"time": 4317, "pitch": 71, "duration": 1, "velocity": 80}, {"time": 4320, "pitch": 75, "duration": 2, "velocity": 88}, {"time": 4323, "pitch": 80, "duration": 4, "velocity": 48}, {"time": 4326, "pitch": 82, "duration": 3, "velocity": 61}, {"time": 4330, "pitch": 83, "duration": 6, "velocity": 75}, {"time": 4335, "pitch": 87, "duration": 3, "velocity": 57}, {"time": 4340, "pitch": 94, "duration": 5, "velocity": 61}, {"time": 4345, "pitch": 92, "duration": 9, "velocity": 51}], "annotations": [{"time": 215, "annotation": {"number": 64, "value": 127}, "group": "control_change"}, {"time": 224, "annotation": {"number": 64, "value": 0}, "group": "control_change"}, {"time": 564, "annotation": {"number": 64, "value": 127}, "group": "control_change"}, {"time": 584, "annotation": {"number": 64, "value": 0}, "group": "control_change"}, {"time": 1069, "annotation": {"number": 64, "value": 127}, "group": "control_change"}, {"time": 1074, "annotation": {"number": 64, "value": 0}, "group": "control_change"}, {"time": 1367, "annotation": {"number": 64, "value": 127}, "group": "control_change"}, {"time": 1376, "annotation": {"number": 64, "value": 0}, "group": "control_change"}, {"time": 1716, "annotation": {"number": 64, "value": 127}, "group": "control_change"}, {"time": 1736, "annotation": {"number": 64, "value": 0}, "group": "control_change"}, {"time": 2221, "annotation": {"number": 64, "value": 127}, "group": "control_change"}, {"time": 2226, "annotation": {"number": 64, "value": 0}, "group": "control_change"}, {"time": 3186, "annotation": {"number": 64, "value": 0}, "group": "control_change"}, {"time": 3805, "annotation": {"number": 64, "value": 127}, "group": "control_change"}, {"time": 3810, "annotation": {"number": 64, "value": 0}, "group": "control_change"}, {"time": 4287, "annotation": {"number": 64, "value": 127}, "group": "control_change"}, {"time": 4385, "annotation": {"number": 64, "value": 0}, "group": "control_change"}]}]}