{"metadata": {"schema_version": "0.2", "title": "None", "source_filename": "207.mid", "source_format": "midi"}, "resolution": 12, "tempos": [{"time": 0, "qpm": 110.00011000011}], "time_signatures": [{"time": 0, "numerator": 4, "denominator": 4}], "tracks": [{"program": 0, "is_drum": false, "name": "MELODY", "notes": [{"time": 621, "pitch": 63, "duration": 6, "velocity": 56}, {"time": 627, "pitch": 64, "duration": 6, "velocity": 77}, {"time": 633, "pitch": 66, "duration": 18, "velocity": 94}, {"time": 651, "pitch": 66, "duration": 6, "velocity": 91}, {"time": 657, "pitch": 66, "duration": 9, "velocity": 77}, {"time": 666, "pitch": 71, "duration": 9, "velocity": 84}, {"time": 675, "pitch": 73, "duration": 6, "velocity": 79}, {"time": 681, "pitch": 71, "duration": 45, "velocity": 97}, {"time": 729, "pitch": 70, "duration": 9, "velocity": 105}, {"time": 738, "pitch": 70, "duration": 9, "velocity": 94}, {"time": 747, "pitch": 71, "duration": 6, "velocity": 98}, {"time": 753, "pitch": 70, "duration": 9, "velocity": 99}, {"time": 762, "pitch": 68, "duration": 6, "velocity": 97}, {"time": 771, "pitch": 66, "duration": 6, "velocity": 91}, {"time": 777, "pitch": 68, "duration": 45, "velocity": 91}, {"time": 825, "pitch": 64, "duration": 6, "velocity": 90}, {"time": 834, "pitch": 64, "duration": 24, "velocity": 87}, {"time": 855, "pitch": 64, "duration": 3, "velocity": 91}, {"time": 861, "pitch": 66, "duration": 6, "velocity": 92}, {"time": 867, "pitch": 68, "duration": 6, "velocity": 87}, {"time": 873, "pitch": 66, "duration": 12, "velocity": 96}, {"time": 885, "pitch": 63, "duration": 6, "velocity": 86}, {"time": 891, "pitch": 59, "duration": 18, "velocity": 84}, {"time": 909, "pitch": 61, "duration": 6, "velocity": 95}, {"time": 915, "pitch": 63, "duration": 6, "velocity": 93}, {"time": 921, "pitch": 64, "duration": 15, "velocity": 94}, {"time": 939, "pitch": 64, "duration": 6, "velocity": 90}, {"time": 945, "pitch": 68, "duration": 9, "velocity": 91}, {"time": 954, "pitch": 71, "duration": 12, "velocity": 89}, {"time": 963, "pitch": 63, "duration": 6, "velocity": 84}, {"time": 969, "pitch": 61, "duration": 36, "velocity": 63}, {"time": 1005, "pitch": 63, "duration": 6, "velocity": 96}, {"time": 1011, "pitch": 64, "duration": 6, "velocity": 83}, {"time": 1017, "pitch": 66, "duration": 9, "velocity": 97}, {"time": 1026, "pitch": 66, "duration": 15, "velocity": 98}, {"time": 1041, "pitch": 66, "duration": 9, "velocity": 103}, {"time": 1050, "pitch": 71, "duration": 9, "velocity": 100}, {"time": 1059, "pitch": 73, "duration": 6, "velocity": 94}, {"time": 1065, "pitch": 71, "duration": 36, "velocity": 103}, {"time": 1101, "pitch": 71, "duration": 6, "velocity": 97}, {"time": 1107, "pitch": 73, "duration": 6, "velocity": 87}, {"time": 1113, "pitch": 75, "duration": 18, "velocity": 94}, {"time": 1131, "pitch": 70, "duration": 6, "velocity": 83}, {"time": 1137, "pitch": 70, "duration": 9, "velocity": 89}, {"time": 1146, "pitch": 73, "duration": 15, "velocity": 87}, {"time": 1161, "pitch": 71, "duration": 12, "velocity": 96}, {"time": 1173, "pitch": 68, "duration": 24, "velocity": 54}, {"time": 1197, "pitch": 68, "duration": 6, "velocity": 90}, {"time": 1203, "pitch": 70, "duration": 6, "velocity": 86}, {"time": 1209, "pitch": 71, "duration": 30, "velocity": 95}, {"time": 1239, "pitch": 71, "duration": 6, "velocity": 98}, {"time": 1245, "pitch": 70, "duration": 6, "velocity": 87}, {"time": 1251, "pitch": 68, "duration": 6, "velocity": 67}, {"time": 1257, "pitch": 66, "duration": 12, "velocity": 86}, {"time": 1269, "pitch": 70, "duration": 6, "velocity": 92}, {"time": 1275, "pitch": 71, "duration": 18, "velocity": 92}, {"time": 1293, "pitch": 68, "duration": 6, "velocity": 98}, {"time": 1299, "pitch": 70, "duration": 6, "velocity": 87}, {"time": 1305, "pitch": 71, "duration": 6, "velocity": 74}, {"time": 1311, "pitch": 71, "duration": 6, "velocity": 90}, {"time": 1317, "pitch": 71, "duration": 6, "velocity": 96}, {"time": 1323, "pitch": 71, "duration": 6, "velocity": 93}, {"time": 1329, "pitch": 75, "duration": 6, "velocity": 96}, {"time": 1335, "pitch": 78, "duration": 12, "velocity": 87}, {"time": 1347, "pitch": 71, "duration": 6, "velocity": 82}, {"time": 1353, "pitch": 73, "duration": 24, "velocity": 68}, {"time": 1377, "pitch": 75, "duration": 6, "velocity": 101}, {"time": 1383, "pitch": 73, "duration": 9, "velocity": 90}, {"time": 1392, "pitch": 71, "duration": 9, "velocity": 86}, {"time": 1401, "pitch": 75, "duration": 18, "velocity": 97}, {"time": 1419, "pitch": 75, "duration": 6, "velocity": 108}, {"time": 1425, "pitch": 78, "duration": 9, "velocity": 91}, {"time": 1434, "pitch": 75, "duration": 9, "velocity": 99}, {"time": 1443, "pitch": 73, "duration": 6, "velocity": 91}, {"time": 1449, "pitch": 75, "duration": 24, "velocity": 105}, {"time": 1473, "pitch": 75, "duration": 6, "velocity": 93}, {"time": 1479, "pitch": 78, "duration": 9, "velocity": 93}, {"time": 1488, "pitch": 75, "duration": 9, "velocity": 84}, {"time": 1497, "pitch": 80, "duration": 9, "velocity": 103}, {"time": 1506, "pitch": 80, "duration": 9, "velocity": 98}, {"time": 1515, "pitch": 80, "duration": 6, "velocity": 97}, {"time": 1521, "pitch": 78, "duration": 9, "velocity": 106}, {"time": 1530, "pitch": 75, "duration": 6, "velocity": 94}, {"time": 1539, "pitch": 73, "duration": 3, "velocity": 94}, {"time": 1545, "pitch": 75, "duration": 15, "velocity": 103}, {"time": 1563, "pitch": 68, "duration": 6, "velocity": 84}, {"time": 1569, "pitch": 75, "duration": 6, "velocity": 95}, {"time": 1575, "pitch": 73, "duration": 9, "velocity": 93}, {"time": 1587, "pitch": 75, "duration": 6, "velocity": 98}, {"time": 1593, "pitch": 68, "duration": 18, "velocity": 89}, {"time": 1611, "pitch": 68, "duration": 6, "velocity": 72}, {"time": 1617, "pitch": 75, "duration": 9, "velocity": 98}, {"time": 1626, "pitch": 73, "duration": 9, "velocity": 90}, {"time": 1635, "pitch": 75, "duration": 6, "velocity": 93}, {"time": 1641, "pitch": 66, "duration": 24, "velocity": 84}, {"time": 1665, "pitch": 75, "duration": 9, "velocity": 101}, {"time": 1674, "pitch": 73, "duration": 6, "velocity": 97}, {"time": 1680, "pitch": 71, "duration": 9, "velocity": 96}, {"time": 1689, "pitch": 76, "duration": 9, "velocity": 77}, {"time": 1698, "pitch": 76, "duration": 6, "velocity": 99}, {"time": 1707, "pitch": 76, "duration": 6, "velocity": 95}, {"time": 1713, "pitch": 76, "duration": 12, "velocity": 96}, {"time": 1725, "pitch": 78, "duration": 6, "velocity": 97}, {"time": 1731, "pitch": 75, "duration": 6, "velocity": 94}, {"time": 1737, "pitch": 75, "duration": 6, "velocity": 89}, {"time": 1743, "pitch": 73, "duration": 18, "velocity": 89}, {"time": 1761, "pitch": 75, "duration": 3, "velocity": 101}, {"time": 1767, "pitch": 73, "duration": 9, "velocity": 99}, {"time": 1779, "pitch": 71, "duration": 6, "velocity": 96}, {"time": 1785, "pitch": 75, "duration": 24, "velocity": 103}, {"time": 1809, "pitch": 78, "duration": 6, "velocity": 92}, {"time": 1815, "pitch": 75, "duration": 9, "velocity": 100}, {"time": 1827, "pitch": 73, "duration": 6, "velocity": 92}, {"time": 1833, "pitch": 75, "duration": 24, "velocity": 99}, {"time": 1857, "pitch": 75, "duration": 9, "velocity": 94}, {"time": 1866, "pitch": 78, "duration": 9, "velocity": 96}, {"time": 1875, "pitch": 75, "duration": 6, "velocity": 87}, {"time": 1881, "pitch": 80, "duration": 9, "velocity": 105}, {"time": 1890, "pitch": 80, "duration": 9, "velocity": 97}, {"time": 1899, "pitch": 80, "duration": 6, "velocity": 98}, {"time": 1905, "pitch": 78, "duration": 9, "velocity": 96}, {"time": 1914, "pitch": 75, "duration": 9, "velocity": 93}, {"time": 1923, "pitch": 73, "duration": 6, "velocity": 90}, {"time": 1929, "pitch": 75, "duration": 24, "velocity": 100}, {"time": 1953, "pitch": 75, "duration": 6, "velocity": 106}, {"time": 1959, "pitch": 73, "duration": 9, "velocity": 101}, {"time": 1971, "pitch": 75, "duration": 6, "velocity": 97}, {"time": 1977, "pitch": 68, "duration": 24, "velocity": 94}, {"time": 2001, "pitch": 75, "duration": 9, "velocity": 105}, {"time": 2010, "pitch": 73, "duration": 9, "velocity": 97}, {"time": 2019, "pitch": 75, "duration": 6, "velocity": 94}, {"time": 2025, "pitch": 66, "duration": 24, "velocity": 91}, {"time": 2049, "pitch": 75, "duration": 9, "velocity": 101}, {"time": 2058, "pitch": 73, "duration": 9, "velocity": 91}, {"time": 2067, "pitch": 71, "duration": 6, "velocity": 89}, {"time": 2073, "pitch": 76, "duration": 9, "velocity": 98}, {"time": 2082, "pitch": 76, "duration": 9, "velocity": 96}, {"time": 2091, "pitch": 76, "duration": 6, "velocity": 96}, {"time": 2097, "pitch": 78, "duration": 9, "velocity": 99}, {"time": 2106, "pitch": 75, "duration": 9, "velocity": 95}, {"time": 2115, "pitch": 75, "duration": 12, "velocity": 101}, {"time": 2127, "pitch": 73, "duration": 18, "velocity": 87}, {"time": 2145, "pitch": 75, "duration": 9, "velocity": 103}, {"time": 2154, "pitch": 73, "duration": 9, "velocity": 101}, {"time": 2163, "pitch": 75, "duration": 6, "velocity": 93}, {"time": 2169, "pitch": 73, "duration": 18, "velocity": 90}, {"time": 2187, "pitch": 71, "duration": 66, "velocity": 99}, {"time": 2253, "pitch": 63, "duration": 6, "velocity": 56}, {"time": 2259, "pitch": 64, "duration": 6, "velocity": 77}, {"time": 2265, "pitch": 66, "duration": 18, "velocity": 94}, {"time": 2283, "pitch": 66, "duration": 6, "velocity": 91}, {"time": 2289, "pitch": 66, "duration": 9, "velocity": 77}, {"time": 2298, "pitch": 71, "duration": 9, "velocity": 84}, {"time": 2307, "pitch": 73, "duration": 6, "velocity": 79}, {"time": 2313, "pitch": 71, "duration": 45, "velocity": 97}, {"time": 2361, "pitch": 70, "duration": 6, "velocity": 105}, {"time": 2370, "pitch": 70, "duration": 6, "velocity": 94}, {"time": 2379, "pitch": 70, "duration": 6, "velocity": 98}, {"time": 2385, "pitch": 70, "duration": 9, "velocity": 99}, {"time": 2394, "pitch": 68, "duration": 9, "velocity": 97}, {"time": 2403, "pitch": 66, "duration": 9, "velocity": 91}, {"time": 2412, "pitch": 68, "duration": 45, "velocity": 91}, {"time": 2457, "pitch": 64, "duration": 6, "velocity": 90}, {"time": 2463, "pitch": 64, "duration": 24, "velocity": 87}, {"time": 2487, "pitch": 64, "duration": 6, "velocity": 91}, {"time": 2493, "pitch": 66, "duration": 6, "velocity": 92}, {"time": 2499, "pitch": 68, "duration": 6, "velocity": 87}, {"time": 2505, "pitch": 66, "duration": 12, "velocity": 96}, {"time": 2517, "pitch": 63, "duration": 6, "velocity": 86}, {"time": 2523, "pitch": 59, "duration": 18, "velocity": 84}, {"time": 2541, "pitch": 61, "duration": 6, "velocity": 95}, {"time": 2547, "pitch": 63, "duration": 6, "velocity": 93}, {"time": 2553, "pitch": 64, "duration": 18, "velocity": 94}, {"time": 2571, "pitch": 64, "duration": 6, "velocity": 90}, {"time": 2577, "pitch": 68, "duration": 9, "velocity": 91}, {"time": 2586, "pitch": 71, "duration": 9, "velocity": 89}, {"time": 2595, "pitch": 63, "duration": 9, "velocity": 84}, {"time": 2604, "pitch": 61, "duration": 36, "velocity": 63}, {"time": 2640, "pitch": 63, "duration": 3, "velocity": 96}, {"time": 2643, "pitch": 64, "duration": 6, "velocity": 83}, {"time": 2649, "pitch": 66, "duration": 9, "velocity": 97}, {"time": 2658, "pitch": 66, "duration": 15, "velocity": 98}, {"time": 2673, "pitch": 66, "duration": 9, "velocity": 103}, {"time": 2682, "pitch": 71, "duration": 9, "velocity": 100}, {"time": 2691, "pitch": 73, "duration": 6, "velocity": 94}, {"time": 2697, "pitch": 71, "duration": 36, "velocity": 103}, {"time": 2733, "pitch": 71, "duration": 6, "velocity": 97}, {"time": 2739, "pitch": 73, "duration": 6, "velocity": 87}, {"time": 2745, "pitch": 75, "duration": 18, "velocity": 94}, {"time": 2763, "pitch": 70, "duration": 6, "velocity": 83}, {"time": 2769, "pitch": 70, "duration": 9, "velocity": 89}, {"time": 2778, "pitch": 73, "duration": 9, "velocity": 87}, {"time": 2787, "pitch": 71, "duration": 12, "velocity": 96}, {"time": 2799, "pitch": 68, "duration": 30, "velocity": 88}, {"time": 2829, "pitch": 68, "duration": 6, "velocity": 90}, {"time": 2835, "pitch": 70, "duration": 6, "velocity": 86}, {"time": 2841, "pitch": 71, "duration": 30, "velocity": 95}, {"time": 2871, "pitch": 71, "duration": 6, "velocity": 98}, {"time": 2877, "pitch": 70, "duration": 6, "velocity": 87}, {"time": 2883, "pitch": 68, "duration": 6, "velocity": 67}, {"time": 2889, "pitch": 66, "duration": 12, "velocity": 86}, {"time": 2901, "pitch": 70, "duration": 6, "velocity": 92}, {"time": 2907, "pitch": 71, "duration": 18, "velocity": 92}, {"time": 2925, "pitch": 68, "duration": 6, "velocity": 98}, {"time": 2931, "pitch": 70, "duration": 6, "velocity": 87}, {"time": 2937, "pitch": 71, "duration": 6, "velocity": 74}, {"time": 2943, "pitch": 71, "duration": 6, "velocity": 90}, {"time": 2949, "pitch": 71, "duration": 6, "velocity": 96}, {"time": 2955, "pitch": 71, "duration": 6, "velocity": 93}, {"time": 2961, "pitch": 75, "duration": 9, "velocity": 96}, {"time": 2970, "pitch": 78, "duration": 12, "velocity": 87}, {"time": 2979, "pitch": 71, "duration": 6, "velocity": 82}, {"time": 2985, "pitch": 73, "duration": 21, "velocity": 85}, {"time": 3009, "pitch": 75, "duration": 9, "velocity": 101}, {"time": 3018, "pitch": 73, "duration": 9, "velocity": 90}, {"time": 3027, "pitch": 71, "duration": 6, "velocity": 86}, {"time": 3033, "pitch": 75, "duration": 18, "velocity": 97}, {"time": 3051, "pitch": 75, "duration": 6, "velocity": 108}, {"time": 3057, "pitch": 78, "duration": 9, "velocity": 91}, {"time": 3066, "pitch": 75, "duration": 9, "velocity": 99}, {"time": 3075, "pitch": 73, "duration": 6, "velocity": 91}, {"time": 3081, "pitch": 75, "duration": 24, "velocity": 105}, {"time": 3105, "pitch": 75, "duration": 6, "velocity": 93}, {"time": 3111, "pitch": 78, "duration": 9, "velocity": 93}, {"time": 3120, "pitch": 75, "duration": 9, "velocity": 84}, {"time": 3129, "pitch": 80, "duration": 9, "velocity": 103}, {"time": 3138, "pitch": 80, "duration": 9, "velocity": 98}, {"time": 3147, "pitch": 80, "duration": 6, "velocity": 97}, {"time": 3153, "pitch": 78, "duration": 9, "velocity": 106}, {"time": 3162, "pitch": 75, "duration": 9, "velocity": 94}, {"time": 3171, "pitch": 73, "duration": 6, "velocity": 94}, {"time": 3177, "pitch": 75, "duration": 18, "velocity": 103}, {"time": 3195, "pitch": 68, "duration": 6, "velocity": 84}, {"time": 3201, "pitch": 75, "duration": 9, "velocity": 95}, {"time": 3210, "pitch": 73, "duration": 9, "velocity": 93}, {"time": 3219, "pitch": 75, "duration": 6, "velocity": 98}, {"time": 3225, "pitch": 68, "duration": 18, "velocity": 89}, {"time": 3243, "pitch": 68, "duration": 6, "velocity": 72}, {"time": 3249, "pitch": 75, "duration": 9, "velocity": 98}, {"time": 3258, "pitch": 73, "duration": 9, "velocity": 90}, {"time": 3267, "pitch": 75, "duration": 6, "velocity": 93}, {"time": 3273, "pitch": 66, "duration": 24, "velocity": 84}, {"time": 3297, "pitch": 75, "duration": 9, "velocity": 101}, {"time": 3306, "pitch": 73, "duration": 6, "velocity": 97}, {"time": 3312, "pitch": 71, "duration": 9, "velocity": 96}, {"time": 3321, "pitch": 76, "duration": 9, "velocity": 77}, {"time": 3330, "pitch": 76, "duration": 9, "velocity": 99}, {"time": 3339, "pitch": 76, "duration": 6, "velocity": 95}, {"time": 3345, "pitch": 76, "duration": 12, "velocity": 96}, {"time": 3357, "pitch": 78, "duration": 6, "velocity": 97}, {"time": 3363, "pitch": 75, "duration": 9, "velocity": 94}, {"time": 3372, "pitch": 75, "duration": 9, "velocity": 89}, {"time": 3378, "pitch": 73, "duration": 18, "velocity": 89}, {"time": 3393, "pitch": 75, "duration": 6, "velocity": 101}, {"time": 3402, "pitch": 73, "duration": 9, "velocity": 99}, {"time": 3411, "pitch": 71, "duration": 6, "velocity": 96}, {"time": 3417, "pitch": 75, "duration": 24, "velocity": 103}, {"time": 3441, "pitch": 78, "duration": 9, "velocity": 92}, {"time": 3450, "pitch": 78, "duration": 9, "velocity": 100}, {"time": 3459, "pitch": 80, "duration": 9, "velocity": 92}, {"time": 3468, "pitch": 75, "duration": 21, "velocity": 99}, {"time": 3489, "pitch": 75, "duration": 9, "velocity": 94}, {"time": 3498, "pitch": 78, "duration": 9, "velocity": 96}, {"time": 3507, "pitch": 75, "duration": 6, "velocity": 87}, {"time": 3513, "pitch": 80, "duration": 9, "velocity": 105}, {"time": 3522, "pitch": 80, "duration": 9, "velocity": 97}, {"time": 3531, "pitch": 80, "duration": 6, "velocity": 98}, {"time": 3537, "pitch": 78, "duration": 9, "velocity": 96}, {"time": 3546, "pitch": 75, "duration": 9, "velocity": 93}, {"time": 3555, "pitch": 73, "duration": 6, "velocity": 90}, {"time": 3561, "pitch": 75, "duration": 24, "velocity": 100}, {"time": 3585, "pitch": 75, "duration": 6, "velocity": 106}, {"time": 3594, "pitch": 73, "duration": 6, "velocity": 101}, {"time": 3603, "pitch": 71, "duration": 6, "velocity": 97}, {"time": 3609, "pitch": 68, "duration": 24, "velocity": 94}, {"time": 3633, "pitch": 75, "duration": 9, "velocity": 105}, {"time": 3642, "pitch": 73, "duration": 9, "velocity": 97}, {"time": 3651, "pitch": 75, "duration": 6, "velocity": 94}, {"time": 3657, "pitch": 66, "duration": 24, "velocity": 91}, {"time": 3681, "pitch": 75, "duration": 9, "velocity": 101}, {"time": 3690, "pitch": 73, "duration": 9, "velocity": 91}, {"time": 3699, "pitch": 71, "duration": 6, "velocity": 89}, {"time": 3705, "pitch": 76, "duration": 9, "velocity": 98}, {"time": 3714, "pitch": 76, "duration": 9, "velocity": 96}, {"time": 3723, "pitch": 76, "duration": 6, "velocity": 96}, {"time": 3729, "pitch": 78, "duration": 9, "velocity": 99}, {"time": 3738, "pitch": 75, "duration": 9, "velocity": 95}, {"time": 3747, "pitch": 75, "duration": 12, "velocity": 101}, {"time": 3759, "pitch": 73, "duration": 18, "velocity": 87}, {"time": 3777, "pitch": 75, "duration": 9, "velocity": 103}, {"time": 3786, "pitch": 73, "duration": 9, "velocity": 101}, {"time": 3795, "pitch": 75, "duration": 6, "velocity": 93}, {"time": 3801, "pitch": 73, "duration": 21, "velocity": 90}, {"time": 3822, "pitch": 71, "duration": 51, "velocity": 99}, {"time": 4641, "pitch": 75, "duration": 9, "velocity": 101}, {"time": 4650, "pitch": 73, "duration": 9, "velocity": 90}, {"time": 4659, "pitch": 71, "duration": 6, "velocity": 86}, {"time": 4665, "pitch": 75, "duration": 18, "velocity": 97}, {"time": 4683, "pitch": 75, "duration": 6, "velocity": 108}, {"time": 4689, "pitch": 78, "duration": 9, "velocity": 91}, {"time": 4698, "pitch": 75, "duration": 9, "velocity": 99}, {"time": 4707, "pitch": 73, "duration": 6, "velocity": 91}, {"time": 4713, "pitch": 75, "duration": 21, "velocity": 105}, {"time": 4737, "pitch": 75, "duration": 9, "velocity": 93}, {"time": 4746, "pitch": 78, "duration": 9, "velocity": 93}, {"time": 4755, "pitch": 75, "duration": 6, "velocity": 84}, {"time": 4761, "pitch": 80, "duration": 9, "velocity": 103}, {"time": 4770, "pitch": 80, "duration": 9, "velocity": 98}, {"time": 4779, "pitch": 80, "duration": 6, "velocity": 97}, {"time": 4785, "pitch": 78, "duration": 9, "velocity": 106}, {"time": 4794, "pitch": 75, "duration": 6, "velocity": 94}, {"time": 4803, "pitch": 73, "duration": 6, "velocity": 94}, {"time": 4809, "pitch": 75, "duration": 15, "velocity": 103}, {"time": 4827, "pitch": 68, "duration": 6, "velocity": 84}, {"time": 4833, "pitch": 75, "duration": 9, "velocity": 95}, {"time": 4842, "pitch": 73, "duration": 6, "velocity": 93}, {"time": 4851, "pitch": 75, "duration": 6, "velocity": 98}, {"time": 4857, "pitch": 68, "duration": 18, "velocity": 89}, {"time": 4875, "pitch": 68, "duration": 6, "velocity": 72}, {"time": 4881, "pitch": 75, "duration": 9, "velocity": 98}, {"time": 4890, "pitch": 73, "duration": 9, "velocity": 90}, {"time": 4899, "pitch": 75, "duration": 6, "velocity": 93}, {"time": 4905, "pitch": 66, "duration": 24, "velocity": 84}, {"time": 4929, "pitch": 75, "duration": 9, "velocity": 101}, {"time": 4938, "pitch": 73, "duration": 6, "velocity": 97}, {"time": 4947, "pitch": 71, "duration": 6, "velocity": 96}, {"time": 4953, "pitch": 76, "duration": 9, "velocity": 77}, {"time": 4962, "pitch": 76, "duration": 9, "velocity": 99}, {"time": 4971, "pitch": 76, "duration": 6, "velocity": 95}, {"time": 4977, "pitch": 76, "duration": 9, "velocity": 96}, {"time": 4986, "pitch": 78, "duration": 6, "velocity": 97}, {"time": 4995, "pitch": 75, "duration": 6, "velocity": 94}, {"time": 5001, "pitch": 75, "duration": 6, "velocity": 89}, {"time": 5007, "pitch": 73, "duration": 21, "velocity": 89}, {"time": 5025, "pitch": 75, "duration": 9, "velocity": 101}, {"time": 5034, "pitch": 73, "duration": 9, "velocity": 99}, {"time": 5043, "pitch": 71, "duration": 6, "velocity": 96}, {"time": 5049, "pitch": 75, "duration": 24, "velocity": 103}, {"time": 5073, "pitch": 78, "duration": 9, "velocity": 92}, {"time": 5082, "pitch": 78, "duration": 9, "velocity": 100}, {"time": 5091, "pitch": 80, "duration": 6, "velocity": 92}, {"time": 5097, "pitch": 75, "duration": 24, "velocity": 99}, {"time": 5121, "pitch": 75, "duration": 9, "velocity": 94}, {"time": 5130, "pitch": 78, "duration": 9, "velocity": 96}, {"time": 5139, "pitch": 75, "duration": 6, "velocity": 87}, {"time": 5145, "pitch": 80, "duration": 9, "velocity": 105}, {"time": 5154, "pitch": 80, "duration": 9, "velocity": 97}, {"time": 5163, "pitch": 80, "duration": 6, "velocity": 98}, {"time": 5169, "pitch": 78, "duration": 9, "velocity": 96}, {"time": 5178, "pitch": 75, "duration": 9, "velocity": 93}, {"time": 5187, "pitch": 73, "duration": 6, "velocity": 90}, {"time": 5193, "pitch": 75, "duration": 24, "velocity": 100}, {"time": 5217, "pitch": 75, "duration": 6, "velocity": 106}, {"time": 5226, "pitch": 73, "duration": 6, "velocity": 101}, {"time": 5235, "pitch": 75, "duration": 6, "velocity": 97}, {"time": 5241, "pitch": 68, "duration": 24, "velocity": 94}, {"time": 5265, "pitch": 75, "duration": 6, "velocity": 105}, {"time": 5274, "pitch": 73, "duration": 9, "velocity": 97}, {"time": 5283, "pitch": 75, "duration": 9, "velocity": 94}, {"time": 5289, "pitch": 66, "duration": 24, "velocity": 91}, {"time": 5313, "pitch": 75, "duration": 9, "velocity": 101}, {"time": 5322, "pitch": 73, "duration": 9, "velocity": 91}, {"time": 5331, "pitch": 71, "duration": 6, "velocity": 89}, {"time": 5337, "pitch": 76, "duration": 9, "velocity": 98}, {"time": 5346, "pitch": 76, "duration": 9, "velocity": 96}, {"time": 5355, "pitch": 76, "duration": 6, "velocity": 96}, {"time": 5361, "pitch": 78, "duration": 12, "velocity": 99}, {"time": 5373, "pitch": 75, "duration": 9, "velocity": 95}, {"time": 5382, "pitch": 75, "duration": 9, "velocity": 101}, {"time": 5391, "pitch": 73, "duration": 18, "velocity": 87}, {"time": 5409, "pitch": 75, "duration": 9, "velocity": 103}, {"time": 5418, "pitch": 73, "duration": 9, "velocity": 101}, {"time": 5427, "pitch": 75, "duration": 9, "velocity": 93}, {"time": 5433, "pitch": 73, "duration": 18, "velocity": 90}, {"time": 5451, "pitch": 71, "duration": 76, "velocity": 99}], "annotations": [{"time": 657, "annotation": {"number": 64, "value": 127}, "group": "control_change"}, {"time": 661, "annotation": {"number": 64, "value": 0}, "group": "control_change"}, {"time": 994, "annotation": {"number": 64, "value": 127}, "group": "control_change"}, {"time": 998, "annotation": {"number": 64, "value": 0}, "group": "control_change"}, {"time": 1379, "annotation": {"number": 64, "value": 127}, "group": "control_change"}, {"time": 1382, "annotation": {"number": 64, "value": 0}, "group": "control_change"}, {"time": 2289, "annotation": {"number": 64, "value": 127}, "group": "control_change"}, {"time": 2294, "annotation": {"number": 64, "value": 0}, "group": "control_change"}, {"time": 2627, "annotation": {"number": 64, "value": 127}, "group": "control_change"}, {"time": 2630, "annotation": {"number": 64, "value": 0}, "group": "control_change"}, {"time": 3011, "annotation": {"number": 64, "value": 127}, "group": "control_change"}, {"time": 3015, "annotation": {"number": 64, "value": 0}, "group": "control_change"}, {"time": 4643, "annotation": {"number": 64, "value": 127}, "group": "control_change"}, {"time": 4647, "annotation": {"number": 64, "value": 0}, "group": "control_change"}]}, {"program": 0, "is_drum": false, "name": "BRIDGE", "notes": [{"time": 27, "pitch": 92, "duration": 18, "velocity": 62}, {"time": 45, "pitch": 91, "duration": 12, "velocity": 70}, {"time": 57, "pitch": 90, "duration": 39, "velocity": 79}, {"time": 333, "pitch": 95, "duration": 24, "velocity": 70}, {"time": 357, "pitch": 94, "duration": 48, "velocity": 83}, {"time": 2421, "pitch": 71, "duration": 11, "velocity": 59}, {"time": 2433, "pitch": 70, "duration": 10, "velocity": 47}, {"time": 2445, "pitch": 66, "duration": 12, "velocity": 59}, {"time": 2457, "pitch": 68, "duration": 49, "velocity": 72}, {"time": 2505, "pitch": 66, "duration": 45, "velocity": 60}, {"time": 2553, "pitch": 64, "duration": 20, "velocity": 61}, {"time": 2553, "pitch": 68, "duration": 20, "velocity": 59}, {"time": 2613, "pitch": 61, "duration": 6, "velocity": 69}, {"time": 2613, "pitch": 73, "duration": 7, "velocity": 78}, {"time": 2625, "pitch": 63, "duration": 2, "velocity": 62}, {"time": 2625, "pitch": 75, "duration": 3, "velocity": 60}, {"time": 2637, "pitch": 64, "duration": 2, "velocity": 56}, {"time": 2637, "pitch": 76, "duration": 3, "velocity": 70}, {"time": 2649, "pitch": 66, "duration": 11, "velocity": 61}, {"time": 2649, "pitch": 78, "duration": 12, "velocity": 69}, {"time": 2709, "pitch": 59, "duration": 13, "velocity": 57}, {"time": 2721, "pitch": 61, "duration": 13, "velocity": 70}, {"time": 2733, "pitch": 63, "duration": 14, "velocity": 75}, {"time": 2745, "pitch": 66, "duration": 28, "velocity": 75}, {"time": 2793, "pitch": 68, "duration": 15, "velocity": 59}, {"time": 2805, "pitch": 63, "duration": 12, "velocity": 64}, {"time": 2817, "pitch": 61, "duration": 12, "velocity": 59}, {"time": 2829, "pitch": 63, "duration": 12, "velocity": 69}, {"time": 2841, "pitch": 59, "duration": 47, "velocity": 62}, {"time": 3033, "pitch": 87, "duration": 50, "velocity": 127}, {"time": 3081, "pitch": 90, "duration": 47, "velocity": 127}, {"time": 3129, "pitch": 92, "duration": 48, "velocity": 127}, {"time": 3177, "pitch": 90, "duration": 39, "velocity": 127}, {"time": 3225, "pitch": 87, "duration": 50, "velocity": 127}, {"time": 3273, "pitch": 85, "duration": 42, "velocity": 125}, {"time": 3321, "pitch": 80, "duration": 24, "velocity": 127}, {"time": 3345, "pitch": 83, "duration": 24, "velocity": 100}, {"time": 3369, "pitch": 82, "duration": 36, "velocity": 100}, {"time": 3405, "pitch": 83, "duration": 7, "velocity": 127}, {"time": 3411, "pitch": 85, "duration": 6, "velocity": 127}, {"time": 3417, "pitch": 87, "duration": 49, "velocity": 127}, {"time": 3465, "pitch": 90, "duration": 47, "velocity": 127}, {"time": 3513, "pitch": 92, "duration": 50, "velocity": 127}, {"time": 3561, "pitch": 90, "duration": 30, "velocity": 127}, {"time": 3585, "pitch": 87, "duration": 12, "velocity": 127}, {"time": 3597, "pitch": 85, "duration": 6, "velocity": 127}, {"time": 3609, "pitch": 83, "duration": 45, "velocity": 127}, {"time": 3657, "pitch": 85, "duration": 27, "velocity": 127}, {"time": 3687, "pitch": 87, "duration": 10, "velocity": 127}, {"time": 3696, "pitch": 85, "duration": 8, "velocity": 114}, {"time": 3705, "pitch": 83, "duration": 33, "velocity": 127}, {"time": 3753, "pitch": 82, "duration": 30, "velocity": 110}, {"time": 3783, "pitch": 85, "duration": 20, "velocity": 122}, {"time": 3801, "pitch": 83, "duration": 35, "velocity": 120}, {"time": 3873, "pitch": 66, "duration": 8, "velocity": 82}, {"time": 3882, "pitch": 71, "duration": 9, "velocity": 73}, {"time": 3891, "pitch": 73, "duration": 7, "velocity": 70}, {"time": 3897, "pitch": 75, "duration": 52, "velocity": 93}, {"time": 3945, "pitch": 75, "duration": 4, "velocity": 61}, {"time": 3963, "pitch": 75, "duration": 7, "velocity": 60}, {"time": 3969, "pitch": 76, "duration": 10, "velocity": 70}, {"time": 3978, "pitch": 75, "duration": 9, "velocity": 67}, {"time": 3987, "pitch": 73, "duration": 6, "velocity": 60}, {"time": 3993, "pitch": 70, "duration": 36, "velocity": 62}, {"time": 4029, "pitch": 67, "duration": 4, "velocity": 69}, {"time": 4035, "pitch": 67, "duration": 24, "velocity": 76}, {"time": 4059, "pitch": 63, "duration": 9, "velocity": 59}, {"time": 4093, "pitch": 68, "duration": 8, "velocity": 69}, {"time": 4100, "pitch": 71, "duration": 6, "velocity": 75}, {"time": 4107, "pitch": 71, "duration": 27, "velocity": 75}, {"time": 4137, "pitch": 68, "duration": 9, "velocity": 73}, {"time": 4146, "pitch": 71, "duration": 9, "velocity": 63}, {"time": 4155, "pitch": 75, "duration": 7, "velocity": 66}, {"time": 4161, "pitch": 80, "duration": 9, "velocity": 69}, {"time": 4170, "pitch": 78, "duration": 8, "velocity": 72}, {"time": 4179, "pitch": 73, "duration": 6, "velocity": 52}, {"time": 4185, "pitch": 75, "duration": 29, "velocity": 49}, {"time": 4215, "pitch": 78, "duration": 6, "velocity": 73}, {"time": 4221, "pitch": 73, "duration": 2, "velocity": 58}, {"time": 4223, "pitch": 75, "duration": 3, "velocity": 69}, {"time": 4226, "pitch": 73, "duration": 3, "velocity": 62}, {"time": 4229, "pitch": 71, "duration": 3, "velocity": 59}, {"time": 4233, "pitch": 73, "duration": 49, "velocity": 66}, {"time": 4281, "pitch": 69, "duration": 30, "velocity": 75}, {"time": 4311, "pitch": 64, "duration": 6, "velocity": 76}, {"time": 4317, "pitch": 66, "duration": 6, "velocity": 76}, {"time": 4323, "pitch": 69, "duration": 18, "velocity": 73}, {"time": 4341, "pitch": 64, "duration": 6, "velocity": 62}, {"time": 4347, "pitch": 66, "duration": 6, "velocity": 76}, {"time": 4353, "pitch": 69, "duration": 12, "velocity": 66}, {"time": 4365, "pitch": 64, "duration": 6, "velocity": 69}, {"time": 4371, "pitch": 66, "duration": 6, "velocity": 62}, {"time": 4377, "pitch": 71, "duration": 6, "velocity": 72}, {"time": 4383, "pitch": 75, "duration": 24, "velocity": 78}, {"time": 4407, "pitch": 78, "duration": 6, "velocity": 78}, {"time": 4413, "pitch": 75, "duration": 3, "velocity": 78}, {"time": 4416, "pitch": 73, "duration": 3, "velocity": 78}, {"time": 4419, "pitch": 71, "duration": 3, "velocity": 78}, {"time": 4422, "pitch": 68, "duration": 3, "velocity": 78}, {"time": 4425, "pitch": 71, "duration": 24, "velocity": 78}, {"time": 4449, "pitch": 78, "duration": 6, "velocity": 78}, {"time": 4455, "pitch": 80, "duration": 12, "velocity": 78}, {"time": 4467, "pitch": 83, "duration": 6, "velocity": 78}, {"time": 4473, "pitch": 87, "duration": 6, "velocity": 78}, {"time": 4479, "pitch": 85, "duration": 42, "velocity": 78}, {"time": 4521, "pitch": 75, "duration": 12, "velocity": 78}, {"time": 4533, "pitch": 75, "duration": 12, "velocity": 78}, {"time": 4545, "pitch": 75, "duration": 18, "velocity": 78}, {"time": 4563, "pitch": 78, "duration": 6, "velocity": 78}, {"time": 4569, "pitch": 75, "duration": 12, "velocity": 78}, {"time": 4581, "pitch": 73, "duration": 36, "velocity": 78}, {"time": 4617, "pitch": 78, "duration": 48, "velocity": 78}, {"time": 4665, "pitch": 87, "duration": 50, "velocity": 127}, {"time": 4713, "pitch": 90, "duration": 47, "velocity": 127}, {"time": 4761, "pitch": 92, "duration": 48, "velocity": 127}, {"time": 4809, "pitch": 90, "duration": 39, "velocity": 127}, {"time": 4857, "pitch": 87, "duration": 50, "velocity": 127}, {"time": 4905, "pitch": 85, "duration": 42, "velocity": 125}, {"time": 4953, "pitch": 80, "duration": 24, "velocity": 127}, {"time": 4977, "pitch": 83, "duration": 24, "velocity": 100}, {"time": 5001, "pitch": 82, "duration": 36, "velocity": 100}, {"time": 5037, "pitch": 83, "duration": 7, "velocity": 127}, {"time": 5043, "pitch": 85, "duration": 6, "velocity": 127}, {"time": 5049, "pitch": 87, "duration": 49, "velocity": 127}, {"time": 5097, "pitch": 90, "duration": 47, "velocity": 127}, {"time": 5145, "pitch": 92, "duration": 50, "velocity": 127}, {"time": 5193, "pitch": 90, "duration": 30, "velocity": 127}, {"time": 5217, "pitch": 87, "duration": 12, "velocity": 127}, {"time": 5229, "pitch": 85, "duration": 6, "velocity": 127}, {"time": 5241, "pitch": 83, "duration": 45, "velocity": 127}, {"time": 5289, "pitch": 85, "duration": 27, "velocity": 127}, {"time": 5319, "pitch": 87, "duration": 10, "velocity": 127}, {"time": 5328, "pitch": 85, "duration": 8, "velocity": 114}, {"time": 5337, "pitch": 83, "duration": 33, "velocity": 127}, {"time": 5385, "pitch": 82, "duration": 30, "velocity": 110}, {"time": 5415, "pitch": 85, "duration": 20, "velocity": 122}, {"time": 5433, "pitch": 83, "duration": 35, "velocity": 120}, {"time": 5499, "pitch": 92, "duration": 18, "velocity": 62}, {"time": 5517, "pitch": 91, "duration": 12, "velocity": 70}, {"time": 5529, "pitch": 90, "duration": 39, "velocity": 79}, {"time": 5805, "pitch": 95, "duration": 24, "velocity": 70}, {"time": 5829, "pitch": 94, "duration": 47, "velocity": 83}], "annotations": [{"time": 2616, "annotation": {"number": 64, "value": 127}, "group": "control_change"}, {"time": 2700, "annotation": {"number": 64, "value": 0}, "group": "control_change"}, {"time": 2710, "annotation": {"number": 64, "value": 127}, "group": "control_change"}, {"time": 2793, "annotation": {"number": 64, "value": 0}, "group": "control_change"}, {"time": 2802, "annotation": {"number": 64, "value": 127}, "group": "control_change"}, {"time": 2824, "annotation": {"number": 64, "value": 0}, "group": "control_change"}]}, {"program": 0, "is_drum": false, "name": "PIANO", "notes": [{"time": 57, "pitch": 47, "duration": 9, "velocity": 57}, {"time": 57, "pitch": 71, "duration": 4, "velocity": 57}, {"time": 63, "pitch": 54, "duration": 6, "velocity": 49}, {"time": 63, "pitch": 70, "duration": 4, "velocity": 45}, {"time": 69, "pitch": 59, "duration": 8, "velocity": 47}, {"time": 69, "pitch": 71, "duration": 5, "velocity": 50}, {"time": 75, "pitch": 61, "duration": 69, "velocity": 57}, {"time": 75, "pitch": 78, "duration": 7, "velocity": 64}, {"time": 81, "pitch": 63, "duration": 36, "velocity": 56}, {"time": 87, "pitch": 70, "duration": 3, "velocity": 42}, {"time": 93, "pitch": 71, "duration": 4, "velocity": 45}, {"time": 99, "pitch": 78, "duration": 6, "velocity": 61}, {"time": 111, "pitch": 70, "duration": 5, "velocity": 44}, {"time": 117, "pitch": 71, "duration": 6, "velocity": 40}, {"time": 123, "pitch": 78, "duration": 2, "velocity": 72}, {"time": 135, "pitch": 87, "duration": 2, "velocity": 70}, {"time": 153, "pitch": 44, "duration": 9, "velocity": 64}, {"time": 153, "pitch": 71, "duration": 4, "velocity": 55}, {"time": 159, "pitch": 70, "duration": 4, "velocity": 53}, {"time": 165, "pitch": 51, "duration": 5, "velocity": 51}, {"time": 165, "pitch": 71, "duration": 4, "velocity": 56}, {"time": 171, "pitch": 56, "duration": 7, "velocity": 45}, {"time": 171, "pitch": 78, "duration": 8, "velocity": 70}, {"time": 177, "pitch": 58, "duration": 61, "velocity": 64}, {"time": 183, "pitch": 70, "duration": 3, "velocity": 39}, {"time": 189, "pitch": 71, "duration": 4, "velocity": 49}, {"time": 195, "pitch": 78, "duration": 7, "velocity": 64}, {"time": 201, "pitch": 59, "duration": 36, "velocity": 39}, {"time": 207, "pitch": 70, "duration": 4, "velocity": 36}, {"time": 213, "pitch": 71, "duration": 6, "velocity": 29}, {"time": 219, "pitch": 78, "duration": 2, "velocity": 73}, {"time": 225, "pitch": 61, "duration": 10, "velocity": 38}, {"time": 231, "pitch": 90, "duration": 5, "velocity": 48}, {"time": 237, "pitch": 87, "duration": 2, "velocity": 70}, {"time": 249, "pitch": 52, "duration": 16, "velocity": 67}, {"time": 255, "pitch": 59, "duration": 44, "velocity": 41}, {"time": 255, "pitch": 71, "duration": 4, "velocity": 49}, {"time": 261, "pitch": 75, "duration": 7, "velocity": 56}, {"time": 267, "pitch": 76, "duration": 6, "velocity": 70}, {"time": 273, "pitch": 64, "duration": 13, "velocity": 39}, {"time": 279, "pitch": 80, "duration": 4, "velocity": 49}, {"time": 285, "pitch": 75, "duration": 4, "velocity": 49}, {"time": 291, "pitch": 76, "duration": 8, "velocity": 66}, {"time": 297, "pitch": 52, "duration": 35, "velocity": 47}, {"time": 303, "pitch": 59, "duration": 31, "velocity": 45}, {"time": 303, "pitch": 71, "duration": 3, "velocity": 46}, {"time": 309, "pitch": 73, "duration": 4, "velocity": 49}, {"time": 315, "pitch": 76, "duration": 3, "velocity": 62}, {"time": 318, "pitch": 75, "duration": 8, "velocity": 35}, {"time": 327, "pitch": 75, "duration": 5, "velocity": 62}, {"time": 327, "pitch": 92, "duration": 4, "velocity": 49}, {"time": 333, "pitch": 73, "duration": 3, "velocity": 56}, {"time": 333, "pitch": 88, "duration": 4, "velocity": 49}, {"time": 345, "pitch": 42, "duration": 10, "velocity": 57}, {"time": 351, "pitch": 49, "duration": 6, "velocity": 44}, {"time": 351, "pitch": 66, "duration": 4, "velocity": 49}, {"time": 357, "pitch": 54, "duration": 7, "velocity": 42}, {"time": 357, "pitch": 71, "duration": 4, "velocity": 49}, {"time": 363, "pitch": 56, "duration": 44, "velocity": 64}, {"time": 363, "pitch": 73, "duration": 4, "velocity": 49}, {"time": 369, "pitch": 58, "duration": 29, "velocity": 58}, {"time": 375, "pitch": 66, "duration": 4, "velocity": 51}, {"time": 381, "pitch": 71, "duration": 4, "velocity": 48}, {"time": 387, "pitch": 73, "duration": 6, "velocity": 58}, {"time": 393, "pitch": 76, "duration": 4, "velocity": 49}, {"time": 399, "pitch": 68, "duration": 3, "velocity": 49}, {"time": 405, "pitch": 73, "duration": 3, "velocity": 49}, {"time": 411, "pitch": 70, "duration": 3, "velocity": 49}, {"time": 417, "pitch": 66, "duration": 3, "velocity": 49}, {"time": 423, "pitch": 64, "duration": 3, "velocity": 49}, {"time": 429, "pitch": 61, "duration": 3, "velocity": 49}, {"time": 435, "pitch": 58, "duration": 3, "velocity": 49}, {"time": 441, "pitch": 54, "duration": 3, "velocity": 49}, {"time": 447, "pitch": 52, "duration": 3, "velocity": 49}, {"time": 453, "pitch": 49, "duration": 3, "velocity": 49}, {"time": 459, "pitch": 46, "duration": 3, "velocity": 49}, {"time": 465, "pitch": 42, "duration": 3, "velocity": 49}, {"time": 477, "pitch": 37, "duration": 3, "velocity": 49}, {"time": 498, "pitch": 30, "duration": 3, "velocity": 49}, {"time": 597, "pitch": 64, "duration": 4, "velocity": 72}, {"time": 603, "pitch": 66, "duration": 4, "velocity": 61}, {"time": 609, "pitch": 61, "duration": 11, "velocity": 62}, {"time": 633, "pitch": 47, "duration": 85, "velocity": 70}, {"time": 633, "pitch": 63, "duration": 12, "velocity": 63}, {"time": 633, "pitch": 66, "duration": 12, "velocity": 70}, {"time": 633, "pitch": 71, "duration": 12, "velocity": 73}, {"time": 639, "pitch": 54, "duration": 79, "velocity": 44}, {"time": 645, "pitch": 59, "duration": 22, "velocity": 50}, {"time": 657, "pitch": 63, "duration": 14, "velocity": 60}, {"time": 657, "pitch": 66, "duration": 13, "velocity": 64}, {"time": 657, "pitch": 71, "duration": 14, "velocity": 59}, {"time": 672, "pitch": 59, "duration": 19, "velocity": 26}, {"time": 681, "pitch": 63, "duration": 15, "velocity": 66}, {"time": 681, "pitch": 66, "duration": 13, "velocity": 70}, {"time": 681, "pitch": 71, "duration": 14, "velocity": 66}, {"time": 693, "pitch": 59, "duration": 15, "velocity": 33}, {"time": 705, "pitch": 63, "duration": 13, "velocity": 64}, {"time": 705, "pitch": 66, "duration": 11, "velocity": 69}, {"time": 705, "pitch": 71, "duration": 14, "velocity": 66}, {"time": 717, "pitch": 59, "duration": 3, "velocity": 41}, {"time": 729, "pitch": 51, "duration": 39, "velocity": 62}, {"time": 729, "pitch": 58, "duration": 32, "velocity": 69}, {"time": 729, "pitch": 61, "duration": 15, "velocity": 63}, {"time": 729, "pitch": 66, "duration": 15, "velocity": 63}, {"time": 729, "pitch": 70, "duration": 12, "velocity": 63}, {"time": 753, "pitch": 61, "duration": 13, "velocity": 61}, {"time": 753, "pitch": 66, "duration": 11, "velocity": 63}, {"time": 753, "pitch": 70, "duration": 11, "velocity": 61}, {"time": 765, "pitch": 58, "duration": 2, "velocity": 47}, {"time": 777, "pitch": 44, "duration": 37, "velocity": 66}, {"time": 777, "pitch": 63, "duration": 14, "velocity": 62}, {"time": 777, "pitch": 66, "duration": 13, "velocity": 67}, {"time": 777, "pitch": 71, "duration": 16, "velocity": 67}, {"time": 792, "pitch": 56, "duration": 14, "velocity": 30}, {"time": 801, "pitch": 63, "duration": 13, "velocity": 61}, {"time": 801, "pitch": 68, "duration": 11, "velocity": 60}, {"time": 801, "pitch": 71, "duration": 13, "velocity": 55}, {"time": 813, "pitch": 56, "duration": 3, "velocity": 54}, {"time": 825, "pitch": 52, "duration": 39, "velocity": 59}, {"time": 825, "pitch": 59, "duration": 14, "velocity": 70}, {"time": 825, "pitch": 64, "duration": 13, "velocity": 62}, {"time": 825, "pitch": 68, "duration": 13, "velocity": 66}, {"time": 825, "pitch": 71, "duration": 15, "velocity": 48}, {"time": 837, "pitch": 56, "duration": 13, "velocity": 37}, {"time": 849, "pitch": 59, "duration": 7, "velocity": 67}, {"time": 849, "pitch": 64, "duration": 7, "velocity": 69}, {"time": 849, "pitch": 68, "duration": 7, "velocity": 62}, {"time": 855, "pitch": 56, "duration": 8, "velocity": 47}, {"time": 861, "pitch": 59, "duration": 4, "velocity": 61}, {"time": 867, "pitch": 71, "duration": 4, "velocity": 60}, {"time": 873, "pitch": 47, "duration": 38, "velocity": 62}, {"time": 873, "pitch": 63, "duration": 13, "velocity": 70}, {"time": 873, "pitch": 66, "duration": 10, "velocity": 69}, {"time": 873, "pitch": 71, "duration": 13, "velocity": 42}, {"time": 885, "pitch": 54, "duration": 15, "velocity": 25}, {"time": 897, "pitch": 59, "duration": 13, "velocity": 51}, {"time": 897, "pitch": 63, "duration": 14, "velocity": 69}, {"time": 897, "pitch": 66, "duration": 14, "velocity": 69}, {"time": 897, "pitch": 71, "duration": 12, "velocity": 47}, {"time": 909, "pitch": 54, "duration": 3, "velocity": 57}, {"time": 921, "pitch": 49, "duration": 37, "velocity": 66}, {"time": 921, "pitch": 59, "duration": 14, "velocity": 69}, {"time": 921, "pitch": 64, "duration": 13, "velocity": 73}, {"time": 921, "pitch": 68, "duration": 13, "velocity": 66}, {"time": 933, "pitch": 56, "duration": 13, "velocity": 31}, {"time": 945, "pitch": 59, "duration": 11, "velocity": 70}, {"time": 945, "pitch": 64, "duration": 11, "velocity": 72}, {"time": 945, "pitch": 68, "duration": 11, "velocity": 69}, {"time": 957, "pitch": 56, "duration": 2, "velocity": 60}, {"time": 969, "pitch": 42, "duration": 37, "velocity": 70}, {"time": 969, "pitch": 61, "duration": 11, "velocity": 72}, {"time": 969, "pitch": 66, "duration": 9, "velocity": 75}, {"time": 969, "pitch": 70, "duration": 9, "velocity": 75}, {"time": 975, "pitch": 49, "duration": 31, "velocity": 47}, {"time": 981, "pitch": 54, "duration": 18, "velocity": 46}, {"time": 987, "pitch": 61, "duration": 7, "velocity": 57}, {"time": 993, "pitch": 63, "duration": 7, "velocity": 73}, {"time": 999, "pitch": 64, "duration": 5, "velocity": 70}, {"time": 1005, "pitch": 54, "duration": 10, "velocity": 48}, {"time": 1005, "pitch": 66, "duration": 8, "velocity": 75}, {"time": 1011, "pitch": 73, "duration": 4, "velocity": 60}, {"time": 1017, "pitch": 47, "duration": 42, "velocity": 72}, {"time": 1017, "pitch": 66, "duration": 10, "velocity": 62}, {"time": 1017, "pitch": 71, "duration": 9, "velocity": 73}, {"time": 1017, "pitch": 75, "duration": 9, "velocity": 69}, {"time": 1023, "pitch": 54, "duration": 31, "velocity": 58}, {"time": 1029, "pitch": 59, "duration": 13, "velocity": 53}, {"time": 1035, "pitch": 61, "duration": 11, "velocity": 57}, {"time": 1041, "pitch": 66, "duration": 8, "velocity": 55}, {"time": 1047, "pitch": 59, "duration": 9, "velocity": 47}, {"time": 1053, "pitch": 63, "duration": 7, "velocity": 73}, {"time": 1059, "pitch": 54, "duration": 4, "velocity": 31}, {"time": 1059, "pitch": 66, "duration": 5, "velocity": 58}, {"time": 1065, "pitch": 47, "duration": 39, "velocity": 66}, {"time": 1065, "pitch": 63, "duration": 12, "velocity": 69}, {"time": 1065, "pitch": 71, "duration": 15, "velocity": 72}, {"time": 1071, "pitch": 54, "duration": 26, "velocity": 63}, {"time": 1077, "pitch": 59, "duration": 8, "velocity": 46}, {"time": 1083, "pitch": 61, "duration": 8, "velocity": 72}, {"time": 1083, "pitch": 70, "duration": 9, "velocity": 75}, {"time": 1089, "pitch": 59, "duration": 8, "velocity": 45}, {"time": 1095, "pitch": 63, "duration": 9, "velocity": 73}, {"time": 1095, "pitch": 66, "duration": 9, "velocity": 70}, {"time": 1095, "pitch": 71, "duration": 8, "velocity": 73}, {"time": 1101, "pitch": 54, "duration": 3, "velocity": 56}, {"time": 1113, "pitch": 51, "duration": 35, "velocity": 76}, {"time": 1113, "pitch": 61, "duration": 8, "velocity": 72}, {"time": 1113, "pitch": 66, "duration": 8, "velocity": 80}, {"time": 1113, "pitch": 70, "duration": 7, "velocity": 69}, {"time": 1119, "pitch": 58, "duration": 20, "velocity": 64}, {"time": 1125, "pitch": 61, "duration": 5, "velocity": 50}, {"time": 1131, "pitch": 66, "duration": 3, "velocity": 63}, {"time": 1137, "pitch": 63, "duration": 8, "velocity": 69}, {"time": 1137, "pitch": 67, "duration": 7, "velocity": 101}, {"time": 1137, "pitch": 70, "duration": 9, "velocity": 72}, {"time": 1143, "pitch": 58, "duration": 4, "velocity": 64}, {"time": 1149, "pitch": 68, "duration": 4, "velocity": 51}, {"time": 1155, "pitch": 70, "duration": 5, "velocity": 59}, {"time": 1161, "pitch": 44, "duration": 12, "velocity": 61}, {"time": 1161, "pitch": 63, "duration": 25, "velocity": 67}, {"time": 1161, "pitch": 66, "duration": 24, "velocity": 62}, {"time": 1161, "pitch": 71, "duration": 25, "velocity": 70}, {"time": 1167, "pitch": 51, "duration": 6, "velocity": 62}, {"time": 1173, "pitch": 56, "duration": 8, "velocity": 49}, {"time": 1179, "pitch": 58, "duration": 13, "velocity": 62}, {"time": 1185, "pitch": 59, "duration": 7, "velocity": 64}, {"time": 1191, "pitch": 63, "duration": 4, "velocity": 67}, {"time": 1197, "pitch": 66, "duration": 7, "velocity": 70}, {"time": 1203, "pitch": 71, "duration": 4, "velocity": 66}, {"time": 1209, "pitch": 40, "duration": 35, "velocity": 75}, {"time": 1209, "pitch": 52, "duration": 13, "velocity": 76}, {"time": 1209, "pitch": 64, "duration": 13, "velocity": 78}, {"time": 1209, "pitch": 68, "duration": 12, "velocity": 78}, {"time": 1209, "pitch": 71, "duration": 12, "velocity": 76}, {"time": 1227, "pitch": 52, "duration": 9, "velocity": 47}, {"time": 1233, "pitch": 59, "duration": 9, "velocity": 88}, {"time": 1233, "pitch": 64, "duration": 9, "velocity": 88}, {"time": 1233, "pitch": 68, "duration": 9, "velocity": 78}, {"time": 1239, "pitch": 52, "duration": 6, "velocity": 55}, {"time": 1245, "pitch": 59, "duration": 4, "velocity": 63}, {"time": 1251, "pitch": 66, "duration": 4, "velocity": 60}, {"time": 1257, "pitch": 42, "duration": 39, "velocity": 72}, {"time": 1257, "pitch": 54, "duration": 14, "velocity": 78}, {"time": 1257, "pitch": 63, "duration": 19, "velocity": 88}, {"time": 1257, "pitch": 66, "duration": 19, "velocity": 75}, {"time": 1257, "pitch": 71, "duration": 18, "velocity": 72}, {"time": 1275, "pitch": 54, "duration": 11, "velocity": 42}, {"time": 1281, "pitch": 63, "duration": 14, "velocity": 75}, {"time": 1281, "pitch": 66, "duration": 14, "velocity": 75}, {"time": 1281, "pitch": 71, "duration": 14, "velocity": 76}, {"time": 1293, "pitch": 54, "duration": 3, "velocity": 69}, {"time": 1305, "pitch": 44, "duration": 39, "velocity": 70}, {"time": 1305, "pitch": 56, "duration": 29, "velocity": 69}, {"time": 1305, "pitch": 63, "duration": 20, "velocity": 75}, {"time": 1305, "pitch": 68, "duration": 19, "velocity": 78}, {"time": 1305, "pitch": 71, "duration": 20, "velocity": 73}, {"time": 1329, "pitch": 63, "duration": 15, "velocity": 76}, {"time": 1329, "pitch": 66, "duration": 14, "velocity": 78}, {"time": 1329, "pitch": 71, "duration": 15, "velocity": 73}, {"time": 1341, "pitch": 56, "duration": 3, "velocity": 78}, {"time": 1353, "pitch": 42, "duration": 41, "velocity": 61}, {"time": 1353, "pitch": 54, "duration": 11, "velocity": 85}, {"time": 1353, "pitch": 61, "duration": 18, "velocity": 82}, {"time": 1353, "pitch": 66, "duration": 16, "velocity": 93}, {"time": 1353, "pitch": 70, "duration": 11, "velocity": 78}, {"time": 1371, "pitch": 54, "duration": 8, "velocity": 85}, {"time": 1377, "pitch": 59, "duration": 5, "velocity": 95}, {"time": 1377, "pitch": 64, "duration": 8, "velocity": 99}, {"time": 1377, "pitch": 68, "duration": 7, "velocity": 93}, {"time": 1383, "pitch": 54, "duration": 6, "velocity": 60}, {"time": 1389, "pitch": 61, "duration": 4, "velocity": 95}, {"time": 1389, "pitch": 66, "duration": 4, "velocity": 95}, {"time": 1389, "pitch": 70, "duration": 3, "velocity": 78}, {"time": 1395, "pitch": 54, "duration": 4, "velocity": 85}, {"time": 1401, "pitch": 47, "duration": 43, "velocity": 78}, {"time": 1401, "pitch": 63, "duration": 10, "velocity": 97}, {"time": 1401, "pitch": 66, "duration": 10, "velocity": 99}, {"time": 1401, "pitch": 71, "duration": 10, "velocity": 88}, {"time": 1407, "pitch": 54, "duration": 28, "velocity": 70}, {"time": 1413, "pitch": 59, "duration": 13, "velocity": 78}, {"time": 1419, "pitch": 63, "duration": 4, "velocity": 76}, {"time": 1425, "pitch": 66, "duration": 7, "velocity": 93}, {"time": 1431, "pitch": 59, "duration": 7, "velocity": 70}, {"time": 1437, "pitch": 63, "duration": 5, "velocity": 85}, {"time": 1437, "pitch": 71, "duration": 9, "velocity": 70}, {"time": 1443, "pitch": 54, "duration": 3, "velocity": 64}, {"time": 1449, "pitch": 51, "duration": 37, "velocity": 69}, {"time": 1449, "pitch": 61, "duration": 8, "velocity": 91}, {"time": 1449, "pitch": 70, "duration": 8, "velocity": 97}, {"time": 1455, "pitch": 58, "duration": 14, "velocity": 60}, {"time": 1461, "pitch": 61, "duration": 3, "velocity": 63}, {"time": 1467, "pitch": 61, "duration": 11, "velocity": 85}, {"time": 1467, "pitch": 66, "duration": 11, "velocity": 101}, {"time": 1479, "pitch": 58, "duration": 7, "velocity": 64}, {"time": 1485, "pitch": 61, "duration": 2, "velocity": 51}, {"time": 1485, "pitch": 63, "duration": 4, "velocity": 56}, {"time": 1491, "pitch": 66, "duration": 3, "velocity": 78}, {"time": 1497, "pitch": 40, "duration": 10, "velocity": 67}, {"time": 1497, "pitch": 59, "duration": 20, "velocity": 80}, {"time": 1497, "pitch": 64, "duration": 23, "velocity": 82}, {"time": 1497, "pitch": 68, "duration": 23, "velocity": 75}, {"time": 1503, "pitch": 47, "duration": 6, "velocity": 69}, {"time": 1509, "pitch": 52, "duration": 7, "velocity": 58}, {"time": 1515, "pitch": 54, "duration": 18, "velocity": 62}, {"time": 1521, "pitch": 56, "duration": 12, "velocity": 66}, {"time": 1527, "pitch": 59, "duration": 4, "velocity": 82}, {"time": 1533, "pitch": 64, "duration": 7, "velocity": 91}, {"time": 1539, "pitch": 71, "duration": 4, "velocity": 72}, {"time": 1545, "pitch": 47, "duration": 15, "velocity": 69}, {"time": 1545, "pitch": 63, "duration": 12, "velocity": 78}, {"time": 1545, "pitch": 66, "duration": 12, "velocity": 82}, {"time": 1545, "pitch": 71, "duration": 11, "velocity": 76}, {"time": 1551, "pitch": 54, "duration": 10, "velocity": 57}, {"time": 1557, "pitch": 59, "duration": 4, "velocity": 67}, {"time": 1563, "pitch": 71, "duration": 5, "velocity": 72}, {"time": 1569, "pitch": 46, "duration": 15, "velocity": 69}, {"time": 1569, "pitch": 61, "duration": 10, "velocity": 72}, {"time": 1569, "pitch": 66, "duration": 10, "velocity": 75}, {"time": 1569, "pitch": 70, "duration": 11, "velocity": 76}, {"time": 1575, "pitch": 54, "duration": 9, "velocity": 66}, {"time": 1581, "pitch": 58, "duration": 3, "velocity": 64}, {"time": 1587, "pitch": 71, "duration": 3, "velocity": 67}, {"time": 1593, "pitch": 44, "duration": 12, "velocity": 75}, {"time": 1593, "pitch": 63, "duration": 11, "velocity": 76}, {"time": 1593, "pitch": 68, "duration": 25, "velocity": 69}, {"time": 1593, "pitch": 71, "duration": 25, "velocity": 70}, {"time": 1599, "pitch": 51, "duration": 6, "velocity": 42}, {"time": 1605, "pitch": 56, "duration": 8, "velocity": 54}, {"time": 1611, "pitch": 58, "duration": 16, "velocity": 88}, {"time": 1617, "pitch": 59, "duration": 10, "velocity": 75}, {"time": 1623, "pitch": 63, "duration": 4, "velocity": 72}, {"time": 1623, "pitch": 71, "duration": 2, "velocity": 57}, {"time": 1629, "pitch": 66, "duration": 5, "velocity": 70}, {"time": 1635, "pitch": 71, "duration": 8, "velocity": 72}, {"time": 1641, "pitch": 42, "duration": 13, "velocity": 70}, {"time": 1641, "pitch": 61, "duration": 10, "velocity": 72}, {"time": 1641, "pitch": 66, "duration": 10, "velocity": 75}, {"time": 1641, "pitch": 70, "duration": 14, "velocity": 69}, {"time": 1647, "pitch": 49, "duration": 8, "velocity": 69}, {"time": 1653, "pitch": 54, "duration": 6, "velocity": 58}, {"time": 1659, "pitch": 61, "duration": 5, "velocity": 75}, {"time": 1659, "pitch": 66, "duration": 8, "velocity": 88}, {"time": 1665, "pitch": 42, "duration": 17, "velocity": 55}, {"time": 1665, "pitch": 54, "duration": 9, "velocity": 45}, {"time": 1671, "pitch": 59, "duration": 8, "velocity": 91}, {"time": 1671, "pitch": 64, "duration": 10, "velocity": 97}, {"time": 1671, "pitch": 68, "duration": 9, "velocity": 97}, {"time": 1677, "pitch": 54, "duration": 3, "velocity": 69}, {"time": 1683, "pitch": 59, "duration": 3, "velocity": 69}, {"time": 1689, "pitch": 37, "duration": 31, "velocity": 78}, {"time": 1689, "pitch": 59, "duration": 11, "velocity": 85}, {"time": 1689, "pitch": 64, "duration": 12, "velocity": 95}, {"time": 1689, "pitch": 68, "duration": 11, "velocity": 82}, {"time": 1701, "pitch": 49, "duration": 14, "velocity": 59}, {"time": 1707, "pitch": 59, "duration": 4, "velocity": 62}, {"time": 1713, "pitch": 59, "duration": 8, "velocity": 88}, {"time": 1713, "pitch": 64, "duration": 8, "velocity": 85}, {"time": 1713, "pitch": 68, "duration": 7, "velocity": 72}, {"time": 1719, "pitch": 49, "duration": 7, "velocity": 62}, {"time": 1725, "pitch": 59, "duration": 4, "velocity": 76}, {"time": 1731, "pitch": 64, "duration": 2, "velocity": 76}, {"time": 1737, "pitch": 42, "duration": 37, "velocity": 64}, {"time": 1737, "pitch": 58, "duration": 12, "velocity": 69}, {"time": 1737, "pitch": 61, "duration": 12, "velocity": 93}, {"time": 1737, "pitch": 66, "duration": 13, "velocity": 49}, {"time": 1743, "pitch": 49, "duration": 31, "velocity": 59}, {"time": 1749, "pitch": 54, "duration": 20, "velocity": 73}, {"time": 1755, "pitch": 58, "duration": 4, "velocity": 75}, {"time": 1761, "pitch": 59, "duration": 4, "velocity": 82}, {"time": 1767, "pitch": 61, "duration": 2, "velocity": 85}, {"time": 1773, "pitch": 54, "duration": 5, "velocity": 51}, {"time": 1773, "pitch": 64, "duration": 4, "velocity": 91}, {"time": 1779, "pitch": 66, "duration": 4, "velocity": 70}, {"time": 1785, "pitch": 47, "duration": 33, "velocity": 73}, {"time": 1785, "pitch": 63, "duration": 10, "velocity": 78}, {"time": 1785, "pitch": 66, "duration": 10, "velocity": 75}, {"time": 1791, "pitch": 54, "duration": 18, "velocity": 73}, {"time": 1797, "pitch": 59, "duration": 17, "velocity": 82}, {"time": 1803, "pitch": 61, "duration": 2, "velocity": 80}, {"time": 1803, "pitch": 66, "duration": 3, "velocity": 85}, {"time": 1809, "pitch": 61, "duration": 4, "velocity": 75}, {"time": 1809, "pitch": 66, "duration": 6, "velocity": 93}, {"time": 1812, "pitch": 54, "duration": 10, "velocity": 45}, {"time": 1818, "pitch": 63, "duration": 6, "velocity": 91}, {"time": 1818, "pitch": 66, "duration": 1, "velocity": 64}, {"time": 1818, "pitch": 70, "duration": 8, "velocity": 97}, {"time": 1821, "pitch": 46, "duration": 5, "velocity": 66}, {"time": 1827, "pitch": 70, "duration": 5, "velocity": 73}, {"time": 1833, "pitch": 39, "duration": 6, "velocity": 70}, {"time": 1833, "pitch": 61, "duration": 16, "velocity": 75}, {"time": 1833, "pitch": 66, "duration": 19, "velocity": 80}, {"time": 1833, "pitch": 70, "duration": 18, "velocity": 78}, {"time": 1839, "pitch": 51, "duration": 7, "velocity": 69}, {"time": 1845, "pitch": 54, "duration": 26, "velocity": 44}, {"time": 1851, "pitch": 58, "duration": 14, "velocity": 75}, {"time": 1857, "pitch": 61, "duration": 4, "velocity": 88}, {"time": 1863, "pitch": 66, "duration": 9, "velocity": 91}, {"time": 1869, "pitch": 58, "duration": 2, "velocity": 85}, {"time": 1875, "pitch": 68, "duration": 3, "velocity": 44}, {"time": 1875, "pitch": 71, "duration": 1, "velocity": 45}, {"time": 1881, "pitch": 40, "duration": 37, "velocity": 72}, {"time": 1881, "pitch": 59, "duration": 14, "velocity": 97}, {"time": 1881, "pitch": 64, "duration": 13, "velocity": 97}, {"time": 1881, "pitch": 68, "duration": 13, "velocity": 93}, {"time": 1887, "pitch": 47, "duration": 32, "velocity": 75}, {"time": 1893, "pitch": 52, "duration": 12, "velocity": 75}, {"time": 1899, "pitch": 59, "duration": 4, "velocity": 78}, {"time": 1905, "pitch": 64, "duration": 4, "velocity": 72}, {"time": 1911, "pitch": 59, "duration": 7, "velocity": 95}, {"time": 1911, "pitch": 66, "duration": 10, "velocity": 93}, {"time": 1917, "pitch": 52, "duration": 8, "velocity": 58}, {"time": 1923, "pitch": 61, "duration": 3, "velocity": 61}, {"time": 1929, "pitch": 47, "duration": 34, "velocity": 73}, {"time": 1929, "pitch": 63, "duration": 14, "velocity": 76}, {"time": 1929, "pitch": 66, "duration": 14, "velocity": 70}, {"time": 1929, "pitch": 71, "duration": 12, "velocity": 75}, {"time": 1935, "pitch": 54, "duration": 29, "velocity": 66}, {"time": 1941, "pitch": 59, "duration": 17, "velocity": 62}, {"time": 1947, "pitch": 63, "duration": 6, "velocity": 64}, {"time": 1947, "pitch": 66, "duration": 9, "velocity": 66}, {"time": 1947, "pitch": 71, "duration": 2, "velocity": 64}, {"time": 1959, "pitch": 63, "duration": 4, "velocity": 80}, {"time": 1959, "pitch": 68, "duration": 5, "velocity": 80}, {"time": 1965, "pitch": 46, "duration": 12, "velocity": 82}, {"time": 1965, "pitch": 54, "duration": 1, "velocity": 39}, {"time": 1965, "pitch": 61, "duration": 6, "velocity": 82}, {"time": 1965, "pitch": 66, "duration": 8, "velocity": 75}, {"time": 1965, "pitch": 70, "duration": 9, "velocity": 72}, {"time": 1977, "pitch": 44, "duration": 11, "velocity": 66}, {"time": 1977, "pitch": 63, "duration": 11, "velocity": 88}, {"time": 1977, "pitch": 66, "duration": 24, "velocity": 75}, {"time": 1977, "pitch": 71, "duration": 24, "velocity": 80}, {"time": 1983, "pitch": 51, "duration": 6, "velocity": 56}, {"time": 1989, "pitch": 56, "duration": 8, "velocity": 53}, {"time": 1995, "pitch": 58, "duration": 15, "velocity": 61}, {"time": 2001, "pitch": 59, "duration": 10, "velocity": 67}, {"time": 2007, "pitch": 63, "duration": 4, "velocity": 76}, {"time": 2013, "pitch": 63, "duration": 1, "velocity": 43}, {"time": 2013, "pitch": 66, "duration": 5, "velocity": 78}, {"time": 2019, "pitch": 71, "duration": 5, "velocity": 72}, {"time": 2025, "pitch": 42, "duration": 40, "velocity": 75}, {"time": 2025, "pitch": 61, "duration": 10, "velocity": 85}, {"time": 2025, "pitch": 66, "duration": 12, "velocity": 91}, {"time": 2025, "pitch": 70, "duration": 12, "velocity": 73}, {"time": 2031, "pitch": 49, "duration": 34, "velocity": 63}, {"time": 2037, "pitch": 54, "duration": 21, "velocity": 62}, {"time": 2043, "pitch": 61, "duration": 4, "velocity": 63}, {"time": 2049, "pitch": 64, "duration": 7, "velocity": 91}, {"time": 2055, "pitch": 66, "duration": 4, "velocity": 91}, {"time": 2061, "pitch": 68, "duration": 5, "velocity": 85}, {"time": 2067, "pitch": 70, "duration": 3, "velocity": 78}, {"time": 2073, "pitch": 40, "duration": 44, "velocity": 69}, {"time": 2073, "pitch": 66, "duration": 11, "velocity": 91}, {"time": 2073, "pitch": 71, "duration": 14, "velocity": 75}, {"time": 2079, "pitch": 47, "duration": 20, "velocity": 75}, {"time": 2085, "pitch": 52, "duration": 8, "velocity": 70}, {"time": 2091, "pitch": 59, "duration": 11, "velocity": 97}, {"time": 2091, "pitch": 64, "duration": 14, "velocity": 95}, {"time": 2091, "pitch": 68, "duration": 9, "velocity": 82}, {"time": 2103, "pitch": 47, "duration": 10, "velocity": 33}, {"time": 2103, "pitch": 52, "duration": 6, "velocity": 88}, {"time": 2109, "pitch": 59, "duration": 4, "velocity": 88}, {"time": 2109, "pitch": 64, "duration": 10, "velocity": 95}, {"time": 2115, "pitch": 47, "duration": 3, "velocity": 47}, {"time": 2115, "pitch": 52, "duration": 4, "velocity": 85}, {"time": 2121, "pitch": 42, "duration": 36, "velocity": 70}, {"time": 2121, "pitch": 61, "duration": 13, "velocity": 85}, {"time": 2121, "pitch": 66, "duration": 11, "velocity": 95}, {"time": 2127, "pitch": 49, "duration": 30, "velocity": 63}, {"time": 2133, "pitch": 54, "duration": 6, "velocity": 80}, {"time": 2139, "pitch": 59, "duration": 9, "velocity": 82}, {"time": 2139, "pitch": 64, "duration": 13, "velocity": 85}, {"time": 2151, "pitch": 54, "duration": 9, "velocity": 64}, {"time": 2157, "pitch": 59, "duration": 6, "velocity": 78}, {"time": 2157, "pitch": 64, "duration": 6, "velocity": 82}, {"time": 2163, "pitch": 66, "duration": 5, "velocity": 72}, {"time": 2169, "pitch": 47, "duration": 91, "velocity": 76}, {"time": 2169, "pitch": 61, "duration": 13, "velocity": 82}, {"time": 2169, "pitch": 63, "duration": 13, "velocity": 88}, {"time": 2169, "pitch": 66, "duration": 6, "velocity": 64}, {"time": 2175, "pitch": 54, "duration": 84, "velocity": 72}, {"time": 2181, "pitch": 59, "duration": 27, "velocity": 58}, {"time": 2187, "pitch": 61, "duration": 4, "velocity": 82}, {"time": 2193, "pitch": 63, "duration": 4, "velocity": 69}, {"time": 2199, "pitch": 64, "duration": 3, "velocity": 70}, {"time": 2205, "pitch": 66, "duration": 3, "velocity": 73}, {"time": 2205, "pitch": 71, "duration": 4, "velocity": 66}, {"time": 2211, "pitch": 73, "duration": 5, "velocity": 59}, {"time": 2217, "pitch": 59, "duration": 20, "velocity": 60}, {"time": 2217, "pitch": 66, "duration": 13, "velocity": 73}, {"time": 2217, "pitch": 71, "duration": 14, "velocity": 76}, {"time": 2217, "pitch": 75, "duration": 13, "velocity": 72}, {"time": 2235, "pitch": 66, "duration": 6, "velocity": 44}, {"time": 2238, "pitch": 71, "duration": 6, "velocity": 62}, {"time": 2241, "pitch": 78, "duration": 3, "velocity": 66}, {"time": 2247, "pitch": 76, "duration": 5, "velocity": 58}, {"time": 2253, "pitch": 75, "duration": 3, "velocity": 59}, {"time": 2259, "pitch": 71, "duration": 20, "velocity": 61}, {"time": 2265, "pitch": 47, "duration": 43, "velocity": 72}, {"time": 2265, "pitch": 66, "duration": 15, "velocity": 57}, {"time": 2265, "pitch": 75, "duration": 11, "velocity": 64}, {"time": 2283, "pitch": 59, "duration": 12, "velocity": 34}, {"time": 2289, "pitch": 66, "duration": 12, "velocity": 70}, {"time": 2289, "pitch": 71, "duration": 10, "velocity": 76}, {"time": 2289, "pitch": 75, "duration": 10, "velocity": 70}, {"time": 2301, "pitch": 59, "duration": 10, "velocity": 44}, {"time": 2313, "pitch": 47, "duration": 40, "velocity": 62}, {"time": 2313, "pitch": 59, "duration": 14, "velocity": 34}, {"time": 2313, "pitch": 63, "duration": 18, "velocity": 75}, {"time": 2313, "pitch": 66, "duration": 18, "velocity": 76}, {"time": 2313, "pitch": 71, "duration": 18, "velocity": 73}, {"time": 2331, "pitch": 59, "duration": 13, "velocity": 38}, {"time": 2337, "pitch": 63, "duration": 15, "velocity": 78}, {"time": 2337, "pitch": 66, "duration": 15, "velocity": 80}, {"time": 2337, "pitch": 71, "duration": 15, "velocity": 73}, {"time": 2349, "pitch": 59, "duration": 3, "velocity": 57}, {"time": 2361, "pitch": 51, "duration": 33, "velocity": 70}, {"time": 2361, "pitch": 61, "duration": 18, "velocity": 76}, {"time": 2361, "pitch": 66, "duration": 18, "velocity": 78}, {"time": 2361, "pitch": 70, "duration": 17, "velocity": 64}, {"time": 2385, "pitch": 63, "duration": 15, "velocity": 75}, {"time": 2385, "pitch": 66, "duration": 14, "velocity": 75}, {"time": 2385, "pitch": 70, "duration": 12, "velocity": 73}, {"time": 2397, "pitch": 51, "duration": 4, "velocity": 67}, {"time": 2409, "pitch": 44, "duration": 39, "velocity": 67}, {"time": 2409, "pitch": 56, "duration": 29, "velocity": 59}, {"time": 2409, "pitch": 63, "duration": 18, "velocity": 73}, {"time": 2409, "pitch": 68, "duration": 17, "velocity": 76}, {"time": 2409, "pitch": 71, "duration": 17, "velocity": 73}, {"time": 2433, "pitch": 63, "duration": 13, "velocity": 80}, {"time": 2433, "pitch": 68, "duration": 13, "velocity": 78}, {"time": 2433, "pitch": 71, "duration": 12, "velocity": 78}, {"time": 2445, "pitch": 56, "duration": 3, "velocity": 72}, {"time": 2457, "pitch": 40, "duration": 37, "velocity": 72}, {"time": 2457, "pitch": 52, "duration": 30, "velocity": 69}, {"time": 2457, "pitch": 59, "duration": 20, "velocity": 82}, {"time": 2457, "pitch": 64, "duration": 19, "velocity": 95}, {"time": 2457, "pitch": 68, "duration": 19, "velocity": 76}, {"time": 2481, "pitch": 59, "duration": 14, "velocity": 76}, {"time": 2481, "pitch": 64, "duration": 15, "velocity": 91}, {"time": 2481, "pitch": 68, "duration": 16, "velocity": 80}, {"time": 2493, "pitch": 52, "duration": 4, "velocity": 63}, {"time": 2505, "pitch": 42, "duration": 31, "velocity": 73}, {"time": 2505, "pitch": 63, "duration": 19, "velocity": 85}, {"time": 2505, "pitch": 66, "duration": 19, "velocity": 78}, {"time": 2505, "pitch": 71, "duration": 18, "velocity": 80}, {"time": 2529, "pitch": 63, "duration": 14, "velocity": 80}, {"time": 2529, "pitch": 66, "duration": 14, "velocity": 76}, {"time": 2529, "pitch": 71, "duration": 13, "velocity": 76}, {"time": 2541, "pitch": 42, "duration": 4, "velocity": 72}, {"time": 2553, "pitch": 49, "duration": 31, "velocity": 67}, {"time": 2553, "pitch": 61, "duration": 19, "velocity": 72}, {"time": 2553, "pitch": 64, "duration": 19, "velocity": 85}, {"time": 2553, "pitch": 68, "duration": 19, "velocity": 72}, {"time": 2553, "pitch": 71, "duration": 19, "velocity": 54}, {"time": 2577, "pitch": 61, "duration": 14, "velocity": 76}, {"time": 2577, "pitch": 64, "duration": 14, "velocity": 85}, {"time": 2577, "pitch": 68, "duration": 14, "velocity": 58}, {"time": 2577, "pitch": 71, "duration": 11, "velocity": 63}, {"time": 2589, "pitch": 49, "duration": 3, "velocity": 63}, {"time": 2601, "pitch": 42, "duration": 40, "velocity": 75}, {"time": 2601, "pitch": 54, "duration": 9, "velocity": 61}, {"time": 2601, "pitch": 61, "duration": 14, "velocity": 85}, {"time": 2601, "pitch": 66, "duration": 14, "velocity": 91}, {"time": 2601, "pitch": 70, "duration": 13, "velocity": 73}, {"time": 2613, "pitch": 54, "duration": 7, "velocity": 51}, {"time": 2619, "pitch": 59, "duration": 7, "velocity": 80}, {"time": 2619, "pitch": 64, "duration": 9, "velocity": 88}, {"time": 2619, "pitch": 68, "duration": 9, "velocity": 78}, {"time": 2625, "pitch": 54, "duration": 6, "velocity": 48}, {"time": 2631, "pitch": 61, "duration": 9, "velocity": 88}, {"time": 2631, "pitch": 66, "duration": 9, "velocity": 73}, {"time": 2631, "pitch": 70, "duration": 7, "velocity": 80}, {"time": 2637, "pitch": 54, "duration": 4, "velocity": 59}, {"time": 2643, "pitch": 46, "duration": 2, "velocity": 78}, {"time": 2649, "pitch": 47, "duration": 43, "velocity": 76}, {"time": 2649, "pitch": 63, "duration": 12, "velocity": 82}, {"time": 2649, "pitch": 66, "duration": 12, "velocity": 85}, {"time": 2649, "pitch": 71, "duration": 12, "velocity": 80}, {"time": 2655, "pitch": 54, "duration": 38, "velocity": 67}, {"time": 2661, "pitch": 59, "duration": 19, "velocity": 62}, {"time": 2667, "pitch": 63, "duration": 8, "velocity": 64}, {"time": 2673, "pitch": 66, "duration": 15, "velocity": 66}, {"time": 2679, "pitch": 63, "duration": 8, "velocity": 73}, {"time": 2679, "pitch": 71, "duration": 9, "velocity": 80}, {"time": 2685, "pitch": 59, "duration": 5, "velocity": 61}, {"time": 2691, "pitch": 63, "duration": 3, "velocity": 60}, {"time": 2691, "pitch": 71, "duration": 2, "velocity": 53}, {"time": 2697, "pitch": 47, "duration": 37, "velocity": 61}, {"time": 2697, "pitch": 63, "duration": 8, "velocity": 80}, {"time": 2697, "pitch": 71, "duration": 11, "velocity": 93}, {"time": 2703, "pitch": 54, "duration": 32, "velocity": 59}, {"time": 2709, "pitch": 66, "duration": 2, "velocity": 49}, {"time": 2712, "pitch": 58, "duration": 4, "velocity": 44}, {"time": 2712, "pitch": 59, "duration": 4, "velocity": 44}, {"time": 2715, "pitch": 63, "duration": 8, "velocity": 91}, {"time": 2715, "pitch": 66, "duration": 9, "velocity": 95}, {"time": 2715, "pitch": 71, "duration": 8, "velocity": 80}, {"time": 2721, "pitch": 59, "duration": 7, "velocity": 69}, {"time": 2727, "pitch": 63, "duration": 4, "velocity": 72}, {"time": 2733, "pitch": 66, "duration": 4, "velocity": 80}, {"time": 2739, "pitch": 71, "duration": 4, "velocity": 72}, {"time": 2745, "pitch": 39, "duration": 7, "velocity": 72}, {"time": 2745, "pitch": 61, "duration": 18, "velocity": 88}, {"time": 2745, "pitch": 66, "duration": 20, "velocity": 93}, {"time": 2745, "pitch": 70, "duration": 19, "velocity": 85}, {"time": 2751, "pitch": 51, "duration": 8, "velocity": 57}, {"time": 2757, "pitch": 54, "duration": 22, "velocity": 49}, {"time": 2763, "pitch": 58, "duration": 14, "velocity": 62}, {"time": 2769, "pitch": 63, "duration": 4, "velocity": 82}, {"time": 2775, "pitch": 66, "duration": 4, "velocity": 95}, {"time": 2781, "pitch": 68, "duration": 5, "velocity": 78}, {"time": 2787, "pitch": 70, "duration": 5, "velocity": 64}, {"time": 2793, "pitch": 44, "duration": 43, "velocity": 75}, {"time": 2793, "pitch": 63, "duration": 11, "velocity": 72}, {"time": 2793, "pitch": 66, "duration": 14, "velocity": 73}, {"time": 2793, "pitch": 71, "duration": 13, "velocity": 80}, {"time": 2799, "pitch": 51, "duration": 28, "velocity": 64}, {"time": 2805, "pitch": 56, "duration": 12, "velocity": 58}, {"time": 2811, "pitch": 63, "duration": 4, "velocity": 63}, {"time": 2817, "pitch": 63, "duration": 7, "velocity": 88}, {"time": 2817, "pitch": 70, "duration": 8, "velocity": 93}, {"time": 2820, "pitch": 56, "duration": 9, "velocity": 44}, {"time": 2826, "pitch": 71, "duration": 5, "velocity": 62}, {"time": 2829, "pitch": 63, "duration": 3, "velocity": 80}, {"time": 2835, "pitch": 51, "duration": 2, "velocity": 64}, {"time": 2835, "pitch": 66, "duration": 3, "velocity": 54}, {"time": 2841, "pitch": 40, "duration": 39, "velocity": 75}, {"time": 2841, "pitch": 59, "duration": 14, "velocity": 80}, {"time": 2841, "pitch": 64, "duration": 13, "velocity": 93}, {"time": 2841, "pitch": 68, "duration": 11, "velocity": 78}, {"time": 2847, "pitch": 47, "duration": 34, "velocity": 64}, {"time": 2853, "pitch": 52, "duration": 20, "velocity": 69}, {"time": 2859, "pitch": 59, "duration": 5, "velocity": 75}, {"time": 2865, "pitch": 59, "duration": 4, "velocity": 70}, {"time": 2865, "pitch": 64, "duration": 5, "velocity": 78}, {"time": 2871, "pitch": 59, "duration": 9, "velocity": 78}, {"time": 2871, "pitch": 64, "duration": 1, "velocity": 47}, {"time": 2871, "pitch": 66, "duration": 8, "velocity": 91}, {"time": 2877, "pitch": 52, "duration": 6, "velocity": 51}, {"time": 2883, "pitch": 66, "duration": 3, "velocity": 63}, {"time": 2889, "pitch": 42, "duration": 14, "velocity": 72}, {"time": 2889, "pitch": 63, "duration": 15, "velocity": 91}, {"time": 2889, "pitch": 66, "duration": 15, "velocity": 85}, {"time": 2889, "pitch": 71, "duration": 14, "velocity": 80}, {"time": 2895, "pitch": 51, "duration": 8, "velocity": 64}, {"time": 2901, "pitch": 54, "duration": 20, "velocity": 55}, {"time": 2907, "pitch": 63, "duration": 9, "velocity": 91}, {"time": 2907, "pitch": 66, "duration": 4, "velocity": 72}, {"time": 2913, "pitch": 42, "duration": 18, "velocity": 49}, {"time": 2919, "pitch": 63, "duration": 8, "velocity": 91}, {"time": 2919, "pitch": 66, "duration": 8, "velocity": 95}, {"time": 2919, "pitch": 71, "duration": 7, "velocity": 75}, {"time": 2925, "pitch": 54, "duration": 7, "velocity": 67}, {"time": 2931, "pitch": 66, "duration": 3, "velocity": 67}, {"time": 2937, "pitch": 44, "duration": 43, "velocity": 73}, {"time": 2937, "pitch": 63, "duration": 12, "velocity": 78}, {"time": 2937, "pitch": 68, "duration": 14, "velocity": 97}, {"time": 2937, "pitch": 71, "duration": 9, "velocity": 69}, {"time": 2943, "pitch": 51, "duration": 31, "velocity": 72}, {"time": 2949, "pitch": 56, "duration": 12, "velocity": 72}, {"time": 2955, "pitch": 63, "duration": 3, "velocity": 60}, {"time": 2955, "pitch": 71, "duration": 1, "velocity": 49}, {"time": 2961, "pitch": 63, "duration": 6, "velocity": 91}, {"time": 2961, "pitch": 66, "duration": 6, "velocity": 99}, {"time": 2961, "pitch": 71, "duration": 6, "velocity": 73}, {"time": 2967, "pitch": 56, "duration": 5, "velocity": 45}, {"time": 2970, "pitch": 61, "duration": 8, "velocity": 76}, {"time": 2970, "pitch": 70, "duration": 8, "velocity": 82}, {"time": 2976, "pitch": 51, "duration": 3, "velocity": 55}, {"time": 2976, "pitch": 56, "duration": 2, "velocity": 70}, {"time": 2985, "pitch": 42, "duration": 10, "velocity": 70}, {"time": 2985, "pitch": 54, "duration": 3, "velocity": 91}, {"time": 2985, "pitch": 61, "duration": 7, "velocity": 93}, {"time": 2985, "pitch": 66, "duration": 7, "velocity": 99}, {"time": 2985, "pitch": 70, "duration": 7, "velocity": 97}, {"time": 2991, "pitch": 54, "duration": 4, "velocity": 75}, {"time": 3003, "pitch": 64, "duration": 2, "velocity": 41}, {"time": 3009, "pitch": 40, "duration": 7, "velocity": 70}, {"time": 3009, "pitch": 52, "duration": 7, "velocity": 88}, {"time": 3009, "pitch": 59, "duration": 5, "velocity": 95}, {"time": 3009, "pitch": 64, "duration": 7, "velocity": 99}, {"time": 3009, "pitch": 68, "duration": 7, "velocity": 101}, {"time": 3018, "pitch": 42, "duration": 8, "velocity": 80}, {"time": 3018, "pitch": 61, "duration": 5, "velocity": 95}, {"time": 3018, "pitch": 66, "duration": 6, "velocity": 75}, {"time": 3018, "pitch": 70, "duration": 5, "velocity": 82}, {"time": 3027, "pitch": 44, "duration": 2, "velocity": 75}, {"time": 3027, "pitch": 63, "duration": 3, "velocity": 80}, {"time": 3027, "pitch": 66, "duration": 4, "velocity": 73}, {"time": 3027, "pitch": 71, "duration": 3, "velocity": 82}, {"time": 3033, "pitch": 47, "duration": 10, "velocity": 85}, {"time": 3033, "pitch": 63, "duration": 10, "velocity": 85}, {"time": 3033, "pitch": 66, "duration": 10, "velocity": 95}, {"time": 3033, "pitch": 71, "duration": 10, "velocity": 82}, {"time": 3039, "pitch": 54, "duration": 6, "velocity": 53}, {"time": 3045, "pitch": 59, "duration": 7, "velocity": 80}, {"time": 3051, "pitch": 61, "duration": 13, "velocity": 63}, {"time": 3051, "pitch": 66, "duration": 3, "velocity": 91}, {"time": 3051, "pitch": 71, "duration": 3, "velocity": 97}, {"time": 3051, "pitch": 78, "duration": 3, "velocity": 80}, {"time": 3057, "pitch": 66, "duration": 6, "velocity": 97}, {"time": 3057, "pitch": 71, "duration": 6, "velocity": 106}, {"time": 3057, "pitch": 78, "duration": 5, "velocity": 85}, {"time": 3060, "pitch": 63, "duration": 2, "velocity": 78}, {"time": 3066, "pitch": 66, "duration": 5, "velocity": 82}, {"time": 3066, "pitch": 71, "duration": 6, "velocity": 101}, {"time": 3066, "pitch": 76, "duration": 5, "velocity": 93}, {"time": 3075, "pitch": 75, "duration": 4, "velocity": 93}, {"time": 3075, "pitch": 76, "duration": 1, "velocity": 63}, {"time": 3081, "pitch": 51, "duration": 38, "velocity": 73}, {"time": 3081, "pitch": 61, "duration": 8, "velocity": 85}, {"time": 3081, "pitch": 66, "duration": 8, "velocity": 78}, {"time": 3081, "pitch": 70, "duration": 8, "velocity": 78}, {"time": 3087, "pitch": 58, "duration": 32, "velocity": 62}, {"time": 3093, "pitch": 61, "duration": 5, "velocity": 75}, {"time": 3099, "pitch": 66, "duration": 7, "velocity": 70}, {"time": 3105, "pitch": 63, "duration": 11, "velocity": 67}, {"time": 3105, "pitch": 68, "duration": 4, "velocity": 80}, {"time": 3111, "pitch": 70, "duration": 6, "velocity": 80}, {"time": 3117, "pitch": 73, "duration": 7, "velocity": 72}, {"time": 3123, "pitch": 78, "duration": 4, "velocity": 66}, {"time": 3129, "pitch": 40, "duration": 17, "velocity": 73}, {"time": 3129, "pitch": 68, "duration": 16, "velocity": 64}, {"time": 3129, "pitch": 71, "duration": 15, "velocity": 69}, {"time": 3129, "pitch": 75, "duration": 15, "velocity": 69}, {"time": 3135, "pitch": 47, "duration": 13, "velocity": 69}, {"time": 3141, "pitch": 52, "duration": 7, "velocity": 63}, {"time": 3147, "pitch": 76, "duration": 5, "velocity": 70}, {"time": 3153, "pitch": 42, "duration": 14, "velocity": 75}, {"time": 3153, "pitch": 66, "duration": 6, "velocity": 76}, {"time": 3153, "pitch": 75, "duration": 9, "velocity": 73}, {"time": 3153, "pitch": 76, "duration": 3, "velocity": 59}, {"time": 3159, "pitch": 49, "duration": 9, "velocity": 58}, {"time": 3162, "pitch": 66, "duration": 7, "velocity": 72}, {"time": 3162, "pitch": 73, "duration": 7, "velocity": 70}, {"time": 3165, "pitch": 54, "duration": 5, "velocity": 55}, {"time": 3171, "pitch": 71, "duration": 4, "velocity": 61}, {"time": 3177, "pitch": 47, "duration": 37, "velocity": 70}, {"time": 3177, "pitch": 66, "duration": 9, "velocity": 69}, {"time": 3177, "pitch": 71, "duration": 8, "velocity": 72}, {"time": 3177, "pitch": 75, "duration": 8, "velocity": 76}, {"time": 3183, "pitch": 54, "duration": 32, "velocity": 61}, {"time": 3189, "pitch": 59, "duration": 8, "velocity": 64}, {"time": 3195, "pitch": 63, "duration": 9, "velocity": 67}, {"time": 3195, "pitch": 66, "duration": 9, "velocity": 64}, {"time": 3195, "pitch": 71, "duration": 9, "velocity": 76}, {"time": 3201, "pitch": 59, "duration": 5, "velocity": 57}, {"time": 3207, "pitch": 63, "duration": 6, "velocity": 73}, {"time": 3207, "pitch": 70, "duration": 8, "velocity": 73}, {"time": 3213, "pitch": 59, "duration": 1, "velocity": 44}, {"time": 3219, "pitch": 46, "duration": 3, "velocity": 59}, {"time": 3219, "pitch": 68, "duration": 6, "velocity": 69}, {"time": 3225, "pitch": 44, "duration": 41, "velocity": 75}, {"time": 3225, "pitch": 63, "duration": 13, "velocity": 70}, {"time": 3225, "pitch": 66, "duration": 14, "velocity": 72}, {"time": 3225, "pitch": 71, "duration": 11, "velocity": 75}, {"time": 3231, "pitch": 51, "duration": 34, "velocity": 36}, {"time": 3237, "pitch": 56, "duration": 10, "velocity": 67}, {"time": 3243, "pitch": 63, "duration": 5, "velocity": 72}, {"time": 3249, "pitch": 63, "duration": 5, "velocity": 56}, {"time": 3249, "pitch": 66, "duration": 7, "velocity": 91}, {"time": 3255, "pitch": 56, "duration": 3, "velocity": 55}, {"time": 3258, "pitch": 63, "duration": 9, "velocity": 66}, {"time": 3258, "pitch": 66, "duration": 2, "velocity": 57}, {"time": 3258, "pitch": 70, "duration": 9, "velocity": 78}, {"time": 3261, "pitch": 56, "duration": 4, "velocity": 54}, {"time": 3267, "pitch": 71, "duration": 8, "velocity": 73}, {"time": 3273, "pitch": 42, "duration": 11, "velocity": 72}, {"time": 3273, "pitch": 61, "duration": 11, "velocity": 69}, {"time": 3273, "pitch": 66, "duration": 9, "velocity": 70}, {"time": 3273, "pitch": 70, "duration": 13, "velocity": 76}, {"time": 3279, "pitch": 49, "duration": 6, "velocity": 64}, {"time": 3285, "pitch": 54, "duration": 8, "velocity": 88}, {"time": 3291, "pitch": 56, "duration": 18, "velocity": 60}, {"time": 3297, "pitch": 58, "duration": 11, "velocity": 63}, {"time": 3303, "pitch": 61, "duration": 4, "velocity": 80}, {"time": 3309, "pitch": 66, "duration": 6, "velocity": 67}, {"time": 3315, "pitch": 71, "duration": 19, "velocity": 70}, {"time": 3321, "pitch": 40, "duration": 11, "velocity": 75}, {"time": 3321, "pitch": 59, "duration": 8, "velocity": 78}, {"time": 3321, "pitch": 64, "duration": 12, "velocity": 70}, {"time": 3321, "pitch": 68, "duration": 13, "velocity": 62}, {"time": 3327, "pitch": 47, "duration": 6, "velocity": 64}, {"time": 3333, "pitch": 52, "duration": 8, "velocity": 64}, {"time": 3333, "pitch": 66, "duration": 5, "velocity": 63}, {"time": 3339, "pitch": 54, "duration": 22, "velocity": 67}, {"time": 3339, "pitch": 59, "duration": 9, "velocity": 72}, {"time": 3339, "pitch": 68, "duration": 9, "velocity": 70}, {"time": 3345, "pitch": 56, "duration": 14, "velocity": 63}, {"time": 3351, "pitch": 59, "duration": 3, "velocity": 85}, {"time": 3354, "pitch": 64, "duration": 3, "velocity": 69}, {"time": 3357, "pitch": 66, "duration": 2, "velocity": 63}, {"time": 3360, "pitch": 68, "duration": 6, "velocity": 82}, {"time": 3363, "pitch": 71, "duration": 5, "velocity": 61}, {"time": 3366, "pitch": 73, "duration": 4, "velocity": 59}, {"time": 3369, "pitch": 42, "duration": 10, "velocity": 72}, {"time": 3369, "pitch": 68, "duration": 23, "velocity": 62}, {"time": 3369, "pitch": 75, "duration": 24, "velocity": 72}, {"time": 3369, "pitch": 76, "duration": 5, "velocity": 55}, {"time": 3375, "pitch": 49, "duration": 5, "velocity": 69}, {"time": 3381, "pitch": 54, "duration": 7, "velocity": 59}, {"time": 3387, "pitch": 56, "duration": 19, "velocity": 59}, {"time": 3393, "pitch": 58, "duration": 13, "velocity": 66}, {"time": 3399, "pitch": 66, "duration": 5, "velocity": 88}, {"time": 3405, "pitch": 71, "duration": 4, "velocity": 78}, {"time": 3411, "pitch": 73, "duration": 4, "velocity": 64}, {"time": 3417, "pitch": 47, "duration": 11, "velocity": 73}, {"time": 3417, "pitch": 66, "duration": 12, "velocity": 80}, {"time": 3417, "pitch": 71, "duration": 13, "velocity": 85}, {"time": 3417, "pitch": 75, "duration": 14, "velocity": 73}, {"time": 3423, "pitch": 54, "duration": 6, "velocity": 64}, {"time": 3429, "pitch": 59, "duration": 7, "velocity": 59}, {"time": 3435, "pitch": 61, "duration": 16, "velocity": 67}, {"time": 3435, "pitch": 66, "duration": 3, "velocity": 66}, {"time": 3435, "pitch": 71, "duration": 3, "velocity": 59}, {"time": 3435, "pitch": 78, "duration": 3, "velocity": 76}, {"time": 3441, "pitch": 63, "duration": 8, "velocity": 69}, {"time": 3441, "pitch": 66, "duration": 7, "velocity": 67}, {"time": 3441, "pitch": 71, "duration": 7, "velocity": 75}, {"time": 3441, "pitch": 78, "duration": 5, "velocity": 85}, {"time": 3450, "pitch": 66, "duration": 4, "velocity": 66}, {"time": 3450, "pitch": 75, "duration": 8, "velocity": 78}, {"time": 3459, "pitch": 66, "duration": 2, "velocity": 44}, {"time": 3459, "pitch": 73, "duration": 4, "velocity": 69}, {"time": 3465, "pitch": 51, "duration": 40, "velocity": 72}, {"time": 3465, "pitch": 66, "duration": 10, "velocity": 72}, {"time": 3465, "pitch": 70, "duration": 11, "velocity": 80}, {"time": 3465, "pitch": 75, "duration": 14, "velocity": 76}, {"time": 3471, "pitch": 58, "duration": 21, "velocity": 54}, {"time": 3477, "pitch": 63, "duration": 7, "velocity": 76}, {"time": 3483, "pitch": 75, "duration": 4, "velocity": 49}, {"time": 3483, "pitch": 83, "duration": 7, "velocity": 80}, {"time": 3489, "pitch": 63, "duration": 8, "velocity": 76}, {"time": 3489, "pitch": 73, "duration": 5, "velocity": 75}, {"time": 3489, "pitch": 82, "duration": 4, "velocity": 70}, {"time": 3495, "pitch": 58, "duration": 3, "velocity": 59}, {"time": 3498, "pitch": 70, "duration": 7, "velocity": 82}, {"time": 3498, "pitch": 78, "duration": 5, "velocity": 80}, {"time": 3501, "pitch": 58, "duration": 3, "velocity": 67}, {"time": 3507, "pitch": 73, "duration": 5, "velocity": 82}, {"time": 3513, "pitch": 40, "duration": 41, "velocity": 59}, {"time": 3513, "pitch": 68, "duration": 7, "velocity": 76}, {"time": 3513, "pitch": 71, "duration": 7, "velocity": 91}, {"time": 3513, "pitch": 76, "duration": 6, "velocity": 85}, {"time": 3519, "pitch": 47, "duration": 36, "velocity": 60}, {"time": 3525, "pitch": 52, "duration": 28, "velocity": 72}, {"time": 3531, "pitch": 59, "duration": 3, "velocity": 91}, {"time": 3534, "pitch": 64, "duration": 3, "velocity": 58}, {"time": 3537, "pitch": 66, "duration": 1, "velocity": 58}, {"time": 3540, "pitch": 68, "duration": 4, "velocity": 82}, {"time": 3543, "pitch": 71, "duration": 4, "velocity": 54}, {"time": 3546, "pitch": 73, "duration": 5, "velocity": 58}, {"time": 3549, "pitch": 75, "duration": 5, "velocity": 50}, {"time": 3555, "pitch": 76, "duration": 5, "velocity": 49}, {"time": 3561, "pitch": 47, "duration": 38, "velocity": 78}, {"time": 3561, "pitch": 66, "duration": 12, "velocity": 82}, {"time": 3561, "pitch": 71, "duration": 12, "velocity": 75}, {"time": 3561, "pitch": 75, "duration": 15, "velocity": 70}, {"time": 3567, "pitch": 54, "duration": 8, "velocity": 52}, {"time": 3573, "pitch": 59, "duration": 13, "velocity": 70}, {"time": 3579, "pitch": 66, "duration": 4, "velocity": 70}, {"time": 3585, "pitch": 66, "duration": 6, "velocity": 66}, {"time": 3585, "pitch": 75, "duration": 7, "velocity": 82}, {"time": 3588, "pitch": 59, "duration": 3, "velocity": 49}, {"time": 3594, "pitch": 66, "duration": 4, "velocity": 67}, {"time": 3594, "pitch": 73, "duration": 4, "velocity": 69}, {"time": 3597, "pitch": 54, "duration": 2, "velocity": 50}, {"time": 3600, "pitch": 46, "duration": 4, "velocity": 72}, {"time": 3603, "pitch": 66, "duration": 2, "velocity": 54}, {"time": 3603, "pitch": 71, "duration": 4, "velocity": 52}, {"time": 3609, "pitch": 44, "duration": 40, "velocity": 72}, {"time": 3609, "pitch": 66, "duration": 9, "velocity": 67}, {"time": 3609, "pitch": 71, "duration": 9, "velocity": 75}, {"time": 3615, "pitch": 51, "duration": 22, "velocity": 64}, {"time": 3621, "pitch": 56, "duration": 8, "velocity": 62}, {"time": 3627, "pitch": 63, "duration": 3, "velocity": 66}, {"time": 3627, "pitch": 71, "duration": 3, "velocity": 75}, {"time": 3633, "pitch": 56, "duration": 11, "velocity": 60}, {"time": 3633, "pitch": 63, "duration": 5, "velocity": 76}, {"time": 3633, "pitch": 71, "duration": 3, "velocity": 75}, {"time": 3642, "pitch": 61, "duration": 4, "velocity": 72}, {"time": 3642, "pitch": 70, "duration": 4, "velocity": 72}, {"time": 3645, "pitch": 51, "duration": 4, "velocity": 69}, {"time": 3651, "pitch": 59, "duration": 3, "velocity": 60}, {"time": 3651, "pitch": 68, "duration": 5, "velocity": 57}, {"time": 3657, "pitch": 42, "duration": 36, "velocity": 70}, {"time": 3657, "pitch": 61, "duration": 9, "velocity": 80}, {"time": 3657, "pitch": 66, "duration": 10, "velocity": 85}, {"time": 3663, "pitch": 49, "duration": 30, "velocity": 66}, {"time": 3669, "pitch": 54, "duration": 25, "velocity": 72}, {"time": 3675, "pitch": 58, "duration": 6, "velocity": 70}, {"time": 3681, "pitch": 59, "duration": 3, "velocity": 62}, {"time": 3687, "pitch": 63, "duration": 5, "velocity": 73}, {"time": 3693, "pitch": 66, "duration": 6, "velocity": 73}, {"time": 3699, "pitch": 71, "duration": 5, "velocity": 59}, {"time": 3705, "pitch": 52, "duration": 39, "velocity": 66}, {"time": 3705, "pitch": 59, "duration": 9, "velocity": 73}, {"time": 3705, "pitch": 64, "duration": 9, "velocity": 73}, {"time": 3705, "pitch": 68, "duration": 9, "velocity": 69}, {"time": 3711, "pitch": 56, "duration": 15, "velocity": 58}, {"time": 3717, "pitch": 59, "duration": 5, "velocity": 69}, {"time": 3723, "pitch": 59, "duration": 8, "velocity": 70}, {"time": 3723, "pitch": 64, "duration": 9, "velocity": 67}, {"time": 3729, "pitch": 56, "duration": 8, "velocity": 67}, {"time": 3735, "pitch": 59, "duration": 9, "velocity": 72}, {"time": 3735, "pitch": 66, "duration": 9, "velocity": 69}, {"time": 3741, "pitch": 56, "duration": 3, "velocity": 67}, {"time": 3747, "pitch": 68, "duration": 5, "velocity": 69}, {"time": 3753, "pitch": 42, "duration": 36, "velocity": 69}, {"time": 3753, "pitch": 61, "duration": 11, "velocity": 69}, {"time": 3753, "pitch": 66, "duration": 11, "velocity": 69}, {"time": 3753, "pitch": 70, "duration": 9, "velocity": 69}, {"time": 3759, "pitch": 49, "duration": 31, "velocity": 66}, {"time": 3765, "pitch": 54, "duration": 7, "velocity": 63}, {"time": 3771, "pitch": 59, "duration": 13, "velocity": 76}, {"time": 3771, "pitch": 64, "duration": 14, "velocity": 73}, {"time": 3771, "pitch": 68, "duration": 14, "velocity": 61}, {"time": 3771, "pitch": 71, "duration": 15, "velocity": 70}, {"time": 3783, "pitch": 54, "duration": 8, "velocity": 52}, {"time": 3789, "pitch": 59, "duration": 5, "velocity": 63}, {"time": 3789, "pitch": 71, "duration": 2, "velocity": 37}, {"time": 3795, "pitch": 64, "duration": 3, "velocity": 66}, {"time": 3801, "pitch": 47, "duration": 38, "velocity": 73}, {"time": 3801, "pitch": 61, "duration": 11, "velocity": 61}, {"time": 3801, "pitch": 63, "duration": 12, "velocity": 66}, {"time": 3801, "pitch": 66, "duration": 12, "velocity": 69}, {"time": 3807, "pitch": 54, "duration": 23, "velocity": 63}, {"time": 3813, "pitch": 59, "duration": 19, "velocity": 67}, {"time": 3819, "pitch": 61, "duration": 6, "velocity": 75}, {"time": 3825, "pitch": 63, "duration": 5, "velocity": 61}, {"time": 3831, "pitch": 63, "duration": 1, "velocity": 39}, {"time": 3831, "pitch": 66, "duration": 5, "velocity": 88}, {"time": 3837, "pitch": 54, "duration": 3, "velocity": 61}, {"time": 3849, "pitch": 42, "duration": 20, "velocity": 70}, {"time": 3849, "pitch": 54, "duration": 21, "velocity": 72}, {"time": 3849, "pitch": 58, "duration": 20, "velocity": 66}, {"time": 3849, "pitch": 61, "duration": 21, "velocity": 73}, {"time": 3849, "pitch": 66, "duration": 20, "velocity": 69}, {"time": 3873, "pitch": 42, "duration": 6, "velocity": 75}, {"time": 3873, "pitch": 54, "duration": 6, "velocity": 58}, {"time": 3873, "pitch": 58, "duration": 5, "velocity": 69}, {"time": 3873, "pitch": 61, "duration": 5, "velocity": 72}, {"time": 3873, "pitch": 66, "duration": 5, "velocity": 72}, {"time": 3882, "pitch": 42, "duration": 6, "velocity": 63}, {"time": 3882, "pitch": 54, "duration": 6, "velocity": 59}, {"time": 3882, "pitch": 59, "duration": 6, "velocity": 67}, {"time": 3882, "pitch": 68, "duration": 6, "velocity": 73}, {"time": 3891, "pitch": 46, "duration": 3, "velocity": 70}, {"time": 3891, "pitch": 61, "duration": 3, "velocity": 64}, {"time": 3891, "pitch": 66, "duration": 3, "velocity": 35}, {"time": 3897, "pitch": 47, "duration": 43, "velocity": 85}, {"time": 3897, "pitch": 63, "duration": 16, "velocity": 73}, {"time": 3897, "pitch": 66, "duration": 2, "velocity": 50}, {"time": 3897, "pitch": 68, "duration": 6, "velocity": 40}, {"time": 3897, "pitch": 71, "duration": 19, "velocity": 69}, {"time": 3909, "pitch": 54, "duration": 14, "velocity": 41}, {"time": 3915, "pitch": 59, "duration": 7, "velocity": 52}, {"time": 3921, "pitch": 61, "duration": 6, "velocity": 62}, {"time": 3921, "pitch": 70, "duration": 9, "velocity": 59}, {"time": 3927, "pitch": 59, "duration": 11, "velocity": 34}, {"time": 3933, "pitch": 63, "duration": 2, "velocity": 55}, {"time": 3933, "pitch": 71, "duration": 4, "velocity": 72}, {"time": 3936, "pitch": 54, "duration": 6, "velocity": 12}, {"time": 3939, "pitch": 61, "duration": 11, "velocity": 49}, {"time": 3939, "pitch": 66, "duration": 10, "velocity": 58}, {"time": 3945, "pitch": 47, "duration": 36, "velocity": 67}, {"time": 3951, "pitch": 54, "duration": 12, "velocity": 52}, {"time": 3963, "pitch": 59, "duration": 10, "velocity": 73}, {"time": 3963, "pitch": 63, "duration": 10, "velocity": 72}, {"time": 3963, "pitch": 66, "duration": 9, "velocity": 57}, {"time": 3969, "pitch": 54, "duration": 12, "velocity": 69}, {"time": 3975, "pitch": 58, "duration": 5, "velocity": 69}, {"time": 3975, "pitch": 66, "duration": 2, "velocity": 39}, {"time": 3981, "pitch": 61, "duration": 7, "velocity": 72}, {"time": 3987, "pitch": 63, "duration": 4, "velocity": 41}, {"time": 3993, "pitch": 39, "duration": 45, "velocity": 76}, {"time": 3993, "pitch": 54, "duration": 8, "velocity": 69}, {"time": 3993, "pitch": 58, "duration": 8, "velocity": 56}, {"time": 3993, "pitch": 61, "duration": 9, "velocity": 60}, {"time": 3999, "pitch": 51, "duration": 16, "velocity": 56}, {"time": 4005, "pitch": 54, "duration": 4, "velocity": 52}, {"time": 4011, "pitch": 54, "duration": 12, "velocity": 67}, {"time": 4011, "pitch": 58, "duration": 13, "velocity": 72}, {"time": 4011, "pitch": 61, "duration": 14, "velocity": 73}, {"time": 4023, "pitch": 51, "duration": 15, "velocity": 44}, {"time": 4029, "pitch": 55, "duration": 3, "velocity": 49}, {"time": 4035, "pitch": 55, "duration": 12, "velocity": 73}, {"time": 4035, "pitch": 58, "duration": 13, "velocity": 73}, {"time": 4035, "pitch": 63, "duration": 15, "velocity": 72}, {"time": 4041, "pitch": 39, "duration": 38, "velocity": 61}, {"time": 4047, "pitch": 51, "duration": 4, "velocity": 56}, {"time": 4053, "pitch": 55, "duration": 2, "velocity": 55}, {"time": 4059, "pitch": 55, "duration": 8, "velocity": 97}, {"time": 4059, "pitch": 58, "duration": 10, "velocity": 73}, {"time": 4059, "pitch": 61, "duration": 10, "velocity": 76}, {"time": 4065, "pitch": 51, "duration": 7, "velocity": 51}, {"time": 4071, "pitch": 55, "duration": 5, "velocity": 72}, {"time": 4077, "pitch": 58, "duration": 8, "velocity": 61}, {"time": 4083, "pitch": 59, "duration": 5, "velocity": 70}, {"time": 4089, "pitch": 40, "duration": 41, "velocity": 66}, {"time": 4089, "pitch": 56, "duration": 8, "velocity": 70}, {"time": 4089, "pitch": 59, "duration": 9, "velocity": 64}, {"time": 4089, "pitch": 63, "duration": 7, "velocity": 72}, {"time": 4095, "pitch": 52, "duration": 18, "velocity": 47}, {"time": 4101, "pitch": 56, "duration": 4, "velocity": 45}, {"time": 4107, "pitch": 56, "duration": 12, "velocity": 64}, {"time": 4107, "pitch": 59, "duration": 12, "velocity": 75}, {"time": 4107, "pitch": 64, "duration": 11, "velocity": 69}, {"time": 4119, "pitch": 52, "duration": 11, "velocity": 44}, {"time": 4125, "pitch": 56, "duration": 9, "velocity": 53}, {"time": 4125, "pitch": 59, "duration": 8, "velocity": 70}, {"time": 4125, "pitch": 64, "duration": 8, "velocity": 53}, {"time": 4131, "pitch": 47, "duration": 7, "velocity": 61}, {"time": 4131, "pitch": 63, "duration": 18, "velocity": 70}, {"time": 4137, "pitch": 40, "duration": 33, "velocity": 75}, {"time": 4137, "pitch": 56, "duration": 13, "velocity": 30}, {"time": 4143, "pitch": 47, "duration": 19, "velocity": 73}, {"time": 4143, "pitch": 59, "duration": 5, "velocity": 1}, {"time": 4143, "pitch": 64, "duration": 6, "velocity": 19}, {"time": 4149, "pitch": 52, "duration": 7, "velocity": 60}, {"time": 4155, "pitch": 56, "duration": 12, "velocity": 69}, {"time": 4155, "pitch": 59, "duration": 12, "velocity": 75}, {"time": 4155, "pitch": 64, "duration": 12, "velocity": 73}, {"time": 4167, "pitch": 47, "duration": 3, "velocity": 30}, {"time": 4167, "pitch": 52, "duration": 3, "velocity": 57}, {"time": 4173, "pitch": 56, "duration": 6, "velocity": 55}, {"time": 4179, "pitch": 64, "duration": 8, "velocity": 66}, {"time": 4185, "pitch": 42, "duration": 41, "velocity": 69}, {"time": 4185, "pitch": 58, "duration": 11, "velocity": 67}, {"time": 4185, "pitch": 61, "duration": 11, "velocity": 73}, {"time": 4185, "pitch": 64, "duration": 2, "velocity": 69}, {"time": 4185, "pitch": 66, "duration": 11, "velocity": 58}, {"time": 4191, "pitch": 49, "duration": 40, "velocity": 55}, {"time": 4197, "pitch": 54, "duration": 11, "velocity": 70}, {"time": 4203, "pitch": 58, "duration": 13, "velocity": 61}, {"time": 4203, "pitch": 61, "duration": 13, "velocity": 78}, {"time": 4203, "pitch": 66, "duration": 12, "velocity": 73}, {"time": 4215, "pitch": 54, "duration": 13, "velocity": 44}, {"time": 4221, "pitch": 58, "duration": 8, "velocity": 56}, {"time": 4227, "pitch": 61, "duration": 4, "velocity": 70}, {"time": 4233, "pitch": 42, "duration": 37, "velocity": 72}, {"time": 4233, "pitch": 58, "duration": 9, "velocity": 75}, {"time": 4233, "pitch": 61, "duration": 9, "velocity": 66}, {"time": 4233, "pitch": 66, "duration": 8, "velocity": 80}, {"time": 4239, "pitch": 54, "duration": 25, "velocity": 53}, {"time": 4245, "pitch": 58, "duration": 4, "velocity": 49}, {"time": 4251, "pitch": 61, "duration": 14, "velocity": 91}, {"time": 4263, "pitch": 63, "duration": 5, "velocity": 75}, {"time": 4269, "pitch": 54, "duration": 3, "velocity": 64}, {"time": 4281, "pitch": 45, "duration": 42, "velocity": 85}, {"time": 4281, "pitch": 61, "duration": 13, "velocity": 69}, {"time": 4281, "pitch": 64, "duration": 13, "velocity": 76}, {"time": 4281, "pitch": 69, "duration": 13, "velocity": 75}, {"time": 4287, "pitch": 52, "duration": 34, "velocity": 51}, {"time": 4293, "pitch": 57, "duration": 20, "velocity": 66}, {"time": 4299, "pitch": 61, "duration": 8, "velocity": 54}, {"time": 4311, "pitch": 61, "duration": 8, "velocity": 78}, {"time": 4311, "pitch": 64, "duration": 8, "velocity": 82}, {"time": 4311, "pitch": 69, "duration": 9, "velocity": 70}, {"time": 4317, "pitch": 57, "duration": 4, "velocity": 54}, {"time": 4323, "pitch": 61, "duration": 3, "velocity": 48}, {"time": 4335, "pitch": 61, "duration": 14, "velocity": 73}, {"time": 4335, "pitch": 64, "duration": 13, "velocity": 78}, {"time": 4335, "pitch": 69, "duration": 13, "velocity": 39}, {"time": 4341, "pitch": 45, "duration": 26, "velocity": 64}, {"time": 4347, "pitch": 57, "duration": 14, "velocity": 91}, {"time": 4359, "pitch": 61, "duration": 7, "velocity": 88}, {"time": 4359, "pitch": 64, "duration": 8, "velocity": 85}, {"time": 4359, "pitch": 69, "duration": 9, "velocity": 82}, {"time": 4365, "pitch": 57, "duration": 2, "velocity": 62}, {"time": 4377, "pitch": 47, "duration": 44, "velocity": 82}, {"time": 4377, "pitch": 61, "duration": 11, "velocity": 78}, {"time": 4377, "pitch": 63, "duration": 12, "velocity": 88}, {"time": 4377, "pitch": 66, "duration": 14, "velocity": 75}, {"time": 4383, "pitch": 54, "duration": 42, "velocity": 64}, {"time": 4389, "pitch": 59, "duration": 11, "velocity": 61}, {"time": 4395, "pitch": 61, "duration": 3, "velocity": 73}, {"time": 4395, "pitch": 63, "duration": 3, "velocity": 85}, {"time": 4395, "pitch": 71, "duration": 4, "velocity": 78}, {"time": 4407, "pitch": 59, "duration": 14, "velocity": 53}, {"time": 4413, "pitch": 75, "duration": 3, "velocity": 66}, {"time": 4413, "pitch": 83, "duration": 3, "velocity": 76}, {"time": 4419, "pitch": 73, "duration": 8, "velocity": 82}, {"time": 4419, "pitch": 82, "duration": 7, "velocity": 78}, {"time": 4419, "pitch": 83, "duration": 1, "velocity": 50}, {"time": 4425, "pitch": 47, "duration": 38, "velocity": 64}, {"time": 4431, "pitch": 54, "duration": 24, "velocity": 70}, {"time": 4437, "pitch": 59, "duration": 7, "velocity": 56}, {"time": 4443, "pitch": 70, "duration": 7, "velocity": 85}, {"time": 4443, "pitch": 78, "duration": 7, "velocity": 75}, {"time": 4449, "pitch": 59, "duration": 8, "velocity": 40}, {"time": 4455, "pitch": 70, "duration": 6, "velocity": 88}, {"time": 4455, "pitch": 73, "duration": 5, "velocity": 78}, {"time": 4461, "pitch": 54, "duration": 2, "velocity": 66}, {"time": 4473, "pitch": 37, "duration": 44, "velocity": 67}, {"time": 4473, "pitch": 49, "duration": 12, "velocity": 82}, {"time": 4473, "pitch": 61, "duration": 19, "velocity": 75}, {"time": 4473, "pitch": 65, "duration": 18, "velocity": 78}, {"time": 4473, "pitch": 68, "duration": 18, "velocity": 73}, {"time": 4473, "pitch": 70, "duration": 9, "velocity": 61}, {"time": 4473, "pitch": 73, "duration": 20, "velocity": 64}, {"time": 4491, "pitch": 49, "duration": 11, "velocity": 44}, {"time": 4497, "pitch": 61, "duration": 14, "velocity": 67}, {"time": 4497, "pitch": 65, "duration": 13, "velocity": 73}, {"time": 4497, "pitch": 68, "duration": 14, "velocity": 76}, {"time": 4497, "pitch": 70, "duration": 2, "velocity": 63}, {"time": 4497, "pitch": 73, "duration": 12, "velocity": 64}, {"time": 4509, "pitch": 49, "duration": 8, "velocity": 40}, {"time": 4521, "pitch": 61, "duration": 13, "velocity": 69}, {"time": 4521, "pitch": 65, "duration": 11, "velocity": 76}, {"time": 4521, "pitch": 68, "duration": 16, "velocity": 62}, {"time": 4539, "pitch": 37, "duration": 20, "velocity": 50}, {"time": 4539, "pitch": 49, "duration": 9, "velocity": 40}, {"time": 4545, "pitch": 61, "duration": 13, "velocity": 64}, {"time": 4545, "pitch": 65, "duration": 10, "velocity": 78}, {"time": 4545, "pitch": 68, "duration": 14, "velocity": 73}, {"time": 4557, "pitch": 49, "duration": 3, "velocity": 60}, {"time": 4569, "pitch": 61, "duration": 1, "velocity": 64}, {"time": 4569, "pitch": 63, "duration": 14, "velocity": 60}, {"time": 4569, "pitch": 66, "duration": 14, "velocity": 73}, {"time": 4569, "pitch": 70, "duration": 14, "velocity": 70}, {"time": 4572, "pitch": 42, "duration": 39, "velocity": 73}, {"time": 4581, "pitch": 49, "duration": 32, "velocity": 66}, {"time": 4587, "pitch": 54, "duration": 8, "velocity": 82}, {"time": 4593, "pitch": 61, "duration": 7, "velocity": 91}, {"time": 4593, "pitch": 66, "duration": 7, "velocity": 95}, {"time": 4593, "pitch": 70, "duration": 8, "velocity": 85}, {"time": 4602, "pitch": 54, "duration": 11, "velocity": 52}, {"time": 4605, "pitch": 63, "duration": 3, "velocity": 80}, {"time": 4605, "pitch": 66, "duration": 3, "velocity": 91}, {"time": 4605, "pitch": 71, "duration": 3, "velocity": 72}, {"time": 4611, "pitch": 61, "duration": 6, "velocity": 88}, {"time": 4611, "pitch": 66, "duration": 6, "velocity": 91}, {"time": 4611, "pitch": 70, "duration": 7, "velocity": 91}, {"time": 4617, "pitch": 42, "duration": 35, "velocity": 72}, {"time": 4623, "pitch": 49, "duration": 31, "velocity": 62}, {"time": 4629, "pitch": 54, "duration": 19, "velocity": 91}, {"time": 4632, "pitch": 59, "duration": 4, "velocity": 63}, {"time": 4635, "pitch": 61, "duration": 2, "velocity": 67}, {"time": 4638, "pitch": 66, "duration": 2, "velocity": 70}, {"time": 4641, "pitch": 71, "duration": 4, "velocity": 63}, {"time": 4644, "pitch": 73, "duration": 2, "velocity": 80}, {"time": 4647, "pitch": 78, "duration": 6, "velocity": 80}, {"time": 4650, "pitch": 83, "duration": 5, "velocity": 48}, {"time": 4653, "pitch": 54, "duration": 4, "velocity": 43}, {"time": 4656, "pitch": 85, "duration": 7, "velocity": 66}, {"time": 4659, "pitch": 87, "duration": 4, "velocity": 64}, {"time": 4662, "pitch": 90, "duration": 3, "velocity": 63}, {"time": 4665, "pitch": 47, "duration": 38, "velocity": 73}, {"time": 4665, "pitch": 61, "duration": 12, "velocity": 66}, {"time": 4665, "pitch": 63, "duration": 12, "velocity": 76}, {"time": 4665, "pitch": 66, "duration": 11, "velocity": 63}, {"time": 4665, "pitch": 71, "duration": 12, "velocity": 70}, {"time": 4671, "pitch": 54, "duration": 27, "velocity": 67}, {"time": 4677, "pitch": 59, "duration": 14, "velocity": 69}, {"time": 4683, "pitch": 61, "duration": 3, "velocity": 62}, {"time": 4683, "pitch": 66, "duration": 4, "velocity": 63}, {"time": 4689, "pitch": 61, "duration": 6, "velocity": 76}, {"time": 4689, "pitch": 66, "duration": 8, "velocity": 80}, {"time": 4695, "pitch": 59, "duration": 6, "velocity": 47}, {"time": 4698, "pitch": 63, "duration": 7, "velocity": 78}, {"time": 4698, "pitch": 71, "duration": 8, "velocity": 76}, {"time": 4701, "pitch": 54, "duration": 4, "velocity": 62}, {"time": 4707, "pitch": 70, "duration": 4, "velocity": 70}, {"time": 4707, "pitch": 71, "duration": 2, "velocity": 41}, {"time": 4713, "pitch": 46, "duration": 10, "velocity": 63}, {"time": 4713, "pitch": 61, "duration": 12, "velocity": 73}, {"time": 4713, "pitch": 66, "duration": 12, "velocity": 76}, {"time": 4713, "pitch": 70, "duration": 17, "velocity": 75}, {"time": 4719, "pitch": 54, "duration": 6, "velocity": 66}, {"time": 4725, "pitch": 58, "duration": 7, "velocity": 60}, {"time": 4731, "pitch": 61, "duration": 19, "velocity": 50}, {"time": 4737, "pitch": 63, "duration": 13, "velocity": 69}, {"time": 4743, "pitch": 66, "duration": 6, "velocity": 75}, {"time": 4749, "pitch": 70, "duration": 6, "velocity": 80}, {"time": 4755, "pitch": 71, "duration": 3, "velocity": 59}, {"time": 4761, "pitch": 40, "duration": 37, "velocity": 75}, {"time": 4761, "pitch": 59, "duration": 13, "velocity": 73}, {"time": 4761, "pitch": 64, "duration": 13, "velocity": 57}, {"time": 4761, "pitch": 68, "duration": 14, "velocity": 76}, {"time": 4767, "pitch": 47, "duration": 33, "velocity": 75}, {"time": 4773, "pitch": 52, "duration": 19, "velocity": 85}, {"time": 4779, "pitch": 59, "duration": 3, "velocity": 76}, {"time": 4779, "pitch": 68, "duration": 5, "velocity": 51}, {"time": 4791, "pitch": 59, "duration": 7, "velocity": 78}, {"time": 4791, "pitch": 66, "duration": 8, "velocity": 82}, {"time": 4797, "pitch": 52, "duration": 7, "velocity": 58}, {"time": 4803, "pitch": 59, "duration": 2, "velocity": 54}, {"time": 4803, "pitch": 64, "duration": 4, "velocity": 78}, {"time": 4809, "pitch": 47, "duration": 39, "velocity": 76}, {"time": 4809, "pitch": 63, "duration": 13, "velocity": 69}, {"time": 4809, "pitch": 66, "duration": 12, "velocity": 72}, {"time": 4809, "pitch": 71, "duration": 13, "velocity": 75}, {"time": 4815, "pitch": 54, "duration": 27, "velocity": 66}, {"time": 4821, "pitch": 59, "duration": 9, "velocity": 69}, {"time": 4827, "pitch": 61, "duration": 8, "velocity": 70}, {"time": 4827, "pitch": 70, "duration": 10, "velocity": 61}, {"time": 4833, "pitch": 59, "duration": 6, "velocity": 41}, {"time": 4839, "pitch": 63, "duration": 9, "velocity": 88}, {"time": 4839, "pitch": 71, "duration": 15, "velocity": 76}, {"time": 4845, "pitch": 54, "duration": 3, "velocity": 44}, {"time": 4845, "pitch": 59, "duration": 3, "velocity": 63}, {"time": 4851, "pitch": 66, "duration": 5, "velocity": 61}, {"time": 4857, "pitch": 44, "duration": 10, "velocity": 78}, {"time": 4857, "pitch": 63, "duration": 23, "velocity": 76}, {"time": 4857, "pitch": 68, "duration": 25, "velocity": 78}, {"time": 4857, "pitch": 71, "duration": 25, "velocity": 78}, {"time": 4863, "pitch": 51, "duration": 6, "velocity": 63}, {"time": 4869, "pitch": 56, "duration": 8, "velocity": 64}, {"time": 4875, "pitch": 58, "duration": 16, "velocity": 61}, {"time": 4881, "pitch": 59, "duration": 10, "velocity": 63}, {"time": 4887, "pitch": 63, "duration": 3, "velocity": 85}, {"time": 4893, "pitch": 68, "duration": 6, "velocity": 75}, {"time": 4899, "pitch": 71, "duration": 4, "velocity": 72}, {"time": 4905, "pitch": 42, "duration": 10, "velocity": 75}, {"time": 4905, "pitch": 61, "duration": 19, "velocity": 69}, {"time": 4905, "pitch": 66, "duration": 24, "velocity": 73}, {"time": 4905, "pitch": 70, "duration": 26, "velocity": 60}, {"time": 4911, "pitch": 49, "duration": 6, "velocity": 60}, {"time": 4917, "pitch": 54, "duration": 8, "velocity": 46}, {"time": 4923, "pitch": 56, "duration": 16, "velocity": 59}, {"time": 4929, "pitch": 58, "duration": 9, "velocity": 63}, {"time": 4935, "pitch": 61, "duration": 5, "velocity": 91}, {"time": 4941, "pitch": 66, "duration": 6, "velocity": 58}, {"time": 4947, "pitch": 71, "duration": 26, "velocity": 67}, {"time": 4953, "pitch": 40, "duration": 41, "velocity": 75}, {"time": 4953, "pitch": 59, "duration": 13, "velocity": 75}, {"time": 4953, "pitch": 64, "duration": 13, "velocity": 62}, {"time": 4953, "pitch": 68, "duration": 14, "velocity": 70}, {"time": 4959, "pitch": 47, "duration": 42, "velocity": 61}, {"time": 4965, "pitch": 52, "duration": 20, "velocity": 46}, {"time": 4971, "pitch": 59, "duration": 8, "velocity": 61}, {"time": 4977, "pitch": 64, "duration": 4, "velocity": 69}, {"time": 4983, "pitch": 59, "duration": 9, "velocity": 75}, {"time": 4983, "pitch": 64, "duration": 12, "velocity": 76}, {"time": 4983, "pitch": 68, "duration": 10, "velocity": 73}, {"time": 4989, "pitch": 52, "duration": 8, "velocity": 62}, {"time": 4995, "pitch": 59, "duration": 3, "velocity": 50}, {"time": 5001, "pitch": 42, "duration": 41, "velocity": 76}, {"time": 5001, "pitch": 61, "duration": 14, "velocity": 75}, {"time": 5001, "pitch": 66, "duration": 14, "velocity": 76}, {"time": 5001, "pitch": 70, "duration": 13, "velocity": 75}, {"time": 5007, "pitch": 49, "duration": 36, "velocity": 72}, {"time": 5013, "pitch": 54, "duration": 7, "velocity": 72}, {"time": 5019, "pitch": 59, "duration": 9, "velocity": 85}, {"time": 5019, "pitch": 64, "duration": 15, "velocity": 82}, {"time": 5019, "pitch": 68, "duration": 14, "velocity": 85}, {"time": 5031, "pitch": 54, "duration": 6, "velocity": 61}, {"time": 5037, "pitch": 59, "duration": 6, "velocity": 82}, {"time": 5037, "pitch": 64, "duration": 1, "velocity": 42}, {"time": 5037, "pitch": 66, "duration": 9, "velocity": 51}, {"time": 5043, "pitch": 54, "duration": 5, "velocity": 61}, {"time": 5049, "pitch": 47, "duration": 43, "velocity": 67}, {"time": 5049, "pitch": 61, "duration": 2, "velocity": 55}, {"time": 5049, "pitch": 63, "duration": 13, "velocity": 60}, {"time": 5049, "pitch": 66, "duration": 13, "velocity": 70}, {"time": 5049, "pitch": 71, "duration": 13, "velocity": 75}, {"time": 5055, "pitch": 54, "duration": 30, "velocity": 51}, {"time": 5061, "pitch": 59, "duration": 18, "velocity": 73}, {"time": 5067, "pitch": 61, "duration": 4, "velocity": 72}, {"time": 5067, "pitch": 66, "duration": 10, "velocity": 69}, {"time": 5079, "pitch": 63, "duration": 9, "velocity": 91}, {"time": 5079, "pitch": 71, "duration": 8, "velocity": 80}, {"time": 5085, "pitch": 59, "duration": 5, "velocity": 73}, {"time": 5091, "pitch": 54, "duration": 5, "velocity": 63}, {"time": 5091, "pitch": 73, "duration": 4, "velocity": 75}, {"time": 5097, "pitch": 46, "duration": 10, "velocity": 69}, {"time": 5097, "pitch": 61, "duration": 5, "velocity": 72}, {"time": 5097, "pitch": 66, "duration": 5, "velocity": 64}, {"time": 5097, "pitch": 70, "duration": 8, "velocity": 73}, {"time": 5103, "pitch": 54, "duration": 6, "velocity": 67}, {"time": 5109, "pitch": 58, "duration": 8, "velocity": 64}, {"time": 5115, "pitch": 59, "duration": 9, "velocity": 50}, {"time": 5115, "pitch": 75, "duration": 4, "velocity": 75}, {"time": 5115, "pitch": 83, "duration": 6, "velocity": 78}, {"time": 5121, "pitch": 61, "duration": 16, "velocity": 64}, {"time": 5121, "pitch": 73, "duration": 4, "velocity": 85}, {"time": 5121, "pitch": 82, "duration": 6, "velocity": 78}, {"time": 5121, "pitch": 83, "duration": 2, "velocity": 49}, {"time": 5127, "pitch": 63, "duration": 5, "velocity": 69}, {"time": 5130, "pitch": 71, "duration": 7, "velocity": 88}, {"time": 5130, "pitch": 78, "duration": 7, "velocity": 88}, {"time": 5133, "pitch": 63, "duration": 3, "velocity": 64}, {"time": 5139, "pitch": 75, "duration": 3, "velocity": 88}, {"time": 5145, "pitch": 52, "duration": 8, "velocity": 70}, {"time": 5145, "pitch": 71, "duration": 11, "velocity": 73}, {"time": 5145, "pitch": 76, "duration": 12, "velocity": 91}, {"time": 5145, "pitch": 80, "duration": 12, "velocity": 75}, {"time": 5151, "pitch": 59, "duration": 5, "velocity": 67}, {"time": 5157, "pitch": 64, "duration": 7, "velocity": 60}, {"time": 5163, "pitch": 66, "duration": 18, "velocity": 49}, {"time": 5163, "pitch": 71, "duration": 5, "velocity": 55}, {"time": 5169, "pitch": 68, "duration": 12, "velocity": 72}, {"time": 5169, "pitch": 71, "duration": 1, "velocity": 38}, {"time": 5169, "pitch": 76, "duration": 5, "velocity": 88}, {"time": 5175, "pitch": 78, "duration": 4, "velocity": 78}, {"time": 5181, "pitch": 78, "duration": 3, "velocity": 55}, {"time": 5187, "pitch": 83, "duration": 5, "velocity": 66}, {"time": 5193, "pitch": 47, "duration": 10, "velocity": 75}, {"time": 5193, "pitch": 78, "duration": 10, "velocity": 58}, {"time": 5193, "pitch": 87, "duration": 14, "velocity": 70}, {"time": 5199, "pitch": 54, "duration": 5, "velocity": 50}, {"time": 5205, "pitch": 59, "duration": 8, "velocity": 48}, {"time": 5211, "pitch": 61, "duration": 15, "velocity": 52}, {"time": 5217, "pitch": 63, "duration": 13, "velocity": 55}, {"time": 5226, "pitch": 64, "duration": 7, "velocity": 60}, {"time": 5232, "pitch": 87, "duration": 6, "velocity": 82}, {"time": 5238, "pitch": 85, "duration": 5, "velocity": 57}, {"time": 5241, "pitch": 56, "duration": 39, "velocity": 69}, {"time": 5241, "pitch": 80, "duration": 8, "velocity": 57}, {"time": 5241, "pitch": 83, "duration": 12, "velocity": 73}, {"time": 5247, "pitch": 63, "duration": 25, "velocity": 60}, {"time": 5253, "pitch": 68, "duration": 7, "velocity": 63}, {"time": 5259, "pitch": 75, "duration": 3, "velocity": 61}, {"time": 5259, "pitch": 83, "duration": 3, "velocity": 64}, {"time": 5265, "pitch": 73, "duration": 5, "velocity": 72}, {"time": 5265, "pitch": 82, "duration": 5, "velocity": 73}, {"time": 5268, "pitch": 68, "duration": 6, "velocity": 49}, {"time": 5274, "pitch": 75, "duration": 4, "velocity": 72}, {"time": 5274, "pitch": 83, "duration": 4, "velocity": 80}, {"time": 5277, "pitch": 63, "duration": 3, "velocity": 62}, {"time": 5283, "pitch": 75, "duration": 3, "velocity": 59}, {"time": 5283, "pitch": 82, "duration": 5, "velocity": 66}, {"time": 5289, "pitch": 51, "duration": 9, "velocity": 75}, {"time": 5289, "pitch": 73, "duration": 17, "velocity": 73}, {"time": 5289, "pitch": 78, "duration": 21, "velocity": 76}, {"time": 5295, "pitch": 58, "duration": 5, "velocity": 62}, {"time": 5301, "pitch": 61, "duration": 8, "velocity": 45}, {"time": 5307, "pitch": 63, "duration": 17, "velocity": 53}, {"time": 5313, "pitch": 66, "duration": 10, "velocity": 64}, {"time": 5313, "pitch": 75, "duration": 5, "velocity": 75}, {"time": 5313, "pitch": 83, "duration": 6, "velocity": 76}, {"time": 5319, "pitch": 70, "duration": 5, "velocity": 85}, {"time": 5322, "pitch": 75, "duration": 5, "velocity": 73}, {"time": 5322, "pitch": 82, "duration": 4, "velocity": 75}, {"time": 5331, "pitch": 78, "duration": 5, "velocity": 75}, {"time": 5337, "pitch": 52, "duration": 38, "velocity": 70}, {"time": 5337, "pitch": 71, "duration": 12, "velocity": 57}, {"time": 5337, "pitch": 76, "duration": 11, "velocity": 67}, {"time": 5337, "pitch": 80, "duration": 11, "velocity": 69}, {"time": 5343, "pitch": 59, "duration": 24, "velocity": 66}, {"time": 5349, "pitch": 64, "duration": 19, "velocity": 67}, {"time": 5355, "pitch": 68, "duration": 5, "velocity": 75}, {"time": 5361, "pitch": 68, "duration": 1, "velocity": 42}, {"time": 5361, "pitch": 71, "duration": 4, "velocity": 73}, {"time": 5367, "pitch": 68, "duration": 8, "velocity": 63}, {"time": 5367, "pitch": 76, "duration": 9, "velocity": 76}, {"time": 5373, "pitch": 59, "duration": 3, "velocity": 67}, {"time": 5379, "pitch": 73, "duration": 3, "velocity": 66}, {"time": 5385, "pitch": 42, "duration": 37, "velocity": 69}, {"time": 5385, "pitch": 66, "duration": 9, "velocity": 76}, {"time": 5385, "pitch": 75, "duration": 8, "velocity": 72}, {"time": 5391, "pitch": 49, "duration": 32, "velocity": 66}, {"time": 5397, "pitch": 54, "duration": 19, "velocity": 60}, {"time": 5403, "pitch": 59, "duration": 6, "velocity": 80}, {"time": 5409, "pitch": 61, "duration": 3, "velocity": 63}, {"time": 5415, "pitch": 66, "duration": 5, "velocity": 73}, {"time": 5421, "pitch": 54, "duration": 4, "velocity": 39}, {"time": 5421, "pitch": 71, "duration": 5, "velocity": 63}, {"time": 5427, "pitch": 73, "duration": 4, "velocity": 53}, {"time": 5433, "pitch": 47, "duration": 34, "velocity": 72}, {"time": 5433, "pitch": 66, "duration": 10, "velocity": 69}, {"time": 5433, "pitch": 75, "duration": 9, "velocity": 61}, {"time": 5439, "pitch": 54, "duration": 16, "velocity": 61}, {"time": 5445, "pitch": 59, "duration": 19, "velocity": 43}, {"time": 5451, "pitch": 64, "duration": 14, "velocity": 78}, {"time": 5463, "pitch": 54, "duration": 16, "velocity": 54}, {"time": 5469, "pitch": 61, "duration": 6, "velocity": 85}, {"time": 5475, "pitch": 64, "duration": 5, "velocity": 76}, {"time": 5481, "pitch": 47, "duration": 36, "velocity": 76}, {"time": 5481, "pitch": 61, "duration": 31, "velocity": 66}, {"time": 5481, "pitch": 63, "duration": 32, "velocity": 44}, {"time": 5484, "pitch": 75, "duration": 2, "velocity": 55}, {"time": 5511, "pitch": 61, "duration": 1, "velocity": 44}, {"time": 5517, "pitch": 66, "duration": 7, "velocity": 39}, {"time": 5523, "pitch": 73, "duration": 8, "velocity": 57}, {"time": 5529, "pitch": 47, "duration": 9, "velocity": 57}, {"time": 5529, "pitch": 71, "duration": 4, "velocity": 57}, {"time": 5535, "pitch": 54, "duration": 6, "velocity": 49}, {"time": 5535, "pitch": 70, "duration": 4, "velocity": 45}, {"time": 5541, "pitch": 59, "duration": 8, "velocity": 47}, {"time": 5541, "pitch": 71, "duration": 5, "velocity": 50}, {"time": 5547, "pitch": 61, "duration": 69, "velocity": 57}, {"time": 5547, "pitch": 78, "duration": 7, "velocity": 64}, {"time": 5553, "pitch": 63, "duration": 36, "velocity": 56}, {"time": 5559, "pitch": 70, "duration": 3, "velocity": 42}, {"time": 5565, "pitch": 71, "duration": 4, "velocity": 45}, {"time": 5571, "pitch": 78, "duration": 6, "velocity": 61}, {"time": 5583, "pitch": 70, "duration": 5, "velocity": 44}, {"time": 5589, "pitch": 71, "duration": 6, "velocity": 40}, {"time": 5595, "pitch": 78, "duration": 2, "velocity": 72}, {"time": 5607, "pitch": 87, "duration": 2, "velocity": 70}, {"time": 5625, "pitch": 44, "duration": 9, "velocity": 64}, {"time": 5625, "pitch": 71, "duration": 4, "velocity": 55}, {"time": 5631, "pitch": 70, "duration": 4, "velocity": 53}, {"time": 5637, "pitch": 51, "duration": 5, "velocity": 51}, {"time": 5637, "pitch": 71, "duration": 4, "velocity": 56}, {"time": 5643, "pitch": 56, "duration": 7, "velocity": 45}, {"time": 5643, "pitch": 78, "duration": 8, "velocity": 70}, {"time": 5649, "pitch": 58, "duration": 61, "velocity": 64}, {"time": 5655, "pitch": 70, "duration": 3, "velocity": 39}, {"time": 5661, "pitch": 71, "duration": 4, "velocity": 49}, {"time": 5667, "pitch": 78, "duration": 7, "velocity": 64}, {"time": 5673, "pitch": 59, "duration": 36, "velocity": 39}, {"time": 5679, "pitch": 70, "duration": 4, "velocity": 36}, {"time": 5685, "pitch": 71, "duration": 6, "velocity": 29}, {"time": 5691, "pitch": 78, "duration": 2, "velocity": 73}, {"time": 5697, "pitch": 61, "duration": 10, "velocity": 38}, {"time": 5703, "pitch": 90, "duration": 5, "velocity": 48}, {"time": 5709, "pitch": 87, "duration": 2, "velocity": 70}, {"time": 5721, "pitch": 52, "duration": 16, "velocity": 67}, {"time": 5727, "pitch": 59, "duration": 44, "velocity": 41}, {"time": 5727, "pitch": 71, "duration": 4, "velocity": 49}, {"time": 5733, "pitch": 75, "duration": 7, "velocity": 56}, {"time": 5739, "pitch": 76, "duration": 6, "velocity": 70}, {"time": 5745, "pitch": 64, "duration": 13, "velocity": 39}, {"time": 5751, "pitch": 80, "duration": 4, "velocity": 49}, {"time": 5757, "pitch": 75, "duration": 4, "velocity": 49}, {"time": 5763, "pitch": 76, "duration": 8, "velocity": 66}, {"time": 5769, "pitch": 52, "duration": 35, "velocity": 47}, {"time": 5775, "pitch": 59, "duration": 31, "velocity": 45}, {"time": 5775, "pitch": 71, "duration": 3, "velocity": 46}, {"time": 5781, "pitch": 73, "duration": 4, "velocity": 49}, {"time": 5787, "pitch": 76, "duration": 3, "velocity": 62}, {"time": 5790, "pitch": 75, "duration": 8, "velocity": 35}, {"time": 5799, "pitch": 75, "duration": 5, "velocity": 62}, {"time": 5799, "pitch": 92, "duration": 4, "velocity": 49}, {"time": 5805, "pitch": 73, "duration": 3, "velocity": 56}, {"time": 5805, "pitch": 88, "duration": 4, "velocity": 49}, {"time": 5817, "pitch": 42, "duration": 10, "velocity": 57}, {"time": 5823, "pitch": 49, "duration": 6, "velocity": 44}, {"time": 5823, "pitch": 66, "duration": 4, "velocity": 49}, {"time": 5829, "pitch": 54, "duration": 7, "velocity": 42}, {"time": 5829, "pitch": 71, "duration": 4, "velocity": 49}, {"time": 5835, "pitch": 56, "duration": 44, "velocity": 64}, {"time": 5835, "pitch": 73, "duration": 4, "velocity": 49}, {"time": 5841, "pitch": 58, "duration": 29, "velocity": 58}, {"time": 5847, "pitch": 66, "duration": 4, "velocity": 51}, {"time": 5853, "pitch": 71, "duration": 4, "velocity": 48}, {"time": 5859, "pitch": 73, "duration": 6, "velocity": 58}, {"time": 5865, "pitch": 76, "duration": 4, "velocity": 49}, {"time": 5871, "pitch": 68, "duration": 3, "velocity": 49}, {"time": 5877, "pitch": 73, "duration": 3, "velocity": 49}, {"time": 5883, "pitch": 70, "duration": 3, "velocity": 49}, {"time": 5889, "pitch": 66, "duration": 3, "velocity": 49}, {"time": 5895, "pitch": 64, "duration": 3, "velocity": 49}, {"time": 5901, "pitch": 61, "duration": 3, "velocity": 49}, {"time": 5907, "pitch": 58, "duration": 3, "velocity": 49}, {"time": 5913, "pitch": 47, "duration": 9, "velocity": 57}, {"time": 5913, "pitch": 54, "duration": 3, "velocity": 49}, {"time": 5913, "pitch": 71, "duration": 4, "velocity": 57}, {"time": 5919, "pitch": 54, "duration": 6, "velocity": 49}, {"time": 5919, "pitch": 70, "duration": 4, "velocity": 45}, {"time": 5925, "pitch": 59, "duration": 8, "velocity": 47}, {"time": 5925, "pitch": 71, "duration": 5, "velocity": 50}, {"time": 5931, "pitch": 61, "duration": 69, "velocity": 57}, {"time": 5931, "pitch": 78, "duration": 7, "velocity": 64}, {"time": 5937, "pitch": 63, "duration": 36, "velocity": 56}, {"time": 5943, "pitch": 70, "duration": 3, "velocity": 42}, {"time": 5949, "pitch": 71, "duration": 4, "velocity": 45}, {"time": 5955, "pitch": 78, "duration": 6, "velocity": 61}, {"time": 5967, "pitch": 70, "duration": 5, "velocity": 44}, {"time": 5973, "pitch": 71, "duration": 6, "velocity": 40}, {"time": 5979, "pitch": 78, "duration": 2, "velocity": 72}, {"time": 5991, "pitch": 87, "duration": 2, "velocity": 70}, {"time": 6009, "pitch": 44, "duration": 9, "velocity": 64}, {"time": 6009, "pitch": 71, "duration": 4, "velocity": 55}, {"time": 6015, "pitch": 70, "duration": 4, "velocity": 53}, {"time": 6021, "pitch": 51, "duration": 5, "velocity": 51}, {"time": 6021, "pitch": 71, "duration": 4, "velocity": 56}, {"time": 6027, "pitch": 56, "duration": 7, "velocity": 45}, {"time": 6027, "pitch": 78, "duration": 8, "velocity": 70}, {"time": 6033, "pitch": 58, "duration": 61, "velocity": 64}, {"time": 6039, "pitch": 70, "duration": 3, "velocity": 39}, {"time": 6045, "pitch": 71, "duration": 4, "velocity": 49}, {"time": 6051, "pitch": 78, "duration": 7, "velocity": 64}, {"time": 6057, "pitch": 59, "duration": 36, "velocity": 39}, {"time": 6063, "pitch": 70, "duration": 4, "velocity": 36}, {"time": 6069, "pitch": 64, "duration": 4, "velocity": 72}, {"time": 6069, "pitch": 71, "duration": 6, "velocity": 29}, {"time": 6075, "pitch": 66, "duration": 4, "velocity": 61}, {"time": 6075, "pitch": 78, "duration": 2, "velocity": 73}, {"time": 6081, "pitch": 61, "duration": 10, "velocity": 38}, {"time": 6081, "pitch": 61, "duration": 10, "velocity": 62}, {"time": 6087, "pitch": 90, "duration": 5, "velocity": 48}, {"time": 6093, "pitch": 87, "duration": 2, "velocity": 70}], "annotations": [{"time": 10, "annotation": {"number": 64, "value": 127}, "group": "control_change"}, {"time": 47, "annotation": {"number": 64, "value": 0}, "group": "control_change"}, {"time": 57, "annotation": {"number": 64, "value": 127}, "group": "control_change"}, {"time": 153, "annotation": {"number": 64, "value": 0}, "group": "control_change"}, {"time": 156, "annotation": {"number": 64, "value": 127}, "group": "control_change"}, {"time": 248, "annotation": {"number": 64, "value": 0}, "group": "control_change"}, {"time": 251, "annotation": {"number": 64, "value": 127}, "group": "control_change"}, {"time": 344, "annotation": {"number": 64, "value": 0}, "group": "control_change"}, {"time": 346, "annotation": {"number": 64, "value": 127}, "group": "control_change"}, {"time": 585, "annotation": {"number": 64, "value": 0}, "group": "control_change"}, {"time": 633, "annotation": {"number": 64, "value": 127}, "group": "control_change"}, {"time": 728, "annotation": {"number": 64, "value": 0}, "group": "control_change"}, {"time": 732, "annotation": {"number": 64, "value": 127}, "group": "control_change"}, {"time": 777, "annotation": {"number": 64, "value": 0}, "group": "control_change"}, {"time": 782, "annotation": {"number": 64, "value": 127}, "group": "control_change"}, {"time": 824, "annotation": {"number": 64, "value": 0}, "group": "control_change"}, {"time": 828, "annotation": {"number": 64, "value": 127}, "group": "control_change"}, {"time": 871, "annotation": {"number": 64, "value": 0}, "group": "control_change"}, {"time": 876, "annotation": {"number": 64, "value": 127}, "group": "control_change"}, {"time": 921, "annotation": {"number": 64, "value": 0}, "group": "control_change"}, {"time": 926, "annotation": {"number": 64, "value": 127}, "group": "control_change"}, {"time": 967, "annotation": {"number": 64, "value": 0}, "group": "control_change"}, {"time": 972, "annotation": {"number": 64, "value": 127}, "group": "control_change"}, {"time": 1016, "annotation": {"number": 64, "value": 0}, "group": "control_change"}, {"time": 1021, "annotation": {"number": 64, "value": 127}, "group": "control_change"}, {"time": 1064, "annotation": {"number": 64, "value": 0}, "group": "control_change"}, {"time": 1069, "annotation": {"number": 64, "value": 127}, "group": "control_change"}, {"time": 1113, "annotation": {"number": 64, "value": 0}, "group": "control_change"}, {"time": 1118, "annotation": {"number": 64, "value": 127}, "group": "control_change"}, {"time": 1162, "annotation": {"number": 64, "value": 0}, "group": "control_change"}, {"time": 1167, "annotation": {"number": 64, "value": 127}, "group": "control_change"}, {"time": 1207, "annotation": {"number": 64, "value": 0}, "group": "control_change"}, {"time": 1210, "annotation": {"number": 64, "value": 127}, "group": "control_change"}, {"time": 1255, "annotation": {"number": 64, "value": 0}, "group": "control_change"}, {"time": 1260, "annotation": {"number": 64, "value": 127}, "group": "control_change"}, {"time": 1305, "annotation": {"number": 64, "value": 0}, "group": "control_change"}, {"time": 1307, "annotation": {"number": 64, "value": 127}, "group": "control_change"}, {"time": 1352, "annotation": {"number": 64, "value": 0}, "group": "control_change"}, {"time": 1358, "annotation": {"number": 64, "value": 127}, "group": "control_change"}, {"time": 1400, "annotation": {"number": 64, "value": 0}, "group": "control_change"}, {"time": 1405, "annotation": {"number": 64, "value": 127}, "group": "control_change"}, {"time": 1450, "annotation": {"number": 64, "value": 0}, "group": "control_change"}, {"time": 1456, "annotation": {"number": 64, "value": 127}, "group": "control_change"}, {"time": 1497, "annotation": {"number": 64, "value": 0}, "group": "control_change"}, {"time": 1499, "annotation": {"number": 64, "value": 127}, "group": "control_change"}, {"time": 1545, "annotation": {"number": 64, "value": 0}, "group": "control_change"}, {"time": 1547, "annotation": {"number": 64, "value": 127}, "group": "control_change"}, {"time": 1570, "annotation": {"number": 64, "value": 0}, "group": "control_change"}, {"time": 1575, "annotation": {"number": 64, "value": 127}, "group": "control_change"}, {"time": 1593, "annotation": {"number": 64, "value": 0}, "group": "control_change"}, {"time": 1598, "annotation": {"number": 64, "value": 127}, "group": "control_change"}, {"time": 1642, "annotation": {"number": 64, "value": 0}, "group": "control_change"}, {"time": 1647, "annotation": {"number": 64, "value": 127}, "group": "control_change"}, {"time": 1691, "annotation": {"number": 64, "value": 0}, "group": "control_change"}, {"time": 1696, "annotation": {"number": 64, "value": 127}, "group": "control_change"}, {"time": 1738, "annotation": {"number": 64, "value": 0}, "group": "control_change"}, {"time": 1742, "annotation": {"number": 64, "value": 127}, "group": "control_change"}, {"time": 1785, "annotation": {"number": 64, "value": 0}, "group": "control_change"}, {"time": 1789, "annotation": {"number": 64, "value": 127}, "group": "control_change"}, {"time": 1831, "annotation": {"number": 64, "value": 0}, "group": "control_change"}, {"time": 1834, "annotation": {"number": 64, "value": 127}, "group": "control_change"}, {"time": 1880, "annotation": {"number": 64, "value": 0}, "group": "control_change"}, {"time": 1885, "annotation": {"number": 64, "value": 127}, "group": "control_change"}, {"time": 1928, "annotation": {"number": 64, "value": 0}, "group": "control_change"}, {"time": 1933, "annotation": {"number": 64, "value": 127}, "group": "control_change"}, {"time": 1964, "annotation": {"number": 64, "value": 0}, "group": "control_change"}, {"time": 1968, "annotation": {"number": 64, "value": 127}, "group": "control_change"}, {"time": 1976, "annotation": {"number": 64, "value": 0}, "group": "control_change"}, {"time": 1980, "annotation": {"number": 64, "value": 127}, "group": "control_change"}, {"time": 2026, "annotation": {"number": 64, "value": 0}, "group": "control_change"}, {"time": 2031, "annotation": {"number": 64, "value": 127}, "group": "control_change"}, {"time": 2073, "annotation": {"number": 64, "value": 0}, "group": "control_change"}, {"time": 2078, "annotation": {"number": 64, "value": 127}, "group": "control_change"}, {"time": 2119, "annotation": {"number": 64, "value": 0}, "group": "control_change"}, {"time": 2124, "annotation": {"number": 64, "value": 127}, "group": "control_change"}, {"time": 2169, "annotation": {"number": 64, "value": 0}, "group": "control_change"}, {"time": 2174, "annotation": {"number": 64, "value": 127}, "group": "control_change"}, {"time": 2263, "annotation": {"number": 64, "value": 0}, "group": "control_change"}, {"time": 2268, "annotation": {"number": 64, "value": 127}, "group": "control_change"}, {"time": 2362, "annotation": {"number": 64, "value": 0}, "group": "control_change"}, {"time": 2367, "annotation": {"number": 64, "value": 127}, "group": "control_change"}, {"time": 2410, "annotation": {"number": 64, "value": 0}, "group": "control_change"}, {"time": 2415, "annotation": {"number": 64, "value": 127}, "group": "control_change"}, {"time": 2458, "annotation": {"number": 64, "value": 0}, "group": "control_change"}, {"time": 2463, "annotation": {"number": 64, "value": 127}, "group": "control_change"}, {"time": 2505, "annotation": {"number": 64, "value": 0}, "group": "control_change"}, {"time": 2510, "annotation": {"number": 64, "value": 127}, "group": "control_change"}, {"time": 2552, "annotation": {"number": 64, "value": 0}, "group": "control_change"}, {"time": 2557, "annotation": {"number": 64, "value": 127}, "group": "control_change"}, {"time": 2599, "annotation": {"number": 64, "value": 0}, "group": "control_change"}, {"time": 2603, "annotation": {"number": 64, "value": 127}, "group": "control_change"}, {"time": 2648, "annotation": {"number": 64, "value": 0}, "group": "control_change"}, {"time": 2652, "annotation": {"number": 64, "value": 127}, "group": "control_change"}, {"time": 2696, "annotation": {"number": 64, "value": 0}, "group": "control_change"}, {"time": 2700, "annotation": {"number": 64, "value": 127}, "group": "control_change"}, {"time": 2745, "annotation": {"number": 64, "value": 0}, "group": "control_change"}, {"time": 2749, "annotation": {"number": 64, "value": 127}, "group": "control_change"}, {"time": 2794, "annotation": {"number": 64, "value": 0}, "group": "control_change"}, {"time": 2798, "annotation": {"number": 64, "value": 127}, "group": "control_change"}, {"time": 2840, "annotation": {"number": 64, "value": 0}, "group": "control_change"}, {"time": 2845, "annotation": {"number": 64, "value": 127}, "group": "control_change"}, {"time": 2849, "annotation": {"number": 64, "value": 0}, "group": "control_change"}, {"time": 2850, "annotation": {"number": 64, "value": 127}, "group": "control_change"}, {"time": 2888, "annotation": {"number": 64, "value": 0}, "group": "control_change"}, {"time": 2892, "annotation": {"number": 64, "value": 127}, "group": "control_change"}, {"time": 2936, "annotation": {"number": 64, "value": 0}, "group": "control_change"}, {"time": 2941, "annotation": {"number": 64, "value": 127}, "group": "control_change"}, {"time": 2983, "annotation": {"number": 64, "value": 0}, "group": "control_change"}, {"time": 2988, "annotation": {"number": 64, "value": 127}, "group": "control_change"}, {"time": 3006, "annotation": {"number": 64, "value": 0}, "group": "control_change"}, {"time": 3010, "annotation": {"number": 64, "value": 127}, "group": "control_change"}, {"time": 3015, "annotation": {"number": 64, "value": 0}, "group": "control_change"}, {"time": 3019, "annotation": {"number": 64, "value": 127}, "group": "control_change"}, {"time": 3030, "annotation": {"number": 64, "value": 0}, "group": "control_change"}, {"time": 3034, "annotation": {"number": 64, "value": 127}, "group": "control_change"}, {"time": 3078, "annotation": {"number": 64, "value": 0}, "group": "control_change"}, {"time": 3085, "annotation": {"number": 64, "value": 127}, "group": "control_change"}, {"time": 3134, "annotation": {"number": 64, "value": 0}, "group": "control_change"}, {"time": 3141, "annotation": {"number": 64, "value": 127}, "group": "control_change"}, {"time": 3156, "annotation": {"number": 64, "value": 0}, "group": "control_change"}, {"time": 3161, "annotation": {"number": 64, "value": 127}, "group": "control_change"}, {"time": 3179, "annotation": {"number": 64, "value": 0}, "group": "control_change"}, {"time": 3185, "annotation": {"number": 64, "value": 127}, "group": "control_change"}, {"time": 3227, "annotation": {"number": 64, "value": 0}, "group": "control_change"}, {"time": 3232, "annotation": {"number": 64, "value": 127}, "group": "control_change"}, {"time": 3275, "annotation": {"number": 64, "value": 0}, "group": "control_change"}, {"time": 3280, "annotation": {"number": 64, "value": 127}, "group": "control_change"}, {"time": 3323, "annotation": {"number": 64, "value": 0}, "group": "control_change"}, {"time": 3329, "annotation": {"number": 64, "value": 127}, "group": "control_change"}, {"time": 3370, "annotation": {"number": 64, "value": 0}, "group": "control_change"}, {"time": 3374, "annotation": {"number": 64, "value": 127}, "group": "control_change"}, {"time": 3418, "annotation": {"number": 64, "value": 0}, "group": "control_change"}, {"time": 3423, "annotation": {"number": 64, "value": 127}, "group": "control_change"}, {"time": 3466, "annotation": {"number": 64, "value": 0}, "group": "control_change"}, {"time": 3471, "annotation": {"number": 64, "value": 127}, "group": "control_change"}, {"time": 3513, "annotation": {"number": 64, "value": 0}, "group": "control_change"}, {"time": 3518, "annotation": {"number": 64, "value": 127}, "group": "control_change"}, {"time": 3561, "annotation": {"number": 64, "value": 0}, "group": "control_change"}, {"time": 3565, "annotation": {"number": 64, "value": 127}, "group": "control_change"}, {"time": 3609, "annotation": {"number": 64, "value": 0}, "group": "control_change"}, {"time": 3613, "annotation": {"number": 64, "value": 127}, "group": "control_change"}, {"time": 3660, "annotation": {"number": 64, "value": 0}, "group": "control_change"}, {"time": 3670, "annotation": {"number": 64, "value": 127}, "group": "control_change"}, {"time": 3708, "annotation": {"number": 64, "value": 0}, "group": "control_change"}, {"time": 3714, "annotation": {"number": 64, "value": 127}, "group": "control_change"}, {"time": 3755, "annotation": {"number": 64, "value": 0}, "group": "control_change"}, {"time": 3759, "annotation": {"number": 64, "value": 127}, "group": "control_change"}, {"time": 3801, "annotation": {"number": 64, "value": 0}, "group": "control_change"}, {"time": 3803, "annotation": {"number": 64, "value": 127}, "group": "control_change"}, {"time": 3848, "annotation": {"number": 64, "value": 0}, "group": "control_change"}, {"time": 3851, "annotation": {"number": 64, "value": 127}, "group": "control_change"}, {"time": 3869, "annotation": {"number": 64, "value": 0}, "group": "control_change"}, {"time": 3874, "annotation": {"number": 64, "value": 127}, "group": "control_change"}, {"time": 3896, "annotation": {"number": 64, "value": 0}, "group": "control_change"}, {"time": 3902, "annotation": {"number": 64, "value": 127}, "group": "control_change"}, {"time": 3960, "annotation": {"number": 64, "value": 0}, "group": "control_change"}, {"time": 4000, "annotation": {"number": 64, "value": 127}, "group": "control_change"}, {"time": 4017, "annotation": {"number": 64, "value": 0}, "group": "control_change"}, {"time": 4023, "annotation": {"number": 64, "value": 127}, "group": "control_change"}, {"time": 4078, "annotation": {"number": 64, "value": 127}, "group": "control_change"}, {"time": 4090, "annotation": {"number": 64, "value": 0}, "group": "control_change"}, {"time": 4096, "annotation": {"number": 64, "value": 127}, "group": "control_change"}, {"time": 4139, "annotation": {"number": 64, "value": 0}, "group": "control_change"}, {"time": 4146, "annotation": {"number": 64, "value": 127}, "group": "control_change"}, {"time": 4185, "annotation": {"number": 64, "value": 0}, "group": "control_change"}, {"time": 4189, "annotation": {"number": 64, "value": 127}, "group": "control_change"}, {"time": 4281, "annotation": {"number": 64, "value": 0}, "group": "control_change"}, {"time": 4291, "annotation": {"number": 64, "value": 127}, "group": "control_change"}, {"time": 4346, "annotation": {"number": 64, "value": 0}, "group": "control_change"}, {"time": 4355, "annotation": {"number": 64, "value": 127}, "group": "control_change"}, {"time": 4377, "annotation": {"number": 64, "value": 0}, "group": "control_change"}, {"time": 4383, "annotation": {"number": 64, "value": 127}, "group": "control_change"}, {"time": 4440, "annotation": {"number": 64, "value": 0}, "group": "control_change"}, {"time": 4443, "annotation": {"number": 64, "value": 127}, "group": "control_change"}, {"time": 4473, "annotation": {"number": 64, "value": 0}, "group": "control_change"}, {"time": 4478, "annotation": {"number": 64, "value": 127}, "group": "control_change"}, {"time": 4544, "annotation": {"number": 64, "value": 0}, "group": "control_change"}, {"time": 4546, "annotation": {"number": 64, "value": 127}, "group": "control_change"}, {"time": 4547, "annotation": {"number": 64, "value": 0}, "group": "control_change"}, {"time": 4580, "annotation": {"number": 64, "value": 127}, "group": "control_change"}, {"time": 4663, "annotation": {"number": 64, "value": 0}, "group": "control_change"}, {"time": 4670, "annotation": {"number": 64, "value": 127}, "group": "control_change"}, {"time": 4713, "annotation": {"number": 64, "value": 0}, "group": "control_change"}, {"time": 4721, "annotation": {"number": 64, "value": 127}, "group": "control_change"}, {"time": 4746, "annotation": {"number": 64, "value": 0}, "group": "control_change"}, {"time": 4770, "annotation": {"number": 64, "value": 127}, "group": "control_change"}, {"time": 4812, "annotation": {"number": 64, "value": 0}, "group": "control_change"}, {"time": 4814, "annotation": {"number": 64, "value": 127}, "group": "control_change"}, {"time": 4819, "annotation": {"number": 64, "value": 127}, "group": "control_change"}, {"time": 4839, "annotation": {"number": 64, "value": 0}, "group": "control_change"}, {"time": 4850, "annotation": {"number": 64, "value": 0}, "group": "control_change"}, {"time": 4862, "annotation": {"number": 64, "value": 127}, "group": "control_change"}, {"time": 4898, "annotation": {"number": 64, "value": 0}, "group": "control_change"}, {"time": 4915, "annotation": {"number": 64, "value": 127}, "group": "control_change"}, {"time": 4937, "annotation": {"number": 64, "value": 0}, "group": "control_change"}, {"time": 4963, "annotation": {"number": 64, "value": 127}, "group": "control_change"}, {"time": 4997, "annotation": {"number": 64, "value": 0}, "group": "control_change"}, {"time": 5012, "annotation": {"number": 64, "value": 127}, "group": "control_change"}, {"time": 5048, "annotation": {"number": 64, "value": 0}, "group": "control_change"}, {"time": 5057, "annotation": {"number": 64, "value": 127}, "group": "control_change"}, {"time": 5078, "annotation": {"number": 64, "value": 0}, "group": "control_change"}, {"time": 5108, "annotation": {"number": 64, "value": 127}, "group": "control_change"}, {"time": 5145, "annotation": {"number": 64, "value": 0}, "group": "control_change"}, {"time": 5155, "annotation": {"number": 64, "value": 127}, "group": "control_change"}, {"time": 5170, "annotation": {"number": 64, "value": 0}, "group": "control_change"}, {"time": 5203, "annotation": {"number": 64, "value": 127}, "group": "control_change"}, {"time": 5235, "annotation": {"number": 64, "value": 0}, "group": "control_change"}, {"time": 5248, "annotation": {"number": 64, "value": 127}, "group": "control_change"}, {"time": 5286, "annotation": {"number": 64, "value": 0}, "group": "control_change"}, {"time": 5297, "annotation": {"number": 64, "value": 127}, "group": "control_change"}, {"time": 5315, "annotation": {"number": 64, "value": 0}, "group": "control_change"}, {"time": 5345, "annotation": {"number": 64, "value": 127}, "group": "control_change"}, {"time": 5355, "annotation": {"number": 64, "value": 0}, "group": "control_change"}, {"time": 5442, "annotation": {"number": 64, "value": 127}, "group": "control_change"}, {"time": 5458, "annotation": {"number": 64, "value": 0}, "group": "control_change"}, {"time": 5459, "annotation": {"number": 64, "value": 127}, "group": "control_change"}, {"time": 5459, "annotation": {"number": 64, "value": 0}, "group": "control_change"}, {"time": 5482, "annotation": {"number": 64, "value": 127}, "group": "control_change"}, {"time": 5507, "annotation": {"number": 64, "value": 127}, "group": "control_change"}, {"time": 5510, "annotation": {"number": 64, "value": 127}, "group": "control_change"}, {"time": 5519, "annotation": {"number": 64, "value": 0}, "group": "control_change"}, {"time": 5520, "annotation": {"number": 64, "value": 0}, "group": "control_change"}, {"time": 5529, "annotation": {"number": 64, "value": 127}, "group": "control_change"}, {"time": 5625, "annotation": {"number": 64, "value": 0}, "group": "control_change"}, {"time": 5628, "annotation": {"number": 64, "value": 127}, "group": "control_change"}, {"time": 5720, "annotation": {"number": 64, "value": 0}, "group": "control_change"}, {"time": 5723, "annotation": {"number": 64, "value": 127}, "group": "control_change"}, {"time": 5816, "annotation": {"number": 64, "value": 0}, "group": "control_change"}, {"time": 5818, "annotation": {"number": 64, "value": 127}, "group": "control_change"}, {"time": 5866, "annotation": {"number": 64, "value": 127}, "group": "control_change"}, {"time": 5903, "annotation": {"number": 64, "value": 0}, "group": "control_change"}, {"time": 5913, "annotation": {"number": 64, "value": 127}, "group": "control_change"}, {"time": 6009, "annotation": {"number": 64, "value": 0}, "group": "control_change"}, {"time": 6012, "annotation": {"number": 64, "value": 127}, "group": "control_change"}, {"time": 6057, "annotation": {"number": 64, "value": 0}, "group": "control_change"}, {"time": 6104, "annotation": {"number": 64, "value": 0}, "group": "control_change"}]}]}