{"metadata": {"schema_version": "0.2", "title": "None", "source_filename": "208.mid", "source_format": "midi"}, "resolution": 12, "tempos": [{"time": 0, "qpm": 125.0002604172092}, {"time": 288, "qpm": 127.00025400050801}, {"time": 324, "qpm": 125.0002604172092}, {"time": 360, "qpm": 119.00063268669712}, {"time": 372, "qpm": 125.0002604172092}, {"time": 384, "qpm": 131.00093447333256}, {"time": 408, "qpm": 125.0002604172092}, {"time": 528, "qpm": 127.00025400050801}, {"time": 552, "qpm": 125.0002604172092}, {"time": 660, "qpm": 134.00065660321735}, {"time": 672, "qpm": 130.00041166797027}, {"time": 696, "qpm": 125.0002604172092}, {"time": 708, "qpm": 122.00031720082472}, {"time": 732, "qpm": 125.0002604172092}, {"time": 1296, "qpm": 130.00041166797027}, {"time": 1344, "qpm": 125.0002604172092}, {"time": 2208, "qpm": 127.00025400050801}, {"time": 2352, "qpm": 125.0002604172092}, {"time": 3240, "qpm": 126.00039060121087}, {"time": 3312, "qpm": 125.0002604172092}, {"time": 3408, "qpm": 129.00035475097556}, {"time": 3432, "qpm": 125.0002604172092}, {"time": 3708, "qpm": 126.00039060121087}, {"time": 3744, "qpm": 125.0002604172092}, {"time": 3756, "qpm": 130.00041166797027}, {"time": 3768, "qpm": 125.0002604172092}, {"time": 3804, "qpm": 128.0002730672492}, {"time": 3828, "qpm": 125.0002604172092}, {"time": 3840, "qpm": 123.00047355182318}, {"time": 3888, "qpm": 125.0002604172092}, {"time": 3912, "qpm": 121.00043156820593}, {"time": 3936, "qpm": 131.00093447333256}, {"time": 3960, "qpm": 125.0002604172092}, {"time": 4032, "qpm": 127.00025400050801}, {"time": 4056, "qpm": 125.0002604172092}, {"time": 4104, "qpm": 128.0002730672492}, {"time": 4128, "qpm": 125.0002604172092}, {"time": 4536, "qpm": 127.00025400050801}, {"time": 4560, "qpm": 125.0002604172092}, {"time": 4656, "qpm": 127.00025400050801}, {"time": 4704, "qpm": 125.0002604172092}, {"time": 4728, "qpm": 122.00031720082472}, {"time": 4752, "qpm": 125.0002604172092}, {"time": 4872, "qpm": 130.00041166797027}, {"time": 4896, "qpm": 125.0002604172092}, {"time": 5136, "qpm": 127.00025400050801}, {"time": 5184, "qpm": 125.0002604172092}, {"time": 5208, "qpm": 127.00025400050801}, {"time": 5232, "qpm": 125.0002604172092}, {"time": 5712, "qpm": 126.00039060121087}, {"time": 5880, "qpm": 123.00047355182318}, {"time": 5904, "qpm": 126.00039060121087}, {"time": 6048, "qpm": 124.000248000496}, {"time": 6072, "qpm": 126.00039060121087}, {"time": 6108, "qpm": 122.00031720082472}, {"time": 6132, "qpm": 121.00043156820593}, {"time": 6144, "qpm": 122.00031720082472}, {"time": 6180, "qpm": 128.0002730672492}, {"time": 6192, "qpm": 136.00045333484445}, {"time": 6216, "qpm": 122.00031720082472}, {"time": 6240, "qpm": 125.0002604172092}, {"time": 6264, "qpm": 124.000248000496}, {"time": 6288, "qpm": 126.00039060121087}, {"time": 6348, "qpm": 121.00043156820593}, {"time": 6360, "qpm": 122.00031720082472}, {"time": 6372, "qpm": 125.0002604172092}, {"time": 6444, "qpm": 128.0002730672492}, {"time": 6480, "qpm": 125.0002604172092}], "key_signatures": [{"time": 0, "root": 0, "mode": "major"}], "time_signatures": [{"time": 0, "numerator": 4, "denominator": 4}], "tracks": [{"program": 0, "is_drum": false, "name": "MELODY", "notes": [{"time": 910, "pitch": 64, "duration": 12, "velocity": 54}, {"time": 922, "pitch": 69, "duration": 12, "velocity": 56}, {"time": 934, "pitch": 66, "duration": 6, "velocity": 54}, {"time": 940, "pitch": 64, "duration": 6, "velocity": 61}, {"time": 946, "pitch": 64, "duration": 18, "velocity": 64}, {"time": 964, "pitch": 69, "duration": 6, "velocity": 87}, {"time": 970, "pitch": 66, "duration": 6, "velocity": 77}, {"time": 976, "pitch": 64, "duration": 6, "velocity": 60}, {"time": 982, "pitch": 64, "duration": 24, "velocity": 85}, {"time": 1006, "pitch": 57, "duration": 6, "velocity": 92}, {"time": 1012, "pitch": 59, "duration": 6, "velocity": 87}, {"time": 1018, "pitch": 61, "duration": 6, "velocity": 87}, {"time": 1024, "pitch": 59, "duration": 6, "velocity": 74}, {"time": 1030, "pitch": 64, "duration": 18, "velocity": 77}, {"time": 1048, "pitch": 59, "duration": 18, "velocity": 87}, {"time": 1066, "pitch": 57, "duration": 132, "velocity": 81}, {"time": 1198, "pitch": 69, "duration": 12, "velocity": 97}, {"time": 1210, "pitch": 69, "duration": 12, "velocity": 97}, {"time": 1222, "pitch": 66, "duration": 6, "velocity": 77}, {"time": 1228, "pitch": 64, "duration": 6, "velocity": 66}, {"time": 1234, "pitch": 69, "duration": 12, "velocity": 93}, {"time": 1246, "pitch": 69, "duration": 9, "velocity": 91}, {"time": 1258, "pitch": 71, "duration": 15, "velocity": 66}, {"time": 1270, "pitch": 69, "duration": 24, "velocity": 93}, {"time": 1294, "pitch": 61, "duration": 6, "velocity": 73}, {"time": 1300, "pitch": 64, "duration": 6, "velocity": 65}, {"time": 1306, "pitch": 69, "duration": 12, "velocity": 62}, {"time": 1318, "pitch": 64, "duration": 18, "velocity": 65}, {"time": 1336, "pitch": 59, "duration": 6, "velocity": 84}, {"time": 1342, "pitch": 59, "duration": 6, "velocity": 75}, {"time": 1348, "pitch": 61, "duration": 6, "velocity": 67}, {"time": 1354, "pitch": 64, "duration": 12, "velocity": 93}, {"time": 1366, "pitch": 66, "duration": 6, "velocity": 64}, {"time": 1372, "pitch": 64, "duration": 102, "velocity": 96}, {"time": 1474, "pitch": 61, "duration": 12, "velocity": 100}, {"time": 1486, "pitch": 61, "duration": 18, "velocity": 96}, {"time": 1504, "pitch": 61, "duration": 6, "velocity": 97}, {"time": 1510, "pitch": 59, "duration": 6, "velocity": 85}, {"time": 1516, "pitch": 57, "duration": 6, "velocity": 87}, {"time": 1522, "pitch": 56, "duration": 12, "velocity": 90}, {"time": 1534, "pitch": 57, "duration": 6, "velocity": 66}, {"time": 1540, "pitch": 59, "duration": 18, "velocity": 95}, {"time": 1558, "pitch": 64, "duration": 6, "velocity": 92}, {"time": 1564, "pitch": 69, "duration": 6, "velocity": 81}, {"time": 1570, "pitch": 69, "duration": 12, "velocity": 62}, {"time": 1582, "pitch": 64, "duration": 12, "velocity": 67}, {"time": 1594, "pitch": 64, "duration": 18, "velocity": 91}, {"time": 1612, "pitch": 61, "duration": 6, "velocity": 52}, {"time": 1618, "pitch": 61, "duration": 60, "velocity": 61}, {"time": 1678, "pitch": 69, "duration": 12, "velocity": 87}, {"time": 1690, "pitch": 69, "duration": 12, "velocity": 79}, {"time": 1702, "pitch": 73, "duration": 12, "velocity": 90}, {"time": 1714, "pitch": 71, "duration": 6, "velocity": 73}, {"time": 1720, "pitch": 71, "duration": 9, "velocity": 66}, {"time": 1732, "pitch": 69, "duration": 9, "velocity": 69}, {"time": 1738, "pitch": 69, "duration": 3, "velocity": 73}, {"time": 1744, "pitch": 68, "duration": 6, "velocity": 73}, {"time": 1750, "pitch": 69, "duration": 24, "velocity": 65}, {"time": 1774, "pitch": 64, "duration": 12, "velocity": 77}, {"time": 1786, "pitch": 69, "duration": 6, "velocity": 90}, {"time": 1792, "pitch": 66, "duration": 9, "velocity": 79}, {"time": 1804, "pitch": 64, "duration": 9, "velocity": 62}, {"time": 1810, "pitch": 64, "duration": 3, "velocity": 87}, {"time": 1834, "pitch": 57, "duration": 6, "velocity": 85}, {"time": 1840, "pitch": 59, "duration": 9, "velocity": 82}, {"time": 1846, "pitch": 61, "duration": 6, "velocity": 90}, {"time": 1858, "pitch": 59, "duration": 108, "velocity": 94}, {"time": 1966, "pitch": 66, "duration": 12, "velocity": 103}, {"time": 1978, "pitch": 66, "duration": 12, "velocity": 99}, {"time": 1990, "pitch": 66, "duration": 6, "velocity": 95}, {"time": 1996, "pitch": 64, "duration": 6, "velocity": 90}, {"time": 2002, "pitch": 69, "duration": 12, "velocity": 96}, {"time": 2014, "pitch": 69, "duration": 12, "velocity": 105}, {"time": 2026, "pitch": 69, "duration": 36, "velocity": 111}, {"time": 2062, "pitch": 66, "duration": 6, "velocity": 101}, {"time": 2068, "pitch": 64, "duration": 6, "velocity": 93}, {"time": 2074, "pitch": 66, "duration": 15, "velocity": 97}, {"time": 2086, "pitch": 69, "duration": 18, "velocity": 90}, {"time": 2104, "pitch": 61, "duration": 9, "velocity": 95}, {"time": 2116, "pitch": 64, "duration": 6, "velocity": 98}, {"time": 2122, "pitch": 66, "duration": 6, "velocity": 103}, {"time": 2128, "pitch": 64, "duration": 6, "velocity": 103}, {"time": 2131, "pitch": 66, "duration": 24, "velocity": 103}, {"time": 2158, "pitch": 59, "duration": 12, "velocity": 80}, {"time": 2170, "pitch": 61, "duration": 18, "velocity": 83}, {"time": 2188, "pitch": 59, "duration": 6, "velocity": 63}, {"time": 2194, "pitch": 64, "duration": 12, "velocity": 85}, {"time": 2206, "pitch": 66, "duration": 6, "velocity": 62}, {"time": 2212, "pitch": 64, "duration": 12, "velocity": 68}, {"time": 2224, "pitch": 61, "duration": 9, "velocity": 91}, {"time": 2236, "pitch": 59, "duration": 6, "velocity": 97}, {"time": 2242, "pitch": 64, "duration": 15, "velocity": 97}, {"time": 2254, "pitch": 59, "duration": 9, "velocity": 97}, {"time": 2260, "pitch": 57, "duration": 3, "velocity": 64}, {"time": 2266, "pitch": 57, "duration": 6, "velocity": 80}, {"time": 2272, "pitch": 59, "duration": 6, "velocity": 84}, {"time": 2278, "pitch": 61, "duration": 6, "velocity": 82}, {"time": 2284, "pitch": 64, "duration": 6, "velocity": 71}, {"time": 2290, "pitch": 59, "duration": 3, "velocity": 64}, {"time": 2296, "pitch": 57, "duration": 12, "velocity": 66}, {"time": 2302, "pitch": 57, "duration": 6, "velocity": 72}, {"time": 2308, "pitch": 56, "duration": 6, "velocity": 72}, {"time": 2314, "pitch": 57, "duration": 12, "velocity": 93}, {"time": 2332, "pitch": 59, "duration": 6, "velocity": 98}, {"time": 2338, "pitch": 57, "duration": 96, "velocity": 96}, {"time": 2434, "pitch": 69, "duration": 36, "velocity": 92}, {"time": 2470, "pitch": 71, "duration": 6, "velocity": 93}, {"time": 2476, "pitch": 69, "duration": 6, "velocity": 84}, {"time": 2482, "pitch": 73, "duration": 18, "velocity": 93}, {"time": 2500, "pitch": 73, "duration": 21, "velocity": 91}, {"time": 2524, "pitch": 71, "duration": 6, "velocity": 90}, {"time": 2530, "pitch": 69, "duration": 12, "velocity": 80}, {"time": 2542, "pitch": 71, "duration": 6, "velocity": 82}, {"time": 2548, "pitch": 69, "duration": 12, "velocity": 90}, {"time": 2560, "pitch": 66, "duration": 9, "velocity": 62}, {"time": 2572, "pitch": 64, "duration": 60, "velocity": 64}, {"time": 2626, "pitch": 69, "duration": 36, "velocity": 101}, {"time": 2662, "pitch": 71, "duration": 6, "velocity": 99}, {"time": 2668, "pitch": 69, "duration": 6, "velocity": 90}, {"time": 2674, "pitch": 73, "duration": 18, "velocity": 95}, {"time": 2692, "pitch": 73, "duration": 24, "velocity": 91}, {"time": 2716, "pitch": 71, "duration": 6, "velocity": 74}, {"time": 2722, "pitch": 69, "duration": 12, "velocity": 84}, {"time": 2734, "pitch": 71, "duration": 6, "velocity": 72}, {"time": 2740, "pitch": 69, "duration": 12, "velocity": 90}, {"time": 2752, "pitch": 66, "duration": 6, "velocity": 66}, {"time": 2758, "pitch": 64, "duration": 60, "velocity": 84}, {"time": 2818, "pitch": 61, "duration": 6, "velocity": 97}, {"time": 2824, "pitch": 61, "duration": 12, "velocity": 94}, {"time": 2836, "pitch": 59, "duration": 6, "velocity": 90}, {"time": 2842, "pitch": 61, "duration": 12, "velocity": 94}, {"time": 2854, "pitch": 61, "duration": 6, "velocity": 94}, {"time": 2860, "pitch": 64, "duration": 6, "velocity": 93}, {"time": 2866, "pitch": 66, "duration": 12, "velocity": 98}, {"time": 2878, "pitch": 69, "duration": 12, "velocity": 91}, {"time": 2890, "pitch": 61, "duration": 3, "velocity": 91}, {"time": 2894, "pitch": 64, "duration": 20, "velocity": 91}, {"time": 2914, "pitch": 57, "duration": 6, "velocity": 90}, {"time": 2920, "pitch": 57, "duration": 12, "velocity": 75}, {"time": 2932, "pitch": 59, "duration": 6, "velocity": 87}, {"time": 2938, "pitch": 61, "duration": 12, "velocity": 87}, {"time": 2950, "pitch": 64, "duration": 12, "velocity": 87}, {"time": 2962, "pitch": 69, "duration": 12, "velocity": 84}, {"time": 2974, "pitch": 66, "duration": 6, "velocity": 92}, {"time": 2980, "pitch": 64, "duration": 6, "velocity": 68}, {"time": 2986, "pitch": 66, "duration": 36, "velocity": 96}, {"time": 3022, "pitch": 64, "duration": 12, "velocity": 97}, {"time": 3034, "pitch": 64, "duration": 12, "velocity": 97}, {"time": 3046, "pitch": 64, "duration": 6, "velocity": 91}, {"time": 3052, "pitch": 64, "duration": 30, "velocity": 95}, {"time": 3082, "pitch": 66, "duration": 12, "velocity": 103}, {"time": 3094, "pitch": 69, "duration": 6, "velocity": 105}, {"time": 3100, "pitch": 69, "duration": 27, "velocity": 109}, {"time": 3130, "pitch": 69, "duration": 6, "velocity": 96}, {"time": 3136, "pitch": 69, "duration": 6, "velocity": 95}, {"time": 3142, "pitch": 69, "duration": 6, "velocity": 92}, {"time": 3148, "pitch": 71, "duration": 6, "velocity": 90}, {"time": 3154, "pitch": 73, "duration": 12, "velocity": 99}, {"time": 3166, "pitch": 73, "duration": 12, "velocity": 105}, {"time": 3178, "pitch": 71, "duration": 6, "velocity": 95}, {"time": 3184, "pitch": 69, "duration": 18, "velocity": 94}, {"time": 3202, "pitch": 69, "duration": 18, "velocity": 98}, {"time": 3220, "pitch": 61, "duration": 78, "velocity": 100}, {"time": 3298, "pitch": 66, "duration": 9, "velocity": 108}, {"time": 3308, "pitch": 66, "duration": 8, "velocity": 97}, {"time": 3316, "pitch": 64, "duration": 6, "velocity": 101}, {"time": 3322, "pitch": 69, "duration": 12, "velocity": 94}, {"time": 3334, "pitch": 66, "duration": 6, "velocity": 100}, {"time": 3340, "pitch": 64, "duration": 6, "velocity": 100}, {"time": 3346, "pitch": 61, "duration": 9, "velocity": 79}, {"time": 3356, "pitch": 64, "duration": 8, "velocity": 75}, {"time": 3364, "pitch": 66, "duration": 6, "velocity": 96}, {"time": 3370, "pitch": 64, "duration": 66, "velocity": 95}, {"time": 3436, "pitch": 64, "duration": 6, "velocity": 91}, {"time": 3442, "pitch": 71, "duration": 12, "velocity": 101}, {"time": 3454, "pitch": 71, "duration": 24, "velocity": 103}, {"time": 3478, "pitch": 64, "duration": 12, "velocity": 87}, {"time": 3490, "pitch": 73, "duration": 12, "velocity": 97}, {"time": 3502, "pitch": 73, "duration": 36, "velocity": 101}, {"time": 3538, "pitch": 71, "duration": 6, "velocity": 99}, {"time": 3544, "pitch": 69, "duration": 6, "velocity": 87}, {"time": 3550, "pitch": 66, "duration": 6, "velocity": 77}, {"time": 3556, "pitch": 64, "duration": 12, "velocity": 62}, {"time": 3568, "pitch": 69, "duration": 12, "velocity": 83}, {"time": 3580, "pitch": 71, "duration": 6, "velocity": 96}, {"time": 3586, "pitch": 69, "duration": 300, "velocity": 103}, {"time": 3886, "pitch": 64, "duration": 12, "velocity": 54}, {"time": 3898, "pitch": 69, "duration": 12, "velocity": 56}, {"time": 3910, "pitch": 66, "duration": 6, "velocity": 54}, {"time": 3916, "pitch": 64, "duration": 6, "velocity": 61}, {"time": 3922, "pitch": 64, "duration": 18, "velocity": 64}, {"time": 3940, "pitch": 69, "duration": 6, "velocity": 87}, {"time": 3946, "pitch": 66, "duration": 6, "velocity": 77}, {"time": 3952, "pitch": 64, "duration": 6, "velocity": 60}, {"time": 3958, "pitch": 64, "duration": 24, "velocity": 85}, {"time": 3982, "pitch": 57, "duration": 6, "velocity": 92}, {"time": 3988, "pitch": 59, "duration": 6, "velocity": 87}, {"time": 3994, "pitch": 61, "duration": 6, "velocity": 87}, {"time": 4000, "pitch": 59, "duration": 6, "velocity": 74}, {"time": 4006, "pitch": 64, "duration": 18, "velocity": 77}, {"time": 4024, "pitch": 59, "duration": 12, "velocity": 87}, {"time": 4036, "pitch": 57, "duration": 6, "velocity": 87}, {"time": 4042, "pitch": 57, "duration": 132, "velocity": 81}, {"time": 4174, "pitch": 69, "duration": 12, "velocity": 97}, {"time": 4186, "pitch": 69, "duration": 12, "velocity": 97}, {"time": 4198, "pitch": 66, "duration": 6, "velocity": 77}, {"time": 4204, "pitch": 64, "duration": 6, "velocity": 66}, {"time": 4210, "pitch": 69, "duration": 12, "velocity": 93}, {"time": 4222, "pitch": 69, "duration": 12, "velocity": 91}, {"time": 4234, "pitch": 71, "duration": 12, "velocity": 66}, {"time": 4246, "pitch": 69, "duration": 21, "velocity": 93}, {"time": 4270, "pitch": 61, "duration": 6, "velocity": 73}, {"time": 4276, "pitch": 64, "duration": 6, "velocity": 65}, {"time": 4282, "pitch": 69, "duration": 12, "velocity": 62}, {"time": 4294, "pitch": 64, "duration": 21, "velocity": 65}, {"time": 4312, "pitch": 59, "duration": 6, "velocity": 84}, {"time": 4318, "pitch": 59, "duration": 6, "velocity": 75}, {"time": 4324, "pitch": 61, "duration": 6, "velocity": 67}, {"time": 4330, "pitch": 64, "duration": 9, "velocity": 93}, {"time": 4342, "pitch": 66, "duration": 6, "velocity": 64}, {"time": 4348, "pitch": 64, "duration": 102, "velocity": 96}, {"time": 4450, "pitch": 61, "duration": 12, "velocity": 100}, {"time": 4462, "pitch": 61, "duration": 18, "velocity": 96}, {"time": 4480, "pitch": 61, "duration": 6, "velocity": 97}, {"time": 4486, "pitch": 59, "duration": 6, "velocity": 85}, {"time": 4492, "pitch": 57, "duration": 6, "velocity": 87}, {"time": 4498, "pitch": 56, "duration": 15, "velocity": 90}, {"time": 4510, "pitch": 57, "duration": 6, "velocity": 66}, {"time": 4516, "pitch": 59, "duration": 18, "velocity": 95}, {"time": 4534, "pitch": 64, "duration": 3, "velocity": 92}, {"time": 4540, "pitch": 69, "duration": 6, "velocity": 81}, {"time": 4546, "pitch": 69, "duration": 12, "velocity": 62}, {"time": 4558, "pitch": 64, "duration": 12, "velocity": 67}, {"time": 4570, "pitch": 64, "duration": 18, "velocity": 91}, {"time": 4586, "pitch": 61, "duration": 8, "velocity": 52}, {"time": 4594, "pitch": 61, "duration": 60, "velocity": 61}, {"time": 4654, "pitch": 69, "duration": 12, "velocity": 87}, {"time": 4666, "pitch": 69, "duration": 12, "velocity": 79}, {"time": 4678, "pitch": 73, "duration": 12, "velocity": 90}, {"time": 4690, "pitch": 71, "duration": 6, "velocity": 73}, {"time": 4696, "pitch": 71, "duration": 9, "velocity": 66}, {"time": 4706, "pitch": 71, "duration": 8, "velocity": 69}, {"time": 4714, "pitch": 69, "duration": 3, "velocity": 73}, {"time": 4720, "pitch": 68, "duration": 6, "velocity": 73}, {"time": 4726, "pitch": 69, "duration": 21, "velocity": 65}, {"time": 4750, "pitch": 64, "duration": 12, "velocity": 77}, {"time": 4762, "pitch": 69, "duration": 6, "velocity": 90}, {"time": 4768, "pitch": 69, "duration": 12, "velocity": 79}, {"time": 4780, "pitch": 64, "duration": 6, "velocity": 62}, {"time": 4786, "pitch": 64, "duration": 24, "velocity": 87}, {"time": 4798, "pitch": 57, "duration": 12, "velocity": 79}, {"time": 4810, "pitch": 59, "duration": 12, "velocity": 82}, {"time": 4828, "pitch": 61, "duration": 6, "velocity": 90}, {"time": 4834, "pitch": 59, "duration": 108, "velocity": 94}, {"time": 4942, "pitch": 66, "duration": 12, "velocity": 103}, {"time": 4954, "pitch": 66, "duration": 12, "velocity": 99}, {"time": 4966, "pitch": 64, "duration": 12, "velocity": 95}, {"time": 4978, "pitch": 69, "duration": 12, "velocity": 96}, {"time": 4990, "pitch": 69, "duration": 12, "velocity": 105}, {"time": 5002, "pitch": 69, "duration": 6, "velocity": 111}, {"time": 5008, "pitch": 69, "duration": 30, "velocity": 111}, {"time": 5038, "pitch": 66, "duration": 6, "velocity": 101}, {"time": 5044, "pitch": 64, "duration": 6, "velocity": 93}, {"time": 5050, "pitch": 66, "duration": 12, "velocity": 97}, {"time": 5062, "pitch": 69, "duration": 21, "velocity": 90}, {"time": 5084, "pitch": 61, "duration": 8, "velocity": 95}, {"time": 5092, "pitch": 64, "duration": 6, "velocity": 98}, {"time": 5098, "pitch": 66, "duration": 6, "velocity": 103}, {"time": 5104, "pitch": 64, "duration": 6, "velocity": 103}, {"time": 5110, "pitch": 66, "duration": 24, "velocity": 103}, {"time": 5134, "pitch": 59, "duration": 12, "velocity": 80}, {"time": 5146, "pitch": 61, "duration": 6, "velocity": 83}, {"time": 5152, "pitch": 61, "duration": 6, "velocity": 83}, {"time": 5164, "pitch": 59, "duration": 6, "velocity": 63}, {"time": 5170, "pitch": 64, "duration": 12, "velocity": 85}, {"time": 5182, "pitch": 66, "duration": 6, "velocity": 62}, {"time": 5188, "pitch": 64, "duration": 9, "velocity": 68}, {"time": 5200, "pitch": 61, "duration": 12, "velocity": 91}, {"time": 5212, "pitch": 59, "duration": 6, "velocity": 97}, {"time": 5218, "pitch": 64, "duration": 15, "velocity": 97}, {"time": 5230, "pitch": 59, "duration": 9, "velocity": 97}, {"time": 5236, "pitch": 57, "duration": 3, "velocity": 64}, {"time": 5242, "pitch": 57, "duration": 6, "velocity": 80}, {"time": 5248, "pitch": 59, "duration": 6, "velocity": 84}, {"time": 5254, "pitch": 61, "duration": 6, "velocity": 82}, {"time": 5260, "pitch": 64, "duration": 6, "velocity": 71}, {"time": 5266, "pitch": 59, "duration": 9, "velocity": 66}, {"time": 5276, "pitch": 56, "duration": 20, "velocity": 72}, {"time": 5296, "pitch": 57, "duration": 12, "velocity": 93}, {"time": 5308, "pitch": 59, "duration": 6, "velocity": 98}, {"time": 5314, "pitch": 57, "duration": 96, "velocity": 96}, {"time": 5410, "pitch": 69, "duration": 36, "velocity": 92}, {"time": 5446, "pitch": 71, "duration": 6, "velocity": 93}, {"time": 5452, "pitch": 69, "duration": 6, "velocity": 84}, {"time": 5458, "pitch": 73, "duration": 18, "velocity": 93}, {"time": 5476, "pitch": 73, "duration": 21, "velocity": 91}, {"time": 5500, "pitch": 71, "duration": 6, "velocity": 90}, {"time": 5506, "pitch": 69, "duration": 12, "velocity": 80}, {"time": 5518, "pitch": 71, "duration": 6, "velocity": 82}, {"time": 5524, "pitch": 69, "duration": 12, "velocity": 90}, {"time": 5536, "pitch": 66, "duration": 9, "velocity": 62}, {"time": 5542, "pitch": 64, "duration": 57, "velocity": 64}, {"time": 5602, "pitch": 69, "duration": 36, "velocity": 101}, {"time": 5638, "pitch": 71, "duration": 6, "velocity": 99}, {"time": 5644, "pitch": 69, "duration": 6, "velocity": 90}, {"time": 5650, "pitch": 73, "duration": 21, "velocity": 95}, {"time": 5668, "pitch": 73, "duration": 3, "velocity": 91}, {"time": 5692, "pitch": 71, "duration": 6, "velocity": 74}, {"time": 5698, "pitch": 69, "duration": 12, "velocity": 84}, {"time": 5710, "pitch": 71, "duration": 6, "velocity": 72}, {"time": 5716, "pitch": 69, "duration": 12, "velocity": 90}, {"time": 5728, "pitch": 66, "duration": 6, "velocity": 66}, {"time": 5734, "pitch": 64, "duration": 60, "velocity": 84}, {"time": 5794, "pitch": 61, "duration": 6, "velocity": 97}, {"time": 5800, "pitch": 61, "duration": 12, "velocity": 94}, {"time": 5812, "pitch": 59, "duration": 6, "velocity": 90}, {"time": 5818, "pitch": 61, "duration": 12, "velocity": 94}, {"time": 5830, "pitch": 61, "duration": 6, "velocity": 94}, {"time": 5836, "pitch": 64, "duration": 6, "velocity": 93}, {"time": 5842, "pitch": 66, "duration": 12, "velocity": 98}, {"time": 5854, "pitch": 69, "duration": 12, "velocity": 91}, {"time": 5866, "pitch": 61, "duration": 6, "velocity": 91}, {"time": 5872, "pitch": 64, "duration": 18, "velocity": 91}, {"time": 5890, "pitch": 57, "duration": 6, "velocity": 90}, {"time": 5896, "pitch": 57, "duration": 12, "velocity": 75}, {"time": 5908, "pitch": 59, "duration": 6, "velocity": 87}, {"time": 5914, "pitch": 61, "duration": 12, "velocity": 87}, {"time": 5926, "pitch": 64, "duration": 12, "velocity": 87}, {"time": 5938, "pitch": 69, "duration": 6, "velocity": 84}, {"time": 5944, "pitch": 66, "duration": 6, "velocity": 84}, {"time": 5950, "pitch": 66, "duration": 6, "velocity": 92}, {"time": 5956, "pitch": 64, "duration": 6, "velocity": 68}, {"time": 5962, "pitch": 66, "duration": 36, "velocity": 96}, {"time": 5998, "pitch": 64, "duration": 12, "velocity": 97}, {"time": 6010, "pitch": 64, "duration": 12, "velocity": 97}, {"time": 6022, "pitch": 64, "duration": 6, "velocity": 91}, {"time": 6028, "pitch": 64, "duration": 30, "velocity": 95}, {"time": 6058, "pitch": 66, "duration": 12, "velocity": 103}, {"time": 6070, "pitch": 69, "duration": 6, "velocity": 105}, {"time": 6076, "pitch": 69, "duration": 30, "velocity": 109}, {"time": 6106, "pitch": 69, "duration": 6, "velocity": 96}, {"time": 6112, "pitch": 69, "duration": 6, "velocity": 95}, {"time": 6118, "pitch": 69, "duration": 6, "velocity": 92}, {"time": 6124, "pitch": 71, "duration": 6, "velocity": 90}, {"time": 6130, "pitch": 73, "duration": 12, "velocity": 99}, {"time": 6142, "pitch": 73, "duration": 12, "velocity": 105}, {"time": 6154, "pitch": 71, "duration": 6, "velocity": 95}, {"time": 6160, "pitch": 69, "duration": 18, "velocity": 94}, {"time": 6178, "pitch": 69, "duration": 18, "velocity": 98}, {"time": 6196, "pitch": 61, "duration": 78, "velocity": 100}, {"time": 6274, "pitch": 66, "duration": 6, "velocity": 108}, {"time": 6280, "pitch": 66, "duration": 12, "velocity": 97}, {"time": 6292, "pitch": 64, "duration": 6, "velocity": 101}, {"time": 6298, "pitch": 69, "duration": 12, "velocity": 94}, {"time": 6310, "pitch": 61, "duration": 21, "velocity": 100}, {"time": 6328, "pitch": 64, "duration": 9, "velocity": 75}, {"time": 6340, "pitch": 66, "duration": 6, "velocity": 96}, {"time": 6346, "pitch": 64, "duration": 66, "velocity": 95}, {"time": 6412, "pitch": 64, "duration": 6, "velocity": 91}, {"time": 6418, "pitch": 71, "duration": 12, "velocity": 101}, {"time": 6430, "pitch": 71, "duration": 24, "velocity": 103}, {"time": 6454, "pitch": 64, "duration": 12, "velocity": 87}, {"time": 6466, "pitch": 73, "duration": 12, "velocity": 97}, {"time": 6478, "pitch": 76, "duration": 72, "velocity": 101}, {"time": 6550, "pitch": 73, "duration": 9, "velocity": 66}, {"time": 6560, "pitch": 71, "duration": 2, "velocity": 57}, {"time": 6562, "pitch": 69, "duration": 6, "velocity": 55}, {"time": 6568, "pitch": 66, "duration": 6, "velocity": 59}, {"time": 6574, "pitch": 64, "duration": 18, "velocity": 61}, {"time": 6592, "pitch": 69, "duration": 9, "velocity": 51}, {"time": 6602, "pitch": 71, "duration": 8, "velocity": 63}, {"time": 6610, "pitch": 69, "duration": 181, "velocity": 63}]}, {"program": 0, "is_drum": false, "name": "BRIDGE", "notes": [{"time": 34, "pitch": 69, "duration": 7, "velocity": 70}, {"time": 44, "pitch": 69, "duration": 1, "velocity": 58}, {"time": 46, "pitch": 69, "duration": 5, "velocity": 67}, {"time": 52, "pitch": 71, "duration": 5, "velocity": 66}, {"time": 58, "pitch": 69, "duration": 6, "velocity": 69}, {"time": 64, "pitch": 64, "duration": 8, "velocity": 60}, {"time": 70, "pitch": 66, "duration": 6, "velocity": 60}, {"time": 76, "pitch": 64, "duration": 8, "velocity": 55}, {"time": 82, "pitch": 69, "duration": 6, "velocity": 69}, {"time": 92, "pitch": 69, "duration": 9, "velocity": 60}, {"time": 100, "pitch": 71, "duration": 7, "velocity": 72}, {"time": 106, "pitch": 69, "duration": 6, "velocity": 60}, {"time": 112, "pitch": 64, "duration": 8, "velocity": 54}, {"time": 118, "pitch": 66, "duration": 5, "velocity": 60}, {"time": 124, "pitch": 64, "duration": 10, "velocity": 62}, {"time": 130, "pitch": 69, "duration": 8, "velocity": 66}, {"time": 154, "pitch": 64, "duration": 27, "velocity": 62}, {"time": 178, "pitch": 66, "duration": 5, "velocity": 76}, {"time": 184, "pitch": 69, "duration": 32, "velocity": 75}, {"time": 214, "pitch": 71, "duration": 4, "velocity": 63}, {"time": 220, "pitch": 69, "duration": 4, "velocity": 63}, {"time": 226, "pitch": 73, "duration": 5, "velocity": 91}, {"time": 292, "pitch": 76, "duration": 8, "velocity": 47}, {"time": 322, "pitch": 76, "duration": 36, "velocity": 97}, {"time": 358, "pitch": 78, "duration": 8, "velocity": 95}, {"time": 364, "pitch": 76, "duration": 7, "velocity": 93}, {"time": 370, "pitch": 73, "duration": 55, "velocity": 101}, {"time": 388, "pitch": 71, "duration": 4, "velocity": 103}, {"time": 394, "pitch": 69, "duration": 6, "velocity": 93}, {"time": 400, "pitch": 71, "duration": 5, "velocity": 88}, {"time": 406, "pitch": 69, "duration": 5, "velocity": 95}, {"time": 418, "pitch": 64, "duration": 8, "velocity": 95}, {"time": 418, "pitch": 66, "duration": 34, "velocity": 99}, {"time": 496, "pitch": 69, "duration": 6, "velocity": 103}, {"time": 502, "pitch": 71, "duration": 6, "velocity": 88}, {"time": 508, "pitch": 69, "duration": 6, "velocity": 93}, {"time": 514, "pitch": 73, "duration": 48, "velocity": 99}, {"time": 562, "pitch": 74, "duration": 33, "velocity": 67}, {"time": 562, "pitch": 76, "duration": 33, "velocity": 69}, {"time": 598, "pitch": 78, "duration": 9, "velocity": 97}, {"time": 604, "pitch": 76, "duration": 6, "velocity": 101}, {"time": 610, "pitch": 73, "duration": 12, "velocity": 97}, {"time": 622, "pitch": 73, "duration": 9, "velocity": 69}, {"time": 628, "pitch": 71, "duration": 6, "velocity": 75}, {"time": 638, "pitch": 69, "duration": 5, "velocity": 70}, {"time": 646, "pitch": 66, "duration": 6, "velocity": 72}, {"time": 652, "pitch": 64, "duration": 6, "velocity": 45}, {"time": 658, "pitch": 69, "duration": 48, "velocity": 66}, {"time": 704, "pitch": 69, "duration": 2, "velocity": 70}, {"time": 716, "pitch": 69, "duration": 20, "velocity": 88}, {"time": 736, "pitch": 73, "duration": 6, "velocity": 95}, {"time": 742, "pitch": 71, "duration": 6, "velocity": 70}, {"time": 748, "pitch": 69, "duration": 6, "velocity": 85}, {"time": 754, "pitch": 71, "duration": 12, "velocity": 97}, {"time": 766, "pitch": 73, "duration": 6, "velocity": 95}, {"time": 772, "pitch": 76, "duration": 12, "velocity": 80}, {"time": 784, "pitch": 73, "duration": 6, "velocity": 72}, {"time": 790, "pitch": 76, "duration": 6, "velocity": 91}, {"time": 796, "pitch": 64, "duration": 6, "velocity": 91}, {"time": 802, "pitch": 69, "duration": 9, "velocity": 85}, {"time": 802, "pitch": 69, "duration": 9, "velocity": 91}, {"time": 812, "pitch": 71, "duration": 2, "velocity": 72}, {"time": 814, "pitch": 73, "duration": 6, "velocity": 64}, {"time": 820, "pitch": 76, "duration": 6, "velocity": 72}, {"time": 826, "pitch": 71, "duration": 6, "velocity": 75}, {"time": 832, "pitch": 69, "duration": 6, "velocity": 85}, {"time": 838, "pitch": 66, "duration": 6, "velocity": 82}, {"time": 844, "pitch": 64, "duration": 6, "velocity": 82}, {"time": 850, "pitch": 69, "duration": 9, "velocity": 85}, {"time": 860, "pitch": 73, "duration": 2, "velocity": 99}, {"time": 862, "pitch": 71, "duration": 6, "velocity": 76}, {"time": 868, "pitch": 69, "duration": 6, "velocity": 85}, {"time": 874, "pitch": 66, "duration": 6, "velocity": 75}, {"time": 880, "pitch": 64, "duration": 6, "velocity": 91}, {"time": 886, "pitch": 69, "duration": 60, "velocity": 95}, {"time": 1100, "pitch": 76, "duration": 2, "velocity": 80}, {"time": 1102, "pitch": 76, "duration": 6, "velocity": 67}, {"time": 1102, "pitch": 76, "duration": 6, "velocity": 75}, {"time": 1108, "pitch": 73, "duration": 6, "velocity": 63}, {"time": 1114, "pitch": 78, "duration": 6, "velocity": 85}, {"time": 1120, "pitch": 76, "duration": 6, "velocity": 80}, {"time": 1126, "pitch": 73, "duration": 6, "velocity": 75}, {"time": 1132, "pitch": 71, "duration": 6, "velocity": 91}, {"time": 1138, "pitch": 69, "duration": 9, "velocity": 95}, {"time": 1148, "pitch": 71, "duration": 2, "velocity": 66}, {"time": 1150, "pitch": 73, "duration": 6, "velocity": 67}, {"time": 1156, "pitch": 76, "duration": 6, "velocity": 69}, {"time": 1162, "pitch": 73, "duration": 6, "velocity": 52}, {"time": 1168, "pitch": 69, "duration": 6, "velocity": 66}, {"time": 1174, "pitch": 66, "duration": 6, "velocity": 80}, {"time": 1180, "pitch": 64, "duration": 6, "velocity": 72}, {"time": 1186, "pitch": 69, "duration": 192, "velocity": 93}, {"time": 1378, "pitch": 64, "duration": 9, "velocity": 72}, {"time": 1388, "pitch": 66, "duration": 2, "velocity": 72}, {"time": 1390, "pitch": 68, "duration": 6, "velocity": 72}, {"time": 1396, "pitch": 71, "duration": 6, "velocity": 72}, {"time": 1402, "pitch": 66, "duration": 6, "velocity": 72}, {"time": 1408, "pitch": 64, "duration": 6, "velocity": 72}, {"time": 1414, "pitch": 61, "duration": 6, "velocity": 72}, {"time": 1420, "pitch": 59, "duration": 6, "velocity": 72}, {"time": 1426, "pitch": 64, "duration": 6, "velocity": 72}, {"time": 1432, "pitch": 64, "duration": 3, "velocity": 72}, {"time": 1436, "pitch": 64, "duration": 2, "velocity": 72}, {"time": 1438, "pitch": 64, "duration": 6, "velocity": 72}, {"time": 1444, "pitch": 66, "duration": 6, "velocity": 72}, {"time": 1450, "pitch": 61, "duration": 6, "velocity": 72}, {"time": 1456, "pitch": 59, "duration": 6, "velocity": 72}, {"time": 1462, "pitch": 64, "duration": 6, "velocity": 72}, {"time": 1606, "pitch": 57, "duration": 6, "velocity": 72}, {"time": 1612, "pitch": 59, "duration": 6, "velocity": 72}, {"time": 1618, "pitch": 61, "duration": 6, "velocity": 72}, {"time": 1628, "pitch": 64, "duration": 6, "velocity": 72}, {"time": 1630, "pitch": 66, "duration": 6, "velocity": 72}, {"time": 1636, "pitch": 69, "duration": 6, "velocity": 72}, {"time": 1642, "pitch": 64, "duration": 6, "velocity": 72}, {"time": 1648, "pitch": 59, "duration": 6, "velocity": 72}, {"time": 1654, "pitch": 61, "duration": 6, "velocity": 72}, {"time": 1660, "pitch": 62, "duration": 6, "velocity": 72}, {"time": 1666, "pitch": 61, "duration": 6, "velocity": 72}, {"time": 1750, "pitch": 57, "duration": 3, "velocity": 69}, {"time": 1754, "pitch": 59, "duration": 2, "velocity": 69}, {"time": 1756, "pitch": 61, "duration": 3, "velocity": 69}, {"time": 1760, "pitch": 62, "duration": 2, "velocity": 69}, {"time": 1762, "pitch": 64, "duration": 3, "velocity": 69}, {"time": 1858, "pitch": 59, "duration": 10, "velocity": 94}, {"time": 1868, "pitch": 61, "duration": 2, "velocity": 94}, {"time": 1870, "pitch": 64, "duration": 4, "velocity": 94}, {"time": 1876, "pitch": 69, "duration": 4, "velocity": 94}, {"time": 1882, "pitch": 66, "duration": 4, "velocity": 94}, {"time": 1888, "pitch": 64, "duration": 4, "velocity": 94}, {"time": 1894, "pitch": 62, "duration": 4, "velocity": 94}, {"time": 1900, "pitch": 61, "duration": 4, "velocity": 94}, {"time": 1906, "pitch": 59, "duration": 4, "velocity": 94}, {"time": 1916, "pitch": 61, "duration": 2, "velocity": 94}, {"time": 1918, "pitch": 57, "duration": 4, "velocity": 94}, {"time": 1924, "pitch": 61, "duration": 4, "velocity": 94}, {"time": 1930, "pitch": 59, "duration": 4, "velocity": 94}, {"time": 1936, "pitch": 57, "duration": 4, "velocity": 94}, {"time": 1942, "pitch": 59, "duration": 4, "velocity": 94}, {"time": 2342, "pitch": 69, "duration": 6, "velocity": 103}, {"time": 2348, "pitch": 71, "duration": 4, "velocity": 97}, {"time": 2350, "pitch": 73, "duration": 5, "velocity": 88}, {"time": 2356, "pitch": 76, "duration": 6, "velocity": 78}, {"time": 2362, "pitch": 71, "duration": 6, "velocity": 72}, {"time": 2368, "pitch": 69, "duration": 6, "velocity": 91}, {"time": 2374, "pitch": 66, "duration": 8, "velocity": 91}, {"time": 2380, "pitch": 64, "duration": 5, "velocity": 88}, {"time": 2386, "pitch": 69, "duration": 7, "velocity": 97}, {"time": 2396, "pitch": 71, "duration": 4, "velocity": 88}, {"time": 2398, "pitch": 73, "duration": 6, "velocity": 85}, {"time": 2404, "pitch": 76, "duration": 4, "velocity": 76}, {"time": 2410, "pitch": 78, "duration": 11, "velocity": 99}, {"time": 2416, "pitch": 73, "duration": 4, "velocity": 64}, {"time": 2422, "pitch": 76, "duration": 4, "velocity": 88}, {"time": 2426, "pitch": 73, "duration": 3, "velocity": 88}, {"time": 2428, "pitch": 76, "duration": 3, "velocity": 91}, {"time": 2432, "pitch": 78, "duration": 2, "velocity": 91}, {"time": 2434, "pitch": 81, "duration": 12, "velocity": 85}, {"time": 2578, "pitch": 71, "duration": 6, "velocity": 97}, {"time": 2584, "pitch": 69, "duration": 5, "velocity": 88}, {"time": 2588, "pitch": 71, "duration": 4, "velocity": 78}, {"time": 2590, "pitch": 73, "duration": 5, "velocity": 82}, {"time": 2594, "pitch": 71, "duration": 3, "velocity": 70}, {"time": 2596, "pitch": 73, "duration": 5, "velocity": 70}, {"time": 2602, "pitch": 76, "duration": 4, "velocity": 75}, {"time": 2608, "pitch": 71, "duration": 6, "velocity": 95}, {"time": 2608, "pitch": 73, "duration": 6, "velocity": 80}, {"time": 2612, "pitch": 76, "duration": 3, "velocity": 80}, {"time": 2614, "pitch": 78, "duration": 6, "velocity": 70}, {"time": 2618, "pitch": 76, "duration": 5, "velocity": 72}, {"time": 2620, "pitch": 78, "duration": 6, "velocity": 72}, {"time": 2626, "pitch": 81, "duration": 48, "velocity": 106}, {"time": 2686, "pitch": 64, "duration": 17, "velocity": 103}, {"time": 2698, "pitch": 68, "duration": 11, "velocity": 95}, {"time": 2710, "pitch": 71, "duration": 11, "velocity": 97}, {"time": 2722, "pitch": 73, "duration": 50, "velocity": 95}, {"time": 2776, "pitch": 81, "duration": 5, "velocity": 80}, {"time": 2782, "pitch": 78, "duration": 5, "velocity": 78}, {"time": 2788, "pitch": 76, "duration": 6, "velocity": 76}, {"time": 2794, "pitch": 73, "duration": 7, "velocity": 82}, {"time": 2800, "pitch": 69, "duration": 7, "velocity": 78}, {"time": 2806, "pitch": 66, "duration": 7, "velocity": 72}, {"time": 2812, "pitch": 64, "duration": 7, "velocity": 67}, {"time": 2818, "pitch": 64, "duration": 1, "velocity": 82}, {"time": 3018, "pitch": 73, "duration": 89, "velocity": 100}, {"time": 3114, "pitch": 74, "duration": 48, "velocity": 100}, {"time": 3251, "pitch": 73, "duration": 4, "velocity": 100}, {"time": 3256, "pitch": 71, "duration": 7, "velocity": 100}, {"time": 3262, "pitch": 73, "duration": 5, "velocity": 100}, {"time": 3268, "pitch": 76, "duration": 10, "velocity": 100}, {"time": 3280, "pitch": 76, "duration": 4, "velocity": 100}, {"time": 3286, "pitch": 78, "duration": 7, "velocity": 100}, {"time": 3292, "pitch": 76, "duration": 5, "velocity": 100}, {"time": 3299, "pitch": 81, "duration": 9, "velocity": 100}, {"time": 3353, "pitch": 80, "duration": 1, "velocity": 100}, {"time": 3356, "pitch": 80, "duration": 1, "velocity": 100}, {"time": 3358, "pitch": 80, "duration": 2, "velocity": 100}, {"time": 3364, "pitch": 78, "duration": 3, "velocity": 100}, {"time": 3371, "pitch": 76, "duration": 5, "velocity": 100}, {"time": 3379, "pitch": 78, "duration": 3, "velocity": 100}, {"time": 3382, "pitch": 80, "duration": 3, "velocity": 100}, {"time": 3388, "pitch": 83, "duration": 2, "velocity": 100}, {"time": 3394, "pitch": 78, "duration": 4, "velocity": 100}, {"time": 3401, "pitch": 76, "duration": 3, "velocity": 100}, {"time": 3407, "pitch": 73, "duration": 3, "velocity": 100}, {"time": 3412, "pitch": 71, "duration": 5, "velocity": 100}, {"time": 3418, "pitch": 76, "duration": 3, "velocity": 100}, {"time": 3586, "pitch": 73, "duration": 9, "velocity": 118}, {"time": 3596, "pitch": 71, "duration": 2, "velocity": 101}, {"time": 3598, "pitch": 69, "duration": 6, "velocity": 113}, {"time": 3604, "pitch": 73, "duration": 6, "velocity": 106}, {"time": 3610, "pitch": 71, "duration": 6, "velocity": 103}, {"time": 3616, "pitch": 69, "duration": 6, "velocity": 103}, {"time": 3622, "pitch": 66, "duration": 6, "velocity": 97}, {"time": 3628, "pitch": 64, "duration": 6, "velocity": 99}, {"time": 3634, "pitch": 61, "duration": 9, "velocity": 99}, {"time": 3644, "pitch": 59, "duration": 2, "velocity": 88}, {"time": 3646, "pitch": 57, "duration": 6, "velocity": 82}, {"time": 3652, "pitch": 61, "duration": 6, "velocity": 95}, {"time": 3658, "pitch": 59, "duration": 6, "velocity": 91}, {"time": 3664, "pitch": 57, "duration": 6, "velocity": 88}, {"time": 3670, "pitch": 54, "duration": 6, "velocity": 73}, {"time": 3676, "pitch": 52, "duration": 6, "velocity": 97}, {"time": 3682, "pitch": 57, "duration": 12, "velocity": 101}, {"time": 3694, "pitch": 69, "duration": 18, "velocity": 99}, {"time": 3712, "pitch": 73, "duration": 6, "velocity": 99}, {"time": 3718, "pitch": 71, "duration": 6, "velocity": 78}, {"time": 3724, "pitch": 69, "duration": 6, "velocity": 91}, {"time": 3730, "pitch": 71, "duration": 9, "velocity": 97}, {"time": 3740, "pitch": 73, "duration": 8, "velocity": 91}, {"time": 3748, "pitch": 76, "duration": 12, "velocity": 93}, {"time": 3760, "pitch": 64, "duration": 6, "velocity": 88}, {"time": 3766, "pitch": 66, "duration": 6, "velocity": 78}, {"time": 3772, "pitch": 64, "duration": 6, "velocity": 82}, {"time": 3778, "pitch": 69, "duration": 9, "velocity": 76}, {"time": 3788, "pitch": 71, "duration": 2, "velocity": 85}, {"time": 3790, "pitch": 73, "duration": 6, "velocity": 69}, {"time": 3796, "pitch": 76, "duration": 6, "velocity": 70}, {"time": 3802, "pitch": 71, "duration": 6, "velocity": 91}, {"time": 3808, "pitch": 69, "duration": 6, "velocity": 88}, {"time": 3814, "pitch": 66, "duration": 6, "velocity": 72}, {"time": 3820, "pitch": 64, "duration": 6, "velocity": 82}, {"time": 3826, "pitch": 69, "duration": 9, "velocity": 80}, {"time": 3836, "pitch": 73, "duration": 2, "velocity": 99}, {"time": 3838, "pitch": 71, "duration": 6, "velocity": 88}, {"time": 3844, "pitch": 69, "duration": 6, "velocity": 85}, {"time": 3850, "pitch": 66, "duration": 6, "velocity": 91}, {"time": 3856, "pitch": 64, "duration": 6, "velocity": 82}, {"time": 3862, "pitch": 69, "duration": 60, "velocity": 43}, {"time": 4076, "pitch": 76, "duration": 2, "velocity": 80}, {"time": 4078, "pitch": 76, "duration": 6, "velocity": 67}, {"time": 4078, "pitch": 76, "duration": 6, "velocity": 75}, {"time": 4084, "pitch": 73, "duration": 6, "velocity": 63}, {"time": 4090, "pitch": 78, "duration": 6, "velocity": 85}, {"time": 4096, "pitch": 76, "duration": 6, "velocity": 80}, {"time": 4102, "pitch": 73, "duration": 6, "velocity": 75}, {"time": 4108, "pitch": 71, "duration": 6, "velocity": 91}, {"time": 4114, "pitch": 69, "duration": 9, "velocity": 95}, {"time": 4124, "pitch": 71, "duration": 2, "velocity": 66}, {"time": 4126, "pitch": 73, "duration": 6, "velocity": 67}, {"time": 4132, "pitch": 76, "duration": 6, "velocity": 69}, {"time": 4138, "pitch": 73, "duration": 6, "velocity": 52}, {"time": 4144, "pitch": 69, "duration": 6, "velocity": 66}, {"time": 4150, "pitch": 66, "duration": 6, "velocity": 80}, {"time": 4156, "pitch": 64, "duration": 6, "velocity": 72}, {"time": 4162, "pitch": 69, "duration": 192, "velocity": 93}, {"time": 4354, "pitch": 64, "duration": 9, "velocity": 72}, {"time": 4364, "pitch": 66, "duration": 2, "velocity": 72}, {"time": 4366, "pitch": 68, "duration": 6, "velocity": 72}, {"time": 4372, "pitch": 71, "duration": 6, "velocity": 72}, {"time": 4378, "pitch": 66, "duration": 6, "velocity": 72}, {"time": 4384, "pitch": 64, "duration": 6, "velocity": 72}, {"time": 4390, "pitch": 61, "duration": 6, "velocity": 72}, {"time": 4396, "pitch": 59, "duration": 6, "velocity": 72}, {"time": 4402, "pitch": 64, "duration": 6, "velocity": 72}, {"time": 4408, "pitch": 64, "duration": 3, "velocity": 72}, {"time": 4412, "pitch": 64, "duration": 2, "velocity": 72}, {"time": 4414, "pitch": 64, "duration": 6, "velocity": 72}, {"time": 4420, "pitch": 66, "duration": 6, "velocity": 72}, {"time": 4426, "pitch": 61, "duration": 6, "velocity": 72}, {"time": 4432, "pitch": 59, "duration": 6, "velocity": 72}, {"time": 4438, "pitch": 64, "duration": 6, "velocity": 72}, {"time": 4582, "pitch": 57, "duration": 6, "velocity": 72}, {"time": 4588, "pitch": 59, "duration": 6, "velocity": 72}, {"time": 4594, "pitch": 61, "duration": 6, "velocity": 72}, {"time": 4604, "pitch": 64, "duration": 6, "velocity": 72}, {"time": 4606, "pitch": 66, "duration": 6, "velocity": 72}, {"time": 4612, "pitch": 69, "duration": 6, "velocity": 72}, {"time": 4618, "pitch": 64, "duration": 6, "velocity": 72}, {"time": 4624, "pitch": 59, "duration": 6, "velocity": 72}, {"time": 4630, "pitch": 61, "duration": 6, "velocity": 72}, {"time": 4636, "pitch": 62, "duration": 6, "velocity": 72}, {"time": 4642, "pitch": 61, "duration": 6, "velocity": 72}, {"time": 4726, "pitch": 57, "duration": 3, "velocity": 69}, {"time": 4730, "pitch": 59, "duration": 2, "velocity": 69}, {"time": 4732, "pitch": 61, "duration": 3, "velocity": 69}, {"time": 4736, "pitch": 62, "duration": 2, "velocity": 69}, {"time": 4738, "pitch": 64, "duration": 3, "velocity": 69}, {"time": 4834, "pitch": 59, "duration": 10, "velocity": 94}, {"time": 4844, "pitch": 61, "duration": 2, "velocity": 94}, {"time": 4846, "pitch": 64, "duration": 4, "velocity": 94}, {"time": 4852, "pitch": 69, "duration": 4, "velocity": 94}, {"time": 4858, "pitch": 66, "duration": 4, "velocity": 94}, {"time": 4864, "pitch": 64, "duration": 4, "velocity": 94}, {"time": 4870, "pitch": 62, "duration": 4, "velocity": 94}, {"time": 4876, "pitch": 61, "duration": 4, "velocity": 94}, {"time": 4882, "pitch": 59, "duration": 4, "velocity": 94}, {"time": 4892, "pitch": 61, "duration": 2, "velocity": 94}, {"time": 4894, "pitch": 57, "duration": 4, "velocity": 94}, {"time": 4900, "pitch": 61, "duration": 4, "velocity": 94}, {"time": 4906, "pitch": 59, "duration": 4, "velocity": 94}, {"time": 4912, "pitch": 57, "duration": 4, "velocity": 94}, {"time": 4918, "pitch": 59, "duration": 4, "velocity": 94}, {"time": 5318, "pitch": 69, "duration": 6, "velocity": 103}, {"time": 5324, "pitch": 71, "duration": 4, "velocity": 97}, {"time": 5326, "pitch": 73, "duration": 5, "velocity": 88}, {"time": 5332, "pitch": 76, "duration": 6, "velocity": 78}, {"time": 5338, "pitch": 71, "duration": 6, "velocity": 72}, {"time": 5344, "pitch": 69, "duration": 6, "velocity": 91}, {"time": 5350, "pitch": 66, "duration": 8, "velocity": 91}, {"time": 5356, "pitch": 64, "duration": 5, "velocity": 88}, {"time": 5362, "pitch": 69, "duration": 7, "velocity": 97}, {"time": 5372, "pitch": 71, "duration": 4, "velocity": 88}, {"time": 5374, "pitch": 73, "duration": 6, "velocity": 85}, {"time": 5380, "pitch": 76, "duration": 4, "velocity": 76}, {"time": 5386, "pitch": 78, "duration": 11, "velocity": 99}, {"time": 5392, "pitch": 73, "duration": 4, "velocity": 64}, {"time": 5398, "pitch": 76, "duration": 4, "velocity": 88}, {"time": 5402, "pitch": 73, "duration": 3, "velocity": 88}, {"time": 5404, "pitch": 76, "duration": 3, "velocity": 91}, {"time": 5408, "pitch": 78, "duration": 2, "velocity": 91}, {"time": 5410, "pitch": 81, "duration": 12, "velocity": 85}, {"time": 5554, "pitch": 71, "duration": 6, "velocity": 97}, {"time": 5560, "pitch": 69, "duration": 5, "velocity": 88}, {"time": 5564, "pitch": 71, "duration": 4, "velocity": 78}, {"time": 5566, "pitch": 73, "duration": 5, "velocity": 82}, {"time": 5570, "pitch": 71, "duration": 3, "velocity": 70}, {"time": 5572, "pitch": 73, "duration": 5, "velocity": 70}, {"time": 5578, "pitch": 76, "duration": 4, "velocity": 75}, {"time": 5584, "pitch": 71, "duration": 6, "velocity": 95}, {"time": 5584, "pitch": 73, "duration": 6, "velocity": 80}, {"time": 5588, "pitch": 76, "duration": 3, "velocity": 80}, {"time": 5590, "pitch": 78, "duration": 6, "velocity": 70}, {"time": 5594, "pitch": 76, "duration": 5, "velocity": 72}, {"time": 5596, "pitch": 78, "duration": 6, "velocity": 72}, {"time": 5602, "pitch": 81, "duration": 48, "velocity": 106}, {"time": 5662, "pitch": 64, "duration": 17, "velocity": 103}, {"time": 5674, "pitch": 68, "duration": 11, "velocity": 95}, {"time": 5686, "pitch": 71, "duration": 11, "velocity": 97}, {"time": 5698, "pitch": 73, "duration": 50, "velocity": 95}, {"time": 5752, "pitch": 81, "duration": 5, "velocity": 80}, {"time": 5758, "pitch": 78, "duration": 5, "velocity": 78}, {"time": 5764, "pitch": 76, "duration": 6, "velocity": 76}, {"time": 5770, "pitch": 73, "duration": 7, "velocity": 82}, {"time": 5776, "pitch": 69, "duration": 7, "velocity": 78}, {"time": 5782, "pitch": 66, "duration": 7, "velocity": 72}, {"time": 5788, "pitch": 64, "duration": 7, "velocity": 67}, {"time": 5794, "pitch": 64, "duration": 1, "velocity": 82}, {"time": 6658, "pitch": 52, "duration": 38, "velocity": 72}, {"time": 6658, "pitch": 57, "duration": 38, "velocity": 56}, {"time": 6658, "pitch": 59, "duration": 38, "velocity": 56}, {"time": 6658, "pitch": 61, "duration": 38, "velocity": 72}, {"time": 6658, "pitch": 69, "duration": 6, "velocity": 88}, {"time": 6668, "pitch": 69, "duration": 1, "velocity": 80}, {"time": 6670, "pitch": 69, "duration": 4, "velocity": 80}, {"time": 6676, "pitch": 71, "duration": 4, "velocity": 91}, {"time": 6682, "pitch": 69, "duration": 4, "velocity": 93}, {"time": 6688, "pitch": 64, "duration": 4, "velocity": 91}, {"time": 6694, "pitch": 66, "duration": 4, "velocity": 95}, {"time": 6700, "pitch": 64, "duration": 4, "velocity": 69}, {"time": 6706, "pitch": 50, "duration": 9, "velocity": 60}, {"time": 6706, "pitch": 54, "duration": 10, "velocity": 67}, {"time": 6706, "pitch": 57, "duration": 9, "velocity": 69}, {"time": 6706, "pitch": 61, "duration": 10, "velocity": 64}, {"time": 6706, "pitch": 69, "duration": 6, "velocity": 82}, {"time": 6716, "pitch": 71, "duration": 1, "velocity": 85}, {"time": 6718, "pitch": 73, "duration": 4, "velocity": 88}, {"time": 6724, "pitch": 71, "duration": 5, "velocity": 97}, {"time": 6730, "pitch": 52, "duration": 12, "velocity": 73}, {"time": 6730, "pitch": 56, "duration": 12, "velocity": 75}, {"time": 6730, "pitch": 59, "duration": 11, "velocity": 75}, {"time": 6730, "pitch": 69, "duration": 4, "velocity": 91}, {"time": 6736, "pitch": 69, "duration": 5, "velocity": 75}, {"time": 6742, "pitch": 66, "duration": 5, "velocity": 95}, {"time": 6748, "pitch": 64, "duration": 4, "velocity": 85}, {"time": 6754, "pitch": 45, "duration": 8, "velocity": 70}, {"time": 6754, "pitch": 57, "duration": 8, "velocity": 85}, {"time": 6754, "pitch": 64, "duration": 7, "velocity": 88}, {"time": 6754, "pitch": 69, "duration": 8, "velocity": 95}], "annotations": [{"time": 168, "annotation": {"number": 64, "value": 127}, "group": "control_change"}, {"time": 170, "annotation": {"number": 64, "value": 0}, "group": "control_change"}, {"time": 6663, "annotation": {"number": 64, "value": 127}, "group": "control_change"}, {"time": 6706, "annotation": {"number": 64, "value": 0}, "group": "control_change"}, {"time": 6712, "annotation": {"number": 64, "value": 127}, "group": "control_change"}, {"time": 6728, "annotation": {"number": 64, "value": 0}, "group": "control_change"}, {"time": 6741, "annotation": {"number": 64, "value": 127}, "group": "control_change"}, {"time": 6747, "annotation": {"number": 64, "value": 0}, "group": "control_change"}]}, {"program": 0, "is_drum": false, "name": "PIANO", "notes": [{"time": 130, "pitch": 45, "duration": 39, "velocity": 70}, {"time": 130, "pitch": 61, "duration": 12, "velocity": 70}, {"time": 130, "pitch": 64, "duration": 13, "velocity": 72}, {"time": 130, "pitch": 69, "duration": 15, "velocity": 70}, {"time": 136, "pitch": 52, "duration": 27, "velocity": 58}, {"time": 142, "pitch": 57, "duration": 24, "velocity": 64}, {"time": 148, "pitch": 59, "duration": 9, "velocity": 70}, {"time": 154, "pitch": 64, "duration": 10, "velocity": 66}, {"time": 160, "pitch": 66, "duration": 4, "velocity": 58}, {"time": 166, "pitch": 52, "duration": 3, "velocity": 75}, {"time": 166, "pitch": 69, "duration": 9, "velocity": 80}, {"time": 178, "pitch": 38, "duration": 4, "velocity": 72}, {"time": 178, "pitch": 50, "duration": 3, "velocity": 72}, {"time": 178, "pitch": 57, "duration": 3, "velocity": 80}, {"time": 178, "pitch": 62, "duration": 3, "velocity": 82}, {"time": 178, "pitch": 66, "duration": 4, "velocity": 75}, {"time": 182, "pitch": 38, "duration": 1, "velocity": 66}, {"time": 182, "pitch": 50, "duration": 9, "velocity": 61}, {"time": 182, "pitch": 57, "duration": 14, "velocity": 75}, {"time": 182, "pitch": 62, "duration": 14, "velocity": 69}, {"time": 182, "pitch": 66, "duration": 1, "velocity": 70}, {"time": 196, "pitch": 50, "duration": 15, "velocity": 54}, {"time": 202, "pitch": 57, "duration": 10, "velocity": 72}, {"time": 208, "pitch": 62, "duration": 6, "velocity": 70}, {"time": 214, "pitch": 50, "duration": 3, "velocity": 67}, {"time": 226, "pitch": 37, "duration": 38, "velocity": 78}, {"time": 226, "pitch": 61, "duration": 9, "velocity": 76}, {"time": 226, "pitch": 65, "duration": 10, "velocity": 95}, {"time": 226, "pitch": 73, "duration": 16, "velocity": 85}, {"time": 232, "pitch": 49, "duration": 28, "velocity": 55}, {"time": 238, "pitch": 61, "duration": 17, "velocity": 62}, {"time": 244, "pitch": 65, "duration": 14, "velocity": 57}, {"time": 262, "pitch": 49, "duration": 3, "velocity": 75}, {"time": 262, "pitch": 61, "duration": 2, "velocity": 60}, {"time": 262, "pitch": 65, "duration": 2, "velocity": 66}, {"time": 262, "pitch": 73, "duration": 2, "velocity": 47}, {"time": 268, "pitch": 54, "duration": 4, "velocity": 76}, {"time": 274, "pitch": 56, "duration": 4, "velocity": 76}, {"time": 280, "pitch": 58, "duration": 4, "velocity": 76}, {"time": 286, "pitch": 61, "duration": 4, "velocity": 76}, {"time": 292, "pitch": 63, "duration": 4, "velocity": 76}, {"time": 298, "pitch": 66, "duration": 4, "velocity": 76}, {"time": 304, "pitch": 68, "duration": 4, "velocity": 76}, {"time": 310, "pitch": 70, "duration": 4, "velocity": 76}, {"time": 316, "pitch": 73, "duration": 4, "velocity": 76}, {"time": 322, "pitch": 40, "duration": 11, "velocity": 70}, {"time": 322, "pitch": 59, "duration": 22, "velocity": 75}, {"time": 322, "pitch": 64, "duration": 26, "velocity": 82}, {"time": 322, "pitch": 68, "duration": 25, "velocity": 63}, {"time": 322, "pitch": 76, "duration": 25, "velocity": 63}, {"time": 328, "pitch": 47, "duration": 6, "velocity": 58}, {"time": 334, "pitch": 52, "duration": 8, "velocity": 62}, {"time": 340, "pitch": 54, "duration": 16, "velocity": 58}, {"time": 346, "pitch": 56, "duration": 10, "velocity": 76}, {"time": 352, "pitch": 59, "duration": 4, "velocity": 67}, {"time": 358, "pitch": 64, "duration": 7, "velocity": 52}, {"time": 364, "pitch": 69, "duration": 4, "velocity": 66}, {"time": 370, "pitch": 61, "duration": 13, "velocity": 63}, {"time": 370, "pitch": 64, "duration": 13, "velocity": 67}, {"time": 370, "pitch": 69, "duration": 15, "velocity": 67}, {"time": 376, "pitch": 52, "duration": 32, "velocity": 62}, {"time": 382, "pitch": 57, "duration": 15, "velocity": 69}, {"time": 388, "pitch": 59, "duration": 11, "velocity": 59}, {"time": 394, "pitch": 61, "duration": 9, "velocity": 78}, {"time": 400, "pitch": 57, "duration": 7, "velocity": 51}, {"time": 406, "pitch": 59, "duration": 6, "velocity": 56}, {"time": 412, "pitch": 64, "duration": 6, "velocity": 67}, {"time": 418, "pitch": 57, "duration": 20, "velocity": 64}, {"time": 418, "pitch": 62, "duration": 24, "velocity": 67}, {"time": 418, "pitch": 66, "duration": 25, "velocity": 66}, {"time": 430, "pitch": 50, "duration": 8, "velocity": 55}, {"time": 436, "pitch": 52, "duration": 16, "velocity": 80}, {"time": 442, "pitch": 54, "duration": 10, "velocity": 72}, {"time": 448, "pitch": 57, "duration": 5, "velocity": 61}, {"time": 454, "pitch": 62, "duration": 7, "velocity": 59}, {"time": 460, "pitch": 66, "duration": 5, "velocity": 72}, {"time": 466, "pitch": 57, "duration": 15, "velocity": 62}, {"time": 466, "pitch": 64, "duration": 14, "velocity": 76}, {"time": 478, "pitch": 50, "duration": 13, "velocity": 60}, {"time": 484, "pitch": 57, "duration": 5, "velocity": 60}, {"time": 490, "pitch": 57, "duration": 7, "velocity": 63}, {"time": 490, "pitch": 62, "duration": 8, "velocity": 85}, {"time": 496, "pitch": 50, "duration": 8, "velocity": 49}, {"time": 502, "pitch": 57, "duration": 5, "velocity": 59}, {"time": 508, "pitch": 62, "duration": 5, "velocity": 64}, {"time": 514, "pitch": 61, "duration": 20, "velocity": 78}, {"time": 514, "pitch": 64, "duration": 17, "velocity": 75}, {"time": 514, "pitch": 69, "duration": 19, "velocity": 76}, {"time": 526, "pitch": 52, "duration": 26, "velocity": 57}, {"time": 532, "pitch": 57, "duration": 8, "velocity": 72}, {"time": 538, "pitch": 61, "duration": 8, "velocity": 75}, {"time": 538, "pitch": 68, "duration": 12, "velocity": 73}, {"time": 544, "pitch": 57, "duration": 6, "velocity": 46}, {"time": 550, "pitch": 61, "duration": 3, "velocity": 76}, {"time": 550, "pitch": 64, "duration": 3, "velocity": 76}, {"time": 550, "pitch": 69, "duration": 4, "velocity": 82}, {"time": 562, "pitch": 59, "duration": 10, "velocity": 80}, {"time": 562, "pitch": 64, "duration": 16, "velocity": 78}, {"time": 562, "pitch": 68, "duration": 22, "velocity": 76}, {"time": 574, "pitch": 52, "duration": 7, "velocity": 64}, {"time": 580, "pitch": 54, "duration": 14, "velocity": 60}, {"time": 586, "pitch": 56, "duration": 7, "velocity": 60}, {"time": 592, "pitch": 59, "duration": 4, "velocity": 55}, {"time": 598, "pitch": 64, "duration": 5, "velocity": 57}, {"time": 604, "pitch": 69, "duration": 4, "velocity": 67}, {"time": 610, "pitch": 57, "duration": 41, "velocity": 71}, {"time": 622, "pitch": 61, "duration": 2, "velocity": 71}, {"time": 622, "pitch": 64, "duration": 3, "velocity": 71}, {"time": 628, "pitch": 61, "duration": 2, "velocity": 73}, {"time": 628, "pitch": 64, "duration": 3, "velocity": 71}, {"time": 634, "pitch": 61, "duration": 15, "velocity": 73}, {"time": 634, "pitch": 64, "duration": 16, "velocity": 73}, {"time": 658, "pitch": 57, "duration": 42, "velocity": 79}, {"time": 670, "pitch": 61, "duration": 2, "velocity": 82}, {"time": 670, "pitch": 64, "duration": 3, "velocity": 82}, {"time": 676, "pitch": 61, "duration": 2, "velocity": 82}, {"time": 676, "pitch": 64, "duration": 2, "velocity": 82}, {"time": 682, "pitch": 61, "duration": 16, "velocity": 77}, {"time": 682, "pitch": 64, "duration": 17, "velocity": 82}, {"time": 898, "pitch": 61, "duration": 16, "velocity": 63}, {"time": 898, "pitch": 64, "duration": 15, "velocity": 70}, {"time": 898, "pitch": 69, "duration": 17, "velocity": 70}, {"time": 922, "pitch": 61, "duration": 14, "velocity": 44}, {"time": 922, "pitch": 64, "duration": 13, "velocity": 51}, {"time": 922, "pitch": 69, "duration": 15, "velocity": 47}, {"time": 946, "pitch": 61, "duration": 14, "velocity": 40}, {"time": 946, "pitch": 64, "duration": 13, "velocity": 45}, {"time": 946, "pitch": 69, "duration": 16, "velocity": 38}, {"time": 964, "pitch": 57, "duration": 8, "velocity": 36}, {"time": 970, "pitch": 61, "duration": 12, "velocity": 48}, {"time": 970, "pitch": 64, "duration": 12, "velocity": 56}, {"time": 970, "pitch": 69, "duration": 15, "velocity": 40}, {"time": 982, "pitch": 57, "duration": 13, "velocity": 30}, {"time": 994, "pitch": 61, "duration": 12, "velocity": 49}, {"time": 994, "pitch": 64, "duration": 13, "velocity": 56}, {"time": 994, "pitch": 69, "duration": 13, "velocity": 45}, {"time": 1018, "pitch": 61, "duration": 11, "velocity": 53}, {"time": 1018, "pitch": 64, "duration": 11, "velocity": 60}, {"time": 1018, "pitch": 69, "duration": 17, "velocity": 47}, {"time": 1030, "pitch": 52, "duration": 12, "velocity": 33}, {"time": 1042, "pitch": 61, "duration": 15, "velocity": 51}, {"time": 1042, "pitch": 64, "duration": 14, "velocity": 55}, {"time": 1042, "pitch": 69, "duration": 18, "velocity": 58}, {"time": 1060, "pitch": 57, "duration": 9, "velocity": 20}, {"time": 1066, "pitch": 61, "duration": 11, "velocity": 50}, {"time": 1066, "pitch": 64, "duration": 11, "velocity": 57}, {"time": 1066, "pitch": 69, "duration": 13, "velocity": 46}, {"time": 1078, "pitch": 57, "duration": 3, "velocity": 62}, {"time": 1090, "pitch": 52, "duration": 31, "velocity": 50}, {"time": 1090, "pitch": 59, "duration": 16, "velocity": 58}, {"time": 1090, "pitch": 64, "duration": 16, "velocity": 50}, {"time": 1090, "pitch": 68, "duration": 13, "velocity": 53}, {"time": 1114, "pitch": 59, "duration": 12, "velocity": 47}, {"time": 1114, "pitch": 64, "duration": 13, "velocity": 52}, {"time": 1114, "pitch": 68, "duration": 12, "velocity": 50}, {"time": 1126, "pitch": 52, "duration": 15, "velocity": 44}, {"time": 1138, "pitch": 61, "duration": 13, "velocity": 52}, {"time": 1138, "pitch": 64, "duration": 13, "velocity": 53}, {"time": 1138, "pitch": 69, "duration": 13, "velocity": 49}, {"time": 1162, "pitch": 61, "duration": 12, "velocity": 49}, {"time": 1162, "pitch": 64, "duration": 12, "velocity": 55}, {"time": 1162, "pitch": 69, "duration": 14, "velocity": 44}, {"time": 1186, "pitch": 50, "duration": 26, "velocity": 47}, {"time": 1186, "pitch": 57, "duration": 14, "velocity": 62}, {"time": 1186, "pitch": 62, "duration": 14, "velocity": 62}, {"time": 1186, "pitch": 66, "duration": 14, "velocity": 61}, {"time": 1210, "pitch": 57, "duration": 12, "velocity": 59}, {"time": 1210, "pitch": 62, "duration": 14, "velocity": 54}, {"time": 1210, "pitch": 66, "duration": 15, "velocity": 61}, {"time": 1222, "pitch": 50, "duration": 18, "velocity": 49}, {"time": 1234, "pitch": 57, "duration": 14, "velocity": 64}, {"time": 1234, "pitch": 62, "duration": 14, "velocity": 64}, {"time": 1234, "pitch": 66, "duration": 14, "velocity": 67}, {"time": 1250, "pitch": 50, "duration": 10, "velocity": 13}, {"time": 1258, "pitch": 57, "duration": 10, "velocity": 66}, {"time": 1258, "pitch": 62, "duration": 13, "velocity": 62}, {"time": 1258, "pitch": 66, "duration": 15, "velocity": 60}, {"time": 1270, "pitch": 50, "duration": 12, "velocity": 40}, {"time": 1282, "pitch": 57, "duration": 36, "velocity": 54}, {"time": 1282, "pitch": 61, "duration": 18, "velocity": 66}, {"time": 1282, "pitch": 64, "duration": 18, "velocity": 70}, {"time": 1282, "pitch": 69, "duration": 20, "velocity": 66}, {"time": 1306, "pitch": 61, "duration": 14, "velocity": 63}, {"time": 1306, "pitch": 64, "duration": 14, "velocity": 69}, {"time": 1306, "pitch": 69, "duration": 18, "velocity": 67}, {"time": 1330, "pitch": 57, "duration": 29, "velocity": 44}, {"time": 1330, "pitch": 61, "duration": 15, "velocity": 62}, {"time": 1330, "pitch": 64, "duration": 17, "velocity": 56}, {"time": 1330, "pitch": 69, "duration": 21, "velocity": 72}, {"time": 1354, "pitch": 61, "duration": 13, "velocity": 70}, {"time": 1354, "pitch": 64, "duration": 14, "velocity": 69}, {"time": 1354, "pitch": 69, "duration": 16, "velocity": 73}, {"time": 1366, "pitch": 57, "duration": 7, "velocity": 49}, {"time": 1378, "pitch": 52, "duration": 10, "velocity": 49}, {"time": 1378, "pitch": 59, "duration": 17, "velocity": 58}, {"time": 1378, "pitch": 64, "duration": 17, "velocity": 54}, {"time": 1378, "pitch": 68, "duration": 15, "velocity": 58}, {"time": 1396, "pitch": 52, "duration": 9, "velocity": 36}, {"time": 1402, "pitch": 59, "duration": 5, "velocity": 54}, {"time": 1402, "pitch": 64, "duration": 6, "velocity": 55}, {"time": 1402, "pitch": 68, "duration": 7, "velocity": 57}, {"time": 1426, "pitch": 52, "duration": 13, "velocity": 59}, {"time": 1426, "pitch": 59, "duration": 18, "velocity": 57}, {"time": 1426, "pitch": 64, "duration": 18, "velocity": 58}, {"time": 1426, "pitch": 68, "duration": 16, "velocity": 54}, {"time": 1444, "pitch": 52, "duration": 8, "velocity": 37}, {"time": 1450, "pitch": 59, "duration": 8, "velocity": 62}, {"time": 1450, "pitch": 64, "duration": 8, "velocity": 66}, {"time": 1450, "pitch": 68, "duration": 8, "velocity": 63}, {"time": 1456, "pitch": 52, "duration": 6, "velocity": 51}, {"time": 1462, "pitch": 66, "duration": 6, "velocity": 66}, {"time": 1468, "pitch": 68, "duration": 5, "velocity": 63}, {"time": 1474, "pitch": 61, "duration": 19, "velocity": 69}, {"time": 1474, "pitch": 66, "duration": 20, "velocity": 72}, {"time": 1474, "pitch": 69, "duration": 19, "velocity": 70}, {"time": 1498, "pitch": 61, "duration": 14, "velocity": 59}, {"time": 1498, "pitch": 66, "duration": 13, "velocity": 62}, {"time": 1498, "pitch": 69, "duration": 19, "velocity": 56}, {"time": 1510, "pitch": 54, "duration": 4, "velocity": 46}, {"time": 1522, "pitch": 52, "duration": 27, "velocity": 51}, {"time": 1522, "pitch": 59, "duration": 19, "velocity": 61}, {"time": 1522, "pitch": 64, "duration": 18, "velocity": 63}, {"time": 1522, "pitch": 68, "duration": 16, "velocity": 61}, {"time": 1546, "pitch": 59, "duration": 11, "velocity": 59}, {"time": 1546, "pitch": 64, "duration": 10, "velocity": 60}, {"time": 1546, "pitch": 68, "duration": 12, "velocity": 58}, {"time": 1558, "pitch": 52, "duration": 4, "velocity": 49}, {"time": 1570, "pitch": 54, "duration": 29, "velocity": 55}, {"time": 1570, "pitch": 61, "duration": 19, "velocity": 57}, {"time": 1570, "pitch": 66, "duration": 18, "velocity": 62}, {"time": 1570, "pitch": 69, "duration": 20, "velocity": 64}, {"time": 1594, "pitch": 61, "duration": 16, "velocity": 69}, {"time": 1594, "pitch": 66, "duration": 15, "velocity": 70}, {"time": 1594, "pitch": 69, "duration": 17, "velocity": 67}, {"time": 1606, "pitch": 54, "duration": 5, "velocity": 49}, {"time": 1618, "pitch": 61, "duration": 17, "velocity": 58}, {"time": 1618, "pitch": 66, "duration": 18, "velocity": 70}, {"time": 1618, "pitch": 69, "duration": 17, "velocity": 31}, {"time": 1636, "pitch": 54, "duration": 9, "velocity": 31}, {"time": 1642, "pitch": 52, "duration": 25, "velocity": 58}, {"time": 1642, "pitch": 59, "duration": 14, "velocity": 66}, {"time": 1642, "pitch": 64, "duration": 14, "velocity": 66}, {"time": 1642, "pitch": 68, "duration": 21, "velocity": 64}, {"time": 1666, "pitch": 61, "duration": 18, "velocity": 60}, {"time": 1666, "pitch": 64, "duration": 18, "velocity": 63}, {"time": 1666, "pitch": 69, "duration": 20, "velocity": 66}, {"time": 1690, "pitch": 61, "duration": 17, "velocity": 57}, {"time": 1690, "pitch": 64, "duration": 13, "velocity": 62}, {"time": 1690, "pitch": 69, "duration": 18, "velocity": 58}, {"time": 1714, "pitch": 61, "duration": 16, "velocity": 50}, {"time": 1714, "pitch": 64, "duration": 15, "velocity": 51}, {"time": 1714, "pitch": 69, "duration": 18, "velocity": 54}, {"time": 1738, "pitch": 61, "duration": 14, "velocity": 66}, {"time": 1738, "pitch": 64, "duration": 13, "velocity": 70}, {"time": 1738, "pitch": 69, "duration": 14, "velocity": 67}, {"time": 1762, "pitch": 45, "duration": 43, "velocity": 57}, {"time": 1762, "pitch": 61, "duration": 11, "velocity": 56}, {"time": 1762, "pitch": 64, "duration": 11, "velocity": 61}, {"time": 1762, "pitch": 69, "duration": 13, "velocity": 62}, {"time": 1768, "pitch": 52, "duration": 30, "velocity": 57}, {"time": 1774, "pitch": 57, "duration": 13, "velocity": 53}, {"time": 1780, "pitch": 61, "duration": 16, "velocity": 60}, {"time": 1786, "pitch": 64, "duration": 13, "velocity": 66}, {"time": 1786, "pitch": 69, "duration": 13, "velocity": 61}, {"time": 1798, "pitch": 57, "duration": 7, "velocity": 34}, {"time": 1804, "pitch": 52, "duration": 7, "velocity": 57}, {"time": 1810, "pitch": 45, "duration": 37, "velocity": 57}, {"time": 1810, "pitch": 61, "duration": 16, "velocity": 50}, {"time": 1810, "pitch": 64, "duration": 16, "velocity": 59}, {"time": 1810, "pitch": 69, "duration": 17, "velocity": 49}, {"time": 1822, "pitch": 52, "duration": 26, "velocity": 34}, {"time": 1828, "pitch": 57, "duration": 7, "velocity": 46}, {"time": 1834, "pitch": 61, "duration": 12, "velocity": 70}, {"time": 1834, "pitch": 64, "duration": 12, "velocity": 75}, {"time": 1834, "pitch": 69, "duration": 14, "velocity": 70}, {"time": 1846, "pitch": 57, "duration": 10, "velocity": 52}, {"time": 1858, "pitch": 47, "duration": 43, "velocity": 69}, {"time": 1858, "pitch": 59, "duration": 6, "velocity": 62}, {"time": 1858, "pitch": 62, "duration": 10, "velocity": 64}, {"time": 1858, "pitch": 66, "duration": 10, "velocity": 64}, {"time": 1864, "pitch": 54, "duration": 44, "velocity": 51}, {"time": 1870, "pitch": 59, "duration": 15, "velocity": 54}, {"time": 1876, "pitch": 61, "duration": 6, "velocity": 52}, {"time": 1882, "pitch": 62, "duration": 11, "velocity": 75}, {"time": 1894, "pitch": 59, "duration": 6, "velocity": 44}, {"time": 1894, "pitch": 62, "duration": 5, "velocity": 60}, {"time": 1906, "pitch": 47, "duration": 39, "velocity": 61}, {"time": 1906, "pitch": 62, "duration": 9, "velocity": 56}, {"time": 1906, "pitch": 66, "duration": 9, "velocity": 53}, {"time": 1906, "pitch": 71, "duration": 11, "velocity": 73}, {"time": 1918, "pitch": 54, "duration": 37, "velocity": 44}, {"time": 1924, "pitch": 59, "duration": 21, "velocity": 44}, {"time": 1930, "pitch": 66, "duration": 9, "velocity": 54}, {"time": 1930, "pitch": 74, "duration": 10, "velocity": 60}, {"time": 1942, "pitch": 66, "duration": 3, "velocity": 57}, {"time": 1942, "pitch": 71, "duration": 4, "velocity": 61}, {"time": 1954, "pitch": 42, "duration": 91, "velocity": 64}, {"time": 1954, "pitch": 57, "duration": 17, "velocity": 69}, {"time": 1954, "pitch": 61, "duration": 16, "velocity": 70}, {"time": 1954, "pitch": 66, "duration": 19, "velocity": 73}, {"time": 1978, "pitch": 57, "duration": 15, "velocity": 57}, {"time": 1978, "pitch": 61, "duration": 16, "velocity": 63}, {"time": 1978, "pitch": 66, "duration": 17, "velocity": 64}, {"time": 1994, "pitch": 54, "duration": 38, "velocity": 24}, {"time": 2002, "pitch": 57, "duration": 17, "velocity": 58}, {"time": 2002, "pitch": 61, "duration": 17, "velocity": 70}, {"time": 2002, "pitch": 66, "duration": 17, "velocity": 56}, {"time": 2026, "pitch": 57, "duration": 16, "velocity": 64}, {"time": 2026, "pitch": 61, "duration": 16, "velocity": 72}, {"time": 2026, "pitch": 66, "duration": 17, "velocity": 64}, {"time": 2038, "pitch": 54, "duration": 7, "velocity": 44}, {"time": 2050, "pitch": 42, "duration": 38, "velocity": 62}, {"time": 2050, "pitch": 54, "duration": 28, "velocity": 54}, {"time": 2050, "pitch": 57, "duration": 18, "velocity": 59}, {"time": 2050, "pitch": 61, "duration": 17, "velocity": 61}, {"time": 2050, "pitch": 66, "duration": 19, "velocity": 56}, {"time": 2074, "pitch": 57, "duration": 12, "velocity": 62}, {"time": 2074, "pitch": 61, "duration": 11, "velocity": 69}, {"time": 2074, "pitch": 66, "duration": 14, "velocity": 62}, {"time": 2086, "pitch": 54, "duration": 3, "velocity": 58}, {"time": 2098, "pitch": 42, "duration": 39, "velocity": 50}, {"time": 2098, "pitch": 54, "duration": 28, "velocity": 56}, {"time": 2098, "pitch": 57, "duration": 18, "velocity": 60}, {"time": 2098, "pitch": 61, "duration": 16, "velocity": 66}, {"time": 2098, "pitch": 66, "duration": 18, "velocity": 59}, {"time": 2122, "pitch": 57, "duration": 11, "velocity": 66}, {"time": 2122, "pitch": 61, "duration": 10, "velocity": 70}, {"time": 2122, "pitch": 66, "duration": 10, "velocity": 64}, {"time": 2134, "pitch": 54, "duration": 4, "velocity": 53}, {"time": 2146, "pitch": 40, "duration": 85, "velocity": 66}, {"time": 2146, "pitch": 52, "duration": 32, "velocity": 51}, {"time": 2146, "pitch": 56, "duration": 15, "velocity": 63}, {"time": 2146, "pitch": 59, "duration": 14, "velocity": 64}, {"time": 2146, "pitch": 64, "duration": 16, "velocity": 61}, {"time": 2170, "pitch": 56, "duration": 15, "velocity": 53}, {"time": 2170, "pitch": 59, "duration": 14, "velocity": 61}, {"time": 2170, "pitch": 64, "duration": 16, "velocity": 55}, {"time": 2182, "pitch": 52, "duration": 16, "velocity": 32}, {"time": 2194, "pitch": 56, "duration": 12, "velocity": 57}, {"time": 2194, "pitch": 59, "duration": 11, "velocity": 66}, {"time": 2194, "pitch": 64, "duration": 12, "velocity": 53}, {"time": 2200, "pitch": 47, "duration": 39, "velocity": 38}, {"time": 2206, "pitch": 52, "duration": 14, "velocity": 46}, {"time": 2212, "pitch": 56, "duration": 9, "velocity": 44}, {"time": 2218, "pitch": 59, "duration": 8, "velocity": 63}, {"time": 2218, "pitch": 64, "duration": 7, "velocity": 63}, {"time": 2224, "pitch": 52, "duration": 12, "velocity": 47}, {"time": 2230, "pitch": 56, "duration": 10, "velocity": 46}, {"time": 2236, "pitch": 59, "duration": 6, "velocity": 53}, {"time": 2242, "pitch": 45, "duration": 39, "velocity": 64}, {"time": 2242, "pitch": 57, "duration": 31, "velocity": 49}, {"time": 2242, "pitch": 61, "duration": 19, "velocity": 78}, {"time": 2242, "pitch": 64, "duration": 19, "velocity": 78}, {"time": 2242, "pitch": 69, "duration": 19, "velocity": 75}, {"time": 2266, "pitch": 61, "duration": 15, "velocity": 60}, {"time": 2266, "pitch": 64, "duration": 15, "velocity": 64}, {"time": 2266, "pitch": 69, "duration": 20, "velocity": 70}, {"time": 2278, "pitch": 57, "duration": 3, "velocity": 76}, {"time": 2290, "pitch": 40, "duration": 18, "velocity": 67}, {"time": 2290, "pitch": 52, "duration": 20, "velocity": 61}, {"time": 2290, "pitch": 59, "duration": 17, "velocity": 63}, {"time": 2290, "pitch": 64, "duration": 15, "velocity": 69}, {"time": 2290, "pitch": 68, "duration": 17, "velocity": 70}, {"time": 2314, "pitch": 45, "duration": 63, "velocity": 66}, {"time": 2314, "pitch": 61, "duration": 14, "velocity": 70}, {"time": 2314, "pitch": 64, "duration": 13, "velocity": 73}, {"time": 2314, "pitch": 69, "duration": 16, "velocity": 73}, {"time": 2330, "pitch": 57, "duration": 18, "velocity": 35}, {"time": 2338, "pitch": 61, "duration": 17, "velocity": 66}, {"time": 2338, "pitch": 64, "duration": 16, "velocity": 67}, {"time": 2338, "pitch": 69, "duration": 16, "velocity": 69}, {"time": 2356, "pitch": 57, "duration": 10, "velocity": 48}, {"time": 2362, "pitch": 61, "duration": 15, "velocity": 63}, {"time": 2362, "pitch": 64, "duration": 12, "velocity": 67}, {"time": 2362, "pitch": 71, "duration": 14, "velocity": 70}, {"time": 2374, "pitch": 57, "duration": 8, "velocity": 58}, {"time": 2384, "pitch": 61, "duration": 1, "velocity": 43}, {"time": 2386, "pitch": 45, "duration": 25, "velocity": 73}, {"time": 2386, "pitch": 61, "duration": 14, "velocity": 70}, {"time": 2386, "pitch": 64, "duration": 13, "velocity": 73}, {"time": 2386, "pitch": 69, "duration": 15, "velocity": 75}, {"time": 2398, "pitch": 57, "duration": 4, "velocity": 45}, {"time": 2410, "pitch": 59, "duration": 9, "velocity": 85}, {"time": 2410, "pitch": 64, "duration": 10, "velocity": 93}, {"time": 2410, "pitch": 69, "duration": 11, "velocity": 75}, {"time": 2416, "pitch": 45, "duration": 8, "velocity": 72}, {"time": 2422, "pitch": 52, "duration": 4, "velocity": 75}, {"time": 2428, "pitch": 64, "duration": 4, "velocity": 91}, {"time": 2434, "pitch": 38, "duration": 40, "velocity": 75}, {"time": 2434, "pitch": 50, "duration": 11, "velocity": 70}, {"time": 2434, "pitch": 57, "duration": 19, "velocity": 69}, {"time": 2434, "pitch": 62, "duration": 18, "velocity": 67}, {"time": 2434, "pitch": 66, "duration": 17, "velocity": 76}, {"time": 2434, "pitch": 69, "duration": 20, "velocity": 67}, {"time": 2452, "pitch": 50, "duration": 8, "velocity": 56}, {"time": 2458, "pitch": 57, "duration": 7, "velocity": 73}, {"time": 2458, "pitch": 62, "duration": 8, "velocity": 75}, {"time": 2458, "pitch": 66, "duration": 8, "velocity": 72}, {"time": 2464, "pitch": 50, "duration": 17, "velocity": 80}, {"time": 2470, "pitch": 57, "duration": 5, "velocity": 69}, {"time": 2476, "pitch": 69, "duration": 9, "velocity": 75}, {"time": 2482, "pitch": 40, "duration": 12, "velocity": 72}, {"time": 2482, "pitch": 59, "duration": 26, "velocity": 76}, {"time": 2482, "pitch": 64, "duration": 26, "velocity": 91}, {"time": 2482, "pitch": 68, "duration": 26, "velocity": 80}, {"time": 2488, "pitch": 47, "duration": 8, "velocity": 61}, {"time": 2494, "pitch": 52, "duration": 9, "velocity": 80}, {"time": 2500, "pitch": 54, "duration": 16, "velocity": 53}, {"time": 2504, "pitch": 69, "duration": 3, "velocity": 1}, {"time": 2506, "pitch": 56, "duration": 10, "velocity": 95}, {"time": 2512, "pitch": 59, "duration": 4, "velocity": 78}, {"time": 2518, "pitch": 64, "duration": 5, "velocity": 91}, {"time": 2524, "pitch": 68, "duration": 5, "velocity": 75}, {"time": 2530, "pitch": 45, "duration": 37, "velocity": 73}, {"time": 2530, "pitch": 61, "duration": 11, "velocity": 80}, {"time": 2530, "pitch": 64, "duration": 13, "velocity": 88}, {"time": 2530, "pitch": 69, "duration": 13, "velocity": 67}, {"time": 2536, "pitch": 52, "duration": 24, "velocity": 69}, {"time": 2542, "pitch": 57, "duration": 7, "velocity": 72}, {"time": 2548, "pitch": 59, "duration": 6, "velocity": 91}, {"time": 2548, "pitch": 64, "duration": 9, "velocity": 91}, {"time": 2554, "pitch": 57, "duration": 11, "velocity": 60}, {"time": 2560, "pitch": 61, "duration": 8, "velocity": 91}, {"time": 2560, "pitch": 68, "duration": 9, "velocity": 93}, {"time": 2566, "pitch": 52, "duration": 10, "velocity": 69}, {"time": 2572, "pitch": 61, "duration": 16, "velocity": 75}, {"time": 2572, "pitch": 64, "duration": 19, "velocity": 85}, {"time": 2572, "pitch": 69, "duration": 18, "velocity": 78}, {"time": 2578, "pitch": 45, "duration": 38, "velocity": 70}, {"time": 2584, "pitch": 52, "duration": 22, "velocity": 60}, {"time": 2590, "pitch": 57, "duration": 13, "velocity": 76}, {"time": 2596, "pitch": 61, "duration": 4, "velocity": 75}, {"time": 2602, "pitch": 61, "duration": 7, "velocity": 85}, {"time": 2602, "pitch": 64, "duration": 8, "velocity": 99}, {"time": 2602, "pitch": 69, "duration": 8, "velocity": 76}, {"time": 2608, "pitch": 52, "duration": 6, "velocity": 42}, {"time": 2608, "pitch": 57, "duration": 5, "velocity": 82}, {"time": 2614, "pitch": 61, "duration": 6, "velocity": 88}, {"time": 2620, "pitch": 69, "duration": 4, "velocity": 69}, {"time": 2626, "pitch": 41, "duration": 38, "velocity": 85}, {"time": 2626, "pitch": 53, "duration": 12, "velocity": 82}, {"time": 2626, "pitch": 57, "duration": 17, "velocity": 78}, {"time": 2626, "pitch": 60, "duration": 17, "velocity": 85}, {"time": 2626, "pitch": 65, "duration": 18, "velocity": 82}, {"time": 2644, "pitch": 53, "duration": 7, "velocity": 64}, {"time": 2650, "pitch": 57, "duration": 7, "velocity": 93}, {"time": 2650, "pitch": 60, "duration": 8, "velocity": 106}, {"time": 2650, "pitch": 65, "duration": 8, "velocity": 103}, {"time": 2656, "pitch": 53, "duration": 7, "velocity": 91}, {"time": 2662, "pitch": 57, "duration": 3, "velocity": 78}, {"time": 2662, "pitch": 60, "duration": 3, "velocity": 97}, {"time": 2662, "pitch": 65, "duration": 3, "velocity": 99}, {"time": 2674, "pitch": 40, "duration": 37, "velocity": 76}, {"time": 2674, "pitch": 52, "duration": 8, "velocity": 88}, {"time": 2674, "pitch": 56, "duration": 15, "velocity": 93}, {"time": 2674, "pitch": 59, "duration": 16, "velocity": 97}, {"time": 2674, "pitch": 64, "duration": 16, "velocity": 66}, {"time": 2686, "pitch": 52, "duration": 15, "velocity": 62}, {"time": 2698, "pitch": 56, "duration": 12, "velocity": 80}, {"time": 2698, "pitch": 59, "duration": 11, "velocity": 85}, {"time": 2698, "pitch": 64, "duration": 12, "velocity": 85}, {"time": 2710, "pitch": 52, "duration": 4, "velocity": 80}, {"time": 2722, "pitch": 45, "duration": 41, "velocity": 80}, {"time": 2722, "pitch": 62, "duration": 12, "velocity": 80}, {"time": 2722, "pitch": 64, "duration": 10, "velocity": 76}, {"time": 2722, "pitch": 69, "duration": 12, "velocity": 76}, {"time": 2728, "pitch": 52, "duration": 25, "velocity": 64}, {"time": 2734, "pitch": 57, "duration": 8, "velocity": 59}, {"time": 2740, "pitch": 61, "duration": 12, "velocity": 95}, {"time": 2740, "pitch": 64, "duration": 13, "velocity": 80}, {"time": 2740, "pitch": 69, "duration": 12, "velocity": 67}, {"time": 2752, "pitch": 57, "duration": 11, "velocity": 56}, {"time": 2758, "pitch": 59, "duration": 24, "velocity": 78}, {"time": 2758, "pitch": 64, "duration": 24, "velocity": 72}, {"time": 2764, "pitch": 52, "duration": 6, "velocity": 62}, {"time": 2770, "pitch": 45, "duration": 32, "velocity": 78}, {"time": 2776, "pitch": 52, "duration": 15, "velocity": 53}, {"time": 2782, "pitch": 57, "duration": 13, "velocity": 60}, {"time": 2788, "pitch": 59, "duration": 4, "velocity": 76}, {"time": 2794, "pitch": 59, "duration": 9, "velocity": 73}, {"time": 2794, "pitch": 64, "duration": 11, "velocity": 93}, {"time": 2800, "pitch": 52, "duration": 9, "velocity": 67}, {"time": 2812, "pitch": 59, "duration": 3, "velocity": 78}, {"time": 2818, "pitch": 37, "duration": 37, "velocity": 63}, {"time": 2818, "pitch": 49, "duration": 14, "velocity": 73}, {"time": 2818, "pitch": 59, "duration": 21, "velocity": 73}, {"time": 2818, "pitch": 64, "duration": 20, "velocity": 76}, {"time": 2818, "pitch": 68, "duration": 17, "velocity": 62}, {"time": 2836, "pitch": 49, "duration": 7, "velocity": 100}, {"time": 2842, "pitch": 59, "duration": 14, "velocity": 63}, {"time": 2842, "pitch": 64, "duration": 13, "velocity": 67}, {"time": 2842, "pitch": 68, "duration": 13, "velocity": 69}, {"time": 2854, "pitch": 49, "duration": 4, "velocity": 70}, {"time": 2866, "pitch": 42, "duration": 42, "velocity": 70}, {"time": 2866, "pitch": 54, "duration": 32, "velocity": 69}, {"time": 2866, "pitch": 61, "duration": 20, "velocity": 73}, {"time": 2866, "pitch": 66, "duration": 20, "velocity": 75}, {"time": 2866, "pitch": 69, "duration": 20, "velocity": 67}, {"time": 2890, "pitch": 61, "duration": 16, "velocity": 67}, {"time": 2890, "pitch": 66, "duration": 16, "velocity": 72}, {"time": 2890, "pitch": 69, "duration": 17, "velocity": 70}, {"time": 2902, "pitch": 54, "duration": 4, "velocity": 69}, {"time": 2915, "pitch": 61, "duration": 13, "velocity": 81}, {"time": 2915, "pitch": 57, "duration": 13, "velocity": 87}, {"time": 2915, "pitch": 64, "duration": 13, "velocity": 81}, {"time": 2915, "pitch": 69, "duration": 13, "velocity": 86}, {"time": 2915, "pitch": 45, "duration": 29, "velocity": 79}, {"time": 2915, "pitch": 52, "duration": 10, "velocity": 77}, {"time": 2932, "pitch": 52, "duration": 7, "velocity": 81}, {"time": 2938, "pitch": 64, "duration": 8, "velocity": 84}, {"time": 2938, "pitch": 57, "duration": 8, "velocity": 100}, {"time": 2938, "pitch": 61, "duration": 9, "velocity": 90}, {"time": 2939, "pitch": 69, "duration": 7, "velocity": 92}, {"time": 2944, "pitch": 52, "duration": 7, "velocity": 85}, {"time": 2950, "pitch": 45, "duration": 1, "velocity": 72}, {"time": 2962, "pitch": 66, "duration": 12, "velocity": 95}, {"time": 2962, "pitch": 57, "duration": 13, "velocity": 91}, {"time": 2962, "pitch": 62, "duration": 12, "velocity": 90}, {"time": 2962, "pitch": 38, "duration": 30, "velocity": 89}, {"time": 2962, "pitch": 50, "duration": 11, "velocity": 84}, {"time": 2979, "pitch": 50, "duration": 8, "velocity": 83}, {"time": 2986, "pitch": 66, "duration": 10, "velocity": 97}, {"time": 2986, "pitch": 57, "duration": 10, "velocity": 99}, {"time": 2986, "pitch": 62, "duration": 10, "velocity": 91}, {"time": 2992, "pitch": 50, "duration": 8, "velocity": 88}, {"time": 2998, "pitch": 38, "duration": 3, "velocity": 93}, {"time": 3003, "pitch": 38, "duration": 1, "velocity": 68}, {"time": 3010, "pitch": 56, "duration": 14, "velocity": 91}, {"time": 3010, "pitch": 61, "duration": 15, "velocity": 84}, {"time": 3010, "pitch": 64, "duration": 13, "velocity": 85}, {"time": 3010, "pitch": 49, "duration": 13, "velocity": 90}, {"time": 3010, "pitch": 37, "duration": 30, "velocity": 90}, {"time": 3027, "pitch": 49, "duration": 9, "velocity": 87}, {"time": 3034, "pitch": 56, "duration": 7, "velocity": 104}, {"time": 3034, "pitch": 61, "duration": 9, "velocity": 95}, {"time": 3034, "pitch": 64, "duration": 7, "velocity": 94}, {"time": 3040, "pitch": 49, "duration": 7, "velocity": 83}, {"time": 3046, "pitch": 37, "duration": 1, "velocity": 91}, {"time": 3058, "pitch": 66, "duration": 14, "velocity": 97}, {"time": 3058, "pitch": 61, "duration": 15, "velocity": 92}, {"time": 3058, "pitch": 57, "duration": 16, "velocity": 97}, {"time": 3058, "pitch": 42, "duration": 26, "velocity": 95}, {"time": 3058, "pitch": 54, "duration": 12, "velocity": 95}, {"time": 3076, "pitch": 54, "duration": 13, "velocity": 95}, {"time": 3082, "pitch": 61, "duration": 7, "velocity": 97}, {"time": 3082, "pitch": 66, "duration": 7, "velocity": 103}, {"time": 3082, "pitch": 57, "duration": 6, "velocity": 104}, {"time": 3087, "pitch": 42, "duration": 6, "velocity": 69}, {"time": 3094, "pitch": 52, "duration": 4, "velocity": 88}, {"time": 3094, "pitch": 56, "duration": 5, "velocity": 100}, {"time": 3094, "pitch": 64, "duration": 5, "velocity": 85}, {"time": 3094, "pitch": 59, "duration": 5, "velocity": 80}, {"time": 3094, "pitch": 40, "duration": 9, "velocity": 85}, {"time": 3100, "pitch": 52, "duration": 3, "velocity": 79}, {"time": 3106, "pitch": 54, "duration": 14, "velocity": 100}, {"time": 3106, "pitch": 62, "duration": 15, "velocity": 90}, {"time": 3106, "pitch": 50, "duration": 14, "velocity": 100}, {"time": 3106, "pitch": 57, "duration": 13, "velocity": 79}, {"time": 3106, "pitch": 38, "duration": 31, "velocity": 105}, {"time": 3124, "pitch": 50, "duration": 9, "velocity": 95}, {"time": 3130, "pitch": 54, "duration": 10, "velocity": 104}, {"time": 3130, "pitch": 57, "duration": 12, "velocity": 91}, {"time": 3130, "pitch": 62, "duration": 11, "velocity": 92}, {"time": 3135, "pitch": 50, "duration": 9, "velocity": 74}, {"time": 3141, "pitch": 38, "duration": 3, "velocity": 95}, {"time": 3154, "pitch": 56, "duration": 17, "velocity": 92}, {"time": 3154, "pitch": 40, "duration": 32, "velocity": 93}, {"time": 3154, "pitch": 52, "duration": 14, "velocity": 92}, {"time": 3154, "pitch": 59, "duration": 17, "velocity": 90}, {"time": 3154, "pitch": 64, "duration": 16, "velocity": 88}, {"time": 3173, "pitch": 52, "duration": 8, "velocity": 83}, {"time": 3178, "pitch": 56, "duration": 7, "velocity": 104}, {"time": 3179, "pitch": 59, "duration": 8, "velocity": 95}, {"time": 3179, "pitch": 64, "duration": 7, "velocity": 88}, {"time": 3184, "pitch": 52, "duration": 7, "velocity": 79}, {"time": 3190, "pitch": 40, "duration": 1, "velocity": 84}, {"time": 3201, "pitch": 61, "duration": 12, "velocity": 91}, {"time": 3201, "pitch": 64, "duration": 11, "velocity": 88}, {"time": 3201, "pitch": 45, "duration": 79, "velocity": 92}, {"time": 3201, "pitch": 57, "duration": 12, "velocity": 102}, {"time": 3201, "pitch": 69, "duration": 11, "velocity": 96}, {"time": 3202, "pitch": 52, "duration": 22, "velocity": 88}, {"time": 3219, "pitch": 61, "duration": 10, "velocity": 87}, {"time": 3219, "pitch": 64, "duration": 10, "velocity": 90}, {"time": 3219, "pitch": 57, "duration": 8, "velocity": 100}, {"time": 3219, "pitch": 69, "duration": 9, "velocity": 95}, {"time": 3232, "pitch": 52, "duration": 9, "velocity": 87}, {"time": 3237, "pitch": 61, "duration": 6, "velocity": 80}, {"time": 3237, "pitch": 71, "duration": 6, "velocity": 92}, {"time": 3237, "pitch": 59, "duration": 5, "velocity": 100}, {"time": 3237, "pitch": 64, "duration": 7, "velocity": 88}, {"time": 3250, "pitch": 52, "duration": 8, "velocity": 90}, {"time": 3256, "pitch": 71, "duration": 4, "velocity": 99}, {"time": 3256, "pitch": 61, "duration": 5, "velocity": 100}, {"time": 3262, "pitch": 52, "duration": 6, "velocity": 91}, {"time": 3267, "pitch": 61, "duration": 10, "velocity": 63}, {"time": 3267, "pitch": 59, "duration": 6, "velocity": 95}, {"time": 3267, "pitch": 71, "duration": 4, "velocity": 92}, {"time": 3267, "pitch": 64, "duration": 11, "velocity": 75}, {"time": 3274, "pitch": 52, "duration": 13, "velocity": 108}, {"time": 3279, "pitch": 64, "duration": 9, "velocity": 47}, {"time": 3279, "pitch": 69, "duration": 7, "velocity": 99}, {"time": 3280, "pitch": 57, "duration": 8, "velocity": 104}, {"time": 3280, "pitch": 61, "duration": 7, "velocity": 68}, {"time": 3286, "pitch": 45, "duration": 1, "velocity": 88}, {"time": 3298, "pitch": 57, "duration": 14, "velocity": 99}, {"time": 3298, "pitch": 61, "duration": 14, "velocity": 87}, {"time": 3298, "pitch": 66, "duration": 14, "velocity": 94}, {"time": 3298, "pitch": 54, "duration": 13, "velocity": 99}, {"time": 3298, "pitch": 42, "duration": 31, "velocity": 94}, {"time": 3316, "pitch": 54, "duration": 8, "velocity": 95}, {"time": 3322, "pitch": 61, "duration": 13, "velocity": 99}, {"time": 3322, "pitch": 66, "duration": 12, "velocity": 101}, {"time": 3322, "pitch": 57, "duration": 13, "velocity": 110}, {"time": 3328, "pitch": 54, "duration": 7, "velocity": 88}, {"time": 3334, "pitch": 42, "duration": 3, "velocity": 90}, {"time": 3346, "pitch": 56, "duration": 16, "velocity": 95}, {"time": 3346, "pitch": 40, "duration": 31, "velocity": 93}, {"time": 3346, "pitch": 52, "duration": 14, "velocity": 94}, {"time": 3346, "pitch": 59, "duration": 16, "velocity": 92}, {"time": 3346, "pitch": 64, "duration": 16, "velocity": 90}, {"time": 3364, "pitch": 52, "duration": 8, "velocity": 102}, {"time": 3370, "pitch": 56, "duration": 9, "velocity": 106}, {"time": 3370, "pitch": 59, "duration": 9, "velocity": 104}, {"time": 3370, "pitch": 64, "duration": 8, "velocity": 97}, {"time": 3376, "pitch": 52, "duration": 8, "velocity": 79}, {"time": 3382, "pitch": 40, "duration": 2, "velocity": 102}, {"time": 3394, "pitch": 56, "duration": 17, "velocity": 99}, {"time": 3394, "pitch": 64, "duration": 17, "velocity": 92}, {"time": 3394, "pitch": 59, "duration": 17, "velocity": 95}, {"time": 3394, "pitch": 40, "duration": 31, "velocity": 103}, {"time": 3394, "pitch": 52, "duration": 16, "velocity": 102}, {"time": 3412, "pitch": 52, "duration": 8, "velocity": 88}, {"time": 3418, "pitch": 56, "duration": 8, "velocity": 111}, {"time": 3418, "pitch": 59, "duration": 9, "velocity": 102}, {"time": 3418, "pitch": 64, "duration": 8, "velocity": 100}, {"time": 3424, "pitch": 52, "duration": 10, "velocity": 87}, {"time": 3430, "pitch": 40, "duration": 3, "velocity": 107}, {"time": 3442, "pitch": 56, "duration": 13, "velocity": 90}, {"time": 3442, "pitch": 64, "duration": 14, "velocity": 88}, {"time": 3442, "pitch": 59, "duration": 13, "velocity": 88}, {"time": 3443, "pitch": 52, "duration": 14, "velocity": 77}, {"time": 3443, "pitch": 40, "duration": 30, "velocity": 80}, {"time": 3461, "pitch": 52, "duration": 6, "velocity": 92}, {"time": 3466, "pitch": 56, "duration": 13, "velocity": 102}, {"time": 3466, "pitch": 59, "duration": 13, "velocity": 92}, {"time": 3466, "pitch": 64, "duration": 13, "velocity": 92}, {"time": 3472, "pitch": 52, "duration": 8, "velocity": 90}, {"time": 3478, "pitch": 40, "duration": 2, "velocity": 105}, {"time": 3491, "pitch": 58, "duration": 48, "velocity": 92}, {"time": 3491, "pitch": 61, "duration": 49, "velocity": 90}, {"time": 3491, "pitch": 66, "duration": 49, "velocity": 94}, {"time": 3491, "pitch": 42, "duration": 49, "velocity": 84}, {"time": 3491, "pitch": 54, "duration": 49, "velocity": 87}, {"time": 3562, "pitch": 56, "duration": 14, "velocity": 70}, {"time": 3562, "pitch": 59, "duration": 13, "velocity": 73}, {"time": 3562, "pitch": 62, "duration": 13, "velocity": 72}, {"time": 3574, "pitch": 52, "duration": 3, "velocity": 69}, {"time": 3586, "pitch": 33, "duration": 37, "velocity": 75}, {"time": 3586, "pitch": 45, "duration": 11, "velocity": 69}, {"time": 3586, "pitch": 52, "duration": 19, "velocity": 67}, {"time": 3586, "pitch": 57, "duration": 18, "velocity": 78}, {"time": 3586, "pitch": 61, "duration": 18, "velocity": 75}, {"time": 3604, "pitch": 45, "duration": 11, "velocity": 50}, {"time": 3610, "pitch": 52, "duration": 14, "velocity": 73}, {"time": 3610, "pitch": 57, "duration": 15, "velocity": 78}, {"time": 3610, "pitch": 61, "duration": 15, "velocity": 70}, {"time": 3622, "pitch": 45, "duration": 4, "velocity": 63}, {"time": 3634, "pitch": 45, "duration": 38, "velocity": 69}, {"time": 3634, "pitch": 61, "duration": 6, "velocity": 76}, {"time": 3634, "pitch": 64, "duration": 7, "velocity": 66}, {"time": 3634, "pitch": 69, "duration": 6, "velocity": 72}, {"time": 3644, "pitch": 59, "duration": 3, "velocity": 69}, {"time": 3644, "pitch": 68, "duration": 7, "velocity": 70}, {"time": 3652, "pitch": 61, "duration": 14, "velocity": 70}, {"time": 3652, "pitch": 64, "duration": 13, "velocity": 67}, {"time": 3652, "pitch": 69, "duration": 15, "velocity": 72}, {"time": 3662, "pitch": 57, "duration": 5, "velocity": 48}, {"time": 3670, "pitch": 64, "duration": 11, "velocity": 76}, {"time": 3676, "pitch": 66, "duration": 4, "velocity": 46}, {"time": 3682, "pitch": 45, "duration": 15, "velocity": 64}, {"time": 3682, "pitch": 52, "duration": 14, "velocity": 60}, {"time": 3682, "pitch": 57, "duration": 14, "velocity": 62}, {"time": 3682, "pitch": 59, "duration": 14, "velocity": 78}, {"time": 3682, "pitch": 61, "duration": 14, "velocity": 80}, {"time": 3682, "pitch": 64, "duration": 14, "velocity": 70}, {"time": 3682, "pitch": 69, "duration": 15, "velocity": 56}, {"time": 3875, "pitch": 61, "duration": 15, "velocity": 59}, {"time": 3875, "pitch": 69, "duration": 15, "velocity": 62}, {"time": 3875, "pitch": 64, "duration": 15, "velocity": 62}, {"time": 3875, "pitch": 57, "duration": 13, "velocity": 48}, {"time": 3875, "pitch": 45, "duration": 36, "velocity": 58}, {"time": 3875, "pitch": 52, "duration": 30, "velocity": 56}, {"time": 3893, "pitch": 57, "duration": 6, "velocity": 57}, {"time": 3898, "pitch": 61, "duration": 14, "velocity": 67}, {"time": 3898, "pitch": 69, "duration": 14, "velocity": 73}, {"time": 3898, "pitch": 64, "duration": 15, "velocity": 71}, {"time": 3904, "pitch": 57, "duration": 9, "velocity": 55}, {"time": 3910, "pitch": 52, "duration": 3, "velocity": 63}, {"time": 3922, "pitch": 61, "duration": 15, "velocity": 64}, {"time": 3922, "pitch": 64, "duration": 16, "velocity": 65}, {"time": 3922, "pitch": 69, "duration": 16, "velocity": 70}, {"time": 3922, "pitch": 45, "duration": 37, "velocity": 57}, {"time": 3923, "pitch": 52, "duration": 30, "velocity": 63}, {"time": 3923, "pitch": 57, "duration": 12, "velocity": 56}, {"time": 3941, "pitch": 57, "duration": 7, "velocity": 55}, {"time": 3947, "pitch": 69, "duration": 14, "velocity": 80}, {"time": 3947, "pitch": 61, "duration": 14, "velocity": 76}, {"time": 3947, "pitch": 64, "duration": 14, "velocity": 76}, {"time": 3952, "pitch": 57, "duration": 8, "velocity": 56}, {"time": 3959, "pitch": 52, "duration": 1, "velocity": 63}, {"time": 3970, "pitch": 61, "duration": 14, "velocity": 64}, {"time": 3971, "pitch": 64, "duration": 14, "velocity": 68}, {"time": 3971, "pitch": 69, "duration": 14, "velocity": 64}, {"time": 3971, "pitch": 52, "duration": 30, "velocity": 56}, {"time": 3971, "pitch": 57, "duration": 12, "velocity": 52}, {"time": 3971, "pitch": 45, "duration": 36, "velocity": 51}, {"time": 3987, "pitch": 57, "duration": 7, "velocity": 45}, {"time": 3994, "pitch": 61, "duration": 13, "velocity": 75}, {"time": 3994, "pitch": 69, "duration": 13, "velocity": 71}, {"time": 3994, "pitch": 64, "duration": 13, "velocity": 69}, {"time": 3999, "pitch": 57, "duration": 8, "velocity": 62}, {"time": 4006, "pitch": 52, "duration": 2, "velocity": 54}, {"time": 4006, "pitch": 66, "duration": 7, "velocity": 60}, {"time": 4012, "pitch": 64, "duration": 21, "velocity": 67}, {"time": 4018, "pitch": 61, "duration": 15, "velocity": 59}, {"time": 4018, "pitch": 69, "duration": 15, "velocity": 57}, {"time": 4018, "pitch": 45, "duration": 37, "velocity": 61}, {"time": 4018, "pitch": 52, "duration": 30, "velocity": 63}, {"time": 4018, "pitch": 57, "duration": 12, "velocity": 62}, {"time": 4036, "pitch": 57, "duration": 7, "velocity": 69}, {"time": 4042, "pitch": 69, "duration": 13, "velocity": 80}, {"time": 4042, "pitch": 61, "duration": 9, "velocity": 81}, {"time": 4042, "pitch": 64, "duration": 13, "velocity": 76}, {"time": 4048, "pitch": 57, "duration": 7, "velocity": 72}, {"time": 4055, "pitch": 52, "duration": 6, "velocity": 71}, {"time": 4060, "pitch": 45, "duration": 1, "velocity": 65}, {"time": 4066, "pitch": 56, "duration": 13, "velocity": 76}, {"time": 4066, "pitch": 52, "duration": 14, "velocity": 50}, {"time": 4066, "pitch": 64, "duration": 13, "velocity": 67}, {"time": 4066, "pitch": 40, "duration": 31, "velocity": 59}, {"time": 4066, "pitch": 59, "duration": 14, "velocity": 67}, {"time": 4084, "pitch": 52, "duration": 8, "velocity": 79}, {"time": 4090, "pitch": 56, "duration": 8, "velocity": 90}, {"time": 4090, "pitch": 59, "duration": 10, "velocity": 84}, {"time": 4090, "pitch": 64, "duration": 12, "velocity": 87}, {"time": 4096, "pitch": 52, "duration": 7, "velocity": 72}, {"time": 4102, "pitch": 40, "duration": 1, "velocity": 71}, {"time": 4114, "pitch": 61, "duration": 17, "velocity": 71}, {"time": 4114, "pitch": 57, "duration": 17, "velocity": 72}, {"time": 4114, "pitch": 64, "duration": 17, "velocity": 72}, {"time": 4115, "pitch": 52, "duration": 13, "velocity": 62}, {"time": 4115, "pitch": 45, "duration": 30, "velocity": 59}, {"time": 4132, "pitch": 52, "duration": 8, "velocity": 90}, {"time": 4138, "pitch": 61, "duration": 10, "velocity": 85}, {"time": 4138, "pitch": 57, "duration": 12, "velocity": 91}, {"time": 4138, "pitch": 64, "duration": 12, "velocity": 83}, {"time": 4144, "pitch": 52, "duration": 7, "velocity": 85}, {"time": 4150, "pitch": 45, "duration": 1, "velocity": 69}, {"time": 4162, "pitch": 57, "duration": 15, "velocity": 74}, {"time": 4162, "pitch": 66, "duration": 15, "velocity": 73}, {"time": 4162, "pitch": 62, "duration": 15, "velocity": 72}, {"time": 4162, "pitch": 38, "duration": 32, "velocity": 62}, {"time": 4163, "pitch": 50, "duration": 12, "velocity": 61}, {"time": 4180, "pitch": 50, "duration": 8, "velocity": 83}, {"time": 4187, "pitch": 66, "duration": 14, "velocity": 89}, {"time": 4187, "pitch": 57, "duration": 14, "velocity": 94}, {"time": 4187, "pitch": 62, "duration": 15, "velocity": 87}, {"time": 4192, "pitch": 50, "duration": 8, "velocity": 81}, {"time": 4199, "pitch": 38, "duration": 1, "velocity": 75}, {"time": 4211, "pitch": 57, "duration": 16, "velocity": 75}, {"time": 4211, "pitch": 66, "duration": 16, "velocity": 79}, {"time": 4211, "pitch": 50, "duration": 12, "velocity": 62}, {"time": 4211, "pitch": 62, "duration": 17, "velocity": 69}, {"time": 4211, "pitch": 38, "duration": 30, "velocity": 62}, {"time": 4228, "pitch": 50, "duration": 8, "velocity": 83}, {"time": 4234, "pitch": 66, "duration": 15, "velocity": 91}, {"time": 4234, "pitch": 57, "duration": 15, "velocity": 94}, {"time": 4234, "pitch": 62, "duration": 14, "velocity": 85}, {"time": 4240, "pitch": 50, "duration": 7, "velocity": 76}, {"time": 4246, "pitch": 38, "duration": 1, "velocity": 69}, {"time": 4259, "pitch": 61, "duration": 16, "velocity": 67}, {"time": 4259, "pitch": 64, "duration": 16, "velocity": 67}, {"time": 4259, "pitch": 45, "duration": 36, "velocity": 56}, {"time": 4259, "pitch": 57, "duration": 15, "velocity": 67}, {"time": 4259, "pitch": 52, "duration": 13, "velocity": 64}, {"time": 4276, "pitch": 52, "duration": 8, "velocity": 81}, {"time": 4282, "pitch": 61, "duration": 16, "velocity": 90}, {"time": 4282, "pitch": 57, "duration": 16, "velocity": 90}, {"time": 4282, "pitch": 64, "duration": 16, "velocity": 84}, {"time": 4288, "pitch": 52, "duration": 2, "velocity": 63}, {"time": 4295, "pitch": 52, "duration": 1, "velocity": 71}, {"time": 4307, "pitch": 61, "duration": 16, "velocity": 72}, {"time": 4307, "pitch": 57, "duration": 15, "velocity": 76}, {"time": 4307, "pitch": 64, "duration": 15, "velocity": 75}, {"time": 4307, "pitch": 52, "duration": 12, "velocity": 62}, {"time": 4307, "pitch": 45, "duration": 29, "velocity": 58}, {"time": 4324, "pitch": 52, "duration": 7, "velocity": 74}, {"time": 4330, "pitch": 57, "duration": 12, "velocity": 90}, {"time": 4330, "pitch": 61, "duration": 13, "velocity": 90}, {"time": 4330, "pitch": 64, "duration": 12, "velocity": 80}, {"time": 4336, "pitch": 52, "duration": 7, "velocity": 74}, {"time": 4342, "pitch": 45, "duration": 1, "velocity": 67}, {"time": 4354, "pitch": 56, "duration": 16, "velocity": 81}, {"time": 4355, "pitch": 59, "duration": 15, "velocity": 76}, {"time": 4355, "pitch": 64, "duration": 15, "velocity": 74}, {"time": 4355, "pitch": 52, "duration": 13, "velocity": 74}, {"time": 4355, "pitch": 40, "duration": 35, "velocity": 76}, {"time": 4373, "pitch": 52, "duration": 7, "velocity": 69}, {"time": 4378, "pitch": 56, "duration": 14, "velocity": 90}, {"time": 4378, "pitch": 59, "duration": 15, "velocity": 85}, {"time": 4379, "pitch": 64, "duration": 13, "velocity": 83}, {"time": 4384, "pitch": 52, "duration": 7, "velocity": 61}, {"time": 4390, "pitch": 47, "duration": 3, "velocity": 76}, {"time": 4402, "pitch": 56, "duration": 12, "velocity": 99}, {"time": 4402, "pitch": 59, "duration": 12, "velocity": 87}, {"time": 4402, "pitch": 64, "duration": 12, "velocity": 87}, {"time": 4402, "pitch": 40, "duration": 36, "velocity": 81}, {"time": 4403, "pitch": 52, "duration": 9, "velocity": 76}, {"time": 4421, "pitch": 56, "duration": 11, "velocity": 102}, {"time": 4421, "pitch": 59, "duration": 12, "velocity": 91}, {"time": 4421, "pitch": 64, "duration": 12, "velocity": 88}, {"time": 4433, "pitch": 52, "duration": 12, "velocity": 75}, {"time": 4438, "pitch": 56, "duration": 4, "velocity": 84}, {"time": 4438, "pitch": 59, "duration": 4, "velocity": 79}, {"time": 4438, "pitch": 64, "duration": 4, "velocity": 72}, {"time": 4444, "pitch": 40, "duration": 1, "velocity": 68}, {"time": 4451, "pitch": 57, "duration": 15, "velocity": 92}, {"time": 4451, "pitch": 66, "duration": 14, "velocity": 97}, {"time": 4451, "pitch": 54, "duration": 13, "velocity": 64}, {"time": 4451, "pitch": 61, "duration": 15, "velocity": 87}, {"time": 4451, "pitch": 42, "duration": 30, "velocity": 69}, {"time": 4468, "pitch": 54, "duration": 9, "velocity": 83}, {"time": 4475, "pitch": 57, "duration": 13, "velocity": 95}, {"time": 4475, "pitch": 61, "duration": 15, "velocity": 88}, {"time": 4475, "pitch": 66, "duration": 14, "velocity": 97}, {"time": 4481, "pitch": 54, "duration": 8, "velocity": 77}, {"time": 4487, "pitch": 42, "duration": 1, "velocity": 69}, {"time": 4491, "pitch": 42, "duration": 4, "velocity": 63}, {"time": 4498, "pitch": 56, "duration": 9, "velocity": 90}, {"time": 4498, "pitch": 64, "duration": 10, "velocity": 83}, {"time": 4498, "pitch": 59, "duration": 9, "velocity": 79}, {"time": 4499, "pitch": 52, "duration": 14, "velocity": 75}, {"time": 4499, "pitch": 40, "duration": 34, "velocity": 74}, {"time": 4510, "pitch": 64, "duration": 13, "velocity": 76}, {"time": 4510, "pitch": 59, "duration": 13, "velocity": 72}, {"time": 4510, "pitch": 56, "duration": 13, "velocity": 75}, {"time": 4523, "pitch": 52, "duration": 6, "velocity": 92}, {"time": 4528, "pitch": 56, "duration": 9, "velocity": 94}, {"time": 4528, "pitch": 59, "duration": 9, "velocity": 84}, {"time": 4528, "pitch": 64, "duration": 9, "velocity": 84}, {"time": 4534, "pitch": 52, "duration": 6, "velocity": 88}, {"time": 4539, "pitch": 40, "duration": 1, "velocity": 77}, {"time": 4546, "pitch": 57, "duration": 9, "velocity": 92}, {"time": 4546, "pitch": 66, "duration": 8, "velocity": 94}, {"time": 4546, "pitch": 61, "duration": 9, "velocity": 87}, {"time": 4546, "pitch": 54, "duration": 19, "velocity": 77}, {"time": 4546, "pitch": 42, "duration": 37, "velocity": 76}, {"time": 4557, "pitch": 61, "duration": 15, "velocity": 63}, {"time": 4557, "pitch": 57, "duration": 14, "velocity": 77}, {"time": 4557, "pitch": 66, "duration": 14, "velocity": 63}, {"time": 4570, "pitch": 54, "duration": 13, "velocity": 87}, {"time": 4575, "pitch": 57, "duration": 4, "velocity": 90}, {"time": 4581, "pitch": 57, "duration": 8, "velocity": 90}, {"time": 4581, "pitch": 61, "duration": 8, "velocity": 87}, {"time": 4581, "pitch": 66, "duration": 8, "velocity": 91}, {"time": 4587, "pitch": 42, "duration": 2, "velocity": 77}, {"time": 4588, "pitch": 54, "duration": 1, "velocity": 83}, {"time": 4593, "pitch": 57, "duration": 7, "velocity": 91}, {"time": 4593, "pitch": 66, "duration": 7, "velocity": 92}, {"time": 4594, "pitch": 54, "duration": 16, "velocity": 85}, {"time": 4594, "pitch": 61, "duration": 7, "velocity": 94}, {"time": 4594, "pitch": 42, "duration": 25, "velocity": 77}, {"time": 4606, "pitch": 66, "duration": 15, "velocity": 95}, {"time": 4606, "pitch": 57, "duration": 14, "velocity": 94}, {"time": 4606, "pitch": 61, "duration": 17, "velocity": 84}, {"time": 4618, "pitch": 54, "duration": 6, "velocity": 85}, {"time": 4624, "pitch": 42, "duration": 6, "velocity": 64}, {"time": 4630, "pitch": 56, "duration": 5, "velocity": 95}, {"time": 4630, "pitch": 52, "duration": 7, "velocity": 75}, {"time": 4630, "pitch": 40, "duration": 2, "velocity": 75}, {"time": 4630, "pitch": 64, "duration": 5, "velocity": 87}, {"time": 4630, "pitch": 59, "duration": 5, "velocity": 84}, {"time": 4635, "pitch": 40, "duration": 1, "velocity": 57}, {"time": 4642, "pitch": 45, "duration": 33, "velocity": 67}, {"time": 4642, "pitch": 52, "duration": 17, "velocity": 68}, {"time": 4642, "pitch": 57, "duration": 19, "velocity": 97}, {"time": 4642, "pitch": 61, "duration": 20, "velocity": 87}, {"time": 4642, "pitch": 64, "duration": 20, "velocity": 80}, {"time": 4642, "pitch": 69, "duration": 19, "velocity": 93}, {"time": 4660, "pitch": 52, "duration": 12, "velocity": 74}, {"time": 4666, "pitch": 57, "duration": 17, "velocity": 99}, {"time": 4666, "pitch": 61, "duration": 19, "velocity": 88}, {"time": 4666, "pitch": 64, "duration": 19, "velocity": 85}, {"time": 4667, "pitch": 69, "duration": 15, "velocity": 99}, {"time": 4672, "pitch": 52, "duration": 4, "velocity": 58}, {"time": 4678, "pitch": 52, "duration": 3, "velocity": 69}, {"time": 4684, "pitch": 52, "duration": 2, "velocity": 76}, {"time": 4690, "pitch": 45, "duration": 31, "velocity": 74}, {"time": 4690, "pitch": 52, "duration": 13, "velocity": 67}, {"time": 4690, "pitch": 57, "duration": 17, "velocity": 85}, {"time": 4690, "pitch": 61, "duration": 17, "velocity": 76}, {"time": 4690, "pitch": 64, "duration": 16, "velocity": 72}, {"time": 4690, "pitch": 69, "duration": 16, "velocity": 80}, {"time": 4708, "pitch": 52, "duration": 8, "velocity": 80}, {"time": 4714, "pitch": 57, "duration": 14, "velocity": 95}, {"time": 4714, "pitch": 61, "duration": 14, "velocity": 84}, {"time": 4714, "pitch": 64, "duration": 14, "velocity": 79}, {"time": 4714, "pitch": 69, "duration": 14, "velocity": 93}, {"time": 4720, "pitch": 52, "duration": 8, "velocity": 75}, {"time": 4726, "pitch": 45, "duration": 2, "velocity": 75}, {"time": 4738, "pitch": 45, "duration": 31, "velocity": 76}, {"time": 4738, "pitch": 52, "duration": 13, "velocity": 79}, {"time": 4738, "pitch": 57, "duration": 16, "velocity": 88}, {"time": 4738, "pitch": 61, "duration": 17, "velocity": 85}, {"time": 4738, "pitch": 64, "duration": 16, "velocity": 77}, {"time": 4738, "pitch": 69, "duration": 16, "velocity": 90}, {"time": 4756, "pitch": 52, "duration": 8, "velocity": 88}, {"time": 4762, "pitch": 57, "duration": 15, "velocity": 92}, {"time": 4762, "pitch": 61, "duration": 15, "velocity": 83}, {"time": 4762, "pitch": 64, "duration": 15, "velocity": 77}, {"time": 4762, "pitch": 69, "duration": 15, "velocity": 89}, {"time": 4768, "pitch": 52, "duration": 8, "velocity": 81}, {"time": 4774, "pitch": 45, "duration": 2, "velocity": 77}, {"time": 4786, "pitch": 45, "duration": 34, "velocity": 80}, {"time": 4786, "pitch": 52, "duration": 21, "velocity": 80}, {"time": 4786, "pitch": 57, "duration": 10, "velocity": 91}, {"time": 4786, "pitch": 61, "duration": 10, "velocity": 85}, {"time": 4786, "pitch": 64, "duration": 9, "velocity": 80}, {"time": 4786, "pitch": 69, "duration": 9, "velocity": 89}, {"time": 4804, "pitch": 57, "duration": 13, "velocity": 91}, {"time": 4804, "pitch": 61, "duration": 13, "velocity": 81}, {"time": 4804, "pitch": 64, "duration": 13, "velocity": 76}, {"time": 4804, "pitch": 69, "duration": 12, "velocity": 89}, {"time": 4816, "pitch": 52, "duration": 12, "velocity": 88}, {"time": 4822, "pitch": 57, "duration": 3, "velocity": 87}, {"time": 4822, "pitch": 61, "duration": 4, "velocity": 74}, {"time": 4822, "pitch": 64, "duration": 2, "velocity": 61}, {"time": 4822, "pitch": 69, "duration": 4, "velocity": 87}, {"time": 4828, "pitch": 45, "duration": 2, "velocity": 64}, {"time": 4834, "pitch": 47, "duration": 13, "velocity": 72}, {"time": 4834, "pitch": 54, "duration": 13, "velocity": 75}, {"time": 4834, "pitch": 59, "duration": 13, "velocity": 84}, {"time": 4834, "pitch": 62, "duration": 14, "velocity": 74}, {"time": 4834, "pitch": 66, "duration": 14, "velocity": 83}, {"time": 4834, "pitch": 71, "duration": 13, "velocity": 84}, {"time": 4852, "pitch": 59, "duration": 11, "velocity": 100}, {"time": 4852, "pitch": 62, "duration": 15, "velocity": 88}, {"time": 4852, "pitch": 66, "duration": 14, "velocity": 87}, {"time": 4852, "pitch": 71, "duration": 12, "velocity": 93}, {"time": 4858, "pitch": 47, "duration": 16, "velocity": 80}, {"time": 4858, "pitch": 54, "duration": 16, "velocity": 83}, {"time": 4864, "pitch": 59, "duration": 2, "velocity": 76}, {"time": 4870, "pitch": 59, "duration": 3, "velocity": 99}, {"time": 4870, "pitch": 62, "duration": 4, "velocity": 83}, {"time": 4870, "pitch": 66, "duration": 4, "velocity": 78}, {"time": 4870, "pitch": 71, "duration": 4, "velocity": 90}, {"time": 4882, "pitch": 47, "duration": 31, "velocity": 80}, {"time": 4882, "pitch": 54, "duration": 9, "velocity": 81}, {"time": 4882, "pitch": 59, "duration": 15, "velocity": 97}, {"time": 4882, "pitch": 62, "duration": 17, "velocity": 88}, {"time": 4882, "pitch": 66, "duration": 17, "velocity": 84}, {"time": 4882, "pitch": 71, "duration": 15, "velocity": 92}, {"time": 4900, "pitch": 54, "duration": 8, "velocity": 85}, {"time": 4906, "pitch": 59, "duration": 12, "velocity": 99}, {"time": 4906, "pitch": 62, "duration": 13, "velocity": 88}, {"time": 4906, "pitch": 66, "duration": 13, "velocity": 82}, {"time": 4906, "pitch": 71, "duration": 11, "velocity": 99}, {"time": 4912, "pitch": 54, "duration": 8, "velocity": 85}, {"time": 4918, "pitch": 47, "duration": 4, "velocity": 76}, {"time": 4930, "pitch": 42, "duration": 39, "velocity": 85}, {"time": 4930, "pitch": 54, "duration": 17, "velocity": 80}, {"time": 4930, "pitch": 57, "duration": 9, "velocity": 90}, {"time": 4930, "pitch": 61, "duration": 10, "velocity": 85}, {"time": 4930, "pitch": 66, "duration": 9, "velocity": 92}, {"time": 4942, "pitch": 57, "duration": 15, "velocity": 79}, {"time": 4942, "pitch": 61, "duration": 15, "velocity": 62}, {"time": 4942, "pitch": 66, "duration": 14, "velocity": 64}, {"time": 4958, "pitch": 54, "duration": 14, "velocity": 91}, {"time": 4964, "pitch": 64, "duration": 4, "velocity": 79}, {"time": 4978, "pitch": 42, "duration": 30, "velocity": 85}, {"time": 4978, "pitch": 54, "duration": 13, "velocity": 85}, {"time": 4978, "pitch": 57, "duration": 7, "velocity": 87}, {"time": 4978, "pitch": 61, "duration": 8, "velocity": 84}, {"time": 4978, "pitch": 66, "duration": 8, "velocity": 91}, {"time": 4990, "pitch": 57, "duration": 7, "velocity": 85}, {"time": 4990, "pitch": 61, "duration": 8, "velocity": 77}, {"time": 4990, "pitch": 66, "duration": 7, "velocity": 89}, {"time": 4996, "pitch": 54, "duration": 8, "velocity": 87}, {"time": 5002, "pitch": 57, "duration": 15, "velocity": 97}, {"time": 5002, "pitch": 61, "duration": 15, "velocity": 87}, {"time": 5002, "pitch": 66, "duration": 15, "velocity": 92}, {"time": 5008, "pitch": 54, "duration": 7, "velocity": 84}, {"time": 5014, "pitch": 42, "duration": 2, "velocity": 87}, {"time": 5026, "pitch": 42, "duration": 21, "velocity": 84}, {"time": 5026, "pitch": 54, "duration": 20, "velocity": 87}, {"time": 5026, "pitch": 57, "duration": 8, "velocity": 94}, {"time": 5026, "pitch": 61, "duration": 8, "velocity": 90}, {"time": 5026, "pitch": 66, "duration": 8, "velocity": 92}, {"time": 5038, "pitch": 57, "duration": 8, "velocity": 90}, {"time": 5038, "pitch": 61, "duration": 8, "velocity": 90}, {"time": 5038, "pitch": 66, "duration": 7, "velocity": 95}, {"time": 5044, "pitch": 64, "duration": 8, "velocity": 75}, {"time": 5050, "pitch": 57, "duration": 3, "velocity": 87}, {"time": 5050, "pitch": 61, "duration": 4, "velocity": 84}, {"time": 5050, "pitch": 66, "duration": 4, "velocity": 94}, {"time": 5056, "pitch": 57, "duration": 13, "velocity": 85}, {"time": 5056, "pitch": 61, "duration": 14, "velocity": 62}, {"time": 5056, "pitch": 66, "duration": 12, "velocity": 62}, {"time": 5062, "pitch": 42, "duration": 3, "velocity": 90}, {"time": 5062, "pitch": 54, "duration": 3, "velocity": 94}, {"time": 5068, "pitch": 64, "duration": 4, "velocity": 83}, {"time": 5074, "pitch": 42, "duration": 30, "velocity": 91}, {"time": 5074, "pitch": 54, "duration": 14, "velocity": 97}, {"time": 5074, "pitch": 57, "duration": 8, "velocity": 91}, {"time": 5074, "pitch": 61, "duration": 9, "velocity": 72}, {"time": 5074, "pitch": 66, "duration": 8, "velocity": 92}, {"time": 5086, "pitch": 57, "duration": 9, "velocity": 94}, {"time": 5086, "pitch": 61, "duration": 10, "velocity": 87}, {"time": 5086, "pitch": 66, "duration": 8, "velocity": 95}, {"time": 5092, "pitch": 54, "duration": 8, "velocity": 97}, {"time": 5092, "pitch": 64, "duration": 8, "velocity": 81}, {"time": 5098, "pitch": 57, "duration": 13, "velocity": 87}, {"time": 5098, "pitch": 61, "duration": 14, "velocity": 71}, {"time": 5098, "pitch": 66, "duration": 13, "velocity": 97}, {"time": 5104, "pitch": 54, "duration": 8, "velocity": 87}, {"time": 5110, "pitch": 42, "duration": 6, "velocity": 84}, {"time": 5122, "pitch": 40, "duration": 36, "velocity": 87}, {"time": 5122, "pitch": 52, "duration": 20, "velocity": 80}, {"time": 5122, "pitch": 56, "duration": 12, "velocity": 90}, {"time": 5122, "pitch": 59, "duration": 12, "velocity": 85}, {"time": 5122, "pitch": 64, "duration": 13, "velocity": 83}, {"time": 5140, "pitch": 56, "duration": 9, "velocity": 88}, {"time": 5140, "pitch": 59, "duration": 10, "velocity": 88}, {"time": 5140, "pitch": 64, "duration": 10, "velocity": 88}, {"time": 5146, "pitch": 52, "duration": 13, "velocity": 95}, {"time": 5152, "pitch": 56, "duration": 12, "velocity": 71}, {"time": 5152, "pitch": 59, "duration": 12, "velocity": 72}, {"time": 5152, "pitch": 64, "duration": 12, "velocity": 69}, {"time": 5158, "pitch": 47, "duration": 7, "velocity": 83}, {"time": 5170, "pitch": 40, "duration": 38, "velocity": 85}, {"time": 5170, "pitch": 52, "duration": 15, "velocity": 90}, {"time": 5170, "pitch": 56, "duration": 10, "velocity": 85}, {"time": 5170, "pitch": 59, "duration": 11, "velocity": 79}, {"time": 5170, "pitch": 64, "duration": 11, "velocity": 74}, {"time": 5182, "pitch": 56, "duration": 16, "velocity": 81}, {"time": 5182, "pitch": 59, "duration": 16, "velocity": 84}, {"time": 5182, "pitch": 64, "duration": 16, "velocity": 81}, {"time": 5188, "pitch": 52, "duration": 19, "velocity": 91}, {"time": 5200, "pitch": 56, "duration": 8, "velocity": 81}, {"time": 5200, "pitch": 59, "duration": 8, "velocity": 79}, {"time": 5200, "pitch": 64, "duration": 8, "velocity": 72}, {"time": 5206, "pitch": 47, "duration": 6, "velocity": 80}, {"time": 5212, "pitch": 52, "duration": 2, "velocity": 83}, {"time": 5218, "pitch": 45, "duration": 39, "velocity": 64}, {"time": 5218, "pitch": 57, "duration": 31, "velocity": 49}, {"time": 5218, "pitch": 61, "duration": 19, "velocity": 78}, {"time": 5218, "pitch": 64, "duration": 19, "velocity": 78}, {"time": 5218, "pitch": 69, "duration": 19, "velocity": 75}, {"time": 5242, "pitch": 61, "duration": 15, "velocity": 60}, {"time": 5242, "pitch": 64, "duration": 15, "velocity": 64}, {"time": 5242, "pitch": 69, "duration": 20, "velocity": 70}, {"time": 5254, "pitch": 57, "duration": 3, "velocity": 76}, {"time": 5266, "pitch": 40, "duration": 18, "velocity": 67}, {"time": 5266, "pitch": 52, "duration": 20, "velocity": 61}, {"time": 5266, "pitch": 59, "duration": 17, "velocity": 63}, {"time": 5266, "pitch": 64, "duration": 15, "velocity": 69}, {"time": 5266, "pitch": 68, "duration": 17, "velocity": 70}, {"time": 5290, "pitch": 45, "duration": 63, "velocity": 66}, {"time": 5290, "pitch": 61, "duration": 14, "velocity": 70}, {"time": 5290, "pitch": 64, "duration": 13, "velocity": 73}, {"time": 5290, "pitch": 69, "duration": 16, "velocity": 73}, {"time": 5306, "pitch": 57, "duration": 18, "velocity": 35}, {"time": 5314, "pitch": 61, "duration": 17, "velocity": 66}, {"time": 5314, "pitch": 64, "duration": 16, "velocity": 67}, {"time": 5314, "pitch": 69, "duration": 16, "velocity": 69}, {"time": 5332, "pitch": 57, "duration": 10, "velocity": 48}, {"time": 5338, "pitch": 61, "duration": 15, "velocity": 63}, {"time": 5338, "pitch": 64, "duration": 12, "velocity": 67}, {"time": 5338, "pitch": 71, "duration": 14, "velocity": 70}, {"time": 5350, "pitch": 57, "duration": 8, "velocity": 58}, {"time": 5360, "pitch": 61, "duration": 1, "velocity": 43}, {"time": 5362, "pitch": 45, "duration": 25, "velocity": 73}, {"time": 5362, "pitch": 61, "duration": 14, "velocity": 70}, {"time": 5362, "pitch": 64, "duration": 13, "velocity": 73}, {"time": 5362, "pitch": 69, "duration": 15, "velocity": 75}, {"time": 5374, "pitch": 57, "duration": 4, "velocity": 45}, {"time": 5386, "pitch": 59, "duration": 9, "velocity": 85}, {"time": 5386, "pitch": 64, "duration": 10, "velocity": 93}, {"time": 5386, "pitch": 69, "duration": 11, "velocity": 75}, {"time": 5392, "pitch": 45, "duration": 8, "velocity": 72}, {"time": 5398, "pitch": 52, "duration": 4, "velocity": 75}, {"time": 5404, "pitch": 64, "duration": 4, "velocity": 91}, {"time": 5410, "pitch": 38, "duration": 40, "velocity": 75}, {"time": 5410, "pitch": 50, "duration": 11, "velocity": 70}, {"time": 5410, "pitch": 57, "duration": 19, "velocity": 69}, {"time": 5410, "pitch": 62, "duration": 18, "velocity": 67}, {"time": 5410, "pitch": 66, "duration": 17, "velocity": 76}, {"time": 5410, "pitch": 69, "duration": 20, "velocity": 67}, {"time": 5428, "pitch": 50, "duration": 8, "velocity": 56}, {"time": 5434, "pitch": 57, "duration": 7, "velocity": 73}, {"time": 5434, "pitch": 62, "duration": 8, "velocity": 75}, {"time": 5434, "pitch": 66, "duration": 8, "velocity": 72}, {"time": 5440, "pitch": 50, "duration": 17, "velocity": 80}, {"time": 5446, "pitch": 57, "duration": 5, "velocity": 69}, {"time": 5452, "pitch": 69, "duration": 9, "velocity": 75}, {"time": 5458, "pitch": 40, "duration": 12, "velocity": 72}, {"time": 5458, "pitch": 59, "duration": 26, "velocity": 76}, {"time": 5458, "pitch": 64, "duration": 26, "velocity": 91}, {"time": 5458, "pitch": 68, "duration": 26, "velocity": 80}, {"time": 5464, "pitch": 47, "duration": 8, "velocity": 61}, {"time": 5470, "pitch": 52, "duration": 9, "velocity": 80}, {"time": 5476, "pitch": 54, "duration": 16, "velocity": 53}, {"time": 5480, "pitch": 69, "duration": 3, "velocity": 1}, {"time": 5482, "pitch": 56, "duration": 10, "velocity": 95}, {"time": 5488, "pitch": 59, "duration": 4, "velocity": 78}, {"time": 5494, "pitch": 64, "duration": 5, "velocity": 91}, {"time": 5500, "pitch": 68, "duration": 5, "velocity": 75}, {"time": 5506, "pitch": 45, "duration": 37, "velocity": 73}, {"time": 5506, "pitch": 61, "duration": 11, "velocity": 80}, {"time": 5506, "pitch": 64, "duration": 13, "velocity": 88}, {"time": 5506, "pitch": 69, "duration": 13, "velocity": 67}, {"time": 5512, "pitch": 52, "duration": 24, "velocity": 69}, {"time": 5518, "pitch": 57, "duration": 7, "velocity": 72}, {"time": 5524, "pitch": 59, "duration": 6, "velocity": 91}, {"time": 5524, "pitch": 64, "duration": 9, "velocity": 91}, {"time": 5530, "pitch": 57, "duration": 11, "velocity": 60}, {"time": 5536, "pitch": 61, "duration": 8, "velocity": 91}, {"time": 5536, "pitch": 68, "duration": 9, "velocity": 93}, {"time": 5542, "pitch": 52, "duration": 10, "velocity": 69}, {"time": 5548, "pitch": 61, "duration": 16, "velocity": 75}, {"time": 5548, "pitch": 64, "duration": 19, "velocity": 85}, {"time": 5548, "pitch": 69, "duration": 18, "velocity": 78}, {"time": 5554, "pitch": 45, "duration": 38, "velocity": 70}, {"time": 5560, "pitch": 52, "duration": 22, "velocity": 60}, {"time": 5566, "pitch": 57, "duration": 13, "velocity": 76}, {"time": 5572, "pitch": 61, "duration": 4, "velocity": 75}, {"time": 5578, "pitch": 61, "duration": 7, "velocity": 85}, {"time": 5578, "pitch": 64, "duration": 8, "velocity": 99}, {"time": 5578, "pitch": 69, "duration": 8, "velocity": 76}, {"time": 5584, "pitch": 52, "duration": 6, "velocity": 42}, {"time": 5584, "pitch": 57, "duration": 5, "velocity": 82}, {"time": 5590, "pitch": 61, "duration": 6, "velocity": 88}, {"time": 5596, "pitch": 69, "duration": 4, "velocity": 69}, {"time": 5602, "pitch": 41, "duration": 38, "velocity": 85}, {"time": 5602, "pitch": 53, "duration": 12, "velocity": 82}, {"time": 5602, "pitch": 57, "duration": 17, "velocity": 78}, {"time": 5602, "pitch": 60, "duration": 17, "velocity": 85}, {"time": 5602, "pitch": 65, "duration": 18, "velocity": 82}, {"time": 5620, "pitch": 53, "duration": 7, "velocity": 64}, {"time": 5626, "pitch": 57, "duration": 7, "velocity": 93}, {"time": 5626, "pitch": 60, "duration": 8, "velocity": 106}, {"time": 5626, "pitch": 65, "duration": 8, "velocity": 103}, {"time": 5632, "pitch": 53, "duration": 7, "velocity": 91}, {"time": 5638, "pitch": 57, "duration": 3, "velocity": 78}, {"time": 5638, "pitch": 60, "duration": 3, "velocity": 97}, {"time": 5638, "pitch": 65, "duration": 3, "velocity": 99}, {"time": 5650, "pitch": 40, "duration": 37, "velocity": 76}, {"time": 5650, "pitch": 52, "duration": 8, "velocity": 88}, {"time": 5650, "pitch": 56, "duration": 15, "velocity": 93}, {"time": 5650, "pitch": 59, "duration": 16, "velocity": 97}, {"time": 5650, "pitch": 64, "duration": 16, "velocity": 66}, {"time": 5662, "pitch": 52, "duration": 15, "velocity": 62}, {"time": 5674, "pitch": 56, "duration": 12, "velocity": 80}, {"time": 5674, "pitch": 59, "duration": 11, "velocity": 85}, {"time": 5674, "pitch": 64, "duration": 12, "velocity": 85}, {"time": 5686, "pitch": 52, "duration": 4, "velocity": 80}, {"time": 5698, "pitch": 45, "duration": 41, "velocity": 80}, {"time": 5698, "pitch": 62, "duration": 12, "velocity": 80}, {"time": 5698, "pitch": 64, "duration": 10, "velocity": 76}, {"time": 5698, "pitch": 69, "duration": 12, "velocity": 76}, {"time": 5704, "pitch": 52, "duration": 25, "velocity": 64}, {"time": 5710, "pitch": 57, "duration": 8, "velocity": 59}, {"time": 5716, "pitch": 61, "duration": 12, "velocity": 95}, {"time": 5716, "pitch": 64, "duration": 13, "velocity": 80}, {"time": 5716, "pitch": 69, "duration": 12, "velocity": 67}, {"time": 5728, "pitch": 57, "duration": 11, "velocity": 56}, {"time": 5734, "pitch": 59, "duration": 24, "velocity": 78}, {"time": 5734, "pitch": 64, "duration": 24, "velocity": 72}, {"time": 5740, "pitch": 52, "duration": 6, "velocity": 62}, {"time": 5746, "pitch": 45, "duration": 32, "velocity": 78}, {"time": 5752, "pitch": 52, "duration": 15, "velocity": 53}, {"time": 5758, "pitch": 57, "duration": 13, "velocity": 60}, {"time": 5764, "pitch": 59, "duration": 4, "velocity": 76}, {"time": 5770, "pitch": 59, "duration": 9, "velocity": 73}, {"time": 5770, "pitch": 64, "duration": 11, "velocity": 93}, {"time": 5776, "pitch": 52, "duration": 9, "velocity": 67}, {"time": 5788, "pitch": 59, "duration": 3, "velocity": 78}, {"time": 5794, "pitch": 37, "duration": 37, "velocity": 63}, {"time": 5794, "pitch": 49, "duration": 30, "velocity": 73}, {"time": 5794, "pitch": 59, "duration": 21, "velocity": 73}, {"time": 5794, "pitch": 64, "duration": 20, "velocity": 76}, {"time": 5794, "pitch": 68, "duration": 17, "velocity": 62}, {"time": 5818, "pitch": 59, "duration": 14, "velocity": 63}, {"time": 5818, "pitch": 64, "duration": 13, "velocity": 67}, {"time": 5818, "pitch": 68, "duration": 13, "velocity": 69}, {"time": 5830, "pitch": 49, "duration": 4, "velocity": 70}, {"time": 5842, "pitch": 42, "duration": 42, "velocity": 70}, {"time": 5842, "pitch": 54, "duration": 32, "velocity": 69}, {"time": 5842, "pitch": 61, "duration": 20, "velocity": 73}, {"time": 5842, "pitch": 66, "duration": 20, "velocity": 75}, {"time": 5842, "pitch": 69, "duration": 20, "velocity": 67}, {"time": 5866, "pitch": 61, "duration": 16, "velocity": 67}, {"time": 5866, "pitch": 66, "duration": 16, "velocity": 72}, {"time": 5866, "pitch": 69, "duration": 17, "velocity": 70}, {"time": 5878, "pitch": 54, "duration": 4, "velocity": 69}, {"time": 5890, "pitch": 33, "duration": 37, "velocity": 75}, {"time": 5890, "pitch": 45, "duration": 33, "velocity": 67}, {"time": 5890, "pitch": 57, "duration": 20, "velocity": 69}, {"time": 5890, "pitch": 61, "duration": 20, "velocity": 76}, {"time": 5890, "pitch": 64, "duration": 19, "velocity": 75}, {"time": 5914, "pitch": 57, "duration": 15, "velocity": 70}, {"time": 5914, "pitch": 61, "duration": 16, "velocity": 73}, {"time": 5914, "pitch": 64, "duration": 15, "velocity": 70}, {"time": 5926, "pitch": 45, "duration": 5, "velocity": 59}, {"time": 5938, "pitch": 50, "duration": 32, "velocity": 67}, {"time": 5938, "pitch": 57, "duration": 19, "velocity": 64}, {"time": 5938, "pitch": 62, "duration": 19, "velocity": 64}, {"time": 5938, "pitch": 66, "duration": 19, "velocity": 66}, {"time": 5962, "pitch": 57, "duration": 13, "velocity": 63}, {"time": 5962, "pitch": 62, "duration": 19, "velocity": 70}, {"time": 5962, "pitch": 66, "duration": 17, "velocity": 67}, {"time": 5974, "pitch": 50, "duration": 15, "velocity": 63}, {"time": 5986, "pitch": 49, "duration": 32, "velocity": 66}, {"time": 5986, "pitch": 59, "duration": 20, "velocity": 70}, {"time": 5986, "pitch": 64, "duration": 20, "velocity": 72}, {"time": 5986, "pitch": 68, "duration": 18, "velocity": 72}, {"time": 6010, "pitch": 59, "duration": 14, "velocity": 73}, {"time": 6010, "pitch": 64, "duration": 13, "velocity": 73}, {"time": 6010, "pitch": 68, "duration": 13, "velocity": 69}, {"time": 6022, "pitch": 49, "duration": 3, "velocity": 72}, {"time": 6034, "pitch": 42, "duration": 22, "velocity": 75}, {"time": 6034, "pitch": 61, "duration": 19, "velocity": 69}, {"time": 6034, "pitch": 66, "duration": 19, "velocity": 69}, {"time": 6034, "pitch": 69, "duration": 19, "velocity": 73}, {"time": 6058, "pitch": 40, "duration": 11, "velocity": 80}, {"time": 6058, "pitch": 59, "duration": 14, "velocity": 80}, {"time": 6058, "pitch": 64, "duration": 15, "velocity": 70}, {"time": 6058, "pitch": 68, "duration": 14, "velocity": 72}, {"time": 6082, "pitch": 38, "duration": 38, "velocity": 66}, {"time": 6082, "pitch": 50, "duration": 30, "velocity": 59}, {"time": 6082, "pitch": 57, "duration": 20, "velocity": 68}, {"time": 6082, "pitch": 62, "duration": 19, "velocity": 72}, {"time": 6082, "pitch": 66, "duration": 19, "velocity": 65}, {"time": 6088, "pitch": 69, "duration": 12, "velocity": 1}, {"time": 6106, "pitch": 57, "duration": 14, "velocity": 75}, {"time": 6106, "pitch": 62, "duration": 16, "velocity": 75}, {"time": 6106, "pitch": 66, "duration": 16, "velocity": 72}, {"time": 6118, "pitch": 50, "duration": 4, "velocity": 62}, {"time": 6130, "pitch": 40, "duration": 38, "velocity": 72}, {"time": 6130, "pitch": 52, "duration": 28, "velocity": 72}, {"time": 6130, "pitch": 59, "duration": 19, "velocity": 73}, {"time": 6130, "pitch": 64, "duration": 19, "velocity": 75}, {"time": 6130, "pitch": 68, "duration": 19, "velocity": 73}, {"time": 6154, "pitch": 59, "duration": 15, "velocity": 75}, {"time": 6154, "pitch": 64, "duration": 15, "velocity": 72}, {"time": 6154, "pitch": 68, "duration": 14, "velocity": 73}, {"time": 6166, "pitch": 52, "duration": 4, "velocity": 62}, {"time": 6178, "pitch": 45, "duration": 41, "velocity": 73}, {"time": 6178, "pitch": 61, "duration": 18, "velocity": 75}, {"time": 6178, "pitch": 64, "duration": 18, "velocity": 70}, {"time": 6178, "pitch": 69, "duration": 18, "velocity": 70}, {"time": 6196, "pitch": 57, "duration": 8, "velocity": 40}, {"time": 6202, "pitch": 61, "duration": 13, "velocity": 78}, {"time": 6202, "pitch": 64, "duration": 14, "velocity": 76}, {"time": 6202, "pitch": 69, "duration": 14, "velocity": 73}, {"time": 6212, "pitch": 57, "duration": 7, "velocity": 54}, {"time": 6218, "pitch": 52, "duration": 5, "velocity": 59}, {"time": 6226, "pitch": 45, "duration": 34, "velocity": 69}, {"time": 6226, "pitch": 61, "duration": 20, "velocity": 62}, {"time": 6226, "pitch": 64, "duration": 18, "velocity": 67}, {"time": 6226, "pitch": 69, "duration": 20, "velocity": 64}, {"time": 6244, "pitch": 57, "duration": 11, "velocity": 39}, {"time": 6250, "pitch": 61, "duration": 14, "velocity": 66}, {"time": 6250, "pitch": 64, "duration": 13, "velocity": 70}, {"time": 6250, "pitch": 69, "duration": 16, "velocity": 64}, {"time": 6262, "pitch": 45, "duration": 4, "velocity": 75}, {"time": 6274, "pitch": 42, "duration": 33, "velocity": 73}, {"time": 6274, "pitch": 61, "duration": 19, "velocity": 62}, {"time": 6274, "pitch": 64, "duration": 18, "velocity": 67}, {"time": 6274, "pitch": 69, "duration": 18, "velocity": 67}, {"time": 6292, "pitch": 54, "duration": 11, "velocity": 36}, {"time": 6298, "pitch": 61, "duration": 14, "velocity": 67}, {"time": 6298, "pitch": 64, "duration": 13, "velocity": 73}, {"time": 6298, "pitch": 69, "duration": 15, "velocity": 70}, {"time": 6310, "pitch": 42, "duration": 4, "velocity": 64}, {"time": 6310, "pitch": 54, "duration": 2, "velocity": 46}, {"time": 6322, "pitch": 40, "duration": 38, "velocity": 72}, {"time": 6322, "pitch": 52, "duration": 28, "velocity": 60}, {"time": 6322, "pitch": 59, "duration": 18, "velocity": 66}, {"time": 6322, "pitch": 64, "duration": 18, "velocity": 63}, {"time": 6322, "pitch": 68, "duration": 15, "velocity": 64}, {"time": 6346, "pitch": 59, "duration": 14, "velocity": 66}, {"time": 6346, "pitch": 64, "duration": 14, "velocity": 67}, {"time": 6346, "pitch": 68, "duration": 14, "velocity": 66}, {"time": 6358, "pitch": 52, "duration": 3, "velocity": 67}, {"time": 6370, "pitch": 40, "duration": 37, "velocity": 63}, {"time": 6370, "pitch": 52, "duration": 37, "velocity": 58}, {"time": 6370, "pitch": 59, "duration": 18, "velocity": 61}, {"time": 6370, "pitch": 64, "duration": 17, "velocity": 62}, {"time": 6370, "pitch": 68, "duration": 16, "velocity": 66}, {"time": 6394, "pitch": 59, "duration": 18, "velocity": 69}, {"time": 6394, "pitch": 64, "duration": 18, "velocity": 73}, {"time": 6394, "pitch": 68, "duration": 17, "velocity": 69}, {"time": 6406, "pitch": 47, "duration": 12, "velocity": 43}, {"time": 6412, "pitch": 44, "duration": 7, "velocity": 52}, {"time": 6418, "pitch": 40, "duration": 40, "velocity": 73}, {"time": 6418, "pitch": 52, "duration": 29, "velocity": 55}, {"time": 6418, "pitch": 59, "duration": 16, "velocity": 61}, {"time": 6418, "pitch": 64, "duration": 14, "velocity": 72}, {"time": 6418, "pitch": 68, "duration": 15, "velocity": 66}, {"time": 6442, "pitch": 59, "duration": 14, "velocity": 66}, {"time": 6442, "pitch": 64, "duration": 14, "velocity": 69}, {"time": 6442, "pitch": 68, "duration": 14, "velocity": 64}, {"time": 6454, "pitch": 52, "duration": 4, "velocity": 50}, {"time": 6466, "pitch": 42, "duration": 10, "velocity": 72}, {"time": 6466, "pitch": 54, "duration": 10, "velocity": 69}, {"time": 6466, "pitch": 58, "duration": 9, "velocity": 73}, {"time": 6466, "pitch": 61, "duration": 9, "velocity": 76}, {"time": 6466, "pitch": 66, "duration": 10, "velocity": 80}, {"time": 6478, "pitch": 42, "duration": 80, "velocity": 75}, {"time": 6478, "pitch": 54, "duration": 80, "velocity": 85}, {"time": 6478, "pitch": 58, "duration": 78, "velocity": 76}, {"time": 6478, "pitch": 61, "duration": 81, "velocity": 75}, {"time": 6478, "pitch": 66, "duration": 81, "velocity": 76}], "annotations": [{"time": 136, "annotation": {"number": 64, "value": 127}, "group": "control_change"}, {"time": 177, "annotation": {"number": 64, "value": 0}, "group": "control_change"}, {"time": 194, "annotation": {"number": 64, "value": 127}, "group": "control_change"}, {"time": 224, "annotation": {"number": 64, "value": 0}, "group": "control_change"}, {"time": 232, "annotation": {"number": 64, "value": 127}, "group": "control_change"}, {"time": 310, "annotation": {"number": 64, "value": 0}, "group": "control_change"}, {"time": 328, "annotation": {"number": 64, "value": 127}, "group": "control_change"}, {"time": 369, "annotation": {"number": 64, "value": 0}, "group": "control_change"}, {"time": 371, "annotation": {"number": 64, "value": 127}, "group": "control_change"}, {"time": 421, "annotation": {"number": 64, "value": 0}, "group": "control_change"}, {"time": 430, "annotation": {"number": 64, "value": 127}, "group": "control_change"}, {"time": 470, "annotation": {"number": 64, "value": 0}, "group": "control_change"}, {"time": 479, "annotation": {"number": 64, "value": 127}, "group": "control_change"}, {"time": 516, "annotation": {"number": 64, "value": 0}, "group": "control_change"}, {"time": 525, "annotation": {"number": 64, "value": 127}, "group": "control_change"}, {"time": 564, "annotation": {"number": 64, "value": 0}, "group": "control_change"}, {"time": 572, "annotation": {"number": 64, "value": 127}, "group": "control_change"}, {"time": 610, "annotation": {"number": 64, "value": 0}, "group": "control_change"}, {"time": 898, "annotation": {"number": 64, "value": 127}, "group": "control_change"}, {"time": 998, "annotation": {"number": 64, "value": 0}, "group": "control_change"}, {"time": 1004, "annotation": {"number": 64, "value": 127}, "group": "control_change"}, {"time": 1042, "annotation": {"number": 64, "value": 0}, "group": "control_change"}, {"time": 1044, "annotation": {"number": 64, "value": 127}, "group": "control_change"}, {"time": 1090, "annotation": {"number": 64, "value": 0}, "group": "control_change"}, {"time": 1102, "annotation": {"number": 64, "value": 127}, "group": "control_change"}, {"time": 1139, "annotation": {"number": 64, "value": 0}, "group": "control_change"}, {"time": 1151, "annotation": {"number": 64, "value": 127}, "group": "control_change"}, {"time": 1185, "annotation": {"number": 64, "value": 0}, "group": "control_change"}, {"time": 1187, "annotation": {"number": 64, "value": 127}, "group": "control_change"}, {"time": 1238, "annotation": {"number": 64, "value": 0}, "group": "control_change"}, {"time": 1244, "annotation": {"number": 64, "value": 127}, "group": "control_change"}, {"time": 1282, "annotation": {"number": 64, "value": 0}, "group": "control_change"}, {"time": 1285, "annotation": {"number": 64, "value": 127}, "group": "control_change"}, {"time": 1331, "annotation": {"number": 64, "value": 0}, "group": "control_change"}, {"time": 1344, "annotation": {"number": 64, "value": 127}, "group": "control_change"}, {"time": 1380, "annotation": {"number": 64, "value": 0}, "group": "control_change"}, {"time": 1390, "annotation": {"number": 64, "value": 127}, "group": "control_change"}, {"time": 1419, "annotation": {"number": 64, "value": 0}, "group": "control_change"}, {"time": 1434, "annotation": {"number": 64, "value": 127}, "group": "control_change"}, {"time": 1474, "annotation": {"number": 64, "value": 0}, "group": "control_change"}, {"time": 1487, "annotation": {"number": 64, "value": 127}, "group": "control_change"}, {"time": 1526, "annotation": {"number": 64, "value": 0}, "group": "control_change"}, {"time": 1533, "annotation": {"number": 64, "value": 127}, "group": "control_change"}, {"time": 1572, "annotation": {"number": 64, "value": 0}, "group": "control_change"}, {"time": 1578, "annotation": {"number": 64, "value": 127}, "group": "control_change"}, {"time": 1616, "annotation": {"number": 64, "value": 0}, "group": "control_change"}, {"time": 1620, "annotation": {"number": 64, "value": 127}, "group": "control_change"}, {"time": 1642, "annotation": {"number": 64, "value": 0}, "group": "control_change"}, {"time": 1648, "annotation": {"number": 64, "value": 127}, "group": "control_change"}, {"time": 1668, "annotation": {"number": 64, "value": 0}, "group": "control_change"}, {"time": 1678, "annotation": {"number": 64, "value": 127}, "group": "control_change"}, {"time": 1762, "annotation": {"number": 64, "value": 0}, "group": "control_change"}, {"time": 1766, "annotation": {"number": 64, "value": 127}, "group": "control_change"}, {"time": 1815, "annotation": {"number": 64, "value": 0}, "group": "control_change"}, {"time": 1822, "annotation": {"number": 64, "value": 127}, "group": "control_change"}, {"time": 1856, "annotation": {"number": 64, "value": 0}, "group": "control_change"}, {"time": 1861, "annotation": {"number": 64, "value": 127}, "group": "control_change"}, {"time": 1906, "annotation": {"number": 64, "value": 0}, "group": "control_change"}, {"time": 1910, "annotation": {"number": 64, "value": 127}, "group": "control_change"}, {"time": 1954, "annotation": {"number": 64, "value": 0}, "group": "control_change"}, {"time": 1960, "annotation": {"number": 64, "value": 127}, "group": "control_change"}, {"time": 1980, "annotation": {"number": 64, "value": 0}, "group": "control_change"}, {"time": 1986, "annotation": {"number": 64, "value": 127}, "group": "control_change"}, {"time": 2018, "annotation": {"number": 64, "value": 0}, "group": "control_change"}, {"time": 2018, "annotation": {"number": 64, "value": 127}, "group": "control_change"}, {"time": 2090, "annotation": {"number": 64, "value": 0}, "group": "control_change"}, {"time": 2099, "annotation": {"number": 64, "value": 127}, "group": "control_change"}, {"time": 2145, "annotation": {"number": 64, "value": 0}, "group": "control_change"}, {"time": 2154, "annotation": {"number": 64, "value": 127}, "group": "control_change"}, {"time": 2242, "annotation": {"number": 64, "value": 0}, "group": "control_change"}, {"time": 2247, "annotation": {"number": 64, "value": 127}, "group": "control_change"}, {"time": 2250, "annotation": {"number": 64, "value": 0}, "group": "control_change"}, {"time": 2251, "annotation": {"number": 64, "value": 127}, "group": "control_change"}, {"time": 2259, "annotation": {"number": 64, "value": 0}, "group": "control_change"}, {"time": 2261, "annotation": {"number": 64, "value": 127}, "group": "control_change"}, {"time": 2289, "annotation": {"number": 64, "value": 0}, "group": "control_change"}, {"time": 2297, "annotation": {"number": 64, "value": 127}, "group": "control_change"}, {"time": 2315, "annotation": {"number": 64, "value": 0}, "group": "control_change"}, {"time": 2321, "annotation": {"number": 64, "value": 127}, "group": "control_change"}, {"time": 2384, "annotation": {"number": 64, "value": 0}, "group": "control_change"}, {"time": 2392, "annotation": {"number": 64, "value": 127}, "group": "control_change"}, {"time": 2432, "annotation": {"number": 64, "value": 0}, "group": "control_change"}, {"time": 2437, "annotation": {"number": 64, "value": 127}, "group": "control_change"}, {"time": 2484, "annotation": {"number": 64, "value": 0}, "group": "control_change"}, {"time": 2490, "annotation": {"number": 64, "value": 127}, "group": "control_change"}, {"time": 2532, "annotation": {"number": 64, "value": 0}, "group": "control_change"}, {"time": 2537, "annotation": {"number": 64, "value": 127}, "group": "control_change"}, {"time": 2578, "annotation": {"number": 64, "value": 0}, "group": "control_change"}, {"time": 2584, "annotation": {"number": 64, "value": 127}, "group": "control_change"}, {"time": 2626, "annotation": {"number": 64, "value": 0}, "group": "control_change"}, {"time": 2628, "annotation": {"number": 64, "value": 127}, "group": "control_change"}, {"time": 2671, "annotation": {"number": 64, "value": 0}, "group": "control_change"}, {"time": 2677, "annotation": {"number": 64, "value": 127}, "group": "control_change"}, {"time": 2680, "annotation": {"number": 64, "value": 0}, "group": "control_change"}, {"time": 2684, "annotation": {"number": 64, "value": 127}, "group": "control_change"}, {"time": 2719, "annotation": {"number": 64, "value": 0}, "group": "control_change"}, {"time": 2724, "annotation": {"number": 64, "value": 127}, "group": "control_change"}, {"time": 2769, "annotation": {"number": 64, "value": 0}, "group": "control_change"}, {"time": 2774, "annotation": {"number": 64, "value": 127}, "group": "control_change"}, {"time": 2815, "annotation": {"number": 64, "value": 0}, "group": "control_change"}, {"time": 2821, "annotation": {"number": 64, "value": 127}, "group": "control_change"}, {"time": 2866, "annotation": {"number": 64, "value": 0}, "group": "control_change"}, {"time": 2874, "annotation": {"number": 64, "value": 127}, "group": "control_change"}, {"time": 2913, "annotation": {"number": 64, "value": 0}, "group": "control_change"}, {"time": 2917, "annotation": {"number": 64, "value": 71}, "group": "control_change"}, {"time": 2917, "annotation": {"number": 64, "value": 127}, "group": "control_change"}, {"time": 2963, "annotation": {"number": 64, "value": 71}, "group": "control_change"}, {"time": 2964, "annotation": {"number": 64, "value": 0}, "group": "control_change"}, {"time": 2967, "annotation": {"number": 64, "value": 71}, "group": "control_change"}, {"time": 2968, "annotation": {"number": 64, "value": 127}, "group": "control_change"}, {"time": 3011, "annotation": {"number": 64, "value": 71}, "group": "control_change"}, {"time": 3012, "annotation": {"number": 64, "value": 0}, "group": "control_change"}, {"time": 3017, "annotation": {"number": 64, "value": 71}, "group": "control_change"}, {"time": 3018, "annotation": {"number": 64, "value": 127}, "group": "control_change"}, {"time": 3058, "annotation": {"number": 64, "value": 71}, "group": "control_change"}, {"time": 3059, "annotation": {"number": 64, "value": 0}, "group": "control_change"}, {"time": 3063, "annotation": {"number": 64, "value": 71}, "group": "control_change"}, {"time": 3064, "annotation": {"number": 64, "value": 127}, "group": "control_change"}, {"time": 3094, "annotation": {"number": 64, "value": 71}, "group": "control_change"}, {"time": 3095, "annotation": {"number": 64, "value": 0}, "group": "control_change"}, {"time": 3098, "annotation": {"number": 64, "value": 71}, "group": "control_change"}, {"time": 3098, "annotation": {"number": 64, "value": 127}, "group": "control_change"}, {"time": 3107, "annotation": {"number": 64, "value": 71}, "group": "control_change"}, {"time": 3107, "annotation": {"number": 64, "value": 0}, "group": "control_change"}, {"time": 3113, "annotation": {"number": 64, "value": 71}, "group": "control_change"}, {"time": 3113, "annotation": {"number": 64, "value": 127}, "group": "control_change"}, {"time": 3155, "annotation": {"number": 64, "value": 71}, "group": "control_change"}, {"time": 3156, "annotation": {"number": 64, "value": 0}, "group": "control_change"}, {"time": 3163, "annotation": {"number": 64, "value": 71}, "group": "control_change"}, {"time": 3164, "annotation": {"number": 64, "value": 127}, "group": "control_change"}, {"time": 3203, "annotation": {"number": 64, "value": 71}, "group": "control_change"}, {"time": 3204, "annotation": {"number": 64, "value": 0}, "group": "control_change"}, {"time": 3208, "annotation": {"number": 64, "value": 71}, "group": "control_change"}, {"time": 3208, "annotation": {"number": 64, "value": 127}, "group": "control_change"}, {"time": 3299, "annotation": {"number": 64, "value": 71}, "group": "control_change"}, {"time": 3299, "annotation": {"number": 64, "value": 0}, "group": "control_change"}, {"time": 3307, "annotation": {"number": 64, "value": 71}, "group": "control_change"}, {"time": 3307, "annotation": {"number": 64, "value": 127}, "group": "control_change"}, {"time": 3347, "annotation": {"number": 64, "value": 71}, "group": "control_change"}, {"time": 3347, "annotation": {"number": 64, "value": 0}, "group": "control_change"}, {"time": 3354, "annotation": {"number": 64, "value": 71}, "group": "control_change"}, {"time": 3356, "annotation": {"number": 64, "value": 127}, "group": "control_change"}, {"time": 3381, "annotation": {"number": 64, "value": 71}, "group": "control_change"}, {"time": 3383, "annotation": {"number": 64, "value": 127}, "group": "control_change"}, {"time": 3396, "annotation": {"number": 64, "value": 71}, "group": "control_change"}, {"time": 3396, "annotation": {"number": 64, "value": 0}, "group": "control_change"}, {"time": 3403, "annotation": {"number": 64, "value": 71}, "group": "control_change"}, {"time": 3404, "annotation": {"number": 64, "value": 127}, "group": "control_change"}, {"time": 3444, "annotation": {"number": 64, "value": 71}, "group": "control_change"}, {"time": 3444, "annotation": {"number": 64, "value": 0}, "group": "control_change"}, {"time": 3449, "annotation": {"number": 64, "value": 71}, "group": "control_change"}, {"time": 3450, "annotation": {"number": 64, "value": 127}, "group": "control_change"}, {"time": 3490, "annotation": {"number": 64, "value": 71}, "group": "control_change"}, {"time": 3491, "annotation": {"number": 64, "value": 0}, "group": "control_change"}, {"time": 3497, "annotation": {"number": 64, "value": 71}, "group": "control_change"}, {"time": 3497, "annotation": {"number": 64, "value": 127}, "group": "control_change"}, {"time": 3509, "annotation": {"number": 64, "value": 71}, "group": "control_change"}, {"time": 3509, "annotation": {"number": 64, "value": 0}, "group": "control_change"}, {"time": 3514, "annotation": {"number": 64, "value": 71}, "group": "control_change"}, {"time": 3515, "annotation": {"number": 64, "value": 127}, "group": "control_change"}, {"time": 3539, "annotation": {"number": 64, "value": 71}, "group": "control_change"}, {"time": 3539, "annotation": {"number": 64, "value": 0}, "group": "control_change"}, {"time": 3563, "annotation": {"number": 64, "value": 0}, "group": "control_change"}, {"time": 3591, "annotation": {"number": 64, "value": 127}, "group": "control_change"}, {"time": 3634, "annotation": {"number": 64, "value": 127}, "group": "control_change"}, {"time": 3681, "annotation": {"number": 64, "value": 0}, "group": "control_change"}, {"time": 3695, "annotation": {"number": 64, "value": 127}, "group": "control_change"}, {"time": 3730, "annotation": {"number": 64, "value": 0}, "group": "control_change"}, {"time": 3884, "annotation": {"number": 64, "value": 71}, "group": "control_change"}, {"time": 3885, "annotation": {"number": 64, "value": 127}, "group": "control_change"}, {"time": 3922, "annotation": {"number": 64, "value": 71}, "group": "control_change"}, {"time": 3924, "annotation": {"number": 64, "value": 0}, "group": "control_change"}, {"time": 3931, "annotation": {"number": 64, "value": 71}, "group": "control_change"}, {"time": 3932, "annotation": {"number": 64, "value": 127}, "group": "control_change"}, {"time": 3972, "annotation": {"number": 64, "value": 71}, "group": "control_change"}, {"time": 3973, "annotation": {"number": 64, "value": 0}, "group": "control_change"}, {"time": 3978, "annotation": {"number": 64, "value": 71}, "group": "control_change"}, {"time": 3980, "annotation": {"number": 64, "value": 127}, "group": "control_change"}, {"time": 4018, "annotation": {"number": 64, "value": 71}, "group": "control_change"}, {"time": 4020, "annotation": {"number": 64, "value": 0}, "group": "control_change"}, {"time": 4027, "annotation": {"number": 64, "value": 71}, "group": "control_change"}, {"time": 4028, "annotation": {"number": 64, "value": 127}, "group": "control_change"}, {"time": 4067, "annotation": {"number": 64, "value": 71}, "group": "control_change"}, {"time": 4068, "annotation": {"number": 64, "value": 0}, "group": "control_change"}, {"time": 4075, "annotation": {"number": 64, "value": 71}, "group": "control_change"}, {"time": 4076, "annotation": {"number": 64, "value": 127}, "group": "control_change"}, {"time": 4115, "annotation": {"number": 64, "value": 71}, "group": "control_change"}, {"time": 4116, "annotation": {"number": 64, "value": 0}, "group": "control_change"}, {"time": 4126, "annotation": {"number": 64, "value": 71}, "group": "control_change"}, {"time": 4127, "annotation": {"number": 64, "value": 127}, "group": "control_change"}, {"time": 4161, "annotation": {"number": 64, "value": 0}, "group": "control_change"}, {"time": 4161, "annotation": {"number": 64, "value": 71}, "group": "control_change"}, {"time": 4163, "annotation": {"number": 64, "value": 0}, "group": "control_change"}, {"time": 4172, "annotation": {"number": 64, "value": 71}, "group": "control_change"}, {"time": 4173, "annotation": {"number": 64, "value": 127}, "group": "control_change"}, {"time": 4212, "annotation": {"number": 64, "value": 71}, "group": "control_change"}, {"time": 4213, "annotation": {"number": 64, "value": 0}, "group": "control_change"}, {"time": 4219, "annotation": {"number": 64, "value": 71}, "group": "control_change"}, {"time": 4221, "annotation": {"number": 64, "value": 127}, "group": "control_change"}, {"time": 4260, "annotation": {"number": 64, "value": 71}, "group": "control_change"}, {"time": 4261, "annotation": {"number": 64, "value": 0}, "group": "control_change"}, {"time": 4270, "annotation": {"number": 64, "value": 71}, "group": "control_change"}, {"time": 4271, "annotation": {"number": 64, "value": 127}, "group": "control_change"}, {"time": 4307, "annotation": {"number": 64, "value": 71}, "group": "control_change"}, {"time": 4309, "annotation": {"number": 64, "value": 0}, "group": "control_change"}, {"time": 4316, "annotation": {"number": 64, "value": 71}, "group": "control_change"}, {"time": 4317, "annotation": {"number": 64, "value": 127}, "group": "control_change"}, {"time": 4354, "annotation": {"number": 64, "value": 71}, "group": "control_change"}, {"time": 4356, "annotation": {"number": 64, "value": 0}, "group": "control_change"}, {"time": 4364, "annotation": {"number": 64, "value": 71}, "group": "control_change"}, {"time": 4365, "annotation": {"number": 64, "value": 127}, "group": "control_change"}, {"time": 4403, "annotation": {"number": 64, "value": 71}, "group": "control_change"}, {"time": 4404, "annotation": {"number": 64, "value": 0}, "group": "control_change"}, {"time": 4408, "annotation": {"number": 64, "value": 71}, "group": "control_change"}, {"time": 4410, "annotation": {"number": 64, "value": 127}, "group": "control_change"}, {"time": 4451, "annotation": {"number": 64, "value": 71}, "group": "control_change"}, {"time": 4452, "annotation": {"number": 64, "value": 0}, "group": "control_change"}, {"time": 4460, "annotation": {"number": 64, "value": 71}, "group": "control_change"}, {"time": 4461, "annotation": {"number": 64, "value": 127}, "group": "control_change"}, {"time": 4498, "annotation": {"number": 64, "value": 71}, "group": "control_change"}, {"time": 4499, "annotation": {"number": 64, "value": 0}, "group": "control_change"}, {"time": 4506, "annotation": {"number": 64, "value": 71}, "group": "control_change"}, {"time": 4507, "annotation": {"number": 64, "value": 127}, "group": "control_change"}, {"time": 4546, "annotation": {"number": 64, "value": 71}, "group": "control_change"}, {"time": 4546, "annotation": {"number": 64, "value": 0}, "group": "control_change"}, {"time": 4553, "annotation": {"number": 64, "value": 71}, "group": "control_change"}, {"time": 4554, "annotation": {"number": 64, "value": 127}, "group": "control_change"}, {"time": 4594, "annotation": {"number": 64, "value": 71}, "group": "control_change"}, {"time": 4595, "annotation": {"number": 64, "value": 0}, "group": "control_change"}, {"time": 4599, "annotation": {"number": 64, "value": 71}, "group": "control_change"}, {"time": 4600, "annotation": {"number": 64, "value": 127}, "group": "control_change"}, {"time": 4629, "annotation": {"number": 64, "value": 71}, "group": "control_change"}, {"time": 4630, "annotation": {"number": 64, "value": 0}, "group": "control_change"}, {"time": 4633, "annotation": {"number": 64, "value": 71}, "group": "control_change"}, {"time": 4634, "annotation": {"number": 64, "value": 127}, "group": "control_change"}, {"time": 4643, "annotation": {"number": 64, "value": 71}, "group": "control_change"}, {"time": 4644, "annotation": {"number": 64, "value": 0}, "group": "control_change"}, {"time": 4646, "annotation": {"number": 64, "value": 0}, "group": "control_change"}, {"time": 4654, "annotation": {"number": 64, "value": 71}, "group": "control_change"}, {"time": 4655, "annotation": {"number": 64, "value": 127}, "group": "control_change"}, {"time": 4691, "annotation": {"number": 64, "value": 71}, "group": "control_change"}, {"time": 4693, "annotation": {"number": 64, "value": 0}, "group": "control_change"}, {"time": 4697, "annotation": {"number": 64, "value": 71}, "group": "control_change"}, {"time": 4698, "annotation": {"number": 64, "value": 127}, "group": "control_change"}, {"time": 4739, "annotation": {"number": 64, "value": 71}, "group": "control_change"}, {"time": 4740, "annotation": {"number": 64, "value": 0}, "group": "control_change"}, {"time": 4744, "annotation": {"number": 64, "value": 71}, "group": "control_change"}, {"time": 4746, "annotation": {"number": 64, "value": 127}, "group": "control_change"}, {"time": 4787, "annotation": {"number": 64, "value": 71}, "group": "control_change"}, {"time": 4788, "annotation": {"number": 64, "value": 0}, "group": "control_change"}, {"time": 4792, "annotation": {"number": 64, "value": 71}, "group": "control_change"}, {"time": 4793, "annotation": {"number": 64, "value": 127}, "group": "control_change"}, {"time": 4835, "annotation": {"number": 64, "value": 71}, "group": "control_change"}, {"time": 4836, "annotation": {"number": 64, "value": 0}, "group": "control_change"}, {"time": 4846, "annotation": {"number": 64, "value": 71}, "group": "control_change"}, {"time": 4846, "annotation": {"number": 64, "value": 127}, "group": "control_change"}, {"time": 4885, "annotation": {"number": 64, "value": 71}, "group": "control_change"}, {"time": 4885, "annotation": {"number": 64, "value": 0}, "group": "control_change"}, {"time": 4889, "annotation": {"number": 64, "value": 71}, "group": "control_change"}, {"time": 4889, "annotation": {"number": 64, "value": 127}, "group": "control_change"}, {"time": 4933, "annotation": {"number": 64, "value": 71}, "group": "control_change"}, {"time": 4933, "annotation": {"number": 64, "value": 0}, "group": "control_change"}, {"time": 4939, "annotation": {"number": 64, "value": 71}, "group": "control_change"}, {"time": 4940, "annotation": {"number": 64, "value": 127}, "group": "control_change"}, {"time": 4980, "annotation": {"number": 64, "value": 71}, "group": "control_change"}, {"time": 4981, "annotation": {"number": 64, "value": 0}, "group": "control_change"}, {"time": 4984, "annotation": {"number": 64, "value": 71}, "group": "control_change"}, {"time": 4984, "annotation": {"number": 64, "value": 127}, "group": "control_change"}, {"time": 5028, "annotation": {"number": 64, "value": 71}, "group": "control_change"}, {"time": 5028, "annotation": {"number": 64, "value": 0}, "group": "control_change"}, {"time": 5032, "annotation": {"number": 64, "value": 71}, "group": "control_change"}, {"time": 5033, "annotation": {"number": 64, "value": 127}, "group": "control_change"}, {"time": 5076, "annotation": {"number": 64, "value": 71}, "group": "control_change"}, {"time": 5077, "annotation": {"number": 64, "value": 0}, "group": "control_change"}, {"time": 5080, "annotation": {"number": 64, "value": 71}, "group": "control_change"}, {"time": 5081, "annotation": {"number": 64, "value": 127}, "group": "control_change"}, {"time": 5124, "annotation": {"number": 64, "value": 71}, "group": "control_change"}, {"time": 5125, "annotation": {"number": 64, "value": 0}, "group": "control_change"}, {"time": 5130, "annotation": {"number": 64, "value": 71}, "group": "control_change"}, {"time": 5131, "annotation": {"number": 64, "value": 127}, "group": "control_change"}, {"time": 5173, "annotation": {"number": 64, "value": 71}, "group": "control_change"}, {"time": 5174, "annotation": {"number": 64, "value": 0}, "group": "control_change"}, {"time": 5178, "annotation": {"number": 64, "value": 71}, "group": "control_change"}, {"time": 5179, "annotation": {"number": 64, "value": 127}, "group": "control_change"}, {"time": 5216, "annotation": {"number": 64, "value": 0}, "group": "control_change"}, {"time": 5218, "annotation": {"number": 64, "value": 0}, "group": "control_change"}, {"time": 5223, "annotation": {"number": 64, "value": 127}, "group": "control_change"}, {"time": 5226, "annotation": {"number": 64, "value": 0}, "group": "control_change"}, {"time": 5227, "annotation": {"number": 64, "value": 127}, "group": "control_change"}, {"time": 5235, "annotation": {"number": 64, "value": 0}, "group": "control_change"}, {"time": 5237, "annotation": {"number": 64, "value": 127}, "group": "control_change"}, {"time": 5265, "annotation": {"number": 64, "value": 0}, "group": "control_change"}, {"time": 5273, "annotation": {"number": 64, "value": 127}, "group": "control_change"}, {"time": 5291, "annotation": {"number": 64, "value": 0}, "group": "control_change"}, {"time": 5297, "annotation": {"number": 64, "value": 127}, "group": "control_change"}, {"time": 5360, "annotation": {"number": 64, "value": 0}, "group": "control_change"}, {"time": 5368, "annotation": {"number": 64, "value": 127}, "group": "control_change"}, {"time": 5408, "annotation": {"number": 64, "value": 0}, "group": "control_change"}, {"time": 5413, "annotation": {"number": 64, "value": 127}, "group": "control_change"}, {"time": 5460, "annotation": {"number": 64, "value": 0}, "group": "control_change"}, {"time": 5466, "annotation": {"number": 64, "value": 127}, "group": "control_change"}, {"time": 5508, "annotation": {"number": 64, "value": 0}, "group": "control_change"}, {"time": 5513, "annotation": {"number": 64, "value": 127}, "group": "control_change"}, {"time": 5554, "annotation": {"number": 64, "value": 0}, "group": "control_change"}, {"time": 5560, "annotation": {"number": 64, "value": 127}, "group": "control_change"}, {"time": 5602, "annotation": {"number": 64, "value": 0}, "group": "control_change"}, {"time": 5604, "annotation": {"number": 64, "value": 127}, "group": "control_change"}, {"time": 5647, "annotation": {"number": 64, "value": 0}, "group": "control_change"}, {"time": 5653, "annotation": {"number": 64, "value": 127}, "group": "control_change"}, {"time": 5656, "annotation": {"number": 64, "value": 0}, "group": "control_change"}, {"time": 5660, "annotation": {"number": 64, "value": 127}, "group": "control_change"}, {"time": 5695, "annotation": {"number": 64, "value": 0}, "group": "control_change"}, {"time": 5700, "annotation": {"number": 64, "value": 127}, "group": "control_change"}, {"time": 5745, "annotation": {"number": 64, "value": 0}, "group": "control_change"}, {"time": 5750, "annotation": {"number": 64, "value": 127}, "group": "control_change"}, {"time": 5791, "annotation": {"number": 64, "value": 0}, "group": "control_change"}, {"time": 5797, "annotation": {"number": 64, "value": 127}, "group": "control_change"}, {"time": 5842, "annotation": {"number": 64, "value": 0}, "group": "control_change"}, {"time": 5850, "annotation": {"number": 64, "value": 127}, "group": "control_change"}, {"time": 5892, "annotation": {"number": 64, "value": 0}, "group": "control_change"}, {"time": 5894, "annotation": {"number": 64, "value": 127}, "group": "control_change"}, {"time": 5914, "annotation": {"number": 64, "value": 0}, "group": "control_change"}, {"time": 5924, "annotation": {"number": 64, "value": 127}, "group": "control_change"}, {"time": 5938, "annotation": {"number": 64, "value": 0}, "group": "control_change"}, {"time": 5942, "annotation": {"number": 64, "value": 127}, "group": "control_change"}, {"time": 5984, "annotation": {"number": 64, "value": 0}, "group": "control_change"}, {"time": 5997, "annotation": {"number": 64, "value": 127}, "group": "control_change"}, {"time": 6030, "annotation": {"number": 64, "value": 0}, "group": "control_change"}, {"time": 6084, "annotation": {"number": 64, "value": 127}, "group": "control_change"}, {"time": 6132, "annotation": {"number": 64, "value": 0}, "group": "control_change"}, {"time": 6138, "annotation": {"number": 64, "value": 127}, "group": "control_change"}, {"time": 6179, "annotation": {"number": 64, "value": 0}, "group": "control_change"}, {"time": 6185, "annotation": {"number": 64, "value": 127}, "group": "control_change"}, {"time": 6224, "annotation": {"number": 64, "value": 0}, "group": "control_change"}, {"time": 6226, "annotation": {"number": 64, "value": 127}, "group": "control_change"}, {"time": 6229, "annotation": {"number": 64, "value": 127}, "group": "control_change"}, {"time": 6230, "annotation": {"number": 64, "value": 0}, "group": "control_change"}, {"time": 6273, "annotation": {"number": 64, "value": 0}, "group": "control_change"}, {"time": 6280, "annotation": {"number": 64, "value": 127}, "group": "control_change"}, {"time": 6323, "annotation": {"number": 64, "value": 0}, "group": "control_change"}, {"time": 6324, "annotation": {"number": 64, "value": 127}, "group": "control_change"}, {"time": 6330, "annotation": {"number": 64, "value": 127}, "group": "control_change"}, {"time": 6338, "annotation": {"number": 64, "value": 0}, "group": "control_change"}, {"time": 6352, "annotation": {"number": 64, "value": 0}, "group": "control_change"}, {"time": 6375, "annotation": {"number": 64, "value": 127}, "group": "control_change"}, {"time": 6415, "annotation": {"number": 64, "value": 0}, "group": "control_change"}, {"time": 6420, "annotation": {"number": 64, "value": 127}, "group": "control_change"}, {"time": 6466, "annotation": {"number": 64, "value": 0}, "group": "control_change"}, {"time": 6482, "annotation": {"number": 64, "value": 127}, "group": "control_change"}, {"time": 6575, "annotation": {"number": 64, "value": 0}, "group": "control_change"}]}]}