{"metadata": {"schema_version": "0.2", "title": "None", "source_filename": "209.mid", "source_format": "midi"}, "resolution": 12, "tempos": [{"time": 0, "qpm": 135.000135000135}, {"time": 192, "qpm": 128.0}, {"time": 240, "qpm": 135.000135000135}, {"time": 972, "qpm": 143.000143000143}, {"time": 996, "qpm": 140.99997180000565}, {"time": 1008, "qpm": 135.000135000135}, {"time": 1020, "qpm": 129.00035475097556}, {"time": 1032, "qpm": 135.000135000135}, {"time": 1152, "qpm": 140.00014000014}, {"time": 1200, "qpm": 135.000135000135}, {"time": 1260, "qpm": 134.00005806669182}, {"time": 1296, "qpm": 135.000135000135}, {"time": 1476, "qpm": 138.9998957500782}, {"time": 1500, "qpm": 135.000135000135}, {"time": 1728, "qpm": 105.99995053335641}, {"time": 1776, "qpm": 135.000135000135}, {"time": 1968, "qpm": 138.9998957500782}, {"time": 2016, "qpm": 135.000135000135}, {"time": 2592, "qpm": 142.0004070678336}, {"time": 2640, "qpm": 130.00041166797027}, {"time": 2688, "qpm": 137.00037675103607}, {"time": 2736, "qpm": 135.000135000135}, {"time": 3120, "qpm": 143.99988480009216}, {"time": 3144, "qpm": 145.00003625000906}, {"time": 3168, "qpm": 126.99998518333506}, {"time": 3192, "qpm": 138.00019320027047}, {"time": 3264, "qpm": 135.000135000135}, {"time": 3288, "qpm": 130.00041166797027}, {"time": 3324, "qpm": 140.99997180000565}, {"time": 3360, "qpm": 130.00041166797027}, {"time": 3408, "qpm": 135.000135000135}, {"time": 3456, "qpm": 136.00045333484445}, {"time": 3504, "qpm": 138.9998957500782}, {"time": 3600, "qpm": 130.00041166797027}, {"time": 3648, "qpm": 136.00045333484445}, {"time": 3696, "qpm": 133.00024161710562}, {"time": 3792, "qpm": 140.99997180000565}, {"time": 3840, "qpm": 135.000135000135}, {"time": 3888, "qpm": 133.00024161710562}, {"time": 3936, "qpm": 137.00037675103607}, {"time": 4032, "qpm": 133.00024161710562}, {"time": 4080, "qpm": 140.00014000014}, {"time": 4128, "qpm": 135.000135000135}, {"time": 4176, "qpm": 136.00045333484445}, {"time": 4272, "qpm": 132.000132000132}, {"time": 4320, "qpm": 136.00045333484445}, {"time": 4692, "qpm": 134.00005806669182}, {"time": 4752, "qpm": 136.00045333484445}, {"time": 4896, "qpm": 131.00007641671124}, {"time": 4944, "qpm": 136.00045333484445}, {"time": 5256, "qpm": 134.00005806669182}, {"time": 5328, "qpm": 136.00045333484445}, {"time": 5472, "qpm": 135.000135000135}, {"time": 5520, "qpm": 136.00045333484445}, {"time": 5640, "qpm": 134.00005806669182}, {"time": 5664, "qpm": 136.00045333484445}, {"time": 5880, "qpm": 132.000132000132}, {"time": 5904, "qpm": 136.00045333484445}, {"time": 5940, "qpm": 131.00007641671124}, {"time": 5976, "qpm": 136.00045333484445}, {"time": 6216, "qpm": 132.000132000132}, {"time": 6240, "qpm": 136.00045333484445}, {"time": 6480, "qpm": 132.000132000132}, {"time": 6528, "qpm": 136.00045333484445}, {"time": 6672, "qpm": 133.00024161710562}, {"time": 6768, "qpm": 129.00035475097556}, {"time": 6816, "qpm": 136.00045333484445}, {"time": 6912, "qpm": 131.00007641671124}, {"time": 6960, "qpm": 136.00045333484445}, {"time": 7056, "qpm": 129.00035475097556}, {"time": 7104, "qpm": 136.00045333484445}, {"time": 7152, "qpm": 130.00041166797027}, {"time": 7200, "qpm": 136.00045333484445}], "time_signatures": [{"time": 0, "numerator": 4, "denominator": 4}], "tracks": [{"program": 4, "is_drum": false, "name": "MELODY", "notes": [{"time": 981, "pitch": 72, "duration": 12, "velocity": 48}, {"time": 993, "pitch": 72, "duration": 12, "velocity": 53}, {"time": 1005, "pitch": 74, "duration": 12, "velocity": 61}, {"time": 1017, "pitch": 72, "duration": 48, "velocity": 60}, {"time": 1065, "pitch": 77, "duration": 13, "velocity": 69}, {"time": 1077, "pitch": 76, "duration": 12, "velocity": 65}, {"time": 1089, "pitch": 74, "duration": 12, "velocity": 59}, {"time": 1101, "pitch": 72, "duration": 72, "velocity": 56}, {"time": 1173, "pitch": 69, "duration": 12, "velocity": 72}, {"time": 1185, "pitch": 69, "duration": 12, "velocity": 81}, {"time": 1197, "pitch": 67, "duration": 13, "velocity": 65}, {"time": 1209, "pitch": 69, "duration": 39, "velocity": 72}, {"time": 1248, "pitch": 74, "duration": 15, "velocity": 82}, {"time": 1257, "pitch": 69, "duration": 13, "velocity": 64}, {"time": 1269, "pitch": 67, "duration": 13, "velocity": 51}, {"time": 1281, "pitch": 69, "duration": 84, "velocity": 52}, {"time": 1365, "pitch": 70, "duration": 12, "velocity": 89}, {"time": 1377, "pitch": 70, "duration": 13, "velocity": 84}, {"time": 1389, "pitch": 69, "duration": 12, "velocity": 79}, {"time": 1401, "pitch": 72, "duration": 13, "velocity": 87}, {"time": 1413, "pitch": 70, "duration": 48, "velocity": 75}, {"time": 1461, "pitch": 81, "duration": 12, "velocity": 92}, {"time": 1473, "pitch": 81, "duration": 12, "velocity": 91}, {"time": 1485, "pitch": 79, "duration": 12, "velocity": 89}, {"time": 1497, "pitch": 79, "duration": 12, "velocity": 82}, {"time": 1509, "pitch": 77, "duration": 36, "velocity": 79}, {"time": 1545, "pitch": 81, "duration": 12, "velocity": 105}, {"time": 1557, "pitch": 74, "duration": 54, "velocity": 93}, {"time": 1611, "pitch": 74, "duration": 12, "velocity": 76}, {"time": 1623, "pitch": 77, "duration": 11, "velocity": 82}, {"time": 1632, "pitch": 79, "duration": 9, "velocity": 84}, {"time": 1641, "pitch": 74, "duration": 19, "velocity": 89}, {"time": 1656, "pitch": 72, "duration": 93, "velocity": 73}, {"time": 1749, "pitch": 72, "duration": 12, "velocity": 87}, {"time": 1761, "pitch": 72, "duration": 12, "velocity": 85}, {"time": 1773, "pitch": 74, "duration": 12, "velocity": 91}, {"time": 1785, "pitch": 72, "duration": 36, "velocity": 87}, {"time": 1821, "pitch": 77, "duration": 12, "velocity": 93}, {"time": 1833, "pitch": 76, "duration": 12, "velocity": 96}, {"time": 1845, "pitch": 74, "duration": 12, "velocity": 90}, {"time": 1857, "pitch": 72, "duration": 84, "velocity": 94}, {"time": 1941, "pitch": 69, "duration": 12, "velocity": 92}, {"time": 1953, "pitch": 69, "duration": 12, "velocity": 94}, {"time": 1965, "pitch": 67, "duration": 12, "velocity": 89}, {"time": 1977, "pitch": 69, "duration": 36, "velocity": 98}, {"time": 2013, "pitch": 74, "duration": 22, "velocity": 97}, {"time": 2034, "pitch": 69, "duration": 6, "velocity": 93}, {"time": 2040, "pitch": 67, "duration": 12, "velocity": 82}, {"time": 2052, "pitch": 69, "duration": 81, "velocity": 90}, {"time": 2133, "pitch": 70, "duration": 12, "velocity": 95}, {"time": 2145, "pitch": 70, "duration": 12, "velocity": 95}, {"time": 2157, "pitch": 69, "duration": 7, "velocity": 94}, {"time": 2163, "pitch": 72, "duration": 15, "velocity": 97}, {"time": 2178, "pitch": 70, "duration": 51, "velocity": 95}, {"time": 2229, "pitch": 81, "duration": 12, "velocity": 100}, {"time": 2241, "pitch": 81, "duration": 12, "velocity": 105}, {"time": 2253, "pitch": 79, "duration": 9, "velocity": 91}, {"time": 2262, "pitch": 79, "duration": 13, "velocity": 91}, {"time": 2274, "pitch": 77, "duration": 39, "velocity": 101}, {"time": 2313, "pitch": 81, "duration": 12, "velocity": 106}, {"time": 2325, "pitch": 74, "duration": 54, "velocity": 103}, {"time": 2379, "pitch": 74, "duration": 6, "velocity": 97}, {"time": 2385, "pitch": 81, "duration": 13, "velocity": 100}, {"time": 2397, "pitch": 79, "duration": 7, "velocity": 93}, {"time": 2403, "pitch": 77, "duration": 6, "velocity": 92}, {"time": 2409, "pitch": 81, "duration": 15, "velocity": 106}, {"time": 2424, "pitch": 79, "duration": 69, "velocity": 96}, {"time": 2493, "pitch": 72, "duration": 12, "velocity": 98}, {"time": 2505, "pitch": 81, "duration": 60, "velocity": 103}, {"time": 2565, "pitch": 82, "duration": 12, "velocity": 105}, {"time": 2577, "pitch": 81, "duration": 12, "velocity": 100}, {"time": 2589, "pitch": 72, "duration": 12, "velocity": 91}, {"time": 2601, "pitch": 79, "duration": 12, "velocity": 100}, {"time": 2613, "pitch": 79, "duration": 12, "velocity": 93}, {"time": 2625, "pitch": 79, "duration": 12, "velocity": 98}, {"time": 2637, "pitch": 81, "duration": 13, "velocity": 93}, {"time": 2649, "pitch": 79, "duration": 13, "velocity": 100}, {"time": 2661, "pitch": 74, "duration": 30, "velocity": 89}, {"time": 2691, "pitch": 74, "duration": 6, "velocity": 66}, {"time": 2697, "pitch": 82, "duration": 12, "velocity": 99}, {"time": 2709, "pitch": 82, "duration": 12, "velocity": 103}, {"time": 2721, "pitch": 82, "duration": 36, "velocity": 104}, {"time": 2757, "pitch": 86, "duration": 12, "velocity": 103}, {"time": 2769, "pitch": 84, "duration": 12, "velocity": 99}, {"time": 2781, "pitch": 82, "duration": 12, "velocity": 99}, {"time": 2793, "pitch": 82, "duration": 12, "velocity": 100}, {"time": 2805, "pitch": 81, "duration": 12, "velocity": 98}, {"time": 2817, "pitch": 81, "duration": 12, "velocity": 105}, {"time": 2829, "pitch": 79, "duration": 6, "velocity": 99}, {"time": 2835, "pitch": 81, "duration": 48, "velocity": 100}, {"time": 2883, "pitch": 77, "duration": 6, "velocity": 98}, {"time": 2889, "pitch": 84, "duration": 12, "velocity": 109}, {"time": 2901, "pitch": 84, "duration": 36, "velocity": 109}, {"time": 2937, "pitch": 81, "duration": 6, "velocity": 91}, {"time": 2943, "pitch": 82, "duration": 6, "velocity": 87}, {"time": 2949, "pitch": 84, "duration": 12, "velocity": 93}, {"time": 2961, "pitch": 84, "duration": 6, "velocity": 97}, {"time": 2967, "pitch": 82, "duration": 6, "velocity": 91}, {"time": 2973, "pitch": 81, "duration": 12, "velocity": 87}, {"time": 2985, "pitch": 82, "duration": 12, "velocity": 103}, {"time": 2997, "pitch": 82, "duration": 12, "velocity": 89}, {"time": 3009, "pitch": 82, "duration": 12, "velocity": 95}, {"time": 3021, "pitch": 74, "duration": 12, "velocity": 89}, {"time": 3033, "pitch": 77, "duration": 42, "velocity": 91}, {"time": 3075, "pitch": 72, "duration": 6, "velocity": 65}, {"time": 3081, "pitch": 81, "duration": 12, "velocity": 96}, {"time": 3090, "pitch": 79, "duration": 9, "velocity": 87}, {"time": 3099, "pitch": 77, "duration": 7, "velocity": 91}, {"time": 3105, "pitch": 81, "duration": 13, "velocity": 100}, {"time": 3114, "pitch": 79, "duration": 9, "velocity": 89}, {"time": 3123, "pitch": 77, "duration": 8, "velocity": 91}, {"time": 3129, "pitch": 81, "duration": 24, "velocity": 106}, {"time": 3153, "pitch": 86, "duration": 14, "velocity": 109}, {"time": 3165, "pitch": 81, "duration": 15, "velocity": 94}, {"time": 3177, "pitch": 79, "duration": 13, "velocity": 87}, {"time": 3190, "pitch": 77, "duration": 14, "velocity": 82}, {"time": 3204, "pitch": 79, "duration": 57, "velocity": 100}, {"time": 3261, "pitch": 72, "duration": 12, "velocity": 101}, {"time": 3273, "pitch": 81, "duration": 60, "velocity": 105}, {"time": 3333, "pitch": 82, "duration": 12, "velocity": 100}, {"time": 3345, "pitch": 81, "duration": 12, "velocity": 93}, {"time": 3357, "pitch": 72, "duration": 12, "velocity": 84}, {"time": 3369, "pitch": 79, "duration": 12, "velocity": 103}, {"time": 3381, "pitch": 79, "duration": 12, "velocity": 100}, {"time": 3393, "pitch": 79, "duration": 12, "velocity": 99}, {"time": 3405, "pitch": 81, "duration": 12, "velocity": 96}, {"time": 3417, "pitch": 79, "duration": 12, "velocity": 96}, {"time": 3429, "pitch": 81, "duration": 6, "velocity": 75}, {"time": 3435, "pitch": 79, "duration": 7, "velocity": 71}, {"time": 3440, "pitch": 77, "duration": 22, "velocity": 89}, {"time": 3459, "pitch": 74, "duration": 6, "velocity": 91}, {"time": 3465, "pitch": 82, "duration": 12, "velocity": 96}, {"time": 3477, "pitch": 82, "duration": 6, "velocity": 100}, {"time": 3483, "pitch": 82, "duration": 42, "velocity": 104}, {"time": 3525, "pitch": 86, "duration": 12, "velocity": 105}, {"time": 3537, "pitch": 84, "duration": 12, "velocity": 105}, {"time": 3549, "pitch": 82, "duration": 12, "velocity": 95}, {"time": 3561, "pitch": 82, "duration": 12, "velocity": 103}, {"time": 3573, "pitch": 81, "duration": 12, "velocity": 96}, {"time": 3585, "pitch": 81, "duration": 12, "velocity": 99}, {"time": 3597, "pitch": 79, "duration": 6, "velocity": 97}, {"time": 3603, "pitch": 81, "duration": 48, "velocity": 100}, {"time": 3651, "pitch": 77, "duration": 6, "velocity": 90}, {"time": 3657, "pitch": 84, "duration": 12, "velocity": 106}, {"time": 3669, "pitch": 84, "duration": 6, "velocity": 108}, {"time": 3675, "pitch": 84, "duration": 30, "velocity": 108}, {"time": 3705, "pitch": 81, "duration": 7, "velocity": 93}, {"time": 3711, "pitch": 82, "duration": 6, "velocity": 89}, {"time": 3717, "pitch": 84, "duration": 6, "velocity": 89}, {"time": 3723, "pitch": 84, "duration": 12, "velocity": 91}, {"time": 3735, "pitch": 82, "duration": 12, "velocity": 95}, {"time": 3747, "pitch": 81, "duration": 7, "velocity": 87}, {"time": 3753, "pitch": 82, "duration": 12, "velocity": 96}, {"time": 3765, "pitch": 82, "duration": 12, "velocity": 77}, {"time": 3777, "pitch": 82, "duration": 12, "velocity": 77}, {"time": 3789, "pitch": 74, "duration": 12, "velocity": 53}, {"time": 3801, "pitch": 77, "duration": 36, "velocity": 83}, {"time": 3837, "pitch": 72, "duration": 12, "velocity": 65}, {"time": 3849, "pitch": 81, "duration": 9, "velocity": 92}, {"time": 3856, "pitch": 79, "duration": 8, "velocity": 72}, {"time": 3864, "pitch": 77, "duration": 9, "velocity": 73}, {"time": 3873, "pitch": 81, "duration": 13, "velocity": 98}, {"time": 3882, "pitch": 79, "duration": 9, "velocity": 84}, {"time": 3891, "pitch": 77, "duration": 7, "velocity": 66}, {"time": 3897, "pitch": 79, "duration": 23, "velocity": 72}, {"time": 3915, "pitch": 79, "duration": 5, "velocity": 98}, {"time": 3927, "pitch": 77, "duration": 12, "velocity": 98}, {"time": 3939, "pitch": 76, "duration": 12, "velocity": 79}, {"time": 3951, "pitch": 77, "duration": 390, "velocity": 97}, {"time": 4341, "pitch": 72, "duration": 12, "velocity": 48}, {"time": 4353, "pitch": 72, "duration": 12, "velocity": 53}, {"time": 4365, "pitch": 74, "duration": 12, "velocity": 61}, {"time": 4377, "pitch": 72, "duration": 41, "velocity": 60}, {"time": 4413, "pitch": 77, "duration": 12, "velocity": 69}, {"time": 4425, "pitch": 76, "duration": 15, "velocity": 65}, {"time": 4440, "pitch": 74, "duration": 15, "velocity": 59}, {"time": 4455, "pitch": 72, "duration": 78, "velocity": 56}, {"time": 4533, "pitch": 69, "duration": 12, "velocity": 72}, {"time": 4545, "pitch": 69, "duration": 9, "velocity": 81}, {"time": 4551, "pitch": 67, "duration": 16, "velocity": 65}, {"time": 4563, "pitch": 69, "duration": 51, "velocity": 72}, {"time": 4614, "pitch": 74, "duration": 16, "velocity": 82}, {"time": 4626, "pitch": 69, "duration": 6, "velocity": 64}, {"time": 4632, "pitch": 67, "duration": 15, "velocity": 51}, {"time": 4647, "pitch": 69, "duration": 78, "velocity": 52}, {"time": 4725, "pitch": 70, "duration": 12, "velocity": 89}, {"time": 4737, "pitch": 70, "duration": 15, "velocity": 84}, {"time": 4752, "pitch": 69, "duration": 11, "velocity": 79}, {"time": 4761, "pitch": 72, "duration": 13, "velocity": 87}, {"time": 4773, "pitch": 70, "duration": 48, "velocity": 75}, {"time": 4821, "pitch": 81, "duration": 12, "velocity": 92}, {"time": 4833, "pitch": 81, "duration": 12, "velocity": 91}, {"time": 4845, "pitch": 79, "duration": 12, "velocity": 89}, {"time": 4857, "pitch": 79, "duration": 12, "velocity": 82}, {"time": 4869, "pitch": 77, "duration": 36, "velocity": 79}, {"time": 4905, "pitch": 81, "duration": 12, "velocity": 105}, {"time": 4917, "pitch": 74, "duration": 54, "velocity": 93}, {"time": 4971, "pitch": 74, "duration": 6, "velocity": 76}, {"time": 4977, "pitch": 81, "duration": 12, "velocity": 82}, {"time": 4989, "pitch": 79, "duration": 7, "velocity": 84}, {"time": 4995, "pitch": 77, "duration": 6, "velocity": 89}, {"time": 5001, "pitch": 81, "duration": 18, "velocity": 89}, {"time": 5019, "pitch": 79, "duration": 66, "velocity": 73}, {"time": 5085, "pitch": 72, "duration": 12, "velocity": 98}, {"time": 5097, "pitch": 81, "duration": 60, "velocity": 103}, {"time": 5157, "pitch": 82, "duration": 12, "velocity": 105}, {"time": 5169, "pitch": 81, "duration": 12, "velocity": 100}, {"time": 5181, "pitch": 72, "duration": 12, "velocity": 91}, {"time": 5193, "pitch": 79, "duration": 12, "velocity": 100}, {"time": 5205, "pitch": 79, "duration": 12, "velocity": 93}, {"time": 5217, "pitch": 79, "duration": 12, "velocity": 98}, {"time": 5229, "pitch": 81, "duration": 12, "velocity": 93}, {"time": 5241, "pitch": 79, "duration": 12, "velocity": 100}, {"time": 5253, "pitch": 74, "duration": 30, "velocity": 89}, {"time": 5283, "pitch": 74, "duration": 6, "velocity": 66}, {"time": 5289, "pitch": 82, "duration": 12, "velocity": 99}, {"time": 5301, "pitch": 82, "duration": 12, "velocity": 103}, {"time": 5313, "pitch": 82, "duration": 36, "velocity": 104}, {"time": 5349, "pitch": 86, "duration": 12, "velocity": 103}, {"time": 5361, "pitch": 84, "duration": 12, "velocity": 99}, {"time": 5373, "pitch": 82, "duration": 12, "velocity": 99}, {"time": 5385, "pitch": 82, "duration": 12, "velocity": 100}, {"time": 5397, "pitch": 81, "duration": 12, "velocity": 98}, {"time": 5409, "pitch": 81, "duration": 12, "velocity": 105}, {"time": 5421, "pitch": 79, "duration": 19, "velocity": 99}, {"time": 5433, "pitch": 81, "duration": 42, "velocity": 100}, {"time": 5475, "pitch": 77, "duration": 6, "velocity": 98}, {"time": 5481, "pitch": 84, "duration": 12, "velocity": 109}, {"time": 5493, "pitch": 84, "duration": 36, "velocity": 109}, {"time": 5529, "pitch": 81, "duration": 6, "velocity": 91}, {"time": 5535, "pitch": 82, "duration": 6, "velocity": 87}, {"time": 5541, "pitch": 84, "duration": 12, "velocity": 93}, {"time": 5553, "pitch": 84, "duration": 6, "velocity": 97}, {"time": 5559, "pitch": 82, "duration": 6, "velocity": 91}, {"time": 5565, "pitch": 81, "duration": 12, "velocity": 87}, {"time": 5577, "pitch": 82, "duration": 12, "velocity": 103}, {"time": 5589, "pitch": 82, "duration": 12, "velocity": 89}, {"time": 5601, "pitch": 82, "duration": 12, "velocity": 95}, {"time": 5613, "pitch": 74, "duration": 12, "velocity": 89}, {"time": 5625, "pitch": 77, "duration": 39, "velocity": 91}, {"time": 5664, "pitch": 72, "duration": 9, "velocity": 65}, {"time": 5673, "pitch": 81, "duration": 9, "velocity": 96}, {"time": 5682, "pitch": 79, "duration": 7, "velocity": 87}, {"time": 5688, "pitch": 77, "duration": 7, "velocity": 91}, {"time": 5697, "pitch": 81, "duration": 13, "velocity": 100}, {"time": 5706, "pitch": 79, "duration": 9, "velocity": 89}, {"time": 5712, "pitch": 77, "duration": 8, "velocity": 91}, {"time": 5721, "pitch": 81, "duration": 12, "velocity": 106}, {"time": 5742, "pitch": 86, "duration": 15, "velocity": 109}, {"time": 5757, "pitch": 79, "duration": 12, "velocity": 94}, {"time": 5769, "pitch": 79, "duration": 12, "velocity": 87}, {"time": 5781, "pitch": 77, "duration": 12, "velocity": 82}, {"time": 5793, "pitch": 79, "duration": 9, "velocity": 100}, {"time": 5802, "pitch": 77, "duration": 6, "velocity": 100}, {"time": 5808, "pitch": 79, "duration": 45, "velocity": 100}, {"time": 5853, "pitch": 72, "duration": 13, "velocity": 91}, {"time": 5865, "pitch": 81, "duration": 9, "velocity": 99}, {"time": 5874, "pitch": 79, "duration": 4, "velocity": 76}, {"time": 5877, "pitch": 81, "duration": 18, "velocity": 96}, {"time": 5895, "pitch": 79, "duration": 9, "velocity": 84}, {"time": 5901, "pitch": 77, "duration": 24, "velocity": 89}, {"time": 5925, "pitch": 82, "duration": 12, "velocity": 100}, {"time": 5937, "pitch": 81, "duration": 12, "velocity": 93}, {"time": 5949, "pitch": 72, "duration": 12, "velocity": 84}, {"time": 5961, "pitch": 79, "duration": 12, "velocity": 103}, {"time": 5973, "pitch": 79, "duration": 12, "velocity": 100}, {"time": 5985, "pitch": 79, "duration": 12, "velocity": 99}, {"time": 5997, "pitch": 81, "duration": 12, "velocity": 96}, {"time": 6009, "pitch": 79, "duration": 10, "velocity": 96}, {"time": 6018, "pitch": 81, "duration": 7, "velocity": 75}, {"time": 6021, "pitch": 79, "duration": 6, "velocity": 71}, {"time": 6027, "pitch": 77, "duration": 25, "velocity": 89}, {"time": 6051, "pitch": 74, "duration": 6, "velocity": 91}, {"time": 6057, "pitch": 82, "duration": 12, "velocity": 96}, {"time": 6069, "pitch": 82, "duration": 6, "velocity": 100}, {"time": 6075, "pitch": 82, "duration": 42, "velocity": 104}, {"time": 6117, "pitch": 86, "duration": 12, "velocity": 105}, {"time": 6129, "pitch": 84, "duration": 12, "velocity": 105}, {"time": 6141, "pitch": 82, "duration": 12, "velocity": 95}, {"time": 6153, "pitch": 82, "duration": 12, "velocity": 103}, {"time": 6165, "pitch": 81, "duration": 12, "velocity": 96}, {"time": 6177, "pitch": 81, "duration": 12, "velocity": 99}, {"time": 6189, "pitch": 79, "duration": 6, "velocity": 97}, {"time": 6195, "pitch": 81, "duration": 48, "velocity": 100}, {"time": 6243, "pitch": 77, "duration": 6, "velocity": 90}, {"time": 6249, "pitch": 84, "duration": 12, "velocity": 106}, {"time": 6261, "pitch": 84, "duration": 6, "velocity": 108}, {"time": 6267, "pitch": 84, "duration": 30, "velocity": 108}, {"time": 6297, "pitch": 81, "duration": 7, "velocity": 93}, {"time": 6303, "pitch": 82, "duration": 6, "velocity": 89}, {"time": 6309, "pitch": 84, "duration": 6, "velocity": 89}, {"time": 6315, "pitch": 84, "duration": 12, "velocity": 91}, {"time": 6327, "pitch": 82, "duration": 12, "velocity": 95}, {"time": 6339, "pitch": 81, "duration": 7, "velocity": 87}, {"time": 6345, "pitch": 82, "duration": 12, "velocity": 96}, {"time": 6357, "pitch": 82, "duration": 12, "velocity": 77}, {"time": 6369, "pitch": 82, "duration": 12, "velocity": 77}, {"time": 6381, "pitch": 74, "duration": 12, "velocity": 53}, {"time": 6393, "pitch": 77, "duration": 42, "velocity": 83}, {"time": 6435, "pitch": 72, "duration": 6, "velocity": 65}, {"time": 6441, "pitch": 81, "duration": 9, "velocity": 92}, {"time": 6450, "pitch": 79, "duration": 9, "velocity": 72}, {"time": 6459, "pitch": 77, "duration": 7, "velocity": 73}, {"time": 6465, "pitch": 81, "duration": 13, "velocity": 98}, {"time": 6477, "pitch": 79, "duration": 7, "velocity": 84}, {"time": 6483, "pitch": 77, "duration": 7, "velocity": 66}, {"time": 6489, "pitch": 79, "duration": 23, "velocity": 72}, {"time": 6507, "pitch": 79, "duration": 5, "velocity": 98}, {"time": 6519, "pitch": 77, "duration": 12, "velocity": 98}, {"time": 6531, "pitch": 76, "duration": 12, "velocity": 79}, {"time": 6543, "pitch": 77, "duration": 125, "velocity": 97}, {"time": 6633, "pitch": 81, "duration": 30, "velocity": 91}, {"time": 6663, "pitch": 79, "duration": 9, "velocity": 74}, {"time": 6669, "pitch": 77, "duration": 12, "velocity": 79}, {"time": 6681, "pitch": 77, "duration": 42, "velocity": 66}, {"time": 6723, "pitch": 72, "duration": 7, "velocity": 80}, {"time": 6729, "pitch": 81, "duration": 10, "velocity": 89}, {"time": 6738, "pitch": 79, "duration": 9, "velocity": 72}, {"time": 6747, "pitch": 77, "duration": 9, "velocity": 80}, {"time": 6756, "pitch": 81, "duration": 10, "velocity": 93}, {"time": 6765, "pitch": 79, "duration": 12, "velocity": 73}, {"time": 6777, "pitch": 77, "duration": 9, "velocity": 79}, {"time": 6786, "pitch": 79, "duration": 15, "velocity": 89}, {"time": 6801, "pitch": 79, "duration": 18, "velocity": 87}, {"time": 6819, "pitch": 77, "duration": 21, "velocity": 92}, {"time": 6840, "pitch": 74, "duration": 8, "velocity": 87}, {"time": 6846, "pitch": 72, "duration": 13, "velocity": 54}, {"time": 6855, "pitch": 74, "duration": 81, "velocity": 107}, {"time": 6936, "pitch": 67, "duration": 12, "velocity": 66}, {"time": 6948, "pitch": 69, "duration": 14, "velocity": 91}, {"time": 6960, "pitch": 72, "duration": 12, "velocity": 90}, {"time": 6972, "pitch": 81, "duration": 15, "velocity": 97}, {"time": 6987, "pitch": 79, "duration": 69, "velocity": 94}, {"time": 7056, "pitch": 77, "duration": 12, "velocity": 96}, {"time": 7068, "pitch": 77, "duration": 30, "velocity": 98}, {"time": 7098, "pitch": 76, "duration": 18, "velocity": 94}, {"time": 7116, "pitch": 77, "duration": 132, "velocity": 101}], "annotations": [{"time": 1066, "annotation": {"number": 64, "value": 127}, "group": "control_change"}, {"time": 1080, "annotation": {"number": 64, "value": 0}, "group": "control_change"}, {"time": 1212, "annotation": {"number": 64, "value": 127}, "group": "control_change"}, {"time": 1225, "annotation": {"number": 64, "value": 0}, "group": "control_change"}, {"time": 1363, "annotation": {"number": 64, "value": 127}, "group": "control_change"}, {"time": 1384, "annotation": {"number": 64, "value": 127}, "group": "control_change"}, {"time": 1391, "annotation": {"number": 64, "value": 0}, "group": "control_change"}, {"time": 1608, "annotation": {"number": 64, "value": 127}, "group": "control_change"}, {"time": 1754, "annotation": {"number": 64, "value": 0}, "group": "control_change"}, {"time": 1818, "annotation": {"number": 64, "value": 127}, "group": "control_change"}, {"time": 1929, "annotation": {"number": 64, "value": 0}, "group": "control_change"}, {"time": 2012, "annotation": {"number": 64, "value": 127}, "group": "control_change"}, {"time": 2090, "annotation": {"number": 64, "value": 0}, "group": "control_change"}, {"time": 2313, "annotation": {"number": 64, "value": 127}, "group": "control_change"}, {"time": 2373, "annotation": {"number": 64, "value": 0}, "group": "control_change"}, {"time": 2882, "annotation": {"number": 64, "value": 127}, "group": "control_change"}, {"time": 4336, "annotation": {"number": 64, "value": 0}, "group": "control_change"}, {"time": 4416, "annotation": {"number": 64, "value": 127}, "group": "control_change"}, {"time": 4430, "annotation": {"number": 64, "value": 0}, "group": "control_change"}, {"time": 4573, "annotation": {"number": 64, "value": 127}, "group": "control_change"}, {"time": 4586, "annotation": {"number": 64, "value": 0}, "group": "control_change"}, {"time": 4745, "annotation": {"number": 64, "value": 127}, "group": "control_change"}, {"time": 4751, "annotation": {"number": 64, "value": 0}, "group": "control_change"}]}, {"program": 0, "is_drum": false, "name": "PIANO", "notes": [{"time": 201, "pitch": 53, "duration": 22, "velocity": 56}, {"time": 213, "pitch": 60, "duration": 10, "velocity": 44}, {"time": 225, "pitch": 65, "duration": 15, "velocity": 44}, {"time": 237, "pitch": 67, "duration": 31, "velocity": 43}, {"time": 249, "pitch": 69, "duration": 18, "velocity": 48}, {"time": 285, "pitch": 69, "duration": 8, "velocity": 48}, {"time": 291, "pitch": 70, "duration": 5, "velocity": 55}, {"time": 297, "pitch": 53, "duration": 74, "velocity": 63}, {"time": 297, "pitch": 72, "duration": 14, "velocity": 63}, {"time": 309, "pitch": 58, "duration": 22, "velocity": 48}, {"time": 321, "pitch": 60, "duration": 57, "velocity": 44}, {"time": 321, "pitch": 69, "duration": 10, "velocity": 56}, {"time": 333, "pitch": 65, "duration": 25, "velocity": 55}, {"time": 333, "pitch": 72, "duration": 40, "velocity": 62}, {"time": 333, "pitch": 77, "duration": 48, "velocity": 73}, {"time": 369, "pitch": 65, "duration": 12, "velocity": 29}, {"time": 375, "pitch": 70, "duration": 5, "velocity": 48}, {"time": 381, "pitch": 72, "duration": 6, "velocity": 44}, {"time": 387, "pitch": 77, "duration": 8, "velocity": 63}, {"time": 393, "pitch": 53, "duration": 74, "velocity": 58}, {"time": 393, "pitch": 69, "duration": 12, "velocity": 47}, {"time": 393, "pitch": 72, "duration": 11, "velocity": 51}, {"time": 405, "pitch": 60, "duration": 15, "velocity": 40}, {"time": 417, "pitch": 65, "duration": 13, "velocity": 39}, {"time": 429, "pitch": 60, "duration": 41, "velocity": 42}, {"time": 441, "pitch": 65, "duration": 27, "velocity": 45}, {"time": 489, "pitch": 53, "duration": 79, "velocity": 60}, {"time": 501, "pitch": 58, "duration": 69, "velocity": 58}, {"time": 513, "pitch": 62, "duration": 55, "velocity": 32}, {"time": 513, "pitch": 70, "duration": 9, "velocity": 44}, {"time": 525, "pitch": 65, "duration": 41, "velocity": 51}, {"time": 525, "pitch": 72, "duration": 34, "velocity": 60}, {"time": 525, "pitch": 77, "duration": 36, "velocity": 67}, {"time": 561, "pitch": 76, "duration": 11, "velocity": 63}, {"time": 573, "pitch": 77, "duration": 5, "velocity": 46}, {"time": 576, "pitch": 74, "duration": 4, "velocity": 39}, {"time": 585, "pitch": 43, "duration": 37, "velocity": 66}, {"time": 585, "pitch": 58, "duration": 24, "velocity": 72}, {"time": 585, "pitch": 62, "duration": 21, "velocity": 70}, {"time": 585, "pitch": 65, "duration": 23, "velocity": 58}, {"time": 597, "pitch": 50, "duration": 25, "velocity": 38}, {"time": 609, "pitch": 55, "duration": 14, "velocity": 60}, {"time": 621, "pitch": 58, "duration": 7, "velocity": 93}, {"time": 633, "pitch": 48, "duration": 25, "velocity": 66}, {"time": 633, "pitch": 60, "duration": 21, "velocity": 75}, {"time": 633, "pitch": 65, "duration": 20, "velocity": 75}, {"time": 657, "pitch": 46, "duration": 16, "velocity": 64}, {"time": 657, "pitch": 58, "duration": 14, "velocity": 70}, {"time": 657, "pitch": 62, "duration": 16, "velocity": 69}, {"time": 681, "pitch": 45, "duration": 34, "velocity": 75}, {"time": 681, "pitch": 55, "duration": 11, "velocity": 61}, {"time": 681, "pitch": 60, "duration": 17, "velocity": 75}, {"time": 681, "pitch": 64, "duration": 18, "velocity": 75}, {"time": 693, "pitch": 52, "duration": 24, "velocity": 46}, {"time": 705, "pitch": 57, "duration": 21, "velocity": 48}, {"time": 717, "pitch": 62, "duration": 8, "velocity": 75}, {"time": 729, "pitch": 50, "duration": 34, "velocity": 66}, {"time": 729, "pitch": 62, "duration": 3, "velocity": 46}, {"time": 729, "pitch": 65, "duration": 12, "velocity": 75}, {"time": 741, "pitch": 57, "duration": 23, "velocity": 45}, {"time": 753, "pitch": 62, "duration": 9, "velocity": 51}, {"time": 753, "pitch": 67, "duration": 13, "velocity": 73}, {"time": 765, "pitch": 69, "duration": 4, "velocity": 72}, {"time": 777, "pitch": 43, "duration": 85, "velocity": 88}, {"time": 777, "pitch": 70, "duration": 58, "velocity": 88}, {"time": 789, "pitch": 50, "duration": 44, "velocity": 70}, {"time": 798, "pitch": 55, "duration": 62, "velocity": 69}, {"time": 810, "pitch": 58, "duration": 39, "velocity": 73}, {"time": 810, "pitch": 62, "duration": 38, "velocity": 82}, {"time": 810, "pitch": 65, "duration": 45, "velocity": 70}, {"time": 849, "pitch": 50, "duration": 20, "velocity": 44}, {"time": 849, "pitch": 69, "duration": 14, "velocity": 50}, {"time": 855, "pitch": 70, "duration": 8, "velocity": 69}, {"time": 861, "pitch": 64, "duration": 7, "velocity": 61}, {"time": 861, "pitch": 74, "duration": 6, "velocity": 66}, {"time": 867, "pitch": 65, "duration": 25, "velocity": 62}, {"time": 867, "pitch": 77, "duration": 7, "velocity": 66}, {"time": 873, "pitch": 43, "duration": 82, "velocity": 70}, {"time": 873, "pitch": 77, "duration": 1, "velocity": 62}, {"time": 885, "pitch": 50, "duration": 70, "velocity": 61}, {"time": 897, "pitch": 55, "duration": 28, "velocity": 62}, {"time": 906, "pitch": 58, "duration": 42, "velocity": 80}, {"time": 906, "pitch": 62, "duration": 47, "velocity": 59}, {"time": 906, "pitch": 65, "duration": 49, "velocity": 53}, {"time": 969, "pitch": 53, "duration": 79, "velocity": 52}, {"time": 969, "pitch": 69, "duration": 22, "velocity": 54}, {"time": 969, "pitch": 77, "duration": 28, "velocity": 64}, {"time": 981, "pitch": 60, "duration": 67, "velocity": 49}, {"time": 993, "pitch": 65, "duration": 20, "velocity": 52}, {"time": 1005, "pitch": 72, "duration": 23, "velocity": 63}, {"time": 1026, "pitch": 65, "duration": 18, "velocity": 33}, {"time": 1041, "pitch": 69, "duration": 9, "velocity": 55}, {"time": 1041, "pitch": 77, "duration": 17, "velocity": 75}, {"time": 1053, "pitch": 76, "duration": 11, "velocity": 67}, {"time": 1065, "pitch": 45, "duration": 82, "velocity": 70}, {"time": 1065, "pitch": 67, "duration": 13, "velocity": 66}, {"time": 1065, "pitch": 72, "duration": 13, "velocity": 69}, {"time": 1077, "pitch": 52, "duration": 71, "velocity": 52}, {"time": 1089, "pitch": 57, "duration": 23, "velocity": 45}, {"time": 1101, "pitch": 72, "duration": 25, "velocity": 55}, {"time": 1107, "pitch": 64, "duration": 18, "velocity": 28}, {"time": 1125, "pitch": 57, "duration": 22, "velocity": 34}, {"time": 1137, "pitch": 64, "duration": 10, "velocity": 64}, {"time": 1149, "pitch": 67, "duration": 11, "velocity": 61}, {"time": 1161, "pitch": 50, "duration": 35, "velocity": 69}, {"time": 1161, "pitch": 60, "duration": 14, "velocity": 67}, {"time": 1161, "pitch": 65, "duration": 14, "velocity": 69}, {"time": 1161, "pitch": 69, "duration": 13, "velocity": 67}, {"time": 1173, "pitch": 57, "duration": 25, "velocity": 46}, {"time": 1185, "pitch": 60, "duration": 11, "velocity": 72}, {"time": 1197, "pitch": 69, "duration": 11, "velocity": 60}, {"time": 1209, "pitch": 48, "duration": 34, "velocity": 56}, {"time": 1209, "pitch": 60, "duration": 12, "velocity": 64}, {"time": 1209, "pitch": 64, "duration": 12, "velocity": 66}, {"time": 1209, "pitch": 67, "duration": 13, "velocity": 66}, {"time": 1218, "pitch": 57, "duration": 24, "velocity": 35}, {"time": 1233, "pitch": 60, "duration": 8, "velocity": 51}, {"time": 1245, "pitch": 67, "duration": 11, "velocity": 45}, {"time": 1257, "pitch": 47, "duration": 22, "velocity": 61}, {"time": 1257, "pitch": 62, "duration": 15, "velocity": 60}, {"time": 1257, "pitch": 65, "duration": 17, "velocity": 64}, {"time": 1269, "pitch": 53, "duration": 12, "velocity": 28}, {"time": 1281, "pitch": 59, "duration": 13, "velocity": 57}, {"time": 1293, "pitch": 62, "duration": 38, "velocity": 60}, {"time": 1305, "pitch": 65, "duration": 23, "velocity": 44}, {"time": 1317, "pitch": 71, "duration": 12, "velocity": 42}, {"time": 1329, "pitch": 74, "duration": 2, "velocity": 64}, {"time": 1353, "pitch": 43, "duration": 21, "velocity": 67}, {"time": 1353, "pitch": 62, "duration": 37, "velocity": 57}, {"time": 1353, "pitch": 65, "duration": 36, "velocity": 66}, {"time": 1353, "pitch": 70, "duration": 41, "velocity": 62}, {"time": 1365, "pitch": 50, "duration": 11, "velocity": 44}, {"time": 1377, "pitch": 55, "duration": 16, "velocity": 52}, {"time": 1389, "pitch": 57, "duration": 26, "velocity": 54}, {"time": 1413, "pitch": 62, "duration": 6, "velocity": 49}, {"time": 1425, "pitch": 48, "duration": 14, "velocity": 64}, {"time": 1425, "pitch": 60, "duration": 8, "velocity": 62}, {"time": 1425, "pitch": 64, "duration": 7, "velocity": 64}, {"time": 1425, "pitch": 67, "duration": 9, "velocity": 64}, {"time": 1437, "pitch": 62, "duration": 4, "velocity": 52}, {"time": 1437, "pitch": 65, "duration": 5, "velocity": 66}, {"time": 1449, "pitch": 45, "duration": 34, "velocity": 67}, {"time": 1449, "pitch": 61, "duration": 13, "velocity": 61}, {"time": 1449, "pitch": 64, "duration": 13, "velocity": 54}, {"time": 1449, "pitch": 69, "duration": 15, "velocity": 61}, {"time": 1461, "pitch": 57, "duration": 36, "velocity": 44}, {"time": 1473, "pitch": 61, "duration": 13, "velocity": 67}, {"time": 1485, "pitch": 69, "duration": 33, "velocity": 62}, {"time": 1497, "pitch": 50, "duration": 33, "velocity": 66}, {"time": 1497, "pitch": 65, "duration": 23, "velocity": 56}, {"time": 1509, "pitch": 57, "duration": 22, "velocity": 46}, {"time": 1521, "pitch": 62, "duration": 8, "velocity": 53}, {"time": 1527, "pitch": 64, "duration": 5, "velocity": 62}, {"time": 1533, "pitch": 65, "duration": 4, "velocity": 59}, {"time": 1539, "pitch": 67, "duration": 5, "velocity": 55}, {"time": 1545, "pitch": 43, "duration": 83, "velocity": 69}, {"time": 1545, "pitch": 62, "duration": 14, "velocity": 59}, {"time": 1545, "pitch": 65, "duration": 13, "velocity": 67}, {"time": 1545, "pitch": 70, "duration": 15, "velocity": 62}, {"time": 1557, "pitch": 50, "duration": 70, "velocity": 32}, {"time": 1569, "pitch": 62, "duration": 11, "velocity": 54}, {"time": 1569, "pitch": 65, "duration": 11, "velocity": 62}, {"time": 1569, "pitch": 70, "duration": 12, "velocity": 54}, {"time": 1581, "pitch": 55, "duration": 39, "velocity": 27}, {"time": 1593, "pitch": 62, "duration": 13, "velocity": 60}, {"time": 1593, "pitch": 65, "duration": 11, "velocity": 72}, {"time": 1593, "pitch": 70, "duration": 13, "velocity": 58}, {"time": 1617, "pitch": 62, "duration": 12, "velocity": 63}, {"time": 1617, "pitch": 65, "duration": 11, "velocity": 73}, {"time": 1617, "pitch": 70, "duration": 13, "velocity": 60}, {"time": 1629, "pitch": 55, "duration": 9, "velocity": 41}, {"time": 1641, "pitch": 48, "duration": 87, "velocity": 64}, {"time": 1641, "pitch": 60, "duration": 12, "velocity": 64}, {"time": 1641, "pitch": 65, "duration": 13, "velocity": 61}, {"time": 1641, "pitch": 67, "duration": 14, "velocity": 63}, {"time": 1641, "pitch": 69, "duration": 4, "velocity": 51}, {"time": 1653, "pitch": 53, "duration": 70, "velocity": 36}, {"time": 1665, "pitch": 55, "duration": 62, "velocity": 47}, {"time": 1665, "pitch": 65, "duration": 6, "velocity": 66}, {"time": 1665, "pitch": 67, "duration": 7, "velocity": 62}, {"time": 1665, "pitch": 72, "duration": 9, "velocity": 60}, {"time": 1677, "pitch": 60, "duration": 16, "velocity": 39}, {"time": 1683, "pitch": 72, "duration": 7, "velocity": 44}, {"time": 1686, "pitch": 77, "duration": 8, "velocity": 49}, {"time": 1689, "pitch": 84, "duration": 7, "velocity": 49}, {"time": 1737, "pitch": 53, "duration": 23, "velocity": 61}, {"time": 1737, "pitch": 84, "duration": 18, "velocity": 58}, {"time": 1749, "pitch": 60, "duration": 13, "velocity": 56}, {"time": 1761, "pitch": 65, "duration": 16, "velocity": 35}, {"time": 1761, "pitch": 72, "duration": 14, "velocity": 44}, {"time": 1773, "pitch": 67, "duration": 41, "velocity": 46}, {"time": 1773, "pitch": 77, "duration": 22, "velocity": 38}, {"time": 1797, "pitch": 69, "duration": 15, "velocity": 30}, {"time": 1809, "pitch": 72, "duration": 8, "velocity": 47}, {"time": 1809, "pitch": 79, "duration": 9, "velocity": 61}, {"time": 1821, "pitch": 77, "duration": 3, "velocity": 48}, {"time": 1833, "pitch": 45, "duration": 81, "velocity": 51}, {"time": 1833, "pitch": 72, "duration": 12, "velocity": 47}, {"time": 1833, "pitch": 76, "duration": 12, "velocity": 58}, {"time": 1845, "pitch": 52, "duration": 67, "velocity": 33}, {"time": 1857, "pitch": 57, "duration": 57, "velocity": 46}, {"time": 1869, "pitch": 60, "duration": 18, "velocity": 46}, {"time": 1869, "pitch": 64, "duration": 21, "velocity": 48}, {"time": 1869, "pitch": 69, "duration": 21, "velocity": 48}, {"time": 1905, "pitch": 72, "duration": 10, "velocity": 55}, {"time": 1929, "pitch": 50, "duration": 59, "velocity": 51}, {"time": 1929, "pitch": 60, "duration": 14, "velocity": 49}, {"time": 1929, "pitch": 65, "duration": 15, "velocity": 58}, {"time": 1929, "pitch": 69, "duration": 17, "velocity": 47}, {"time": 1941, "pitch": 57, "duration": 50, "velocity": 41}, {"time": 1953, "pitch": 60, "duration": 12, "velocity": 47}, {"time": 1965, "pitch": 67, "duration": 20, "velocity": 49}, {"time": 2001, "pitch": 48, "duration": 12, "velocity": 55}, {"time": 2001, "pitch": 60, "duration": 11, "velocity": 47}, {"time": 2001, "pitch": 64, "duration": 11, "velocity": 59}, {"time": 2004, "pitch": 57, "duration": 7, "velocity": 18}, {"time": 2025, "pitch": 47, "duration": 21, "velocity": 50}, {"time": 2025, "pitch": 62, "duration": 17, "velocity": 48}, {"time": 2025, "pitch": 65, "duration": 19, "velocity": 53}, {"time": 2037, "pitch": 53, "duration": 12, "velocity": 31}, {"time": 2049, "pitch": 57, "duration": 16, "velocity": 48}, {"time": 2061, "pitch": 59, "duration": 37, "velocity": 47}, {"time": 2061, "pitch": 62, "duration": 16, "velocity": 33}, {"time": 2061, "pitch": 65, "duration": 20, "velocity": 40}, {"time": 2061, "pitch": 69, "duration": 22, "velocity": 40}, {"time": 2085, "pitch": 62, "duration": 12, "velocity": 28}, {"time": 2097, "pitch": 67, "duration": 11, "velocity": 64}, {"time": 2109, "pitch": 69, "duration": 10, "velocity": 48}, {"time": 2121, "pitch": 43, "duration": 37, "velocity": 57}, {"time": 2121, "pitch": 62, "duration": 26, "velocity": 49}, {"time": 2121, "pitch": 65, "duration": 26, "velocity": 48}, {"time": 2121, "pitch": 70, "duration": 28, "velocity": 72}, {"time": 2133, "pitch": 50, "duration": 25, "velocity": 36}, {"time": 2145, "pitch": 55, "duration": 22, "velocity": 51}, {"time": 2157, "pitch": 62, "duration": 6, "velocity": 53}, {"time": 2169, "pitch": 48, "duration": 37, "velocity": 61}, {"time": 2169, "pitch": 60, "duration": 21, "velocity": 60}, {"time": 2169, "pitch": 65, "duration": 25, "velocity": 64}, {"time": 2169, "pitch": 67, "duration": 25, "velocity": 57}, {"time": 2181, "pitch": 53, "duration": 25, "velocity": 30}, {"time": 2193, "pitch": 57, "duration": 10, "velocity": 63}, {"time": 2205, "pitch": 65, "duration": 11, "velocity": 53}, {"time": 2217, "pitch": 45, "duration": 35, "velocity": 53}, {"time": 2217, "pitch": 64, "duration": 16, "velocity": 66}, {"time": 2217, "pitch": 67, "duration": 13, "velocity": 48}, {"time": 2229, "pitch": 57, "duration": 25, "velocity": 48}, {"time": 2241, "pitch": 61, "duration": 11, "velocity": 80}, {"time": 2241, "pitch": 64, "duration": 10, "velocity": 49}, {"time": 2241, "pitch": 69, "duration": 13, "velocity": 49}, {"time": 2253, "pitch": 49, "duration": 2, "velocity": 64}, {"time": 2265, "pitch": 50, "duration": 30, "velocity": 67}, {"time": 2265, "pitch": 65, "duration": 17, "velocity": 69}, {"time": 2265, "pitch": 69, "duration": 15, "velocity": 66}, {"time": 2277, "pitch": 57, "duration": 23, "velocity": 35}, {"time": 2289, "pitch": 62, "duration": 5, "velocity": 45}, {"time": 2289, "pitch": 64, "duration": 4, "velocity": 49}, {"time": 2289, "pitch": 67, "duration": 10, "velocity": 61}, {"time": 2301, "pitch": 65, "duration": 4, "velocity": 60}, {"time": 2301, "pitch": 69, "duration": 3, "velocity": 61}, {"time": 2313, "pitch": 43, "duration": 75, "velocity": 34}, {"time": 2313, "pitch": 62, "duration": 15, "velocity": 48}, {"time": 2313, "pitch": 65, "duration": 15, "velocity": 48}, {"time": 2313, "pitch": 70, "duration": 16, "velocity": 66}, {"time": 2328, "pitch": 50, "duration": 12, "velocity": 39}, {"time": 2337, "pitch": 55, "duration": 12, "velocity": 48}, {"time": 2337, "pitch": 62, "duration": 10, "velocity": 52}, {"time": 2337, "pitch": 65, "duration": 11, "velocity": 64}, {"time": 2337, "pitch": 70, "duration": 12, "velocity": 60}, {"time": 2349, "pitch": 50, "duration": 13, "velocity": 46}, {"time": 2361, "pitch": 55, "duration": 12, "velocity": 40}, {"time": 2361, "pitch": 62, "duration": 12, "velocity": 46}, {"time": 2361, "pitch": 65, "duration": 11, "velocity": 52}, {"time": 2361, "pitch": 70, "duration": 12, "velocity": 54}, {"time": 2373, "pitch": 50, "duration": 21, "velocity": 32}, {"time": 2385, "pitch": 62, "duration": 10, "velocity": 57}, {"time": 2385, "pitch": 65, "duration": 9, "velocity": 69}, {"time": 2385, "pitch": 70, "duration": 9, "velocity": 63}, {"time": 2397, "pitch": 55, "duration": 3, "velocity": 47}, {"time": 2409, "pitch": 48, "duration": 38, "velocity": 70}, {"time": 2409, "pitch": 60, "duration": 13, "velocity": 51}, {"time": 2409, "pitch": 65, "duration": 13, "velocity": 57}, {"time": 2409, "pitch": 67, "duration": 13, "velocity": 45}, {"time": 2409, "pitch": 72, "duration": 22, "velocity": 67}, {"time": 2421, "pitch": 53, "duration": 27, "velocity": 32}, {"time": 2427, "pitch": 55, "duration": 25, "velocity": 50}, {"time": 2433, "pitch": 60, "duration": 9, "velocity": 53}, {"time": 2439, "pitch": 65, "duration": 7, "velocity": 48}, {"time": 2445, "pitch": 67, "duration": 3, "velocity": 56}, {"time": 2451, "pitch": 72, "duration": 7, "velocity": 57}, {"time": 2457, "pitch": 48, "duration": 33, "velocity": 59}, {"time": 2457, "pitch": 77, "duration": 6, "velocity": 69}, {"time": 2463, "pitch": 53, "duration": 31, "velocity": 47}, {"time": 2463, "pitch": 79, "duration": 5, "velocity": 60}, {"time": 2469, "pitch": 84, "duration": 6, "velocity": 46}, {"time": 2475, "pitch": 72, "duration": 5, "velocity": 43}, {"time": 2481, "pitch": 77, "duration": 5, "velocity": 58}, {"time": 2487, "pitch": 79, "duration": 4, "velocity": 54}, {"time": 2490, "pitch": 55, "duration": 4, "velocity": 31}, {"time": 2493, "pitch": 81, "duration": 2, "velocity": 53}, {"time": 2499, "pitch": 82, "duration": 4, "velocity": 57}, {"time": 2505, "pitch": 41, "duration": 10, "velocity": 67}, {"time": 2505, "pitch": 72, "duration": 10, "velocity": 69}, {"time": 2505, "pitch": 77, "duration": 13, "velocity": 70}, {"time": 2505, "pitch": 84, "duration": 12, "velocity": 61}, {"time": 2511, "pitch": 48, "duration": 5, "velocity": 51}, {"time": 2517, "pitch": 53, "duration": 7, "velocity": 45}, {"time": 2523, "pitch": 55, "duration": 10, "velocity": 59}, {"time": 2529, "pitch": 57, "duration": 4, "velocity": 63}, {"time": 2535, "pitch": 60, "duration": 4, "velocity": 46}, {"time": 2541, "pitch": 65, "duration": 6, "velocity": 61}, {"time": 2547, "pitch": 67, "duration": 4, "velocity": 62}, {"time": 2553, "pitch": 41, "duration": 39, "velocity": 62}, {"time": 2553, "pitch": 53, "duration": 27, "velocity": 60}, {"time": 2553, "pitch": 60, "duration": 14, "velocity": 60}, {"time": 2553, "pitch": 65, "duration": 13, "velocity": 60}, {"time": 2553, "pitch": 69, "duration": 13, "velocity": 60}, {"time": 2577, "pitch": 60, "duration": 11, "velocity": 58}, {"time": 2577, "pitch": 65, "duration": 10, "velocity": 62}, {"time": 2577, "pitch": 69, "duration": 11, "velocity": 59}, {"time": 2589, "pitch": 53, "duration": 5, "velocity": 49}, {"time": 2601, "pitch": 41, "duration": 84, "velocity": 60}, {"time": 2601, "pitch": 53, "duration": 51, "velocity": 46}, {"time": 2601, "pitch": 62, "duration": 16, "velocity": 61}, {"time": 2601, "pitch": 67, "duration": 13, "velocity": 62}, {"time": 2601, "pitch": 70, "duration": 16, "velocity": 64}, {"time": 2625, "pitch": 62, "duration": 14, "velocity": 60}, {"time": 2625, "pitch": 67, "duration": 12, "velocity": 67}, {"time": 2625, "pitch": 70, "duration": 15, "velocity": 62}, {"time": 2649, "pitch": 62, "duration": 16, "velocity": 48}, {"time": 2649, "pitch": 67, "duration": 14, "velocity": 59}, {"time": 2649, "pitch": 70, "duration": 16, "velocity": 38}, {"time": 2661, "pitch": 53, "duration": 24, "velocity": 28}, {"time": 2673, "pitch": 62, "duration": 14, "velocity": 67}, {"time": 2673, "pitch": 67, "duration": 11, "velocity": 66}, {"time": 2673, "pitch": 70, "duration": 11, "velocity": 61}, {"time": 2697, "pitch": 43, "duration": 68, "velocity": 64}, {"time": 2697, "pitch": 62, "duration": 15, "velocity": 64}, {"time": 2697, "pitch": 65, "duration": 15, "velocity": 73}, {"time": 2697, "pitch": 70, "duration": 19, "velocity": 70}, {"time": 2706, "pitch": 55, "duration": 41, "velocity": 21}, {"time": 2721, "pitch": 62, "duration": 10, "velocity": 64}, {"time": 2721, "pitch": 65, "duration": 9, "velocity": 72}, {"time": 2721, "pitch": 70, "duration": 11, "velocity": 52}, {"time": 2733, "pitch": 50, "duration": 31, "velocity": 48}, {"time": 2745, "pitch": 60, "duration": 11, "velocity": 62}, {"time": 2745, "pitch": 65, "duration": 12, "velocity": 67}, {"time": 2745, "pitch": 69, "duration": 11, "velocity": 62}, {"time": 2757, "pitch": 55, "duration": 6, "velocity": 37}, {"time": 2769, "pitch": 36, "duration": 13, "velocity": 70}, {"time": 2769, "pitch": 60, "duration": 14, "velocity": 48}, {"time": 2769, "pitch": 65, "duration": 11, "velocity": 54}, {"time": 2769, "pitch": 70, "duration": 13, "velocity": 69}, {"time": 2781, "pitch": 48, "duration": 4, "velocity": 56}, {"time": 2781, "pitch": 67, "duration": 4, "velocity": 72}, {"time": 2793, "pitch": 41, "duration": 79, "velocity": 67}, {"time": 2793, "pitch": 53, "duration": 12, "velocity": 48}, {"time": 2793, "pitch": 60, "duration": 15, "velocity": 67}, {"time": 2793, "pitch": 65, "duration": 13, "velocity": 64}, {"time": 2793, "pitch": 69, "duration": 16, "velocity": 69}, {"time": 2808, "pitch": 53, "duration": 13, "velocity": 35}, {"time": 2817, "pitch": 60, "duration": 8, "velocity": 67}, {"time": 2817, "pitch": 65, "duration": 10, "velocity": 73}, {"time": 2817, "pitch": 69, "duration": 11, "velocity": 72}, {"time": 2829, "pitch": 60, "duration": 4, "velocity": 57}, {"time": 2829, "pitch": 67, "duration": 10, "velocity": 61}, {"time": 2835, "pitch": 53, "duration": 6, "velocity": 39}, {"time": 2841, "pitch": 60, "duration": 3, "velocity": 72}, {"time": 2841, "pitch": 69, "duration": 4, "velocity": 73}, {"time": 2853, "pitch": 53, "duration": 7, "velocity": 48}, {"time": 2865, "pitch": 53, "duration": 6, "velocity": 60}, {"time": 2865, "pitch": 69, "duration": 4, "velocity": 66}, {"time": 2865, "pitch": 77, "duration": 11, "velocity": 76}, {"time": 2877, "pitch": 40, "duration": 5, "velocity": 53}, {"time": 2877, "pitch": 67, "duration": 6, "velocity": 59}, {"time": 2877, "pitch": 74, "duration": 8, "velocity": 70}, {"time": 2889, "pitch": 41, "duration": 39, "velocity": 67}, {"time": 2889, "pitch": 53, "duration": 33, "velocity": 67}, {"time": 2889, "pitch": 60, "duration": 19, "velocity": 66}, {"time": 2889, "pitch": 63, "duration": 13, "velocity": 72}, {"time": 2889, "pitch": 65, "duration": 19, "velocity": 72}, {"time": 2889, "pitch": 69, "duration": 19, "velocity": 63}, {"time": 2913, "pitch": 60, "duration": 20, "velocity": 63}, {"time": 2913, "pitch": 63, "duration": 13, "velocity": 72}, {"time": 2913, "pitch": 65, "duration": 19, "velocity": 64}, {"time": 2913, "pitch": 69, "duration": 22, "velocity": 61}, {"time": 2925, "pitch": 41, "duration": 3, "velocity": 53}, {"time": 2925, "pitch": 53, "duration": 5, "velocity": 43}, {"time": 2931, "pitch": 43, "duration": 3, "velocity": 55}, {"time": 2937, "pitch": 45, "duration": 32, "velocity": 64}, {"time": 2937, "pitch": 60, "duration": 20, "velocity": 75}, {"time": 2937, "pitch": 63, "duration": 16, "velocity": 75}, {"time": 2937, "pitch": 65, "duration": 20, "velocity": 73}, {"time": 2937, "pitch": 69, "duration": 20, "velocity": 67}, {"time": 2961, "pitch": 60, "duration": 12, "velocity": 66}, {"time": 2961, "pitch": 63, "duration": 11, "velocity": 72}, {"time": 2961, "pitch": 65, "duration": 10, "velocity": 70}, {"time": 2961, "pitch": 69, "duration": 12, "velocity": 66}, {"time": 2973, "pitch": 45, "duration": 14, "velocity": 72}, {"time": 2985, "pitch": 46, "duration": 31, "velocity": 82}, {"time": 2985, "pitch": 62, "duration": 18, "velocity": 70}, {"time": 2985, "pitch": 65, "duration": 18, "velocity": 75}, {"time": 2985, "pitch": 70, "duration": 19, "velocity": 73}, {"time": 3009, "pitch": 62, "duration": 19, "velocity": 66}, {"time": 3009, "pitch": 65, "duration": 16, "velocity": 70}, {"time": 3009, "pitch": 70, "duration": 18, "velocity": 69}, {"time": 3021, "pitch": 46, "duration": 8, "velocity": 69}, {"time": 3033, "pitch": 47, "duration": 32, "velocity": 63}, {"time": 3033, "pitch": 62, "duration": 18, "velocity": 67}, {"time": 3033, "pitch": 65, "duration": 19, "velocity": 73}, {"time": 3033, "pitch": 69, "duration": 18, "velocity": 72}, {"time": 3057, "pitch": 62, "duration": 16, "velocity": 67}, {"time": 3057, "pitch": 65, "duration": 15, "velocity": 72}, {"time": 3057, "pitch": 69, "duration": 16, "velocity": 66}, {"time": 3069, "pitch": 47, "duration": 10, "velocity": 62}, {"time": 3081, "pitch": 48, "duration": 30, "velocity": 80}, {"time": 3081, "pitch": 60, "duration": 19, "velocity": 72}, {"time": 3081, "pitch": 65, "duration": 19, "velocity": 75}, {"time": 3081, "pitch": 69, "duration": 18, "velocity": 69}, {"time": 3105, "pitch": 60, "duration": 14, "velocity": 70}, {"time": 3105, "pitch": 65, "duration": 16, "velocity": 75}, {"time": 3105, "pitch": 69, "duration": 15, "velocity": 69}, {"time": 3118, "pitch": 48, "duration": 12, "velocity": 61}, {"time": 3129, "pitch": 43, "duration": 37, "velocity": 67}, {"time": 3129, "pitch": 62, "duration": 19, "velocity": 63}, {"time": 3129, "pitch": 67, "duration": 20, "velocity": 76}, {"time": 3129, "pitch": 71, "duration": 19, "velocity": 80}, {"time": 3153, "pitch": 62, "duration": 15, "velocity": 76}, {"time": 3153, "pitch": 67, "duration": 15, "velocity": 80}, {"time": 3153, "pitch": 71, "duration": 13, "velocity": 78}, {"time": 3177, "pitch": 48, "duration": 81, "velocity": 73}, {"time": 3177, "pitch": 60, "duration": 12, "velocity": 73}, {"time": 3177, "pitch": 65, "duration": 12, "velocity": 73}, {"time": 3177, "pitch": 67, "duration": 14, "velocity": 75}, {"time": 3177, "pitch": 72, "duration": 19, "velocity": 67}, {"time": 3189, "pitch": 55, "duration": 13, "velocity": 29}, {"time": 3201, "pitch": 60, "duration": 13, "velocity": 59}, {"time": 3201, "pitch": 65, "duration": 6, "velocity": 69}, {"time": 3201, "pitch": 67, "duration": 7, "velocity": 75}, {"time": 3201, "pitch": 72, "duration": 8, "velocity": 66}, {"time": 3213, "pitch": 55, "duration": 47, "velocity": 47}, {"time": 3225, "pitch": 60, "duration": 28, "velocity": 47}, {"time": 3225, "pitch": 72, "duration": 29, "velocity": 56}, {"time": 3225, "pitch": 77, "duration": 29, "velocity": 61}, {"time": 3225, "pitch": 84, "duration": 29, "velocity": 64}, {"time": 3273, "pitch": 41, "duration": 84, "velocity": 75}, {"time": 3273, "pitch": 60, "duration": 16, "velocity": 75}, {"time": 3273, "pitch": 65, "duration": 15, "velocity": 78}, {"time": 3273, "pitch": 69, "duration": 18, "velocity": 70}, {"time": 3273, "pitch": 72, "duration": 22, "velocity": 67}, {"time": 3285, "pitch": 53, "duration": 18, "velocity": 37}, {"time": 3297, "pitch": 60, "duration": 12, "velocity": 70}, {"time": 3297, "pitch": 65, "duration": 12, "velocity": 73}, {"time": 3297, "pitch": 69, "duration": 13, "velocity": 63}, {"time": 3297, "pitch": 72, "duration": 15, "velocity": 37}, {"time": 3309, "pitch": 53, "duration": 17, "velocity": 57}, {"time": 3321, "pitch": 60, "duration": 10, "velocity": 60}, {"time": 3321, "pitch": 64, "duration": 9, "velocity": 62}, {"time": 3321, "pitch": 67, "duration": 11, "velocity": 64}, {"time": 3321, "pitch": 72, "duration": 8, "velocity": 32}, {"time": 3333, "pitch": 53, "duration": 16, "velocity": 46}, {"time": 3345, "pitch": 60, "duration": 11, "velocity": 76}, {"time": 3345, "pitch": 65, "duration": 8, "velocity": 78}, {"time": 3345, "pitch": 69, "duration": 9, "velocity": 72}, {"time": 3345, "pitch": 72, "duration": 2, "velocity": 44}, {"time": 3357, "pitch": 53, "duration": 3, "velocity": 59}, {"time": 3369, "pitch": 41, "duration": 83, "velocity": 69}, {"time": 3369, "pitch": 53, "duration": 28, "velocity": 61}, {"time": 3369, "pitch": 62, "duration": 17, "velocity": 64}, {"time": 3369, "pitch": 65, "duration": 16, "velocity": 70}, {"time": 3369, "pitch": 70, "duration": 17, "velocity": 75}, {"time": 3393, "pitch": 62, "duration": 15, "velocity": 61}, {"time": 3393, "pitch": 65, "duration": 12, "velocity": 59}, {"time": 3393, "pitch": 70, "duration": 14, "velocity": 70}, {"time": 3405, "pitch": 53, "duration": 16, "velocity": 35}, {"time": 3417, "pitch": 62, "duration": 13, "velocity": 55}, {"time": 3417, "pitch": 65, "duration": 11, "velocity": 61}, {"time": 3417, "pitch": 70, "duration": 13, "velocity": 58}, {"time": 3429, "pitch": 53, "duration": 15, "velocity": 38}, {"time": 3441, "pitch": 62, "duration": 10, "velocity": 72}, {"time": 3441, "pitch": 65, "duration": 9, "velocity": 76}, {"time": 3441, "pitch": 70, "duration": 12, "velocity": 72}, {"time": 3450, "pitch": 53, "duration": 7, "velocity": 61}, {"time": 3453, "pitch": 41, "duration": 4, "velocity": 66}, {"time": 3459, "pitch": 43, "duration": 4, "velocity": 66}, {"time": 3464, "pitch": 43, "duration": 50, "velocity": 85}, {"time": 3465, "pitch": 62, "duration": 15, "velocity": 63}, {"time": 3465, "pitch": 65, "duration": 14, "velocity": 67}, {"time": 3465, "pitch": 70, "duration": 15, "velocity": 66}, {"time": 3474, "pitch": 55, "duration": 18, "velocity": 44}, {"time": 3489, "pitch": 62, "duration": 14, "velocity": 66}, {"time": 3489, "pitch": 65, "duration": 13, "velocity": 70}, {"time": 3489, "pitch": 70, "duration": 15, "velocity": 63}, {"time": 3501, "pitch": 55, "duration": 12, "velocity": 55}, {"time": 3513, "pitch": 48, "duration": 32, "velocity": 70}, {"time": 3513, "pitch": 60, "duration": 16, "velocity": 72}, {"time": 3513, "pitch": 65, "duration": 16, "velocity": 69}, {"time": 3513, "pitch": 67, "duration": 13, "velocity": 63}, {"time": 3513, "pitch": 69, "duration": 14, "velocity": 62}, {"time": 3537, "pitch": 60, "duration": 12, "velocity": 62}, {"time": 3537, "pitch": 64, "duration": 12, "velocity": 66}, {"time": 3537, "pitch": 67, "duration": 12, "velocity": 72}, {"time": 3537, "pitch": 70, "duration": 14, "velocity": 64}, {"time": 3549, "pitch": 48, "duration": 4, "velocity": 70}, {"time": 3561, "pitch": 41, "duration": 88, "velocity": 62}, {"time": 3561, "pitch": 53, "duration": 50, "velocity": 64}, {"time": 3561, "pitch": 60, "duration": 13, "velocity": 67}, {"time": 3561, "pitch": 65, "duration": 15, "velocity": 64}, {"time": 3561, "pitch": 67, "duration": 16, "velocity": 67}, {"time": 3561, "pitch": 69, "duration": 17, "velocity": 64}, {"time": 3585, "pitch": 60, "duration": 11, "velocity": 70}, {"time": 3585, "pitch": 65, "duration": 11, "velocity": 69}, {"time": 3585, "pitch": 67, "duration": 10, "velocity": 62}, {"time": 3585, "pitch": 69, "duration": 17, "velocity": 61}, {"time": 3609, "pitch": 60, "duration": 12, "velocity": 56}, {"time": 3609, "pitch": 65, "duration": 14, "velocity": 66}, {"time": 3609, "pitch": 67, "duration": 14, "velocity": 66}, {"time": 3609, "pitch": 69, "duration": 17, "velocity": 52}, {"time": 3615, "pitch": 53, "duration": 19, "velocity": 46}, {"time": 3633, "pitch": 60, "duration": 9, "velocity": 69}, {"time": 3633, "pitch": 65, "duration": 9, "velocity": 66}, {"time": 3633, "pitch": 67, "duration": 7, "velocity": 64}, {"time": 3633, "pitch": 69, "duration": 9, "velocity": 59}, {"time": 3642, "pitch": 53, "duration": 9, "velocity": 49}, {"time": 3651, "pitch": 48, "duration": 7, "velocity": 66}, {"time": 3657, "pitch": 41, "duration": 32, "velocity": 75}, {"time": 3657, "pitch": 60, "duration": 15, "velocity": 62}, {"time": 3657, "pitch": 63, "duration": 17, "velocity": 70}, {"time": 3657, "pitch": 65, "duration": 16, "velocity": 50}, {"time": 3657, "pitch": 69, "duration": 16, "velocity": 62}, {"time": 3669, "pitch": 53, "duration": 16, "velocity": 37}, {"time": 3681, "pitch": 60, "duration": 20, "velocity": 67}, {"time": 3681, "pitch": 63, "duration": 20, "velocity": 70}, {"time": 3681, "pitch": 65, "duration": 20, "velocity": 67}, {"time": 3681, "pitch": 69, "duration": 19, "velocity": 64}, {"time": 3693, "pitch": 41, "duration": 7, "velocity": 62}, {"time": 3693, "pitch": 53, "duration": 5, "velocity": 40}, {"time": 3705, "pitch": 41, "duration": 6, "velocity": 76}, {"time": 3705, "pitch": 53, "duration": 4, "velocity": 61}, {"time": 3705, "pitch": 60, "duration": 12, "velocity": 70}, {"time": 3705, "pitch": 63, "duration": 11, "velocity": 70}, {"time": 3705, "pitch": 65, "duration": 10, "velocity": 66}, {"time": 3705, "pitch": 69, "duration": 22, "velocity": 69}, {"time": 3711, "pitch": 43, "duration": 7, "velocity": 64}, {"time": 3717, "pitch": 45, "duration": 19, "velocity": 85}, {"time": 3729, "pitch": 60, "duration": 10, "velocity": 73}, {"time": 3729, "pitch": 63, "duration": 10, "velocity": 75}, {"time": 3729, "pitch": 65, "duration": 10, "velocity": 70}, {"time": 3729, "pitch": 69, "duration": 12, "velocity": 59}, {"time": 3741, "pitch": 45, "duration": 14, "velocity": 66}, {"time": 3753, "pitch": 46, "duration": 41, "velocity": 91}, {"time": 3753, "pitch": 62, "duration": 21, "velocity": 72}, {"time": 3753, "pitch": 65, "duration": 22, "velocity": 76}, {"time": 3753, "pitch": 70, "duration": 23, "velocity": 72}, {"time": 3768, "pitch": 58, "duration": 15, "velocity": 33}, {"time": 3777, "pitch": 62, "duration": 15, "velocity": 72}, {"time": 3777, "pitch": 65, "duration": 14, "velocity": 73}, {"time": 3777, "pitch": 70, "duration": 15, "velocity": 73}, {"time": 3789, "pitch": 58, "duration": 4, "velocity": 50}, {"time": 3801, "pitch": 47, "duration": 38, "velocity": 64}, {"time": 3801, "pitch": 59, "duration": 36, "velocity": 60}, {"time": 3801, "pitch": 62, "duration": 18, "velocity": 66}, {"time": 3801, "pitch": 65, "duration": 20, "velocity": 72}, {"time": 3801, "pitch": 69, "duration": 23, "velocity": 70}, {"time": 3825, "pitch": 62, "duration": 13, "velocity": 60}, {"time": 3837, "pitch": 69, "duration": 4, "velocity": 57}, {"time": 3849, "pitch": 45, "duration": 24, "velocity": 72}, {"time": 3849, "pitch": 60, "duration": 15, "velocity": 67}, {"time": 3849, "pitch": 65, "duration": 15, "velocity": 60}, {"time": 3849, "pitch": 69, "duration": 16, "velocity": 67}, {"time": 3864, "pitch": 57, "duration": 9, "velocity": 23}, {"time": 3873, "pitch": 48, "duration": 8, "velocity": 51}, {"time": 3873, "pitch": 60, "duration": 12, "velocity": 78}, {"time": 3873, "pitch": 65, "duration": 12, "velocity": 75}, {"time": 3873, "pitch": 69, "duration": 12, "velocity": 75}, {"time": 3885, "pitch": 48, "duration": 3, "velocity": 70}, {"time": 3897, "pitch": 43, "duration": 22, "velocity": 67}, {"time": 3897, "pitch": 55, "duration": 22, "velocity": 48}, {"time": 3897, "pitch": 62, "duration": 16, "velocity": 67}, {"time": 3897, "pitch": 65, "duration": 15, "velocity": 72}, {"time": 3897, "pitch": 70, "duration": 17, "velocity": 66}, {"time": 3921, "pitch": 48, "duration": 16, "velocity": 72}, {"time": 3921, "pitch": 60, "duration": 17, "velocity": 69}, {"time": 3921, "pitch": 65, "duration": 16, "velocity": 69}, {"time": 3921, "pitch": 69, "duration": 16, "velocity": 64}, {"time": 3945, "pitch": 41, "duration": 11, "velocity": 72}, {"time": 3945, "pitch": 53, "duration": 22, "velocity": 56}, {"time": 3945, "pitch": 60, "duration": 13, "velocity": 69}, {"time": 3945, "pitch": 65, "duration": 14, "velocity": 66}, {"time": 3945, "pitch": 69, "duration": 12, "velocity": 62}, {"time": 3957, "pitch": 53, "duration": 10, "velocity": 51}, {"time": 3957, "pitch": 60, "duration": 1, "velocity": 44}, {"time": 3957, "pitch": 77, "duration": 9, "velocity": 69}, {"time": 3969, "pitch": 55, "duration": 12, "velocity": 60}, {"time": 3969, "pitch": 60, "duration": 11, "velocity": 70}, {"time": 3969, "pitch": 65, "duration": 9, "velocity": 44}, {"time": 3969, "pitch": 65, "duration": 9, "velocity": 73}, {"time": 3969, "pitch": 70, "duration": 15, "velocity": 75}, {"time": 3969, "pitch": 76, "duration": 6, "velocity": 46}, {"time": 3981, "pitch": 57, "duration": 2, "velocity": 67}, {"time": 3981, "pitch": 67, "duration": 31, "velocity": 43}, {"time": 3981, "pitch": 72, "duration": 5, "velocity": 64}, {"time": 3981, "pitch": 79, "duration": 8, "velocity": 55}, {"time": 3987, "pitch": 72, "duration": 30, "velocity": 67}, {"time": 3993, "pitch": 69, "duration": 18, "velocity": 48}, {"time": 4029, "pitch": 69, "duration": 8, "velocity": 48}, {"time": 4035, "pitch": 70, "duration": 5, "velocity": 55}, {"time": 4041, "pitch": 53, "duration": 74, "velocity": 63}, {"time": 4041, "pitch": 72, "duration": 14, "velocity": 63}, {"time": 4053, "pitch": 58, "duration": 22, "velocity": 48}, {"time": 4065, "pitch": 60, "duration": 57, "velocity": 44}, {"time": 4065, "pitch": 69, "duration": 10, "velocity": 56}, {"time": 4077, "pitch": 65, "duration": 25, "velocity": 55}, {"time": 4077, "pitch": 72, "duration": 40, "velocity": 62}, {"time": 4077, "pitch": 77, "duration": 48, "velocity": 73}, {"time": 4113, "pitch": 65, "duration": 12, "velocity": 29}, {"time": 4119, "pitch": 70, "duration": 5, "velocity": 48}, {"time": 4125, "pitch": 72, "duration": 6, "velocity": 44}, {"time": 4131, "pitch": 77, "duration": 8, "velocity": 63}, {"time": 4137, "pitch": 53, "duration": 74, "velocity": 58}, {"time": 4137, "pitch": 69, "duration": 12, "velocity": 47}, {"time": 4137, "pitch": 72, "duration": 11, "velocity": 51}, {"time": 4149, "pitch": 60, "duration": 15, "velocity": 40}, {"time": 4149, "pitch": 77, "duration": 10, "velocity": 67}, {"time": 4149, "pitch": 89, "duration": 10, "velocity": 67}, {"time": 4161, "pitch": 65, "duration": 13, "velocity": 39}, {"time": 4161, "pitch": 76, "duration": 11, "velocity": 61}, {"time": 4161, "pitch": 88, "duration": 11, "velocity": 61}, {"time": 4173, "pitch": 60, "duration": 41, "velocity": 42}, {"time": 4173, "pitch": 79, "duration": 10, "velocity": 48}, {"time": 4173, "pitch": 91, "duration": 10, "velocity": 48}, {"time": 4179, "pitch": 72, "duration": 27, "velocity": 62}, {"time": 4179, "pitch": 84, "duration": 27, "velocity": 62}, {"time": 4185, "pitch": 65, "duration": 27, "velocity": 45}, {"time": 4221, "pitch": 69, "duration": 6, "velocity": 36}, {"time": 4221, "pitch": 81, "duration": 6, "velocity": 36}, {"time": 4227, "pitch": 70, "duration": 6, "velocity": 56}, {"time": 4227, "pitch": 82, "duration": 6, "velocity": 56}, {"time": 4233, "pitch": 53, "duration": 79, "velocity": 60}, {"time": 4233, "pitch": 72, "duration": 10, "velocity": 51}, {"time": 4233, "pitch": 84, "duration": 10, "velocity": 51}, {"time": 4245, "pitch": 58, "duration": 69, "velocity": 58}, {"time": 4257, "pitch": 62, "duration": 55, "velocity": 32}, {"time": 4257, "pitch": 70, "duration": 9, "velocity": 44}, {"time": 4269, "pitch": 65, "duration": 41, "velocity": 51}, {"time": 4269, "pitch": 72, "duration": 34, "velocity": 60}, {"time": 4269, "pitch": 77, "duration": 36, "velocity": 67}, {"time": 4305, "pitch": 76, "duration": 11, "velocity": 63}, {"time": 4317, "pitch": 77, "duration": 5, "velocity": 46}, {"time": 4320, "pitch": 74, "duration": 4, "velocity": 39}, {"time": 4329, "pitch": 53, "duration": 23, "velocity": 61}, {"time": 4329, "pitch": 84, "duration": 18, "velocity": 58}, {"time": 4341, "pitch": 60, "duration": 13, "velocity": 56}, {"time": 4353, "pitch": 65, "duration": 16, "velocity": 35}, {"time": 4353, "pitch": 72, "duration": 14, "velocity": 44}, {"time": 4365, "pitch": 67, "duration": 41, "velocity": 46}, {"time": 4365, "pitch": 77, "duration": 22, "velocity": 38}, {"time": 4389, "pitch": 69, "duration": 15, "velocity": 30}, {"time": 4401, "pitch": 72, "duration": 8, "velocity": 47}, {"time": 4401, "pitch": 79, "duration": 9, "velocity": 61}, {"time": 4413, "pitch": 77, "duration": 3, "velocity": 48}, {"time": 4425, "pitch": 45, "duration": 81, "velocity": 51}, {"time": 4425, "pitch": 72, "duration": 12, "velocity": 47}, {"time": 4425, "pitch": 76, "duration": 12, "velocity": 58}, {"time": 4437, "pitch": 52, "duration": 67, "velocity": 33}, {"time": 4449, "pitch": 57, "duration": 57, "velocity": 46}, {"time": 4461, "pitch": 60, "duration": 18, "velocity": 46}, {"time": 4461, "pitch": 64, "duration": 21, "velocity": 48}, {"time": 4461, "pitch": 69, "duration": 21, "velocity": 48}, {"time": 4497, "pitch": 72, "duration": 10, "velocity": 55}, {"time": 4521, "pitch": 50, "duration": 59, "velocity": 51}, {"time": 4521, "pitch": 60, "duration": 14, "velocity": 49}, {"time": 4521, "pitch": 65, "duration": 15, "velocity": 58}, {"time": 4521, "pitch": 69, "duration": 17, "velocity": 47}, {"time": 4533, "pitch": 57, "duration": 50, "velocity": 41}, {"time": 4545, "pitch": 60, "duration": 12, "velocity": 47}, {"time": 4557, "pitch": 67, "duration": 20, "velocity": 49}, {"time": 4593, "pitch": 48, "duration": 12, "velocity": 55}, {"time": 4593, "pitch": 60, "duration": 11, "velocity": 47}, {"time": 4593, "pitch": 64, "duration": 11, "velocity": 59}, {"time": 4596, "pitch": 57, "duration": 7, "velocity": 18}, {"time": 4617, "pitch": 47, "duration": 21, "velocity": 50}, {"time": 4617, "pitch": 62, "duration": 17, "velocity": 48}, {"time": 4617, "pitch": 65, "duration": 19, "velocity": 53}, {"time": 4629, "pitch": 53, "duration": 12, "velocity": 31}, {"time": 4641, "pitch": 57, "duration": 16, "velocity": 48}, {"time": 4653, "pitch": 59, "duration": 37, "velocity": 47}, {"time": 4653, "pitch": 62, "duration": 16, "velocity": 33}, {"time": 4653, "pitch": 65, "duration": 20, "velocity": 40}, {"time": 4653, "pitch": 69, "duration": 22, "velocity": 40}, {"time": 4677, "pitch": 62, "duration": 12, "velocity": 28}, {"time": 4689, "pitch": 67, "duration": 11, "velocity": 64}, {"time": 4701, "pitch": 69, "duration": 10, "velocity": 48}, {"time": 4713, "pitch": 43, "duration": 37, "velocity": 57}, {"time": 4713, "pitch": 62, "duration": 26, "velocity": 49}, {"time": 4713, "pitch": 65, "duration": 26, "velocity": 48}, {"time": 4713, "pitch": 70, "duration": 28, "velocity": 72}, {"time": 4725, "pitch": 50, "duration": 25, "velocity": 36}, {"time": 4737, "pitch": 55, "duration": 22, "velocity": 51}, {"time": 4749, "pitch": 62, "duration": 6, "velocity": 53}, {"time": 4761, "pitch": 48, "duration": 37, "velocity": 61}, {"time": 4761, "pitch": 60, "duration": 21, "velocity": 60}, {"time": 4761, "pitch": 65, "duration": 25, "velocity": 64}, {"time": 4761, "pitch": 67, "duration": 25, "velocity": 57}, {"time": 4773, "pitch": 53, "duration": 25, "velocity": 30}, {"time": 4785, "pitch": 57, "duration": 10, "velocity": 63}, {"time": 4797, "pitch": 65, "duration": 11, "velocity": 53}, {"time": 4809, "pitch": 45, "duration": 35, "velocity": 53}, {"time": 4809, "pitch": 64, "duration": 16, "velocity": 66}, {"time": 4809, "pitch": 67, "duration": 13, "velocity": 48}, {"time": 4821, "pitch": 57, "duration": 25, "velocity": 48}, {"time": 4833, "pitch": 61, "duration": 11, "velocity": 80}, {"time": 4833, "pitch": 64, "duration": 10, "velocity": 49}, {"time": 4833, "pitch": 69, "duration": 13, "velocity": 49}, {"time": 4845, "pitch": 49, "duration": 2, "velocity": 64}, {"time": 4857, "pitch": 50, "duration": 30, "velocity": 67}, {"time": 4857, "pitch": 65, "duration": 17, "velocity": 69}, {"time": 4857, "pitch": 69, "duration": 15, "velocity": 66}, {"time": 4869, "pitch": 57, "duration": 23, "velocity": 35}, {"time": 4881, "pitch": 62, "duration": 5, "velocity": 45}, {"time": 4881, "pitch": 64, "duration": 4, "velocity": 49}, {"time": 4881, "pitch": 67, "duration": 10, "velocity": 61}, {"time": 4893, "pitch": 65, "duration": 4, "velocity": 60}, {"time": 4893, "pitch": 69, "duration": 3, "velocity": 61}, {"time": 4905, "pitch": 62, "duration": 15, "velocity": 48}, {"time": 4905, "pitch": 65, "duration": 15, "velocity": 48}, {"time": 4905, "pitch": 70, "duration": 16, "velocity": 66}, {"time": 4911, "pitch": 43, "duration": 75, "velocity": 34}, {"time": 4920, "pitch": 50, "duration": 12, "velocity": 39}, {"time": 4929, "pitch": 55, "duration": 12, "velocity": 48}, {"time": 4929, "pitch": 62, "duration": 10, "velocity": 52}, {"time": 4929, "pitch": 65, "duration": 11, "velocity": 64}, {"time": 4929, "pitch": 70, "duration": 12, "velocity": 60}, {"time": 4941, "pitch": 50, "duration": 13, "velocity": 46}, {"time": 4953, "pitch": 55, "duration": 12, "velocity": 40}, {"time": 4953, "pitch": 62, "duration": 12, "velocity": 46}, {"time": 4953, "pitch": 65, "duration": 11, "velocity": 52}, {"time": 4953, "pitch": 70, "duration": 12, "velocity": 54}, {"time": 4965, "pitch": 50, "duration": 21, "velocity": 32}, {"time": 4977, "pitch": 62, "duration": 10, "velocity": 57}, {"time": 4977, "pitch": 65, "duration": 9, "velocity": 69}, {"time": 4977, "pitch": 70, "duration": 9, "velocity": 63}, {"time": 4989, "pitch": 55, "duration": 3, "velocity": 47}, {"time": 5001, "pitch": 48, "duration": 38, "velocity": 70}, {"time": 5001, "pitch": 60, "duration": 13, "velocity": 51}, {"time": 5001, "pitch": 65, "duration": 13, "velocity": 57}, {"time": 5001, "pitch": 67, "duration": 13, "velocity": 45}, {"time": 5001, "pitch": 72, "duration": 22, "velocity": 67}, {"time": 5013, "pitch": 53, "duration": 27, "velocity": 32}, {"time": 5019, "pitch": 55, "duration": 25, "velocity": 50}, {"time": 5025, "pitch": 60, "duration": 9, "velocity": 53}, {"time": 5031, "pitch": 65, "duration": 7, "velocity": 48}, {"time": 5037, "pitch": 67, "duration": 3, "velocity": 56}, {"time": 5043, "pitch": 72, "duration": 7, "velocity": 57}, {"time": 5049, "pitch": 48, "duration": 33, "velocity": 59}, {"time": 5049, "pitch": 77, "duration": 6, "velocity": 69}, {"time": 5055, "pitch": 53, "duration": 31, "velocity": 47}, {"time": 5055, "pitch": 79, "duration": 5, "velocity": 60}, {"time": 5061, "pitch": 84, "duration": 6, "velocity": 46}, {"time": 5067, "pitch": 72, "duration": 5, "velocity": 43}, {"time": 5073, "pitch": 77, "duration": 5, "velocity": 58}, {"time": 5079, "pitch": 79, "duration": 4, "velocity": 54}, {"time": 5082, "pitch": 55, "duration": 4, "velocity": 31}, {"time": 5085, "pitch": 81, "duration": 2, "velocity": 53}, {"time": 5091, "pitch": 82, "duration": 4, "velocity": 57}, {"time": 5097, "pitch": 41, "duration": 26, "velocity": 67}, {"time": 5097, "pitch": 72, "duration": 10, "velocity": 69}, {"time": 5097, "pitch": 77, "duration": 13, "velocity": 70}, {"time": 5097, "pitch": 84, "duration": 12, "velocity": 61}, {"time": 5103, "pitch": 48, "duration": 5, "velocity": 51}, {"time": 5109, "pitch": 53, "duration": 7, "velocity": 45}, {"time": 5115, "pitch": 55, "duration": 10, "velocity": 59}, {"time": 5121, "pitch": 72, "duration": 9, "velocity": 69}, {"time": 5121, "pitch": 77, "duration": 12, "velocity": 70}, {"time": 5121, "pitch": 84, "duration": 12, "velocity": 61}, {"time": 5121, "pitch": 57, "duration": 4, "velocity": 63}, {"time": 5127, "pitch": 60, "duration": 4, "velocity": 46}, {"time": 5133, "pitch": 41, "duration": 33, "velocity": 65}, {"time": 5133, "pitch": 65, "duration": 6, "velocity": 65}, {"time": 5139, "pitch": 67, "duration": 4, "velocity": 62}, {"time": 5145, "pitch": 53, "duration": 27, "velocity": 60}, {"time": 5145, "pitch": 60, "duration": 14, "velocity": 60}, {"time": 5145, "pitch": 65, "duration": 13, "velocity": 60}, {"time": 5145, "pitch": 69, "duration": 13, "velocity": 60}, {"time": 5169, "pitch": 41, "duration": 15, "velocity": 62}, {"time": 5169, "pitch": 60, "duration": 11, "velocity": 58}, {"time": 5169, "pitch": 65, "duration": 10, "velocity": 62}, {"time": 5169, "pitch": 69, "duration": 11, "velocity": 59}, {"time": 5181, "pitch": 53, "duration": 5, "velocity": 49}, {"time": 5193, "pitch": 41, "duration": 38, "velocity": 60}, {"time": 5193, "pitch": 53, "duration": 51, "velocity": 46}, {"time": 5193, "pitch": 62, "duration": 16, "velocity": 61}, {"time": 5193, "pitch": 67, "duration": 13, "velocity": 62}, {"time": 5193, "pitch": 70, "duration": 16, "velocity": 64}, {"time": 5217, "pitch": 62, "duration": 14, "velocity": 60}, {"time": 5217, "pitch": 67, "duration": 12, "velocity": 67}, {"time": 5217, "pitch": 70, "duration": 15, "velocity": 62}, {"time": 5235, "pitch": 41, "duration": 4, "velocity": 69}, {"time": 5241, "pitch": 62, "duration": 16, "velocity": 69}, {"time": 5241, "pitch": 67, "duration": 14, "velocity": 69}, {"time": 5241, "pitch": 70, "duration": 16, "velocity": 69}, {"time": 5241, "pitch": 41, "duration": 19, "velocity": 79}, {"time": 5253, "pitch": 53, "duration": 24, "velocity": 28}, {"time": 5265, "pitch": 62, "duration": 14, "velocity": 67}, {"time": 5265, "pitch": 67, "duration": 11, "velocity": 66}, {"time": 5265, "pitch": 70, "duration": 11, "velocity": 61}, {"time": 5265, "pitch": 41, "duration": 20, "velocity": 100}, {"time": 5289, "pitch": 62, "duration": 15, "velocity": 64}, {"time": 5289, "pitch": 65, "duration": 15, "velocity": 73}, {"time": 5289, "pitch": 70, "duration": 19, "velocity": 70}, {"time": 5289, "pitch": 43, "duration": 68, "velocity": 64}, {"time": 5298, "pitch": 55, "duration": 35, "velocity": 21}, {"time": 5313, "pitch": 62, "duration": 10, "velocity": 64}, {"time": 5313, "pitch": 65, "duration": 9, "velocity": 72}, {"time": 5313, "pitch": 70, "duration": 11, "velocity": 52}, {"time": 5325, "pitch": 50, "duration": 4, "velocity": 48}, {"time": 5332, "pitch": 53, "duration": 7, "velocity": 62}, {"time": 5337, "pitch": 48, "duration": 14, "velocity": 69}, {"time": 5337, "pitch": 60, "duration": 11, "velocity": 71}, {"time": 5337, "pitch": 65, "duration": 12, "velocity": 71}, {"time": 5337, "pitch": 69, "duration": 11, "velocity": 71}, {"time": 5355, "pitch": 48, "duration": 3, "velocity": 74}, {"time": 5361, "pitch": 36, "duration": 13, "velocity": 70}, {"time": 5361, "pitch": 60, "duration": 14, "velocity": 48}, {"time": 5361, "pitch": 65, "duration": 11, "velocity": 54}, {"time": 5361, "pitch": 70, "duration": 13, "velocity": 69}, {"time": 5373, "pitch": 48, "duration": 4, "velocity": 56}, {"time": 5373, "pitch": 67, "duration": 4, "velocity": 72}, {"time": 5385, "pitch": 41, "duration": 37, "velocity": 67}, {"time": 5385, "pitch": 53, "duration": 12, "velocity": 48}, {"time": 5385, "pitch": 60, "duration": 15, "velocity": 67}, {"time": 5385, "pitch": 65, "duration": 13, "velocity": 64}, {"time": 5385, "pitch": 69, "duration": 16, "velocity": 69}, {"time": 5400, "pitch": 53, "duration": 13, "velocity": 35}, {"time": 5409, "pitch": 60, "duration": 8, "velocity": 67}, {"time": 5409, "pitch": 65, "duration": 10, "velocity": 73}, {"time": 5409, "pitch": 69, "duration": 11, "velocity": 72}, {"time": 5421, "pitch": 60, "duration": 4, "velocity": 57}, {"time": 5421, "pitch": 67, "duration": 10, "velocity": 61}, {"time": 5427, "pitch": 53, "duration": 6, "velocity": 39}, {"time": 5427, "pitch": 41, "duration": 2, "velocity": 100}, {"time": 5433, "pitch": 60, "duration": 3, "velocity": 72}, {"time": 5433, "pitch": 69, "duration": 4, "velocity": 73}, {"time": 5433, "pitch": 41, "duration": 13, "velocity": 100}, {"time": 5445, "pitch": 53, "duration": 7, "velocity": 48}, {"time": 5457, "pitch": 53, "duration": 6, "velocity": 60}, {"time": 5457, "pitch": 69, "duration": 4, "velocity": 66}, {"time": 5457, "pitch": 77, "duration": 11, "velocity": 76}, {"time": 5469, "pitch": 40, "duration": 5, "velocity": 53}, {"time": 5469, "pitch": 67, "duration": 6, "velocity": 59}, {"time": 5469, "pitch": 74, "duration": 8, "velocity": 70}, {"time": 5481, "pitch": 41, "duration": 39, "velocity": 67}, {"time": 5481, "pitch": 53, "duration": 33, "velocity": 67}, {"time": 5481, "pitch": 60, "duration": 19, "velocity": 66}, {"time": 5481, "pitch": 63, "duration": 13, "velocity": 72}, {"time": 5481, "pitch": 65, "duration": 19, "velocity": 72}, {"time": 5481, "pitch": 69, "duration": 19, "velocity": 63}, {"time": 5505, "pitch": 60, "duration": 20, "velocity": 63}, {"time": 5505, "pitch": 63, "duration": 13, "velocity": 72}, {"time": 5505, "pitch": 65, "duration": 19, "velocity": 64}, {"time": 5505, "pitch": 69, "duration": 22, "velocity": 61}, {"time": 5517, "pitch": 53, "duration": 5, "velocity": 43}, {"time": 5520, "pitch": 43, "duration": 6, "velocity": 53}, {"time": 5526, "pitch": 45, "duration": 32, "velocity": 64}, {"time": 5529, "pitch": 60, "duration": 20, "velocity": 75}, {"time": 5529, "pitch": 63, "duration": 16, "velocity": 75}, {"time": 5529, "pitch": 65, "duration": 20, "velocity": 73}, {"time": 5529, "pitch": 69, "duration": 20, "velocity": 67}, {"time": 5553, "pitch": 60, "duration": 12, "velocity": 66}, {"time": 5553, "pitch": 63, "duration": 11, "velocity": 72}, {"time": 5553, "pitch": 65, "duration": 10, "velocity": 70}, {"time": 5553, "pitch": 69, "duration": 12, "velocity": 66}, {"time": 5565, "pitch": 45, "duration": 14, "velocity": 72}, {"time": 5577, "pitch": 46, "duration": 31, "velocity": 82}, {"time": 5577, "pitch": 62, "duration": 18, "velocity": 70}, {"time": 5577, "pitch": 65, "duration": 18, "velocity": 75}, {"time": 5577, "pitch": 70, "duration": 19, "velocity": 73}, {"time": 5601, "pitch": 62, "duration": 19, "velocity": 66}, {"time": 5601, "pitch": 65, "duration": 16, "velocity": 70}, {"time": 5601, "pitch": 70, "duration": 18, "velocity": 69}, {"time": 5613, "pitch": 46, "duration": 8, "velocity": 69}, {"time": 5625, "pitch": 47, "duration": 32, "velocity": 63}, {"time": 5625, "pitch": 62, "duration": 18, "velocity": 67}, {"time": 5625, "pitch": 65, "duration": 19, "velocity": 73}, {"time": 5625, "pitch": 69, "duration": 18, "velocity": 72}, {"time": 5649, "pitch": 62, "duration": 16, "velocity": 67}, {"time": 5649, "pitch": 65, "duration": 15, "velocity": 72}, {"time": 5649, "pitch": 69, "duration": 16, "velocity": 66}, {"time": 5661, "pitch": 47, "duration": 10, "velocity": 62}, {"time": 5673, "pitch": 48, "duration": 30, "velocity": 80}, {"time": 5673, "pitch": 60, "duration": 19, "velocity": 72}, {"time": 5673, "pitch": 65, "duration": 19, "velocity": 75}, {"time": 5673, "pitch": 69, "duration": 18, "velocity": 69}, {"time": 5697, "pitch": 60, "duration": 14, "velocity": 70}, {"time": 5697, "pitch": 65, "duration": 16, "velocity": 75}, {"time": 5697, "pitch": 69, "duration": 15, "velocity": 69}, {"time": 5706, "pitch": 48, "duration": 12, "velocity": 61}, {"time": 5721, "pitch": 43, "duration": 16, "velocity": 67}, {"time": 5721, "pitch": 62, "duration": 19, "velocity": 63}, {"time": 5721, "pitch": 67, "duration": 20, "velocity": 76}, {"time": 5721, "pitch": 71, "duration": 19, "velocity": 80}, {"time": 5739, "pitch": 43, "duration": 4, "velocity": 72}, {"time": 5745, "pitch": 62, "duration": 15, "velocity": 72}, {"time": 5745, "pitch": 67, "duration": 15, "velocity": 72}, {"time": 5745, "pitch": 71, "duration": 13, "velocity": 72}, {"time": 5745, "pitch": 43, "duration": 9, "velocity": 72}, {"time": 5763, "pitch": 43, "duration": 5, "velocity": 100}, {"time": 5769, "pitch": 48, "duration": 81, "velocity": 73}, {"time": 5769, "pitch": 60, "duration": 12, "velocity": 73}, {"time": 5769, "pitch": 65, "duration": 12, "velocity": 73}, {"time": 5769, "pitch": 67, "duration": 14, "velocity": 75}, {"time": 5769, "pitch": 72, "duration": 19, "velocity": 67}, {"time": 5781, "pitch": 55, "duration": 13, "velocity": 29}, {"time": 5793, "pitch": 60, "duration": 13, "velocity": 59}, {"time": 5793, "pitch": 65, "duration": 6, "velocity": 69}, {"time": 5793, "pitch": 67, "duration": 7, "velocity": 75}, {"time": 5793, "pitch": 72, "duration": 8, "velocity": 66}, {"time": 5805, "pitch": 55, "duration": 47, "velocity": 47}, {"time": 5817, "pitch": 60, "duration": 28, "velocity": 47}, {"time": 5817, "pitch": 72, "duration": 29, "velocity": 56}, {"time": 5817, "pitch": 77, "duration": 29, "velocity": 61}, {"time": 5817, "pitch": 84, "duration": 29, "velocity": 64}, {"time": 5865, "pitch": 41, "duration": 18, "velocity": 75}, {"time": 5865, "pitch": 60, "duration": 16, "velocity": 75}, {"time": 5865, "pitch": 65, "duration": 15, "velocity": 78}, {"time": 5865, "pitch": 69, "duration": 18, "velocity": 70}, {"time": 5865, "pitch": 72, "duration": 22, "velocity": 67}, {"time": 5877, "pitch": 53, "duration": 18, "velocity": 37}, {"time": 5886, "pitch": 41, "duration": 4, "velocity": 70}, {"time": 5889, "pitch": 60, "duration": 12, "velocity": 70}, {"time": 5889, "pitch": 65, "duration": 12, "velocity": 70}, {"time": 5889, "pitch": 69, "duration": 13, "velocity": 70}, {"time": 5889, "pitch": 72, "duration": 15, "velocity": 70}, {"time": 5901, "pitch": 41, "duration": 23, "velocity": 65}, {"time": 5901, "pitch": 53, "duration": 17, "velocity": 63}, {"time": 5925, "pitch": 53, "duration": 16, "velocity": 46}, {"time": 5937, "pitch": 60, "duration": 11, "velocity": 76}, {"time": 5937, "pitch": 65, "duration": 8, "velocity": 78}, {"time": 5937, "pitch": 69, "duration": 9, "velocity": 72}, {"time": 5937, "pitch": 41, "duration": 11, "velocity": 100}, {"time": 5949, "pitch": 53, "duration": 3, "velocity": 59}, {"time": 5961, "pitch": 41, "duration": 35, "velocity": 69}, {"time": 5961, "pitch": 53, "duration": 28, "velocity": 61}, {"time": 5961, "pitch": 62, "duration": 17, "velocity": 64}, {"time": 5961, "pitch": 65, "duration": 16, "velocity": 70}, {"time": 5961, "pitch": 70, "duration": 17, "velocity": 75}, {"time": 5985, "pitch": 62, "duration": 15, "velocity": 61}, {"time": 5985, "pitch": 65, "duration": 12, "velocity": 59}, {"time": 5985, "pitch": 70, "duration": 14, "velocity": 70}, {"time": 5997, "pitch": 53, "duration": 16, "velocity": 35}, {"time": 6006, "pitch": 41, "duration": 3, "velocity": 58}, {"time": 6009, "pitch": 62, "duration": 13, "velocity": 61}, {"time": 6009, "pitch": 65, "duration": 11, "velocity": 61}, {"time": 6009, "pitch": 70, "duration": 13, "velocity": 61}, {"time": 6010, "pitch": 41, "duration": 10, "velocity": 63}, {"time": 6021, "pitch": 53, "duration": 15, "velocity": 38}, {"time": 6033, "pitch": 41, "duration": 13, "velocity": 100}, {"time": 6033, "pitch": 62, "duration": 10, "velocity": 72}, {"time": 6033, "pitch": 65, "duration": 9, "velocity": 76}, {"time": 6033, "pitch": 70, "duration": 12, "velocity": 72}, {"time": 6042, "pitch": 53, "duration": 7, "velocity": 61}, {"time": 6048, "pitch": 42, "duration": 4, "velocity": 66}, {"time": 6057, "pitch": 43, "duration": 37, "velocity": 85}, {"time": 6057, "pitch": 62, "duration": 15, "velocity": 63}, {"time": 6057, "pitch": 65, "duration": 14, "velocity": 67}, {"time": 6057, "pitch": 70, "duration": 15, "velocity": 66}, {"time": 6066, "pitch": 55, "duration": 18, "velocity": 44}, {"time": 6081, "pitch": 62, "duration": 14, "velocity": 66}, {"time": 6081, "pitch": 65, "duration": 13, "velocity": 70}, {"time": 6081, "pitch": 70, "duration": 15, "velocity": 63}, {"time": 6093, "pitch": 55, "duration": 12, "velocity": 55}, {"time": 6099, "pitch": 43, "duration": 4, "velocity": 61}, {"time": 6102, "pitch": 45, "duration": 3, "velocity": 68}, {"time": 6105, "pitch": 48, "duration": 32, "velocity": 68}, {"time": 6105, "pitch": 60, "duration": 16, "velocity": 68}, {"time": 6105, "pitch": 65, "duration": 16, "velocity": 68}, {"time": 6105, "pitch": 67, "duration": 13, "velocity": 68}, {"time": 6105, "pitch": 69, "duration": 14, "velocity": 68}, {"time": 6129, "pitch": 60, "duration": 12, "velocity": 62}, {"time": 6129, "pitch": 64, "duration": 12, "velocity": 66}, {"time": 6129, "pitch": 67, "duration": 12, "velocity": 72}, {"time": 6129, "pitch": 70, "duration": 14, "velocity": 64}, {"time": 6141, "pitch": 48, "duration": 4, "velocity": 70}, {"time": 6153, "pitch": 41, "duration": 39, "velocity": 62}, {"time": 6153, "pitch": 53, "duration": 50, "velocity": 64}, {"time": 6153, "pitch": 60, "duration": 13, "velocity": 67}, {"time": 6153, "pitch": 65, "duration": 15, "velocity": 64}, {"time": 6153, "pitch": 67, "duration": 16, "velocity": 67}, {"time": 6153, "pitch": 69, "duration": 17, "velocity": 64}, {"time": 6177, "pitch": 60, "duration": 11, "velocity": 70}, {"time": 6177, "pitch": 65, "duration": 11, "velocity": 69}, {"time": 6177, "pitch": 67, "duration": 10, "velocity": 62}, {"time": 6177, "pitch": 69, "duration": 17, "velocity": 61}, {"time": 6198, "pitch": 41, "duration": 1, "velocity": 100}, {"time": 6201, "pitch": 60, "duration": 12, "velocity": 56}, {"time": 6201, "pitch": 65, "duration": 14, "velocity": 66}, {"time": 6201, "pitch": 67, "duration": 14, "velocity": 66}, {"time": 6201, "pitch": 69, "duration": 17, "velocity": 52}, {"time": 6201, "pitch": 41, "duration": 23, "velocity": 100}, {"time": 6210, "pitch": 53, "duration": 19, "velocity": 46}, {"time": 6225, "pitch": 60, "duration": 9, "velocity": 69}, {"time": 6225, "pitch": 65, "duration": 9, "velocity": 66}, {"time": 6225, "pitch": 67, "duration": 7, "velocity": 64}, {"time": 6225, "pitch": 69, "duration": 9, "velocity": 59}, {"time": 6234, "pitch": 53, "duration": 9, "velocity": 49}, {"time": 6243, "pitch": 48, "duration": 7, "velocity": 66}, {"time": 6249, "pitch": 41, "duration": 32, "velocity": 75}, {"time": 6249, "pitch": 60, "duration": 15, "velocity": 62}, {"time": 6249, "pitch": 63, "duration": 17, "velocity": 70}, {"time": 6249, "pitch": 65, "duration": 16, "velocity": 50}, {"time": 6249, "pitch": 69, "duration": 16, "velocity": 62}, {"time": 6261, "pitch": 53, "duration": 16, "velocity": 37}, {"time": 6273, "pitch": 60, "duration": 20, "velocity": 67}, {"time": 6273, "pitch": 63, "duration": 20, "velocity": 70}, {"time": 6273, "pitch": 65, "duration": 20, "velocity": 67}, {"time": 6273, "pitch": 69, "duration": 19, "velocity": 64}, {"time": 6285, "pitch": 41, "duration": 7, "velocity": 62}, {"time": 6285, "pitch": 53, "duration": 5, "velocity": 40}, {"time": 6297, "pitch": 41, "duration": 6, "velocity": 76}, {"time": 6297, "pitch": 53, "duration": 4, "velocity": 61}, {"time": 6297, "pitch": 60, "duration": 12, "velocity": 70}, {"time": 6297, "pitch": 63, "duration": 11, "velocity": 70}, {"time": 6297, "pitch": 65, "duration": 10, "velocity": 66}, {"time": 6297, "pitch": 69, "duration": 22, "velocity": 69}, {"time": 6303, "pitch": 43, "duration": 7, "velocity": 64}, {"time": 6309, "pitch": 45, "duration": 19, "velocity": 85}, {"time": 6321, "pitch": 60, "duration": 10, "velocity": 73}, {"time": 6321, "pitch": 63, "duration": 10, "velocity": 75}, {"time": 6321, "pitch": 65, "duration": 10, "velocity": 70}, {"time": 6321, "pitch": 69, "duration": 12, "velocity": 59}, {"time": 6330, "pitch": 45, "duration": 14, "velocity": 66}, {"time": 6345, "pitch": 46, "duration": 41, "velocity": 91}, {"time": 6345, "pitch": 62, "duration": 21, "velocity": 72}, {"time": 6345, "pitch": 65, "duration": 22, "velocity": 76}, {"time": 6345, "pitch": 70, "duration": 23, "velocity": 72}, {"time": 6360, "pitch": 58, "duration": 15, "velocity": 33}, {"time": 6369, "pitch": 62, "duration": 15, "velocity": 72}, {"time": 6369, "pitch": 65, "duration": 14, "velocity": 73}, {"time": 6369, "pitch": 70, "duration": 15, "velocity": 73}, {"time": 6381, "pitch": 58, "duration": 4, "velocity": 50}, {"time": 6393, "pitch": 47, "duration": 38, "velocity": 64}, {"time": 6393, "pitch": 59, "duration": 36, "velocity": 60}, {"time": 6393, "pitch": 62, "duration": 18, "velocity": 66}, {"time": 6393, "pitch": 65, "duration": 20, "velocity": 72}, {"time": 6393, "pitch": 69, "duration": 23, "velocity": 70}, {"time": 6417, "pitch": 62, "duration": 13, "velocity": 60}, {"time": 6429, "pitch": 69, "duration": 4, "velocity": 57}, {"time": 6441, "pitch": 45, "duration": 24, "velocity": 72}, {"time": 6441, "pitch": 60, "duration": 15, "velocity": 67}, {"time": 6441, "pitch": 65, "duration": 15, "velocity": 60}, {"time": 6441, "pitch": 69, "duration": 16, "velocity": 67}, {"time": 6456, "pitch": 57, "duration": 9, "velocity": 23}, {"time": 6465, "pitch": 48, "duration": 8, "velocity": 51}, {"time": 6465, "pitch": 60, "duration": 12, "velocity": 78}, {"time": 6465, "pitch": 65, "duration": 12, "velocity": 75}, {"time": 6465, "pitch": 69, "duration": 12, "velocity": 75}, {"time": 6477, "pitch": 48, "duration": 3, "velocity": 70}, {"time": 6489, "pitch": 43, "duration": 22, "velocity": 67}, {"time": 6489, "pitch": 55, "duration": 22, "velocity": 48}, {"time": 6489, "pitch": 62, "duration": 16, "velocity": 67}, {"time": 6489, "pitch": 65, "duration": 15, "velocity": 72}, {"time": 6489, "pitch": 70, "duration": 17, "velocity": 66}, {"time": 6513, "pitch": 48, "duration": 16, "velocity": 72}, {"time": 6513, "pitch": 60, "duration": 17, "velocity": 69}, {"time": 6513, "pitch": 65, "duration": 16, "velocity": 69}, {"time": 6513, "pitch": 69, "duration": 16, "velocity": 64}, {"time": 6537, "pitch": 41, "duration": 11, "velocity": 72}, {"time": 6537, "pitch": 60, "duration": 13, "velocity": 69}, {"time": 6537, "pitch": 65, "duration": 14, "velocity": 66}, {"time": 6537, "pitch": 69, "duration": 12, "velocity": 62}, {"time": 6549, "pitch": 53, "duration": 15, "velocity": 51}, {"time": 6561, "pitch": 55, "duration": 12, "velocity": 60}, {"time": 6561, "pitch": 60, "duration": 11, "velocity": 70}, {"time": 6561, "pitch": 65, "duration": 9, "velocity": 73}, {"time": 6561, "pitch": 70, "duration": 15, "velocity": 75}, {"time": 6573, "pitch": 57, "duration": 2, "velocity": 67}, {"time": 6573, "pitch": 72, "duration": 5, "velocity": 64}, {"time": 6585, "pitch": 43, "duration": 35, "velocity": 75}, {"time": 6585, "pitch": 62, "duration": 14, "velocity": 67}, {"time": 6585, "pitch": 65, "duration": 14, "velocity": 67}, {"time": 6585, "pitch": 70, "duration": 15, "velocity": 80}, {"time": 6591, "pitch": 55, "duration": 22, "velocity": 17}, {"time": 6609, "pitch": 62, "duration": 11, "velocity": 62}, {"time": 6609, "pitch": 65, "duration": 10, "velocity": 69}, {"time": 6609, "pitch": 70, "duration": 10, "velocity": 69}, {"time": 6621, "pitch": 55, "duration": 3, "velocity": 46}, {"time": 6633, "pitch": 45, "duration": 37, "velocity": 63}, {"time": 6633, "pitch": 57, "duration": 29, "velocity": 53}, {"time": 6633, "pitch": 60, "duration": 15, "velocity": 67}, {"time": 6633, "pitch": 65, "duration": 16, "velocity": 66}, {"time": 6633, "pitch": 69, "duration": 14, "velocity": 64}, {"time": 6657, "pitch": 60, "duration": 11, "velocity": 64}, {"time": 6657, "pitch": 65, "duration": 11, "velocity": 64}, {"time": 6657, "pitch": 69, "duration": 12, "velocity": 60}, {"time": 6669, "pitch": 57, "duration": 3, "velocity": 47}, {"time": 6681, "pitch": 46, "duration": 40, "velocity": 66}, {"time": 6681, "pitch": 58, "duration": 31, "velocity": 63}, {"time": 6681, "pitch": 62, "duration": 17, "velocity": 64}, {"time": 6681, "pitch": 65, "duration": 15, "velocity": 70}, {"time": 6681, "pitch": 70, "duration": 18, "velocity": 66}, {"time": 6705, "pitch": 62, "duration": 13, "velocity": 63}, {"time": 6705, "pitch": 65, "duration": 13, "velocity": 69}, {"time": 6705, "pitch": 70, "duration": 14, "velocity": 63}, {"time": 6717, "pitch": 58, "duration": 5, "velocity": 43}, {"time": 6729, "pitch": 48, "duration": 45, "velocity": 60}, {"time": 6729, "pitch": 60, "duration": 24, "velocity": 62}, {"time": 6729, "pitch": 65, "duration": 38, "velocity": 64}, {"time": 6729, "pitch": 67, "duration": 36, "velocity": 50}, {"time": 6729, "pitch": 72, "duration": 44, "velocity": 59}, {"time": 6777, "pitch": 45, "duration": 35, "velocity": 41}, {"time": 6777, "pitch": 61, "duration": 14, "velocity": 60}, {"time": 6777, "pitch": 69, "duration": 15, "velocity": 58}, {"time": 6789, "pitch": 57, "duration": 34, "velocity": 34}, {"time": 6801, "pitch": 61, "duration": 11, "velocity": 70}, {"time": 6813, "pitch": 64, "duration": 8, "velocity": 62}, {"time": 6825, "pitch": 50, "duration": 74, "velocity": 53}, {"time": 6825, "pitch": 60, "duration": 15, "velocity": 55}, {"time": 6825, "pitch": 65, "duration": 16, "velocity": 63}, {"time": 6846, "pitch": 69, "duration": 11, "velocity": 38}, {"time": 6861, "pitch": 72, "duration": 4, "velocity": 53}, {"time": 6873, "pitch": 77, "duration": 4, "velocity": 63}, {"time": 6921, "pitch": 43, "duration": 12, "velocity": 47}, {"time": 6921, "pitch": 55, "duration": 12, "velocity": 43}, {"time": 6921, "pitch": 62, "duration": 14, "velocity": 43}, {"time": 6921, "pitch": 65, "duration": 13, "velocity": 48}, {"time": 6921, "pitch": 70, "duration": 14, "velocity": 48}, {"time": 6945, "pitch": 45, "duration": 10, "velocity": 39}, {"time": 6945, "pitch": 57, "duration": 11, "velocity": 43}, {"time": 6945, "pitch": 60, "duration": 10, "velocity": 46}, {"time": 6945, "pitch": 65, "duration": 10, "velocity": 50}, {"time": 6945, "pitch": 69, "duration": 12, "velocity": 48}, {"time": 6969, "pitch": 46, "duration": 72, "velocity": 55}, {"time": 6969, "pitch": 58, "duration": 72, "velocity": 50}, {"time": 6969, "pitch": 62, "duration": 12, "velocity": 43}, {"time": 6969, "pitch": 65, "duration": 12, "velocity": 50}, {"time": 6969, "pitch": 70, "duration": 15, "velocity": 56}, {"time": 6993, "pitch": 62, "duration": 14, "velocity": 39}, {"time": 7005, "pitch": 65, "duration": 32, "velocity": 36}, {"time": 7017, "pitch": 72, "duration": 22, "velocity": 36}, {"time": 7065, "pitch": 53, "duration": 22, "velocity": 56}, {"time": 7077, "pitch": 60, "duration": 10, "velocity": 44}, {"time": 7077, "pitch": 77, "duration": 9, "velocity": 69}, {"time": 7089, "pitch": 65, "duration": 15, "velocity": 44}, {"time": 7089, "pitch": 76, "duration": 6, "velocity": 46}, {"time": 7101, "pitch": 67, "duration": 31, "velocity": 43}, {"time": 7101, "pitch": 79, "duration": 8, "velocity": 55}, {"time": 7107, "pitch": 72, "duration": 30, "velocity": 67}, {"time": 7113, "pitch": 69, "duration": 18, "velocity": 48}, {"time": 7149, "pitch": 69, "duration": 8, "velocity": 48}, {"time": 7155, "pitch": 70, "duration": 5, "velocity": 55}, {"time": 7161, "pitch": 53, "duration": 74, "velocity": 63}, {"time": 7161, "pitch": 72, "duration": 14, "velocity": 63}, {"time": 7173, "pitch": 58, "duration": 22, "velocity": 48}, {"time": 7185, "pitch": 60, "duration": 57, "velocity": 44}, {"time": 7185, "pitch": 69, "duration": 10, "velocity": 56}, {"time": 7197, "pitch": 65, "duration": 25, "velocity": 55}, {"time": 7197, "pitch": 72, "duration": 40, "velocity": 62}, {"time": 7197, "pitch": 77, "duration": 48, "velocity": 73}, {"time": 7233, "pitch": 65, "duration": 12, "velocity": 29}, {"time": 7239, "pitch": 70, "duration": 5, "velocity": 48}, {"time": 7245, "pitch": 72, "duration": 6, "velocity": 44}, {"time": 7251, "pitch": 77, "duration": 8, "velocity": 63}, {"time": 7257, "pitch": 53, "duration": 74, "velocity": 58}, {"time": 7257, "pitch": 69, "duration": 12, "velocity": 47}, {"time": 7257, "pitch": 72, "duration": 11, "velocity": 51}, {"time": 7269, "pitch": 60, "duration": 15, "velocity": 40}, {"time": 7269, "pitch": 77, "duration": 10, "velocity": 67}, {"time": 7269, "pitch": 89, "duration": 10, "velocity": 67}, {"time": 7281, "pitch": 65, "duration": 13, "velocity": 39}, {"time": 7281, "pitch": 76, "duration": 11, "velocity": 61}, {"time": 7281, "pitch": 88, "duration": 11, "velocity": 61}, {"time": 7293, "pitch": 60, "duration": 41, "velocity": 42}, {"time": 7293, "pitch": 79, "duration": 10, "velocity": 48}, {"time": 7293, "pitch": 91, "duration": 10, "velocity": 48}, {"time": 7299, "pitch": 72, "duration": 27, "velocity": 62}, {"time": 7299, "pitch": 84, "duration": 27, "velocity": 62}, {"time": 7305, "pitch": 65, "duration": 27, "velocity": 45}, {"time": 7341, "pitch": 69, "duration": 6, "velocity": 36}, {"time": 7341, "pitch": 81, "duration": 6, "velocity": 36}, {"time": 7347, "pitch": 70, "duration": 6, "velocity": 56}, {"time": 7347, "pitch": 82, "duration": 6, "velocity": 56}, {"time": 7353, "pitch": 53, "duration": 79, "velocity": 60}, {"time": 7353, "pitch": 72, "duration": 10, "velocity": 51}, {"time": 7353, "pitch": 84, "duration": 10, "velocity": 51}, {"time": 7365, "pitch": 58, "duration": 69, "velocity": 58}, {"time": 7377, "pitch": 62, "duration": 55, "velocity": 32}, {"time": 7377, "pitch": 70, "duration": 9, "velocity": 44}, {"time": 7389, "pitch": 65, "duration": 41, "velocity": 51}, {"time": 7389, "pitch": 72, "duration": 34, "velocity": 60}, {"time": 7389, "pitch": 77, "duration": 36, "velocity": 67}, {"time": 7425, "pitch": 76, "duration": 11, "velocity": 63}, {"time": 7437, "pitch": 77, "duration": 5, "velocity": 46}, {"time": 7440, "pitch": 74, "duration": 4, "velocity": 39}], "annotations": [{"time": 202, "annotation": {"number": 64, "value": 127}, "group": "control_change"}, {"time": 295, "annotation": {"number": 64, "value": 0}, "group": "control_change"}, {"time": 299, "annotation": {"number": 64, "value": 127}, "group": "control_change"}, {"time": 391, "annotation": {"number": 64, "value": 0}, "group": "control_change"}, {"time": 400, "annotation": {"number": 64, "value": 127}, "group": "control_change"}, {"time": 486, "annotation": {"number": 64, "value": 0}, "group": "control_change"}, {"time": 492, "annotation": {"number": 64, "value": 127}, "group": "control_change"}, {"time": 585, "annotation": {"number": 64, "value": 0}, "group": "control_change"}, {"time": 586, "annotation": {"number": 64, "value": 127}, "group": "control_change"}, {"time": 635, "annotation": {"number": 64, "value": 0}, "group": "control_change"}, {"time": 641, "annotation": {"number": 64, "value": 127}, "group": "control_change"}, {"time": 657, "annotation": {"number": 64, "value": 0}, "group": "control_change"}, {"time": 663, "annotation": {"number": 64, "value": 127}, "group": "control_change"}, {"time": 682, "annotation": {"number": 64, "value": 0}, "group": "control_change"}, {"time": 689, "annotation": {"number": 64, "value": 127}, "group": "control_change"}, {"time": 729, "annotation": {"number": 64, "value": 0}, "group": "control_change"}, {"time": 737, "annotation": {"number": 64, "value": 127}, "group": "control_change"}, {"time": 777, "annotation": {"number": 64, "value": 0}, "group": "control_change"}, {"time": 830, "annotation": {"number": 64, "value": 127}, "group": "control_change"}, {"time": 873, "annotation": {"number": 64, "value": 0}, "group": "control_change"}, {"time": 882, "annotation": {"number": 64, "value": 127}, "group": "control_change"}, {"time": 970, "annotation": {"number": 64, "value": 0}, "group": "control_change"}, {"time": 981, "annotation": {"number": 64, "value": 127}, "group": "control_change"}, {"time": 1063, "annotation": {"number": 64, "value": 0}, "group": "control_change"}, {"time": 1075, "annotation": {"number": 64, "value": 127}, "group": "control_change"}, {"time": 1162, "annotation": {"number": 64, "value": 0}, "group": "control_change"}, {"time": 1173, "annotation": {"number": 64, "value": 127}, "group": "control_change"}, {"time": 1207, "annotation": {"number": 64, "value": 0}, "group": "control_change"}, {"time": 1219, "annotation": {"number": 64, "value": 127}, "group": "control_change"}, {"time": 1254, "annotation": {"number": 64, "value": 0}, "group": "control_change"}, {"time": 1268, "annotation": {"number": 64, "value": 127}, "group": "control_change"}, {"time": 1353, "annotation": {"number": 64, "value": 0}, "group": "control_change"}, {"time": 1365, "annotation": {"number": 64, "value": 127}, "group": "control_change"}, {"time": 1425, "annotation": {"number": 64, "value": 0}, "group": "control_change"}, {"time": 1448, "annotation": {"number": 64, "value": 0}, "group": "control_change"}, {"time": 1453, "annotation": {"number": 64, "value": 127}, "group": "control_change"}, {"time": 1498, "annotation": {"number": 64, "value": 0}, "group": "control_change"}, {"time": 1508, "annotation": {"number": 64, "value": 127}, "group": "control_change"}, {"time": 1545, "annotation": {"number": 64, "value": 0}, "group": "control_change"}, {"time": 1551, "annotation": {"number": 64, "value": 127}, "group": "control_change"}, {"time": 1639, "annotation": {"number": 64, "value": 0}, "group": "control_change"}, {"time": 1654, "annotation": {"number": 64, "value": 127}, "group": "control_change"}, {"time": 1737, "annotation": {"number": 64, "value": 0}, "group": "control_change"}, {"time": 1738, "annotation": {"number": 64, "value": 127}, "group": "control_change"}, {"time": 1768, "annotation": {"number": 64, "value": 0}, "group": "control_change"}, {"time": 1835, "annotation": {"number": 64, "value": 0}, "group": "control_change"}, {"time": 1844, "annotation": {"number": 64, "value": 127}, "group": "control_change"}, {"time": 1929, "annotation": {"number": 64, "value": 0}, "group": "control_change"}, {"time": 1940, "annotation": {"number": 64, "value": 127}, "group": "control_change"}, {"time": 2001, "annotation": {"number": 64, "value": 0}, "group": "control_change"}, {"time": 2010, "annotation": {"number": 64, "value": 127}, "group": "control_change"}, {"time": 2023, "annotation": {"number": 64, "value": 0}, "group": "control_change"}, {"time": 2037, "annotation": {"number": 64, "value": 127}, "group": "control_change"}, {"time": 2078, "annotation": {"number": 64, "value": 0}, "group": "control_change"}, {"time": 2134, "annotation": {"number": 64, "value": 127}, "group": "control_change"}, {"time": 2168, "annotation": {"number": 64, "value": 0}, "group": "control_change"}, {"time": 2181, "annotation": {"number": 64, "value": 127}, "group": "control_change"}, {"time": 2218, "annotation": {"number": 64, "value": 0}, "group": "control_change"}, {"time": 2230, "annotation": {"number": 64, "value": 127}, "group": "control_change"}, {"time": 2264, "annotation": {"number": 64, "value": 0}, "group": "control_change"}, {"time": 2277, "annotation": {"number": 64, "value": 127}, "group": "control_change"}, {"time": 2314, "annotation": {"number": 64, "value": 0}, "group": "control_change"}, {"time": 2324, "annotation": {"number": 64, "value": 127}, "group": "control_change"}, {"time": 2407, "annotation": {"number": 64, "value": 0}, "group": "control_change"}, {"time": 2419, "annotation": {"number": 64, "value": 127}, "group": "control_change"}, {"time": 2504, "annotation": {"number": 64, "value": 0}, "group": "control_change"}, {"time": 2512, "annotation": {"number": 64, "value": 127}, "group": "control_change"}, {"time": 2553, "annotation": {"number": 64, "value": 0}, "group": "control_change"}, {"time": 2553, "annotation": {"number": 64, "value": 127}, "group": "control_change"}, {"time": 2601, "annotation": {"number": 64, "value": 0}, "group": "control_change"}, {"time": 2607, "annotation": {"number": 64, "value": 127}, "group": "control_change"}, {"time": 2697, "annotation": {"number": 64, "value": 0}, "group": "control_change"}, {"time": 2697, "annotation": {"number": 64, "value": 127}, "group": "control_change"}, {"time": 2794, "annotation": {"number": 64, "value": 0}, "group": "control_change"}, {"time": 2800, "annotation": {"number": 64, "value": 127}, "group": "control_change"}, {"time": 2889, "annotation": {"number": 64, "value": 0}, "group": "control_change"}, {"time": 2891, "annotation": {"number": 64, "value": 127}, "group": "control_change"}, {"time": 2936, "annotation": {"number": 64, "value": 0}, "group": "control_change"}, {"time": 2940, "annotation": {"number": 64, "value": 127}, "group": "control_change"}, {"time": 2983, "annotation": {"number": 64, "value": 0}, "group": "control_change"}, {"time": 2987, "annotation": {"number": 64, "value": 127}, "group": "control_change"}, {"time": 3033, "annotation": {"number": 64, "value": 0}, "group": "control_change"}, {"time": 3039, "annotation": {"number": 64, "value": 127}, "group": "control_change"}, {"time": 3081, "annotation": {"number": 64, "value": 0}, "group": "control_change"}, {"time": 3085, "annotation": {"number": 64, "value": 127}, "group": "control_change"}, {"time": 3129, "annotation": {"number": 64, "value": 0}, "group": "control_change"}, {"time": 3137, "annotation": {"number": 64, "value": 127}, "group": "control_change"}, {"time": 3176, "annotation": {"number": 64, "value": 0}, "group": "control_change"}, {"time": 3180, "annotation": {"number": 64, "value": 127}, "group": "control_change"}, {"time": 3264, "annotation": {"number": 64, "value": 0}, "group": "control_change"}, {"time": 3282, "annotation": {"number": 64, "value": 127}, "group": "control_change"}, {"time": 3372, "annotation": {"number": 64, "value": 0}, "group": "control_change"}, {"time": 3378, "annotation": {"number": 64, "value": 127}, "group": "control_change"}, {"time": 3464, "annotation": {"number": 64, "value": 0}, "group": "control_change"}, {"time": 3471, "annotation": {"number": 64, "value": 127}, "group": "control_change"}, {"time": 3514, "annotation": {"number": 64, "value": 0}, "group": "control_change"}, {"time": 3522, "annotation": {"number": 64, "value": 127}, "group": "control_change"}, {"time": 3561, "annotation": {"number": 64, "value": 0}, "group": "control_change"}, {"time": 3566, "annotation": {"number": 64, "value": 127}, "group": "control_change"}, {"time": 3655, "annotation": {"number": 64, "value": 0}, "group": "control_change"}, {"time": 3662, "annotation": {"number": 64, "value": 127}, "group": "control_change"}, {"time": 3703, "annotation": {"number": 64, "value": 0}, "group": "control_change"}, {"time": 3708, "annotation": {"number": 64, "value": 127}, "group": "control_change"}, {"time": 3752, "annotation": {"number": 64, "value": 0}, "group": "control_change"}, {"time": 3760, "annotation": {"number": 64, "value": 127}, "group": "control_change"}, {"time": 3805, "annotation": {"number": 64, "value": 0}, "group": "control_change"}, {"time": 3812, "annotation": {"number": 64, "value": 127}, "group": "control_change"}, {"time": 3851, "annotation": {"number": 64, "value": 0}, "group": "control_change"}, {"time": 3859, "annotation": {"number": 64, "value": 127}, "group": "control_change"}, {"time": 3898, "annotation": {"number": 64, "value": 0}, "group": "control_change"}, {"time": 3905, "annotation": {"number": 64, "value": 127}, "group": "control_change"}, {"time": 3925, "annotation": {"number": 64, "value": 0}, "group": "control_change"}, {"time": 3932, "annotation": {"number": 64, "value": 127}, "group": "control_change"}, {"time": 3946, "annotation": {"number": 64, "value": 127}, "group": "control_change"}, {"time": 3950, "annotation": {"number": 64, "value": 0}, "group": "control_change"}, {"time": 3958, "annotation": {"number": 64, "value": 127}, "group": "control_change"}, {"time": 3993, "annotation": {"number": 64, "value": 0}, "group": "control_change"}, {"time": 4039, "annotation": {"number": 64, "value": 0}, "group": "control_change"}, {"time": 4043, "annotation": {"number": 64, "value": 127}, "group": "control_change"}, {"time": 4135, "annotation": {"number": 64, "value": 0}, "group": "control_change"}, {"time": 4144, "annotation": {"number": 64, "value": 127}, "group": "control_change"}, {"time": 4230, "annotation": {"number": 64, "value": 0}, "group": "control_change"}, {"time": 4236, "annotation": {"number": 64, "value": 127}, "group": "control_change"}, {"time": 4329, "annotation": {"number": 64, "value": 0}, "group": "control_change"}, {"time": 4330, "annotation": {"number": 64, "value": 127}, "group": "control_change"}, {"time": 4360, "annotation": {"number": 64, "value": 0}, "group": "control_change"}, {"time": 4427, "annotation": {"number": 64, "value": 0}, "group": "control_change"}, {"time": 4436, "annotation": {"number": 64, "value": 127}, "group": "control_change"}, {"time": 4521, "annotation": {"number": 64, "value": 0}, "group": "control_change"}, {"time": 4532, "annotation": {"number": 64, "value": 127}, "group": "control_change"}, {"time": 4593, "annotation": {"number": 64, "value": 0}, "group": "control_change"}, {"time": 4602, "annotation": {"number": 64, "value": 127}, "group": "control_change"}, {"time": 4615, "annotation": {"number": 64, "value": 0}, "group": "control_change"}, {"time": 4629, "annotation": {"number": 64, "value": 127}, "group": "control_change"}, {"time": 4670, "annotation": {"number": 64, "value": 0}, "group": "control_change"}, {"time": 4726, "annotation": {"number": 64, "value": 127}, "group": "control_change"}, {"time": 4760, "annotation": {"number": 64, "value": 0}, "group": "control_change"}, {"time": 4773, "annotation": {"number": 64, "value": 127}, "group": "control_change"}, {"time": 4810, "annotation": {"number": 64, "value": 0}, "group": "control_change"}, {"time": 4822, "annotation": {"number": 64, "value": 127}, "group": "control_change"}, {"time": 4856, "annotation": {"number": 64, "value": 0}, "group": "control_change"}, {"time": 4869, "annotation": {"number": 64, "value": 127}, "group": "control_change"}, {"time": 4906, "annotation": {"number": 64, "value": 0}, "group": "control_change"}, {"time": 4916, "annotation": {"number": 64, "value": 127}, "group": "control_change"}, {"time": 4999, "annotation": {"number": 64, "value": 0}, "group": "control_change"}, {"time": 5011, "annotation": {"number": 64, "value": 127}, "group": "control_change"}, {"time": 5096, "annotation": {"number": 64, "value": 0}, "group": "control_change"}, {"time": 5104, "annotation": {"number": 64, "value": 127}, "group": "control_change"}, {"time": 5145, "annotation": {"number": 64, "value": 0}, "group": "control_change"}, {"time": 5145, "annotation": {"number": 64, "value": 127}, "group": "control_change"}, {"time": 5193, "annotation": {"number": 64, "value": 0}, "group": "control_change"}, {"time": 5199, "annotation": {"number": 64, "value": 127}, "group": "control_change"}, {"time": 5289, "annotation": {"number": 64, "value": 0}, "group": "control_change"}, {"time": 5289, "annotation": {"number": 64, "value": 127}, "group": "control_change"}, {"time": 5386, "annotation": {"number": 64, "value": 0}, "group": "control_change"}, {"time": 5392, "annotation": {"number": 64, "value": 127}, "group": "control_change"}, {"time": 5481, "annotation": {"number": 64, "value": 0}, "group": "control_change"}, {"time": 5483, "annotation": {"number": 64, "value": 127}, "group": "control_change"}, {"time": 5528, "annotation": {"number": 64, "value": 0}, "group": "control_change"}, {"time": 5532, "annotation": {"number": 64, "value": 127}, "group": "control_change"}, {"time": 5575, "annotation": {"number": 64, "value": 0}, "group": "control_change"}, {"time": 5579, "annotation": {"number": 64, "value": 127}, "group": "control_change"}, {"time": 5625, "annotation": {"number": 64, "value": 0}, "group": "control_change"}, {"time": 5631, "annotation": {"number": 64, "value": 127}, "group": "control_change"}, {"time": 5673, "annotation": {"number": 64, "value": 0}, "group": "control_change"}, {"time": 5677, "annotation": {"number": 64, "value": 127}, "group": "control_change"}, {"time": 5721, "annotation": {"number": 64, "value": 0}, "group": "control_change"}, {"time": 5729, "annotation": {"number": 64, "value": 127}, "group": "control_change"}, {"time": 5768, "annotation": {"number": 64, "value": 0}, "group": "control_change"}, {"time": 5772, "annotation": {"number": 64, "value": 127}, "group": "control_change"}, {"time": 5856, "annotation": {"number": 64, "value": 0}, "group": "control_change"}, {"time": 5874, "annotation": {"number": 64, "value": 127}, "group": "control_change"}, {"time": 5964, "annotation": {"number": 64, "value": 0}, "group": "control_change"}, {"time": 5970, "annotation": {"number": 64, "value": 127}, "group": "control_change"}, {"time": 6056, "annotation": {"number": 64, "value": 0}, "group": "control_change"}, {"time": 6063, "annotation": {"number": 64, "value": 127}, "group": "control_change"}, {"time": 6106, "annotation": {"number": 64, "value": 0}, "group": "control_change"}, {"time": 6114, "annotation": {"number": 64, "value": 127}, "group": "control_change"}, {"time": 6153, "annotation": {"number": 64, "value": 0}, "group": "control_change"}, {"time": 6158, "annotation": {"number": 64, "value": 127}, "group": "control_change"}, {"time": 6247, "annotation": {"number": 64, "value": 0}, "group": "control_change"}, {"time": 6254, "annotation": {"number": 64, "value": 127}, "group": "control_change"}, {"time": 6295, "annotation": {"number": 64, "value": 0}, "group": "control_change"}, {"time": 6300, "annotation": {"number": 64, "value": 127}, "group": "control_change"}, {"time": 6344, "annotation": {"number": 64, "value": 0}, "group": "control_change"}, {"time": 6352, "annotation": {"number": 64, "value": 127}, "group": "control_change"}, {"time": 6397, "annotation": {"number": 64, "value": 0}, "group": "control_change"}, {"time": 6404, "annotation": {"number": 64, "value": 127}, "group": "control_change"}, {"time": 6443, "annotation": {"number": 64, "value": 0}, "group": "control_change"}, {"time": 6451, "annotation": {"number": 64, "value": 127}, "group": "control_change"}, {"time": 6490, "annotation": {"number": 64, "value": 0}, "group": "control_change"}, {"time": 6497, "annotation": {"number": 64, "value": 127}, "group": "control_change"}, {"time": 6517, "annotation": {"number": 64, "value": 0}, "group": "control_change"}, {"time": 6524, "annotation": {"number": 64, "value": 127}, "group": "control_change"}, {"time": 6542, "annotation": {"number": 64, "value": 0}, "group": "control_change"}, {"time": 6550, "annotation": {"number": 64, "value": 127}, "group": "control_change"}, {"time": 6585, "annotation": {"number": 64, "value": 0}, "group": "control_change"}, {"time": 6591, "annotation": {"number": 64, "value": 127}, "group": "control_change"}, {"time": 6634, "annotation": {"number": 64, "value": 0}, "group": "control_change"}, {"time": 6640, "annotation": {"number": 64, "value": 127}, "group": "control_change"}, {"time": 6681, "annotation": {"number": 64, "value": 0}, "group": "control_change"}, {"time": 6687, "annotation": {"number": 64, "value": 127}, "group": "control_change"}, {"time": 6729, "annotation": {"number": 64, "value": 0}, "group": "control_change"}, {"time": 6734, "annotation": {"number": 64, "value": 127}, "group": "control_change"}, {"time": 6777, "annotation": {"number": 64, "value": 0}, "group": "control_change"}, {"time": 6777, "annotation": {"number": 64, "value": 127}, "group": "control_change"}, {"time": 6827, "annotation": {"number": 64, "value": 0}, "group": "control_change"}, {"time": 6835, "annotation": {"number": 64, "value": 127}, "group": "control_change"}, {"time": 6922, "annotation": {"number": 64, "value": 0}, "group": "control_change"}, {"time": 6923, "annotation": {"number": 64, "value": 127}, "group": "control_change"}, {"time": 6947, "annotation": {"number": 64, "value": 0}, "group": "control_change"}, {"time": 6952, "annotation": {"number": 64, "value": 127}, "group": "control_change"}, {"time": 6970, "annotation": {"number": 64, "value": 0}, "group": "control_change"}, {"time": 6975, "annotation": {"number": 64, "value": 127}, "group": "control_change"}, {"time": 7066, "annotation": {"number": 64, "value": 127}, "group": "control_change"}, {"time": 7159, "annotation": {"number": 64, "value": 0}, "group": "control_change"}, {"time": 7163, "annotation": {"number": 64, "value": 127}, "group": "control_change"}, {"time": 7255, "annotation": {"number": 64, "value": 0}, "group": "control_change"}, {"time": 7264, "annotation": {"number": 64, "value": 127}, "group": "control_change"}, {"time": 7350, "annotation": {"number": 64, "value": 0}, "group": "control_change"}, {"time": 7356, "annotation": {"number": 64, "value": 127}, "group": "control_change"}, {"time": 7449, "annotation": {"number": 64, "value": 0}, "group": "control_change"}]}]}