{"metadata": {"schema_version": "0.2", "title": "None", "source_filename": "211.mid", "source_format": "midi"}, "resolution": 12, "tempos": [{"time": 0, "qpm": 124.00076053799796}], "key_signatures": [{"time": 0, "root": 0, "mode": "major"}], "time_signatures": [{"time": 0, "numerator": 4, "denominator": 4}], "tracks": [{"program": 0, "is_drum": false, "name": "MELODY", "notes": [{"time": 446, "pitch": 79, "duration": 6, "velocity": 68}, {"time": 452, "pitch": 79, "duration": 6, "velocity": 66}, {"time": 458, "pitch": 79, "duration": 6, "velocity": 64}, {"time": 464, "pitch": 76, "duration": 6, "velocity": 65}, {"time": 470, "pitch": 74, "duration": 6, "velocity": 63}, {"time": 476, "pitch": 76, "duration": 18, "velocity": 87}, {"time": 494, "pitch": 74, "duration": 6, "velocity": 90}, {"time": 500, "pitch": 74, "duration": 6, "velocity": 82}, {"time": 506, "pitch": 74, "duration": 6, "velocity": 74}, {"time": 512, "pitch": 72, "duration": 6, "velocity": 64}, {"time": 518, "pitch": 71, "duration": 6, "velocity": 58}, {"time": 524, "pitch": 72, "duration": 24, "velocity": 63}, {"time": 548, "pitch": 67, "duration": 6, "velocity": 66}, {"time": 554, "pitch": 72, "duration": 6, "velocity": 54}, {"time": 560, "pitch": 72, "duration": 12, "velocity": 62}, {"time": 572, "pitch": 72, "duration": 6, "velocity": 56}, {"time": 578, "pitch": 72, "duration": 6, "velocity": 62}, {"time": 584, "pitch": 69, "duration": 36, "velocity": 56}, {"time": 620, "pitch": 67, "duration": 6, "velocity": 60}, {"time": 626, "pitch": 76, "duration": 6, "velocity": 66}, {"time": 632, "pitch": 69, "duration": 60, "velocity": 55}, {"time": 692, "pitch": 69, "duration": 1, "velocity": 57}, {"time": 704, "pitch": 72, "duration": 6, "velocity": 66}, {"time": 710, "pitch": 72, "duration": 6, "velocity": 66}, {"time": 716, "pitch": 74, "duration": 6, "velocity": 63}, {"time": 722, "pitch": 76, "duration": 6, "velocity": 66}, {"time": 728, "pitch": 74, "duration": 6, "velocity": 50}, {"time": 734, "pitch": 74, "duration": 6, "velocity": 58}, {"time": 740, "pitch": 72, "duration": 6, "velocity": 53}, {"time": 746, "pitch": 69, "duration": 6, "velocity": 49}, {"time": 752, "pitch": 72, "duration": 6, "velocity": 53}, {"time": 758, "pitch": 74, "duration": 6, "velocity": 56}, {"time": 764, "pitch": 74, "duration": 60, "velocity": 68}, {"time": 824, "pitch": 67, "duration": 6, "velocity": 62}, {"time": 830, "pitch": 79, "duration": 6, "velocity": 61}, {"time": 836, "pitch": 79, "duration": 6, "velocity": 60}, {"time": 842, "pitch": 79, "duration": 6, "velocity": 65}, {"time": 848, "pitch": 76, "duration": 6, "velocity": 56}, {"time": 854, "pitch": 76, "duration": 6, "velocity": 62}, {"time": 860, "pitch": 76, "duration": 12, "velocity": 68}, {"time": 872, "pitch": 74, "duration": 6, "velocity": 64}, {"time": 878, "pitch": 74, "duration": 6, "velocity": 59}, {"time": 884, "pitch": 74, "duration": 6, "velocity": 55}, {"time": 890, "pitch": 74, "duration": 6, "velocity": 56}, {"time": 896, "pitch": 72, "duration": 6, "velocity": 47}, {"time": 902, "pitch": 71, "duration": 6, "velocity": 56}, {"time": 908, "pitch": 72, "duration": 24, "velocity": 64}, {"time": 932, "pitch": 72, "duration": 6, "velocity": 84}, {"time": 938, "pitch": 71, "duration": 6, "velocity": 73}, {"time": 944, "pitch": 64, "duration": 12, "velocity": 51}, {"time": 956, "pitch": 74, "duration": 18, "velocity": 68}, {"time": 974, "pitch": 72, "duration": 6, "velocity": 84}, {"time": 980, "pitch": 71, "duration": 18, "velocity": 87}, {"time": 998, "pitch": 72, "duration": 6, "velocity": 63}, {"time": 1004, "pitch": 69, "duration": 36, "velocity": 76}, {"time": 1040, "pitch": 64, "duration": 6, "velocity": 52}, {"time": 1046, "pitch": 67, "duration": 6, "velocity": 56}, {"time": 1052, "pitch": 64, "duration": 6, "velocity": 55}, {"time": 1058, "pitch": 67, "duration": 6, "velocity": 41}, {"time": 1064, "pitch": 64, "duration": 12, "velocity": 53}, {"time": 1076, "pitch": 62, "duration": 12, "velocity": 51}, {"time": 1088, "pitch": 60, "duration": 12, "velocity": 52}, {"time": 1100, "pitch": 57, "duration": 6, "velocity": 48}, {"time": 1106, "pitch": 64, "duration": 6, "velocity": 52}, {"time": 1112, "pitch": 62, "duration": 66, "velocity": 62}, {"time": 1178, "pitch": 64, "duration": 6, "velocity": 92}, {"time": 1184, "pitch": 62, "duration": 6, "velocity": 66}, {"time": 1190, "pitch": 60, "duration": 6, "velocity": 57}, {"time": 1196, "pitch": 62, "duration": 108, "velocity": 68}, {"time": 1304, "pitch": 69, "duration": 6, "velocity": 81}, {"time": 1310, "pitch": 69, "duration": 6, "velocity": 69}, {"time": 1316, "pitch": 69, "duration": 6, "velocity": 68}, {"time": 1322, "pitch": 69, "duration": 6, "velocity": 77}, {"time": 1328, "pitch": 69, "duration": 12, "velocity": 85}, {"time": 1340, "pitch": 69, "duration": 6, "velocity": 91}, {"time": 1346, "pitch": 71, "duration": 9, "velocity": 92}, {"time": 1355, "pitch": 72, "duration": 9, "velocity": 72}, {"time": 1364, "pitch": 71, "duration": 6, "velocity": 85}, {"time": 1370, "pitch": 71, "duration": 6, "velocity": 84}, {"time": 1376, "pitch": 67, "duration": 18, "velocity": 87}, {"time": 1394, "pitch": 67, "duration": 12, "velocity": 97}, {"time": 1406, "pitch": 69, "duration": 6, "velocity": 97}, {"time": 1412, "pitch": 67, "duration": 18, "velocity": 91}, {"time": 1430, "pitch": 62, "duration": 6, "velocity": 64}, {"time": 1436, "pitch": 64, "duration": 60, "velocity": 90}, {"time": 1496, "pitch": 64, "duration": 6, "velocity": 84}, {"time": 1502, "pitch": 64, "duration": 6, "velocity": 83}, {"time": 1508, "pitch": 64, "duration": 6, "velocity": 73}, {"time": 1514, "pitch": 64, "duration": 6, "velocity": 79}, {"time": 1520, "pitch": 64, "duration": 6, "velocity": 75}, {"time": 1526, "pitch": 64, "duration": 6, "velocity": 73}, {"time": 1532, "pitch": 64, "duration": 6, "velocity": 69}, {"time": 1538, "pitch": 67, "duration": 9, "velocity": 92}, {"time": 1547, "pitch": 64, "duration": 9, "velocity": 80}, {"time": 1556, "pitch": 62, "duration": 12, "velocity": 62}, {"time": 1568, "pitch": 60, "duration": 12, "velocity": 82}, {"time": 1580, "pitch": 60, "duration": 6, "velocity": 66}, {"time": 1586, "pitch": 69, "duration": 6, "velocity": 94}, {"time": 1592, "pitch": 69, "duration": 18, "velocity": 100}, {"time": 1610, "pitch": 69, "duration": 9, "velocity": 97}, {"time": 1619, "pitch": 72, "duration": 9, "velocity": 91}, {"time": 1628, "pitch": 69, "duration": 6, "velocity": 98}, {"time": 1634, "pitch": 74, "duration": 66, "velocity": 90}, {"time": 1700, "pitch": 67, "duration": 6, "velocity": 66}, {"time": 1706, "pitch": 79, "duration": 12, "velocity": 69}, {"time": 1718, "pitch": 76, "duration": 12, "velocity": 84}, {"time": 1730, "pitch": 74, "duration": 6, "velocity": 64}, {"time": 1736, "pitch": 72, "duration": 6, "velocity": 56}, {"time": 1742, "pitch": 72, "duration": 6, "velocity": 68}, {"time": 1748, "pitch": 69, "duration": 6, "velocity": 64}, {"time": 1754, "pitch": 72, "duration": 6, "velocity": 66}, {"time": 1760, "pitch": 74, "duration": 6, "velocity": 56}, {"time": 1766, "pitch": 74, "duration": 6, "velocity": 69}, {"time": 1772, "pitch": 74, "duration": 36, "velocity": 79}, {"time": 1808, "pitch": 76, "duration": 12, "velocity": 92}, {"time": 1820, "pitch": 74, "duration": 6, "velocity": 77}, {"time": 1826, "pitch": 74, "duration": 6, "velocity": 66}, {"time": 1832, "pitch": 72, "duration": 6, "velocity": 66}, {"time": 1838, "pitch": 72, "duration": 6, "velocity": 65}, {"time": 1844, "pitch": 69, "duration": 6, "velocity": 57}, {"time": 1850, "pitch": 72, "duration": 6, "velocity": 54}, {"time": 1856, "pitch": 74, "duration": 6, "velocity": 66}, {"time": 1862, "pitch": 76, "duration": 6, "velocity": 79}, {"time": 1868, "pitch": 76, "duration": 42, "velocity": 92}, {"time": 1910, "pitch": 72, "duration": 6, "velocity": 89}, {"time": 1916, "pitch": 69, "duration": 6, "velocity": 61}, {"time": 1922, "pitch": 72, "duration": 6, "velocity": 83}, {"time": 1928, "pitch": 72, "duration": 6, "velocity": 73}, {"time": 1934, "pitch": 74, "duration": 6, "velocity": 77}, {"time": 1940, "pitch": 72, "duration": 24, "velocity": 90}, {"time": 1964, "pitch": 67, "duration": 6, "velocity": 92}, {"time": 1970, "pitch": 67, "duration": 6, "velocity": 90}, {"time": 1976, "pitch": 69, "duration": 6, "velocity": 74}, {"time": 1982, "pitch": 72, "duration": 6, "velocity": 95}, {"time": 1988, "pitch": 72, "duration": 18, "velocity": 101}, {"time": 2006, "pitch": 72, "duration": 6, "velocity": 87}, {"time": 2012, "pitch": 72, "duration": 6, "velocity": 85}, {"time": 2018, "pitch": 76, "duration": 6, "velocity": 84}, {"time": 2024, "pitch": 74, "duration": 6, "velocity": 71}, {"time": 2030, "pitch": 74, "duration": 6, "velocity": 69}, {"time": 2036, "pitch": 74, "duration": 6, "velocity": 77}, {"time": 2042, "pitch": 72, "duration": 6, "velocity": 76}, {"time": 2048, "pitch": 72, "duration": 6, "velocity": 69}, {"time": 2054, "pitch": 74, "duration": 6, "velocity": 86}, {"time": 2060, "pitch": 74, "duration": 36, "velocity": 91}, {"time": 2096, "pitch": 67, "duration": 6, "velocity": 76}, {"time": 2102, "pitch": 79, "duration": 6, "velocity": 75}, {"time": 2108, "pitch": 76, "duration": 6, "velocity": 66}, {"time": 2114, "pitch": 74, "duration": 6, "velocity": 54}, {"time": 2120, "pitch": 72, "duration": 6, "velocity": 50}, {"time": 2126, "pitch": 72, "duration": 6, "velocity": 62}, {"time": 2132, "pitch": 69, "duration": 6, "velocity": 54}, {"time": 2138, "pitch": 72, "duration": 6, "velocity": 42}, {"time": 2144, "pitch": 74, "duration": 6, "velocity": 64}, {"time": 2150, "pitch": 74, "duration": 6, "velocity": 58}, {"time": 2156, "pitch": 74, "duration": 36, "velocity": 66}, {"time": 2192, "pitch": 76, "duration": 12, "velocity": 87}, {"time": 2204, "pitch": 79, "duration": 6, "velocity": 84}, {"time": 2210, "pitch": 79, "duration": 6, "velocity": 90}, {"time": 2216, "pitch": 79, "duration": 6, "velocity": 87}, {"time": 2222, "pitch": 76, "duration": 6, "velocity": 60}, {"time": 2228, "pitch": 74, "duration": 6, "velocity": 63}, {"time": 2234, "pitch": 74, "duration": 6, "velocity": 66}, {"time": 2240, "pitch": 76, "duration": 6, "velocity": 80}, {"time": 2246, "pitch": 79, "duration": 6, "velocity": 71}, {"time": 2252, "pitch": 79, "duration": 42, "velocity": 87}, {"time": 2294, "pitch": 72, "duration": 6, "velocity": 63}, {"time": 2300, "pitch": 72, "duration": 6, "velocity": 66}, {"time": 2306, "pitch": 69, "duration": 6, "velocity": 61}, {"time": 2312, "pitch": 72, "duration": 6, "velocity": 56}, {"time": 2318, "pitch": 69, "duration": 6, "velocity": 53}, {"time": 2324, "pitch": 69, "duration": 24, "velocity": 77}, {"time": 2348, "pitch": 67, "duration": 6, "velocity": 53}, {"time": 2354, "pitch": 79, "duration": 6, "velocity": 54}, {"time": 2360, "pitch": 76, "duration": 6, "velocity": 52}, {"time": 2366, "pitch": 74, "duration": 6, "velocity": 52}, {"time": 2372, "pitch": 76, "duration": 18, "velocity": 66}, {"time": 2390, "pitch": 69, "duration": 6, "velocity": 65}, {"time": 2396, "pitch": 72, "duration": 6, "velocity": 69}, {"time": 2402, "pitch": 69, "duration": 6, "velocity": 69}, {"time": 2408, "pitch": 72, "duration": 18, "velocity": 62}, {"time": 2426, "pitch": 76, "duration": 6, "velocity": 53}, {"time": 2432, "pitch": 74, "duration": 6, "velocity": 53}, {"time": 2438, "pitch": 72, "duration": 6, "velocity": 54}, {"time": 2444, "pitch": 74, "duration": 30, "velocity": 87}, {"time": 2474, "pitch": 72, "duration": 12, "velocity": 97}, {"time": 2486, "pitch": 69, "duration": 12, "velocity": 72}, {"time": 2498, "pitch": 72, "duration": 48, "velocity": 105}, {"time": 3032, "pitch": 67, "duration": 6, "velocity": 62}, {"time": 3038, "pitch": 79, "duration": 6, "velocity": 61}, {"time": 3044, "pitch": 79, "duration": 6, "velocity": 60}, {"time": 3050, "pitch": 79, "duration": 6, "velocity": 65}, {"time": 3056, "pitch": 76, "duration": 6, "velocity": 56}, {"time": 3062, "pitch": 76, "duration": 6, "velocity": 62}, {"time": 3068, "pitch": 76, "duration": 12, "velocity": 68}, {"time": 3080, "pitch": 74, "duration": 6, "velocity": 64}, {"time": 3086, "pitch": 74, "duration": 6, "velocity": 59}, {"time": 3092, "pitch": 74, "duration": 6, "velocity": 55}, {"time": 3098, "pitch": 74, "duration": 6, "velocity": 56}, {"time": 3104, "pitch": 72, "duration": 6, "velocity": 47}, {"time": 3110, "pitch": 71, "duration": 6, "velocity": 56}, {"time": 3116, "pitch": 72, "duration": 24, "velocity": 64}, {"time": 3140, "pitch": 72, "duration": 6, "velocity": 84}, {"time": 3146, "pitch": 71, "duration": 12, "velocity": 73}, {"time": 3158, "pitch": 64, "duration": 6, "velocity": 51}, {"time": 3164, "pitch": 74, "duration": 18, "velocity": 68}, {"time": 3182, "pitch": 72, "duration": 6, "velocity": 84}, {"time": 3188, "pitch": 71, "duration": 18, "velocity": 87}, {"time": 3206, "pitch": 72, "duration": 6, "velocity": 63}, {"time": 3212, "pitch": 69, "duration": 36, "velocity": 76}, {"time": 3248, "pitch": 64, "duration": 6, "velocity": 52}, {"time": 3254, "pitch": 67, "duration": 6, "velocity": 56}, {"time": 3260, "pitch": 64, "duration": 6, "velocity": 55}, {"time": 3266, "pitch": 67, "duration": 6, "velocity": 41}, {"time": 3272, "pitch": 64, "duration": 12, "velocity": 53}, {"time": 3284, "pitch": 62, "duration": 12, "velocity": 51}, {"time": 3296, "pitch": 60, "duration": 12, "velocity": 52}, {"time": 3308, "pitch": 57, "duration": 6, "velocity": 48}, {"time": 3314, "pitch": 64, "duration": 6, "velocity": 52}, {"time": 3320, "pitch": 62, "duration": 66, "velocity": 62}, {"time": 3386, "pitch": 64, "duration": 6, "velocity": 92}, {"time": 3392, "pitch": 62, "duration": 6, "velocity": 66}, {"time": 3398, "pitch": 60, "duration": 6, "velocity": 57}, {"time": 3404, "pitch": 62, "duration": 108, "velocity": 68}, {"time": 3512, "pitch": 69, "duration": 6, "velocity": 81}, {"time": 3518, "pitch": 69, "duration": 6, "velocity": 69}, {"time": 3524, "pitch": 69, "duration": 6, "velocity": 68}, {"time": 3530, "pitch": 69, "duration": 6, "velocity": 77}, {"time": 3536, "pitch": 69, "duration": 12, "velocity": 85}, {"time": 3548, "pitch": 69, "duration": 6, "velocity": 91}, {"time": 3554, "pitch": 71, "duration": 9, "velocity": 92}, {"time": 3563, "pitch": 72, "duration": 9, "velocity": 72}, {"time": 3572, "pitch": 71, "duration": 6, "velocity": 85}, {"time": 3578, "pitch": 71, "duration": 6, "velocity": 84}, {"time": 3584, "pitch": 67, "duration": 18, "velocity": 87}, {"time": 3602, "pitch": 67, "duration": 12, "velocity": 97}, {"time": 3614, "pitch": 69, "duration": 6, "velocity": 97}, {"time": 3620, "pitch": 67, "duration": 15, "velocity": 91}, {"time": 3635, "pitch": 62, "duration": 9, "velocity": 64}, {"time": 3644, "pitch": 64, "duration": 60, "velocity": 90}, {"time": 3704, "pitch": 64, "duration": 6, "velocity": 84}, {"time": 3710, "pitch": 64, "duration": 6, "velocity": 83}, {"time": 3716, "pitch": 64, "duration": 6, "velocity": 73}, {"time": 3722, "pitch": 64, "duration": 6, "velocity": 79}, {"time": 3728, "pitch": 64, "duration": 6, "velocity": 75}, {"time": 3734, "pitch": 64, "duration": 6, "velocity": 73}, {"time": 3740, "pitch": 64, "duration": 6, "velocity": 69}, {"time": 3746, "pitch": 67, "duration": 12, "velocity": 92}, {"time": 3758, "pitch": 64, "duration": 6, "velocity": 80}, {"time": 3764, "pitch": 62, "duration": 12, "velocity": 62}, {"time": 3776, "pitch": 60, "duration": 12, "velocity": 82}, {"time": 3788, "pitch": 60, "duration": 6, "velocity": 66}, {"time": 3794, "pitch": 69, "duration": 6, "velocity": 94}, {"time": 3800, "pitch": 69, "duration": 18, "velocity": 100}, {"time": 3818, "pitch": 69, "duration": 9, "velocity": 97}, {"time": 3827, "pitch": 72, "duration": 9, "velocity": 91}, {"time": 3836, "pitch": 69, "duration": 6, "velocity": 98}, {"time": 3842, "pitch": 74, "duration": 66, "velocity": 90}, {"time": 3908, "pitch": 67, "duration": 6, "velocity": 66}, {"time": 3914, "pitch": 79, "duration": 12, "velocity": 69}, {"time": 3926, "pitch": 76, "duration": 12, "velocity": 84}, {"time": 3938, "pitch": 74, "duration": 6, "velocity": 64}, {"time": 3944, "pitch": 72, "duration": 6, "velocity": 56}, {"time": 3950, "pitch": 72, "duration": 6, "velocity": 68}, {"time": 3956, "pitch": 67, "duration": 6, "velocity": 64}, {"time": 3962, "pitch": 72, "duration": 6, "velocity": 66}, {"time": 3968, "pitch": 74, "duration": 6, "velocity": 56}, {"time": 3974, "pitch": 74, "duration": 6, "velocity": 69}, {"time": 3980, "pitch": 74, "duration": 36, "velocity": 79}, {"time": 4016, "pitch": 76, "duration": 12, "velocity": 92}, {"time": 4028, "pitch": 74, "duration": 6, "velocity": 77}, {"time": 4034, "pitch": 74, "duration": 6, "velocity": 66}, {"time": 4040, "pitch": 72, "duration": 6, "velocity": 66}, {"time": 4046, "pitch": 72, "duration": 6, "velocity": 65}, {"time": 4052, "pitch": 69, "duration": 6, "velocity": 57}, {"time": 4058, "pitch": 72, "duration": 6, "velocity": 54}, {"time": 4064, "pitch": 74, "duration": 6, "velocity": 66}, {"time": 4070, "pitch": 76, "duration": 6, "velocity": 79}, {"time": 4076, "pitch": 76, "duration": 42, "velocity": 92}, {"time": 4118, "pitch": 72, "duration": 6, "velocity": 89}, {"time": 4124, "pitch": 69, "duration": 6, "velocity": 61}, {"time": 4130, "pitch": 72, "duration": 6, "velocity": 83}, {"time": 4136, "pitch": 72, "duration": 6, "velocity": 73}, {"time": 4142, "pitch": 74, "duration": 6, "velocity": 77}, {"time": 4148, "pitch": 72, "duration": 24, "velocity": 90}, {"time": 4172, "pitch": 67, "duration": 6, "velocity": 92}, {"time": 4178, "pitch": 67, "duration": 6, "velocity": 90}, {"time": 4184, "pitch": 69, "duration": 6, "velocity": 74}, {"time": 4190, "pitch": 72, "duration": 6, "velocity": 95}, {"time": 4196, "pitch": 72, "duration": 18, "velocity": 101}, {"time": 4214, "pitch": 72, "duration": 6, "velocity": 87}, {"time": 4220, "pitch": 72, "duration": 6, "velocity": 85}, {"time": 4226, "pitch": 76, "duration": 6, "velocity": 84}, {"time": 4232, "pitch": 74, "duration": 6, "velocity": 71}, {"time": 4238, "pitch": 74, "duration": 6, "velocity": 69}, {"time": 4244, "pitch": 74, "duration": 6, "velocity": 77}, {"time": 4250, "pitch": 72, "duration": 6, "velocity": 76}, {"time": 4256, "pitch": 72, "duration": 6, "velocity": 69}, {"time": 4262, "pitch": 74, "duration": 6, "velocity": 86}, {"time": 4268, "pitch": 74, "duration": 33, "velocity": 91}, {"time": 4301, "pitch": 67, "duration": 9, "velocity": 76}, {"time": 4310, "pitch": 79, "duration": 6, "velocity": 75}, {"time": 4316, "pitch": 76, "duration": 6, "velocity": 66}, {"time": 4320, "pitch": 74, "duration": 6, "velocity": 54}, {"time": 4326, "pitch": 72, "duration": 6, "velocity": 50}, {"time": 4332, "pitch": 72, "duration": 6, "velocity": 62}, {"time": 4338, "pitch": 69, "duration": 6, "velocity": 54}, {"time": 4344, "pitch": 72, "duration": 6, "velocity": 42}, {"time": 4350, "pitch": 74, "duration": 6, "velocity": 64}, {"time": 4356, "pitch": 74, "duration": 6, "velocity": 58}, {"time": 4362, "pitch": 74, "duration": 39, "velocity": 66}, {"time": 4401, "pitch": 76, "duration": 9, "velocity": 87}, {"time": 4410, "pitch": 79, "duration": 6, "velocity": 84}, {"time": 4416, "pitch": 79, "duration": 6, "velocity": 90}, {"time": 4422, "pitch": 79, "duration": 6, "velocity": 87}, {"time": 4428, "pitch": 76, "duration": 6, "velocity": 60}, {"time": 4434, "pitch": 74, "duration": 6, "velocity": 63}, {"time": 4440, "pitch": 74, "duration": 6, "velocity": 66}, {"time": 4446, "pitch": 76, "duration": 6, "velocity": 80}, {"time": 4452, "pitch": 79, "duration": 6, "velocity": 71}, {"time": 4458, "pitch": 79, "duration": 42, "velocity": 87}, {"time": 4500, "pitch": 72, "duration": 6, "velocity": 63}, {"time": 4506, "pitch": 72, "duration": 6, "velocity": 66}, {"time": 4512, "pitch": 69, "duration": 6, "velocity": 61}, {"time": 4518, "pitch": 72, "duration": 6, "velocity": 56}, {"time": 4524, "pitch": 69, "duration": 6, "velocity": 53}, {"time": 4530, "pitch": 69, "duration": 24, "velocity": 77}, {"time": 4554, "pitch": 67, "duration": 6, "velocity": 53}, {"time": 4560, "pitch": 79, "duration": 6, "velocity": 54}, {"time": 4566, "pitch": 76, "duration": 6, "velocity": 52}, {"time": 4572, "pitch": 74, "duration": 6, "velocity": 52}, {"time": 4578, "pitch": 76, "duration": 18, "velocity": 66}, {"time": 4596, "pitch": 69, "duration": 6, "velocity": 65}, {"time": 4602, "pitch": 72, "duration": 6, "velocity": 69}, {"time": 4608, "pitch": 69, "duration": 6, "velocity": 69}, {"time": 4614, "pitch": 72, "duration": 18, "velocity": 62}, {"time": 4632, "pitch": 76, "duration": 6, "velocity": 53}, {"time": 4638, "pitch": 74, "duration": 9, "velocity": 53}, {"time": 4644, "pitch": 72, "duration": 6, "velocity": 54}, {"time": 4650, "pitch": 74, "duration": 30, "velocity": 87}, {"time": 4680, "pitch": 72, "duration": 12, "velocity": 97}, {"time": 4692, "pitch": 69, "duration": 12, "velocity": 72}, {"time": 4704, "pitch": 72, "duration": 66, "velocity": 105}, {"time": 4770, "pitch": 67, "duration": 6, "velocity": 66}, {"time": 4776, "pitch": 79, "duration": 12, "velocity": 69}, {"time": 4788, "pitch": 76, "duration": 12, "velocity": 84}, {"time": 4800, "pitch": 74, "duration": 6, "velocity": 64}, {"time": 4806, "pitch": 72, "duration": 6, "velocity": 56}, {"time": 4812, "pitch": 72, "duration": 6, "velocity": 68}, {"time": 4818, "pitch": 69, "duration": 6, "velocity": 64}, {"time": 4824, "pitch": 72, "duration": 6, "velocity": 66}, {"time": 4830, "pitch": 74, "duration": 6, "velocity": 56}, {"time": 4836, "pitch": 74, "duration": 6, "velocity": 69}, {"time": 4842, "pitch": 74, "duration": 36, "velocity": 79}, {"time": 4878, "pitch": 76, "duration": 12, "velocity": 92}, {"time": 4890, "pitch": 74, "duration": 6, "velocity": 77}, {"time": 4896, "pitch": 74, "duration": 6, "velocity": 66}, {"time": 4902, "pitch": 72, "duration": 6, "velocity": 66}, {"time": 4908, "pitch": 72, "duration": 6, "velocity": 65}, {"time": 4914, "pitch": 69, "duration": 6, "velocity": 57}, {"time": 4920, "pitch": 72, "duration": 6, "velocity": 54}, {"time": 4926, "pitch": 74, "duration": 6, "velocity": 66}, {"time": 4932, "pitch": 76, "duration": 6, "velocity": 79}, {"time": 4938, "pitch": 76, "duration": 42, "velocity": 92}, {"time": 4980, "pitch": 72, "duration": 6, "velocity": 89}, {"time": 4986, "pitch": 69, "duration": 6, "velocity": 61}, {"time": 4992, "pitch": 72, "duration": 6, "velocity": 83}, {"time": 4998, "pitch": 72, "duration": 6, "velocity": 73}, {"time": 5004, "pitch": 74, "duration": 6, "velocity": 77}, {"time": 5010, "pitch": 72, "duration": 24, "velocity": 90}, {"time": 5034, "pitch": 67, "duration": 6, "velocity": 92}, {"time": 5040, "pitch": 67, "duration": 6, "velocity": 90}, {"time": 5046, "pitch": 69, "duration": 6, "velocity": 74}, {"time": 5052, "pitch": 72, "duration": 6, "velocity": 95}, {"time": 5058, "pitch": 72, "duration": 18, "velocity": 101}, {"time": 5076, "pitch": 72, "duration": 6, "velocity": 87}, {"time": 5082, "pitch": 72, "duration": 6, "velocity": 85}, {"time": 5088, "pitch": 76, "duration": 6, "velocity": 84}, {"time": 5094, "pitch": 74, "duration": 6, "velocity": 71}, {"time": 5100, "pitch": 74, "duration": 6, "velocity": 69}, {"time": 5106, "pitch": 74, "duration": 6, "velocity": 77}, {"time": 5112, "pitch": 72, "duration": 6, "velocity": 76}, {"time": 5118, "pitch": 72, "duration": 6, "velocity": 69}, {"time": 5124, "pitch": 74, "duration": 6, "velocity": 86}, {"time": 5130, "pitch": 74, "duration": 33, "velocity": 91}, {"time": 5163, "pitch": 67, "duration": 9, "velocity": 76}, {"time": 5172, "pitch": 79, "duration": 6, "velocity": 75}, {"time": 5178, "pitch": 76, "duration": 6, "velocity": 66}, {"time": 5184, "pitch": 74, "duration": 6, "velocity": 54}, {"time": 5190, "pitch": 72, "duration": 6, "velocity": 50}, {"time": 5196, "pitch": 72, "duration": 6, "velocity": 62}, {"time": 5202, "pitch": 69, "duration": 6, "velocity": 54}, {"time": 5208, "pitch": 72, "duration": 6, "velocity": 42}, {"time": 5214, "pitch": 74, "duration": 6, "velocity": 64}, {"time": 5220, "pitch": 74, "duration": 6, "velocity": 58}, {"time": 5226, "pitch": 74, "duration": 39, "velocity": 66}, {"time": 5265, "pitch": 76, "duration": 9, "velocity": 87}, {"time": 5274, "pitch": 79, "duration": 6, "velocity": 84}, {"time": 5280, "pitch": 79, "duration": 6, "velocity": 90}, {"time": 5286, "pitch": 79, "duration": 6, "velocity": 87}, {"time": 5292, "pitch": 76, "duration": 6, "velocity": 60}, {"time": 5298, "pitch": 74, "duration": 6, "velocity": 63}, {"time": 5304, "pitch": 74, "duration": 6, "velocity": 66}, {"time": 5310, "pitch": 76, "duration": 6, "velocity": 80}, {"time": 5316, "pitch": 79, "duration": 6, "velocity": 71}, {"time": 5322, "pitch": 79, "duration": 42, "velocity": 87}, {"time": 5364, "pitch": 72, "duration": 6, "velocity": 63}, {"time": 5370, "pitch": 72, "duration": 6, "velocity": 66}, {"time": 5376, "pitch": 69, "duration": 6, "velocity": 61}, {"time": 5382, "pitch": 71, "duration": 6, "velocity": 50}, {"time": 5382, "pitch": 72, "duration": 6, "velocity": 56}, {"time": 5388, "pitch": 69, "duration": 6, "velocity": 53}, {"time": 5394, "pitch": 69, "duration": 24, "velocity": 77}, {"time": 5418, "pitch": 67, "duration": 6, "velocity": 53}, {"time": 5424, "pitch": 79, "duration": 6, "velocity": 54}, {"time": 5430, "pitch": 76, "duration": 6, "velocity": 52}, {"time": 5436, "pitch": 74, "duration": 6, "velocity": 52}, {"time": 5442, "pitch": 76, "duration": 18, "velocity": 66}, {"time": 5460, "pitch": 69, "duration": 6, "velocity": 65}, {"time": 5466, "pitch": 72, "duration": 6, "velocity": 69}, {"time": 5472, "pitch": 69, "duration": 6, "velocity": 69}, {"time": 5478, "pitch": 72, "duration": 18, "velocity": 62}, {"time": 5496, "pitch": 76, "duration": 6, "velocity": 53}, {"time": 5502, "pitch": 74, "duration": 6, "velocity": 53}, {"time": 5508, "pitch": 72, "duration": 6, "velocity": 54}, {"time": 5514, "pitch": 74, "duration": 30, "velocity": 87}, {"time": 5544, "pitch": 72, "duration": 12, "velocity": 97}, {"time": 5556, "pitch": 69, "duration": 12, "velocity": 72}, {"time": 5568, "pitch": 72, "duration": 84, "velocity": 105}, {"time": 5652, "pitch": 69, "duration": 6, "velocity": 93}, {"time": 5658, "pitch": 72, "duration": 6, "velocity": 110}, {"time": 5664, "pitch": 69, "duration": 6, "velocity": 96}, {"time": 5670, "pitch": 72, "duration": 18, "velocity": 88}, {"time": 5688, "pitch": 76, "duration": 6, "velocity": 66}, {"time": 5694, "pitch": 74, "duration": 6, "velocity": 64}, {"time": 5700, "pitch": 72, "duration": 6, "velocity": 65}, {"time": 5706, "pitch": 74, "duration": 78, "velocity": 85}, {"time": 5784, "pitch": 72, "duration": 27, "velocity": 87}, {"time": 5811, "pitch": 69, "duration": 21, "velocity": 66}, {"time": 5832, "pitch": 72, "duration": 12, "velocity": 66}], "annotations": [{"time": 925, "annotation": {"number": 1, "value": 12}, "group": "control_change"}, {"time": 925, "annotation": {"number": 1, "value": 11}, "group": "control_change"}, {"time": 926, "annotation": {"number": 1, "value": 12}, "group": "control_change"}, {"time": 926, "annotation": {"number": 1, "value": 11}, "group": "control_change"}, {"time": 927, "annotation": {"number": 1, "value": 11}, "group": "control_change"}, {"time": 928, "annotation": {"number": 1, "value": 12}, "group": "control_change"}, {"time": 929, "annotation": {"number": 1, "value": 11}, "group": "control_change"}, {"time": 962, "annotation": {"number": 1, "value": 12}, "group": "control_change"}, {"time": 964, "annotation": {"number": 1, "value": 11}, "group": "control_change"}, {"time": 964, "annotation": {"number": 1, "value": 12}, "group": "control_change"}, {"time": 965, "annotation": {"number": 1, "value": 11}, "group": "control_change"}, {"time": 965, "annotation": {"number": 1, "value": 12}, "group": "control_change"}, {"time": 966, "annotation": {"number": 1, "value": 11}, "group": "control_change"}, {"time": 966, "annotation": {"number": 1, "value": 12}, "group": "control_change"}, {"time": 967, "annotation": {"number": 1, "value": 12}, "group": "control_change"}, {"time": 969, "annotation": {"number": 1, "value": 11}, "group": "control_change"}, {"time": 969, "annotation": {"number": 1, "value": 12}, "group": "control_change"}, {"time": 970, "annotation": {"number": 1, "value": 12}, "group": "control_change"}, {"time": 971, "annotation": {"number": 1, "value": 11}, "group": "control_change"}, {"time": 973, "annotation": {"number": 1, "value": 12}, "group": "control_change"}, {"time": 973, "annotation": {"number": 1, "value": 11}, "group": "control_change"}, {"time": 974, "annotation": {"number": 1, "value": 12}, "group": "control_change"}, {"time": 974, "annotation": {"number": 1, "value": 11}, "group": "control_change"}, {"time": 975, "annotation": {"number": 1, "value": 11}, "group": "control_change"}, {"time": 975, "annotation": {"number": 1, "value": 12}, "group": "control_change"}, {"time": 976, "annotation": {"number": 1, "value": 11}, "group": "control_change"}, {"time": 980, "annotation": {"number": 1, "value": 12}, "group": "control_change"}, {"time": 980, "annotation": {"number": 1, "value": 11}, "group": "control_change"}, {"time": 981, "annotation": {"number": 1, "value": 12}, "group": "control_change"}, {"time": 989, "annotation": {"number": 1, "value": 11}, "group": "control_change"}, {"time": 989, "annotation": {"number": 1, "value": 12}, "group": "control_change"}, {"time": 990, "annotation": {"number": 1, "value": 11}, "group": "control_change"}, {"time": 991, "annotation": {"number": 1, "value": 12}, "group": "control_change"}, {"time": 991, "annotation": {"number": 1, "value": 11}, "group": "control_change"}, {"time": 1003, "annotation": {"number": 1, "value": 12}, "group": "control_change"}, {"time": 1003, "annotation": {"number": 1, "value": 11}, "group": "control_change"}, {"time": 1004, "annotation": {"number": 1, "value": 12}, "group": "control_change"}, {"time": 1004, "annotation": {"number": 1, "value": 11}, "group": "control_change"}, {"time": 1121, "annotation": {"number": 1, "value": 11}, "group": "control_change"}, {"time": 1121, "annotation": {"number": 1, "value": 12}, "group": "control_change"}, {"time": 1909, "annotation": {"number": 1, "value": 11}, "group": "control_change"}, {"time": 1917, "annotation": {"number": 1, "value": 9}, "group": "control_change"}, {"time": 1918, "annotation": {"number": 1, "value": 11}, "group": "control_change"}, {"time": 1919, "annotation": {"number": 1, "value": 9}, "group": "control_change"}, {"time": 2116, "annotation": {"number": 1, "value": 11}, "group": "control_change"}, {"time": 2154, "annotation": {"number": 1, "value": 9}, "group": "control_change"}, {"time": 2281, "annotation": {"number": 1, "value": 7}, "group": "control_change"}, {"time": 2281, "annotation": {"number": 1, "value": 9}, "group": "control_change"}, {"time": 2282, "annotation": {"number": 1, "value": 9}, "group": "control_change"}, {"time": 2282, "annotation": {"number": 1, "value": 7}, "group": "control_change"}, {"time": 2287, "annotation": {"number": 1, "value": 9}, "group": "control_change"}, {"time": 2290, "annotation": {"number": 1, "value": 7}, "group": "control_change"}, {"time": 2291, "annotation": {"number": 1, "value": 9}, "group": "control_change"}, {"time": 2291, "annotation": {"number": 1, "value": 7}, "group": "control_change"}, {"time": 2323, "annotation": {"number": 1, "value": 9}, "group": "control_change"}, {"time": 2324, "annotation": {"number": 1, "value": 7}, "group": "control_change"}, {"time": 2332, "annotation": {"number": 1, "value": 9}, "group": "control_change"}, {"time": 2332, "annotation": {"number": 1, "value": 7}, "group": "control_change"}, {"time": 3133, "annotation": {"number": 1, "value": 12}, "group": "control_change"}, {"time": 3133, "annotation": {"number": 1, "value": 11}, "group": "control_change"}, {"time": 3134, "annotation": {"number": 1, "value": 12}, "group": "control_change"}, {"time": 3134, "annotation": {"number": 1, "value": 11}, "group": "control_change"}, {"time": 3135, "annotation": {"number": 1, "value": 11}, "group": "control_change"}, {"time": 3136, "annotation": {"number": 1, "value": 12}, "group": "control_change"}, {"time": 3137, "annotation": {"number": 1, "value": 11}, "group": "control_change"}, {"time": 3170, "annotation": {"number": 1, "value": 12}, "group": "control_change"}, {"time": 3172, "annotation": {"number": 1, "value": 11}, "group": "control_change"}, {"time": 3172, "annotation": {"number": 1, "value": 12}, "group": "control_change"}, {"time": 3173, "annotation": {"number": 1, "value": 11}, "group": "control_change"}, {"time": 3173, "annotation": {"number": 1, "value": 12}, "group": "control_change"}, {"time": 3174, "annotation": {"number": 1, "value": 11}, "group": "control_change"}, {"time": 3174, "annotation": {"number": 1, "value": 12}, "group": "control_change"}, {"time": 3175, "annotation": {"number": 1, "value": 12}, "group": "control_change"}, {"time": 3177, "annotation": {"number": 1, "value": 11}, "group": "control_change"}, {"time": 3177, "annotation": {"number": 1, "value": 12}, "group": "control_change"}, {"time": 3178, "annotation": {"number": 1, "value": 11}, "group": "control_change"}, {"time": 3179, "annotation": {"number": 1, "value": 12}, "group": "control_change"}, {"time": 3179, "annotation": {"number": 1, "value": 11}, "group": "control_change"}, {"time": 3181, "annotation": {"number": 1, "value": 12}, "group": "control_change"}, {"time": 3182, "annotation": {"number": 1, "value": 11}, "group": "control_change"}, {"time": 3182, "annotation": {"number": 1, "value": 12}, "group": "control_change"}, {"time": 3183, "annotation": {"number": 1, "value": 12}, "group": "control_change"}, {"time": 3183, "annotation": {"number": 1, "value": 11}, "group": "control_change"}, {"time": 3184, "annotation": {"number": 1, "value": 11}, "group": "control_change"}, {"time": 3188, "annotation": {"number": 1, "value": 12}, "group": "control_change"}, {"time": 3188, "annotation": {"number": 1, "value": 11}, "group": "control_change"}, {"time": 3189, "annotation": {"number": 1, "value": 12}, "group": "control_change"}, {"time": 3197, "annotation": {"number": 1, "value": 11}, "group": "control_change"}, {"time": 3197, "annotation": {"number": 1, "value": 12}, "group": "control_change"}, {"time": 3198, "annotation": {"number": 1, "value": 11}, "group": "control_change"}, {"time": 3199, "annotation": {"number": 1, "value": 12}, "group": "control_change"}, {"time": 3199, "annotation": {"number": 1, "value": 11}, "group": "control_change"}, {"time": 3211, "annotation": {"number": 1, "value": 12}, "group": "control_change"}, {"time": 3211, "annotation": {"number": 1, "value": 11}, "group": "control_change"}, {"time": 3212, "annotation": {"number": 1, "value": 12}, "group": "control_change"}, {"time": 3212, "annotation": {"number": 1, "value": 11}, "group": "control_change"}, {"time": 3213, "annotation": {"number": 1, "value": 12}, "group": "control_change"}, {"time": 3329, "annotation": {"number": 1, "value": 11}, "group": "control_change"}, {"time": 3330, "annotation": {"number": 1, "value": 12}, "group": "control_change"}, {"time": 4117, "annotation": {"number": 1, "value": 11}, "group": "control_change"}, {"time": 4125, "annotation": {"number": 1, "value": 9}, "group": "control_change"}, {"time": 4127, "annotation": {"number": 1, "value": 11}, "group": "control_change"}, {"time": 4127, "annotation": {"number": 1, "value": 9}, "group": "control_change"}, {"time": 4322, "annotation": {"number": 1, "value": 9}, "group": "control_change"}, {"time": 4322, "annotation": {"number": 1, "value": 11}, "group": "control_change"}, {"time": 4361, "annotation": {"number": 1, "value": 9}, "group": "control_change"}, {"time": 4487, "annotation": {"number": 1, "value": 7}, "group": "control_change"}, {"time": 4488, "annotation": {"number": 1, "value": 9}, "group": "control_change"}, {"time": 4489, "annotation": {"number": 1, "value": 7}, "group": "control_change"}, {"time": 4494, "annotation": {"number": 1, "value": 9}, "group": "control_change"}, {"time": 4497, "annotation": {"number": 1, "value": 7}, "group": "control_change"}, {"time": 4498, "annotation": {"number": 1, "value": 9}, "group": "control_change"}, {"time": 4498, "annotation": {"number": 1, "value": 7}, "group": "control_change"}, {"time": 4530, "annotation": {"number": 1, "value": 9}, "group": "control_change"}, {"time": 4531, "annotation": {"number": 1, "value": 7}, "group": "control_change"}, {"time": 4539, "annotation": {"number": 1, "value": 9}, "group": "control_change"}, {"time": 4539, "annotation": {"number": 1, "value": 7}, "group": "control_change"}, {"time": 4980, "annotation": {"number": 1, "value": 11}, "group": "control_change"}, {"time": 4988, "annotation": {"number": 1, "value": 9}, "group": "control_change"}, {"time": 4989, "annotation": {"number": 1, "value": 11}, "group": "control_change"}, {"time": 4990, "annotation": {"number": 1, "value": 9}, "group": "control_change"}, {"time": 5187, "annotation": {"number": 1, "value": 11}, "group": "control_change"}, {"time": 5225, "annotation": {"number": 1, "value": 9}, "group": "control_change"}, {"time": 5352, "annotation": {"number": 1, "value": 7}, "group": "control_change"}, {"time": 5352, "annotation": {"number": 1, "value": 9}, "group": "control_change"}, {"time": 5353, "annotation": {"number": 1, "value": 7}, "group": "control_change"}, {"time": 5358, "annotation": {"number": 1, "value": 9}, "group": "control_change"}, {"time": 5361, "annotation": {"number": 1, "value": 7}, "group": "control_change"}, {"time": 5362, "annotation": {"number": 1, "value": 9}, "group": "control_change"}, {"time": 5362, "annotation": {"number": 1, "value": 7}, "group": "control_change"}, {"time": 5394, "annotation": {"number": 1, "value": 9}, "group": "control_change"}, {"time": 5395, "annotation": {"number": 1, "value": 7}, "group": "control_change"}, {"time": 5403, "annotation": {"number": 1, "value": 9}, "group": "control_change"}, {"time": 5403, "annotation": {"number": 1, "value": 7}, "group": "control_change"}, {"time": 5686, "annotation": {"number": 1, "value": 7}, "group": "control_change"}, {"time": 5686, "annotation": {"number": 1, "value": 11}, "group": "control_change"}, {"time": 5698, "annotation": {"number": 1, "value": 9}, "group": "control_change"}, {"time": 5716, "annotation": {"number": 1, "value": 11}, "group": "control_change"}, {"time": 5754, "annotation": {"number": 1, "value": 9}, "group": "control_change"}, {"time": 5757, "annotation": {"number": 1, "value": 11}, "group": "control_change"}, {"time": 5758, "annotation": {"number": 1, "value": 9}, "group": "control_change"}]}, {"program": 0, "is_drum": false, "name": "BRIDGE", "notes": [{"time": 50, "pitch": 76, "duration": 12, "velocity": 64}, {"time": 50, "pitch": 88, "duration": 12, "velocity": 64}, {"time": 62, "pitch": 83, "duration": 6, "velocity": 75}, {"time": 62, "pitch": 95, "duration": 6, "velocity": 75}, {"time": 68, "pitch": 83, "duration": 12, "velocity": 79}, {"time": 68, "pitch": 95, "duration": 12, "velocity": 79}, {"time": 80, "pitch": 81, "duration": 6, "velocity": 64}, {"time": 80, "pitch": 93, "duration": 6, "velocity": 64}, {"time": 86, "pitch": 76, "duration": 6, "velocity": 64}, {"time": 86, "pitch": 88, "duration": 6, "velocity": 64}, {"time": 92, "pitch": 79, "duration": 36, "velocity": 64}, {"time": 92, "pitch": 91, "duration": 36, "velocity": 64}, {"time": 128, "pitch": 79, "duration": 6, "velocity": 79}, {"time": 128, "pitch": 91, "duration": 6, "velocity": 79}, {"time": 134, "pitch": 79, "duration": 6, "velocity": 79}, {"time": 134, "pitch": 91, "duration": 6, "velocity": 79}, {"time": 140, "pitch": 81, "duration": 6, "velocity": 79}, {"time": 140, "pitch": 93, "duration": 6, "velocity": 79}, {"time": 146, "pitch": 76, "duration": 66, "velocity": 79}, {"time": 146, "pitch": 88, "duration": 66, "velocity": 79}, {"time": 212, "pitch": 69, "duration": 6, "velocity": 64}, {"time": 212, "pitch": 81, "duration": 6, "velocity": 64}, {"time": 218, "pitch": 67, "duration": 10, "velocity": 70}, {"time": 218, "pitch": 72, "duration": 6, "velocity": 64}, {"time": 218, "pitch": 84, "duration": 6, "velocity": 64}, {"time": 224, "pitch": 69, "duration": 6, "velocity": 64}, {"time": 224, "pitch": 81, "duration": 6, "velocity": 64}, {"time": 230, "pitch": 72, "duration": 6, "velocity": 64}, {"time": 230, "pitch": 84, "duration": 6, "velocity": 64}, {"time": 236, "pitch": 69, "duration": 6, "velocity": 64}, {"time": 236, "pitch": 81, "duration": 6, "velocity": 64}, {"time": 242, "pitch": 72, "duration": 6, "velocity": 64}, {"time": 242, "pitch": 84, "duration": 6, "velocity": 64}, {"time": 248, "pitch": 76, "duration": 6, "velocity": 64}, {"time": 248, "pitch": 88, "duration": 6, "velocity": 64}, {"time": 254, "pitch": 76, "duration": 12, "velocity": 64}, {"time": 254, "pitch": 88, "duration": 12, "velocity": 64}, {"time": 266, "pitch": 76, "duration": 18, "velocity": 64}, {"time": 266, "pitch": 88, "duration": 18, "velocity": 64}, {"time": 284, "pitch": 79, "duration": 54, "velocity": 64}, {"time": 284, "pitch": 91, "duration": 54, "velocity": 64}, {"time": 338, "pitch": 72, "duration": 36, "velocity": 64}, {"time": 338, "pitch": 84, "duration": 36, "velocity": 64}, {"time": 338, "pitch": 96, "duration": 36, "velocity": 64}, {"time": 374, "pitch": 67, "duration": 12, "velocity": 64}, {"time": 374, "pitch": 79, "duration": 12, "velocity": 64}, {"time": 374, "pitch": 91, "duration": 12, "velocity": 64}, {"time": 386, "pitch": 67, "duration": 25, "velocity": 64}, {"time": 386, "pitch": 71, "duration": 43, "velocity": 64}, {"time": 386, "pitch": 83, "duration": 43, "velocity": 64}, {"time": 386, "pitch": 95, "duration": 43, "velocity": 64}, {"time": 1202, "pitch": 76, "duration": 31, "velocity": 93}, {"time": 1202, "pitch": 88, "duration": 31, "velocity": 93}, {"time": 1232, "pitch": 74, "duration": 6, "velocity": 93}, {"time": 1232, "pitch": 86, "duration": 6, "velocity": 93}, {"time": 1238, "pitch": 72, "duration": 7, "velocity": 72}, {"time": 1238, "pitch": 84, "duration": 7, "velocity": 72}, {"time": 1244, "pitch": 74, "duration": 18, "velocity": 91}, {"time": 1244, "pitch": 86, "duration": 18, "velocity": 91}, {"time": 1274, "pitch": 76, "duration": 2, "velocity": 69}, {"time": 1274, "pitch": 88, "duration": 2, "velocity": 56}, {"time": 1274, "pitch": 100, "duration": 2, "velocity": 56}, {"time": 1286, "pitch": 77, "duration": 2, "velocity": 66}, {"time": 1286, "pitch": 89, "duration": 3, "velocity": 69}, {"time": 1286, "pitch": 101, "duration": 3, "velocity": 69}, {"time": 1298, "pitch": 79, "duration": 7, "velocity": 56}, {"time": 1298, "pitch": 91, "duration": 8, "velocity": 54}, {"time": 1298, "pitch": 103, "duration": 8, "velocity": 54}, {"time": 1442, "pitch": 83, "duration": 6, "velocity": 58}, {"time": 1448, "pitch": 84, "duration": 5, "velocity": 49}, {"time": 1454, "pitch": 83, "duration": 6, "velocity": 49}, {"time": 1461, "pitch": 84, "duration": 5, "velocity": 49}, {"time": 1466, "pitch": 83, "duration": 6, "velocity": 62}, {"time": 1472, "pitch": 79, "duration": 6, "velocity": 63}, {"time": 1478, "pitch": 76, "duration": 6, "velocity": 63}, {"time": 1484, "pitch": 81, "duration": 18, "velocity": 63}, {"time": 2594, "pitch": 76, "duration": 12, "velocity": 64}, {"time": 2594, "pitch": 88, "duration": 12, "velocity": 64}, {"time": 2606, "pitch": 83, "duration": 6, "velocity": 75}, {"time": 2606, "pitch": 95, "duration": 6, "velocity": 75}, {"time": 2612, "pitch": 83, "duration": 12, "velocity": 79}, {"time": 2612, "pitch": 95, "duration": 12, "velocity": 79}, {"time": 2624, "pitch": 81, "duration": 6, "velocity": 64}, {"time": 2624, "pitch": 93, "duration": 6, "velocity": 64}, {"time": 2630, "pitch": 76, "duration": 6, "velocity": 64}, {"time": 2630, "pitch": 88, "duration": 6, "velocity": 64}, {"time": 2636, "pitch": 79, "duration": 36, "velocity": 64}, {"time": 2636, "pitch": 91, "duration": 36, "velocity": 64}, {"time": 2672, "pitch": 79, "duration": 6, "velocity": 79}, {"time": 2672, "pitch": 91, "duration": 6, "velocity": 79}, {"time": 2678, "pitch": 79, "duration": 6, "velocity": 79}, {"time": 2678, "pitch": 91, "duration": 6, "velocity": 79}, {"time": 2684, "pitch": 81, "duration": 6, "velocity": 79}, {"time": 2684, "pitch": 93, "duration": 6, "velocity": 79}, {"time": 2690, "pitch": 76, "duration": 66, "velocity": 79}, {"time": 2690, "pitch": 88, "duration": 66, "velocity": 79}, {"time": 2756, "pitch": 69, "duration": 6, "velocity": 64}, {"time": 2756, "pitch": 81, "duration": 6, "velocity": 64}, {"time": 2762, "pitch": 67, "duration": 10, "velocity": 70}, {"time": 2762, "pitch": 72, "duration": 6, "velocity": 64}, {"time": 2762, "pitch": 84, "duration": 6, "velocity": 64}, {"time": 2768, "pitch": 69, "duration": 6, "velocity": 64}, {"time": 2768, "pitch": 81, "duration": 6, "velocity": 64}, {"time": 2774, "pitch": 72, "duration": 6, "velocity": 64}, {"time": 2774, "pitch": 84, "duration": 6, "velocity": 64}, {"time": 2780, "pitch": 69, "duration": 6, "velocity": 64}, {"time": 2780, "pitch": 81, "duration": 6, "velocity": 64}, {"time": 2786, "pitch": 72, "duration": 6, "velocity": 64}, {"time": 2786, "pitch": 84, "duration": 6, "velocity": 64}, {"time": 2792, "pitch": 76, "duration": 6, "velocity": 64}, {"time": 2792, "pitch": 88, "duration": 6, "velocity": 64}, {"time": 2798, "pitch": 76, "duration": 12, "velocity": 64}, {"time": 2798, "pitch": 88, "duration": 12, "velocity": 64}, {"time": 2810, "pitch": 76, "duration": 18, "velocity": 64}, {"time": 2810, "pitch": 88, "duration": 18, "velocity": 64}, {"time": 2828, "pitch": 79, "duration": 54, "velocity": 64}, {"time": 2828, "pitch": 91, "duration": 54, "velocity": 64}, {"time": 2882, "pitch": 72, "duration": 36, "velocity": 64}, {"time": 2882, "pitch": 84, "duration": 36, "velocity": 64}, {"time": 2882, "pitch": 96, "duration": 36, "velocity": 64}, {"time": 2918, "pitch": 67, "duration": 12, "velocity": 64}, {"time": 2918, "pitch": 79, "duration": 12, "velocity": 64}, {"time": 2918, "pitch": 91, "duration": 12, "velocity": 64}, {"time": 2930, "pitch": 67, "duration": 25, "velocity": 64}, {"time": 2930, "pitch": 71, "duration": 43, "velocity": 64}, {"time": 2930, "pitch": 83, "duration": 43, "velocity": 64}, {"time": 2930, "pitch": 95, "duration": 43, "velocity": 64}, {"time": 4704, "pitch": 77, "duration": 5, "velocity": 70}, {"time": 4710, "pitch": 76, "duration": 6, "velocity": 61}, {"time": 4716, "pitch": 74, "duration": 5, "velocity": 60}, {"time": 4722, "pitch": 72, "duration": 10, "velocity": 66}, {"time": 4734, "pitch": 74, "duration": 6, "velocity": 57}, {"time": 4740, "pitch": 76, "duration": 5, "velocity": 61}, {"time": 4746, "pitch": 72, "duration": 15, "velocity": 58}, {"time": 4752, "pitch": 74, "duration": 10, "velocity": 59}], "annotations": [{"time": 56, "annotation": {"number": 64, "value": 127}, "group": "control_change"}, {"time": 99, "annotation": {"number": 64, "value": 127}, "group": "control_change"}, {"time": 117, "annotation": {"number": 64, "value": 0}, "group": "control_change"}, {"time": 145, "annotation": {"number": 64, "value": 0}, "group": "control_change"}, {"time": 150, "annotation": {"number": 64, "value": 127}, "group": "control_change"}, {"time": 195, "annotation": {"number": 64, "value": 0}, "group": "control_change"}, {"time": 199, "annotation": {"number": 64, "value": 127}, "group": "control_change"}, {"time": 240, "annotation": {"number": 64, "value": 0}, "group": "control_change"}, {"time": 244, "annotation": {"number": 64, "value": 127}, "group": "control_change"}, {"time": 293, "annotation": {"number": 64, "value": 0}, "group": "control_change"}, {"time": 298, "annotation": {"number": 64, "value": 127}, "group": "control_change"}, {"time": 337, "annotation": {"number": 64, "value": 0}, "group": "control_change"}, {"time": 339, "annotation": {"number": 64, "value": 127}, "group": "control_change"}, {"time": 386, "annotation": {"number": 64, "value": 0}, "group": "control_change"}, {"time": 390, "annotation": {"number": 64, "value": 127}, "group": "control_change"}, {"time": 434, "annotation": {"number": 64, "value": 0}, "group": "control_change"}, {"time": 1202, "annotation": {"number": 64, "value": 127}, "group": "control_change"}, {"time": 1244, "annotation": {"number": 64, "value": 0}, "group": "control_change"}, {"time": 1249, "annotation": {"number": 64, "value": 127}, "group": "control_change"}, {"time": 1297, "annotation": {"number": 64, "value": 0}, "group": "control_change"}, {"time": 1302, "annotation": {"number": 64, "value": 127}, "group": "control_change"}, {"time": 1321, "annotation": {"number": 64, "value": 0}, "group": "control_change"}, {"time": 1443, "annotation": {"number": 64, "value": 127}, "group": "control_change"}, {"time": 1498, "annotation": {"number": 64, "value": 0}, "group": "control_change"}, {"time": 2600, "annotation": {"number": 64, "value": 127}, "group": "control_change"}, {"time": 2643, "annotation": {"number": 64, "value": 127}, "group": "control_change"}, {"time": 2661, "annotation": {"number": 64, "value": 0}, "group": "control_change"}, {"time": 2689, "annotation": {"number": 64, "value": 0}, "group": "control_change"}, {"time": 2694, "annotation": {"number": 64, "value": 127}, "group": "control_change"}, {"time": 2739, "annotation": {"number": 64, "value": 0}, "group": "control_change"}, {"time": 2743, "annotation": {"number": 64, "value": 127}, "group": "control_change"}, {"time": 2784, "annotation": {"number": 64, "value": 0}, "group": "control_change"}, {"time": 2788, "annotation": {"number": 64, "value": 127}, "group": "control_change"}, {"time": 2837, "annotation": {"number": 64, "value": 0}, "group": "control_change"}, {"time": 2842, "annotation": {"number": 64, "value": 127}, "group": "control_change"}, {"time": 2881, "annotation": {"number": 64, "value": 0}, "group": "control_change"}, {"time": 2883, "annotation": {"number": 64, "value": 127}, "group": "control_change"}, {"time": 2930, "annotation": {"number": 64, "value": 0}, "group": "control_change"}, {"time": 2934, "annotation": {"number": 64, "value": 127}, "group": "control_change"}, {"time": 2978, "annotation": {"number": 64, "value": 0}, "group": "control_change"}, {"time": 5328, "annotation": {"number": 64, "value": 0}, "group": "control_change"}]}, {"program": 0, "is_drum": false, "name": "PIANO", "notes": [{"time": 50, "pitch": 48, "duration": 39, "velocity": 72}, {"time": 50, "pitch": 60, "duration": 37, "velocity": 66}, {"time": 50, "pitch": 60, "duration": 37, "velocity": 72}, {"time": 50, "pitch": 64, "duration": 27, "velocity": 72}, {"time": 50, "pitch": 67, "duration": 27, "velocity": 73}, {"time": 50, "pitch": 71, "duration": 19, "velocity": 76}, {"time": 50, "pitch": 72, "duration": 37, "velocity": 66}, {"time": 50, "pitch": 76, "duration": 12, "velocity": 64}, {"time": 50, "pitch": 79, "duration": 27, "velocity": 73}, {"time": 50, "pitch": 83, "duration": 19, "velocity": 76}, {"time": 80, "pitch": 64, "duration": 7, "velocity": 70}, {"time": 98, "pitch": 47, "duration": 36, "velocity": 67}, {"time": 98, "pitch": 59, "duration": 33, "velocity": 63}, {"time": 98, "pitch": 59, "duration": 33, "velocity": 67}, {"time": 98, "pitch": 62, "duration": 19, "velocity": 63}, {"time": 98, "pitch": 67, "duration": 17, "velocity": 69}, {"time": 98, "pitch": 71, "duration": 18, "velocity": 69}, {"time": 98, "pitch": 74, "duration": 19, "velocity": 63}, {"time": 98, "pitch": 79, "duration": 17, "velocity": 69}, {"time": 98, "pitch": 83, "duration": 18, "velocity": 69}, {"time": 122, "pitch": 62, "duration": 11, "velocity": 59}, {"time": 122, "pitch": 67, "duration": 11, "velocity": 60}, {"time": 122, "pitch": 71, "duration": 9, "velocity": 60}, {"time": 122, "pitch": 74, "duration": 11, "velocity": 59}, {"time": 122, "pitch": 79, "duration": 11, "velocity": 60}, {"time": 122, "pitch": 83, "duration": 9, "velocity": 60}, {"time": 146, "pitch": 45, "duration": 40, "velocity": 64}, {"time": 146, "pitch": 57, "duration": 31, "velocity": 49}, {"time": 146, "pitch": 64, "duration": 14, "velocity": 67}, {"time": 146, "pitch": 69, "duration": 17, "velocity": 49}, {"time": 146, "pitch": 76, "duration": 14, "velocity": 67}, {"time": 146, "pitch": 81, "duration": 17, "velocity": 49}, {"time": 170, "pitch": 60, "duration": 14, "velocity": 62}, {"time": 170, "pitch": 64, "duration": 14, "velocity": 63}, {"time": 170, "pitch": 67, "duration": 13, "velocity": 58}, {"time": 170, "pitch": 69, "duration": 13, "velocity": 56}, {"time": 170, "pitch": 72, "duration": 14, "velocity": 62}, {"time": 170, "pitch": 76, "duration": 14, "velocity": 63}, {"time": 170, "pitch": 79, "duration": 13, "velocity": 58}, {"time": 170, "pitch": 81, "duration": 13, "velocity": 56}, {"time": 182, "pitch": 57, "duration": 4, "velocity": 40}, {"time": 182, "pitch": 69, "duration": 1, "velocity": 40}, {"time": 194, "pitch": 43, "duration": 35, "velocity": 43}, {"time": 194, "pitch": 55, "duration": 27, "velocity": 42}, {"time": 194, "pitch": 55, "duration": 27, "velocity": 43}, {"time": 194, "pitch": 60, "duration": 18, "velocity": 63}, {"time": 194, "pitch": 64, "duration": 16, "velocity": 67}, {"time": 194, "pitch": 67, "duration": 15, "velocity": 61}, {"time": 194, "pitch": 72, "duration": 18, "velocity": 63}, {"time": 194, "pitch": 76, "duration": 16, "velocity": 67}, {"time": 194, "pitch": 79, "duration": 15, "velocity": 61}, {"time": 218, "pitch": 60, "duration": 12, "velocity": 73}, {"time": 218, "pitch": 64, "duration": 13, "velocity": 75}, {"time": 218, "pitch": 67, "duration": 10, "velocity": 70}, {"time": 218, "pitch": 72, "duration": 6, "velocity": 64}, {"time": 218, "pitch": 72, "duration": 6, "velocity": 73}, {"time": 218, "pitch": 76, "duration": 13, "velocity": 75}, {"time": 218, "pitch": 79, "duration": 10, "velocity": 70}, {"time": 230, "pitch": 55, "duration": 3, "velocity": 58}, {"time": 242, "pitch": 53, "duration": 31, "velocity": 63}, {"time": 242, "pitch": 60, "duration": 18, "velocity": 69}, {"time": 242, "pitch": 65, "duration": 19, "velocity": 63}, {"time": 242, "pitch": 65, "duration": 19, "velocity": 69}, {"time": 242, "pitch": 67, "duration": 19, "velocity": 64}, {"time": 242, "pitch": 69, "duration": 19, "velocity": 63}, {"time": 242, "pitch": 72, "duration": 6, "velocity": 64}, {"time": 242, "pitch": 72, "duration": 6, "velocity": 69}, {"time": 242, "pitch": 77, "duration": 19, "velocity": 69}, {"time": 242, "pitch": 79, "duration": 19, "velocity": 64}, {"time": 242, "pitch": 81, "duration": 19, "velocity": 63}, {"time": 266, "pitch": 60, "duration": 10, "velocity": 67}, {"time": 266, "pitch": 65, "duration": 7, "velocity": 72}, {"time": 266, "pitch": 67, "duration": 10, "velocity": 69}, {"time": 266, "pitch": 69, "duration": 10, "velocity": 69}, {"time": 266, "pitch": 72, "duration": 10, "velocity": 67}, {"time": 266, "pitch": 77, "duration": 10, "velocity": 72}, {"time": 266, "pitch": 79, "duration": 10, "velocity": 69}, {"time": 266, "pitch": 81, "duration": 10, "velocity": 69}, {"time": 278, "pitch": 53, "duration": 3, "velocity": 63}, {"time": 278, "pitch": 65, "duration": 3, "velocity": 63}, {"time": 290, "pitch": 43, "duration": 37, "velocity": 50}, {"time": 290, "pitch": 55, "duration": 28, "velocity": 50}, {"time": 290, "pitch": 59, "duration": 14, "velocity": 66}, {"time": 290, "pitch": 62, "duration": 14, "velocity": 63}, {"time": 290, "pitch": 71, "duration": 14, "velocity": 66}, {"time": 290, "pitch": 74, "duration": 14, "velocity": 63}, {"time": 290, "pitch": 79, "duration": 12, "velocity": 59}, {"time": 308, "pitch": 55, "duration": 10, "velocity": 44}, {"time": 314, "pitch": 59, "duration": 14, "velocity": 69}, {"time": 314, "pitch": 62, "duration": 13, "velocity": 72}, {"time": 314, "pitch": 67, "duration": 12, "velocity": 70}, {"time": 314, "pitch": 71, "duration": 14, "velocity": 69}, {"time": 314, "pitch": 74, "duration": 13, "velocity": 72}, {"time": 314, "pitch": 79, "duration": 12, "velocity": 70}, {"time": 326, "pitch": 55, "duration": 1, "velocity": 56}, {"time": 338, "pitch": 41, "duration": 43, "velocity": 67}, {"time": 338, "pitch": 53, "duration": 32, "velocity": 67}, {"time": 338, "pitch": 57, "duration": 12, "velocity": 67}, {"time": 338, "pitch": 60, "duration": 12, "velocity": 73}, {"time": 338, "pitch": 64, "duration": 11, "velocity": 72}, {"time": 338, "pitch": 69, "duration": 12, "velocity": 67}, {"time": 338, "pitch": 72, "duration": 12, "velocity": 73}, {"time": 338, "pitch": 76, "duration": 11, "velocity": 72}, {"time": 344, "pitch": 48, "duration": 37, "velocity": 48}, {"time": 344, "pitch": 60, "duration": 6, "velocity": 48}, {"time": 350, "pitch": 53, "duration": 20, "velocity": 49}, {"time": 350, "pitch": 65, "duration": 20, "velocity": 49}, {"time": 356, "pitch": 57, "duration": 15, "velocity": 82}, {"time": 356, "pitch": 69, "duration": 15, "velocity": 82}, {"time": 368, "pitch": 60, "duration": 10, "velocity": 75}, {"time": 368, "pitch": 64, "duration": 13, "velocity": 72}, {"time": 368, "pitch": 72, "duration": 10, "velocity": 75}, {"time": 368, "pitch": 76, "duration": 13, "velocity": 72}, {"time": 374, "pitch": 79, "duration": 12, "velocity": 64}, {"time": 380, "pitch": 53, "duration": 1, "velocity": 48}, {"time": 380, "pitch": 65, "duration": 3, "velocity": 48}, {"time": 386, "pitch": 43, "duration": 48, "velocity": 69}, {"time": 386, "pitch": 55, "duration": 48, "velocity": 69}, {"time": 386, "pitch": 59, "duration": 20, "velocity": 73}, {"time": 386, "pitch": 62, "duration": 24, "velocity": 75}, {"time": 386, "pitch": 67, "duration": 25, "velocity": 64}, {"time": 386, "pitch": 71, "duration": 20, "velocity": 73}, {"time": 386, "pitch": 74, "duration": 24, "velocity": 75}, {"time": 386, "pitch": 79, "duration": 25, "velocity": 64}, {"time": 434, "pitch": 48, "duration": 34, "velocity": 44}, {"time": 434, "pitch": 55, "duration": 34, "velocity": 44}, {"time": 434, "pitch": 60, "duration": 13, "velocity": 46}, {"time": 434, "pitch": 64, "duration": 13, "velocity": 46}, {"time": 434, "pitch": 67, "duration": 13, "velocity": 55}, {"time": 458, "pitch": 64, "duration": 10, "velocity": 56}, {"time": 482, "pitch": 47, "duration": 34, "velocity": 45}, {"time": 482, "pitch": 55, "duration": 34, "velocity": 45}, {"time": 482, "pitch": 59, "duration": 31, "velocity": 44}, {"time": 482, "pitch": 62, "duration": 13, "velocity": 43}, {"time": 482, "pitch": 67, "duration": 14, "velocity": 44}, {"time": 506, "pitch": 67, "duration": 9, "velocity": 49}, {"time": 530, "pitch": 45, "duration": 34, "velocity": 42}, {"time": 530, "pitch": 52, "duration": 34, "velocity": 42}, {"time": 530, "pitch": 57, "duration": 16, "velocity": 43}, {"time": 530, "pitch": 60, "duration": 16, "velocity": 48}, {"time": 530, "pitch": 64, "duration": 16, "velocity": 49}, {"time": 554, "pitch": 64, "duration": 12, "velocity": 55}, {"time": 578, "pitch": 42, "duration": 31, "velocity": 58}, {"time": 578, "pitch": 54, "duration": 30, "velocity": 47}, {"time": 579, "pitch": 64, "duration": 31, "velocity": 55}, {"time": 579, "pitch": 57, "duration": 31, "velocity": 49}, {"time": 579, "pitch": 60, "duration": 30, "velocity": 59}, {"time": 626, "pitch": 41, "duration": 38, "velocity": 53}, {"time": 626, "pitch": 53, "duration": 37, "velocity": 47}, {"time": 626, "pitch": 57, "duration": 16, "velocity": 54}, {"time": 626, "pitch": 60, "duration": 15, "velocity": 63}, {"time": 626, "pitch": 64, "duration": 15, "velocity": 54}, {"time": 650, "pitch": 57, "duration": 14, "velocity": 37}, {"time": 650, "pitch": 60, "duration": 13, "velocity": 44}, {"time": 650, "pitch": 64, "duration": 12, "velocity": 40}, {"time": 674, "pitch": 40, "duration": 37, "velocity": 44}, {"time": 674, "pitch": 52, "duration": 36, "velocity": 39}, {"time": 674, "pitch": 55, "duration": 19, "velocity": 48}, {"time": 674, "pitch": 59, "duration": 19, "velocity": 53}, {"time": 674, "pitch": 62, "duration": 17, "velocity": 52}, {"time": 698, "pitch": 55, "duration": 11, "velocity": 49}, {"time": 698, "pitch": 59, "duration": 11, "velocity": 51}, {"time": 698, "pitch": 62, "duration": 13, "velocity": 54}, {"time": 722, "pitch": 38, "duration": 32, "velocity": 57}, {"time": 722, "pitch": 50, "duration": 35, "velocity": 51}, {"time": 722, "pitch": 53, "duration": 17, "velocity": 55}, {"time": 722, "pitch": 57, "duration": 16, "velocity": 62}, {"time": 722, "pitch": 62, "duration": 15, "velocity": 50}, {"time": 746, "pitch": 53, "duration": 13, "velocity": 54}, {"time": 746, "pitch": 57, "duration": 12, "velocity": 60}, {"time": 746, "pitch": 62, "duration": 11, "velocity": 53}, {"time": 770, "pitch": 43, "duration": 39, "velocity": 44}, {"time": 770, "pitch": 50, "duration": 39, "velocity": 44}, {"time": 770, "pitch": 59, "duration": 13, "velocity": 52}, {"time": 770, "pitch": 62, "duration": 13, "velocity": 61}, {"time": 770, "pitch": 67, "duration": 12, "velocity": 50}, {"time": 794, "pitch": 59, "duration": 12, "velocity": 48}, {"time": 794, "pitch": 62, "duration": 10, "velocity": 60}, {"time": 794, "pitch": 67, "duration": 12, "velocity": 51}, {"time": 806, "pitch": 43, "duration": 3, "velocity": 49}, {"time": 812, "pitch": 55, "duration": 8, "velocity": 56}, {"time": 818, "pitch": 48, "duration": 37, "velocity": 63}, {"time": 818, "pitch": 60, "duration": 9, "velocity": 66}, {"time": 818, "pitch": 64, "duration": 10, "velocity": 67}, {"time": 830, "pitch": 55, "duration": 13, "velocity": 32}, {"time": 842, "pitch": 60, "duration": 11, "velocity": 53}, {"time": 842, "pitch": 62, "duration": 13, "velocity": 58}, {"time": 842, "pitch": 64, "duration": 13, "velocity": 62}, {"time": 842, "pitch": 67, "duration": 10, "velocity": 62}, {"time": 854, "pitch": 55, "duration": 12, "velocity": 40}, {"time": 866, "pitch": 47, "duration": 38, "velocity": 62}, {"time": 866, "pitch": 62, "duration": 13, "velocity": 59}, {"time": 866, "pitch": 67, "duration": 13, "velocity": 66}, {"time": 878, "pitch": 55, "duration": 14, "velocity": 40}, {"time": 890, "pitch": 59, "duration": 9, "velocity": 54}, {"time": 890, "pitch": 62, "duration": 9, "velocity": 55}, {"time": 890, "pitch": 67, "duration": 9, "velocity": 64}, {"time": 896, "pitch": 55, "duration": 8, "velocity": 63}, {"time": 902, "pitch": 69, "duration": 7, "velocity": 63}, {"time": 908, "pitch": 71, "duration": 5, "velocity": 57}, {"time": 914, "pitch": 45, "duration": 37, "velocity": 66}, {"time": 914, "pitch": 64, "duration": 15, "velocity": 48}, {"time": 914, "pitch": 67, "duration": 17, "velocity": 56}, {"time": 914, "pitch": 72, "duration": 14, "velocity": 57}, {"time": 926, "pitch": 52, "duration": 14, "velocity": 40}, {"time": 938, "pitch": 57, "duration": 12, "velocity": 47}, {"time": 938, "pitch": 64, "duration": 14, "velocity": 62}, {"time": 938, "pitch": 67, "duration": 14, "velocity": 64}, {"time": 938, "pitch": 72, "duration": 20, "velocity": 69}, {"time": 950, "pitch": 52, "duration": 14, "velocity": 50}, {"time": 962, "pitch": 43, "duration": 41, "velocity": 62}, {"time": 962, "pitch": 55, "duration": 29, "velocity": 51}, {"time": 962, "pitch": 62, "duration": 16, "velocity": 62}, {"time": 962, "pitch": 67, "duration": 19, "velocity": 62}, {"time": 962, "pitch": 71, "duration": 17, "velocity": 64}, {"time": 986, "pitch": 62, "duration": 13, "velocity": 67}, {"time": 986, "pitch": 67, "duration": 10, "velocity": 72}, {"time": 986, "pitch": 71, "duration": 12, "velocity": 69}, {"time": 998, "pitch": 55, "duration": 5, "velocity": 50}, {"time": 1010, "pitch": 41, "duration": 40, "velocity": 66}, {"time": 1010, "pitch": 53, "duration": 31, "velocity": 61}, {"time": 1010, "pitch": 60, "duration": 16, "velocity": 66}, {"time": 1010, "pitch": 65, "duration": 16, "velocity": 66}, {"time": 1010, "pitch": 69, "duration": 19, "velocity": 55}, {"time": 1010, "pitch": 72, "duration": 17, "velocity": 36}, {"time": 1034, "pitch": 60, "duration": 13, "velocity": 60}, {"time": 1034, "pitch": 65, "duration": 13, "velocity": 64}, {"time": 1034, "pitch": 69, "duration": 15, "velocity": 53}, {"time": 1034, "pitch": 72, "duration": 14, "velocity": 48}, {"time": 1046, "pitch": 53, "duration": 5, "velocity": 48}, {"time": 1058, "pitch": 40, "duration": 29, "velocity": 63}, {"time": 1058, "pitch": 52, "duration": 12, "velocity": 48}, {"time": 1058, "pitch": 64, "duration": 18, "velocity": 60}, {"time": 1058, "pitch": 67, "duration": 19, "velocity": 61}, {"time": 1058, "pitch": 72, "duration": 19, "velocity": 62}, {"time": 1076, "pitch": 52, "duration": 11, "velocity": 40}, {"time": 1082, "pitch": 64, "duration": 13, "velocity": 69}, {"time": 1082, "pitch": 67, "duration": 13, "velocity": 70}, {"time": 1082, "pitch": 72, "duration": 13, "velocity": 66}, {"time": 1094, "pitch": 39, "duration": 12, "velocity": 66}, {"time": 1106, "pitch": 38, "duration": 37, "velocity": 63}, {"time": 1106, "pitch": 50, "duration": 13, "velocity": 55}, {"time": 1106, "pitch": 62, "duration": 17, "velocity": 61}, {"time": 1106, "pitch": 65, "duration": 17, "velocity": 64}, {"time": 1106, "pitch": 69, "duration": 18, "velocity": 60}, {"time": 1106, "pitch": 72, "duration": 19, "velocity": 58}, {"time": 1124, "pitch": 50, "duration": 10, "velocity": 41}, {"time": 1130, "pitch": 62, "duration": 18, "velocity": 55}, {"time": 1130, "pitch": 65, "duration": 17, "velocity": 63}, {"time": 1130, "pitch": 69, "duration": 18, "velocity": 62}, {"time": 1130, "pitch": 72, "duration": 20, "velocity": 48}, {"time": 1142, "pitch": 50, "duration": 5, "velocity": 41}, {"time": 1148, "pitch": 40, "duration": 5, "velocity": 35}, {"time": 1154, "pitch": 43, "duration": 37, "velocity": 66}, {"time": 1154, "pitch": 60, "duration": 18, "velocity": 66}, {"time": 1154, "pitch": 65, "duration": 17, "velocity": 69}, {"time": 1154, "pitch": 69, "duration": 16, "velocity": 59}, {"time": 1154, "pitch": 72, "duration": 16, "velocity": 37}, {"time": 1172, "pitch": 55, "duration": 25, "velocity": 45}, {"time": 1178, "pitch": 60, "duration": 7, "velocity": 63}, {"time": 1184, "pitch": 65, "duration": 4, "velocity": 66}, {"time": 1190, "pitch": 67, "duration": 5, "velocity": 57}, {"time": 1196, "pitch": 72, "duration": 6, "velocity": 64}, {"time": 1202, "pitch": 46, "duration": 32, "velocity": 61}, {"time": 1202, "pitch": 58, "duration": 38, "velocity": 62}, {"time": 1202, "pitch": 62, "duration": 16, "velocity": 55}, {"time": 1202, "pitch": 65, "duration": 15, "velocity": 67}, {"time": 1202, "pitch": 70, "duration": 18, "velocity": 58}, {"time": 1226, "pitch": 62, "duration": 11, "velocity": 47}, {"time": 1226, "pitch": 65, "duration": 11, "velocity": 63}, {"time": 1226, "pitch": 70, "duration": 13, "velocity": 59}, {"time": 1238, "pitch": 46, "duration": 3, "velocity": 59}, {"time": 1250, "pitch": 43, "duration": 24, "velocity": 59}, {"time": 1250, "pitch": 55, "duration": 5, "velocity": 62}, {"time": 1250, "pitch": 60, "duration": 12, "velocity": 63}, {"time": 1250, "pitch": 65, "duration": 10, "velocity": 62}, {"time": 1250, "pitch": 69, "duration": 11, "velocity": 55}, {"time": 1250, "pitch": 72, "duration": 11, "velocity": 61}, {"time": 1262, "pitch": 55, "duration": 8, "velocity": 49}, {"time": 1268, "pitch": 60, "duration": 5, "velocity": 73}, {"time": 1274, "pitch": 55, "duration": 9, "velocity": 60}, {"time": 1274, "pitch": 65, "duration": 7, "velocity": 67}, {"time": 1280, "pitch": 57, "duration": 7, "velocity": 49}, {"time": 1280, "pitch": 67, "duration": 2, "velocity": 64}, {"time": 1286, "pitch": 59, "duration": 2, "velocity": 60}, {"time": 1286, "pitch": 72, "duration": 4, "velocity": 70}, {"time": 1292, "pitch": 74, "duration": 7, "velocity": 52}, {"time": 1298, "pitch": 41, "duration": 37, "velocity": 61}, {"time": 1298, "pitch": 53, "duration": 28, "velocity": 60}, {"time": 1298, "pitch": 60, "duration": 18, "velocity": 59}, {"time": 1298, "pitch": 65, "duration": 15, "velocity": 60}, {"time": 1298, "pitch": 67, "duration": 17, "velocity": 58}, {"time": 1298, "pitch": 69, "duration": 17, "velocity": 59}, {"time": 1322, "pitch": 60, "duration": 14, "velocity": 61}, {"time": 1322, "pitch": 65, "duration": 13, "velocity": 60}, {"time": 1322, "pitch": 67, "duration": 12, "velocity": 63}, {"time": 1322, "pitch": 69, "duration": 15, "velocity": 57}, {"time": 1334, "pitch": 53, "duration": 4, "velocity": 50}, {"time": 1346, "pitch": 41, "duration": 36, "velocity": 64}, {"time": 1346, "pitch": 53, "duration": 12, "velocity": 57}, {"time": 1346, "pitch": 62, "duration": 19, "velocity": 62}, {"time": 1346, "pitch": 67, "duration": 19, "velocity": 63}, {"time": 1346, "pitch": 71, "duration": 18, "velocity": 60}, {"time": 1364, "pitch": 53, "duration": 9, "velocity": 48}, {"time": 1370, "pitch": 62, "duration": 12, "velocity": 72}, {"time": 1370, "pitch": 67, "duration": 12, "velocity": 75}, {"time": 1370, "pitch": 71, "duration": 12, "velocity": 72}, {"time": 1382, "pitch": 53, "duration": 3, "velocity": 53}, {"time": 1394, "pitch": 48, "duration": 16, "velocity": 56}, {"time": 1394, "pitch": 60, "duration": 15, "velocity": 56}, {"time": 1394, "pitch": 64, "duration": 16, "velocity": 59}, {"time": 1394, "pitch": 67, "duration": 15, "velocity": 62}, {"time": 1394, "pitch": 72, "duration": 18, "velocity": 59}, {"time": 1418, "pitch": 47, "duration": 15, "velocity": 62}, {"time": 1418, "pitch": 59, "duration": 14, "velocity": 49}, {"time": 1418, "pitch": 62, "duration": 15, "velocity": 56}, {"time": 1418, "pitch": 67, "duration": 16, "velocity": 59}, {"time": 1418, "pitch": 71, "duration": 15, "velocity": 59}, {"time": 1442, "pitch": 45, "duration": 39, "velocity": 66}, {"time": 1442, "pitch": 64, "duration": 12, "velocity": 64}, {"time": 1442, "pitch": 67, "duration": 12, "velocity": 66}, {"time": 1442, "pitch": 72, "duration": 14, "velocity": 62}, {"time": 1454, "pitch": 57, "duration": 19, "velocity": 47}, {"time": 1460, "pitch": 62, "duration": 3, "velocity": 58}, {"time": 1460, "pitch": 71, "duration": 4, "velocity": 69}, {"time": 1472, "pitch": 62, "duration": 7, "velocity": 67}, {"time": 1472, "pitch": 67, "duration": 7, "velocity": 70}, {"time": 1478, "pitch": 57, "duration": 4, "velocity": 54}, {"time": 1490, "pitch": 50, "duration": 14, "velocity": 61}, {"time": 1490, "pitch": 60, "duration": 17, "velocity": 63}, {"time": 1490, "pitch": 65, "duration": 15, "velocity": 62}, {"time": 1490, "pitch": 69, "duration": 17, "velocity": 58}, {"time": 1514, "pitch": 50, "duration": 13, "velocity": 59}, {"time": 1514, "pitch": 60, "duration": 13, "velocity": 50}, {"time": 1514, "pitch": 65, "duration": 15, "velocity": 59}, {"time": 1514, "pitch": 69, "duration": 15, "velocity": 54}, {"time": 1538, "pitch": 40, "duration": 39, "velocity": 66}, {"time": 1538, "pitch": 62, "duration": 16, "velocity": 64}, {"time": 1538, "pitch": 67, "duration": 16, "velocity": 69}, {"time": 1538, "pitch": 71, "duration": 17, "velocity": 66}, {"time": 1556, "pitch": 52, "duration": 9, "velocity": 35}, {"time": 1562, "pitch": 62, "duration": 15, "velocity": 66}, {"time": 1562, "pitch": 67, "duration": 15, "velocity": 72}, {"time": 1562, "pitch": 71, "duration": 14, "velocity": 62}, {"time": 1574, "pitch": 52, "duration": 3, "velocity": 61}, {"time": 1586, "pitch": 41, "duration": 33, "velocity": 70}, {"time": 1586, "pitch": 53, "duration": 12, "velocity": 75}, {"time": 1586, "pitch": 60, "duration": 19, "velocity": 69}, {"time": 1586, "pitch": 65, "duration": 19, "velocity": 75}, {"time": 1586, "pitch": 69, "duration": 19, "velocity": 64}, {"time": 1586, "pitch": 72, "duration": 19, "velocity": 53}, {"time": 1604, "pitch": 53, "duration": 8, "velocity": 58}, {"time": 1610, "pitch": 60, "duration": 7, "velocity": 76}, {"time": 1610, "pitch": 65, "duration": 8, "velocity": 73}, {"time": 1610, "pitch": 69, "duration": 8, "velocity": 72}, {"time": 1610, "pitch": 72, "duration": 8, "velocity": 57}, {"time": 1616, "pitch": 53, "duration": 6, "velocity": 58}, {"time": 1622, "pitch": 60, "duration": 6, "velocity": 61}, {"time": 1628, "pitch": 72, "duration": 5, "velocity": 72}, {"time": 1634, "pitch": 43, "duration": 11, "velocity": 72}, {"time": 1634, "pitch": 62, "duration": 13, "velocity": 69}, {"time": 1634, "pitch": 67, "duration": 10, "velocity": 82}, {"time": 1634, "pitch": 71, "duration": 12, "velocity": 78}, {"time": 1634, "pitch": 72, "duration": 13, "velocity": 44}, {"time": 1640, "pitch": 50, "duration": 6, "velocity": 66}, {"time": 1646, "pitch": 55, "duration": 7, "velocity": 76}, {"time": 1652, "pitch": 57, "duration": 9, "velocity": 51}, {"time": 1658, "pitch": 59, "duration": 3, "velocity": 73}, {"time": 1661, "pitch": 65, "duration": 3, "velocity": 64}, {"time": 1664, "pitch": 67, "duration": 2, "velocity": 72}, {"time": 1667, "pitch": 72, "duration": 4, "velocity": 78}, {"time": 1670, "pitch": 74, "duration": 4, "velocity": 62}, {"time": 1673, "pitch": 76, "duration": 2, "velocity": 69}, {"time": 1676, "pitch": 79, "duration": 6, "velocity": 75}, {"time": 1679, "pitch": 84, "duration": 6, "velocity": 70}, {"time": 1682, "pitch": 43, "duration": 30, "velocity": 72}, {"time": 1682, "pitch": 55, "duration": 31, "velocity": 75}, {"time": 1730, "pitch": 48, "duration": 37, "velocity": 72}, {"time": 1730, "pitch": 64, "duration": 7, "velocity": 80}, {"time": 1730, "pitch": 72, "duration": 10, "velocity": 76}, {"time": 1736, "pitch": 55, "duration": 22, "velocity": 54}, {"time": 1742, "pitch": 62, "duration": 3, "velocity": 59}, {"time": 1742, "pitch": 71, "duration": 4, "velocity": 69}, {"time": 1748, "pitch": 64, "duration": 4, "velocity": 82}, {"time": 1748, "pitch": 72, "duration": 6, "velocity": 75}, {"time": 1754, "pitch": 60, "duration": 10, "velocity": 57}, {"time": 1760, "pitch": 67, "duration": 3, "velocity": 63}, {"time": 1766, "pitch": 55, "duration": 8, "velocity": 67}, {"time": 1772, "pitch": 67, "duration": 19, "velocity": 69}, {"time": 1772, "pitch": 74, "duration": 21, "velocity": 76}, {"time": 1778, "pitch": 47, "duration": 9, "velocity": 62}, {"time": 1784, "pitch": 55, "duration": 6, "velocity": 61}, {"time": 1790, "pitch": 59, "duration": 8, "velocity": 61}, {"time": 1796, "pitch": 62, "duration": 13, "velocity": 63}, {"time": 1802, "pitch": 67, "duration": 4, "velocity": 66}, {"time": 1802, "pitch": 74, "duration": 7, "velocity": 62}, {"time": 1808, "pitch": 67, "duration": 4, "velocity": 40}, {"time": 1808, "pitch": 76, "duration": 6, "velocity": 64}, {"time": 1814, "pitch": 74, "duration": 4, "velocity": 58}, {"time": 1820, "pitch": 45, "duration": 2, "velocity": 32}, {"time": 1820, "pitch": 71, "duration": 7, "velocity": 66}, {"time": 1826, "pitch": 45, "duration": 39, "velocity": 76}, {"time": 1826, "pitch": 67, "duration": 8, "velocity": 66}, {"time": 1826, "pitch": 72, "duration": 8, "velocity": 78}, {"time": 1832, "pitch": 52, "duration": 37, "velocity": 58}, {"time": 1838, "pitch": 57, "duration": 25, "velocity": 64}, {"time": 1844, "pitch": 60, "duration": 7, "velocity": 66}, {"time": 1850, "pitch": 62, "duration": 7, "velocity": 56}, {"time": 1856, "pitch": 64, "duration": 3, "velocity": 63}, {"time": 1862, "pitch": 67, "duration": 5, "velocity": 70}, {"time": 1868, "pitch": 72, "duration": 8, "velocity": 70}, {"time": 1874, "pitch": 43, "duration": 39, "velocity": 67}, {"time": 1874, "pitch": 71, "duration": 19, "velocity": 76}, {"time": 1880, "pitch": 52, "duration": 24, "velocity": 64}, {"time": 1886, "pitch": 55, "duration": 8, "velocity": 69}, {"time": 1892, "pitch": 62, "duration": 7, "velocity": 67}, {"time": 1892, "pitch": 67, "duration": 9, "velocity": 75}, {"time": 1898, "pitch": 55, "duration": 13, "velocity": 53}, {"time": 1904, "pitch": 64, "duration": 10, "velocity": 82}, {"time": 1910, "pitch": 52, "duration": 3, "velocity": 69}, {"time": 1916, "pitch": 67, "duration": 5, "velocity": 73}, {"time": 1922, "pitch": 41, "duration": 10, "velocity": 69}, {"time": 1922, "pitch": 60, "duration": 12, "velocity": 78}, {"time": 1922, "pitch": 65, "duration": 25, "velocity": 76}, {"time": 1922, "pitch": 69, "duration": 25, "velocity": 75}, {"time": 1928, "pitch": 48, "duration": 6, "velocity": 70}, {"time": 1934, "pitch": 53, "duration": 7, "velocity": 55}, {"time": 1940, "pitch": 55, "duration": 13, "velocity": 54}, {"time": 1946, "pitch": 57, "duration": 6, "velocity": 85}, {"time": 1952, "pitch": 60, "duration": 4, "velocity": 76}, {"time": 1958, "pitch": 65, "duration": 6, "velocity": 72}, {"time": 1964, "pitch": 72, "duration": 7, "velocity": 73}, {"time": 1970, "pitch": 40, "duration": 14, "velocity": 64}, {"time": 1970, "pitch": 52, "duration": 10, "velocity": 64}, {"time": 1970, "pitch": 62, "duration": 14, "velocity": 67}, {"time": 1970, "pitch": 67, "duration": 14, "velocity": 69}, {"time": 1970, "pitch": 71, "duration": 15, "velocity": 69}, {"time": 1982, "pitch": 52, "duration": 3, "velocity": 69}, {"time": 1994, "pitch": 62, "duration": 12, "velocity": 70}, {"time": 1994, "pitch": 67, "duration": 12, "velocity": 72}, {"time": 1994, "pitch": 71, "duration": 12, "velocity": 72}, {"time": 2006, "pitch": 39, "duration": 3, "velocity": 63}, {"time": 2006, "pitch": 51, "duration": 2, "velocity": 63}, {"time": 2018, "pitch": 38, "duration": 33, "velocity": 73}, {"time": 2018, "pitch": 50, "duration": 11, "velocity": 66}, {"time": 2018, "pitch": 62, "duration": 15, "velocity": 64}, {"time": 2018, "pitch": 65, "duration": 17, "velocity": 70}, {"time": 2018, "pitch": 69, "duration": 17, "velocity": 66}, {"time": 2018, "pitch": 72, "duration": 18, "velocity": 72}, {"time": 2036, "pitch": 50, "duration": 8, "velocity": 59}, {"time": 2042, "pitch": 62, "duration": 9, "velocity": 70}, {"time": 2042, "pitch": 65, "duration": 9, "velocity": 76}, {"time": 2042, "pitch": 69, "duration": 9, "velocity": 72}, {"time": 2042, "pitch": 72, "duration": 8, "velocity": 64}, {"time": 2048, "pitch": 50, "duration": 5, "velocity": 63}, {"time": 2054, "pitch": 67, "duration": 5, "velocity": 58}, {"time": 2060, "pitch": 69, "duration": 4, "velocity": 63}, {"time": 2066, "pitch": 43, "duration": 36, "velocity": 69}, {"time": 2066, "pitch": 60, "duration": 13, "velocity": 73}, {"time": 2066, "pitch": 65, "duration": 13, "velocity": 66}, {"time": 2066, "pitch": 69, "duration": 13, "velocity": 70}, {"time": 2066, "pitch": 72, "duration": 13, "velocity": 66}, {"time": 2072, "pitch": 50, "duration": 24, "velocity": 59}, {"time": 2078, "pitch": 55, "duration": 6, "velocity": 72}, {"time": 2084, "pitch": 60, "duration": 7, "velocity": 85}, {"time": 2084, "pitch": 67, "duration": 8, "velocity": 85}, {"time": 2090, "pitch": 55, "duration": 6, "velocity": 49}, {"time": 2096, "pitch": 60, "duration": 5, "velocity": 82}, {"time": 2096, "pitch": 65, "duration": 9, "velocity": 88}, {"time": 2102, "pitch": 55, "duration": 4, "velocity": 91}, {"time": 2108, "pitch": 60, "duration": 3, "velocity": 70}, {"time": 2114, "pitch": 48, "duration": 42, "velocity": 70}, {"time": 2114, "pitch": 62, "duration": 10, "velocity": 69}, {"time": 2114, "pitch": 64, "duration": 14, "velocity": 69}, {"time": 2114, "pitch": 67, "duration": 12, "velocity": 70}, {"time": 2120, "pitch": 55, "duration": 26, "velocity": 66}, {"time": 2126, "pitch": 60, "duration": 14, "velocity": 73}, {"time": 2132, "pitch": 62, "duration": 4, "velocity": 59}, {"time": 2138, "pitch": 62, "duration": 8, "velocity": 75}, {"time": 2138, "pitch": 64, "duration": 8, "velocity": 75}, {"time": 2138, "pitch": 67, "duration": 8, "velocity": 62}, {"time": 2144, "pitch": 60, "duration": 8, "velocity": 75}, {"time": 2150, "pitch": 62, "duration": 7, "velocity": 69}, {"time": 2156, "pitch": 55, "duration": 8, "velocity": 72}, {"time": 2156, "pitch": 64, "duration": 7, "velocity": 72}, {"time": 2162, "pitch": 47, "duration": 11, "velocity": 69}, {"time": 2162, "pitch": 62, "duration": 7, "velocity": 75}, {"time": 2162, "pitch": 67, "duration": 8, "velocity": 76}, {"time": 2168, "pitch": 55, "duration": 6, "velocity": 63}, {"time": 2174, "pitch": 59, "duration": 7, "velocity": 63}, {"time": 2180, "pitch": 60, "duration": 9, "velocity": 46}, {"time": 2186, "pitch": 62, "duration": 4, "velocity": 69}, {"time": 2192, "pitch": 67, "duration": 5, "velocity": 76}, {"time": 2198, "pitch": 69, "duration": 8, "velocity": 73}, {"time": 2204, "pitch": 71, "duration": 5, "velocity": 70}, {"time": 2210, "pitch": 45, "duration": 38, "velocity": 76}, {"time": 2210, "pitch": 64, "duration": 14, "velocity": 59}, {"time": 2210, "pitch": 72, "duration": 12, "velocity": 69}, {"time": 2216, "pitch": 52, "duration": 26, "velocity": 62}, {"time": 2222, "pitch": 57, "duration": 25, "velocity": 75}, {"time": 2228, "pitch": 64, "duration": 4, "velocity": 75}, {"time": 2234, "pitch": 64, "duration": 2, "velocity": 47}, {"time": 2234, "pitch": 67, "duration": 8, "velocity": 82}, {"time": 2240, "pitch": 69, "duration": 8, "velocity": 62}, {"time": 2246, "pitch": 52, "duration": 2, "velocity": 67}, {"time": 2246, "pitch": 71, "duration": 5, "velocity": 48}, {"time": 2252, "pitch": 72, "duration": 8, "velocity": 64}, {"time": 2258, "pitch": 43, "duration": 12, "velocity": 69}, {"time": 2258, "pitch": 62, "duration": 12, "velocity": 69}, {"time": 2258, "pitch": 67, "duration": 14, "velocity": 67}, {"time": 2258, "pitch": 70, "duration": 16, "velocity": 88}, {"time": 2264, "pitch": 50, "duration": 7, "velocity": 56}, {"time": 2270, "pitch": 55, "duration": 3, "velocity": 93}, {"time": 2276, "pitch": 62, "duration": 4, "velocity": 78}, {"time": 2282, "pitch": 48, "duration": 16, "velocity": 72}, {"time": 2282, "pitch": 67, "duration": 10, "velocity": 75}, {"time": 2282, "pitch": 72, "duration": 15, "velocity": 80}, {"time": 2288, "pitch": 55, "duration": 9, "velocity": 69}, {"time": 2294, "pitch": 60, "duration": 3, "velocity": 80}, {"time": 2294, "pitch": 67, "duration": 11, "velocity": 85}, {"time": 2306, "pitch": 41, "duration": 11, "velocity": 75}, {"time": 2306, "pitch": 60, "duration": 23, "velocity": 80}, {"time": 2306, "pitch": 65, "duration": 24, "velocity": 78}, {"time": 2306, "pitch": 69, "duration": 24, "velocity": 73}, {"time": 2312, "pitch": 48, "duration": 7, "velocity": 67}, {"time": 2318, "pitch": 53, "duration": 8, "velocity": 69}, {"time": 2324, "pitch": 55, "duration": 18, "velocity": 53}, {"time": 2330, "pitch": 57, "duration": 14, "velocity": 76}, {"time": 2336, "pitch": 60, "duration": 4, "velocity": 80}, {"time": 2342, "pitch": 65, "duration": 9, "velocity": 69}, {"time": 2348, "pitch": 69, "duration": 5, "velocity": 58}, {"time": 2354, "pitch": 52, "duration": 34, "velocity": 75}, {"time": 2354, "pitch": 62, "duration": 7, "velocity": 76}, {"time": 2354, "pitch": 67, "duration": 11, "velocity": 67}, {"time": 2360, "pitch": 59, "duration": 18, "velocity": 56}, {"time": 2366, "pitch": 64, "duration": 18, "velocity": 78}, {"time": 2372, "pitch": 67, "duration": 5, "velocity": 76}, {"time": 2378, "pitch": 71, "duration": 10, "velocity": 78}, {"time": 2384, "pitch": 59, "duration": 4, "velocity": 62}, {"time": 2390, "pitch": 67, "duration": 4, "velocity": 69}, {"time": 2390, "pitch": 72, "duration": 10, "velocity": 72}, {"time": 2402, "pitch": 50, "duration": 32, "velocity": 73}, {"time": 2402, "pitch": 67, "duration": 10, "velocity": 80}, {"time": 2408, "pitch": 57, "duration": 9, "velocity": 61}, {"time": 2414, "pitch": 60, "duration": 9, "velocity": 70}, {"time": 2414, "pitch": 65, "duration": 10, "velocity": 76}, {"time": 2420, "pitch": 57, "duration": 14, "velocity": 64}, {"time": 2426, "pitch": 60, "duration": 5, "velocity": 70}, {"time": 2426, "pitch": 67, "duration": 13, "velocity": 72}, {"time": 2438, "pitch": 60, "duration": 3, "velocity": 62}, {"time": 2438, "pitch": 69, "duration": 10, "velocity": 75}, {"time": 2450, "pitch": 43, "duration": 36, "velocity": 60}, {"time": 2450, "pitch": 55, "duration": 31, "velocity": 55}, {"time": 2450, "pitch": 60, "duration": 18, "velocity": 64}, {"time": 2450, "pitch": 65, "duration": 17, "velocity": 69}, {"time": 2450, "pitch": 69, "duration": 18, "velocity": 49}, {"time": 2450, "pitch": 72, "duration": 18, "velocity": 66}, {"time": 2474, "pitch": 60, "duration": 13, "velocity": 66}, {"time": 2474, "pitch": 65, "duration": 12, "velocity": 75}, {"time": 2474, "pitch": 69, "duration": 13, "velocity": 64}, {"time": 2474, "pitch": 72, "duration": 13, "velocity": 52}, {"time": 2486, "pitch": 55, "duration": 4, "velocity": 54}, {"time": 2498, "pitch": 48, "duration": 10, "velocity": 70}, {"time": 2498, "pitch": 65, "duration": 13, "velocity": 69}, {"time": 2498, "pitch": 67, "duration": 11, "velocity": 72}, {"time": 2498, "pitch": 72, "duration": 16, "velocity": 61}, {"time": 2504, "pitch": 55, "duration": 6, "velocity": 57}, {"time": 2510, "pitch": 60, "duration": 8, "velocity": 55}, {"time": 2516, "pitch": 64, "duration": 7, "velocity": 44}, {"time": 2516, "pitch": 65, "duration": 10, "velocity": 47}, {"time": 2522, "pitch": 67, "duration": 31, "velocity": 72}, {"time": 2534, "pitch": 72, "duration": 21, "velocity": 58}, {"time": 2540, "pitch": 76, "duration": 7, "velocity": 55}, {"time": 2546, "pitch": 79, "duration": 9, "velocity": 59}, {"time": 2594, "pitch": 48, "duration": 39, "velocity": 72}, {"time": 2594, "pitch": 60, "duration": 37, "velocity": 66}, {"time": 2594, "pitch": 60, "duration": 37, "velocity": 72}, {"time": 2594, "pitch": 64, "duration": 27, "velocity": 72}, {"time": 2594, "pitch": 67, "duration": 27, "velocity": 73}, {"time": 2594, "pitch": 71, "duration": 19, "velocity": 76}, {"time": 2594, "pitch": 72, "duration": 37, "velocity": 66}, {"time": 2594, "pitch": 76, "duration": 12, "velocity": 64}, {"time": 2594, "pitch": 79, "duration": 27, "velocity": 73}, {"time": 2594, "pitch": 83, "duration": 19, "velocity": 76}, {"time": 2624, "pitch": 64, "duration": 7, "velocity": 70}, {"time": 2642, "pitch": 47, "duration": 36, "velocity": 67}, {"time": 2642, "pitch": 59, "duration": 33, "velocity": 63}, {"time": 2642, "pitch": 59, "duration": 33, "velocity": 67}, {"time": 2642, "pitch": 62, "duration": 19, "velocity": 63}, {"time": 2642, "pitch": 67, "duration": 17, "velocity": 69}, {"time": 2642, "pitch": 71, "duration": 18, "velocity": 69}, {"time": 2642, "pitch": 74, "duration": 19, "velocity": 63}, {"time": 2642, "pitch": 79, "duration": 17, "velocity": 69}, {"time": 2642, "pitch": 83, "duration": 18, "velocity": 69}, {"time": 2666, "pitch": 62, "duration": 11, "velocity": 59}, {"time": 2666, "pitch": 67, "duration": 11, "velocity": 60}, {"time": 2666, "pitch": 71, "duration": 9, "velocity": 60}, {"time": 2666, "pitch": 74, "duration": 11, "velocity": 59}, {"time": 2666, "pitch": 79, "duration": 11, "velocity": 60}, {"time": 2666, "pitch": 83, "duration": 9, "velocity": 60}, {"time": 2690, "pitch": 45, "duration": 40, "velocity": 64}, {"time": 2690, "pitch": 57, "duration": 31, "velocity": 49}, {"time": 2690, "pitch": 64, "duration": 14, "velocity": 67}, {"time": 2690, "pitch": 69, "duration": 17, "velocity": 49}, {"time": 2690, "pitch": 76, "duration": 14, "velocity": 67}, {"time": 2690, "pitch": 81, "duration": 17, "velocity": 49}, {"time": 2714, "pitch": 60, "duration": 14, "velocity": 62}, {"time": 2714, "pitch": 64, "duration": 14, "velocity": 63}, {"time": 2714, "pitch": 67, "duration": 13, "velocity": 58}, {"time": 2714, "pitch": 69, "duration": 13, "velocity": 56}, {"time": 2714, "pitch": 72, "duration": 14, "velocity": 62}, {"time": 2714, "pitch": 76, "duration": 14, "velocity": 63}, {"time": 2714, "pitch": 79, "duration": 13, "velocity": 58}, {"time": 2714, "pitch": 81, "duration": 13, "velocity": 56}, {"time": 2726, "pitch": 57, "duration": 4, "velocity": 40}, {"time": 2726, "pitch": 69, "duration": 1, "velocity": 40}, {"time": 2738, "pitch": 43, "duration": 35, "velocity": 43}, {"time": 2738, "pitch": 55, "duration": 27, "velocity": 42}, {"time": 2738, "pitch": 55, "duration": 27, "velocity": 43}, {"time": 2738, "pitch": 60, "duration": 18, "velocity": 63}, {"time": 2738, "pitch": 64, "duration": 16, "velocity": 67}, {"time": 2738, "pitch": 67, "duration": 15, "velocity": 61}, {"time": 2738, "pitch": 72, "duration": 18, "velocity": 63}, {"time": 2738, "pitch": 76, "duration": 16, "velocity": 67}, {"time": 2738, "pitch": 79, "duration": 15, "velocity": 61}, {"time": 2762, "pitch": 60, "duration": 12, "velocity": 73}, {"time": 2762, "pitch": 64, "duration": 13, "velocity": 75}, {"time": 2762, "pitch": 67, "duration": 10, "velocity": 70}, {"time": 2762, "pitch": 72, "duration": 6, "velocity": 64}, {"time": 2762, "pitch": 72, "duration": 6, "velocity": 73}, {"time": 2762, "pitch": 76, "duration": 13, "velocity": 75}, {"time": 2762, "pitch": 79, "duration": 10, "velocity": 70}, {"time": 2774, "pitch": 55, "duration": 3, "velocity": 58}, {"time": 2786, "pitch": 53, "duration": 31, "velocity": 63}, {"time": 2786, "pitch": 60, "duration": 18, "velocity": 69}, {"time": 2786, "pitch": 65, "duration": 19, "velocity": 63}, {"time": 2786, "pitch": 65, "duration": 19, "velocity": 69}, {"time": 2786, "pitch": 67, "duration": 19, "velocity": 64}, {"time": 2786, "pitch": 69, "duration": 19, "velocity": 63}, {"time": 2786, "pitch": 72, "duration": 6, "velocity": 64}, {"time": 2786, "pitch": 72, "duration": 6, "velocity": 69}, {"time": 2786, "pitch": 77, "duration": 19, "velocity": 69}, {"time": 2786, "pitch": 79, "duration": 19, "velocity": 64}, {"time": 2786, "pitch": 81, "duration": 19, "velocity": 63}, {"time": 2810, "pitch": 60, "duration": 10, "velocity": 67}, {"time": 2810, "pitch": 65, "duration": 7, "velocity": 72}, {"time": 2810, "pitch": 67, "duration": 10, "velocity": 69}, {"time": 2810, "pitch": 69, "duration": 10, "velocity": 69}, {"time": 2810, "pitch": 72, "duration": 10, "velocity": 67}, {"time": 2810, "pitch": 77, "duration": 10, "velocity": 72}, {"time": 2810, "pitch": 79, "duration": 10, "velocity": 69}, {"time": 2810, "pitch": 81, "duration": 10, "velocity": 69}, {"time": 2822, "pitch": 53, "duration": 3, "velocity": 63}, {"time": 2822, "pitch": 65, "duration": 3, "velocity": 63}, {"time": 2834, "pitch": 43, "duration": 37, "velocity": 50}, {"time": 2834, "pitch": 55, "duration": 28, "velocity": 50}, {"time": 2834, "pitch": 59, "duration": 14, "velocity": 66}, {"time": 2834, "pitch": 62, "duration": 14, "velocity": 63}, {"time": 2834, "pitch": 71, "duration": 14, "velocity": 66}, {"time": 2834, "pitch": 74, "duration": 14, "velocity": 63}, {"time": 2834, "pitch": 79, "duration": 12, "velocity": 59}, {"time": 2852, "pitch": 55, "duration": 10, "velocity": 44}, {"time": 2858, "pitch": 59, "duration": 14, "velocity": 69}, {"time": 2858, "pitch": 62, "duration": 13, "velocity": 72}, {"time": 2858, "pitch": 67, "duration": 12, "velocity": 70}, {"time": 2858, "pitch": 71, "duration": 14, "velocity": 69}, {"time": 2858, "pitch": 74, "duration": 13, "velocity": 72}, {"time": 2858, "pitch": 79, "duration": 12, "velocity": 70}, {"time": 2870, "pitch": 55, "duration": 1, "velocity": 56}, {"time": 2882, "pitch": 41, "duration": 43, "velocity": 67}, {"time": 2882, "pitch": 53, "duration": 32, "velocity": 67}, {"time": 2882, "pitch": 57, "duration": 12, "velocity": 67}, {"time": 2882, "pitch": 60, "duration": 12, "velocity": 73}, {"time": 2882, "pitch": 64, "duration": 11, "velocity": 72}, {"time": 2882, "pitch": 69, "duration": 12, "velocity": 67}, {"time": 2882, "pitch": 72, "duration": 12, "velocity": 73}, {"time": 2882, "pitch": 76, "duration": 11, "velocity": 72}, {"time": 2888, "pitch": 48, "duration": 37, "velocity": 48}, {"time": 2888, "pitch": 60, "duration": 6, "velocity": 48}, {"time": 2894, "pitch": 53, "duration": 20, "velocity": 49}, {"time": 2894, "pitch": 65, "duration": 20, "velocity": 49}, {"time": 2900, "pitch": 57, "duration": 15, "velocity": 82}, {"time": 2900, "pitch": 69, "duration": 15, "velocity": 82}, {"time": 2912, "pitch": 60, "duration": 10, "velocity": 75}, {"time": 2912, "pitch": 64, "duration": 13, "velocity": 72}, {"time": 2912, "pitch": 72, "duration": 10, "velocity": 75}, {"time": 2912, "pitch": 76, "duration": 13, "velocity": 72}, {"time": 2918, "pitch": 79, "duration": 12, "velocity": 64}, {"time": 2924, "pitch": 53, "duration": 1, "velocity": 48}, {"time": 2924, "pitch": 65, "duration": 3, "velocity": 48}, {"time": 2930, "pitch": 43, "duration": 48, "velocity": 69}, {"time": 2930, "pitch": 55, "duration": 48, "velocity": 69}, {"time": 2930, "pitch": 59, "duration": 20, "velocity": 73}, {"time": 2930, "pitch": 62, "duration": 24, "velocity": 75}, {"time": 2930, "pitch": 67, "duration": 25, "velocity": 64}, {"time": 2930, "pitch": 71, "duration": 20, "velocity": 73}, {"time": 2930, "pitch": 74, "duration": 24, "velocity": 75}, {"time": 2930, "pitch": 79, "duration": 25, "velocity": 64}, {"time": 3002, "pitch": 67, "duration": 7, "velocity": 50}, {"time": 3008, "pitch": 69, "duration": 7, "velocity": 57}, {"time": 3014, "pitch": 72, "duration": 7, "velocity": 48}, {"time": 3020, "pitch": 74, "duration": 6, "velocity": 62}, {"time": 3026, "pitch": 48, "duration": 10, "velocity": 58}, {"time": 3026, "pitch": 67, "duration": 24, "velocity": 55}, {"time": 3026, "pitch": 72, "duration": 18, "velocity": 55}, {"time": 3026, "pitch": 76, "duration": 25, "velocity": 64}, {"time": 3032, "pitch": 55, "duration": 6, "velocity": 45}, {"time": 3038, "pitch": 60, "duration": 8, "velocity": 47}, {"time": 3044, "pitch": 62, "duration": 13, "velocity": 52}, {"time": 3050, "pitch": 64, "duration": 10, "velocity": 67}, {"time": 3056, "pitch": 67, "duration": 7, "velocity": 46}, {"time": 3062, "pitch": 72, "duration": 8, "velocity": 60}, {"time": 3068, "pitch": 76, "duration": 5, "velocity": 52}, {"time": 3074, "pitch": 59, "duration": 32, "velocity": 56}, {"time": 3074, "pitch": 67, "duration": 19, "velocity": 52}, {"time": 3074, "pitch": 74, "duration": 19, "velocity": 66}, {"time": 3092, "pitch": 62, "duration": 11, "velocity": 44}, {"time": 3098, "pitch": 67, "duration": 7, "velocity": 49}, {"time": 3104, "pitch": 74, "duration": 6, "velocity": 56}, {"time": 3110, "pitch": 79, "duration": 48, "velocity": 59}, {"time": 3116, "pitch": 67, "duration": 5, "velocity": 41}, {"time": 3116, "pitch": 72, "duration": 13, "velocity": 70}, {"time": 3122, "pitch": 57, "duration": 38, "velocity": 64}, {"time": 3128, "pitch": 64, "duration": 19, "velocity": 56}, {"time": 3134, "pitch": 67, "duration": 18, "velocity": 47}, {"time": 3140, "pitch": 72, "duration": 12, "velocity": 69}, {"time": 3152, "pitch": 64, "duration": 7, "velocity": 54}, {"time": 3158, "pitch": 67, "duration": 18, "velocity": 58}, {"time": 3164, "pitch": 79, "duration": 17, "velocity": 59}, {"time": 3170, "pitch": 55, "duration": 36, "velocity": 54}, {"time": 3176, "pitch": 64, "duration": 13, "velocity": 58}, {"time": 3182, "pitch": 67, "duration": 8, "velocity": 59}, {"time": 3188, "pitch": 72, "duration": 13, "velocity": 73}, {"time": 3200, "pitch": 64, "duration": 4, "velocity": 43}, {"time": 3206, "pitch": 71, "duration": 5, "velocity": 76}, {"time": 3212, "pitch": 67, "duration": 3, "velocity": 62}, {"time": 3218, "pitch": 53, "duration": 34, "velocity": 70}, {"time": 3218, "pitch": 67, "duration": 4, "velocity": 60}, {"time": 3221, "pitch": 69, "duration": 10, "velocity": 60}, {"time": 3224, "pitch": 60, "duration": 19, "velocity": 49}, {"time": 3230, "pitch": 65, "duration": 20, "velocity": 56}, {"time": 3236, "pitch": 72, "duration": 19, "velocity": 72}, {"time": 3248, "pitch": 60, "duration": 10, "velocity": 48}, {"time": 3254, "pitch": 67, "duration": 8, "velocity": 47}, {"time": 3260, "pitch": 72, "duration": 17, "velocity": 60}, {"time": 3266, "pitch": 52, "duration": 32, "velocity": 57}, {"time": 3272, "pitch": 60, "duration": 25, "velocity": 58}, {"time": 3278, "pitch": 64, "duration": 15, "velocity": 61}, {"time": 3284, "pitch": 67, "duration": 12, "velocity": 55}, {"time": 3296, "pitch": 72, "duration": 6, "velocity": 63}, {"time": 3302, "pitch": 74, "duration": 7, "velocity": 58}, {"time": 3308, "pitch": 76, "duration": 5, "velocity": 62}, {"time": 3314, "pitch": 50, "duration": 13, "velocity": 62}, {"time": 3314, "pitch": 69, "duration": 25, "velocity": 54}, {"time": 3314, "pitch": 72, "duration": 26, "velocity": 56}, {"time": 3314, "pitch": 77, "duration": 28, "velocity": 67}, {"time": 3320, "pitch": 57, "duration": 6, "velocity": 32}, {"time": 3326, "pitch": 62, "duration": 9, "velocity": 52}, {"time": 3332, "pitch": 64, "duration": 13, "velocity": 62}, {"time": 3338, "pitch": 65, "duration": 6, "velocity": 64}, {"time": 3344, "pitch": 69, "duration": 10, "velocity": 50}, {"time": 3350, "pitch": 72, "duration": 6, "velocity": 58}, {"time": 3356, "pitch": 77, "duration": 7, "velocity": 56}, {"time": 3362, "pitch": 43, "duration": 10, "velocity": 66}, {"time": 3362, "pitch": 76, "duration": 6, "velocity": 60}, {"time": 3368, "pitch": 50, "duration": 6, "velocity": 54}, {"time": 3368, "pitch": 74, "duration": 5, "velocity": 57}, {"time": 3374, "pitch": 55, "duration": 7, "velocity": 50}, {"time": 3374, "pitch": 72, "duration": 5, "velocity": 48}, {"time": 3380, "pitch": 67, "duration": 6, "velocity": 59}, {"time": 3386, "pitch": 65, "duration": 5, "velocity": 49}, {"time": 3392, "pitch": 64, "duration": 6, "velocity": 48}, {"time": 3398, "pitch": 62, "duration": 7, "velocity": 49}, {"time": 3404, "pitch": 60, "duration": 8, "velocity": 51}, {"time": 3410, "pitch": 46, "duration": 35, "velocity": 57}, {"time": 3410, "pitch": 62, "duration": 13, "velocity": 54}, {"time": 3410, "pitch": 65, "duration": 13, "velocity": 55}, {"time": 3410, "pitch": 70, "duration": 12, "velocity": 54}, {"time": 3416, "pitch": 53, "duration": 27, "velocity": 49}, {"time": 3422, "pitch": 58, "duration": 21, "velocity": 67}, {"time": 3428, "pitch": 62, "duration": 5, "velocity": 58}, {"time": 3434, "pitch": 65, "duration": 7, "velocity": 44}, {"time": 3440, "pitch": 70, "duration": 7, "velocity": 43}, {"time": 3458, "pitch": 43, "duration": 14, "velocity": 58}, {"time": 3458, "pitch": 55, "duration": 8, "velocity": 54}, {"time": 3458, "pitch": 60, "duration": 8, "velocity": 63}, {"time": 3458, "pitch": 65, "duration": 8, "velocity": 66}, {"time": 3458, "pitch": 69, "duration": 9, "velocity": 51}, {"time": 3458, "pitch": 72, "duration": 9, "velocity": 53}, {"time": 3470, "pitch": 55, "duration": 3, "velocity": 54}, {"time": 3476, "pitch": 43, "duration": 19, "velocity": 69}, {"time": 3476, "pitch": 55, "duration": 12, "velocity": 70}, {"time": 3476, "pitch": 62, "duration": 7, "velocity": 61}, {"time": 3476, "pitch": 67, "duration": 6, "velocity": 67}, {"time": 3476, "pitch": 71, "duration": 7, "velocity": 70}, {"time": 3488, "pitch": 60, "duration": 6, "velocity": 56}, {"time": 3488, "pitch": 65, "duration": 7, "velocity": 70}, {"time": 3488, "pitch": 69, "duration": 7, "velocity": 53}, {"time": 3488, "pitch": 72, "duration": 6, "velocity": 53}, {"time": 3494, "pitch": 55, "duration": 4, "velocity": 63}, {"time": 3506, "pitch": 41, "duration": 39, "velocity": 73}, {"time": 3506, "pitch": 53, "duration": 13, "velocity": 76}, {"time": 3506, "pitch": 60, "duration": 17, "velocity": 69}, {"time": 3506, "pitch": 65, "duration": 17, "velocity": 73}, {"time": 3506, "pitch": 69, "duration": 18, "velocity": 61}, {"time": 3506, "pitch": 72, "duration": 17, "velocity": 63}, {"time": 3509, "pitch": 67, "duration": 16, "velocity": 59}, {"time": 3524, "pitch": 53, "duration": 12, "velocity": 55}, {"time": 3530, "pitch": 60, "duration": 14, "velocity": 70}, {"time": 3530, "pitch": 65, "duration": 14, "velocity": 73}, {"time": 3530, "pitch": 67, "duration": 15, "velocity": 70}, {"time": 3530, "pitch": 69, "duration": 15, "velocity": 64}, {"time": 3530, "pitch": 72, "duration": 16, "velocity": 54}, {"time": 3542, "pitch": 53, "duration": 4, "velocity": 59}, {"time": 3554, "pitch": 41, "duration": 32, "velocity": 76}, {"time": 3554, "pitch": 53, "duration": 13, "velocity": 75}, {"time": 3554, "pitch": 62, "duration": 17, "velocity": 69}, {"time": 3554, "pitch": 67, "duration": 18, "velocity": 75}, {"time": 3554, "pitch": 71, "duration": 18, "velocity": 73}, {"time": 3560, "pitch": 69, "duration": 14, "velocity": 25}, {"time": 3572, "pitch": 53, "duration": 9, "velocity": 53}, {"time": 3578, "pitch": 62, "duration": 8, "velocity": 66}, {"time": 3578, "pitch": 67, "duration": 9, "velocity": 69}, {"time": 3578, "pitch": 69, "duration": 9, "velocity": 64}, {"time": 3578, "pitch": 71, "duration": 9, "velocity": 66}, {"time": 3584, "pitch": 53, "duration": 4, "velocity": 60}, {"time": 3590, "pitch": 62, "duration": 5, "velocity": 55}, {"time": 3596, "pitch": 67, "duration": 5, "velocity": 64}, {"time": 3602, "pitch": 48, "duration": 15, "velocity": 70}, {"time": 3602, "pitch": 60, "duration": 8, "velocity": 59}, {"time": 3602, "pitch": 64, "duration": 15, "velocity": 72}, {"time": 3602, "pitch": 67, "duration": 15, "velocity": 66}, {"time": 3602, "pitch": 72, "duration": 13, "velocity": 73}, {"time": 3614, "pitch": 60, "duration": 3, "velocity": 70}, {"time": 3620, "pitch": 72, "duration": 4, "velocity": 39}, {"time": 3626, "pitch": 47, "duration": 15, "velocity": 72}, {"time": 3626, "pitch": 62, "duration": 9, "velocity": 59}, {"time": 3626, "pitch": 67, "duration": 9, "velocity": 66}, {"time": 3626, "pitch": 71, "duration": 10, "velocity": 70}, {"time": 3632, "pitch": 59, "duration": 7, "velocity": 50}, {"time": 3638, "pitch": 69, "duration": 7, "velocity": 61}, {"time": 3644, "pitch": 71, "duration": 6, "velocity": 66}, {"time": 3650, "pitch": 45, "duration": 38, "velocity": 72}, {"time": 3650, "pitch": 64, "duration": 12, "velocity": 50}, {"time": 3650, "pitch": 67, "duration": 12, "velocity": 58}, {"time": 3650, "pitch": 72, "duration": 13, "velocity": 57}, {"time": 3656, "pitch": 52, "duration": 32, "velocity": 61}, {"time": 3662, "pitch": 57, "duration": 9, "velocity": 72}, {"time": 3668, "pitch": 64, "duration": 8, "velocity": 67}, {"time": 3668, "pitch": 67, "duration": 8, "velocity": 70}, {"time": 3668, "pitch": 72, "duration": 15, "velocity": 70}, {"time": 3680, "pitch": 64, "duration": 8, "velocity": 69}, {"time": 3680, "pitch": 67, "duration": 9, "velocity": 69}, {"time": 3686, "pitch": 57, "duration": 3, "velocity": 49}, {"time": 3692, "pitch": 67, "duration": 4, "velocity": 52}, {"time": 3698, "pitch": 50, "duration": 41, "velocity": 78}, {"time": 3698, "pitch": 60, "duration": 15, "velocity": 70}, {"time": 3698, "pitch": 65, "duration": 16, "velocity": 62}, {"time": 3698, "pitch": 69, "duration": 15, "velocity": 61}, {"time": 3710, "pitch": 57, "duration": 13, "velocity": 55}, {"time": 3722, "pitch": 60, "duration": 8, "velocity": 72}, {"time": 3722, "pitch": 65, "duration": 8, "velocity": 73}, {"time": 3722, "pitch": 69, "duration": 7, "velocity": 72}, {"time": 3728, "pitch": 57, "duration": 10, "velocity": 52}, {"time": 3734, "pitch": 60, "duration": 5, "velocity": 59}, {"time": 3740, "pitch": 65, "duration": 5, "velocity": 72}, {"time": 3746, "pitch": 52, "duration": 34, "velocity": 75}, {"time": 3746, "pitch": 62, "duration": 9, "velocity": 73}, {"time": 3746, "pitch": 67, "duration": 11, "velocity": 72}, {"time": 3746, "pitch": 71, "duration": 4, "velocity": 58}, {"time": 3758, "pitch": 59, "duration": 8, "velocity": 58}, {"time": 3764, "pitch": 62, "duration": 13, "velocity": 59}, {"time": 3764, "pitch": 67, "duration": 11, "velocity": 63}, {"time": 3764, "pitch": 71, "duration": 10, "velocity": 69}, {"time": 3776, "pitch": 59, "duration": 3, "velocity": 72}, {"time": 3782, "pitch": 62, "duration": 5, "velocity": 72}, {"time": 3782, "pitch": 67, "duration": 7, "velocity": 69}, {"time": 3788, "pitch": 69, "duration": 5, "velocity": 66}, {"time": 3794, "pitch": 41, "duration": 10, "velocity": 82}, {"time": 3794, "pitch": 60, "duration": 23, "velocity": 69}, {"time": 3794, "pitch": 65, "duration": 21, "velocity": 84}, {"time": 3794, "pitch": 69, "duration": 22, "velocity": 72}, {"time": 3800, "pitch": 48, "duration": 6, "velocity": 72}, {"time": 3806, "pitch": 53, "duration": 8, "velocity": 60}, {"time": 3812, "pitch": 55, "duration": 19, "velocity": 65}, {"time": 3818, "pitch": 57, "duration": 13, "velocity": 44}, {"time": 3824, "pitch": 60, "duration": 8, "velocity": 62}, {"time": 3830, "pitch": 65, "duration": 6, "velocity": 72}, {"time": 3836, "pitch": 72, "duration": 8, "velocity": 88}, {"time": 3842, "pitch": 43, "duration": 48, "velocity": 96}, {"time": 3842, "pitch": 62, "duration": 10, "velocity": 65}, {"time": 3842, "pitch": 67, "duration": 11, "velocity": 84}, {"time": 3842, "pitch": 71, "duration": 11, "velocity": 96}, {"time": 3848, "pitch": 50, "duration": 42, "velocity": 38}, {"time": 3854, "pitch": 62, "duration": 4, "velocity": 68}, {"time": 3854, "pitch": 71, "duration": 10, "velocity": 94}, {"time": 3860, "pitch": 55, "duration": 17, "velocity": 50}, {"time": 3866, "pitch": 64, "duration": 3, "velocity": 78}, {"time": 3866, "pitch": 67, "duration": 2, "velocity": 97}, {"time": 3866, "pitch": 72, "duration": 3, "velocity": 91}, {"time": 3878, "pitch": 67, "duration": 6, "velocity": 82}, {"time": 3878, "pitch": 74, "duration": 9, "velocity": 90}, {"time": 3884, "pitch": 55, "duration": 6, "velocity": 56}, {"time": 3902, "pitch": 43, "duration": 6, "velocity": 73}, {"time": 3902, "pitch": 55, "duration": 6, "velocity": 69}, {"time": 3902, "pitch": 59, "duration": 6, "velocity": 70}, {"time": 3902, "pitch": 62, "duration": 6, "velocity": 72}, {"time": 3902, "pitch": 67, "duration": 6, "velocity": 70}, {"time": 3914, "pitch": 45, "duration": 9, "velocity": 78}, {"time": 3914, "pitch": 57, "duration": 10, "velocity": 73}, {"time": 3914, "pitch": 60, "duration": 7, "velocity": 75}, {"time": 3914, "pitch": 65, "duration": 8, "velocity": 82}, {"time": 3914, "pitch": 69, "duration": 8, "velocity": 66}, {"time": 3926, "pitch": 47, "duration": 3, "velocity": 78}, {"time": 3926, "pitch": 57, "duration": 1, "velocity": 41}, {"time": 3926, "pitch": 62, "duration": 2, "velocity": 70}, {"time": 3926, "pitch": 67, "duration": 2, "velocity": 78}, {"time": 3926, "pitch": 71, "duration": 2, "velocity": 72}, {"time": 3938, "pitch": 48, "duration": 37, "velocity": 85}, {"time": 3938, "pitch": 55, "duration": 17, "velocity": 85}, {"time": 3938, "pitch": 60, "duration": 5, "velocity": 94}, {"time": 3938, "pitch": 64, "duration": 5, "velocity": 85}, {"time": 3938, "pitch": 67, "duration": 5, "velocity": 83}, {"time": 3938, "pitch": 72, "duration": 5, "velocity": 92}, {"time": 3947, "pitch": 64, "duration": 4, "velocity": 88}, {"time": 3947, "pitch": 67, "duration": 4, "velocity": 86}, {"time": 3947, "pitch": 72, "duration": 3, "velocity": 99}, {"time": 3956, "pitch": 60, "duration": 7, "velocity": 92}, {"time": 3956, "pitch": 64, "duration": 8, "velocity": 90}, {"time": 3956, "pitch": 67, "duration": 7, "velocity": 84}, {"time": 3956, "pitch": 72, "duration": 7, "velocity": 99}, {"time": 3962, "pitch": 55, "duration": 8, "velocity": 90}, {"time": 3968, "pitch": 60, "duration": 6, "velocity": 95}, {"time": 3968, "pitch": 64, "duration": 8, "velocity": 91}, {"time": 3968, "pitch": 67, "duration": 7, "velocity": 84}, {"time": 3968, "pitch": 72, "duration": 5, "velocity": 95}, {"time": 3974, "pitch": 55, "duration": 5, "velocity": 88}, {"time": 3977, "pitch": 48, "duration": 2, "velocity": 72}, {"time": 3977, "pitch": 64, "duration": 3, "velocity": 71}, {"time": 3977, "pitch": 67, "duration": 2, "velocity": 66}, {"time": 3977, "pitch": 72, "duration": 1, "velocity": 80}, {"time": 3986, "pitch": 47, "duration": 38, "velocity": 95}, {"time": 3986, "pitch": 55, "duration": 11, "velocity": 95}, {"time": 3986, "pitch": 59, "duration": 6, "velocity": 95}, {"time": 3986, "pitch": 62, "duration": 6, "velocity": 94}, {"time": 3986, "pitch": 67, "duration": 6, "velocity": 87}, {"time": 3986, "pitch": 71, "duration": 6, "velocity": 93}, {"time": 3992, "pitch": 62, "duration": 1, "velocity": 79}, {"time": 3995, "pitch": 59, "duration": 5, "velocity": 85}, {"time": 3995, "pitch": 67, "duration": 6, "velocity": 68}, {"time": 3995, "pitch": 71, "duration": 6, "velocity": 83}, {"time": 4004, "pitch": 55, "duration": 7, "velocity": 88}, {"time": 4010, "pitch": 67, "duration": 3, "velocity": 99}, {"time": 4010, "pitch": 71, "duration": 2, "velocity": 82}, {"time": 4010, "pitch": 74, "duration": 1, "velocity": 79}, {"time": 4010, "pitch": 79, "duration": 3, "velocity": 104}, {"time": 4019, "pitch": 55, "duration": 10, "velocity": 85}, {"time": 4019, "pitch": 59, "duration": 3, "velocity": 97}, {"time": 4019, "pitch": 62, "duration": 2, "velocity": 95}, {"time": 4019, "pitch": 67, "duration": 4, "velocity": 84}, {"time": 4019, "pitch": 71, "duration": 3, "velocity": 93}, {"time": 4028, "pitch": 47, "duration": 1, "velocity": 81}, {"time": 4034, "pitch": 43, "duration": 1, "velocity": 83}, {"time": 4034, "pitch": 45, "duration": 42, "velocity": 84}, {"time": 4034, "pitch": 52, "duration": 11, "velocity": 91}, {"time": 4034, "pitch": 57, "duration": 6, "velocity": 100}, {"time": 4034, "pitch": 60, "duration": 6, "velocity": 94}, {"time": 4034, "pitch": 64, "duration": 6, "velocity": 87}, {"time": 4034, "pitch": 69, "duration": 6, "velocity": 102}, {"time": 4043, "pitch": 57, "duration": 4, "velocity": 74}, {"time": 4043, "pitch": 60, "duration": 5, "velocity": 79}, {"time": 4043, "pitch": 64, "duration": 5, "velocity": 64}, {"time": 4043, "pitch": 69, "duration": 4, "velocity": 80}, {"time": 4052, "pitch": 57, "duration": 6, "velocity": 90}, {"time": 4052, "pitch": 60, "duration": 7, "velocity": 84}, {"time": 4052, "pitch": 64, "duration": 7, "velocity": 64}, {"time": 4052, "pitch": 69, "duration": 7, "velocity": 95}, {"time": 4058, "pitch": 52, "duration": 7, "velocity": 90}, {"time": 4064, "pitch": 60, "duration": 3, "velocity": 85}, {"time": 4064, "pitch": 64, "duration": 3, "velocity": 81}, {"time": 4064, "pitch": 69, "duration": 3, "velocity": 83}, {"time": 4064, "pitch": 72, "duration": 2, "velocity": 90}, {"time": 4067, "pitch": 52, "duration": 4, "velocity": 63}, {"time": 4076, "pitch": 52, "duration": 2, "velocity": 55}, {"time": 4076, "pitch": 57, "duration": 3, "velocity": 63}, {"time": 4076, "pitch": 60, "duration": 2, "velocity": 68}, {"time": 4076, "pitch": 64, "duration": 3, "velocity": 74}, {"time": 4076, "pitch": 69, "duration": 2, "velocity": 68}, {"time": 4082, "pitch": 43, "duration": 38, "velocity": 83}, {"time": 4082, "pitch": 52, "duration": 11, "velocity": 80}, {"time": 4082, "pitch": 55, "duration": 6, "velocity": 92}, {"time": 4082, "pitch": 60, "duration": 6, "velocity": 77}, {"time": 4082, "pitch": 64, "duration": 6, "velocity": 81}, {"time": 4082, "pitch": 67, "duration": 5, "velocity": 86}, {"time": 4091, "pitch": 55, "duration": 4, "velocity": 80}, {"time": 4091, "pitch": 60, "duration": 4, "velocity": 74}, {"time": 4091, "pitch": 64, "duration": 4, "velocity": 62}, {"time": 4091, "pitch": 67, "duration": 4, "velocity": 68}, {"time": 4100, "pitch": 55, "duration": 2, "velocity": 83}, {"time": 4100, "pitch": 60, "duration": 4, "velocity": 76}, {"time": 4100, "pitch": 64, "duration": 4, "velocity": 64}, {"time": 4100, "pitch": 67, "duration": 3, "velocity": 67}, {"time": 4103, "pitch": 52, "duration": 10, "velocity": 95}, {"time": 4106, "pitch": 57, "duration": 4, "velocity": 99}, {"time": 4106, "pitch": 60, "duration": 11, "velocity": 81}, {"time": 4106, "pitch": 64, "duration": 11, "velocity": 41}, {"time": 4106, "pitch": 69, "duration": 4, "velocity": 100}, {"time": 4112, "pitch": 55, "duration": 12, "velocity": 100}, {"time": 4112, "pitch": 67, "duration": 13, "velocity": 90}, {"time": 4118, "pitch": 52, "duration": 7, "velocity": 99}, {"time": 4124, "pitch": 43, "duration": 1, "velocity": 68}, {"time": 4124, "pitch": 64, "duration": 4, "velocity": 81}, {"time": 4130, "pitch": 41, "duration": 41, "velocity": 76}, {"time": 4130, "pitch": 48, "duration": 37, "velocity": 77}, {"time": 4130, "pitch": 53, "duration": 9, "velocity": 83}, {"time": 4130, "pitch": 57, "duration": 6, "velocity": 100}, {"time": 4130, "pitch": 60, "duration": 6, "velocity": 97}, {"time": 4130, "pitch": 65, "duration": 6, "velocity": 96}, {"time": 4139, "pitch": 57, "duration": 4, "velocity": 83}, {"time": 4139, "pitch": 60, "duration": 5, "velocity": 76}, {"time": 4139, "pitch": 65, "duration": 5, "velocity": 75}, {"time": 4145, "pitch": 53, "duration": 2, "velocity": 68}, {"time": 4148, "pitch": 53, "duration": 6, "velocity": 71}, {"time": 4148, "pitch": 57, "duration": 2, "velocity": 79}, {"time": 4148, "pitch": 60, "duration": 1, "velocity": 63}, {"time": 4148, "pitch": 67, "duration": 2, "velocity": 89}, {"time": 4154, "pitch": 57, "duration": 6, "velocity": 102}, {"time": 4154, "pitch": 60, "duration": 6, "velocity": 95}, {"time": 4154, "pitch": 69, "duration": 5, "velocity": 108}, {"time": 4157, "pitch": 53, "duration": 3, "velocity": 41}, {"time": 4163, "pitch": 57, "duration": 4, "velocity": 80}, {"time": 4163, "pitch": 60, "duration": 5, "velocity": 75}, {"time": 4163, "pitch": 67, "duration": 5, "velocity": 96}, {"time": 4166, "pitch": 53, "duration": 8, "velocity": 72}, {"time": 4172, "pitch": 48, "duration": 3, "velocity": 47}, {"time": 4172, "pitch": 57, "duration": 3, "velocity": 83}, {"time": 4172, "pitch": 60, "duration": 1, "velocity": 77}, {"time": 4172, "pitch": 65, "duration": 3, "velocity": 86}, {"time": 4178, "pitch": 40, "duration": 44, "velocity": 85}, {"time": 4178, "pitch": 48, "duration": 39, "velocity": 44}, {"time": 4178, "pitch": 52, "duration": 8, "velocity": 91}, {"time": 4178, "pitch": 55, "duration": 5, "velocity": 91}, {"time": 4178, "pitch": 60, "duration": 5, "velocity": 83}, {"time": 4178, "pitch": 64, "duration": 6, "velocity": 91}, {"time": 4187, "pitch": 55, "duration": 7, "velocity": 90}, {"time": 4187, "pitch": 60, "duration": 8, "velocity": 69}, {"time": 4187, "pitch": 64, "duration": 9, "velocity": 68}, {"time": 4190, "pitch": 52, "duration": 11, "velocity": 99}, {"time": 4196, "pitch": 55, "duration": 11, "velocity": 91}, {"time": 4196, "pitch": 60, "duration": 11, "velocity": 83}, {"time": 4196, "pitch": 64, "duration": 11, "velocity": 88}, {"time": 4196, "pitch": 67, "duration": 11, "velocity": 102}, {"time": 4208, "pitch": 52, "duration": 7, "velocity": 104}, {"time": 4214, "pitch": 55, "duration": 7, "velocity": 91}, {"time": 4214, "pitch": 60, "duration": 8, "velocity": 87}, {"time": 4214, "pitch": 64, "duration": 9, "velocity": 88}, {"time": 4217, "pitch": 52, "duration": 5, "velocity": 77}, {"time": 4220, "pitch": 48, "duration": 3, "velocity": 84}, {"time": 4226, "pitch": 38, "duration": 35, "velocity": 85}, {"time": 4226, "pitch": 48, "duration": 11, "velocity": 84}, {"time": 4226, "pitch": 57, "duration": 5, "velocity": 100}, {"time": 4226, "pitch": 60, "duration": 5, "velocity": 91}, {"time": 4226, "pitch": 65, "duration": 5, "velocity": 95}, {"time": 4235, "pitch": 57, "duration": 3, "velocity": 108}, {"time": 4235, "pitch": 60, "duration": 3, "velocity": 102}, {"time": 4235, "pitch": 65, "duration": 4, "velocity": 95}, {"time": 4244, "pitch": 57, "duration": 8, "velocity": 99}, {"time": 4244, "pitch": 60, "duration": 8, "velocity": 97}, {"time": 4244, "pitch": 65, "duration": 8, "velocity": 92}, {"time": 4250, "pitch": 50, "duration": 7, "velocity": 91}, {"time": 4256, "pitch": 57, "duration": 4, "velocity": 97}, {"time": 4256, "pitch": 60, "duration": 5, "velocity": 100}, {"time": 4256, "pitch": 65, "duration": 4, "velocity": 93}, {"time": 4259, "pitch": 50, "duration": 9, "velocity": 85}, {"time": 4262, "pitch": 57, "duration": 5, "velocity": 95}, {"time": 4262, "pitch": 60, "duration": 7, "velocity": 94}, {"time": 4262, "pitch": 65, "duration": 6, "velocity": 90}, {"time": 4265, "pitch": 38, "duration": 1, "velocity": 76}, {"time": 4274, "pitch": 43, "duration": 33, "velocity": 91}, {"time": 4274, "pitch": 55, "duration": 6, "velocity": 91}, {"time": 4274, "pitch": 59, "duration": 5, "velocity": 104}, {"time": 4274, "pitch": 62, "duration": 6, "velocity": 104}, {"time": 4274, "pitch": 67, "duration": 5, "velocity": 100}, {"time": 4283, "pitch": 59, "duration": 4, "velocity": 90}, {"time": 4283, "pitch": 62, "duration": 4, "velocity": 67}, {"time": 4283, "pitch": 69, "duration": 4, "velocity": 92}, {"time": 4286, "pitch": 55, "duration": 7, "velocity": 100}, {"time": 4292, "pitch": 59, "duration": 8, "velocity": 102}, {"time": 4292, "pitch": 62, "duration": 8, "velocity": 92}, {"time": 4292, "pitch": 71, "duration": 8, "velocity": 100}, {"time": 4298, "pitch": 55, "duration": 6, "velocity": 106}, {"time": 4304, "pitch": 59, "duration": 3, "velocity": 92}, {"time": 4304, "pitch": 62, "duration": 3, "velocity": 90}, {"time": 4304, "pitch": 67, "duration": 3, "velocity": 89}, {"time": 4307, "pitch": 55, "duration": 7, "velocity": 104}, {"time": 4310, "pitch": 59, "duration": 3, "velocity": 91}, {"time": 4310, "pitch": 62, "duration": 3, "velocity": 77}, {"time": 4310, "pitch": 69, "duration": 3, "velocity": 84}, {"time": 4313, "pitch": 43, "duration": 5, "velocity": 95}, {"time": 4316, "pitch": 55, "duration": 3, "velocity": 87}, {"time": 4316, "pitch": 59, "duration": 2, "velocity": 94}, {"time": 4316, "pitch": 62, "duration": 2, "velocity": 77}, {"time": 4316, "pitch": 71, "duration": 2, "velocity": 100}, {"time": 4320, "pitch": 48, "duration": 39, "velocity": 97}, {"time": 4320, "pitch": 55, "duration": 10, "velocity": 59}, {"time": 4320, "pitch": 60, "duration": 5, "velocity": 100}, {"time": 4320, "pitch": 64, "duration": 4, "velocity": 81}, {"time": 4320, "pitch": 67, "duration": 5, "velocity": 82}, {"time": 4320, "pitch": 72, "duration": 5, "velocity": 100}, {"time": 4329, "pitch": 60, "duration": 5, "velocity": 102}, {"time": 4329, "pitch": 64, "duration": 5, "velocity": 88}, {"time": 4329, "pitch": 67, "duration": 5, "velocity": 73}, {"time": 4329, "pitch": 72, "duration": 5, "velocity": 100}, {"time": 4332, "pitch": 55, "duration": 8, "velocity": 77}, {"time": 4338, "pitch": 60, "duration": 2, "velocity": 99}, {"time": 4338, "pitch": 64, "duration": 2, "velocity": 85}, {"time": 4338, "pitch": 67, "duration": 1, "velocity": 82}, {"time": 4338, "pitch": 72, "duration": 3, "velocity": 96}, {"time": 4344, "pitch": 64, "duration": 4, "velocity": 99}, {"time": 4344, "pitch": 67, "duration": 7, "velocity": 67}, {"time": 4344, "pitch": 72, "duration": 6, "velocity": 67}, {"time": 4344, "pitch": 76, "duration": 4, "velocity": 102}, {"time": 4347, "pitch": 55, "duration": 5, "velocity": 88}, {"time": 4353, "pitch": 60, "duration": 4, "velocity": 80}, {"time": 4353, "pitch": 64, "duration": 6, "velocity": 45}, {"time": 4353, "pitch": 67, "duration": 7, "velocity": 44}, {"time": 4353, "pitch": 72, "duration": 4, "velocity": 83}, {"time": 4356, "pitch": 55, "duration": 9, "velocity": 76}, {"time": 4362, "pitch": 48, "duration": 2, "velocity": 63}, {"time": 4362, "pitch": 59, "duration": 3, "velocity": 95}, {"time": 4362, "pitch": 64, "duration": 3, "velocity": 37}, {"time": 4362, "pitch": 67, "duration": 4, "velocity": 37}, {"time": 4362, "pitch": 71, "duration": 3, "velocity": 86}, {"time": 4368, "pitch": 47, "duration": 42, "velocity": 95}, {"time": 4368, "pitch": 55, "duration": 9, "velocity": 100}, {"time": 4368, "pitch": 59, "duration": 5, "velocity": 95}, {"time": 4368, "pitch": 64, "duration": 5, "velocity": 79}, {"time": 4368, "pitch": 67, "duration": 5, "velocity": 71}, {"time": 4368, "pitch": 71, "duration": 5, "velocity": 102}, {"time": 4377, "pitch": 59, "duration": 3, "velocity": 92}, {"time": 4377, "pitch": 62, "duration": 3, "velocity": 81}, {"time": 4377, "pitch": 67, "duration": 4, "velocity": 67}, {"time": 4377, "pitch": 71, "duration": 4, "velocity": 89}, {"time": 4380, "pitch": 55, "duration": 8, "velocity": 92}, {"time": 4386, "pitch": 62, "duration": 7, "velocity": 104}, {"time": 4386, "pitch": 74, "duration": 6, "velocity": 96}, {"time": 4395, "pitch": 55, "duration": 2, "velocity": 68}, {"time": 4398, "pitch": 59, "duration": 7, "velocity": 111}, {"time": 4398, "pitch": 62, "duration": 7, "velocity": 102}, {"time": 4398, "pitch": 67, "duration": 7, "velocity": 95}, {"time": 4398, "pitch": 71, "duration": 7, "velocity": 108}, {"time": 4404, "pitch": 55, "duration": 9, "velocity": 104}, {"time": 4410, "pitch": 59, "duration": 2, "velocity": 99}, {"time": 4410, "pitch": 62, "duration": 2, "velocity": 95}, {"time": 4410, "pitch": 67, "duration": 2, "velocity": 82}, {"time": 4410, "pitch": 71, "duration": 2, "velocity": 92}, {"time": 4413, "pitch": 47, "duration": 3, "velocity": 87}, {"time": 4416, "pitch": 45, "duration": 45, "velocity": 97}, {"time": 4416, "pitch": 52, "duration": 10, "velocity": 108}, {"time": 4416, "pitch": 57, "duration": 6, "velocity": 106}, {"time": 4416, "pitch": 60, "duration": 7, "velocity": 95}, {"time": 4416, "pitch": 64, "duration": 7, "velocity": 85}, {"time": 4416, "pitch": 69, "duration": 6, "velocity": 104}, {"time": 4425, "pitch": 57, "duration": 6, "velocity": 95}, {"time": 4425, "pitch": 60, "duration": 6, "velocity": 87}, {"time": 4425, "pitch": 64, "duration": 6, "velocity": 72}, {"time": 4425, "pitch": 69, "duration": 6, "velocity": 99}, {"time": 4431, "pitch": 52, "duration": 6, "velocity": 87}, {"time": 4434, "pitch": 57, "duration": 2, "velocity": 97}, {"time": 4434, "pitch": 60, "duration": 2, "velocity": 90}, {"time": 4434, "pitch": 64, "duration": 2, "velocity": 72}, {"time": 4434, "pitch": 69, "duration": 3, "velocity": 95}, {"time": 4437, "pitch": 52, "duration": 12, "velocity": 108}, {"time": 4440, "pitch": 60, "duration": 5, "velocity": 110}, {"time": 4440, "pitch": 64, "duration": 5, "velocity": 95}, {"time": 4440, "pitch": 69, "duration": 5, "velocity": 96}, {"time": 4440, "pitch": 72, "duration": 4, "velocity": 106}, {"time": 4449, "pitch": 57, "duration": 5, "velocity": 77}, {"time": 4449, "pitch": 60, "duration": 6, "velocity": 74}, {"time": 4449, "pitch": 65, "duration": 6, "velocity": 73}, {"time": 4449, "pitch": 69, "duration": 5, "velocity": 86}, {"time": 4452, "pitch": 52, "duration": 6, "velocity": 104}, {"time": 4458, "pitch": 57, "duration": 3, "velocity": 95}, {"time": 4458, "pitch": 60, "duration": 3, "velocity": 87}, {"time": 4458, "pitch": 65, "duration": 3, "velocity": 86}, {"time": 4458, "pitch": 69, "duration": 2, "velocity": 83}, {"time": 4461, "pitch": 52, "duration": 2, "velocity": 91}, {"time": 4464, "pitch": 43, "duration": 20, "velocity": 99}, {"time": 4464, "pitch": 52, "duration": 10, "velocity": 100}, {"time": 4464, "pitch": 55, "duration": 6, "velocity": 104}, {"time": 4464, "pitch": 59, "duration": 6, "velocity": 97}, {"time": 4464, "pitch": 62, "duration": 6, "velocity": 67}, {"time": 4464, "pitch": 67, "duration": 6, "velocity": 104}, {"time": 4473, "pitch": 55, "duration": 5, "velocity": 91}, {"time": 4473, "pitch": 59, "duration": 2, "velocity": 54}, {"time": 4473, "pitch": 62, "duration": 5, "velocity": 72}, {"time": 4473, "pitch": 67, "duration": 6, "velocity": 89}, {"time": 4476, "pitch": 50, "duration": 5, "velocity": 87}, {"time": 4482, "pitch": 55, "duration": 3, "velocity": 106}, {"time": 4482, "pitch": 58, "duration": 3, "velocity": 100}, {"time": 4482, "pitch": 62, "duration": 2, "velocity": 84}, {"time": 4482, "pitch": 67, "duration": 4, "velocity": 96}, {"time": 4488, "pitch": 48, "duration": 19, "velocity": 94}, {"time": 4488, "pitch": 55, "duration": 8, "velocity": 108}, {"time": 4488, "pitch": 60, "duration": 6, "velocity": 108}, {"time": 4488, "pitch": 64, "duration": 7, "velocity": 91}, {"time": 4488, "pitch": 67, "duration": 6, "velocity": 89}, {"time": 4488, "pitch": 72, "duration": 6, "velocity": 108}, {"time": 4497, "pitch": 60, "duration": 5, "velocity": 95}, {"time": 4497, "pitch": 64, "duration": 5, "velocity": 97}, {"time": 4497, "pitch": 67, "duration": 5, "velocity": 82}, {"time": 4497, "pitch": 72, "duration": 5, "velocity": 99}, {"time": 4500, "pitch": 55, "duration": 7, "velocity": 97}, {"time": 4506, "pitch": 60, "duration": 3, "velocity": 99}, {"time": 4506, "pitch": 64, "duration": 2, "velocity": 88}, {"time": 4506, "pitch": 67, "duration": 1, "velocity": 76}, {"time": 4506, "pitch": 72, "duration": 2, "velocity": 99}, {"time": 4512, "pitch": 41, "duration": 42, "velocity": 100}, {"time": 4512, "pitch": 48, "duration": 2, "velocity": 65}, {"time": 4512, "pitch": 53, "duration": 10, "velocity": 99}, {"time": 4512, "pitch": 57, "duration": 6, "velocity": 100}, {"time": 4512, "pitch": 60, "duration": 7, "velocity": 97}, {"time": 4512, "pitch": 65, "duration": 6, "velocity": 92}, {"time": 4512, "pitch": 69, "duration": 6, "velocity": 100}, {"time": 4524, "pitch": 53, "duration": 6, "velocity": 92}, {"time": 4524, "pitch": 57, "duration": 5, "velocity": 91}, {"time": 4524, "pitch": 60, "duration": 6, "velocity": 83}, {"time": 4524, "pitch": 65, "duration": 6, "velocity": 70}, {"time": 4524, "pitch": 69, "duration": 5, "velocity": 92}, {"time": 4530, "pitch": 57, "duration": 1, "velocity": 92}, {"time": 4530, "pitch": 60, "duration": 2, "velocity": 72}, {"time": 4530, "pitch": 65, "duration": 2, "velocity": 62}, {"time": 4530, "pitch": 69, "duration": 2, "velocity": 78}, {"time": 4533, "pitch": 53, "duration": 2, "velocity": 17}, {"time": 4536, "pitch": 60, "duration": 4, "velocity": 77}, {"time": 4536, "pitch": 64, "duration": 4, "velocity": 58}, {"time": 4536, "pitch": 69, "duration": 4, "velocity": 51}, {"time": 4536, "pitch": 72, "duration": 4, "velocity": 90}, {"time": 4539, "pitch": 53, "duration": 4, "velocity": 77}, {"time": 4542, "pitch": 57, "duration": 5, "velocity": 102}, {"time": 4542, "pitch": 60, "duration": 5, "velocity": 94}, {"time": 4542, "pitch": 65, "duration": 5, "velocity": 83}, {"time": 4542, "pitch": 69, "duration": 5, "velocity": 96}, {"time": 4545, "pitch": 53, "duration": 6, "velocity": 91}, {"time": 4560, "pitch": 40, "duration": 39, "velocity": 89}, {"time": 4560, "pitch": 48, "duration": 32, "velocity": 85}, {"time": 4560, "pitch": 52, "duration": 8, "velocity": 95}, {"time": 4560, "pitch": 55, "duration": 6, "velocity": 100}, {"time": 4560, "pitch": 60, "duration": 7, "velocity": 77}, {"time": 4560, "pitch": 64, "duration": 6, "velocity": 84}, {"time": 4560, "pitch": 67, "duration": 6, "velocity": 84}, {"time": 4572, "pitch": 52, "duration": 9, "velocity": 91}, {"time": 4572, "pitch": 55, "duration": 2, "velocity": 97}, {"time": 4572, "pitch": 60, "duration": 2, "velocity": 80}, {"time": 4572, "pitch": 64, "duration": 3, "velocity": 72}, {"time": 4572, "pitch": 67, "duration": 3, "velocity": 80}, {"time": 4578, "pitch": 60, "duration": 6, "velocity": 106}, {"time": 4578, "pitch": 72, "duration": 6, "velocity": 110}, {"time": 4587, "pitch": 52, "duration": 13, "velocity": 100}, {"time": 4590, "pitch": 55, "duration": 9, "velocity": 106}, {"time": 4590, "pitch": 60, "duration": 9, "velocity": 91}, {"time": 4590, "pitch": 64, "duration": 9, "velocity": 85}, {"time": 4590, "pitch": 67, "duration": 9, "velocity": 96}, {"time": 4596, "pitch": 48, "duration": 7, "velocity": 99}, {"time": 4602, "pitch": 40, "duration": 1, "velocity": 79}, {"time": 4602, "pitch": 55, "duration": 3, "velocity": 92}, {"time": 4602, "pitch": 60, "duration": 2, "velocity": 74}, {"time": 4602, "pitch": 64, "duration": 2, "velocity": 68}, {"time": 4602, "pitch": 67, "duration": 2, "velocity": 73}, {"time": 4608, "pitch": 38, "duration": 34, "velocity": 95}, {"time": 4608, "pitch": 48, "duration": 11, "velocity": 88}, {"time": 4608, "pitch": 53, "duration": 8, "velocity": 97}, {"time": 4608, "pitch": 57, "duration": 8, "velocity": 87}, {"time": 4608, "pitch": 60, "duration": 8, "velocity": 80}, {"time": 4608, "pitch": 65, "duration": 8, "velocity": 95}, {"time": 4617, "pitch": 53, "duration": 7, "velocity": 91}, {"time": 4617, "pitch": 57, "duration": 7, "velocity": 108}, {"time": 4617, "pitch": 60, "duration": 7, "velocity": 90}, {"time": 4617, "pitch": 65, "duration": 7, "velocity": 87}, {"time": 4626, "pitch": 53, "duration": 8, "velocity": 87}, {"time": 4626, "pitch": 57, "duration": 9, "velocity": 87}, {"time": 4626, "pitch": 60, "duration": 8, "velocity": 87}, {"time": 4626, "pitch": 65, "duration": 8, "velocity": 82}, {"time": 4632, "pitch": 48, "duration": 8, "velocity": 100}, {"time": 4638, "pitch": 53, "duration": 7, "velocity": 95}, {"time": 4638, "pitch": 57, "duration": 9, "velocity": 100}, {"time": 4638, "pitch": 60, "duration": 9, "velocity": 92}, {"time": 4638, "pitch": 65, "duration": 10, "velocity": 99}, {"time": 4641, "pitch": 48, "duration": 6, "velocity": 84}, {"time": 4644, "pitch": 38, "duration": 3, "velocity": 88}, {"time": 4656, "pitch": 43, "duration": 37, "velocity": 88}, {"time": 4656, "pitch": 55, "duration": 20, "velocity": 92}, {"time": 4656, "pitch": 59, "duration": 9, "velocity": 83}, {"time": 4656, "pitch": 62, "duration": 11, "velocity": 75}, {"time": 4656, "pitch": 67, "duration": 9, "velocity": 90}, {"time": 4674, "pitch": 69, "duration": 8, "velocity": 93}, {"time": 4686, "pitch": 71, "duration": 6, "velocity": 86}, {"time": 4692, "pitch": 55, "duration": 2, "velocity": 57}, {"time": 4704, "pitch": 46, "duration": 34, "velocity": 48}, {"time": 4704, "pitch": 62, "duration": 13, "velocity": 72}, {"time": 4704, "pitch": 65, "duration": 14, "velocity": 81}, {"time": 4704, "pitch": 70, "duration": 12, "velocity": 62}, {"time": 4710, "pitch": 53, "duration": 28, "velocity": 86}, {"time": 4716, "pitch": 58, "duration": 20, "velocity": 78}, {"time": 4722, "pitch": 60, "duration": 11, "velocity": 94}, {"time": 4734, "pitch": 60, "duration": 2, "velocity": 50}, {"time": 4734, "pitch": 65, "duration": 7, "velocity": 96}, {"time": 4740, "pitch": 46, "duration": 4, "velocity": 63}, {"time": 4740, "pitch": 53, "duration": 2, "velocity": 99}, {"time": 4740, "pitch": 58, "duration": 2, "velocity": 42}, {"time": 4746, "pitch": 60, "duration": 4, "velocity": 76}, {"time": 4752, "pitch": 43, "duration": 8, "velocity": 111}, {"time": 4752, "pitch": 55, "duration": 8, "velocity": 81}, {"time": 4752, "pitch": 57, "duration": 8, "velocity": 85}, {"time": 4752, "pitch": 60, "duration": 7, "velocity": 97}, {"time": 4752, "pitch": 65, "duration": 7, "velocity": 88}, {"time": 4764, "pitch": 43, "duration": 8, "velocity": 94}, {"time": 4764, "pitch": 55, "duration": 8, "velocity": 85}, {"time": 4764, "pitch": 57, "duration": 8, "velocity": 84}, {"time": 4764, "pitch": 60, "duration": 8, "velocity": 111}, {"time": 4764, "pitch": 65, "duration": 8, "velocity": 96}, {"time": 4776, "pitch": 43, "duration": 9, "velocity": 103}, {"time": 4776, "pitch": 55, "duration": 9, "velocity": 88}, {"time": 4776, "pitch": 57, "duration": 10, "velocity": 76}, {"time": 4776, "pitch": 60, "duration": 10, "velocity": 101}, {"time": 4776, "pitch": 65, "duration": 9, "velocity": 91}, {"time": 4788, "pitch": 43, "duration": 8, "velocity": 117}, {"time": 4788, "pitch": 55, "duration": 4, "velocity": 106}, {"time": 4788, "pitch": 57, "duration": 8, "velocity": 77}, {"time": 4788, "pitch": 60, "duration": 8, "velocity": 106}, {"time": 4788, "pitch": 65, "duration": 8, "velocity": 99}, {"time": 4800, "pitch": 60, "duration": 36, "velocity": 57}, {"time": 4800, "pitch": 67, "duration": 8, "velocity": 69}, {"time": 4800, "pitch": 74, "duration": 7, "velocity": 86}, {"time": 4806, "pitch": 64, "duration": 30, "velocity": 60}, {"time": 4812, "pitch": 67, "duration": 19, "velocity": 60}, {"time": 4818, "pitch": 72, "duration": 12, "velocity": 77}, {"time": 4830, "pitch": 74, "duration": 8, "velocity": 81}, {"time": 4848, "pitch": 59, "duration": 37, "velocity": 54}, {"time": 4848, "pitch": 67, "duration": 37, "velocity": 57}, {"time": 4848, "pitch": 74, "duration": 32, "velocity": 77}, {"time": 4884, "pitch": 79, "duration": 8, "velocity": 60}, {"time": 4896, "pitch": 57, "duration": 35, "velocity": 60}, {"time": 4896, "pitch": 67, "duration": 8, "velocity": 68}, {"time": 4896, "pitch": 72, "duration": 7, "velocity": 81}, {"time": 4902, "pitch": 64, "duration": 28, "velocity": 68}, {"time": 4908, "pitch": 67, "duration": 7, "velocity": 60}, {"time": 4914, "pitch": 71, "duration": 12, "velocity": 86}, {"time": 4926, "pitch": 72, "duration": 6, "velocity": 82}, {"time": 4944, "pitch": 55, "duration": 16, "velocity": 64}, {"time": 4944, "pitch": 70, "duration": 12, "velocity": 72}, {"time": 4944, "pitch": 77, "duration": 10, "velocity": 63}, {"time": 4950, "pitch": 62, "duration": 9, "velocity": 48}, {"time": 4956, "pitch": 67, "duration": 2, "velocity": 55}, {"time": 4956, "pitch": 76, "duration": 5, "velocity": 51}, {"time": 4962, "pitch": 79, "duration": 17, "velocity": 70}, {"time": 4968, "pitch": 48, "duration": 13, "velocity": 67}, {"time": 4974, "pitch": 55, "duration": 8, "velocity": 44}, {"time": 4980, "pitch": 60, "duration": 4, "velocity": 62}, {"time": 4983, "pitch": 67, "duration": 4, "velocity": 72}, {"time": 4986, "pitch": 72, "duration": 5, "velocity": 59}, {"time": 4989, "pitch": 74, "duration": 5, "velocity": 56}, {"time": 4992, "pitch": 53, "duration": 38, "velocity": 66}, {"time": 4992, "pitch": 79, "duration": 11, "velocity": 60}, {"time": 4998, "pitch": 60, "duration": 26, "velocity": 54}, {"time": 5004, "pitch": 65, "duration": 24, "velocity": 55}, {"time": 5010, "pitch": 69, "duration": 4, "velocity": 46}, {"time": 5010, "pitch": 77, "duration": 9, "velocity": 66}, {"time": 5022, "pitch": 67, "duration": 7, "velocity": 56}, {"time": 5022, "pitch": 76, "duration": 8, "velocity": 59}, {"time": 5034, "pitch": 74, "duration": 4, "velocity": 54}, {"time": 5040, "pitch": 52, "duration": 8, "velocity": 66}, {"time": 5040, "pitch": 67, "duration": 6, "velocity": 52}, {"time": 5040, "pitch": 72, "duration": 6, "velocity": 64}, {"time": 5046, "pitch": 60, "duration": 4, "velocity": 55}, {"time": 5052, "pitch": 71, "duration": 5, "velocity": 33}, {"time": 5058, "pitch": 72, "duration": 6, "velocity": 49}, {"time": 5064, "pitch": 57, "duration": 14, "velocity": 52}, {"time": 5064, "pitch": 64, "duration": 14, "velocity": 53}, {"time": 5064, "pitch": 67, "duration": 10, "velocity": 47}, {"time": 5064, "pitch": 74, "duration": 12, "velocity": 56}, {"time": 5076, "pitch": 72, "duration": 2, "velocity": 67}, {"time": 5088, "pitch": 38, "duration": 4, "velocity": 100}, {"time": 5088, "pitch": 50, "duration": 5, "velocity": 64}, {"time": 5088, "pitch": 57, "duration": 5, "velocity": 54}, {"time": 5088, "pitch": 62, "duration": 4, "velocity": 100}, {"time": 5088, "pitch": 65, "duration": 5, "velocity": 61}, {"time": 5088, "pitch": 69, "duration": 5, "velocity": 63}, {"time": 5088, "pitch": 72, "duration": 5, "velocity": 50}, {"time": 5094, "pitch": 38, "duration": 4, "velocity": 100}, {"time": 5094, "pitch": 62, "duration": 4, "velocity": 100}, {"time": 5094, "pitch": 50, "duration": 5, "velocity": 64}, {"time": 5094, "pitch": 57, "duration": 5, "velocity": 54}, {"time": 5094, "pitch": 65, "duration": 5, "velocity": 61}, {"time": 5094, "pitch": 69, "duration": 5, "velocity": 63}, {"time": 5094, "pitch": 72, "duration": 5, "velocity": 50}, {"time": 5136, "pitch": 67, "duration": 11, "velocity": 100}, {"time": 5136, "pitch": 59, "duration": 10, "velocity": 102}, {"time": 5136, "pitch": 62, "duration": 11, "velocity": 95}, {"time": 5137, "pitch": 43, "duration": 9, "velocity": 100}, {"time": 5137, "pitch": 55, "duration": 9, "velocity": 100}, {"time": 5154, "pitch": 62, "duration": 8, "velocity": 102}, {"time": 5154, "pitch": 67, "duration": 7, "velocity": 104}, {"time": 5154, "pitch": 59, "duration": 7, "velocity": 106}, {"time": 5154, "pitch": 55, "duration": 8, "velocity": 100}, {"time": 5154, "pitch": 43, "duration": 8, "velocity": 99}, {"time": 5167, "pitch": 55, "duration": 3, "velocity": 104}, {"time": 5167, "pitch": 69, "duration": 4, "velocity": 106}, {"time": 5167, "pitch": 59, "duration": 4, "velocity": 104}, {"time": 5167, "pitch": 62, "duration": 4, "velocity": 94}, {"time": 5167, "pitch": 43, "duration": 10, "velocity": 99}, {"time": 5172, "pitch": 55, "duration": 10, "velocity": 85}, {"time": 5178, "pitch": 62, "duration": 4, "velocity": 108}, {"time": 5178, "pitch": 71, "duration": 3, "velocity": 110}, {"time": 5178, "pitch": 59, "duration": 3, "velocity": 110}, {"time": 5184, "pitch": 36, "duration": 13, "velocity": 109}, {"time": 5184, "pitch": 48, "duration": 14, "velocity": 106}, {"time": 5184, "pitch": 60, "duration": 5, "velocity": 94}, {"time": 5184, "pitch": 64, "duration": 5, "velocity": 85}, {"time": 5184, "pitch": 67, "duration": 5, "velocity": 83}, {"time": 5184, "pitch": 72, "duration": 5, "velocity": 92}, {"time": 5193, "pitch": 64, "duration": 4, "velocity": 88}, {"time": 5193, "pitch": 67, "duration": 4, "velocity": 86}, {"time": 5193, "pitch": 72, "duration": 4, "velocity": 99}, {"time": 5202, "pitch": 60, "duration": 8, "velocity": 92}, {"time": 5202, "pitch": 64, "duration": 8, "velocity": 90}, {"time": 5202, "pitch": 67, "duration": 8, "velocity": 84}, {"time": 5202, "pitch": 72, "duration": 7, "velocity": 99}, {"time": 5209, "pitch": 55, "duration": 4, "velocity": 111}, {"time": 5209, "pitch": 43, "duration": 5, "velocity": 111}, {"time": 5214, "pitch": 60, "duration": 7, "velocity": 95}, {"time": 5214, "pitch": 64, "duration": 8, "velocity": 91}, {"time": 5214, "pitch": 67, "duration": 8, "velocity": 84}, {"time": 5214, "pitch": 72, "duration": 6, "velocity": 95}, {"time": 5217, "pitch": 52, "duration": 4, "velocity": 106}, {"time": 5217, "pitch": 40, "duration": 5, "velocity": 105}, {"time": 5223, "pitch": 64, "duration": 3, "velocity": 71}, {"time": 5223, "pitch": 67, "duration": 2, "velocity": 66}, {"time": 5223, "pitch": 72, "duration": 1, "velocity": 80}, {"time": 5225, "pitch": 36, "duration": 2, "velocity": 102}, {"time": 5225, "pitch": 48, "duration": 2, "velocity": 100}, {"time": 5232, "pitch": 35, "duration": 31, "velocity": 110}, {"time": 5232, "pitch": 47, "duration": 20, "velocity": 108}, {"time": 5232, "pitch": 59, "duration": 7, "velocity": 95}, {"time": 5232, "pitch": 62, "duration": 7, "velocity": 94}, {"time": 5232, "pitch": 67, "duration": 7, "velocity": 87}, {"time": 5232, "pitch": 71, "duration": 7, "velocity": 93}, {"time": 5244, "pitch": 59, "duration": 5, "velocity": 85}, {"time": 5244, "pitch": 62, "duration": 6, "velocity": 79}, {"time": 5244, "pitch": 67, "duration": 6, "velocity": 68}, {"time": 5244, "pitch": 71, "duration": 7, "velocity": 83}, {"time": 5253, "pitch": 47, "duration": 11, "velocity": 100}, {"time": 5256, "pitch": 67, "duration": 3, "velocity": 99}, {"time": 5256, "pitch": 71, "duration": 2, "velocity": 82}, {"time": 5256, "pitch": 74, "duration": 2, "velocity": 79}, {"time": 5256, "pitch": 79, "duration": 4, "velocity": 104}, {"time": 5265, "pitch": 59, "duration": 3, "velocity": 97}, {"time": 5265, "pitch": 62, "duration": 3, "velocity": 95}, {"time": 5265, "pitch": 67, "duration": 5, "velocity": 84}, {"time": 5265, "pitch": 71, "duration": 3, "velocity": 93}, {"time": 5268, "pitch": 35, "duration": 2, "velocity": 114}, {"time": 5268, "pitch": 47, "duration": 2, "velocity": 108}, {"time": 5274, "pitch": 47, "duration": 2, "velocity": 81}, {"time": 5280, "pitch": 45, "duration": 43, "velocity": 84}, {"time": 5280, "pitch": 52, "duration": 11, "velocity": 91}, {"time": 5280, "pitch": 57, "duration": 7, "velocity": 100}, {"time": 5280, "pitch": 60, "duration": 7, "velocity": 94}, {"time": 5280, "pitch": 64, "duration": 6, "velocity": 87}, {"time": 5280, "pitch": 69, "duration": 6, "velocity": 102}, {"time": 5289, "pitch": 57, "duration": 5, "velocity": 74}, {"time": 5289, "pitch": 60, "duration": 5, "velocity": 79}, {"time": 5289, "pitch": 64, "duration": 6, "velocity": 64}, {"time": 5289, "pitch": 69, "duration": 5, "velocity": 80}, {"time": 5298, "pitch": 57, "duration": 6, "velocity": 90}, {"time": 5298, "pitch": 60, "duration": 7, "velocity": 84}, {"time": 5298, "pitch": 64, "duration": 7, "velocity": 64}, {"time": 5298, "pitch": 69, "duration": 7, "velocity": 95}, {"time": 5304, "pitch": 52, "duration": 8, "velocity": 90}, {"time": 5310, "pitch": 60, "duration": 3, "velocity": 85}, {"time": 5310, "pitch": 64, "duration": 3, "velocity": 81}, {"time": 5310, "pitch": 69, "duration": 3, "velocity": 83}, {"time": 5310, "pitch": 72, "duration": 3, "velocity": 90}, {"time": 5313, "pitch": 52, "duration": 4, "velocity": 63}, {"time": 5322, "pitch": 52, "duration": 2, "velocity": 55}, {"time": 5322, "pitch": 57, "duration": 3, "velocity": 63}, {"time": 5322, "pitch": 60, "duration": 2, "velocity": 68}, {"time": 5322, "pitch": 64, "duration": 3, "velocity": 74}, {"time": 5322, "pitch": 69, "duration": 2, "velocity": 68}, {"time": 5328, "pitch": 43, "duration": 38, "velocity": 83}, {"time": 5328, "pitch": 52, "duration": 11, "velocity": 80}, {"time": 5328, "pitch": 55, "duration": 6, "velocity": 92}, {"time": 5328, "pitch": 60, "duration": 6, "velocity": 77}, {"time": 5328, "pitch": 64, "duration": 6, "velocity": 81}, {"time": 5328, "pitch": 67, "duration": 6, "velocity": 86}, {"time": 5337, "pitch": 55, "duration": 4, "velocity": 80}, {"time": 5337, "pitch": 60, "duration": 5, "velocity": 74}, {"time": 5337, "pitch": 64, "duration": 5, "velocity": 62}, {"time": 5337, "pitch": 67, "duration": 4, "velocity": 68}, {"time": 5346, "pitch": 55, "duration": 2, "velocity": 83}, {"time": 5346, "pitch": 60, "duration": 5, "velocity": 76}, {"time": 5346, "pitch": 64, "duration": 4, "velocity": 64}, {"time": 5346, "pitch": 67, "duration": 3, "velocity": 67}, {"time": 5349, "pitch": 52, "duration": 10, "velocity": 95}, {"time": 5352, "pitch": 57, "duration": 4, "velocity": 99}, {"time": 5352, "pitch": 60, "duration": 12, "velocity": 81}, {"time": 5352, "pitch": 64, "duration": 11, "velocity": 41}, {"time": 5352, "pitch": 69, "duration": 4, "velocity": 100}, {"time": 5358, "pitch": 55, "duration": 12, "velocity": 100}, {"time": 5358, "pitch": 67, "duration": 13, "velocity": 90}, {"time": 5364, "pitch": 52, "duration": 7, "velocity": 99}, {"time": 5370, "pitch": 43, "duration": 2, "velocity": 68}, {"time": 5370, "pitch": 64, "duration": 4, "velocity": 81}, {"time": 5376, "pitch": 41, "duration": 42, "velocity": 76}, {"time": 5376, "pitch": 48, "duration": 38, "velocity": 77}, {"time": 5376, "pitch": 53, "duration": 9, "velocity": 83}, {"time": 5376, "pitch": 57, "duration": 6, "velocity": 100}, {"time": 5376, "pitch": 60, "duration": 6, "velocity": 97}, {"time": 5376, "pitch": 65, "duration": 7, "velocity": 96}, {"time": 5385, "pitch": 57, "duration": 5, "velocity": 83}, {"time": 5385, "pitch": 60, "duration": 5, "velocity": 76}, {"time": 5385, "pitch": 65, "duration": 5, "velocity": 75}, {"time": 5391, "pitch": 53, "duration": 3, "velocity": 68}, {"time": 5394, "pitch": 53, "duration": 7, "velocity": 71}, {"time": 5394, "pitch": 57, "duration": 2, "velocity": 79}, {"time": 5394, "pitch": 60, "duration": 2, "velocity": 63}, {"time": 5394, "pitch": 67, "duration": 3, "velocity": 89}, {"time": 5400, "pitch": 57, "duration": 6, "velocity": 102}, {"time": 5400, "pitch": 60, "duration": 6, "velocity": 95}, {"time": 5400, "pitch": 69, "duration": 6, "velocity": 108}, {"time": 5403, "pitch": 53, "duration": 4, "velocity": 41}, {"time": 5409, "pitch": 57, "duration": 5, "velocity": 80}, {"time": 5409, "pitch": 60, "duration": 5, "velocity": 75}, {"time": 5409, "pitch": 67, "duration": 5, "velocity": 96}, {"time": 5412, "pitch": 53, "duration": 8, "velocity": 72}, {"time": 5418, "pitch": 48, "duration": 3, "velocity": 47}, {"time": 5418, "pitch": 57, "duration": 3, "velocity": 83}, {"time": 5418, "pitch": 60, "duration": 2, "velocity": 77}, {"time": 5418, "pitch": 65, "duration": 4, "velocity": 86}, {"time": 5424, "pitch": 40, "duration": 44, "velocity": 85}, {"time": 5424, "pitch": 48, "duration": 40, "velocity": 44}, {"time": 5424, "pitch": 52, "duration": 8, "velocity": 91}, {"time": 5424, "pitch": 55, "duration": 5, "velocity": 91}, {"time": 5424, "pitch": 60, "duration": 6, "velocity": 83}, {"time": 5424, "pitch": 64, "duration": 6, "velocity": 91}, {"time": 5433, "pitch": 55, "duration": 8, "velocity": 90}, {"time": 5433, "pitch": 60, "duration": 8, "velocity": 69}, {"time": 5433, "pitch": 64, "duration": 9, "velocity": 68}, {"time": 5436, "pitch": 52, "duration": 11, "velocity": 99}, {"time": 5442, "pitch": 55, "duration": 12, "velocity": 91}, {"time": 5442, "pitch": 60, "duration": 12, "velocity": 83}, {"time": 5442, "pitch": 64, "duration": 11, "velocity": 88}, {"time": 5442, "pitch": 67, "duration": 11, "velocity": 102}, {"time": 5454, "pitch": 52, "duration": 7, "velocity": 104}, {"time": 5460, "pitch": 55, "duration": 7, "velocity": 91}, {"time": 5460, "pitch": 60, "duration": 8, "velocity": 87}, {"time": 5460, "pitch": 64, "duration": 9, "velocity": 88}, {"time": 5463, "pitch": 52, "duration": 5, "velocity": 77}, {"time": 5466, "pitch": 48, "duration": 3, "velocity": 84}, {"time": 5472, "pitch": 38, "duration": 35, "velocity": 85}, {"time": 5472, "pitch": 48, "duration": 11, "velocity": 84}, {"time": 5472, "pitch": 57, "duration": 5, "velocity": 100}, {"time": 5472, "pitch": 60, "duration": 5, "velocity": 91}, {"time": 5472, "pitch": 65, "duration": 5, "velocity": 95}, {"time": 5481, "pitch": 57, "duration": 4, "velocity": 108}, {"time": 5481, "pitch": 60, "duration": 4, "velocity": 102}, {"time": 5481, "pitch": 65, "duration": 4, "velocity": 95}, {"time": 5490, "pitch": 57, "duration": 8, "velocity": 99}, {"time": 5490, "pitch": 60, "duration": 8, "velocity": 97}, {"time": 5490, "pitch": 65, "duration": 8, "velocity": 92}, {"time": 5496, "pitch": 50, "duration": 7, "velocity": 91}, {"time": 5502, "pitch": 57, "duration": 5, "velocity": 97}, {"time": 5502, "pitch": 60, "duration": 5, "velocity": 100}, {"time": 5502, "pitch": 65, "duration": 5, "velocity": 93}, {"time": 5505, "pitch": 50, "duration": 9, "velocity": 85}, {"time": 5508, "pitch": 57, "duration": 6, "velocity": 95}, {"time": 5508, "pitch": 60, "duration": 7, "velocity": 94}, {"time": 5508, "pitch": 65, "duration": 6, "velocity": 90}, {"time": 5511, "pitch": 38, "duration": 2, "velocity": 76}, {"time": 5520, "pitch": 43, "duration": 38, "velocity": 73}, {"time": 5520, "pitch": 60, "duration": 20, "velocity": 82}, {"time": 5520, "pitch": 65, "duration": 17, "velocity": 67}, {"time": 5520, "pitch": 69, "duration": 19, "velocity": 70}, {"time": 5520, "pitch": 72, "duration": 20, "velocity": 62}, {"time": 5538, "pitch": 55, "duration": 11, "velocity": 40}, {"time": 5544, "pitch": 60, "duration": 13, "velocity": 64}, {"time": 5544, "pitch": 65, "duration": 13, "velocity": 73}, {"time": 5544, "pitch": 69, "duration": 14, "velocity": 67}, {"time": 5544, "pitch": 72, "duration": 12, "velocity": 58}, {"time": 5556, "pitch": 55, "duration": 4, "velocity": 57}, {"time": 5568, "pitch": 48, "duration": 80, "velocity": 73}, {"time": 5568, "pitch": 65, "duration": 13, "velocity": 64}, {"time": 5568, "pitch": 67, "duration": 11, "velocity": 53}, {"time": 5568, "pitch": 72, "duration": 14, "velocity": 58}, {"time": 5580, "pitch": 55, "duration": 14, "velocity": 34}, {"time": 5592, "pitch": 60, "duration": 13, "velocity": 47}, {"time": 5592, "pitch": 65, "duration": 21, "velocity": 70}, {"time": 5592, "pitch": 69, "duration": 11, "velocity": 61}, {"time": 5592, "pitch": 72, "duration": 6, "velocity": 49}, {"time": 5604, "pitch": 55, "duration": 44, "velocity": 47}, {"time": 5616, "pitch": 60, "duration": 11, "velocity": 50}, {"time": 5616, "pitch": 64, "duration": 17, "velocity": 58}, {"time": 5616, "pitch": 67, "duration": 17, "velocity": 63}, {"time": 5616, "pitch": 72, "duration": 18, "velocity": 59}, {"time": 5634, "pitch": 60, "duration": 11, "velocity": 41}, {"time": 5640, "pitch": 64, "duration": 5, "velocity": 55}, {"time": 5646, "pitch": 65, "duration": 4, "velocity": 52}, {"time": 5652, "pitch": 67, "duration": 6, "velocity": 53}, {"time": 5664, "pitch": 53, "duration": 31, "velocity": 55}, {"time": 5664, "pitch": 57, "duration": 27, "velocity": 55}, {"time": 5664, "pitch": 60, "duration": 29, "velocity": 57}, {"time": 5664, "pitch": 64, "duration": 30, "velocity": 48}, {"time": 5664, "pitch": 65, "duration": 28, "velocity": 44}, {"time": 5712, "pitch": 43, "duration": 92, "velocity": 55}, {"time": 5712, "pitch": 60, "duration": 11, "velocity": 44}, {"time": 5712, "pitch": 65, "duration": 11, "velocity": 47}, {"time": 5712, "pitch": 67, "duration": 10, "velocity": 48}, {"time": 5712, "pitch": 69, "duration": 11, "velocity": 49}, {"time": 5724, "pitch": 55, "duration": 16, "velocity": 34}, {"time": 5736, "pitch": 60, "duration": 6, "velocity": 44}, {"time": 5736, "pitch": 65, "duration": 9, "velocity": 48}, {"time": 5736, "pitch": 67, "duration": 8, "velocity": 47}, {"time": 5736, "pitch": 69, "duration": 10, "velocity": 44}, {"time": 5751, "pitch": 55, "duration": 53, "velocity": 41}, {"time": 5762, "pitch": 79, "duration": 26, "velocity": 37}, {"time": 5763, "pitch": 84, "duration": 33, "velocity": 42}, {"time": 5765, "pitch": 86, "duration": 34, "velocity": 29}, {"time": 5767, "pitch": 91, "duration": 35, "velocity": 43}, {"time": 5832, "pitch": 60, "duration": 29, "velocity": 47}, {"time": 5833, "pitch": 72, "duration": 4, "velocity": 41}, {"time": 5835, "pitch": 76, "duration": 2, "velocity": 45}, {"time": 5835, "pitch": 67, "duration": 26, "velocity": 47}, {"time": 5836, "pitch": 79, "duration": 10, "velocity": 58}, {"time": 5846, "pitch": 72, "duration": 13, "velocity": 56}, {"time": 5856, "pitch": 74, "duration": 12, "velocity": 64}, {"time": 5866, "pitch": 79, "duration": 12, "velocity": 58}, {"time": 5879, "pitch": 76, "duration": 29, "velocity": 43}, {"time": 5920, "pitch": 72, "duration": 5, "velocity": 22}, {"time": 5922, "pitch": 58, "duration": 75, "velocity": 59}, {"time": 5923, "pitch": 79, "duration": 22, "velocity": 63}, {"time": 5924, "pitch": 67, "duration": 73, "velocity": 43}, {"time": 5934, "pitch": 72, "duration": 16, "velocity": 62}, {"time": 5944, "pitch": 74, "duration": 12, "velocity": 58}, {"time": 5956, "pitch": 77, "duration": 10, "velocity": 50}, {"time": 5966, "pitch": 76, "duration": 24, "velocity": 50}, {"time": 5987, "pitch": 72, "duration": 9, "velocity": 55}, {"time": 6016, "pitch": 67, "duration": 46, "velocity": 37}, {"time": 6018, "pitch": 71, "duration": 43, "velocity": 44}, {"time": 6018, "pitch": 48, "duration": 43, "velocity": 42}, {"time": 6020, "pitch": 76, "duration": 44, "velocity": 43}], "annotations": [{"time": 56, "annotation": {"number": 64, "value": 127}, "group": "control_change"}, {"time": 99, "annotation": {"number": 64, "value": 127}, "group": "control_change"}, {"time": 117, "annotation": {"number": 64, "value": 0}, "group": "control_change"}, {"time": 145, "annotation": {"number": 64, "value": 0}, "group": "control_change"}, {"time": 150, "annotation": {"number": 64, "value": 127}, "group": "control_change"}, {"time": 195, "annotation": {"number": 64, "value": 0}, "group": "control_change"}, {"time": 199, "annotation": {"number": 64, "value": 127}, "group": "control_change"}, {"time": 240, "annotation": {"number": 64, "value": 0}, "group": "control_change"}, {"time": 244, "annotation": {"number": 64, "value": 127}, "group": "control_change"}, {"time": 293, "annotation": {"number": 64, "value": 0}, "group": "control_change"}, {"time": 298, "annotation": {"number": 64, "value": 127}, "group": "control_change"}, {"time": 337, "annotation": {"number": 64, "value": 0}, "group": "control_change"}, {"time": 339, "annotation": {"number": 64, "value": 127}, "group": "control_change"}, {"time": 386, "annotation": {"number": 64, "value": 0}, "group": "control_change"}, {"time": 390, "annotation": {"number": 64, "value": 127}, "group": "control_change"}, {"time": 434, "annotation": {"number": 64, "value": 0}, "group": "control_change"}, {"time": 434, "annotation": {"number": 64, "value": 127}, "group": "control_change"}, {"time": 483, "annotation": {"number": 64, "value": 0}, "group": "control_change"}, {"time": 494, "annotation": {"number": 64, "value": 127}, "group": "control_change"}, {"time": 531, "annotation": {"number": 64, "value": 0}, "group": "control_change"}, {"time": 540, "annotation": {"number": 64, "value": 127}, "group": "control_change"}, {"time": 578, "annotation": {"number": 64, "value": 0}, "group": "control_change"}, {"time": 582, "annotation": {"number": 64, "value": 127}, "group": "control_change"}, {"time": 621, "annotation": {"number": 64, "value": 0}, "group": "control_change"}, {"time": 630, "annotation": {"number": 64, "value": 127}, "group": "control_change"}, {"time": 675, "annotation": {"number": 64, "value": 0}, "group": "control_change"}, {"time": 689, "annotation": {"number": 64, "value": 127}, "group": "control_change"}, {"time": 722, "annotation": {"number": 64, "value": 0}, "group": "control_change"}, {"time": 732, "annotation": {"number": 64, "value": 127}, "group": "control_change"}, {"time": 769, "annotation": {"number": 64, "value": 0}, "group": "control_change"}, {"time": 778, "annotation": {"number": 64, "value": 127}, "group": "control_change"}, {"time": 818, "annotation": {"number": 64, "value": 0}, "group": "control_change"}, {"time": 824, "annotation": {"number": 64, "value": 127}, "group": "control_change"}, {"time": 866, "annotation": {"number": 64, "value": 0}, "group": "control_change"}, {"time": 877, "annotation": {"number": 64, "value": 127}, "group": "control_change"}, {"time": 912, "annotation": {"number": 64, "value": 0}, "group": "control_change"}, {"time": 925, "annotation": {"number": 64, "value": 127}, "group": "control_change"}, {"time": 962, "annotation": {"number": 64, "value": 0}, "group": "control_change"}, {"time": 966, "annotation": {"number": 64, "value": 127}, "group": "control_change"}, {"time": 1010, "annotation": {"number": 64, "value": 0}, "group": "control_change"}, {"time": 1017, "annotation": {"number": 64, "value": 127}, "group": "control_change"}, {"time": 1057, "annotation": {"number": 64, "value": 0}, "group": "control_change"}, {"time": 1068, "annotation": {"number": 64, "value": 127}, "group": "control_change"}, {"time": 1107, "annotation": {"number": 64, "value": 0}, "group": "control_change"}, {"time": 1115, "annotation": {"number": 64, "value": 127}, "group": "control_change"}, {"time": 1153, "annotation": {"number": 64, "value": 0}, "group": "control_change"}, {"time": 1158, "annotation": {"number": 64, "value": 127}, "group": "control_change"}, {"time": 1201, "annotation": {"number": 64, "value": 127}, "group": "control_change"}, {"time": 1201, "annotation": {"number": 64, "value": 0}, "group": "control_change"}, {"time": 1251, "annotation": {"number": 64, "value": 0}, "group": "control_change"}, {"time": 1256, "annotation": {"number": 64, "value": 127}, "group": "control_change"}, {"time": 1298, "annotation": {"number": 64, "value": 0}, "group": "control_change"}, {"time": 1300, "annotation": {"number": 64, "value": 127}, "group": "control_change"}, {"time": 1348, "annotation": {"number": 64, "value": 0}, "group": "control_change"}, {"time": 1353, "annotation": {"number": 64, "value": 127}, "group": "control_change"}, {"time": 1394, "annotation": {"number": 64, "value": 0}, "group": "control_change"}, {"time": 1395, "annotation": {"number": 64, "value": 127}, "group": "control_change"}, {"time": 1418, "annotation": {"number": 64, "value": 0}, "group": "control_change"}, {"time": 1425, "annotation": {"number": 64, "value": 127}, "group": "control_change"}, {"time": 1440, "annotation": {"number": 64, "value": 0}, "group": "control_change"}, {"time": 1447, "annotation": {"number": 64, "value": 127}, "group": "control_change"}, {"time": 1492, "annotation": {"number": 64, "value": 0}, "group": "control_change"}, {"time": 1498, "annotation": {"number": 64, "value": 127}, "group": "control_change"}, {"time": 1509, "annotation": {"number": 64, "value": 0}, "group": "control_change"}, {"time": 1515, "annotation": {"number": 64, "value": 127}, "group": "control_change"}, {"time": 1538, "annotation": {"number": 64, "value": 0}, "group": "control_change"}, {"time": 1543, "annotation": {"number": 64, "value": 127}, "group": "control_change"}, {"time": 1585, "annotation": {"number": 64, "value": 0}, "group": "control_change"}, {"time": 1593, "annotation": {"number": 64, "value": 127}, "group": "control_change"}, {"time": 1633, "annotation": {"number": 64, "value": 0}, "group": "control_change"}, {"time": 1639, "annotation": {"number": 64, "value": 127}, "group": "control_change"}, {"time": 1680, "annotation": {"number": 64, "value": 0}, "group": "control_change"}, {"time": 1683, "annotation": {"number": 64, "value": 127}, "group": "control_change"}, {"time": 1684, "annotation": {"number": 64, "value": 127}, "group": "control_change"}, {"time": 1696, "annotation": {"number": 64, "value": 0}, "group": "control_change"}, {"time": 1729, "annotation": {"number": 64, "value": 0}, "group": "control_change"}, {"time": 1732, "annotation": {"number": 64, "value": 127}, "group": "control_change"}, {"time": 1776, "annotation": {"number": 64, "value": 0}, "group": "control_change"}, {"time": 1780, "annotation": {"number": 64, "value": 127}, "group": "control_change"}, {"time": 1825, "annotation": {"number": 64, "value": 0}, "group": "control_change"}, {"time": 1830, "annotation": {"number": 64, "value": 127}, "group": "control_change"}, {"time": 1874, "annotation": {"number": 64, "value": 0}, "group": "control_change"}, {"time": 1878, "annotation": {"number": 64, "value": 127}, "group": "control_change"}, {"time": 1921, "annotation": {"number": 64, "value": 0}, "group": "control_change"}, {"time": 1926, "annotation": {"number": 64, "value": 127}, "group": "control_change"}, {"time": 1970, "annotation": {"number": 64, "value": 0}, "group": "control_change"}, {"time": 1971, "annotation": {"number": 64, "value": 127}, "group": "control_change"}, {"time": 1974, "annotation": {"number": 64, "value": 127}, "group": "control_change"}, {"time": 2019, "annotation": {"number": 64, "value": 0}, "group": "control_change"}, {"time": 2023, "annotation": {"number": 64, "value": 127}, "group": "control_change"}, {"time": 2065, "annotation": {"number": 64, "value": 0}, "group": "control_change"}, {"time": 2070, "annotation": {"number": 64, "value": 127}, "group": "control_change"}, {"time": 2112, "annotation": {"number": 64, "value": 0}, "group": "control_change"}, {"time": 2117, "annotation": {"number": 64, "value": 127}, "group": "control_change"}, {"time": 2159, "annotation": {"number": 64, "value": 0}, "group": "control_change"}, {"time": 2165, "annotation": {"number": 64, "value": 127}, "group": "control_change"}, {"time": 2210, "annotation": {"number": 64, "value": 0}, "group": "control_change"}, {"time": 2215, "annotation": {"number": 64, "value": 127}, "group": "control_change"}, {"time": 2257, "annotation": {"number": 64, "value": 0}, "group": "control_change"}, {"time": 2263, "annotation": {"number": 64, "value": 127}, "group": "control_change"}, {"time": 2282, "annotation": {"number": 64, "value": 0}, "group": "control_change"}, {"time": 2286, "annotation": {"number": 64, "value": 127}, "group": "control_change"}, {"time": 2306, "annotation": {"number": 64, "value": 0}, "group": "control_change"}, {"time": 2311, "annotation": {"number": 64, "value": 127}, "group": "control_change"}, {"time": 2356, "annotation": {"number": 64, "value": 0}, "group": "control_change"}, {"time": 2360, "annotation": {"number": 64, "value": 127}, "group": "control_change"}, {"time": 2402, "annotation": {"number": 64, "value": 0}, "group": "control_change"}, {"time": 2406, "annotation": {"number": 64, "value": 127}, "group": "control_change"}, {"time": 2449, "annotation": {"number": 64, "value": 0}, "group": "control_change"}, {"time": 2452, "annotation": {"number": 64, "value": 127}, "group": "control_change"}, {"time": 2498, "annotation": {"number": 64, "value": 0}, "group": "control_change"}, {"time": 2502, "annotation": {"number": 64, "value": 127}, "group": "control_change"}, {"time": 2584, "annotation": {"number": 64, "value": 0}, "group": "control_change"}, {"time": 2594, "annotation": {"number": 64, "value": 0}, "group": "control_change"}, {"time": 2600, "annotation": {"number": 64, "value": 127}, "group": "control_change"}, {"time": 2643, "annotation": {"number": 64, "value": 127}, "group": "control_change"}, {"time": 2661, "annotation": {"number": 64, "value": 0}, "group": "control_change"}, {"time": 2689, "annotation": {"number": 64, "value": 0}, "group": "control_change"}, {"time": 2694, "annotation": {"number": 64, "value": 127}, "group": "control_change"}, {"time": 2739, "annotation": {"number": 64, "value": 0}, "group": "control_change"}, {"time": 2743, "annotation": {"number": 64, "value": 127}, "group": "control_change"}, {"time": 2784, "annotation": {"number": 64, "value": 0}, "group": "control_change"}, {"time": 2788, "annotation": {"number": 64, "value": 127}, "group": "control_change"}, {"time": 2837, "annotation": {"number": 64, "value": 0}, "group": "control_change"}, {"time": 2842, "annotation": {"number": 64, "value": 127}, "group": "control_change"}, {"time": 2881, "annotation": {"number": 64, "value": 0}, "group": "control_change"}, {"time": 2883, "annotation": {"number": 64, "value": 127}, "group": "control_change"}, {"time": 2930, "annotation": {"number": 64, "value": 0}, "group": "control_change"}, {"time": 2934, "annotation": {"number": 64, "value": 127}, "group": "control_change"}, {"time": 2978, "annotation": {"number": 64, "value": 0}, "group": "control_change"}, {"time": 2978, "annotation": {"number": 64, "value": 127}, "group": "control_change"}, {"time": 3002, "annotation": {"number": 64, "value": 127}, "group": "control_change"}, {"time": 3027, "annotation": {"number": 64, "value": 0}, "group": "control_change"}, {"time": 3031, "annotation": {"number": 64, "value": 127}, "group": "control_change"}, {"time": 3074, "annotation": {"number": 64, "value": 0}, "group": "control_change"}, {"time": 3078, "annotation": {"number": 64, "value": 127}, "group": "control_change"}, {"time": 3123, "annotation": {"number": 64, "value": 0}, "group": "control_change"}, {"time": 3128, "annotation": {"number": 64, "value": 127}, "group": "control_change"}, {"time": 3169, "annotation": {"number": 64, "value": 0}, "group": "control_change"}, {"time": 3175, "annotation": {"number": 64, "value": 127}, "group": "control_change"}, {"time": 3218, "annotation": {"number": 64, "value": 0}, "group": "control_change"}, {"time": 3224, "annotation": {"number": 64, "value": 127}, "group": "control_change"}, {"time": 3266, "annotation": {"number": 64, "value": 0}, "group": "control_change"}, {"time": 3271, "annotation": {"number": 64, "value": 127}, "group": "control_change"}, {"time": 3312, "annotation": {"number": 64, "value": 0}, "group": "control_change"}, {"time": 3318, "annotation": {"number": 64, "value": 127}, "group": "control_change"}, {"time": 3361, "annotation": {"number": 64, "value": 0}, "group": "control_change"}, {"time": 3366, "annotation": {"number": 64, "value": 127}, "group": "control_change"}, {"time": 3408, "annotation": {"number": 64, "value": 0}, "group": "control_change"}, {"time": 3412, "annotation": {"number": 64, "value": 127}, "group": "control_change"}, {"time": 3459, "annotation": {"number": 64, "value": 0}, "group": "control_change"}, {"time": 3463, "annotation": {"number": 64, "value": 127}, "group": "control_change"}, {"time": 3477, "annotation": {"number": 64, "value": 0}, "group": "control_change"}, {"time": 3481, "annotation": {"number": 64, "value": 127}, "group": "control_change"}, {"time": 3505, "annotation": {"number": 64, "value": 0}, "group": "control_change"}, {"time": 3508, "annotation": {"number": 64, "value": 127}, "group": "control_change"}, {"time": 3554, "annotation": {"number": 64, "value": 0}, "group": "control_change"}, {"time": 3560, "annotation": {"number": 64, "value": 127}, "group": "control_change"}, {"time": 3601, "annotation": {"number": 64, "value": 0}, "group": "control_change"}, {"time": 3605, "annotation": {"number": 64, "value": 127}, "group": "control_change"}, {"time": 3628, "annotation": {"number": 64, "value": 0}, "group": "control_change"}, {"time": 3633, "annotation": {"number": 64, "value": 127}, "group": "control_change"}, {"time": 3650, "annotation": {"number": 64, "value": 0}, "group": "control_change"}, {"time": 3655, "annotation": {"number": 64, "value": 127}, "group": "control_change"}, {"time": 3700, "annotation": {"number": 64, "value": 0}, "group": "control_change"}, {"time": 3704, "annotation": {"number": 64, "value": 127}, "group": "control_change"}, {"time": 3747, "annotation": {"number": 64, "value": 0}, "group": "control_change"}, {"time": 3751, "annotation": {"number": 64, "value": 127}, "group": "control_change"}, {"time": 3795, "annotation": {"number": 64, "value": 0}, "group": "control_change"}, {"time": 3796, "annotation": {"number": 64, "value": 127}, "group": "control_change"}, {"time": 3799, "annotation": {"number": 64, "value": 127}, "group": "control_change"}, {"time": 3841, "annotation": {"number": 64, "value": 0}, "group": "control_change"}, {"time": 3842, "annotation": {"number": 64, "value": 0}, "group": "control_change"}, {"time": 3845, "annotation": {"number": 64, "value": 127}, "group": "control_change"}, {"time": 3848, "annotation": {"number": 64, "value": 127}, "group": "control_change"}, {"time": 3888, "annotation": {"number": 64, "value": 0}, "group": "control_change"}, {"time": 3890, "annotation": {"number": 64, "value": 0}, "group": "control_change"}, {"time": 3892, "annotation": {"number": 64, "value": 127}, "group": "control_change"}, {"time": 3903, "annotation": {"number": 64, "value": 127}, "group": "control_change"}, {"time": 3909, "annotation": {"number": 64, "value": 0}, "group": "control_change"}, {"time": 3914, "annotation": {"number": 64, "value": 0}, "group": "control_change"}, {"time": 3916, "annotation": {"number": 64, "value": 127}, "group": "control_change"}, {"time": 3936, "annotation": {"number": 64, "value": 0}, "group": "control_change"}, {"time": 3938, "annotation": {"number": 64, "value": 71}, "group": "control_change"}, {"time": 3938, "annotation": {"number": 64, "value": 127}, "group": "control_change"}, {"time": 3985, "annotation": {"number": 64, "value": 71}, "group": "control_change"}, {"time": 3985, "annotation": {"number": 64, "value": 0}, "group": "control_change"}, {"time": 3989, "annotation": {"number": 64, "value": 71}, "group": "control_change"}, {"time": 3989, "annotation": {"number": 64, "value": 127}, "group": "control_change"}, {"time": 4033, "annotation": {"number": 64, "value": 71}, "group": "control_change"}, {"time": 4034, "annotation": {"number": 64, "value": 0}, "group": "control_change"}, {"time": 4037, "annotation": {"number": 64, "value": 71}, "group": "control_change"}, {"time": 4038, "annotation": {"number": 64, "value": 127}, "group": "control_change"}, {"time": 4081, "annotation": {"number": 64, "value": 71}, "group": "control_change"}, {"time": 4082, "annotation": {"number": 64, "value": 0}, "group": "control_change"}, {"time": 4086, "annotation": {"number": 64, "value": 71}, "group": "control_change"}, {"time": 4086, "annotation": {"number": 64, "value": 127}, "group": "control_change"}, {"time": 4129, "annotation": {"number": 64, "value": 71}, "group": "control_change"}, {"time": 4129, "annotation": {"number": 64, "value": 0}, "group": "control_change"}, {"time": 4132, "annotation": {"number": 64, "value": 71}, "group": "control_change"}, {"time": 4133, "annotation": {"number": 64, "value": 127}, "group": "control_change"}, {"time": 4176, "annotation": {"number": 64, "value": 71}, "group": "control_change"}, {"time": 4176, "annotation": {"number": 64, "value": 0}, "group": "control_change"}, {"time": 4179, "annotation": {"number": 64, "value": 71}, "group": "control_change"}, {"time": 4180, "annotation": {"number": 64, "value": 127}, "group": "control_change"}, {"time": 4225, "annotation": {"number": 64, "value": 71}, "group": "control_change"}, {"time": 4225, "annotation": {"number": 64, "value": 0}, "group": "control_change"}, {"time": 4228, "annotation": {"number": 64, "value": 71}, "group": "control_change"}, {"time": 4229, "annotation": {"number": 64, "value": 127}, "group": "control_change"}, {"time": 4272, "annotation": {"number": 64, "value": 71}, "group": "control_change"}, {"time": 4273, "annotation": {"number": 64, "value": 0}, "group": "control_change"}, {"time": 4276, "annotation": {"number": 64, "value": 71}, "group": "control_change"}, {"time": 4276, "annotation": {"number": 64, "value": 127}, "group": "control_change"}, {"time": 4320, "annotation": {"number": 64, "value": 0}, "group": "control_change"}, {"time": 4324, "annotation": {"number": 64, "value": 71}, "group": "control_change"}, {"time": 4324, "annotation": {"number": 64, "value": 127}, "group": "control_change"}, {"time": 4328, "annotation": {"number": 64, "value": 71}, "group": "control_change"}, {"time": 4329, "annotation": {"number": 64, "value": 127}, "group": "control_change"}, {"time": 4367, "annotation": {"number": 64, "value": 71}, "group": "control_change"}, {"time": 4367, "annotation": {"number": 64, "value": 0}, "group": "control_change"}, {"time": 4371, "annotation": {"number": 64, "value": 71}, "group": "control_change"}, {"time": 4372, "annotation": {"number": 64, "value": 127}, "group": "control_change"}, {"time": 4415, "annotation": {"number": 64, "value": 71}, "group": "control_change"}, {"time": 4415, "annotation": {"number": 64, "value": 0}, "group": "control_change"}, {"time": 4419, "annotation": {"number": 64, "value": 71}, "group": "control_change"}, {"time": 4420, "annotation": {"number": 64, "value": 127}, "group": "control_change"}, {"time": 4463, "annotation": {"number": 64, "value": 71}, "group": "control_change"}, {"time": 4464, "annotation": {"number": 64, "value": 0}, "group": "control_change"}, {"time": 4467, "annotation": {"number": 64, "value": 71}, "group": "control_change"}, {"time": 4468, "annotation": {"number": 64, "value": 127}, "group": "control_change"}, {"time": 4472, "annotation": {"number": 64, "value": 71}, "group": "control_change"}, {"time": 4475, "annotation": {"number": 64, "value": 127}, "group": "control_change"}, {"time": 4487, "annotation": {"number": 64, "value": 71}, "group": "control_change"}, {"time": 4487, "annotation": {"number": 64, "value": 0}, "group": "control_change"}, {"time": 4491, "annotation": {"number": 64, "value": 71}, "group": "control_change"}, {"time": 4491, "annotation": {"number": 64, "value": 127}, "group": "control_change"}, {"time": 4495, "annotation": {"number": 64, "value": 71}, "group": "control_change"}, {"time": 4500, "annotation": {"number": 64, "value": 127}, "group": "control_change"}, {"time": 4510, "annotation": {"number": 64, "value": 71}, "group": "control_change"}, {"time": 4511, "annotation": {"number": 64, "value": 0}, "group": "control_change"}, {"time": 4514, "annotation": {"number": 64, "value": 71}, "group": "control_change"}, {"time": 4514, "annotation": {"number": 64, "value": 127}, "group": "control_change"}, {"time": 4518, "annotation": {"number": 64, "value": 71}, "group": "control_change"}, {"time": 4526, "annotation": {"number": 64, "value": 127}, "group": "control_change"}, {"time": 4545, "annotation": {"number": 64, "value": 71}, "group": "control_change"}, {"time": 4548, "annotation": {"number": 64, "value": 127}, "group": "control_change"}, {"time": 4559, "annotation": {"number": 64, "value": 71}, "group": "control_change"}, {"time": 4559, "annotation": {"number": 64, "value": 0}, "group": "control_change"}, {"time": 4563, "annotation": {"number": 64, "value": 71}, "group": "control_change"}, {"time": 4563, "annotation": {"number": 64, "value": 127}, "group": "control_change"}, {"time": 4567, "annotation": {"number": 64, "value": 71}, "group": "control_change"}, {"time": 4569, "annotation": {"number": 64, "value": 127}, "group": "control_change"}, {"time": 4607, "annotation": {"number": 64, "value": 71}, "group": "control_change"}, {"time": 4607, "annotation": {"number": 64, "value": 0}, "group": "control_change"}, {"time": 4612, "annotation": {"number": 64, "value": 71}, "group": "control_change"}, {"time": 4612, "annotation": {"number": 64, "value": 127}, "group": "control_change"}, {"time": 4623, "annotation": {"number": 64, "value": 71}, "group": "control_change"}, {"time": 4630, "annotation": {"number": 64, "value": 127}, "group": "control_change"}, {"time": 4656, "annotation": {"number": 64, "value": 71}, "group": "control_change"}, {"time": 4656, "annotation": {"number": 64, "value": 0}, "group": "control_change"}, {"time": 4660, "annotation": {"number": 64, "value": 71}, "group": "control_change"}, {"time": 4661, "annotation": {"number": 64, "value": 127}, "group": "control_change"}, {"time": 4702, "annotation": {"number": 64, "value": 0}, "group": "control_change"}, {"time": 4703, "annotation": {"number": 64, "value": 0}, "group": "control_change"}, {"time": 4706, "annotation": {"number": 64, "value": 127}, "group": "control_change"}, {"time": 4707, "annotation": {"number": 64, "value": 127}, "group": "control_change"}, {"time": 4751, "annotation": {"number": 64, "value": 0}, "group": "control_change"}, {"time": 4752, "annotation": {"number": 64, "value": 0}, "group": "control_change"}, {"time": 4756, "annotation": {"number": 64, "value": 127}, "group": "control_change"}, {"time": 4757, "annotation": {"number": 64, "value": 127}, "group": "control_change"}, {"time": 4800, "annotation": {"number": 64, "value": 0}, "group": "control_change"}, {"time": 4802, "annotation": {"number": 64, "value": 127}, "group": "control_change"}, {"time": 4803, "annotation": {"number": 64, "value": 127}, "group": "control_change"}, {"time": 4847, "annotation": {"number": 64, "value": 0}, "group": "control_change"}, {"time": 4849, "annotation": {"number": 64, "value": 0}, "group": "control_change"}, {"time": 4852, "annotation": {"number": 64, "value": 127}, "group": "control_change"}, {"time": 4853, "annotation": {"number": 64, "value": 127}, "group": "control_change"}, {"time": 4895, "annotation": {"number": 64, "value": 0}, "group": "control_change"}, {"time": 4897, "annotation": {"number": 64, "value": 0}, "group": "control_change"}, {"time": 4901, "annotation": {"number": 64, "value": 127}, "group": "control_change"}, {"time": 4943, "annotation": {"number": 64, "value": 0}, "group": "control_change"}, {"time": 4944, "annotation": {"number": 64, "value": 0}, "group": "control_change"}, {"time": 4949, "annotation": {"number": 64, "value": 127}, "group": "control_change"}, {"time": 4992, "annotation": {"number": 64, "value": 0}, "group": "control_change"}, {"time": 4996, "annotation": {"number": 64, "value": 127}, "group": "control_change"}, {"time": 5040, "annotation": {"number": 64, "value": 0}, "group": "control_change"}, {"time": 5044, "annotation": {"number": 64, "value": 127}, "group": "control_change"}, {"time": 5062, "annotation": {"number": 64, "value": 0}, "group": "control_change"}, {"time": 5067, "annotation": {"number": 64, "value": 127}, "group": "control_change"}, {"time": 5088, "annotation": {"number": 64, "value": 0}, "group": "control_change"}, {"time": 5093, "annotation": {"number": 64, "value": 127}, "group": "control_change"}, {"time": 5134, "annotation": {"number": 64, "value": 0}, "group": "control_change"}, {"time": 5135, "annotation": {"number": 64, "value": 71}, "group": "control_change"}, {"time": 5136, "annotation": {"number": 64, "value": 127}, "group": "control_change"}, {"time": 5182, "annotation": {"number": 64, "value": 0}, "group": "control_change"}, {"time": 5183, "annotation": {"number": 64, "value": 71}, "group": "control_change"}, {"time": 5183, "annotation": {"number": 64, "value": 0}, "group": "control_change"}, {"time": 5184, "annotation": {"number": 64, "value": 71}, "group": "control_change"}, {"time": 5184, "annotation": {"number": 64, "value": 127}, "group": "control_change"}, {"time": 5189, "annotation": {"number": 64, "value": 71}, "group": "control_change"}, {"time": 5191, "annotation": {"number": 64, "value": 127}, "group": "control_change"}, {"time": 5206, "annotation": {"number": 64, "value": 71}, "group": "control_change"}, {"time": 5207, "annotation": {"number": 64, "value": 0}, "group": "control_change"}, {"time": 5210, "annotation": {"number": 64, "value": 71}, "group": "control_change"}, {"time": 5210, "annotation": {"number": 64, "value": 127}, "group": "control_change"}, {"time": 5215, "annotation": {"number": 64, "value": 71}, "group": "control_change"}, {"time": 5216, "annotation": {"number": 64, "value": 0}, "group": "control_change"}, {"time": 5218, "annotation": {"number": 64, "value": 71}, "group": "control_change"}, {"time": 5219, "annotation": {"number": 64, "value": 127}, "group": "control_change"}, {"time": 5230, "annotation": {"number": 64, "value": 71}, "group": "control_change"}, {"time": 5230, "annotation": {"number": 64, "value": 0}, "group": "control_change"}, {"time": 5231, "annotation": {"number": 64, "value": 71}, "group": "control_change"}, {"time": 5231, "annotation": {"number": 64, "value": 0}, "group": "control_change"}, {"time": 5235, "annotation": {"number": 64, "value": 71}, "group": "control_change"}, {"time": 5236, "annotation": {"number": 64, "value": 127}, "group": "control_change"}, {"time": 5249, "annotation": {"number": 64, "value": 71}, "group": "control_change"}, {"time": 5249, "annotation": {"number": 64, "value": 0}, "group": "control_change"}, {"time": 5254, "annotation": {"number": 64, "value": 71}, "group": "control_change"}, {"time": 5256, "annotation": {"number": 64, "value": 127}, "group": "control_change"}, {"time": 5278, "annotation": {"number": 64, "value": 71}, "group": "control_change"}, {"time": 5278, "annotation": {"number": 64, "value": 0}, "group": "control_change"}, {"time": 5280, "annotation": {"number": 64, "value": 71}, "group": "control_change"}, {"time": 5280, "annotation": {"number": 64, "value": 0}, "group": "control_change"}, {"time": 5284, "annotation": {"number": 64, "value": 71}, "group": "control_change"}, {"time": 5284, "annotation": {"number": 64, "value": 127}, "group": "control_change"}, {"time": 5328, "annotation": {"number": 64, "value": 71}, "group": "control_change"}, {"time": 5328, "annotation": {"number": 64, "value": 0}, "group": "control_change"}, {"time": 5332, "annotation": {"number": 64, "value": 71}, "group": "control_change"}, {"time": 5333, "annotation": {"number": 64, "value": 127}, "group": "control_change"}, {"time": 5375, "annotation": {"number": 64, "value": 71}, "group": "control_change"}, {"time": 5376, "annotation": {"number": 64, "value": 0}, "group": "control_change"}, {"time": 5379, "annotation": {"number": 64, "value": 71}, "group": "control_change"}, {"time": 5379, "annotation": {"number": 64, "value": 127}, "group": "control_change"}, {"time": 5422, "annotation": {"number": 64, "value": 71}, "group": "control_change"}, {"time": 5423, "annotation": {"number": 64, "value": 0}, "group": "control_change"}, {"time": 5426, "annotation": {"number": 64, "value": 71}, "group": "control_change"}, {"time": 5426, "annotation": {"number": 64, "value": 127}, "group": "control_change"}, {"time": 5471, "annotation": {"number": 64, "value": 71}, "group": "control_change"}, {"time": 5471, "annotation": {"number": 64, "value": 0}, "group": "control_change"}, {"time": 5475, "annotation": {"number": 64, "value": 71}, "group": "control_change"}, {"time": 5475, "annotation": {"number": 64, "value": 127}, "group": "control_change"}, {"time": 5518, "annotation": {"number": 64, "value": 0}, "group": "control_change"}, {"time": 5520, "annotation": {"number": 64, "value": 0}, "group": "control_change"}, {"time": 5524, "annotation": {"number": 64, "value": 127}, "group": "control_change"}, {"time": 5568, "annotation": {"number": 64, "value": 0}, "group": "control_change"}, {"time": 5572, "annotation": {"number": 64, "value": 127}, "group": "control_change"}, {"time": 5614, "annotation": {"number": 64, "value": 0}, "group": "control_change"}, {"time": 5618, "annotation": {"number": 64, "value": 127}, "group": "control_change"}, {"time": 5665, "annotation": {"number": 64, "value": 0}, "group": "control_change"}, {"time": 5667, "annotation": {"number": 64, "value": 127}, "group": "control_change"}, {"time": 5670, "annotation": {"number": 64, "value": 127}, "group": "control_change"}, {"time": 5712, "annotation": {"number": 64, "value": 0}, "group": "control_change"}, {"time": 5717, "annotation": {"number": 64, "value": 127}, "group": "control_change"}, {"time": 5806, "annotation": {"number": 64, "value": 0}, "group": "control_change"}, {"time": 5835, "annotation": {"number": 64, "value": 71}, "group": "control_change"}, {"time": 5836, "annotation": {"number": 64, "value": 127}, "group": "control_change"}, {"time": 5924, "annotation": {"number": 64, "value": 71}, "group": "control_change"}, {"time": 5925, "annotation": {"number": 64, "value": 0}, "group": "control_change"}, {"time": 5937, "annotation": {"number": 64, "value": 71}, "group": "control_change"}, {"time": 5941, "annotation": {"number": 64, "value": 127}, "group": "control_change"}, {"time": 6019, "annotation": {"number": 64, "value": 0}, "group": "control_change"}, {"time": 6020, "annotation": {"number": 64, "value": 71}, "group": "control_change"}, {"time": 6020, "annotation": {"number": 64, "value": 0}, "group": "control_change"}, {"time": 6026, "annotation": {"number": 64, "value": 127}, "group": "control_change"}, {"time": 6167, "annotation": {"number": 64, "value": 0}, "group": "control_change"}]}]}