{"metadata": {"schema_version": "0.2", "title": "None", "source_filename": "212.mid", "source_format": "midi"}, "resolution": 12, "tempos": [{"time": 0, "qpm": 83.0000650167176}], "key_signatures": [{"time": 0, "root": 0, "mode": "major"}], "time_signatures": [{"time": 0, "numerator": 4, "denominator": 4}, {"time": 0, "numerator": 2, "denominator": 4}], "tracks": [{"program": 4, "is_drum": false, "name": "MELODY", "notes": [{"time": 613, "pitch": 56, "duration": 5, "velocity": 68}, {"time": 619, "pitch": 58, "duration": 7, "velocity": 63}, {"time": 625, "pitch": 65, "duration": 9, "velocity": 72}, {"time": 637, "pitch": 65, "duration": 5, "velocity": 87}, {"time": 643, "pitch": 63, "duration": 7, "velocity": 82}, {"time": 649, "pitch": 65, "duration": 7, "velocity": 94}, {"time": 661, "pitch": 63, "duration": 6, "velocity": 90}, {"time": 667, "pitch": 65, "duration": 5, "velocity": 83}, {"time": 673, "pitch": 68, "duration": 5, "velocity": 99}, {"time": 679, "pitch": 65, "duration": 6, "velocity": 79}, {"time": 685, "pitch": 68, "duration": 5, "velocity": 92}, {"time": 691, "pitch": 70, "duration": 6, "velocity": 90}, {"time": 697, "pitch": 68, "duration": 8, "velocity": 96}, {"time": 721, "pitch": 70, "duration": 8, "velocity": 105}, {"time": 733, "pitch": 70, "duration": 6, "velocity": 101}, {"time": 739, "pitch": 68, "duration": 6, "velocity": 90}, {"time": 745, "pitch": 65, "duration": 5, "velocity": 82}, {"time": 751, "pitch": 63, "duration": 3, "velocity": 85}, {"time": 757, "pitch": 63, "duration": 5, "velocity": 93}, {"time": 763, "pitch": 61, "duration": 7, "velocity": 90}, {"time": 769, "pitch": 63, "duration": 29, "velocity": 101}, {"time": 805, "pitch": 63, "duration": 5, "velocity": 93}, {"time": 811, "pitch": 65, "duration": 6, "velocity": 92}, {"time": 817, "pitch": 68, "duration": 4, "velocity": 94}, {"time": 823, "pitch": 68, "duration": 4, "velocity": 97}, {"time": 829, "pitch": 68, "duration": 6, "velocity": 106}, {"time": 835, "pitch": 70, "duration": 6, "velocity": 97}, {"time": 841, "pitch": 68, "duration": 6, "velocity": 103}, {"time": 853, "pitch": 70, "duration": 5, "velocity": 87}, {"time": 859, "pitch": 68, "duration": 6, "velocity": 89}, {"time": 865, "pitch": 65, "duration": 4, "velocity": 74}, {"time": 871, "pitch": 65, "duration": 3, "velocity": 83}, {"time": 877, "pitch": 65, "duration": 5, "velocity": 91}, {"time": 883, "pitch": 63, "duration": 4, "velocity": 66}, {"time": 886, "pitch": 65, "duration": 2, "velocity": 45}, {"time": 889, "pitch": 61, "duration": 9, "velocity": 61}, {"time": 913, "pitch": 63, "duration": 4, "velocity": 93}, {"time": 919, "pitch": 63, "duration": 4, "velocity": 87}, {"time": 925, "pitch": 63, "duration": 5, "velocity": 86}, {"time": 931, "pitch": 61, "duration": 5, "velocity": 79}, {"time": 937, "pitch": 58, "duration": 8, "velocity": 65}, {"time": 949, "pitch": 58, "duration": 6, "velocity": 73}, {"time": 955, "pitch": 65, "duration": 3, "velocity": 65}, {"time": 961, "pitch": 65, "duration": 2, "velocity": 83}, {"time": 964, "pitch": 63, "duration": 35, "velocity": 49}, {"time": 997, "pitch": 56, "duration": 6, "velocity": 53}, {"time": 1003, "pitch": 58, "duration": 6, "velocity": 66}, {"time": 1009, "pitch": 65, "duration": 4, "velocity": 90}, {"time": 1015, "pitch": 65, "duration": 4, "velocity": 84}, {"time": 1021, "pitch": 65, "duration": 5, "velocity": 95}, {"time": 1027, "pitch": 63, "duration": 5, "velocity": 79}, {"time": 1033, "pitch": 65, "duration": 5, "velocity": 91}, {"time": 1045, "pitch": 63, "duration": 5, "velocity": 95}, {"time": 1051, "pitch": 65, "duration": 5, "velocity": 90}, {"time": 1057, "pitch": 68, "duration": 6, "velocity": 95}, {"time": 1063, "pitch": 65, "duration": 6, "velocity": 90}, {"time": 1069, "pitch": 68, "duration": 6, "velocity": 95}, {"time": 1075, "pitch": 70, "duration": 6, "velocity": 93}, {"time": 1081, "pitch": 68, "duration": 7, "velocity": 98}, {"time": 1105, "pitch": 70, "duration": 4, "velocity": 98}, {"time": 1111, "pitch": 70, "duration": 3, "velocity": 96}, {"time": 1117, "pitch": 70, "duration": 6, "velocity": 93}, {"time": 1123, "pitch": 68, "duration": 5, "velocity": 93}, {"time": 1129, "pitch": 65, "duration": 10, "velocity": 87}, {"time": 1147, "pitch": 61, "duration": 6, "velocity": 87}, {"time": 1153, "pitch": 63, "duration": 27, "velocity": 96}, {"time": 1189, "pitch": 63, "duration": 6, "velocity": 55}, {"time": 1195, "pitch": 65, "duration": 6, "velocity": 87}, {"time": 1201, "pitch": 68, "duration": 4, "velocity": 96}, {"time": 1207, "pitch": 68, "duration": 4, "velocity": 97}, {"time": 1213, "pitch": 68, "duration": 6, "velocity": 93}, {"time": 1219, "pitch": 70, "duration": 6, "velocity": 100}, {"time": 1225, "pitch": 68, "duration": 6, "velocity": 98}, {"time": 1249, "pitch": 65, "duration": 5, "velocity": 98}, {"time": 1255, "pitch": 65, "duration": 4, "velocity": 92}, {"time": 1261, "pitch": 65, "duration": 6, "velocity": 97}, {"time": 1267, "pitch": 63, "duration": 6, "velocity": 95}, {"time": 1273, "pitch": 61, "duration": 12, "velocity": 92}, {"time": 1297, "pitch": 63, "duration": 4, "velocity": 101}, {"time": 1303, "pitch": 63, "duration": 1, "velocity": 92}, {"time": 1306, "pitch": 63, "duration": 1, "velocity": 79}, {"time": 1309, "pitch": 63, "duration": 4, "velocity": 91}, {"time": 1315, "pitch": 70, "duration": 6, "velocity": 90}, {"time": 1321, "pitch": 68, "duration": 5, "velocity": 95}, {"time": 1333, "pitch": 65, "duration": 7, "velocity": 108}, {"time": 1339, "pitch": 63, "duration": 13, "velocity": 97}, {"time": 1351, "pitch": 61, "duration": 24, "velocity": 98}, {"time": 1381, "pitch": 68, "duration": 6, "velocity": 90}, {"time": 1387, "pitch": 70, "duration": 6, "velocity": 93}, {"time": 1393, "pitch": 73, "duration": 4, "velocity": 98}, {"time": 1399, "pitch": 73, "duration": 1, "velocity": 92}, {"time": 1402, "pitch": 73, "duration": 1, "velocity": 86}, {"time": 1405, "pitch": 73, "duration": 5, "velocity": 90}, {"time": 1411, "pitch": 73, "duration": 3, "velocity": 97}, {"time": 1414, "pitch": 75, "duration": 3, "velocity": 97}, {"time": 1417, "pitch": 77, "duration": 6, "velocity": 87}, {"time": 1423, "pitch": 75, "duration": 6, "velocity": 87}, {"time": 1429, "pitch": 73, "duration": 6, "velocity": 87}, {"time": 1435, "pitch": 77, "duration": 6, "velocity": 64}, {"time": 1441, "pitch": 70, "duration": 16, "velocity": 72}, {"time": 1489, "pitch": 63, "duration": 4, "velocity": 90}, {"time": 1495, "pitch": 63, "duration": 1, "velocity": 77}, {"time": 1498, "pitch": 63, "duration": 1, "velocity": 75}, {"time": 1501, "pitch": 63, "duration": 4, "velocity": 80}, {"time": 1507, "pitch": 63, "duration": 2, "velocity": 86}, {"time": 1510, "pitch": 65, "duration": 3, "velocity": 81}, {"time": 1513, "pitch": 63, "duration": 6, "velocity": 87}, {"time": 1519, "pitch": 61, "duration": 4, "velocity": 80}, {"time": 1525, "pitch": 61, "duration": 5, "velocity": 84}, {"time": 1531, "pitch": 58, "duration": 7, "velocity": 65}, {"time": 1537, "pitch": 56, "duration": 26, "velocity": 90}, {"time": 1573, "pitch": 51, "duration": 6, "velocity": 63}, {"time": 1579, "pitch": 53, "duration": 5, "velocity": 63}, {"time": 1585, "pitch": 56, "duration": 4, "velocity": 87}, {"time": 1591, "pitch": 56, "duration": 4, "velocity": 93}, {"time": 1597, "pitch": 56, "duration": 6, "velocity": 97}, {"time": 1603, "pitch": 53, "duration": 6, "velocity": 90}, {"time": 1609, "pitch": 56, "duration": 5, "velocity": 98}, {"time": 1621, "pitch": 73, "duration": 6, "velocity": 106}, {"time": 1627, "pitch": 75, "duration": 5, "velocity": 101}, {"time": 1633, "pitch": 70, "duration": 25, "velocity": 100}, {"time": 1681, "pitch": 75, "duration": 4, "velocity": 101}, {"time": 1687, "pitch": 75, "duration": 1, "velocity": 87}, {"time": 1690, "pitch": 75, "duration": 1, "velocity": 87}, {"time": 1693, "pitch": 75, "duration": 5, "velocity": 90}, {"time": 1699, "pitch": 77, "duration": 6, "velocity": 93}, {"time": 1705, "pitch": 75, "duration": 7, "velocity": 99}, {"time": 1711, "pitch": 73, "duration": 6, "velocity": 94}, {"time": 1717, "pitch": 70, "duration": 6, "velocity": 87}, {"time": 1723, "pitch": 73, "duration": 6, "velocity": 94}, {"time": 1729, "pitch": 75, "duration": 35, "velocity": 97}, {"time": 1777, "pitch": 73, "duration": 4, "velocity": 95}, {"time": 1783, "pitch": 73, "duration": 1, "velocity": 75}, {"time": 1786, "pitch": 73, "duration": 1, "velocity": 76}, {"time": 1789, "pitch": 73, "duration": 4, "velocity": 72}, {"time": 1795, "pitch": 73, "duration": 3, "velocity": 76}, {"time": 1798, "pitch": 75, "duration": 2, "velocity": 49}, {"time": 1801, "pitch": 77, "duration": 7, "velocity": 66}, {"time": 1807, "pitch": 75, "duration": 6, "velocity": 72}, {"time": 1813, "pitch": 73, "duration": 6, "velocity": 72}, {"time": 1819, "pitch": 77, "duration": 6, "velocity": 63}, {"time": 1825, "pitch": 70, "duration": 17, "velocity": 63}, {"time": 1873, "pitch": 75, "duration": 4, "velocity": 101}, {"time": 1879, "pitch": 75, "duration": 1, "velocity": 95}, {"time": 1882, "pitch": 75, "duration": 1, "velocity": 89}, {"time": 1885, "pitch": 75, "duration": 3, "velocity": 92}, {"time": 1891, "pitch": 75, "duration": 2, "velocity": 96}, {"time": 1894, "pitch": 77, "duration": 4, "velocity": 91}, {"time": 1897, "pitch": 75, "duration": 6, "velocity": 93}, {"time": 1903, "pitch": 73, "duration": 4, "velocity": 91}, {"time": 1909, "pitch": 73, "duration": 5, "velocity": 90}, {"time": 1915, "pitch": 70, "duration": 6, "velocity": 92}, {"time": 1921, "pitch": 68, "duration": 27, "velocity": 99}, {"time": 1957, "pitch": 63, "duration": 6, "velocity": 87}, {"time": 1963, "pitch": 65, "duration": 6, "velocity": 73}, {"time": 1969, "pitch": 68, "duration": 5, "velocity": 94}, {"time": 1975, "pitch": 68, "duration": 4, "velocity": 66}, {"time": 1981, "pitch": 68, "duration": 6, "velocity": 90}, {"time": 1987, "pitch": 65, "duration": 6, "velocity": 84}, {"time": 1993, "pitch": 68, "duration": 7, "velocity": 99}, {"time": 2005, "pitch": 73, "duration": 6, "velocity": 101}, {"time": 2011, "pitch": 75, "duration": 5, "velocity": 101}, {"time": 2017, "pitch": 70, "duration": 29, "velocity": 103}, {"time": 2065, "pitch": 75, "duration": 7, "velocity": 103}, {"time": 2074, "pitch": 75, "duration": 1, "velocity": 95}, {"time": 2077, "pitch": 75, "duration": 3, "velocity": 93}, {"time": 2083, "pitch": 75, "duration": 2, "velocity": 90}, {"time": 2086, "pitch": 77, "duration": 4, "velocity": 87}, {"time": 2089, "pitch": 75, "duration": 6, "velocity": 91}, {"time": 2095, "pitch": 73, "duration": 5, "velocity": 91}, {"time": 2101, "pitch": 70, "duration": 6, "velocity": 91}, {"time": 2107, "pitch": 73, "duration": 9, "velocity": 93}, {"time": 2119, "pitch": 73, "duration": 19, "velocity": 97}, {"time": 2533, "pitch": 56, "duration": 5, "velocity": 68}, {"time": 2539, "pitch": 58, "duration": 7, "velocity": 63}, {"time": 2545, "pitch": 65, "duration": 5, "velocity": 72}, {"time": 2551, "pitch": 65, "duration": 4, "velocity": 72}, {"time": 2557, "pitch": 65, "duration": 5, "velocity": 87}, {"time": 2563, "pitch": 63, "duration": 7, "velocity": 82}, {"time": 2569, "pitch": 65, "duration": 7, "velocity": 94}, {"time": 2581, "pitch": 63, "duration": 6, "velocity": 90}, {"time": 2587, "pitch": 65, "duration": 5, "velocity": 83}, {"time": 2593, "pitch": 68, "duration": 5, "velocity": 99}, {"time": 2599, "pitch": 65, "duration": 6, "velocity": 79}, {"time": 2605, "pitch": 68, "duration": 5, "velocity": 92}, {"time": 2611, "pitch": 70, "duration": 6, "velocity": 90}, {"time": 2617, "pitch": 68, "duration": 8, "velocity": 96}, {"time": 2641, "pitch": 70, "duration": 5, "velocity": 105}, {"time": 2647, "pitch": 70, "duration": 5, "velocity": 105}, {"time": 2653, "pitch": 70, "duration": 6, "velocity": 101}, {"time": 2659, "pitch": 68, "duration": 6, "velocity": 90}, {"time": 2665, "pitch": 65, "duration": 5, "velocity": 82}, {"time": 2683, "pitch": 61, "duration": 5, "velocity": 90}, {"time": 2689, "pitch": 63, "duration": 28, "velocity": 101}, {"time": 2725, "pitch": 63, "duration": 5, "velocity": 93}, {"time": 2731, "pitch": 65, "duration": 6, "velocity": 92}, {"time": 2737, "pitch": 68, "duration": 4, "velocity": 94}, {"time": 2743, "pitch": 68, "duration": 4, "velocity": 97}, {"time": 2749, "pitch": 68, "duration": 6, "velocity": 106}, {"time": 2755, "pitch": 70, "duration": 6, "velocity": 97}, {"time": 2761, "pitch": 68, "duration": 6, "velocity": 103}, {"time": 2785, "pitch": 65, "duration": 4, "velocity": 74}, {"time": 2791, "pitch": 65, "duration": 3, "velocity": 83}, {"time": 2797, "pitch": 65, "duration": 5, "velocity": 91}, {"time": 2803, "pitch": 63, "duration": 7, "velocity": 66}, {"time": 2809, "pitch": 61, "duration": 9, "velocity": 61}, {"time": 2833, "pitch": 63, "duration": 4, "velocity": 101}, {"time": 2839, "pitch": 63, "duration": 1, "velocity": 92}, {"time": 2842, "pitch": 63, "duration": 1, "velocity": 79}, {"time": 2845, "pitch": 63, "duration": 4, "velocity": 91}, {"time": 2851, "pitch": 70, "duration": 6, "velocity": 90}, {"time": 2857, "pitch": 68, "duration": 5, "velocity": 95}, {"time": 2869, "pitch": 65, "duration": 7, "velocity": 108}, {"time": 2875, "pitch": 63, "duration": 12, "velocity": 97}, {"time": 2887, "pitch": 61, "duration": 24, "velocity": 98}, {"time": 2917, "pitch": 68, "duration": 6, "velocity": 90}, {"time": 2923, "pitch": 70, "duration": 6, "velocity": 93}, {"time": 2929, "pitch": 73, "duration": 3, "velocity": 98}, {"time": 2935, "pitch": 73, "duration": 1, "velocity": 92}, {"time": 2938, "pitch": 73, "duration": 1, "velocity": 86}, {"time": 2941, "pitch": 73, "duration": 3, "velocity": 90}, {"time": 2947, "pitch": 73, "duration": 3, "velocity": 90}, {"time": 2950, "pitch": 75, "duration": 2, "velocity": 97}, {"time": 2953, "pitch": 77, "duration": 5, "velocity": 87}, {"time": 2959, "pitch": 75, "duration": 6, "velocity": 87}, {"time": 2965, "pitch": 73, "duration": 6, "velocity": 87}, {"time": 2971, "pitch": 77, "duration": 6, "velocity": 64}, {"time": 2977, "pitch": 70, "duration": 16, "velocity": 72}, {"time": 3025, "pitch": 75, "duration": 3, "velocity": 90}, {"time": 3031, "pitch": 75, "duration": 1, "velocity": 77}, {"time": 3034, "pitch": 75, "duration": 1, "velocity": 75}, {"time": 3037, "pitch": 75, "duration": 3, "velocity": 80}, {"time": 3043, "pitch": 75, "duration": 2, "velocity": 86}, {"time": 3046, "pitch": 77, "duration": 2, "velocity": 81}, {"time": 3049, "pitch": 75, "duration": 5, "velocity": 87}, {"time": 3055, "pitch": 73, "duration": 3, "velocity": 80}, {"time": 3061, "pitch": 73, "duration": 4, "velocity": 84}, {"time": 3067, "pitch": 70, "duration": 6, "velocity": 65}, {"time": 3073, "pitch": 68, "duration": 26, "velocity": 90}, {"time": 3109, "pitch": 63, "duration": 6, "velocity": 63}, {"time": 3115, "pitch": 65, "duration": 5, "velocity": 63}, {"time": 3121, "pitch": 68, "duration": 4, "velocity": 87}, {"time": 3127, "pitch": 68, "duration": 4, "velocity": 93}, {"time": 3133, "pitch": 68, "duration": 6, "velocity": 97}, {"time": 3139, "pitch": 65, "duration": 6, "velocity": 90}, {"time": 3145, "pitch": 68, "duration": 5, "velocity": 98}, {"time": 3157, "pitch": 73, "duration": 6, "velocity": 106}, {"time": 3163, "pitch": 75, "duration": 5, "velocity": 101}, {"time": 3169, "pitch": 70, "duration": 25, "velocity": 100}, {"time": 3217, "pitch": 75, "duration": 7, "velocity": 101}, {"time": 3226, "pitch": 75, "duration": 1, "velocity": 87}, {"time": 3229, "pitch": 75, "duration": 5, "velocity": 90}, {"time": 3235, "pitch": 77, "duration": 6, "velocity": 93}, {"time": 3241, "pitch": 75, "duration": 7, "velocity": 99}, {"time": 3247, "pitch": 73, "duration": 6, "velocity": 94}, {"time": 3253, "pitch": 70, "duration": 6, "velocity": 87}, {"time": 3259, "pitch": 73, "duration": 6, "velocity": 94}, {"time": 3265, "pitch": 75, "duration": 35, "velocity": 97}, {"time": 3313, "pitch": 73, "duration": 4, "velocity": 95}, {"time": 3319, "pitch": 73, "duration": 1, "velocity": 75}, {"time": 3322, "pitch": 73, "duration": 1, "velocity": 76}, {"time": 3325, "pitch": 73, "duration": 4, "velocity": 72}, {"time": 3331, "pitch": 73, "duration": 3, "velocity": 76}, {"time": 3334, "pitch": 75, "duration": 2, "velocity": 49}, {"time": 3337, "pitch": 77, "duration": 7, "velocity": 66}, {"time": 3343, "pitch": 75, "duration": 6, "velocity": 72}, {"time": 3349, "pitch": 73, "duration": 6, "velocity": 72}, {"time": 3355, "pitch": 77, "duration": 6, "velocity": 63}, {"time": 3361, "pitch": 70, "duration": 17, "velocity": 63}, {"time": 3409, "pitch": 75, "duration": 4, "velocity": 101}, {"time": 3415, "pitch": 75, "duration": 1, "velocity": 95}, {"time": 3418, "pitch": 75, "duration": 1, "velocity": 89}, {"time": 3421, "pitch": 75, "duration": 3, "velocity": 92}, {"time": 3427, "pitch": 75, "duration": 2, "velocity": 96}, {"time": 3430, "pitch": 77, "duration": 4, "velocity": 91}, {"time": 3433, "pitch": 75, "duration": 6, "velocity": 93}, {"time": 3439, "pitch": 73, "duration": 4, "velocity": 91}, {"time": 3445, "pitch": 73, "duration": 5, "velocity": 90}, {"time": 3451, "pitch": 70, "duration": 6, "velocity": 92}, {"time": 3457, "pitch": 68, "duration": 27, "velocity": 99}, {"time": 3493, "pitch": 63, "duration": 6, "velocity": 87}, {"time": 3499, "pitch": 65, "duration": 6, "velocity": 73}, {"time": 3505, "pitch": 68, "duration": 5, "velocity": 94}, {"time": 3511, "pitch": 68, "duration": 4, "velocity": 66}, {"time": 3517, "pitch": 68, "duration": 6, "velocity": 90}, {"time": 3523, "pitch": 65, "duration": 6, "velocity": 84}, {"time": 3529, "pitch": 68, "duration": 7, "velocity": 99}, {"time": 3541, "pitch": 73, "duration": 6, "velocity": 101}, {"time": 3547, "pitch": 75, "duration": 5, "velocity": 101}, {"time": 3553, "pitch": 70, "duration": 29, "velocity": 103}, {"time": 3601, "pitch": 75, "duration": 7, "velocity": 103}, {"time": 3610, "pitch": 75, "duration": 1, "velocity": 95}, {"time": 3613, "pitch": 75, "duration": 3, "velocity": 93}, {"time": 3619, "pitch": 75, "duration": 2, "velocity": 90}, {"time": 3622, "pitch": 77, "duration": 4, "velocity": 87}, {"time": 3625, "pitch": 75, "duration": 6, "velocity": 91}, {"time": 3631, "pitch": 73, "duration": 5, "velocity": 91}, {"time": 3637, "pitch": 70, "duration": 6, "velocity": 91}, {"time": 3643, "pitch": 73, "duration": 9, "velocity": 93}, {"time": 3655, "pitch": 73, "duration": 19, "velocity": 97}, {"time": 3697, "pitch": 73, "duration": 3, "velocity": 98}, {"time": 3703, "pitch": 73, "duration": 1, "velocity": 92}, {"time": 3706, "pitch": 73, "duration": 1, "velocity": 86}, {"time": 3709, "pitch": 73, "duration": 3, "velocity": 90}, {"time": 3715, "pitch": 73, "duration": 3, "velocity": 90}, {"time": 3718, "pitch": 75, "duration": 2, "velocity": 97}, {"time": 3721, "pitch": 77, "duration": 5, "velocity": 87}, {"time": 3727, "pitch": 75, "duration": 6, "velocity": 87}, {"time": 3733, "pitch": 73, "duration": 6, "velocity": 87}, {"time": 3739, "pitch": 77, "duration": 6, "velocity": 64}, {"time": 3745, "pitch": 70, "duration": 16, "velocity": 72}, {"time": 3793, "pitch": 75, "duration": 3, "velocity": 90}, {"time": 3799, "pitch": 75, "duration": 1, "velocity": 77}, {"time": 3802, "pitch": 75, "duration": 1, "velocity": 75}, {"time": 3805, "pitch": 75, "duration": 3, "velocity": 80}, {"time": 3811, "pitch": 75, "duration": 2, "velocity": 86}, {"time": 3814, "pitch": 77, "duration": 2, "velocity": 81}, {"time": 3817, "pitch": 75, "duration": 5, "velocity": 87}, {"time": 3823, "pitch": 73, "duration": 3, "velocity": 80}, {"time": 3829, "pitch": 73, "duration": 4, "velocity": 84}, {"time": 3835, "pitch": 70, "duration": 6, "velocity": 65}, {"time": 3841, "pitch": 68, "duration": 26, "velocity": 90}, {"time": 3877, "pitch": 63, "duration": 6, "velocity": 63}, {"time": 3883, "pitch": 65, "duration": 5, "velocity": 63}, {"time": 3889, "pitch": 68, "duration": 4, "velocity": 87}, {"time": 3895, "pitch": 68, "duration": 4, "velocity": 93}, {"time": 3901, "pitch": 68, "duration": 6, "velocity": 97}, {"time": 3907, "pitch": 65, "duration": 6, "velocity": 90}, {"time": 3913, "pitch": 68, "duration": 5, "velocity": 98}, {"time": 3925, "pitch": 73, "duration": 6, "velocity": 106}, {"time": 3931, "pitch": 75, "duration": 5, "velocity": 101}, {"time": 3937, "pitch": 70, "duration": 25, "velocity": 100}, {"time": 3985, "pitch": 75, "duration": 6, "velocity": 101}, {"time": 3994, "pitch": 75, "duration": 1, "velocity": 87}, {"time": 3997, "pitch": 75, "duration": 5, "velocity": 90}, {"time": 4003, "pitch": 77, "duration": 6, "velocity": 93}, {"time": 4009, "pitch": 75, "duration": 7, "velocity": 99}, {"time": 4015, "pitch": 73, "duration": 6, "velocity": 94}, {"time": 4021, "pitch": 70, "duration": 6, "velocity": 87}, {"time": 4027, "pitch": 73, "duration": 6, "velocity": 94}, {"time": 4033, "pitch": 75, "duration": 35, "velocity": 97}, {"time": 4081, "pitch": 73, "duration": 4, "velocity": 95}, {"time": 4087, "pitch": 73, "duration": 1, "velocity": 75}, {"time": 4090, "pitch": 73, "duration": 1, "velocity": 76}, {"time": 4093, "pitch": 73, "duration": 4, "velocity": 72}, {"time": 4099, "pitch": 73, "duration": 3, "velocity": 76}, {"time": 4102, "pitch": 75, "duration": 2, "velocity": 49}, {"time": 4105, "pitch": 77, "duration": 8, "velocity": 66}, {"time": 4111, "pitch": 75, "duration": 6, "velocity": 72}, {"time": 4117, "pitch": 73, "duration": 6, "velocity": 72}, {"time": 4123, "pitch": 77, "duration": 6, "velocity": 63}, {"time": 4129, "pitch": 70, "duration": 18, "velocity": 63}, {"time": 4177, "pitch": 75, "duration": 4, "velocity": 101}, {"time": 4183, "pitch": 75, "duration": 1, "velocity": 95}, {"time": 4186, "pitch": 75, "duration": 1, "velocity": 89}, {"time": 4189, "pitch": 75, "duration": 3, "velocity": 92}, {"time": 4195, "pitch": 75, "duration": 2, "velocity": 96}, {"time": 4198, "pitch": 77, "duration": 4, "velocity": 91}, {"time": 4201, "pitch": 75, "duration": 6, "velocity": 93}, {"time": 4207, "pitch": 73, "duration": 4, "velocity": 91}, {"time": 4213, "pitch": 73, "duration": 5, "velocity": 90}, {"time": 4219, "pitch": 70, "duration": 5, "velocity": 92}, {"time": 4225, "pitch": 68, "duration": 26, "velocity": 99}, {"time": 4261, "pitch": 63, "duration": 6, "velocity": 87}, {"time": 4267, "pitch": 65, "duration": 6, "velocity": 73}, {"time": 4273, "pitch": 68, "duration": 5, "velocity": 94}, {"time": 4279, "pitch": 68, "duration": 4, "velocity": 66}, {"time": 4285, "pitch": 68, "duration": 6, "velocity": 90}, {"time": 4291, "pitch": 65, "duration": 6, "velocity": 84}, {"time": 4297, "pitch": 68, "duration": 7, "velocity": 99}, {"time": 4309, "pitch": 73, "duration": 4, "velocity": 101}, {"time": 4315, "pitch": 75, "duration": 6, "velocity": 101}, {"time": 4321, "pitch": 70, "duration": 29, "velocity": 103}, {"time": 4369, "pitch": 75, "duration": 7, "velocity": 103}, {"time": 4378, "pitch": 75, "duration": 1, "velocity": 95}, {"time": 4381, "pitch": 75, "duration": 3, "velocity": 93}, {"time": 4387, "pitch": 75, "duration": 2, "velocity": 90}, {"time": 4390, "pitch": 77, "duration": 4, "velocity": 87}, {"time": 4393, "pitch": 75, "duration": 6, "velocity": 91}, {"time": 4399, "pitch": 73, "duration": 5, "velocity": 91}, {"time": 4405, "pitch": 70, "duration": 6, "velocity": 91}, {"time": 4411, "pitch": 73, "duration": 9, "velocity": 93}, {"time": 4423, "pitch": 73, "duration": 19, "velocity": 97}, {"time": 4465, "pitch": 75, "duration": 7, "velocity": 100}, {"time": 4474, "pitch": 75, "duration": 2, "velocity": 95}, {"time": 4477, "pitch": 75, "duration": 7, "velocity": 95}, {"time": 4483, "pitch": 77, "duration": 6, "velocity": 96}, {"time": 4489, "pitch": 75, "duration": 6, "velocity": 103}, {"time": 4495, "pitch": 73, "duration": 8, "velocity": 98}, {"time": 4504, "pitch": 70, "duration": 8, "velocity": 91}, {"time": 4513, "pitch": 73, "duration": 36, "velocity": 90}, {"time": 4561, "pitch": 73, "duration": 65, "velocity": 108}], "annotations": [{"time": 608, "annotation": {"number": 1, "value": 11}, "group": "control_change"}, {"time": 608, "annotation": {"number": 1, "value": 12}, "group": "control_change"}, {"time": 610, "annotation": {"number": 1, "value": 11}, "group": "control_change"}, {"time": 622, "annotation": {"number": 1, "value": 12}, "group": "control_change"}, {"time": 623, "annotation": {"number": 1, "value": 12}, "group": "control_change"}, {"time": 636, "annotation": {"number": 1, "value": 11}, "group": "control_change"}, {"time": 636, "annotation": {"number": 1, "value": 12}, "group": "control_change"}, {"time": 644, "annotation": {"number": 1, "value": 11}, "group": "control_change"}, {"time": 645, "annotation": {"number": 1, "value": 12}, "group": "control_change"}, {"time": 697, "annotation": {"number": 1, "value": 11}, "group": "control_change"}, {"time": 698, "annotation": {"number": 1, "value": 12}, "group": "control_change"}, {"time": 698, "annotation": {"number": 1, "value": 11}, "group": "control_change"}, {"time": 703, "annotation": {"number": 1, "value": 12}, "group": "control_change"}, {"time": 703, "annotation": {"number": 1, "value": 11}, "group": "control_change"}, {"time": 706, "annotation": {"number": 1, "value": 12}, "group": "control_change"}, {"time": 716, "annotation": {"number": 1, "value": 11}, "group": "control_change"}, {"time": 716, "annotation": {"number": 1, "value": 12}, "group": "control_change"}, {"time": 717, "annotation": {"number": 1, "value": 11}, "group": "control_change"}, {"time": 717, "annotation": {"number": 1, "value": 12}, "group": "control_change"}, {"time": 718, "annotation": {"number": 1, "value": 12}, "group": "control_change"}, {"time": 718, "annotation": {"number": 1, "value": 11}, "group": "control_change"}, {"time": 719, "annotation": {"number": 1, "value": 11}, "group": "control_change"}, {"time": 719, "annotation": {"number": 1, "value": 12}, "group": "control_change"}, {"time": 720, "annotation": {"number": 1, "value": 12}, "group": "control_change"}, {"time": 720, "annotation": {"number": 1, "value": 11}, "group": "control_change"}, {"time": 725, "annotation": {"number": 1, "value": 11}, "group": "control_change"}, {"time": 725, "annotation": {"number": 1, "value": 12}, "group": "control_change"}, {"time": 728, "annotation": {"number": 1, "value": 11}, "group": "control_change"}, {"time": 728, "annotation": {"number": 1, "value": 12}, "group": "control_change"}, {"time": 733, "annotation": {"number": 1, "value": 11}, "group": "control_change"}, {"time": 764, "annotation": {"number": 1, "value": 12}, "group": "control_change"}, {"time": 768, "annotation": {"number": 1, "value": 11}, "group": "control_change"}, {"time": 823, "annotation": {"number": 1, "value": 12}, "group": "control_change"}, {"time": 823, "annotation": {"number": 1, "value": 11}, "group": "control_change"}, {"time": 824, "annotation": {"number": 1, "value": 12}, "group": "control_change"}, {"time": 824, "annotation": {"number": 1, "value": 11}, "group": "control_change"}, {"time": 826, "annotation": {"number": 1, "value": 12}, "group": "control_change"}, {"time": 826, "annotation": {"number": 1, "value": 11}, "group": "control_change"}, {"time": 832, "annotation": {"number": 1, "value": 12}, "group": "control_change"}, {"time": 832, "annotation": {"number": 1, "value": 11}, "group": "control_change"}, {"time": 834, "annotation": {"number": 1, "value": 12}, "group": "control_change"}, {"time": 835, "annotation": {"number": 1, "value": 11}, "group": "control_change"}, {"time": 835, "annotation": {"number": 1, "value": 12}, "group": "control_change"}, {"time": 837, "annotation": {"number": 1, "value": 11}, "group": "control_change"}, {"time": 838, "annotation": {"number": 1, "value": 12}, "group": "control_change"}, {"time": 840, "annotation": {"number": 1, "value": 11}, "group": "control_change"}, {"time": 843, "annotation": {"number": 1, "value": 12}, "group": "control_change"}, {"time": 844, "annotation": {"number": 1, "value": 11}, "group": "control_change"}, {"time": 913, "annotation": {"number": 1, "value": 11}, "group": "control_change"}, {"time": 1026, "annotation": {"number": 1, "value": 12}, "group": "control_change"}, {"time": 1042, "annotation": {"number": 1, "value": 11}, "group": "control_change"}, {"time": 1042, "annotation": {"number": 1, "value": 12}, "group": "control_change"}, {"time": 1052, "annotation": {"number": 1, "value": 11}, "group": "control_change"}, {"time": 1052, "annotation": {"number": 1, "value": 12}, "group": "control_change"}, {"time": 1055, "annotation": {"number": 1, "value": 11}, "group": "control_change"}, {"time": 1055, "annotation": {"number": 1, "value": 12}, "group": "control_change"}, {"time": 1057, "annotation": {"number": 1, "value": 11}, "group": "control_change"}, {"time": 1057, "annotation": {"number": 1, "value": 12}, "group": "control_change"}, {"time": 1058, "annotation": {"number": 1, "value": 11}, "group": "control_change"}, {"time": 1058, "annotation": {"number": 1, "value": 12}, "group": "control_change"}, {"time": 1059, "annotation": {"number": 1, "value": 11}, "group": "control_change"}, {"time": 1059, "annotation": {"number": 1, "value": 12}, "group": "control_change"}, {"time": 1060, "annotation": {"number": 1, "value": 11}, "group": "control_change"}, {"time": 1060, "annotation": {"number": 1, "value": 12}, "group": "control_change"}, {"time": 1061, "annotation": {"number": 1, "value": 11}, "group": "control_change"}, {"time": 1061, "annotation": {"number": 1, "value": 12}, "group": "control_change"}, {"time": 1062, "annotation": {"number": 1, "value": 11}, "group": "control_change"}, {"time": 1062, "annotation": {"number": 1, "value": 12}, "group": "control_change"}, {"time": 1063, "annotation": {"number": 1, "value": 11}, "group": "control_change"}, {"time": 1064, "annotation": {"number": 1, "value": 12}, "group": "control_change"}, {"time": 1064, "annotation": {"number": 1, "value": 11}, "group": "control_change"}, {"time": 1066, "annotation": {"number": 1, "value": 12}, "group": "control_change"}, {"time": 1066, "annotation": {"number": 1, "value": 11}, "group": "control_change"}, {"time": 1086, "annotation": {"number": 1, "value": 12}, "group": "control_change"}, {"time": 1086, "annotation": {"number": 1, "value": 11}, "group": "control_change"}, {"time": 1685, "annotation": {"number": 1, "value": 12}, "group": "control_change"}, {"time": 1689, "annotation": {"number": 1, "value": 11}, "group": "control_change"}, {"time": 1690, "annotation": {"number": 1, "value": 12}, "group": "control_change"}, {"time": 1690, "annotation": {"number": 1, "value": 11}, "group": "control_change"}, {"time": 1699, "annotation": {"number": 1, "value": 12}, "group": "control_change"}, {"time": 1704, "annotation": {"number": 1, "value": 11}, "group": "control_change"}, {"time": 1708, "annotation": {"number": 1, "value": 12}, "group": "control_change"}, {"time": 1708, "annotation": {"number": 1, "value": 11}, "group": "control_change"}, {"time": 1891, "annotation": {"number": 1, "value": 11}, "group": "control_change"}, {"time": 1891, "annotation": {"number": 1, "value": 12}, "group": "control_change"}, {"time": 1892, "annotation": {"number": 1, "value": 11}, "group": "control_change"}, {"time": 1893, "annotation": {"number": 1, "value": 12}, "group": "control_change"}, {"time": 1924, "annotation": {"number": 1, "value": 11}, "group": "control_change"}, {"time": 1924, "annotation": {"number": 1, "value": 12}, "group": "control_change"}, {"time": 1934, "annotation": {"number": 1, "value": 11}, "group": "control_change"}, {"time": 1935, "annotation": {"number": 1, "value": 12}, "group": "control_change"}, {"time": 1946, "annotation": {"number": 1, "value": 11}, "group": "control_change"}, {"time": 1947, "annotation": {"number": 1, "value": 12}, "group": "control_change"}, {"time": 1998, "annotation": {"number": 1, "value": 11}, "group": "control_change"}, {"time": 2000, "annotation": {"number": 1, "value": 12}, "group": "control_change"}, {"time": 2126, "annotation": {"number": 1, "value": 11}, "group": "control_change"}, {"time": 2127, "annotation": {"number": 1, "value": 12}, "group": "control_change"}, {"time": 2130, "annotation": {"number": 1, "value": 11}, "group": "control_change"}, {"time": 2131, "annotation": {"number": 1, "value": 12}, "group": "control_change"}, {"time": 2543, "annotation": {"number": 1, "value": 12}, "group": "control_change"}, {"time": 2556, "annotation": {"number": 1, "value": 11}, "group": "control_change"}, {"time": 2556, "annotation": {"number": 1, "value": 12}, "group": "control_change"}, {"time": 2564, "annotation": {"number": 1, "value": 11}, "group": "control_change"}, {"time": 2566, "annotation": {"number": 1, "value": 12}, "group": "control_change"}, {"time": 2617, "annotation": {"number": 1, "value": 11}, "group": "control_change"}, {"time": 2618, "annotation": {"number": 1, "value": 12}, "group": "control_change"}, {"time": 2618, "annotation": {"number": 1, "value": 11}, "group": "control_change"}, {"time": 2622, "annotation": {"number": 1, "value": 12}, "group": "control_change"}, {"time": 2622, "annotation": {"number": 1, "value": 11}, "group": "control_change"}, {"time": 2625, "annotation": {"number": 1, "value": 12}, "group": "control_change"}, {"time": 2635, "annotation": {"number": 1, "value": 11}, "group": "control_change"}, {"time": 2635, "annotation": {"number": 1, "value": 12}, "group": "control_change"}, {"time": 2636, "annotation": {"number": 1, "value": 11}, "group": "control_change"}, {"time": 2636, "annotation": {"number": 1, "value": 12}, "group": "control_change"}, {"time": 2637, "annotation": {"number": 1, "value": 12}, "group": "control_change"}, {"time": 2637, "annotation": {"number": 1, "value": 11}, "group": "control_change"}, {"time": 2638, "annotation": {"number": 1, "value": 12}, "group": "control_change"}, {"time": 2638, "annotation": {"number": 1, "value": 11}, "group": "control_change"}, {"time": 2639, "annotation": {"number": 1, "value": 11}, "group": "control_change"}, {"time": 2639, "annotation": {"number": 1, "value": 12}, "group": "control_change"}, {"time": 2644, "annotation": {"number": 1, "value": 11}, "group": "control_change"}, {"time": 2644, "annotation": {"number": 1, "value": 12}, "group": "control_change"}, {"time": 2647, "annotation": {"number": 1, "value": 11}, "group": "control_change"}, {"time": 2647, "annotation": {"number": 1, "value": 12}, "group": "control_change"}, {"time": 2653, "annotation": {"number": 1, "value": 11}, "group": "control_change"}, {"time": 2684, "annotation": {"number": 1, "value": 12}, "group": "control_change"}, {"time": 2688, "annotation": {"number": 1, "value": 11}, "group": "control_change"}, {"time": 2742, "annotation": {"number": 1, "value": 12}, "group": "control_change"}, {"time": 2743, "annotation": {"number": 1, "value": 11}, "group": "control_change"}, {"time": 2743, "annotation": {"number": 1, "value": 12}, "group": "control_change"}, {"time": 2745, "annotation": {"number": 1, "value": 12}, "group": "control_change"}, {"time": 2745, "annotation": {"number": 1, "value": 11}, "group": "control_change"}, {"time": 2752, "annotation": {"number": 1, "value": 12}, "group": "control_change"}, {"time": 2752, "annotation": {"number": 1, "value": 11}, "group": "control_change"}, {"time": 2753, "annotation": {"number": 1, "value": 12}, "group": "control_change"}, {"time": 2755, "annotation": {"number": 1, "value": 11}, "group": "control_change"}, {"time": 2755, "annotation": {"number": 1, "value": 12}, "group": "control_change"}, {"time": 2756, "annotation": {"number": 1, "value": 11}, "group": "control_change"}, {"time": 2758, "annotation": {"number": 1, "value": 12}, "group": "control_change"}, {"time": 2760, "annotation": {"number": 1, "value": 11}, "group": "control_change"}, {"time": 2763, "annotation": {"number": 1, "value": 12}, "group": "control_change"}, {"time": 2763, "annotation": {"number": 1, "value": 11}, "group": "control_change"}, {"time": 3221, "annotation": {"number": 1, "value": 12}, "group": "control_change"}, {"time": 3225, "annotation": {"number": 1, "value": 11}, "group": "control_change"}, {"time": 3225, "annotation": {"number": 1, "value": 12}, "group": "control_change"}, {"time": 3226, "annotation": {"number": 1, "value": 11}, "group": "control_change"}, {"time": 3226, "annotation": {"number": 1, "value": 12}, "group": "control_change"}, {"time": 3235, "annotation": {"number": 1, "value": 12}, "group": "control_change"}, {"time": 3239, "annotation": {"number": 1, "value": 11}, "group": "control_change"}, {"time": 3243, "annotation": {"number": 1, "value": 12}, "group": "control_change"}, {"time": 3243, "annotation": {"number": 1, "value": 11}, "group": "control_change"}, {"time": 3244, "annotation": {"number": 1, "value": 12}, "group": "control_change"}, {"time": 3244, "annotation": {"number": 1, "value": 11}, "group": "control_change"}, {"time": 3426, "annotation": {"number": 1, "value": 11}, "group": "control_change"}, {"time": 3427, "annotation": {"number": 1, "value": 12}, "group": "control_change"}, {"time": 3428, "annotation": {"number": 1, "value": 11}, "group": "control_change"}, {"time": 3429, "annotation": {"number": 1, "value": 12}, "group": "control_change"}, {"time": 3460, "annotation": {"number": 1, "value": 11}, "group": "control_change"}, {"time": 3460, "annotation": {"number": 1, "value": 12}, "group": "control_change"}, {"time": 3470, "annotation": {"number": 1, "value": 11}, "group": "control_change"}, {"time": 3470, "annotation": {"number": 1, "value": 12}, "group": "control_change"}, {"time": 3482, "annotation": {"number": 1, "value": 11}, "group": "control_change"}, {"time": 3482, "annotation": {"number": 1, "value": 12}, "group": "control_change"}, {"time": 3534, "annotation": {"number": 1, "value": 11}, "group": "control_change"}, {"time": 3535, "annotation": {"number": 1, "value": 12}, "group": "control_change"}, {"time": 3662, "annotation": {"number": 1, "value": 11}, "group": "control_change"}, {"time": 3662, "annotation": {"number": 1, "value": 12}, "group": "control_change"}, {"time": 3666, "annotation": {"number": 1, "value": 11}, "group": "control_change"}, {"time": 3667, "annotation": {"number": 1, "value": 12}, "group": "control_change"}, {"time": 3988, "annotation": {"number": 1, "value": 12}, "group": "control_change"}, {"time": 3993, "annotation": {"number": 1, "value": 11}, "group": "control_change"}, {"time": 3993, "annotation": {"number": 1, "value": 12}, "group": "control_change"}, {"time": 3994, "annotation": {"number": 1, "value": 11}, "group": "control_change"}, {"time": 4002, "annotation": {"number": 1, "value": 12}, "group": "control_change"}, {"time": 4007, "annotation": {"number": 1, "value": 11}, "group": "control_change"}, {"time": 4011, "annotation": {"number": 1, "value": 12}, "group": "control_change"}, {"time": 4011, "annotation": {"number": 1, "value": 11}, "group": "control_change"}, {"time": 4194, "annotation": {"number": 1, "value": 11}, "group": "control_change"}, {"time": 4194, "annotation": {"number": 1, "value": 12}, "group": "control_change"}, {"time": 4196, "annotation": {"number": 1, "value": 11}, "group": "control_change"}, {"time": 4196, "annotation": {"number": 1, "value": 12}, "group": "control_change"}, {"time": 4227, "annotation": {"number": 1, "value": 11}, "group": "control_change"}, {"time": 4228, "annotation": {"number": 1, "value": 12}, "group": "control_change"}, {"time": 4238, "annotation": {"number": 1, "value": 11}, "group": "control_change"}, {"time": 4238, "annotation": {"number": 1, "value": 12}, "group": "control_change"}, {"time": 4250, "annotation": {"number": 1, "value": 11}, "group": "control_change"}, {"time": 4250, "annotation": {"number": 1, "value": 12}, "group": "control_change"}, {"time": 4302, "annotation": {"number": 1, "value": 11}, "group": "control_change"}, {"time": 4303, "annotation": {"number": 1, "value": 12}, "group": "control_change"}, {"time": 4430, "annotation": {"number": 1, "value": 11}, "group": "control_change"}, {"time": 4430, "annotation": {"number": 1, "value": 12}, "group": "control_change"}, {"time": 4434, "annotation": {"number": 1, "value": 11}, "group": "control_change"}, {"time": 4434, "annotation": {"number": 1, "value": 12}, "group": "control_change"}, {"time": 4504, "annotation": {"number": 1, "value": 7}, "group": "control_change"}, {"time": 4505, "annotation": {"number": 1, "value": 9}, "group": "control_change"}, {"time": 4506, "annotation": {"number": 1, "value": 7}, "group": "control_change"}, {"time": 4506, "annotation": {"number": 1, "value": 9}, "group": "control_change"}, {"time": 4507, "annotation": {"number": 1, "value": 7}, "group": "control_change"}, {"time": 4508, "annotation": {"number": 1, "value": 9}, "group": "control_change"}, {"time": 4508, "annotation": {"number": 1, "value": 7}, "group": "control_change"}, {"time": 4510, "annotation": {"number": 1, "value": 7}, "group": "control_change"}, {"time": 4511, "annotation": {"number": 1, "value": 9}, "group": "control_change"}, {"time": 4511, "annotation": {"number": 1, "value": 7}, "group": "control_change"}, {"time": 4513, "annotation": {"number": 1, "value": 9}, "group": "control_change"}, {"time": 4575, "annotation": {"number": 1, "value": 7}, "group": "control_change"}, {"time": 4575, "annotation": {"number": 1, "value": 9}, "group": "control_change"}, {"time": 4576, "annotation": {"number": 1, "value": 9}, "group": "control_change"}, {"time": 4577, "annotation": {"number": 1, "value": 7}, "group": "control_change"}, {"time": 4584, "annotation": {"number": 1, "value": 11}, "group": "control_change"}]}, {"program": 0, "is_drum": false, "name": "PIANO", "notes": [{"time": 49, "pitch": 73, "duration": 34, "velocity": 42}, {"time": 49, "pitch": 77, "duration": 35, "velocity": 51}, {"time": 49, "pitch": 80, "duration": 34, "velocity": 45}, {"time": 97, "pitch": 70, "duration": 33, "velocity": 44}, {"time": 97, "pitch": 73, "duration": 35, "velocity": 55}, {"time": 97, "pitch": 77, "duration": 35, "velocity": 51}, {"time": 145, "pitch": 66, "duration": 40, "velocity": 42}, {"time": 145, "pitch": 70, "duration": 40, "velocity": 45}, {"time": 145, "pitch": 73, "duration": 40, "velocity": 48}, {"time": 193, "pitch": 68, "duration": 28, "velocity": 58}, {"time": 199, "pitch": 75, "duration": 21, "velocity": 42}, {"time": 241, "pitch": 49, "duration": 37, "velocity": 50}, {"time": 241, "pitch": 63, "duration": 12, "velocity": 61}, {"time": 241, "pitch": 65, "duration": 12, "velocity": 62}, {"time": 241, "pitch": 68, "duration": 11, "velocity": 66}, {"time": 247, "pitch": 56, "duration": 32, "velocity": 48}, {"time": 253, "pitch": 61, "duration": 13, "velocity": 61}, {"time": 259, "pitch": 63, "duration": 9, "velocity": 57}, {"time": 259, "pitch": 68, "duration": 13, "velocity": 66}, {"time": 271, "pitch": 61, "duration": 6, "velocity": 43}, {"time": 277, "pitch": 63, "duration": 4, "velocity": 50}, {"time": 277, "pitch": 65, "duration": 6, "velocity": 66}, {"time": 283, "pitch": 68, "duration": 15, "velocity": 61}, {"time": 289, "pitch": 46, "duration": 39, "velocity": 36}, {"time": 289, "pitch": 61, "duration": 9, "velocity": 56}, {"time": 289, "pitch": 65, "duration": 9, "velocity": 61}, {"time": 295, "pitch": 53, "duration": 33, "velocity": 54}, {"time": 301, "pitch": 58, "duration": 12, "velocity": 46}, {"time": 307, "pitch": 65, "duration": 10, "velocity": 49}, {"time": 307, "pitch": 68, "duration": 11, "velocity": 56}, {"time": 307, "pitch": 73, "duration": 12, "velocity": 49}, {"time": 319, "pitch": 58, "duration": 9, "velocity": 40}, {"time": 325, "pitch": 61, "duration": 3, "velocity": 60}, {"time": 325, "pitch": 65, "duration": 3, "velocity": 67}, {"time": 325, "pitch": 68, "duration": 3, "velocity": 63}, {"time": 337, "pitch": 39, "duration": 5, "velocity": 64}, {"time": 337, "pitch": 58, "duration": 15, "velocity": 53}, {"time": 337, "pitch": 61, "duration": 15, "velocity": 63}, {"time": 337, "pitch": 63, "duration": 18, "velocity": 62}, {"time": 337, "pitch": 66, "duration": 18, "velocity": 49}, {"time": 343, "pitch": 51, "duration": 7, "velocity": 49}, {"time": 349, "pitch": 53, "duration": 27, "velocity": 61}, {"time": 355, "pitch": 54, "duration": 20, "velocity": 64}, {"time": 361, "pitch": 58, "duration": 8, "velocity": 46}, {"time": 367, "pitch": 61, "duration": 11, "velocity": 57}, {"time": 373, "pitch": 58, "duration": 7, "velocity": 64}, {"time": 373, "pitch": 66, "duration": 4, "velocity": 70}, {"time": 379, "pitch": 63, "duration": 4, "velocity": 64}, {"time": 385, "pitch": 44, "duration": 38, "velocity": 54}, {"time": 385, "pitch": 60, "duration": 11, "velocity": 63}, {"time": 385, "pitch": 63, "duration": 11, "velocity": 57}, {"time": 385, "pitch": 68, "duration": 30, "velocity": 50}, {"time": 391, "pitch": 51, "duration": 20, "velocity": 45}, {"time": 397, "pitch": 56, "duration": 8, "velocity": 47}, {"time": 403, "pitch": 60, "duration": 7, "velocity": 60}, {"time": 409, "pitch": 56, "duration": 7, "velocity": 52}, {"time": 409, "pitch": 61, "duration": 6, "velocity": 67}, {"time": 415, "pitch": 51, "duration": 8, "velocity": 42}, {"time": 415, "pitch": 63, "duration": 5, "velocity": 67}, {"time": 421, "pitch": 56, "duration": 4, "velocity": 50}, {"time": 421, "pitch": 65, "duration": 5, "velocity": 76}, {"time": 433, "pitch": 53, "duration": 39, "velocity": 73}, {"time": 433, "pitch": 63, "duration": 7, "velocity": 59}, {"time": 433, "pitch": 68, "duration": 7, "velocity": 70}, {"time": 439, "pitch": 60, "duration": 14, "velocity": 56}, {"time": 445, "pitch": 63, "duration": 5, "velocity": 49}, {"time": 451, "pitch": 63, "duration": 9, "velocity": 47}, {"time": 451, "pitch": 68, "duration": 11, "velocity": 69}, {"time": 463, "pitch": 60, "duration": 8, "velocity": 63}, {"time": 469, "pitch": 63, "duration": 5, "velocity": 72}, {"time": 469, "pitch": 68, "duration": 4, "velocity": 63}, {"time": 475, "pitch": 65, "duration": 4, "velocity": 61}, {"time": 481, "pitch": 46, "duration": 40, "velocity": 66}, {"time": 481, "pitch": 61, "duration": 10, "velocity": 64}, {"time": 481, "pitch": 65, "duration": 9, "velocity": 69}, {"time": 487, "pitch": 53, "duration": 33, "velocity": 49}, {"time": 493, "pitch": 58, "duration": 13, "velocity": 48}, {"time": 499, "pitch": 60, "duration": 5, "velocity": 58}, {"time": 499, "pitch": 63, "duration": 6, "velocity": 63}, {"time": 505, "pitch": 61, "duration": 6, "velocity": 62}, {"time": 505, "pitch": 65, "duration": 9, "velocity": 69}, {"time": 517, "pitch": 58, "duration": 3, "velocity": 52}, {"time": 520, "pitch": 60, "duration": 4, "velocity": 51}, {"time": 523, "pitch": 61, "duration": 3, "velocity": 59}, {"time": 526, "pitch": 63, "duration": 3, "velocity": 57}, {"time": 529, "pitch": 39, "duration": 24, "velocity": 62}, {"time": 529, "pitch": 51, "duration": 13, "velocity": 52}, {"time": 529, "pitch": 58, "duration": 9, "velocity": 63}, {"time": 529, "pitch": 61, "duration": 8, "velocity": 64}, {"time": 529, "pitch": 66, "duration": 8, "velocity": 63}, {"time": 541, "pitch": 58, "duration": 7, "velocity": 57}, {"time": 541, "pitch": 61, "duration": 6, "velocity": 63}, {"time": 541, "pitch": 66, "duration": 6, "velocity": 58}, {"time": 547, "pitch": 51, "duration": 7, "velocity": 47}, {"time": 553, "pitch": 44, "duration": 14, "velocity": 66}, {"time": 553, "pitch": 58, "duration": 8, "velocity": 59}, {"time": 553, "pitch": 61, "duration": 7, "velocity": 66}, {"time": 553, "pitch": 66, "duration": 7, "velocity": 60}, {"time": 565, "pitch": 58, "duration": 4, "velocity": 61}, {"time": 565, "pitch": 61, "duration": 4, "velocity": 70}, {"time": 565, "pitch": 66, "duration": 3, "velocity": 62}, {"time": 571, "pitch": 44, "duration": 2, "velocity": 64}, {"time": 577, "pitch": 37, "duration": 35, "velocity": 70}, {"time": 577, "pitch": 56, "duration": 7, "velocity": 55}, {"time": 577, "pitch": 60, "duration": 6, "velocity": 63}, {"time": 577, "pitch": 65, "duration": 6, "velocity": 60}, {"time": 583, "pitch": 49, "duration": 6, "velocity": 45}, {"time": 589, "pitch": 58, "duration": 4, "velocity": 46}, {"time": 589, "pitch": 61, "duration": 5, "velocity": 54}, {"time": 589, "pitch": 66, "duration": 10, "velocity": 54}, {"time": 595, "pitch": 49, "duration": 17, "velocity": 32}, {"time": 601, "pitch": 56, "duration": 5, "velocity": 48}, {"time": 601, "pitch": 61, "duration": 9, "velocity": 57}, {"time": 601, "pitch": 65, "duration": 10, "velocity": 49}, {"time": 622, "pitch": 65, "duration": 11, "velocity": 44}, {"time": 625, "pitch": 49, "duration": 36, "velocity": 49}, {"time": 625, "pitch": 68, "duration": 10, "velocity": 58}, {"time": 625, "pitch": 73, "duration": 13, "velocity": 63}, {"time": 631, "pitch": 56, "duration": 31, "velocity": 47}, {"time": 637, "pitch": 61, "duration": 22, "velocity": 50}, {"time": 643, "pitch": 63, "duration": 9, "velocity": 45}, {"time": 649, "pitch": 65, "duration": 12, "velocity": 49}, {"time": 670, "pitch": 63, "duration": 9, "velocity": 41}, {"time": 670, "pitch": 68, "duration": 18, "velocity": 52}, {"time": 673, "pitch": 41, "duration": 6, "velocity": 55}, {"time": 673, "pitch": 70, "duration": 3, "velocity": 42}, {"time": 673, "pitch": 72, "duration": 17, "velocity": 59}, {"time": 679, "pitch": 53, "duration": 6, "velocity": 48}, {"time": 685, "pitch": 56, "duration": 27, "velocity": 58}, {"time": 691, "pitch": 60, "duration": 20, "velocity": 60}, {"time": 697, "pitch": 63, "duration": 8, "velocity": 32}, {"time": 709, "pitch": 68, "duration": 11, "velocity": 47}, {"time": 721, "pitch": 42, "duration": 16, "velocity": 55}, {"time": 721, "pitch": 61, "duration": 3, "velocity": 38}, {"time": 721, "pitch": 66, "duration": 5, "velocity": 54}, {"time": 721, "pitch": 70, "duration": 7, "velocity": 64}, {"time": 727, "pitch": 49, "duration": 24, "velocity": 50}, {"time": 727, "pitch": 61, "duration": 5, "velocity": 45}, {"time": 733, "pitch": 54, "duration": 10, "velocity": 47}, {"time": 733, "pitch": 66, "duration": 6, "velocity": 61}, {"time": 739, "pitch": 73, "duration": 7, "velocity": 70}, {"time": 745, "pitch": 63, "duration": 8, "velocity": 43}, {"time": 745, "pitch": 72, "duration": 12, "velocity": 52}, {"time": 757, "pitch": 70, "duration": 11, "velocity": 49}, {"time": 769, "pitch": 44, "duration": 9, "velocity": 54}, {"time": 769, "pitch": 63, "duration": 23, "velocity": 48}, {"time": 769, "pitch": 68, "duration": 23, "velocity": 59}, {"time": 775, "pitch": 51, "duration": 5, "velocity": 45}, {"time": 781, "pitch": 56, "duration": 7, "velocity": 48}, {"time": 787, "pitch": 58, "duration": 20, "velocity": 47}, {"time": 793, "pitch": 60, "duration": 15, "velocity": 42}, {"time": 799, "pitch": 63, "duration": 7, "velocity": 39}, {"time": 805, "pitch": 68, "duration": 5, "velocity": 45}, {"time": 811, "pitch": 73, "duration": 9, "velocity": 54}, {"time": 817, "pitch": 53, "duration": 39, "velocity": 63}, {"time": 817, "pitch": 63, "duration": 7, "velocity": 49}, {"time": 817, "pitch": 68, "duration": 7, "velocity": 56}, {"time": 823, "pitch": 60, "duration": 32, "velocity": 46}, {"time": 829, "pitch": 63, "duration": 6, "velocity": 53}, {"time": 835, "pitch": 70, "duration": 7, "velocity": 48}, {"time": 841, "pitch": 72, "duration": 20, "velocity": 51}, {"time": 853, "pitch": 75, "duration": 5, "velocity": 34}, {"time": 865, "pitch": 46, "duration": 38, "velocity": 49}, {"time": 865, "pitch": 65, "duration": 8, "velocity": 50}, {"time": 865, "pitch": 73, "duration": 13, "velocity": 50}, {"time": 871, "pitch": 53, "duration": 33, "velocity": 37}, {"time": 877, "pitch": 58, "duration": 26, "velocity": 39}, {"time": 877, "pitch": 63, "duration": 3, "velocity": 51}, {"time": 877, "pitch": 72, "duration": 3, "velocity": 60}, {"time": 889, "pitch": 61, "duration": 13, "velocity": 48}, {"time": 889, "pitch": 70, "duration": 13, "velocity": 51}, {"time": 913, "pitch": 51, "duration": 37, "velocity": 46}, {"time": 913, "pitch": 66, "duration": 10, "velocity": 48}, {"time": 913, "pitch": 70, "duration": 10, "velocity": 49}, {"time": 919, "pitch": 58, "duration": 31, "velocity": 44}, {"time": 925, "pitch": 63, "duration": 21, "velocity": 52}, {"time": 931, "pitch": 65, "duration": 7, "velocity": 42}, {"time": 937, "pitch": 66, "duration": 10, "velocity": 45}, {"time": 961, "pitch": 44, "duration": 41, "velocity": 46}, {"time": 961, "pitch": 58, "duration": 10, "velocity": 39}, {"time": 961, "pitch": 61, "duration": 9, "velocity": 45}, {"time": 961, "pitch": 66, "duration": 8, "velocity": 39}, {"time": 967, "pitch": 51, "duration": 35, "velocity": 44}, {"time": 973, "pitch": 56, "duration": 29, "velocity": 53}, {"time": 979, "pitch": 61, "duration": 6, "velocity": 46}, {"time": 985, "pitch": 60, "duration": 9, "velocity": 41}, {"time": 985, "pitch": 63, "duration": 8, "velocity": 31}, {"time": 985, "pitch": 68, "duration": 7, "velocity": 37}, {"time": 997, "pitch": 61, "duration": 6, "velocity": 53}, {"time": 997, "pitch": 66, "duration": 5, "velocity": 58}, {"time": 1009, "pitch": 49, "duration": 39, "velocity": 54}, {"time": 1009, "pitch": 61, "duration": 6, "velocity": 56}, {"time": 1009, "pitch": 63, "duration": 6, "velocity": 44}, {"time": 1009, "pitch": 65, "duration": 6, "velocity": 49}, {"time": 1015, "pitch": 56, "duration": 19, "velocity": 48}, {"time": 1021, "pitch": 61, "duration": 19, "velocity": 40}, {"time": 1027, "pitch": 63, "duration": 12, "velocity": 36}, {"time": 1033, "pitch": 65, "duration": 7, "velocity": 49}, {"time": 1033, "pitch": 68, "duration": 7, "velocity": 55}, {"time": 1039, "pitch": 56, "duration": 11, "velocity": 31}, {"time": 1045, "pitch": 63, "duration": 5, "velocity": 57}, {"time": 1045, "pitch": 68, "duration": 6, "velocity": 51}, {"time": 1051, "pitch": 65, "duration": 5, "velocity": 54}, {"time": 1057, "pitch": 41, "duration": 5, "velocity": 60}, {"time": 1057, "pitch": 63, "duration": 17, "velocity": 54}, {"time": 1057, "pitch": 68, "duration": 17, "velocity": 54}, {"time": 1063, "pitch": 53, "duration": 7, "velocity": 53}, {"time": 1069, "pitch": 56, "duration": 25, "velocity": 63}, {"time": 1075, "pitch": 60, "duration": 18, "velocity": 58}, {"time": 1081, "pitch": 63, "duration": 5, "velocity": 49}, {"time": 1087, "pitch": 68, "duration": 5, "velocity": 51}, {"time": 1093, "pitch": 70, "duration": 6, "velocity": 62}, {"time": 1099, "pitch": 72, "duration": 4, "velocity": 49}, {"time": 1105, "pitch": 42, "duration": 19, "velocity": 69}, {"time": 1105, "pitch": 58, "duration": 11, "velocity": 50}, {"time": 1105, "pitch": 61, "duration": 11, "velocity": 61}, {"time": 1105, "pitch": 68, "duration": 7, "velocity": 47}, {"time": 1105, "pitch": 70, "duration": 7, "velocity": 49}, {"time": 1111, "pitch": 49, "duration": 33, "velocity": 64}, {"time": 1117, "pitch": 54, "duration": 9, "velocity": 48}, {"time": 1123, "pitch": 70, "duration": 7, "velocity": 61}, {"time": 1129, "pitch": 68, "duration": 15, "velocity": 63}, {"time": 1147, "pitch": 67, "duration": 3, "velocity": 49}, {"time": 1150, "pitch": 66, "duration": 2, "velocity": 58}, {"time": 1153, "pitch": 44, "duration": 9, "velocity": 62}, {"time": 1153, "pitch": 65, "duration": 16, "velocity": 60}, {"time": 1159, "pitch": 51, "duration": 5, "velocity": 51}, {"time": 1165, "pitch": 56, "duration": 7, "velocity": 47}, {"time": 1171, "pitch": 58, "duration": 20, "velocity": 49}, {"time": 1171, "pitch": 68, "duration": 6, "velocity": 55}, {"time": 1177, "pitch": 60, "duration": 13, "velocity": 56}, {"time": 1177, "pitch": 63, "duration": 11, "velocity": 48}, {"time": 1189, "pitch": 68, "duration": 7, "velocity": 73}, {"time": 1198, "pitch": 63, "duration": 2, "velocity": 47}, {"time": 1198, "pitch": 68, "duration": 6, "velocity": 62}, {"time": 1201, "pitch": 53, "duration": 38, "velocity": 52}, {"time": 1201, "pitch": 75, "duration": 10, "velocity": 66}, {"time": 1207, "pitch": 60, "duration": 18, "velocity": 50}, {"time": 1213, "pitch": 65, "duration": 15, "velocity": 49}, {"time": 1219, "pitch": 68, "duration": 3, "velocity": 49}, {"time": 1219, "pitch": 75, "duration": 3, "velocity": 62}, {"time": 1225, "pitch": 68, "duration": 5, "velocity": 48}, {"time": 1225, "pitch": 72, "duration": 9, "velocity": 44}, {"time": 1231, "pitch": 60, "duration": 8, "velocity": 42}, {"time": 1237, "pitch": 63, "duration": 4, "velocity": 50}, {"time": 1237, "pitch": 70, "duration": 4, "velocity": 53}, {"time": 1243, "pitch": 68, "duration": 29, "velocity": 57}, {"time": 1249, "pitch": 46, "duration": 10, "velocity": 57}, {"time": 1249, "pitch": 65, "duration": 21, "velocity": 49}, {"time": 1249, "pitch": 73, "duration": 25, "velocity": 58}, {"time": 1255, "pitch": 53, "duration": 6, "velocity": 48}, {"time": 1261, "pitch": 58, "duration": 8, "velocity": 44}, {"time": 1267, "pitch": 60, "duration": 18, "velocity": 57}, {"time": 1273, "pitch": 61, "duration": 11, "velocity": 57}, {"time": 1279, "pitch": 65, "duration": 7, "velocity": 45}, {"time": 1285, "pitch": 68, "duration": 8, "velocity": 60}, {"time": 1297, "pitch": 51, "duration": 18, "velocity": 63}, {"time": 1297, "pitch": 61, "duration": 7, "velocity": 49}, {"time": 1297, "pitch": 66, "duration": 7, "velocity": 58}, {"time": 1297, "pitch": 70, "duration": 7, "velocity": 50}, {"time": 1303, "pitch": 58, "duration": 13, "velocity": 48}, {"time": 1309, "pitch": 61, "duration": 7, "velocity": 56}, {"time": 1315, "pitch": 66, "duration": 6, "velocity": 64}, {"time": 1321, "pitch": 44, "duration": 17, "velocity": 62}, {"time": 1321, "pitch": 58, "duration": 12, "velocity": 56}, {"time": 1321, "pitch": 61, "duration": 12, "velocity": 62}, {"time": 1321, "pitch": 66, "duration": 1, "velocity": 57}, {"time": 1321, "pitch": 70, "duration": 2, "velocity": 58}, {"time": 1327, "pitch": 51, "duration": 11, "velocity": 52}, {"time": 1333, "pitch": 56, "duration": 3, "velocity": 57}, {"time": 1339, "pitch": 66, "duration": 5, "velocity": 64}, {"time": 1345, "pitch": 37, "duration": 5, "velocity": 61}, {"time": 1345, "pitch": 56, "duration": 21, "velocity": 51}, {"time": 1345, "pitch": 61, "duration": 20, "velocity": 58}, {"time": 1345, "pitch": 65, "duration": 21, "velocity": 55}, {"time": 1351, "pitch": 49, "duration": 8, "velocity": 56}, {"time": 1357, "pitch": 51, "duration": 27, "velocity": 58}, {"time": 1363, "pitch": 53, "duration": 22, "velocity": 64}, {"time": 1369, "pitch": 56, "duration": 3, "velocity": 57}, {"time": 1372, "pitch": 61, "duration": 3, "velocity": 64}, {"time": 1375, "pitch": 63, "duration": 2, "velocity": 59}, {"time": 1378, "pitch": 65, "duration": 3, "velocity": 75}, {"time": 1381, "pitch": 68, "duration": 3, "velocity": 39}, {"time": 1384, "pitch": 70, "duration": 4, "velocity": 57}, {"time": 1387, "pitch": 72, "duration": 4, "velocity": 57}, {"time": 1390, "pitch": 73, "duration": 10, "velocity": 59}, {"time": 1393, "pitch": 49, "duration": 41, "velocity": 60}, {"time": 1393, "pitch": 61, "duration": 25, "velocity": 60}, {"time": 1393, "pitch": 65, "duration": 7, "velocity": 63}, {"time": 1393, "pitch": 68, "duration": 7, "velocity": 69}, {"time": 1393, "pitch": 73, "duration": 7, "velocity": 64}, {"time": 1405, "pitch": 65, "duration": 6, "velocity": 58}, {"time": 1405, "pitch": 68, "duration": 6, "velocity": 63}, {"time": 1405, "pitch": 73, "duration": 6, "velocity": 62}, {"time": 1417, "pitch": 65, "duration": 6, "velocity": 50}, {"time": 1417, "pitch": 68, "duration": 6, "velocity": 59}, {"time": 1417, "pitch": 73, "duration": 6, "velocity": 52}, {"time": 1423, "pitch": 61, "duration": 9, "velocity": 32}, {"time": 1429, "pitch": 65, "duration": 6, "velocity": 62}, {"time": 1429, "pitch": 68, "duration": 6, "velocity": 69}, {"time": 1429, "pitch": 73, "duration": 7, "velocity": 67}, {"time": 1435, "pitch": 56, "duration": 5, "velocity": 39}, {"time": 1441, "pitch": 46, "duration": 13, "velocity": 58}, {"time": 1441, "pitch": 65, "duration": 7, "velocity": 58}, {"time": 1441, "pitch": 68, "duration": 7, "velocity": 64}, {"time": 1441, "pitch": 73, "duration": 6, "velocity": 55}, {"time": 1447, "pitch": 53, "duration": 6, "velocity": 50}, {"time": 1453, "pitch": 58, "duration": 8, "velocity": 39}, {"time": 1453, "pitch": 65, "duration": 7, "velocity": 50}, {"time": 1453, "pitch": 68, "duration": 7, "velocity": 61}, {"time": 1453, "pitch": 73, "duration": 7, "velocity": 46}, {"time": 1459, "pitch": 60, "duration": 9, "velocity": 36}, {"time": 1465, "pitch": 61, "duration": 14, "velocity": 63}, {"time": 1465, "pitch": 65, "duration": 6, "velocity": 47}, {"time": 1465, "pitch": 68, "duration": 5, "velocity": 57}, {"time": 1465, "pitch": 73, "duration": 7, "velocity": 46}, {"time": 1471, "pitch": 60, "duration": 9, "velocity": 46}, {"time": 1477, "pitch": 65, "duration": 4, "velocity": 66}, {"time": 1477, "pitch": 68, "duration": 4, "velocity": 75}, {"time": 1477, "pitch": 73, "duration": 4, "velocity": 63}, {"time": 1483, "pitch": 68, "duration": 5, "velocity": 69}, {"time": 1489, "pitch": 39, "duration": 6, "velocity": 62}, {"time": 1489, "pitch": 63, "duration": 7, "velocity": 69}, {"time": 1489, "pitch": 66, "duration": 8, "velocity": 57}, {"time": 1489, "pitch": 70, "duration": 7, "velocity": 59}, {"time": 1495, "pitch": 51, "duration": 7, "velocity": 56}, {"time": 1501, "pitch": 54, "duration": 27, "velocity": 63}, {"time": 1501, "pitch": 63, "duration": 6, "velocity": 57}, {"time": 1501, "pitch": 66, "duration": 6, "velocity": 66}, {"time": 1501, "pitch": 70, "duration": 6, "velocity": 61}, {"time": 1507, "pitch": 58, "duration": 21, "velocity": 56}, {"time": 1513, "pitch": 63, "duration": 6, "velocity": 49}, {"time": 1513, "pitch": 66, "duration": 6, "velocity": 49}, {"time": 1513, "pitch": 70, "duration": 6, "velocity": 50}, {"time": 1519, "pitch": 61, "duration": 7, "velocity": 49}, {"time": 1525, "pitch": 65, "duration": 5, "velocity": 73}, {"time": 1531, "pitch": 66, "duration": 4, "velocity": 69}, {"time": 1537, "pitch": 44, "duration": 43, "velocity": 62}, {"time": 1537, "pitch": 63, "duration": 8, "velocity": 57}, {"time": 1537, "pitch": 68, "duration": 8, "velocity": 61}, {"time": 1537, "pitch": 72, "duration": 6, "velocity": 61}, {"time": 1543, "pitch": 51, "duration": 29, "velocity": 49}, {"time": 1549, "pitch": 56, "duration": 9, "velocity": 51}, {"time": 1555, "pitch": 58, "duration": 2, "velocity": 57}, {"time": 1555, "pitch": 61, "duration": 4, "velocity": 66}, {"time": 1555, "pitch": 66, "duration": 3, "velocity": 64}, {"time": 1561, "pitch": 60, "duration": 7, "velocity": 67}, {"time": 1561, "pitch": 63, "duration": 6, "velocity": 64}, {"time": 1561, "pitch": 68, "duration": 6, "velocity": 70}, {"time": 1567, "pitch": 56, "duration": 8, "velocity": 33}, {"time": 1573, "pitch": 61, "duration": 5, "velocity": 73}, {"time": 1573, "pitch": 66, "duration": 4, "velocity": 66}, {"time": 1579, "pitch": 51, "duration": 1, "velocity": 58}, {"time": 1585, "pitch": 41, "duration": 5, "velocity": 73}, {"time": 1585, "pitch": 56, "duration": 8, "velocity": 59}, {"time": 1585, "pitch": 60, "duration": 11, "velocity": 67}, {"time": 1585, "pitch": 63, "duration": 12, "velocity": 70}, {"time": 1591, "pitch": 53, "duration": 6, "velocity": 53}, {"time": 1597, "pitch": 56, "duration": 30, "velocity": 64}, {"time": 1603, "pitch": 60, "duration": 10, "velocity": 62}, {"time": 1609, "pitch": 63, "duration": 11, "velocity": 47}, {"time": 1609, "pitch": 68, "duration": 3, "velocity": 58}, {"time": 1609, "pitch": 72, "duration": 4, "velocity": 58}, {"time": 1615, "pitch": 68, "duration": 4, "velocity": 58}, {"time": 1615, "pitch": 73, "duration": 2, "velocity": 62}, {"time": 1621, "pitch": 60, "duration": 5, "velocity": 52}, {"time": 1621, "pitch": 68, "duration": 5, "velocity": 49}, {"time": 1621, "pitch": 75, "duration": 4, "velocity": 64}, {"time": 1627, "pitch": 72, "duration": 5, "velocity": 67}, {"time": 1633, "pitch": 46, "duration": 11, "velocity": 62}, {"time": 1633, "pitch": 65, "duration": 25, "velocity": 58}, {"time": 1633, "pitch": 68, "duration": 24, "velocity": 60}, {"time": 1633, "pitch": 73, "duration": 25, "velocity": 67}, {"time": 1639, "pitch": 53, "duration": 6, "velocity": 56}, {"time": 1645, "pitch": 58, "duration": 7, "velocity": 56}, {"time": 1651, "pitch": 60, "duration": 22, "velocity": 51}, {"time": 1657, "pitch": 61, "duration": 6, "velocity": 69}, {"time": 1663, "pitch": 65, "duration": 3, "velocity": 64}, {"time": 1663, "pitch": 68, "duration": 6, "velocity": 70}, {"time": 1663, "pitch": 73, "duration": 4, "velocity": 66}, {"time": 1669, "pitch": 61, "duration": 3, "velocity": 62}, {"time": 1669, "pitch": 65, "duration": 5, "velocity": 63}, {"time": 1669, "pitch": 72, "duration": 4, "velocity": 62}, {"time": 1669, "pitch": 73, "duration": 2, "velocity": 46}, {"time": 1675, "pitch": 68, "duration": 5, "velocity": 62}, {"time": 1681, "pitch": 39, "duration": 6, "velocity": 72}, {"time": 1681, "pitch": 61, "duration": 19, "velocity": 67}, {"time": 1681, "pitch": 66, "duration": 18, "velocity": 66}, {"time": 1681, "pitch": 70, "duration": 19, "velocity": 63}, {"time": 1687, "pitch": 51, "duration": 7, "velocity": 58}, {"time": 1693, "pitch": 53, "duration": 27, "velocity": 62}, {"time": 1699, "pitch": 54, "duration": 14, "velocity": 63}, {"time": 1705, "pitch": 58, "duration": 13, "velocity": 49}, {"time": 1711, "pitch": 61, "duration": 4, "velocity": 48}, {"time": 1714, "pitch": 66, "duration": 4, "velocity": 66}, {"time": 1717, "pitch": 68, "duration": 5, "velocity": 67}, {"time": 1720, "pitch": 70, "duration": 4, "velocity": 64}, {"time": 1723, "pitch": 73, "duration": 3, "velocity": 63}, {"time": 1726, "pitch": 68, "duration": 2, "velocity": 58}, {"time": 1729, "pitch": 44, "duration": 40, "velocity": 69}, {"time": 1729, "pitch": 70, "duration": 2, "velocity": 66}, {"time": 1729, "pitch": 72, "duration": 11, "velocity": 58}, {"time": 1735, "pitch": 51, "duration": 20, "velocity": 60}, {"time": 1741, "pitch": 56, "duration": 8, "velocity": 70}, {"time": 1747, "pitch": 58, "duration": 3, "velocity": 36}, {"time": 1747, "pitch": 61, "duration": 4, "velocity": 47}, {"time": 1747, "pitch": 66, "duration": 3, "velocity": 73}, {"time": 1753, "pitch": 56, "duration": 7, "velocity": 57}, {"time": 1753, "pitch": 60, "duration": 3, "velocity": 64}, {"time": 1753, "pitch": 68, "duration": 4, "velocity": 63}, {"time": 1759, "pitch": 51, "duration": 10, "velocity": 54}, {"time": 1765, "pitch": 56, "duration": 6, "velocity": 53}, {"time": 1765, "pitch": 65, "duration": 2, "velocity": 66}, {"time": 1765, "pitch": 73, "duration": 3, "velocity": 78}, {"time": 1771, "pitch": 66, "duration": 2, "velocity": 55}, {"time": 1771, "pitch": 75, "duration": 2, "velocity": 64}, {"time": 1777, "pitch": 49, "duration": 40, "velocity": 61}, {"time": 1777, "pitch": 68, "duration": 6, "velocity": 53}, {"time": 1777, "pitch": 73, "duration": 6, "velocity": 66}, {"time": 1777, "pitch": 77, "duration": 6, "velocity": 59}, {"time": 1783, "pitch": 56, "duration": 7, "velocity": 50}, {"time": 1789, "pitch": 61, "duration": 11, "velocity": 53}, {"time": 1789, "pitch": 63, "duration": 6, "velocity": 59}, {"time": 1789, "pitch": 65, "duration": 5, "velocity": 66}, {"time": 1789, "pitch": 68, "duration": 5, "velocity": 67}, {"time": 1798, "pitch": 56, "duration": 16, "velocity": 13}, {"time": 1801, "pitch": 63, "duration": 7, "velocity": 60}, {"time": 1801, "pitch": 65, "duration": 8, "velocity": 67}, {"time": 1801, "pitch": 68, "duration": 6, "velocity": 61}, {"time": 1810, "pitch": 61, "duration": 5, "velocity": 48}, {"time": 1813, "pitch": 63, "duration": 5, "velocity": 69}, {"time": 1813, "pitch": 65, "duration": 5, "velocity": 76}, {"time": 1813, "pitch": 68, "duration": 6, "velocity": 70}, {"time": 1819, "pitch": 56, "duration": 3, "velocity": 45}, {"time": 1822, "pitch": 48, "duration": 1, "velocity": 44}, {"time": 1825, "pitch": 46, "duration": 40, "velocity": 75}, {"time": 1825, "pitch": 61, "duration": 6, "velocity": 66}, {"time": 1825, "pitch": 65, "duration": 5, "velocity": 64}, {"time": 1825, "pitch": 68, "duration": 6, "velocity": 64}, {"time": 1831, "pitch": 53, "duration": 7, "velocity": 46}, {"time": 1837, "pitch": 58, "duration": 12, "velocity": 46}, {"time": 1837, "pitch": 60, "duration": 6, "velocity": 51}, {"time": 1837, "pitch": 61, "duration": 6, "velocity": 56}, {"time": 1837, "pitch": 65, "duration": 6, "velocity": 53}, {"time": 1843, "pitch": 53, "duration": 17, "velocity": 36}, {"time": 1849, "pitch": 60, "duration": 6, "velocity": 46}, {"time": 1849, "pitch": 61, "duration": 6, "velocity": 59}, {"time": 1849, "pitch": 65, "duration": 6, "velocity": 55}, {"time": 1855, "pitch": 58, "duration": 7, "velocity": 48}, {"time": 1861, "pitch": 60, "duration": 3, "velocity": 64}, {"time": 1861, "pitch": 61, "duration": 3, "velocity": 67}, {"time": 1861, "pitch": 65, "duration": 3, "velocity": 70}, {"time": 1861, "pitch": 68, "duration": 3, "velocity": 67}, {"time": 1864, "pitch": 53, "duration": 2, "velocity": 61}, {"time": 1867, "pitch": 63, "duration": 4, "velocity": 59}, {"time": 1870, "pitch": 65, "duration": 3, "velocity": 63}, {"time": 1873, "pitch": 39, "duration": 39, "velocity": 73}, {"time": 1873, "pitch": 58, "duration": 6, "velocity": 64}, {"time": 1873, "pitch": 61, "duration": 6, "velocity": 70}, {"time": 1873, "pitch": 66, "duration": 6, "velocity": 72}, {"time": 1879, "pitch": 51, "duration": 8, "velocity": 39}, {"time": 1885, "pitch": 58, "duration": 5, "velocity": 51}, {"time": 1885, "pitch": 61, "duration": 5, "velocity": 62}, {"time": 1885, "pitch": 66, "duration": 5, "velocity": 54}, {"time": 1891, "pitch": 51, "duration": 8, "velocity": 37}, {"time": 1897, "pitch": 58, "duration": 7, "velocity": 44}, {"time": 1897, "pitch": 61, "duration": 5, "velocity": 57}, {"time": 1897, "pitch": 66, "duration": 6, "velocity": 44}, {"time": 1903, "pitch": 51, "duration": 5, "velocity": 34}, {"time": 1909, "pitch": 58, "duration": 7, "velocity": 69}, {"time": 1909, "pitch": 61, "duration": 7, "velocity": 72}, {"time": 1909, "pitch": 66, "duration": 7, "velocity": 69}, {"time": 1915, "pitch": 42, "duration": 3, "velocity": 51}, {"time": 1918, "pitch": 44, "duration": 23, "velocity": 62}, {"time": 1921, "pitch": 58, "duration": 7, "velocity": 72}, {"time": 1921, "pitch": 61, "duration": 7, "velocity": 80}, {"time": 1921, "pitch": 66, "duration": 6, "velocity": 76}, {"time": 1927, "pitch": 51, "duration": 11, "velocity": 49}, {"time": 1933, "pitch": 58, "duration": 5, "velocity": 63}, {"time": 1933, "pitch": 61, "duration": 5, "velocity": 72}, {"time": 1933, "pitch": 66, "duration": 3, "velocity": 72}, {"time": 1939, "pitch": 56, "duration": 5, "velocity": 44}, {"time": 1942, "pitch": 51, "duration": 2, "velocity": 34}, {"time": 1945, "pitch": 44, "duration": 14, "velocity": 69}, {"time": 1945, "pitch": 60, "duration": 7, "velocity": 61}, {"time": 1945, "pitch": 63, "duration": 6, "velocity": 60}, {"time": 1945, "pitch": 68, "duration": 6, "velocity": 60}, {"time": 1951, "pitch": 56, "duration": 7, "velocity": 43}, {"time": 1957, "pitch": 58, "duration": 5, "velocity": 67}, {"time": 1957, "pitch": 61, "duration": 5, "velocity": 73}, {"time": 1957, "pitch": 66, "duration": 4, "velocity": 70}, {"time": 1963, "pitch": 42, "duration": 3, "velocity": 62}, {"time": 1963, "pitch": 54, "duration": 1, "velocity": 57}, {"time": 1969, "pitch": 41, "duration": 31, "velocity": 67}, {"time": 1969, "pitch": 53, "duration": 13, "velocity": 57}, {"time": 1969, "pitch": 56, "duration": 7, "velocity": 51}, {"time": 1969, "pitch": 60, "duration": 7, "velocity": 60}, {"time": 1969, "pitch": 63, "duration": 7, "velocity": 61}, {"time": 1969, "pitch": 68, "duration": 7, "velocity": 40}, {"time": 1981, "pitch": 56, "duration": 7, "velocity": 50}, {"time": 1981, "pitch": 60, "duration": 7, "velocity": 57}, {"time": 1981, "pitch": 63, "duration": 7, "velocity": 60}, {"time": 1981, "pitch": 68, "duration": 8, "velocity": 46}, {"time": 1987, "pitch": 53, "duration": 7, "velocity": 37}, {"time": 1993, "pitch": 56, "duration": 13, "velocity": 59}, {"time": 1993, "pitch": 60, "duration": 10, "velocity": 66}, {"time": 1993, "pitch": 63, "duration": 13, "velocity": 64}, {"time": 1993, "pitch": 68, "duration": 13, "velocity": 43}, {"time": 1999, "pitch": 53, "duration": 6, "velocity": 54}, {"time": 2005, "pitch": 44, "duration": 4, "velocity": 66}, {"time": 2011, "pitch": 68, "duration": 5, "velocity": 66}, {"time": 2017, "pitch": 46, "duration": 11, "velocity": 67}, {"time": 2017, "pitch": 61, "duration": 5, "velocity": 64}, {"time": 2017, "pitch": 65, "duration": 5, "velocity": 69}, {"time": 2017, "pitch": 68, "duration": 1, "velocity": 31}, {"time": 2023, "pitch": 53, "duration": 6, "velocity": 51}, {"time": 2023, "pitch": 60, "duration": 7, "velocity": 48}, {"time": 2023, "pitch": 63, "duration": 5, "velocity": 52}, {"time": 2029, "pitch": 58, "duration": 8, "velocity": 41}, {"time": 2029, "pitch": 61, "duration": 1, "velocity": 56}, {"time": 2029, "pitch": 65, "duration": 5, "velocity": 66}, {"time": 2035, "pitch": 60, "duration": 2, "velocity": 55}, {"time": 2035, "pitch": 68, "duration": 7, "velocity": 57}, {"time": 2041, "pitch": 56, "duration": 1, "velocity": 66}, {"time": 2041, "pitch": 61, "duration": 6, "velocity": 62}, {"time": 2053, "pitch": 56, "duration": 3, "velocity": 53}, {"time": 2053, "pitch": 61, "duration": 3, "velocity": 54}, {"time": 2059, "pitch": 65, "duration": 5, "velocity": 64}, {"time": 2065, "pitch": 39, "duration": 18, "velocity": 45}, {"time": 2065, "pitch": 58, "duration": 7, "velocity": 54}, {"time": 2065, "pitch": 61, "duration": 7, "velocity": 59}, {"time": 2065, "pitch": 66, "duration": 6, "velocity": 51}, {"time": 2071, "pitch": 51, "duration": 8, "velocity": 45}, {"time": 2077, "pitch": 58, "duration": 7, "velocity": 57}, {"time": 2077, "pitch": 61, "duration": 3, "velocity": 39}, {"time": 2077, "pitch": 66, "duration": 3, "velocity": 50}, {"time": 2083, "pitch": 51, "duration": 4, "velocity": 41}, {"time": 2083, "pitch": 65, "duration": 4, "velocity": 62}, {"time": 2089, "pitch": 44, "duration": 16, "velocity": 70}, {"time": 2089, "pitch": 58, "duration": 11, "velocity": 59}, {"time": 2089, "pitch": 61, "duration": 11, "velocity": 60}, {"time": 2089, "pitch": 66, "duration": 9, "velocity": 66}, {"time": 2095, "pitch": 51, "duration": 9, "velocity": 55}, {"time": 2101, "pitch": 56, "duration": 12, "velocity": 50}, {"time": 2107, "pitch": 66, "duration": 5, "velocity": 64}, {"time": 2113, "pitch": 49, "duration": 41, "velocity": 63}, {"time": 2113, "pitch": 63, "duration": 2, "velocity": 51}, {"time": 2113, "pitch": 65, "duration": 7, "velocity": 75}, {"time": 2119, "pitch": 56, "duration": 34, "velocity": 53}, {"time": 2125, "pitch": 61, "duration": 27, "velocity": 48}, {"time": 2131, "pitch": 63, "duration": 5, "velocity": 55}, {"time": 2137, "pitch": 65, "duration": 3, "velocity": 61}, {"time": 2143, "pitch": 68, "duration": 3, "velocity": 50}, {"time": 2149, "pitch": 73, "duration": 2, "velocity": 67}, {"time": 2155, "pitch": 75, "duration": 4, "velocity": 55}, {"time": 2161, "pitch": 49, "duration": 41, "velocity": 70}, {"time": 2161, "pitch": 68, "duration": 7, "velocity": 55}, {"time": 2161, "pitch": 73, "duration": 7, "velocity": 57}, {"time": 2161, "pitch": 77, "duration": 7, "velocity": 59}, {"time": 2167, "pitch": 56, "duration": 29, "velocity": 47}, {"time": 2173, "pitch": 63, "duration": 6, "velocity": 46}, {"time": 2173, "pitch": 65, "duration": 6, "velocity": 51}, {"time": 2173, "pitch": 68, "duration": 6, "velocity": 46}, {"time": 2179, "pitch": 61, "duration": 7, "velocity": 32}, {"time": 2185, "pitch": 63, "duration": 6, "velocity": 53}, {"time": 2185, "pitch": 65, "duration": 5, "velocity": 59}, {"time": 2185, "pitch": 68, "duration": 5, "velocity": 58}, {"time": 2191, "pitch": 61, "duration": 7, "velocity": 36}, {"time": 2197, "pitch": 63, "duration": 5, "velocity": 57}, {"time": 2197, "pitch": 65, "duration": 5, "velocity": 63}, {"time": 2197, "pitch": 68, "duration": 5, "velocity": 62}, {"time": 2203, "pitch": 56, "duration": 2, "velocity": 67}, {"time": 2209, "pitch": 46, "duration": 39, "velocity": 67}, {"time": 2209, "pitch": 61, "duration": 7, "velocity": 57}, {"time": 2209, "pitch": 65, "duration": 7, "velocity": 61}, {"time": 2209, "pitch": 68, "duration": 7, "velocity": 56}, {"time": 2215, "pitch": 53, "duration": 29, "velocity": 37}, {"time": 2221, "pitch": 61, "duration": 5, "velocity": 53}, {"time": 2221, "pitch": 65, "duration": 4, "velocity": 53}, {"time": 2221, "pitch": 68, "duration": 5, "velocity": 59}, {"time": 2227, "pitch": 58, "duration": 7, "velocity": 42}, {"time": 2233, "pitch": 60, "duration": 9, "velocity": 66}, {"time": 2233, "pitch": 61, "duration": 9, "velocity": 72}, {"time": 2233, "pitch": 65, "duration": 7, "velocity": 66}, {"time": 2233, "pitch": 68, "duration": 9, "velocity": 57}, {"time": 2242, "pitch": 58, "duration": 4, "velocity": 44}, {"time": 2245, "pitch": 60, "duration": 3, "velocity": 59}, {"time": 2248, "pitch": 61, "duration": 3, "velocity": 62}, {"time": 2251, "pitch": 63, "duration": 4, "velocity": 50}, {"time": 2254, "pitch": 65, "duration": 2, "velocity": 66}, {"time": 2257, "pitch": 39, "duration": 35, "velocity": 58}, {"time": 2257, "pitch": 51, "duration": 13, "velocity": 52}, {"time": 2257, "pitch": 58, "duration": 7, "velocity": 66}, {"time": 2257, "pitch": 61, "duration": 7, "velocity": 73}, {"time": 2257, "pitch": 66, "duration": 6, "velocity": 75}, {"time": 2269, "pitch": 58, "duration": 6, "velocity": 45}, {"time": 2269, "pitch": 61, "duration": 6, "velocity": 52}, {"time": 2269, "pitch": 66, "duration": 7, "velocity": 44}, {"time": 2275, "pitch": 51, "duration": 7, "velocity": 35}, {"time": 2281, "pitch": 58, "duration": 7, "velocity": 56}, {"time": 2281, "pitch": 61, "duration": 6, "velocity": 64}, {"time": 2281, "pitch": 66, "duration": 7, "velocity": 54}, {"time": 2287, "pitch": 51, "duration": 6, "velocity": 36}, {"time": 2293, "pitch": 58, "duration": 9, "velocity": 66}, {"time": 2293, "pitch": 61, "duration": 10, "velocity": 76}, {"time": 2293, "pitch": 66, "duration": 10, "velocity": 69}, {"time": 2299, "pitch": 42, "duration": 3, "velocity": 72}, {"time": 2305, "pitch": 44, "duration": 20, "velocity": 70}, {"time": 2305, "pitch": 58, "duration": 8, "velocity": 58}, {"time": 2305, "pitch": 61, "duration": 8, "velocity": 64}, {"time": 2305, "pitch": 66, "duration": 7, "velocity": 61}, {"time": 2311, "pitch": 51, "duration": 11, "velocity": 64}, {"time": 2317, "pitch": 58, "duration": 4, "velocity": 69}, {"time": 2317, "pitch": 61, "duration": 5, "velocity": 76}, {"time": 2317, "pitch": 66, "duration": 3, "velocity": 73}, {"time": 2323, "pitch": 56, "duration": 6, "velocity": 49}, {"time": 2329, "pitch": 44, "duration": 8, "velocity": 69}, {"time": 2329, "pitch": 60, "duration": 6, "velocity": 64}, {"time": 2329, "pitch": 63, "duration": 6, "velocity": 67}, {"time": 2329, "pitch": 68, "duration": 5, "velocity": 67}, {"time": 2335, "pitch": 56, "duration": 2, "velocity": 49}, {"time": 2341, "pitch": 42, "duration": 9, "velocity": 66}, {"time": 2341, "pitch": 58, "duration": 6, "velocity": 60}, {"time": 2341, "pitch": 61, "duration": 6, "velocity": 72}, {"time": 2341, "pitch": 66, "duration": 4, "velocity": 72}, {"time": 2347, "pitch": 54, "duration": 1, "velocity": 55}, {"time": 2353, "pitch": 49, "duration": 11, "velocity": 67}, {"time": 2353, "pitch": 56, "duration": 7, "velocity": 62}, {"time": 2353, "pitch": 61, "duration": 7, "velocity": 63}, {"time": 2353, "pitch": 63, "duration": 7, "velocity": 62}, {"time": 2353, "pitch": 65, "duration": 6, "velocity": 70}, {"time": 2362, "pitch": 56, "duration": 1, "velocity": 66}, {"time": 2362, "pitch": 61, "duration": 1, "velocity": 58}, {"time": 2362, "pitch": 63, "duration": 1, "velocity": 61}, {"time": 2362, "pitch": 65, "duration": 1, "velocity": 59}, {"time": 2371, "pitch": 49, "duration": 10, "velocity": 21}, {"time": 2371, "pitch": 56, "duration": 6, "velocity": 64}, {"time": 2371, "pitch": 61, "duration": 6, "velocity": 66}, {"time": 2371, "pitch": 63, "duration": 6, "velocity": 64}, {"time": 2371, "pitch": 65, "duration": 5, "velocity": 69}, {"time": 2380, "pitch": 56, "duration": 4, "velocity": 58}, {"time": 2380, "pitch": 61, "duration": 4, "velocity": 64}, {"time": 2380, "pitch": 63, "duration": 4, "velocity": 60}, {"time": 2380, "pitch": 65, "duration": 3, "velocity": 62}, {"time": 2386, "pitch": 49, "duration": 5, "velocity": 47}, {"time": 2389, "pitch": 56, "duration": 6, "velocity": 62}, {"time": 2389, "pitch": 61, "duration": 6, "velocity": 60}, {"time": 2389, "pitch": 63, "duration": 5, "velocity": 66}, {"time": 2389, "pitch": 65, "duration": 5, "velocity": 64}, {"time": 2395, "pitch": 49, "duration": 5, "velocity": 63}, {"time": 2398, "pitch": 48, "duration": 2, "velocity": 62}, {"time": 2401, "pitch": 46, "duration": 26, "velocity": 73}, {"time": 2401, "pitch": 56, "duration": 6, "velocity": 66}, {"time": 2401, "pitch": 61, "duration": 6, "velocity": 69}, {"time": 2401, "pitch": 65, "duration": 5, "velocity": 67}, {"time": 2410, "pitch": 56, "duration": 2, "velocity": 67}, {"time": 2410, "pitch": 61, "duration": 2, "velocity": 66}, {"time": 2410, "pitch": 65, "duration": 3, "velocity": 69}, {"time": 2419, "pitch": 53, "duration": 9, "velocity": 70}, {"time": 2419, "pitch": 56, "duration": 3, "velocity": 67}, {"time": 2419, "pitch": 61, "duration": 2, "velocity": 73}, {"time": 2419, "pitch": 65, "duration": 3, "velocity": 70}, {"time": 2428, "pitch": 56, "duration": 5, "velocity": 63}, {"time": 2428, "pitch": 61, "duration": 5, "velocity": 70}, {"time": 2428, "pitch": 68, "duration": 6, "velocity": 70}, {"time": 2434, "pitch": 46, "duration": 7, "velocity": 66}, {"time": 2437, "pitch": 56, "duration": 3, "velocity": 76}, {"time": 2437, "pitch": 61, "duration": 3, "velocity": 75}, {"time": 2437, "pitch": 65, "duration": 4, "velocity": 62}, {"time": 2440, "pitch": 53, "duration": 1, "velocity": 73}, {"time": 2443, "pitch": 63, "duration": 4, "velocity": 53}, {"time": 2446, "pitch": 65, "duration": 2, "velocity": 67}, {"time": 2449, "pitch": 39, "duration": 14, "velocity": 62}, {"time": 2449, "pitch": 51, "duration": 8, "velocity": 54}, {"time": 2449, "pitch": 58, "duration": 5, "velocity": 69}, {"time": 2449, "pitch": 61, "duration": 6, "velocity": 67}, {"time": 2449, "pitch": 66, "duration": 5, "velocity": 82}, {"time": 2458, "pitch": 58, "duration": 4, "velocity": 59}, {"time": 2458, "pitch": 61, "duration": 4, "velocity": 69}, {"time": 2458, "pitch": 66, "duration": 4, "velocity": 72}, {"time": 2461, "pitch": 51, "duration": 3, "velocity": 55}, {"time": 2467, "pitch": 58, "duration": 2, "velocity": 45}, {"time": 2467, "pitch": 61, "duration": 3, "velocity": 61}, {"time": 2467, "pitch": 66, "duration": 3, "velocity": 57}, {"time": 2473, "pitch": 44, "duration": 14, "velocity": 56}, {"time": 2473, "pitch": 51, "duration": 8, "velocity": 56}, {"time": 2473, "pitch": 56, "duration": 9, "velocity": 53}, {"time": 2473, "pitch": 58, "duration": 5, "velocity": 60}, {"time": 2473, "pitch": 61, "duration": 5, "velocity": 55}, {"time": 2473, "pitch": 65, "duration": 6, "velocity": 67}, {"time": 2482, "pitch": 58, "duration": 4, "velocity": 58}, {"time": 2482, "pitch": 61, "duration": 4, "velocity": 67}, {"time": 2482, "pitch": 66, "duration": 4, "velocity": 72}, {"time": 2485, "pitch": 51, "duration": 2, "velocity": 63}, {"time": 2491, "pitch": 61, "duration": 4, "velocity": 58}, {"time": 2494, "pitch": 66, "duration": 2, "velocity": 56}, {"time": 2497, "pitch": 37, "duration": 21, "velocity": 70}, {"time": 2497, "pitch": 56, "duration": 4, "velocity": 61}, {"time": 2497, "pitch": 61, "duration": 6, "velocity": 70}, {"time": 2497, "pitch": 65, "duration": 6, "velocity": 70}, {"time": 2503, "pitch": 49, "duration": 3, "velocity": 43}, {"time": 2506, "pitch": 58, "duration": 3, "velocity": 67}, {"time": 2506, "pitch": 61, "duration": 3, "velocity": 70}, {"time": 2506, "pitch": 66, "duration": 2, "velocity": 63}, {"time": 2509, "pitch": 49, "duration": 6, "velocity": 48}, {"time": 2515, "pitch": 68, "duration": 4, "velocity": 58}, {"time": 2521, "pitch": 37, "duration": 10, "velocity": 63}, {"time": 2521, "pitch": 49, "duration": 12, "velocity": 59}, {"time": 2521, "pitch": 56, "duration": 7, "velocity": 55}, {"time": 2521, "pitch": 61, "duration": 7, "velocity": 63}, {"time": 2521, "pitch": 65, "duration": 7, "velocity": 61}, {"time": 2545, "pitch": 61, "duration": 44, "velocity": 55}, {"time": 2545, "pitch": 80, "duration": 14, "velocity": 59}, {"time": 2551, "pitch": 65, "duration": 9, "velocity": 47}, {"time": 2551, "pitch": 68, "duration": 8, "velocity": 44}, {"time": 2557, "pitch": 73, "duration": 3, "velocity": 61}, {"time": 2563, "pitch": 75, "duration": 5, "velocity": 52}, {"time": 2569, "pitch": 68, "duration": 6, "velocity": 56}, {"time": 2569, "pitch": 73, "duration": 4, "velocity": 52}, {"time": 2569, "pitch": 77, "duration": 7, "velocity": 60}, {"time": 2575, "pitch": 65, "duration": 9, "velocity": 29}, {"time": 2581, "pitch": 68, "duration": 5, "velocity": 49}, {"time": 2587, "pitch": 75, "duration": 5, "velocity": 48}, {"time": 2590, "pitch": 68, "duration": 3, "velocity": 42}, {"time": 2590, "pitch": 72, "duration": 7, "velocity": 52}, {"time": 2593, "pitch": 53, "duration": 40, "velocity": 44}, {"time": 2593, "pitch": 80, "duration": 13, "velocity": 60}, {"time": 2599, "pitch": 60, "duration": 34, "velocity": 45}, {"time": 2599, "pitch": 75, "duration": 6, "velocity": 53}, {"time": 2605, "pitch": 65, "duration": 16, "velocity": 46}, {"time": 2605, "pitch": 72, "duration": 11, "velocity": 48}, {"time": 2611, "pitch": 68, "duration": 13, "velocity": 44}, {"time": 2617, "pitch": 75, "duration": 8, "velocity": 44}, {"time": 2629, "pitch": 65, "duration": 4, "velocity": 41}, {"time": 2629, "pitch": 68, "duration": 6, "velocity": 48}, {"time": 2629, "pitch": 75, "duration": 3, "velocity": 54}, {"time": 2641, "pitch": 42, "duration": 6, "velocity": 62}, {"time": 2641, "pitch": 61, "duration": 12, "velocity": 53}, {"time": 2641, "pitch": 66, "duration": 13, "velocity": 55}, {"time": 2641, "pitch": 70, "duration": 13, "velocity": 52}, {"time": 2647, "pitch": 54, "duration": 8, "velocity": 53}, {"time": 2653, "pitch": 58, "duration": 25, "velocity": 40}, {"time": 2659, "pitch": 61, "duration": 12, "velocity": 60}, {"time": 2665, "pitch": 66, "duration": 7, "velocity": 54}, {"time": 2671, "pitch": 68, "duration": 7, "velocity": 59}, {"time": 2677, "pitch": 70, "duration": 5, "velocity": 47}, {"time": 2683, "pitch": 73, "duration": 7, "velocity": 50}, {"time": 2689, "pitch": 44, "duration": 11, "velocity": 50}, {"time": 2689, "pitch": 68, "duration": 8, "velocity": 54}, {"time": 2689, "pitch": 72, "duration": 9, "velocity": 53}, {"time": 2695, "pitch": 51, "duration": 5, "velocity": 36}, {"time": 2701, "pitch": 56, "duration": 6, "velocity": 44}, {"time": 2707, "pitch": 58, "duration": 20, "velocity": 46}, {"time": 2707, "pitch": 70, "duration": 3, "velocity": 43}, {"time": 2707, "pitch": 78, "duration": 7, "velocity": 56}, {"time": 2713, "pitch": 60, "duration": 13, "velocity": 49}, {"time": 2713, "pitch": 68, "duration": 2, "velocity": 45}, {"time": 2713, "pitch": 77, "duration": 5, "velocity": 62}, {"time": 2719, "pitch": 68, "duration": 2, "velocity": 38}, {"time": 2719, "pitch": 75, "duration": 3, "velocity": 61}, {"time": 2725, "pitch": 73, "duration": 1, "velocity": 55}, {"time": 2731, "pitch": 72, "duration": 2, "velocity": 58}, {"time": 2737, "pitch": 53, "duration": 40, "velocity": 55}, {"time": 2737, "pitch": 63, "duration": 7, "velocity": 48}, {"time": 2737, "pitch": 68, "duration": 7, "velocity": 49}, {"time": 2743, "pitch": 60, "duration": 13, "velocity": 35}, {"time": 2749, "pitch": 63, "duration": 5, "velocity": 49}, {"time": 2755, "pitch": 70, "duration": 5, "velocity": 59}, {"time": 2761, "pitch": 60, "duration": 15, "velocity": 45}, {"time": 2761, "pitch": 65, "duration": 7, "velocity": 52}, {"time": 2761, "pitch": 68, "duration": 7, "velocity": 55}, {"time": 2761, "pitch": 72, "duration": 8, "velocity": 55}, {"time": 2773, "pitch": 65, "duration": 3, "velocity": 44}, {"time": 2773, "pitch": 75, "duration": 4, "velocity": 57}, {"time": 2779, "pitch": 72, "duration": 5, "velocity": 64}, {"time": 2785, "pitch": 46, "duration": 38, "velocity": 54}, {"time": 2785, "pitch": 65, "duration": 9, "velocity": 52}, {"time": 2785, "pitch": 68, "duration": 9, "velocity": 56}, {"time": 2785, "pitch": 73, "duration": 10, "velocity": 72}, {"time": 2791, "pitch": 53, "duration": 32, "velocity": 38}, {"time": 2797, "pitch": 65, "duration": 5, "velocity": 52}, {"time": 2797, "pitch": 68, "duration": 5, "velocity": 55}, {"time": 2797, "pitch": 73, "duration": 6, "velocity": 55}, {"time": 2803, "pitch": 58, "duration": 12, "velocity": 34}, {"time": 2809, "pitch": 65, "duration": 3, "velocity": 48}, {"time": 2809, "pitch": 72, "duration": 5, "velocity": 57}, {"time": 2815, "pitch": 73, "duration": 7, "velocity": 70}, {"time": 2821, "pitch": 58, "duration": 3, "velocity": 50}, {"time": 2821, "pitch": 65, "duration": 5, "velocity": 63}, {"time": 2821, "pitch": 68, "duration": 7, "velocity": 55}, {"time": 2833, "pitch": 51, "duration": 15, "velocity": 55}, {"time": 2833, "pitch": 58, "duration": 13, "velocity": 60}, {"time": 2833, "pitch": 63, "duration": 7, "velocity": 55}, {"time": 2833, "pitch": 66, "duration": 7, "velocity": 58}, {"time": 2833, "pitch": 70, "duration": 7, "velocity": 58}, {"time": 2833, "pitch": 73, "duration": 7, "velocity": 48}, {"time": 2845, "pitch": 63, "duration": 5, "velocity": 48}, {"time": 2845, "pitch": 66, "duration": 5, "velocity": 55}, {"time": 2845, "pitch": 70, "duration": 6, "velocity": 51}, {"time": 2857, "pitch": 44, "duration": 17, "velocity": 49}, {"time": 2857, "pitch": 61, "duration": 6, "velocity": 62}, {"time": 2857, "pitch": 66, "duration": 7, "velocity": 66}, {"time": 2857, "pitch": 70, "duration": 6, "velocity": 56}, {"time": 2863, "pitch": 56, "duration": 8, "velocity": 37}, {"time": 2869, "pitch": 61, "duration": 3, "velocity": 66}, {"time": 2869, "pitch": 66, "duration": 3, "velocity": 67}, {"time": 2869, "pitch": 70, "duration": 3, "velocity": 64}, {"time": 2875, "pitch": 51, "duration": 1, "velocity": 52}, {"time": 2881, "pitch": 37, "duration": 21, "velocity": 64}, {"time": 2881, "pitch": 56, "duration": 7, "velocity": 62}, {"time": 2881, "pitch": 61, "duration": 7, "velocity": 67}, {"time": 2881, "pitch": 65, "duration": 9, "velocity": 66}, {"time": 2887, "pitch": 49, "duration": 6, "velocity": 32}, {"time": 2893, "pitch": 58, "duration": 5, "velocity": 51}, {"time": 2893, "pitch": 61, "duration": 5, "velocity": 63}, {"time": 2893, "pitch": 66, "duration": 4, "velocity": 61}, {"time": 2899, "pitch": 49, "duration": 3, "velocity": 49}, {"time": 2905, "pitch": 37, "duration": 7, "velocity": 70}, {"time": 2905, "pitch": 56, "duration": 3, "velocity": 63}, {"time": 2905, "pitch": 61, "duration": 4, "velocity": 70}, {"time": 2905, "pitch": 65, "duration": 6, "velocity": 72}, {"time": 2911, "pitch": 39, "duration": 7, "velocity": 63}, {"time": 2911, "pitch": 58, "duration": 3, "velocity": 62}, {"time": 2911, "pitch": 61, "duration": 3, "velocity": 54}, {"time": 2911, "pitch": 66, "duration": 3, "velocity": 69}, {"time": 2917, "pitch": 41, "duration": 7, "velocity": 66}, {"time": 2917, "pitch": 61, "duration": 2, "velocity": 66}, {"time": 2917, "pitch": 68, "duration": 3, "velocity": 69}, {"time": 2923, "pitch": 44, "duration": 6, "velocity": 69}, {"time": 2923, "pitch": 70, "duration": 5, "velocity": 57}, {"time": 2929, "pitch": 37, "duration": 3, "velocity": 70}, {"time": 2929, "pitch": 65, "duration": 8, "velocity": 64}, {"time": 2929, "pitch": 68, "duration": 7, "velocity": 69}, {"time": 2929, "pitch": 73, "duration": 7, "velocity": 69}, {"time": 2938, "pitch": 49, "duration": 31, "velocity": 56}, {"time": 2941, "pitch": 65, "duration": 5, "velocity": 73}, {"time": 2941, "pitch": 68, "duration": 6, "velocity": 76}, {"time": 2941, "pitch": 73, "duration": 7, "velocity": 75}, {"time": 2947, "pitch": 56, "duration": 16, "velocity": 46}, {"time": 2953, "pitch": 63, "duration": 3, "velocity": 64}, {"time": 2953, "pitch": 68, "duration": 4, "velocity": 55}, {"time": 2953, "pitch": 72, "duration": 5, "velocity": 72}, {"time": 2956, "pitch": 61, "duration": 2, "velocity": 40}, {"time": 2962, "pitch": 65, "duration": 4, "velocity": 58}, {"time": 2962, "pitch": 68, "duration": 4, "velocity": 61}, {"time": 2962, "pitch": 73, "duration": 6, "velocity": 60}, {"time": 2965, "pitch": 56, "duration": 5, "velocity": 34}, {"time": 2965, "pitch": 61, "duration": 3, "velocity": 50}, {"time": 2971, "pitch": 48, "duration": 2, "velocity": 59}, {"time": 2971, "pitch": 68, "duration": 3, "velocity": 59}, {"time": 2974, "pitch": 70, "duration": 2, "velocity": 62}, {"time": 2977, "pitch": 46, "duration": 41, "velocity": 63}, {"time": 2977, "pitch": 65, "duration": 6, "velocity": 61}, {"time": 2977, "pitch": 68, "duration": 6, "velocity": 66}, {"time": 2977, "pitch": 73, "duration": 7, "velocity": 66}, {"time": 2983, "pitch": 53, "duration": 34, "velocity": 44}, {"time": 2986, "pitch": 63, "duration": 2, "velocity": 58}, {"time": 2986, "pitch": 72, "duration": 2, "velocity": 69}, {"time": 2989, "pitch": 58, "duration": 6, "velocity": 41}, {"time": 2995, "pitch": 61, "duration": 3, "velocity": 64}, {"time": 2995, "pitch": 68, "duration": 5, "velocity": 66}, {"time": 3001, "pitch": 65, "duration": 6, "velocity": 67}, {"time": 3001, "pitch": 70, "duration": 7, "velocity": 63}, {"time": 3007, "pitch": 58, "duration": 6, "velocity": 47}, {"time": 3010, "pitch": 61, "duration": 4, "velocity": 58}, {"time": 3013, "pitch": 63, "duration": 3, "velocity": 39}, {"time": 3016, "pitch": 65, "duration": 3, "velocity": 52}, {"time": 3019, "pitch": 66, "duration": 3, "velocity": 69}, {"time": 3022, "pitch": 68, "duration": 2, "velocity": 62}, {"time": 3025, "pitch": 51, "duration": 38, "velocity": 69}, {"time": 3025, "pitch": 61, "duration": 6, "velocity": 63}, {"time": 3025, "pitch": 63, "duration": 6, "velocity": 45}, {"time": 3025, "pitch": 66, "duration": 7, "velocity": 67}, {"time": 3031, "pitch": 58, "duration": 8, "velocity": 48}, {"time": 3037, "pitch": 61, "duration": 6, "velocity": 63}, {"time": 3037, "pitch": 63, "duration": 5, "velocity": 61}, {"time": 3037, "pitch": 66, "duration": 6, "velocity": 64}, {"time": 3043, "pitch": 58, "duration": 20, "velocity": 27}, {"time": 3049, "pitch": 61, "duration": 6, "velocity": 57}, {"time": 3049, "pitch": 63, "duration": 5, "velocity": 62}, {"time": 3049, "pitch": 66, "duration": 5, "velocity": 61}, {"time": 3061, "pitch": 61, "duration": 6, "velocity": 64}, {"time": 3061, "pitch": 63, "duration": 8, "velocity": 66}, {"time": 3061, "pitch": 66, "duration": 5, "velocity": 72}, {"time": 3067, "pitch": 51, "duration": 2, "velocity": 61}, {"time": 3073, "pitch": 44, "duration": 20, "velocity": 72}, {"time": 3073, "pitch": 58, "duration": 7, "velocity": 61}, {"time": 3073, "pitch": 61, "duration": 7, "velocity": 64}, {"time": 3073, "pitch": 66, "duration": 6, "velocity": 66}, {"time": 3079, "pitch": 51, "duration": 20, "velocity": 43}, {"time": 3085, "pitch": 58, "duration": 3, "velocity": 70}, {"time": 3085, "pitch": 61, "duration": 4, "velocity": 80}, {"time": 3085, "pitch": 66, "duration": 3, "velocity": 75}, {"time": 3091, "pitch": 56, "duration": 3, "velocity": 53}, {"time": 3097, "pitch": 44, "duration": 9, "velocity": 72}, {"time": 3097, "pitch": 60, "duration": 5, "velocity": 67}, {"time": 3097, "pitch": 63, "duration": 6, "velocity": 62}, {"time": 3097, "pitch": 68, "duration": 5, "velocity": 72}, {"time": 3103, "pitch": 56, "duration": 3, "velocity": 44}, {"time": 3109, "pitch": 42, "duration": 7, "velocity": 72}, {"time": 3109, "pitch": 58, "duration": 6, "velocity": 57}, {"time": 3109, "pitch": 61, "duration": 6, "velocity": 69}, {"time": 3109, "pitch": 66, "duration": 6, "velocity": 73}, {"time": 3115, "pitch": 54, "duration": 2, "velocity": 48}, {"time": 3121, "pitch": 41, "duration": 37, "velocity": 75}, {"time": 3121, "pitch": 56, "duration": 6, "velocity": 58}, {"time": 3121, "pitch": 60, "duration": 6, "velocity": 67}, {"time": 3121, "pitch": 63, "duration": 6, "velocity": 69}, {"time": 3121, "pitch": 68, "duration": 8, "velocity": 59}, {"time": 3127, "pitch": 53, "duration": 8, "velocity": 38}, {"time": 3133, "pitch": 56, "duration": 6, "velocity": 60}, {"time": 3133, "pitch": 60, "duration": 6, "velocity": 62}, {"time": 3133, "pitch": 63, "duration": 6, "velocity": 64}, {"time": 3133, "pitch": 68, "duration": 11, "velocity": 54}, {"time": 3139, "pitch": 53, "duration": 7, "velocity": 44}, {"time": 3145, "pitch": 56, "duration": 9, "velocity": 64}, {"time": 3145, "pitch": 60, "duration": 9, "velocity": 73}, {"time": 3145, "pitch": 63, "duration": 9, "velocity": 75}, {"time": 3145, "pitch": 68, "duration": 9, "velocity": 62}, {"time": 3151, "pitch": 53, "duration": 8, "velocity": 59}, {"time": 3157, "pitch": 56, "duration": 5, "velocity": 66}, {"time": 3157, "pitch": 60, "duration": 5, "velocity": 82}, {"time": 3157, "pitch": 63, "duration": 6, "velocity": 69}, {"time": 3157, "pitch": 68, "duration": 9, "velocity": 75}, {"time": 3163, "pitch": 44, "duration": 7, "velocity": 55}, {"time": 3169, "pitch": 46, "duration": 18, "velocity": 70}, {"time": 3169, "pitch": 58, "duration": 5, "velocity": 59}, {"time": 3169, "pitch": 61, "duration": 8, "velocity": 75}, {"time": 3169, "pitch": 65, "duration": 7, "velocity": 70}, {"time": 3169, "pitch": 68, "duration": 1, "velocity": 50}, {"time": 3181, "pitch": 53, "duration": 13, "velocity": 60}, {"time": 3181, "pitch": 60, "duration": 3, "velocity": 66}, {"time": 3181, "pitch": 63, "duration": 4, "velocity": 69}, {"time": 3187, "pitch": 58, "duration": 3, "velocity": 55}, {"time": 3187, "pitch": 61, "duration": 2, "velocity": 66}, {"time": 3187, "pitch": 65, "duration": 5, "velocity": 64}, {"time": 3193, "pitch": 46, "duration": 20, "velocity": 73}, {"time": 3193, "pitch": 61, "duration": 7, "velocity": 75}, {"time": 3193, "pitch": 68, "duration": 7, "velocity": 73}, {"time": 3199, "pitch": 53, "duration": 10, "velocity": 62}, {"time": 3202, "pitch": 58, "duration": 7, "velocity": 67}, {"time": 3205, "pitch": 60, "duration": 3, "velocity": 76}, {"time": 3208, "pitch": 61, "duration": 1, "velocity": 48}, {"time": 3211, "pitch": 53, "duration": 1, "velocity": 72}, {"time": 3211, "pitch": 63, "duration": 4, "velocity": 53}, {"time": 3214, "pitch": 65, "duration": 2, "velocity": 63}, {"time": 3217, "pitch": 39, "duration": 33, "velocity": 69}, {"time": 3217, "pitch": 51, "duration": 12, "velocity": 64}, {"time": 3217, "pitch": 58, "duration": 8, "velocity": 69}, {"time": 3217, "pitch": 61, "duration": 7, "velocity": 73}, {"time": 3217, "pitch": 66, "duration": 7, "velocity": 73}, {"time": 3229, "pitch": 58, "duration": 6, "velocity": 67}, {"time": 3229, "pitch": 61, "duration": 6, "velocity": 70}, {"time": 3229, "pitch": 66, "duration": 5, "velocity": 72}, {"time": 3235, "pitch": 51, "duration": 14, "velocity": 45}, {"time": 3241, "pitch": 58, "duration": 7, "velocity": 66}, {"time": 3241, "pitch": 61, "duration": 7, "velocity": 73}, {"time": 3241, "pitch": 66, "duration": 6, "velocity": 72}, {"time": 3250, "pitch": 58, "duration": 3, "velocity": 53}, {"time": 3250, "pitch": 61, "duration": 4, "velocity": 57}, {"time": 3250, "pitch": 66, "duration": 3, "velocity": 49}, {"time": 3253, "pitch": 39, "duration": 3, "velocity": 49}, {"time": 3253, "pitch": 51, "duration": 5, "velocity": 53}, {"time": 3259, "pitch": 58, "duration": 3, "velocity": 66}, {"time": 3259, "pitch": 61, "duration": 4, "velocity": 72}, {"time": 3259, "pitch": 66, "duration": 2, "velocity": 70}, {"time": 3265, "pitch": 44, "duration": 20, "velocity": 64}, {"time": 3265, "pitch": 51, "duration": 17, "velocity": 60}, {"time": 3265, "pitch": 56, "duration": 3, "velocity": 62}, {"time": 3265, "pitch": 58, "duration": 8, "velocity": 63}, {"time": 3265, "pitch": 61, "duration": 7, "velocity": 69}, {"time": 3265, "pitch": 66, "duration": 7, "velocity": 70}, {"time": 3271, "pitch": 56, "duration": 7, "velocity": 51}, {"time": 3277, "pitch": 58, "duration": 3, "velocity": 70}, {"time": 3277, "pitch": 61, "duration": 3, "velocity": 82}, {"time": 3277, "pitch": 66, "duration": 3, "velocity": 78}, {"time": 3283, "pitch": 56, "duration": 3, "velocity": 59}, {"time": 3289, "pitch": 44, "duration": 6, "velocity": 66}, {"time": 3289, "pitch": 56, "duration": 2, "velocity": 69}, {"time": 3289, "pitch": 60, "duration": 1, "velocity": 75}, {"time": 3289, "pitch": 61, "duration": 1, "velocity": 75}, {"time": 3289, "pitch": 68, "duration": 2, "velocity": 80}, {"time": 3295, "pitch": 56, "duration": 7, "velocity": 56}, {"time": 3295, "pitch": 61, "duration": 1, "velocity": 60}, {"time": 3295, "pitch": 70, "duration": 1, "velocity": 70}, {"time": 3301, "pitch": 58, "duration": 7, "velocity": 67}, {"time": 3301, "pitch": 63, "duration": 1, "velocity": 62}, {"time": 3301, "pitch": 72, "duration": 2, "velocity": 76}, {"time": 3307, "pitch": 60, "duration": 1, "velocity": 72}, {"time": 3307, "pitch": 65, "duration": 1, "velocity": 44}, {"time": 3307, "pitch": 66, "duration": 1, "velocity": 42}, {"time": 3307, "pitch": 73, "duration": 1, "velocity": 62}, {"time": 3313, "pitch": 49, "duration": 20, "velocity": 75}, {"time": 3313, "pitch": 68, "duration": 7, "velocity": 50}, {"time": 3313, "pitch": 77, "duration": 7, "velocity": 60}, {"time": 3319, "pitch": 56, "duration": 16, "velocity": 56}, {"time": 3322, "pitch": 61, "duration": 11, "velocity": 60}, {"time": 3325, "pitch": 63, "duration": 3, "velocity": 66}, {"time": 3328, "pitch": 65, "duration": 4, "velocity": 56}, {"time": 3331, "pitch": 66, "duration": 2, "velocity": 61}, {"time": 3334, "pitch": 68, "duration": 3, "velocity": 73}, {"time": 3337, "pitch": 49, "duration": 9, "velocity": 64}, {"time": 3337, "pitch": 73, "duration": 4, "velocity": 56}, {"time": 3343, "pitch": 56, "duration": 6, "velocity": 52}, {"time": 3343, "pitch": 68, "duration": 4, "velocity": 69}, {"time": 3343, "pitch": 80, "duration": 4, "velocity": 73}, {"time": 3349, "pitch": 61, "duration": 6, "velocity": 59}, {"time": 3349, "pitch": 68, "duration": 3, "velocity": 64}, {"time": 3349, "pitch": 78, "duration": 4, "velocity": 75}, {"time": 3355, "pitch": 63, "duration": 1, "velocity": 66}, {"time": 3355, "pitch": 68, "duration": 2, "velocity": 61}, {"time": 3355, "pitch": 77, "duration": 4, "velocity": 62}, {"time": 3361, "pitch": 46, "duration": 39, "velocity": 69}, {"time": 3361, "pitch": 68, "duration": 5, "velocity": 67}, {"time": 3361, "pitch": 75, "duration": 3, "velocity": 63}, {"time": 3367, "pitch": 53, "duration": 33, "velocity": 52}, {"time": 3370, "pitch": 65, "duration": 2, "velocity": 69}, {"time": 3370, "pitch": 73, "duration": 2, "velocity": 72}, {"time": 3373, "pitch": 58, "duration": 5, "velocity": 46}, {"time": 3379, "pitch": 63, "duration": 2, "velocity": 72}, {"time": 3379, "pitch": 72, "duration": 2, "velocity": 76}, {"time": 3385, "pitch": 58, "duration": 3, "velocity": 44}, {"time": 3388, "pitch": 65, "duration": 5, "velocity": 62}, {"time": 3388, "pitch": 73, "duration": 6, "velocity": 67}, {"time": 3394, "pitch": 58, "duration": 3, "velocity": 59}, {"time": 3397, "pitch": 65, "duration": 3, "velocity": 69}, {"time": 3397, "pitch": 72, "duration": 4, "velocity": 66}, {"time": 3400, "pitch": 58, "duration": 2, "velocity": 54}, {"time": 3403, "pitch": 68, "duration": 4, "velocity": 62}, {"time": 3409, "pitch": 51, "duration": 19, "velocity": 72}, {"time": 3409, "pitch": 63, "duration": 6, "velocity": 67}, {"time": 3409, "pitch": 66, "duration": 6, "velocity": 66}, {"time": 3409, "pitch": 70, "duration": 6, "velocity": 64}, {"time": 3412, "pitch": 73, "duration": 3, "velocity": 13}, {"time": 3415, "pitch": 58, "duration": 10, "velocity": 46}, {"time": 3418, "pitch": 65, "duration": 3, "velocity": 56}, {"time": 3418, "pitch": 66, "duration": 3, "velocity": 62}, {"time": 3418, "pitch": 70, "duration": 2, "velocity": 44}, {"time": 3421, "pitch": 63, "duration": 8, "velocity": 41}, {"time": 3427, "pitch": 58, "duration": 5, "velocity": 61}, {"time": 3427, "pitch": 65, "duration": 2, "velocity": 60}, {"time": 3430, "pitch": 66, "duration": 2, "velocity": 67}, {"time": 3433, "pitch": 51, "duration": 20, "velocity": 67}, {"time": 3433, "pitch": 70, "duration": 3, "velocity": 63}, {"time": 3436, "pitch": 73, "duration": 2, "velocity": 49}, {"time": 3439, "pitch": 58, "duration": 7, "velocity": 50}, {"time": 3439, "pitch": 77, "duration": 2, "velocity": 47}, {"time": 3442, "pitch": 78, "duration": 4, "velocity": 55}, {"time": 3445, "pitch": 63, "duration": 3, "velocity": 61}, {"time": 3445, "pitch": 77, "duration": 3, "velocity": 59}, {"time": 3448, "pitch": 73, "duration": 3, "velocity": 57}, {"time": 3451, "pitch": 58, "duration": 1, "velocity": 56}, {"time": 3451, "pitch": 70, "duration": 2, "velocity": 62}, {"time": 3454, "pitch": 68, "duration": 3, "velocity": 54}, {"time": 3457, "pitch": 44, "duration": 11, "velocity": 70}, {"time": 3457, "pitch": 63, "duration": 7, "velocity": 61}, {"time": 3457, "pitch": 70, "duration": 8, "velocity": 50}, {"time": 3463, "pitch": 51, "duration": 5, "velocity": 60}, {"time": 3469, "pitch": 56, "duration": 7, "velocity": 48}, {"time": 3469, "pitch": 63, "duration": 2, "velocity": 69}, {"time": 3469, "pitch": 72, "duration": 2, "velocity": 75}, {"time": 3475, "pitch": 58, "duration": 15, "velocity": 60}, {"time": 3475, "pitch": 65, "duration": 2, "velocity": 57}, {"time": 3475, "pitch": 73, "duration": 2, "velocity": 66}, {"time": 3481, "pitch": 60, "duration": 19, "velocity": 60}, {"time": 3481, "pitch": 66, "duration": 2, "velocity": 55}, {"time": 3481, "pitch": 75, "duration": 2, "velocity": 69}, {"time": 3487, "pitch": 61, "duration": 7, "velocity": 59}, {"time": 3487, "pitch": 65, "duration": 3, "velocity": 53}, {"time": 3487, "pitch": 73, "duration": 3, "velocity": 63}, {"time": 3493, "pitch": 63, "duration": 6, "velocity": 63}, {"time": 3493, "pitch": 72, "duration": 7, "velocity": 56}, {"time": 3499, "pitch": 58, "duration": 6, "velocity": 59}, {"time": 3499, "pitch": 70, "duration": 6, "velocity": 69}, {"time": 3505, "pitch": 53, "duration": 40, "velocity": 67}, {"time": 3505, "pitch": 63, "duration": 7, "velocity": 58}, {"time": 3505, "pitch": 68, "duration": 7, "velocity": 62}, {"time": 3511, "pitch": 60, "duration": 8, "velocity": 57}, {"time": 3517, "pitch": 63, "duration": 6, "velocity": 51}, {"time": 3517, "pitch": 68, "duration": 6, "velocity": 57}, {"time": 3517, "pitch": 72, "duration": 6, "velocity": 59}, {"time": 3523, "pitch": 60, "duration": 7, "velocity": 39}, {"time": 3529, "pitch": 63, "duration": 6, "velocity": 58}, {"time": 3529, "pitch": 68, "duration": 6, "velocity": 58}, {"time": 3529, "pitch": 72, "duration": 6, "velocity": 58}, {"time": 3535, "pitch": 60, "duration": 4, "velocity": 42}, {"time": 3541, "pitch": 63, "duration": 3, "velocity": 66}, {"time": 3541, "pitch": 68, "duration": 2, "velocity": 57}, {"time": 3541, "pitch": 72, "duration": 4, "velocity": 66}, {"time": 3544, "pitch": 60, "duration": 2, "velocity": 64}, {"time": 3547, "pitch": 70, "duration": 5, "velocity": 59}, {"time": 3550, "pitch": 72, "duration": 2, "velocity": 64}, {"time": 3553, "pitch": 46, "duration": 11, "velocity": 69}, {"time": 3553, "pitch": 65, "duration": 7, "velocity": 70}, {"time": 3553, "pitch": 68, "duration": 7, "velocity": 69}, {"time": 3553, "pitch": 73, "duration": 7, "velocity": 75}, {"time": 3559, "pitch": 53, "duration": 6, "velocity": 44}, {"time": 3565, "pitch": 58, "duration": 7, "velocity": 44}, {"time": 3565, "pitch": 65, "duration": 6, "velocity": 59}, {"time": 3565, "pitch": 68, "duration": 6, "velocity": 54}, {"time": 3565, "pitch": 73, "duration": 6, "velocity": 56}, {"time": 3571, "pitch": 60, "duration": 7, "velocity": 58}, {"time": 3577, "pitch": 61, "duration": 6, "velocity": 70}, {"time": 3577, "pitch": 65, "duration": 7, "velocity": 50}, {"time": 3577, "pitch": 68, "duration": 7, "velocity": 53}, {"time": 3577, "pitch": 73, "duration": 7, "velocity": 46}, {"time": 3583, "pitch": 60, "duration": 6, "velocity": 61}, {"time": 3589, "pitch": 56, "duration": 3, "velocity": 59}, {"time": 3589, "pitch": 58, "duration": 3, "velocity": 47}, {"time": 3589, "pitch": 65, "duration": 4, "velocity": 66}, {"time": 3589, "pitch": 68, "duration": 2, "velocity": 66}, {"time": 3589, "pitch": 73, "duration": 4, "velocity": 69}, {"time": 3595, "pitch": 53, "duration": 1, "velocity": 70}, {"time": 3601, "pitch": 39, "duration": 7, "velocity": 75}, {"time": 3601, "pitch": 63, "duration": 6, "velocity": 61}, {"time": 3601, "pitch": 66, "duration": 6, "velocity": 62}, {"time": 3601, "pitch": 70, "duration": 6, "velocity": 58}, {"time": 3601, "pitch": 73, "duration": 6, "velocity": 55}, {"time": 3607, "pitch": 51, "duration": 7, "velocity": 48}, {"time": 3613, "pitch": 53, "duration": 20, "velocity": 62}, {"time": 3613, "pitch": 63, "duration": 6, "velocity": 58}, {"time": 3613, "pitch": 66, "duration": 6, "velocity": 62}, {"time": 3613, "pitch": 70, "duration": 6, "velocity": 50}, {"time": 3613, "pitch": 73, "duration": 9, "velocity": 51}, {"time": 3619, "pitch": 54, "duration": 10, "velocity": 56}, {"time": 3625, "pitch": 63, "duration": 6, "velocity": 54}, {"time": 3625, "pitch": 66, "duration": 6, "velocity": 63}, {"time": 3625, "pitch": 70, "duration": 7, "velocity": 53}, {"time": 3625, "pitch": 73, "duration": 7, "velocity": 55}, {"time": 3631, "pitch": 54, "duration": 3, "velocity": 42}, {"time": 3637, "pitch": 61, "duration": 7, "velocity": 75}, {"time": 3637, "pitch": 66, "duration": 7, "velocity": 62}, {"time": 3637, "pitch": 70, "duration": 7, "velocity": 59}, {"time": 3643, "pitch": 44, "duration": 2, "velocity": 61}, {"time": 3649, "pitch": 37, "duration": 6, "velocity": 63}, {"time": 3649, "pitch": 61, "duration": 7, "velocity": 60}, {"time": 3649, "pitch": 65, "duration": 7, "velocity": 67}, {"time": 3649, "pitch": 68, "duration": 7, "velocity": 58}, {"time": 3655, "pitch": 49, "duration": 7, "velocity": 55}, {"time": 3661, "pitch": 51, "duration": 26, "velocity": 66}, {"time": 3661, "pitch": 61, "duration": 7, "velocity": 64}, {"time": 3661, "pitch": 66, "duration": 7, "velocity": 70}, {"time": 3667, "pitch": 53, "duration": 7, "velocity": 58}, {"time": 3673, "pitch": 54, "duration": 3, "velocity": 63}, {"time": 3673, "pitch": 61, "duration": 6, "velocity": 66}, {"time": 3673, "pitch": 68, "duration": 6, "velocity": 67}, {"time": 3679, "pitch": 54, "duration": 9, "velocity": 50}, {"time": 3685, "pitch": 61, "duration": 1, "velocity": 55}, {"time": 3685, "pitch": 66, "duration": 2, "velocity": 57}, {"time": 3694, "pitch": 68, "duration": 4, "velocity": 44}, {"time": 3697, "pitch": 49, "duration": 10, "velocity": 54}, {"time": 3697, "pitch": 73, "duration": 8, "velocity": 45}, {"time": 3697, "pitch": 80, "duration": 14, "velocity": 61}, {"time": 3703, "pitch": 56, "duration": 5, "velocity": 40}, {"time": 3709, "pitch": 61, "duration": 7, "velocity": 48}, {"time": 3715, "pitch": 63, "duration": 28, "velocity": 49}, {"time": 3715, "pitch": 75, "duration": 7, "velocity": 58}, {"time": 3721, "pitch": 65, "duration": 19, "velocity": 58}, {"time": 3721, "pitch": 73, "duration": 11, "velocity": 67}, {"time": 3733, "pitch": 68, "duration": 6, "velocity": 54}, {"time": 3739, "pitch": 80, "duration": 7, "velocity": 54}, {"time": 3745, "pitch": 58, "duration": 11, "velocity": 54}, {"time": 3745, "pitch": 73, "duration": 15, "velocity": 61}, {"time": 3751, "pitch": 65, "duration": 5, "velocity": 44}, {"time": 3757, "pitch": 68, "duration": 7, "velocity": 40}, {"time": 3763, "pitch": 70, "duration": 23, "velocity": 54}, {"time": 3769, "pitch": 73, "duration": 11, "velocity": 53}, {"time": 3775, "pitch": 77, "duration": 3, "velocity": 48}, {"time": 3775, "pitch": 85, "duration": 2, "velocity": 58}, {"time": 3781, "pitch": 75, "duration": 8, "velocity": 56}, {"time": 3781, "pitch": 84, "duration": 11, "velocity": 69}, {"time": 3793, "pitch": 51, "duration": 38, "velocity": 61}, {"time": 3793, "pitch": 73, "duration": 10, "velocity": 61}, {"time": 3793, "pitch": 78, "duration": 9, "velocity": 55}, {"time": 3793, "pitch": 82, "duration": 7, "velocity": 62}, {"time": 3799, "pitch": 58, "duration": 34, "velocity": 46}, {"time": 3805, "pitch": 63, "duration": 20, "velocity": 49}, {"time": 3811, "pitch": 65, "duration": 2, "velocity": 56}, {"time": 3814, "pitch": 66, "duration": 2, "velocity": 64}, {"time": 3817, "pitch": 68, "duration": 7, "velocity": 67}, {"time": 3823, "pitch": 70, "duration": 6, "velocity": 73}, {"time": 3829, "pitch": 73, "duration": 6, "velocity": 52}, {"time": 3835, "pitch": 77, "duration": 6, "velocity": 50}, {"time": 3841, "pitch": 44, "duration": 10, "velocity": 57}, {"time": 3841, "pitch": 75, "duration": 7, "velocity": 56}, {"time": 3847, "pitch": 51, "duration": 5, "velocity": 55}, {"time": 3853, "pitch": 56, "duration": 7, "velocity": 48}, {"time": 3859, "pitch": 58, "duration": 9, "velocity": 47}, {"time": 3859, "pitch": 65, "duration": 3, "velocity": 56}, {"time": 3859, "pitch": 73, "duration": 3, "velocity": 52}, {"time": 3865, "pitch": 60, "duration": 3, "velocity": 61}, {"time": 3865, "pitch": 63, "duration": 2, "velocity": 60}, {"time": 3865, "pitch": 72, "duration": 2, "velocity": 66}, {"time": 3877, "pitch": 61, "duration": 2, "velocity": 63}, {"time": 3877, "pitch": 70, "duration": 2, "velocity": 72}, {"time": 3889, "pitch": 41, "duration": 6, "velocity": 66}, {"time": 3889, "pitch": 60, "duration": 8, "velocity": 67}, {"time": 3889, "pitch": 68, "duration": 13, "velocity": 72}, {"time": 3895, "pitch": 53, "duration": 6, "velocity": 54}, {"time": 3901, "pitch": 56, "duration": 26, "velocity": 53}, {"time": 3907, "pitch": 60, "duration": 18, "velocity": 62}, {"time": 3913, "pitch": 63, "duration": 6, "velocity": 51}, {"time": 3913, "pitch": 68, "duration": 8, "velocity": 53}, {"time": 3925, "pitch": 70, "duration": 5, "velocity": 46}, {"time": 3931, "pitch": 72, "duration": 5, "velocity": 55}, {"time": 3937, "pitch": 46, "duration": 11, "velocity": 67}, {"time": 3937, "pitch": 65, "duration": 24, "velocity": 54}, {"time": 3937, "pitch": 68, "duration": 25, "velocity": 55}, {"time": 3937, "pitch": 73, "duration": 27, "velocity": 66}, {"time": 3943, "pitch": 53, "duration": 6, "velocity": 49}, {"time": 3949, "pitch": 58, "duration": 7, "velocity": 47}, {"time": 3955, "pitch": 60, "duration": 21, "velocity": 55}, {"time": 3961, "pitch": 61, "duration": 14, "velocity": 58}, {"time": 3973, "pitch": 65, "duration": 4, "velocity": 56}, {"time": 3976, "pitch": 68, "duration": 3, "velocity": 56}, {"time": 3979, "pitch": 70, "duration": 3, "velocity": 55}, {"time": 3982, "pitch": 73, "duration": 16, "velocity": 75}, {"time": 3985, "pitch": 51, "duration": 37, "velocity": 70}, {"time": 3985, "pitch": 66, "duration": 12, "velocity": 69}, {"time": 3985, "pitch": 70, "duration": 10, "velocity": 69}, {"time": 3991, "pitch": 58, "duration": 19, "velocity": 50}, {"time": 3997, "pitch": 63, "duration": 20, "velocity": 60}, {"time": 4003, "pitch": 65, "duration": 7, "velocity": 64}, {"time": 4009, "pitch": 66, "duration": 7, "velocity": 67}, {"time": 4015, "pitch": 68, "duration": 6, "velocity": 61}, {"time": 4021, "pitch": 58, "duration": 2, "velocity": 72}, {"time": 4021, "pitch": 70, "duration": 1, "velocity": 67}, {"time": 4027, "pitch": 73, "duration": 6, "velocity": 66}, {"time": 4033, "pitch": 44, "duration": 18, "velocity": 64}, {"time": 4033, "pitch": 68, "duration": 2, "velocity": 67}, {"time": 4033, "pitch": 75, "duration": 2, "velocity": 73}, {"time": 4039, "pitch": 51, "duration": 6, "velocity": 56}, {"time": 4045, "pitch": 56, "duration": 5, "velocity": 56}, {"time": 4045, "pitch": 61, "duration": 5, "velocity": 80}, {"time": 4045, "pitch": 66, "duration": 5, "velocity": 80}, {"time": 4045, "pitch": 70, "duration": 5, "velocity": 78}, {"time": 4051, "pitch": 51, "duration": 4, "velocity": 57}, {"time": 4054, "pitch": 66, "duration": 1, "velocity": 45}, {"time": 4057, "pitch": 44, "duration": 5, "velocity": 69}, {"time": 4057, "pitch": 56, "duration": 6, "velocity": 88}, {"time": 4057, "pitch": 61, "duration": 4, "velocity": 80}, {"time": 4057, "pitch": 66, "duration": 6, "velocity": 72}, {"time": 4057, "pitch": 70, "duration": 7, "velocity": 75}, {"time": 4066, "pitch": 46, "duration": 7, "velocity": 69}, {"time": 4066, "pitch": 58, "duration": 6, "velocity": 57}, {"time": 4066, "pitch": 63, "duration": 2, "velocity": 80}, {"time": 4066, "pitch": 68, "duration": 2, "velocity": 73}, {"time": 4066, "pitch": 72, "duration": 2, "velocity": 70}, {"time": 4075, "pitch": 48, "duration": 1, "velocity": 62}, {"time": 4075, "pitch": 66, "duration": 1, "velocity": 69}, {"time": 4075, "pitch": 73, "duration": 3, "velocity": 67}, {"time": 4081, "pitch": 49, "duration": 21, "velocity": 70}, {"time": 4081, "pitch": 65, "duration": 6, "velocity": 82}, {"time": 4081, "pitch": 68, "duration": 7, "velocity": 80}, {"time": 4081, "pitch": 73, "duration": 10, "velocity": 73}, {"time": 4087, "pitch": 56, "duration": 11, "velocity": 49}, {"time": 4090, "pitch": 61, "duration": 4, "velocity": 51}, {"time": 4093, "pitch": 63, "duration": 6, "velocity": 60}, {"time": 4093, "pitch": 65, "duration": 6, "velocity": 63}, {"time": 4093, "pitch": 68, "duration": 6, "velocity": 61}, {"time": 4093, "pitch": 73, "duration": 9, "velocity": 48}, {"time": 4099, "pitch": 61, "duration": 3, "velocity": 43}, {"time": 4102, "pitch": 56, "duration": 3, "velocity": 53}, {"time": 4105, "pitch": 49, "duration": 16, "velocity": 72}, {"time": 4105, "pitch": 63, "duration": 7, "velocity": 61}, {"time": 4105, "pitch": 65, "duration": 7, "velocity": 67}, {"time": 4105, "pitch": 68, "duration": 7, "velocity": 69}, {"time": 4105, "pitch": 73, "duration": 10, "velocity": 55}, {"time": 4111, "pitch": 56, "duration": 6, "velocity": 57}, {"time": 4114, "pitch": 61, "duration": 6, "velocity": 63}, {"time": 4117, "pitch": 63, "duration": 3, "velocity": 63}, {"time": 4117, "pitch": 65, "duration": 4, "velocity": 64}, {"time": 4117, "pitch": 68, "duration": 4, "velocity": 66}, {"time": 4117, "pitch": 73, "duration": 4, "velocity": 59}, {"time": 4120, "pitch": 56, "duration": 5, "velocity": 63}, {"time": 4123, "pitch": 63, "duration": 3, "velocity": 67}, {"time": 4123, "pitch": 65, "duration": 1, "velocity": 44}, {"time": 4126, "pitch": 48, "duration": 2, "velocity": 45}, {"time": 4126, "pitch": 68, "duration": 9, "velocity": 58}, {"time": 4129, "pitch": 46, "duration": 19, "velocity": 78}, {"time": 4129, "pitch": 65, "duration": 6, "velocity": 69}, {"time": 4129, "pitch": 73, "duration": 7, "velocity": 69}, {"time": 4135, "pitch": 53, "duration": 18, "velocity": 50}, {"time": 4138, "pitch": 65, "duration": 2, "velocity": 67}, {"time": 4138, "pitch": 72, "duration": 6, "velocity": 61}, {"time": 4138, "pitch": 73, "duration": 1, "velocity": 57}, {"time": 4141, "pitch": 58, "duration": 7, "velocity": 57}, {"time": 4147, "pitch": 63, "duration": 3, "velocity": 70}, {"time": 4147, "pitch": 68, "duration": 7, "velocity": 69}, {"time": 4147, "pitch": 73, "duration": 6, "velocity": 73}, {"time": 4153, "pitch": 46, "duration": 6, "velocity": 69}, {"time": 4156, "pitch": 53, "duration": 3, "velocity": 67}, {"time": 4159, "pitch": 58, "duration": 4, "velocity": 67}, {"time": 4162, "pitch": 60, "duration": 6, "velocity": 60}, {"time": 4165, "pitch": 61, "duration": 3, "velocity": 80}, {"time": 4168, "pitch": 65, "duration": 3, "velocity": 67}, {"time": 4171, "pitch": 68, "duration": 3, "velocity": 57}, {"time": 4174, "pitch": 73, "duration": 12, "velocity": 76}, {"time": 4177, "pitch": 39, "duration": 5, "velocity": 73}, {"time": 4177, "pitch": 63, "duration": 7, "velocity": 56}, {"time": 4177, "pitch": 66, "duration": 7, "velocity": 73}, {"time": 4177, "pitch": 70, "duration": 7, "velocity": 66}, {"time": 4183, "pitch": 51, "duration": 7, "velocity": 52}, {"time": 4189, "pitch": 54, "duration": 7, "velocity": 70}, {"time": 4189, "pitch": 63, "duration": 6, "velocity": 64}, {"time": 4189, "pitch": 66, "duration": 5, "velocity": 70}, {"time": 4189, "pitch": 70, "duration": 5, "velocity": 67}, {"time": 4189, "pitch": 73, "duration": 5, "velocity": 51}, {"time": 4195, "pitch": 58, "duration": 5, "velocity": 59}, {"time": 4198, "pitch": 54, "duration": 4, "velocity": 72}, {"time": 4201, "pitch": 53, "duration": 19, "velocity": 75}, {"time": 4201, "pitch": 63, "duration": 7, "velocity": 67}, {"time": 4201, "pitch": 66, "duration": 6, "velocity": 75}, {"time": 4201, "pitch": 70, "duration": 6, "velocity": 72}, {"time": 4204, "pitch": 73, "duration": 3, "velocity": 13}, {"time": 4207, "pitch": 58, "duration": 8, "velocity": 52}, {"time": 4213, "pitch": 63, "duration": 6, "velocity": 66}, {"time": 4213, "pitch": 66, "duration": 6, "velocity": 69}, {"time": 4213, "pitch": 70, "duration": 5, "velocity": 70}, {"time": 4213, "pitch": 73, "duration": 2, "velocity": 50}, {"time": 4219, "pitch": 58, "duration": 1, "velocity": 66}, {"time": 4222, "pitch": 68, "duration": 1, "velocity": 42}, {"time": 4225, "pitch": 44, "duration": 16, "velocity": 70}, {"time": 4225, "pitch": 61, "duration": 6, "velocity": 75}, {"time": 4225, "pitch": 66, "duration": 5, "velocity": 75}, {"time": 4225, "pitch": 70, "duration": 6, "velocity": 72}, {"time": 4231, "pitch": 51, "duration": 5, "velocity": 51}, {"time": 4234, "pitch": 61, "duration": 2, "velocity": 69}, {"time": 4234, "pitch": 66, "duration": 2, "velocity": 59}, {"time": 4234, "pitch": 70, "duration": 2, "velocity": 63}, {"time": 4234, "pitch": 73, "duration": 2, "velocity": 57}, {"time": 4237, "pitch": 56, "duration": 4, "velocity": 49}, {"time": 4243, "pitch": 44, "duration": 19, "velocity": 70}, {"time": 4243, "pitch": 63, "duration": 2, "velocity": 73}, {"time": 4243, "pitch": 68, "duration": 1, "velocity": 75}, {"time": 4243, "pitch": 72, "duration": 2, "velocity": 73}, {"time": 4249, "pitch": 51, "duration": 10, "velocity": 64}, {"time": 4252, "pitch": 56, "duration": 6, "velocity": 62}, {"time": 4255, "pitch": 58, "duration": 2, "velocity": 62}, {"time": 4258, "pitch": 61, "duration": 4, "velocity": 64}, {"time": 4261, "pitch": 56, "duration": 4, "velocity": 63}, {"time": 4261, "pitch": 63, "duration": 1, "velocity": 60}, {"time": 4264, "pitch": 65, "duration": 2, "velocity": 75}, {"time": 4267, "pitch": 66, "duration": 4, "velocity": 57}, {"time": 4270, "pitch": 68, "duration": 2, "velocity": 64}, {"time": 4273, "pitch": 53, "duration": 19, "velocity": 64}, {"time": 4273, "pitch": 63, "duration": 7, "velocity": 72}, {"time": 4273, "pitch": 70, "duration": 6, "velocity": 64}, {"time": 4279, "pitch": 60, "duration": 6, "velocity": 56}, {"time": 4285, "pitch": 63, "duration": 1, "velocity": 67}, {"time": 4285, "pitch": 68, "duration": 2, "velocity": 76}, {"time": 4291, "pitch": 60, "duration": 3, "velocity": 63}, {"time": 4297, "pitch": 53, "duration": 17, "velocity": 73}, {"time": 4303, "pitch": 60, "duration": 7, "velocity": 54}, {"time": 4303, "pitch": 77, "duration": 2, "velocity": 53}, {"time": 4303, "pitch": 85, "duration": 2, "velocity": 63}, {"time": 4309, "pitch": 65, "duration": 5, "velocity": 49}, {"time": 4309, "pitch": 75, "duration": 2, "velocity": 55}, {"time": 4309, "pitch": 84, "duration": 1, "velocity": 69}, {"time": 4315, "pitch": 60, "duration": 2, "velocity": 64}, {"time": 4315, "pitch": 80, "duration": 5, "velocity": 49}, {"time": 4321, "pitch": 46, "duration": 19, "velocity": 75}, {"time": 4321, "pitch": 73, "duration": 4, "velocity": 69}, {"time": 4321, "pitch": 82, "duration": 4, "velocity": 73}, {"time": 4327, "pitch": 53, "duration": 6, "velocity": 59}, {"time": 4333, "pitch": 58, "duration": 6, "velocity": 57}, {"time": 4333, "pitch": 60, "duration": 5, "velocity": 70}, {"time": 4333, "pitch": 61, "duration": 6, "velocity": 67}, {"time": 4333, "pitch": 65, "duration": 5, "velocity": 69}, {"time": 4339, "pitch": 53, "duration": 3, "velocity": 55}, {"time": 4342, "pitch": 46, "duration": 16, "velocity": 46}, {"time": 4342, "pitch": 60, "duration": 4, "velocity": 63}, {"time": 4342, "pitch": 63, "duration": 4, "velocity": 66}, {"time": 4351, "pitch": 61, "duration": 5, "velocity": 75}, {"time": 4351, "pitch": 65, "duration": 5, "velocity": 76}, {"time": 4357, "pitch": 58, "duration": 2, "velocity": 50}, {"time": 4360, "pitch": 61, "duration": 3, "velocity": 75}, {"time": 4360, "pitch": 68, "duration": 3, "velocity": 70}, {"time": 4366, "pitch": 63, "duration": 3, "velocity": 40}, {"time": 4366, "pitch": 65, "duration": 2, "velocity": 63}, {"time": 4369, "pitch": 39, "duration": 17, "velocity": 60}, {"time": 4369, "pitch": 51, "duration": 13, "velocity": 64}, {"time": 4369, "pitch": 58, "duration": 7, "velocity": 63}, {"time": 4369, "pitch": 61, "duration": 7, "velocity": 66}, {"time": 4369, "pitch": 66, "duration": 6, "velocity": 59}, {"time": 4381, "pitch": 58, "duration": 5, "velocity": 67}, {"time": 4381, "pitch": 61, "duration": 6, "velocity": 75}, {"time": 4381, "pitch": 66, "duration": 4, "velocity": 70}, {"time": 4387, "pitch": 51, "duration": 2, "velocity": 59}, {"time": 4393, "pitch": 44, "duration": 15, "velocity": 67}, {"time": 4393, "pitch": 56, "duration": 4, "velocity": 58}, {"time": 4393, "pitch": 58, "duration": 8, "velocity": 67}, {"time": 4393, "pitch": 61, "duration": 8, "velocity": 75}, {"time": 4393, "pitch": 66, "duration": 9, "velocity": 62}, {"time": 4399, "pitch": 56, "duration": 7, "velocity": 38}, {"time": 4405, "pitch": 58, "duration": 5, "velocity": 64}, {"time": 4405, "pitch": 61, "duration": 5, "velocity": 75}, {"time": 4405, "pitch": 66, "duration": 8, "velocity": 73}, {"time": 4411, "pitch": 51, "duration": 1, "velocity": 75}, {"time": 4417, "pitch": 37, "duration": 17, "velocity": 69}, {"time": 4417, "pitch": 56, "duration": 7, "velocity": 59}, {"time": 4417, "pitch": 61, "duration": 6, "velocity": 70}, {"time": 4417, "pitch": 65, "duration": 6, "velocity": 63}, {"time": 4423, "pitch": 49, "duration": 6, "velocity": 50}, {"time": 4429, "pitch": 58, "duration": 4, "velocity": 70}, {"time": 4429, "pitch": 61, "duration": 4, "velocity": 75}, {"time": 4429, "pitch": 66, "duration": 3, "velocity": 73}, {"time": 4435, "pitch": 49, "duration": 2, "velocity": 56}, {"time": 4438, "pitch": 37, "duration": 14, "velocity": 66}, {"time": 4438, "pitch": 56, "duration": 5, "velocity": 62}, {"time": 4438, "pitch": 61, "duration": 5, "velocity": 63}, {"time": 4438, "pitch": 65, "duration": 5, "velocity": 62}, {"time": 4438, "pitch": 68, "duration": 5, "velocity": 40}, {"time": 4447, "pitch": 56, "duration": 4, "velocity": 64}, {"time": 4447, "pitch": 63, "duration": 4, "velocity": 70}, {"time": 4453, "pitch": 49, "duration": 7, "velocity": 62}, {"time": 4453, "pitch": 56, "duration": 4, "velocity": 70}, {"time": 4453, "pitch": 61, "duration": 5, "velocity": 78}, {"time": 4459, "pitch": 48, "duration": 2, "velocity": 49}, {"time": 4459, "pitch": 63, "duration": 3, "velocity": 58}, {"time": 4465, "pitch": 39, "duration": 15, "velocity": 49}, {"time": 4465, "pitch": 51, "duration": 16, "velocity": 47}, {"time": 4465, "pitch": 58, "duration": 16, "velocity": 54}, {"time": 4465, "pitch": 61, "duration": 17, "velocity": 60}, {"time": 4465, "pitch": 66, "duration": 16, "velocity": 52}, {"time": 4489, "pitch": 44, "duration": 40, "velocity": 49}, {"time": 4489, "pitch": 56, "duration": 41, "velocity": 50}, {"time": 4489, "pitch": 58, "duration": 11, "velocity": 51}, {"time": 4489, "pitch": 61, "duration": 13, "velocity": 56}, {"time": 4489, "pitch": 66, "duration": 12, "velocity": 56}, {"time": 4513, "pitch": 80, "duration": 6, "velocity": 39}, {"time": 4513, "pitch": 85, "duration": 13, "velocity": 44}, {"time": 4516, "pitch": 92, "duration": 11, "velocity": 45}, {"time": 4561, "pitch": 49, "duration": 9, "velocity": 76}, {"time": 4567, "pitch": 56, "duration": 5, "velocity": 58}, {"time": 4573, "pitch": 61, "duration": 6, "velocity": 47}, {"time": 4579, "pitch": 63, "duration": 8, "velocity": 66}, {"time": 4579, "pitch": 68, "duration": 4, "velocity": 56}, {"time": 4579, "pitch": 70, "duration": 6, "velocity": 70}, {"time": 4585, "pitch": 65, "duration": 9, "velocity": 60}, {"time": 4585, "pitch": 68, "duration": 7, "velocity": 56}, {"time": 4591, "pitch": 63, "duration": 5, "velocity": 48}, {"time": 4597, "pitch": 68, "duration": 2, "velocity": 57}, {"time": 4609, "pitch": 46, "duration": 10, "velocity": 60}, {"time": 4615, "pitch": 53, "duration": 5, "velocity": 52}, {"time": 4621, "pitch": 58, "duration": 7, "velocity": 48}, {"time": 4627, "pitch": 60, "duration": 20, "velocity": 54}, {"time": 4627, "pitch": 68, "duration": 5, "velocity": 51}, {"time": 4633, "pitch": 61, "duration": 13, "velocity": 64}, {"time": 4633, "pitch": 70, "duration": 8, "velocity": 54}, {"time": 4657, "pitch": 51, "duration": 14, "velocity": 67}, {"time": 4663, "pitch": 58, "duration": 9, "velocity": 50}, {"time": 4669, "pitch": 63, "duration": 3, "velocity": 51}, {"time": 4681, "pitch": 44, "duration": 15, "velocity": 70}, {"time": 4687, "pitch": 51, "duration": 9, "velocity": 55}, {"time": 4693, "pitch": 56, "duration": 3, "velocity": 49}, {"time": 4705, "pitch": 37, "duration": 5, "velocity": 69}, {"time": 4711, "pitch": 49, "duration": 7, "velocity": 59}, {"time": 4717, "pitch": 51, "duration": 51, "velocity": 58}, {"time": 4722, "pitch": 53, "duration": 45, "velocity": 60}, {"time": 4729, "pitch": 56, "duration": 36, "velocity": 50}, {"time": 4733, "pitch": 61, "duration": 3, "velocity": 47}, {"time": 4738, "pitch": 63, "duration": 2, "velocity": 48}, {"time": 4747, "pitch": 68, "duration": 3, "velocity": 48}, {"time": 4752, "pitch": 70, "duration": 2, "velocity": 49}, {"time": 4759, "pitch": 73, "duration": 3, "velocity": 21}, {"time": 4763, "pitch": 75, "duration": 3, "velocity": 47}, {"time": 4768, "pitch": 77, "duration": 5, "velocity": 44}, {"time": 4774, "pitch": 80, "duration": 2, "velocity": 47}, {"time": 4780, "pitch": 85, "duration": 6, "velocity": 36}], "annotations": [{"time": 49, "annotation": {"number": 64, "value": 127}, "group": "control_change"}, {"time": 96, "annotation": {"number": 64, "value": 0}, "group": "control_change"}, {"time": 98, "annotation": {"number": 64, "value": 127}, "group": "control_change"}, {"time": 143, "annotation": {"number": 64, "value": 0}, "group": "control_change"}, {"time": 147, "annotation": {"number": 64, "value": 127}, "group": "control_change"}, {"time": 191, "annotation": {"number": 64, "value": 0}, "group": "control_change"}, {"time": 196, "annotation": {"number": 64, "value": 127}, "group": "control_change"}, {"time": 227, "annotation": {"number": 64, "value": 0}, "group": "control_change"}, {"time": 241, "annotation": {"number": 64, "value": 127}, "group": "control_change"}, {"time": 242, "annotation": {"number": 64, "value": 127}, "group": "control_change"}, {"time": 289, "annotation": {"number": 64, "value": 0}, "group": "control_change"}, {"time": 290, "annotation": {"number": 64, "value": 0}, "group": "control_change"}, {"time": 294, "annotation": {"number": 64, "value": 127}, "group": "control_change"}, {"time": 295, "annotation": {"number": 64, "value": 127}, "group": "control_change"}, {"time": 337, "annotation": {"number": 64, "value": 0}, "group": "control_change"}, {"time": 338, "annotation": {"number": 64, "value": 127}, "group": "control_change"}, {"time": 345, "annotation": {"number": 64, "value": 0}, "group": "control_change"}, {"time": 387, "annotation": {"number": 64, "value": 0}, "group": "control_change"}, {"time": 391, "annotation": {"number": 64, "value": 127}, "group": "control_change"}, {"time": 434, "annotation": {"number": 64, "value": 0}, "group": "control_change"}, {"time": 437, "annotation": {"number": 64, "value": 127}, "group": "control_change"}, {"time": 481, "annotation": {"number": 64, "value": 0}, "group": "control_change"}, {"time": 484, "annotation": {"number": 64, "value": 127}, "group": "control_change"}, {"time": 529, "annotation": {"number": 64, "value": 0}, "group": "control_change"}, {"time": 532, "annotation": {"number": 64, "value": 127}, "group": "control_change"}, {"time": 552, "annotation": {"number": 64, "value": 0}, "group": "control_change"}, {"time": 556, "annotation": {"number": 64, "value": 127}, "group": "control_change"}, {"time": 577, "annotation": {"number": 64, "value": 0}, "group": "control_change"}, {"time": 579, "annotation": {"number": 64, "value": 127}, "group": "control_change"}, {"time": 619, "annotation": {"number": 64, "value": 0}, "group": "control_change"}, {"time": 626, "annotation": {"number": 64, "value": 127}, "group": "control_change"}, {"time": 673, "annotation": {"number": 64, "value": 0}, "group": "control_change"}, {"time": 677, "annotation": {"number": 64, "value": 127}, "group": "control_change"}, {"time": 722, "annotation": {"number": 64, "value": 0}, "group": "control_change"}, {"time": 726, "annotation": {"number": 64, "value": 127}, "group": "control_change"}, {"time": 769, "annotation": {"number": 64, "value": 0}, "group": "control_change"}, {"time": 774, "annotation": {"number": 64, "value": 127}, "group": "control_change"}, {"time": 818, "annotation": {"number": 64, "value": 127}, "group": "control_change"}, {"time": 822, "annotation": {"number": 64, "value": 0}, "group": "control_change"}, {"time": 866, "annotation": {"number": 64, "value": 0}, "group": "control_change"}, {"time": 872, "annotation": {"number": 64, "value": 127}, "group": "control_change"}, {"time": 914, "annotation": {"number": 64, "value": 0}, "group": "control_change"}, {"time": 919, "annotation": {"number": 64, "value": 127}, "group": "control_change"}, {"time": 962, "annotation": {"number": 64, "value": 0}, "group": "control_change"}, {"time": 968, "annotation": {"number": 64, "value": 127}, "group": "control_change"}, {"time": 1009, "annotation": {"number": 64, "value": 0}, "group": "control_change"}, {"time": 1014, "annotation": {"number": 64, "value": 127}, "group": "control_change"}, {"time": 1058, "annotation": {"number": 64, "value": 0}, "group": "control_change"}, {"time": 1063, "annotation": {"number": 64, "value": 127}, "group": "control_change"}, {"time": 1104, "annotation": {"number": 64, "value": 0}, "group": "control_change"}, {"time": 1106, "annotation": {"number": 64, "value": 127}, "group": "control_change"}, {"time": 1111, "annotation": {"number": 64, "value": 127}, "group": "control_change"}, {"time": 1118, "annotation": {"number": 64, "value": 0}, "group": "control_change"}, {"time": 1152, "annotation": {"number": 64, "value": 0}, "group": "control_change"}, {"time": 1156, "annotation": {"number": 64, "value": 127}, "group": "control_change"}, {"time": 1200, "annotation": {"number": 64, "value": 0}, "group": "control_change"}, {"time": 1204, "annotation": {"number": 64, "value": 127}, "group": "control_change"}, {"time": 1248, "annotation": {"number": 64, "value": 0}, "group": "control_change"}, {"time": 1255, "annotation": {"number": 64, "value": 127}, "group": "control_change"}, {"time": 1297, "annotation": {"number": 64, "value": 0}, "group": "control_change"}, {"time": 1301, "annotation": {"number": 64, "value": 127}, "group": "control_change"}, {"time": 1322, "annotation": {"number": 64, "value": 127}, "group": "control_change"}, {"time": 1331, "annotation": {"number": 64, "value": 0}, "group": "control_change"}, {"time": 1335, "annotation": {"number": 64, "value": 127}, "group": "control_change"}, {"time": 1344, "annotation": {"number": 64, "value": 0}, "group": "control_change"}, {"time": 1345, "annotation": {"number": 64, "value": 0}, "group": "control_change"}, {"time": 1347, "annotation": {"number": 64, "value": 127}, "group": "control_change"}, {"time": 1356, "annotation": {"number": 64, "value": 0}, "group": "control_change"}, {"time": 1369, "annotation": {"number": 64, "value": 127}, "group": "control_change"}, {"time": 1392, "annotation": {"number": 64, "value": 0}, "group": "control_change"}, {"time": 1392, "annotation": {"number": 64, "value": 127}, "group": "control_change"}, {"time": 1396, "annotation": {"number": 64, "value": 127}, "group": "control_change"}, {"time": 1403, "annotation": {"number": 64, "value": 0}, "group": "control_change"}, {"time": 1440, "annotation": {"number": 64, "value": 0}, "group": "control_change"}, {"time": 1446, "annotation": {"number": 64, "value": 127}, "group": "control_change"}, {"time": 1489, "annotation": {"number": 64, "value": 0}, "group": "control_change"}, {"time": 1493, "annotation": {"number": 64, "value": 127}, "group": "control_change"}, {"time": 1536, "annotation": {"number": 64, "value": 0}, "group": "control_change"}, {"time": 1541, "annotation": {"number": 64, "value": 127}, "group": "control_change"}, {"time": 1585, "annotation": {"number": 64, "value": 0}, "group": "control_change"}, {"time": 1590, "annotation": {"number": 64, "value": 127}, "group": "control_change"}, {"time": 1633, "annotation": {"number": 64, "value": 0}, "group": "control_change"}, {"time": 1638, "annotation": {"number": 64, "value": 127}, "group": "control_change"}, {"time": 1681, "annotation": {"number": 64, "value": 0}, "group": "control_change"}, {"time": 1685, "annotation": {"number": 64, "value": 127}, "group": "control_change"}, {"time": 1727, "annotation": {"number": 64, "value": 0}, "group": "control_change"}, {"time": 1731, "annotation": {"number": 64, "value": 127}, "group": "control_change"}, {"time": 1777, "annotation": {"number": 64, "value": 0}, "group": "control_change"}, {"time": 1780, "annotation": {"number": 64, "value": 127}, "group": "control_change"}, {"time": 1824, "annotation": {"number": 64, "value": 0}, "group": "control_change"}, {"time": 1828, "annotation": {"number": 64, "value": 127}, "group": "control_change"}, {"time": 1872, "annotation": {"number": 64, "value": 0}, "group": "control_change"}, {"time": 1876, "annotation": {"number": 64, "value": 127}, "group": "control_change"}, {"time": 1918, "annotation": {"number": 64, "value": 0}, "group": "control_change"}, {"time": 1921, "annotation": {"number": 64, "value": 127}, "group": "control_change"}, {"time": 1943, "annotation": {"number": 64, "value": 0}, "group": "control_change"}, {"time": 1947, "annotation": {"number": 64, "value": 127}, "group": "control_change"}, {"time": 1969, "annotation": {"number": 64, "value": 0}, "group": "control_change"}, {"time": 1973, "annotation": {"number": 64, "value": 127}, "group": "control_change"}, {"time": 2016, "annotation": {"number": 64, "value": 0}, "group": "control_change"}, {"time": 2021, "annotation": {"number": 64, "value": 127}, "group": "control_change"}, {"time": 2066, "annotation": {"number": 64, "value": 0}, "group": "control_change"}, {"time": 2070, "annotation": {"number": 64, "value": 127}, "group": "control_change"}, {"time": 2090, "annotation": {"number": 64, "value": 0}, "group": "control_change"}, {"time": 2094, "annotation": {"number": 64, "value": 127}, "group": "control_change"}, {"time": 2113, "annotation": {"number": 64, "value": 0}, "group": "control_change"}, {"time": 2117, "annotation": {"number": 64, "value": 127}, "group": "control_change"}, {"time": 2162, "annotation": {"number": 64, "value": 0}, "group": "control_change"}, {"time": 2165, "annotation": {"number": 64, "value": 127}, "group": "control_change"}, {"time": 2209, "annotation": {"number": 64, "value": 0}, "group": "control_change"}, {"time": 2213, "annotation": {"number": 64, "value": 127}, "group": "control_change"}, {"time": 2256, "annotation": {"number": 64, "value": 0}, "group": "control_change"}, {"time": 2260, "annotation": {"number": 64, "value": 127}, "group": "control_change"}, {"time": 2307, "annotation": {"number": 64, "value": 0}, "group": "control_change"}, {"time": 2312, "annotation": {"number": 64, "value": 127}, "group": "control_change"}, {"time": 2328, "annotation": {"number": 64, "value": 0}, "group": "control_change"}, {"time": 2331, "annotation": {"number": 64, "value": 127}, "group": "control_change"}, {"time": 2352, "annotation": {"number": 64, "value": 0}, "group": "control_change"}, {"time": 2356, "annotation": {"number": 64, "value": 127}, "group": "control_change"}, {"time": 2358, "annotation": {"number": 64, "value": 127}, "group": "control_change"}, {"time": 2370, "annotation": {"number": 64, "value": 0}, "group": "control_change"}, {"time": 2371, "annotation": {"number": 64, "value": 0}, "group": "control_change"}, {"time": 2374, "annotation": {"number": 64, "value": 127}, "group": "control_change"}, {"time": 2377, "annotation": {"number": 64, "value": 127}, "group": "control_change"}, {"time": 2388, "annotation": {"number": 64, "value": 0}, "group": "control_change"}, {"time": 2399, "annotation": {"number": 64, "value": 0}, "group": "control_change"}, {"time": 2402, "annotation": {"number": 64, "value": 127}, "group": "control_change"}, {"time": 2447, "annotation": {"number": 64, "value": 0}, "group": "control_change"}, {"time": 2451, "annotation": {"number": 64, "value": 127}, "group": "control_change"}, {"time": 2471, "annotation": {"number": 64, "value": 0}, "group": "control_change"}, {"time": 2474, "annotation": {"number": 64, "value": 127}, "group": "control_change"}, {"time": 2495, "annotation": {"number": 64, "value": 0}, "group": "control_change"}, {"time": 2498, "annotation": {"number": 64, "value": 127}, "group": "control_change"}, {"time": 2520, "annotation": {"number": 64, "value": 0}, "group": "control_change"}, {"time": 2523, "annotation": {"number": 64, "value": 127}, "group": "control_change"}, {"time": 2544, "annotation": {"number": 64, "value": 0}, "group": "control_change"}, {"time": 2548, "annotation": {"number": 64, "value": 127}, "group": "control_change"}, {"time": 2569, "annotation": {"number": 64, "value": 0}, "group": "control_change"}, {"time": 2571, "annotation": {"number": 64, "value": 127}, "group": "control_change"}, {"time": 2593, "annotation": {"number": 64, "value": 127}, "group": "control_change"}, {"time": 2594, "annotation": {"number": 64, "value": 0}, "group": "control_change"}, {"time": 2598, "annotation": {"number": 64, "value": 127}, "group": "control_change"}, {"time": 2605, "annotation": {"number": 64, "value": 0}, "group": "control_change"}, {"time": 2641, "annotation": {"number": 64, "value": 127}, "group": "control_change"}, {"time": 2641, "annotation": {"number": 64, "value": 0}, "group": "control_change"}, {"time": 2647, "annotation": {"number": 64, "value": 127}, "group": "control_change"}, {"time": 2667, "annotation": {"number": 64, "value": 0}, "group": "control_change"}, {"time": 2672, "annotation": {"number": 64, "value": 127}, "group": "control_change"}, {"time": 2689, "annotation": {"number": 64, "value": 0}, "group": "control_change"}, {"time": 2694, "annotation": {"number": 64, "value": 127}, "group": "control_change"}, {"time": 2738, "annotation": {"number": 64, "value": 0}, "group": "control_change"}, {"time": 2743, "annotation": {"number": 64, "value": 127}, "group": "control_change"}, {"time": 2785, "annotation": {"number": 64, "value": 0}, "group": "control_change"}, {"time": 2790, "annotation": {"number": 64, "value": 127}, "group": "control_change"}, {"time": 2833, "annotation": {"number": 64, "value": 0}, "group": "control_change"}, {"time": 2836, "annotation": {"number": 64, "value": 127}, "group": "control_change"}, {"time": 2857, "annotation": {"number": 64, "value": 0}, "group": "control_change"}, {"time": 2860, "annotation": {"number": 64, "value": 127}, "group": "control_change"}, {"time": 2880, "annotation": {"number": 64, "value": 0}, "group": "control_change"}, {"time": 2882, "annotation": {"number": 64, "value": 127}, "group": "control_change"}, {"time": 2908, "annotation": {"number": 64, "value": 0}, "group": "control_change"}, {"time": 2910, "annotation": {"number": 64, "value": 127}, "group": "control_change"}, {"time": 2928, "annotation": {"number": 64, "value": 0}, "group": "control_change"}, {"time": 2930, "annotation": {"number": 64, "value": 127}, "group": "control_change"}, {"time": 2975, "annotation": {"number": 64, "value": 0}, "group": "control_change"}, {"time": 2979, "annotation": {"number": 64, "value": 127}, "group": "control_change"}, {"time": 3024, "annotation": {"number": 64, "value": 0}, "group": "control_change"}, {"time": 3027, "annotation": {"number": 64, "value": 127}, "group": "control_change"}, {"time": 3072, "annotation": {"number": 64, "value": 0}, "group": "control_change"}, {"time": 3075, "annotation": {"number": 64, "value": 127}, "group": "control_change"}, {"time": 3095, "annotation": {"number": 64, "value": 0}, "group": "control_change"}, {"time": 3097, "annotation": {"number": 64, "value": 127}, "group": "control_change"}, {"time": 3109, "annotation": {"number": 64, "value": 0}, "group": "control_change"}, {"time": 3113, "annotation": {"number": 64, "value": 127}, "group": "control_change"}, {"time": 3120, "annotation": {"number": 64, "value": 0}, "group": "control_change"}, {"time": 3128, "annotation": {"number": 64, "value": 127}, "group": "control_change"}, {"time": 3168, "annotation": {"number": 64, "value": 0}, "group": "control_change"}, {"time": 3173, "annotation": {"number": 64, "value": 127}, "group": "control_change"}, {"time": 3191, "annotation": {"number": 64, "value": 0}, "group": "control_change"}, {"time": 3219, "annotation": {"number": 64, "value": 127}, "group": "control_change"}, {"time": 3262, "annotation": {"number": 64, "value": 0}, "group": "control_change"}, {"time": 3266, "annotation": {"number": 64, "value": 127}, "group": "control_change"}, {"time": 3286, "annotation": {"number": 64, "value": 0}, "group": "control_change"}, {"time": 3289, "annotation": {"number": 64, "value": 127}, "group": "control_change"}, {"time": 3311, "annotation": {"number": 64, "value": 0}, "group": "control_change"}, {"time": 3314, "annotation": {"number": 64, "value": 127}, "group": "control_change"}, {"time": 3324, "annotation": {"number": 64, "value": 0}, "group": "control_change"}, {"time": 3330, "annotation": {"number": 64, "value": 127}, "group": "control_change"}, {"time": 3359, "annotation": {"number": 64, "value": 0}, "group": "control_change"}, {"time": 3362, "annotation": {"number": 64, "value": 127}, "group": "control_change"}, {"time": 3407, "annotation": {"number": 64, "value": 0}, "group": "control_change"}, {"time": 3414, "annotation": {"number": 64, "value": 127}, "group": "control_change"}, {"time": 3455, "annotation": {"number": 64, "value": 0}, "group": "control_change"}, {"time": 3459, "annotation": {"number": 64, "value": 127}, "group": "control_change"}, {"time": 3503, "annotation": {"number": 64, "value": 0}, "group": "control_change"}, {"time": 3508, "annotation": {"number": 64, "value": 127}, "group": "control_change"}, {"time": 3552, "annotation": {"number": 64, "value": 0}, "group": "control_change"}, {"time": 3557, "annotation": {"number": 64, "value": 127}, "group": "control_change"}, {"time": 3600, "annotation": {"number": 64, "value": 0}, "group": "control_change"}, {"time": 3605, "annotation": {"number": 64, "value": 127}, "group": "control_change"}, {"time": 3648, "annotation": {"number": 64, "value": 0}, "group": "control_change"}, {"time": 3653, "annotation": {"number": 64, "value": 127}, "group": "control_change"}, {"time": 3697, "annotation": {"number": 64, "value": 0}, "group": "control_change"}, {"time": 3702, "annotation": {"number": 64, "value": 127}, "group": "control_change"}, {"time": 3745, "annotation": {"number": 64, "value": 0}, "group": "control_change"}, {"time": 3749, "annotation": {"number": 64, "value": 127}, "group": "control_change"}, {"time": 3794, "annotation": {"number": 64, "value": 0}, "group": "control_change"}, {"time": 3799, "annotation": {"number": 64, "value": 127}, "group": "control_change"}, {"time": 3891, "annotation": {"number": 64, "value": 0}, "group": "control_change"}, {"time": 3895, "annotation": {"number": 64, "value": 127}, "group": "control_change"}, {"time": 3938, "annotation": {"number": 64, "value": 0}, "group": "control_change"}, {"time": 3946, "annotation": {"number": 64, "value": 127}, "group": "control_change"}, {"time": 3985, "annotation": {"number": 64, "value": 0}, "group": "control_change"}, {"time": 3992, "annotation": {"number": 64, "value": 127}, "group": "control_change"}, {"time": 4055, "annotation": {"number": 64, "value": 0}, "group": "control_change"}, {"time": 4059, "annotation": {"number": 64, "value": 127}, "group": "control_change"}, {"time": 4065, "annotation": {"number": 64, "value": 0}, "group": "control_change"}, {"time": 4067, "annotation": {"number": 64, "value": 127}, "group": "control_change"}, {"time": 4079, "annotation": {"number": 64, "value": 0}, "group": "control_change"}, {"time": 4083, "annotation": {"number": 64, "value": 127}, "group": "control_change"}, {"time": 4127, "annotation": {"number": 64, "value": 0}, "group": "control_change"}, {"time": 4132, "annotation": {"number": 64, "value": 127}, "group": "control_change"}, {"time": 4176, "annotation": {"number": 64, "value": 0}, "group": "control_change"}, {"time": 4179, "annotation": {"number": 64, "value": 127}, "group": "control_change"}, {"time": 4224, "annotation": {"number": 64, "value": 0}, "group": "control_change"}, {"time": 4230, "annotation": {"number": 64, "value": 127}, "group": "control_change"}, {"time": 4271, "annotation": {"number": 64, "value": 0}, "group": "control_change"}, {"time": 4275, "annotation": {"number": 64, "value": 127}, "group": "control_change"}, {"time": 4321, "annotation": {"number": 64, "value": 0}, "group": "control_change"}, {"time": 4324, "annotation": {"number": 64, "value": 127}, "group": "control_change"}, {"time": 4367, "annotation": {"number": 64, "value": 0}, "group": "control_change"}, {"time": 4371, "annotation": {"number": 64, "value": 127}, "group": "control_change"}, {"time": 4393, "annotation": {"number": 64, "value": 0}, "group": "control_change"}, {"time": 4397, "annotation": {"number": 64, "value": 127}, "group": "control_change"}, {"time": 4416, "annotation": {"number": 64, "value": 0}, "group": "control_change"}, {"time": 4423, "annotation": {"number": 64, "value": 127}, "group": "control_change"}, {"time": 4464, "annotation": {"number": 64, "value": 0}, "group": "control_change"}, {"time": 4466, "annotation": {"number": 64, "value": 127}, "group": "control_change"}, {"time": 4469, "annotation": {"number": 64, "value": 127}, "group": "control_change"}, {"time": 4476, "annotation": {"number": 64, "value": 0}, "group": "control_change"}, {"time": 4488, "annotation": {"number": 64, "value": 0}, "group": "control_change"}, {"time": 4492, "annotation": {"number": 64, "value": 127}, "group": "control_change"}, {"time": 4562, "annotation": {"number": 64, "value": 0}, "group": "control_change"}, {"time": 4566, "annotation": {"number": 64, "value": 127}, "group": "control_change"}, {"time": 4610, "annotation": {"number": 64, "value": 0}, "group": "control_change"}, {"time": 4614, "annotation": {"number": 64, "value": 127}, "group": "control_change"}, {"time": 4657, "annotation": {"number": 64, "value": 0}, "group": "control_change"}, {"time": 4663, "annotation": {"number": 64, "value": 127}, "group": "control_change"}, {"time": 4680, "annotation": {"number": 64, "value": 0}, "group": "control_change"}, {"time": 4683, "annotation": {"number": 64, "value": 127}, "group": "control_change"}, {"time": 4704, "annotation": {"number": 64, "value": 0}, "group": "control_change"}, {"time": 4707, "annotation": {"number": 64, "value": 127}, "group": "control_change"}, {"time": 4806, "annotation": {"number": 64, "value": 0}, "group": "control_change"}]}]}