{"metadata": {"schema_version": "0.2", "title": "None", "source_filename": "213.mid", "source_format": "midi"}, "resolution": 12, "tempos": [{"time": 0, "qpm": 130.00041166797027}, {"time": 2788, "qpm": 132.000132000132}, {"time": 2884, "qpm": 123.99999173333389}, {"time": 2908, "qpm": 130.00041166797027}, {"time": 2932, "qpm": 132.000132000132}, {"time": 3004, "qpm": 126.99998518333506}, {"time": 3028, "qpm": 129.00035475097556}, {"time": 3052, "qpm": 132.000132000132}, {"time": 3100, "qpm": 126.99998518333506}, {"time": 3124, "qpm": 128.0}, {"time": 3172, "qpm": 132.000132000132}, {"time": 3208, "qpm": 129.00035475097556}, {"time": 3244, "qpm": 132.000132000132}, {"time": 3316, "qpm": 130.00041166797027}, {"time": 3628, "qpm": 126.99998518333506}, {"time": 3652, "qpm": 130.00041166797027}, {"time": 3784, "qpm": 126.99998518333506}, {"time": 3796, "qpm": 130.00041166797027}, {"time": 3892, "qpm": 133.00024161710562}, {"time": 3916, "qpm": 129.00035475097556}, {"time": 3952, "qpm": 125.0}, {"time": 3964, "qpm": 130.00041166797027}, {"time": 3988, "qpm": 131.00007641671124}, {"time": 4120, "qpm": 129.00035475097556}, {"time": 4132, "qpm": 131.00007641671124}, {"time": 4156, "qpm": 126.99998518333506}, {"time": 4180, "qpm": 131.00007641671124}, {"time": 4276, "qpm": 130.00041166797027}, {"time": 4372, "qpm": 123.99999173333389}, {"time": 4420, "qpm": 134.00005806669182}, {"time": 4468, "qpm": 130.00041166797027}, {"time": 4564, "qpm": 128.0}, {"time": 4612, "qpm": 132.000132000132}, {"time": 4637, "qpm": 136.00045333484445}, {"time": 4660, "qpm": 132.000132000132}, {"time": 4684, "qpm": 129.00035475097556}, {"time": 4708, "qpm": 126.99998518333506}, {"time": 4756, "qpm": 132.000132000132}, {"time": 4852, "qpm": 126.99998518333506}, {"time": 4900, "qpm": 131.00007641671124}, {"time": 4996, "qpm": 129.00035475097556}, {"time": 5092, "qpm": 132.000132000132}, {"time": 5140, "qpm": 129.00035475097556}, {"time": 5188, "qpm": 131.00007641671124}, {"time": 5236, "qpm": 129.00035475097556}, {"time": 5428, "qpm": 132.000132000132}, {"time": 5464, "qpm": 131.00007641671124}, {"time": 5524, "qpm": 129.00035475097556}, {"time": 5668, "qpm": 132.000132000132}, {"time": 5716, "qpm": 129.00035475097556}, {"time": 5788, "qpm": 132.000132000132}, {"time": 5908, "qpm": 129.00035475097556}, {"time": 6004, "qpm": 132.000132000132}, {"time": 6028, "qpm": 129.00035475097556}, {"time": 6052, "qpm": 130.00041166797027}, {"time": 6076, "qpm": 132.000132000132}, {"time": 6100, "qpm": 129.00035475097556}, {"time": 6124, "qpm": 132.000132000132}, {"time": 6148, "qpm": 128.0}, {"time": 6268, "qpm": 132.000132000132}], "time_signatures": [{"time": 0, "numerator": 4, "denominator": 4}], "tracks": [{"program": 0, "is_drum": false, "name": "MELODY", "notes": [{"time": 412, "pitch": 68, "duration": 6, "velocity": 66}, {"time": 418, "pitch": 68, "duration": 6, "velocity": 68}, {"time": 424, "pitch": 70, "duration": 6, "velocity": 61}, {"time": 430, "pitch": 68, "duration": 6, "velocity": 61}, {"time": 436, "pitch": 72, "duration": 3, "velocity": 66}, {"time": 439, "pitch": 70, "duration": 3, "velocity": 63}, {"time": 442, "pitch": 72, "duration": 66, "velocity": 66}, {"time": 508, "pitch": 72, "duration": 6, "velocity": 66}, {"time": 514, "pitch": 72, "duration": 9, "velocity": 79}, {"time": 523, "pitch": 72, "duration": 9, "velocity": 66}, {"time": 532, "pitch": 70, "duration": 12, "velocity": 83}, {"time": 544, "pitch": 70, "duration": 60, "velocity": 69}, {"time": 604, "pitch": 68, "duration": 6, "velocity": 74}, {"time": 610, "pitch": 70, "duration": 6, "velocity": 80}, {"time": 616, "pitch": 70, "duration": 6, "velocity": 66}, {"time": 622, "pitch": 68, "duration": 6, "velocity": 53}, {"time": 628, "pitch": 70, "duration": 12, "velocity": 79}, {"time": 640, "pitch": 68, "duration": 24, "velocity": 63}, {"time": 664, "pitch": 65, "duration": 6, "velocity": 80}, {"time": 670, "pitch": 68, "duration": 6, "velocity": 84}, {"time": 676, "pitch": 70, "duration": 12, "velocity": 87}, {"time": 688, "pitch": 68, "duration": 12, "velocity": 90}, {"time": 700, "pitch": 68, "duration": 6, "velocity": 71}, {"time": 706, "pitch": 68, "duration": 12, "velocity": 74}, {"time": 718, "pitch": 72, "duration": 3, "velocity": 56}, {"time": 721, "pitch": 70, "duration": 3, "velocity": 61}, {"time": 724, "pitch": 72, "duration": 66, "velocity": 66}, {"time": 790, "pitch": 63, "duration": 6, "velocity": 69}, {"time": 796, "pitch": 68, "duration": 6, "velocity": 92}, {"time": 802, "pitch": 68, "duration": 6, "velocity": 87}, {"time": 808, "pitch": 70, "duration": 6, "velocity": 87}, {"time": 814, "pitch": 68, "duration": 6, "velocity": 74}, {"time": 820, "pitch": 72, "duration": 72, "velocity": 91}, {"time": 892, "pitch": 72, "duration": 6, "velocity": 94}, {"time": 898, "pitch": 72, "duration": 12, "velocity": 93}, {"time": 910, "pitch": 72, "duration": 6, "velocity": 84}, {"time": 916, "pitch": 70, "duration": 12, "velocity": 92}, {"time": 928, "pitch": 70, "duration": 60, "velocity": 67}, {"time": 988, "pitch": 70, "duration": 6, "velocity": 90}, {"time": 994, "pitch": 70, "duration": 6, "velocity": 90}, {"time": 1000, "pitch": 70, "duration": 6, "velocity": 90}, {"time": 1006, "pitch": 68, "duration": 6, "velocity": 85}, {"time": 1012, "pitch": 70, "duration": 12, "velocity": 105}, {"time": 1024, "pitch": 68, "duration": 24, "velocity": 81}, {"time": 1048, "pitch": 65, "duration": 6, "velocity": 85}, {"time": 1054, "pitch": 68, "duration": 6, "velocity": 96}, {"time": 1060, "pitch": 70, "duration": 12, "velocity": 100}, {"time": 1072, "pitch": 68, "duration": 12, "velocity": 91}, {"time": 1084, "pitch": 72, "duration": 6, "velocity": 94}, {"time": 1090, "pitch": 70, "duration": 12, "velocity": 85}, {"time": 1102, "pitch": 70, "duration": 12, "velocity": 96}, {"time": 1114, "pitch": 68, "duration": 66, "velocity": 68}, {"time": 1180, "pitch": 72, "duration": 6, "velocity": 87}, {"time": 1186, "pitch": 75, "duration": 18, "velocity": 91}, {"time": 1204, "pitch": 75, "duration": 12, "velocity": 96}, {"time": 1216, "pitch": 79, "duration": 12, "velocity": 98}, {"time": 1228, "pitch": 77, "duration": 12, "velocity": 94}, {"time": 1240, "pitch": 77, "duration": 6, "velocity": 87}, {"time": 1246, "pitch": 77, "duration": 12, "velocity": 91}, {"time": 1258, "pitch": 75, "duration": 18, "velocity": 103}, {"time": 1276, "pitch": 75, "duration": 6, "velocity": 105}, {"time": 1282, "pitch": 75, "duration": 12, "velocity": 96}, {"time": 1294, "pitch": 75, "duration": 6, "velocity": 90}, {"time": 1300, "pitch": 68, "duration": 12, "velocity": 91}, {"time": 1312, "pitch": 72, "duration": 96, "velocity": 99}, {"time": 1408, "pitch": 77, "duration": 6, "velocity": 93}, {"time": 1414, "pitch": 77, "duration": 6, "velocity": 91}, {"time": 1420, "pitch": 77, "duration": 12, "velocity": 93}, {"time": 1432, "pitch": 75, "duration": 6, "velocity": 87}, {"time": 1438, "pitch": 75, "duration": 18, "velocity": 79}, {"time": 1456, "pitch": 73, "duration": 12, "velocity": 97}, {"time": 1468, "pitch": 68, "duration": 6, "velocity": 72}, {"time": 1474, "pitch": 72, "duration": 12, "velocity": 68}, {"time": 1486, "pitch": 72, "duration": 12, "velocity": 87}, {"time": 1498, "pitch": 70, "duration": 66, "velocity": 64}, {"time": 1564, "pitch": 75, "duration": 6, "velocity": 108}, {"time": 1570, "pitch": 75, "duration": 12, "velocity": 96}, {"time": 1582, "pitch": 75, "duration": 6, "velocity": 95}, {"time": 1588, "pitch": 79, "duration": 12, "velocity": 103}, {"time": 1600, "pitch": 79, "duration": 48, "velocity": 108}, {"time": 1648, "pitch": 79, "duration": 12, "velocity": 100}, {"time": 1660, "pitch": 79, "duration": 6, "velocity": 95}, {"time": 1666, "pitch": 72, "duration": 9, "velocity": 77}, {"time": 1675, "pitch": 72, "duration": 9, "velocity": 81}, {"time": 1684, "pitch": 72, "duration": 6, "velocity": 91}, {"time": 1690, "pitch": 81, "duration": 78, "velocity": 96}, {"time": 1768, "pitch": 77, "duration": 6, "velocity": 87}, {"time": 1774, "pitch": 77, "duration": 6, "velocity": 66}, {"time": 1780, "pitch": 77, "duration": 12, "velocity": 87}, {"time": 1792, "pitch": 75, "duration": 12, "velocity": 81}, {"time": 1804, "pitch": 75, "duration": 12, "velocity": 87}, {"time": 1816, "pitch": 73, "duration": 6, "velocity": 59}, {"time": 1822, "pitch": 75, "duration": 6, "velocity": 82}, {"time": 1828, "pitch": 73, "duration": 18, "velocity": 89}, {"time": 1846, "pitch": 73, "duration": 6, "velocity": 87}, {"time": 1852, "pitch": 73, "duration": 9, "velocity": 97}, {"time": 1861, "pitch": 73, "duration": 9, "velocity": 93}, {"time": 1870, "pitch": 73, "duration": 6, "velocity": 86}, {"time": 1876, "pitch": 75, "duration": 12, "velocity": 91}, {"time": 1888, "pitch": 75, "duration": 60, "velocity": 98}, {"time": 1948, "pitch": 75, "duration": 9, "velocity": 101}, {"time": 1957, "pitch": 75, "duration": 9, "velocity": 93}, {"time": 1966, "pitch": 75, "duration": 6, "velocity": 96}, {"time": 1972, "pitch": 79, "duration": 12, "velocity": 91}, {"time": 1984, "pitch": 72, "duration": 54, "velocity": 106}, {"time": 2038, "pitch": 67, "duration": 6, "velocity": 81}, {"time": 2044, "pitch": 75, "duration": 9, "velocity": 93}, {"time": 2053, "pitch": 75, "duration": 9, "velocity": 90}, {"time": 2062, "pitch": 75, "duration": 6, "velocity": 80}, {"time": 2068, "pitch": 79, "duration": 12, "velocity": 94}, {"time": 2080, "pitch": 72, "duration": 60, "velocity": 101}, {"time": 2140, "pitch": 75, "duration": 9, "velocity": 106}, {"time": 2149, "pitch": 75, "duration": 9, "velocity": 98}, {"time": 2158, "pitch": 75, "duration": 6, "velocity": 90}, {"time": 2164, "pitch": 80, "duration": 12, "velocity": 100}, {"time": 2176, "pitch": 77, "duration": 54, "velocity": 109}, {"time": 2230, "pitch": 68, "duration": 6, "velocity": 85}, {"time": 2236, "pitch": 68, "duration": 6, "velocity": 91}, {"time": 2242, "pitch": 72, "duration": 12, "velocity": 97}, {"time": 2254, "pitch": 72, "duration": 12, "velocity": 103}, {"time": 2266, "pitch": 70, "duration": 66, "velocity": 94}, {"time": 2332, "pitch": 75, "duration": 9, "velocity": 99}, {"time": 2341, "pitch": 75, "duration": 9, "velocity": 91}, {"time": 2350, "pitch": 75, "duration": 6, "velocity": 92}, {"time": 2356, "pitch": 79, "duration": 12, "velocity": 101}, {"time": 2368, "pitch": 72, "duration": 60, "velocity": 94}, {"time": 2428, "pitch": 75, "duration": 9, "velocity": 108}, {"time": 2437, "pitch": 75, "duration": 9, "velocity": 97}, {"time": 2446, "pitch": 75, "duration": 6, "velocity": 94}, {"time": 2452, "pitch": 79, "duration": 12, "velocity": 105}, {"time": 2464, "pitch": 72, "duration": 60, "velocity": 99}, {"time": 2524, "pitch": 75, "duration": 6, "velocity": 95}, {"time": 2530, "pitch": 75, "duration": 9, "velocity": 97}, {"time": 2539, "pitch": 75, "duration": 9, "velocity": 93}, {"time": 2548, "pitch": 80, "duration": 12, "velocity": 106}, {"time": 2560, "pitch": 77, "duration": 48, "velocity": 108}, {"time": 2608, "pitch": 77, "duration": 12, "velocity": 101}, {"time": 2620, "pitch": 77, "duration": 6, "velocity": 93}, {"time": 2626, "pitch": 77, "duration": 12, "velocity": 94}, {"time": 2638, "pitch": 77, "duration": 18, "velocity": 93}, {"time": 2656, "pitch": 75, "duration": 156, "velocity": 90}, {"time": 2812, "pitch": 68, "duration": 6, "velocity": 66}, {"time": 2818, "pitch": 68, "duration": 6, "velocity": 68}, {"time": 2824, "pitch": 70, "duration": 6, "velocity": 61}, {"time": 2830, "pitch": 68, "duration": 6, "velocity": 61}, {"time": 2836, "pitch": 72, "duration": 3, "velocity": 66}, {"time": 2839, "pitch": 70, "duration": 3, "velocity": 63}, {"time": 2842, "pitch": 72, "duration": 60, "velocity": 66}, {"time": 2902, "pitch": 63, "duration": 6, "velocity": 66}, {"time": 2908, "pitch": 75, "duration": 9, "velocity": 79}, {"time": 2917, "pitch": 75, "duration": 9, "velocity": 66}, {"time": 2926, "pitch": 75, "duration": 6, "velocity": 66}, {"time": 2932, "pitch": 70, "duration": 12, "velocity": 58}, {"time": 2944, "pitch": 70, "duration": 60, "velocity": 69}, {"time": 3004, "pitch": 70, "duration": 6, "velocity": 74}, {"time": 3010, "pitch": 70, "duration": 6, "velocity": 80}, {"time": 3016, "pitch": 70, "duration": 6, "velocity": 66}, {"time": 3022, "pitch": 68, "duration": 6, "velocity": 53}, {"time": 3028, "pitch": 70, "duration": 12, "velocity": 79}, {"time": 3040, "pitch": 68, "duration": 24, "velocity": 63}, {"time": 3064, "pitch": 65, "duration": 6, "velocity": 80}, {"time": 3070, "pitch": 68, "duration": 6, "velocity": 84}, {"time": 3076, "pitch": 70, "duration": 18, "velocity": 87}, {"time": 3094, "pitch": 72, "duration": 12, "velocity": 90}, {"time": 3106, "pitch": 72, "duration": 6, "velocity": 90}, {"time": 3112, "pitch": 72, "duration": 6, "velocity": 90}, {"time": 3118, "pitch": 73, "duration": 6, "velocity": 98}, {"time": 3124, "pitch": 72, "duration": 66, "velocity": 98}, {"time": 3190, "pitch": 63, "duration": 6, "velocity": 69}, {"time": 3196, "pitch": 68, "duration": 12, "velocity": 87}, {"time": 3208, "pitch": 70, "duration": 6, "velocity": 87}, {"time": 3214, "pitch": 68, "duration": 6, "velocity": 74}, {"time": 3220, "pitch": 72, "duration": 66, "velocity": 91}, {"time": 3286, "pitch": 63, "duration": 6, "velocity": 85}, {"time": 3292, "pitch": 75, "duration": 6, "velocity": 78}, {"time": 3298, "pitch": 75, "duration": 12, "velocity": 77}, {"time": 3310, "pitch": 75, "duration": 6, "velocity": 84}, {"time": 3316, "pitch": 70, "duration": 9, "velocity": 92}, {"time": 3325, "pitch": 70, "duration": 51, "velocity": 67}, {"time": 3376, "pitch": 63, "duration": 12, "velocity": 57}, {"time": 3388, "pitch": 70, "duration": 6, "velocity": 90}, {"time": 3394, "pitch": 70, "duration": 6, "velocity": 90}, {"time": 3400, "pitch": 70, "duration": 6, "velocity": 90}, {"time": 3406, "pitch": 68, "duration": 6, "velocity": 85}, {"time": 3412, "pitch": 70, "duration": 12, "velocity": 105}, {"time": 3424, "pitch": 68, "duration": 24, "velocity": 81}, {"time": 3448, "pitch": 65, "duration": 6, "velocity": 85}, {"time": 3454, "pitch": 68, "duration": 6, "velocity": 96}, {"time": 3460, "pitch": 70, "duration": 12, "velocity": 100}, {"time": 3472, "pitch": 68, "duration": 12, "velocity": 91}, {"time": 3484, "pitch": 72, "duration": 6, "velocity": 94}, {"time": 3490, "pitch": 70, "duration": 12, "velocity": 85}, {"time": 3502, "pitch": 70, "duration": 12, "velocity": 96}, {"time": 3514, "pitch": 68, "duration": 66, "velocity": 68}, {"time": 3580, "pitch": 75, "duration": 6, "velocity": 87}, {"time": 3586, "pitch": 75, "duration": 18, "velocity": 91}, {"time": 3604, "pitch": 75, "duration": 6, "velocity": 96}, {"time": 3610, "pitch": 79, "duration": 18, "velocity": 98}, {"time": 3628, "pitch": 77, "duration": 12, "velocity": 94}, {"time": 3640, "pitch": 77, "duration": 6, "velocity": 87}, {"time": 3646, "pitch": 77, "duration": 12, "velocity": 91}, {"time": 3658, "pitch": 75, "duration": 18, "velocity": 103}, {"time": 3676, "pitch": 75, "duration": 6, "velocity": 105}, {"time": 3682, "pitch": 75, "duration": 9, "velocity": 96}, {"time": 3691, "pitch": 75, "duration": 9, "velocity": 90}, {"time": 3700, "pitch": 68, "duration": 12, "velocity": 91}, {"time": 3712, "pitch": 72, "duration": 96, "velocity": 99}, {"time": 3808, "pitch": 77, "duration": 6, "velocity": 93}, {"time": 3814, "pitch": 77, "duration": 6, "velocity": 91}, {"time": 3820, "pitch": 77, "duration": 12, "velocity": 93}, {"time": 3832, "pitch": 75, "duration": 6, "velocity": 87}, {"time": 3838, "pitch": 75, "duration": 18, "velocity": 79}, {"time": 3856, "pitch": 73, "duration": 12, "velocity": 97}, {"time": 3868, "pitch": 68, "duration": 6, "velocity": 72}, {"time": 3874, "pitch": 72, "duration": 15, "velocity": 68}, {"time": 3889, "pitch": 72, "duration": 12, "velocity": 87}, {"time": 3904, "pitch": 70, "duration": 63, "velocity": 64}, {"time": 3964, "pitch": 75, "duration": 6, "velocity": 108}, {"time": 3970, "pitch": 75, "duration": 12, "velocity": 96}, {"time": 3982, "pitch": 75, "duration": 6, "velocity": 95}, {"time": 3988, "pitch": 79, "duration": 12, "velocity": 103}, {"time": 4000, "pitch": 79, "duration": 42, "velocity": 108}, {"time": 4042, "pitch": 79, "duration": 18, "velocity": 100}, {"time": 4060, "pitch": 79, "duration": 6, "velocity": 100}, {"time": 4066, "pitch": 72, "duration": 6, "velocity": 77}, {"time": 4072, "pitch": 72, "duration": 12, "velocity": 81}, {"time": 4084, "pitch": 72, "duration": 6, "velocity": 91}, {"time": 4090, "pitch": 81, "duration": 78, "velocity": 96}, {"time": 4168, "pitch": 77, "duration": 6, "velocity": 87}, {"time": 4174, "pitch": 77, "duration": 6, "velocity": 66}, {"time": 4180, "pitch": 77, "duration": 12, "velocity": 87}, {"time": 4192, "pitch": 75, "duration": 12, "velocity": 81}, {"time": 4204, "pitch": 75, "duration": 12, "velocity": 87}, {"time": 4216, "pitch": 73, "duration": 6, "velocity": 59}, {"time": 4222, "pitch": 75, "duration": 12, "velocity": 82}, {"time": 4234, "pitch": 73, "duration": 12, "velocity": 89}, {"time": 4246, "pitch": 73, "duration": 6, "velocity": 87}, {"time": 4252, "pitch": 73, "duration": 6, "velocity": 97}, {"time": 4258, "pitch": 73, "duration": 12, "velocity": 93}, {"time": 4270, "pitch": 73, "duration": 6, "velocity": 86}, {"time": 4276, "pitch": 75, "duration": 12, "velocity": 91}, {"time": 4288, "pitch": 75, "duration": 156, "velocity": 98}, {"time": 4444, "pitch": 75, "duration": 9, "velocity": 101}, {"time": 4453, "pitch": 75, "duration": 9, "velocity": 93}, {"time": 4462, "pitch": 75, "duration": 6, "velocity": 96}, {"time": 4468, "pitch": 79, "duration": 12, "velocity": 91}, {"time": 4480, "pitch": 72, "duration": 54, "velocity": 106}, {"time": 4534, "pitch": 75, "duration": 6, "velocity": 81}, {"time": 4540, "pitch": 75, "duration": 9, "velocity": 93}, {"time": 4549, "pitch": 75, "duration": 9, "velocity": 90}, {"time": 4558, "pitch": 75, "duration": 6, "velocity": 80}, {"time": 4564, "pitch": 79, "duration": 12, "velocity": 94}, {"time": 4576, "pitch": 72, "duration": 60, "velocity": 101}, {"time": 4636, "pitch": 75, "duration": 9, "velocity": 106}, {"time": 4645, "pitch": 75, "duration": 9, "velocity": 98}, {"time": 4654, "pitch": 75, "duration": 6, "velocity": 90}, {"time": 4660, "pitch": 80, "duration": 12, "velocity": 100}, {"time": 4672, "pitch": 77, "duration": 48, "velocity": 109}, {"time": 4720, "pitch": 68, "duration": 6, "velocity": 100}, {"time": 4726, "pitch": 68, "duration": 6, "velocity": 85}, {"time": 4732, "pitch": 68, "duration": 6, "velocity": 91}, {"time": 4738, "pitch": 72, "duration": 12, "velocity": 97}, {"time": 4750, "pitch": 72, "duration": 6, "velocity": 103}, {"time": 4756, "pitch": 72, "duration": 6, "velocity": 103}, {"time": 4762, "pitch": 70, "duration": 60, "velocity": 94}, {"time": 4822, "pitch": 75, "duration": 6, "velocity": 87}, {"time": 4828, "pitch": 75, "duration": 6, "velocity": 99}, {"time": 4834, "pitch": 75, "duration": 9, "velocity": 91}, {"time": 4843, "pitch": 75, "duration": 9, "velocity": 92}, {"time": 4852, "pitch": 79, "duration": 12, "velocity": 101}, {"time": 4864, "pitch": 72, "duration": 54, "velocity": 94}, {"time": 4918, "pitch": 75, "duration": 6, "velocity": 100}, {"time": 4924, "pitch": 75, "duration": 6, "velocity": 108}, {"time": 4930, "pitch": 75, "duration": 9, "velocity": 97}, {"time": 4939, "pitch": 75, "duration": 9, "velocity": 94}, {"time": 4948, "pitch": 79, "duration": 12, "velocity": 105}, {"time": 4960, "pitch": 72, "duration": 60, "velocity": 99}, {"time": 5020, "pitch": 75, "duration": 9, "velocity": 95}, {"time": 5029, "pitch": 75, "duration": 9, "velocity": 97}, {"time": 5038, "pitch": 75, "duration": 6, "velocity": 93}, {"time": 5044, "pitch": 80, "duration": 12, "velocity": 106}, {"time": 5056, "pitch": 77, "duration": 42, "velocity": 108}, {"time": 5098, "pitch": 77, "duration": 12, "velocity": 98}, {"time": 5110, "pitch": 77, "duration": 6, "velocity": 98}, {"time": 5116, "pitch": 77, "duration": 9, "velocity": 103}, {"time": 5125, "pitch": 77, "duration": 9, "velocity": 99}, {"time": 5134, "pitch": 77, "duration": 6, "velocity": 97}, {"time": 5140, "pitch": 77, "duration": 12, "velocity": 106}, {"time": 5152, "pitch": 75, "duration": 59, "velocity": 97}, {"time": 5211, "pitch": 77, "duration": 9, "velocity": 99}, {"time": 5220, "pitch": 77, "duration": 9, "velocity": 97}, {"time": 5229, "pitch": 77, "duration": 8, "velocity": 95}, {"time": 5237, "pitch": 81, "duration": 11, "velocity": 99}, {"time": 5249, "pitch": 74, "duration": 59, "velocity": 101}, {"time": 5308, "pitch": 77, "duration": 9, "velocity": 101}, {"time": 5317, "pitch": 77, "duration": 9, "velocity": 93}, {"time": 5326, "pitch": 77, "duration": 6, "velocity": 96}, {"time": 5332, "pitch": 81, "duration": 12, "velocity": 91}, {"time": 5344, "pitch": 74, "duration": 60, "velocity": 106}, {"time": 5404, "pitch": 77, "duration": 6, "velocity": 81}, {"time": 5410, "pitch": 77, "duration": 6, "velocity": 93}, {"time": 5416, "pitch": 77, "duration": 6, "velocity": 90}, {"time": 5422, "pitch": 77, "duration": 6, "velocity": 80}, {"time": 5428, "pitch": 82, "duration": 9, "velocity": 94}, {"time": 5437, "pitch": 79, "duration": 51, "velocity": 101}, {"time": 5488, "pitch": 79, "duration": 6, "velocity": 111}, {"time": 5494, "pitch": 79, "duration": 6, "velocity": 99}, {"time": 5500, "pitch": 79, "duration": 6, "velocity": 106}, {"time": 5506, "pitch": 79, "duration": 12, "velocity": 97}, {"time": 5518, "pitch": 79, "duration": 18, "velocity": 101}, {"time": 5536, "pitch": 77, "duration": 54, "velocity": 63}, {"time": 5590, "pitch": 77, "duration": 6, "velocity": 98}, {"time": 5596, "pitch": 77, "duration": 9, "velocity": 98}, {"time": 5605, "pitch": 77, "duration": 9, "velocity": 97}, {"time": 5614, "pitch": 77, "duration": 6, "velocity": 92}, {"time": 5620, "pitch": 81, "duration": 18, "velocity": 97}, {"time": 5638, "pitch": 74, "duration": 48, "velocity": 93}, {"time": 5686, "pitch": 77, "duration": 6, "velocity": 96}, {"time": 5692, "pitch": 77, "duration": 9, "velocity": 93}, {"time": 5701, "pitch": 77, "duration": 9, "velocity": 98}, {"time": 5710, "pitch": 77, "duration": 6, "velocity": 100}, {"time": 5716, "pitch": 81, "duration": 12, "velocity": 99}, {"time": 5728, "pitch": 81, "duration": 60, "velocity": 107}, {"time": 5788, "pitch": 77, "duration": 9, "velocity": 96}, {"time": 5797, "pitch": 77, "duration": 9, "velocity": 93}, {"time": 5806, "pitch": 77, "duration": 6, "velocity": 94}, {"time": 5812, "pitch": 82, "duration": 12, "velocity": 101}, {"time": 5824, "pitch": 79, "duration": 48, "velocity": 103}, {"time": 5872, "pitch": 79, "duration": 6, "velocity": 94}, {"time": 5878, "pitch": 79, "duration": 9, "velocity": 99}, {"time": 5890, "pitch": 79, "duration": 6, "velocity": 97}, {"time": 5896, "pitch": 79, "duration": 9, "velocity": 93}, {"time": 5902, "pitch": 79, "duration": 3, "velocity": 95}, {"time": 5908, "pitch": 79, "duration": 12, "velocity": 98}, {"time": 5920, "pitch": 77, "duration": 615, "velocity": 66}], "annotations": [{"time": 746, "annotation": {"number": 1, "value": 1}, "group": "control_change"}, {"time": 1086, "annotation": {"number": 1, "value": 1}, "group": "control_change"}, {"time": 1087, "annotation": {"number": 1, "value": 0}, "group": "control_change"}, {"time": 1087, "annotation": {"number": 1, "value": 1}, "group": "control_change"}, {"time": 1227, "annotation": {"number": 1, "value": 0}, "group": "control_change"}, {"time": 1247, "annotation": {"number": 1, "value": 1}, "group": "control_change"}, {"time": 1293, "annotation": {"number": 1, "value": 0}, "group": "control_change"}, {"time": 1293, "annotation": {"number": 1, "value": 1}, "group": "control_change"}, {"time": 1309, "annotation": {"number": 1, "value": 0}, "group": "control_change"}, {"time": 1310, "annotation": {"number": 1, "value": 1}, "group": "control_change"}, {"time": 1327, "annotation": {"number": 1, "value": 0}, "group": "control_change"}, {"time": 1335, "annotation": {"number": 1, "value": 1}, "group": "control_change"}, {"time": 1482, "annotation": {"number": 1, "value": 0}, "group": "control_change"}, {"time": 1482, "annotation": {"number": 1, "value": 1}, "group": "control_change"}, {"time": 1495, "annotation": {"number": 1, "value": 0}, "group": "control_change"}, {"time": 1496, "annotation": {"number": 1, "value": 1}, "group": "control_change"}, {"time": 1510, "annotation": {"number": 1, "value": 0}, "group": "control_change"}, {"time": 1510, "annotation": {"number": 1, "value": 1}, "group": "control_change"}, {"time": 1513, "annotation": {"number": 1, "value": 0}, "group": "control_change"}, {"time": 1523, "annotation": {"number": 1, "value": 1}, "group": "control_change"}, {"time": 1948, "annotation": {"number": 1, "value": 1}, "group": "control_change"}, {"time": 1982, "annotation": {"number": 1, "value": 0}, "group": "control_change"}, {"time": 1982, "annotation": {"number": 1, "value": 1}, "group": "control_change"}, {"time": 2013, "annotation": {"number": 1, "value": 0}, "group": "control_change"}, {"time": 2187, "annotation": {"number": 1, "value": 0}, "group": "control_change"}, {"time": 2187, "annotation": {"number": 1, "value": 1}, "group": "control_change"}, {"time": 2188, "annotation": {"number": 1, "value": 0}, "group": "control_change"}, {"time": 2188, "annotation": {"number": 1, "value": 1}, "group": "control_change"}, {"time": 2189, "annotation": {"number": 1, "value": 0}, "group": "control_change"}, {"time": 2189, "annotation": {"number": 1, "value": 1}, "group": "control_change"}, {"time": 2201, "annotation": {"number": 1, "value": 0}, "group": "control_change"}, {"time": 2202, "annotation": {"number": 1, "value": 1}, "group": "control_change"}, {"time": 2203, "annotation": {"number": 1, "value": 0}, "group": "control_change"}, {"time": 2206, "annotation": {"number": 1, "value": 0}, "group": "control_change"}, {"time": 2206, "annotation": {"number": 1, "value": 1}, "group": "control_change"}, {"time": 2213, "annotation": {"number": 1, "value": 0}, "group": "control_change"}, {"time": 2219, "annotation": {"number": 1, "value": 1}, "group": "control_change"}, {"time": 2564, "annotation": {"number": 1, "value": 0}, "group": "control_change"}, {"time": 2567, "annotation": {"number": 1, "value": 1}, "group": "control_change"}, {"time": 2567, "annotation": {"number": 1, "value": 0}, "group": "control_change"}, {"time": 2573, "annotation": {"number": 1, "value": 1}, "group": "control_change"}, {"time": 2582, "annotation": {"number": 1, "value": 0}, "group": "control_change"}, {"time": 2582, "annotation": {"number": 1, "value": 1}, "group": "control_change"}, {"time": 2583, "annotation": {"number": 1, "value": 0}, "group": "control_change"}, {"time": 2584, "annotation": {"number": 1, "value": 1}, "group": "control_change"}, {"time": 2585, "annotation": {"number": 1, "value": 0}, "group": "control_change"}, {"time": 2586, "annotation": {"number": 1, "value": 1}, "group": "control_change"}, {"time": 2586, "annotation": {"number": 1, "value": 0}, "group": "control_change"}, {"time": 2587, "annotation": {"number": 1, "value": 1}, "group": "control_change"}, {"time": 2587, "annotation": {"number": 1, "value": 0}, "group": "control_change"}, {"time": 2591, "annotation": {"number": 1, "value": 1}, "group": "control_change"}, {"time": 2591, "annotation": {"number": 1, "value": 0}, "group": "control_change"}, {"time": 3146, "annotation": {"number": 1, "value": 0}, "group": "control_change"}, {"time": 3152, "annotation": {"number": 1, "value": 1}, "group": "control_change"}, {"time": 3483, "annotation": {"number": 1, "value": 1}, "group": "control_change"}, {"time": 3483, "annotation": {"number": 1, "value": 0}, "group": "control_change"}, {"time": 3484, "annotation": {"number": 1, "value": 1}, "group": "control_change"}, {"time": 3484, "annotation": {"number": 1, "value": 0}, "group": "control_change"}, {"time": 3629, "annotation": {"number": 1, "value": 0}, "group": "control_change"}, {"time": 3649, "annotation": {"number": 1, "value": 1}, "group": "control_change"}, {"time": 3692, "annotation": {"number": 1, "value": 0}, "group": "control_change"}, {"time": 3692, "annotation": {"number": 1, "value": 1}, "group": "control_change"}, {"time": 3708, "annotation": {"number": 1, "value": 0}, "group": "control_change"}, {"time": 3709, "annotation": {"number": 1, "value": 1}, "group": "control_change"}, {"time": 3726, "annotation": {"number": 1, "value": 0}, "group": "control_change"}, {"time": 3734, "annotation": {"number": 1, "value": 1}, "group": "control_change"}, {"time": 3883, "annotation": {"number": 1, "value": 0}, "group": "control_change"}, {"time": 3883, "annotation": {"number": 1, "value": 1}, "group": "control_change"}, {"time": 3884, "annotation": {"number": 1, "value": 1}, "group": "control_change"}, {"time": 3897, "annotation": {"number": 1, "value": 0}, "group": "control_change"}, {"time": 3898, "annotation": {"number": 1, "value": 1}, "group": "control_change"}, {"time": 3912, "annotation": {"number": 1, "value": 0}, "group": "control_change"}, {"time": 3912, "annotation": {"number": 1, "value": 1}, "group": "control_change"}, {"time": 3914, "annotation": {"number": 1, "value": 0}, "group": "control_change"}, {"time": 3925, "annotation": {"number": 1, "value": 1}, "group": "control_change"}, {"time": 4446, "annotation": {"number": 1, "value": 1}, "group": "control_change"}, {"time": 4479, "annotation": {"number": 1, "value": 0}, "group": "control_change"}, {"time": 4480, "annotation": {"number": 1, "value": 1}, "group": "control_change"}, {"time": 4511, "annotation": {"number": 1, "value": 0}, "group": "control_change"}, {"time": 4685, "annotation": {"number": 1, "value": 0}, "group": "control_change"}, {"time": 4685, "annotation": {"number": 1, "value": 1}, "group": "control_change"}, {"time": 4686, "annotation": {"number": 1, "value": 1}, "group": "control_change"}, {"time": 4686, "annotation": {"number": 1, "value": 0}, "group": "control_change"}, {"time": 4699, "annotation": {"number": 1, "value": 0}, "group": "control_change"}, {"time": 4700, "annotation": {"number": 1, "value": 1}, "group": "control_change"}, {"time": 4701, "annotation": {"number": 1, "value": 0}, "group": "control_change"}, {"time": 4716, "annotation": {"number": 1, "value": 1}, "group": "control_change"}, {"time": 5062, "annotation": {"number": 1, "value": 0}, "group": "control_change"}, {"time": 5065, "annotation": {"number": 1, "value": 1}, "group": "control_change"}, {"time": 5065, "annotation": {"number": 1, "value": 0}, "group": "control_change"}, {"time": 5071, "annotation": {"number": 1, "value": 1}, "group": "control_change"}, {"time": 5079, "annotation": {"number": 1, "value": 0}, "group": "control_change"}, {"time": 5080, "annotation": {"number": 1, "value": 1}, "group": "control_change"}, {"time": 5081, "annotation": {"number": 1, "value": 0}, "group": "control_change"}, {"time": 5082, "annotation": {"number": 1, "value": 1}, "group": "control_change"}, {"time": 5083, "annotation": {"number": 1, "value": 0}, "group": "control_change"}, {"time": 5083, "annotation": {"number": 1, "value": 1}, "group": "control_change"}, {"time": 5084, "annotation": {"number": 1, "value": 0}, "group": "control_change"}, {"time": 5084, "annotation": {"number": 1, "value": 1}, "group": "control_change"}, {"time": 5085, "annotation": {"number": 1, "value": 0}, "group": "control_change"}, {"time": 5089, "annotation": {"number": 1, "value": 1}, "group": "control_change"}, {"time": 5089, "annotation": {"number": 1, "value": 0}, "group": "control_change"}, {"time": 5311, "annotation": {"number": 1, "value": 1}, "group": "control_change"}, {"time": 5345, "annotation": {"number": 1, "value": 0}, "group": "control_change"}, {"time": 5345, "annotation": {"number": 1, "value": 1}, "group": "control_change"}, {"time": 5376, "annotation": {"number": 1, "value": 0}, "group": "control_change"}, {"time": 5495, "annotation": {"number": 1, "value": 1}, "group": "control_change"}, {"time": 5521, "annotation": {"number": 1, "value": 2}, "group": "control_change"}, {"time": 5546, "annotation": {"number": 1, "value": 0}, "group": "control_change"}, {"time": 5682, "annotation": {"number": 1, "value": 0}, "group": "control_change"}, {"time": 5682, "annotation": {"number": 1, "value": 1}, "group": "control_change"}, {"time": 5704, "annotation": {"number": 1, "value": 0}, "group": "control_change"}, {"time": 5704, "annotation": {"number": 1, "value": 1}, "group": "control_change"}, {"time": 5705, "annotation": {"number": 1, "value": 1}, "group": "control_change"}, {"time": 5723, "annotation": {"number": 1, "value": 0}, "group": "control_change"}, {"time": 5724, "annotation": {"number": 1, "value": 0}, "group": "control_change"}, {"time": 5724, "annotation": {"number": 1, "value": 1}, "group": "control_change"}, {"time": 5739, "annotation": {"number": 1, "value": 0}, "group": "control_change"}, {"time": 5740, "annotation": {"number": 1, "value": 1}, "group": "control_change"}, {"time": 5749, "annotation": {"number": 1, "value": 0}, "group": "control_change"}, {"time": 5750, "annotation": {"number": 1, "value": 1}, "group": "control_change"}]}, {"program": 0, "is_drum": false, "name": "PIANO", "notes": [{"time": 52, "pitch": 56, "duration": 41, "velocity": 49}, {"time": 52, "pitch": 60, "duration": 41, "velocity": 61}, {"time": 52, "pitch": 63, "duration": 40, "velocity": 62}, {"time": 52, "pitch": 68, "duration": 20, "velocity": 63}, {"time": 52, "pitch": 72, "duration": 13, "velocity": 69}, {"time": 52, "pitch": 75, "duration": 10, "velocity": 72}, {"time": 70, "pitch": 75, "duration": 18, "velocity": 59}, {"time": 76, "pitch": 68, "duration": 16, "velocity": 56}, {"time": 88, "pitch": 72, "duration": 15, "velocity": 37}, {"time": 100, "pitch": 56, "duration": 22, "velocity": 45}, {"time": 100, "pitch": 60, "duration": 22, "velocity": 48}, {"time": 100, "pitch": 63, "duration": 21, "velocity": 60}, {"time": 100, "pitch": 68, "duration": 21, "velocity": 55}, {"time": 124, "pitch": 56, "duration": 8, "velocity": 57}, {"time": 124, "pitch": 60, "duration": 8, "velocity": 52}, {"time": 124, "pitch": 63, "duration": 7, "velocity": 69}, {"time": 124, "pitch": 68, "duration": 6, "velocity": 63}, {"time": 148, "pitch": 48, "duration": 6, "velocity": 66}, {"time": 148, "pitch": 51, "duration": 6, "velocity": 73}, {"time": 148, "pitch": 55, "duration": 6, "velocity": 70}, {"time": 148, "pitch": 58, "duration": 6, "velocity": 70}, {"time": 148, "pitch": 75, "duration": 17, "velocity": 60}, {"time": 172, "pitch": 60, "duration": 17, "velocity": 49}, {"time": 172, "pitch": 63, "duration": 17, "velocity": 63}, {"time": 172, "pitch": 67, "duration": 16, "velocity": 64}, {"time": 184, "pitch": 70, "duration": 16, "velocity": 51}, {"time": 184, "pitch": 75, "duration": 15, "velocity": 63}, {"time": 196, "pitch": 60, "duration": 18, "velocity": 42}, {"time": 196, "pitch": 63, "duration": 18, "velocity": 49}, {"time": 196, "pitch": 67, "duration": 18, "velocity": 55}, {"time": 196, "pitch": 75, "duration": 3, "velocity": 49}, {"time": 220, "pitch": 60, "duration": 8, "velocity": 60}, {"time": 220, "pitch": 63, "duration": 8, "velocity": 72}, {"time": 220, "pitch": 67, "duration": 6, "velocity": 73}, {"time": 244, "pitch": 49, "duration": 19, "velocity": 50}, {"time": 244, "pitch": 53, "duration": 19, "velocity": 63}, {"time": 244, "pitch": 56, "duration": 18, "velocity": 66}, {"time": 244, "pitch": 60, "duration": 18, "velocity": 64}, {"time": 268, "pitch": 49, "duration": 19, "velocity": 50}, {"time": 268, "pitch": 53, "duration": 14, "velocity": 45}, {"time": 268, "pitch": 56, "duration": 14, "velocity": 47}, {"time": 268, "pitch": 60, "duration": 16, "velocity": 47}, {"time": 268, "pitch": 68, "duration": 30, "velocity": 46}, {"time": 268, "pitch": 73, "duration": 34, "velocity": 51}, {"time": 292, "pitch": 49, "duration": 21, "velocity": 45}, {"time": 292, "pitch": 56, "duration": 20, "velocity": 58}, {"time": 292, "pitch": 60, "duration": 20, "velocity": 45}, {"time": 292, "pitch": 80, "duration": 11, "velocity": 1}, {"time": 316, "pitch": 49, "duration": 5, "velocity": 60}, {"time": 316, "pitch": 56, "duration": 5, "velocity": 67}, {"time": 316, "pitch": 60, "duration": 5, "velocity": 62}, {"time": 340, "pitch": 49, "duration": 88, "velocity": 56}, {"time": 340, "pitch": 52, "duration": 86, "velocity": 63}, {"time": 340, "pitch": 56, "duration": 86, "velocity": 67}, {"time": 340, "pitch": 60, "duration": 31, "velocity": 63}, {"time": 340, "pitch": 68, "duration": 10, "velocity": 66}, {"time": 340, "pitch": 73, "duration": 9, "velocity": 50}, {"time": 340, "pitch": 76, "duration": 11, "velocity": 70}, {"time": 364, "pitch": 64, "duration": 14, "velocity": 59}, {"time": 364, "pitch": 73, "duration": 16, "velocity": 48}, {"time": 376, "pitch": 60, "duration": 51, "velocity": 37}, {"time": 388, "pitch": 64, "duration": 38, "velocity": 48}, {"time": 388, "pitch": 70, "duration": 27, "velocity": 50}, {"time": 415, "pitch": 68, "duration": 12, "velocity": 49}, {"time": 436, "pitch": 44, "duration": 29, "velocity": 72}, {"time": 436, "pitch": 56, "duration": 28, "velocity": 69}, {"time": 436, "pitch": 63, "duration": 18, "velocity": 62}, {"time": 436, "pitch": 68, "duration": 16, "velocity": 64}, {"time": 436, "pitch": 70, "duration": 18, "velocity": 62}, {"time": 436, "pitch": 72, "duration": 18, "velocity": 63}, {"time": 460, "pitch": 63, "duration": 16, "velocity": 55}, {"time": 460, "pitch": 68, "duration": 14, "velocity": 61}, {"time": 460, "pitch": 70, "duration": 16, "velocity": 62}, {"time": 460, "pitch": 72, "duration": 15, "velocity": 59}, {"time": 484, "pitch": 63, "duration": 17, "velocity": 57}, {"time": 484, "pitch": 68, "duration": 17, "velocity": 63}, {"time": 484, "pitch": 70, "duration": 18, "velocity": 62}, {"time": 484, "pitch": 72, "duration": 18, "velocity": 61}, {"time": 508, "pitch": 63, "duration": 11, "velocity": 62}, {"time": 508, "pitch": 68, "duration": 11, "velocity": 70}, {"time": 508, "pitch": 70, "duration": 11, "velocity": 67}, {"time": 508, "pitch": 72, "duration": 11, "velocity": 70}, {"time": 532, "pitch": 39, "duration": 86, "velocity": 58}, {"time": 532, "pitch": 51, "duration": 56, "velocity": 53}, {"time": 532, "pitch": 63, "duration": 19, "velocity": 62}, {"time": 532, "pitch": 67, "duration": 20, "velocity": 70}, {"time": 532, "pitch": 70, "duration": 20, "velocity": 70}, {"time": 532, "pitch": 75, "duration": 14, "velocity": 45}, {"time": 556, "pitch": 63, "duration": 16, "velocity": 52}, {"time": 556, "pitch": 67, "duration": 16, "velocity": 59}, {"time": 556, "pitch": 70, "duration": 17, "velocity": 61}, {"time": 580, "pitch": 63, "duration": 18, "velocity": 55}, {"time": 580, "pitch": 67, "duration": 18, "velocity": 64}, {"time": 580, "pitch": 70, "duration": 18, "velocity": 66}, {"time": 598, "pitch": 51, "duration": 11, "velocity": 37}, {"time": 604, "pitch": 63, "duration": 12, "velocity": 59}, {"time": 604, "pitch": 67, "duration": 12, "velocity": 70}, {"time": 604, "pitch": 70, "duration": 13, "velocity": 69}, {"time": 616, "pitch": 51, "duration": 3, "velocity": 53}, {"time": 628, "pitch": 37, "duration": 28, "velocity": 73}, {"time": 628, "pitch": 49, "duration": 31, "velocity": 66}, {"time": 628, "pitch": 65, "duration": 18, "velocity": 70}, {"time": 628, "pitch": 68, "duration": 18, "velocity": 73}, {"time": 628, "pitch": 73, "duration": 17, "velocity": 70}, {"time": 652, "pitch": 65, "duration": 17, "velocity": 63}, {"time": 652, "pitch": 68, "duration": 16, "velocity": 67}, {"time": 652, "pitch": 73, "duration": 16, "velocity": 59}, {"time": 673, "pitch": 49, "duration": 44, "velocity": 41}, {"time": 676, "pitch": 65, "duration": 9, "velocity": 56}, {"time": 676, "pitch": 68, "duration": 9, "velocity": 62}, {"time": 676, "pitch": 73, "duration": 10, "velocity": 58}, {"time": 688, "pitch": 61, "duration": 15, "velocity": 43}, {"time": 700, "pitch": 68, "duration": 12, "velocity": 72}, {"time": 700, "pitch": 73, "duration": 6, "velocity": 61}, {"time": 712, "pitch": 61, "duration": 5, "velocity": 39}, {"time": 724, "pitch": 63, "duration": 13, "velocity": 62}, {"time": 724, "pitch": 68, "duration": 12, "velocity": 66}, {"time": 724, "pitch": 70, "duration": 9, "velocity": 51}, {"time": 724, "pitch": 73, "duration": 3, "velocity": 51}, {"time": 727, "pitch": 44, "duration": 87, "velocity": 61}, {"time": 730, "pitch": 72, "duration": 8, "velocity": 31}, {"time": 736, "pitch": 56, "duration": 15, "velocity": 44}, {"time": 748, "pitch": 63, "duration": 11, "velocity": 56}, {"time": 748, "pitch": 68, "duration": 11, "velocity": 60}, {"time": 748, "pitch": 70, "duration": 11, "velocity": 61}, {"time": 748, "pitch": 72, "duration": 10, "velocity": 57}, {"time": 760, "pitch": 56, "duration": 15, "velocity": 33}, {"time": 772, "pitch": 63, "duration": 10, "velocity": 53}, {"time": 772, "pitch": 68, "duration": 10, "velocity": 59}, {"time": 772, "pitch": 72, "duration": 9, "velocity": 60}, {"time": 790, "pitch": 56, "duration": 22, "velocity": 52}, {"time": 796, "pitch": 63, "duration": 3, "velocity": 69}, {"time": 796, "pitch": 68, "duration": 2, "velocity": 64}, {"time": 796, "pitch": 72, "duration": 4, "velocity": 72}, {"time": 802, "pitch": 68, "duration": 2, "velocity": 62}, {"time": 802, "pitch": 73, "duration": 3, "velocity": 72}, {"time": 808, "pitch": 75, "duration": 8, "velocity": 76}, {"time": 820, "pitch": 44, "duration": 39, "velocity": 72}, {"time": 820, "pitch": 63, "duration": 14, "velocity": 82}, {"time": 820, "pitch": 68, "duration": 15, "velocity": 73}, {"time": 820, "pitch": 72, "duration": 14, "velocity": 76}, {"time": 832, "pitch": 56, "duration": 15, "velocity": 37}, {"time": 844, "pitch": 63, "duration": 6, "velocity": 63}, {"time": 844, "pitch": 68, "duration": 8, "velocity": 69}, {"time": 844, "pitch": 70, "duration": 7, "velocity": 57}, {"time": 844, "pitch": 72, "duration": 9, "velocity": 72}, {"time": 856, "pitch": 56, "duration": 16, "velocity": 40}, {"time": 868, "pitch": 44, "duration": 38, "velocity": 52}, {"time": 868, "pitch": 72, "duration": 8, "velocity": 67}, {"time": 868, "pitch": 75, "duration": 7, "velocity": 64}, {"time": 868, "pitch": 80, "duration": 7, "velocity": 73}, {"time": 880, "pitch": 56, "duration": 16, "velocity": 31}, {"time": 892, "pitch": 63, "duration": 10, "velocity": 64}, {"time": 892, "pitch": 68, "duration": 12, "velocity": 78}, {"time": 892, "pitch": 72, "duration": 12, "velocity": 73}, {"time": 904, "pitch": 56, "duration": 3, "velocity": 72}, {"time": 916, "pitch": 39, "duration": 3, "velocity": 69}, {"time": 916, "pitch": 51, "duration": 5, "velocity": 70}, {"time": 916, "pitch": 63, "duration": 11, "velocity": 66}, {"time": 916, "pitch": 67, "duration": 13, "velocity": 75}, {"time": 916, "pitch": 70, "duration": 13, "velocity": 76}, {"time": 928, "pitch": 51, "duration": 26, "velocity": 37}, {"time": 940, "pitch": 67, "duration": 4, "velocity": 95}, {"time": 940, "pitch": 70, "duration": 5, "velocity": 85}, {"time": 940, "pitch": 75, "duration": 5, "velocity": 55}, {"time": 952, "pitch": 63, "duration": 16, "velocity": 41}, {"time": 964, "pitch": 51, "duration": 36, "velocity": 54}, {"time": 964, "pitch": 70, "duration": 8, "velocity": 63}, {"time": 964, "pitch": 75, "duration": 7, "velocity": 73}, {"time": 964, "pitch": 79, "duration": 7, "velocity": 75}, {"time": 982, "pitch": 63, "duration": 11, "velocity": 49}, {"time": 988, "pitch": 67, "duration": 7, "velocity": 95}, {"time": 988, "pitch": 70, "duration": 4, "velocity": 75}, {"time": 988, "pitch": 75, "duration": 5, "velocity": 75}, {"time": 1000, "pitch": 58, "duration": 3, "velocity": 50}, {"time": 1012, "pitch": 65, "duration": 13, "velocity": 73}, {"time": 1012, "pitch": 68, "duration": 13, "velocity": 76}, {"time": 1012, "pitch": 73, "duration": 13, "velocity": 76}, {"time": 1015, "pitch": 49, "duration": 39, "velocity": 59}, {"time": 1024, "pitch": 61, "duration": 24, "velocity": 40}, {"time": 1036, "pitch": 65, "duration": 6, "velocity": 66}, {"time": 1036, "pitch": 68, "duration": 7, "velocity": 73}, {"time": 1036, "pitch": 73, "duration": 7, "velocity": 76}, {"time": 1048, "pitch": 56, "duration": 12, "velocity": 46}, {"time": 1060, "pitch": 49, "duration": 39, "velocity": 69}, {"time": 1060, "pitch": 61, "duration": 29, "velocity": 66}, {"time": 1060, "pitch": 64, "duration": 19, "velocity": 66}, {"time": 1060, "pitch": 68, "duration": 19, "velocity": 78}, {"time": 1060, "pitch": 73, "duration": 20, "velocity": 72}, {"time": 1084, "pitch": 64, "duration": 10, "velocity": 67}, {"time": 1084, "pitch": 68, "duration": 12, "velocity": 73}, {"time": 1084, "pitch": 73, "duration": 12, "velocity": 70}, {"time": 1096, "pitch": 61, "duration": 3, "velocity": 63}, {"time": 1108, "pitch": 44, "duration": 40, "velocity": 72}, {"time": 1108, "pitch": 63, "duration": 15, "velocity": 66}, {"time": 1108, "pitch": 68, "duration": 15, "velocity": 75}, {"time": 1108, "pitch": 72, "duration": 15, "velocity": 70}, {"time": 1120, "pitch": 56, "duration": 17, "velocity": 51}, {"time": 1132, "pitch": 65, "duration": 12, "velocity": 69}, {"time": 1132, "pitch": 68, "duration": 12, "velocity": 72}, {"time": 1132, "pitch": 73, "duration": 17, "velocity": 73}, {"time": 1144, "pitch": 56, "duration": 30, "velocity": 59}, {"time": 1156, "pitch": 44, "duration": 19, "velocity": 75}, {"time": 1156, "pitch": 63, "duration": 19, "velocity": 69}, {"time": 1156, "pitch": 68, "duration": 18, "velocity": 76}, {"time": 1156, "pitch": 72, "duration": 20, "velocity": 73}, {"time": 1180, "pitch": 44, "duration": 11, "velocity": 73}, {"time": 1180, "pitch": 56, "duration": 12, "velocity": 50}, {"time": 1180, "pitch": 60, "duration": 11, "velocity": 75}, {"time": 1180, "pitch": 63, "duration": 11, "velocity": 85}, {"time": 1180, "pitch": 68, "duration": 11, "velocity": 73}, {"time": 1204, "pitch": 48, "duration": 76, "velocity": 75}, {"time": 1204, "pitch": 60, "duration": 30, "velocity": 78}, {"time": 1204, "pitch": 63, "duration": 18, "velocity": 73}, {"time": 1204, "pitch": 67, "duration": 18, "velocity": 93}, {"time": 1204, "pitch": 72, "duration": 17, "velocity": 76}, {"time": 1228, "pitch": 63, "duration": 16, "velocity": 88}, {"time": 1228, "pitch": 67, "duration": 15, "velocity": 103}, {"time": 1228, "pitch": 72, "duration": 16, "velocity": 72}, {"time": 1240, "pitch": 60, "duration": 17, "velocity": 40}, {"time": 1252, "pitch": 63, "duration": 16, "velocity": 66}, {"time": 1252, "pitch": 67, "duration": 16, "velocity": 75}, {"time": 1252, "pitch": 72, "duration": 17, "velocity": 75}, {"time": 1267, "pitch": 60, "duration": 13, "velocity": 40}, {"time": 1276, "pitch": 63, "duration": 16, "velocity": 72}, {"time": 1276, "pitch": 67, "duration": 16, "velocity": 99}, {"time": 1276, "pitch": 72, "duration": 15, "velocity": 73}, {"time": 1288, "pitch": 48, "duration": 3, "velocity": 70}, {"time": 1300, "pitch": 41, "duration": 84, "velocity": 72}, {"time": 1300, "pitch": 63, "duration": 17, "velocity": 76}, {"time": 1300, "pitch": 68, "duration": 18, "velocity": 80}, {"time": 1300, "pitch": 72, "duration": 18, "velocity": 76}, {"time": 1312, "pitch": 53, "duration": 16, "velocity": 44}, {"time": 1324, "pitch": 63, "duration": 13, "velocity": 75}, {"time": 1324, "pitch": 68, "duration": 14, "velocity": 88}, {"time": 1324, "pitch": 72, "duration": 14, "velocity": 69}, {"time": 1336, "pitch": 53, "duration": 16, "velocity": 36}, {"time": 1348, "pitch": 63, "duration": 13, "velocity": 66}, {"time": 1348, "pitch": 68, "duration": 15, "velocity": 70}, {"time": 1348, "pitch": 72, "duration": 14, "velocity": 70}, {"time": 1360, "pitch": 53, "duration": 15, "velocity": 44}, {"time": 1372, "pitch": 63, "duration": 14, "velocity": 63}, {"time": 1372, "pitch": 67, "duration": 14, "velocity": 95}, {"time": 1372, "pitch": 70, "duration": 14, "velocity": 69}, {"time": 1384, "pitch": 53, "duration": 3, "velocity": 60}, {"time": 1396, "pitch": 49, "duration": 80, "velocity": 72}, {"time": 1396, "pitch": 56, "duration": 19, "velocity": 53}, {"time": 1396, "pitch": 61, "duration": 18, "velocity": 81}, {"time": 1396, "pitch": 65, "duration": 20, "velocity": 66}, {"time": 1396, "pitch": 68, "duration": 20, "velocity": 57}, {"time": 1420, "pitch": 56, "duration": 16, "velocity": 53}, {"time": 1420, "pitch": 61, "duration": 16, "velocity": 81}, {"time": 1420, "pitch": 65, "duration": 16, "velocity": 70}, {"time": 1420, "pitch": 68, "duration": 17, "velocity": 53}, {"time": 1444, "pitch": 56, "duration": 17, "velocity": 41}, {"time": 1444, "pitch": 61, "duration": 16, "velocity": 68}, {"time": 1444, "pitch": 65, "duration": 16, "velocity": 48}, {"time": 1444, "pitch": 68, "duration": 17, "velocity": 23}, {"time": 1468, "pitch": 56, "duration": 10, "velocity": 56}, {"time": 1468, "pitch": 61, "duration": 11, "velocity": 81}, {"time": 1468, "pitch": 65, "duration": 13, "velocity": 65}, {"time": 1492, "pitch": 39, "duration": 40, "velocity": 68}, {"time": 1492, "pitch": 51, "duration": 28, "velocity": 47}, {"time": 1492, "pitch": 56, "duration": 12, "velocity": 54}, {"time": 1492, "pitch": 61, "duration": 12, "velocity": 79}, {"time": 1492, "pitch": 65, "duration": 13, "velocity": 74}, {"time": 1516, "pitch": 56, "duration": 8, "velocity": 57}, {"time": 1516, "pitch": 61, "duration": 9, "velocity": 63}, {"time": 1516, "pitch": 65, "duration": 10, "velocity": 69}, {"time": 1525, "pitch": 51, "duration": 8, "velocity": 29}, {"time": 1540, "pitch": 39, "duration": 36, "velocity": 65}, {"time": 1540, "pitch": 51, "duration": 31, "velocity": 35}, {"time": 1540, "pitch": 58, "duration": 11, "velocity": 45}, {"time": 1540, "pitch": 63, "duration": 10, "velocity": 72}, {"time": 1540, "pitch": 67, "duration": 12, "velocity": 48}, {"time": 1564, "pitch": 63, "duration": 10, "velocity": 70}, {"time": 1564, "pitch": 70, "duration": 12, "velocity": 60}, {"time": 1576, "pitch": 51, "duration": 2, "velocity": 35}, {"time": 1576, "pitch": 68, "duration": 4, "velocity": 82}, {"time": 1588, "pitch": 48, "duration": 88, "velocity": 54}, {"time": 1588, "pitch": 60, "duration": 32, "velocity": 69}, {"time": 1588, "pitch": 63, "duration": 16, "velocity": 65}, {"time": 1588, "pitch": 67, "duration": 15, "velocity": 56}, {"time": 1588, "pitch": 70, "duration": 14, "velocity": 77}, {"time": 1612, "pitch": 63, "duration": 15, "velocity": 54}, {"time": 1612, "pitch": 67, "duration": 14, "velocity": 34}, {"time": 1612, "pitch": 70, "duration": 14, "velocity": 54}, {"time": 1630, "pitch": 60, "duration": 11, "velocity": 2}, {"time": 1636, "pitch": 63, "duration": 13, "velocity": 56}, {"time": 1636, "pitch": 67, "duration": 11, "velocity": 42}, {"time": 1636, "pitch": 70, "duration": 10, "velocity": 60}, {"time": 1654, "pitch": 60, "duration": 10, "velocity": 26}, {"time": 1660, "pitch": 63, "duration": 14, "velocity": 53}, {"time": 1660, "pitch": 67, "duration": 14, "velocity": 51}, {"time": 1660, "pitch": 75, "duration": 13, "velocity": 65}, {"time": 1666, "pitch": 72, "duration": 9, "velocity": 60}, {"time": 1672, "pitch": 60, "duration": 3, "velocity": 34}, {"time": 1684, "pitch": 41, "duration": 80, "velocity": 76}, {"time": 1684, "pitch": 53, "duration": 30, "velocity": 78}, {"time": 1684, "pitch": 57, "duration": 21, "velocity": 80}, {"time": 1684, "pitch": 60, "duration": 16, "velocity": 80}, {"time": 1684, "pitch": 65, "duration": 21, "velocity": 80}, {"time": 1708, "pitch": 57, "duration": 10, "velocity": 75}, {"time": 1708, "pitch": 60, "duration": 11, "velocity": 72}, {"time": 1708, "pitch": 65, "duration": 12, "velocity": 78}, {"time": 1720, "pitch": 53, "duration": 25, "velocity": 46}, {"time": 1732, "pitch": 65, "duration": 18, "velocity": 70}, {"time": 1732, "pitch": 69, "duration": 19, "velocity": 75}, {"time": 1732, "pitch": 72, "duration": 19, "velocity": 80}, {"time": 1750, "pitch": 53, "duration": 9, "velocity": 40}, {"time": 1756, "pitch": 65, "duration": 7, "velocity": 80}, {"time": 1756, "pitch": 69, "duration": 7, "velocity": 101}, {"time": 1756, "pitch": 72, "duration": 8, "velocity": 91}, {"time": 1762, "pitch": 53, "duration": 7, "velocity": 56}, {"time": 1768, "pitch": 65, "duration": 9, "velocity": 75}, {"time": 1774, "pitch": 69, "duration": 4, "velocity": 62}, {"time": 1780, "pitch": 49, "duration": 81, "velocity": 72}, {"time": 1780, "pitch": 61, "duration": 30, "velocity": 91}, {"time": 1780, "pitch": 65, "duration": 19, "velocity": 91}, {"time": 1780, "pitch": 68, "duration": 19, "velocity": 97}, {"time": 1780, "pitch": 73, "duration": 19, "velocity": 75}, {"time": 1804, "pitch": 65, "duration": 15, "velocity": 88}, {"time": 1804, "pitch": 68, "duration": 15, "velocity": 99}, {"time": 1804, "pitch": 73, "duration": 14, "velocity": 70}, {"time": 1816, "pitch": 61, "duration": 16, "velocity": 39}, {"time": 1828, "pitch": 65, "duration": 19, "velocity": 85}, {"time": 1828, "pitch": 68, "duration": 18, "velocity": 97}, {"time": 1828, "pitch": 73, "duration": 18, "velocity": 66}, {"time": 1846, "pitch": 61, "duration": 12, "velocity": 44}, {"time": 1852, "pitch": 65, "duration": 12, "velocity": 85}, {"time": 1852, "pitch": 68, "duration": 12, "velocity": 101}, {"time": 1852, "pitch": 73, "duration": 14, "velocity": 76}, {"time": 1861, "pitch": 56, "duration": 2, "velocity": 62}, {"time": 1876, "pitch": 51, "duration": 35, "velocity": 82}, {"time": 1876, "pitch": 63, "duration": 13, "velocity": 63}, {"time": 1876, "pitch": 68, "duration": 12, "velocity": 84}, {"time": 1876, "pitch": 70, "duration": 12, "velocity": 72}, {"time": 1888, "pitch": 58, "duration": 15, "velocity": 54}, {"time": 1900, "pitch": 63, "duration": 14, "velocity": 68}, {"time": 1912, "pitch": 68, "duration": 13, "velocity": 82}, {"time": 1924, "pitch": 39, "duration": 43, "velocity": 65}, {"time": 1924, "pitch": 51, "duration": 27, "velocity": 50}, {"time": 1924, "pitch": 63, "duration": 13, "velocity": 70}, {"time": 1924, "pitch": 67, "duration": 8, "velocity": 63}, {"time": 1948, "pitch": 58, "duration": 17, "velocity": 65}, {"time": 1948, "pitch": 63, "duration": 16, "velocity": 78}, {"time": 1948, "pitch": 67, "duration": 18, "velocity": 72}, {"time": 1960, "pitch": 51, "duration": 8, "velocity": 86}, {"time": 1972, "pitch": 44, "duration": 85, "velocity": 70}, {"time": 1972, "pitch": 56, "duration": 31, "velocity": 82}, {"time": 1972, "pitch": 63, "duration": 20, "velocity": 80}, {"time": 1972, "pitch": 68, "duration": 21, "velocity": 93}, {"time": 1972, "pitch": 72, "duration": 19, "velocity": 66}, {"time": 1996, "pitch": 63, "duration": 14, "velocity": 78}, {"time": 1996, "pitch": 68, "duration": 17, "velocity": 93}, {"time": 1996, "pitch": 72, "duration": 17, "velocity": 67}, {"time": 2008, "pitch": 56, "duration": 16, "velocity": 47}, {"time": 2020, "pitch": 63, "duration": 14, "velocity": 63}, {"time": 2020, "pitch": 67, "duration": 12, "velocity": 70}, {"time": 2020, "pitch": 70, "duration": 17, "velocity": 76}, {"time": 2032, "pitch": 56, "duration": 16, "velocity": 39}, {"time": 2044, "pitch": 63, "duration": 14, "velocity": 93}, {"time": 2044, "pitch": 68, "duration": 15, "velocity": 95}, {"time": 2056, "pitch": 56, "duration": 5, "velocity": 51}, {"time": 2068, "pitch": 48, "duration": 87, "velocity": 69}, {"time": 2068, "pitch": 63, "duration": 15, "velocity": 80}, {"time": 2068, "pitch": 67, "duration": 15, "velocity": 97}, {"time": 2068, "pitch": 70, "duration": 15, "velocity": 73}, {"time": 2080, "pitch": 60, "duration": 18, "velocity": 47}, {"time": 2092, "pitch": 63, "duration": 16, "velocity": 69}, {"time": 2092, "pitch": 67, "duration": 15, "velocity": 88}, {"time": 2092, "pitch": 70, "duration": 16, "velocity": 67}, {"time": 2104, "pitch": 60, "duration": 17, "velocity": 41}, {"time": 2116, "pitch": 63, "duration": 15, "velocity": 82}, {"time": 2116, "pitch": 67, "duration": 15, "velocity": 101}, {"time": 2116, "pitch": 70, "duration": 17, "velocity": 69}, {"time": 2128, "pitch": 60, "duration": 15, "velocity": 39}, {"time": 2140, "pitch": 63, "duration": 17, "velocity": 80}, {"time": 2140, "pitch": 67, "duration": 16, "velocity": 101}, {"time": 2140, "pitch": 70, "duration": 16, "velocity": 67}, {"time": 2152, "pitch": 60, "duration": 3, "velocity": 60}, {"time": 2164, "pitch": 49, "duration": 47, "velocity": 73}, {"time": 2164, "pitch": 65, "duration": 17, "velocity": 88}, {"time": 2164, "pitch": 68, "duration": 18, "velocity": 88}, {"time": 2164, "pitch": 72, "duration": 12, "velocity": 72}, {"time": 2188, "pitch": 65, "duration": 14, "velocity": 80}, {"time": 2188, "pitch": 68, "duration": 16, "velocity": 99}, {"time": 2188, "pitch": 73, "duration": 14, "velocity": 48}, {"time": 2200, "pitch": 61, "duration": 6, "velocity": 50}, {"time": 2212, "pitch": 49, "duration": 36, "velocity": 66}, {"time": 2212, "pitch": 65, "duration": 17, "velocity": 73}, {"time": 2212, "pitch": 68, "duration": 17, "velocity": 72}, {"time": 2227, "pitch": 61, "duration": 8, "velocity": 58}, {"time": 2236, "pitch": 65, "duration": 6, "velocity": 91}, {"time": 2236, "pitch": 68, "duration": 8, "velocity": 99}, {"time": 2242, "pitch": 61, "duration": 6, "velocity": 51}, {"time": 2248, "pitch": 65, "duration": 8, "velocity": 72}, {"time": 2254, "pitch": 68, "duration": 4, "velocity": 62}, {"time": 2260, "pitch": 51, "duration": 42, "velocity": 72}, {"time": 2260, "pitch": 63, "duration": 8, "velocity": 85}, {"time": 2260, "pitch": 68, "duration": 10, "velocity": 88}, {"time": 2266, "pitch": 58, "duration": 39, "velocity": 48}, {"time": 2272, "pitch": 63, "duration": 27, "velocity": 66}, {"time": 2278, "pitch": 68, "duration": 8, "velocity": 82}, {"time": 2284, "pitch": 70, "duration": 4, "velocity": 76}, {"time": 2290, "pitch": 75, "duration": 8, "velocity": 78}, {"time": 2296, "pitch": 80, "duration": 7, "velocity": 60}, {"time": 2302, "pitch": 82, "duration": 5, "velocity": 59}, {"time": 2308, "pitch": 51, "duration": 34, "velocity": 64}, {"time": 2308, "pitch": 75, "duration": 8, "velocity": 66}, {"time": 2308, "pitch": 87, "duration": 7, "velocity": 73}, {"time": 2314, "pitch": 58, "duration": 15, "velocity": 49}, {"time": 2320, "pitch": 63, "duration": 13, "velocity": 53}, {"time": 2326, "pitch": 68, "duration": 6, "velocity": 78}, {"time": 2332, "pitch": 67, "duration": 9, "velocity": 72}, {"time": 2338, "pitch": 58, "duration": 5, "velocity": 67}, {"time": 2344, "pitch": 63, "duration": 6, "velocity": 66}, {"time": 2350, "pitch": 68, "duration": 4, "velocity": 55}, {"time": 2356, "pitch": 44, "duration": 64, "velocity": 69}, {"time": 2356, "pitch": 63, "duration": 18, "velocity": 91}, {"time": 2356, "pitch": 68, "duration": 19, "velocity": 70}, {"time": 2356, "pitch": 72, "duration": 19, "velocity": 76}, {"time": 2368, "pitch": 56, "duration": 41, "velocity": 43}, {"time": 2380, "pitch": 63, "duration": 17, "velocity": 76}, {"time": 2380, "pitch": 68, "duration": 18, "velocity": 82}, {"time": 2380, "pitch": 70, "duration": 18, "velocity": 70}, {"time": 2380, "pitch": 72, "duration": 18, "velocity": 70}, {"time": 2404, "pitch": 63, "duration": 14, "velocity": 91}, {"time": 2404, "pitch": 68, "duration": 21, "velocity": 95}, {"time": 2404, "pitch": 72, "duration": 20, "velocity": 70}, {"time": 2416, "pitch": 56, "duration": 4, "velocity": 44}, {"time": 2428, "pitch": 63, "duration": 9, "velocity": 82}, {"time": 2428, "pitch": 68, "duration": 10, "velocity": 78}, {"time": 2428, "pitch": 72, "duration": 9, "velocity": 76}, {"time": 2440, "pitch": 43, "duration": 6, "velocity": 56}, {"time": 2440, "pitch": 63, "duration": 4, "velocity": 61}, {"time": 2440, "pitch": 67, "duration": 8, "velocity": 76}, {"time": 2440, "pitch": 70, "duration": 8, "velocity": 75}, {"time": 2452, "pitch": 43, "duration": 89, "velocity": 85}, {"time": 2452, "pitch": 55, "duration": 30, "velocity": 80}, {"time": 2452, "pitch": 63, "duration": 19, "velocity": 76}, {"time": 2452, "pitch": 67, "duration": 15, "velocity": 97}, {"time": 2452, "pitch": 70, "duration": 19, "velocity": 78}, {"time": 2476, "pitch": 63, "duration": 18, "velocity": 76}, {"time": 2476, "pitch": 67, "duration": 18, "velocity": 103}, {"time": 2476, "pitch": 70, "duration": 19, "velocity": 82}, {"time": 2494, "pitch": 55, "duration": 17, "velocity": 49}, {"time": 2500, "pitch": 63, "duration": 19, "velocity": 64}, {"time": 2500, "pitch": 67, "duration": 17, "velocity": 93}, {"time": 2500, "pitch": 70, "duration": 20, "velocity": 64}, {"time": 2518, "pitch": 55, "duration": 9, "velocity": 50}, {"time": 2524, "pitch": 63, "duration": 9, "velocity": 82}, {"time": 2524, "pitch": 70, "duration": 8, "velocity": 93}, {"time": 2530, "pitch": 68, "duration": 7, "velocity": 61}, {"time": 2536, "pitch": 67, "duration": 5, "velocity": 101}, {"time": 2542, "pitch": 63, "duration": 4, "velocity": 75}, {"time": 2548, "pitch": 37, "duration": 6, "velocity": 70}, {"time": 2548, "pitch": 49, "duration": 8, "velocity": 70}, {"time": 2548, "pitch": 65, "duration": 12, "velocity": 73}, {"time": 2548, "pitch": 68, "duration": 12, "velocity": 80}, {"time": 2548, "pitch": 73, "duration": 12, "velocity": 73}, {"time": 2566, "pitch": 49, "duration": 19, "velocity": 44}, {"time": 2566, "pitch": 61, "duration": 11, "velocity": 49}, {"time": 2572, "pitch": 65, "duration": 11, "velocity": 73}, {"time": 2572, "pitch": 68, "duration": 12, "velocity": 76}, {"time": 2572, "pitch": 73, "duration": 15, "velocity": 75}, {"time": 2584, "pitch": 61, "duration": 6, "velocity": 45}, {"time": 2596, "pitch": 49, "duration": 37, "velocity": 72}, {"time": 2596, "pitch": 63, "duration": 7, "velocity": 69}, {"time": 2596, "pitch": 68, "duration": 7, "velocity": 57}, {"time": 2596, "pitch": 72, "duration": 12, "velocity": 69}, {"time": 2602, "pitch": 56, "duration": 31, "velocity": 50}, {"time": 2608, "pitch": 61, "duration": 9, "velocity": 58}, {"time": 2614, "pitch": 65, "duration": 13, "velocity": 80}, {"time": 2614, "pitch": 68, "duration": 13, "velocity": 85}, {"time": 2614, "pitch": 73, "duration": 13, "velocity": 78}, {"time": 2626, "pitch": 61, "duration": 6, "velocity": 63}, {"time": 2632, "pitch": 65, "duration": 6, "velocity": 69}, {"time": 2638, "pitch": 73, "duration": 4, "velocity": 70}, {"time": 2644, "pitch": 44, "duration": 12, "velocity": 70}, {"time": 2644, "pitch": 63, "duration": 15, "velocity": 78}, {"time": 2644, "pitch": 68, "duration": 16, "velocity": 78}, {"time": 2644, "pitch": 72, "duration": 17, "velocity": 78}, {"time": 2650, "pitch": 51, "duration": 6, "velocity": 61}, {"time": 2656, "pitch": 56, "duration": 8, "velocity": 66}, {"time": 2662, "pitch": 58, "duration": 45, "velocity": 59}, {"time": 2668, "pitch": 60, "duration": 9, "velocity": 76}, {"time": 2674, "pitch": 68, "duration": 7, "velocity": 80}, {"time": 2680, "pitch": 70, "duration": 3, "velocity": 72}, {"time": 2686, "pitch": 73, "duration": 4, "velocity": 80}, {"time": 2692, "pitch": 75, "duration": 3, "velocity": 70}, {"time": 2698, "pitch": 80, "duration": 7, "velocity": 80}, {"time": 2704, "pitch": 85, "duration": 5, "velocity": 57}, {"time": 2710, "pitch": 87, "duration": 5, "velocity": 46}, {"time": 2716, "pitch": 92, "duration": 2, "velocity": 66}, {"time": 2788, "pitch": 44, "duration": 5, "velocity": 56}, {"time": 2788, "pitch": 56, "duration": 6, "velocity": 53}, {"time": 2800, "pitch": 46, "duration": 5, "velocity": 62}, {"time": 2800, "pitch": 58, "duration": 6, "velocity": 58}, {"time": 2812, "pitch": 48, "duration": 4, "velocity": 75}, {"time": 2812, "pitch": 60, "duration": 4, "velocity": 69}, {"time": 2836, "pitch": 44, "duration": 29, "velocity": 72}, {"time": 2836, "pitch": 56, "duration": 28, "velocity": 69}, {"time": 2836, "pitch": 63, "duration": 18, "velocity": 62}, {"time": 2836, "pitch": 68, "duration": 16, "velocity": 64}, {"time": 2836, "pitch": 70, "duration": 18, "velocity": 62}, {"time": 2836, "pitch": 72, "duration": 18, "velocity": 63}, {"time": 2860, "pitch": 63, "duration": 16, "velocity": 55}, {"time": 2860, "pitch": 68, "duration": 14, "velocity": 61}, {"time": 2860, "pitch": 70, "duration": 16, "velocity": 62}, {"time": 2860, "pitch": 72, "duration": 15, "velocity": 59}, {"time": 2884, "pitch": 63, "duration": 17, "velocity": 57}, {"time": 2884, "pitch": 68, "duration": 17, "velocity": 63}, {"time": 2884, "pitch": 70, "duration": 18, "velocity": 62}, {"time": 2884, "pitch": 72, "duration": 18, "velocity": 61}, {"time": 2908, "pitch": 63, "duration": 11, "velocity": 62}, {"time": 2908, "pitch": 68, "duration": 11, "velocity": 70}, {"time": 2908, "pitch": 70, "duration": 11, "velocity": 67}, {"time": 2908, "pitch": 72, "duration": 11, "velocity": 70}, {"time": 2932, "pitch": 39, "duration": 86, "velocity": 58}, {"time": 2932, "pitch": 51, "duration": 56, "velocity": 53}, {"time": 2932, "pitch": 63, "duration": 19, "velocity": 62}, {"time": 2932, "pitch": 67, "duration": 20, "velocity": 70}, {"time": 2932, "pitch": 70, "duration": 20, "velocity": 70}, {"time": 2932, "pitch": 75, "duration": 14, "velocity": 45}, {"time": 2956, "pitch": 63, "duration": 16, "velocity": 52}, {"time": 2956, "pitch": 67, "duration": 16, "velocity": 59}, {"time": 2956, "pitch": 70, "duration": 17, "velocity": 61}, {"time": 2980, "pitch": 63, "duration": 18, "velocity": 55}, {"time": 2980, "pitch": 67, "duration": 18, "velocity": 64}, {"time": 2980, "pitch": 70, "duration": 18, "velocity": 66}, {"time": 2998, "pitch": 51, "duration": 11, "velocity": 37}, {"time": 3004, "pitch": 63, "duration": 12, "velocity": 59}, {"time": 3004, "pitch": 67, "duration": 12, "velocity": 70}, {"time": 3004, "pitch": 70, "duration": 13, "velocity": 69}, {"time": 3016, "pitch": 51, "duration": 3, "velocity": 53}, {"time": 3028, "pitch": 37, "duration": 28, "velocity": 73}, {"time": 3028, "pitch": 49, "duration": 31, "velocity": 66}, {"time": 3028, "pitch": 65, "duration": 18, "velocity": 70}, {"time": 3028, "pitch": 68, "duration": 18, "velocity": 73}, {"time": 3028, "pitch": 73, "duration": 17, "velocity": 70}, {"time": 3052, "pitch": 65, "duration": 17, "velocity": 63}, {"time": 3052, "pitch": 68, "duration": 16, "velocity": 67}, {"time": 3052, "pitch": 73, "duration": 16, "velocity": 59}, {"time": 3076, "pitch": 49, "duration": 44, "velocity": 41}, {"time": 3076, "pitch": 65, "duration": 9, "velocity": 56}, {"time": 3076, "pitch": 68, "duration": 9, "velocity": 62}, {"time": 3076, "pitch": 73, "duration": 10, "velocity": 58}, {"time": 3088, "pitch": 61, "duration": 15, "velocity": 43}, {"time": 3100, "pitch": 68, "duration": 12, "velocity": 72}, {"time": 3100, "pitch": 73, "duration": 6, "velocity": 61}, {"time": 3112, "pitch": 61, "duration": 5, "velocity": 39}, {"time": 3124, "pitch": 44, "duration": 87, "velocity": 61}, {"time": 3124, "pitch": 63, "duration": 13, "velocity": 62}, {"time": 3124, "pitch": 68, "duration": 12, "velocity": 66}, {"time": 3124, "pitch": 70, "duration": 9, "velocity": 51}, {"time": 3124, "pitch": 73, "duration": 3, "velocity": 51}, {"time": 3130, "pitch": 72, "duration": 8, "velocity": 31}, {"time": 3136, "pitch": 56, "duration": 15, "velocity": 44}, {"time": 3148, "pitch": 63, "duration": 11, "velocity": 56}, {"time": 3148, "pitch": 68, "duration": 11, "velocity": 60}, {"time": 3148, "pitch": 70, "duration": 11, "velocity": 61}, {"time": 3148, "pitch": 72, "duration": 10, "velocity": 57}, {"time": 3160, "pitch": 56, "duration": 15, "velocity": 33}, {"time": 3172, "pitch": 63, "duration": 10, "velocity": 53}, {"time": 3172, "pitch": 68, "duration": 10, "velocity": 59}, {"time": 3172, "pitch": 72, "duration": 9, "velocity": 60}, {"time": 3190, "pitch": 56, "duration": 22, "velocity": 52}, {"time": 3196, "pitch": 63, "duration": 3, "velocity": 69}, {"time": 3196, "pitch": 68, "duration": 2, "velocity": 64}, {"time": 3196, "pitch": 72, "duration": 4, "velocity": 72}, {"time": 3202, "pitch": 68, "duration": 2, "velocity": 62}, {"time": 3202, "pitch": 73, "duration": 3, "velocity": 72}, {"time": 3208, "pitch": 75, "duration": 8, "velocity": 76}, {"time": 3220, "pitch": 44, "duration": 39, "velocity": 72}, {"time": 3220, "pitch": 63, "duration": 14, "velocity": 82}, {"time": 3220, "pitch": 68, "duration": 15, "velocity": 73}, {"time": 3220, "pitch": 72, "duration": 14, "velocity": 76}, {"time": 3232, "pitch": 56, "duration": 15, "velocity": 37}, {"time": 3244, "pitch": 63, "duration": 6, "velocity": 63}, {"time": 3244, "pitch": 68, "duration": 8, "velocity": 69}, {"time": 3244, "pitch": 70, "duration": 7, "velocity": 57}, {"time": 3244, "pitch": 72, "duration": 9, "velocity": 72}, {"time": 3256, "pitch": 56, "duration": 16, "velocity": 40}, {"time": 3268, "pitch": 44, "duration": 38, "velocity": 52}, {"time": 3268, "pitch": 68, "duration": 8, "velocity": 67}, {"time": 3268, "pitch": 70, "duration": 7, "velocity": 64}, {"time": 3268, "pitch": 72, "duration": 7, "velocity": 73}, {"time": 3280, "pitch": 56, "duration": 16, "velocity": 31}, {"time": 3292, "pitch": 63, "duration": 10, "velocity": 64}, {"time": 3292, "pitch": 68, "duration": 12, "velocity": 78}, {"time": 3292, "pitch": 72, "duration": 12, "velocity": 73}, {"time": 3304, "pitch": 56, "duration": 3, "velocity": 72}, {"time": 3316, "pitch": 39, "duration": 3, "velocity": 69}, {"time": 3316, "pitch": 51, "duration": 5, "velocity": 70}, {"time": 3316, "pitch": 63, "duration": 11, "velocity": 66}, {"time": 3316, "pitch": 67, "duration": 13, "velocity": 75}, {"time": 3316, "pitch": 70, "duration": 13, "velocity": 76}, {"time": 3328, "pitch": 51, "duration": 26, "velocity": 37}, {"time": 3340, "pitch": 67, "duration": 4, "velocity": 95}, {"time": 3340, "pitch": 70, "duration": 5, "velocity": 85}, {"time": 3340, "pitch": 75, "duration": 5, "velocity": 55}, {"time": 3352, "pitch": 63, "duration": 16, "velocity": 41}, {"time": 3364, "pitch": 51, "duration": 36, "velocity": 54}, {"time": 3364, "pitch": 70, "duration": 8, "velocity": 63}, {"time": 3364, "pitch": 75, "duration": 7, "velocity": 73}, {"time": 3364, "pitch": 79, "duration": 7, "velocity": 75}, {"time": 3382, "pitch": 63, "duration": 11, "velocity": 49}, {"time": 3388, "pitch": 67, "duration": 7, "velocity": 95}, {"time": 3388, "pitch": 70, "duration": 4, "velocity": 75}, {"time": 3388, "pitch": 75, "duration": 5, "velocity": 75}, {"time": 3400, "pitch": 58, "duration": 3, "velocity": 50}, {"time": 3412, "pitch": 65, "duration": 13, "velocity": 73}, {"time": 3412, "pitch": 68, "duration": 13, "velocity": 76}, {"time": 3412, "pitch": 73, "duration": 13, "velocity": 76}, {"time": 3415, "pitch": 49, "duration": 39, "velocity": 59}, {"time": 3424, "pitch": 61, "duration": 24, "velocity": 40}, {"time": 3436, "pitch": 65, "duration": 6, "velocity": 66}, {"time": 3436, "pitch": 68, "duration": 7, "velocity": 73}, {"time": 3436, "pitch": 73, "duration": 7, "velocity": 76}, {"time": 3448, "pitch": 56, "duration": 12, "velocity": 46}, {"time": 3460, "pitch": 49, "duration": 39, "velocity": 69}, {"time": 3460, "pitch": 61, "duration": 29, "velocity": 66}, {"time": 3460, "pitch": 64, "duration": 19, "velocity": 66}, {"time": 3460, "pitch": 68, "duration": 19, "velocity": 78}, {"time": 3460, "pitch": 73, "duration": 20, "velocity": 72}, {"time": 3484, "pitch": 64, "duration": 10, "velocity": 67}, {"time": 3484, "pitch": 68, "duration": 12, "velocity": 73}, {"time": 3484, "pitch": 73, "duration": 12, "velocity": 70}, {"time": 3496, "pitch": 61, "duration": 3, "velocity": 63}, {"time": 3508, "pitch": 44, "duration": 40, "velocity": 72}, {"time": 3508, "pitch": 63, "duration": 15, "velocity": 66}, {"time": 3508, "pitch": 68, "duration": 15, "velocity": 75}, {"time": 3508, "pitch": 72, "duration": 15, "velocity": 70}, {"time": 3520, "pitch": 56, "duration": 17, "velocity": 51}, {"time": 3532, "pitch": 65, "duration": 12, "velocity": 69}, {"time": 3532, "pitch": 68, "duration": 12, "velocity": 72}, {"time": 3532, "pitch": 73, "duration": 17, "velocity": 73}, {"time": 3544, "pitch": 56, "duration": 30, "velocity": 59}, {"time": 3556, "pitch": 44, "duration": 19, "velocity": 75}, {"time": 3556, "pitch": 63, "duration": 19, "velocity": 69}, {"time": 3556, "pitch": 68, "duration": 18, "velocity": 76}, {"time": 3556, "pitch": 72, "duration": 20, "velocity": 73}, {"time": 3580, "pitch": 44, "duration": 11, "velocity": 73}, {"time": 3580, "pitch": 56, "duration": 12, "velocity": 50}, {"time": 3580, "pitch": 60, "duration": 11, "velocity": 75}, {"time": 3580, "pitch": 63, "duration": 11, "velocity": 85}, {"time": 3580, "pitch": 68, "duration": 11, "velocity": 73}, {"time": 3604, "pitch": 48, "duration": 76, "velocity": 75}, {"time": 3604, "pitch": 60, "duration": 30, "velocity": 78}, {"time": 3604, "pitch": 63, "duration": 18, "velocity": 73}, {"time": 3604, "pitch": 67, "duration": 18, "velocity": 93}, {"time": 3604, "pitch": 72, "duration": 17, "velocity": 76}, {"time": 3628, "pitch": 63, "duration": 16, "velocity": 88}, {"time": 3628, "pitch": 67, "duration": 15, "velocity": 103}, {"time": 3628, "pitch": 72, "duration": 16, "velocity": 72}, {"time": 3640, "pitch": 60, "duration": 17, "velocity": 40}, {"time": 3652, "pitch": 63, "duration": 16, "velocity": 66}, {"time": 3652, "pitch": 67, "duration": 16, "velocity": 75}, {"time": 3652, "pitch": 72, "duration": 17, "velocity": 75}, {"time": 3667, "pitch": 60, "duration": 13, "velocity": 40}, {"time": 3676, "pitch": 63, "duration": 16, "velocity": 72}, {"time": 3676, "pitch": 67, "duration": 16, "velocity": 99}, {"time": 3676, "pitch": 72, "duration": 15, "velocity": 73}, {"time": 3688, "pitch": 48, "duration": 3, "velocity": 70}, {"time": 3700, "pitch": 41, "duration": 84, "velocity": 72}, {"time": 3700, "pitch": 63, "duration": 17, "velocity": 76}, {"time": 3700, "pitch": 68, "duration": 18, "velocity": 80}, {"time": 3700, "pitch": 72, "duration": 18, "velocity": 76}, {"time": 3712, "pitch": 53, "duration": 16, "velocity": 44}, {"time": 3724, "pitch": 63, "duration": 13, "velocity": 75}, {"time": 3724, "pitch": 68, "duration": 14, "velocity": 88}, {"time": 3724, "pitch": 72, "duration": 14, "velocity": 69}, {"time": 3736, "pitch": 53, "duration": 16, "velocity": 36}, {"time": 3748, "pitch": 63, "duration": 13, "velocity": 66}, {"time": 3748, "pitch": 68, "duration": 15, "velocity": 70}, {"time": 3748, "pitch": 72, "duration": 14, "velocity": 70}, {"time": 3760, "pitch": 53, "duration": 15, "velocity": 44}, {"time": 3772, "pitch": 63, "duration": 14, "velocity": 63}, {"time": 3772, "pitch": 67, "duration": 14, "velocity": 95}, {"time": 3772, "pitch": 70, "duration": 14, "velocity": 69}, {"time": 3784, "pitch": 53, "duration": 3, "velocity": 60}, {"time": 3796, "pitch": 49, "duration": 39, "velocity": 73}, {"time": 3796, "pitch": 63, "duration": 11, "velocity": 61}, {"time": 3796, "pitch": 65, "duration": 12, "velocity": 69}, {"time": 3796, "pitch": 68, "duration": 13, "velocity": 73}, {"time": 3796, "pitch": 73, "duration": 9, "velocity": 26}, {"time": 3802, "pitch": 56, "duration": 25, "velocity": 56}, {"time": 3808, "pitch": 61, "duration": 22, "velocity": 67}, {"time": 3814, "pitch": 63, "duration": 10, "velocity": 66}, {"time": 3826, "pitch": 63, "duration": 7, "velocity": 59}, {"time": 3826, "pitch": 65, "duration": 11, "velocity": 85}, {"time": 3826, "pitch": 68, "duration": 4, "velocity": 38}, {"time": 3832, "pitch": 56, "duration": 11, "velocity": 70}, {"time": 3838, "pitch": 63, "duration": 4, "velocity": 58}, {"time": 3844, "pitch": 49, "duration": 39, "velocity": 75}, {"time": 3844, "pitch": 63, "duration": 11, "velocity": 69}, {"time": 3844, "pitch": 65, "duration": 13, "velocity": 73}, {"time": 3844, "pitch": 68, "duration": 14, "velocity": 75}, {"time": 3850, "pitch": 56, "duration": 32, "velocity": 66}, {"time": 3856, "pitch": 61, "duration": 9, "velocity": 78}, {"time": 3862, "pitch": 65, "duration": 13, "velocity": 93}, {"time": 3862, "pitch": 68, "duration": 12, "velocity": 93}, {"time": 3862, "pitch": 73, "duration": 13, "velocity": 78}, {"time": 3874, "pitch": 61, "duration": 6, "velocity": 54}, {"time": 3880, "pitch": 65, "duration": 6, "velocity": 82}, {"time": 3886, "pitch": 73, "duration": 5, "velocity": 73}, {"time": 3892, "pitch": 39, "duration": 11, "velocity": 73}, {"time": 3892, "pitch": 63, "duration": 27, "velocity": 82}, {"time": 3892, "pitch": 67, "duration": 25, "velocity": 99}, {"time": 3892, "pitch": 70, "duration": 26, "velocity": 88}, {"time": 3892, "pitch": 73, "duration": 1, "velocity": 60}, {"time": 3904, "pitch": 51, "duration": 8, "velocity": 63}, {"time": 3910, "pitch": 53, "duration": 11, "velocity": 60}, {"time": 3916, "pitch": 55, "duration": 14, "velocity": 76}, {"time": 3922, "pitch": 58, "duration": 20, "velocity": 78}, {"time": 3928, "pitch": 63, "duration": 8, "velocity": 52}, {"time": 3934, "pitch": 65, "duration": 6, "velocity": 82}, {"time": 3940, "pitch": 51, "duration": 39, "velocity": 73}, {"time": 3940, "pitch": 63, "duration": 12, "velocity": 66}, {"time": 3940, "pitch": 67, "duration": 13, "velocity": 69}, {"time": 3940, "pitch": 70, "duration": 12, "velocity": 76}, {"time": 3949, "pitch": 58, "duration": 8, "velocity": 63}, {"time": 3958, "pitch": 63, "duration": 4, "velocity": 59}, {"time": 3958, "pitch": 65, "duration": 13, "velocity": 85}, {"time": 3958, "pitch": 70, "duration": 2, "velocity": 57}, {"time": 3970, "pitch": 63, "duration": 8, "velocity": 73}, {"time": 3970, "pitch": 67, "duration": 9, "velocity": 82}, {"time": 3976, "pitch": 58, "duration": 4, "velocity": 67}, {"time": 3988, "pitch": 48, "duration": 89, "velocity": 70}, {"time": 3988, "pitch": 60, "duration": 32, "velocity": 88}, {"time": 3988, "pitch": 63, "duration": 17, "velocity": 63}, {"time": 3988, "pitch": 67, "duration": 18, "velocity": 99}, {"time": 3988, "pitch": 70, "duration": 17, "velocity": 63}, {"time": 4012, "pitch": 63, "duration": 17, "velocity": 72}, {"time": 4012, "pitch": 67, "duration": 17, "velocity": 78}, {"time": 4012, "pitch": 70, "duration": 16, "velocity": 70}, {"time": 4030, "pitch": 60, "duration": 15, "velocity": 37}, {"time": 4036, "pitch": 63, "duration": 20, "velocity": 73}, {"time": 4036, "pitch": 67, "duration": 20, "velocity": 91}, {"time": 4036, "pitch": 70, "duration": 20, "velocity": 72}, {"time": 4051, "pitch": 60, "duration": 12, "velocity": 46}, {"time": 4060, "pitch": 63, "duration": 15, "velocity": 70}, {"time": 4060, "pitch": 67, "duration": 14, "velocity": 99}, {"time": 4060, "pitch": 70, "duration": 15, "velocity": 69}, {"time": 4072, "pitch": 60, "duration": 3, "velocity": 58}, {"time": 4084, "pitch": 41, "duration": 80, "velocity": 76}, {"time": 4084, "pitch": 53, "duration": 30, "velocity": 78}, {"time": 4084, "pitch": 57, "duration": 21, "velocity": 80}, {"time": 4084, "pitch": 60, "duration": 16, "velocity": 80}, {"time": 4084, "pitch": 65, "duration": 21, "velocity": 80}, {"time": 4108, "pitch": 57, "duration": 10, "velocity": 75}, {"time": 4108, "pitch": 60, "duration": 11, "velocity": 72}, {"time": 4108, "pitch": 65, "duration": 12, "velocity": 78}, {"time": 4120, "pitch": 53, "duration": 25, "velocity": 46}, {"time": 4132, "pitch": 65, "duration": 18, "velocity": 70}, {"time": 4132, "pitch": 69, "duration": 19, "velocity": 75}, {"time": 4132, "pitch": 72, "duration": 19, "velocity": 80}, {"time": 4150, "pitch": 53, "duration": 9, "velocity": 40}, {"time": 4156, "pitch": 65, "duration": 7, "velocity": 80}, {"time": 4156, "pitch": 69, "duration": 7, "velocity": 101}, {"time": 4156, "pitch": 72, "duration": 8, "velocity": 91}, {"time": 4162, "pitch": 53, "duration": 7, "velocity": 56}, {"time": 4168, "pitch": 65, "duration": 9, "velocity": 75}, {"time": 4174, "pitch": 69, "duration": 4, "velocity": 62}, {"time": 4180, "pitch": 49, "duration": 81, "velocity": 72}, {"time": 4180, "pitch": 61, "duration": 30, "velocity": 91}, {"time": 4180, "pitch": 65, "duration": 19, "velocity": 91}, {"time": 4180, "pitch": 68, "duration": 19, "velocity": 97}, {"time": 4180, "pitch": 73, "duration": 19, "velocity": 75}, {"time": 4204, "pitch": 65, "duration": 15, "velocity": 88}, {"time": 4204, "pitch": 68, "duration": 15, "velocity": 99}, {"time": 4204, "pitch": 73, "duration": 14, "velocity": 70}, {"time": 4216, "pitch": 61, "duration": 16, "velocity": 39}, {"time": 4228, "pitch": 65, "duration": 19, "velocity": 85}, {"time": 4228, "pitch": 68, "duration": 18, "velocity": 97}, {"time": 4228, "pitch": 73, "duration": 18, "velocity": 66}, {"time": 4246, "pitch": 61, "duration": 12, "velocity": 44}, {"time": 4252, "pitch": 65, "duration": 12, "velocity": 85}, {"time": 4252, "pitch": 68, "duration": 12, "velocity": 101}, {"time": 4252, "pitch": 73, "duration": 14, "velocity": 76}, {"time": 4264, "pitch": 56, "duration": 2, "velocity": 62}, {"time": 4276, "pitch": 39, "duration": 36, "velocity": 64}, {"time": 4276, "pitch": 51, "duration": 29, "velocity": 67}, {"time": 4276, "pitch": 56, "duration": 19, "velocity": 69}, {"time": 4276, "pitch": 61, "duration": 18, "velocity": 64}, {"time": 4276, "pitch": 65, "duration": 20, "velocity": 60}, {"time": 4276, "pitch": 68, "duration": 19, "velocity": 45}, {"time": 4300, "pitch": 56, "duration": 6, "velocity": 72}, {"time": 4300, "pitch": 61, "duration": 9, "velocity": 67}, {"time": 4300, "pitch": 65, "duration": 10, "velocity": 66}, {"time": 4300, "pitch": 68, "duration": 9, "velocity": 66}, {"time": 4312, "pitch": 51, "duration": 3, "velocity": 64}, {"time": 4324, "pitch": 51, "duration": 35, "velocity": 78}, {"time": 4324, "pitch": 63, "duration": 8, "velocity": 63}, {"time": 4324, "pitch": 67, "duration": 8, "velocity": 70}, {"time": 4324, "pitch": 70, "duration": 10, "velocity": 70}, {"time": 4336, "pitch": 58, "duration": 14, "velocity": 51}, {"time": 4336, "pitch": 68, "duration": 11, "velocity": 59}, {"time": 4348, "pitch": 63, "duration": 10, "velocity": 55}, {"time": 4348, "pitch": 67, "duration": 8, "velocity": 63}, {"time": 4348, "pitch": 70, "duration": 8, "velocity": 73}, {"time": 4360, "pitch": 58, "duration": 2, "velocity": 52}, {"time": 4360, "pitch": 68, "duration": 4, "velocity": 60}, {"time": 4360, "pitch": 72, "duration": 4, "velocity": 66}, {"time": 4372, "pitch": 63, "duration": 7, "velocity": 56}, {"time": 4372, "pitch": 68, "duration": 13, "velocity": 64}, {"time": 4420, "pitch": 72, "duration": 4, "velocity": 40}, {"time": 4420, "pitch": 75, "duration": 3, "velocity": 48}, {"time": 4420, "pitch": 80, "duration": 4, "velocity": 51}, {"time": 4432, "pitch": 70, "duration": 3, "velocity": 57}, {"time": 4432, "pitch": 79, "duration": 3, "velocity": 69}, {"time": 4444, "pitch": 67, "duration": 3, "velocity": 70}, {"time": 4444, "pitch": 75, "duration": 4, "velocity": 73}, {"time": 4456, "pitch": 70, "duration": 4, "velocity": 67}, {"time": 4468, "pitch": 44, "duration": 81, "velocity": 76}, {"time": 4468, "pitch": 63, "duration": 12, "velocity": 64}, {"time": 4468, "pitch": 68, "duration": 12, "velocity": 64}, {"time": 4468, "pitch": 72, "duration": 12, "velocity": 75}, {"time": 4480, "pitch": 56, "duration": 42, "velocity": 43}, {"time": 4492, "pitch": 63, "duration": 11, "velocity": 64}, {"time": 4492, "pitch": 68, "duration": 11, "velocity": 70}, {"time": 4492, "pitch": 72, "duration": 10, "velocity": 70}, {"time": 4516, "pitch": 63, "duration": 18, "velocity": 52}, {"time": 4516, "pitch": 68, "duration": 16, "velocity": 60}, {"time": 4516, "pitch": 72, "duration": 17, "velocity": 60}, {"time": 4525, "pitch": 73, "duration": 8, "velocity": 8}, {"time": 4534, "pitch": 56, "duration": 7, "velocity": 45}, {"time": 4540, "pitch": 63, "duration": 7, "velocity": 59}, {"time": 4540, "pitch": 68, "duration": 8, "velocity": 67}, {"time": 4540, "pitch": 72, "duration": 9, "velocity": 69}, {"time": 4546, "pitch": 56, "duration": 6, "velocity": 57}, {"time": 4552, "pitch": 63, "duration": 6, "velocity": 59}, {"time": 4558, "pitch": 72, "duration": 7, "velocity": 64}, {"time": 4564, "pitch": 48, "duration": 37, "velocity": 73}, {"time": 4564, "pitch": 63, "duration": 12, "velocity": 66}, {"time": 4564, "pitch": 67, "duration": 12, "velocity": 69}, {"time": 4564, "pitch": 70, "duration": 12, "velocity": 69}, {"time": 4576, "pitch": 55, "duration": 14, "velocity": 34}, {"time": 4588, "pitch": 60, "duration": 13, "velocity": 55}, {"time": 4588, "pitch": 63, "duration": 5, "velocity": 55}, {"time": 4588, "pitch": 67, "duration": 7, "velocity": 60}, {"time": 4588, "pitch": 70, "duration": 8, "velocity": 55}, {"time": 4600, "pitch": 55, "duration": 13, "velocity": 41}, {"time": 4612, "pitch": 48, "duration": 41, "velocity": 49}, {"time": 4612, "pitch": 72, "duration": 5, "velocity": 47}, {"time": 4612, "pitch": 75, "duration": 4, "velocity": 45}, {"time": 4612, "pitch": 80, "duration": 6, "velocity": 47}, {"time": 4624, "pitch": 55, "duration": 30, "velocity": 42}, {"time": 4630, "pitch": 70, "duration": 3, "velocity": 66}, {"time": 4630, "pitch": 79, "duration": 3, "velocity": 72}, {"time": 4636, "pitch": 60, "duration": 5, "velocity": 42}, {"time": 4642, "pitch": 67, "duration": 8, "velocity": 64}, {"time": 4642, "pitch": 75, "duration": 6, "velocity": 73}, {"time": 4648, "pitch": 60, "duration": 4, "velocity": 45}, {"time": 4654, "pitch": 70, "duration": 5, "velocity": 63}, {"time": 4660, "pitch": 49, "duration": 85, "velocity": 69}, {"time": 4660, "pitch": 65, "duration": 15, "velocity": 58}, {"time": 4660, "pitch": 68, "duration": 13, "velocity": 64}, {"time": 4660, "pitch": 72, "duration": 13, "velocity": 61}, {"time": 4672, "pitch": 56, "duration": 15, "velocity": 44}, {"time": 4684, "pitch": 61, "duration": 13, "velocity": 51}, {"time": 4684, "pitch": 63, "duration": 10, "velocity": 56}, {"time": 4684, "pitch": 68, "duration": 11, "velocity": 61}, {"time": 4684, "pitch": 72, "duration": 11, "velocity": 58}, {"time": 4696, "pitch": 56, "duration": 14, "velocity": 41}, {"time": 4708, "pitch": 61, "duration": 15, "velocity": 48}, {"time": 4708, "pitch": 65, "duration": 17, "velocity": 56}, {"time": 4708, "pitch": 68, "duration": 13, "velocity": 60}, {"time": 4708, "pitch": 73, "duration": 17, "velocity": 52}, {"time": 4720, "pitch": 56, "duration": 13, "velocity": 44}, {"time": 4732, "pitch": 61, "duration": 11, "velocity": 47}, {"time": 4732, "pitch": 65, "duration": 14, "velocity": 66}, {"time": 4732, "pitch": 68, "duration": 12, "velocity": 73}, {"time": 4732, "pitch": 73, "duration": 15, "velocity": 64}, {"time": 4744, "pitch": 56, "duration": 3, "velocity": 69}, {"time": 4756, "pitch": 39, "duration": 42, "velocity": 67}, {"time": 4756, "pitch": 58, "duration": 12, "velocity": 76}, {"time": 4756, "pitch": 63, "duration": 12, "velocity": 73}, {"time": 4756, "pitch": 67, "duration": 15, "velocity": 75}, {"time": 4765, "pitch": 51, "duration": 19, "velocity": 41}, {"time": 4780, "pitch": 63, "duration": 12, "velocity": 73}, {"time": 4780, "pitch": 67, "duration": 13, "velocity": 66}, {"time": 4780, "pitch": 70, "duration": 10, "velocity": 67}, {"time": 4792, "pitch": 51, "duration": 11, "velocity": 53}, {"time": 4804, "pitch": 39, "duration": 37, "velocity": 72}, {"time": 4804, "pitch": 60, "duration": 6, "velocity": 69}, {"time": 4804, "pitch": 63, "duration": 7, "velocity": 67}, {"time": 4804, "pitch": 68, "duration": 7, "velocity": 78}, {"time": 4810, "pitch": 51, "duration": 7, "velocity": 39}, {"time": 4816, "pitch": 58, "duration": 4, "velocity": 60}, {"time": 4816, "pitch": 67, "duration": 5, "velocity": 56}, {"time": 4822, "pitch": 58, "duration": 8, "velocity": 61}, {"time": 4822, "pitch": 63, "duration": 7, "velocity": 80}, {"time": 4828, "pitch": 51, "duration": 7, "velocity": 51}, {"time": 4834, "pitch": 58, "duration": 2, "velocity": 62}, {"time": 4834, "pitch": 65, "duration": 5, "velocity": 66}, {"time": 4840, "pitch": 51, "duration": 4, "velocity": 60}, {"time": 4849, "pitch": 63, "duration": 6, "velocity": 45}, {"time": 4852, "pitch": 44, "duration": 10, "velocity": 72}, {"time": 4852, "pitch": 68, "duration": 3, "velocity": 34}, {"time": 4852, "pitch": 75, "duration": 7, "velocity": 63}, {"time": 4858, "pitch": 51, "duration": 6, "velocity": 60}, {"time": 4858, "pitch": 63, "duration": 5, "velocity": 51}, {"time": 4864, "pitch": 56, "duration": 7, "velocity": 45}, {"time": 4864, "pitch": 68, "duration": 5, "velocity": 57}, {"time": 4870, "pitch": 58, "duration": 15, "velocity": 50}, {"time": 4870, "pitch": 70, "duration": 5, "velocity": 62}, {"time": 4876, "pitch": 60, "duration": 8, "velocity": 67}, {"time": 4876, "pitch": 63, "duration": 5, "velocity": 51}, {"time": 4882, "pitch": 75, "duration": 9, "velocity": 62}, {"time": 4888, "pitch": 63, "duration": 4, "velocity": 55}, {"time": 4894, "pitch": 70, "duration": 9, "velocity": 69}, {"time": 4900, "pitch": 44, "duration": 9, "velocity": 69}, {"time": 4906, "pitch": 51, "duration": 6, "velocity": 58}, {"time": 4906, "pitch": 63, "duration": 4, "velocity": 53}, {"time": 4912, "pitch": 56, "duration": 7, "velocity": 44}, {"time": 4912, "pitch": 68, "duration": 5, "velocity": 53}, {"time": 4918, "pitch": 58, "duration": 10, "velocity": 50}, {"time": 4918, "pitch": 75, "duration": 15, "velocity": 67}, {"time": 4924, "pitch": 60, "duration": 15, "velocity": 64}, {"time": 4930, "pitch": 63, "duration": 5, "velocity": 53}, {"time": 4936, "pitch": 58, "duration": 4, "velocity": 67}, {"time": 4936, "pitch": 68, "duration": 6, "velocity": 69}, {"time": 4942, "pitch": 70, "duration": 5, "velocity": 73}, {"time": 4948, "pitch": 48, "duration": 10, "velocity": 72}, {"time": 4948, "pitch": 67, "duration": 6, "velocity": 67}, {"time": 4954, "pitch": 55, "duration": 6, "velocity": 57}, {"time": 4954, "pitch": 63, "duration": 6, "velocity": 49}, {"time": 4960, "pitch": 58, "duration": 8, "velocity": 54}, {"time": 4960, "pitch": 75, "duration": 9, "velocity": 58}, {"time": 4966, "pitch": 60, "duration": 21, "velocity": 55}, {"time": 4966, "pitch": 63, "duration": 5, "velocity": 51}, {"time": 4972, "pitch": 70, "duration": 6, "velocity": 59}, {"time": 4978, "pitch": 63, "duration": 4, "velocity": 54}, {"time": 4984, "pitch": 63, "duration": 2, "velocity": 60}, {"time": 4984, "pitch": 67, "duration": 5, "velocity": 63}, {"time": 4990, "pitch": 70, "duration": 4, "velocity": 60}, {"time": 4990, "pitch": 75, "duration": 18, "velocity": 56}, {"time": 4996, "pitch": 48, "duration": 41, "velocity": 75}, {"time": 5002, "pitch": 55, "duration": 8, "velocity": 67}, {"time": 5002, "pitch": 63, "duration": 5, "velocity": 56}, {"time": 5008, "pitch": 58, "duration": 8, "velocity": 69}, {"time": 5008, "pitch": 67, "duration": 5, "velocity": 55}, {"time": 5014, "pitch": 55, "duration": 24, "velocity": 64}, {"time": 5014, "pitch": 63, "duration": 5, "velocity": 46}, {"time": 5020, "pitch": 60, "duration": 7, "velocity": 54}, {"time": 5020, "pitch": 75, "duration": 13, "velocity": 64}, {"time": 5029, "pitch": 70, "duration": 8, "velocity": 70}, {"time": 5032, "pitch": 60, "duration": 7, "velocity": 64}, {"time": 5038, "pitch": 67, "duration": 4, "velocity": 66}, {"time": 5044, "pitch": 49, "duration": 35, "velocity": 78}, {"time": 5044, "pitch": 72, "duration": 7, "velocity": 59}, {"time": 5050, "pitch": 56, "duration": 26, "velocity": 54}, {"time": 5050, "pitch": 65, "duration": 9, "velocity": 58}, {"time": 5056, "pitch": 68, "duration": 4, "velocity": 54}, {"time": 5062, "pitch": 61, "duration": 20, "velocity": 62}, {"time": 5062, "pitch": 75, "duration": 12, "velocity": 72}, {"time": 5068, "pitch": 65, "duration": 7, "velocity": 47}, {"time": 5074, "pitch": 68, "duration": 7, "velocity": 66}, {"time": 5080, "pitch": 56, "duration": 13, "velocity": 62}, {"time": 5080, "pitch": 77, "duration": 5, "velocity": 61}, {"time": 5086, "pitch": 65, "duration": 7, "velocity": 54}, {"time": 5092, "pitch": 49, "duration": 34, "velocity": 58}, {"time": 5092, "pitch": 75, "duration": 6, "velocity": 69}, {"time": 5098, "pitch": 56, "duration": 29, "velocity": 55}, {"time": 5098, "pitch": 65, "duration": 8, "velocity": 50}, {"time": 5104, "pitch": 73, "duration": 8, "velocity": 72}, {"time": 5110, "pitch": 65, "duration": 8, "velocity": 44}, {"time": 5116, "pitch": 61, "duration": 8, "velocity": 72}, {"time": 5116, "pitch": 72, "duration": 6, "velocity": 72}, {"time": 5122, "pitch": 65, "duration": 5, "velocity": 58}, {"time": 5128, "pitch": 68, "duration": 6, "velocity": 70}, {"time": 5134, "pitch": 72, "duration": 6, "velocity": 63}, {"time": 5140, "pitch": 39, "duration": 9, "velocity": 70}, {"time": 5140, "pitch": 63, "duration": 36, "velocity": 67}, {"time": 5140, "pitch": 70, "duration": 23, "velocity": 72}, {"time": 5146, "pitch": 46, "duration": 6, "velocity": 58}, {"time": 5152, "pitch": 51, "duration": 8, "velocity": 49}, {"time": 5158, "pitch": 53, "duration": 10, "velocity": 49}, {"time": 5164, "pitch": 55, "duration": 7, "velocity": 60}, {"time": 5170, "pitch": 56, "duration": 7, "velocity": 73}, {"time": 5176, "pitch": 58, "duration": 11, "velocity": 67}, {"time": 5182, "pitch": 61, "duration": 6, "velocity": 70}, {"time": 5188, "pitch": 41, "duration": 11, "velocity": 67}, {"time": 5188, "pitch": 63, "duration": 8, "velocity": 70}, {"time": 5188, "pitch": 65, "duration": 8, "velocity": 75}, {"time": 5188, "pitch": 70, "duration": 9, "velocity": 78}, {"time": 5194, "pitch": 48, "duration": 7, "velocity": 67}, {"time": 5194, "pitch": 72, "duration": 9, "velocity": 60}, {"time": 5200, "pitch": 53, "duration": 8, "velocity": 64}, {"time": 5200, "pitch": 74, "duration": 8, "velocity": 73}, {"time": 5206, "pitch": 55, "duration": 12, "velocity": 44}, {"time": 5206, "pitch": 75, "duration": 4, "velocity": 61}, {"time": 5212, "pitch": 57, "duration": 6, "velocity": 62}, {"time": 5212, "pitch": 77, "duration": 6, "velocity": 73}, {"time": 5218, "pitch": 58, "duration": 9, "velocity": 72}, {"time": 5218, "pitch": 75, "duration": 8, "velocity": 60}, {"time": 5224, "pitch": 60, "duration": 3, "velocity": 75}, {"time": 5224, "pitch": 77, "duration": 5, "velocity": 66}, {"time": 5230, "pitch": 79, "duration": 5, "velocity": 67}, {"time": 5236, "pitch": 46, "duration": 42, "velocity": 70}, {"time": 5236, "pitch": 74, "duration": 8, "velocity": 70}, {"time": 5236, "pitch": 77, "duration": 8, "velocity": 75}, {"time": 5236, "pitch": 82, "duration": 7, "velocity": 75}, {"time": 5242, "pitch": 53, "duration": 38, "velocity": 64}, {"time": 5248, "pitch": 58, "duration": 18, "velocity": 59}, {"time": 5254, "pitch": 60, "duration": 4, "velocity": 69}, {"time": 5254, "pitch": 62, "duration": 3, "velocity": 69}, {"time": 5254, "pitch": 65, "duration": 13, "velocity": 69}, {"time": 5266, "pitch": 62, "duration": 4, "velocity": 66}, {"time": 5266, "pitch": 67, "duration": 9, "velocity": 75}, {"time": 5272, "pitch": 58, "duration": 6, "velocity": 49}, {"time": 5278, "pitch": 62, "duration": 8, "velocity": 70}, {"time": 5278, "pitch": 65, "duration": 10, "velocity": 69}, {"time": 5278, "pitch": 70, "duration": 10, "velocity": 76}, {"time": 5284, "pitch": 46, "duration": 28, "velocity": 66}, {"time": 5290, "pitch": 53, "duration": 13, "velocity": 63}, {"time": 5290, "pitch": 62, "duration": 8, "velocity": 64}, {"time": 5290, "pitch": 69, "duration": 11, "velocity": 69}, {"time": 5296, "pitch": 58, "duration": 8, "velocity": 46}, {"time": 5302, "pitch": 62, "duration": 8, "velocity": 70}, {"time": 5302, "pitch": 65, "duration": 7, "velocity": 70}, {"time": 5302, "pitch": 70, "duration": 5, "velocity": 72}, {"time": 5308, "pitch": 53, "duration": 14, "velocity": 52}, {"time": 5314, "pitch": 62, "duration": 8, "velocity": 73}, {"time": 5314, "pitch": 65, "duration": 7, "velocity": 67}, {"time": 5314, "pitch": 72, "duration": 8, "velocity": 80}, {"time": 5326, "pitch": 70, "duration": 7, "velocity": 75}, {"time": 5332, "pitch": 50, "duration": 45, "velocity": 72}, {"time": 5332, "pitch": 60, "duration": 5, "velocity": 70}, {"time": 5332, "pitch": 65, "duration": 9, "velocity": 75}, {"time": 5332, "pitch": 69, "duration": 9, "velocity": 70}, {"time": 5338, "pitch": 57, "duration": 41, "velocity": 66}, {"time": 5344, "pitch": 62, "duration": 29, "velocity": 60}, {"time": 5350, "pitch": 65, "duration": 10, "velocity": 66}, {"time": 5350, "pitch": 69, "duration": 11, "velocity": 72}, {"time": 5350, "pitch": 72, "duration": 11, "velocity": 67}, {"time": 5362, "pitch": 65, "duration": 8, "velocity": 69}, {"time": 5362, "pitch": 74, "duration": 12, "velocity": 76}, {"time": 5374, "pitch": 65, "duration": 8, "velocity": 67}, {"time": 5374, "pitch": 72, "duration": 8, "velocity": 76}, {"time": 5380, "pitch": 50, "duration": 34, "velocity": 72}, {"time": 5386, "pitch": 57, "duration": 11, "velocity": 66}, {"time": 5392, "pitch": 62, "duration": 11, "velocity": 69}, {"time": 5398, "pitch": 69, "duration": 5, "velocity": 63}, {"time": 5404, "pitch": 67, "duration": 8, "velocity": 93}, {"time": 5410, "pitch": 57, "duration": 5, "velocity": 69}, {"time": 5413, "pitch": 65, "duration": 7, "velocity": 91}, {"time": 5422, "pitch": 62, "duration": 4, "velocity": 85}, {"time": 5428, "pitch": 39, "duration": 11, "velocity": 72}, {"time": 5428, "pitch": 63, "duration": 24, "velocity": 76}, {"time": 5428, "pitch": 67, "duration": 25, "velocity": 67}, {"time": 5434, "pitch": 46, "duration": 5, "velocity": 70}, {"time": 5440, "pitch": 51, "duration": 8, "velocity": 47}, {"time": 5446, "pitch": 53, "duration": 14, "velocity": 61}, {"time": 5452, "pitch": 55, "duration": 7, "velocity": 63}, {"time": 5458, "pitch": 58, "duration": 4, "velocity": 78}, {"time": 5464, "pitch": 65, "duration": 5, "velocity": 67}, {"time": 5470, "pitch": 67, "duration": 5, "velocity": 69}, {"time": 5476, "pitch": 39, "duration": 41, "velocity": 70}, {"time": 5476, "pitch": 58, "duration": 5, "velocity": 64}, {"time": 5476, "pitch": 63, "duration": 6, "velocity": 53}, {"time": 5476, "pitch": 67, "duration": 8, "velocity": 66}, {"time": 5479, "pitch": 46, "duration": 37, "velocity": 63}, {"time": 5485, "pitch": 58, "duration": 3, "velocity": 78}, {"time": 5485, "pitch": 63, "duration": 3, "velocity": 73}, {"time": 5485, "pitch": 67, "duration": 4, "velocity": 70}, {"time": 5485, "pitch": 70, "duration": 4, "velocity": 70}, {"time": 5488, "pitch": 51, "duration": 10, "velocity": 51}, {"time": 5494, "pitch": 58, "duration": 3, "velocity": 88}, {"time": 5494, "pitch": 63, "duration": 3, "velocity": 82}, {"time": 5494, "pitch": 67, "duration": 3, "velocity": 60}, {"time": 5494, "pitch": 70, "duration": 3, "velocity": 67}, {"time": 5500, "pitch": 58, "duration": 3, "velocity": 82}, {"time": 5500, "pitch": 63, "duration": 2, "velocity": 78}, {"time": 5500, "pitch": 67, "duration": 4, "velocity": 72}, {"time": 5500, "pitch": 70, "duration": 3, "velocity": 69}, {"time": 5503, "pitch": 51, "duration": 5, "velocity": 60}, {"time": 5509, "pitch": 60, "duration": 3, "velocity": 73}, {"time": 5509, "pitch": 63, "duration": 2, "velocity": 67}, {"time": 5509, "pitch": 67, "duration": 3, "velocity": 57}, {"time": 5509, "pitch": 69, "duration": 4, "velocity": 73}, {"time": 5512, "pitch": 51, "duration": 6, "velocity": 49}, {"time": 5518, "pitch": 63, "duration": 3, "velocity": 62}, {"time": 5518, "pitch": 70, "duration": 4, "velocity": 73}, {"time": 5524, "pitch": 41, "duration": 11, "velocity": 75}, {"time": 5524, "pitch": 63, "duration": 15, "velocity": 57}, {"time": 5524, "pitch": 72, "duration": 24, "velocity": 93}, {"time": 5530, "pitch": 48, "duration": 6, "velocity": 69}, {"time": 5536, "pitch": 53, "duration": 7, "velocity": 50}, {"time": 5542, "pitch": 55, "duration": 16, "velocity": 56}, {"time": 5548, "pitch": 57, "duration": 9, "velocity": 58}, {"time": 5554, "pitch": 62, "duration": 8, "velocity": 70}, {"time": 5560, "pitch": 65, "duration": 5, "velocity": 63}, {"time": 5566, "pitch": 63, "duration": 4, "velocity": 70}, {"time": 5566, "pitch": 70, "duration": 3, "velocity": 63}, {"time": 5572, "pitch": 41, "duration": 38, "velocity": 66}, {"time": 5572, "pitch": 53, "duration": 4, "velocity": 75}, {"time": 5572, "pitch": 62, "duration": 5, "velocity": 82}, {"time": 5572, "pitch": 69, "duration": 3, "velocity": 72}, {"time": 5578, "pitch": 53, "duration": 12, "velocity": 63}, {"time": 5584, "pitch": 62, "duration": 3, "velocity": 60}, {"time": 5584, "pitch": 70, "duration": 3, "velocity": 73}, {"time": 5590, "pitch": 63, "duration": 4, "velocity": 70}, {"time": 5590, "pitch": 72, "duration": 4, "velocity": 82}, {"time": 5596, "pitch": 53, "duration": 7, "velocity": 49}, {"time": 5602, "pitch": 65, "duration": 7, "velocity": 72}, {"time": 5602, "pitch": 74, "duration": 5, "velocity": 80}, {"time": 5608, "pitch": 53, "duration": 6, "velocity": 62}, {"time": 5614, "pitch": 74, "duration": 5, "velocity": 61}, {"time": 5620, "pitch": 46, "duration": 40, "velocity": 76}, {"time": 5620, "pitch": 65, "duration": 7, "velocity": 61}, {"time": 5620, "pitch": 70, "duration": 7, "velocity": 63}, {"time": 5620, "pitch": 74, "duration": 8, "velocity": 56}, {"time": 5626, "pitch": 53, "duration": 39, "velocity": 64}, {"time": 5632, "pitch": 58, "duration": 14, "velocity": 49}, {"time": 5638, "pitch": 62, "duration": 5, "velocity": 62}, {"time": 5638, "pitch": 65, "duration": 4, "velocity": 58}, {"time": 5644, "pitch": 62, "duration": 7, "velocity": 72}, {"time": 5644, "pitch": 65, "duration": 8, "velocity": 72}, {"time": 5644, "pitch": 69, "duration": 9, "velocity": 78}, {"time": 5650, "pitch": 58, "duration": 9, "velocity": 40}, {"time": 5653, "pitch": 62, "duration": 4, "velocity": 64}, {"time": 5653, "pitch": 65, "duration": 3, "velocity": 57}, {"time": 5653, "pitch": 70, "duration": 7, "velocity": 66}, {"time": 5662, "pitch": 60, "duration": 12, "velocity": 69}, {"time": 5662, "pitch": 65, "duration": 18, "velocity": 72}, {"time": 5668, "pitch": 46, "duration": 39, "velocity": 69}, {"time": 5674, "pitch": 53, "duration": 33, "velocity": 52}, {"time": 5680, "pitch": 58, "duration": 13, "velocity": 60}, {"time": 5686, "pitch": 62, "duration": 4, "velocity": 66}, {"time": 5692, "pitch": 62, "duration": 7, "velocity": 73}, {"time": 5692, "pitch": 65, "duration": 8, "velocity": 70}, {"time": 5695, "pitch": 58, "duration": 8, "velocity": 56}, {"time": 5701, "pitch": 62, "duration": 5, "velocity": 64}, {"time": 5710, "pitch": 67, "duration": 5, "velocity": 64}, {"time": 5716, "pitch": 50, "duration": 34, "velocity": 73}, {"time": 5716, "pitch": 60, "duration": 8, "velocity": 70}, {"time": 5716, "pitch": 65, "duration": 9, "velocity": 67}, {"time": 5716, "pitch": 69, "duration": 8, "velocity": 67}, {"time": 5722, "pitch": 57, "duration": 15, "velocity": 55}, {"time": 5728, "pitch": 60, "duration": 4, "velocity": 48}, {"time": 5734, "pitch": 60, "duration": 9, "velocity": 66}, {"time": 5734, "pitch": 67, "duration": 10, "velocity": 73}, {"time": 5740, "pitch": 57, "duration": 9, "velocity": 62}, {"time": 5746, "pitch": 60, "duration": 5, "velocity": 59}, {"time": 5752, "pitch": 65, "duration": 4, "velocity": 69}, {"time": 5758, "pitch": 60, "duration": 23, "velocity": 66}, {"time": 5758, "pitch": 65, "duration": 26, "velocity": 73}, {"time": 5758, "pitch": 69, "duration": 25, "velocity": 76}, {"time": 5764, "pitch": 38, "duration": 6, "velocity": 70}, {"time": 5770, "pitch": 50, "duration": 8, "velocity": 51}, {"time": 5776, "pitch": 53, "duration": 28, "velocity": 56}, {"time": 5782, "pitch": 57, "duration": 14, "velocity": 66}, {"time": 5788, "pitch": 60, "duration": 8, "velocity": 75}, {"time": 5794, "pitch": 69, "duration": 7, "velocity": 59}, {"time": 5800, "pitch": 57, "duration": 3, "velocity": 61}, {"time": 5800, "pitch": 65, "duration": 5, "velocity": 59}, {"time": 5806, "pitch": 60, "duration": 4, "velocity": 58}, {"time": 5812, "pitch": 39, "duration": 44, "velocity": 70}, {"time": 5812, "pitch": 63, "duration": 13, "velocity": 57}, {"time": 5812, "pitch": 67, "duration": 14, "velocity": 72}, {"time": 5818, "pitch": 46, "duration": 25, "velocity": 61}, {"time": 5824, "pitch": 51, "duration": 8, "velocity": 52}, {"time": 5830, "pitch": 58, "duration": 9, "velocity": 62}, {"time": 5830, "pitch": 65, "duration": 12, "velocity": 64}, {"time": 5836, "pitch": 51, "duration": 7, "velocity": 46}, {"time": 5842, "pitch": 58, "duration": 9, "velocity": 72}, {"time": 5842, "pitch": 63, "duration": 10, "velocity": 72}, {"time": 5854, "pitch": 46, "duration": 6, "velocity": 57}, {"time": 5860, "pitch": 39, "duration": 37, "velocity": 69}, {"time": 5860, "pitch": 58, "duration": 8, "velocity": 70}, {"time": 5860, "pitch": 63, "duration": 9, "velocity": 66}, {"time": 5860, "pitch": 67, "duration": 9, "velocity": 62}, {"time": 5866, "pitch": 51, "duration": 20, "velocity": 51}, {"time": 5872, "pitch": 58, "duration": 9, "velocity": 56}, {"time": 5878, "pitch": 63, "duration": 5, "velocity": 67}, {"time": 5884, "pitch": 58, "duration": 8, "velocity": 70}, {"time": 5884, "pitch": 63, "duration": 8, "velocity": 69}, {"time": 5884, "pitch": 67, "duration": 9, "velocity": 64}, {"time": 5890, "pitch": 51, "duration": 7, "velocity": 48}, {"time": 5896, "pitch": 58, "duration": 8, "velocity": 62}, {"time": 5902, "pitch": 63, "duration": 5, "velocity": 76}, {"time": 5908, "pitch": 41, "duration": 109, "velocity": 67}, {"time": 5908, "pitch": 53, "duration": 30, "velocity": 61}, {"time": 5908, "pitch": 58, "duration": 19, "velocity": 69}, {"time": 5908, "pitch": 63, "duration": 20, "velocity": 62}, {"time": 5908, "pitch": 67, "duration": 18, "velocity": 72}, {"time": 5932, "pitch": 58, "duration": 6, "velocity": 66}, {"time": 5932, "pitch": 63, "duration": 10, "velocity": 59}, {"time": 5932, "pitch": 67, "duration": 10, "velocity": 60}, {"time": 5944, "pitch": 53, "duration": 73, "velocity": 48}, {"time": 5956, "pitch": 77, "duration": 58, "velocity": 42}, {"time": 5956, "pitch": 82, "duration": 55, "velocity": 52}, {"time": 5956, "pitch": 89, "duration": 59, "velocity": 49}, {"time": 6001, "pitch": 53, "duration": 16, "velocity": 49}, {"time": 6002, "pitch": 62, "duration": 22, "velocity": 51}, {"time": 6002, "pitch": 70, "duration": 15, "velocity": 70}, {"time": 6002, "pitch": 60, "duration": 22, "velocity": 57}, {"time": 6002, "pitch": 58, "duration": 22, "velocity": 52}, {"time": 6028, "pitch": 53, "duration": 18, "velocity": 44}, {"time": 6028, "pitch": 60, "duration": 17, "velocity": 46}, {"time": 6029, "pitch": 62, "duration": 16, "velocity": 44}, {"time": 6029, "pitch": 58, "duration": 17, "velocity": 49}, {"time": 6029, "pitch": 70, "duration": 15, "velocity": 48}, {"time": 6052, "pitch": 53, "duration": 20, "velocity": 40}, {"time": 6053, "pitch": 58, "duration": 18, "velocity": 45}, {"time": 6053, "pitch": 60, "duration": 18, "velocity": 47}, {"time": 6053, "pitch": 62, "duration": 14, "velocity": 45}, {"time": 6053, "pitch": 70, "duration": 15, "velocity": 59}, {"time": 6076, "pitch": 53, "duration": 9, "velocity": 52}, {"time": 6077, "pitch": 70, "duration": 7, "velocity": 62}, {"time": 6077, "pitch": 60, "duration": 9, "velocity": 60}, {"time": 6077, "pitch": 58, "duration": 9, "velocity": 54}, {"time": 6077, "pitch": 62, "duration": 8, "velocity": 58}, {"time": 6082, "pitch": 72, "duration": 5, "velocity": 67}, {"time": 6088, "pitch": 70, "duration": 4, "velocity": 62}, {"time": 6101, "pitch": 65, "duration": 12, "velocity": 63}, {"time": 6102, "pitch": 69, "duration": 11, "velocity": 69}, {"time": 6103, "pitch": 53, "duration": 56, "velocity": 38}, {"time": 6103, "pitch": 60, "duration": 11, "velocity": 32}, {"time": 6124, "pitch": 65, "duration": 12, "velocity": 54}, {"time": 6124, "pitch": 60, "duration": 12, "velocity": 49}, {"time": 6124, "pitch": 69, "duration": 11, "velocity": 56}, {"time": 6147, "pitch": 69, "duration": 14, "velocity": 49}, {"time": 6148, "pitch": 60, "duration": 14, "velocity": 37}, {"time": 6148, "pitch": 65, "duration": 17, "velocity": 42}, {"time": 6149, "pitch": 41, "duration": 35, "velocity": 34}, {"time": 6166, "pitch": 53, "duration": 16, "velocity": 53}, {"time": 6172, "pitch": 69, "duration": 8, "velocity": 78}, {"time": 6172, "pitch": 60, "duration": 5, "velocity": 67}, {"time": 6178, "pitch": 70, "duration": 7, "velocity": 63}, {"time": 6184, "pitch": 69, "duration": 3, "velocity": 60}, {"time": 6196, "pitch": 39, "duration": 82, "velocity": 45}, {"time": 6196, "pitch": 67, "duration": 14, "velocity": 61}, {"time": 6196, "pitch": 63, "duration": 12, "velocity": 62}, {"time": 6196, "pitch": 58, "duration": 11, "velocity": 59}, {"time": 6196, "pitch": 51, "duration": 27, "velocity": 47}, {"time": 6220, "pitch": 63, "duration": 11, "velocity": 49}, {"time": 6220, "pitch": 67, "duration": 11, "velocity": 57}, {"time": 6220, "pitch": 58, "duration": 9, "velocity": 46}, {"time": 6231, "pitch": 51, "duration": 16, "velocity": 19}, {"time": 6243, "pitch": 67, "duration": 11, "velocity": 42}, {"time": 6244, "pitch": 58, "duration": 7, "velocity": 41}, {"time": 6244, "pitch": 63, "duration": 9, "velocity": 39}, {"time": 6257, "pitch": 51, "duration": 13, "velocity": 24}, {"time": 6266, "pitch": 69, "duration": 14, "velocity": 63}, {"time": 6267, "pitch": 65, "duration": 11, "velocity": 60}, {"time": 6267, "pitch": 60, "duration": 11, "velocity": 57}, {"time": 6291, "pitch": 65, "duration": 28, "velocity": 55}, {"time": 6291, "pitch": 62, "duration": 28, "velocity": 51}, {"time": 6291, "pitch": 46, "duration": 38, "velocity": 59}, {"time": 6291, "pitch": 70, "duration": 36, "velocity": 54}, {"time": 6292, "pitch": 58, "duration": 35, "velocity": 48}], "annotations": [{"time": 52, "annotation": {"number": 64, "value": 127}, "group": "control_change"}, {"time": 144, "annotation": {"number": 64, "value": 0}, "group": "control_change"}, {"time": 149, "annotation": {"number": 64, "value": 127}, "group": "control_change"}, {"time": 242, "annotation": {"number": 64, "value": 0}, "group": "control_change"}, {"time": 247, "annotation": {"number": 64, "value": 127}, "group": "control_change"}, {"time": 339, "annotation": {"number": 64, "value": 0}, "group": "control_change"}, {"time": 340, "annotation": {"number": 64, "value": 127}, "group": "control_change"}, {"time": 344, "annotation": {"number": 64, "value": 127}, "group": "control_change"}, {"time": 440, "annotation": {"number": 64, "value": 127}, "group": "control_change"}, {"time": 440, "annotation": {"number": 64, "value": 0}, "group": "control_change"}, {"time": 533, "annotation": {"number": 64, "value": 0}, "group": "control_change"}, {"time": 541, "annotation": {"number": 64, "value": 127}, "group": "control_change"}, {"time": 629, "annotation": {"number": 64, "value": 0}, "group": "control_change"}, {"time": 637, "annotation": {"number": 64, "value": 127}, "group": "control_change"}, {"time": 725, "annotation": {"number": 64, "value": 0}, "group": "control_change"}, {"time": 734, "annotation": {"number": 64, "value": 127}, "group": "control_change"}, {"time": 822, "annotation": {"number": 64, "value": 0}, "group": "control_change"}, {"time": 832, "annotation": {"number": 64, "value": 127}, "group": "control_change"}, {"time": 915, "annotation": {"number": 64, "value": 0}, "group": "control_change"}, {"time": 921, "annotation": {"number": 64, "value": 127}, "group": "control_change"}, {"time": 1014, "annotation": {"number": 64, "value": 0}, "group": "control_change"}, {"time": 1020, "annotation": {"number": 64, "value": 127}, "group": "control_change"}, {"time": 1060, "annotation": {"number": 64, "value": 0}, "group": "control_change"}, {"time": 1064, "annotation": {"number": 64, "value": 127}, "group": "control_change"}, {"time": 1107, "annotation": {"number": 64, "value": 0}, "group": "control_change"}, {"time": 1114, "annotation": {"number": 64, "value": 127}, "group": "control_change"}, {"time": 1154, "annotation": {"number": 64, "value": 0}, "group": "control_change"}, {"time": 1161, "annotation": {"number": 64, "value": 127}, "group": "control_change"}, {"time": 1180, "annotation": {"number": 64, "value": 0}, "group": "control_change"}, {"time": 1184, "annotation": {"number": 64, "value": 127}, "group": "control_change"}, {"time": 1205, "annotation": {"number": 64, "value": 0}, "group": "control_change"}, {"time": 1214, "annotation": {"number": 64, "value": 127}, "group": "control_change"}, {"time": 1299, "annotation": {"number": 64, "value": 0}, "group": "control_change"}, {"time": 1308, "annotation": {"number": 64, "value": 127}, "group": "control_change"}, {"time": 1394, "annotation": {"number": 64, "value": 0}, "group": "control_change"}, {"time": 1396, "annotation": {"number": 64, "value": 127}, "group": "control_change"}, {"time": 1490, "annotation": {"number": 64, "value": 0}, "group": "control_change"}, {"time": 1495, "annotation": {"number": 64, "value": 127}, "group": "control_change"}, {"time": 1539, "annotation": {"number": 64, "value": 0}, "group": "control_change"}, {"time": 1543, "annotation": {"number": 64, "value": 127}, "group": "control_change"}, {"time": 1587, "annotation": {"number": 64, "value": 0}, "group": "control_change"}, {"time": 1593, "annotation": {"number": 64, "value": 127}, "group": "control_change"}, {"time": 1681, "annotation": {"number": 64, "value": 0}, "group": "control_change"}, {"time": 1690, "annotation": {"number": 64, "value": 127}, "group": "control_change"}, {"time": 1737, "annotation": {"number": 64, "value": 0}, "group": "control_change"}, {"time": 1741, "annotation": {"number": 64, "value": 107}, "group": "control_change"}, {"time": 1783, "annotation": {"number": 64, "value": 127}, "group": "control_change"}, {"time": 1837, "annotation": {"number": 64, "value": 0}, "group": "control_change"}, {"time": 1840, "annotation": {"number": 64, "value": 98}, "group": "control_change"}, {"time": 1877, "annotation": {"number": 64, "value": 0}, "group": "control_change"}, {"time": 1882, "annotation": {"number": 64, "value": 108}, "group": "control_change"}, {"time": 1924, "annotation": {"number": 64, "value": 0}, "group": "control_change"}, {"time": 1926, "annotation": {"number": 64, "value": 127}, "group": "control_change"}, {"time": 1968, "annotation": {"number": 64, "value": 0}, "group": "control_change"}, {"time": 1975, "annotation": {"number": 64, "value": 127}, "group": "control_change"}, {"time": 2068, "annotation": {"number": 64, "value": 0}, "group": "control_change"}, {"time": 2071, "annotation": {"number": 64, "value": 108}, "group": "control_change"}, {"time": 2164, "annotation": {"number": 64, "value": 0}, "group": "control_change"}, {"time": 2167, "annotation": {"number": 64, "value": 114}, "group": "control_change"}, {"time": 2242, "annotation": {"number": 64, "value": 127}, "group": "control_change"}, {"time": 2259, "annotation": {"number": 64, "value": 0}, "group": "control_change"}, {"time": 2267, "annotation": {"number": 64, "value": 127}, "group": "control_change"}, {"time": 2323, "annotation": {"number": 64, "value": 0}, "group": "control_change"}, {"time": 2370, "annotation": {"number": 64, "value": 127}, "group": "control_change"}, {"time": 2396, "annotation": {"number": 64, "value": 0}, "group": "control_change"}, {"time": 2551, "annotation": {"number": 64, "value": 127}, "group": "control_change"}, {"time": 2642, "annotation": {"number": 64, "value": 0}, "group": "control_change"}, {"time": 2651, "annotation": {"number": 64, "value": 127}, "group": "control_change"}, {"time": 2767, "annotation": {"number": 64, "value": 0}, "group": "control_change"}, {"time": 2792, "annotation": {"number": 64, "value": 127}, "group": "control_change"}, {"time": 2836, "annotation": {"number": 64, "value": 0}, "group": "control_change"}, {"time": 2840, "annotation": {"number": 64, "value": 127}, "group": "control_change"}, {"time": 2933, "annotation": {"number": 64, "value": 0}, "group": "control_change"}, {"time": 2941, "annotation": {"number": 64, "value": 127}, "group": "control_change"}, {"time": 3029, "annotation": {"number": 64, "value": 0}, "group": "control_change"}, {"time": 3037, "annotation": {"number": 64, "value": 127}, "group": "control_change"}, {"time": 3125, "annotation": {"number": 64, "value": 0}, "group": "control_change"}, {"time": 3134, "annotation": {"number": 64, "value": 127}, "group": "control_change"}, {"time": 3222, "annotation": {"number": 64, "value": 0}, "group": "control_change"}, {"time": 3232, "annotation": {"number": 64, "value": 127}, "group": "control_change"}, {"time": 3315, "annotation": {"number": 64, "value": 0}, "group": "control_change"}, {"time": 3321, "annotation": {"number": 64, "value": 127}, "group": "control_change"}, {"time": 3414, "annotation": {"number": 64, "value": 0}, "group": "control_change"}, {"time": 3420, "annotation": {"number": 64, "value": 127}, "group": "control_change"}, {"time": 3460, "annotation": {"number": 64, "value": 0}, "group": "control_change"}, {"time": 3464, "annotation": {"number": 64, "value": 127}, "group": "control_change"}, {"time": 3507, "annotation": {"number": 64, "value": 0}, "group": "control_change"}, {"time": 3514, "annotation": {"number": 64, "value": 127}, "group": "control_change"}, {"time": 3554, "annotation": {"number": 64, "value": 0}, "group": "control_change"}, {"time": 3561, "annotation": {"number": 64, "value": 127}, "group": "control_change"}, {"time": 3580, "annotation": {"number": 64, "value": 0}, "group": "control_change"}, {"time": 3584, "annotation": {"number": 64, "value": 127}, "group": "control_change"}, {"time": 3605, "annotation": {"number": 64, "value": 0}, "group": "control_change"}, {"time": 3614, "annotation": {"number": 64, "value": 127}, "group": "control_change"}, {"time": 3699, "annotation": {"number": 64, "value": 0}, "group": "control_change"}, {"time": 3708, "annotation": {"number": 64, "value": 127}, "group": "control_change"}, {"time": 3794, "annotation": {"number": 64, "value": 0}, "group": "control_change"}, {"time": 3799, "annotation": {"number": 64, "value": 127}, "group": "control_change"}, {"time": 3845, "annotation": {"number": 64, "value": 0}, "group": "control_change"}, {"time": 3854, "annotation": {"number": 64, "value": 127}, "group": "control_change"}, {"time": 3892, "annotation": {"number": 64, "value": 0}, "group": "control_change"}, {"time": 3899, "annotation": {"number": 64, "value": 127}, "group": "control_change"}, {"time": 3985, "annotation": {"number": 64, "value": 0}, "group": "control_change"}, {"time": 3992, "annotation": {"number": 64, "value": 127}, "group": "control_change"}, {"time": 4087, "annotation": {"number": 64, "value": 0}, "group": "control_change"}, {"time": 4090, "annotation": {"number": 64, "value": 127}, "group": "control_change"}, {"time": 4180, "annotation": {"number": 64, "value": 0}, "group": "control_change"}, {"time": 4183, "annotation": {"number": 64, "value": 127}, "group": "control_change"}, {"time": 4279, "annotation": {"number": 64, "value": 127}, "group": "control_change"}, {"time": 4326, "annotation": {"number": 64, "value": 0}, "group": "control_change"}, {"time": 4332, "annotation": {"number": 64, "value": 127}, "group": "control_change"}, {"time": 4471, "annotation": {"number": 64, "value": 0}, "group": "control_change"}, {"time": 4477, "annotation": {"number": 64, "value": 127}, "group": "control_change"}, {"time": 4565, "annotation": {"number": 64, "value": 0}, "group": "control_change"}, {"time": 4572, "annotation": {"number": 64, "value": 127}, "group": "control_change"}, {"time": 4663, "annotation": {"number": 64, "value": 0}, "group": "control_change"}, {"time": 4668, "annotation": {"number": 64, "value": 127}, "group": "control_change"}, {"time": 4756, "annotation": {"number": 64, "value": 0}, "group": "control_change"}, {"time": 4758, "annotation": {"number": 64, "value": 127}, "group": "control_change"}, {"time": 4850, "annotation": {"number": 64, "value": 0}, "group": "control_change"}, {"time": 4855, "annotation": {"number": 64, "value": 127}, "group": "control_change"}, {"time": 4950, "annotation": {"number": 64, "value": 0}, "group": "control_change"}, {"time": 4955, "annotation": {"number": 64, "value": 127}, "group": "control_change"}, {"time": 4997, "annotation": {"number": 64, "value": 0}, "group": "control_change"}, {"time": 5001, "annotation": {"number": 64, "value": 127}, "group": "control_change"}, {"time": 5043, "annotation": {"number": 64, "value": 0}, "group": "control_change"}, {"time": 5048, "annotation": {"number": 64, "value": 127}, "group": "control_change"}, {"time": 5090, "annotation": {"number": 64, "value": 0}, "group": "control_change"}, {"time": 5095, "annotation": {"number": 64, "value": 127}, "group": "control_change"}, {"time": 5139, "annotation": {"number": 64, "value": 0}, "group": "control_change"}, {"time": 5143, "annotation": {"number": 64, "value": 127}, "group": "control_change"}, {"time": 5191, "annotation": {"number": 64, "value": 127}, "group": "control_change"}, {"time": 5222, "annotation": {"number": 64, "value": 0}, "group": "control_change"}, {"time": 5237, "annotation": {"number": 64, "value": 0}, "group": "control_change"}, {"time": 5241, "annotation": {"number": 64, "value": 127}, "group": "control_change"}, {"time": 5333, "annotation": {"number": 64, "value": 0}, "group": "control_change"}, {"time": 5337, "annotation": {"number": 64, "value": 127}, "group": "control_change"}, {"time": 5381, "annotation": {"number": 64, "value": 0}, "group": "control_change"}, {"time": 5385, "annotation": {"number": 64, "value": 127}, "group": "control_change"}, {"time": 5428, "annotation": {"number": 64, "value": 0}, "group": "control_change"}, {"time": 5433, "annotation": {"number": 64, "value": 127}, "group": "control_change"}, {"time": 5522, "annotation": {"number": 64, "value": 0}, "group": "control_change"}, {"time": 5526, "annotation": {"number": 64, "value": 127}, "group": "control_change"}, {"time": 5620, "annotation": {"number": 64, "value": 0}, "group": "control_change"}, {"time": 5624, "annotation": {"number": 64, "value": 127}, "group": "control_change"}, {"time": 5717, "annotation": {"number": 64, "value": 0}, "group": "control_change"}, {"time": 5722, "annotation": {"number": 64, "value": 127}, "group": "control_change"}, {"time": 5814, "annotation": {"number": 64, "value": 0}, "group": "control_change"}, {"time": 5819, "annotation": {"number": 64, "value": 127}, "group": "control_change"}, {"time": 5860, "annotation": {"number": 64, "value": 0}, "group": "control_change"}, {"time": 5864, "annotation": {"number": 64, "value": 127}, "group": "control_change"}, {"time": 5906, "annotation": {"number": 64, "value": 0}, "group": "control_change"}, {"time": 5910, "annotation": {"number": 64, "value": 127}, "group": "control_change"}, {"time": 6003, "annotation": {"number": 64, "value": 127}, "group": "control_change"}, {"time": 6032, "annotation": {"number": 64, "value": 0}, "group": "control_change"}, {"time": 6100, "annotation": {"number": 64, "value": 0}, "group": "control_change"}, {"time": 6105, "annotation": {"number": 64, "value": 127}, "group": "control_change"}, {"time": 6195, "annotation": {"number": 64, "value": 0}, "group": "control_change"}, {"time": 6201, "annotation": {"number": 64, "value": 127}, "group": "control_change"}, {"time": 6290, "annotation": {"number": 64, "value": 0}, "group": "control_change"}, {"time": 6296, "annotation": {"number": 64, "value": 127}, "group": "control_change"}, {"time": 6375, "annotation": {"number": 64, "value": 0}, "group": "control_change"}]}]}