{"metadata": {"schema_version": "0.2", "title": "None", "source_filename": "214.mid", "source_format": "midi"}, "resolution": 12, "tempos": [{"time": 0, "qpm": 140.00014000014}, {"time": 576, "qpm": 138.00019320027047}, {"time": 672, "qpm": 140.00014000014}], "time_signatures": [{"time": 0, "numerator": 4, "denominator": 4}], "tracks": [{"program": 0, "is_drum": false, "name": "MELODY", "notes": [{"time": 641, "pitch": 66, "duration": 5, "velocity": 61}, {"time": 647, "pitch": 73, "duration": 23, "velocity": 87}, {"time": 671, "pitch": 73, "duration": 11, "velocity": 90}, {"time": 683, "pitch": 78, "duration": 5, "velocity": 83}, {"time": 689, "pitch": 71, "duration": 29, "velocity": 79}, {"time": 719, "pitch": 69, "duration": 11, "velocity": 86}, {"time": 731, "pitch": 68, "duration": 11, "velocity": 79}, {"time": 743, "pitch": 69, "duration": 11, "velocity": 94}, {"time": 755, "pitch": 68, "duration": 11, "velocity": 93}, {"time": 767, "pitch": 66, "duration": 11, "velocity": 68}, {"time": 779, "pitch": 64, "duration": 5, "velocity": 66}, {"time": 785, "pitch": 66, "duration": 5, "velocity": 66}, {"time": 791, "pitch": 66, "duration": 23, "velocity": 86}, {"time": 815, "pitch": 69, "duration": 11, "velocity": 99}, {"time": 827, "pitch": 71, "duration": 11, "velocity": 83}, {"time": 839, "pitch": 73, "duration": 11, "velocity": 97}, {"time": 851, "pitch": 71, "duration": 11, "velocity": 91}, {"time": 863, "pitch": 71, "duration": 11, "velocity": 91}, {"time": 875, "pitch": 69, "duration": 11, "velocity": 79}, {"time": 887, "pitch": 68, "duration": 11, "velocity": 98}, {"time": 899, "pitch": 66, "duration": 23, "velocity": 77}, {"time": 923, "pitch": 64, "duration": 11, "velocity": 95}, {"time": 935, "pitch": 73, "duration": 71, "velocity": 103}, {"time": 1007, "pitch": 69, "duration": 11, "velocity": 91}, {"time": 1019, "pitch": 71, "duration": 11, "velocity": 77}, {"time": 1031, "pitch": 73, "duration": 23, "velocity": 95}, {"time": 1055, "pitch": 71, "duration": 11, "velocity": 96}, {"time": 1067, "pitch": 69, "duration": 11, "velocity": 89}, {"time": 1079, "pitch": 71, "duration": 23, "velocity": 100}, {"time": 1103, "pitch": 68, "duration": 11, "velocity": 97}, {"time": 1115, "pitch": 69, "duration": 11, "velocity": 91}, {"time": 1127, "pitch": 71, "duration": 11, "velocity": 86}, {"time": 1139, "pitch": 73, "duration": 11, "velocity": 86}, {"time": 1151, "pitch": 71, "duration": 11, "velocity": 90}, {"time": 1163, "pitch": 64, "duration": 11, "velocity": 87}, {"time": 1175, "pitch": 66, "duration": 23, "velocity": 87}, {"time": 1199, "pitch": 66, "duration": 11, "velocity": 84}, {"time": 1211, "pitch": 68, "duration": 11, "velocity": 83}, {"time": 1223, "pitch": 69, "duration": 17, "velocity": 90}, {"time": 1241, "pitch": 69, "duration": 5, "velocity": 93}, {"time": 1247, "pitch": 71, "duration": 11, "velocity": 84}, {"time": 1259, "pitch": 69, "duration": 11, "velocity": 93}, {"time": 1271, "pitch": 68, "duration": 11, "velocity": 96}, {"time": 1283, "pitch": 66, "duration": 11, "velocity": 91}, {"time": 1295, "pitch": 64, "duration": 11, "velocity": 80}, {"time": 1307, "pitch": 66, "duration": 11, "velocity": 84}, {"time": 1319, "pitch": 66, "duration": 89, "velocity": 91}, {"time": 1409, "pitch": 66, "duration": 5, "velocity": 85}, {"time": 1415, "pitch": 73, "duration": 23, "velocity": 97}, {"time": 1439, "pitch": 73, "duration": 11, "velocity": 97}, {"time": 1451, "pitch": 78, "duration": 5, "velocity": 87}, {"time": 1457, "pitch": 71, "duration": 29, "velocity": 98}, {"time": 1487, "pitch": 69, "duration": 11, "velocity": 97}, {"time": 1499, "pitch": 68, "duration": 11, "velocity": 91}, {"time": 1511, "pitch": 69, "duration": 11, "velocity": 95}, {"time": 1523, "pitch": 68, "duration": 11, "velocity": 67}, {"time": 1535, "pitch": 66, "duration": 11, "velocity": 85}, {"time": 1547, "pitch": 64, "duration": 11, "velocity": 96}, {"time": 1559, "pitch": 66, "duration": 23, "velocity": 96}, {"time": 1583, "pitch": 69, "duration": 11, "velocity": 100}, {"time": 1595, "pitch": 71, "duration": 11, "velocity": 91}, {"time": 1607, "pitch": 73, "duration": 11, "velocity": 90}, {"time": 1619, "pitch": 71, "duration": 11, "velocity": 90}, {"time": 1631, "pitch": 71, "duration": 11, "velocity": 90}, {"time": 1643, "pitch": 69, "duration": 11, "velocity": 77}, {"time": 1655, "pitch": 68, "duration": 11, "velocity": 84}, {"time": 1667, "pitch": 66, "duration": 11, "velocity": 71}, {"time": 1679, "pitch": 64, "duration": 11, "velocity": 84}, {"time": 1691, "pitch": 73, "duration": 11, "velocity": 87}, {"time": 1703, "pitch": 73, "duration": 71, "velocity": 103}, {"time": 1775, "pitch": 69, "duration": 11, "velocity": 98}, {"time": 1787, "pitch": 71, "duration": 11, "velocity": 90}, {"time": 1799, "pitch": 73, "duration": 23, "velocity": 97}, {"time": 1823, "pitch": 71, "duration": 11, "velocity": 97}, {"time": 1835, "pitch": 69, "duration": 11, "velocity": 89}, {"time": 1847, "pitch": 71, "duration": 23, "velocity": 97}, {"time": 1871, "pitch": 68, "duration": 11, "velocity": 90}, {"time": 1883, "pitch": 69, "duration": 11, "velocity": 87}, {"time": 1895, "pitch": 71, "duration": 11, "velocity": 91}, {"time": 1907, "pitch": 73, "duration": 11, "velocity": 84}, {"time": 1919, "pitch": 71, "duration": 11, "velocity": 79}, {"time": 1931, "pitch": 64, "duration": 11, "velocity": 64}, {"time": 1943, "pitch": 66, "duration": 23, "velocity": 91}, {"time": 1967, "pitch": 66, "duration": 11, "velocity": 98}, {"time": 1979, "pitch": 68, "duration": 11, "velocity": 85}, {"time": 1991, "pitch": 69, "duration": 17, "velocity": 93}, {"time": 2009, "pitch": 69, "duration": 5, "velocity": 97}, {"time": 2015, "pitch": 71, "duration": 11, "velocity": 81}, {"time": 2027, "pitch": 69, "duration": 11, "velocity": 94}, {"time": 2039, "pitch": 68, "duration": 11, "velocity": 97}, {"time": 2051, "pitch": 66, "duration": 11, "velocity": 85}, {"time": 2063, "pitch": 64, "duration": 11, "velocity": 90}, {"time": 2075, "pitch": 66, "duration": 23, "velocity": 92}, {"time": 2099, "pitch": 66, "duration": 71, "velocity": 92}, {"time": 2171, "pitch": 73, "duration": 11, "velocity": 100}, {"time": 2183, "pitch": 78, "duration": 23, "velocity": 97}, {"time": 2207, "pitch": 78, "duration": 11, "velocity": 98}, {"time": 2219, "pitch": 76, "duration": 11, "velocity": 85}, {"time": 2231, "pitch": 71, "duration": 11, "velocity": 86}, {"time": 2243, "pitch": 73, "duration": 11, "velocity": 66}, {"time": 2255, "pitch": 76, "duration": 11, "velocity": 76}, {"time": 2267, "pitch": 73, "duration": 11, "velocity": 91}, {"time": 2279, "pitch": 66, "duration": 11, "velocity": 90}, {"time": 2291, "pitch": 78, "duration": 11, "velocity": 101}, {"time": 2303, "pitch": 76, "duration": 17, "velocity": 91}, {"time": 2321, "pitch": 71, "duration": 5, "velocity": 74}, {"time": 2327, "pitch": 73, "duration": 35, "velocity": 96}, {"time": 2363, "pitch": 73, "duration": 5, "velocity": 99}, {"time": 2369, "pitch": 71, "duration": 5, "velocity": 97}, {"time": 2375, "pitch": 69, "duration": 17, "velocity": 96}, {"time": 2393, "pitch": 69, "duration": 5, "velocity": 90}, {"time": 2399, "pitch": 69, "duration": 11, "velocity": 94}, {"time": 2411, "pitch": 66, "duration": 11, "velocity": 85}, {"time": 2423, "pitch": 73, "duration": 11, "velocity": 95}, {"time": 2435, "pitch": 71, "duration": 29, "velocity": 99}, {"time": 2465, "pitch": 66, "duration": 5, "velocity": 85}, {"time": 2471, "pitch": 78, "duration": 17, "velocity": 90}, {"time": 2489, "pitch": 76, "duration": 5, "velocity": 93}, {"time": 2495, "pitch": 78, "duration": 11, "velocity": 89}, {"time": 2507, "pitch": 76, "duration": 11, "velocity": 93}, {"time": 2519, "pitch": 73, "duration": 35, "velocity": 99}, {"time": 2555, "pitch": 73, "duration": 11, "velocity": 106}, {"time": 2567, "pitch": 78, "duration": 17, "velocity": 96}, {"time": 2585, "pitch": 78, "duration": 5, "velocity": 97}, {"time": 2591, "pitch": 78, "duration": 11, "velocity": 98}, {"time": 2603, "pitch": 73, "duration": 11, "velocity": 97}, {"time": 2615, "pitch": 71, "duration": 17, "velocity": 98}, {"time": 2633, "pitch": 73, "duration": 5, "velocity": 98}, {"time": 2639, "pitch": 76, "duration": 11, "velocity": 105}, {"time": 2651, "pitch": 73, "duration": 11, "velocity": 105}, {"time": 2663, "pitch": 66, "duration": 11, "velocity": 93}, {"time": 2675, "pitch": 78, "duration": 11, "velocity": 90}, {"time": 2687, "pitch": 78, "duration": 11, "velocity": 94}, {"time": 2699, "pitch": 76, "duration": 11, "velocity": 100}, {"time": 2711, "pitch": 73, "duration": 35, "velocity": 98}, {"time": 2747, "pitch": 73, "duration": 5, "velocity": 98}, {"time": 2753, "pitch": 71, "duration": 5, "velocity": 97}, {"time": 2759, "pitch": 69, "duration": 17, "velocity": 101}, {"time": 2777, "pitch": 69, "duration": 5, "velocity": 106}, {"time": 2783, "pitch": 69, "duration": 11, "velocity": 100}, {"time": 2795, "pitch": 66, "duration": 11, "velocity": 96}, {"time": 2807, "pitch": 71, "duration": 17, "velocity": 106}, {"time": 2825, "pitch": 73, "duration": 5, "velocity": 111}, {"time": 2831, "pitch": 73, "duration": 11, "velocity": 95}, {"time": 2843, "pitch": 71, "duration": 11, "velocity": 105}, {"time": 2855, "pitch": 66, "duration": 11, "velocity": 96}, {"time": 2867, "pitch": 69, "duration": 11, "velocity": 90}, {"time": 2879, "pitch": 69, "duration": 11, "velocity": 101}, {"time": 2891, "pitch": 73, "duration": 11, "velocity": 109}, {"time": 2903, "pitch": 73, "duration": 65, "velocity": 111}, {"time": 2969, "pitch": 61, "duration": 5, "velocity": 81}, {"time": 2975, "pitch": 69, "duration": 11, "velocity": 91}, {"time": 2987, "pitch": 68, "duration": 11, "velocity": 96}, {"time": 2999, "pitch": 64, "duration": 11, "velocity": 100}, {"time": 3011, "pitch": 66, "duration": 55, "velocity": 98}, {"time": 4001, "pitch": 66, "duration": 5, "velocity": 61}, {"time": 4007, "pitch": 73, "duration": 23, "velocity": 87}, {"time": 4031, "pitch": 73, "duration": 11, "velocity": 90}, {"time": 4043, "pitch": 78, "duration": 5, "velocity": 83}, {"time": 4049, "pitch": 71, "duration": 29, "velocity": 79}, {"time": 4079, "pitch": 69, "duration": 11, "velocity": 86}, {"time": 4091, "pitch": 68, "duration": 11, "velocity": 79}, {"time": 4103, "pitch": 69, "duration": 11, "velocity": 94}, {"time": 4115, "pitch": 68, "duration": 11, "velocity": 93}, {"time": 4127, "pitch": 66, "duration": 11, "velocity": 68}, {"time": 4139, "pitch": 64, "duration": 5, "velocity": 66}, {"time": 4145, "pitch": 66, "duration": 5, "velocity": 66}, {"time": 4151, "pitch": 66, "duration": 23, "velocity": 86}, {"time": 4175, "pitch": 69, "duration": 11, "velocity": 99}, {"time": 4187, "pitch": 71, "duration": 11, "velocity": 83}, {"time": 4199, "pitch": 73, "duration": 11, "velocity": 97}, {"time": 4211, "pitch": 71, "duration": 11, "velocity": 91}, {"time": 4223, "pitch": 71, "duration": 11, "velocity": 91}, {"time": 4235, "pitch": 69, "duration": 11, "velocity": 79}, {"time": 4247, "pitch": 68, "duration": 17, "velocity": 98}, {"time": 4265, "pitch": 66, "duration": 5, "velocity": 77}, {"time": 4271, "pitch": 64, "duration": 11, "velocity": 95}, {"time": 4283, "pitch": 73, "duration": 11, "velocity": 103}, {"time": 4295, "pitch": 73, "duration": 71, "velocity": 103}, {"time": 4367, "pitch": 69, "duration": 11, "velocity": 91}, {"time": 4379, "pitch": 71, "duration": 11, "velocity": 77}, {"time": 4391, "pitch": 73, "duration": 23, "velocity": 95}, {"time": 4415, "pitch": 71, "duration": 11, "velocity": 96}, {"time": 4427, "pitch": 69, "duration": 5, "velocity": 89}, {"time": 4433, "pitch": 71, "duration": 5, "velocity": 89}, {"time": 4439, "pitch": 71, "duration": 23, "velocity": 100}, {"time": 4463, "pitch": 68, "duration": 11, "velocity": 97}, {"time": 4475, "pitch": 69, "duration": 11, "velocity": 91}, {"time": 4487, "pitch": 71, "duration": 11, "velocity": 86}, {"time": 4499, "pitch": 73, "duration": 11, "velocity": 86}, {"time": 4511, "pitch": 71, "duration": 11, "velocity": 90}, {"time": 4523, "pitch": 64, "duration": 11, "velocity": 87}, {"time": 4535, "pitch": 66, "duration": 23, "velocity": 87}, {"time": 4559, "pitch": 66, "duration": 11, "velocity": 84}, {"time": 4571, "pitch": 68, "duration": 11, "velocity": 83}, {"time": 4583, "pitch": 69, "duration": 17, "velocity": 90}, {"time": 4601, "pitch": 69, "duration": 5, "velocity": 93}, {"time": 4607, "pitch": 71, "duration": 11, "velocity": 84}, {"time": 4619, "pitch": 69, "duration": 11, "velocity": 93}, {"time": 4631, "pitch": 68, "duration": 11, "velocity": 96}, {"time": 4643, "pitch": 66, "duration": 11, "velocity": 91}, {"time": 4655, "pitch": 64, "duration": 11, "velocity": 80}, {"time": 4667, "pitch": 66, "duration": 23, "velocity": 84}, {"time": 4691, "pitch": 66, "duration": 71, "velocity": 91}, {"time": 4763, "pitch": 73, "duration": 11, "velocity": 100}, {"time": 4775, "pitch": 78, "duration": 23, "velocity": 97}, {"time": 4799, "pitch": 78, "duration": 11, "velocity": 98}, {"time": 4811, "pitch": 76, "duration": 11, "velocity": 85}, {"time": 4823, "pitch": 71, "duration": 17, "velocity": 86}, {"time": 4841, "pitch": 73, "duration": 8, "velocity": 66}, {"time": 4850, "pitch": 76, "duration": 8, "velocity": 76}, {"time": 4859, "pitch": 73, "duration": 11, "velocity": 91}, {"time": 4871, "pitch": 66, "duration": 11, "velocity": 90}, {"time": 4883, "pitch": 78, "duration": 11, "velocity": 101}, {"time": 4895, "pitch": 76, "duration": 17, "velocity": 91}, {"time": 4913, "pitch": 71, "duration": 5, "velocity": 74}, {"time": 4919, "pitch": 73, "duration": 35, "velocity": 96}, {"time": 4955, "pitch": 73, "duration": 5, "velocity": 99}, {"time": 4961, "pitch": 71, "duration": 5, "velocity": 97}, {"time": 4967, "pitch": 69, "duration": 17, "velocity": 96}, {"time": 4985, "pitch": 69, "duration": 5, "velocity": 90}, {"time": 4991, "pitch": 69, "duration": 11, "velocity": 94}, {"time": 5003, "pitch": 66, "duration": 11, "velocity": 85}, {"time": 5015, "pitch": 73, "duration": 11, "velocity": 95}, {"time": 5027, "pitch": 71, "duration": 29, "velocity": 99}, {"time": 5057, "pitch": 66, "duration": 5, "velocity": 85}, {"time": 5063, "pitch": 78, "duration": 17, "velocity": 90}, {"time": 5081, "pitch": 76, "duration": 5, "velocity": 93}, {"time": 5087, "pitch": 78, "duration": 11, "velocity": 89}, {"time": 5099, "pitch": 76, "duration": 11, "velocity": 93}, {"time": 5111, "pitch": 73, "duration": 35, "velocity": 99}, {"time": 5147, "pitch": 73, "duration": 11, "velocity": 106}, {"time": 5159, "pitch": 78, "duration": 17, "velocity": 96}, {"time": 5177, "pitch": 78, "duration": 5, "velocity": 97}, {"time": 5183, "pitch": 78, "duration": 11, "velocity": 98}, {"time": 5195, "pitch": 73, "duration": 11, "velocity": 97}, {"time": 5207, "pitch": 71, "duration": 17, "velocity": 98}, {"time": 5225, "pitch": 73, "duration": 5, "velocity": 98}, {"time": 5231, "pitch": 76, "duration": 11, "velocity": 105}, {"time": 5243, "pitch": 73, "duration": 11, "velocity": 105}, {"time": 5255, "pitch": 66, "duration": 11, "velocity": 93}, {"time": 5267, "pitch": 78, "duration": 11, "velocity": 90}, {"time": 5279, "pitch": 78, "duration": 11, "velocity": 94}, {"time": 5291, "pitch": 76, "duration": 11, "velocity": 100}, {"time": 5303, "pitch": 73, "duration": 35, "velocity": 98}, {"time": 5339, "pitch": 73, "duration": 5, "velocity": 98}, {"time": 5345, "pitch": 71, "duration": 5, "velocity": 97}, {"time": 5351, "pitch": 69, "duration": 17, "velocity": 101}, {"time": 5369, "pitch": 69, "duration": 5, "velocity": 106}, {"time": 5375, "pitch": 69, "duration": 11, "velocity": 100}, {"time": 5387, "pitch": 66, "duration": 11, "velocity": 96}, {"time": 5399, "pitch": 71, "duration": 17, "velocity": 106}, {"time": 5417, "pitch": 73, "duration": 5, "velocity": 111}, {"time": 5423, "pitch": 73, "duration": 8, "velocity": 95}, {"time": 5432, "pitch": 71, "duration": 14, "velocity": 105}, {"time": 5447, "pitch": 66, "duration": 11, "velocity": 96}, {"time": 5459, "pitch": 69, "duration": 11, "velocity": 90}, {"time": 5471, "pitch": 69, "duration": 11, "velocity": 101}, {"time": 5483, "pitch": 73, "duration": 11, "velocity": 109}, {"time": 5495, "pitch": 73, "duration": 62, "velocity": 111}, {"time": 5558, "pitch": 61, "duration": 8, "velocity": 81}, {"time": 5567, "pitch": 69, "duration": 8, "velocity": 91}, {"time": 5576, "pitch": 68, "duration": 14, "velocity": 96}, {"time": 5591, "pitch": 64, "duration": 11, "velocity": 100}, {"time": 5603, "pitch": 66, "duration": 71, "velocity": 98}, {"time": 5675, "pitch": 73, "duration": 11, "velocity": 100}, {"time": 5687, "pitch": 78, "duration": 23, "velocity": 97}, {"time": 5711, "pitch": 78, "duration": 11, "velocity": 98}, {"time": 5723, "pitch": 73, "duration": 11, "velocity": 85}, {"time": 5735, "pitch": 71, "duration": 17, "velocity": 86}, {"time": 5753, "pitch": 73, "duration": 5, "velocity": 66}, {"time": 5759, "pitch": 76, "duration": 11, "velocity": 76}, {"time": 5771, "pitch": 73, "duration": 11, "velocity": 91}, {"time": 5783, "pitch": 66, "duration": 11, "velocity": 90}, {"time": 5795, "pitch": 78, "duration": 11, "velocity": 101}, {"time": 5807, "pitch": 76, "duration": 11, "velocity": 91}, {"time": 5819, "pitch": 71, "duration": 11, "velocity": 74}, {"time": 5831, "pitch": 73, "duration": 35, "velocity": 96}, {"time": 5867, "pitch": 73, "duration": 5, "velocity": 99}, {"time": 5873, "pitch": 71, "duration": 5, "velocity": 97}, {"time": 5879, "pitch": 69, "duration": 17, "velocity": 96}, {"time": 5897, "pitch": 69, "duration": 5, "velocity": 90}, {"time": 5903, "pitch": 69, "duration": 11, "velocity": 94}, {"time": 5915, "pitch": 66, "duration": 11, "velocity": 85}, {"time": 5927, "pitch": 73, "duration": 11, "velocity": 95}, {"time": 5939, "pitch": 71, "duration": 29, "velocity": 99}, {"time": 5969, "pitch": 66, "duration": 5, "velocity": 85}, {"time": 5975, "pitch": 78, "duration": 17, "velocity": 90}, {"time": 5993, "pitch": 76, "duration": 5, "velocity": 93}, {"time": 5999, "pitch": 78, "duration": 11, "velocity": 89}, {"time": 6011, "pitch": 76, "duration": 11, "velocity": 93}, {"time": 6023, "pitch": 73, "duration": 35, "velocity": 99}, {"time": 6059, "pitch": 73, "duration": 11, "velocity": 106}, {"time": 6071, "pitch": 78, "duration": 17, "velocity": 96}, {"time": 6089, "pitch": 78, "duration": 5, "velocity": 97}, {"time": 6095, "pitch": 78, "duration": 11, "velocity": 98}, {"time": 6107, "pitch": 73, "duration": 11, "velocity": 97}, {"time": 6119, "pitch": 71, "duration": 17, "velocity": 98}, {"time": 6137, "pitch": 73, "duration": 5, "velocity": 98}, {"time": 6143, "pitch": 76, "duration": 11, "velocity": 105}, {"time": 6155, "pitch": 73, "duration": 11, "velocity": 105}, {"time": 6167, "pitch": 66, "duration": 11, "velocity": 93}, {"time": 6179, "pitch": 78, "duration": 11, "velocity": 90}, {"time": 6191, "pitch": 78, "duration": 11, "velocity": 94}, {"time": 6203, "pitch": 76, "duration": 11, "velocity": 100}, {"time": 6215, "pitch": 73, "duration": 35, "velocity": 98}, {"time": 6251, "pitch": 73, "duration": 5, "velocity": 98}, {"time": 6257, "pitch": 71, "duration": 5, "velocity": 97}, {"time": 6263, "pitch": 69, "duration": 17, "velocity": 101}, {"time": 6281, "pitch": 69, "duration": 5, "velocity": 106}, {"time": 6287, "pitch": 69, "duration": 11, "velocity": 100}, {"time": 6299, "pitch": 66, "duration": 11, "velocity": 96}, {"time": 6311, "pitch": 71, "duration": 17, "velocity": 106}, {"time": 6329, "pitch": 73, "duration": 5, "velocity": 111}, {"time": 6335, "pitch": 73, "duration": 11, "velocity": 95}, {"time": 6347, "pitch": 71, "duration": 11, "velocity": 105}, {"time": 6359, "pitch": 66, "duration": 11, "velocity": 96}, {"time": 6371, "pitch": 69, "duration": 11, "velocity": 90}, {"time": 6383, "pitch": 69, "duration": 11, "velocity": 101}, {"time": 6395, "pitch": 73, "duration": 11, "velocity": 109}, {"time": 6407, "pitch": 73, "duration": 65, "velocity": 111}, {"time": 6473, "pitch": 61, "duration": 5, "velocity": 81}, {"time": 6479, "pitch": 69, "duration": 11, "velocity": 91}, {"time": 6491, "pitch": 68, "duration": 11, "velocity": 96}, {"time": 6503, "pitch": 64, "duration": 11, "velocity": 100}, {"time": 6515, "pitch": 66, "duration": 82, "velocity": 98}], "annotations": [{"time": 614, "annotation": {"number": 1, "value": 5}, "group": "control_change"}, {"time": 615, "annotation": {"number": 1, "value": 3}, "group": "control_change"}, {"time": 617, "annotation": {"number": 1, "value": 5}, "group": "control_change"}, {"time": 617, "annotation": {"number": 1, "value": 3}, "group": "control_change"}, {"time": 618, "annotation": {"number": 1, "value": 5}, "group": "control_change"}, {"time": 619, "annotation": {"number": 1, "value": 3}, "group": "control_change"}, {"time": 620, "annotation": {"number": 1, "value": 5}, "group": "control_change"}, {"time": 621, "annotation": {"number": 1, "value": 3}, "group": "control_change"}, {"time": 643, "annotation": {"number": 1, "value": 5}, "group": "control_change"}, {"time": 644, "annotation": {"number": 1, "value": 3}, "group": "control_change"}, {"time": 646, "annotation": {"number": 1, "value": 5}, "group": "control_change"}, {"time": 647, "annotation": {"number": 1, "value": 3}, "group": "control_change"}, {"time": 653, "annotation": {"number": 1, "value": 5}, "group": "control_change"}, {"time": 654, "annotation": {"number": 1, "value": 3}, "group": "control_change"}, {"time": 656, "annotation": {"number": 1, "value": 5}, "group": "control_change"}, {"time": 656, "annotation": {"number": 1, "value": 3}, "group": "control_change"}, {"time": 661, "annotation": {"number": 1, "value": 5}, "group": "control_change"}, {"time": 662, "annotation": {"number": 1, "value": 3}, "group": "control_change"}, {"time": 662, "annotation": {"number": 1, "value": 5}, "group": "control_change"}, {"time": 666, "annotation": {"number": 1, "value": 5}, "group": "control_change"}, {"time": 666, "annotation": {"number": 1, "value": 3}, "group": "control_change"}, {"time": 675, "annotation": {"number": 1, "value": 5}, "group": "control_change"}, {"time": 675, "annotation": {"number": 1, "value": 3}, "group": "control_change"}, {"time": 676, "annotation": {"number": 1, "value": 3}, "group": "control_change"}, {"time": 677, "annotation": {"number": 1, "value": 5}, "group": "control_change"}, {"time": 677, "annotation": {"number": 1, "value": 3}, "group": "control_change"}, {"time": 678, "annotation": {"number": 1, "value": 5}, "group": "control_change"}, {"time": 678, "annotation": {"number": 1, "value": 3}, "group": "control_change"}, {"time": 700, "annotation": {"number": 1, "value": 5}, "group": "control_change"}, {"time": 701, "annotation": {"number": 1, "value": 3}, "group": "control_change"}, {"time": 702, "annotation": {"number": 1, "value": 5}, "group": "control_change"}, {"time": 703, "annotation": {"number": 1, "value": 3}, "group": "control_change"}, {"time": 706, "annotation": {"number": 1, "value": 5}, "group": "control_change"}, {"time": 707, "annotation": {"number": 1, "value": 3}, "group": "control_change"}, {"time": 708, "annotation": {"number": 1, "value": 5}, "group": "control_change"}, {"time": 710, "annotation": {"number": 1, "value": 3}, "group": "control_change"}, {"time": 710, "annotation": {"number": 1, "value": 5}, "group": "control_change"}, {"time": 711, "annotation": {"number": 1, "value": 3}, "group": "control_change"}, {"time": 711, "annotation": {"number": 1, "value": 5}, "group": "control_change"}, {"time": 712, "annotation": {"number": 1, "value": 3}, "group": "control_change"}, {"time": 714, "annotation": {"number": 1, "value": 5}, "group": "control_change"}, {"time": 715, "annotation": {"number": 1, "value": 3}, "group": "control_change"}, {"time": 718, "annotation": {"number": 1, "value": 5}, "group": "control_change"}, {"time": 719, "annotation": {"number": 1, "value": 3}, "group": "control_change"}, {"time": 921, "annotation": {"number": 1, "value": 2}, "group": "control_change"}, {"time": 922, "annotation": {"number": 1, "value": 3}, "group": "control_change"}, {"time": 933, "annotation": {"number": 1, "value": 2}, "group": "control_change"}, {"time": 934, "annotation": {"number": 1, "value": 3}, "group": "control_change"}, {"time": 935, "annotation": {"number": 1, "value": 2}, "group": "control_change"}, {"time": 936, "annotation": {"number": 1, "value": 3}, "group": "control_change"}, {"time": 945, "annotation": {"number": 1, "value": 2}, "group": "control_change"}, {"time": 948, "annotation": {"number": 1, "value": 3}, "group": "control_change"}, {"time": 949, "annotation": {"number": 1, "value": 2}, "group": "control_change"}, {"time": 949, "annotation": {"number": 1, "value": 3}, "group": "control_change"}, {"time": 950, "annotation": {"number": 1, "value": 2}, "group": "control_change"}, {"time": 950, "annotation": {"number": 1, "value": 3}, "group": "control_change"}, {"time": 958, "annotation": {"number": 1, "value": 2}, "group": "control_change"}, {"time": 959, "annotation": {"number": 1, "value": 3}, "group": "control_change"}, {"time": 976, "annotation": {"number": 1, "value": 2}, "group": "control_change"}, {"time": 977, "annotation": {"number": 1, "value": 3}, "group": "control_change"}, {"time": 978, "annotation": {"number": 1, "value": 2}, "group": "control_change"}, {"time": 978, "annotation": {"number": 1, "value": 3}, "group": "control_change"}, {"time": 1005, "annotation": {"number": 1, "value": 5}, "group": "control_change"}, {"time": 1006, "annotation": {"number": 1, "value": 3}, "group": "control_change"}, {"time": 1006, "annotation": {"number": 1, "value": 5}, "group": "control_change"}, {"time": 1191, "annotation": {"number": 1, "value": 5}, "group": "control_change"}, {"time": 1191, "annotation": {"number": 1, "value": 3}, "group": "control_change"}, {"time": 1192, "annotation": {"number": 1, "value": 5}, "group": "control_change"}, {"time": 1192, "annotation": {"number": 1, "value": 3}, "group": "control_change"}, {"time": 1193, "annotation": {"number": 1, "value": 3}, "group": "control_change"}, {"time": 1193, "annotation": {"number": 1, "value": 5}, "group": "control_change"}, {"time": 1194, "annotation": {"number": 1, "value": 3}, "group": "control_change"}, {"time": 1197, "annotation": {"number": 1, "value": 5}, "group": "control_change"}, {"time": 1197, "annotation": {"number": 1, "value": 3}, "group": "control_change"}, {"time": 1198, "annotation": {"number": 1, "value": 5}, "group": "control_change"}, {"time": 1198, "annotation": {"number": 1, "value": 3}, "group": "control_change"}, {"time": 1199, "annotation": {"number": 1, "value": 3}, "group": "control_change"}, {"time": 1201, "annotation": {"number": 1, "value": 5}, "group": "control_change"}, {"time": 1202, "annotation": {"number": 1, "value": 3}, "group": "control_change"}, {"time": 1231, "annotation": {"number": 1, "value": 5}, "group": "control_change"}, {"time": 1231, "annotation": {"number": 1, "value": 3}, "group": "control_change"}, {"time": 1232, "annotation": {"number": 1, "value": 5}, "group": "control_change"}, {"time": 1233, "annotation": {"number": 1, "value": 3}, "group": "control_change"}, {"time": 1234, "annotation": {"number": 1, "value": 5}, "group": "control_change"}, {"time": 1234, "annotation": {"number": 1, "value": 3}, "group": "control_change"}, {"time": 1235, "annotation": {"number": 1, "value": 3}, "group": "control_change"}, {"time": 1241, "annotation": {"number": 1, "value": 5}, "group": "control_change"}, {"time": 1242, "annotation": {"number": 1, "value": 3}, "group": "control_change"}, {"time": 1248, "annotation": {"number": 1, "value": 5}, "group": "control_change"}, {"time": 1251, "annotation": {"number": 1, "value": 3}, "group": "control_change"}, {"time": 1815, "annotation": {"number": 1, "value": 5}, "group": "control_change"}, {"time": 2185, "annotation": {"number": 1, "value": 5}, "group": "control_change"}, {"time": 2186, "annotation": {"number": 1, "value": 3}, "group": "control_change"}, {"time": 4003, "annotation": {"number": 1, "value": 5}, "group": "control_change"}, {"time": 4003, "annotation": {"number": 1, "value": 3}, "group": "control_change"}, {"time": 4006, "annotation": {"number": 1, "value": 5}, "group": "control_change"}, {"time": 4007, "annotation": {"number": 1, "value": 3}, "group": "control_change"}, {"time": 4013, "annotation": {"number": 1, "value": 5}, "group": "control_change"}, {"time": 4014, "annotation": {"number": 1, "value": 3}, "group": "control_change"}, {"time": 4015, "annotation": {"number": 1, "value": 5}, "group": "control_change"}, {"time": 4016, "annotation": {"number": 1, "value": 3}, "group": "control_change"}, {"time": 4021, "annotation": {"number": 1, "value": 5}, "group": "control_change"}, {"time": 4021, "annotation": {"number": 1, "value": 3}, "group": "control_change"}, {"time": 4022, "annotation": {"number": 1, "value": 5}, "group": "control_change"}, {"time": 4022, "annotation": {"number": 1, "value": 3}, "group": "control_change"}, {"time": 4025, "annotation": {"number": 1, "value": 5}, "group": "control_change"}, {"time": 4025, "annotation": {"number": 1, "value": 3}, "group": "control_change"}, {"time": 4034, "annotation": {"number": 1, "value": 5}, "group": "control_change"}, {"time": 4035, "annotation": {"number": 1, "value": 3}, "group": "control_change"}, {"time": 4035, "annotation": {"number": 1, "value": 5}, "group": "control_change"}, {"time": 4037, "annotation": {"number": 1, "value": 5}, "group": "control_change"}, {"time": 4037, "annotation": {"number": 1, "value": 3}, "group": "control_change"}, {"time": 4038, "annotation": {"number": 1, "value": 3}, "group": "control_change"}, {"time": 4060, "annotation": {"number": 1, "value": 5}, "group": "control_change"}, {"time": 4060, "annotation": {"number": 1, "value": 3}, "group": "control_change"}, {"time": 4062, "annotation": {"number": 1, "value": 5}, "group": "control_change"}, {"time": 4062, "annotation": {"number": 1, "value": 3}, "group": "control_change"}, {"time": 4065, "annotation": {"number": 1, "value": 5}, "group": "control_change"}, {"time": 4067, "annotation": {"number": 1, "value": 3}, "group": "control_change"}, {"time": 4067, "annotation": {"number": 1, "value": 5}, "group": "control_change"}, {"time": 4069, "annotation": {"number": 1, "value": 3}, "group": "control_change"}, {"time": 4070, "annotation": {"number": 1, "value": 5}, "group": "control_change"}, {"time": 4070, "annotation": {"number": 1, "value": 3}, "group": "control_change"}, {"time": 4071, "annotation": {"number": 1, "value": 5}, "group": "control_change"}, {"time": 4071, "annotation": {"number": 1, "value": 3}, "group": "control_change"}, {"time": 4074, "annotation": {"number": 1, "value": 5}, "group": "control_change"}, {"time": 4075, "annotation": {"number": 1, "value": 3}, "group": "control_change"}, {"time": 4078, "annotation": {"number": 1, "value": 5}, "group": "control_change"}, {"time": 4078, "annotation": {"number": 1, "value": 3}, "group": "control_change"}, {"time": 4281, "annotation": {"number": 1, "value": 2}, "group": "control_change"}, {"time": 4281, "annotation": {"number": 1, "value": 3}, "group": "control_change"}, {"time": 4293, "annotation": {"number": 1, "value": 2}, "group": "control_change"}, {"time": 4293, "annotation": {"number": 1, "value": 3}, "group": "control_change"}, {"time": 4295, "annotation": {"number": 1, "value": 2}, "group": "control_change"}, {"time": 4295, "annotation": {"number": 1, "value": 3}, "group": "control_change"}, {"time": 4305, "annotation": {"number": 1, "value": 2}, "group": "control_change"}, {"time": 4308, "annotation": {"number": 1, "value": 3}, "group": "control_change"}, {"time": 4309, "annotation": {"number": 1, "value": 2}, "group": "control_change"}, {"time": 4309, "annotation": {"number": 1, "value": 3}, "group": "control_change"}, {"time": 4310, "annotation": {"number": 1, "value": 2}, "group": "control_change"}, {"time": 4310, "annotation": {"number": 1, "value": 3}, "group": "control_change"}, {"time": 4318, "annotation": {"number": 1, "value": 2}, "group": "control_change"}, {"time": 4318, "annotation": {"number": 1, "value": 3}, "group": "control_change"}, {"time": 4336, "annotation": {"number": 1, "value": 2}, "group": "control_change"}, {"time": 4336, "annotation": {"number": 1, "value": 3}, "group": "control_change"}, {"time": 4337, "annotation": {"number": 1, "value": 2}, "group": "control_change"}, {"time": 4338, "annotation": {"number": 1, "value": 3}, "group": "control_change"}, {"time": 4365, "annotation": {"number": 1, "value": 5}, "group": "control_change"}, {"time": 4365, "annotation": {"number": 1, "value": 3}, "group": "control_change"}, {"time": 4366, "annotation": {"number": 1, "value": 5}, "group": "control_change"}, {"time": 4366, "annotation": {"number": 1, "value": 3}, "group": "control_change"}, {"time": 4550, "annotation": {"number": 1, "value": 5}, "group": "control_change"}, {"time": 4551, "annotation": {"number": 1, "value": 3}, "group": "control_change"}, {"time": 4551, "annotation": {"number": 1, "value": 5}, "group": "control_change"}, {"time": 4552, "annotation": {"number": 1, "value": 3}, "group": "control_change"}, {"time": 4552, "annotation": {"number": 1, "value": 5}, "group": "control_change"}, {"time": 4553, "annotation": {"number": 1, "value": 3}, "group": "control_change"}, {"time": 4553, "annotation": {"number": 1, "value": 5}, "group": "control_change"}, {"time": 4556, "annotation": {"number": 1, "value": 5}, "group": "control_change"}, {"time": 4557, "annotation": {"number": 1, "value": 3}, "group": "control_change"}, {"time": 4558, "annotation": {"number": 1, "value": 5}, "group": "control_change"}, {"time": 4558, "annotation": {"number": 1, "value": 3}, "group": "control_change"}, {"time": 4561, "annotation": {"number": 1, "value": 5}, "group": "control_change"}, {"time": 4561, "annotation": {"number": 1, "value": 3}, "group": "control_change"}, {"time": 4591, "annotation": {"number": 1, "value": 5}, "group": "control_change"}, {"time": 4591, "annotation": {"number": 1, "value": 3}, "group": "control_change"}, {"time": 4592, "annotation": {"number": 1, "value": 3}, "group": "control_change"}, {"time": 4593, "annotation": {"number": 1, "value": 5}, "group": "control_change"}, {"time": 4593, "annotation": {"number": 1, "value": 3}, "group": "control_change"}, {"time": 4594, "annotation": {"number": 1, "value": 5}, "group": "control_change"}, {"time": 4594, "annotation": {"number": 1, "value": 3}, "group": "control_change"}, {"time": 4601, "annotation": {"number": 1, "value": 5}, "group": "control_change"}, {"time": 4601, "annotation": {"number": 1, "value": 3}, "group": "control_change"}, {"time": 4607, "annotation": {"number": 1, "value": 5}, "group": "control_change"}, {"time": 4611, "annotation": {"number": 1, "value": 3}, "group": "control_change"}, {"time": 4777, "annotation": {"number": 1, "value": 5}, "group": "control_change"}, {"time": 4777, "annotation": {"number": 1, "value": 3}, "group": "control_change"}, {"time": 5690, "annotation": {"number": 1, "value": 5}, "group": "control_change"}, {"time": 5690, "annotation": {"number": 1, "value": 3}, "group": "control_change"}]}, {"program": 0, "is_drum": false, "name": "BRIDGE", "notes": [{"time": 47, "pitch": 90, "duration": 11, "velocity": 54}, {"time": 59, "pitch": 92, "duration": 11, "velocity": 67}, {"time": 71, "pitch": 93, "duration": 10, "velocity": 63}, {"time": 101, "pitch": 81, "duration": 5, "velocity": 46}, {"time": 107, "pitch": 85, "duration": 3, "velocity": 54}, {"time": 113, "pitch": 93, "duration": 6, "velocity": 82}, {"time": 119, "pitch": 92, "duration": 19, "velocity": 76}, {"time": 149, "pitch": 81, "duration": 5, "velocity": 49}, {"time": 155, "pitch": 83, "duration": 3, "velocity": 44}, {"time": 161, "pitch": 90, "duration": 6, "velocity": 66}, {"time": 167, "pitch": 88, "duration": 23, "velocity": 58}, {"time": 197, "pitch": 80, "duration": 3, "velocity": 57}, {"time": 203, "pitch": 86, "duration": 4, "velocity": 70}, {"time": 209, "pitch": 85, "duration": 4, "velocity": 76}, {"time": 215, "pitch": 86, "duration": 26, "velocity": 64}, {"time": 245, "pitch": 78, "duration": 2, "velocity": 85}, {"time": 245, "pitch": 81, "duration": 2, "velocity": 97}, {"time": 251, "pitch": 78, "duration": 3, "velocity": 80}, {"time": 251, "pitch": 81, "duration": 3, "velocity": 93}, {"time": 257, "pitch": 80, "duration": 2, "velocity": 73}, {"time": 257, "pitch": 83, "duration": 4, "velocity": 78}, {"time": 263, "pitch": 81, "duration": 23, "velocity": 91}, {"time": 263, "pitch": 85, "duration": 22, "velocity": 76}, {"time": 293, "pitch": 81, "duration": 5, "velocity": 46}, {"time": 299, "pitch": 85, "duration": 3, "velocity": 54}, {"time": 305, "pitch": 78, "duration": 4, "velocity": 95}, {"time": 305, "pitch": 81, "duration": 5, "velocity": 78}, {"time": 311, "pitch": 76, "duration": 24, "velocity": 91}, {"time": 311, "pitch": 80, "duration": 24, "velocity": 80}, {"time": 341, "pitch": 81, "duration": 5, "velocity": 49}, {"time": 347, "pitch": 83, "duration": 3, "velocity": 44}, {"time": 353, "pitch": 76, "duration": 4, "velocity": 95}, {"time": 353, "pitch": 80, "duration": 4, "velocity": 72}, {"time": 359, "pitch": 74, "duration": 32, "velocity": 91}, {"time": 359, "pitch": 78, "duration": 32, "velocity": 80}, {"time": 419, "pitch": 83, "duration": 3, "velocity": 99}, {"time": 422, "pitch": 85, "duration": 9, "velocity": 69}, {"time": 431, "pitch": 83, "duration": 11, "velocity": 95}, {"time": 443, "pitch": 81, "duration": 8, "velocity": 93}, {"time": 455, "pitch": 73, "duration": 3, "velocity": 70}, {"time": 455, "pitch": 73, "duration": 3, "velocity": 73}, {"time": 455, "pitch": 77, "duration": 3, "velocity": 88}, {"time": 455, "pitch": 80, "duration": 4, "velocity": 99}, {"time": 467, "pitch": 73, "duration": 4, "velocity": 78}, {"time": 467, "pitch": 73, "duration": 4, "velocity": 82}, {"time": 467, "pitch": 77, "duration": 13, "velocity": 95}, {"time": 467, "pitch": 80, "duration": 13, "velocity": 82}, {"time": 491, "pitch": 73, "duration": 20, "velocity": 70}, {"time": 527, "pitch": 80, "duration": 23, "velocity": 109}, {"time": 551, "pitch": 78, "duration": 19, "velocity": 97}, {"time": 2135, "pitch": 62, "duration": 19, "velocity": 93}, {"time": 2135, "pitch": 74, "duration": 20, "velocity": 88}, {"time": 2159, "pitch": 64, "duration": 18, "velocity": 91}, {"time": 2159, "pitch": 76, "duration": 19, "velocity": 93}, {"time": 2183, "pitch": 66, "duration": 33, "velocity": 82}, {"time": 2183, "pitch": 78, "duration": 34, "velocity": 91}, {"time": 3113, "pitch": 73, "duration": 5, "velocity": 78}, {"time": 3119, "pitch": 78, "duration": 11, "velocity": 103}, {"time": 3131, "pitch": 76, "duration": 5, "velocity": 85}, {"time": 3137, "pitch": 71, "duration": 27, "velocity": 97}, {"time": 3209, "pitch": 73, "duration": 4, "velocity": 101}, {"time": 3215, "pitch": 81, "duration": 4, "velocity": 76}, {"time": 3221, "pitch": 80, "duration": 4, "velocity": 97}, {"time": 3227, "pitch": 78, "duration": 4, "velocity": 101}, {"time": 3233, "pitch": 76, "duration": 5, "velocity": 106}, {"time": 3239, "pitch": 80, "duration": 23, "velocity": 106}, {"time": 3257, "pitch": 76, "duration": 15, "velocity": 65}, {"time": 3275, "pitch": 73, "duration": 15, "velocity": 65}, {"time": 3305, "pitch": 73, "duration": 4, "velocity": 97}, {"time": 3311, "pitch": 78, "duration": 10, "velocity": 75}, {"time": 3323, "pitch": 76, "duration": 5, "velocity": 99}, {"time": 3329, "pitch": 71, "duration": 35, "velocity": 97}, {"time": 3401, "pitch": 73, "duration": 7, "velocity": 91}, {"time": 3407, "pitch": 81, "duration": 6, "velocity": 75}, {"time": 3413, "pitch": 80, "duration": 6, "velocity": 97}, {"time": 3419, "pitch": 78, "duration": 5, "velocity": 95}, {"time": 3425, "pitch": 76, "duration": 6, "velocity": 101}, {"time": 3431, "pitch": 80, "duration": 39, "velocity": 106}, {"time": 3476, "pitch": 80, "duration": 2, "velocity": 78}, {"time": 3476, "pitch": 83, "duration": 2, "velocity": 91}, {"time": 3479, "pitch": 81, "duration": 13, "velocity": 88}, {"time": 3479, "pitch": 85, "duration": 12, "velocity": 94}, {"time": 3497, "pitch": 81, "duration": 2, "velocity": 103}, {"time": 3497, "pitch": 85, "duration": 2, "velocity": 103}, {"time": 3503, "pitch": 81, "duration": 4, "velocity": 99}, {"time": 3503, "pitch": 85, "duration": 4, "velocity": 101}, {"time": 3509, "pitch": 80, "duration": 2, "velocity": 82}, {"time": 3509, "pitch": 83, "duration": 2, "velocity": 95}, {"time": 3515, "pitch": 78, "duration": 7, "velocity": 95}, {"time": 3515, "pitch": 81, "duration": 8, "velocity": 99}, {"time": 3527, "pitch": 80, "duration": 16, "velocity": 101}, {"time": 3527, "pitch": 83, "duration": 15, "velocity": 109}, {"time": 3545, "pitch": 80, "duration": 2, "velocity": 97}, {"time": 3545, "pitch": 83, "duration": 2, "velocity": 99}, {"time": 3551, "pitch": 80, "duration": 4, "velocity": 99}, {"time": 3551, "pitch": 83, "duration": 5, "velocity": 101}, {"time": 3557, "pitch": 78, "duration": 3, "velocity": 85}, {"time": 3557, "pitch": 81, "duration": 2, "velocity": 95}, {"time": 3563, "pitch": 76, "duration": 7, "velocity": 93}, {"time": 3563, "pitch": 80, "duration": 9, "velocity": 99}, {"time": 3575, "pitch": 78, "duration": 12, "velocity": 99}, {"time": 3575, "pitch": 81, "duration": 12, "velocity": 106}, {"time": 3593, "pitch": 78, "duration": 2, "velocity": 97}, {"time": 3593, "pitch": 81, "duration": 2, "velocity": 101}, {"time": 3599, "pitch": 78, "duration": 6, "velocity": 97}, {"time": 3599, "pitch": 81, "duration": 6, "velocity": 99}, {"time": 3608, "pitch": 76, "duration": 6, "velocity": 97}, {"time": 3608, "pitch": 80, "duration": 6, "velocity": 101}, {"time": 3617, "pitch": 74, "duration": 4, "velocity": 97}, {"time": 3617, "pitch": 78, "duration": 3, "velocity": 97}, {"time": 3623, "pitch": 73, "duration": 25, "velocity": 95}, {"time": 3623, "pitch": 76, "duration": 26, "velocity": 99}, {"time": 3671, "pitch": 81, "duration": 13, "velocity": 95}, {"time": 3671, "pitch": 85, "duration": 13, "velocity": 97}, {"time": 3689, "pitch": 81, "duration": 3, "velocity": 95}, {"time": 3689, "pitch": 85, "duration": 3, "velocity": 97}, {"time": 3695, "pitch": 81, "duration": 4, "velocity": 93}, {"time": 3695, "pitch": 85, "duration": 5, "velocity": 91}, {"time": 3701, "pitch": 80, "duration": 3, "velocity": 85}, {"time": 3701, "pitch": 83, "duration": 2, "velocity": 93}, {"time": 3707, "pitch": 78, "duration": 7, "velocity": 95}, {"time": 3707, "pitch": 81, "duration": 8, "velocity": 97}, {"time": 3719, "pitch": 80, "duration": 12, "velocity": 103}, {"time": 3719, "pitch": 83, "duration": 13, "velocity": 106}, {"time": 3737, "pitch": 80, "duration": 2, "velocity": 106}, {"time": 3737, "pitch": 83, "duration": 3, "velocity": 103}, {"time": 3743, "pitch": 80, "duration": 3, "velocity": 99}, {"time": 3743, "pitch": 83, "duration": 3, "velocity": 99}, {"time": 3749, "pitch": 78, "duration": 3, "velocity": 91}, {"time": 3749, "pitch": 81, "duration": 3, "velocity": 95}, {"time": 3755, "pitch": 76, "duration": 6, "velocity": 91}, {"time": 3755, "pitch": 80, "duration": 6, "velocity": 97}, {"time": 3767, "pitch": 78, "duration": 12, "velocity": 97}, {"time": 3767, "pitch": 81, "duration": 13, "velocity": 97}, {"time": 3785, "pitch": 78, "duration": 3, "velocity": 99}, {"time": 3785, "pitch": 81, "duration": 2, "velocity": 82}, {"time": 3791, "pitch": 78, "duration": 5, "velocity": 101}, {"time": 3791, "pitch": 81, "duration": 4, "velocity": 91}, {"time": 3800, "pitch": 76, "duration": 5, "velocity": 101}, {"time": 3800, "pitch": 80, "duration": 5, "velocity": 106}, {"time": 3809, "pitch": 74, "duration": 4, "velocity": 101}, {"time": 3809, "pitch": 78, "duration": 3, "velocity": 97}, {"time": 3815, "pitch": 73, "duration": 24, "velocity": 99}, {"time": 3815, "pitch": 77, "duration": 25, "velocity": 103}, {"time": 3875, "pitch": 73, "duration": 6, "velocity": 64}, {"time": 3875, "pitch": 78, "duration": 8, "velocity": 91}, {"time": 3887, "pitch": 76, "duration": 8, "velocity": 75}, {"time": 3887, "pitch": 80, "duration": 9, "velocity": 85}, {"time": 3899, "pitch": 78, "duration": 8, "velocity": 78}, {"time": 3899, "pitch": 81, "duration": 7, "velocity": 73}, {"time": 3911, "pitch": 73, "duration": 22, "velocity": 78}, {"time": 3911, "pitch": 78, "duration": 26, "velocity": 88}, {"time": 3960, "pitch": 78, "duration": 8, "velocity": 53}, {"time": 3962, "pitch": 81, "duration": 17, "velocity": 58}, {"time": 3964, "pitch": 85, "duration": 15, "velocity": 54}, {"time": 3966, "pitch": 90, "duration": 16, "velocity": 66}, {"time": 6575, "pitch": 90, "duration": 11, "velocity": 54}, {"time": 6587, "pitch": 92, "duration": 11, "velocity": 67}, {"time": 6599, "pitch": 93, "duration": 10, "velocity": 63}, {"time": 6629, "pitch": 81, "duration": 5, "velocity": 46}, {"time": 6635, "pitch": 85, "duration": 3, "velocity": 54}, {"time": 6641, "pitch": 93, "duration": 6, "velocity": 82}, {"time": 6647, "pitch": 92, "duration": 19, "velocity": 76}, {"time": 6677, "pitch": 81, "duration": 5, "velocity": 49}, {"time": 6683, "pitch": 83, "duration": 3, "velocity": 44}, {"time": 6689, "pitch": 90, "duration": 6, "velocity": 66}, {"time": 6695, "pitch": 88, "duration": 23, "velocity": 58}, {"time": 6725, "pitch": 80, "duration": 3, "velocity": 57}, {"time": 6731, "pitch": 86, "duration": 4, "velocity": 70}, {"time": 6737, "pitch": 85, "duration": 4, "velocity": 76}, {"time": 6743, "pitch": 86, "duration": 26, "velocity": 64}, {"time": 6773, "pitch": 78, "duration": 2, "velocity": 85}, {"time": 6773, "pitch": 81, "duration": 2, "velocity": 97}, {"time": 6779, "pitch": 78, "duration": 3, "velocity": 80}, {"time": 6779, "pitch": 81, "duration": 3, "velocity": 93}, {"time": 6785, "pitch": 80, "duration": 2, "velocity": 73}, {"time": 6785, "pitch": 83, "duration": 4, "velocity": 78}, {"time": 6791, "pitch": 81, "duration": 23, "velocity": 91}, {"time": 6791, "pitch": 85, "duration": 22, "velocity": 76}, {"time": 6821, "pitch": 81, "duration": 5, "velocity": 46}, {"time": 6827, "pitch": 88, "duration": 6, "velocity": 115}, {"time": 6827, "pitch": 85, "duration": 3, "velocity": 54}, {"time": 6833, "pitch": 78, "duration": 4, "velocity": 95}, {"time": 6833, "pitch": 81, "duration": 5, "velocity": 78}, {"time": 6839, "pitch": 76, "duration": 24, "velocity": 91}, {"time": 6839, "pitch": 80, "duration": 24, "velocity": 80}, {"time": 6869, "pitch": 81, "duration": 5, "velocity": 49}, {"time": 6875, "pitch": 83, "duration": 3, "velocity": 44}, {"time": 6880, "pitch": 81, "duration": 4, "velocity": 127}, {"time": 6881, "pitch": 76, "duration": 4, "velocity": 95}, {"time": 6883, "pitch": 80, "duration": 6, "velocity": 127}, {"time": 6886, "pitch": 81, "duration": 24, "velocity": 127}, {"time": 6887, "pitch": 74, "duration": 32, "velocity": 91}, {"time": 6887, "pitch": 78, "duration": 32, "velocity": 80}, {"time": 6917, "pitch": 80, "duration": 3, "velocity": 57}, {"time": 6936, "pitch": 80, "duration": 69, "velocity": 127}, {"time": 7159, "pitch": 83, "duration": 3, "velocity": 125}, {"time": 7164, "pitch": 83, "duration": 12, "velocity": 127}, {"time": 7174, "pitch": 85, "duration": 7, "velocity": 113}, {"time": 7183, "pitch": 85, "duration": 30, "velocity": 127}], "annotations": [{"time": 23, "annotation": {"number": 64, "value": 127}, "group": "control_change"}, {"time": 72, "annotation": {"number": 64, "value": 127}, "group": "control_change"}, {"time": 118, "annotation": {"number": 64, "value": 0}, "group": "control_change"}, {"time": 125, "annotation": {"number": 64, "value": 127}, "group": "control_change"}, {"time": 165, "annotation": {"number": 64, "value": 0}, "group": "control_change"}, {"time": 172, "annotation": {"number": 64, "value": 127}, "group": "control_change"}, {"time": 213, "annotation": {"number": 64, "value": 0}, "group": "control_change"}, {"time": 219, "annotation": {"number": 64, "value": 127}, "group": "control_change"}, {"time": 262, "annotation": {"number": 64, "value": 0}, "group": "control_change"}, {"time": 269, "annotation": {"number": 64, "value": 127}, "group": "control_change"}, {"time": 311, "annotation": {"number": 64, "value": 0}, "group": "control_change"}, {"time": 321, "annotation": {"number": 64, "value": 127}, "group": "control_change"}, {"time": 357, "annotation": {"number": 64, "value": 0}, "group": "control_change"}, {"time": 368, "annotation": {"number": 64, "value": 127}, "group": "control_change"}, {"time": 455, "annotation": {"number": 64, "value": 0}, "group": "control_change"}, {"time": 492, "annotation": {"number": 64, "value": 127}, "group": "control_change"}, {"time": 550, "annotation": {"number": 64, "value": 0}, "group": "control_change"}, {"time": 557, "annotation": {"number": 64, "value": 127}, "group": "control_change"}, {"time": 695, "annotation": {"number": 64, "value": 0}, "group": "control_change"}, {"time": 6551, "annotation": {"number": 64, "value": 127}, "group": "control_change"}, {"time": 6600, "annotation": {"number": 64, "value": 127}, "group": "control_change"}, {"time": 6646, "annotation": {"number": 64, "value": 0}, "group": "control_change"}, {"time": 6653, "annotation": {"number": 64, "value": 127}, "group": "control_change"}, {"time": 6693, "annotation": {"number": 64, "value": 0}, "group": "control_change"}, {"time": 6700, "annotation": {"number": 64, "value": 127}, "group": "control_change"}, {"time": 6741, "annotation": {"number": 64, "value": 0}, "group": "control_change"}, {"time": 6747, "annotation": {"number": 64, "value": 127}, "group": "control_change"}, {"time": 6790, "annotation": {"number": 64, "value": 0}, "group": "control_change"}, {"time": 6797, "annotation": {"number": 64, "value": 127}, "group": "control_change"}, {"time": 6839, "annotation": {"number": 64, "value": 0}, "group": "control_change"}, {"time": 6849, "annotation": {"number": 64, "value": 127}, "group": "control_change"}, {"time": 6885, "annotation": {"number": 64, "value": 0}, "group": "control_change"}, {"time": 6896, "annotation": {"number": 64, "value": 127}, "group": "control_change"}, {"time": 6983, "annotation": {"number": 64, "value": 0}, "group": "control_change"}, {"time": 7020, "annotation": {"number": 64, "value": 127}, "group": "control_change"}, {"time": 7078, "annotation": {"number": 64, "value": 0}, "group": "control_change"}, {"time": 7085, "annotation": {"number": 64, "value": 127}, "group": "control_change"}, {"time": 7223, "annotation": {"number": 64, "value": 0}, "group": "control_change"}]}, {"program": 0, "is_drum": false, "name": "PIANO", "notes": [{"time": 71, "pitch": 54, "duration": 35, "velocity": 70}, {"time": 83, "pitch": 61, "duration": 26, "velocity": 42}, {"time": 95, "pitch": 66, "duration": 10, "velocity": 48}, {"time": 119, "pitch": 52, "duration": 49, "velocity": 69}, {"time": 131, "pitch": 61, "duration": 20, "velocity": 49}, {"time": 143, "pitch": 64, "duration": 9, "velocity": 46}, {"time": 167, "pitch": 50, "duration": 36, "velocity": 72}, {"time": 179, "pitch": 57, "duration": 22, "velocity": 32}, {"time": 191, "pitch": 61, "duration": 9, "velocity": 53}, {"time": 215, "pitch": 47, "duration": 20, "velocity": 73}, {"time": 227, "pitch": 54, "duration": 11, "velocity": 38}, {"time": 239, "pitch": 59, "duration": 15, "velocity": 50}, {"time": 251, "pitch": 61, "duration": 12, "velocity": 60}, {"time": 257, "pitch": 66, "duration": 8, "velocity": 60}, {"time": 263, "pitch": 54, "duration": 40, "velocity": 70}, {"time": 263, "pitch": 68, "duration": 4, "velocity": 66}, {"time": 263, "pitch": 69, "duration": 10, "velocity": 51}, {"time": 275, "pitch": 61, "duration": 18, "velocity": 44}, {"time": 287, "pitch": 66, "duration": 12, "velocity": 51}, {"time": 287, "pitch": 68, "duration": 19, "velocity": 60}, {"time": 287, "pitch": 71, "duration": 19, "velocity": 61}, {"time": 296, "pitch": 61, "duration": 12, "velocity": 44}, {"time": 311, "pitch": 52, "duration": 46, "velocity": 61}, {"time": 311, "pitch": 68, "duration": 15, "velocity": 70}, {"time": 311, "pitch": 71, "duration": 18, "velocity": 69}, {"time": 323, "pitch": 61, "duration": 21, "velocity": 48}, {"time": 329, "pitch": 64, "duration": 15, "velocity": 54}, {"time": 335, "pitch": 66, "duration": 7, "velocity": 61}, {"time": 341, "pitch": 68, "duration": 4, "velocity": 61}, {"time": 347, "pitch": 69, "duration": 5, "velocity": 60}, {"time": 353, "pitch": 71, "duration": 6, "velocity": 57}, {"time": 359, "pitch": 50, "duration": 40, "velocity": 58}, {"time": 359, "pitch": 66, "duration": 14, "velocity": 63}, {"time": 359, "pitch": 69, "duration": 14, "velocity": 70}, {"time": 371, "pitch": 57, "duration": 18, "velocity": 38}, {"time": 383, "pitch": 62, "duration": 12, "velocity": 47}, {"time": 383, "pitch": 64, "duration": 13, "velocity": 59}, {"time": 383, "pitch": 66, "duration": 14, "velocity": 58}, {"time": 383, "pitch": 69, "duration": 15, "velocity": 63}, {"time": 395, "pitch": 57, "duration": 8, "velocity": 42}, {"time": 407, "pitch": 50, "duration": 33, "velocity": 61}, {"time": 407, "pitch": 64, "duration": 13, "velocity": 62}, {"time": 407, "pitch": 69, "duration": 18, "velocity": 69}, {"time": 419, "pitch": 57, "duration": 13, "velocity": 54}, {"time": 425, "pitch": 62, "duration": 12, "velocity": 55}, {"time": 431, "pitch": 64, "duration": 6, "velocity": 69}, {"time": 431, "pitch": 68, "duration": 7, "velocity": 82}, {"time": 437, "pitch": 57, "duration": 7, "velocity": 53}, {"time": 443, "pitch": 64, "duration": 4, "velocity": 62}, {"time": 443, "pitch": 69, "duration": 10, "velocity": 66}, {"time": 455, "pitch": 49, "duration": 5, "velocity": 63}, {"time": 455, "pitch": 61, "duration": 4, "velocity": 57}, {"time": 455, "pitch": 65, "duration": 3, "velocity": 64}, {"time": 455, "pitch": 68, "duration": 3, "velocity": 61}, {"time": 467, "pitch": 49, "duration": 5, "velocity": 70}, {"time": 467, "pitch": 61, "duration": 4, "velocity": 66}, {"time": 467, "pitch": 65, "duration": 3, "velocity": 75}, {"time": 467, "pitch": 68, "duration": 3, "velocity": 69}, {"time": 491, "pitch": 37, "duration": 43, "velocity": 70}, {"time": 491, "pitch": 49, "duration": 43, "velocity": 63}, {"time": 491, "pitch": 65, "duration": 43, "velocity": 70}, {"time": 491, "pitch": 68, "duration": 43, "velocity": 69}, {"time": 551, "pitch": 42, "duration": 22, "velocity": 67}, {"time": 551, "pitch": 61, "duration": 29, "velocity": 61}, {"time": 551, "pitch": 66, "duration": 36, "velocity": 66}, {"time": 551, "pitch": 69, "duration": 38, "velocity": 69}, {"time": 563, "pitch": 49, "duration": 12, "velocity": 44}, {"time": 575, "pitch": 54, "duration": 13, "velocity": 45}, {"time": 587, "pitch": 56, "duration": 49, "velocity": 54}, {"time": 593, "pitch": 57, "duration": 43, "velocity": 56}, {"time": 599, "pitch": 61, "duration": 6, "velocity": 51}, {"time": 605, "pitch": 66, "duration": 7, "velocity": 63}, {"time": 611, "pitch": 68, "duration": 3, "velocity": 62}, {"time": 617, "pitch": 69, "duration": 7, "velocity": 64}, {"time": 647, "pitch": 42, "duration": 39, "velocity": 61}, {"time": 647, "pitch": 54, "duration": 28, "velocity": 54}, {"time": 647, "pitch": 61, "duration": 16, "velocity": 60}, {"time": 647, "pitch": 66, "duration": 16, "velocity": 63}, {"time": 647, "pitch": 69, "duration": 15, "velocity": 63}, {"time": 671, "pitch": 61, "duration": 13, "velocity": 57}, {"time": 671, "pitch": 66, "duration": 12, "velocity": 62}, {"time": 671, "pitch": 69, "duration": 11, "velocity": 50}, {"time": 683, "pitch": 54, "duration": 3, "velocity": 40}, {"time": 695, "pitch": 40, "duration": 39, "velocity": 42}, {"time": 695, "pitch": 52, "duration": 14, "velocity": 47}, {"time": 695, "pitch": 59, "duration": 13, "velocity": 53}, {"time": 695, "pitch": 64, "duration": 12, "velocity": 58}, {"time": 695, "pitch": 68, "duration": 12, "velocity": 59}, {"time": 707, "pitch": 47, "duration": 31, "velocity": 47}, {"time": 719, "pitch": 52, "duration": 14, "velocity": 47}, {"time": 719, "pitch": 59, "duration": 9, "velocity": 56}, {"time": 719, "pitch": 64, "duration": 8, "velocity": 53}, {"time": 719, "pitch": 68, "duration": 7, "velocity": 49}, {"time": 743, "pitch": 42, "duration": 21, "velocity": 52}, {"time": 743, "pitch": 61, "duration": 12, "velocity": 53}, {"time": 743, "pitch": 66, "duration": 12, "velocity": 54}, {"time": 743, "pitch": 69, "duration": 11, "velocity": 50}, {"time": 755, "pitch": 49, "duration": 11, "velocity": 47}, {"time": 767, "pitch": 54, "duration": 13, "velocity": 44}, {"time": 767, "pitch": 61, "duration": 10, "velocity": 43}, {"time": 767, "pitch": 66, "duration": 11, "velocity": 48}, {"time": 767, "pitch": 69, "duration": 9, "velocity": 40}, {"time": 779, "pitch": 56, "duration": 13, "velocity": 41}, {"time": 791, "pitch": 57, "duration": 18, "velocity": 44}, {"time": 791, "pitch": 61, "duration": 12, "velocity": 46}, {"time": 791, "pitch": 66, "duration": 11, "velocity": 55}, {"time": 791, "pitch": 69, "duration": 11, "velocity": 47}, {"time": 803, "pitch": 56, "duration": 20, "velocity": 48}, {"time": 815, "pitch": 61, "duration": 5, "velocity": 69}, {"time": 815, "pitch": 66, "duration": 5, "velocity": 80}, {"time": 815, "pitch": 69, "duration": 4, "velocity": 69}, {"time": 821, "pitch": 54, "duration": 5, "velocity": 55}, {"time": 827, "pitch": 61, "duration": 4, "velocity": 70}, {"time": 833, "pitch": 69, "duration": 4, "velocity": 66}, {"time": 839, "pitch": 42, "duration": 28, "velocity": 69}, {"time": 839, "pitch": 61, "duration": 12, "velocity": 60}, {"time": 839, "pitch": 66, "duration": 12, "velocity": 66}, {"time": 839, "pitch": 69, "duration": 11, "velocity": 61}, {"time": 851, "pitch": 49, "duration": 13, "velocity": 40}, {"time": 863, "pitch": 54, "duration": 11, "velocity": 48}, {"time": 863, "pitch": 61, "duration": 13, "velocity": 66}, {"time": 863, "pitch": 66, "duration": 14, "velocity": 64}, {"time": 863, "pitch": 69, "duration": 15, "velocity": 66}, {"time": 875, "pitch": 49, "duration": 11, "velocity": 41}, {"time": 887, "pitch": 40, "duration": 37, "velocity": 60}, {"time": 887, "pitch": 59, "duration": 15, "velocity": 64}, {"time": 887, "pitch": 64, "duration": 13, "velocity": 64}, {"time": 887, "pitch": 68, "duration": 12, "velocity": 62}, {"time": 899, "pitch": 47, "duration": 13, "velocity": 44}, {"time": 911, "pitch": 52, "duration": 15, "velocity": 47}, {"time": 911, "pitch": 59, "duration": 13, "velocity": 58}, {"time": 911, "pitch": 64, "duration": 13, "velocity": 60}, {"time": 911, "pitch": 68, "duration": 15, "velocity": 60}, {"time": 923, "pitch": 47, "duration": 12, "velocity": 58}, {"time": 935, "pitch": 45, "duration": 61, "velocity": 56}, {"time": 935, "pitch": 61, "duration": 13, "velocity": 63}, {"time": 935, "pitch": 64, "duration": 13, "velocity": 59}, {"time": 935, "pitch": 69, "duration": 13, "velocity": 64}, {"time": 947, "pitch": 52, "duration": 13, "velocity": 53}, {"time": 959, "pitch": 57, "duration": 14, "velocity": 44}, {"time": 959, "pitch": 59, "duration": 11, "velocity": 53}, {"time": 959, "pitch": 64, "duration": 11, "velocity": 61}, {"time": 971, "pitch": 52, "duration": 13, "velocity": 40}, {"time": 983, "pitch": 57, "duration": 12, "velocity": 44}, {"time": 983, "pitch": 61, "duration": 10, "velocity": 56}, {"time": 983, "pitch": 64, "duration": 9, "velocity": 53}, {"time": 995, "pitch": 52, "duration": 14, "velocity": 39}, {"time": 1007, "pitch": 44, "duration": 13, "velocity": 48}, {"time": 1007, "pitch": 59, "duration": 9, "velocity": 53}, {"time": 1007, "pitch": 64, "duration": 9, "velocity": 54}, {"time": 1007, "pitch": 68, "duration": 12, "velocity": 56}, {"time": 1019, "pitch": 66, "duration": 7, "velocity": 56}, {"time": 1025, "pitch": 68, "duration": 4, "velocity": 62}, {"time": 1031, "pitch": 42, "duration": 35, "velocity": 70}, {"time": 1031, "pitch": 61, "duration": 14, "velocity": 61}, {"time": 1031, "pitch": 66, "duration": 14, "velocity": 54}, {"time": 1031, "pitch": 69, "duration": 14, "velocity": 66}, {"time": 1043, "pitch": 49, "duration": 12, "velocity": 36}, {"time": 1055, "pitch": 54, "duration": 11, "velocity": 42}, {"time": 1055, "pitch": 61, "duration": 12, "velocity": 58}, {"time": 1055, "pitch": 66, "duration": 12, "velocity": 56}, {"time": 1055, "pitch": 69, "duration": 12, "velocity": 57}, {"time": 1067, "pitch": 49, "duration": 11, "velocity": 44}, {"time": 1079, "pitch": 35, "duration": 34, "velocity": 47}, {"time": 1079, "pitch": 47, "duration": 36, "velocity": 50}, {"time": 1079, "pitch": 59, "duration": 16, "velocity": 55}, {"time": 1079, "pitch": 62, "duration": 15, "velocity": 61}, {"time": 1079, "pitch": 66, "duration": 16, "velocity": 55}, {"time": 1103, "pitch": 59, "duration": 12, "velocity": 49}, {"time": 1103, "pitch": 62, "duration": 12, "velocity": 59}, {"time": 1103, "pitch": 66, "duration": 11, "velocity": 57}, {"time": 1103, "pitch": 68, "duration": 17, "velocity": 46}, {"time": 1127, "pitch": 40, "duration": 33, "velocity": 53}, {"time": 1127, "pitch": 52, "duration": 35, "velocity": 48}, {"time": 1127, "pitch": 59, "duration": 12, "velocity": 53}, {"time": 1127, "pitch": 64, "duration": 13, "velocity": 57}, {"time": 1127, "pitch": 68, "duration": 12, "velocity": 57}, {"time": 1151, "pitch": 59, "duration": 10, "velocity": 56}, {"time": 1151, "pitch": 64, "duration": 11, "velocity": 62}, {"time": 1151, "pitch": 68, "duration": 12, "velocity": 62}, {"time": 1175, "pitch": 42, "duration": 37, "velocity": 61}, {"time": 1175, "pitch": 61, "duration": 14, "velocity": 60}, {"time": 1175, "pitch": 66, "duration": 14, "velocity": 61}, {"time": 1175, "pitch": 69, "duration": 13, "velocity": 57}, {"time": 1187, "pitch": 49, "duration": 23, "velocity": 44}, {"time": 1199, "pitch": 54, "duration": 10, "velocity": 36}, {"time": 1199, "pitch": 61, "duration": 12, "velocity": 49}, {"time": 1199, "pitch": 66, "duration": 13, "velocity": 45}, {"time": 1199, "pitch": 69, "duration": 7, "velocity": 44}, {"time": 1211, "pitch": 68, "duration": 2, "velocity": 61}, {"time": 1223, "pitch": 38, "duration": 36, "velocity": 60}, {"time": 1223, "pitch": 57, "duration": 12, "velocity": 54}, {"time": 1223, "pitch": 62, "duration": 12, "velocity": 66}, {"time": 1223, "pitch": 66, "duration": 12, "velocity": 66}, {"time": 1235, "pitch": 45, "duration": 25, "velocity": 39}, {"time": 1247, "pitch": 50, "duration": 12, "velocity": 44}, {"time": 1247, "pitch": 57, "duration": 11, "velocity": 60}, {"time": 1247, "pitch": 62, "duration": 16, "velocity": 62}, {"time": 1247, "pitch": 66, "duration": 11, "velocity": 62}, {"time": 1271, "pitch": 40, "duration": 19, "velocity": 63}, {"time": 1271, "pitch": 59, "duration": 13, "velocity": 55}, {"time": 1271, "pitch": 64, "duration": 14, "velocity": 57}, {"time": 1271, "pitch": 68, "duration": 12, "velocity": 61}, {"time": 1283, "pitch": 47, "duration": 12, "velocity": 41}, {"time": 1295, "pitch": 52, "duration": 14, "velocity": 48}, {"time": 1295, "pitch": 59, "duration": 10, "velocity": 55}, {"time": 1295, "pitch": 64, "duration": 10, "velocity": 62}, {"time": 1295, "pitch": 68, "duration": 3, "velocity": 31}, {"time": 1307, "pitch": 54, "duration": 3, "velocity": 48}, {"time": 1319, "pitch": 42, "duration": 22, "velocity": 64}, {"time": 1319, "pitch": 61, "duration": 35, "velocity": 57}, {"time": 1319, "pitch": 66, "duration": 36, "velocity": 66}, {"time": 1331, "pitch": 49, "duration": 12, "velocity": 39}, {"time": 1343, "pitch": 54, "duration": 12, "velocity": 40}, {"time": 1355, "pitch": 56, "duration": 17, "velocity": 44}, {"time": 1367, "pitch": 57, "duration": 32, "velocity": 46}, {"time": 1367, "pitch": 61, "duration": 18, "velocity": 43}, {"time": 1367, "pitch": 66, "duration": 20, "velocity": 47}, {"time": 1367, "pitch": 69, "duration": 25, "velocity": 49}, {"time": 1403, "pitch": 68, "duration": 5, "velocity": 52}, {"time": 1409, "pitch": 69, "duration": 6, "velocity": 61}, {"time": 1415, "pitch": 42, "duration": 36, "velocity": 69}, {"time": 1415, "pitch": 61, "duration": 12, "velocity": 60}, {"time": 1415, "pitch": 66, "duration": 14, "velocity": 60}, {"time": 1427, "pitch": 49, "duration": 12, "velocity": 34}, {"time": 1439, "pitch": 54, "duration": 11, "velocity": 39}, {"time": 1439, "pitch": 61, "duration": 13, "velocity": 53}, {"time": 1439, "pitch": 66, "duration": 14, "velocity": 54}, {"time": 1439, "pitch": 69, "duration": 13, "velocity": 57}, {"time": 1451, "pitch": 49, "duration": 11, "velocity": 46}, {"time": 1463, "pitch": 40, "duration": 35, "velocity": 66}, {"time": 1463, "pitch": 59, "duration": 14, "velocity": 51}, {"time": 1463, "pitch": 64, "duration": 14, "velocity": 60}, {"time": 1463, "pitch": 68, "duration": 14, "velocity": 53}, {"time": 1475, "pitch": 47, "duration": 24, "velocity": 37}, {"time": 1487, "pitch": 52, "duration": 13, "velocity": 45}, {"time": 1487, "pitch": 59, "duration": 13, "velocity": 61}, {"time": 1487, "pitch": 64, "duration": 11, "velocity": 67}, {"time": 1487, "pitch": 68, "duration": 9, "velocity": 64}, {"time": 1511, "pitch": 42, "duration": 19, "velocity": 62}, {"time": 1511, "pitch": 61, "duration": 9, "velocity": 58}, {"time": 1511, "pitch": 66, "duration": 11, "velocity": 59}, {"time": 1511, "pitch": 69, "duration": 9, "velocity": 59}, {"time": 1523, "pitch": 49, "duration": 11, "velocity": 47}, {"time": 1535, "pitch": 54, "duration": 14, "velocity": 48}, {"time": 1547, "pitch": 56, "duration": 46, "velocity": 54}, {"time": 1547, "pitch": 61, "duration": 13, "velocity": 44}, {"time": 1559, "pitch": 57, "duration": 33, "velocity": 42}, {"time": 1559, "pitch": 66, "duration": 25, "velocity": 50}, {"time": 1583, "pitch": 59, "duration": 6, "velocity": 53}, {"time": 1607, "pitch": 42, "duration": 38, "velocity": 59}, {"time": 1619, "pitch": 49, "duration": 13, "velocity": 47}, {"time": 1631, "pitch": 54, "duration": 11, "velocity": 49}, {"time": 1631, "pitch": 57, "duration": 10, "velocity": 64}, {"time": 1631, "pitch": 61, "duration": 10, "velocity": 60}, {"time": 1643, "pitch": 56, "duration": 10, "velocity": 53}, {"time": 1643, "pitch": 59, "duration": 11, "velocity": 69}, {"time": 1655, "pitch": 40, "duration": 26, "velocity": 62}, {"time": 1655, "pitch": 57, "duration": 1, "velocity": 51}, {"time": 1655, "pitch": 59, "duration": 11, "velocity": 49}, {"time": 1655, "pitch": 64, "duration": 12, "velocity": 69}, {"time": 1667, "pitch": 47, "duration": 14, "velocity": 44}, {"time": 1679, "pitch": 52, "duration": 14, "velocity": 49}, {"time": 1679, "pitch": 59, "duration": 12, "velocity": 58}, {"time": 1679, "pitch": 64, "duration": 12, "velocity": 66}, {"time": 1679, "pitch": 68, "duration": 18, "velocity": 60}, {"time": 1691, "pitch": 54, "duration": 12, "velocity": 49}, {"time": 1703, "pitch": 45, "duration": 66, "velocity": 64}, {"time": 1703, "pitch": 61, "duration": 20, "velocity": 63}, {"time": 1703, "pitch": 64, "duration": 20, "velocity": 67}, {"time": 1703, "pitch": 69, "duration": 31, "velocity": 70}, {"time": 1715, "pitch": 52, "duration": 59, "velocity": 45}, {"time": 1727, "pitch": 57, "duration": 23, "velocity": 59}, {"time": 1739, "pitch": 59, "duration": 14, "velocity": 63}, {"time": 1739, "pitch": 64, "duration": 10, "velocity": 63}, {"time": 1751, "pitch": 61, "duration": 13, "velocity": 72}, {"time": 1763, "pitch": 57, "duration": 6, "velocity": 40}, {"time": 1769, "pitch": 59, "duration": 6, "velocity": 59}, {"time": 1775, "pitch": 64, "duration": 4, "velocity": 63}, {"time": 1781, "pitch": 59, "duration": 4, "velocity": 62}, {"time": 1787, "pitch": 44, "duration": 11, "velocity": 73}, {"time": 1787, "pitch": 64, "duration": 5, "velocity": 72}, {"time": 1793, "pitch": 68, "duration": 5, "velocity": 69}, {"time": 1799, "pitch": 42, "duration": 37, "velocity": 61}, {"time": 1799, "pitch": 61, "duration": 15, "velocity": 66}, {"time": 1799, "pitch": 64, "duration": 18, "velocity": 63}, {"time": 1799, "pitch": 69, "duration": 15, "velocity": 75}, {"time": 1811, "pitch": 49, "duration": 15, "velocity": 46}, {"time": 1823, "pitch": 54, "duration": 12, "velocity": 48}, {"time": 1823, "pitch": 61, "duration": 14, "velocity": 67}, {"time": 1823, "pitch": 64, "duration": 11, "velocity": 70}, {"time": 1823, "pitch": 69, "duration": 17, "velocity": 70}, {"time": 1835, "pitch": 49, "duration": 8, "velocity": 50}, {"time": 1847, "pitch": 35, "duration": 11, "velocity": 66}, {"time": 1847, "pitch": 59, "duration": 14, "velocity": 66}, {"time": 1847, "pitch": 62, "duration": 14, "velocity": 70}, {"time": 1847, "pitch": 66, "duration": 14, "velocity": 64}, {"time": 1859, "pitch": 47, "duration": 12, "velocity": 58}, {"time": 1871, "pitch": 50, "duration": 14, "velocity": 66}, {"time": 1871, "pitch": 59, "duration": 12, "velocity": 66}, {"time": 1871, "pitch": 62, "duration": 14, "velocity": 70}, {"time": 1871, "pitch": 66, "duration": 21, "velocity": 67}, {"time": 1883, "pitch": 54, "duration": 2, "velocity": 56}, {"time": 1895, "pitch": 40, "duration": 22, "velocity": 75}, {"time": 1895, "pitch": 59, "duration": 11, "velocity": 66}, {"time": 1895, "pitch": 64, "duration": 12, "velocity": 69}, {"time": 1895, "pitch": 68, "duration": 11, "velocity": 72}, {"time": 1907, "pitch": 47, "duration": 12, "velocity": 50}, {"time": 1913, "pitch": 66, "duration": 2, "velocity": 71}, {"time": 1919, "pitch": 52, "duration": 13, "velocity": 54}, {"time": 1919, "pitch": 64, "duration": 24, "velocity": 67}, {"time": 1931, "pitch": 54, "duration": 2, "velocity": 62}, {"time": 1943, "pitch": 42, "duration": 22, "velocity": 69}, {"time": 1943, "pitch": 66, "duration": 23, "velocity": 47}, {"time": 1943, "pitch": 69, "duration": 23, "velocity": 63}, {"time": 1955, "pitch": 49, "duration": 11, "velocity": 39}, {"time": 1967, "pitch": 54, "duration": 12, "velocity": 49}, {"time": 1979, "pitch": 57, "duration": 2, "velocity": 70}, {"time": 1991, "pitch": 38, "duration": 38, "velocity": 72}, {"time": 2003, "pitch": 45, "duration": 36, "velocity": 47}, {"time": 2015, "pitch": 50, "duration": 17, "velocity": 66}, {"time": 2021, "pitch": 57, "duration": 3, "velocity": 75}, {"time": 2027, "pitch": 62, "duration": 4, "velocity": 67}, {"time": 2033, "pitch": 69, "duration": 6, "velocity": 67}, {"time": 2039, "pitch": 40, "duration": 35, "velocity": 67}, {"time": 2039, "pitch": 59, "duration": 19, "velocity": 69}, {"time": 2039, "pitch": 64, "duration": 20, "velocity": 69}, {"time": 2039, "pitch": 68, "duration": 19, "velocity": 67}, {"time": 2051, "pitch": 47, "duration": 32, "velocity": 59}, {"time": 2063, "pitch": 52, "duration": 15, "velocity": 48}, {"time": 2063, "pitch": 59, "duration": 8, "velocity": 63}, {"time": 2063, "pitch": 64, "duration": 10, "velocity": 70}, {"time": 2063, "pitch": 68, "duration": 10, "velocity": 66}, {"time": 2075, "pitch": 66, "duration": 6, "velocity": 62}, {"time": 2081, "pitch": 68, "duration": 4, "velocity": 63}, {"time": 2087, "pitch": 42, "duration": 34, "velocity": 73}, {"time": 2087, "pitch": 61, "duration": 12, "velocity": 69}, {"time": 2087, "pitch": 66, "duration": 11, "velocity": 78}, {"time": 2087, "pitch": 69, "duration": 3, "velocity": 54}, {"time": 2099, "pitch": 49, "duration": 31, "velocity": 48}, {"time": 2105, "pitch": 54, "duration": 18, "velocity": 55}, {"time": 2111, "pitch": 56, "duration": 5, "velocity": 75}, {"time": 2117, "pitch": 57, "duration": 3, "velocity": 57}, {"time": 2123, "pitch": 61, "duration": 4, "velocity": 80}, {"time": 2129, "pitch": 66, "duration": 8, "velocity": 69}, {"time": 2135, "pitch": 38, "duration": 12, "velocity": 72}, {"time": 2135, "pitch": 50, "duration": 6, "velocity": 78}, {"time": 2135, "pitch": 54, "duration": 13, "velocity": 76}, {"time": 2135, "pitch": 57, "duration": 12, "velocity": 80}, {"time": 2135, "pitch": 62, "duration": 12, "velocity": 75}, {"time": 2147, "pitch": 50, "duration": 3, "velocity": 70}, {"time": 2153, "pitch": 57, "duration": 4, "velocity": 49}, {"time": 2159, "pitch": 40, "duration": 14, "velocity": 80}, {"time": 2159, "pitch": 56, "duration": 12, "velocity": 88}, {"time": 2159, "pitch": 59, "duration": 12, "velocity": 80}, {"time": 2159, "pitch": 64, "duration": 12, "velocity": 75}, {"time": 2171, "pitch": 52, "duration": 11, "velocity": 70}, {"time": 2183, "pitch": 42, "duration": 10, "velocity": 82}, {"time": 2183, "pitch": 57, "duration": 15, "velocity": 82}, {"time": 2183, "pitch": 61, "duration": 18, "velocity": 82}, {"time": 2183, "pitch": 66, "duration": 25, "velocity": 76}, {"time": 2189, "pitch": 49, "duration": 6, "velocity": 61}, {"time": 2195, "pitch": 54, "duration": 8, "velocity": 56}, {"time": 2201, "pitch": 56, "duration": 11, "velocity": 60}, {"time": 2207, "pitch": 57, "duration": 6, "velocity": 67}, {"time": 2213, "pitch": 59, "duration": 9, "velocity": 62}, {"time": 2219, "pitch": 61, "duration": 7, "velocity": 66}, {"time": 2225, "pitch": 66, "duration": 7, "velocity": 70}, {"time": 2231, "pitch": 40, "duration": 9, "velocity": 72}, {"time": 2231, "pitch": 57, "duration": 12, "velocity": 75}, {"time": 2231, "pitch": 64, "duration": 19, "velocity": 78}, {"time": 2237, "pitch": 47, "duration": 6, "velocity": 64}, {"time": 2243, "pitch": 52, "duration": 7, "velocity": 58}, {"time": 2249, "pitch": 54, "duration": 14, "velocity": 56}, {"time": 2255, "pitch": 56, "duration": 7, "velocity": 51}, {"time": 2261, "pitch": 59, "duration": 4, "velocity": 66}, {"time": 2267, "pitch": 64, "duration": 7, "velocity": 76}, {"time": 2273, "pitch": 69, "duration": 8, "velocity": 75}, {"time": 2279, "pitch": 38, "duration": 16, "velocity": 73}, {"time": 2279, "pitch": 57, "duration": 11, "velocity": 85}, {"time": 2279, "pitch": 62, "duration": 12, "velocity": 72}, {"time": 2279, "pitch": 66, "duration": 12, "velocity": 73}, {"time": 2285, "pitch": 45, "duration": 17, "velocity": 66}, {"time": 2291, "pitch": 50, "duration": 8, "velocity": 60}, {"time": 2297, "pitch": 69, "duration": 7, "velocity": 73}, {"time": 2303, "pitch": 40, "duration": 9, "velocity": 70}, {"time": 2303, "pitch": 59, "duration": 16, "velocity": 95}, {"time": 2303, "pitch": 64, "duration": 18, "velocity": 93}, {"time": 2303, "pitch": 68, "duration": 23, "velocity": 91}, {"time": 2309, "pitch": 47, "duration": 6, "velocity": 63}, {"time": 2315, "pitch": 52, "duration": 11, "velocity": 76}, {"time": 2321, "pitch": 54, "duration": 6, "velocity": 62}, {"time": 2327, "pitch": 45, "duration": 9, "velocity": 72}, {"time": 2327, "pitch": 61, "duration": 8, "velocity": 72}, {"time": 2327, "pitch": 64, "duration": 9, "velocity": 69}, {"time": 2327, "pitch": 69, "duration": 10, "velocity": 80}, {"time": 2333, "pitch": 52, "duration": 7, "velocity": 70}, {"time": 2339, "pitch": 57, "duration": 7, "velocity": 66}, {"time": 2345, "pitch": 59, "duration": 13, "velocity": 61}, {"time": 2351, "pitch": 61, "duration": 6, "velocity": 73}, {"time": 2357, "pitch": 81, "duration": 4, "velocity": 72}, {"time": 2363, "pitch": 80, "duration": 4, "velocity": 76}, {"time": 2369, "pitch": 76, "duration": 5, "velocity": 73}, {"time": 2375, "pitch": 42, "duration": 9, "velocity": 72}, {"time": 2375, "pitch": 61, "duration": 23, "velocity": 80}, {"time": 2375, "pitch": 66, "duration": 23, "velocity": 80}, {"time": 2375, "pitch": 69, "duration": 22, "velocity": 78}, {"time": 2381, "pitch": 49, "duration": 5, "velocity": 64}, {"time": 2387, "pitch": 54, "duration": 7, "velocity": 54}, {"time": 2393, "pitch": 56, "duration": 13, "velocity": 67}, {"time": 2399, "pitch": 57, "duration": 7, "velocity": 69}, {"time": 2405, "pitch": 61, "duration": 4, "velocity": 80}, {"time": 2411, "pitch": 66, "duration": 8, "velocity": 62}, {"time": 2417, "pitch": 69, "duration": 3, "velocity": 75}, {"time": 2423, "pitch": 40, "duration": 9, "velocity": 69}, {"time": 2423, "pitch": 59, "duration": 18, "velocity": 73}, {"time": 2423, "pitch": 64, "duration": 25, "velocity": 70}, {"time": 2423, "pitch": 68, "duration": 25, "velocity": 57}, {"time": 2429, "pitch": 47, "duration": 6, "velocity": 66}, {"time": 2435, "pitch": 52, "duration": 7, "velocity": 61}, {"time": 2441, "pitch": 54, "duration": 12, "velocity": 62}, {"time": 2447, "pitch": 56, "duration": 6, "velocity": 73}, {"time": 2453, "pitch": 59, "duration": 4, "velocity": 69}, {"time": 2459, "pitch": 64, "duration": 8, "velocity": 76}, {"time": 2465, "pitch": 69, "duration": 4, "velocity": 70}, {"time": 2471, "pitch": 38, "duration": 19, "velocity": 70}, {"time": 2471, "pitch": 57, "duration": 10, "velocity": 78}, {"time": 2471, "pitch": 62, "duration": 17, "velocity": 80}, {"time": 2471, "pitch": 66, "duration": 15, "velocity": 88}, {"time": 2477, "pitch": 45, "duration": 32, "velocity": 76}, {"time": 2483, "pitch": 50, "duration": 10, "velocity": 59}, {"time": 2486, "pitch": 57, "duration": 3, "velocity": 58}, {"time": 2492, "pitch": 57, "duration": 9, "velocity": 78}, {"time": 2492, "pitch": 62, "duration": 9, "velocity": 82}, {"time": 2492, "pitch": 66, "duration": 9, "velocity": 78}, {"time": 2498, "pitch": 38, "duration": 9, "velocity": 32}, {"time": 2501, "pitch": 50, "duration": 7, "velocity": 61}, {"time": 2507, "pitch": 57, "duration": 5, "velocity": 78}, {"time": 2507, "pitch": 62, "duration": 3, "velocity": 54}, {"time": 2513, "pitch": 62, "duration": 2, "velocity": 49}, {"time": 2513, "pitch": 66, "duration": 3, "velocity": 73}, {"time": 2519, "pitch": 37, "duration": 5, "velocity": 70}, {"time": 2519, "pitch": 59, "duration": 4, "velocity": 78}, {"time": 2519, "pitch": 61, "duration": 3, "velocity": 75}, {"time": 2519, "pitch": 66, "duration": 19, "velocity": 91}, {"time": 2519, "pitch": 68, "duration": 17, "velocity": 80}, {"time": 2525, "pitch": 49, "duration": 7, "velocity": 66}, {"time": 2531, "pitch": 52, "duration": 3, "velocity": 62}, {"time": 2531, "pitch": 54, "duration": 14, "velocity": 49}, {"time": 2537, "pitch": 56, "duration": 8, "velocity": 70}, {"time": 2543, "pitch": 61, "duration": 4, "velocity": 88}, {"time": 2549, "pitch": 66, "duration": 7, "velocity": 91}, {"time": 2555, "pitch": 68, "duration": 6, "velocity": 75}, {"time": 2561, "pitch": 71, "duration": 2, "velocity": 45}, {"time": 2561, "pitch": 73, "duration": 1, "velocity": 50}, {"time": 2567, "pitch": 42, "duration": 10, "velocity": 76}, {"time": 2567, "pitch": 61, "duration": 12, "velocity": 66}, {"time": 2567, "pitch": 69, "duration": 3, "velocity": 73}, {"time": 2567, "pitch": 71, "duration": 3, "velocity": 70}, {"time": 2573, "pitch": 49, "duration": 6, "velocity": 67}, {"time": 2573, "pitch": 69, "duration": 5, "velocity": 48}, {"time": 2579, "pitch": 54, "duration": 8, "velocity": 59}, {"time": 2585, "pitch": 56, "duration": 16, "velocity": 54}, {"time": 2585, "pitch": 61, "duration": 2, "velocity": 80}, {"time": 2585, "pitch": 69, "duration": 2, "velocity": 78}, {"time": 2591, "pitch": 61, "duration": 8, "velocity": 85}, {"time": 2591, "pitch": 69, "duration": 7, "velocity": 88}, {"time": 2597, "pitch": 57, "duration": 4, "velocity": 76}, {"time": 2597, "pitch": 68, "duration": 5, "velocity": 72}, {"time": 2603, "pitch": 66, "duration": 11, "velocity": 93}, {"time": 2615, "pitch": 40, "duration": 7, "velocity": 72}, {"time": 2615, "pitch": 59, "duration": 10, "velocity": 64}, {"time": 2615, "pitch": 64, "duration": 12, "velocity": 75}, {"time": 2615, "pitch": 68, "duration": 15, "velocity": 72}, {"time": 2621, "pitch": 47, "duration": 6, "velocity": 67}, {"time": 2627, "pitch": 52, "duration": 7, "velocity": 59}, {"time": 2633, "pitch": 54, "duration": 17, "velocity": 55}, {"time": 2639, "pitch": 56, "duration": 10, "velocity": 70}, {"time": 2645, "pitch": 69, "duration": 3, "velocity": 85}, {"time": 2651, "pitch": 71, "duration": 5, "velocity": 91}, {"time": 2657, "pitch": 76, "duration": 4, "velocity": 60}, {"time": 2663, "pitch": 50, "duration": 14, "velocity": 70}, {"time": 2663, "pitch": 66, "duration": 13, "velocity": 66}, {"time": 2663, "pitch": 73, "duration": 15, "velocity": 69}, {"time": 2669, "pitch": 57, "duration": 14, "velocity": 66}, {"time": 2675, "pitch": 62, "duration": 7, "velocity": 78}, {"time": 2681, "pitch": 66, "duration": 2, "velocity": 73}, {"time": 2681, "pitch": 74, "duration": 11, "velocity": 69}, {"time": 2687, "pitch": 52, "duration": 12, "velocity": 69}, {"time": 2687, "pitch": 64, "duration": 9, "velocity": 91}, {"time": 2687, "pitch": 73, "duration": 10, "velocity": 62}, {"time": 2693, "pitch": 59, "duration": 6, "velocity": 69}, {"time": 2699, "pitch": 69, "duration": 6, "velocity": 85}, {"time": 2705, "pitch": 71, "duration": 4, "velocity": 80}, {"time": 2711, "pitch": 45, "duration": 42, "velocity": 73}, {"time": 2711, "pitch": 64, "duration": 9, "velocity": 63}, {"time": 2711, "pitch": 69, "duration": 8, "velocity": 78}, {"time": 2711, "pitch": 73, "duration": 8, "velocity": 69}, {"time": 2717, "pitch": 52, "duration": 27, "velocity": 67}, {"time": 2723, "pitch": 57, "duration": 7, "velocity": 58}, {"time": 2729, "pitch": 61, "duration": 3, "velocity": 64}, {"time": 2729, "pitch": 69, "duration": 4, "velocity": 66}, {"time": 2735, "pitch": 59, "duration": 6, "velocity": 82}, {"time": 2735, "pitch": 68, "duration": 13, "velocity": 78}, {"time": 2735, "pitch": 69, "duration": 1, "velocity": 43}, {"time": 2741, "pitch": 57, "duration": 8, "velocity": 48}, {"time": 2747, "pitch": 52, "duration": 4, "velocity": 73}, {"time": 2747, "pitch": 61, "duration": 4, "velocity": 62}, {"time": 2747, "pitch": 69, "duration": 7, "velocity": 76}, {"time": 2753, "pitch": 66, "duration": 4, "velocity": 61}, {"time": 2759, "pitch": 42, "duration": 8, "velocity": 70}, {"time": 2759, "pitch": 61, "duration": 19, "velocity": 76}, {"time": 2759, "pitch": 66, "duration": 26, "velocity": 78}, {"time": 2759, "pitch": 69, "duration": 21, "velocity": 78}, {"time": 2765, "pitch": 49, "duration": 5, "velocity": 62}, {"time": 2771, "pitch": 54, "duration": 7, "velocity": 63}, {"time": 2777, "pitch": 56, "duration": 12, "velocity": 50}, {"time": 2783, "pitch": 57, "duration": 5, "velocity": 64}, {"time": 2789, "pitch": 61, "duration": 3, "velocity": 95}, {"time": 2795, "pitch": 66, "duration": 6, "velocity": 80}, {"time": 2801, "pitch": 69, "duration": 4, "velocity": 80}, {"time": 2807, "pitch": 40, "duration": 10, "velocity": 57}, {"time": 2807, "pitch": 59, "duration": 24, "velocity": 76}, {"time": 2807, "pitch": 64, "duration": 25, "velocity": 85}, {"time": 2807, "pitch": 68, "duration": 25, "velocity": 91}, {"time": 2813, "pitch": 47, "duration": 5, "velocity": 41}, {"time": 2819, "pitch": 52, "duration": 8, "velocity": 59}, {"time": 2825, "pitch": 54, "duration": 12, "velocity": 56}, {"time": 2831, "pitch": 56, "duration": 6, "velocity": 76}, {"time": 2837, "pitch": 59, "duration": 3, "velocity": 80}, {"time": 2843, "pitch": 64, "duration": 8, "velocity": 82}, {"time": 2849, "pitch": 69, "duration": 6, "velocity": 66}, {"time": 2855, "pitch": 38, "duration": 8, "velocity": 67}, {"time": 2855, "pitch": 57, "duration": 23, "velocity": 78}, {"time": 2855, "pitch": 62, "duration": 24, "velocity": 91}, {"time": 2855, "pitch": 66, "duration": 23, "velocity": 85}, {"time": 2861, "pitch": 45, "duration": 5, "velocity": 69}, {"time": 2867, "pitch": 50, "duration": 7, "velocity": 60}, {"time": 2873, "pitch": 52, "duration": 9, "velocity": 61}, {"time": 2879, "pitch": 54, "duration": 4, "velocity": 76}, {"time": 2885, "pitch": 57, "duration": 3, "velocity": 85}, {"time": 2891, "pitch": 62, "duration": 5, "velocity": 91}, {"time": 2897, "pitch": 66, "duration": 7, "velocity": 70}, {"time": 2903, "pitch": 49, "duration": 44, "velocity": 67}, {"time": 2903, "pitch": 68, "duration": 10, "velocity": 82}, {"time": 2909, "pitch": 54, "duration": 70, "velocity": 61}, {"time": 2915, "pitch": 56, "duration": 62, "velocity": 52}, {"time": 2921, "pitch": 61, "duration": 26, "velocity": 73}, {"time": 2927, "pitch": 66, "duration": 5, "velocity": 72}, {"time": 2933, "pitch": 68, "duration": 2, "velocity": 69}, {"time": 2939, "pitch": 73, "duration": 7, "velocity": 82}, {"time": 2945, "pitch": 78, "duration": 5, "velocity": 69}, {"time": 2951, "pitch": 49, "duration": 30, "velocity": 45}, {"time": 2951, "pitch": 73, "duration": 28, "velocity": 72}, {"time": 2951, "pitch": 80, "duration": 26, "velocity": 67}, {"time": 2999, "pitch": 42, "duration": 95, "velocity": 75}, {"time": 2999, "pitch": 57, "duration": 14, "velocity": 75}, {"time": 2999, "pitch": 61, "duration": 13, "velocity": 73}, {"time": 3011, "pitch": 49, "duration": 13, "velocity": 40}, {"time": 3023, "pitch": 54, "duration": 12, "velocity": 46}, {"time": 3023, "pitch": 56, "duration": 12, "velocity": 64}, {"time": 3023, "pitch": 57, "duration": 13, "velocity": 69}, {"time": 3023, "pitch": 61, "duration": 12, "velocity": 69}, {"time": 3035, "pitch": 49, "duration": 80, "velocity": 43}, {"time": 3047, "pitch": 54, "duration": 21, "velocity": 38}, {"time": 3047, "pitch": 56, "duration": 27, "velocity": 43}, {"time": 3047, "pitch": 57, "duration": 27, "velocity": 51}, {"time": 3047, "pitch": 61, "duration": 27, "velocity": 44}, {"time": 3074, "pitch": 54, "duration": 41, "velocity": 33}, {"time": 3095, "pitch": 42, "duration": 37, "velocity": 57}, {"time": 3095, "pitch": 54, "duration": 20, "velocity": 61}, {"time": 3095, "pitch": 57, "duration": 14, "velocity": 75}, {"time": 3095, "pitch": 61, "duration": 14, "velocity": 72}, {"time": 3119, "pitch": 57, "duration": 15, "velocity": 73}, {"time": 3119, "pitch": 61, "duration": 14, "velocity": 67}, {"time": 3131, "pitch": 54, "duration": 2, "velocity": 40}, {"time": 3143, "pitch": 40, "duration": 40, "velocity": 62}, {"time": 3143, "pitch": 52, "duration": 29, "velocity": 48}, {"time": 3143, "pitch": 56, "duration": 18, "velocity": 62}, {"time": 3143, "pitch": 59, "duration": 18, "velocity": 73}, {"time": 3143, "pitch": 64, "duration": 13, "velocity": 59}, {"time": 3167, "pitch": 56, "duration": 14, "velocity": 63}, {"time": 3167, "pitch": 59, "duration": 15, "velocity": 70}, {"time": 3167, "pitch": 64, "duration": 12, "velocity": 59}, {"time": 3179, "pitch": 52, "duration": 3, "velocity": 56}, {"time": 3191, "pitch": 54, "duration": 11, "velocity": 69}, {"time": 3191, "pitch": 57, "duration": 12, "velocity": 73}, {"time": 3191, "pitch": 61, "duration": 14, "velocity": 72}, {"time": 3194, "pitch": 38, "duration": 33, "velocity": 66}, {"time": 3194, "pitch": 50, "duration": 24, "velocity": 60}, {"time": 3215, "pitch": 54, "duration": 14, "velocity": 69}, {"time": 3215, "pitch": 57, "duration": 14, "velocity": 76}, {"time": 3215, "pitch": 61, "duration": 14, "velocity": 72}, {"time": 3227, "pitch": 50, "duration": 4, "velocity": 64}, {"time": 3239, "pitch": 45, "duration": 33, "velocity": 75}, {"time": 3239, "pitch": 57, "duration": 6, "velocity": 70}, {"time": 3239, "pitch": 61, "duration": 9, "velocity": 70}, {"time": 3251, "pitch": 52, "duration": 13, "velocity": 42}, {"time": 3263, "pitch": 57, "duration": 8, "velocity": 44}, {"time": 3263, "pitch": 59, "duration": 7, "velocity": 61}, {"time": 3263, "pitch": 61, "duration": 7, "velocity": 57}, {"time": 3263, "pitch": 64, "duration": 8, "velocity": 64}, {"time": 3272, "pitch": 52, "duration": 5, "velocity": 48}, {"time": 3281, "pitch": 44, "duration": 5, "velocity": 38}, {"time": 3284, "pitch": 66, "duration": 21, "velocity": 50}, {"time": 3287, "pitch": 42, "duration": 35, "velocity": 73}, {"time": 3287, "pitch": 61, "duration": 14, "velocity": 69}, {"time": 3287, "pitch": 69, "duration": 13, "velocity": 69}, {"time": 3299, "pitch": 49, "duration": 12, "velocity": 44}, {"time": 3311, "pitch": 54, "duration": 9, "velocity": 44}, {"time": 3311, "pitch": 61, "duration": 14, "velocity": 73}, {"time": 3311, "pitch": 66, "duration": 15, "velocity": 76}, {"time": 3311, "pitch": 69, "duration": 21, "velocity": 72}, {"time": 3323, "pitch": 49, "duration": 6, "velocity": 43}, {"time": 3335, "pitch": 40, "duration": 33, "velocity": 66}, {"time": 3335, "pitch": 59, "duration": 10, "velocity": 70}, {"time": 3335, "pitch": 64, "duration": 12, "velocity": 69}, {"time": 3335, "pitch": 68, "duration": 14, "velocity": 70}, {"time": 3347, "pitch": 47, "duration": 22, "velocity": 40}, {"time": 3359, "pitch": 52, "duration": 10, "velocity": 46}, {"time": 3359, "pitch": 59, "duration": 13, "velocity": 69}, {"time": 3359, "pitch": 64, "duration": 13, "velocity": 69}, {"time": 3383, "pitch": 38, "duration": 35, "velocity": 62}, {"time": 3383, "pitch": 57, "duration": 11, "velocity": 58}, {"time": 3383, "pitch": 62, "duration": 13, "velocity": 62}, {"time": 3383, "pitch": 66, "duration": 13, "velocity": 59}, {"time": 3395, "pitch": 45, "duration": 20, "velocity": 37}, {"time": 3407, "pitch": 50, "duration": 9, "velocity": 55}, {"time": 3407, "pitch": 57, "duration": 9, "velocity": 78}, {"time": 3407, "pitch": 62, "duration": 10, "velocity": 91}, {"time": 3407, "pitch": 66, "duration": 13, "velocity": 75}, {"time": 3431, "pitch": 37, "duration": 4, "velocity": 70}, {"time": 3431, "pitch": 61, "duration": 14, "velocity": 78}, {"time": 3431, "pitch": 65, "duration": 19, "velocity": 78}, {"time": 3431, "pitch": 68, "duration": 18, "velocity": 75}, {"time": 3437, "pitch": 49, "duration": 7, "velocity": 58}, {"time": 3443, "pitch": 54, "duration": 18, "velocity": 54}, {"time": 3443, "pitch": 56, "duration": 1, "velocity": 49}, {"time": 3449, "pitch": 56, "duration": 13, "velocity": 75}, {"time": 3455, "pitch": 61, "duration": 7, "velocity": 78}, {"time": 3461, "pitch": 66, "duration": 5, "velocity": 72}, {"time": 3467, "pitch": 66, "duration": 1, "velocity": 42}, {"time": 3467, "pitch": 68, "duration": 7, "velocity": 73}, {"time": 3473, "pitch": 69, "duration": 3, "velocity": 78}, {"time": 3479, "pitch": 42, "duration": 12, "velocity": 75}, {"time": 3479, "pitch": 61, "duration": 10, "velocity": 78}, {"time": 3479, "pitch": 66, "duration": 16, "velocity": 73}, {"time": 3479, "pitch": 69, "duration": 17, "velocity": 85}, {"time": 3503, "pitch": 61, "duration": 6, "velocity": 76}, {"time": 3503, "pitch": 66, "duration": 6, "velocity": 85}, {"time": 3503, "pitch": 69, "duration": 7, "velocity": 70}, {"time": 3509, "pitch": 42, "duration": 16, "velocity": 57}, {"time": 3515, "pitch": 61, "duration": 5, "velocity": 80}, {"time": 3521, "pitch": 69, "duration": 9, "velocity": 72}, {"time": 3527, "pitch": 40, "duration": 37, "velocity": 63}, {"time": 3527, "pitch": 59, "duration": 14, "velocity": 85}, {"time": 3527, "pitch": 64, "duration": 15, "velocity": 80}, {"time": 3527, "pitch": 68, "duration": 15, "velocity": 80}, {"time": 3539, "pitch": 47, "duration": 25, "velocity": 57}, {"time": 3545, "pitch": 52, "duration": 18, "velocity": 69}, {"time": 3551, "pitch": 59, "duration": 7, "velocity": 88}, {"time": 3557, "pitch": 64, "duration": 4, "velocity": 82}, {"time": 3563, "pitch": 64, "duration": 1, "velocity": 44}, {"time": 3563, "pitch": 66, "duration": 7, "velocity": 66}, {"time": 3569, "pitch": 69, "duration": 31, "velocity": 85}, {"time": 3575, "pitch": 38, "duration": 9, "velocity": 70}, {"time": 3575, "pitch": 57, "duration": 24, "velocity": 91}, {"time": 3575, "pitch": 62, "duration": 25, "velocity": 72}, {"time": 3575, "pitch": 66, "duration": 25, "velocity": 66}, {"time": 3581, "pitch": 45, "duration": 5, "velocity": 62}, {"time": 3587, "pitch": 50, "duration": 7, "velocity": 49}, {"time": 3593, "pitch": 52, "duration": 15, "velocity": 58}, {"time": 3599, "pitch": 54, "duration": 8, "velocity": 66}, {"time": 3605, "pitch": 57, "duration": 4, "velocity": 88}, {"time": 3605, "pitch": 69, "duration": 1, "velocity": 34}, {"time": 3611, "pitch": 62, "duration": 7, "velocity": 82}, {"time": 3617, "pitch": 64, "duration": 4, "velocity": 73}, {"time": 3623, "pitch": 45, "duration": 10, "velocity": 70}, {"time": 3623, "pitch": 61, "duration": 8, "velocity": 80}, {"time": 3623, "pitch": 64, "duration": 9, "velocity": 75}, {"time": 3623, "pitch": 69, "duration": 10, "velocity": 76}, {"time": 3629, "pitch": 52, "duration": 6, "velocity": 58}, {"time": 3635, "pitch": 57, "duration": 8, "velocity": 53}, {"time": 3641, "pitch": 59, "duration": 9, "velocity": 47}, {"time": 3647, "pitch": 61, "duration": 3, "velocity": 82}, {"time": 3653, "pitch": 81, "duration": 7, "velocity": 75}, {"time": 3659, "pitch": 80, "duration": 5, "velocity": 67}, {"time": 3665, "pitch": 78, "duration": 6, "velocity": 80}, {"time": 3671, "pitch": 42, "duration": 9, "velocity": 70}, {"time": 3671, "pitch": 73, "duration": 14, "velocity": 70}, {"time": 3671, "pitch": 81, "duration": 10, "velocity": 82}, {"time": 3677, "pitch": 49, "duration": 6, "velocity": 58}, {"time": 3683, "pitch": 54, "duration": 8, "velocity": 50}, {"time": 3689, "pitch": 73, "duration": 3, "velocity": 63}, {"time": 3689, "pitch": 81, "duration": 2, "velocity": 72}, {"time": 3692, "pitch": 56, "duration": 8, "velocity": 57}, {"time": 3695, "pitch": 57, "duration": 11, "velocity": 60}, {"time": 3695, "pitch": 73, "duration": 2, "velocity": 73}, {"time": 3695, "pitch": 81, "duration": 2, "velocity": 72}, {"time": 3701, "pitch": 71, "duration": 2, "velocity": 75}, {"time": 3701, "pitch": 80, "duration": 2, "velocity": 72}, {"time": 3707, "pitch": 56, "duration": 3, "velocity": 69}, {"time": 3707, "pitch": 69, "duration": 6, "velocity": 66}, {"time": 3707, "pitch": 78, "duration": 7, "velocity": 63}, {"time": 3719, "pitch": 40, "duration": 38, "velocity": 70}, {"time": 3719, "pitch": 71, "duration": 7, "velocity": 73}, {"time": 3719, "pitch": 80, "duration": 5, "velocity": 75}, {"time": 3725, "pitch": 47, "duration": 31, "velocity": 66}, {"time": 3731, "pitch": 52, "duration": 23, "velocity": 59}, {"time": 3737, "pitch": 56, "duration": 8, "velocity": 85}, {"time": 3743, "pitch": 57, "duration": 5, "velocity": 76}, {"time": 3749, "pitch": 59, "duration": 11, "velocity": 73}, {"time": 3755, "pitch": 61, "duration": 7, "velocity": 63}, {"time": 3761, "pitch": 64, "duration": 3, "velocity": 82}, {"time": 3767, "pitch": 38, "duration": 37, "velocity": 69}, {"time": 3767, "pitch": 54, "duration": 14, "velocity": 76}, {"time": 3767, "pitch": 57, "duration": 14, "velocity": 69}, {"time": 3767, "pitch": 62, "duration": 11, "velocity": 80}, {"time": 3773, "pitch": 45, "duration": 32, "velocity": 72}, {"time": 3779, "pitch": 50, "duration": 14, "velocity": 70}, {"time": 3785, "pitch": 54, "duration": 3, "velocity": 66}, {"time": 3791, "pitch": 54, "duration": 6, "velocity": 70}, {"time": 3791, "pitch": 57, "duration": 8, "velocity": 93}, {"time": 3791, "pitch": 62, "duration": 7, "velocity": 72}, {"time": 3797, "pitch": 50, "duration": 9, "velocity": 58}, {"time": 3800, "pitch": 54, "duration": 9, "velocity": 67}, {"time": 3806, "pitch": 62, "duration": 4, "velocity": 72}, {"time": 3815, "pitch": 37, "duration": 11, "velocity": 69}, {"time": 3815, "pitch": 56, "duration": 15, "velocity": 73}, {"time": 3815, "pitch": 61, "duration": 19, "velocity": 76}, {"time": 3827, "pitch": 49, "duration": 8, "velocity": 62}, {"time": 3833, "pitch": 54, "duration": 17, "velocity": 46}, {"time": 3839, "pitch": 56, "duration": 11, "velocity": 59}, {"time": 3848, "pitch": 61, "duration": 7, "velocity": 57}, {"time": 3857, "pitch": 66, "duration": 5, "velocity": 69}, {"time": 3863, "pitch": 37, "duration": 32, "velocity": 62}, {"time": 3863, "pitch": 49, "duration": 33, "velocity": 54}, {"time": 3863, "pitch": 61, "duration": 31, "velocity": 64}, {"time": 3863, "pitch": 65, "duration": 28, "velocity": 75}, {"time": 3863, "pitch": 68, "duration": 33, "velocity": 57}, {"time": 3911, "pitch": 42, "duration": 84, "velocity": 57}, {"time": 3911, "pitch": 61, "duration": 12, "velocity": 64}, {"time": 3911, "pitch": 66, "duration": 13, "velocity": 67}, {"time": 3911, "pitch": 69, "duration": 14, "velocity": 62}, {"time": 3923, "pitch": 49, "duration": 14, "velocity": 37}, {"time": 3935, "pitch": 54, "duration": 12, "velocity": 43}, {"time": 3935, "pitch": 61, "duration": 14, "velocity": 61}, {"time": 3935, "pitch": 66, "duration": 15, "velocity": 64}, {"time": 3935, "pitch": 69, "duration": 15, "velocity": 67}, {"time": 3947, "pitch": 49, "duration": 45, "velocity": 37}, {"time": 3959, "pitch": 54, "duration": 35, "velocity": 33}, {"time": 3959, "pitch": 61, "duration": 33, "velocity": 40}, {"time": 3959, "pitch": 66, "duration": 33, "velocity": 44}, {"time": 3959, "pitch": 69, "duration": 34, "velocity": 35}, {"time": 4007, "pitch": 42, "duration": 36, "velocity": 69}, {"time": 4007, "pitch": 61, "duration": 12, "velocity": 60}, {"time": 4007, "pitch": 66, "duration": 14, "velocity": 60}, {"time": 4019, "pitch": 49, "duration": 12, "velocity": 34}, {"time": 4031, "pitch": 54, "duration": 11, "velocity": 39}, {"time": 4031, "pitch": 61, "duration": 13, "velocity": 53}, {"time": 4031, "pitch": 66, "duration": 14, "velocity": 54}, {"time": 4031, "pitch": 69, "duration": 13, "velocity": 57}, {"time": 4043, "pitch": 49, "duration": 11, "velocity": 46}, {"time": 4055, "pitch": 40, "duration": 35, "velocity": 66}, {"time": 4055, "pitch": 59, "duration": 14, "velocity": 51}, {"time": 4055, "pitch": 64, "duration": 14, "velocity": 60}, {"time": 4055, "pitch": 68, "duration": 14, "velocity": 53}, {"time": 4067, "pitch": 47, "duration": 24, "velocity": 37}, {"time": 4079, "pitch": 52, "duration": 13, "velocity": 45}, {"time": 4079, "pitch": 59, "duration": 13, "velocity": 61}, {"time": 4079, "pitch": 64, "duration": 11, "velocity": 67}, {"time": 4079, "pitch": 68, "duration": 9, "velocity": 64}, {"time": 4103, "pitch": 42, "duration": 19, "velocity": 62}, {"time": 4103, "pitch": 61, "duration": 9, "velocity": 58}, {"time": 4103, "pitch": 66, "duration": 11, "velocity": 59}, {"time": 4103, "pitch": 69, "duration": 9, "velocity": 59}, {"time": 4115, "pitch": 49, "duration": 11, "velocity": 47}, {"time": 4127, "pitch": 54, "duration": 14, "velocity": 48}, {"time": 4139, "pitch": 56, "duration": 46, "velocity": 54}, {"time": 4139, "pitch": 73, "duration": 17, "velocity": 45}, {"time": 4151, "pitch": 57, "duration": 33, "velocity": 42}, {"time": 4151, "pitch": 81, "duration": 7, "velocity": 59}, {"time": 4163, "pitch": 80, "duration": 6, "velocity": 48}, {"time": 4175, "pitch": 59, "duration": 6, "velocity": 53}, {"time": 4175, "pitch": 76, "duration": 10, "velocity": 55}, {"time": 4187, "pitch": 73, "duration": 10, "velocity": 59}, {"time": 4199, "pitch": 42, "duration": 38, "velocity": 59}, {"time": 4199, "pitch": 78, "duration": 8, "velocity": 69}, {"time": 4211, "pitch": 49, "duration": 13, "velocity": 47}, {"time": 4223, "pitch": 54, "duration": 11, "velocity": 49}, {"time": 4223, "pitch": 57, "duration": 10, "velocity": 64}, {"time": 4223, "pitch": 61, "duration": 10, "velocity": 60}, {"time": 4235, "pitch": 56, "duration": 10, "velocity": 53}, {"time": 4235, "pitch": 59, "duration": 11, "velocity": 69}, {"time": 4247, "pitch": 40, "duration": 26, "velocity": 62}, {"time": 4247, "pitch": 57, "duration": 1, "velocity": 51}, {"time": 4247, "pitch": 59, "duration": 11, "velocity": 49}, {"time": 4247, "pitch": 64, "duration": 12, "velocity": 69}, {"time": 4259, "pitch": 47, "duration": 14, "velocity": 44}, {"time": 4271, "pitch": 52, "duration": 14, "velocity": 49}, {"time": 4271, "pitch": 59, "duration": 12, "velocity": 58}, {"time": 4271, "pitch": 64, "duration": 12, "velocity": 66}, {"time": 4271, "pitch": 68, "duration": 18, "velocity": 60}, {"time": 4283, "pitch": 54, "duration": 12, "velocity": 49}, {"time": 4295, "pitch": 45, "duration": 66, "velocity": 64}, {"time": 4295, "pitch": 61, "duration": 20, "velocity": 63}, {"time": 4295, "pitch": 64, "duration": 20, "velocity": 67}, {"time": 4295, "pitch": 69, "duration": 31, "velocity": 70}, {"time": 4307, "pitch": 52, "duration": 59, "velocity": 45}, {"time": 4319, "pitch": 57, "duration": 23, "velocity": 59}, {"time": 4331, "pitch": 59, "duration": 14, "velocity": 63}, {"time": 4331, "pitch": 64, "duration": 10, "velocity": 63}, {"time": 4343, "pitch": 61, "duration": 13, "velocity": 72}, {"time": 4355, "pitch": 57, "duration": 6, "velocity": 40}, {"time": 4361, "pitch": 59, "duration": 6, "velocity": 59}, {"time": 4367, "pitch": 64, "duration": 4, "velocity": 63}, {"time": 4373, "pitch": 59, "duration": 4, "velocity": 62}, {"time": 4379, "pitch": 44, "duration": 11, "velocity": 73}, {"time": 4379, "pitch": 64, "duration": 5, "velocity": 72}, {"time": 4385, "pitch": 68, "duration": 5, "velocity": 69}, {"time": 4391, "pitch": 42, "duration": 37, "velocity": 61}, {"time": 4391, "pitch": 61, "duration": 15, "velocity": 66}, {"time": 4391, "pitch": 64, "duration": 18, "velocity": 63}, {"time": 4391, "pitch": 69, "duration": 15, "velocity": 75}, {"time": 4403, "pitch": 49, "duration": 15, "velocity": 46}, {"time": 4415, "pitch": 54, "duration": 12, "velocity": 48}, {"time": 4415, "pitch": 61, "duration": 14, "velocity": 67}, {"time": 4415, "pitch": 64, "duration": 11, "velocity": 70}, {"time": 4415, "pitch": 69, "duration": 17, "velocity": 70}, {"time": 4427, "pitch": 49, "duration": 8, "velocity": 50}, {"time": 4439, "pitch": 35, "duration": 11, "velocity": 66}, {"time": 4439, "pitch": 62, "duration": 14, "velocity": 70}, {"time": 4439, "pitch": 66, "duration": 14, "velocity": 64}, {"time": 4439, "pitch": 71, "duration": 14, "velocity": 66}, {"time": 4451, "pitch": 47, "duration": 12, "velocity": 58}, {"time": 4463, "pitch": 50, "duration": 14, "velocity": 66}, {"time": 4463, "pitch": 62, "duration": 14, "velocity": 70}, {"time": 4463, "pitch": 66, "duration": 21, "velocity": 67}, {"time": 4463, "pitch": 71, "duration": 12, "velocity": 66}, {"time": 4475, "pitch": 54, "duration": 2, "velocity": 56}, {"time": 4487, "pitch": 40, "duration": 22, "velocity": 75}, {"time": 4487, "pitch": 59, "duration": 11, "velocity": 66}, {"time": 4487, "pitch": 64, "duration": 12, "velocity": 69}, {"time": 4487, "pitch": 68, "duration": 11, "velocity": 72}, {"time": 4499, "pitch": 47, "duration": 12, "velocity": 50}, {"time": 4511, "pitch": 52, "duration": 13, "velocity": 54}, {"time": 4511, "pitch": 61, "duration": 2, "velocity": 64}, {"time": 4511, "pitch": 68, "duration": 4, "velocity": 76}, {"time": 4523, "pitch": 54, "duration": 2, "velocity": 62}, {"time": 4523, "pitch": 64, "duration": 3, "velocity": 63}, {"time": 4523, "pitch": 71, "duration": 3, "velocity": 70}, {"time": 4535, "pitch": 42, "duration": 22, "velocity": 69}, {"time": 4535, "pitch": 66, "duration": 7, "velocity": 41}, {"time": 4535, "pitch": 73, "duration": 20, "velocity": 70}, {"time": 4547, "pitch": 49, "duration": 11, "velocity": 39}, {"time": 4559, "pitch": 54, "duration": 12, "velocity": 49}, {"time": 4559, "pitch": 73, "duration": 7, "velocity": 72}, {"time": 4565, "pitch": 71, "duration": 5, "velocity": 75}, {"time": 4571, "pitch": 56, "duration": 2, "velocity": 70}, {"time": 4571, "pitch": 69, "duration": 5, "velocity": 69}, {"time": 4577, "pitch": 68, "duration": 6, "velocity": 64}, {"time": 4583, "pitch": 38, "duration": 38, "velocity": 72}, {"time": 4583, "pitch": 66, "duration": 13, "velocity": 66}, {"time": 4595, "pitch": 45, "duration": 36, "velocity": 47}, {"time": 4607, "pitch": 50, "duration": 17, "velocity": 66}, {"time": 4613, "pitch": 57, "duration": 3, "velocity": 75}, {"time": 4619, "pitch": 62, "duration": 4, "velocity": 67}, {"time": 4625, "pitch": 69, "duration": 6, "velocity": 67}, {"time": 4631, "pitch": 40, "duration": 35, "velocity": 67}, {"time": 4631, "pitch": 59, "duration": 19, "velocity": 69}, {"time": 4631, "pitch": 64, "duration": 20, "velocity": 69}, {"time": 4631, "pitch": 68, "duration": 19, "velocity": 67}, {"time": 4643, "pitch": 47, "duration": 32, "velocity": 59}, {"time": 4655, "pitch": 52, "duration": 15, "velocity": 48}, {"time": 4655, "pitch": 59, "duration": 8, "velocity": 63}, {"time": 4655, "pitch": 64, "duration": 10, "velocity": 70}, {"time": 4655, "pitch": 68, "duration": 10, "velocity": 66}, {"time": 4667, "pitch": 66, "duration": 6, "velocity": 62}, {"time": 4673, "pitch": 68, "duration": 4, "velocity": 63}, {"time": 4679, "pitch": 42, "duration": 34, "velocity": 73}, {"time": 4679, "pitch": 61, "duration": 12, "velocity": 69}, {"time": 4679, "pitch": 66, "duration": 11, "velocity": 78}, {"time": 4679, "pitch": 69, "duration": 3, "velocity": 54}, {"time": 4691, "pitch": 49, "duration": 31, "velocity": 48}, {"time": 4697, "pitch": 54, "duration": 18, "velocity": 55}, {"time": 4703, "pitch": 56, "duration": 5, "velocity": 75}, {"time": 4709, "pitch": 57, "duration": 3, "velocity": 57}, {"time": 4715, "pitch": 61, "duration": 4, "velocity": 80}, {"time": 4721, "pitch": 66, "duration": 8, "velocity": 69}, {"time": 4727, "pitch": 38, "duration": 12, "velocity": 72}, {"time": 4727, "pitch": 50, "duration": 6, "velocity": 78}, {"time": 4727, "pitch": 54, "duration": 13, "velocity": 76}, {"time": 4727, "pitch": 57, "duration": 12, "velocity": 80}, {"time": 4727, "pitch": 62, "duration": 12, "velocity": 75}, {"time": 4739, "pitch": 50, "duration": 3, "velocity": 70}, {"time": 4745, "pitch": 57, "duration": 4, "velocity": 49}, {"time": 4751, "pitch": 40, "duration": 14, "velocity": 80}, {"time": 4751, "pitch": 56, "duration": 12, "velocity": 88}, {"time": 4751, "pitch": 59, "duration": 12, "velocity": 80}, {"time": 4751, "pitch": 64, "duration": 12, "velocity": 75}, {"time": 4763, "pitch": 52, "duration": 11, "velocity": 70}, {"time": 4775, "pitch": 42, "duration": 10, "velocity": 82}, {"time": 4775, "pitch": 57, "duration": 15, "velocity": 82}, {"time": 4775, "pitch": 61, "duration": 18, "velocity": 82}, {"time": 4775, "pitch": 66, "duration": 25, "velocity": 76}, {"time": 4781, "pitch": 49, "duration": 6, "velocity": 61}, {"time": 4787, "pitch": 54, "duration": 8, "velocity": 56}, {"time": 4793, "pitch": 56, "duration": 11, "velocity": 60}, {"time": 4799, "pitch": 57, "duration": 6, "velocity": 67}, {"time": 4805, "pitch": 59, "duration": 9, "velocity": 62}, {"time": 4811, "pitch": 61, "duration": 7, "velocity": 66}, {"time": 4817, "pitch": 66, "duration": 7, "velocity": 70}, {"time": 4823, "pitch": 40, "duration": 9, "velocity": 72}, {"time": 4823, "pitch": 57, "duration": 12, "velocity": 75}, {"time": 4823, "pitch": 64, "duration": 19, "velocity": 78}, {"time": 4829, "pitch": 47, "duration": 6, "velocity": 64}, {"time": 4835, "pitch": 52, "duration": 7, "velocity": 58}, {"time": 4841, "pitch": 54, "duration": 14, "velocity": 56}, {"time": 4847, "pitch": 56, "duration": 7, "velocity": 51}, {"time": 4853, "pitch": 59, "duration": 4, "velocity": 66}, {"time": 4859, "pitch": 64, "duration": 7, "velocity": 76}, {"time": 4865, "pitch": 69, "duration": 8, "velocity": 75}, {"time": 4871, "pitch": 38, "duration": 16, "velocity": 73}, {"time": 4871, "pitch": 57, "duration": 11, "velocity": 85}, {"time": 4871, "pitch": 62, "duration": 12, "velocity": 72}, {"time": 4871, "pitch": 66, "duration": 12, "velocity": 73}, {"time": 4877, "pitch": 45, "duration": 17, "velocity": 66}, {"time": 4883, "pitch": 50, "duration": 8, "velocity": 60}, {"time": 4889, "pitch": 69, "duration": 7, "velocity": 73}, {"time": 4895, "pitch": 40, "duration": 9, "velocity": 70}, {"time": 4895, "pitch": 59, "duration": 16, "velocity": 95}, {"time": 4895, "pitch": 64, "duration": 18, "velocity": 93}, {"time": 4895, "pitch": 68, "duration": 23, "velocity": 91}, {"time": 4901, "pitch": 47, "duration": 6, "velocity": 63}, {"time": 4907, "pitch": 52, "duration": 11, "velocity": 76}, {"time": 4913, "pitch": 54, "duration": 6, "velocity": 62}, {"time": 4919, "pitch": 45, "duration": 9, "velocity": 72}, {"time": 4919, "pitch": 61, "duration": 8, "velocity": 72}, {"time": 4919, "pitch": 64, "duration": 9, "velocity": 69}, {"time": 4919, "pitch": 69, "duration": 10, "velocity": 80}, {"time": 4925, "pitch": 52, "duration": 7, "velocity": 70}, {"time": 4931, "pitch": 57, "duration": 7, "velocity": 66}, {"time": 4937, "pitch": 59, "duration": 13, "velocity": 61}, {"time": 4943, "pitch": 61, "duration": 6, "velocity": 73}, {"time": 4949, "pitch": 81, "duration": 4, "velocity": 72}, {"time": 4955, "pitch": 80, "duration": 4, "velocity": 76}, {"time": 4961, "pitch": 76, "duration": 5, "velocity": 73}, {"time": 4967, "pitch": 42, "duration": 9, "velocity": 72}, {"time": 4967, "pitch": 61, "duration": 23, "velocity": 80}, {"time": 4967, "pitch": 66, "duration": 23, "velocity": 80}, {"time": 4967, "pitch": 69, "duration": 22, "velocity": 78}, {"time": 4973, "pitch": 49, "duration": 5, "velocity": 64}, {"time": 4979, "pitch": 54, "duration": 7, "velocity": 54}, {"time": 4985, "pitch": 56, "duration": 13, "velocity": 67}, {"time": 4991, "pitch": 57, "duration": 7, "velocity": 69}, {"time": 4997, "pitch": 61, "duration": 4, "velocity": 80}, {"time": 5003, "pitch": 66, "duration": 8, "velocity": 62}, {"time": 5009, "pitch": 69, "duration": 3, "velocity": 75}, {"time": 5015, "pitch": 40, "duration": 9, "velocity": 69}, {"time": 5015, "pitch": 59, "duration": 18, "velocity": 73}, {"time": 5015, "pitch": 64, "duration": 25, "velocity": 70}, {"time": 5015, "pitch": 68, "duration": 25, "velocity": 57}, {"time": 5021, "pitch": 47, "duration": 6, "velocity": 66}, {"time": 5027, "pitch": 52, "duration": 7, "velocity": 61}, {"time": 5033, "pitch": 54, "duration": 12, "velocity": 62}, {"time": 5039, "pitch": 56, "duration": 6, "velocity": 73}, {"time": 5045, "pitch": 59, "duration": 4, "velocity": 69}, {"time": 5051, "pitch": 64, "duration": 8, "velocity": 76}, {"time": 5057, "pitch": 69, "duration": 4, "velocity": 70}, {"time": 5063, "pitch": 38, "duration": 19, "velocity": 70}, {"time": 5063, "pitch": 57, "duration": 10, "velocity": 78}, {"time": 5063, "pitch": 62, "duration": 17, "velocity": 80}, {"time": 5063, "pitch": 66, "duration": 15, "velocity": 88}, {"time": 5069, "pitch": 45, "duration": 32, "velocity": 76}, {"time": 5075, "pitch": 50, "duration": 10, "velocity": 59}, {"time": 5078, "pitch": 57, "duration": 3, "velocity": 58}, {"time": 5084, "pitch": 57, "duration": 9, "velocity": 78}, {"time": 5084, "pitch": 62, "duration": 9, "velocity": 82}, {"time": 5084, "pitch": 66, "duration": 9, "velocity": 78}, {"time": 5090, "pitch": 38, "duration": 9, "velocity": 32}, {"time": 5093, "pitch": 50, "duration": 7, "velocity": 61}, {"time": 5099, "pitch": 57, "duration": 5, "velocity": 78}, {"time": 5099, "pitch": 62, "duration": 3, "velocity": 54}, {"time": 5105, "pitch": 62, "duration": 2, "velocity": 49}, {"time": 5105, "pitch": 66, "duration": 3, "velocity": 73}, {"time": 5111, "pitch": 37, "duration": 5, "velocity": 70}, {"time": 5111, "pitch": 59, "duration": 4, "velocity": 78}, {"time": 5111, "pitch": 61, "duration": 3, "velocity": 75}, {"time": 5111, "pitch": 66, "duration": 19, "velocity": 91}, {"time": 5111, "pitch": 68, "duration": 17, "velocity": 80}, {"time": 5117, "pitch": 49, "duration": 7, "velocity": 66}, {"time": 5123, "pitch": 52, "duration": 3, "velocity": 62}, {"time": 5123, "pitch": 54, "duration": 14, "velocity": 49}, {"time": 5129, "pitch": 56, "duration": 8, "velocity": 70}, {"time": 5135, "pitch": 61, "duration": 4, "velocity": 88}, {"time": 5141, "pitch": 66, "duration": 7, "velocity": 91}, {"time": 5147, "pitch": 68, "duration": 6, "velocity": 75}, {"time": 5153, "pitch": 71, "duration": 2, "velocity": 45}, {"time": 5153, "pitch": 73, "duration": 1, "velocity": 50}, {"time": 5159, "pitch": 42, "duration": 10, "velocity": 76}, {"time": 5159, "pitch": 61, "duration": 12, "velocity": 66}, {"time": 5159, "pitch": 69, "duration": 3, "velocity": 73}, {"time": 5159, "pitch": 71, "duration": 3, "velocity": 70}, {"time": 5165, "pitch": 49, "duration": 6, "velocity": 67}, {"time": 5165, "pitch": 69, "duration": 5, "velocity": 48}, {"time": 5171, "pitch": 54, "duration": 8, "velocity": 59}, {"time": 5177, "pitch": 56, "duration": 16, "velocity": 54}, {"time": 5177, "pitch": 61, "duration": 2, "velocity": 80}, {"time": 5177, "pitch": 69, "duration": 2, "velocity": 78}, {"time": 5183, "pitch": 61, "duration": 8, "velocity": 85}, {"time": 5183, "pitch": 69, "duration": 7, "velocity": 88}, {"time": 5189, "pitch": 57, "duration": 4, "velocity": 76}, {"time": 5189, "pitch": 68, "duration": 5, "velocity": 72}, {"time": 5195, "pitch": 66, "duration": 11, "velocity": 93}, {"time": 5207, "pitch": 40, "duration": 7, "velocity": 72}, {"time": 5207, "pitch": 59, "duration": 10, "velocity": 64}, {"time": 5207, "pitch": 64, "duration": 12, "velocity": 75}, {"time": 5207, "pitch": 68, "duration": 15, "velocity": 72}, {"time": 5213, "pitch": 47, "duration": 6, "velocity": 67}, {"time": 5219, "pitch": 52, "duration": 7, "velocity": 59}, {"time": 5225, "pitch": 54, "duration": 17, "velocity": 55}, {"time": 5231, "pitch": 56, "duration": 10, "velocity": 70}, {"time": 5237, "pitch": 69, "duration": 3, "velocity": 85}, {"time": 5243, "pitch": 71, "duration": 5, "velocity": 91}, {"time": 5249, "pitch": 76, "duration": 4, "velocity": 60}, {"time": 5255, "pitch": 50, "duration": 14, "velocity": 70}, {"time": 5255, "pitch": 66, "duration": 13, "velocity": 66}, {"time": 5255, "pitch": 73, "duration": 15, "velocity": 69}, {"time": 5261, "pitch": 57, "duration": 14, "velocity": 66}, {"time": 5267, "pitch": 62, "duration": 7, "velocity": 78}, {"time": 5273, "pitch": 66, "duration": 2, "velocity": 73}, {"time": 5273, "pitch": 74, "duration": 11, "velocity": 69}, {"time": 5279, "pitch": 52, "duration": 12, "velocity": 69}, {"time": 5279, "pitch": 64, "duration": 9, "velocity": 91}, {"time": 5279, "pitch": 73, "duration": 10, "velocity": 62}, {"time": 5285, "pitch": 59, "duration": 6, "velocity": 69}, {"time": 5291, "pitch": 69, "duration": 6, "velocity": 85}, {"time": 5297, "pitch": 71, "duration": 4, "velocity": 80}, {"time": 5303, "pitch": 45, "duration": 42, "velocity": 73}, {"time": 5303, "pitch": 64, "duration": 9, "velocity": 63}, {"time": 5303, "pitch": 69, "duration": 8, "velocity": 78}, {"time": 5303, "pitch": 73, "duration": 8, "velocity": 69}, {"time": 5309, "pitch": 52, "duration": 27, "velocity": 67}, {"time": 5315, "pitch": 57, "duration": 7, "velocity": 58}, {"time": 5321, "pitch": 61, "duration": 3, "velocity": 64}, {"time": 5321, "pitch": 69, "duration": 4, "velocity": 66}, {"time": 5327, "pitch": 59, "duration": 6, "velocity": 82}, {"time": 5327, "pitch": 68, "duration": 13, "velocity": 78}, {"time": 5327, "pitch": 69, "duration": 1, "velocity": 43}, {"time": 5333, "pitch": 57, "duration": 8, "velocity": 48}, {"time": 5339, "pitch": 52, "duration": 4, "velocity": 73}, {"time": 5339, "pitch": 61, "duration": 4, "velocity": 62}, {"time": 5339, "pitch": 69, "duration": 7, "velocity": 76}, {"time": 5345, "pitch": 66, "duration": 4, "velocity": 61}, {"time": 5351, "pitch": 42, "duration": 8, "velocity": 70}, {"time": 5351, "pitch": 61, "duration": 19, "velocity": 76}, {"time": 5351, "pitch": 66, "duration": 26, "velocity": 78}, {"time": 5351, "pitch": 69, "duration": 21, "velocity": 78}, {"time": 5357, "pitch": 49, "duration": 5, "velocity": 62}, {"time": 5363, "pitch": 54, "duration": 7, "velocity": 63}, {"time": 5369, "pitch": 56, "duration": 12, "velocity": 50}, {"time": 5375, "pitch": 57, "duration": 5, "velocity": 64}, {"time": 5381, "pitch": 61, "duration": 3, "velocity": 95}, {"time": 5387, "pitch": 66, "duration": 6, "velocity": 80}, {"time": 5393, "pitch": 69, "duration": 4, "velocity": 80}, {"time": 5399, "pitch": 40, "duration": 10, "velocity": 57}, {"time": 5399, "pitch": 59, "duration": 24, "velocity": 76}, {"time": 5399, "pitch": 64, "duration": 25, "velocity": 85}, {"time": 5399, "pitch": 68, "duration": 25, "velocity": 91}, {"time": 5405, "pitch": 47, "duration": 5, "velocity": 41}, {"time": 5411, "pitch": 52, "duration": 8, "velocity": 59}, {"time": 5417, "pitch": 54, "duration": 12, "velocity": 56}, {"time": 5423, "pitch": 56, "duration": 6, "velocity": 76}, {"time": 5429, "pitch": 59, "duration": 3, "velocity": 80}, {"time": 5435, "pitch": 64, "duration": 8, "velocity": 82}, {"time": 5441, "pitch": 69, "duration": 6, "velocity": 66}, {"time": 5447, "pitch": 38, "duration": 8, "velocity": 67}, {"time": 5447, "pitch": 57, "duration": 23, "velocity": 78}, {"time": 5447, "pitch": 62, "duration": 24, "velocity": 91}, {"time": 5447, "pitch": 66, "duration": 23, "velocity": 85}, {"time": 5453, "pitch": 45, "duration": 5, "velocity": 69}, {"time": 5459, "pitch": 50, "duration": 7, "velocity": 60}, {"time": 5465, "pitch": 52, "duration": 9, "velocity": 61}, {"time": 5471, "pitch": 54, "duration": 4, "velocity": 76}, {"time": 5477, "pitch": 57, "duration": 3, "velocity": 85}, {"time": 5483, "pitch": 62, "duration": 5, "velocity": 91}, {"time": 5489, "pitch": 66, "duration": 7, "velocity": 70}, {"time": 5495, "pitch": 49, "duration": 44, "velocity": 67}, {"time": 5495, "pitch": 68, "duration": 10, "velocity": 82}, {"time": 5501, "pitch": 54, "duration": 70, "velocity": 61}, {"time": 5507, "pitch": 56, "duration": 62, "velocity": 52}, {"time": 5513, "pitch": 61, "duration": 26, "velocity": 73}, {"time": 5519, "pitch": 66, "duration": 5, "velocity": 72}, {"time": 5525, "pitch": 68, "duration": 2, "velocity": 69}, {"time": 5531, "pitch": 73, "duration": 7, "velocity": 82}, {"time": 5537, "pitch": 78, "duration": 5, "velocity": 69}, {"time": 5543, "pitch": 49, "duration": 30, "velocity": 45}, {"time": 5543, "pitch": 73, "duration": 28, "velocity": 72}, {"time": 5543, "pitch": 80, "duration": 26, "velocity": 67}, {"time": 5591, "pitch": 42, "duration": 95, "velocity": 75}, {"time": 5591, "pitch": 57, "duration": 14, "velocity": 75}, {"time": 5591, "pitch": 61, "duration": 13, "velocity": 73}, {"time": 5603, "pitch": 49, "duration": 13, "velocity": 40}, {"time": 5615, "pitch": 54, "duration": 12, "velocity": 46}, {"time": 5615, "pitch": 56, "duration": 12, "velocity": 64}, {"time": 5615, "pitch": 57, "duration": 13, "velocity": 69}, {"time": 5615, "pitch": 61, "duration": 12, "velocity": 69}, {"time": 5627, "pitch": 49, "duration": 60, "velocity": 43}, {"time": 5639, "pitch": 54, "duration": 21, "velocity": 38}, {"time": 5639, "pitch": 56, "duration": 27, "velocity": 43}, {"time": 5639, "pitch": 57, "duration": 27, "velocity": 51}, {"time": 5639, "pitch": 61, "duration": 27, "velocity": 44}, {"time": 5666, "pitch": 54, "duration": 21, "velocity": 33}, {"time": 5687, "pitch": 42, "duration": 10, "velocity": 67}, {"time": 5687, "pitch": 69, "duration": 18, "velocity": 72}, {"time": 5693, "pitch": 49, "duration": 5, "velocity": 47}, {"time": 5699, "pitch": 54, "duration": 7, "velocity": 44}, {"time": 5705, "pitch": 56, "duration": 13, "velocity": 58}, {"time": 5711, "pitch": 57, "duration": 6, "velocity": 63}, {"time": 5717, "pitch": 61, "duration": 3, "velocity": 69}, {"time": 5723, "pitch": 66, "duration": 5, "velocity": 73}, {"time": 5729, "pitch": 69, "duration": 5, "velocity": 73}, {"time": 5735, "pitch": 40, "duration": 8, "velocity": 70}, {"time": 5735, "pitch": 68, "duration": 24, "velocity": 78}, {"time": 5741, "pitch": 47, "duration": 5, "velocity": 53}, {"time": 5747, "pitch": 52, "duration": 7, "velocity": 42}, {"time": 5753, "pitch": 54, "duration": 11, "velocity": 59}, {"time": 5759, "pitch": 56, "duration": 5, "velocity": 66}, {"time": 5765, "pitch": 59, "duration": 3, "velocity": 70}, {"time": 5771, "pitch": 64, "duration": 5, "velocity": 76}, {"time": 5777, "pitch": 69, "duration": 14, "velocity": 72}, {"time": 5783, "pitch": 38, "duration": 14, "velocity": 72}, {"time": 5783, "pitch": 66, "duration": 8, "velocity": 73}, {"time": 5789, "pitch": 45, "duration": 19, "velocity": 60}, {"time": 5789, "pitch": 57, "duration": 4, "velocity": 67}, {"time": 5795, "pitch": 50, "duration": 6, "velocity": 44}, {"time": 5795, "pitch": 62, "duration": 6, "velocity": 70}, {"time": 5801, "pitch": 69, "duration": 7, "velocity": 72}, {"time": 5807, "pitch": 40, "duration": 12, "velocity": 72}, {"time": 5807, "pitch": 68, "duration": 7, "velocity": 67}, {"time": 5813, "pitch": 47, "duration": 8, "velocity": 63}, {"time": 5813, "pitch": 59, "duration": 8, "velocity": 62}, {"time": 5819, "pitch": 52, "duration": 10, "velocity": 60}, {"time": 5819, "pitch": 64, "duration": 6, "velocity": 70}, {"time": 5825, "pitch": 68, "duration": 5, "velocity": 66}, {"time": 5831, "pitch": 45, "duration": 8, "velocity": 67}, {"time": 5831, "pitch": 61, "duration": 3, "velocity": 57}, {"time": 5831, "pitch": 64, "duration": 8, "velocity": 64}, {"time": 5831, "pitch": 69, "duration": 10, "velocity": 75}, {"time": 5837, "pitch": 52, "duration": 6, "velocity": 64}, {"time": 5843, "pitch": 57, "duration": 7, "velocity": 66}, {"time": 5849, "pitch": 59, "duration": 10, "velocity": 54}, {"time": 5855, "pitch": 61, "duration": 4, "velocity": 73}, {"time": 5855, "pitch": 81, "duration": 7, "velocity": 80}, {"time": 5861, "pitch": 80, "duration": 4, "velocity": 59}, {"time": 5867, "pitch": 76, "duration": 5, "velocity": 64}, {"time": 5873, "pitch": 73, "duration": 8, "velocity": 70}, {"time": 5879, "pitch": 42, "duration": 9, "velocity": 70}, {"time": 5879, "pitch": 81, "duration": 9, "velocity": 72}, {"time": 5885, "pitch": 49, "duration": 5, "velocity": 67}, {"time": 5891, "pitch": 54, "duration": 8, "velocity": 50}, {"time": 5897, "pitch": 56, "duration": 13, "velocity": 66}, {"time": 5903, "pitch": 57, "duration": 7, "velocity": 69}, {"time": 5909, "pitch": 61, "duration": 3, "velocity": 67}, {"time": 5915, "pitch": 66, "duration": 5, "velocity": 82}, {"time": 5921, "pitch": 69, "duration": 4, "velocity": 63}, {"time": 5927, "pitch": 40, "duration": 10, "velocity": 73}, {"time": 5927, "pitch": 59, "duration": 17, "velocity": 66}, {"time": 5927, "pitch": 64, "duration": 21, "velocity": 72}, {"time": 5927, "pitch": 68, "duration": 21, "velocity": 63}, {"time": 5933, "pitch": 49, "duration": 5, "velocity": 53}, {"time": 5939, "pitch": 52, "duration": 7, "velocity": 69}, {"time": 5945, "pitch": 54, "duration": 9, "velocity": 40}, {"time": 5951, "pitch": 59, "duration": 3, "velocity": 75}, {"time": 5957, "pitch": 64, "duration": 3, "velocity": 82}, {"time": 5963, "pitch": 66, "duration": 5, "velocity": 78}, {"time": 5969, "pitch": 69, "duration": 17, "velocity": 73}, {"time": 5975, "pitch": 38, "duration": 10, "velocity": 72}, {"time": 5975, "pitch": 57, "duration": 14, "velocity": 93}, {"time": 5975, "pitch": 62, "duration": 18, "velocity": 88}, {"time": 5975, "pitch": 66, "duration": 13, "velocity": 76}, {"time": 5981, "pitch": 45, "duration": 6, "velocity": 75}, {"time": 5987, "pitch": 50, "duration": 7, "velocity": 95}, {"time": 5993, "pitch": 52, "duration": 14, "velocity": 72}, {"time": 5999, "pitch": 57, "duration": 6, "velocity": 95}, {"time": 5999, "pitch": 62, "duration": 7, "velocity": 101}, {"time": 5999, "pitch": 66, "duration": 7, "velocity": 103}, {"time": 6002, "pitch": 54, "duration": 3, "velocity": 91}, {"time": 6011, "pitch": 57, "duration": 5, "velocity": 88}, {"time": 6017, "pitch": 66, "duration": 5, "velocity": 63}, {"time": 6023, "pitch": 37, "duration": 4, "velocity": 80}, {"time": 6023, "pitch": 59, "duration": 6, "velocity": 93}, {"time": 6023, "pitch": 61, "duration": 3, "velocity": 93}, {"time": 6023, "pitch": 66, "duration": 19, "velocity": 75}, {"time": 6023, "pitch": 68, "duration": 17, "velocity": 75}, {"time": 6029, "pitch": 49, "duration": 7, "velocity": 75}, {"time": 6035, "pitch": 54, "duration": 10, "velocity": 93}, {"time": 6041, "pitch": 56, "duration": 4, "velocity": 76}, {"time": 6047, "pitch": 61, "duration": 4, "velocity": 95}, {"time": 6047, "pitch": 66, "duration": 2, "velocity": 99}, {"time": 6053, "pitch": 61, "duration": 1, "velocity": 40}, {"time": 6053, "pitch": 66, "duration": 4, "velocity": 99}, {"time": 6059, "pitch": 37, "duration": 6, "velocity": 78}, {"time": 6059, "pitch": 61, "duration": 1, "velocity": 48}, {"time": 6059, "pitch": 68, "duration": 6, "velocity": 59}, {"time": 6065, "pitch": 49, "duration": 4, "velocity": 78}, {"time": 6065, "pitch": 61, "duration": 1, "velocity": 51}, {"time": 6065, "pitch": 65, "duration": 4, "velocity": 103}, {"time": 6071, "pitch": 42, "duration": 9, "velocity": 76}, {"time": 6071, "pitch": 61, "duration": 8, "velocity": 95}, {"time": 6071, "pitch": 66, "duration": 9, "velocity": 99}, {"time": 6071, "pitch": 69, "duration": 9, "velocity": 91}, {"time": 6077, "pitch": 49, "duration": 6, "velocity": 75}, {"time": 6083, "pitch": 54, "duration": 7, "velocity": 78}, {"time": 6089, "pitch": 56, "duration": 17, "velocity": 69}, {"time": 6089, "pitch": 73, "duration": 2, "velocity": 88}, {"time": 6089, "pitch": 80, "duration": 1, "velocity": 70}, {"time": 6089, "pitch": 81, "duration": 2, "velocity": 67}, {"time": 6095, "pitch": 73, "duration": 3, "velocity": 91}, {"time": 6095, "pitch": 81, "duration": 5, "velocity": 91}, {"time": 6101, "pitch": 57, "duration": 3, "velocity": 76}, {"time": 6101, "pitch": 71, "duration": 3, "velocity": 61}, {"time": 6101, "pitch": 80, "duration": 4, "velocity": 70}, {"time": 6107, "pitch": 78, "duration": 6, "velocity": 101}, {"time": 6113, "pitch": 80, "duration": 1, "velocity": 51}, {"time": 6113, "pitch": 81, "duration": 7, "velocity": 73}, {"time": 6119, "pitch": 40, "duration": 8, "velocity": 70}, {"time": 6119, "pitch": 71, "duration": 14, "velocity": 88}, {"time": 6119, "pitch": 76, "duration": 14, "velocity": 91}, {"time": 6119, "pitch": 80, "duration": 14, "velocity": 78}, {"time": 6125, "pitch": 47, "duration": 5, "velocity": 66}, {"time": 6131, "pitch": 52, "duration": 7, "velocity": 66}, {"time": 6137, "pitch": 54, "duration": 12, "velocity": 58}, {"time": 6143, "pitch": 56, "duration": 5, "velocity": 73}, {"time": 6146, "pitch": 59, "duration": 4, "velocity": 88}, {"time": 6149, "pitch": 62, "duration": 5, "velocity": 67}, {"time": 6152, "pitch": 64, "duration": 6, "velocity": 49}, {"time": 6155, "pitch": 66, "duration": 3, "velocity": 35}, {"time": 6155, "pitch": 68, "duration": 2, "velocity": 53}, {"time": 6158, "pitch": 69, "duration": 5, "velocity": 78}, {"time": 6161, "pitch": 66, "duration": 19, "velocity": 72}, {"time": 6167, "pitch": 38, "duration": 17, "velocity": 73}, {"time": 6167, "pitch": 57, "duration": 11, "velocity": 101}, {"time": 6167, "pitch": 62, "duration": 13, "velocity": 93}, {"time": 6173, "pitch": 45, "duration": 16, "velocity": 66}, {"time": 6179, "pitch": 50, "duration": 9, "velocity": 72}, {"time": 6185, "pitch": 57, "duration": 3, "velocity": 70}, {"time": 6185, "pitch": 69, "duration": 6, "velocity": 40}, {"time": 6191, "pitch": 40, "duration": 13, "velocity": 78}, {"time": 6191, "pitch": 59, "duration": 12, "velocity": 95}, {"time": 6191, "pitch": 64, "duration": 14, "velocity": 85}, {"time": 6191, "pitch": 68, "duration": 14, "velocity": 78}, {"time": 6197, "pitch": 47, "duration": 8, "velocity": 69}, {"time": 6203, "pitch": 52, "duration": 8, "velocity": 85}, {"time": 6209, "pitch": 66, "duration": 5, "velocity": 38}, {"time": 6212, "pitch": 68, "duration": 3, "velocity": 66}, {"time": 6215, "pitch": 45, "duration": 11, "velocity": 88}, {"time": 6215, "pitch": 61, "duration": 5, "velocity": 82}, {"time": 6215, "pitch": 64, "duration": 7, "velocity": 82}, {"time": 6215, "pitch": 69, "duration": 8, "velocity": 80}, {"time": 6221, "pitch": 52, "duration": 6, "velocity": 62}, {"time": 6227, "pitch": 57, "duration": 7, "velocity": 78}, {"time": 6233, "pitch": 59, "duration": 13, "velocity": 57}, {"time": 6239, "pitch": 61, "duration": 6, "velocity": 85}, {"time": 6245, "pitch": 73, "duration": 4, "velocity": 88}, {"time": 6245, "pitch": 81, "duration": 7, "velocity": 76}, {"time": 6251, "pitch": 80, "duration": 5, "velocity": 70}, {"time": 6257, "pitch": 78, "duration": 3, "velocity": 78}, {"time": 6263, "pitch": 42, "duration": 7, "velocity": 70}, {"time": 6263, "pitch": 61, "duration": 22, "velocity": 80}, {"time": 6263, "pitch": 66, "duration": 25, "velocity": 80}, {"time": 6263, "pitch": 69, "duration": 25, "velocity": 80}, {"time": 6269, "pitch": 49, "duration": 5, "velocity": 72}, {"time": 6275, "pitch": 54, "duration": 8, "velocity": 55}, {"time": 6281, "pitch": 56, "duration": 13, "velocity": 67}, {"time": 6287, "pitch": 57, "duration": 7, "velocity": 78}, {"time": 6293, "pitch": 61, "duration": 4, "velocity": 95}, {"time": 6299, "pitch": 66, "duration": 5, "velocity": 91}, {"time": 6305, "pitch": 69, "duration": 28, "velocity": 82}, {"time": 6311, "pitch": 40, "duration": 8, "velocity": 70}, {"time": 6311, "pitch": 59, "duration": 21, "velocity": 88}, {"time": 6311, "pitch": 64, "duration": 22, "velocity": 88}, {"time": 6311, "pitch": 68, "duration": 28, "velocity": 76}, {"time": 6317, "pitch": 47, "duration": 5, "velocity": 69}, {"time": 6323, "pitch": 52, "duration": 8, "velocity": 45}, {"time": 6329, "pitch": 54, "duration": 13, "velocity": 52}, {"time": 6335, "pitch": 56, "duration": 6, "velocity": 52}, {"time": 6341, "pitch": 59, "duration": 4, "velocity": 88}, {"time": 6347, "pitch": 64, "duration": 8, "velocity": 88}, {"time": 6353, "pitch": 66, "duration": 4, "velocity": 69}, {"time": 6359, "pitch": 38, "duration": 8, "velocity": 73}, {"time": 6359, "pitch": 57, "duration": 24, "velocity": 80}, {"time": 6359, "pitch": 62, "duration": 24, "velocity": 91}, {"time": 6359, "pitch": 66, "duration": 26, "velocity": 80}, {"time": 6359, "pitch": 69, "duration": 24, "velocity": 78}, {"time": 6365, "pitch": 45, "duration": 6, "velocity": 73}, {"time": 6371, "pitch": 50, "duration": 7, "velocity": 73}, {"time": 6377, "pitch": 52, "duration": 9, "velocity": 72}, {"time": 6383, "pitch": 54, "duration": 3, "velocity": 91}, {"time": 6389, "pitch": 57, "duration": 3, "velocity": 88}, {"time": 6395, "pitch": 62, "duration": 6, "velocity": 75}, {"time": 6401, "pitch": 66, "duration": 3, "velocity": 69}, {"time": 6405, "pitch": 59, "duration": 3, "velocity": 45}, {"time": 6405, "pitch": 61, "duration": 3, "velocity": 48}, {"time": 6407, "pitch": 37, "duration": 5, "velocity": 66}, {"time": 6407, "pitch": 68, "duration": 18, "velocity": 91}, {"time": 6412, "pitch": 49, "duration": 8, "velocity": 59}, {"time": 6418, "pitch": 54, "duration": 18, "velocity": 95}, {"time": 6424, "pitch": 56, "duration": 12, "velocity": 72}, {"time": 6430, "pitch": 61, "duration": 8, "velocity": 85}, {"time": 6436, "pitch": 66, "duration": 8, "velocity": 101}, {"time": 6442, "pitch": 68, "duration": 9, "velocity": 78}, {"time": 6449, "pitch": 73, "duration": 2, "velocity": 36}, {"time": 6454, "pitch": 65, "duration": 30, "velocity": 101}, {"time": 6454, "pitch": 61, "duration": 34, "velocity": 76}, {"time": 6454, "pitch": 73, "duration": 31, "velocity": 85}, {"time": 6454, "pitch": 37, "duration": 30, "velocity": 70}, {"time": 6455, "pitch": 49, "duration": 33, "velocity": 72}, {"time": 6503, "pitch": 66, "duration": 16, "velocity": 82}, {"time": 6503, "pitch": 61, "duration": 14, "velocity": 76}, {"time": 6503, "pitch": 69, "duration": 16, "velocity": 66}, {"time": 6503, "pitch": 42, "duration": 22, "velocity": 67}, {"time": 6513, "pitch": 49, "duration": 13, "velocity": 56}, {"time": 6526, "pitch": 66, "duration": 9, "velocity": 64}, {"time": 6526, "pitch": 69, "duration": 9, "velocity": 69}, {"time": 6526, "pitch": 61, "duration": 6, "velocity": 64}, {"time": 6526, "pitch": 54, "duration": 17, "velocity": 44}, {"time": 6538, "pitch": 56, "duration": 39, "velocity": 52}, {"time": 6551, "pitch": 90, "duration": 27, "velocity": 62}, {"time": 6551, "pitch": 78, "duration": 26, "velocity": 56}, {"time": 6551, "pitch": 57, "duration": 27, "velocity": 61}, {"time": 6587, "pitch": 92, "duration": 11, "velocity": 67}, {"time": 6599, "pitch": 54, "duration": 35, "velocity": 70}, {"time": 6599, "pitch": 93, "duration": 10, "velocity": 63}, {"time": 6611, "pitch": 61, "duration": 26, "velocity": 42}, {"time": 6623, "pitch": 66, "duration": 10, "velocity": 48}, {"time": 6629, "pitch": 81, "duration": 5, "velocity": 46}, {"time": 6635, "pitch": 85, "duration": 3, "velocity": 54}, {"time": 6641, "pitch": 93, "duration": 6, "velocity": 82}, {"time": 6647, "pitch": 52, "duration": 49, "velocity": 69}, {"time": 6647, "pitch": 92, "duration": 19, "velocity": 76}, {"time": 6659, "pitch": 61, "duration": 20, "velocity": 49}, {"time": 6671, "pitch": 64, "duration": 9, "velocity": 46}, {"time": 6677, "pitch": 81, "duration": 5, "velocity": 49}, {"time": 6683, "pitch": 83, "duration": 3, "velocity": 44}, {"time": 6689, "pitch": 90, "duration": 6, "velocity": 66}, {"time": 6695, "pitch": 50, "duration": 36, "velocity": 72}, {"time": 6695, "pitch": 88, "duration": 23, "velocity": 58}, {"time": 6707, "pitch": 57, "duration": 22, "velocity": 32}, {"time": 6719, "pitch": 61, "duration": 9, "velocity": 53}, {"time": 6725, "pitch": 80, "duration": 3, "velocity": 57}, {"time": 6731, "pitch": 86, "duration": 4, "velocity": 70}, {"time": 6737, "pitch": 85, "duration": 4, "velocity": 76}, {"time": 6743, "pitch": 47, "duration": 20, "velocity": 73}, {"time": 6743, "pitch": 86, "duration": 26, "velocity": 64}, {"time": 6755, "pitch": 54, "duration": 11, "velocity": 38}, {"time": 6767, "pitch": 59, "duration": 15, "velocity": 50}, {"time": 6773, "pitch": 78, "duration": 2, "velocity": 85}, {"time": 6773, "pitch": 81, "duration": 2, "velocity": 97}, {"time": 6779, "pitch": 61, "duration": 12, "velocity": 60}, {"time": 6779, "pitch": 78, "duration": 3, "velocity": 80}, {"time": 6779, "pitch": 81, "duration": 3, "velocity": 93}, {"time": 6785, "pitch": 66, "duration": 8, "velocity": 60}, {"time": 6785, "pitch": 80, "duration": 2, "velocity": 73}, {"time": 6785, "pitch": 83, "duration": 4, "velocity": 78}, {"time": 6791, "pitch": 54, "duration": 40, "velocity": 70}, {"time": 6791, "pitch": 68, "duration": 4, "velocity": 66}, {"time": 6791, "pitch": 69, "duration": 10, "velocity": 51}, {"time": 6791, "pitch": 81, "duration": 23, "velocity": 91}, {"time": 6791, "pitch": 85, "duration": 22, "velocity": 76}, {"time": 6803, "pitch": 61, "duration": 18, "velocity": 44}, {"time": 6815, "pitch": 66, "duration": 12, "velocity": 51}, {"time": 6815, "pitch": 68, "duration": 19, "velocity": 60}, {"time": 6815, "pitch": 71, "duration": 19, "velocity": 61}, {"time": 6821, "pitch": 81, "duration": 5, "velocity": 46}, {"time": 6824, "pitch": 61, "duration": 12, "velocity": 44}, {"time": 6827, "pitch": 85, "duration": 3, "velocity": 54}, {"time": 6833, "pitch": 78, "duration": 4, "velocity": 95}, {"time": 6833, "pitch": 81, "duration": 5, "velocity": 78}, {"time": 6839, "pitch": 52, "duration": 46, "velocity": 61}, {"time": 6839, "pitch": 68, "duration": 15, "velocity": 70}, {"time": 6839, "pitch": 71, "duration": 18, "velocity": 69}, {"time": 6839, "pitch": 76, "duration": 24, "velocity": 91}, {"time": 6839, "pitch": 80, "duration": 24, "velocity": 80}, {"time": 6851, "pitch": 61, "duration": 21, "velocity": 48}, {"time": 6857, "pitch": 64, "duration": 15, "velocity": 54}, {"time": 6863, "pitch": 66, "duration": 7, "velocity": 61}, {"time": 6869, "pitch": 68, "duration": 4, "velocity": 61}, {"time": 6869, "pitch": 81, "duration": 5, "velocity": 49}, {"time": 6875, "pitch": 69, "duration": 5, "velocity": 60}, {"time": 6875, "pitch": 83, "duration": 3, "velocity": 44}, {"time": 6881, "pitch": 71, "duration": 6, "velocity": 57}, {"time": 6881, "pitch": 76, "duration": 4, "velocity": 95}, {"time": 6881, "pitch": 80, "duration": 4, "velocity": 72}, {"time": 6887, "pitch": 50, "duration": 40, "velocity": 58}, {"time": 6887, "pitch": 66, "duration": 14, "velocity": 63}, {"time": 6887, "pitch": 69, "duration": 14, "velocity": 70}, {"time": 6887, "pitch": 74, "duration": 32, "velocity": 91}, {"time": 6887, "pitch": 78, "duration": 32, "velocity": 80}, {"time": 6899, "pitch": 57, "duration": 18, "velocity": 38}, {"time": 6911, "pitch": 62, "duration": 12, "velocity": 47}, {"time": 6911, "pitch": 64, "duration": 13, "velocity": 59}, {"time": 6911, "pitch": 66, "duration": 14, "velocity": 58}, {"time": 6911, "pitch": 69, "duration": 15, "velocity": 63}, {"time": 6917, "pitch": 80, "duration": 3, "velocity": 57}, {"time": 6923, "pitch": 57, "duration": 8, "velocity": 42}, {"time": 6935, "pitch": 37, "duration": 43, "velocity": 70}, {"time": 6935, "pitch": 49, "duration": 43, "velocity": 63}, {"time": 6935, "pitch": 65, "duration": 39, "velocity": 70}, {"time": 6935, "pitch": 68, "duration": 43, "velocity": 69}, {"time": 6935, "pitch": 73, "duration": 20, "velocity": 59}, {"time": 6935, "pitch": 73, "duration": 20, "velocity": 70}, {"time": 6948, "pitch": 61, "duration": 12, "velocity": 71}, {"time": 6959, "pitch": 73, "duration": 6, "velocity": 76}, {"time": 6959, "pitch": 65, "duration": 15, "velocity": 75}, {"time": 6971, "pitch": 68, "duration": 7, "velocity": 81}, {"time": 6982, "pitch": 73, "duration": 7, "velocity": 81}, {"time": 6994, "pitch": 77, "duration": 12, "velocity": 82}, {"time": 7005, "pitch": 80, "duration": 9, "velocity": 83}, {"time": 7016, "pitch": 85, "duration": 13, "velocity": 87}, {"time": 7029, "pitch": 89, "duration": 19, "velocity": 98}, {"time": 7079, "pitch": 42, "duration": 22, "velocity": 67}, {"time": 7079, "pitch": 61, "duration": 29, "velocity": 61}, {"time": 7079, "pitch": 66, "duration": 36, "velocity": 66}, {"time": 7079, "pitch": 69, "duration": 38, "velocity": 69}, {"time": 7079, "pitch": 78, "duration": 19, "velocity": 97}, {"time": 7091, "pitch": 49, "duration": 12, "velocity": 44}, {"time": 7103, "pitch": 54, "duration": 13, "velocity": 45}, {"time": 7115, "pitch": 56, "duration": 49, "velocity": 54}, {"time": 7121, "pitch": 57, "duration": 43, "velocity": 56}, {"time": 7127, "pitch": 61, "duration": 6, "velocity": 51}, {"time": 7133, "pitch": 66, "duration": 7, "velocity": 63}, {"time": 7139, "pitch": 68, "duration": 3, "velocity": 62}, {"time": 7145, "pitch": 69, "duration": 7, "velocity": 64}, {"time": 7151, "pitch": 73, "duration": 4, "velocity": 48}], "annotations": [{"time": 23, "annotation": {"number": 64, "value": 127}, "group": "control_change"}, {"time": 72, "annotation": {"number": 64, "value": 127}, "group": "control_change"}, {"time": 118, "annotation": {"number": 64, "value": 0}, "group": "control_change"}, {"time": 125, "annotation": {"number": 64, "value": 127}, "group": "control_change"}, {"time": 165, "annotation": {"number": 64, "value": 0}, "group": "control_change"}, {"time": 172, "annotation": {"number": 64, "value": 127}, "group": "control_change"}, {"time": 213, "annotation": {"number": 64, "value": 0}, "group": "control_change"}, {"time": 219, "annotation": {"number": 64, "value": 127}, "group": "control_change"}, {"time": 262, "annotation": {"number": 64, "value": 0}, "group": "control_change"}, {"time": 269, "annotation": {"number": 64, "value": 127}, "group": "control_change"}, {"time": 311, "annotation": {"number": 64, "value": 0}, "group": "control_change"}, {"time": 321, "annotation": {"number": 64, "value": 127}, "group": "control_change"}, {"time": 357, "annotation": {"number": 64, "value": 0}, "group": "control_change"}, {"time": 368, "annotation": {"number": 64, "value": 127}, "group": "control_change"}, {"time": 455, "annotation": {"number": 64, "value": 0}, "group": "control_change"}, {"time": 492, "annotation": {"number": 64, "value": 127}, "group": "control_change"}, {"time": 550, "annotation": {"number": 64, "value": 0}, "group": "control_change"}, {"time": 557, "annotation": {"number": 64, "value": 127}, "group": "control_change"}, {"time": 648, "annotation": {"number": 64, "value": 127}, "group": "control_change"}, {"time": 695, "annotation": {"number": 64, "value": 0}, "group": "control_change"}, {"time": 698, "annotation": {"number": 64, "value": 0}, "group": "control_change"}, {"time": 703, "annotation": {"number": 64, "value": 127}, "group": "control_change"}, {"time": 745, "annotation": {"number": 64, "value": 0}, "group": "control_change"}, {"time": 751, "annotation": {"number": 64, "value": 127}, "group": "control_change"}, {"time": 842, "annotation": {"number": 64, "value": 0}, "group": "control_change"}, {"time": 847, "annotation": {"number": 64, "value": 127}, "group": "control_change"}, {"time": 891, "annotation": {"number": 64, "value": 0}, "group": "control_change"}, {"time": 896, "annotation": {"number": 64, "value": 127}, "group": "control_change"}, {"time": 938, "annotation": {"number": 64, "value": 0}, "group": "control_change"}, {"time": 944, "annotation": {"number": 64, "value": 127}, "group": "control_change"}, {"time": 1010, "annotation": {"number": 64, "value": 0}, "group": "control_change"}, {"time": 1015, "annotation": {"number": 64, "value": 127}, "group": "control_change"}, {"time": 1033, "annotation": {"number": 64, "value": 0}, "group": "control_change"}, {"time": 1039, "annotation": {"number": 64, "value": 127}, "group": "control_change"}, {"time": 1078, "annotation": {"number": 64, "value": 127}, "group": "control_change"}, {"time": 1129, "annotation": {"number": 64, "value": 0}, "group": "control_change"}, {"time": 1134, "annotation": {"number": 64, "value": 127}, "group": "control_change"}, {"time": 1176, "annotation": {"number": 64, "value": 0}, "group": "control_change"}, {"time": 1181, "annotation": {"number": 64, "value": 127}, "group": "control_change"}, {"time": 1226, "annotation": {"number": 64, "value": 0}, "group": "control_change"}, {"time": 1232, "annotation": {"number": 64, "value": 127}, "group": "control_change"}, {"time": 1272, "annotation": {"number": 64, "value": 0}, "group": "control_change"}, {"time": 1278, "annotation": {"number": 64, "value": 127}, "group": "control_change"}, {"time": 1318, "annotation": {"number": 64, "value": 0}, "group": "control_change"}, {"time": 1324, "annotation": {"number": 64, "value": 127}, "group": "control_change"}, {"time": 1415, "annotation": {"number": 64, "value": 0}, "group": "control_change"}, {"time": 1417, "annotation": {"number": 64, "value": 0}, "group": "control_change"}, {"time": 1423, "annotation": {"number": 64, "value": 127}, "group": "control_change"}, {"time": 1464, "annotation": {"number": 64, "value": 0}, "group": "control_change"}, {"time": 1472, "annotation": {"number": 64, "value": 127}, "group": "control_change"}, {"time": 1512, "annotation": {"number": 64, "value": 0}, "group": "control_change"}, {"time": 1518, "annotation": {"number": 64, "value": 127}, "group": "control_change"}, {"time": 1608, "annotation": {"number": 64, "value": 0}, "group": "control_change"}, {"time": 1613, "annotation": {"number": 64, "value": 127}, "group": "control_change"}, {"time": 1655, "annotation": {"number": 64, "value": 0}, "group": "control_change"}, {"time": 1661, "annotation": {"number": 64, "value": 127}, "group": "control_change"}, {"time": 1703, "annotation": {"number": 64, "value": 0}, "group": "control_change"}, {"time": 1709, "annotation": {"number": 64, "value": 127}, "group": "control_change"}, {"time": 1797, "annotation": {"number": 64, "value": 0}, "group": "control_change"}, {"time": 1802, "annotation": {"number": 64, "value": 127}, "group": "control_change"}, {"time": 1847, "annotation": {"number": 64, "value": 0}, "group": "control_change"}, {"time": 1848, "annotation": {"number": 64, "value": 127}, "group": "control_change"}, {"time": 1894, "annotation": {"number": 64, "value": 0}, "group": "control_change"}, {"time": 1900, "annotation": {"number": 64, "value": 127}, "group": "control_change"}, {"time": 1942, "annotation": {"number": 64, "value": 0}, "group": "control_change"}, {"time": 1948, "annotation": {"number": 64, "value": 127}, "group": "control_change"}, {"time": 1988, "annotation": {"number": 64, "value": 0}, "group": "control_change"}, {"time": 1993, "annotation": {"number": 64, "value": 127}, "group": "control_change"}, {"time": 2037, "annotation": {"number": 64, "value": 0}, "group": "control_change"}, {"time": 2042, "annotation": {"number": 64, "value": 127}, "group": "control_change"}, {"time": 2083, "annotation": {"number": 64, "value": 0}, "group": "control_change"}, {"time": 2089, "annotation": {"number": 64, "value": 127}, "group": "control_change"}, {"time": 2135, "annotation": {"number": 64, "value": 0}, "group": "control_change"}, {"time": 2135, "annotation": {"number": 64, "value": 127}, "group": "control_change"}, {"time": 2156, "annotation": {"number": 64, "value": 0}, "group": "control_change"}, {"time": 2160, "annotation": {"number": 64, "value": 127}, "group": "control_change"}, {"time": 2180, "annotation": {"number": 64, "value": 0}, "group": "control_change"}, {"time": 2185, "annotation": {"number": 64, "value": 127}, "group": "control_change"}, {"time": 2232, "annotation": {"number": 64, "value": 0}, "group": "control_change"}, {"time": 2238, "annotation": {"number": 64, "value": 127}, "group": "control_change"}, {"time": 2279, "annotation": {"number": 64, "value": 0}, "group": "control_change"}, {"time": 2284, "annotation": {"number": 64, "value": 127}, "group": "control_change"}, {"time": 2302, "annotation": {"number": 64, "value": 0}, "group": "control_change"}, {"time": 2308, "annotation": {"number": 64, "value": 127}, "group": "control_change"}, {"time": 2327, "annotation": {"number": 64, "value": 0}, "group": "control_change"}, {"time": 2333, "annotation": {"number": 64, "value": 127}, "group": "control_change"}, {"time": 2375, "annotation": {"number": 64, "value": 0}, "group": "control_change"}, {"time": 2376, "annotation": {"number": 64, "value": 127}, "group": "control_change"}, {"time": 2424, "annotation": {"number": 64, "value": 0}, "group": "control_change"}, {"time": 2430, "annotation": {"number": 64, "value": 127}, "group": "control_change"}, {"time": 2470, "annotation": {"number": 64, "value": 0}, "group": "control_change"}, {"time": 2476, "annotation": {"number": 64, "value": 127}, "group": "control_change"}, {"time": 2517, "annotation": {"number": 64, "value": 0}, "group": "control_change"}, {"time": 2522, "annotation": {"number": 64, "value": 127}, "group": "control_change"}, {"time": 2568, "annotation": {"number": 64, "value": 0}, "group": "control_change"}, {"time": 2573, "annotation": {"number": 64, "value": 127}, "group": "control_change"}, {"time": 2613, "annotation": {"number": 64, "value": 0}, "group": "control_change"}, {"time": 2618, "annotation": {"number": 64, "value": 127}, "group": "control_change"}, {"time": 2662, "annotation": {"number": 64, "value": 0}, "group": "control_change"}, {"time": 2667, "annotation": {"number": 64, "value": 127}, "group": "control_change"}, {"time": 2686, "annotation": {"number": 64, "value": 0}, "group": "control_change"}, {"time": 2691, "annotation": {"number": 64, "value": 127}, "group": "control_change"}, {"time": 2708, "annotation": {"number": 64, "value": 0}, "group": "control_change"}, {"time": 2713, "annotation": {"number": 64, "value": 127}, "group": "control_change"}, {"time": 2759, "annotation": {"number": 64, "value": 0}, "group": "control_change"}, {"time": 2761, "annotation": {"number": 64, "value": 127}, "group": "control_change"}, {"time": 2807, "annotation": {"number": 64, "value": 0}, "group": "control_change"}, {"time": 2813, "annotation": {"number": 64, "value": 127}, "group": "control_change"}, {"time": 2852, "annotation": {"number": 64, "value": 0}, "group": "control_change"}, {"time": 2856, "annotation": {"number": 64, "value": 127}, "group": "control_change"}, {"time": 2903, "annotation": {"number": 64, "value": 0}, "group": "control_change"}, {"time": 2908, "annotation": {"number": 64, "value": 127}, "group": "control_change"}, {"time": 3000, "annotation": {"number": 64, "value": 0}, "group": "control_change"}, {"time": 3005, "annotation": {"number": 64, "value": 127}, "group": "control_change"}, {"time": 3098, "annotation": {"number": 64, "value": 127}, "group": "control_change"}, {"time": 3120, "annotation": {"number": 64, "value": 0}, "group": "control_change"}, {"time": 3145, "annotation": {"number": 64, "value": 0}, "group": "control_change"}, {"time": 3152, "annotation": {"number": 64, "value": 127}, "group": "control_change"}, {"time": 3195, "annotation": {"number": 64, "value": 0}, "group": "control_change"}, {"time": 3201, "annotation": {"number": 64, "value": 127}, "group": "control_change"}, {"time": 3238, "annotation": {"number": 64, "value": 0}, "group": "control_change"}, {"time": 3244, "annotation": {"number": 64, "value": 127}, "group": "control_change"}, {"time": 3286, "annotation": {"number": 64, "value": 0}, "group": "control_change"}, {"time": 3291, "annotation": {"number": 64, "value": 127}, "group": "control_change"}, {"time": 3334, "annotation": {"number": 64, "value": 0}, "group": "control_change"}, {"time": 3345, "annotation": {"number": 64, "value": 127}, "group": "control_change"}, {"time": 3383, "annotation": {"number": 64, "value": 0}, "group": "control_change"}, {"time": 3391, "annotation": {"number": 64, "value": 127}, "group": "control_change"}, {"time": 3430, "annotation": {"number": 64, "value": 0}, "group": "control_change"}, {"time": 3434, "annotation": {"number": 64, "value": 127}, "group": "control_change"}, {"time": 3477, "annotation": {"number": 64, "value": 0}, "group": "control_change"}, {"time": 3484, "annotation": {"number": 64, "value": 127}, "group": "control_change"}, {"time": 3524, "annotation": {"number": 64, "value": 0}, "group": "control_change"}, {"time": 3529, "annotation": {"number": 64, "value": 127}, "group": "control_change"}, {"time": 3572, "annotation": {"number": 64, "value": 0}, "group": "control_change"}, {"time": 3578, "annotation": {"number": 64, "value": 127}, "group": "control_change"}, {"time": 3620, "annotation": {"number": 64, "value": 0}, "group": "control_change"}, {"time": 3626, "annotation": {"number": 64, "value": 127}, "group": "control_change"}, {"time": 3629, "annotation": {"number": 64, "value": 0}, "group": "control_change"}, {"time": 3631, "annotation": {"number": 64, "value": 127}, "group": "control_change"}, {"time": 3668, "annotation": {"number": 64, "value": 0}, "group": "control_change"}, {"time": 3673, "annotation": {"number": 64, "value": 127}, "group": "control_change"}, {"time": 3717, "annotation": {"number": 64, "value": 0}, "group": "control_change"}, {"time": 3721, "annotation": {"number": 64, "value": 127}, "group": "control_change"}, {"time": 3765, "annotation": {"number": 64, "value": 0}, "group": "control_change"}, {"time": 3770, "annotation": {"number": 64, "value": 127}, "group": "control_change"}, {"time": 3816, "annotation": {"number": 64, "value": 0}, "group": "control_change"}, {"time": 3821, "annotation": {"number": 64, "value": 127}, "group": "control_change"}, {"time": 3862, "annotation": {"number": 64, "value": 0}, "group": "control_change"}, {"time": 3886, "annotation": {"number": 64, "value": 127}, "group": "control_change"}, {"time": 3911, "annotation": {"number": 64, "value": 0}, "group": "control_change"}, {"time": 3916, "annotation": {"number": 64, "value": 127}, "group": "control_change"}, {"time": 3998, "annotation": {"number": 64, "value": 0}, "group": "control_change"}, {"time": 4009, "annotation": {"number": 64, "value": 0}, "group": "control_change"}, {"time": 4015, "annotation": {"number": 64, "value": 127}, "group": "control_change"}, {"time": 4056, "annotation": {"number": 64, "value": 0}, "group": "control_change"}, {"time": 4064, "annotation": {"number": 64, "value": 127}, "group": "control_change"}, {"time": 4104, "annotation": {"number": 64, "value": 0}, "group": "control_change"}, {"time": 4110, "annotation": {"number": 64, "value": 127}, "group": "control_change"}, {"time": 4200, "annotation": {"number": 64, "value": 0}, "group": "control_change"}, {"time": 4205, "annotation": {"number": 64, "value": 127}, "group": "control_change"}, {"time": 4247, "annotation": {"number": 64, "value": 0}, "group": "control_change"}, {"time": 4253, "annotation": {"number": 64, "value": 127}, "group": "control_change"}, {"time": 4295, "annotation": {"number": 64, "value": 0}, "group": "control_change"}, {"time": 4301, "annotation": {"number": 64, "value": 127}, "group": "control_change"}, {"time": 4389, "annotation": {"number": 64, "value": 0}, "group": "control_change"}, {"time": 4394, "annotation": {"number": 64, "value": 127}, "group": "control_change"}, {"time": 4439, "annotation": {"number": 64, "value": 0}, "group": "control_change"}, {"time": 4440, "annotation": {"number": 64, "value": 127}, "group": "control_change"}, {"time": 4486, "annotation": {"number": 64, "value": 0}, "group": "control_change"}, {"time": 4492, "annotation": {"number": 64, "value": 127}, "group": "control_change"}, {"time": 4534, "annotation": {"number": 64, "value": 0}, "group": "control_change"}, {"time": 4540, "annotation": {"number": 64, "value": 127}, "group": "control_change"}, {"time": 4580, "annotation": {"number": 64, "value": 0}, "group": "control_change"}, {"time": 4585, "annotation": {"number": 64, "value": 127}, "group": "control_change"}, {"time": 4629, "annotation": {"number": 64, "value": 0}, "group": "control_change"}, {"time": 4634, "annotation": {"number": 64, "value": 127}, "group": "control_change"}, {"time": 4675, "annotation": {"number": 64, "value": 0}, "group": "control_change"}, {"time": 4681, "annotation": {"number": 64, "value": 127}, "group": "control_change"}, {"time": 4727, "annotation": {"number": 64, "value": 0}, "group": "control_change"}, {"time": 4727, "annotation": {"number": 64, "value": 127}, "group": "control_change"}, {"time": 4748, "annotation": {"number": 64, "value": 0}, "group": "control_change"}, {"time": 4752, "annotation": {"number": 64, "value": 127}, "group": "control_change"}, {"time": 4772, "annotation": {"number": 64, "value": 0}, "group": "control_change"}, {"time": 4777, "annotation": {"number": 64, "value": 127}, "group": "control_change"}, {"time": 4824, "annotation": {"number": 64, "value": 0}, "group": "control_change"}, {"time": 4830, "annotation": {"number": 64, "value": 127}, "group": "control_change"}, {"time": 4871, "annotation": {"number": 64, "value": 0}, "group": "control_change"}, {"time": 4876, "annotation": {"number": 64, "value": 127}, "group": "control_change"}, {"time": 4894, "annotation": {"number": 64, "value": 0}, "group": "control_change"}, {"time": 4900, "annotation": {"number": 64, "value": 127}, "group": "control_change"}, {"time": 4919, "annotation": {"number": 64, "value": 0}, "group": "control_change"}, {"time": 4925, "annotation": {"number": 64, "value": 127}, "group": "control_change"}, {"time": 4967, "annotation": {"number": 64, "value": 0}, "group": "control_change"}, {"time": 4968, "annotation": {"number": 64, "value": 127}, "group": "control_change"}, {"time": 5016, "annotation": {"number": 64, "value": 0}, "group": "control_change"}, {"time": 5022, "annotation": {"number": 64, "value": 127}, "group": "control_change"}, {"time": 5062, "annotation": {"number": 64, "value": 0}, "group": "control_change"}, {"time": 5068, "annotation": {"number": 64, "value": 127}, "group": "control_change"}, {"time": 5109, "annotation": {"number": 64, "value": 0}, "group": "control_change"}, {"time": 5114, "annotation": {"number": 64, "value": 127}, "group": "control_change"}, {"time": 5160, "annotation": {"number": 64, "value": 0}, "group": "control_change"}, {"time": 5165, "annotation": {"number": 64, "value": 127}, "group": "control_change"}, {"time": 5205, "annotation": {"number": 64, "value": 0}, "group": "control_change"}, {"time": 5210, "annotation": {"number": 64, "value": 127}, "group": "control_change"}, {"time": 5254, "annotation": {"number": 64, "value": 0}, "group": "control_change"}, {"time": 5259, "annotation": {"number": 64, "value": 127}, "group": "control_change"}, {"time": 5278, "annotation": {"number": 64, "value": 0}, "group": "control_change"}, {"time": 5283, "annotation": {"number": 64, "value": 127}, "group": "control_change"}, {"time": 5300, "annotation": {"number": 64, "value": 0}, "group": "control_change"}, {"time": 5305, "annotation": {"number": 64, "value": 127}, "group": "control_change"}, {"time": 5351, "annotation": {"number": 64, "value": 0}, "group": "control_change"}, {"time": 5353, "annotation": {"number": 64, "value": 127}, "group": "control_change"}, {"time": 5399, "annotation": {"number": 64, "value": 0}, "group": "control_change"}, {"time": 5405, "annotation": {"number": 64, "value": 127}, "group": "control_change"}, {"time": 5444, "annotation": {"number": 64, "value": 0}, "group": "control_change"}, {"time": 5448, "annotation": {"number": 64, "value": 127}, "group": "control_change"}, {"time": 5495, "annotation": {"number": 64, "value": 0}, "group": "control_change"}, {"time": 5500, "annotation": {"number": 64, "value": 127}, "group": "control_change"}, {"time": 5592, "annotation": {"number": 64, "value": 0}, "group": "control_change"}, {"time": 5597, "annotation": {"number": 64, "value": 127}, "group": "control_change"}, {"time": 5687, "annotation": {"number": 64, "value": 0}, "group": "control_change"}, {"time": 5691, "annotation": {"number": 64, "value": 127}, "group": "control_change"}, {"time": 5735, "annotation": {"number": 64, "value": 0}, "group": "control_change"}, {"time": 5740, "annotation": {"number": 64, "value": 127}, "group": "control_change"}, {"time": 5781, "annotation": {"number": 64, "value": 0}, "group": "control_change"}, {"time": 5786, "annotation": {"number": 64, "value": 127}, "group": "control_change"}, {"time": 5806, "annotation": {"number": 64, "value": 0}, "group": "control_change"}, {"time": 5811, "annotation": {"number": 64, "value": 127}, "group": "control_change"}, {"time": 5828, "annotation": {"number": 64, "value": 0}, "group": "control_change"}, {"time": 5834, "annotation": {"number": 64, "value": 127}, "group": "control_change"}, {"time": 5879, "annotation": {"number": 64, "value": 0}, "group": "control_change"}, {"time": 5884, "annotation": {"number": 64, "value": 127}, "group": "control_change"}, {"time": 5929, "annotation": {"number": 64, "value": 0}, "group": "control_change"}, {"time": 5934, "annotation": {"number": 64, "value": 127}, "group": "control_change"}, {"time": 5976, "annotation": {"number": 64, "value": 0}, "group": "control_change"}, {"time": 5981, "annotation": {"number": 64, "value": 127}, "group": "control_change"}, {"time": 6021, "annotation": {"number": 64, "value": 0}, "group": "control_change"}, {"time": 6026, "annotation": {"number": 64, "value": 127}, "group": "control_change"}, {"time": 6070, "annotation": {"number": 64, "value": 0}, "group": "control_change"}, {"time": 6074, "annotation": {"number": 64, "value": 127}, "group": "control_change"}, {"time": 6118, "annotation": {"number": 64, "value": 0}, "group": "control_change"}, {"time": 6122, "annotation": {"number": 64, "value": 127}, "group": "control_change"}, {"time": 6166, "annotation": {"number": 64, "value": 0}, "group": "control_change"}, {"time": 6171, "annotation": {"number": 64, "value": 127}, "group": "control_change"}, {"time": 6175, "annotation": {"number": 64, "value": 0}, "group": "control_change"}, {"time": 6179, "annotation": {"number": 64, "value": 127}, "group": "control_change"}, {"time": 6192, "annotation": {"number": 64, "value": 0}, "group": "control_change"}, {"time": 6197, "annotation": {"number": 64, "value": 127}, "group": "control_change"}, {"time": 6202, "annotation": {"number": 64, "value": 0}, "group": "control_change"}, {"time": 6203, "annotation": {"number": 64, "value": 127}, "group": "control_change"}, {"time": 6214, "annotation": {"number": 64, "value": 0}, "group": "control_change"}, {"time": 6218, "annotation": {"number": 64, "value": 127}, "group": "control_change"}, {"time": 6263, "annotation": {"number": 64, "value": 0}, "group": "control_change"}, {"time": 6264, "annotation": {"number": 64, "value": 127}, "group": "control_change"}, {"time": 6310, "annotation": {"number": 64, "value": 0}, "group": "control_change"}, {"time": 6316, "annotation": {"number": 64, "value": 127}, "group": "control_change"}, {"time": 6359, "annotation": {"number": 64, "value": 0}, "group": "control_change"}, {"time": 6363, "annotation": {"number": 64, "value": 127}, "group": "control_change"}, {"time": 6404, "annotation": {"number": 64, "value": 0}, "group": "control_change"}, {"time": 6408, "annotation": {"number": 64, "value": 127}, "group": "control_change"}, {"time": 6502, "annotation": {"number": 64, "value": 0}, "group": "control_change"}, {"time": 6506, "annotation": {"number": 64, "value": 127}, "group": "control_change"}, {"time": 6599, "annotation": {"number": 64, "value": 0}, "group": "control_change"}, {"time": 6600, "annotation": {"number": 64, "value": 127}, "group": "control_change"}, {"time": 6646, "annotation": {"number": 64, "value": 0}, "group": "control_change"}, {"time": 6653, "annotation": {"number": 64, "value": 127}, "group": "control_change"}, {"time": 6693, "annotation": {"number": 64, "value": 0}, "group": "control_change"}, {"time": 6700, "annotation": {"number": 64, "value": 127}, "group": "control_change"}, {"time": 6741, "annotation": {"number": 64, "value": 0}, "group": "control_change"}, {"time": 6747, "annotation": {"number": 64, "value": 127}, "group": "control_change"}, {"time": 6790, "annotation": {"number": 64, "value": 0}, "group": "control_change"}, {"time": 6797, "annotation": {"number": 64, "value": 127}, "group": "control_change"}, {"time": 6839, "annotation": {"number": 64, "value": 0}, "group": "control_change"}, {"time": 6849, "annotation": {"number": 64, "value": 127}, "group": "control_change"}, {"time": 6885, "annotation": {"number": 64, "value": 0}, "group": "control_change"}, {"time": 6896, "annotation": {"number": 64, "value": 127}, "group": "control_change"}, {"time": 6983, "annotation": {"number": 64, "value": 0}, "group": "control_change"}, {"time": 7020, "annotation": {"number": 64, "value": 127}, "group": "control_change"}, {"time": 7078, "annotation": {"number": 64, "value": 0}, "group": "control_change"}, {"time": 7085, "annotation": {"number": 64, "value": 127}, "group": "control_change"}, {"time": 7223, "annotation": {"number": 64, "value": 0}, "group": "control_change"}]}]}