{"metadata": {"schema_version": "0.2", "title": "None", "source_filename": "215.mid", "source_format": "midi"}, "resolution": 12, "tempos": [{"time": 0, "qpm": 128.0}], "time_signatures": [{"time": 0, "numerator": 6, "denominator": 8}], "tracks": [{"program": 0, "is_drum": false, "name": "MELODY", "notes": [{"time": 730, "pitch": 77, "duration": 6, "velocity": 79}, {"time": 736, "pitch": 77, "duration": 6, "velocity": 80}, {"time": 742, "pitch": 77, "duration": 6, "velocity": 84}, {"time": 748, "pitch": 70, "duration": 6, "velocity": 63}, {"time": 754, "pitch": 72, "duration": 6, "velocity": 71}, {"time": 760, "pitch": 73, "duration": 6, "velocity": 62}, {"time": 766, "pitch": 77, "duration": 6, "velocity": 90}, {"time": 772, "pitch": 77, "duration": 6, "velocity": 87}, {"time": 778, "pitch": 77, "duration": 6, "velocity": 87}, {"time": 784, "pitch": 70, "duration": 6, "velocity": 69}, {"time": 790, "pitch": 72, "duration": 6, "velocity": 64}, {"time": 796, "pitch": 73, "duration": 6, "velocity": 79}, {"time": 802, "pitch": 77, "duration": 6, "velocity": 87}, {"time": 808, "pitch": 77, "duration": 6, "velocity": 75}, {"time": 814, "pitch": 77, "duration": 6, "velocity": 72}, {"time": 820, "pitch": 77, "duration": 6, "velocity": 77}, {"time": 826, "pitch": 75, "duration": 6, "velocity": 73}, {"time": 832, "pitch": 73, "duration": 6, "velocity": 74}, {"time": 838, "pitch": 70, "duration": 36, "velocity": 87}, {"time": 874, "pitch": 73, "duration": 6, "velocity": 84}, {"time": 880, "pitch": 73, "duration": 6, "velocity": 93}, {"time": 886, "pitch": 73, "duration": 6, "velocity": 86}, {"time": 892, "pitch": 70, "duration": 7, "velocity": 66}, {"time": 898, "pitch": 72, "duration": 7, "velocity": 74}, {"time": 904, "pitch": 73, "duration": 6, "velocity": 89}, {"time": 910, "pitch": 75, "duration": 6, "velocity": 90}, {"time": 916, "pitch": 75, "duration": 6, "velocity": 90}, {"time": 922, "pitch": 75, "duration": 6, "velocity": 77}, {"time": 928, "pitch": 75, "duration": 6, "velocity": 69}, {"time": 934, "pitch": 75, "duration": 6, "velocity": 87}, {"time": 940, "pitch": 68, "duration": 6, "velocity": 59}, {"time": 946, "pitch": 77, "duration": 6, "velocity": 82}, {"time": 952, "pitch": 77, "duration": 6, "velocity": 75}, {"time": 958, "pitch": 77, "duration": 6, "velocity": 69}, {"time": 964, "pitch": 77, "duration": 6, "velocity": 84}, {"time": 970, "pitch": 75, "duration": 6, "velocity": 89}, {"time": 976, "pitch": 73, "duration": 6, "velocity": 87}, {"time": 982, "pitch": 77, "duration": 36, "velocity": 94}, {"time": 1018, "pitch": 77, "duration": 6, "velocity": 97}, {"time": 1024, "pitch": 77, "duration": 6, "velocity": 84}, {"time": 1030, "pitch": 77, "duration": 6, "velocity": 90}, {"time": 1036, "pitch": 70, "duration": 6, "velocity": 64}, {"time": 1042, "pitch": 72, "duration": 6, "velocity": 81}, {"time": 1048, "pitch": 73, "duration": 6, "velocity": 66}, {"time": 1054, "pitch": 77, "duration": 6, "velocity": 89}, {"time": 1060, "pitch": 77, "duration": 6, "velocity": 90}, {"time": 1066, "pitch": 77, "duration": 6, "velocity": 86}, {"time": 1072, "pitch": 70, "duration": 6, "velocity": 84}, {"time": 1078, "pitch": 72, "duration": 7, "velocity": 68}, {"time": 1084, "pitch": 73, "duration": 6, "velocity": 80}, {"time": 1090, "pitch": 77, "duration": 6, "velocity": 90}, {"time": 1096, "pitch": 77, "duration": 6, "velocity": 96}, {"time": 1102, "pitch": 77, "duration": 6, "velocity": 93}, {"time": 1108, "pitch": 82, "duration": 6, "velocity": 86}, {"time": 1114, "pitch": 77, "duration": 6, "velocity": 79}, {"time": 1120, "pitch": 73, "duration": 6, "velocity": 73}, {"time": 1126, "pitch": 70, "duration": 36, "velocity": 90}, {"time": 1162, "pitch": 73, "duration": 18, "velocity": 93}, {"time": 1180, "pitch": 75, "duration": 6, "velocity": 89}, {"time": 1186, "pitch": 73, "duration": 12, "velocity": 87}, {"time": 1198, "pitch": 72, "duration": 12, "velocity": 86}, {"time": 1210, "pitch": 70, "duration": 12, "velocity": 87}, {"time": 1222, "pitch": 68, "duration": 14, "velocity": 93}, {"time": 1234, "pitch": 70, "duration": 72, "velocity": 100}, {"time": 1306, "pitch": 80, "duration": 18, "velocity": 94}, {"time": 1324, "pitch": 80, "duration": 6, "velocity": 91}, {"time": 1330, "pitch": 80, "duration": 12, "velocity": 91}, {"time": 1342, "pitch": 80, "duration": 12, "velocity": 91}, {"time": 1354, "pitch": 78, "duration": 12, "velocity": 92}, {"time": 1366, "pitch": 75, "duration": 12, "velocity": 87}, {"time": 1378, "pitch": 78, "duration": 18, "velocity": 97}, {"time": 1396, "pitch": 80, "duration": 6, "velocity": 93}, {"time": 1402, "pitch": 78, "duration": 6, "velocity": 83}, {"time": 1408, "pitch": 75, "duration": 7, "velocity": 86}, {"time": 1414, "pitch": 77, "duration": 36, "velocity": 99}, {"time": 1450, "pitch": 75, "duration": 18, "velocity": 94}, {"time": 1468, "pitch": 75, "duration": 6, "velocity": 90}, {"time": 1474, "pitch": 75, "duration": 12, "velocity": 87}, {"time": 1486, "pitch": 75, "duration": 12, "velocity": 103}, {"time": 1498, "pitch": 73, "duration": 12, "velocity": 96}, {"time": 1510, "pitch": 75, "duration": 12, "velocity": 101}, {"time": 1522, "pitch": 77, "duration": 6, "velocity": 96}, {"time": 1528, "pitch": 77, "duration": 6, "velocity": 96}, {"time": 1534, "pitch": 77, "duration": 6, "velocity": 93}, {"time": 1540, "pitch": 78, "duration": 6, "velocity": 89}, {"time": 1546, "pitch": 77, "duration": 6, "velocity": 87}, {"time": 1552, "pitch": 72, "duration": 6, "velocity": 72}, {"time": 1558, "pitch": 77, "duration": 36, "velocity": 89}, {"time": 1594, "pitch": 80, "duration": 18, "velocity": 99}, {"time": 1612, "pitch": 80, "duration": 6, "velocity": 90}, {"time": 1618, "pitch": 80, "duration": 12, "velocity": 91}, {"time": 1630, "pitch": 80, "duration": 12, "velocity": 98}, {"time": 1642, "pitch": 78, "duration": 12, "velocity": 91}, {"time": 1654, "pitch": 75, "duration": 12, "velocity": 91}, {"time": 1666, "pitch": 78, "duration": 6, "velocity": 98}, {"time": 1672, "pitch": 78, "duration": 6, "velocity": 90}, {"time": 1678, "pitch": 78, "duration": 6, "velocity": 89}, {"time": 1684, "pitch": 80, "duration": 6, "velocity": 93}, {"time": 1690, "pitch": 78, "duration": 6, "velocity": 92}, {"time": 1696, "pitch": 75, "duration": 6, "velocity": 91}, {"time": 1702, "pitch": 77, "duration": 36, "velocity": 98}, {"time": 1738, "pitch": 75, "duration": 18, "velocity": 105}, {"time": 1756, "pitch": 75, "duration": 6, "velocity": 93}, {"time": 1762, "pitch": 75, "duration": 12, "velocity": 96}, {"time": 1774, "pitch": 75, "duration": 12, "velocity": 98}, {"time": 1786, "pitch": 73, "duration": 12, "velocity": 100}, {"time": 1798, "pitch": 71, "duration": 12, "velocity": 100}, {"time": 1810, "pitch": 69, "duration": 30, "velocity": 100}, {"time": 1840, "pitch": 69, "duration": 6, "velocity": 95}, {"time": 1846, "pitch": 69, "duration": 12, "velocity": 96}, {"time": 1858, "pitch": 70, "duration": 12, "velocity": 92}, {"time": 1870, "pitch": 72, "duration": 12, "velocity": 91}, {"time": 1882, "pitch": 77, "duration": 132, "velocity": 97}, {"time": 2014, "pitch": 77, "duration": 6, "velocity": 87}, {"time": 2020, "pitch": 77, "duration": 6, "velocity": 72}, {"time": 2026, "pitch": 85, "duration": 6, "velocity": 90}, {"time": 2032, "pitch": 84, "duration": 6, "velocity": 87}, {"time": 2038, "pitch": 85, "duration": 6, "velocity": 87}, {"time": 2044, "pitch": 84, "duration": 6, "velocity": 89}, {"time": 2050, "pitch": 85, "duration": 6, "velocity": 86}, {"time": 2056, "pitch": 77, "duration": 6, "velocity": 90}, {"time": 2062, "pitch": 80, "duration": 36, "velocity": 105}, {"time": 2098, "pitch": 82, "duration": 6, "velocity": 91}, {"time": 2104, "pitch": 80, "duration": 6, "velocity": 87}, {"time": 2110, "pitch": 82, "duration": 6, "velocity": 90}, {"time": 2116, "pitch": 80, "duration": 6, "velocity": 89}, {"time": 2122, "pitch": 82, "duration": 6, "velocity": 91}, {"time": 2128, "pitch": 73, "duration": 8, "velocity": 87}, {"time": 2134, "pitch": 77, "duration": 36, "velocity": 98}, {"time": 2170, "pitch": 78, "duration": 7, "velocity": 74}, {"time": 2176, "pitch": 77, "duration": 6, "velocity": 66}, {"time": 2182, "pitch": 78, "duration": 6, "velocity": 79}, {"time": 2188, "pitch": 77, "duration": 7, "velocity": 63}, {"time": 2194, "pitch": 78, "duration": 6, "velocity": 87}, {"time": 2200, "pitch": 75, "duration": 6, "velocity": 82}, {"time": 2206, "pitch": 77, "duration": 6, "velocity": 90}, {"time": 2212, "pitch": 75, "duration": 7, "velocity": 79}, {"time": 2218, "pitch": 77, "duration": 6, "velocity": 77}, {"time": 2224, "pitch": 75, "duration": 6, "velocity": 65}, {"time": 2230, "pitch": 77, "duration": 6, "velocity": 72}, {"time": 2236, "pitch": 73, "duration": 6, "velocity": 72}, {"time": 2242, "pitch": 75, "duration": 6, "velocity": 84}, {"time": 2248, "pitch": 75, "duration": 6, "velocity": 83}, {"time": 2254, "pitch": 75, "duration": 6, "velocity": 84}, {"time": 2260, "pitch": 77, "duration": 6, "velocity": 91}, {"time": 2266, "pitch": 78, "duration": 6, "velocity": 86}, {"time": 2272, "pitch": 75, "duration": 7, "velocity": 91}, {"time": 2278, "pitch": 77, "duration": 24, "velocity": 108}, {"time": 2302, "pitch": 77, "duration": 6, "velocity": 97}, {"time": 2308, "pitch": 77, "duration": 6, "velocity": 87}, {"time": 2314, "pitch": 85, "duration": 6, "velocity": 93}, {"time": 2320, "pitch": 84, "duration": 6, "velocity": 91}, {"time": 2326, "pitch": 85, "duration": 6, "velocity": 90}, {"time": 2332, "pitch": 84, "duration": 6, "velocity": 97}, {"time": 2338, "pitch": 85, "duration": 6, "velocity": 90}, {"time": 2344, "pitch": 82, "duration": 7, "velocity": 100}, {"time": 2350, "pitch": 84, "duration": 36, "velocity": 105}, {"time": 2386, "pitch": 82, "duration": 6, "velocity": 100}, {"time": 2392, "pitch": 80, "duration": 6, "velocity": 84}, {"time": 2398, "pitch": 82, "duration": 6, "velocity": 87}, {"time": 2404, "pitch": 84, "duration": 6, "velocity": 94}, {"time": 2410, "pitch": 85, "duration": 9, "velocity": 91}, {"time": 2419, "pitch": 82, "duration": 9, "velocity": 90}, {"time": 2428, "pitch": 80, "duration": 30, "velocity": 106}, {"time": 2458, "pitch": 78, "duration": 18, "velocity": 96}, {"time": 2476, "pitch": 80, "duration": 8, "velocity": 83}, {"time": 2482, "pitch": 78, "duration": 12, "velocity": 93}, {"time": 2494, "pitch": 77, "duration": 12, "velocity": 89}, {"time": 2506, "pitch": 75, "duration": 12, "velocity": 94}, {"time": 2518, "pitch": 73, "duration": 12, "velocity": 92}, {"time": 2530, "pitch": 75, "duration": 6, "velocity": 97}, {"time": 2536, "pitch": 75, "duration": 6, "velocity": 94}, {"time": 2542, "pitch": 75, "duration": 7, "velocity": 91}, {"time": 2548, "pitch": 77, "duration": 6, "velocity": 93}, {"time": 2554, "pitch": 78, "duration": 6, "velocity": 84}, {"time": 2560, "pitch": 75, "duration": 6, "velocity": 90}, {"time": 2566, "pitch": 72, "duration": 36, "velocity": 91}, {"time": 2602, "pitch": 73, "duration": 12, "velocity": 106}, {"time": 2614, "pitch": 75, "duration": 12, "velocity": 103}, {"time": 2626, "pitch": 73, "duration": 12, "velocity": 91}, {"time": 2638, "pitch": 72, "duration": 14, "velocity": 94}, {"time": 2650, "pitch": 70, "duration": 19, "velocity": 97}, {"time": 2668, "pitch": 68, "duration": 9, "velocity": 89}, {"time": 2674, "pitch": 70, "duration": 69, "velocity": 96}, {"time": 2746, "pitch": 73, "duration": 18, "velocity": 108}, {"time": 2764, "pitch": 75, "duration": 6, "velocity": 97}, {"time": 2770, "pitch": 73, "duration": 12, "velocity": 100}, {"time": 2782, "pitch": 72, "duration": 12, "velocity": 97}, {"time": 2794, "pitch": 73, "duration": 21, "velocity": 106}, {"time": 2815, "pitch": 72, "duration": 15, "velocity": 101}, {"time": 2830, "pitch": 70, "duration": 37, "velocity": 97}, {"time": 3034, "pitch": 77, "duration": 7, "velocity": 79}, {"time": 3040, "pitch": 77, "duration": 1, "velocity": 80}, {"time": 3046, "pitch": 77, "duration": 1, "velocity": 84}, {"time": 3052, "pitch": 70, "duration": 7, "velocity": 63}, {"time": 3058, "pitch": 72, "duration": 6, "velocity": 71}, {"time": 3064, "pitch": 73, "duration": 7, "velocity": 62}, {"time": 3070, "pitch": 77, "duration": 7, "velocity": 90}, {"time": 3076, "pitch": 77, "duration": 1, "velocity": 87}, {"time": 3082, "pitch": 77, "duration": 1, "velocity": 87}, {"time": 3088, "pitch": 70, "duration": 6, "velocity": 69}, {"time": 3094, "pitch": 72, "duration": 6, "velocity": 64}, {"time": 3100, "pitch": 73, "duration": 6, "velocity": 79}, {"time": 3106, "pitch": 77, "duration": 7, "velocity": 87}, {"time": 3112, "pitch": 77, "duration": 1, "velocity": 75}, {"time": 3118, "pitch": 77, "duration": 1, "velocity": 72}, {"time": 3124, "pitch": 77, "duration": 1, "velocity": 77}, {"time": 3130, "pitch": 75, "duration": 6, "velocity": 73}, {"time": 3136, "pitch": 73, "duration": 6, "velocity": 74}, {"time": 3142, "pitch": 70, "duration": 37, "velocity": 87}, {"time": 3178, "pitch": 73, "duration": 6, "velocity": 84}, {"time": 3184, "pitch": 73, "duration": 6, "velocity": 93}, {"time": 3190, "pitch": 73, "duration": 6, "velocity": 86}, {"time": 3196, "pitch": 70, "duration": 6, "velocity": 66}, {"time": 3202, "pitch": 72, "duration": 6, "velocity": 74}, {"time": 3208, "pitch": 73, "duration": 6, "velocity": 89}, {"time": 3214, "pitch": 75, "duration": 6, "velocity": 90}, {"time": 3220, "pitch": 75, "duration": 6, "velocity": 90}, {"time": 3226, "pitch": 75, "duration": 6, "velocity": 77}, {"time": 3232, "pitch": 75, "duration": 6, "velocity": 69}, {"time": 3238, "pitch": 75, "duration": 7, "velocity": 87}, {"time": 3244, "pitch": 68, "duration": 6, "velocity": 59}, {"time": 3250, "pitch": 77, "duration": 6, "velocity": 82}, {"time": 3256, "pitch": 77, "duration": 6, "velocity": 75}, {"time": 3262, "pitch": 77, "duration": 6, "velocity": 69}, {"time": 3268, "pitch": 77, "duration": 7, "velocity": 84}, {"time": 3274, "pitch": 75, "duration": 6, "velocity": 89}, {"time": 3280, "pitch": 73, "duration": 6, "velocity": 87}, {"time": 3286, "pitch": 77, "duration": 37, "velocity": 94}, {"time": 3322, "pitch": 77, "duration": 1, "velocity": 97}, {"time": 3328, "pitch": 77, "duration": 6, "velocity": 84}, {"time": 3334, "pitch": 77, "duration": 7, "velocity": 90}, {"time": 3340, "pitch": 70, "duration": 6, "velocity": 64}, {"time": 3346, "pitch": 72, "duration": 6, "velocity": 81}, {"time": 3352, "pitch": 73, "duration": 7, "velocity": 66}, {"time": 3358, "pitch": 77, "duration": 6, "velocity": 89}, {"time": 3364, "pitch": 77, "duration": 6, "velocity": 90}, {"time": 3370, "pitch": 77, "duration": 7, "velocity": 86}, {"time": 3376, "pitch": 70, "duration": 6, "velocity": 84}, {"time": 3382, "pitch": 72, "duration": 6, "velocity": 68}, {"time": 3388, "pitch": 73, "duration": 6, "velocity": 80}, {"time": 3394, "pitch": 77, "duration": 7, "velocity": 90}, {"time": 3400, "pitch": 77, "duration": 1, "velocity": 96}, {"time": 3406, "pitch": 77, "duration": 1, "velocity": 93}, {"time": 3412, "pitch": 82, "duration": 6, "velocity": 86}, {"time": 3418, "pitch": 77, "duration": 6, "velocity": 79}, {"time": 3424, "pitch": 73, "duration": 6, "velocity": 73}, {"time": 3430, "pitch": 70, "duration": 36, "velocity": 90}, {"time": 3466, "pitch": 73, "duration": 18, "velocity": 93}, {"time": 3484, "pitch": 75, "duration": 6, "velocity": 89}, {"time": 3490, "pitch": 73, "duration": 12, "velocity": 87}, {"time": 3502, "pitch": 72, "duration": 12, "velocity": 86}, {"time": 3514, "pitch": 70, "duration": 12, "velocity": 87}, {"time": 3526, "pitch": 68, "duration": 12, "velocity": 93}, {"time": 3538, "pitch": 70, "duration": 72, "velocity": 100}, {"time": 3610, "pitch": 80, "duration": 18, "velocity": 94}, {"time": 3628, "pitch": 80, "duration": 6, "velocity": 91}, {"time": 3634, "pitch": 80, "duration": 12, "velocity": 91}, {"time": 3646, "pitch": 80, "duration": 12, "velocity": 91}, {"time": 3658, "pitch": 78, "duration": 12, "velocity": 92}, {"time": 3670, "pitch": 75, "duration": 12, "velocity": 87}, {"time": 3682, "pitch": 78, "duration": 18, "velocity": 97}, {"time": 3700, "pitch": 80, "duration": 6, "velocity": 93}, {"time": 3706, "pitch": 78, "duration": 6, "velocity": 83}, {"time": 3712, "pitch": 75, "duration": 6, "velocity": 86}, {"time": 3718, "pitch": 77, "duration": 36, "velocity": 99}, {"time": 3754, "pitch": 75, "duration": 18, "velocity": 94}, {"time": 3772, "pitch": 75, "duration": 6, "velocity": 90}, {"time": 3778, "pitch": 75, "duration": 12, "velocity": 87}, {"time": 3790, "pitch": 75, "duration": 12, "velocity": 103}, {"time": 3802, "pitch": 73, "duration": 12, "velocity": 96}, {"time": 3814, "pitch": 75, "duration": 12, "velocity": 101}, {"time": 3826, "pitch": 77, "duration": 6, "velocity": 96}, {"time": 3832, "pitch": 77, "duration": 6, "velocity": 96}, {"time": 3838, "pitch": 77, "duration": 6, "velocity": 93}, {"time": 3844, "pitch": 78, "duration": 6, "velocity": 89}, {"time": 3850, "pitch": 77, "duration": 6, "velocity": 87}, {"time": 3856, "pitch": 72, "duration": 12, "velocity": 72}, {"time": 3868, "pitch": 77, "duration": 30, "velocity": 89}, {"time": 3898, "pitch": 80, "duration": 18, "velocity": 99}, {"time": 3916, "pitch": 80, "duration": 6, "velocity": 90}, {"time": 3922, "pitch": 80, "duration": 12, "velocity": 91}, {"time": 3934, "pitch": 80, "duration": 12, "velocity": 98}, {"time": 3946, "pitch": 78, "duration": 12, "velocity": 91}, {"time": 3958, "pitch": 75, "duration": 12, "velocity": 91}, {"time": 3970, "pitch": 78, "duration": 6, "velocity": 98}, {"time": 3976, "pitch": 78, "duration": 6, "velocity": 90}, {"time": 3982, "pitch": 78, "duration": 6, "velocity": 89}, {"time": 3988, "pitch": 80, "duration": 6, "velocity": 93}, {"time": 3994, "pitch": 78, "duration": 6, "velocity": 92}, {"time": 4000, "pitch": 75, "duration": 12, "velocity": 91}, {"time": 4012, "pitch": 77, "duration": 30, "velocity": 98}, {"time": 4042, "pitch": 75, "duration": 18, "velocity": 105}, {"time": 4060, "pitch": 75, "duration": 6, "velocity": 93}, {"time": 4066, "pitch": 75, "duration": 12, "velocity": 96}, {"time": 4078, "pitch": 75, "duration": 12, "velocity": 98}, {"time": 4090, "pitch": 73, "duration": 12, "velocity": 100}, {"time": 4102, "pitch": 71, "duration": 12, "velocity": 100}, {"time": 4114, "pitch": 69, "duration": 30, "velocity": 100}, {"time": 4144, "pitch": 69, "duration": 6, "velocity": 95}, {"time": 4150, "pitch": 69, "duration": 12, "velocity": 96}, {"time": 4162, "pitch": 70, "duration": 12, "velocity": 92}, {"time": 4174, "pitch": 72, "duration": 12, "velocity": 91}, {"time": 4186, "pitch": 77, "duration": 132, "velocity": 97}, {"time": 4318, "pitch": 77, "duration": 6, "velocity": 87}, {"time": 4324, "pitch": 77, "duration": 6, "velocity": 72}, {"time": 4330, "pitch": 85, "duration": 6, "velocity": 90}, {"time": 4336, "pitch": 84, "duration": 6, "velocity": 87}, {"time": 4342, "pitch": 85, "duration": 6, "velocity": 87}, {"time": 4348, "pitch": 84, "duration": 6, "velocity": 89}, {"time": 4354, "pitch": 85, "duration": 6, "velocity": 86}, {"time": 4360, "pitch": 77, "duration": 6, "velocity": 90}, {"time": 4366, "pitch": 80, "duration": 37, "velocity": 105}, {"time": 4402, "pitch": 82, "duration": 7, "velocity": 91}, {"time": 4408, "pitch": 80, "duration": 7, "velocity": 87}, {"time": 4414, "pitch": 82, "duration": 6, "velocity": 90}, {"time": 4420, "pitch": 80, "duration": 7, "velocity": 89}, {"time": 4426, "pitch": 82, "duration": 7, "velocity": 91}, {"time": 4432, "pitch": 73, "duration": 8, "velocity": 87}, {"time": 4438, "pitch": 77, "duration": 37, "velocity": 98}, {"time": 4474, "pitch": 78, "duration": 7, "velocity": 74}, {"time": 4480, "pitch": 77, "duration": 7, "velocity": 66}, {"time": 4486, "pitch": 78, "duration": 7, "velocity": 79}, {"time": 4492, "pitch": 77, "duration": 8, "velocity": 63}, {"time": 4498, "pitch": 78, "duration": 7, "velocity": 87}, {"time": 4504, "pitch": 75, "duration": 7, "velocity": 82}, {"time": 4510, "pitch": 77, "duration": 7, "velocity": 90}, {"time": 4516, "pitch": 75, "duration": 7, "velocity": 79}, {"time": 4522, "pitch": 77, "duration": 7, "velocity": 77}, {"time": 4528, "pitch": 75, "duration": 7, "velocity": 65}, {"time": 4534, "pitch": 77, "duration": 7, "velocity": 72}, {"time": 4540, "pitch": 73, "duration": 7, "velocity": 72}, {"time": 4546, "pitch": 75, "duration": 6, "velocity": 84}, {"time": 4552, "pitch": 75, "duration": 6, "velocity": 83}, {"time": 4558, "pitch": 75, "duration": 6, "velocity": 84}, {"time": 4564, "pitch": 77, "duration": 6, "velocity": 91}, {"time": 4570, "pitch": 78, "duration": 6, "velocity": 86}, {"time": 4576, "pitch": 75, "duration": 6, "velocity": 91}, {"time": 4582, "pitch": 77, "duration": 24, "velocity": 108}, {"time": 4606, "pitch": 77, "duration": 6, "velocity": 97}, {"time": 4612, "pitch": 77, "duration": 6, "velocity": 87}, {"time": 4618, "pitch": 85, "duration": 6, "velocity": 93}, {"time": 4624, "pitch": 84, "duration": 6, "velocity": 91}, {"time": 4630, "pitch": 85, "duration": 6, "velocity": 90}, {"time": 4636, "pitch": 84, "duration": 6, "velocity": 97}, {"time": 4642, "pitch": 85, "duration": 6, "velocity": 90}, {"time": 4648, "pitch": 82, "duration": 6, "velocity": 100}, {"time": 4654, "pitch": 84, "duration": 37, "velocity": 105}, {"time": 4690, "pitch": 82, "duration": 6, "velocity": 100}, {"time": 4696, "pitch": 80, "duration": 6, "velocity": 84}, {"time": 4702, "pitch": 82, "duration": 6, "velocity": 87}, {"time": 4708, "pitch": 84, "duration": 6, "velocity": 94}, {"time": 4714, "pitch": 85, "duration": 6, "velocity": 91}, {"time": 4720, "pitch": 82, "duration": 6, "velocity": 90}, {"time": 4726, "pitch": 80, "duration": 36, "velocity": 106}, {"time": 4762, "pitch": 78, "duration": 18, "velocity": 96}, {"time": 4780, "pitch": 80, "duration": 6, "velocity": 83}, {"time": 4786, "pitch": 78, "duration": 12, "velocity": 93}, {"time": 4798, "pitch": 77, "duration": 12, "velocity": 89}, {"time": 4810, "pitch": 75, "duration": 12, "velocity": 94}, {"time": 4822, "pitch": 73, "duration": 12, "velocity": 92}, {"time": 4834, "pitch": 75, "duration": 6, "velocity": 97}, {"time": 4840, "pitch": 75, "duration": 6, "velocity": 94}, {"time": 4846, "pitch": 75, "duration": 6, "velocity": 91}, {"time": 4852, "pitch": 77, "duration": 6, "velocity": 93}, {"time": 4858, "pitch": 78, "duration": 6, "velocity": 84}, {"time": 4864, "pitch": 75, "duration": 6, "velocity": 90}, {"time": 4870, "pitch": 77, "duration": 24, "velocity": 91}, {"time": 4894, "pitch": 77, "duration": 6, "velocity": 87}, {"time": 4900, "pitch": 77, "duration": 6, "velocity": 72}, {"time": 4906, "pitch": 85, "duration": 6, "velocity": 90}, {"time": 4912, "pitch": 84, "duration": 6, "velocity": 87}, {"time": 4918, "pitch": 85, "duration": 6, "velocity": 87}, {"time": 4924, "pitch": 84, "duration": 6, "velocity": 89}, {"time": 4930, "pitch": 85, "duration": 6, "velocity": 86}, {"time": 4936, "pitch": 77, "duration": 6, "velocity": 90}, {"time": 4942, "pitch": 80, "duration": 37, "velocity": 105}, {"time": 4978, "pitch": 82, "duration": 7, "velocity": 91}, {"time": 4984, "pitch": 80, "duration": 7, "velocity": 87}, {"time": 4990, "pitch": 82, "duration": 6, "velocity": 90}, {"time": 4996, "pitch": 80, "duration": 7, "velocity": 89}, {"time": 5002, "pitch": 82, "duration": 7, "velocity": 91}, {"time": 5008, "pitch": 73, "duration": 8, "velocity": 87}, {"time": 5014, "pitch": 77, "duration": 37, "velocity": 98}, {"time": 5050, "pitch": 78, "duration": 7, "velocity": 74}, {"time": 5056, "pitch": 77, "duration": 7, "velocity": 66}, {"time": 5062, "pitch": 78, "duration": 7, "velocity": 79}, {"time": 5068, "pitch": 77, "duration": 8, "velocity": 63}, {"time": 5074, "pitch": 78, "duration": 7, "velocity": 87}, {"time": 5080, "pitch": 75, "duration": 7, "velocity": 82}, {"time": 5086, "pitch": 77, "duration": 7, "velocity": 90}, {"time": 5092, "pitch": 75, "duration": 7, "velocity": 79}, {"time": 5098, "pitch": 77, "duration": 7, "velocity": 77}, {"time": 5104, "pitch": 75, "duration": 7, "velocity": 65}, {"time": 5110, "pitch": 77, "duration": 7, "velocity": 72}, {"time": 5116, "pitch": 73, "duration": 7, "velocity": 72}, {"time": 5122, "pitch": 75, "duration": 6, "velocity": 84}, {"time": 5128, "pitch": 75, "duration": 6, "velocity": 83}, {"time": 5134, "pitch": 75, "duration": 6, "velocity": 84}, {"time": 5140, "pitch": 77, "duration": 6, "velocity": 91}, {"time": 5146, "pitch": 78, "duration": 6, "velocity": 86}, {"time": 5152, "pitch": 75, "duration": 12, "velocity": 91}, {"time": 5164, "pitch": 77, "duration": 18, "velocity": 108}, {"time": 5182, "pitch": 77, "duration": 6, "velocity": 97}, {"time": 5188, "pitch": 77, "duration": 6, "velocity": 87}, {"time": 5194, "pitch": 85, "duration": 6, "velocity": 93}, {"time": 5200, "pitch": 84, "duration": 6, "velocity": 91}, {"time": 5206, "pitch": 85, "duration": 6, "velocity": 90}, {"time": 5212, "pitch": 84, "duration": 6, "velocity": 97}, {"time": 5218, "pitch": 85, "duration": 6, "velocity": 90}, {"time": 5224, "pitch": 82, "duration": 6, "velocity": 100}, {"time": 5230, "pitch": 84, "duration": 37, "velocity": 105}, {"time": 5266, "pitch": 82, "duration": 6, "velocity": 100}, {"time": 5272, "pitch": 80, "duration": 6, "velocity": 84}, {"time": 5278, "pitch": 82, "duration": 6, "velocity": 87}, {"time": 5284, "pitch": 84, "duration": 6, "velocity": 94}, {"time": 5290, "pitch": 85, "duration": 6, "velocity": 91}, {"time": 5296, "pitch": 82, "duration": 6, "velocity": 90}, {"time": 5302, "pitch": 80, "duration": 36, "velocity": 106}, {"time": 5338, "pitch": 78, "duration": 18, "velocity": 96}, {"time": 5356, "pitch": 80, "duration": 12, "velocity": 83}, {"time": 5368, "pitch": 78, "duration": 6, "velocity": 93}, {"time": 5374, "pitch": 77, "duration": 12, "velocity": 89}, {"time": 5386, "pitch": 75, "duration": 12, "velocity": 94}, {"time": 5398, "pitch": 73, "duration": 12, "velocity": 92}, {"time": 5410, "pitch": 75, "duration": 6, "velocity": 97}, {"time": 5416, "pitch": 75, "duration": 6, "velocity": 94}, {"time": 5422, "pitch": 75, "duration": 6, "velocity": 91}, {"time": 5428, "pitch": 77, "duration": 6, "velocity": 93}, {"time": 5434, "pitch": 78, "duration": 6, "velocity": 84}, {"time": 5440, "pitch": 75, "duration": 6, "velocity": 90}, {"time": 5446, "pitch": 72, "duration": 36, "velocity": 91}, {"time": 5482, "pitch": 73, "duration": 12, "velocity": 106}, {"time": 5494, "pitch": 75, "duration": 18, "velocity": 103}, {"time": 5512, "pitch": 73, "duration": 6, "velocity": 91}, {"time": 5518, "pitch": 72, "duration": 14, "velocity": 94}, {"time": 5530, "pitch": 70, "duration": 12, "velocity": 97}, {"time": 5542, "pitch": 68, "duration": 12, "velocity": 89}, {"time": 5554, "pitch": 70, "duration": 72, "velocity": 96}, {"time": 5626, "pitch": 73, "duration": 18, "velocity": 108}, {"time": 5644, "pitch": 75, "duration": 6, "velocity": 97}, {"time": 5650, "pitch": 73, "duration": 12, "velocity": 100}, {"time": 5662, "pitch": 72, "duration": 12, "velocity": 97}, {"time": 5674, "pitch": 73, "duration": 24, "velocity": 106}, {"time": 5698, "pitch": 72, "duration": 9, "velocity": 101}, {"time": 5707, "pitch": 70, "duration": 40, "velocity": 97}], "annotations": [{"time": 871, "annotation": {"number": 1, "value": 12}, "group": "control_change"}, {"time": 872, "annotation": {"number": 1, "value": 14}, "group": "control_change"}, {"time": 1803, "annotation": {"number": 1, "value": 12}, "group": "control_change"}, {"time": 1807, "annotation": {"number": 1, "value": 14}, "group": "control_change"}, {"time": 1864, "annotation": {"number": 1, "value": 14}, "group": "control_change"}, {"time": 1865, "annotation": {"number": 1, "value": 16}, "group": "control_change"}, {"time": 1878, "annotation": {"number": 1, "value": 14}, "group": "control_change"}, {"time": 1916, "annotation": {"number": 1, "value": 12}, "group": "control_change"}, {"time": 2036, "annotation": {"number": 1, "value": 16}, "group": "control_change"}, {"time": 2051, "annotation": {"number": 1, "value": 14}, "group": "control_change"}, {"time": 2052, "annotation": {"number": 1, "value": 16}, "group": "control_change"}, {"time": 2156, "annotation": {"number": 1, "value": 16}, "group": "control_change"}, {"time": 2172, "annotation": {"number": 1, "value": 16}, "group": "control_change"}, {"time": 2276, "annotation": {"number": 1, "value": 18}, "group": "control_change"}, {"time": 2291, "annotation": {"number": 1, "value": 16}, "group": "control_change"}, {"time": 3176, "annotation": {"number": 1, "value": 12}, "group": "control_change"}, {"time": 3176, "annotation": {"number": 1, "value": 14}, "group": "control_change"}, {"time": 4107, "annotation": {"number": 1, "value": 12}, "group": "control_change"}, {"time": 4111, "annotation": {"number": 1, "value": 14}, "group": "control_change"}, {"time": 4168, "annotation": {"number": 1, "value": 14}, "group": "control_change"}, {"time": 4169, "annotation": {"number": 1, "value": 16}, "group": "control_change"}, {"time": 4182, "annotation": {"number": 1, "value": 14}, "group": "control_change"}, {"time": 4220, "annotation": {"number": 1, "value": 12}, "group": "control_change"}, {"time": 4340, "annotation": {"number": 1, "value": 16}, "group": "control_change"}, {"time": 4356, "annotation": {"number": 1, "value": 14}, "group": "control_change"}, {"time": 4356, "annotation": {"number": 1, "value": 16}, "group": "control_change"}, {"time": 4461, "annotation": {"number": 1, "value": 16}, "group": "control_change"}, {"time": 4477, "annotation": {"number": 1, "value": 16}, "group": "control_change"}, {"time": 4581, "annotation": {"number": 1, "value": 18}, "group": "control_change"}, {"time": 4595, "annotation": {"number": 1, "value": 16}, "group": "control_change"}]}, {"program": 0, "is_drum": false, "name": "PIANO", "notes": [{"time": 10, "pitch": 46, "duration": 31, "velocity": 62}, {"time": 16, "pitch": 53, "duration": 29, "velocity": 58}, {"time": 22, "pitch": 58, "duration": 19, "velocity": 58}, {"time": 28, "pitch": 65, "duration": 10, "velocity": 52}, {"time": 34, "pitch": 73, "duration": 30, "velocity": 63}, {"time": 40, "pitch": 70, "duration": 15, "velocity": 59}, {"time": 46, "pitch": 46, "duration": 11, "velocity": 69}, {"time": 52, "pitch": 53, "duration": 5, "velocity": 60}, {"time": 58, "pitch": 58, "duration": 9, "velocity": 62}, {"time": 64, "pitch": 60, "duration": 8, "velocity": 60}, {"time": 64, "pitch": 65, "duration": 7, "velocity": 51}, {"time": 70, "pitch": 73, "duration": 8, "velocity": 67}, {"time": 76, "pitch": 70, "duration": 7, "velocity": 63}, {"time": 82, "pitch": 46, "duration": 27, "velocity": 75}, {"time": 82, "pitch": 73, "duration": 11, "velocity": 23}, {"time": 88, "pitch": 53, "duration": 25, "velocity": 56}, {"time": 94, "pitch": 58, "duration": 15, "velocity": 56}, {"time": 100, "pitch": 65, "duration": 6, "velocity": 49}, {"time": 106, "pitch": 73, "duration": 23, "velocity": 61}, {"time": 112, "pitch": 70, "duration": 6, "velocity": 60}, {"time": 118, "pitch": 46, "duration": 31, "velocity": 70}, {"time": 124, "pitch": 53, "duration": 26, "velocity": 62}, {"time": 130, "pitch": 58, "duration": 16, "velocity": 73}, {"time": 136, "pitch": 65, "duration": 4, "velocity": 54}, {"time": 142, "pitch": 70, "duration": 3, "velocity": 53}, {"time": 148, "pitch": 73, "duration": 10, "velocity": 61}, {"time": 154, "pitch": 46, "duration": 25, "velocity": 66}, {"time": 160, "pitch": 53, "duration": 23, "velocity": 62}, {"time": 166, "pitch": 58, "duration": 13, "velocity": 62}, {"time": 172, "pitch": 60, "duration": 7, "velocity": 76}, {"time": 178, "pitch": 61, "duration": 6, "velocity": 70}, {"time": 184, "pitch": 63, "duration": 6, "velocity": 62}, {"time": 190, "pitch": 65, "duration": 13, "velocity": 72}, {"time": 196, "pitch": 53, "duration": 24, "velocity": 73}, {"time": 202, "pitch": 57, "duration": 16, "velocity": 64}, {"time": 208, "pitch": 60, "duration": 8, "velocity": 61}, {"time": 214, "pitch": 61, "duration": 7, "velocity": 69}, {"time": 220, "pitch": 63, "duration": 5, "velocity": 62}, {"time": 226, "pitch": 42, "duration": 5, "velocity": 62}, {"time": 226, "pitch": 44, "duration": 24, "velocity": 57}, {"time": 226, "pitch": 61, "duration": 14, "velocity": 70}, {"time": 226, "pitch": 65, "duration": 14, "velocity": 69}, {"time": 232, "pitch": 51, "duration": 23, "velocity": 63}, {"time": 238, "pitch": 56, "duration": 11, "velocity": 78}, {"time": 244, "pitch": 60, "duration": 7, "velocity": 62}, {"time": 250, "pitch": 61, "duration": 7, "velocity": 67}, {"time": 256, "pitch": 63, "duration": 5, "velocity": 63}, {"time": 262, "pitch": 43, "duration": 26, "velocity": 82}, {"time": 262, "pitch": 58, "duration": 12, "velocity": 64}, {"time": 262, "pitch": 61, "duration": 14, "velocity": 61}, {"time": 262, "pitch": 65, "duration": 13, "velocity": 69}, {"time": 268, "pitch": 51, "duration": 20, "velocity": 64}, {"time": 274, "pitch": 55, "duration": 13, "velocity": 75}, {"time": 280, "pitch": 58, "duration": 9, "velocity": 63}, {"time": 286, "pitch": 61, "duration": 7, "velocity": 62}, {"time": 292, "pitch": 63, "duration": 6, "velocity": 60}, {"time": 298, "pitch": 42, "duration": 24, "velocity": 72}, {"time": 298, "pitch": 58, "duration": 13, "velocity": 61}, {"time": 298, "pitch": 61, "duration": 13, "velocity": 63}, {"time": 298, "pitch": 65, "duration": 12, "velocity": 70}, {"time": 304, "pitch": 49, "duration": 22, "velocity": 66}, {"time": 310, "pitch": 54, "duration": 14, "velocity": 72}, {"time": 316, "pitch": 58, "duration": 6, "velocity": 64}, {"time": 322, "pitch": 61, "duration": 8, "velocity": 60}, {"time": 328, "pitch": 63, "duration": 5, "velocity": 66}, {"time": 334, "pitch": 44, "duration": 22, "velocity": 64}, {"time": 334, "pitch": 60, "duration": 12, "velocity": 64}, {"time": 334, "pitch": 63, "duration": 12, "velocity": 64}, {"time": 334, "pitch": 68, "duration": 21, "velocity": 63}, {"time": 340, "pitch": 51, "duration": 18, "velocity": 70}, {"time": 346, "pitch": 56, "duration": 15, "velocity": 80}, {"time": 352, "pitch": 60, "duration": 8, "velocity": 76}, {"time": 358, "pitch": 61, "duration": 6, "velocity": 60}, {"time": 364, "pitch": 63, "duration": 5, "velocity": 69}, {"time": 370, "pitch": 49, "duration": 11, "velocity": 72}, {"time": 370, "pitch": 61, "duration": 6, "velocity": 72}, {"time": 370, "pitch": 65, "duration": 8, "velocity": 67}, {"time": 376, "pitch": 56, "duration": 6, "velocity": 46}, {"time": 382, "pitch": 61, "duration": 8, "velocity": 52}, {"time": 388, "pitch": 63, "duration": 7, "velocity": 60}, {"time": 394, "pitch": 65, "duration": 5, "velocity": 78}, {"time": 400, "pitch": 73, "duration": 5, "velocity": 70}, {"time": 406, "pitch": 72, "duration": 11, "velocity": 80}, {"time": 406, "pitch": 53, "duration": 25, "velocity": 57}, {"time": 418, "pitch": 70, "duration": 9, "velocity": 82}, {"time": 424, "pitch": 57, "duration": 8, "velocity": 75}, {"time": 430, "pitch": 72, "duration": 4, "velocity": 82}, {"time": 436, "pitch": 65, "duration": 8, "velocity": 55}, {"time": 439, "pitch": 68, "duration": 9, "velocity": 58}, {"time": 442, "pitch": 46, "duration": 24, "velocity": 73}, {"time": 442, "pitch": 73, "duration": 6, "velocity": 75}, {"time": 448, "pitch": 53, "duration": 21, "velocity": 63}, {"time": 454, "pitch": 58, "duration": 13, "velocity": 76}, {"time": 460, "pitch": 60, "duration": 7, "velocity": 88}, {"time": 466, "pitch": 61, "duration": 7, "velocity": 75}, {"time": 472, "pitch": 63, "duration": 5, "velocity": 73}, {"time": 478, "pitch": 65, "duration": 12, "velocity": 73}, {"time": 484, "pitch": 53, "duration": 19, "velocity": 61}, {"time": 490, "pitch": 57, "duration": 12, "velocity": 75}, {"time": 496, "pitch": 60, "duration": 5, "velocity": 75}, {"time": 502, "pitch": 61, "duration": 7, "velocity": 66}, {"time": 508, "pitch": 63, "duration": 5, "velocity": 76}, {"time": 514, "pitch": 44, "duration": 23, "velocity": 70}, {"time": 514, "pitch": 61, "duration": 13, "velocity": 85}, {"time": 514, "pitch": 65, "duration": 12, "velocity": 78}, {"time": 520, "pitch": 51, "duration": 21, "velocity": 69}, {"time": 526, "pitch": 56, "duration": 9, "velocity": 80}, {"time": 526, "pitch": 96, "duration": 11, "velocity": 99}, {"time": 532, "pitch": 60, "duration": 5, "velocity": 80}, {"time": 538, "pitch": 61, "duration": 7, "velocity": 73}, {"time": 538, "pitch": 97, "duration": 13, "velocity": 80}, {"time": 544, "pitch": 63, "duration": 5, "velocity": 67}, {"time": 550, "pitch": 43, "duration": 29, "velocity": 78}, {"time": 550, "pitch": 58, "duration": 8, "velocity": 72}, {"time": 550, "pitch": 61, "duration": 9, "velocity": 73}, {"time": 550, "pitch": 65, "duration": 9, "velocity": 76}, {"time": 556, "pitch": 55, "duration": 21, "velocity": 69}, {"time": 562, "pitch": 58, "duration": 8, "velocity": 78}, {"time": 568, "pitch": 61, "duration": 8, "velocity": 70}, {"time": 574, "pitch": 63, "duration": 5, "velocity": 70}, {"time": 580, "pitch": 65, "duration": 5, "velocity": 70}, {"time": 586, "pitch": 42, "duration": 25, "velocity": 73}, {"time": 586, "pitch": 58, "duration": 13, "velocity": 70}, {"time": 586, "pitch": 61, "duration": 14, "velocity": 72}, {"time": 586, "pitch": 66, "duration": 13, "velocity": 78}, {"time": 592, "pitch": 49, "duration": 20, "velocity": 70}, {"time": 598, "pitch": 54, "duration": 15, "velocity": 76}, {"time": 604, "pitch": 58, "duration": 5, "velocity": 63}, {"time": 610, "pitch": 61, "duration": 5, "velocity": 73}, {"time": 616, "pitch": 63, "duration": 4, "velocity": 69}, {"time": 622, "pitch": 44, "duration": 23, "velocity": 66}, {"time": 622, "pitch": 60, "duration": 13, "velocity": 82}, {"time": 622, "pitch": 63, "duration": 12, "velocity": 85}, {"time": 622, "pitch": 68, "duration": 12, "velocity": 73}, {"time": 628, "pitch": 51, "duration": 22, "velocity": 60}, {"time": 634, "pitch": 56, "duration": 16, "velocity": 85}, {"time": 637, "pitch": 60, "duration": 2, "velocity": 58}, {"time": 658, "pitch": 65, "duration": 8, "velocity": 82}, {"time": 658, "pitch": 46, "duration": 9, "velocity": 64}, {"time": 664, "pitch": 53, "duration": 2, "velocity": 63}, {"time": 667, "pitch": 58, "duration": 8, "velocity": 58}, {"time": 670, "pitch": 70, "duration": 11, "velocity": 97}, {"time": 670, "pitch": 72, "duration": 5, "velocity": 62}, {"time": 673, "pitch": 60, "duration": 42, "velocity": 64}, {"time": 676, "pitch": 70, "duration": 5, "velocity": 62}, {"time": 682, "pitch": 61, "duration": 35, "velocity": 72}, {"time": 682, "pitch": 65, "duration": 8, "velocity": 69}, {"time": 688, "pitch": 70, "duration": 5, "velocity": 67}, {"time": 694, "pitch": 73, "duration": 3, "velocity": 95}, {"time": 730, "pitch": 46, "duration": 23, "velocity": 75}, {"time": 730, "pitch": 61, "duration": 11, "velocity": 66}, {"time": 730, "pitch": 65, "duration": 10, "velocity": 73}, {"time": 730, "pitch": 70, "duration": 10, "velocity": 69}, {"time": 736, "pitch": 53, "duration": 22, "velocity": 66}, {"time": 742, "pitch": 58, "duration": 7, "velocity": 76}, {"time": 748, "pitch": 60, "duration": 5, "velocity": 70}, {"time": 754, "pitch": 61, "duration": 7, "velocity": 62}, {"time": 760, "pitch": 63, "duration": 5, "velocity": 75}, {"time": 766, "pitch": 45, "duration": 25, "velocity": 33}, {"time": 766, "pitch": 61, "duration": 14, "velocity": 75}, {"time": 766, "pitch": 65, "duration": 13, "velocity": 73}, {"time": 772, "pitch": 53, "duration": 18, "velocity": 44}, {"time": 778, "pitch": 57, "duration": 12, "velocity": 70}, {"time": 784, "pitch": 60, "duration": 8, "velocity": 76}, {"time": 790, "pitch": 61, "duration": 7, "velocity": 76}, {"time": 796, "pitch": 63, "duration": 5, "velocity": 72}, {"time": 802, "pitch": 44, "duration": 20, "velocity": 70}, {"time": 802, "pitch": 61, "duration": 14, "velocity": 75}, {"time": 802, "pitch": 65, "duration": 12, "velocity": 73}, {"time": 808, "pitch": 51, "duration": 17, "velocity": 57}, {"time": 814, "pitch": 56, "duration": 6, "velocity": 70}, {"time": 820, "pitch": 60, "duration": 7, "velocity": 82}, {"time": 826, "pitch": 61, "duration": 7, "velocity": 66}, {"time": 832, "pitch": 63, "duration": 6, "velocity": 64}, {"time": 838, "pitch": 43, "duration": 24, "velocity": 63}, {"time": 838, "pitch": 55, "duration": 25, "velocity": 66}, {"time": 838, "pitch": 58, "duration": 24, "velocity": 66}, {"time": 838, "pitch": 61, "duration": 25, "velocity": 66}, {"time": 838, "pitch": 65, "duration": 24, "velocity": 73}, {"time": 862, "pitch": 68, "duration": 6, "velocity": 70}, {"time": 874, "pitch": 54, "duration": 24, "velocity": 69}, {"time": 874, "pitch": 61, "duration": 8, "velocity": 61}, {"time": 874, "pitch": 66, "duration": 9, "velocity": 69}, {"time": 880, "pitch": 58, "duration": 18, "velocity": 58}, {"time": 886, "pitch": 61, "duration": 5, "velocity": 72}, {"time": 892, "pitch": 66, "duration": 7, "velocity": 78}, {"time": 898, "pitch": 70, "duration": 6, "velocity": 78}, {"time": 904, "pitch": 73, "duration": 7, "velocity": 72}, {"time": 910, "pitch": 44, "duration": 11, "velocity": 72}, {"time": 910, "pitch": 72, "duration": 20, "velocity": 93}, {"time": 916, "pitch": 51, "duration": 6, "velocity": 62}, {"time": 922, "pitch": 56, "duration": 9, "velocity": 42}, {"time": 928, "pitch": 58, "duration": 9, "velocity": 37}, {"time": 934, "pitch": 60, "duration": 3, "velocity": 72}, {"time": 940, "pitch": 73, "duration": 4, "velocity": 60}, {"time": 943, "pitch": 75, "duration": 3, "velocity": 64}, {"time": 946, "pitch": 49, "duration": 9, "velocity": 72}, {"time": 946, "pitch": 68, "duration": 15, "velocity": 80}, {"time": 946, "pitch": 77, "duration": 20, "velocity": 76}, {"time": 952, "pitch": 56, "duration": 6, "velocity": 58}, {"time": 958, "pitch": 60, "duration": 9, "velocity": 58}, {"time": 964, "pitch": 61, "duration": 4, "velocity": 67}, {"time": 970, "pitch": 68, "duration": 5, "velocity": 80}, {"time": 976, "pitch": 78, "duration": 8, "velocity": 60}, {"time": 982, "pitch": 53, "duration": 23, "velocity": 54}, {"time": 982, "pitch": 57, "duration": 24, "velocity": 63}, {"time": 982, "pitch": 60, "duration": 24, "velocity": 64}, {"time": 982, "pitch": 63, "duration": 23, "velocity": 62}, {"time": 982, "pitch": 69, "duration": 13, "velocity": 76}, {"time": 982, "pitch": 75, "duration": 11, "velocity": 73}, {"time": 994, "pitch": 72, "duration": 13, "velocity": 78}, {"time": 1006, "pitch": 73, "duration": 7, "velocity": 73}, {"time": 1012, "pitch": 70, "duration": 6, "velocity": 46}, {"time": 1015, "pitch": 73, "duration": 3, "velocity": 39}, {"time": 1018, "pitch": 58, "duration": 24, "velocity": 67}, {"time": 1018, "pitch": 77, "duration": 16, "velocity": 72}, {"time": 1024, "pitch": 65, "duration": 23, "velocity": 69}, {"time": 1030, "pitch": 70, "duration": 11, "velocity": 73}, {"time": 1036, "pitch": 72, "duration": 8, "velocity": 85}, {"time": 1042, "pitch": 73, "duration": 7, "velocity": 70}, {"time": 1048, "pitch": 75, "duration": 5, "velocity": 67}, {"time": 1054, "pitch": 57, "duration": 26, "velocity": 73}, {"time": 1054, "pitch": 73, "duration": 15, "velocity": 69}, {"time": 1054, "pitch": 77, "duration": 12, "velocity": 69}, {"time": 1060, "pitch": 65, "duration": 17, "velocity": 73}, {"time": 1066, "pitch": 69, "duration": 10, "velocity": 72}, {"time": 1072, "pitch": 72, "duration": 7, "velocity": 93}, {"time": 1078, "pitch": 73, "duration": 7, "velocity": 67}, {"time": 1084, "pitch": 75, "duration": 5, "velocity": 69}, {"time": 1090, "pitch": 56, "duration": 21, "velocity": 66}, {"time": 1090, "pitch": 73, "duration": 13, "velocity": 75}, {"time": 1090, "pitch": 77, "duration": 13, "velocity": 78}, {"time": 1096, "pitch": 63, "duration": 17, "velocity": 63}, {"time": 1102, "pitch": 68, "duration": 6, "velocity": 73}, {"time": 1108, "pitch": 72, "duration": 5, "velocity": 80}, {"time": 1114, "pitch": 73, "duration": 7, "velocity": 59}, {"time": 1120, "pitch": 80, "duration": 4, "velocity": 66}, {"time": 1126, "pitch": 55, "duration": 26, "velocity": 75}, {"time": 1126, "pitch": 70, "duration": 15, "velocity": 75}, {"time": 1126, "pitch": 77, "duration": 21, "velocity": 73}, {"time": 1138, "pitch": 63, "duration": 14, "velocity": 59}, {"time": 1150, "pitch": 73, "duration": 4, "velocity": 70}, {"time": 1162, "pitch": 54, "duration": 22, "velocity": 66}, {"time": 1162, "pitch": 70, "duration": 11, "velocity": 67}, {"time": 1162, "pitch": 75, "duration": 10, "velocity": 85}, {"time": 1168, "pitch": 61, "duration": 16, "velocity": 67}, {"time": 1174, "pitch": 66, "duration": 6, "velocity": 85}, {"time": 1180, "pitch": 68, "duration": 7, "velocity": 72}, {"time": 1186, "pitch": 70, "duration": 5, "velocity": 70}, {"time": 1192, "pitch": 73, "duration": 5, "velocity": 62}, {"time": 1198, "pitch": 44, "duration": 26, "velocity": 57}, {"time": 1198, "pitch": 63, "duration": 14, "velocity": 60}, {"time": 1198, "pitch": 72, "duration": 14, "velocity": 78}, {"time": 1198, "pitch": 73, "duration": 1, "velocity": 45}, {"time": 1204, "pitch": 51, "duration": 23, "velocity": 67}, {"time": 1210, "pitch": 56, "duration": 15, "velocity": 62}, {"time": 1210, "pitch": 70, "duration": 11, "velocity": 78}, {"time": 1222, "pitch": 68, "duration": 2, "velocity": 62}, {"time": 1234, "pitch": 46, "duration": 31, "velocity": 70}, {"time": 1234, "pitch": 61, "duration": 12, "velocity": 64}, {"time": 1234, "pitch": 70, "duration": 9, "velocity": 70}, {"time": 1240, "pitch": 53, "duration": 30, "velocity": 66}, {"time": 1246, "pitch": 58, "duration": 21, "velocity": 67}, {"time": 1252, "pitch": 60, "duration": 6, "velocity": 54}, {"time": 1258, "pitch": 61, "duration": 3, "velocity": 60}, {"time": 1264, "pitch": 65, "duration": 7, "velocity": 69}, {"time": 1270, "pitch": 46, "duration": 36, "velocity": 70}, {"time": 1270, "pitch": 61, "duration": 12, "velocity": 56}, {"time": 1270, "pitch": 65, "duration": 1, "velocity": 56}, {"time": 1276, "pitch": 53, "duration": 28, "velocity": 49}, {"time": 1282, "pitch": 58, "duration": 22, "velocity": 57}, {"time": 1288, "pitch": 60, "duration": 6, "velocity": 64}, {"time": 1294, "pitch": 61, "duration": 5, "velocity": 61}, {"time": 1300, "pitch": 65, "duration": 5, "velocity": 67}, {"time": 1306, "pitch": 44, "duration": 61, "velocity": 76}, {"time": 1306, "pitch": 60, "duration": 14, "velocity": 66}, {"time": 1306, "pitch": 68, "duration": 15, "velocity": 56}, {"time": 1312, "pitch": 51, "duration": 55, "velocity": 62}, {"time": 1318, "pitch": 56, "duration": 16, "velocity": 88}, {"time": 1324, "pitch": 60, "duration": 8, "velocity": 67}, {"time": 1330, "pitch": 63, "duration": 10, "velocity": 60}, {"time": 1336, "pitch": 60, "duration": 8, "velocity": 57}, {"time": 1342, "pitch": 68, "duration": 8, "velocity": 73}, {"time": 1348, "pitch": 60, "duration": 9, "velocity": 61}, {"time": 1354, "pitch": 63, "duration": 8, "velocity": 57}, {"time": 1360, "pitch": 68, "duration": 9, "velocity": 72}, {"time": 1366, "pitch": 56, "duration": 11, "velocity": 76}, {"time": 1372, "pitch": 60, "duration": 8, "velocity": 63}, {"time": 1378, "pitch": 51, "duration": 27, "velocity": 67}, {"time": 1378, "pitch": 68, "duration": 8, "velocity": 73}, {"time": 1384, "pitch": 58, "duration": 19, "velocity": 53}, {"time": 1390, "pitch": 63, "duration": 11, "velocity": 88}, {"time": 1396, "pitch": 65, "duration": 8, "velocity": 75}, {"time": 1402, "pitch": 66, "duration": 7, "velocity": 61}, {"time": 1408, "pitch": 68, "duration": 5, "velocity": 56}, {"time": 1414, "pitch": 46, "duration": 25, "velocity": 66}, {"time": 1414, "pitch": 73, "duration": 7, "velocity": 70}, {"time": 1420, "pitch": 53, "duration": 20, "velocity": 63}, {"time": 1426, "pitch": 58, "duration": 12, "velocity": 75}, {"time": 1432, "pitch": 60, "duration": 8, "velocity": 70}, {"time": 1438, "pitch": 61, "duration": 6, "velocity": 58}, {"time": 1444, "pitch": 63, "duration": 19, "velocity": 51}, {"time": 1450, "pitch": 44, "duration": 31, "velocity": 70}, {"time": 1450, "pitch": 60, "duration": 12, "velocity": 75}, {"time": 1450, "pitch": 68, "duration": 11, "velocity": 78}, {"time": 1456, "pitch": 51, "duration": 17, "velocity": 59}, {"time": 1462, "pitch": 56, "duration": 20, "velocity": 76}, {"time": 1468, "pitch": 60, "duration": 6, "velocity": 63}, {"time": 1474, "pitch": 63, "duration": 3, "velocity": 69}, {"time": 1480, "pitch": 51, "duration": 5, "velocity": 67}, {"time": 1480, "pitch": 63, "duration": 3, "velocity": 62}, {"time": 1486, "pitch": 44, "duration": 27, "velocity": 67}, {"time": 1486, "pitch": 63, "duration": 4, "velocity": 64}, {"time": 1486, "pitch": 68, "duration": 4, "velocity": 67}, {"time": 1486, "pitch": 72, "duration": 9, "velocity": 72}, {"time": 1492, "pitch": 51, "duration": 23, "velocity": 64}, {"time": 1498, "pitch": 65, "duration": 2, "velocity": 60}, {"time": 1498, "pitch": 68, "duration": 2, "velocity": 72}, {"time": 1498, "pitch": 73, "duration": 3, "velocity": 76}, {"time": 1504, "pitch": 56, "duration": 6, "velocity": 40}, {"time": 1510, "pitch": 68, "duration": 3, "velocity": 69}, {"time": 1510, "pitch": 75, "duration": 4, "velocity": 73}, {"time": 1516, "pitch": 56, "duration": 2, "velocity": 25}, {"time": 1522, "pitch": 46, "duration": 10, "velocity": 61}, {"time": 1522, "pitch": 65, "duration": 25, "velocity": 75}, {"time": 1522, "pitch": 73, "duration": 23, "velocity": 80}, {"time": 1528, "pitch": 53, "duration": 5, "velocity": 64}, {"time": 1534, "pitch": 58, "duration": 8, "velocity": 66}, {"time": 1540, "pitch": 60, "duration": 13, "velocity": 50}, {"time": 1546, "pitch": 61, "duration": 30, "velocity": 67}, {"time": 1552, "pitch": 65, "duration": 9, "velocity": 78}, {"time": 1558, "pitch": 73, "duration": 7, "velocity": 75}, {"time": 1564, "pitch": 65, "duration": 8, "velocity": 61}, {"time": 1570, "pitch": 72, "duration": 5, "velocity": 95}, {"time": 1576, "pitch": 70, "duration": 5, "velocity": 75}, {"time": 1582, "pitch": 68, "duration": 4, "velocity": 72}, {"time": 1588, "pitch": 70, "duration": 5, "velocity": 61}, {"time": 1591, "pitch": 63, "duration": 26, "velocity": 49}, {"time": 1592, "pitch": 68, "duration": 25, "velocity": 63}, {"time": 1594, "pitch": 44, "duration": 10, "velocity": 70}, {"time": 1594, "pitch": 75, "duration": 29, "velocity": 76}, {"time": 1600, "pitch": 51, "duration": 6, "velocity": 66}, {"time": 1606, "pitch": 56, "duration": 7, "velocity": 75}, {"time": 1612, "pitch": 58, "duration": 9, "velocity": 60}, {"time": 1618, "pitch": 60, "duration": 3, "velocity": 70}, {"time": 1624, "pitch": 63, "duration": 9, "velocity": 67}, {"time": 1630, "pitch": 44, "duration": 10, "velocity": 72}, {"time": 1630, "pitch": 75, "duration": 8, "velocity": 76}, {"time": 1636, "pitch": 51, "duration": 6, "velocity": 49}, {"time": 1636, "pitch": 63, "duration": 8, "velocity": 50}, {"time": 1642, "pitch": 56, "duration": 8, "velocity": 75}, {"time": 1642, "pitch": 73, "duration": 10, "velocity": 80}, {"time": 1648, "pitch": 58, "duration": 8, "velocity": 63}, {"time": 1648, "pitch": 63, "duration": 3, "velocity": 35}, {"time": 1654, "pitch": 60, "duration": 3, "velocity": 72}, {"time": 1654, "pitch": 72, "duration": 11, "velocity": 97}, {"time": 1666, "pitch": 51, "duration": 27, "velocity": 70}, {"time": 1666, "pitch": 66, "duration": 13, "velocity": 82}, {"time": 1666, "pitch": 70, "duration": 11, "velocity": 73}, {"time": 1672, "pitch": 58, "duration": 22, "velocity": 58}, {"time": 1678, "pitch": 63, "duration": 13, "velocity": 78}, {"time": 1684, "pitch": 65, "duration": 9, "velocity": 80}, {"time": 1690, "pitch": 66, "duration": 9, "velocity": 70}, {"time": 1696, "pitch": 73, "duration": 4, "velocity": 66}, {"time": 1702, "pitch": 46, "duration": 24, "velocity": 70}, {"time": 1702, "pitch": 73, "duration": 6, "velocity": 67}, {"time": 1708, "pitch": 53, "duration": 21, "velocity": 57}, {"time": 1714, "pitch": 58, "duration": 10, "velocity": 80}, {"time": 1720, "pitch": 60, "duration": 8, "velocity": 75}, {"time": 1726, "pitch": 61, "duration": 7, "velocity": 72}, {"time": 1732, "pitch": 63, "duration": 6, "velocity": 75}, {"time": 1738, "pitch": 47, "duration": 24, "velocity": 64}, {"time": 1738, "pitch": 71, "duration": 19, "velocity": 76}, {"time": 1744, "pitch": 54, "duration": 27, "velocity": 57}, {"time": 1750, "pitch": 59, "duration": 15, "velocity": 69}, {"time": 1756, "pitch": 63, "duration": 8, "velocity": 63}, {"time": 1762, "pitch": 66, "duration": 9, "velocity": 67}, {"time": 1768, "pitch": 71, "duration": 10, "velocity": 73}, {"time": 1774, "pitch": 47, "duration": 21, "velocity": 67}, {"time": 1774, "pitch": 73, "duration": 15, "velocity": 64}, {"time": 1780, "pitch": 54, "duration": 15, "velocity": 53}, {"time": 1786, "pitch": 59, "duration": 11, "velocity": 88}, {"time": 1792, "pitch": 63, "duration": 9, "velocity": 73}, {"time": 1798, "pitch": 66, "duration": 7, "velocity": 62}, {"time": 1804, "pitch": 71, "duration": 14, "velocity": 97}, {"time": 1810, "pitch": 53, "duration": 22, "velocity": 70}, {"time": 1816, "pitch": 58, "duration": 16, "velocity": 63}, {"time": 1822, "pitch": 60, "duration": 10, "velocity": 61}, {"time": 1828, "pitch": 65, "duration": 3, "velocity": 88}, {"time": 1834, "pitch": 70, "duration": 6, "velocity": 93}, {"time": 1840, "pitch": 72, "duration": 6, "velocity": 78}, {"time": 1846, "pitch": 41, "duration": 5, "velocity": 73}, {"time": 1846, "pitch": 65, "duration": 18, "velocity": 78}, {"time": 1846, "pitch": 69, "duration": 13, "velocity": 103}, {"time": 1852, "pitch": 53, "duration": 8, "velocity": 67}, {"time": 1858, "pitch": 58, "duration": 10, "velocity": 88}, {"time": 1858, "pitch": 70, "duration": 12, "velocity": 91}, {"time": 1864, "pitch": 60, "duration": 3, "velocity": 59}, {"time": 1870, "pitch": 65, "duration": 2, "velocity": 49}, {"time": 1870, "pitch": 72, "duration": 2, "velocity": 93}, {"time": 1879, "pitch": 65, "duration": 23, "velocity": 52}, {"time": 1882, "pitch": 41, "duration": 6, "velocity": 73}, {"time": 1882, "pitch": 77, "duration": 23, "velocity": 88}, {"time": 1888, "pitch": 53, "duration": 8, "velocity": 82}, {"time": 1894, "pitch": 58, "duration": 12, "velocity": 47}, {"time": 1900, "pitch": 60, "duration": 7, "velocity": 55}, {"time": 1906, "pitch": 65, "duration": 13, "velocity": 63}, {"time": 1918, "pitch": 41, "duration": 23, "velocity": 75}, {"time": 1918, "pitch": 77, "duration": 5, "velocity": 82}, {"time": 1924, "pitch": 65, "duration": 6, "velocity": 76}, {"time": 1930, "pitch": 75, "duration": 6, "velocity": 91}, {"time": 1936, "pitch": 53, "duration": 8, "velocity": 47}, {"time": 1936, "pitch": 65, "duration": 9, "velocity": 80}, {"time": 1942, "pitch": 73, "duration": 6, "velocity": 103}, {"time": 1948, "pitch": 72, "duration": 5, "velocity": 80}, {"time": 1954, "pitch": 53, "duration": 31, "velocity": 69}, {"time": 1954, "pitch": 77, "duration": 8, "velocity": 67}, {"time": 1960, "pitch": 60, "duration": 13, "velocity": 66}, {"time": 1960, "pitch": 75, "duration": 5, "velocity": 64}, {"time": 1966, "pitch": 72, "duration": 6, "velocity": 75}, {"time": 1972, "pitch": 70, "duration": 6, "velocity": 72}, {"time": 1978, "pitch": 65, "duration": 4, "velocity": 60}, {"time": 1984, "pitch": 60, "duration": 5, "velocity": 41}, {"time": 1990, "pitch": 58, "duration": 6, "velocity": 78}, {"time": 1996, "pitch": 53, "duration": 7, "velocity": 80}, {"time": 2002, "pitch": 58, "duration": 7, "velocity": 59}, {"time": 2008, "pitch": 60, "duration": 3, "velocity": 73}, {"time": 2014, "pitch": 65, "duration": 5, "velocity": 72}, {"time": 2020, "pitch": 70, "duration": 6, "velocity": 53}, {"time": 2026, "pitch": 46, "duration": 11, "velocity": 73}, {"time": 2026, "pitch": 73, "duration": 27, "velocity": 91}, {"time": 2032, "pitch": 53, "duration": 6, "velocity": 53}, {"time": 2038, "pitch": 58, "duration": 8, "velocity": 75}, {"time": 2044, "pitch": 60, "duration": 8, "velocity": 57}, {"time": 2050, "pitch": 61, "duration": 2, "velocity": 72}, {"time": 2056, "pitch": 65, "duration": 8, "velocity": 70}, {"time": 2062, "pitch": 41, "duration": 6, "velocity": 91}, {"time": 2062, "pitch": 72, "duration": 20, "velocity": 67}, {"time": 2068, "pitch": 53, "duration": 8, "velocity": 50}, {"time": 2074, "pitch": 56, "duration": 7, "velocity": 95}, {"time": 2080, "pitch": 60, "duration": 2, "velocity": 66}, {"time": 2086, "pitch": 72, "duration": 7, "velocity": 58}, {"time": 2092, "pitch": 73, "duration": 8, "velocity": 88}, {"time": 2098, "pitch": 42, "duration": 24, "velocity": 67}, {"time": 2098, "pitch": 58, "duration": 12, "velocity": 72}, {"time": 2098, "pitch": 61, "duration": 12, "velocity": 80}, {"time": 2098, "pitch": 66, "duration": 11, "velocity": 78}, {"time": 2104, "pitch": 49, "duration": 19, "velocity": 67}, {"time": 2110, "pitch": 54, "duration": 15, "velocity": 78}, {"time": 2116, "pitch": 58, "duration": 9, "velocity": 93}, {"time": 2122, "pitch": 61, "duration": 7, "velocity": 67}, {"time": 2128, "pitch": 66, "duration": 7, "velocity": 78}, {"time": 2134, "pitch": 49, "duration": 24, "velocity": 72}, {"time": 2134, "pitch": 65, "duration": 10, "velocity": 85}, {"time": 2140, "pitch": 56, "duration": 20, "velocity": 54}, {"time": 2146, "pitch": 61, "duration": 13, "velocity": 75}, {"time": 2152, "pitch": 63, "duration": 8, "velocity": 73}, {"time": 2158, "pitch": 65, "duration": 5, "velocity": 63}, {"time": 2164, "pitch": 68, "duration": 7, "velocity": 85}, {"time": 2170, "pitch": 51, "duration": 26, "velocity": 75}, {"time": 2170, "pitch": 66, "duration": 15, "velocity": 91}, {"time": 2176, "pitch": 58, "duration": 28, "velocity": 64}, {"time": 2182, "pitch": 63, "duration": 11, "velocity": 75}, {"time": 2188, "pitch": 65, "duration": 8, "velocity": 69}, {"time": 2194, "pitch": 66, "duration": 7, "velocity": 63}, {"time": 2200, "pitch": 68, "duration": 6, "velocity": 53}, {"time": 2206, "pitch": 49, "duration": 21, "velocity": 72}, {"time": 2206, "pitch": 65, "duration": 13, "velocity": 82}, {"time": 2212, "pitch": 58, "duration": 15, "velocity": 55}, {"time": 2218, "pitch": 61, "duration": 7, "velocity": 69}, {"time": 2224, "pitch": 63, "duration": 6, "velocity": 78}, {"time": 2230, "pitch": 65, "duration": 6, "velocity": 61}, {"time": 2236, "pitch": 66, "duration": 5, "velocity": 56}, {"time": 2242, "pitch": 48, "duration": 25, "velocity": 69}, {"time": 2242, "pitch": 63, "duration": 13, "velocity": 82}, {"time": 2248, "pitch": 56, "duration": 17, "velocity": 54}, {"time": 2254, "pitch": 58, "duration": 6, "velocity": 49}, {"time": 2254, "pitch": 60, "duration": 6, "velocity": 51}, {"time": 2260, "pitch": 63, "duration": 5, "velocity": 78}, {"time": 2266, "pitch": 66, "duration": 6, "velocity": 85}, {"time": 2272, "pitch": 70, "duration": 5, "velocity": 95}, {"time": 2278, "pitch": 41, "duration": 5, "velocity": 70}, {"time": 2278, "pitch": 65, "duration": 19, "velocity": 88}, {"time": 2284, "pitch": 53, "duration": 8, "velocity": 64}, {"time": 2290, "pitch": 58, "duration": 14, "velocity": 97}, {"time": 2296, "pitch": 60, "duration": 8, "velocity": 66}, {"time": 2302, "pitch": 65, "duration": 8, "velocity": 78}, {"time": 2308, "pitch": 70, "duration": 6, "velocity": 82}, {"time": 2314, "pitch": 46, "duration": 25, "velocity": 85}, {"time": 2320, "pitch": 53, "duration": 31, "velocity": 66}, {"time": 2326, "pitch": 58, "duration": 11, "velocity": 91}, {"time": 2332, "pitch": 60, "duration": 7, "velocity": 82}, {"time": 2338, "pitch": 61, "duration": 7, "velocity": 76}, {"time": 2344, "pitch": 63, "duration": 6, "velocity": 62}, {"time": 2350, "pitch": 44, "duration": 21, "velocity": 67}, {"time": 2350, "pitch": 60, "duration": 10, "velocity": 80}, {"time": 2356, "pitch": 53, "duration": 17, "velocity": 55}, {"time": 2362, "pitch": 56, "duration": 13, "velocity": 62}, {"time": 2368, "pitch": 65, "duration": 5, "velocity": 51}, {"time": 2374, "pitch": 68, "duration": 6, "velocity": 82}, {"time": 2380, "pitch": 72, "duration": 7, "velocity": 67}, {"time": 2386, "pitch": 54, "duration": 20, "velocity": 64}, {"time": 2386, "pitch": 70, "duration": 9, "velocity": 97}, {"time": 2392, "pitch": 61, "duration": 16, "velocity": 73}, {"time": 2398, "pitch": 66, "duration": 7, "velocity": 72}, {"time": 2404, "pitch": 73, "duration": 4, "velocity": 95}, {"time": 2410, "pitch": 75, "duration": 6, "velocity": 80}, {"time": 2416, "pitch": 78, "duration": 23, "velocity": 70}, {"time": 2422, "pitch": 49, "duration": 9, "velocity": 72}, {"time": 2422, "pitch": 68, "duration": 27, "velocity": 76}, {"time": 2422, "pitch": 77, "duration": 26, "velocity": 82}, {"time": 2428, "pitch": 56, "duration": 5, "velocity": 60}, {"time": 2434, "pitch": 61, "duration": 9, "velocity": 59}, {"time": 2440, "pitch": 63, "duration": 9, "velocity": 61}, {"time": 2446, "pitch": 65, "duration": 2, "velocity": 69}, {"time": 2452, "pitch": 77, "duration": 7, "velocity": 61}, {"time": 2458, "pitch": 54, "duration": 24, "velocity": 73}, {"time": 2458, "pitch": 70, "duration": 12, "velocity": 73}, {"time": 2458, "pitch": 78, "duration": 13, "velocity": 72}, {"time": 2464, "pitch": 61, "duration": 22, "velocity": 64}, {"time": 2470, "pitch": 66, "duration": 12, "velocity": 75}, {"time": 2476, "pitch": 70, "duration": 5, "velocity": 88}, {"time": 2482, "pitch": 70, "duration": 3, "velocity": 35}, {"time": 2482, "pitch": 73, "duration": 6, "velocity": 80}, {"time": 2488, "pitch": 78, "duration": 8, "velocity": 72}, {"time": 2494, "pitch": 53, "duration": 17, "velocity": 69}, {"time": 2494, "pitch": 68, "duration": 13, "velocity": 73}, {"time": 2494, "pitch": 77, "duration": 13, "velocity": 70}, {"time": 2500, "pitch": 61, "duration": 11, "velocity": 53}, {"time": 2506, "pitch": 65, "duration": 4, "velocity": 69}, {"time": 2512, "pitch": 68, "duration": 4, "velocity": 88}, {"time": 2518, "pitch": 73, "duration": 5, "velocity": 76}, {"time": 2524, "pitch": 75, "duration": 12, "velocity": 78}, {"time": 2530, "pitch": 48, "duration": 21, "velocity": 70}, {"time": 2530, "pitch": 70, "duration": 7, "velocity": 76}, {"time": 2536, "pitch": 54, "duration": 16, "velocity": 58}, {"time": 2542, "pitch": 60, "duration": 8, "velocity": 70}, {"time": 2548, "pitch": 63, "duration": 8, "velocity": 85}, {"time": 2554, "pitch": 66, "duration": 6, "velocity": 78}, {"time": 2560, "pitch": 70, "duration": 6, "velocity": 97}, {"time": 2566, "pitch": 53, "duration": 26, "velocity": 63}, {"time": 2566, "pitch": 72, "duration": 11, "velocity": 78}, {"time": 2572, "pitch": 60, "duration": 19, "velocity": 63}, {"time": 2578, "pitch": 65, "duration": 11, "velocity": 85}, {"time": 2584, "pitch": 77, "duration": 8, "velocity": 75}, {"time": 2590, "pitch": 82, "duration": 5, "velocity": 73}, {"time": 2596, "pitch": 84, "duration": 5, "velocity": 70}, {"time": 2602, "pitch": 54, "duration": 22, "velocity": 67}, {"time": 2602, "pitch": 78, "duration": 17, "velocity": 76}, {"time": 2608, "pitch": 61, "duration": 17, "velocity": 60}, {"time": 2614, "pitch": 66, "duration": 9, "velocity": 88}, {"time": 2620, "pitch": 70, "duration": 5, "velocity": 88}, {"time": 2626, "pitch": 70, "duration": 1, "velocity": 37}, {"time": 2626, "pitch": 73, "duration": 6, "velocity": 88}, {"time": 2632, "pitch": 78, "duration": 3, "velocity": 75}, {"time": 2638, "pitch": 44, "duration": 9, "velocity": 70}, {"time": 2638, "pitch": 80, "duration": 28, "velocity": 82}, {"time": 2644, "pitch": 51, "duration": 6, "velocity": 52}, {"time": 2650, "pitch": 56, "duration": 8, "velocity": 73}, {"time": 2656, "pitch": 58, "duration": 9, "velocity": 58}, {"time": 2662, "pitch": 60, "duration": 3, "velocity": 66}, {"time": 2668, "pitch": 73, "duration": 6, "velocity": 50}, {"time": 2671, "pitch": 75, "duration": 4, "velocity": 66}, {"time": 2674, "pitch": 46, "duration": 10, "velocity": 67}, {"time": 2674, "pitch": 77, "duration": 8, "velocity": 82}, {"time": 2680, "pitch": 53, "duration": 6, "velocity": 64}, {"time": 2686, "pitch": 58, "duration": 8, "velocity": 55}, {"time": 2692, "pitch": 60, "duration": 8, "velocity": 62}, {"time": 2692, "pitch": 61, "duration": 4, "velocity": 73}, {"time": 2692, "pitch": 77, "duration": 3, "velocity": 70}, {"time": 2692, "pitch": 85, "duration": 3, "velocity": 78}, {"time": 2698, "pitch": 77, "duration": 3, "velocity": 73}, {"time": 2698, "pitch": 85, "duration": 3, "velocity": 75}, {"time": 2704, "pitch": 75, "duration": 3, "velocity": 67}, {"time": 2704, "pitch": 84, "duration": 3, "velocity": 75}, {"time": 2710, "pitch": 46, "duration": 10, "velocity": 75}, {"time": 2710, "pitch": 75, "duration": 3, "velocity": 82}, {"time": 2710, "pitch": 84, "duration": 3, "velocity": 70}, {"time": 2716, "pitch": 53, "duration": 7, "velocity": 61}, {"time": 2716, "pitch": 73, "duration": 3, "velocity": 70}, {"time": 2716, "pitch": 82, "duration": 2, "velocity": 75}, {"time": 2722, "pitch": 58, "duration": 8, "velocity": 78}, {"time": 2722, "pitch": 73, "duration": 4, "velocity": 76}, {"time": 2722, "pitch": 82, "duration": 8, "velocity": 73}, {"time": 2728, "pitch": 60, "duration": 8, "velocity": 54}, {"time": 2728, "pitch": 80, "duration": 8, "velocity": 60}, {"time": 2734, "pitch": 61, "duration": 3, "velocity": 82}, {"time": 2734, "pitch": 77, "duration": 6, "velocity": 64}, {"time": 2740, "pitch": 73, "duration": 9, "velocity": 72}, {"time": 2746, "pitch": 54, "duration": 21, "velocity": 73}, {"time": 2746, "pitch": 82, "duration": 9, "velocity": 70}, {"time": 2752, "pitch": 61, "duration": 14, "velocity": 48}, {"time": 2758, "pitch": 66, "duration": 7, "velocity": 88}, {"time": 2764, "pitch": 70, "duration": 8, "velocity": 85}, {"time": 2770, "pitch": 73, "duration": 6, "velocity": 85}, {"time": 2776, "pitch": 77, "duration": 6, "velocity": 91}, {"time": 2782, "pitch": 44, "duration": 14, "velocity": 64}, {"time": 2782, "pitch": 72, "duration": 20, "velocity": 75}, {"time": 2782, "pitch": 80, "duration": 13, "velocity": 75}, {"time": 2788, "pitch": 51, "duration": 7, "velocity": 46}, {"time": 2794, "pitch": 56, "duration": 13, "velocity": 82}, {"time": 2794, "pitch": 75, "duration": 13, "velocity": 85}, {"time": 2806, "pitch": 58, "duration": 3, "velocity": 76}, {"time": 2806, "pitch": 73, "duration": 7, "velocity": 93}, {"time": 2812, "pitch": 72, "duration": 7, "velocity": 69}, {"time": 2818, "pitch": 46, "duration": 62, "velocity": 78}, {"time": 2818, "pitch": 70, "duration": 7, "velocity": 82}, {"time": 2824, "pitch": 53, "duration": 55, "velocity": 56}, {"time": 2830, "pitch": 58, "duration": 19, "velocity": 73}, {"time": 2836, "pitch": 60, "duration": 8, "velocity": 66}, {"time": 2842, "pitch": 61, "duration": 6, "velocity": 64}, {"time": 2848, "pitch": 63, "duration": 6, "velocity": 66}, {"time": 2854, "pitch": 58, "duration": 25, "velocity": 55}, {"time": 2854, "pitch": 61, "duration": 25, "velocity": 72}, {"time": 2854, "pitch": 65, "duration": 26, "velocity": 72}, {"time": 3034, "pitch": 46, "duration": 23, "velocity": 75}, {"time": 3034, "pitch": 61, "duration": 11, "velocity": 66}, {"time": 3034, "pitch": 65, "duration": 10, "velocity": 73}, {"time": 3034, "pitch": 70, "duration": 10, "velocity": 69}, {"time": 3040, "pitch": 53, "duration": 22, "velocity": 66}, {"time": 3046, "pitch": 58, "duration": 7, "velocity": 76}, {"time": 3052, "pitch": 60, "duration": 5, "velocity": 70}, {"time": 3058, "pitch": 61, "duration": 7, "velocity": 62}, {"time": 3064, "pitch": 63, "duration": 5, "velocity": 75}, {"time": 3070, "pitch": 45, "duration": 25, "velocity": 33}, {"time": 3070, "pitch": 61, "duration": 14, "velocity": 75}, {"time": 3070, "pitch": 65, "duration": 13, "velocity": 73}, {"time": 3076, "pitch": 53, "duration": 18, "velocity": 44}, {"time": 3082, "pitch": 57, "duration": 12, "velocity": 70}, {"time": 3088, "pitch": 60, "duration": 8, "velocity": 76}, {"time": 3094, "pitch": 61, "duration": 7, "velocity": 76}, {"time": 3100, "pitch": 63, "duration": 5, "velocity": 72}, {"time": 3106, "pitch": 44, "duration": 20, "velocity": 70}, {"time": 3106, "pitch": 61, "duration": 14, "velocity": 75}, {"time": 3106, "pitch": 65, "duration": 12, "velocity": 73}, {"time": 3112, "pitch": 51, "duration": 17, "velocity": 57}, {"time": 3118, "pitch": 56, "duration": 6, "velocity": 70}, {"time": 3124, "pitch": 60, "duration": 7, "velocity": 82}, {"time": 3130, "pitch": 61, "duration": 7, "velocity": 66}, {"time": 3136, "pitch": 63, "duration": 6, "velocity": 64}, {"time": 3142, "pitch": 43, "duration": 24, "velocity": 63}, {"time": 3142, "pitch": 55, "duration": 25, "velocity": 66}, {"time": 3142, "pitch": 58, "duration": 24, "velocity": 66}, {"time": 3142, "pitch": 61, "duration": 25, "velocity": 66}, {"time": 3142, "pitch": 65, "duration": 24, "velocity": 73}, {"time": 3166, "pitch": 68, "duration": 6, "velocity": 70}, {"time": 3178, "pitch": 54, "duration": 24, "velocity": 69}, {"time": 3178, "pitch": 61, "duration": 8, "velocity": 61}, {"time": 3178, "pitch": 66, "duration": 9, "velocity": 69}, {"time": 3184, "pitch": 58, "duration": 18, "velocity": 58}, {"time": 3190, "pitch": 61, "duration": 5, "velocity": 72}, {"time": 3196, "pitch": 66, "duration": 7, "velocity": 78}, {"time": 3202, "pitch": 70, "duration": 6, "velocity": 78}, {"time": 3208, "pitch": 73, "duration": 7, "velocity": 72}, {"time": 3214, "pitch": 44, "duration": 11, "velocity": 72}, {"time": 3214, "pitch": 72, "duration": 20, "velocity": 93}, {"time": 3220, "pitch": 51, "duration": 6, "velocity": 62}, {"time": 3226, "pitch": 56, "duration": 9, "velocity": 42}, {"time": 3232, "pitch": 58, "duration": 9, "velocity": 37}, {"time": 3238, "pitch": 60, "duration": 3, "velocity": 72}, {"time": 3244, "pitch": 73, "duration": 4, "velocity": 60}, {"time": 3247, "pitch": 75, "duration": 3, "velocity": 64}, {"time": 3250, "pitch": 49, "duration": 9, "velocity": 72}, {"time": 3250, "pitch": 68, "duration": 15, "velocity": 80}, {"time": 3250, "pitch": 77, "duration": 20, "velocity": 76}, {"time": 3256, "pitch": 56, "duration": 6, "velocity": 58}, {"time": 3262, "pitch": 60, "duration": 9, "velocity": 58}, {"time": 3268, "pitch": 61, "duration": 4, "velocity": 67}, {"time": 3274, "pitch": 68, "duration": 5, "velocity": 80}, {"time": 3280, "pitch": 78, "duration": 8, "velocity": 60}, {"time": 3286, "pitch": 53, "duration": 23, "velocity": 54}, {"time": 3286, "pitch": 57, "duration": 24, "velocity": 63}, {"time": 3286, "pitch": 60, "duration": 24, "velocity": 64}, {"time": 3286, "pitch": 63, "duration": 23, "velocity": 62}, {"time": 3286, "pitch": 69, "duration": 13, "velocity": 76}, {"time": 3286, "pitch": 75, "duration": 11, "velocity": 73}, {"time": 3298, "pitch": 72, "duration": 13, "velocity": 78}, {"time": 3310, "pitch": 73, "duration": 7, "velocity": 73}, {"time": 3316, "pitch": 70, "duration": 6, "velocity": 46}, {"time": 3319, "pitch": 73, "duration": 3, "velocity": 39}, {"time": 3322, "pitch": 58, "duration": 24, "velocity": 67}, {"time": 3322, "pitch": 77, "duration": 16, "velocity": 72}, {"time": 3328, "pitch": 65, "duration": 23, "velocity": 69}, {"time": 3334, "pitch": 70, "duration": 11, "velocity": 73}, {"time": 3340, "pitch": 72, "duration": 8, "velocity": 85}, {"time": 3346, "pitch": 73, "duration": 7, "velocity": 70}, {"time": 3352, "pitch": 75, "duration": 5, "velocity": 67}, {"time": 3358, "pitch": 57, "duration": 26, "velocity": 73}, {"time": 3358, "pitch": 73, "duration": 15, "velocity": 69}, {"time": 3358, "pitch": 77, "duration": 12, "velocity": 69}, {"time": 3364, "pitch": 65, "duration": 17, "velocity": 73}, {"time": 3370, "pitch": 69, "duration": 10, "velocity": 72}, {"time": 3376, "pitch": 72, "duration": 7, "velocity": 93}, {"time": 3382, "pitch": 73, "duration": 7, "velocity": 67}, {"time": 3388, "pitch": 75, "duration": 5, "velocity": 69}, {"time": 3394, "pitch": 56, "duration": 21, "velocity": 66}, {"time": 3394, "pitch": 73, "duration": 13, "velocity": 75}, {"time": 3394, "pitch": 77, "duration": 13, "velocity": 78}, {"time": 3400, "pitch": 63, "duration": 17, "velocity": 63}, {"time": 3406, "pitch": 68, "duration": 6, "velocity": 73}, {"time": 3412, "pitch": 72, "duration": 5, "velocity": 80}, {"time": 3418, "pitch": 73, "duration": 7, "velocity": 59}, {"time": 3424, "pitch": 80, "duration": 4, "velocity": 66}, {"time": 3430, "pitch": 55, "duration": 26, "velocity": 75}, {"time": 3430, "pitch": 70, "duration": 15, "velocity": 75}, {"time": 3430, "pitch": 77, "duration": 21, "velocity": 73}, {"time": 3442, "pitch": 63, "duration": 14, "velocity": 59}, {"time": 3454, "pitch": 73, "duration": 4, "velocity": 70}, {"time": 3466, "pitch": 54, "duration": 22, "velocity": 66}, {"time": 3466, "pitch": 70, "duration": 11, "velocity": 67}, {"time": 3466, "pitch": 75, "duration": 10, "velocity": 85}, {"time": 3472, "pitch": 61, "duration": 16, "velocity": 67}, {"time": 3478, "pitch": 66, "duration": 6, "velocity": 85}, {"time": 3484, "pitch": 68, "duration": 7, "velocity": 72}, {"time": 3490, "pitch": 70, "duration": 5, "velocity": 70}, {"time": 3496, "pitch": 73, "duration": 5, "velocity": 62}, {"time": 3502, "pitch": 44, "duration": 26, "velocity": 57}, {"time": 3502, "pitch": 63, "duration": 14, "velocity": 60}, {"time": 3502, "pitch": 72, "duration": 14, "velocity": 78}, {"time": 3502, "pitch": 73, "duration": 1, "velocity": 45}, {"time": 3508, "pitch": 51, "duration": 23, "velocity": 67}, {"time": 3514, "pitch": 56, "duration": 15, "velocity": 62}, {"time": 3514, "pitch": 70, "duration": 11, "velocity": 78}, {"time": 3526, "pitch": 68, "duration": 2, "velocity": 62}, {"time": 3538, "pitch": 46, "duration": 31, "velocity": 70}, {"time": 3538, "pitch": 61, "duration": 12, "velocity": 64}, {"time": 3538, "pitch": 70, "duration": 9, "velocity": 70}, {"time": 3544, "pitch": 53, "duration": 30, "velocity": 66}, {"time": 3550, "pitch": 58, "duration": 21, "velocity": 67}, {"time": 3556, "pitch": 60, "duration": 6, "velocity": 54}, {"time": 3562, "pitch": 61, "duration": 3, "velocity": 60}, {"time": 3568, "pitch": 65, "duration": 7, "velocity": 69}, {"time": 3574, "pitch": 46, "duration": 36, "velocity": 70}, {"time": 3574, "pitch": 61, "duration": 12, "velocity": 56}, {"time": 3574, "pitch": 65, "duration": 1, "velocity": 56}, {"time": 3580, "pitch": 53, "duration": 28, "velocity": 49}, {"time": 3586, "pitch": 58, "duration": 22, "velocity": 57}, {"time": 3592, "pitch": 60, "duration": 6, "velocity": 64}, {"time": 3598, "pitch": 61, "duration": 5, "velocity": 61}, {"time": 3604, "pitch": 65, "duration": 5, "velocity": 67}, {"time": 3610, "pitch": 44, "duration": 61, "velocity": 76}, {"time": 3610, "pitch": 60, "duration": 14, "velocity": 66}, {"time": 3610, "pitch": 68, "duration": 15, "velocity": 56}, {"time": 3616, "pitch": 51, "duration": 55, "velocity": 62}, {"time": 3622, "pitch": 56, "duration": 16, "velocity": 88}, {"time": 3628, "pitch": 60, "duration": 8, "velocity": 67}, {"time": 3634, "pitch": 63, "duration": 10, "velocity": 60}, {"time": 3640, "pitch": 60, "duration": 8, "velocity": 57}, {"time": 3646, "pitch": 68, "duration": 8, "velocity": 73}, {"time": 3652, "pitch": 60, "duration": 9, "velocity": 61}, {"time": 3658, "pitch": 63, "duration": 8, "velocity": 57}, {"time": 3664, "pitch": 68, "duration": 9, "velocity": 72}, {"time": 3670, "pitch": 56, "duration": 11, "velocity": 76}, {"time": 3676, "pitch": 60, "duration": 8, "velocity": 63}, {"time": 3682, "pitch": 51, "duration": 27, "velocity": 67}, {"time": 3682, "pitch": 68, "duration": 8, "velocity": 73}, {"time": 3688, "pitch": 58, "duration": 19, "velocity": 53}, {"time": 3694, "pitch": 63, "duration": 11, "velocity": 88}, {"time": 3700, "pitch": 65, "duration": 8, "velocity": 75}, {"time": 3706, "pitch": 66, "duration": 7, "velocity": 61}, {"time": 3712, "pitch": 68, "duration": 5, "velocity": 56}, {"time": 3718, "pitch": 46, "duration": 25, "velocity": 66}, {"time": 3718, "pitch": 73, "duration": 7, "velocity": 70}, {"time": 3724, "pitch": 53, "duration": 20, "velocity": 63}, {"time": 3730, "pitch": 58, "duration": 12, "velocity": 75}, {"time": 3736, "pitch": 60, "duration": 8, "velocity": 70}, {"time": 3742, "pitch": 61, "duration": 6, "velocity": 58}, {"time": 3748, "pitch": 63, "duration": 19, "velocity": 51}, {"time": 3754, "pitch": 44, "duration": 31, "velocity": 70}, {"time": 3754, "pitch": 60, "duration": 12, "velocity": 75}, {"time": 3754, "pitch": 68, "duration": 11, "velocity": 78}, {"time": 3760, "pitch": 51, "duration": 17, "velocity": 59}, {"time": 3766, "pitch": 56, "duration": 20, "velocity": 76}, {"time": 3772, "pitch": 60, "duration": 6, "velocity": 63}, {"time": 3778, "pitch": 63, "duration": 3, "velocity": 69}, {"time": 3784, "pitch": 51, "duration": 5, "velocity": 67}, {"time": 3784, "pitch": 63, "duration": 3, "velocity": 62}, {"time": 3790, "pitch": 44, "duration": 27, "velocity": 67}, {"time": 3790, "pitch": 63, "duration": 4, "velocity": 64}, {"time": 3790, "pitch": 68, "duration": 4, "velocity": 67}, {"time": 3790, "pitch": 72, "duration": 9, "velocity": 72}, {"time": 3796, "pitch": 51, "duration": 23, "velocity": 64}, {"time": 3802, "pitch": 65, "duration": 2, "velocity": 60}, {"time": 3802, "pitch": 68, "duration": 2, "velocity": 72}, {"time": 3802, "pitch": 73, "duration": 3, "velocity": 76}, {"time": 3808, "pitch": 56, "duration": 6, "velocity": 40}, {"time": 3814, "pitch": 68, "duration": 3, "velocity": 69}, {"time": 3814, "pitch": 75, "duration": 4, "velocity": 73}, {"time": 3820, "pitch": 56, "duration": 2, "velocity": 25}, {"time": 3826, "pitch": 46, "duration": 10, "velocity": 61}, {"time": 3826, "pitch": 65, "duration": 25, "velocity": 75}, {"time": 3826, "pitch": 73, "duration": 23, "velocity": 80}, {"time": 3832, "pitch": 53, "duration": 5, "velocity": 64}, {"time": 3838, "pitch": 58, "duration": 8, "velocity": 66}, {"time": 3844, "pitch": 60, "duration": 13, "velocity": 50}, {"time": 3850, "pitch": 61, "duration": 30, "velocity": 67}, {"time": 3856, "pitch": 65, "duration": 9, "velocity": 78}, {"time": 3862, "pitch": 73, "duration": 7, "velocity": 75}, {"time": 3868, "pitch": 65, "duration": 8, "velocity": 61}, {"time": 3874, "pitch": 72, "duration": 5, "velocity": 95}, {"time": 3880, "pitch": 70, "duration": 5, "velocity": 75}, {"time": 3886, "pitch": 68, "duration": 4, "velocity": 72}, {"time": 3892, "pitch": 70, "duration": 5, "velocity": 61}, {"time": 3895, "pitch": 63, "duration": 26, "velocity": 49}, {"time": 3896, "pitch": 68, "duration": 25, "velocity": 63}, {"time": 3898, "pitch": 44, "duration": 10, "velocity": 70}, {"time": 3898, "pitch": 75, "duration": 29, "velocity": 76}, {"time": 3904, "pitch": 51, "duration": 6, "velocity": 66}, {"time": 3910, "pitch": 56, "duration": 7, "velocity": 75}, {"time": 3916, "pitch": 58, "duration": 9, "velocity": 60}, {"time": 3922, "pitch": 60, "duration": 3, "velocity": 70}, {"time": 3928, "pitch": 63, "duration": 9, "velocity": 67}, {"time": 3934, "pitch": 44, "duration": 10, "velocity": 72}, {"time": 3934, "pitch": 75, "duration": 8, "velocity": 76}, {"time": 3940, "pitch": 51, "duration": 6, "velocity": 49}, {"time": 3940, "pitch": 63, "duration": 8, "velocity": 50}, {"time": 3946, "pitch": 56, "duration": 8, "velocity": 75}, {"time": 3946, "pitch": 73, "duration": 10, "velocity": 80}, {"time": 3952, "pitch": 58, "duration": 8, "velocity": 63}, {"time": 3952, "pitch": 63, "duration": 3, "velocity": 35}, {"time": 3958, "pitch": 60, "duration": 3, "velocity": 72}, {"time": 3958, "pitch": 72, "duration": 11, "velocity": 97}, {"time": 3970, "pitch": 51, "duration": 27, "velocity": 70}, {"time": 3970, "pitch": 66, "duration": 13, "velocity": 82}, {"time": 3970, "pitch": 70, "duration": 11, "velocity": 73}, {"time": 3976, "pitch": 58, "duration": 22, "velocity": 58}, {"time": 3982, "pitch": 63, "duration": 13, "velocity": 78}, {"time": 3988, "pitch": 65, "duration": 9, "velocity": 80}, {"time": 3994, "pitch": 66, "duration": 9, "velocity": 70}, {"time": 4000, "pitch": 73, "duration": 4, "velocity": 66}, {"time": 4006, "pitch": 46, "duration": 24, "velocity": 70}, {"time": 4006, "pitch": 73, "duration": 6, "velocity": 67}, {"time": 4012, "pitch": 53, "duration": 21, "velocity": 57}, {"time": 4018, "pitch": 58, "duration": 10, "velocity": 80}, {"time": 4024, "pitch": 60, "duration": 8, "velocity": 75}, {"time": 4030, "pitch": 61, "duration": 7, "velocity": 72}, {"time": 4036, "pitch": 63, "duration": 6, "velocity": 75}, {"time": 4042, "pitch": 47, "duration": 24, "velocity": 64}, {"time": 4042, "pitch": 71, "duration": 19, "velocity": 76}, {"time": 4048, "pitch": 54, "duration": 27, "velocity": 57}, {"time": 4054, "pitch": 59, "duration": 15, "velocity": 69}, {"time": 4060, "pitch": 63, "duration": 8, "velocity": 63}, {"time": 4066, "pitch": 66, "duration": 9, "velocity": 67}, {"time": 4072, "pitch": 71, "duration": 10, "velocity": 73}, {"time": 4078, "pitch": 47, "duration": 21, "velocity": 67}, {"time": 4078, "pitch": 73, "duration": 15, "velocity": 64}, {"time": 4084, "pitch": 54, "duration": 15, "velocity": 53}, {"time": 4090, "pitch": 59, "duration": 11, "velocity": 88}, {"time": 4096, "pitch": 63, "duration": 9, "velocity": 73}, {"time": 4102, "pitch": 66, "duration": 7, "velocity": 62}, {"time": 4108, "pitch": 71, "duration": 14, "velocity": 97}, {"time": 4114, "pitch": 53, "duration": 22, "velocity": 70}, {"time": 4120, "pitch": 58, "duration": 16, "velocity": 63}, {"time": 4126, "pitch": 60, "duration": 10, "velocity": 61}, {"time": 4132, "pitch": 65, "duration": 3, "velocity": 88}, {"time": 4138, "pitch": 70, "duration": 6, "velocity": 93}, {"time": 4144, "pitch": 72, "duration": 6, "velocity": 78}, {"time": 4150, "pitch": 41, "duration": 5, "velocity": 73}, {"time": 4150, "pitch": 65, "duration": 18, "velocity": 78}, {"time": 4150, "pitch": 69, "duration": 13, "velocity": 103}, {"time": 4156, "pitch": 53, "duration": 8, "velocity": 67}, {"time": 4162, "pitch": 58, "duration": 10, "velocity": 88}, {"time": 4162, "pitch": 70, "duration": 12, "velocity": 91}, {"time": 4168, "pitch": 60, "duration": 3, "velocity": 59}, {"time": 4174, "pitch": 65, "duration": 2, "velocity": 49}, {"time": 4174, "pitch": 72, "duration": 2, "velocity": 93}, {"time": 4183, "pitch": 65, "duration": 23, "velocity": 52}, {"time": 4186, "pitch": 41, "duration": 6, "velocity": 73}, {"time": 4186, "pitch": 77, "duration": 23, "velocity": 88}, {"time": 4192, "pitch": 53, "duration": 8, "velocity": 82}, {"time": 4198, "pitch": 58, "duration": 12, "velocity": 47}, {"time": 4204, "pitch": 60, "duration": 7, "velocity": 55}, {"time": 4210, "pitch": 65, "duration": 13, "velocity": 63}, {"time": 4222, "pitch": 41, "duration": 23, "velocity": 75}, {"time": 4222, "pitch": 77, "duration": 5, "velocity": 82}, {"time": 4228, "pitch": 65, "duration": 6, "velocity": 76}, {"time": 4234, "pitch": 75, "duration": 6, "velocity": 91}, {"time": 4240, "pitch": 53, "duration": 8, "velocity": 47}, {"time": 4240, "pitch": 65, "duration": 9, "velocity": 80}, {"time": 4246, "pitch": 73, "duration": 6, "velocity": 103}, {"time": 4252, "pitch": 72, "duration": 5, "velocity": 80}, {"time": 4258, "pitch": 53, "duration": 31, "velocity": 69}, {"time": 4258, "pitch": 77, "duration": 8, "velocity": 67}, {"time": 4264, "pitch": 60, "duration": 13, "velocity": 66}, {"time": 4264, "pitch": 75, "duration": 5, "velocity": 64}, {"time": 4270, "pitch": 72, "duration": 6, "velocity": 75}, {"time": 4276, "pitch": 70, "duration": 6, "velocity": 72}, {"time": 4282, "pitch": 65, "duration": 4, "velocity": 60}, {"time": 4288, "pitch": 60, "duration": 5, "velocity": 41}, {"time": 4294, "pitch": 58, "duration": 6, "velocity": 78}, {"time": 4300, "pitch": 53, "duration": 7, "velocity": 80}, {"time": 4306, "pitch": 58, "duration": 7, "velocity": 59}, {"time": 4312, "pitch": 60, "duration": 3, "velocity": 73}, {"time": 4318, "pitch": 65, "duration": 5, "velocity": 72}, {"time": 4324, "pitch": 70, "duration": 6, "velocity": 53}, {"time": 4330, "pitch": 46, "duration": 11, "velocity": 73}, {"time": 4330, "pitch": 73, "duration": 27, "velocity": 91}, {"time": 4336, "pitch": 53, "duration": 6, "velocity": 53}, {"time": 4342, "pitch": 58, "duration": 8, "velocity": 75}, {"time": 4348, "pitch": 60, "duration": 8, "velocity": 57}, {"time": 4354, "pitch": 61, "duration": 2, "velocity": 72}, {"time": 4360, "pitch": 65, "duration": 8, "velocity": 70}, {"time": 4366, "pitch": 41, "duration": 6, "velocity": 91}, {"time": 4366, "pitch": 72, "duration": 20, "velocity": 67}, {"time": 4372, "pitch": 53, "duration": 8, "velocity": 50}, {"time": 4378, "pitch": 56, "duration": 7, "velocity": 95}, {"time": 4384, "pitch": 60, "duration": 2, "velocity": 66}, {"time": 4390, "pitch": 72, "duration": 7, "velocity": 58}, {"time": 4396, "pitch": 73, "duration": 8, "velocity": 88}, {"time": 4402, "pitch": 42, "duration": 24, "velocity": 67}, {"time": 4402, "pitch": 58, "duration": 12, "velocity": 72}, {"time": 4402, "pitch": 61, "duration": 12, "velocity": 80}, {"time": 4402, "pitch": 66, "duration": 11, "velocity": 78}, {"time": 4408, "pitch": 49, "duration": 19, "velocity": 67}, {"time": 4414, "pitch": 54, "duration": 15, "velocity": 78}, {"time": 4420, "pitch": 58, "duration": 9, "velocity": 93}, {"time": 4426, "pitch": 61, "duration": 7, "velocity": 67}, {"time": 4432, "pitch": 66, "duration": 7, "velocity": 78}, {"time": 4438, "pitch": 49, "duration": 24, "velocity": 72}, {"time": 4438, "pitch": 65, "duration": 10, "velocity": 85}, {"time": 4444, "pitch": 56, "duration": 20, "velocity": 54}, {"time": 4450, "pitch": 61, "duration": 13, "velocity": 75}, {"time": 4456, "pitch": 63, "duration": 8, "velocity": 73}, {"time": 4462, "pitch": 65, "duration": 5, "velocity": 63}, {"time": 4468, "pitch": 68, "duration": 7, "velocity": 85}, {"time": 4474, "pitch": 51, "duration": 26, "velocity": 75}, {"time": 4474, "pitch": 66, "duration": 15, "velocity": 91}, {"time": 4480, "pitch": 58, "duration": 28, "velocity": 64}, {"time": 4486, "pitch": 63, "duration": 11, "velocity": 75}, {"time": 4492, "pitch": 65, "duration": 8, "velocity": 69}, {"time": 4498, "pitch": 66, "duration": 7, "velocity": 63}, {"time": 4504, "pitch": 68, "duration": 6, "velocity": 53}, {"time": 4510, "pitch": 49, "duration": 21, "velocity": 72}, {"time": 4510, "pitch": 65, "duration": 13, "velocity": 82}, {"time": 4516, "pitch": 58, "duration": 15, "velocity": 55}, {"time": 4522, "pitch": 61, "duration": 7, "velocity": 69}, {"time": 4528, "pitch": 63, "duration": 6, "velocity": 78}, {"time": 4534, "pitch": 65, "duration": 6, "velocity": 61}, {"time": 4540, "pitch": 66, "duration": 5, "velocity": 56}, {"time": 4546, "pitch": 48, "duration": 25, "velocity": 69}, {"time": 4546, "pitch": 63, "duration": 13, "velocity": 82}, {"time": 4552, "pitch": 56, "duration": 17, "velocity": 54}, {"time": 4558, "pitch": 58, "duration": 6, "velocity": 49}, {"time": 4558, "pitch": 60, "duration": 6, "velocity": 51}, {"time": 4564, "pitch": 63, "duration": 5, "velocity": 78}, {"time": 4570, "pitch": 66, "duration": 6, "velocity": 85}, {"time": 4576, "pitch": 70, "duration": 5, "velocity": 95}, {"time": 4582, "pitch": 41, "duration": 5, "velocity": 70}, {"time": 4582, "pitch": 65, "duration": 19, "velocity": 88}, {"time": 4588, "pitch": 53, "duration": 8, "velocity": 64}, {"time": 4594, "pitch": 58, "duration": 14, "velocity": 97}, {"time": 4600, "pitch": 60, "duration": 8, "velocity": 66}, {"time": 4606, "pitch": 65, "duration": 8, "velocity": 78}, {"time": 4612, "pitch": 70, "duration": 6, "velocity": 82}, {"time": 4618, "pitch": 46, "duration": 25, "velocity": 85}, {"time": 4624, "pitch": 53, "duration": 31, "velocity": 66}, {"time": 4630, "pitch": 58, "duration": 11, "velocity": 91}, {"time": 4636, "pitch": 60, "duration": 7, "velocity": 82}, {"time": 4642, "pitch": 61, "duration": 7, "velocity": 76}, {"time": 4648, "pitch": 63, "duration": 6, "velocity": 62}, {"time": 4654, "pitch": 44, "duration": 21, "velocity": 67}, {"time": 4654, "pitch": 60, "duration": 10, "velocity": 80}, {"time": 4660, "pitch": 53, "duration": 17, "velocity": 55}, {"time": 4666, "pitch": 56, "duration": 13, "velocity": 62}, {"time": 4672, "pitch": 65, "duration": 5, "velocity": 51}, {"time": 4678, "pitch": 68, "duration": 6, "velocity": 82}, {"time": 4684, "pitch": 72, "duration": 7, "velocity": 67}, {"time": 4690, "pitch": 54, "duration": 20, "velocity": 64}, {"time": 4690, "pitch": 70, "duration": 9, "velocity": 97}, {"time": 4696, "pitch": 61, "duration": 16, "velocity": 73}, {"time": 4702, "pitch": 66, "duration": 7, "velocity": 72}, {"time": 4708, "pitch": 73, "duration": 4, "velocity": 95}, {"time": 4714, "pitch": 75, "duration": 6, "velocity": 80}, {"time": 4720, "pitch": 78, "duration": 23, "velocity": 70}, {"time": 4726, "pitch": 49, "duration": 9, "velocity": 72}, {"time": 4726, "pitch": 68, "duration": 27, "velocity": 76}, {"time": 4726, "pitch": 77, "duration": 26, "velocity": 82}, {"time": 4732, "pitch": 56, "duration": 5, "velocity": 60}, {"time": 4738, "pitch": 61, "duration": 9, "velocity": 59}, {"time": 4744, "pitch": 63, "duration": 9, "velocity": 61}, {"time": 4750, "pitch": 65, "duration": 2, "velocity": 69}, {"time": 4756, "pitch": 77, "duration": 7, "velocity": 61}, {"time": 4762, "pitch": 54, "duration": 24, "velocity": 73}, {"time": 4762, "pitch": 70, "duration": 12, "velocity": 73}, {"time": 4762, "pitch": 78, "duration": 13, "velocity": 72}, {"time": 4768, "pitch": 61, "duration": 22, "velocity": 64}, {"time": 4774, "pitch": 66, "duration": 12, "velocity": 75}, {"time": 4780, "pitch": 70, "duration": 5, "velocity": 88}, {"time": 4786, "pitch": 70, "duration": 3, "velocity": 35}, {"time": 4786, "pitch": 73, "duration": 6, "velocity": 80}, {"time": 4792, "pitch": 78, "duration": 8, "velocity": 72}, {"time": 4798, "pitch": 53, "duration": 17, "velocity": 69}, {"time": 4798, "pitch": 68, "duration": 13, "velocity": 73}, {"time": 4798, "pitch": 77, "duration": 13, "velocity": 70}, {"time": 4804, "pitch": 61, "duration": 11, "velocity": 53}, {"time": 4810, "pitch": 65, "duration": 4, "velocity": 69}, {"time": 4816, "pitch": 68, "duration": 4, "velocity": 88}, {"time": 4822, "pitch": 73, "duration": 5, "velocity": 76}, {"time": 4828, "pitch": 75, "duration": 12, "velocity": 78}, {"time": 4834, "pitch": 48, "duration": 21, "velocity": 70}, {"time": 4834, "pitch": 70, "duration": 7, "velocity": 76}, {"time": 4840, "pitch": 54, "duration": 16, "velocity": 58}, {"time": 4846, "pitch": 60, "duration": 8, "velocity": 70}, {"time": 4852, "pitch": 63, "duration": 8, "velocity": 85}, {"time": 4858, "pitch": 66, "duration": 6, "velocity": 78}, {"time": 4864, "pitch": 70, "duration": 6, "velocity": 97}, {"time": 4870, "pitch": 53, "duration": 26, "velocity": 63}, {"time": 4870, "pitch": 72, "duration": 11, "velocity": 78}, {"time": 4876, "pitch": 60, "duration": 19, "velocity": 63}, {"time": 4882, "pitch": 65, "duration": 11, "velocity": 85}, {"time": 4888, "pitch": 77, "duration": 8, "velocity": 75}, {"time": 4894, "pitch": 82, "duration": 5, "velocity": 73}, {"time": 4900, "pitch": 84, "duration": 5, "velocity": 70}, {"time": 4906, "pitch": 46, "duration": 11, "velocity": 73}, {"time": 4906, "pitch": 73, "duration": 27, "velocity": 91}, {"time": 4912, "pitch": 53, "duration": 6, "velocity": 53}, {"time": 4918, "pitch": 58, "duration": 8, "velocity": 75}, {"time": 4924, "pitch": 60, "duration": 8, "velocity": 57}, {"time": 4930, "pitch": 61, "duration": 2, "velocity": 72}, {"time": 4936, "pitch": 65, "duration": 8, "velocity": 70}, {"time": 4942, "pitch": 41, "duration": 6, "velocity": 91}, {"time": 4942, "pitch": 72, "duration": 20, "velocity": 67}, {"time": 4948, "pitch": 53, "duration": 8, "velocity": 50}, {"time": 4954, "pitch": 56, "duration": 7, "velocity": 95}, {"time": 4960, "pitch": 60, "duration": 2, "velocity": 66}, {"time": 4966, "pitch": 72, "duration": 7, "velocity": 58}, {"time": 4972, "pitch": 73, "duration": 8, "velocity": 88}, {"time": 4978, "pitch": 42, "duration": 24, "velocity": 67}, {"time": 4978, "pitch": 58, "duration": 12, "velocity": 72}, {"time": 4978, "pitch": 61, "duration": 12, "velocity": 80}, {"time": 4978, "pitch": 66, "duration": 11, "velocity": 78}, {"time": 4984, "pitch": 49, "duration": 19, "velocity": 67}, {"time": 4990, "pitch": 54, "duration": 15, "velocity": 78}, {"time": 4996, "pitch": 58, "duration": 9, "velocity": 93}, {"time": 5002, "pitch": 61, "duration": 7, "velocity": 67}, {"time": 5008, "pitch": 66, "duration": 7, "velocity": 78}, {"time": 5014, "pitch": 49, "duration": 24, "velocity": 72}, {"time": 5014, "pitch": 65, "duration": 10, "velocity": 85}, {"time": 5020, "pitch": 56, "duration": 20, "velocity": 54}, {"time": 5026, "pitch": 61, "duration": 13, "velocity": 75}, {"time": 5032, "pitch": 63, "duration": 8, "velocity": 73}, {"time": 5038, "pitch": 65, "duration": 5, "velocity": 63}, {"time": 5044, "pitch": 68, "duration": 7, "velocity": 85}, {"time": 5050, "pitch": 51, "duration": 26, "velocity": 75}, {"time": 5050, "pitch": 66, "duration": 15, "velocity": 91}, {"time": 5056, "pitch": 58, "duration": 28, "velocity": 64}, {"time": 5062, "pitch": 63, "duration": 11, "velocity": 75}, {"time": 5068, "pitch": 65, "duration": 8, "velocity": 69}, {"time": 5074, "pitch": 66, "duration": 7, "velocity": 63}, {"time": 5080, "pitch": 68, "duration": 6, "velocity": 53}, {"time": 5086, "pitch": 49, "duration": 21, "velocity": 72}, {"time": 5086, "pitch": 65, "duration": 13, "velocity": 82}, {"time": 5092, "pitch": 58, "duration": 15, "velocity": 55}, {"time": 5098, "pitch": 61, "duration": 7, "velocity": 69}, {"time": 5104, "pitch": 63, "duration": 6, "velocity": 78}, {"time": 5110, "pitch": 65, "duration": 6, "velocity": 61}, {"time": 5116, "pitch": 66, "duration": 5, "velocity": 56}, {"time": 5122, "pitch": 48, "duration": 25, "velocity": 69}, {"time": 5122, "pitch": 63, "duration": 13, "velocity": 82}, {"time": 5128, "pitch": 56, "duration": 17, "velocity": 54}, {"time": 5134, "pitch": 58, "duration": 6, "velocity": 49}, {"time": 5134, "pitch": 60, "duration": 6, "velocity": 51}, {"time": 5140, "pitch": 63, "duration": 5, "velocity": 78}, {"time": 5146, "pitch": 66, "duration": 6, "velocity": 85}, {"time": 5152, "pitch": 70, "duration": 5, "velocity": 95}, {"time": 5158, "pitch": 41, "duration": 5, "velocity": 70}, {"time": 5158, "pitch": 65, "duration": 19, "velocity": 88}, {"time": 5164, "pitch": 53, "duration": 8, "velocity": 64}, {"time": 5170, "pitch": 58, "duration": 14, "velocity": 97}, {"time": 5176, "pitch": 60, "duration": 8, "velocity": 66}, {"time": 5182, "pitch": 65, "duration": 8, "velocity": 78}, {"time": 5188, "pitch": 70, "duration": 6, "velocity": 82}, {"time": 5194, "pitch": 46, "duration": 25, "velocity": 85}, {"time": 5200, "pitch": 53, "duration": 31, "velocity": 66}, {"time": 5206, "pitch": 58, "duration": 11, "velocity": 91}, {"time": 5212, "pitch": 60, "duration": 7, "velocity": 82}, {"time": 5218, "pitch": 61, "duration": 7, "velocity": 76}, {"time": 5224, "pitch": 63, "duration": 6, "velocity": 62}, {"time": 5230, "pitch": 44, "duration": 21, "velocity": 67}, {"time": 5230, "pitch": 60, "duration": 10, "velocity": 80}, {"time": 5236, "pitch": 53, "duration": 17, "velocity": 55}, {"time": 5242, "pitch": 56, "duration": 13, "velocity": 62}, {"time": 5248, "pitch": 65, "duration": 5, "velocity": 51}, {"time": 5254, "pitch": 68, "duration": 6, "velocity": 82}, {"time": 5260, "pitch": 72, "duration": 7, "velocity": 67}, {"time": 5266, "pitch": 54, "duration": 20, "velocity": 64}, {"time": 5266, "pitch": 70, "duration": 9, "velocity": 97}, {"time": 5272, "pitch": 61, "duration": 16, "velocity": 73}, {"time": 5278, "pitch": 66, "duration": 7, "velocity": 72}, {"time": 5284, "pitch": 73, "duration": 4, "velocity": 95}, {"time": 5290, "pitch": 75, "duration": 6, "velocity": 80}, {"time": 5296, "pitch": 78, "duration": 23, "velocity": 70}, {"time": 5302, "pitch": 49, "duration": 9, "velocity": 72}, {"time": 5302, "pitch": 68, "duration": 27, "velocity": 76}, {"time": 5302, "pitch": 77, "duration": 26, "velocity": 82}, {"time": 5308, "pitch": 56, "duration": 5, "velocity": 60}, {"time": 5314, "pitch": 61, "duration": 9, "velocity": 59}, {"time": 5320, "pitch": 63, "duration": 9, "velocity": 61}, {"time": 5326, "pitch": 65, "duration": 2, "velocity": 69}, {"time": 5332, "pitch": 77, "duration": 7, "velocity": 61}, {"time": 5338, "pitch": 54, "duration": 24, "velocity": 73}, {"time": 5338, "pitch": 70, "duration": 12, "velocity": 73}, {"time": 5338, "pitch": 78, "duration": 13, "velocity": 72}, {"time": 5344, "pitch": 61, "duration": 22, "velocity": 64}, {"time": 5350, "pitch": 66, "duration": 12, "velocity": 75}, {"time": 5356, "pitch": 70, "duration": 5, "velocity": 88}, {"time": 5362, "pitch": 70, "duration": 3, "velocity": 35}, {"time": 5362, "pitch": 73, "duration": 6, "velocity": 80}, {"time": 5368, "pitch": 78, "duration": 8, "velocity": 72}, {"time": 5374, "pitch": 53, "duration": 17, "velocity": 69}, {"time": 5374, "pitch": 68, "duration": 13, "velocity": 73}, {"time": 5374, "pitch": 77, "duration": 13, "velocity": 70}, {"time": 5380, "pitch": 61, "duration": 11, "velocity": 53}, {"time": 5386, "pitch": 65, "duration": 4, "velocity": 69}, {"time": 5392, "pitch": 68, "duration": 4, "velocity": 88}, {"time": 5398, "pitch": 73, "duration": 5, "velocity": 76}, {"time": 5404, "pitch": 75, "duration": 12, "velocity": 78}, {"time": 5410, "pitch": 48, "duration": 21, "velocity": 70}, {"time": 5410, "pitch": 70, "duration": 7, "velocity": 76}, {"time": 5416, "pitch": 54, "duration": 16, "velocity": 58}, {"time": 5422, "pitch": 60, "duration": 8, "velocity": 70}, {"time": 5428, "pitch": 63, "duration": 8, "velocity": 85}, {"time": 5434, "pitch": 66, "duration": 6, "velocity": 78}, {"time": 5440, "pitch": 70, "duration": 6, "velocity": 97}, {"time": 5446, "pitch": 53, "duration": 26, "velocity": 63}, {"time": 5446, "pitch": 72, "duration": 11, "velocity": 78}, {"time": 5452, "pitch": 60, "duration": 19, "velocity": 63}, {"time": 5458, "pitch": 65, "duration": 11, "velocity": 85}, {"time": 5464, "pitch": 77, "duration": 8, "velocity": 75}, {"time": 5470, "pitch": 82, "duration": 5, "velocity": 73}, {"time": 5476, "pitch": 84, "duration": 5, "velocity": 70}, {"time": 5482, "pitch": 42, "duration": 25, "velocity": 73}, {"time": 5482, "pitch": 61, "duration": 14, "velocity": 66}, {"time": 5482, "pitch": 66, "duration": 15, "velocity": 67}, {"time": 5482, "pitch": 70, "duration": 16, "velocity": 67}, {"time": 5491, "pitch": 49, "duration": 25, "velocity": 52}, {"time": 5500, "pitch": 54, "duration": 13, "velocity": 41}, {"time": 5506, "pitch": 61, "duration": 5, "velocity": 56}, {"time": 5512, "pitch": 73, "duration": 8, "velocity": 66}, {"time": 5518, "pitch": 44, "duration": 26, "velocity": 72}, {"time": 5518, "pitch": 63, "duration": 11, "velocity": 58}, {"time": 5518, "pitch": 68, "duration": 11, "velocity": 64}, {"time": 5518, "pitch": 72, "duration": 15, "velocity": 73}, {"time": 5530, "pitch": 70, "duration": 11, "velocity": 66}, {"time": 5554, "pitch": 46, "duration": 28, "velocity": 66}, {"time": 5554, "pitch": 61, "duration": 8, "velocity": 48}, {"time": 5554, "pitch": 65, "duration": 8, "velocity": 64}, {"time": 5554, "pitch": 70, "duration": 9, "velocity": 62}, {"time": 5560, "pitch": 53, "duration": 28, "velocity": 57}, {"time": 5566, "pitch": 58, "duration": 18, "velocity": 61}, {"time": 5578, "pitch": 61, "duration": 3, "velocity": 58}, {"time": 5584, "pitch": 65, "duration": 5, "velocity": 67}, {"time": 5590, "pitch": 46, "duration": 10, "velocity": 70}, {"time": 5590, "pitch": 70, "duration": 7, "velocity": 52}, {"time": 5596, "pitch": 53, "duration": 5, "velocity": 63}, {"time": 5596, "pitch": 72, "duration": 4, "velocity": 61}, {"time": 5602, "pitch": 58, "duration": 7, "velocity": 50}, {"time": 5602, "pitch": 73, "duration": 3, "velocity": 49}, {"time": 5602, "pitch": 75, "duration": 2, "velocity": 38}, {"time": 5608, "pitch": 60, "duration": 9, "velocity": 56}, {"time": 5608, "pitch": 77, "duration": 4, "velocity": 59}, {"time": 5614, "pitch": 61, "duration": 3, "velocity": 72}, {"time": 5614, "pitch": 82, "duration": 5, "velocity": 66}, {"time": 5620, "pitch": 84, "duration": 6, "velocity": 52}, {"time": 5626, "pitch": 54, "duration": 23, "velocity": 66}, {"time": 5626, "pitch": 85, "duration": 19, "velocity": 73}, {"time": 5632, "pitch": 61, "duration": 18, "velocity": 52}, {"time": 5638, "pitch": 66, "duration": 10, "velocity": 45}, {"time": 5644, "pitch": 73, "duration": 5, "velocity": 58}, {"time": 5650, "pitch": 78, "duration": 5, "velocity": 66}, {"time": 5656, "pitch": 85, "duration": 9, "velocity": 57}, {"time": 5662, "pitch": 56, "duration": 24, "velocity": 60}, {"time": 5662, "pitch": 75, "duration": 18, "velocity": 60}, {"time": 5662, "pitch": 84, "duration": 24, "velocity": 66}, {"time": 5697, "pitch": 61, "duration": 11, "velocity": 72}, {"time": 5697, "pitch": 65, "duration": 11, "velocity": 72}, {"time": 5697, "pitch": 46, "duration": 45, "velocity": 70}, {"time": 5709, "pitch": 63, "duration": 11, "velocity": 76}, {"time": 5709, "pitch": 60, "duration": 10, "velocity": 70}, {"time": 5709, "pitch": 53, "duration": 31, "velocity": 60}, {"time": 5721, "pitch": 65, "duration": 2, "velocity": 75}, {"time": 5721, "pitch": 61, "duration": 1, "velocity": 50}, {"time": 5722, "pitch": 58, "duration": 19, "velocity": 51}, {"time": 5734, "pitch": 73, "duration": 8, "velocity": 70}, {"time": 5734, "pitch": 70, "duration": 7, "velocity": 57}, {"time": 5734, "pitch": 65, "duration": 6, "velocity": 67}, {"time": 5773, "pitch": 77, "duration": 18, "velocity": 78}, {"time": 5788, "pitch": 65, "duration": 9, "velocity": 83}, {"time": 5794, "pitch": 70, "duration": 8, "velocity": 83}, {"time": 5799, "pitch": 73, "duration": 8, "velocity": 83}, {"time": 5806, "pitch": 77, "duration": 23, "velocity": 83}, {"time": 5826, "pitch": 65, "duration": 13, "velocity": 83}, {"time": 5832, "pitch": 70, "duration": 8, "velocity": 83}, {"time": 5837, "pitch": 73, "duration": 8, "velocity": 83}, {"time": 5843, "pitch": 77, "duration": 21, "velocity": 83}, {"time": 5862, "pitch": 65, "duration": 10, "velocity": 83}, {"time": 5867, "pitch": 70, "duration": 8, "velocity": 83}, {"time": 5873, "pitch": 73, "duration": 9, "velocity": 83}, {"time": 5880, "pitch": 77, "duration": 24, "velocity": 83}, {"time": 5900, "pitch": 65, "duration": 14, "velocity": 83}, {"time": 5900, "pitch": 53, "duration": 12, "velocity": 83}, {"time": 5909, "pitch": 70, "duration": 14, "velocity": 83}, {"time": 5921, "pitch": 73, "duration": 27, "velocity": 83}, {"time": 5942, "pitch": 65, "duration": 81, "velocity": 83}, {"time": 5942, "pitch": 58, "duration": 77, "velocity": 83}, {"time": 5946, "pitch": 70, "duration": 78, "velocity": 83}, {"time": 5949, "pitch": 77, "duration": 74, "velocity": 83}, {"time": 5952, "pitch": 73, "duration": 72, "velocity": 84}, {"time": 5952, "pitch": 72, "duration": 65, "velocity": 82}], "annotations": [{"time": 10, "annotation": {"number": 64, "value": 127}, "group": "control_change"}, {"time": 42, "annotation": {"number": 64, "value": 0}, "group": "control_change"}, {"time": 47, "annotation": {"number": 64, "value": 127}, "group": "control_change"}, {"time": 79, "annotation": {"number": 64, "value": 0}, "group": "control_change"}, {"time": 84, "annotation": {"number": 64, "value": 127}, "group": "control_change"}, {"time": 115, "annotation": {"number": 64, "value": 0}, "group": "control_change"}, {"time": 120, "annotation": {"number": 64, "value": 127}, "group": "control_change"}, {"time": 153, "annotation": {"number": 64, "value": 0}, "group": "control_change"}, {"time": 158, "annotation": {"number": 64, "value": 127}, "group": "control_change"}, {"time": 192, "annotation": {"number": 64, "value": 0}, "group": "control_change"}, {"time": 197, "annotation": {"number": 64, "value": 127}, "group": "control_change"}, {"time": 228, "annotation": {"number": 64, "value": 0}, "group": "control_change"}, {"time": 235, "annotation": {"number": 64, "value": 127}, "group": "control_change"}, {"time": 263, "annotation": {"number": 64, "value": 0}, "group": "control_change"}, {"time": 268, "annotation": {"number": 64, "value": 127}, "group": "control_change"}, {"time": 300, "annotation": {"number": 64, "value": 0}, "group": "control_change"}, {"time": 304, "annotation": {"number": 64, "value": 127}, "group": "control_change"}, {"time": 335, "annotation": {"number": 64, "value": 0}, "group": "control_change"}, {"time": 341, "annotation": {"number": 64, "value": 127}, "group": "control_change"}, {"time": 369, "annotation": {"number": 64, "value": 0}, "group": "control_change"}, {"time": 373, "annotation": {"number": 64, "value": 127}, "group": "control_change"}, {"time": 406, "annotation": {"number": 64, "value": 0}, "group": "control_change"}, {"time": 410, "annotation": {"number": 64, "value": 127}, "group": "control_change"}, {"time": 440, "annotation": {"number": 64, "value": 0}, "group": "control_change"}, {"time": 444, "annotation": {"number": 64, "value": 127}, "group": "control_change"}, {"time": 478, "annotation": {"number": 64, "value": 0}, "group": "control_change"}, {"time": 480, "annotation": {"number": 64, "value": 127}, "group": "control_change"}, {"time": 514, "annotation": {"number": 64, "value": 0}, "group": "control_change"}, {"time": 519, "annotation": {"number": 64, "value": 127}, "group": "control_change"}, {"time": 549, "annotation": {"number": 64, "value": 0}, "group": "control_change"}, {"time": 554, "annotation": {"number": 64, "value": 127}, "group": "control_change"}, {"time": 585, "annotation": {"number": 64, "value": 0}, "group": "control_change"}, {"time": 591, "annotation": {"number": 64, "value": 127}, "group": "control_change"}, {"time": 622, "annotation": {"number": 64, "value": 0}, "group": "control_change"}, {"time": 627, "annotation": {"number": 64, "value": 127}, "group": "control_change"}, {"time": 654, "annotation": {"number": 64, "value": 0}, "group": "control_change"}, {"time": 659, "annotation": {"number": 64, "value": 127}, "group": "control_change"}, {"time": 729, "annotation": {"number": 64, "value": 0}, "group": "control_change"}, {"time": 732, "annotation": {"number": 64, "value": 127}, "group": "control_change"}, {"time": 766, "annotation": {"number": 64, "value": 0}, "group": "control_change"}, {"time": 771, "annotation": {"number": 64, "value": 127}, "group": "control_change"}, {"time": 801, "annotation": {"number": 64, "value": 0}, "group": "control_change"}, {"time": 806, "annotation": {"number": 64, "value": 127}, "group": "control_change"}, {"time": 834, "annotation": {"number": 64, "value": 0}, "group": "control_change"}, {"time": 838, "annotation": {"number": 64, "value": 127}, "group": "control_change"}, {"time": 874, "annotation": {"number": 64, "value": 0}, "group": "control_change"}, {"time": 878, "annotation": {"number": 64, "value": 127}, "group": "control_change"}, {"time": 911, "annotation": {"number": 64, "value": 0}, "group": "control_change"}, {"time": 915, "annotation": {"number": 64, "value": 127}, "group": "control_change"}, {"time": 944, "annotation": {"number": 64, "value": 0}, "group": "control_change"}, {"time": 948, "annotation": {"number": 64, "value": 127}, "group": "control_change"}, {"time": 980, "annotation": {"number": 64, "value": 0}, "group": "control_change"}, {"time": 983, "annotation": {"number": 64, "value": 127}, "group": "control_change"}, {"time": 1018, "annotation": {"number": 64, "value": 0}, "group": "control_change"}, {"time": 1030, "annotation": {"number": 64, "value": 127}, "group": "control_change"}, {"time": 1053, "annotation": {"number": 64, "value": 0}, "group": "control_change"}, {"time": 1063, "annotation": {"number": 64, "value": 127}, "group": "control_change"}, {"time": 1088, "annotation": {"number": 64, "value": 0}, "group": "control_change"}, {"time": 1096, "annotation": {"number": 64, "value": 127}, "group": "control_change"}, {"time": 1125, "annotation": {"number": 64, "value": 0}, "group": "control_change"}, {"time": 1132, "annotation": {"number": 64, "value": 127}, "group": "control_change"}, {"time": 1160, "annotation": {"number": 64, "value": 0}, "group": "control_change"}, {"time": 1166, "annotation": {"number": 64, "value": 127}, "group": "control_change"}, {"time": 1196, "annotation": {"number": 64, "value": 0}, "group": "control_change"}, {"time": 1202, "annotation": {"number": 64, "value": 127}, "group": "control_change"}, {"time": 1233, "annotation": {"number": 64, "value": 0}, "group": "control_change"}, {"time": 1238, "annotation": {"number": 64, "value": 127}, "group": "control_change"}, {"time": 1270, "annotation": {"number": 64, "value": 0}, "group": "control_change"}, {"time": 1271, "annotation": {"number": 64, "value": 127}, "group": "control_change"}, {"time": 1306, "annotation": {"number": 64, "value": 0}, "group": "control_change"}, {"time": 1308, "annotation": {"number": 64, "value": 127}, "group": "control_change"}, {"time": 1378, "annotation": {"number": 64, "value": 0}, "group": "control_change"}, {"time": 1385, "annotation": {"number": 64, "value": 127}, "group": "control_change"}, {"time": 1414, "annotation": {"number": 64, "value": 0}, "group": "control_change"}, {"time": 1421, "annotation": {"number": 64, "value": 127}, "group": "control_change"}, {"time": 1450, "annotation": {"number": 64, "value": 0}, "group": "control_change"}, {"time": 1457, "annotation": {"number": 64, "value": 127}, "group": "control_change"}, {"time": 1520, "annotation": {"number": 64, "value": 0}, "group": "control_change"}, {"time": 1527, "annotation": {"number": 64, "value": 127}, "group": "control_change"}, {"time": 1594, "annotation": {"number": 64, "value": 0}, "group": "control_change"}, {"time": 1596, "annotation": {"number": 64, "value": 127}, "group": "control_change"}, {"time": 1632, "annotation": {"number": 64, "value": 0}, "group": "control_change"}, {"time": 1639, "annotation": {"number": 64, "value": 127}, "group": "control_change"}, {"time": 1665, "annotation": {"number": 64, "value": 0}, "group": "control_change"}, {"time": 1673, "annotation": {"number": 64, "value": 127}, "group": "control_change"}, {"time": 1701, "annotation": {"number": 64, "value": 0}, "group": "control_change"}, {"time": 1708, "annotation": {"number": 64, "value": 127}, "group": "control_change"}, {"time": 1737, "annotation": {"number": 64, "value": 0}, "group": "control_change"}, {"time": 1740, "annotation": {"number": 64, "value": 127}, "group": "control_change"}, {"time": 1810, "annotation": {"number": 64, "value": 0}, "group": "control_change"}, {"time": 1816, "annotation": {"number": 64, "value": 127}, "group": "control_change"}, {"time": 1846, "annotation": {"number": 64, "value": 0}, "group": "control_change"}, {"time": 1852, "annotation": {"number": 64, "value": 127}, "group": "control_change"}, {"time": 1883, "annotation": {"number": 64, "value": 0}, "group": "control_change"}, {"time": 1888, "annotation": {"number": 64, "value": 127}, "group": "control_change"}, {"time": 1920, "annotation": {"number": 64, "value": 0}, "group": "control_change"}, {"time": 1926, "annotation": {"number": 64, "value": 127}, "group": "control_change"}, {"time": 1954, "annotation": {"number": 64, "value": 0}, "group": "control_change"}, {"time": 1955, "annotation": {"number": 64, "value": 127}, "group": "control_change"}, {"time": 2025, "annotation": {"number": 64, "value": 0}, "group": "control_change"}, {"time": 2031, "annotation": {"number": 64, "value": 127}, "group": "control_change"}, {"time": 2062, "annotation": {"number": 64, "value": 0}, "group": "control_change"}, {"time": 2067, "annotation": {"number": 64, "value": 127}, "group": "control_change"}, {"time": 2098, "annotation": {"number": 64, "value": 0}, "group": "control_change"}, {"time": 2098, "annotation": {"number": 64, "value": 127}, "group": "control_change"}, {"time": 2131, "annotation": {"number": 64, "value": 0}, "group": "control_change"}, {"time": 2137, "annotation": {"number": 64, "value": 127}, "group": "control_change"}, {"time": 2169, "annotation": {"number": 64, "value": 0}, "group": "control_change"}, {"time": 2175, "annotation": {"number": 64, "value": 127}, "group": "control_change"}, {"time": 2207, "annotation": {"number": 64, "value": 0}, "group": "control_change"}, {"time": 2213, "annotation": {"number": 64, "value": 127}, "group": "control_change"}, {"time": 2241, "annotation": {"number": 64, "value": 0}, "group": "control_change"}, {"time": 2247, "annotation": {"number": 64, "value": 127}, "group": "control_change"}, {"time": 2276, "annotation": {"number": 64, "value": 0}, "group": "control_change"}, {"time": 2282, "annotation": {"number": 64, "value": 127}, "group": "control_change"}, {"time": 2313, "annotation": {"number": 64, "value": 0}, "group": "control_change"}, {"time": 2318, "annotation": {"number": 64, "value": 127}, "group": "control_change"}, {"time": 2349, "annotation": {"number": 64, "value": 0}, "group": "control_change"}, {"time": 2355, "annotation": {"number": 64, "value": 127}, "group": "control_change"}, {"time": 2385, "annotation": {"number": 64, "value": 0}, "group": "control_change"}, {"time": 2390, "annotation": {"number": 64, "value": 127}, "group": "control_change"}, {"time": 2419, "annotation": {"number": 64, "value": 0}, "group": "control_change"}, {"time": 2427, "annotation": {"number": 64, "value": 127}, "group": "control_change"}, {"time": 2458, "annotation": {"number": 64, "value": 0}, "group": "control_change"}, {"time": 2463, "annotation": {"number": 64, "value": 127}, "group": "control_change"}, {"time": 2494, "annotation": {"number": 64, "value": 0}, "group": "control_change"}, {"time": 2500, "annotation": {"number": 64, "value": 127}, "group": "control_change"}, {"time": 2531, "annotation": {"number": 64, "value": 0}, "group": "control_change"}, {"time": 2536, "annotation": {"number": 64, "value": 127}, "group": "control_change"}, {"time": 2565, "annotation": {"number": 64, "value": 0}, "group": "control_change"}, {"time": 2571, "annotation": {"number": 64, "value": 127}, "group": "control_change"}, {"time": 2601, "annotation": {"number": 64, "value": 0}, "group": "control_change"}, {"time": 2604, "annotation": {"number": 64, "value": 127}, "group": "control_change"}, {"time": 2638, "annotation": {"number": 64, "value": 0}, "group": "control_change"}, {"time": 2644, "annotation": {"number": 64, "value": 127}, "group": "control_change"}, {"time": 2672, "annotation": {"number": 64, "value": 0}, "group": "control_change"}, {"time": 2675, "annotation": {"number": 64, "value": 127}, "group": "control_change"}, {"time": 2709, "annotation": {"number": 64, "value": 0}, "group": "control_change"}, {"time": 2715, "annotation": {"number": 64, "value": 127}, "group": "control_change"}, {"time": 2744, "annotation": {"number": 64, "value": 0}, "group": "control_change"}, {"time": 2750, "annotation": {"number": 64, "value": 127}, "group": "control_change"}, {"time": 2781, "annotation": {"number": 64, "value": 0}, "group": "control_change"}, {"time": 2787, "annotation": {"number": 64, "value": 127}, "group": "control_change"}, {"time": 2818, "annotation": {"number": 64, "value": 0}, "group": "control_change"}, {"time": 2824, "annotation": {"number": 64, "value": 127}, "group": "control_change"}, {"time": 2893, "annotation": {"number": 64, "value": 0}, "group": "control_change"}, {"time": 3036, "annotation": {"number": 64, "value": 127}, "group": "control_change"}, {"time": 3070, "annotation": {"number": 64, "value": 0}, "group": "control_change"}, {"time": 3075, "annotation": {"number": 64, "value": 127}, "group": "control_change"}, {"time": 3105, "annotation": {"number": 64, "value": 0}, "group": "control_change"}, {"time": 3110, "annotation": {"number": 64, "value": 127}, "group": "control_change"}, {"time": 3138, "annotation": {"number": 64, "value": 0}, "group": "control_change"}, {"time": 3142, "annotation": {"number": 64, "value": 127}, "group": "control_change"}, {"time": 3178, "annotation": {"number": 64, "value": 0}, "group": "control_change"}, {"time": 3182, "annotation": {"number": 64, "value": 127}, "group": "control_change"}, {"time": 3215, "annotation": {"number": 64, "value": 0}, "group": "control_change"}, {"time": 3219, "annotation": {"number": 64, "value": 127}, "group": "control_change"}, {"time": 3248, "annotation": {"number": 64, "value": 0}, "group": "control_change"}, {"time": 3252, "annotation": {"number": 64, "value": 127}, "group": "control_change"}, {"time": 3284, "annotation": {"number": 64, "value": 0}, "group": "control_change"}, {"time": 3287, "annotation": {"number": 64, "value": 127}, "group": "control_change"}, {"time": 3322, "annotation": {"number": 64, "value": 0}, "group": "control_change"}, {"time": 3334, "annotation": {"number": 64, "value": 127}, "group": "control_change"}, {"time": 3357, "annotation": {"number": 64, "value": 0}, "group": "control_change"}, {"time": 3367, "annotation": {"number": 64, "value": 127}, "group": "control_change"}, {"time": 3392, "annotation": {"number": 64, "value": 0}, "group": "control_change"}, {"time": 3400, "annotation": {"number": 64, "value": 127}, "group": "control_change"}, {"time": 3429, "annotation": {"number": 64, "value": 0}, "group": "control_change"}, {"time": 3436, "annotation": {"number": 64, "value": 127}, "group": "control_change"}, {"time": 3464, "annotation": {"number": 64, "value": 0}, "group": "control_change"}, {"time": 3470, "annotation": {"number": 64, "value": 127}, "group": "control_change"}, {"time": 3500, "annotation": {"number": 64, "value": 0}, "group": "control_change"}, {"time": 3506, "annotation": {"number": 64, "value": 127}, "group": "control_change"}, {"time": 3537, "annotation": {"number": 64, "value": 0}, "group": "control_change"}, {"time": 3542, "annotation": {"number": 64, "value": 127}, "group": "control_change"}, {"time": 3574, "annotation": {"number": 64, "value": 0}, "group": "control_change"}, {"time": 3575, "annotation": {"number": 64, "value": 127}, "group": "control_change"}, {"time": 3610, "annotation": {"number": 64, "value": 0}, "group": "control_change"}, {"time": 3612, "annotation": {"number": 64, "value": 127}, "group": "control_change"}, {"time": 3682, "annotation": {"number": 64, "value": 0}, "group": "control_change"}, {"time": 3689, "annotation": {"number": 64, "value": 127}, "group": "control_change"}, {"time": 3718, "annotation": {"number": 64, "value": 0}, "group": "control_change"}, {"time": 3725, "annotation": {"number": 64, "value": 127}, "group": "control_change"}, {"time": 3754, "annotation": {"number": 64, "value": 0}, "group": "control_change"}, {"time": 3761, "annotation": {"number": 64, "value": 127}, "group": "control_change"}, {"time": 3824, "annotation": {"number": 64, "value": 0}, "group": "control_change"}, {"time": 3831, "annotation": {"number": 64, "value": 127}, "group": "control_change"}, {"time": 3898, "annotation": {"number": 64, "value": 0}, "group": "control_change"}, {"time": 3900, "annotation": {"number": 64, "value": 127}, "group": "control_change"}, {"time": 3936, "annotation": {"number": 64, "value": 0}, "group": "control_change"}, {"time": 3943, "annotation": {"number": 64, "value": 127}, "group": "control_change"}, {"time": 3969, "annotation": {"number": 64, "value": 0}, "group": "control_change"}, {"time": 3977, "annotation": {"number": 64, "value": 127}, "group": "control_change"}, {"time": 4005, "annotation": {"number": 64, "value": 0}, "group": "control_change"}, {"time": 4012, "annotation": {"number": 64, "value": 127}, "group": "control_change"}, {"time": 4041, "annotation": {"number": 64, "value": 0}, "group": "control_change"}, {"time": 4044, "annotation": {"number": 64, "value": 127}, "group": "control_change"}, {"time": 4114, "annotation": {"number": 64, "value": 0}, "group": "control_change"}, {"time": 4120, "annotation": {"number": 64, "value": 127}, "group": "control_change"}, {"time": 4150, "annotation": {"number": 64, "value": 0}, "group": "control_change"}, {"time": 4156, "annotation": {"number": 64, "value": 127}, "group": "control_change"}, {"time": 4187, "annotation": {"number": 64, "value": 0}, "group": "control_change"}, {"time": 4192, "annotation": {"number": 64, "value": 127}, "group": "control_change"}, {"time": 4224, "annotation": {"number": 64, "value": 0}, "group": "control_change"}, {"time": 4230, "annotation": {"number": 64, "value": 127}, "group": "control_change"}, {"time": 4258, "annotation": {"number": 64, "value": 0}, "group": "control_change"}, {"time": 4259, "annotation": {"number": 64, "value": 127}, "group": "control_change"}, {"time": 4329, "annotation": {"number": 64, "value": 0}, "group": "control_change"}, {"time": 4335, "annotation": {"number": 64, "value": 127}, "group": "control_change"}, {"time": 4366, "annotation": {"number": 64, "value": 0}, "group": "control_change"}, {"time": 4371, "annotation": {"number": 64, "value": 127}, "group": "control_change"}, {"time": 4402, "annotation": {"number": 64, "value": 0}, "group": "control_change"}, {"time": 4402, "annotation": {"number": 64, "value": 127}, "group": "control_change"}, {"time": 4435, "annotation": {"number": 64, "value": 0}, "group": "control_change"}, {"time": 4441, "annotation": {"number": 64, "value": 127}, "group": "control_change"}, {"time": 4473, "annotation": {"number": 64, "value": 0}, "group": "control_change"}, {"time": 4479, "annotation": {"number": 64, "value": 127}, "group": "control_change"}, {"time": 4511, "annotation": {"number": 64, "value": 0}, "group": "control_change"}, {"time": 4517, "annotation": {"number": 64, "value": 127}, "group": "control_change"}, {"time": 4545, "annotation": {"number": 64, "value": 0}, "group": "control_change"}, {"time": 4551, "annotation": {"number": 64, "value": 127}, "group": "control_change"}, {"time": 4580, "annotation": {"number": 64, "value": 0}, "group": "control_change"}, {"time": 4586, "annotation": {"number": 64, "value": 127}, "group": "control_change"}, {"time": 4617, "annotation": {"number": 64, "value": 0}, "group": "control_change"}, {"time": 4622, "annotation": {"number": 64, "value": 127}, "group": "control_change"}, {"time": 4653, "annotation": {"number": 64, "value": 0}, "group": "control_change"}, {"time": 4659, "annotation": {"number": 64, "value": 127}, "group": "control_change"}, {"time": 4689, "annotation": {"number": 64, "value": 0}, "group": "control_change"}, {"time": 4694, "annotation": {"number": 64, "value": 127}, "group": "control_change"}, {"time": 4723, "annotation": {"number": 64, "value": 0}, "group": "control_change"}, {"time": 4731, "annotation": {"number": 64, "value": 127}, "group": "control_change"}, {"time": 4762, "annotation": {"number": 64, "value": 0}, "group": "control_change"}, {"time": 4767, "annotation": {"number": 64, "value": 127}, "group": "control_change"}, {"time": 4798, "annotation": {"number": 64, "value": 0}, "group": "control_change"}, {"time": 4804, "annotation": {"number": 64, "value": 127}, "group": "control_change"}, {"time": 4835, "annotation": {"number": 64, "value": 0}, "group": "control_change"}, {"time": 4840, "annotation": {"number": 64, "value": 127}, "group": "control_change"}, {"time": 4869, "annotation": {"number": 64, "value": 0}, "group": "control_change"}, {"time": 4875, "annotation": {"number": 64, "value": 127}, "group": "control_change"}, {"time": 4905, "annotation": {"number": 64, "value": 0}, "group": "control_change"}, {"time": 4911, "annotation": {"number": 64, "value": 127}, "group": "control_change"}, {"time": 4942, "annotation": {"number": 64, "value": 0}, "group": "control_change"}, {"time": 4947, "annotation": {"number": 64, "value": 127}, "group": "control_change"}, {"time": 4978, "annotation": {"number": 64, "value": 0}, "group": "control_change"}, {"time": 4978, "annotation": {"number": 64, "value": 127}, "group": "control_change"}, {"time": 5011, "annotation": {"number": 64, "value": 0}, "group": "control_change"}, {"time": 5017, "annotation": {"number": 64, "value": 127}, "group": "control_change"}, {"time": 5049, "annotation": {"number": 64, "value": 0}, "group": "control_change"}, {"time": 5055, "annotation": {"number": 64, "value": 127}, "group": "control_change"}, {"time": 5087, "annotation": {"number": 64, "value": 0}, "group": "control_change"}, {"time": 5093, "annotation": {"number": 64, "value": 127}, "group": "control_change"}, {"time": 5121, "annotation": {"number": 64, "value": 0}, "group": "control_change"}, {"time": 5127, "annotation": {"number": 64, "value": 127}, "group": "control_change"}, {"time": 5156, "annotation": {"number": 64, "value": 0}, "group": "control_change"}, {"time": 5162, "annotation": {"number": 64, "value": 127}, "group": "control_change"}, {"time": 5193, "annotation": {"number": 64, "value": 0}, "group": "control_change"}, {"time": 5198, "annotation": {"number": 64, "value": 127}, "group": "control_change"}, {"time": 5229, "annotation": {"number": 64, "value": 0}, "group": "control_change"}, {"time": 5235, "annotation": {"number": 64, "value": 127}, "group": "control_change"}, {"time": 5265, "annotation": {"number": 64, "value": 0}, "group": "control_change"}, {"time": 5270, "annotation": {"number": 64, "value": 127}, "group": "control_change"}, {"time": 5299, "annotation": {"number": 64, "value": 0}, "group": "control_change"}, {"time": 5307, "annotation": {"number": 64, "value": 127}, "group": "control_change"}, {"time": 5338, "annotation": {"number": 64, "value": 0}, "group": "control_change"}, {"time": 5343, "annotation": {"number": 64, "value": 127}, "group": "control_change"}, {"time": 5374, "annotation": {"number": 64, "value": 0}, "group": "control_change"}, {"time": 5380, "annotation": {"number": 64, "value": 127}, "group": "control_change"}, {"time": 5411, "annotation": {"number": 64, "value": 0}, "group": "control_change"}, {"time": 5416, "annotation": {"number": 64, "value": 127}, "group": "control_change"}, {"time": 5445, "annotation": {"number": 64, "value": 0}, "group": "control_change"}, {"time": 5451, "annotation": {"number": 64, "value": 127}, "group": "control_change"}, {"time": 5481, "annotation": {"number": 64, "value": 0}, "group": "control_change"}, {"time": 5484, "annotation": {"number": 64, "value": 127}, "group": "control_change"}, {"time": 5518, "annotation": {"number": 64, "value": 0}, "group": "control_change"}, {"time": 5525, "annotation": {"number": 64, "value": 127}, "group": "control_change"}, {"time": 5554, "annotation": {"number": 64, "value": 0}, "group": "control_change"}, {"time": 5560, "annotation": {"number": 64, "value": 127}, "group": "control_change"}, {"time": 5626, "annotation": {"number": 64, "value": 0}, "group": "control_change"}, {"time": 5631, "annotation": {"number": 64, "value": 127}, "group": "control_change"}, {"time": 5660, "annotation": {"number": 64, "value": 0}, "group": "control_change"}, {"time": 5666, "annotation": {"number": 64, "value": 127}, "group": "control_change"}, {"time": 5696, "annotation": {"number": 64, "value": 0}, "group": "control_change"}, {"time": 5698, "annotation": {"number": 64, "value": 127}, "group": "control_change"}, {"time": 5770, "annotation": {"number": 64, "value": 0}, "group": "control_change"}]}]}