{"metadata": {"schema_version": "0.2", "title": "None", "source_filename": "216.mid", "source_format": "midi"}, "resolution": 12, "tempos": [{"time": 0, "qpm": 115.00046958525081}, {"time": 217, "qpm": 116.00053360245457}, {"time": 241, "qpm": 114.0001710002565}, {"time": 361, "qpm": 112.00026880064512}, {"time": 385, "qpm": 114.0001710002565}, {"time": 577, "qpm": 113.00030886751091}, {"time": 625, "qpm": 117.0003451510182}, {"time": 673, "qpm": 114.0001710002565}, {"time": 745, "qpm": 111.000111000111}, {"time": 817, "qpm": 113.00030886751091}, {"time": 913, "qpm": 118.0001337334849}, {"time": 961, "qpm": 115.00046958525081}, {"time": 1081, "qpm": 114.0001710002565}, {"time": 1105, "qpm": 113.00030886751091}, {"time": 1152, "qpm": 111.000111000111}, {"time": 1177, "qpm": 112.00026880064512}, {"time": 1201, "qpm": 117.0003451510182}, {"time": 1249, "qpm": 112.00026880064512}, {"time": 1321, "qpm": 115.00046958525081}, {"time": 1453, "qpm": 112.00026880064512}, {"time": 1477, "qpm": 115.00046958525081}, {"time": 1645, "qpm": 113.00030886751091}, {"time": 1681, "qpm": 111.000111000111}, {"time": 1729, "qpm": 115.00046958525081}, {"time": 1825, "qpm": 113.00030886751091}, {"time": 1873, "qpm": 115.00046958525081}, {"time": 1945, "qpm": 113.00030886751091}, {"time": 2017, "qpm": 116.00053360245457}, {"time": 2053, "qpm": 117.0003451510182}, {"time": 2065, "qpm": 111.000111000111}, {"time": 2113, "qpm": 115.00046958525081}, {"time": 2161, "qpm": 117.0003451510182}, {"time": 2185, "qpm": 114.0001710002565}, {"time": 2449, "qpm": 112.00026880064512}, {"time": 2497, "qpm": 114.0001710002565}, {"time": 3805, "qpm": 113.00030886751091}, {"time": 3841, "qpm": 114.0001710002565}, {"time": 3889, "qpm": 116.00053360245457}, {"time": 3937, "qpm": 114.0001710002565}, {"time": 4801, "qpm": 113.00030886751091}, {"time": 4849, "qpm": 114.0001710002565}, {"time": 4993, "qpm": 117.0003451510182}, {"time": 5041, "qpm": 114.0001710002565}], "time_signatures": [{"time": 0, "numerator": 4, "denominator": 4}], "tracks": [{"program": 4, "is_drum": false, "name": "MELODY", "notes": [{"time": 617, "pitch": 79, "duration": 3, "velocity": 72}, {"time": 620, "pitch": 79, "duration": 1, "velocity": 65}, {"time": 626, "pitch": 76, "duration": 6, "velocity": 74}, {"time": 632, "pitch": 76, "duration": 6, "velocity": 68}, {"time": 638, "pitch": 74, "duration": 6, "velocity": 79}, {"time": 644, "pitch": 74, "duration": 6, "velocity": 84}, {"time": 650, "pitch": 72, "duration": 8, "velocity": 71}, {"time": 656, "pitch": 74, "duration": 13, "velocity": 94}, {"time": 668, "pitch": 76, "duration": 6, "velocity": 89}, {"time": 674, "pitch": 76, "duration": 12, "velocity": 98}, {"time": 686, "pitch": 67, "duration": 6, "velocity": 77}, {"time": 692, "pitch": 67, "duration": 6, "velocity": 91}, {"time": 698, "pitch": 69, "duration": 6, "velocity": 89}, {"time": 704, "pitch": 74, "duration": 12, "velocity": 97}, {"time": 716, "pitch": 72, "duration": 7, "velocity": 94}, {"time": 722, "pitch": 74, "duration": 12, "velocity": 96}, {"time": 734, "pitch": 76, "duration": 13, "velocity": 100}, {"time": 746, "pitch": 72, "duration": 42, "velocity": 97}, {"time": 788, "pitch": 67, "duration": 7, "velocity": 66}, {"time": 794, "pitch": 69, "duration": 6, "velocity": 68}, {"time": 800, "pitch": 74, "duration": 12, "velocity": 87}, {"time": 812, "pitch": 72, "duration": 7, "velocity": 79}, {"time": 818, "pitch": 74, "duration": 13, "velocity": 91}, {"time": 830, "pitch": 76, "duration": 13, "velocity": 93}, {"time": 842, "pitch": 72, "duration": 42, "velocity": 106}, {"time": 884, "pitch": 67, "duration": 6, "velocity": 89}, {"time": 890, "pitch": 69, "duration": 6, "velocity": 77}, {"time": 896, "pitch": 74, "duration": 12, "velocity": 96}, {"time": 908, "pitch": 72, "duration": 6, "velocity": 95}, {"time": 914, "pitch": 74, "duration": 13, "velocity": 98}, {"time": 926, "pitch": 76, "duration": 12, "velocity": 97}, {"time": 938, "pitch": 76, "duration": 12, "velocity": 103}, {"time": 950, "pitch": 74, "duration": 48, "velocity": 105}, {"time": 998, "pitch": 79, "duration": 6, "velocity": 90}, {"time": 1004, "pitch": 79, "duration": 6, "velocity": 90}, {"time": 1010, "pitch": 76, "duration": 6, "velocity": 89}, {"time": 1016, "pitch": 76, "duration": 7, "velocity": 94}, {"time": 1022, "pitch": 74, "duration": 6, "velocity": 82}, {"time": 1028, "pitch": 74, "duration": 6, "velocity": 92}, {"time": 1034, "pitch": 72, "duration": 6, "velocity": 94}, {"time": 1040, "pitch": 74, "duration": 13, "velocity": 99}, {"time": 1052, "pitch": 76, "duration": 6, "velocity": 100}, {"time": 1058, "pitch": 76, "duration": 12, "velocity": 100}, {"time": 1070, "pitch": 67, "duration": 6, "velocity": 75}, {"time": 1076, "pitch": 67, "duration": 6, "velocity": 87}, {"time": 1082, "pitch": 69, "duration": 6, "velocity": 85}, {"time": 1088, "pitch": 74, "duration": 12, "velocity": 96}, {"time": 1100, "pitch": 72, "duration": 7, "velocity": 85}, {"time": 1106, "pitch": 74, "duration": 12, "velocity": 93}, {"time": 1118, "pitch": 79, "duration": 12, "velocity": 90}, {"time": 1130, "pitch": 72, "duration": 42, "velocity": 59}, {"time": 1172, "pitch": 67, "duration": 6, "velocity": 92}, {"time": 1178, "pitch": 69, "duration": 6, "velocity": 92}, {"time": 1184, "pitch": 74, "duration": 12, "velocity": 100}, {"time": 1196, "pitch": 72, "duration": 7, "velocity": 98}, {"time": 1202, "pitch": 74, "duration": 12, "velocity": 98}, {"time": 1214, "pitch": 76, "duration": 12, "velocity": 105}, {"time": 1226, "pitch": 72, "duration": 42, "velocity": 105}, {"time": 1268, "pitch": 67, "duration": 6, "velocity": 97}, {"time": 1274, "pitch": 69, "duration": 6, "velocity": 90}, {"time": 1280, "pitch": 74, "duration": 12, "velocity": 98}, {"time": 1292, "pitch": 72, "duration": 7, "velocity": 90}, {"time": 1298, "pitch": 74, "duration": 12, "velocity": 92}, {"time": 1310, "pitch": 76, "duration": 12, "velocity": 93}, {"time": 1322, "pitch": 76, "duration": 12, "velocity": 97}, {"time": 1334, "pitch": 74, "duration": 30, "velocity": 108}, {"time": 1364, "pitch": 72, "duration": 6, "velocity": 100}, {"time": 1370, "pitch": 74, "duration": 6, "velocity": 84}, {"time": 1376, "pitch": 76, "duration": 12, "velocity": 98}, {"time": 1388, "pitch": 79, "duration": 6, "velocity": 91}, {"time": 1394, "pitch": 79, "duration": 12, "velocity": 99}, {"time": 1406, "pitch": 81, "duration": 12, "velocity": 101}, {"time": 1418, "pitch": 81, "duration": 12, "velocity": 105}, {"time": 1430, "pitch": 79, "duration": 30, "velocity": 108}, {"time": 1460, "pitch": 76, "duration": 6, "velocity": 101}, {"time": 1466, "pitch": 76, "duration": 7, "velocity": 93}, {"time": 1472, "pitch": 77, "duration": 12, "velocity": 98}, {"time": 1484, "pitch": 76, "duration": 6, "velocity": 95}, {"time": 1490, "pitch": 77, "duration": 13, "velocity": 99}, {"time": 1502, "pitch": 79, "duration": 12, "velocity": 97}, {"time": 1514, "pitch": 74, "duration": 7, "velocity": 90}, {"time": 1520, "pitch": 76, "duration": 18, "velocity": 98}, {"time": 1538, "pitch": 76, "duration": 6, "velocity": 101}, {"time": 1544, "pitch": 74, "duration": 6, "velocity": 97}, {"time": 1550, "pitch": 76, "duration": 6, "velocity": 94}, {"time": 1556, "pitch": 79, "duration": 6, "velocity": 90}, {"time": 1562, "pitch": 76, "duration": 6, "velocity": 97}, {"time": 1568, "pitch": 74, "duration": 7, "velocity": 100}, {"time": 1574, "pitch": 72, "duration": 12, "velocity": 76}, {"time": 1586, "pitch": 69, "duration": 6, "velocity": 85}, {"time": 1592, "pitch": 69, "duration": 6, "velocity": 89}, {"time": 1598, "pitch": 72, "duration": 6, "velocity": 90}, {"time": 1604, "pitch": 81, "duration": 6, "velocity": 97}, {"time": 1610, "pitch": 83, "duration": 7, "velocity": 92}, {"time": 1616, "pitch": 81, "duration": 10, "velocity": 108}, {"time": 1625, "pitch": 79, "duration": 27, "velocity": 98}, {"time": 1652, "pitch": 76, "duration": 6, "velocity": 99}, {"time": 1658, "pitch": 79, "duration": 6, "velocity": 90}, {"time": 1664, "pitch": 77, "duration": 6, "velocity": 97}, {"time": 1670, "pitch": 76, "duration": 6, "velocity": 94}, {"time": 1676, "pitch": 77, "duration": 6, "velocity": 98}, {"time": 1682, "pitch": 76, "duration": 7, "velocity": 93}, {"time": 1688, "pitch": 77, "duration": 6, "velocity": 98}, {"time": 1694, "pitch": 84, "duration": 12, "velocity": 100}, {"time": 1706, "pitch": 84, "duration": 24, "velocity": 109}, {"time": 1730, "pitch": 81, "duration": 6, "velocity": 105}, {"time": 1736, "pitch": 84, "duration": 12, "velocity": 108}, {"time": 1748, "pitch": 86, "duration": 6, "velocity": 99}, {"time": 1754, "pitch": 81, "duration": 12, "velocity": 105}, {"time": 1766, "pitch": 79, "duration": 66, "velocity": 111}, {"time": 1832, "pitch": 79, "duration": 6, "velocity": 108}, {"time": 1838, "pitch": 81, "duration": 6, "velocity": 96}, {"time": 1844, "pitch": 84, "duration": 6, "velocity": 99}, {"time": 1850, "pitch": 83, "duration": 7, "velocity": 96}, {"time": 1856, "pitch": 81, "duration": 10, "velocity": 97}, {"time": 1865, "pitch": 79, "duration": 15, "velocity": 99}, {"time": 1880, "pitch": 79, "duration": 7, "velocity": 109}, {"time": 1886, "pitch": 81, "duration": 6, "velocity": 98}, {"time": 1892, "pitch": 84, "duration": 6, "velocity": 97}, {"time": 1898, "pitch": 83, "duration": 7, "velocity": 97}, {"time": 1904, "pitch": 81, "duration": 10, "velocity": 106}, {"time": 1913, "pitch": 79, "duration": 15, "velocity": 97}, {"time": 1928, "pitch": 79, "duration": 6, "velocity": 109}, {"time": 1934, "pitch": 81, "duration": 6, "velocity": 96}, {"time": 1940, "pitch": 84, "duration": 6, "velocity": 94}, {"time": 1946, "pitch": 83, "duration": 8, "velocity": 93}, {"time": 1952, "pitch": 81, "duration": 7, "velocity": 106}, {"time": 1958, "pitch": 79, "duration": 12, "velocity": 98}, {"time": 1970, "pitch": 79, "duration": 6, "velocity": 106}, {"time": 1976, "pitch": 79, "duration": 9, "velocity": 105}, {"time": 1985, "pitch": 79, "duration": 9, "velocity": 108}, {"time": 1994, "pitch": 74, "duration": 6, "velocity": 97}, {"time": 2000, "pitch": 76, "duration": 18, "velocity": 103}, {"time": 2018, "pitch": 76, "duration": 6, "velocity": 111}, {"time": 2024, "pitch": 74, "duration": 6, "velocity": 101}, {"time": 2030, "pitch": 76, "duration": 6, "velocity": 96}, {"time": 2036, "pitch": 79, "duration": 6, "velocity": 98}, {"time": 2042, "pitch": 76, "duration": 6, "velocity": 105}, {"time": 2048, "pitch": 74, "duration": 9, "velocity": 106}, {"time": 2057, "pitch": 72, "duration": 9, "velocity": 105}, {"time": 2066, "pitch": 69, "duration": 6, "velocity": 99}, {"time": 2072, "pitch": 69, "duration": 6, "velocity": 100}, {"time": 2078, "pitch": 72, "duration": 6, "velocity": 99}, {"time": 2084, "pitch": 81, "duration": 6, "velocity": 101}, {"time": 2090, "pitch": 83, "duration": 7, "velocity": 93}, {"time": 2096, "pitch": 81, "duration": 10, "velocity": 111}, {"time": 2105, "pitch": 79, "duration": 27, "velocity": 116}, {"time": 2132, "pitch": 76, "duration": 6, "velocity": 106}, {"time": 2138, "pitch": 79, "duration": 6, "velocity": 106}, {"time": 2144, "pitch": 77, "duration": 12, "velocity": 105}, {"time": 2156, "pitch": 76, "duration": 7, "velocity": 99}, {"time": 2162, "pitch": 77, "duration": 12, "velocity": 99}, {"time": 2174, "pitch": 84, "duration": 12, "velocity": 108}, {"time": 2186, "pitch": 72, "duration": 6, "velocity": 90}, {"time": 2192, "pitch": 74, "duration": 27, "velocity": 101}, {"time": 2216, "pitch": 79, "duration": 6, "velocity": 103}, {"time": 2222, "pitch": 81, "duration": 6, "velocity": 100}, {"time": 2228, "pitch": 84, "duration": 7, "velocity": 94}, {"time": 2234, "pitch": 83, "duration": 7, "velocity": 100}, {"time": 2240, "pitch": 81, "duration": 9, "velocity": 111}, {"time": 2249, "pitch": 79, "duration": 15, "velocity": 108}, {"time": 2264, "pitch": 79, "duration": 7, "velocity": 108}, {"time": 2270, "pitch": 81, "duration": 6, "velocity": 101}, {"time": 2276, "pitch": 84, "duration": 7, "velocity": 99}, {"time": 2282, "pitch": 83, "duration": 7, "velocity": 99}, {"time": 2288, "pitch": 81, "duration": 11, "velocity": 114}, {"time": 2297, "pitch": 79, "duration": 15, "velocity": 108}, {"time": 2312, "pitch": 79, "duration": 6, "velocity": 109}, {"time": 2318, "pitch": 81, "duration": 6, "velocity": 99}, {"time": 2324, "pitch": 84, "duration": 7, "velocity": 93}, {"time": 2330, "pitch": 83, "duration": 8, "velocity": 99}, {"time": 2336, "pitch": 81, "duration": 9, "velocity": 108}, {"time": 2345, "pitch": 79, "duration": 9, "velocity": 98}, {"time": 2354, "pitch": 79, "duration": 6, "velocity": 97}, {"time": 2360, "pitch": 79, "duration": 9, "velocity": 105}, {"time": 2369, "pitch": 79, "duration": 9, "velocity": 105}, {"time": 2378, "pitch": 74, "duration": 6, "velocity": 89}, {"time": 2384, "pitch": 76, "duration": 18, "velocity": 101}, {"time": 2402, "pitch": 76, "duration": 6, "velocity": 105}, {"time": 2408, "pitch": 74, "duration": 6, "velocity": 97}, {"time": 2414, "pitch": 76, "duration": 6, "velocity": 98}, {"time": 2420, "pitch": 79, "duration": 6, "velocity": 90}, {"time": 2426, "pitch": 76, "duration": 7, "velocity": 100}, {"time": 2432, "pitch": 74, "duration": 6, "velocity": 101}, {"time": 2438, "pitch": 72, "duration": 12, "velocity": 94}, {"time": 2450, "pitch": 69, "duration": 6, "velocity": 94}, {"time": 2456, "pitch": 69, "duration": 6, "velocity": 94}, {"time": 2462, "pitch": 72, "duration": 6, "velocity": 93}, {"time": 2468, "pitch": 81, "duration": 6, "velocity": 103}, {"time": 2474, "pitch": 83, "duration": 6, "velocity": 87}, {"time": 2480, "pitch": 81, "duration": 9, "velocity": 109}, {"time": 2489, "pitch": 79, "duration": 27, "velocity": 109}, {"time": 2516, "pitch": 76, "duration": 6, "velocity": 103}, {"time": 2522, "pitch": 79, "duration": 7, "velocity": 105}, {"time": 2528, "pitch": 77, "duration": 6, "velocity": 108}, {"time": 2534, "pitch": 76, "duration": 7, "velocity": 97}, {"time": 2540, "pitch": 77, "duration": 6, "velocity": 93}, {"time": 2546, "pitch": 76, "duration": 7, "velocity": 92}, {"time": 2552, "pitch": 77, "duration": 6, "velocity": 100}, {"time": 2558, "pitch": 84, "duration": 12, "velocity": 98}, {"time": 2570, "pitch": 72, "duration": 6, "velocity": 86}, {"time": 2576, "pitch": 74, "duration": 18, "velocity": 90}, {"time": 2594, "pitch": 67, "duration": 6, "velocity": 90}, {"time": 2600, "pitch": 76, "duration": 6, "velocity": 91}, {"time": 2606, "pitch": 79, "duration": 12, "velocity": 84}, {"time": 2618, "pitch": 81, "duration": 6, "velocity": 77}, {"time": 2624, "pitch": 74, "duration": 18, "velocity": 90}, {"time": 2642, "pitch": 72, "duration": 180, "velocity": 85}, {"time": 2822, "pitch": 79, "duration": 6, "velocity": 72}, {"time": 2828, "pitch": 79, "duration": 6, "velocity": 65}, {"time": 2834, "pitch": 76, "duration": 6, "velocity": 74}, {"time": 2840, "pitch": 76, "duration": 6, "velocity": 68}, {"time": 2846, "pitch": 74, "duration": 6, "velocity": 79}, {"time": 2852, "pitch": 74, "duration": 6, "velocity": 84}, {"time": 2858, "pitch": 72, "duration": 8, "velocity": 71}, {"time": 2864, "pitch": 74, "duration": 12, "velocity": 94}, {"time": 2876, "pitch": 76, "duration": 6, "velocity": 89}, {"time": 2882, "pitch": 76, "duration": 12, "velocity": 98}, {"time": 2894, "pitch": 67, "duration": 6, "velocity": 77}, {"time": 2900, "pitch": 67, "duration": 6, "velocity": 91}, {"time": 2906, "pitch": 69, "duration": 7, "velocity": 89}, {"time": 2912, "pitch": 74, "duration": 12, "velocity": 97}, {"time": 2924, "pitch": 72, "duration": 7, "velocity": 94}, {"time": 2930, "pitch": 74, "duration": 12, "velocity": 96}, {"time": 2942, "pitch": 76, "duration": 13, "velocity": 100}, {"time": 2954, "pitch": 72, "duration": 42, "velocity": 97}, {"time": 2996, "pitch": 67, "duration": 7, "velocity": 66}, {"time": 3002, "pitch": 69, "duration": 6, "velocity": 68}, {"time": 3008, "pitch": 74, "duration": 12, "velocity": 87}, {"time": 3020, "pitch": 72, "duration": 7, "velocity": 79}, {"time": 3026, "pitch": 74, "duration": 13, "velocity": 91}, {"time": 3038, "pitch": 76, "duration": 12, "velocity": 93}, {"time": 3050, "pitch": 72, "duration": 42, "velocity": 106}, {"time": 3092, "pitch": 67, "duration": 7, "velocity": 89}, {"time": 3098, "pitch": 69, "duration": 6, "velocity": 77}, {"time": 3104, "pitch": 74, "duration": 12, "velocity": 96}, {"time": 3116, "pitch": 72, "duration": 6, "velocity": 95}, {"time": 3122, "pitch": 74, "duration": 13, "velocity": 98}, {"time": 3134, "pitch": 76, "duration": 12, "velocity": 97}, {"time": 3146, "pitch": 76, "duration": 12, "velocity": 103}, {"time": 3158, "pitch": 74, "duration": 35, "velocity": 105}, {"time": 3206, "pitch": 79, "duration": 6, "velocity": 90}, {"time": 3212, "pitch": 79, "duration": 7, "velocity": 90}, {"time": 3218, "pitch": 76, "duration": 6, "velocity": 89}, {"time": 3224, "pitch": 76, "duration": 10, "velocity": 94}, {"time": 3230, "pitch": 74, "duration": 6, "velocity": 82}, {"time": 3236, "pitch": 74, "duration": 9, "velocity": 92}, {"time": 3242, "pitch": 72, "duration": 6, "velocity": 94}, {"time": 3248, "pitch": 74, "duration": 13, "velocity": 99}, {"time": 3260, "pitch": 76, "duration": 6, "velocity": 100}, {"time": 3266, "pitch": 76, "duration": 12, "velocity": 100}, {"time": 3278, "pitch": 67, "duration": 6, "velocity": 75}, {"time": 3284, "pitch": 67, "duration": 6, "velocity": 87}, {"time": 3290, "pitch": 69, "duration": 6, "velocity": 85}, {"time": 3296, "pitch": 74, "duration": 12, "velocity": 96}, {"time": 3308, "pitch": 72, "duration": 7, "velocity": 85}, {"time": 3314, "pitch": 74, "duration": 12, "velocity": 93}, {"time": 3326, "pitch": 79, "duration": 12, "velocity": 90}, {"time": 3338, "pitch": 72, "duration": 42, "velocity": 59}, {"time": 3380, "pitch": 67, "duration": 8, "velocity": 92}, {"time": 3386, "pitch": 69, "duration": 6, "velocity": 92}, {"time": 3392, "pitch": 74, "duration": 12, "velocity": 100}, {"time": 3404, "pitch": 72, "duration": 7, "velocity": 98}, {"time": 3410, "pitch": 74, "duration": 12, "velocity": 98}, {"time": 3422, "pitch": 76, "duration": 12, "velocity": 105}, {"time": 3434, "pitch": 72, "duration": 42, "velocity": 105}, {"time": 3476, "pitch": 67, "duration": 6, "velocity": 97}, {"time": 3482, "pitch": 69, "duration": 6, "velocity": 90}, {"time": 3488, "pitch": 74, "duration": 12, "velocity": 98}, {"time": 3500, "pitch": 72, "duration": 7, "velocity": 90}, {"time": 3506, "pitch": 74, "duration": 12, "velocity": 92}, {"time": 3518, "pitch": 76, "duration": 12, "velocity": 93}, {"time": 3530, "pitch": 76, "duration": 12, "velocity": 97}, {"time": 3542, "pitch": 74, "duration": 30, "velocity": 108}, {"time": 3572, "pitch": 72, "duration": 6, "velocity": 100}, {"time": 3578, "pitch": 74, "duration": 6, "velocity": 84}, {"time": 3584, "pitch": 76, "duration": 12, "velocity": 98}, {"time": 3596, "pitch": 79, "duration": 6, "velocity": 91}, {"time": 3602, "pitch": 79, "duration": 12, "velocity": 99}, {"time": 3614, "pitch": 81, "duration": 12, "velocity": 101}, {"time": 3626, "pitch": 81, "duration": 12, "velocity": 105}, {"time": 3638, "pitch": 79, "duration": 30, "velocity": 108}, {"time": 3668, "pitch": 76, "duration": 6, "velocity": 101}, {"time": 3674, "pitch": 79, "duration": 7, "velocity": 93}, {"time": 3680, "pitch": 77, "duration": 13, "velocity": 98}, {"time": 3692, "pitch": 76, "duration": 6, "velocity": 95}, {"time": 3698, "pitch": 77, "duration": 13, "velocity": 99}, {"time": 3710, "pitch": 79, "duration": 12, "velocity": 97}, {"time": 3722, "pitch": 74, "duration": 7, "velocity": 90}, {"time": 3728, "pitch": 76, "duration": 18, "velocity": 98}, {"time": 3746, "pitch": 76, "duration": 6, "velocity": 101}, {"time": 3752, "pitch": 74, "duration": 6, "velocity": 97}, {"time": 3758, "pitch": 76, "duration": 6, "velocity": 94}, {"time": 3764, "pitch": 79, "duration": 6, "velocity": 90}, {"time": 3770, "pitch": 76, "duration": 6, "velocity": 97}, {"time": 3776, "pitch": 74, "duration": 7, "velocity": 100}, {"time": 3782, "pitch": 72, "duration": 12, "velocity": 76}, {"time": 3794, "pitch": 69, "duration": 6, "velocity": 85}, {"time": 3800, "pitch": 69, "duration": 6, "velocity": 89}, {"time": 3806, "pitch": 72, "duration": 6, "velocity": 90}, {"time": 3812, "pitch": 81, "duration": 6, "velocity": 97}, {"time": 3818, "pitch": 83, "duration": 7, "velocity": 92}, {"time": 3824, "pitch": 81, "duration": 10, "velocity": 108}, {"time": 3833, "pitch": 79, "duration": 27, "velocity": 98}, {"time": 3860, "pitch": 76, "duration": 6, "velocity": 99}, {"time": 3866, "pitch": 79, "duration": 6, "velocity": 90}, {"time": 3872, "pitch": 77, "duration": 6, "velocity": 97}, {"time": 3878, "pitch": 76, "duration": 6, "velocity": 94}, {"time": 3884, "pitch": 77, "duration": 6, "velocity": 98}, {"time": 3890, "pitch": 76, "duration": 7, "velocity": 93}, {"time": 3896, "pitch": 77, "duration": 6, "velocity": 98}, {"time": 3902, "pitch": 84, "duration": 15, "velocity": 100}, {"time": 3917, "pitch": 84, "duration": 21, "velocity": 109}, {"time": 3938, "pitch": 81, "duration": 6, "velocity": 105}, {"time": 3944, "pitch": 84, "duration": 12, "velocity": 108}, {"time": 3956, "pitch": 86, "duration": 6, "velocity": 99}, {"time": 3962, "pitch": 81, "duration": 12, "velocity": 105}, {"time": 3974, "pitch": 79, "duration": 66, "velocity": 111}, {"time": 4040, "pitch": 79, "duration": 6, "velocity": 108}, {"time": 4046, "pitch": 81, "duration": 6, "velocity": 96}, {"time": 4052, "pitch": 84, "duration": 6, "velocity": 99}, {"time": 4058, "pitch": 83, "duration": 7, "velocity": 96}, {"time": 4064, "pitch": 81, "duration": 10, "velocity": 97}, {"time": 4073, "pitch": 79, "duration": 15, "velocity": 99}, {"time": 4088, "pitch": 79, "duration": 7, "velocity": 109}, {"time": 4094, "pitch": 81, "duration": 6, "velocity": 98}, {"time": 4100, "pitch": 84, "duration": 6, "velocity": 97}, {"time": 4106, "pitch": 83, "duration": 7, "velocity": 97}, {"time": 4112, "pitch": 81, "duration": 10, "velocity": 106}, {"time": 4121, "pitch": 79, "duration": 15, "velocity": 97}, {"time": 4136, "pitch": 79, "duration": 6, "velocity": 109}, {"time": 4142, "pitch": 81, "duration": 6, "velocity": 96}, {"time": 4148, "pitch": 84, "duration": 6, "velocity": 94}, {"time": 4154, "pitch": 83, "duration": 8, "velocity": 93}, {"time": 4160, "pitch": 81, "duration": 7, "velocity": 106}, {"time": 4166, "pitch": 79, "duration": 12, "velocity": 98}, {"time": 4178, "pitch": 79, "duration": 6, "velocity": 106}, {"time": 4184, "pitch": 79, "duration": 9, "velocity": 105}, {"time": 4193, "pitch": 79, "duration": 9, "velocity": 108}, {"time": 4202, "pitch": 74, "duration": 6, "velocity": 97}, {"time": 4208, "pitch": 76, "duration": 18, "velocity": 103}, {"time": 4226, "pitch": 76, "duration": 6, "velocity": 111}, {"time": 4232, "pitch": 74, "duration": 6, "velocity": 101}, {"time": 4238, "pitch": 76, "duration": 6, "velocity": 96}, {"time": 4244, "pitch": 79, "duration": 6, "velocity": 98}, {"time": 4250, "pitch": 76, "duration": 6, "velocity": 105}, {"time": 4256, "pitch": 74, "duration": 7, "velocity": 106}, {"time": 4262, "pitch": 72, "duration": 12, "velocity": 105}, {"time": 4274, "pitch": 69, "duration": 6, "velocity": 99}, {"time": 4280, "pitch": 69, "duration": 6, "velocity": 100}, {"time": 4286, "pitch": 72, "duration": 6, "velocity": 99}, {"time": 4292, "pitch": 81, "duration": 6, "velocity": 101}, {"time": 4298, "pitch": 83, "duration": 7, "velocity": 93}, {"time": 4304, "pitch": 81, "duration": 10, "velocity": 111}, {"time": 4313, "pitch": 79, "duration": 27, "velocity": 116}, {"time": 4340, "pitch": 76, "duration": 6, "velocity": 106}, {"time": 4346, "pitch": 79, "duration": 6, "velocity": 106}, {"time": 4352, "pitch": 77, "duration": 12, "velocity": 105}, {"time": 4364, "pitch": 76, "duration": 7, "velocity": 99}, {"time": 4370, "pitch": 77, "duration": 12, "velocity": 99}, {"time": 4382, "pitch": 84, "duration": 12, "velocity": 108}, {"time": 4394, "pitch": 72, "duration": 6, "velocity": 90}, {"time": 4400, "pitch": 74, "duration": 27, "velocity": 101}, {"time": 4424, "pitch": 79, "duration": 6, "velocity": 103}, {"time": 4430, "pitch": 81, "duration": 6, "velocity": 100}, {"time": 4436, "pitch": 84, "duration": 7, "velocity": 94}, {"time": 4442, "pitch": 83, "duration": 7, "velocity": 100}, {"time": 4448, "pitch": 81, "duration": 9, "velocity": 111}, {"time": 4454, "pitch": 79, "duration": 18, "velocity": 108}, {"time": 4472, "pitch": 79, "duration": 7, "velocity": 108}, {"time": 4478, "pitch": 81, "duration": 6, "velocity": 101}, {"time": 4484, "pitch": 84, "duration": 7, "velocity": 99}, {"time": 4490, "pitch": 83, "duration": 7, "velocity": 99}, {"time": 4496, "pitch": 81, "duration": 8, "velocity": 114}, {"time": 4502, "pitch": 79, "duration": 18, "velocity": 108}, {"time": 4520, "pitch": 79, "duration": 6, "velocity": 109}, {"time": 4526, "pitch": 81, "duration": 6, "velocity": 99}, {"time": 4532, "pitch": 84, "duration": 7, "velocity": 93}, {"time": 4538, "pitch": 83, "duration": 8, "velocity": 99}, {"time": 4544, "pitch": 81, "duration": 7, "velocity": 108}, {"time": 4550, "pitch": 79, "duration": 12, "velocity": 98}, {"time": 4562, "pitch": 79, "duration": 6, "velocity": 97}, {"time": 4568, "pitch": 79, "duration": 9, "velocity": 105}, {"time": 4577, "pitch": 79, "duration": 9, "velocity": 105}, {"time": 4586, "pitch": 74, "duration": 6, "velocity": 89}, {"time": 4592, "pitch": 76, "duration": 18, "velocity": 101}, {"time": 4610, "pitch": 76, "duration": 6, "velocity": 105}, {"time": 4616, "pitch": 74, "duration": 6, "velocity": 97}, {"time": 4622, "pitch": 76, "duration": 6, "velocity": 98}, {"time": 4628, "pitch": 79, "duration": 6, "velocity": 90}, {"time": 4634, "pitch": 76, "duration": 7, "velocity": 100}, {"time": 4640, "pitch": 74, "duration": 6, "velocity": 101}, {"time": 4646, "pitch": 72, "duration": 12, "velocity": 94}, {"time": 4658, "pitch": 69, "duration": 6, "velocity": 94}, {"time": 4664, "pitch": 69, "duration": 6, "velocity": 94}, {"time": 4670, "pitch": 72, "duration": 6, "velocity": 93}, {"time": 4676, "pitch": 81, "duration": 6, "velocity": 103}, {"time": 4682, "pitch": 83, "duration": 6, "velocity": 87}, {"time": 4688, "pitch": 81, "duration": 8, "velocity": 109}, {"time": 4694, "pitch": 79, "duration": 30, "velocity": 109}, {"time": 4724, "pitch": 76, "duration": 6, "velocity": 103}, {"time": 4730, "pitch": 79, "duration": 7, "velocity": 105}, {"time": 4736, "pitch": 77, "duration": 6, "velocity": 108}, {"time": 4742, "pitch": 76, "duration": 7, "velocity": 97}, {"time": 4748, "pitch": 77, "duration": 6, "velocity": 93}, {"time": 4754, "pitch": 76, "duration": 7, "velocity": 92}, {"time": 4760, "pitch": 77, "duration": 6, "velocity": 100}, {"time": 4766, "pitch": 84, "duration": 12, "velocity": 98}, {"time": 4778, "pitch": 72, "duration": 6, "velocity": 86}, {"time": 4784, "pitch": 74, "duration": 18, "velocity": 90}, {"time": 4802, "pitch": 67, "duration": 6, "velocity": 90}, {"time": 4808, "pitch": 76, "duration": 6, "velocity": 91}, {"time": 4814, "pitch": 79, "duration": 9, "velocity": 84}, {"time": 4823, "pitch": 81, "duration": 9, "velocity": 77}, {"time": 4832, "pitch": 74, "duration": 18, "velocity": 90}, {"time": 4850, "pitch": 72, "duration": 54, "velocity": 85}, {"time": 4904, "pitch": 79, "duration": 6, "velocity": 103}, {"time": 4910, "pitch": 81, "duration": 7, "velocity": 100}, {"time": 4916, "pitch": 84, "duration": 6, "velocity": 94}, {"time": 4922, "pitch": 83, "duration": 7, "velocity": 100}, {"time": 4928, "pitch": 81, "duration": 9, "velocity": 111}, {"time": 4937, "pitch": 79, "duration": 15, "velocity": 108}, {"time": 4952, "pitch": 79, "duration": 7, "velocity": 108}, {"time": 4958, "pitch": 81, "duration": 6, "velocity": 101}, {"time": 4964, "pitch": 84, "duration": 7, "velocity": 99}, {"time": 4970, "pitch": 83, "duration": 7, "velocity": 99}, {"time": 4976, "pitch": 81, "duration": 9, "velocity": 114}, {"time": 4985, "pitch": 79, "duration": 15, "velocity": 108}, {"time": 5000, "pitch": 79, "duration": 6, "velocity": 109}, {"time": 5006, "pitch": 81, "duration": 6, "velocity": 99}, {"time": 5012, "pitch": 84, "duration": 7, "velocity": 93}, {"time": 5018, "pitch": 83, "duration": 8, "velocity": 99}, {"time": 5024, "pitch": 81, "duration": 9, "velocity": 108}, {"time": 5033, "pitch": 79, "duration": 15, "velocity": 98}, {"time": 5048, "pitch": 79, "duration": 11, "velocity": 97}, {"time": 5057, "pitch": 79, "duration": 2, "velocity": 105}, {"time": 5066, "pitch": 74, "duration": 6, "velocity": 89}, {"time": 5072, "pitch": 76, "duration": 18, "velocity": 101}, {"time": 5090, "pitch": 76, "duration": 6, "velocity": 105}, {"time": 5096, "pitch": 74, "duration": 6, "velocity": 97}, {"time": 5102, "pitch": 76, "duration": 6, "velocity": 98}, {"time": 5108, "pitch": 79, "duration": 6, "velocity": 90}, {"time": 5114, "pitch": 76, "duration": 7, "velocity": 100}, {"time": 5120, "pitch": 74, "duration": 6, "velocity": 101}, {"time": 5126, "pitch": 72, "duration": 12, "velocity": 94}, {"time": 5138, "pitch": 69, "duration": 6, "velocity": 94}, {"time": 5144, "pitch": 69, "duration": 6, "velocity": 94}, {"time": 5150, "pitch": 72, "duration": 6, "velocity": 93}, {"time": 5156, "pitch": 81, "duration": 6, "velocity": 103}, {"time": 5162, "pitch": 83, "duration": 6, "velocity": 87}, {"time": 5168, "pitch": 81, "duration": 18, "velocity": 109}, {"time": 5180, "pitch": 79, "duration": 24, "velocity": 109}, {"time": 5204, "pitch": 76, "duration": 6, "velocity": 103}, {"time": 5210, "pitch": 79, "duration": 7, "velocity": 105}, {"time": 5216, "pitch": 77, "duration": 12, "velocity": 108}, {"time": 5228, "pitch": 76, "duration": 8, "velocity": 97}, {"time": 5234, "pitch": 77, "duration": 13, "velocity": 93}, {"time": 5246, "pitch": 84, "duration": 9, "velocity": 98}, {"time": 5255, "pitch": 72, "duration": 9, "velocity": 86}, {"time": 5264, "pitch": 74, "duration": 24, "velocity": 90}, {"time": 5288, "pitch": 79, "duration": 6, "velocity": 103}, {"time": 5294, "pitch": 81, "duration": 6, "velocity": 100}, {"time": 5300, "pitch": 84, "duration": 7, "velocity": 94}, {"time": 5306, "pitch": 83, "duration": 7, "velocity": 100}, {"time": 5312, "pitch": 81, "duration": 9, "velocity": 111}, {"time": 5318, "pitch": 79, "duration": 18, "velocity": 108}, {"time": 5336, "pitch": 79, "duration": 7, "velocity": 108}, {"time": 5342, "pitch": 81, "duration": 6, "velocity": 101}, {"time": 5348, "pitch": 84, "duration": 7, "velocity": 99}, {"time": 5354, "pitch": 83, "duration": 7, "velocity": 99}, {"time": 5360, "pitch": 81, "duration": 8, "velocity": 114}, {"time": 5366, "pitch": 79, "duration": 18, "velocity": 108}, {"time": 5384, "pitch": 79, "duration": 6, "velocity": 109}, {"time": 5390, "pitch": 81, "duration": 6, "velocity": 99}, {"time": 5396, "pitch": 84, "duration": 7, "velocity": 93}, {"time": 5402, "pitch": 83, "duration": 8, "velocity": 99}, {"time": 5408, "pitch": 81, "duration": 7, "velocity": 108}, {"time": 5414, "pitch": 79, "duration": 18, "velocity": 98}, {"time": 5432, "pitch": 79, "duration": 9, "velocity": 97}, {"time": 5441, "pitch": 79, "duration": 10, "velocity": 105}, {"time": 5450, "pitch": 74, "duration": 6, "velocity": 89}, {"time": 5456, "pitch": 76, "duration": 18, "velocity": 101}, {"time": 5474, "pitch": 76, "duration": 6, "velocity": 105}, {"time": 5480, "pitch": 74, "duration": 6, "velocity": 97}, {"time": 5486, "pitch": 76, "duration": 6, "velocity": 98}, {"time": 5492, "pitch": 79, "duration": 6, "velocity": 90}, {"time": 5498, "pitch": 76, "duration": 7, "velocity": 100}, {"time": 5504, "pitch": 74, "duration": 6, "velocity": 101}, {"time": 5510, "pitch": 72, "duration": 12, "velocity": 94}, {"time": 5522, "pitch": 69, "duration": 6, "velocity": 94}, {"time": 5528, "pitch": 69, "duration": 6, "velocity": 94}, {"time": 5534, "pitch": 72, "duration": 6, "velocity": 93}, {"time": 5540, "pitch": 81, "duration": 6, "velocity": 103}, {"time": 5546, "pitch": 83, "duration": 6, "velocity": 87}, {"time": 5552, "pitch": 81, "duration": 12, "velocity": 109}, {"time": 5561, "pitch": 79, "duration": 27, "velocity": 109}, {"time": 5588, "pitch": 76, "duration": 6, "velocity": 103}, {"time": 5594, "pitch": 79, "duration": 7, "velocity": 105}, {"time": 5600, "pitch": 77, "duration": 6, "velocity": 108}, {"time": 5606, "pitch": 76, "duration": 7, "velocity": 97}, {"time": 5612, "pitch": 77, "duration": 6, "velocity": 93}, {"time": 5618, "pitch": 76, "duration": 7, "velocity": 92}, {"time": 5624, "pitch": 77, "duration": 6, "velocity": 100}, {"time": 5630, "pitch": 84, "duration": 12, "velocity": 98}, {"time": 5642, "pitch": 72, "duration": 6, "velocity": 86}, {"time": 5648, "pitch": 74, "duration": 18, "velocity": 90}, {"time": 5666, "pitch": 67, "duration": 6, "velocity": 90}, {"time": 5672, "pitch": 76, "duration": 6, "velocity": 91}, {"time": 5678, "pitch": 79, "duration": 9, "velocity": 84}, {"time": 5687, "pitch": 81, "duration": 9, "velocity": 77}, {"time": 5696, "pitch": 74, "duration": 18, "velocity": 90}, {"time": 5714, "pitch": 72, "duration": 47, "velocity": 85}]}, {"program": 0, "is_drum": false, "name": "PIANO", "notes": [{"time": 224, "pitch": 67, "duration": 80, "velocity": 44}, {"time": 224, "pitch": 72, "duration": 81, "velocity": 46}, {"time": 224, "pitch": 74, "duration": 81, "velocity": 47}, {"time": 224, "pitch": 76, "duration": 77, "velocity": 47}, {"time": 224, "pitch": 83, "duration": 5, "velocity": 45}, {"time": 230, "pitch": 84, "duration": 6, "velocity": 42}, {"time": 236, "pitch": 91, "duration": 7, "velocity": 58}, {"time": 242, "pitch": 83, "duration": 6, "velocity": 46}, {"time": 248, "pitch": 84, "duration": 6, "velocity": 52}, {"time": 254, "pitch": 91, "duration": 7, "velocity": 45}, {"time": 260, "pitch": 83, "duration": 5, "velocity": 35}, {"time": 266, "pitch": 84, "duration": 7, "velocity": 35}, {"time": 272, "pitch": 91, "duration": 41, "velocity": 39}, {"time": 320, "pitch": 67, "duration": 82, "velocity": 48}, {"time": 320, "pitch": 69, "duration": 82, "velocity": 48}, {"time": 320, "pitch": 72, "duration": 82, "velocity": 57}, {"time": 320, "pitch": 76, "duration": 81, "velocity": 47}, {"time": 320, "pitch": 83, "duration": 5, "velocity": 43}, {"time": 326, "pitch": 84, "duration": 6, "velocity": 56}, {"time": 332, "pitch": 91, "duration": 7, "velocity": 54}, {"time": 338, "pitch": 83, "duration": 5, "velocity": 46}, {"time": 344, "pitch": 84, "duration": 6, "velocity": 48}, {"time": 350, "pitch": 91, "duration": 6, "velocity": 56}, {"time": 356, "pitch": 83, "duration": 6, "velocity": 40}, {"time": 362, "pitch": 84, "duration": 41, "velocity": 44}, {"time": 368, "pitch": 91, "duration": 36, "velocity": 40}, {"time": 416, "pitch": 65, "duration": 75, "velocity": 42}, {"time": 416, "pitch": 69, "duration": 75, "velocity": 46}, {"time": 416, "pitch": 72, "duration": 74, "velocity": 48}, {"time": 416, "pitch": 83, "duration": 5, "velocity": 40}, {"time": 422, "pitch": 84, "duration": 6, "velocity": 45}, {"time": 428, "pitch": 91, "duration": 5, "velocity": 61}, {"time": 434, "pitch": 83, "duration": 5, "velocity": 45}, {"time": 440, "pitch": 84, "duration": 5, "velocity": 42}, {"time": 446, "pitch": 91, "duration": 5, "velocity": 47}, {"time": 452, "pitch": 83, "duration": 4, "velocity": 39}, {"time": 458, "pitch": 84, "duration": 6, "velocity": 25}, {"time": 464, "pitch": 91, "duration": 17, "velocity": 58}, {"time": 494, "pitch": 79, "duration": 8, "velocity": 82}, {"time": 500, "pitch": 84, "duration": 4, "velocity": 67}, {"time": 506, "pitch": 86, "duration": 5, "velocity": 72}, {"time": 509, "pitch": 72, "duration": 5, "velocity": 45}, {"time": 509, "pitch": 77, "duration": 4, "velocity": 49}, {"time": 512, "pitch": 53, "duration": 58, "velocity": 44}, {"time": 512, "pitch": 80, "duration": 10, "velocity": 59}, {"time": 512, "pitch": 88, "duration": 16, "velocity": 97}, {"time": 524, "pitch": 60, "duration": 23, "velocity": 33}, {"time": 524, "pitch": 79, "duration": 4, "velocity": 47}, {"time": 527, "pitch": 86, "duration": 4, "velocity": 53}, {"time": 536, "pitch": 65, "duration": 12, "velocity": 44}, {"time": 536, "pitch": 77, "duration": 2, "velocity": 59}, {"time": 536, "pitch": 86, "duration": 19, "velocity": 99}, {"time": 545, "pitch": 72, "duration": 2, "velocity": 63}, {"time": 560, "pitch": 60, "duration": 7, "velocity": 41}, {"time": 560, "pitch": 65, "duration": 8, "velocity": 51}, {"time": 560, "pitch": 68, "duration": 7, "velocity": 39}, {"time": 560, "pitch": 84, "duration": 13, "velocity": 91}, {"time": 584, "pitch": 43, "duration": 12, "velocity": 44}, {"time": 584, "pitch": 57, "duration": 11, "velocity": 36}, {"time": 584, "pitch": 60, "duration": 13, "velocity": 45}, {"time": 584, "pitch": 65, "duration": 13, "velocity": 35}, {"time": 584, "pitch": 80, "duration": 13, "velocity": 91}, {"time": 608, "pitch": 55, "duration": 39, "velocity": 43}, {"time": 608, "pitch": 60, "duration": 40, "velocity": 46}, {"time": 608, "pitch": 64, "duration": 39, "velocity": 42}, {"time": 608, "pitch": 79, "duration": 8, "velocity": 64}, {"time": 608, "pitch": 79, "duration": 8, "velocity": 91}, {"time": 614, "pitch": 67, "duration": 7, "velocity": 42}, {"time": 620, "pitch": 79, "duration": 1, "velocity": 56}, {"time": 626, "pitch": 67, "duration": 6, "velocity": 47}, {"time": 632, "pitch": 79, "duration": 6, "velocity": 52}, {"time": 638, "pitch": 67, "duration": 8, "velocity": 49}, {"time": 644, "pitch": 77, "duration": 5, "velocity": 62}, {"time": 650, "pitch": 67, "duration": 7, "velocity": 46}, {"time": 656, "pitch": 55, "duration": 36, "velocity": 48}, {"time": 656, "pitch": 60, "duration": 37, "velocity": 54}, {"time": 656, "pitch": 64, "duration": 20, "velocity": 48}, {"time": 656, "pitch": 76, "duration": 5, "velocity": 62}, {"time": 662, "pitch": 67, "duration": 7, "velocity": 44}, {"time": 668, "pitch": 76, "duration": 6, "velocity": 50}, {"time": 674, "pitch": 67, "duration": 7, "velocity": 41}, {"time": 680, "pitch": 64, "duration": 12, "velocity": 39}, {"time": 680, "pitch": 74, "duration": 5, "velocity": 51}, {"time": 686, "pitch": 67, "duration": 7, "velocity": 57}, {"time": 695, "pitch": 72, "duration": 3, "velocity": 25}, {"time": 698, "pitch": 67, "duration": 7, "velocity": 55}, {"time": 704, "pitch": 57, "duration": 35, "velocity": 42}, {"time": 704, "pitch": 60, "duration": 36, "velocity": 58}, {"time": 704, "pitch": 64, "duration": 36, "velocity": 49}, {"time": 704, "pitch": 71, "duration": 5, "velocity": 61}, {"time": 710, "pitch": 67, "duration": 7, "velocity": 53}, {"time": 716, "pitch": 72, "duration": 5, "velocity": 47}, {"time": 722, "pitch": 67, "duration": 6, "velocity": 48}, {"time": 728, "pitch": 72, "duration": 6, "velocity": 56}, {"time": 734, "pitch": 67, "duration": 6, "velocity": 58}, {"time": 740, "pitch": 71, "duration": 5, "velocity": 58}, {"time": 746, "pitch": 67, "duration": 8, "velocity": 55}, {"time": 752, "pitch": 45, "duration": 12, "velocity": 60}, {"time": 752, "pitch": 72, "duration": 5, "velocity": 67}, {"time": 758, "pitch": 52, "duration": 6, "velocity": 47}, {"time": 758, "pitch": 64, "duration": 6, "velocity": 49}, {"time": 764, "pitch": 57, "duration": 8, "velocity": 34}, {"time": 764, "pitch": 72, "duration": 7, "velocity": 70}, {"time": 770, "pitch": 59, "duration": 10, "velocity": 45}, {"time": 770, "pitch": 64, "duration": 5, "velocity": 52}, {"time": 776, "pitch": 60, "duration": 4, "velocity": 63}, {"time": 776, "pitch": 71, "duration": 5, "velocity": 60}, {"time": 782, "pitch": 64, "duration": 6, "velocity": 50}, {"time": 788, "pitch": 67, "duration": 5, "velocity": 43}, {"time": 794, "pitch": 64, "duration": 7, "velocity": 50}, {"time": 800, "pitch": 41, "duration": 10, "velocity": 52}, {"time": 800, "pitch": 72, "duration": 6, "velocity": 62}, {"time": 806, "pitch": 48, "duration": 6, "velocity": 54}, {"time": 806, "pitch": 60, "duration": 6, "velocity": 46}, {"time": 812, "pitch": 53, "duration": 8, "velocity": 48}, {"time": 812, "pitch": 72, "duration": 6, "velocity": 73}, {"time": 818, "pitch": 55, "duration": 15, "velocity": 62}, {"time": 818, "pitch": 60, "duration": 5, "velocity": 56}, {"time": 824, "pitch": 57, "duration": 9, "velocity": 55}, {"time": 824, "pitch": 72, "duration": 7, "velocity": 70}, {"time": 830, "pitch": 60, "duration": 5, "velocity": 48}, {"time": 836, "pitch": 71, "duration": 4, "velocity": 56}, {"time": 842, "pitch": 60, "duration": 5, "velocity": 42}, {"time": 848, "pitch": 41, "duration": 9, "velocity": 54}, {"time": 848, "pitch": 72, "duration": 4, "velocity": 73}, {"time": 854, "pitch": 48, "duration": 5, "velocity": 48}, {"time": 854, "pitch": 62, "duration": 5, "velocity": 36}, {"time": 860, "pitch": 53, "duration": 7, "velocity": 48}, {"time": 860, "pitch": 72, "duration": 5, "velocity": 67}, {"time": 866, "pitch": 55, "duration": 12, "velocity": 72}, {"time": 866, "pitch": 64, "duration": 7, "velocity": 63}, {"time": 872, "pitch": 57, "duration": 6, "velocity": 49}, {"time": 872, "pitch": 72, "duration": 7, "velocity": 70}, {"time": 878, "pitch": 64, "duration": 4, "velocity": 60}, {"time": 884, "pitch": 72, "duration": 8, "velocity": 63}, {"time": 890, "pitch": 64, "duration": 5, "velocity": 49}, {"time": 896, "pitch": 43, "duration": 9, "velocity": 61}, {"time": 896, "pitch": 71, "duration": 5, "velocity": 66}, {"time": 902, "pitch": 50, "duration": 5, "velocity": 55}, {"time": 902, "pitch": 62, "duration": 5, "velocity": 47}, {"time": 908, "pitch": 55, "duration": 8, "velocity": 42}, {"time": 908, "pitch": 71, "duration": 6, "velocity": 57}, {"time": 914, "pitch": 57, "duration": 12, "velocity": 54}, {"time": 914, "pitch": 62, "duration": 7, "velocity": 49}, {"time": 920, "pitch": 59, "duration": 6, "velocity": 59}, {"time": 920, "pitch": 69, "duration": 5, "velocity": 50}, {"time": 926, "pitch": 62, "duration": 5, "velocity": 51}, {"time": 932, "pitch": 69, "duration": 5, "velocity": 49}, {"time": 938, "pitch": 62, "duration": 6, "velocity": 48}, {"time": 944, "pitch": 43, "duration": 8, "velocity": 56}, {"time": 944, "pitch": 71, "duration": 4, "velocity": 44}, {"time": 950, "pitch": 50, "duration": 5, "velocity": 55}, {"time": 950, "pitch": 62, "duration": 6, "velocity": 51}, {"time": 956, "pitch": 55, "duration": 7, "velocity": 48}, {"time": 956, "pitch": 67, "duration": 5, "velocity": 67}, {"time": 962, "pitch": 57, "duration": 13, "velocity": 61}, {"time": 962, "pitch": 62, "duration": 8, "velocity": 61}, {"time": 968, "pitch": 59, "duration": 6, "velocity": 67}, {"time": 968, "pitch": 69, "duration": 5, "velocity": 76}, {"time": 974, "pitch": 62, "duration": 6, "velocity": 59}, {"time": 980, "pitch": 71, "duration": 4, "velocity": 51}, {"time": 986, "pitch": 62, "duration": 6, "velocity": 49}, {"time": 992, "pitch": 48, "duration": 9, "velocity": 49}, {"time": 992, "pitch": 72, "duration": 6, "velocity": 69}, {"time": 998, "pitch": 55, "duration": 6, "velocity": 51}, {"time": 998, "pitch": 67, "duration": 5, "velocity": 52}, {"time": 1004, "pitch": 60, "duration": 8, "velocity": 55}, {"time": 1004, "pitch": 74, "duration": 4, "velocity": 66}, {"time": 1010, "pitch": 62, "duration": 10, "velocity": 57}, {"time": 1010, "pitch": 67, "duration": 7, "velocity": 56}, {"time": 1016, "pitch": 64, "duration": 4, "velocity": 64}, {"time": 1016, "pitch": 76, "duration": 4, "velocity": 64}, {"time": 1022, "pitch": 67, "duration": 5, "velocity": 52}, {"time": 1028, "pitch": 74, "duration": 4, "velocity": 61}, {"time": 1034, "pitch": 67, "duration": 7, "velocity": 44}, {"time": 1040, "pitch": 48, "duration": 11, "velocity": 54}, {"time": 1040, "pitch": 72, "duration": 6, "velocity": 54}, {"time": 1046, "pitch": 55, "duration": 7, "velocity": 49}, {"time": 1046, "pitch": 67, "duration": 7, "velocity": 54}, {"time": 1052, "pitch": 59, "duration": 8, "velocity": 61}, {"time": 1052, "pitch": 74, "duration": 5, "velocity": 76}, {"time": 1058, "pitch": 60, "duration": 15, "velocity": 66}, {"time": 1058, "pitch": 67, "duration": 8, "velocity": 60}, {"time": 1064, "pitch": 64, "duration": 7, "velocity": 70}, {"time": 1064, "pitch": 76, "duration": 6, "velocity": 63}, {"time": 1070, "pitch": 67, "duration": 6, "velocity": 56}, {"time": 1076, "pitch": 74, "duration": 5, "velocity": 72}, {"time": 1082, "pitch": 67, "duration": 5, "velocity": 46}, {"time": 1088, "pitch": 45, "duration": 10, "velocity": 59}, {"time": 1088, "pitch": 72, "duration": 5, "velocity": 48}, {"time": 1094, "pitch": 52, "duration": 6, "velocity": 46}, {"time": 1094, "pitch": 67, "duration": 6, "velocity": 46}, {"time": 1100, "pitch": 57, "duration": 7, "velocity": 48}, {"time": 1100, "pitch": 74, "duration": 5, "velocity": 63}, {"time": 1106, "pitch": 59, "duration": 15, "velocity": 62}, {"time": 1106, "pitch": 67, "duration": 6, "velocity": 47}, {"time": 1112, "pitch": 60, "duration": 8, "velocity": 63}, {"time": 1112, "pitch": 76, "duration": 6, "velocity": 61}, {"time": 1118, "pitch": 67, "duration": 5, "velocity": 57}, {"time": 1124, "pitch": 76, "duration": 6, "velocity": 69}, {"time": 1130, "pitch": 67, "duration": 7, "velocity": 56}, {"time": 1136, "pitch": 45, "duration": 8, "velocity": 51}, {"time": 1136, "pitch": 74, "duration": 5, "velocity": 57}, {"time": 1142, "pitch": 52, "duration": 5, "velocity": 53}, {"time": 1142, "pitch": 67, "duration": 6, "velocity": 47}, {"time": 1148, "pitch": 57, "duration": 7, "velocity": 48}, {"time": 1148, "pitch": 74, "duration": 6, "velocity": 97}, {"time": 1154, "pitch": 59, "duration": 17, "velocity": 63}, {"time": 1154, "pitch": 67, "duration": 8, "velocity": 55}, {"time": 1160, "pitch": 60, "duration": 10, "velocity": 62}, {"time": 1160, "pitch": 72, "duration": 6, "velocity": 73}, {"time": 1166, "pitch": 67, "duration": 7, "velocity": 57}, {"time": 1172, "pitch": 71, "duration": 5, "velocity": 50}, {"time": 1178, "pitch": 67, "duration": 8, "velocity": 59}, {"time": 1184, "pitch": 41, "duration": 10, "velocity": 61}, {"time": 1184, "pitch": 72, "duration": 7, "velocity": 75}, {"time": 1190, "pitch": 48, "duration": 6, "velocity": 61}, {"time": 1190, "pitch": 60, "duration": 7, "velocity": 54}, {"time": 1196, "pitch": 53, "duration": 8, "velocity": 50}, {"time": 1196, "pitch": 72, "duration": 8, "velocity": 70}, {"time": 1202, "pitch": 55, "duration": 9, "velocity": 61}, {"time": 1202, "pitch": 60, "duration": 6, "velocity": 64}, {"time": 1208, "pitch": 57, "duration": 13, "velocity": 54}, {"time": 1208, "pitch": 72, "duration": 9, "velocity": 78}, {"time": 1214, "pitch": 60, "duration": 5, "velocity": 66}, {"time": 1220, "pitch": 55, "duration": 2, "velocity": 66}, {"time": 1220, "pitch": 67, "duration": 5, "velocity": 72}, {"time": 1226, "pitch": 60, "duration": 7, "velocity": 57}, {"time": 1232, "pitch": 41, "duration": 10, "velocity": 66}, {"time": 1232, "pitch": 72, "duration": 18, "velocity": 63}, {"time": 1238, "pitch": 48, "duration": 5, "velocity": 56}, {"time": 1238, "pitch": 60, "duration": 5, "velocity": 58}, {"time": 1244, "pitch": 53, "duration": 7, "velocity": 48}, {"time": 1244, "pitch": 65, "duration": 4, "velocity": 62}, {"time": 1250, "pitch": 55, "duration": 15, "velocity": 55}, {"time": 1250, "pitch": 60, "duration": 7, "velocity": 52}, {"time": 1256, "pitch": 72, "duration": 8, "velocity": 69}, {"time": 1262, "pitch": 57, "duration": 3, "velocity": 39}, {"time": 1262, "pitch": 59, "duration": 2, "velocity": 41}, {"time": 1262, "pitch": 60, "duration": 9, "velocity": 56}, {"time": 1268, "pitch": 65, "duration": 4, "velocity": 46}, {"time": 1274, "pitch": 72, "duration": 8, "velocity": 63}, {"time": 1280, "pitch": 43, "duration": 8, "velocity": 63}, {"time": 1280, "pitch": 71, "duration": 6, "velocity": 57}, {"time": 1286, "pitch": 50, "duration": 6, "velocity": 64}, {"time": 1286, "pitch": 67, "duration": 6, "velocity": 66}, {"time": 1292, "pitch": 55, "duration": 7, "velocity": 51}, {"time": 1292, "pitch": 62, "duration": 7, "velocity": 54}, {"time": 1298, "pitch": 57, "duration": 12, "velocity": 66}, {"time": 1298, "pitch": 67, "duration": 6, "velocity": 66}, {"time": 1304, "pitch": 59, "duration": 5, "velocity": 60}, {"time": 1304, "pitch": 71, "duration": 5, "velocity": 70}, {"time": 1310, "pitch": 62, "duration": 9, "velocity": 49}, {"time": 1316, "pitch": 67, "duration": 13, "velocity": 63}, {"time": 1322, "pitch": 72, "duration": 8, "velocity": 69}, {"time": 1328, "pitch": 43, "duration": 39, "velocity": 67}, {"time": 1328, "pitch": 62, "duration": 12, "velocity": 54}, {"time": 1328, "pitch": 71, "duration": 11, "velocity": 69}, {"time": 1334, "pitch": 50, "duration": 41, "velocity": 67}, {"time": 1340, "pitch": 55, "duration": 17, "velocity": 54}, {"time": 1346, "pitch": 62, "duration": 8, "velocity": 49}, {"time": 1352, "pitch": 67, "duration": 5, "velocity": 66}, {"time": 1358, "pitch": 69, "duration": 4, "velocity": 63}, {"time": 1364, "pitch": 55, "duration": 9, "velocity": 54}, {"time": 1364, "pitch": 71, "duration": 12, "velocity": 57}, {"time": 1370, "pitch": 74, "duration": 3, "velocity": 62}, {"time": 1376, "pitch": 45, "duration": 10, "velocity": 66}, {"time": 1376, "pitch": 64, "duration": 8, "velocity": 59}, {"time": 1376, "pitch": 67, "duration": 3, "velocity": 56}, {"time": 1376, "pitch": 72, "duration": 11, "velocity": 72}, {"time": 1382, "pitch": 52, "duration": 6, "velocity": 57}, {"time": 1388, "pitch": 57, "duration": 8, "velocity": 49}, {"time": 1388, "pitch": 64, "duration": 12, "velocity": 56}, {"time": 1388, "pitch": 71, "duration": 6, "velocity": 47}, {"time": 1394, "pitch": 59, "duration": 17, "velocity": 66}, {"time": 1394, "pitch": 72, "duration": 8, "velocity": 72}, {"time": 1400, "pitch": 60, "duration": 10, "velocity": 66}, {"time": 1406, "pitch": 64, "duration": 8, "velocity": 55}, {"time": 1412, "pitch": 71, "duration": 5, "velocity": 54}, {"time": 1418, "pitch": 72, "duration": 5, "velocity": 60}, {"time": 1424, "pitch": 40, "duration": 9, "velocity": 66}, {"time": 1424, "pitch": 62, "duration": 20, "velocity": 53}, {"time": 1424, "pitch": 67, "duration": 22, "velocity": 59}, {"time": 1424, "pitch": 71, "duration": 25, "velocity": 70}, {"time": 1430, "pitch": 47, "duration": 5, "velocity": 55}, {"time": 1436, "pitch": 52, "duration": 7, "velocity": 53}, {"time": 1442, "pitch": 55, "duration": 17, "velocity": 54}, {"time": 1448, "pitch": 59, "duration": 10, "velocity": 49}, {"time": 1448, "pitch": 60, "duration": 4, "velocity": 50}, {"time": 1454, "pitch": 62, "duration": 5, "velocity": 63}, {"time": 1460, "pitch": 67, "duration": 7, "velocity": 59}, {"time": 1466, "pitch": 72, "duration": 5, "velocity": 57}, {"time": 1472, "pitch": 41, "duration": 17, "velocity": 66}, {"time": 1472, "pitch": 60, "duration": 12, "velocity": 64}, {"time": 1472, "pitch": 65, "duration": 12, "velocity": 73}, {"time": 1472, "pitch": 69, "duration": 13, "velocity": 67}, {"time": 1478, "pitch": 48, "duration": 18, "velocity": 62}, {"time": 1484, "pitch": 53, "duration": 9, "velocity": 66}, {"time": 1490, "pitch": 60, "duration": 4, "velocity": 63}, {"time": 1496, "pitch": 43, "duration": 14, "velocity": 72}, {"time": 1496, "pitch": 60, "duration": 11, "velocity": 64}, {"time": 1496, "pitch": 65, "duration": 15, "velocity": 67}, {"time": 1496, "pitch": 69, "duration": 14, "velocity": 69}, {"time": 1502, "pitch": 50, "duration": 9, "velocity": 64}, {"time": 1508, "pitch": 55, "duration": 11, "velocity": 63}, {"time": 1514, "pitch": 60, "duration": 2, "velocity": 54}, {"time": 1514, "pitch": 69, "duration": 6, "velocity": 63}, {"time": 1520, "pitch": 48, "duration": 17, "velocity": 70}, {"time": 1520, "pitch": 64, "duration": 11, "velocity": 69}, {"time": 1520, "pitch": 67, "duration": 12, "velocity": 72}, {"time": 1526, "pitch": 55, "duration": 19, "velocity": 60}, {"time": 1532, "pitch": 60, "duration": 7, "velocity": 60}, {"time": 1538, "pitch": 62, "duration": 5, "velocity": 58}, {"time": 1544, "pitch": 47, "duration": 17, "velocity": 66}, {"time": 1544, "pitch": 62, "duration": 10, "velocity": 70}, {"time": 1544, "pitch": 67, "duration": 7, "velocity": 76}, {"time": 1550, "pitch": 55, "duration": 11, "velocity": 58}, {"time": 1556, "pitch": 59, "duration": 4, "velocity": 66}, {"time": 1562, "pitch": 67, "duration": 4, "velocity": 67}, {"time": 1568, "pitch": 45, "duration": 38, "velocity": 72}, {"time": 1568, "pitch": 60, "duration": 13, "velocity": 70}, {"time": 1568, "pitch": 64, "duration": 11, "velocity": 67}, {"time": 1574, "pitch": 52, "duration": 15, "velocity": 58}, {"time": 1580, "pitch": 57, "duration": 21, "velocity": 56}, {"time": 1586, "pitch": 59, "duration": 9, "velocity": 76}, {"time": 1586, "pitch": 64, "duration": 9, "velocity": 76}, {"time": 1598, "pitch": 60, "duration": 8, "velocity": 80}, {"time": 1598, "pitch": 67, "duration": 8, "velocity": 69}, {"time": 1604, "pitch": 52, "duration": 9, "velocity": 59}, {"time": 1610, "pitch": 59, "duration": 4, "velocity": 48}, {"time": 1616, "pitch": 43, "duration": 48, "velocity": 64}, {"time": 1616, "pitch": 60, "duration": 10, "velocity": 69}, {"time": 1616, "pitch": 67, "duration": 10, "velocity": 75}, {"time": 1622, "pitch": 52, "duration": 32, "velocity": 64}, {"time": 1628, "pitch": 55, "duration": 8, "velocity": 60}, {"time": 1634, "pitch": 59, "duration": 7, "velocity": 63}, {"time": 1634, "pitch": 64, "duration": 8, "velocity": 75}, {"time": 1640, "pitch": 67, "duration": 7, "velocity": 64}, {"time": 1646, "pitch": 69, "duration": 3, "velocity": 62}, {"time": 1652, "pitch": 55, "duration": 4, "velocity": 59}, {"time": 1652, "pitch": 71, "duration": 5, "velocity": 66}, {"time": 1658, "pitch": 72, "duration": 7, "velocity": 59}, {"time": 1664, "pitch": 41, "duration": 41, "velocity": 63}, {"time": 1664, "pitch": 65, "duration": 7, "velocity": 69}, {"time": 1664, "pitch": 69, "duration": 8, "velocity": 64}, {"time": 1670, "pitch": 48, "duration": 48, "velocity": 63}, {"time": 1676, "pitch": 53, "duration": 8, "velocity": 64}, {"time": 1682, "pitch": 57, "duration": 9, "velocity": 49}, {"time": 1682, "pitch": 60, "duration": 13, "velocity": 54}, {"time": 1682, "pitch": 65, "duration": 12, "velocity": 75}, {"time": 1694, "pitch": 53, "duration": 7, "velocity": 56}, {"time": 1700, "pitch": 57, "duration": 5, "velocity": 63}, {"time": 1700, "pitch": 60, "duration": 8, "velocity": 72}, {"time": 1700, "pitch": 65, "duration": 8, "velocity": 75}, {"time": 1706, "pitch": 53, "duration": 4, "velocity": 52}, {"time": 1712, "pitch": 57, "duration": 12, "velocity": 59}, {"time": 1712, "pitch": 60, "duration": 19, "velocity": 70}, {"time": 1712, "pitch": 65, "duration": 15, "velocity": 70}, {"time": 1718, "pitch": 41, "duration": 33, "velocity": 56}, {"time": 1724, "pitch": 48, "duration": 28, "velocity": 67}, {"time": 1730, "pitch": 53, "duration": 13, "velocity": 88}, {"time": 1736, "pitch": 57, "duration": 5, "velocity": 88}, {"time": 1742, "pitch": 57, "duration": 1, "velocity": 38}, {"time": 1742, "pitch": 60, "duration": 4, "velocity": 82}, {"time": 1748, "pitch": 62, "duration": 4, "velocity": 82}, {"time": 1754, "pitch": 64, "duration": 4, "velocity": 57}, {"time": 1760, "pitch": 43, "duration": 39, "velocity": 72}, {"time": 1760, "pitch": 57, "duration": 9, "velocity": 69}, {"time": 1760, "pitch": 60, "duration": 11, "velocity": 72}, {"time": 1760, "pitch": 65, "duration": 9, "velocity": 66}, {"time": 1766, "pitch": 50, "duration": 21, "velocity": 62}, {"time": 1772, "pitch": 55, "duration": 29, "velocity": 82}, {"time": 1778, "pitch": 57, "duration": 4, "velocity": 93}, {"time": 1784, "pitch": 60, "duration": 6, "velocity": 53}, {"time": 1790, "pitch": 62, "duration": 2, "velocity": 73}, {"time": 1796, "pitch": 50, "duration": 9, "velocity": 49}, {"time": 1796, "pitch": 67, "duration": 3, "velocity": 69}, {"time": 1796, "pitch": 69, "duration": 3, "velocity": 53}, {"time": 1802, "pitch": 72, "duration": 7, "velocity": 61}, {"time": 1808, "pitch": 43, "duration": 37, "velocity": 62}, {"time": 1808, "pitch": 79, "duration": 4, "velocity": 69}, {"time": 1814, "pitch": 50, "duration": 32, "velocity": 61}, {"time": 1814, "pitch": 67, "duration": 7, "velocity": 52}, {"time": 1820, "pitch": 77, "duration": 7, "velocity": 72}, {"time": 1826, "pitch": 67, "duration": 8, "velocity": 56}, {"time": 1832, "pitch": 55, "duration": 8, "velocity": 51}, {"time": 1832, "pitch": 76, "duration": 6, "velocity": 80}, {"time": 1838, "pitch": 67, "duration": 6, "velocity": 50}, {"time": 1844, "pitch": 55, "duration": 8, "velocity": 44}, {"time": 1844, "pitch": 74, "duration": 4, "velocity": 91}, {"time": 1850, "pitch": 67, "duration": 6, "velocity": 59}, {"time": 1853, "pitch": 64, "duration": 3, "velocity": 43}, {"time": 1856, "pitch": 48, "duration": 8, "velocity": 75}, {"time": 1856, "pitch": 67, "duration": 1, "velocity": 55}, {"time": 1856, "pitch": 72, "duration": 7, "velocity": 82}, {"time": 1862, "pitch": 55, "duration": 5, "velocity": 64}, {"time": 1862, "pitch": 64, "duration": 5, "velocity": 63}, {"time": 1868, "pitch": 60, "duration": 7, "velocity": 47}, {"time": 1868, "pitch": 71, "duration": 5, "velocity": 70}, {"time": 1874, "pitch": 62, "duration": 12, "velocity": 52}, {"time": 1874, "pitch": 72, "duration": 6, "velocity": 62}, {"time": 1880, "pitch": 64, "duration": 13, "velocity": 69}, {"time": 1880, "pitch": 67, "duration": 9, "velocity": 62}, {"time": 1892, "pitch": 62, "duration": 3, "velocity": 76}, {"time": 1892, "pitch": 69, "duration": 4, "velocity": 63}, {"time": 1898, "pitch": 72, "duration": 8, "velocity": 66}, {"time": 1904, "pitch": 47, "duration": 39, "velocity": 69}, {"time": 1904, "pitch": 62, "duration": 9, "velocity": 60}, {"time": 1904, "pitch": 71, "duration": 9, "velocity": 67}, {"time": 1910, "pitch": 55, "duration": 24, "velocity": 59}, {"time": 1916, "pitch": 59, "duration": 24, "velocity": 62}, {"time": 1922, "pitch": 62, "duration": 8, "velocity": 76}, {"time": 1928, "pitch": 67, "duration": 4, "velocity": 62}, {"time": 1934, "pitch": 69, "duration": 4, "velocity": 78}, {"time": 1940, "pitch": 55, "duration": 3, "velocity": 69}, {"time": 1940, "pitch": 71, "duration": 6, "velocity": 85}, {"time": 1946, "pitch": 74, "duration": 5, "velocity": 67}, {"time": 1952, "pitch": 41, "duration": 16, "velocity": 70}, {"time": 1952, "pitch": 69, "duration": 9, "velocity": 75}, {"time": 1952, "pitch": 72, "duration": 9, "velocity": 75}, {"time": 1958, "pitch": 48, "duration": 14, "velocity": 61}, {"time": 1964, "pitch": 53, "duration": 6, "velocity": 63}, {"time": 1970, "pitch": 57, "duration": 18, "velocity": 40}, {"time": 1976, "pitch": 43, "duration": 13, "velocity": 69}, {"time": 1976, "pitch": 60, "duration": 13, "velocity": 70}, {"time": 1976, "pitch": 65, "duration": 14, "velocity": 73}, {"time": 1982, "pitch": 50, "duration": 8, "velocity": 61}, {"time": 1988, "pitch": 55, "duration": 6, "velocity": 59}, {"time": 1994, "pitch": 60, "duration": 5, "velocity": 67}, {"time": 1997, "pitch": 62, "duration": 4, "velocity": 57}, {"time": 2000, "pitch": 48, "duration": 41, "velocity": 69}, {"time": 2000, "pitch": 64, "duration": 8, "velocity": 72}, {"time": 2006, "pitch": 55, "duration": 34, "velocity": 60}, {"time": 2012, "pitch": 60, "duration": 19, "velocity": 62}, {"time": 2018, "pitch": 62, "duration": 4, "velocity": 64}, {"time": 2018, "pitch": 67, "duration": 4, "velocity": 91}, {"time": 2024, "pitch": 64, "duration": 6, "velocity": 63}, {"time": 2030, "pitch": 69, "duration": 7, "velocity": 61}, {"time": 2036, "pitch": 60, "duration": 3, "velocity": 67}, {"time": 2036, "pitch": 72, "duration": 3, "velocity": 75}, {"time": 2042, "pitch": 72, "duration": 4, "velocity": 61}, {"time": 2048, "pitch": 45, "duration": 8, "velocity": 72}, {"time": 2048, "pitch": 64, "duration": 7, "velocity": 69}, {"time": 2048, "pitch": 72, "duration": 10, "velocity": 76}, {"time": 2054, "pitch": 52, "duration": 5, "velocity": 55}, {"time": 2057, "pitch": 64, "duration": 3, "velocity": 52}, {"time": 2057, "pitch": 71, "duration": 9, "velocity": 72}, {"time": 2060, "pitch": 57, "duration": 8, "velocity": 48}, {"time": 2066, "pitch": 59, "duration": 15, "velocity": 69}, {"time": 2066, "pitch": 64, "duration": 7, "velocity": 67}, {"time": 2066, "pitch": 72, "duration": 7, "velocity": 76}, {"time": 2072, "pitch": 60, "duration": 8, "velocity": 63}, {"time": 2078, "pitch": 64, "duration": 4, "velocity": 70}, {"time": 2084, "pitch": 69, "duration": 5, "velocity": 91}, {"time": 2090, "pitch": 72, "duration": 5, "velocity": 67}, {"time": 2096, "pitch": 52, "duration": 40, "velocity": 70}, {"time": 2096, "pitch": 62, "duration": 6, "velocity": 70}, {"time": 2096, "pitch": 67, "duration": 13, "velocity": 61}, {"time": 2096, "pitch": 71, "duration": 13, "velocity": 66}, {"time": 2102, "pitch": 59, "duration": 33, "velocity": 58}, {"time": 2108, "pitch": 64, "duration": 19, "velocity": 64}, {"time": 2114, "pitch": 67, "duration": 15, "velocity": 78}, {"time": 2126, "pitch": 76, "duration": 7, "velocity": 80}, {"time": 2132, "pitch": 64, "duration": 2, "velocity": 60}, {"time": 2132, "pitch": 74, "duration": 5, "velocity": 75}, {"time": 2138, "pitch": 72, "duration": 5, "velocity": 73}, {"time": 2144, "pitch": 50, "duration": 38, "velocity": 64}, {"time": 2144, "pitch": 60, "duration": 4, "velocity": 69}, {"time": 2144, "pitch": 65, "duration": 13, "velocity": 73}, {"time": 2144, "pitch": 69, "duration": 12, "velocity": 66}, {"time": 2150, "pitch": 57, "duration": 23, "velocity": 54}, {"time": 2150, "pitch": 72, "duration": 4, "velocity": 19}, {"time": 2156, "pitch": 62, "duration": 21, "velocity": 61}, {"time": 2162, "pitch": 64, "duration": 8, "velocity": 76}, {"time": 2168, "pitch": 65, "duration": 6, "velocity": 64}, {"time": 2174, "pitch": 69, "duration": 12, "velocity": 78}, {"time": 2180, "pitch": 57, "duration": 8, "velocity": 50}, {"time": 2186, "pitch": 62, "duration": 6, "velocity": 55}, {"time": 2192, "pitch": 43, "duration": 10, "velocity": 73}, {"time": 2192, "pitch": 60, "duration": 13, "velocity": 67}, {"time": 2192, "pitch": 65, "duration": 21, "velocity": 75}, {"time": 2192, "pitch": 69, "duration": 22, "velocity": 70}, {"time": 2198, "pitch": 50, "duration": 6, "velocity": 51}, {"time": 2204, "pitch": 55, "duration": 7, "velocity": 46}, {"time": 2210, "pitch": 57, "duration": 17, "velocity": 59}, {"time": 2216, "pitch": 59, "duration": 10, "velocity": 73}, {"time": 2222, "pitch": 62, "duration": 6, "velocity": 76}, {"time": 2228, "pitch": 62, "duration": 2, "velocity": 40}, {"time": 2228, "pitch": 64, "duration": 7, "velocity": 88}, {"time": 2234, "pitch": 65, "duration": 5, "velocity": 80}, {"time": 2240, "pitch": 48, "duration": 9, "velocity": 75}, {"time": 2240, "pitch": 64, "duration": 8, "velocity": 82}, {"time": 2240, "pitch": 67, "duration": 9, "velocity": 72}, {"time": 2246, "pitch": 55, "duration": 6, "velocity": 53}, {"time": 2252, "pitch": 60, "duration": 7, "velocity": 50}, {"time": 2258, "pitch": 62, "duration": 12, "velocity": 63}, {"time": 2258, "pitch": 67, "duration": 2, "velocity": 63}, {"time": 2258, "pitch": 72, "duration": 3, "velocity": 63}, {"time": 2258, "pitch": 79, "duration": 3, "velocity": 75}, {"time": 2264, "pitch": 64, "duration": 13, "velocity": 66}, {"time": 2264, "pitch": 67, "duration": 3, "velocity": 70}, {"time": 2264, "pitch": 72, "duration": 4, "velocity": 69}, {"time": 2264, "pitch": 79, "duration": 3, "velocity": 75}, {"time": 2270, "pitch": 69, "duration": 6, "velocity": 64}, {"time": 2270, "pitch": 72, "duration": 7, "velocity": 67}, {"time": 2270, "pitch": 77, "duration": 7, "velocity": 80}, {"time": 2276, "pitch": 62, "duration": 3, "velocity": 67}, {"time": 2279, "pitch": 67, "duration": 5, "velocity": 73}, {"time": 2279, "pitch": 76, "duration": 8, "velocity": 67}, {"time": 2288, "pitch": 47, "duration": 35, "velocity": 76}, {"time": 2288, "pitch": 67, "duration": 9, "velocity": 66}, {"time": 2288, "pitch": 74, "duration": 8, "velocity": 88}, {"time": 2294, "pitch": 55, "duration": 30, "velocity": 58}, {"time": 2300, "pitch": 59, "duration": 20, "velocity": 63}, {"time": 2306, "pitch": 62, "duration": 8, "velocity": 85}, {"time": 2312, "pitch": 67, "duration": 5, "velocity": 69}, {"time": 2318, "pitch": 69, "duration": 4, "velocity": 88}, {"time": 2324, "pitch": 71, "duration": 7, "velocity": 72}, {"time": 2330, "pitch": 74, "duration": 2, "velocity": 55}, {"time": 2336, "pitch": 41, "duration": 15, "velocity": 73}, {"time": 2336, "pitch": 60, "duration": 14, "velocity": 76}, {"time": 2336, "pitch": 65, "duration": 14, "velocity": 69}, {"time": 2336, "pitch": 69, "duration": 17, "velocity": 72}, {"time": 2342, "pitch": 48, "duration": 13, "velocity": 64}, {"time": 2348, "pitch": 53, "duration": 6, "velocity": 57}, {"time": 2354, "pitch": 72, "duration": 7, "velocity": 70}, {"time": 2360, "pitch": 43, "duration": 11, "velocity": 75}, {"time": 2360, "pitch": 62, "duration": 7, "velocity": 67}, {"time": 2360, "pitch": 67, "duration": 9, "velocity": 66}, {"time": 2360, "pitch": 71, "duration": 15, "velocity": 67}, {"time": 2366, "pitch": 50, "duration": 6, "velocity": 48}, {"time": 2372, "pitch": 55, "duration": 8, "velocity": 55}, {"time": 2372, "pitch": 64, "duration": 3, "velocity": 66}, {"time": 2372, "pitch": 72, "duration": 3, "velocity": 78}, {"time": 2378, "pitch": 57, "duration": 3, "velocity": 59}, {"time": 2378, "pitch": 74, "duration": 3, "velocity": 73}, {"time": 2384, "pitch": 48, "duration": 8, "velocity": 72}, {"time": 2384, "pitch": 67, "duration": 12, "velocity": 64}, {"time": 2384, "pitch": 76, "duration": 13, "velocity": 78}, {"time": 2390, "pitch": 55, "duration": 5, "velocity": 61}, {"time": 2396, "pitch": 60, "duration": 7, "velocity": 46}, {"time": 2402, "pitch": 62, "duration": 8, "velocity": 61}, {"time": 2402, "pitch": 76, "duration": 3, "velocity": 43}, {"time": 2402, "pitch": 84, "duration": 4, "velocity": 69}, {"time": 2408, "pitch": 64, "duration": 13, "velocity": 57}, {"time": 2408, "pitch": 74, "duration": 7, "velocity": 80}, {"time": 2408, "pitch": 83, "duration": 9, "velocity": 54}, {"time": 2417, "pitch": 62, "duration": 8, "velocity": 57}, {"time": 2417, "pitch": 74, "duration": 5, "velocity": 58}, {"time": 2417, "pitch": 84, "duration": 5, "velocity": 73}, {"time": 2423, "pitch": 60, "duration": 2, "velocity": 62}, {"time": 2426, "pitch": 83, "duration": 6, "velocity": 69}, {"time": 2432, "pitch": 45, "duration": 8, "velocity": 76}, {"time": 2432, "pitch": 76, "duration": 19, "velocity": 69}, {"time": 2432, "pitch": 84, "duration": 16, "velocity": 72}, {"time": 2438, "pitch": 52, "duration": 5, "velocity": 48}, {"time": 2444, "pitch": 57, "duration": 7, "velocity": 52}, {"time": 2450, "pitch": 59, "duration": 18, "velocity": 59}, {"time": 2456, "pitch": 60, "duration": 12, "velocity": 69}, {"time": 2462, "pitch": 65, "duration": 2, "velocity": 40}, {"time": 2462, "pitch": 67, "duration": 2, "velocity": 39}, {"time": 2468, "pitch": 72, "duration": 3, "velocity": 59}, {"time": 2468, "pitch": 74, "duration": 3, "velocity": 46}, {"time": 2474, "pitch": 76, "duration": 2, "velocity": 59}, {"time": 2480, "pitch": 52, "duration": 37, "velocity": 67}, {"time": 2480, "pitch": 62, "duration": 8, "velocity": 57}, {"time": 2480, "pitch": 67, "duration": 8, "velocity": 66}, {"time": 2480, "pitch": 71, "duration": 8, "velocity": 55}, {"time": 2486, "pitch": 59, "duration": 17, "velocity": 57}, {"time": 2492, "pitch": 62, "duration": 5, "velocity": 69}, {"time": 2498, "pitch": 62, "duration": 7, "velocity": 56}, {"time": 2498, "pitch": 67, "duration": 12, "velocity": 80}, {"time": 2498, "pitch": 71, "duration": 11, "velocity": 78}, {"time": 2510, "pitch": 59, "duration": 7, "velocity": 64}, {"time": 2516, "pitch": 64, "duration": 4, "velocity": 64}, {"time": 2516, "pitch": 67, "duration": 5, "velocity": 76}, {"time": 2516, "pitch": 72, "duration": 1, "velocity": 59}, {"time": 2522, "pitch": 72, "duration": 5, "velocity": 66}, {"time": 2528, "pitch": 50, "duration": 35, "velocity": 69}, {"time": 2528, "pitch": 62, "duration": 8, "velocity": 66}, {"time": 2528, "pitch": 65, "duration": 9, "velocity": 78}, {"time": 2528, "pitch": 69, "duration": 8, "velocity": 76}, {"time": 2528, "pitch": 72, "duration": 7, "velocity": 45}, {"time": 2534, "pitch": 57, "duration": 25, "velocity": 58}, {"time": 2540, "pitch": 64, "duration": 7, "velocity": 66}, {"time": 2546, "pitch": 65, "duration": 9, "velocity": 76}, {"time": 2546, "pitch": 69, "duration": 8, "velocity": 78}, {"time": 2552, "pitch": 62, "duration": 8, "velocity": 60}, {"time": 2558, "pitch": 64, "duration": 8, "velocity": 75}, {"time": 2564, "pitch": 65, "duration": 7, "velocity": 63}, {"time": 2570, "pitch": 69, "duration": 2, "velocity": 50}, {"time": 2570, "pitch": 72, "duration": 3, "velocity": 49}, {"time": 2576, "pitch": 43, "duration": 10, "velocity": 72}, {"time": 2576, "pitch": 60, "duration": 14, "velocity": 76}, {"time": 2576, "pitch": 65, "duration": 14, "velocity": 66}, {"time": 2576, "pitch": 69, "duration": 20, "velocity": 62}, {"time": 2576, "pitch": 72, "duration": 25, "velocity": 44}, {"time": 2582, "pitch": 50, "duration": 6, "velocity": 59}, {"time": 2588, "pitch": 55, "duration": 8, "velocity": 48}, {"time": 2594, "pitch": 57, "duration": 17, "velocity": 48}, {"time": 2600, "pitch": 59, "duration": 11, "velocity": 69}, {"time": 2606, "pitch": 65, "duration": 8, "velocity": 85}, {"time": 2612, "pitch": 67, "duration": 4, "velocity": 62}, {"time": 2618, "pitch": 69, "duration": 4, "velocity": 62}, {"time": 2624, "pitch": 48, "duration": 10, "velocity": 66}, {"time": 2624, "pitch": 67, "duration": 2, "velocity": 46}, {"time": 2624, "pitch": 72, "duration": 26, "velocity": 72}, {"time": 2630, "pitch": 55, "duration": 6, "velocity": 59}, {"time": 2636, "pitch": 60, "duration": 8, "velocity": 49}, {"time": 2642, "pitch": 62, "duration": 13, "velocity": 61}, {"time": 2648, "pitch": 64, "duration": 7, "velocity": 67}, {"time": 2654, "pitch": 67, "duration": 5, "velocity": 70}, {"time": 2660, "pitch": 72, "duration": 4, "velocity": 60}, {"time": 2666, "pitch": 74, "duration": 4, "velocity": 43}, {"time": 2672, "pitch": 55, "duration": 38, "velocity": 41}, {"time": 2672, "pitch": 60, "duration": 38, "velocity": 39}, {"time": 2672, "pitch": 64, "duration": 26, "velocity": 43}, {"time": 2672, "pitch": 67, "duration": 27, "velocity": 50}, {"time": 2672, "pitch": 72, "duration": 19, "velocity": 55}, {"time": 2672, "pitch": 79, "duration": 28, "velocity": 52}, {"time": 2702, "pitch": 64, "duration": 7, "velocity": 28}, {"time": 2708, "pitch": 74, "duration": 7, "velocity": 62}, {"time": 2714, "pitch": 76, "duration": 5, "velocity": 53}, {"time": 2720, "pitch": 53, "duration": 31, "velocity": 69}, {"time": 2720, "pitch": 69, "duration": 11, "velocity": 48}, {"time": 2720, "pitch": 72, "duration": 12, "velocity": 67}, {"time": 2720, "pitch": 77, "duration": 20, "velocity": 66}, {"time": 2726, "pitch": 60, "duration": 24, "velocity": 52}, {"time": 2732, "pitch": 65, "duration": 17, "velocity": 45}, {"time": 2738, "pitch": 67, "duration": 3, "velocity": 61}, {"time": 2738, "pitch": 76, "duration": 10, "velocity": 57}, {"time": 2750, "pitch": 72, "duration": 2, "velocity": 62}, {"time": 2768, "pitch": 43, "duration": 33, "velocity": 51}, {"time": 2768, "pitch": 55, "duration": 11, "velocity": 43}, {"time": 2768, "pitch": 60, "duration": 16, "velocity": 52}, {"time": 2768, "pitch": 65, "duration": 15, "velocity": 52}, {"time": 2768, "pitch": 69, "duration": 15, "velocity": 50}, {"time": 2768, "pitch": 72, "duration": 18, "velocity": 37}, {"time": 2792, "pitch": 55, "duration": 9, "velocity": 62}, {"time": 2798, "pitch": 65, "duration": 4, "velocity": 82}, {"time": 2804, "pitch": 67, "duration": 5, "velocity": 82}, {"time": 2810, "pitch": 72, "duration": 6, "velocity": 82}, {"time": 2816, "pitch": 55, "duration": 39, "velocity": 43}, {"time": 2816, "pitch": 60, "duration": 40, "velocity": 46}, {"time": 2816, "pitch": 64, "duration": 39, "velocity": 42}, {"time": 2816, "pitch": 79, "duration": 8, "velocity": 64}, {"time": 2822, "pitch": 67, "duration": 7, "velocity": 42}, {"time": 2828, "pitch": 79, "duration": 6, "velocity": 56}, {"time": 2834, "pitch": 67, "duration": 6, "velocity": 47}, {"time": 2840, "pitch": 79, "duration": 6, "velocity": 52}, {"time": 2846, "pitch": 67, "duration": 8, "velocity": 49}, {"time": 2852, "pitch": 77, "duration": 5, "velocity": 62}, {"time": 2858, "pitch": 67, "duration": 7, "velocity": 46}, {"time": 2864, "pitch": 55, "duration": 36, "velocity": 48}, {"time": 2864, "pitch": 60, "duration": 37, "velocity": 54}, {"time": 2864, "pitch": 64, "duration": 20, "velocity": 48}, {"time": 2864, "pitch": 76, "duration": 5, "velocity": 62}, {"time": 2870, "pitch": 67, "duration": 7, "velocity": 44}, {"time": 2876, "pitch": 76, "duration": 6, "velocity": 50}, {"time": 2882, "pitch": 67, "duration": 7, "velocity": 41}, {"time": 2888, "pitch": 64, "duration": 12, "velocity": 39}, {"time": 2888, "pitch": 74, "duration": 5, "velocity": 51}, {"time": 2894, "pitch": 67, "duration": 7, "velocity": 57}, {"time": 2903, "pitch": 72, "duration": 3, "velocity": 25}, {"time": 2906, "pitch": 67, "duration": 7, "velocity": 55}, {"time": 2912, "pitch": 57, "duration": 35, "velocity": 42}, {"time": 2912, "pitch": 60, "duration": 36, "velocity": 58}, {"time": 2912, "pitch": 64, "duration": 36, "velocity": 49}, {"time": 2912, "pitch": 71, "duration": 5, "velocity": 61}, {"time": 2918, "pitch": 67, "duration": 7, "velocity": 53}, {"time": 2924, "pitch": 72, "duration": 5, "velocity": 47}, {"time": 2930, "pitch": 67, "duration": 6, "velocity": 48}, {"time": 2936, "pitch": 72, "duration": 6, "velocity": 56}, {"time": 2942, "pitch": 67, "duration": 6, "velocity": 58}, {"time": 2948, "pitch": 71, "duration": 5, "velocity": 58}, {"time": 2954, "pitch": 67, "duration": 8, "velocity": 55}, {"time": 2960, "pitch": 45, "duration": 12, "velocity": 60}, {"time": 2960, "pitch": 72, "duration": 5, "velocity": 67}, {"time": 2966, "pitch": 52, "duration": 6, "velocity": 47}, {"time": 2966, "pitch": 64, "duration": 6, "velocity": 49}, {"time": 2972, "pitch": 57, "duration": 8, "velocity": 34}, {"time": 2972, "pitch": 72, "duration": 7, "velocity": 70}, {"time": 2978, "pitch": 59, "duration": 10, "velocity": 45}, {"time": 2978, "pitch": 64, "duration": 5, "velocity": 52}, {"time": 2984, "pitch": 60, "duration": 4, "velocity": 63}, {"time": 2984, "pitch": 71, "duration": 5, "velocity": 60}, {"time": 2990, "pitch": 64, "duration": 6, "velocity": 50}, {"time": 2996, "pitch": 67, "duration": 5, "velocity": 43}, {"time": 3002, "pitch": 64, "duration": 7, "velocity": 50}, {"time": 3008, "pitch": 41, "duration": 10, "velocity": 52}, {"time": 3008, "pitch": 72, "duration": 6, "velocity": 62}, {"time": 3014, "pitch": 48, "duration": 6, "velocity": 54}, {"time": 3014, "pitch": 60, "duration": 6, "velocity": 46}, {"time": 3020, "pitch": 53, "duration": 8, "velocity": 48}, {"time": 3020, "pitch": 72, "duration": 6, "velocity": 73}, {"time": 3026, "pitch": 55, "duration": 15, "velocity": 62}, {"time": 3026, "pitch": 60, "duration": 5, "velocity": 56}, {"time": 3032, "pitch": 57, "duration": 9, "velocity": 55}, {"time": 3032, "pitch": 72, "duration": 7, "velocity": 70}, {"time": 3038, "pitch": 60, "duration": 5, "velocity": 48}, {"time": 3044, "pitch": 71, "duration": 4, "velocity": 56}, {"time": 3050, "pitch": 60, "duration": 5, "velocity": 42}, {"time": 3056, "pitch": 41, "duration": 9, "velocity": 54}, {"time": 3056, "pitch": 72, "duration": 4, "velocity": 73}, {"time": 3062, "pitch": 48, "duration": 5, "velocity": 48}, {"time": 3062, "pitch": 62, "duration": 5, "velocity": 36}, {"time": 3068, "pitch": 53, "duration": 7, "velocity": 48}, {"time": 3068, "pitch": 72, "duration": 5, "velocity": 67}, {"time": 3074, "pitch": 55, "duration": 12, "velocity": 72}, {"time": 3074, "pitch": 64, "duration": 7, "velocity": 63}, {"time": 3080, "pitch": 57, "duration": 6, "velocity": 49}, {"time": 3080, "pitch": 72, "duration": 7, "velocity": 70}, {"time": 3086, "pitch": 64, "duration": 4, "velocity": 60}, {"time": 3092, "pitch": 72, "duration": 8, "velocity": 63}, {"time": 3098, "pitch": 64, "duration": 5, "velocity": 49}, {"time": 3104, "pitch": 43, "duration": 9, "velocity": 61}, {"time": 3104, "pitch": 71, "duration": 5, "velocity": 66}, {"time": 3110, "pitch": 50, "duration": 5, "velocity": 55}, {"time": 3110, "pitch": 62, "duration": 5, "velocity": 47}, {"time": 3116, "pitch": 55, "duration": 8, "velocity": 42}, {"time": 3116, "pitch": 71, "duration": 6, "velocity": 57}, {"time": 3122, "pitch": 57, "duration": 12, "velocity": 54}, {"time": 3122, "pitch": 62, "duration": 7, "velocity": 49}, {"time": 3128, "pitch": 59, "duration": 6, "velocity": 59}, {"time": 3128, "pitch": 69, "duration": 5, "velocity": 50}, {"time": 3134, "pitch": 62, "duration": 5, "velocity": 51}, {"time": 3140, "pitch": 69, "duration": 5, "velocity": 49}, {"time": 3146, "pitch": 62, "duration": 6, "velocity": 48}, {"time": 3152, "pitch": 43, "duration": 8, "velocity": 56}, {"time": 3152, "pitch": 71, "duration": 4, "velocity": 44}, {"time": 3158, "pitch": 50, "duration": 5, "velocity": 55}, {"time": 3158, "pitch": 62, "duration": 6, "velocity": 51}, {"time": 3164, "pitch": 55, "duration": 7, "velocity": 48}, {"time": 3164, "pitch": 67, "duration": 5, "velocity": 67}, {"time": 3170, "pitch": 57, "duration": 13, "velocity": 61}, {"time": 3170, "pitch": 62, "duration": 8, "velocity": 61}, {"time": 3176, "pitch": 59, "duration": 6, "velocity": 67}, {"time": 3176, "pitch": 69, "duration": 5, "velocity": 76}, {"time": 3182, "pitch": 62, "duration": 6, "velocity": 59}, {"time": 3188, "pitch": 71, "duration": 4, "velocity": 51}, {"time": 3194, "pitch": 62, "duration": 6, "velocity": 49}, {"time": 3200, "pitch": 48, "duration": 9, "velocity": 49}, {"time": 3200, "pitch": 72, "duration": 6, "velocity": 69}, {"time": 3206, "pitch": 55, "duration": 6, "velocity": 51}, {"time": 3206, "pitch": 67, "duration": 5, "velocity": 52}, {"time": 3212, "pitch": 60, "duration": 8, "velocity": 55}, {"time": 3212, "pitch": 74, "duration": 4, "velocity": 66}, {"time": 3218, "pitch": 62, "duration": 10, "velocity": 57}, {"time": 3218, "pitch": 67, "duration": 7, "velocity": 56}, {"time": 3224, "pitch": 64, "duration": 4, "velocity": 64}, {"time": 3224, "pitch": 76, "duration": 4, "velocity": 64}, {"time": 3230, "pitch": 67, "duration": 5, "velocity": 52}, {"time": 3236, "pitch": 74, "duration": 4, "velocity": 61}, {"time": 3242, "pitch": 67, "duration": 7, "velocity": 44}, {"time": 3248, "pitch": 48, "duration": 11, "velocity": 54}, {"time": 3254, "pitch": 55, "duration": 7, "velocity": 49}, {"time": 3254, "pitch": 67, "duration": 7, "velocity": 54}, {"time": 3260, "pitch": 59, "duration": 8, "velocity": 61}, {"time": 3260, "pitch": 74, "duration": 5, "velocity": 76}, {"time": 3266, "pitch": 60, "duration": 15, "velocity": 66}, {"time": 3266, "pitch": 67, "duration": 8, "velocity": 60}, {"time": 3272, "pitch": 64, "duration": 7, "velocity": 70}, {"time": 3272, "pitch": 76, "duration": 6, "velocity": 63}, {"time": 3278, "pitch": 67, "duration": 6, "velocity": 56}, {"time": 3284, "pitch": 74, "duration": 5, "velocity": 72}, {"time": 3290, "pitch": 67, "duration": 5, "velocity": 46}, {"time": 3296, "pitch": 45, "duration": 10, "velocity": 59}, {"time": 3296, "pitch": 72, "duration": 5, "velocity": 48}, {"time": 3302, "pitch": 52, "duration": 6, "velocity": 46}, {"time": 3302, "pitch": 67, "duration": 6, "velocity": 46}, {"time": 3308, "pitch": 57, "duration": 7, "velocity": 48}, {"time": 3308, "pitch": 74, "duration": 5, "velocity": 63}, {"time": 3314, "pitch": 59, "duration": 15, "velocity": 62}, {"time": 3314, "pitch": 67, "duration": 6, "velocity": 47}, {"time": 3320, "pitch": 60, "duration": 8, "velocity": 63}, {"time": 3320, "pitch": 76, "duration": 6, "velocity": 61}, {"time": 3326, "pitch": 67, "duration": 5, "velocity": 57}, {"time": 3332, "pitch": 76, "duration": 6, "velocity": 69}, {"time": 3338, "pitch": 67, "duration": 7, "velocity": 56}, {"time": 3344, "pitch": 45, "duration": 8, "velocity": 51}, {"time": 3344, "pitch": 74, "duration": 5, "velocity": 57}, {"time": 3350, "pitch": 52, "duration": 5, "velocity": 53}, {"time": 3350, "pitch": 67, "duration": 6, "velocity": 47}, {"time": 3356, "pitch": 57, "duration": 7, "velocity": 48}, {"time": 3356, "pitch": 74, "duration": 6, "velocity": 97}, {"time": 3362, "pitch": 59, "duration": 17, "velocity": 63}, {"time": 3362, "pitch": 67, "duration": 8, "velocity": 55}, {"time": 3368, "pitch": 60, "duration": 10, "velocity": 62}, {"time": 3368, "pitch": 72, "duration": 6, "velocity": 73}, {"time": 3374, "pitch": 67, "duration": 7, "velocity": 57}, {"time": 3380, "pitch": 71, "duration": 5, "velocity": 50}, {"time": 3386, "pitch": 67, "duration": 8, "velocity": 59}, {"time": 3392, "pitch": 41, "duration": 10, "velocity": 61}, {"time": 3392, "pitch": 72, "duration": 7, "velocity": 75}, {"time": 3398, "pitch": 48, "duration": 6, "velocity": 61}, {"time": 3398, "pitch": 60, "duration": 7, "velocity": 54}, {"time": 3404, "pitch": 53, "duration": 8, "velocity": 50}, {"time": 3404, "pitch": 72, "duration": 8, "velocity": 70}, {"time": 3410, "pitch": 55, "duration": 9, "velocity": 61}, {"time": 3410, "pitch": 60, "duration": 6, "velocity": 64}, {"time": 3416, "pitch": 57, "duration": 13, "velocity": 54}, {"time": 3416, "pitch": 72, "duration": 9, "velocity": 78}, {"time": 3422, "pitch": 60, "duration": 5, "velocity": 66}, {"time": 3428, "pitch": 55, "duration": 2, "velocity": 66}, {"time": 3428, "pitch": 67, "duration": 5, "velocity": 72}, {"time": 3434, "pitch": 60, "duration": 7, "velocity": 57}, {"time": 3440, "pitch": 41, "duration": 10, "velocity": 66}, {"time": 3440, "pitch": 72, "duration": 18, "velocity": 63}, {"time": 3446, "pitch": 48, "duration": 5, "velocity": 56}, {"time": 3446, "pitch": 60, "duration": 5, "velocity": 58}, {"time": 3452, "pitch": 53, "duration": 7, "velocity": 48}, {"time": 3452, "pitch": 65, "duration": 4, "velocity": 62}, {"time": 3458, "pitch": 55, "duration": 15, "velocity": 55}, {"time": 3458, "pitch": 60, "duration": 7, "velocity": 52}, {"time": 3470, "pitch": 57, "duration": 3, "velocity": 39}, {"time": 3470, "pitch": 60, "duration": 9, "velocity": 56}, {"time": 3476, "pitch": 65, "duration": 4, "velocity": 46}, {"time": 3482, "pitch": 72, "duration": 8, "velocity": 63}, {"time": 3488, "pitch": 43, "duration": 8, "velocity": 63}, {"time": 3488, "pitch": 71, "duration": 6, "velocity": 57}, {"time": 3494, "pitch": 50, "duration": 6, "velocity": 64}, {"time": 3494, "pitch": 67, "duration": 6, "velocity": 66}, {"time": 3500, "pitch": 55, "duration": 7, "velocity": 51}, {"time": 3500, "pitch": 62, "duration": 7, "velocity": 54}, {"time": 3506, "pitch": 57, "duration": 7, "velocity": 66}, {"time": 3506, "pitch": 67, "duration": 6, "velocity": 66}, {"time": 3512, "pitch": 59, "duration": 5, "velocity": 60}, {"time": 3512, "pitch": 71, "duration": 5, "velocity": 70}, {"time": 3518, "pitch": 62, "duration": 9, "velocity": 49}, {"time": 3524, "pitch": 67, "duration": 13, "velocity": 63}, {"time": 3530, "pitch": 72, "duration": 8, "velocity": 69}, {"time": 3536, "pitch": 43, "duration": 39, "velocity": 67}, {"time": 3536, "pitch": 62, "duration": 12, "velocity": 54}, {"time": 3536, "pitch": 71, "duration": 11, "velocity": 69}, {"time": 3542, "pitch": 50, "duration": 41, "velocity": 67}, {"time": 3548, "pitch": 55, "duration": 17, "velocity": 54}, {"time": 3554, "pitch": 62, "duration": 8, "velocity": 49}, {"time": 3560, "pitch": 67, "duration": 5, "velocity": 66}, {"time": 3566, "pitch": 69, "duration": 4, "velocity": 63}, {"time": 3572, "pitch": 55, "duration": 9, "velocity": 54}, {"time": 3572, "pitch": 71, "duration": 12, "velocity": 57}, {"time": 3578, "pitch": 74, "duration": 3, "velocity": 62}, {"time": 3584, "pitch": 45, "duration": 10, "velocity": 66}, {"time": 3584, "pitch": 64, "duration": 8, "velocity": 59}, {"time": 3584, "pitch": 67, "duration": 3, "velocity": 56}, {"time": 3584, "pitch": 72, "duration": 11, "velocity": 72}, {"time": 3590, "pitch": 52, "duration": 6, "velocity": 57}, {"time": 3596, "pitch": 57, "duration": 8, "velocity": 49}, {"time": 3596, "pitch": 64, "duration": 12, "velocity": 56}, {"time": 3596, "pitch": 71, "duration": 6, "velocity": 47}, {"time": 3602, "pitch": 59, "duration": 17, "velocity": 66}, {"time": 3602, "pitch": 72, "duration": 8, "velocity": 72}, {"time": 3608, "pitch": 60, "duration": 10, "velocity": 66}, {"time": 3614, "pitch": 64, "duration": 8, "velocity": 55}, {"time": 3620, "pitch": 71, "duration": 5, "velocity": 54}, {"time": 3626, "pitch": 72, "duration": 5, "velocity": 60}, {"time": 3632, "pitch": 40, "duration": 9, "velocity": 66}, {"time": 3632, "pitch": 62, "duration": 20, "velocity": 53}, {"time": 3632, "pitch": 67, "duration": 22, "velocity": 59}, {"time": 3632, "pitch": 71, "duration": 25, "velocity": 70}, {"time": 3638, "pitch": 47, "duration": 5, "velocity": 55}, {"time": 3644, "pitch": 52, "duration": 7, "velocity": 53}, {"time": 3650, "pitch": 55, "duration": 17, "velocity": 54}, {"time": 3656, "pitch": 59, "duration": 10, "velocity": 49}, {"time": 3656, "pitch": 60, "duration": 4, "velocity": 50}, {"time": 3662, "pitch": 62, "duration": 5, "velocity": 63}, {"time": 3668, "pitch": 67, "duration": 7, "velocity": 59}, {"time": 3674, "pitch": 72, "duration": 5, "velocity": 57}, {"time": 3680, "pitch": 41, "duration": 17, "velocity": 66}, {"time": 3680, "pitch": 60, "duration": 12, "velocity": 64}, {"time": 3680, "pitch": 65, "duration": 12, "velocity": 73}, {"time": 3680, "pitch": 69, "duration": 13, "velocity": 67}, {"time": 3686, "pitch": 48, "duration": 18, "velocity": 62}, {"time": 3692, "pitch": 53, "duration": 9, "velocity": 66}, {"time": 3698, "pitch": 60, "duration": 4, "velocity": 63}, {"time": 3704, "pitch": 43, "duration": 14, "velocity": 72}, {"time": 3704, "pitch": 60, "duration": 11, "velocity": 64}, {"time": 3704, "pitch": 65, "duration": 15, "velocity": 67}, {"time": 3704, "pitch": 69, "duration": 14, "velocity": 69}, {"time": 3710, "pitch": 50, "duration": 9, "velocity": 64}, {"time": 3716, "pitch": 55, "duration": 11, "velocity": 63}, {"time": 3722, "pitch": 60, "duration": 2, "velocity": 54}, {"time": 3722, "pitch": 69, "duration": 6, "velocity": 63}, {"time": 3728, "pitch": 48, "duration": 17, "velocity": 70}, {"time": 3728, "pitch": 64, "duration": 11, "velocity": 69}, {"time": 3728, "pitch": 67, "duration": 12, "velocity": 72}, {"time": 3734, "pitch": 55, "duration": 19, "velocity": 60}, {"time": 3740, "pitch": 60, "duration": 7, "velocity": 60}, {"time": 3746, "pitch": 62, "duration": 5, "velocity": 58}, {"time": 3752, "pitch": 47, "duration": 17, "velocity": 66}, {"time": 3752, "pitch": 62, "duration": 10, "velocity": 70}, {"time": 3752, "pitch": 67, "duration": 7, "velocity": 76}, {"time": 3758, "pitch": 55, "duration": 11, "velocity": 58}, {"time": 3764, "pitch": 59, "duration": 4, "velocity": 66}, {"time": 3770, "pitch": 67, "duration": 4, "velocity": 67}, {"time": 3776, "pitch": 45, "duration": 38, "velocity": 72}, {"time": 3776, "pitch": 60, "duration": 13, "velocity": 70}, {"time": 3776, "pitch": 64, "duration": 11, "velocity": 67}, {"time": 3782, "pitch": 52, "duration": 15, "velocity": 58}, {"time": 3788, "pitch": 57, "duration": 21, "velocity": 56}, {"time": 3794, "pitch": 59, "duration": 9, "velocity": 76}, {"time": 3794, "pitch": 64, "duration": 9, "velocity": 76}, {"time": 3806, "pitch": 60, "duration": 8, "velocity": 80}, {"time": 3806, "pitch": 67, "duration": 8, "velocity": 69}, {"time": 3812, "pitch": 52, "duration": 9, "velocity": 59}, {"time": 3818, "pitch": 59, "duration": 4, "velocity": 48}, {"time": 3824, "pitch": 43, "duration": 48, "velocity": 64}, {"time": 3824, "pitch": 60, "duration": 10, "velocity": 69}, {"time": 3824, "pitch": 67, "duration": 10, "velocity": 75}, {"time": 3830, "pitch": 52, "duration": 32, "velocity": 64}, {"time": 3836, "pitch": 55, "duration": 8, "velocity": 60}, {"time": 3842, "pitch": 59, "duration": 7, "velocity": 63}, {"time": 3842, "pitch": 64, "duration": 8, "velocity": 75}, {"time": 3848, "pitch": 67, "duration": 7, "velocity": 64}, {"time": 3854, "pitch": 69, "duration": 3, "velocity": 62}, {"time": 3860, "pitch": 55, "duration": 4, "velocity": 59}, {"time": 3860, "pitch": 71, "duration": 5, "velocity": 66}, {"time": 3866, "pitch": 72, "duration": 7, "velocity": 59}, {"time": 3872, "pitch": 41, "duration": 41, "velocity": 63}, {"time": 3872, "pitch": 65, "duration": 7, "velocity": 69}, {"time": 3872, "pitch": 69, "duration": 8, "velocity": 64}, {"time": 3878, "pitch": 48, "duration": 48, "velocity": 63}, {"time": 3884, "pitch": 53, "duration": 8, "velocity": 64}, {"time": 3890, "pitch": 57, "duration": 9, "velocity": 49}, {"time": 3890, "pitch": 60, "duration": 13, "velocity": 54}, {"time": 3890, "pitch": 65, "duration": 12, "velocity": 75}, {"time": 3902, "pitch": 53, "duration": 7, "velocity": 56}, {"time": 3908, "pitch": 57, "duration": 5, "velocity": 63}, {"time": 3908, "pitch": 60, "duration": 8, "velocity": 72}, {"time": 3908, "pitch": 65, "duration": 8, "velocity": 75}, {"time": 3914, "pitch": 53, "duration": 4, "velocity": 52}, {"time": 3920, "pitch": 57, "duration": 12, "velocity": 59}, {"time": 3920, "pitch": 60, "duration": 19, "velocity": 70}, {"time": 3920, "pitch": 65, "duration": 15, "velocity": 70}, {"time": 3926, "pitch": 41, "duration": 33, "velocity": 56}, {"time": 3932, "pitch": 48, "duration": 28, "velocity": 67}, {"time": 3938, "pitch": 53, "duration": 13, "velocity": 88}, {"time": 3944, "pitch": 57, "duration": 5, "velocity": 88}, {"time": 3950, "pitch": 57, "duration": 1, "velocity": 38}, {"time": 3950, "pitch": 60, "duration": 4, "velocity": 82}, {"time": 3956, "pitch": 62, "duration": 4, "velocity": 82}, {"time": 3962, "pitch": 64, "duration": 4, "velocity": 57}, {"time": 3968, "pitch": 43, "duration": 39, "velocity": 72}, {"time": 3968, "pitch": 57, "duration": 9, "velocity": 69}, {"time": 3968, "pitch": 60, "duration": 11, "velocity": 72}, {"time": 3968, "pitch": 65, "duration": 9, "velocity": 66}, {"time": 3974, "pitch": 50, "duration": 21, "velocity": 62}, {"time": 3980, "pitch": 55, "duration": 29, "velocity": 82}, {"time": 3986, "pitch": 57, "duration": 4, "velocity": 93}, {"time": 3992, "pitch": 60, "duration": 6, "velocity": 53}, {"time": 3998, "pitch": 62, "duration": 2, "velocity": 73}, {"time": 4004, "pitch": 50, "duration": 9, "velocity": 49}, {"time": 4004, "pitch": 67, "duration": 3, "velocity": 69}, {"time": 4004, "pitch": 69, "duration": 3, "velocity": 53}, {"time": 4010, "pitch": 72, "duration": 7, "velocity": 61}, {"time": 4016, "pitch": 43, "duration": 37, "velocity": 62}, {"time": 4016, "pitch": 79, "duration": 4, "velocity": 69}, {"time": 4022, "pitch": 50, "duration": 32, "velocity": 61}, {"time": 4022, "pitch": 67, "duration": 7, "velocity": 52}, {"time": 4028, "pitch": 77, "duration": 7, "velocity": 72}, {"time": 4034, "pitch": 67, "duration": 8, "velocity": 56}, {"time": 4040, "pitch": 55, "duration": 8, "velocity": 51}, {"time": 4040, "pitch": 76, "duration": 6, "velocity": 80}, {"time": 4046, "pitch": 67, "duration": 6, "velocity": 50}, {"time": 4052, "pitch": 55, "duration": 8, "velocity": 44}, {"time": 4052, "pitch": 74, "duration": 4, "velocity": 91}, {"time": 4058, "pitch": 67, "duration": 6, "velocity": 59}, {"time": 4061, "pitch": 64, "duration": 3, "velocity": 43}, {"time": 4064, "pitch": 48, "duration": 8, "velocity": 75}, {"time": 4064, "pitch": 67, "duration": 1, "velocity": 55}, {"time": 4064, "pitch": 72, "duration": 7, "velocity": 82}, {"time": 4064, "pitch": 79, "duration": 144, "velocity": 97}, {"time": 4070, "pitch": 55, "duration": 5, "velocity": 64}, {"time": 4070, "pitch": 64, "duration": 5, "velocity": 63}, {"time": 4076, "pitch": 60, "duration": 7, "velocity": 47}, {"time": 4076, "pitch": 71, "duration": 5, "velocity": 70}, {"time": 4082, "pitch": 62, "duration": 12, "velocity": 52}, {"time": 4082, "pitch": 72, "duration": 6, "velocity": 62}, {"time": 4088, "pitch": 64, "duration": 13, "velocity": 69}, {"time": 4088, "pitch": 67, "duration": 9, "velocity": 62}, {"time": 4100, "pitch": 62, "duration": 3, "velocity": 76}, {"time": 4100, "pitch": 69, "duration": 4, "velocity": 63}, {"time": 4106, "pitch": 72, "duration": 8, "velocity": 66}, {"time": 4112, "pitch": 47, "duration": 39, "velocity": 69}, {"time": 4112, "pitch": 62, "duration": 9, "velocity": 60}, {"time": 4112, "pitch": 71, "duration": 9, "velocity": 67}, {"time": 4118, "pitch": 55, "duration": 24, "velocity": 59}, {"time": 4124, "pitch": 59, "duration": 24, "velocity": 62}, {"time": 4130, "pitch": 62, "duration": 8, "velocity": 76}, {"time": 4136, "pitch": 67, "duration": 4, "velocity": 62}, {"time": 4142, "pitch": 69, "duration": 4, "velocity": 78}, {"time": 4148, "pitch": 55, "duration": 3, "velocity": 69}, {"time": 4148, "pitch": 71, "duration": 6, "velocity": 85}, {"time": 4154, "pitch": 74, "duration": 5, "velocity": 67}, {"time": 4160, "pitch": 41, "duration": 16, "velocity": 70}, {"time": 4160, "pitch": 69, "duration": 9, "velocity": 75}, {"time": 4160, "pitch": 72, "duration": 9, "velocity": 75}, {"time": 4166, "pitch": 48, "duration": 14, "velocity": 61}, {"time": 4172, "pitch": 53, "duration": 6, "velocity": 63}, {"time": 4178, "pitch": 57, "duration": 18, "velocity": 40}, {"time": 4184, "pitch": 43, "duration": 13, "velocity": 69}, {"time": 4184, "pitch": 60, "duration": 13, "velocity": 70}, {"time": 4184, "pitch": 65, "duration": 14, "velocity": 73}, {"time": 4190, "pitch": 50, "duration": 8, "velocity": 61}, {"time": 4196, "pitch": 55, "duration": 6, "velocity": 59}, {"time": 4202, "pitch": 60, "duration": 5, "velocity": 67}, {"time": 4205, "pitch": 62, "duration": 4, "velocity": 57}, {"time": 4208, "pitch": 48, "duration": 41, "velocity": 69}, {"time": 4208, "pitch": 64, "duration": 8, "velocity": 72}, {"time": 4209, "pitch": 76, "duration": 20, "velocity": 97}, {"time": 4214, "pitch": 55, "duration": 34, "velocity": 60}, {"time": 4220, "pitch": 60, "duration": 19, "velocity": 62}, {"time": 4226, "pitch": 62, "duration": 4, "velocity": 64}, {"time": 4226, "pitch": 67, "duration": 4, "velocity": 91}, {"time": 4229, "pitch": 76, "duration": 1, "velocity": 97}, {"time": 4232, "pitch": 64, "duration": 6, "velocity": 63}, {"time": 4238, "pitch": 69, "duration": 7, "velocity": 61}, {"time": 4244, "pitch": 60, "duration": 3, "velocity": 67}, {"time": 4244, "pitch": 72, "duration": 3, "velocity": 75}, {"time": 4245, "pitch": 74, "duration": 5, "velocity": 94}, {"time": 4250, "pitch": 72, "duration": 4, "velocity": 61}, {"time": 4251, "pitch": 72, "duration": 3, "velocity": 94}, {"time": 4256, "pitch": 74, "duration": 13, "velocity": 94}, {"time": 4256, "pitch": 45, "duration": 8, "velocity": 72}, {"time": 4256, "pitch": 64, "duration": 7, "velocity": 69}, {"time": 4256, "pitch": 72, "duration": 1, "velocity": 76}, {"time": 4262, "pitch": 52, "duration": 5, "velocity": 55}, {"time": 4265, "pitch": 64, "duration": 3, "velocity": 52}, {"time": 4265, "pitch": 71, "duration": 9, "velocity": 72}, {"time": 4266, "pitch": 72, "duration": 1, "velocity": 94}, {"time": 4268, "pitch": 57, "duration": 8, "velocity": 48}, {"time": 4274, "pitch": 59, "duration": 15, "velocity": 69}, {"time": 4274, "pitch": 64, "duration": 7, "velocity": 67}, {"time": 4274, "pitch": 72, "duration": 7, "velocity": 76}, {"time": 4280, "pitch": 60, "duration": 8, "velocity": 63}, {"time": 4286, "pitch": 64, "duration": 4, "velocity": 70}, {"time": 4292, "pitch": 69, "duration": 5, "velocity": 91}, {"time": 4298, "pitch": 72, "duration": 5, "velocity": 67}, {"time": 4304, "pitch": 52, "duration": 40, "velocity": 70}, {"time": 4304, "pitch": 62, "duration": 6, "velocity": 70}, {"time": 4304, "pitch": 67, "duration": 13, "velocity": 61}, {"time": 4304, "pitch": 71, "duration": 13, "velocity": 66}, {"time": 4310, "pitch": 59, "duration": 33, "velocity": 58}, {"time": 4316, "pitch": 64, "duration": 19, "velocity": 64}, {"time": 4322, "pitch": 67, "duration": 15, "velocity": 78}, {"time": 4334, "pitch": 76, "duration": 7, "velocity": 80}, {"time": 4340, "pitch": 64, "duration": 2, "velocity": 60}, {"time": 4340, "pitch": 74, "duration": 5, "velocity": 75}, {"time": 4346, "pitch": 72, "duration": 5, "velocity": 73}, {"time": 4352, "pitch": 50, "duration": 38, "velocity": 64}, {"time": 4352, "pitch": 60, "duration": 4, "velocity": 69}, {"time": 4352, "pitch": 65, "duration": 13, "velocity": 73}, {"time": 4352, "pitch": 69, "duration": 12, "velocity": 66}, {"time": 4358, "pitch": 57, "duration": 23, "velocity": 54}, {"time": 4358, "pitch": 72, "duration": 4, "velocity": 19}, {"time": 4364, "pitch": 62, "duration": 21, "velocity": 61}, {"time": 4370, "pitch": 64, "duration": 8, "velocity": 76}, {"time": 4376, "pitch": 65, "duration": 6, "velocity": 64}, {"time": 4382, "pitch": 69, "duration": 12, "velocity": 78}, {"time": 4388, "pitch": 57, "duration": 8, "velocity": 50}, {"time": 4394, "pitch": 62, "duration": 6, "velocity": 55}, {"time": 4400, "pitch": 43, "duration": 10, "velocity": 73}, {"time": 4400, "pitch": 60, "duration": 13, "velocity": 67}, {"time": 4400, "pitch": 65, "duration": 21, "velocity": 75}, {"time": 4400, "pitch": 69, "duration": 22, "velocity": 70}, {"time": 4406, "pitch": 50, "duration": 6, "velocity": 51}, {"time": 4412, "pitch": 55, "duration": 7, "velocity": 46}, {"time": 4418, "pitch": 57, "duration": 17, "velocity": 59}, {"time": 4424, "pitch": 59, "duration": 10, "velocity": 73}, {"time": 4430, "pitch": 62, "duration": 6, "velocity": 76}, {"time": 4436, "pitch": 62, "duration": 2, "velocity": 40}, {"time": 4436, "pitch": 64, "duration": 7, "velocity": 88}, {"time": 4442, "pitch": 65, "duration": 5, "velocity": 80}, {"time": 4448, "pitch": 48, "duration": 9, "velocity": 75}, {"time": 4448, "pitch": 64, "duration": 8, "velocity": 82}, {"time": 4448, "pitch": 67, "duration": 9, "velocity": 72}, {"time": 4448, "pitch": 79, "duration": 21, "velocity": 95}, {"time": 4454, "pitch": 55, "duration": 6, "velocity": 53}, {"time": 4460, "pitch": 60, "duration": 7, "velocity": 50}, {"time": 4466, "pitch": 62, "duration": 12, "velocity": 63}, {"time": 4466, "pitch": 67, "duration": 2, "velocity": 63}, {"time": 4466, "pitch": 72, "duration": 3, "velocity": 63}, {"time": 4466, "pitch": 79, "duration": 3, "velocity": 75}, {"time": 4472, "pitch": 64, "duration": 13, "velocity": 66}, {"time": 4472, "pitch": 67, "duration": 3, "velocity": 70}, {"time": 4472, "pitch": 72, "duration": 4, "velocity": 69}, {"time": 4472, "pitch": 79, "duration": 3, "velocity": 75}, {"time": 4478, "pitch": 69, "duration": 6, "velocity": 64}, {"time": 4478, "pitch": 72, "duration": 7, "velocity": 67}, {"time": 4478, "pitch": 77, "duration": 7, "velocity": 80}, {"time": 4484, "pitch": 62, "duration": 3, "velocity": 67}, {"time": 4487, "pitch": 67, "duration": 5, "velocity": 73}, {"time": 4487, "pitch": 76, "duration": 8, "velocity": 67}, {"time": 4496, "pitch": 47, "duration": 35, "velocity": 76}, {"time": 4496, "pitch": 67, "duration": 9, "velocity": 66}, {"time": 4496, "pitch": 74, "duration": 8, "velocity": 88}, {"time": 4502, "pitch": 55, "duration": 30, "velocity": 58}, {"time": 4508, "pitch": 59, "duration": 20, "velocity": 63}, {"time": 4514, "pitch": 62, "duration": 8, "velocity": 85}, {"time": 4520, "pitch": 67, "duration": 5, "velocity": 69}, {"time": 4526, "pitch": 69, "duration": 4, "velocity": 88}, {"time": 4532, "pitch": 71, "duration": 7, "velocity": 72}, {"time": 4538, "pitch": 74, "duration": 2, "velocity": 55}, {"time": 4544, "pitch": 41, "duration": 15, "velocity": 73}, {"time": 4544, "pitch": 60, "duration": 14, "velocity": 76}, {"time": 4544, "pitch": 65, "duration": 14, "velocity": 69}, {"time": 4544, "pitch": 69, "duration": 17, "velocity": 72}, {"time": 4550, "pitch": 48, "duration": 13, "velocity": 64}, {"time": 4556, "pitch": 53, "duration": 6, "velocity": 57}, {"time": 4562, "pitch": 72, "duration": 7, "velocity": 70}, {"time": 4568, "pitch": 43, "duration": 11, "velocity": 75}, {"time": 4568, "pitch": 62, "duration": 7, "velocity": 67}, {"time": 4568, "pitch": 67, "duration": 9, "velocity": 66}, {"time": 4568, "pitch": 71, "duration": 15, "velocity": 67}, {"time": 4574, "pitch": 50, "duration": 6, "velocity": 48}, {"time": 4580, "pitch": 55, "duration": 8, "velocity": 55}, {"time": 4580, "pitch": 64, "duration": 3, "velocity": 66}, {"time": 4580, "pitch": 72, "duration": 3, "velocity": 78}, {"time": 4586, "pitch": 57, "duration": 3, "velocity": 59}, {"time": 4586, "pitch": 74, "duration": 3, "velocity": 73}, {"time": 4592, "pitch": 48, "duration": 8, "velocity": 72}, {"time": 4592, "pitch": 67, "duration": 12, "velocity": 64}, {"time": 4592, "pitch": 76, "duration": 13, "velocity": 78}, {"time": 4593, "pitch": 76, "duration": 12, "velocity": 96}, {"time": 4598, "pitch": 55, "duration": 5, "velocity": 61}, {"time": 4604, "pitch": 60, "duration": 7, "velocity": 46}, {"time": 4610, "pitch": 62, "duration": 8, "velocity": 61}, {"time": 4610, "pitch": 76, "duration": 3, "velocity": 43}, {"time": 4616, "pitch": 64, "duration": 13, "velocity": 57}, {"time": 4628, "pitch": 62, "duration": 5, "velocity": 57}, {"time": 4634, "pitch": 60, "duration": 2, "velocity": 62}, {"time": 4640, "pitch": 45, "duration": 8, "velocity": 76}, {"time": 4640, "pitch": 76, "duration": 19, "velocity": 69}, {"time": 4646, "pitch": 52, "duration": 5, "velocity": 48}, {"time": 4652, "pitch": 57, "duration": 7, "velocity": 52}, {"time": 4658, "pitch": 59, "duration": 18, "velocity": 59}, {"time": 4664, "pitch": 60, "duration": 12, "velocity": 69}, {"time": 4670, "pitch": 65, "duration": 2, "velocity": 40}, {"time": 4670, "pitch": 67, "duration": 2, "velocity": 39}, {"time": 4676, "pitch": 72, "duration": 3, "velocity": 59}, {"time": 4676, "pitch": 74, "duration": 3, "velocity": 46}, {"time": 4682, "pitch": 76, "duration": 2, "velocity": 59}, {"time": 4688, "pitch": 52, "duration": 37, "velocity": 67}, {"time": 4688, "pitch": 62, "duration": 8, "velocity": 57}, {"time": 4688, "pitch": 67, "duration": 8, "velocity": 66}, {"time": 4688, "pitch": 71, "duration": 8, "velocity": 55}, {"time": 4694, "pitch": 59, "duration": 17, "velocity": 57}, {"time": 4700, "pitch": 62, "duration": 5, "velocity": 69}, {"time": 4706, "pitch": 62, "duration": 7, "velocity": 56}, {"time": 4706, "pitch": 67, "duration": 12, "velocity": 80}, {"time": 4706, "pitch": 71, "duration": 11, "velocity": 78}, {"time": 4718, "pitch": 59, "duration": 7, "velocity": 64}, {"time": 4724, "pitch": 64, "duration": 4, "velocity": 64}, {"time": 4724, "pitch": 67, "duration": 5, "velocity": 76}, {"time": 4724, "pitch": 72, "duration": 1, "velocity": 59}, {"time": 4730, "pitch": 72, "duration": 5, "velocity": 66}, {"time": 4736, "pitch": 50, "duration": 35, "velocity": 69}, {"time": 4736, "pitch": 62, "duration": 8, "velocity": 66}, {"time": 4736, "pitch": 65, "duration": 9, "velocity": 78}, {"time": 4736, "pitch": 69, "duration": 8, "velocity": 76}, {"time": 4736, "pitch": 72, "duration": 7, "velocity": 45}, {"time": 4742, "pitch": 57, "duration": 25, "velocity": 58}, {"time": 4748, "pitch": 64, "duration": 7, "velocity": 66}, {"time": 4754, "pitch": 65, "duration": 9, "velocity": 76}, {"time": 4754, "pitch": 69, "duration": 8, "velocity": 78}, {"time": 4760, "pitch": 62, "duration": 8, "velocity": 60}, {"time": 4766, "pitch": 64, "duration": 8, "velocity": 75}, {"time": 4772, "pitch": 65, "duration": 7, "velocity": 63}, {"time": 4778, "pitch": 69, "duration": 2, "velocity": 50}, {"time": 4778, "pitch": 72, "duration": 3, "velocity": 49}, {"time": 4784, "pitch": 43, "duration": 10, "velocity": 72}, {"time": 4784, "pitch": 60, "duration": 14, "velocity": 76}, {"time": 4784, "pitch": 65, "duration": 14, "velocity": 66}, {"time": 4784, "pitch": 69, "duration": 20, "velocity": 62}, {"time": 4784, "pitch": 72, "duration": 25, "velocity": 44}, {"time": 4790, "pitch": 50, "duration": 6, "velocity": 59}, {"time": 4796, "pitch": 55, "duration": 8, "velocity": 48}, {"time": 4802, "pitch": 57, "duration": 17, "velocity": 48}, {"time": 4808, "pitch": 59, "duration": 11, "velocity": 69}, {"time": 4814, "pitch": 65, "duration": 8, "velocity": 85}, {"time": 4820, "pitch": 67, "duration": 4, "velocity": 62}, {"time": 4826, "pitch": 69, "duration": 4, "velocity": 62}, {"time": 4832, "pitch": 48, "duration": 64, "velocity": 63}, {"time": 4832, "pitch": 67, "duration": 11, "velocity": 58}, {"time": 4832, "pitch": 72, "duration": 11, "velocity": 62}, {"time": 4832, "pitch": 77, "duration": 13, "velocity": 67}, {"time": 4844, "pitch": 55, "duration": 53, "velocity": 36}, {"time": 4850, "pitch": 67, "duration": 9, "velocity": 53}, {"time": 4850, "pitch": 76, "duration": 5, "velocity": 50}, {"time": 4862, "pitch": 60, "duration": 11, "velocity": 46}, {"time": 4868, "pitch": 65, "duration": 6, "velocity": 54}, {"time": 4874, "pitch": 67, "duration": 24, "velocity": 46}, {"time": 4880, "pitch": 60, "duration": 15, "velocity": 50}, {"time": 4880, "pitch": 64, "duration": 16, "velocity": 47}, {"time": 4880, "pitch": 72, "duration": 16, "velocity": 55}, {"time": 4904, "pitch": 43, "duration": 8, "velocity": 50}, {"time": 4904, "pitch": 55, "duration": 11, "velocity": 51}, {"time": 4904, "pitch": 62, "duration": 7, "velocity": 60}, {"time": 4904, "pitch": 67, "duration": 9, "velocity": 64}, {"time": 4904, "pitch": 71, "duration": 8, "velocity": 66}, {"time": 4928, "pitch": 65, "duration": 14, "velocity": 61}, {"time": 4928, "pitch": 69, "duration": 16, "velocity": 41}, {"time": 4928, "pitch": 72, "duration": 14, "velocity": 57}, {"time": 4928, "pitch": 77, "duration": 16, "velocity": 73}, {"time": 4952, "pitch": 55, "duration": 11, "velocity": 55}, {"time": 4952, "pitch": 67, "duration": 11, "velocity": 58}, {"time": 4952, "pitch": 74, "duration": 12, "velocity": 67}, {"time": 4952, "pitch": 76, "duration": 4, "velocity": 44}, {"time": 4976, "pitch": 60, "duration": 13, "velocity": 59}, {"time": 4976, "pitch": 74, "duration": 12, "velocity": 57}, {"time": 4976, "pitch": 79, "duration": 14, "velocity": 60}, {"time": 4988, "pitch": 67, "duration": 9, "velocity": 42}, {"time": 4994, "pitch": 84, "duration": 8, "velocity": 56}, {"time": 5000, "pitch": 59, "duration": 10, "velocity": 52}, {"time": 5000, "pitch": 74, "duration": 7, "velocity": 63}, {"time": 5000, "pitch": 83, "duration": 6, "velocity": 72}, {"time": 5006, "pitch": 67, "duration": 5, "velocity": 44}, {"time": 5009, "pitch": 79, "duration": 6, "velocity": 61}, {"time": 5018, "pitch": 81, "duration": 5, "velocity": 60}, {"time": 5024, "pitch": 57, "duration": 40, "velocity": 61}, {"time": 5024, "pitch": 76, "duration": 7, "velocity": 56}, {"time": 5024, "pitch": 84, "duration": 7, "velocity": 61}, {"time": 5030, "pitch": 64, "duration": 36, "velocity": 40}, {"time": 5036, "pitch": 69, "duration": 26, "velocity": 54}, {"time": 5042, "pitch": 71, "duration": 6, "velocity": 73}, {"time": 5048, "pitch": 72, "duration": 3, "velocity": 59}, {"time": 5054, "pitch": 76, "duration": 7, "velocity": 46}, {"time": 5060, "pitch": 81, "duration": 5, "velocity": 46}, {"time": 5066, "pitch": 84, "duration": 5, "velocity": 44}, {"time": 5072, "pitch": 55, "duration": 38, "velocity": 56}, {"time": 5072, "pitch": 64, "duration": 16, "velocity": 49}, {"time": 5072, "pitch": 74, "duration": 10, "velocity": 58}, {"time": 5072, "pitch": 83, "duration": 8, "velocity": 61}, {"time": 5090, "pitch": 67, "duration": 5, "velocity": 57}, {"time": 5096, "pitch": 69, "duration": 5, "velocity": 73}, {"time": 5102, "pitch": 71, "duration": 6, "velocity": 60}, {"time": 5108, "pitch": 72, "duration": 5, "velocity": 69}, {"time": 5120, "pitch": 50, "duration": 38, "velocity": 66}, {"time": 5120, "pitch": 62, "duration": 6, "velocity": 59}, {"time": 5120, "pitch": 65, "duration": 7, "velocity": 64}, {"time": 5120, "pitch": 69, "duration": 11, "velocity": 62}, {"time": 5126, "pitch": 57, "duration": 33, "velocity": 31}, {"time": 5132, "pitch": 62, "duration": 16, "velocity": 50}, {"time": 5138, "pitch": 64, "duration": 7, "velocity": 48}, {"time": 5144, "pitch": 65, "duration": 14, "velocity": 66}, {"time": 5144, "pitch": 69, "duration": 13, "velocity": 62}, {"time": 5156, "pitch": 62, "duration": 3, "velocity": 45}, {"time": 5168, "pitch": 60, "duration": 4, "velocity": 66}, {"time": 5168, "pitch": 65, "duration": 6, "velocity": 67}, {"time": 5168, "pitch": 69, "duration": 7, "velocity": 67}, {"time": 5171, "pitch": 53, "duration": 38, "velocity": 63}, {"time": 5174, "pitch": 60, "duration": 36, "velocity": 58}, {"time": 5180, "pitch": 65, "duration": 26, "velocity": 53}, {"time": 5186, "pitch": 69, "duration": 9, "velocity": 49}, {"time": 5192, "pitch": 77, "duration": 8, "velocity": 66}, {"time": 5198, "pitch": 76, "duration": 6, "velocity": 57}, {"time": 5204, "pitch": 72, "duration": 4, "velocity": 57}, {"time": 5210, "pitch": 69, "duration": 10, "velocity": 49}, {"time": 5216, "pitch": 53, "duration": 34, "velocity": 64}, {"time": 5216, "pitch": 72, "duration": 9, "velocity": 43}, {"time": 5216, "pitch": 77, "duration": 17, "velocity": 62}, {"time": 5222, "pitch": 60, "duration": 14, "velocity": 47}, {"time": 5228, "pitch": 65, "duration": 13, "velocity": 59}, {"time": 5234, "pitch": 69, "duration": 7, "velocity": 80}, {"time": 5234, "pitch": 77, "duration": 1, "velocity": 36}, {"time": 5240, "pitch": 72, "duration": 3, "velocity": 75}, {"time": 5246, "pitch": 60, "duration": 3, "velocity": 47}, {"time": 5252, "pitch": 65, "duration": 5, "velocity": 75}, {"time": 5258, "pitch": 67, "duration": 4, "velocity": 57}, {"time": 5264, "pitch": 43, "duration": 35, "velocity": 70}, {"time": 5264, "pitch": 60, "duration": 11, "velocity": 67}, {"time": 5264, "pitch": 65, "duration": 13, "velocity": 69}, {"time": 5264, "pitch": 69, "duration": 12, "velocity": 67}, {"time": 5270, "pitch": 50, "duration": 29, "velocity": 63}, {"time": 5276, "pitch": 55, "duration": 13, "velocity": 76}, {"time": 5282, "pitch": 60, "duration": 4, "velocity": 61}, {"time": 5288, "pitch": 60, "duration": 7, "velocity": 76}, {"time": 5288, "pitch": 65, "duration": 7, "velocity": 73}, {"time": 5288, "pitch": 69, "duration": 7, "velocity": 75}, {"time": 5294, "pitch": 55, "duration": 8, "velocity": 53}, {"time": 5300, "pitch": 60, "duration": 6, "velocity": 62}, {"time": 5306, "pitch": 67, "duration": 5, "velocity": 66}, {"time": 5312, "pitch": 48, "duration": 10, "velocity": 73}, {"time": 5312, "pitch": 64, "duration": 10, "velocity": 85}, {"time": 5312, "pitch": 67, "duration": 11, "velocity": 76}, {"time": 5312, "pitch": 72, "duration": 9, "velocity": 78}, {"time": 5318, "pitch": 55, "duration": 6, "velocity": 60}, {"time": 5324, "pitch": 60, "duration": 8, "velocity": 59}, {"time": 5330, "pitch": 62, "duration": 11, "velocity": 66}, {"time": 5336, "pitch": 64, "duration": 4, "velocity": 70}, {"time": 5339, "pitch": 67, "duration": 4, "velocity": 82}, {"time": 5342, "pitch": 72, "duration": 5, "velocity": 64}, {"time": 5345, "pitch": 74, "duration": 7, "velocity": 62}, {"time": 5348, "pitch": 76, "duration": 4, "velocity": 69}, {"time": 5351, "pitch": 77, "duration": 5, "velocity": 62}, {"time": 5354, "pitch": 76, "duration": 6, "velocity": 67}, {"time": 5360, "pitch": 47, "duration": 9, "velocity": 72}, {"time": 5360, "pitch": 67, "duration": 14, "velocity": 76}, {"time": 5360, "pitch": 74, "duration": 22, "velocity": 91}, {"time": 5366, "pitch": 55, "duration": 5, "velocity": 60}, {"time": 5372, "pitch": 59, "duration": 7, "velocity": 47}, {"time": 5378, "pitch": 62, "duration": 18, "velocity": 55}, {"time": 5384, "pitch": 67, "duration": 10, "velocity": 72}, {"time": 5390, "pitch": 74, "duration": 5, "velocity": 93}, {"time": 5396, "pitch": 76, "duration": 5, "velocity": 73}, {"time": 5402, "pitch": 77, "duration": 7, "velocity": 64}, {"time": 5408, "pitch": 53, "duration": 15, "velocity": 66}, {"time": 5408, "pitch": 65, "duration": 7, "velocity": 69}, {"time": 5408, "pitch": 69, "duration": 8, "velocity": 69}, {"time": 5414, "pitch": 60, "duration": 12, "velocity": 67}, {"time": 5420, "pitch": 65, "duration": 7, "velocity": 64}, {"time": 5426, "pitch": 76, "duration": 5, "velocity": 76}, {"time": 5432, "pitch": 55, "duration": 16, "velocity": 66}, {"time": 5432, "pitch": 74, "duration": 14, "velocity": 75}, {"time": 5438, "pitch": 62, "duration": 10, "velocity": 60}, {"time": 5444, "pitch": 67, "duration": 3, "velocity": 62}, {"time": 5450, "pitch": 72, "duration": 4, "velocity": 60}, {"time": 5453, "pitch": 74, "duration": 3, "velocity": 67}, {"time": 5456, "pitch": 48, "duration": 10, "velocity": 76}, {"time": 5456, "pitch": 76, "duration": 21, "velocity": 69}, {"time": 5462, "pitch": 55, "duration": 6, "velocity": 55}, {"time": 5468, "pitch": 60, "duration": 7, "velocity": 53}, {"time": 5474, "pitch": 62, "duration": 17, "velocity": 70}, {"time": 5480, "pitch": 65, "duration": 7, "velocity": 46}, {"time": 5486, "pitch": 72, "duration": 4, "velocity": 60}, {"time": 5492, "pitch": 74, "duration": 6, "velocity": 51}, {"time": 5498, "pitch": 76, "duration": 9, "velocity": 62}, {"time": 5504, "pitch": 69, "duration": 8, "velocity": 50}, {"time": 5504, "pitch": 74, "duration": 9, "velocity": 62}, {"time": 5507, "pitch": 57, "duration": 37, "velocity": 67}, {"time": 5513, "pitch": 64, "duration": 13, "velocity": 59}, {"time": 5522, "pitch": 72, "duration": 4, "velocity": 76}, {"time": 5522, "pitch": 76, "duration": 10, "velocity": 58}, {"time": 5534, "pitch": 72, "duration": 8, "velocity": 82}, {"time": 5534, "pitch": 77, "duration": 8, "velocity": 78}, {"time": 5540, "pitch": 64, "duration": 3, "velocity": 73}, {"time": 5546, "pitch": 76, "duration": 5, "velocity": 76}, {"time": 5552, "pitch": 52, "duration": 38, "velocity": 73}, {"time": 5552, "pitch": 67, "duration": 11, "velocity": 59}, {"time": 5552, "pitch": 74, "duration": 13, "velocity": 69}, {"time": 5561, "pitch": 59, "duration": 20, "velocity": 24}, {"time": 5564, "pitch": 62, "duration": 19, "velocity": 63}, {"time": 5570, "pitch": 64, "duration": 13, "velocity": 85}, {"time": 5582, "pitch": 71, "duration": 9, "velocity": 75}, {"time": 5588, "pitch": 59, "duration": 2, "velocity": 67}, {"time": 5594, "pitch": 67, "duration": 4, "velocity": 45}, {"time": 5600, "pitch": 53, "duration": 38, "velocity": 57}, {"time": 5600, "pitch": 60, "duration": 7, "velocity": 48}, {"time": 5600, "pitch": 65, "duration": 8, "velocity": 60}, {"time": 5600, "pitch": 69, "duration": 8, "velocity": 67}, {"time": 5606, "pitch": 57, "duration": 24, "velocity": 62}, {"time": 5612, "pitch": 60, "duration": 5, "velocity": 61}, {"time": 5618, "pitch": 65, "duration": 10, "velocity": 80}, {"time": 5630, "pitch": 60, "duration": 6, "velocity": 67}, {"time": 5630, "pitch": 65, "duration": 2, "velocity": 51}, {"time": 5630, "pitch": 69, "duration": 8, "velocity": 75}, {"time": 5636, "pitch": 57, "duration": 2, "velocity": 73}, {"time": 5642, "pitch": 60, "duration": 3, "velocity": 49}, {"time": 5648, "pitch": 43, "duration": 41, "velocity": 67}, {"time": 5648, "pitch": 60, "duration": 10, "velocity": 70}, {"time": 5648, "pitch": 65, "duration": 13, "velocity": 70}, {"time": 5648, "pitch": 69, "duration": 11, "velocity": 69}, {"time": 5654, "pitch": 50, "duration": 36, "velocity": 63}, {"time": 5660, "pitch": 55, "duration": 9, "velocity": 63}, {"time": 5666, "pitch": 60, "duration": 3, "velocity": 73}, {"time": 5666, "pitch": 69, "duration": 5, "velocity": 70}, {"time": 5672, "pitch": 62, "duration": 3, "velocity": 80}, {"time": 5672, "pitch": 71, "duration": 4, "velocity": 70}, {"time": 5678, "pitch": 55, "duration": 6, "velocity": 48}, {"time": 5684, "pitch": 64, "duration": 2, "velocity": 70}, {"time": 5684, "pitch": 72, "duration": 2, "velocity": 75}, {"time": 5690, "pitch": 55, "duration": 6, "velocity": 50}, {"time": 5690, "pitch": 65, "duration": 3, "velocity": 57}, {"time": 5690, "pitch": 74, "duration": 3, "velocity": 63}, {"time": 5696, "pitch": 48, "duration": 9, "velocity": 67}, {"time": 5696, "pitch": 67, "duration": 11, "velocity": 59}, {"time": 5696, "pitch": 76, "duration": 11, "velocity": 72}, {"time": 5702, "pitch": 55, "duration": 6, "velocity": 55}, {"time": 5708, "pitch": 60, "duration": 7, "velocity": 51}, {"time": 5714, "pitch": 62, "duration": 15, "velocity": 58}, {"time": 5714, "pitch": 69, "duration": 7, "velocity": 64}, {"time": 5714, "pitch": 77, "duration": 8, "velocity": 78}, {"time": 5720, "pitch": 64, "duration": 9, "velocity": 54}, {"time": 5726, "pitch": 69, "duration": 3, "velocity": 62}, {"time": 5726, "pitch": 76, "duration": 8, "velocity": 69}, {"time": 5738, "pitch": 74, "duration": 6, "velocity": 59}, {"time": 5744, "pitch": 48, "duration": 28, "velocity": 66}, {"time": 5744, "pitch": 67, "duration": 26, "velocity": 49}, {"time": 5744, "pitch": 72, "duration": 26, "velocity": 45}, {"time": 5744, "pitch": 86, "duration": 9, "velocity": 61}, {"time": 5747, "pitch": 60, "duration": 38, "velocity": 73}, {"time": 5756, "pitch": 67, "duration": 14, "velocity": 52}, {"time": 5756, "pitch": 84, "duration": 5, "velocity": 48}, {"time": 5762, "pitch": 91, "duration": 8, "velocity": 64}, {"time": 5768, "pitch": 72, "duration": 2, "velocity": 57}, {"time": 5774, "pitch": 79, "duration": 4, "velocity": 50}, {"time": 5780, "pitch": 84, "duration": 5, "velocity": 46}, {"time": 5786, "pitch": 88, "duration": 5, "velocity": 56}, {"time": 5792, "pitch": 59, "duration": 14, "velocity": 37}, {"time": 5792, "pitch": 86, "duration": 11, "velocity": 67}, {"time": 5798, "pitch": 67, "duration": 14, "velocity": 34}, {"time": 5804, "pitch": 79, "duration": 8, "velocity": 40}, {"time": 5810, "pitch": 91, "duration": 15, "velocity": 59}, {"time": 5843, "pitch": 57, "duration": 37, "velocity": 55}, {"time": 5843, "pitch": 84, "duration": 6, "velocity": 61}, {"time": 5849, "pitch": 64, "duration": 20, "velocity": 53}, {"time": 5852, "pitch": 79, "duration": 7, "velocity": 45}, {"time": 5858, "pitch": 69, "duration": 17, "velocity": 59}, {"time": 5858, "pitch": 91, "duration": 12, "velocity": 59}, {"time": 5870, "pitch": 79, "duration": 6, "velocity": 46}, {"time": 5876, "pitch": 64, "duration": 3, "velocity": 46}, {"time": 5876, "pitch": 84, "duration": 6, "velocity": 58}, {"time": 5888, "pitch": 57, "duration": 13, "velocity": 44}, {"time": 5888, "pitch": 86, "duration": 12, "velocity": 53}, {"time": 5903, "pitch": 84, "duration": 5, "velocity": 16}, {"time": 5909, "pitch": 79, "duration": 6, "velocity": 49}, {"time": 5915, "pitch": 53, "duration": 15, "velocity": 60}, {"time": 5915, "pitch": 77, "duration": 6, "velocity": 60}, {"time": 5921, "pitch": 76, "duration": 7, "velocity": 49}, {"time": 5930, "pitch": 55, "duration": 10, "velocity": 57}, {"time": 5930, "pitch": 72, "duration": 3, "velocity": 58}, {"time": 5939, "pitch": 65, "duration": 2, "velocity": 82}, {"time": 5954, "pitch": 60, "duration": 10, "velocity": 44}, {"time": 5957, "pitch": 43, "duration": 15, "velocity": 70}, {"time": 5957, "pitch": 65, "duration": 13, "velocity": 57}, {"time": 5957, "pitch": 69, "duration": 12, "velocity": 69}, {"time": 5960, "pitch": 72, "duration": 10, "velocity": 58}, {"time": 5966, "pitch": 50, "duration": 6, "velocity": 54}, {"time": 5972, "pitch": 55, "duration": 3, "velocity": 78}, {"time": 5975, "pitch": 60, "duration": 3, "velocity": 78}, {"time": 5978, "pitch": 65, "duration": 4, "velocity": 54}, {"time": 5984, "pitch": 67, "duration": 2, "velocity": 60}, {"time": 5987, "pitch": 69, "duration": 6, "velocity": 67}, {"time": 5993, "pitch": 72, "duration": 6, "velocity": 60}, {"time": 5996, "pitch": 74, "duration": 4, "velocity": 69}, {"time": 6002, "pitch": 76, "duration": 6, "velocity": 73}, {"time": 6008, "pitch": 77, "duration": 7, "velocity": 49}, {"time": 6014, "pitch": 79, "duration": 2, "velocity": 48}, {"time": 6020, "pitch": 84, "duration": 3, "velocity": 73}, {"time": 6029, "pitch": 89, "duration": 4, "velocity": 61}, {"time": 6038, "pitch": 88, "duration": 3, "velocity": 53}, {"time": 6044, "pitch": 84, "duration": 2, "velocity": 57}, {"time": 6053, "pitch": 91, "duration": 2, "velocity": 37}, {"time": 6062, "pitch": 89, "duration": 3, "velocity": 60}, {"time": 6074, "pitch": 93, "duration": 3, "velocity": 47}, {"time": 6095, "pitch": 88, "duration": 6, "velocity": 37}, {"time": 6098, "pitch": 96, "duration": 6, "velocity": 54}], "annotations": [{"time": 228, "annotation": {"number": 64, "value": 127}, "group": "control_change"}, {"time": 316, "annotation": {"number": 64, "value": 0}, "group": "control_change"}, {"time": 324, "annotation": {"number": 64, "value": 127}, "group": "control_change"}, {"time": 414, "annotation": {"number": 64, "value": 0}, "group": "control_change"}, {"time": 420, "annotation": {"number": 64, "value": 127}, "group": "control_change"}, {"time": 510, "annotation": {"number": 64, "value": 0}, "group": "control_change"}, {"time": 515, "annotation": {"number": 64, "value": 127}, "group": "control_change"}, {"time": 609, "annotation": {"number": 64, "value": 127}, "group": "control_change"}, {"time": 609, "annotation": {"number": 64, "value": 0}, "group": "control_change"}, {"time": 656, "annotation": {"number": 64, "value": 0}, "group": "control_change"}, {"time": 668, "annotation": {"number": 64, "value": 127}, "group": "control_change"}, {"time": 704, "annotation": {"number": 64, "value": 0}, "group": "control_change"}, {"time": 711, "annotation": {"number": 64, "value": 127}, "group": "control_change"}, {"time": 754, "annotation": {"number": 64, "value": 0}, "group": "control_change"}, {"time": 756, "annotation": {"number": 64, "value": 127}, "group": "control_change"}, {"time": 800, "annotation": {"number": 64, "value": 0}, "group": "control_change"}, {"time": 804, "annotation": {"number": 64, "value": 127}, "group": "control_change"}, {"time": 848, "annotation": {"number": 64, "value": 0}, "group": "control_change"}, {"time": 851, "annotation": {"number": 64, "value": 127}, "group": "control_change"}, {"time": 897, "annotation": {"number": 64, "value": 0}, "group": "control_change"}, {"time": 901, "annotation": {"number": 64, "value": 127}, "group": "control_change"}, {"time": 943, "annotation": {"number": 64, "value": 0}, "group": "control_change"}, {"time": 947, "annotation": {"number": 64, "value": 127}, "group": "control_change"}, {"time": 991, "annotation": {"number": 64, "value": 0}, "group": "control_change"}, {"time": 996, "annotation": {"number": 64, "value": 127}, "group": "control_change"}, {"time": 1040, "annotation": {"number": 64, "value": 0}, "group": "control_change"}, {"time": 1044, "annotation": {"number": 64, "value": 127}, "group": "control_change"}, {"time": 1090, "annotation": {"number": 64, "value": 0}, "group": "control_change"}, {"time": 1094, "annotation": {"number": 64, "value": 127}, "group": "control_change"}, {"time": 1136, "annotation": {"number": 64, "value": 0}, "group": "control_change"}, {"time": 1141, "annotation": {"number": 64, "value": 127}, "group": "control_change"}, {"time": 1185, "annotation": {"number": 64, "value": 0}, "group": "control_change"}, {"time": 1188, "annotation": {"number": 64, "value": 127}, "group": "control_change"}, {"time": 1232, "annotation": {"number": 64, "value": 0}, "group": "control_change"}, {"time": 1235, "annotation": {"number": 64, "value": 127}, "group": "control_change"}, {"time": 1281, "annotation": {"number": 64, "value": 0}, "group": "control_change"}, {"time": 1285, "annotation": {"number": 64, "value": 127}, "group": "control_change"}, {"time": 1328, "annotation": {"number": 64, "value": 0}, "group": "control_change"}, {"time": 1330, "annotation": {"number": 64, "value": 127}, "group": "control_change"}, {"time": 1376, "annotation": {"number": 64, "value": 0}, "group": "control_change"}, {"time": 1380, "annotation": {"number": 64, "value": 127}, "group": "control_change"}, {"time": 1425, "annotation": {"number": 64, "value": 0}, "group": "control_change"}, {"time": 1429, "annotation": {"number": 64, "value": 127}, "group": "control_change"}, {"time": 1473, "annotation": {"number": 64, "value": 0}, "group": "control_change"}, {"time": 1476, "annotation": {"number": 64, "value": 127}, "group": "control_change"}, {"time": 1498, "annotation": {"number": 64, "value": 0}, "group": "control_change"}, {"time": 1501, "annotation": {"number": 64, "value": 127}, "group": "control_change"}, {"time": 1521, "annotation": {"number": 64, "value": 0}, "group": "control_change"}, {"time": 1524, "annotation": {"number": 64, "value": 127}, "group": "control_change"}, {"time": 1545, "annotation": {"number": 64, "value": 0}, "group": "control_change"}, {"time": 1548, "annotation": {"number": 64, "value": 127}, "group": "control_change"}, {"time": 1568, "annotation": {"number": 64, "value": 0}, "group": "control_change"}, {"time": 1571, "annotation": {"number": 64, "value": 127}, "group": "control_change"}, {"time": 1615, "annotation": {"number": 64, "value": 0}, "group": "control_change"}, {"time": 1618, "annotation": {"number": 64, "value": 127}, "group": "control_change"}, {"time": 1666, "annotation": {"number": 64, "value": 0}, "group": "control_change"}, {"time": 1669, "annotation": {"number": 64, "value": 127}, "group": "control_change"}, {"time": 1711, "annotation": {"number": 64, "value": 0}, "group": "control_change"}, {"time": 1714, "annotation": {"number": 64, "value": 127}, "group": "control_change"}, {"time": 1761, "annotation": {"number": 64, "value": 0}, "group": "control_change"}, {"time": 1764, "annotation": {"number": 64, "value": 127}, "group": "control_change"}, {"time": 1856, "annotation": {"number": 64, "value": 0}, "group": "control_change"}, {"time": 1856, "annotation": {"number": 64, "value": 127}, "group": "control_change"}, {"time": 1906, "annotation": {"number": 64, "value": 0}, "group": "control_change"}, {"time": 1911, "annotation": {"number": 64, "value": 127}, "group": "control_change"}, {"time": 1954, "annotation": {"number": 64, "value": 0}, "group": "control_change"}, {"time": 1959, "annotation": {"number": 64, "value": 127}, "group": "control_change"}, {"time": 1980, "annotation": {"number": 64, "value": 0}, "group": "control_change"}, {"time": 1984, "annotation": {"number": 64, "value": 127}, "group": "control_change"}, {"time": 1999, "annotation": {"number": 64, "value": 0}, "group": "control_change"}, {"time": 2003, "annotation": {"number": 64, "value": 127}, "group": "control_change"}, {"time": 2050, "annotation": {"number": 64, "value": 0}, "group": "control_change"}, {"time": 2054, "annotation": {"number": 64, "value": 127}, "group": "control_change"}, {"time": 2097, "annotation": {"number": 64, "value": 0}, "group": "control_change"}, {"time": 2102, "annotation": {"number": 64, "value": 127}, "group": "control_change"}, {"time": 2143, "annotation": {"number": 64, "value": 0}, "group": "control_change"}, {"time": 2144, "annotation": {"number": 64, "value": 127}, "group": "control_change"}, {"time": 2192, "annotation": {"number": 64, "value": 0}, "group": "control_change"}, {"time": 2194, "annotation": {"number": 64, "value": 127}, "group": "control_change"}, {"time": 2240, "annotation": {"number": 64, "value": 0}, "group": "control_change"}, {"time": 2245, "annotation": {"number": 64, "value": 127}, "group": "control_change"}, {"time": 2289, "annotation": {"number": 64, "value": 0}, "group": "control_change"}, {"time": 2293, "annotation": {"number": 64, "value": 127}, "group": "control_change"}, {"time": 2340, "annotation": {"number": 64, "value": 0}, "group": "control_change"}, {"time": 2344, "annotation": {"number": 64, "value": 127}, "group": "control_change"}, {"time": 2362, "annotation": {"number": 64, "value": 0}, "group": "control_change"}, {"time": 2367, "annotation": {"number": 64, "value": 127}, "group": "control_change"}, {"time": 2387, "annotation": {"number": 64, "value": 0}, "group": "control_change"}, {"time": 2391, "annotation": {"number": 64, "value": 127}, "group": "control_change"}, {"time": 2432, "annotation": {"number": 64, "value": 0}, "group": "control_change"}, {"time": 2436, "annotation": {"number": 64, "value": 127}, "group": "control_change"}, {"time": 2483, "annotation": {"number": 64, "value": 0}, "group": "control_change"}, {"time": 2487, "annotation": {"number": 64, "value": 127}, "group": "control_change"}, {"time": 2529, "annotation": {"number": 64, "value": 0}, "group": "control_change"}, {"time": 2534, "annotation": {"number": 64, "value": 127}, "group": "control_change"}, {"time": 2576, "annotation": {"number": 64, "value": 0}, "group": "control_change"}, {"time": 2580, "annotation": {"number": 64, "value": 127}, "group": "control_change"}, {"time": 2626, "annotation": {"number": 64, "value": 0}, "group": "control_change"}, {"time": 2629, "annotation": {"number": 64, "value": 127}, "group": "control_change"}, {"time": 2672, "annotation": {"number": 64, "value": 127}, "group": "control_change"}, {"time": 2672, "annotation": {"number": 64, "value": 0}, "group": "control_change"}, {"time": 2722, "annotation": {"number": 64, "value": 0}, "group": "control_change"}, {"time": 2726, "annotation": {"number": 64, "value": 127}, "group": "control_change"}, {"time": 2766, "annotation": {"number": 64, "value": 0}, "group": "control_change"}, {"time": 2769, "annotation": {"number": 64, "value": 127}, "group": "control_change"}, {"time": 2812, "annotation": {"number": 64, "value": 0}, "group": "control_change"}, {"time": 2817, "annotation": {"number": 64, "value": 127}, "group": "control_change"}, {"time": 2864, "annotation": {"number": 64, "value": 0}, "group": "control_change"}, {"time": 2876, "annotation": {"number": 64, "value": 127}, "group": "control_change"}, {"time": 2912, "annotation": {"number": 64, "value": 0}, "group": "control_change"}, {"time": 2919, "annotation": {"number": 64, "value": 127}, "group": "control_change"}, {"time": 2962, "annotation": {"number": 64, "value": 0}, "group": "control_change"}, {"time": 2964, "annotation": {"number": 64, "value": 127}, "group": "control_change"}, {"time": 3008, "annotation": {"number": 64, "value": 0}, "group": "control_change"}, {"time": 3012, "annotation": {"number": 64, "value": 127}, "group": "control_change"}, {"time": 3056, "annotation": {"number": 64, "value": 0}, "group": "control_change"}, {"time": 3059, "annotation": {"number": 64, "value": 127}, "group": "control_change"}, {"time": 3105, "annotation": {"number": 64, "value": 0}, "group": "control_change"}, {"time": 3109, "annotation": {"number": 64, "value": 127}, "group": "control_change"}, {"time": 3151, "annotation": {"number": 64, "value": 0}, "group": "control_change"}, {"time": 3155, "annotation": {"number": 64, "value": 127}, "group": "control_change"}, {"time": 3199, "annotation": {"number": 64, "value": 0}, "group": "control_change"}, {"time": 3204, "annotation": {"number": 64, "value": 127}, "group": "control_change"}, {"time": 3248, "annotation": {"number": 64, "value": 0}, "group": "control_change"}, {"time": 3252, "annotation": {"number": 64, "value": 127}, "group": "control_change"}, {"time": 3298, "annotation": {"number": 64, "value": 0}, "group": "control_change"}, {"time": 3302, "annotation": {"number": 64, "value": 127}, "group": "control_change"}, {"time": 3344, "annotation": {"number": 64, "value": 0}, "group": "control_change"}, {"time": 3349, "annotation": {"number": 64, "value": 127}, "group": "control_change"}, {"time": 3393, "annotation": {"number": 64, "value": 0}, "group": "control_change"}, {"time": 3396, "annotation": {"number": 64, "value": 127}, "group": "control_change"}, {"time": 3440, "annotation": {"number": 64, "value": 0}, "group": "control_change"}, {"time": 3443, "annotation": {"number": 64, "value": 127}, "group": "control_change"}, {"time": 3489, "annotation": {"number": 64, "value": 0}, "group": "control_change"}, {"time": 3493, "annotation": {"number": 64, "value": 127}, "group": "control_change"}, {"time": 3536, "annotation": {"number": 64, "value": 0}, "group": "control_change"}, {"time": 3538, "annotation": {"number": 64, "value": 127}, "group": "control_change"}, {"time": 3584, "annotation": {"number": 64, "value": 0}, "group": "control_change"}, {"time": 3588, "annotation": {"number": 64, "value": 127}, "group": "control_change"}, {"time": 3633, "annotation": {"number": 64, "value": 0}, "group": "control_change"}, {"time": 3637, "annotation": {"number": 64, "value": 127}, "group": "control_change"}, {"time": 3681, "annotation": {"number": 64, "value": 0}, "group": "control_change"}, {"time": 3684, "annotation": {"number": 64, "value": 127}, "group": "control_change"}, {"time": 3706, "annotation": {"number": 64, "value": 0}, "group": "control_change"}, {"time": 3709, "annotation": {"number": 64, "value": 127}, "group": "control_change"}, {"time": 3729, "annotation": {"number": 64, "value": 0}, "group": "control_change"}, {"time": 3732, "annotation": {"number": 64, "value": 127}, "group": "control_change"}, {"time": 3753, "annotation": {"number": 64, "value": 0}, "group": "control_change"}, {"time": 3756, "annotation": {"number": 64, "value": 127}, "group": "control_change"}, {"time": 3776, "annotation": {"number": 64, "value": 0}, "group": "control_change"}, {"time": 3779, "annotation": {"number": 64, "value": 127}, "group": "control_change"}, {"time": 3823, "annotation": {"number": 64, "value": 0}, "group": "control_change"}, {"time": 3826, "annotation": {"number": 64, "value": 127}, "group": "control_change"}, {"time": 3874, "annotation": {"number": 64, "value": 0}, "group": "control_change"}, {"time": 3877, "annotation": {"number": 64, "value": 127}, "group": "control_change"}, {"time": 3919, "annotation": {"number": 64, "value": 0}, "group": "control_change"}, {"time": 3922, "annotation": {"number": 64, "value": 127}, "group": "control_change"}, {"time": 3969, "annotation": {"number": 64, "value": 0}, "group": "control_change"}, {"time": 3972, "annotation": {"number": 64, "value": 127}, "group": "control_change"}, {"time": 4064, "annotation": {"number": 64, "value": 0}, "group": "control_change"}, {"time": 4064, "annotation": {"number": 64, "value": 127}, "group": "control_change"}, {"time": 4114, "annotation": {"number": 64, "value": 0}, "group": "control_change"}, {"time": 4119, "annotation": {"number": 64, "value": 127}, "group": "control_change"}, {"time": 4162, "annotation": {"number": 64, "value": 0}, "group": "control_change"}, {"time": 4167, "annotation": {"number": 64, "value": 127}, "group": "control_change"}, {"time": 4188, "annotation": {"number": 64, "value": 0}, "group": "control_change"}, {"time": 4192, "annotation": {"number": 64, "value": 127}, "group": "control_change"}, {"time": 4207, "annotation": {"number": 64, "value": 0}, "group": "control_change"}, {"time": 4211, "annotation": {"number": 64, "value": 127}, "group": "control_change"}, {"time": 4258, "annotation": {"number": 64, "value": 0}, "group": "control_change"}, {"time": 4262, "annotation": {"number": 64, "value": 127}, "group": "control_change"}, {"time": 4305, "annotation": {"number": 64, "value": 0}, "group": "control_change"}, {"time": 4310, "annotation": {"number": 64, "value": 127}, "group": "control_change"}, {"time": 4351, "annotation": {"number": 64, "value": 0}, "group": "control_change"}, {"time": 4352, "annotation": {"number": 64, "value": 127}, "group": "control_change"}, {"time": 4400, "annotation": {"number": 64, "value": 0}, "group": "control_change"}, {"time": 4402, "annotation": {"number": 64, "value": 127}, "group": "control_change"}, {"time": 4448, "annotation": {"number": 64, "value": 0}, "group": "control_change"}, {"time": 4453, "annotation": {"number": 64, "value": 127}, "group": "control_change"}, {"time": 4497, "annotation": {"number": 64, "value": 0}, "group": "control_change"}, {"time": 4501, "annotation": {"number": 64, "value": 127}, "group": "control_change"}, {"time": 4548, "annotation": {"number": 64, "value": 0}, "group": "control_change"}, {"time": 4552, "annotation": {"number": 64, "value": 127}, "group": "control_change"}, {"time": 4570, "annotation": {"number": 64, "value": 0}, "group": "control_change"}, {"time": 4575, "annotation": {"number": 64, "value": 127}, "group": "control_change"}, {"time": 4595, "annotation": {"number": 64, "value": 0}, "group": "control_change"}, {"time": 4599, "annotation": {"number": 64, "value": 127}, "group": "control_change"}, {"time": 4640, "annotation": {"number": 64, "value": 0}, "group": "control_change"}, {"time": 4644, "annotation": {"number": 64, "value": 127}, "group": "control_change"}, {"time": 4691, "annotation": {"number": 64, "value": 0}, "group": "control_change"}, {"time": 4695, "annotation": {"number": 64, "value": 127}, "group": "control_change"}, {"time": 4737, "annotation": {"number": 64, "value": 0}, "group": "control_change"}, {"time": 4742, "annotation": {"number": 64, "value": 127}, "group": "control_change"}, {"time": 4784, "annotation": {"number": 64, "value": 0}, "group": "control_change"}, {"time": 4788, "annotation": {"number": 64, "value": 127}, "group": "control_change"}, {"time": 4832, "annotation": {"number": 64, "value": 0}, "group": "control_change"}, {"time": 4836, "annotation": {"number": 64, "value": 127}, "group": "control_change"}, {"time": 4880, "annotation": {"number": 64, "value": 0}, "group": "control_change"}, {"time": 4887, "annotation": {"number": 64, "value": 127}, "group": "control_change"}, {"time": 4902, "annotation": {"number": 64, "value": 0}, "group": "control_change"}, {"time": 4908, "annotation": {"number": 64, "value": 127}, "group": "control_change"}, {"time": 4928, "annotation": {"number": 64, "value": 0}, "group": "control_change"}, {"time": 4931, "annotation": {"number": 64, "value": 127}, "group": "control_change"}, {"time": 4949, "annotation": {"number": 64, "value": 0}, "group": "control_change"}, {"time": 4957, "annotation": {"number": 64, "value": 127}, "group": "control_change"}, {"time": 4973, "annotation": {"number": 64, "value": 0}, "group": "control_change"}, {"time": 4980, "annotation": {"number": 64, "value": 127}, "group": "control_change"}, {"time": 4996, "annotation": {"number": 64, "value": 0}, "group": "control_change"}, {"time": 5004, "annotation": {"number": 64, "value": 127}, "group": "control_change"}, {"time": 5022, "annotation": {"number": 64, "value": 0}, "group": "control_change"}, {"time": 5028, "annotation": {"number": 64, "value": 127}, "group": "control_change"}, {"time": 5070, "annotation": {"number": 64, "value": 0}, "group": "control_change"}, {"time": 5077, "annotation": {"number": 64, "value": 127}, "group": "control_change"}, {"time": 5112, "annotation": {"number": 64, "value": 0}, "group": "control_change"}, {"time": 5123, "annotation": {"number": 64, "value": 127}, "group": "control_change"}, {"time": 5168, "annotation": {"number": 64, "value": 0}, "group": "control_change"}, {"time": 5174, "annotation": {"number": 64, "value": 127}, "group": "control_change"}, {"time": 5225, "annotation": {"number": 64, "value": 0}, "group": "control_change"}, {"time": 5235, "annotation": {"number": 64, "value": 127}, "group": "control_change"}, {"time": 5264, "annotation": {"number": 64, "value": 0}, "group": "control_change"}, {"time": 5271, "annotation": {"number": 64, "value": 127}, "group": "control_change"}, {"time": 5310, "annotation": {"number": 64, "value": 0}, "group": "control_change"}, {"time": 5318, "annotation": {"number": 64, "value": 127}, "group": "control_change"}, {"time": 5359, "annotation": {"number": 64, "value": 0}, "group": "control_change"}, {"time": 5364, "annotation": {"number": 64, "value": 127}, "group": "control_change"}, {"time": 5408, "annotation": {"number": 64, "value": 0}, "group": "control_change"}, {"time": 5410, "annotation": {"number": 64, "value": 127}, "group": "control_change"}, {"time": 5435, "annotation": {"number": 64, "value": 0}, "group": "control_change"}, {"time": 5443, "annotation": {"number": 64, "value": 127}, "group": "control_change"}, {"time": 5456, "annotation": {"number": 64, "value": 0}, "group": "control_change"}, {"time": 5465, "annotation": {"number": 64, "value": 127}, "group": "control_change"}, {"time": 5505, "annotation": {"number": 64, "value": 0}, "group": "control_change"}, {"time": 5513, "annotation": {"number": 64, "value": 127}, "group": "control_change"}, {"time": 5553, "annotation": {"number": 64, "value": 0}, "group": "control_change"}, {"time": 5561, "annotation": {"number": 64, "value": 127}, "group": "control_change"}, {"time": 5598, "annotation": {"number": 64, "value": 0}, "group": "control_change"}, {"time": 5608, "annotation": {"number": 64, "value": 127}, "group": "control_change"}, {"time": 5625, "annotation": {"number": 64, "value": 0}, "group": "control_change"}, {"time": 5657, "annotation": {"number": 64, "value": 127}, "group": "control_change"}, {"time": 5697, "annotation": {"number": 64, "value": 0}, "group": "control_change"}, {"time": 5705, "annotation": {"number": 64, "value": 127}, "group": "control_change"}, {"time": 5742, "annotation": {"number": 64, "value": 0}, "group": "control_change"}, {"time": 5749, "annotation": {"number": 64, "value": 127}, "group": "control_change"}, {"time": 5750, "annotation": {"number": 64, "value": 127}, "group": "control_change"}, {"time": 5774, "annotation": {"number": 64, "value": 0}, "group": "control_change"}, {"time": 5793, "annotation": {"number": 64, "value": 0}, "group": "control_change"}, {"time": 5801, "annotation": {"number": 64, "value": 127}, "group": "control_change"}, {"time": 5844, "annotation": {"number": 64, "value": 0}, "group": "control_change"}, {"time": 5850, "annotation": {"number": 64, "value": 127}, "group": "control_change"}, {"time": 5958, "annotation": {"number": 64, "value": 0}, "group": "control_change"}, {"time": 5964, "annotation": {"number": 64, "value": 127}, "group": "control_change"}, {"time": 6128, "annotation": {"number": 64, "value": 0}, "group": "control_change"}]}]}