{"metadata": {"schema_version": "0.2", "title": "None", "source_filename": "217.mid", "source_format": "midi"}, "resolution": 12, "tempos": [{"time": 0, "qpm": 80.0}], "key_signatures": [{"time": 0, "root": 0, "mode": "major"}], "time_signatures": [{"time": 0, "numerator": 4, "denominator": 4}], "tracks": [{"program": 0, "is_drum": false, "name": "MELODY", "notes": [{"time": 378, "pitch": 69, "duration": 6, "velocity": 86}, {"time": 384, "pitch": 71, "duration": 6, "velocity": 86}, {"time": 390, "pitch": 72, "duration": 18, "velocity": 95}, {"time": 408, "pitch": 72, "duration": 6, "velocity": 96}, {"time": 414, "pitch": 72, "duration": 6, "velocity": 91}, {"time": 420, "pitch": 71, "duration": 6, "velocity": 81}, {"time": 426, "pitch": 69, "duration": 6, "velocity": 65}, {"time": 432, "pitch": 72, "duration": 7, "velocity": 87}, {"time": 438, "pitch": 71, "duration": 18, "velocity": 96}, {"time": 456, "pitch": 67, "duration": 6, "velocity": 90}, {"time": 462, "pitch": 67, "duration": 12, "velocity": 97}, {"time": 474, "pitch": 69, "duration": 6, "velocity": 105}, {"time": 480, "pitch": 71, "duration": 6, "velocity": 90}, {"time": 486, "pitch": 72, "duration": 12, "velocity": 98}, {"time": 498, "pitch": 72, "duration": 6, "velocity": 97}, {"time": 504, "pitch": 72, "duration": 6, "velocity": 92}, {"time": 510, "pitch": 72, "duration": 6, "velocity": 92}, {"time": 516, "pitch": 72, "duration": 6, "velocity": 91}, {"time": 522, "pitch": 72, "duration": 6, "velocity": 96}, {"time": 528, "pitch": 72, "duration": 6, "velocity": 90}, {"time": 534, "pitch": 76, "duration": 6, "velocity": 97}, {"time": 540, "pitch": 76, "duration": 6, "velocity": 93}, {"time": 546, "pitch": 76, "duration": 12, "velocity": 101}, {"time": 558, "pitch": 74, "duration": 13, "velocity": 89}, {"time": 570, "pitch": 69, "duration": 6, "velocity": 95}, {"time": 576, "pitch": 71, "duration": 6, "velocity": 92}, {"time": 582, "pitch": 72, "duration": 18, "velocity": 97}, {"time": 600, "pitch": 72, "duration": 6, "velocity": 100}, {"time": 606, "pitch": 72, "duration": 6, "velocity": 97}, {"time": 612, "pitch": 71, "duration": 6, "velocity": 93}, {"time": 618, "pitch": 69, "duration": 6, "velocity": 86}, {"time": 624, "pitch": 72, "duration": 7, "velocity": 96}, {"time": 630, "pitch": 71, "duration": 18, "velocity": 99}, {"time": 648, "pitch": 67, "duration": 6, "velocity": 93}, {"time": 654, "pitch": 67, "duration": 12, "velocity": 97}, {"time": 666, "pitch": 69, "duration": 6, "velocity": 101}, {"time": 672, "pitch": 71, "duration": 6, "velocity": 92}, {"time": 678, "pitch": 72, "duration": 18, "velocity": 95}, {"time": 696, "pitch": 69, "duration": 6, "velocity": 93}, {"time": 702, "pitch": 76, "duration": 6, "velocity": 90}, {"time": 708, "pitch": 74, "duration": 6, "velocity": 95}, {"time": 714, "pitch": 72, "duration": 6, "velocity": 97}, {"time": 720, "pitch": 74, "duration": 6, "velocity": 94}, {"time": 726, "pitch": 71, "duration": 19, "velocity": 100}, {"time": 744, "pitch": 69, "duration": 20, "velocity": 95}, {"time": 762, "pitch": 69, "duration": 2, "velocity": 97}, {"time": 768, "pitch": 71, "duration": 6, "velocity": 91}, {"time": 774, "pitch": 72, "duration": 24, "velocity": 93}, {"time": 798, "pitch": 72, "duration": 6, "velocity": 106}, {"time": 804, "pitch": 71, "duration": 6, "velocity": 93}, {"time": 810, "pitch": 69, "duration": 6, "velocity": 90}, {"time": 816, "pitch": 72, "duration": 6, "velocity": 97}, {"time": 822, "pitch": 71, "duration": 12, "velocity": 98}, {"time": 834, "pitch": 71, "duration": 6, "velocity": 98}, {"time": 840, "pitch": 67, "duration": 6, "velocity": 87}, {"time": 846, "pitch": 67, "duration": 12, "velocity": 92}, {"time": 858, "pitch": 69, "duration": 6, "velocity": 103}, {"time": 864, "pitch": 71, "duration": 6, "velocity": 98}, {"time": 870, "pitch": 72, "duration": 12, "velocity": 98}, {"time": 882, "pitch": 72, "duration": 6, "velocity": 105}, {"time": 888, "pitch": 72, "duration": 6, "velocity": 100}, {"time": 894, "pitch": 72, "duration": 6, "velocity": 97}, {"time": 900, "pitch": 72, "duration": 6, "velocity": 101}, {"time": 906, "pitch": 72, "duration": 6, "velocity": 98}, {"time": 912, "pitch": 72, "duration": 6, "velocity": 97}, {"time": 918, "pitch": 76, "duration": 6, "velocity": 100}, {"time": 924, "pitch": 76, "duration": 6, "velocity": 97}, {"time": 930, "pitch": 76, "duration": 6, "velocity": 103}, {"time": 936, "pitch": 74, "duration": 6, "velocity": 90}, {"time": 942, "pitch": 74, "duration": 12, "velocity": 97}, {"time": 954, "pitch": 69, "duration": 6, "velocity": 106}, {"time": 960, "pitch": 71, "duration": 6, "velocity": 90}, {"time": 966, "pitch": 72, "duration": 18, "velocity": 101}, {"time": 984, "pitch": 72, "duration": 6, "velocity": 100}, {"time": 990, "pitch": 72, "duration": 6, "velocity": 99}, {"time": 996, "pitch": 71, "duration": 6, "velocity": 97}, {"time": 1002, "pitch": 69, "duration": 6, "velocity": 85}, {"time": 1008, "pitch": 72, "duration": 6, "velocity": 93}, {"time": 1014, "pitch": 71, "duration": 18, "velocity": 97}, {"time": 1032, "pitch": 67, "duration": 6, "velocity": 81}, {"time": 1038, "pitch": 67, "duration": 12, "velocity": 97}, {"time": 1050, "pitch": 69, "duration": 6, "velocity": 97}, {"time": 1056, "pitch": 71, "duration": 6, "velocity": 92}, {"time": 1062, "pitch": 72, "duration": 24, "velocity": 96}, {"time": 1086, "pitch": 76, "duration": 6, "velocity": 106}, {"time": 1092, "pitch": 74, "duration": 6, "velocity": 90}, {"time": 1098, "pitch": 72, "duration": 6, "velocity": 95}, {"time": 1104, "pitch": 74, "duration": 6, "velocity": 90}, {"time": 1110, "pitch": 71, "duration": 9, "velocity": 101}, {"time": 1119, "pitch": 69, "duration": 9, "velocity": 87}, {"time": 1128, "pitch": 69, "duration": 30, "velocity": 92}, {"time": 1158, "pitch": 76, "duration": 18, "velocity": 106}, {"time": 1176, "pitch": 76, "duration": 6, "velocity": 108}, {"time": 1182, "pitch": 76, "duration": 12, "velocity": 106}, {"time": 1194, "pitch": 74, "duration": 6, "velocity": 105}, {"time": 1200, "pitch": 72, "duration": 6, "velocity": 91}, {"time": 1206, "pitch": 76, "duration": 12, "velocity": 108}, {"time": 1218, "pitch": 74, "duration": 24, "velocity": 103}, {"time": 1242, "pitch": 74, "duration": 6, "velocity": 109}, {"time": 1248, "pitch": 76, "duration": 6, "velocity": 95}, {"time": 1254, "pitch": 77, "duration": 18, "velocity": 99}, {"time": 1272, "pitch": 77, "duration": 6, "velocity": 109}, {"time": 1278, "pitch": 79, "duration": 12, "velocity": 93}, {"time": 1290, "pitch": 74, "duration": 6, "velocity": 99}, {"time": 1296, "pitch": 77, "duration": 12, "velocity": 105}, {"time": 1308, "pitch": 76, "duration": 36, "velocity": 103}, {"time": 1344, "pitch": 76, "duration": 6, "velocity": 103}, {"time": 1350, "pitch": 77, "duration": 18, "velocity": 103}, {"time": 1368, "pitch": 76, "duration": 6, "velocity": 105}, {"time": 1374, "pitch": 74, "duration": 12, "velocity": 105}, {"time": 1386, "pitch": 74, "duration": 6, "velocity": 109}, {"time": 1392, "pitch": 76, "duration": 6, "velocity": 99}, {"time": 1398, "pitch": 76, "duration": 12, "velocity": 109}, {"time": 1410, "pitch": 74, "duration": 12, "velocity": 106}, {"time": 1422, "pitch": 72, "duration": 12, "velocity": 101}, {"time": 1434, "pitch": 69, "duration": 6, "velocity": 93}, {"time": 1440, "pitch": 71, "duration": 6, "velocity": 93}, {"time": 1446, "pitch": 72, "duration": 6, "velocity": 97}, {"time": 1452, "pitch": 72, "duration": 12, "velocity": 100}, {"time": 1464, "pitch": 72, "duration": 6, "velocity": 109}, {"time": 1470, "pitch": 71, "duration": 6, "velocity": 92}, {"time": 1476, "pitch": 71, "duration": 6, "velocity": 85}, {"time": 1482, "pitch": 72, "duration": 12, "velocity": 95}, {"time": 1494, "pitch": 69, "duration": 43, "velocity": 87}, {"time": 1914, "pitch": 69, "duration": 5, "velocity": 86}, {"time": 1920, "pitch": 71, "duration": 6, "velocity": 86}, {"time": 1926, "pitch": 72, "duration": 12, "velocity": 95}, {"time": 1944, "pitch": 72, "duration": 4, "velocity": 96}, {"time": 1950, "pitch": 72, "duration": 6, "velocity": 91}, {"time": 1956, "pitch": 71, "duration": 6, "velocity": 81}, {"time": 1962, "pitch": 69, "duration": 5, "velocity": 65}, {"time": 1968, "pitch": 72, "duration": 7, "velocity": 87}, {"time": 1974, "pitch": 71, "duration": 10, "velocity": 96}, {"time": 1986, "pitch": 71, "duration": 5, "velocity": 96}, {"time": 1992, "pitch": 67, "duration": 4, "velocity": 90}, {"time": 1998, "pitch": 67, "duration": 9, "velocity": 97}, {"time": 2010, "pitch": 69, "duration": 6, "velocity": 105}, {"time": 2016, "pitch": 71, "duration": 6, "velocity": 90}, {"time": 2022, "pitch": 72, "duration": 10, "velocity": 98}, {"time": 2040, "pitch": 72, "duration": 5, "velocity": 92}, {"time": 2046, "pitch": 72, "duration": 4, "velocity": 92}, {"time": 2052, "pitch": 72, "duration": 4, "velocity": 91}, {"time": 2058, "pitch": 72, "duration": 4, "velocity": 96}, {"time": 2064, "pitch": 72, "duration": 6, "velocity": 90}, {"time": 2070, "pitch": 76, "duration": 4, "velocity": 97}, {"time": 2076, "pitch": 76, "duration": 3, "velocity": 93}, {"time": 2082, "pitch": 76, "duration": 11, "velocity": 101}, {"time": 2094, "pitch": 74, "duration": 11, "velocity": 89}, {"time": 2106, "pitch": 69, "duration": 7, "velocity": 95}, {"time": 2112, "pitch": 71, "duration": 6, "velocity": 92}, {"time": 2118, "pitch": 72, "duration": 14, "velocity": 97}, {"time": 2136, "pitch": 72, "duration": 3, "velocity": 100}, {"time": 2142, "pitch": 72, "duration": 6, "velocity": 97}, {"time": 2148, "pitch": 71, "duration": 5, "velocity": 93}, {"time": 2154, "pitch": 69, "duration": 5, "velocity": 86}, {"time": 2160, "pitch": 72, "duration": 7, "velocity": 96}, {"time": 2166, "pitch": 71, "duration": 5, "velocity": 99}, {"time": 2172, "pitch": 71, "duration": 5, "velocity": 99}, {"time": 2178, "pitch": 71, "duration": 6, "velocity": 99}, {"time": 2184, "pitch": 67, "duration": 5, "velocity": 93}, {"time": 2190, "pitch": 67, "duration": 6, "velocity": 97}, {"time": 2202, "pitch": 69, "duration": 6, "velocity": 101}, {"time": 2208, "pitch": 71, "duration": 6, "velocity": 92}, {"time": 2214, "pitch": 72, "duration": 12, "velocity": 95}, {"time": 2238, "pitch": 76, "duration": 6, "velocity": 90}, {"time": 2244, "pitch": 74, "duration": 6, "velocity": 95}, {"time": 2250, "pitch": 72, "duration": 6, "velocity": 97}, {"time": 2256, "pitch": 74, "duration": 6, "velocity": 94}, {"time": 2262, "pitch": 72, "duration": 11, "velocity": 100}, {"time": 2274, "pitch": 69, "duration": 5, "velocity": 100}, {"time": 2280, "pitch": 69, "duration": 17, "velocity": 95}, {"time": 2298, "pitch": 69, "duration": 5, "velocity": 95}, {"time": 2304, "pitch": 71, "duration": 6, "velocity": 91}, {"time": 2310, "pitch": 72, "duration": 15, "velocity": 93}, {"time": 2334, "pitch": 72, "duration": 6, "velocity": 106}, {"time": 2340, "pitch": 71, "duration": 6, "velocity": 93}, {"time": 2346, "pitch": 69, "duration": 5, "velocity": 90}, {"time": 2352, "pitch": 72, "duration": 6, "velocity": 97}, {"time": 2358, "pitch": 71, "duration": 9, "velocity": 98}, {"time": 2370, "pitch": 71, "duration": 5, "velocity": 98}, {"time": 2376, "pitch": 67, "duration": 4, "velocity": 87}, {"time": 2382, "pitch": 67, "duration": 7, "velocity": 92}, {"time": 2394, "pitch": 69, "duration": 6, "velocity": 103}, {"time": 2400, "pitch": 71, "duration": 6, "velocity": 98}, {"time": 2406, "pitch": 72, "duration": 7, "velocity": 98}, {"time": 2418, "pitch": 72, "duration": 3, "velocity": 105}, {"time": 2424, "pitch": 72, "duration": 4, "velocity": 100}, {"time": 2430, "pitch": 72, "duration": 4, "velocity": 97}, {"time": 2436, "pitch": 72, "duration": 4, "velocity": 101}, {"time": 2442, "pitch": 72, "duration": 3, "velocity": 98}, {"time": 2448, "pitch": 72, "duration": 5, "velocity": 97}, {"time": 2454, "pitch": 76, "duration": 4, "velocity": 100}, {"time": 2460, "pitch": 76, "duration": 3, "velocity": 97}, {"time": 2466, "pitch": 76, "duration": 6, "velocity": 103}, {"time": 2472, "pitch": 74, "duration": 4, "velocity": 90}, {"time": 2478, "pitch": 74, "duration": 6, "velocity": 97}, {"time": 2490, "pitch": 69, "duration": 6, "velocity": 106}, {"time": 2496, "pitch": 71, "duration": 6, "velocity": 90}, {"time": 2502, "pitch": 72, "duration": 8, "velocity": 101}, {"time": 2520, "pitch": 72, "duration": 3, "velocity": 100}, {"time": 2526, "pitch": 72, "duration": 5, "velocity": 99}, {"time": 2532, "pitch": 71, "duration": 5, "velocity": 97}, {"time": 2538, "pitch": 69, "duration": 5, "velocity": 85}, {"time": 2544, "pitch": 72, "duration": 6, "velocity": 93}, {"time": 2550, "pitch": 71, "duration": 17, "velocity": 97}, {"time": 2568, "pitch": 67, "duration": 4, "velocity": 81}, {"time": 2574, "pitch": 67, "duration": 6, "velocity": 97}, {"time": 2586, "pitch": 69, "duration": 6, "velocity": 97}, {"time": 2592, "pitch": 71, "duration": 6, "velocity": 92}, {"time": 2598, "pitch": 72, "duration": 12, "velocity": 96}, {"time": 2622, "pitch": 76, "duration": 5, "velocity": 106}, {"time": 2628, "pitch": 74, "duration": 5, "velocity": 90}, {"time": 2634, "pitch": 72, "duration": 5, "velocity": 95}, {"time": 2640, "pitch": 74, "duration": 5, "velocity": 90}, {"time": 2646, "pitch": 71, "duration": 6, "velocity": 101}, {"time": 2652, "pitch": 69, "duration": 11, "velocity": 87}, {"time": 2664, "pitch": 69, "duration": 22, "velocity": 92}, {"time": 2694, "pitch": 76, "duration": 13, "velocity": 106}, {"time": 2712, "pitch": 76, "duration": 4, "velocity": 108}, {"time": 2718, "pitch": 76, "duration": 9, "velocity": 106}, {"time": 2730, "pitch": 74, "duration": 6, "velocity": 105}, {"time": 2736, "pitch": 72, "duration": 6, "velocity": 91}, {"time": 2742, "pitch": 76, "duration": 12, "velocity": 108}, {"time": 2754, "pitch": 74, "duration": 17, "velocity": 103}, {"time": 2778, "pitch": 74, "duration": 6, "velocity": 109}, {"time": 2784, "pitch": 76, "duration": 6, "velocity": 95}, {"time": 2790, "pitch": 77, "duration": 13, "velocity": 99}, {"time": 2808, "pitch": 77, "duration": 5, "velocity": 109}, {"time": 2814, "pitch": 79, "duration": 11, "velocity": 93}, {"time": 2826, "pitch": 74, "duration": 5, "velocity": 99}, {"time": 2832, "pitch": 77, "duration": 11, "velocity": 105}, {"time": 2844, "pitch": 76, "duration": 27, "velocity": 103}, {"time": 2880, "pitch": 76, "duration": 6, "velocity": 103}, {"time": 2886, "pitch": 77, "duration": 17, "velocity": 103}, {"time": 2904, "pitch": 76, "duration": 6, "velocity": 105}, {"time": 2910, "pitch": 74, "duration": 11, "velocity": 105}, {"time": 2922, "pitch": 74, "duration": 5, "velocity": 109}, {"time": 2928, "pitch": 76, "duration": 4, "velocity": 99}, {"time": 2934, "pitch": 76, "duration": 10, "velocity": 109}, {"time": 2946, "pitch": 74, "duration": 11, "velocity": 106}, {"time": 2958, "pitch": 72, "duration": 8, "velocity": 101}, {"time": 2970, "pitch": 69, "duration": 5, "velocity": 93}, {"time": 2976, "pitch": 71, "duration": 6, "velocity": 93}, {"time": 2982, "pitch": 72, "duration": 4, "velocity": 97}, {"time": 2988, "pitch": 72, "duration": 6, "velocity": 100}, {"time": 3000, "pitch": 72, "duration": 6, "velocity": 109}, {"time": 3006, "pitch": 71, "duration": 5, "velocity": 92}, {"time": 3012, "pitch": 71, "duration": 6, "velocity": 85}, {"time": 3018, "pitch": 72, "duration": 4, "velocity": 95}, {"time": 3024, "pitch": 69, "duration": 5, "velocity": 95}, {"time": 3030, "pitch": 69, "duration": 33, "velocity": 87}, {"time": 3078, "pitch": 76, "duration": 13, "velocity": 106}, {"time": 3096, "pitch": 76, "duration": 4, "velocity": 108}, {"time": 3102, "pitch": 76, "duration": 9, "velocity": 106}, {"time": 3114, "pitch": 74, "duration": 6, "velocity": 105}, {"time": 3120, "pitch": 72, "duration": 6, "velocity": 91}, {"time": 3126, "pitch": 76, "duration": 12, "velocity": 108}, {"time": 3138, "pitch": 74, "duration": 17, "velocity": 103}, {"time": 3162, "pitch": 74, "duration": 6, "velocity": 109}, {"time": 3168, "pitch": 76, "duration": 6, "velocity": 95}, {"time": 3174, "pitch": 77, "duration": 13, "velocity": 99}, {"time": 3192, "pitch": 77, "duration": 5, "velocity": 109}, {"time": 3198, "pitch": 79, "duration": 11, "velocity": 93}, {"time": 3210, "pitch": 74, "duration": 5, "velocity": 99}, {"time": 3216, "pitch": 77, "duration": 11, "velocity": 105}, {"time": 3228, "pitch": 76, "duration": 27, "velocity": 103}, {"time": 3264, "pitch": 76, "duration": 6, "velocity": 103}, {"time": 3270, "pitch": 77, "duration": 17, "velocity": 103}, {"time": 3288, "pitch": 76, "duration": 6, "velocity": 105}, {"time": 3294, "pitch": 74, "duration": 10, "velocity": 105}, {"time": 3306, "pitch": 74, "duration": 6, "velocity": 109}, {"time": 3312, "pitch": 76, "duration": 5, "velocity": 99}, {"time": 3318, "pitch": 76, "duration": 12, "velocity": 109}, {"time": 3330, "pitch": 74, "duration": 11, "velocity": 106}, {"time": 3342, "pitch": 72, "duration": 8, "velocity": 101}, {"time": 3354, "pitch": 69, "duration": 6, "velocity": 93}, {"time": 3360, "pitch": 71, "duration": 6, "velocity": 93}, {"time": 3366, "pitch": 72, "duration": 4, "velocity": 97}, {"time": 3372, "pitch": 72, "duration": 6, "velocity": 100}, {"time": 3384, "pitch": 72, "duration": 6, "velocity": 109}, {"time": 3390, "pitch": 71, "duration": 5, "velocity": 92}, {"time": 3396, "pitch": 71, "duration": 6, "velocity": 85}, {"time": 3402, "pitch": 72, "duration": 4, "velocity": 95}, {"time": 3408, "pitch": 69, "duration": 5, "velocity": 95}, {"time": 3414, "pitch": 69, "duration": 35, "velocity": 87}], "annotations": [{"time": 479, "annotation": {"number": 1, "value": 0}, "group": "control_change"}, {"time": 480, "annotation": {"number": 1, "value": 1}, "group": "control_change"}, {"time": 481, "annotation": {"number": 1, "value": 0}, "group": "control_change"}, {"time": 496, "annotation": {"number": 1, "value": 1}, "group": "control_change"}, {"time": 2016, "annotation": {"number": 1, "value": 0}, "group": "control_change"}, {"time": 2016, "annotation": {"number": 1, "value": 1}, "group": "control_change"}, {"time": 2018, "annotation": {"number": 1, "value": 0}, "group": "control_change"}, {"time": 2032, "annotation": {"number": 1, "value": 1}, "group": "control_change"}]}, {"program": 0, "is_drum": false, "name": "BRIDGE", "notes": [{"time": 939, "pitch": 84, "duration": 2, "velocity": 50}, {"time": 940, "pitch": 86, "duration": 2, "velocity": 59}, {"time": 942, "pitch": 88, "duration": 5, "velocity": 75}, {"time": 948, "pitch": 86, "duration": 1, "velocity": 63}, {"time": 954, "pitch": 86, "duration": 2, "velocity": 59}, {"time": 957, "pitch": 84, "duration": 2, "velocity": 59}, {"time": 960, "pitch": 83, "duration": 2, "velocity": 59}, {"time": 963, "pitch": 84, "duration": 2, "velocity": 59}, {"time": 966, "pitch": 81, "duration": 2, "velocity": 59}, {"time": 1572, "pitch": 84, "duration": 6, "velocity": 59}, {"time": 1578, "pitch": 83, "duration": 6, "velocity": 59}, {"time": 1584, "pitch": 81, "duration": 6, "velocity": 59}, {"time": 1590, "pitch": 83, "duration": 6, "velocity": 59}, {"time": 1608, "pitch": 79, "duration": 6, "velocity": 59}, {"time": 1620, "pitch": 79, "duration": 6, "velocity": 59}, {"time": 1623, "pitch": 76, "duration": 6, "velocity": 59}, {"time": 1626, "pitch": 79, "duration": 6, "velocity": 59}, {"time": 1632, "pitch": 81, "duration": 6, "velocity": 59}, {"time": 1638, "pitch": 81, "duration": 6, "velocity": 59}, {"time": 1656, "pitch": 81, "duration": 6, "velocity": 59}, {"time": 1668, "pitch": 81, "duration": 6, "velocity": 59}, {"time": 1674, "pitch": 88, "duration": 6, "velocity": 59}, {"time": 1680, "pitch": 86, "duration": 6, "velocity": 59}, {"time": 1686, "pitch": 86, "duration": 6, "velocity": 59}, {"time": 1704, "pitch": 83, "duration": 3, "velocity": 59}, {"time": 1707, "pitch": 84, "duration": 3, "velocity": 59}, {"time": 1710, "pitch": 83, "duration": 3, "velocity": 59}, {"time": 1722, "pitch": 76, "duration": 3, "velocity": 59}, {"time": 1725, "pitch": 74, "duration": 3, "velocity": 59}, {"time": 1728, "pitch": 76, "duration": 3, "velocity": 59}, {"time": 1731, "pitch": 79, "duration": 3, "velocity": 59}, {"time": 1734, "pitch": 79, "duration": 3, "velocity": 59}, {"time": 1740, "pitch": 79, "duration": 2, "velocity": 67}, {"time": 1743, "pitch": 76, "duration": 3, "velocity": 69}, {"time": 1746, "pitch": 79, "duration": 5, "velocity": 64}, {"time": 1752, "pitch": 76, "duration": 2, "velocity": 64}, {"time": 1764, "pitch": 76, "duration": 4, "velocity": 44}, {"time": 1770, "pitch": 79, "duration": 5, "velocity": 73}, {"time": 1776, "pitch": 81, "duration": 5, "velocity": 70}, {"time": 1782, "pitch": 83, "duration": 4, "velocity": 61}, {"time": 1794, "pitch": 84, "duration": 3, "velocity": 72}, {"time": 1797, "pitch": 83, "duration": 2, "velocity": 66}, {"time": 1800, "pitch": 79, "duration": 4, "velocity": 61}, {"time": 1812, "pitch": 84, "duration": 2, "velocity": 69}, {"time": 1815, "pitch": 83, "duration": 2, "velocity": 69}, {"time": 1818, "pitch": 81, "duration": 5, "velocity": 67}, {"time": 1824, "pitch": 79, "duration": 7, "velocity": 67}, {"time": 1830, "pitch": 81, "duration": 4, "velocity": 66}, {"time": 1842, "pitch": 83, "duration": 5, "velocity": 69}, {"time": 1848, "pitch": 84, "duration": 6, "velocity": 67}, {"time": 1863, "pitch": 84, "duration": 1, "velocity": 44}, {"time": 1866, "pitch": 84, "duration": 4, "velocity": 64}, {"time": 1872, "pitch": 86, "duration": 5, "velocity": 60}, {"time": 1878, "pitch": 84, "duration": 2, "velocity": 72}, {"time": 1881, "pitch": 83, "duration": 3, "velocity": 64}, {"time": 1884, "pitch": 81, "duration": 6, "velocity": 66}, {"time": 3461, "pitch": 72, "duration": 18, "velocity": 114}, {"time": 3479, "pitch": 64, "duration": 10, "velocity": 97}, {"time": 3491, "pitch": 72, "duration": 6, "velocity": 110}, {"time": 3497, "pitch": 71, "duration": 4, "velocity": 107}, {"time": 3503, "pitch": 69, "duration": 6, "velocity": 102}, {"time": 3509, "pitch": 71, "duration": 14, "velocity": 95}, {"time": 3539, "pitch": 72, "duration": 6, "velocity": 107}, {"time": 3545, "pitch": 71, "duration": 6, "velocity": 109}, {"time": 3550, "pitch": 69, "duration": 7, "velocity": 106}, {"time": 3557, "pitch": 64, "duration": 18, "velocity": 98}, {"time": 3593, "pitch": 76, "duration": 7, "velocity": 102}, {"time": 3605, "pitch": 76, "duration": 6, "velocity": 105}, {"time": 3611, "pitch": 74, "duration": 18, "velocity": 99}, {"time": 3683, "pitch": 76, "duration": 6, "velocity": 110}, {"time": 3689, "pitch": 74, "duration": 5, "velocity": 112}, {"time": 3695, "pitch": 72, "duration": 5, "velocity": 107}, {"time": 3701, "pitch": 74, "duration": 16, "velocity": 122}, {"time": 3731, "pitch": 76, "duration": 6, "velocity": 127}, {"time": 3737, "pitch": 74, "duration": 6, "velocity": 103}, {"time": 3743, "pitch": 72, "duration": 7, "velocity": 95}, {"time": 3750, "pitch": 69, "duration": 17, "velocity": 100}, {"time": 3767, "pitch": 62, "duration": 2, "velocity": 110}, {"time": 3769, "pitch": 64, "duration": 1, "velocity": 109}, {"time": 3773, "pitch": 67, "duration": 4, "velocity": 107}, {"time": 3779, "pitch": 69, "duration": 2, "velocity": 118}, {"time": 3785, "pitch": 74, "duration": 2, "velocity": 107}, {"time": 3791, "pitch": 74, "duration": 29, "velocity": 99}, {"time": 3834, "pitch": 72, "duration": 10, "velocity": 87}, {"time": 3844, "pitch": 69, "duration": 50, "velocity": 82}], "annotations": [{"time": 1567, "annotation": {"number": 64, "value": 127}, "group": "control_change"}, {"time": 1595, "annotation": {"number": 64, "value": 0}, "group": "control_change"}, {"time": 1603, "annotation": {"number": 64, "value": 127}, "group": "control_change"}, {"time": 1636, "annotation": {"number": 64, "value": 0}, "group": "control_change"}, {"time": 1640, "annotation": {"number": 64, "value": 127}, "group": "control_change"}, {"time": 1685, "annotation": {"number": 64, "value": 0}, "group": "control_change"}, {"time": 1716, "annotation": {"number": 64, "value": 127}, "group": "control_change"}, {"time": 1731, "annotation": {"number": 64, "value": 0}, "group": "control_change"}, {"time": 1747, "annotation": {"number": 64, "value": 127}, "group": "control_change"}, {"time": 1782, "annotation": {"number": 64, "value": 0}, "group": "control_change"}, {"time": 1788, "annotation": {"number": 64, "value": 127}, "group": "control_change"}, {"time": 1831, "annotation": {"number": 64, "value": 0}, "group": "control_change"}, {"time": 1835, "annotation": {"number": 64, "value": 127}, "group": "control_change"}, {"time": 1854, "annotation": {"number": 64, "value": 0}, "group": "control_change"}, {"time": 1858, "annotation": {"number": 64, "value": 127}, "group": "control_change"}, {"time": 1878, "annotation": {"number": 64, "value": 0}, "group": "control_change"}, {"time": 1882, "annotation": {"number": 64, "value": 127}, "group": "control_change"}, {"time": 1924, "annotation": {"number": 64, "value": 0}, "group": "control_change"}]}, {"program": 0, "is_drum": false, "name": "PIANO", "notes": [{"time": 6, "pitch": 45, "duration": 13, "velocity": 54}, {"time": 6, "pitch": 64, "duration": 20, "velocity": 57}, {"time": 6, "pitch": 69, "duration": 32, "velocity": 51}, {"time": 6, "pitch": 72, "duration": 33, "velocity": 59}, {"time": 9, "pitch": 52, "duration": 6, "velocity": 31}, {"time": 18, "pitch": 57, "duration": 6, "velocity": 44}, {"time": 24, "pitch": 59, "duration": 21, "velocity": 54}, {"time": 36, "pitch": 60, "duration": 9, "velocity": 44}, {"time": 42, "pitch": 64, "duration": 5, "velocity": 55}, {"time": 48, "pitch": 72, "duration": 5, "velocity": 67}, {"time": 54, "pitch": 43, "duration": 6, "velocity": 54}, {"time": 54, "pitch": 62, "duration": 19, "velocity": 47}, {"time": 54, "pitch": 67, "duration": 19, "velocity": 48}, {"time": 54, "pitch": 71, "duration": 25, "velocity": 57}, {"time": 60, "pitch": 55, "duration": 7, "velocity": 45}, {"time": 66, "pitch": 57, "duration": 27, "velocity": 52}, {"time": 72, "pitch": 59, "duration": 20, "velocity": 51}, {"time": 78, "pitch": 62, "duration": 7, "velocity": 31}, {"time": 84, "pitch": 72, "duration": 6, "velocity": 67}, {"time": 90, "pitch": 71, "duration": 5, "velocity": 63}, {"time": 96, "pitch": 69, "duration": 4, "velocity": 55}, {"time": 102, "pitch": 45, "duration": 12, "velocity": 46}, {"time": 102, "pitch": 64, "duration": 24, "velocity": 59}, {"time": 102, "pitch": 72, "duration": 27, "velocity": 67}, {"time": 108, "pitch": 52, "duration": 6, "velocity": 37}, {"time": 114, "pitch": 57, "duration": 8, "velocity": 39}, {"time": 120, "pitch": 59, "duration": 21, "velocity": 54}, {"time": 126, "pitch": 60, "duration": 14, "velocity": 46}, {"time": 132, "pitch": 64, "duration": 6, "velocity": 30}, {"time": 138, "pitch": 69, "duration": 4, "velocity": 40}, {"time": 144, "pitch": 71, "duration": 5, "velocity": 44}, {"time": 150, "pitch": 43, "duration": 10, "velocity": 58}, {"time": 150, "pitch": 62, "duration": 30, "velocity": 50}, {"time": 150, "pitch": 67, "duration": 30, "velocity": 58}, {"time": 150, "pitch": 71, "duration": 31, "velocity": 56}, {"time": 156, "pitch": 50, "duration": 5, "velocity": 40}, {"time": 162, "pitch": 55, "duration": 8, "velocity": 46}, {"time": 168, "pitch": 57, "duration": 21, "velocity": 48}, {"time": 180, "pitch": 59, "duration": 9, "velocity": 42}, {"time": 186, "pitch": 62, "duration": 5, "velocity": 38}, {"time": 198, "pitch": 45, "duration": 10, "velocity": 51}, {"time": 198, "pitch": 64, "duration": 24, "velocity": 56}, {"time": 198, "pitch": 72, "duration": 24, "velocity": 52}, {"time": 204, "pitch": 52, "duration": 5, "velocity": 42}, {"time": 210, "pitch": 57, "duration": 7, "velocity": 30}, {"time": 216, "pitch": 59, "duration": 18, "velocity": 44}, {"time": 222, "pitch": 60, "duration": 11, "velocity": 44}, {"time": 227, "pitch": 76, "duration": 6, "velocity": 85}, {"time": 228, "pitch": 64, "duration": 6, "velocity": 40}, {"time": 233, "pitch": 74, "duration": 6, "velocity": 64}, {"time": 234, "pitch": 72, "duration": 9, "velocity": 54}, {"time": 239, "pitch": 72, "duration": 4, "velocity": 62}, {"time": 245, "pitch": 74, "duration": 15, "velocity": 63}, {"time": 246, "pitch": 43, "duration": 9, "velocity": 47}, {"time": 246, "pitch": 62, "duration": 22, "velocity": 43}, {"time": 246, "pitch": 67, "duration": 21, "velocity": 46}, {"time": 246, "pitch": 71, "duration": 23, "velocity": 45}, {"time": 252, "pitch": 50, "duration": 5, "velocity": 32}, {"time": 258, "pitch": 55, "duration": 7, "velocity": 36}, {"time": 264, "pitch": 57, "duration": 19, "velocity": 57}, {"time": 270, "pitch": 59, "duration": 12, "velocity": 47}, {"time": 275, "pitch": 76, "duration": 6, "velocity": 70}, {"time": 276, "pitch": 62, "duration": 8, "velocity": 36}, {"time": 281, "pitch": 74, "duration": 5, "velocity": 72}, {"time": 282, "pitch": 74, "duration": 4, "velocity": 52}, {"time": 287, "pitch": 72, "duration": 6, "velocity": 73}, {"time": 293, "pitch": 69, "duration": 15, "velocity": 55}, {"time": 294, "pitch": 41, "duration": 10, "velocity": 46}, {"time": 294, "pitch": 60, "duration": 26, "velocity": 44}, {"time": 294, "pitch": 65, "duration": 28, "velocity": 45}, {"time": 294, "pitch": 69, "duration": 14, "velocity": 49}, {"time": 300, "pitch": 48, "duration": 4, "velocity": 31}, {"time": 306, "pitch": 53, "duration": 9, "velocity": 37}, {"time": 311, "pitch": 64, "duration": 8, "velocity": 57}, {"time": 312, "pitch": 55, "duration": 9, "velocity": 54}, {"time": 317, "pitch": 67, "duration": 7, "velocity": 62}, {"time": 323, "pitch": 69, "duration": 3, "velocity": 64}, {"time": 329, "pitch": 74, "duration": 7, "velocity": 70}, {"time": 330, "pitch": 43, "duration": 6, "velocity": 63}, {"time": 330, "pitch": 62, "duration": 7, "velocity": 58}, {"time": 330, "pitch": 67, "duration": 6, "velocity": 60}, {"time": 336, "pitch": 72, "duration": 11, "velocity": 56}, {"time": 342, "pitch": 45, "duration": 10, "velocity": 58}, {"time": 342, "pitch": 64, "duration": 27, "velocity": 51}, {"time": 342, "pitch": 69, "duration": 13, "velocity": 45}, {"time": 342, "pitch": 72, "duration": 5, "velocity": 58}, {"time": 347, "pitch": 69, "duration": 8, "velocity": 62}, {"time": 348, "pitch": 52, "duration": 5, "velocity": 35}, {"time": 354, "pitch": 57, "duration": 8, "velocity": 46}, {"time": 360, "pitch": 59, "duration": 19, "velocity": 57}, {"time": 366, "pitch": 60, "duration": 13, "velocity": 49}, {"time": 390, "pitch": 45, "duration": 42, "velocity": 59}, {"time": 396, "pitch": 52, "duration": 36, "velocity": 46}, {"time": 402, "pitch": 57, "duration": 14, "velocity": 53}, {"time": 408, "pitch": 59, "duration": 7, "velocity": 44}, {"time": 414, "pitch": 60, "duration": 16, "velocity": 72}, {"time": 426, "pitch": 57, "duration": 5, "velocity": 38}, {"time": 432, "pitch": 59, "duration": 17, "velocity": 50}, {"time": 438, "pitch": 43, "duration": 37, "velocity": 64}, {"time": 444, "pitch": 50, "duration": 31, "velocity": 59}, {"time": 450, "pitch": 55, "duration": 19, "velocity": 54}, {"time": 456, "pitch": 57, "duration": 6, "velocity": 40}, {"time": 462, "pitch": 59, "duration": 12, "velocity": 72}, {"time": 474, "pitch": 55, "duration": 2, "velocity": 52}, {"time": 486, "pitch": 45, "duration": 11, "velocity": 62}, {"time": 492, "pitch": 52, "duration": 5, "velocity": 53}, {"time": 498, "pitch": 57, "duration": 6, "velocity": 55}, {"time": 504, "pitch": 59, "duration": 20, "velocity": 53}, {"time": 510, "pitch": 60, "duration": 13, "velocity": 62}, {"time": 516, "pitch": 64, "duration": 5, "velocity": 57}, {"time": 522, "pitch": 69, "duration": 6, "velocity": 58}, {"time": 528, "pitch": 72, "duration": 5, "velocity": 62}, {"time": 534, "pitch": 48, "duration": 18, "velocity": 58}, {"time": 534, "pitch": 64, "duration": 10, "velocity": 53}, {"time": 534, "pitch": 67, "duration": 10, "velocity": 60}, {"time": 534, "pitch": 72, "duration": 12, "velocity": 61}, {"time": 540, "pitch": 55, "duration": 12, "velocity": 45}, {"time": 546, "pitch": 60, "duration": 5, "velocity": 53}, {"time": 552, "pitch": 62, "duration": 14, "velocity": 43}, {"time": 558, "pitch": 43, "duration": 16, "velocity": 51}, {"time": 558, "pitch": 55, "duration": 17, "velocity": 51}, {"time": 558, "pitch": 67, "duration": 7, "velocity": 56}, {"time": 558, "pitch": 71, "duration": 8, "velocity": 60}, {"time": 570, "pitch": 69, "duration": 5, "velocity": 49}, {"time": 576, "pitch": 71, "duration": 4, "velocity": 59}, {"time": 582, "pitch": 45, "duration": 11, "velocity": 53}, {"time": 582, "pitch": 64, "duration": 9, "velocity": 40}, {"time": 582, "pitch": 69, "duration": 10, "velocity": 56}, {"time": 582, "pitch": 72, "duration": 11, "velocity": 53}, {"time": 588, "pitch": 52, "duration": 6, "velocity": 48}, {"time": 594, "pitch": 57, "duration": 7, "velocity": 49}, {"time": 600, "pitch": 59, "duration": 21, "velocity": 52}, {"time": 606, "pitch": 60, "duration": 15, "velocity": 52}, {"time": 606, "pitch": 76, "duration": 3, "velocity": 49}, {"time": 606, "pitch": 84, "duration": 2, "velocity": 46}, {"time": 612, "pitch": 74, "duration": 2, "velocity": 43}, {"time": 612, "pitch": 83, "duration": 2, "velocity": 44}, {"time": 618, "pitch": 62, "duration": 2, "velocity": 44}, {"time": 618, "pitch": 72, "duration": 4, "velocity": 52}, {"time": 618, "pitch": 81, "duration": 3, "velocity": 51}, {"time": 630, "pitch": 43, "duration": 10, "velocity": 54}, {"time": 630, "pitch": 71, "duration": 17, "velocity": 48}, {"time": 630, "pitch": 74, "duration": 16, "velocity": 54}, {"time": 630, "pitch": 81, "duration": 15, "velocity": 49}, {"time": 636, "pitch": 50, "duration": 6, "velocity": 45}, {"time": 642, "pitch": 55, "duration": 9, "velocity": 44}, {"time": 648, "pitch": 57, "duration": 19, "velocity": 29}, {"time": 654, "pitch": 59, "duration": 14, "velocity": 54}, {"time": 654, "pitch": 71, "duration": 9, "velocity": 49}, {"time": 654, "pitch": 74, "duration": 8, "velocity": 52}, {"time": 654, "pitch": 79, "duration": 11, "velocity": 44}, {"time": 678, "pitch": 41, "duration": 17, "velocity": 43}, {"time": 678, "pitch": 57, "duration": 12, "velocity": 37}, {"time": 678, "pitch": 60, "duration": 12, "velocity": 49}, {"time": 678, "pitch": 64, "duration": 11, "velocity": 58}, {"time": 684, "pitch": 48, "duration": 18, "velocity": 44}, {"time": 690, "pitch": 53, "duration": 11, "velocity": 47}, {"time": 696, "pitch": 59, "duration": 7, "velocity": 40}, {"time": 702, "pitch": 43, "duration": 16, "velocity": 44}, {"time": 702, "pitch": 62, "duration": 7, "velocity": 58}, {"time": 702, "pitch": 67, "duration": 8, "velocity": 49}, {"time": 708, "pitch": 50, "duration": 16, "velocity": 46}, {"time": 714, "pitch": 55, "duration": 6, "velocity": 48}, {"time": 720, "pitch": 69, "duration": 3, "velocity": 51}, {"time": 723, "pitch": 71, "duration": 2, "velocity": 51}, {"time": 726, "pitch": 45, "duration": 11, "velocity": 58}, {"time": 726, "pitch": 64, "duration": 11, "velocity": 52}, {"time": 726, "pitch": 72, "duration": 13, "velocity": 62}, {"time": 732, "pitch": 52, "duration": 6, "velocity": 40}, {"time": 738, "pitch": 57, "duration": 7, "velocity": 39}, {"time": 744, "pitch": 59, "duration": 16, "velocity": 45}, {"time": 750, "pitch": 60, "duration": 10, "velocity": 54}, {"time": 756, "pitch": 76, "duration": 6, "velocity": 51}, {"time": 756, "pitch": 84, "duration": 7, "velocity": 46}, {"time": 762, "pitch": 83, "duration": 5, "velocity": 58}, {"time": 768, "pitch": 81, "duration": 5, "velocity": 56}, {"time": 774, "pitch": 45, "duration": 10, "velocity": 50}, {"time": 774, "pitch": 76, "duration": 7, "velocity": 44}, {"time": 774, "pitch": 84, "duration": 7, "velocity": 51}, {"time": 780, "pitch": 52, "duration": 5, "velocity": 49}, {"time": 786, "pitch": 57, "duration": 6, "velocity": 37}, {"time": 792, "pitch": 59, "duration": 20, "velocity": 53}, {"time": 792, "pitch": 76, "duration": 8, "velocity": 44}, {"time": 798, "pitch": 60, "duration": 15, "velocity": 47}, {"time": 798, "pitch": 84, "duration": 6, "velocity": 49}, {"time": 804, "pitch": 83, "duration": 5, "velocity": 55}, {"time": 810, "pitch": 62, "duration": 2, "velocity": 52}, {"time": 810, "pitch": 81, "duration": 4, "velocity": 53}, {"time": 816, "pitch": 79, "duration": 5, "velocity": 50}, {"time": 822, "pitch": 43, "duration": 39, "velocity": 47}, {"time": 822, "pitch": 74, "duration": 6, "velocity": 48}, {"time": 822, "pitch": 83, "duration": 6, "velocity": 60}, {"time": 828, "pitch": 50, "duration": 37, "velocity": 44}, {"time": 834, "pitch": 55, "duration": 29, "velocity": 50}, {"time": 840, "pitch": 57, "duration": 6, "velocity": 50}, {"time": 846, "pitch": 59, "duration": 6, "velocity": 56}, {"time": 852, "pitch": 62, "duration": 1, "velocity": 63}, {"time": 858, "pitch": 67, "duration": 5, "velocity": 64}, {"time": 864, "pitch": 71, "duration": 5, "velocity": 49}, {"time": 870, "pitch": 45, "duration": 11, "velocity": 49}, {"time": 870, "pitch": 64, "duration": 13, "velocity": 59}, {"time": 870, "pitch": 72, "duration": 13, "velocity": 70}, {"time": 876, "pitch": 52, "duration": 6, "velocity": 48}, {"time": 882, "pitch": 57, "duration": 6, "velocity": 46}, {"time": 888, "pitch": 59, "duration": 21, "velocity": 47}, {"time": 888, "pitch": 64, "duration": 8, "velocity": 52}, {"time": 894, "pitch": 72, "duration": 4, "velocity": 67}, {"time": 900, "pitch": 71, "duration": 5, "velocity": 60}, {"time": 906, "pitch": 72, "duration": 2, "velocity": 64}, {"time": 912, "pitch": 74, "duration": 4, "velocity": 47}, {"time": 915, "pitch": 67, "duration": 4, "velocity": 40}, {"time": 918, "pitch": 48, "duration": 18, "velocity": 50}, {"time": 918, "pitch": 72, "duration": 6, "velocity": 39}, {"time": 918, "pitch": 76, "duration": 5, "velocity": 60}, {"time": 924, "pitch": 55, "duration": 18, "velocity": 40}, {"time": 930, "pitch": 60, "duration": 5, "velocity": 48}, {"time": 936, "pitch": 67, "duration": 3, "velocity": 60}, {"time": 942, "pitch": 47, "duration": 14, "velocity": 66}, {"time": 942, "pitch": 62, "duration": 7, "velocity": 54}, {"time": 942, "pitch": 67, "duration": 5, "velocity": 61}, {"time": 948, "pitch": 55, "duration": 9, "velocity": 50}, {"time": 954, "pitch": 59, "duration": 2, "velocity": 44}, {"time": 954, "pitch": 69, "duration": 4, "velocity": 60}, {"time": 960, "pitch": 71, "duration": 4, "velocity": 63}, {"time": 966, "pitch": 45, "duration": 11, "velocity": 51}, {"time": 966, "pitch": 64, "duration": 6, "velocity": 54}, {"time": 966, "pitch": 69, "duration": 7, "velocity": 58}, {"time": 966, "pitch": 72, "duration": 6, "velocity": 45}, {"time": 972, "pitch": 52, "duration": 5, "velocity": 32}, {"time": 978, "pitch": 57, "duration": 6, "velocity": 43}, {"time": 978, "pitch": 64, "duration": 13, "velocity": 45}, {"time": 978, "pitch": 69, "duration": 12, "velocity": 48}, {"time": 978, "pitch": 72, "duration": 13, "velocity": 49}, {"time": 984, "pitch": 59, "duration": 24, "velocity": 53}, {"time": 990, "pitch": 60, "duration": 17, "velocity": 56}, {"time": 996, "pitch": 64, "duration": 7, "velocity": 47}, {"time": 1002, "pitch": 72, "duration": 5, "velocity": 64}, {"time": 1008, "pitch": 69, "duration": 4, "velocity": 58}, {"time": 1014, "pitch": 55, "duration": 38, "velocity": 54}, {"time": 1014, "pitch": 62, "duration": 7, "velocity": 45}, {"time": 1014, "pitch": 67, "duration": 7, "velocity": 52}, {"time": 1014, "pitch": 71, "duration": 7, "velocity": 48}, {"time": 1020, "pitch": 59, "duration": 20, "velocity": 38}, {"time": 1026, "pitch": 62, "duration": 7, "velocity": 47}, {"time": 1032, "pitch": 69, "duration": 5, "velocity": 57}, {"time": 1038, "pitch": 67, "duration": 6, "velocity": 54}, {"time": 1044, "pitch": 59, "duration": 7, "velocity": 32}, {"time": 1050, "pitch": 62, "duration": 2, "velocity": 57}, {"time": 1053, "pitch": 67, "duration": 4, "velocity": 48}, {"time": 1056, "pitch": 69, "duration": 4, "velocity": 51}, {"time": 1059, "pitch": 72, "duration": 1, "velocity": 44}, {"time": 1062, "pitch": 41, "duration": 14, "velocity": 60}, {"time": 1062, "pitch": 60, "duration": 13, "velocity": 62}, {"time": 1062, "pitch": 65, "duration": 14, "velocity": 48}, {"time": 1068, "pitch": 48, "duration": 16, "velocity": 45}, {"time": 1074, "pitch": 53, "duration": 7, "velocity": 52}, {"time": 1080, "pitch": 69, "duration": 4, "velocity": 58}, {"time": 1086, "pitch": 43, "duration": 17, "velocity": 60}, {"time": 1086, "pitch": 62, "duration": 12, "velocity": 51}, {"time": 1086, "pitch": 67, "duration": 11, "velocity": 58}, {"time": 1086, "pitch": 71, "duration": 13, "velocity": 58}, {"time": 1092, "pitch": 50, "duration": 17, "velocity": 44}, {"time": 1098, "pitch": 55, "duration": 7, "velocity": 46}, {"time": 1104, "pitch": 69, "duration": 6, "velocity": 55}, {"time": 1107, "pitch": 71, "duration": 2, "velocity": 62}, {"time": 1110, "pitch": 45, "duration": 11, "velocity": 51}, {"time": 1110, "pitch": 64, "duration": 8, "velocity": 55}, {"time": 1110, "pitch": 72, "duration": 17, "velocity": 62}, {"time": 1116, "pitch": 52, "duration": 6, "velocity": 43}, {"time": 1116, "pitch": 69, "duration": 5, "velocity": 1}, {"time": 1122, "pitch": 57, "duration": 8, "velocity": 41}, {"time": 1128, "pitch": 59, "duration": 19, "velocity": 33}, {"time": 1128, "pitch": 67, "duration": 5, "velocity": 46}, {"time": 1134, "pitch": 60, "duration": 14, "velocity": 59}, {"time": 1134, "pitch": 64, "duration": 13, "velocity": 40}, {"time": 1134, "pitch": 69, "duration": 6, "velocity": 55}, {"time": 1146, "pitch": 69, "duration": 7, "velocity": 56}, {"time": 1152, "pitch": 71, "duration": 4, "velocity": 46}, {"time": 1158, "pitch": 36, "duration": 41, "velocity": 65}, {"time": 1158, "pitch": 48, "duration": 41, "velocity": 65}, {"time": 1158, "pitch": 67, "duration": 6, "velocity": 65}, {"time": 1158, "pitch": 72, "duration": 6, "velocity": 65}, {"time": 1164, "pitch": 55, "duration": 6, "velocity": 33}, {"time": 1170, "pitch": 60, "duration": 6, "velocity": 41}, {"time": 1170, "pitch": 64, "duration": 6, "velocity": 47}, {"time": 1170, "pitch": 67, "duration": 5, "velocity": 48}, {"time": 1170, "pitch": 72, "duration": 7, "velocity": 54}, {"time": 1176, "pitch": 55, "duration": 6, "velocity": 34}, {"time": 1182, "pitch": 60, "duration": 6, "velocity": 39}, {"time": 1182, "pitch": 64, "duration": 6, "velocity": 46}, {"time": 1182, "pitch": 67, "duration": 6, "velocity": 52}, {"time": 1182, "pitch": 72, "duration": 6, "velocity": 52}, {"time": 1188, "pitch": 55, "duration": 7, "velocity": 49}, {"time": 1194, "pitch": 60, "duration": 4, "velocity": 48}, {"time": 1194, "pitch": 64, "duration": 5, "velocity": 55}, {"time": 1194, "pitch": 67, "duration": 5, "velocity": 59}, {"time": 1194, "pitch": 72, "duration": 8, "velocity": 59}, {"time": 1200, "pitch": 55, "duration": 5, "velocity": 40}, {"time": 1206, "pitch": 35, "duration": 43, "velocity": 63}, {"time": 1206, "pitch": 47, "duration": 42, "velocity": 63}, {"time": 1206, "pitch": 62, "duration": 6, "velocity": 63}, {"time": 1206, "pitch": 67, "duration": 6, "velocity": 63}, {"time": 1206, "pitch": 71, "duration": 5, "velocity": 63}, {"time": 1212, "pitch": 55, "duration": 6, "velocity": 37}, {"time": 1218, "pitch": 59, "duration": 6, "velocity": 39}, {"time": 1218, "pitch": 62, "duration": 7, "velocity": 49}, {"time": 1218, "pitch": 67, "duration": 6, "velocity": 48}, {"time": 1218, "pitch": 71, "duration": 5, "velocity": 55}, {"time": 1224, "pitch": 55, "duration": 5, "velocity": 39}, {"time": 1230, "pitch": 59, "duration": 6, "velocity": 37}, {"time": 1230, "pitch": 62, "duration": 6, "velocity": 44}, {"time": 1230, "pitch": 67, "duration": 5, "velocity": 46}, {"time": 1230, "pitch": 71, "duration": 5, "velocity": 48}, {"time": 1236, "pitch": 55, "duration": 6, "velocity": 38}, {"time": 1242, "pitch": 59, "duration": 7, "velocity": 48}, {"time": 1242, "pitch": 62, "duration": 5, "velocity": 57}, {"time": 1242, "pitch": 67, "duration": 4, "velocity": 56}, {"time": 1242, "pitch": 71, "duration": 4, "velocity": 57}, {"time": 1248, "pitch": 55, "duration": 5, "velocity": 64}, {"time": 1254, "pitch": 41, "duration": 13, "velocity": 76}, {"time": 1254, "pitch": 53, "duration": 17, "velocity": 76}, {"time": 1254, "pitch": 65, "duration": 6, "velocity": 76}, {"time": 1254, "pitch": 69, "duration": 6, "velocity": 76}, {"time": 1260, "pitch": 57, "duration": 7, "velocity": 46}, {"time": 1266, "pitch": 65, "duration": 6, "velocity": 67}, {"time": 1266, "pitch": 69, "duration": 6, "velocity": 61}, {"time": 1272, "pitch": 60, "duration": 1, "velocity": 52}, {"time": 1278, "pitch": 43, "duration": 18, "velocity": 60}, {"time": 1278, "pitch": 62, "duration": 7, "velocity": 64}, {"time": 1278, "pitch": 67, "duration": 6, "velocity": 70}, {"time": 1278, "pitch": 71, "duration": 6, "velocity": 63}, {"time": 1284, "pitch": 50, "duration": 6, "velocity": 34}, {"time": 1290, "pitch": 55, "duration": 8, "velocity": 46}, {"time": 1290, "pitch": 62, "duration": 6, "velocity": 56}, {"time": 1290, "pitch": 67, "duration": 4, "velocity": 60}, {"time": 1290, "pitch": 71, "duration": 4, "velocity": 47}, {"time": 1296, "pitch": 50, "duration": 5, "velocity": 52}, {"time": 1302, "pitch": 45, "duration": 30, "velocity": 64}, {"time": 1302, "pitch": 64, "duration": 7, "velocity": 58}, {"time": 1302, "pitch": 69, "duration": 6, "velocity": 60}, {"time": 1302, "pitch": 72, "duration": 6, "velocity": 60}, {"time": 1308, "pitch": 52, "duration": 5, "velocity": 40}, {"time": 1314, "pitch": 57, "duration": 6, "velocity": 41}, {"time": 1314, "pitch": 64, "duration": 7, "velocity": 58}, {"time": 1314, "pitch": 69, "duration": 7, "velocity": 61}, {"time": 1314, "pitch": 72, "duration": 6, "velocity": 59}, {"time": 1320, "pitch": 52, "duration": 19, "velocity": 45}, {"time": 1326, "pitch": 64, "duration": 6, "velocity": 61}, {"time": 1326, "pitch": 69, "duration": 6, "velocity": 63}, {"time": 1326, "pitch": 72, "duration": 8, "velocity": 62}, {"time": 1332, "pitch": 57, "duration": 1, "velocity": 39}, {"time": 1338, "pitch": 43, "duration": 4, "velocity": 51}, {"time": 1338, "pitch": 62, "duration": 6, "velocity": 56}, {"time": 1338, "pitch": 67, "duration": 4, "velocity": 59}, {"time": 1338, "pitch": 71, "duration": 4, "velocity": 61}, {"time": 1350, "pitch": 41, "duration": 18, "velocity": 72}, {"time": 1350, "pitch": 53, "duration": 18, "velocity": 71}, {"time": 1350, "pitch": 60, "duration": 6, "velocity": 71}, {"time": 1350, "pitch": 65, "duration": 5, "velocity": 71}, {"time": 1350, "pitch": 69, "duration": 6, "velocity": 71}, {"time": 1356, "pitch": 57, "duration": 8, "velocity": 44}, {"time": 1362, "pitch": 60, "duration": 5, "velocity": 64}, {"time": 1362, "pitch": 65, "duration": 5, "velocity": 69}, {"time": 1362, "pitch": 69, "duration": 6, "velocity": 67}, {"time": 1368, "pitch": 57, "duration": 1, "velocity": 47}, {"time": 1374, "pitch": 43, "duration": 18, "velocity": 67}, {"time": 1374, "pitch": 62, "duration": 6, "velocity": 62}, {"time": 1374, "pitch": 67, "duration": 6, "velocity": 62}, {"time": 1374, "pitch": 71, "duration": 6, "velocity": 63}, {"time": 1380, "pitch": 55, "duration": 7, "velocity": 43}, {"time": 1386, "pitch": 62, "duration": 4, "velocity": 63}, {"time": 1386, "pitch": 67, "duration": 5, "velocity": 67}, {"time": 1386, "pitch": 71, "duration": 2, "velocity": 55}, {"time": 1392, "pitch": 55, "duration": 6, "velocity": 46}, {"time": 1398, "pitch": 48, "duration": 12, "velocity": 60}, {"time": 1398, "pitch": 64, "duration": 2, "velocity": 50}, {"time": 1398, "pitch": 67, "duration": 7, "velocity": 67}, {"time": 1398, "pitch": 72, "duration": 5, "velocity": 70}, {"time": 1404, "pitch": 64, "duration": 3, "velocity": 45}, {"time": 1410, "pitch": 47, "duration": 11, "velocity": 49}, {"time": 1410, "pitch": 67, "duration": 6, "velocity": 62}, {"time": 1410, "pitch": 71, "duration": 6, "velocity": 62}, {"time": 1416, "pitch": 62, "duration": 5, "velocity": 50}, {"time": 1422, "pitch": 45, "duration": 14, "velocity": 51}, {"time": 1422, "pitch": 69, "duration": 6, "velocity": 59}, {"time": 1422, "pitch": 72, "duration": 6, "velocity": 63}, {"time": 1428, "pitch": 52, "duration": 8, "velocity": 43}, {"time": 1434, "pitch": 57, "duration": 4, "velocity": 44}, {"time": 1434, "pitch": 64, "duration": 3, "velocity": 54}, {"time": 1437, "pitch": 69, "duration": 5, "velocity": 59}, {"time": 1440, "pitch": 71, "duration": 3, "velocity": 60}, {"time": 1443, "pitch": 72, "duration": 9, "velocity": 70}, {"time": 1446, "pitch": 50, "duration": 17, "velocity": 52}, {"time": 1446, "pitch": 65, "duration": 6, "velocity": 67}, {"time": 1446, "pitch": 69, "duration": 6, "velocity": 64}, {"time": 1452, "pitch": 57, "duration": 9, "velocity": 44}, {"time": 1458, "pitch": 60, "duration": 4, "velocity": 67}, {"time": 1464, "pitch": 69, "duration": 4, "velocity": 56}, {"time": 1470, "pitch": 62, "duration": 8, "velocity": 53}, {"time": 1470, "pitch": 67, "duration": 9, "velocity": 61}, {"time": 1470, "pitch": 71, "duration": 8, "velocity": 64}, {"time": 1476, "pitch": 43, "duration": 12, "velocity": 45}, {"time": 1482, "pitch": 50, "duration": 11, "velocity": 47}, {"time": 1488, "pitch": 55, "duration": 3, "velocity": 47}, {"time": 1494, "pitch": 45, "duration": 10, "velocity": 59}, {"time": 1494, "pitch": 64, "duration": 9, "velocity": 50}, {"time": 1494, "pitch": 72, "duration": 9, "velocity": 60}, {"time": 1500, "pitch": 52, "duration": 6, "velocity": 51}, {"time": 1506, "pitch": 57, "duration": 7, "velocity": 43}, {"time": 1512, "pitch": 59, "duration": 25, "velocity": 59}, {"time": 1518, "pitch": 60, "duration": 20, "velocity": 62}, {"time": 1521, "pitch": 64, "duration": 2, "velocity": 44}, {"time": 1524, "pitch": 69, "duration": 3, "velocity": 36}, {"time": 1527, "pitch": 71, "duration": 2, "velocity": 55}, {"time": 1530, "pitch": 72, "duration": 3, "velocity": 70}, {"time": 1533, "pitch": 76, "duration": 3, "velocity": 44}, {"time": 1536, "pitch": 81, "duration": 2, "velocity": 42}, {"time": 1539, "pitch": 83, "duration": 3, "velocity": 56}, {"time": 1542, "pitch": 45, "duration": 13, "velocity": 52}, {"time": 1542, "pitch": 64, "duration": 7, "velocity": 49}, {"time": 1542, "pitch": 69, "duration": 7, "velocity": 61}, {"time": 1542, "pitch": 72, "duration": 7, "velocity": 54}, {"time": 1542, "pitch": 84, "duration": 7, "velocity": 66}, {"time": 1548, "pitch": 52, "duration": 6, "velocity": 48}, {"time": 1554, "pitch": 57, "duration": 7, "velocity": 40}, {"time": 1554, "pitch": 64, "duration": 14, "velocity": 47}, {"time": 1554, "pitch": 69, "duration": 13, "velocity": 49}, {"time": 1554, "pitch": 72, "duration": 13, "velocity": 44}, {"time": 1560, "pitch": 59, "duration": 15, "velocity": 44}, {"time": 1566, "pitch": 60, "duration": 18, "velocity": 72}, {"time": 1572, "pitch": 64, "duration": 11, "velocity": 55}, {"time": 1578, "pitch": 69, "duration": 6, "velocity": 64}, {"time": 1584, "pitch": 72, "duration": 16, "velocity": 69}, {"time": 1590, "pitch": 43, "duration": 10, "velocity": 49}, {"time": 1590, "pitch": 62, "duration": 6, "velocity": 34}, {"time": 1590, "pitch": 69, "duration": 2, "velocity": 26}, {"time": 1596, "pitch": 50, "duration": 6, "velocity": 48}, {"time": 1602, "pitch": 55, "duration": 6, "velocity": 42}, {"time": 1602, "pitch": 62, "duration": 11, "velocity": 45}, {"time": 1602, "pitch": 67, "duration": 4, "velocity": 44}, {"time": 1602, "pitch": 71, "duration": 6, "velocity": 53}, {"time": 1608, "pitch": 57, "duration": 20, "velocity": 52}, {"time": 1608, "pitch": 69, "duration": 6, "velocity": 48}, {"time": 1614, "pitch": 59, "duration": 7, "velocity": 44}, {"time": 1620, "pitch": 62, "duration": 5, "velocity": 48}, {"time": 1620, "pitch": 67, "duration": 5, "velocity": 55}, {"time": 1626, "pitch": 59, "duration": 2, "velocity": 46}, {"time": 1638, "pitch": 41, "duration": 43, "velocity": 54}, {"time": 1638, "pitch": 57, "duration": 7, "velocity": 52}, {"time": 1638, "pitch": 60, "duration": 6, "velocity": 60}, {"time": 1638, "pitch": 65, "duration": 6, "velocity": 60}, {"time": 1644, "pitch": 53, "duration": 16, "velocity": 40}, {"time": 1650, "pitch": 57, "duration": 7, "velocity": 54}, {"time": 1656, "pitch": 60, "duration": 12, "velocity": 69}, {"time": 1668, "pitch": 53, "duration": 7, "velocity": 30}, {"time": 1674, "pitch": 57, "duration": 6, "velocity": 58}, {"time": 1674, "pitch": 60, "duration": 6, "velocity": 67}, {"time": 1674, "pitch": 65, "duration": 9, "velocity": 55}, {"time": 1680, "pitch": 53, "duration": 5, "velocity": 35}, {"time": 1686, "pitch": 43, "duration": 12, "velocity": 64}, {"time": 1686, "pitch": 62, "duration": 26, "velocity": 57}, {"time": 1686, "pitch": 67, "duration": 29, "velocity": 63}, {"time": 1686, "pitch": 71, "duration": 29, "velocity": 58}, {"time": 1692, "pitch": 50, "duration": 6, "velocity": 44}, {"time": 1698, "pitch": 55, "duration": 7, "velocity": 55}, {"time": 1704, "pitch": 57, "duration": 23, "velocity": 64}, {"time": 1710, "pitch": 59, "duration": 17, "velocity": 61}, {"time": 1716, "pitch": 62, "duration": 7, "velocity": 58}, {"time": 1722, "pitch": 67, "duration": 6, "velocity": 49}, {"time": 1728, "pitch": 71, "duration": 5, "velocity": 64}, {"time": 1734, "pitch": 45, "duration": 40, "velocity": 47}, {"time": 1734, "pitch": 64, "duration": 9, "velocity": 53}, {"time": 1734, "pitch": 69, "duration": 9, "velocity": 42}, {"time": 1734, "pitch": 72, "duration": 13, "velocity": 55}, {"time": 1743, "pitch": 52, "duration": 28, "velocity": 43}, {"time": 1752, "pitch": 57, "duration": 6, "velocity": 32}, {"time": 1752, "pitch": 64, "duration": 10, "velocity": 48}, {"time": 1752, "pitch": 72, "duration": 12, "velocity": 62}, {"time": 1758, "pitch": 69, "duration": 2, "velocity": 1}, {"time": 1764, "pitch": 57, "duration": 9, "velocity": 34}, {"time": 1770, "pitch": 64, "duration": 4, "velocity": 56}, {"time": 1770, "pitch": 69, "duration": 4, "velocity": 58}, {"time": 1770, "pitch": 72, "duration": 8, "velocity": 63}, {"time": 1776, "pitch": 52, "duration": 2, "velocity": 49}, {"time": 1782, "pitch": 43, "duration": 10, "velocity": 54}, {"time": 1782, "pitch": 62, "duration": 13, "velocity": 47}, {"time": 1782, "pitch": 67, "duration": 14, "velocity": 52}, {"time": 1782, "pitch": 71, "duration": 13, "velocity": 51}, {"time": 1788, "pitch": 50, "duration": 5, "velocity": 39}, {"time": 1794, "pitch": 55, "duration": 7, "velocity": 46}, {"time": 1800, "pitch": 57, "duration": 20, "velocity": 50}, {"time": 1800, "pitch": 62, "duration": 7, "velocity": 41}, {"time": 1800, "pitch": 69, "duration": 7, "velocity": 49}, {"time": 1806, "pitch": 59, "duration": 9, "velocity": 50}, {"time": 1812, "pitch": 62, "duration": 7, "velocity": 49}, {"time": 1812, "pitch": 67, "duration": 7, "velocity": 57}, {"time": 1818, "pitch": 59, "duration": 2, "velocity": 53}, {"time": 1824, "pitch": 62, "duration": 3, "velocity": 45}, {"time": 1830, "pitch": 41, "duration": 17, "velocity": 48}, {"time": 1830, "pitch": 65, "duration": 10, "velocity": 53}, {"time": 1830, "pitch": 69, "duration": 10, "velocity": 50}, {"time": 1836, "pitch": 48, "duration": 17, "velocity": 41}, {"time": 1842, "pitch": 53, "duration": 11, "velocity": 39}, {"time": 1848, "pitch": 60, "duration": 5, "velocity": 42}, {"time": 1854, "pitch": 43, "duration": 17, "velocity": 49}, {"time": 1854, "pitch": 67, "duration": 12, "velocity": 55}, {"time": 1854, "pitch": 71, "duration": 12, "velocity": 56}, {"time": 1860, "pitch": 50, "duration": 17, "velocity": 44}, {"time": 1866, "pitch": 55, "duration": 9, "velocity": 37}, {"time": 1872, "pitch": 62, "duration": 7, "velocity": 47}, {"time": 1878, "pitch": 45, "duration": 10, "velocity": 49}, {"time": 1878, "pitch": 72, "duration": 8, "velocity": 62}, {"time": 1884, "pitch": 52, "duration": 5, "velocity": 44}, {"time": 1884, "pitch": 71, "duration": 5, "velocity": 44}, {"time": 1890, "pitch": 57, "duration": 8, "velocity": 35}, {"time": 1890, "pitch": 64, "duration": 14, "velocity": 38}, {"time": 1890, "pitch": 69, "duration": 13, "velocity": 58}, {"time": 1896, "pitch": 59, "duration": 20, "velocity": 44}, {"time": 1902, "pitch": 60, "duration": 14, "velocity": 50}, {"time": 1914, "pitch": 69, "duration": 5, "velocity": 50}, {"time": 1926, "pitch": 45, "duration": 42, "velocity": 59}, {"time": 1932, "pitch": 52, "duration": 36, "velocity": 46}, {"time": 1938, "pitch": 57, "duration": 14, "velocity": 53}, {"time": 1944, "pitch": 59, "duration": 7, "velocity": 44}, {"time": 1950, "pitch": 60, "duration": 16, "velocity": 72}, {"time": 1962, "pitch": 57, "duration": 5, "velocity": 38}, {"time": 1968, "pitch": 59, "duration": 17, "velocity": 50}, {"time": 1974, "pitch": 43, "duration": 37, "velocity": 64}, {"time": 1980, "pitch": 50, "duration": 31, "velocity": 59}, {"time": 1986, "pitch": 55, "duration": 19, "velocity": 54}, {"time": 1992, "pitch": 57, "duration": 6, "velocity": 40}, {"time": 1998, "pitch": 59, "duration": 12, "velocity": 72}, {"time": 2010, "pitch": 55, "duration": 2, "velocity": 52}, {"time": 2022, "pitch": 45, "duration": 11, "velocity": 62}, {"time": 2028, "pitch": 52, "duration": 5, "velocity": 53}, {"time": 2034, "pitch": 57, "duration": 6, "velocity": 55}, {"time": 2040, "pitch": 59, "duration": 20, "velocity": 53}, {"time": 2046, "pitch": 60, "duration": 13, "velocity": 62}, {"time": 2052, "pitch": 64, "duration": 5, "velocity": 57}, {"time": 2058, "pitch": 69, "duration": 6, "velocity": 58}, {"time": 2064, "pitch": 72, "duration": 5, "velocity": 62}, {"time": 2070, "pitch": 48, "duration": 18, "velocity": 58}, {"time": 2070, "pitch": 64, "duration": 10, "velocity": 53}, {"time": 2070, "pitch": 67, "duration": 10, "velocity": 60}, {"time": 2070, "pitch": 72, "duration": 12, "velocity": 61}, {"time": 2076, "pitch": 55, "duration": 12, "velocity": 45}, {"time": 2082, "pitch": 60, "duration": 5, "velocity": 53}, {"time": 2088, "pitch": 62, "duration": 14, "velocity": 43}, {"time": 2094, "pitch": 43, "duration": 16, "velocity": 51}, {"time": 2094, "pitch": 55, "duration": 17, "velocity": 51}, {"time": 2094, "pitch": 67, "duration": 7, "velocity": 56}, {"time": 2094, "pitch": 71, "duration": 8, "velocity": 60}, {"time": 2106, "pitch": 69, "duration": 5, "velocity": 49}, {"time": 2112, "pitch": 71, "duration": 4, "velocity": 59}, {"time": 2118, "pitch": 45, "duration": 11, "velocity": 53}, {"time": 2118, "pitch": 64, "duration": 9, "velocity": 40}, {"time": 2118, "pitch": 69, "duration": 10, "velocity": 56}, {"time": 2118, "pitch": 72, "duration": 11, "velocity": 53}, {"time": 2124, "pitch": 52, "duration": 6, "velocity": 48}, {"time": 2130, "pitch": 57, "duration": 7, "velocity": 49}, {"time": 2136, "pitch": 59, "duration": 21, "velocity": 52}, {"time": 2142, "pitch": 60, "duration": 15, "velocity": 52}, {"time": 2142, "pitch": 76, "duration": 3, "velocity": 49}, {"time": 2142, "pitch": 84, "duration": 2, "velocity": 46}, {"time": 2148, "pitch": 74, "duration": 2, "velocity": 43}, {"time": 2148, "pitch": 83, "duration": 2, "velocity": 44}, {"time": 2154, "pitch": 62, "duration": 2, "velocity": 44}, {"time": 2154, "pitch": 72, "duration": 4, "velocity": 52}, {"time": 2154, "pitch": 81, "duration": 3, "velocity": 51}, {"time": 2166, "pitch": 43, "duration": 10, "velocity": 54}, {"time": 2166, "pitch": 71, "duration": 17, "velocity": 48}, {"time": 2166, "pitch": 74, "duration": 16, "velocity": 54}, {"time": 2166, "pitch": 81, "duration": 15, "velocity": 49}, {"time": 2172, "pitch": 50, "duration": 6, "velocity": 45}, {"time": 2178, "pitch": 55, "duration": 9, "velocity": 44}, {"time": 2184, "pitch": 57, "duration": 19, "velocity": 29}, {"time": 2190, "pitch": 59, "duration": 14, "velocity": 54}, {"time": 2190, "pitch": 71, "duration": 9, "velocity": 49}, {"time": 2190, "pitch": 74, "duration": 8, "velocity": 52}, {"time": 2190, "pitch": 79, "duration": 11, "velocity": 44}, {"time": 2214, "pitch": 41, "duration": 17, "velocity": 43}, {"time": 2214, "pitch": 57, "duration": 12, "velocity": 37}, {"time": 2214, "pitch": 60, "duration": 12, "velocity": 49}, {"time": 2214, "pitch": 64, "duration": 11, "velocity": 58}, {"time": 2220, "pitch": 48, "duration": 18, "velocity": 44}, {"time": 2226, "pitch": 53, "duration": 11, "velocity": 47}, {"time": 2232, "pitch": 59, "duration": 7, "velocity": 40}, {"time": 2238, "pitch": 43, "duration": 16, "velocity": 44}, {"time": 2238, "pitch": 62, "duration": 7, "velocity": 58}, {"time": 2238, "pitch": 67, "duration": 8, "velocity": 49}, {"time": 2244, "pitch": 50, "duration": 16, "velocity": 46}, {"time": 2250, "pitch": 55, "duration": 6, "velocity": 48}, {"time": 2256, "pitch": 69, "duration": 3, "velocity": 51}, {"time": 2259, "pitch": 71, "duration": 2, "velocity": 51}, {"time": 2262, "pitch": 45, "duration": 11, "velocity": 58}, {"time": 2262, "pitch": 64, "duration": 11, "velocity": 52}, {"time": 2262, "pitch": 72, "duration": 13, "velocity": 62}, {"time": 2268, "pitch": 52, "duration": 6, "velocity": 40}, {"time": 2274, "pitch": 57, "duration": 7, "velocity": 39}, {"time": 2280, "pitch": 59, "duration": 16, "velocity": 45}, {"time": 2286, "pitch": 60, "duration": 10, "velocity": 54}, {"time": 2292, "pitch": 76, "duration": 6, "velocity": 51}, {"time": 2292, "pitch": 84, "duration": 7, "velocity": 46}, {"time": 2298, "pitch": 83, "duration": 5, "velocity": 58}, {"time": 2304, "pitch": 81, "duration": 5, "velocity": 56}, {"time": 2310, "pitch": 45, "duration": 10, "velocity": 50}, {"time": 2310, "pitch": 76, "duration": 7, "velocity": 44}, {"time": 2310, "pitch": 84, "duration": 7, "velocity": 51}, {"time": 2316, "pitch": 52, "duration": 5, "velocity": 49}, {"time": 2322, "pitch": 57, "duration": 6, "velocity": 37}, {"time": 2328, "pitch": 59, "duration": 20, "velocity": 53}, {"time": 2328, "pitch": 76, "duration": 8, "velocity": 44}, {"time": 2334, "pitch": 60, "duration": 15, "velocity": 47}, {"time": 2334, "pitch": 84, "duration": 6, "velocity": 49}, {"time": 2340, "pitch": 83, "duration": 5, "velocity": 55}, {"time": 2346, "pitch": 62, "duration": 2, "velocity": 52}, {"time": 2346, "pitch": 81, "duration": 4, "velocity": 53}, {"time": 2352, "pitch": 79, "duration": 5, "velocity": 50}, {"time": 2358, "pitch": 43, "duration": 39, "velocity": 47}, {"time": 2358, "pitch": 74, "duration": 6, "velocity": 48}, {"time": 2358, "pitch": 83, "duration": 6, "velocity": 60}, {"time": 2364, "pitch": 50, "duration": 37, "velocity": 44}, {"time": 2370, "pitch": 55, "duration": 29, "velocity": 50}, {"time": 2376, "pitch": 57, "duration": 6, "velocity": 50}, {"time": 2382, "pitch": 59, "duration": 6, "velocity": 56}, {"time": 2388, "pitch": 62, "duration": 1, "velocity": 63}, {"time": 2394, "pitch": 67, "duration": 5, "velocity": 64}, {"time": 2400, "pitch": 71, "duration": 5, "velocity": 49}, {"time": 2406, "pitch": 45, "duration": 11, "velocity": 49}, {"time": 2406, "pitch": 64, "duration": 13, "velocity": 59}, {"time": 2406, "pitch": 72, "duration": 13, "velocity": 70}, {"time": 2412, "pitch": 52, "duration": 6, "velocity": 48}, {"time": 2418, "pitch": 57, "duration": 6, "velocity": 46}, {"time": 2424, "pitch": 59, "duration": 21, "velocity": 47}, {"time": 2424, "pitch": 64, "duration": 8, "velocity": 52}, {"time": 2430, "pitch": 72, "duration": 4, "velocity": 67}, {"time": 2436, "pitch": 71, "duration": 5, "velocity": 60}, {"time": 2442, "pitch": 72, "duration": 2, "velocity": 64}, {"time": 2448, "pitch": 74, "duration": 4, "velocity": 47}, {"time": 2451, "pitch": 67, "duration": 4, "velocity": 40}, {"time": 2454, "pitch": 48, "duration": 18, "velocity": 50}, {"time": 2454, "pitch": 72, "duration": 6, "velocity": 39}, {"time": 2454, "pitch": 76, "duration": 5, "velocity": 60}, {"time": 2460, "pitch": 55, "duration": 18, "velocity": 40}, {"time": 2466, "pitch": 60, "duration": 5, "velocity": 48}, {"time": 2472, "pitch": 67, "duration": 3, "velocity": 60}, {"time": 2478, "pitch": 47, "duration": 14, "velocity": 66}, {"time": 2478, "pitch": 62, "duration": 7, "velocity": 54}, {"time": 2478, "pitch": 67, "duration": 5, "velocity": 61}, {"time": 2484, "pitch": 55, "duration": 9, "velocity": 50}, {"time": 2490, "pitch": 59, "duration": 2, "velocity": 44}, {"time": 2490, "pitch": 69, "duration": 4, "velocity": 60}, {"time": 2496, "pitch": 71, "duration": 4, "velocity": 63}, {"time": 2502, "pitch": 45, "duration": 11, "velocity": 51}, {"time": 2502, "pitch": 64, "duration": 6, "velocity": 54}, {"time": 2502, "pitch": 69, "duration": 7, "velocity": 58}, {"time": 2502, "pitch": 72, "duration": 6, "velocity": 45}, {"time": 2508, "pitch": 52, "duration": 5, "velocity": 32}, {"time": 2514, "pitch": 57, "duration": 6, "velocity": 43}, {"time": 2514, "pitch": 64, "duration": 13, "velocity": 45}, {"time": 2514, "pitch": 69, "duration": 12, "velocity": 48}, {"time": 2514, "pitch": 72, "duration": 13, "velocity": 49}, {"time": 2520, "pitch": 59, "duration": 24, "velocity": 53}, {"time": 2526, "pitch": 60, "duration": 17, "velocity": 56}, {"time": 2532, "pitch": 64, "duration": 7, "velocity": 47}, {"time": 2538, "pitch": 72, "duration": 5, "velocity": 64}, {"time": 2544, "pitch": 69, "duration": 4, "velocity": 58}, {"time": 2550, "pitch": 55, "duration": 38, "velocity": 54}, {"time": 2550, "pitch": 62, "duration": 7, "velocity": 45}, {"time": 2550, "pitch": 67, "duration": 7, "velocity": 52}, {"time": 2550, "pitch": 71, "duration": 7, "velocity": 48}, {"time": 2556, "pitch": 59, "duration": 20, "velocity": 38}, {"time": 2562, "pitch": 62, "duration": 7, "velocity": 47}, {"time": 2568, "pitch": 69, "duration": 5, "velocity": 57}, {"time": 2574, "pitch": 67, "duration": 6, "velocity": 54}, {"time": 2580, "pitch": 59, "duration": 7, "velocity": 32}, {"time": 2586, "pitch": 62, "duration": 2, "velocity": 57}, {"time": 2589, "pitch": 67, "duration": 4, "velocity": 48}, {"time": 2592, "pitch": 69, "duration": 4, "velocity": 51}, {"time": 2595, "pitch": 72, "duration": 1, "velocity": 44}, {"time": 2598, "pitch": 41, "duration": 14, "velocity": 60}, {"time": 2598, "pitch": 60, "duration": 13, "velocity": 62}, {"time": 2598, "pitch": 65, "duration": 14, "velocity": 48}, {"time": 2604, "pitch": 48, "duration": 16, "velocity": 45}, {"time": 2610, "pitch": 53, "duration": 7, "velocity": 52}, {"time": 2616, "pitch": 69, "duration": 4, "velocity": 58}, {"time": 2622, "pitch": 43, "duration": 17, "velocity": 60}, {"time": 2622, "pitch": 62, "duration": 12, "velocity": 51}, {"time": 2622, "pitch": 67, "duration": 11, "velocity": 58}, {"time": 2622, "pitch": 71, "duration": 13, "velocity": 58}, {"time": 2628, "pitch": 50, "duration": 17, "velocity": 44}, {"time": 2634, "pitch": 55, "duration": 7, "velocity": 46}, {"time": 2640, "pitch": 69, "duration": 6, "velocity": 55}, {"time": 2643, "pitch": 71, "duration": 2, "velocity": 62}, {"time": 2646, "pitch": 45, "duration": 11, "velocity": 51}, {"time": 2646, "pitch": 64, "duration": 8, "velocity": 55}, {"time": 2646, "pitch": 72, "duration": 17, "velocity": 62}, {"time": 2652, "pitch": 52, "duration": 6, "velocity": 43}, {"time": 2652, "pitch": 69, "duration": 5, "velocity": 1}, {"time": 2658, "pitch": 57, "duration": 8, "velocity": 41}, {"time": 2664, "pitch": 59, "duration": 19, "velocity": 33}, {"time": 2664, "pitch": 67, "duration": 5, "velocity": 46}, {"time": 2670, "pitch": 60, "duration": 14, "velocity": 59}, {"time": 2670, "pitch": 64, "duration": 13, "velocity": 40}, {"time": 2670, "pitch": 69, "duration": 6, "velocity": 55}, {"time": 2682, "pitch": 69, "duration": 7, "velocity": 56}, {"time": 2688, "pitch": 71, "duration": 4, "velocity": 46}, {"time": 2694, "pitch": 48, "duration": 41, "velocity": 49}, {"time": 2694, "pitch": 67, "duration": 6, "velocity": 62}, {"time": 2694, "pitch": 72, "duration": 6, "velocity": 57}, {"time": 2700, "pitch": 55, "duration": 6, "velocity": 33}, {"time": 2706, "pitch": 60, "duration": 6, "velocity": 41}, {"time": 2706, "pitch": 64, "duration": 6, "velocity": 47}, {"time": 2706, "pitch": 67, "duration": 5, "velocity": 48}, {"time": 2706, "pitch": 72, "duration": 7, "velocity": 54}, {"time": 2712, "pitch": 55, "duration": 6, "velocity": 34}, {"time": 2718, "pitch": 60, "duration": 6, "velocity": 39}, {"time": 2718, "pitch": 64, "duration": 6, "velocity": 46}, {"time": 2718, "pitch": 67, "duration": 6, "velocity": 52}, {"time": 2718, "pitch": 72, "duration": 6, "velocity": 52}, {"time": 2724, "pitch": 55, "duration": 7, "velocity": 49}, {"time": 2730, "pitch": 60, "duration": 4, "velocity": 48}, {"time": 2730, "pitch": 64, "duration": 5, "velocity": 55}, {"time": 2730, "pitch": 67, "duration": 5, "velocity": 59}, {"time": 2730, "pitch": 72, "duration": 8, "velocity": 59}, {"time": 2736, "pitch": 55, "duration": 5, "velocity": 40}, {"time": 2742, "pitch": 47, "duration": 42, "velocity": 56}, {"time": 2742, "pitch": 62, "duration": 6, "velocity": 52}, {"time": 2742, "pitch": 67, "duration": 6, "velocity": 55}, {"time": 2742, "pitch": 71, "duration": 5, "velocity": 56}, {"time": 2748, "pitch": 55, "duration": 6, "velocity": 37}, {"time": 2754, "pitch": 59, "duration": 6, "velocity": 39}, {"time": 2754, "pitch": 62, "duration": 7, "velocity": 49}, {"time": 2754, "pitch": 67, "duration": 6, "velocity": 48}, {"time": 2754, "pitch": 71, "duration": 5, "velocity": 55}, {"time": 2760, "pitch": 55, "duration": 5, "velocity": 39}, {"time": 2766, "pitch": 59, "duration": 6, "velocity": 37}, {"time": 2766, "pitch": 62, "duration": 6, "velocity": 44}, {"time": 2766, "pitch": 67, "duration": 5, "velocity": 46}, {"time": 2766, "pitch": 71, "duration": 5, "velocity": 48}, {"time": 2772, "pitch": 55, "duration": 6, "velocity": 38}, {"time": 2778, "pitch": 59, "duration": 7, "velocity": 48}, {"time": 2778, "pitch": 62, "duration": 5, "velocity": 57}, {"time": 2778, "pitch": 67, "duration": 4, "velocity": 56}, {"time": 2778, "pitch": 71, "duration": 4, "velocity": 57}, {"time": 2784, "pitch": 55, "duration": 5, "velocity": 60}, {"time": 2790, "pitch": 53, "duration": 17, "velocity": 63}, {"time": 2790, "pitch": 62, "duration": 5, "velocity": 54}, {"time": 2790, "pitch": 65, "duration": 6, "velocity": 62}, {"time": 2790, "pitch": 69, "duration": 6, "velocity": 60}, {"time": 2796, "pitch": 59, "duration": 7, "velocity": 46}, {"time": 2802, "pitch": 65, "duration": 6, "velocity": 67}, {"time": 2802, "pitch": 69, "duration": 6, "velocity": 61}, {"time": 2808, "pitch": 59, "duration": 1, "velocity": 52}, {"time": 2814, "pitch": 43, "duration": 18, "velocity": 60}, {"time": 2814, "pitch": 62, "duration": 7, "velocity": 64}, {"time": 2814, "pitch": 67, "duration": 6, "velocity": 70}, {"time": 2814, "pitch": 71, "duration": 6, "velocity": 63}, {"time": 2820, "pitch": 50, "duration": 6, "velocity": 34}, {"time": 2826, "pitch": 55, "duration": 8, "velocity": 46}, {"time": 2826, "pitch": 62, "duration": 6, "velocity": 56}, {"time": 2826, "pitch": 67, "duration": 4, "velocity": 60}, {"time": 2826, "pitch": 71, "duration": 4, "velocity": 47}, {"time": 2832, "pitch": 50, "duration": 5, "velocity": 52}, {"time": 2838, "pitch": 45, "duration": 30, "velocity": 64}, {"time": 2838, "pitch": 64, "duration": 7, "velocity": 58}, {"time": 2838, "pitch": 69, "duration": 6, "velocity": 60}, {"time": 2838, "pitch": 72, "duration": 6, "velocity": 60}, {"time": 2844, "pitch": 52, "duration": 5, "velocity": 40}, {"time": 2850, "pitch": 57, "duration": 6, "velocity": 41}, {"time": 2850, "pitch": 64, "duration": 7, "velocity": 58}, {"time": 2850, "pitch": 69, "duration": 7, "velocity": 61}, {"time": 2850, "pitch": 72, "duration": 6, "velocity": 59}, {"time": 2856, "pitch": 52, "duration": 19, "velocity": 45}, {"time": 2862, "pitch": 64, "duration": 6, "velocity": 61}, {"time": 2862, "pitch": 69, "duration": 6, "velocity": 63}, {"time": 2862, "pitch": 72, "duration": 8, "velocity": 62}, {"time": 2868, "pitch": 57, "duration": 1, "velocity": 39}, {"time": 2874, "pitch": 43, "duration": 4, "velocity": 51}, {"time": 2874, "pitch": 62, "duration": 6, "velocity": 56}, {"time": 2874, "pitch": 67, "duration": 4, "velocity": 59}, {"time": 2874, "pitch": 71, "duration": 4, "velocity": 61}, {"time": 2886, "pitch": 53, "duration": 18, "velocity": 59}, {"time": 2886, "pitch": 60, "duration": 6, "velocity": 66}, {"time": 2886, "pitch": 65, "duration": 5, "velocity": 75}, {"time": 2886, "pitch": 69, "duration": 6, "velocity": 67}, {"time": 2892, "pitch": 57, "duration": 8, "velocity": 44}, {"time": 2898, "pitch": 60, "duration": 5, "velocity": 64}, {"time": 2898, "pitch": 65, "duration": 5, "velocity": 69}, {"time": 2898, "pitch": 69, "duration": 6, "velocity": 67}, {"time": 2904, "pitch": 57, "duration": 1, "velocity": 47}, {"time": 2910, "pitch": 43, "duration": 18, "velocity": 67}, {"time": 2910, "pitch": 62, "duration": 6, "velocity": 62}, {"time": 2910, "pitch": 67, "duration": 6, "velocity": 62}, {"time": 2910, "pitch": 71, "duration": 6, "velocity": 63}, {"time": 2916, "pitch": 55, "duration": 7, "velocity": 43}, {"time": 2922, "pitch": 62, "duration": 4, "velocity": 63}, {"time": 2922, "pitch": 67, "duration": 5, "velocity": 67}, {"time": 2922, "pitch": 71, "duration": 2, "velocity": 55}, {"time": 2928, "pitch": 55, "duration": 6, "velocity": 46}, {"time": 2934, "pitch": 48, "duration": 12, "velocity": 60}, {"time": 2934, "pitch": 64, "duration": 2, "velocity": 50}, {"time": 2934, "pitch": 67, "duration": 7, "velocity": 67}, {"time": 2934, "pitch": 72, "duration": 5, "velocity": 70}, {"time": 2940, "pitch": 64, "duration": 3, "velocity": 45}, {"time": 2946, "pitch": 47, "duration": 11, "velocity": 49}, {"time": 2946, "pitch": 67, "duration": 6, "velocity": 62}, {"time": 2946, "pitch": 71, "duration": 6, "velocity": 62}, {"time": 2952, "pitch": 62, "duration": 5, "velocity": 50}, {"time": 2958, "pitch": 45, "duration": 14, "velocity": 51}, {"time": 2958, "pitch": 69, "duration": 6, "velocity": 59}, {"time": 2958, "pitch": 72, "duration": 6, "velocity": 63}, {"time": 2964, "pitch": 52, "duration": 8, "velocity": 43}, {"time": 2970, "pitch": 57, "duration": 4, "velocity": 44}, {"time": 2970, "pitch": 64, "duration": 3, "velocity": 54}, {"time": 2973, "pitch": 69, "duration": 5, "velocity": 59}, {"time": 2976, "pitch": 71, "duration": 3, "velocity": 60}, {"time": 2979, "pitch": 72, "duration": 9, "velocity": 70}, {"time": 2982, "pitch": 50, "duration": 17, "velocity": 52}, {"time": 2982, "pitch": 65, "duration": 6, "velocity": 67}, {"time": 2982, "pitch": 69, "duration": 6, "velocity": 64}, {"time": 2988, "pitch": 57, "duration": 9, "velocity": 44}, {"time": 2994, "pitch": 60, "duration": 4, "velocity": 67}, {"time": 3000, "pitch": 69, "duration": 4, "velocity": 56}, {"time": 3006, "pitch": 62, "duration": 8, "velocity": 53}, {"time": 3006, "pitch": 67, "duration": 9, "velocity": 61}, {"time": 3006, "pitch": 71, "duration": 8, "velocity": 64}, {"time": 3012, "pitch": 43, "duration": 12, "velocity": 45}, {"time": 3018, "pitch": 50, "duration": 11, "velocity": 47}, {"time": 3024, "pitch": 55, "duration": 3, "velocity": 47}, {"time": 3030, "pitch": 45, "duration": 10, "velocity": 59}, {"time": 3030, "pitch": 64, "duration": 9, "velocity": 50}, {"time": 3030, "pitch": 72, "duration": 9, "velocity": 60}, {"time": 3036, "pitch": 52, "duration": 6, "velocity": 51}, {"time": 3042, "pitch": 57, "duration": 7, "velocity": 43}, {"time": 3048, "pitch": 59, "duration": 25, "velocity": 59}, {"time": 3054, "pitch": 60, "duration": 20, "velocity": 62}, {"time": 3057, "pitch": 64, "duration": 2, "velocity": 44}, {"time": 3060, "pitch": 69, "duration": 3, "velocity": 36}, {"time": 3063, "pitch": 71, "duration": 2, "velocity": 55}, {"time": 3066, "pitch": 72, "duration": 3, "velocity": 70}, {"time": 3069, "pitch": 76, "duration": 3, "velocity": 44}, {"time": 3072, "pitch": 81, "duration": 2, "velocity": 42}, {"time": 3075, "pitch": 83, "duration": 3, "velocity": 56}, {"time": 3078, "pitch": 48, "duration": 41, "velocity": 49}, {"time": 3078, "pitch": 67, "duration": 6, "velocity": 62}, {"time": 3078, "pitch": 72, "duration": 6, "velocity": 57}, {"time": 3078, "pitch": 84, "duration": 7, "velocity": 66}, {"time": 3084, "pitch": 55, "duration": 6, "velocity": 33}, {"time": 3090, "pitch": 60, "duration": 6, "velocity": 41}, {"time": 3090, "pitch": 64, "duration": 6, "velocity": 47}, {"time": 3090, "pitch": 67, "duration": 5, "velocity": 48}, {"time": 3090, "pitch": 72, "duration": 7, "velocity": 54}, {"time": 3096, "pitch": 55, "duration": 6, "velocity": 34}, {"time": 3102, "pitch": 60, "duration": 6, "velocity": 39}, {"time": 3102, "pitch": 64, "duration": 6, "velocity": 46}, {"time": 3102, "pitch": 67, "duration": 6, "velocity": 52}, {"time": 3102, "pitch": 72, "duration": 6, "velocity": 52}, {"time": 3108, "pitch": 55, "duration": 7, "velocity": 49}, {"time": 3114, "pitch": 60, "duration": 4, "velocity": 48}, {"time": 3114, "pitch": 64, "duration": 5, "velocity": 55}, {"time": 3114, "pitch": 67, "duration": 5, "velocity": 59}, {"time": 3114, "pitch": 72, "duration": 8, "velocity": 59}, {"time": 3120, "pitch": 55, "duration": 5, "velocity": 40}, {"time": 3126, "pitch": 47, "duration": 42, "velocity": 56}, {"time": 3126, "pitch": 62, "duration": 6, "velocity": 52}, {"time": 3126, "pitch": 67, "duration": 6, "velocity": 55}, {"time": 3126, "pitch": 71, "duration": 5, "velocity": 56}, {"time": 3132, "pitch": 55, "duration": 6, "velocity": 37}, {"time": 3138, "pitch": 59, "duration": 6, "velocity": 39}, {"time": 3138, "pitch": 62, "duration": 7, "velocity": 49}, {"time": 3138, "pitch": 67, "duration": 6, "velocity": 48}, {"time": 3138, "pitch": 71, "duration": 5, "velocity": 55}, {"time": 3144, "pitch": 55, "duration": 5, "velocity": 39}, {"time": 3150, "pitch": 59, "duration": 6, "velocity": 37}, {"time": 3150, "pitch": 62, "duration": 6, "velocity": 44}, {"time": 3150, "pitch": 67, "duration": 5, "velocity": 46}, {"time": 3150, "pitch": 71, "duration": 5, "velocity": 48}, {"time": 3156, "pitch": 55, "duration": 6, "velocity": 38}, {"time": 3162, "pitch": 59, "duration": 7, "velocity": 48}, {"time": 3162, "pitch": 62, "duration": 5, "velocity": 57}, {"time": 3162, "pitch": 67, "duration": 4, "velocity": 56}, {"time": 3162, "pitch": 71, "duration": 4, "velocity": 57}, {"time": 3168, "pitch": 55, "duration": 5, "velocity": 60}, {"time": 3174, "pitch": 53, "duration": 17, "velocity": 63}, {"time": 3174, "pitch": 62, "duration": 5, "velocity": 54}, {"time": 3174, "pitch": 65, "duration": 6, "velocity": 62}, {"time": 3174, "pitch": 69, "duration": 6, "velocity": 60}, {"time": 3180, "pitch": 59, "duration": 7, "velocity": 46}, {"time": 3186, "pitch": 65, "duration": 6, "velocity": 67}, {"time": 3186, "pitch": 69, "duration": 6, "velocity": 61}, {"time": 3192, "pitch": 59, "duration": 1, "velocity": 52}, {"time": 3198, "pitch": 43, "duration": 18, "velocity": 60}, {"time": 3198, "pitch": 62, "duration": 7, "velocity": 64}, {"time": 3198, "pitch": 67, "duration": 6, "velocity": 70}, {"time": 3198, "pitch": 71, "duration": 6, "velocity": 63}, {"time": 3204, "pitch": 50, "duration": 6, "velocity": 34}, {"time": 3210, "pitch": 55, "duration": 8, "velocity": 46}, {"time": 3210, "pitch": 62, "duration": 6, "velocity": 56}, {"time": 3210, "pitch": 67, "duration": 4, "velocity": 60}, {"time": 3210, "pitch": 71, "duration": 4, "velocity": 47}, {"time": 3216, "pitch": 50, "duration": 5, "velocity": 52}, {"time": 3222, "pitch": 45, "duration": 30, "velocity": 64}, {"time": 3222, "pitch": 64, "duration": 7, "velocity": 58}, {"time": 3222, "pitch": 69, "duration": 6, "velocity": 60}, {"time": 3222, "pitch": 72, "duration": 6, "velocity": 60}, {"time": 3228, "pitch": 52, "duration": 5, "velocity": 40}, {"time": 3234, "pitch": 57, "duration": 6, "velocity": 41}, {"time": 3234, "pitch": 64, "duration": 7, "velocity": 58}, {"time": 3234, "pitch": 69, "duration": 7, "velocity": 61}, {"time": 3234, "pitch": 72, "duration": 6, "velocity": 59}, {"time": 3240, "pitch": 52, "duration": 19, "velocity": 45}, {"time": 3246, "pitch": 64, "duration": 6, "velocity": 61}, {"time": 3246, "pitch": 69, "duration": 6, "velocity": 63}, {"time": 3246, "pitch": 72, "duration": 8, "velocity": 62}, {"time": 3252, "pitch": 57, "duration": 1, "velocity": 39}, {"time": 3258, "pitch": 43, "duration": 4, "velocity": 51}, {"time": 3258, "pitch": 62, "duration": 6, "velocity": 56}, {"time": 3258, "pitch": 67, "duration": 4, "velocity": 59}, {"time": 3258, "pitch": 71, "duration": 4, "velocity": 61}, {"time": 3270, "pitch": 53, "duration": 18, "velocity": 59}, {"time": 3270, "pitch": 60, "duration": 6, "velocity": 66}, {"time": 3270, "pitch": 65, "duration": 5, "velocity": 75}, {"time": 3270, "pitch": 69, "duration": 6, "velocity": 67}, {"time": 3276, "pitch": 57, "duration": 8, "velocity": 44}, {"time": 3282, "pitch": 60, "duration": 5, "velocity": 64}, {"time": 3282, "pitch": 65, "duration": 5, "velocity": 69}, {"time": 3282, "pitch": 69, "duration": 6, "velocity": 67}, {"time": 3288, "pitch": 57, "duration": 1, "velocity": 47}, {"time": 3294, "pitch": 43, "duration": 18, "velocity": 67}, {"time": 3294, "pitch": 62, "duration": 6, "velocity": 62}, {"time": 3294, "pitch": 67, "duration": 6, "velocity": 62}, {"time": 3294, "pitch": 71, "duration": 6, "velocity": 63}, {"time": 3300, "pitch": 55, "duration": 7, "velocity": 43}, {"time": 3306, "pitch": 62, "duration": 4, "velocity": 63}, {"time": 3306, "pitch": 67, "duration": 5, "velocity": 67}, {"time": 3306, "pitch": 71, "duration": 2, "velocity": 55}, {"time": 3312, "pitch": 55, "duration": 6, "velocity": 46}, {"time": 3318, "pitch": 48, "duration": 12, "velocity": 60}, {"time": 3318, "pitch": 64, "duration": 2, "velocity": 50}, {"time": 3318, "pitch": 67, "duration": 7, "velocity": 67}, {"time": 3318, "pitch": 72, "duration": 5, "velocity": 70}, {"time": 3324, "pitch": 64, "duration": 3, "velocity": 45}, {"time": 3330, "pitch": 47, "duration": 11, "velocity": 49}, {"time": 3330, "pitch": 67, "duration": 6, "velocity": 62}, {"time": 3330, "pitch": 71, "duration": 6, "velocity": 62}, {"time": 3336, "pitch": 62, "duration": 5, "velocity": 50}, {"time": 3342, "pitch": 45, "duration": 14, "velocity": 51}, {"time": 3342, "pitch": 69, "duration": 6, "velocity": 59}, {"time": 3342, "pitch": 72, "duration": 6, "velocity": 63}, {"time": 3348, "pitch": 52, "duration": 8, "velocity": 43}, {"time": 3354, "pitch": 57, "duration": 4, "velocity": 44}, {"time": 3354, "pitch": 64, "duration": 3, "velocity": 54}, {"time": 3357, "pitch": 69, "duration": 5, "velocity": 59}, {"time": 3360, "pitch": 71, "duration": 3, "velocity": 60}, {"time": 3363, "pitch": 72, "duration": 9, "velocity": 70}, {"time": 3366, "pitch": 50, "duration": 17, "velocity": 52}, {"time": 3366, "pitch": 65, "duration": 6, "velocity": 67}, {"time": 3366, "pitch": 69, "duration": 6, "velocity": 64}, {"time": 3372, "pitch": 57, "duration": 9, "velocity": 44}, {"time": 3378, "pitch": 60, "duration": 4, "velocity": 67}, {"time": 3384, "pitch": 69, "duration": 4, "velocity": 56}, {"time": 3390, "pitch": 62, "duration": 8, "velocity": 53}, {"time": 3390, "pitch": 67, "duration": 9, "velocity": 61}, {"time": 3390, "pitch": 71, "duration": 8, "velocity": 64}, {"time": 3396, "pitch": 43, "duration": 12, "velocity": 45}, {"time": 3402, "pitch": 50, "duration": 11, "velocity": 47}, {"time": 3408, "pitch": 55, "duration": 3, "velocity": 47}, {"time": 3414, "pitch": 45, "duration": 10, "velocity": 59}, {"time": 3414, "pitch": 64, "duration": 9, "velocity": 50}, {"time": 3414, "pitch": 72, "duration": 9, "velocity": 60}, {"time": 3420, "pitch": 52, "duration": 6, "velocity": 51}, {"time": 3426, "pitch": 57, "duration": 7, "velocity": 43}, {"time": 3432, "pitch": 59, "duration": 25, "velocity": 59}, {"time": 3438, "pitch": 60, "duration": 20, "velocity": 62}, {"time": 3441, "pitch": 64, "duration": 2, "velocity": 44}, {"time": 3444, "pitch": 69, "duration": 3, "velocity": 36}, {"time": 3447, "pitch": 71, "duration": 2, "velocity": 55}, {"time": 3450, "pitch": 72, "duration": 3, "velocity": 70}, {"time": 3453, "pitch": 76, "duration": 3, "velocity": 44}, {"time": 3456, "pitch": 81, "duration": 2, "velocity": 42}, {"time": 3459, "pitch": 83, "duration": 3, "velocity": 56}, {"time": 3462, "pitch": 45, "duration": 13, "velocity": 54}, {"time": 3462, "pitch": 64, "duration": 20, "velocity": 57}, {"time": 3462, "pitch": 69, "duration": 32, "velocity": 51}, {"time": 3462, "pitch": 72, "duration": 33, "velocity": 59}, {"time": 3462, "pitch": 84, "duration": 7, "velocity": 66}, {"time": 3465, "pitch": 52, "duration": 6, "velocity": 31}, {"time": 3474, "pitch": 57, "duration": 6, "velocity": 44}, {"time": 3480, "pitch": 59, "duration": 21, "velocity": 54}, {"time": 3492, "pitch": 60, "duration": 9, "velocity": 44}, {"time": 3498, "pitch": 64, "duration": 5, "velocity": 55}, {"time": 3504, "pitch": 72, "duration": 5, "velocity": 67}, {"time": 3510, "pitch": 43, "duration": 6, "velocity": 54}, {"time": 3510, "pitch": 62, "duration": 19, "velocity": 47}, {"time": 3510, "pitch": 67, "duration": 19, "velocity": 48}, {"time": 3510, "pitch": 71, "duration": 25, "velocity": 57}, {"time": 3516, "pitch": 55, "duration": 7, "velocity": 45}, {"time": 3522, "pitch": 57, "duration": 27, "velocity": 52}, {"time": 3528, "pitch": 59, "duration": 20, "velocity": 51}, {"time": 3534, "pitch": 62, "duration": 7, "velocity": 31}, {"time": 3540, "pitch": 72, "duration": 6, "velocity": 67}, {"time": 3546, "pitch": 71, "duration": 5, "velocity": 63}, {"time": 3552, "pitch": 69, "duration": 4, "velocity": 55}, {"time": 3558, "pitch": 45, "duration": 12, "velocity": 46}, {"time": 3558, "pitch": 64, "duration": 24, "velocity": 59}, {"time": 3558, "pitch": 72, "duration": 27, "velocity": 67}, {"time": 3564, "pitch": 52, "duration": 6, "velocity": 37}, {"time": 3570, "pitch": 57, "duration": 8, "velocity": 39}, {"time": 3576, "pitch": 59, "duration": 21, "velocity": 54}, {"time": 3582, "pitch": 60, "duration": 14, "velocity": 46}, {"time": 3588, "pitch": 64, "duration": 6, "velocity": 30}, {"time": 3594, "pitch": 69, "duration": 4, "velocity": 40}, {"time": 3600, "pitch": 71, "duration": 5, "velocity": 44}, {"time": 3606, "pitch": 43, "duration": 10, "velocity": 58}, {"time": 3606, "pitch": 62, "duration": 30, "velocity": 50}, {"time": 3606, "pitch": 67, "duration": 30, "velocity": 58}, {"time": 3606, "pitch": 71, "duration": 31, "velocity": 56}, {"time": 3612, "pitch": 50, "duration": 5, "velocity": 40}, {"time": 3618, "pitch": 55, "duration": 8, "velocity": 46}, {"time": 3624, "pitch": 57, "duration": 21, "velocity": 48}, {"time": 3636, "pitch": 59, "duration": 9, "velocity": 42}, {"time": 3642, "pitch": 62, "duration": 5, "velocity": 38}, {"time": 3654, "pitch": 45, "duration": 10, "velocity": 51}, {"time": 3654, "pitch": 64, "duration": 24, "velocity": 56}, {"time": 3654, "pitch": 72, "duration": 24, "velocity": 52}, {"time": 3660, "pitch": 52, "duration": 5, "velocity": 42}, {"time": 3666, "pitch": 57, "duration": 7, "velocity": 30}, {"time": 3672, "pitch": 59, "duration": 18, "velocity": 44}, {"time": 3678, "pitch": 60, "duration": 11, "velocity": 44}, {"time": 3683, "pitch": 76, "duration": 6, "velocity": 85}, {"time": 3684, "pitch": 64, "duration": 6, "velocity": 40}, {"time": 3689, "pitch": 74, "duration": 6, "velocity": 64}, {"time": 3695, "pitch": 72, "duration": 6, "velocity": 62}, {"time": 3701, "pitch": 74, "duration": 15, "velocity": 63}, {"time": 3702, "pitch": 43, "duration": 9, "velocity": 47}, {"time": 3702, "pitch": 62, "duration": 22, "velocity": 43}, {"time": 3702, "pitch": 67, "duration": 21, "velocity": 46}, {"time": 3702, "pitch": 71, "duration": 23, "velocity": 45}, {"time": 3708, "pitch": 50, "duration": 5, "velocity": 32}, {"time": 3714, "pitch": 55, "duration": 7, "velocity": 36}, {"time": 3720, "pitch": 57, "duration": 19, "velocity": 57}, {"time": 3726, "pitch": 59, "duration": 12, "velocity": 47}, {"time": 3731, "pitch": 76, "duration": 6, "velocity": 70}, {"time": 3732, "pitch": 62, "duration": 8, "velocity": 36}, {"time": 3737, "pitch": 74, "duration": 5, "velocity": 72}, {"time": 3738, "pitch": 74, "duration": 4, "velocity": 52}, {"time": 3743, "pitch": 72, "duration": 6, "velocity": 73}, {"time": 3749, "pitch": 69, "duration": 15, "velocity": 55}, {"time": 3750, "pitch": 41, "duration": 10, "velocity": 46}, {"time": 3750, "pitch": 60, "duration": 26, "velocity": 44}, {"time": 3750, "pitch": 65, "duration": 28, "velocity": 45}, {"time": 3750, "pitch": 69, "duration": 14, "velocity": 49}, {"time": 3756, "pitch": 48, "duration": 4, "velocity": 31}, {"time": 3762, "pitch": 53, "duration": 9, "velocity": 37}, {"time": 3767, "pitch": 64, "duration": 8, "velocity": 57}, {"time": 3768, "pitch": 55, "duration": 9, "velocity": 54}, {"time": 3773, "pitch": 67, "duration": 7, "velocity": 62}, {"time": 3779, "pitch": 69, "duration": 3, "velocity": 64}, {"time": 3785, "pitch": 74, "duration": 7, "velocity": 70}, {"time": 3786, "pitch": 43, "duration": 6, "velocity": 63}, {"time": 3786, "pitch": 62, "duration": 7, "velocity": 58}, {"time": 3786, "pitch": 67, "duration": 6, "velocity": 60}, {"time": 3792, "pitch": 74, "duration": 11, "velocity": 56}, {"time": 3798, "pitch": 45, "duration": 10, "velocity": 58}, {"time": 3798, "pitch": 64, "duration": 27, "velocity": 51}, {"time": 3798, "pitch": 69, "duration": 13, "velocity": 45}, {"time": 3798, "pitch": 72, "duration": 36, "velocity": 58}, {"time": 3803, "pitch": 69, "duration": 8, "velocity": 62}, {"time": 3804, "pitch": 52, "duration": 5, "velocity": 35}, {"time": 3810, "pitch": 57, "duration": 8, "velocity": 46}, {"time": 3816, "pitch": 59, "duration": 19, "velocity": 57}, {"time": 3822, "pitch": 60, "duration": 13, "velocity": 49}], "annotations": [{"time": 5, "annotation": {"number": 64, "value": 127}, "group": "control_change"}, {"time": 53, "annotation": {"number": 64, "value": 0}, "group": "control_change"}, {"time": 60, "annotation": {"number": 64, "value": 127}, "group": "control_change"}, {"time": 101, "annotation": {"number": 64, "value": 0}, "group": "control_change"}, {"time": 108, "annotation": {"number": 64, "value": 127}, "group": "control_change"}, {"time": 152, "annotation": {"number": 64, "value": 0}, "group": "control_change"}, {"time": 157, "annotation": {"number": 64, "value": 127}, "group": "control_change"}, {"time": 197, "annotation": {"number": 64, "value": 0}, "group": "control_change"}, {"time": 206, "annotation": {"number": 64, "value": 127}, "group": "control_change"}, {"time": 245, "annotation": {"number": 64, "value": 0}, "group": "control_change"}, {"time": 253, "annotation": {"number": 64, "value": 127}, "group": "control_change"}, {"time": 293, "annotation": {"number": 64, "value": 0}, "group": "control_change"}, {"time": 300, "annotation": {"number": 64, "value": 127}, "group": "control_change"}, {"time": 329, "annotation": {"number": 64, "value": 0}, "group": "control_change"}, {"time": 334, "annotation": {"number": 64, "value": 127}, "group": "control_change"}, {"time": 341, "annotation": {"number": 64, "value": 0}, "group": "control_change"}, {"time": 349, "annotation": {"number": 64, "value": 127}, "group": "control_change"}, {"time": 377, "annotation": {"number": 64, "value": 0}, "group": "control_change"}, {"time": 390, "annotation": {"number": 64, "value": 127}, "group": "control_change"}, {"time": 436, "annotation": {"number": 64, "value": 0}, "group": "control_change"}, {"time": 446, "annotation": {"number": 64, "value": 127}, "group": "control_change"}, {"time": 487, "annotation": {"number": 64, "value": 0}, "group": "control_change"}, {"time": 494, "annotation": {"number": 64, "value": 127}, "group": "control_change"}, {"time": 532, "annotation": {"number": 64, "value": 0}, "group": "control_change"}, {"time": 541, "annotation": {"number": 64, "value": 127}, "group": "control_change"}, {"time": 558, "annotation": {"number": 64, "value": 0}, "group": "control_change"}, {"time": 564, "annotation": {"number": 64, "value": 127}, "group": "control_change"}, {"time": 581, "annotation": {"number": 64, "value": 0}, "group": "control_change"}, {"time": 588, "annotation": {"number": 64, "value": 127}, "group": "control_change"}, {"time": 630, "annotation": {"number": 64, "value": 0}, "group": "control_change"}, {"time": 637, "annotation": {"number": 64, "value": 127}, "group": "control_change"}, {"time": 672, "annotation": {"number": 64, "value": 0}, "group": "control_change"}, {"time": 683, "annotation": {"number": 64, "value": 127}, "group": "control_change"}, {"time": 701, "annotation": {"number": 64, "value": 0}, "group": "control_change"}, {"time": 710, "annotation": {"number": 64, "value": 127}, "group": "control_change"}, {"time": 723, "annotation": {"number": 64, "value": 0}, "group": "control_change"}, {"time": 735, "annotation": {"number": 64, "value": 127}, "group": "control_change"}, {"time": 748, "annotation": {"number": 64, "value": 0}, "group": "control_change"}, {"time": 751, "annotation": {"number": 64, "value": 127}, "group": "control_change"}, {"time": 772, "annotation": {"number": 64, "value": 0}, "group": "control_change"}, {"time": 783, "annotation": {"number": 64, "value": 127}, "group": "control_change"}, {"time": 821, "annotation": {"number": 64, "value": 0}, "group": "control_change"}, {"time": 829, "annotation": {"number": 64, "value": 127}, "group": "control_change"}, {"time": 864, "annotation": {"number": 64, "value": 0}, "group": "control_change"}, {"time": 880, "annotation": {"number": 64, "value": 127}, "group": "control_change"}, {"time": 916, "annotation": {"number": 64, "value": 0}, "group": "control_change"}, {"time": 924, "annotation": {"number": 64, "value": 127}, "group": "control_change"}, {"time": 942, "annotation": {"number": 64, "value": 0}, "group": "control_change"}, {"time": 949, "annotation": {"number": 64, "value": 127}, "group": "control_change"}, {"time": 964, "annotation": {"number": 64, "value": 0}, "group": "control_change"}, {"time": 973, "annotation": {"number": 64, "value": 127}, "group": "control_change"}, {"time": 1013, "annotation": {"number": 64, "value": 0}, "group": "control_change"}, {"time": 1023, "annotation": {"number": 64, "value": 127}, "group": "control_change"}, {"time": 1062, "annotation": {"number": 64, "value": 0}, "group": "control_change"}, {"time": 1070, "annotation": {"number": 64, "value": 127}, "group": "control_change"}, {"time": 1087, "annotation": {"number": 64, "value": 0}, "group": "control_change"}, {"time": 1097, "annotation": {"number": 64, "value": 127}, "group": "control_change"}, {"time": 1108, "annotation": {"number": 64, "value": 0}, "group": "control_change"}, {"time": 1117, "annotation": {"number": 64, "value": 127}, "group": "control_change"}, {"time": 1158, "annotation": {"number": 64, "value": 0}, "group": "control_change"}, {"time": 1162, "annotation": {"number": 64, "value": 127}, "group": "control_change"}, {"time": 1204, "annotation": {"number": 64, "value": 0}, "group": "control_change"}, {"time": 1212, "annotation": {"number": 64, "value": 127}, "group": "control_change"}, {"time": 1254, "annotation": {"number": 64, "value": 0}, "group": "control_change"}, {"time": 1260, "annotation": {"number": 64, "value": 127}, "group": "control_change"}, {"time": 1278, "annotation": {"number": 64, "value": 0}, "group": "control_change"}, {"time": 1285, "annotation": {"number": 64, "value": 127}, "group": "control_change"}, {"time": 1302, "annotation": {"number": 64, "value": 0}, "group": "control_change"}, {"time": 1307, "annotation": {"number": 64, "value": 127}, "group": "control_change"}, {"time": 1350, "annotation": {"number": 64, "value": 0}, "group": "control_change"}, {"time": 1356, "annotation": {"number": 64, "value": 127}, "group": "control_change"}, {"time": 1374, "annotation": {"number": 64, "value": 0}, "group": "control_change"}, {"time": 1380, "annotation": {"number": 64, "value": 127}, "group": "control_change"}, {"time": 1396, "annotation": {"number": 64, "value": 0}, "group": "control_change"}, {"time": 1403, "annotation": {"number": 64, "value": 127}, "group": "control_change"}, {"time": 1410, "annotation": {"number": 64, "value": 0}, "group": "control_change"}, {"time": 1416, "annotation": {"number": 64, "value": 127}, "group": "control_change"}, {"time": 1422, "annotation": {"number": 64, "value": 0}, "group": "control_change"}, {"time": 1429, "annotation": {"number": 64, "value": 127}, "group": "control_change"}, {"time": 1445, "annotation": {"number": 64, "value": 0}, "group": "control_change"}, {"time": 1454, "annotation": {"number": 64, "value": 127}, "group": "control_change"}, {"time": 1470, "annotation": {"number": 64, "value": 0}, "group": "control_change"}, {"time": 1478, "annotation": {"number": 64, "value": 127}, "group": "control_change"}, {"time": 1492, "annotation": {"number": 64, "value": 0}, "group": "control_change"}, {"time": 1503, "annotation": {"number": 64, "value": 127}, "group": "control_change"}, {"time": 1555, "annotation": {"number": 64, "value": 0}, "group": "control_change"}, {"time": 1567, "annotation": {"number": 64, "value": 127}, "group": "control_change"}, {"time": 1595, "annotation": {"number": 64, "value": 0}, "group": "control_change"}, {"time": 1603, "annotation": {"number": 64, "value": 127}, "group": "control_change"}, {"time": 1636, "annotation": {"number": 64, "value": 0}, "group": "control_change"}, {"time": 1640, "annotation": {"number": 64, "value": 127}, "group": "control_change"}, {"time": 1685, "annotation": {"number": 64, "value": 0}, "group": "control_change"}, {"time": 1716, "annotation": {"number": 64, "value": 127}, "group": "control_change"}, {"time": 1731, "annotation": {"number": 64, "value": 0}, "group": "control_change"}, {"time": 1747, "annotation": {"number": 64, "value": 127}, "group": "control_change"}, {"time": 1782, "annotation": {"number": 64, "value": 0}, "group": "control_change"}, {"time": 1788, "annotation": {"number": 64, "value": 127}, "group": "control_change"}, {"time": 1831, "annotation": {"number": 64, "value": 0}, "group": "control_change"}, {"time": 1835, "annotation": {"number": 64, "value": 127}, "group": "control_change"}, {"time": 1854, "annotation": {"number": 64, "value": 0}, "group": "control_change"}, {"time": 1858, "annotation": {"number": 64, "value": 127}, "group": "control_change"}, {"time": 1878, "annotation": {"number": 64, "value": 0}, "group": "control_change"}, {"time": 1882, "annotation": {"number": 64, "value": 127}, "group": "control_change"}, {"time": 1924, "annotation": {"number": 64, "value": 0}, "group": "control_change"}, {"time": 1926, "annotation": {"number": 64, "value": 127}, "group": "control_change"}, {"time": 1972, "annotation": {"number": 64, "value": 0}, "group": "control_change"}, {"time": 1982, "annotation": {"number": 64, "value": 127}, "group": "control_change"}, {"time": 2023, "annotation": {"number": 64, "value": 0}, "group": "control_change"}, {"time": 2030, "annotation": {"number": 64, "value": 127}, "group": "control_change"}, {"time": 2068, "annotation": {"number": 64, "value": 0}, "group": "control_change"}, {"time": 2077, "annotation": {"number": 64, "value": 127}, "group": "control_change"}, {"time": 2094, "annotation": {"number": 64, "value": 0}, "group": "control_change"}, {"time": 2100, "annotation": {"number": 64, "value": 127}, "group": "control_change"}, {"time": 2117, "annotation": {"number": 64, "value": 0}, "group": "control_change"}, {"time": 2124, "annotation": {"number": 64, "value": 127}, "group": "control_change"}, {"time": 2166, "annotation": {"number": 64, "value": 0}, "group": "control_change"}, {"time": 2173, "annotation": {"number": 64, "value": 127}, "group": "control_change"}, {"time": 2208, "annotation": {"number": 64, "value": 0}, "group": "control_change"}, {"time": 2219, "annotation": {"number": 64, "value": 127}, "group": "control_change"}, {"time": 2237, "annotation": {"number": 64, "value": 0}, "group": "control_change"}, {"time": 2246, "annotation": {"number": 64, "value": 127}, "group": "control_change"}, {"time": 2259, "annotation": {"number": 64, "value": 0}, "group": "control_change"}, {"time": 2271, "annotation": {"number": 64, "value": 127}, "group": "control_change"}, {"time": 2284, "annotation": {"number": 64, "value": 0}, "group": "control_change"}, {"time": 2287, "annotation": {"number": 64, "value": 127}, "group": "control_change"}, {"time": 2308, "annotation": {"number": 64, "value": 0}, "group": "control_change"}, {"time": 2319, "annotation": {"number": 64, "value": 127}, "group": "control_change"}, {"time": 2357, "annotation": {"number": 64, "value": 0}, "group": "control_change"}, {"time": 2365, "annotation": {"number": 64, "value": 127}, "group": "control_change"}, {"time": 2400, "annotation": {"number": 64, "value": 0}, "group": "control_change"}, {"time": 2416, "annotation": {"number": 64, "value": 127}, "group": "control_change"}, {"time": 2452, "annotation": {"number": 64, "value": 0}, "group": "control_change"}, {"time": 2460, "annotation": {"number": 64, "value": 127}, "group": "control_change"}, {"time": 2478, "annotation": {"number": 64, "value": 0}, "group": "control_change"}, {"time": 2485, "annotation": {"number": 64, "value": 127}, "group": "control_change"}, {"time": 2500, "annotation": {"number": 64, "value": 0}, "group": "control_change"}, {"time": 2509, "annotation": {"number": 64, "value": 127}, "group": "control_change"}, {"time": 2549, "annotation": {"number": 64, "value": 0}, "group": "control_change"}, {"time": 2559, "annotation": {"number": 64, "value": 127}, "group": "control_change"}, {"time": 2598, "annotation": {"number": 64, "value": 0}, "group": "control_change"}, {"time": 2606, "annotation": {"number": 64, "value": 127}, "group": "control_change"}, {"time": 2623, "annotation": {"number": 64, "value": 0}, "group": "control_change"}, {"time": 2633, "annotation": {"number": 64, "value": 127}, "group": "control_change"}, {"time": 2644, "annotation": {"number": 64, "value": 0}, "group": "control_change"}, {"time": 2653, "annotation": {"number": 64, "value": 127}, "group": "control_change"}, {"time": 2694, "annotation": {"number": 64, "value": 0}, "group": "control_change"}, {"time": 2698, "annotation": {"number": 64, "value": 127}, "group": "control_change"}, {"time": 2740, "annotation": {"number": 64, "value": 0}, "group": "control_change"}, {"time": 2748, "annotation": {"number": 64, "value": 127}, "group": "control_change"}, {"time": 2790, "annotation": {"number": 64, "value": 0}, "group": "control_change"}, {"time": 2796, "annotation": {"number": 64, "value": 127}, "group": "control_change"}, {"time": 2814, "annotation": {"number": 64, "value": 0}, "group": "control_change"}, {"time": 2821, "annotation": {"number": 64, "value": 127}, "group": "control_change"}, {"time": 2838, "annotation": {"number": 64, "value": 0}, "group": "control_change"}, {"time": 2843, "annotation": {"number": 64, "value": 127}, "group": "control_change"}, {"time": 2886, "annotation": {"number": 64, "value": 0}, "group": "control_change"}, {"time": 2892, "annotation": {"number": 64, "value": 127}, "group": "control_change"}, {"time": 2910, "annotation": {"number": 64, "value": 0}, "group": "control_change"}, {"time": 2916, "annotation": {"number": 64, "value": 127}, "group": "control_change"}, {"time": 2932, "annotation": {"number": 64, "value": 0}, "group": "control_change"}, {"time": 2939, "annotation": {"number": 64, "value": 127}, "group": "control_change"}, {"time": 2946, "annotation": {"number": 64, "value": 0}, "group": "control_change"}, {"time": 2952, "annotation": {"number": 64, "value": 127}, "group": "control_change"}, {"time": 2958, "annotation": {"number": 64, "value": 0}, "group": "control_change"}, {"time": 2965, "annotation": {"number": 64, "value": 127}, "group": "control_change"}, {"time": 2981, "annotation": {"number": 64, "value": 0}, "group": "control_change"}, {"time": 2990, "annotation": {"number": 64, "value": 127}, "group": "control_change"}, {"time": 3006, "annotation": {"number": 64, "value": 0}, "group": "control_change"}, {"time": 3014, "annotation": {"number": 64, "value": 127}, "group": "control_change"}, {"time": 3028, "annotation": {"number": 64, "value": 0}, "group": "control_change"}, {"time": 3039, "annotation": {"number": 64, "value": 127}, "group": "control_change"}, {"time": 3082, "annotation": {"number": 64, "value": 127}, "group": "control_change"}, {"time": 3091, "annotation": {"number": 64, "value": 0}, "group": "control_change"}, {"time": 3124, "annotation": {"number": 64, "value": 0}, "group": "control_change"}, {"time": 3132, "annotation": {"number": 64, "value": 127}, "group": "control_change"}, {"time": 3174, "annotation": {"number": 64, "value": 0}, "group": "control_change"}, {"time": 3180, "annotation": {"number": 64, "value": 127}, "group": "control_change"}, {"time": 3198, "annotation": {"number": 64, "value": 0}, "group": "control_change"}, {"time": 3205, "annotation": {"number": 64, "value": 127}, "group": "control_change"}, {"time": 3222, "annotation": {"number": 64, "value": 0}, "group": "control_change"}, {"time": 3227, "annotation": {"number": 64, "value": 127}, "group": "control_change"}, {"time": 3270, "annotation": {"number": 64, "value": 0}, "group": "control_change"}, {"time": 3276, "annotation": {"number": 64, "value": 127}, "group": "control_change"}, {"time": 3294, "annotation": {"number": 64, "value": 0}, "group": "control_change"}, {"time": 3300, "annotation": {"number": 64, "value": 127}, "group": "control_change"}, {"time": 3316, "annotation": {"number": 64, "value": 0}, "group": "control_change"}, {"time": 3323, "annotation": {"number": 64, "value": 127}, "group": "control_change"}, {"time": 3330, "annotation": {"number": 64, "value": 0}, "group": "control_change"}, {"time": 3336, "annotation": {"number": 64, "value": 127}, "group": "control_change"}, {"time": 3342, "annotation": {"number": 64, "value": 0}, "group": "control_change"}, {"time": 3349, "annotation": {"number": 64, "value": 127}, "group": "control_change"}, {"time": 3365, "annotation": {"number": 64, "value": 0}, "group": "control_change"}, {"time": 3374, "annotation": {"number": 64, "value": 127}, "group": "control_change"}, {"time": 3390, "annotation": {"number": 64, "value": 0}, "group": "control_change"}, {"time": 3398, "annotation": {"number": 64, "value": 127}, "group": "control_change"}, {"time": 3412, "annotation": {"number": 64, "value": 0}, "group": "control_change"}, {"time": 3423, "annotation": {"number": 64, "value": 127}, "group": "control_change"}, {"time": 3461, "annotation": {"number": 64, "value": 127}, "group": "control_change"}, {"time": 3475, "annotation": {"number": 64, "value": 0}, "group": "control_change"}, {"time": 3509, "annotation": {"number": 64, "value": 0}, "group": "control_change"}, {"time": 3516, "annotation": {"number": 64, "value": 127}, "group": "control_change"}, {"time": 3557, "annotation": {"number": 64, "value": 0}, "group": "control_change"}, {"time": 3564, "annotation": {"number": 64, "value": 127}, "group": "control_change"}, {"time": 3608, "annotation": {"number": 64, "value": 0}, "group": "control_change"}, {"time": 3613, "annotation": {"number": 64, "value": 127}, "group": "control_change"}, {"time": 3653, "annotation": {"number": 64, "value": 0}, "group": "control_change"}, {"time": 3662, "annotation": {"number": 64, "value": 127}, "group": "control_change"}, {"time": 3701, "annotation": {"number": 64, "value": 0}, "group": "control_change"}, {"time": 3709, "annotation": {"number": 64, "value": 127}, "group": "control_change"}, {"time": 3749, "annotation": {"number": 64, "value": 0}, "group": "control_change"}, {"time": 3756, "annotation": {"number": 64, "value": 127}, "group": "control_change"}, {"time": 3785, "annotation": {"number": 64, "value": 0}, "group": "control_change"}, {"time": 3790, "annotation": {"number": 64, "value": 127}, "group": "control_change"}, {"time": 3797, "annotation": {"number": 64, "value": 0}, "group": "control_change"}, {"time": 3805, "annotation": {"number": 64, "value": 127}, "group": "control_change"}, {"time": 3833, "annotation": {"number": 64, "value": 0}, "group": "control_change"}]}]}