{"metadata": {"schema_version": "0.2", "title": "None", "source_filename": "218.mid", "source_format": "midi"}, "resolution": 12, "tempos": [{"time": 0, "qpm": 68.0000725334107}, {"time": 183, "qpm": 69.00009660013524}, {"time": 303, "qpm": 65.99999340000066}, {"time": 327, "qpm": 68.0000725334107}, {"time": 351, "qpm": 69.00009660013524}, {"time": 411, "qpm": 67.00002903334591}, {"time": 435, "qpm": 68.0000725334107}, {"time": 483, "qpm": 69.00009660013524}, {"time": 603, "qpm": 68.0000725334107}, {"time": 615, "qpm": 67.00002903334591}, {"time": 663, "qpm": 69.00009660013524}, {"time": 711, "qpm": 67.00002903334591}, {"time": 759, "qpm": 69.00009660013524}, {"time": 831, "qpm": 68.0000725334107}, {"time": 855, "qpm": 67.00002903334591}, {"time": 879, "qpm": 69.00009660013524}, {"time": 915, "qpm": 68.0000725334107}, {"time": 1047, "qpm": 69.00009660013524}, {"time": 1119, "qpm": 68.0000725334107}, {"time": 1191, "qpm": 69.00009660013524}, {"time": 1215, "qpm": 68.0000725334107}, {"time": 1263, "qpm": 67.00002903334591}, {"time": 1311, "qpm": 68.0000725334107}, {"time": 1323, "qpm": 69.99998833333528}, {"time": 1359, "qpm": 68.0000725334107}, {"time": 1395, "qpm": 69.00009660013524}, {"time": 1455, "qpm": 65.99999340000066}, {"time": 1491, "qpm": 69.00009660013524}, {"time": 1587, "qpm": 67.00002903334591}, {"time": 1623, "qpm": 69.00009660013524}, {"time": 1695, "qpm": 68.0000725334107}, {"time": 1719, "qpm": 69.00009660013524}, {"time": 1755, "qpm": 68.0000725334107}, {"time": 1791, "qpm": 65.99999340000066}, {"time": 1803, "qpm": 69.00009660013524}, {"time": 1839, "qpm": 67.00002903334591}, {"time": 1863, "qpm": 68.0000725334107}, {"time": 1887, "qpm": 69.00009660013524}, {"time": 1935, "qpm": 65.99999340000066}, {"time": 1947, "qpm": 68.0000725334107}, {"time": 1971, "qpm": 69.00009660013524}, {"time": 2007, "qpm": 67.00002903334591}, {"time": 2019, "qpm": 68.0000725334107}, {"time": 2055, "qpm": 69.00009660013524}, {"time": 2103, "qpm": 65.99999340000066}, {"time": 2127, "qpm": 68.0000725334107}, {"time": 2163, "qpm": 69.00009660013524}, {"time": 2223, "qpm": 68.0000725334107}, {"time": 2247, "qpm": 69.00009660013524}, {"time": 2295, "qpm": 68.0000725334107}, {"time": 2451, "qpm": 69.00009660013524}, {"time": 2487, "qpm": 68.0000725334107}, {"time": 2559, "qpm": 69.00009660013524}, {"time": 2583, "qpm": 67.00002903334591}, {"time": 2595, "qpm": 68.0000725334107}, {"time": 2655, "qpm": 69.00009660013524}, {"time": 2691, "qpm": 64.0}, {"time": 2703, "qpm": 69.99998833333528}, {"time": 2715, "qpm": 71.00003550001774}, {"time": 2727, "qpm": 68.0000725334107}, {"time": 2751, "qpm": 69.00009660013524}, {"time": 2799, "qpm": 67.00002903334591}, {"time": 2847, "qpm": 69.00009660013524}, {"time": 2919, "qpm": 68.0000725334107}, {"time": 3015, "qpm": 69.00009660013524}, {"time": 3063, "qpm": 67.00002903334591}, {"time": 3099, "qpm": 69.00009660013524}, {"time": 3123, "qpm": 69.99998833333528}, {"time": 3135, "qpm": 69.00009660013524}, {"time": 3147, "qpm": 68.0000725334107}, {"time": 3159, "qpm": 69.00009660013524}, {"time": 3183, "qpm": 67.00002903334591}, {"time": 3207, "qpm": 69.00009660013524}, {"time": 3243, "qpm": 67.00002903334591}, {"time": 3279, "qpm": 69.99998833333528}, {"time": 3315, "qpm": 64.99999458333379}, {"time": 3327, "qpm": 69.00009660013524}, {"time": 3363, "qpm": 69.99998833333528}, {"time": 3375, "qpm": 65.99999340000066}, {"time": 3399, "qpm": 69.00009660013524}, {"time": 3459, "qpm": 68.0000725334107}, {"time": 3495, "qpm": 65.99999340000066}, {"time": 3507, "qpm": 69.99998833333528}, {"time": 3519, "qpm": 69.00009660013524}, {"time": 3555, "qpm": 68.0000725334107}, {"time": 3567, "qpm": 65.99999340000066}, {"time": 3579, "qpm": 69.00009660013524}, {"time": 3603, "qpm": 67.00002903334591}, {"time": 3615, "qpm": 68.0000725334107}, {"time": 3663, "qpm": 69.00009660013524}, {"time": 3735, "qpm": 67.00002903334591}, {"time": 3783, "qpm": 68.0000725334107}, {"time": 3831, "qpm": 69.99998833333528}, {"time": 3843, "qpm": 69.00009660013524}, {"time": 3879, "qpm": 68.0000725334107}, {"time": 3891, "qpm": 67.00002903334591}, {"time": 3903, "qpm": 65.99999340000066}, {"time": 3915, "qpm": 69.99998833333528}, {"time": 3951, "qpm": 69.00009660013524}, {"time": 3975, "qpm": 64.99999458333379}, {"time": 3987, "qpm": 68.0000725334107}, {"time": 3999, "qpm": 71.00003550001774}, {"time": 4011, "qpm": 67.00002903334591}, {"time": 4059, "qpm": 69.99998833333528}, {"time": 4083, "qpm": 72.99998296667064}, {"time": 4095, "qpm": 67.00002903334591}], "key_signatures": [{"time": 0, "root": 0, "mode": "major"}], "time_signatures": [{"time": 0, "numerator": 4, "denominator": 4}], "tracks": [{"program": 4, "is_drum": false, "name": "MELODY", "notes": [{"time": 521, "pitch": 70, "duration": 3, "velocity": 91}, {"time": 524, "pitch": 73, "duration": 9, "velocity": 93}, {"time": 533, "pitch": 73, "duration": 6, "velocity": 90}, {"time": 539, "pitch": 70, "duration": 6, "velocity": 87}, {"time": 545, "pitch": 73, "duration": 4, "velocity": 99}, {"time": 548, "pitch": 75, "duration": 6, "velocity": 90}, {"time": 554, "pitch": 73, "duration": 15, "velocity": 99}, {"time": 569, "pitch": 66, "duration": 3, "velocity": 97}, {"time": 572, "pitch": 66, "duration": 6, "velocity": 93}, {"time": 578, "pitch": 66, "duration": 3, "velocity": 92}, {"time": 581, "pitch": 66, "duration": 6, "velocity": 93}, {"time": 587, "pitch": 66, "duration": 3, "velocity": 94}, {"time": 590, "pitch": 68, "duration": 3, "velocity": 85}, {"time": 593, "pitch": 70, "duration": 3, "velocity": 84}, {"time": 596, "pitch": 71, "duration": 6, "velocity": 91}, {"time": 602, "pitch": 70, "duration": 15, "velocity": 100}, {"time": 617, "pitch": 63, "duration": 6, "velocity": 95}, {"time": 623, "pitch": 66, "duration": 3, "velocity": 91}, {"time": 626, "pitch": 66, "duration": 15, "velocity": 94}, {"time": 641, "pitch": 71, "duration": 6, "velocity": 98}, {"time": 647, "pitch": 70, "duration": 6, "velocity": 90}, {"time": 653, "pitch": 68, "duration": 3, "velocity": 95}, {"time": 656, "pitch": 66, "duration": 9, "velocity": 85}, {"time": 665, "pitch": 68, "duration": 48, "velocity": 94}, {"time": 713, "pitch": 70, "duration": 3, "velocity": 79}, {"time": 716, "pitch": 73, "duration": 9, "velocity": 84}, {"time": 725, "pitch": 73, "duration": 6, "velocity": 99}, {"time": 731, "pitch": 70, "duration": 6, "velocity": 85}, {"time": 737, "pitch": 73, "duration": 3, "velocity": 96}, {"time": 740, "pitch": 75, "duration": 6, "velocity": 93}, {"time": 746, "pitch": 73, "duration": 15, "velocity": 98}, {"time": 761, "pitch": 66, "duration": 3, "velocity": 90}, {"time": 764, "pitch": 66, "duration": 6, "velocity": 86}, {"time": 770, "pitch": 66, "duration": 3, "velocity": 66}, {"time": 773, "pitch": 66, "duration": 6, "velocity": 72}, {"time": 779, "pitch": 68, "duration": 6, "velocity": 79}, {"time": 785, "pitch": 70, "duration": 3, "velocity": 85}, {"time": 788, "pitch": 71, "duration": 6, "velocity": 89}, {"time": 794, "pitch": 70, "duration": 15, "velocity": 96}, {"time": 809, "pitch": 63, "duration": 3, "velocity": 90}, {"time": 812, "pitch": 66, "duration": 6, "velocity": 83}, {"time": 818, "pitch": 66, "duration": 6, "velocity": 92}, {"time": 824, "pitch": 66, "duration": 6, "velocity": 92}, {"time": 830, "pitch": 68, "duration": 3, "velocity": 86}, {"time": 833, "pitch": 70, "duration": 4, "velocity": 93}, {"time": 836, "pitch": 66, "duration": 21, "velocity": 76}, {"time": 857, "pitch": 66, "duration": 12, "velocity": 94}, {"time": 869, "pitch": 66, "duration": 6, "velocity": 94}, {"time": 875, "pitch": 63, "duration": 6, "velocity": 84}, {"time": 881, "pitch": 68, "duration": 48, "velocity": 97}, {"time": 929, "pitch": 75, "duration": 6, "velocity": 109}, {"time": 935, "pitch": 75, "duration": 3, "velocity": 100}, {"time": 938, "pitch": 75, "duration": 9, "velocity": 97}, {"time": 947, "pitch": 77, "duration": 6, "velocity": 97}, {"time": 953, "pitch": 78, "duration": 9, "velocity": 105}, {"time": 962, "pitch": 73, "duration": 15, "velocity": 98}, {"time": 977, "pitch": 71, "duration": 6, "velocity": 98}, {"time": 983, "pitch": 71, "duration": 3, "velocity": 95}, {"time": 986, "pitch": 71, "duration": 9, "velocity": 96}, {"time": 995, "pitch": 73, "duration": 6, "velocity": 95}, {"time": 1001, "pitch": 75, "duration": 9, "velocity": 96}, {"time": 1010, "pitch": 70, "duration": 15, "velocity": 91}, {"time": 1025, "pitch": 75, "duration": 6, "velocity": 106}, {"time": 1031, "pitch": 75, "duration": 3, "velocity": 97}, {"time": 1034, "pitch": 75, "duration": 9, "velocity": 98}, {"time": 1043, "pitch": 77, "duration": 6, "velocity": 99}, {"time": 1049, "pitch": 78, "duration": 10, "velocity": 99}, {"time": 1058, "pitch": 73, "duration": 15, "velocity": 99}, {"time": 1073, "pitch": 71, "duration": 3, "velocity": 100}, {"time": 1076, "pitch": 71, "duration": 3, "velocity": 93}, {"time": 1079, "pitch": 71, "duration": 3, "velocity": 86}, {"time": 1082, "pitch": 71, "duration": 24, "velocity": 97}, {"time": 1106, "pitch": 70, "duration": 6, "velocity": 93}, {"time": 1112, "pitch": 68, "duration": 6, "velocity": 77}, {"time": 1118, "pitch": 66, "duration": 51, "velocity": 66}, {"time": 1169, "pitch": 73, "duration": 6, "velocity": 96}, {"time": 1175, "pitch": 75, "duration": 3, "velocity": 87}, {"time": 1178, "pitch": 78, "duration": 3, "velocity": 87}, {"time": 1181, "pitch": 78, "duration": 6, "velocity": 84}, {"time": 1187, "pitch": 73, "duration": 6, "velocity": 87}, {"time": 1193, "pitch": 75, "duration": 6, "velocity": 87}, {"time": 1199, "pitch": 70, "duration": 3, "velocity": 73}, {"time": 1202, "pitch": 73, "duration": 15, "velocity": 87}, {"time": 1217, "pitch": 78, "duration": 3, "velocity": 105}, {"time": 1220, "pitch": 78, "duration": 6, "velocity": 92}, {"time": 1226, "pitch": 78, "duration": 3, "velocity": 95}, {"time": 1229, "pitch": 78, "duration": 6, "velocity": 97}, {"time": 1235, "pitch": 73, "duration": 6, "velocity": 96}, {"time": 1241, "pitch": 75, "duration": 3, "velocity": 98}, {"time": 1244, "pitch": 70, "duration": 6, "velocity": 91}, {"time": 1250, "pitch": 68, "duration": 15, "velocity": 94}, {"time": 1265, "pitch": 68, "duration": 6, "velocity": 99}, {"time": 1271, "pitch": 70, "duration": 3, "velocity": 99}, {"time": 1274, "pitch": 71, "duration": 9, "velocity": 93}, {"time": 1283, "pitch": 71, "duration": 3, "velocity": 93}, {"time": 1286, "pitch": 73, "duration": 3, "velocity": 93}, {"time": 1289, "pitch": 75, "duration": 7, "velocity": 85}, {"time": 1295, "pitch": 73, "duration": 6, "velocity": 100}, {"time": 1301, "pitch": 75, "duration": 6, "velocity": 97}, {"time": 1307, "pitch": 73, "duration": 3, "velocity": 94}, {"time": 1310, "pitch": 70, "duration": 51, "velocity": 92}, {"time": 1361, "pitch": 73, "duration": 6, "velocity": 98}, {"time": 1367, "pitch": 75, "duration": 3, "velocity": 81}, {"time": 1370, "pitch": 78, "duration": 3, "velocity": 87}, {"time": 1373, "pitch": 78, "duration": 6, "velocity": 90}, {"time": 1379, "pitch": 73, "duration": 6, "velocity": 97}, {"time": 1385, "pitch": 75, "duration": 6, "velocity": 97}, {"time": 1391, "pitch": 70, "duration": 3, "velocity": 81}, {"time": 1394, "pitch": 73, "duration": 15, "velocity": 95}, {"time": 1409, "pitch": 78, "duration": 6, "velocity": 103}, {"time": 1415, "pitch": 78, "duration": 3, "velocity": 97}, {"time": 1418, "pitch": 78, "duration": 3, "velocity": 93}, {"time": 1421, "pitch": 78, "duration": 6, "velocity": 99}, {"time": 1427, "pitch": 73, "duration": 3, "velocity": 90}, {"time": 1430, "pitch": 73, "duration": 3, "velocity": 93}, {"time": 1433, "pitch": 75, "duration": 3, "velocity": 99}, {"time": 1436, "pitch": 70, "duration": 6, "velocity": 87}, {"time": 1442, "pitch": 70, "duration": 3, "velocity": 94}, {"time": 1445, "pitch": 68, "duration": 12, "velocity": 100}, {"time": 1457, "pitch": 68, "duration": 6, "velocity": 97}, {"time": 1463, "pitch": 70, "duration": 3, "velocity": 100}, {"time": 1466, "pitch": 71, "duration": 15, "velocity": 99}, {"time": 1481, "pitch": 73, "duration": 6, "velocity": 109}, {"time": 1487, "pitch": 75, "duration": 3, "velocity": 96}, {"time": 1490, "pitch": 73, "duration": 3, "velocity": 94}, {"time": 1493, "pitch": 71, "duration": 6, "velocity": 95}, {"time": 1499, "pitch": 70, "duration": 3, "velocity": 104}, {"time": 1502, "pitch": 68, "duration": 6, "velocity": 99}, {"time": 1508, "pitch": 66, "duration": 45, "velocity": 79}, {"time": 1553, "pitch": 73, "duration": 6, "velocity": 111}, {"time": 1559, "pitch": 75, "duration": 3, "velocity": 98}, {"time": 1562, "pitch": 78, "duration": 3, "velocity": 98}, {"time": 1565, "pitch": 78, "duration": 6, "velocity": 93}, {"time": 1571, "pitch": 73, "duration": 6, "velocity": 106}, {"time": 1577, "pitch": 75, "duration": 6, "velocity": 105}, {"time": 1583, "pitch": 70, "duration": 3, "velocity": 93}, {"time": 1586, "pitch": 73, "duration": 15, "velocity": 98}, {"time": 1601, "pitch": 78, "duration": 3, "velocity": 106}, {"time": 1604, "pitch": 78, "duration": 6, "velocity": 101}, {"time": 1610, "pitch": 78, "duration": 3, "velocity": 103}, {"time": 1613, "pitch": 78, "duration": 6, "velocity": 103}, {"time": 1619, "pitch": 73, "duration": 6, "velocity": 101}, {"time": 1625, "pitch": 75, "duration": 6, "velocity": 103}, {"time": 1631, "pitch": 70, "duration": 3, "velocity": 98}, {"time": 1634, "pitch": 68, "duration": 15, "velocity": 96}, {"time": 1649, "pitch": 68, "duration": 6, "velocity": 101}, {"time": 1655, "pitch": 70, "duration": 3, "velocity": 93}, {"time": 1658, "pitch": 71, "duration": 9, "velocity": 89}, {"time": 1667, "pitch": 71, "duration": 3, "velocity": 96}, {"time": 1670, "pitch": 73, "duration": 3, "velocity": 95}, {"time": 1673, "pitch": 75, "duration": 6, "velocity": 91}, {"time": 1679, "pitch": 73, "duration": 6, "velocity": 100}, {"time": 1685, "pitch": 75, "duration": 6, "velocity": 91}, {"time": 1691, "pitch": 73, "duration": 5, "velocity": 95}, {"time": 1694, "pitch": 70, "duration": 51, "velocity": 93}, {"time": 1745, "pitch": 73, "duration": 6, "velocity": 109}, {"time": 1751, "pitch": 75, "duration": 3, "velocity": 99}, {"time": 1754, "pitch": 78, "duration": 3, "velocity": 90}, {"time": 1757, "pitch": 78, "duration": 6, "velocity": 93}, {"time": 1763, "pitch": 73, "duration": 6, "velocity": 97}, {"time": 1769, "pitch": 75, "duration": 6, "velocity": 99}, {"time": 1775, "pitch": 70, "duration": 3, "velocity": 93}, {"time": 1778, "pitch": 73, "duration": 15, "velocity": 100}, {"time": 1793, "pitch": 78, "duration": 6, "velocity": 103}, {"time": 1799, "pitch": 78, "duration": 3, "velocity": 100}, {"time": 1802, "pitch": 78, "duration": 3, "velocity": 98}, {"time": 1805, "pitch": 78, "duration": 6, "velocity": 97}, {"time": 1811, "pitch": 73, "duration": 3, "velocity": 97}, {"time": 1814, "pitch": 73, "duration": 3, "velocity": 91}, {"time": 1817, "pitch": 75, "duration": 3, "velocity": 93}, {"time": 1820, "pitch": 70, "duration": 6, "velocity": 96}, {"time": 1826, "pitch": 70, "duration": 3, "velocity": 99}, {"time": 1829, "pitch": 68, "duration": 12, "velocity": 96}, {"time": 1841, "pitch": 68, "duration": 6, "velocity": 98}, {"time": 1847, "pitch": 70, "duration": 3, "velocity": 98}, {"time": 1850, "pitch": 71, "duration": 15, "velocity": 96}, {"time": 1865, "pitch": 71, "duration": 6, "velocity": 107}, {"time": 1871, "pitch": 73, "duration": 3, "velocity": 96}, {"time": 1874, "pitch": 75, "duration": 15, "velocity": 99}, {"time": 1889, "pitch": 71, "duration": 9, "velocity": 104}, {"time": 1898, "pitch": 70, "duration": 9, "velocity": 101}, {"time": 1907, "pitch": 68, "duration": 6, "velocity": 101}, {"time": 1913, "pitch": 66, "duration": 48, "velocity": 101}, {"time": 2342, "pitch": 70, "duration": 6, "velocity": 91}, {"time": 2348, "pitch": 73, "duration": 9, "velocity": 93}, {"time": 2357, "pitch": 73, "duration": 6, "velocity": 90}, {"time": 2363, "pitch": 70, "duration": 6, "velocity": 87}, {"time": 2369, "pitch": 73, "duration": 4, "velocity": 99}, {"time": 2372, "pitch": 75, "duration": 6, "velocity": 90}, {"time": 2378, "pitch": 73, "duration": 15, "velocity": 99}, {"time": 2393, "pitch": 66, "duration": 3, "velocity": 97}, {"time": 2396, "pitch": 66, "duration": 6, "velocity": 93}, {"time": 2402, "pitch": 66, "duration": 3, "velocity": 92}, {"time": 2405, "pitch": 66, "duration": 6, "velocity": 93}, {"time": 2411, "pitch": 66, "duration": 3, "velocity": 94}, {"time": 2414, "pitch": 68, "duration": 3, "velocity": 85}, {"time": 2417, "pitch": 70, "duration": 3, "velocity": 84}, {"time": 2420, "pitch": 71, "duration": 6, "velocity": 91}, {"time": 2426, "pitch": 70, "duration": 15, "velocity": 100}, {"time": 2441, "pitch": 63, "duration": 6, "velocity": 95}, {"time": 2447, "pitch": 66, "duration": 3, "velocity": 91}, {"time": 2450, "pitch": 66, "duration": 15, "velocity": 94}, {"time": 2465, "pitch": 71, "duration": 6, "velocity": 98}, {"time": 2471, "pitch": 70, "duration": 6, "velocity": 90}, {"time": 2477, "pitch": 68, "duration": 3, "velocity": 95}, {"time": 2480, "pitch": 66, "duration": 9, "velocity": 85}, {"time": 2489, "pitch": 68, "duration": 48, "velocity": 94}, {"time": 2537, "pitch": 70, "duration": 3, "velocity": 79}, {"time": 2540, "pitch": 73, "duration": 9, "velocity": 84}, {"time": 2549, "pitch": 73, "duration": 6, "velocity": 99}, {"time": 2555, "pitch": 70, "duration": 6, "velocity": 85}, {"time": 2561, "pitch": 73, "duration": 3, "velocity": 96}, {"time": 2564, "pitch": 75, "duration": 6, "velocity": 93}, {"time": 2570, "pitch": 73, "duration": 15, "velocity": 98}, {"time": 2585, "pitch": 66, "duration": 3, "velocity": 90}, {"time": 2588, "pitch": 66, "duration": 6, "velocity": 86}, {"time": 2594, "pitch": 66, "duration": 3, "velocity": 66}, {"time": 2597, "pitch": 66, "duration": 6, "velocity": 72}, {"time": 2603, "pitch": 68, "duration": 6, "velocity": 79}, {"time": 2609, "pitch": 70, "duration": 3, "velocity": 85}, {"time": 2612, "pitch": 71, "duration": 6, "velocity": 89}, {"time": 2618, "pitch": 70, "duration": 15, "velocity": 96}, {"time": 2633, "pitch": 63, "duration": 3, "velocity": 90}, {"time": 2636, "pitch": 66, "duration": 6, "velocity": 83}, {"time": 2642, "pitch": 66, "duration": 6, "velocity": 92}, {"time": 2648, "pitch": 66, "duration": 6, "velocity": 92}, {"time": 2654, "pitch": 68, "duration": 3, "velocity": 86}, {"time": 2657, "pitch": 70, "duration": 4, "velocity": 93}, {"time": 2660, "pitch": 66, "duration": 21, "velocity": 76}, {"time": 2681, "pitch": 66, "duration": 12, "velocity": 94}, {"time": 2693, "pitch": 66, "duration": 6, "velocity": 94}, {"time": 2699, "pitch": 63, "duration": 6, "velocity": 84}, {"time": 2705, "pitch": 68, "duration": 48, "velocity": 97}, {"time": 2753, "pitch": 75, "duration": 6, "velocity": 109}, {"time": 2759, "pitch": 75, "duration": 3, "velocity": 100}, {"time": 2762, "pitch": 75, "duration": 9, "velocity": 97}, {"time": 2771, "pitch": 77, "duration": 6, "velocity": 97}, {"time": 2777, "pitch": 78, "duration": 9, "velocity": 105}, {"time": 2786, "pitch": 73, "duration": 15, "velocity": 98}, {"time": 2801, "pitch": 71, "duration": 6, "velocity": 98}, {"time": 2807, "pitch": 71, "duration": 3, "velocity": 95}, {"time": 2810, "pitch": 71, "duration": 9, "velocity": 96}, {"time": 2819, "pitch": 73, "duration": 6, "velocity": 95}, {"time": 2825, "pitch": 75, "duration": 9, "velocity": 96}, {"time": 2834, "pitch": 70, "duration": 15, "velocity": 91}, {"time": 2849, "pitch": 75, "duration": 6, "velocity": 106}, {"time": 2855, "pitch": 75, "duration": 3, "velocity": 97}, {"time": 2858, "pitch": 75, "duration": 9, "velocity": 98}, {"time": 2867, "pitch": 77, "duration": 6, "velocity": 99}, {"time": 2873, "pitch": 78, "duration": 10, "velocity": 99}, {"time": 2882, "pitch": 73, "duration": 15, "velocity": 99}, {"time": 2897, "pitch": 71, "duration": 3, "velocity": 100}, {"time": 2900, "pitch": 71, "duration": 3, "velocity": 93}, {"time": 2903, "pitch": 71, "duration": 3, "velocity": 86}, {"time": 2906, "pitch": 71, "duration": 27, "velocity": 97}, {"time": 2933, "pitch": 70, "duration": 6, "velocity": 93}, {"time": 2939, "pitch": 68, "duration": 6, "velocity": 77}, {"time": 2945, "pitch": 66, "duration": 48, "velocity": 66}, {"time": 2993, "pitch": 73, "duration": 6, "velocity": 96}, {"time": 2999, "pitch": 75, "duration": 3, "velocity": 87}, {"time": 3002, "pitch": 78, "duration": 3, "velocity": 87}, {"time": 3005, "pitch": 78, "duration": 6, "velocity": 84}, {"time": 3011, "pitch": 73, "duration": 6, "velocity": 87}, {"time": 3017, "pitch": 75, "duration": 6, "velocity": 87}, {"time": 3023, "pitch": 70, "duration": 3, "velocity": 73}, {"time": 3026, "pitch": 73, "duration": 15, "velocity": 87}, {"time": 3041, "pitch": 78, "duration": 3, "velocity": 105}, {"time": 3044, "pitch": 78, "duration": 6, "velocity": 92}, {"time": 3050, "pitch": 78, "duration": 3, "velocity": 95}, {"time": 3053, "pitch": 78, "duration": 6, "velocity": 97}, {"time": 3059, "pitch": 73, "duration": 6, "velocity": 96}, {"time": 3065, "pitch": 75, "duration": 3, "velocity": 98}, {"time": 3068, "pitch": 70, "duration": 6, "velocity": 91}, {"time": 3074, "pitch": 68, "duration": 15, "velocity": 94}, {"time": 3089, "pitch": 68, "duration": 6, "velocity": 99}, {"time": 3095, "pitch": 70, "duration": 3, "velocity": 99}, {"time": 3098, "pitch": 71, "duration": 9, "velocity": 93}, {"time": 3107, "pitch": 71, "duration": 3, "velocity": 93}, {"time": 3110, "pitch": 73, "duration": 3, "velocity": 93}, {"time": 3113, "pitch": 75, "duration": 7, "velocity": 85}, {"time": 3119, "pitch": 73, "duration": 6, "velocity": 100}, {"time": 3125, "pitch": 75, "duration": 6, "velocity": 97}, {"time": 3131, "pitch": 73, "duration": 3, "velocity": 94}, {"time": 3134, "pitch": 70, "duration": 51, "velocity": 92}, {"time": 3185, "pitch": 73, "duration": 6, "velocity": 98}, {"time": 3191, "pitch": 75, "duration": 3, "velocity": 81}, {"time": 3194, "pitch": 78, "duration": 3, "velocity": 87}, {"time": 3197, "pitch": 78, "duration": 6, "velocity": 90}, {"time": 3203, "pitch": 73, "duration": 6, "velocity": 97}, {"time": 3209, "pitch": 75, "duration": 5, "velocity": 97}, {"time": 3212, "pitch": 70, "duration": 3, "velocity": 81}, {"time": 3215, "pitch": 73, "duration": 15, "velocity": 95}, {"time": 3230, "pitch": 78, "duration": 6, "velocity": 103}, {"time": 3236, "pitch": 78, "duration": 3, "velocity": 97}, {"time": 3239, "pitch": 78, "duration": 3, "velocity": 93}, {"time": 3242, "pitch": 78, "duration": 6, "velocity": 99}, {"time": 3248, "pitch": 73, "duration": 3, "velocity": 90}, {"time": 3251, "pitch": 73, "duration": 3, "velocity": 93}, {"time": 3254, "pitch": 75, "duration": 3, "velocity": 99}, {"time": 3257, "pitch": 70, "duration": 6, "velocity": 87}, {"time": 3263, "pitch": 70, "duration": 3, "velocity": 94}, {"time": 3266, "pitch": 68, "duration": 15, "velocity": 100}, {"time": 3281, "pitch": 68, "duration": 6, "velocity": 97}, {"time": 3287, "pitch": 70, "duration": 3, "velocity": 100}, {"time": 3290, "pitch": 71, "duration": 12, "velocity": 99}, {"time": 3302, "pitch": 63, "duration": 6, "velocity": 109}, {"time": 3308, "pitch": 65, "duration": 3, "velocity": 96}, {"time": 3311, "pitch": 63, "duration": 3, "velocity": 94}, {"time": 3314, "pitch": 61, "duration": 6, "velocity": 95}, {"time": 3320, "pitch": 60, "duration": 3, "velocity": 104}, {"time": 3323, "pitch": 68, "duration": 9, "velocity": 99}, {"time": 3332, "pitch": 66, "duration": 45, "velocity": 79}, {"time": 3377, "pitch": 73, "duration": 6, "velocity": 111}, {"time": 3383, "pitch": 75, "duration": 3, "velocity": 98}, {"time": 3386, "pitch": 78, "duration": 3, "velocity": 98}, {"time": 3389, "pitch": 78, "duration": 6, "velocity": 93}, {"time": 3395, "pitch": 73, "duration": 6, "velocity": 106}, {"time": 3401, "pitch": 75, "duration": 6, "velocity": 105}, {"time": 3407, "pitch": 70, "duration": 3, "velocity": 93}, {"time": 3410, "pitch": 73, "duration": 15, "velocity": 98}, {"time": 3425, "pitch": 78, "duration": 3, "velocity": 106}, {"time": 3428, "pitch": 78, "duration": 6, "velocity": 101}, {"time": 3434, "pitch": 78, "duration": 3, "velocity": 103}, {"time": 3437, "pitch": 78, "duration": 6, "velocity": 103}, {"time": 3443, "pitch": 73, "duration": 6, "velocity": 101}, {"time": 3449, "pitch": 75, "duration": 6, "velocity": 103}, {"time": 3455, "pitch": 70, "duration": 3, "velocity": 98}, {"time": 3458, "pitch": 68, "duration": 15, "velocity": 96}, {"time": 3473, "pitch": 68, "duration": 6, "velocity": 101}, {"time": 3479, "pitch": 70, "duration": 3, "velocity": 93}, {"time": 3482, "pitch": 71, "duration": 9, "velocity": 89}, {"time": 3491, "pitch": 71, "duration": 3, "velocity": 96}, {"time": 3494, "pitch": 73, "duration": 3, "velocity": 95}, {"time": 3497, "pitch": 75, "duration": 6, "velocity": 91}, {"time": 3503, "pitch": 73, "duration": 6, "velocity": 100}, {"time": 3509, "pitch": 75, "duration": 6, "velocity": 91}, {"time": 3515, "pitch": 73, "duration": 3, "velocity": 95}, {"time": 3518, "pitch": 70, "duration": 51, "velocity": 93}, {"time": 3569, "pitch": 73, "duration": 6, "velocity": 109}, {"time": 3575, "pitch": 75, "duration": 3, "velocity": 99}, {"time": 3578, "pitch": 78, "duration": 3, "velocity": 90}, {"time": 3581, "pitch": 78, "duration": 6, "velocity": 93}, {"time": 3587, "pitch": 73, "duration": 6, "velocity": 97}, {"time": 3593, "pitch": 75, "duration": 6, "velocity": 99}, {"time": 3599, "pitch": 70, "duration": 3, "velocity": 93}, {"time": 3602, "pitch": 73, "duration": 15, "velocity": 100}, {"time": 3617, "pitch": 78, "duration": 6, "velocity": 103}, {"time": 3623, "pitch": 78, "duration": 3, "velocity": 100}, {"time": 3626, "pitch": 78, "duration": 3, "velocity": 98}, {"time": 3629, "pitch": 78, "duration": 6, "velocity": 97}, {"time": 3635, "pitch": 73, "duration": 3, "velocity": 97}, {"time": 3638, "pitch": 73, "duration": 3, "velocity": 91}, {"time": 3641, "pitch": 75, "duration": 3, "velocity": 93}, {"time": 3644, "pitch": 70, "duration": 6, "velocity": 96}, {"time": 3650, "pitch": 70, "duration": 3, "velocity": 99}, {"time": 3653, "pitch": 68, "duration": 12, "velocity": 96}, {"time": 3665, "pitch": 68, "duration": 6, "velocity": 98}, {"time": 3671, "pitch": 70, "duration": 3, "velocity": 98}, {"time": 3674, "pitch": 71, "duration": 15, "velocity": 96}, {"time": 3689, "pitch": 71, "duration": 6, "velocity": 107}, {"time": 3695, "pitch": 73, "duration": 3, "velocity": 96}, {"time": 3698, "pitch": 75, "duration": 15, "velocity": 99}, {"time": 3713, "pitch": 71, "duration": 9, "velocity": 104}, {"time": 3722, "pitch": 70, "duration": 9, "velocity": 101}, {"time": 3731, "pitch": 68, "duration": 6, "velocity": 101}, {"time": 3737, "pitch": 66, "duration": 48, "velocity": 101}, {"time": 3785, "pitch": 73, "duration": 6, "velocity": 98}, {"time": 3791, "pitch": 75, "duration": 3, "velocity": 81}, {"time": 3794, "pitch": 78, "duration": 3, "velocity": 87}, {"time": 3797, "pitch": 78, "duration": 6, "velocity": 90}, {"time": 3803, "pitch": 73, "duration": 6, "velocity": 97}, {"time": 3809, "pitch": 75, "duration": 6, "velocity": 97}, {"time": 3815, "pitch": 70, "duration": 3, "velocity": 81}, {"time": 3818, "pitch": 73, "duration": 15, "velocity": 95}, {"time": 3833, "pitch": 78, "duration": 3, "velocity": 103}, {"time": 3836, "pitch": 78, "duration": 6, "velocity": 97}, {"time": 3842, "pitch": 78, "duration": 3, "velocity": 93}, {"time": 3845, "pitch": 78, "duration": 6, "velocity": 99}, {"time": 3851, "pitch": 73, "duration": 3, "velocity": 90}, {"time": 3854, "pitch": 73, "duration": 3, "velocity": 93}, {"time": 3857, "pitch": 75, "duration": 3, "velocity": 99}, {"time": 3860, "pitch": 70, "duration": 6, "velocity": 87}, {"time": 3866, "pitch": 70, "duration": 3, "velocity": 94}, {"time": 3869, "pitch": 68, "duration": 12, "velocity": 100}, {"time": 3881, "pitch": 68, "duration": 6, "velocity": 97}, {"time": 3887, "pitch": 70, "duration": 3, "velocity": 100}, {"time": 3890, "pitch": 71, "duration": 9, "velocity": 99}, {"time": 3899, "pitch": 71, "duration": 3, "velocity": 100}, {"time": 3902, "pitch": 73, "duration": 6, "velocity": 100}, {"time": 3905, "pitch": 75, "duration": 9, "velocity": 96}, {"time": 3914, "pitch": 73, "duration": 6, "velocity": 94}, {"time": 3920, "pitch": 75, "duration": 4, "velocity": 95}, {"time": 3923, "pitch": 73, "duration": 7, "velocity": 104}, {"time": 3929, "pitch": 70, "duration": 48, "velocity": 99}, {"time": 3977, "pitch": 73, "duration": 6, "velocity": 111}, {"time": 3983, "pitch": 75, "duration": 3, "velocity": 98}, {"time": 3986, "pitch": 78, "duration": 3, "velocity": 98}, {"time": 3989, "pitch": 78, "duration": 6, "velocity": 93}, {"time": 3995, "pitch": 73, "duration": 6, "velocity": 106}, {"time": 4001, "pitch": 75, "duration": 6, "velocity": 105}, {"time": 4007, "pitch": 70, "duration": 3, "velocity": 93}, {"time": 4010, "pitch": 73, "duration": 15, "velocity": 98}, {"time": 4025, "pitch": 78, "duration": 3, "velocity": 106}, {"time": 4028, "pitch": 78, "duration": 6, "velocity": 101}, {"time": 4034, "pitch": 78, "duration": 3, "velocity": 103}, {"time": 4037, "pitch": 78, "duration": 6, "velocity": 103}, {"time": 4043, "pitch": 73, "duration": 3, "velocity": 101}, {"time": 4046, "pitch": 73, "duration": 3, "velocity": 100}, {"time": 4049, "pitch": 75, "duration": 3, "velocity": 103}, {"time": 4052, "pitch": 70, "duration": 6, "velocity": 100}, {"time": 4058, "pitch": 70, "duration": 3, "velocity": 98}, {"time": 4061, "pitch": 68, "duration": 12, "velocity": 96}, {"time": 4073, "pitch": 68, "duration": 6, "velocity": 101}, {"time": 4079, "pitch": 70, "duration": 3, "velocity": 93}, {"time": 4082, "pitch": 71, "duration": 12, "velocity": 89}, {"time": 4094, "pitch": 71, "duration": 6, "velocity": 99}, {"time": 4100, "pitch": 73, "duration": 4, "velocity": 92}, {"time": 4103, "pitch": 75, "duration": 42, "velocity": 97}, {"time": 4145, "pitch": 71, "duration": 9, "velocity": 104}, {"time": 4154, "pitch": 70, "duration": 9, "velocity": 109}, {"time": 4163, "pitch": 68, "duration": 9, "velocity": 97}, {"time": 4172, "pitch": 66, "duration": 45, "velocity": 99}]}, {"program": 0, "is_drum": false, "name": "PIANO", "notes": [{"time": 41, "pitch": 54, "duration": 43, "velocity": 60}, {"time": 47, "pitch": 61, "duration": 36, "velocity": 47}, {"time": 50, "pitch": 66, "duration": 5, "velocity": 63}, {"time": 53, "pitch": 68, "duration": 4, "velocity": 41}, {"time": 56, "pitch": 70, "duration": 2, "velocity": 55}, {"time": 68, "pitch": 66, "duration": 6, "velocity": 33}, {"time": 71, "pitch": 68, "duration": 4, "velocity": 47}, {"time": 74, "pitch": 73, "duration": 6, "velocity": 63}, {"time": 80, "pitch": 66, "duration": 3, "velocity": 42}, {"time": 83, "pitch": 68, "duration": 11, "velocity": 50}, {"time": 86, "pitch": 70, "duration": 8, "velocity": 61}, {"time": 89, "pitch": 54, "duration": 21, "velocity": 70}, {"time": 92, "pitch": 61, "duration": 24, "velocity": 44}, {"time": 95, "pitch": 66, "duration": 4, "velocity": 47}, {"time": 98, "pitch": 68, "duration": 8, "velocity": 60}, {"time": 104, "pitch": 66, "duration": 6, "velocity": 52}, {"time": 116, "pitch": 54, "duration": 15, "velocity": 23}, {"time": 119, "pitch": 61, "duration": 7, "velocity": 46}, {"time": 122, "pitch": 66, "duration": 6, "velocity": 51}, {"time": 128, "pitch": 68, "duration": 3, "velocity": 62}, {"time": 128, "pitch": 73, "duration": 7, "velocity": 63}, {"time": 131, "pitch": 61, "duration": 3, "velocity": 55}, {"time": 134, "pitch": 68, "duration": 2, "velocity": 45}, {"time": 137, "pitch": 54, "duration": 17, "velocity": 69}, {"time": 137, "pitch": 66, "duration": 3, "velocity": 67}, {"time": 137, "pitch": 70, "duration": 4, "velocity": 72}, {"time": 140, "pitch": 61, "duration": 8, "velocity": 50}, {"time": 143, "pitch": 66, "duration": 7, "velocity": 51}, {"time": 146, "pitch": 68, "duration": 7, "velocity": 64}, {"time": 146, "pitch": 73, "duration": 7, "velocity": 72}, {"time": 152, "pitch": 61, "duration": 3, "velocity": 61}, {"time": 155, "pitch": 68, "duration": 3, "velocity": 57}, {"time": 158, "pitch": 70, "duration": 2, "velocity": 61}, {"time": 161, "pitch": 53, "duration": 19, "velocity": 64}, {"time": 161, "pitch": 68, "duration": 6, "velocity": 59}, {"time": 161, "pitch": 73, "duration": 7, "velocity": 64}, {"time": 164, "pitch": 61, "duration": 8, "velocity": 60}, {"time": 167, "pitch": 65, "duration": 7, "velocity": 56}, {"time": 170, "pitch": 68, "duration": 6, "velocity": 59}, {"time": 176, "pitch": 70, "duration": 3, "velocity": 67}, {"time": 179, "pitch": 61, "duration": 1, "velocity": 49}, {"time": 185, "pitch": 51, "duration": 16, "velocity": 64}, {"time": 185, "pitch": 61, "duration": 3, "velocity": 59}, {"time": 185, "pitch": 66, "duration": 4, "velocity": 61}, {"time": 188, "pitch": 58, "duration": 7, "velocity": 48}, {"time": 191, "pitch": 61, "duration": 2, "velocity": 53}, {"time": 194, "pitch": 66, "duration": 7, "velocity": 75}, {"time": 200, "pitch": 58, "duration": 3, "velocity": 49}, {"time": 203, "pitch": 68, "duration": 3, "velocity": 59}, {"time": 206, "pitch": 70, "duration": 2, "velocity": 59}, {"time": 209, "pitch": 49, "duration": 13, "velocity": 67}, {"time": 209, "pitch": 66, "duration": 6, "velocity": 72}, {"time": 212, "pitch": 56, "duration": 10, "velocity": 50}, {"time": 215, "pitch": 61, "duration": 6, "velocity": 55}, {"time": 218, "pitch": 63, "duration": 3, "velocity": 57}, {"time": 221, "pitch": 65, "duration": 2, "velocity": 60}, {"time": 224, "pitch": 66, "duration": 3, "velocity": 60}, {"time": 227, "pitch": 68, "duration": 1, "velocity": 64}, {"time": 233, "pitch": 47, "duration": 17, "velocity": 72}, {"time": 233, "pitch": 63, "duration": 6, "velocity": 59}, {"time": 233, "pitch": 66, "duration": 6, "velocity": 72}, {"time": 236, "pitch": 54, "duration": 13, "velocity": 44}, {"time": 239, "pitch": 59, "duration": 10, "velocity": 58}, {"time": 242, "pitch": 63, "duration": 4, "velocity": 53}, {"time": 248, "pitch": 66, "duration": 2, "velocity": 72}, {"time": 257, "pitch": 49, "duration": 17, "velocity": 72}, {"time": 257, "pitch": 61, "duration": 5, "velocity": 61}, {"time": 257, "pitch": 65, "duration": 5, "velocity": 66}, {"time": 257, "pitch": 68, "duration": 5, "velocity": 66}, {"time": 263, "pitch": 56, "duration": 12, "velocity": 44}, {"time": 266, "pitch": 61, "duration": 6, "velocity": 61}, {"time": 266, "pitch": 66, "duration": 8, "velocity": 62}, {"time": 281, "pitch": 54, "duration": 18, "velocity": 66}, {"time": 281, "pitch": 61, "duration": 2, "velocity": 48}, {"time": 281, "pitch": 66, "duration": 3, "velocity": 53}, {"time": 281, "pitch": 70, "duration": 5, "velocity": 48}, {"time": 287, "pitch": 61, "duration": 9, "velocity": 44}, {"time": 290, "pitch": 66, "duration": 8, "velocity": 54}, {"time": 296, "pitch": 73, "duration": 4, "velocity": 73}, {"time": 299, "pitch": 61, "duration": 3, "velocity": 35}, {"time": 302, "pitch": 71, "duration": 6, "velocity": 50}, {"time": 305, "pitch": 54, "duration": 16, "velocity": 62}, {"time": 308, "pitch": 61, "duration": 6, "velocity": 47}, {"time": 311, "pitch": 66, "duration": 4, "velocity": 52}, {"time": 314, "pitch": 70, "duration": 7, "velocity": 78}, {"time": 320, "pitch": 61, "duration": 1, "velocity": 63}, {"time": 323, "pitch": 68, "duration": 2, "velocity": 56}, {"time": 326, "pitch": 65, "duration": 3, "velocity": 70}, {"time": 329, "pitch": 54, "duration": 18, "velocity": 73}, {"time": 329, "pitch": 66, "duration": 3, "velocity": 70}, {"time": 332, "pitch": 61, "duration": 10, "velocity": 57}, {"time": 335, "pitch": 66, "duration": 10, "velocity": 50}, {"time": 344, "pitch": 77, "duration": 2, "velocity": 54}, {"time": 347, "pitch": 61, "duration": 4, "velocity": 50}, {"time": 347, "pitch": 78, "duration": 1, "velocity": 70}, {"time": 350, "pitch": 68, "duration": 5, "velocity": 59}, {"time": 350, "pitch": 73, "duration": 6, "velocity": 62}, {"time": 350, "pitch": 77, "duration": 9, "velocity": 61}, {"time": 353, "pitch": 53, "duration": 17, "velocity": 61}, {"time": 356, "pitch": 61, "duration": 8, "velocity": 53}, {"time": 359, "pitch": 65, "duration": 8, "velocity": 49}, {"time": 362, "pitch": 68, "duration": 5, "velocity": 59}, {"time": 368, "pitch": 61, "duration": 3, "velocity": 59}, {"time": 377, "pitch": 51, "duration": 19, "velocity": 69}, {"time": 377, "pitch": 70, "duration": 4, "velocity": 59}, {"time": 377, "pitch": 73, "duration": 4, "velocity": 67}, {"time": 380, "pitch": 58, "duration": 7, "velocity": 56}, {"time": 383, "pitch": 63, "duration": 7, "velocity": 55}, {"time": 386, "pitch": 66, "duration": 5, "velocity": 49}, {"time": 386, "pitch": 70, "duration": 5, "velocity": 39}, {"time": 392, "pitch": 65, "duration": 3, "velocity": 59}, {"time": 392, "pitch": 68, "duration": 4, "velocity": 67}, {"time": 395, "pitch": 58, "duration": 2, "velocity": 57}, {"time": 398, "pitch": 66, "duration": 2, "velocity": 57}, {"time": 398, "pitch": 70, "duration": 2, "velocity": 60}, {"time": 401, "pitch": 49, "duration": 15, "velocity": 63}, {"time": 401, "pitch": 65, "duration": 6, "velocity": 64}, {"time": 401, "pitch": 68, "duration": 6, "velocity": 73}, {"time": 404, "pitch": 58, "duration": 12, "velocity": 52}, {"time": 407, "pitch": 61, "duration": 8, "velocity": 58}, {"time": 410, "pitch": 65, "duration": 3, "velocity": 61}, {"time": 413, "pitch": 66, "duration": 3, "velocity": 60}, {"time": 416, "pitch": 68, "duration": 2, "velocity": 61}, {"time": 419, "pitch": 65, "duration": 3, "velocity": 66}, {"time": 422, "pitch": 61, "duration": 3, "velocity": 72}, {"time": 425, "pitch": 47, "duration": 16, "velocity": 67}, {"time": 425, "pitch": 63, "duration": 3, "velocity": 64}, {"time": 428, "pitch": 54, "duration": 13, "velocity": 60}, {"time": 431, "pitch": 59, "duration": 5, "velocity": 56}, {"time": 434, "pitch": 61, "duration": 6, "velocity": 69}, {"time": 434, "pitch": 66, "duration": 7, "velocity": 69}, {"time": 440, "pitch": 59, "duration": 2, "velocity": 66}, {"time": 443, "pitch": 61, "duration": 2, "velocity": 49}, {"time": 446, "pitch": 68, "duration": 1, "velocity": 41}, {"time": 449, "pitch": 49, "duration": 16, "velocity": 75}, {"time": 449, "pitch": 61, "duration": 4, "velocity": 61}, {"time": 449, "pitch": 66, "duration": 4, "velocity": 72}, {"time": 452, "pitch": 56, "duration": 8, "velocity": 60}, {"time": 455, "pitch": 61, "duration": 2, "velocity": 56}, {"time": 458, "pitch": 65, "duration": 6, "velocity": 69}, {"time": 464, "pitch": 56, "duration": 1, "velocity": 61}, {"time": 467, "pitch": 66, "duration": 3, "velocity": 62}, {"time": 470, "pitch": 68, "duration": 2, "velocity": 70}, {"time": 473, "pitch": 42, "duration": 30, "velocity": 66}, {"time": 473, "pitch": 61, "duration": 4, "velocity": 61}, {"time": 473, "pitch": 66, "duration": 4, "velocity": 67}, {"time": 473, "pitch": 70, "duration": 4, "velocity": 66}, {"time": 476, "pitch": 49, "duration": 27, "velocity": 53}, {"time": 479, "pitch": 54, "duration": 4, "velocity": 49}, {"time": 482, "pitch": 58, "duration": 3, "velocity": 60}, {"time": 482, "pitch": 66, "duration": 3, "velocity": 72}, {"time": 488, "pitch": 59, "duration": 4, "velocity": 59}, {"time": 488, "pitch": 66, "duration": 5, "velocity": 46}, {"time": 491, "pitch": 63, "duration": 3, "velocity": 16}, {"time": 494, "pitch": 54, "duration": 11, "velocity": 47}, {"time": 497, "pitch": 58, "duration": 6, "velocity": 55}, {"time": 497, "pitch": 61, "duration": 6, "velocity": 62}, {"time": 497, "pitch": 66, "duration": 7, "velocity": 52}, {"time": 521, "pitch": 54, "duration": 22, "velocity": 54}, {"time": 524, "pitch": 61, "duration": 4, "velocity": 44}, {"time": 527, "pitch": 66, "duration": 2, "velocity": 61}, {"time": 530, "pitch": 68, "duration": 7, "velocity": 64}, {"time": 536, "pitch": 61, "duration": 4, "velocity": 47}, {"time": 539, "pitch": 70, "duration": 3, "velocity": 48}, {"time": 542, "pitch": 68, "duration": 9, "velocity": 61}, {"time": 545, "pitch": 53, "duration": 15, "velocity": 55}, {"time": 548, "pitch": 61, "duration": 9, "velocity": 47}, {"time": 551, "pitch": 65, "duration": 7, "velocity": 35}, {"time": 554, "pitch": 73, "duration": 8, "velocity": 61}, {"time": 560, "pitch": 61, "duration": 4, "velocity": 40}, {"time": 563, "pitch": 68, "duration": 3, "velocity": 46}, {"time": 566, "pitch": 66, "duration": 5, "velocity": 67}, {"time": 569, "pitch": 51, "duration": 18, "velocity": 57}, {"time": 572, "pitch": 58, "duration": 13, "velocity": 39}, {"time": 575, "pitch": 63, "duration": 4, "velocity": 47}, {"time": 578, "pitch": 71, "duration": 7, "velocity": 64}, {"time": 584, "pitch": 59, "duration": 2, "velocity": 66}, {"time": 587, "pitch": 63, "duration": 3, "velocity": 52}, {"time": 590, "pitch": 68, "duration": 2, "velocity": 57}, {"time": 593, "pitch": 49, "duration": 16, "velocity": 59}, {"time": 593, "pitch": 66, "duration": 4, "velocity": 50}, {"time": 596, "pitch": 58, "duration": 6, "velocity": 46}, {"time": 599, "pitch": 61, "duration": 6, "velocity": 59}, {"time": 605, "pitch": 70, "duration": 5, "velocity": 52}, {"time": 611, "pitch": 58, "duration": 1, "velocity": 48}, {"time": 614, "pitch": 61, "duration": 2, "velocity": 44}, {"time": 617, "pitch": 47, "duration": 16, "velocity": 59}, {"time": 617, "pitch": 68, "duration": 2, "velocity": 42}, {"time": 620, "pitch": 54, "duration": 12, "velocity": 48}, {"time": 620, "pitch": 66, "duration": 6, "velocity": 62}, {"time": 623, "pitch": 59, "duration": 7, "velocity": 53}, {"time": 626, "pitch": 61, "duration": 6, "velocity": 55}, {"time": 635, "pitch": 66, "duration": 2, "velocity": 60}, {"time": 641, "pitch": 46, "duration": 16, "velocity": 57}, {"time": 641, "pitch": 61, "duration": 3, "velocity": 44}, {"time": 644, "pitch": 54, "duration": 13, "velocity": 46}, {"time": 644, "pitch": 68, "duration": 5, "velocity": 57}, {"time": 647, "pitch": 58, "duration": 9, "velocity": 49}, {"time": 650, "pitch": 61, "duration": 6, "velocity": 57}, {"time": 659, "pitch": 66, "duration": 7, "velocity": 62}, {"time": 665, "pitch": 44, "duration": 17, "velocity": 63}, {"time": 665, "pitch": 63, "duration": 9, "velocity": 33}, {"time": 665, "pitch": 66, "duration": 1, "velocity": 38}, {"time": 665, "pitch": 71, "duration": 9, "velocity": 60}, {"time": 668, "pitch": 51, "duration": 14, "velocity": 51}, {"time": 671, "pitch": 56, "duration": 11, "velocity": 54}, {"time": 674, "pitch": 58, "duration": 8, "velocity": 58}, {"time": 680, "pitch": 59, "duration": 3, "velocity": 61}, {"time": 686, "pitch": 66, "duration": 2, "velocity": 39}, {"time": 689, "pitch": 49, "duration": 16, "velocity": 70}, {"time": 689, "pitch": 65, "duration": 5, "velocity": 67}, {"time": 692, "pitch": 56, "duration": 14, "velocity": 48}, {"time": 695, "pitch": 61, "duration": 7, "velocity": 51}, {"time": 698, "pitch": 66, "duration": 6, "velocity": 64}, {"time": 704, "pitch": 68, "duration": 1, "velocity": 62}, {"time": 710, "pitch": 71, "duration": 2, "velocity": 42}, {"time": 713, "pitch": 54, "duration": 17, "velocity": 64}, {"time": 713, "pitch": 73, "duration": 3, "velocity": 61}, {"time": 716, "pitch": 61, "duration": 17, "velocity": 44}, {"time": 719, "pitch": 66, "duration": 5, "velocity": 50}, {"time": 722, "pitch": 78, "duration": 3, "velocity": 70}, {"time": 728, "pitch": 66, "duration": 3, "velocity": 47}, {"time": 734, "pitch": 82, "duration": 3, "velocity": 64}, {"time": 737, "pitch": 53, "duration": 17, "velocity": 60}, {"time": 737, "pitch": 80, "duration": 2, "velocity": 63}, {"time": 740, "pitch": 61, "duration": 10, "velocity": 59}, {"time": 743, "pitch": 65, "duration": 9, "velocity": 55}, {"time": 746, "pitch": 68, "duration": 4, "velocity": 48}, {"time": 752, "pitch": 73, "duration": 2, "velocity": 61}, {"time": 755, "pitch": 75, "duration": 2, "velocity": 49}, {"time": 758, "pitch": 78, "duration": 7, "velocity": 59}, {"time": 761, "pitch": 51, "duration": 16, "velocity": 60}, {"time": 761, "pitch": 71, "duration": 3, "velocity": 44}, {"time": 761, "pitch": 75, "duration": 4, "velocity": 60}, {"time": 764, "pitch": 59, "duration": 10, "velocity": 56}, {"time": 767, "pitch": 63, "duration": 9, "velocity": 40}, {"time": 770, "pitch": 66, "duration": 7, "velocity": 58}, {"time": 776, "pitch": 71, "duration": 1, "velocity": 49}, {"time": 779, "pitch": 59, "duration": 1, "velocity": 58}, {"time": 782, "pitch": 68, "duration": 3, "velocity": 47}, {"time": 785, "pitch": 49, "duration": 15, "velocity": 60}, {"time": 785, "pitch": 70, "duration": 9, "velocity": 63}, {"time": 791, "pitch": 58, "duration": 10, "velocity": 54}, {"time": 794, "pitch": 61, "duration": 5, "velocity": 47}, {"time": 797, "pitch": 66, "duration": 3, "velocity": 60}, {"time": 800, "pitch": 68, "duration": 2, "velocity": 54}, {"time": 803, "pitch": 70, "duration": 2, "velocity": 59}, {"time": 806, "pitch": 73, "duration": 4, "velocity": 59}, {"time": 809, "pitch": 47, "duration": 18, "velocity": 61}, {"time": 809, "pitch": 66, "duration": 5, "velocity": 57}, {"time": 809, "pitch": 71, "duration": 6, "velocity": 56}, {"time": 812, "pitch": 54, "duration": 14, "velocity": 48}, {"time": 815, "pitch": 59, "duration": 10, "velocity": 57}, {"time": 818, "pitch": 63, "duration": 2, "velocity": 55}, {"time": 818, "pitch": 70, "duration": 5, "velocity": 54}, {"time": 824, "pitch": 61, "duration": 3, "velocity": 60}, {"time": 824, "pitch": 68, "duration": 3, "velocity": 58}, {"time": 833, "pitch": 46, "duration": 5, "velocity": 62}, {"time": 833, "pitch": 61, "duration": 2, "velocity": 56}, {"time": 833, "pitch": 66, "duration": 2, "velocity": 56}, {"time": 836, "pitch": 54, "duration": 3, "velocity": 59}, {"time": 839, "pitch": 58, "duration": 4, "velocity": 52}, {"time": 842, "pitch": 61, "duration": 6, "velocity": 54}, {"time": 848, "pitch": 66, "duration": 1, "velocity": 63}, {"time": 857, "pitch": 44, "duration": 5, "velocity": 59}, {"time": 857, "pitch": 63, "duration": 5, "velocity": 52}, {"time": 857, "pitch": 66, "duration": 4, "velocity": 46}, {"time": 857, "pitch": 71, "duration": 5, "velocity": 64}, {"time": 860, "pitch": 51, "duration": 3, "velocity": 47}, {"time": 863, "pitch": 56, "duration": 2, "velocity": 55}, {"time": 866, "pitch": 63, "duration": 4, "velocity": 57}, {"time": 872, "pitch": 66, "duration": 1, "velocity": 66}, {"time": 881, "pitch": 49, "duration": 19, "velocity": 64}, {"time": 881, "pitch": 66, "duration": 11, "velocity": 56}, {"time": 881, "pitch": 68, "duration": 11, "velocity": 56}, {"time": 881, "pitch": 73, "duration": 13, "velocity": 49}, {"time": 893, "pitch": 61, "duration": 5, "velocity": 44}, {"time": 896, "pitch": 66, "duration": 3, "velocity": 59}, {"time": 899, "pitch": 68, "duration": 2, "velocity": 62}, {"time": 902, "pitch": 70, "duration": 1, "velocity": 58}, {"time": 905, "pitch": 61, "duration": 17, "velocity": 44}, {"time": 905, "pitch": 66, "duration": 18, "velocity": 51}, {"time": 905, "pitch": 73, "duration": 17, "velocity": 56}, {"time": 905, "pitch": 49, "duration": 15, "velocity": 79}, {"time": 919, "pitch": 44, "duration": 4, "velocity": 74}, {"time": 922, "pitch": 37, "duration": 7, "velocity": 77}, {"time": 929, "pitch": 39, "duration": 17, "velocity": 63}, {"time": 929, "pitch": 51, "duration": 17, "velocity": 63}, {"time": 929, "pitch": 63, "duration": 3, "velocity": 69}, {"time": 929, "pitch": 66, "duration": 3, "velocity": 69}, {"time": 929, "pitch": 70, "duration": 3, "velocity": 69}, {"time": 935, "pitch": 58, "duration": 7, "velocity": 36}, {"time": 941, "pitch": 63, "duration": 5, "velocity": 53}, {"time": 941, "pitch": 66, "duration": 8, "velocity": 69}, {"time": 941, "pitch": 70, "duration": 6, "velocity": 69}, {"time": 947, "pitch": 58, "duration": 5, "velocity": 44}, {"time": 953, "pitch": 37, "duration": 18, "velocity": 66}, {"time": 953, "pitch": 49, "duration": 18, "velocity": 66}, {"time": 953, "pitch": 63, "duration": 6, "velocity": 67}, {"time": 953, "pitch": 66, "duration": 7, "velocity": 69}, {"time": 953, "pitch": 70, "duration": 8, "velocity": 69}, {"time": 959, "pitch": 58, "duration": 5, "velocity": 37}, {"time": 965, "pitch": 61, "duration": 6, "velocity": 44}, {"time": 965, "pitch": 65, "duration": 5, "velocity": 69}, {"time": 965, "pitch": 68, "duration": 6, "velocity": 72}, {"time": 965, "pitch": 73, "duration": 3, "velocity": 61}, {"time": 971, "pitch": 58, "duration": 1, "velocity": 70}, {"time": 977, "pitch": 47, "duration": 4, "velocity": 70}, {"time": 977, "pitch": 59, "duration": 5, "velocity": 49}, {"time": 977, "pitch": 63, "duration": 6, "velocity": 61}, {"time": 977, "pitch": 66, "duration": 5, "velocity": 63}, {"time": 977, "pitch": 71, "duration": 6, "velocity": 69}, {"time": 989, "pitch": 49, "duration": 5, "velocity": 62}, {"time": 989, "pitch": 61, "duration": 4, "velocity": 48}, {"time": 989, "pitch": 65, "duration": 6, "velocity": 69}, {"time": 989, "pitch": 68, "duration": 5, "velocity": 70}, {"time": 989, "pitch": 73, "duration": 5, "velocity": 70}, {"time": 1001, "pitch": 42, "duration": 17, "velocity": 58}, {"time": 1001, "pitch": 54, "duration": 12, "velocity": 49}, {"time": 1001, "pitch": 61, "duration": 6, "velocity": 66}, {"time": 1001, "pitch": 66, "duration": 6, "velocity": 61}, {"time": 1001, "pitch": 70, "duration": 5, "velocity": 64}, {"time": 1013, "pitch": 61, "duration": 7, "velocity": 69}, {"time": 1013, "pitch": 66, "duration": 6, "velocity": 67}, {"time": 1013, "pitch": 70, "duration": 6, "velocity": 66}, {"time": 1019, "pitch": 54, "duration": 3, "velocity": 48}, {"time": 1022, "pitch": 53, "duration": 3, "velocity": 51}, {"time": 1025, "pitch": 39, "duration": 13, "velocity": 70}, {"time": 1025, "pitch": 51, "duration": 13, "velocity": 70}, {"time": 1025, "pitch": 63, "duration": 8, "velocity": 63}, {"time": 1025, "pitch": 66, "duration": 8, "velocity": 64}, {"time": 1025, "pitch": 70, "duration": 7, "velocity": 64}, {"time": 1037, "pitch": 63, "duration": 3, "velocity": 64}, {"time": 1037, "pitch": 66, "duration": 3, "velocity": 69}, {"time": 1037, "pitch": 70, "duration": 3, "velocity": 66}, {"time": 1040, "pitch": 51, "duration": 2, "velocity": 58}, {"time": 1043, "pitch": 63, "duration": 3, "velocity": 63}, {"time": 1046, "pitch": 70, "duration": 3, "velocity": 59}, {"time": 1049, "pitch": 49, "duration": 19, "velocity": 64}, {"time": 1049, "pitch": 65, "duration": 6, "velocity": 64}, {"time": 1049, "pitch": 68, "duration": 5, "velocity": 69}, {"time": 1055, "pitch": 56, "duration": 6, "velocity": 40}, {"time": 1061, "pitch": 61, "duration": 4, "velocity": 55}, {"time": 1061, "pitch": 63, "duration": 5, "velocity": 61}, {"time": 1061, "pitch": 65, "duration": 4, "velocity": 67}, {"time": 1061, "pitch": 68, "duration": 5, "velocity": 69}, {"time": 1067, "pitch": 56, "duration": 1, "velocity": 63}, {"time": 1073, "pitch": 47, "duration": 24, "velocity": 67}, {"time": 1073, "pitch": 59, "duration": 15, "velocity": 62}, {"time": 1073, "pitch": 63, "duration": 7, "velocity": 64}, {"time": 1073, "pitch": 66, "duration": 8, "velocity": 72}, {"time": 1073, "pitch": 71, "duration": 8, "velocity": 67}, {"time": 1076, "pitch": 54, "duration": 12, "velocity": 17}, {"time": 1085, "pitch": 63, "duration": 6, "velocity": 60}, {"time": 1085, "pitch": 66, "duration": 6, "velocity": 64}, {"time": 1085, "pitch": 71, "duration": 6, "velocity": 64}, {"time": 1091, "pitch": 54, "duration": 6, "velocity": 23}, {"time": 1091, "pitch": 59, "duration": 6, "velocity": 52}, {"time": 1097, "pitch": 49, "duration": 7, "velocity": 63}, {"time": 1097, "pitch": 61, "duration": 7, "velocity": 60}, {"time": 1097, "pitch": 66, "duration": 6, "velocity": 61}, {"time": 1097, "pitch": 68, "duration": 6, "velocity": 58}, {"time": 1109, "pitch": 49, "duration": 7, "velocity": 63}, {"time": 1109, "pitch": 61, "duration": 7, "velocity": 60}, {"time": 1109, "pitch": 66, "duration": 6, "velocity": 61}, {"time": 1109, "pitch": 68, "duration": 6, "velocity": 58}, {"time": 1121, "pitch": 42, "duration": 37, "velocity": 66}, {"time": 1121, "pitch": 58, "duration": 5, "velocity": 60}, {"time": 1121, "pitch": 61, "duration": 6, "velocity": 57}, {"time": 1121, "pitch": 66, "duration": 5, "velocity": 67}, {"time": 1127, "pitch": 49, "duration": 21, "velocity": 42}, {"time": 1133, "pitch": 59, "duration": 3, "velocity": 60}, {"time": 1133, "pitch": 63, "duration": 4, "velocity": 67}, {"time": 1133, "pitch": 66, "duration": 4, "velocity": 57}, {"time": 1139, "pitch": 54, "duration": 19, "velocity": 42}, {"time": 1145, "pitch": 73, "duration": 12, "velocity": 40}, {"time": 1145, "pitch": 85, "duration": 7, "velocity": 52}, {"time": 1169, "pitch": 42, "duration": 22, "velocity": 72}, {"time": 1169, "pitch": 54, "duration": 3, "velocity": 69}, {"time": 1169, "pitch": 61, "duration": 4, "velocity": 58}, {"time": 1169, "pitch": 66, "duration": 6, "velocity": 61}, {"time": 1169, "pitch": 70, "duration": 5, "velocity": 64}, {"time": 1175, "pitch": 54, "duration": 4, "velocity": 39}, {"time": 1178, "pitch": 61, "duration": 5, "velocity": 55}, {"time": 1178, "pitch": 66, "duration": 6, "velocity": 64}, {"time": 1178, "pitch": 73, "duration": 6, "velocity": 64}, {"time": 1184, "pitch": 54, "duration": 3, "velocity": 51}, {"time": 1187, "pitch": 61, "duration": 2, "velocity": 70}, {"time": 1187, "pitch": 66, "duration": 4, "velocity": 72}, {"time": 1187, "pitch": 70, "duration": 4, "velocity": 64}, {"time": 1190, "pitch": 54, "duration": 7, "velocity": 62}, {"time": 1193, "pitch": 42, "duration": 22, "velocity": 70}, {"time": 1193, "pitch": 66, "duration": 6, "velocity": 75}, {"time": 1193, "pitch": 70, "duration": 6, "velocity": 73}, {"time": 1193, "pitch": 75, "duration": 7, "velocity": 64}, {"time": 1199, "pitch": 54, "duration": 3, "velocity": 51}, {"time": 1199, "pitch": 70, "duration": 1, "velocity": 67}, {"time": 1202, "pitch": 73, "duration": 6, "velocity": 63}, {"time": 1208, "pitch": 66, "duration": 9, "velocity": 45}, {"time": 1208, "pitch": 70, "duration": 10, "velocity": 50}, {"time": 1208, "pitch": 75, "duration": 9, "velocity": 62}, {"time": 1217, "pitch": 51, "duration": 18, "velocity": 63}, {"time": 1217, "pitch": 63, "duration": 6, "velocity": 69}, {"time": 1217, "pitch": 66, "duration": 1, "velocity": 72}, {"time": 1220, "pitch": 70, "duration": 5, "velocity": 17}, {"time": 1226, "pitch": 63, "duration": 6, "velocity": 64}, {"time": 1226, "pitch": 66, "duration": 6, "velocity": 72}, {"time": 1226, "pitch": 70, "duration": 6, "velocity": 70}, {"time": 1235, "pitch": 63, "duration": 1, "velocity": 58}, {"time": 1235, "pitch": 66, "duration": 1, "velocity": 67}, {"time": 1235, "pitch": 70, "duration": 1, "velocity": 54}, {"time": 1241, "pitch": 47, "duration": 4, "velocity": 63}, {"time": 1241, "pitch": 59, "duration": 4, "velocity": 64}, {"time": 1241, "pitch": 63, "duration": 4, "velocity": 64}, {"time": 1241, "pitch": 66, "duration": 4, "velocity": 72}, {"time": 1241, "pitch": 71, "duration": 5, "velocity": 70}, {"time": 1250, "pitch": 49, "duration": 11, "velocity": 59}, {"time": 1250, "pitch": 61, "duration": 3, "velocity": 72}, {"time": 1250, "pitch": 65, "duration": 6, "velocity": 64}, {"time": 1250, "pitch": 68, "duration": 6, "velocity": 73}, {"time": 1250, "pitch": 73, "duration": 6, "velocity": 69}, {"time": 1265, "pitch": 44, "duration": 19, "velocity": 39}, {"time": 1265, "pitch": 56, "duration": 10, "velocity": 28}, {"time": 1265, "pitch": 63, "duration": 6, "velocity": 60}, {"time": 1265, "pitch": 66, "duration": 6, "velocity": 72}, {"time": 1265, "pitch": 71, "duration": 7, "velocity": 70}, {"time": 1274, "pitch": 63, "duration": 6, "velocity": 58}, {"time": 1274, "pitch": 66, "duration": 5, "velocity": 67}, {"time": 1274, "pitch": 71, "duration": 6, "velocity": 63}, {"time": 1280, "pitch": 56, "duration": 3, "velocity": 45}, {"time": 1283, "pitch": 63, "duration": 2, "velocity": 59}, {"time": 1283, "pitch": 66, "duration": 2, "velocity": 66}, {"time": 1283, "pitch": 71, "duration": 2, "velocity": 67}, {"time": 1286, "pitch": 56, "duration": 1, "velocity": 36}, {"time": 1289, "pitch": 49, "duration": 17, "velocity": 78}, {"time": 1289, "pitch": 61, "duration": 6, "velocity": 59}, {"time": 1289, "pitch": 66, "duration": 6, "velocity": 64}, {"time": 1289, "pitch": 68, "duration": 6, "velocity": 61}, {"time": 1289, "pitch": 73, "duration": 6, "velocity": 36}, {"time": 1295, "pitch": 56, "duration": 3, "velocity": 45}, {"time": 1298, "pitch": 61, "duration": 6, "velocity": 63}, {"time": 1298, "pitch": 66, "duration": 6, "velocity": 72}, {"time": 1298, "pitch": 73, "duration": 6, "velocity": 55}, {"time": 1304, "pitch": 56, "duration": 2, "velocity": 69}, {"time": 1307, "pitch": 61, "duration": 2, "velocity": 69}, {"time": 1307, "pitch": 71, "duration": 4, "velocity": 73}, {"time": 1312, "pitch": 61, "duration": 4, "velocity": 63}, {"time": 1312, "pitch": 66, "duration": 5, "velocity": 64}, {"time": 1312, "pitch": 70, "duration": 6, "velocity": 63}, {"time": 1313, "pitch": 42, "duration": 19, "velocity": 72}, {"time": 1319, "pitch": 49, "duration": 12, "velocity": 64}, {"time": 1321, "pitch": 61, "duration": 1, "velocity": 61}, {"time": 1321, "pitch": 68, "duration": 1, "velocity": 62}, {"time": 1328, "pitch": 58, "duration": 2, "velocity": 67}, {"time": 1328, "pitch": 66, "duration": 3, "velocity": 70}, {"time": 1331, "pitch": 54, "duration": 1, "velocity": 44}, {"time": 1336, "pitch": 49, "duration": 3, "velocity": 60}, {"time": 1336, "pitch": 59, "duration": 6, "velocity": 63}, {"time": 1336, "pitch": 61, "duration": 5, "velocity": 67}, {"time": 1336, "pitch": 66, "duration": 5, "velocity": 66}, {"time": 1337, "pitch": 37, "duration": 3, "velocity": 65}, {"time": 1345, "pitch": 37, "duration": 10, "velocity": 74}, {"time": 1345, "pitch": 49, "duration": 3, "velocity": 60}, {"time": 1345, "pitch": 59, "duration": 15, "velocity": 63}, {"time": 1345, "pitch": 61, "duration": 14, "velocity": 69}, {"time": 1345, "pitch": 68, "duration": 15, "velocity": 68}, {"time": 1352, "pitch": 49, "duration": 3, "velocity": 53}, {"time": 1354, "pitch": 75, "duration": 4, "velocity": 74}, {"time": 1357, "pitch": 77, "duration": 2, "velocity": 78}, {"time": 1358, "pitch": 61, "duration": 3, "velocity": 85}, {"time": 1361, "pitch": 54, "duration": 17, "velocity": 67}, {"time": 1361, "pitch": 61, "duration": 6, "velocity": 67}, {"time": 1361, "pitch": 66, "duration": 5, "velocity": 72}, {"time": 1361, "pitch": 70, "duration": 5, "velocity": 61}, {"time": 1367, "pitch": 58, "duration": 5, "velocity": 52}, {"time": 1370, "pitch": 61, "duration": 6, "velocity": 66}, {"time": 1370, "pitch": 66, "duration": 6, "velocity": 72}, {"time": 1370, "pitch": 70, "duration": 5, "velocity": 69}, {"time": 1376, "pitch": 58, "duration": 9, "velocity": 67}, {"time": 1379, "pitch": 61, "duration": 2, "velocity": 69}, {"time": 1379, "pitch": 66, "duration": 3, "velocity": 76}, {"time": 1379, "pitch": 70, "duration": 4, "velocity": 61}, {"time": 1385, "pitch": 54, "duration": 20, "velocity": 46}, {"time": 1385, "pitch": 58, "duration": 1, "velocity": 75}, {"time": 1385, "pitch": 63, "duration": 5, "velocity": 73}, {"time": 1385, "pitch": 66, "duration": 5, "velocity": 63}, {"time": 1391, "pitch": 58, "duration": 5, "velocity": 61}, {"time": 1394, "pitch": 61, "duration": 6, "velocity": 73}, {"time": 1394, "pitch": 65, "duration": 6, "velocity": 73}, {"time": 1394, "pitch": 68, "duration": 6, "velocity": 69}, {"time": 1400, "pitch": 58, "duration": 4, "velocity": 60}, {"time": 1403, "pitch": 61, "duration": 3, "velocity": 80}, {"time": 1406, "pitch": 73, "duration": 2, "velocity": 67}, {"time": 1409, "pitch": 51, "duration": 20, "velocity": 73}, {"time": 1409, "pitch": 63, "duration": 3, "velocity": 66}, {"time": 1409, "pitch": 66, "duration": 6, "velocity": 69}, {"time": 1409, "pitch": 70, "duration": 5, "velocity": 63}, {"time": 1409, "pitch": 73, "duration": 2, "velocity": 49}, {"time": 1415, "pitch": 58, "duration": 8, "velocity": 60}, {"time": 1418, "pitch": 63, "duration": 7, "velocity": 59}, {"time": 1418, "pitch": 66, "duration": 3, "velocity": 72}, {"time": 1418, "pitch": 70, "duration": 3, "velocity": 72}, {"time": 1424, "pitch": 66, "duration": 5, "velocity": 73}, {"time": 1424, "pitch": 70, "duration": 3, "velocity": 70}, {"time": 1427, "pitch": 58, "duration": 1, "velocity": 69}, {"time": 1433, "pitch": 47, "duration": 5, "velocity": 78}, {"time": 1433, "pitch": 63, "duration": 4, "velocity": 64}, {"time": 1433, "pitch": 66, "duration": 4, "velocity": 69}, {"time": 1433, "pitch": 70, "duration": 4, "velocity": 59}, {"time": 1436, "pitch": 54, "duration": 2, "velocity": 47}, {"time": 1436, "pitch": 59, "duration": 2, "velocity": 51}, {"time": 1439, "pitch": 73, "duration": 1, "velocity": 50}, {"time": 1442, "pitch": 49, "duration": 11, "velocity": 80}, {"time": 1442, "pitch": 65, "duration": 2, "velocity": 80}, {"time": 1442, "pitch": 68, "duration": 2, "velocity": 80}, {"time": 1448, "pitch": 56, "duration": 6, "velocity": 57}, {"time": 1451, "pitch": 61, "duration": 2, "velocity": 57}, {"time": 1454, "pitch": 78, "duration": 2, "velocity": 72}, {"time": 1457, "pitch": 44, "duration": 21, "velocity": 59}, {"time": 1457, "pitch": 56, "duration": 3, "velocity": 58}, {"time": 1457, "pitch": 59, "duration": 6, "velocity": 76}, {"time": 1457, "pitch": 63, "duration": 6, "velocity": 63}, {"time": 1463, "pitch": 56, "duration": 4, "velocity": 47}, {"time": 1466, "pitch": 59, "duration": 6, "velocity": 70}, {"time": 1466, "pitch": 63, "duration": 6, "velocity": 72}, {"time": 1466, "pitch": 66, "duration": 5, "velocity": 69}, {"time": 1472, "pitch": 56, "duration": 3, "velocity": 48}, {"time": 1475, "pitch": 59, "duration": 1, "velocity": 64}, {"time": 1475, "pitch": 63, "duration": 1, "velocity": 64}, {"time": 1478, "pitch": 56, "duration": 4, "velocity": 49}, {"time": 1481, "pitch": 49, "duration": 2, "velocity": 76}, {"time": 1481, "pitch": 61, "duration": 3, "velocity": 69}, {"time": 1481, "pitch": 65, "duration": 3, "velocity": 67}, {"time": 1481, "pitch": 68, "duration": 3, "velocity": 63}, {"time": 1484, "pitch": 49, "duration": 14, "velocity": 47}, {"time": 1487, "pitch": 54, "duration": 4, "velocity": 29}, {"time": 1490, "pitch": 61, "duration": 6, "velocity": 66}, {"time": 1490, "pitch": 66, "duration": 6, "velocity": 72}, {"time": 1496, "pitch": 54, "duration": 2, "velocity": 61}, {"time": 1499, "pitch": 66, "duration": 4, "velocity": 72}, {"time": 1502, "pitch": 68, "duration": 2, "velocity": 69}, {"time": 1505, "pitch": 42, "duration": 5, "velocity": 70}, {"time": 1505, "pitch": 61, "duration": 5, "velocity": 60}, {"time": 1505, "pitch": 66, "duration": 8, "velocity": 69}, {"time": 1505, "pitch": 70, "duration": 6, "velocity": 67}, {"time": 1508, "pitch": 49, "duration": 2, "velocity": 54}, {"time": 1511, "pitch": 54, "duration": 3, "velocity": 44}, {"time": 1514, "pitch": 56, "duration": 7, "velocity": 66}, {"time": 1514, "pitch": 63, "duration": 4, "velocity": 61}, {"time": 1514, "pitch": 66, "duration": 3, "velocity": 47}, {"time": 1514, "pitch": 71, "duration": 4, "velocity": 72}, {"time": 1520, "pitch": 58, "duration": 1, "velocity": 69}, {"time": 1523, "pitch": 66, "duration": 3, "velocity": 66}, {"time": 1526, "pitch": 73, "duration": 2, "velocity": 61}, {"time": 1529, "pitch": 37, "duration": 9, "velocity": 63}, {"time": 1529, "pitch": 49, "duration": 9, "velocity": 50}, {"time": 1529, "pitch": 61, "duration": 2, "velocity": 61}, {"time": 1529, "pitch": 66, "duration": 2, "velocity": 59}, {"time": 1529, "pitch": 73, "duration": 11, "velocity": 59}, {"time": 1532, "pitch": 61, "duration": 3, "velocity": 54}, {"time": 1532, "pitch": 66, "duration": 3, "velocity": 54}, {"time": 1535, "pitch": 61, "duration": 3, "velocity": 54}, {"time": 1535, "pitch": 66, "duration": 3, "velocity": 60}, {"time": 1538, "pitch": 61, "duration": 3, "velocity": 54}, {"time": 1538, "pitch": 66, "duration": 3, "velocity": 64}, {"time": 1540, "pitch": 49, "duration": 11, "velocity": 72}, {"time": 1541, "pitch": 37, "duration": 9, "velocity": 63}, {"time": 1541, "pitch": 61, "duration": 3, "velocity": 72}, {"time": 1541, "pitch": 68, "duration": 3, "velocity": 72}, {"time": 1541, "pitch": 73, "duration": 13, "velocity": 72}, {"time": 1544, "pitch": 61, "duration": 3, "velocity": 70}, {"time": 1544, "pitch": 68, "duration": 3, "velocity": 70}, {"time": 1547, "pitch": 61, "duration": 3, "velocity": 71}, {"time": 1547, "pitch": 68, "duration": 3, "velocity": 71}, {"time": 1550, "pitch": 61, "duration": 3, "velocity": 81}, {"time": 1550, "pitch": 68, "duration": 3, "velocity": 81}, {"time": 1553, "pitch": 42, "duration": 7, "velocity": 85}, {"time": 1553, "pitch": 54, "duration": 7, "velocity": 85}, {"time": 1553, "pitch": 61, "duration": 1, "velocity": 85}, {"time": 1553, "pitch": 68, "duration": 1, "velocity": 85}, {"time": 1553, "pitch": 70, "duration": 4, "velocity": 85}, {"time": 1559, "pitch": 61, "duration": 7, "velocity": 63}, {"time": 1559, "pitch": 66, "duration": 7, "velocity": 66}, {"time": 1559, "pitch": 70, "duration": 6, "velocity": 61}, {"time": 1562, "pitch": 42, "duration": 1, "velocity": 66}, {"time": 1562, "pitch": 54, "duration": 1, "velocity": 54}, {"time": 1565, "pitch": 49, "duration": 4, "velocity": 70}, {"time": 1568, "pitch": 61, "duration": 4, "velocity": 67}, {"time": 1568, "pitch": 66, "duration": 4, "velocity": 69}, {"time": 1568, "pitch": 70, "duration": 4, "velocity": 64}, {"time": 1571, "pitch": 42, "duration": 1, "velocity": 30}, {"time": 1571, "pitch": 49, "duration": 5, "velocity": 59}, {"time": 1577, "pitch": 42, "duration": 21, "velocity": 66}, {"time": 1577, "pitch": 54, "duration": 9, "velocity": 51}, {"time": 1577, "pitch": 61, "duration": 4, "velocity": 62}, {"time": 1577, "pitch": 66, "duration": 3, "velocity": 57}, {"time": 1577, "pitch": 68, "duration": 4, "velocity": 70}, {"time": 1586, "pitch": 61, "duration": 5, "velocity": 66}, {"time": 1586, "pitch": 65, "duration": 5, "velocity": 67}, {"time": 1586, "pitch": 68, "duration": 5, "velocity": 64}, {"time": 1592, "pitch": 54, "duration": 3, "velocity": 55}, {"time": 1595, "pitch": 61, "duration": 2, "velocity": 58}, {"time": 1595, "pitch": 66, "duration": 2, "velocity": 73}, {"time": 1595, "pitch": 70, "duration": 2, "velocity": 50}, {"time": 1598, "pitch": 54, "duration": 4, "velocity": 55}, {"time": 1601, "pitch": 51, "duration": 19, "velocity": 69}, {"time": 1601, "pitch": 63, "duration": 4, "velocity": 67}, {"time": 1601, "pitch": 66, "duration": 4, "velocity": 75}, {"time": 1601, "pitch": 70, "duration": 4, "velocity": 66}, {"time": 1607, "pitch": 65, "duration": 1, "velocity": 67}, {"time": 1607, "pitch": 68, "duration": 2, "velocity": 72}, {"time": 1610, "pitch": 58, "duration": 11, "velocity": 63}, {"time": 1610, "pitch": 66, "duration": 1, "velocity": 72}, {"time": 1610, "pitch": 70, "duration": 1, "velocity": 73}, {"time": 1616, "pitch": 70, "duration": 3, "velocity": 69}, {"time": 1616, "pitch": 78, "duration": 3, "velocity": 66}, {"time": 1619, "pitch": 63, "duration": 1, "velocity": 63}, {"time": 1622, "pitch": 75, "duration": 1, "velocity": 59}, {"time": 1625, "pitch": 47, "duration": 6, "velocity": 78}, {"time": 1625, "pitch": 71, "duration": 3, "velocity": 72}, {"time": 1625, "pitch": 75, "duration": 3, "velocity": 63}, {"time": 1625, "pitch": 78, "duration": 3, "velocity": 51}, {"time": 1628, "pitch": 54, "duration": 3, "velocity": 60}, {"time": 1631, "pitch": 59, "duration": 1, "velocity": 72}, {"time": 1634, "pitch": 49, "duration": 11, "velocity": 78}, {"time": 1634, "pitch": 61, "duration": 6, "velocity": 50}, {"time": 1634, "pitch": 65, "duration": 5, "velocity": 72}, {"time": 1634, "pitch": 68, "duration": 5, "velocity": 63}, {"time": 1640, "pitch": 56, "duration": 5, "velocity": 72}, {"time": 1643, "pitch": 61, "duration": 1, "velocity": 82}, {"time": 1643, "pitch": 66, "duration": 3, "velocity": 93}, {"time": 1646, "pitch": 68, "duration": 1, "velocity": 63}, {"time": 1649, "pitch": 44, "duration": 21, "velocity": 76}, {"time": 1649, "pitch": 59, "duration": 5, "velocity": 73}, {"time": 1649, "pitch": 63, "duration": 4, "velocity": 76}, {"time": 1649, "pitch": 66, "duration": 5, "velocity": 70}, {"time": 1655, "pitch": 51, "duration": 15, "velocity": 49}, {"time": 1658, "pitch": 59, "duration": 6, "velocity": 73}, {"time": 1658, "pitch": 63, "duration": 5, "velocity": 72}, {"time": 1658, "pitch": 66, "duration": 5, "velocity": 72}, {"time": 1664, "pitch": 56, "duration": 6, "velocity": 52}, {"time": 1667, "pitch": 59, "duration": 4, "velocity": 95}, {"time": 1670, "pitch": 46, "duration": 4, "velocity": 66}, {"time": 1673, "pitch": 47, "duration": 20, "velocity": 57}, {"time": 1673, "pitch": 59, "duration": 4, "velocity": 70}, {"time": 1673, "pitch": 63, "duration": 6, "velocity": 75}, {"time": 1673, "pitch": 66, "duration": 6, "velocity": 60}, {"time": 1679, "pitch": 59, "duration": 5, "velocity": 60}, {"time": 1682, "pitch": 61, "duration": 6, "velocity": 75}, {"time": 1682, "pitch": 66, "duration": 6, "velocity": 64}, {"time": 1688, "pitch": 59, "duration": 4, "velocity": 72}, {"time": 1691, "pitch": 61, "duration": 1, "velocity": 78}, {"time": 1691, "pitch": 66, "duration": 1, "velocity": 73}, {"time": 1697, "pitch": 54, "duration": 18, "velocity": 70}, {"time": 1697, "pitch": 60, "duration": 1, "velocity": 40}, {"time": 1697, "pitch": 66, "duration": 2, "velocity": 51}, {"time": 1697, "pitch": 70, "duration": 3, "velocity": 57}, {"time": 1700, "pitch": 61, "duration": 10, "velocity": 53}, {"time": 1706, "pitch": 66, "duration": 7, "velocity": 69}, {"time": 1706, "pitch": 70, "duration": 3, "velocity": 64}, {"time": 1706, "pitch": 73, "duration": 4, "velocity": 66}, {"time": 1706, "pitch": 78, "duration": 4, "velocity": 76}, {"time": 1712, "pitch": 70, "duration": 3, "velocity": 63}, {"time": 1712, "pitch": 77, "duration": 3, "velocity": 75}, {"time": 1715, "pitch": 61, "duration": 2, "velocity": 47}, {"time": 1718, "pitch": 68, "duration": 3, "velocity": 67}, {"time": 1718, "pitch": 73, "duration": 2, "velocity": 73}, {"time": 1721, "pitch": 51, "duration": 9, "velocity": 72}, {"time": 1724, "pitch": 61, "duration": 4, "velocity": 67}, {"time": 1727, "pitch": 66, "duration": 1, "velocity": 82}, {"time": 1730, "pitch": 61, "duration": 5, "velocity": 62}, {"time": 1730, "pitch": 68, "duration": 2, "velocity": 67}, {"time": 1730, "pitch": 49, "duration": 10, "velocity": 72}, {"time": 1733, "pitch": 70, "duration": 1, "velocity": 56}, {"time": 1736, "pitch": 71, "duration": 1, "velocity": 88}, {"time": 1739, "pitch": 61, "duration": 1, "velocity": 67}, {"time": 1739, "pitch": 73, "duration": 3, "velocity": 78}, {"time": 1742, "pitch": 80, "duration": 1, "velocity": 40}, {"time": 1745, "pitch": 54, "duration": 20, "velocity": 73}, {"time": 1745, "pitch": 73, "duration": 1, "velocity": 63}, {"time": 1745, "pitch": 82, "duration": 2, "velocity": 58}, {"time": 1748, "pitch": 61, "duration": 6, "velocity": 58}, {"time": 1751, "pitch": 66, "duration": 4, "velocity": 66}, {"time": 1754, "pitch": 70, "duration": 5, "velocity": 82}, {"time": 1760, "pitch": 61, "duration": 4, "velocity": 62}, {"time": 1763, "pitch": 68, "duration": 1, "velocity": 85}, {"time": 1766, "pitch": 70, "duration": 1, "velocity": 51}, {"time": 1769, "pitch": 54, "duration": 19, "velocity": 67}, {"time": 1769, "pitch": 63, "duration": 2, "velocity": 72}, {"time": 1769, "pitch": 66, "duration": 3, "velocity": 80}, {"time": 1769, "pitch": 70, "duration": 1, "velocity": 55}, {"time": 1769, "pitch": 73, "duration": 4, "velocity": 72}, {"time": 1775, "pitch": 61, "duration": 8, "velocity": 61}, {"time": 1778, "pitch": 66, "duration": 6, "velocity": 63}, {"time": 1778, "pitch": 70, "duration": 1, "velocity": 64}, {"time": 1778, "pitch": 73, "duration": 1, "velocity": 72}, {"time": 1778, "pitch": 78, "duration": 3, "velocity": 75}, {"time": 1784, "pitch": 68, "duration": 3, "velocity": 72}, {"time": 1784, "pitch": 73, "duration": 3, "velocity": 91}, {"time": 1784, "pitch": 77, "duration": 4, "velocity": 78}, {"time": 1787, "pitch": 61, "duration": 1, "velocity": 72}, {"time": 1790, "pitch": 77, "duration": 1, "velocity": 64}, {"time": 1793, "pitch": 51, "duration": 18, "velocity": 72}, {"time": 1793, "pitch": 70, "duration": 3, "velocity": 66}, {"time": 1793, "pitch": 73, "duration": 4, "velocity": 57}, {"time": 1793, "pitch": 78, "duration": 4, "velocity": 72}, {"time": 1796, "pitch": 58, "duration": 15, "velocity": 48}, {"time": 1799, "pitch": 63, "duration": 3, "velocity": 54}, {"time": 1802, "pitch": 70, "duration": 1, "velocity": 58}, {"time": 1802, "pitch": 78, "duration": 1, "velocity": 43}, {"time": 1805, "pitch": 63, "duration": 1, "velocity": 36}, {"time": 1808, "pitch": 68, "duration": 1, "velocity": 75}, {"time": 1808, "pitch": 73, "duration": 1, "velocity": 85}, {"time": 1811, "pitch": 63, "duration": 1, "velocity": 73}, {"time": 1817, "pitch": 47, "duration": 5, "velocity": 75}, {"time": 1817, "pitch": 59, "duration": 1, "velocity": 51}, {"time": 1817, "pitch": 63, "duration": 3, "velocity": 70}, {"time": 1817, "pitch": 66, "duration": 3, "velocity": 72}, {"time": 1817, "pitch": 71, "duration": 3, "velocity": 67}, {"time": 1820, "pitch": 54, "duration": 1, "velocity": 44}, {"time": 1820, "pitch": 59, "duration": 2, "velocity": 63}, {"time": 1823, "pitch": 73, "duration": 1, "velocity": 45}, {"time": 1826, "pitch": 49, "duration": 11, "velocity": 76}, {"time": 1826, "pitch": 65, "duration": 5, "velocity": 80}, {"time": 1826, "pitch": 68, "duration": 4, "velocity": 73}, {"time": 1826, "pitch": 73, "duration": 7, "velocity": 67}, {"time": 1832, "pitch": 56, "duration": 5, "velocity": 60}, {"time": 1835, "pitch": 61, "duration": 2, "velocity": 72}, {"time": 1838, "pitch": 66, "duration": 1, "velocity": 62}, {"time": 1841, "pitch": 44, "duration": 20, "velocity": 66}, {"time": 1841, "pitch": 63, "duration": 5, "velocity": 43}, {"time": 1841, "pitch": 66, "duration": 5, "velocity": 63}, {"time": 1841, "pitch": 71, "duration": 5, "velocity": 82}, {"time": 1847, "pitch": 51, "duration": 11, "velocity": 37}, {"time": 1850, "pitch": 56, "duration": 2, "velocity": 62}, {"time": 1850, "pitch": 63, "duration": 3, "velocity": 66}, {"time": 1850, "pitch": 66, "duration": 2, "velocity": 70}, {"time": 1850, "pitch": 71, "duration": 2, "velocity": 75}, {"time": 1853, "pitch": 56, "duration": 1, "velocity": 32}, {"time": 1856, "pitch": 61, "duration": 3, "velocity": 60}, {"time": 1856, "pitch": 66, "duration": 2, "velocity": 67}, {"time": 1856, "pitch": 70, "duration": 3, "velocity": 69}, {"time": 1859, "pitch": 51, "duration": 1, "velocity": 42}, {"time": 1859, "pitch": 56, "duration": 2, "velocity": 73}, {"time": 1865, "pitch": 47, "duration": 6, "velocity": 63}, {"time": 1865, "pitch": 59, "duration": 2, "velocity": 73}, {"time": 1865, "pitch": 63, "duration": 3, "velocity": 67}, {"time": 1865, "pitch": 66, "duration": 3, "velocity": 75}, {"time": 1865, "pitch": 71, "duration": 4, "velocity": 73}, {"time": 1868, "pitch": 59, "duration": 2, "velocity": 66}, {"time": 1871, "pitch": 63, "duration": 1, "velocity": 62}, {"time": 1874, "pitch": 66, "duration": 3, "velocity": 58}, {"time": 1874, "pitch": 71, "duration": 4, "velocity": 72}, {"time": 1880, "pitch": 63, "duration": 4, "velocity": 67}, {"time": 1880, "pitch": 68, "duration": 4, "velocity": 73}, {"time": 1886, "pitch": 66, "duration": 1, "velocity": 69}, {"time": 1889, "pitch": 47, "duration": 4, "velocity": 70}, {"time": 1889, "pitch": 59, "duration": 4, "velocity": 80}, {"time": 1889, "pitch": 63, "duration": 3, "velocity": 80}, {"time": 1889, "pitch": 66, "duration": 3, "velocity": 70}, {"time": 1898, "pitch": 46, "duration": 9, "velocity": 72}, {"time": 1898, "pitch": 58, "duration": 4, "velocity": 82}, {"time": 1898, "pitch": 61, "duration": 7, "velocity": 91}, {"time": 1898, "pitch": 66, "duration": 5, "velocity": 80}, {"time": 1907, "pitch": 44, "duration": 2, "velocity": 63}, {"time": 1907, "pitch": 59, "duration": 2, "velocity": 93}, {"time": 1907, "pitch": 63, "duration": 2, "velocity": 73}, {"time": 1907, "pitch": 66, "duration": 1, "velocity": 69}, {"time": 1913, "pitch": 42, "duration": 15, "velocity": 70}, {"time": 1913, "pitch": 54, "duration": 5, "velocity": 75}, {"time": 1913, "pitch": 58, "duration": 8, "velocity": 76}, {"time": 1913, "pitch": 61, "duration": 8, "velocity": 95}, {"time": 1913, "pitch": 66, "duration": 7, "velocity": 80}, {"time": 1922, "pitch": 54, "duration": 4, "velocity": 50}, {"time": 1925, "pitch": 58, "duration": 3, "velocity": 76}, {"time": 1925, "pitch": 61, "duration": 3, "velocity": 91}, {"time": 1925, "pitch": 66, "duration": 3, "velocity": 67}, {"time": 1928, "pitch": 49, "duration": 2, "velocity": 47}, {"time": 1931, "pitch": 63, "duration": 3, "velocity": 66}, {"time": 1934, "pitch": 65, "duration": 1, "velocity": 66}, {"time": 1937, "pitch": 42, "duration": 19, "velocity": 61}, {"time": 1937, "pitch": 54, "duration": 18, "velocity": 59}, {"time": 1937, "pitch": 61, "duration": 7, "velocity": 59}, {"time": 1937, "pitch": 66, "duration": 7, "velocity": 59}, {"time": 1937, "pitch": 70, "duration": 8, "velocity": 50}, {"time": 1937, "pitch": 73, "duration": 7, "velocity": 45}, {"time": 1961, "pitch": 54, "duration": 17, "velocity": 69}, {"time": 1961, "pitch": 66, "duration": 3, "velocity": 67}, {"time": 1961, "pitch": 70, "duration": 4, "velocity": 72}, {"time": 1964, "pitch": 61, "duration": 8, "velocity": 50}, {"time": 1967, "pitch": 66, "duration": 7, "velocity": 51}, {"time": 1970, "pitch": 68, "duration": 7, "velocity": 64}, {"time": 1970, "pitch": 73, "duration": 7, "velocity": 72}, {"time": 1976, "pitch": 61, "duration": 3, "velocity": 61}, {"time": 1979, "pitch": 68, "duration": 3, "velocity": 57}, {"time": 1982, "pitch": 70, "duration": 2, "velocity": 61}, {"time": 1985, "pitch": 53, "duration": 19, "velocity": 64}, {"time": 1985, "pitch": 68, "duration": 6, "velocity": 59}, {"time": 1985, "pitch": 73, "duration": 7, "velocity": 64}, {"time": 1988, "pitch": 61, "duration": 8, "velocity": 60}, {"time": 1991, "pitch": 65, "duration": 7, "velocity": 56}, {"time": 1994, "pitch": 68, "duration": 6, "velocity": 59}, {"time": 2000, "pitch": 70, "duration": 3, "velocity": 67}, {"time": 2003, "pitch": 61, "duration": 1, "velocity": 49}, {"time": 2009, "pitch": 51, "duration": 16, "velocity": 64}, {"time": 2009, "pitch": 61, "duration": 3, "velocity": 59}, {"time": 2009, "pitch": 66, "duration": 4, "velocity": 61}, {"time": 2012, "pitch": 58, "duration": 7, "velocity": 48}, {"time": 2015, "pitch": 61, "duration": 2, "velocity": 53}, {"time": 2018, "pitch": 66, "duration": 7, "velocity": 75}, {"time": 2024, "pitch": 58, "duration": 3, "velocity": 49}, {"time": 2027, "pitch": 68, "duration": 3, "velocity": 59}, {"time": 2030, "pitch": 70, "duration": 2, "velocity": 59}, {"time": 2033, "pitch": 49, "duration": 13, "velocity": 67}, {"time": 2033, "pitch": 66, "duration": 6, "velocity": 72}, {"time": 2036, "pitch": 56, "duration": 10, "velocity": 50}, {"time": 2039, "pitch": 61, "duration": 6, "velocity": 55}, {"time": 2042, "pitch": 63, "duration": 3, "velocity": 57}, {"time": 2045, "pitch": 65, "duration": 2, "velocity": 60}, {"time": 2048, "pitch": 66, "duration": 3, "velocity": 60}, {"time": 2051, "pitch": 68, "duration": 1, "velocity": 64}, {"time": 2057, "pitch": 47, "duration": 17, "velocity": 72}, {"time": 2057, "pitch": 63, "duration": 6, "velocity": 59}, {"time": 2057, "pitch": 66, "duration": 6, "velocity": 72}, {"time": 2060, "pitch": 54, "duration": 13, "velocity": 44}, {"time": 2063, "pitch": 59, "duration": 10, "velocity": 58}, {"time": 2066, "pitch": 63, "duration": 4, "velocity": 53}, {"time": 2072, "pitch": 66, "duration": 2, "velocity": 72}, {"time": 2081, "pitch": 49, "duration": 17, "velocity": 72}, {"time": 2081, "pitch": 61, "duration": 5, "velocity": 61}, {"time": 2081, "pitch": 65, "duration": 5, "velocity": 66}, {"time": 2081, "pitch": 68, "duration": 5, "velocity": 66}, {"time": 2087, "pitch": 56, "duration": 12, "velocity": 44}, {"time": 2090, "pitch": 61, "duration": 6, "velocity": 61}, {"time": 2090, "pitch": 66, "duration": 8, "velocity": 62}, {"time": 2105, "pitch": 54, "duration": 18, "velocity": 66}, {"time": 2105, "pitch": 61, "duration": 2, "velocity": 48}, {"time": 2105, "pitch": 66, "duration": 3, "velocity": 53}, {"time": 2105, "pitch": 70, "duration": 5, "velocity": 48}, {"time": 2111, "pitch": 61, "duration": 9, "velocity": 44}, {"time": 2114, "pitch": 66, "duration": 8, "velocity": 54}, {"time": 2120, "pitch": 73, "duration": 4, "velocity": 73}, {"time": 2123, "pitch": 61, "duration": 3, "velocity": 35}, {"time": 2126, "pitch": 71, "duration": 6, "velocity": 50}, {"time": 2129, "pitch": 54, "duration": 16, "velocity": 62}, {"time": 2132, "pitch": 61, "duration": 6, "velocity": 47}, {"time": 2135, "pitch": 66, "duration": 4, "velocity": 52}, {"time": 2138, "pitch": 70, "duration": 7, "velocity": 78}, {"time": 2144, "pitch": 61, "duration": 1, "velocity": 63}, {"time": 2147, "pitch": 68, "duration": 2, "velocity": 56}, {"time": 2150, "pitch": 65, "duration": 3, "velocity": 70}, {"time": 2153, "pitch": 54, "duration": 18, "velocity": 73}, {"time": 2153, "pitch": 66, "duration": 3, "velocity": 70}, {"time": 2156, "pitch": 61, "duration": 10, "velocity": 57}, {"time": 2159, "pitch": 66, "duration": 10, "velocity": 50}, {"time": 2168, "pitch": 77, "duration": 2, "velocity": 54}, {"time": 2171, "pitch": 61, "duration": 4, "velocity": 50}, {"time": 2171, "pitch": 78, "duration": 1, "velocity": 70}, {"time": 2174, "pitch": 68, "duration": 5, "velocity": 59}, {"time": 2174, "pitch": 73, "duration": 6, "velocity": 62}, {"time": 2174, "pitch": 77, "duration": 9, "velocity": 61}, {"time": 2177, "pitch": 53, "duration": 17, "velocity": 61}, {"time": 2180, "pitch": 61, "duration": 8, "velocity": 53}, {"time": 2183, "pitch": 65, "duration": 8, "velocity": 49}, {"time": 2186, "pitch": 68, "duration": 5, "velocity": 59}, {"time": 2192, "pitch": 61, "duration": 3, "velocity": 59}, {"time": 2201, "pitch": 51, "duration": 19, "velocity": 69}, {"time": 2201, "pitch": 70, "duration": 4, "velocity": 59}, {"time": 2201, "pitch": 73, "duration": 4, "velocity": 67}, {"time": 2204, "pitch": 58, "duration": 7, "velocity": 56}, {"time": 2207, "pitch": 63, "duration": 7, "velocity": 55}, {"time": 2210, "pitch": 66, "duration": 5, "velocity": 49}, {"time": 2210, "pitch": 70, "duration": 5, "velocity": 39}, {"time": 2216, "pitch": 65, "duration": 3, "velocity": 59}, {"time": 2216, "pitch": 68, "duration": 4, "velocity": 67}, {"time": 2219, "pitch": 58, "duration": 2, "velocity": 57}, {"time": 2222, "pitch": 66, "duration": 2, "velocity": 57}, {"time": 2222, "pitch": 70, "duration": 2, "velocity": 60}, {"time": 2225, "pitch": 49, "duration": 15, "velocity": 63}, {"time": 2225, "pitch": 65, "duration": 6, "velocity": 64}, {"time": 2225, "pitch": 68, "duration": 6, "velocity": 73}, {"time": 2228, "pitch": 58, "duration": 12, "velocity": 52}, {"time": 2231, "pitch": 61, "duration": 8, "velocity": 58}, {"time": 2234, "pitch": 65, "duration": 3, "velocity": 61}, {"time": 2237, "pitch": 66, "duration": 3, "velocity": 60}, {"time": 2240, "pitch": 68, "duration": 2, "velocity": 61}, {"time": 2243, "pitch": 65, "duration": 3, "velocity": 66}, {"time": 2246, "pitch": 61, "duration": 3, "velocity": 72}, {"time": 2249, "pitch": 47, "duration": 16, "velocity": 67}, {"time": 2249, "pitch": 63, "duration": 3, "velocity": 64}, {"time": 2252, "pitch": 54, "duration": 13, "velocity": 60}, {"time": 2255, "pitch": 59, "duration": 5, "velocity": 56}, {"time": 2258, "pitch": 61, "duration": 6, "velocity": 69}, {"time": 2258, "pitch": 66, "duration": 7, "velocity": 69}, {"time": 2264, "pitch": 59, "duration": 2, "velocity": 66}, {"time": 2267, "pitch": 61, "duration": 2, "velocity": 49}, {"time": 2270, "pitch": 68, "duration": 1, "velocity": 41}, {"time": 2273, "pitch": 49, "duration": 16, "velocity": 75}, {"time": 2273, "pitch": 61, "duration": 4, "velocity": 61}, {"time": 2273, "pitch": 66, "duration": 4, "velocity": 72}, {"time": 2276, "pitch": 56, "duration": 8, "velocity": 60}, {"time": 2279, "pitch": 61, "duration": 2, "velocity": 56}, {"time": 2282, "pitch": 65, "duration": 6, "velocity": 69}, {"time": 2288, "pitch": 56, "duration": 1, "velocity": 61}, {"time": 2291, "pitch": 66, "duration": 3, "velocity": 62}, {"time": 2294, "pitch": 68, "duration": 2, "velocity": 70}, {"time": 2297, "pitch": 42, "duration": 30, "velocity": 66}, {"time": 2297, "pitch": 61, "duration": 4, "velocity": 61}, {"time": 2297, "pitch": 66, "duration": 4, "velocity": 67}, {"time": 2297, "pitch": 70, "duration": 4, "velocity": 66}, {"time": 2300, "pitch": 49, "duration": 27, "velocity": 53}, {"time": 2303, "pitch": 54, "duration": 4, "velocity": 49}, {"time": 2306, "pitch": 58, "duration": 3, "velocity": 60}, {"time": 2306, "pitch": 66, "duration": 3, "velocity": 72}, {"time": 2312, "pitch": 59, "duration": 4, "velocity": 59}, {"time": 2312, "pitch": 66, "duration": 5, "velocity": 46}, {"time": 2315, "pitch": 63, "duration": 3, "velocity": 16}, {"time": 2318, "pitch": 54, "duration": 11, "velocity": 47}, {"time": 2321, "pitch": 58, "duration": 6, "velocity": 55}, {"time": 2321, "pitch": 61, "duration": 6, "velocity": 62}, {"time": 2321, "pitch": 66, "duration": 7, "velocity": 52}, {"time": 2345, "pitch": 54, "duration": 22, "velocity": 54}, {"time": 2348, "pitch": 61, "duration": 4, "velocity": 44}, {"time": 2351, "pitch": 66, "duration": 2, "velocity": 61}, {"time": 2354, "pitch": 68, "duration": 7, "velocity": 64}, {"time": 2360, "pitch": 61, "duration": 4, "velocity": 47}, {"time": 2363, "pitch": 70, "duration": 3, "velocity": 48}, {"time": 2366, "pitch": 68, "duration": 9, "velocity": 61}, {"time": 2369, "pitch": 53, "duration": 15, "velocity": 55}, {"time": 2372, "pitch": 61, "duration": 9, "velocity": 47}, {"time": 2375, "pitch": 65, "duration": 7, "velocity": 35}, {"time": 2378, "pitch": 73, "duration": 8, "velocity": 61}, {"time": 2384, "pitch": 61, "duration": 4, "velocity": 40}, {"time": 2387, "pitch": 68, "duration": 3, "velocity": 46}, {"time": 2390, "pitch": 66, "duration": 5, "velocity": 67}, {"time": 2393, "pitch": 51, "duration": 18, "velocity": 57}, {"time": 2396, "pitch": 58, "duration": 13, "velocity": 39}, {"time": 2399, "pitch": 63, "duration": 4, "velocity": 47}, {"time": 2402, "pitch": 71, "duration": 7, "velocity": 64}, {"time": 2408, "pitch": 59, "duration": 2, "velocity": 66}, {"time": 2411, "pitch": 63, "duration": 3, "velocity": 52}, {"time": 2414, "pitch": 68, "duration": 2, "velocity": 57}, {"time": 2417, "pitch": 49, "duration": 16, "velocity": 59}, {"time": 2417, "pitch": 66, "duration": 4, "velocity": 50}, {"time": 2420, "pitch": 58, "duration": 6, "velocity": 46}, {"time": 2423, "pitch": 61, "duration": 6, "velocity": 59}, {"time": 2429, "pitch": 70, "duration": 5, "velocity": 52}, {"time": 2435, "pitch": 58, "duration": 1, "velocity": 48}, {"time": 2438, "pitch": 61, "duration": 2, "velocity": 44}, {"time": 2441, "pitch": 47, "duration": 16, "velocity": 59}, {"time": 2441, "pitch": 68, "duration": 2, "velocity": 42}, {"time": 2444, "pitch": 54, "duration": 12, "velocity": 48}, {"time": 2444, "pitch": 66, "duration": 6, "velocity": 62}, {"time": 2447, "pitch": 59, "duration": 7, "velocity": 53}, {"time": 2450, "pitch": 61, "duration": 6, "velocity": 55}, {"time": 2459, "pitch": 66, "duration": 2, "velocity": 60}, {"time": 2465, "pitch": 46, "duration": 16, "velocity": 57}, {"time": 2465, "pitch": 61, "duration": 3, "velocity": 44}, {"time": 2468, "pitch": 54, "duration": 13, "velocity": 46}, {"time": 2468, "pitch": 68, "duration": 5, "velocity": 57}, {"time": 2471, "pitch": 58, "duration": 9, "velocity": 49}, {"time": 2474, "pitch": 61, "duration": 6, "velocity": 57}, {"time": 2483, "pitch": 66, "duration": 7, "velocity": 62}, {"time": 2489, "pitch": 44, "duration": 17, "velocity": 63}, {"time": 2489, "pitch": 63, "duration": 9, "velocity": 33}, {"time": 2489, "pitch": 66, "duration": 1, "velocity": 38}, {"time": 2489, "pitch": 71, "duration": 9, "velocity": 60}, {"time": 2492, "pitch": 51, "duration": 14, "velocity": 51}, {"time": 2495, "pitch": 56, "duration": 11, "velocity": 54}, {"time": 2498, "pitch": 58, "duration": 8, "velocity": 58}, {"time": 2504, "pitch": 59, "duration": 3, "velocity": 61}, {"time": 2510, "pitch": 66, "duration": 2, "velocity": 39}, {"time": 2513, "pitch": 49, "duration": 16, "velocity": 70}, {"time": 2513, "pitch": 65, "duration": 5, "velocity": 67}, {"time": 2516, "pitch": 56, "duration": 14, "velocity": 48}, {"time": 2519, "pitch": 61, "duration": 7, "velocity": 51}, {"time": 2522, "pitch": 66, "duration": 6, "velocity": 64}, {"time": 2528, "pitch": 68, "duration": 1, "velocity": 62}, {"time": 2534, "pitch": 71, "duration": 2, "velocity": 42}, {"time": 2537, "pitch": 54, "duration": 17, "velocity": 64}, {"time": 2537, "pitch": 73, "duration": 3, "velocity": 61}, {"time": 2540, "pitch": 61, "duration": 17, "velocity": 44}, {"time": 2543, "pitch": 66, "duration": 5, "velocity": 50}, {"time": 2546, "pitch": 78, "duration": 3, "velocity": 70}, {"time": 2552, "pitch": 66, "duration": 3, "velocity": 47}, {"time": 2558, "pitch": 82, "duration": 3, "velocity": 64}, {"time": 2561, "pitch": 53, "duration": 17, "velocity": 60}, {"time": 2561, "pitch": 80, "duration": 2, "velocity": 63}, {"time": 2564, "pitch": 61, "duration": 10, "velocity": 59}, {"time": 2567, "pitch": 65, "duration": 9, "velocity": 55}, {"time": 2570, "pitch": 68, "duration": 4, "velocity": 48}, {"time": 2576, "pitch": 73, "duration": 2, "velocity": 61}, {"time": 2579, "pitch": 75, "duration": 2, "velocity": 49}, {"time": 2582, "pitch": 78, "duration": 7, "velocity": 59}, {"time": 2585, "pitch": 51, "duration": 16, "velocity": 60}, {"time": 2585, "pitch": 71, "duration": 3, "velocity": 44}, {"time": 2585, "pitch": 75, "duration": 4, "velocity": 60}, {"time": 2588, "pitch": 59, "duration": 10, "velocity": 56}, {"time": 2591, "pitch": 63, "duration": 9, "velocity": 40}, {"time": 2594, "pitch": 66, "duration": 7, "velocity": 58}, {"time": 2600, "pitch": 71, "duration": 1, "velocity": 49}, {"time": 2603, "pitch": 59, "duration": 1, "velocity": 58}, {"time": 2606, "pitch": 68, "duration": 3, "velocity": 47}, {"time": 2609, "pitch": 49, "duration": 15, "velocity": 60}, {"time": 2609, "pitch": 70, "duration": 9, "velocity": 63}, {"time": 2615, "pitch": 58, "duration": 10, "velocity": 54}, {"time": 2618, "pitch": 61, "duration": 5, "velocity": 47}, {"time": 2621, "pitch": 66, "duration": 3, "velocity": 60}, {"time": 2624, "pitch": 68, "duration": 2, "velocity": 54}, {"time": 2627, "pitch": 70, "duration": 2, "velocity": 59}, {"time": 2630, "pitch": 73, "duration": 4, "velocity": 59}, {"time": 2633, "pitch": 47, "duration": 18, "velocity": 61}, {"time": 2633, "pitch": 66, "duration": 5, "velocity": 57}, {"time": 2633, "pitch": 71, "duration": 6, "velocity": 56}, {"time": 2636, "pitch": 54, "duration": 14, "velocity": 48}, {"time": 2639, "pitch": 59, "duration": 10, "velocity": 57}, {"time": 2642, "pitch": 63, "duration": 2, "velocity": 55}, {"time": 2642, "pitch": 70, "duration": 5, "velocity": 54}, {"time": 2648, "pitch": 61, "duration": 3, "velocity": 60}, {"time": 2648, "pitch": 68, "duration": 3, "velocity": 58}, {"time": 2657, "pitch": 46, "duration": 5, "velocity": 62}, {"time": 2657, "pitch": 61, "duration": 2, "velocity": 56}, {"time": 2657, "pitch": 66, "duration": 2, "velocity": 56}, {"time": 2660, "pitch": 54, "duration": 3, "velocity": 59}, {"time": 2663, "pitch": 58, "duration": 4, "velocity": 52}, {"time": 2666, "pitch": 61, "duration": 6, "velocity": 54}, {"time": 2672, "pitch": 66, "duration": 1, "velocity": 63}, {"time": 2681, "pitch": 44, "duration": 5, "velocity": 59}, {"time": 2681, "pitch": 63, "duration": 5, "velocity": 52}, {"time": 2681, "pitch": 66, "duration": 4, "velocity": 46}, {"time": 2681, "pitch": 71, "duration": 5, "velocity": 64}, {"time": 2684, "pitch": 51, "duration": 3, "velocity": 47}, {"time": 2687, "pitch": 56, "duration": 2, "velocity": 55}, {"time": 2690, "pitch": 63, "duration": 4, "velocity": 57}, {"time": 2696, "pitch": 66, "duration": 1, "velocity": 66}, {"time": 2705, "pitch": 49, "duration": 19, "velocity": 64}, {"time": 2705, "pitch": 66, "duration": 11, "velocity": 56}, {"time": 2705, "pitch": 68, "duration": 11, "velocity": 56}, {"time": 2705, "pitch": 73, "duration": 13, "velocity": 49}, {"time": 2717, "pitch": 61, "duration": 5, "velocity": 44}, {"time": 2720, "pitch": 66, "duration": 3, "velocity": 59}, {"time": 2723, "pitch": 68, "duration": 2, "velocity": 62}, {"time": 2726, "pitch": 70, "duration": 1, "velocity": 58}, {"time": 2729, "pitch": 49, "duration": 19, "velocity": 64}, {"time": 2729, "pitch": 61, "duration": 17, "velocity": 44}, {"time": 2729, "pitch": 66, "duration": 18, "velocity": 51}, {"time": 2729, "pitch": 73, "duration": 17, "velocity": 56}, {"time": 2753, "pitch": 51, "duration": 17, "velocity": 67}, {"time": 2753, "pitch": 66, "duration": 3, "velocity": 69}, {"time": 2759, "pitch": 58, "duration": 7, "velocity": 36}, {"time": 2765, "pitch": 63, "duration": 5, "velocity": 53}, {"time": 2765, "pitch": 66, "duration": 8, "velocity": 69}, {"time": 2765, "pitch": 70, "duration": 6, "velocity": 69}, {"time": 2771, "pitch": 58, "duration": 5, "velocity": 44}, {"time": 2777, "pitch": 49, "duration": 18, "velocity": 63}, {"time": 2777, "pitch": 65, "duration": 6, "velocity": 67}, {"time": 2777, "pitch": 68, "duration": 7, "velocity": 69}, {"time": 2777, "pitch": 73, "duration": 8, "velocity": 69}, {"time": 2783, "pitch": 58, "duration": 5, "velocity": 37}, {"time": 2789, "pitch": 61, "duration": 6, "velocity": 44}, {"time": 2789, "pitch": 65, "duration": 5, "velocity": 69}, {"time": 2789, "pitch": 68, "duration": 6, "velocity": 72}, {"time": 2789, "pitch": 73, "duration": 3, "velocity": 61}, {"time": 2795, "pitch": 58, "duration": 1, "velocity": 70}, {"time": 2801, "pitch": 47, "duration": 4, "velocity": 70}, {"time": 2801, "pitch": 59, "duration": 5, "velocity": 49}, {"time": 2801, "pitch": 63, "duration": 6, "velocity": 61}, {"time": 2801, "pitch": 66, "duration": 5, "velocity": 63}, {"time": 2801, "pitch": 71, "duration": 6, "velocity": 69}, {"time": 2813, "pitch": 49, "duration": 5, "velocity": 62}, {"time": 2813, "pitch": 61, "duration": 4, "velocity": 48}, {"time": 2813, "pitch": 65, "duration": 6, "velocity": 69}, {"time": 2813, "pitch": 68, "duration": 5, "velocity": 70}, {"time": 2813, "pitch": 73, "duration": 5, "velocity": 70}, {"time": 2819, "pitch": 66, "duration": 3, "velocity": 63}, {"time": 2825, "pitch": 42, "duration": 17, "velocity": 58}, {"time": 2825, "pitch": 54, "duration": 12, "velocity": 49}, {"time": 2825, "pitch": 61, "duration": 6, "velocity": 66}, {"time": 2825, "pitch": 66, "duration": 6, "velocity": 61}, {"time": 2825, "pitch": 70, "duration": 5, "velocity": 64}, {"time": 2837, "pitch": 61, "duration": 7, "velocity": 69}, {"time": 2837, "pitch": 66, "duration": 6, "velocity": 67}, {"time": 2837, "pitch": 70, "duration": 6, "velocity": 66}, {"time": 2843, "pitch": 54, "duration": 3, "velocity": 48}, {"time": 2846, "pitch": 53, "duration": 3, "velocity": 51}, {"time": 2849, "pitch": 51, "duration": 13, "velocity": 70}, {"time": 2849, "pitch": 63, "duration": 8, "velocity": 63}, {"time": 2849, "pitch": 66, "duration": 8, "velocity": 64}, {"time": 2849, "pitch": 70, "duration": 7, "velocity": 64}, {"time": 2861, "pitch": 63, "duration": 3, "velocity": 64}, {"time": 2861, "pitch": 66, "duration": 3, "velocity": 69}, {"time": 2861, "pitch": 70, "duration": 3, "velocity": 66}, {"time": 2864, "pitch": 51, "duration": 2, "velocity": 58}, {"time": 2867, "pitch": 63, "duration": 3, "velocity": 63}, {"time": 2870, "pitch": 70, "duration": 3, "velocity": 59}, {"time": 2873, "pitch": 49, "duration": 19, "velocity": 64}, {"time": 2873, "pitch": 65, "duration": 6, "velocity": 64}, {"time": 2873, "pitch": 68, "duration": 5, "velocity": 69}, {"time": 2879, "pitch": 56, "duration": 6, "velocity": 40}, {"time": 2885, "pitch": 61, "duration": 4, "velocity": 55}, {"time": 2885, "pitch": 65, "duration": 4, "velocity": 67}, {"time": 2885, "pitch": 68, "duration": 5, "velocity": 69}, {"time": 2891, "pitch": 56, "duration": 1, "velocity": 63}, {"time": 2897, "pitch": 44, "duration": 24, "velocity": 67}, {"time": 2897, "pitch": 59, "duration": 15, "velocity": 62}, {"time": 2897, "pitch": 63, "duration": 7, "velocity": 64}, {"time": 2897, "pitch": 66, "duration": 8, "velocity": 72}, {"time": 2897, "pitch": 71, "duration": 8, "velocity": 67}, {"time": 2900, "pitch": 54, "duration": 12, "velocity": 17}, {"time": 2909, "pitch": 63, "duration": 6, "velocity": 60}, {"time": 2909, "pitch": 66, "duration": 6, "velocity": 64}, {"time": 2909, "pitch": 71, "duration": 6, "velocity": 64}, {"time": 2915, "pitch": 54, "duration": 6, "velocity": 23}, {"time": 2915, "pitch": 59, "duration": 6, "velocity": 52}, {"time": 2921, "pitch": 49, "duration": 7, "velocity": 63}, {"time": 2921, "pitch": 61, "duration": 7, "velocity": 60}, {"time": 2921, "pitch": 66, "duration": 6, "velocity": 61}, {"time": 2921, "pitch": 68, "duration": 6, "velocity": 58}, {"time": 2933, "pitch": 49, "duration": 7, "velocity": 63}, {"time": 2933, "pitch": 61, "duration": 7, "velocity": 60}, {"time": 2933, "pitch": 66, "duration": 6, "velocity": 61}, {"time": 2933, "pitch": 68, "duration": 6, "velocity": 58}, {"time": 2945, "pitch": 42, "duration": 37, "velocity": 66}, {"time": 2945, "pitch": 58, "duration": 5, "velocity": 60}, {"time": 2945, "pitch": 61, "duration": 6, "velocity": 57}, {"time": 2945, "pitch": 66, "duration": 5, "velocity": 67}, {"time": 2951, "pitch": 49, "duration": 21, "velocity": 42}, {"time": 2957, "pitch": 59, "duration": 3, "velocity": 60}, {"time": 2957, "pitch": 63, "duration": 4, "velocity": 67}, {"time": 2957, "pitch": 66, "duration": 4, "velocity": 57}, {"time": 2963, "pitch": 54, "duration": 19, "velocity": 42}, {"time": 2969, "pitch": 73, "duration": 12, "velocity": 40}, {"time": 2969, "pitch": 85, "duration": 7, "velocity": 52}, {"time": 2993, "pitch": 42, "duration": 22, "velocity": 72}, {"time": 2993, "pitch": 54, "duration": 3, "velocity": 69}, {"time": 2993, "pitch": 61, "duration": 4, "velocity": 58}, {"time": 2993, "pitch": 66, "duration": 6, "velocity": 61}, {"time": 2993, "pitch": 70, "duration": 5, "velocity": 64}, {"time": 2999, "pitch": 54, "duration": 4, "velocity": 39}, {"time": 3002, "pitch": 61, "duration": 5, "velocity": 55}, {"time": 3002, "pitch": 66, "duration": 6, "velocity": 64}, {"time": 3002, "pitch": 73, "duration": 6, "velocity": 64}, {"time": 3008, "pitch": 54, "duration": 3, "velocity": 51}, {"time": 3011, "pitch": 61, "duration": 2, "velocity": 70}, {"time": 3011, "pitch": 66, "duration": 4, "velocity": 72}, {"time": 3011, "pitch": 70, "duration": 4, "velocity": 64}, {"time": 3014, "pitch": 54, "duration": 7, "velocity": 62}, {"time": 3017, "pitch": 42, "duration": 22, "velocity": 70}, {"time": 3017, "pitch": 65, "duration": 6, "velocity": 75}, {"time": 3017, "pitch": 68, "duration": 6, "velocity": 73}, {"time": 3017, "pitch": 73, "duration": 6, "velocity": 64}, {"time": 3023, "pitch": 54, "duration": 3, "velocity": 51}, {"time": 3041, "pitch": 51, "duration": 18, "velocity": 63}, {"time": 3041, "pitch": 63, "duration": 6, "velocity": 69}, {"time": 3041, "pitch": 66, "duration": 6, "velocity": 72}, {"time": 3044, "pitch": 70, "duration": 5, "velocity": 17}, {"time": 3050, "pitch": 63, "duration": 6, "velocity": 64}, {"time": 3050, "pitch": 66, "duration": 6, "velocity": 72}, {"time": 3050, "pitch": 70, "duration": 6, "velocity": 70}, {"time": 3059, "pitch": 63, "duration": 1, "velocity": 58}, {"time": 3059, "pitch": 66, "duration": 1, "velocity": 67}, {"time": 3059, "pitch": 70, "duration": 1, "velocity": 54}, {"time": 3065, "pitch": 47, "duration": 4, "velocity": 63}, {"time": 3065, "pitch": 59, "duration": 4, "velocity": 64}, {"time": 3065, "pitch": 63, "duration": 4, "velocity": 64}, {"time": 3065, "pitch": 66, "duration": 4, "velocity": 72}, {"time": 3065, "pitch": 71, "duration": 5, "velocity": 70}, {"time": 3074, "pitch": 49, "duration": 11, "velocity": 59}, {"time": 3074, "pitch": 61, "duration": 3, "velocity": 72}, {"time": 3074, "pitch": 65, "duration": 6, "velocity": 64}, {"time": 3074, "pitch": 68, "duration": 6, "velocity": 73}, {"time": 3074, "pitch": 73, "duration": 6, "velocity": 69}, {"time": 3089, "pitch": 44, "duration": 19, "velocity": 39}, {"time": 3089, "pitch": 56, "duration": 10, "velocity": 28}, {"time": 3089, "pitch": 63, "duration": 6, "velocity": 60}, {"time": 3089, "pitch": 66, "duration": 6, "velocity": 72}, {"time": 3089, "pitch": 71, "duration": 7, "velocity": 70}, {"time": 3098, "pitch": 63, "duration": 6, "velocity": 58}, {"time": 3098, "pitch": 66, "duration": 5, "velocity": 67}, {"time": 3098, "pitch": 71, "duration": 6, "velocity": 63}, {"time": 3104, "pitch": 56, "duration": 3, "velocity": 45}, {"time": 3107, "pitch": 63, "duration": 2, "velocity": 59}, {"time": 3107, "pitch": 66, "duration": 2, "velocity": 66}, {"time": 3107, "pitch": 71, "duration": 2, "velocity": 67}, {"time": 3110, "pitch": 56, "duration": 1, "velocity": 36}, {"time": 3113, "pitch": 49, "duration": 17, "velocity": 78}, {"time": 3113, "pitch": 61, "duration": 6, "velocity": 59}, {"time": 3113, "pitch": 66, "duration": 6, "velocity": 64}, {"time": 3113, "pitch": 68, "duration": 6, "velocity": 61}, {"time": 3113, "pitch": 73, "duration": 6, "velocity": 36}, {"time": 3119, "pitch": 56, "duration": 3, "velocity": 45}, {"time": 3122, "pitch": 61, "duration": 5, "velocity": 63}, {"time": 3122, "pitch": 66, "duration": 6, "velocity": 72}, {"time": 3122, "pitch": 73, "duration": 5, "velocity": 55}, {"time": 3128, "pitch": 56, "duration": 2, "velocity": 69}, {"time": 3131, "pitch": 61, "duration": 2, "velocity": 69}, {"time": 3131, "pitch": 71, "duration": 4, "velocity": 73}, {"time": 3137, "pitch": 42, "duration": 19, "velocity": 72}, {"time": 3137, "pitch": 61, "duration": 4, "velocity": 63}, {"time": 3137, "pitch": 66, "duration": 4, "velocity": 64}, {"time": 3137, "pitch": 70, "duration": 6, "velocity": 63}, {"time": 3143, "pitch": 49, "duration": 12, "velocity": 64}, {"time": 3146, "pitch": 61, "duration": 1, "velocity": 61}, {"time": 3146, "pitch": 68, "duration": 1, "velocity": 62}, {"time": 3152, "pitch": 58, "duration": 2, "velocity": 67}, {"time": 3152, "pitch": 66, "duration": 3, "velocity": 70}, {"time": 3155, "pitch": 54, "duration": 1, "velocity": 44}, {"time": 3158, "pitch": 61, "duration": 6, "velocity": 70}, {"time": 3161, "pitch": 37, "duration": 3, "velocity": 65}, {"time": 3161, "pitch": 49, "duration": 3, "velocity": 60}, {"time": 3161, "pitch": 59, "duration": 6, "velocity": 63}, {"time": 3161, "pitch": 61, "duration": 3, "velocity": 67}, {"time": 3161, "pitch": 66, "duration": 5, "velocity": 66}, {"time": 3169, "pitch": 37, "duration": 10, "velocity": 74}, {"time": 3169, "pitch": 49, "duration": 3, "velocity": 60}, {"time": 3169, "pitch": 59, "duration": 14, "velocity": 63}, {"time": 3169, "pitch": 61, "duration": 14, "velocity": 69}, {"time": 3169, "pitch": 68, "duration": 14, "velocity": 68}, {"time": 3176, "pitch": 49, "duration": 3, "velocity": 53}, {"time": 3182, "pitch": 68, "duration": 1, "velocity": 45}, {"time": 3185, "pitch": 54, "duration": 17, "velocity": 67}, {"time": 3185, "pitch": 61, "duration": 6, "velocity": 67}, {"time": 3185, "pitch": 66, "duration": 5, "velocity": 72}, {"time": 3185, "pitch": 70, "duration": 5, "velocity": 61}, {"time": 3191, "pitch": 58, "duration": 5, "velocity": 52}, {"time": 3194, "pitch": 61, "duration": 6, "velocity": 66}, {"time": 3194, "pitch": 66, "duration": 6, "velocity": 72}, {"time": 3194, "pitch": 70, "duration": 5, "velocity": 69}, {"time": 3200, "pitch": 58, "duration": 9, "velocity": 67}, {"time": 3203, "pitch": 61, "duration": 2, "velocity": 69}, {"time": 3203, "pitch": 66, "duration": 3, "velocity": 76}, {"time": 3203, "pitch": 70, "duration": 4, "velocity": 61}, {"time": 3209, "pitch": 54, "duration": 20, "velocity": 46}, {"time": 3209, "pitch": 58, "duration": 1, "velocity": 75}, {"time": 3209, "pitch": 63, "duration": 5, "velocity": 73}, {"time": 3209, "pitch": 66, "duration": 5, "velocity": 63}, {"time": 3215, "pitch": 58, "duration": 5, "velocity": 61}, {"time": 3218, "pitch": 61, "duration": 6, "velocity": 73}, {"time": 3218, "pitch": 65, "duration": 6, "velocity": 73}, {"time": 3218, "pitch": 68, "duration": 6, "velocity": 69}, {"time": 3218, "pitch": 73, "duration": 6, "velocity": 64}, {"time": 3224, "pitch": 58, "duration": 4, "velocity": 60}, {"time": 3227, "pitch": 61, "duration": 3, "velocity": 80}, {"time": 3230, "pitch": 73, "duration": 2, "velocity": 67}, {"time": 3233, "pitch": 51, "duration": 20, "velocity": 73}, {"time": 3233, "pitch": 63, "duration": 3, "velocity": 66}, {"time": 3233, "pitch": 66, "duration": 6, "velocity": 69}, {"time": 3233, "pitch": 70, "duration": 5, "velocity": 63}, {"time": 3233, "pitch": 73, "duration": 2, "velocity": 49}, {"time": 3239, "pitch": 58, "duration": 8, "velocity": 60}, {"time": 3242, "pitch": 63, "duration": 7, "velocity": 59}, {"time": 3242, "pitch": 66, "duration": 3, "velocity": 72}, {"time": 3242, "pitch": 70, "duration": 3, "velocity": 72}, {"time": 3248, "pitch": 66, "duration": 5, "velocity": 73}, {"time": 3248, "pitch": 70, "duration": 3, "velocity": 70}, {"time": 3251, "pitch": 58, "duration": 1, "velocity": 69}, {"time": 3257, "pitch": 47, "duration": 5, "velocity": 78}, {"time": 3257, "pitch": 63, "duration": 4, "velocity": 64}, {"time": 3257, "pitch": 66, "duration": 4, "velocity": 69}, {"time": 3257, "pitch": 70, "duration": 4, "velocity": 59}, {"time": 3260, "pitch": 54, "duration": 2, "velocity": 47}, {"time": 3260, "pitch": 59, "duration": 2, "velocity": 51}, {"time": 3263, "pitch": 73, "duration": 1, "velocity": 50}, {"time": 3266, "pitch": 49, "duration": 11, "velocity": 80}, {"time": 3266, "pitch": 65, "duration": 2, "velocity": 80}, {"time": 3266, "pitch": 68, "duration": 2, "velocity": 80}, {"time": 3272, "pitch": 56, "duration": 6, "velocity": 57}, {"time": 3275, "pitch": 61, "duration": 2, "velocity": 57}, {"time": 3278, "pitch": 78, "duration": 2, "velocity": 72}, {"time": 3281, "pitch": 44, "duration": 21, "velocity": 59}, {"time": 3281, "pitch": 56, "duration": 3, "velocity": 58}, {"time": 3281, "pitch": 59, "duration": 6, "velocity": 76}, {"time": 3281, "pitch": 63, "duration": 6, "velocity": 63}, {"time": 3287, "pitch": 56, "duration": 4, "velocity": 47}, {"time": 3290, "pitch": 59, "duration": 6, "velocity": 70}, {"time": 3290, "pitch": 63, "duration": 6, "velocity": 72}, {"time": 3290, "pitch": 66, "duration": 5, "velocity": 69}, {"time": 3296, "pitch": 56, "duration": 3, "velocity": 48}, {"time": 3299, "pitch": 59, "duration": 1, "velocity": 64}, {"time": 3299, "pitch": 63, "duration": 1, "velocity": 64}, {"time": 3302, "pitch": 56, "duration": 4, "velocity": 49}, {"time": 3305, "pitch": 49, "duration": 2, "velocity": 76}, {"time": 3305, "pitch": 61, "duration": 3, "velocity": 69}, {"time": 3305, "pitch": 65, "duration": 3, "velocity": 67}, {"time": 3305, "pitch": 68, "duration": 3, "velocity": 63}, {"time": 3308, "pitch": 49, "duration": 14, "velocity": 47}, {"time": 3311, "pitch": 54, "duration": 4, "velocity": 29}, {"time": 3314, "pitch": 61, "duration": 6, "velocity": 66}, {"time": 3314, "pitch": 66, "duration": 6, "velocity": 72}, {"time": 3320, "pitch": 54, "duration": 2, "velocity": 61}, {"time": 3323, "pitch": 66, "duration": 4, "velocity": 72}, {"time": 3326, "pitch": 68, "duration": 2, "velocity": 69}, {"time": 3329, "pitch": 42, "duration": 5, "velocity": 70}, {"time": 3329, "pitch": 61, "duration": 5, "velocity": 60}, {"time": 3329, "pitch": 66, "duration": 8, "velocity": 69}, {"time": 3329, "pitch": 70, "duration": 6, "velocity": 67}, {"time": 3332, "pitch": 49, "duration": 2, "velocity": 54}, {"time": 3335, "pitch": 54, "duration": 3, "velocity": 44}, {"time": 3338, "pitch": 56, "duration": 7, "velocity": 66}, {"time": 3338, "pitch": 63, "duration": 4, "velocity": 61}, {"time": 3338, "pitch": 66, "duration": 3, "velocity": 47}, {"time": 3338, "pitch": 71, "duration": 4, "velocity": 72}, {"time": 3344, "pitch": 58, "duration": 1, "velocity": 69}, {"time": 3347, "pitch": 66, "duration": 3, "velocity": 66}, {"time": 3350, "pitch": 73, "duration": 10, "velocity": 61}, {"time": 3353, "pitch": 37, "duration": 2, "velocity": 72}, {"time": 3353, "pitch": 49, "duration": 1, "velocity": 47}, {"time": 3353, "pitch": 56, "duration": 1, "velocity": 56}, {"time": 3353, "pitch": 61, "duration": 1, "velocity": 66}, {"time": 3353, "pitch": 65, "duration": 2, "velocity": 63}, {"time": 3353, "pitch": 68, "duration": 1, "velocity": 26}, {"time": 3356, "pitch": 37, "duration": 2, "velocity": 77}, {"time": 3356, "pitch": 49, "duration": 1, "velocity": 53}, {"time": 3356, "pitch": 56, "duration": 1, "velocity": 57}, {"time": 3356, "pitch": 61, "duration": 1, "velocity": 70}, {"time": 3356, "pitch": 65, "duration": 1, "velocity": 51}, {"time": 3356, "pitch": 68, "duration": 1, "velocity": 30}, {"time": 3359, "pitch": 37, "duration": 1, "velocity": 78}, {"time": 3359, "pitch": 49, "duration": 1, "velocity": 56}, {"time": 3359, "pitch": 56, "duration": 1, "velocity": 63}, {"time": 3359, "pitch": 61, "duration": 1, "velocity": 77}, {"time": 3359, "pitch": 65, "duration": 1, "velocity": 60}, {"time": 3359, "pitch": 68, "duration": 1, "velocity": 38}, {"time": 3362, "pitch": 37, "duration": 1, "velocity": 82}, {"time": 3362, "pitch": 49, "duration": 1, "velocity": 81}, {"time": 3362, "pitch": 56, "duration": 1, "velocity": 76}, {"time": 3362, "pitch": 61, "duration": 1, "velocity": 47}, {"time": 3362, "pitch": 65, "duration": 1, "velocity": 81}, {"time": 3362, "pitch": 68, "duration": 1, "velocity": 57}, {"time": 3365, "pitch": 37, "duration": 1, "velocity": 78}, {"time": 3365, "pitch": 49, "duration": 1, "velocity": 82}, {"time": 3365, "pitch": 56, "duration": 1, "velocity": 84}, {"time": 3365, "pitch": 61, "duration": 1, "velocity": 81}, {"time": 3365, "pitch": 65, "duration": 1, "velocity": 68}, {"time": 3365, "pitch": 68, "duration": 1, "velocity": 60}, {"time": 3368, "pitch": 37, "duration": 1, "velocity": 81}, {"time": 3368, "pitch": 49, "duration": 1, "velocity": 79}, {"time": 3368, "pitch": 56, "duration": 1, "velocity": 86}, {"time": 3368, "pitch": 61, "duration": 1, "velocity": 86}, {"time": 3368, "pitch": 65, "duration": 1, "velocity": 66}, {"time": 3368, "pitch": 68, "duration": 1, "velocity": 56}, {"time": 3371, "pitch": 37, "duration": 1, "velocity": 88}, {"time": 3371, "pitch": 49, "duration": 1, "velocity": 84}, {"time": 3371, "pitch": 56, "duration": 1, "velocity": 78}, {"time": 3371, "pitch": 61, "duration": 1, "velocity": 74}, {"time": 3371, "pitch": 65, "duration": 1, "velocity": 70}, {"time": 3371, "pitch": 68, "duration": 1, "velocity": 68}, {"time": 3374, "pitch": 37, "duration": 1, "velocity": 113}, {"time": 3374, "pitch": 49, "duration": 1, "velocity": 117}, {"time": 3374, "pitch": 56, "duration": 1, "velocity": 97}, {"time": 3374, "pitch": 61, "duration": 1, "velocity": 106}, {"time": 3374, "pitch": 65, "duration": 1, "velocity": 88}, {"time": 3374, "pitch": 68, "duration": 1, "velocity": 84}, {"time": 3377, "pitch": 42, "duration": 7, "velocity": 69}, {"time": 3377, "pitch": 54, "duration": 7, "velocity": 62}, {"time": 3377, "pitch": 61, "duration": 4, "velocity": 60}, {"time": 3377, "pitch": 66, "duration": 4, "velocity": 62}, {"time": 3377, "pitch": 70, "duration": 4, "velocity": 56}, {"time": 3383, "pitch": 61, "duration": 7, "velocity": 63}, {"time": 3383, "pitch": 66, "duration": 7, "velocity": 66}, {"time": 3383, "pitch": 70, "duration": 6, "velocity": 61}, {"time": 3386, "pitch": 42, "duration": 1, "velocity": 66}, {"time": 3386, "pitch": 54, "duration": 1, "velocity": 54}, {"time": 3389, "pitch": 49, "duration": 4, "velocity": 70}, {"time": 3392, "pitch": 61, "duration": 4, "velocity": 67}, {"time": 3392, "pitch": 66, "duration": 4, "velocity": 69}, {"time": 3392, "pitch": 70, "duration": 4, "velocity": 64}, {"time": 3395, "pitch": 42, "duration": 1, "velocity": 30}, {"time": 3395, "pitch": 49, "duration": 5, "velocity": 59}, {"time": 3401, "pitch": 42, "duration": 21, "velocity": 66}, {"time": 3401, "pitch": 54, "duration": 9, "velocity": 51}, {"time": 3401, "pitch": 61, "duration": 4, "velocity": 62}, {"time": 3401, "pitch": 66, "duration": 3, "velocity": 57}, {"time": 3401, "pitch": 68, "duration": 4, "velocity": 70}, {"time": 3410, "pitch": 61, "duration": 5, "velocity": 66}, {"time": 3410, "pitch": 65, "duration": 5, "velocity": 67}, {"time": 3410, "pitch": 68, "duration": 5, "velocity": 64}, {"time": 3416, "pitch": 54, "duration": 3, "velocity": 55}, {"time": 3419, "pitch": 61, "duration": 2, "velocity": 58}, {"time": 3419, "pitch": 66, "duration": 2, "velocity": 73}, {"time": 3419, "pitch": 70, "duration": 2, "velocity": 50}, {"time": 3422, "pitch": 54, "duration": 4, "velocity": 55}, {"time": 3425, "pitch": 51, "duration": 19, "velocity": 69}, {"time": 3425, "pitch": 63, "duration": 4, "velocity": 67}, {"time": 3425, "pitch": 66, "duration": 4, "velocity": 75}, {"time": 3425, "pitch": 70, "duration": 4, "velocity": 66}, {"time": 3431, "pitch": 65, "duration": 1, "velocity": 67}, {"time": 3431, "pitch": 68, "duration": 2, "velocity": 72}, {"time": 3434, "pitch": 58, "duration": 11, "velocity": 63}, {"time": 3434, "pitch": 66, "duration": 1, "velocity": 72}, {"time": 3434, "pitch": 70, "duration": 1, "velocity": 73}, {"time": 3440, "pitch": 70, "duration": 3, "velocity": 69}, {"time": 3440, "pitch": 78, "duration": 3, "velocity": 66}, {"time": 3443, "pitch": 63, "duration": 1, "velocity": 63}, {"time": 3446, "pitch": 75, "duration": 1, "velocity": 59}, {"time": 3449, "pitch": 47, "duration": 6, "velocity": 78}, {"time": 3449, "pitch": 71, "duration": 3, "velocity": 72}, {"time": 3449, "pitch": 75, "duration": 3, "velocity": 63}, {"time": 3449, "pitch": 78, "duration": 3, "velocity": 51}, {"time": 3452, "pitch": 54, "duration": 3, "velocity": 60}, {"time": 3455, "pitch": 59, "duration": 1, "velocity": 72}, {"time": 3458, "pitch": 49, "duration": 11, "velocity": 78}, {"time": 3458, "pitch": 61, "duration": 6, "velocity": 50}, {"time": 3458, "pitch": 65, "duration": 5, "velocity": 72}, {"time": 3458, "pitch": 68, "duration": 5, "velocity": 63}, {"time": 3464, "pitch": 56, "duration": 5, "velocity": 72}, {"time": 3467, "pitch": 61, "duration": 1, "velocity": 82}, {"time": 3467, "pitch": 66, "duration": 3, "velocity": 93}, {"time": 3470, "pitch": 68, "duration": 1, "velocity": 63}, {"time": 3473, "pitch": 44, "duration": 21, "velocity": 76}, {"time": 3473, "pitch": 59, "duration": 5, "velocity": 73}, {"time": 3473, "pitch": 63, "duration": 4, "velocity": 76}, {"time": 3473, "pitch": 66, "duration": 5, "velocity": 70}, {"time": 3479, "pitch": 51, "duration": 15, "velocity": 49}, {"time": 3482, "pitch": 59, "duration": 6, "velocity": 73}, {"time": 3482, "pitch": 63, "duration": 5, "velocity": 72}, {"time": 3482, "pitch": 66, "duration": 5, "velocity": 72}, {"time": 3488, "pitch": 56, "duration": 6, "velocity": 52}, {"time": 3491, "pitch": 59, "duration": 4, "velocity": 95}, {"time": 3494, "pitch": 46, "duration": 4, "velocity": 66}, {"time": 3497, "pitch": 47, "duration": 20, "velocity": 57}, {"time": 3497, "pitch": 59, "duration": 4, "velocity": 70}, {"time": 3497, "pitch": 63, "duration": 6, "velocity": 75}, {"time": 3497, "pitch": 66, "duration": 6, "velocity": 60}, {"time": 3503, "pitch": 59, "duration": 5, "velocity": 60}, {"time": 3506, "pitch": 61, "duration": 6, "velocity": 75}, {"time": 3506, "pitch": 66, "duration": 6, "velocity": 64}, {"time": 3512, "pitch": 59, "duration": 4, "velocity": 72}, {"time": 3515, "pitch": 61, "duration": 1, "velocity": 78}, {"time": 3515, "pitch": 66, "duration": 1, "velocity": 73}, {"time": 3521, "pitch": 54, "duration": 18, "velocity": 70}, {"time": 3521, "pitch": 60, "duration": 1, "velocity": 40}, {"time": 3521, "pitch": 66, "duration": 2, "velocity": 51}, {"time": 3521, "pitch": 70, "duration": 3, "velocity": 57}, {"time": 3524, "pitch": 61, "duration": 10, "velocity": 53}, {"time": 3530, "pitch": 66, "duration": 7, "velocity": 69}, {"time": 3530, "pitch": 70, "duration": 3, "velocity": 64}, {"time": 3530, "pitch": 73, "duration": 4, "velocity": 66}, {"time": 3536, "pitch": 70, "duration": 3, "velocity": 63}, {"time": 3539, "pitch": 61, "duration": 2, "velocity": 47}, {"time": 3542, "pitch": 68, "duration": 3, "velocity": 67}, {"time": 3542, "pitch": 73, "duration": 2, "velocity": 73}, {"time": 3545, "pitch": 49, "duration": 8, "velocity": 72}, {"time": 3548, "pitch": 61, "duration": 4, "velocity": 67}, {"time": 3551, "pitch": 66, "duration": 1, "velocity": 82}, {"time": 3554, "pitch": 49, "duration": 8, "velocity": 72}, {"time": 3554, "pitch": 61, "duration": 5, "velocity": 62}, {"time": 3554, "pitch": 68, "duration": 2, "velocity": 67}, {"time": 3557, "pitch": 70, "duration": 1, "velocity": 56}, {"time": 3560, "pitch": 71, "duration": 1, "velocity": 88}, {"time": 3563, "pitch": 61, "duration": 1, "velocity": 67}, {"time": 3563, "pitch": 73, "duration": 3, "velocity": 78}, {"time": 3566, "pitch": 80, "duration": 1, "velocity": 40}, {"time": 3569, "pitch": 54, "duration": 20, "velocity": 73}, {"time": 3569, "pitch": 73, "duration": 1, "velocity": 63}, {"time": 3569, "pitch": 82, "duration": 2, "velocity": 58}, {"time": 3572, "pitch": 61, "duration": 6, "velocity": 58}, {"time": 3575, "pitch": 66, "duration": 4, "velocity": 66}, {"time": 3578, "pitch": 68, "duration": 1, "velocity": 82}, {"time": 3578, "pitch": 70, "duration": 5, "velocity": 82}, {"time": 3584, "pitch": 61, "duration": 4, "velocity": 62}, {"time": 3587, "pitch": 68, "duration": 1, "velocity": 85}, {"time": 3590, "pitch": 70, "duration": 1, "velocity": 51}, {"time": 3593, "pitch": 54, "duration": 19, "velocity": 67}, {"time": 3593, "pitch": 63, "duration": 2, "velocity": 72}, {"time": 3593, "pitch": 66, "duration": 3, "velocity": 80}, {"time": 3593, "pitch": 70, "duration": 1, "velocity": 55}, {"time": 3593, "pitch": 73, "duration": 4, "velocity": 72}, {"time": 3599, "pitch": 61, "duration": 8, "velocity": 61}, {"time": 3602, "pitch": 66, "duration": 6, "velocity": 63}, {"time": 3602, "pitch": 70, "duration": 1, "velocity": 64}, {"time": 3602, "pitch": 73, "duration": 1, "velocity": 72}, {"time": 3602, "pitch": 78, "duration": 3, "velocity": 75}, {"time": 3608, "pitch": 68, "duration": 3, "velocity": 72}, {"time": 3608, "pitch": 73, "duration": 3, "velocity": 91}, {"time": 3608, "pitch": 77, "duration": 4, "velocity": 78}, {"time": 3611, "pitch": 61, "duration": 1, "velocity": 72}, {"time": 3614, "pitch": 75, "duration": 2, "velocity": 44}, {"time": 3614, "pitch": 77, "duration": 1, "velocity": 64}, {"time": 3617, "pitch": 51, "duration": 18, "velocity": 72}, {"time": 3617, "pitch": 70, "duration": 3, "velocity": 66}, {"time": 3617, "pitch": 73, "duration": 4, "velocity": 57}, {"time": 3617, "pitch": 78, "duration": 4, "velocity": 72}, {"time": 3620, "pitch": 58, "duration": 15, "velocity": 48}, {"time": 3623, "pitch": 63, "duration": 3, "velocity": 54}, {"time": 3626, "pitch": 70, "duration": 1, "velocity": 58}, {"time": 3626, "pitch": 77, "duration": 1, "velocity": 72}, {"time": 3626, "pitch": 78, "duration": 1, "velocity": 43}, {"time": 3629, "pitch": 63, "duration": 1, "velocity": 36}, {"time": 3632, "pitch": 68, "duration": 1, "velocity": 75}, {"time": 3632, "pitch": 73, "duration": 1, "velocity": 85}, {"time": 3635, "pitch": 63, "duration": 1, "velocity": 73}, {"time": 3641, "pitch": 47, "duration": 5, "velocity": 75}, {"time": 3641, "pitch": 59, "duration": 1, "velocity": 51}, {"time": 3641, "pitch": 63, "duration": 3, "velocity": 70}, {"time": 3641, "pitch": 66, "duration": 3, "velocity": 72}, {"time": 3641, "pitch": 71, "duration": 3, "velocity": 67}, {"time": 3644, "pitch": 54, "duration": 1, "velocity": 44}, {"time": 3644, "pitch": 59, "duration": 2, "velocity": 63}, {"time": 3647, "pitch": 73, "duration": 1, "velocity": 45}, {"time": 3650, "pitch": 49, "duration": 11, "velocity": 76}, {"time": 3650, "pitch": 65, "duration": 5, "velocity": 80}, {"time": 3650, "pitch": 68, "duration": 4, "velocity": 73}, {"time": 3650, "pitch": 73, "duration": 7, "velocity": 67}, {"time": 3656, "pitch": 56, "duration": 5, "velocity": 60}, {"time": 3659, "pitch": 61, "duration": 2, "velocity": 72}, {"time": 3662, "pitch": 66, "duration": 1, "velocity": 62}, {"time": 3665, "pitch": 44, "duration": 20, "velocity": 66}, {"time": 3665, "pitch": 63, "duration": 5, "velocity": 43}, {"time": 3665, "pitch": 66, "duration": 5, "velocity": 63}, {"time": 3665, "pitch": 71, "duration": 5, "velocity": 82}, {"time": 3671, "pitch": 51, "duration": 11, "velocity": 37}, {"time": 3674, "pitch": 56, "duration": 2, "velocity": 62}, {"time": 3674, "pitch": 63, "duration": 3, "velocity": 66}, {"time": 3674, "pitch": 66, "duration": 2, "velocity": 70}, {"time": 3674, "pitch": 71, "duration": 2, "velocity": 75}, {"time": 3677, "pitch": 56, "duration": 1, "velocity": 32}, {"time": 3680, "pitch": 61, "duration": 3, "velocity": 60}, {"time": 3680, "pitch": 66, "duration": 2, "velocity": 67}, {"time": 3680, "pitch": 70, "duration": 3, "velocity": 69}, {"time": 3683, "pitch": 51, "duration": 1, "velocity": 42}, {"time": 3683, "pitch": 56, "duration": 2, "velocity": 73}, {"time": 3689, "pitch": 47, "duration": 6, "velocity": 63}, {"time": 3689, "pitch": 59, "duration": 2, "velocity": 73}, {"time": 3689, "pitch": 63, "duration": 3, "velocity": 67}, {"time": 3689, "pitch": 66, "duration": 3, "velocity": 75}, {"time": 3689, "pitch": 71, "duration": 4, "velocity": 73}, {"time": 3692, "pitch": 59, "duration": 2, "velocity": 66}, {"time": 3695, "pitch": 63, "duration": 1, "velocity": 62}, {"time": 3698, "pitch": 66, "duration": 3, "velocity": 58}, {"time": 3698, "pitch": 71, "duration": 4, "velocity": 72}, {"time": 3704, "pitch": 63, "duration": 4, "velocity": 67}, {"time": 3704, "pitch": 68, "duration": 4, "velocity": 73}, {"time": 3710, "pitch": 66, "duration": 1, "velocity": 69}, {"time": 3713, "pitch": 47, "duration": 4, "velocity": 70}, {"time": 3713, "pitch": 59, "duration": 4, "velocity": 80}, {"time": 3713, "pitch": 63, "duration": 3, "velocity": 80}, {"time": 3713, "pitch": 66, "duration": 3, "velocity": 70}, {"time": 3722, "pitch": 46, "duration": 9, "velocity": 72}, {"time": 3722, "pitch": 58, "duration": 4, "velocity": 82}, {"time": 3722, "pitch": 61, "duration": 7, "velocity": 91}, {"time": 3722, "pitch": 66, "duration": 5, "velocity": 80}, {"time": 3731, "pitch": 44, "duration": 2, "velocity": 63}, {"time": 3731, "pitch": 46, "duration": 1, "velocity": 43}, {"time": 3731, "pitch": 59, "duration": 2, "velocity": 93}, {"time": 3731, "pitch": 63, "duration": 2, "velocity": 73}, {"time": 3731, "pitch": 66, "duration": 1, "velocity": 69}, {"time": 3737, "pitch": 42, "duration": 15, "velocity": 70}, {"time": 3737, "pitch": 54, "duration": 5, "velocity": 75}, {"time": 3737, "pitch": 58, "duration": 8, "velocity": 76}, {"time": 3737, "pitch": 61, "duration": 8, "velocity": 95}, {"time": 3737, "pitch": 66, "duration": 7, "velocity": 80}, {"time": 3746, "pitch": 54, "duration": 4, "velocity": 50}, {"time": 3749, "pitch": 58, "duration": 3, "velocity": 76}, {"time": 3749, "pitch": 61, "duration": 3, "velocity": 91}, {"time": 3749, "pitch": 66, "duration": 3, "velocity": 67}, {"time": 3752, "pitch": 49, "duration": 2, "velocity": 47}, {"time": 3755, "pitch": 63, "duration": 3, "velocity": 66}, {"time": 3758, "pitch": 65, "duration": 1, "velocity": 66}, {"time": 3761, "pitch": 42, "duration": 19, "velocity": 61}, {"time": 3761, "pitch": 54, "duration": 18, "velocity": 59}, {"time": 3761, "pitch": 61, "duration": 7, "velocity": 59}, {"time": 3761, "pitch": 66, "duration": 7, "velocity": 59}, {"time": 3761, "pitch": 70, "duration": 8, "velocity": 50}, {"time": 3761, "pitch": 73, "duration": 7, "velocity": 45}, {"time": 3773, "pitch": 61, "duration": 6, "velocity": 48}, {"time": 3779, "pitch": 66, "duration": 4, "velocity": 61}, {"time": 3785, "pitch": 54, "duration": 17, "velocity": 67}, {"time": 3785, "pitch": 66, "duration": 6, "velocity": 58}, {"time": 3785, "pitch": 70, "duration": 7, "velocity": 56}, {"time": 3794, "pitch": 61, "duration": 10, "velocity": 44}, {"time": 3794, "pitch": 73, "duration": 5, "velocity": 63}, {"time": 3800, "pitch": 66, "duration": 4, "velocity": 52}, {"time": 3803, "pitch": 68, "duration": 2, "velocity": 60}, {"time": 3806, "pitch": 70, "duration": 3, "velocity": 62}, {"time": 3809, "pitch": 68, "duration": 6, "velocity": 66}, {"time": 3817, "pitch": 56, "duration": 8, "velocity": 84}, {"time": 3817, "pitch": 41, "duration": 8, "velocity": 79}, {"time": 3817, "pitch": 53, "duration": 8, "velocity": 76}, {"time": 3818, "pitch": 65, "duration": 7, "velocity": 71}, {"time": 3818, "pitch": 61, "duration": 6, "velocity": 64}, {"time": 3818, "pitch": 61, "duration": 6, "velocity": 67}, {"time": 3824, "pitch": 66, "duration": 2, "velocity": 66}, {"time": 3827, "pitch": 68, "duration": 2, "velocity": 57}, {"time": 3830, "pitch": 70, "duration": 2, "velocity": 64}, {"time": 3833, "pitch": 51, "duration": 17, "velocity": 69}, {"time": 3833, "pitch": 66, "duration": 6, "velocity": 64}, {"time": 3833, "pitch": 73, "duration": 6, "velocity": 66}, {"time": 3836, "pitch": 58, "duration": 14, "velocity": 58}, {"time": 3839, "pitch": 63, "duration": 8, "velocity": 54}, {"time": 3842, "pitch": 65, "duration": 6, "velocity": 64}, {"time": 3848, "pitch": 66, "duration": 2, "velocity": 59}, {"time": 3857, "pitch": 47, "duration": 5, "velocity": 64}, {"time": 3857, "pitch": 59, "duration": 6, "velocity": 59}, {"time": 3857, "pitch": 63, "duration": 7, "velocity": 63}, {"time": 3857, "pitch": 66, "duration": 7, "velocity": 64}, {"time": 3857, "pitch": 70, "duration": 8, "velocity": 59}, {"time": 3866, "pitch": 73, "duration": 5, "velocity": 58}, {"time": 3869, "pitch": 49, "duration": 8, "velocity": 60}, {"time": 3869, "pitch": 65, "duration": 5, "velocity": 56}, {"time": 3869, "pitch": 68, "duration": 4, "velocity": 59}, {"time": 3872, "pitch": 56, "duration": 5, "velocity": 49}, {"time": 3875, "pitch": 61, "duration": 2, "velocity": 60}, {"time": 3878, "pitch": 65, "duration": 2, "velocity": 57}, {"time": 3881, "pitch": 44, "duration": 4, "velocity": 70}, {"time": 3881, "pitch": 66, "duration": 11, "velocity": 61}, {"time": 3881, "pitch": 71, "duration": 12, "velocity": 60}, {"time": 3884, "pitch": 51, "duration": 2, "velocity": 61}, {"time": 3887, "pitch": 56, "duration": 3, "velocity": 46}, {"time": 3890, "pitch": 58, "duration": 4, "velocity": 58}, {"time": 3893, "pitch": 59, "duration": 4, "velocity": 66}, {"time": 3896, "pitch": 63, "duration": 2, "velocity": 55}, {"time": 3899, "pitch": 66, "duration": 3, "velocity": 45}, {"time": 3902, "pitch": 68, "duration": 1, "velocity": 57}, {"time": 3905, "pitch": 63, "duration": 12, "velocity": 61}, {"time": 3905, "pitch": 71, "duration": 8, "velocity": 67}, {"time": 3911, "pitch": 49, "duration": 8, "velocity": 60}, {"time": 3917, "pitch": 56, "duration": 4, "velocity": 69}, {"time": 3920, "pitch": 61, "duration": 7, "velocity": 64}, {"time": 3923, "pitch": 66, "duration": 3, "velocity": 55}, {"time": 3926, "pitch": 68, "duration": 3, "velocity": 62}, {"time": 3929, "pitch": 54, "duration": 4, "velocity": 70}, {"time": 3929, "pitch": 70, "duration": 3, "velocity": 66}, {"time": 3932, "pitch": 61, "duration": 2, "velocity": 63}, {"time": 3935, "pitch": 66, "duration": 3, "velocity": 53}, {"time": 3938, "pitch": 68, "duration": 4, "velocity": 63}, {"time": 3941, "pitch": 70, "duration": 1, "velocity": 66}, {"time": 3944, "pitch": 73, "duration": 2, "velocity": 62}, {"time": 3947, "pitch": 78, "duration": 3, "velocity": 64}, {"time": 3950, "pitch": 85, "duration": 2, "velocity": 60}, {"time": 3953, "pitch": 49, "duration": 7, "velocity": 63}, {"time": 3953, "pitch": 83, "duration": 3, "velocity": 80}, {"time": 3953, "pitch": 85, "duration": 1, "velocity": 46}, {"time": 3956, "pitch": 54, "duration": 4, "velocity": 55}, {"time": 3959, "pitch": 59, "duration": 2, "velocity": 56}, {"time": 3959, "pitch": 82, "duration": 2, "velocity": 67}, {"time": 3962, "pitch": 78, "duration": 5, "velocity": 61}, {"time": 3965, "pitch": 49, "duration": 5, "velocity": 75}, {"time": 3968, "pitch": 56, "duration": 3, "velocity": 69}, {"time": 3968, "pitch": 73, "duration": 3, "velocity": 61}, {"time": 3971, "pitch": 61, "duration": 5, "velocity": 52}, {"time": 3971, "pitch": 71, "duration": 2, "velocity": 82}, {"time": 3974, "pitch": 68, "duration": 3, "velocity": 63}, {"time": 3977, "pitch": 54, "duration": 18, "velocity": 72}, {"time": 3977, "pitch": 70, "duration": 5, "velocity": 63}, {"time": 3980, "pitch": 61, "duration": 9, "velocity": 59}, {"time": 3983, "pitch": 66, "duration": 10, "velocity": 60}, {"time": 3986, "pitch": 70, "duration": 4, "velocity": 51}, {"time": 3989, "pitch": 73, "duration": 3, "velocity": 58}, {"time": 3992, "pitch": 75, "duration": 2, "velocity": 56}, {"time": 3995, "pitch": 61, "duration": 4, "velocity": 48}, {"time": 3995, "pitch": 77, "duration": 2, "velocity": 53}, {"time": 3998, "pitch": 78, "duration": 2, "velocity": 56}, {"time": 4001, "pitch": 54, "duration": 17, "velocity": 72}, {"time": 4001, "pitch": 73, "duration": 5, "velocity": 63}, {"time": 4001, "pitch": 77, "duration": 7, "velocity": 59}, {"time": 4004, "pitch": 61, "duration": 6, "velocity": 53}, {"time": 4007, "pitch": 66, "duration": 3, "velocity": 56}, {"time": 4010, "pitch": 68, "duration": 4, "velocity": 67}, {"time": 4010, "pitch": 73, "duration": 2, "velocity": 80}, {"time": 4016, "pitch": 61, "duration": 2, "velocity": 66}, {"time": 4019, "pitch": 66, "duration": 3, "velocity": 73}, {"time": 4022, "pitch": 68, "duration": 2, "velocity": 55}, {"time": 4025, "pitch": 51, "duration": 18, "velocity": 70}, {"time": 4025, "pitch": 63, "duration": 2, "velocity": 55}, {"time": 4025, "pitch": 66, "duration": 6, "velocity": 62}, {"time": 4025, "pitch": 70, "duration": 5, "velocity": 66}, {"time": 4028, "pitch": 58, "duration": 8, "velocity": 57}, {"time": 4031, "pitch": 63, "duration": 8, "velocity": 53}, {"time": 4034, "pitch": 65, "duration": 4, "velocity": 63}, {"time": 4034, "pitch": 68, "duration": 5, "velocity": 73}, {"time": 4040, "pitch": 66, "duration": 2, "velocity": 66}, {"time": 4040, "pitch": 70, "duration": 3, "velocity": 70}, {"time": 4043, "pitch": 58, "duration": 1, "velocity": 63}, {"time": 4049, "pitch": 47, "duration": 6, "velocity": 70}, {"time": 4049, "pitch": 59, "duration": 5, "velocity": 82}, {"time": 4049, "pitch": 63, "duration": 4, "velocity": 63}, {"time": 4049, "pitch": 66, "duration": 4, "velocity": 75}, {"time": 4049, "pitch": 71, "duration": 4, "velocity": 61}, {"time": 4055, "pitch": 63, "duration": 1, "velocity": 25}, {"time": 4058, "pitch": 68, "duration": 7, "velocity": 62}, {"time": 4061, "pitch": 49, "duration": 6, "velocity": 73}, {"time": 4061, "pitch": 61, "duration": 4, "velocity": 55}, {"time": 4061, "pitch": 65, "duration": 4, "velocity": 66}, {"time": 4064, "pitch": 56, "duration": 2, "velocity": 53}, {"time": 4067, "pitch": 61, "duration": 2, "velocity": 57}, {"time": 4070, "pitch": 66, "duration": 2, "velocity": 49}, {"time": 4073, "pitch": 44, "duration": 18, "velocity": 45}, {"time": 4073, "pitch": 56, "duration": 19, "velocity": 61}, {"time": 4073, "pitch": 63, "duration": 7, "velocity": 62}, {"time": 4073, "pitch": 66, "duration": 8, "velocity": 69}, {"time": 4073, "pitch": 71, "duration": 8, "velocity": 64}, {"time": 4085, "pitch": 63, "duration": 6, "velocity": 57}, {"time": 4085, "pitch": 66, "duration": 6, "velocity": 70}, {"time": 4085, "pitch": 71, "duration": 7, "velocity": 60}, {"time": 4097, "pitch": 47, "duration": 41, "velocity": 63}, {"time": 4097, "pitch": 61, "duration": 13, "velocity": 61}, {"time": 4097, "pitch": 66, "duration": 6, "velocity": 69}, {"time": 4097, "pitch": 68, "duration": 6, "velocity": 70}, {"time": 4097, "pitch": 71, "duration": 6, "velocity": 63}, {"time": 4109, "pitch": 66, "duration": 3, "velocity": 61}, {"time": 4109, "pitch": 68, "duration": 3, "velocity": 67}, {"time": 4109, "pitch": 71, "duration": 4, "velocity": 59}, {"time": 4115, "pitch": 61, "duration": 23, "velocity": 45}, {"time": 4121, "pitch": 73, "duration": 16, "velocity": 47}, {"time": 4121, "pitch": 78, "duration": 15, "velocity": 58}, {"time": 4121, "pitch": 80, "duration": 15, "velocity": 44}, {"time": 4121, "pitch": 85, "duration": 15, "velocity": 45}, {"time": 4145, "pitch": 47, "duration": 3, "velocity": 73}, {"time": 4145, "pitch": 59, "duration": 3, "velocity": 67}, {"time": 4145, "pitch": 63, "duration": 3, "velocity": 69}, {"time": 4145, "pitch": 66, "duration": 3, "velocity": 72}, {"time": 4145, "pitch": 71, "duration": 3, "velocity": 76}, {"time": 4154, "pitch": 46, "duration": 4, "velocity": 63}, {"time": 4154, "pitch": 58, "duration": 4, "velocity": 63}, {"time": 4154, "pitch": 61, "duration": 3, "velocity": 69}, {"time": 4154, "pitch": 66, "duration": 4, "velocity": 72}, {"time": 4154, "pitch": 70, "duration": 4, "velocity": 72}, {"time": 4163, "pitch": 44, "duration": 2, "velocity": 70}, {"time": 4163, "pitch": 56, "duration": 1, "velocity": 62}, {"time": 4163, "pitch": 63, "duration": 2, "velocity": 64}, {"time": 4163, "pitch": 66, "duration": 2, "velocity": 73}, {"time": 4163, "pitch": 71, "duration": 2, "velocity": 73}, {"time": 4172, "pitch": 42, "duration": 37, "velocity": 66}, {"time": 4172, "pitch": 54, "duration": 37, "velocity": 64}, {"time": 4172, "pitch": 61, "duration": 18, "velocity": 69}, {"time": 4172, "pitch": 66, "duration": 18, "velocity": 64}, {"time": 4172, "pitch": 68, "duration": 19, "velocity": 69}, {"time": 4172, "pitch": 70, "duration": 19, "velocity": 72}, {"time": 4199, "pitch": 78, "duration": 7, "velocity": 47}, {"time": 4200, "pitch": 82, "duration": 7, "velocity": 45}, {"time": 4201, "pitch": 85, "duration": 6, "velocity": 52}, {"time": 4202, "pitch": 90, "duration": 5, "velocity": 40}], "annotations": [{"time": 57, "annotation": {"number": 64, "value": 127}, "group": "control_change"}, {"time": 88, "annotation": {"number": 64, "value": 0}, "group": "control_change"}, {"time": 91, "annotation": {"number": 64, "value": 127}, "group": "control_change"}, {"time": 135, "annotation": {"number": 64, "value": 0}, "group": "control_change"}, {"time": 139, "annotation": {"number": 64, "value": 127}, "group": "control_change"}, {"time": 160, "annotation": {"number": 64, "value": 0}, "group": "control_change"}, {"time": 163, "annotation": {"number": 64, "value": 127}, "group": "control_change"}, {"time": 183, "annotation": {"number": 64, "value": 0}, "group": "control_change"}, {"time": 187, "annotation": {"number": 64, "value": 127}, "group": "control_change"}, {"time": 208, "annotation": {"number": 64, "value": 0}, "group": "control_change"}, {"time": 212, "annotation": {"number": 64, "value": 127}, "group": "control_change"}, {"time": 233, "annotation": {"number": 64, "value": 0}, "group": "control_change"}, {"time": 237, "annotation": {"number": 64, "value": 127}, "group": "control_change"}, {"time": 257, "annotation": {"number": 64, "value": 0}, "group": "control_change"}, {"time": 260, "annotation": {"number": 64, "value": 127}, "group": "control_change"}, {"time": 280, "annotation": {"number": 64, "value": 0}, "group": "control_change"}, {"time": 284, "annotation": {"number": 64, "value": 127}, "group": "control_change"}, {"time": 327, "annotation": {"number": 64, "value": 0}, "group": "control_change"}, {"time": 330, "annotation": {"number": 64, "value": 127}, "group": "control_change"}, {"time": 351, "annotation": {"number": 64, "value": 0}, "group": "control_change"}, {"time": 355, "annotation": {"number": 64, "value": 127}, "group": "control_change"}, {"time": 376, "annotation": {"number": 64, "value": 0}, "group": "control_change"}, {"time": 380, "annotation": {"number": 64, "value": 127}, "group": "control_change"}, {"time": 400, "annotation": {"number": 64, "value": 0}, "group": "control_change"}, {"time": 404, "annotation": {"number": 64, "value": 127}, "group": "control_change"}, {"time": 424, "annotation": {"number": 64, "value": 0}, "group": "control_change"}, {"time": 427, "annotation": {"number": 64, "value": 127}, "group": "control_change"}, {"time": 449, "annotation": {"number": 64, "value": 0}, "group": "control_change"}, {"time": 453, "annotation": {"number": 64, "value": 127}, "group": "control_change"}, {"time": 470, "annotation": {"number": 64, "value": 0}, "group": "control_change"}, {"time": 474, "annotation": {"number": 64, "value": 127}, "group": "control_change"}, {"time": 495, "annotation": {"number": 64, "value": 0}, "group": "control_change"}, {"time": 498, "annotation": {"number": 64, "value": 127}, "group": "control_change"}, {"time": 509, "annotation": {"number": 64, "value": 0}, "group": "control_change"}, {"time": 509, "annotation": {"number": 64, "value": 127}, "group": "control_change"}, {"time": 516, "annotation": {"number": 64, "value": 0}, "group": "control_change"}, {"time": 524, "annotation": {"number": 64, "value": 127}, "group": "control_change"}, {"time": 546, "annotation": {"number": 64, "value": 0}, "group": "control_change"}, {"time": 549, "annotation": {"number": 64, "value": 127}, "group": "control_change"}, {"time": 570, "annotation": {"number": 64, "value": 0}, "group": "control_change"}, {"time": 573, "annotation": {"number": 64, "value": 127}, "group": "control_change"}, {"time": 595, "annotation": {"number": 64, "value": 0}, "group": "control_change"}, {"time": 598, "annotation": {"number": 64, "value": 127}, "group": "control_change"}, {"time": 619, "annotation": {"number": 64, "value": 0}, "group": "control_change"}, {"time": 622, "annotation": {"number": 64, "value": 127}, "group": "control_change"}, {"time": 642, "annotation": {"number": 64, "value": 0}, "group": "control_change"}, {"time": 645, "annotation": {"number": 64, "value": 127}, "group": "control_change"}, {"time": 666, "annotation": {"number": 64, "value": 0}, "group": "control_change"}, {"time": 669, "annotation": {"number": 64, "value": 127}, "group": "control_change"}, {"time": 690, "annotation": {"number": 64, "value": 0}, "group": "control_change"}, {"time": 694, "annotation": {"number": 64, "value": 127}, "group": "control_change"}, {"time": 713, "annotation": {"number": 64, "value": 0}, "group": "control_change"}, {"time": 717, "annotation": {"number": 64, "value": 127}, "group": "control_change"}, {"time": 737, "annotation": {"number": 64, "value": 0}, "group": "control_change"}, {"time": 740, "annotation": {"number": 64, "value": 127}, "group": "control_change"}, {"time": 761, "annotation": {"number": 64, "value": 0}, "group": "control_change"}, {"time": 764, "annotation": {"number": 64, "value": 127}, "group": "control_change"}, {"time": 785, "annotation": {"number": 64, "value": 0}, "group": "control_change"}, {"time": 789, "annotation": {"number": 64, "value": 127}, "group": "control_change"}, {"time": 810, "annotation": {"number": 64, "value": 0}, "group": "control_change"}, {"time": 815, "annotation": {"number": 64, "value": 127}, "group": "control_change"}, {"time": 834, "annotation": {"number": 64, "value": 0}, "group": "control_change"}, {"time": 838, "annotation": {"number": 64, "value": 127}, "group": "control_change"}, {"time": 858, "annotation": {"number": 64, "value": 0}, "group": "control_change"}, {"time": 861, "annotation": {"number": 64, "value": 127}, "group": "control_change"}, {"time": 881, "annotation": {"number": 64, "value": 0}, "group": "control_change"}, {"time": 885, "annotation": {"number": 64, "value": 127}, "group": "control_change"}, {"time": 905, "annotation": {"number": 64, "value": 0}, "group": "control_change"}, {"time": 909, "annotation": {"number": 64, "value": 127}, "group": "control_change"}, {"time": 929, "annotation": {"number": 64, "value": 0}, "group": "control_change"}, {"time": 929, "annotation": {"number": 64, "value": 127}, "group": "control_change"}, {"time": 951, "annotation": {"number": 64, "value": 0}, "group": "control_change"}, {"time": 955, "annotation": {"number": 64, "value": 127}, "group": "control_change"}, {"time": 976, "annotation": {"number": 64, "value": 0}, "group": "control_change"}, {"time": 978, "annotation": {"number": 64, "value": 127}, "group": "control_change"}, {"time": 988, "annotation": {"number": 64, "value": 0}, "group": "control_change"}, {"time": 990, "annotation": {"number": 64, "value": 127}, "group": "control_change"}, {"time": 999, "annotation": {"number": 64, "value": 0}, "group": "control_change"}, {"time": 1002, "annotation": {"number": 64, "value": 127}, "group": "control_change"}, {"time": 1022, "annotation": {"number": 64, "value": 0}, "group": "control_change"}, {"time": 1025, "annotation": {"number": 64, "value": 127}, "group": "control_change"}, {"time": 1047, "annotation": {"number": 64, "value": 0}, "group": "control_change"}, {"time": 1049, "annotation": {"number": 64, "value": 127}, "group": "control_change"}, {"time": 1072, "annotation": {"number": 64, "value": 0}, "group": "control_change"}, {"time": 1074, "annotation": {"number": 64, "value": 127}, "group": "control_change"}, {"time": 1109, "annotation": {"number": 64, "value": 0}, "group": "control_change"}, {"time": 1112, "annotation": {"number": 64, "value": 127}, "group": "control_change"}, {"time": 1121, "annotation": {"number": 64, "value": 0}, "group": "control_change"}, {"time": 1124, "annotation": {"number": 64, "value": 127}, "group": "control_change"}, {"time": 1168, "annotation": {"number": 64, "value": 127}, "group": "control_change"}, {"time": 1168, "annotation": {"number": 64, "value": 0}, "group": "control_change"}, {"time": 1190, "annotation": {"number": 64, "value": 0}, "group": "control_change"}, {"time": 1192, "annotation": {"number": 64, "value": 127}, "group": "control_change"}, {"time": 1217, "annotation": {"number": 64, "value": 0}, "group": "control_change"}, {"time": 1218, "annotation": {"number": 64, "value": 127}, "group": "control_change"}, {"time": 1239, "annotation": {"number": 64, "value": 0}, "group": "control_change"}, {"time": 1242, "annotation": {"number": 64, "value": 127}, "group": "control_change"}, {"time": 1248, "annotation": {"number": 64, "value": 0}, "group": "control_change"}, {"time": 1252, "annotation": {"number": 64, "value": 127}, "group": "control_change"}, {"time": 1266, "annotation": {"number": 64, "value": 127}, "group": "control_change"}, {"time": 1277, "annotation": {"number": 64, "value": 0}, "group": "control_change"}, {"time": 1287, "annotation": {"number": 64, "value": 0}, "group": "control_change"}, {"time": 1290, "annotation": {"number": 64, "value": 127}, "group": "control_change"}, {"time": 1310, "annotation": {"number": 64, "value": 0}, "group": "control_change"}, {"time": 1313, "annotation": {"number": 64, "value": 127}, "group": "control_change"}, {"time": 1333, "annotation": {"number": 64, "value": 0}, "group": "control_change"}, {"time": 1336, "annotation": {"number": 64, "value": 127}, "group": "control_change"}, {"time": 1344, "annotation": {"number": 64, "value": 0}, "group": "control_change"}, {"time": 1346, "annotation": {"number": 64, "value": 127}, "group": "control_change"}, {"time": 1357, "annotation": {"number": 64, "value": 0}, "group": "control_change"}, {"time": 1358, "annotation": {"number": 64, "value": 127}, "group": "control_change"}, {"time": 1362, "annotation": {"number": 64, "value": 127}, "group": "control_change"}, {"time": 1383, "annotation": {"number": 64, "value": 0}, "group": "control_change"}, {"time": 1387, "annotation": {"number": 64, "value": 127}, "group": "control_change"}, {"time": 1407, "annotation": {"number": 64, "value": 0}, "group": "control_change"}, {"time": 1411, "annotation": {"number": 64, "value": 127}, "group": "control_change"}, {"time": 1432, "annotation": {"number": 64, "value": 0}, "group": "control_change"}, {"time": 1435, "annotation": {"number": 64, "value": 127}, "group": "control_change"}, {"time": 1441, "annotation": {"number": 64, "value": 0}, "group": "control_change"}, {"time": 1444, "annotation": {"number": 64, "value": 127}, "group": "control_change"}, {"time": 1456, "annotation": {"number": 64, "value": 0}, "group": "control_change"}, {"time": 1459, "annotation": {"number": 64, "value": 127}, "group": "control_change"}, {"time": 1479, "annotation": {"number": 64, "value": 0}, "group": "control_change"}, {"time": 1482, "annotation": {"number": 64, "value": 127}, "group": "control_change"}, {"time": 1503, "annotation": {"number": 64, "value": 0}, "group": "control_change"}, {"time": 1507, "annotation": {"number": 64, "value": 127}, "group": "control_change"}, {"time": 1528, "annotation": {"number": 64, "value": 0}, "group": "control_change"}, {"time": 1533, "annotation": {"number": 64, "value": 127}, "group": "control_change"}, {"time": 1541, "annotation": {"number": 64, "value": 0}, "group": "control_change"}, {"time": 1545, "annotation": {"number": 64, "value": 127}, "group": "control_change"}, {"time": 1551, "annotation": {"number": 64, "value": 0}, "group": "control_change"}, {"time": 1559, "annotation": {"number": 64, "value": 127}, "group": "control_change"}, {"time": 1561, "annotation": {"number": 64, "value": 0}, "group": "control_change"}, {"time": 1579, "annotation": {"number": 64, "value": 127}, "group": "control_change"}, {"time": 1599, "annotation": {"number": 64, "value": 0}, "group": "control_change"}, {"time": 1603, "annotation": {"number": 64, "value": 127}, "group": "control_change"}, {"time": 1623, "annotation": {"number": 64, "value": 0}, "group": "control_change"}, {"time": 1625, "annotation": {"number": 64, "value": 127}, "group": "control_change"}, {"time": 1633, "annotation": {"number": 64, "value": 0}, "group": "control_change"}, {"time": 1636, "annotation": {"number": 64, "value": 127}, "group": "control_change"}, {"time": 1648, "annotation": {"number": 64, "value": 0}, "group": "control_change"}, {"time": 1650, "annotation": {"number": 64, "value": 127}, "group": "control_change"}, {"time": 1671, "annotation": {"number": 64, "value": 0}, "group": "control_change"}, {"time": 1674, "annotation": {"number": 64, "value": 127}, "group": "control_change"}, {"time": 1695, "annotation": {"number": 64, "value": 0}, "group": "control_change"}, {"time": 1698, "annotation": {"number": 64, "value": 127}, "group": "control_change"}, {"time": 1743, "annotation": {"number": 64, "value": 0}, "group": "control_change"}, {"time": 1746, "annotation": {"number": 64, "value": 127}, "group": "control_change"}, {"time": 1768, "annotation": {"number": 64, "value": 0}, "group": "control_change"}, {"time": 1771, "annotation": {"number": 64, "value": 127}, "group": "control_change"}, {"time": 1791, "annotation": {"number": 64, "value": 0}, "group": "control_change"}, {"time": 1794, "annotation": {"number": 64, "value": 127}, "group": "control_change"}, {"time": 1816, "annotation": {"number": 64, "value": 0}, "group": "control_change"}, {"time": 1818, "annotation": {"number": 64, "value": 127}, "group": "control_change"}, {"time": 1824, "annotation": {"number": 64, "value": 0}, "group": "control_change"}, {"time": 1828, "annotation": {"number": 64, "value": 127}, "group": "control_change"}, {"time": 1839, "annotation": {"number": 64, "value": 0}, "group": "control_change"}, {"time": 1843, "annotation": {"number": 64, "value": 127}, "group": "control_change"}, {"time": 1864, "annotation": {"number": 64, "value": 0}, "group": "control_change"}, {"time": 1867, "annotation": {"number": 64, "value": 127}, "group": "control_change"}, {"time": 1888, "annotation": {"number": 64, "value": 0}, "group": "control_change"}, {"time": 1889, "annotation": {"number": 64, "value": 127}, "group": "control_change"}, {"time": 1896, "annotation": {"number": 64, "value": 0}, "group": "control_change"}, {"time": 1899, "annotation": {"number": 64, "value": 127}, "group": "control_change"}, {"time": 1904, "annotation": {"number": 64, "value": 0}, "group": "control_change"}, {"time": 1907, "annotation": {"number": 64, "value": 127}, "group": "control_change"}, {"time": 1910, "annotation": {"number": 64, "value": 0}, "group": "control_change"}, {"time": 1914, "annotation": {"number": 64, "value": 127}, "group": "control_change"}, {"time": 1934, "annotation": {"number": 64, "value": 0}, "group": "control_change"}, {"time": 1937, "annotation": {"number": 64, "value": 127}, "group": "control_change"}, {"time": 1963, "annotation": {"number": 64, "value": 0}, "group": "control_change"}, {"time": 1963, "annotation": {"number": 64, "value": 127}, "group": "control_change"}, {"time": 1984, "annotation": {"number": 64, "value": 0}, "group": "control_change"}, {"time": 1987, "annotation": {"number": 64, "value": 127}, "group": "control_change"}, {"time": 2007, "annotation": {"number": 64, "value": 0}, "group": "control_change"}, {"time": 2011, "annotation": {"number": 64, "value": 127}, "group": "control_change"}, {"time": 2032, "annotation": {"number": 64, "value": 0}, "group": "control_change"}, {"time": 2036, "annotation": {"number": 64, "value": 127}, "group": "control_change"}, {"time": 2057, "annotation": {"number": 64, "value": 0}, "group": "control_change"}, {"time": 2061, "annotation": {"number": 64, "value": 127}, "group": "control_change"}, {"time": 2081, "annotation": {"number": 64, "value": 0}, "group": "control_change"}, {"time": 2084, "annotation": {"number": 64, "value": 127}, "group": "control_change"}, {"time": 2104, "annotation": {"number": 64, "value": 0}, "group": "control_change"}, {"time": 2108, "annotation": {"number": 64, "value": 127}, "group": "control_change"}, {"time": 2151, "annotation": {"number": 64, "value": 0}, "group": "control_change"}, {"time": 2154, "annotation": {"number": 64, "value": 127}, "group": "control_change"}, {"time": 2175, "annotation": {"number": 64, "value": 0}, "group": "control_change"}, {"time": 2179, "annotation": {"number": 64, "value": 127}, "group": "control_change"}, {"time": 2200, "annotation": {"number": 64, "value": 0}, "group": "control_change"}, {"time": 2204, "annotation": {"number": 64, "value": 127}, "group": "control_change"}, {"time": 2224, "annotation": {"number": 64, "value": 0}, "group": "control_change"}, {"time": 2228, "annotation": {"number": 64, "value": 127}, "group": "control_change"}, {"time": 2248, "annotation": {"number": 64, "value": 0}, "group": "control_change"}, {"time": 2251, "annotation": {"number": 64, "value": 127}, "group": "control_change"}, {"time": 2273, "annotation": {"number": 64, "value": 0}, "group": "control_change"}, {"time": 2277, "annotation": {"number": 64, "value": 127}, "group": "control_change"}, {"time": 2294, "annotation": {"number": 64, "value": 0}, "group": "control_change"}, {"time": 2298, "annotation": {"number": 64, "value": 127}, "group": "control_change"}, {"time": 2319, "annotation": {"number": 64, "value": 0}, "group": "control_change"}, {"time": 2322, "annotation": {"number": 64, "value": 127}, "group": "control_change"}, {"time": 2333, "annotation": {"number": 64, "value": 0}, "group": "control_change"}, {"time": 2348, "annotation": {"number": 64, "value": 127}, "group": "control_change"}, {"time": 2370, "annotation": {"number": 64, "value": 0}, "group": "control_change"}, {"time": 2373, "annotation": {"number": 64, "value": 127}, "group": "control_change"}, {"time": 2394, "annotation": {"number": 64, "value": 0}, "group": "control_change"}, {"time": 2397, "annotation": {"number": 64, "value": 127}, "group": "control_change"}, {"time": 2419, "annotation": {"number": 64, "value": 0}, "group": "control_change"}, {"time": 2422, "annotation": {"number": 64, "value": 127}, "group": "control_change"}, {"time": 2443, "annotation": {"number": 64, "value": 0}, "group": "control_change"}, {"time": 2446, "annotation": {"number": 64, "value": 127}, "group": "control_change"}, {"time": 2466, "annotation": {"number": 64, "value": 0}, "group": "control_change"}, {"time": 2469, "annotation": {"number": 64, "value": 127}, "group": "control_change"}, {"time": 2490, "annotation": {"number": 64, "value": 0}, "group": "control_change"}, {"time": 2493, "annotation": {"number": 64, "value": 127}, "group": "control_change"}, {"time": 2514, "annotation": {"number": 64, "value": 0}, "group": "control_change"}, {"time": 2518, "annotation": {"number": 64, "value": 127}, "group": "control_change"}, {"time": 2537, "annotation": {"number": 64, "value": 0}, "group": "control_change"}, {"time": 2541, "annotation": {"number": 64, "value": 127}, "group": "control_change"}, {"time": 2561, "annotation": {"number": 64, "value": 0}, "group": "control_change"}, {"time": 2564, "annotation": {"number": 64, "value": 127}, "group": "control_change"}, {"time": 2585, "annotation": {"number": 64, "value": 0}, "group": "control_change"}, {"time": 2588, "annotation": {"number": 64, "value": 127}, "group": "control_change"}, {"time": 2609, "annotation": {"number": 64, "value": 0}, "group": "control_change"}, {"time": 2613, "annotation": {"number": 64, "value": 127}, "group": "control_change"}, {"time": 2634, "annotation": {"number": 64, "value": 0}, "group": "control_change"}, {"time": 2639, "annotation": {"number": 64, "value": 127}, "group": "control_change"}, {"time": 2658, "annotation": {"number": 64, "value": 0}, "group": "control_change"}, {"time": 2662, "annotation": {"number": 64, "value": 127}, "group": "control_change"}, {"time": 2682, "annotation": {"number": 64, "value": 0}, "group": "control_change"}, {"time": 2685, "annotation": {"number": 64, "value": 127}, "group": "control_change"}, {"time": 2705, "annotation": {"number": 64, "value": 0}, "group": "control_change"}, {"time": 2709, "annotation": {"number": 64, "value": 127}, "group": "control_change"}, {"time": 2729, "annotation": {"number": 64, "value": 0}, "group": "control_change"}, {"time": 2733, "annotation": {"number": 64, "value": 127}, "group": "control_change"}, {"time": 2753, "annotation": {"number": 64, "value": 0}, "group": "control_change"}, {"time": 2753, "annotation": {"number": 64, "value": 127}, "group": "control_change"}, {"time": 2775, "annotation": {"number": 64, "value": 0}, "group": "control_change"}, {"time": 2779, "annotation": {"number": 64, "value": 127}, "group": "control_change"}, {"time": 2800, "annotation": {"number": 64, "value": 0}, "group": "control_change"}, {"time": 2802, "annotation": {"number": 64, "value": 127}, "group": "control_change"}, {"time": 2812, "annotation": {"number": 64, "value": 0}, "group": "control_change"}, {"time": 2814, "annotation": {"number": 64, "value": 127}, "group": "control_change"}, {"time": 2823, "annotation": {"number": 64, "value": 0}, "group": "control_change"}, {"time": 2826, "annotation": {"number": 64, "value": 127}, "group": "control_change"}, {"time": 2846, "annotation": {"number": 64, "value": 0}, "group": "control_change"}, {"time": 2849, "annotation": {"number": 64, "value": 127}, "group": "control_change"}, {"time": 2871, "annotation": {"number": 64, "value": 0}, "group": "control_change"}, {"time": 2873, "annotation": {"number": 64, "value": 127}, "group": "control_change"}, {"time": 2896, "annotation": {"number": 64, "value": 0}, "group": "control_change"}, {"time": 2898, "annotation": {"number": 64, "value": 127}, "group": "control_change"}, {"time": 2933, "annotation": {"number": 64, "value": 0}, "group": "control_change"}, {"time": 2936, "annotation": {"number": 64, "value": 127}, "group": "control_change"}, {"time": 2945, "annotation": {"number": 64, "value": 0}, "group": "control_change"}, {"time": 2948, "annotation": {"number": 64, "value": 127}, "group": "control_change"}, {"time": 2992, "annotation": {"number": 64, "value": 127}, "group": "control_change"}, {"time": 2992, "annotation": {"number": 64, "value": 0}, "group": "control_change"}, {"time": 3014, "annotation": {"number": 64, "value": 0}, "group": "control_change"}, {"time": 3016, "annotation": {"number": 64, "value": 127}, "group": "control_change"}, {"time": 3041, "annotation": {"number": 64, "value": 0}, "group": "control_change"}, {"time": 3042, "annotation": {"number": 64, "value": 127}, "group": "control_change"}, {"time": 3063, "annotation": {"number": 64, "value": 0}, "group": "control_change"}, {"time": 3066, "annotation": {"number": 64, "value": 127}, "group": "control_change"}, {"time": 3072, "annotation": {"number": 64, "value": 0}, "group": "control_change"}, {"time": 3076, "annotation": {"number": 64, "value": 127}, "group": "control_change"}, {"time": 3090, "annotation": {"number": 64, "value": 127}, "group": "control_change"}, {"time": 3101, "annotation": {"number": 64, "value": 0}, "group": "control_change"}, {"time": 3111, "annotation": {"number": 64, "value": 0}, "group": "control_change"}, {"time": 3114, "annotation": {"number": 64, "value": 127}, "group": "control_change"}, {"time": 3134, "annotation": {"number": 64, "value": 0}, "group": "control_change"}, {"time": 3137, "annotation": {"number": 64, "value": 127}, "group": "control_change"}, {"time": 3158, "annotation": {"number": 64, "value": 0}, "group": "control_change"}, {"time": 3162, "annotation": {"number": 64, "value": 127}, "group": "control_change"}, {"time": 3183, "annotation": {"number": 64, "value": 0}, "group": "control_change"}, {"time": 3186, "annotation": {"number": 64, "value": 127}, "group": "control_change"}, {"time": 3207, "annotation": {"number": 64, "value": 0}, "group": "control_change"}, {"time": 3211, "annotation": {"number": 64, "value": 127}, "group": "control_change"}, {"time": 3231, "annotation": {"number": 64, "value": 0}, "group": "control_change"}, {"time": 3235, "annotation": {"number": 64, "value": 127}, "group": "control_change"}, {"time": 3256, "annotation": {"number": 64, "value": 0}, "group": "control_change"}, {"time": 3259, "annotation": {"number": 64, "value": 127}, "group": "control_change"}, {"time": 3265, "annotation": {"number": 64, "value": 0}, "group": "control_change"}, {"time": 3268, "annotation": {"number": 64, "value": 127}, "group": "control_change"}, {"time": 3280, "annotation": {"number": 64, "value": 0}, "group": "control_change"}, {"time": 3283, "annotation": {"number": 64, "value": 127}, "group": "control_change"}, {"time": 3303, "annotation": {"number": 64, "value": 0}, "group": "control_change"}, {"time": 3306, "annotation": {"number": 64, "value": 127}, "group": "control_change"}, {"time": 3327, "annotation": {"number": 64, "value": 0}, "group": "control_change"}, {"time": 3331, "annotation": {"number": 64, "value": 127}, "group": "control_change"}, {"time": 3352, "annotation": {"number": 64, "value": 127}, "group": "control_change"}, {"time": 3352, "annotation": {"number": 64, "value": 0}, "group": "control_change"}, {"time": 3375, "annotation": {"number": 64, "value": 0}, "group": "control_change"}, {"time": 3383, "annotation": {"number": 64, "value": 127}, "group": "control_change"}, {"time": 3385, "annotation": {"number": 64, "value": 0}, "group": "control_change"}, {"time": 3403, "annotation": {"number": 64, "value": 127}, "group": "control_change"}, {"time": 3423, "annotation": {"number": 64, "value": 0}, "group": "control_change"}, {"time": 3427, "annotation": {"number": 64, "value": 127}, "group": "control_change"}, {"time": 3447, "annotation": {"number": 64, "value": 0}, "group": "control_change"}, {"time": 3449, "annotation": {"number": 64, "value": 127}, "group": "control_change"}, {"time": 3457, "annotation": {"number": 64, "value": 0}, "group": "control_change"}, {"time": 3460, "annotation": {"number": 64, "value": 127}, "group": "control_change"}, {"time": 3472, "annotation": {"number": 64, "value": 0}, "group": "control_change"}, {"time": 3474, "annotation": {"number": 64, "value": 127}, "group": "control_change"}, {"time": 3495, "annotation": {"number": 64, "value": 0}, "group": "control_change"}, {"time": 3498, "annotation": {"number": 64, "value": 127}, "group": "control_change"}, {"time": 3519, "annotation": {"number": 64, "value": 0}, "group": "control_change"}, {"time": 3522, "annotation": {"number": 64, "value": 127}, "group": "control_change"}, {"time": 3567, "annotation": {"number": 64, "value": 0}, "group": "control_change"}, {"time": 3570, "annotation": {"number": 64, "value": 127}, "group": "control_change"}, {"time": 3592, "annotation": {"number": 64, "value": 0}, "group": "control_change"}, {"time": 3595, "annotation": {"number": 64, "value": 127}, "group": "control_change"}, {"time": 3615, "annotation": {"number": 64, "value": 0}, "group": "control_change"}, {"time": 3618, "annotation": {"number": 64, "value": 127}, "group": "control_change"}, {"time": 3640, "annotation": {"number": 64, "value": 0}, "group": "control_change"}, {"time": 3642, "annotation": {"number": 64, "value": 127}, "group": "control_change"}, {"time": 3648, "annotation": {"number": 64, "value": 0}, "group": "control_change"}, {"time": 3652, "annotation": {"number": 64, "value": 127}, "group": "control_change"}, {"time": 3663, "annotation": {"number": 64, "value": 0}, "group": "control_change"}, {"time": 3667, "annotation": {"number": 64, "value": 127}, "group": "control_change"}, {"time": 3688, "annotation": {"number": 64, "value": 0}, "group": "control_change"}, {"time": 3691, "annotation": {"number": 64, "value": 127}, "group": "control_change"}, {"time": 3712, "annotation": {"number": 64, "value": 0}, "group": "control_change"}, {"time": 3713, "annotation": {"number": 64, "value": 127}, "group": "control_change"}, {"time": 3720, "annotation": {"number": 64, "value": 0}, "group": "control_change"}, {"time": 3723, "annotation": {"number": 64, "value": 127}, "group": "control_change"}, {"time": 3728, "annotation": {"number": 64, "value": 0}, "group": "control_change"}, {"time": 3731, "annotation": {"number": 64, "value": 127}, "group": "control_change"}, {"time": 3734, "annotation": {"number": 64, "value": 0}, "group": "control_change"}, {"time": 3738, "annotation": {"number": 64, "value": 127}, "group": "control_change"}, {"time": 3758, "annotation": {"number": 64, "value": 0}, "group": "control_change"}, {"time": 3761, "annotation": {"number": 64, "value": 127}, "group": "control_change"}, {"time": 3777, "annotation": {"number": 64, "value": 127}, "group": "control_change"}, {"time": 3784, "annotation": {"number": 64, "value": 0}, "group": "control_change"}, {"time": 3786, "annotation": {"number": 64, "value": 127}, "group": "control_change"}, {"time": 3818, "annotation": {"number": 64, "value": 0}, "group": "control_change"}, {"time": 3819, "annotation": {"number": 64, "value": 124}, "group": "control_change"}, {"time": 3831, "annotation": {"number": 64, "value": 0}, "group": "control_change"}, {"time": 3834, "annotation": {"number": 64, "value": 127}, "group": "control_change"}, {"time": 3855, "annotation": {"number": 64, "value": 0}, "group": "control_change"}, {"time": 3858, "annotation": {"number": 64, "value": 127}, "group": "control_change"}, {"time": 3867, "annotation": {"number": 64, "value": 0}, "group": "control_change"}, {"time": 3870, "annotation": {"number": 64, "value": 127}, "group": "control_change"}, {"time": 3881, "annotation": {"number": 64, "value": 0}, "group": "control_change"}, {"time": 3884, "annotation": {"number": 64, "value": 127}, "group": "control_change"}, {"time": 3905, "annotation": {"number": 64, "value": 0}, "group": "control_change"}, {"time": 3907, "annotation": {"number": 64, "value": 127}, "group": "control_change"}, {"time": 3926, "annotation": {"number": 64, "value": 0}, "group": "control_change"}, {"time": 3929, "annotation": {"number": 64, "value": 127}, "group": "control_change"}, {"time": 3952, "annotation": {"number": 64, "value": 0}, "group": "control_change"}, {"time": 3954, "annotation": {"number": 64, "value": 127}, "group": "control_change"}, {"time": 3964, "annotation": {"number": 64, "value": 0}, "group": "control_change"}, {"time": 3966, "annotation": {"number": 64, "value": 127}, "group": "control_change"}, {"time": 3976, "annotation": {"number": 64, "value": 0}, "group": "control_change"}, {"time": 3978, "annotation": {"number": 64, "value": 127}, "group": "control_change"}, {"time": 4000, "annotation": {"number": 64, "value": 0}, "group": "control_change"}, {"time": 4003, "annotation": {"number": 64, "value": 127}, "group": "control_change"}, {"time": 4024, "annotation": {"number": 64, "value": 0}, "group": "control_change"}, {"time": 4027, "annotation": {"number": 64, "value": 127}, "group": "control_change"}, {"time": 4047, "annotation": {"number": 64, "value": 0}, "group": "control_change"}, {"time": 4050, "annotation": {"number": 64, "value": 127}, "group": "control_change"}, {"time": 4058, "annotation": {"number": 64, "value": 0}, "group": "control_change"}, {"time": 4062, "annotation": {"number": 64, "value": 127}, "group": "control_change"}, {"time": 4071, "annotation": {"number": 64, "value": 0}, "group": "control_change"}, {"time": 4073, "annotation": {"number": 64, "value": 127}, "group": "control_change"}, {"time": 4098, "annotation": {"number": 64, "value": 0}, "group": "control_change"}, {"time": 4100, "annotation": {"number": 64, "value": 127}, "group": "control_change"}, {"time": 4143, "annotation": {"number": 64, "value": 0}, "group": "control_change"}, {"time": 4148, "annotation": {"number": 64, "value": 127}, "group": "control_change"}, {"time": 4153, "annotation": {"number": 64, "value": 0}, "group": "control_change"}, {"time": 4156, "annotation": {"number": 64, "value": 127}, "group": "control_change"}, {"time": 4161, "annotation": {"number": 64, "value": 0}, "group": "control_change"}, {"time": 4163, "annotation": {"number": 64, "value": 127}, "group": "control_change"}, {"time": 4169, "annotation": {"number": 64, "value": 0}, "group": "control_change"}, {"time": 4171, "annotation": {"number": 64, "value": 127}, "group": "control_change"}, {"time": 4302, "annotation": {"number": 64, "value": 0}, "group": "control_change"}]}]}