{"metadata": {"schema_version": "0.2", "title": "None", "source_filename": "219.mid", "source_format": "midi"}, "resolution": 12, "tempos": [{"time": 0, "qpm": 54.00000540000054}, {"time": 192, "qpm": 53.000022083342536}, {"time": 216, "qpm": 55.00000458333371}, {"time": 228, "qpm": 54.00000540000054}, {"time": 252, "qpm": 52.000006933334255}, {"time": 258, "qpm": 54.00000540000054}, {"time": 264, "qpm": 55.00000458333371}, {"time": 276, "qpm": 54.00000540000054}, {"time": 282, "qpm": 53.000022083342536}, {"time": 300, "qpm": 54.00000540000054}, {"time": 420, "qpm": 53.000022083342536}, {"time": 432, "qpm": 54.00000540000054}, {"time": 636, "qpm": 53.000022083342536}, {"time": 672, "qpm": 54.00000540000054}, {"time": 888, "qpm": 53.000022083342536}, {"time": 912, "qpm": 54.00000540000054}, {"time": 1080, "qpm": 53.000022083342536}, {"time": 1092, "qpm": 54.00000540000054}, {"time": 1188, "qpm": 52.000006933334255}, {"time": 1200, "qpm": 54.00000540000054}, {"time": 1392, "qpm": 53.000022083342536}, {"time": 1452, "qpm": 55.99997760000896}, {"time": 1476, "qpm": 55.00000458333371}, {"time": 1488, "qpm": 50.0}, {"time": 1500, "qpm": 55.99997760000896}, {"time": 1512, "qpm": 54.00000540000054}, {"time": 1536, "qpm": 53.000022083342536}, {"time": 1560, "qpm": 55.00000458333371}, {"time": 1572, "qpm": 54.00000540000054}, {"time": 1776, "qpm": 64.99999458333379}, {"time": 1812, "qpm": 55.99997760000896}, {"time": 1824, "qpm": 54.00000540000054}, {"time": 1836, "qpm": 52.000006933334255}, {"time": 1848, "qpm": 54.00000540000054}, {"time": 1860, "qpm": 52.000006933334255}], "key_signatures": [{"time": 0, "root": 0, "mode": "major"}], "time_signatures": [{"time": 0, "numerator": 4, "denominator": 4}], "tracks": [{"program": 4, "is_drum": false, "name": "MELODY", "notes": [{"time": 250, "pitch": 81, "duration": 3, "velocity": 78}, {"time": 253, "pitch": 84, "duration": 3, "velocity": 72}, {"time": 256, "pitch": 79, "duration": 3, "velocity": 73}, {"time": 259, "pitch": 81, "duration": 3, "velocity": 69}, {"time": 262, "pitch": 77, "duration": 3, "velocity": 91}, {"time": 265, "pitch": 76, "duration": 3, "velocity": 88}, {"time": 268, "pitch": 74, "duration": 3, "velocity": 69}, {"time": 271, "pitch": 72, "duration": 3, "velocity": 60}, {"time": 274, "pitch": 74, "duration": 3, "velocity": 54}, {"time": 277, "pitch": 77, "duration": 21, "velocity": 72}, {"time": 298, "pitch": 86, "duration": 3, "velocity": 99}, {"time": 301, "pitch": 86, "duration": 3, "velocity": 76}, {"time": 304, "pitch": 86, "duration": 3, "velocity": 80}, {"time": 307, "pitch": 89, "duration": 3, "velocity": 64}, {"time": 310, "pitch": 86, "duration": 3, "velocity": 64}, {"time": 313, "pitch": 84, "duration": 3, "velocity": 64}, {"time": 316, "pitch": 84, "duration": 3, "velocity": 64}, {"time": 319, "pitch": 81, "duration": 3, "velocity": 64}, {"time": 322, "pitch": 79, "duration": 24, "velocity": 64}, {"time": 346, "pitch": 84, "duration": 6, "velocity": 93}, {"time": 352, "pitch": 81, "duration": 3, "velocity": 97}, {"time": 355, "pitch": 84, "duration": 3, "velocity": 91}, {"time": 358, "pitch": 86, "duration": 3, "velocity": 95}, {"time": 361, "pitch": 84, "duration": 3, "velocity": 82}, {"time": 364, "pitch": 84, "duration": 3, "velocity": 95}, {"time": 367, "pitch": 81, "duration": 3, "velocity": 95}, {"time": 370, "pitch": 79, "duration": 9, "velocity": 95}, {"time": 379, "pitch": 81, "duration": 3, "velocity": 99}, {"time": 382, "pitch": 84, "duration": 6, "velocity": 70}, {"time": 388, "pitch": 84, "duration": 3, "velocity": 78}, {"time": 391, "pitch": 76, "duration": 3, "velocity": 80}, {"time": 394, "pitch": 74, "duration": 3, "velocity": 69}, {"time": 397, "pitch": 76, "duration": 3, "velocity": 47}, {"time": 398, "pitch": 74, "duration": 3, "velocity": 61}, {"time": 400, "pitch": 72, "duration": 3, "velocity": 78}, {"time": 403, "pitch": 74, "duration": 3, "velocity": 67}, {"time": 406, "pitch": 79, "duration": 3, "velocity": 75}, {"time": 409, "pitch": 76, "duration": 3, "velocity": 82}, {"time": 412, "pitch": 74, "duration": 3, "velocity": 75}, {"time": 415, "pitch": 76, "duration": 3, "velocity": 95}, {"time": 418, "pitch": 77, "duration": 3, "velocity": 67}, {"time": 421, "pitch": 72, "duration": 21, "velocity": 67}, {"time": 442, "pitch": 77, "duration": 3, "velocity": 106}, {"time": 445, "pitch": 77, "duration": 3, "velocity": 99}, {"time": 448, "pitch": 77, "duration": 3, "velocity": 99}, {"time": 451, "pitch": 77, "duration": 3, "velocity": 95}, {"time": 454, "pitch": 77, "duration": 3, "velocity": 95}, {"time": 457, "pitch": 79, "duration": 3, "velocity": 95}, {"time": 460, "pitch": 79, "duration": 3, "velocity": 95}, {"time": 463, "pitch": 76, "duration": 3, "velocity": 95}, {"time": 466, "pitch": 74, "duration": 3, "velocity": 95}, {"time": 469, "pitch": 76, "duration": 3, "velocity": 88}, {"time": 472, "pitch": 72, "duration": 6, "velocity": 73}, {"time": 478, "pitch": 74, "duration": 9, "velocity": 78}, {"time": 487, "pitch": 74, "duration": 3, "velocity": 103}, {"time": 490, "pitch": 81, "duration": 3, "velocity": 95}, {"time": 493, "pitch": 81, "duration": 6, "velocity": 95}, {"time": 499, "pitch": 84, "duration": 3, "velocity": 86}, {"time": 502, "pitch": 79, "duration": 3, "velocity": 99}, {"time": 505, "pitch": 81, "duration": 3, "velocity": 66}, {"time": 508, "pitch": 79, "duration": 3, "velocity": 66}, {"time": 511, "pitch": 76, "duration": 3, "velocity": 69}, {"time": 514, "pitch": 74, "duration": 3, "velocity": 82}, {"time": 517, "pitch": 76, "duration": 3, "velocity": 66}, {"time": 519, "pitch": 74, "duration": 3, "velocity": 91}, {"time": 520, "pitch": 72, "duration": 6, "velocity": 91}, {"time": 526, "pitch": 74, "duration": 12, "velocity": 91}, {"time": 538, "pitch": 77, "duration": 6, "velocity": 62}, {"time": 544, "pitch": 77, "duration": 3, "velocity": 63}, {"time": 544, "pitch": 77, "duration": 3, "velocity": 66}, {"time": 547, "pitch": 74, "duration": 3, "velocity": 70}, {"time": 550, "pitch": 77, "duration": 3, "velocity": 69}, {"time": 553, "pitch": 77, "duration": 6, "velocity": 72}, {"time": 559, "pitch": 79, "duration": 3, "velocity": 66}, {"time": 562, "pitch": 81, "duration": 6, "velocity": 73}, {"time": 568, "pitch": 84, "duration": 3, "velocity": 60}, {"time": 569, "pitch": 81, "duration": 3, "velocity": 58}, {"time": 571, "pitch": 79, "duration": 3, "velocity": 61}, {"time": 574, "pitch": 81, "duration": 6, "velocity": 72}, {"time": 580, "pitch": 79, "duration": 3, "velocity": 62}, {"time": 583, "pitch": 81, "duration": 3, "velocity": 59}, {"time": 586, "pitch": 84, "duration": 3, "velocity": 60}, {"time": 589, "pitch": 84, "duration": 3, "velocity": 67}, {"time": 592, "pitch": 84, "duration": 3, "velocity": 73}, {"time": 595, "pitch": 84, "duration": 3, "velocity": 70}, {"time": 598, "pitch": 86, "duration": 3, "velocity": 63}, {"time": 601, "pitch": 84, "duration": 3, "velocity": 57}, {"time": 604, "pitch": 81, "duration": 3, "velocity": 82}, {"time": 607, "pitch": 84, "duration": 3, "velocity": 80}, {"time": 610, "pitch": 86, "duration": 18, "velocity": 73}, {"time": 628, "pitch": 84, "duration": 3, "velocity": 73}, {"time": 631, "pitch": 86, "duration": 3, "velocity": 69}, {"time": 634, "pitch": 89, "duration": 9, "velocity": 78}, {"time": 643, "pitch": 88, "duration": 3, "velocity": 66}, {"time": 646, "pitch": 86, "duration": 6, "velocity": 66}, {"time": 652, "pitch": 84, "duration": 6, "velocity": 72}, {"time": 658, "pitch": 89, "duration": 3, "velocity": 66}, {"time": 661, "pitch": 89, "duration": 6, "velocity": 69}, {"time": 667, "pitch": 88, "duration": 3, "velocity": 78}, {"time": 670, "pitch": 86, "duration": 6, "velocity": 60}, {"time": 676, "pitch": 84, "duration": 6, "velocity": 72}, {"time": 682, "pitch": 81, "duration": 3, "velocity": 80}, {"time": 685, "pitch": 81, "duration": 6, "velocity": 76}, {"time": 691, "pitch": 91, "duration": 3, "velocity": 67}, {"time": 694, "pitch": 89, "duration": 3, "velocity": 76}, {"time": 697, "pitch": 88, "duration": 3, "velocity": 58}, {"time": 700, "pitch": 86, "duration": 6, "velocity": 72}, {"time": 706, "pitch": 84, "duration": 23, "velocity": 66}, {"time": 730, "pitch": 79, "duration": 10, "velocity": 56}, {"time": 739, "pitch": 81, "duration": 4, "velocity": 58}, {"time": 742, "pitch": 84, "duration": 8, "velocity": 80}, {"time": 751, "pitch": 76, "duration": 3, "velocity": 64}, {"time": 754, "pitch": 74, "duration": 6, "velocity": 73}, {"time": 760, "pitch": 72, "duration": 3, "velocity": 61}, {"time": 763, "pitch": 74, "duration": 4, "velocity": 59}, {"time": 766, "pitch": 77, "duration": 6, "velocity": 67}, {"time": 772, "pitch": 77, "duration": 6, "velocity": 75}, {"time": 778, "pitch": 74, "duration": 6, "velocity": 72}, {"time": 784, "pitch": 72, "duration": 3, "velocity": 67}, {"time": 787, "pitch": 74, "duration": 3, "velocity": 52}, {"time": 790, "pitch": 79, "duration": 3, "velocity": 69}, {"time": 793, "pitch": 76, "duration": 3, "velocity": 69}, {"time": 796, "pitch": 74, "duration": 3, "velocity": 31}, {"time": 799, "pitch": 76, "duration": 6, "velocity": 56}, {"time": 805, "pitch": 77, "duration": 6, "velocity": 61}, {"time": 811, "pitch": 72, "duration": 15, "velocity": 61}, {"time": 1018, "pitch": 81, "duration": 3, "velocity": 78}, {"time": 1021, "pitch": 84, "duration": 3, "velocity": 72}, {"time": 1024, "pitch": 79, "duration": 3, "velocity": 73}, {"time": 1027, "pitch": 81, "duration": 3, "velocity": 69}, {"time": 1030, "pitch": 77, "duration": 3, "velocity": 91}, {"time": 1033, "pitch": 76, "duration": 3, "velocity": 88}, {"time": 1036, "pitch": 74, "duration": 3, "velocity": 69}, {"time": 1039, "pitch": 72, "duration": 3, "velocity": 60}, {"time": 1042, "pitch": 74, "duration": 3, "velocity": 54}, {"time": 1045, "pitch": 77, "duration": 21, "velocity": 72}, {"time": 1066, "pitch": 86, "duration": 3, "velocity": 99}, {"time": 1069, "pitch": 86, "duration": 3, "velocity": 76}, {"time": 1072, "pitch": 86, "duration": 3, "velocity": 80}, {"time": 1075, "pitch": 89, "duration": 3, "velocity": 64}, {"time": 1078, "pitch": 86, "duration": 3, "velocity": 64}, {"time": 1081, "pitch": 84, "duration": 3, "velocity": 64}, {"time": 1084, "pitch": 84, "duration": 3, "velocity": 64}, {"time": 1087, "pitch": 81, "duration": 3, "velocity": 64}, {"time": 1090, "pitch": 79, "duration": 24, "velocity": 64}, {"time": 1114, "pitch": 84, "duration": 6, "velocity": 93}, {"time": 1120, "pitch": 81, "duration": 3, "velocity": 97}, {"time": 1123, "pitch": 84, "duration": 3, "velocity": 91}, {"time": 1126, "pitch": 86, "duration": 3, "velocity": 95}, {"time": 1129, "pitch": 84, "duration": 3, "velocity": 82}, {"time": 1132, "pitch": 84, "duration": 3, "velocity": 95}, {"time": 1135, "pitch": 81, "duration": 3, "velocity": 95}, {"time": 1138, "pitch": 79, "duration": 9, "velocity": 95}, {"time": 1147, "pitch": 81, "duration": 3, "velocity": 99}, {"time": 1150, "pitch": 84, "duration": 6, "velocity": 70}, {"time": 1156, "pitch": 84, "duration": 3, "velocity": 78}, {"time": 1159, "pitch": 76, "duration": 3, "velocity": 80}, {"time": 1162, "pitch": 74, "duration": 3, "velocity": 69}, {"time": 1165, "pitch": 76, "duration": 3, "velocity": 47}, {"time": 1166, "pitch": 74, "duration": 3, "velocity": 61}, {"time": 1168, "pitch": 72, "duration": 3, "velocity": 78}, {"time": 1171, "pitch": 74, "duration": 3, "velocity": 67}, {"time": 1174, "pitch": 79, "duration": 3, "velocity": 75}, {"time": 1177, "pitch": 76, "duration": 3, "velocity": 82}, {"time": 1180, "pitch": 74, "duration": 3, "velocity": 75}, {"time": 1183, "pitch": 76, "duration": 3, "velocity": 95}, {"time": 1186, "pitch": 77, "duration": 3, "velocity": 67}, {"time": 1189, "pitch": 72, "duration": 21, "velocity": 67}, {"time": 1210, "pitch": 77, "duration": 3, "velocity": 106}, {"time": 1213, "pitch": 77, "duration": 3, "velocity": 99}, {"time": 1219, "pitch": 77, "duration": 3, "velocity": 95}, {"time": 1222, "pitch": 77, "duration": 2, "velocity": 91}, {"time": 1225, "pitch": 79, "duration": 3, "velocity": 95}, {"time": 1228, "pitch": 79, "duration": 2, "velocity": 91}, {"time": 1231, "pitch": 76, "duration": 3, "velocity": 95}, {"time": 1234, "pitch": 74, "duration": 3, "velocity": 95}, {"time": 1237, "pitch": 76, "duration": 3, "velocity": 88}, {"time": 1240, "pitch": 72, "duration": 6, "velocity": 73}, {"time": 1246, "pitch": 74, "duration": 9, "velocity": 78}, {"time": 1255, "pitch": 74, "duration": 3, "velocity": 103}, {"time": 1258, "pitch": 81, "duration": 3, "velocity": 95}, {"time": 1261, "pitch": 81, "duration": 3, "velocity": 95}, {"time": 1264, "pitch": 81, "duration": 3, "velocity": 95}, {"time": 1267, "pitch": 84, "duration": 3, "velocity": 86}, {"time": 1270, "pitch": 79, "duration": 3, "velocity": 99}, {"time": 1273, "pitch": 81, "duration": 3, "velocity": 66}, {"time": 1276, "pitch": 79, "duration": 3, "velocity": 66}, {"time": 1279, "pitch": 76, "duration": 3, "velocity": 69}, {"time": 1282, "pitch": 74, "duration": 3, "velocity": 82}, {"time": 1285, "pitch": 76, "duration": 3, "velocity": 66}, {"time": 1287, "pitch": 74, "duration": 3, "velocity": 91}, {"time": 1288, "pitch": 72, "duration": 6, "velocity": 91}, {"time": 1294, "pitch": 74, "duration": 12, "velocity": 91}, {"time": 1306, "pitch": 77, "duration": 3, "velocity": 62}, {"time": 1311, "pitch": 77, "duration": 2, "velocity": 62}, {"time": 1312, "pitch": 77, "duration": 1, "velocity": 63}, {"time": 1312, "pitch": 77, "duration": 1, "velocity": 66}, {"time": 1315, "pitch": 74, "duration": 3, "velocity": 70}, {"time": 1318, "pitch": 77, "duration": 3, "velocity": 69}, {"time": 1321, "pitch": 77, "duration": 6, "velocity": 72}, {"time": 1327, "pitch": 79, "duration": 3, "velocity": 66}, {"time": 1330, "pitch": 81, "duration": 6, "velocity": 73}, {"time": 1336, "pitch": 84, "duration": 3, "velocity": 60}, {"time": 1337, "pitch": 81, "duration": 3, "velocity": 58}, {"time": 1339, "pitch": 79, "duration": 3, "velocity": 61}, {"time": 1342, "pitch": 81, "duration": 6, "velocity": 72}, {"time": 1348, "pitch": 79, "duration": 3, "velocity": 62}, {"time": 1351, "pitch": 81, "duration": 3, "velocity": 59}, {"time": 1354, "pitch": 84, "duration": 3, "velocity": 60}, {"time": 1357, "pitch": 84, "duration": 3, "velocity": 67}, {"time": 1360, "pitch": 84, "duration": 3, "velocity": 73}, {"time": 1363, "pitch": 84, "duration": 3, "velocity": 70}, {"time": 1366, "pitch": 86, "duration": 3, "velocity": 63}, {"time": 1369, "pitch": 84, "duration": 3, "velocity": 57}, {"time": 1372, "pitch": 81, "duration": 3, "velocity": 82}, {"time": 1375, "pitch": 84, "duration": 3, "velocity": 80}, {"time": 1378, "pitch": 86, "duration": 18, "velocity": 73}, {"time": 1396, "pitch": 84, "duration": 3, "velocity": 73}, {"time": 1399, "pitch": 86, "duration": 3, "velocity": 69}, {"time": 1402, "pitch": 89, "duration": 9, "velocity": 78}, {"time": 1411, "pitch": 88, "duration": 3, "velocity": 66}, {"time": 1414, "pitch": 86, "duration": 6, "velocity": 66}, {"time": 1420, "pitch": 84, "duration": 6, "velocity": 72}, {"time": 1426, "pitch": 89, "duration": 3, "velocity": 66}, {"time": 1429, "pitch": 89, "duration": 6, "velocity": 69}, {"time": 1435, "pitch": 88, "duration": 3, "velocity": 78}, {"time": 1438, "pitch": 86, "duration": 6, "velocity": 60}, {"time": 1444, "pitch": 84, "duration": 6, "velocity": 72}, {"time": 1450, "pitch": 81, "duration": 3, "velocity": 80}, {"time": 1453, "pitch": 81, "duration": 6, "velocity": 76}, {"time": 1459, "pitch": 91, "duration": 3, "velocity": 67}, {"time": 1462, "pitch": 89, "duration": 3, "velocity": 76}, {"time": 1465, "pitch": 88, "duration": 3, "velocity": 58}, {"time": 1468, "pitch": 86, "duration": 6, "velocity": 72}, {"time": 1474, "pitch": 84, "duration": 23, "velocity": 66}, {"time": 1498, "pitch": 79, "duration": 3, "velocity": 56}, {"time": 1501, "pitch": 79, "duration": 3, "velocity": 56}, {"time": 1507, "pitch": 81, "duration": 4, "velocity": 58}, {"time": 1510, "pitch": 84, "duration": 6, "velocity": 80}, {"time": 1516, "pitch": 84, "duration": 6, "velocity": 80}, {"time": 1519, "pitch": 76, "duration": 3, "velocity": 64}, {"time": 1522, "pitch": 74, "duration": 6, "velocity": 73}, {"time": 1528, "pitch": 72, "duration": 3, "velocity": 61}, {"time": 1531, "pitch": 74, "duration": 4, "velocity": 59}, {"time": 1534, "pitch": 77, "duration": 6, "velocity": 67}, {"time": 1540, "pitch": 77, "duration": 6, "velocity": 75}, {"time": 1546, "pitch": 74, "duration": 6, "velocity": 72}, {"time": 1552, "pitch": 72, "duration": 3, "velocity": 67}, {"time": 1555, "pitch": 74, "duration": 3, "velocity": 52}, {"time": 1558, "pitch": 79, "duration": 3, "velocity": 69}, {"time": 1561, "pitch": 76, "duration": 3, "velocity": 69}, {"time": 1564, "pitch": 74, "duration": 3, "velocity": 31}, {"time": 1567, "pitch": 76, "duration": 6, "velocity": 56}, {"time": 1570, "pitch": 77, "duration": 6, "velocity": 61}, {"time": 1573, "pitch": 72, "duration": 15, "velocity": 61}, {"time": 1588, "pitch": 79, "duration": 4, "velocity": 72}, {"time": 1591, "pitch": 81, "duration": 3, "velocity": 66}, {"time": 1594, "pitch": 84, "duration": 7, "velocity": 72}, {"time": 1603, "pitch": 86, "duration": 2, "velocity": 69}, {"time": 1605, "pitch": 84, "duration": 2, "velocity": 49}, {"time": 1606, "pitch": 81, "duration": 3, "velocity": 58}, {"time": 1609, "pitch": 79, "duration": 4, "velocity": 67}, {"time": 1612, "pitch": 81, "duration": 2, "velocity": 64}, {"time": 1615, "pitch": 84, "duration": 3, "velocity": 66}, {"time": 1618, "pitch": 86, "duration": 9, "velocity": 95}, {"time": 1627, "pitch": 84, "duration": 2, "velocity": 60}, {"time": 1630, "pitch": 86, "duration": 5, "velocity": 75}, {"time": 1636, "pitch": 89, "duration": 7, "velocity": 88}, {"time": 1642, "pitch": 91, "duration": 27, "velocity": 72}, {"time": 1678, "pitch": 88, "duration": 5, "velocity": 55}, {"time": 1690, "pitch": 86, "duration": 5, "velocity": 55}, {"time": 1696, "pitch": 86, "duration": 5, "velocity": 55}, {"time": 1708, "pitch": 84, "duration": 5, "velocity": 55}, {"time": 1714, "pitch": 86, "duration": 5, "velocity": 55}, {"time": 1723, "pitch": 91, "duration": 5, "velocity": 55}, {"time": 1729, "pitch": 88, "duration": 5, "velocity": 55}, {"time": 1738, "pitch": 86, "duration": 5, "velocity": 55}, {"time": 1750, "pitch": 89, "duration": 4, "velocity": 55}, {"time": 1768, "pitch": 89, "duration": 14, "velocity": 55}, {"time": 1782, "pitch": 84, "duration": 31, "velocity": 55}]}, {"program": 0, "is_drum": false, "name": "PIANO", "notes": [{"time": 35, "pitch": 36, "duration": 1, "velocity": 47}, {"time": 37, "pitch": 48, "duration": 1, "velocity": 32}, {"time": 39, "pitch": 48, "duration": 1, "velocity": 47}, {"time": 40, "pitch": 36, "duration": 1, "velocity": 75}, {"time": 40, "pitch": 48, "duration": 1, "velocity": 54}, {"time": 41, "pitch": 36, "duration": 1, "velocity": 79}, {"time": 42, "pitch": 48, "duration": 1, "velocity": 63}, {"time": 43, "pitch": 36, "duration": 1, "velocity": 75}, {"time": 43, "pitch": 48, "duration": 1, "velocity": 74}, {"time": 44, "pitch": 36, "duration": 1, "velocity": 81}, {"time": 45, "pitch": 48, "duration": 1, "velocity": 74}, {"time": 45, "pitch": 36, "duration": 1, "velocity": 85}, {"time": 46, "pitch": 48, "duration": 1, "velocity": 79}, {"time": 47, "pitch": 36, "duration": 1, "velocity": 77}, {"time": 47, "pitch": 48, "duration": 1, "velocity": 83}, {"time": 48, "pitch": 36, "duration": 1, "velocity": 69}, {"time": 49, "pitch": 48, "duration": 1, "velocity": 72}, {"time": 49, "pitch": 36, "duration": 1, "velocity": 83}, {"time": 50, "pitch": 48, "duration": 1, "velocity": 80}, {"time": 51, "pitch": 36, "duration": 1, "velocity": 65}, {"time": 51, "pitch": 48, "duration": 1, "velocity": 80}, {"time": 52, "pitch": 36, "duration": 1, "velocity": 79}, {"time": 53, "pitch": 48, "duration": 1, "velocity": 87}, {"time": 53, "pitch": 36, "duration": 1, "velocity": 77}, {"time": 54, "pitch": 48, "duration": 1, "velocity": 87}, {"time": 55, "pitch": 36, "duration": 1, "velocity": 65}, {"time": 55, "pitch": 48, "duration": 1, "velocity": 95}, {"time": 56, "pitch": 36, "duration": 2, "velocity": 77}, {"time": 57, "pitch": 48, "duration": 1, "velocity": 75}, {"time": 58, "pitch": 41, "duration": 14, "velocity": 63}, {"time": 58, "pitch": 53, "duration": 5, "velocity": 61}, {"time": 58, "pitch": 57, "duration": 7, "velocity": 59}, {"time": 58, "pitch": 60, "duration": 8, "velocity": 65}, {"time": 58, "pitch": 65, "duration": 8, "velocity": 66}, {"time": 67, "pitch": 53, "duration": 3, "velocity": 36}, {"time": 70, "pitch": 57, "duration": 7, "velocity": 83}, {"time": 70, "pitch": 60, "duration": 5, "velocity": 74}, {"time": 70, "pitch": 65, "duration": 7, "velocity": 76}, {"time": 73, "pitch": 53, "duration": 3, "velocity": 44}, {"time": 76, "pitch": 41, "duration": 2, "velocity": 50}, {"time": 82, "pitch": 41, "duration": 15, "velocity": 62}, {"time": 82, "pitch": 53, "duration": 6, "velocity": 52}, {"time": 82, "pitch": 57, "duration": 7, "velocity": 59}, {"time": 82, "pitch": 60, "duration": 8, "velocity": 68}, {"time": 82, "pitch": 65, "duration": 8, "velocity": 58}, {"time": 91, "pitch": 53, "duration": 4, "velocity": 63}, {"time": 94, "pitch": 57, "duration": 6, "velocity": 87}, {"time": 94, "pitch": 60, "duration": 6, "velocity": 84}, {"time": 94, "pitch": 65, "duration": 7, "velocity": 86}, {"time": 97, "pitch": 53, "duration": 3, "velocity": 56}, {"time": 100, "pitch": 41, "duration": 1, "velocity": 61}, {"time": 106, "pitch": 40, "duration": 8, "velocity": 59}, {"time": 106, "pitch": 52, "duration": 6, "velocity": 56}, {"time": 106, "pitch": 57, "duration": 8, "velocity": 67}, {"time": 106, "pitch": 60, "duration": 7, "velocity": 67}, {"time": 106, "pitch": 64, "duration": 7, "velocity": 67}, {"time": 115, "pitch": 52, "duration": 1, "velocity": 50}, {"time": 118, "pitch": 50, "duration": 7, "velocity": 57}, {"time": 118, "pitch": 53, "duration": 8, "velocity": 68}, {"time": 118, "pitch": 57, "duration": 8, "velocity": 71}, {"time": 118, "pitch": 62, "duration": 7, "velocity": 77}, {"time": 124, "pitch": 43, "duration": 7, "velocity": 85}, {"time": 130, "pitch": 36, "duration": 14, "velocity": 71}, {"time": 130, "pitch": 48, "duration": 6, "velocity": 67}, {"time": 130, "pitch": 52, "duration": 6, "velocity": 72}, {"time": 130, "pitch": 55, "duration": 8, "velocity": 71}, {"time": 130, "pitch": 60, "duration": 8, "velocity": 74}, {"time": 139, "pitch": 48, "duration": 3, "velocity": 40}, {"time": 142, "pitch": 52, "duration": 3, "velocity": 81}, {"time": 142, "pitch": 55, "duration": 6, "velocity": 81}, {"time": 142, "pitch": 60, "duration": 6, "velocity": 81}, {"time": 145, "pitch": 48, "duration": 4, "velocity": 58}, {"time": 148, "pitch": 36, "duration": 1, "velocity": 80}, {"time": 154, "pitch": 36, "duration": 21, "velocity": 47}, {"time": 154, "pitch": 48, "duration": 5, "velocity": 41}, {"time": 154, "pitch": 55, "duration": 8, "velocity": 56}, {"time": 154, "pitch": 60, "duration": 8, "velocity": 55}, {"time": 154, "pitch": 64, "duration": 8, "velocity": 55}, {"time": 154, "pitch": 67, "duration": 8, "velocity": 60}, {"time": 163, "pitch": 48, "duration": 1, "velocity": 49}, {"time": 166, "pitch": 52, "duration": 3, "velocity": 62}, {"time": 166, "pitch": 55, "duration": 4, "velocity": 63}, {"time": 166, "pitch": 60, "duration": 5, "velocity": 62}, {"time": 166, "pitch": 64, "duration": 5, "velocity": 59}, {"time": 166, "pitch": 67, "duration": 5, "velocity": 70}, {"time": 172, "pitch": 48, "duration": 1, "velocity": 52}, {"time": 172, "pitch": 55, "duration": 3, "velocity": 58}, {"time": 172, "pitch": 60, "duration": 4, "velocity": 53}, {"time": 172, "pitch": 64, "duration": 4, "velocity": 44}, {"time": 172, "pitch": 67, "duration": 3, "velocity": 55}, {"time": 178, "pitch": 38, "duration": 12, "velocity": 67}, {"time": 178, "pitch": 50, "duration": 7, "velocity": 62}, {"time": 178, "pitch": 57, "duration": 8, "velocity": 51}, {"time": 178, "pitch": 62, "duration": 8, "velocity": 50}, {"time": 178, "pitch": 65, "duration": 8, "velocity": 66}, {"time": 187, "pitch": 50, "duration": 3, "velocity": 45}, {"time": 190, "pitch": 38, "duration": 1, "velocity": 61}, {"time": 190, "pitch": 50, "duration": 2, "velocity": 51}, {"time": 190, "pitch": 57, "duration": 4, "velocity": 61}, {"time": 190, "pitch": 62, "duration": 4, "velocity": 63}, {"time": 190, "pitch": 62, "duration": 4, "velocity": 67}, {"time": 190, "pitch": 65, "duration": 4, "velocity": 66}, {"time": 190, "pitch": 65, "duration": 4, "velocity": 68}, {"time": 193, "pitch": 50, "duration": 4, "velocity": 59}, {"time": 196, "pitch": 50, "duration": 1, "velocity": 67}, {"time": 196, "pitch": 57, "duration": 1, "velocity": 77}, {"time": 196, "pitch": 62, "duration": 2, "velocity": 75}, {"time": 196, "pitch": 65, "duration": 1, "velocity": 76}, {"time": 202, "pitch": 43, "duration": 6, "velocity": 69}, {"time": 202, "pitch": 55, "duration": 8, "velocity": 53}, {"time": 202, "pitch": 59, "duration": 8, "velocity": 62}, {"time": 202, "pitch": 62, "duration": 8, "velocity": 59}, {"time": 211, "pitch": 43, "duration": 4, "velocity": 50}, {"time": 214, "pitch": 55, "duration": 4, "velocity": 79}, {"time": 214, "pitch": 59, "duration": 6, "velocity": 79}, {"time": 214, "pitch": 62, "duration": 5, "velocity": 79}, {"time": 217, "pitch": 43, "duration": 4, "velocity": 53}, {"time": 220, "pitch": 55, "duration": 2, "velocity": 53}, {"time": 226, "pitch": 36, "duration": 14, "velocity": 42}, {"time": 226, "pitch": 48, "duration": 7, "velocity": 38}, {"time": 226, "pitch": 55, "duration": 8, "velocity": 40}, {"time": 226, "pitch": 60, "duration": 8, "velocity": 47}, {"time": 226, "pitch": 64, "duration": 9, "velocity": 46}, {"time": 235, "pitch": 48, "duration": 3, "velocity": 41}, {"time": 238, "pitch": 55, "duration": 6, "velocity": 67}, {"time": 238, "pitch": 60, "duration": 6, "velocity": 74}, {"time": 238, "pitch": 64, "duration": 7, "velocity": 72}, {"time": 241, "pitch": 48, "duration": 4, "velocity": 53}, {"time": 244, "pitch": 36, "duration": 1, "velocity": 62}, {"time": 250, "pitch": 41, "duration": 17, "velocity": 38}, {"time": 250, "pitch": 48, "duration": 13, "velocity": 43}, {"time": 250, "pitch": 53, "duration": 5, "velocity": 34}, {"time": 250, "pitch": 57, "duration": 7, "velocity": 51}, {"time": 250, "pitch": 60, "duration": 8, "velocity": 52}, {"time": 250, "pitch": 65, "duration": 8, "velocity": 51}, {"time": 256, "pitch": 53, "duration": 3, "velocity": 35}, {"time": 262, "pitch": 57, "duration": 7, "velocity": 65}, {"time": 262, "pitch": 60, "duration": 4, "velocity": 68}, {"time": 262, "pitch": 65, "duration": 7, "velocity": 66}, {"time": 262, "pitch": 53, "duration": 4, "velocity": 38}, {"time": 265, "pitch": 48, "duration": 1, "velocity": 46}, {"time": 274, "pitch": 41, "duration": 15, "velocity": 38}, {"time": 274, "pitch": 53, "duration": 6, "velocity": 31}, {"time": 274, "pitch": 57, "duration": 8, "velocity": 43}, {"time": 274, "pitch": 60, "duration": 8, "velocity": 50}, {"time": 274, "pitch": 65, "duration": 8, "velocity": 43}, {"time": 283, "pitch": 53, "duration": 3, "velocity": 35}, {"time": 286, "pitch": 57, "duration": 7, "velocity": 77}, {"time": 286, "pitch": 60, "duration": 7, "velocity": 72}, {"time": 286, "pitch": 65, "duration": 7, "velocity": 73}, {"time": 289, "pitch": 53, "duration": 3, "velocity": 43}, {"time": 292, "pitch": 41, "duration": 1, "velocity": 57}, {"time": 298, "pitch": 38, "duration": 14, "velocity": 50}, {"time": 298, "pitch": 50, "duration": 6, "velocity": 44}, {"time": 298, "pitch": 57, "duration": 7, "velocity": 47}, {"time": 298, "pitch": 62, "duration": 8, "velocity": 53}, {"time": 298, "pitch": 65, "duration": 8, "velocity": 47}, {"time": 307, "pitch": 50, "duration": 3, "velocity": 48}, {"time": 310, "pitch": 57, "duration": 6, "velocity": 72}, {"time": 310, "pitch": 62, "duration": 7, "velocity": 69}, {"time": 310, "pitch": 65, "duration": 7, "velocity": 71}, {"time": 313, "pitch": 50, "duration": 4, "velocity": 41}, {"time": 316, "pitch": 38, "duration": 1, "velocity": 55}, {"time": 322, "pitch": 43, "duration": 6, "velocity": 50}, {"time": 322, "pitch": 55, "duration": 9, "velocity": 64}, {"time": 322, "pitch": 58, "duration": 9, "velocity": 59}, {"time": 322, "pitch": 62, "duration": 9, "velocity": 64}, {"time": 322, "pitch": 67, "duration": 9, "velocity": 58}, {"time": 331, "pitch": 50, "duration": 3, "velocity": 39}, {"time": 334, "pitch": 55, "duration": 9, "velocity": 81}, {"time": 334, "pitch": 58, "duration": 9, "velocity": 67}, {"time": 334, "pitch": 62, "duration": 9, "velocity": 65}, {"time": 334, "pitch": 67, "duration": 9, "velocity": 68}, {"time": 337, "pitch": 50, "duration": 4, "velocity": 59}, {"time": 340, "pitch": 43, "duration": 1, "velocity": 74}, {"time": 346, "pitch": 45, "duration": 15, "velocity": 44}, {"time": 346, "pitch": 57, "duration": 6, "velocity": 38}, {"time": 346, "pitch": 60, "duration": 7, "velocity": 48}, {"time": 346, "pitch": 64, "duration": 9, "velocity": 50}, {"time": 346, "pitch": 69, "duration": 8, "velocity": 53}, {"time": 355, "pitch": 57, "duration": 4, "velocity": 47}, {"time": 358, "pitch": 60, "duration": 7, "velocity": 81}, {"time": 358, "pitch": 64, "duration": 7, "velocity": 79}, {"time": 358, "pitch": 69, "duration": 7, "velocity": 82}, {"time": 361, "pitch": 57, "duration": 4, "velocity": 63}, {"time": 364, "pitch": 45, "duration": 2, "velocity": 51}, {"time": 370, "pitch": 48, "duration": 13, "velocity": 53}, {"time": 370, "pitch": 60, "duration": 8, "velocity": 51}, {"time": 370, "pitch": 64, "duration": 8, "velocity": 45}, {"time": 370, "pitch": 67, "duration": 8, "velocity": 51}, {"time": 370, "pitch": 72, "duration": 7, "velocity": 62}, {"time": 379, "pitch": 55, "duration": 9, "velocity": 36}, {"time": 382, "pitch": 60, "duration": 7, "velocity": 76}, {"time": 382, "pitch": 64, "duration": 7, "velocity": 63}, {"time": 382, "pitch": 67, "duration": 7, "velocity": 68}, {"time": 382, "pitch": 72, "duration": 7, "velocity": 79}, {"time": 385, "pitch": 48, "duration": 3, "velocity": 39}, {"time": 394, "pitch": 43, "duration": 14, "velocity": 41}, {"time": 394, "pitch": 50, "duration": 19, "velocity": 43}, {"time": 394, "pitch": 55, "duration": 5, "velocity": 44}, {"time": 394, "pitch": 59, "duration": 8, "velocity": 56}, {"time": 394, "pitch": 62, "duration": 8, "velocity": 47}, {"time": 394, "pitch": 67, "duration": 8, "velocity": 51}, {"time": 403, "pitch": 55, "duration": 3, "velocity": 39}, {"time": 406, "pitch": 59, "duration": 7, "velocity": 72}, {"time": 406, "pitch": 62, "duration": 7, "velocity": 65}, {"time": 406, "pitch": 67, "duration": 7, "velocity": 67}, {"time": 409, "pitch": 55, "duration": 4, "velocity": 53}, {"time": 412, "pitch": 43, "duration": 2, "velocity": 56}, {"time": 418, "pitch": 48, "duration": 15, "velocity": 50}, {"time": 418, "pitch": 55, "duration": 6, "velocity": 39}, {"time": 418, "pitch": 60, "duration": 8, "velocity": 44}, {"time": 418, "pitch": 64, "duration": 9, "velocity": 46}, {"time": 418, "pitch": 67, "duration": 8, "velocity": 53}, {"time": 427, "pitch": 55, "duration": 3, "velocity": 36}, {"time": 430, "pitch": 60, "duration": 7, "velocity": 74}, {"time": 430, "pitch": 64, "duration": 8, "velocity": 67}, {"time": 430, "pitch": 67, "duration": 7, "velocity": 74}, {"time": 433, "pitch": 55, "duration": 4, "velocity": 45}, {"time": 436, "pitch": 48, "duration": 1, "velocity": 62}, {"time": 442, "pitch": 41, "duration": 13, "velocity": 50}, {"time": 442, "pitch": 53, "duration": 5, "velocity": 45}, {"time": 442, "pitch": 57, "duration": 9, "velocity": 51}, {"time": 442, "pitch": 60, "duration": 9, "velocity": 59}, {"time": 442, "pitch": 65, "duration": 9, "velocity": 60}, {"time": 451, "pitch": 53, "duration": 3, "velocity": 40}, {"time": 454, "pitch": 57, "duration": 6, "velocity": 83}, {"time": 454, "pitch": 60, "duration": 7, "velocity": 76}, {"time": 454, "pitch": 65, "duration": 7, "velocity": 80}, {"time": 457, "pitch": 53, "duration": 3, "velocity": 69}, {"time": 460, "pitch": 41, "duration": 1, "velocity": 67}, {"time": 466, "pitch": 38, "duration": 14, "velocity": 45}, {"time": 466, "pitch": 50, "duration": 6, "velocity": 40}, {"time": 466, "pitch": 57, "duration": 7, "velocity": 49}, {"time": 466, "pitch": 62, "duration": 8, "velocity": 53}, {"time": 466, "pitch": 65, "duration": 8, "velocity": 49}, {"time": 475, "pitch": 50, "duration": 3, "velocity": 44}, {"time": 478, "pitch": 57, "duration": 7, "velocity": 83}, {"time": 478, "pitch": 62, "duration": 7, "velocity": 87}, {"time": 478, "pitch": 65, "duration": 7, "velocity": 83}, {"time": 481, "pitch": 50, "duration": 3, "velocity": 50}, {"time": 484, "pitch": 38, "duration": 1, "velocity": 68}, {"time": 490, "pitch": 36, "duration": 14, "velocity": 59}, {"time": 490, "pitch": 48, "duration": 6, "velocity": 53}, {"time": 490, "pitch": 55, "duration": 8, "velocity": 71}, {"time": 490, "pitch": 60, "duration": 8, "velocity": 61}, {"time": 490, "pitch": 64, "duration": 8, "velocity": 64}, {"time": 499, "pitch": 48, "duration": 4, "velocity": 36}, {"time": 502, "pitch": 55, "duration": 6, "velocity": 75}, {"time": 502, "pitch": 60, "duration": 7, "velocity": 72}, {"time": 502, "pitch": 64, "duration": 7, "velocity": 71}, {"time": 505, "pitch": 48, "duration": 4, "velocity": 47}, {"time": 508, "pitch": 36, "duration": 1, "velocity": 47}, {"time": 511, "pitch": 60, "duration": 2, "velocity": 51}, {"time": 514, "pitch": 38, "duration": 14, "velocity": 56}, {"time": 514, "pitch": 50, "duration": 6, "velocity": 50}, {"time": 514, "pitch": 57, "duration": 8, "velocity": 51}, {"time": 514, "pitch": 62, "duration": 8, "velocity": 58}, {"time": 514, "pitch": 65, "duration": 8, "velocity": 66}, {"time": 523, "pitch": 50, "duration": 3, "velocity": 51}, {"time": 526, "pitch": 57, "duration": 6, "velocity": 85}, {"time": 526, "pitch": 62, "duration": 6, "velocity": 80}, {"time": 526, "pitch": 65, "duration": 7, "velocity": 74}, {"time": 529, "pitch": 50, "duration": 4, "velocity": 68}, {"time": 532, "pitch": 38, "duration": 1, "velocity": 69}, {"time": 538, "pitch": 34, "duration": 13, "velocity": 69}, {"time": 538, "pitch": 46, "duration": 6, "velocity": 72}, {"time": 538, "pitch": 53, "duration": 8, "velocity": 62}, {"time": 538, "pitch": 58, "duration": 8, "velocity": 71}, {"time": 538, "pitch": 62, "duration": 8, "velocity": 72}, {"time": 538, "pitch": 65, "duration": 8, "velocity": 76}, {"time": 547, "pitch": 46, "duration": 3, "velocity": 36}, {"time": 550, "pitch": 53, "duration": 7, "velocity": 77}, {"time": 550, "pitch": 58, "duration": 8, "velocity": 81}, {"time": 550, "pitch": 62, "duration": 8, "velocity": 72}, {"time": 550, "pitch": 65, "duration": 8, "velocity": 83}, {"time": 553, "pitch": 46, "duration": 3, "velocity": 47}, {"time": 556, "pitch": 34, "duration": 1, "velocity": 62}, {"time": 562, "pitch": 36, "duration": 15, "velocity": 51}, {"time": 562, "pitch": 48, "duration": 6, "velocity": 45}, {"time": 562, "pitch": 57, "duration": 8, "velocity": 63}, {"time": 562, "pitch": 60, "duration": 9, "velocity": 65}, {"time": 562, "pitch": 65, "duration": 9, "velocity": 68}, {"time": 571, "pitch": 48, "duration": 3, "velocity": 38}, {"time": 574, "pitch": 57, "duration": 7, "velocity": 81}, {"time": 574, "pitch": 60, "duration": 7, "velocity": 79}, {"time": 574, "pitch": 65, "duration": 7, "velocity": 80}, {"time": 577, "pitch": 48, "duration": 4, "velocity": 45}, {"time": 580, "pitch": 36, "duration": 1, "velocity": 63}, {"time": 586, "pitch": 33, "duration": 15, "velocity": 58}, {"time": 586, "pitch": 45, "duration": 5, "velocity": 58}, {"time": 586, "pitch": 57, "duration": 8, "velocity": 62}, {"time": 586, "pitch": 60, "duration": 8, "velocity": 62}, {"time": 586, "pitch": 64, "duration": 8, "velocity": 63}, {"time": 595, "pitch": 45, "duration": 3, "velocity": 51}, {"time": 598, "pitch": 57, "duration": 7, "velocity": 83}, {"time": 598, "pitch": 60, "duration": 8, "velocity": 80}, {"time": 598, "pitch": 64, "duration": 8, "velocity": 79}, {"time": 601, "pitch": 45, "duration": 4, "velocity": 68}, {"time": 604, "pitch": 33, "duration": 3, "velocity": 76}, {"time": 607, "pitch": 45, "duration": 1, "velocity": 75}, {"time": 610, "pitch": 34, "duration": 20, "velocity": 69}, {"time": 610, "pitch": 46, "duration": 6, "velocity": 72}, {"time": 610, "pitch": 58, "duration": 7, "velocity": 77}, {"time": 610, "pitch": 62, "duration": 7, "velocity": 74}, {"time": 610, "pitch": 65, "duration": 7, "velocity": 76}, {"time": 619, "pitch": 46, "duration": 4, "velocity": 62}, {"time": 622, "pitch": 58, "duration": 1, "velocity": 87}, {"time": 622, "pitch": 62, "duration": 3, "velocity": 84}, {"time": 622, "pitch": 65, "duration": 2, "velocity": 82}, {"time": 625, "pitch": 46, "duration": 2, "velocity": 56}, {"time": 628, "pitch": 58, "duration": 5, "velocity": 95}, {"time": 628, "pitch": 62, "duration": 5, "velocity": 81}, {"time": 628, "pitch": 67, "duration": 5, "velocity": 87}, {"time": 631, "pitch": 46, "duration": 1, "velocity": 68}, {"time": 634, "pitch": 41, "duration": 19, "velocity": 72}, {"time": 634, "pitch": 53, "duration": 6, "velocity": 71}, {"time": 634, "pitch": 57, "duration": 7, "velocity": 79}, {"time": 634, "pitch": 60, "duration": 7, "velocity": 79}, {"time": 634, "pitch": 65, "duration": 8, "velocity": 73}, {"time": 643, "pitch": 53, "duration": 4, "velocity": 48}, {"time": 646, "pitch": 57, "duration": 4, "velocity": 84}, {"time": 646, "pitch": 60, "duration": 4, "velocity": 84}, {"time": 646, "pitch": 67, "duration": 3, "velocity": 93}, {"time": 649, "pitch": 53, "duration": 4, "velocity": 50}, {"time": 652, "pitch": 57, "duration": 3, "velocity": 71}, {"time": 652, "pitch": 60, "duration": 3, "velocity": 62}, {"time": 652, "pitch": 69, "duration": 3, "velocity": 76}, {"time": 658, "pitch": 41, "duration": 16, "velocity": 49}, {"time": 658, "pitch": 53, "duration": 6, "velocity": 48}, {"time": 658, "pitch": 57, "duration": 8, "velocity": 61}, {"time": 658, "pitch": 60, "duration": 7, "velocity": 56}, {"time": 658, "pitch": 65, "duration": 8, "velocity": 58}, {"time": 667, "pitch": 53, "duration": 4, "velocity": 71}, {"time": 670, "pitch": 57, "duration": 4, "velocity": 90}, {"time": 670, "pitch": 60, "duration": 4, "velocity": 84}, {"time": 670, "pitch": 67, "duration": 3, "velocity": 90}, {"time": 673, "pitch": 53, "duration": 7, "velocity": 75}, {"time": 676, "pitch": 57, "duration": 3, "velocity": 84}, {"time": 676, "pitch": 60, "duration": 2, "velocity": 67}, {"time": 676, "pitch": 69, "duration": 3, "velocity": 89}, {"time": 679, "pitch": 41, "duration": 1, "velocity": 53}, {"time": 682, "pitch": 45, "duration": 11, "velocity": 35}, {"time": 682, "pitch": 57, "duration": 8, "velocity": 67}, {"time": 682, "pitch": 60, "duration": 8, "velocity": 59}, {"time": 682, "pitch": 64, "duration": 8, "velocity": 61}, {"time": 682, "pitch": 69, "duration": 8, "velocity": 64}, {"time": 691, "pitch": 52, "duration": 5, "velocity": 67}, {"time": 694, "pitch": 38, "duration": 7, "velocity": 72}, {"time": 694, "pitch": 50, "duration": 2, "velocity": 69}, {"time": 694, "pitch": 57, "duration": 4, "velocity": 80}, {"time": 694, "pitch": 62, "duration": 4, "velocity": 72}, {"time": 694, "pitch": 65, "duration": 4, "velocity": 78}, {"time": 694, "pitch": 69, "duration": 3, "velocity": 87}, {"time": 697, "pitch": 50, "duration": 4, "velocity": 68}, {"time": 700, "pitch": 43, "duration": 3, "velocity": 69}, {"time": 700, "pitch": 55, "duration": 3, "velocity": 85}, {"time": 700, "pitch": 59, "duration": 3, "velocity": 76}, {"time": 700, "pitch": 62, "duration": 4, "velocity": 47}, {"time": 700, "pitch": 67, "duration": 3, "velocity": 89}, {"time": 706, "pitch": 36, "duration": 15, "velocity": 68}, {"time": 706, "pitch": 48, "duration": 6, "velocity": 61}, {"time": 706, "pitch": 55, "duration": 7, "velocity": 81}, {"time": 706, "pitch": 60, "duration": 8, "velocity": 72}, {"time": 706, "pitch": 64, "duration": 8, "velocity": 76}, {"time": 706, "pitch": 67, "duration": 8, "velocity": 89}, {"time": 715, "pitch": 48, "duration": 4, "velocity": 44}, {"time": 718, "pitch": 55, "duration": 7, "velocity": 90}, {"time": 718, "pitch": 60, "duration": 7, "velocity": 79}, {"time": 718, "pitch": 64, "duration": 7, "velocity": 79}, {"time": 718, "pitch": 67, "duration": 7, "velocity": 87}, {"time": 721, "pitch": 48, "duration": 4, "velocity": 49}, {"time": 724, "pitch": 36, "duration": 1, "velocity": 51}, {"time": 730, "pitch": 36, "duration": 18, "velocity": 45}, {"time": 730, "pitch": 48, "duration": 5, "velocity": 43}, {"time": 730, "pitch": 55, "duration": 8, "velocity": 64}, {"time": 730, "pitch": 60, "duration": 8, "velocity": 58}, {"time": 730, "pitch": 64, "duration": 9, "velocity": 61}, {"time": 739, "pitch": 48, "duration": 4, "velocity": 47}, {"time": 742, "pitch": 55, "duration": 4, "velocity": 77}, {"time": 742, "pitch": 60, "duration": 4, "velocity": 67}, {"time": 742, "pitch": 67, "duration": 4, "velocity": 74}, {"time": 745, "pitch": 48, "duration": 4, "velocity": 68}, {"time": 748, "pitch": 55, "duration": 2, "velocity": 71}, {"time": 748, "pitch": 60, "duration": 2, "velocity": 54}, {"time": 748, "pitch": 64, "duration": 2, "velocity": 64}, {"time": 748, "pitch": 67, "duration": 2, "velocity": 67}, {"time": 754, "pitch": 38, "duration": 16, "velocity": 52}, {"time": 754, "pitch": 50, "duration": 6, "velocity": 47}, {"time": 754, "pitch": 57, "duration": 7, "velocity": 62}, {"time": 754, "pitch": 62, "duration": 8, "velocity": 63}, {"time": 754, "pitch": 65, "duration": 8, "velocity": 66}, {"time": 763, "pitch": 50, "duration": 4, "velocity": 51}, {"time": 766, "pitch": 57, "duration": 7, "velocity": 72}, {"time": 766, "pitch": 62, "duration": 8, "velocity": 77}, {"time": 766, "pitch": 65, "duration": 8, "velocity": 66}, {"time": 769, "pitch": 50, "duration": 4, "velocity": 55}, {"time": 772, "pitch": 38, "duration": 1, "velocity": 65}, {"time": 778, "pitch": 31, "duration": 14, "velocity": 51}, {"time": 778, "pitch": 43, "duration": 5, "velocity": 50}, {"time": 778, "pitch": 55, "duration": 7, "velocity": 63}, {"time": 778, "pitch": 59, "duration": 7, "velocity": 58}, {"time": 778, "pitch": 62, "duration": 7, "velocity": 59}, {"time": 778, "pitch": 67, "duration": 7, "velocity": 62}, {"time": 787, "pitch": 43, "duration": 4, "velocity": 59}, {"time": 790, "pitch": 55, "duration": 4, "velocity": 84}, {"time": 790, "pitch": 59, "duration": 4, "velocity": 76}, {"time": 790, "pitch": 62, "duration": 4, "velocity": 72}, {"time": 790, "pitch": 67, "duration": 4, "velocity": 76}, {"time": 793, "pitch": 43, "duration": 7, "velocity": 61}, {"time": 796, "pitch": 55, "duration": 3, "velocity": 84}, {"time": 796, "pitch": 59, "duration": 2, "velocity": 68}, {"time": 796, "pitch": 62, "duration": 3, "velocity": 64}, {"time": 796, "pitch": 67, "duration": 3, "velocity": 75}, {"time": 799, "pitch": 31, "duration": 1, "velocity": 80}, {"time": 802, "pitch": 36, "duration": 12, "velocity": 53}, {"time": 802, "pitch": 36, "duration": 12, "velocity": 68}, {"time": 802, "pitch": 55, "duration": 3, "velocity": 50}, {"time": 802, "pitch": 60, "duration": 3, "velocity": 53}, {"time": 805, "pitch": 48, "duration": 4, "velocity": 65}, {"time": 808, "pitch": 55, "duration": 3, "velocity": 90}, {"time": 808, "pitch": 60, "duration": 4, "velocity": 87}, {"time": 808, "pitch": 62, "duration": 4, "velocity": 85}, {"time": 811, "pitch": 48, "duration": 5, "velocity": 85}, {"time": 814, "pitch": 55, "duration": 3, "velocity": 100}, {"time": 814, "pitch": 60, "duration": 3, "velocity": 90}, {"time": 814, "pitch": 64, "duration": 4, "velocity": 91}, {"time": 817, "pitch": 36, "duration": 3, "velocity": 74}, {"time": 817, "pitch": 36, "duration": 3, "velocity": 79}, {"time": 820, "pitch": 48, "duration": 1, "velocity": 67}, {"time": 820, "pitch": 55, "duration": 3, "velocity": 72}, {"time": 820, "pitch": 60, "duration": 3, "velocity": 75}, {"time": 820, "pitch": 64, "duration": 3, "velocity": 76}, {"time": 820, "pitch": 67, "duration": 3, "velocity": 86}, {"time": 826, "pitch": 41, "duration": 19, "velocity": 72}, {"time": 826, "pitch": 53, "duration": 3, "velocity": 68}, {"time": 826, "pitch": 60, "duration": 7, "velocity": 74}, {"time": 826, "pitch": 65, "duration": 6, "velocity": 71}, {"time": 826, "pitch": 69, "duration": 7, "velocity": 73}, {"time": 826, "pitch": 72, "duration": 7, "velocity": 83}, {"time": 832, "pitch": 53, "duration": 7, "velocity": 41}, {"time": 835, "pitch": 69, "duration": 1, "velocity": 51}, {"time": 838, "pitch": 60, "duration": 6, "velocity": 77}, {"time": 838, "pitch": 65, "duration": 5, "velocity": 66}, {"time": 838, "pitch": 69, "duration": 1, "velocity": 44}, {"time": 838, "pitch": 72, "duration": 5, "velocity": 92}, {"time": 841, "pitch": 53, "duration": 4, "velocity": 58}, {"time": 841, "pitch": 69, "duration": 4, "velocity": 71}, {"time": 844, "pitch": 60, "duration": 2, "velocity": 68}, {"time": 844, "pitch": 65, "duration": 1, "velocity": 22}, {"time": 844, "pitch": 72, "duration": 2, "velocity": 61}, {"time": 850, "pitch": 41, "duration": 17, "velocity": 68}, {"time": 850, "pitch": 53, "duration": 2, "velocity": 69}, {"time": 850, "pitch": 60, "duration": 9, "velocity": 84}, {"time": 850, "pitch": 65, "duration": 9, "velocity": 71}, {"time": 850, "pitch": 69, "duration": 4, "velocity": 73}, {"time": 850, "pitch": 72, "duration": 7, "velocity": 82}, {"time": 853, "pitch": 53, "duration": 3, "velocity": 59}, {"time": 859, "pitch": 69, "duration": 2, "velocity": 78}, {"time": 862, "pitch": 53, "duration": 1, "velocity": 30}, {"time": 862, "pitch": 60, "duration": 8, "velocity": 91}, {"time": 862, "pitch": 65, "duration": 8, "velocity": 82}, {"time": 862, "pitch": 69, "duration": 3, "velocity": 63}, {"time": 862, "pitch": 72, "duration": 7, "velocity": 95}, {"time": 865, "pitch": 53, "duration": 6, "velocity": 79}, {"time": 868, "pitch": 69, "duration": 3, "velocity": 92}, {"time": 871, "pitch": 41, "duration": 1, "velocity": 63}, {"time": 874, "pitch": 33, "duration": 15, "velocity": 63}, {"time": 874, "pitch": 45, "duration": 4, "velocity": 56}, {"time": 874, "pitch": 57, "duration": 7, "velocity": 80}, {"time": 874, "pitch": 60, "duration": 8, "velocity": 71}, {"time": 874, "pitch": 64, "duration": 8, "velocity": 68}, {"time": 874, "pitch": 69, "duration": 8, "velocity": 84}, {"time": 883, "pitch": 45, "duration": 4, "velocity": 56}, {"time": 886, "pitch": 57, "duration": 4, "velocity": 88}, {"time": 886, "pitch": 60, "duration": 4, "velocity": 81}, {"time": 886, "pitch": 64, "duration": 3, "velocity": 77}, {"time": 886, "pitch": 69, "duration": 3, "velocity": 84}, {"time": 889, "pitch": 45, "duration": 1, "velocity": 50}, {"time": 892, "pitch": 43, "duration": 4, "velocity": 83}, {"time": 892, "pitch": 55, "duration": 3, "velocity": 84}, {"time": 892, "pitch": 59, "duration": 3, "velocity": 79}, {"time": 892, "pitch": 62, "duration": 4, "velocity": 72}, {"time": 892, "pitch": 67, "duration": 4, "velocity": 83}, {"time": 898, "pitch": 36, "duration": 18, "velocity": 72}, {"time": 898, "pitch": 48, "duration": 5, "velocity": 67}, {"time": 898, "pitch": 55, "duration": 6, "velocity": 90}, {"time": 898, "pitch": 60, "duration": 7, "velocity": 81}, {"time": 898, "pitch": 64, "duration": 6, "velocity": 83}, {"time": 898, "pitch": 67, "duration": 6, "velocity": 87}, {"time": 904, "pitch": 48, "duration": 3, "velocity": 63}, {"time": 907, "pitch": 55, "duration": 4, "velocity": 71}, {"time": 907, "pitch": 60, "duration": 4, "velocity": 62}, {"time": 907, "pitch": 62, "duration": 4, "velocity": 72}, {"time": 910, "pitch": 48, "duration": 4, "velocity": 72}, {"time": 913, "pitch": 55, "duration": 4, "velocity": 100}, {"time": 913, "pitch": 60, "duration": 4, "velocity": 87}, {"time": 913, "pitch": 64, "duration": 4, "velocity": 91}, {"time": 916, "pitch": 48, "duration": 1, "velocity": 80}, {"time": 922, "pitch": 36, "duration": 15, "velocity": 53}, {"time": 922, "pitch": 48, "duration": 6, "velocity": 35}, {"time": 922, "pitch": 55, "duration": 8, "velocity": 51}, {"time": 922, "pitch": 60, "duration": 8, "velocity": 53}, {"time": 922, "pitch": 64, "duration": 8, "velocity": 63}, {"time": 931, "pitch": 48, "duration": 3, "velocity": 50}, {"time": 934, "pitch": 55, "duration": 6, "velocity": 77}, {"time": 934, "pitch": 60, "duration": 7, "velocity": 71}, {"time": 934, "pitch": 64, "duration": 7, "velocity": 74}, {"time": 937, "pitch": 48, "duration": 4, "velocity": 45}, {"time": 940, "pitch": 36, "duration": 1, "velocity": 44}, {"time": 946, "pitch": 38, "duration": 20, "velocity": 42}, {"time": 946, "pitch": 50, "duration": 7, "velocity": 39}, {"time": 946, "pitch": 57, "duration": 8, "velocity": 45}, {"time": 946, "pitch": 62, "duration": 8, "velocity": 48}, {"time": 946, "pitch": 65, "duration": 8, "velocity": 47}, {"time": 955, "pitch": 50, "duration": 4, "velocity": 59}, {"time": 958, "pitch": 57, "duration": 3, "velocity": 81}, {"time": 958, "pitch": 62, "duration": 3, "velocity": 74}, {"time": 958, "pitch": 65, "duration": 4, "velocity": 92}, {"time": 961, "pitch": 50, "duration": 4, "velocity": 64}, {"time": 964, "pitch": 57, "duration": 4, "velocity": 84}, {"time": 964, "pitch": 62, "duration": 4, "velocity": 72}, {"time": 964, "pitch": 67, "duration": 4, "velocity": 80}, {"time": 967, "pitch": 50, "duration": 1, "velocity": 56}, {"time": 970, "pitch": 31, "duration": 17, "velocity": 71}, {"time": 970, "pitch": 43, "duration": 5, "velocity": 67}, {"time": 970, "pitch": 55, "duration": 7, "velocity": 75}, {"time": 970, "pitch": 59, "duration": 7, "velocity": 69}, {"time": 970, "pitch": 62, "duration": 7, "velocity": 67}, {"time": 970, "pitch": 67, "duration": 7, "velocity": 73}, {"time": 979, "pitch": 43, "duration": 3, "velocity": 63}, {"time": 982, "pitch": 55, "duration": 4, "velocity": 88}, {"time": 982, "pitch": 59, "duration": 4, "velocity": 81}, {"time": 982, "pitch": 62, "duration": 4, "velocity": 80}, {"time": 982, "pitch": 67, "duration": 4, "velocity": 82}, {"time": 985, "pitch": 43, "duration": 6, "velocity": 83}, {"time": 988, "pitch": 55, "duration": 3, "velocity": 77}, {"time": 988, "pitch": 59, "duration": 2, "velocity": 65}, {"time": 988, "pitch": 62, "duration": 3, "velocity": 64}, {"time": 988, "pitch": 67, "duration": 3, "velocity": 76}, {"time": 991, "pitch": 31, "duration": 1, "velocity": 72}, {"time": 994, "pitch": 36, "duration": 16, "velocity": 53}, {"time": 994, "pitch": 48, "duration": 6, "velocity": 56}, {"time": 994, "pitch": 55, "duration": 7, "velocity": 69}, {"time": 994, "pitch": 60, "duration": 7, "velocity": 65}, {"time": 994, "pitch": 64, "duration": 7, "velocity": 69}, {"time": 994, "pitch": 67, "duration": 7, "velocity": 63}, {"time": 1003, "pitch": 48, "duration": 5, "velocity": 65}, {"time": 1006, "pitch": 55, "duration": 7, "velocity": 91}, {"time": 1006, "pitch": 60, "duration": 7, "velocity": 83}, {"time": 1006, "pitch": 64, "duration": 7, "velocity": 80}, {"time": 1006, "pitch": 67, "duration": 7, "velocity": 83}, {"time": 1012, "pitch": 48, "duration": 1, "velocity": 59}, {"time": 1018, "pitch": 41, "duration": 17, "velocity": 38}, {"time": 1018, "pitch": 48, "duration": 13, "velocity": 43}, {"time": 1018, "pitch": 53, "duration": 5, "velocity": 34}, {"time": 1018, "pitch": 57, "duration": 7, "velocity": 51}, {"time": 1018, "pitch": 60, "duration": 8, "velocity": 52}, {"time": 1018, "pitch": 65, "duration": 8, "velocity": 51}, {"time": 1027, "pitch": 53, "duration": 3, "velocity": 35}, {"time": 1030, "pitch": 57, "duration": 7, "velocity": 65}, {"time": 1030, "pitch": 60, "duration": 4, "velocity": 68}, {"time": 1030, "pitch": 65, "duration": 7, "velocity": 66}, {"time": 1033, "pitch": 53, "duration": 4, "velocity": 38}, {"time": 1036, "pitch": 48, "duration": 1, "velocity": 46}, {"time": 1042, "pitch": 41, "duration": 15, "velocity": 38}, {"time": 1042, "pitch": 53, "duration": 6, "velocity": 31}, {"time": 1042, "pitch": 57, "duration": 8, "velocity": 43}, {"time": 1042, "pitch": 60, "duration": 8, "velocity": 50}, {"time": 1042, "pitch": 65, "duration": 9, "velocity": 43}, {"time": 1051, "pitch": 53, "duration": 3, "velocity": 35}, {"time": 1054, "pitch": 57, "duration": 7, "velocity": 77}, {"time": 1054, "pitch": 60, "duration": 7, "velocity": 72}, {"time": 1054, "pitch": 65, "duration": 7, "velocity": 73}, {"time": 1057, "pitch": 53, "duration": 3, "velocity": 43}, {"time": 1060, "pitch": 41, "duration": 1, "velocity": 57}, {"time": 1066, "pitch": 38, "duration": 14, "velocity": 50}, {"time": 1066, "pitch": 50, "duration": 6, "velocity": 44}, {"time": 1066, "pitch": 57, "duration": 7, "velocity": 47}, {"time": 1066, "pitch": 62, "duration": 8, "velocity": 53}, {"time": 1066, "pitch": 65, "duration": 8, "velocity": 47}, {"time": 1075, "pitch": 50, "duration": 4, "velocity": 48}, {"time": 1078, "pitch": 57, "duration": 6, "velocity": 72}, {"time": 1078, "pitch": 62, "duration": 7, "velocity": 69}, {"time": 1078, "pitch": 65, "duration": 7, "velocity": 71}, {"time": 1081, "pitch": 50, "duration": 4, "velocity": 41}, {"time": 1084, "pitch": 38, "duration": 1, "velocity": 55}, {"time": 1090, "pitch": 43, "duration": 6, "velocity": 56}, {"time": 1090, "pitch": 55, "duration": 9, "velocity": 57}, {"time": 1090, "pitch": 58, "duration": 9, "velocity": 59}, {"time": 1090, "pitch": 62, "duration": 9, "velocity": 58}, {"time": 1090, "pitch": 67, "duration": 9, "velocity": 61}, {"time": 1099, "pitch": 50, "duration": 4, "velocity": 40}, {"time": 1102, "pitch": 55, "duration": 7, "velocity": 69}, {"time": 1102, "pitch": 58, "duration": 7, "velocity": 65}, {"time": 1102, "pitch": 62, "duration": 7, "velocity": 67}, {"time": 1102, "pitch": 67, "duration": 8, "velocity": 63}, {"time": 1105, "pitch": 50, "duration": 3, "velocity": 46}, {"time": 1108, "pitch": 43, "duration": 1, "velocity": 58}, {"time": 1114, "pitch": 45, "duration": 15, "velocity": 44}, {"time": 1114, "pitch": 57, "duration": 6, "velocity": 38}, {"time": 1114, "pitch": 60, "duration": 7, "velocity": 48}, {"time": 1114, "pitch": 64, "duration": 9, "velocity": 50}, {"time": 1114, "pitch": 69, "duration": 8, "velocity": 53}, {"time": 1123, "pitch": 57, "duration": 4, "velocity": 47}, {"time": 1126, "pitch": 60, "duration": 7, "velocity": 81}, {"time": 1126, "pitch": 64, "duration": 7, "velocity": 79}, {"time": 1126, "pitch": 69, "duration": 7, "velocity": 82}, {"time": 1129, "pitch": 57, "duration": 4, "velocity": 63}, {"time": 1132, "pitch": 45, "duration": 2, "velocity": 51}, {"time": 1138, "pitch": 48, "duration": 13, "velocity": 53}, {"time": 1138, "pitch": 60, "duration": 8, "velocity": 51}, {"time": 1138, "pitch": 64, "duration": 8, "velocity": 45}, {"time": 1138, "pitch": 67, "duration": 8, "velocity": 51}, {"time": 1138, "pitch": 72, "duration": 8, "velocity": 62}, {"time": 1147, "pitch": 55, "duration": 9, "velocity": 36}, {"time": 1150, "pitch": 60, "duration": 7, "velocity": 76}, {"time": 1150, "pitch": 64, "duration": 7, "velocity": 63}, {"time": 1150, "pitch": 67, "duration": 7, "velocity": 68}, {"time": 1150, "pitch": 72, "duration": 7, "velocity": 79}, {"time": 1153, "pitch": 48, "duration": 3, "velocity": 39}, {"time": 1162, "pitch": 43, "duration": 14, "velocity": 41}, {"time": 1162, "pitch": 50, "duration": 19, "velocity": 43}, {"time": 1162, "pitch": 55, "duration": 5, "velocity": 44}, {"time": 1162, "pitch": 59, "duration": 8, "velocity": 56}, {"time": 1162, "pitch": 62, "duration": 8, "velocity": 47}, {"time": 1162, "pitch": 67, "duration": 8, "velocity": 51}, {"time": 1171, "pitch": 55, "duration": 3, "velocity": 39}, {"time": 1174, "pitch": 59, "duration": 7, "velocity": 72}, {"time": 1174, "pitch": 62, "duration": 7, "velocity": 65}, {"time": 1174, "pitch": 67, "duration": 7, "velocity": 67}, {"time": 1177, "pitch": 55, "duration": 4, "velocity": 53}, {"time": 1180, "pitch": 43, "duration": 2, "velocity": 56}, {"time": 1186, "pitch": 48, "duration": 15, "velocity": 50}, {"time": 1186, "pitch": 55, "duration": 6, "velocity": 39}, {"time": 1186, "pitch": 60, "duration": 8, "velocity": 44}, {"time": 1186, "pitch": 64, "duration": 9, "velocity": 46}, {"time": 1186, "pitch": 67, "duration": 8, "velocity": 53}, {"time": 1195, "pitch": 55, "duration": 3, "velocity": 36}, {"time": 1198, "pitch": 60, "duration": 7, "velocity": 74}, {"time": 1198, "pitch": 64, "duration": 8, "velocity": 67}, {"time": 1198, "pitch": 67, "duration": 8, "velocity": 74}, {"time": 1201, "pitch": 55, "duration": 4, "velocity": 45}, {"time": 1204, "pitch": 48, "duration": 1, "velocity": 62}, {"time": 1210, "pitch": 41, "duration": 13, "velocity": 50}, {"time": 1210, "pitch": 53, "duration": 5, "velocity": 45}, {"time": 1210, "pitch": 57, "duration": 9, "velocity": 51}, {"time": 1210, "pitch": 60, "duration": 9, "velocity": 59}, {"time": 1210, "pitch": 65, "duration": 9, "velocity": 60}, {"time": 1219, "pitch": 53, "duration": 3, "velocity": 40}, {"time": 1222, "pitch": 57, "duration": 7, "velocity": 83}, {"time": 1222, "pitch": 60, "duration": 7, "velocity": 76}, {"time": 1222, "pitch": 65, "duration": 7, "velocity": 80}, {"time": 1225, "pitch": 53, "duration": 3, "velocity": 69}, {"time": 1228, "pitch": 41, "duration": 1, "velocity": 67}, {"time": 1234, "pitch": 38, "duration": 14, "velocity": 45}, {"time": 1234, "pitch": 50, "duration": 6, "velocity": 40}, {"time": 1234, "pitch": 57, "duration": 7, "velocity": 49}, {"time": 1234, "pitch": 62, "duration": 8, "velocity": 53}, {"time": 1234, "pitch": 65, "duration": 8, "velocity": 49}, {"time": 1243, "pitch": 50, "duration": 3, "velocity": 44}, {"time": 1246, "pitch": 57, "duration": 7, "velocity": 83}, {"time": 1246, "pitch": 62, "duration": 7, "velocity": 87}, {"time": 1246, "pitch": 65, "duration": 7, "velocity": 83}, {"time": 1249, "pitch": 50, "duration": 3, "velocity": 50}, {"time": 1252, "pitch": 38, "duration": 1, "velocity": 68}, {"time": 1258, "pitch": 36, "duration": 14, "velocity": 59}, {"time": 1258, "pitch": 48, "duration": 6, "velocity": 53}, {"time": 1258, "pitch": 55, "duration": 8, "velocity": 71}, {"time": 1258, "pitch": 60, "duration": 8, "velocity": 61}, {"time": 1258, "pitch": 64, "duration": 8, "velocity": 64}, {"time": 1267, "pitch": 48, "duration": 4, "velocity": 36}, {"time": 1270, "pitch": 55, "duration": 6, "velocity": 75}, {"time": 1270, "pitch": 60, "duration": 7, "velocity": 72}, {"time": 1270, "pitch": 64, "duration": 7, "velocity": 71}, {"time": 1273, "pitch": 48, "duration": 4, "velocity": 47}, {"time": 1276, "pitch": 36, "duration": 1, "velocity": 47}, {"time": 1279, "pitch": 60, "duration": 2, "velocity": 51}, {"time": 1282, "pitch": 38, "duration": 14, "velocity": 56}, {"time": 1282, "pitch": 50, "duration": 6, "velocity": 50}, {"time": 1282, "pitch": 57, "duration": 8, "velocity": 51}, {"time": 1282, "pitch": 62, "duration": 8, "velocity": 58}, {"time": 1282, "pitch": 65, "duration": 8, "velocity": 66}, {"time": 1291, "pitch": 50, "duration": 3, "velocity": 51}, {"time": 1294, "pitch": 57, "duration": 6, "velocity": 85}, {"time": 1294, "pitch": 62, "duration": 6, "velocity": 80}, {"time": 1294, "pitch": 65, "duration": 7, "velocity": 74}, {"time": 1297, "pitch": 50, "duration": 4, "velocity": 68}, {"time": 1300, "pitch": 38, "duration": 1, "velocity": 69}, {"time": 1306, "pitch": 34, "duration": 13, "velocity": 69}, {"time": 1306, "pitch": 46, "duration": 6, "velocity": 72}, {"time": 1306, "pitch": 53, "duration": 8, "velocity": 62}, {"time": 1306, "pitch": 58, "duration": 8, "velocity": 71}, {"time": 1306, "pitch": 62, "duration": 8, "velocity": 72}, {"time": 1306, "pitch": 65, "duration": 8, "velocity": 76}, {"time": 1315, "pitch": 46, "duration": 3, "velocity": 36}, {"time": 1318, "pitch": 53, "duration": 7, "velocity": 77}, {"time": 1318, "pitch": 58, "duration": 8, "velocity": 81}, {"time": 1318, "pitch": 62, "duration": 8, "velocity": 72}, {"time": 1318, "pitch": 65, "duration": 8, "velocity": 83}, {"time": 1321, "pitch": 46, "duration": 3, "velocity": 47}, {"time": 1324, "pitch": 34, "duration": 1, "velocity": 62}, {"time": 1330, "pitch": 36, "duration": 15, "velocity": 51}, {"time": 1330, "pitch": 48, "duration": 6, "velocity": 45}, {"time": 1330, "pitch": 57, "duration": 8, "velocity": 63}, {"time": 1330, "pitch": 60, "duration": 9, "velocity": 65}, {"time": 1330, "pitch": 65, "duration": 9, "velocity": 68}, {"time": 1339, "pitch": 48, "duration": 3, "velocity": 38}, {"time": 1342, "pitch": 57, "duration": 7, "velocity": 81}, {"time": 1342, "pitch": 60, "duration": 7, "velocity": 79}, {"time": 1342, "pitch": 65, "duration": 7, "velocity": 80}, {"time": 1345, "pitch": 48, "duration": 4, "velocity": 45}, {"time": 1348, "pitch": 36, "duration": 1, "velocity": 63}, {"time": 1354, "pitch": 33, "duration": 15, "velocity": 58}, {"time": 1354, "pitch": 45, "duration": 5, "velocity": 58}, {"time": 1354, "pitch": 57, "duration": 8, "velocity": 62}, {"time": 1354, "pitch": 60, "duration": 8, "velocity": 62}, {"time": 1354, "pitch": 64, "duration": 8, "velocity": 63}, {"time": 1363, "pitch": 45, "duration": 3, "velocity": 51}, {"time": 1366, "pitch": 57, "duration": 8, "velocity": 83}, {"time": 1366, "pitch": 60, "duration": 8, "velocity": 80}, {"time": 1366, "pitch": 64, "duration": 8, "velocity": 79}, {"time": 1369, "pitch": 45, "duration": 4, "velocity": 68}, {"time": 1372, "pitch": 33, "duration": 3, "velocity": 76}, {"time": 1375, "pitch": 45, "duration": 1, "velocity": 75}, {"time": 1378, "pitch": 34, "duration": 20, "velocity": 69}, {"time": 1378, "pitch": 46, "duration": 6, "velocity": 72}, {"time": 1378, "pitch": 58, "duration": 7, "velocity": 77}, {"time": 1378, "pitch": 62, "duration": 7, "velocity": 74}, {"time": 1378, "pitch": 65, "duration": 7, "velocity": 76}, {"time": 1384, "pitch": 46, "duration": 4, "velocity": 62}, {"time": 1387, "pitch": 58, "duration": 1, "velocity": 87}, {"time": 1387, "pitch": 62, "duration": 3, "velocity": 84}, {"time": 1387, "pitch": 65, "duration": 3, "velocity": 82}, {"time": 1390, "pitch": 46, "duration": 2, "velocity": 56}, {"time": 1393, "pitch": 58, "duration": 5, "velocity": 95}, {"time": 1393, "pitch": 62, "duration": 5, "velocity": 81}, {"time": 1393, "pitch": 67, "duration": 5, "velocity": 87}, {"time": 1396, "pitch": 46, "duration": 1, "velocity": 68}, {"time": 1402, "pitch": 41, "duration": 19, "velocity": 72}, {"time": 1402, "pitch": 53, "duration": 5, "velocity": 71}, {"time": 1402, "pitch": 57, "duration": 7, "velocity": 79}, {"time": 1402, "pitch": 60, "duration": 7, "velocity": 79}, {"time": 1402, "pitch": 65, "duration": 8, "velocity": 73}, {"time": 1411, "pitch": 53, "duration": 3, "velocity": 48}, {"time": 1414, "pitch": 57, "duration": 3, "velocity": 84}, {"time": 1414, "pitch": 60, "duration": 4, "velocity": 84}, {"time": 1414, "pitch": 67, "duration": 3, "velocity": 93}, {"time": 1417, "pitch": 53, "duration": 4, "velocity": 50}, {"time": 1420, "pitch": 57, "duration": 3, "velocity": 71}, {"time": 1420, "pitch": 60, "duration": 3, "velocity": 62}, {"time": 1420, "pitch": 69, "duration": 3, "velocity": 76}, {"time": 1426, "pitch": 41, "duration": 16, "velocity": 49}, {"time": 1426, "pitch": 53, "duration": 6, "velocity": 48}, {"time": 1426, "pitch": 57, "duration": 8, "velocity": 61}, {"time": 1426, "pitch": 60, "duration": 7, "velocity": 56}, {"time": 1426, "pitch": 65, "duration": 8, "velocity": 58}, {"time": 1435, "pitch": 53, "duration": 4, "velocity": 71}, {"time": 1438, "pitch": 57, "duration": 3, "velocity": 90}, {"time": 1438, "pitch": 60, "duration": 4, "velocity": 84}, {"time": 1438, "pitch": 67, "duration": 3, "velocity": 90}, {"time": 1441, "pitch": 53, "duration": 7, "velocity": 75}, {"time": 1444, "pitch": 57, "duration": 3, "velocity": 84}, {"time": 1444, "pitch": 60, "duration": 2, "velocity": 67}, {"time": 1444, "pitch": 69, "duration": 3, "velocity": 89}, {"time": 1447, "pitch": 41, "duration": 1, "velocity": 53}, {"time": 1450, "pitch": 45, "duration": 11, "velocity": 35}, {"time": 1450, "pitch": 57, "duration": 8, "velocity": 67}, {"time": 1450, "pitch": 60, "duration": 8, "velocity": 59}, {"time": 1450, "pitch": 64, "duration": 8, "velocity": 61}, {"time": 1450, "pitch": 69, "duration": 7, "velocity": 64}, {"time": 1459, "pitch": 52, "duration": 5, "velocity": 67}, {"time": 1462, "pitch": 38, "duration": 7, "velocity": 72}, {"time": 1462, "pitch": 50, "duration": 2, "velocity": 69}, {"time": 1462, "pitch": 57, "duration": 4, "velocity": 80}, {"time": 1462, "pitch": 62, "duration": 4, "velocity": 72}, {"time": 1462, "pitch": 65, "duration": 4, "velocity": 78}, {"time": 1462, "pitch": 69, "duration": 3, "velocity": 87}, {"time": 1465, "pitch": 50, "duration": 3, "velocity": 68}, {"time": 1468, "pitch": 43, "duration": 3, "velocity": 69}, {"time": 1468, "pitch": 55, "duration": 3, "velocity": 85}, {"time": 1468, "pitch": 59, "duration": 3, "velocity": 76}, {"time": 1468, "pitch": 62, "duration": 4, "velocity": 47}, {"time": 1468, "pitch": 67, "duration": 3, "velocity": 89}, {"time": 1474, "pitch": 36, "duration": 15, "velocity": 68}, {"time": 1474, "pitch": 48, "duration": 6, "velocity": 61}, {"time": 1474, "pitch": 55, "duration": 7, "velocity": 81}, {"time": 1474, "pitch": 60, "duration": 8, "velocity": 72}, {"time": 1474, "pitch": 64, "duration": 8, "velocity": 76}, {"time": 1474, "pitch": 67, "duration": 8, "velocity": 89}, {"time": 1483, "pitch": 48, "duration": 4, "velocity": 44}, {"time": 1486, "pitch": 55, "duration": 7, "velocity": 90}, {"time": 1486, "pitch": 60, "duration": 7, "velocity": 79}, {"time": 1486, "pitch": 64, "duration": 7, "velocity": 79}, {"time": 1486, "pitch": 67, "duration": 7, "velocity": 87}, {"time": 1489, "pitch": 48, "duration": 4, "velocity": 49}, {"time": 1492, "pitch": 36, "duration": 1, "velocity": 51}, {"time": 1498, "pitch": 36, "duration": 18, "velocity": 45}, {"time": 1498, "pitch": 48, "duration": 5, "velocity": 43}, {"time": 1498, "pitch": 55, "duration": 8, "velocity": 64}, {"time": 1498, "pitch": 60, "duration": 8, "velocity": 58}, {"time": 1498, "pitch": 64, "duration": 9, "velocity": 61}, {"time": 1507, "pitch": 48, "duration": 4, "velocity": 47}, {"time": 1510, "pitch": 55, "duration": 4, "velocity": 77}, {"time": 1510, "pitch": 60, "duration": 4, "velocity": 67}, {"time": 1510, "pitch": 67, "duration": 4, "velocity": 74}, {"time": 1513, "pitch": 48, "duration": 4, "velocity": 68}, {"time": 1516, "pitch": 55, "duration": 2, "velocity": 71}, {"time": 1516, "pitch": 60, "duration": 2, "velocity": 54}, {"time": 1516, "pitch": 64, "duration": 2, "velocity": 64}, {"time": 1516, "pitch": 67, "duration": 2, "velocity": 67}, {"time": 1522, "pitch": 38, "duration": 16, "velocity": 52}, {"time": 1522, "pitch": 50, "duration": 6, "velocity": 47}, {"time": 1522, "pitch": 57, "duration": 7, "velocity": 62}, {"time": 1522, "pitch": 62, "duration": 8, "velocity": 63}, {"time": 1522, "pitch": 65, "duration": 8, "velocity": 66}, {"time": 1531, "pitch": 50, "duration": 4, "velocity": 51}, {"time": 1534, "pitch": 57, "duration": 7, "velocity": 72}, {"time": 1534, "pitch": 62, "duration": 8, "velocity": 77}, {"time": 1534, "pitch": 65, "duration": 8, "velocity": 66}, {"time": 1537, "pitch": 50, "duration": 4, "velocity": 55}, {"time": 1540, "pitch": 38, "duration": 1, "velocity": 65}, {"time": 1546, "pitch": 31, "duration": 14, "velocity": 51}, {"time": 1546, "pitch": 43, "duration": 5, "velocity": 50}, {"time": 1546, "pitch": 55, "duration": 7, "velocity": 63}, {"time": 1546, "pitch": 59, "duration": 7, "velocity": 58}, {"time": 1546, "pitch": 62, "duration": 7, "velocity": 59}, {"time": 1546, "pitch": 67, "duration": 7, "velocity": 62}, {"time": 1555, "pitch": 43, "duration": 4, "velocity": 59}, {"time": 1558, "pitch": 55, "duration": 4, "velocity": 84}, {"time": 1558, "pitch": 59, "duration": 4, "velocity": 76}, {"time": 1558, "pitch": 62, "duration": 4, "velocity": 72}, {"time": 1558, "pitch": 67, "duration": 3, "velocity": 76}, {"time": 1561, "pitch": 43, "duration": 7, "velocity": 61}, {"time": 1564, "pitch": 55, "duration": 3, "velocity": 84}, {"time": 1564, "pitch": 59, "duration": 2, "velocity": 68}, {"time": 1564, "pitch": 62, "duration": 3, "velocity": 64}, {"time": 1564, "pitch": 67, "duration": 2, "velocity": 75}, {"time": 1567, "pitch": 31, "duration": 1, "velocity": 80}, {"time": 1570, "pitch": 36, "duration": 12, "velocity": 53}, {"time": 1570, "pitch": 36, "duration": 12, "velocity": 68}, {"time": 1570, "pitch": 55, "duration": 3, "velocity": 50}, {"time": 1570, "pitch": 60, "duration": 3, "velocity": 53}, {"time": 1573, "pitch": 48, "duration": 4, "velocity": 65}, {"time": 1576, "pitch": 55, "duration": 3, "velocity": 90}, {"time": 1576, "pitch": 60, "duration": 3, "velocity": 87}, {"time": 1576, "pitch": 62, "duration": 4, "velocity": 85}, {"time": 1579, "pitch": 48, "duration": 5, "velocity": 85}, {"time": 1582, "pitch": 55, "duration": 3, "velocity": 100}, {"time": 1582, "pitch": 60, "duration": 3, "velocity": 90}, {"time": 1582, "pitch": 64, "duration": 4, "velocity": 91}, {"time": 1585, "pitch": 36, "duration": 3, "velocity": 74}, {"time": 1585, "pitch": 36, "duration": 3, "velocity": 79}, {"time": 1588, "pitch": 55, "duration": 2, "velocity": 72}, {"time": 1588, "pitch": 57, "duration": 2, "velocity": 67}, {"time": 1588, "pitch": 60, "duration": 3, "velocity": 75}, {"time": 1588, "pitch": 64, "duration": 3, "velocity": 76}, {"time": 1588, "pitch": 67, "duration": 3, "velocity": 86}, {"time": 1591, "pitch": 48, "duration": 1, "velocity": 67}, {"time": 1594, "pitch": 41, "duration": 10, "velocity": 95}, {"time": 1594, "pitch": 53, "duration": 4, "velocity": 91}, {"time": 1594, "pitch": 60, "duration": 2, "velocity": 90}, {"time": 1594, "pitch": 65, "duration": 2, "velocity": 93}, {"time": 1594, "pitch": 69, "duration": 2, "velocity": 66}, {"time": 1594, "pitch": 72, "duration": 4, "velocity": 110}, {"time": 1597, "pitch": 60, "duration": 1, "velocity": 47}, {"time": 1597, "pitch": 65, "duration": 8, "velocity": 71}, {"time": 1597, "pitch": 69, "duration": 7, "velocity": 73}, {"time": 1600, "pitch": 60, "duration": 4, "velocity": 87}, {"time": 1600, "pitch": 72, "duration": 4, "velocity": 93}, {"time": 1603, "pitch": 53, "duration": 2, "velocity": 87}, {"time": 1606, "pitch": 40, "duration": 5, "velocity": 91}, {"time": 1606, "pitch": 52, "duration": 2, "velocity": 88}, {"time": 1606, "pitch": 60, "duration": 3, "velocity": 104}, {"time": 1606, "pitch": 64, "duration": 2, "velocity": 90}, {"time": 1606, "pitch": 67, "duration": 2, "velocity": 86}, {"time": 1606, "pitch": 72, "duration": 4, "velocity": 102}, {"time": 1609, "pitch": 52, "duration": 4, "velocity": 100}, {"time": 1609, "pitch": 64, "duration": 10, "velocity": 67}, {"time": 1609, "pitch": 67, "duration": 3, "velocity": 74}, {"time": 1612, "pitch": 40, "duration": 1, "velocity": 85}, {"time": 1612, "pitch": 60, "duration": 7, "velocity": 95}, {"time": 1612, "pitch": 67, "duration": 7, "velocity": 79}, {"time": 1612, "pitch": 72, "duration": 7, "velocity": 95}, {"time": 1618, "pitch": 38, "duration": 5, "velocity": 105}, {"time": 1618, "pitch": 50, "duration": 3, "velocity": 102}, {"time": 1618, "pitch": 62, "duration": 3, "velocity": 111}, {"time": 1618, "pitch": 69, "duration": 2, "velocity": 102}, {"time": 1618, "pitch": 74, "duration": 4, "velocity": 104}, {"time": 1621, "pitch": 50, "duration": 4, "velocity": 95}, {"time": 1621, "pitch": 65, "duration": 5, "velocity": 80}, {"time": 1621, "pitch": 69, "duration": 4, "velocity": 74}, {"time": 1624, "pitch": 38, "duration": 1, "velocity": 80}, {"time": 1624, "pitch": 62, "duration": 2, "velocity": 85}, {"time": 1624, "pitch": 74, "duration": 1, "velocity": 92}, {"time": 1627, "pitch": 36, "duration": 2, "velocity": 105}, {"time": 1627, "pitch": 48, "duration": 2, "velocity": 104}, {"time": 1627, "pitch": 60, "duration": 1, "velocity": 102}, {"time": 1627, "pitch": 64, "duration": 1, "velocity": 83}, {"time": 1627, "pitch": 67, "duration": 2, "velocity": 76}, {"time": 1627, "pitch": 72, "duration": 1, "velocity": 102}, {"time": 1630, "pitch": 34, "duration": 5, "velocity": 113}, {"time": 1630, "pitch": 46, "duration": 5, "velocity": 113}, {"time": 1630, "pitch": 58, "duration": 2, "velocity": 108}, {"time": 1630, "pitch": 62, "duration": 2, "velocity": 79}, {"time": 1630, "pitch": 65, "duration": 2, "velocity": 62}, {"time": 1630, "pitch": 70, "duration": 2, "velocity": 103}, {"time": 1636, "pitch": 33, "duration": 3, "velocity": 109}, {"time": 1636, "pitch": 45, "duration": 3, "velocity": 113}, {"time": 1636, "pitch": 57, "duration": 2, "velocity": 108}, {"time": 1636, "pitch": 60, "duration": 2, "velocity": 91}, {"time": 1636, "pitch": 64, "duration": 2, "velocity": 87}, {"time": 1636, "pitch": 69, "duration": 2, "velocity": 96}, {"time": 1642, "pitch": 31, "duration": 2, "velocity": 114}, {"time": 1642, "pitch": 59, "duration": 9, "velocity": 108}, {"time": 1642, "pitch": 67, "duration": 10, "velocity": 102}, {"time": 1642, "pitch": 62, "duration": 9, "velocity": 97}, {"time": 1642, "pitch": 55, "duration": 8, "velocity": 115}, {"time": 1644, "pitch": 43, "duration": 1, "velocity": 76}, {"time": 1645, "pitch": 31, "duration": 1, "velocity": 69}, {"time": 1646, "pitch": 43, "duration": 1, "velocity": 65}, {"time": 1647, "pitch": 31, "duration": 1, "velocity": 68}, {"time": 1648, "pitch": 43, "duration": 1, "velocity": 84}, {"time": 1649, "pitch": 55, "duration": 1, "velocity": 85}, {"time": 1649, "pitch": 31, "duration": 1, "velocity": 75}, {"time": 1649, "pitch": 43, "duration": 1, "velocity": 79}, {"time": 1650, "pitch": 59, "duration": 1, "velocity": 75}, {"time": 1650, "pitch": 31, "duration": 1, "velocity": 85}, {"time": 1650, "pitch": 62, "duration": 1, "velocity": 81}, {"time": 1651, "pitch": 43, "duration": 1, "velocity": 83}, {"time": 1651, "pitch": 67, "duration": 1, "velocity": 49}, {"time": 1652, "pitch": 31, "duration": 1, "velocity": 77}, {"time": 1652, "pitch": 43, "duration": 1, "velocity": 88}, {"time": 1653, "pitch": 31, "duration": 1, "velocity": 71}, {"time": 1653, "pitch": 71, "duration": 2, "velocity": 83}, {"time": 1654, "pitch": 43, "duration": 1, "velocity": 77}, {"time": 1654, "pitch": 74, "duration": 1, "velocity": 87}, {"time": 1654, "pitch": 31, "duration": 1, "velocity": 88}, {"time": 1654, "pitch": 79, "duration": 2, "velocity": 111}, {"time": 1655, "pitch": 43, "duration": 1, "velocity": 79}, {"time": 1656, "pitch": 31, "duration": 1, "velocity": 87}, {"time": 1657, "pitch": 43, "duration": 1, "velocity": 84}, {"time": 1657, "pitch": 31, "duration": 1, "velocity": 91}, {"time": 1658, "pitch": 43, "duration": 1, "velocity": 79}, {"time": 1659, "pitch": 31, "duration": 1, "velocity": 67}, {"time": 1659, "pitch": 43, "duration": 1, "velocity": 88}, {"time": 1660, "pitch": 31, "duration": 1, "velocity": 80}, {"time": 1661, "pitch": 43, "duration": 1, "velocity": 83}, {"time": 1661, "pitch": 31, "duration": 1, "velocity": 88}, {"time": 1662, "pitch": 43, "duration": 1, "velocity": 80}, {"time": 1663, "pitch": 31, "duration": 1, "velocity": 85}, {"time": 1663, "pitch": 43, "duration": 1, "velocity": 74}, {"time": 1664, "pitch": 31, "duration": 10, "velocity": 65}, {"time": 1665, "pitch": 43, "duration": 10, "velocity": 91}, {"time": 1673, "pitch": 31, "duration": 1, "velocity": 33}, {"time": 1674, "pitch": 43, "duration": 1, "velocity": 48}, {"time": 1675, "pitch": 31, "duration": 1, "velocity": 64}, {"time": 1676, "pitch": 43, "duration": 1, "velocity": 67}, {"time": 1677, "pitch": 31, "duration": 1, "velocity": 84}, {"time": 1677, "pitch": 43, "duration": 1, "velocity": 69}, {"time": 1678, "pitch": 31, "duration": 1, "velocity": 72}, {"time": 1679, "pitch": 43, "duration": 1, "velocity": 88}, {"time": 1679, "pitch": 31, "duration": 1, "velocity": 77}, {"time": 1680, "pitch": 43, "duration": 1, "velocity": 88}, {"time": 1681, "pitch": 31, "duration": 1, "velocity": 95}, {"time": 1681, "pitch": 43, "duration": 1, "velocity": 80}, {"time": 1682, "pitch": 31, "duration": 1, "velocity": 80}, {"time": 1683, "pitch": 43, "duration": 1, "velocity": 90}, {"time": 1683, "pitch": 31, "duration": 1, "velocity": 77}, {"time": 1684, "pitch": 43, "duration": 1, "velocity": 91}, {"time": 1684, "pitch": 31, "duration": 1, "velocity": 88}, {"time": 1685, "pitch": 43, "duration": 1, "velocity": 74}, {"time": 1686, "pitch": 31, "duration": 1, "velocity": 75}, {"time": 1686, "pitch": 43, "duration": 1, "velocity": 85}, {"time": 1687, "pitch": 31, "duration": 1, "velocity": 91}, {"time": 1688, "pitch": 43, "duration": 1, "velocity": 91}, {"time": 1689, "pitch": 31, "duration": 1, "velocity": 107}, {"time": 1689, "pitch": 43, "duration": 1, "velocity": 63}, {"time": 1691, "pitch": 34, "duration": 33, "velocity": 106}, {"time": 1691, "pitch": 46, "duration": 33, "velocity": 106}, {"time": 1691, "pitch": 58, "duration": 32, "velocity": 106}, {"time": 1691, "pitch": 70, "duration": 33, "velocity": 105}, {"time": 1691, "pitch": 62, "duration": 32, "velocity": 88}, {"time": 1691, "pitch": 65, "duration": 32, "velocity": 67}, {"time": 1724, "pitch": 62, "duration": 44, "velocity": 51}, {"time": 1724, "pitch": 67, "duration": 41, "velocity": 48}, {"time": 1724, "pitch": 59, "duration": 41, "velocity": 50}, {"time": 1724, "pitch": 47, "duration": 11, "velocity": 47}, {"time": 1724, "pitch": 55, "duration": 44, "velocity": 47}, {"time": 1724, "pitch": 35, "duration": 11, "velocity": 64}, {"time": 1745, "pitch": 31, "duration": 2, "velocity": 38}, {"time": 1747, "pitch": 43, "duration": 1, "velocity": 35}, {"time": 1748, "pitch": 31, "duration": 1, "velocity": 47}, {"time": 1749, "pitch": 43, "duration": 1, "velocity": 40}, {"time": 1750, "pitch": 31, "duration": 1, "velocity": 63}, {"time": 1751, "pitch": 43, "duration": 1, "velocity": 51}, {"time": 1752, "pitch": 31, "duration": 1, "velocity": 71}, {"time": 1752, "pitch": 43, "duration": 1, "velocity": 76}, {"time": 1753, "pitch": 31, "duration": 1, "velocity": 53}, {"time": 1754, "pitch": 43, "duration": 1, "velocity": 72}, {"time": 1755, "pitch": 31, "duration": 1, "velocity": 25}, {"time": 1755, "pitch": 43, "duration": 1, "velocity": 81}, {"time": 1756, "pitch": 31, "duration": 2, "velocity": 39}, {"time": 1756, "pitch": 43, "duration": 1, "velocity": 69}, {"time": 1758, "pitch": 43, "duration": 1, "velocity": 80}, {"time": 1758, "pitch": 31, "duration": 1, "velocity": 72}, {"time": 1759, "pitch": 43, "duration": 1, "velocity": 85}, {"time": 1759, "pitch": 31, "duration": 1, "velocity": 75}, {"time": 1760, "pitch": 43, "duration": 1, "velocity": 87}, {"time": 1761, "pitch": 31, "duration": 1, "velocity": 71}, {"time": 1762, "pitch": 43, "duration": 1, "velocity": 81}, {"time": 1762, "pitch": 31, "duration": 3, "velocity": 92}, {"time": 1763, "pitch": 43, "duration": 1, "velocity": 77}, {"time": 1764, "pitch": 43, "duration": 1, "velocity": 58}, {"time": 1768, "pitch": 60, "duration": 13, "velocity": 87}, {"time": 1769, "pitch": 36, "duration": 1, "velocity": 79}, {"time": 1769, "pitch": 72, "duration": 13, "velocity": 80}, {"time": 1769, "pitch": 64, "duration": 12, "velocity": 80}, {"time": 1769, "pitch": 67, "duration": 13, "velocity": 73}, {"time": 1770, "pitch": 48, "duration": 1, "velocity": 55}, {"time": 1771, "pitch": 36, "duration": 1, "velocity": 59}, {"time": 1772, "pitch": 48, "duration": 1, "velocity": 71}, {"time": 1773, "pitch": 36, "duration": 1, "velocity": 71}, {"time": 1774, "pitch": 48, "duration": 1, "velocity": 75}, {"time": 1774, "pitch": 36, "duration": 1, "velocity": 77}, {"time": 1775, "pitch": 48, "duration": 1, "velocity": 80}, {"time": 1776, "pitch": 36, "duration": 1, "velocity": 91}, {"time": 1777, "pitch": 48, "duration": 1, "velocity": 68}, {"time": 1777, "pitch": 36, "duration": 1, "velocity": 87}, {"time": 1778, "pitch": 48, "duration": 1, "velocity": 74}, {"time": 1779, "pitch": 36, "duration": 1, "velocity": 71}, {"time": 1780, "pitch": 48, "duration": 1, "velocity": 84}, {"time": 1781, "pitch": 36, "duration": 1, "velocity": 50}, {"time": 1782, "pitch": 48, "duration": 1, "velocity": 69}, {"time": 1783, "pitch": 36, "duration": 1, "velocity": 59}, {"time": 1783, "pitch": 48, "duration": 1, "velocity": 36}, {"time": 1785, "pitch": 48, "duration": 1, "velocity": 68}, {"time": 1785, "pitch": 36, "duration": 1, "velocity": 87}, {"time": 1786, "pitch": 48, "duration": 1, "velocity": 74}, {"time": 1787, "pitch": 36, "duration": 1, "velocity": 71}, {"time": 1788, "pitch": 48, "duration": 1, "velocity": 84}, {"time": 1789, "pitch": 36, "duration": 1, "velocity": 50}, {"time": 1789, "pitch": 48, "duration": 1, "velocity": 69}, {"time": 1790, "pitch": 36, "duration": 2, "velocity": 59}, {"time": 1791, "pitch": 48, "duration": 1, "velocity": 36}, {"time": 1795, "pitch": 34, "duration": 11, "velocity": 99}, {"time": 1795, "pitch": 46, "duration": 2, "velocity": 97}, {"time": 1795, "pitch": 62, "duration": 5, "velocity": 95}, {"time": 1795, "pitch": 65, "duration": 6, "velocity": 92}, {"time": 1795, "pitch": 70, "duration": 6, "velocity": 99}, {"time": 1798, "pitch": 46, "duration": 6, "velocity": 79}, {"time": 1802, "pitch": 65, "duration": 5, "velocity": 63}, {"time": 1802, "pitch": 70, "duration": 4, "velocity": 95}, {"time": 1802, "pitch": 74, "duration": 4, "velocity": 90}, {"time": 1802, "pitch": 62, "duration": 4, "velocity": 95}, {"time": 1806, "pitch": 46, "duration": 3, "velocity": 106}, {"time": 1810, "pitch": 62, "duration": 2, "velocity": 110}, {"time": 1810, "pitch": 65, "duration": 2, "velocity": 96}, {"time": 1810, "pitch": 70, "duration": 2, "velocity": 103}, {"time": 1810, "pitch": 74, "duration": 2, "velocity": 106}, {"time": 1810, "pitch": 34, "duration": 9, "velocity": 104}, {"time": 1813, "pitch": 46, "duration": 6, "velocity": 95}, {"time": 1816, "pitch": 65, "duration": 2, "velocity": 110}, {"time": 1816, "pitch": 77, "duration": 2, "velocity": 102}, {"time": 1816, "pitch": 70, "duration": 2, "velocity": 107}, {"time": 1816, "pitch": 74, "duration": 2, "velocity": 99}, {"time": 1823, "pitch": 60, "duration": 4, "velocity": 106}, {"time": 1823, "pitch": 64, "duration": 5, "velocity": 97}, {"time": 1823, "pitch": 67, "duration": 4, "velocity": 100}, {"time": 1823, "pitch": 72, "duration": 4, "velocity": 110}, {"time": 1824, "pitch": 36, "duration": 1, "velocity": 92}, {"time": 1825, "pitch": 48, "duration": 1, "velocity": 81}, {"time": 1825, "pitch": 36, "duration": 1, "velocity": 83}, {"time": 1826, "pitch": 48, "duration": 1, "velocity": 69}, {"time": 1827, "pitch": 36, "duration": 1, "velocity": 74}, {"time": 1827, "pitch": 48, "duration": 1, "velocity": 81}, {"time": 1828, "pitch": 36, "duration": 1, "velocity": 56}, {"time": 1829, "pitch": 48, "duration": 1, "velocity": 80}, {"time": 1829, "pitch": 36, "duration": 1, "velocity": 93}, {"time": 1830, "pitch": 48, "duration": 1, "velocity": 74}, {"time": 1831, "pitch": 36, "duration": 8, "velocity": 75}, {"time": 1832, "pitch": 48, "duration": 1, "velocity": 84}, {"time": 1833, "pitch": 60, "duration": 1, "velocity": 71}, {"time": 1833, "pitch": 48, "duration": 1, "velocity": 87}, {"time": 1834, "pitch": 64, "duration": 1, "velocity": 39}, {"time": 1834, "pitch": 48, "duration": 1, "velocity": 94}, {"time": 1834, "pitch": 67, "duration": 1, "velocity": 62}, {"time": 1835, "pitch": 72, "duration": 1, "velocity": 83}, {"time": 1836, "pitch": 48, "duration": 1, "velocity": 84}, {"time": 1836, "pitch": 67, "duration": 1, "velocity": 62}, {"time": 1836, "pitch": 64, "duration": 1, "velocity": 65}, {"time": 1837, "pitch": 60, "duration": 1, "velocity": 84}, {"time": 1837, "pitch": 48, "duration": 1, "velocity": 94}, {"time": 1837, "pitch": 67, "duration": 1, "velocity": 78}, {"time": 1838, "pitch": 64, "duration": 1, "velocity": 53}, {"time": 1838, "pitch": 72, "duration": 1, "velocity": 61}, {"time": 1838, "pitch": 48, "duration": 1, "velocity": 102}, {"time": 1839, "pitch": 72, "duration": 1, "velocity": 54}, {"time": 1840, "pitch": 48, "duration": 1, "velocity": 99}, {"time": 1840, "pitch": 76, "duration": 1, "velocity": 71}, {"time": 1840, "pitch": 36, "duration": 1, "velocity": 87}, {"time": 1840, "pitch": 79, "duration": 1, "velocity": 66}, {"time": 1841, "pitch": 48, "duration": 1, "velocity": 71}, {"time": 1841, "pitch": 36, "duration": 1, "velocity": 79}, {"time": 1841, "pitch": 84, "duration": 1, "velocity": 64}, {"time": 1842, "pitch": 79, "duration": 1, "velocity": 71}, {"time": 1842, "pitch": 48, "duration": 1, "velocity": 69}, {"time": 1842, "pitch": 76, "duration": 1, "velocity": 73}, {"time": 1843, "pitch": 36, "duration": 1, "velocity": 80}, {"time": 1843, "pitch": 72, "duration": 1, "velocity": 84}, {"time": 1844, "pitch": 48, "duration": 1, "velocity": 63}, {"time": 1844, "pitch": 76, "duration": 1, "velocity": 57}, {"time": 1844, "pitch": 36, "duration": 1, "velocity": 87}, {"time": 1844, "pitch": 79, "duration": 1, "velocity": 82}, {"time": 1845, "pitch": 48, "duration": 1, "velocity": 64}, {"time": 1845, "pitch": 84, "duration": 1, "velocity": 68}, {"time": 1845, "pitch": 36, "duration": 1, "velocity": 74}, {"time": 1846, "pitch": 84, "duration": 1, "velocity": 75}, {"time": 1846, "pitch": 48, "duration": 1, "velocity": 71}, {"time": 1847, "pitch": 36, "duration": 1, "velocity": 84}, {"time": 1847, "pitch": 88, "duration": 1, "velocity": 47}, {"time": 1847, "pitch": 48, "duration": 1, "velocity": 72}, {"time": 1848, "pitch": 91, "duration": 1, "velocity": 79}, {"time": 1848, "pitch": 36, "duration": 1, "velocity": 65}, {"time": 1849, "pitch": 48, "duration": 1, "velocity": 87}, {"time": 1849, "pitch": 96, "duration": 2, "velocity": 116}, {"time": 1850, "pitch": 36, "duration": 1, "velocity": 40}], "annotations": [{"time": 36, "annotation": {"number": 64, "value": 71}, "group": "control_change"}, {"time": 36, "annotation": {"number": 64, "value": 127}, "group": "control_change"}, {"time": 60, "annotation": {"number": 64, "value": 71}, "group": "control_change"}, {"time": 60, "annotation": {"number": 64, "value": 0}, "group": "control_change"}, {"time": 60, "annotation": {"number": 64, "value": 127}, "group": "control_change"}, {"time": 84, "annotation": {"number": 64, "value": 71}, "group": "control_change"}, {"time": 84, "annotation": {"number": 64, "value": 0}, "group": "control_change"}, {"time": 87, "annotation": {"number": 64, "value": 71}, "group": "control_change"}, {"time": 88, "annotation": {"number": 64, "value": 127}, "group": "control_change"}, {"time": 108, "annotation": {"number": 64, "value": 71}, "group": "control_change"}, {"time": 109, "annotation": {"number": 64, "value": 0}, "group": "control_change"}, {"time": 112, "annotation": {"number": 64, "value": 71}, "group": "control_change"}, {"time": 113, "annotation": {"number": 64, "value": 127}, "group": "control_change"}, {"time": 120, "annotation": {"number": 64, "value": 71}, "group": "control_change"}, {"time": 120, "annotation": {"number": 64, "value": 0}, "group": "control_change"}, {"time": 122, "annotation": {"number": 64, "value": 71}, "group": "control_change"}, {"time": 123, "annotation": {"number": 64, "value": 127}, "group": "control_change"}, {"time": 125, "annotation": {"number": 64, "value": 71}, "group": "control_change"}, {"time": 126, "annotation": {"number": 64, "value": 0}, "group": "control_change"}, {"time": 128, "annotation": {"number": 64, "value": 71}, "group": "control_change"}, {"time": 128, "annotation": {"number": 64, "value": 127}, "group": "control_change"}, {"time": 132, "annotation": {"number": 64, "value": 71}, "group": "control_change"}, {"time": 132, "annotation": {"number": 64, "value": 0}, "group": "control_change"}, {"time": 136, "annotation": {"number": 64, "value": 71}, "group": "control_change"}, {"time": 137, "annotation": {"number": 64, "value": 127}, "group": "control_change"}, {"time": 155, "annotation": {"number": 64, "value": 71}, "group": "control_change"}, {"time": 156, "annotation": {"number": 64, "value": 0}, "group": "control_change"}, {"time": 159, "annotation": {"number": 64, "value": 71}, "group": "control_change"}, {"time": 159, "annotation": {"number": 64, "value": 127}, "group": "control_change"}, {"time": 168, "annotation": {"number": 64, "value": 71}, "group": "control_change"}, {"time": 168, "annotation": {"number": 64, "value": 0}, "group": "control_change"}, {"time": 170, "annotation": {"number": 64, "value": 71}, "group": "control_change"}, {"time": 170, "annotation": {"number": 64, "value": 127}, "group": "control_change"}, {"time": 180, "annotation": {"number": 64, "value": 71}, "group": "control_change"}, {"time": 180, "annotation": {"number": 64, "value": 0}, "group": "control_change"}, {"time": 184, "annotation": {"number": 64, "value": 71}, "group": "control_change"}, {"time": 185, "annotation": {"number": 64, "value": 127}, "group": "control_change"}, {"time": 192, "annotation": {"number": 64, "value": 71}, "group": "control_change"}, {"time": 192, "annotation": {"number": 64, "value": 0}, "group": "control_change"}, {"time": 193, "annotation": {"number": 64, "value": 71}, "group": "control_change"}, {"time": 194, "annotation": {"number": 64, "value": 127}, "group": "control_change"}, {"time": 197, "annotation": {"number": 64, "value": 71}, "group": "control_change"}, {"time": 198, "annotation": {"number": 64, "value": 127}, "group": "control_change"}, {"time": 204, "annotation": {"number": 64, "value": 71}, "group": "control_change"}, {"time": 204, "annotation": {"number": 64, "value": 0}, "group": "control_change"}, {"time": 209, "annotation": {"number": 64, "value": 71}, "group": "control_change"}, {"time": 209, "annotation": {"number": 64, "value": 127}, "group": "control_change"}, {"time": 227, "annotation": {"number": 64, "value": 71}, "group": "control_change"}, {"time": 228, "annotation": {"number": 64, "value": 0}, "group": "control_change"}, {"time": 233, "annotation": {"number": 64, "value": 71}, "group": "control_change"}, {"time": 233, "annotation": {"number": 64, "value": 127}, "group": "control_change"}, {"time": 246, "annotation": {"number": 64, "value": 0}, "group": "control_change"}, {"time": 248, "annotation": {"number": 64, "value": 71}, "group": "control_change"}, {"time": 249, "annotation": {"number": 64, "value": 0}, "group": "control_change"}, {"time": 253, "annotation": {"number": 64, "value": 71}, "group": "control_change"}, {"time": 253, "annotation": {"number": 64, "value": 127}, "group": "control_change"}, {"time": 270, "annotation": {"number": 64, "value": 0}, "group": "control_change"}, {"time": 276, "annotation": {"number": 64, "value": 71}, "group": "control_change"}, {"time": 277, "annotation": {"number": 64, "value": 0}, "group": "control_change"}, {"time": 280, "annotation": {"number": 64, "value": 71}, "group": "control_change"}, {"time": 281, "annotation": {"number": 64, "value": 127}, "group": "control_change"}, {"time": 299, "annotation": {"number": 64, "value": 71}, "group": "control_change"}, {"time": 300, "annotation": {"number": 64, "value": 0}, "group": "control_change"}, {"time": 304, "annotation": {"number": 64, "value": 71}, "group": "control_change"}, {"time": 304, "annotation": {"number": 64, "value": 127}, "group": "control_change"}, {"time": 323, "annotation": {"number": 64, "value": 71}, "group": "control_change"}, {"time": 324, "annotation": {"number": 64, "value": 0}, "group": "control_change"}, {"time": 326, "annotation": {"number": 64, "value": 71}, "group": "control_change"}, {"time": 327, "annotation": {"number": 64, "value": 127}, "group": "control_change"}, {"time": 328, "annotation": {"number": 64, "value": 71}, "group": "control_change"}, {"time": 329, "annotation": {"number": 64, "value": 127}, "group": "control_change"}, {"time": 347, "annotation": {"number": 64, "value": 71}, "group": "control_change"}, {"time": 348, "annotation": {"number": 64, "value": 0}, "group": "control_change"}, {"time": 352, "annotation": {"number": 64, "value": 71}, "group": "control_change"}, {"time": 352, "annotation": {"number": 64, "value": 127}, "group": "control_change"}, {"time": 372, "annotation": {"number": 64, "value": 71}, "group": "control_change"}, {"time": 373, "annotation": {"number": 64, "value": 0}, "group": "control_change"}, {"time": 376, "annotation": {"number": 64, "value": 71}, "group": "control_change"}, {"time": 377, "annotation": {"number": 64, "value": 127}, "group": "control_change"}, {"time": 396, "annotation": {"number": 64, "value": 71}, "group": "control_change"}, {"time": 396, "annotation": {"number": 64, "value": 0}, "group": "control_change"}, {"time": 398, "annotation": {"number": 64, "value": 71}, "group": "control_change"}, {"time": 399, "annotation": {"number": 64, "value": 127}, "group": "control_change"}, {"time": 420, "annotation": {"number": 64, "value": 71}, "group": "control_change"}, {"time": 421, "annotation": {"number": 64, "value": 0}, "group": "control_change"}, {"time": 424, "annotation": {"number": 64, "value": 71}, "group": "control_change"}, {"time": 425, "annotation": {"number": 64, "value": 127}, "group": "control_change"}, {"time": 445, "annotation": {"number": 64, "value": 71}, "group": "control_change"}, {"time": 445, "annotation": {"number": 64, "value": 0}, "group": "control_change"}, {"time": 446, "annotation": {"number": 64, "value": 71}, "group": "control_change"}, {"time": 447, "annotation": {"number": 64, "value": 127}, "group": "control_change"}, {"time": 468, "annotation": {"number": 64, "value": 71}, "group": "control_change"}, {"time": 468, "annotation": {"number": 64, "value": 0}, "group": "control_change"}, {"time": 473, "annotation": {"number": 64, "value": 71}, "group": "control_change"}, {"time": 473, "annotation": {"number": 64, "value": 127}, "group": "control_change"}, {"time": 492, "annotation": {"number": 64, "value": 71}, "group": "control_change"}, {"time": 492, "annotation": {"number": 64, "value": 0}, "group": "control_change"}, {"time": 494, "annotation": {"number": 64, "value": 71}, "group": "control_change"}, {"time": 496, "annotation": {"number": 64, "value": 127}, "group": "control_change"}, {"time": 515, "annotation": {"number": 64, "value": 71}, "group": "control_change"}, {"time": 516, "annotation": {"number": 64, "value": 0}, "group": "control_change"}, {"time": 520, "annotation": {"number": 64, "value": 71}, "group": "control_change"}, {"time": 521, "annotation": {"number": 64, "value": 127}, "group": "control_change"}, {"time": 540, "annotation": {"number": 64, "value": 71}, "group": "control_change"}, {"time": 540, "annotation": {"number": 64, "value": 0}, "group": "control_change"}, {"time": 544, "annotation": {"number": 64, "value": 71}, "group": "control_change"}, {"time": 545, "annotation": {"number": 64, "value": 127}, "group": "control_change"}, {"time": 564, "annotation": {"number": 64, "value": 71}, "group": "control_change"}, {"time": 564, "annotation": {"number": 64, "value": 0}, "group": "control_change"}, {"time": 566, "annotation": {"number": 64, "value": 71}, "group": "control_change"}, {"time": 567, "annotation": {"number": 64, "value": 127}, "group": "control_change"}, {"time": 586, "annotation": {"number": 64, "value": 71}, "group": "control_change"}, {"time": 588, "annotation": {"number": 64, "value": 0}, "group": "control_change"}, {"time": 592, "annotation": {"number": 64, "value": 71}, "group": "control_change"}, {"time": 592, "annotation": {"number": 64, "value": 127}, "group": "control_change"}, {"time": 612, "annotation": {"number": 64, "value": 71}, "group": "control_change"}, {"time": 612, "annotation": {"number": 64, "value": 0}, "group": "control_change"}, {"time": 616, "annotation": {"number": 64, "value": 71}, "group": "control_change"}, {"time": 617, "annotation": {"number": 64, "value": 127}, "group": "control_change"}, {"time": 633, "annotation": {"number": 64, "value": 0}, "group": "control_change"}, {"time": 636, "annotation": {"number": 64, "value": 71}, "group": "control_change"}, {"time": 636, "annotation": {"number": 64, "value": 127}, "group": "control_change"}, {"time": 657, "annotation": {"number": 64, "value": 71}, "group": "control_change"}, {"time": 658, "annotation": {"number": 64, "value": 0}, "group": "control_change"}, {"time": 661, "annotation": {"number": 64, "value": 71}, "group": "control_change"}, {"time": 661, "annotation": {"number": 64, "value": 127}, "group": "control_change"}, {"time": 681, "annotation": {"number": 64, "value": 71}, "group": "control_change"}, {"time": 681, "annotation": {"number": 64, "value": 0}, "group": "control_change"}, {"time": 686, "annotation": {"number": 64, "value": 71}, "group": "control_change"}, {"time": 686, "annotation": {"number": 64, "value": 127}, "group": "control_change"}, {"time": 692, "annotation": {"number": 64, "value": 71}, "group": "control_change"}, {"time": 693, "annotation": {"number": 64, "value": 0}, "group": "control_change"}, {"time": 694, "annotation": {"number": 64, "value": 71}, "group": "control_change"}, {"time": 694, "annotation": {"number": 64, "value": 127}, "group": "control_change"}, {"time": 698, "annotation": {"number": 64, "value": 71}, "group": "control_change"}, {"time": 699, "annotation": {"number": 64, "value": 0}, "group": "control_change"}, {"time": 701, "annotation": {"number": 64, "value": 71}, "group": "control_change"}, {"time": 701, "annotation": {"number": 64, "value": 127}, "group": "control_change"}, {"time": 705, "annotation": {"number": 64, "value": 71}, "group": "control_change"}, {"time": 705, "annotation": {"number": 64, "value": 0}, "group": "control_change"}, {"time": 709, "annotation": {"number": 64, "value": 71}, "group": "control_change"}, {"time": 709, "annotation": {"number": 64, "value": 127}, "group": "control_change"}, {"time": 729, "annotation": {"number": 64, "value": 71}, "group": "control_change"}, {"time": 729, "annotation": {"number": 64, "value": 0}, "group": "control_change"}, {"time": 731, "annotation": {"number": 64, "value": 71}, "group": "control_change"}, {"time": 731, "annotation": {"number": 64, "value": 127}, "group": "control_change"}, {"time": 752, "annotation": {"number": 64, "value": 71}, "group": "control_change"}, {"time": 753, "annotation": {"number": 64, "value": 0}, "group": "control_change"}, {"time": 757, "annotation": {"number": 64, "value": 71}, "group": "control_change"}, {"time": 758, "annotation": {"number": 64, "value": 127}, "group": "control_change"}, {"time": 777, "annotation": {"number": 64, "value": 71}, "group": "control_change"}, {"time": 777, "annotation": {"number": 64, "value": 0}, "group": "control_change"}, {"time": 780, "annotation": {"number": 64, "value": 71}, "group": "control_change"}, {"time": 780, "annotation": {"number": 64, "value": 127}, "group": "control_change"}, {"time": 801, "annotation": {"number": 64, "value": 71}, "group": "control_change"}, {"time": 801, "annotation": {"number": 64, "value": 0}, "group": "control_change"}, {"time": 802, "annotation": {"number": 64, "value": 71}, "group": "control_change"}, {"time": 802, "annotation": {"number": 64, "value": 127}, "group": "control_change"}, {"time": 806, "annotation": {"number": 64, "value": 71}, "group": "control_change"}, {"time": 806, "annotation": {"number": 64, "value": 127}, "group": "control_change"}, {"time": 823, "annotation": {"number": 64, "value": 0}, "group": "control_change"}, {"time": 826, "annotation": {"number": 64, "value": 0}, "group": "control_change"}, {"time": 828, "annotation": {"number": 64, "value": 71}, "group": "control_change"}, {"time": 828, "annotation": {"number": 64, "value": 127}, "group": "control_change"}, {"time": 852, "annotation": {"number": 64, "value": 71}, "group": "control_change"}, {"time": 852, "annotation": {"number": 64, "value": 0}, "group": "control_change"}, {"time": 853, "annotation": {"number": 64, "value": 71}, "group": "control_change"}, {"time": 854, "annotation": {"number": 64, "value": 127}, "group": "control_change"}, {"time": 876, "annotation": {"number": 64, "value": 71}, "group": "control_change"}, {"time": 877, "annotation": {"number": 64, "value": 0}, "group": "control_change"}, {"time": 877, "annotation": {"number": 64, "value": 71}, "group": "control_change"}, {"time": 878, "annotation": {"number": 64, "value": 127}, "group": "control_change"}, {"time": 880, "annotation": {"number": 64, "value": 71}, "group": "control_change"}, {"time": 881, "annotation": {"number": 64, "value": 127}, "group": "control_change"}, {"time": 893, "annotation": {"number": 64, "value": 71}, "group": "control_change"}, {"time": 894, "annotation": {"number": 64, "value": 0}, "group": "control_change"}, {"time": 896, "annotation": {"number": 64, "value": 71}, "group": "control_change"}, {"time": 896, "annotation": {"number": 64, "value": 127}, "group": "control_change"}, {"time": 899, "annotation": {"number": 64, "value": 71}, "group": "control_change"}, {"time": 900, "annotation": {"number": 64, "value": 0}, "group": "control_change"}, {"time": 900, "annotation": {"number": 64, "value": 71}, "group": "control_change"}, {"time": 902, "annotation": {"number": 64, "value": 71}, "group": "control_change"}, {"time": 903, "annotation": {"number": 64, "value": 127}, "group": "control_change"}, {"time": 903, "annotation": {"number": 64, "value": 71}, "group": "control_change"}, {"time": 904, "annotation": {"number": 64, "value": 127}, "group": "control_change"}, {"time": 923, "annotation": {"number": 64, "value": 71}, "group": "control_change"}, {"time": 923, "annotation": {"number": 64, "value": 0}, "group": "control_change"}, {"time": 924, "annotation": {"number": 64, "value": 71}, "group": "control_change"}, {"time": 924, "annotation": {"number": 64, "value": 0}, "group": "control_change"}, {"time": 927, "annotation": {"number": 64, "value": 71}, "group": "control_change"}, {"time": 928, "annotation": {"number": 64, "value": 127}, "group": "control_change"}, {"time": 947, "annotation": {"number": 64, "value": 71}, "group": "control_change"}, {"time": 948, "annotation": {"number": 64, "value": 0}, "group": "control_change"}, {"time": 952, "annotation": {"number": 64, "value": 71}, "group": "control_change"}, {"time": 953, "annotation": {"number": 64, "value": 127}, "group": "control_change"}, {"time": 972, "annotation": {"number": 64, "value": 71}, "group": "control_change"}, {"time": 972, "annotation": {"number": 64, "value": 0}, "group": "control_change"}, {"time": 974, "annotation": {"number": 64, "value": 71}, "group": "control_change"}, {"time": 975, "annotation": {"number": 64, "value": 127}, "group": "control_change"}, {"time": 996, "annotation": {"number": 64, "value": 71}, "group": "control_change"}, {"time": 996, "annotation": {"number": 64, "value": 0}, "group": "control_change"}, {"time": 1001, "annotation": {"number": 64, "value": 71}, "group": "control_change"}, {"time": 1001, "annotation": {"number": 64, "value": 127}, "group": "control_change"}, {"time": 1017, "annotation": {"number": 64, "value": 0}, "group": "control_change"}, {"time": 1017, "annotation": {"number": 64, "value": 71}, "group": "control_change"}, {"time": 1021, "annotation": {"number": 64, "value": 71}, "group": "control_change"}, {"time": 1022, "annotation": {"number": 64, "value": 127}, "group": "control_change"}, {"time": 1041, "annotation": {"number": 64, "value": 71}, "group": "control_change"}, {"time": 1042, "annotation": {"number": 64, "value": 0}, "group": "control_change"}, {"time": 1045, "annotation": {"number": 64, "value": 71}, "group": "control_change"}, {"time": 1046, "annotation": {"number": 64, "value": 127}, "group": "control_change"}, {"time": 1065, "annotation": {"number": 64, "value": 71}, "group": "control_change"}, {"time": 1066, "annotation": {"number": 64, "value": 0}, "group": "control_change"}, {"time": 1069, "annotation": {"number": 64, "value": 71}, "group": "control_change"}, {"time": 1070, "annotation": {"number": 64, "value": 127}, "group": "control_change"}, {"time": 1089, "annotation": {"number": 64, "value": 71}, "group": "control_change"}, {"time": 1090, "annotation": {"number": 64, "value": 0}, "group": "control_change"}, {"time": 1091, "annotation": {"number": 64, "value": 71}, "group": "control_change"}, {"time": 1092, "annotation": {"number": 64, "value": 127}, "group": "control_change"}, {"time": 1092, "annotation": {"number": 64, "value": 71}, "group": "control_change"}, {"time": 1093, "annotation": {"number": 64, "value": 71}, "group": "control_change"}, {"time": 1093, "annotation": {"number": 64, "value": 127}, "group": "control_change"}, {"time": 1094, "annotation": {"number": 64, "value": 127}, "group": "control_change"}, {"time": 1094, "annotation": {"number": 64, "value": 71}, "group": "control_change"}, {"time": 1095, "annotation": {"number": 64, "value": 127}, "group": "control_change"}, {"time": 1101, "annotation": {"number": 64, "value": 71}, "group": "control_change"}, {"time": 1102, "annotation": {"number": 64, "value": 127}, "group": "control_change"}, {"time": 1112, "annotation": {"number": 64, "value": 71}, "group": "control_change"}, {"time": 1113, "annotation": {"number": 64, "value": 71}, "group": "control_change"}, {"time": 1113, "annotation": {"number": 64, "value": 0}, "group": "control_change"}, {"time": 1117, "annotation": {"number": 64, "value": 71}, "group": "control_change"}, {"time": 1118, "annotation": {"number": 64, "value": 127}, "group": "control_change"}, {"time": 1138, "annotation": {"number": 64, "value": 71}, "group": "control_change"}, {"time": 1138, "annotation": {"number": 64, "value": 0}, "group": "control_change"}, {"time": 1142, "annotation": {"number": 64, "value": 71}, "group": "control_change"}, {"time": 1142, "annotation": {"number": 64, "value": 127}, "group": "control_change"}, {"time": 1161, "annotation": {"number": 64, "value": 71}, "group": "control_change"}, {"time": 1162, "annotation": {"number": 64, "value": 0}, "group": "control_change"}, {"time": 1164, "annotation": {"number": 64, "value": 71}, "group": "control_change"}, {"time": 1164, "annotation": {"number": 64, "value": 127}, "group": "control_change"}, {"time": 1185, "annotation": {"number": 64, "value": 71}, "group": "control_change"}, {"time": 1186, "annotation": {"number": 64, "value": 0}, "group": "control_change"}, {"time": 1190, "annotation": {"number": 64, "value": 71}, "group": "control_change"}, {"time": 1191, "annotation": {"number": 64, "value": 127}, "group": "control_change"}, {"time": 1207, "annotation": {"number": 64, "value": 0}, "group": "control_change"}, {"time": 1208, "annotation": {"number": 64, "value": 71}, "group": "control_change"}, {"time": 1209, "annotation": {"number": 64, "value": 71}, "group": "control_change"}, {"time": 1209, "annotation": {"number": 64, "value": 0}, "group": "control_change"}, {"time": 1211, "annotation": {"number": 64, "value": 71}, "group": "control_change"}, {"time": 1211, "annotation": {"number": 64, "value": 127}, "group": "control_change"}, {"time": 1232, "annotation": {"number": 64, "value": 71}, "group": "control_change"}, {"time": 1233, "annotation": {"number": 64, "value": 0}, "group": "control_change"}, {"time": 1238, "annotation": {"number": 64, "value": 71}, "group": "control_change"}, {"time": 1238, "annotation": {"number": 64, "value": 127}, "group": "control_change"}, {"time": 1257, "annotation": {"number": 64, "value": 71}, "group": "control_change"}, {"time": 1257, "annotation": {"number": 64, "value": 0}, "group": "control_change"}, {"time": 1259, "annotation": {"number": 64, "value": 71}, "group": "control_change"}, {"time": 1260, "annotation": {"number": 64, "value": 127}, "group": "control_change"}, {"time": 1280, "annotation": {"number": 64, "value": 71}, "group": "control_change"}, {"time": 1281, "annotation": {"number": 64, "value": 0}, "group": "control_change"}, {"time": 1285, "annotation": {"number": 64, "value": 71}, "group": "control_change"}, {"time": 1286, "annotation": {"number": 64, "value": 127}, "group": "control_change"}, {"time": 1304, "annotation": {"number": 64, "value": 71}, "group": "control_change"}, {"time": 1305, "annotation": {"number": 64, "value": 0}, "group": "control_change"}, {"time": 1309, "annotation": {"number": 64, "value": 71}, "group": "control_change"}, {"time": 1310, "annotation": {"number": 64, "value": 127}, "group": "control_change"}, {"time": 1328, "annotation": {"number": 64, "value": 71}, "group": "control_change"}, {"time": 1329, "annotation": {"number": 64, "value": 0}, "group": "control_change"}, {"time": 1331, "annotation": {"number": 64, "value": 71}, "group": "control_change"}, {"time": 1332, "annotation": {"number": 64, "value": 127}, "group": "control_change"}, {"time": 1350, "annotation": {"number": 64, "value": 71}, "group": "control_change"}, {"time": 1353, "annotation": {"number": 64, "value": 0}, "group": "control_change"}, {"time": 1356, "annotation": {"number": 64, "value": 71}, "group": "control_change"}, {"time": 1357, "annotation": {"number": 64, "value": 127}, "group": "control_change"}, {"time": 1377, "annotation": {"number": 64, "value": 71}, "group": "control_change"}, {"time": 1377, "annotation": {"number": 64, "value": 0}, "group": "control_change"}, {"time": 1381, "annotation": {"number": 64, "value": 71}, "group": "control_change"}, {"time": 1382, "annotation": {"number": 64, "value": 127}, "group": "control_change"}, {"time": 1398, "annotation": {"number": 64, "value": 0}, "group": "control_change"}, {"time": 1403, "annotation": {"number": 64, "value": 71}, "group": "control_change"}, {"time": 1403, "annotation": {"number": 64, "value": 0}, "group": "control_change"}, {"time": 1406, "annotation": {"number": 64, "value": 71}, "group": "control_change"}, {"time": 1407, "annotation": {"number": 64, "value": 127}, "group": "control_change"}, {"time": 1428, "annotation": {"number": 64, "value": 71}, "group": "control_change"}, {"time": 1428, "annotation": {"number": 64, "value": 0}, "group": "control_change"}, {"time": 1431, "annotation": {"number": 64, "value": 71}, "group": "control_change"}, {"time": 1432, "annotation": {"number": 64, "value": 127}, "group": "control_change"}, {"time": 1451, "annotation": {"number": 64, "value": 71}, "group": "control_change"}, {"time": 1452, "annotation": {"number": 64, "value": 0}, "group": "control_change"}, {"time": 1456, "annotation": {"number": 64, "value": 71}, "group": "control_change"}, {"time": 1457, "annotation": {"number": 64, "value": 127}, "group": "control_change"}, {"time": 1463, "annotation": {"number": 64, "value": 71}, "group": "control_change"}, {"time": 1463, "annotation": {"number": 64, "value": 0}, "group": "control_change"}, {"time": 1465, "annotation": {"number": 64, "value": 71}, "group": "control_change"}, {"time": 1465, "annotation": {"number": 64, "value": 127}, "group": "control_change"}, {"time": 1469, "annotation": {"number": 64, "value": 71}, "group": "control_change"}, {"time": 1469, "annotation": {"number": 64, "value": 0}, "group": "control_change"}, {"time": 1472, "annotation": {"number": 64, "value": 71}, "group": "control_change"}, {"time": 1472, "annotation": {"number": 64, "value": 127}, "group": "control_change"}, {"time": 1475, "annotation": {"number": 64, "value": 71}, "group": "control_change"}, {"time": 1476, "annotation": {"number": 64, "value": 0}, "group": "control_change"}, {"time": 1479, "annotation": {"number": 64, "value": 71}, "group": "control_change"}, {"time": 1480, "annotation": {"number": 64, "value": 127}, "group": "control_change"}, {"time": 1499, "annotation": {"number": 64, "value": 71}, "group": "control_change"}, {"time": 1500, "annotation": {"number": 64, "value": 0}, "group": "control_change"}, {"time": 1501, "annotation": {"number": 64, "value": 71}, "group": "control_change"}, {"time": 1502, "annotation": {"number": 64, "value": 127}, "group": "control_change"}, {"time": 1523, "annotation": {"number": 64, "value": 71}, "group": "control_change"}, {"time": 1523, "annotation": {"number": 64, "value": 0}, "group": "control_change"}, {"time": 1528, "annotation": {"number": 64, "value": 71}, "group": "control_change"}, {"time": 1528, "annotation": {"number": 64, "value": 127}, "group": "control_change"}, {"time": 1548, "annotation": {"number": 64, "value": 71}, "group": "control_change"}, {"time": 1548, "annotation": {"number": 64, "value": 0}, "group": "control_change"}, {"time": 1550, "annotation": {"number": 64, "value": 71}, "group": "control_change"}, {"time": 1551, "annotation": {"number": 64, "value": 127}, "group": "control_change"}, {"time": 1571, "annotation": {"number": 64, "value": 71}, "group": "control_change"}, {"time": 1572, "annotation": {"number": 64, "value": 0}, "group": "control_change"}, {"time": 1573, "annotation": {"number": 64, "value": 71}, "group": "control_change"}, {"time": 1573, "annotation": {"number": 64, "value": 127}, "group": "control_change"}, {"time": 1576, "annotation": {"number": 64, "value": 71}, "group": "control_change"}, {"time": 1577, "annotation": {"number": 64, "value": 127}, "group": "control_change"}, {"time": 1594, "annotation": {"number": 64, "value": 0}, "group": "control_change"}, {"time": 1596, "annotation": {"number": 64, "value": 71}, "group": "control_change"}, {"time": 1597, "annotation": {"number": 64, "value": 127}, "group": "control_change"}, {"time": 1608, "annotation": {"number": 64, "value": 71}, "group": "control_change"}, {"time": 1608, "annotation": {"number": 64, "value": 0}, "group": "control_change"}, {"time": 1610, "annotation": {"number": 64, "value": 71}, "group": "control_change"}, {"time": 1610, "annotation": {"number": 64, "value": 127}, "group": "control_change"}, {"time": 1620, "annotation": {"number": 64, "value": 71}, "group": "control_change"}, {"time": 1620, "annotation": {"number": 64, "value": 0}, "group": "control_change"}, {"time": 1622, "annotation": {"number": 64, "value": 71}, "group": "control_change"}, {"time": 1622, "annotation": {"number": 64, "value": 127}, "group": "control_change"}, {"time": 1628, "annotation": {"number": 64, "value": 71}, "group": "control_change"}, {"time": 1629, "annotation": {"number": 64, "value": 127}, "group": "control_change"}, {"time": 1632, "annotation": {"number": 64, "value": 71}, "group": "control_change"}, {"time": 1632, "annotation": {"number": 64, "value": 0}, "group": "control_change"}, {"time": 1633, "annotation": {"number": 64, "value": 71}, "group": "control_change"}, {"time": 1634, "annotation": {"number": 64, "value": 127}, "group": "control_change"}, {"time": 1637, "annotation": {"number": 64, "value": 71}, "group": "control_change"}, {"time": 1637, "annotation": {"number": 64, "value": 0}, "group": "control_change"}, {"time": 1639, "annotation": {"number": 64, "value": 71}, "group": "control_change"}, {"time": 1639, "annotation": {"number": 64, "value": 127}, "group": "control_change"}, {"time": 1641, "annotation": {"number": 64, "value": 0}, "group": "control_change"}, {"time": 1641, "annotation": {"number": 64, "value": 71}, "group": "control_change"}, {"time": 1642, "annotation": {"number": 64, "value": 71}, "group": "control_change"}, {"time": 1642, "annotation": {"number": 64, "value": 0}, "group": "control_change"}, {"time": 1644, "annotation": {"number": 64, "value": 71}, "group": "control_change"}, {"time": 1644, "annotation": {"number": 64, "value": 127}, "group": "control_change"}, {"time": 1665, "annotation": {"number": 64, "value": 71}, "group": "control_change"}, {"time": 1666, "annotation": {"number": 64, "value": 0}, "group": "control_change"}, {"time": 1668, "annotation": {"number": 64, "value": 71}, "group": "control_change"}, {"time": 1668, "annotation": {"number": 64, "value": 127}, "group": "control_change"}, {"time": 1691, "annotation": {"number": 64, "value": 71}, "group": "control_change"}, {"time": 1691, "annotation": {"number": 64, "value": 0}, "group": "control_change"}, {"time": 1696, "annotation": {"number": 64, "value": 71}, "group": "control_change"}, {"time": 1697, "annotation": {"number": 64, "value": 127}, "group": "control_change"}, {"time": 1716, "annotation": {"number": 64, "value": 71}, "group": "control_change"}, {"time": 1716, "annotation": {"number": 64, "value": 0}, "group": "control_change"}, {"time": 1729, "annotation": {"number": 64, "value": 71}, "group": "control_change"}, {"time": 1731, "annotation": {"number": 64, "value": 127}, "group": "control_change"}, {"time": 1743, "annotation": {"number": 64, "value": 71}, "group": "control_change"}, {"time": 1744, "annotation": {"number": 64, "value": 0}, "group": "control_change"}, {"time": 1747, "annotation": {"number": 64, "value": 71}, "group": "control_change"}, {"time": 1748, "annotation": {"number": 64, "value": 127}, "group": "control_change"}, {"time": 1771, "annotation": {"number": 64, "value": 71}, "group": "control_change"}, {"time": 1771, "annotation": {"number": 64, "value": 0}, "group": "control_change"}, {"time": 1776, "annotation": {"number": 64, "value": 71}, "group": "control_change"}, {"time": 1776, "annotation": {"number": 64, "value": 127}, "group": "control_change"}, {"time": 1795, "annotation": {"number": 64, "value": 71}, "group": "control_change"}, {"time": 1796, "annotation": {"number": 64, "value": 0}, "group": "control_change"}, {"time": 1797, "annotation": {"number": 64, "value": 71}, "group": "control_change"}, {"time": 1798, "annotation": {"number": 64, "value": 127}, "group": "control_change"}, {"time": 1810, "annotation": {"number": 64, "value": 71}, "group": "control_change"}, {"time": 1810, "annotation": {"number": 64, "value": 0}, "group": "control_change"}, {"time": 1812, "annotation": {"number": 64, "value": 71}, "group": "control_change"}, {"time": 1812, "annotation": {"number": 64, "value": 127}, "group": "control_change"}, {"time": 1824, "annotation": {"number": 64, "value": 71}, "group": "control_change"}, {"time": 1825, "annotation": {"number": 64, "value": 0}, "group": "control_change"}, {"time": 1826, "annotation": {"number": 64, "value": 71}, "group": "control_change"}, {"time": 1826, "annotation": {"number": 64, "value": 127}, "group": "control_change"}, {"time": 1852, "annotation": {"number": 64, "value": 71}, "group": "control_change"}, {"time": 1869, "annotation": {"number": 64, "value": 0}, "group": "control_change"}]}]}