{"metadata": {"schema_version": "0.2", "title": "None", "source_filename": "220.mid", "source_format": "midi"}, "resolution": 12, "tempos": [{"time": 0, "qpm": 124.00101680833782}], "time_signatures": [{"time": 0, "numerator": 4, "denominator": 4}], "tracks": [{"program": 4, "is_drum": false, "name": "MELODY", "notes": [{"time": 383, "pitch": 56, "duration": 6, "velocity": 73}, {"time": 389, "pitch": 58, "duration": 6, "velocity": 66}, {"time": 395, "pitch": 60, "duration": 12, "velocity": 90}, {"time": 407, "pitch": 60, "duration": 12, "velocity": 94}, {"time": 419, "pitch": 58, "duration": 12, "velocity": 83}, {"time": 431, "pitch": 60, "duration": 12, "velocity": 77}, {"time": 443, "pitch": 58, "duration": 6, "velocity": 79}, {"time": 449, "pitch": 56, "duration": 6, "velocity": 66}, {"time": 455, "pitch": 56, "duration": 6, "velocity": 63}, {"time": 461, "pitch": 53, "duration": 18, "velocity": 66}, {"time": 479, "pitch": 48, "duration": 6, "velocity": 86}, {"time": 485, "pitch": 53, "duration": 6, "velocity": 84}, {"time": 491, "pitch": 51, "duration": 18, "velocity": 82}, {"time": 509, "pitch": 53, "duration": 6, "velocity": 87}, {"time": 515, "pitch": 55, "duration": 9, "velocity": 79}, {"time": 524, "pitch": 53, "duration": 9, "velocity": 86}, {"time": 533, "pitch": 51, "duration": 6, "velocity": 85}, {"time": 539, "pitch": 53, "duration": 24, "velocity": 94}, {"time": 563, "pitch": 56, "duration": 6, "velocity": 100}, {"time": 569, "pitch": 55, "duration": 6, "velocity": 87}, {"time": 575, "pitch": 53, "duration": 6, "velocity": 86}, {"time": 581, "pitch": 55, "duration": 6, "velocity": 85}, {"time": 587, "pitch": 53, "duration": 66, "velocity": 90}, {"time": 659, "pitch": 56, "duration": 6, "velocity": 76}, {"time": 665, "pitch": 55, "duration": 6, "velocity": 67}, {"time": 671, "pitch": 53, "duration": 6, "velocity": 66}, {"time": 677, "pitch": 55, "duration": 12, "velocity": 80}, {"time": 689, "pitch": 53, "duration": 78, "velocity": 76}, {"time": 767, "pitch": 56, "duration": 6, "velocity": 95}, {"time": 773, "pitch": 58, "duration": 6, "velocity": 84}, {"time": 779, "pitch": 60, "duration": 24, "velocity": 97}, {"time": 803, "pitch": 58, "duration": 12, "velocity": 93}, {"time": 815, "pitch": 60, "duration": 12, "velocity": 91}, {"time": 827, "pitch": 58, "duration": 6, "velocity": 92}, {"time": 833, "pitch": 60, "duration": 6, "velocity": 76}, {"time": 839, "pitch": 63, "duration": 6, "velocity": 87}, {"time": 845, "pitch": 56, "duration": 24, "velocity": 89}, {"time": 869, "pitch": 60, "duration": 6, "velocity": 99}, {"time": 875, "pitch": 58, "duration": 12, "velocity": 97}, {"time": 887, "pitch": 58, "duration": 12, "velocity": 96}, {"time": 899, "pitch": 58, "duration": 6, "velocity": 93}, {"time": 905, "pitch": 56, "duration": 6, "velocity": 73}, {"time": 911, "pitch": 55, "duration": 9, "velocity": 66}, {"time": 916, "pitch": 56, "duration": 24, "velocity": 73}, {"time": 941, "pitch": 56, "duration": 6, "velocity": 97}, {"time": 947, "pitch": 56, "duration": 6, "velocity": 91}, {"time": 953, "pitch": 55, "duration": 6, "velocity": 90}, {"time": 959, "pitch": 53, "duration": 6, "velocity": 72}, {"time": 965, "pitch": 55, "duration": 6, "velocity": 79}, {"time": 971, "pitch": 56, "duration": 12, "velocity": 91}, {"time": 983, "pitch": 53, "duration": 54, "velocity": 86}, {"time": 1037, "pitch": 44, "duration": 6, "velocity": 53}, {"time": 1043, "pitch": 55, "duration": 6, "velocity": 66}, {"time": 1049, "pitch": 55, "duration": 6, "velocity": 66}, {"time": 1055, "pitch": 53, "duration": 6, "velocity": 74}, {"time": 1061, "pitch": 51, "duration": 6, "velocity": 79}, {"time": 1067, "pitch": 53, "duration": 6, "velocity": 93}, {"time": 1073, "pitch": 55, "duration": 12, "velocity": 85}, {"time": 1085, "pitch": 53, "duration": 96, "velocity": 91}, {"time": 1181, "pitch": 51, "duration": 6, "velocity": 65}, {"time": 1187, "pitch": 60, "duration": 12, "velocity": 72}, {"time": 1199, "pitch": 58, "duration": 6, "velocity": 91}, {"time": 1205, "pitch": 56, "duration": 6, "velocity": 81}, {"time": 1211, "pitch": 58, "duration": 12, "velocity": 92}, {"time": 1223, "pitch": 60, "duration": 6, "velocity": 82}, {"time": 1229, "pitch": 58, "duration": 12, "velocity": 91}, {"time": 1241, "pitch": 51, "duration": 24, "velocity": 87}, {"time": 1265, "pitch": 56, "duration": 6, "velocity": 62}, {"time": 1271, "pitch": 53, "duration": 6, "velocity": 65}, {"time": 1277, "pitch": 55, "duration": 6, "velocity": 61}, {"time": 1283, "pitch": 56, "duration": 6, "velocity": 61}, {"time": 1289, "pitch": 65, "duration": 6, "velocity": 47}, {"time": 1295, "pitch": 63, "duration": 6, "velocity": 68}, {"time": 1301, "pitch": 56, "duration": 6, "velocity": 63}, {"time": 1307, "pitch": 60, "duration": 30, "velocity": 92}, {"time": 1337, "pitch": 60, "duration": 6, "velocity": 98}, {"time": 1343, "pitch": 58, "duration": 6, "velocity": 90}, {"time": 1349, "pitch": 60, "duration": 6, "velocity": 93}, {"time": 1355, "pitch": 61, "duration": 48, "velocity": 92}, {"time": 1403, "pitch": 58, "duration": 18, "velocity": 94}, {"time": 1421, "pitch": 60, "duration": 18, "velocity": 91}, {"time": 1439, "pitch": 61, "duration": 12, "velocity": 95}, {"time": 1451, "pitch": 60, "duration": 66, "velocity": 100}, {"time": 1517, "pitch": 56, "duration": 6, "velocity": 91}, {"time": 1523, "pitch": 58, "duration": 6, "velocity": 87}, {"time": 1529, "pitch": 63, "duration": 18, "velocity": 91}, {"time": 1547, "pitch": 60, "duration": 18, "velocity": 101}, {"time": 1565, "pitch": 60, "duration": 12, "velocity": 98}, {"time": 1577, "pitch": 61, "duration": 6, "velocity": 95}, {"time": 1583, "pitch": 63, "duration": 6, "velocity": 91}, {"time": 1589, "pitch": 65, "duration": 6, "velocity": 87}, {"time": 1595, "pitch": 58, "duration": 18, "velocity": 91}, {"time": 1613, "pitch": 58, "duration": 12, "velocity": 91}, {"time": 1625, "pitch": 61, "duration": 6, "velocity": 99}, {"time": 1631, "pitch": 60, "duration": 6, "velocity": 90}, {"time": 1637, "pitch": 58, "duration": 6, "velocity": 86}, {"time": 1643, "pitch": 56, "duration": 18, "velocity": 93}, {"time": 1661, "pitch": 48, "duration": 12, "velocity": 79}, {"time": 1673, "pitch": 58, "duration": 6, "velocity": 81}, {"time": 1679, "pitch": 56, "duration": 6, "velocity": 92}, {"time": 1685, "pitch": 55, "duration": 6, "velocity": 82}, {"time": 1691, "pitch": 55, "duration": 12, "velocity": 94}, {"time": 1703, "pitch": 53, "duration": 18, "velocity": 85}, {"time": 1721, "pitch": 56, "duration": 6, "velocity": 97}, {"time": 1727, "pitch": 55, "duration": 6, "velocity": 92}, {"time": 1733, "pitch": 53, "duration": 6, "velocity": 73}, {"time": 1739, "pitch": 55, "duration": 12, "velocity": 91}, {"time": 1751, "pitch": 61, "duration": 6, "velocity": 100}, {"time": 1757, "pitch": 60, "duration": 6, "velocity": 85}, {"time": 1763, "pitch": 58, "duration": 12, "velocity": 90}, {"time": 1775, "pitch": 55, "duration": 6, "velocity": 79}, {"time": 1781, "pitch": 56, "duration": 36, "velocity": 94}, {"time": 1817, "pitch": 56, "duration": 6, "velocity": 91}, {"time": 1823, "pitch": 58, "duration": 6, "velocity": 84}, {"time": 1829, "pitch": 60, "duration": 6, "velocity": 92}, {"time": 1835, "pitch": 65, "duration": 18, "velocity": 91}, {"time": 1853, "pitch": 60, "duration": 6, "velocity": 92}, {"time": 1859, "pitch": 61, "duration": 12, "velocity": 101}, {"time": 1871, "pitch": 63, "duration": 6, "velocity": 87}, {"time": 1877, "pitch": 60, "duration": 12, "velocity": 79}, {"time": 1889, "pitch": 58, "duration": 12, "velocity": 85}, {"time": 1901, "pitch": 56, "duration": 6, "velocity": 94}, {"time": 1907, "pitch": 58, "duration": 6, "velocity": 86}, {"time": 1913, "pitch": 63, "duration": 18, "velocity": 87}, {"time": 1931, "pitch": 60, "duration": 18, "velocity": 105}, {"time": 1949, "pitch": 60, "duration": 9, "velocity": 98}, {"time": 1961, "pitch": 61, "duration": 9, "velocity": 98}, {"time": 1967, "pitch": 63, "duration": 9, "velocity": 95}, {"time": 1973, "pitch": 65, "duration": 7, "velocity": 95}, {"time": 1979, "pitch": 58, "duration": 15, "velocity": 96}, {"time": 1997, "pitch": 58, "duration": 12, "velocity": 99}, {"time": 2009, "pitch": 61, "duration": 6, "velocity": 97}, {"time": 2015, "pitch": 60, "duration": 6, "velocity": 90}, {"time": 2021, "pitch": 58, "duration": 6, "velocity": 87}, {"time": 2027, "pitch": 56, "duration": 21, "velocity": 97}, {"time": 2045, "pitch": 48, "duration": 9, "velocity": 83}, {"time": 2051, "pitch": 58, "duration": 9, "velocity": 84}, {"time": 2063, "pitch": 56, "duration": 6, "velocity": 95}, {"time": 2069, "pitch": 55, "duration": 6, "velocity": 91}, {"time": 2075, "pitch": 56, "duration": 9, "velocity": 91}, {"time": 2084, "pitch": 53, "duration": 21, "velocity": 91}, {"time": 2105, "pitch": 56, "duration": 6, "velocity": 101}, {"time": 2111, "pitch": 55, "duration": 6, "velocity": 90}, {"time": 2117, "pitch": 53, "duration": 6, "velocity": 76}, {"time": 2123, "pitch": 55, "duration": 12, "velocity": 91}, {"time": 2135, "pitch": 61, "duration": 6, "velocity": 91}, {"time": 2141, "pitch": 60, "duration": 6, "velocity": 87}, {"time": 2147, "pitch": 58, "duration": 12, "velocity": 99}, {"time": 2159, "pitch": 60, "duration": 6, "velocity": 95}, {"time": 2165, "pitch": 58, "duration": 12, "velocity": 95}, {"time": 2177, "pitch": 56, "duration": 24, "velocity": 87}, {"time": 2201, "pitch": 56, "duration": 6, "velocity": 84}, {"time": 2207, "pitch": 58, "duration": 6, "velocity": 87}, {"time": 2213, "pitch": 60, "duration": 6, "velocity": 91}, {"time": 2219, "pitch": 65, "duration": 15, "velocity": 90}, {"time": 2237, "pitch": 63, "duration": 6, "velocity": 95}, {"time": 2243, "pitch": 60, "duration": 12, "velocity": 90}, {"time": 2255, "pitch": 56, "duration": 9, "velocity": 87}, {"time": 2261, "pitch": 58, "duration": 42, "velocity": 93}, {"time": 2303, "pitch": 56, "duration": 6, "velocity": 101}, {"time": 2309, "pitch": 55, "duration": 6, "velocity": 90}, {"time": 2315, "pitch": 56, "duration": 69, "velocity": 103}, {"time": 2909, "pitch": 51, "duration": 6, "velocity": 65}, {"time": 2915, "pitch": 60, "duration": 12, "velocity": 72}, {"time": 2927, "pitch": 58, "duration": 6, "velocity": 91}, {"time": 2933, "pitch": 56, "duration": 6, "velocity": 81}, {"time": 2939, "pitch": 58, "duration": 12, "velocity": 92}, {"time": 2951, "pitch": 60, "duration": 6, "velocity": 82}, {"time": 2957, "pitch": 58, "duration": 12, "velocity": 91}, {"time": 2969, "pitch": 51, "duration": 24, "velocity": 87}, {"time": 2993, "pitch": 56, "duration": 3, "velocity": 62}, {"time": 2999, "pitch": 53, "duration": 6, "velocity": 65}, {"time": 3005, "pitch": 55, "duration": 6, "velocity": 61}, {"time": 3011, "pitch": 56, "duration": 6, "velocity": 61}, {"time": 3017, "pitch": 65, "duration": 6, "velocity": 47}, {"time": 3023, "pitch": 63, "duration": 6, "velocity": 68}, {"time": 3029, "pitch": 56, "duration": 6, "velocity": 63}, {"time": 3035, "pitch": 60, "duration": 33, "velocity": 92}, {"time": 3065, "pitch": 60, "duration": 3, "velocity": 98}, {"time": 3071, "pitch": 58, "duration": 6, "velocity": 90}, {"time": 3077, "pitch": 60, "duration": 6, "velocity": 93}, {"time": 3083, "pitch": 61, "duration": 48, "velocity": 92}, {"time": 3131, "pitch": 58, "duration": 18, "velocity": 94}, {"time": 3149, "pitch": 60, "duration": 15, "velocity": 91}, {"time": 3167, "pitch": 61, "duration": 12, "velocity": 95}, {"time": 3179, "pitch": 60, "duration": 69, "velocity": 100}, {"time": 3245, "pitch": 56, "duration": 3, "velocity": 91}, {"time": 3251, "pitch": 58, "duration": 6, "velocity": 87}, {"time": 3257, "pitch": 63, "duration": 18, "velocity": 91}, {"time": 3275, "pitch": 60, "duration": 21, "velocity": 101}, {"time": 3293, "pitch": 60, "duration": 3, "velocity": 98}, {"time": 3305, "pitch": 61, "duration": 6, "velocity": 95}, {"time": 3311, "pitch": 63, "duration": 6, "velocity": 91}, {"time": 3317, "pitch": 65, "duration": 6, "velocity": 87}, {"time": 3323, "pitch": 58, "duration": 18, "velocity": 91}, {"time": 3341, "pitch": 58, "duration": 12, "velocity": 91}, {"time": 3353, "pitch": 61, "duration": 6, "velocity": 99}, {"time": 3359, "pitch": 60, "duration": 3, "velocity": 90}, {"time": 3365, "pitch": 58, "duration": 6, "velocity": 86}, {"time": 3371, "pitch": 56, "duration": 18, "velocity": 93}, {"time": 3389, "pitch": 48, "duration": 12, "velocity": 79}, {"time": 3401, "pitch": 58, "duration": 6, "velocity": 81}, {"time": 3407, "pitch": 56, "duration": 6, "velocity": 92}, {"time": 3413, "pitch": 55, "duration": 6, "velocity": 82}, {"time": 3419, "pitch": 55, "duration": 12, "velocity": 94}, {"time": 3431, "pitch": 53, "duration": 18, "velocity": 85}, {"time": 3449, "pitch": 56, "duration": 6, "velocity": 97}, {"time": 3455, "pitch": 55, "duration": 6, "velocity": 92}, {"time": 3461, "pitch": 53, "duration": 6, "velocity": 73}, {"time": 3467, "pitch": 55, "duration": 12, "velocity": 91}, {"time": 3479, "pitch": 61, "duration": 6, "velocity": 100}, {"time": 3485, "pitch": 60, "duration": 6, "velocity": 85}, {"time": 3491, "pitch": 58, "duration": 12, "velocity": 90}, {"time": 3503, "pitch": 55, "duration": 6, "velocity": 79}, {"time": 3509, "pitch": 56, "duration": 39, "velocity": 94}, {"time": 3545, "pitch": 56, "duration": 3, "velocity": 91}, {"time": 3551, "pitch": 58, "duration": 6, "velocity": 84}, {"time": 3557, "pitch": 60, "duration": 6, "velocity": 92}, {"time": 3563, "pitch": 65, "duration": 18, "velocity": 91}, {"time": 3581, "pitch": 60, "duration": 9, "velocity": 92}, {"time": 3587, "pitch": 61, "duration": 12, "velocity": 101}, {"time": 3599, "pitch": 63, "duration": 6, "velocity": 87}, {"time": 3605, "pitch": 60, "duration": 12, "velocity": 79}, {"time": 3617, "pitch": 58, "duration": 12, "velocity": 85}, {"time": 3629, "pitch": 56, "duration": 6, "velocity": 94}, {"time": 3635, "pitch": 58, "duration": 6, "velocity": 86}, {"time": 3641, "pitch": 63, "duration": 18, "velocity": 87}, {"time": 3659, "pitch": 60, "duration": 18, "velocity": 105}, {"time": 3677, "pitch": 60, "duration": 9, "velocity": 98}, {"time": 3689, "pitch": 61, "duration": 6, "velocity": 95}, {"time": 3695, "pitch": 63, "duration": 6, "velocity": 84}, {"time": 3701, "pitch": 65, "duration": 6, "velocity": 87}, {"time": 3707, "pitch": 58, "duration": 18, "velocity": 96}, {"time": 3725, "pitch": 58, "duration": 12, "velocity": 99}, {"time": 3737, "pitch": 61, "duration": 6, "velocity": 97}, {"time": 3743, "pitch": 60, "duration": 6, "velocity": 90}, {"time": 3749, "pitch": 58, "duration": 6, "velocity": 87}, {"time": 3755, "pitch": 56, "duration": 18, "velocity": 97}, {"time": 3773, "pitch": 48, "duration": 12, "velocity": 83}, {"time": 3785, "pitch": 58, "duration": 6, "velocity": 84}, {"time": 3791, "pitch": 56, "duration": 6, "velocity": 95}, {"time": 3797, "pitch": 55, "duration": 6, "velocity": 91}, {"time": 3803, "pitch": 56, "duration": 12, "velocity": 91}, {"time": 3815, "pitch": 53, "duration": 21, "velocity": 91}, {"time": 3833, "pitch": 56, "duration": 6, "velocity": 101}, {"time": 3839, "pitch": 55, "duration": 6, "velocity": 90}, {"time": 3845, "pitch": 53, "duration": 6, "velocity": 76}, {"time": 3851, "pitch": 55, "duration": 12, "velocity": 91}, {"time": 3863, "pitch": 61, "duration": 6, "velocity": 91}, {"time": 3869, "pitch": 60, "duration": 6, "velocity": 87}, {"time": 3875, "pitch": 58, "duration": 12, "velocity": 99}, {"time": 3887, "pitch": 60, "duration": 6, "velocity": 95}, {"time": 3893, "pitch": 58, "duration": 12, "velocity": 95}, {"time": 3905, "pitch": 56, "duration": 24, "velocity": 87}, {"time": 3929, "pitch": 56, "duration": 6, "velocity": 84}, {"time": 3935, "pitch": 58, "duration": 6, "velocity": 87}, {"time": 3941, "pitch": 60, "duration": 6, "velocity": 91}, {"time": 3947, "pitch": 65, "duration": 15, "velocity": 90}, {"time": 3965, "pitch": 63, "duration": 6, "velocity": 95}, {"time": 3971, "pitch": 60, "duration": 12, "velocity": 90}, {"time": 3983, "pitch": 56, "duration": 6, "velocity": 87}, {"time": 3989, "pitch": 58, "duration": 42, "velocity": 93}, {"time": 4031, "pitch": 56, "duration": 6, "velocity": 101}, {"time": 4037, "pitch": 55, "duration": 6, "velocity": 90}, {"time": 4043, "pitch": 56, "duration": 96, "velocity": 103}, {"time": 4175, "pitch": 56, "duration": 6, "velocity": 72}, {"time": 4181, "pitch": 58, "duration": 6, "velocity": 75}, {"time": 4187, "pitch": 60, "duration": 12, "velocity": 82}, {"time": 4199, "pitch": 60, "duration": 12, "velocity": 87}, {"time": 4211, "pitch": 58, "duration": 12, "velocity": 77}, {"time": 4223, "pitch": 60, "duration": 12, "velocity": 87}, {"time": 4235, "pitch": 58, "duration": 6, "velocity": 71}, {"time": 4241, "pitch": 60, "duration": 6, "velocity": 81}, {"time": 4247, "pitch": 63, "duration": 6, "velocity": 83}, {"time": 4253, "pitch": 56, "duration": 21, "velocity": 66}, {"time": 4277, "pitch": 60, "duration": 6, "velocity": 99}, {"time": 4283, "pitch": 58, "duration": 15, "velocity": 95}, {"time": 4295, "pitch": 58, "duration": 3, "velocity": 91}, {"time": 4307, "pitch": 58, "duration": 6, "velocity": 93}, {"time": 4313, "pitch": 56, "duration": 6, "velocity": 71}, {"time": 4319, "pitch": 55, "duration": 6, "velocity": 72}, {"time": 4325, "pitch": 56, "duration": 24, "velocity": 86}, {"time": 4349, "pitch": 48, "duration": 6, "velocity": 60}, {"time": 4355, "pitch": 56, "duration": 6, "velocity": 66}, {"time": 4361, "pitch": 55, "duration": 6, "velocity": 59}, {"time": 4367, "pitch": 53, "duration": 6, "velocity": 68}, {"time": 4373, "pitch": 55, "duration": 6, "velocity": 69}, {"time": 4379, "pitch": 53, "duration": 66, "velocity": 80}, {"time": 4445, "pitch": 51, "duration": 6, "velocity": 66}, {"time": 4451, "pitch": 60, "duration": 6, "velocity": 75}, {"time": 4457, "pitch": 58, "duration": 6, "velocity": 62}, {"time": 4463, "pitch": 56, "duration": 6, "velocity": 80}, {"time": 4469, "pitch": 58, "duration": 6, "velocity": 82}, {"time": 4475, "pitch": 56, "duration": 96, "velocity": 95}]}, {"program": 0, "is_drum": false, "name": "PIANO", "notes": [{"time": 11, "pitch": 44, "duration": 16, "velocity": 73}, {"time": 17, "pitch": 51, "duration": 13, "velocity": 58}, {"time": 23, "pitch": 56, "duration": 4, "velocity": 75}, {"time": 29, "pitch": 63, "duration": 17, "velocity": 72}, {"time": 35, "pitch": 43, "duration": 18, "velocity": 64}, {"time": 41, "pitch": 51, "duration": 11, "velocity": 61}, {"time": 47, "pitch": 55, "duration": 4, "velocity": 45}, {"time": 53, "pitch": 63, "duration": 6, "velocity": 70}, {"time": 59, "pitch": 41, "duration": 38, "velocity": 73}, {"time": 65, "pitch": 48, "duration": 31, "velocity": 62}, {"time": 71, "pitch": 53, "duration": 24, "velocity": 64}, {"time": 77, "pitch": 56, "duration": 8, "velocity": 63}, {"time": 83, "pitch": 60, "duration": 35, "velocity": 70}, {"time": 107, "pitch": 39, "duration": 42, "velocity": 67}, {"time": 113, "pitch": 46, "duration": 42, "velocity": 57}, {"time": 119, "pitch": 51, "duration": 35, "velocity": 54}, {"time": 125, "pitch": 53, "duration": 7, "velocity": 51}, {"time": 131, "pitch": 55, "duration": 15, "velocity": 55}, {"time": 131, "pitch": 58, "duration": 22, "velocity": 63}, {"time": 155, "pitch": 41, "duration": 30, "velocity": 63}, {"time": 155, "pitch": 56, "duration": 28, "velocity": 58}, {"time": 155, "pitch": 60, "duration": 30, "velocity": 53}, {"time": 203, "pitch": 44, "duration": 16, "velocity": 72}, {"time": 209, "pitch": 51, "duration": 13, "velocity": 61}, {"time": 215, "pitch": 56, "duration": 5, "velocity": 57}, {"time": 221, "pitch": 63, "duration": 17, "velocity": 72}, {"time": 227, "pitch": 43, "duration": 16, "velocity": 66}, {"time": 233, "pitch": 51, "duration": 11, "velocity": 59}, {"time": 239, "pitch": 55, "duration": 4, "velocity": 61}, {"time": 245, "pitch": 63, "duration": 13, "velocity": 67}, {"time": 251, "pitch": 41, "duration": 37, "velocity": 63}, {"time": 257, "pitch": 48, "duration": 31, "velocity": 57}, {"time": 263, "pitch": 53, "duration": 24, "velocity": 59}, {"time": 269, "pitch": 56, "duration": 8, "velocity": 66}, {"time": 275, "pitch": 60, "duration": 34, "velocity": 62}, {"time": 299, "pitch": 39, "duration": 34, "velocity": 69}, {"time": 305, "pitch": 46, "duration": 29, "velocity": 55}, {"time": 311, "pitch": 51, "duration": 23, "velocity": 57}, {"time": 317, "pitch": 53, "duration": 8, "velocity": 48}, {"time": 323, "pitch": 55, "duration": 11, "velocity": 63}, {"time": 347, "pitch": 41, "duration": 24, "velocity": 61}, {"time": 347, "pitch": 53, "duration": 23, "velocity": 53}, {"time": 347, "pitch": 56, "duration": 24, "velocity": 55}, {"time": 347, "pitch": 60, "duration": 25, "velocity": 55}, {"time": 395, "pitch": 44, "duration": 17, "velocity": 64}, {"time": 401, "pitch": 51, "duration": 13, "velocity": 56}, {"time": 407, "pitch": 56, "duration": 5, "velocity": 52}, {"time": 413, "pitch": 63, "duration": 15, "velocity": 69}, {"time": 419, "pitch": 43, "duration": 17, "velocity": 63}, {"time": 425, "pitch": 51, "duration": 10, "velocity": 54}, {"time": 431, "pitch": 55, "duration": 5, "velocity": 55}, {"time": 437, "pitch": 63, "duration": 12, "velocity": 62}, {"time": 443, "pitch": 41, "duration": 36, "velocity": 66}, {"time": 449, "pitch": 48, "duration": 30, "velocity": 59}, {"time": 455, "pitch": 53, "duration": 24, "velocity": 56}, {"time": 461, "pitch": 56, "duration": 21, "velocity": 57}, {"time": 467, "pitch": 60, "duration": 14, "velocity": 62}, {"time": 491, "pitch": 39, "duration": 37, "velocity": 58}, {"time": 491, "pitch": 55, "duration": 12, "velocity": 52}, {"time": 491, "pitch": 58, "duration": 12, "velocity": 51}, {"time": 497, "pitch": 46, "duration": 32, "velocity": 46}, {"time": 503, "pitch": 51, "duration": 25, "velocity": 44}, {"time": 509, "pitch": 55, "duration": 17, "velocity": 34}, {"time": 515, "pitch": 58, "duration": 15, "velocity": 45}, {"time": 539, "pitch": 41, "duration": 34, "velocity": 60}, {"time": 539, "pitch": 56, "duration": 13, "velocity": 52}, {"time": 539, "pitch": 60, "duration": 13, "velocity": 53}, {"time": 545, "pitch": 48, "duration": 29, "velocity": 44}, {"time": 551, "pitch": 53, "duration": 23, "velocity": 44}, {"time": 557, "pitch": 55, "duration": 6, "velocity": 32}, {"time": 563, "pitch": 56, "duration": 8, "velocity": 46}, {"time": 587, "pitch": 37, "duration": 37, "velocity": 53}, {"time": 587, "pitch": 53, "duration": 15, "velocity": 46}, {"time": 587, "pitch": 60, "duration": 13, "velocity": 58}, {"time": 593, "pitch": 44, "duration": 32, "velocity": 45}, {"time": 599, "pitch": 49, "duration": 25, "velocity": 51}, {"time": 605, "pitch": 56, "duration": 9, "velocity": 50}, {"time": 611, "pitch": 61, "duration": 13, "velocity": 67}, {"time": 635, "pitch": 39, "duration": 37, "velocity": 64}, {"time": 635, "pitch": 55, "duration": 11, "velocity": 52}, {"time": 635, "pitch": 58, "duration": 11, "velocity": 59}, {"time": 635, "pitch": 63, "duration": 11, "velocity": 58}, {"time": 641, "pitch": 46, "duration": 33, "velocity": 57}, {"time": 647, "pitch": 51, "duration": 27, "velocity": 57}, {"time": 653, "pitch": 55, "duration": 7, "velocity": 44}, {"time": 659, "pitch": 60, "duration": 19, "velocity": 59}, {"time": 683, "pitch": 53, "duration": 41, "velocity": 78}, {"time": 689, "pitch": 60, "duration": 37, "velocity": 54}, {"time": 695, "pitch": 67, "duration": 8, "velocity": 47}, {"time": 701, "pitch": 68, "duration": 6, "velocity": 79}, {"time": 707, "pitch": 72, "duration": 8, "velocity": 97}, {"time": 713, "pitch": 67, "duration": 9, "velocity": 33}, {"time": 719, "pitch": 68, "duration": 6, "velocity": 69}, {"time": 725, "pitch": 72, "duration": 14, "velocity": 78}, {"time": 731, "pitch": 53, "duration": 37, "velocity": 63}, {"time": 737, "pitch": 60, "duration": 29, "velocity": 56}, {"time": 743, "pitch": 67, "duration": 8, "velocity": 35}, {"time": 749, "pitch": 68, "duration": 6, "velocity": 70}, {"time": 755, "pitch": 72, "duration": 7, "velocity": 81}, {"time": 761, "pitch": 67, "duration": 8, "velocity": 37}, {"time": 767, "pitch": 68, "duration": 7, "velocity": 74}, {"time": 773, "pitch": 72, "duration": 5, "velocity": 76}, {"time": 779, "pitch": 44, "duration": 16, "velocity": 73}, {"time": 779, "pitch": 60, "duration": 11, "velocity": 58}, {"time": 779, "pitch": 63, "duration": 11, "velocity": 58}, {"time": 779, "pitch": 68, "duration": 9, "velocity": 57}, {"time": 785, "pitch": 51, "duration": 19, "velocity": 61}, {"time": 791, "pitch": 56, "duration": 5, "velocity": 53}, {"time": 797, "pitch": 60, "duration": 3, "velocity": 51}, {"time": 803, "pitch": 43, "duration": 18, "velocity": 66}, {"time": 803, "pitch": 58, "duration": 5, "velocity": 61}, {"time": 803, "pitch": 63, "duration": 10, "velocity": 57}, {"time": 809, "pitch": 51, "duration": 12, "velocity": 62}, {"time": 815, "pitch": 55, "duration": 4, "velocity": 60}, {"time": 821, "pitch": 63, "duration": 20, "velocity": 64}, {"time": 827, "pitch": 41, "duration": 39, "velocity": 69}, {"time": 833, "pitch": 48, "duration": 32, "velocity": 58}, {"time": 839, "pitch": 53, "duration": 19, "velocity": 56}, {"time": 845, "pitch": 56, "duration": 9, "velocity": 53}, {"time": 851, "pitch": 60, "duration": 18, "velocity": 73}, {"time": 875, "pitch": 39, "duration": 38, "velocity": 66}, {"time": 875, "pitch": 55, "duration": 12, "velocity": 67}, {"time": 875, "pitch": 58, "duration": 12, "velocity": 64}, {"time": 881, "pitch": 46, "duration": 32, "velocity": 51}, {"time": 887, "pitch": 51, "duration": 17, "velocity": 62}, {"time": 893, "pitch": 55, "duration": 8, "velocity": 56}, {"time": 899, "pitch": 56, "duration": 18, "velocity": 72}, {"time": 923, "pitch": 41, "duration": 35, "velocity": 66}, {"time": 923, "pitch": 56, "duration": 13, "velocity": 51}, {"time": 923, "pitch": 60, "duration": 11, "velocity": 50}, {"time": 929, "pitch": 48, "duration": 29, "velocity": 44}, {"time": 935, "pitch": 53, "duration": 23, "velocity": 51}, {"time": 941, "pitch": 55, "duration": 7, "velocity": 40}, {"time": 947, "pitch": 56, "duration": 13, "velocity": 52}, {"time": 971, "pitch": 37, "duration": 39, "velocity": 64}, {"time": 971, "pitch": 53, "duration": 13, "velocity": 51}, {"time": 971, "pitch": 56, "duration": 12, "velocity": 55}, {"time": 971, "pitch": 60, "duration": 11, "velocity": 56}, {"time": 977, "pitch": 44, "duration": 36, "velocity": 50}, {"time": 983, "pitch": 49, "duration": 19, "velocity": 61}, {"time": 989, "pitch": 53, "duration": 13, "velocity": 54}, {"time": 1001, "pitch": 60, "duration": 10, "velocity": 70}, {"time": 1007, "pitch": 49, "duration": 6, "velocity": 41}, {"time": 1013, "pitch": 53, "duration": 7, "velocity": 40}, {"time": 1019, "pitch": 39, "duration": 38, "velocity": 53}, {"time": 1019, "pitch": 55, "duration": 19, "velocity": 45}, {"time": 1019, "pitch": 58, "duration": 18, "velocity": 58}, {"time": 1019, "pitch": 63, "duration": 21, "velocity": 49}, {"time": 1037, "pitch": 51, "duration": 27, "velocity": 39}, {"time": 1043, "pitch": 55, "duration": 15, "velocity": 56}, {"time": 1055, "pitch": 58, "duration": 10, "velocity": 63}, {"time": 1067, "pitch": 53, "duration": 43, "velocity": 84}, {"time": 1073, "pitch": 60, "duration": 37, "velocity": 59}, {"time": 1079, "pitch": 67, "duration": 8, "velocity": 48}, {"time": 1085, "pitch": 68, "duration": 6, "velocity": 82}, {"time": 1091, "pitch": 72, "duration": 5, "velocity": 90}, {"time": 1097, "pitch": 67, "duration": 9, "velocity": 48}, {"time": 1103, "pitch": 68, "duration": 16, "velocity": 63}, {"time": 1109, "pitch": 72, "duration": 12, "velocity": 78}, {"time": 1115, "pitch": 53, "duration": 37, "velocity": 70}, {"time": 1121, "pitch": 60, "duration": 30, "velocity": 59}, {"time": 1127, "pitch": 67, "duration": 7, "velocity": 47}, {"time": 1133, "pitch": 68, "duration": 5, "velocity": 79}, {"time": 1139, "pitch": 75, "duration": 13, "velocity": 56}, {"time": 1163, "pitch": 44, "duration": 44, "velocity": 73}, {"time": 1163, "pitch": 60, "duration": 13, "velocity": 64}, {"time": 1163, "pitch": 63, "duration": 13, "velocity": 67}, {"time": 1163, "pitch": 68, "duration": 15, "velocity": 70}, {"time": 1169, "pitch": 51, "duration": 13, "velocity": 53}, {"time": 1175, "pitch": 56, "duration": 14, "velocity": 72}, {"time": 1181, "pitch": 58, "duration": 3, "velocity": 78}, {"time": 1181, "pitch": 67, "duration": 5, "velocity": 66}, {"time": 1187, "pitch": 60, "duration": 7, "velocity": 88}, {"time": 1187, "pitch": 63, "duration": 5, "velocity": 82}, {"time": 1187, "pitch": 68, "duration": 5, "velocity": 73}, {"time": 1193, "pitch": 51, "duration": 10, "velocity": 51}, {"time": 1199, "pitch": 63, "duration": 2, "velocity": 63}, {"time": 1199, "pitch": 70, "duration": 7, "velocity": 76}, {"time": 1205, "pitch": 51, "duration": 6, "velocity": 73}, {"time": 1205, "pitch": 56, "duration": 2, "velocity": 44}, {"time": 1211, "pitch": 43, "duration": 39, "velocity": 58}, {"time": 1211, "pitch": 58, "duration": 12, "velocity": 62}, {"time": 1211, "pitch": 63, "duration": 12, "velocity": 69}, {"time": 1211, "pitch": 67, "duration": 12, "velocity": 73}, {"time": 1217, "pitch": 51, "duration": 18, "velocity": 60}, {"time": 1223, "pitch": 55, "duration": 19, "velocity": 67}, {"time": 1229, "pitch": 58, "duration": 14, "velocity": 66}, {"time": 1235, "pitch": 63, "duration": 9, "velocity": 69}, {"time": 1241, "pitch": 51, "duration": 9, "velocity": 70}, {"time": 1247, "pitch": 55, "duration": 4, "velocity": 67}, {"time": 1253, "pitch": 43, "duration": 3, "velocity": 69}, {"time": 1259, "pitch": 37, "duration": 14, "velocity": 72}, {"time": 1259, "pitch": 56, "duration": 12, "velocity": 67}, {"time": 1259, "pitch": 61, "duration": 13, "velocity": 73}, {"time": 1259, "pitch": 65, "duration": 13, "velocity": 67}, {"time": 1265, "pitch": 44, "duration": 30, "velocity": 56}, {"time": 1271, "pitch": 49, "duration": 9, "velocity": 63}, {"time": 1277, "pitch": 56, "duration": 3, "velocity": 63}, {"time": 1283, "pitch": 63, "duration": 7, "velocity": 63}, {"time": 1283, "pitch": 67, "duration": 8, "velocity": 70}, {"time": 1289, "pitch": 58, "duration": 4, "velocity": 47}, {"time": 1295, "pitch": 63, "duration": 8, "velocity": 70}, {"time": 1301, "pitch": 65, "duration": 5, "velocity": 64}, {"time": 1307, "pitch": 44, "duration": 33, "velocity": 72}, {"time": 1307, "pitch": 60, "duration": 9, "velocity": 67}, {"time": 1307, "pitch": 63, "duration": 10, "velocity": 73}, {"time": 1307, "pitch": 68, "duration": 10, "velocity": 70}, {"time": 1313, "pitch": 51, "duration": 25, "velocity": 44}, {"time": 1319, "pitch": 56, "duration": 19, "velocity": 64}, {"time": 1325, "pitch": 63, "duration": 5, "velocity": 64}, {"time": 1331, "pitch": 72, "duration": 6, "velocity": 75}, {"time": 1337, "pitch": 70, "duration": 4, "velocity": 59}, {"time": 1343, "pitch": 68, "duration": 3, "velocity": 51}, {"time": 1349, "pitch": 70, "duration": 4, "velocity": 55}, {"time": 1355, "pitch": 46, "duration": 40, "velocity": 70}, {"time": 1355, "pitch": 61, "duration": 13, "velocity": 70}, {"time": 1355, "pitch": 65, "duration": 13, "velocity": 72}, {"time": 1361, "pitch": 53, "duration": 23, "velocity": 56}, {"time": 1367, "pitch": 58, "duration": 22, "velocity": 54}, {"time": 1373, "pitch": 60, "duration": 9, "velocity": 67}, {"time": 1373, "pitch": 63, "duration": 10, "velocity": 73}, {"time": 1385, "pitch": 61, "duration": 2, "velocity": 70}, {"time": 1385, "pitch": 65, "duration": 3, "velocity": 70}, {"time": 1391, "pitch": 53, "duration": 11, "velocity": 57}, {"time": 1403, "pitch": 42, "duration": 39, "velocity": 85}, {"time": 1403, "pitch": 58, "duration": 12, "velocity": 69}, {"time": 1403, "pitch": 61, "duration": 14, "velocity": 72}, {"time": 1403, "pitch": 66, "duration": 13, "velocity": 69}, {"time": 1409, "pitch": 49, "duration": 28, "velocity": 62}, {"time": 1415, "pitch": 54, "duration": 19, "velocity": 76}, {"time": 1421, "pitch": 58, "duration": 10, "velocity": 99}, {"time": 1433, "pitch": 58, "duration": 2, "velocity": 48}, {"time": 1433, "pitch": 61, "duration": 7, "velocity": 70}, {"time": 1433, "pitch": 66, "duration": 7, "velocity": 88}, {"time": 1439, "pitch": 49, "duration": 2, "velocity": 55}, {"time": 1439, "pitch": 54, "duration": 2, "velocity": 85}, {"time": 1451, "pitch": 36, "duration": 35, "velocity": 73}, {"time": 1451, "pitch": 60, "duration": 9, "velocity": 82}, {"time": 1451, "pitch": 65, "duration": 11, "velocity": 95}, {"time": 1451, "pitch": 67, "duration": 10, "velocity": 88}, {"time": 1457, "pitch": 48, "duration": 23, "velocity": 60}, {"time": 1463, "pitch": 60, "duration": 4, "velocity": 70}, {"time": 1469, "pitch": 60, "duration": 2, "velocity": 45}, {"time": 1469, "pitch": 65, "duration": 11, "velocity": 91}, {"time": 1481, "pitch": 60, "duration": 2, "velocity": 72}, {"time": 1481, "pitch": 67, "duration": 4, "velocity": 97}, {"time": 1487, "pitch": 48, "duration": 3, "velocity": 67}, {"time": 1499, "pitch": 36, "duration": 11, "velocity": 73}, {"time": 1499, "pitch": 48, "duration": 7, "velocity": 72}, {"time": 1499, "pitch": 60, "duration": 13, "velocity": 70}, {"time": 1499, "pitch": 64, "duration": 12, "velocity": 95}, {"time": 1499, "pitch": 67, "duration": 13, "velocity": 78}, {"time": 1511, "pitch": 48, "duration": 3, "velocity": 61}, {"time": 1523, "pitch": 39, "duration": 12, "velocity": 76}, {"time": 1523, "pitch": 51, "duration": 14, "velocity": 88}, {"time": 1523, "pitch": 58, "duration": 14, "velocity": 73}, {"time": 1523, "pitch": 63, "duration": 14, "velocity": 82}, {"time": 1523, "pitch": 67, "duration": 14, "velocity": 73}, {"time": 1535, "pitch": 65, "duration": 7, "velocity": 67}, {"time": 1541, "pitch": 67, "duration": 5, "velocity": 73}, {"time": 1547, "pitch": 44, "duration": 37, "velocity": 73}, {"time": 1547, "pitch": 63, "duration": 11, "velocity": 73}, {"time": 1547, "pitch": 72, "duration": 8, "velocity": 75}, {"time": 1553, "pitch": 51, "duration": 32, "velocity": 72}, {"time": 1559, "pitch": 56, "duration": 13, "velocity": 75}, {"time": 1565, "pitch": 60, "duration": 4, "velocity": 64}, {"time": 1571, "pitch": 60, "duration": 9, "velocity": 76}, {"time": 1571, "pitch": 63, "duration": 10, "velocity": 85}, {"time": 1571, "pitch": 68, "duration": 8, "velocity": 78}, {"time": 1577, "pitch": 56, "duration": 6, "velocity": 70}, {"time": 1583, "pitch": 60, "duration": 4, "velocity": 75}, {"time": 1589, "pitch": 70, "duration": 4, "velocity": 73}, {"time": 1595, "pitch": 43, "duration": 39, "velocity": 72}, {"time": 1595, "pitch": 58, "duration": 14, "velocity": 91}, {"time": 1595, "pitch": 63, "duration": 13, "velocity": 88}, {"time": 1595, "pitch": 67, "duration": 13, "velocity": 73}, {"time": 1601, "pitch": 51, "duration": 28, "velocity": 60}, {"time": 1607, "pitch": 55, "duration": 18, "velocity": 60}, {"time": 1613, "pitch": 58, "duration": 4, "velocity": 62}, {"time": 1619, "pitch": 63, "duration": 5, "velocity": 93}, {"time": 1625, "pitch": 63, "duration": 1, "velocity": 59}, {"time": 1625, "pitch": 65, "duration": 5, "velocity": 88}, {"time": 1631, "pitch": 51, "duration": 3, "velocity": 49}, {"time": 1631, "pitch": 55, "duration": 2, "velocity": 70}, {"time": 1631, "pitch": 67, "duration": 10, "velocity": 78}, {"time": 1637, "pitch": 70, "duration": 2, "velocity": 66}, {"time": 1643, "pitch": 41, "duration": 38, "velocity": 75}, {"time": 1643, "pitch": 60, "duration": 7, "velocity": 88}, {"time": 1643, "pitch": 68, "duration": 10, "velocity": 78}, {"time": 1649, "pitch": 48, "duration": 23, "velocity": 59}, {"time": 1655, "pitch": 58, "duration": 2, "velocity": 69}, {"time": 1655, "pitch": 67, "duration": 5, "velocity": 78}, {"time": 1661, "pitch": 60, "duration": 8, "velocity": 91}, {"time": 1661, "pitch": 68, "duration": 10, "velocity": 67}, {"time": 1667, "pitch": 53, "duration": 9, "velocity": 72}, {"time": 1673, "pitch": 60, "duration": 2, "velocity": 57}, {"time": 1673, "pitch": 65, "duration": 10, "velocity": 95}, {"time": 1679, "pitch": 48, "duration": 10, "velocity": 62}, {"time": 1685, "pitch": 68, "duration": 4, "velocity": 76}, {"time": 1691, "pitch": 37, "duration": 14, "velocity": 73}, {"time": 1691, "pitch": 49, "duration": 7, "velocity": 70}, {"time": 1691, "pitch": 56, "duration": 12, "velocity": 76}, {"time": 1691, "pitch": 61, "duration": 14, "velocity": 78}, {"time": 1691, "pitch": 65, "duration": 14, "velocity": 78}, {"time": 1703, "pitch": 49, "duration": 2, "velocity": 59}, {"time": 1715, "pitch": 37, "duration": 15, "velocity": 69}, {"time": 1715, "pitch": 49, "duration": 5, "velocity": 88}, {"time": 1715, "pitch": 56, "duration": 14, "velocity": 73}, {"time": 1715, "pitch": 61, "duration": 15, "velocity": 73}, {"time": 1715, "pitch": 64, "duration": 15, "velocity": 88}, {"time": 1715, "pitch": 68, "duration": 21, "velocity": 73}, {"time": 1727, "pitch": 49, "duration": 3, "velocity": 91}, {"time": 1739, "pitch": 36, "duration": 36, "velocity": 72}, {"time": 1739, "pitch": 48, "duration": 27, "velocity": 88}, {"time": 1739, "pitch": 58, "duration": 19, "velocity": 78}, {"time": 1739, "pitch": 63, "duration": 19, "velocity": 82}, {"time": 1739, "pitch": 68, "duration": 18, "velocity": 80}, {"time": 1763, "pitch": 58, "duration": 13, "velocity": 69}, {"time": 1763, "pitch": 63, "duration": 12, "velocity": 69}, {"time": 1763, "pitch": 67, "duration": 13, "velocity": 73}, {"time": 1775, "pitch": 48, "duration": 3, "velocity": 70}, {"time": 1787, "pitch": 41, "duration": 33, "velocity": 69}, {"time": 1787, "pitch": 53, "duration": 13, "velocity": 80}, {"time": 1787, "pitch": 60, "duration": 19, "velocity": 76}, {"time": 1787, "pitch": 63, "duration": 18, "velocity": 82}, {"time": 1787, "pitch": 68, "duration": 19, "velocity": 75}, {"time": 1805, "pitch": 53, "duration": 8, "velocity": 44}, {"time": 1811, "pitch": 60, "duration": 8, "velocity": 72}, {"time": 1811, "pitch": 63, "duration": 7, "velocity": 76}, {"time": 1811, "pitch": 68, "duration": 8, "velocity": 73}, {"time": 1817, "pitch": 53, "duration": 5, "velocity": 50}, {"time": 1823, "pitch": 63, "duration": 6, "velocity": 72}, {"time": 1829, "pitch": 68, "duration": 6, "velocity": 75}, {"time": 1835, "pitch": 37, "duration": 33, "velocity": 70}, {"time": 1835, "pitch": 49, "duration": 11, "velocity": 62}, {"time": 1835, "pitch": 56, "duration": 19, "velocity": 75}, {"time": 1835, "pitch": 61, "duration": 18, "velocity": 73}, {"time": 1835, "pitch": 65, "duration": 19, "velocity": 76}, {"time": 1853, "pitch": 49, "duration": 9, "velocity": 50}, {"time": 1859, "pitch": 56, "duration": 8, "velocity": 73}, {"time": 1859, "pitch": 61, "duration": 8, "velocity": 73}, {"time": 1859, "pitch": 65, "duration": 9, "velocity": 72}, {"time": 1865, "pitch": 49, "duration": 5, "velocity": 59}, {"time": 1871, "pitch": 56, "duration": 4, "velocity": 62}, {"time": 1877, "pitch": 61, "duration": 2, "velocity": 72}, {"time": 1883, "pitch": 39, "duration": 36, "velocity": 61}, {"time": 1883, "pitch": 51, "duration": 9, "velocity": 59}, {"time": 1883, "pitch": 58, "duration": 14, "velocity": 70}, {"time": 1883, "pitch": 63, "duration": 14, "velocity": 76}, {"time": 1883, "pitch": 67, "duration": 15, "velocity": 72}, {"time": 1895, "pitch": 51, "duration": 7, "velocity": 46}, {"time": 1901, "pitch": 56, "duration": 3, "velocity": 88}, {"time": 1901, "pitch": 61, "duration": 4, "velocity": 76}, {"time": 1901, "pitch": 65, "duration": 9, "velocity": 76}, {"time": 1907, "pitch": 51, "duration": 7, "velocity": 52}, {"time": 1913, "pitch": 58, "duration": 3, "velocity": 85}, {"time": 1913, "pitch": 63, "duration": 4, "velocity": 76}, {"time": 1913, "pitch": 67, "duration": 3, "velocity": 85}, {"time": 1919, "pitch": 51, "duration": 3, "velocity": 69}, {"time": 1925, "pitch": 63, "duration": 11, "velocity": 59}, {"time": 1931, "pitch": 44, "duration": 9, "velocity": 70}, {"time": 1931, "pitch": 60, "duration": 5, "velocity": 69}, {"time": 1931, "pitch": 68, "duration": 7, "velocity": 76}, {"time": 1937, "pitch": 51, "duration": 5, "velocity": 61}, {"time": 1943, "pitch": 56, "duration": 7, "velocity": 50}, {"time": 1949, "pitch": 58, "duration": 14, "velocity": 69}, {"time": 1949, "pitch": 63, "duration": 3, "velocity": 55}, {"time": 1949, "pitch": 68, "duration": 3, "velocity": 63}, {"time": 1949, "pitch": 75, "duration": 4, "velocity": 69}, {"time": 1955, "pitch": 60, "duration": 8, "velocity": 73}, {"time": 1955, "pitch": 63, "duration": 6, "velocity": 78}, {"time": 1955, "pitch": 68, "duration": 6, "velocity": 75}, {"time": 1955, "pitch": 75, "duration": 7, "velocity": 75}, {"time": 1964, "pitch": 63, "duration": 6, "velocity": 72}, {"time": 1964, "pitch": 72, "duration": 7, "velocity": 82}, {"time": 1973, "pitch": 68, "duration": 4, "velocity": 69}, {"time": 1979, "pitch": 43, "duration": 32, "velocity": 75}, {"time": 1979, "pitch": 63, "duration": 9, "velocity": 75}, {"time": 1979, "pitch": 70, "duration": 8, "velocity": 76}, {"time": 1985, "pitch": 51, "duration": 25, "velocity": 57}, {"time": 1991, "pitch": 55, "duration": 15, "velocity": 60}, {"time": 1997, "pitch": 58, "duration": 5, "velocity": 72}, {"time": 2003, "pitch": 63, "duration": 4, "velocity": 56}, {"time": 2009, "pitch": 65, "duration": 8, "velocity": 59}, {"time": 2015, "pitch": 67, "duration": 7, "velocity": 64}, {"time": 2021, "pitch": 70, "duration": 3, "velocity": 72}, {"time": 2027, "pitch": 41, "duration": 38, "velocity": 69}, {"time": 2027, "pitch": 60, "duration": 7, "velocity": 70}, {"time": 2027, "pitch": 68, "duration": 13, "velocity": 73}, {"time": 2033, "pitch": 48, "duration": 19, "velocity": 44}, {"time": 2039, "pitch": 58, "duration": 2, "velocity": 57}, {"time": 2039, "pitch": 67, "duration": 5, "velocity": 62}, {"time": 2045, "pitch": 60, "duration": 8, "velocity": 76}, {"time": 2045, "pitch": 68, "duration": 8, "velocity": 62}, {"time": 2051, "pitch": 53, "duration": 7, "velocity": 48}, {"time": 2057, "pitch": 60, "duration": 3, "velocity": 73}, {"time": 2057, "pitch": 67, "duration": 4, "velocity": 78}, {"time": 2063, "pitch": 48, "duration": 2, "velocity": 66}, {"time": 2069, "pitch": 63, "duration": 5, "velocity": 67}, {"time": 2075, "pitch": 37, "duration": 18, "velocity": 76}, {"time": 2075, "pitch": 56, "duration": 11, "velocity": 66}, {"time": 2075, "pitch": 61, "duration": 11, "velocity": 69}, {"time": 2075, "pitch": 65, "duration": 11, "velocity": 64}, {"time": 2081, "pitch": 44, "duration": 12, "velocity": 59}, {"time": 2087, "pitch": 49, "duration": 7, "velocity": 48}, {"time": 2093, "pitch": 56, "duration": 3, "velocity": 55}, {"time": 2099, "pitch": 37, "duration": 16, "velocity": 70}, {"time": 2099, "pitch": 56, "duration": 8, "velocity": 67}, {"time": 2099, "pitch": 61, "duration": 8, "velocity": 45}, {"time": 2099, "pitch": 64, "duration": 8, "velocity": 42}, {"time": 2099, "pitch": 68, "duration": 7, "velocity": 36}, {"time": 2105, "pitch": 49, "duration": 9, "velocity": 48}, {"time": 2111, "pitch": 56, "duration": 4, "velocity": 61}, {"time": 2117, "pitch": 61, "duration": 2, "velocity": 66}, {"time": 2123, "pitch": 36, "duration": 16, "velocity": 73}, {"time": 2123, "pitch": 48, "duration": 8, "velocity": 64}, {"time": 2123, "pitch": 58, "duration": 10, "velocity": 69}, {"time": 2123, "pitch": 63, "duration": 13, "velocity": 76}, {"time": 2123, "pitch": 67, "duration": 11, "velocity": 70}, {"time": 2135, "pitch": 48, "duration": 4, "velocity": 61}, {"time": 2141, "pitch": 58, "duration": 3, "velocity": 51}, {"time": 2147, "pitch": 36, "duration": 13, "velocity": 66}, {"time": 2147, "pitch": 48, "duration": 4, "velocity": 58}, {"time": 2147, "pitch": 58, "duration": 13, "velocity": 80}, {"time": 2147, "pitch": 64, "duration": 9, "velocity": 93}, {"time": 2147, "pitch": 67, "duration": 14, "velocity": 63}, {"time": 2159, "pitch": 48, "duration": 3, "velocity": 72}, {"time": 2171, "pitch": 41, "duration": 16, "velocity": 70}, {"time": 2171, "pitch": 53, "duration": 4, "velocity": 69}, {"time": 2171, "pitch": 60, "duration": 14, "velocity": 91}, {"time": 2171, "pitch": 65, "duration": 14, "velocity": 66}, {"time": 2171, "pitch": 68, "duration": 16, "velocity": 85}, {"time": 2183, "pitch": 53, "duration": 3, "velocity": 64}, {"time": 2189, "pitch": 68, "duration": 1, "velocity": 28}, {"time": 2195, "pitch": 41, "duration": 10, "velocity": 55}, {"time": 2195, "pitch": 58, "duration": 6, "velocity": 76}, {"time": 2195, "pitch": 67, "duration": 6, "velocity": 76}, {"time": 2201, "pitch": 53, "duration": 4, "velocity": 47}, {"time": 2207, "pitch": 58, "duration": 6, "velocity": 85}, {"time": 2207, "pitch": 63, "duration": 6, "velocity": 78}, {"time": 2213, "pitch": 53, "duration": 2, "velocity": 66}, {"time": 2213, "pitch": 63, "duration": 5, "velocity": 67}, {"time": 2219, "pitch": 37, "duration": 36, "velocity": 75}, {"time": 2219, "pitch": 49, "duration": 9, "velocity": 72}, {"time": 2219, "pitch": 56, "duration": 15, "velocity": 75}, {"time": 2219, "pitch": 61, "duration": 15, "velocity": 70}, {"time": 2219, "pitch": 65, "duration": 16, "velocity": 75}, {"time": 2237, "pitch": 49, "duration": 9, "velocity": 51}, {"time": 2243, "pitch": 56, "duration": 11, "velocity": 80}, {"time": 2243, "pitch": 61, "duration": 14, "velocity": 73}, {"time": 2243, "pitch": 65, "duration": 14, "velocity": 73}, {"time": 2255, "pitch": 49, "duration": 3, "velocity": 57}, {"time": 2267, "pitch": 39, "duration": 38, "velocity": 72}, {"time": 2267, "pitch": 51, "duration": 9, "velocity": 75}, {"time": 2267, "pitch": 58, "duration": 13, "velocity": 69}, {"time": 2267, "pitch": 63, "duration": 12, "velocity": 72}, {"time": 2267, "pitch": 67, "duration": 13, "velocity": 72}, {"time": 2285, "pitch": 51, "duration": 9, "velocity": 56}, {"time": 2291, "pitch": 56, "duration": 6, "velocity": 75}, {"time": 2291, "pitch": 61, "duration": 8, "velocity": 80}, {"time": 2291, "pitch": 65, "duration": 8, "velocity": 73}, {"time": 2303, "pitch": 58, "duration": 3, "velocity": 64}, {"time": 2303, "pitch": 63, "duration": 2, "velocity": 56}, {"time": 2303, "pitch": 65, "duration": 2, "velocity": 62}, {"time": 2303, "pitch": 67, "duration": 3, "velocity": 70}, {"time": 2315, "pitch": 44, "duration": 40, "velocity": 75}, {"time": 2315, "pitch": 60, "duration": 12, "velocity": 73}, {"time": 2315, "pitch": 63, "duration": 12, "velocity": 72}, {"time": 2315, "pitch": 68, "duration": 12, "velocity": 76}, {"time": 2327, "pitch": 51, "duration": 17, "velocity": 44}, {"time": 2333, "pitch": 61, "duration": 12, "velocity": 62}, {"time": 2333, "pitch": 65, "duration": 8, "velocity": 60}, {"time": 2345, "pitch": 56, "duration": 9, "velocity": 57}, {"time": 2351, "pitch": 60, "duration": 5, "velocity": 60}, {"time": 2357, "pitch": 61, "duration": 5, "velocity": 64}, {"time": 2363, "pitch": 44, "duration": 39, "velocity": 75}, {"time": 2363, "pitch": 60, "duration": 10, "velocity": 67}, {"time": 2363, "pitch": 63, "duration": 8, "velocity": 62}, {"time": 2363, "pitch": 68, "duration": 11, "velocity": 57}, {"time": 2369, "pitch": 51, "duration": 30, "velocity": 54}, {"time": 2375, "pitch": 56, "duration": 22, "velocity": 57}, {"time": 2381, "pitch": 58, "duration": 8, "velocity": 60}, {"time": 2387, "pitch": 60, "duration": 4, "velocity": 59}, {"time": 2393, "pitch": 63, "duration": 6, "velocity": 53}, {"time": 2411, "pitch": 36, "duration": 41, "velocity": 60}, {"time": 2411, "pitch": 48, "duration": 41, "velocity": 67}, {"time": 2411, "pitch": 60, "duration": 6, "velocity": 60}, {"time": 2411, "pitch": 64, "duration": 7, "velocity": 66}, {"time": 2411, "pitch": 67, "duration": 7, "velocity": 63}, {"time": 2423, "pitch": 60, "duration": 7, "velocity": 62}, {"time": 2423, "pitch": 64, "duration": 7, "velocity": 70}, {"time": 2423, "pitch": 67, "duration": 7, "velocity": 69}, {"time": 2435, "pitch": 60, "duration": 8, "velocity": 63}, {"time": 2435, "pitch": 64, "duration": 9, "velocity": 69}, {"time": 2435, "pitch": 67, "duration": 9, "velocity": 58}, {"time": 2447, "pitch": 60, "duration": 7, "velocity": 73}, {"time": 2447, "pitch": 64, "duration": 7, "velocity": 70}, {"time": 2447, "pitch": 67, "duration": 7, "velocity": 73}, {"time": 2453, "pitch": 43, "duration": 6, "velocity": 66}, {"time": 2459, "pitch": 36, "duration": 7, "velocity": 70}, {"time": 2459, "pitch": 48, "duration": 7, "velocity": 73}, {"time": 2459, "pitch": 60, "duration": 5, "velocity": 63}, {"time": 2459, "pitch": 64, "duration": 6, "velocity": 64}, {"time": 2459, "pitch": 67, "duration": 6, "velocity": 48}, {"time": 2471, "pitch": 36, "duration": 8, "velocity": 67}, {"time": 2471, "pitch": 48, "duration": 8, "velocity": 55}, {"time": 2471, "pitch": 60, "duration": 4, "velocity": 66}, {"time": 2471, "pitch": 64, "duration": 7, "velocity": 67}, {"time": 2471, "pitch": 67, "duration": 6, "velocity": 67}, {"time": 2483, "pitch": 36, "duration": 9, "velocity": 63}, {"time": 2483, "pitch": 48, "duration": 9, "velocity": 60}, {"time": 2483, "pitch": 60, "duration": 8, "velocity": 66}, {"time": 2483, "pitch": 64, "duration": 8, "velocity": 70}, {"time": 2483, "pitch": 67, "duration": 8, "velocity": 63}, {"time": 2495, "pitch": 36, "duration": 5, "velocity": 58}, {"time": 2495, "pitch": 48, "duration": 7, "velocity": 69}, {"time": 2495, "pitch": 60, "duration": 4, "velocity": 58}, {"time": 2495, "pitch": 64, "duration": 6, "velocity": 73}, {"time": 2495, "pitch": 67, "duration": 6, "velocity": 67}, {"time": 2501, "pitch": 40, "duration": 2, "velocity": 61}, {"time": 2507, "pitch": 41, "duration": 32, "velocity": 73}, {"time": 2507, "pitch": 60, "duration": 8, "velocity": 69}, {"time": 2507, "pitch": 65, "duration": 8, "velocity": 73}, {"time": 2507, "pitch": 68, "duration": 7, "velocity": 70}, {"time": 2519, "pitch": 53, "duration": 7, "velocity": 54}, {"time": 2519, "pitch": 60, "duration": 7, "velocity": 67}, {"time": 2519, "pitch": 65, "duration": 8, "velocity": 70}, {"time": 2519, "pitch": 68, "duration": 7, "velocity": 69}, {"time": 2531, "pitch": 53, "duration": 7, "velocity": 63}, {"time": 2531, "pitch": 60, "duration": 6, "velocity": 67}, {"time": 2531, "pitch": 65, "duration": 6, "velocity": 67}, {"time": 2531, "pitch": 68, "duration": 8, "velocity": 73}, {"time": 2543, "pitch": 39, "duration": 3, "velocity": 80}, {"time": 2543, "pitch": 51, "duration": 2, "velocity": 62}, {"time": 2543, "pitch": 58, "duration": 2, "velocity": 64}, {"time": 2543, "pitch": 63, "duration": 2, "velocity": 73}, {"time": 2543, "pitch": 67, "duration": 2, "velocity": 69}, {"time": 2555, "pitch": 34, "duration": 2, "velocity": 73}, {"time": 2555, "pitch": 46, "duration": 13, "velocity": 64}, {"time": 2555, "pitch": 58, "duration": 18, "velocity": 72}, {"time": 2555, "pitch": 62, "duration": 18, "velocity": 73}, {"time": 2555, "pitch": 65, "duration": 26, "velocity": 69}, {"time": 2555, "pitch": 68, "duration": 18, "velocity": 55}, {"time": 2567, "pitch": 50, "duration": 23, "velocity": 64}, {"time": 2573, "pitch": 53, "duration": 14, "velocity": 61}, {"time": 2579, "pitch": 58, "duration": 7, "velocity": 69}, {"time": 2585, "pitch": 62, "duration": 7, "velocity": 97}, {"time": 2591, "pitch": 63, "duration": 5, "velocity": 67}, {"time": 2603, "pitch": 39, "duration": 30, "velocity": 75}, {"time": 2603, "pitch": 60, "duration": 8, "velocity": 75}, {"time": 2603, "pitch": 65, "duration": 8, "velocity": 73}, {"time": 2609, "pitch": 46, "duration": 15, "velocity": 59}, {"time": 2615, "pitch": 51, "duration": 14, "velocity": 66}, {"time": 2621, "pitch": 55, "duration": 9, "velocity": 72}, {"time": 2621, "pitch": 58, "duration": 9, "velocity": 72}, {"time": 2621, "pitch": 63, "duration": 8, "velocity": 75}, {"time": 2627, "pitch": 46, "duration": 6, "velocity": 70}, {"time": 2633, "pitch": 55, "duration": 4, "velocity": 80}, {"time": 2639, "pitch": 55, "duration": 1, "velocity": 41}, {"time": 2639, "pitch": 58, "duration": 4, "velocity": 73}, {"time": 2645, "pitch": 38, "duration": 2, "velocity": 64}, {"time": 2645, "pitch": 63, "duration": 2, "velocity": 45}, {"time": 2651, "pitch": 32, "duration": 5, "velocity": 80}, {"time": 2651, "pitch": 56, "duration": 13, "velocity": 95}, {"time": 2651, "pitch": 60, "duration": 16, "velocity": 91}, {"time": 2657, "pitch": 44, "duration": 7, "velocity": 80}, {"time": 2663, "pitch": 48, "duration": 24, "velocity": 64}, {"time": 2669, "pitch": 51, "duration": 17, "velocity": 44}, {"time": 2675, "pitch": 58, "duration": 8, "velocity": 67}, {"time": 2681, "pitch": 60, "duration": 5, "velocity": 72}, {"time": 2687, "pitch": 63, "duration": 3, "velocity": 75}, {"time": 2699, "pitch": 37, "duration": 36, "velocity": 64}, {"time": 2699, "pitch": 49, "duration": 12, "velocity": 76}, {"time": 2699, "pitch": 56, "duration": 7, "velocity": 67}, {"time": 2699, "pitch": 61, "duration": 8, "velocity": 70}, {"time": 2699, "pitch": 65, "duration": 9, "velocity": 69}, {"time": 2711, "pitch": 56, "duration": 8, "velocity": 66}, {"time": 2711, "pitch": 63, "duration": 9, "velocity": 58}, {"time": 2717, "pitch": 49, "duration": 8, "velocity": 48}, {"time": 2723, "pitch": 56, "duration": 7, "velocity": 78}, {"time": 2723, "pitch": 61, "duration": 8, "velocity": 82}, {"time": 2723, "pitch": 65, "duration": 8, "velocity": 75}, {"time": 2729, "pitch": 49, "duration": 8, "velocity": 72}, {"time": 2735, "pitch": 56, "duration": 3, "velocity": 97}, {"time": 2744, "pitch": 63, "duration": 8, "velocity": 54}, {"time": 2747, "pitch": 38, "duration": 39, "velocity": 80}, {"time": 2747, "pitch": 50, "duration": 14, "velocity": 82}, {"time": 2747, "pitch": 53, "duration": 7, "velocity": 75}, {"time": 2747, "pitch": 56, "duration": 8, "velocity": 72}, {"time": 2747, "pitch": 60, "duration": 7, "velocity": 67}, {"time": 2759, "pitch": 53, "duration": 9, "velocity": 67}, {"time": 2759, "pitch": 63, "duration": 8, "velocity": 41}, {"time": 2765, "pitch": 50, "duration": 8, "velocity": 66}, {"time": 2771, "pitch": 53, "duration": 8, "velocity": 75}, {"time": 2771, "pitch": 56, "duration": 8, "velocity": 80}, {"time": 2771, "pitch": 60, "duration": 8, "velocity": 76}, {"time": 2777, "pitch": 50, "duration": 9, "velocity": 70}, {"time": 2783, "pitch": 53, "duration": 6, "velocity": 75}, {"time": 2789, "pitch": 56, "duration": 3, "velocity": 66}, {"time": 2795, "pitch": 39, "duration": 43, "velocity": 67}, {"time": 2795, "pitch": 55, "duration": 11, "velocity": 82}, {"time": 2795, "pitch": 58, "duration": 9, "velocity": 75}, {"time": 2801, "pitch": 46, "duration": 28, "velocity": 64}, {"time": 2807, "pitch": 51, "duration": 30, "velocity": 70}, {"time": 2813, "pitch": 56, "duration": 6, "velocity": 80}, {"time": 2819, "pitch": 58, "duration": 2, "velocity": 67}, {"time": 2825, "pitch": 63, "duration": 7, "velocity": 75}, {"time": 2831, "pitch": 68, "duration": 4, "velocity": 72}, {"time": 2837, "pitch": 70, "duration": 4, "velocity": 72}, {"time": 2840, "pitch": 46, "duration": 3, "velocity": 55}, {"time": 2843, "pitch": 39, "duration": 36, "velocity": 73}, {"time": 2843, "pitch": 55, "duration": 15, "velocity": 66}, {"time": 2843, "pitch": 58, "duration": 12, "velocity": 69}, {"time": 2843, "pitch": 63, "duration": 15, "velocity": 64}, {"time": 2855, "pitch": 46, "duration": 13, "velocity": 51}, {"time": 2867, "pitch": 51, "duration": 14, "velocity": 60}, {"time": 2867, "pitch": 55, "duration": 10, "velocity": 70}, {"time": 2867, "pitch": 58, "duration": 10, "velocity": 73}, {"time": 2867, "pitch": 63, "duration": 9, "velocity": 66}, {"time": 2879, "pitch": 46, "duration": 13, "velocity": 62}, {"time": 2891, "pitch": 39, "duration": 40, "velocity": 67}, {"time": 2891, "pitch": 44, "duration": 44, "velocity": 73}, {"time": 2891, "pitch": 51, "duration": 19, "velocity": 70}, {"time": 2891, "pitch": 60, "duration": 13, "velocity": 64}, {"time": 2891, "pitch": 60, "duration": 13, "velocity": 70}, {"time": 2891, "pitch": 63, "duration": 13, "velocity": 67}, {"time": 2891, "pitch": 63, "duration": 13, "velocity": 69}, {"time": 2891, "pitch": 68, "duration": 15, "velocity": 70}, {"time": 2897, "pitch": 51, "duration": 13, "velocity": 53}, {"time": 2903, "pitch": 56, "duration": 14, "velocity": 72}, {"time": 2909, "pitch": 58, "duration": 3, "velocity": 78}, {"time": 2909, "pitch": 67, "duration": 5, "velocity": 66}, {"time": 2915, "pitch": 60, "duration": 7, "velocity": 88}, {"time": 2915, "pitch": 63, "duration": 5, "velocity": 82}, {"time": 2915, "pitch": 68, "duration": 5, "velocity": 73}, {"time": 2921, "pitch": 51, "duration": 4, "velocity": 51}, {"time": 2927, "pitch": 51, "duration": 4, "velocity": 52}, {"time": 2927, "pitch": 63, "duration": 1, "velocity": 63}, {"time": 2927, "pitch": 70, "duration": 7, "velocity": 76}, {"time": 2933, "pitch": 51, "duration": 1, "velocity": 73}, {"time": 2933, "pitch": 56, "duration": 2, "velocity": 44}, {"time": 2933, "pitch": 68, "duration": 3, "velocity": 67}, {"time": 2939, "pitch": 43, "duration": 39, "velocity": 58}, {"time": 2939, "pitch": 58, "duration": 12, "velocity": 62}, {"time": 2939, "pitch": 63, "duration": 12, "velocity": 69}, {"time": 2939, "pitch": 67, "duration": 12, "velocity": 73}, {"time": 2945, "pitch": 51, "duration": 18, "velocity": 60}, {"time": 2951, "pitch": 55, "duration": 19, "velocity": 67}, {"time": 2957, "pitch": 58, "duration": 14, "velocity": 66}, {"time": 2963, "pitch": 63, "duration": 9, "velocity": 69}, {"time": 2969, "pitch": 51, "duration": 9, "velocity": 70}, {"time": 2975, "pitch": 55, "duration": 4, "velocity": 67}, {"time": 2981, "pitch": 43, "duration": 3, "velocity": 69}, {"time": 2987, "pitch": 37, "duration": 14, "velocity": 72}, {"time": 2987, "pitch": 56, "duration": 12, "velocity": 67}, {"time": 2987, "pitch": 61, "duration": 13, "velocity": 73}, {"time": 2987, "pitch": 65, "duration": 13, "velocity": 67}, {"time": 2993, "pitch": 44, "duration": 30, "velocity": 56}, {"time": 2999, "pitch": 49, "duration": 9, "velocity": 63}, {"time": 3005, "pitch": 56, "duration": 3, "velocity": 63}, {"time": 3011, "pitch": 63, "duration": 7, "velocity": 63}, {"time": 3011, "pitch": 67, "duration": 8, "velocity": 70}, {"time": 3017, "pitch": 58, "duration": 4, "velocity": 47}, {"time": 3023, "pitch": 63, "duration": 8, "velocity": 70}, {"time": 3029, "pitch": 65, "duration": 5, "velocity": 64}, {"time": 3035, "pitch": 44, "duration": 33, "velocity": 72}, {"time": 3035, "pitch": 60, "duration": 9, "velocity": 67}, {"time": 3035, "pitch": 63, "duration": 10, "velocity": 73}, {"time": 3035, "pitch": 68, "duration": 10, "velocity": 70}, {"time": 3041, "pitch": 51, "duration": 25, "velocity": 44}, {"time": 3047, "pitch": 56, "duration": 19, "velocity": 64}, {"time": 3053, "pitch": 63, "duration": 5, "velocity": 64}, {"time": 3059, "pitch": 72, "duration": 6, "velocity": 75}, {"time": 3065, "pitch": 70, "duration": 4, "velocity": 59}, {"time": 3071, "pitch": 68, "duration": 3, "velocity": 51}, {"time": 3077, "pitch": 70, "duration": 4, "velocity": 55}, {"time": 3083, "pitch": 46, "duration": 40, "velocity": 70}, {"time": 3083, "pitch": 61, "duration": 13, "velocity": 70}, {"time": 3083, "pitch": 65, "duration": 13, "velocity": 72}, {"time": 3089, "pitch": 53, "duration": 23, "velocity": 56}, {"time": 3095, "pitch": 58, "duration": 22, "velocity": 54}, {"time": 3101, "pitch": 60, "duration": 9, "velocity": 67}, {"time": 3101, "pitch": 63, "duration": 10, "velocity": 73}, {"time": 3113, "pitch": 61, "duration": 2, "velocity": 70}, {"time": 3113, "pitch": 65, "duration": 3, "velocity": 70}, {"time": 3119, "pitch": 53, "duration": 11, "velocity": 57}, {"time": 3131, "pitch": 42, "duration": 39, "velocity": 85}, {"time": 3131, "pitch": 58, "duration": 12, "velocity": 69}, {"time": 3131, "pitch": 61, "duration": 14, "velocity": 72}, {"time": 3131, "pitch": 66, "duration": 13, "velocity": 69}, {"time": 3137, "pitch": 49, "duration": 28, "velocity": 62}, {"time": 3143, "pitch": 54, "duration": 19, "velocity": 76}, {"time": 3149, "pitch": 58, "duration": 10, "velocity": 99}, {"time": 3161, "pitch": 58, "duration": 2, "velocity": 48}, {"time": 3161, "pitch": 61, "duration": 7, "velocity": 70}, {"time": 3161, "pitch": 66, "duration": 7, "velocity": 88}, {"time": 3167, "pitch": 49, "duration": 2, "velocity": 55}, {"time": 3167, "pitch": 54, "duration": 2, "velocity": 85}, {"time": 3179, "pitch": 36, "duration": 35, "velocity": 73}, {"time": 3179, "pitch": 60, "duration": 9, "velocity": 82}, {"time": 3179, "pitch": 65, "duration": 11, "velocity": 95}, {"time": 3179, "pitch": 67, "duration": 10, "velocity": 88}, {"time": 3185, "pitch": 48, "duration": 23, "velocity": 60}, {"time": 3191, "pitch": 60, "duration": 4, "velocity": 70}, {"time": 3197, "pitch": 60, "duration": 2, "velocity": 45}, {"time": 3197, "pitch": 65, "duration": 11, "velocity": 91}, {"time": 3209, "pitch": 60, "duration": 2, "velocity": 72}, {"time": 3209, "pitch": 67, "duration": 4, "velocity": 97}, {"time": 3215, "pitch": 48, "duration": 3, "velocity": 67}, {"time": 3227, "pitch": 36, "duration": 11, "velocity": 73}, {"time": 3227, "pitch": 48, "duration": 7, "velocity": 72}, {"time": 3227, "pitch": 60, "duration": 13, "velocity": 70}, {"time": 3227, "pitch": 64, "duration": 12, "velocity": 95}, {"time": 3227, "pitch": 67, "duration": 13, "velocity": 78}, {"time": 3239, "pitch": 48, "duration": 3, "velocity": 61}, {"time": 3251, "pitch": 39, "duration": 12, "velocity": 76}, {"time": 3251, "pitch": 51, "duration": 14, "velocity": 88}, {"time": 3251, "pitch": 58, "duration": 14, "velocity": 73}, {"time": 3251, "pitch": 63, "duration": 14, "velocity": 82}, {"time": 3251, "pitch": 67, "duration": 14, "velocity": 73}, {"time": 3263, "pitch": 65, "duration": 7, "velocity": 67}, {"time": 3269, "pitch": 67, "duration": 5, "velocity": 73}, {"time": 3275, "pitch": 44, "duration": 37, "velocity": 73}, {"time": 3275, "pitch": 63, "duration": 11, "velocity": 73}, {"time": 3275, "pitch": 72, "duration": 8, "velocity": 75}, {"time": 3281, "pitch": 51, "duration": 32, "velocity": 72}, {"time": 3287, "pitch": 56, "duration": 13, "velocity": 75}, {"time": 3293, "pitch": 60, "duration": 4, "velocity": 64}, {"time": 3299, "pitch": 60, "duration": 9, "velocity": 76}, {"time": 3299, "pitch": 63, "duration": 10, "velocity": 85}, {"time": 3299, "pitch": 68, "duration": 8, "velocity": 78}, {"time": 3305, "pitch": 56, "duration": 6, "velocity": 70}, {"time": 3311, "pitch": 60, "duration": 4, "velocity": 75}, {"time": 3317, "pitch": 70, "duration": 4, "velocity": 73}, {"time": 3323, "pitch": 43, "duration": 39, "velocity": 72}, {"time": 3323, "pitch": 58, "duration": 14, "velocity": 91}, {"time": 3323, "pitch": 63, "duration": 13, "velocity": 88}, {"time": 3323, "pitch": 67, "duration": 13, "velocity": 73}, {"time": 3329, "pitch": 51, "duration": 28, "velocity": 60}, {"time": 3335, "pitch": 55, "duration": 18, "velocity": 60}, {"time": 3341, "pitch": 58, "duration": 4, "velocity": 62}, {"time": 3347, "pitch": 63, "duration": 5, "velocity": 93}, {"time": 3353, "pitch": 63, "duration": 1, "velocity": 59}, {"time": 3353, "pitch": 65, "duration": 5, "velocity": 88}, {"time": 3359, "pitch": 51, "duration": 3, "velocity": 49}, {"time": 3359, "pitch": 55, "duration": 2, "velocity": 70}, {"time": 3359, "pitch": 67, "duration": 10, "velocity": 78}, {"time": 3365, "pitch": 70, "duration": 2, "velocity": 66}, {"time": 3371, "pitch": 41, "duration": 38, "velocity": 75}, {"time": 3371, "pitch": 60, "duration": 7, "velocity": 88}, {"time": 3371, "pitch": 68, "duration": 10, "velocity": 78}, {"time": 3377, "pitch": 48, "duration": 23, "velocity": 59}, {"time": 3383, "pitch": 58, "duration": 2, "velocity": 69}, {"time": 3383, "pitch": 67, "duration": 5, "velocity": 78}, {"time": 3389, "pitch": 60, "duration": 8, "velocity": 91}, {"time": 3389, "pitch": 68, "duration": 10, "velocity": 67}, {"time": 3395, "pitch": 53, "duration": 9, "velocity": 72}, {"time": 3401, "pitch": 60, "duration": 2, "velocity": 57}, {"time": 3401, "pitch": 65, "duration": 10, "velocity": 95}, {"time": 3407, "pitch": 48, "duration": 10, "velocity": 62}, {"time": 3413, "pitch": 68, "duration": 4, "velocity": 76}, {"time": 3419, "pitch": 37, "duration": 14, "velocity": 73}, {"time": 3419, "pitch": 49, "duration": 7, "velocity": 70}, {"time": 3419, "pitch": 56, "duration": 12, "velocity": 76}, {"time": 3419, "pitch": 61, "duration": 14, "velocity": 78}, {"time": 3419, "pitch": 65, "duration": 14, "velocity": 78}, {"time": 3431, "pitch": 49, "duration": 2, "velocity": 59}, {"time": 3443, "pitch": 37, "duration": 15, "velocity": 69}, {"time": 3443, "pitch": 49, "duration": 5, "velocity": 88}, {"time": 3443, "pitch": 56, "duration": 14, "velocity": 73}, {"time": 3443, "pitch": 61, "duration": 15, "velocity": 73}, {"time": 3443, "pitch": 64, "duration": 15, "velocity": 88}, {"time": 3443, "pitch": 68, "duration": 21, "velocity": 73}, {"time": 3455, "pitch": 49, "duration": 3, "velocity": 91}, {"time": 3467, "pitch": 36, "duration": 36, "velocity": 72}, {"time": 3467, "pitch": 48, "duration": 27, "velocity": 88}, {"time": 3467, "pitch": 58, "duration": 19, "velocity": 78}, {"time": 3467, "pitch": 63, "duration": 19, "velocity": 82}, {"time": 3467, "pitch": 68, "duration": 18, "velocity": 80}, {"time": 3491, "pitch": 58, "duration": 13, "velocity": 69}, {"time": 3491, "pitch": 63, "duration": 12, "velocity": 69}, {"time": 3491, "pitch": 67, "duration": 13, "velocity": 73}, {"time": 3503, "pitch": 48, "duration": 3, "velocity": 70}, {"time": 3515, "pitch": 41, "duration": 33, "velocity": 69}, {"time": 3515, "pitch": 53, "duration": 13, "velocity": 80}, {"time": 3515, "pitch": 60, "duration": 19, "velocity": 76}, {"time": 3515, "pitch": 63, "duration": 18, "velocity": 82}, {"time": 3515, "pitch": 68, "duration": 19, "velocity": 75}, {"time": 3533, "pitch": 53, "duration": 8, "velocity": 44}, {"time": 3539, "pitch": 60, "duration": 8, "velocity": 72}, {"time": 3539, "pitch": 63, "duration": 7, "velocity": 76}, {"time": 3539, "pitch": 68, "duration": 8, "velocity": 73}, {"time": 3545, "pitch": 53, "duration": 5, "velocity": 50}, {"time": 3551, "pitch": 63, "duration": 6, "velocity": 72}, {"time": 3557, "pitch": 68, "duration": 6, "velocity": 75}, {"time": 3563, "pitch": 37, "duration": 33, "velocity": 70}, {"time": 3563, "pitch": 49, "duration": 11, "velocity": 62}, {"time": 3563, "pitch": 56, "duration": 19, "velocity": 75}, {"time": 3563, "pitch": 61, "duration": 18, "velocity": 73}, {"time": 3563, "pitch": 65, "duration": 19, "velocity": 76}, {"time": 3581, "pitch": 49, "duration": 9, "velocity": 50}, {"time": 3587, "pitch": 56, "duration": 8, "velocity": 73}, {"time": 3587, "pitch": 61, "duration": 8, "velocity": 73}, {"time": 3587, "pitch": 65, "duration": 9, "velocity": 72}, {"time": 3593, "pitch": 49, "duration": 5, "velocity": 59}, {"time": 3599, "pitch": 56, "duration": 4, "velocity": 62}, {"time": 3605, "pitch": 61, "duration": 2, "velocity": 72}, {"time": 3611, "pitch": 39, "duration": 36, "velocity": 61}, {"time": 3611, "pitch": 51, "duration": 9, "velocity": 59}, {"time": 3611, "pitch": 58, "duration": 14, "velocity": 70}, {"time": 3611, "pitch": 63, "duration": 14, "velocity": 76}, {"time": 3611, "pitch": 67, "duration": 15, "velocity": 72}, {"time": 3623, "pitch": 51, "duration": 7, "velocity": 46}, {"time": 3629, "pitch": 56, "duration": 3, "velocity": 88}, {"time": 3629, "pitch": 61, "duration": 4, "velocity": 76}, {"time": 3629, "pitch": 65, "duration": 9, "velocity": 76}, {"time": 3635, "pitch": 51, "duration": 7, "velocity": 52}, {"time": 3641, "pitch": 58, "duration": 3, "velocity": 85}, {"time": 3641, "pitch": 63, "duration": 4, "velocity": 76}, {"time": 3641, "pitch": 67, "duration": 3, "velocity": 85}, {"time": 3647, "pitch": 51, "duration": 3, "velocity": 69}, {"time": 3653, "pitch": 63, "duration": 11, "velocity": 59}, {"time": 3659, "pitch": 44, "duration": 9, "velocity": 70}, {"time": 3659, "pitch": 60, "duration": 5, "velocity": 69}, {"time": 3659, "pitch": 68, "duration": 7, "velocity": 76}, {"time": 3665, "pitch": 51, "duration": 5, "velocity": 61}, {"time": 3671, "pitch": 56, "duration": 7, "velocity": 50}, {"time": 3677, "pitch": 58, "duration": 14, "velocity": 69}, {"time": 3677, "pitch": 63, "duration": 3, "velocity": 55}, {"time": 3677, "pitch": 68, "duration": 3, "velocity": 63}, {"time": 3677, "pitch": 75, "duration": 4, "velocity": 69}, {"time": 3683, "pitch": 60, "duration": 8, "velocity": 73}, {"time": 3683, "pitch": 63, "duration": 6, "velocity": 78}, {"time": 3683, "pitch": 68, "duration": 6, "velocity": 75}, {"time": 3683, "pitch": 75, "duration": 7, "velocity": 75}, {"time": 3692, "pitch": 63, "duration": 6, "velocity": 72}, {"time": 3692, "pitch": 72, "duration": 7, "velocity": 82}, {"time": 3701, "pitch": 68, "duration": 4, "velocity": 69}, {"time": 3707, "pitch": 43, "duration": 32, "velocity": 75}, {"time": 3707, "pitch": 63, "duration": 9, "velocity": 75}, {"time": 3707, "pitch": 70, "duration": 8, "velocity": 76}, {"time": 3713, "pitch": 51, "duration": 25, "velocity": 57}, {"time": 3719, "pitch": 55, "duration": 15, "velocity": 60}, {"time": 3725, "pitch": 58, "duration": 5, "velocity": 72}, {"time": 3731, "pitch": 63, "duration": 4, "velocity": 56}, {"time": 3737, "pitch": 65, "duration": 8, "velocity": 59}, {"time": 3743, "pitch": 67, "duration": 7, "velocity": 64}, {"time": 3749, "pitch": 70, "duration": 3, "velocity": 72}, {"time": 3755, "pitch": 41, "duration": 38, "velocity": 69}, {"time": 3755, "pitch": 60, "duration": 7, "velocity": 70}, {"time": 3755, "pitch": 68, "duration": 13, "velocity": 73}, {"time": 3761, "pitch": 48, "duration": 19, "velocity": 44}, {"time": 3767, "pitch": 58, "duration": 2, "velocity": 57}, {"time": 3767, "pitch": 67, "duration": 5, "velocity": 62}, {"time": 3773, "pitch": 60, "duration": 8, "velocity": 76}, {"time": 3773, "pitch": 68, "duration": 8, "velocity": 62}, {"time": 3779, "pitch": 53, "duration": 7, "velocity": 48}, {"time": 3785, "pitch": 60, "duration": 3, "velocity": 73}, {"time": 3785, "pitch": 67, "duration": 4, "velocity": 78}, {"time": 3791, "pitch": 48, "duration": 2, "velocity": 66}, {"time": 3797, "pitch": 63, "duration": 5, "velocity": 67}, {"time": 3803, "pitch": 37, "duration": 18, "velocity": 76}, {"time": 3803, "pitch": 56, "duration": 11, "velocity": 66}, {"time": 3803, "pitch": 61, "duration": 11, "velocity": 69}, {"time": 3803, "pitch": 65, "duration": 11, "velocity": 64}, {"time": 3809, "pitch": 44, "duration": 12, "velocity": 59}, {"time": 3815, "pitch": 49, "duration": 7, "velocity": 48}, {"time": 3821, "pitch": 56, "duration": 3, "velocity": 55}, {"time": 3827, "pitch": 37, "duration": 16, "velocity": 70}, {"time": 3827, "pitch": 56, "duration": 8, "velocity": 67}, {"time": 3827, "pitch": 61, "duration": 8, "velocity": 45}, {"time": 3827, "pitch": 64, "duration": 8, "velocity": 42}, {"time": 3827, "pitch": 68, "duration": 7, "velocity": 36}, {"time": 3833, "pitch": 49, "duration": 9, "velocity": 48}, {"time": 3839, "pitch": 56, "duration": 4, "velocity": 61}, {"time": 3845, "pitch": 61, "duration": 2, "velocity": 66}, {"time": 3851, "pitch": 36, "duration": 16, "velocity": 73}, {"time": 3851, "pitch": 48, "duration": 8, "velocity": 64}, {"time": 3851, "pitch": 58, "duration": 10, "velocity": 69}, {"time": 3851, "pitch": 63, "duration": 13, "velocity": 76}, {"time": 3851, "pitch": 67, "duration": 11, "velocity": 70}, {"time": 3863, "pitch": 48, "duration": 4, "velocity": 61}, {"time": 3869, "pitch": 58, "duration": 3, "velocity": 51}, {"time": 3875, "pitch": 36, "duration": 13, "velocity": 66}, {"time": 3875, "pitch": 48, "duration": 4, "velocity": 58}, {"time": 3875, "pitch": 58, "duration": 13, "velocity": 80}, {"time": 3875, "pitch": 64, "duration": 9, "velocity": 93}, {"time": 3875, "pitch": 67, "duration": 14, "velocity": 63}, {"time": 3887, "pitch": 48, "duration": 3, "velocity": 72}, {"time": 3899, "pitch": 41, "duration": 16, "velocity": 70}, {"time": 3899, "pitch": 53, "duration": 4, "velocity": 69}, {"time": 3899, "pitch": 60, "duration": 14, "velocity": 91}, {"time": 3899, "pitch": 65, "duration": 14, "velocity": 66}, {"time": 3899, "pitch": 68, "duration": 16, "velocity": 85}, {"time": 3911, "pitch": 53, "duration": 3, "velocity": 64}, {"time": 3917, "pitch": 68, "duration": 1, "velocity": 28}, {"time": 3923, "pitch": 41, "duration": 10, "velocity": 55}, {"time": 3923, "pitch": 58, "duration": 6, "velocity": 76}, {"time": 3923, "pitch": 67, "duration": 6, "velocity": 76}, {"time": 3929, "pitch": 53, "duration": 4, "velocity": 47}, {"time": 3935, "pitch": 58, "duration": 6, "velocity": 85}, {"time": 3935, "pitch": 63, "duration": 6, "velocity": 78}, {"time": 3941, "pitch": 53, "duration": 2, "velocity": 66}, {"time": 3941, "pitch": 63, "duration": 5, "velocity": 67}, {"time": 3947, "pitch": 37, "duration": 36, "velocity": 75}, {"time": 3947, "pitch": 49, "duration": 9, "velocity": 72}, {"time": 3947, "pitch": 56, "duration": 15, "velocity": 75}, {"time": 3947, "pitch": 61, "duration": 15, "velocity": 70}, {"time": 3947, "pitch": 65, "duration": 16, "velocity": 75}, {"time": 3965, "pitch": 49, "duration": 9, "velocity": 51}, {"time": 3971, "pitch": 56, "duration": 11, "velocity": 80}, {"time": 3971, "pitch": 61, "duration": 14, "velocity": 73}, {"time": 3971, "pitch": 65, "duration": 14, "velocity": 73}, {"time": 3983, "pitch": 49, "duration": 3, "velocity": 57}, {"time": 3995, "pitch": 39, "duration": 38, "velocity": 72}, {"time": 3995, "pitch": 51, "duration": 9, "velocity": 75}, {"time": 3995, "pitch": 58, "duration": 13, "velocity": 69}, {"time": 3995, "pitch": 63, "duration": 12, "velocity": 72}, {"time": 3995, "pitch": 67, "duration": 13, "velocity": 72}, {"time": 4013, "pitch": 51, "duration": 9, "velocity": 56}, {"time": 4019, "pitch": 56, "duration": 6, "velocity": 75}, {"time": 4019, "pitch": 61, "duration": 8, "velocity": 80}, {"time": 4019, "pitch": 65, "duration": 8, "velocity": 73}, {"time": 4031, "pitch": 58, "duration": 3, "velocity": 64}, {"time": 4031, "pitch": 63, "duration": 2, "velocity": 56}, {"time": 4031, "pitch": 65, "duration": 2, "velocity": 62}, {"time": 4031, "pitch": 67, "duration": 3, "velocity": 70}, {"time": 4043, "pitch": 44, "duration": 40, "velocity": 75}, {"time": 4043, "pitch": 60, "duration": 12, "velocity": 73}, {"time": 4043, "pitch": 63, "duration": 12, "velocity": 72}, {"time": 4043, "pitch": 68, "duration": 12, "velocity": 76}, {"time": 4055, "pitch": 51, "duration": 17, "velocity": 44}, {"time": 4061, "pitch": 61, "duration": 12, "velocity": 62}, {"time": 4061, "pitch": 65, "duration": 8, "velocity": 60}, {"time": 4073, "pitch": 56, "duration": 9, "velocity": 57}, {"time": 4079, "pitch": 60, "duration": 5, "velocity": 60}, {"time": 4085, "pitch": 61, "duration": 5, "velocity": 64}, {"time": 4091, "pitch": 44, "duration": 39, "velocity": 75}, {"time": 4091, "pitch": 60, "duration": 10, "velocity": 67}, {"time": 4091, "pitch": 63, "duration": 8, "velocity": 62}, {"time": 4091, "pitch": 68, "duration": 11, "velocity": 57}, {"time": 4097, "pitch": 51, "duration": 30, "velocity": 54}, {"time": 4103, "pitch": 56, "duration": 22, "velocity": 57}, {"time": 4109, "pitch": 58, "duration": 8, "velocity": 60}, {"time": 4115, "pitch": 60, "duration": 4, "velocity": 59}, {"time": 4121, "pitch": 63, "duration": 6, "velocity": 53}, {"time": 4127, "pitch": 68, "duration": 3, "velocity": 63}, {"time": 4133, "pitch": 70, "duration": 2, "velocity": 60}, {"time": 4139, "pitch": 44, "duration": 29, "velocity": 55}, {"time": 4139, "pitch": 51, "duration": 30, "velocity": 53}, {"time": 4139, "pitch": 56, "duration": 30, "velocity": 58}, {"time": 4139, "pitch": 58, "duration": 26, "velocity": 52}, {"time": 4139, "pitch": 60, "duration": 27, "velocity": 55}, {"time": 4139, "pitch": 63, "duration": 28, "velocity": 61}, {"time": 4139, "pitch": 68, "duration": 28, "velocity": 60}, {"time": 4187, "pitch": 56, "duration": 17, "velocity": 49}, {"time": 4187, "pitch": 72, "duration": 7, "velocity": 70}, {"time": 4193, "pitch": 60, "duration": 19, "velocity": 66}, {"time": 4199, "pitch": 63, "duration": 7, "velocity": 60}, {"time": 4205, "pitch": 72, "duration": 5, "velocity": 61}, {"time": 4211, "pitch": 55, "duration": 15, "velocity": 62}, {"time": 4211, "pitch": 63, "duration": 5, "velocity": 52}, {"time": 4211, "pitch": 70, "duration": 8, "velocity": 70}, {"time": 4217, "pitch": 60, "duration": 9, "velocity": 57}, {"time": 4223, "pitch": 63, "duration": 5, "velocity": 56}, {"time": 4229, "pitch": 75, "duration": 13, "velocity": 62}, {"time": 4235, "pitch": 53, "duration": 35, "velocity": 69}, {"time": 4235, "pitch": 68, "duration": 11, "velocity": 69}, {"time": 4241, "pitch": 60, "duration": 30, "velocity": 58}, {"time": 4247, "pitch": 65, "duration": 16, "velocity": 56}, {"time": 4253, "pitch": 68, "duration": 10, "velocity": 60}, {"time": 4259, "pitch": 72, "duration": 19, "velocity": 67}, {"time": 4283, "pitch": 51, "duration": 32, "velocity": 70}, {"time": 4283, "pitch": 67, "duration": 12, "velocity": 62}, {"time": 4283, "pitch": 70, "duration": 12, "velocity": 61}, {"time": 4289, "pitch": 58, "duration": 29, "velocity": 46}, {"time": 4295, "pitch": 63, "duration": 16, "velocity": 55}, {"time": 4301, "pitch": 65, "duration": 8, "velocity": 56}, {"time": 4307, "pitch": 67, "duration": 11, "velocity": 73}, {"time": 4331, "pitch": 53, "duration": 33, "velocity": 58}, {"time": 4331, "pitch": 68, "duration": 6, "velocity": 57}, {"time": 4331, "pitch": 72, "duration": 7, "velocity": 59}, {"time": 4343, "pitch": 60, "duration": 24, "velocity": 37}, {"time": 4355, "pitch": 65, "duration": 7, "velocity": 45}, {"time": 4355, "pitch": 72, "duration": 3, "velocity": 49}, {"time": 4355, "pitch": 80, "duration": 5, "velocity": 63}, {"time": 4367, "pitch": 70, "duration": 2, "velocity": 55}, {"time": 4367, "pitch": 79, "duration": 2, "velocity": 58}, {"time": 4379, "pitch": 49, "duration": 75, "velocity": 70}, {"time": 4379, "pitch": 68, "duration": 7, "velocity": 66}, {"time": 4379, "pitch": 77, "duration": 5, "velocity": 62}, {"time": 4385, "pitch": 56, "duration": 33, "velocity": 58}, {"time": 4391, "pitch": 61, "duration": 27, "velocity": 53}, {"time": 4397, "pitch": 63, "duration": 14, "velocity": 60}, {"time": 4409, "pitch": 68, "duration": 7, "velocity": 70}, {"time": 4472, "pitch": 63, "duration": 4, "velocity": 48}, {"time": 4475, "pitch": 44, "duration": 8, "velocity": 69}, {"time": 4475, "pitch": 68, "duration": 10, "velocity": 59}, {"time": 4475, "pitch": 72, "duration": 18, "velocity": 72}, {"time": 4481, "pitch": 51, "duration": 5, "velocity": 59}, {"time": 4487, "pitch": 56, "duration": 8, "velocity": 61}, {"time": 4493, "pitch": 58, "duration": 15, "velocity": 66}, {"time": 4499, "pitch": 60, "duration": 9, "velocity": 75}, {"time": 4499, "pitch": 63, "duration": 6, "velocity": 70}, {"time": 4499, "pitch": 72, "duration": 7, "velocity": 78}, {"time": 4508, "pitch": 63, "duration": 2, "velocity": 54}, {"time": 4508, "pitch": 70, "duration": 6, "velocity": 91}, {"time": 4517, "pitch": 68, "duration": 6, "velocity": 69}, {"time": 4523, "pitch": 43, "duration": 7, "velocity": 69}, {"time": 4523, "pitch": 63, "duration": 12, "velocity": 64}, {"time": 4523, "pitch": 70, "duration": 14, "velocity": 80}, {"time": 4529, "pitch": 51, "duration": 5, "velocity": 55}, {"time": 4535, "pitch": 55, "duration": 9, "velocity": 49}, {"time": 4541, "pitch": 58, "duration": 11, "velocity": 61}, {"time": 4541, "pitch": 63, "duration": 4, "velocity": 59}, {"time": 4541, "pitch": 68, "duration": 3, "velocity": 69}, {"time": 4553, "pitch": 67, "duration": 2, "velocity": 80}, {"time": 4565, "pitch": 63, "duration": 3, "velocity": 44}, {"time": 4571, "pitch": 41, "duration": 37, "velocity": 67}, {"time": 4571, "pitch": 60, "duration": 7, "velocity": 64}, {"time": 4571, "pitch": 68, "duration": 8, "velocity": 73}, {"time": 4577, "pitch": 48, "duration": 27, "velocity": 55}, {"time": 4583, "pitch": 58, "duration": 2, "velocity": 51}, {"time": 4583, "pitch": 67, "duration": 3, "velocity": 67}, {"time": 4589, "pitch": 60, "duration": 3, "velocity": 61}, {"time": 4589, "pitch": 65, "duration": 3, "velocity": 72}, {"time": 4601, "pitch": 58, "duration": 3, "velocity": 62}, {"time": 4601, "pitch": 63, "duration": 3, "velocity": 63}, {"time": 4607, "pitch": 48, "duration": 2, "velocity": 58}, {"time": 4613, "pitch": 56, "duration": 3, "velocity": 53}, {"time": 4619, "pitch": 37, "duration": 15, "velocity": 69}, {"time": 4619, "pitch": 56, "duration": 6, "velocity": 62}, {"time": 4619, "pitch": 61, "duration": 7, "velocity": 63}, {"time": 4619, "pitch": 65, "duration": 6, "velocity": 67}, {"time": 4625, "pitch": 49, "duration": 12, "velocity": 53}, {"time": 4631, "pitch": 56, "duration": 4, "velocity": 54}, {"time": 4637, "pitch": 61, "duration": 4, "velocity": 69}, {"time": 4643, "pitch": 39, "duration": 10, "velocity": 73}, {"time": 4643, "pitch": 58, "duration": 6, "velocity": 63}, {"time": 4643, "pitch": 63, "duration": 7, "velocity": 66}, {"time": 4643, "pitch": 67, "duration": 6, "velocity": 72}, {"time": 4649, "pitch": 51, "duration": 9, "velocity": 51}, {"time": 4655, "pitch": 58, "duration": 4, "velocity": 57}, {"time": 4661, "pitch": 63, "duration": 4, "velocity": 66}, {"time": 4667, "pitch": 44, "duration": 33, "velocity": 70}, {"time": 4667, "pitch": 60, "duration": 3, "velocity": 64}, {"time": 4667, "pitch": 63, "duration": 3, "velocity": 54}, {"time": 4667, "pitch": 68, "duration": 4, "velocity": 73}, {"time": 4673, "pitch": 51, "duration": 27, "velocity": 51}, {"time": 4679, "pitch": 63, "duration": 8, "velocity": 63}, {"time": 4685, "pitch": 72, "duration": 10, "velocity": 75}, {"time": 4697, "pitch": 63, "duration": 3, "velocity": 67}, {"time": 4697, "pitch": 70, "duration": 3, "velocity": 76}, {"time": 4709, "pitch": 68, "duration": 4, "velocity": 73}, {"time": 4715, "pitch": 39, "duration": 38, "velocity": 70}, {"time": 4715, "pitch": 67, "duration": 3, "velocity": 76}, {"time": 4721, "pitch": 46, "duration": 29, "velocity": 59}, {"time": 4727, "pitch": 51, "duration": 8, "velocity": 56}, {"time": 4727, "pitch": 63, "duration": 5, "velocity": 69}, {"time": 4733, "pitch": 58, "duration": 2, "velocity": 56}, {"time": 4733, "pitch": 60, "duration": 2, "velocity": 59}, {"time": 4733, "pitch": 67, "duration": 5, "velocity": 64}, {"time": 4745, "pitch": 60, "duration": 2, "velocity": 60}, {"time": 4745, "pitch": 63, "duration": 2, "velocity": 69}, {"time": 4745, "pitch": 70, "duration": 4, "velocity": 73}, {"time": 4751, "pitch": 51, "duration": 3, "velocity": 54}, {"time": 4757, "pitch": 70, "duration": 4, "velocity": 66}, {"time": 4763, "pitch": 44, "duration": 83, "velocity": 72}, {"time": 4763, "pitch": 63, "duration": 7, "velocity": 58}, {"time": 4763, "pitch": 68, "duration": 9, "velocity": 69}, {"time": 4763, "pitch": 72, "duration": 11, "velocity": 56}, {"time": 4775, "pitch": 51, "duration": 70, "velocity": 43}, {"time": 4781, "pitch": 65, "duration": 7, "velocity": 60}, {"time": 4781, "pitch": 68, "duration": 7, "velocity": 70}, {"time": 4781, "pitch": 73, "duration": 7, "velocity": 70}, {"time": 4793, "pitch": 56, "duration": 9, "velocity": 48}, {"time": 4799, "pitch": 65, "duration": 6, "velocity": 49}, {"time": 4805, "pitch": 73, "duration": 5, "velocity": 70}, {"time": 4811, "pitch": 56, "duration": 14, "velocity": 55}, {"time": 4811, "pitch": 63, "duration": 12, "velocity": 50}, {"time": 4811, "pitch": 68, "duration": 16, "velocity": 52}, {"time": 4811, "pitch": 72, "duration": 18, "velocity": 55}, {"time": 4835, "pitch": 56, "duration": 7, "velocity": 53}, {"time": 4841, "pitch": 75, "duration": 4, "velocity": 59}, {"time": 4847, "pitch": 80, "duration": 5, "velocity": 66}, {"time": 4853, "pitch": 82, "duration": 4, "velocity": 39}, {"time": 4856, "pitch": 75, "duration": 6, "velocity": 48}, {"time": 4859, "pitch": 32, "duration": 6, "velocity": 61}, {"time": 4859, "pitch": 80, "duration": 5, "velocity": 34}, {"time": 4862, "pitch": 87, "duration": 6, "velocity": 56}], "annotations": [{"time": 13, "annotation": {"number": 64, "value": 127}, "group": "control_change"}, {"time": 31, "annotation": {"number": 64, "value": 0}, "group": "control_change"}, {"time": 39, "annotation": {"number": 64, "value": 127}, "group": "control_change"}, {"time": 55, "annotation": {"number": 64, "value": 0}, "group": "control_change"}, {"time": 63, "annotation": {"number": 64, "value": 127}, "group": "control_change"}, {"time": 103, "annotation": {"number": 64, "value": 0}, "group": "control_change"}, {"time": 110, "annotation": {"number": 64, "value": 127}, "group": "control_change"}, {"time": 155, "annotation": {"number": 64, "value": 0}, "group": "control_change"}, {"time": 162, "annotation": {"number": 64, "value": 127}, "group": "control_change"}, {"time": 203, "annotation": {"number": 64, "value": 0}, "group": "control_change"}, {"time": 209, "annotation": {"number": 64, "value": 127}, "group": "control_change"}, {"time": 225, "annotation": {"number": 64, "value": 0}, "group": "control_change"}, {"time": 232, "annotation": {"number": 64, "value": 127}, "group": "control_change"}, {"time": 248, "annotation": {"number": 64, "value": 0}, "group": "control_change"}, {"time": 254, "annotation": {"number": 64, "value": 127}, "group": "control_change"}, {"time": 299, "annotation": {"number": 64, "value": 0}, "group": "control_change"}, {"time": 305, "annotation": {"number": 64, "value": 127}, "group": "control_change"}, {"time": 344, "annotation": {"number": 64, "value": 0}, "group": "control_change"}, {"time": 350, "annotation": {"number": 64, "value": 127}, "group": "control_change"}, {"time": 383, "annotation": {"number": 64, "value": 0}, "group": "control_change"}, {"time": 395, "annotation": {"number": 64, "value": 127}, "group": "control_change"}, {"time": 419, "annotation": {"number": 64, "value": 0}, "group": "control_change"}, {"time": 426, "annotation": {"number": 64, "value": 127}, "group": "control_change"}, {"time": 442, "annotation": {"number": 64, "value": 0}, "group": "control_change"}, {"time": 448, "annotation": {"number": 64, "value": 127}, "group": "control_change"}, {"time": 490, "annotation": {"number": 64, "value": 0}, "group": "control_change"}, {"time": 498, "annotation": {"number": 64, "value": 127}, "group": "control_change"}, {"time": 538, "annotation": {"number": 64, "value": 0}, "group": "control_change"}, {"time": 545, "annotation": {"number": 64, "value": 127}, "group": "control_change"}, {"time": 587, "annotation": {"number": 64, "value": 0}, "group": "control_change"}, {"time": 592, "annotation": {"number": 64, "value": 127}, "group": "control_change"}, {"time": 635, "annotation": {"number": 64, "value": 0}, "group": "control_change"}, {"time": 642, "annotation": {"number": 64, "value": 127}, "group": "control_change"}, {"time": 683, "annotation": {"number": 64, "value": 0}, "group": "control_change"}, {"time": 685, "annotation": {"number": 64, "value": 127}, "group": "control_change"}, {"time": 731, "annotation": {"number": 64, "value": 0}, "group": "control_change"}, {"time": 735, "annotation": {"number": 64, "value": 127}, "group": "control_change"}, {"time": 778, "annotation": {"number": 64, "value": 0}, "group": "control_change"}, {"time": 785, "annotation": {"number": 64, "value": 127}, "group": "control_change"}, {"time": 804, "annotation": {"number": 64, "value": 0}, "group": "control_change"}, {"time": 811, "annotation": {"number": 64, "value": 127}, "group": "control_change"}, {"time": 824, "annotation": {"number": 64, "value": 0}, "group": "control_change"}, {"time": 832, "annotation": {"number": 64, "value": 127}, "group": "control_change"}, {"time": 876, "annotation": {"number": 64, "value": 0}, "group": "control_change"}, {"time": 884, "annotation": {"number": 64, "value": 127}, "group": "control_change"}, {"time": 923, "annotation": {"number": 64, "value": 0}, "group": "control_change"}, {"time": 926, "annotation": {"number": 64, "value": 127}, "group": "control_change"}, {"time": 970, "annotation": {"number": 64, "value": 0}, "group": "control_change"}, {"time": 978, "annotation": {"number": 64, "value": 127}, "group": "control_change"}, {"time": 1017, "annotation": {"number": 64, "value": 0}, "group": "control_change"}, {"time": 1021, "annotation": {"number": 64, "value": 127}, "group": "control_change"}, {"time": 1066, "annotation": {"number": 64, "value": 0}, "group": "control_change"}, {"time": 1068, "annotation": {"number": 64, "value": 127}, "group": "control_change"}, {"time": 1115, "annotation": {"number": 64, "value": 0}, "group": "control_change"}, {"time": 1123, "annotation": {"number": 64, "value": 127}, "group": "control_change"}, {"time": 1165, "annotation": {"number": 64, "value": 0}, "group": "control_change"}, {"time": 1168, "annotation": {"number": 64, "value": 127}, "group": "control_change"}, {"time": 1168, "annotation": {"number": 64, "value": 0}, "group": "control_change"}, {"time": 1209, "annotation": {"number": 64, "value": 0}, "group": "control_change"}, {"time": 1217, "annotation": {"number": 64, "value": 127}, "group": "control_change"}, {"time": 1259, "annotation": {"number": 64, "value": 0}, "group": "control_change"}, {"time": 1262, "annotation": {"number": 64, "value": 127}, "group": "control_change"}, {"time": 1306, "annotation": {"number": 64, "value": 0}, "group": "control_change"}, {"time": 1314, "annotation": {"number": 64, "value": 127}, "group": "control_change"}, {"time": 1355, "annotation": {"number": 64, "value": 0}, "group": "control_change"}, {"time": 1358, "annotation": {"number": 64, "value": 127}, "group": "control_change"}, {"time": 1403, "annotation": {"number": 64, "value": 0}, "group": "control_change"}, {"time": 1407, "annotation": {"number": 64, "value": 127}, "group": "control_change"}, {"time": 1451, "annotation": {"number": 64, "value": 0}, "group": "control_change"}, {"time": 1452, "annotation": {"number": 64, "value": 127}, "group": "control_change"}, {"time": 1494, "annotation": {"number": 64, "value": 0}, "group": "control_change"}, {"time": 1502, "annotation": {"number": 64, "value": 127}, "group": "control_change"}, {"time": 1533, "annotation": {"number": 64, "value": 127}, "group": "control_change"}, {"time": 1546, "annotation": {"number": 64, "value": 0}, "group": "control_change"}, {"time": 1550, "annotation": {"number": 64, "value": 127}, "group": "control_change"}, {"time": 1594, "annotation": {"number": 64, "value": 0}, "group": "control_change"}, {"time": 1603, "annotation": {"number": 64, "value": 127}, "group": "control_change"}, {"time": 1641, "annotation": {"number": 64, "value": 0}, "group": "control_change"}, {"time": 1649, "annotation": {"number": 64, "value": 127}, "group": "control_change"}, {"time": 1688, "annotation": {"number": 64, "value": 0}, "group": "control_change"}, {"time": 1693, "annotation": {"number": 64, "value": 127}, "group": "control_change"}, {"time": 1696, "annotation": {"number": 64, "value": 127}, "group": "control_change"}, {"time": 1712, "annotation": {"number": 64, "value": 0}, "group": "control_change"}, {"time": 1714, "annotation": {"number": 64, "value": 0}, "group": "control_change"}, {"time": 1728, "annotation": {"number": 64, "value": 127}, "group": "control_change"}, {"time": 1739, "annotation": {"number": 64, "value": 0}, "group": "control_change"}, {"time": 1750, "annotation": {"number": 64, "value": 127}, "group": "control_change"}, {"time": 1784, "annotation": {"number": 64, "value": 0}, "group": "control_change"}, {"time": 1797, "annotation": {"number": 64, "value": 127}, "group": "control_change"}, {"time": 1834, "annotation": {"number": 64, "value": 0}, "group": "control_change"}, {"time": 1840, "annotation": {"number": 64, "value": 127}, "group": "control_change"}, {"time": 1881, "annotation": {"number": 64, "value": 0}, "group": "control_change"}, {"time": 1887, "annotation": {"number": 64, "value": 127}, "group": "control_change"}, {"time": 1930, "annotation": {"number": 64, "value": 0}, "group": "control_change"}, {"time": 1937, "annotation": {"number": 64, "value": 127}, "group": "control_change"}, {"time": 1978, "annotation": {"number": 64, "value": 0}, "group": "control_change"}, {"time": 1986, "annotation": {"number": 64, "value": 127}, "group": "control_change"}, {"time": 2022, "annotation": {"number": 64, "value": 0}, "group": "control_change"}, {"time": 2035, "annotation": {"number": 64, "value": 127}, "group": "control_change"}, {"time": 2073, "annotation": {"number": 64, "value": 0}, "group": "control_change"}, {"time": 2084, "annotation": {"number": 64, "value": 127}, "group": "control_change"}, {"time": 2102, "annotation": {"number": 64, "value": 0}, "group": "control_change"}, {"time": 2111, "annotation": {"number": 64, "value": 127}, "group": "control_change"}, {"time": 2122, "annotation": {"number": 64, "value": 0}, "group": "control_change"}, {"time": 2134, "annotation": {"number": 64, "value": 127}, "group": "control_change"}, {"time": 2150, "annotation": {"number": 64, "value": 0}, "group": "control_change"}, {"time": 2161, "annotation": {"number": 64, "value": 127}, "group": "control_change"}, {"time": 2171, "annotation": {"number": 64, "value": 0}, "group": "control_change"}, {"time": 2183, "annotation": {"number": 64, "value": 127}, "group": "control_change"}, {"time": 2217, "annotation": {"number": 64, "value": 0}, "group": "control_change"}, {"time": 2228, "annotation": {"number": 64, "value": 127}, "group": "control_change"}, {"time": 2267, "annotation": {"number": 64, "value": 0}, "group": "control_change"}, {"time": 2278, "annotation": {"number": 64, "value": 127}, "group": "control_change"}, {"time": 2315, "annotation": {"number": 64, "value": 0}, "group": "control_change"}, {"time": 2326, "annotation": {"number": 64, "value": 127}, "group": "control_change"}, {"time": 2362, "annotation": {"number": 64, "value": 0}, "group": "control_change"}, {"time": 2370, "annotation": {"number": 64, "value": 127}, "group": "control_change"}, {"time": 2411, "annotation": {"number": 64, "value": 127}, "group": "control_change"}, {"time": 2412, "annotation": {"number": 64, "value": 0}, "group": "control_change"}, {"time": 2455, "annotation": {"number": 64, "value": 0}, "group": "control_change"}, {"time": 2459, "annotation": {"number": 64, "value": 127}, "group": "control_change"}, {"time": 2504, "annotation": {"number": 64, "value": 0}, "group": "control_change"}, {"time": 2509, "annotation": {"number": 64, "value": 127}, "group": "control_change"}, {"time": 2552, "annotation": {"number": 64, "value": 0}, "group": "control_change"}, {"time": 2556, "annotation": {"number": 64, "value": 127}, "group": "control_change"}, {"time": 2603, "annotation": {"number": 64, "value": 0}, "group": "control_change"}, {"time": 2608, "annotation": {"number": 64, "value": 127}, "group": "control_change"}, {"time": 2652, "annotation": {"number": 64, "value": 0}, "group": "control_change"}, {"time": 2656, "annotation": {"number": 64, "value": 127}, "group": "control_change"}, {"time": 2699, "annotation": {"number": 64, "value": 127}, "group": "control_change"}, {"time": 2701, "annotation": {"number": 64, "value": 0}, "group": "control_change"}, {"time": 2746, "annotation": {"number": 64, "value": 0}, "group": "control_change"}, {"time": 2751, "annotation": {"number": 64, "value": 127}, "group": "control_change"}, {"time": 2796, "annotation": {"number": 64, "value": 0}, "group": "control_change"}, {"time": 2801, "annotation": {"number": 64, "value": 127}, "group": "control_change"}, {"time": 2843, "annotation": {"number": 64, "value": 0}, "group": "control_change"}, {"time": 2845, "annotation": {"number": 64, "value": 127}, "group": "control_change"}, {"time": 2889, "annotation": {"number": 64, "value": 0}, "group": "control_change"}, {"time": 2894, "annotation": {"number": 64, "value": 127}, "group": "control_change"}, {"time": 2896, "annotation": {"number": 64, "value": 127}, "group": "control_change"}, {"time": 2896, "annotation": {"number": 64, "value": 0}, "group": "control_change"}, {"time": 2939, "annotation": {"number": 64, "value": 0}, "group": "control_change"}, {"time": 2945, "annotation": {"number": 64, "value": 127}, "group": "control_change"}, {"time": 2987, "annotation": {"number": 64, "value": 0}, "group": "control_change"}, {"time": 2990, "annotation": {"number": 64, "value": 127}, "group": "control_change"}, {"time": 3034, "annotation": {"number": 64, "value": 0}, "group": "control_change"}, {"time": 3042, "annotation": {"number": 64, "value": 127}, "group": "control_change"}, {"time": 3083, "annotation": {"number": 64, "value": 0}, "group": "control_change"}, {"time": 3086, "annotation": {"number": 64, "value": 127}, "group": "control_change"}, {"time": 3131, "annotation": {"number": 64, "value": 0}, "group": "control_change"}, {"time": 3135, "annotation": {"number": 64, "value": 127}, "group": "control_change"}, {"time": 3179, "annotation": {"number": 64, "value": 0}, "group": "control_change"}, {"time": 3180, "annotation": {"number": 64, "value": 127}, "group": "control_change"}, {"time": 3222, "annotation": {"number": 64, "value": 0}, "group": "control_change"}, {"time": 3230, "annotation": {"number": 64, "value": 127}, "group": "control_change"}, {"time": 3261, "annotation": {"number": 64, "value": 127}, "group": "control_change"}, {"time": 3274, "annotation": {"number": 64, "value": 0}, "group": "control_change"}, {"time": 3278, "annotation": {"number": 64, "value": 127}, "group": "control_change"}, {"time": 3322, "annotation": {"number": 64, "value": 0}, "group": "control_change"}, {"time": 3331, "annotation": {"number": 64, "value": 127}, "group": "control_change"}, {"time": 3369, "annotation": {"number": 64, "value": 0}, "group": "control_change"}, {"time": 3377, "annotation": {"number": 64, "value": 127}, "group": "control_change"}, {"time": 3416, "annotation": {"number": 64, "value": 0}, "group": "control_change"}, {"time": 3421, "annotation": {"number": 64, "value": 127}, "group": "control_change"}, {"time": 3424, "annotation": {"number": 64, "value": 127}, "group": "control_change"}, {"time": 3440, "annotation": {"number": 64, "value": 0}, "group": "control_change"}, {"time": 3442, "annotation": {"number": 64, "value": 0}, "group": "control_change"}, {"time": 3456, "annotation": {"number": 64, "value": 127}, "group": "control_change"}, {"time": 3467, "annotation": {"number": 64, "value": 0}, "group": "control_change"}, {"time": 3478, "annotation": {"number": 64, "value": 127}, "group": "control_change"}, {"time": 3512, "annotation": {"number": 64, "value": 0}, "group": "control_change"}, {"time": 3525, "annotation": {"number": 64, "value": 127}, "group": "control_change"}, {"time": 3562, "annotation": {"number": 64, "value": 0}, "group": "control_change"}, {"time": 3568, "annotation": {"number": 64, "value": 127}, "group": "control_change"}, {"time": 3609, "annotation": {"number": 64, "value": 0}, "group": "control_change"}, {"time": 3615, "annotation": {"number": 64, "value": 127}, "group": "control_change"}, {"time": 3658, "annotation": {"number": 64, "value": 0}, "group": "control_change"}, {"time": 3665, "annotation": {"number": 64, "value": 127}, "group": "control_change"}, {"time": 3706, "annotation": {"number": 64, "value": 0}, "group": "control_change"}, {"time": 3714, "annotation": {"number": 64, "value": 127}, "group": "control_change"}, {"time": 3750, "annotation": {"number": 64, "value": 0}, "group": "control_change"}, {"time": 3763, "annotation": {"number": 64, "value": 127}, "group": "control_change"}, {"time": 3801, "annotation": {"number": 64, "value": 0}, "group": "control_change"}, {"time": 3812, "annotation": {"number": 64, "value": 127}, "group": "control_change"}, {"time": 3830, "annotation": {"number": 64, "value": 0}, "group": "control_change"}, {"time": 3839, "annotation": {"number": 64, "value": 127}, "group": "control_change"}, {"time": 3850, "annotation": {"number": 64, "value": 0}, "group": "control_change"}, {"time": 3862, "annotation": {"number": 64, "value": 127}, "group": "control_change"}, {"time": 3878, "annotation": {"number": 64, "value": 0}, "group": "control_change"}, {"time": 3889, "annotation": {"number": 64, "value": 127}, "group": "control_change"}, {"time": 3899, "annotation": {"number": 64, "value": 0}, "group": "control_change"}, {"time": 3911, "annotation": {"number": 64, "value": 127}, "group": "control_change"}, {"time": 3945, "annotation": {"number": 64, "value": 0}, "group": "control_change"}, {"time": 3956, "annotation": {"number": 64, "value": 127}, "group": "control_change"}, {"time": 3995, "annotation": {"number": 64, "value": 0}, "group": "control_change"}, {"time": 4006, "annotation": {"number": 64, "value": 127}, "group": "control_change"}, {"time": 4043, "annotation": {"number": 64, "value": 0}, "group": "control_change"}, {"time": 4054, "annotation": {"number": 64, "value": 127}, "group": "control_change"}, {"time": 4090, "annotation": {"number": 64, "value": 0}, "group": "control_change"}, {"time": 4098, "annotation": {"number": 64, "value": 127}, "group": "control_change"}, {"time": 4139, "annotation": {"number": 64, "value": 127}, "group": "control_change"}, {"time": 4139, "annotation": {"number": 64, "value": 0}, "group": "control_change"}, {"time": 4141, "annotation": {"number": 64, "value": 127}, "group": "control_change"}, {"time": 4187, "annotation": {"number": 64, "value": 0}, "group": "control_change"}, {"time": 4188, "annotation": {"number": 64, "value": 127}, "group": "control_change"}, {"time": 4211, "annotation": {"number": 64, "value": 0}, "group": "control_change"}, {"time": 4216, "annotation": {"number": 64, "value": 127}, "group": "control_change"}, {"time": 4233, "annotation": {"number": 64, "value": 0}, "group": "control_change"}, {"time": 4239, "annotation": {"number": 64, "value": 127}, "group": "control_change"}, {"time": 4283, "annotation": {"number": 64, "value": 0}, "group": "control_change"}, {"time": 4289, "annotation": {"number": 64, "value": 127}, "group": "control_change"}, {"time": 4327, "annotation": {"number": 64, "value": 0}, "group": "control_change"}, {"time": 4333, "annotation": {"number": 64, "value": 127}, "group": "control_change"}, {"time": 4379, "annotation": {"number": 64, "value": 0}, "group": "control_change"}, {"time": 4385, "annotation": {"number": 64, "value": 127}, "group": "control_change"}, {"time": 4475, "annotation": {"number": 64, "value": 127}, "group": "control_change"}, {"time": 4523, "annotation": {"number": 64, "value": 0}, "group": "control_change"}, {"time": 4527, "annotation": {"number": 64, "value": 127}, "group": "control_change"}, {"time": 4571, "annotation": {"number": 64, "value": 0}, "group": "control_change"}, {"time": 4574, "annotation": {"number": 64, "value": 127}, "group": "control_change"}, {"time": 4616, "annotation": {"number": 64, "value": 0}, "group": "control_change"}, {"time": 4620, "annotation": {"number": 64, "value": 127}, "group": "control_change"}, {"time": 4641, "annotation": {"number": 64, "value": 0}, "group": "control_change"}, {"time": 4645, "annotation": {"number": 64, "value": 127}, "group": "control_change"}, {"time": 4667, "annotation": {"number": 64, "value": 0}, "group": "control_change"}, {"time": 4670, "annotation": {"number": 64, "value": 127}, "group": "control_change"}, {"time": 4715, "annotation": {"number": 64, "value": 0}, "group": "control_change"}, {"time": 4720, "annotation": {"number": 64, "value": 127}, "group": "control_change"}, {"time": 4762, "annotation": {"number": 64, "value": 0}, "group": "control_change"}, {"time": 4774, "annotation": {"number": 64, "value": 127}, "group": "control_change"}, {"time": 4892, "annotation": {"number": 64, "value": 0}, "group": "control_change"}]}]}