{"metadata": {"schema_version": "0.2", "title": "None", "source_filename": "221.mid", "source_format": "midi"}, "resolution": 12, "tempos": [{"time": 0, "qpm": 110.00011000011}, {"time": 192, "qpm": 89.9999550000225}, {"time": 240, "qpm": 103.0000480666891}, {"time": 288, "qpm": 101.00006901671382}, {"time": 432, "qpm": 110.00011000011}, {"time": 1056, "qpm": 110.9999056500802}, {"time": 1128, "qpm": 110.00011000011}, {"time": 1440, "qpm": 108.99994368336243}, {"time": 1500, "qpm": 112.00005973336519}, {"time": 1560, "qpm": 110.00011000011}, {"time": 2784, "qpm": 112.00005973336519}, {"time": 2832, "qpm": 110.9999056500802}, {"time": 2904, "qpm": 110.00011000011}, {"time": 4320, "qpm": 112.00005973336519}, {"time": 4416, "qpm": 110.00011000011}], "time_signatures": [{"time": 0, "numerator": 4, "denominator": 4}], "tracks": [{"program": 4, "is_drum": false, "name": "MELODY", "notes": [{"time": 594, "pitch": 75, "duration": 12, "velocity": 66}, {"time": 606, "pitch": 77, "duration": 13, "velocity": 66}, {"time": 618, "pitch": 80, "duration": 13, "velocity": 93}, {"time": 630, "pitch": 82, "duration": 12, "velocity": 85}, {"time": 642, "pitch": 77, "duration": 28, "velocity": 96}, {"time": 690, "pitch": 84, "duration": 7, "velocity": 97}, {"time": 702, "pitch": 84, "duration": 8, "velocity": 97}, {"time": 714, "pitch": 84, "duration": 7, "velocity": 90}, {"time": 720, "pitch": 82, "duration": 7, "velocity": 62}, {"time": 726, "pitch": 80, "duration": 6, "velocity": 75}, {"time": 732, "pitch": 75, "duration": 6, "velocity": 63}, {"time": 738, "pitch": 77, "duration": 33, "velocity": 66}, {"time": 786, "pitch": 75, "duration": 14, "velocity": 87}, {"time": 798, "pitch": 77, "duration": 12, "velocity": 90}, {"time": 810, "pitch": 80, "duration": 13, "velocity": 91}, {"time": 822, "pitch": 82, "duration": 12, "velocity": 72}, {"time": 834, "pitch": 77, "duration": 28, "velocity": 76}, {"time": 885, "pitch": 84, "duration": 10, "velocity": 95}, {"time": 894, "pitch": 82, "duration": 11, "velocity": 85}, {"time": 906, "pitch": 84, "duration": 8, "velocity": 90}, {"time": 912, "pitch": 82, "duration": 8, "velocity": 64}, {"time": 918, "pitch": 80, "duration": 6, "velocity": 66}, {"time": 924, "pitch": 75, "duration": 6, "velocity": 66}, {"time": 930, "pitch": 77, "duration": 35, "velocity": 73}, {"time": 1026, "pitch": 72, "duration": 10, "velocity": 77}, {"time": 1038, "pitch": 72, "duration": 12, "velocity": 81}, {"time": 1050, "pitch": 75, "duration": 12, "velocity": 79}, {"time": 1062, "pitch": 72, "duration": 12, "velocity": 65}, {"time": 1074, "pitch": 77, "duration": 25, "velocity": 84}, {"time": 1098, "pitch": 80, "duration": 14, "velocity": 101}, {"time": 1122, "pitch": 77, "duration": 9, "velocity": 100}, {"time": 1134, "pitch": 77, "duration": 13, "velocity": 92}, {"time": 1146, "pitch": 80, "duration": 13, "velocity": 103}, {"time": 1158, "pitch": 77, "duration": 6, "velocity": 89}, {"time": 1164, "pitch": 80, "duration": 7, "velocity": 95}, {"time": 1170, "pitch": 82, "duration": 24, "velocity": 93}, {"time": 1218, "pitch": 75, "duration": 10, "velocity": 96}, {"time": 1230, "pitch": 77, "duration": 11, "velocity": 90}, {"time": 1242, "pitch": 80, "duration": 13, "velocity": 83}, {"time": 1254, "pitch": 77, "duration": 9, "velocity": 71}, {"time": 1266, "pitch": 72, "duration": 6, "velocity": 84}, {"time": 1272, "pitch": 70, "duration": 26, "velocity": 65}, {"time": 1290, "pitch": 72, "duration": 9, "velocity": 96}, {"time": 1302, "pitch": 72, "duration": 9, "velocity": 89}, {"time": 1314, "pitch": 75, "duration": 12, "velocity": 94}, {"time": 1326, "pitch": 77, "duration": 11, "velocity": 100}, {"time": 1338, "pitch": 80, "duration": 13, "velocity": 101}, {"time": 1350, "pitch": 82, "duration": 6, "velocity": 90}, {"time": 1356, "pitch": 75, "duration": 6, "velocity": 90}, {"time": 1362, "pitch": 77, "duration": 31, "velocity": 100}, {"time": 1434, "pitch": 84, "duration": 9, "velocity": 97}, {"time": 1446, "pitch": 84, "duration": 12, "velocity": 98}, {"time": 1458, "pitch": 82, "duration": 16, "velocity": 99}, {"time": 1482, "pitch": 82, "duration": 10, "velocity": 105}, {"time": 1494, "pitch": 84, "duration": 8, "velocity": 105}, {"time": 1506, "pitch": 80, "duration": 11, "velocity": 103}, {"time": 1518, "pitch": 77, "duration": 9, "velocity": 98}, {"time": 1530, "pitch": 84, "duration": 10, "velocity": 99}, {"time": 1542, "pitch": 84, "duration": 12, "velocity": 106}, {"time": 1554, "pitch": 82, "duration": 14, "velocity": 105}, {"time": 1578, "pitch": 82, "duration": 12, "velocity": 108}, {"time": 1590, "pitch": 84, "duration": 12, "velocity": 99}, {"time": 1602, "pitch": 80, "duration": 12, "velocity": 108}, {"time": 1614, "pitch": 77, "duration": 32, "velocity": 96}, {"time": 1854, "pitch": 80, "duration": 10, "velocity": 100}, {"time": 1866, "pitch": 80, "duration": 13, "velocity": 100}, {"time": 1878, "pitch": 77, "duration": 13, "velocity": 95}, {"time": 1890, "pitch": 82, "duration": 20, "velocity": 108}, {"time": 1914, "pitch": 80, "duration": 7, "velocity": 103}, {"time": 1920, "pitch": 82, "duration": 12, "velocity": 97}, {"time": 1932, "pitch": 84, "duration": 21, "velocity": 106}, {"time": 1962, "pitch": 82, "duration": 10, "velocity": 99}, {"time": 1974, "pitch": 82, "duration": 11, "velocity": 97}, {"time": 1986, "pitch": 80, "duration": 8, "velocity": 97}, {"time": 1998, "pitch": 80, "duration": 3, "velocity": 97}, {"time": 2004, "pitch": 80, "duration": 7, "velocity": 86}, {"time": 2010, "pitch": 82, "duration": 6, "velocity": 86}, {"time": 2016, "pitch": 84, "duration": 8, "velocity": 93}, {"time": 2022, "pitch": 82, "duration": 6, "velocity": 93}, {"time": 2028, "pitch": 80, "duration": 7, "velocity": 87}, {"time": 2034, "pitch": 84, "duration": 5, "velocity": 103}, {"time": 2040, "pitch": 84, "duration": 17, "velocity": 105}, {"time": 2058, "pitch": 84, "duration": 6, "velocity": 105}, {"time": 2064, "pitch": 82, "duration": 7, "velocity": 80}, {"time": 2070, "pitch": 80, "duration": 5, "velocity": 90}, {"time": 2076, "pitch": 75, "duration": 5, "velocity": 82}, {"time": 2082, "pitch": 77, "duration": 23, "velocity": 93}, {"time": 2106, "pitch": 84, "duration": 7, "velocity": 108}, {"time": 2112, "pitch": 82, "duration": 7, "velocity": 94}, {"time": 2118, "pitch": 80, "duration": 6, "velocity": 97}, {"time": 2124, "pitch": 75, "duration": 6, "velocity": 89}, {"time": 2130, "pitch": 77, "duration": 16, "velocity": 101}, {"time": 2154, "pitch": 84, "duration": 6, "velocity": 109}, {"time": 2160, "pitch": 82, "duration": 8, "velocity": 91}, {"time": 2166, "pitch": 80, "duration": 5, "velocity": 97}, {"time": 2172, "pitch": 75, "duration": 7, "velocity": 87}, {"time": 2178, "pitch": 77, "duration": 45, "velocity": 101}, {"time": 2418, "pitch": 75, "duration": 12, "velocity": 66}, {"time": 2430, "pitch": 77, "duration": 13, "velocity": 66}, {"time": 2442, "pitch": 80, "duration": 13, "velocity": 93}, {"time": 2454, "pitch": 82, "duration": 12, "velocity": 85}, {"time": 2466, "pitch": 77, "duration": 28, "velocity": 96}, {"time": 2514, "pitch": 84, "duration": 7, "velocity": 97}, {"time": 2526, "pitch": 84, "duration": 8, "velocity": 97}, {"time": 2538, "pitch": 84, "duration": 7, "velocity": 90}, {"time": 2544, "pitch": 82, "duration": 7, "velocity": 62}, {"time": 2550, "pitch": 80, "duration": 6, "velocity": 75}, {"time": 2556, "pitch": 75, "duration": 6, "velocity": 63}, {"time": 2562, "pitch": 77, "duration": 33, "velocity": 66}, {"time": 2610, "pitch": 75, "duration": 14, "velocity": 87}, {"time": 2622, "pitch": 77, "duration": 12, "velocity": 90}, {"time": 2634, "pitch": 80, "duration": 14, "velocity": 91}, {"time": 2646, "pitch": 82, "duration": 12, "velocity": 72}, {"time": 2658, "pitch": 77, "duration": 28, "velocity": 76}, {"time": 2706, "pitch": 84, "duration": 10, "velocity": 95}, {"time": 2718, "pitch": 82, "duration": 13, "velocity": 85}, {"time": 2730, "pitch": 84, "duration": 8, "velocity": 90}, {"time": 2736, "pitch": 82, "duration": 8, "velocity": 64}, {"time": 2742, "pitch": 80, "duration": 6, "velocity": 66}, {"time": 2748, "pitch": 75, "duration": 6, "velocity": 66}, {"time": 2754, "pitch": 77, "duration": 35, "velocity": 73}, {"time": 2826, "pitch": 84, "duration": 9, "velocity": 97}, {"time": 2838, "pitch": 84, "duration": 12, "velocity": 98}, {"time": 2850, "pitch": 82, "duration": 16, "velocity": 99}, {"time": 2874, "pitch": 82, "duration": 10, "velocity": 105}, {"time": 2886, "pitch": 84, "duration": 8, "velocity": 105}, {"time": 2898, "pitch": 80, "duration": 11, "velocity": 103}, {"time": 2910, "pitch": 77, "duration": 9, "velocity": 98}, {"time": 2922, "pitch": 84, "duration": 10, "velocity": 99}, {"time": 2934, "pitch": 84, "duration": 12, "velocity": 106}, {"time": 2946, "pitch": 82, "duration": 14, "velocity": 105}, {"time": 2970, "pitch": 82, "duration": 12, "velocity": 108}, {"time": 2982, "pitch": 84, "duration": 12, "velocity": 99}, {"time": 2994, "pitch": 80, "duration": 12, "velocity": 108}, {"time": 3006, "pitch": 77, "duration": 32, "velocity": 96}, {"time": 3246, "pitch": 80, "duration": 10, "velocity": 100}, {"time": 3258, "pitch": 80, "duration": 13, "velocity": 100}, {"time": 3270, "pitch": 77, "duration": 13, "velocity": 95}, {"time": 3282, "pitch": 82, "duration": 20, "velocity": 108}, {"time": 3306, "pitch": 80, "duration": 7, "velocity": 103}, {"time": 3312, "pitch": 82, "duration": 12, "velocity": 97}, {"time": 3324, "pitch": 84, "duration": 21, "velocity": 106}, {"time": 3354, "pitch": 82, "duration": 9, "velocity": 99}, {"time": 3366, "pitch": 82, "duration": 11, "velocity": 97}, {"time": 3378, "pitch": 80, "duration": 8, "velocity": 97}, {"time": 3390, "pitch": 80, "duration": 3, "velocity": 97}, {"time": 3396, "pitch": 80, "duration": 7, "velocity": 86}, {"time": 3402, "pitch": 82, "duration": 6, "velocity": 86}, {"time": 3408, "pitch": 84, "duration": 8, "velocity": 93}, {"time": 3414, "pitch": 82, "duration": 6, "velocity": 93}, {"time": 3420, "pitch": 80, "duration": 7, "velocity": 87}, {"time": 3426, "pitch": 84, "duration": 5, "velocity": 103}, {"time": 3432, "pitch": 84, "duration": 17, "velocity": 105}, {"time": 3450, "pitch": 84, "duration": 6, "velocity": 105}, {"time": 3456, "pitch": 82, "duration": 7, "velocity": 80}, {"time": 3462, "pitch": 80, "duration": 5, "velocity": 90}, {"time": 3468, "pitch": 75, "duration": 5, "velocity": 82}, {"time": 3474, "pitch": 77, "duration": 23, "velocity": 93}, {"time": 3498, "pitch": 84, "duration": 7, "velocity": 108}, {"time": 3504, "pitch": 82, "duration": 7, "velocity": 94}, {"time": 3510, "pitch": 80, "duration": 6, "velocity": 97}, {"time": 3516, "pitch": 75, "duration": 6, "velocity": 89}, {"time": 3522, "pitch": 77, "duration": 16, "velocity": 101}, {"time": 3546, "pitch": 84, "duration": 6, "velocity": 109}, {"time": 3552, "pitch": 82, "duration": 8, "velocity": 91}, {"time": 3558, "pitch": 80, "duration": 5, "velocity": 97}, {"time": 3564, "pitch": 75, "duration": 7, "velocity": 87}, {"time": 3570, "pitch": 77, "duration": 45, "velocity": 101}, {"time": 3810, "pitch": 75, "duration": 12, "velocity": 66}, {"time": 3822, "pitch": 77, "duration": 13, "velocity": 66}, {"time": 3834, "pitch": 80, "duration": 13, "velocity": 93}, {"time": 3846, "pitch": 82, "duration": 12, "velocity": 85}, {"time": 3858, "pitch": 77, "duration": 28, "velocity": 96}, {"time": 3906, "pitch": 84, "duration": 7, "velocity": 97}, {"time": 3918, "pitch": 84, "duration": 8, "velocity": 97}, {"time": 3930, "pitch": 84, "duration": 7, "velocity": 90}, {"time": 3936, "pitch": 82, "duration": 7, "velocity": 62}, {"time": 3942, "pitch": 80, "duration": 6, "velocity": 75}, {"time": 3948, "pitch": 75, "duration": 6, "velocity": 63}, {"time": 3954, "pitch": 77, "duration": 33, "velocity": 66}, {"time": 4002, "pitch": 75, "duration": 14, "velocity": 87}, {"time": 4014, "pitch": 77, "duration": 12, "velocity": 90}, {"time": 4026, "pitch": 80, "duration": 13, "velocity": 91}, {"time": 4038, "pitch": 82, "duration": 12, "velocity": 72}, {"time": 4050, "pitch": 77, "duration": 28, "velocity": 76}, {"time": 4098, "pitch": 84, "duration": 10, "velocity": 95}, {"time": 4110, "pitch": 82, "duration": 11, "velocity": 85}, {"time": 4122, "pitch": 84, "duration": 8, "velocity": 90}, {"time": 4128, "pitch": 82, "duration": 8, "velocity": 64}, {"time": 4134, "pitch": 80, "duration": 6, "velocity": 66}, {"time": 4140, "pitch": 75, "duration": 6, "velocity": 66}, {"time": 4146, "pitch": 77, "duration": 35, "velocity": 73}, {"time": 4194, "pitch": 75, "duration": 14, "velocity": 87}, {"time": 4206, "pitch": 77, "duration": 12, "velocity": 90}, {"time": 4218, "pitch": 80, "duration": 14, "velocity": 91}, {"time": 4230, "pitch": 82, "duration": 12, "velocity": 72}, {"time": 4242, "pitch": 77, "duration": 28, "velocity": 76}, {"time": 4290, "pitch": 84, "duration": 10, "velocity": 95}, {"time": 4302, "pitch": 82, "duration": 11, "velocity": 85}, {"time": 4314, "pitch": 84, "duration": 8, "velocity": 90}, {"time": 4320, "pitch": 82, "duration": 8, "velocity": 64}, {"time": 4326, "pitch": 80, "duration": 6, "velocity": 66}, {"time": 4332, "pitch": 75, "duration": 6, "velocity": 66}, {"time": 4338, "pitch": 77, "duration": 35, "velocity": 73}]}, {"program": 0, "is_drum": false, "name": "PIANO", "notes": [{"time": 66, "pitch": 41, "duration": 13, "velocity": 80}, {"time": 66, "pitch": 56, "duration": 13, "velocity": 93}, {"time": 66, "pitch": 60, "duration": 13, "velocity": 97}, {"time": 66, "pitch": 65, "duration": 6, "velocity": 78}, {"time": 78, "pitch": 53, "duration": 3, "velocity": 85}, {"time": 78, "pitch": 65, "duration": 3, "velocity": 85}, {"time": 90, "pitch": 44, "duration": 14, "velocity": 82}, {"time": 90, "pitch": 60, "duration": 14, "velocity": 88}, {"time": 90, "pitch": 63, "duration": 14, "velocity": 97}, {"time": 90, "pitch": 68, "duration": 6, "velocity": 82}, {"time": 102, "pitch": 56, "duration": 3, "velocity": 88}, {"time": 102, "pitch": 68, "duration": 3, "velocity": 97}, {"time": 114, "pitch": 46, "duration": 14, "velocity": 80}, {"time": 114, "pitch": 61, "duration": 14, "velocity": 82}, {"time": 114, "pitch": 65, "duration": 12, "velocity": 95}, {"time": 114, "pitch": 70, "duration": 8, "velocity": 85}, {"time": 126, "pitch": 58, "duration": 3, "velocity": 82}, {"time": 126, "pitch": 65, "duration": 2, "velocity": 59}, {"time": 126, "pitch": 70, "duration": 3, "velocity": 93}, {"time": 138, "pitch": 48, "duration": 11, "velocity": 88}, {"time": 138, "pitch": 60, "duration": 11, "velocity": 91}, {"time": 138, "pitch": 63, "duration": 12, "velocity": 95}, {"time": 138, "pitch": 67, "duration": 10, "velocity": 91}, {"time": 138, "pitch": 72, "duration": 9, "velocity": 91}, {"time": 150, "pitch": 48, "duration": 3, "velocity": 62}, {"time": 150, "pitch": 56, "duration": 1, "velocity": 78}, {"time": 150, "pitch": 72, "duration": 2, "velocity": 35}, {"time": 162, "pitch": 41, "duration": 3, "velocity": 85}, {"time": 162, "pitch": 65, "duration": 3, "velocity": 66}, {"time": 163, "pitch": 68, "duration": 45, "velocity": 46}, {"time": 164, "pitch": 77, "duration": 2, "velocity": 63}, {"time": 165, "pitch": 53, "duration": 2, "velocity": 82}, {"time": 166, "pitch": 65, "duration": 1, "velocity": 44}, {"time": 167, "pitch": 77, "duration": 1, "velocity": 63}, {"time": 167, "pitch": 41, "duration": 2, "velocity": 80}, {"time": 169, "pitch": 65, "duration": 1, "velocity": 54}, {"time": 169, "pitch": 53, "duration": 2, "velocity": 61}, {"time": 170, "pitch": 77, "duration": 1, "velocity": 61}, {"time": 171, "pitch": 41, "duration": 1, "velocity": 76}, {"time": 171, "pitch": 65, "duration": 2, "velocity": 53}, {"time": 172, "pitch": 53, "duration": 2, "velocity": 59}, {"time": 173, "pitch": 77, "duration": 1, "velocity": 60}, {"time": 173, "pitch": 41, "duration": 2, "velocity": 70}, {"time": 174, "pitch": 65, "duration": 2, "velocity": 47}, {"time": 175, "pitch": 53, "duration": 6, "velocity": 49}, {"time": 175, "pitch": 41, "duration": 4, "velocity": 72}, {"time": 176, "pitch": 77, "duration": 1, "velocity": 69}, {"time": 177, "pitch": 65, "duration": 2, "velocity": 54}, {"time": 178, "pitch": 77, "duration": 2, "velocity": 67}, {"time": 180, "pitch": 65, "duration": 4, "velocity": 55}, {"time": 180, "pitch": 41, "duration": 2, "velocity": 76}, {"time": 181, "pitch": 77, "duration": 1, "velocity": 61}, {"time": 183, "pitch": 53, "duration": 4, "velocity": 44}, {"time": 183, "pitch": 41, "duration": 2, "velocity": 80}, {"time": 183, "pitch": 77, "duration": 2, "velocity": 57}, {"time": 185, "pitch": 65, "duration": 2, "velocity": 63}, {"time": 186, "pitch": 41, "duration": 2, "velocity": 59}, {"time": 186, "pitch": 77, "duration": 2, "velocity": 55}, {"time": 188, "pitch": 65, "duration": 2, "velocity": 49}, {"time": 188, "pitch": 53, "duration": 2, "velocity": 39}, {"time": 188, "pitch": 41, "duration": 13, "velocity": 58}, {"time": 189, "pitch": 77, "duration": 2, "velocity": 47}, {"time": 190, "pitch": 65, "duration": 2, "velocity": 48}, {"time": 191, "pitch": 53, "duration": 5, "velocity": 36}, {"time": 192, "pitch": 77, "duration": 2, "velocity": 52}, {"time": 193, "pitch": 65, "duration": 2, "velocity": 51}, {"time": 195, "pitch": 77, "duration": 2, "velocity": 55}, {"time": 197, "pitch": 65, "duration": 2, "velocity": 59}, {"time": 198, "pitch": 77, "duration": 2, "velocity": 57}, {"time": 200, "pitch": 65, "duration": 8, "velocity": 51}, {"time": 200, "pitch": 53, "duration": 9, "velocity": 67}, {"time": 202, "pitch": 77, "duration": 2, "velocity": 69}, {"time": 207, "pitch": 77, "duration": 2, "velocity": 64}, {"time": 402, "pitch": 41, "duration": 6, "velocity": 76}, {"time": 402, "pitch": 65, "duration": 6, "velocity": 62}, {"time": 408, "pitch": 41, "duration": 3, "velocity": 62}, {"time": 408, "pitch": 65, "duration": 3, "velocity": 69}, {"time": 411, "pitch": 41, "duration": 3, "velocity": 72}, {"time": 411, "pitch": 65, "duration": 3, "velocity": 72}, {"time": 414, "pitch": 44, "duration": 12, "velocity": 60}, {"time": 414, "pitch": 65, "duration": 12, "velocity": 97}, {"time": 414, "pitch": 68, "duration": 12, "velocity": 97}, {"time": 426, "pitch": 41, "duration": 6, "velocity": 80}, {"time": 426, "pitch": 65, "duration": 6, "velocity": 80}, {"time": 432, "pitch": 41, "duration": 3, "velocity": 93}, {"time": 432, "pitch": 65, "duration": 3, "velocity": 62}, {"time": 435, "pitch": 41, "duration": 3, "velocity": 88}, {"time": 435, "pitch": 65, "duration": 3, "velocity": 73}, {"time": 438, "pitch": 46, "duration": 12, "velocity": 76}, {"time": 438, "pitch": 60, "duration": 12, "velocity": 85}, {"time": 438, "pitch": 65, "duration": 12, "velocity": 85}, {"time": 438, "pitch": 70, "duration": 12, "velocity": 85}, {"time": 486, "pitch": 37, "duration": 2, "velocity": 67}, {"time": 486, "pitch": 49, "duration": 2, "velocity": 93}, {"time": 486, "pitch": 56, "duration": 2, "velocity": 93}, {"time": 486, "pitch": 61, "duration": 1, "velocity": 88}, {"time": 486, "pitch": 65, "duration": 2, "velocity": 91}, {"time": 489, "pitch": 39, "duration": 7, "velocity": 70}, {"time": 489, "pitch": 58, "duration": 7, "velocity": 93}, {"time": 489, "pitch": 63, "duration": 7, "velocity": 95}, {"time": 489, "pitch": 67, "duration": 8, "velocity": 78}, {"time": 498, "pitch": 44, "duration": 4, "velocity": 75}, {"time": 498, "pitch": 56, "duration": 4, "velocity": 69}, {"time": 498, "pitch": 63, "duration": 4, "velocity": 70}, {"time": 498, "pitch": 68, "duration": 4, "velocity": 76}, {"time": 504, "pitch": 44, "duration": 5, "velocity": 69}, {"time": 504, "pitch": 56, "duration": 5, "velocity": 70}, {"time": 504, "pitch": 63, "duration": 2, "velocity": 62}, {"time": 504, "pitch": 68, "duration": 2, "velocity": 70}, {"time": 507, "pitch": 63, "duration": 2, "velocity": 54}, {"time": 507, "pitch": 68, "duration": 2, "velocity": 75}, {"time": 510, "pitch": 51, "duration": 8, "velocity": 76}, {"time": 510, "pitch": 63, "duration": 9, "velocity": 82}, {"time": 510, "pitch": 68, "duration": 8, "velocity": 73}, {"time": 522, "pitch": 39, "duration": 6, "velocity": 75}, {"time": 522, "pitch": 51, "duration": 5, "velocity": 75}, {"time": 522, "pitch": 63, "duration": 5, "velocity": 82}, {"time": 522, "pitch": 67, "duration": 5, "velocity": 78}, {"time": 522, "pitch": 70, "duration": 4, "velocity": 64}, {"time": 528, "pitch": 39, "duration": 3, "velocity": 76}, {"time": 528, "pitch": 51, "duration": 3, "velocity": 67}, {"time": 528, "pitch": 63, "duration": 4, "velocity": 55}, {"time": 528, "pitch": 67, "duration": 2, "velocity": 61}, {"time": 528, "pitch": 70, "duration": 1, "velocity": 51}, {"time": 531, "pitch": 67, "duration": 1, "velocity": 53}, {"time": 531, "pitch": 70, "duration": 1, "velocity": 54}, {"time": 534, "pitch": 46, "duration": 11, "velocity": 63}, {"time": 534, "pitch": 63, "duration": 10, "velocity": 76}, {"time": 534, "pitch": 67, "duration": 10, "velocity": 75}, {"time": 534, "pitch": 70, "duration": 10, "velocity": 72}, {"time": 594, "pitch": 44, "duration": 16, "velocity": 73}, {"time": 594, "pitch": 60, "duration": 7, "velocity": 75}, {"time": 594, "pitch": 63, "duration": 7, "velocity": 78}, {"time": 594, "pitch": 68, "duration": 7, "velocity": 80}, {"time": 600, "pitch": 51, "duration": 11, "velocity": 62}, {"time": 603, "pitch": 56, "duration": 5, "velocity": 63}, {"time": 603, "pitch": 60, "duration": 11, "velocity": 85}, {"time": 603, "pitch": 67, "duration": 8, "velocity": 69}, {"time": 612, "pitch": 68, "duration": 8, "velocity": 76}, {"time": 618, "pitch": 37, "duration": 7, "velocity": 70}, {"time": 618, "pitch": 49, "duration": 8, "velocity": 85}, {"time": 618, "pitch": 56, "duration": 7, "velocity": 72}, {"time": 618, "pitch": 61, "duration": 10, "velocity": 76}, {"time": 618, "pitch": 65, "duration": 10, "velocity": 76}, {"time": 630, "pitch": 39, "duration": 9, "velocity": 72}, {"time": 630, "pitch": 51, "duration": 5, "velocity": 78}, {"time": 630, "pitch": 58, "duration": 5, "velocity": 85}, {"time": 630, "pitch": 63, "duration": 5, "velocity": 67}, {"time": 630, "pitch": 67, "duration": 5, "velocity": 76}, {"time": 636, "pitch": 51, "duration": 4, "velocity": 64}, {"time": 642, "pitch": 41, "duration": 20, "velocity": 73}, {"time": 642, "pitch": 60, "duration": 6, "velocity": 78}, {"time": 642, "pitch": 65, "duration": 7, "velocity": 72}, {"time": 642, "pitch": 68, "duration": 7, "velocity": 78}, {"time": 648, "pitch": 48, "duration": 18, "velocity": 66}, {"time": 651, "pitch": 58, "duration": 4, "velocity": 76}, {"time": 651, "pitch": 67, "duration": 9, "velocity": 75}, {"time": 654, "pitch": 53, "duration": 9, "velocity": 56}, {"time": 660, "pitch": 60, "duration": 3, "velocity": 73}, {"time": 660, "pitch": 68, "duration": 4, "velocity": 82}, {"time": 666, "pitch": 41, "duration": 5, "velocity": 66}, {"time": 666, "pitch": 60, "duration": 3, "velocity": 72}, {"time": 666, "pitch": 67, "duration": 4, "velocity": 67}, {"time": 678, "pitch": 37, "duration": 3, "velocity": 82}, {"time": 678, "pitch": 49, "duration": 1, "velocity": 52}, {"time": 678, "pitch": 56, "duration": 2, "velocity": 76}, {"time": 678, "pitch": 61, "duration": 2, "velocity": 76}, {"time": 678, "pitch": 65, "duration": 2, "velocity": 80}, {"time": 681, "pitch": 39, "duration": 9, "velocity": 97}, {"time": 681, "pitch": 58, "duration": 9, "velocity": 91}, {"time": 681, "pitch": 63, "duration": 9, "velocity": 95}, {"time": 681, "pitch": 67, "duration": 9, "velocity": 78}, {"time": 690, "pitch": 44, "duration": 18, "velocity": 75}, {"time": 690, "pitch": 56, "duration": 14, "velocity": 95}, {"time": 690, "pitch": 60, "duration": 9, "velocity": 88}, {"time": 690, "pitch": 63, "duration": 1, "velocity": 91}, {"time": 690, "pitch": 68, "duration": 8, "velocity": 78}, {"time": 702, "pitch": 60, "duration": 6, "velocity": 75}, {"time": 702, "pitch": 63, "duration": 5, "velocity": 82}, {"time": 702, "pitch": 68, "duration": 10, "velocity": 80}, {"time": 708, "pitch": 51, "duration": 2, "velocity": 61}, {"time": 714, "pitch": 37, "duration": 10, "velocity": 69}, {"time": 714, "pitch": 49, "duration": 14, "velocity": 45}, {"time": 714, "pitch": 51, "duration": 1, "velocity": 54}, {"time": 714, "pitch": 56, "duration": 7, "velocity": 97}, {"time": 714, "pitch": 61, "duration": 12, "velocity": 82}, {"time": 714, "pitch": 65, "duration": 11, "velocity": 75}, {"time": 726, "pitch": 39, "duration": 6, "velocity": 73}, {"time": 726, "pitch": 58, "duration": 5, "velocity": 75}, {"time": 726, "pitch": 63, "duration": 6, "velocity": 76}, {"time": 726, "pitch": 67, "duration": 5, "velocity": 73}, {"time": 735, "pitch": 63, "duration": 2, "velocity": 43}, {"time": 738, "pitch": 41, "duration": 4, "velocity": 73}, {"time": 738, "pitch": 53, "duration": 4, "velocity": 69}, {"time": 738, "pitch": 56, "duration": 3, "velocity": 80}, {"time": 738, "pitch": 60, "duration": 3, "velocity": 85}, {"time": 738, "pitch": 65, "duration": 3, "velocity": 76}, {"time": 744, "pitch": 41, "duration": 2, "velocity": 66}, {"time": 744, "pitch": 53, "duration": 2, "velocity": 63}, {"time": 744, "pitch": 56, "duration": 2, "velocity": 75}, {"time": 744, "pitch": 60, "duration": 2, "velocity": 88}, {"time": 744, "pitch": 65, "duration": 3, "velocity": 70}, {"time": 747, "pitch": 41, "duration": 2, "velocity": 49}, {"time": 747, "pitch": 53, "duration": 3, "velocity": 48}, {"time": 747, "pitch": 60, "duration": 2, "velocity": 70}, {"time": 750, "pitch": 44, "duration": 9, "velocity": 106}, {"time": 750, "pitch": 60, "duration": 9, "velocity": 93}, {"time": 750, "pitch": 63, "duration": 10, "velocity": 93}, {"time": 750, "pitch": 68, "duration": 8, "velocity": 85}, {"time": 762, "pitch": 41, "duration": 4, "velocity": 73}, {"time": 762, "pitch": 53, "duration": 4, "velocity": 67}, {"time": 762, "pitch": 56, "duration": 4, "velocity": 67}, {"time": 762, "pitch": 60, "duration": 3, "velocity": 85}, {"time": 762, "pitch": 63, "duration": 3, "velocity": 70}, {"time": 768, "pitch": 41, "duration": 5, "velocity": 78}, {"time": 768, "pitch": 53, "duration": 5, "velocity": 66}, {"time": 768, "pitch": 56, "duration": 2, "velocity": 72}, {"time": 768, "pitch": 60, "duration": 2, "velocity": 75}, {"time": 768, "pitch": 63, "duration": 5, "velocity": 75}, {"time": 771, "pitch": 56, "duration": 2, "velocity": 58}, {"time": 771, "pitch": 60, "duration": 2, "velocity": 75}, {"time": 774, "pitch": 41, "duration": 12, "velocity": 76}, {"time": 774, "pitch": 53, "duration": 8, "velocity": 70}, {"time": 774, "pitch": 56, "duration": 10, "velocity": 76}, {"time": 774, "pitch": 60, "duration": 11, "velocity": 88}, {"time": 774, "pitch": 65, "duration": 11, "velocity": 78}, {"time": 786, "pitch": 44, "duration": 16, "velocity": 67}, {"time": 786, "pitch": 60, "duration": 4, "velocity": 66}, {"time": 786, "pitch": 63, "duration": 4, "velocity": 70}, {"time": 786, "pitch": 68, "duration": 3, "velocity": 69}, {"time": 792, "pitch": 60, "duration": 3, "velocity": 61}, {"time": 792, "pitch": 63, "duration": 4, "velocity": 69}, {"time": 792, "pitch": 68, "duration": 3, "velocity": 63}, {"time": 798, "pitch": 60, "duration": 3, "velocity": 62}, {"time": 798, "pitch": 63, "duration": 3, "velocity": 66}, {"time": 798, "pitch": 68, "duration": 3, "velocity": 76}, {"time": 804, "pitch": 60, "duration": 3, "velocity": 59}, {"time": 804, "pitch": 63, "duration": 2, "velocity": 44}, {"time": 804, "pitch": 68, "duration": 4, "velocity": 73}, {"time": 810, "pitch": 37, "duration": 7, "velocity": 67}, {"time": 810, "pitch": 49, "duration": 9, "velocity": 70}, {"time": 810, "pitch": 56, "duration": 3, "velocity": 73}, {"time": 810, "pitch": 61, "duration": 3, "velocity": 62}, {"time": 810, "pitch": 65, "duration": 3, "velocity": 67}, {"time": 816, "pitch": 56, "duration": 4, "velocity": 70}, {"time": 816, "pitch": 61, "duration": 4, "velocity": 67}, {"time": 816, "pitch": 65, "duration": 5, "velocity": 66}, {"time": 822, "pitch": 39, "duration": 8, "velocity": 72}, {"time": 822, "pitch": 51, "duration": 3, "velocity": 75}, {"time": 822, "pitch": 58, "duration": 4, "velocity": 72}, {"time": 822, "pitch": 63, "duration": 4, "velocity": 72}, {"time": 822, "pitch": 67, "duration": 4, "velocity": 76}, {"time": 828, "pitch": 51, "duration": 3, "velocity": 82}, {"time": 828, "pitch": 58, "duration": 3, "velocity": 64}, {"time": 828, "pitch": 63, "duration": 3, "velocity": 63}, {"time": 828, "pitch": 67, "duration": 3, "velocity": 64}, {"time": 834, "pitch": 41, "duration": 27, "velocity": 75}, {"time": 834, "pitch": 53, "duration": 9, "velocity": 73}, {"time": 834, "pitch": 56, "duration": 7, "velocity": 76}, {"time": 834, "pitch": 60, "duration": 7, "velocity": 75}, {"time": 834, "pitch": 65, "duration": 7, "velocity": 73}, {"time": 843, "pitch": 53, "duration": 9, "velocity": 64}, {"time": 843, "pitch": 56, "duration": 6, "velocity": 78}, {"time": 843, "pitch": 60, "duration": 6, "velocity": 85}, {"time": 843, "pitch": 65, "duration": 6, "velocity": 73}, {"time": 852, "pitch": 56, "duration": 3, "velocity": 70}, {"time": 852, "pitch": 60, "duration": 3, "velocity": 61}, {"time": 852, "pitch": 65, "duration": 3, "velocity": 75}, {"time": 858, "pitch": 53, "duration": 3, "velocity": 73}, {"time": 858, "pitch": 56, "duration": 3, "velocity": 72}, {"time": 858, "pitch": 60, "duration": 3, "velocity": 62}, {"time": 858, "pitch": 65, "duration": 3, "velocity": 75}, {"time": 870, "pitch": 37, "duration": 2, "velocity": 75}, {"time": 870, "pitch": 56, "duration": 2, "velocity": 82}, {"time": 870, "pitch": 61, "duration": 2, "velocity": 88}, {"time": 870, "pitch": 65, "duration": 3, "velocity": 88}, {"time": 873, "pitch": 39, "duration": 8, "velocity": 106}, {"time": 873, "pitch": 58, "duration": 8, "velocity": 93}, {"time": 873, "pitch": 63, "duration": 8, "velocity": 99}, {"time": 876, "pitch": 65, "duration": 4, "velocity": 42}, {"time": 882, "pitch": 44, "duration": 16, "velocity": 70}, {"time": 882, "pitch": 56, "duration": 9, "velocity": 80}, {"time": 882, "pitch": 60, "duration": 6, "velocity": 85}, {"time": 882, "pitch": 63, "duration": 7, "velocity": 82}, {"time": 882, "pitch": 68, "duration": 6, "velocity": 80}, {"time": 891, "pitch": 60, "duration": 6, "velocity": 76}, {"time": 891, "pitch": 67, "duration": 8, "velocity": 78}, {"time": 894, "pitch": 56, "duration": 4, "velocity": 64}, {"time": 900, "pitch": 60, "duration": 4, "velocity": 76}, {"time": 900, "pitch": 68, "duration": 4, "velocity": 73}, {"time": 906, "pitch": 37, "duration": 9, "velocity": 63}, {"time": 906, "pitch": 39, "duration": 9, "velocity": 67}, {"time": 906, "pitch": 49, "duration": 9, "velocity": 62}, {"time": 906, "pitch": 51, "duration": 6, "velocity": 60}, {"time": 906, "pitch": 56, "duration": 8, "velocity": 85}, {"time": 906, "pitch": 61, "duration": 10, "velocity": 88}, {"time": 906, "pitch": 65, "duration": 10, "velocity": 82}, {"time": 918, "pitch": 39, "duration": 6, "velocity": 76}, {"time": 918, "pitch": 58, "duration": 6, "velocity": 82}, {"time": 918, "pitch": 63, "duration": 6, "velocity": 69}, {"time": 918, "pitch": 67, "duration": 5, "velocity": 73}, {"time": 927, "pitch": 63, "duration": 3, "velocity": 45}, {"time": 930, "pitch": 41, "duration": 18, "velocity": 76}, {"time": 930, "pitch": 60, "duration": 6, "velocity": 82}, {"time": 930, "pitch": 65, "duration": 6, "velocity": 91}, {"time": 930, "pitch": 68, "duration": 7, "velocity": 82}, {"time": 936, "pitch": 48, "duration": 15, "velocity": 53}, {"time": 939, "pitch": 58, "duration": 4, "velocity": 88}, {"time": 939, "pitch": 67, "duration": 8, "velocity": 78}, {"time": 942, "pitch": 53, "duration": 8, "velocity": 72}, {"time": 948, "pitch": 60, "duration": 3, "velocity": 78}, {"time": 948, "pitch": 68, "duration": 4, "velocity": 75}, {"time": 954, "pitch": 41, "duration": 21, "velocity": 75}, {"time": 954, "pitch": 60, "duration": 4, "velocity": 73}, {"time": 954, "pitch": 67, "duration": 7, "velocity": 76}, {"time": 957, "pitch": 48, "duration": 9, "velocity": 64}, {"time": 963, "pitch": 53, "duration": 9, "velocity": 75}, {"time": 963, "pitch": 58, "duration": 6, "velocity": 76}, {"time": 963, "pitch": 63, "duration": 7, "velocity": 69}, {"time": 972, "pitch": 36, "duration": 7, "velocity": 78}, {"time": 972, "pitch": 48, "duration": 3, "velocity": 69}, {"time": 972, "pitch": 60, "duration": 4, "velocity": 69}, {"time": 972, "pitch": 63, "duration": 4, "velocity": 61}, {"time": 975, "pitch": 41, "duration": 43, "velocity": 53}, {"time": 975, "pitch": 63, "duration": 1, "velocity": 72}, {"time": 978, "pitch": 60, "duration": 15, "velocity": 76}, {"time": 978, "pitch": 65, "duration": 16, "velocity": 97}, {"time": 996, "pitch": 53, "duration": 21, "velocity": 49}, {"time": 996, "pitch": 60, "duration": 9, "velocity": 70}, {"time": 996, "pitch": 68, "duration": 10, "velocity": 75}, {"time": 1014, "pitch": 58, "duration": 4, "velocity": 69}, {"time": 1014, "pitch": 63, "duration": 4, "velocity": 69}, {"time": 1026, "pitch": 44, "duration": 20, "velocity": 66}, {"time": 1026, "pitch": 60, "duration": 13, "velocity": 58}, {"time": 1026, "pitch": 63, "duration": 13, "velocity": 64}, {"time": 1026, "pitch": 68, "duration": 13, "velocity": 69}, {"time": 1044, "pitch": 68, "duration": 7, "velocity": 70}, {"time": 1050, "pitch": 55, "duration": 15, "velocity": 60}, {"time": 1050, "pitch": 58, "duration": 13, "velocity": 63}, {"time": 1050, "pitch": 67, "duration": 13, "velocity": 72}, {"time": 1062, "pitch": 63, "duration": 4, "velocity": 48}, {"time": 1068, "pitch": 67, "duration": 6, "velocity": 61}, {"time": 1074, "pitch": 53, "duration": 38, "velocity": 55}, {"time": 1074, "pitch": 60, "duration": 9, "velocity": 50}, {"time": 1074, "pitch": 63, "duration": 8, "velocity": 57}, {"time": 1074, "pitch": 68, "duration": 8, "velocity": 61}, {"time": 1080, "pitch": 56, "duration": 17, "velocity": 59}, {"time": 1086, "pitch": 60, "duration": 9, "velocity": 56}, {"time": 1092, "pitch": 68, "duration": 9, "velocity": 60}, {"time": 1098, "pitch": 67, "duration": 9, "velocity": 66}, {"time": 1104, "pitch": 56, "duration": 7, "velocity": 40}, {"time": 1110, "pitch": 63, "duration": 5, "velocity": 62}, {"time": 1119, "pitch": 56, "duration": 6, "velocity": 45}, {"time": 1122, "pitch": 37, "duration": 7, "velocity": 69}, {"time": 1122, "pitch": 56, "duration": 3, "velocity": 61}, {"time": 1122, "pitch": 61, "duration": 19, "velocity": 62}, {"time": 1122, "pitch": 65, "duration": 20, "velocity": 60}, {"time": 1128, "pitch": 49, "duration": 8, "velocity": 52}, {"time": 1134, "pitch": 51, "duration": 26, "velocity": 67}, {"time": 1140, "pitch": 53, "duration": 20, "velocity": 59}, {"time": 1146, "pitch": 56, "duration": 10, "velocity": 53}, {"time": 1152, "pitch": 61, "duration": 8, "velocity": 66}, {"time": 1158, "pitch": 65, "duration": 6, "velocity": 53}, {"time": 1164, "pitch": 68, "duration": 8, "velocity": 69}, {"time": 1170, "pitch": 39, "duration": 11, "velocity": 48}, {"time": 1170, "pitch": 63, "duration": 26, "velocity": 60}, {"time": 1170, "pitch": 67, "duration": 26, "velocity": 59}, {"time": 1176, "pitch": 46, "duration": 6, "velocity": 55}, {"time": 1182, "pitch": 51, "duration": 8, "velocity": 49}, {"time": 1188, "pitch": 53, "duration": 21, "velocity": 64}, {"time": 1194, "pitch": 55, "duration": 15, "velocity": 72}, {"time": 1206, "pitch": 63, "duration": 5, "velocity": 70}, {"time": 1218, "pitch": 56, "duration": 37, "velocity": 48}, {"time": 1218, "pitch": 75, "duration": 14, "velocity": 60}, {"time": 1224, "pitch": 60, "duration": 29, "velocity": 54}, {"time": 1230, "pitch": 63, "duration": 8, "velocity": 55}, {"time": 1236, "pitch": 68, "duration": 6, "velocity": 58}, {"time": 1242, "pitch": 70, "duration": 8, "velocity": 64}, {"time": 1254, "pitch": 63, "duration": 2, "velocity": 60}, {"time": 1266, "pitch": 46, "duration": 32, "velocity": 61}, {"time": 1266, "pitch": 62, "duration": 12, "velocity": 63}, {"time": 1266, "pitch": 70, "duration": 11, "velocity": 66}, {"time": 1272, "pitch": 53, "duration": 18, "velocity": 43}, {"time": 1278, "pitch": 58, "duration": 15, "velocity": 57}, {"time": 1284, "pitch": 60, "duration": 9, "velocity": 51}, {"time": 1290, "pitch": 65, "duration": 11, "velocity": 58}, {"time": 1296, "pitch": 53, "duration": 9, "velocity": 49}, {"time": 1302, "pitch": 62, "duration": 7, "velocity": 72}, {"time": 1308, "pitch": 60, "duration": 9, "velocity": 52}, {"time": 1314, "pitch": 49, "duration": 21, "velocity": 64}, {"time": 1314, "pitch": 63, "duration": 7, "velocity": 64}, {"time": 1320, "pitch": 56, "duration": 27, "velocity": 59}, {"time": 1326, "pitch": 61, "duration": 9, "velocity": 58}, {"time": 1332, "pitch": 63, "duration": 5, "velocity": 49}, {"time": 1332, "pitch": 68, "duration": 8, "velocity": 51}, {"time": 1338, "pitch": 70, "duration": 9, "velocity": 66}, {"time": 1350, "pitch": 51, "duration": 8, "velocity": 69}, {"time": 1350, "pitch": 68, "duration": 11, "velocity": 64}, {"time": 1362, "pitch": 41, "duration": 43, "velocity": 67}, {"time": 1362, "pitch": 65, "duration": 8, "velocity": 56}, {"time": 1368, "pitch": 48, "duration": 42, "velocity": 56}, {"time": 1374, "pitch": 53, "duration": 30, "velocity": 66}, {"time": 1380, "pitch": 55, "duration": 6, "velocity": 48}, {"time": 1386, "pitch": 56, "duration": 3, "velocity": 67}, {"time": 1392, "pitch": 60, "duration": 6, "velocity": 66}, {"time": 1398, "pitch": 65, "duration": 6, "velocity": 28}, {"time": 1404, "pitch": 67, "duration": 6, "velocity": 49}, {"time": 1410, "pitch": 37, "duration": 6, "velocity": 72}, {"time": 1410, "pitch": 49, "duration": 7, "velocity": 88}, {"time": 1410, "pitch": 53, "duration": 6, "velocity": 82}, {"time": 1410, "pitch": 56, "duration": 7, "velocity": 85}, {"time": 1410, "pitch": 61, "duration": 6, "velocity": 80}, {"time": 1422, "pitch": 39, "duration": 4, "velocity": 82}, {"time": 1422, "pitch": 51, "duration": 4, "velocity": 88}, {"time": 1422, "pitch": 55, "duration": 3, "velocity": 88}, {"time": 1422, "pitch": 58, "duration": 4, "velocity": 88}, {"time": 1422, "pitch": 63, "duration": 4, "velocity": 85}, {"time": 1434, "pitch": 44, "duration": 16, "velocity": 63}, {"time": 1434, "pitch": 51, "duration": 9, "velocity": 63}, {"time": 1434, "pitch": 56, "duration": 13, "velocity": 64}, {"time": 1434, "pitch": 60, "duration": 7, "velocity": 72}, {"time": 1434, "pitch": 63, "duration": 7, "velocity": 78}, {"time": 1434, "pitch": 68, "duration": 7, "velocity": 73}, {"time": 1443, "pitch": 60, "duration": 7, "velocity": 76}, {"time": 1443, "pitch": 63, "duration": 6, "velocity": 78}, {"time": 1443, "pitch": 68, "duration": 5, "velocity": 75}, {"time": 1446, "pitch": 51, "duration": 5, "velocity": 70}, {"time": 1452, "pitch": 68, "duration": 5, "velocity": 73}, {"time": 1458, "pitch": 39, "duration": 13, "velocity": 73}, {"time": 1458, "pitch": 51, "duration": 8, "velocity": 76}, {"time": 1458, "pitch": 58, "duration": 7, "velocity": 80}, {"time": 1458, "pitch": 67, "duration": 7, "velocity": 78}, {"time": 1461, "pitch": 46, "duration": 9, "velocity": 43}, {"time": 1467, "pitch": 51, "duration": 4, "velocity": 88}, {"time": 1467, "pitch": 58, "duration": 9, "velocity": 80}, {"time": 1467, "pitch": 63, "duration": 9, "velocity": 88}, {"time": 1476, "pitch": 68, "duration": 5, "velocity": 85}, {"time": 1482, "pitch": 46, "duration": 16, "velocity": 82}, {"time": 1482, "pitch": 61, "duration": 8, "velocity": 75}, {"time": 1482, "pitch": 65, "duration": 8, "velocity": 70}, {"time": 1485, "pitch": 53, "duration": 11, "velocity": 63}, {"time": 1491, "pitch": 58, "duration": 5, "velocity": 82}, {"time": 1491, "pitch": 60, "duration": 7, "velocity": 93}, {"time": 1491, "pitch": 63, "duration": 10, "velocity": 78}, {"time": 1500, "pitch": 65, "duration": 4, "velocity": 80}, {"time": 1506, "pitch": 41, "duration": 16, "velocity": 76}, {"time": 1506, "pitch": 56, "duration": 7, "velocity": 69}, {"time": 1506, "pitch": 60, "duration": 5, "velocity": 80}, {"time": 1506, "pitch": 63, "duration": 2, "velocity": 59}, {"time": 1512, "pitch": 48, "duration": 9, "velocity": 60}, {"time": 1518, "pitch": 53, "duration": 4, "velocity": 57}, {"time": 1518, "pitch": 55, "duration": 5, "velocity": 95}, {"time": 1521, "pitch": 56, "duration": 6, "velocity": 63}, {"time": 1524, "pitch": 58, "duration": 4, "velocity": 64}, {"time": 1527, "pitch": 60, "duration": 3, "velocity": 53}, {"time": 1530, "pitch": 44, "duration": 16, "velocity": 72}, {"time": 1530, "pitch": 51, "duration": 11, "velocity": 72}, {"time": 1530, "pitch": 56, "duration": 6, "velocity": 85}, {"time": 1530, "pitch": 60, "duration": 7, "velocity": 75}, {"time": 1530, "pitch": 63, "duration": 7, "velocity": 80}, {"time": 1530, "pitch": 68, "duration": 7, "velocity": 76}, {"time": 1539, "pitch": 56, "duration": 6, "velocity": 80}, {"time": 1539, "pitch": 60, "duration": 11, "velocity": 82}, {"time": 1539, "pitch": 67, "duration": 9, "velocity": 76}, {"time": 1542, "pitch": 51, "duration": 4, "velocity": 75}, {"time": 1548, "pitch": 68, "duration": 4, "velocity": 80}, {"time": 1554, "pitch": 39, "duration": 14, "velocity": 78}, {"time": 1554, "pitch": 58, "duration": 11, "velocity": 66}, {"time": 1554, "pitch": 63, "duration": 9, "velocity": 58}, {"time": 1554, "pitch": 70, "duration": 11, "velocity": 91}, {"time": 1560, "pitch": 46, "duration": 9, "velocity": 75}, {"time": 1566, "pitch": 51, "duration": 5, "velocity": 93}, {"time": 1569, "pitch": 58, "duration": 4, "velocity": 99}, {"time": 1572, "pitch": 63, "duration": 5, "velocity": 70}, {"time": 1575, "pitch": 65, "duration": 3, "velocity": 70}, {"time": 1575, "pitch": 67, "duration": 2, "velocity": 44}, {"time": 1578, "pitch": 46, "duration": 16, "velocity": 70}, {"time": 1578, "pitch": 58, "duration": 5, "velocity": 78}, {"time": 1578, "pitch": 61, "duration": 8, "velocity": 56}, {"time": 1578, "pitch": 68, "duration": 9, "velocity": 75}, {"time": 1581, "pitch": 53, "duration": 12, "velocity": 70}, {"time": 1587, "pitch": 58, "duration": 5, "velocity": 85}, {"time": 1587, "pitch": 60, "duration": 7, "velocity": 85}, {"time": 1587, "pitch": 63, "duration": 8, "velocity": 80}, {"time": 1596, "pitch": 61, "duration": 3, "velocity": 61}, {"time": 1596, "pitch": 65, "duration": 6, "velocity": 93}, {"time": 1602, "pitch": 41, "duration": 10, "velocity": 82}, {"time": 1602, "pitch": 60, "duration": 9, "velocity": 80}, {"time": 1602, "pitch": 68, "duration": 22, "velocity": 80}, {"time": 1608, "pitch": 48, "duration": 6, "velocity": 55}, {"time": 1614, "pitch": 53, "duration": 8, "velocity": 72}, {"time": 1620, "pitch": 55, "duration": 20, "velocity": 70}, {"time": 1626, "pitch": 56, "duration": 14, "velocity": 63}, {"time": 1632, "pitch": 60, "duration": 5, "velocity": 85}, {"time": 1638, "pitch": 60, "duration": 1, "velocity": 43}, {"time": 1638, "pitch": 65, "duration": 5, "velocity": 95}, {"time": 1644, "pitch": 67, "duration": 6, "velocity": 60}, {"time": 1650, "pitch": 44, "duration": 15, "velocity": 55}, {"time": 1650, "pitch": 60, "duration": 2, "velocity": 63}, {"time": 1650, "pitch": 63, "duration": 2, "velocity": 66}, {"time": 1650, "pitch": 68, "duration": 3, "velocity": 69}, {"time": 1662, "pitch": 60, "duration": 14, "velocity": 61}, {"time": 1662, "pitch": 63, "duration": 14, "velocity": 64}, {"time": 1662, "pitch": 68, "duration": 14, "velocity": 72}, {"time": 1668, "pitch": 44, "duration": 3, "velocity": 75}, {"time": 1674, "pitch": 53, "duration": 15, "velocity": 63}, {"time": 1680, "pitch": 60, "duration": 2, "velocity": 37}, {"time": 1686, "pitch": 60, "duration": 13, "velocity": 72}, {"time": 1686, "pitch": 63, "duration": 13, "velocity": 72}, {"time": 1686, "pitch": 68, "duration": 13, "velocity": 73}, {"time": 1692, "pitch": 53, "duration": 4, "velocity": 67}, {"time": 1698, "pitch": 48, "duration": 15, "velocity": 63}, {"time": 1710, "pitch": 58, "duration": 8, "velocity": 58}, {"time": 1710, "pitch": 63, "duration": 9, "velocity": 67}, {"time": 1710, "pitch": 67, "duration": 9, "velocity": 70}, {"time": 1716, "pitch": 48, "duration": 4, "velocity": 60}, {"time": 1722, "pitch": 53, "duration": 15, "velocity": 70}, {"time": 1722, "pitch": 60, "duration": 9, "velocity": 61}, {"time": 1722, "pitch": 65, "duration": 9, "velocity": 59}, {"time": 1722, "pitch": 68, "duration": 9, "velocity": 62}, {"time": 1734, "pitch": 60, "duration": 14, "velocity": 63}, {"time": 1734, "pitch": 65, "duration": 14, "velocity": 66}, {"time": 1734, "pitch": 68, "duration": 14, "velocity": 67}, {"time": 1740, "pitch": 53, "duration": 5, "velocity": 60}, {"time": 1746, "pitch": 48, "duration": 15, "velocity": 75}, {"time": 1758, "pitch": 58, "duration": 11, "velocity": 61}, {"time": 1758, "pitch": 63, "duration": 9, "velocity": 58}, {"time": 1758, "pitch": 67, "duration": 13, "velocity": 61}, {"time": 1764, "pitch": 48, "duration": 3, "velocity": 64}, {"time": 1770, "pitch": 53, "duration": 15, "velocity": 72}, {"time": 1776, "pitch": 60, "duration": 2, "velocity": 60}, {"time": 1776, "pitch": 65, "duration": 2, "velocity": 55}, {"time": 1776, "pitch": 68, "duration": 2, "velocity": 48}, {"time": 1782, "pitch": 60, "duration": 9, "velocity": 61}, {"time": 1782, "pitch": 65, "duration": 11, "velocity": 52}, {"time": 1782, "pitch": 68, "duration": 9, "velocity": 62}, {"time": 1788, "pitch": 53, "duration": 4, "velocity": 63}, {"time": 1794, "pitch": 48, "duration": 14, "velocity": 51}, {"time": 1794, "pitch": 58, "duration": 3, "velocity": 61}, {"time": 1794, "pitch": 63, "duration": 2, "velocity": 63}, {"time": 1794, "pitch": 67, "duration": 4, "velocity": 69}, {"time": 1806, "pitch": 58, "duration": 7, "velocity": 49}, {"time": 1806, "pitch": 63, "duration": 12, "velocity": 48}, {"time": 1806, "pitch": 67, "duration": 11, "velocity": 59}, {"time": 1812, "pitch": 48, "duration": 5, "velocity": 60}, {"time": 1818, "pitch": 53, "duration": 4, "velocity": 63}, {"time": 1818, "pitch": 60, "duration": 3, "velocity": 61}, {"time": 1818, "pitch": 65, "duration": 3, "velocity": 61}, {"time": 1818, "pitch": 68, "duration": 3, "velocity": 61}, {"time": 1830, "pitch": 53, "duration": 8, "velocity": 76}, {"time": 1830, "pitch": 60, "duration": 8, "velocity": 61}, {"time": 1830, "pitch": 65, "duration": 10, "velocity": 61}, {"time": 1830, "pitch": 68, "duration": 9, "velocity": 66}, {"time": 1842, "pitch": 44, "duration": 20, "velocity": 51}, {"time": 1842, "pitch": 60, "duration": 12, "velocity": 53}, {"time": 1842, "pitch": 63, "duration": 12, "velocity": 61}, {"time": 1842, "pitch": 68, "duration": 12, "velocity": 62}, {"time": 1848, "pitch": 51, "duration": 15, "velocity": 57}, {"time": 1854, "pitch": 56, "duration": 7, "velocity": 58}, {"time": 1860, "pitch": 68, "duration": 20, "velocity": 67}, {"time": 1866, "pitch": 41, "duration": 14, "velocity": 70}, {"time": 1866, "pitch": 60, "duration": 13, "velocity": 61}, {"time": 1872, "pitch": 48, "duration": 9, "velocity": 61}, {"time": 1878, "pitch": 53, "duration": 4, "velocity": 58}, {"time": 1878, "pitch": 65, "duration": 6, "velocity": 63}, {"time": 1887, "pitch": 68, "duration": 2, "velocity": 33}, {"time": 1890, "pitch": 46, "duration": 18, "velocity": 67}, {"time": 1890, "pitch": 58, "duration": 6, "velocity": 63}, {"time": 1890, "pitch": 61, "duration": 11, "velocity": 63}, {"time": 1890, "pitch": 65, "duration": 12, "velocity": 64}, {"time": 1896, "pitch": 53, "duration": 11, "velocity": 50}, {"time": 1902, "pitch": 58, "duration": 4, "velocity": 63}, {"time": 1908, "pitch": 65, "duration": 5, "velocity": 48}, {"time": 1911, "pitch": 67, "duration": 4, "velocity": 49}, {"time": 1914, "pitch": 39, "duration": 14, "velocity": 75}, {"time": 1914, "pitch": 63, "duration": 14, "velocity": 72}, {"time": 1914, "pitch": 68, "duration": 11, "velocity": 55}, {"time": 1920, "pitch": 46, "duration": 9, "velocity": 63}, {"time": 1926, "pitch": 51, "duration": 8, "velocity": 62}, {"time": 1932, "pitch": 58, "duration": 3, "velocity": 55}, {"time": 1938, "pitch": 44, "duration": 15, "velocity": 70}, {"time": 1938, "pitch": 60, "duration": 13, "velocity": 61}, {"time": 1938, "pitch": 63, "duration": 13, "velocity": 67}, {"time": 1938, "pitch": 68, "duration": 12, "velocity": 64}, {"time": 1944, "pitch": 51, "duration": 9, "velocity": 60}, {"time": 1950, "pitch": 56, "duration": 3, "velocity": 73}, {"time": 1956, "pitch": 68, "duration": 4, "velocity": 58}, {"time": 1962, "pitch": 39, "duration": 17, "velocity": 75}, {"time": 1962, "pitch": 58, "duration": 13, "velocity": 64}, {"time": 1962, "pitch": 63, "duration": 13, "velocity": 69}, {"time": 1962, "pitch": 67, "duration": 14, "velocity": 62}, {"time": 1968, "pitch": 46, "duration": 11, "velocity": 62}, {"time": 1974, "pitch": 51, "duration": 5, "velocity": 57}, {"time": 1986, "pitch": 37, "duration": 17, "velocity": 58}, {"time": 1986, "pitch": 58, "duration": 6, "velocity": 44}, {"time": 1986, "pitch": 61, "duration": 13, "velocity": 73}, {"time": 1992, "pitch": 44, "duration": 13, "velocity": 64}, {"time": 1992, "pitch": 65, "duration": 7, "velocity": 26}, {"time": 1998, "pitch": 49, "duration": 9, "velocity": 85}, {"time": 2004, "pitch": 68, "duration": 5, "velocity": 60}, {"time": 2010, "pitch": 39, "duration": 13, "velocity": 70}, {"time": 2010, "pitch": 58, "duration": 12, "velocity": 59}, {"time": 2010, "pitch": 63, "duration": 12, "velocity": 63}, {"time": 2010, "pitch": 67, "duration": 12, "velocity": 64}, {"time": 2016, "pitch": 46, "duration": 8, "velocity": 62}, {"time": 2022, "pitch": 51, "duration": 4, "velocity": 64}, {"time": 2028, "pitch": 63, "duration": 12, "velocity": 67}, {"time": 2034, "pitch": 44, "duration": 15, "velocity": 66}, {"time": 2034, "pitch": 60, "duration": 5, "velocity": 60}, {"time": 2034, "pitch": 68, "duration": 6, "velocity": 70}, {"time": 2040, "pitch": 51, "duration": 9, "velocity": 49}, {"time": 2046, "pitch": 56, "duration": 5, "velocity": 58}, {"time": 2052, "pitch": 75, "duration": 5, "velocity": 67}, {"time": 2058, "pitch": 51, "duration": 14, "velocity": 55}, {"time": 2058, "pitch": 63, "duration": 8, "velocity": 60}, {"time": 2058, "pitch": 72, "duration": 7, "velocity": 70}, {"time": 2064, "pitch": 55, "duration": 8, "velocity": 59}, {"time": 2064, "pitch": 70, "duration": 4, "velocity": 67}, {"time": 2070, "pitch": 68, "duration": 4, "velocity": 62}, {"time": 2076, "pitch": 63, "duration": 7, "velocity": 53}, {"time": 2082, "pitch": 41, "duration": 16, "velocity": 62}, {"time": 2082, "pitch": 60, "duration": 15, "velocity": 61}, {"time": 2082, "pitch": 68, "duration": 15, "velocity": 64}, {"time": 2088, "pitch": 48, "duration": 10, "velocity": 59}, {"time": 2094, "pitch": 53, "duration": 4, "velocity": 59}, {"time": 2100, "pitch": 68, "duration": 6, "velocity": 69}, {"time": 2106, "pitch": 39, "duration": 15, "velocity": 67}, {"time": 2106, "pitch": 58, "duration": 14, "velocity": 63}, {"time": 2106, "pitch": 63, "duration": 12, "velocity": 70}, {"time": 2106, "pitch": 67, "duration": 13, "velocity": 75}, {"time": 2112, "pitch": 46, "duration": 10, "velocity": 59}, {"time": 2118, "pitch": 51, "duration": 5, "velocity": 52}, {"time": 2124, "pitch": 63, "duration": 7, "velocity": 62}, {"time": 2130, "pitch": 41, "duration": 15, "velocity": 72}, {"time": 2130, "pitch": 60, "duration": 8, "velocity": 60}, {"time": 2130, "pitch": 65, "duration": 8, "velocity": 66}, {"time": 2136, "pitch": 48, "duration": 9, "velocity": 61}, {"time": 2142, "pitch": 53, "duration": 4, "velocity": 56}, {"time": 2148, "pitch": 63, "duration": 4, "velocity": 60}, {"time": 2154, "pitch": 37, "duration": 13, "velocity": 69}, {"time": 2154, "pitch": 63, "duration": 3, "velocity": 42}, {"time": 2154, "pitch": 72, "duration": 7, "velocity": 69}, {"time": 2160, "pitch": 44, "duration": 7, "velocity": 56}, {"time": 2160, "pitch": 70, "duration": 6, "velocity": 64}, {"time": 2166, "pitch": 39, "duration": 7, "velocity": 59}, {"time": 2166, "pitch": 68, "duration": 6, "velocity": 61}, {"time": 2172, "pitch": 63, "duration": 8, "velocity": 56}, {"time": 2178, "pitch": 41, "duration": 5, "velocity": 66}, {"time": 2178, "pitch": 65, "duration": 18, "velocity": 70}, {"time": 2184, "pitch": 41, "duration": 5, "velocity": 66}, {"time": 2184, "pitch": 48, "duration": 6, "velocity": 57}, {"time": 2190, "pitch": 41, "duration": 5, "velocity": 66}, {"time": 2190, "pitch": 53, "duration": 8, "velocity": 59}, {"time": 2196, "pitch": 41, "duration": 5, "velocity": 66}, {"time": 2196, "pitch": 55, "duration": 3, "velocity": 55}, {"time": 2202, "pitch": 41, "duration": 3, "velocity": 75}, {"time": 2202, "pitch": 60, "duration": 3, "velocity": 49}, {"time": 2202, "pitch": 65, "duration": 6, "velocity": 69}, {"time": 2208, "pitch": 41, "duration": 4, "velocity": 70}, {"time": 2208, "pitch": 60, "duration": 3, "velocity": 51}, {"time": 2208, "pitch": 65, "duration": 1, "velocity": 49}, {"time": 2214, "pitch": 41, "duration": 3, "velocity": 82}, {"time": 2214, "pitch": 60, "duration": 3, "velocity": 61}, {"time": 2214, "pitch": 65, "duration": 4, "velocity": 55}, {"time": 2220, "pitch": 41, "duration": 3, "velocity": 95}, {"time": 2220, "pitch": 60, "duration": 3, "velocity": 64}, {"time": 2220, "pitch": 65, "duration": 3, "velocity": 62}, {"time": 2226, "pitch": 41, "duration": 6, "velocity": 76}, {"time": 2226, "pitch": 65, "duration": 6, "velocity": 62}, {"time": 2232, "pitch": 41, "duration": 3, "velocity": 62}, {"time": 2232, "pitch": 65, "duration": 3, "velocity": 69}, {"time": 2235, "pitch": 41, "duration": 3, "velocity": 72}, {"time": 2235, "pitch": 65, "duration": 3, "velocity": 72}, {"time": 2238, "pitch": 44, "duration": 12, "velocity": 60}, {"time": 2238, "pitch": 65, "duration": 12, "velocity": 97}, {"time": 2238, "pitch": 68, "duration": 12, "velocity": 97}, {"time": 2250, "pitch": 41, "duration": 6, "velocity": 80}, {"time": 2250, "pitch": 65, "duration": 6, "velocity": 80}, {"time": 2256, "pitch": 41, "duration": 3, "velocity": 93}, {"time": 2256, "pitch": 65, "duration": 3, "velocity": 62}, {"time": 2259, "pitch": 41, "duration": 3, "velocity": 88}, {"time": 2259, "pitch": 65, "duration": 3, "velocity": 73}, {"time": 2262, "pitch": 46, "duration": 12, "velocity": 76}, {"time": 2262, "pitch": 60, "duration": 12, "velocity": 85}, {"time": 2262, "pitch": 65, "duration": 12, "velocity": 85}, {"time": 2262, "pitch": 70, "duration": 12, "velocity": 85}, {"time": 2310, "pitch": 37, "duration": 2, "velocity": 67}, {"time": 2310, "pitch": 49, "duration": 2, "velocity": 93}, {"time": 2310, "pitch": 56, "duration": 2, "velocity": 93}, {"time": 2310, "pitch": 61, "duration": 1, "velocity": 88}, {"time": 2310, "pitch": 65, "duration": 2, "velocity": 91}, {"time": 2313, "pitch": 39, "duration": 7, "velocity": 70}, {"time": 2313, "pitch": 58, "duration": 7, "velocity": 93}, {"time": 2313, "pitch": 63, "duration": 7, "velocity": 95}, {"time": 2313, "pitch": 67, "duration": 8, "velocity": 78}, {"time": 2322, "pitch": 44, "duration": 4, "velocity": 75}, {"time": 2322, "pitch": 56, "duration": 4, "velocity": 69}, {"time": 2322, "pitch": 63, "duration": 4, "velocity": 70}, {"time": 2322, "pitch": 68, "duration": 4, "velocity": 76}, {"time": 2328, "pitch": 44, "duration": 5, "velocity": 69}, {"time": 2328, "pitch": 56, "duration": 5, "velocity": 70}, {"time": 2328, "pitch": 63, "duration": 2, "velocity": 62}, {"time": 2328, "pitch": 68, "duration": 2, "velocity": 70}, {"time": 2331, "pitch": 63, "duration": 2, "velocity": 54}, {"time": 2331, "pitch": 68, "duration": 2, "velocity": 75}, {"time": 2334, "pitch": 51, "duration": 8, "velocity": 76}, {"time": 2334, "pitch": 63, "duration": 9, "velocity": 82}, {"time": 2334, "pitch": 68, "duration": 8, "velocity": 73}, {"time": 2346, "pitch": 39, "duration": 6, "velocity": 75}, {"time": 2346, "pitch": 51, "duration": 5, "velocity": 75}, {"time": 2346, "pitch": 63, "duration": 5, "velocity": 82}, {"time": 2346, "pitch": 67, "duration": 5, "velocity": 78}, {"time": 2346, "pitch": 70, "duration": 4, "velocity": 64}, {"time": 2352, "pitch": 39, "duration": 3, "velocity": 76}, {"time": 2352, "pitch": 51, "duration": 3, "velocity": 67}, {"time": 2352, "pitch": 63, "duration": 4, "velocity": 55}, {"time": 2352, "pitch": 67, "duration": 2, "velocity": 61}, {"time": 2352, "pitch": 70, "duration": 1, "velocity": 51}, {"time": 2355, "pitch": 67, "duration": 1, "velocity": 53}, {"time": 2355, "pitch": 70, "duration": 1, "velocity": 54}, {"time": 2358, "pitch": 46, "duration": 11, "velocity": 63}, {"time": 2358, "pitch": 63, "duration": 10, "velocity": 76}, {"time": 2358, "pitch": 67, "duration": 10, "velocity": 75}, {"time": 2358, "pitch": 70, "duration": 10, "velocity": 72}, {"time": 2418, "pitch": 44, "duration": 16, "velocity": 73}, {"time": 2418, "pitch": 60, "duration": 7, "velocity": 75}, {"time": 2418, "pitch": 63, "duration": 7, "velocity": 78}, {"time": 2418, "pitch": 68, "duration": 7, "velocity": 80}, {"time": 2424, "pitch": 51, "duration": 11, "velocity": 62}, {"time": 2427, "pitch": 56, "duration": 5, "velocity": 63}, {"time": 2427, "pitch": 60, "duration": 11, "velocity": 85}, {"time": 2427, "pitch": 67, "duration": 8, "velocity": 69}, {"time": 2436, "pitch": 68, "duration": 8, "velocity": 76}, {"time": 2442, "pitch": 37, "duration": 7, "velocity": 70}, {"time": 2442, "pitch": 49, "duration": 8, "velocity": 85}, {"time": 2442, "pitch": 56, "duration": 7, "velocity": 72}, {"time": 2442, "pitch": 61, "duration": 10, "velocity": 76}, {"time": 2442, "pitch": 65, "duration": 10, "velocity": 76}, {"time": 2454, "pitch": 39, "duration": 9, "velocity": 72}, {"time": 2454, "pitch": 51, "duration": 5, "velocity": 78}, {"time": 2454, "pitch": 58, "duration": 5, "velocity": 85}, {"time": 2454, "pitch": 63, "duration": 5, "velocity": 67}, {"time": 2454, "pitch": 67, "duration": 5, "velocity": 76}, {"time": 2460, "pitch": 51, "duration": 4, "velocity": 64}, {"time": 2466, "pitch": 41, "duration": 20, "velocity": 73}, {"time": 2466, "pitch": 60, "duration": 6, "velocity": 78}, {"time": 2466, "pitch": 65, "duration": 7, "velocity": 72}, {"time": 2466, "pitch": 68, "duration": 7, "velocity": 78}, {"time": 2472, "pitch": 48, "duration": 18, "velocity": 66}, {"time": 2475, "pitch": 58, "duration": 4, "velocity": 76}, {"time": 2475, "pitch": 67, "duration": 9, "velocity": 75}, {"time": 2478, "pitch": 53, "duration": 9, "velocity": 56}, {"time": 2484, "pitch": 60, "duration": 3, "velocity": 73}, {"time": 2484, "pitch": 68, "duration": 4, "velocity": 82}, {"time": 2490, "pitch": 41, "duration": 5, "velocity": 66}, {"time": 2490, "pitch": 60, "duration": 3, "velocity": 72}, {"time": 2490, "pitch": 67, "duration": 4, "velocity": 67}, {"time": 2502, "pitch": 37, "duration": 3, "velocity": 82}, {"time": 2502, "pitch": 49, "duration": 1, "velocity": 52}, {"time": 2502, "pitch": 56, "duration": 2, "velocity": 76}, {"time": 2502, "pitch": 61, "duration": 2, "velocity": 76}, {"time": 2502, "pitch": 65, "duration": 2, "velocity": 80}, {"time": 2505, "pitch": 39, "duration": 9, "velocity": 97}, {"time": 2505, "pitch": 58, "duration": 9, "velocity": 91}, {"time": 2505, "pitch": 63, "duration": 9, "velocity": 95}, {"time": 2505, "pitch": 67, "duration": 9, "velocity": 78}, {"time": 2514, "pitch": 44, "duration": 18, "velocity": 75}, {"time": 2514, "pitch": 56, "duration": 14, "velocity": 95}, {"time": 2514, "pitch": 60, "duration": 9, "velocity": 88}, {"time": 2514, "pitch": 63, "duration": 1, "velocity": 91}, {"time": 2514, "pitch": 68, "duration": 8, "velocity": 78}, {"time": 2526, "pitch": 60, "duration": 6, "velocity": 75}, {"time": 2526, "pitch": 63, "duration": 5, "velocity": 82}, {"time": 2526, "pitch": 68, "duration": 10, "velocity": 80}, {"time": 2532, "pitch": 51, "duration": 2, "velocity": 61}, {"time": 2538, "pitch": 37, "duration": 10, "velocity": 69}, {"time": 2538, "pitch": 49, "duration": 14, "velocity": 45}, {"time": 2538, "pitch": 51, "duration": 1, "velocity": 54}, {"time": 2538, "pitch": 56, "duration": 7, "velocity": 97}, {"time": 2538, "pitch": 61, "duration": 12, "velocity": 82}, {"time": 2538, "pitch": 65, "duration": 11, "velocity": 75}, {"time": 2550, "pitch": 39, "duration": 6, "velocity": 73}, {"time": 2550, "pitch": 58, "duration": 5, "velocity": 75}, {"time": 2550, "pitch": 63, "duration": 6, "velocity": 76}, {"time": 2550, "pitch": 67, "duration": 5, "velocity": 73}, {"time": 2559, "pitch": 63, "duration": 2, "velocity": 43}, {"time": 2562, "pitch": 41, "duration": 4, "velocity": 73}, {"time": 2562, "pitch": 53, "duration": 4, "velocity": 69}, {"time": 2562, "pitch": 56, "duration": 3, "velocity": 80}, {"time": 2562, "pitch": 60, "duration": 3, "velocity": 85}, {"time": 2562, "pitch": 65, "duration": 3, "velocity": 76}, {"time": 2568, "pitch": 41, "duration": 2, "velocity": 66}, {"time": 2568, "pitch": 53, "duration": 2, "velocity": 63}, {"time": 2568, "pitch": 56, "duration": 2, "velocity": 75}, {"time": 2568, "pitch": 60, "duration": 2, "velocity": 88}, {"time": 2568, "pitch": 65, "duration": 3, "velocity": 70}, {"time": 2571, "pitch": 41, "duration": 2, "velocity": 49}, {"time": 2571, "pitch": 53, "duration": 3, "velocity": 48}, {"time": 2571, "pitch": 60, "duration": 2, "velocity": 70}, {"time": 2574, "pitch": 44, "duration": 9, "velocity": 106}, {"time": 2574, "pitch": 60, "duration": 9, "velocity": 93}, {"time": 2574, "pitch": 63, "duration": 10, "velocity": 93}, {"time": 2574, "pitch": 68, "duration": 8, "velocity": 85}, {"time": 2586, "pitch": 41, "duration": 4, "velocity": 73}, {"time": 2586, "pitch": 53, "duration": 4, "velocity": 67}, {"time": 2586, "pitch": 56, "duration": 4, "velocity": 67}, {"time": 2586, "pitch": 60, "duration": 3, "velocity": 85}, {"time": 2586, "pitch": 63, "duration": 3, "velocity": 70}, {"time": 2592, "pitch": 41, "duration": 5, "velocity": 78}, {"time": 2592, "pitch": 53, "duration": 5, "velocity": 66}, {"time": 2592, "pitch": 56, "duration": 2, "velocity": 72}, {"time": 2592, "pitch": 60, "duration": 2, "velocity": 75}, {"time": 2592, "pitch": 63, "duration": 5, "velocity": 75}, {"time": 2595, "pitch": 56, "duration": 2, "velocity": 58}, {"time": 2595, "pitch": 60, "duration": 2, "velocity": 75}, {"time": 2598, "pitch": 41, "duration": 12, "velocity": 76}, {"time": 2598, "pitch": 53, "duration": 8, "velocity": 70}, {"time": 2598, "pitch": 56, "duration": 10, "velocity": 76}, {"time": 2598, "pitch": 60, "duration": 11, "velocity": 88}, {"time": 2598, "pitch": 65, "duration": 11, "velocity": 78}, {"time": 2610, "pitch": 44, "duration": 16, "velocity": 67}, {"time": 2610, "pitch": 60, "duration": 4, "velocity": 66}, {"time": 2610, "pitch": 63, "duration": 4, "velocity": 70}, {"time": 2610, "pitch": 68, "duration": 3, "velocity": 69}, {"time": 2616, "pitch": 60, "duration": 3, "velocity": 61}, {"time": 2616, "pitch": 63, "duration": 4, "velocity": 69}, {"time": 2616, "pitch": 68, "duration": 3, "velocity": 63}, {"time": 2622, "pitch": 60, "duration": 3, "velocity": 62}, {"time": 2622, "pitch": 63, "duration": 3, "velocity": 66}, {"time": 2622, "pitch": 68, "duration": 3, "velocity": 76}, {"time": 2628, "pitch": 60, "duration": 3, "velocity": 59}, {"time": 2628, "pitch": 63, "duration": 2, "velocity": 44}, {"time": 2628, "pitch": 68, "duration": 4, "velocity": 73}, {"time": 2634, "pitch": 37, "duration": 7, "velocity": 67}, {"time": 2634, "pitch": 49, "duration": 9, "velocity": 70}, {"time": 2634, "pitch": 56, "duration": 3, "velocity": 73}, {"time": 2634, "pitch": 61, "duration": 3, "velocity": 62}, {"time": 2634, "pitch": 65, "duration": 3, "velocity": 67}, {"time": 2640, "pitch": 56, "duration": 4, "velocity": 70}, {"time": 2640, "pitch": 61, "duration": 4, "velocity": 67}, {"time": 2640, "pitch": 65, "duration": 5, "velocity": 66}, {"time": 2646, "pitch": 39, "duration": 8, "velocity": 72}, {"time": 2646, "pitch": 51, "duration": 3, "velocity": 75}, {"time": 2646, "pitch": 58, "duration": 4, "velocity": 72}, {"time": 2646, "pitch": 63, "duration": 4, "velocity": 72}, {"time": 2646, "pitch": 67, "duration": 4, "velocity": 76}, {"time": 2652, "pitch": 51, "duration": 3, "velocity": 82}, {"time": 2652, "pitch": 58, "duration": 3, "velocity": 64}, {"time": 2652, "pitch": 63, "duration": 3, "velocity": 63}, {"time": 2652, "pitch": 67, "duration": 3, "velocity": 64}, {"time": 2658, "pitch": 41, "duration": 27, "velocity": 75}, {"time": 2658, "pitch": 53, "duration": 9, "velocity": 73}, {"time": 2658, "pitch": 56, "duration": 7, "velocity": 76}, {"time": 2658, "pitch": 60, "duration": 7, "velocity": 75}, {"time": 2658, "pitch": 65, "duration": 7, "velocity": 73}, {"time": 2667, "pitch": 53, "duration": 9, "velocity": 64}, {"time": 2667, "pitch": 56, "duration": 6, "velocity": 78}, {"time": 2667, "pitch": 60, "duration": 6, "velocity": 85}, {"time": 2667, "pitch": 65, "duration": 6, "velocity": 73}, {"time": 2676, "pitch": 56, "duration": 3, "velocity": 70}, {"time": 2676, "pitch": 60, "duration": 3, "velocity": 61}, {"time": 2676, "pitch": 65, "duration": 3, "velocity": 75}, {"time": 2682, "pitch": 53, "duration": 3, "velocity": 73}, {"time": 2682, "pitch": 56, "duration": 3, "velocity": 72}, {"time": 2682, "pitch": 60, "duration": 3, "velocity": 62}, {"time": 2682, "pitch": 65, "duration": 3, "velocity": 75}, {"time": 2694, "pitch": 37, "duration": 2, "velocity": 75}, {"time": 2694, "pitch": 56, "duration": 2, "velocity": 82}, {"time": 2694, "pitch": 61, "duration": 2, "velocity": 88}, {"time": 2694, "pitch": 65, "duration": 3, "velocity": 88}, {"time": 2697, "pitch": 39, "duration": 8, "velocity": 106}, {"time": 2697, "pitch": 58, "duration": 8, "velocity": 93}, {"time": 2697, "pitch": 63, "duration": 8, "velocity": 99}, {"time": 2700, "pitch": 65, "duration": 4, "velocity": 42}, {"time": 2706, "pitch": 44, "duration": 16, "velocity": 70}, {"time": 2706, "pitch": 56, "duration": 9, "velocity": 80}, {"time": 2706, "pitch": 60, "duration": 6, "velocity": 85}, {"time": 2706, "pitch": 63, "duration": 7, "velocity": 82}, {"time": 2706, "pitch": 68, "duration": 6, "velocity": 80}, {"time": 2715, "pitch": 60, "duration": 6, "velocity": 76}, {"time": 2715, "pitch": 67, "duration": 8, "velocity": 78}, {"time": 2718, "pitch": 56, "duration": 4, "velocity": 64}, {"time": 2724, "pitch": 60, "duration": 4, "velocity": 76}, {"time": 2724, "pitch": 68, "duration": 4, "velocity": 73}, {"time": 2730, "pitch": 37, "duration": 9, "velocity": 63}, {"time": 2730, "pitch": 39, "duration": 9, "velocity": 67}, {"time": 2730, "pitch": 49, "duration": 9, "velocity": 62}, {"time": 2730, "pitch": 51, "duration": 6, "velocity": 60}, {"time": 2730, "pitch": 56, "duration": 8, "velocity": 85}, {"time": 2730, "pitch": 61, "duration": 10, "velocity": 88}, {"time": 2730, "pitch": 65, "duration": 10, "velocity": 82}, {"time": 2742, "pitch": 39, "duration": 6, "velocity": 76}, {"time": 2742, "pitch": 58, "duration": 6, "velocity": 82}, {"time": 2742, "pitch": 63, "duration": 6, "velocity": 69}, {"time": 2742, "pitch": 67, "duration": 5, "velocity": 73}, {"time": 2751, "pitch": 63, "duration": 3, "velocity": 45}, {"time": 2754, "pitch": 41, "duration": 18, "velocity": 76}, {"time": 2754, "pitch": 60, "duration": 6, "velocity": 82}, {"time": 2754, "pitch": 65, "duration": 6, "velocity": 91}, {"time": 2754, "pitch": 68, "duration": 7, "velocity": 82}, {"time": 2760, "pitch": 48, "duration": 15, "velocity": 53}, {"time": 2763, "pitch": 58, "duration": 4, "velocity": 88}, {"time": 2763, "pitch": 67, "duration": 8, "velocity": 78}, {"time": 2766, "pitch": 53, "duration": 8, "velocity": 72}, {"time": 2772, "pitch": 60, "duration": 3, "velocity": 78}, {"time": 2772, "pitch": 68, "duration": 4, "velocity": 75}, {"time": 2778, "pitch": 41, "duration": 21, "velocity": 75}, {"time": 2778, "pitch": 60, "duration": 4, "velocity": 73}, {"time": 2778, "pitch": 67, "duration": 7, "velocity": 76}, {"time": 2781, "pitch": 48, "duration": 9, "velocity": 64}, {"time": 2787, "pitch": 53, "duration": 9, "velocity": 75}, {"time": 2787, "pitch": 58, "duration": 6, "velocity": 76}, {"time": 2787, "pitch": 63, "duration": 7, "velocity": 69}, {"time": 2796, "pitch": 36, "duration": 7, "velocity": 78}, {"time": 2796, "pitch": 48, "duration": 3, "velocity": 69}, {"time": 2796, "pitch": 60, "duration": 4, "velocity": 69}, {"time": 2796, "pitch": 63, "duration": 4, "velocity": 61}, {"time": 2799, "pitch": 41, "duration": 43, "velocity": 53}, {"time": 2799, "pitch": 63, "duration": 1, "velocity": 72}, {"time": 2802, "pitch": 37, "duration": 6, "velocity": 72}, {"time": 2802, "pitch": 49, "duration": 7, "velocity": 88}, {"time": 2802, "pitch": 53, "duration": 6, "velocity": 82}, {"time": 2802, "pitch": 56, "duration": 7, "velocity": 85}, {"time": 2802, "pitch": 60, "duration": 15, "velocity": 76}, {"time": 2802, "pitch": 61, "duration": 6, "velocity": 80}, {"time": 2802, "pitch": 65, "duration": 16, "velocity": 97}, {"time": 2814, "pitch": 39, "duration": 4, "velocity": 82}, {"time": 2814, "pitch": 51, "duration": 4, "velocity": 88}, {"time": 2814, "pitch": 55, "duration": 3, "velocity": 88}, {"time": 2814, "pitch": 58, "duration": 4, "velocity": 88}, {"time": 2814, "pitch": 63, "duration": 4, "velocity": 85}, {"time": 2820, "pitch": 53, "duration": 21, "velocity": 49}, {"time": 2820, "pitch": 60, "duration": 9, "velocity": 70}, {"time": 2820, "pitch": 68, "duration": 10, "velocity": 75}, {"time": 2826, "pitch": 44, "duration": 16, "velocity": 63}, {"time": 2826, "pitch": 51, "duration": 9, "velocity": 63}, {"time": 2826, "pitch": 56, "duration": 13, "velocity": 64}, {"time": 2826, "pitch": 60, "duration": 3, "velocity": 72}, {"time": 2826, "pitch": 63, "duration": 7, "velocity": 78}, {"time": 2826, "pitch": 68, "duration": 4, "velocity": 73}, {"time": 2835, "pitch": 60, "duration": 7, "velocity": 76}, {"time": 2835, "pitch": 63, "duration": 6, "velocity": 78}, {"time": 2835, "pitch": 68, "duration": 5, "velocity": 75}, {"time": 2838, "pitch": 51, "duration": 5, "velocity": 70}, {"time": 2838, "pitch": 58, "duration": 4, "velocity": 69}, {"time": 2838, "pitch": 63, "duration": 3, "velocity": 69}, {"time": 2844, "pitch": 68, "duration": 5, "velocity": 73}, {"time": 2850, "pitch": 39, "duration": 13, "velocity": 73}, {"time": 2850, "pitch": 51, "duration": 8, "velocity": 76}, {"time": 2850, "pitch": 58, "duration": 7, "velocity": 80}, {"time": 2850, "pitch": 67, "duration": 7, "velocity": 78}, {"time": 2853, "pitch": 46, "duration": 9, "velocity": 43}, {"time": 2859, "pitch": 51, "duration": 4, "velocity": 88}, {"time": 2859, "pitch": 58, "duration": 9, "velocity": 80}, {"time": 2859, "pitch": 63, "duration": 9, "velocity": 88}, {"time": 2868, "pitch": 68, "duration": 5, "velocity": 85}, {"time": 2874, "pitch": 46, "duration": 16, "velocity": 82}, {"time": 2874, "pitch": 61, "duration": 8, "velocity": 75}, {"time": 2874, "pitch": 65, "duration": 8, "velocity": 70}, {"time": 2877, "pitch": 53, "duration": 11, "velocity": 63}, {"time": 2883, "pitch": 58, "duration": 5, "velocity": 82}, {"time": 2883, "pitch": 60, "duration": 7, "velocity": 93}, {"time": 2883, "pitch": 63, "duration": 10, "velocity": 78}, {"time": 2892, "pitch": 65, "duration": 4, "velocity": 80}, {"time": 2898, "pitch": 41, "duration": 16, "velocity": 76}, {"time": 2898, "pitch": 56, "duration": 7, "velocity": 69}, {"time": 2898, "pitch": 60, "duration": 5, "velocity": 80}, {"time": 2898, "pitch": 63, "duration": 2, "velocity": 59}, {"time": 2904, "pitch": 48, "duration": 9, "velocity": 60}, {"time": 2910, "pitch": 53, "duration": 4, "velocity": 57}, {"time": 2910, "pitch": 55, "duration": 5, "velocity": 95}, {"time": 2913, "pitch": 56, "duration": 6, "velocity": 63}, {"time": 2916, "pitch": 58, "duration": 4, "velocity": 64}, {"time": 2919, "pitch": 60, "duration": 3, "velocity": 53}, {"time": 2922, "pitch": 44, "duration": 16, "velocity": 72}, {"time": 2922, "pitch": 51, "duration": 11, "velocity": 72}, {"time": 2922, "pitch": 56, "duration": 6, "velocity": 85}, {"time": 2922, "pitch": 60, "duration": 7, "velocity": 75}, {"time": 2922, "pitch": 63, "duration": 7, "velocity": 80}, {"time": 2922, "pitch": 68, "duration": 7, "velocity": 76}, {"time": 2931, "pitch": 56, "duration": 6, "velocity": 80}, {"time": 2931, "pitch": 60, "duration": 11, "velocity": 82}, {"time": 2931, "pitch": 67, "duration": 9, "velocity": 76}, {"time": 2934, "pitch": 51, "duration": 4, "velocity": 75}, {"time": 2940, "pitch": 68, "duration": 4, "velocity": 80}, {"time": 2946, "pitch": 39, "duration": 14, "velocity": 78}, {"time": 2946, "pitch": 58, "duration": 11, "velocity": 66}, {"time": 2946, "pitch": 63, "duration": 9, "velocity": 58}, {"time": 2946, "pitch": 70, "duration": 11, "velocity": 91}, {"time": 2952, "pitch": 46, "duration": 9, "velocity": 75}, {"time": 2958, "pitch": 51, "duration": 5, "velocity": 93}, {"time": 2961, "pitch": 58, "duration": 4, "velocity": 99}, {"time": 2964, "pitch": 63, "duration": 5, "velocity": 70}, {"time": 2967, "pitch": 65, "duration": 3, "velocity": 70}, {"time": 2967, "pitch": 67, "duration": 2, "velocity": 44}, {"time": 2970, "pitch": 46, "duration": 16, "velocity": 70}, {"time": 2970, "pitch": 58, "duration": 5, "velocity": 78}, {"time": 2970, "pitch": 61, "duration": 8, "velocity": 56}, {"time": 2970, "pitch": 68, "duration": 9, "velocity": 75}, {"time": 2973, "pitch": 53, "duration": 12, "velocity": 70}, {"time": 2979, "pitch": 58, "duration": 5, "velocity": 85}, {"time": 2979, "pitch": 60, "duration": 7, "velocity": 85}, {"time": 2979, "pitch": 63, "duration": 8, "velocity": 80}, {"time": 2988, "pitch": 61, "duration": 3, "velocity": 61}, {"time": 2988, "pitch": 65, "duration": 6, "velocity": 93}, {"time": 2994, "pitch": 41, "duration": 10, "velocity": 82}, {"time": 2994, "pitch": 60, "duration": 9, "velocity": 80}, {"time": 2994, "pitch": 68, "duration": 22, "velocity": 80}, {"time": 3000, "pitch": 48, "duration": 6, "velocity": 55}, {"time": 3006, "pitch": 53, "duration": 8, "velocity": 72}, {"time": 3012, "pitch": 55, "duration": 20, "velocity": 70}, {"time": 3018, "pitch": 56, "duration": 14, "velocity": 63}, {"time": 3024, "pitch": 60, "duration": 5, "velocity": 85}, {"time": 3030, "pitch": 60, "duration": 1, "velocity": 43}, {"time": 3030, "pitch": 65, "duration": 5, "velocity": 95}, {"time": 3036, "pitch": 67, "duration": 6, "velocity": 60}, {"time": 3042, "pitch": 44, "duration": 15, "velocity": 55}, {"time": 3042, "pitch": 60, "duration": 2, "velocity": 63}, {"time": 3042, "pitch": 63, "duration": 2, "velocity": 66}, {"time": 3042, "pitch": 68, "duration": 3, "velocity": 69}, {"time": 3054, "pitch": 60, "duration": 14, "velocity": 61}, {"time": 3054, "pitch": 63, "duration": 14, "velocity": 64}, {"time": 3054, "pitch": 68, "duration": 14, "velocity": 72}, {"time": 3060, "pitch": 44, "duration": 3, "velocity": 75}, {"time": 3066, "pitch": 53, "duration": 15, "velocity": 63}, {"time": 3072, "pitch": 60, "duration": 2, "velocity": 37}, {"time": 3078, "pitch": 60, "duration": 13, "velocity": 72}, {"time": 3078, "pitch": 63, "duration": 13, "velocity": 72}, {"time": 3078, "pitch": 68, "duration": 13, "velocity": 73}, {"time": 3084, "pitch": 53, "duration": 4, "velocity": 67}, {"time": 3090, "pitch": 48, "duration": 15, "velocity": 63}, {"time": 3102, "pitch": 58, "duration": 8, "velocity": 58}, {"time": 3102, "pitch": 63, "duration": 9, "velocity": 67}, {"time": 3102, "pitch": 67, "duration": 9, "velocity": 70}, {"time": 3108, "pitch": 48, "duration": 4, "velocity": 60}, {"time": 3114, "pitch": 53, "duration": 15, "velocity": 70}, {"time": 3114, "pitch": 60, "duration": 9, "velocity": 61}, {"time": 3114, "pitch": 65, "duration": 9, "velocity": 59}, {"time": 3114, "pitch": 68, "duration": 9, "velocity": 62}, {"time": 3126, "pitch": 60, "duration": 14, "velocity": 63}, {"time": 3126, "pitch": 65, "duration": 14, "velocity": 66}, {"time": 3126, "pitch": 68, "duration": 14, "velocity": 67}, {"time": 3132, "pitch": 53, "duration": 5, "velocity": 60}, {"time": 3138, "pitch": 48, "duration": 15, "velocity": 75}, {"time": 3150, "pitch": 58, "duration": 11, "velocity": 61}, {"time": 3150, "pitch": 63, "duration": 9, "velocity": 58}, {"time": 3150, "pitch": 67, "duration": 13, "velocity": 61}, {"time": 3156, "pitch": 48, "duration": 3, "velocity": 64}, {"time": 3162, "pitch": 53, "duration": 15, "velocity": 72}, {"time": 3168, "pitch": 60, "duration": 2, "velocity": 60}, {"time": 3168, "pitch": 65, "duration": 2, "velocity": 55}, {"time": 3168, "pitch": 68, "duration": 2, "velocity": 48}, {"time": 3174, "pitch": 60, "duration": 9, "velocity": 61}, {"time": 3174, "pitch": 65, "duration": 11, "velocity": 52}, {"time": 3174, "pitch": 68, "duration": 9, "velocity": 62}, {"time": 3180, "pitch": 53, "duration": 4, "velocity": 63}, {"time": 3186, "pitch": 48, "duration": 14, "velocity": 51}, {"time": 3186, "pitch": 58, "duration": 3, "velocity": 61}, {"time": 3186, "pitch": 63, "duration": 2, "velocity": 63}, {"time": 3186, "pitch": 67, "duration": 4, "velocity": 69}, {"time": 3198, "pitch": 58, "duration": 7, "velocity": 49}, {"time": 3198, "pitch": 63, "duration": 12, "velocity": 48}, {"time": 3198, "pitch": 67, "duration": 11, "velocity": 59}, {"time": 3204, "pitch": 48, "duration": 5, "velocity": 60}, {"time": 3210, "pitch": 53, "duration": 4, "velocity": 63}, {"time": 3210, "pitch": 60, "duration": 3, "velocity": 61}, {"time": 3210, "pitch": 65, "duration": 3, "velocity": 61}, {"time": 3210, "pitch": 68, "duration": 3, "velocity": 61}, {"time": 3222, "pitch": 53, "duration": 8, "velocity": 76}, {"time": 3222, "pitch": 60, "duration": 8, "velocity": 61}, {"time": 3222, "pitch": 65, "duration": 10, "velocity": 61}, {"time": 3222, "pitch": 68, "duration": 9, "velocity": 66}, {"time": 3234, "pitch": 44, "duration": 20, "velocity": 51}, {"time": 3234, "pitch": 60, "duration": 12, "velocity": 53}, {"time": 3234, "pitch": 63, "duration": 12, "velocity": 61}, {"time": 3234, "pitch": 68, "duration": 12, "velocity": 62}, {"time": 3240, "pitch": 51, "duration": 15, "velocity": 57}, {"time": 3246, "pitch": 56, "duration": 7, "velocity": 58}, {"time": 3252, "pitch": 68, "duration": 20, "velocity": 67}, {"time": 3258, "pitch": 41, "duration": 14, "velocity": 70}, {"time": 3258, "pitch": 60, "duration": 13, "velocity": 61}, {"time": 3264, "pitch": 48, "duration": 9, "velocity": 61}, {"time": 3270, "pitch": 53, "duration": 4, "velocity": 58}, {"time": 3270, "pitch": 65, "duration": 6, "velocity": 63}, {"time": 3279, "pitch": 68, "duration": 2, "velocity": 33}, {"time": 3282, "pitch": 46, "duration": 18, "velocity": 67}, {"time": 3282, "pitch": 58, "duration": 6, "velocity": 63}, {"time": 3282, "pitch": 61, "duration": 11, "velocity": 63}, {"time": 3282, "pitch": 65, "duration": 12, "velocity": 64}, {"time": 3288, "pitch": 53, "duration": 11, "velocity": 50}, {"time": 3294, "pitch": 58, "duration": 4, "velocity": 63}, {"time": 3300, "pitch": 65, "duration": 5, "velocity": 48}, {"time": 3303, "pitch": 67, "duration": 4, "velocity": 49}, {"time": 3306, "pitch": 39, "duration": 14, "velocity": 75}, {"time": 3306, "pitch": 63, "duration": 14, "velocity": 72}, {"time": 3306, "pitch": 68, "duration": 11, "velocity": 55}, {"time": 3312, "pitch": 46, "duration": 9, "velocity": 63}, {"time": 3318, "pitch": 51, "duration": 8, "velocity": 62}, {"time": 3324, "pitch": 58, "duration": 3, "velocity": 55}, {"time": 3330, "pitch": 44, "duration": 15, "velocity": 70}, {"time": 3330, "pitch": 60, "duration": 13, "velocity": 61}, {"time": 3330, "pitch": 63, "duration": 13, "velocity": 67}, {"time": 3330, "pitch": 68, "duration": 12, "velocity": 64}, {"time": 3336, "pitch": 51, "duration": 9, "velocity": 60}, {"time": 3342, "pitch": 56, "duration": 3, "velocity": 73}, {"time": 3348, "pitch": 68, "duration": 4, "velocity": 58}, {"time": 3354, "pitch": 39, "duration": 17, "velocity": 75}, {"time": 3354, "pitch": 58, "duration": 13, "velocity": 64}, {"time": 3354, "pitch": 63, "duration": 13, "velocity": 69}, {"time": 3354, "pitch": 67, "duration": 14, "velocity": 62}, {"time": 3360, "pitch": 46, "duration": 11, "velocity": 62}, {"time": 3366, "pitch": 51, "duration": 5, "velocity": 57}, {"time": 3378, "pitch": 37, "duration": 17, "velocity": 58}, {"time": 3378, "pitch": 58, "duration": 6, "velocity": 44}, {"time": 3378, "pitch": 61, "duration": 13, "velocity": 73}, {"time": 3384, "pitch": 44, "duration": 13, "velocity": 64}, {"time": 3384, "pitch": 65, "duration": 7, "velocity": 26}, {"time": 3390, "pitch": 49, "duration": 9, "velocity": 85}, {"time": 3396, "pitch": 68, "duration": 5, "velocity": 60}, {"time": 3402, "pitch": 39, "duration": 13, "velocity": 70}, {"time": 3402, "pitch": 58, "duration": 12, "velocity": 59}, {"time": 3402, "pitch": 63, "duration": 12, "velocity": 63}, {"time": 3402, "pitch": 67, "duration": 12, "velocity": 64}, {"time": 3408, "pitch": 46, "duration": 8, "velocity": 62}, {"time": 3414, "pitch": 51, "duration": 4, "velocity": 64}, {"time": 3420, "pitch": 63, "duration": 12, "velocity": 67}, {"time": 3426, "pitch": 44, "duration": 15, "velocity": 66}, {"time": 3426, "pitch": 60, "duration": 5, "velocity": 60}, {"time": 3426, "pitch": 68, "duration": 6, "velocity": 70}, {"time": 3432, "pitch": 51, "duration": 9, "velocity": 49}, {"time": 3438, "pitch": 56, "duration": 5, "velocity": 58}, {"time": 3444, "pitch": 75, "duration": 5, "velocity": 67}, {"time": 3450, "pitch": 51, "duration": 14, "velocity": 55}, {"time": 3450, "pitch": 63, "duration": 8, "velocity": 60}, {"time": 3450, "pitch": 72, "duration": 7, "velocity": 70}, {"time": 3456, "pitch": 55, "duration": 8, "velocity": 59}, {"time": 3456, "pitch": 70, "duration": 4, "velocity": 67}, {"time": 3462, "pitch": 68, "duration": 4, "velocity": 62}, {"time": 3468, "pitch": 63, "duration": 7, "velocity": 53}, {"time": 3474, "pitch": 41, "duration": 16, "velocity": 62}, {"time": 3474, "pitch": 60, "duration": 15, "velocity": 61}, {"time": 3474, "pitch": 68, "duration": 15, "velocity": 64}, {"time": 3480, "pitch": 48, "duration": 10, "velocity": 59}, {"time": 3486, "pitch": 53, "duration": 4, "velocity": 59}, {"time": 3492, "pitch": 68, "duration": 6, "velocity": 69}, {"time": 3498, "pitch": 39, "duration": 15, "velocity": 67}, {"time": 3498, "pitch": 58, "duration": 14, "velocity": 63}, {"time": 3498, "pitch": 63, "duration": 12, "velocity": 70}, {"time": 3498, "pitch": 67, "duration": 13, "velocity": 75}, {"time": 3504, "pitch": 46, "duration": 10, "velocity": 59}, {"time": 3510, "pitch": 51, "duration": 5, "velocity": 52}, {"time": 3516, "pitch": 63, "duration": 7, "velocity": 62}, {"time": 3522, "pitch": 41, "duration": 15, "velocity": 72}, {"time": 3522, "pitch": 60, "duration": 8, "velocity": 60}, {"time": 3522, "pitch": 65, "duration": 8, "velocity": 66}, {"time": 3528, "pitch": 48, "duration": 9, "velocity": 61}, {"time": 3534, "pitch": 53, "duration": 4, "velocity": 56}, {"time": 3540, "pitch": 63, "duration": 4, "velocity": 60}, {"time": 3546, "pitch": 37, "duration": 13, "velocity": 69}, {"time": 3546, "pitch": 63, "duration": 3, "velocity": 42}, {"time": 3546, "pitch": 72, "duration": 7, "velocity": 69}, {"time": 3552, "pitch": 44, "duration": 7, "velocity": 56}, {"time": 3552, "pitch": 70, "duration": 6, "velocity": 64}, {"time": 3558, "pitch": 39, "duration": 7, "velocity": 59}, {"time": 3558, "pitch": 68, "duration": 6, "velocity": 61}, {"time": 3564, "pitch": 63, "duration": 8, "velocity": 56}, {"time": 3570, "pitch": 41, "duration": 5, "velocity": 66}, {"time": 3570, "pitch": 65, "duration": 18, "velocity": 70}, {"time": 3576, "pitch": 41, "duration": 5, "velocity": 66}, {"time": 3576, "pitch": 48, "duration": 6, "velocity": 57}, {"time": 3582, "pitch": 41, "duration": 5, "velocity": 66}, {"time": 3582, "pitch": 53, "duration": 8, "velocity": 59}, {"time": 3588, "pitch": 41, "duration": 5, "velocity": 66}, {"time": 3588, "pitch": 55, "duration": 3, "velocity": 55}, {"time": 3594, "pitch": 41, "duration": 3, "velocity": 75}, {"time": 3594, "pitch": 60, "duration": 3, "velocity": 49}, {"time": 3594, "pitch": 65, "duration": 6, "velocity": 69}, {"time": 3600, "pitch": 41, "duration": 4, "velocity": 70}, {"time": 3600, "pitch": 60, "duration": 3, "velocity": 51}, {"time": 3600, "pitch": 65, "duration": 1, "velocity": 49}, {"time": 3606, "pitch": 41, "duration": 3, "velocity": 82}, {"time": 3606, "pitch": 60, "duration": 3, "velocity": 61}, {"time": 3606, "pitch": 65, "duration": 4, "velocity": 55}, {"time": 3612, "pitch": 41, "duration": 3, "velocity": 95}, {"time": 3612, "pitch": 60, "duration": 3, "velocity": 64}, {"time": 3612, "pitch": 65, "duration": 3, "velocity": 62}, {"time": 3618, "pitch": 41, "duration": 6, "velocity": 76}, {"time": 3618, "pitch": 65, "duration": 6, "velocity": 62}, {"time": 3624, "pitch": 41, "duration": 3, "velocity": 62}, {"time": 3624, "pitch": 65, "duration": 3, "velocity": 69}, {"time": 3627, "pitch": 41, "duration": 3, "velocity": 72}, {"time": 3627, "pitch": 65, "duration": 3, "velocity": 72}, {"time": 3630, "pitch": 44, "duration": 12, "velocity": 60}, {"time": 3630, "pitch": 65, "duration": 12, "velocity": 97}, {"time": 3630, "pitch": 68, "duration": 12, "velocity": 97}, {"time": 3642, "pitch": 41, "duration": 6, "velocity": 80}, {"time": 3642, "pitch": 65, "duration": 6, "velocity": 80}, {"time": 3648, "pitch": 41, "duration": 3, "velocity": 93}, {"time": 3648, "pitch": 65, "duration": 3, "velocity": 62}, {"time": 3651, "pitch": 41, "duration": 3, "velocity": 88}, {"time": 3651, "pitch": 65, "duration": 3, "velocity": 73}, {"time": 3654, "pitch": 46, "duration": 12, "velocity": 76}, {"time": 3654, "pitch": 60, "duration": 12, "velocity": 85}, {"time": 3654, "pitch": 65, "duration": 12, "velocity": 85}, {"time": 3654, "pitch": 70, "duration": 12, "velocity": 85}, {"time": 3702, "pitch": 37, "duration": 2, "velocity": 67}, {"time": 3702, "pitch": 49, "duration": 2, "velocity": 93}, {"time": 3702, "pitch": 56, "duration": 2, "velocity": 93}, {"time": 3702, "pitch": 61, "duration": 1, "velocity": 88}, {"time": 3702, "pitch": 65, "duration": 2, "velocity": 91}, {"time": 3705, "pitch": 39, "duration": 7, "velocity": 70}, {"time": 3705, "pitch": 58, "duration": 7, "velocity": 93}, {"time": 3705, "pitch": 63, "duration": 7, "velocity": 95}, {"time": 3705, "pitch": 67, "duration": 8, "velocity": 78}, {"time": 3714, "pitch": 44, "duration": 4, "velocity": 75}, {"time": 3714, "pitch": 56, "duration": 4, "velocity": 69}, {"time": 3714, "pitch": 63, "duration": 4, "velocity": 70}, {"time": 3714, "pitch": 68, "duration": 4, "velocity": 76}, {"time": 3720, "pitch": 44, "duration": 5, "velocity": 69}, {"time": 3720, "pitch": 56, "duration": 5, "velocity": 70}, {"time": 3720, "pitch": 63, "duration": 2, "velocity": 62}, {"time": 3720, "pitch": 68, "duration": 2, "velocity": 70}, {"time": 3723, "pitch": 63, "duration": 2, "velocity": 54}, {"time": 3723, "pitch": 68, "duration": 2, "velocity": 75}, {"time": 3726, "pitch": 51, "duration": 8, "velocity": 76}, {"time": 3726, "pitch": 63, "duration": 9, "velocity": 82}, {"time": 3726, "pitch": 68, "duration": 8, "velocity": 73}, {"time": 3738, "pitch": 39, "duration": 6, "velocity": 75}, {"time": 3738, "pitch": 51, "duration": 5, "velocity": 75}, {"time": 3738, "pitch": 63, "duration": 5, "velocity": 82}, {"time": 3738, "pitch": 67, "duration": 5, "velocity": 78}, {"time": 3738, "pitch": 70, "duration": 4, "velocity": 64}, {"time": 3744, "pitch": 39, "duration": 3, "velocity": 76}, {"time": 3744, "pitch": 51, "duration": 3, "velocity": 67}, {"time": 3744, "pitch": 63, "duration": 4, "velocity": 55}, {"time": 3744, "pitch": 67, "duration": 2, "velocity": 61}, {"time": 3744, "pitch": 70, "duration": 1, "velocity": 51}, {"time": 3747, "pitch": 67, "duration": 1, "velocity": 53}, {"time": 3747, "pitch": 70, "duration": 1, "velocity": 54}, {"time": 3750, "pitch": 46, "duration": 11, "velocity": 63}, {"time": 3750, "pitch": 63, "duration": 10, "velocity": 76}, {"time": 3750, "pitch": 67, "duration": 10, "velocity": 75}, {"time": 3750, "pitch": 70, "duration": 10, "velocity": 72}, {"time": 3810, "pitch": 44, "duration": 16, "velocity": 73}, {"time": 3810, "pitch": 60, "duration": 7, "velocity": 75}, {"time": 3810, "pitch": 63, "duration": 7, "velocity": 78}, {"time": 3810, "pitch": 68, "duration": 7, "velocity": 80}, {"time": 3816, "pitch": 51, "duration": 11, "velocity": 62}, {"time": 3819, "pitch": 56, "duration": 5, "velocity": 63}, {"time": 3819, "pitch": 60, "duration": 11, "velocity": 85}, {"time": 3819, "pitch": 67, "duration": 8, "velocity": 69}, {"time": 3828, "pitch": 68, "duration": 8, "velocity": 76}, {"time": 3834, "pitch": 37, "duration": 7, "velocity": 70}, {"time": 3834, "pitch": 49, "duration": 8, "velocity": 85}, {"time": 3834, "pitch": 56, "duration": 7, "velocity": 72}, {"time": 3834, "pitch": 61, "duration": 10, "velocity": 76}, {"time": 3834, "pitch": 65, "duration": 10, "velocity": 76}, {"time": 3846, "pitch": 39, "duration": 9, "velocity": 72}, {"time": 3846, "pitch": 51, "duration": 5, "velocity": 78}, {"time": 3846, "pitch": 58, "duration": 5, "velocity": 85}, {"time": 3846, "pitch": 63, "duration": 5, "velocity": 67}, {"time": 3846, "pitch": 67, "duration": 5, "velocity": 76}, {"time": 3852, "pitch": 51, "duration": 4, "velocity": 64}, {"time": 3858, "pitch": 41, "duration": 20, "velocity": 73}, {"time": 3858, "pitch": 60, "duration": 6, "velocity": 78}, {"time": 3858, "pitch": 65, "duration": 7, "velocity": 72}, {"time": 3858, "pitch": 68, "duration": 7, "velocity": 78}, {"time": 3864, "pitch": 48, "duration": 18, "velocity": 66}, {"time": 3867, "pitch": 58, "duration": 4, "velocity": 76}, {"time": 3867, "pitch": 67, "duration": 9, "velocity": 75}, {"time": 3870, "pitch": 53, "duration": 9, "velocity": 56}, {"time": 3876, "pitch": 60, "duration": 3, "velocity": 73}, {"time": 3876, "pitch": 68, "duration": 4, "velocity": 82}, {"time": 3882, "pitch": 41, "duration": 5, "velocity": 66}, {"time": 3882, "pitch": 60, "duration": 3, "velocity": 72}, {"time": 3882, "pitch": 67, "duration": 4, "velocity": 67}, {"time": 3894, "pitch": 37, "duration": 3, "velocity": 82}, {"time": 3894, "pitch": 49, "duration": 1, "velocity": 52}, {"time": 3894, "pitch": 56, "duration": 2, "velocity": 76}, {"time": 3894, "pitch": 61, "duration": 2, "velocity": 76}, {"time": 3894, "pitch": 65, "duration": 2, "velocity": 80}, {"time": 3897, "pitch": 39, "duration": 9, "velocity": 97}, {"time": 3897, "pitch": 58, "duration": 9, "velocity": 91}, {"time": 3897, "pitch": 63, "duration": 9, "velocity": 95}, {"time": 3897, "pitch": 67, "duration": 9, "velocity": 78}, {"time": 3906, "pitch": 44, "duration": 18, "velocity": 75}, {"time": 3906, "pitch": 56, "duration": 14, "velocity": 95}, {"time": 3906, "pitch": 60, "duration": 9, "velocity": 88}, {"time": 3906, "pitch": 63, "duration": 1, "velocity": 91}, {"time": 3906, "pitch": 68, "duration": 8, "velocity": 78}, {"time": 3918, "pitch": 60, "duration": 6, "velocity": 75}, {"time": 3918, "pitch": 63, "duration": 5, "velocity": 82}, {"time": 3918, "pitch": 68, "duration": 10, "velocity": 80}, {"time": 3924, "pitch": 51, "duration": 2, "velocity": 61}, {"time": 3930, "pitch": 37, "duration": 10, "velocity": 69}, {"time": 3930, "pitch": 49, "duration": 14, "velocity": 45}, {"time": 3930, "pitch": 51, "duration": 1, "velocity": 54}, {"time": 3930, "pitch": 56, "duration": 7, "velocity": 97}, {"time": 3930, "pitch": 61, "duration": 12, "velocity": 82}, {"time": 3930, "pitch": 65, "duration": 11, "velocity": 75}, {"time": 3942, "pitch": 39, "duration": 6, "velocity": 73}, {"time": 3942, "pitch": 58, "duration": 5, "velocity": 75}, {"time": 3942, "pitch": 63, "duration": 6, "velocity": 76}, {"time": 3942, "pitch": 67, "duration": 5, "velocity": 73}, {"time": 3951, "pitch": 63, "duration": 2, "velocity": 43}, {"time": 3954, "pitch": 41, "duration": 4, "velocity": 73}, {"time": 3954, "pitch": 53, "duration": 4, "velocity": 69}, {"time": 3954, "pitch": 56, "duration": 3, "velocity": 80}, {"time": 3954, "pitch": 60, "duration": 3, "velocity": 85}, {"time": 3954, "pitch": 65, "duration": 3, "velocity": 76}, {"time": 3960, "pitch": 41, "duration": 2, "velocity": 66}, {"time": 3960, "pitch": 53, "duration": 2, "velocity": 63}, {"time": 3960, "pitch": 56, "duration": 2, "velocity": 75}, {"time": 3960, "pitch": 60, "duration": 2, "velocity": 88}, {"time": 3960, "pitch": 65, "duration": 3, "velocity": 70}, {"time": 3963, "pitch": 41, "duration": 2, "velocity": 49}, {"time": 3963, "pitch": 53, "duration": 3, "velocity": 48}, {"time": 3963, "pitch": 60, "duration": 2, "velocity": 70}, {"time": 3966, "pitch": 44, "duration": 9, "velocity": 106}, {"time": 3966, "pitch": 60, "duration": 9, "velocity": 93}, {"time": 3966, "pitch": 63, "duration": 10, "velocity": 93}, {"time": 3966, "pitch": 68, "duration": 8, "velocity": 85}, {"time": 3978, "pitch": 41, "duration": 4, "velocity": 73}, {"time": 3978, "pitch": 53, "duration": 4, "velocity": 67}, {"time": 3978, "pitch": 56, "duration": 4, "velocity": 67}, {"time": 3978, "pitch": 60, "duration": 3, "velocity": 85}, {"time": 3978, "pitch": 63, "duration": 3, "velocity": 70}, {"time": 3984, "pitch": 41, "duration": 5, "velocity": 78}, {"time": 3984, "pitch": 53, "duration": 5, "velocity": 66}, {"time": 3984, "pitch": 56, "duration": 2, "velocity": 72}, {"time": 3984, "pitch": 60, "duration": 2, "velocity": 75}, {"time": 3984, "pitch": 63, "duration": 5, "velocity": 75}, {"time": 3987, "pitch": 56, "duration": 2, "velocity": 58}, {"time": 3987, "pitch": 60, "duration": 2, "velocity": 75}, {"time": 3990, "pitch": 41, "duration": 12, "velocity": 76}, {"time": 3990, "pitch": 53, "duration": 8, "velocity": 70}, {"time": 3990, "pitch": 56, "duration": 10, "velocity": 76}, {"time": 3990, "pitch": 60, "duration": 11, "velocity": 88}, {"time": 3990, "pitch": 65, "duration": 11, "velocity": 78}, {"time": 4002, "pitch": 44, "duration": 16, "velocity": 67}, {"time": 4002, "pitch": 60, "duration": 4, "velocity": 66}, {"time": 4002, "pitch": 63, "duration": 4, "velocity": 70}, {"time": 4002, "pitch": 68, "duration": 3, "velocity": 69}, {"time": 4008, "pitch": 60, "duration": 3, "velocity": 61}, {"time": 4008, "pitch": 63, "duration": 4, "velocity": 69}, {"time": 4008, "pitch": 68, "duration": 3, "velocity": 63}, {"time": 4014, "pitch": 60, "duration": 3, "velocity": 62}, {"time": 4014, "pitch": 63, "duration": 3, "velocity": 66}, {"time": 4014, "pitch": 68, "duration": 3, "velocity": 76}, {"time": 4020, "pitch": 60, "duration": 3, "velocity": 59}, {"time": 4020, "pitch": 63, "duration": 2, "velocity": 44}, {"time": 4020, "pitch": 68, "duration": 4, "velocity": 73}, {"time": 4026, "pitch": 37, "duration": 7, "velocity": 67}, {"time": 4026, "pitch": 49, "duration": 9, "velocity": 70}, {"time": 4026, "pitch": 56, "duration": 3, "velocity": 73}, {"time": 4026, "pitch": 61, "duration": 3, "velocity": 62}, {"time": 4026, "pitch": 65, "duration": 3, "velocity": 67}, {"time": 4032, "pitch": 56, "duration": 4, "velocity": 70}, {"time": 4032, "pitch": 61, "duration": 4, "velocity": 67}, {"time": 4032, "pitch": 65, "duration": 5, "velocity": 66}, {"time": 4038, "pitch": 39, "duration": 8, "velocity": 72}, {"time": 4038, "pitch": 51, "duration": 3, "velocity": 75}, {"time": 4038, "pitch": 58, "duration": 4, "velocity": 72}, {"time": 4038, "pitch": 63, "duration": 4, "velocity": 72}, {"time": 4038, "pitch": 67, "duration": 4, "velocity": 76}, {"time": 4044, "pitch": 51, "duration": 3, "velocity": 82}, {"time": 4044, "pitch": 58, "duration": 3, "velocity": 64}, {"time": 4044, "pitch": 63, "duration": 3, "velocity": 63}, {"time": 4044, "pitch": 67, "duration": 3, "velocity": 64}, {"time": 4050, "pitch": 41, "duration": 20, "velocity": 76}, {"time": 4050, "pitch": 60, "duration": 7, "velocity": 70}, {"time": 4050, "pitch": 68, "duration": 8, "velocity": 76}, {"time": 4053, "pitch": 48, "duration": 21, "velocity": 47}, {"time": 4059, "pitch": 60, "duration": 7, "velocity": 70}, {"time": 4059, "pitch": 67, "duration": 7, "velocity": 64}, {"time": 4059, "pitch": 68, "duration": 2, "velocity": 49}, {"time": 4062, "pitch": 53, "duration": 8, "velocity": 37}, {"time": 4068, "pitch": 63, "duration": 7, "velocity": 73}, {"time": 4074, "pitch": 41, "duration": 19, "velocity": 61}, {"time": 4074, "pitch": 60, "duration": 7, "velocity": 70}, {"time": 4074, "pitch": 65, "duration": 7, "velocity": 70}, {"time": 4077, "pitch": 48, "duration": 6, "velocity": 63}, {"time": 4083, "pitch": 53, "duration": 7, "velocity": 70}, {"time": 4083, "pitch": 58, "duration": 6, "velocity": 66}, {"time": 4083, "pitch": 63, "duration": 8, "velocity": 67}, {"time": 4089, "pitch": 48, "duration": 5, "velocity": 40}, {"time": 4092, "pitch": 60, "duration": 3, "velocity": 54}, {"time": 4092, "pitch": 63, "duration": 5, "velocity": 67}, {"time": 4098, "pitch": 44, "duration": 18, "velocity": 72}, {"time": 4098, "pitch": 60, "duration": 16, "velocity": 72}, {"time": 4098, "pitch": 63, "duration": 16, "velocity": 76}, {"time": 4098, "pitch": 68, "duration": 15, "velocity": 70}, {"time": 4110, "pitch": 56, "duration": 5, "velocity": 60}, {"time": 4116, "pitch": 68, "duration": 5, "velocity": 73}, {"time": 4122, "pitch": 39, "duration": 16, "velocity": 75}, {"time": 4122, "pitch": 51, "duration": 16, "velocity": 78}, {"time": 4122, "pitch": 58, "duration": 9, "velocity": 64}, {"time": 4122, "pitch": 63, "duration": 6, "velocity": 72}, {"time": 4122, "pitch": 67, "duration": 9, "velocity": 76}, {"time": 4134, "pitch": 58, "duration": 4, "velocity": 75}, {"time": 4134, "pitch": 63, "duration": 4, "velocity": 70}, {"time": 4146, "pitch": 41, "duration": 4, "velocity": 88}, {"time": 4146, "pitch": 60, "duration": 4, "velocity": 75}, {"time": 4146, "pitch": 65, "duration": 4, "velocity": 76}, {"time": 4152, "pitch": 41, "duration": 2, "velocity": 72}, {"time": 4152, "pitch": 60, "duration": 1, "velocity": 56}, {"time": 4152, "pitch": 65, "duration": 2, "velocity": 72}, {"time": 4155, "pitch": 41, "duration": 2, "velocity": 70}, {"time": 4155, "pitch": 60, "duration": 1, "velocity": 49}, {"time": 4155, "pitch": 65, "duration": 2, "velocity": 76}, {"time": 4158, "pitch": 44, "duration": 9, "velocity": 82}, {"time": 4158, "pitch": 60, "duration": 9, "velocity": 76}, {"time": 4158, "pitch": 63, "duration": 9, "velocity": 66}, {"time": 4158, "pitch": 68, "duration": 8, "velocity": 70}, {"time": 4170, "pitch": 41, "duration": 3, "velocity": 76}, {"time": 4170, "pitch": 60, "duration": 3, "velocity": 69}, {"time": 4170, "pitch": 65, "duration": 3, "velocity": 82}, {"time": 4176, "pitch": 41, "duration": 3, "velocity": 72}, {"time": 4176, "pitch": 60, "duration": 2, "velocity": 55}, {"time": 4176, "pitch": 65, "duration": 2, "velocity": 78}, {"time": 4179, "pitch": 60, "duration": 2, "velocity": 54}, {"time": 4179, "pitch": 65, "duration": 2, "velocity": 67}, {"time": 4182, "pitch": 41, "duration": 9, "velocity": 95}, {"time": 4182, "pitch": 60, "duration": 10, "velocity": 73}, {"time": 4182, "pitch": 65, "duration": 10, "velocity": 73}, {"time": 4182, "pitch": 68, "duration": 9, "velocity": 75}, {"time": 4194, "pitch": 44, "duration": 16, "velocity": 70}, {"time": 4194, "pitch": 60, "duration": 7, "velocity": 73}, {"time": 4194, "pitch": 63, "duration": 7, "velocity": 67}, {"time": 4194, "pitch": 68, "duration": 7, "velocity": 73}, {"time": 4200, "pitch": 51, "duration": 11, "velocity": 62}, {"time": 4203, "pitch": 56, "duration": 5, "velocity": 63}, {"time": 4203, "pitch": 60, "duration": 7, "velocity": 76}, {"time": 4203, "pitch": 63, "duration": 7, "velocity": 76}, {"time": 4203, "pitch": 68, "duration": 5, "velocity": 70}, {"time": 4212, "pitch": 68, "duration": 6, "velocity": 70}, {"time": 4218, "pitch": 39, "duration": 14, "velocity": 73}, {"time": 4218, "pitch": 51, "duration": 9, "velocity": 82}, {"time": 4218, "pitch": 58, "duration": 7, "velocity": 69}, {"time": 4218, "pitch": 63, "duration": 6, "velocity": 72}, {"time": 4218, "pitch": 67, "duration": 7, "velocity": 73}, {"time": 4227, "pitch": 58, "duration": 7, "velocity": 75}, {"time": 4227, "pitch": 63, "duration": 8, "velocity": 80}, {"time": 4230, "pitch": 51, "duration": 5, "velocity": 58}, {"time": 4236, "pitch": 58, "duration": 5, "velocity": 62}, {"time": 4242, "pitch": 41, "duration": 39, "velocity": 75}, {"time": 4242, "pitch": 58, "duration": 3, "velocity": 54}, {"time": 4242, "pitch": 60, "duration": 7, "velocity": 70}, {"time": 4242, "pitch": 63, "duration": 7, "velocity": 75}, {"time": 4251, "pitch": 48, "duration": 11, "velocity": 66}, {"time": 4251, "pitch": 60, "duration": 4, "velocity": 67}, {"time": 4251, "pitch": 65, "duration": 8, "velocity": 64}, {"time": 4260, "pitch": 53, "duration": 8, "velocity": 61}, {"time": 4260, "pitch": 58, "duration": 5, "velocity": 67}, {"time": 4260, "pitch": 63, "duration": 5, "velocity": 63}, {"time": 4266, "pitch": 48, "duration": 15, "velocity": 61}, {"time": 4266, "pitch": 60, "duration": 4, "velocity": 80}, {"time": 4266, "pitch": 65, "duration": 4, "velocity": 72}, {"time": 4269, "pitch": 53, "duration": 4, "velocity": 54}, {"time": 4272, "pitch": 60, "duration": 7, "velocity": 66}, {"time": 4272, "pitch": 65, "duration": 9, "velocity": 66}, {"time": 4275, "pitch": 53, "duration": 4, "velocity": 67}, {"time": 4290, "pitch": 44, "duration": 16, "velocity": 61}, {"time": 4290, "pitch": 51, "duration": 16, "velocity": 69}, {"time": 4290, "pitch": 56, "duration": 14, "velocity": 67}, {"time": 4290, "pitch": 60, "duration": 9, "velocity": 69}, {"time": 4290, "pitch": 63, "duration": 9, "velocity": 72}, {"time": 4290, "pitch": 68, "duration": 8, "velocity": 76}, {"time": 4299, "pitch": 60, "duration": 8, "velocity": 63}, {"time": 4308, "pitch": 68, "duration": 9, "velocity": 72}, {"time": 4314, "pitch": 39, "duration": 19, "velocity": 70}, {"time": 4314, "pitch": 51, "duration": 14, "velocity": 72}, {"time": 4314, "pitch": 58, "duration": 9, "velocity": 67}, {"time": 4314, "pitch": 63, "duration": 8, "velocity": 70}, {"time": 4314, "pitch": 67, "duration": 9, "velocity": 70}, {"time": 4326, "pitch": 58, "duration": 6, "velocity": 63}, {"time": 4326, "pitch": 63, "duration": 11, "velocity": 70}, {"time": 4332, "pitch": 51, "duration": 5, "velocity": 85}, {"time": 4338, "pitch": 41, "duration": 39, "velocity": 75}, {"time": 4338, "pitch": 60, "duration": 9, "velocity": 66}, {"time": 4338, "pitch": 65, "duration": 10, "velocity": 70}, {"time": 4344, "pitch": 48, "duration": 34, "velocity": 48}, {"time": 4350, "pitch": 60, "duration": 6, "velocity": 70}, {"time": 4350, "pitch": 68, "duration": 10, "velocity": 76}, {"time": 4356, "pitch": 60, "duration": 1, "velocity": 53}, {"time": 4356, "pitch": 67, "duration": 6, "velocity": 69}, {"time": 4362, "pitch": 53, "duration": 7, "velocity": 56}, {"time": 4362, "pitch": 63, "duration": 10, "velocity": 69}, {"time": 4374, "pitch": 53, "duration": 3, "velocity": 69}, {"time": 4374, "pitch": 65, "duration": 4, "velocity": 72}, {"time": 4386, "pitch": 41, "duration": 17, "velocity": 69}, {"time": 4386, "pitch": 53, "duration": 10, "velocity": 55}, {"time": 4386, "pitch": 60, "duration": 16, "velocity": 61}, {"time": 4386, "pitch": 63, "duration": 14, "velocity": 64}, {"time": 4386, "pitch": 68, "duration": 16, "velocity": 62}, {"time": 4398, "pitch": 53, "duration": 4, "velocity": 78}, {"time": 4410, "pitch": 39, "duration": 16, "velocity": 64}, {"time": 4410, "pitch": 51, "duration": 8, "velocity": 52}, {"time": 4410, "pitch": 58, "duration": 15, "velocity": 60}, {"time": 4410, "pitch": 63, "duration": 13, "velocity": 63}, {"time": 4410, "pitch": 67, "duration": 13, "velocity": 66}, {"time": 4422, "pitch": 51, "duration": 3, "velocity": 64}, {"time": 4434, "pitch": 37, "duration": 16, "velocity": 73}, {"time": 4434, "pitch": 49, "duration": 8, "velocity": 67}, {"time": 4434, "pitch": 56, "duration": 12, "velocity": 63}, {"time": 4434, "pitch": 61, "duration": 15, "velocity": 67}, {"time": 4434, "pitch": 65, "duration": 14, "velocity": 62}, {"time": 4446, "pitch": 49, "duration": 3, "velocity": 85}, {"time": 4458, "pitch": 36, "duration": 15, "velocity": 73}, {"time": 4458, "pitch": 48, "duration": 7, "velocity": 73}, {"time": 4458, "pitch": 58, "duration": 15, "velocity": 64}, {"time": 4458, "pitch": 63, "duration": 15, "velocity": 75}, {"time": 4458, "pitch": 67, "duration": 14, "velocity": 63}, {"time": 4470, "pitch": 48, "duration": 3, "velocity": 91}, {"time": 4482, "pitch": 41, "duration": 46, "velocity": 72}, {"time": 4482, "pitch": 53, "duration": 47, "velocity": 82}, {"time": 4482, "pitch": 60, "duration": 38, "velocity": 88}, {"time": 4482, "pitch": 65, "duration": 38, "velocity": 88}, {"time": 4482, "pitch": 68, "duration": 39, "velocity": 76}, {"time": 4530, "pitch": 41, "duration": 10, "velocity": 73}, {"time": 4530, "pitch": 53, "duration": 9, "velocity": 72}, {"time": 4530, "pitch": 77, "duration": 9, "velocity": 58}, {"time": 4530, "pitch": 89, "duration": 7, "velocity": 62}], "annotations": [{"time": 68, "annotation": {"number": 64, "value": 127}, "group": "control_change"}, {"time": 89, "annotation": {"number": 64, "value": 0}, "group": "control_change"}, {"time": 93, "annotation": {"number": 64, "value": 127}, "group": "control_change"}, {"time": 112, "annotation": {"number": 64, "value": 0}, "group": "control_change"}, {"time": 116, "annotation": {"number": 64, "value": 127}, "group": "control_change"}, {"time": 136, "annotation": {"number": 64, "value": 0}, "group": "control_change"}, {"time": 140, "annotation": {"number": 64, "value": 127}, "group": "control_change"}, {"time": 159, "annotation": {"number": 64, "value": 0}, "group": "control_change"}, {"time": 163, "annotation": {"number": 64, "value": 127}, "group": "control_change"}, {"time": 212, "annotation": {"number": 64, "value": 0}, "group": "control_change"}, {"time": 596, "annotation": {"number": 64, "value": 127}, "group": "control_change"}, {"time": 617, "annotation": {"number": 64, "value": 0}, "group": "control_change"}, {"time": 622, "annotation": {"number": 64, "value": 127}, "group": "control_change"}, {"time": 629, "annotation": {"number": 64, "value": 0}, "group": "control_change"}, {"time": 633, "annotation": {"number": 64, "value": 127}, "group": "control_change"}, {"time": 640, "annotation": {"number": 64, "value": 0}, "group": "control_change"}, {"time": 644, "annotation": {"number": 64, "value": 127}, "group": "control_change"}, {"time": 677, "annotation": {"number": 64, "value": 0}, "group": "control_change"}, {"time": 692, "annotation": {"number": 64, "value": 127}, "group": "control_change"}, {"time": 715, "annotation": {"number": 64, "value": 0}, "group": "control_change"}, {"time": 719, "annotation": {"number": 64, "value": 127}, "group": "control_change"}, {"time": 726, "annotation": {"number": 64, "value": 0}, "group": "control_change"}, {"time": 730, "annotation": {"number": 64, "value": 127}, "group": "control_change"}, {"time": 738, "annotation": {"number": 64, "value": 0}, "group": "control_change"}, {"time": 739, "annotation": {"number": 64, "value": 127}, "group": "control_change"}, {"time": 750, "annotation": {"number": 64, "value": 0}, "group": "control_change"}, {"time": 755, "annotation": {"number": 64, "value": 127}, "group": "control_change"}, {"time": 761, "annotation": {"number": 64, "value": 0}, "group": "control_change"}, {"time": 778, "annotation": {"number": 64, "value": 127}, "group": "control_change"}, {"time": 785, "annotation": {"number": 64, "value": 127}, "group": "control_change"}, {"time": 808, "annotation": {"number": 64, "value": 0}, "group": "control_change"}, {"time": 811, "annotation": {"number": 64, "value": 127}, "group": "control_change"}, {"time": 820, "annotation": {"number": 64, "value": 0}, "group": "control_change"}, {"time": 824, "annotation": {"number": 64, "value": 127}, "group": "control_change"}, {"time": 832, "annotation": {"number": 64, "value": 0}, "group": "control_change"}, {"time": 833, "annotation": {"number": 64, "value": 127}, "group": "control_change"}, {"time": 870, "annotation": {"number": 64, "value": 0}, "group": "control_change"}, {"time": 885, "annotation": {"number": 64, "value": 127}, "group": "control_change"}, {"time": 907, "annotation": {"number": 64, "value": 0}, "group": "control_change"}, {"time": 911, "annotation": {"number": 64, "value": 127}, "group": "control_change"}, {"time": 916, "annotation": {"number": 64, "value": 0}, "group": "control_change"}, {"time": 920, "annotation": {"number": 64, "value": 127}, "group": "control_change"}, {"time": 929, "annotation": {"number": 64, "value": 0}, "group": "control_change"}, {"time": 933, "annotation": {"number": 64, "value": 127}, "group": "control_change"}, {"time": 977, "annotation": {"number": 64, "value": 0}, "group": "control_change"}, {"time": 983, "annotation": {"number": 64, "value": 127}, "group": "control_change"}, {"time": 1025, "annotation": {"number": 64, "value": 0}, "group": "control_change"}, {"time": 1028, "annotation": {"number": 64, "value": 127}, "group": "control_change"}, {"time": 1052, "annotation": {"number": 64, "value": 0}, "group": "control_change"}, {"time": 1056, "annotation": {"number": 64, "value": 127}, "group": "control_change"}, {"time": 1075, "annotation": {"number": 64, "value": 0}, "group": "control_change"}, {"time": 1081, "annotation": {"number": 64, "value": 127}, "group": "control_change"}, {"time": 1121, "annotation": {"number": 64, "value": 0}, "group": "control_change"}, {"time": 1123, "annotation": {"number": 64, "value": 127}, "group": "control_change"}, {"time": 1171, "annotation": {"number": 64, "value": 0}, "group": "control_change"}, {"time": 1177, "annotation": {"number": 64, "value": 127}, "group": "control_change"}, {"time": 1217, "annotation": {"number": 64, "value": 0}, "group": "control_change"}, {"time": 1218, "annotation": {"number": 64, "value": 127}, "group": "control_change"}, {"time": 1267, "annotation": {"number": 64, "value": 0}, "group": "control_change"}, {"time": 1272, "annotation": {"number": 64, "value": 127}, "group": "control_change"}, {"time": 1315, "annotation": {"number": 64, "value": 0}, "group": "control_change"}, {"time": 1321, "annotation": {"number": 64, "value": 127}, "group": "control_change"}, {"time": 1349, "annotation": {"number": 64, "value": 0}, "group": "control_change"}, {"time": 1354, "annotation": {"number": 64, "value": 127}, "group": "control_change"}, {"time": 1362, "annotation": {"number": 64, "value": 0}, "group": "control_change"}, {"time": 1364, "annotation": {"number": 64, "value": 0}, "group": "control_change"}, {"time": 1369, "annotation": {"number": 64, "value": 127}, "group": "control_change"}, {"time": 1410, "annotation": {"number": 64, "value": 0}, "group": "control_change"}, {"time": 1411, "annotation": {"number": 64, "value": 127}, "group": "control_change"}, {"time": 1420, "annotation": {"number": 64, "value": 0}, "group": "control_change"}, {"time": 1423, "annotation": {"number": 64, "value": 127}, "group": "control_change"}, {"time": 1431, "annotation": {"number": 64, "value": 0}, "group": "control_change"}, {"time": 1435, "annotation": {"number": 64, "value": 127}, "group": "control_change"}, {"time": 1457, "annotation": {"number": 64, "value": 0}, "group": "control_change"}, {"time": 1461, "annotation": {"number": 64, "value": 127}, "group": "control_change"}, {"time": 1479, "annotation": {"number": 64, "value": 0}, "group": "control_change"}, {"time": 1484, "annotation": {"number": 64, "value": 127}, "group": "control_change"}, {"time": 1504, "annotation": {"number": 64, "value": 0}, "group": "control_change"}, {"time": 1510, "annotation": {"number": 64, "value": 127}, "group": "control_change"}, {"time": 1528, "annotation": {"number": 64, "value": 0}, "group": "control_change"}, {"time": 1533, "annotation": {"number": 64, "value": 127}, "group": "control_change"}, {"time": 1554, "annotation": {"number": 64, "value": 0}, "group": "control_change"}, {"time": 1558, "annotation": {"number": 64, "value": 127}, "group": "control_change"}, {"time": 1577, "annotation": {"number": 64, "value": 0}, "group": "control_change"}, {"time": 1583, "annotation": {"number": 64, "value": 127}, "group": "control_change"}, {"time": 1602, "annotation": {"number": 64, "value": 0}, "group": "control_change"}, {"time": 1608, "annotation": {"number": 64, "value": 127}, "group": "control_change"}, {"time": 1648, "annotation": {"number": 64, "value": 0}, "group": "control_change"}, {"time": 1653, "annotation": {"number": 64, "value": 127}, "group": "control_change"}, {"time": 1674, "annotation": {"number": 64, "value": 0}, "group": "control_change"}, {"time": 1680, "annotation": {"number": 64, "value": 127}, "group": "control_change"}, {"time": 1698, "annotation": {"number": 64, "value": 0}, "group": "control_change"}, {"time": 1706, "annotation": {"number": 64, "value": 127}, "group": "control_change"}, {"time": 1721, "annotation": {"number": 64, "value": 0}, "group": "control_change"}, {"time": 1727, "annotation": {"number": 64, "value": 127}, "group": "control_change"}, {"time": 1746, "annotation": {"number": 64, "value": 0}, "group": "control_change"}, {"time": 1753, "annotation": {"number": 64, "value": 127}, "group": "control_change"}, {"time": 1768, "annotation": {"number": 64, "value": 0}, "group": "control_change"}, {"time": 1774, "annotation": {"number": 64, "value": 127}, "group": "control_change"}, {"time": 1793, "annotation": {"number": 64, "value": 0}, "group": "control_change"}, {"time": 1801, "annotation": {"number": 64, "value": 127}, "group": "control_change"}, {"time": 1816, "annotation": {"number": 64, "value": 0}, "group": "control_change"}, {"time": 1823, "annotation": {"number": 64, "value": 127}, "group": "control_change"}, {"time": 1840, "annotation": {"number": 64, "value": 0}, "group": "control_change"}, {"time": 1844, "annotation": {"number": 64, "value": 127}, "group": "control_change"}, {"time": 1868, "annotation": {"number": 64, "value": 0}, "group": "control_change"}, {"time": 1874, "annotation": {"number": 64, "value": 127}, "group": "control_change"}, {"time": 1891, "annotation": {"number": 64, "value": 0}, "group": "control_change"}, {"time": 1897, "annotation": {"number": 64, "value": 127}, "group": "control_change"}, {"time": 1914, "annotation": {"number": 64, "value": 0}, "group": "control_change"}, {"time": 1920, "annotation": {"number": 64, "value": 127}, "group": "control_change"}, {"time": 1937, "annotation": {"number": 64, "value": 0}, "group": "control_change"}, {"time": 1939, "annotation": {"number": 64, "value": 127}, "group": "control_change"}, {"time": 1962, "annotation": {"number": 64, "value": 0}, "group": "control_change"}, {"time": 1969, "annotation": {"number": 64, "value": 127}, "group": "control_change"}, {"time": 1988, "annotation": {"number": 64, "value": 0}, "group": "control_change"}, {"time": 1993, "annotation": {"number": 64, "value": 127}, "group": "control_change"}, {"time": 2009, "annotation": {"number": 64, "value": 0}, "group": "control_change"}, {"time": 2015, "annotation": {"number": 64, "value": 127}, "group": "control_change"}, {"time": 2033, "annotation": {"number": 64, "value": 0}, "group": "control_change"}, {"time": 2038, "annotation": {"number": 64, "value": 127}, "group": "control_change"}, {"time": 2058, "annotation": {"number": 64, "value": 0}, "group": "control_change"}, {"time": 2063, "annotation": {"number": 64, "value": 127}, "group": "control_change"}, {"time": 2080, "annotation": {"number": 64, "value": 0}, "group": "control_change"}, {"time": 2083, "annotation": {"number": 64, "value": 127}, "group": "control_change"}, {"time": 2107, "annotation": {"number": 64, "value": 0}, "group": "control_change"}, {"time": 2114, "annotation": {"number": 64, "value": 127}, "group": "control_change"}, {"time": 2129, "annotation": {"number": 64, "value": 0}, "group": "control_change"}, {"time": 2137, "annotation": {"number": 64, "value": 127}, "group": "control_change"}, {"time": 2154, "annotation": {"number": 64, "value": 0}, "group": "control_change"}, {"time": 2159, "annotation": {"number": 64, "value": 127}, "group": "control_change"}, {"time": 2164, "annotation": {"number": 64, "value": 0}, "group": "control_change"}, {"time": 2170, "annotation": {"number": 64, "value": 127}, "group": "control_change"}, {"time": 2178, "annotation": {"number": 64, "value": 0}, "group": "control_change"}, {"time": 2186, "annotation": {"number": 64, "value": 127}, "group": "control_change"}, {"time": 2198, "annotation": {"number": 64, "value": 0}, "group": "control_change"}, {"time": 2420, "annotation": {"number": 64, "value": 127}, "group": "control_change"}, {"time": 2441, "annotation": {"number": 64, "value": 0}, "group": "control_change"}, {"time": 2446, "annotation": {"number": 64, "value": 127}, "group": "control_change"}, {"time": 2453, "annotation": {"number": 64, "value": 0}, "group": "control_change"}, {"time": 2457, "annotation": {"number": 64, "value": 127}, "group": "control_change"}, {"time": 2464, "annotation": {"number": 64, "value": 0}, "group": "control_change"}, {"time": 2468, "annotation": {"number": 64, "value": 127}, "group": "control_change"}, {"time": 2501, "annotation": {"number": 64, "value": 0}, "group": "control_change"}, {"time": 2516, "annotation": {"number": 64, "value": 127}, "group": "control_change"}, {"time": 2539, "annotation": {"number": 64, "value": 0}, "group": "control_change"}, {"time": 2543, "annotation": {"number": 64, "value": 127}, "group": "control_change"}, {"time": 2550, "annotation": {"number": 64, "value": 0}, "group": "control_change"}, {"time": 2554, "annotation": {"number": 64, "value": 127}, "group": "control_change"}, {"time": 2562, "annotation": {"number": 64, "value": 0}, "group": "control_change"}, {"time": 2563, "annotation": {"number": 64, "value": 127}, "group": "control_change"}, {"time": 2574, "annotation": {"number": 64, "value": 0}, "group": "control_change"}, {"time": 2579, "annotation": {"number": 64, "value": 127}, "group": "control_change"}, {"time": 2585, "annotation": {"number": 64, "value": 0}, "group": "control_change"}, {"time": 2602, "annotation": {"number": 64, "value": 127}, "group": "control_change"}, {"time": 2609, "annotation": {"number": 64, "value": 127}, "group": "control_change"}, {"time": 2632, "annotation": {"number": 64, "value": 0}, "group": "control_change"}, {"time": 2635, "annotation": {"number": 64, "value": 127}, "group": "control_change"}, {"time": 2644, "annotation": {"number": 64, "value": 0}, "group": "control_change"}, {"time": 2648, "annotation": {"number": 64, "value": 127}, "group": "control_change"}, {"time": 2656, "annotation": {"number": 64, "value": 0}, "group": "control_change"}, {"time": 2657, "annotation": {"number": 64, "value": 127}, "group": "control_change"}, {"time": 2694, "annotation": {"number": 64, "value": 0}, "group": "control_change"}, {"time": 2709, "annotation": {"number": 64, "value": 127}, "group": "control_change"}, {"time": 2731, "annotation": {"number": 64, "value": 0}, "group": "control_change"}, {"time": 2735, "annotation": {"number": 64, "value": 127}, "group": "control_change"}, {"time": 2740, "annotation": {"number": 64, "value": 0}, "group": "control_change"}, {"time": 2744, "annotation": {"number": 64, "value": 127}, "group": "control_change"}, {"time": 2753, "annotation": {"number": 64, "value": 0}, "group": "control_change"}, {"time": 2757, "annotation": {"number": 64, "value": 127}, "group": "control_change"}, {"time": 2801, "annotation": {"number": 64, "value": 0}, "group": "control_change"}, {"time": 2803, "annotation": {"number": 64, "value": 127}, "group": "control_change"}, {"time": 2807, "annotation": {"number": 64, "value": 127}, "group": "control_change"}, {"time": 2812, "annotation": {"number": 64, "value": 0}, "group": "control_change"}, {"time": 2815, "annotation": {"number": 64, "value": 127}, "group": "control_change"}, {"time": 2823, "annotation": {"number": 64, "value": 0}, "group": "control_change"}, {"time": 2827, "annotation": {"number": 64, "value": 127}, "group": "control_change"}, {"time": 2849, "annotation": {"number": 64, "value": 0}, "group": "control_change"}, {"time": 2853, "annotation": {"number": 64, "value": 127}, "group": "control_change"}, {"time": 2871, "annotation": {"number": 64, "value": 0}, "group": "control_change"}, {"time": 2876, "annotation": {"number": 64, "value": 127}, "group": "control_change"}, {"time": 2896, "annotation": {"number": 64, "value": 0}, "group": "control_change"}, {"time": 2902, "annotation": {"number": 64, "value": 127}, "group": "control_change"}, {"time": 2920, "annotation": {"number": 64, "value": 0}, "group": "control_change"}, {"time": 2925, "annotation": {"number": 64, "value": 127}, "group": "control_change"}, {"time": 2946, "annotation": {"number": 64, "value": 0}, "group": "control_change"}, {"time": 2950, "annotation": {"number": 64, "value": 127}, "group": "control_change"}, {"time": 2969, "annotation": {"number": 64, "value": 0}, "group": "control_change"}, {"time": 2975, "annotation": {"number": 64, "value": 127}, "group": "control_change"}, {"time": 2994, "annotation": {"number": 64, "value": 0}, "group": "control_change"}, {"time": 3000, "annotation": {"number": 64, "value": 127}, "group": "control_change"}, {"time": 3040, "annotation": {"number": 64, "value": 0}, "group": "control_change"}, {"time": 3045, "annotation": {"number": 64, "value": 127}, "group": "control_change"}, {"time": 3066, "annotation": {"number": 64, "value": 0}, "group": "control_change"}, {"time": 3072, "annotation": {"number": 64, "value": 127}, "group": "control_change"}, {"time": 3090, "annotation": {"number": 64, "value": 0}, "group": "control_change"}, {"time": 3098, "annotation": {"number": 64, "value": 127}, "group": "control_change"}, {"time": 3113, "annotation": {"number": 64, "value": 0}, "group": "control_change"}, {"time": 3119, "annotation": {"number": 64, "value": 127}, "group": "control_change"}, {"time": 3138, "annotation": {"number": 64, "value": 0}, "group": "control_change"}, {"time": 3145, "annotation": {"number": 64, "value": 127}, "group": "control_change"}, {"time": 3160, "annotation": {"number": 64, "value": 0}, "group": "control_change"}, {"time": 3166, "annotation": {"number": 64, "value": 127}, "group": "control_change"}, {"time": 3185, "annotation": {"number": 64, "value": 0}, "group": "control_change"}, {"time": 3193, "annotation": {"number": 64, "value": 127}, "group": "control_change"}, {"time": 3208, "annotation": {"number": 64, "value": 0}, "group": "control_change"}, {"time": 3215, "annotation": {"number": 64, "value": 127}, "group": "control_change"}, {"time": 3232, "annotation": {"number": 64, "value": 0}, "group": "control_change"}, {"time": 3236, "annotation": {"number": 64, "value": 127}, "group": "control_change"}, {"time": 3260, "annotation": {"number": 64, "value": 0}, "group": "control_change"}, {"time": 3266, "annotation": {"number": 64, "value": 127}, "group": "control_change"}, {"time": 3283, "annotation": {"number": 64, "value": 0}, "group": "control_change"}, {"time": 3289, "annotation": {"number": 64, "value": 127}, "group": "control_change"}, {"time": 3306, "annotation": {"number": 64, "value": 0}, "group": "control_change"}, {"time": 3312, "annotation": {"number": 64, "value": 127}, "group": "control_change"}, {"time": 3329, "annotation": {"number": 64, "value": 0}, "group": "control_change"}, {"time": 3331, "annotation": {"number": 64, "value": 127}, "group": "control_change"}, {"time": 3354, "annotation": {"number": 64, "value": 0}, "group": "control_change"}, {"time": 3361, "annotation": {"number": 64, "value": 127}, "group": "control_change"}, {"time": 3380, "annotation": {"number": 64, "value": 0}, "group": "control_change"}, {"time": 3385, "annotation": {"number": 64, "value": 127}, "group": "control_change"}, {"time": 3401, "annotation": {"number": 64, "value": 0}, "group": "control_change"}, {"time": 3407, "annotation": {"number": 64, "value": 127}, "group": "control_change"}, {"time": 3425, "annotation": {"number": 64, "value": 0}, "group": "control_change"}, {"time": 3430, "annotation": {"number": 64, "value": 127}, "group": "control_change"}, {"time": 3450, "annotation": {"number": 64, "value": 0}, "group": "control_change"}, {"time": 3455, "annotation": {"number": 64, "value": 127}, "group": "control_change"}, {"time": 3472, "annotation": {"number": 64, "value": 0}, "group": "control_change"}, {"time": 3475, "annotation": {"number": 64, "value": 127}, "group": "control_change"}, {"time": 3499, "annotation": {"number": 64, "value": 0}, "group": "control_change"}, {"time": 3506, "annotation": {"number": 64, "value": 127}, "group": "control_change"}, {"time": 3521, "annotation": {"number": 64, "value": 0}, "group": "control_change"}, {"time": 3529, "annotation": {"number": 64, "value": 127}, "group": "control_change"}, {"time": 3546, "annotation": {"number": 64, "value": 0}, "group": "control_change"}, {"time": 3551, "annotation": {"number": 64, "value": 127}, "group": "control_change"}, {"time": 3556, "annotation": {"number": 64, "value": 0}, "group": "control_change"}, {"time": 3562, "annotation": {"number": 64, "value": 127}, "group": "control_change"}, {"time": 3570, "annotation": {"number": 64, "value": 0}, "group": "control_change"}, {"time": 3578, "annotation": {"number": 64, "value": 127}, "group": "control_change"}, {"time": 3590, "annotation": {"number": 64, "value": 0}, "group": "control_change"}, {"time": 3812, "annotation": {"number": 64, "value": 127}, "group": "control_change"}, {"time": 3833, "annotation": {"number": 64, "value": 0}, "group": "control_change"}, {"time": 3838, "annotation": {"number": 64, "value": 127}, "group": "control_change"}, {"time": 3845, "annotation": {"number": 64, "value": 0}, "group": "control_change"}, {"time": 3849, "annotation": {"number": 64, "value": 127}, "group": "control_change"}, {"time": 3856, "annotation": {"number": 64, "value": 0}, "group": "control_change"}, {"time": 3860, "annotation": {"number": 64, "value": 127}, "group": "control_change"}, {"time": 3893, "annotation": {"number": 64, "value": 0}, "group": "control_change"}, {"time": 3908, "annotation": {"number": 64, "value": 127}, "group": "control_change"}, {"time": 3931, "annotation": {"number": 64, "value": 0}, "group": "control_change"}, {"time": 3935, "annotation": {"number": 64, "value": 127}, "group": "control_change"}, {"time": 3942, "annotation": {"number": 64, "value": 0}, "group": "control_change"}, {"time": 3946, "annotation": {"number": 64, "value": 127}, "group": "control_change"}, {"time": 3954, "annotation": {"number": 64, "value": 0}, "group": "control_change"}, {"time": 3955, "annotation": {"number": 64, "value": 127}, "group": "control_change"}, {"time": 3966, "annotation": {"number": 64, "value": 0}, "group": "control_change"}, {"time": 3971, "annotation": {"number": 64, "value": 127}, "group": "control_change"}, {"time": 3977, "annotation": {"number": 64, "value": 0}, "group": "control_change"}, {"time": 3994, "annotation": {"number": 64, "value": 127}, "group": "control_change"}, {"time": 4001, "annotation": {"number": 64, "value": 127}, "group": "control_change"}, {"time": 4024, "annotation": {"number": 64, "value": 0}, "group": "control_change"}, {"time": 4027, "annotation": {"number": 64, "value": 127}, "group": "control_change"}, {"time": 4036, "annotation": {"number": 64, "value": 0}, "group": "control_change"}, {"time": 4040, "annotation": {"number": 64, "value": 127}, "group": "control_change"}, {"time": 4048, "annotation": {"number": 64, "value": 0}, "group": "control_change"}, {"time": 4049, "annotation": {"number": 64, "value": 127}, "group": "control_change"}, {"time": 4050, "annotation": {"number": 64, "value": 0}, "group": "control_change"}, {"time": 4051, "annotation": {"number": 64, "value": 127}, "group": "control_change"}, {"time": 4097, "annotation": {"number": 64, "value": 0}, "group": "control_change"}, {"time": 4100, "annotation": {"number": 64, "value": 127}, "group": "control_change"}, {"time": 4122, "annotation": {"number": 64, "value": 0}, "group": "control_change"}, {"time": 4130, "annotation": {"number": 64, "value": 127}, "group": "control_change"}, {"time": 4144, "annotation": {"number": 64, "value": 0}, "group": "control_change"}, {"time": 4184, "annotation": {"number": 64, "value": 127}, "group": "control_change"}, {"time": 4194, "annotation": {"number": 64, "value": 0}, "group": "control_change"}, {"time": 4198, "annotation": {"number": 64, "value": 127}, "group": "control_change"}, {"time": 4218, "annotation": {"number": 64, "value": 0}, "group": "control_change"}, {"time": 4222, "annotation": {"number": 64, "value": 127}, "group": "control_change"}, {"time": 4241, "annotation": {"number": 64, "value": 0}, "group": "control_change"}, {"time": 4245, "annotation": {"number": 64, "value": 127}, "group": "control_change"}, {"time": 4291, "annotation": {"number": 64, "value": 127}, "group": "control_change"}, {"time": 4314, "annotation": {"number": 64, "value": 0}, "group": "control_change"}, {"time": 4318, "annotation": {"number": 64, "value": 127}, "group": "control_change"}, {"time": 4336, "annotation": {"number": 64, "value": 0}, "group": "control_change"}, {"time": 4339, "annotation": {"number": 64, "value": 127}, "group": "control_change"}, {"time": 4385, "annotation": {"number": 64, "value": 0}, "group": "control_change"}, {"time": 4391, "annotation": {"number": 64, "value": 127}, "group": "control_change"}, {"time": 4411, "annotation": {"number": 64, "value": 0}, "group": "control_change"}, {"time": 4418, "annotation": {"number": 64, "value": 127}, "group": "control_change"}, {"time": 4432, "annotation": {"number": 64, "value": 0}, "group": "control_change"}, {"time": 4437, "annotation": {"number": 64, "value": 127}, "group": "control_change"}, {"time": 4457, "annotation": {"number": 64, "value": 0}, "group": "control_change"}, {"time": 4462, "annotation": {"number": 64, "value": 127}, "group": "control_change"}, {"time": 4481, "annotation": {"number": 64, "value": 0}, "group": "control_change"}, {"time": 4485, "annotation": {"number": 64, "value": 127}, "group": "control_change"}, {"time": 4554, "annotation": {"number": 64, "value": 0}, "group": "control_change"}]}]}