{"metadata": {"schema_version": "0.2", "title": "None", "source_filename": "222.mid", "source_format": "midi"}, "resolution": 12, "tempos": [{"time": 0, "qpm": 78.000078000078}, {"time": 36, "qpm": 93.99998120000376}, {"time": 48, "qpm": 75.0}, {"time": 72, "qpm": 80.0}, {"time": 84, "qpm": 78.000078000078}, {"time": 96, "qpm": 73.99998273333736}, {"time": 108, "qpm": 80.0}, {"time": 120, "qpm": 78.000078000078}, {"time": 168, "qpm": 80.0}, {"time": 192, "qpm": 77.000077000077}, {"time": 276, "qpm": 78.9999657666815}, {"time": 300, "qpm": 77.000077000077}, {"time": 312, "qpm": 78.9999657666815}, {"time": 360, "qpm": 77.000077000077}, {"time": 408, "qpm": 73.99998273333736}, {"time": 432, "qpm": 78.000078000078}, {"time": 456, "qpm": 75.99996960001216}, {"time": 480, "qpm": 78.000078000078}, {"time": 516, "qpm": 73.99998273333736}, {"time": 528, "qpm": 75.99996960001216}, {"time": 564, "qpm": 78.000078000078}, {"time": 768, "qpm": 78.9999657666815}, {"time": 792, "qpm": 75.99996960001216}, {"time": 816, "qpm": 78.000078000078}, {"time": 840, "qpm": 84.000084000084}, {"time": 852, "qpm": 78.9999657666815}, {"time": 888, "qpm": 80.99997165000993}, {"time": 936, "qpm": 80.0}, {"time": 948, "qpm": 78.9999657666815}, {"time": 960, "qpm": 78.000078000078}, {"time": 996, "qpm": 82.00014760026568}, {"time": 1032, "qpm": 80.0}, {"time": 1152, "qpm": 80.99997165000993}, {"time": 1176, "qpm": 75.0}, {"time": 1200, "qpm": 78.9999657666815}, {"time": 1212, "qpm": 77.000077000077}, {"time": 1272, "qpm": 78.000078000078}, {"time": 1284, "qpm": 84.000084000084}, {"time": 1296, "qpm": 80.0}, {"time": 1308, "qpm": 73.99998273333736}, {"time": 1344, "qpm": 78.000078000078}, {"time": 1476, "qpm": 73.00007178340392}, {"time": 1488, "qpm": 78.000078000078}, {"time": 1500, "qpm": 75.99996960001216}, {"time": 1524, "qpm": 77.000077000077}, {"time": 1536, "qpm": 78.000078000078}, {"time": 1596, "qpm": 73.99998273333736}, {"time": 1608, "qpm": 80.0}, {"time": 1620, "qpm": 78.000078000078}, {"time": 1728, "qpm": 75.99996960001216}, {"time": 1752, "qpm": 78.000078000078}, {"time": 1776, "qpm": 80.0}, {"time": 1800, "qpm": 78.000078000078}, {"time": 1872, "qpm": 80.0}, {"time": 1884, "qpm": 77.000077000077}, {"time": 1932, "qpm": 78.000078000078}, {"time": 2016, "qpm": 77.000077000077}, {"time": 2052, "qpm": 75.99996960001216}, {"time": 2064, "qpm": 78.000078000078}, {"time": 2076, "qpm": 78.9999657666815}, {"time": 2100, "qpm": 75.99996960001216}, {"time": 2136, "qpm": 78.000078000078}, {"time": 2376, "qpm": 80.0}, {"time": 2424, "qpm": 82.00014760026568}, {"time": 2448, "qpm": 78.000078000078}, {"time": 2496, "qpm": 80.99997165000993}, {"time": 2592, "qpm": 78.9999657666815}, {"time": 2628, "qpm": 80.0}, {"time": 2676, "qpm": 77.000077000077}, {"time": 2820, "qpm": 80.99997165000993}, {"time": 2832, "qpm": 78.000078000078}, {"time": 2940, "qpm": 80.0}, {"time": 2952, "qpm": 78.000078000078}, {"time": 3012, "qpm": 77.000077000077}, {"time": 3120, "qpm": 71.00011951686785}, {"time": 3126, "qpm": 70.99692701634231}, {"time": 3132, "qpm": 70.98869505031324}, {"time": 3138, "qpm": 70.97080970596794}, {"time": 3144, "qpm": 70.93716267901289}, {"time": 3150, "qpm": 70.88034570707279}, {"time": 3156, "qpm": 70.78952739731685}, {"time": 3162, "qpm": 70.65140596297866}, {"time": 3168, "qpm": 70.44643077287954}, {"time": 3174, "qpm": 70.1524646899261}, {"time": 3180, "qpm": 69.74416677225159}, {"time": 3186, "qpm": 69.19281963046421}, {"time": 3192, "qpm": 68.47423428687509}, {"time": 3198, "qpm": 67.57761288840233}, {"time": 3204, "qpm": 66.50682858862534}, {"time": 3210, "qpm": 65.27777324459908}, {"time": 3216, "qpm": 63.91648246291513}, {"time": 3222, "qpm": 62.45491535797596}, {"time": 3228, "qpm": 60.916674112037946}, {"time": 3234, "qpm": 59.322243369503425}, {"time": 3240, "qpm": 57.69097636208395}, {"time": 3246, "qpm": 56.03580314248784}, {"time": 3252, "qpm": 54.36555398499511}, {"time": 3258, "qpm": 52.686113696633356}, {"time": 3264, "qpm": 50.99998215000625}], "time_signatures": [{"time": 0, "numerator": 4, "denominator": 4}], "tracks": [{"program": 4, "is_drum": false, "name": "MELODY", "notes": [{"time": 415, "pitch": 61, "duration": 6, "velocity": 63}, {"time": 421, "pitch": 63, "duration": 7, "velocity": 79}, {"time": 427, "pitch": 70, "duration": 6, "velocity": 90}, {"time": 433, "pitch": 68, "duration": 6, "velocity": 97}, {"time": 439, "pitch": 66, "duration": 11, "velocity": 92}, {"time": 451, "pitch": 68, "duration": 7, "velocity": 83}, {"time": 457, "pitch": 63, "duration": 6, "velocity": 93}, {"time": 463, "pitch": 61, "duration": 19, "velocity": 93}, {"time": 511, "pitch": 66, "duration": 6, "velocity": 91}, {"time": 517, "pitch": 65, "duration": 6, "velocity": 93}, {"time": 523, "pitch": 63, "duration": 5, "velocity": 89}, {"time": 529, "pitch": 63, "duration": 6, "velocity": 87}, {"time": 535, "pitch": 61, "duration": 7, "velocity": 90}, {"time": 547, "pitch": 54, "duration": 5, "velocity": 90}, {"time": 553, "pitch": 61, "duration": 6, "velocity": 93}, {"time": 559, "pitch": 58, "duration": 23, "velocity": 84}, {"time": 607, "pitch": 58, "duration": 6, "velocity": 84}, {"time": 613, "pitch": 61, "duration": 5, "velocity": 87}, {"time": 619, "pitch": 63, "duration": 5, "velocity": 87}, {"time": 625, "pitch": 66, "duration": 3, "velocity": 90}, {"time": 631, "pitch": 73, "duration": 10, "velocity": 90}, {"time": 643, "pitch": 70, "duration": 6, "velocity": 92}, {"time": 649, "pitch": 68, "duration": 4, "velocity": 88}, {"time": 653, "pitch": 66, "duration": 4, "velocity": 88}, {"time": 658, "pitch": 68, "duration": 31, "velocity": 96}, {"time": 703, "pitch": 66, "duration": 5, "velocity": 72}, {"time": 709, "pitch": 68, "duration": 6, "velocity": 87}, {"time": 715, "pitch": 70, "duration": 6, "velocity": 87}, {"time": 721, "pitch": 70, "duration": 1, "velocity": 84}, {"time": 724, "pitch": 68, "duration": 3, "velocity": 57}, {"time": 730, "pitch": 66, "duration": 8, "velocity": 79}, {"time": 739, "pitch": 65, "duration": 6, "velocity": 72}, {"time": 745, "pitch": 68, "duration": 12, "velocity": 97}, {"time": 757, "pitch": 66, "duration": 25, "velocity": 96}, {"time": 781, "pitch": 66, "duration": 1, "velocity": 109}, {"time": 787, "pitch": 65, "duration": 6, "velocity": 105}, {"time": 793, "pitch": 63, "duration": 29, "velocity": 108}, {"time": 823, "pitch": 61, "duration": 2, "velocity": 90}, {"time": 829, "pitch": 58, "duration": 5, "velocity": 95}, {"time": 835, "pitch": 61, "duration": 6, "velocity": 93}, {"time": 841, "pitch": 63, "duration": 38, "velocity": 103}, {"time": 877, "pitch": 63, "duration": 2, "velocity": 97}, {"time": 883, "pitch": 70, "duration": 5, "velocity": 99}, {"time": 889, "pitch": 68, "duration": 14, "velocity": 101}, {"time": 901, "pitch": 68, "duration": 2, "velocity": 101}, {"time": 907, "pitch": 63, "duration": 5, "velocity": 96}, {"time": 913, "pitch": 68, "duration": 7, "velocity": 100}, {"time": 919, "pitch": 65, "duration": 11, "velocity": 98}, {"time": 931, "pitch": 63, "duration": 6, "velocity": 99}, {"time": 937, "pitch": 61, "duration": 28, "velocity": 97}, {"time": 973, "pitch": 61, "duration": 5, "velocity": 91}, {"time": 979, "pitch": 66, "duration": 6, "velocity": 101}, {"time": 985, "pitch": 70, "duration": 25, "velocity": 106}, {"time": 1009, "pitch": 70, "duration": 1, "velocity": 105}, {"time": 1015, "pitch": 68, "duration": 5, "velocity": 97}, {"time": 1027, "pitch": 66, "duration": 6, "velocity": 90}, {"time": 1033, "pitch": 73, "duration": 5, "velocity": 97}, {"time": 1039, "pitch": 70, "duration": 22, "velocity": 91}, {"time": 1069, "pitch": 61, "duration": 5, "velocity": 101}, {"time": 1075, "pitch": 58, "duration": 5, "velocity": 90}, {"time": 1081, "pitch": 68, "duration": 16, "velocity": 93}, {"time": 1099, "pitch": 70, "duration": 6, "velocity": 94}, {"time": 1105, "pitch": 68, "duration": 5, "velocity": 94}, {"time": 1111, "pitch": 65, "duration": 12, "velocity": 77}, {"time": 1123, "pitch": 63, "duration": 6, "velocity": 90}, {"time": 1132, "pitch": 61, "duration": 29, "velocity": 85}, {"time": 1183, "pitch": 61, "duration": 5, "velocity": 90}, {"time": 1189, "pitch": 63, "duration": 5, "velocity": 91}, {"time": 1195, "pitch": 70, "duration": 6, "velocity": 97}, {"time": 1201, "pitch": 68, "duration": 6, "velocity": 99}, {"time": 1207, "pitch": 66, "duration": 11, "velocity": 98}, {"time": 1219, "pitch": 68, "duration": 6, "velocity": 99}, {"time": 1225, "pitch": 63, "duration": 6, "velocity": 98}, {"time": 1231, "pitch": 61, "duration": 28, "velocity": 90}, {"time": 1279, "pitch": 66, "duration": 6, "velocity": 91}, {"time": 1285, "pitch": 65, "duration": 6, "velocity": 93}, {"time": 1291, "pitch": 63, "duration": 5, "velocity": 89}, {"time": 1297, "pitch": 63, "duration": 6, "velocity": 87}, {"time": 1303, "pitch": 61, "duration": 7, "velocity": 90}, {"time": 1315, "pitch": 54, "duration": 5, "velocity": 90}, {"time": 1321, "pitch": 61, "duration": 6, "velocity": 93}, {"time": 1327, "pitch": 58, "duration": 23, "velocity": 84}, {"time": 1375, "pitch": 58, "duration": 6, "velocity": 84}, {"time": 1381, "pitch": 61, "duration": 5, "velocity": 87}, {"time": 1387, "pitch": 63, "duration": 5, "velocity": 87}, {"time": 1393, "pitch": 66, "duration": 3, "velocity": 90}, {"time": 1399, "pitch": 73, "duration": 10, "velocity": 90}, {"time": 1405, "pitch": 70, "duration": 6, "velocity": 92}, {"time": 1417, "pitch": 68, "duration": 4, "velocity": 88}, {"time": 1420, "pitch": 66, "duration": 4, "velocity": 88}, {"time": 1423, "pitch": 68, "duration": 31, "velocity": 96}, {"time": 1471, "pitch": 66, "duration": 5, "velocity": 72}, {"time": 1477, "pitch": 68, "duration": 6, "velocity": 87}, {"time": 1483, "pitch": 70, "duration": 6, "velocity": 87}, {"time": 1489, "pitch": 68, "duration": 5, "velocity": 84}, {"time": 1495, "pitch": 70, "duration": 3, "velocity": 57}, {"time": 1498, "pitch": 68, "duration": 3, "velocity": 74}, {"time": 1501, "pitch": 66, "duration": 7, "velocity": 79}, {"time": 1507, "pitch": 65, "duration": 6, "velocity": 72}, {"time": 1513, "pitch": 68, "duration": 12, "velocity": 97}, {"time": 1525, "pitch": 66, "duration": 25, "velocity": 96}, {"time": 1951, "pitch": 61, "duration": 6, "velocity": 63}, {"time": 1957, "pitch": 63, "duration": 7, "velocity": 79}, {"time": 1963, "pitch": 70, "duration": 6, "velocity": 90}, {"time": 1969, "pitch": 68, "duration": 6, "velocity": 97}, {"time": 1975, "pitch": 66, "duration": 11, "velocity": 92}, {"time": 1987, "pitch": 68, "duration": 7, "velocity": 83}, {"time": 1993, "pitch": 63, "duration": 6, "velocity": 93}, {"time": 1999, "pitch": 61, "duration": 19, "velocity": 93}, {"time": 2047, "pitch": 66, "duration": 6, "velocity": 91}, {"time": 2053, "pitch": 65, "duration": 6, "velocity": 93}, {"time": 2059, "pitch": 63, "duration": 5, "velocity": 89}, {"time": 2065, "pitch": 63, "duration": 6, "velocity": 87}, {"time": 2071, "pitch": 61, "duration": 7, "velocity": 90}, {"time": 2083, "pitch": 54, "duration": 5, "velocity": 90}, {"time": 2089, "pitch": 61, "duration": 6, "velocity": 93}, {"time": 2095, "pitch": 58, "duration": 23, "velocity": 84}, {"time": 2143, "pitch": 58, "duration": 6, "velocity": 84}, {"time": 2149, "pitch": 61, "duration": 5, "velocity": 87}, {"time": 2155, "pitch": 63, "duration": 5, "velocity": 87}, {"time": 2161, "pitch": 66, "duration": 3, "velocity": 90}, {"time": 2167, "pitch": 73, "duration": 10, "velocity": 90}, {"time": 2179, "pitch": 70, "duration": 6, "velocity": 92}, {"time": 2185, "pitch": 68, "duration": 4, "velocity": 88}, {"time": 2189, "pitch": 66, "duration": 4, "velocity": 88}, {"time": 2194, "pitch": 68, "duration": 31, "velocity": 96}, {"time": 2239, "pitch": 66, "duration": 5, "velocity": 72}, {"time": 2245, "pitch": 68, "duration": 6, "velocity": 87}, {"time": 2251, "pitch": 70, "duration": 6, "velocity": 87}, {"time": 2257, "pitch": 70, "duration": 1, "velocity": 84}, {"time": 2260, "pitch": 68, "duration": 3, "velocity": 57}, {"time": 2266, "pitch": 66, "duration": 8, "velocity": 79}, {"time": 2275, "pitch": 65, "duration": 6, "velocity": 72}, {"time": 2281, "pitch": 68, "duration": 12, "velocity": 97}, {"time": 2293, "pitch": 66, "duration": 25, "velocity": 96}, {"time": 2317, "pitch": 66, "duration": 1, "velocity": 109}, {"time": 2323, "pitch": 65, "duration": 6, "velocity": 105}, {"time": 2329, "pitch": 63, "duration": 29, "velocity": 108}, {"time": 2359, "pitch": 61, "duration": 2, "velocity": 90}, {"time": 2365, "pitch": 58, "duration": 5, "velocity": 95}, {"time": 2371, "pitch": 61, "duration": 6, "velocity": 93}, {"time": 2377, "pitch": 63, "duration": 38, "velocity": 103}, {"time": 2413, "pitch": 63, "duration": 2, "velocity": 97}, {"time": 2419, "pitch": 70, "duration": 5, "velocity": 99}, {"time": 2425, "pitch": 68, "duration": 14, "velocity": 101}, {"time": 2437, "pitch": 68, "duration": 2, "velocity": 101}, {"time": 2443, "pitch": 63, "duration": 5, "velocity": 96}, {"time": 2449, "pitch": 68, "duration": 7, "velocity": 100}, {"time": 2455, "pitch": 65, "duration": 11, "velocity": 98}, {"time": 2467, "pitch": 63, "duration": 6, "velocity": 99}, {"time": 2473, "pitch": 61, "duration": 28, "velocity": 97}, {"time": 2509, "pitch": 61, "duration": 5, "velocity": 91}, {"time": 2515, "pitch": 66, "duration": 6, "velocity": 101}, {"time": 2521, "pitch": 70, "duration": 25, "velocity": 106}, {"time": 2545, "pitch": 70, "duration": 1, "velocity": 105}, {"time": 2551, "pitch": 68, "duration": 5, "velocity": 97}, {"time": 2563, "pitch": 66, "duration": 6, "velocity": 90}, {"time": 2569, "pitch": 73, "duration": 5, "velocity": 97}, {"time": 2575, "pitch": 70, "duration": 22, "velocity": 91}, {"time": 2605, "pitch": 61, "duration": 5, "velocity": 101}, {"time": 2611, "pitch": 58, "duration": 5, "velocity": 90}, {"time": 2617, "pitch": 68, "duration": 16, "velocity": 93}, {"time": 2635, "pitch": 70, "duration": 6, "velocity": 94}, {"time": 2641, "pitch": 68, "duration": 5, "velocity": 94}, {"time": 2647, "pitch": 65, "duration": 12, "velocity": 77}, {"time": 2659, "pitch": 63, "duration": 6, "velocity": 90}, {"time": 2668, "pitch": 61, "duration": 29, "velocity": 85}, {"time": 2719, "pitch": 61, "duration": 5, "velocity": 90}, {"time": 2725, "pitch": 63, "duration": 5, "velocity": 91}, {"time": 2731, "pitch": 70, "duration": 6, "velocity": 97}, {"time": 2737, "pitch": 68, "duration": 6, "velocity": 99}, {"time": 2743, "pitch": 66, "duration": 11, "velocity": 98}, {"time": 2755, "pitch": 68, "duration": 6, "velocity": 99}, {"time": 2761, "pitch": 63, "duration": 6, "velocity": 98}, {"time": 2767, "pitch": 61, "duration": 28, "velocity": 90}, {"time": 2815, "pitch": 66, "duration": 6, "velocity": 91}, {"time": 2821, "pitch": 65, "duration": 6, "velocity": 93}, {"time": 2827, "pitch": 63, "duration": 5, "velocity": 89}, {"time": 2833, "pitch": 63, "duration": 6, "velocity": 87}, {"time": 2839, "pitch": 61, "duration": 7, "velocity": 90}, {"time": 2851, "pitch": 54, "duration": 5, "velocity": 90}, {"time": 2857, "pitch": 61, "duration": 6, "velocity": 93}, {"time": 2863, "pitch": 58, "duration": 23, "velocity": 84}, {"time": 2911, "pitch": 58, "duration": 6, "velocity": 84}, {"time": 2917, "pitch": 61, "duration": 5, "velocity": 87}, {"time": 2923, "pitch": 63, "duration": 5, "velocity": 87}, {"time": 2929, "pitch": 66, "duration": 3, "velocity": 90}, {"time": 2935, "pitch": 73, "duration": 10, "velocity": 90}, {"time": 2941, "pitch": 70, "duration": 6, "velocity": 92}, {"time": 2953, "pitch": 68, "duration": 4, "velocity": 88}, {"time": 2956, "pitch": 66, "duration": 4, "velocity": 88}, {"time": 2959, "pitch": 68, "duration": 31, "velocity": 96}, {"time": 3007, "pitch": 66, "duration": 5, "velocity": 72}, {"time": 3013, "pitch": 68, "duration": 6, "velocity": 87}, {"time": 3019, "pitch": 70, "duration": 6, "velocity": 87}, {"time": 3025, "pitch": 68, "duration": 5, "velocity": 84}, {"time": 3031, "pitch": 70, "duration": 3, "velocity": 57}, {"time": 3034, "pitch": 68, "duration": 3, "velocity": 74}, {"time": 3037, "pitch": 66, "duration": 7, "velocity": 79}, {"time": 3043, "pitch": 65, "duration": 6, "velocity": 72}, {"time": 3049, "pitch": 68, "duration": 12, "velocity": 97}, {"time": 3061, "pitch": 66, "duration": 25, "velocity": 96}], "annotations": [{"time": 876, "annotation": {"number": 1, "value": 1}, "group": "control_change"}, {"time": 2412, "annotation": {"number": 1, "value": 1}, "group": "control_change"}]}, {"program": 0, "is_drum": false, "name": "PIANO", "notes": [{"time": 25, "pitch": 54, "duration": 37, "velocity": 61}, {"time": 25, "pitch": 70, "duration": 9, "velocity": 59}, {"time": 25, "pitch": 78, "duration": 11, "velocity": 67}, {"time": 28, "pitch": 61, "duration": 32, "velocity": 46}, {"time": 34, "pitch": 66, "duration": 20, "velocity": 57}, {"time": 40, "pitch": 68, "duration": 8, "velocity": 58}, {"time": 43, "pitch": 73, "duration": 7, "velocity": 66}, {"time": 46, "pitch": 70, "duration": 13, "velocity": 60}, {"time": 58, "pitch": 68, "duration": 5, "velocity": 60}, {"time": 73, "pitch": 54, "duration": 39, "velocity": 53}, {"time": 73, "pitch": 61, "duration": 7, "velocity": 57}, {"time": 73, "pitch": 66, "duration": 6, "velocity": 56}, {"time": 79, "pitch": 58, "duration": 13, "velocity": 52}, {"time": 85, "pitch": 61, "duration": 8, "velocity": 56}, {"time": 91, "pitch": 68, "duration": 5, "velocity": 64}, {"time": 97, "pitch": 58, "duration": 4, "velocity": 40}, {"time": 97, "pitch": 61, "duration": 7, "velocity": 42}, {"time": 97, "pitch": 66, "duration": 6, "velocity": 60}, {"time": 103, "pitch": 58, "duration": 5, "velocity": 35}, {"time": 109, "pitch": 61, "duration": 4, "velocity": 63}, {"time": 109, "pitch": 65, "duration": 4, "velocity": 72}, {"time": 121, "pitch": 46, "duration": 39, "velocity": 60}, {"time": 121, "pitch": 61, "duration": 9, "velocity": 64}, {"time": 121, "pitch": 68, "duration": 19, "velocity": 67}, {"time": 127, "pitch": 53, "duration": 34, "velocity": 37}, {"time": 133, "pitch": 58, "duration": 14, "velocity": 46}, {"time": 139, "pitch": 61, "duration": 8, "velocity": 58}, {"time": 145, "pitch": 65, "duration": 11, "velocity": 72}, {"time": 157, "pitch": 58, "duration": 3, "velocity": 67}, {"time": 157, "pitch": 68, "duration": 3, "velocity": 72}, {"time": 169, "pitch": 48, "duration": 40, "velocity": 72}, {"time": 169, "pitch": 63, "duration": 9, "velocity": 61}, {"time": 169, "pitch": 66, "duration": 11, "velocity": 72}, {"time": 175, "pitch": 54, "duration": 34, "velocity": 60}, {"time": 181, "pitch": 58, "duration": 12, "velocity": 52}, {"time": 187, "pitch": 63, "duration": 8, "velocity": 69}, {"time": 193, "pitch": 70, "duration": 5, "velocity": 75}, {"time": 196, "pitch": 60, "duration": 8, "velocity": 39}, {"time": 202, "pitch": 63, "duration": 2, "velocity": 60}, {"time": 202, "pitch": 68, "duration": 1, "velocity": 57}, {"time": 208, "pitch": 66, "duration": 3, "velocity": 72}, {"time": 211, "pitch": 65, "duration": 5, "velocity": 60}, {"time": 217, "pitch": 47, "duration": 20, "velocity": 59}, {"time": 217, "pitch": 54, "duration": 15, "velocity": 60}, {"time": 217, "pitch": 59, "duration": 14, "velocity": 62}, {"time": 217, "pitch": 63, "duration": 8, "velocity": 63}, {"time": 217, "pitch": 66, "duration": 8, "velocity": 69}, {"time": 229, "pitch": 63, "duration": 7, "velocity": 56}, {"time": 229, "pitch": 66, "duration": 6, "velocity": 56}, {"time": 235, "pitch": 54, "duration": 2, "velocity": 40}, {"time": 235, "pitch": 59, "duration": 2, "velocity": 53}, {"time": 241, "pitch": 46, "duration": 21, "velocity": 70}, {"time": 241, "pitch": 58, "duration": 14, "velocity": 47}, {"time": 241, "pitch": 61, "duration": 8, "velocity": 67}, {"time": 241, "pitch": 65, "duration": 7, "velocity": 66}, {"time": 241, "pitch": 68, "duration": 6, "velocity": 63}, {"time": 253, "pitch": 61, "duration": 6, "velocity": 61}, {"time": 253, "pitch": 65, "duration": 5, "velocity": 61}, {"time": 253, "pitch": 68, "duration": 6, "velocity": 59}, {"time": 259, "pitch": 58, "duration": 2, "velocity": 53}, {"time": 265, "pitch": 44, "duration": 21, "velocity": 64}, {"time": 265, "pitch": 56, "duration": 22, "velocity": 70}, {"time": 265, "pitch": 63, "duration": 8, "velocity": 60}, {"time": 265, "pitch": 66, "duration": 7, "velocity": 70}, {"time": 265, "pitch": 71, "duration": 9, "velocity": 63}, {"time": 277, "pitch": 63, "duration": 6, "velocity": 70}, {"time": 277, "pitch": 66, "duration": 5, "velocity": 73}, {"time": 277, "pitch": 71, "duration": 6, "velocity": 72}, {"time": 289, "pitch": 47, "duration": 21, "velocity": 70}, {"time": 289, "pitch": 61, "duration": 8, "velocity": 62}, {"time": 289, "pitch": 66, "duration": 10, "velocity": 69}, {"time": 301, "pitch": 63, "duration": 6, "velocity": 64}, {"time": 301, "pitch": 68, "duration": 6, "velocity": 69}, {"time": 313, "pitch": 44, "duration": 14, "velocity": 70}, {"time": 313, "pitch": 63, "duration": 8, "velocity": 63}, {"time": 313, "pitch": 66, "duration": 8, "velocity": 69}, {"time": 325, "pitch": 63, "duration": 6, "velocity": 62}, {"time": 325, "pitch": 66, "duration": 5, "velocity": 70}, {"time": 331, "pitch": 44, "duration": 7, "velocity": 69}, {"time": 337, "pitch": 49, "duration": 14, "velocity": 69}, {"time": 337, "pitch": 61, "duration": 9, "velocity": 62}, {"time": 337, "pitch": 66, "duration": 9, "velocity": 66}, {"time": 337, "pitch": 70, "duration": 7, "velocity": 61}, {"time": 349, "pitch": 61, "duration": 5, "velocity": 70}, {"time": 349, "pitch": 66, "duration": 3, "velocity": 73}, {"time": 349, "pitch": 70, "duration": 3, "velocity": 67}, {"time": 355, "pitch": 49, "duration": 5, "velocity": 58}, {"time": 361, "pitch": 42, "duration": 43, "velocity": 70}, {"time": 361, "pitch": 58, "duration": 7, "velocity": 66}, {"time": 361, "pitch": 61, "duration": 7, "velocity": 70}, {"time": 361, "pitch": 66, "duration": 6, "velocity": 67}, {"time": 367, "pitch": 49, "duration": 12, "velocity": 48}, {"time": 373, "pitch": 59, "duration": 7, "velocity": 59}, {"time": 373, "pitch": 63, "duration": 6, "velocity": 69}, {"time": 373, "pitch": 66, "duration": 5, "velocity": 28}, {"time": 379, "pitch": 54, "duration": 24, "velocity": 43}, {"time": 385, "pitch": 49, "duration": 22, "velocity": 58}, {"time": 385, "pitch": 58, "duration": 8, "velocity": 49}, {"time": 385, "pitch": 61, "duration": 8, "velocity": 66}, {"time": 385, "pitch": 66, "duration": 8, "velocity": 66}, {"time": 397, "pitch": 61, "duration": 4, "velocity": 67}, {"time": 400, "pitch": 63, "duration": 2, "velocity": 69}, {"time": 403, "pitch": 66, "duration": 3, "velocity": 70}, {"time": 409, "pitch": 42, "duration": 43, "velocity": 66}, {"time": 409, "pitch": 54, "duration": 15, "velocity": 63}, {"time": 409, "pitch": 61, "duration": 8, "velocity": 64}, {"time": 409, "pitch": 66, "duration": 8, "velocity": 67}, {"time": 409, "pitch": 68, "duration": 8, "velocity": 64}, {"time": 409, "pitch": 70, "duration": 7, "velocity": 61}, {"time": 421, "pitch": 61, "duration": 7, "velocity": 55}, {"time": 421, "pitch": 66, "duration": 6, "velocity": 56}, {"time": 421, "pitch": 68, "duration": 6, "velocity": 60}, {"time": 421, "pitch": 70, "duration": 6, "velocity": 55}, {"time": 427, "pitch": 54, "duration": 9, "velocity": 31}, {"time": 433, "pitch": 61, "duration": 5, "velocity": 58}, {"time": 433, "pitch": 66, "duration": 6, "velocity": 53}, {"time": 433, "pitch": 68, "duration": 6, "velocity": 58}, {"time": 433, "pitch": 70, "duration": 5, "velocity": 44}, {"time": 439, "pitch": 54, "duration": 8, "velocity": 27}, {"time": 445, "pitch": 61, "duration": 4, "velocity": 69}, {"time": 445, "pitch": 66, "duration": 4, "velocity": 72}, {"time": 445, "pitch": 68, "duration": 5, "velocity": 72}, {"time": 445, "pitch": 70, "duration": 4, "velocity": 67}, {"time": 451, "pitch": 54, "duration": 2, "velocity": 62}, {"time": 457, "pitch": 41, "duration": 42, "velocity": 55}, {"time": 457, "pitch": 53, "duration": 14, "velocity": 54}, {"time": 457, "pitch": 61, "duration": 8, "velocity": 67}, {"time": 457, "pitch": 65, "duration": 8, "velocity": 69}, {"time": 457, "pitch": 68, "duration": 8, "velocity": 64}, {"time": 457, "pitch": 73, "duration": 8, "velocity": 64}, {"time": 469, "pitch": 61, "duration": 6, "velocity": 54}, {"time": 469, "pitch": 65, "duration": 6, "velocity": 59}, {"time": 469, "pitch": 68, "duration": 6, "velocity": 60}, {"time": 469, "pitch": 73, "duration": 6, "velocity": 45}, {"time": 475, "pitch": 53, "duration": 7, "velocity": 35}, {"time": 481, "pitch": 61, "duration": 8, "velocity": 43}, {"time": 481, "pitch": 65, "duration": 9, "velocity": 46}, {"time": 481, "pitch": 68, "duration": 9, "velocity": 50}, {"time": 481, "pitch": 73, "duration": 10, "velocity": 41}, {"time": 490, "pitch": 53, "duration": 6, "velocity": 27}, {"time": 493, "pitch": 61, "duration": 5, "velocity": 67}, {"time": 493, "pitch": 65, "duration": 5, "velocity": 69}, {"time": 493, "pitch": 68, "duration": 5, "velocity": 70}, {"time": 493, "pitch": 73, "duration": 9, "velocity": 54}, {"time": 499, "pitch": 53, "duration": 1, "velocity": 49}, {"time": 505, "pitch": 51, "duration": 40, "velocity": 66}, {"time": 505, "pitch": 58, "duration": 25, "velocity": 61}, {"time": 505, "pitch": 61, "duration": 6, "velocity": 67}, {"time": 505, "pitch": 66, "duration": 6, "velocity": 70}, {"time": 505, "pitch": 70, "duration": 6, "velocity": 64}, {"time": 517, "pitch": 61, "duration": 5, "velocity": 58}, {"time": 517, "pitch": 66, "duration": 6, "velocity": 57}, {"time": 517, "pitch": 70, "duration": 6, "velocity": 58}, {"time": 529, "pitch": 61, "duration": 6, "velocity": 57}, {"time": 529, "pitch": 66, "duration": 6, "velocity": 55}, {"time": 529, "pitch": 70, "duration": 5, "velocity": 51}, {"time": 535, "pitch": 58, "duration": 7, "velocity": 48}, {"time": 541, "pitch": 61, "duration": 4, "velocity": 73}, {"time": 541, "pitch": 66, "duration": 5, "velocity": 73}, {"time": 541, "pitch": 70, "duration": 5, "velocity": 75}, {"time": 547, "pitch": 58, "duration": 2, "velocity": 58}, {"time": 553, "pitch": 46, "duration": 43, "velocity": 66}, {"time": 553, "pitch": 61, "duration": 6, "velocity": 69}, {"time": 553, "pitch": 65, "duration": 6, "velocity": 69}, {"time": 553, "pitch": 68, "duration": 5, "velocity": 64}, {"time": 559, "pitch": 53, "duration": 6, "velocity": 37}, {"time": 565, "pitch": 58, "duration": 13, "velocity": 41}, {"time": 565, "pitch": 61, "duration": 5, "velocity": 51}, {"time": 565, "pitch": 65, "duration": 5, "velocity": 54}, {"time": 565, "pitch": 68, "duration": 5, "velocity": 57}, {"time": 571, "pitch": 53, "duration": 20, "velocity": 30}, {"time": 577, "pitch": 61, "duration": 6, "velocity": 49}, {"time": 577, "pitch": 65, "duration": 6, "velocity": 56}, {"time": 577, "pitch": 68, "duration": 5, "velocity": 51}, {"time": 583, "pitch": 58, "duration": 8, "velocity": 31}, {"time": 589, "pitch": 61, "duration": 4, "velocity": 69}, {"time": 589, "pitch": 65, "duration": 4, "velocity": 76}, {"time": 589, "pitch": 68, "duration": 4, "velocity": 76}, {"time": 595, "pitch": 58, "duration": 1, "velocity": 31}, {"time": 601, "pitch": 47, "duration": 38, "velocity": 75}, {"time": 601, "pitch": 63, "duration": 7, "velocity": 67}, {"time": 601, "pitch": 66, "duration": 6, "velocity": 73}, {"time": 601, "pitch": 71, "duration": 7, "velocity": 69}, {"time": 607, "pitch": 54, "duration": 6, "velocity": 27}, {"time": 613, "pitch": 59, "duration": 13, "velocity": 59}, {"time": 613, "pitch": 63, "duration": 6, "velocity": 59}, {"time": 613, "pitch": 66, "duration": 5, "velocity": 69}, {"time": 613, "pitch": 71, "duration": 7, "velocity": 57}, {"time": 619, "pitch": 54, "duration": 16, "velocity": 27}, {"time": 625, "pitch": 63, "duration": 6, "velocity": 59}, {"time": 625, "pitch": 66, "duration": 6, "velocity": 69}, {"time": 625, "pitch": 71, "duration": 7, "velocity": 57}, {"time": 631, "pitch": 59, "duration": 8, "velocity": 36}, {"time": 637, "pitch": 63, "duration": 4, "velocity": 70}, {"time": 637, "pitch": 66, "duration": 4, "velocity": 78}, {"time": 637, "pitch": 71, "duration": 5, "velocity": 67}, {"time": 643, "pitch": 47, "duration": 1, "velocity": 57}, {"time": 643, "pitch": 54, "duration": 1, "velocity": 61}, {"time": 649, "pitch": 40, "duration": 35, "velocity": 72}, {"time": 649, "pitch": 64, "duration": 7, "velocity": 75}, {"time": 649, "pitch": 68, "duration": 6, "velocity": 75}, {"time": 649, "pitch": 71, "duration": 5, "velocity": 67}, {"time": 655, "pitch": 52, "duration": 10, "velocity": 45}, {"time": 661, "pitch": 64, "duration": 7, "velocity": 58}, {"time": 661, "pitch": 68, "duration": 6, "velocity": 67}, {"time": 661, "pitch": 71, "duration": 8, "velocity": 57}, {"time": 667, "pitch": 52, "duration": 10, "velocity": 36}, {"time": 673, "pitch": 64, "duration": 7, "velocity": 67}, {"time": 673, "pitch": 68, "duration": 6, "velocity": 72}, {"time": 673, "pitch": 71, "duration": 7, "velocity": 52}, {"time": 679, "pitch": 52, "duration": 9, "velocity": 42}, {"time": 685, "pitch": 64, "duration": 8, "velocity": 82}, {"time": 685, "pitch": 68, "duration": 4, "velocity": 82}, {"time": 685, "pitch": 71, "duration": 4, "velocity": 80}, {"time": 688, "pitch": 40, "duration": 5, "velocity": 69}, {"time": 691, "pitch": 52, "duration": 3, "velocity": 64}, {"time": 694, "pitch": 71, "duration": 2, "velocity": 47}, {"time": 697, "pitch": 37, "duration": 19, "velocity": 66}, {"time": 697, "pitch": 49, "duration": 4, "velocity": 54}, {"time": 697, "pitch": 61, "duration": 9, "velocity": 67}, {"time": 697, "pitch": 66, "duration": 8, "velocity": 73}, {"time": 697, "pitch": 68, "duration": 9, "velocity": 72}, {"time": 697, "pitch": 73, "duration": 9, "velocity": 64}, {"time": 703, "pitch": 49, "duration": 7, "velocity": 30}, {"time": 709, "pitch": 61, "duration": 6, "velocity": 66}, {"time": 709, "pitch": 66, "duration": 6, "velocity": 69}, {"time": 709, "pitch": 73, "duration": 7, "velocity": 63}, {"time": 715, "pitch": 49, "duration": 7, "velocity": 42}, {"time": 721, "pitch": 37, "duration": 18, "velocity": 69}, {"time": 721, "pitch": 61, "duration": 6, "velocity": 75}, {"time": 721, "pitch": 65, "duration": 5, "velocity": 76}, {"time": 721, "pitch": 68, "duration": 4, "velocity": 73}, {"time": 727, "pitch": 49, "duration": 7, "velocity": 43}, {"time": 733, "pitch": 61, "duration": 6, "velocity": 78}, {"time": 733, "pitch": 66, "duration": 7, "velocity": 82}, {"time": 733, "pitch": 70, "duration": 3, "velocity": 75}, {"time": 739, "pitch": 49, "duration": 2, "velocity": 73}, {"time": 745, "pitch": 42, "duration": 18, "velocity": 73}, {"time": 745, "pitch": 54, "duration": 4, "velocity": 76}, {"time": 745, "pitch": 61, "duration": 6, "velocity": 75}, {"time": 745, "pitch": 66, "duration": 7, "velocity": 78}, {"time": 745, "pitch": 70, "duration": 7, "velocity": 76}, {"time": 751, "pitch": 54, "duration": 5, "velocity": 44}, {"time": 757, "pitch": 61, "duration": 1, "velocity": 75}, {"time": 757, "pitch": 66, "duration": 1, "velocity": 72}, {"time": 757, "pitch": 70, "duration": 2, "velocity": 75}, {"time": 760, "pitch": 54, "duration": 2, "velocity": 60}, {"time": 760, "pitch": 61, "duration": 1, "velocity": 70}, {"time": 760, "pitch": 66, "duration": 1, "velocity": 73}, {"time": 760, "pitch": 70, "duration": 2, "velocity": 75}, {"time": 766, "pitch": 63, "duration": 4, "velocity": 72}, {"time": 766, "pitch": 66, "duration": 4, "velocity": 76}, {"time": 766, "pitch": 71, "duration": 4, "velocity": 78}, {"time": 769, "pitch": 41, "duration": 19, "velocity": 51}, {"time": 769, "pitch": 53, "duration": 5, "velocity": 61}, {"time": 772, "pitch": 61, "duration": 3, "velocity": 91}, {"time": 772, "pitch": 68, "duration": 3, "velocity": 64}, {"time": 772, "pitch": 69, "duration": 2, "velocity": 66}, {"time": 778, "pitch": 53, "duration": 5, "velocity": 48}, {"time": 781, "pitch": 62, "duration": 6, "velocity": 91}, {"time": 781, "pitch": 65, "duration": 4, "velocity": 85}, {"time": 781, "pitch": 70, "duration": 6, "velocity": 80}, {"time": 787, "pitch": 53, "duration": 1, "velocity": 76}, {"time": 793, "pitch": 39, "duration": 43, "velocity": 60}, {"time": 793, "pitch": 51, "duration": 4, "velocity": 72}, {"time": 793, "pitch": 58, "duration": 7, "velocity": 80}, {"time": 793, "pitch": 61, "duration": 8, "velocity": 85}, {"time": 793, "pitch": 66, "duration": 8, "velocity": 78}, {"time": 799, "pitch": 51, "duration": 4, "velocity": 45}, {"time": 805, "pitch": 58, "duration": 2, "velocity": 78}, {"time": 805, "pitch": 61, "duration": 1, "velocity": 80}, {"time": 805, "pitch": 66, "duration": 3, "velocity": 82}, {"time": 808, "pitch": 51, "duration": 5, "velocity": 44}, {"time": 811, "pitch": 56, "duration": 2, "velocity": 75}, {"time": 811, "pitch": 65, "duration": 3, "velocity": 82}, {"time": 814, "pitch": 58, "duration": 2, "velocity": 76}, {"time": 814, "pitch": 61, "duration": 1, "velocity": 82}, {"time": 814, "pitch": 66, "duration": 2, "velocity": 69}, {"time": 817, "pitch": 51, "duration": 3, "velocity": 44}, {"time": 820, "pitch": 58, "duration": 3, "velocity": 76}, {"time": 820, "pitch": 65, "duration": 4, "velocity": 80}, {"time": 823, "pitch": 51, "duration": 6, "velocity": 46}, {"time": 829, "pitch": 58, "duration": 4, "velocity": 82}, {"time": 829, "pitch": 61, "duration": 5, "velocity": 80}, {"time": 829, "pitch": 66, "duration": 5, "velocity": 63}, {"time": 835, "pitch": 51, "duration": 2, "velocity": 61}, {"time": 838, "pitch": 51, "duration": 1, "velocity": 40}, {"time": 838, "pitch": 58, "duration": 3, "velocity": 44}, {"time": 838, "pitch": 61, "duration": 1, "velocity": 49}, {"time": 841, "pitch": 39, "duration": 18, "velocity": 85}, {"time": 841, "pitch": 58, "duration": 1, "velocity": 76}, {"time": 841, "pitch": 61, "duration": 1, "velocity": 78}, {"time": 841, "pitch": 66, "duration": 2, "velocity": 78}, {"time": 847, "pitch": 51, "duration": 6, "velocity": 75}, {"time": 850, "pitch": 61, "duration": 2, "velocity": 85}, {"time": 853, "pitch": 66, "duration": 3, "velocity": 93}, {"time": 856, "pitch": 68, "duration": 2, "velocity": 56}, {"time": 859, "pitch": 51, "duration": 1, "velocity": 58}, {"time": 862, "pitch": 39, "duration": 17, "velocity": 73}, {"time": 862, "pitch": 51, "duration": 6, "velocity": 70}, {"time": 862, "pitch": 61, "duration": 3, "velocity": 59}, {"time": 862, "pitch": 70, "duration": 5, "velocity": 93}, {"time": 862, "pitch": 71, "duration": 1, "velocity": 97}, {"time": 868, "pitch": 61, "duration": 3, "velocity": 64}, {"time": 868, "pitch": 68, "duration": 4, "velocity": 66}, {"time": 871, "pitch": 51, "duration": 3, "velocity": 78}, {"time": 874, "pitch": 61, "duration": 4, "velocity": 88}, {"time": 874, "pitch": 66, "duration": 4, "velocity": 101}, {"time": 877, "pitch": 51, "duration": 3, "velocity": 95}, {"time": 880, "pitch": 61, "duration": 2, "velocity": 82}, {"time": 883, "pitch": 66, "duration": 3, "velocity": 82}, {"time": 886, "pitch": 68, "duration": 2, "velocity": 69}, {"time": 889, "pitch": 44, "duration": 16, "velocity": 70}, {"time": 889, "pitch": 56, "duration": 4, "velocity": 85}, {"time": 889, "pitch": 63, "duration": 7, "velocity": 78}, {"time": 889, "pitch": 66, "duration": 7, "velocity": 91}, {"time": 889, "pitch": 71, "duration": 6, "velocity": 85}, {"time": 895, "pitch": 56, "duration": 5, "velocity": 67}, {"time": 901, "pitch": 63, "duration": 3, "velocity": 93}, {"time": 901, "pitch": 66, "duration": 3, "velocity": 97}, {"time": 901, "pitch": 71, "duration": 3, "velocity": 91}, {"time": 904, "pitch": 56, "duration": 2, "velocity": 78}, {"time": 907, "pitch": 68, "duration": 3, "velocity": 66}, {"time": 910, "pitch": 70, "duration": 2, "velocity": 67}, {"time": 913, "pitch": 37, "duration": 17, "velocity": 72}, {"time": 913, "pitch": 49, "duration": 4, "velocity": 66}, {"time": 913, "pitch": 61, "duration": 6, "velocity": 75}, {"time": 913, "pitch": 66, "duration": 6, "velocity": 78}, {"time": 913, "pitch": 68, "duration": 6, "velocity": 73}, {"time": 919, "pitch": 49, "duration": 3, "velocity": 44}, {"time": 922, "pitch": 61, "duration": 5, "velocity": 72}, {"time": 922, "pitch": 68, "duration": 6, "velocity": 72}, {"time": 925, "pitch": 49, "duration": 6, "velocity": 44}, {"time": 931, "pitch": 66, "duration": 3, "velocity": 72}, {"time": 934, "pitch": 68, "duration": 2, "velocity": 67}, {"time": 937, "pitch": 42, "duration": 40, "velocity": 76}, {"time": 937, "pitch": 61, "duration": 4, "velocity": 73}, {"time": 937, "pitch": 66, "duration": 3, "velocity": 67}, {"time": 937, "pitch": 70, "duration": 5, "velocity": 70}, {"time": 943, "pitch": 49, "duration": 22, "velocity": 50}, {"time": 946, "pitch": 61, "duration": 2, "velocity": 82}, {"time": 946, "pitch": 73, "duration": 4, "velocity": 80}, {"time": 949, "pitch": 54, "duration": 3, "velocity": 61}, {"time": 952, "pitch": 61, "duration": 2, "velocity": 76}, {"time": 952, "pitch": 71, "duration": 2, "velocity": 97}, {"time": 952, "pitch": 73, "duration": 1, "velocity": 63}, {"time": 955, "pitch": 54, "duration": 3, "velocity": 53}, {"time": 958, "pitch": 61, "duration": 6, "velocity": 64}, {"time": 958, "pitch": 70, "duration": 7, "velocity": 48}, {"time": 964, "pitch": 54, "duration": 2, "velocity": 55}, {"time": 967, "pitch": 61, "duration": 3, "velocity": 60}, {"time": 970, "pitch": 49, "duration": 3, "velocity": 13}, {"time": 970, "pitch": 54, "duration": 7, "velocity": 82}, {"time": 973, "pitch": 61, "duration": 3, "velocity": 88}, {"time": 973, "pitch": 66, "duration": 4, "velocity": 95}, {"time": 976, "pitch": 49, "duration": 2, "velocity": 69}, {"time": 979, "pitch": 61, "duration": 4, "velocity": 67}, {"time": 985, "pitch": 46, "duration": 19, "velocity": 73}, {"time": 985, "pitch": 58, "duration": 5, "velocity": 91}, {"time": 985, "pitch": 61, "duration": 7, "velocity": 91}, {"time": 985, "pitch": 65, "duration": 8, "velocity": 93}, {"time": 985, "pitch": 68, "duration": 6, "velocity": 78}, {"time": 994, "pitch": 58, "duration": 6, "velocity": 45}, {"time": 997, "pitch": 61, "duration": 4, "velocity": 85}, {"time": 997, "pitch": 65, "duration": 4, "velocity": 78}, {"time": 997, "pitch": 68, "duration": 6, "velocity": 80}, {"time": 1003, "pitch": 58, "duration": 2, "velocity": 60}, {"time": 1006, "pitch": 46, "duration": 1, "velocity": 60}, {"time": 1006, "pitch": 58, "duration": 1, "velocity": 75}, {"time": 1006, "pitch": 61, "duration": 1, "velocity": 75}, {"time": 1006, "pitch": 65, "duration": 1, "velocity": 63}, {"time": 1006, "pitch": 70, "duration": 1, "velocity": 69}, {"time": 1012, "pitch": 46, "duration": 16, "velocity": 63}, {"time": 1012, "pitch": 58, "duration": 3, "velocity": 67}, {"time": 1012, "pitch": 62, "duration": 6, "velocity": 99}, {"time": 1012, "pitch": 65, "duration": 7, "velocity": 80}, {"time": 1012, "pitch": 70, "duration": 7, "velocity": 73}, {"time": 1018, "pitch": 58, "duration": 4, "velocity": 76}, {"time": 1021, "pitch": 62, "duration": 4, "velocity": 97}, {"time": 1021, "pitch": 65, "duration": 2, "velocity": 88}, {"time": 1021, "pitch": 68, "duration": 4, "velocity": 80}, {"time": 1024, "pitch": 58, "duration": 3, "velocity": 72}, {"time": 1027, "pitch": 50, "duration": 2, "velocity": 82}, {"time": 1033, "pitch": 39, "duration": 34, "velocity": 80}, {"time": 1033, "pitch": 58, "duration": 7, "velocity": 80}, {"time": 1033, "pitch": 61, "duration": 6, "velocity": 80}, {"time": 1033, "pitch": 66, "duration": 7, "velocity": 78}, {"time": 1039, "pitch": 51, "duration": 3, "velocity": 49}, {"time": 1042, "pitch": 56, "duration": 2, "velocity": 78}, {"time": 1042, "pitch": 65, "duration": 5, "velocity": 75}, {"time": 1045, "pitch": 51, "duration": 3, "velocity": 47}, {"time": 1048, "pitch": 61, "duration": 1, "velocity": 82}, {"time": 1048, "pitch": 66, "duration": 2, "velocity": 72}, {"time": 1051, "pitch": 51, "duration": 4, "velocity": 72}, {"time": 1054, "pitch": 61, "duration": 2, "velocity": 70}, {"time": 1054, "pitch": 68, "duration": 1, "velocity": 64}, {"time": 1054, "pitch": 70, "duration": 2, "velocity": 60}, {"time": 1057, "pitch": 51, "duration": 3, "velocity": 56}, {"time": 1057, "pitch": 68, "duration": 1, "velocity": 43}, {"time": 1060, "pitch": 61, "duration": 2, "velocity": 76}, {"time": 1060, "pitch": 70, "duration": 5, "velocity": 66}, {"time": 1066, "pitch": 51, "duration": 6, "velocity": 88}, {"time": 1069, "pitch": 61, "duration": 3, "velocity": 95}, {"time": 1072, "pitch": 63, "duration": 4, "velocity": 82}, {"time": 1075, "pitch": 65, "duration": 4, "velocity": 76}, {"time": 1078, "pitch": 66, "duration": 2, "velocity": 88}, {"time": 1081, "pitch": 44, "duration": 19, "velocity": 69}, {"time": 1081, "pitch": 56, "duration": 5, "velocity": 76}, {"time": 1081, "pitch": 59, "duration": 9, "velocity": 95}, {"time": 1081, "pitch": 66, "duration": 8, "velocity": 93}, {"time": 1081, "pitch": 67, "duration": 1, "velocity": 75}, {"time": 1087, "pitch": 56, "duration": 6, "velocity": 38}, {"time": 1093, "pitch": 59, "duration": 6, "velocity": 103}, {"time": 1093, "pitch": 66, "duration": 6, "velocity": 82}, {"time": 1099, "pitch": 56, "duration": 4, "velocity": 56}, {"time": 1105, "pitch": 44, "duration": 16, "velocity": 72}, {"time": 1105, "pitch": 56, "duration": 3, "velocity": 80}, {"time": 1105, "pitch": 60, "duration": 9, "velocity": 88}, {"time": 1105, "pitch": 63, "duration": 8, "velocity": 82}, {"time": 1105, "pitch": 66, "duration": 8, "velocity": 85}, {"time": 1114, "pitch": 56, "duration": 7, "velocity": 44}, {"time": 1117, "pitch": 60, "duration": 3, "velocity": 97}, {"time": 1117, "pitch": 63, "duration": 3, "velocity": 80}, {"time": 1117, "pitch": 66, "duration": 3, "velocity": 80}, {"time": 1120, "pitch": 51, "duration": 2, "velocity": 70}, {"time": 1123, "pitch": 61, "duration": 4, "velocity": 67}, {"time": 1126, "pitch": 63, "duration": 2, "velocity": 70}, {"time": 1129, "pitch": 37, "duration": 34, "velocity": 72}, {"time": 1129, "pitch": 49, "duration": 3, "velocity": 78}, {"time": 1129, "pitch": 56, "duration": 5, "velocity": 88}, {"time": 1129, "pitch": 61, "duration": 5, "velocity": 80}, {"time": 1129, "pitch": 65, "duration": 6, "velocity": 75}, {"time": 1135, "pitch": 49, "duration": 3, "velocity": 52}, {"time": 1138, "pitch": 58, "duration": 2, "velocity": 78}, {"time": 1138, "pitch": 61, "duration": 2, "velocity": 75}, {"time": 1138, "pitch": 66, "duration": 2, "velocity": 82}, {"time": 1141, "pitch": 49, "duration": 3, "velocity": 66}, {"time": 1144, "pitch": 61, "duration": 1, "velocity": 97}, {"time": 1144, "pitch": 68, "duration": 2, "velocity": 85}, {"time": 1150, "pitch": 49, "duration": 14, "velocity": 69}, {"time": 1153, "pitch": 61, "duration": 2, "velocity": 88}, {"time": 1156, "pitch": 63, "duration": 4, "velocity": 61}, {"time": 1159, "pitch": 65, "duration": 2, "velocity": 75}, {"time": 1162, "pitch": 66, "duration": 3, "velocity": 82}, {"time": 1165, "pitch": 68, "duration": 5, "velocity": 64}, {"time": 1168, "pitch": 70, "duration": 4, "velocity": 61}, {"time": 1171, "pitch": 71, "duration": 4, "velocity": 66}, {"time": 1174, "pitch": 73, "duration": 12, "velocity": 67}, {"time": 1177, "pitch": 42, "duration": 44, "velocity": 59}, {"time": 1177, "pitch": 54, "duration": 38, "velocity": 55}, {"time": 1177, "pitch": 61, "duration": 9, "velocity": 51}, {"time": 1177, "pitch": 66, "duration": 9, "velocity": 45}, {"time": 1177, "pitch": 70, "duration": 9, "velocity": 51}, {"time": 1189, "pitch": 61, "duration": 7, "velocity": 54}, {"time": 1189, "pitch": 66, "duration": 7, "velocity": 67}, {"time": 1189, "pitch": 70, "duration": 7, "velocity": 61}, {"time": 1201, "pitch": 61, "duration": 7, "velocity": 46}, {"time": 1201, "pitch": 66, "duration": 7, "velocity": 55}, {"time": 1201, "pitch": 70, "duration": 7, "velocity": 47}, {"time": 1213, "pitch": 61, "duration": 5, "velocity": 67}, {"time": 1213, "pitch": 66, "duration": 6, "velocity": 72}, {"time": 1213, "pitch": 70, "duration": 6, "velocity": 66}, {"time": 1219, "pitch": 54, "duration": 2, "velocity": 59}, {"time": 1225, "pitch": 46, "duration": 40, "velocity": 69}, {"time": 1225, "pitch": 61, "duration": 6, "velocity": 69}, {"time": 1225, "pitch": 65, "duration": 6, "velocity": 72}, {"time": 1225, "pitch": 68, "duration": 6, "velocity": 70}, {"time": 1231, "pitch": 58, "duration": 15, "velocity": 28}, {"time": 1237, "pitch": 61, "duration": 5, "velocity": 75}, {"time": 1243, "pitch": 63, "duration": 5, "velocity": 57}, {"time": 1246, "pitch": 65, "duration": 2, "velocity": 64}, {"time": 1249, "pitch": 58, "duration": 4, "velocity": 57}, {"time": 1249, "pitch": 61, "duration": 7, "velocity": 69}, {"time": 1249, "pitch": 66, "duration": 10, "velocity": 70}, {"time": 1255, "pitch": 58, "duration": 6, "velocity": 33}, {"time": 1261, "pitch": 61, "duration": 3, "velocity": 78}, {"time": 1261, "pitch": 68, "duration": 4, "velocity": 85}, {"time": 1264, "pitch": 58, "duration": 3, "velocity": 62}, {"time": 1267, "pitch": 61, "duration": 4, "velocity": 63}, {"time": 1270, "pitch": 65, "duration": 4, "velocity": 57}, {"time": 1273, "pitch": 51, "duration": 41, "velocity": 69}, {"time": 1273, "pitch": 68, "duration": 6, "velocity": 63}, {"time": 1279, "pitch": 58, "duration": 7, "velocity": 56}, {"time": 1285, "pitch": 63, "duration": 6, "velocity": 49}, {"time": 1285, "pitch": 66, "duration": 5, "velocity": 73}, {"time": 1285, "pitch": 70, "duration": 5, "velocity": 66}, {"time": 1291, "pitch": 58, "duration": 7, "velocity": 56}, {"time": 1291, "pitch": 65, "duration": 4, "velocity": 56}, {"time": 1291, "pitch": 68, "duration": 6, "velocity": 70}, {"time": 1297, "pitch": 63, "duration": 12, "velocity": 57}, {"time": 1297, "pitch": 66, "duration": 6, "velocity": 73}, {"time": 1297, "pitch": 73, "duration": 8, "velocity": 76}, {"time": 1303, "pitch": 58, "duration": 6, "velocity": 36}, {"time": 1309, "pitch": 66, "duration": 6, "velocity": 91}, {"time": 1309, "pitch": 70, "duration": 6, "velocity": 80}, {"time": 1315, "pitch": 58, "duration": 2, "velocity": 73}, {"time": 1321, "pitch": 46, "duration": 11, "velocity": 70}, {"time": 1321, "pitch": 61, "duration": 7, "velocity": 69}, {"time": 1321, "pitch": 65, "duration": 8, "velocity": 70}, {"time": 1321, "pitch": 68, "duration": 8, "velocity": 69}, {"time": 1327, "pitch": 53, "duration": 6, "velocity": 45}, {"time": 1333, "pitch": 56, "duration": 7, "velocity": 70}, {"time": 1339, "pitch": 58, "duration": 12, "velocity": 70}, {"time": 1345, "pitch": 61, "duration": 13, "velocity": 72}, {"time": 1345, "pitch": 68, "duration": 6, "velocity": 66}, {"time": 1351, "pitch": 66, "duration": 6, "velocity": 63}, {"time": 1357, "pitch": 58, "duration": 4, "velocity": 64}, {"time": 1357, "pitch": 65, "duration": 5, "velocity": 62}, {"time": 1363, "pitch": 68, "duration": 5, "velocity": 62}, {"time": 1369, "pitch": 47, "duration": 41, "velocity": 62}, {"time": 1369, "pitch": 63, "duration": 6, "velocity": 67}, {"time": 1369, "pitch": 66, "duration": 6, "velocity": 73}, {"time": 1375, "pitch": 54, "duration": 7, "velocity": 45}, {"time": 1381, "pitch": 59, "duration": 7, "velocity": 66}, {"time": 1381, "pitch": 61, "duration": 6, "velocity": 63}, {"time": 1381, "pitch": 68, "duration": 7, "velocity": 69}, {"time": 1387, "pitch": 54, "duration": 16, "velocity": 56}, {"time": 1387, "pitch": 70, "duration": 3, "velocity": 70}, {"time": 1393, "pitch": 59, "duration": 9, "velocity": 66}, {"time": 1393, "pitch": 63, "duration": 5, "velocity": 61}, {"time": 1393, "pitch": 71, "duration": 5, "velocity": 66}, {"time": 1402, "pitch": 63, "duration": 6, "velocity": 53}, {"time": 1402, "pitch": 66, "duration": 5, "velocity": 60}, {"time": 1402, "pitch": 73, "duration": 6, "velocity": 64}, {"time": 1405, "pitch": 54, "duration": 3, "velocity": 34}, {"time": 1405, "pitch": 59, "duration": 3, "velocity": 61}, {"time": 1411, "pitch": 73, "duration": 2, "velocity": 63}, {"time": 1417, "pitch": 40, "duration": 40, "velocity": 75}, {"time": 1417, "pitch": 52, "duration": 7, "velocity": 78}, {"time": 1417, "pitch": 56, "duration": 7, "velocity": 67}, {"time": 1417, "pitch": 59, "duration": 7, "velocity": 73}, {"time": 1417, "pitch": 64, "duration": 8, "velocity": 75}, {"time": 1426, "pitch": 56, "duration": 5, "velocity": 76}, {"time": 1429, "pitch": 52, "duration": 7, "velocity": 55}, {"time": 1435, "pitch": 59, "duration": 4, "velocity": 66}, {"time": 1438, "pitch": 64, "duration": 2, "velocity": 45}, {"time": 1441, "pitch": 52, "duration": 2, "velocity": 91}, {"time": 1441, "pitch": 56, "duration": 3, "velocity": 80}, {"time": 1441, "pitch": 59, "duration": 1, "velocity": 67}, {"time": 1441, "pitch": 66, "duration": 3, "velocity": 69}, {"time": 1447, "pitch": 52, "duration": 2, "velocity": 24}, {"time": 1450, "pitch": 68, "duration": 4, "velocity": 99}, {"time": 1453, "pitch": 52, "duration": 2, "velocity": 76}, {"time": 1459, "pitch": 70, "duration": 3, "velocity": 93}, {"time": 1462, "pitch": 68, "duration": 3, "velocity": 63}, {"time": 1465, "pitch": 37, "duration": 5, "velocity": 69}, {"time": 1465, "pitch": 65, "duration": 7, "velocity": 80}, {"time": 1471, "pitch": 49, "duration": 7, "velocity": 56}, {"time": 1477, "pitch": 53, "duration": 5, "velocity": 60}, {"time": 1477, "pitch": 63, "duration": 5, "velocity": 82}, {"time": 1483, "pitch": 61, "duration": 4, "velocity": 85}, {"time": 1489, "pitch": 58, "duration": 6, "velocity": 70}, {"time": 1489, "pitch": 61, "duration": 5, "velocity": 75}, {"time": 1489, "pitch": 66, "duration": 6, "velocity": 72}, {"time": 1492, "pitch": 37, "duration": 10, "velocity": 48}, {"time": 1498, "pitch": 56, "duration": 4, "velocity": 80}, {"time": 1498, "pitch": 61, "duration": 4, "velocity": 78}, {"time": 1498, "pitch": 65, "duration": 5, "velocity": 76}, {"time": 1501, "pitch": 49, "duration": 4, "velocity": 47}, {"time": 1507, "pitch": 63, "duration": 4, "velocity": 64}, {"time": 1510, "pitch": 65, "duration": 2, "velocity": 64}, {"time": 1513, "pitch": 42, "duration": 44, "velocity": 70}, {"time": 1513, "pitch": 58, "duration": 4, "velocity": 76}, {"time": 1513, "pitch": 61, "duration": 4, "velocity": 91}, {"time": 1513, "pitch": 66, "duration": 5, "velocity": 70}, {"time": 1519, "pitch": 49, "duration": 37, "velocity": 49}, {"time": 1522, "pitch": 54, "duration": 9, "velocity": 55}, {"time": 1525, "pitch": 61, "duration": 2, "velocity": 73}, {"time": 1528, "pitch": 66, "duration": 3, "velocity": 63}, {"time": 1531, "pitch": 68, "duration": 3, "velocity": 52}, {"time": 1534, "pitch": 61, "duration": 1, "velocity": 56}, {"time": 1534, "pitch": 70, "duration": 2, "velocity": 72}, {"time": 1537, "pitch": 54, "duration": 6, "velocity": 57}, {"time": 1537, "pitch": 63, "duration": 3, "velocity": 57}, {"time": 1537, "pitch": 71, "duration": 2, "velocity": 101}, {"time": 1543, "pitch": 63, "duration": 3, "velocity": 61}, {"time": 1543, "pitch": 73, "duration": 3, "velocity": 75}, {"time": 1549, "pitch": 63, "duration": 2, "velocity": 64}, {"time": 1549, "pitch": 71, "duration": 3, "velocity": 93}, {"time": 1555, "pitch": 54, "duration": 1, "velocity": 72}, {"time": 1555, "pitch": 70, "duration": 2, "velocity": 70}, {"time": 1561, "pitch": 54, "duration": 37, "velocity": 61}, {"time": 1561, "pitch": 70, "duration": 9, "velocity": 59}, {"time": 1561, "pitch": 78, "duration": 11, "velocity": 67}, {"time": 1564, "pitch": 61, "duration": 32, "velocity": 46}, {"time": 1570, "pitch": 66, "duration": 20, "velocity": 57}, {"time": 1576, "pitch": 68, "duration": 8, "velocity": 58}, {"time": 1579, "pitch": 73, "duration": 7, "velocity": 66}, {"time": 1582, "pitch": 70, "duration": 13, "velocity": 60}, {"time": 1594, "pitch": 68, "duration": 5, "velocity": 60}, {"time": 1609, "pitch": 54, "duration": 39, "velocity": 53}, {"time": 1609, "pitch": 61, "duration": 7, "velocity": 57}, {"time": 1609, "pitch": 66, "duration": 6, "velocity": 56}, {"time": 1615, "pitch": 58, "duration": 13, "velocity": 52}, {"time": 1621, "pitch": 61, "duration": 8, "velocity": 56}, {"time": 1627, "pitch": 68, "duration": 5, "velocity": 64}, {"time": 1633, "pitch": 58, "duration": 4, "velocity": 40}, {"time": 1633, "pitch": 61, "duration": 7, "velocity": 42}, {"time": 1633, "pitch": 66, "duration": 6, "velocity": 60}, {"time": 1639, "pitch": 58, "duration": 5, "velocity": 35}, {"time": 1645, "pitch": 61, "duration": 4, "velocity": 63}, {"time": 1645, "pitch": 65, "duration": 4, "velocity": 72}, {"time": 1657, "pitch": 46, "duration": 39, "velocity": 60}, {"time": 1657, "pitch": 61, "duration": 9, "velocity": 64}, {"time": 1657, "pitch": 68, "duration": 19, "velocity": 67}, {"time": 1663, "pitch": 53, "duration": 34, "velocity": 37}, {"time": 1669, "pitch": 58, "duration": 14, "velocity": 46}, {"time": 1675, "pitch": 61, "duration": 8, "velocity": 58}, {"time": 1681, "pitch": 65, "duration": 11, "velocity": 72}, {"time": 1693, "pitch": 58, "duration": 3, "velocity": 67}, {"time": 1693, "pitch": 68, "duration": 3, "velocity": 72}, {"time": 1705, "pitch": 48, "duration": 40, "velocity": 72}, {"time": 1705, "pitch": 63, "duration": 9, "velocity": 61}, {"time": 1705, "pitch": 66, "duration": 11, "velocity": 72}, {"time": 1711, "pitch": 54, "duration": 34, "velocity": 60}, {"time": 1717, "pitch": 58, "duration": 12, "velocity": 52}, {"time": 1723, "pitch": 63, "duration": 8, "velocity": 69}, {"time": 1729, "pitch": 70, "duration": 5, "velocity": 75}, {"time": 1732, "pitch": 60, "duration": 8, "velocity": 39}, {"time": 1738, "pitch": 63, "duration": 2, "velocity": 60}, {"time": 1738, "pitch": 68, "duration": 1, "velocity": 57}, {"time": 1744, "pitch": 66, "duration": 3, "velocity": 72}, {"time": 1747, "pitch": 65, "duration": 5, "velocity": 60}, {"time": 1753, "pitch": 47, "duration": 20, "velocity": 59}, {"time": 1753, "pitch": 54, "duration": 15, "velocity": 60}, {"time": 1753, "pitch": 59, "duration": 14, "velocity": 62}, {"time": 1753, "pitch": 63, "duration": 8, "velocity": 63}, {"time": 1753, "pitch": 66, "duration": 8, "velocity": 69}, {"time": 1765, "pitch": 63, "duration": 7, "velocity": 56}, {"time": 1765, "pitch": 66, "duration": 6, "velocity": 56}, {"time": 1771, "pitch": 54, "duration": 2, "velocity": 40}, {"time": 1771, "pitch": 59, "duration": 2, "velocity": 53}, {"time": 1777, "pitch": 46, "duration": 21, "velocity": 70}, {"time": 1777, "pitch": 58, "duration": 14, "velocity": 47}, {"time": 1777, "pitch": 61, "duration": 8, "velocity": 67}, {"time": 1777, "pitch": 65, "duration": 7, "velocity": 66}, {"time": 1777, "pitch": 68, "duration": 6, "velocity": 63}, {"time": 1789, "pitch": 61, "duration": 6, "velocity": 61}, {"time": 1789, "pitch": 65, "duration": 5, "velocity": 61}, {"time": 1789, "pitch": 68, "duration": 6, "velocity": 59}, {"time": 1795, "pitch": 58, "duration": 2, "velocity": 53}, {"time": 1801, "pitch": 44, "duration": 21, "velocity": 64}, {"time": 1801, "pitch": 56, "duration": 22, "velocity": 70}, {"time": 1801, "pitch": 63, "duration": 8, "velocity": 60}, {"time": 1801, "pitch": 66, "duration": 7, "velocity": 70}, {"time": 1801, "pitch": 71, "duration": 9, "velocity": 63}, {"time": 1813, "pitch": 63, "duration": 6, "velocity": 70}, {"time": 1813, "pitch": 66, "duration": 5, "velocity": 73}, {"time": 1813, "pitch": 71, "duration": 6, "velocity": 72}, {"time": 1825, "pitch": 47, "duration": 21, "velocity": 70}, {"time": 1825, "pitch": 61, "duration": 8, "velocity": 62}, {"time": 1825, "pitch": 66, "duration": 10, "velocity": 69}, {"time": 1837, "pitch": 63, "duration": 6, "velocity": 64}, {"time": 1837, "pitch": 68, "duration": 6, "velocity": 69}, {"time": 1849, "pitch": 44, "duration": 14, "velocity": 70}, {"time": 1849, "pitch": 63, "duration": 8, "velocity": 63}, {"time": 1849, "pitch": 66, "duration": 8, "velocity": 69}, {"time": 1861, "pitch": 63, "duration": 6, "velocity": 62}, {"time": 1861, "pitch": 66, "duration": 5, "velocity": 70}, {"time": 1867, "pitch": 44, "duration": 7, "velocity": 69}, {"time": 1873, "pitch": 49, "duration": 14, "velocity": 69}, {"time": 1873, "pitch": 61, "duration": 9, "velocity": 62}, {"time": 1873, "pitch": 66, "duration": 9, "velocity": 66}, {"time": 1873, "pitch": 70, "duration": 7, "velocity": 61}, {"time": 1885, "pitch": 61, "duration": 5, "velocity": 70}, {"time": 1885, "pitch": 66, "duration": 3, "velocity": 73}, {"time": 1885, "pitch": 70, "duration": 3, "velocity": 67}, {"time": 1891, "pitch": 49, "duration": 5, "velocity": 58}, {"time": 1897, "pitch": 42, "duration": 43, "velocity": 70}, {"time": 1897, "pitch": 58, "duration": 7, "velocity": 66}, {"time": 1897, "pitch": 61, "duration": 7, "velocity": 70}, {"time": 1897, "pitch": 66, "duration": 6, "velocity": 67}, {"time": 1903, "pitch": 49, "duration": 12, "velocity": 48}, {"time": 1909, "pitch": 59, "duration": 7, "velocity": 59}, {"time": 1909, "pitch": 63, "duration": 6, "velocity": 69}, {"time": 1909, "pitch": 66, "duration": 5, "velocity": 28}, {"time": 1915, "pitch": 54, "duration": 24, "velocity": 43}, {"time": 1921, "pitch": 49, "duration": 22, "velocity": 58}, {"time": 1921, "pitch": 58, "duration": 8, "velocity": 49}, {"time": 1921, "pitch": 61, "duration": 8, "velocity": 66}, {"time": 1921, "pitch": 66, "duration": 8, "velocity": 66}, {"time": 1933, "pitch": 61, "duration": 4, "velocity": 67}, {"time": 1936, "pitch": 63, "duration": 2, "velocity": 69}, {"time": 1939, "pitch": 66, "duration": 3, "velocity": 70}, {"time": 1945, "pitch": 42, "duration": 43, "velocity": 66}, {"time": 1945, "pitch": 54, "duration": 15, "velocity": 63}, {"time": 1945, "pitch": 61, "duration": 8, "velocity": 64}, {"time": 1945, "pitch": 66, "duration": 8, "velocity": 67}, {"time": 1945, "pitch": 68, "duration": 8, "velocity": 64}, {"time": 1945, "pitch": 70, "duration": 7, "velocity": 61}, {"time": 1957, "pitch": 61, "duration": 7, "velocity": 55}, {"time": 1957, "pitch": 66, "duration": 6, "velocity": 56}, {"time": 1957, "pitch": 68, "duration": 6, "velocity": 60}, {"time": 1957, "pitch": 70, "duration": 6, "velocity": 55}, {"time": 1963, "pitch": 54, "duration": 9, "velocity": 31}, {"time": 1969, "pitch": 61, "duration": 5, "velocity": 58}, {"time": 1969, "pitch": 66, "duration": 6, "velocity": 53}, {"time": 1969, "pitch": 68, "duration": 6, "velocity": 58}, {"time": 1969, "pitch": 70, "duration": 5, "velocity": 44}, {"time": 1975, "pitch": 54, "duration": 8, "velocity": 27}, {"time": 1981, "pitch": 61, "duration": 4, "velocity": 69}, {"time": 1981, "pitch": 66, "duration": 4, "velocity": 72}, {"time": 1981, "pitch": 68, "duration": 5, "velocity": 72}, {"time": 1981, "pitch": 70, "duration": 4, "velocity": 67}, {"time": 1987, "pitch": 54, "duration": 2, "velocity": 62}, {"time": 1993, "pitch": 41, "duration": 42, "velocity": 55}, {"time": 1993, "pitch": 53, "duration": 14, "velocity": 54}, {"time": 1993, "pitch": 61, "duration": 8, "velocity": 67}, {"time": 1993, "pitch": 65, "duration": 8, "velocity": 69}, {"time": 1993, "pitch": 68, "duration": 8, "velocity": 64}, {"time": 1993, "pitch": 73, "duration": 8, "velocity": 64}, {"time": 2005, "pitch": 61, "duration": 6, "velocity": 54}, {"time": 2005, "pitch": 65, "duration": 6, "velocity": 59}, {"time": 2005, "pitch": 68, "duration": 6, "velocity": 60}, {"time": 2005, "pitch": 73, "duration": 6, "velocity": 45}, {"time": 2011, "pitch": 53, "duration": 7, "velocity": 35}, {"time": 2017, "pitch": 61, "duration": 8, "velocity": 43}, {"time": 2017, "pitch": 65, "duration": 9, "velocity": 46}, {"time": 2017, "pitch": 68, "duration": 9, "velocity": 50}, {"time": 2017, "pitch": 73, "duration": 10, "velocity": 41}, {"time": 2026, "pitch": 53, "duration": 6, "velocity": 27}, {"time": 2029, "pitch": 61, "duration": 5, "velocity": 67}, {"time": 2029, "pitch": 65, "duration": 5, "velocity": 69}, {"time": 2029, "pitch": 68, "duration": 5, "velocity": 70}, {"time": 2029, "pitch": 73, "duration": 9, "velocity": 54}, {"time": 2035, "pitch": 53, "duration": 1, "velocity": 49}, {"time": 2041, "pitch": 51, "duration": 40, "velocity": 66}, {"time": 2041, "pitch": 58, "duration": 25, "velocity": 61}, {"time": 2041, "pitch": 61, "duration": 6, "velocity": 67}, {"time": 2041, "pitch": 66, "duration": 6, "velocity": 70}, {"time": 2041, "pitch": 70, "duration": 6, "velocity": 64}, {"time": 2053, "pitch": 61, "duration": 5, "velocity": 58}, {"time": 2053, "pitch": 66, "duration": 6, "velocity": 57}, {"time": 2053, "pitch": 70, "duration": 6, "velocity": 58}, {"time": 2065, "pitch": 61, "duration": 6, "velocity": 57}, {"time": 2065, "pitch": 66, "duration": 6, "velocity": 55}, {"time": 2065, "pitch": 70, "duration": 5, "velocity": 51}, {"time": 2071, "pitch": 58, "duration": 7, "velocity": 48}, {"time": 2077, "pitch": 61, "duration": 4, "velocity": 73}, {"time": 2077, "pitch": 66, "duration": 5, "velocity": 73}, {"time": 2077, "pitch": 70, "duration": 5, "velocity": 75}, {"time": 2083, "pitch": 58, "duration": 2, "velocity": 58}, {"time": 2089, "pitch": 46, "duration": 43, "velocity": 66}, {"time": 2089, "pitch": 61, "duration": 6, "velocity": 69}, {"time": 2089, "pitch": 65, "duration": 6, "velocity": 69}, {"time": 2089, "pitch": 68, "duration": 5, "velocity": 64}, {"time": 2095, "pitch": 53, "duration": 6, "velocity": 37}, {"time": 2101, "pitch": 58, "duration": 13, "velocity": 41}, {"time": 2101, "pitch": 61, "duration": 5, "velocity": 51}, {"time": 2101, "pitch": 65, "duration": 5, "velocity": 54}, {"time": 2101, "pitch": 68, "duration": 5, "velocity": 57}, {"time": 2107, "pitch": 53, "duration": 20, "velocity": 30}, {"time": 2113, "pitch": 61, "duration": 6, "velocity": 49}, {"time": 2113, "pitch": 65, "duration": 6, "velocity": 56}, {"time": 2113, "pitch": 68, "duration": 5, "velocity": 51}, {"time": 2119, "pitch": 58, "duration": 8, "velocity": 31}, {"time": 2125, "pitch": 61, "duration": 4, "velocity": 69}, {"time": 2125, "pitch": 65, "duration": 4, "velocity": 76}, {"time": 2125, "pitch": 68, "duration": 4, "velocity": 76}, {"time": 2131, "pitch": 58, "duration": 1, "velocity": 31}, {"time": 2137, "pitch": 47, "duration": 38, "velocity": 75}, {"time": 2137, "pitch": 63, "duration": 7, "velocity": 67}, {"time": 2137, "pitch": 66, "duration": 6, "velocity": 73}, {"time": 2137, "pitch": 71, "duration": 7, "velocity": 69}, {"time": 2143, "pitch": 54, "duration": 6, "velocity": 27}, {"time": 2149, "pitch": 59, "duration": 13, "velocity": 59}, {"time": 2149, "pitch": 63, "duration": 6, "velocity": 59}, {"time": 2149, "pitch": 66, "duration": 5, "velocity": 69}, {"time": 2149, "pitch": 71, "duration": 7, "velocity": 57}, {"time": 2155, "pitch": 54, "duration": 16, "velocity": 27}, {"time": 2161, "pitch": 63, "duration": 6, "velocity": 59}, {"time": 2161, "pitch": 66, "duration": 6, "velocity": 69}, {"time": 2161, "pitch": 71, "duration": 7, "velocity": 57}, {"time": 2167, "pitch": 59, "duration": 8, "velocity": 36}, {"time": 2173, "pitch": 63, "duration": 4, "velocity": 70}, {"time": 2173, "pitch": 66, "duration": 4, "velocity": 78}, {"time": 2173, "pitch": 71, "duration": 5, "velocity": 67}, {"time": 2179, "pitch": 47, "duration": 1, "velocity": 57}, {"time": 2179, "pitch": 54, "duration": 1, "velocity": 61}, {"time": 2185, "pitch": 40, "duration": 35, "velocity": 72}, {"time": 2185, "pitch": 64, "duration": 7, "velocity": 75}, {"time": 2185, "pitch": 68, "duration": 6, "velocity": 75}, {"time": 2185, "pitch": 71, "duration": 5, "velocity": 67}, {"time": 2191, "pitch": 52, "duration": 10, "velocity": 45}, {"time": 2197, "pitch": 64, "duration": 7, "velocity": 58}, {"time": 2197, "pitch": 68, "duration": 6, "velocity": 67}, {"time": 2197, "pitch": 71, "duration": 8, "velocity": 57}, {"time": 2203, "pitch": 52, "duration": 10, "velocity": 36}, {"time": 2209, "pitch": 64, "duration": 7, "velocity": 67}, {"time": 2209, "pitch": 68, "duration": 6, "velocity": 72}, {"time": 2209, "pitch": 71, "duration": 7, "velocity": 52}, {"time": 2215, "pitch": 52, "duration": 9, "velocity": 42}, {"time": 2221, "pitch": 64, "duration": 8, "velocity": 82}, {"time": 2221, "pitch": 68, "duration": 4, "velocity": 82}, {"time": 2221, "pitch": 71, "duration": 4, "velocity": 80}, {"time": 2224, "pitch": 40, "duration": 5, "velocity": 69}, {"time": 2227, "pitch": 52, "duration": 3, "velocity": 64}, {"time": 2230, "pitch": 71, "duration": 2, "velocity": 47}, {"time": 2233, "pitch": 37, "duration": 19, "velocity": 66}, {"time": 2233, "pitch": 49, "duration": 4, "velocity": 54}, {"time": 2233, "pitch": 61, "duration": 9, "velocity": 67}, {"time": 2233, "pitch": 66, "duration": 8, "velocity": 73}, {"time": 2233, "pitch": 68, "duration": 9, "velocity": 72}, {"time": 2233, "pitch": 73, "duration": 9, "velocity": 64}, {"time": 2239, "pitch": 49, "duration": 7, "velocity": 30}, {"time": 2245, "pitch": 61, "duration": 6, "velocity": 66}, {"time": 2245, "pitch": 66, "duration": 6, "velocity": 69}, {"time": 2245, "pitch": 73, "duration": 7, "velocity": 63}, {"time": 2251, "pitch": 49, "duration": 7, "velocity": 42}, {"time": 2257, "pitch": 37, "duration": 18, "velocity": 69}, {"time": 2257, "pitch": 61, "duration": 6, "velocity": 75}, {"time": 2257, "pitch": 65, "duration": 5, "velocity": 76}, {"time": 2257, "pitch": 68, "duration": 4, "velocity": 73}, {"time": 2263, "pitch": 49, "duration": 7, "velocity": 43}, {"time": 2269, "pitch": 61, "duration": 6, "velocity": 78}, {"time": 2269, "pitch": 66, "duration": 7, "velocity": 82}, {"time": 2269, "pitch": 70, "duration": 3, "velocity": 75}, {"time": 2275, "pitch": 49, "duration": 2, "velocity": 73}, {"time": 2281, "pitch": 42, "duration": 18, "velocity": 73}, {"time": 2281, "pitch": 54, "duration": 4, "velocity": 76}, {"time": 2281, "pitch": 61, "duration": 6, "velocity": 75}, {"time": 2281, "pitch": 66, "duration": 7, "velocity": 78}, {"time": 2281, "pitch": 70, "duration": 7, "velocity": 76}, {"time": 2287, "pitch": 54, "duration": 5, "velocity": 44}, {"time": 2293, "pitch": 61, "duration": 1, "velocity": 75}, {"time": 2293, "pitch": 66, "duration": 1, "velocity": 72}, {"time": 2293, "pitch": 70, "duration": 2, "velocity": 75}, {"time": 2296, "pitch": 54, "duration": 2, "velocity": 60}, {"time": 2296, "pitch": 61, "duration": 1, "velocity": 70}, {"time": 2296, "pitch": 66, "duration": 1, "velocity": 73}, {"time": 2296, "pitch": 70, "duration": 2, "velocity": 75}, {"time": 2302, "pitch": 63, "duration": 4, "velocity": 72}, {"time": 2302, "pitch": 66, "duration": 4, "velocity": 76}, {"time": 2302, "pitch": 71, "duration": 4, "velocity": 78}, {"time": 2305, "pitch": 41, "duration": 19, "velocity": 51}, {"time": 2305, "pitch": 53, "duration": 5, "velocity": 61}, {"time": 2308, "pitch": 61, "duration": 3, "velocity": 91}, {"time": 2308, "pitch": 68, "duration": 3, "velocity": 64}, {"time": 2308, "pitch": 69, "duration": 2, "velocity": 66}, {"time": 2314, "pitch": 53, "duration": 5, "velocity": 48}, {"time": 2317, "pitch": 62, "duration": 6, "velocity": 91}, {"time": 2317, "pitch": 65, "duration": 4, "velocity": 85}, {"time": 2317, "pitch": 70, "duration": 6, "velocity": 80}, {"time": 2323, "pitch": 53, "duration": 1, "velocity": 76}, {"time": 2329, "pitch": 39, "duration": 43, "velocity": 60}, {"time": 2329, "pitch": 51, "duration": 4, "velocity": 72}, {"time": 2329, "pitch": 58, "duration": 7, "velocity": 80}, {"time": 2329, "pitch": 61, "duration": 8, "velocity": 85}, {"time": 2329, "pitch": 66, "duration": 8, "velocity": 78}, {"time": 2335, "pitch": 51, "duration": 4, "velocity": 45}, {"time": 2341, "pitch": 58, "duration": 2, "velocity": 78}, {"time": 2341, "pitch": 61, "duration": 1, "velocity": 80}, {"time": 2341, "pitch": 66, "duration": 3, "velocity": 82}, {"time": 2344, "pitch": 51, "duration": 5, "velocity": 44}, {"time": 2347, "pitch": 56, "duration": 2, "velocity": 75}, {"time": 2347, "pitch": 65, "duration": 3, "velocity": 82}, {"time": 2350, "pitch": 58, "duration": 2, "velocity": 76}, {"time": 2350, "pitch": 61, "duration": 1, "velocity": 82}, {"time": 2350, "pitch": 66, "duration": 2, "velocity": 69}, {"time": 2353, "pitch": 51, "duration": 3, "velocity": 44}, {"time": 2356, "pitch": 58, "duration": 3, "velocity": 76}, {"time": 2356, "pitch": 65, "duration": 4, "velocity": 80}, {"time": 2359, "pitch": 51, "duration": 6, "velocity": 46}, {"time": 2365, "pitch": 58, "duration": 4, "velocity": 82}, {"time": 2365, "pitch": 61, "duration": 5, "velocity": 80}, {"time": 2365, "pitch": 66, "duration": 5, "velocity": 63}, {"time": 2371, "pitch": 51, "duration": 2, "velocity": 61}, {"time": 2374, "pitch": 51, "duration": 1, "velocity": 40}, {"time": 2374, "pitch": 58, "duration": 3, "velocity": 44}, {"time": 2374, "pitch": 61, "duration": 1, "velocity": 49}, {"time": 2377, "pitch": 39, "duration": 18, "velocity": 85}, {"time": 2377, "pitch": 58, "duration": 1, "velocity": 76}, {"time": 2377, "pitch": 61, "duration": 1, "velocity": 78}, {"time": 2377, "pitch": 66, "duration": 2, "velocity": 78}, {"time": 2383, "pitch": 51, "duration": 6, "velocity": 75}, {"time": 2386, "pitch": 61, "duration": 2, "velocity": 85}, {"time": 2389, "pitch": 66, "duration": 3, "velocity": 93}, {"time": 2392, "pitch": 68, "duration": 2, "velocity": 56}, {"time": 2395, "pitch": 51, "duration": 1, "velocity": 58}, {"time": 2398, "pitch": 39, "duration": 17, "velocity": 73}, {"time": 2398, "pitch": 51, "duration": 6, "velocity": 70}, {"time": 2398, "pitch": 61, "duration": 3, "velocity": 59}, {"time": 2398, "pitch": 70, "duration": 5, "velocity": 93}, {"time": 2398, "pitch": 71, "duration": 1, "velocity": 97}, {"time": 2404, "pitch": 61, "duration": 3, "velocity": 64}, {"time": 2404, "pitch": 68, "duration": 4, "velocity": 66}, {"time": 2407, "pitch": 51, "duration": 3, "velocity": 78}, {"time": 2410, "pitch": 61, "duration": 4, "velocity": 88}, {"time": 2410, "pitch": 66, "duration": 4, "velocity": 101}, {"time": 2413, "pitch": 51, "duration": 3, "velocity": 95}, {"time": 2416, "pitch": 61, "duration": 2, "velocity": 82}, {"time": 2419, "pitch": 66, "duration": 3, "velocity": 82}, {"time": 2422, "pitch": 68, "duration": 2, "velocity": 69}, {"time": 2425, "pitch": 44, "duration": 16, "velocity": 70}, {"time": 2425, "pitch": 56, "duration": 4, "velocity": 85}, {"time": 2425, "pitch": 63, "duration": 7, "velocity": 78}, {"time": 2425, "pitch": 66, "duration": 7, "velocity": 91}, {"time": 2425, "pitch": 71, "duration": 6, "velocity": 85}, {"time": 2431, "pitch": 56, "duration": 5, "velocity": 67}, {"time": 2437, "pitch": 63, "duration": 3, "velocity": 93}, {"time": 2437, "pitch": 66, "duration": 3, "velocity": 97}, {"time": 2437, "pitch": 71, "duration": 3, "velocity": 91}, {"time": 2440, "pitch": 56, "duration": 2, "velocity": 78}, {"time": 2443, "pitch": 68, "duration": 3, "velocity": 66}, {"time": 2446, "pitch": 70, "duration": 2, "velocity": 67}, {"time": 2449, "pitch": 37, "duration": 17, "velocity": 72}, {"time": 2449, "pitch": 49, "duration": 4, "velocity": 66}, {"time": 2449, "pitch": 61, "duration": 6, "velocity": 75}, {"time": 2449, "pitch": 66, "duration": 6, "velocity": 78}, {"time": 2449, "pitch": 68, "duration": 6, "velocity": 73}, {"time": 2455, "pitch": 49, "duration": 3, "velocity": 44}, {"time": 2458, "pitch": 61, "duration": 5, "velocity": 72}, {"time": 2458, "pitch": 68, "duration": 6, "velocity": 72}, {"time": 2461, "pitch": 49, "duration": 6, "velocity": 44}, {"time": 2467, "pitch": 66, "duration": 3, "velocity": 72}, {"time": 2470, "pitch": 68, "duration": 2, "velocity": 67}, {"time": 2473, "pitch": 42, "duration": 40, "velocity": 76}, {"time": 2473, "pitch": 61, "duration": 4, "velocity": 73}, {"time": 2473, "pitch": 66, "duration": 3, "velocity": 67}, {"time": 2473, "pitch": 70, "duration": 5, "velocity": 70}, {"time": 2479, "pitch": 49, "duration": 22, "velocity": 50}, {"time": 2482, "pitch": 61, "duration": 2, "velocity": 82}, {"time": 2482, "pitch": 73, "duration": 4, "velocity": 80}, {"time": 2485, "pitch": 54, "duration": 3, "velocity": 61}, {"time": 2488, "pitch": 61, "duration": 2, "velocity": 76}, {"time": 2488, "pitch": 71, "duration": 2, "velocity": 97}, {"time": 2488, "pitch": 73, "duration": 1, "velocity": 63}, {"time": 2491, "pitch": 54, "duration": 3, "velocity": 53}, {"time": 2494, "pitch": 61, "duration": 6, "velocity": 64}, {"time": 2494, "pitch": 70, "duration": 7, "velocity": 48}, {"time": 2500, "pitch": 54, "duration": 2, "velocity": 55}, {"time": 2503, "pitch": 61, "duration": 3, "velocity": 60}, {"time": 2506, "pitch": 49, "duration": 3, "velocity": 13}, {"time": 2506, "pitch": 54, "duration": 7, "velocity": 82}, {"time": 2509, "pitch": 61, "duration": 3, "velocity": 88}, {"time": 2509, "pitch": 66, "duration": 4, "velocity": 95}, {"time": 2512, "pitch": 49, "duration": 2, "velocity": 69}, {"time": 2515, "pitch": 61, "duration": 4, "velocity": 67}, {"time": 2521, "pitch": 46, "duration": 19, "velocity": 73}, {"time": 2521, "pitch": 58, "duration": 5, "velocity": 91}, {"time": 2521, "pitch": 61, "duration": 7, "velocity": 91}, {"time": 2521, "pitch": 65, "duration": 8, "velocity": 93}, {"time": 2521, "pitch": 68, "duration": 6, "velocity": 78}, {"time": 2530, "pitch": 58, "duration": 6, "velocity": 45}, {"time": 2533, "pitch": 61, "duration": 4, "velocity": 85}, {"time": 2533, "pitch": 65, "duration": 4, "velocity": 78}, {"time": 2533, "pitch": 68, "duration": 6, "velocity": 80}, {"time": 2539, "pitch": 58, "duration": 2, "velocity": 60}, {"time": 2542, "pitch": 46, "duration": 1, "velocity": 60}, {"time": 2542, "pitch": 58, "duration": 1, "velocity": 75}, {"time": 2542, "pitch": 61, "duration": 1, "velocity": 75}, {"time": 2542, "pitch": 65, "duration": 1, "velocity": 63}, {"time": 2542, "pitch": 70, "duration": 1, "velocity": 69}, {"time": 2548, "pitch": 46, "duration": 16, "velocity": 63}, {"time": 2548, "pitch": 58, "duration": 3, "velocity": 67}, {"time": 2548, "pitch": 62, "duration": 6, "velocity": 99}, {"time": 2548, "pitch": 65, "duration": 7, "velocity": 80}, {"time": 2548, "pitch": 70, "duration": 7, "velocity": 73}, {"time": 2554, "pitch": 58, "duration": 4, "velocity": 76}, {"time": 2557, "pitch": 62, "duration": 4, "velocity": 97}, {"time": 2557, "pitch": 65, "duration": 2, "velocity": 88}, {"time": 2557, "pitch": 68, "duration": 4, "velocity": 80}, {"time": 2560, "pitch": 58, "duration": 3, "velocity": 72}, {"time": 2563, "pitch": 50, "duration": 2, "velocity": 82}, {"time": 2569, "pitch": 39, "duration": 34, "velocity": 80}, {"time": 2569, "pitch": 58, "duration": 7, "velocity": 80}, {"time": 2569, "pitch": 61, "duration": 6, "velocity": 80}, {"time": 2569, "pitch": 66, "duration": 7, "velocity": 78}, {"time": 2575, "pitch": 51, "duration": 3, "velocity": 49}, {"time": 2578, "pitch": 56, "duration": 2, "velocity": 78}, {"time": 2578, "pitch": 65, "duration": 5, "velocity": 75}, {"time": 2581, "pitch": 51, "duration": 3, "velocity": 47}, {"time": 2584, "pitch": 61, "duration": 1, "velocity": 82}, {"time": 2584, "pitch": 66, "duration": 2, "velocity": 72}, {"time": 2587, "pitch": 51, "duration": 4, "velocity": 72}, {"time": 2590, "pitch": 61, "duration": 2, "velocity": 70}, {"time": 2590, "pitch": 68, "duration": 1, "velocity": 64}, {"time": 2590, "pitch": 70, "duration": 2, "velocity": 60}, {"time": 2593, "pitch": 51, "duration": 3, "velocity": 56}, {"time": 2593, "pitch": 68, "duration": 1, "velocity": 43}, {"time": 2596, "pitch": 61, "duration": 2, "velocity": 76}, {"time": 2596, "pitch": 70, "duration": 5, "velocity": 66}, {"time": 2602, "pitch": 51, "duration": 6, "velocity": 88}, {"time": 2605, "pitch": 61, "duration": 3, "velocity": 95}, {"time": 2608, "pitch": 63, "duration": 4, "velocity": 82}, {"time": 2611, "pitch": 65, "duration": 4, "velocity": 76}, {"time": 2614, "pitch": 66, "duration": 2, "velocity": 88}, {"time": 2617, "pitch": 44, "duration": 19, "velocity": 69}, {"time": 2617, "pitch": 56, "duration": 5, "velocity": 76}, {"time": 2617, "pitch": 59, "duration": 9, "velocity": 95}, {"time": 2617, "pitch": 66, "duration": 8, "velocity": 93}, {"time": 2617, "pitch": 67, "duration": 1, "velocity": 75}, {"time": 2623, "pitch": 56, "duration": 6, "velocity": 38}, {"time": 2629, "pitch": 59, "duration": 6, "velocity": 103}, {"time": 2629, "pitch": 66, "duration": 6, "velocity": 82}, {"time": 2635, "pitch": 56, "duration": 4, "velocity": 56}, {"time": 2641, "pitch": 44, "duration": 16, "velocity": 72}, {"time": 2641, "pitch": 56, "duration": 3, "velocity": 80}, {"time": 2641, "pitch": 60, "duration": 9, "velocity": 88}, {"time": 2641, "pitch": 63, "duration": 8, "velocity": 82}, {"time": 2641, "pitch": 66, "duration": 8, "velocity": 85}, {"time": 2650, "pitch": 56, "duration": 7, "velocity": 44}, {"time": 2653, "pitch": 60, "duration": 3, "velocity": 97}, {"time": 2653, "pitch": 63, "duration": 3, "velocity": 80}, {"time": 2653, "pitch": 66, "duration": 3, "velocity": 80}, {"time": 2656, "pitch": 51, "duration": 2, "velocity": 70}, {"time": 2659, "pitch": 61, "duration": 4, "velocity": 67}, {"time": 2662, "pitch": 63, "duration": 2, "velocity": 70}, {"time": 2665, "pitch": 37, "duration": 34, "velocity": 72}, {"time": 2665, "pitch": 49, "duration": 3, "velocity": 78}, {"time": 2665, "pitch": 56, "duration": 5, "velocity": 88}, {"time": 2665, "pitch": 61, "duration": 5, "velocity": 80}, {"time": 2665, "pitch": 65, "duration": 6, "velocity": 75}, {"time": 2671, "pitch": 49, "duration": 3, "velocity": 52}, {"time": 2674, "pitch": 58, "duration": 2, "velocity": 78}, {"time": 2674, "pitch": 61, "duration": 2, "velocity": 75}, {"time": 2674, "pitch": 66, "duration": 2, "velocity": 82}, {"time": 2677, "pitch": 49, "duration": 3, "velocity": 66}, {"time": 2680, "pitch": 61, "duration": 1, "velocity": 97}, {"time": 2680, "pitch": 68, "duration": 2, "velocity": 85}, {"time": 2686, "pitch": 49, "duration": 14, "velocity": 69}, {"time": 2689, "pitch": 61, "duration": 2, "velocity": 88}, {"time": 2692, "pitch": 63, "duration": 4, "velocity": 61}, {"time": 2695, "pitch": 65, "duration": 2, "velocity": 75}, {"time": 2698, "pitch": 66, "duration": 3, "velocity": 82}, {"time": 2701, "pitch": 68, "duration": 5, "velocity": 64}, {"time": 2704, "pitch": 70, "duration": 4, "velocity": 61}, {"time": 2707, "pitch": 71, "duration": 4, "velocity": 66}, {"time": 2710, "pitch": 73, "duration": 12, "velocity": 67}, {"time": 2713, "pitch": 42, "duration": 44, "velocity": 59}, {"time": 2713, "pitch": 54, "duration": 38, "velocity": 55}, {"time": 2713, "pitch": 61, "duration": 9, "velocity": 51}, {"time": 2713, "pitch": 66, "duration": 9, "velocity": 45}, {"time": 2713, "pitch": 70, "duration": 9, "velocity": 51}, {"time": 2725, "pitch": 61, "duration": 7, "velocity": 54}, {"time": 2725, "pitch": 66, "duration": 7, "velocity": 67}, {"time": 2725, "pitch": 70, "duration": 7, "velocity": 61}, {"time": 2737, "pitch": 61, "duration": 7, "velocity": 46}, {"time": 2737, "pitch": 66, "duration": 7, "velocity": 55}, {"time": 2737, "pitch": 70, "duration": 7, "velocity": 47}, {"time": 2749, "pitch": 61, "duration": 5, "velocity": 67}, {"time": 2749, "pitch": 66, "duration": 6, "velocity": 72}, {"time": 2749, "pitch": 70, "duration": 6, "velocity": 66}, {"time": 2755, "pitch": 54, "duration": 2, "velocity": 59}, {"time": 2761, "pitch": 46, "duration": 40, "velocity": 69}, {"time": 2761, "pitch": 61, "duration": 6, "velocity": 69}, {"time": 2761, "pitch": 65, "duration": 6, "velocity": 72}, {"time": 2761, "pitch": 68, "duration": 6, "velocity": 70}, {"time": 2767, "pitch": 58, "duration": 15, "velocity": 28}, {"time": 2773, "pitch": 61, "duration": 5, "velocity": 75}, {"time": 2779, "pitch": 63, "duration": 5, "velocity": 57}, {"time": 2782, "pitch": 65, "duration": 2, "velocity": 64}, {"time": 2785, "pitch": 58, "duration": 4, "velocity": 57}, {"time": 2785, "pitch": 61, "duration": 7, "velocity": 69}, {"time": 2785, "pitch": 66, "duration": 10, "velocity": 70}, {"time": 2791, "pitch": 58, "duration": 6, "velocity": 33}, {"time": 2797, "pitch": 61, "duration": 3, "velocity": 78}, {"time": 2797, "pitch": 68, "duration": 4, "velocity": 85}, {"time": 2800, "pitch": 58, "duration": 3, "velocity": 62}, {"time": 2803, "pitch": 61, "duration": 4, "velocity": 63}, {"time": 2806, "pitch": 65, "duration": 4, "velocity": 57}, {"time": 2809, "pitch": 51, "duration": 41, "velocity": 69}, {"time": 2809, "pitch": 68, "duration": 6, "velocity": 63}, {"time": 2815, "pitch": 58, "duration": 7, "velocity": 56}, {"time": 2821, "pitch": 63, "duration": 6, "velocity": 49}, {"time": 2821, "pitch": 66, "duration": 5, "velocity": 73}, {"time": 2821, "pitch": 70, "duration": 5, "velocity": 66}, {"time": 2827, "pitch": 58, "duration": 7, "velocity": 56}, {"time": 2827, "pitch": 65, "duration": 4, "velocity": 56}, {"time": 2827, "pitch": 68, "duration": 6, "velocity": 70}, {"time": 2833, "pitch": 63, "duration": 12, "velocity": 57}, {"time": 2833, "pitch": 66, "duration": 6, "velocity": 73}, {"time": 2833, "pitch": 73, "duration": 8, "velocity": 76}, {"time": 2839, "pitch": 58, "duration": 6, "velocity": 36}, {"time": 2845, "pitch": 66, "duration": 6, "velocity": 91}, {"time": 2845, "pitch": 70, "duration": 6, "velocity": 80}, {"time": 2851, "pitch": 58, "duration": 2, "velocity": 73}, {"time": 2857, "pitch": 46, "duration": 11, "velocity": 70}, {"time": 2857, "pitch": 61, "duration": 7, "velocity": 69}, {"time": 2857, "pitch": 65, "duration": 8, "velocity": 70}, {"time": 2857, "pitch": 68, "duration": 8, "velocity": 69}, {"time": 2863, "pitch": 53, "duration": 6, "velocity": 45}, {"time": 2869, "pitch": 56, "duration": 7, "velocity": 70}, {"time": 2875, "pitch": 58, "duration": 12, "velocity": 70}, {"time": 2881, "pitch": 61, "duration": 13, "velocity": 72}, {"time": 2881, "pitch": 68, "duration": 6, "velocity": 66}, {"time": 2887, "pitch": 66, "duration": 6, "velocity": 63}, {"time": 2893, "pitch": 58, "duration": 4, "velocity": 64}, {"time": 2893, "pitch": 65, "duration": 5, "velocity": 62}, {"time": 2899, "pitch": 68, "duration": 5, "velocity": 62}, {"time": 2905, "pitch": 47, "duration": 41, "velocity": 62}, {"time": 2905, "pitch": 63, "duration": 6, "velocity": 67}, {"time": 2905, "pitch": 66, "duration": 6, "velocity": 73}, {"time": 2911, "pitch": 54, "duration": 7, "velocity": 45}, {"time": 2917, "pitch": 59, "duration": 7, "velocity": 66}, {"time": 2917, "pitch": 61, "duration": 6, "velocity": 63}, {"time": 2917, "pitch": 68, "duration": 7, "velocity": 69}, {"time": 2923, "pitch": 54, "duration": 16, "velocity": 56}, {"time": 2923, "pitch": 70, "duration": 3, "velocity": 70}, {"time": 2929, "pitch": 59, "duration": 9, "velocity": 66}, {"time": 2929, "pitch": 63, "duration": 5, "velocity": 61}, {"time": 2929, "pitch": 71, "duration": 5, "velocity": 66}, {"time": 2938, "pitch": 63, "duration": 6, "velocity": 53}, {"time": 2938, "pitch": 66, "duration": 5, "velocity": 60}, {"time": 2938, "pitch": 73, "duration": 6, "velocity": 64}, {"time": 2941, "pitch": 54, "duration": 3, "velocity": 34}, {"time": 2941, "pitch": 59, "duration": 3, "velocity": 61}, {"time": 2947, "pitch": 73, "duration": 2, "velocity": 63}, {"time": 2953, "pitch": 40, "duration": 40, "velocity": 75}, {"time": 2953, "pitch": 52, "duration": 7, "velocity": 78}, {"time": 2953, "pitch": 56, "duration": 7, "velocity": 67}, {"time": 2953, "pitch": 59, "duration": 7, "velocity": 73}, {"time": 2953, "pitch": 64, "duration": 8, "velocity": 75}, {"time": 2962, "pitch": 56, "duration": 5, "velocity": 76}, {"time": 2965, "pitch": 52, "duration": 7, "velocity": 55}, {"time": 2971, "pitch": 59, "duration": 4, "velocity": 66}, {"time": 2974, "pitch": 64, "duration": 2, "velocity": 45}, {"time": 2977, "pitch": 52, "duration": 2, "velocity": 91}, {"time": 2977, "pitch": 56, "duration": 3, "velocity": 80}, {"time": 2977, "pitch": 59, "duration": 1, "velocity": 67}, {"time": 2977, "pitch": 66, "duration": 3, "velocity": 69}, {"time": 2983, "pitch": 52, "duration": 2, "velocity": 24}, {"time": 2986, "pitch": 68, "duration": 4, "velocity": 99}, {"time": 2989, "pitch": 52, "duration": 2, "velocity": 76}, {"time": 2995, "pitch": 70, "duration": 3, "velocity": 93}, {"time": 2998, "pitch": 68, "duration": 3, "velocity": 63}, {"time": 3001, "pitch": 37, "duration": 5, "velocity": 69}, {"time": 3001, "pitch": 65, "duration": 7, "velocity": 80}, {"time": 3007, "pitch": 49, "duration": 7, "velocity": 56}, {"time": 3013, "pitch": 53, "duration": 5, "velocity": 60}, {"time": 3013, "pitch": 63, "duration": 5, "velocity": 82}, {"time": 3019, "pitch": 61, "duration": 4, "velocity": 85}, {"time": 3025, "pitch": 58, "duration": 6, "velocity": 70}, {"time": 3025, "pitch": 61, "duration": 5, "velocity": 75}, {"time": 3025, "pitch": 66, "duration": 6, "velocity": 72}, {"time": 3028, "pitch": 37, "duration": 10, "velocity": 48}, {"time": 3034, "pitch": 56, "duration": 4, "velocity": 80}, {"time": 3034, "pitch": 61, "duration": 4, "velocity": 78}, {"time": 3034, "pitch": 65, "duration": 5, "velocity": 76}, {"time": 3037, "pitch": 49, "duration": 4, "velocity": 47}, {"time": 3043, "pitch": 63, "duration": 4, "velocity": 64}, {"time": 3046, "pitch": 65, "duration": 2, "velocity": 64}, {"time": 3049, "pitch": 54, "duration": 11, "velocity": 62}, {"time": 3055, "pitch": 61, "duration": 6, "velocity": 54}, {"time": 3061, "pitch": 66, "duration": 6, "velocity": 58}, {"time": 3066, "pitch": 68, "duration": 1, "velocity": 73}, {"time": 3073, "pitch": 73, "duration": 6, "velocity": 64}, {"time": 3082, "pitch": 73, "duration": 2, "velocity": 61}, {"time": 3082, "pitch": 54, "duration": 6, "velocity": 69}, {"time": 3087, "pitch": 61, "duration": 1, "velocity": 62}, {"time": 3097, "pitch": 71, "duration": 9, "velocity": 80}, {"time": 3097, "pitch": 74, "duration": 8, "velocity": 93}, {"time": 3097, "pitch": 47, "duration": 15, "velocity": 66}, {"time": 3097, "pitch": 59, "duration": 15, "velocity": 66}, {"time": 3108, "pitch": 71, "duration": 3, "velocity": 80}, {"time": 3111, "pitch": 74, "duration": 3, "velocity": 80}, {"time": 3120, "pitch": 73, "duration": 4, "velocity": 67}, {"time": 3120, "pitch": 68, "duration": 4, "velocity": 58}, {"time": 3120, "pitch": 49, "duration": 21, "velocity": 62}, {"time": 3120, "pitch": 61, "duration": 5, "velocity": 48}, {"time": 3128, "pitch": 61, "duration": 6, "velocity": 40}, {"time": 3132, "pitch": 71, "duration": 2, "velocity": 97}, {"time": 3132, "pitch": 66, "duration": 2, "velocity": 76}, {"time": 3140, "pitch": 56, "duration": 1, "velocity": 75}, {"time": 3148, "pitch": 58, "duration": 9, "velocity": 51}, {"time": 3149, "pitch": 61, "duration": 8, "velocity": 76}, {"time": 3149, "pitch": 42, "duration": 48, "velocity": 69}, {"time": 3150, "pitch": 66, "duration": 7, "velocity": 76}, {"time": 3156, "pitch": 49, "duration": 40, "velocity": 46}, {"time": 3158, "pitch": 54, "duration": 38, "velocity": 54}, {"time": 3160, "pitch": 58, "duration": 2, "velocity": 56}, {"time": 3162, "pitch": 61, "duration": 2, "velocity": 61}, {"time": 3164, "pitch": 66, "duration": 2, "velocity": 67}, {"time": 3167, "pitch": 68, "duration": 3, "velocity": 73}, {"time": 3169, "pitch": 70, "duration": 2, "velocity": 62}, {"time": 3171, "pitch": 72, "duration": 1, "velocity": 63}, {"time": 3174, "pitch": 73, "duration": 2, "velocity": 48}, {"time": 3176, "pitch": 78, "duration": 3, "velocity": 55}, {"time": 3179, "pitch": 80, "duration": 1, "velocity": 62}, {"time": 3181, "pitch": 82, "duration": 4, "velocity": 61}, {"time": 3184, "pitch": 85, "duration": 4, "velocity": 51}, {"time": 3187, "pitch": 90, "duration": 4, "velocity": 43}, {"time": 3192, "pitch": 92, "duration": 3, "velocity": 58}, {"time": 3195, "pitch": 94, "duration": 1, "velocity": 69}], "annotations": [{"time": 28, "annotation": {"number": 64, "value": 127}, "group": "control_change"}, {"time": 43, "annotation": {"number": 64, "value": 127}, "group": "control_change"}, {"time": 72, "annotation": {"number": 64, "value": 0}, "group": "control_change"}, {"time": 74, "annotation": {"number": 64, "value": 0}, "group": "control_change"}, {"time": 78, "annotation": {"number": 64, "value": 127}, "group": "control_change"}, {"time": 121, "annotation": {"number": 64, "value": 0}, "group": "control_change"}, {"time": 125, "annotation": {"number": 64, "value": 127}, "group": "control_change"}, {"time": 167, "annotation": {"number": 64, "value": 0}, "group": "control_change"}, {"time": 171, "annotation": {"number": 64, "value": 127}, "group": "control_change"}, {"time": 216, "annotation": {"number": 64, "value": 0}, "group": "control_change"}, {"time": 218, "annotation": {"number": 64, "value": 127}, "group": "control_change"}, {"time": 221, "annotation": {"number": 64, "value": 127}, "group": "control_change"}, {"time": 240, "annotation": {"number": 64, "value": 0}, "group": "control_change"}, {"time": 244, "annotation": {"number": 64, "value": 0}, "group": "control_change"}, {"time": 245, "annotation": {"number": 64, "value": 127}, "group": "control_change"}, {"time": 265, "annotation": {"number": 64, "value": 0}, "group": "control_change"}, {"time": 269, "annotation": {"number": 64, "value": 127}, "group": "control_change"}, {"time": 288, "annotation": {"number": 64, "value": 0}, "group": "control_change"}, {"time": 292, "annotation": {"number": 64, "value": 127}, "group": "control_change"}, {"time": 313, "annotation": {"number": 64, "value": 0}, "group": "control_change"}, {"time": 317, "annotation": {"number": 64, "value": 127}, "group": "control_change"}, {"time": 336, "annotation": {"number": 64, "value": 0}, "group": "control_change"}, {"time": 342, "annotation": {"number": 64, "value": 127}, "group": "control_change"}, {"time": 360, "annotation": {"number": 64, "value": 0}, "group": "control_change"}, {"time": 366, "annotation": {"number": 64, "value": 127}, "group": "control_change"}, {"time": 386, "annotation": {"number": 64, "value": 0}, "group": "control_change"}, {"time": 392, "annotation": {"number": 64, "value": 127}, "group": "control_change"}, {"time": 409, "annotation": {"number": 64, "value": 0}, "group": "control_change"}, {"time": 409, "annotation": {"number": 64, "value": 127}, "group": "control_change"}, {"time": 457, "annotation": {"number": 64, "value": 0}, "group": "control_change"}, {"time": 460, "annotation": {"number": 64, "value": 127}, "group": "control_change"}, {"time": 505, "annotation": {"number": 64, "value": 0}, "group": "control_change"}, {"time": 508, "annotation": {"number": 64, "value": 127}, "group": "control_change"}, {"time": 553, "annotation": {"number": 64, "value": 0}, "group": "control_change"}, {"time": 557, "annotation": {"number": 64, "value": 127}, "group": "control_change"}, {"time": 603, "annotation": {"number": 64, "value": 0}, "group": "control_change"}, {"time": 606, "annotation": {"number": 64, "value": 127}, "group": "control_change"}, {"time": 650, "annotation": {"number": 64, "value": 0}, "group": "control_change"}, {"time": 654, "annotation": {"number": 64, "value": 127}, "group": "control_change"}, {"time": 697, "annotation": {"number": 64, "value": 0}, "group": "control_change"}, {"time": 697, "annotation": {"number": 64, "value": 127}, "group": "control_change"}, {"time": 719, "annotation": {"number": 64, "value": 0}, "group": "control_change"}, {"time": 721, "annotation": {"number": 64, "value": 127}, "group": "control_change"}, {"time": 743, "annotation": {"number": 64, "value": 0}, "group": "control_change"}, {"time": 746, "annotation": {"number": 64, "value": 127}, "group": "control_change"}, {"time": 769, "annotation": {"number": 64, "value": 0}, "group": "control_change"}, {"time": 771, "annotation": {"number": 64, "value": 127}, "group": "control_change"}, {"time": 791, "annotation": {"number": 64, "value": 0}, "group": "control_change"}, {"time": 793, "annotation": {"number": 64, "value": 127}, "group": "control_change"}, {"time": 839, "annotation": {"number": 64, "value": 0}, "group": "control_change"}, {"time": 842, "annotation": {"number": 64, "value": 127}, "group": "control_change"}, {"time": 862, "annotation": {"number": 64, "value": 0}, "group": "control_change"}, {"time": 874, "annotation": {"number": 64, "value": 127}, "group": "control_change"}, {"time": 888, "annotation": {"number": 64, "value": 0}, "group": "control_change"}, {"time": 890, "annotation": {"number": 64, "value": 127}, "group": "control_change"}, {"time": 913, "annotation": {"number": 64, "value": 0}, "group": "control_change"}, {"time": 913, "annotation": {"number": 64, "value": 127}, "group": "control_change"}, {"time": 936, "annotation": {"number": 64, "value": 0}, "group": "control_change"}, {"time": 938, "annotation": {"number": 64, "value": 127}, "group": "control_change"}, {"time": 983, "annotation": {"number": 64, "value": 0}, "group": "control_change"}, {"time": 986, "annotation": {"number": 64, "value": 127}, "group": "control_change"}, {"time": 1013, "annotation": {"number": 64, "value": 0}, "group": "control_change"}, {"time": 1017, "annotation": {"number": 64, "value": 127}, "group": "control_change"}, {"time": 1032, "annotation": {"number": 64, "value": 0}, "group": "control_change"}, {"time": 1035, "annotation": {"number": 64, "value": 127}, "group": "control_change"}, {"time": 1080, "annotation": {"number": 64, "value": 0}, "group": "control_change"}, {"time": 1083, "annotation": {"number": 64, "value": 127}, "group": "control_change"}, {"time": 1104, "annotation": {"number": 64, "value": 0}, "group": "control_change"}, {"time": 1107, "annotation": {"number": 64, "value": 127}, "group": "control_change"}, {"time": 1128, "annotation": {"number": 64, "value": 0}, "group": "control_change"}, {"time": 1131, "annotation": {"number": 64, "value": 127}, "group": "control_change"}, {"time": 1175, "annotation": {"number": 64, "value": 0}, "group": "control_change"}, {"time": 1179, "annotation": {"number": 64, "value": 127}, "group": "control_change"}, {"time": 1225, "annotation": {"number": 64, "value": 0}, "group": "control_change"}, {"time": 1228, "annotation": {"number": 64, "value": 127}, "group": "control_change"}, {"time": 1272, "annotation": {"number": 64, "value": 0}, "group": "control_change"}, {"time": 1274, "annotation": {"number": 64, "value": 127}, "group": "control_change"}, {"time": 1320, "annotation": {"number": 64, "value": 0}, "group": "control_change"}, {"time": 1325, "annotation": {"number": 64, "value": 127}, "group": "control_change"}, {"time": 1369, "annotation": {"number": 64, "value": 127}, "group": "control_change"}, {"time": 1417, "annotation": {"number": 64, "value": 0}, "group": "control_change"}, {"time": 1417, "annotation": {"number": 64, "value": 127}, "group": "control_change"}, {"time": 1465, "annotation": {"number": 64, "value": 0}, "group": "control_change"}, {"time": 1467, "annotation": {"number": 64, "value": 127}, "group": "control_change"}, {"time": 1511, "annotation": {"number": 64, "value": 0}, "group": "control_change"}, {"time": 1514, "annotation": {"number": 64, "value": 127}, "group": "control_change"}, {"time": 1563, "annotation": {"number": 64, "value": 0}, "group": "control_change"}, {"time": 1564, "annotation": {"number": 64, "value": 127}, "group": "control_change"}, {"time": 1579, "annotation": {"number": 64, "value": 127}, "group": "control_change"}, {"time": 1608, "annotation": {"number": 64, "value": 0}, "group": "control_change"}, {"time": 1610, "annotation": {"number": 64, "value": 0}, "group": "control_change"}, {"time": 1614, "annotation": {"number": 64, "value": 127}, "group": "control_change"}, {"time": 1657, "annotation": {"number": 64, "value": 0}, "group": "control_change"}, {"time": 1661, "annotation": {"number": 64, "value": 127}, "group": "control_change"}, {"time": 1703, "annotation": {"number": 64, "value": 0}, "group": "control_change"}, {"time": 1707, "annotation": {"number": 64, "value": 127}, "group": "control_change"}, {"time": 1752, "annotation": {"number": 64, "value": 0}, "group": "control_change"}, {"time": 1754, "annotation": {"number": 64, "value": 127}, "group": "control_change"}, {"time": 1757, "annotation": {"number": 64, "value": 127}, "group": "control_change"}, {"time": 1776, "annotation": {"number": 64, "value": 0}, "group": "control_change"}, {"time": 1780, "annotation": {"number": 64, "value": 0}, "group": "control_change"}, {"time": 1781, "annotation": {"number": 64, "value": 127}, "group": "control_change"}, {"time": 1801, "annotation": {"number": 64, "value": 0}, "group": "control_change"}, {"time": 1805, "annotation": {"number": 64, "value": 127}, "group": "control_change"}, {"time": 1824, "annotation": {"number": 64, "value": 0}, "group": "control_change"}, {"time": 1828, "annotation": {"number": 64, "value": 127}, "group": "control_change"}, {"time": 1849, "annotation": {"number": 64, "value": 0}, "group": "control_change"}, {"time": 1853, "annotation": {"number": 64, "value": 127}, "group": "control_change"}, {"time": 1872, "annotation": {"number": 64, "value": 0}, "group": "control_change"}, {"time": 1878, "annotation": {"number": 64, "value": 127}, "group": "control_change"}, {"time": 1896, "annotation": {"number": 64, "value": 0}, "group": "control_change"}, {"time": 1902, "annotation": {"number": 64, "value": 127}, "group": "control_change"}, {"time": 1922, "annotation": {"number": 64, "value": 0}, "group": "control_change"}, {"time": 1928, "annotation": {"number": 64, "value": 127}, "group": "control_change"}, {"time": 1945, "annotation": {"number": 64, "value": 0}, "group": "control_change"}, {"time": 1945, "annotation": {"number": 64, "value": 127}, "group": "control_change"}, {"time": 1993, "annotation": {"number": 64, "value": 0}, "group": "control_change"}, {"time": 1996, "annotation": {"number": 64, "value": 127}, "group": "control_change"}, {"time": 2041, "annotation": {"number": 64, "value": 0}, "group": "control_change"}, {"time": 2044, "annotation": {"number": 64, "value": 127}, "group": "control_change"}, {"time": 2089, "annotation": {"number": 64, "value": 0}, "group": "control_change"}, {"time": 2093, "annotation": {"number": 64, "value": 127}, "group": "control_change"}, {"time": 2139, "annotation": {"number": 64, "value": 0}, "group": "control_change"}, {"time": 2142, "annotation": {"number": 64, "value": 127}, "group": "control_change"}, {"time": 2186, "annotation": {"number": 64, "value": 0}, "group": "control_change"}, {"time": 2190, "annotation": {"number": 64, "value": 127}, "group": "control_change"}, {"time": 2233, "annotation": {"number": 64, "value": 0}, "group": "control_change"}, {"time": 2233, "annotation": {"number": 64, "value": 127}, "group": "control_change"}, {"time": 2255, "annotation": {"number": 64, "value": 0}, "group": "control_change"}, {"time": 2257, "annotation": {"number": 64, "value": 127}, "group": "control_change"}, {"time": 2279, "annotation": {"number": 64, "value": 0}, "group": "control_change"}, {"time": 2282, "annotation": {"number": 64, "value": 127}, "group": "control_change"}, {"time": 2305, "annotation": {"number": 64, "value": 0}, "group": "control_change"}, {"time": 2307, "annotation": {"number": 64, "value": 127}, "group": "control_change"}, {"time": 2327, "annotation": {"number": 64, "value": 0}, "group": "control_change"}, {"time": 2329, "annotation": {"number": 64, "value": 127}, "group": "control_change"}, {"time": 2375, "annotation": {"number": 64, "value": 0}, "group": "control_change"}, {"time": 2378, "annotation": {"number": 64, "value": 127}, "group": "control_change"}, {"time": 2398, "annotation": {"number": 64, "value": 0}, "group": "control_change"}, {"time": 2410, "annotation": {"number": 64, "value": 127}, "group": "control_change"}, {"time": 2424, "annotation": {"number": 64, "value": 0}, "group": "control_change"}, {"time": 2426, "annotation": {"number": 64, "value": 127}, "group": "control_change"}, {"time": 2449, "annotation": {"number": 64, "value": 0}, "group": "control_change"}, {"time": 2449, "annotation": {"number": 64, "value": 127}, "group": "control_change"}, {"time": 2472, "annotation": {"number": 64, "value": 0}, "group": "control_change"}, {"time": 2474, "annotation": {"number": 64, "value": 127}, "group": "control_change"}, {"time": 2519, "annotation": {"number": 64, "value": 0}, "group": "control_change"}, {"time": 2522, "annotation": {"number": 64, "value": 127}, "group": "control_change"}, {"time": 2549, "annotation": {"number": 64, "value": 0}, "group": "control_change"}, {"time": 2553, "annotation": {"number": 64, "value": 127}, "group": "control_change"}, {"time": 2568, "annotation": {"number": 64, "value": 0}, "group": "control_change"}, {"time": 2571, "annotation": {"number": 64, "value": 127}, "group": "control_change"}, {"time": 2616, "annotation": {"number": 64, "value": 0}, "group": "control_change"}, {"time": 2619, "annotation": {"number": 64, "value": 127}, "group": "control_change"}, {"time": 2640, "annotation": {"number": 64, "value": 0}, "group": "control_change"}, {"time": 2643, "annotation": {"number": 64, "value": 127}, "group": "control_change"}, {"time": 2664, "annotation": {"number": 64, "value": 0}, "group": "control_change"}, {"time": 2667, "annotation": {"number": 64, "value": 127}, "group": "control_change"}, {"time": 2711, "annotation": {"number": 64, "value": 0}, "group": "control_change"}, {"time": 2715, "annotation": {"number": 64, "value": 127}, "group": "control_change"}, {"time": 2761, "annotation": {"number": 64, "value": 0}, "group": "control_change"}, {"time": 2764, "annotation": {"number": 64, "value": 127}, "group": "control_change"}, {"time": 2808, "annotation": {"number": 64, "value": 0}, "group": "control_change"}, {"time": 2810, "annotation": {"number": 64, "value": 127}, "group": "control_change"}, {"time": 2856, "annotation": {"number": 64, "value": 0}, "group": "control_change"}, {"time": 2861, "annotation": {"number": 64, "value": 127}, "group": "control_change"}, {"time": 2905, "annotation": {"number": 64, "value": 127}, "group": "control_change"}, {"time": 2953, "annotation": {"number": 64, "value": 0}, "group": "control_change"}, {"time": 2953, "annotation": {"number": 64, "value": 127}, "group": "control_change"}, {"time": 3001, "annotation": {"number": 64, "value": 0}, "group": "control_change"}, {"time": 3003, "annotation": {"number": 64, "value": 127}, "group": "control_change"}, {"time": 3047, "annotation": {"number": 64, "value": 0}, "group": "control_change"}, {"time": 3050, "annotation": {"number": 64, "value": 127}, "group": "control_change"}, {"time": 3073, "annotation": {"number": 64, "value": 0}, "group": "control_change"}, {"time": 3077, "annotation": {"number": 64, "value": 127}, "group": "control_change"}, {"time": 3096, "annotation": {"number": 64, "value": 0}, "group": "control_change"}, {"time": 3100, "annotation": {"number": 64, "value": 127}, "group": "control_change"}, {"time": 3120, "annotation": {"number": 64, "value": 0}, "group": "control_change"}, {"time": 3123, "annotation": {"number": 64, "value": 127}, "group": "control_change"}, {"time": 3147, "annotation": {"number": 64, "value": 0}, "group": "control_change"}, {"time": 3152, "annotation": {"number": 64, "value": 127}, "group": "control_change"}, {"time": 3213, "annotation": {"number": 64, "value": 0}, "group": "control_change"}]}]}