{"metadata": {"schema_version": "0.2", "title": "None", "source_filename": "223.mid", "source_format": "midi"}, "resolution": 12, "tempos": [{"time": 0, "qpm": 116.00008506672904}], "time_signatures": [{"time": 0, "numerator": 4, "denominator": 4}], "tracks": [{"program": 0, "is_drum": false, "name": "MELODY", "notes": [{"time": 792, "pitch": 65, "duration": 6, "velocity": 64}, {"time": 798, "pitch": 65, "duration": 6, "velocity": 66}, {"time": 804, "pitch": 67, "duration": 6, "velocity": 74}, {"time": 810, "pitch": 68, "duration": 6, "velocity": 65}, {"time": 816, "pitch": 72, "duration": 6, "velocity": 83}, {"time": 822, "pitch": 70, "duration": 6, "velocity": 90}, {"time": 828, "pitch": 68, "duration": 6, "velocity": 89}, {"time": 834, "pitch": 67, "duration": 33, "velocity": 85}, {"time": 867, "pitch": 68, "duration": 9, "velocity": 103}, {"time": 876, "pitch": 67, "duration": 6, "velocity": 97}, {"time": 882, "pitch": 65, "duration": 24, "velocity": 96}, {"time": 906, "pitch": 63, "duration": 6, "velocity": 92}, {"time": 912, "pitch": 65, "duration": 12, "velocity": 94}, {"time": 924, "pitch": 65, "duration": 60, "velocity": 99}, {"time": 984, "pitch": 65, "duration": 6, "velocity": 82}, {"time": 990, "pitch": 65, "duration": 6, "velocity": 76}, {"time": 996, "pitch": 67, "duration": 6, "velocity": 66}, {"time": 1002, "pitch": 68, "duration": 6, "velocity": 68}, {"time": 1008, "pitch": 72, "duration": 6, "velocity": 79}, {"time": 1014, "pitch": 70, "duration": 6, "velocity": 96}, {"time": 1020, "pitch": 68, "duration": 6, "velocity": 84}, {"time": 1026, "pitch": 67, "duration": 30, "velocity": 90}, {"time": 1056, "pitch": 68, "duration": 12, "velocity": 93}, {"time": 1068, "pitch": 67, "duration": 6, "velocity": 83}, {"time": 1074, "pitch": 68, "duration": 12, "velocity": 79}, {"time": 1086, "pitch": 65, "duration": 12, "velocity": 80}, {"time": 1098, "pitch": 65, "duration": 6, "velocity": 77}, {"time": 1104, "pitch": 63, "duration": 12, "velocity": 80}, {"time": 1116, "pitch": 72, "duration": 60, "velocity": 87}, {"time": 1176, "pitch": 73, "duration": 6, "velocity": 65}, {"time": 1182, "pitch": 73, "duration": 6, "velocity": 87}, {"time": 1188, "pitch": 73, "duration": 6, "velocity": 77}, {"time": 1194, "pitch": 73, "duration": 6, "velocity": 89}, {"time": 1200, "pitch": 73, "duration": 6, "velocity": 89}, {"time": 1206, "pitch": 73, "duration": 6, "velocity": 92}, {"time": 1212, "pitch": 75, "duration": 6, "velocity": 84}, {"time": 1218, "pitch": 72, "duration": 18, "velocity": 76}, {"time": 1236, "pitch": 70, "duration": 18, "velocity": 63}, {"time": 1254, "pitch": 68, "duration": 6, "velocity": 90}, {"time": 1260, "pitch": 70, "duration": 6, "velocity": 87}, {"time": 1266, "pitch": 77, "duration": 12, "velocity": 90}, {"time": 1278, "pitch": 75, "duration": 12, "velocity": 98}, {"time": 1290, "pitch": 70, "duration": 12, "velocity": 97}, {"time": 1302, "pitch": 72, "duration": 6, "velocity": 82}, {"time": 1308, "pitch": 70, "duration": 12, "velocity": 90}, {"time": 1320, "pitch": 68, "duration": 30, "velocity": 90}, {"time": 1350, "pitch": 65, "duration": 6, "velocity": 82}, {"time": 1356, "pitch": 67, "duration": 6, "velocity": 81}, {"time": 1362, "pitch": 68, "duration": 18, "velocity": 90}, {"time": 1380, "pitch": 65, "duration": 18, "velocity": 68}, {"time": 1398, "pitch": 67, "duration": 6, "velocity": 97}, {"time": 1404, "pitch": 68, "duration": 6, "velocity": 86}, {"time": 1410, "pitch": 70, "duration": 12, "velocity": 96}, {"time": 1422, "pitch": 68, "duration": 12, "velocity": 90}, {"time": 1434, "pitch": 67, "duration": 6, "velocity": 76}, {"time": 1440, "pitch": 70, "duration": 12, "velocity": 100}, {"time": 1452, "pitch": 67, "duration": 12, "velocity": 93}, {"time": 1464, "pitch": 68, "duration": 6, "velocity": 62}, {"time": 1470, "pitch": 67, "duration": 90, "velocity": 74}, {"time": 1560, "pitch": 65, "duration": 6, "velocity": 82}, {"time": 1566, "pitch": 65, "duration": 6, "velocity": 90}, {"time": 1572, "pitch": 67, "duration": 6, "velocity": 79}, {"time": 1578, "pitch": 68, "duration": 6, "velocity": 76}, {"time": 1584, "pitch": 72, "duration": 6, "velocity": 90}, {"time": 1590, "pitch": 70, "duration": 6, "velocity": 96}, {"time": 1596, "pitch": 68, "duration": 6, "velocity": 92}, {"time": 1602, "pitch": 67, "duration": 36, "velocity": 101}, {"time": 1638, "pitch": 68, "duration": 6, "velocity": 103}, {"time": 1644, "pitch": 67, "duration": 6, "velocity": 77}, {"time": 1650, "pitch": 65, "duration": 12, "velocity": 93}, {"time": 1662, "pitch": 65, "duration": 12, "velocity": 96}, {"time": 1674, "pitch": 63, "duration": 6, "velocity": 94}, {"time": 1680, "pitch": 65, "duration": 12, "velocity": 91}, {"time": 1692, "pitch": 65, "duration": 60, "velocity": 95}, {"time": 1752, "pitch": 65, "duration": 6, "velocity": 93}, {"time": 1758, "pitch": 65, "duration": 6, "velocity": 91}, {"time": 1764, "pitch": 67, "duration": 6, "velocity": 71}, {"time": 1770, "pitch": 68, "duration": 6, "velocity": 84}, {"time": 1776, "pitch": 72, "duration": 6, "velocity": 86}, {"time": 1782, "pitch": 70, "duration": 6, "velocity": 84}, {"time": 1788, "pitch": 68, "duration": 6, "velocity": 72}, {"time": 1794, "pitch": 70, "duration": 3, "velocity": 65}, {"time": 1797, "pitch": 68, "duration": 3, "velocity": 68}, {"time": 1800, "pitch": 67, "duration": 24, "velocity": 65}, {"time": 1824, "pitch": 68, "duration": 12, "velocity": 100}, {"time": 1836, "pitch": 67, "duration": 6, "velocity": 90}, {"time": 1842, "pitch": 68, "duration": 12, "velocity": 91}, {"time": 1854, "pitch": 65, "duration": 12, "velocity": 92}, {"time": 1866, "pitch": 65, "duration": 6, "velocity": 91}, {"time": 1872, "pitch": 63, "duration": 12, "velocity": 86}, {"time": 1884, "pitch": 72, "duration": 12, "velocity": 103}, {"time": 1896, "pitch": 73, "duration": 6, "velocity": 92}, {"time": 1902, "pitch": 72, "duration": 12, "velocity": 96}, {"time": 1914, "pitch": 70, "duration": 6, "velocity": 96}, {"time": 1920, "pitch": 68, "duration": 24, "velocity": 90}, {"time": 1944, "pitch": 73, "duration": 6, "velocity": 104}, {"time": 1950, "pitch": 73, "duration": 6, "velocity": 97}, {"time": 1956, "pitch": 73, "duration": 6, "velocity": 96}, {"time": 1962, "pitch": 73, "duration": 6, "velocity": 96}, {"time": 1968, "pitch": 73, "duration": 6, "velocity": 95}, {"time": 1974, "pitch": 73, "duration": 6, "velocity": 92}, {"time": 1980, "pitch": 75, "duration": 6, "velocity": 91}, {"time": 1986, "pitch": 72, "duration": 18, "velocity": 99}, {"time": 2004, "pitch": 70, "duration": 18, "velocity": 61}, {"time": 2022, "pitch": 68, "duration": 6, "velocity": 91}, {"time": 2028, "pitch": 70, "duration": 6, "velocity": 93}, {"time": 2034, "pitch": 77, "duration": 12, "velocity": 90}, {"time": 2046, "pitch": 75, "duration": 12, "velocity": 98}, {"time": 2058, "pitch": 70, "duration": 12, "velocity": 91}, {"time": 2070, "pitch": 72, "duration": 6, "velocity": 87}, {"time": 2076, "pitch": 70, "duration": 12, "velocity": 93}, {"time": 2088, "pitch": 68, "duration": 30, "velocity": 91}, {"time": 2118, "pitch": 65, "duration": 6, "velocity": 93}, {"time": 2124, "pitch": 67, "duration": 6, "velocity": 93}, {"time": 2130, "pitch": 68, "duration": 18, "velocity": 97}, {"time": 2148, "pitch": 65, "duration": 18, "velocity": 84}, {"time": 2166, "pitch": 67, "duration": 6, "velocity": 97}, {"time": 2172, "pitch": 68, "duration": 6, "velocity": 91}, {"time": 2178, "pitch": 70, "duration": 12, "velocity": 99}, {"time": 2190, "pitch": 68, "duration": 12, "velocity": 87}, {"time": 2202, "pitch": 68, "duration": 6, "velocity": 93}, {"time": 2208, "pitch": 70, "duration": 12, "velocity": 93}, {"time": 2220, "pitch": 72, "duration": 12, "velocity": 97}, {"time": 2232, "pitch": 73, "duration": 6, "velocity": 96}, {"time": 2238, "pitch": 72, "duration": 72, "velocity": 95}, {"time": 2310, "pitch": 75, "duration": 6, "velocity": 105}, {"time": 2316, "pitch": 72, "duration": 6, "velocity": 84}, {"time": 2322, "pitch": 80, "duration": 15, "velocity": 91}, {"time": 2337, "pitch": 77, "duration": 18, "velocity": 106}, {"time": 2355, "pitch": 75, "duration": 6, "velocity": 101}, {"time": 2361, "pitch": 77, "duration": 9, "velocity": 97}, {"time": 2370, "pitch": 72, "duration": 18, "velocity": 100}, {"time": 2388, "pitch": 70, "duration": 18, "velocity": 87}, {"time": 2406, "pitch": 70, "duration": 6, "velocity": 97}, {"time": 2412, "pitch": 72, "duration": 6, "velocity": 85}, {"time": 2418, "pitch": 79, "duration": 18, "velocity": 96}, {"time": 2436, "pitch": 75, "duration": 12, "velocity": 100}, {"time": 2448, "pitch": 70, "duration": 6, "velocity": 94}, {"time": 2454, "pitch": 70, "duration": 6, "velocity": 94}, {"time": 2460, "pitch": 72, "duration": 6, "velocity": 98}, {"time": 2466, "pitch": 70, "duration": 18, "velocity": 99}, {"time": 2484, "pitch": 68, "duration": 18, "velocity": 97}, {"time": 2502, "pitch": 65, "duration": 6, "velocity": 91}, {"time": 2508, "pitch": 68, "duration": 6, "velocity": 91}, {"time": 2514, "pitch": 72, "duration": 9, "velocity": 103}, {"time": 2523, "pitch": 70, "duration": 9, "velocity": 101}, {"time": 2532, "pitch": 68, "duration": 6, "velocity": 92}, {"time": 2538, "pitch": 70, "duration": 6, "velocity": 100}, {"time": 2544, "pitch": 68, "duration": 9, "velocity": 101}, {"time": 2553, "pitch": 65, "duration": 9, "velocity": 87}, {"time": 2562, "pitch": 77, "duration": 12, "velocity": 81}, {"time": 2574, "pitch": 75, "duration": 12, "velocity": 101}, {"time": 2586, "pitch": 75, "duration": 6, "velocity": 103}, {"time": 2592, "pitch": 72, "duration": 12, "velocity": 95}, {"time": 2604, "pitch": 63, "duration": 6, "velocity": 91}, {"time": 2610, "pitch": 72, "duration": 84, "velocity": 97}, {"time": 2694, "pitch": 75, "duration": 6, "velocity": 105}, {"time": 2700, "pitch": 72, "duration": 6, "velocity": 94}, {"time": 2706, "pitch": 80, "duration": 18, "velocity": 97}, {"time": 2724, "pitch": 77, "duration": 18, "velocity": 109}, {"time": 2742, "pitch": 75, "duration": 6, "velocity": 111}, {"time": 2748, "pitch": 77, "duration": 6, "velocity": 90}, {"time": 2754, "pitch": 72, "duration": 18, "velocity": 97}, {"time": 2772, "pitch": 70, "duration": 18, "velocity": 108}, {"time": 2790, "pitch": 70, "duration": 6, "velocity": 105}, {"time": 2796, "pitch": 72, "duration": 6, "velocity": 93}, {"time": 2802, "pitch": 79, "duration": 18, "velocity": 97}, {"time": 2820, "pitch": 75, "duration": 18, "velocity": 105}, {"time": 2838, "pitch": 70, "duration": 6, "velocity": 103}, {"time": 2844, "pitch": 72, "duration": 6, "velocity": 90}, {"time": 2850, "pitch": 70, "duration": 18, "velocity": 94}, {"time": 2868, "pitch": 68, "duration": 18, "velocity": 103}, {"time": 2886, "pitch": 65, "duration": 6, "velocity": 91}, {"time": 2892, "pitch": 68, "duration": 6, "velocity": 82}, {"time": 2898, "pitch": 72, "duration": 6, "velocity": 97}, {"time": 2904, "pitch": 70, "duration": 6, "velocity": 90}, {"time": 2910, "pitch": 70, "duration": 6, "velocity": 83}, {"time": 2916, "pitch": 68, "duration": 6, "velocity": 87}, {"time": 2922, "pitch": 70, "duration": 12, "velocity": 97}, {"time": 2934, "pitch": 68, "duration": 6, "velocity": 97}, {"time": 2940, "pitch": 65, "duration": 6, "velocity": 94}, {"time": 2946, "pitch": 77, "duration": 12, "velocity": 90}, {"time": 2958, "pitch": 75, "duration": 12, "velocity": 98}, {"time": 2970, "pitch": 72, "duration": 6, "velocity": 109}, {"time": 2976, "pitch": 70, "duration": 6, "velocity": 97}, {"time": 2982, "pitch": 68, "duration": 6, "velocity": 97}, {"time": 2988, "pitch": 65, "duration": 6, "velocity": 87}, {"time": 2994, "pitch": 68, "duration": 96, "velocity": 87}, {"time": 3864, "pitch": 65, "duration": 6, "velocity": 64}, {"time": 3870, "pitch": 65, "duration": 6, "velocity": 66}, {"time": 3876, "pitch": 67, "duration": 6, "velocity": 74}, {"time": 3882, "pitch": 68, "duration": 6, "velocity": 65}, {"time": 3888, "pitch": 72, "duration": 6, "velocity": 83}, {"time": 3894, "pitch": 70, "duration": 6, "velocity": 90}, {"time": 3900, "pitch": 68, "duration": 9, "velocity": 89}, {"time": 3906, "pitch": 67, "duration": 33, "velocity": 85}, {"time": 3942, "pitch": 68, "duration": 9, "velocity": 103}, {"time": 3948, "pitch": 67, "duration": 6, "velocity": 97}, {"time": 3954, "pitch": 65, "duration": 12, "velocity": 96}, {"time": 3966, "pitch": 65, "duration": 12, "velocity": 96}, {"time": 3978, "pitch": 63, "duration": 6, "velocity": 92}, {"time": 3984, "pitch": 65, "duration": 12, "velocity": 94}, {"time": 3996, "pitch": 65, "duration": 60, "velocity": 99}, {"time": 4056, "pitch": 65, "duration": 6, "velocity": 82}, {"time": 4062, "pitch": 65, "duration": 6, "velocity": 76}, {"time": 4068, "pitch": 67, "duration": 6, "velocity": 66}, {"time": 4074, "pitch": 68, "duration": 6, "velocity": 68}, {"time": 4080, "pitch": 72, "duration": 6, "velocity": 79}, {"time": 4086, "pitch": 70, "duration": 6, "velocity": 96}, {"time": 4092, "pitch": 68, "duration": 6, "velocity": 84}, {"time": 4098, "pitch": 67, "duration": 30, "velocity": 90}, {"time": 4131, "pitch": 68, "duration": 9, "velocity": 93}, {"time": 4140, "pitch": 67, "duration": 6, "velocity": 83}, {"time": 4146, "pitch": 68, "duration": 12, "velocity": 79}, {"time": 4158, "pitch": 65, "duration": 12, "velocity": 80}, {"time": 4170, "pitch": 65, "duration": 6, "velocity": 77}, {"time": 4176, "pitch": 63, "duration": 12, "velocity": 80}, {"time": 4188, "pitch": 72, "duration": 15, "velocity": 87}, {"time": 4203, "pitch": 73, "duration": 6, "velocity": 87}, {"time": 4209, "pitch": 72, "duration": 15, "velocity": 87}, {"time": 4224, "pitch": 70, "duration": 6, "velocity": 87}, {"time": 4230, "pitch": 68, "duration": 15, "velocity": 87}, {"time": 4242, "pitch": 73, "duration": 12, "velocity": 96}, {"time": 4254, "pitch": 73, "duration": 12, "velocity": 98}, {"time": 4266, "pitch": 73, "duration": 12, "velocity": 99}, {"time": 4278, "pitch": 72, "duration": 6, "velocity": 101}, {"time": 4284, "pitch": 73, "duration": 6, "velocity": 95}, {"time": 4290, "pitch": 72, "duration": 6, "velocity": 93}, {"time": 4296, "pitch": 73, "duration": 6, "velocity": 92}, {"time": 4302, "pitch": 72, "duration": 6, "velocity": 85}, {"time": 4308, "pitch": 70, "duration": 15, "velocity": 97}, {"time": 4326, "pitch": 68, "duration": 6, "velocity": 90}, {"time": 4332, "pitch": 70, "duration": 6, "velocity": 87}, {"time": 4338, "pitch": 77, "duration": 12, "velocity": 90}, {"time": 4350, "pitch": 75, "duration": 15, "velocity": 98}, {"time": 4362, "pitch": 70, "duration": 12, "velocity": 97}, {"time": 4374, "pitch": 72, "duration": 6, "velocity": 82}, {"time": 4380, "pitch": 70, "duration": 12, "velocity": 90}, {"time": 4392, "pitch": 68, "duration": 27, "velocity": 90}, {"time": 4422, "pitch": 65, "duration": 6, "velocity": 82}, {"time": 4428, "pitch": 67, "duration": 6, "velocity": 81}, {"time": 4434, "pitch": 68, "duration": 21, "velocity": 90}, {"time": 4452, "pitch": 65, "duration": 18, "velocity": 68}, {"time": 4470, "pitch": 67, "duration": 6, "velocity": 97}, {"time": 4476, "pitch": 68, "duration": 6, "velocity": 86}, {"time": 4482, "pitch": 70, "duration": 12, "velocity": 96}, {"time": 4494, "pitch": 68, "duration": 12, "velocity": 90}, {"time": 4506, "pitch": 68, "duration": 6, "velocity": 76}, {"time": 4512, "pitch": 70, "duration": 12, "velocity": 100}, {"time": 4524, "pitch": 72, "duration": 9, "velocity": 93}, {"time": 4533, "pitch": 73, "duration": 6, "velocity": 62}, {"time": 4539, "pitch": 72, "duration": 75, "velocity": 74}, {"time": 4614, "pitch": 75, "duration": 6, "velocity": 105}, {"time": 4620, "pitch": 72, "duration": 6, "velocity": 84}, {"time": 4626, "pitch": 80, "duration": 15, "velocity": 91}, {"time": 4644, "pitch": 77, "duration": 18, "velocity": 106}, {"time": 4662, "pitch": 75, "duration": 9, "velocity": 101}, {"time": 4668, "pitch": 77, "duration": 6, "velocity": 97}, {"time": 4674, "pitch": 72, "duration": 18, "velocity": 100}, {"time": 4692, "pitch": 70, "duration": 18, "velocity": 87}, {"time": 4710, "pitch": 70, "duration": 6, "velocity": 97}, {"time": 4716, "pitch": 72, "duration": 6, "velocity": 85}, {"time": 4722, "pitch": 79, "duration": 18, "velocity": 96}, {"time": 4740, "pitch": 75, "duration": 12, "velocity": 100}, {"time": 4752, "pitch": 70, "duration": 6, "velocity": 94}, {"time": 4758, "pitch": 70, "duration": 6, "velocity": 94}, {"time": 4764, "pitch": 72, "duration": 6, "velocity": 98}, {"time": 4770, "pitch": 70, "duration": 18, "velocity": 99}, {"time": 4788, "pitch": 68, "duration": 18, "velocity": 97}, {"time": 4806, "pitch": 65, "duration": 6, "velocity": 91}, {"time": 4812, "pitch": 68, "duration": 6, "velocity": 91}, {"time": 4818, "pitch": 72, "duration": 9, "velocity": 103}, {"time": 4827, "pitch": 70, "duration": 9, "velocity": 101}, {"time": 4836, "pitch": 68, "duration": 6, "velocity": 92}, {"time": 4842, "pitch": 70, "duration": 6, "velocity": 100}, {"time": 4848, "pitch": 68, "duration": 9, "velocity": 101}, {"time": 4857, "pitch": 65, "duration": 9, "velocity": 87}, {"time": 4866, "pitch": 77, "duration": 9, "velocity": 81}, {"time": 4878, "pitch": 75, "duration": 15, "velocity": 101}, {"time": 4890, "pitch": 75, "duration": 3, "velocity": 103}, {"time": 4899, "pitch": 72, "duration": 9, "velocity": 95}, {"time": 4908, "pitch": 63, "duration": 6, "velocity": 91}, {"time": 4914, "pitch": 72, "duration": 84, "velocity": 97}, {"time": 4998, "pitch": 75, "duration": 6, "velocity": 105}, {"time": 5004, "pitch": 72, "duration": 6, "velocity": 94}, {"time": 5010, "pitch": 80, "duration": 18, "velocity": 97}, {"time": 5028, "pitch": 77, "duration": 18, "velocity": 109}, {"time": 5046, "pitch": 75, "duration": 6, "velocity": 111}, {"time": 5052, "pitch": 77, "duration": 6, "velocity": 90}, {"time": 5058, "pitch": 72, "duration": 18, "velocity": 97}, {"time": 5076, "pitch": 70, "duration": 18, "velocity": 108}, {"time": 5094, "pitch": 70, "duration": 6, "velocity": 105}, {"time": 5100, "pitch": 72, "duration": 6, "velocity": 93}, {"time": 5106, "pitch": 79, "duration": 18, "velocity": 97}, {"time": 5124, "pitch": 75, "duration": 18, "velocity": 105}, {"time": 5142, "pitch": 70, "duration": 6, "velocity": 103}, {"time": 5148, "pitch": 72, "duration": 6, "velocity": 90}, {"time": 5154, "pitch": 70, "duration": 18, "velocity": 94}, {"time": 5172, "pitch": 68, "duration": 18, "velocity": 103}, {"time": 5190, "pitch": 65, "duration": 6, "velocity": 91}, {"time": 5196, "pitch": 68, "duration": 6, "velocity": 82}, {"time": 5202, "pitch": 72, "duration": 6, "velocity": 97}, {"time": 5208, "pitch": 70, "duration": 6, "velocity": 90}, {"time": 5214, "pitch": 70, "duration": 6, "velocity": 83}, {"time": 5220, "pitch": 68, "duration": 6, "velocity": 87}, {"time": 5226, "pitch": 70, "duration": 12, "velocity": 97}, {"time": 5238, "pitch": 68, "duration": 6, "velocity": 97}, {"time": 5244, "pitch": 65, "duration": 6, "velocity": 94}, {"time": 5250, "pitch": 77, "duration": 12, "velocity": 90}, {"time": 5262, "pitch": 75, "duration": 12, "velocity": 98}, {"time": 5274, "pitch": 72, "duration": 6, "velocity": 109}, {"time": 5280, "pitch": 68, "duration": 9, "velocity": 97}, {"time": 5292, "pitch": 65, "duration": 9, "velocity": 87}, {"time": 5298, "pitch": 70, "duration": 6, "velocity": 105}, {"time": 5304, "pitch": 68, "duration": 78, "velocity": 105}, {"time": 5382, "pitch": 75, "duration": 6, "velocity": 105}, {"time": 5388, "pitch": 72, "duration": 6, "velocity": 94}, {"time": 5394, "pitch": 80, "duration": 18, "velocity": 97}, {"time": 5412, "pitch": 77, "duration": 18, "velocity": 109}, {"time": 5430, "pitch": 75, "duration": 6, "velocity": 111}, {"time": 5436, "pitch": 77, "duration": 6, "velocity": 90}, {"time": 5442, "pitch": 72, "duration": 18, "velocity": 97}, {"time": 5460, "pitch": 70, "duration": 18, "velocity": 108}, {"time": 5478, "pitch": 70, "duration": 6, "velocity": 105}, {"time": 5484, "pitch": 72, "duration": 6, "velocity": 93}, {"time": 5490, "pitch": 79, "duration": 18, "velocity": 97}, {"time": 5508, "pitch": 75, "duration": 12, "velocity": 105}, {"time": 5520, "pitch": 70, "duration": 6, "velocity": 100}, {"time": 5526, "pitch": 70, "duration": 6, "velocity": 103}, {"time": 5532, "pitch": 72, "duration": 6, "velocity": 90}, {"time": 5538, "pitch": 70, "duration": 18, "velocity": 94}, {"time": 5556, "pitch": 68, "duration": 18, "velocity": 103}, {"time": 5574, "pitch": 65, "duration": 6, "velocity": 91}, {"time": 5580, "pitch": 68, "duration": 6, "velocity": 82}, {"time": 5586, "pitch": 72, "duration": 6, "velocity": 97}, {"time": 5592, "pitch": 70, "duration": 12, "velocity": 90}, {"time": 5604, "pitch": 68, "duration": 6, "velocity": 87}, {"time": 5610, "pitch": 70, "duration": 9, "velocity": 97}, {"time": 5619, "pitch": 68, "duration": 9, "velocity": 97}, {"time": 5628, "pitch": 65, "duration": 6, "velocity": 94}, {"time": 5634, "pitch": 77, "duration": 12, "velocity": 90}, {"time": 5646, "pitch": 75, "duration": 12, "velocity": 98}, {"time": 5658, "pitch": 77, "duration": 6, "velocity": 109}, {"time": 5664, "pitch": 75, "duration": 12, "velocity": 97}, {"time": 5676, "pitch": 70, "duration": 15, "velocity": 87}, {"time": 5691, "pitch": 72, "duration": 75, "velocity": 105}, {"time": 5766, "pitch": 75, "duration": 6, "velocity": 105}, {"time": 5772, "pitch": 72, "duration": 6, "velocity": 94}, {"time": 5778, "pitch": 80, "duration": 18, "velocity": 97}, {"time": 5796, "pitch": 77, "duration": 18, "velocity": 109}, {"time": 5814, "pitch": 75, "duration": 6, "velocity": 111}, {"time": 5820, "pitch": 77, "duration": 6, "velocity": 90}, {"time": 5826, "pitch": 72, "duration": 18, "velocity": 97}, {"time": 5844, "pitch": 70, "duration": 18, "velocity": 108}, {"time": 5862, "pitch": 70, "duration": 6, "velocity": 105}, {"time": 5868, "pitch": 72, "duration": 6, "velocity": 93}, {"time": 5874, "pitch": 79, "duration": 18, "velocity": 97}, {"time": 5892, "pitch": 75, "duration": 12, "velocity": 105}, {"time": 5904, "pitch": 70, "duration": 12, "velocity": 100}, {"time": 5916, "pitch": 72, "duration": 6, "velocity": 90}, {"time": 5922, "pitch": 70, "duration": 18, "velocity": 94}, {"time": 5940, "pitch": 68, "duration": 18, "velocity": 103}, {"time": 5958, "pitch": 65, "duration": 6, "velocity": 91}, {"time": 5964, "pitch": 68, "duration": 6, "velocity": 82}, {"time": 5970, "pitch": 72, "duration": 6, "velocity": 97}, {"time": 5976, "pitch": 70, "duration": 12, "velocity": 90}, {"time": 5988, "pitch": 68, "duration": 6, "velocity": 87}, {"time": 5994, "pitch": 70, "duration": 9, "velocity": 97}, {"time": 6003, "pitch": 68, "duration": 9, "velocity": 97}, {"time": 6012, "pitch": 65, "duration": 6, "velocity": 94}, {"time": 6018, "pitch": 77, "duration": 12, "velocity": 90}, {"time": 6030, "pitch": 75, "duration": 12, "velocity": 98}, {"time": 6042, "pitch": 72, "duration": 6, "velocity": 109}, {"time": 6048, "pitch": 68, "duration": 12, "velocity": 97}, {"time": 6060, "pitch": 65, "duration": 12, "velocity": 87}, {"time": 6072, "pitch": 68, "duration": 42, "velocity": 105}]}, {"program": 0, "is_drum": false, "name": "PIANO", "notes": [{"time": 18, "pitch": 41, "duration": 6, "velocity": 73}, {"time": 24, "pitch": 48, "duration": 6, "velocity": 62}, {"time": 30, "pitch": 53, "duration": 6, "velocity": 62}, {"time": 36, "pitch": 65, "duration": 6, "velocity": 62}, {"time": 42, "pitch": 72, "duration": 6, "velocity": 62}, {"time": 48, "pitch": 77, "duration": 6, "velocity": 62}, {"time": 54, "pitch": 80, "duration": 6, "velocity": 62}, {"time": 66, "pitch": 41, "duration": 38, "velocity": 64}, {"time": 72, "pitch": 48, "duration": 29, "velocity": 52}, {"time": 78, "pitch": 53, "duration": 22, "velocity": 66}, {"time": 84, "pitch": 55, "duration": 6, "velocity": 72}, {"time": 90, "pitch": 56, "duration": 3, "velocity": 61}, {"time": 96, "pitch": 60, "duration": 7, "velocity": 69}, {"time": 102, "pitch": 65, "duration": 6, "velocity": 59}, {"time": 108, "pitch": 68, "duration": 7, "velocity": 66}, {"time": 114, "pitch": 39, "duration": 11, "velocity": 43}, {"time": 114, "pitch": 58, "duration": 24, "velocity": 58}, {"time": 114, "pitch": 63, "duration": 23, "velocity": 61}, {"time": 114, "pitch": 67, "duration": 24, "velocity": 69}, {"time": 120, "pitch": 46, "duration": 6, "velocity": 50}, {"time": 126, "pitch": 51, "duration": 6, "velocity": 46}, {"time": 132, "pitch": 53, "duration": 10, "velocity": 57}, {"time": 138, "pitch": 55, "duration": 5, "velocity": 66}, {"time": 144, "pitch": 58, "duration": 8, "velocity": 73}, {"time": 150, "pitch": 70, "duration": 36, "velocity": 75}, {"time": 156, "pitch": 58, "duration": 2, "velocity": 29}, {"time": 156, "pitch": 63, "duration": 8, "velocity": 60}, {"time": 162, "pitch": 39, "duration": 9, "velocity": 64}, {"time": 162, "pitch": 67, "duration": 8, "velocity": 64}, {"time": 168, "pitch": 46, "duration": 5, "velocity": 52}, {"time": 168, "pitch": 63, "duration": 6, "velocity": 55}, {"time": 174, "pitch": 51, "duration": 7, "velocity": 40}, {"time": 174, "pitch": 58, "duration": 8, "velocity": 40}, {"time": 180, "pitch": 53, "duration": 16, "velocity": 63}, {"time": 180, "pitch": 63, "duration": 7, "velocity": 57}, {"time": 186, "pitch": 55, "duration": 9, "velocity": 64}, {"time": 186, "pitch": 67, "duration": 7, "velocity": 60}, {"time": 192, "pitch": 58, "duration": 8, "velocity": 48}, {"time": 198, "pitch": 63, "duration": 7, "velocity": 58}, {"time": 204, "pitch": 68, "duration": 8, "velocity": 56}, {"time": 210, "pitch": 37, "duration": 11, "velocity": 54}, {"time": 210, "pitch": 56, "duration": 23, "velocity": 59}, {"time": 210, "pitch": 61, "duration": 23, "velocity": 61}, {"time": 210, "pitch": 65, "duration": 23, "velocity": 56}, {"time": 216, "pitch": 44, "duration": 6, "velocity": 59}, {"time": 222, "pitch": 49, "duration": 7, "velocity": 46}, {"time": 228, "pitch": 51, "duration": 10, "velocity": 67}, {"time": 234, "pitch": 53, "duration": 5, "velocity": 67}, {"time": 240, "pitch": 56, "duration": 9, "velocity": 56}, {"time": 246, "pitch": 61, "duration": 9, "velocity": 67}, {"time": 252, "pitch": 63, "duration": 6, "velocity": 66}, {"time": 258, "pitch": 37, "duration": 11, "velocity": 64}, {"time": 258, "pitch": 56, "duration": 22, "velocity": 56}, {"time": 258, "pitch": 61, "duration": 23, "velocity": 54}, {"time": 258, "pitch": 65, "duration": 24, "velocity": 61}, {"time": 264, "pitch": 44, "duration": 6, "velocity": 61}, {"time": 270, "pitch": 49, "duration": 8, "velocity": 50}, {"time": 276, "pitch": 51, "duration": 13, "velocity": 49}, {"time": 282, "pitch": 53, "duration": 7, "velocity": 72}, {"time": 288, "pitch": 56, "duration": 4, "velocity": 54}, {"time": 294, "pitch": 61, "duration": 7, "velocity": 60}, {"time": 300, "pitch": 65, "duration": 25, "velocity": 60}, {"time": 306, "pitch": 36, "duration": 5, "velocity": 64}, {"time": 312, "pitch": 48, "duration": 8, "velocity": 48}, {"time": 318, "pitch": 53, "duration": 6, "velocity": 66}, {"time": 324, "pitch": 55, "duration": 6, "velocity": 49}, {"time": 330, "pitch": 60, "duration": 8, "velocity": 53}, {"time": 336, "pitch": 65, "duration": 7, "velocity": 62}, {"time": 342, "pitch": 67, "duration": 6, "velocity": 58}, {"time": 348, "pitch": 70, "duration": 14, "velocity": 44}, {"time": 354, "pitch": 36, "duration": 36, "velocity": 70}, {"time": 354, "pitch": 64, "duration": 10, "velocity": 63}, {"time": 360, "pitch": 48, "duration": 33, "velocity": 64}, {"time": 366, "pitch": 60, "duration": 8, "velocity": 52}, {"time": 372, "pitch": 72, "duration": 15, "velocity": 76}, {"time": 384, "pitch": 70, "duration": 6, "velocity": 58}, {"time": 390, "pitch": 68, "duration": 5, "velocity": 60}, {"time": 396, "pitch": 67, "duration": 6, "velocity": 59}, {"time": 402, "pitch": 41, "duration": 42, "velocity": 66}, {"time": 402, "pitch": 53, "duration": 14, "velocity": 67}, {"time": 402, "pitch": 56, "duration": 4, "velocity": 73}, {"time": 402, "pitch": 60, "duration": 5, "velocity": 75}, {"time": 402, "pitch": 65, "duration": 7, "velocity": 76}, {"time": 408, "pitch": 56, "duration": 4, "velocity": 50}, {"time": 408, "pitch": 63, "duration": 6, "velocity": 67}, {"time": 414, "pitch": 60, "duration": 6, "velocity": 66}, {"time": 414, "pitch": 65, "duration": 4, "velocity": 63}, {"time": 414, "pitch": 65, "duration": 4, "velocity": 101}, {"time": 420, "pitch": 53, "duration": 8, "velocity": 85}, {"time": 420, "pitch": 56, "duration": 1, "velocity": 46}, {"time": 420, "pitch": 65, "duration": 1, "velocity": 66}, {"time": 420, "pitch": 67, "duration": 7, "velocity": 85}, {"time": 426, "pitch": 60, "duration": 4, "velocity": 75}, {"time": 426, "pitch": 68, "duration": 5, "velocity": 78}, {"time": 426, "pitch": 68, "duration": 5, "velocity": 88}, {"time": 432, "pitch": 53, "duration": 9, "velocity": 58}, {"time": 432, "pitch": 60, "duration": 1, "velocity": 31}, {"time": 432, "pitch": 72, "duration": 6, "velocity": 85}, {"time": 438, "pitch": 60, "duration": 4, "velocity": 80}, {"time": 438, "pitch": 67, "duration": 5, "velocity": 85}, {"time": 438, "pitch": 77, "duration": 7, "velocity": 95}, {"time": 444, "pitch": 48, "duration": 4, "velocity": 72}, {"time": 444, "pitch": 68, "duration": 5, "velocity": 69}, {"time": 444, "pitch": 80, "duration": 7, "velocity": 101}, {"time": 450, "pitch": 39, "duration": 9, "velocity": 78}, {"time": 450, "pitch": 58, "duration": 9, "velocity": 88}, {"time": 450, "pitch": 63, "duration": 8, "velocity": 85}, {"time": 450, "pitch": 67, "duration": 12, "velocity": 93}, {"time": 450, "pitch": 68, "duration": 2, "velocity": 69}, {"time": 450, "pitch": 79, "duration": 15, "velocity": 106}, {"time": 456, "pitch": 46, "duration": 5, "velocity": 61}, {"time": 462, "pitch": 51, "duration": 8, "velocity": 55}, {"time": 462, "pitch": 58, "duration": 4, "velocity": 54}, {"time": 462, "pitch": 65, "duration": 5, "velocity": 63}, {"time": 468, "pitch": 53, "duration": 19, "velocity": 78}, {"time": 468, "pitch": 58, "duration": 8, "velocity": 66}, {"time": 468, "pitch": 67, "duration": 8, "velocity": 88}, {"time": 468, "pitch": 75, "duration": 12, "velocity": 106}, {"time": 474, "pitch": 55, "duration": 12, "velocity": 70}, {"time": 480, "pitch": 58, "duration": 4, "velocity": 97}, {"time": 486, "pitch": 63, "duration": 5, "velocity": 91}, {"time": 489, "pitch": 65, "duration": 6, "velocity": 69}, {"time": 492, "pitch": 67, "duration": 4, "velocity": 67}, {"time": 495, "pitch": 68, "duration": 27, "velocity": 72}, {"time": 498, "pitch": 37, "duration": 9, "velocity": 70}, {"time": 498, "pitch": 56, "duration": 11, "velocity": 97}, {"time": 498, "pitch": 61, "duration": 22, "velocity": 91}, {"time": 498, "pitch": 65, "duration": 22, "velocity": 93}, {"time": 504, "pitch": 44, "duration": 5, "velocity": 73}, {"time": 510, "pitch": 49, "duration": 9, "velocity": 75}, {"time": 516, "pitch": 51, "duration": 15, "velocity": 75}, {"time": 522, "pitch": 53, "duration": 9, "velocity": 91}, {"time": 528, "pitch": 56, "duration": 4, "velocity": 95}, {"time": 534, "pitch": 61, "duration": 5, "velocity": 97}, {"time": 540, "pitch": 68, "duration": 11, "velocity": 75}, {"time": 546, "pitch": 37, "duration": 17, "velocity": 75}, {"time": 552, "pitch": 49, "duration": 12, "velocity": 76}, {"time": 552, "pitch": 56, "duration": 1, "velocity": 47}, {"time": 552, "pitch": 68, "duration": 4, "velocity": 45}, {"time": 558, "pitch": 56, "duration": 4, "velocity": 85}, {"time": 558, "pitch": 65, "duration": 5, "velocity": 88}, {"time": 558, "pitch": 68, "duration": 1, "velocity": 39}, {"time": 564, "pitch": 65, "duration": 1, "velocity": 43}, {"time": 564, "pitch": 68, "duration": 4, "velocity": 82}, {"time": 570, "pitch": 39, "duration": 19, "velocity": 76}, {"time": 570, "pitch": 58, "duration": 9, "velocity": 91}, {"time": 570, "pitch": 67, "duration": 11, "velocity": 103}, {"time": 576, "pitch": 51, "duration": 9, "velocity": 64}, {"time": 582, "pitch": 58, "duration": 2, "velocity": 54}, {"time": 582, "pitch": 63, "duration": 5, "velocity": 99}, {"time": 582, "pitch": 70, "duration": 2, "velocity": 78}, {"time": 588, "pitch": 51, "duration": 3, "velocity": 75}, {"time": 588, "pitch": 65, "duration": 6, "velocity": 85}, {"time": 588, "pitch": 67, "duration": 2, "velocity": 82}, {"time": 594, "pitch": 41, "duration": 10, "velocity": 78}, {"time": 594, "pitch": 60, "duration": 10, "velocity": 85}, {"time": 594, "pitch": 63, "duration": 18, "velocity": 75}, {"time": 594, "pitch": 68, "duration": 13, "velocity": 66}, {"time": 600, "pitch": 48, "duration": 5, "velocity": 66}, {"time": 606, "pitch": 53, "duration": 8, "velocity": 69}, {"time": 606, "pitch": 60, "duration": 4, "velocity": 76}, {"time": 606, "pitch": 65, "duration": 7, "velocity": 99}, {"time": 612, "pitch": 55, "duration": 18, "velocity": 59}, {"time": 612, "pitch": 60, "duration": 7, "velocity": 72}, {"time": 612, "pitch": 67, "duration": 7, "velocity": 80}, {"time": 618, "pitch": 56, "duration": 12, "velocity": 69}, {"time": 618, "pitch": 68, "duration": 4, "velocity": 85}, {"time": 624, "pitch": 60, "duration": 8, "velocity": 97}, {"time": 624, "pitch": 72, "duration": 8, "velocity": 97}, {"time": 630, "pitch": 65, "duration": 7, "velocity": 93}, {"time": 630, "pitch": 77, "duration": 6, "velocity": 99}, {"time": 633, "pitch": 67, "duration": 4, "velocity": 70}, {"time": 636, "pitch": 68, "duration": 7, "velocity": 70}, {"time": 636, "pitch": 80, "duration": 5, "velocity": 97}, {"time": 642, "pitch": 39, "duration": 9, "velocity": 72}, {"time": 642, "pitch": 58, "duration": 24, "velocity": 76}, {"time": 642, "pitch": 63, "duration": 17, "velocity": 73}, {"time": 642, "pitch": 67, "duration": 24, "velocity": 75}, {"time": 642, "pitch": 79, "duration": 17, "velocity": 106}, {"time": 648, "pitch": 46, "duration": 5, "velocity": 47}, {"time": 654, "pitch": 51, "duration": 8, "velocity": 66}, {"time": 660, "pitch": 53, "duration": 18, "velocity": 54}, {"time": 660, "pitch": 75, "duration": 12, "velocity": 106}, {"time": 666, "pitch": 55, "duration": 10, "velocity": 72}, {"time": 669, "pitch": 58, "duration": 4, "velocity": 76}, {"time": 672, "pitch": 63, "duration": 4, "velocity": 62}, {"time": 675, "pitch": 65, "duration": 2, "velocity": 80}, {"time": 678, "pitch": 67, "duration": 5, "velocity": 88}, {"time": 681, "pitch": 68, "duration": 5, "velocity": 69}, {"time": 684, "pitch": 70, "duration": 4, "velocity": 64}, {"time": 687, "pitch": 72, "duration": 3, "velocity": 70}, {"time": 690, "pitch": 37, "duration": 8, "velocity": 78}, {"time": 690, "pitch": 73, "duration": 18, "velocity": 48}, {"time": 696, "pitch": 44, "duration": 5, "velocity": 70}, {"time": 702, "pitch": 49, "duration": 8, "velocity": 59}, {"time": 708, "pitch": 51, "duration": 15, "velocity": 53}, {"time": 714, "pitch": 53, "duration": 9, "velocity": 73}, {"time": 720, "pitch": 56, "duration": 5, "velocity": 85}, {"time": 726, "pitch": 61, "duration": 5, "velocity": 80}, {"time": 732, "pitch": 63, "duration": 5, "velocity": 73}, {"time": 738, "pitch": 37, "duration": 16, "velocity": 75}, {"time": 738, "pitch": 56, "duration": 9, "velocity": 82}, {"time": 738, "pitch": 61, "duration": 9, "velocity": 80}, {"time": 738, "pitch": 68, "duration": 10, "velocity": 75}, {"time": 744, "pitch": 49, "duration": 11, "velocity": 66}, {"time": 750, "pitch": 56, "duration": 5, "velocity": 80}, {"time": 756, "pitch": 68, "duration": 4, "velocity": 66}, {"time": 762, "pitch": 39, "duration": 15, "velocity": 85}, {"time": 762, "pitch": 58, "duration": 8, "velocity": 88}, {"time": 762, "pitch": 63, "duration": 8, "velocity": 93}, {"time": 762, "pitch": 67, "duration": 9, "velocity": 99}, {"time": 768, "pitch": 51, "duration": 8, "velocity": 73}, {"time": 774, "pitch": 65, "duration": 5, "velocity": 78}, {"time": 780, "pitch": 67, "duration": 4, "velocity": 72}, {"time": 786, "pitch": 41, "duration": 11, "velocity": 62}, {"time": 786, "pitch": 60, "duration": 24, "velocity": 70}, {"time": 786, "pitch": 68, "duration": 24, "velocity": 78}, {"time": 792, "pitch": 48, "duration": 6, "velocity": 53}, {"time": 798, "pitch": 53, "duration": 8, "velocity": 47}, {"time": 804, "pitch": 55, "duration": 10, "velocity": 59}, {"time": 810, "pitch": 56, "duration": 5, "velocity": 73}, {"time": 816, "pitch": 60, "duration": 4, "velocity": 54}, {"time": 822, "pitch": 65, "duration": 5, "velocity": 62}, {"time": 828, "pitch": 68, "duration": 5, "velocity": 66}, {"time": 834, "pitch": 39, "duration": 10, "velocity": 70}, {"time": 834, "pitch": 58, "duration": 29, "velocity": 54}, {"time": 834, "pitch": 63, "duration": 25, "velocity": 61}, {"time": 834, "pitch": 67, "duration": 28, "velocity": 67}, {"time": 840, "pitch": 46, "duration": 5, "velocity": 49}, {"time": 846, "pitch": 51, "duration": 8, "velocity": 48}, {"time": 852, "pitch": 53, "duration": 17, "velocity": 43}, {"time": 858, "pitch": 55, "duration": 11, "velocity": 73}, {"time": 870, "pitch": 63, "duration": 12, "velocity": 60}, {"time": 882, "pitch": 37, "duration": 44, "velocity": 63}, {"time": 882, "pitch": 56, "duration": 8, "velocity": 66}, {"time": 882, "pitch": 61, "duration": 9, "velocity": 69}, {"time": 882, "pitch": 65, "duration": 10, "velocity": 66}, {"time": 888, "pitch": 44, "duration": 37, "velocity": 47}, {"time": 894, "pitch": 49, "duration": 8, "velocity": 46}, {"time": 894, "pitch": 56, "duration": 3, "velocity": 45}, {"time": 894, "pitch": 63, "duration": 5, "velocity": 61}, {"time": 900, "pitch": 56, "duration": 4, "velocity": 66}, {"time": 900, "pitch": 65, "duration": 8, "velocity": 72}, {"time": 906, "pitch": 49, "duration": 6, "velocity": 40}, {"time": 912, "pitch": 58, "duration": 5, "velocity": 61}, {"time": 912, "pitch": 68, "duration": 8, "velocity": 69}, {"time": 918, "pitch": 49, "duration": 8, "velocity": 44}, {"time": 924, "pitch": 58, "duration": 7, "velocity": 53}, {"time": 924, "pitch": 67, "duration": 5, "velocity": 57}, {"time": 930, "pitch": 37, "duration": 14, "velocity": 61}, {"time": 936, "pitch": 49, "duration": 9, "velocity": 53}, {"time": 936, "pitch": 67, "duration": 8, "velocity": 67}, {"time": 942, "pitch": 56, "duration": 4, "velocity": 61}, {"time": 942, "pitch": 68, "duration": 11, "velocity": 66}, {"time": 948, "pitch": 68, "duration": 5, "velocity": 66}, {"time": 948, "pitch": 75, "duration": 18, "velocity": 58}, {"time": 948, "pitch": 84, "duration": 3, "velocity": 69}, {"time": 951, "pitch": 85, "duration": 4, "velocity": 70}, {"time": 954, "pitch": 39, "duration": 13, "velocity": 72}, {"time": 954, "pitch": 63, "duration": 6, "velocity": 66}, {"time": 954, "pitch": 67, "duration": 6, "velocity": 64}, {"time": 954, "pitch": 84, "duration": 15, "velocity": 61}, {"time": 960, "pitch": 46, "duration": 8, "velocity": 47}, {"time": 960, "pitch": 61, "duration": 7, "velocity": 34}, {"time": 960, "pitch": 65, "duration": 5, "velocity": 62}, {"time": 966, "pitch": 51, "duration": 5, "velocity": 53}, {"time": 966, "pitch": 63, "duration": 2, "velocity": 55}, {"time": 966, "pitch": 67, "duration": 8, "velocity": 64}, {"time": 972, "pitch": 68, "duration": 3, "velocity": 69}, {"time": 978, "pitch": 41, "duration": 9, "velocity": 73}, {"time": 978, "pitch": 65, "duration": 22, "velocity": 64}, {"time": 978, "pitch": 68, "duration": 22, "velocity": 56}, {"time": 984, "pitch": 48, "duration": 5, "velocity": 51}, {"time": 990, "pitch": 53, "duration": 7, "velocity": 46}, {"time": 996, "pitch": 55, "duration": 15, "velocity": 61}, {"time": 1002, "pitch": 56, "duration": 8, "velocity": 64}, {"time": 1008, "pitch": 60, "duration": 4, "velocity": 61}, {"time": 1014, "pitch": 65, "duration": 6, "velocity": 54}, {"time": 1020, "pitch": 68, "duration": 5, "velocity": 63}, {"time": 1026, "pitch": 39, "duration": 38, "velocity": 58}, {"time": 1026, "pitch": 58, "duration": 8, "velocity": 57}, {"time": 1026, "pitch": 63, "duration": 7, "velocity": 61}, {"time": 1026, "pitch": 67, "duration": 8, "velocity": 62}, {"time": 1032, "pitch": 46, "duration": 33, "velocity": 56}, {"time": 1038, "pitch": 51, "duration": 13, "velocity": 49}, {"time": 1044, "pitch": 55, "duration": 10, "velocity": 62}, {"time": 1044, "pitch": 63, "duration": 10, "velocity": 76}, {"time": 1056, "pitch": 58, "duration": 7, "velocity": 73}, {"time": 1062, "pitch": 51, "duration": 3, "velocity": 59}, {"time": 1074, "pitch": 37, "duration": 38, "velocity": 70}, {"time": 1074, "pitch": 53, "duration": 13, "velocity": 60}, {"time": 1074, "pitch": 56, "duration": 13, "velocity": 67}, {"time": 1074, "pitch": 61, "duration": 12, "velocity": 66}, {"time": 1080, "pitch": 44, "duration": 33, "velocity": 53}, {"time": 1086, "pitch": 49, "duration": 12, "velocity": 53}, {"time": 1092, "pitch": 53, "duration": 10, "velocity": 50}, {"time": 1092, "pitch": 61, "duration": 2, "velocity": 35}, {"time": 1101, "pitch": 49, "duration": 4, "velocity": 40}, {"time": 1104, "pitch": 53, "duration": 7, "velocity": 67}, {"time": 1104, "pitch": 56, "duration": 7, "velocity": 72}, {"time": 1104, "pitch": 61, "duration": 6, "velocity": 67}, {"time": 1110, "pitch": 49, "duration": 3, "velocity": 61}, {"time": 1116, "pitch": 61, "duration": 3, "velocity": 45}, {"time": 1122, "pitch": 44, "duration": 39, "velocity": 73}, {"time": 1122, "pitch": 51, "duration": 2, "velocity": 47}, {"time": 1122, "pitch": 56, "duration": 6, "velocity": 73}, {"time": 1122, "pitch": 60, "duration": 7, "velocity": 72}, {"time": 1128, "pitch": 51, "duration": 32, "velocity": 61}, {"time": 1134, "pitch": 56, "duration": 8, "velocity": 67}, {"time": 1140, "pitch": 58, "duration": 8, "velocity": 63}, {"time": 1140, "pitch": 63, "duration": 8, "velocity": 70}, {"time": 1140, "pitch": 75, "duration": 3, "velocity": 70}, {"time": 1143, "pitch": 77, "duration": 5, "velocity": 54}, {"time": 1146, "pitch": 56, "duration": 7, "velocity": 57}, {"time": 1146, "pitch": 72, "duration": 11, "velocity": 69}, {"time": 1152, "pitch": 58, "duration": 3, "velocity": 50}, {"time": 1152, "pitch": 60, "duration": 9, "velocity": 72}, {"time": 1158, "pitch": 56, "duration": 3, "velocity": 61}, {"time": 1158, "pitch": 68, "duration": 13, "velocity": 61}, {"time": 1164, "pitch": 63, "duration": 3, "velocity": 48}, {"time": 1170, "pitch": 46, "duration": 38, "velocity": 64}, {"time": 1170, "pitch": 56, "duration": 4, "velocity": 58}, {"time": 1170, "pitch": 61, "duration": 12, "velocity": 63}, {"time": 1170, "pitch": 65, "duration": 12, "velocity": 58}, {"time": 1170, "pitch": 70, "duration": 11, "velocity": 62}, {"time": 1176, "pitch": 53, "duration": 29, "velocity": 52}, {"time": 1182, "pitch": 58, "duration": 22, "velocity": 55}, {"time": 1188, "pitch": 60, "duration": 7, "velocity": 63}, {"time": 1194, "pitch": 61, "duration": 4, "velocity": 70}, {"time": 1200, "pitch": 65, "duration": 8, "velocity": 76}, {"time": 1206, "pitch": 67, "duration": 6, "velocity": 52}, {"time": 1212, "pitch": 70, "duration": 6, "velocity": 56}, {"time": 1218, "pitch": 39, "duration": 9, "velocity": 69}, {"time": 1218, "pitch": 68, "duration": 21, "velocity": 69}, {"time": 1224, "pitch": 46, "duration": 5, "velocity": 57}, {"time": 1230, "pitch": 51, "duration": 8, "velocity": 47}, {"time": 1236, "pitch": 53, "duration": 16, "velocity": 66}, {"time": 1242, "pitch": 55, "duration": 10, "velocity": 62}, {"time": 1248, "pitch": 58, "duration": 7, "velocity": 54}, {"time": 1254, "pitch": 63, "duration": 6, "velocity": 55}, {"time": 1260, "pitch": 70, "duration": 7, "velocity": 66}, {"time": 1266, "pitch": 44, "duration": 15, "velocity": 67}, {"time": 1266, "pitch": 68, "duration": 17, "velocity": 88}, {"time": 1272, "pitch": 51, "duration": 17, "velocity": 53}, {"time": 1278, "pitch": 56, "duration": 5, "velocity": 59}, {"time": 1284, "pitch": 72, "duration": 7, "velocity": 69}, {"time": 1290, "pitch": 43, "duration": 17, "velocity": 56}, {"time": 1290, "pitch": 70, "duration": 10, "velocity": 66}, {"time": 1296, "pitch": 51, "duration": 10, "velocity": 51}, {"time": 1302, "pitch": 55, "duration": 4, "velocity": 61}, {"time": 1308, "pitch": 75, "duration": 9, "velocity": 56}, {"time": 1314, "pitch": 41, "duration": 9, "velocity": 67}, {"time": 1314, "pitch": 68, "duration": 19, "velocity": 70}, {"time": 1320, "pitch": 48, "duration": 6, "velocity": 53}, {"time": 1326, "pitch": 53, "duration": 8, "velocity": 56}, {"time": 1332, "pitch": 55, "duration": 16, "velocity": 56}, {"time": 1338, "pitch": 56, "duration": 9, "velocity": 67}, {"time": 1344, "pitch": 65, "duration": 7, "velocity": 53}, {"time": 1350, "pitch": 67, "duration": 6, "velocity": 57}, {"time": 1356, "pitch": 68, "duration": 13, "velocity": 59}, {"time": 1362, "pitch": 46, "duration": 37, "velocity": 67}, {"time": 1362, "pitch": 61, "duration": 15, "velocity": 70}, {"time": 1368, "pitch": 53, "duration": 30, "velocity": 52}, {"time": 1374, "pitch": 58, "duration": 20, "velocity": 59}, {"time": 1380, "pitch": 60, "duration": 7, "velocity": 61}, {"time": 1386, "pitch": 61, "duration": 7, "velocity": 60}, {"time": 1392, "pitch": 63, "duration": 5, "velocity": 54}, {"time": 1398, "pitch": 65, "duration": 5, "velocity": 58}, {"time": 1404, "pitch": 68, "duration": 8, "velocity": 48}, {"time": 1410, "pitch": 49, "duration": 37, "velocity": 63}, {"time": 1410, "pitch": 56, "duration": 9, "velocity": 70}, {"time": 1410, "pitch": 61, "duration": 9, "velocity": 72}, {"time": 1410, "pitch": 65, "duration": 16, "velocity": 67}, {"time": 1416, "pitch": 53, "duration": 26, "velocity": 57}, {"time": 1422, "pitch": 56, "duration": 24, "velocity": 61}, {"time": 1428, "pitch": 61, "duration": 18, "velocity": 62}, {"time": 1440, "pitch": 65, "duration": 7, "velocity": 88}, {"time": 1446, "pitch": 53, "duration": 2, "velocity": 55}, {"time": 1452, "pitch": 60, "duration": 9, "velocity": 54}, {"time": 1458, "pitch": 36, "duration": 5, "velocity": 72}, {"time": 1458, "pitch": 67, "duration": 19, "velocity": 69}, {"time": 1464, "pitch": 48, "duration": 7, "velocity": 60}, {"time": 1470, "pitch": 53, "duration": 21, "velocity": 76}, {"time": 1476, "pitch": 55, "duration": 15, "velocity": 64}, {"time": 1482, "pitch": 60, "duration": 5, "velocity": 60}, {"time": 1488, "pitch": 65, "duration": 7, "velocity": 57}, {"time": 1494, "pitch": 67, "duration": 2, "velocity": 64}, {"time": 1500, "pitch": 72, "duration": 25, "velocity": 61}, {"time": 1506, "pitch": 36, "duration": 14, "velocity": 63}, {"time": 1506, "pitch": 84, "duration": 17, "velocity": 56}, {"time": 1530, "pitch": 79, "duration": 4, "velocity": 70}, {"time": 1536, "pitch": 79, "duration": 6, "velocity": 45}, {"time": 1542, "pitch": 75, "duration": 2, "velocity": 72}, {"time": 1554, "pitch": 53, "duration": 39, "velocity": 63}, {"time": 1554, "pitch": 72, "duration": 6, "velocity": 63}, {"time": 1560, "pitch": 60, "duration": 25, "velocity": 54}, {"time": 1560, "pitch": 67, "duration": 6, "velocity": 47}, {"time": 1566, "pitch": 68, "duration": 7, "velocity": 63}, {"time": 1572, "pitch": 70, "duration": 7, "velocity": 70}, {"time": 1578, "pitch": 65, "duration": 12, "velocity": 60}, {"time": 1578, "pitch": 72, "duration": 7, "velocity": 73}, {"time": 1584, "pitch": 67, "duration": 8, "velocity": 57}, {"time": 1590, "pitch": 60, "duration": 13, "velocity": 62}, {"time": 1590, "pitch": 68, "duration": 11, "velocity": 69}, {"time": 1596, "pitch": 72, "duration": 7, "velocity": 60}, {"time": 1602, "pitch": 51, "duration": 38, "velocity": 59}, {"time": 1602, "pitch": 70, "duration": 12, "velocity": 69}, {"time": 1608, "pitch": 60, "duration": 19, "velocity": 57}, {"time": 1614, "pitch": 63, "duration": 15, "velocity": 61}, {"time": 1620, "pitch": 67, "duration": 8, "velocity": 62}, {"time": 1626, "pitch": 68, "duration": 8, "velocity": 66}, {"time": 1632, "pitch": 60, "duration": 7, "velocity": 72}, {"time": 1638, "pitch": 67, "duration": 5, "velocity": 80}, {"time": 1644, "pitch": 68, "duration": 4, "velocity": 54}, {"time": 1647, "pitch": 67, "duration": 5, "velocity": 57}, {"time": 1650, "pitch": 49, "duration": 38, "velocity": 69}, {"time": 1650, "pitch": 65, "duration": 14, "velocity": 69}, {"time": 1656, "pitch": 56, "duration": 13, "velocity": 57}, {"time": 1662, "pitch": 61, "duration": 19, "velocity": 59}, {"time": 1668, "pitch": 63, "duration": 13, "velocity": 82}, {"time": 1680, "pitch": 65, "duration": 5, "velocity": 67}, {"time": 1686, "pitch": 56, "duration": 2, "velocity": 63}, {"time": 1692, "pitch": 56, "duration": 7, "velocity": 64}, {"time": 1698, "pitch": 37, "duration": 38, "velocity": 38}, {"time": 1704, "pitch": 44, "duration": 34, "velocity": 61}, {"time": 1710, "pitch": 49, "duration": 11, "velocity": 49}, {"time": 1716, "pitch": 72, "duration": 3, "velocity": 58}, {"time": 1716, "pitch": 80, "duration": 3, "velocity": 63}, {"time": 1722, "pitch": 72, "duration": 3, "velocity": 60}, {"time": 1722, "pitch": 80, "duration": 3, "velocity": 61}, {"time": 1728, "pitch": 49, "duration": 4, "velocity": 59}, {"time": 1731, "pitch": 70, "duration": 3, "velocity": 67}, {"time": 1731, "pitch": 79, "duration": 3, "velocity": 70}, {"time": 1734, "pitch": 49, "duration": 6, "velocity": 62}, {"time": 1740, "pitch": 67, "duration": 3, "velocity": 61}, {"time": 1740, "pitch": 75, "duration": 4, "velocity": 64}, {"time": 1746, "pitch": 41, "duration": 11, "velocity": 70}, {"time": 1746, "pitch": 68, "duration": 14, "velocity": 61}, {"time": 1746, "pitch": 77, "duration": 14, "velocity": 66}, {"time": 1752, "pitch": 48, "duration": 6, "velocity": 56}, {"time": 1758, "pitch": 53, "duration": 7, "velocity": 51}, {"time": 1764, "pitch": 55, "duration": 10, "velocity": 64}, {"time": 1770, "pitch": 56, "duration": 4, "velocity": 64}, {"time": 1776, "pitch": 60, "duration": 6, "velocity": 64}, {"time": 1782, "pitch": 65, "duration": 6, "velocity": 67}, {"time": 1788, "pitch": 68, "duration": 5, "velocity": 60}, {"time": 1794, "pitch": 39, "duration": 10, "velocity": 69}, {"time": 1794, "pitch": 58, "duration": 26, "velocity": 59}, {"time": 1794, "pitch": 63, "duration": 21, "velocity": 66}, {"time": 1794, "pitch": 67, "duration": 24, "velocity": 75}, {"time": 1800, "pitch": 46, "duration": 5, "velocity": 55}, {"time": 1806, "pitch": 51, "duration": 8, "velocity": 47}, {"time": 1812, "pitch": 53, "duration": 16, "velocity": 53}, {"time": 1818, "pitch": 55, "duration": 10, "velocity": 61}, {"time": 1824, "pitch": 58, "duration": 8, "velocity": 59}, {"time": 1830, "pitch": 63, "duration": 6, "velocity": 67}, {"time": 1836, "pitch": 68, "duration": 33, "velocity": 66}, {"time": 1842, "pitch": 37, "duration": 10, "velocity": 63}, {"time": 1842, "pitch": 56, "duration": 26, "velocity": 64}, {"time": 1842, "pitch": 61, "duration": 25, "velocity": 64}, {"time": 1842, "pitch": 65, "duration": 26, "velocity": 62}, {"time": 1848, "pitch": 44, "duration": 5, "velocity": 54}, {"time": 1854, "pitch": 49, "duration": 8, "velocity": 47}, {"time": 1860, "pitch": 51, "duration": 18, "velocity": 57}, {"time": 1866, "pitch": 53, "duration": 12, "velocity": 59}, {"time": 1872, "pitch": 56, "duration": 4, "velocity": 56}, {"time": 1878, "pitch": 61, "duration": 10, "velocity": 59}, {"time": 1884, "pitch": 68, "duration": 18, "velocity": 62}, {"time": 1890, "pitch": 44, "duration": 19, "velocity": 73}, {"time": 1890, "pitch": 60, "duration": 11, "velocity": 67}, {"time": 1890, "pitch": 63, "duration": 11, "velocity": 73}, {"time": 1896, "pitch": 51, "duration": 14, "velocity": 47}, {"time": 1902, "pitch": 56, "duration": 7, "velocity": 55}, {"time": 1908, "pitch": 58, "duration": 4, "velocity": 70}, {"time": 1908, "pitch": 63, "duration": 4, "velocity": 70}, {"time": 1920, "pitch": 45, "duration": 7, "velocity": 58}, {"time": 1920, "pitch": 57, "duration": 8, "velocity": 73}, {"time": 1920, "pitch": 60, "duration": 10, "velocity": 75}, {"time": 1920, "pitch": 63, "duration": 10, "velocity": 76}, {"time": 1932, "pitch": 68, "duration": 5, "velocity": 56}, {"time": 1938, "pitch": 46, "duration": 37, "velocity": 62}, {"time": 1938, "pitch": 53, "duration": 35, "velocity": 64}, {"time": 1938, "pitch": 58, "duration": 6, "velocity": 56}, {"time": 1938, "pitch": 61, "duration": 11, "velocity": 72}, {"time": 1938, "pitch": 65, "duration": 11, "velocity": 75}, {"time": 1947, "pitch": 58, "duration": 13, "velocity": 32}, {"time": 1953, "pitch": 60, "duration": 5, "velocity": 49}, {"time": 1953, "pitch": 63, "duration": 5, "velocity": 64}, {"time": 1959, "pitch": 60, "duration": 2, "velocity": 44}, {"time": 1959, "pitch": 61, "duration": 11, "velocity": 70}, {"time": 1959, "pitch": 65, "duration": 11, "velocity": 75}, {"time": 1968, "pitch": 58, "duration": 5, "velocity": 58}, {"time": 1974, "pitch": 60, "duration": 5, "velocity": 67}, {"time": 1974, "pitch": 65, "duration": 4, "velocity": 53}, {"time": 1980, "pitch": 68, "duration": 5, "velocity": 61}, {"time": 1986, "pitch": 39, "duration": 10, "velocity": 69}, {"time": 1986, "pitch": 58, "duration": 26, "velocity": 63}, {"time": 1986, "pitch": 63, "duration": 17, "velocity": 64}, {"time": 1986, "pitch": 67, "duration": 19, "velocity": 73}, {"time": 1992, "pitch": 46, "duration": 5, "velocity": 48}, {"time": 1998, "pitch": 51, "duration": 8, "velocity": 40}, {"time": 2004, "pitch": 53, "duration": 14, "velocity": 62}, {"time": 2010, "pitch": 55, "duration": 8, "velocity": 61}, {"time": 2016, "pitch": 58, "duration": 8, "velocity": 66}, {"time": 2022, "pitch": 60, "duration": 7, "velocity": 59}, {"time": 2028, "pitch": 61, "duration": 5, "velocity": 62}, {"time": 2034, "pitch": 44, "duration": 20, "velocity": 72}, {"time": 2034, "pitch": 60, "duration": 17, "velocity": 69}, {"time": 2034, "pitch": 63, "duration": 13, "velocity": 72}, {"time": 2040, "pitch": 51, "duration": 10, "velocity": 55}, {"time": 2046, "pitch": 56, "duration": 6, "velocity": 55}, {"time": 2052, "pitch": 51, "duration": 6, "velocity": 49}, {"time": 2052, "pitch": 63, "duration": 5, "velocity": 58}, {"time": 2058, "pitch": 43, "duration": 16, "velocity": 69}, {"time": 2058, "pitch": 58, "duration": 15, "velocity": 57}, {"time": 2064, "pitch": 51, "duration": 11, "velocity": 52}, {"time": 2070, "pitch": 55, "duration": 5, "velocity": 61}, {"time": 2076, "pitch": 63, "duration": 7, "velocity": 66}, {"time": 2082, "pitch": 41, "duration": 37, "velocity": 70}, {"time": 2082, "pitch": 56, "duration": 13, "velocity": 62}, {"time": 2082, "pitch": 60, "duration": 12, "velocity": 69}, {"time": 2088, "pitch": 48, "duration": 31, "velocity": 52}, {"time": 2094, "pitch": 53, "duration": 25, "velocity": 56}, {"time": 2100, "pitch": 55, "duration": 8, "velocity": 58}, {"time": 2106, "pitch": 56, "duration": 13, "velocity": 49}, {"time": 2118, "pitch": 60, "duration": 11, "velocity": 54}, {"time": 2130, "pitch": 46, "duration": 7, "velocity": 39}, {"time": 2130, "pitch": 53, "duration": 14, "velocity": 72}, {"time": 2130, "pitch": 61, "duration": 18, "velocity": 66}, {"time": 2136, "pitch": 48, "duration": 29, "velocity": 64}, {"time": 2142, "pitch": 49, "duration": 23, "velocity": 55}, {"time": 2148, "pitch": 53, "duration": 16, "velocity": 73}, {"time": 2160, "pitch": 56, "duration": 5, "velocity": 78}, {"time": 2166, "pitch": 63, "duration": 5, "velocity": 58}, {"time": 2172, "pitch": 68, "duration": 10, "velocity": 58}, {"time": 2178, "pitch": 37, "duration": 10, "velocity": 72}, {"time": 2178, "pitch": 56, "duration": 24, "velocity": 61}, {"time": 2178, "pitch": 61, "duration": 23, "velocity": 72}, {"time": 2178, "pitch": 65, "duration": 24, "velocity": 63}, {"time": 2184, "pitch": 44, "duration": 5, "velocity": 55}, {"time": 2190, "pitch": 49, "duration": 8, "velocity": 47}, {"time": 2196, "pitch": 51, "duration": 15, "velocity": 56}, {"time": 2196, "pitch": 68, "duration": 6, "velocity": 1}, {"time": 2202, "pitch": 53, "duration": 9, "velocity": 62}, {"time": 2208, "pitch": 56, "duration": 6, "velocity": 75}, {"time": 2214, "pitch": 65, "duration": 2, "velocity": 60}, {"time": 2226, "pitch": 36, "duration": 5, "velocity": 66}, {"time": 2226, "pitch": 53, "duration": 10, "velocity": 66}, {"time": 2226, "pitch": 55, "duration": 10, "velocity": 54}, {"time": 2226, "pitch": 60, "duration": 11, "velocity": 67}, {"time": 2232, "pitch": 48, "duration": 8, "velocity": 54}, {"time": 2238, "pitch": 53, "duration": 21, "velocity": 72}, {"time": 2244, "pitch": 55, "duration": 16, "velocity": 75}, {"time": 2250, "pitch": 60, "duration": 10, "velocity": 85}, {"time": 2256, "pitch": 65, "duration": 5, "velocity": 70}, {"time": 2262, "pitch": 67, "duration": 6, "velocity": 73}, {"time": 2268, "pitch": 70, "duration": 7, "velocity": 44}, {"time": 2268, "pitch": 72, "duration": 4, "velocity": 45}, {"time": 2274, "pitch": 48, "duration": 10, "velocity": 69}, {"time": 2274, "pitch": 60, "duration": 9, "velocity": 67}, {"time": 2274, "pitch": 64, "duration": 10, "velocity": 75}, {"time": 2280, "pitch": 55, "duration": 4, "velocity": 61}, {"time": 2286, "pitch": 60, "duration": 4, "velocity": 66}, {"time": 2292, "pitch": 60, "duration": 9, "velocity": 67}, {"time": 2292, "pitch": 64, "duration": 9, "velocity": 91}, {"time": 2292, "pitch": 70, "duration": 9, "velocity": 76}, {"time": 2304, "pitch": 60, "duration": 2, "velocity": 70}, {"time": 2304, "pitch": 68, "duration": 3, "velocity": 82}, {"time": 2322, "pitch": 49, "duration": 38, "velocity": 72}, {"time": 2322, "pitch": 56, "duration": 9, "velocity": 73}, {"time": 2322, "pitch": 61, "duration": 9, "velocity": 76}, {"time": 2322, "pitch": 65, "duration": 9, "velocity": 75}, {"time": 2328, "pitch": 53, "duration": 18, "velocity": 59}, {"time": 2334, "pitch": 56, "duration": 19, "velocity": 62}, {"time": 2340, "pitch": 61, "duration": 13, "velocity": 76}, {"time": 2352, "pitch": 53, "duration": 6, "velocity": 69}, {"time": 2358, "pitch": 56, "duration": 5, "velocity": 75}, {"time": 2358, "pitch": 65, "duration": 5, "velocity": 80}, {"time": 2364, "pitch": 68, "duration": 7, "velocity": 75}, {"time": 2370, "pitch": 39, "duration": 11, "velocity": 72}, {"time": 2370, "pitch": 58, "duration": 22, "velocity": 75}, {"time": 2370, "pitch": 63, "duration": 25, "velocity": 72}, {"time": 2370, "pitch": 67, "duration": 26, "velocity": 73}, {"time": 2376, "pitch": 46, "duration": 6, "velocity": 64}, {"time": 2382, "pitch": 51, "duration": 9, "velocity": 55}, {"time": 2388, "pitch": 53, "duration": 19, "velocity": 58}, {"time": 2394, "pitch": 55, "duration": 13, "velocity": 70}, {"time": 2400, "pitch": 58, "duration": 4, "velocity": 60}, {"time": 2406, "pitch": 63, "duration": 5, "velocity": 75}, {"time": 2412, "pitch": 68, "duration": 4, "velocity": 73}, {"time": 2418, "pitch": 48, "duration": 36, "velocity": 69}, {"time": 2418, "pitch": 58, "duration": 7, "velocity": 72}, {"time": 2418, "pitch": 63, "duration": 13, "velocity": 70}, {"time": 2418, "pitch": 67, "duration": 13, "velocity": 56}, {"time": 2424, "pitch": 55, "duration": 23, "velocity": 52}, {"time": 2436, "pitch": 60, "duration": 15, "velocity": 73}, {"time": 2442, "pitch": 63, "duration": 8, "velocity": 78}, {"time": 2448, "pitch": 65, "duration": 4, "velocity": 67}, {"time": 2454, "pitch": 67, "duration": 7, "velocity": 75}, {"time": 2460, "pitch": 70, "duration": 3, "velocity": 70}, {"time": 2466, "pitch": 41, "duration": 10, "velocity": 69}, {"time": 2466, "pitch": 60, "duration": 7, "velocity": 69}, {"time": 2466, "pitch": 68, "duration": 12, "velocity": 82}, {"time": 2472, "pitch": 48, "duration": 5, "velocity": 51}, {"time": 2478, "pitch": 53, "duration": 8, "velocity": 54}, {"time": 2478, "pitch": 58, "duration": 3, "velocity": 52}, {"time": 2478, "pitch": 67, "duration": 5, "velocity": 59}, {"time": 2484, "pitch": 55, "duration": 14, "velocity": 70}, {"time": 2484, "pitch": 60, "duration": 8, "velocity": 66}, {"time": 2484, "pitch": 68, "duration": 9, "velocity": 69}, {"time": 2490, "pitch": 56, "duration": 8, "velocity": 75}, {"time": 2496, "pitch": 60, "duration": 5, "velocity": 72}, {"time": 2502, "pitch": 63, "duration": 6, "velocity": 80}, {"time": 2508, "pitch": 68, "duration": 4, "velocity": 69}, {"time": 2514, "pitch": 46, "duration": 36, "velocity": 72}, {"time": 2514, "pitch": 58, "duration": 8, "velocity": 64}, {"time": 2514, "pitch": 61, "duration": 13, "velocity": 67}, {"time": 2514, "pitch": 65, "duration": 13, "velocity": 67}, {"time": 2514, "pitch": 68, "duration": 13, "velocity": 56}, {"time": 2520, "pitch": 53, "duration": 21, "velocity": 59}, {"time": 2526, "pitch": 58, "duration": 20, "velocity": 62}, {"time": 2532, "pitch": 60, "duration": 4, "velocity": 70}, {"time": 2532, "pitch": 63, "duration": 4, "velocity": 75}, {"time": 2538, "pitch": 61, "duration": 2, "velocity": 63}, {"time": 2538, "pitch": 65, "duration": 3, "velocity": 67}, {"time": 2544, "pitch": 53, "duration": 6, "velocity": 55}, {"time": 2550, "pitch": 61, "duration": 2, "velocity": 88}, {"time": 2550, "pitch": 68, "duration": 3, "velocity": 76}, {"time": 2556, "pitch": 67, "duration": 3, "velocity": 80}, {"time": 2562, "pitch": 39, "duration": 10, "velocity": 69}, {"time": 2562, "pitch": 58, "duration": 4, "velocity": 67}, {"time": 2562, "pitch": 63, "duration": 4, "velocity": 69}, {"time": 2562, "pitch": 67, "duration": 6, "velocity": 70}, {"time": 2568, "pitch": 46, "duration": 5, "velocity": 60}, {"time": 2574, "pitch": 51, "duration": 8, "velocity": 55}, {"time": 2580, "pitch": 53, "duration": 10, "velocity": 60}, {"time": 2580, "pitch": 72, "duration": 3, "velocity": 67}, {"time": 2580, "pitch": 80, "duration": 4, "velocity": 75}, {"time": 2586, "pitch": 55, "duration": 6, "velocity": 53}, {"time": 2586, "pitch": 70, "duration": 4, "velocity": 70}, {"time": 2586, "pitch": 79, "duration": 8, "velocity": 59}, {"time": 2592, "pitch": 56, "duration": 8, "velocity": 66}, {"time": 2595, "pitch": 70, "duration": 6, "velocity": 61}, {"time": 2595, "pitch": 77, "duration": 3, "velocity": 80}, {"time": 2598, "pitch": 58, "duration": 6, "velocity": 61}, {"time": 2601, "pitch": 60, "duration": 2, "velocity": 78}, {"time": 2604, "pitch": 73, "duration": 5, "velocity": 75}, {"time": 2610, "pitch": 44, "duration": 39, "velocity": 78}, {"time": 2610, "pitch": 72, "duration": 3, "velocity": 82}, {"time": 2616, "pitch": 51, "duration": 32, "velocity": 48}, {"time": 2622, "pitch": 56, "duration": 12, "velocity": 85}, {"time": 2628, "pitch": 58, "duration": 4, "velocity": 82}, {"time": 2634, "pitch": 60, "duration": 8, "velocity": 80}, {"time": 2640, "pitch": 56, "duration": 5, "velocity": 72}, {"time": 2646, "pitch": 58, "duration": 5, "velocity": 85}, {"time": 2652, "pitch": 60, "duration": 5, "velocity": 78}, {"time": 2658, "pitch": 44, "duration": 18, "velocity": 70}, {"time": 2658, "pitch": 58, "duration": 9, "velocity": 78}, {"time": 2658, "pitch": 61, "duration": 9, "velocity": 93}, {"time": 2664, "pitch": 51, "duration": 9, "velocity": 60}, {"time": 2670, "pitch": 56, "duration": 6, "velocity": 62}, {"time": 2670, "pitch": 60, "duration": 5, "velocity": 80}, {"time": 2676, "pitch": 51, "duration": 3, "velocity": 41}, {"time": 2676, "pitch": 60, "duration": 2, "velocity": 49}, {"time": 2676, "pitch": 61, "duration": 5, "velocity": 85}, {"time": 2682, "pitch": 46, "duration": 8, "velocity": 78}, {"time": 2682, "pitch": 58, "duration": 9, "velocity": 91}, {"time": 2682, "pitch": 63, "duration": 7, "velocity": 93}, {"time": 2688, "pitch": 48, "duration": 8, "velocity": 57}, {"time": 2694, "pitch": 63, "duration": 5, "velocity": 95}, {"time": 2700, "pitch": 68, "duration": 31, "velocity": 88}, {"time": 2706, "pitch": 37, "duration": 10, "velocity": 73}, {"time": 2706, "pitch": 56, "duration": 20, "velocity": 78}, {"time": 2706, "pitch": 61, "duration": 25, "velocity": 73}, {"time": 2706, "pitch": 65, "duration": 23, "velocity": 76}, {"time": 2712, "pitch": 44, "duration": 6, "velocity": 69}, {"time": 2718, "pitch": 49, "duration": 8, "velocity": 56}, {"time": 2724, "pitch": 51, "duration": 15, "velocity": 73}, {"time": 2730, "pitch": 53, "duration": 10, "velocity": 67}, {"time": 2736, "pitch": 56, "duration": 4, "velocity": 75}, {"time": 2742, "pitch": 61, "duration": 6, "velocity": 91}, {"time": 2745, "pitch": 63, "duration": 5, "velocity": 62}, {"time": 2748, "pitch": 65, "duration": 2, "velocity": 39}, {"time": 2748, "pitch": 67, "duration": 2, "velocity": 41}, {"time": 2751, "pitch": 68, "duration": 6, "velocity": 67}, {"time": 2754, "pitch": 37, "duration": 10, "velocity": 72}, {"time": 2754, "pitch": 63, "duration": 15, "velocity": 82}, {"time": 2754, "pitch": 67, "duration": 15, "velocity": 93}, {"time": 2760, "pitch": 44, "duration": 6, "velocity": 64}, {"time": 2766, "pitch": 49, "duration": 7, "velocity": 50}, {"time": 2772, "pitch": 51, "duration": 17, "velocity": 64}, {"time": 2772, "pitch": 58, "duration": 8, "velocity": 80}, {"time": 2772, "pitch": 65, "duration": 9, "velocity": 75}, {"time": 2778, "pitch": 53, "duration": 7, "velocity": 54}, {"time": 2784, "pitch": 58, "duration": 8, "velocity": 80}, {"time": 2784, "pitch": 63, "duration": 9, "velocity": 93}, {"time": 2790, "pitch": 53, "duration": 3, "velocity": 58}, {"time": 2796, "pitch": 70, "duration": 4, "velocity": 73}, {"time": 2802, "pitch": 48, "duration": 33, "velocity": 76}, {"time": 2802, "pitch": 63, "duration": 12, "velocity": 76}, {"time": 2802, "pitch": 67, "duration": 12, "velocity": 82}, {"time": 2808, "pitch": 55, "duration": 19, "velocity": 49}, {"time": 2814, "pitch": 60, "duration": 19, "velocity": 75}, {"time": 2820, "pitch": 63, "duration": 8, "velocity": 93}, {"time": 2826, "pitch": 65, "duration": 5, "velocity": 73}, {"time": 2832, "pitch": 55, "duration": 4, "velocity": 73}, {"time": 2832, "pitch": 67, "duration": 5, "velocity": 80}, {"time": 2838, "pitch": 68, "duration": 6, "velocity": 63}, {"time": 2844, "pitch": 72, "duration": 7, "velocity": 73}, {"time": 2850, "pitch": 41, "duration": 10, "velocity": 73}, {"time": 2850, "pitch": 70, "duration": 19, "velocity": 76}, {"time": 2856, "pitch": 48, "duration": 5, "velocity": 67}, {"time": 2862, "pitch": 53, "duration": 8, "velocity": 62}, {"time": 2868, "pitch": 55, "duration": 17, "velocity": 73}, {"time": 2868, "pitch": 68, "duration": 9, "velocity": 91}, {"time": 2874, "pitch": 56, "duration": 11, "velocity": 73}, {"time": 2880, "pitch": 60, "duration": 8, "velocity": 80}, {"time": 2886, "pitch": 65, "duration": 6, "velocity": 66}, {"time": 2892, "pitch": 68, "duration": 9, "velocity": 73}, {"time": 2898, "pitch": 46, "duration": 39, "velocity": 78}, {"time": 2898, "pitch": 61, "duration": 15, "velocity": 72}, {"time": 2898, "pitch": 65, "duration": 14, "velocity": 69}, {"time": 2904, "pitch": 53, "duration": 32, "velocity": 48}, {"time": 2910, "pitch": 58, "duration": 24, "velocity": 80}, {"time": 2916, "pitch": 60, "duration": 9, "velocity": 85}, {"time": 2922, "pitch": 61, "duration": 7, "velocity": 85}, {"time": 2928, "pitch": 65, "duration": 5, "velocity": 52}, {"time": 2934, "pitch": 68, "duration": 5, "velocity": 69}, {"time": 2940, "pitch": 70, "duration": 6, "velocity": 56}, {"time": 2946, "pitch": 39, "duration": 38, "velocity": 70}, {"time": 2946, "pitch": 67, "duration": 9, "velocity": 75}, {"time": 2952, "pitch": 46, "duration": 33, "velocity": 63}, {"time": 2958, "pitch": 51, "duration": 20, "velocity": 75}, {"time": 2964, "pitch": 55, "duration": 14, "velocity": 80}, {"time": 2976, "pitch": 58, "duration": 10, "velocity": 85}, {"time": 2982, "pitch": 51, "duration": 10, "velocity": 51}, {"time": 2988, "pitch": 63, "duration": 7, "velocity": 73}, {"time": 2994, "pitch": 44, "duration": 87, "velocity": 73}, {"time": 2994, "pitch": 61, "duration": 18, "velocity": 82}, {"time": 3000, "pitch": 51, "duration": 17, "velocity": 50}, {"time": 3006, "pitch": 56, "duration": 71, "velocity": 72}, {"time": 3012, "pitch": 60, "duration": 12, "velocity": 70}, {"time": 3024, "pitch": 51, "duration": 53, "velocity": 56}, {"time": 3030, "pitch": 63, "duration": 40, "velocity": 82}, {"time": 3036, "pitch": 68, "duration": 34, "velocity": 64}, {"time": 3042, "pitch": 75, "duration": 20, "velocity": 73}, {"time": 3066, "pitch": 73, "duration": 13, "velocity": 76}, {"time": 3072, "pitch": 72, "duration": 6, "velocity": 64}, {"time": 3078, "pitch": 68, "duration": 6, "velocity": 61}, {"time": 3084, "pitch": 63, "duration": 4, "velocity": 47}, {"time": 3090, "pitch": 41, "duration": 55, "velocity": 63}, {"time": 3090, "pitch": 60, "duration": 11, "velocity": 53}, {"time": 3090, "pitch": 68, "duration": 13, "velocity": 61}, {"time": 3096, "pitch": 48, "duration": 50, "velocity": 34}, {"time": 3102, "pitch": 53, "duration": 21, "velocity": 44}, {"time": 3108, "pitch": 60, "duration": 8, "velocity": 57}, {"time": 3114, "pitch": 67, "duration": 6, "velocity": 61}, {"time": 3120, "pitch": 68, "duration": 5, "velocity": 57}, {"time": 3126, "pitch": 67, "duration": 4, "velocity": 58}, {"time": 3132, "pitch": 60, "duration": 9, "velocity": 38}, {"time": 3138, "pitch": 53, "duration": 5, "velocity": 42}, {"time": 3138, "pitch": 67, "duration": 5, "velocity": 50}, {"time": 3144, "pitch": 68, "duration": 6, "velocity": 47}, {"time": 3150, "pitch": 39, "duration": 26, "velocity": 59}, {"time": 3150, "pitch": 67, "duration": 4, "velocity": 44}, {"time": 3156, "pitch": 60, "duration": 10, "velocity": 44}, {"time": 3162, "pitch": 48, "duration": 15, "velocity": 54}, {"time": 3162, "pitch": 67, "duration": 6, "velocity": 53}, {"time": 3168, "pitch": 68, "duration": 15, "velocity": 57}, {"time": 3174, "pitch": 51, "duration": 3, "velocity": 54}, {"time": 3174, "pitch": 67, "duration": 4, "velocity": 58}, {"time": 3180, "pitch": 60, "duration": 8, "velocity": 46}, {"time": 3186, "pitch": 37, "duration": 11, "velocity": 47}, {"time": 3186, "pitch": 67, "duration": 7, "velocity": 60}, {"time": 3192, "pitch": 44, "duration": 7, "velocity": 48}, {"time": 3192, "pitch": 68, "duration": 7, "velocity": 44}, {"time": 3198, "pitch": 49, "duration": 8, "velocity": 50}, {"time": 3198, "pitch": 67, "duration": 5, "velocity": 58}, {"time": 3204, "pitch": 51, "duration": 17, "velocity": 48}, {"time": 3204, "pitch": 60, "duration": 7, "velocity": 44}, {"time": 3210, "pitch": 65, "duration": 8, "velocity": 59}, {"time": 3216, "pitch": 53, "duration": 5, "velocity": 47}, {"time": 3222, "pitch": 60, "duration": 6, "velocity": 47}, {"time": 3228, "pitch": 67, "duration": 5, "velocity": 47}, {"time": 3234, "pitch": 37, "duration": 10, "velocity": 48}, {"time": 3234, "pitch": 68, "duration": 6, "velocity": 44}, {"time": 3240, "pitch": 44, "duration": 7, "velocity": 48}, {"time": 3240, "pitch": 67, "duration": 5, "velocity": 49}, {"time": 3246, "pitch": 49, "duration": 10, "velocity": 43}, {"time": 3246, "pitch": 65, "duration": 5, "velocity": 49}, {"time": 3252, "pitch": 58, "duration": 7, "velocity": 58}, {"time": 3258, "pitch": 39, "duration": 14, "velocity": 49}, {"time": 3258, "pitch": 63, "duration": 6, "velocity": 58}, {"time": 3264, "pitch": 46, "duration": 10, "velocity": 44}, {"time": 3264, "pitch": 58, "duration": 7, "velocity": 44}, {"time": 3270, "pitch": 51, "duration": 9, "velocity": 56}, {"time": 3270, "pitch": 63, "duration": 6, "velocity": 59}, {"time": 3276, "pitch": 65, "duration": 5, "velocity": 60}, {"time": 3282, "pitch": 41, "duration": 9, "velocity": 53}, {"time": 3282, "pitch": 68, "duration": 9, "velocity": 59}, {"time": 3288, "pitch": 48, "duration": 6, "velocity": 47}, {"time": 3288, "pitch": 60, "duration": 7, "velocity": 44}, {"time": 3294, "pitch": 53, "duration": 8, "velocity": 48}, {"time": 3294, "pitch": 67, "duration": 5, "velocity": 55}, {"time": 3300, "pitch": 55, "duration": 8, "velocity": 49}, {"time": 3300, "pitch": 68, "duration": 5, "velocity": 53}, {"time": 3306, "pitch": 56, "duration": 2, "velocity": 57}, {"time": 3306, "pitch": 67, "duration": 5, "velocity": 61}, {"time": 3312, "pitch": 60, "duration": 8, "velocity": 51}, {"time": 3318, "pitch": 67, "duration": 5, "velocity": 61}, {"time": 3324, "pitch": 68, "duration": 8, "velocity": 51}, {"time": 3330, "pitch": 39, "duration": 9, "velocity": 46}, {"time": 3330, "pitch": 67, "duration": 5, "velocity": 51}, {"time": 3336, "pitch": 46, "duration": 5, "velocity": 50}, {"time": 3336, "pitch": 68, "duration": 5, "velocity": 53}, {"time": 3342, "pitch": 51, "duration": 8, "velocity": 47}, {"time": 3342, "pitch": 67, "duration": 4, "velocity": 55}, {"time": 3342, "pitch": 68, "duration": 2, "velocity": 36}, {"time": 3348, "pitch": 53, "duration": 14, "velocity": 62}, {"time": 3348, "pitch": 60, "duration": 8, "velocity": 59}, {"time": 3354, "pitch": 55, "duration": 8, "velocity": 46}, {"time": 3354, "pitch": 67, "duration": 7, "velocity": 57}, {"time": 3360, "pitch": 68, "duration": 12, "velocity": 66}, {"time": 3366, "pitch": 67, "duration": 4, "velocity": 48}, {"time": 3372, "pitch": 63, "duration": 6, "velocity": 47}, {"time": 3378, "pitch": 37, "duration": 8, "velocity": 48}, {"time": 3378, "pitch": 65, "duration": 5, "velocity": 60}, {"time": 3384, "pitch": 44, "duration": 5, "velocity": 47}, {"time": 3384, "pitch": 67, "duration": 3, "velocity": 60}, {"time": 3390, "pitch": 49, "duration": 8, "velocity": 37}, {"time": 3390, "pitch": 68, "duration": 8, "velocity": 64}, {"time": 3396, "pitch": 51, "duration": 68, "velocity": 54}, {"time": 3396, "pitch": 60, "duration": 8, "velocity": 49}, {"time": 3402, "pitch": 67, "duration": 6, "velocity": 44}, {"time": 3408, "pitch": 53, "duration": 56, "velocity": 50}, {"time": 3408, "pitch": 68, "duration": 4, "velocity": 63}, {"time": 3420, "pitch": 60, "duration": 6, "velocity": 55}, {"time": 3426, "pitch": 72, "duration": 19, "velocity": 64}, {"time": 3432, "pitch": 60, "duration": 11, "velocity": 40}, {"time": 3462, "pitch": 39, "duration": 4, "velocity": 47}, {"time": 3462, "pitch": 51, "duration": 2, "velocity": 45}, {"time": 3462, "pitch": 58, "duration": 5, "velocity": 57}, {"time": 3462, "pitch": 63, "duration": 6, "velocity": 61}, {"time": 3462, "pitch": 67, "duration": 10, "velocity": 62}, {"time": 3474, "pitch": 41, "duration": 11, "velocity": 64}, {"time": 3474, "pitch": 60, "duration": 20, "velocity": 57}, {"time": 3474, "pitch": 65, "duration": 6, "velocity": 66}, {"time": 3474, "pitch": 65, "duration": 6, "velocity": 85}, {"time": 3474, "pitch": 68, "duration": 24, "velocity": 58}, {"time": 3474, "pitch": 77, "duration": 7, "velocity": 75}, {"time": 3480, "pitch": 48, "duration": 6, "velocity": 54}, {"time": 3486, "pitch": 53, "duration": 7, "velocity": 51}, {"time": 3486, "pitch": 72, "duration": 7, "velocity": 67}, {"time": 3486, "pitch": 84, "duration": 7, "velocity": 66}, {"time": 3492, "pitch": 55, "duration": 13, "velocity": 56}, {"time": 3498, "pitch": 56, "duration": 6, "velocity": 75}, {"time": 3498, "pitch": 70, "duration": 5, "velocity": 70}, {"time": 3498, "pitch": 82, "duration": 6, "velocity": 72}, {"time": 3504, "pitch": 60, "duration": 4, "velocity": 55}, {"time": 3510, "pitch": 65, "duration": 6, "velocity": 66}, {"time": 3510, "pitch": 72, "duration": 2, "velocity": 72}, {"time": 3510, "pitch": 84, "duration": 2, "velocity": 72}, {"time": 3516, "pitch": 68, "duration": 16, "velocity": 69}, {"time": 3522, "pitch": 39, "duration": 38, "velocity": 61}, {"time": 3522, "pitch": 58, "duration": 9, "velocity": 29}, {"time": 3522, "pitch": 65, "duration": 7, "velocity": 39}, {"time": 3522, "pitch": 67, "duration": 4, "velocity": 44}, {"time": 3522, "pitch": 67, "duration": 4, "velocity": 70}, {"time": 3522, "pitch": 79, "duration": 24, "velocity": 76}, {"time": 3528, "pitch": 46, "duration": 31, "velocity": 58}, {"time": 3534, "pitch": 51, "duration": 14, "velocity": 48}, {"time": 3540, "pitch": 55, "duration": 8, "velocity": 32}, {"time": 3546, "pitch": 58, "duration": 12, "velocity": 63}, {"time": 3549, "pitch": 51, "duration": 8, "velocity": 41}, {"time": 3558, "pitch": 55, "duration": 3, "velocity": 58}, {"time": 3558, "pitch": 63, "duration": 4, "velocity": 75}, {"time": 3558, "pitch": 68, "duration": 2, "velocity": 73}, {"time": 3558, "pitch": 80, "duration": 2, "velocity": 67}, {"time": 3564, "pitch": 67, "duration": 2, "velocity": 66}, {"time": 3564, "pitch": 79, "duration": 2, "velocity": 67}, {"time": 3570, "pitch": 37, "duration": 56, "velocity": 66}, {"time": 3570, "pitch": 53, "duration": 12, "velocity": 60}, {"time": 3570, "pitch": 56, "duration": 12, "velocity": 69}, {"time": 3570, "pitch": 61, "duration": 10, "velocity": 67}, {"time": 3570, "pitch": 65, "duration": 7, "velocity": 66}, {"time": 3570, "pitch": 77, "duration": 8, "velocity": 69}, {"time": 3576, "pitch": 44, "duration": 51, "velocity": 52}, {"time": 3582, "pitch": 49, "duration": 13, "velocity": 49}, {"time": 3588, "pitch": 53, "duration": 13, "velocity": 48}, {"time": 3594, "pitch": 56, "duration": 7, "velocity": 67}, {"time": 3594, "pitch": 61, "duration": 7, "velocity": 52}, {"time": 3594, "pitch": 72, "duration": 3, "velocity": 61}, {"time": 3594, "pitch": 84, "duration": 3, "velocity": 67}, {"time": 3600, "pitch": 49, "duration": 14, "velocity": 41}, {"time": 3606, "pitch": 53, "duration": 5, "velocity": 40}, {"time": 3612, "pitch": 53, "duration": 2, "velocity": 42}, {"time": 3612, "pitch": 56, "duration": 9, "velocity": 78}, {"time": 3618, "pitch": 77, "duration": 2, "velocity": 70}, {"time": 3618, "pitch": 89, "duration": 2, "velocity": 59}, {"time": 3621, "pitch": 49, "duration": 5, "velocity": 37}, {"time": 3624, "pitch": 53, "duration": 3, "velocity": 66}, {"time": 3624, "pitch": 56, "duration": 3, "velocity": 76}, {"time": 3624, "pitch": 61, "duration": 3, "velocity": 75}, {"time": 3636, "pitch": 56, "duration": 3, "velocity": 51}, {"time": 3642, "pitch": 39, "duration": 14, "velocity": 69}, {"time": 3642, "pitch": 55, "duration": 7, "velocity": 70}, {"time": 3642, "pitch": 58, "duration": 8, "velocity": 59}, {"time": 3642, "pitch": 63, "duration": 7, "velocity": 57}, {"time": 3642, "pitch": 79, "duration": 2, "velocity": 57}, {"time": 3642, "pitch": 91, "duration": 2, "velocity": 80}, {"time": 3648, "pitch": 51, "duration": 11, "velocity": 56}, {"time": 3654, "pitch": 55, "duration": 8, "velocity": 75}, {"time": 3654, "pitch": 80, "duration": 2, "velocity": 76}, {"time": 3654, "pitch": 92, "duration": 2, "velocity": 67}, {"time": 3660, "pitch": 63, "duration": 4, "velocity": 62}, {"time": 3666, "pitch": 41, "duration": 12, "velocity": 70}, {"time": 3666, "pitch": 56, "duration": 12, "velocity": 69}, {"time": 3666, "pitch": 60, "duration": 13, "velocity": 64}, {"time": 3666, "pitch": 65, "duration": 2, "velocity": 72}, {"time": 3666, "pitch": 77, "duration": 3, "velocity": 82}, {"time": 3672, "pitch": 48, "duration": 5, "velocity": 43}, {"time": 3678, "pitch": 53, "duration": 8, "velocity": 51}, {"time": 3678, "pitch": 72, "duration": 2, "velocity": 80}, {"time": 3678, "pitch": 84, "duration": 2, "velocity": 78}, {"time": 3684, "pitch": 55, "duration": 11, "velocity": 61}, {"time": 3690, "pitch": 56, "duration": 4, "velocity": 62}, {"time": 3690, "pitch": 70, "duration": 2, "velocity": 82}, {"time": 3690, "pitch": 82, "duration": 2, "velocity": 73}, {"time": 3696, "pitch": 60, "duration": 3, "velocity": 64}, {"time": 3696, "pitch": 68, "duration": 6, "velocity": 76}, {"time": 3702, "pitch": 58, "duration": 4, "velocity": 66}, {"time": 3702, "pitch": 67, "duration": 6, "velocity": 52}, {"time": 3702, "pitch": 72, "duration": 2, "velocity": 76}, {"time": 3702, "pitch": 84, "duration": 2, "velocity": 75}, {"time": 3708, "pitch": 68, "duration": 7, "velocity": 69}, {"time": 3714, "pitch": 39, "duration": 9, "velocity": 49}, {"time": 3714, "pitch": 58, "duration": 26, "velocity": 62}, {"time": 3714, "pitch": 63, "duration": 25, "velocity": 57}, {"time": 3714, "pitch": 67, "duration": 20, "velocity": 64}, {"time": 3714, "pitch": 67, "duration": 20, "velocity": 82}, {"time": 3714, "pitch": 75, "duration": 21, "velocity": 80}, {"time": 3714, "pitch": 87, "duration": 21, "velocity": 80}, {"time": 3720, "pitch": 46, "duration": 5, "velocity": 46}, {"time": 3726, "pitch": 51, "duration": 9, "velocity": 49}, {"time": 3732, "pitch": 53, "duration": 14, "velocity": 57}, {"time": 3738, "pitch": 55, "duration": 7, "velocity": 64}, {"time": 3744, "pitch": 58, "duration": 4, "velocity": 64}, {"time": 3750, "pitch": 63, "duration": 7, "velocity": 58}, {"time": 3750, "pitch": 79, "duration": 2, "velocity": 91}, {"time": 3750, "pitch": 91, "duration": 3, "velocity": 72}, {"time": 3756, "pitch": 68, "duration": 44, "velocity": 66}, {"time": 3762, "pitch": 37, "duration": 6, "velocity": 56}, {"time": 3762, "pitch": 56, "duration": 19, "velocity": 63}, {"time": 3762, "pitch": 61, "duration": 20, "velocity": 63}, {"time": 3762, "pitch": 65, "duration": 31, "velocity": 60}, {"time": 3762, "pitch": 79, "duration": 11, "velocity": 82}, {"time": 3762, "pitch": 91, "duration": 12, "velocity": 72}, {"time": 3768, "pitch": 49, "duration": 8, "velocity": 63}, {"time": 3774, "pitch": 92, "duration": 3, "velocity": 88}, {"time": 3774, "pitch": 80, "duration": 3, "velocity": 59}, {"time": 3774, "pitch": 51, "duration": 28, "velocity": 50}, {"time": 3780, "pitch": 53, "duration": 40, "velocity": 62}, {"time": 3781, "pitch": 77, "duration": 41, "velocity": 80}, {"time": 3781, "pitch": 89, "duration": 41, "velocity": 57}, {"time": 3786, "pitch": 56, "duration": 8, "velocity": 49}, {"time": 3792, "pitch": 61, "duration": 7, "velocity": 59}, {"time": 3798, "pitch": 63, "duration": 6, "velocity": 50}, {"time": 3804, "pitch": 65, "duration": 18, "velocity": 63}, {"time": 3825, "pitch": 68, "duration": 4, "velocity": 32}, {"time": 3834, "pitch": 39, "duration": 13, "velocity": 63}, {"time": 3834, "pitch": 51, "duration": 13, "velocity": 61}, {"time": 3834, "pitch": 58, "duration": 12, "velocity": 62}, {"time": 3834, "pitch": 63, "duration": 14, "velocity": 67}, {"time": 3834, "pitch": 67, "duration": 15, "velocity": 56}, {"time": 3858, "pitch": 41, "duration": 11, "velocity": 62}, {"time": 3858, "pitch": 60, "duration": 24, "velocity": 70}, {"time": 3858, "pitch": 68, "duration": 24, "velocity": 78}, {"time": 3864, "pitch": 48, "duration": 6, "velocity": 53}, {"time": 3870, "pitch": 53, "duration": 8, "velocity": 47}, {"time": 3876, "pitch": 55, "duration": 10, "velocity": 59}, {"time": 3882, "pitch": 56, "duration": 5, "velocity": 73}, {"time": 3888, "pitch": 60, "duration": 4, "velocity": 54}, {"time": 3894, "pitch": 65, "duration": 5, "velocity": 62}, {"time": 3900, "pitch": 68, "duration": 5, "velocity": 66}, {"time": 3906, "pitch": 39, "duration": 10, "velocity": 70}, {"time": 3906, "pitch": 58, "duration": 29, "velocity": 54}, {"time": 3906, "pitch": 63, "duration": 25, "velocity": 61}, {"time": 3906, "pitch": 67, "duration": 28, "velocity": 67}, {"time": 3912, "pitch": 46, "duration": 5, "velocity": 49}, {"time": 3918, "pitch": 51, "duration": 8, "velocity": 48}, {"time": 3924, "pitch": 53, "duration": 17, "velocity": 43}, {"time": 3930, "pitch": 55, "duration": 11, "velocity": 73}, {"time": 3942, "pitch": 63, "duration": 12, "velocity": 60}, {"time": 3954, "pitch": 37, "duration": 44, "velocity": 63}, {"time": 3954, "pitch": 56, "duration": 8, "velocity": 66}, {"time": 3954, "pitch": 61, "duration": 9, "velocity": 69}, {"time": 3954, "pitch": 65, "duration": 10, "velocity": 66}, {"time": 3960, "pitch": 44, "duration": 37, "velocity": 47}, {"time": 3966, "pitch": 49, "duration": 8, "velocity": 46}, {"time": 3966, "pitch": 56, "duration": 3, "velocity": 45}, {"time": 3966, "pitch": 63, "duration": 5, "velocity": 61}, {"time": 3972, "pitch": 56, "duration": 4, "velocity": 66}, {"time": 3972, "pitch": 65, "duration": 8, "velocity": 72}, {"time": 3978, "pitch": 49, "duration": 6, "velocity": 40}, {"time": 3984, "pitch": 58, "duration": 5, "velocity": 61}, {"time": 3984, "pitch": 68, "duration": 8, "velocity": 69}, {"time": 3990, "pitch": 49, "duration": 8, "velocity": 44}, {"time": 3996, "pitch": 58, "duration": 7, "velocity": 53}, {"time": 3996, "pitch": 67, "duration": 5, "velocity": 57}, {"time": 4002, "pitch": 37, "duration": 14, "velocity": 61}, {"time": 4008, "pitch": 49, "duration": 9, "velocity": 53}, {"time": 4008, "pitch": 67, "duration": 8, "velocity": 67}, {"time": 4014, "pitch": 56, "duration": 4, "velocity": 61}, {"time": 4014, "pitch": 68, "duration": 11, "velocity": 66}, {"time": 4020, "pitch": 68, "duration": 5, "velocity": 66}, {"time": 4020, "pitch": 75, "duration": 18, "velocity": 58}, {"time": 4020, "pitch": 84, "duration": 3, "velocity": 69}, {"time": 4023, "pitch": 85, "duration": 4, "velocity": 70}, {"time": 4026, "pitch": 39, "duration": 13, "velocity": 72}, {"time": 4026, "pitch": 63, "duration": 6, "velocity": 66}, {"time": 4026, "pitch": 67, "duration": 6, "velocity": 64}, {"time": 4026, "pitch": 84, "duration": 15, "velocity": 61}, {"time": 4032, "pitch": 46, "duration": 8, "velocity": 47}, {"time": 4032, "pitch": 61, "duration": 7, "velocity": 34}, {"time": 4032, "pitch": 65, "duration": 5, "velocity": 62}, {"time": 4038, "pitch": 51, "duration": 5, "velocity": 53}, {"time": 4038, "pitch": 63, "duration": 2, "velocity": 55}, {"time": 4038, "pitch": 67, "duration": 8, "velocity": 64}, {"time": 4044, "pitch": 68, "duration": 3, "velocity": 69}, {"time": 4050, "pitch": 41, "duration": 9, "velocity": 73}, {"time": 4050, "pitch": 65, "duration": 22, "velocity": 64}, {"time": 4050, "pitch": 68, "duration": 22, "velocity": 56}, {"time": 4056, "pitch": 48, "duration": 5, "velocity": 51}, {"time": 4062, "pitch": 53, "duration": 7, "velocity": 46}, {"time": 4068, "pitch": 55, "duration": 15, "velocity": 61}, {"time": 4074, "pitch": 56, "duration": 8, "velocity": 64}, {"time": 4080, "pitch": 60, "duration": 4, "velocity": 61}, {"time": 4086, "pitch": 65, "duration": 6, "velocity": 54}, {"time": 4092, "pitch": 68, "duration": 5, "velocity": 63}, {"time": 4098, "pitch": 39, "duration": 38, "velocity": 58}, {"time": 4098, "pitch": 58, "duration": 8, "velocity": 57}, {"time": 4098, "pitch": 63, "duration": 7, "velocity": 61}, {"time": 4098, "pitch": 67, "duration": 8, "velocity": 62}, {"time": 4104, "pitch": 46, "duration": 33, "velocity": 56}, {"time": 4110, "pitch": 51, "duration": 13, "velocity": 49}, {"time": 4116, "pitch": 55, "duration": 10, "velocity": 62}, {"time": 4116, "pitch": 63, "duration": 10, "velocity": 76}, {"time": 4128, "pitch": 58, "duration": 7, "velocity": 73}, {"time": 4134, "pitch": 51, "duration": 3, "velocity": 59}, {"time": 4146, "pitch": 37, "duration": 38, "velocity": 70}, {"time": 4146, "pitch": 53, "duration": 13, "velocity": 60}, {"time": 4146, "pitch": 56, "duration": 13, "velocity": 67}, {"time": 4146, "pitch": 61, "duration": 12, "velocity": 66}, {"time": 4152, "pitch": 44, "duration": 33, "velocity": 53}, {"time": 4158, "pitch": 49, "duration": 12, "velocity": 53}, {"time": 4164, "pitch": 53, "duration": 10, "velocity": 50}, {"time": 4164, "pitch": 61, "duration": 2, "velocity": 35}, {"time": 4173, "pitch": 49, "duration": 4, "velocity": 40}, {"time": 4176, "pitch": 53, "duration": 7, "velocity": 67}, {"time": 4176, "pitch": 56, "duration": 7, "velocity": 72}, {"time": 4176, "pitch": 61, "duration": 6, "velocity": 67}, {"time": 4182, "pitch": 49, "duration": 3, "velocity": 61}, {"time": 4188, "pitch": 61, "duration": 3, "velocity": 45}, {"time": 4194, "pitch": 44, "duration": 39, "velocity": 73}, {"time": 4194, "pitch": 51, "duration": 2, "velocity": 47}, {"time": 4194, "pitch": 56, "duration": 6, "velocity": 73}, {"time": 4194, "pitch": 60, "duration": 7, "velocity": 72}, {"time": 4200, "pitch": 51, "duration": 32, "velocity": 61}, {"time": 4206, "pitch": 56, "duration": 8, "velocity": 67}, {"time": 4212, "pitch": 58, "duration": 8, "velocity": 63}, {"time": 4212, "pitch": 63, "duration": 8, "velocity": 70}, {"time": 4212, "pitch": 75, "duration": 3, "velocity": 70}, {"time": 4215, "pitch": 77, "duration": 5, "velocity": 54}, {"time": 4218, "pitch": 56, "duration": 7, "velocity": 57}, {"time": 4218, "pitch": 72, "duration": 11, "velocity": 69}, {"time": 4224, "pitch": 58, "duration": 3, "velocity": 50}, {"time": 4224, "pitch": 60, "duration": 9, "velocity": 72}, {"time": 4230, "pitch": 56, "duration": 3, "velocity": 61}, {"time": 4230, "pitch": 68, "duration": 13, "velocity": 61}, {"time": 4236, "pitch": 63, "duration": 3, "velocity": 48}, {"time": 4242, "pitch": 46, "duration": 38, "velocity": 64}, {"time": 4242, "pitch": 56, "duration": 4, "velocity": 58}, {"time": 4242, "pitch": 61, "duration": 12, "velocity": 63}, {"time": 4242, "pitch": 65, "duration": 12, "velocity": 58}, {"time": 4242, "pitch": 70, "duration": 11, "velocity": 62}, {"time": 4248, "pitch": 53, "duration": 29, "velocity": 52}, {"time": 4254, "pitch": 58, "duration": 22, "velocity": 55}, {"time": 4260, "pitch": 60, "duration": 7, "velocity": 63}, {"time": 4266, "pitch": 61, "duration": 4, "velocity": 70}, {"time": 4272, "pitch": 65, "duration": 8, "velocity": 76}, {"time": 4278, "pitch": 67, "duration": 6, "velocity": 52}, {"time": 4284, "pitch": 70, "duration": 6, "velocity": 56}, {"time": 4290, "pitch": 39, "duration": 9, "velocity": 69}, {"time": 4290, "pitch": 68, "duration": 21, "velocity": 69}, {"time": 4296, "pitch": 46, "duration": 5, "velocity": 57}, {"time": 4302, "pitch": 51, "duration": 8, "velocity": 47}, {"time": 4308, "pitch": 53, "duration": 16, "velocity": 66}, {"time": 4314, "pitch": 55, "duration": 10, "velocity": 62}, {"time": 4320, "pitch": 58, "duration": 7, "velocity": 54}, {"time": 4326, "pitch": 63, "duration": 6, "velocity": 55}, {"time": 4332, "pitch": 70, "duration": 7, "velocity": 66}, {"time": 4338, "pitch": 44, "duration": 15, "velocity": 67}, {"time": 4338, "pitch": 68, "duration": 17, "velocity": 88}, {"time": 4344, "pitch": 51, "duration": 17, "velocity": 53}, {"time": 4350, "pitch": 56, "duration": 5, "velocity": 59}, {"time": 4356, "pitch": 72, "duration": 7, "velocity": 69}, {"time": 4362, "pitch": 43, "duration": 17, "velocity": 56}, {"time": 4362, "pitch": 70, "duration": 10, "velocity": 66}, {"time": 4368, "pitch": 51, "duration": 10, "velocity": 51}, {"time": 4374, "pitch": 55, "duration": 4, "velocity": 61}, {"time": 4380, "pitch": 75, "duration": 9, "velocity": 56}, {"time": 4386, "pitch": 41, "duration": 9, "velocity": 67}, {"time": 4386, "pitch": 68, "duration": 19, "velocity": 70}, {"time": 4392, "pitch": 48, "duration": 6, "velocity": 53}, {"time": 4398, "pitch": 53, "duration": 8, "velocity": 56}, {"time": 4404, "pitch": 55, "duration": 16, "velocity": 56}, {"time": 4410, "pitch": 56, "duration": 9, "velocity": 67}, {"time": 4416, "pitch": 65, "duration": 7, "velocity": 53}, {"time": 4422, "pitch": 67, "duration": 6, "velocity": 57}, {"time": 4428, "pitch": 68, "duration": 13, "velocity": 59}, {"time": 4434, "pitch": 46, "duration": 37, "velocity": 67}, {"time": 4434, "pitch": 61, "duration": 15, "velocity": 70}, {"time": 4440, "pitch": 53, "duration": 30, "velocity": 52}, {"time": 4446, "pitch": 58, "duration": 20, "velocity": 59}, {"time": 4452, "pitch": 60, "duration": 7, "velocity": 61}, {"time": 4458, "pitch": 61, "duration": 7, "velocity": 60}, {"time": 4464, "pitch": 63, "duration": 5, "velocity": 54}, {"time": 4470, "pitch": 65, "duration": 5, "velocity": 58}, {"time": 4476, "pitch": 68, "duration": 8, "velocity": 48}, {"time": 4482, "pitch": 49, "duration": 37, "velocity": 63}, {"time": 4482, "pitch": 56, "duration": 9, "velocity": 70}, {"time": 4482, "pitch": 61, "duration": 9, "velocity": 72}, {"time": 4482, "pitch": 65, "duration": 16, "velocity": 67}, {"time": 4488, "pitch": 53, "duration": 26, "velocity": 57}, {"time": 4494, "pitch": 56, "duration": 24, "velocity": 61}, {"time": 4500, "pitch": 61, "duration": 18, "velocity": 62}, {"time": 4512, "pitch": 65, "duration": 7, "velocity": 88}, {"time": 4518, "pitch": 53, "duration": 2, "velocity": 55}, {"time": 4524, "pitch": 60, "duration": 9, "velocity": 54}, {"time": 4530, "pitch": 36, "duration": 5, "velocity": 72}, {"time": 4530, "pitch": 67, "duration": 19, "velocity": 69}, {"time": 4536, "pitch": 48, "duration": 7, "velocity": 60}, {"time": 4542, "pitch": 53, "duration": 21, "velocity": 76}, {"time": 4548, "pitch": 55, "duration": 15, "velocity": 64}, {"time": 4554, "pitch": 60, "duration": 5, "velocity": 60}, {"time": 4560, "pitch": 65, "duration": 7, "velocity": 57}, {"time": 4566, "pitch": 67, "duration": 2, "velocity": 64}, {"time": 4572, "pitch": 72, "duration": 25, "velocity": 61}, {"time": 4578, "pitch": 36, "duration": 14, "velocity": 63}, {"time": 4578, "pitch": 84, "duration": 17, "velocity": 56}, {"time": 4602, "pitch": 79, "duration": 4, "velocity": 70}, {"time": 4608, "pitch": 79, "duration": 6, "velocity": 45}, {"time": 4614, "pitch": 75, "duration": 2, "velocity": 72}, {"time": 4626, "pitch": 53, "duration": 39, "velocity": 63}, {"time": 4626, "pitch": 72, "duration": 6, "velocity": 63}, {"time": 4632, "pitch": 60, "duration": 25, "velocity": 54}, {"time": 4632, "pitch": 67, "duration": 6, "velocity": 47}, {"time": 4638, "pitch": 68, "duration": 7, "velocity": 63}, {"time": 4644, "pitch": 70, "duration": 7, "velocity": 70}, {"time": 4650, "pitch": 65, "duration": 12, "velocity": 60}, {"time": 4650, "pitch": 72, "duration": 7, "velocity": 73}, {"time": 4656, "pitch": 67, "duration": 8, "velocity": 57}, {"time": 4662, "pitch": 60, "duration": 13, "velocity": 62}, {"time": 4662, "pitch": 68, "duration": 11, "velocity": 69}, {"time": 4668, "pitch": 72, "duration": 7, "velocity": 60}, {"time": 4674, "pitch": 51, "duration": 38, "velocity": 59}, {"time": 4674, "pitch": 70, "duration": 12, "velocity": 69}, {"time": 4680, "pitch": 60, "duration": 19, "velocity": 57}, {"time": 4686, "pitch": 63, "duration": 15, "velocity": 61}, {"time": 4692, "pitch": 67, "duration": 8, "velocity": 62}, {"time": 4698, "pitch": 68, "duration": 8, "velocity": 66}, {"time": 4704, "pitch": 60, "duration": 7, "velocity": 72}, {"time": 4710, "pitch": 67, "duration": 5, "velocity": 80}, {"time": 4716, "pitch": 68, "duration": 4, "velocity": 54}, {"time": 4719, "pitch": 67, "duration": 5, "velocity": 57}, {"time": 4722, "pitch": 49, "duration": 38, "velocity": 69}, {"time": 4722, "pitch": 65, "duration": 14, "velocity": 69}, {"time": 4728, "pitch": 56, "duration": 13, "velocity": 57}, {"time": 4734, "pitch": 61, "duration": 19, "velocity": 59}, {"time": 4740, "pitch": 63, "duration": 13, "velocity": 82}, {"time": 4752, "pitch": 65, "duration": 5, "velocity": 67}, {"time": 4758, "pitch": 56, "duration": 2, "velocity": 63}, {"time": 4764, "pitch": 56, "duration": 7, "velocity": 64}, {"time": 4770, "pitch": 37, "duration": 38, "velocity": 38}, {"time": 4776, "pitch": 44, "duration": 34, "velocity": 61}, {"time": 4782, "pitch": 49, "duration": 11, "velocity": 49}, {"time": 4788, "pitch": 72, "duration": 3, "velocity": 58}, {"time": 4788, "pitch": 80, "duration": 3, "velocity": 63}, {"time": 4794, "pitch": 72, "duration": 3, "velocity": 60}, {"time": 4794, "pitch": 80, "duration": 3, "velocity": 61}, {"time": 4800, "pitch": 49, "duration": 4, "velocity": 59}, {"time": 4803, "pitch": 70, "duration": 3, "velocity": 67}, {"time": 4803, "pitch": 79, "duration": 3, "velocity": 70}, {"time": 4806, "pitch": 49, "duration": 6, "velocity": 62}, {"time": 4812, "pitch": 67, "duration": 3, "velocity": 61}, {"time": 4812, "pitch": 75, "duration": 4, "velocity": 64}, {"time": 4818, "pitch": 41, "duration": 11, "velocity": 70}, {"time": 4818, "pitch": 68, "duration": 14, "velocity": 61}, {"time": 4818, "pitch": 77, "duration": 14, "velocity": 66}, {"time": 4824, "pitch": 48, "duration": 6, "velocity": 56}, {"time": 4830, "pitch": 53, "duration": 7, "velocity": 51}, {"time": 4836, "pitch": 55, "duration": 10, "velocity": 64}, {"time": 4842, "pitch": 56, "duration": 4, "velocity": 64}, {"time": 4848, "pitch": 60, "duration": 6, "velocity": 64}, {"time": 4854, "pitch": 65, "duration": 6, "velocity": 67}, {"time": 4860, "pitch": 68, "duration": 5, "velocity": 60}, {"time": 4866, "pitch": 39, "duration": 10, "velocity": 69}, {"time": 4866, "pitch": 58, "duration": 26, "velocity": 59}, {"time": 4866, "pitch": 63, "duration": 21, "velocity": 66}, {"time": 4866, "pitch": 67, "duration": 24, "velocity": 75}, {"time": 4872, "pitch": 46, "duration": 5, "velocity": 55}, {"time": 4878, "pitch": 51, "duration": 8, "velocity": 47}, {"time": 4884, "pitch": 53, "duration": 16, "velocity": 53}, {"time": 4890, "pitch": 55, "duration": 10, "velocity": 61}, {"time": 4896, "pitch": 58, "duration": 8, "velocity": 59}, {"time": 4902, "pitch": 63, "duration": 6, "velocity": 67}, {"time": 4908, "pitch": 68, "duration": 33, "velocity": 66}, {"time": 4914, "pitch": 37, "duration": 10, "velocity": 63}, {"time": 4914, "pitch": 56, "duration": 26, "velocity": 64}, {"time": 4914, "pitch": 61, "duration": 25, "velocity": 64}, {"time": 4914, "pitch": 65, "duration": 26, "velocity": 62}, {"time": 4920, "pitch": 44, "duration": 5, "velocity": 54}, {"time": 4926, "pitch": 49, "duration": 8, "velocity": 47}, {"time": 4932, "pitch": 51, "duration": 18, "velocity": 57}, {"time": 4938, "pitch": 53, "duration": 12, "velocity": 59}, {"time": 4944, "pitch": 56, "duration": 4, "velocity": 56}, {"time": 4950, "pitch": 61, "duration": 10, "velocity": 59}, {"time": 4956, "pitch": 68, "duration": 18, "velocity": 62}, {"time": 4962, "pitch": 44, "duration": 19, "velocity": 73}, {"time": 4962, "pitch": 60, "duration": 11, "velocity": 67}, {"time": 4962, "pitch": 63, "duration": 11, "velocity": 73}, {"time": 4968, "pitch": 51, "duration": 14, "velocity": 47}, {"time": 4974, "pitch": 56, "duration": 7, "velocity": 55}, {"time": 4980, "pitch": 58, "duration": 4, "velocity": 70}, {"time": 4980, "pitch": 63, "duration": 4, "velocity": 70}, {"time": 4992, "pitch": 45, "duration": 7, "velocity": 58}, {"time": 4992, "pitch": 57, "duration": 8, "velocity": 73}, {"time": 4992, "pitch": 60, "duration": 10, "velocity": 75}, {"time": 4992, "pitch": 63, "duration": 10, "velocity": 76}, {"time": 5004, "pitch": 68, "duration": 5, "velocity": 56}, {"time": 5010, "pitch": 46, "duration": 37, "velocity": 62}, {"time": 5010, "pitch": 53, "duration": 35, "velocity": 64}, {"time": 5010, "pitch": 58, "duration": 6, "velocity": 56}, {"time": 5010, "pitch": 61, "duration": 11, "velocity": 72}, {"time": 5010, "pitch": 65, "duration": 11, "velocity": 75}, {"time": 5019, "pitch": 58, "duration": 13, "velocity": 32}, {"time": 5025, "pitch": 60, "duration": 5, "velocity": 49}, {"time": 5025, "pitch": 63, "duration": 5, "velocity": 64}, {"time": 5031, "pitch": 60, "duration": 2, "velocity": 44}, {"time": 5031, "pitch": 61, "duration": 11, "velocity": 70}, {"time": 5031, "pitch": 65, "duration": 11, "velocity": 75}, {"time": 5040, "pitch": 58, "duration": 5, "velocity": 58}, {"time": 5046, "pitch": 60, "duration": 5, "velocity": 67}, {"time": 5046, "pitch": 65, "duration": 4, "velocity": 53}, {"time": 5052, "pitch": 68, "duration": 5, "velocity": 61}, {"time": 5058, "pitch": 39, "duration": 10, "velocity": 69}, {"time": 5058, "pitch": 58, "duration": 26, "velocity": 63}, {"time": 5058, "pitch": 63, "duration": 17, "velocity": 64}, {"time": 5058, "pitch": 67, "duration": 19, "velocity": 73}, {"time": 5064, "pitch": 46, "duration": 5, "velocity": 48}, {"time": 5070, "pitch": 51, "duration": 8, "velocity": 40}, {"time": 5076, "pitch": 53, "duration": 14, "velocity": 62}, {"time": 5082, "pitch": 55, "duration": 8, "velocity": 61}, {"time": 5088, "pitch": 58, "duration": 8, "velocity": 66}, {"time": 5094, "pitch": 60, "duration": 7, "velocity": 59}, {"time": 5100, "pitch": 61, "duration": 5, "velocity": 62}, {"time": 5106, "pitch": 44, "duration": 20, "velocity": 72}, {"time": 5106, "pitch": 60, "duration": 17, "velocity": 69}, {"time": 5106, "pitch": 63, "duration": 13, "velocity": 72}, {"time": 5112, "pitch": 51, "duration": 10, "velocity": 55}, {"time": 5118, "pitch": 56, "duration": 6, "velocity": 55}, {"time": 5124, "pitch": 51, "duration": 6, "velocity": 49}, {"time": 5124, "pitch": 63, "duration": 5, "velocity": 58}, {"time": 5130, "pitch": 43, "duration": 16, "velocity": 69}, {"time": 5130, "pitch": 58, "duration": 15, "velocity": 57}, {"time": 5136, "pitch": 51, "duration": 11, "velocity": 52}, {"time": 5142, "pitch": 55, "duration": 5, "velocity": 61}, {"time": 5148, "pitch": 63, "duration": 7, "velocity": 66}, {"time": 5154, "pitch": 41, "duration": 37, "velocity": 70}, {"time": 5154, "pitch": 56, "duration": 13, "velocity": 62}, {"time": 5154, "pitch": 60, "duration": 12, "velocity": 69}, {"time": 5160, "pitch": 48, "duration": 31, "velocity": 52}, {"time": 5166, "pitch": 53, "duration": 25, "velocity": 56}, {"time": 5172, "pitch": 55, "duration": 8, "velocity": 58}, {"time": 5178, "pitch": 56, "duration": 13, "velocity": 49}, {"time": 5190, "pitch": 60, "duration": 11, "velocity": 54}, {"time": 5202, "pitch": 46, "duration": 7, "velocity": 39}, {"time": 5202, "pitch": 53, "duration": 14, "velocity": 72}, {"time": 5202, "pitch": 61, "duration": 18, "velocity": 66}, {"time": 5208, "pitch": 48, "duration": 29, "velocity": 64}, {"time": 5214, "pitch": 49, "duration": 23, "velocity": 55}, {"time": 5220, "pitch": 53, "duration": 16, "velocity": 73}, {"time": 5232, "pitch": 56, "duration": 5, "velocity": 78}, {"time": 5238, "pitch": 63, "duration": 5, "velocity": 58}, {"time": 5244, "pitch": 68, "duration": 6, "velocity": 58}, {"time": 5250, "pitch": 39, "duration": 12, "velocity": 73}, {"time": 5250, "pitch": 58, "duration": 26, "velocity": 69}, {"time": 5250, "pitch": 63, "duration": 24, "velocity": 70}, {"time": 5250, "pitch": 67, "duration": 24, "velocity": 73}, {"time": 5256, "pitch": 46, "duration": 6, "velocity": 56}, {"time": 5262, "pitch": 51, "duration": 8, "velocity": 63}, {"time": 5268, "pitch": 53, "duration": 17, "velocity": 64}, {"time": 5274, "pitch": 55, "duration": 11, "velocity": 72}, {"time": 5280, "pitch": 58, "duration": 5, "velocity": 66}, {"time": 5286, "pitch": 63, "duration": 7, "velocity": 78}, {"time": 5292, "pitch": 70, "duration": 8, "velocity": 70}, {"time": 5298, "pitch": 44, "duration": 9, "velocity": 73}, {"time": 5298, "pitch": 68, "duration": 22, "velocity": 85}, {"time": 5304, "pitch": 51, "duration": 6, "velocity": 58}, {"time": 5310, "pitch": 56, "duration": 7, "velocity": 53}, {"time": 5316, "pitch": 58, "duration": 61, "velocity": 70}, {"time": 5322, "pitch": 60, "duration": 49, "velocity": 62}, {"time": 5328, "pitch": 61, "duration": 9, "velocity": 80}, {"time": 5334, "pitch": 65, "duration": 5, "velocity": 61}, {"time": 5340, "pitch": 68, "duration": 6, "velocity": 59}, {"time": 5346, "pitch": 73, "duration": 18, "velocity": 75}, {"time": 5364, "pitch": 72, "duration": 4, "velocity": 60}, {"time": 5367, "pitch": 70, "duration": 4, "velocity": 53}, {"time": 5370, "pitch": 72, "duration": 8, "velocity": 73}, {"time": 5394, "pitch": 49, "duration": 40, "velocity": 60}, {"time": 5394, "pitch": 56, "duration": 20, "velocity": 63}, {"time": 5394, "pitch": 61, "duration": 17, "velocity": 66}, {"time": 5394, "pitch": 65, "duration": 15, "velocity": 69}, {"time": 5418, "pitch": 56, "duration": 14, "velocity": 60}, {"time": 5418, "pitch": 61, "duration": 15, "velocity": 66}, {"time": 5418, "pitch": 65, "duration": 14, "velocity": 61}, {"time": 5436, "pitch": 68, "duration": 7, "velocity": 58}, {"time": 5442, "pitch": 49, "duration": 36, "velocity": 58}, {"time": 5442, "pitch": 58, "duration": 18, "velocity": 60}, {"time": 5442, "pitch": 63, "duration": 17, "velocity": 56}, {"time": 5442, "pitch": 67, "duration": 17, "velocity": 62}, {"time": 5466, "pitch": 58, "duration": 14, "velocity": 63}, {"time": 5466, "pitch": 63, "duration": 6, "velocity": 72}, {"time": 5466, "pitch": 67, "duration": 6, "velocity": 63}, {"time": 5478, "pitch": 65, "duration": 5, "velocity": 69}, {"time": 5484, "pitch": 70, "duration": 19, "velocity": 67}, {"time": 5490, "pitch": 48, "duration": 35, "velocity": 72}, {"time": 5490, "pitch": 58, "duration": 3, "velocity": 55}, {"time": 5490, "pitch": 63, "duration": 12, "velocity": 66}, {"time": 5496, "pitch": 55, "duration": 29, "velocity": 61}, {"time": 5502, "pitch": 60, "duration": 20, "velocity": 64}, {"time": 5508, "pitch": 63, "duration": 10, "velocity": 63}, {"time": 5520, "pitch": 70, "duration": 8, "velocity": 59}, {"time": 5526, "pitch": 72, "duration": 5, "velocity": 63}, {"time": 5532, "pitch": 75, "duration": 7, "velocity": 69}, {"time": 5538, "pitch": 41, "duration": 9, "velocity": 73}, {"time": 5538, "pitch": 72, "duration": 13, "velocity": 73}, {"time": 5544, "pitch": 48, "duration": 6, "velocity": 61}, {"time": 5550, "pitch": 53, "duration": 7, "velocity": 46}, {"time": 5556, "pitch": 55, "duration": 18, "velocity": 66}, {"time": 5562, "pitch": 56, "duration": 11, "velocity": 64}, {"time": 5568, "pitch": 72, "duration": 5, "velocity": 52}, {"time": 5568, "pitch": 80, "duration": 5, "velocity": 73}, {"time": 5574, "pitch": 79, "duration": 4, "velocity": 56}, {"time": 5580, "pitch": 75, "duration": 6, "velocity": 69}, {"time": 5586, "pitch": 46, "duration": 36, "velocity": 70}, {"time": 5586, "pitch": 68, "duration": 9, "velocity": 63}, {"time": 5586, "pitch": 73, "duration": 7, "velocity": 64}, {"time": 5592, "pitch": 53, "duration": 29, "velocity": 47}, {"time": 5598, "pitch": 58, "duration": 18, "velocity": 69}, {"time": 5604, "pitch": 60, "duration": 7, "velocity": 76}, {"time": 5610, "pitch": 61, "duration": 4, "velocity": 70}, {"time": 5616, "pitch": 65, "duration": 8, "velocity": 70}, {"time": 5622, "pitch": 68, "duration": 7, "velocity": 42}, {"time": 5628, "pitch": 73, "duration": 7, "velocity": 67}, {"time": 5634, "pitch": 39, "duration": 11, "velocity": 69}, {"time": 5634, "pitch": 72, "duration": 12, "velocity": 91}, {"time": 5640, "pitch": 46, "duration": 6, "velocity": 69}, {"time": 5646, "pitch": 51, "duration": 7, "velocity": 85}, {"time": 5652, "pitch": 53, "duration": 9, "velocity": 51}, {"time": 5658, "pitch": 55, "duration": 3, "velocity": 76}, {"time": 5664, "pitch": 56, "duration": 7, "velocity": 85}, {"time": 5670, "pitch": 58, "duration": 5, "velocity": 62}, {"time": 5676, "pitch": 61, "duration": 5, "velocity": 66}, {"time": 5682, "pitch": 44, "duration": 37, "velocity": 75}, {"time": 5682, "pitch": 60, "duration": 8, "velocity": 88}, {"time": 5688, "pitch": 51, "duration": 29, "velocity": 58}, {"time": 5694, "pitch": 56, "duration": 10, "velocity": 75}, {"time": 5700, "pitch": 58, "duration": 4, "velocity": 95}, {"time": 5706, "pitch": 60, "duration": 8, "velocity": 75}, {"time": 5712, "pitch": 61, "duration": 4, "velocity": 85}, {"time": 5718, "pitch": 63, "duration": 4, "velocity": 78}, {"time": 5736, "pitch": 44, "duration": 8, "velocity": 69}, {"time": 5736, "pitch": 56, "duration": 7, "velocity": 88}, {"time": 5736, "pitch": 60, "duration": 5, "velocity": 82}, {"time": 5736, "pitch": 63, "duration": 7, "velocity": 85}, {"time": 5745, "pitch": 46, "duration": 8, "velocity": 76}, {"time": 5745, "pitch": 56, "duration": 5, "velocity": 82}, {"time": 5745, "pitch": 61, "duration": 6, "velocity": 95}, {"time": 5754, "pitch": 48, "duration": 14, "velocity": 80}, {"time": 5754, "pitch": 56, "duration": 6, "velocity": 88}, {"time": 5754, "pitch": 63, "duration": 6, "velocity": 93}, {"time": 5763, "pitch": 51, "duration": 5, "velocity": 82}, {"time": 5763, "pitch": 56, "duration": 6, "velocity": 85}, {"time": 5763, "pitch": 65, "duration": 9, "velocity": 95}, {"time": 5772, "pitch": 68, "duration": 5, "velocity": 78}, {"time": 5778, "pitch": 37, "duration": 11, "velocity": 93}, {"time": 5778, "pitch": 56, "duration": 15, "velocity": 97}, {"time": 5778, "pitch": 61, "duration": 16, "velocity": 88}, {"time": 5778, "pitch": 65, "duration": 14, "velocity": 88}, {"time": 5778, "pitch": 68, "duration": 15, "velocity": 66}, {"time": 5784, "pitch": 44, "duration": 6, "velocity": 62}, {"time": 5790, "pitch": 49, "duration": 6, "velocity": 64}, {"time": 5793, "pitch": 51, "duration": 22, "velocity": 62}, {"time": 5796, "pitch": 56, "duration": 3, "velocity": 76}, {"time": 5799, "pitch": 53, "duration": 17, "velocity": 60}, {"time": 5799, "pitch": 61, "duration": 3, "velocity": 69}, {"time": 5802, "pitch": 65, "duration": 4, "velocity": 82}, {"time": 5805, "pitch": 68, "duration": 3, "velocity": 67}, {"time": 5808, "pitch": 70, "duration": 1, "velocity": 64}, {"time": 5810, "pitch": 72, "duration": 1, "velocity": 62}, {"time": 5811, "pitch": 75, "duration": 5, "velocity": 82}, {"time": 5814, "pitch": 77, "duration": 3, "velocity": 44}, {"time": 5814, "pitch": 80, "duration": 4, "velocity": 61}, {"time": 5817, "pitch": 85, "duration": 2, "velocity": 78}, {"time": 5826, "pitch": 39, "duration": 39, "velocity": 91}, {"time": 5832, "pitch": 46, "duration": 34, "velocity": 70}, {"time": 5838, "pitch": 51, "duration": 8, "velocity": 80}, {"time": 5844, "pitch": 55, "duration": 2, "velocity": 88}, {"time": 5844, "pitch": 58, "duration": 2, "velocity": 99}, {"time": 5844, "pitch": 63, "duration": 3, "velocity": 73}, {"time": 5850, "pitch": 51, "duration": 9, "velocity": 45}, {"time": 5856, "pitch": 68, "duration": 2, "velocity": 48}, {"time": 5856, "pitch": 79, "duration": 3, "velocity": 80}, {"time": 5862, "pitch": 51, "duration": 4, "velocity": 60}, {"time": 5862, "pitch": 68, "duration": 3, "velocity": 85}, {"time": 5862, "pitch": 79, "duration": 4, "velocity": 82}, {"time": 5868, "pitch": 68, "duration": 3, "velocity": 69}, {"time": 5868, "pitch": 77, "duration": 4, "velocity": 91}, {"time": 5868, "pitch": 79, "duration": 1, "velocity": 55}, {"time": 5874, "pitch": 48, "duration": 43, "velocity": 69}, {"time": 5874, "pitch": 58, "duration": 9, "velocity": 73}, {"time": 5874, "pitch": 63, "duration": 15, "velocity": 76}, {"time": 5880, "pitch": 55, "duration": 17, "velocity": 63}, {"time": 5886, "pitch": 58, "duration": 24, "velocity": 67}, {"time": 5892, "pitch": 70, "duration": 19, "velocity": 73}, {"time": 5904, "pitch": 67, "duration": 10, "velocity": 72}, {"time": 5910, "pitch": 55, "duration": 8, "velocity": 70}, {"time": 5916, "pitch": 63, "duration": 5, "velocity": 72}, {"time": 5922, "pitch": 53, "duration": 38, "velocity": 69}, {"time": 5922, "pitch": 68, "duration": 14, "velocity": 73}, {"time": 5922, "pitch": 72, "duration": 14, "velocity": 75}, {"time": 5928, "pitch": 60, "duration": 21, "velocity": 60}, {"time": 5934, "pitch": 65, "duration": 20, "velocity": 66}, {"time": 5940, "pitch": 67, "duration": 9, "velocity": 82}, {"time": 5946, "pitch": 68, "duration": 8, "velocity": 80}, {"time": 5952, "pitch": 70, "duration": 5, "velocity": 78}, {"time": 5958, "pitch": 60, "duration": 2, "velocity": 75}, {"time": 5958, "pitch": 72, "duration": 7, "velocity": 69}, {"time": 5964, "pitch": 75, "duration": 3, "velocity": 70}, {"time": 5970, "pitch": 46, "duration": 10, "velocity": 67}, {"time": 5970, "pitch": 65, "duration": 25, "velocity": 66}, {"time": 5970, "pitch": 73, "duration": 26, "velocity": 91}, {"time": 5976, "pitch": 53, "duration": 6, "velocity": 57}, {"time": 5982, "pitch": 58, "duration": 8, "velocity": 58}, {"time": 5988, "pitch": 60, "duration": 15, "velocity": 58}, {"time": 5994, "pitch": 61, "duration": 8, "velocity": 66}, {"time": 6000, "pitch": 65, "duration": 4, "velocity": 63}, {"time": 6006, "pitch": 65, "duration": 3, "velocity": 41}, {"time": 6006, "pitch": 72, "duration": 5, "velocity": 54}, {"time": 6012, "pitch": 73, "duration": 8, "velocity": 62}, {"time": 6018, "pitch": 39, "duration": 34, "velocity": 76}, {"time": 6018, "pitch": 63, "duration": 13, "velocity": 69}, {"time": 6018, "pitch": 72, "duration": 10, "velocity": 78}, {"time": 6024, "pitch": 46, "duration": 29, "velocity": 66}, {"time": 6030, "pitch": 51, "duration": 24, "velocity": 80}, {"time": 6036, "pitch": 56, "duration": 7, "velocity": 78}, {"time": 6042, "pitch": 58, "duration": 3, "velocity": 66}, {"time": 6048, "pitch": 61, "duration": 8, "velocity": 76}, {"time": 6054, "pitch": 63, "duration": 6, "velocity": 85}, {"time": 6060, "pitch": 68, "duration": 26, "velocity": 69}, {"time": 6066, "pitch": 44, "duration": 42, "velocity": 76}, {"time": 6066, "pitch": 60, "duration": 16, "velocity": 70}, {"time": 6072, "pitch": 51, "duration": 73, "velocity": 64}, {"time": 6078, "pitch": 56, "duration": 8, "velocity": 66}, {"time": 6084, "pitch": 61, "duration": 15, "velocity": 80}, {"time": 6084, "pitch": 65, "duration": 15, "velocity": 82}, {"time": 6096, "pitch": 56, "duration": 10, "velocity": 53}, {"time": 6102, "pitch": 63, "duration": 7, "velocity": 63}, {"time": 6108, "pitch": 68, "duration": 36, "velocity": 69}, {"time": 6114, "pitch": 44, "duration": 30, "velocity": 67}, {"time": 6114, "pitch": 56, "duration": 31, "velocity": 67}, {"time": 6114, "pitch": 60, "duration": 26, "velocity": 69}, {"time": 6114, "pitch": 63, "duration": 28, "velocity": 70}, {"time": 6162, "pitch": 53, "duration": 82, "velocity": 60}, {"time": 6162, "pitch": 72, "duration": 6, "velocity": 64}, {"time": 6168, "pitch": 60, "duration": 62, "velocity": 51}, {"time": 6168, "pitch": 67, "duration": 6, "velocity": 49}, {"time": 6174, "pitch": 68, "duration": 6, "velocity": 44}, {"time": 6180, "pitch": 75, "duration": 9, "velocity": 59}, {"time": 6186, "pitch": 65, "duration": 21, "velocity": 44}, {"time": 6186, "pitch": 67, "duration": 5, "velocity": 37}, {"time": 6192, "pitch": 68, "duration": 6, "velocity": 44}, {"time": 6198, "pitch": 75, "duration": 7, "velocity": 51}, {"time": 6204, "pitch": 67, "duration": 5, "velocity": 39}, {"time": 6210, "pitch": 68, "duration": 7, "velocity": 49}, {"time": 6216, "pitch": 65, "duration": 25, "velocity": 42}, {"time": 6216, "pitch": 70, "duration": 5, "velocity": 63}, {"time": 6222, "pitch": 67, "duration": 6, "velocity": 49}, {"time": 6228, "pitch": 68, "duration": 3, "velocity": 62}, {"time": 6234, "pitch": 60, "duration": 20, "velocity": 46}, {"time": 6234, "pitch": 72, "duration": 6, "velocity": 69}, {"time": 6240, "pitch": 77, "duration": 4, "velocity": 48}, {"time": 6246, "pitch": 79, "duration": 5, "velocity": 48}, {"time": 6252, "pitch": 80, "duration": 7, "velocity": 56}, {"time": 6258, "pitch": 51, "duration": 11, "velocity": 53}, {"time": 6258, "pitch": 79, "duration": 21, "velocity": 59}, {"time": 6264, "pitch": 60, "duration": 5, "velocity": 44}, {"time": 6270, "pitch": 63, "duration": 6, "velocity": 44}, {"time": 6276, "pitch": 65, "duration": 14, "velocity": 58}, {"time": 6282, "pitch": 67, "duration": 7, "velocity": 61}, {"time": 6288, "pitch": 70, "duration": 4, "velocity": 53}, {"time": 6294, "pitch": 75, "duration": 6, "velocity": 48}, {"time": 6300, "pitch": 82, "duration": 6, "velocity": 62}, {"time": 6306, "pitch": 51, "duration": 40, "velocity": 50}, {"time": 6306, "pitch": 70, "duration": 7, "velocity": 46}, {"time": 6312, "pitch": 75, "duration": 4, "velocity": 54}, {"time": 6318, "pitch": 79, "duration": 5, "velocity": 49}, {"time": 6324, "pitch": 58, "duration": 20, "velocity": 44}, {"time": 6324, "pitch": 70, "duration": 6, "velocity": 53}, {"time": 6330, "pitch": 80, "duration": 4, "velocity": 63}, {"time": 6333, "pitch": 79, "duration": 4, "velocity": 55}, {"time": 6336, "pitch": 75, "duration": 3, "velocity": 57}, {"time": 6339, "pitch": 70, "duration": 3, "velocity": 63}, {"time": 6342, "pitch": 68, "duration": 3, "velocity": 64}, {"time": 6345, "pitch": 67, "duration": 4, "velocity": 69}, {"time": 6348, "pitch": 65, "duration": 4, "velocity": 55}, {"time": 6351, "pitch": 67, "duration": 3, "velocity": 62}, {"time": 6354, "pitch": 49, "duration": 40, "velocity": 49}, {"time": 6354, "pitch": 68, "duration": 13, "velocity": 69}, {"time": 6360, "pitch": 56, "duration": 39, "velocity": 38}, {"time": 6366, "pitch": 61, "duration": 12, "velocity": 52}, {"time": 6372, "pitch": 63, "duration": 5, "velocity": 57}, {"time": 6378, "pitch": 68, "duration": 6, "velocity": 58}, {"time": 6384, "pitch": 70, "duration": 4, "velocity": 62}, {"time": 6390, "pitch": 72, "duration": 5, "velocity": 69}, {"time": 6396, "pitch": 75, "duration": 2, "velocity": 54}, {"time": 6402, "pitch": 49, "duration": 10, "velocity": 63}, {"time": 6405, "pitch": 79, "duration": 3, "velocity": 54}, {"time": 6405, "pitch": 80, "duration": 3, "velocity": 50}, {"time": 6408, "pitch": 56, "duration": 5, "velocity": 41}, {"time": 6408, "pitch": 80, "duration": 17, "velocity": 58}, {"time": 6414, "pitch": 61, "duration": 7, "velocity": 44}, {"time": 6420, "pitch": 63, "duration": 16, "velocity": 60}, {"time": 6426, "pitch": 65, "duration": 9, "velocity": 66}, {"time": 6426, "pitch": 79, "duration": 9, "velocity": 66}, {"time": 6435, "pitch": 77, "duration": 6, "velocity": 64}, {"time": 6444, "pitch": 75, "duration": 2, "velocity": 32}, {"time": 6444, "pitch": 79, "duration": 3, "velocity": 54}, {"time": 6447, "pitch": 80, "duration": 3, "velocity": 45}, {"time": 6450, "pitch": 79, "duration": 4, "velocity": 64}, {"time": 6453, "pitch": 51, "duration": 37, "velocity": 63}, {"time": 6459, "pitch": 58, "duration": 31, "velocity": 53}, {"time": 6462, "pitch": 63, "duration": 9, "velocity": 58}, {"time": 6468, "pitch": 67, "duration": 9, "velocity": 69}, {"time": 6480, "pitch": 70, "duration": 2, "velocity": 49}, {"time": 6486, "pitch": 63, "duration": 2, "velocity": 48}, {"time": 6492, "pitch": 67, "duration": 8, "velocity": 57}, {"time": 6498, "pitch": 48, "duration": 35, "velocity": 67}, {"time": 6498, "pitch": 75, "duration": 4, "velocity": 72}, {"time": 6510, "pitch": 55, "duration": 24, "velocity": 53}, {"time": 6522, "pitch": 63, "duration": 4, "velocity": 61}, {"time": 6522, "pitch": 70, "duration": 3, "velocity": 51}, {"time": 6522, "pitch": 60, "duration": 5, "velocity": 50}, {"time": 6535, "pitch": 67, "duration": 50, "velocity": 61}, {"time": 6613, "pitch": 60, "duration": 31, "velocity": 32}, {"time": 6616, "pitch": 63, "duration": 28, "velocity": 46}, {"time": 6618, "pitch": 41, "duration": 124, "velocity": 55}, {"time": 6619, "pitch": 68, "duration": 27, "velocity": 57}, {"time": 6643, "pitch": 48, "duration": 97, "velocity": 37}, {"time": 6649, "pitch": 53, "duration": 91, "velocity": 39}, {"time": 6655, "pitch": 55, "duration": 5, "velocity": 47}, {"time": 6660, "pitch": 56, "duration": 2, "velocity": 54}, {"time": 6665, "pitch": 60, "duration": 3, "velocity": 56}, {"time": 6669, "pitch": 65, "duration": 6, "velocity": 49}, {"time": 6674, "pitch": 67, "duration": 3, "velocity": 45}, {"time": 6678, "pitch": 68, "duration": 3, "velocity": 47}, {"time": 6684, "pitch": 72, "duration": 6, "velocity": 49}, {"time": 6692, "pitch": 80, "duration": 5, "velocity": 42}, {"time": 6700, "pitch": 79, "duration": 8, "velocity": 40}, {"time": 6710, "pitch": 77, "duration": 4, "velocity": 43}, {"time": 6721, "pitch": 89, "duration": 16, "velocity": 48}], "annotations": [{"time": 26, "annotation": {"number": 64, "value": 127}, "group": "control_change"}, {"time": 57, "annotation": {"number": 64, "value": 0}, "group": "control_change"}, {"time": 67, "annotation": {"number": 64, "value": 127}, "group": "control_change"}, {"time": 113, "annotation": {"number": 64, "value": 0}, "group": "control_change"}, {"time": 122, "annotation": {"number": 64, "value": 127}, "group": "control_change"}, {"time": 209, "annotation": {"number": 64, "value": 0}, "group": "control_change"}, {"time": 219, "annotation": {"number": 64, "value": 127}, "group": "control_change"}, {"time": 256, "annotation": {"number": 64, "value": 0}, "group": "control_change"}, {"time": 268, "annotation": {"number": 64, "value": 127}, "group": "control_change"}, {"time": 302, "annotation": {"number": 64, "value": 0}, "group": "control_change"}, {"time": 316, "annotation": {"number": 64, "value": 127}, "group": "control_change"}, {"time": 356, "annotation": {"number": 64, "value": 0}, "group": "control_change"}, {"time": 366, "annotation": {"number": 64, "value": 127}, "group": "control_change"}, {"time": 398, "annotation": {"number": 64, "value": 0}, "group": "control_change"}, {"time": 404, "annotation": {"number": 64, "value": 127}, "group": "control_change"}, {"time": 415, "annotation": {"number": 64, "value": 127}, "group": "control_change"}, {"time": 447, "annotation": {"number": 64, "value": 0}, "group": "control_change"}, {"time": 455, "annotation": {"number": 64, "value": 127}, "group": "control_change"}, {"time": 496, "annotation": {"number": 64, "value": 0}, "group": "control_change"}, {"time": 502, "annotation": {"number": 64, "value": 127}, "group": "control_change"}, {"time": 569, "annotation": {"number": 64, "value": 127}, "group": "control_change"}, {"time": 571, "annotation": {"number": 64, "value": 0}, "group": "control_change"}, {"time": 582, "annotation": {"number": 64, "value": 127}, "group": "control_change"}, {"time": 592, "annotation": {"number": 64, "value": 0}, "group": "control_change"}, {"time": 595, "annotation": {"number": 64, "value": 0}, "group": "control_change"}, {"time": 600, "annotation": {"number": 64, "value": 127}, "group": "control_change"}, {"time": 606, "annotation": {"number": 64, "value": 127}, "group": "control_change"}, {"time": 640, "annotation": {"number": 64, "value": 0}, "group": "control_change"}, {"time": 647, "annotation": {"number": 64, "value": 127}, "group": "control_change"}, {"time": 688, "annotation": {"number": 64, "value": 0}, "group": "control_change"}, {"time": 694, "annotation": {"number": 64, "value": 127}, "group": "control_change"}, {"time": 739, "annotation": {"number": 64, "value": 0}, "group": "control_change"}, {"time": 746, "annotation": {"number": 64, "value": 127}, "group": "control_change"}, {"time": 762, "annotation": {"number": 64, "value": 0}, "group": "control_change"}, {"time": 771, "annotation": {"number": 64, "value": 127}, "group": "control_change"}, {"time": 784, "annotation": {"number": 64, "value": 0}, "group": "control_change"}, {"time": 798, "annotation": {"number": 64, "value": 127}, "group": "control_change"}, {"time": 834, "annotation": {"number": 64, "value": 0}, "group": "control_change"}, {"time": 839, "annotation": {"number": 64, "value": 127}, "group": "control_change"}, {"time": 881, "annotation": {"number": 64, "value": 0}, "group": "control_change"}, {"time": 886, "annotation": {"number": 64, "value": 127}, "group": "control_change"}, {"time": 953, "annotation": {"number": 64, "value": 0}, "group": "control_change"}, {"time": 958, "annotation": {"number": 64, "value": 127}, "group": "control_change"}, {"time": 979, "annotation": {"number": 64, "value": 0}, "group": "control_change"}, {"time": 983, "annotation": {"number": 64, "value": 127}, "group": "control_change"}, {"time": 1026, "annotation": {"number": 64, "value": 0}, "group": "control_change"}, {"time": 1031, "annotation": {"number": 64, "value": 127}, "group": "control_change"}, {"time": 1072, "annotation": {"number": 64, "value": 0}, "group": "control_change"}, {"time": 1078, "annotation": {"number": 64, "value": 127}, "group": "control_change"}, {"time": 1120, "annotation": {"number": 64, "value": 0}, "group": "control_change"}, {"time": 1125, "annotation": {"number": 64, "value": 127}, "group": "control_change"}, {"time": 1169, "annotation": {"number": 64, "value": 0}, "group": "control_change"}, {"time": 1172, "annotation": {"number": 64, "value": 127}, "group": "control_change"}, {"time": 1218, "annotation": {"number": 64, "value": 0}, "group": "control_change"}, {"time": 1224, "annotation": {"number": 64, "value": 127}, "group": "control_change"}, {"time": 1266, "annotation": {"number": 64, "value": 0}, "group": "control_change"}, {"time": 1271, "annotation": {"number": 64, "value": 127}, "group": "control_change"}, {"time": 1290, "annotation": {"number": 64, "value": 0}, "group": "control_change"}, {"time": 1295, "annotation": {"number": 64, "value": 127}, "group": "control_change"}, {"time": 1312, "annotation": {"number": 64, "value": 0}, "group": "control_change"}, {"time": 1318, "annotation": {"number": 64, "value": 127}, "group": "control_change"}, {"time": 1362, "annotation": {"number": 64, "value": 0}, "group": "control_change"}, {"time": 1363, "annotation": {"number": 64, "value": 127}, "group": "control_change"}, {"time": 1367, "annotation": {"number": 64, "value": 127}, "group": "control_change"}, {"time": 1370, "annotation": {"number": 64, "value": 0}, "group": "control_change"}, {"time": 1410, "annotation": {"number": 64, "value": 127}, "group": "control_change"}, {"time": 1410, "annotation": {"number": 64, "value": 0}, "group": "control_change"}, {"time": 1428, "annotation": {"number": 64, "value": 127}, "group": "control_change"}, {"time": 1447, "annotation": {"number": 64, "value": 0}, "group": "control_change"}, {"time": 1458, "annotation": {"number": 64, "value": 0}, "group": "control_change"}, {"time": 1463, "annotation": {"number": 64, "value": 127}, "group": "control_change"}, {"time": 1552, "annotation": {"number": 64, "value": 0}, "group": "control_change"}, {"time": 1555, "annotation": {"number": 64, "value": 127}, "group": "control_change"}, {"time": 1602, "annotation": {"number": 64, "value": 0}, "group": "control_change"}, {"time": 1607, "annotation": {"number": 64, "value": 127}, "group": "control_change"}, {"time": 1649, "annotation": {"number": 64, "value": 0}, "group": "control_change"}, {"time": 1654, "annotation": {"number": 64, "value": 127}, "group": "control_change"}, {"time": 1748, "annotation": {"number": 64, "value": 0}, "group": "control_change"}, {"time": 1754, "annotation": {"number": 64, "value": 127}, "group": "control_change"}, {"time": 1796, "annotation": {"number": 64, "value": 0}, "group": "control_change"}, {"time": 1801, "annotation": {"number": 64, "value": 127}, "group": "control_change"}, {"time": 1843, "annotation": {"number": 64, "value": 0}, "group": "control_change"}, {"time": 1848, "annotation": {"number": 64, "value": 127}, "group": "control_change"}, {"time": 1889, "annotation": {"number": 64, "value": 0}, "group": "control_change"}, {"time": 1893, "annotation": {"number": 64, "value": 127}, "group": "control_change"}, {"time": 1919, "annotation": {"number": 64, "value": 0}, "group": "control_change"}, {"time": 1924, "annotation": {"number": 64, "value": 127}, "group": "control_change"}, {"time": 1937, "annotation": {"number": 64, "value": 0}, "group": "control_change"}, {"time": 1941, "annotation": {"number": 64, "value": 127}, "group": "control_change"}, {"time": 1986, "annotation": {"number": 64, "value": 0}, "group": "control_change"}, {"time": 1991, "annotation": {"number": 64, "value": 127}, "group": "control_change"}, {"time": 2034, "annotation": {"number": 64, "value": 0}, "group": "control_change"}, {"time": 2038, "annotation": {"number": 64, "value": 127}, "group": "control_change"}, {"time": 2059, "annotation": {"number": 64, "value": 0}, "group": "control_change"}, {"time": 2063, "annotation": {"number": 64, "value": 127}, "group": "control_change"}, {"time": 2084, "annotation": {"number": 64, "value": 0}, "group": "control_change"}, {"time": 2089, "annotation": {"number": 64, "value": 127}, "group": "control_change"}, {"time": 2131, "annotation": {"number": 64, "value": 0}, "group": "control_change"}, {"time": 2135, "annotation": {"number": 64, "value": 127}, "group": "control_change"}, {"time": 2178, "annotation": {"number": 64, "value": 0}, "group": "control_change"}, {"time": 2183, "annotation": {"number": 64, "value": 127}, "group": "control_change"}, {"time": 2226, "annotation": {"number": 64, "value": 0}, "group": "control_change"}, {"time": 2230, "annotation": {"number": 64, "value": 127}, "group": "control_change"}, {"time": 2275, "annotation": {"number": 64, "value": 0}, "group": "control_change"}, {"time": 2279, "annotation": {"number": 64, "value": 127}, "group": "control_change"}, {"time": 2320, "annotation": {"number": 64, "value": 0}, "group": "control_change"}, {"time": 2324, "annotation": {"number": 64, "value": 127}, "group": "control_change"}, {"time": 2370, "annotation": {"number": 64, "value": 0}, "group": "control_change"}, {"time": 2375, "annotation": {"number": 64, "value": 127}, "group": "control_change"}, {"time": 2419, "annotation": {"number": 64, "value": 0}, "group": "control_change"}, {"time": 2424, "annotation": {"number": 64, "value": 127}, "group": "control_change"}, {"time": 2466, "annotation": {"number": 64, "value": 0}, "group": "control_change"}, {"time": 2471, "annotation": {"number": 64, "value": 127}, "group": "control_change"}, {"time": 2514, "annotation": {"number": 64, "value": 0}, "group": "control_change"}, {"time": 2519, "annotation": {"number": 64, "value": 127}, "group": "control_change"}, {"time": 2562, "annotation": {"number": 64, "value": 0}, "group": "control_change"}, {"time": 2566, "annotation": {"number": 64, "value": 127}, "group": "control_change"}, {"time": 2609, "annotation": {"number": 64, "value": 0}, "group": "control_change"}, {"time": 2613, "annotation": {"number": 64, "value": 127}, "group": "control_change"}, {"time": 2658, "annotation": {"number": 64, "value": 0}, "group": "control_change"}, {"time": 2663, "annotation": {"number": 64, "value": 127}, "group": "control_change"}, {"time": 2682, "annotation": {"number": 64, "value": 0}, "group": "control_change"}, {"time": 2685, "annotation": {"number": 64, "value": 127}, "group": "control_change"}, {"time": 2706, "annotation": {"number": 64, "value": 0}, "group": "control_change"}, {"time": 2711, "annotation": {"number": 64, "value": 127}, "group": "control_change"}, {"time": 2753, "annotation": {"number": 64, "value": 0}, "group": "control_change"}, {"time": 2757, "annotation": {"number": 64, "value": 127}, "group": "control_change"}, {"time": 2801, "annotation": {"number": 64, "value": 0}, "group": "control_change"}, {"time": 2806, "annotation": {"number": 64, "value": 127}, "group": "control_change"}, {"time": 2850, "annotation": {"number": 64, "value": 0}, "group": "control_change"}, {"time": 2856, "annotation": {"number": 64, "value": 127}, "group": "control_change"}, {"time": 2900, "annotation": {"number": 64, "value": 0}, "group": "control_change"}, {"time": 2905, "annotation": {"number": 64, "value": 127}, "group": "control_change"}, {"time": 2945, "annotation": {"number": 64, "value": 0}, "group": "control_change"}, {"time": 2951, "annotation": {"number": 64, "value": 127}, "group": "control_change"}, {"time": 2977, "annotation": {"number": 64, "value": 0}, "group": "control_change"}, {"time": 2982, "annotation": {"number": 64, "value": 127}, "group": "control_change"}, {"time": 2994, "annotation": {"number": 64, "value": 0}, "group": "control_change"}, {"time": 3063, "annotation": {"number": 64, "value": 127}, "group": "control_change"}, {"time": 3092, "annotation": {"number": 64, "value": 127}, "group": "control_change"}, {"time": 3093, "annotation": {"number": 64, "value": 0}, "group": "control_change"}, {"time": 3158, "annotation": {"number": 64, "value": 0}, "group": "control_change"}, {"time": 3162, "annotation": {"number": 64, "value": 127}, "group": "control_change"}, {"time": 3187, "annotation": {"number": 64, "value": 0}, "group": "control_change"}, {"time": 3193, "annotation": {"number": 64, "value": 127}, "group": "control_change"}, {"time": 3259, "annotation": {"number": 64, "value": 0}, "group": "control_change"}, {"time": 3263, "annotation": {"number": 64, "value": 127}, "group": "control_change"}, {"time": 3282, "annotation": {"number": 64, "value": 0}, "group": "control_change"}, {"time": 3287, "annotation": {"number": 64, "value": 127}, "group": "control_change"}, {"time": 3330, "annotation": {"number": 64, "value": 0}, "group": "control_change"}, {"time": 3334, "annotation": {"number": 64, "value": 127}, "group": "control_change"}, {"time": 3380, "annotation": {"number": 64, "value": 0}, "group": "control_change"}, {"time": 3384, "annotation": {"number": 64, "value": 127}, "group": "control_change"}, {"time": 3461, "annotation": {"number": 64, "value": 127}, "group": "control_change"}, {"time": 3474, "annotation": {"number": 64, "value": 0}, "group": "control_change"}, {"time": 3474, "annotation": {"number": 64, "value": 127}, "group": "control_change"}, {"time": 3479, "annotation": {"number": 64, "value": 127}, "group": "control_change"}, {"time": 3522, "annotation": {"number": 64, "value": 0}, "group": "control_change"}, {"time": 3523, "annotation": {"number": 64, "value": 0}, "group": "control_change"}, {"time": 3528, "annotation": {"number": 64, "value": 127}, "group": "control_change"}, {"time": 3570, "annotation": {"number": 64, "value": 0}, "group": "control_change"}, {"time": 3572, "annotation": {"number": 64, "value": 0}, "group": "control_change"}, {"time": 3574, "annotation": {"number": 64, "value": 127}, "group": "control_change"}, {"time": 3576, "annotation": {"number": 64, "value": 127}, "group": "control_change"}, {"time": 3643, "annotation": {"number": 64, "value": 0}, "group": "control_change"}, {"time": 3650, "annotation": {"number": 64, "value": 127}, "group": "control_change"}, {"time": 3663, "annotation": {"number": 64, "value": 0}, "group": "control_change"}, {"time": 3668, "annotation": {"number": 64, "value": 0}, "group": "control_change"}, {"time": 3669, "annotation": {"number": 64, "value": 127}, "group": "control_change"}, {"time": 3673, "annotation": {"number": 64, "value": 127}, "group": "control_change"}, {"time": 3715, "annotation": {"number": 64, "value": 0}, "group": "control_change"}, {"time": 3716, "annotation": {"number": 64, "value": 0}, "group": "control_change"}, {"time": 3720, "annotation": {"number": 64, "value": 127}, "group": "control_change"}, {"time": 3761, "annotation": {"number": 64, "value": 0}, "group": "control_change"}, {"time": 3763, "annotation": {"number": 64, "value": 0}, "group": "control_change"}, {"time": 3765, "annotation": {"number": 64, "value": 127}, "group": "control_change"}, {"time": 3769, "annotation": {"number": 64, "value": 127}, "group": "control_change"}, {"time": 3835, "annotation": {"number": 64, "value": 0}, "group": "control_change"}, {"time": 3841, "annotation": {"number": 64, "value": 127}, "group": "control_change"}, {"time": 3859, "annotation": {"number": 64, "value": 0}, "group": "control_change"}, {"time": 3870, "annotation": {"number": 64, "value": 127}, "group": "control_change"}, {"time": 3906, "annotation": {"number": 64, "value": 0}, "group": "control_change"}, {"time": 3911, "annotation": {"number": 64, "value": 127}, "group": "control_change"}, {"time": 3953, "annotation": {"number": 64, "value": 0}, "group": "control_change"}, {"time": 3958, "annotation": {"number": 64, "value": 127}, "group": "control_change"}, {"time": 4025, "annotation": {"number": 64, "value": 0}, "group": "control_change"}, {"time": 4030, "annotation": {"number": 64, "value": 127}, "group": "control_change"}, {"time": 4051, "annotation": {"number": 64, "value": 0}, "group": "control_change"}, {"time": 4055, "annotation": {"number": 64, "value": 127}, "group": "control_change"}, {"time": 4098, "annotation": {"number": 64, "value": 0}, "group": "control_change"}, {"time": 4103, "annotation": {"number": 64, "value": 127}, "group": "control_change"}, {"time": 4144, "annotation": {"number": 64, "value": 0}, "group": "control_change"}, {"time": 4150, "annotation": {"number": 64, "value": 127}, "group": "control_change"}, {"time": 4192, "annotation": {"number": 64, "value": 0}, "group": "control_change"}, {"time": 4197, "annotation": {"number": 64, "value": 127}, "group": "control_change"}, {"time": 4241, "annotation": {"number": 64, "value": 0}, "group": "control_change"}, {"time": 4244, "annotation": {"number": 64, "value": 127}, "group": "control_change"}, {"time": 4290, "annotation": {"number": 64, "value": 0}, "group": "control_change"}, {"time": 4296, "annotation": {"number": 64, "value": 127}, "group": "control_change"}, {"time": 4338, "annotation": {"number": 64, "value": 0}, "group": "control_change"}, {"time": 4343, "annotation": {"number": 64, "value": 127}, "group": "control_change"}, {"time": 4362, "annotation": {"number": 64, "value": 0}, "group": "control_change"}, {"time": 4367, "annotation": {"number": 64, "value": 127}, "group": "control_change"}, {"time": 4384, "annotation": {"number": 64, "value": 0}, "group": "control_change"}, {"time": 4390, "annotation": {"number": 64, "value": 127}, "group": "control_change"}, {"time": 4434, "annotation": {"number": 64, "value": 0}, "group": "control_change"}, {"time": 4435, "annotation": {"number": 64, "value": 127}, "group": "control_change"}, {"time": 4439, "annotation": {"number": 64, "value": 127}, "group": "control_change"}, {"time": 4442, "annotation": {"number": 64, "value": 0}, "group": "control_change"}, {"time": 4482, "annotation": {"number": 64, "value": 127}, "group": "control_change"}, {"time": 4482, "annotation": {"number": 64, "value": 0}, "group": "control_change"}, {"time": 4500, "annotation": {"number": 64, "value": 127}, "group": "control_change"}, {"time": 4519, "annotation": {"number": 64, "value": 0}, "group": "control_change"}, {"time": 4530, "annotation": {"number": 64, "value": 0}, "group": "control_change"}, {"time": 4535, "annotation": {"number": 64, "value": 127}, "group": "control_change"}, {"time": 4624, "annotation": {"number": 64, "value": 0}, "group": "control_change"}, {"time": 4627, "annotation": {"number": 64, "value": 127}, "group": "control_change"}, {"time": 4674, "annotation": {"number": 64, "value": 0}, "group": "control_change"}, {"time": 4679, "annotation": {"number": 64, "value": 127}, "group": "control_change"}, {"time": 4721, "annotation": {"number": 64, "value": 0}, "group": "control_change"}, {"time": 4726, "annotation": {"number": 64, "value": 127}, "group": "control_change"}, {"time": 4820, "annotation": {"number": 64, "value": 0}, "group": "control_change"}, {"time": 4826, "annotation": {"number": 64, "value": 127}, "group": "control_change"}, {"time": 4868, "annotation": {"number": 64, "value": 0}, "group": "control_change"}, {"time": 4873, "annotation": {"number": 64, "value": 127}, "group": "control_change"}, {"time": 4915, "annotation": {"number": 64, "value": 0}, "group": "control_change"}, {"time": 4920, "annotation": {"number": 64, "value": 127}, "group": "control_change"}, {"time": 4961, "annotation": {"number": 64, "value": 0}, "group": "control_change"}, {"time": 4965, "annotation": {"number": 64, "value": 127}, "group": "control_change"}, {"time": 4991, "annotation": {"number": 64, "value": 0}, "group": "control_change"}, {"time": 4996, "annotation": {"number": 64, "value": 127}, "group": "control_change"}, {"time": 5009, "annotation": {"number": 64, "value": 0}, "group": "control_change"}, {"time": 5013, "annotation": {"number": 64, "value": 127}, "group": "control_change"}, {"time": 5058, "annotation": {"number": 64, "value": 0}, "group": "control_change"}, {"time": 5063, "annotation": {"number": 64, "value": 127}, "group": "control_change"}, {"time": 5106, "annotation": {"number": 64, "value": 0}, "group": "control_change"}, {"time": 5110, "annotation": {"number": 64, "value": 127}, "group": "control_change"}, {"time": 5131, "annotation": {"number": 64, "value": 0}, "group": "control_change"}, {"time": 5135, "annotation": {"number": 64, "value": 127}, "group": "control_change"}, {"time": 5156, "annotation": {"number": 64, "value": 0}, "group": "control_change"}, {"time": 5161, "annotation": {"number": 64, "value": 127}, "group": "control_change"}, {"time": 5203, "annotation": {"number": 64, "value": 0}, "group": "control_change"}, {"time": 5207, "annotation": {"number": 64, "value": 127}, "group": "control_change"}, {"time": 5250, "annotation": {"number": 64, "value": 0}, "group": "control_change"}, {"time": 5252, "annotation": {"number": 64, "value": 127}, "group": "control_change"}, {"time": 5297, "annotation": {"number": 64, "value": 0}, "group": "control_change"}, {"time": 5306, "annotation": {"number": 64, "value": 127}, "group": "control_change"}, {"time": 5393, "annotation": {"number": 64, "value": 0}, "group": "control_change"}, {"time": 5401, "annotation": {"number": 64, "value": 127}, "group": "control_change"}, {"time": 5444, "annotation": {"number": 64, "value": 0}, "group": "control_change"}, {"time": 5450, "annotation": {"number": 64, "value": 127}, "group": "control_change"}, {"time": 5491, "annotation": {"number": 64, "value": 0}, "group": "control_change"}, {"time": 5496, "annotation": {"number": 64, "value": 127}, "group": "control_change"}, {"time": 5539, "annotation": {"number": 64, "value": 0}, "group": "control_change"}, {"time": 5543, "annotation": {"number": 64, "value": 127}, "group": "control_change"}, {"time": 5587, "annotation": {"number": 64, "value": 0}, "group": "control_change"}, {"time": 5592, "annotation": {"number": 64, "value": 127}, "group": "control_change"}, {"time": 5635, "annotation": {"number": 64, "value": 0}, "group": "control_change"}, {"time": 5639, "annotation": {"number": 64, "value": 127}, "group": "control_change"}, {"time": 5682, "annotation": {"number": 64, "value": 0}, "group": "control_change"}, {"time": 5687, "annotation": {"number": 64, "value": 127}, "group": "control_change"}, {"time": 5733, "annotation": {"number": 64, "value": 0}, "group": "control_change"}, {"time": 5738, "annotation": {"number": 64, "value": 127}, "group": "control_change"}, {"time": 5752, "annotation": {"number": 64, "value": 0}, "group": "control_change"}, {"time": 5757, "annotation": {"number": 64, "value": 127}, "group": "control_change"}, {"time": 5776, "annotation": {"number": 64, "value": 0}, "group": "control_change"}, {"time": 5781, "annotation": {"number": 64, "value": 127}, "group": "control_change"}, {"time": 5827, "annotation": {"number": 64, "value": 0}, "group": "control_change"}, {"time": 5834, "annotation": {"number": 64, "value": 127}, "group": "control_change"}, {"time": 5874, "annotation": {"number": 64, "value": 0}, "group": "control_change"}, {"time": 5879, "annotation": {"number": 64, "value": 127}, "group": "control_change"}, {"time": 5922, "annotation": {"number": 64, "value": 0}, "group": "control_change"}, {"time": 5925, "annotation": {"number": 64, "value": 127}, "group": "control_change"}, {"time": 5970, "annotation": {"number": 64, "value": 0}, "group": "control_change"}, {"time": 5978, "annotation": {"number": 64, "value": 127}, "group": "control_change"}, {"time": 6017, "annotation": {"number": 64, "value": 0}, "group": "control_change"}, {"time": 6024, "annotation": {"number": 64, "value": 127}, "group": "control_change"}, {"time": 6065, "annotation": {"number": 64, "value": 0}, "group": "control_change"}, {"time": 6072, "annotation": {"number": 64, "value": 127}, "group": "control_change"}, {"time": 6112, "annotation": {"number": 64, "value": 0}, "group": "control_change"}, {"time": 6123, "annotation": {"number": 64, "value": 127}, "group": "control_change"}, {"time": 6164, "annotation": {"number": 64, "value": 127}, "group": "control_change"}, {"time": 6260, "annotation": {"number": 64, "value": 0}, "group": "control_change"}, {"time": 6268, "annotation": {"number": 64, "value": 127}, "group": "control_change"}, {"time": 6354, "annotation": {"number": 64, "value": 0}, "group": "control_change"}, {"time": 6359, "annotation": {"number": 64, "value": 127}, "group": "control_change"}, {"time": 6450, "annotation": {"number": 64, "value": 0}, "group": "control_change"}, {"time": 6454, "annotation": {"number": 64, "value": 127}, "group": "control_change"}, {"time": 6614, "annotation": {"number": 64, "value": 0}, "group": "control_change"}, {"time": 6624, "annotation": {"number": 64, "value": 127}, "group": "control_change"}, {"time": 6758, "annotation": {"number": 64, "value": 0}, "group": "control_change"}]}]}