{"metadata": {"schema_version": "0.2", "title": "None", "source_filename": "224.mid", "source_format": "midi"}, "resolution": 12, "tempos": [{"time": 0, "qpm": 82.00014760026568}, {"time": 48, "qpm": 54.00000540000054}, {"time": 72, "qpm": 58.00004253336452}, {"time": 84, "qpm": 59.00006686674245}, {"time": 96, "qpm": 61.99999586666694}, {"time": 108, "qpm": 60.0}, {"time": 120, "qpm": 60.99997255001235}, {"time": 132, "qpm": 54.00000540000054}, {"time": 144, "qpm": 64.99999458333379}, {"time": 156, "qpm": 68.0000725334107}, {"time": 168, "qpm": 64.0}, {"time": 180, "qpm": 71.00011951686785}, {"time": 192, "qpm": 86.00005160003096}, {"time": 240, "qpm": 64.99999458333379}, {"time": 312, "qpm": 65.99999340000066}, {"time": 324, "qpm": 64.0}, {"time": 348, "qpm": 65.99999340000066}, {"time": 372, "qpm": 64.99999458333379}, {"time": 396, "qpm": 64.0}, {"time": 408, "qpm": 64.99999458333379}, {"time": 432, "qpm": 65.99999340000066}, {"time": 456, "qpm": 64.0}, {"time": 468, "qpm": 64.99999458333379}, {"time": 480, "qpm": 65.99999340000066}, {"time": 492, "qpm": 64.0}, {"time": 504, "qpm": 64.99999458333379}, {"time": 624, "qpm": 64.0}, {"time": 648, "qpm": 68.0000725334107}, {"time": 660, "qpm": 64.99999458333379}, {"time": 684, "qpm": 62.99999685000016}, {"time": 690, "qpm": 64.99999458333379}, {"time": 720, "qpm": 65.99999340000066}, {"time": 732, "qpm": 64.99999458333379}, {"time": 756, "qpm": 64.0}, {"time": 768, "qpm": 65.99999340000066}, {"time": 780, "qpm": 64.99999458333379}, {"time": 984, "qpm": 61.99999586666694}, {"time": 996, "qpm": 64.99999458333379}, {"time": 1008, "qpm": 67.00002903334591}, {"time": 1020, "qpm": 65.99999340000066}, {"time": 1044, "qpm": 64.0}, {"time": 1068, "qpm": 67.00002903334591}, {"time": 1080, "qpm": 64.0}, {"time": 1092, "qpm": 64.99999458333379}, {"time": 1116, "qpm": 64.0}, {"time": 1128, "qpm": 65.99999340000066}, {"time": 1152, "qpm": 64.0}, {"time": 1176, "qpm": 65.99999340000066}, {"time": 1188, "qpm": 64.0}, {"time": 1212, "qpm": 68.0000725334107}, {"time": 1224, "qpm": 64.0}, {"time": 1236, "qpm": 64.99999458333379}], "time_signatures": [{"time": 0, "numerator": 4, "denominator": 4}], "tracks": [{"program": 0, "is_drum": false, "name": "MELODY", "notes": [{"time": 225, "pitch": 78, "duration": 2, "velocity": 91}, {"time": 230, "pitch": 78, "duration": 2, "velocity": 70}, {"time": 234, "pitch": 78, "duration": 2, "velocity": 78}, {"time": 237, "pitch": 78, "duration": 1, "velocity": 72}, {"time": 240, "pitch": 75, "duration": 2, "velocity": 91}, {"time": 246, "pitch": 78, "duration": 1, "velocity": 49}, {"time": 248, "pitch": 78, "duration": 3, "velocity": 67}, {"time": 252, "pitch": 75, "duration": 2, "velocity": 82}, {"time": 261, "pitch": 78, "duration": 1, "velocity": 85}, {"time": 264, "pitch": 78, "duration": 1, "velocity": 72}, {"time": 267, "pitch": 78, "duration": 1, "velocity": 88}, {"time": 269, "pitch": 78, "duration": 1, "velocity": 78}, {"time": 270, "pitch": 78, "duration": 1, "velocity": 78}, {"time": 273, "pitch": 78, "duration": 1, "velocity": 99}, {"time": 276, "pitch": 78, "duration": 2, "velocity": 93}, {"time": 285, "pitch": 78, "duration": 1, "velocity": 97}, {"time": 288, "pitch": 78, "duration": 1, "velocity": 78}, {"time": 291, "pitch": 78, "duration": 1, "velocity": 88}, {"time": 294, "pitch": 78, "duration": 1, "velocity": 91}, {"time": 297, "pitch": 78, "duration": 1, "velocity": 85}, {"time": 300, "pitch": 78, "duration": 3, "velocity": 93}, {"time": 309, "pitch": 78, "duration": 1, "velocity": 88}, {"time": 312, "pitch": 78, "duration": 1, "velocity": 95}, {"time": 315, "pitch": 78, "duration": 1, "velocity": 91}, {"time": 317, "pitch": 78, "duration": 1, "velocity": 91}, {"time": 318, "pitch": 78, "duration": 1, "velocity": 93}, {"time": 319, "pitch": 78, "duration": 1, "velocity": 82}, {"time": 321, "pitch": 78, "duration": 1, "velocity": 82}, {"time": 324, "pitch": 78, "duration": 1, "velocity": 93}, {"time": 333, "pitch": 78, "duration": 1, "velocity": 93}, {"time": 336, "pitch": 78, "duration": 1, "velocity": 69}, {"time": 339, "pitch": 78, "duration": 1, "velocity": 82}, {"time": 342, "pitch": 78, "duration": 1, "velocity": 95}, {"time": 345, "pitch": 78, "duration": 1, "velocity": 88}, {"time": 348, "pitch": 78, "duration": 1, "velocity": 85}, {"time": 351, "pitch": 78, "duration": 3, "velocity": 91}, {"time": 354, "pitch": 78, "duration": 1, "velocity": 82}, {"time": 357, "pitch": 78, "duration": 1, "velocity": 82}, {"time": 360, "pitch": 78, "duration": 1, "velocity": 82}, {"time": 361, "pitch": 78, "duration": 2, "velocity": 82}, {"time": 363, "pitch": 78, "duration": 1, "velocity": 82}, {"time": 366, "pitch": 78, "duration": 1, "velocity": 82}, {"time": 368, "pitch": 78, "duration": 1, "velocity": 82}, {"time": 369, "pitch": 78, "duration": 1, "velocity": 82}, {"time": 372, "pitch": 78, "duration": 1, "velocity": 82}, {"time": 381, "pitch": 78, "duration": 1, "velocity": 66}, {"time": 384, "pitch": 78, "duration": 1, "velocity": 85}, {"time": 387, "pitch": 78, "duration": 1, "velocity": 73}, {"time": 390, "pitch": 78, "duration": 1, "velocity": 80}, {"time": 393, "pitch": 78, "duration": 1, "velocity": 72}, {"time": 396, "pitch": 78, "duration": 3, "velocity": 93}, {"time": 399, "pitch": 78, "duration": 1, "velocity": 82}, {"time": 402, "pitch": 78, "duration": 1, "velocity": 97}, {"time": 404, "pitch": 78, "duration": 1, "velocity": 75}, {"time": 406, "pitch": 78, "duration": 1, "velocity": 88}, {"time": 408, "pitch": 78, "duration": 1, "velocity": 82}, {"time": 410, "pitch": 78, "duration": 1, "velocity": 78}, {"time": 412, "pitch": 78, "duration": 1, "velocity": 85}, {"time": 414, "pitch": 78, "duration": 1, "velocity": 93}, {"time": 416, "pitch": 78, "duration": 1, "velocity": 85}, {"time": 418, "pitch": 78, "duration": 1, "velocity": 72}, {"time": 420, "pitch": 78, "duration": 1, "velocity": 82}, {"time": 426, "pitch": 78, "duration": 1, "velocity": 99}, {"time": 429, "pitch": 78, "duration": 1, "velocity": 53}, {"time": 432, "pitch": 78, "duration": 2, "velocity": 93}, {"time": 438, "pitch": 78, "duration": 1, "velocity": 75}, {"time": 441, "pitch": 78, "duration": 1, "velocity": 88}, {"time": 444, "pitch": 78, "duration": 2, "velocity": 97}, {"time": 453, "pitch": 78, "duration": 1, "velocity": 85}, {"time": 456, "pitch": 78, "duration": 1, "velocity": 75}, {"time": 459, "pitch": 78, "duration": 1, "velocity": 95}, {"time": 460, "pitch": 78, "duration": 1, "velocity": 95}, {"time": 462, "pitch": 78, "duration": 1, "velocity": 95}, {"time": 462, "pitch": 78, "duration": 1, "velocity": 101}, {"time": 465, "pitch": 78, "duration": 2, "velocity": 70}, {"time": 468, "pitch": 78, "duration": 1, "velocity": 106}, {"time": 477, "pitch": 78, "duration": 1, "velocity": 85}, {"time": 480, "pitch": 78, "duration": 1, "velocity": 76}, {"time": 483, "pitch": 78, "duration": 1, "velocity": 78}, {"time": 486, "pitch": 78, "duration": 1, "velocity": 95}, {"time": 489, "pitch": 78, "duration": 1, "velocity": 88}, {"time": 492, "pitch": 78, "duration": 2, "velocity": 97}, {"time": 498, "pitch": 78, "duration": 1, "velocity": 99}, {"time": 500, "pitch": 78, "duration": 1, "velocity": 101}, {"time": 501, "pitch": 78, "duration": 1, "velocity": 85}, {"time": 504, "pitch": 78, "duration": 1, "velocity": 99}, {"time": 505, "pitch": 78, "duration": 1, "velocity": 75}, {"time": 507, "pitch": 78, "duration": 1, "velocity": 75}, {"time": 510, "pitch": 78, "duration": 1, "velocity": 91}, {"time": 511, "pitch": 78, "duration": 1, "velocity": 91}, {"time": 513, "pitch": 78, "duration": 1, "velocity": 61}, {"time": 516, "pitch": 78, "duration": 1, "velocity": 91}, {"time": 525, "pitch": 78, "duration": 1, "velocity": 88}, {"time": 528, "pitch": 78, "duration": 2, "velocity": 82}, {"time": 531, "pitch": 78, "duration": 2, "velocity": 101}, {"time": 534, "pitch": 78, "duration": 2, "velocity": 101}, {"time": 540, "pitch": 78, "duration": 1, "velocity": 95}, {"time": 543, "pitch": 78, "duration": 1, "velocity": 78}, {"time": 546, "pitch": 78, "duration": 2, "velocity": 91}, {"time": 549, "pitch": 78, "duration": 1, "velocity": 80}, {"time": 552, "pitch": 78, "duration": 2, "velocity": 80}, {"time": 555, "pitch": 75, "duration": 1, "velocity": 76}, {"time": 558, "pitch": 78, "duration": 1, "velocity": 88}, {"time": 561, "pitch": 75, "duration": 1, "velocity": 91}, {"time": 564, "pitch": 78, "duration": 2, "velocity": 91}, {"time": 566, "pitch": 80, "duration": 1, "velocity": 91}, {"time": 573, "pitch": 75, "duration": 2, "velocity": 73}, {"time": 576, "pitch": 78, "duration": 2, "velocity": 69}, {"time": 579, "pitch": 75, "duration": 2, "velocity": 78}, {"time": 582, "pitch": 78, "duration": 2, "velocity": 97}, {"time": 588, "pitch": 78, "duration": 1, "velocity": 91}, {"time": 591, "pitch": 78, "duration": 1, "velocity": 82}, {"time": 594, "pitch": 78, "duration": 1, "velocity": 95}, {"time": 597, "pitch": 78, "duration": 1, "velocity": 88}, {"time": 600, "pitch": 78, "duration": 1, "velocity": 95}, {"time": 603, "pitch": 78, "duration": 1, "velocity": 93}, {"time": 606, "pitch": 78, "duration": 2, "velocity": 95}, {"time": 609, "pitch": 78, "duration": 1, "velocity": 75}, {"time": 612, "pitch": 78, "duration": 2, "velocity": 88}, {"time": 624, "pitch": 75, "duration": 6, "velocity": 89}, {"time": 630, "pitch": 75, "duration": 6, "velocity": 99}, {"time": 636, "pitch": 75, "duration": 6, "velocity": 99}, {"time": 642, "pitch": 75, "duration": 6, "velocity": 101}, {"time": 648, "pitch": 68, "duration": 6, "velocity": 93}, {"time": 654, "pitch": 68, "duration": 3, "velocity": 95}, {"time": 657, "pitch": 70, "duration": 3, "velocity": 95}, {"time": 660, "pitch": 72, "duration": 6, "velocity": 95}, {"time": 666, "pitch": 75, "duration": 6, "velocity": 95}, {"time": 672, "pitch": 75, "duration": 6, "velocity": 95}, {"time": 678, "pitch": 75, "duration": 6, "velocity": 78}, {"time": 684, "pitch": 75, "duration": 6, "velocity": 91}, {"time": 690, "pitch": 75, "duration": 6, "velocity": 85}, {"time": 696, "pitch": 68, "duration": 6, "velocity": 95}, {"time": 702, "pitch": 68, "duration": 3, "velocity": 88}, {"time": 705, "pitch": 72, "duration": 6, "velocity": 88}, {"time": 705, "pitch": 73, "duration": 6, "velocity": 88}, {"time": 711, "pitch": 68, "duration": 9, "velocity": 76}, {"time": 720, "pitch": 75, "duration": 6, "velocity": 89}, {"time": 726, "pitch": 75, "duration": 6, "velocity": 99}, {"time": 732, "pitch": 75, "duration": 6, "velocity": 99}, {"time": 738, "pitch": 75, "duration": 6, "velocity": 101}, {"time": 744, "pitch": 68, "duration": 6, "velocity": 93}, {"time": 750, "pitch": 68, "duration": 3, "velocity": 95}, {"time": 753, "pitch": 70, "duration": 3, "velocity": 95}, {"time": 756, "pitch": 72, "duration": 6, "velocity": 95}, {"time": 762, "pitch": 77, "duration": 6, "velocity": 95}, {"time": 768, "pitch": 77, "duration": 6, "velocity": 95}, {"time": 774, "pitch": 77, "duration": 6, "velocity": 78}, {"time": 780, "pitch": 79, "duration": 6, "velocity": 91}, {"time": 786, "pitch": 77, "duration": 3, "velocity": 85}, {"time": 789, "pitch": 72, "duration": 3, "velocity": 85}, {"time": 792, "pitch": 70, "duration": 24, "velocity": 85}, {"time": 816, "pitch": 75, "duration": 6, "velocity": 95}, {"time": 822, "pitch": 75, "duration": 6, "velocity": 88}, {"time": 828, "pitch": 75, "duration": 6, "velocity": 85}, {"time": 834, "pitch": 75, "duration": 6, "velocity": 88}, {"time": 840, "pitch": 68, "duration": 6, "velocity": 95}, {"time": 846, "pitch": 68, "duration": 3, "velocity": 76}, {"time": 849, "pitch": 70, "duration": 3, "velocity": 67}, {"time": 852, "pitch": 72, "duration": 6, "velocity": 99}, {"time": 858, "pitch": 75, "duration": 6, "velocity": 75}, {"time": 864, "pitch": 75, "duration": 6, "velocity": 85}, {"time": 870, "pitch": 75, "duration": 6, "velocity": 88}, {"time": 876, "pitch": 75, "duration": 6, "velocity": 85}, {"time": 882, "pitch": 75, "duration": 3, "velocity": 85}, {"time": 885, "pitch": 72, "duration": 3, "velocity": 91}, {"time": 888, "pitch": 70, "duration": 24, "velocity": 93}, {"time": 912, "pitch": 75, "duration": 6, "velocity": 99}, {"time": 918, "pitch": 75, "duration": 6, "velocity": 88}, {"time": 924, "pitch": 75, "duration": 6, "velocity": 82}, {"time": 930, "pitch": 75, "duration": 6, "velocity": 82}, {"time": 936, "pitch": 63, "duration": 6, "velocity": 97}, {"time": 942, "pitch": 63, "duration": 6, "velocity": 97}, {"time": 948, "pitch": 63, "duration": 6, "velocity": 95}, {"time": 954, "pitch": 68, "duration": 6, "velocity": 97}, {"time": 960, "pitch": 68, "duration": 6, "velocity": 91}, {"time": 966, "pitch": 72, "duration": 6, "velocity": 101}, {"time": 972, "pitch": 70, "duration": 12, "velocity": 101}, {"time": 984, "pitch": 63, "duration": 6, "velocity": 95}, {"time": 990, "pitch": 70, "duration": 6, "velocity": 101}, {"time": 996, "pitch": 72, "duration": 6, "velocity": 106}, {"time": 1002, "pitch": 77, "duration": 6, "velocity": 109}, {"time": 1008, "pitch": 75, "duration": 3, "velocity": 97}, {"time": 1011, "pitch": 75, "duration": 3, "velocity": 78}, {"time": 1014, "pitch": 75, "duration": 18, "velocity": 95}, {"time": 1032, "pitch": 72, "duration": 6, "velocity": 99}, {"time": 1038, "pitch": 75, "duration": 3, "velocity": 78}, {"time": 1041, "pitch": 72, "duration": 3, "velocity": 95}, {"time": 1044, "pitch": 68, "duration": 6, "velocity": 85}, {"time": 1050, "pitch": 72, "duration": 6, "velocity": 103}, {"time": 1056, "pitch": 68, "duration": 3, "velocity": 97}, {"time": 1059, "pitch": 68, "duration": 9, "velocity": 99}, {"time": 1068, "pitch": 68, "duration": 3, "velocity": 91}, {"time": 1071, "pitch": 70, "duration": 6, "velocity": 95}, {"time": 1077, "pitch": 72, "duration": 9, "velocity": 103}, {"time": 1086, "pitch": 70, "duration": 6, "velocity": 97}, {"time": 1092, "pitch": 72, "duration": 6, "velocity": 103}, {"time": 1098, "pitch": 77, "duration": 6, "velocity": 103}, {"time": 1104, "pitch": 75, "duration": 3, "velocity": 97}, {"time": 1107, "pitch": 75, "duration": 3, "velocity": 101}, {"time": 1110, "pitch": 75, "duration": 18, "velocity": 95}, {"time": 1128, "pitch": 72, "duration": 6, "velocity": 109}, {"time": 1134, "pitch": 70, "duration": 3, "velocity": 99}, {"time": 1137, "pitch": 72, "duration": 3, "velocity": 101}, {"time": 1140, "pitch": 68, "duration": 6, "velocity": 99}, {"time": 1146, "pitch": 72, "duration": 6, "velocity": 103}, {"time": 1152, "pitch": 68, "duration": 3, "velocity": 97}, {"time": 1155, "pitch": 68, "duration": 9, "velocity": 99}, {"time": 1164, "pitch": 63, "duration": 3, "velocity": 95}, {"time": 1167, "pitch": 72, "duration": 6, "velocity": 101}, {"time": 1173, "pitch": 70, "duration": 9, "velocity": 99}, {"time": 1182, "pitch": 68, "duration": 6, "velocity": 97}, {"time": 1188, "pitch": 70, "duration": 6, "velocity": 73}, {"time": 1194, "pitch": 72, "duration": 6, "velocity": 103}, {"time": 1200, "pitch": 72, "duration": 6, "velocity": 103}, {"time": 1206, "pitch": 72, "duration": 3, "velocity": 103}, {"time": 1209, "pitch": 70, "duration": 3, "velocity": 76}, {"time": 1212, "pitch": 72, "duration": 3, "velocity": 97}, {"time": 1215, "pitch": 79, "duration": 9, "velocity": 97}, {"time": 1224, "pitch": 79, "duration": 6, "velocity": 97}, {"time": 1230, "pitch": 79, "duration": 3, "velocity": 109}, {"time": 1233, "pitch": 77, "duration": 3, "velocity": 99}, {"time": 1236, "pitch": 79, "duration": 3, "velocity": 97}, {"time": 1239, "pitch": 80, "duration": 9, "velocity": 97}, {"time": 1248, "pitch": 80, "duration": 6, "velocity": 97}, {"time": 1254, "pitch": 80, "duration": 3, "velocity": 95}, {"time": 1257, "pitch": 79, "duration": 3, "velocity": 93}, {"time": 1260, "pitch": 80, "duration": 3, "velocity": 95}, {"time": 1263, "pitch": 79, "duration": 6, "velocity": 99}, {"time": 1269, "pitch": 77, "duration": 18, "velocity": 99}, {"time": 1287, "pitch": 77, "duration": 3, "velocity": 103}, {"time": 1290, "pitch": 75, "duration": 6, "velocity": 91}, {"time": 1296, "pitch": 75, "duration": 6, "velocity": 101}, {"time": 1302, "pitch": 75, "duration": 6, "velocity": 95}, {"time": 1308, "pitch": 72, "duration": 6, "velocity": 113}, {"time": 1314, "pitch": 72, "duration": 3, "velocity": 109}, {"time": 1317, "pitch": 68, "duration": 6, "velocity": 99}, {"time": 1323, "pitch": 68, "duration": 15, "velocity": 93}, {"time": 1335, "pitch": 63, "duration": 3, "velocity": 85}, {"time": 1338, "pitch": 75, "duration": 5, "velocity": 93}, {"time": 1344, "pitch": 72, "duration": 4, "velocity": 101}, {"time": 1350, "pitch": 72, "duration": 4, "velocity": 99}, {"time": 1356, "pitch": 70, "duration": 1, "velocity": 82}, {"time": 1359, "pitch": 70, "duration": 5, "velocity": 93}, {"time": 1368, "pitch": 63, "duration": 6, "velocity": 95}, {"time": 1374, "pitch": 70, "duration": 6, "velocity": 101}, {"time": 1380, "pitch": 72, "duration": 6, "velocity": 106}, {"time": 1386, "pitch": 77, "duration": 6, "velocity": 109}, {"time": 1392, "pitch": 75, "duration": 3, "velocity": 97}, {"time": 1395, "pitch": 75, "duration": 3, "velocity": 78}, {"time": 1398, "pitch": 75, "duration": 18, "velocity": 95}, {"time": 1416, "pitch": 72, "duration": 6, "velocity": 99}, {"time": 1422, "pitch": 75, "duration": 3, "velocity": 78}, {"time": 1425, "pitch": 72, "duration": 3, "velocity": 95}, {"time": 1428, "pitch": 68, "duration": 6, "velocity": 85}, {"time": 1434, "pitch": 72, "duration": 6, "velocity": 103}, {"time": 1440, "pitch": 68, "duration": 3, "velocity": 97}, {"time": 1443, "pitch": 68, "duration": 9, "velocity": 99}, {"time": 1452, "pitch": 68, "duration": 3, "velocity": 91}, {"time": 1455, "pitch": 70, "duration": 6, "velocity": 95}, {"time": 1461, "pitch": 72, "duration": 9, "velocity": 103}, {"time": 1470, "pitch": 70, "duration": 6, "velocity": 97}, {"time": 1476, "pitch": 72, "duration": 6, "velocity": 103}, {"time": 1482, "pitch": 77, "duration": 6, "velocity": 103}, {"time": 1488, "pitch": 75, "duration": 3, "velocity": 97}, {"time": 1491, "pitch": 75, "duration": 3, "velocity": 101}, {"time": 1494, "pitch": 75, "duration": 18, "velocity": 95}, {"time": 1512, "pitch": 72, "duration": 6, "velocity": 109}, {"time": 1518, "pitch": 70, "duration": 3, "velocity": 99}, {"time": 1521, "pitch": 72, "duration": 3, "velocity": 101}, {"time": 1524, "pitch": 68, "duration": 6, "velocity": 99}, {"time": 1530, "pitch": 72, "duration": 6, "velocity": 103}, {"time": 1536, "pitch": 68, "duration": 3, "velocity": 97}, {"time": 1539, "pitch": 68, "duration": 9, "velocity": 99}, {"time": 1548, "pitch": 63, "duration": 3, "velocity": 95}, {"time": 1551, "pitch": 72, "duration": 6, "velocity": 101}, {"time": 1557, "pitch": 70, "duration": 9, "velocity": 99}, {"time": 1566, "pitch": 68, "duration": 6, "velocity": 97}, {"time": 1572, "pitch": 70, "duration": 6, "velocity": 73}, {"time": 1578, "pitch": 72, "duration": 6, "velocity": 103}, {"time": 1584, "pitch": 72, "duration": 6, "velocity": 103}, {"time": 1590, "pitch": 72, "duration": 3, "velocity": 103}, {"time": 1593, "pitch": 70, "duration": 3, "velocity": 76}, {"time": 1596, "pitch": 72, "duration": 3, "velocity": 97}, {"time": 1599, "pitch": 79, "duration": 9, "velocity": 97}, {"time": 1608, "pitch": 79, "duration": 6, "velocity": 97}, {"time": 1614, "pitch": 79, "duration": 3, "velocity": 109}, {"time": 1617, "pitch": 77, "duration": 3, "velocity": 99}, {"time": 1620, "pitch": 79, "duration": 3, "velocity": 97}, {"time": 1623, "pitch": 80, "duration": 9, "velocity": 97}, {"time": 1632, "pitch": 80, "duration": 6, "velocity": 97}, {"time": 1638, "pitch": 80, "duration": 3, "velocity": 95}, {"time": 1641, "pitch": 79, "duration": 3, "velocity": 93}, {"time": 1644, "pitch": 80, "duration": 3, "velocity": 95}, {"time": 1647, "pitch": 79, "duration": 6, "velocity": 99}, {"time": 1653, "pitch": 77, "duration": 18, "velocity": 99}, {"time": 1671, "pitch": 77, "duration": 3, "velocity": 103}, {"time": 1674, "pitch": 75, "duration": 6, "velocity": 91}, {"time": 1680, "pitch": 75, "duration": 6, "velocity": 101}, {"time": 1686, "pitch": 75, "duration": 6, "velocity": 95}, {"time": 1692, "pitch": 72, "duration": 6, "velocity": 113}, {"time": 1698, "pitch": 72, "duration": 3, "velocity": 109}, {"time": 1701, "pitch": 68, "duration": 6, "velocity": 99}, {"time": 1707, "pitch": 68, "duration": 15, "velocity": 93}, {"time": 1719, "pitch": 63, "duration": 3, "velocity": 85}, {"time": 1722, "pitch": 75, "duration": 5, "velocity": 93}, {"time": 1728, "pitch": 72, "duration": 4, "velocity": 101}, {"time": 1734, "pitch": 72, "duration": 4, "velocity": 99}, {"time": 1740, "pitch": 70, "duration": 1, "velocity": 82}, {"time": 1743, "pitch": 70, "duration": 5, "velocity": 93}, {"time": 1752, "pitch": 63, "duration": 3, "velocity": 99}, {"time": 1758, "pitch": 63, "duration": 5, "velocity": 95}, {"time": 1764, "pitch": 70, "duration": 4, "velocity": 82}, {"time": 1770, "pitch": 70, "duration": 8, "velocity": 95}, {"time": 1779, "pitch": 68, "duration": 24, "velocity": 82}, {"time": 1956, "pitch": 78, "duration": 2, "velocity": 91}, {"time": 1959, "pitch": 78, "duration": 2, "velocity": 70}, {"time": 1962, "pitch": 78, "duration": 2, "velocity": 78}, {"time": 1965, "pitch": 78, "duration": 1, "velocity": 72}, {"time": 1968, "pitch": 75, "duration": 2, "velocity": 91}, {"time": 1974, "pitch": 78, "duration": 1, "velocity": 49}, {"time": 1977, "pitch": 78, "duration": 2, "velocity": 67}, {"time": 1980, "pitch": 75, "duration": 2, "velocity": 82}, {"time": 1989, "pitch": 78, "duration": 1, "velocity": 85}, {"time": 1992, "pitch": 78, "duration": 1, "velocity": 72}, {"time": 1995, "pitch": 78, "duration": 1, "velocity": 88}, {"time": 1998, "pitch": 78, "duration": 1, "velocity": 78}, {"time": 2001, "pitch": 78, "duration": 1, "velocity": 99}, {"time": 2004, "pitch": 78, "duration": 2, "velocity": 93}, {"time": 2013, "pitch": 78, "duration": 1, "velocity": 97}, {"time": 2016, "pitch": 78, "duration": 1, "velocity": 78}, {"time": 2019, "pitch": 78, "duration": 1, "velocity": 88}, {"time": 2022, "pitch": 78, "duration": 1, "velocity": 91}, {"time": 2025, "pitch": 78, "duration": 1, "velocity": 85}, {"time": 2028, "pitch": 78, "duration": 3, "velocity": 93}, {"time": 2037, "pitch": 78, "duration": 1, "velocity": 88}, {"time": 2040, "pitch": 78, "duration": 1, "velocity": 95}, {"time": 2043, "pitch": 78, "duration": 1, "velocity": 91}, {"time": 2046, "pitch": 78, "duration": 1, "velocity": 82}, {"time": 2046, "pitch": 78, "duration": 1, "velocity": 91}, {"time": 2046, "pitch": 78, "duration": 1, "velocity": 93}, {"time": 2049, "pitch": 78, "duration": 1, "velocity": 82}, {"time": 2052, "pitch": 78, "duration": 1, "velocity": 93}, {"time": 2061, "pitch": 78, "duration": 1, "velocity": 93}, {"time": 2064, "pitch": 78, "duration": 1, "velocity": 69}, {"time": 2067, "pitch": 78, "duration": 1, "velocity": 82}, {"time": 2070, "pitch": 78, "duration": 1, "velocity": 95}, {"time": 2073, "pitch": 78, "duration": 1, "velocity": 88}, {"time": 2076, "pitch": 78, "duration": 1, "velocity": 85}, {"time": 2079, "pitch": 78, "duration": 3, "velocity": 91}, {"time": 2082, "pitch": 78, "duration": 1, "velocity": 82}, {"time": 2085, "pitch": 78, "duration": 1, "velocity": 82}, {"time": 2088, "pitch": 78, "duration": 1, "velocity": 82}, {"time": 2091, "pitch": 78, "duration": 1, "velocity": 82}, {"time": 2094, "pitch": 78, "duration": 1, "velocity": 82}, {"time": 2097, "pitch": 78, "duration": 1, "velocity": 82}, {"time": 2100, "pitch": 78, "duration": 1, "velocity": 82}, {"time": 2109, "pitch": 78, "duration": 1, "velocity": 66}, {"time": 2112, "pitch": 78, "duration": 1, "velocity": 85}, {"time": 2115, "pitch": 78, "duration": 1, "velocity": 73}, {"time": 2118, "pitch": 78, "duration": 1, "velocity": 80}, {"time": 2121, "pitch": 78, "duration": 1, "velocity": 72}, {"time": 2124, "pitch": 78, "duration": 3, "velocity": 93}, {"time": 2127, "pitch": 78, "duration": 1, "velocity": 82}, {"time": 2130, "pitch": 78, "duration": 1, "velocity": 97}, {"time": 2133, "pitch": 78, "duration": 1, "velocity": 75}, {"time": 2133, "pitch": 78, "duration": 1, "velocity": 88}, {"time": 2136, "pitch": 78, "duration": 1, "velocity": 82}, {"time": 2139, "pitch": 78, "duration": 1, "velocity": 78}, {"time": 2139, "pitch": 78, "duration": 1, "velocity": 85}, {"time": 2142, "pitch": 78, "duration": 1, "velocity": 93}, {"time": 2145, "pitch": 78, "duration": 1, "velocity": 72}, {"time": 2145, "pitch": 78, "duration": 1, "velocity": 85}, {"time": 2148, "pitch": 78, "duration": 1, "velocity": 82}, {"time": 2154, "pitch": 78, "duration": 1, "velocity": 99}, {"time": 2157, "pitch": 78, "duration": 1, "velocity": 53}, {"time": 2160, "pitch": 78, "duration": 2, "velocity": 93}, {"time": 2166, "pitch": 78, "duration": 1, "velocity": 75}, {"time": 2169, "pitch": 78, "duration": 1, "velocity": 88}, {"time": 2172, "pitch": 78, "duration": 2, "velocity": 97}, {"time": 2181, "pitch": 78, "duration": 1, "velocity": 85}, {"time": 2184, "pitch": 78, "duration": 1, "velocity": 75}, {"time": 2187, "pitch": 78, "duration": 1, "velocity": 95}, {"time": 2190, "pitch": 78, "duration": 1, "velocity": 95}, {"time": 2190, "pitch": 78, "duration": 1, "velocity": 101}, {"time": 2193, "pitch": 78, "duration": 2, "velocity": 70}, {"time": 2196, "pitch": 78, "duration": 1, "velocity": 106}, {"time": 2205, "pitch": 78, "duration": 1, "velocity": 85}, {"time": 2208, "pitch": 78, "duration": 1, "velocity": 76}, {"time": 2211, "pitch": 78, "duration": 1, "velocity": 78}, {"time": 2214, "pitch": 78, "duration": 1, "velocity": 95}, {"time": 2217, "pitch": 78, "duration": 1, "velocity": 88}, {"time": 2220, "pitch": 78, "duration": 2, "velocity": 97}, {"time": 2226, "pitch": 78, "duration": 1, "velocity": 99}, {"time": 2229, "pitch": 78, "duration": 1, "velocity": 85}, {"time": 2229, "pitch": 78, "duration": 1, "velocity": 101}, {"time": 2232, "pitch": 78, "duration": 1, "velocity": 75}, {"time": 2232, "pitch": 78, "duration": 1, "velocity": 99}, {"time": 2235, "pitch": 78, "duration": 1, "velocity": 75}, {"time": 2238, "pitch": 78, "duration": 1, "velocity": 91}, {"time": 2241, "pitch": 78, "duration": 1, "velocity": 61}, {"time": 2244, "pitch": 78, "duration": 1, "velocity": 91}, {"time": 2253, "pitch": 78, "duration": 1, "velocity": 88}, {"time": 2256, "pitch": 78, "duration": 2, "velocity": 82}, {"time": 2259, "pitch": 78, "duration": 2, "velocity": 101}, {"time": 2262, "pitch": 78, "duration": 2, "velocity": 101}, {"time": 2268, "pitch": 78, "duration": 1, "velocity": 95}, {"time": 2271, "pitch": 78, "duration": 1, "velocity": 78}, {"time": 2274, "pitch": 78, "duration": 2, "velocity": 91}, {"time": 2277, "pitch": 78, "duration": 1, "velocity": 80}, {"time": 2280, "pitch": 78, "duration": 2, "velocity": 80}, {"time": 2283, "pitch": 75, "duration": 1, "velocity": 76}, {"time": 2286, "pitch": 78, "duration": 1, "velocity": 88}, {"time": 2289, "pitch": 75, "duration": 1, "velocity": 91}, {"time": 2292, "pitch": 78, "duration": 2, "velocity": 91}, {"time": 2295, "pitch": 80, "duration": 1, "velocity": 91}, {"time": 2301, "pitch": 75, "duration": 2, "velocity": 73}, {"time": 2304, "pitch": 78, "duration": 2, "velocity": 69}, {"time": 2307, "pitch": 75, "duration": 2, "velocity": 78}, {"time": 2310, "pitch": 78, "duration": 2, "velocity": 97}, {"time": 2316, "pitch": 78, "duration": 1, "velocity": 91}, {"time": 2319, "pitch": 78, "duration": 1, "velocity": 82}, {"time": 2322, "pitch": 78, "duration": 1, "velocity": 95}, {"time": 2325, "pitch": 78, "duration": 1, "velocity": 88}, {"time": 2328, "pitch": 78, "duration": 1, "velocity": 95}, {"time": 2331, "pitch": 78, "duration": 1, "velocity": 93}, {"time": 2334, "pitch": 78, "duration": 2, "velocity": 95}, {"time": 2337, "pitch": 78, "duration": 1, "velocity": 75}, {"time": 2340, "pitch": 78, "duration": 2, "velocity": 88}, {"time": 2352, "pitch": 75, "duration": 6, "velocity": 89}, {"time": 2358, "pitch": 75, "duration": 6, "velocity": 99}, {"time": 2364, "pitch": 75, "duration": 6, "velocity": 99}, {"time": 2370, "pitch": 75, "duration": 6, "velocity": 101}, {"time": 2376, "pitch": 68, "duration": 6, "velocity": 93}, {"time": 2382, "pitch": 68, "duration": 3, "velocity": 95}, {"time": 2385, "pitch": 70, "duration": 3, "velocity": 95}, {"time": 2388, "pitch": 72, "duration": 6, "velocity": 95}, {"time": 2394, "pitch": 75, "duration": 6, "velocity": 95}, {"time": 2400, "pitch": 75, "duration": 6, "velocity": 95}, {"time": 2406, "pitch": 75, "duration": 6, "velocity": 78}, {"time": 2412, "pitch": 75, "duration": 6, "velocity": 91}, {"time": 2418, "pitch": 75, "duration": 6, "velocity": 85}, {"time": 2424, "pitch": 68, "duration": 6, "velocity": 95}, {"time": 2430, "pitch": 68, "duration": 3, "velocity": 88}, {"time": 2433, "pitch": 72, "duration": 6, "velocity": 88}, {"time": 2433, "pitch": 73, "duration": 6, "velocity": 88}, {"time": 2439, "pitch": 68, "duration": 9, "velocity": 76}, {"time": 2448, "pitch": 75, "duration": 6, "velocity": 89}, {"time": 2454, "pitch": 75, "duration": 6, "velocity": 99}, {"time": 2460, "pitch": 75, "duration": 6, "velocity": 99}, {"time": 2466, "pitch": 75, "duration": 6, "velocity": 101}, {"time": 2472, "pitch": 68, "duration": 6, "velocity": 93}, {"time": 2478, "pitch": 68, "duration": 3, "velocity": 95}, {"time": 2481, "pitch": 70, "duration": 3, "velocity": 95}, {"time": 2484, "pitch": 72, "duration": 6, "velocity": 95}, {"time": 2490, "pitch": 77, "duration": 6, "velocity": 95}, {"time": 2496, "pitch": 77, "duration": 6, "velocity": 95}, {"time": 2502, "pitch": 77, "duration": 6, "velocity": 78}, {"time": 2508, "pitch": 79, "duration": 6, "velocity": 91}, {"time": 2514, "pitch": 77, "duration": 3, "velocity": 85}, {"time": 2517, "pitch": 72, "duration": 3, "velocity": 85}, {"time": 2520, "pitch": 70, "duration": 24, "velocity": 85}, {"time": 2544, "pitch": 75, "duration": 6, "velocity": 95}, {"time": 2550, "pitch": 75, "duration": 6, "velocity": 88}, {"time": 2556, "pitch": 75, "duration": 6, "velocity": 85}, {"time": 2562, "pitch": 75, "duration": 6, "velocity": 88}, {"time": 2568, "pitch": 68, "duration": 6, "velocity": 95}, {"time": 2574, "pitch": 68, "duration": 3, "velocity": 76}, {"time": 2577, "pitch": 70, "duration": 3, "velocity": 67}, {"time": 2580, "pitch": 72, "duration": 6, "velocity": 99}, {"time": 2586, "pitch": 75, "duration": 6, "velocity": 75}, {"time": 2592, "pitch": 75, "duration": 6, "velocity": 85}, {"time": 2598, "pitch": 75, "duration": 6, "velocity": 88}, {"time": 2604, "pitch": 75, "duration": 6, "velocity": 85}, {"time": 2610, "pitch": 75, "duration": 3, "velocity": 85}, {"time": 2613, "pitch": 72, "duration": 3, "velocity": 91}, {"time": 2616, "pitch": 70, "duration": 24, "velocity": 93}, {"time": 2640, "pitch": 75, "duration": 6, "velocity": 99}, {"time": 2646, "pitch": 75, "duration": 6, "velocity": 88}, {"time": 2652, "pitch": 75, "duration": 6, "velocity": 82}, {"time": 2658, "pitch": 75, "duration": 6, "velocity": 82}, {"time": 2664, "pitch": 63, "duration": 6, "velocity": 97}, {"time": 2670, "pitch": 63, "duration": 6, "velocity": 97}, {"time": 2676, "pitch": 63, "duration": 6, "velocity": 95}, {"time": 2682, "pitch": 68, "duration": 6, "velocity": 97}, {"time": 2688, "pitch": 68, "duration": 6, "velocity": 91}, {"time": 2694, "pitch": 72, "duration": 6, "velocity": 101}, {"time": 2700, "pitch": 70, "duration": 12, "velocity": 101}, {"time": 2712, "pitch": 63, "duration": 6, "velocity": 95}, {"time": 2718, "pitch": 70, "duration": 6, "velocity": 101}, {"time": 2724, "pitch": 72, "duration": 6, "velocity": 106}, {"time": 2730, "pitch": 77, "duration": 6, "velocity": 109}, {"time": 2736, "pitch": 75, "duration": 3, "velocity": 97}, {"time": 2739, "pitch": 75, "duration": 3, "velocity": 78}, {"time": 2742, "pitch": 75, "duration": 18, "velocity": 95}, {"time": 2760, "pitch": 72, "duration": 6, "velocity": 99}, {"time": 2766, "pitch": 75, "duration": 3, "velocity": 78}, {"time": 2769, "pitch": 72, "duration": 3, "velocity": 95}, {"time": 2772, "pitch": 68, "duration": 6, "velocity": 85}, {"time": 2778, "pitch": 72, "duration": 6, "velocity": 103}, {"time": 2784, "pitch": 68, "duration": 3, "velocity": 97}, {"time": 2787, "pitch": 68, "duration": 9, "velocity": 99}, {"time": 2796, "pitch": 68, "duration": 3, "velocity": 91}, {"time": 2799, "pitch": 70, "duration": 6, "velocity": 95}, {"time": 2805, "pitch": 72, "duration": 9, "velocity": 103}, {"time": 2814, "pitch": 70, "duration": 6, "velocity": 97}, {"time": 2820, "pitch": 72, "duration": 6, "velocity": 103}, {"time": 2826, "pitch": 77, "duration": 6, "velocity": 103}, {"time": 2832, "pitch": 75, "duration": 3, "velocity": 97}, {"time": 2835, "pitch": 75, "duration": 3, "velocity": 101}, {"time": 2838, "pitch": 75, "duration": 18, "velocity": 95}, {"time": 2856, "pitch": 72, "duration": 6, "velocity": 109}, {"time": 2862, "pitch": 70, "duration": 3, "velocity": 99}, {"time": 2865, "pitch": 72, "duration": 3, "velocity": 101}, {"time": 2868, "pitch": 68, "duration": 6, "velocity": 99}, {"time": 2874, "pitch": 72, "duration": 6, "velocity": 103}, {"time": 2880, "pitch": 68, "duration": 3, "velocity": 97}, {"time": 2883, "pitch": 68, "duration": 9, "velocity": 99}, {"time": 2892, "pitch": 63, "duration": 3, "velocity": 95}, {"time": 2895, "pitch": 72, "duration": 6, "velocity": 101}, {"time": 2901, "pitch": 70, "duration": 9, "velocity": 99}, {"time": 2910, "pitch": 68, "duration": 6, "velocity": 97}, {"time": 2916, "pitch": 70, "duration": 6, "velocity": 73}, {"time": 2922, "pitch": 72, "duration": 6, "velocity": 103}, {"time": 2928, "pitch": 72, "duration": 6, "velocity": 103}, {"time": 2934, "pitch": 72, "duration": 3, "velocity": 103}, {"time": 2937, "pitch": 70, "duration": 3, "velocity": 76}, {"time": 2940, "pitch": 72, "duration": 3, "velocity": 97}, {"time": 2943, "pitch": 79, "duration": 9, "velocity": 97}, {"time": 2952, "pitch": 79, "duration": 6, "velocity": 97}, {"time": 2958, "pitch": 79, "duration": 3, "velocity": 109}, {"time": 2961, "pitch": 77, "duration": 3, "velocity": 99}, {"time": 2964, "pitch": 79, "duration": 3, "velocity": 97}, {"time": 2967, "pitch": 80, "duration": 9, "velocity": 97}, {"time": 2976, "pitch": 80, "duration": 6, "velocity": 97}, {"time": 2982, "pitch": 80, "duration": 3, "velocity": 95}, {"time": 2985, "pitch": 79, "duration": 3, "velocity": 93}, {"time": 2988, "pitch": 80, "duration": 3, "velocity": 95}, {"time": 2991, "pitch": 79, "duration": 6, "velocity": 99}, {"time": 2997, "pitch": 77, "duration": 18, "velocity": 99}, {"time": 3015, "pitch": 77, "duration": 3, "velocity": 103}, {"time": 3018, "pitch": 75, "duration": 6, "velocity": 91}, {"time": 3024, "pitch": 75, "duration": 6, "velocity": 101}, {"time": 3030, "pitch": 75, "duration": 6, "velocity": 95}, {"time": 3036, "pitch": 72, "duration": 6, "velocity": 113}, {"time": 3042, "pitch": 72, "duration": 3, "velocity": 109}, {"time": 3045, "pitch": 68, "duration": 6, "velocity": 99}, {"time": 3051, "pitch": 68, "duration": 15, "velocity": 93}, {"time": 3063, "pitch": 63, "duration": 3, "velocity": 85}, {"time": 3066, "pitch": 75, "duration": 5, "velocity": 93}, {"time": 3072, "pitch": 72, "duration": 4, "velocity": 101}, {"time": 3078, "pitch": 72, "duration": 4, "velocity": 99}, {"time": 3084, "pitch": 70, "duration": 1, "velocity": 82}, {"time": 3087, "pitch": 70, "duration": 5, "velocity": 93}, {"time": 3096, "pitch": 64, "duration": 6, "velocity": 95}, {"time": 3102, "pitch": 71, "duration": 6, "velocity": 101}, {"time": 3108, "pitch": 73, "duration": 6, "velocity": 106}, {"time": 3114, "pitch": 78, "duration": 6, "velocity": 109}, {"time": 3120, "pitch": 76, "duration": 3, "velocity": 97}, {"time": 3123, "pitch": 76, "duration": 3, "velocity": 78}, {"time": 3126, "pitch": 76, "duration": 18, "velocity": 95}, {"time": 3144, "pitch": 73, "duration": 6, "velocity": 99}, {"time": 3150, "pitch": 76, "duration": 3, "velocity": 78}, {"time": 3153, "pitch": 73, "duration": 3, "velocity": 95}, {"time": 3156, "pitch": 69, "duration": 6, "velocity": 85}, {"time": 3162, "pitch": 73, "duration": 6, "velocity": 103}, {"time": 3168, "pitch": 69, "duration": 3, "velocity": 97}, {"time": 3171, "pitch": 69, "duration": 9, "velocity": 99}, {"time": 3180, "pitch": 69, "duration": 3, "velocity": 91}, {"time": 3183, "pitch": 71, "duration": 6, "velocity": 95}, {"time": 3189, "pitch": 73, "duration": 9, "velocity": 103}, {"time": 3198, "pitch": 71, "duration": 6, "velocity": 97}, {"time": 3204, "pitch": 73, "duration": 6, "velocity": 103}, {"time": 3210, "pitch": 78, "duration": 6, "velocity": 103}, {"time": 3216, "pitch": 76, "duration": 3, "velocity": 97}, {"time": 3219, "pitch": 76, "duration": 3, "velocity": 101}, {"time": 3222, "pitch": 76, "duration": 18, "velocity": 95}, {"time": 3240, "pitch": 73, "duration": 6, "velocity": 109}, {"time": 3246, "pitch": 71, "duration": 3, "velocity": 99}, {"time": 3249, "pitch": 73, "duration": 3, "velocity": 101}, {"time": 3252, "pitch": 69, "duration": 6, "velocity": 99}, {"time": 3258, "pitch": 73, "duration": 6, "velocity": 103}, {"time": 3264, "pitch": 69, "duration": 3, "velocity": 97}, {"time": 3267, "pitch": 69, "duration": 9, "velocity": 99}, {"time": 3276, "pitch": 64, "duration": 3, "velocity": 95}, {"time": 3279, "pitch": 73, "duration": 6, "velocity": 101}, {"time": 3285, "pitch": 71, "duration": 9, "velocity": 99}, {"time": 3294, "pitch": 69, "duration": 6, "velocity": 97}, {"time": 3300, "pitch": 71, "duration": 6, "velocity": 73}, {"time": 3306, "pitch": 73, "duration": 6, "velocity": 103}, {"time": 3312, "pitch": 73, "duration": 6, "velocity": 103}, {"time": 3318, "pitch": 73, "duration": 3, "velocity": 103}, {"time": 3321, "pitch": 71, "duration": 3, "velocity": 76}, {"time": 3324, "pitch": 73, "duration": 3, "velocity": 97}, {"time": 3327, "pitch": 80, "duration": 9, "velocity": 97}, {"time": 3336, "pitch": 80, "duration": 6, "velocity": 97}, {"time": 3342, "pitch": 80, "duration": 3, "velocity": 109}, {"time": 3345, "pitch": 78, "duration": 3, "velocity": 99}, {"time": 3348, "pitch": 80, "duration": 3, "velocity": 97}, {"time": 3351, "pitch": 81, "duration": 9, "velocity": 97}, {"time": 3360, "pitch": 81, "duration": 6, "velocity": 97}, {"time": 3366, "pitch": 81, "duration": 3, "velocity": 95}, {"time": 3369, "pitch": 80, "duration": 3, "velocity": 93}, {"time": 3372, "pitch": 81, "duration": 3, "velocity": 95}, {"time": 3375, "pitch": 80, "duration": 6, "velocity": 99}, {"time": 3381, "pitch": 78, "duration": 18, "velocity": 99}, {"time": 3399, "pitch": 78, "duration": 3, "velocity": 103}, {"time": 3402, "pitch": 76, "duration": 6, "velocity": 91}, {"time": 3408, "pitch": 76, "duration": 6, "velocity": 101}, {"time": 3414, "pitch": 76, "duration": 6, "velocity": 95}, {"time": 3420, "pitch": 73, "duration": 6, "velocity": 113}, {"time": 3426, "pitch": 73, "duration": 3, "velocity": 109}, {"time": 3429, "pitch": 69, "duration": 6, "velocity": 99}, {"time": 3435, "pitch": 69, "duration": 15, "velocity": 93}, {"time": 3447, "pitch": 64, "duration": 3, "velocity": 85}, {"time": 3450, "pitch": 76, "duration": 5, "velocity": 93}, {"time": 3456, "pitch": 73, "duration": 4, "velocity": 101}, {"time": 3462, "pitch": 73, "duration": 4, "velocity": 99}, {"time": 3468, "pitch": 71, "duration": 1, "velocity": 82}, {"time": 3471, "pitch": 71, "duration": 5, "velocity": 93}, {"time": 3480, "pitch": 64, "duration": 4, "velocity": 99}, {"time": 3486, "pitch": 71, "duration": 6, "velocity": 101}, {"time": 3492, "pitch": 73, "duration": 6, "velocity": 106}, {"time": 3498, "pitch": 78, "duration": 6, "velocity": 109}, {"time": 3504, "pitch": 76, "duration": 3, "velocity": 97}, {"time": 3507, "pitch": 76, "duration": 3, "velocity": 78}, {"time": 3510, "pitch": 76, "duration": 18, "velocity": 95}, {"time": 3528, "pitch": 73, "duration": 6, "velocity": 99}, {"time": 3534, "pitch": 76, "duration": 3, "velocity": 78}, {"time": 3537, "pitch": 73, "duration": 3, "velocity": 95}, {"time": 3540, "pitch": 69, "duration": 6, "velocity": 85}, {"time": 3546, "pitch": 73, "duration": 6, "velocity": 103}, {"time": 3552, "pitch": 73, "duration": 3, "velocity": 97}, {"time": 3555, "pitch": 73, "duration": 5, "velocity": 99}, {"time": 3561, "pitch": 74, "duration": 6, "velocity": 99}, {"time": 3564, "pitch": 73, "duration": 3, "velocity": 91}, {"time": 3567, "pitch": 71, "duration": 6, "velocity": 95}, {"time": 3573, "pitch": 69, "duration": 9, "velocity": 103}, {"time": 3582, "pitch": 71, "duration": 6, "velocity": 97}, {"time": 3588, "pitch": 73, "duration": 6, "velocity": 103}, {"time": 3594, "pitch": 78, "duration": 6, "velocity": 103}, {"time": 3600, "pitch": 78, "duration": 3, "velocity": 97}, {"time": 3603, "pitch": 78, "duration": 3, "velocity": 101}, {"time": 3609, "pitch": 76, "duration": 18, "velocity": 95}, {"time": 3624, "pitch": 73, "duration": 6, "velocity": 109}, {"time": 3630, "pitch": 71, "duration": 3, "velocity": 99}, {"time": 3633, "pitch": 73, "duration": 3, "velocity": 101}, {"time": 3636, "pitch": 69, "duration": 6, "velocity": 99}, {"time": 3642, "pitch": 73, "duration": 6, "velocity": 103}, {"time": 3648, "pitch": 69, "duration": 3, "velocity": 97}, {"time": 3651, "pitch": 69, "duration": 9, "velocity": 99}, {"time": 3660, "pitch": 64, "duration": 3, "velocity": 95}, {"time": 3663, "pitch": 73, "duration": 6, "velocity": 101}, {"time": 3669, "pitch": 71, "duration": 9, "velocity": 99}, {"time": 3678, "pitch": 69, "duration": 6, "velocity": 97}, {"time": 3684, "pitch": 71, "duration": 6, "velocity": 73}, {"time": 3690, "pitch": 73, "duration": 6, "velocity": 103}, {"time": 3696, "pitch": 73, "duration": 6, "velocity": 103}, {"time": 3702, "pitch": 73, "duration": 3, "velocity": 103}, {"time": 3705, "pitch": 71, "duration": 3, "velocity": 76}, {"time": 3708, "pitch": 73, "duration": 3, "velocity": 97}, {"time": 3711, "pitch": 80, "duration": 9, "velocity": 97}, {"time": 3720, "pitch": 80, "duration": 6, "velocity": 97}, {"time": 3726, "pitch": 80, "duration": 3, "velocity": 109}, {"time": 3729, "pitch": 78, "duration": 3, "velocity": 99}, {"time": 3732, "pitch": 80, "duration": 3, "velocity": 97}, {"time": 3735, "pitch": 81, "duration": 9, "velocity": 97}, {"time": 3744, "pitch": 81, "duration": 6, "velocity": 97}, {"time": 3750, "pitch": 81, "duration": 3, "velocity": 95}, {"time": 3753, "pitch": 80, "duration": 3, "velocity": 93}, {"time": 3756, "pitch": 81, "duration": 3, "velocity": 95}, {"time": 3759, "pitch": 80, "duration": 6, "velocity": 99}, {"time": 3765, "pitch": 78, "duration": 18, "velocity": 99}, {"time": 3783, "pitch": 78, "duration": 3, "velocity": 103}, {"time": 3786, "pitch": 76, "duration": 6, "velocity": 91}, {"time": 3792, "pitch": 76, "duration": 6, "velocity": 101}, {"time": 3798, "pitch": 76, "duration": 6, "velocity": 95}, {"time": 3804, "pitch": 73, "duration": 6, "velocity": 113}, {"time": 3810, "pitch": 73, "duration": 3, "velocity": 109}, {"time": 3813, "pitch": 69, "duration": 6, "velocity": 99}, {"time": 3819, "pitch": 69, "duration": 15, "velocity": 93}, {"time": 3831, "pitch": 64, "duration": 3, "velocity": 85}, {"time": 3834, "pitch": 76, "duration": 5, "velocity": 93}, {"time": 3840, "pitch": 73, "duration": 4, "velocity": 101}, {"time": 3843, "pitch": 73, "duration": 1, "velocity": 99}, {"time": 3852, "pitch": 71, "duration": 1, "velocity": 82}, {"time": 3855, "pitch": 71, "duration": 5, "velocity": 93}, {"time": 3870, "pitch": 64, "duration": 1, "velocity": 95}, {"time": 3873, "pitch": 64, "duration": 1, "velocity": 78}, {"time": 3876, "pitch": 64, "duration": 2, "velocity": 82}, {"time": 3879, "pitch": 71, "duration": 2, "velocity": 82}, {"time": 3882, "pitch": 71, "duration": 5, "velocity": 85}, {"time": 3888, "pitch": 69, "duration": 2, "velocity": 99}, {"time": 3891, "pitch": 69, "duration": 14, "velocity": 76}]}, {"program": 0, "is_drum": false, "name": "PIANO", "notes": [{"time": 234, "pitch": 47, "duration": 20, "velocity": 85}, {"time": 240, "pitch": 54, "duration": 16, "velocity": 64}, {"time": 246, "pitch": 59, "duration": 8, "velocity": 82}, {"time": 258, "pitch": 46, "duration": 19, "velocity": 80}, {"time": 264, "pitch": 54, "duration": 13, "velocity": 62}, {"time": 270, "pitch": 58, "duration": 7, "velocity": 95}, {"time": 276, "pitch": 61, "duration": 6, "velocity": 66}, {"time": 282, "pitch": 44, "duration": 20, "velocity": 76}, {"time": 282, "pitch": 59, "duration": 13, "velocity": 75}, {"time": 288, "pitch": 51, "duration": 18, "velocity": 56}, {"time": 294, "pitch": 56, "duration": 7, "velocity": 82}, {"time": 300, "pitch": 59, "duration": 4, "velocity": 76}, {"time": 303, "pitch": 61, "duration": 3, "velocity": 66}, {"time": 306, "pitch": 42, "duration": 19, "velocity": 64}, {"time": 306, "pitch": 63, "duration": 13, "velocity": 72}, {"time": 312, "pitch": 51, "duration": 8, "velocity": 55}, {"time": 318, "pitch": 54, "duration": 7, "velocity": 57}, {"time": 318, "pitch": 59, "duration": 6, "velocity": 67}, {"time": 324, "pitch": 51, "duration": 1, "velocity": 69}, {"time": 330, "pitch": 40, "duration": 19, "velocity": 75}, {"time": 330, "pitch": 56, "duration": 11, "velocity": 64}, {"time": 330, "pitch": 59, "duration": 12, "velocity": 66}, {"time": 330, "pitch": 63, "duration": 12, "velocity": 72}, {"time": 336, "pitch": 47, "duration": 13, "velocity": 56}, {"time": 342, "pitch": 52, "duration": 7, "velocity": 69}, {"time": 354, "pitch": 40, "duration": 19, "velocity": 69}, {"time": 354, "pitch": 55, "duration": 19, "velocity": 76}, {"time": 354, "pitch": 61, "duration": 19, "velocity": 82}, {"time": 360, "pitch": 47, "duration": 15, "velocity": 52}, {"time": 366, "pitch": 52, "duration": 8, "velocity": 75}, {"time": 372, "pitch": 59, "duration": 5, "velocity": 58}, {"time": 378, "pitch": 42, "duration": 20, "velocity": 73}, {"time": 378, "pitch": 54, "duration": 7, "velocity": 57}, {"time": 378, "pitch": 61, "duration": 14, "velocity": 73}, {"time": 384, "pitch": 49, "duration": 19, "velocity": 53}, {"time": 390, "pitch": 54, "duration": 10, "velocity": 70}, {"time": 396, "pitch": 58, "duration": 7, "velocity": 78}, {"time": 402, "pitch": 42, "duration": 12, "velocity": 69}, {"time": 402, "pitch": 61, "duration": 6, "velocity": 82}, {"time": 408, "pitch": 49, "duration": 6, "velocity": 56}, {"time": 408, "pitch": 59, "duration": 6, "velocity": 70}, {"time": 414, "pitch": 54, "duration": 7, "velocity": 61}, {"time": 414, "pitch": 64, "duration": 7, "velocity": 72}, {"time": 420, "pitch": 56, "duration": 6, "velocity": 54}, {"time": 420, "pitch": 63, "duration": 6, "velocity": 58}, {"time": 426, "pitch": 47, "duration": 20, "velocity": 69}, {"time": 426, "pitch": 66, "duration": 12, "velocity": 61}, {"time": 432, "pitch": 54, "duration": 7, "velocity": 51}, {"time": 438, "pitch": 59, "duration": 7, "velocity": 52}, {"time": 438, "pitch": 63, "duration": 8, "velocity": 70}, {"time": 444, "pitch": 54, "duration": 6, "velocity": 59}, {"time": 450, "pitch": 46, "duration": 18, "velocity": 63}, {"time": 450, "pitch": 61, "duration": 13, "velocity": 72}, {"time": 456, "pitch": 54, "duration": 6, "velocity": 59}, {"time": 462, "pitch": 58, "duration": 5, "velocity": 54}, {"time": 462, "pitch": 66, "duration": 6, "velocity": 66}, {"time": 468, "pitch": 70, "duration": 6, "velocity": 66}, {"time": 474, "pitch": 44, "duration": 21, "velocity": 73}, {"time": 474, "pitch": 63, "duration": 19, "velocity": 62}, {"time": 474, "pitch": 66, "duration": 18, "velocity": 70}, {"time": 474, "pitch": 71, "duration": 25, "velocity": 70}, {"time": 480, "pitch": 51, "duration": 7, "velocity": 53}, {"time": 486, "pitch": 56, "duration": 7, "velocity": 60}, {"time": 492, "pitch": 51, "duration": 7, "velocity": 55}, {"time": 498, "pitch": 42, "duration": 19, "velocity": 67}, {"time": 498, "pitch": 61, "duration": 8, "velocity": 75}, {"time": 498, "pitch": 70, "duration": 9, "velocity": 70}, {"time": 504, "pitch": 51, "duration": 7, "velocity": 52}, {"time": 510, "pitch": 54, "duration": 7, "velocity": 59}, {"time": 510, "pitch": 59, "duration": 7, "velocity": 80}, {"time": 510, "pitch": 66, "duration": 11, "velocity": 69}, {"time": 516, "pitch": 51, "duration": 2, "velocity": 62}, {"time": 522, "pitch": 40, "duration": 19, "velocity": 70}, {"time": 522, "pitch": 59, "duration": 8, "velocity": 69}, {"time": 522, "pitch": 64, "duration": 11, "velocity": 75}, {"time": 522, "pitch": 68, "duration": 13, "velocity": 76}, {"time": 528, "pitch": 47, "duration": 7, "velocity": 49}, {"time": 534, "pitch": 52, "duration": 7, "velocity": 55}, {"time": 540, "pitch": 47, "duration": 6, "velocity": 64}, {"time": 540, "pitch": 66, "duration": 5, "velocity": 76}, {"time": 546, "pitch": 40, "duration": 18, "velocity": 69}, {"time": 546, "pitch": 59, "duration": 9, "velocity": 76}, {"time": 546, "pitch": 64, "duration": 8, "velocity": 78}, {"time": 546, "pitch": 67, "duration": 15, "velocity": 82}, {"time": 552, "pitch": 47, "duration": 18, "velocity": 59}, {"time": 558, "pitch": 52, "duration": 7, "velocity": 50}, {"time": 564, "pitch": 64, "duration": 6, "velocity": 80}, {"time": 570, "pitch": 42, "duration": 18, "velocity": 66}, {"time": 570, "pitch": 61, "duration": 7, "velocity": 62}, {"time": 570, "pitch": 66, "duration": 6, "velocity": 91}, {"time": 576, "pitch": 49, "duration": 7, "velocity": 58}, {"time": 582, "pitch": 54, "duration": 6, "velocity": 49}, {"time": 582, "pitch": 59, "duration": 7, "velocity": 80}, {"time": 582, "pitch": 64, "duration": 5, "velocity": 70}, {"time": 588, "pitch": 49, "duration": 6, "velocity": 55}, {"time": 594, "pitch": 42, "duration": 10, "velocity": 67}, {"time": 594, "pitch": 58, "duration": 5, "velocity": 73}, {"time": 594, "pitch": 61, "duration": 5, "velocity": 72}, {"time": 600, "pitch": 49, "duration": 6, "velocity": 63}, {"time": 600, "pitch": 59, "duration": 4, "velocity": 69}, {"time": 600, "pitch": 63, "duration": 5, "velocity": 70}, {"time": 606, "pitch": 54, "duration": 6, "velocity": 55}, {"time": 606, "pitch": 59, "duration": 3, "velocity": 72}, {"time": 606, "pitch": 64, "duration": 4, "velocity": 63}, {"time": 612, "pitch": 56, "duration": 2, "velocity": 67}, {"time": 612, "pitch": 66, "duration": 3, "velocity": 93}, {"time": 618, "pitch": 41, "duration": 42, "velocity": 69}, {"time": 618, "pitch": 56, "duration": 9, "velocity": 67}, {"time": 618, "pitch": 59, "duration": 7, "velocity": 73}, {"time": 618, "pitch": 63, "duration": 7, "velocity": 69}, {"time": 624, "pitch": 53, "duration": 21, "velocity": 44}, {"time": 630, "pitch": 56, "duration": 7, "velocity": 75}, {"time": 636, "pitch": 63, "duration": 9, "velocity": 62}, {"time": 648, "pitch": 53, "duration": 11, "velocity": 35}, {"time": 651, "pitch": 65, "duration": 2, "velocity": 56}, {"time": 654, "pitch": 68, "duration": 4, "velocity": 67}, {"time": 657, "pitch": 70, "duration": 2, "velocity": 54}, {"time": 660, "pitch": 72, "duration": 3, "velocity": 50}, {"time": 663, "pitch": 75, "duration": 2, "velocity": 46}, {"time": 666, "pitch": 39, "duration": 40, "velocity": 60}, {"time": 666, "pitch": 63, "duration": 5, "velocity": 55}, {"time": 666, "pitch": 68, "duration": 4, "velocity": 52}, {"time": 666, "pitch": 72, "duration": 5, "velocity": 69}, {"time": 672, "pitch": 48, "duration": 6, "velocity": 42}, {"time": 678, "pitch": 51, "duration": 7, "velocity": 52}, {"time": 678, "pitch": 56, "duration": 2, "velocity": 69}, {"time": 678, "pitch": 60, "duration": 3, "velocity": 69}, {"time": 684, "pitch": 48, "duration": 20, "velocity": 44}, {"time": 690, "pitch": 51, "duration": 4, "velocity": 39}, {"time": 690, "pitch": 58, "duration": 4, "velocity": 57}, {"time": 690, "pitch": 63, "duration": 4, "velocity": 47}, {"time": 690, "pitch": 67, "duration": 5, "velocity": 53}, {"time": 699, "pitch": 60, "duration": 3, "velocity": 66}, {"time": 699, "pitch": 68, "duration": 3, "velocity": 73}, {"time": 702, "pitch": 51, "duration": 5, "velocity": 42}, {"time": 708, "pitch": 60, "duration": 1, "velocity": 66}, {"time": 708, "pitch": 67, "duration": 1, "velocity": 64}, {"time": 714, "pitch": 49, "duration": 41, "velocity": 62}, {"time": 714, "pitch": 56, "duration": 5, "velocity": 62}, {"time": 714, "pitch": 61, "duration": 6, "velocity": 60}, {"time": 714, "pitch": 65, "duration": 6, "velocity": 61}, {"time": 720, "pitch": 53, "duration": 5, "velocity": 42}, {"time": 723, "pitch": 56, "duration": 4, "velocity": 46}, {"time": 723, "pitch": 63, "duration": 4, "velocity": 49}, {"time": 726, "pitch": 53, "duration": 7, "velocity": 45}, {"time": 729, "pitch": 56, "duration": 4, "velocity": 43}, {"time": 732, "pitch": 61, "duration": 3, "velocity": 72}, {"time": 735, "pitch": 63, "duration": 6, "velocity": 63}, {"time": 741, "pitch": 53, "duration": 7, "velocity": 50}, {"time": 744, "pitch": 56, "duration": 7, "velocity": 51}, {"time": 747, "pitch": 65, "duration": 4, "velocity": 66}, {"time": 750, "pitch": 53, "duration": 4, "velocity": 58}, {"time": 753, "pitch": 56, "duration": 2, "velocity": 55}, {"time": 756, "pitch": 61, "duration": 3, "velocity": 64}, {"time": 759, "pitch": 65, "duration": 8, "velocity": 66}, {"time": 762, "pitch": 39, "duration": 5, "velocity": 73}, {"time": 762, "pitch": 56, "duration": 8, "velocity": 55}, {"time": 762, "pitch": 61, "duration": 8, "velocity": 51}, {"time": 762, "pitch": 68, "duration": 14, "velocity": 61}, {"time": 765, "pitch": 46, "duration": 3, "velocity": 54}, {"time": 768, "pitch": 51, "duration": 4, "velocity": 44}, {"time": 771, "pitch": 53, "duration": 7, "velocity": 60}, {"time": 774, "pitch": 56, "duration": 2, "velocity": 78}, {"time": 777, "pitch": 56, "duration": 3, "velocity": 46}, {"time": 780, "pitch": 61, "duration": 2, "velocity": 57}, {"time": 783, "pitch": 56, "duration": 9, "velocity": 59}, {"time": 783, "pitch": 61, "duration": 9, "velocity": 56}, {"time": 786, "pitch": 39, "duration": 18, "velocity": 70}, {"time": 789, "pitch": 46, "duration": 15, "velocity": 48}, {"time": 792, "pitch": 51, "duration": 4, "velocity": 49}, {"time": 795, "pitch": 56, "duration": 2, "velocity": 61}, {"time": 795, "pitch": 61, "duration": 1, "velocity": 59}, {"time": 795, "pitch": 65, "duration": 2, "velocity": 69}, {"time": 798, "pitch": 51, "duration": 3, "velocity": 44}, {"time": 801, "pitch": 58, "duration": 2, "velocity": 63}, {"time": 801, "pitch": 63, "duration": 2, "velocity": 60}, {"time": 801, "pitch": 67, "duration": 2, "velocity": 67}, {"time": 804, "pitch": 51, "duration": 1, "velocity": 44}, {"time": 810, "pitch": 53, "duration": 21, "velocity": 54}, {"time": 810, "pitch": 60, "duration": 3, "velocity": 59}, {"time": 810, "pitch": 65, "duration": 4, "velocity": 64}, {"time": 810, "pitch": 68, "duration": 4, "velocity": 66}, {"time": 813, "pitch": 56, "duration": 7, "velocity": 60}, {"time": 816, "pitch": 60, "duration": 2, "velocity": 53}, {"time": 819, "pitch": 60, "duration": 2, "velocity": 40}, {"time": 819, "pitch": 67, "duration": 5, "velocity": 61}, {"time": 825, "pitch": 56, "duration": 7, "velocity": 57}, {"time": 828, "pitch": 60, "duration": 5, "velocity": 58}, {"time": 831, "pitch": 68, "duration": 4, "velocity": 67}, {"time": 837, "pitch": 53, "duration": 17, "velocity": 52}, {"time": 840, "pitch": 56, "duration": 3, "velocity": 53}, {"time": 843, "pitch": 75, "duration": 2, "velocity": 66}, {"time": 849, "pitch": 67, "duration": 1, "velocity": 44}, {"time": 852, "pitch": 56, "duration": 2, "velocity": 64}, {"time": 855, "pitch": 68, "duration": 6, "velocity": 64}, {"time": 858, "pitch": 51, "duration": 17, "velocity": 72}, {"time": 861, "pitch": 60, "duration": 6, "velocity": 62}, {"time": 864, "pitch": 63, "duration": 3, "velocity": 58}, {"time": 867, "pitch": 67, "duration": 1, "velocity": 69}, {"time": 873, "pitch": 60, "duration": 1, "velocity": 37}, {"time": 876, "pitch": 63, "duration": 1, "velocity": 46}, {"time": 879, "pitch": 63, "duration": 11, "velocity": 44}, {"time": 879, "pitch": 70, "duration": 16, "velocity": 63}, {"time": 882, "pitch": 39, "duration": 5, "velocity": 58}, {"time": 885, "pitch": 46, "duration": 3, "velocity": 50}, {"time": 888, "pitch": 51, "duration": 4, "velocity": 58}, {"time": 891, "pitch": 53, "duration": 4, "velocity": 52}, {"time": 894, "pitch": 55, "duration": 2, "velocity": 62}, {"time": 897, "pitch": 58, "duration": 2, "velocity": 53}, {"time": 900, "pitch": 63, "duration": 2, "velocity": 57}, {"time": 903, "pitch": 70, "duration": 9, "velocity": 63}, {"time": 906, "pitch": 49, "duration": 17, "velocity": 52}, {"time": 909, "pitch": 56, "duration": 6, "velocity": 46}, {"time": 912, "pitch": 61, "duration": 7, "velocity": 60}, {"time": 915, "pitch": 68, "duration": 3, "velocity": 64}, {"time": 921, "pitch": 56, "duration": 3, "velocity": 46}, {"time": 924, "pitch": 67, "duration": 3, "velocity": 61}, {"time": 927, "pitch": 65, "duration": 7, "velocity": 60}, {"time": 930, "pitch": 49, "duration": 18, "velocity": 66}, {"time": 933, "pitch": 56, "duration": 6, "velocity": 60}, {"time": 936, "pitch": 61, "duration": 4, "velocity": 46}, {"time": 939, "pitch": 63, "duration": 3, "velocity": 66}, {"time": 945, "pitch": 56, "duration": 2, "velocity": 47}, {"time": 948, "pitch": 65, "duration": 2, "velocity": 57}, {"time": 954, "pitch": 39, "duration": 22, "velocity": 69}, {"time": 954, "pitch": 53, "duration": 4, "velocity": 52}, {"time": 954, "pitch": 56, "duration": 4, "velocity": 61}, {"time": 954, "pitch": 61, "duration": 4, "velocity": 60}, {"time": 957, "pitch": 51, "duration": 22, "velocity": 56}, {"time": 960, "pitch": 53, "duration": 2, "velocity": 50}, {"time": 963, "pitch": 56, "duration": 4, "velocity": 69}, {"time": 966, "pitch": 58, "duration": 1, "velocity": 69}, {"time": 969, "pitch": 63, "duration": 4, "velocity": 59}, {"time": 972, "pitch": 68, "duration": 3, "velocity": 66}, {"time": 975, "pitch": 70, "duration": 4, "velocity": 55}, {"time": 978, "pitch": 39, "duration": 2, "velocity": 73}, {"time": 978, "pitch": 75, "duration": 2, "velocity": 75}, {"time": 990, "pitch": 39, "duration": 5, "velocity": 67}, {"time": 990, "pitch": 51, "duration": 6, "velocity": 49}, {"time": 990, "pitch": 53, "duration": 6, "velocity": 56}, {"time": 990, "pitch": 56, "duration": 6, "velocity": 70}, {"time": 990, "pitch": 61, "duration": 6, "velocity": 69}, {"time": 1002, "pitch": 44, "duration": 19, "velocity": 70}, {"time": 1002, "pitch": 60, "duration": 6, "velocity": 63}, {"time": 1002, "pitch": 68, "duration": 8, "velocity": 72}, {"time": 1005, "pitch": 51, "duration": 9, "velocity": 50}, {"time": 1008, "pitch": 56, "duration": 11, "velocity": 53}, {"time": 1011, "pitch": 58, "duration": 3, "velocity": 59}, {"time": 1011, "pitch": 67, "duration": 5, "velocity": 64}, {"time": 1017, "pitch": 63, "duration": 2, "velocity": 57}, {"time": 1020, "pitch": 51, "duration": 6, "velocity": 44}, {"time": 1023, "pitch": 58, "duration": 9, "velocity": 39}, {"time": 1026, "pitch": 43, "duration": 18, "velocity": 63}, {"time": 1026, "pitch": 70, "duration": 7, "velocity": 67}, {"time": 1029, "pitch": 51, "duration": 8, "velocity": 55}, {"time": 1032, "pitch": 55, "duration": 10, "velocity": 50}, {"time": 1035, "pitch": 58, "duration": 5, "velocity": 58}, {"time": 1035, "pitch": 67, "duration": 7, "velocity": 63}, {"time": 1041, "pitch": 51, "duration": 3, "velocity": 59}, {"time": 1044, "pitch": 65, "duration": 2, "velocity": 62}, {"time": 1047, "pitch": 67, "duration": 3, "velocity": 63}, {"time": 1050, "pitch": 41, "duration": 5, "velocity": 61}, {"time": 1050, "pitch": 60, "duration": 11, "velocity": 60}, {"time": 1050, "pitch": 68, "duration": 12, "velocity": 59}, {"time": 1053, "pitch": 48, "duration": 2, "velocity": 40}, {"time": 1056, "pitch": 53, "duration": 4, "velocity": 39}, {"time": 1059, "pitch": 55, "duration": 5, "velocity": 58}, {"time": 1062, "pitch": 56, "duration": 3, "velocity": 61}, {"time": 1065, "pitch": 60, "duration": 4, "velocity": 46}, {"time": 1068, "pitch": 67, "duration": 3, "velocity": 56}, {"time": 1071, "pitch": 68, "duration": 4, "velocity": 56}, {"time": 1074, "pitch": 39, "duration": 19, "velocity": 72}, {"time": 1074, "pitch": 58, "duration": 6, "velocity": 58}, {"time": 1074, "pitch": 67, "duration": 5, "velocity": 67}, {"time": 1077, "pitch": 46, "duration": 16, "velocity": 55}, {"time": 1080, "pitch": 51, "duration": 12, "velocity": 56}, {"time": 1083, "pitch": 55, "duration": 3, "velocity": 61}, {"time": 1086, "pitch": 56, "duration": 2, "velocity": 59}, {"time": 1089, "pitch": 60, "duration": 4, "velocity": 66}, {"time": 1092, "pitch": 63, "duration": 3, "velocity": 46}, {"time": 1095, "pitch": 68, "duration": 3, "velocity": 48}, {"time": 1098, "pitch": 37, "duration": 5, "velocity": 63}, {"time": 1098, "pitch": 67, "duration": 9, "velocity": 66}, {"time": 1101, "pitch": 44, "duration": 2, "velocity": 50}, {"time": 1104, "pitch": 49, "duration": 4, "velocity": 43}, {"time": 1107, "pitch": 51, "duration": 5, "velocity": 55}, {"time": 1107, "pitch": 65, "duration": 2, "velocity": 63}, {"time": 1110, "pitch": 53, "duration": 2, "velocity": 60}, {"time": 1113, "pitch": 56, "duration": 2, "velocity": 54}, {"time": 1116, "pitch": 61, "duration": 3, "velocity": 55}, {"time": 1119, "pitch": 65, "duration": 3, "velocity": 53}, {"time": 1122, "pitch": 36, "duration": 4, "velocity": 66}, {"time": 1122, "pitch": 63, "duration": 13, "velocity": 66}, {"time": 1125, "pitch": 44, "duration": 3, "velocity": 51}, {"time": 1128, "pitch": 48, "duration": 4, "velocity": 49}, {"time": 1131, "pitch": 51, "duration": 9, "velocity": 58}, {"time": 1134, "pitch": 56, "duration": 3, "velocity": 66}, {"time": 1137, "pitch": 60, "duration": 3, "velocity": 59}, {"time": 1140, "pitch": 61, "duration": 2, "velocity": 60}, {"time": 1143, "pitch": 63, "duration": 3, "velocity": 60}, {"time": 1146, "pitch": 46, "duration": 19, "velocity": 73}, {"time": 1146, "pitch": 61, "duration": 6, "velocity": 63}, {"time": 1149, "pitch": 53, "duration": 11, "velocity": 48}, {"time": 1152, "pitch": 58, "duration": 11, "velocity": 61}, {"time": 1155, "pitch": 60, "duration": 4, "velocity": 58}, {"time": 1158, "pitch": 61, "duration": 3, "velocity": 63}, {"time": 1161, "pitch": 63, "duration": 2, "velocity": 58}, {"time": 1164, "pitch": 53, "duration": 1, "velocity": 60}, {"time": 1164, "pitch": 65, "duration": 3, "velocity": 57}, {"time": 1167, "pitch": 68, "duration": 4, "velocity": 62}, {"time": 1170, "pitch": 39, "duration": 17, "velocity": 72}, {"time": 1170, "pitch": 67, "duration": 4, "velocity": 59}, {"time": 1173, "pitch": 46, "duration": 6, "velocity": 66}, {"time": 1176, "pitch": 51, "duration": 5, "velocity": 59}, {"time": 1179, "pitch": 56, "duration": 2, "velocity": 73}, {"time": 1182, "pitch": 46, "duration": 4, "velocity": 52}, {"time": 1185, "pitch": 53, "duration": 2, "velocity": 57}, {"time": 1185, "pitch": 56, "duration": 2, "velocity": 62}, {"time": 1185, "pitch": 61, "duration": 2, "velocity": 72}, {"time": 1188, "pitch": 43, "duration": 1, "velocity": 49}, {"time": 1191, "pitch": 63, "duration": 2, "velocity": 60}, {"time": 1194, "pitch": 36, "duration": 2, "velocity": 69}, {"time": 1194, "pitch": 55, "duration": 5, "velocity": 69}, {"time": 1194, "pitch": 60, "duration": 6, "velocity": 67}, {"time": 1197, "pitch": 48, "duration": 4, "velocity": 57}, {"time": 1200, "pitch": 53, "duration": 8, "velocity": 49}, {"time": 1203, "pitch": 55, "duration": 5, "velocity": 52}, {"time": 1209, "pitch": 60, "duration": 2, "velocity": 52}, {"time": 1212, "pitch": 65, "duration": 2, "velocity": 57}, {"time": 1215, "pitch": 60, "duration": 5, "velocity": 37}, {"time": 1215, "pitch": 64, "duration": 6, "velocity": 66}, {"time": 1218, "pitch": 36, "duration": 4, "velocity": 67}, {"time": 1221, "pitch": 48, "duration": 4, "velocity": 61}, {"time": 1224, "pitch": 60, "duration": 3, "velocity": 62}, {"time": 1227, "pitch": 70, "duration": 6, "velocity": 64}, {"time": 1233, "pitch": 52, "duration": 4, "velocity": 67}, {"time": 1236, "pitch": 60, "duration": 3, "velocity": 52}, {"time": 1242, "pitch": 53, "duration": 6, "velocity": 61}, {"time": 1242, "pitch": 56, "duration": 5, "velocity": 60}, {"time": 1242, "pitch": 60, "duration": 5, "velocity": 67}, {"time": 1242, "pitch": 65, "duration": 5, "velocity": 63}, {"time": 1254, "pitch": 51, "duration": 6, "velocity": 63}, {"time": 1254, "pitch": 58, "duration": 5, "velocity": 61}, {"time": 1254, "pitch": 63, "duration": 5, "velocity": 61}, {"time": 1254, "pitch": 67, "duration": 5, "velocity": 67}, {"time": 1266, "pitch": 50, "duration": 17, "velocity": 58}, {"time": 1266, "pitch": 56, "duration": 9, "velocity": 62}, {"time": 1266, "pitch": 62, "duration": 10, "velocity": 69}, {"time": 1266, "pitch": 65, "duration": 10, "velocity": 62}, {"time": 1266, "pitch": 68, "duration": 12, "velocity": 57}, {"time": 1278, "pitch": 56, "duration": 3, "velocity": 40}, {"time": 1281, "pitch": 65, "duration": 4, "velocity": 58}, {"time": 1284, "pitch": 67, "duration": 3, "velocity": 66}, {"time": 1287, "pitch": 68, "duration": 3, "velocity": 64}, {"time": 1287, "pitch": 68, "duration": 3, "velocity": 66}, {"time": 1290, "pitch": 49, "duration": 20, "velocity": 63}, {"time": 1290, "pitch": 65, "duration": 6, "velocity": 60}, {"time": 1290, "pitch": 72, "duration": 7, "velocity": 70}, {"time": 1293, "pitch": 56, "duration": 11, "velocity": 46}, {"time": 1296, "pitch": 61, "duration": 12, "velocity": 56}, {"time": 1299, "pitch": 65, "duration": 7, "velocity": 54}, {"time": 1305, "pitch": 68, "duration": 2, "velocity": 69}, {"time": 1308, "pitch": 56, "duration": 3, "velocity": 60}, {"time": 1314, "pitch": 48, "duration": 20, "velocity": 60}, {"time": 1314, "pitch": 55, "duration": 14, "velocity": 70}, {"time": 1314, "pitch": 58, "duration": 9, "velocity": 58}, {"time": 1314, "pitch": 63, "duration": 8, "velocity": 61}, {"time": 1314, "pitch": 67, "duration": 9, "velocity": 62}, {"time": 1326, "pitch": 60, "duration": 7, "velocity": 67}, {"time": 1326, "pitch": 63, "duration": 6, "velocity": 69}, {"time": 1326, "pitch": 67, "duration": 6, "velocity": 67}, {"time": 1332, "pitch": 55, "duration": 2, "velocity": 43}, {"time": 1338, "pitch": 46, "duration": 19, "velocity": 51}, {"time": 1338, "pitch": 53, "duration": 14, "velocity": 61}, {"time": 1338, "pitch": 58, "duration": 9, "velocity": 60}, {"time": 1338, "pitch": 61, "duration": 7, "velocity": 64}, {"time": 1338, "pitch": 65, "duration": 9, "velocity": 60}, {"time": 1338, "pitch": 68, "duration": 9, "velocity": 39}, {"time": 1350, "pitch": 58, "duration": 6, "velocity": 55}, {"time": 1350, "pitch": 61, "duration": 6, "velocity": 66}, {"time": 1350, "pitch": 65, "duration": 6, "velocity": 62}, {"time": 1350, "pitch": 68, "duration": 6, "velocity": 52}, {"time": 1356, "pitch": 53, "duration": 1, "velocity": 60}, {"time": 1362, "pitch": 39, "duration": 18, "velocity": 66}, {"time": 1362, "pitch": 56, "duration": 4, "velocity": 61}, {"time": 1362, "pitch": 61, "duration": 4, "velocity": 67}, {"time": 1362, "pitch": 65, "duration": 4, "velocity": 66}, {"time": 1365, "pitch": 46, "duration": 15, "velocity": 56}, {"time": 1368, "pitch": 51, "duration": 8, "velocity": 46}, {"time": 1371, "pitch": 56, "duration": 5, "velocity": 58}, {"time": 1374, "pitch": 61, "duration": 4, "velocity": 61}, {"time": 1377, "pitch": 65, "duration": 6, "velocity": 61}, {"time": 1380, "pitch": 51, "duration": 2, "velocity": 58}, {"time": 1383, "pitch": 68, "duration": 1, "velocity": 33}, {"time": 1386, "pitch": 44, "duration": 18, "velocity": 72}, {"time": 1386, "pitch": 60, "duration": 7, "velocity": 59}, {"time": 1386, "pitch": 63, "duration": 6, "velocity": 52}, {"time": 1386, "pitch": 68, "duration": 9, "velocity": 46}, {"time": 1392, "pitch": 51, "duration": 7, "velocity": 44}, {"time": 1395, "pitch": 56, "duration": 7, "velocity": 48}, {"time": 1398, "pitch": 60, "duration": 4, "velocity": 67}, {"time": 1401, "pitch": 51, "duration": 6, "velocity": 54}, {"time": 1404, "pitch": 60, "duration": 3, "velocity": 62}, {"time": 1407, "pitch": 68, "duration": 4, "velocity": 67}, {"time": 1410, "pitch": 43, "duration": 16, "velocity": 51}, {"time": 1410, "pitch": 67, "duration": 6, "velocity": 61}, {"time": 1413, "pitch": 51, "duration": 12, "velocity": 45}, {"time": 1416, "pitch": 55, "duration": 7, "velocity": 48}, {"time": 1419, "pitch": 58, "duration": 3, "velocity": 53}, {"time": 1422, "pitch": 63, "duration": 3, "velocity": 63}, {"time": 1425, "pitch": 65, "duration": 2, "velocity": 59}, {"time": 1428, "pitch": 67, "duration": 3, "velocity": 59}, {"time": 1431, "pitch": 70, "duration": 4, "velocity": 63}, {"time": 1434, "pitch": 41, "duration": 5, "velocity": 61}, {"time": 1434, "pitch": 68, "duration": 11, "velocity": 57}, {"time": 1437, "pitch": 48, "duration": 3, "velocity": 49}, {"time": 1440, "pitch": 53, "duration": 4, "velocity": 40}, {"time": 1443, "pitch": 55, "duration": 6, "velocity": 57}, {"time": 1446, "pitch": 56, "duration": 3, "velocity": 63}, {"time": 1449, "pitch": 60, "duration": 2, "velocity": 54}, {"time": 1452, "pitch": 65, "duration": 2, "velocity": 56}, {"time": 1455, "pitch": 68, "duration": 4, "velocity": 57}, {"time": 1458, "pitch": 39, "duration": 4, "velocity": 58}, {"time": 1458, "pitch": 67, "duration": 11, "velocity": 54}, {"time": 1461, "pitch": 48, "duration": 2, "velocity": 46}, {"time": 1464, "pitch": 51, "duration": 4, "velocity": 44}, {"time": 1467, "pitch": 53, "duration": 7, "velocity": 56}, {"time": 1470, "pitch": 56, "duration": 3, "velocity": 59}, {"time": 1473, "pitch": 60, "duration": 2, "velocity": 43}, {"time": 1476, "pitch": 63, "duration": 2, "velocity": 53}, {"time": 1479, "pitch": 68, "duration": 2, "velocity": 49}, {"time": 1482, "pitch": 37, "duration": 20, "velocity": 66}, {"time": 1482, "pitch": 56, "duration": 6, "velocity": 58}, {"time": 1482, "pitch": 61, "duration": 7, "velocity": 61}, {"time": 1482, "pitch": 65, "duration": 8, "velocity": 66}, {"time": 1488, "pitch": 49, "duration": 7, "velocity": 41}, {"time": 1494, "pitch": 56, "duration": 3, "velocity": 59}, {"time": 1494, "pitch": 61, "duration": 4, "velocity": 62}, {"time": 1494, "pitch": 65, "duration": 4, "velocity": 56}, {"time": 1497, "pitch": 49, "duration": 3, "velocity": 54}, {"time": 1500, "pitch": 56, "duration": 2, "velocity": 52}, {"time": 1503, "pitch": 65, "duration": 2, "velocity": 63}, {"time": 1506, "pitch": 36, "duration": 16, "velocity": 56}, {"time": 1506, "pitch": 48, "duration": 5, "velocity": 50}, {"time": 1506, "pitch": 56, "duration": 7, "velocity": 62}, {"time": 1506, "pitch": 63, "duration": 5, "velocity": 56}, {"time": 1515, "pitch": 48, "duration": 6, "velocity": 60}, {"time": 1521, "pitch": 56, "duration": 2, "velocity": 70}, {"time": 1524, "pitch": 58, "duration": 2, "velocity": 63}, {"time": 1527, "pitch": 35, "duration": 3, "velocity": 70}, {"time": 1527, "pitch": 60, "duration": 2, "velocity": 52}, {"time": 1530, "pitch": 34, "duration": 5, "velocity": 63}, {"time": 1530, "pitch": 53, "duration": 10, "velocity": 60}, {"time": 1530, "pitch": 56, "duration": 10, "velocity": 69}, {"time": 1530, "pitch": 61, "duration": 10, "velocity": 80}, {"time": 1533, "pitch": 41, "duration": 3, "velocity": 49}, {"time": 1536, "pitch": 46, "duration": 4, "velocity": 44}, {"time": 1539, "pitch": 48, "duration": 5, "velocity": 56}, {"time": 1542, "pitch": 49, "duration": 2, "velocity": 64}, {"time": 1545, "pitch": 53, "duration": 3, "velocity": 53}, {"time": 1548, "pitch": 56, "duration": 2, "velocity": 53}, {"time": 1551, "pitch": 58, "duration": 1, "velocity": 47}, {"time": 1554, "pitch": 39, "duration": 17, "velocity": 67}, {"time": 1554, "pitch": 55, "duration": 6, "velocity": 60}, {"time": 1554, "pitch": 58, "duration": 6, "velocity": 60}, {"time": 1554, "pitch": 63, "duration": 6, "velocity": 58}, {"time": 1557, "pitch": 46, "duration": 13, "velocity": 47}, {"time": 1560, "pitch": 51, "duration": 11, "velocity": 62}, {"time": 1563, "pitch": 55, "duration": 3, "velocity": 64}, {"time": 1566, "pitch": 56, "duration": 3, "velocity": 69}, {"time": 1569, "pitch": 58, "duration": 2, "velocity": 59}, {"time": 1572, "pitch": 60, "duration": 2, "velocity": 57}, {"time": 1575, "pitch": 65, "duration": 2, "velocity": 62}, {"time": 1578, "pitch": 48, "duration": 32, "velocity": 72}, {"time": 1578, "pitch": 58, "duration": 7, "velocity": 52}, {"time": 1578, "pitch": 60, "duration": 6, "velocity": 60}, {"time": 1578, "pitch": 64, "duration": 7, "velocity": 63}, {"time": 1578, "pitch": 67, "duration": 9, "velocity": 69}, {"time": 1584, "pitch": 55, "duration": 7, "velocity": 35}, {"time": 1590, "pitch": 58, "duration": 6, "velocity": 56}, {"time": 1590, "pitch": 64, "duration": 7, "velocity": 73}, {"time": 1590, "pitch": 67, "duration": 9, "velocity": 63}, {"time": 1596, "pitch": 55, "duration": 8, "velocity": 53}, {"time": 1602, "pitch": 58, "duration": 5, "velocity": 60}, {"time": 1602, "pitch": 64, "duration": 5, "velocity": 69}, {"time": 1602, "pitch": 67, "duration": 6, "velocity": 67}, {"time": 1608, "pitch": 55, "duration": 1, "velocity": 69}, {"time": 1611, "pitch": 58, "duration": 4, "velocity": 57}, {"time": 1614, "pitch": 64, "duration": 4, "velocity": 78}, {"time": 1617, "pitch": 65, "duration": 4, "velocity": 70}, {"time": 1620, "pitch": 67, "duration": 5, "velocity": 63}, {"time": 1623, "pitch": 70, "duration": 1, "velocity": 39}, {"time": 1626, "pitch": 41, "duration": 9, "velocity": 64}, {"time": 1626, "pitch": 60, "duration": 6, "velocity": 66}, {"time": 1626, "pitch": 68, "duration": 6, "velocity": 70}, {"time": 1629, "pitch": 48, "duration": 9, "velocity": 49}, {"time": 1632, "pitch": 53, "duration": 3, "velocity": 52}, {"time": 1635, "pitch": 60, "duration": 2, "velocity": 61}, {"time": 1638, "pitch": 39, "duration": 5, "velocity": 67}, {"time": 1638, "pitch": 60, "duration": 4, "velocity": 54}, {"time": 1638, "pitch": 68, "duration": 5, "velocity": 73}, {"time": 1641, "pitch": 48, "duration": 3, "velocity": 57}, {"time": 1644, "pitch": 67, "duration": 2, "velocity": 56}, {"time": 1647, "pitch": 68, "duration": 8, "velocity": 67}, {"time": 1650, "pitch": 50, "duration": 20, "velocity": 69}, {"time": 1650, "pitch": 56, "duration": 4, "velocity": 53}, {"time": 1650, "pitch": 62, "duration": 5, "velocity": 72}, {"time": 1650, "pitch": 65, "duration": 5, "velocity": 56}, {"time": 1656, "pitch": 56, "duration": 12, "velocity": 36}, {"time": 1662, "pitch": 60, "duration": 3, "velocity": 49}, {"time": 1668, "pitch": 60, "duration": 2, "velocity": 63}, {"time": 1674, "pitch": 49, "duration": 16, "velocity": 76}, {"time": 1674, "pitch": 56, "duration": 9, "velocity": 51}, {"time": 1674, "pitch": 61, "duration": 8, "velocity": 80}, {"time": 1674, "pitch": 65, "duration": 7, "velocity": 73}, {"time": 1686, "pitch": 56, "duration": 8, "velocity": 67}, {"time": 1686, "pitch": 61, "duration": 7, "velocity": 75}, {"time": 1686, "pitch": 65, "duration": 8, "velocity": 67}, {"time": 1692, "pitch": 49, "duration": 6, "velocity": 63}, {"time": 1698, "pitch": 48, "duration": 15, "velocity": 59}, {"time": 1698, "pitch": 60, "duration": 9, "velocity": 60}, {"time": 1698, "pitch": 63, "duration": 9, "velocity": 70}, {"time": 1698, "pitch": 68, "duration": 8, "velocity": 70}, {"time": 1710, "pitch": 60, "duration": 8, "velocity": 70}, {"time": 1710, "pitch": 63, "duration": 7, "velocity": 70}, {"time": 1710, "pitch": 68, "duration": 7, "velocity": 69}, {"time": 1716, "pitch": 48, "duration": 3, "velocity": 40}, {"time": 1719, "pitch": 47, "duration": 3, "velocity": 56}, {"time": 1722, "pitch": 46, "duration": 16, "velocity": 61}, {"time": 1722, "pitch": 58, "duration": 9, "velocity": 63}, {"time": 1722, "pitch": 61, "duration": 7, "velocity": 69}, {"time": 1722, "pitch": 65, "duration": 9, "velocity": 70}, {"time": 1728, "pitch": 68, "duration": 4, "velocity": 7}, {"time": 1734, "pitch": 58, "duration": 6, "velocity": 53}, {"time": 1734, "pitch": 61, "duration": 6, "velocity": 60}, {"time": 1734, "pitch": 65, "duration": 5, "velocity": 58}, {"time": 1734, "pitch": 68, "duration": 6, "velocity": 48}, {"time": 1740, "pitch": 46, "duration": 1, "velocity": 66}, {"time": 1746, "pitch": 39, "duration": 18, "velocity": 55}, {"time": 1746, "pitch": 51, "duration": 6, "velocity": 50}, {"time": 1746, "pitch": 56, "duration": 6, "velocity": 67}, {"time": 1746, "pitch": 61, "duration": 8, "velocity": 62}, {"time": 1746, "pitch": 65, "duration": 6, "velocity": 63}, {"time": 1755, "pitch": 51, "duration": 6, "velocity": 30}, {"time": 1758, "pitch": 58, "duration": 8, "velocity": 60}, {"time": 1758, "pitch": 63, "duration": 7, "velocity": 63}, {"time": 1758, "pitch": 67, "duration": 7, "velocity": 63}, {"time": 1764, "pitch": 51, "duration": 4, "velocity": 57}, {"time": 1770, "pitch": 44, "duration": 41, "velocity": 67}, {"time": 1770, "pitch": 61, "duration": 6, "velocity": 69}, {"time": 1770, "pitch": 68, "duration": 11, "velocity": 67}, {"time": 1779, "pitch": 51, "duration": 11, "velocity": 19}, {"time": 1779, "pitch": 61, "duration": 7, "velocity": 60}, {"time": 1779, "pitch": 65, "duration": 7, "velocity": 48}, {"time": 1785, "pitch": 56, "duration": 13, "velocity": 40}, {"time": 1788, "pitch": 61, "duration": 4, "velocity": 51}, {"time": 1791, "pitch": 63, "duration": 10, "velocity": 62}, {"time": 1794, "pitch": 51, "duration": 11, "velocity": 57}, {"time": 1794, "pitch": 60, "duration": 7, "velocity": 61}, {"time": 1803, "pitch": 56, "duration": 6, "velocity": 36}, {"time": 1806, "pitch": 58, "duration": 4, "velocity": 63}, {"time": 1806, "pitch": 63, "duration": 4, "velocity": 67}, {"time": 1809, "pitch": 51, "duration": 5, "velocity": 48}, {"time": 1812, "pitch": 61, "duration": 3, "velocity": 67}, {"time": 1815, "pitch": 63, "duration": 1, "velocity": 29}, {"time": 1962, "pitch": 47, "duration": 20, "velocity": 85}, {"time": 1968, "pitch": 54, "duration": 16, "velocity": 64}, {"time": 1974, "pitch": 59, "duration": 8, "velocity": 82}, {"time": 1986, "pitch": 46, "duration": 19, "velocity": 80}, {"time": 1992, "pitch": 54, "duration": 13, "velocity": 62}, {"time": 1998, "pitch": 58, "duration": 7, "velocity": 95}, {"time": 2004, "pitch": 61, "duration": 6, "velocity": 66}, {"time": 2010, "pitch": 44, "duration": 20, "velocity": 76}, {"time": 2010, "pitch": 59, "duration": 13, "velocity": 75}, {"time": 2016, "pitch": 51, "duration": 18, "velocity": 56}, {"time": 2022, "pitch": 56, "duration": 7, "velocity": 82}, {"time": 2028, "pitch": 59, "duration": 4, "velocity": 76}, {"time": 2031, "pitch": 61, "duration": 3, "velocity": 66}, {"time": 2034, "pitch": 42, "duration": 19, "velocity": 64}, {"time": 2034, "pitch": 63, "duration": 13, "velocity": 72}, {"time": 2040, "pitch": 51, "duration": 8, "velocity": 55}, {"time": 2046, "pitch": 54, "duration": 7, "velocity": 57}, {"time": 2046, "pitch": 59, "duration": 6, "velocity": 67}, {"time": 2052, "pitch": 51, "duration": 1, "velocity": 69}, {"time": 2058, "pitch": 40, "duration": 19, "velocity": 75}, {"time": 2058, "pitch": 56, "duration": 11, "velocity": 64}, {"time": 2058, "pitch": 59, "duration": 12, "velocity": 66}, {"time": 2058, "pitch": 63, "duration": 12, "velocity": 72}, {"time": 2064, "pitch": 47, "duration": 13, "velocity": 56}, {"time": 2070, "pitch": 52, "duration": 7, "velocity": 69}, {"time": 2082, "pitch": 40, "duration": 19, "velocity": 69}, {"time": 2082, "pitch": 55, "duration": 19, "velocity": 76}, {"time": 2082, "pitch": 61, "duration": 19, "velocity": 82}, {"time": 2088, "pitch": 47, "duration": 15, "velocity": 52}, {"time": 2094, "pitch": 52, "duration": 8, "velocity": 75}, {"time": 2100, "pitch": 59, "duration": 5, "velocity": 58}, {"time": 2106, "pitch": 42, "duration": 20, "velocity": 73}, {"time": 2106, "pitch": 54, "duration": 7, "velocity": 57}, {"time": 2106, "pitch": 61, "duration": 14, "velocity": 73}, {"time": 2112, "pitch": 49, "duration": 19, "velocity": 53}, {"time": 2118, "pitch": 54, "duration": 10, "velocity": 70}, {"time": 2124, "pitch": 58, "duration": 7, "velocity": 78}, {"time": 2130, "pitch": 42, "duration": 12, "velocity": 69}, {"time": 2130, "pitch": 61, "duration": 6, "velocity": 82}, {"time": 2136, "pitch": 49, "duration": 6, "velocity": 56}, {"time": 2136, "pitch": 59, "duration": 6, "velocity": 70}, {"time": 2142, "pitch": 54, "duration": 7, "velocity": 61}, {"time": 2142, "pitch": 64, "duration": 7, "velocity": 72}, {"time": 2148, "pitch": 56, "duration": 6, "velocity": 54}, {"time": 2148, "pitch": 63, "duration": 6, "velocity": 58}, {"time": 2154, "pitch": 47, "duration": 20, "velocity": 69}, {"time": 2154, "pitch": 66, "duration": 12, "velocity": 61}, {"time": 2160, "pitch": 54, "duration": 7, "velocity": 51}, {"time": 2166, "pitch": 59, "duration": 7, "velocity": 52}, {"time": 2166, "pitch": 63, "duration": 8, "velocity": 70}, {"time": 2172, "pitch": 54, "duration": 6, "velocity": 59}, {"time": 2178, "pitch": 46, "duration": 18, "velocity": 63}, {"time": 2178, "pitch": 61, "duration": 13, "velocity": 72}, {"time": 2184, "pitch": 54, "duration": 6, "velocity": 59}, {"time": 2190, "pitch": 58, "duration": 5, "velocity": 54}, {"time": 2190, "pitch": 66, "duration": 6, "velocity": 66}, {"time": 2196, "pitch": 70, "duration": 6, "velocity": 66}, {"time": 2202, "pitch": 44, "duration": 21, "velocity": 73}, {"time": 2202, "pitch": 63, "duration": 19, "velocity": 62}, {"time": 2202, "pitch": 66, "duration": 18, "velocity": 70}, {"time": 2202, "pitch": 71, "duration": 25, "velocity": 70}, {"time": 2208, "pitch": 51, "duration": 7, "velocity": 53}, {"time": 2214, "pitch": 56, "duration": 7, "velocity": 60}, {"time": 2220, "pitch": 51, "duration": 7, "velocity": 55}, {"time": 2226, "pitch": 42, "duration": 19, "velocity": 67}, {"time": 2226, "pitch": 61, "duration": 8, "velocity": 75}, {"time": 2226, "pitch": 70, "duration": 9, "velocity": 70}, {"time": 2232, "pitch": 51, "duration": 7, "velocity": 52}, {"time": 2238, "pitch": 54, "duration": 7, "velocity": 59}, {"time": 2238, "pitch": 59, "duration": 7, "velocity": 80}, {"time": 2238, "pitch": 66, "duration": 11, "velocity": 69}, {"time": 2244, "pitch": 51, "duration": 2, "velocity": 62}, {"time": 2250, "pitch": 40, "duration": 19, "velocity": 70}, {"time": 2250, "pitch": 59, "duration": 8, "velocity": 69}, {"time": 2250, "pitch": 64, "duration": 11, "velocity": 75}, {"time": 2250, "pitch": 68, "duration": 13, "velocity": 76}, {"time": 2256, "pitch": 47, "duration": 7, "velocity": 49}, {"time": 2262, "pitch": 52, "duration": 7, "velocity": 55}, {"time": 2268, "pitch": 47, "duration": 6, "velocity": 64}, {"time": 2268, "pitch": 66, "duration": 5, "velocity": 76}, {"time": 2274, "pitch": 40, "duration": 18, "velocity": 69}, {"time": 2274, "pitch": 59, "duration": 9, "velocity": 76}, {"time": 2274, "pitch": 64, "duration": 8, "velocity": 78}, {"time": 2274, "pitch": 67, "duration": 15, "velocity": 82}, {"time": 2280, "pitch": 47, "duration": 18, "velocity": 59}, {"time": 2286, "pitch": 52, "duration": 7, "velocity": 50}, {"time": 2292, "pitch": 64, "duration": 6, "velocity": 80}, {"time": 2298, "pitch": 42, "duration": 18, "velocity": 66}, {"time": 2298, "pitch": 61, "duration": 7, "velocity": 62}, {"time": 2298, "pitch": 66, "duration": 6, "velocity": 91}, {"time": 2304, "pitch": 49, "duration": 7, "velocity": 58}, {"time": 2310, "pitch": 54, "duration": 6, "velocity": 49}, {"time": 2310, "pitch": 59, "duration": 7, "velocity": 80}, {"time": 2310, "pitch": 64, "duration": 5, "velocity": 70}, {"time": 2316, "pitch": 49, "duration": 6, "velocity": 55}, {"time": 2322, "pitch": 42, "duration": 10, "velocity": 67}, {"time": 2322, "pitch": 58, "duration": 5, "velocity": 73}, {"time": 2322, "pitch": 61, "duration": 5, "velocity": 72}, {"time": 2328, "pitch": 49, "duration": 6, "velocity": 63}, {"time": 2328, "pitch": 59, "duration": 4, "velocity": 69}, {"time": 2328, "pitch": 63, "duration": 5, "velocity": 70}, {"time": 2334, "pitch": 54, "duration": 6, "velocity": 55}, {"time": 2334, "pitch": 59, "duration": 3, "velocity": 72}, {"time": 2334, "pitch": 64, "duration": 4, "velocity": 63}, {"time": 2340, "pitch": 56, "duration": 2, "velocity": 67}, {"time": 2340, "pitch": 66, "duration": 3, "velocity": 93}, {"time": 2346, "pitch": 41, "duration": 42, "velocity": 69}, {"time": 2346, "pitch": 56, "duration": 9, "velocity": 67}, {"time": 2346, "pitch": 59, "duration": 7, "velocity": 73}, {"time": 2346, "pitch": 63, "duration": 7, "velocity": 69}, {"time": 2352, "pitch": 53, "duration": 21, "velocity": 44}, {"time": 2358, "pitch": 56, "duration": 7, "velocity": 75}, {"time": 2364, "pitch": 63, "duration": 9, "velocity": 62}, {"time": 2376, "pitch": 53, "duration": 11, "velocity": 35}, {"time": 2379, "pitch": 65, "duration": 2, "velocity": 56}, {"time": 2382, "pitch": 68, "duration": 4, "velocity": 67}, {"time": 2385, "pitch": 70, "duration": 2, "velocity": 54}, {"time": 2388, "pitch": 72, "duration": 3, "velocity": 50}, {"time": 2391, "pitch": 75, "duration": 2, "velocity": 46}, {"time": 2394, "pitch": 39, "duration": 40, "velocity": 60}, {"time": 2394, "pitch": 63, "duration": 5, "velocity": 55}, {"time": 2394, "pitch": 68, "duration": 4, "velocity": 52}, {"time": 2394, "pitch": 72, "duration": 5, "velocity": 69}, {"time": 2400, "pitch": 48, "duration": 6, "velocity": 42}, {"time": 2406, "pitch": 51, "duration": 7, "velocity": 52}, {"time": 2406, "pitch": 56, "duration": 2, "velocity": 69}, {"time": 2406, "pitch": 60, "duration": 3, "velocity": 69}, {"time": 2412, "pitch": 48, "duration": 20, "velocity": 44}, {"time": 2418, "pitch": 51, "duration": 4, "velocity": 39}, {"time": 2418, "pitch": 58, "duration": 4, "velocity": 57}, {"time": 2418, "pitch": 63, "duration": 4, "velocity": 47}, {"time": 2418, "pitch": 67, "duration": 5, "velocity": 53}, {"time": 2427, "pitch": 60, "duration": 3, "velocity": 66}, {"time": 2427, "pitch": 68, "duration": 3, "velocity": 73}, {"time": 2430, "pitch": 51, "duration": 5, "velocity": 42}, {"time": 2436, "pitch": 60, "duration": 1, "velocity": 66}, {"time": 2436, "pitch": 67, "duration": 1, "velocity": 64}, {"time": 2442, "pitch": 49, "duration": 41, "velocity": 62}, {"time": 2442, "pitch": 56, "duration": 5, "velocity": 62}, {"time": 2442, "pitch": 61, "duration": 6, "velocity": 60}, {"time": 2442, "pitch": 65, "duration": 6, "velocity": 61}, {"time": 2448, "pitch": 53, "duration": 5, "velocity": 42}, {"time": 2451, "pitch": 56, "duration": 4, "velocity": 46}, {"time": 2451, "pitch": 63, "duration": 4, "velocity": 49}, {"time": 2454, "pitch": 53, "duration": 7, "velocity": 45}, {"time": 2457, "pitch": 56, "duration": 4, "velocity": 43}, {"time": 2460, "pitch": 61, "duration": 3, "velocity": 72}, {"time": 2463, "pitch": 63, "duration": 6, "velocity": 63}, {"time": 2469, "pitch": 53, "duration": 7, "velocity": 50}, {"time": 2472, "pitch": 56, "duration": 7, "velocity": 51}, {"time": 2475, "pitch": 65, "duration": 4, "velocity": 66}, {"time": 2478, "pitch": 53, "duration": 4, "velocity": 58}, {"time": 2481, "pitch": 56, "duration": 2, "velocity": 55}, {"time": 2484, "pitch": 61, "duration": 3, "velocity": 64}, {"time": 2487, "pitch": 65, "duration": 8, "velocity": 66}, {"time": 2490, "pitch": 39, "duration": 5, "velocity": 73}, {"time": 2490, "pitch": 56, "duration": 8, "velocity": 55}, {"time": 2490, "pitch": 61, "duration": 8, "velocity": 51}, {"time": 2490, "pitch": 68, "duration": 14, "velocity": 61}, {"time": 2493, "pitch": 46, "duration": 3, "velocity": 54}, {"time": 2496, "pitch": 51, "duration": 4, "velocity": 44}, {"time": 2499, "pitch": 53, "duration": 7, "velocity": 60}, {"time": 2502, "pitch": 56, "duration": 2, "velocity": 78}, {"time": 2505, "pitch": 56, "duration": 3, "velocity": 46}, {"time": 2508, "pitch": 61, "duration": 2, "velocity": 57}, {"time": 2511, "pitch": 56, "duration": 9, "velocity": 59}, {"time": 2511, "pitch": 61, "duration": 9, "velocity": 56}, {"time": 2514, "pitch": 39, "duration": 18, "velocity": 70}, {"time": 2517, "pitch": 46, "duration": 15, "velocity": 48}, {"time": 2520, "pitch": 51, "duration": 4, "velocity": 49}, {"time": 2523, "pitch": 56, "duration": 2, "velocity": 61}, {"time": 2523, "pitch": 61, "duration": 1, "velocity": 59}, {"time": 2523, "pitch": 65, "duration": 2, "velocity": 69}, {"time": 2526, "pitch": 51, "duration": 3, "velocity": 44}, {"time": 2529, "pitch": 58, "duration": 2, "velocity": 63}, {"time": 2529, "pitch": 63, "duration": 2, "velocity": 60}, {"time": 2529, "pitch": 67, "duration": 2, "velocity": 67}, {"time": 2532, "pitch": 51, "duration": 1, "velocity": 44}, {"time": 2538, "pitch": 53, "duration": 21, "velocity": 54}, {"time": 2538, "pitch": 60, "duration": 3, "velocity": 59}, {"time": 2538, "pitch": 65, "duration": 4, "velocity": 64}, {"time": 2538, "pitch": 68, "duration": 4, "velocity": 66}, {"time": 2541, "pitch": 56, "duration": 7, "velocity": 60}, {"time": 2544, "pitch": 60, "duration": 2, "velocity": 53}, {"time": 2547, "pitch": 60, "duration": 2, "velocity": 40}, {"time": 2547, "pitch": 67, "duration": 5, "velocity": 61}, {"time": 2553, "pitch": 56, "duration": 7, "velocity": 57}, {"time": 2556, "pitch": 60, "duration": 5, "velocity": 58}, {"time": 2559, "pitch": 68, "duration": 4, "velocity": 67}, {"time": 2565, "pitch": 53, "duration": 17, "velocity": 52}, {"time": 2568, "pitch": 56, "duration": 3, "velocity": 53}, {"time": 2571, "pitch": 75, "duration": 2, "velocity": 66}, {"time": 2577, "pitch": 67, "duration": 1, "velocity": 44}, {"time": 2580, "pitch": 56, "duration": 2, "velocity": 64}, {"time": 2583, "pitch": 68, "duration": 6, "velocity": 64}, {"time": 2586, "pitch": 51, "duration": 17, "velocity": 72}, {"time": 2589, "pitch": 60, "duration": 6, "velocity": 62}, {"time": 2592, "pitch": 63, "duration": 3, "velocity": 58}, {"time": 2595, "pitch": 67, "duration": 1, "velocity": 69}, {"time": 2601, "pitch": 60, "duration": 1, "velocity": 37}, {"time": 2604, "pitch": 63, "duration": 1, "velocity": 46}, {"time": 2607, "pitch": 63, "duration": 11, "velocity": 44}, {"time": 2607, "pitch": 70, "duration": 16, "velocity": 63}, {"time": 2610, "pitch": 39, "duration": 5, "velocity": 58}, {"time": 2613, "pitch": 46, "duration": 3, "velocity": 50}, {"time": 2616, "pitch": 51, "duration": 4, "velocity": 58}, {"time": 2619, "pitch": 53, "duration": 4, "velocity": 52}, {"time": 2622, "pitch": 55, "duration": 2, "velocity": 62}, {"time": 2625, "pitch": 58, "duration": 2, "velocity": 53}, {"time": 2628, "pitch": 63, "duration": 2, "velocity": 57}, {"time": 2631, "pitch": 70, "duration": 9, "velocity": 63}, {"time": 2634, "pitch": 49, "duration": 17, "velocity": 52}, {"time": 2637, "pitch": 56, "duration": 6, "velocity": 46}, {"time": 2640, "pitch": 61, "duration": 7, "velocity": 60}, {"time": 2643, "pitch": 68, "duration": 3, "velocity": 64}, {"time": 2649, "pitch": 56, "duration": 3, "velocity": 46}, {"time": 2652, "pitch": 67, "duration": 3, "velocity": 61}, {"time": 2655, "pitch": 65, "duration": 7, "velocity": 60}, {"time": 2658, "pitch": 49, "duration": 18, "velocity": 66}, {"time": 2661, "pitch": 56, "duration": 6, "velocity": 60}, {"time": 2664, "pitch": 61, "duration": 4, "velocity": 46}, {"time": 2667, "pitch": 63, "duration": 3, "velocity": 66}, {"time": 2673, "pitch": 56, "duration": 2, "velocity": 47}, {"time": 2676, "pitch": 65, "duration": 2, "velocity": 57}, {"time": 2682, "pitch": 39, "duration": 22, "velocity": 69}, {"time": 2682, "pitch": 53, "duration": 4, "velocity": 52}, {"time": 2682, "pitch": 56, "duration": 4, "velocity": 61}, {"time": 2682, "pitch": 61, "duration": 4, "velocity": 60}, {"time": 2685, "pitch": 51, "duration": 22, "velocity": 56}, {"time": 2688, "pitch": 53, "duration": 2, "velocity": 50}, {"time": 2691, "pitch": 56, "duration": 4, "velocity": 69}, {"time": 2694, "pitch": 58, "duration": 1, "velocity": 69}, {"time": 2697, "pitch": 63, "duration": 4, "velocity": 59}, {"time": 2700, "pitch": 68, "duration": 3, "velocity": 66}, {"time": 2703, "pitch": 70, "duration": 4, "velocity": 55}, {"time": 2706, "pitch": 39, "duration": 2, "velocity": 73}, {"time": 2706, "pitch": 75, "duration": 2, "velocity": 75}, {"time": 2718, "pitch": 39, "duration": 5, "velocity": 67}, {"time": 2718, "pitch": 51, "duration": 6, "velocity": 49}, {"time": 2718, "pitch": 53, "duration": 6, "velocity": 56}, {"time": 2718, "pitch": 56, "duration": 6, "velocity": 70}, {"time": 2718, "pitch": 61, "duration": 6, "velocity": 69}, {"time": 2730, "pitch": 44, "duration": 19, "velocity": 70}, {"time": 2730, "pitch": 60, "duration": 6, "velocity": 63}, {"time": 2730, "pitch": 68, "duration": 8, "velocity": 72}, {"time": 2733, "pitch": 51, "duration": 9, "velocity": 50}, {"time": 2736, "pitch": 56, "duration": 11, "velocity": 53}, {"time": 2739, "pitch": 58, "duration": 3, "velocity": 59}, {"time": 2739, "pitch": 67, "duration": 5, "velocity": 64}, {"time": 2745, "pitch": 63, "duration": 2, "velocity": 57}, {"time": 2748, "pitch": 51, "duration": 6, "velocity": 44}, {"time": 2751, "pitch": 58, "duration": 9, "velocity": 39}, {"time": 2754, "pitch": 43, "duration": 18, "velocity": 63}, {"time": 2754, "pitch": 70, "duration": 7, "velocity": 67}, {"time": 2757, "pitch": 51, "duration": 8, "velocity": 55}, {"time": 2760, "pitch": 55, "duration": 10, "velocity": 50}, {"time": 2763, "pitch": 58, "duration": 5, "velocity": 58}, {"time": 2763, "pitch": 67, "duration": 7, "velocity": 63}, {"time": 2769, "pitch": 51, "duration": 3, "velocity": 59}, {"time": 2772, "pitch": 65, "duration": 2, "velocity": 62}, {"time": 2775, "pitch": 67, "duration": 3, "velocity": 63}, {"time": 2778, "pitch": 41, "duration": 5, "velocity": 61}, {"time": 2778, "pitch": 60, "duration": 11, "velocity": 60}, {"time": 2778, "pitch": 68, "duration": 12, "velocity": 59}, {"time": 2781, "pitch": 48, "duration": 2, "velocity": 40}, {"time": 2784, "pitch": 53, "duration": 4, "velocity": 39}, {"time": 2787, "pitch": 55, "duration": 5, "velocity": 58}, {"time": 2790, "pitch": 56, "duration": 3, "velocity": 61}, {"time": 2793, "pitch": 60, "duration": 4, "velocity": 46}, {"time": 2796, "pitch": 67, "duration": 3, "velocity": 56}, {"time": 2799, "pitch": 68, "duration": 4, "velocity": 56}, {"time": 2802, "pitch": 39, "duration": 19, "velocity": 72}, {"time": 2802, "pitch": 58, "duration": 6, "velocity": 58}, {"time": 2802, "pitch": 67, "duration": 5, "velocity": 67}, {"time": 2805, "pitch": 46, "duration": 16, "velocity": 55}, {"time": 2808, "pitch": 51, "duration": 12, "velocity": 56}, {"time": 2811, "pitch": 55, "duration": 3, "velocity": 61}, {"time": 2814, "pitch": 56, "duration": 2, "velocity": 59}, {"time": 2817, "pitch": 60, "duration": 4, "velocity": 66}, {"time": 2820, "pitch": 63, "duration": 3, "velocity": 46}, {"time": 2823, "pitch": 68, "duration": 3, "velocity": 48}, {"time": 2826, "pitch": 37, "duration": 5, "velocity": 63}, {"time": 2826, "pitch": 67, "duration": 9, "velocity": 66}, {"time": 2829, "pitch": 44, "duration": 2, "velocity": 50}, {"time": 2832, "pitch": 49, "duration": 4, "velocity": 43}, {"time": 2835, "pitch": 51, "duration": 5, "velocity": 55}, {"time": 2835, "pitch": 65, "duration": 2, "velocity": 63}, {"time": 2838, "pitch": 53, "duration": 2, "velocity": 60}, {"time": 2841, "pitch": 56, "duration": 2, "velocity": 54}, {"time": 2844, "pitch": 61, "duration": 3, "velocity": 55}, {"time": 2847, "pitch": 65, "duration": 3, "velocity": 53}, {"time": 2850, "pitch": 36, "duration": 4, "velocity": 66}, {"time": 2850, "pitch": 63, "duration": 13, "velocity": 66}, {"time": 2853, "pitch": 44, "duration": 3, "velocity": 51}, {"time": 2856, "pitch": 48, "duration": 4, "velocity": 49}, {"time": 2859, "pitch": 51, "duration": 9, "velocity": 58}, {"time": 2862, "pitch": 56, "duration": 3, "velocity": 66}, {"time": 2865, "pitch": 60, "duration": 3, "velocity": 59}, {"time": 2868, "pitch": 61, "duration": 2, "velocity": 60}, {"time": 2871, "pitch": 63, "duration": 3, "velocity": 60}, {"time": 2874, "pitch": 46, "duration": 19, "velocity": 73}, {"time": 2874, "pitch": 61, "duration": 6, "velocity": 63}, {"time": 2877, "pitch": 53, "duration": 11, "velocity": 48}, {"time": 2880, "pitch": 58, "duration": 11, "velocity": 61}, {"time": 2883, "pitch": 60, "duration": 4, "velocity": 58}, {"time": 2886, "pitch": 61, "duration": 3, "velocity": 63}, {"time": 2889, "pitch": 63, "duration": 2, "velocity": 58}, {"time": 2892, "pitch": 53, "duration": 1, "velocity": 60}, {"time": 2892, "pitch": 65, "duration": 3, "velocity": 57}, {"time": 2895, "pitch": 68, "duration": 4, "velocity": 62}, {"time": 2898, "pitch": 39, "duration": 17, "velocity": 72}, {"time": 2898, "pitch": 67, "duration": 4, "velocity": 59}, {"time": 2901, "pitch": 46, "duration": 6, "velocity": 66}, {"time": 2904, "pitch": 51, "duration": 5, "velocity": 59}, {"time": 2907, "pitch": 56, "duration": 2, "velocity": 73}, {"time": 2910, "pitch": 46, "duration": 4, "velocity": 52}, {"time": 2913, "pitch": 53, "duration": 2, "velocity": 57}, {"time": 2913, "pitch": 56, "duration": 2, "velocity": 62}, {"time": 2913, "pitch": 61, "duration": 2, "velocity": 72}, {"time": 2916, "pitch": 43, "duration": 1, "velocity": 49}, {"time": 2919, "pitch": 63, "duration": 2, "velocity": 60}, {"time": 2922, "pitch": 36, "duration": 2, "velocity": 69}, {"time": 2922, "pitch": 55, "duration": 5, "velocity": 69}, {"time": 2922, "pitch": 60, "duration": 6, "velocity": 67}, {"time": 2925, "pitch": 48, "duration": 4, "velocity": 57}, {"time": 2928, "pitch": 53, "duration": 8, "velocity": 49}, {"time": 2931, "pitch": 55, "duration": 5, "velocity": 52}, {"time": 2937, "pitch": 60, "duration": 2, "velocity": 52}, {"time": 2940, "pitch": 65, "duration": 2, "velocity": 57}, {"time": 2943, "pitch": 60, "duration": 5, "velocity": 37}, {"time": 2943, "pitch": 64, "duration": 6, "velocity": 66}, {"time": 2946, "pitch": 36, "duration": 4, "velocity": 67}, {"time": 2949, "pitch": 48, "duration": 4, "velocity": 61}, {"time": 2952, "pitch": 60, "duration": 3, "velocity": 62}, {"time": 2955, "pitch": 70, "duration": 6, "velocity": 64}, {"time": 2961, "pitch": 52, "duration": 4, "velocity": 67}, {"time": 2964, "pitch": 60, "duration": 3, "velocity": 52}, {"time": 2970, "pitch": 53, "duration": 6, "velocity": 61}, {"time": 2970, "pitch": 56, "duration": 5, "velocity": 60}, {"time": 2970, "pitch": 60, "duration": 5, "velocity": 67}, {"time": 2970, "pitch": 65, "duration": 5, "velocity": 63}, {"time": 2982, "pitch": 51, "duration": 6, "velocity": 63}, {"time": 2982, "pitch": 58, "duration": 5, "velocity": 61}, {"time": 2982, "pitch": 63, "duration": 5, "velocity": 61}, {"time": 2982, "pitch": 67, "duration": 5, "velocity": 67}, {"time": 2994, "pitch": 50, "duration": 17, "velocity": 58}, {"time": 2994, "pitch": 56, "duration": 9, "velocity": 62}, {"time": 2994, "pitch": 62, "duration": 10, "velocity": 69}, {"time": 2994, "pitch": 65, "duration": 10, "velocity": 62}, {"time": 2994, "pitch": 68, "duration": 12, "velocity": 57}, {"time": 3006, "pitch": 56, "duration": 3, "velocity": 40}, {"time": 3009, "pitch": 65, "duration": 4, "velocity": 58}, {"time": 3012, "pitch": 67, "duration": 3, "velocity": 66}, {"time": 3015, "pitch": 68, "duration": 3, "velocity": 64}, {"time": 3015, "pitch": 68, "duration": 3, "velocity": 66}, {"time": 3018, "pitch": 49, "duration": 20, "velocity": 63}, {"time": 3018, "pitch": 65, "duration": 6, "velocity": 60}, {"time": 3018, "pitch": 72, "duration": 7, "velocity": 70}, {"time": 3021, "pitch": 56, "duration": 11, "velocity": 46}, {"time": 3024, "pitch": 61, "duration": 12, "velocity": 56}, {"time": 3027, "pitch": 65, "duration": 7, "velocity": 54}, {"time": 3033, "pitch": 68, "duration": 2, "velocity": 69}, {"time": 3036, "pitch": 56, "duration": 3, "velocity": 60}, {"time": 3042, "pitch": 48, "duration": 20, "velocity": 60}, {"time": 3042, "pitch": 55, "duration": 14, "velocity": 70}, {"time": 3042, "pitch": 58, "duration": 9, "velocity": 58}, {"time": 3042, "pitch": 63, "duration": 8, "velocity": 61}, {"time": 3042, "pitch": 67, "duration": 9, "velocity": 62}, {"time": 3054, "pitch": 60, "duration": 7, "velocity": 67}, {"time": 3054, "pitch": 63, "duration": 6, "velocity": 69}, {"time": 3054, "pitch": 67, "duration": 6, "velocity": 67}, {"time": 3060, "pitch": 55, "duration": 2, "velocity": 43}, {"time": 3066, "pitch": 46, "duration": 19, "velocity": 51}, {"time": 3066, "pitch": 53, "duration": 14, "velocity": 61}, {"time": 3066, "pitch": 58, "duration": 9, "velocity": 60}, {"time": 3066, "pitch": 61, "duration": 7, "velocity": 64}, {"time": 3066, "pitch": 65, "duration": 9, "velocity": 60}, {"time": 3066, "pitch": 68, "duration": 9, "velocity": 39}, {"time": 3078, "pitch": 58, "duration": 6, "velocity": 55}, {"time": 3078, "pitch": 61, "duration": 6, "velocity": 66}, {"time": 3078, "pitch": 65, "duration": 6, "velocity": 62}, {"time": 3078, "pitch": 68, "duration": 6, "velocity": 52}, {"time": 3084, "pitch": 53, "duration": 1, "velocity": 60}, {"time": 3090, "pitch": 39, "duration": 5, "velocity": 64}, {"time": 3090, "pitch": 51, "duration": 5, "velocity": 61}, {"time": 3090, "pitch": 55, "duration": 5, "velocity": 70}, {"time": 3090, "pitch": 58, "duration": 5, "velocity": 70}, {"time": 3090, "pitch": 63, "duration": 5, "velocity": 72}, {"time": 3114, "pitch": 45, "duration": 18, "velocity": 72}, {"time": 3114, "pitch": 61, "duration": 7, "velocity": 59}, {"time": 3114, "pitch": 64, "duration": 6, "velocity": 52}, {"time": 3114, "pitch": 69, "duration": 9, "velocity": 46}, {"time": 3120, "pitch": 52, "duration": 7, "velocity": 44}, {"time": 3123, "pitch": 57, "duration": 7, "velocity": 48}, {"time": 3126, "pitch": 61, "duration": 4, "velocity": 67}, {"time": 3129, "pitch": 52, "duration": 6, "velocity": 54}, {"time": 3132, "pitch": 61, "duration": 3, "velocity": 62}, {"time": 3135, "pitch": 69, "duration": 4, "velocity": 67}, {"time": 3138, "pitch": 44, "duration": 16, "velocity": 51}, {"time": 3138, "pitch": 68, "duration": 6, "velocity": 61}, {"time": 3141, "pitch": 52, "duration": 12, "velocity": 45}, {"time": 3144, "pitch": 56, "duration": 7, "velocity": 48}, {"time": 3147, "pitch": 59, "duration": 3, "velocity": 53}, {"time": 3150, "pitch": 64, "duration": 3, "velocity": 63}, {"time": 3153, "pitch": 66, "duration": 2, "velocity": 59}, {"time": 3156, "pitch": 68, "duration": 3, "velocity": 59}, {"time": 3159, "pitch": 71, "duration": 4, "velocity": 63}, {"time": 3162, "pitch": 42, "duration": 5, "velocity": 61}, {"time": 3162, "pitch": 69, "duration": 11, "velocity": 57}, {"time": 3165, "pitch": 49, "duration": 3, "velocity": 49}, {"time": 3168, "pitch": 54, "duration": 4, "velocity": 40}, {"time": 3171, "pitch": 56, "duration": 6, "velocity": 57}, {"time": 3174, "pitch": 57, "duration": 3, "velocity": 63}, {"time": 3177, "pitch": 61, "duration": 2, "velocity": 54}, {"time": 3180, "pitch": 66, "duration": 2, "velocity": 56}, {"time": 3183, "pitch": 69, "duration": 4, "velocity": 57}, {"time": 3186, "pitch": 40, "duration": 4, "velocity": 58}, {"time": 3186, "pitch": 68, "duration": 11, "velocity": 54}, {"time": 3189, "pitch": 49, "duration": 2, "velocity": 46}, {"time": 3192, "pitch": 52, "duration": 4, "velocity": 44}, {"time": 3195, "pitch": 54, "duration": 7, "velocity": 56}, {"time": 3198, "pitch": 57, "duration": 3, "velocity": 59}, {"time": 3201, "pitch": 61, "duration": 2, "velocity": 43}, {"time": 3204, "pitch": 64, "duration": 2, "velocity": 53}, {"time": 3207, "pitch": 69, "duration": 2, "velocity": 49}, {"time": 3210, "pitch": 38, "duration": 20, "velocity": 66}, {"time": 3210, "pitch": 57, "duration": 6, "velocity": 58}, {"time": 3210, "pitch": 62, "duration": 7, "velocity": 61}, {"time": 3210, "pitch": 66, "duration": 8, "velocity": 66}, {"time": 3216, "pitch": 50, "duration": 7, "velocity": 41}, {"time": 3222, "pitch": 57, "duration": 3, "velocity": 59}, {"time": 3222, "pitch": 62, "duration": 4, "velocity": 62}, {"time": 3222, "pitch": 66, "duration": 4, "velocity": 56}, {"time": 3225, "pitch": 50, "duration": 3, "velocity": 54}, {"time": 3228, "pitch": 57, "duration": 2, "velocity": 52}, {"time": 3231, "pitch": 66, "duration": 2, "velocity": 63}, {"time": 3234, "pitch": 37, "duration": 16, "velocity": 56}, {"time": 3234, "pitch": 49, "duration": 5, "velocity": 50}, {"time": 3234, "pitch": 57, "duration": 7, "velocity": 62}, {"time": 3234, "pitch": 64, "duration": 5, "velocity": 56}, {"time": 3243, "pitch": 49, "duration": 6, "velocity": 60}, {"time": 3249, "pitch": 57, "duration": 2, "velocity": 70}, {"time": 3252, "pitch": 59, "duration": 2, "velocity": 63}, {"time": 3255, "pitch": 36, "duration": 3, "velocity": 70}, {"time": 3255, "pitch": 61, "duration": 2, "velocity": 52}, {"time": 3258, "pitch": 35, "duration": 5, "velocity": 63}, {"time": 3258, "pitch": 54, "duration": 10, "velocity": 60}, {"time": 3258, "pitch": 57, "duration": 10, "velocity": 69}, {"time": 3258, "pitch": 62, "duration": 10, "velocity": 80}, {"time": 3261, "pitch": 42, "duration": 3, "velocity": 49}, {"time": 3264, "pitch": 47, "duration": 4, "velocity": 44}, {"time": 3267, "pitch": 49, "duration": 5, "velocity": 56}, {"time": 3270, "pitch": 50, "duration": 2, "velocity": 64}, {"time": 3273, "pitch": 54, "duration": 3, "velocity": 53}, {"time": 3276, "pitch": 57, "duration": 2, "velocity": 53}, {"time": 3279, "pitch": 59, "duration": 1, "velocity": 47}, {"time": 3282, "pitch": 40, "duration": 17, "velocity": 67}, {"time": 3282, "pitch": 56, "duration": 6, "velocity": 60}, {"time": 3282, "pitch": 59, "duration": 6, "velocity": 60}, {"time": 3282, "pitch": 64, "duration": 6, "velocity": 58}, {"time": 3285, "pitch": 47, "duration": 13, "velocity": 47}, {"time": 3288, "pitch": 52, "duration": 11, "velocity": 62}, {"time": 3291, "pitch": 56, "duration": 3, "velocity": 64}, {"time": 3294, "pitch": 57, "duration": 3, "velocity": 69}, {"time": 3297, "pitch": 59, "duration": 2, "velocity": 59}, {"time": 3300, "pitch": 61, "duration": 2, "velocity": 57}, {"time": 3303, "pitch": 66, "duration": 2, "velocity": 62}, {"time": 3306, "pitch": 49, "duration": 32, "velocity": 72}, {"time": 3306, "pitch": 59, "duration": 7, "velocity": 52}, {"time": 3306, "pitch": 61, "duration": 6, "velocity": 60}, {"time": 3306, "pitch": 65, "duration": 7, "velocity": 63}, {"time": 3306, "pitch": 68, "duration": 9, "velocity": 69}, {"time": 3312, "pitch": 56, "duration": 7, "velocity": 35}, {"time": 3318, "pitch": 59, "duration": 6, "velocity": 56}, {"time": 3318, "pitch": 65, "duration": 7, "velocity": 73}, {"time": 3318, "pitch": 68, "duration": 9, "velocity": 63}, {"time": 3324, "pitch": 56, "duration": 8, "velocity": 53}, {"time": 3330, "pitch": 59, "duration": 5, "velocity": 60}, {"time": 3330, "pitch": 65, "duration": 5, "velocity": 69}, {"time": 3330, "pitch": 68, "duration": 6, "velocity": 67}, {"time": 3336, "pitch": 56, "duration": 1, "velocity": 69}, {"time": 3339, "pitch": 59, "duration": 4, "velocity": 57}, {"time": 3342, "pitch": 65, "duration": 4, "velocity": 78}, {"time": 3345, "pitch": 66, "duration": 4, "velocity": 70}, {"time": 3348, "pitch": 68, "duration": 5, "velocity": 63}, {"time": 3351, "pitch": 71, "duration": 1, "velocity": 39}, {"time": 3354, "pitch": 42, "duration": 9, "velocity": 64}, {"time": 3354, "pitch": 61, "duration": 6, "velocity": 66}, {"time": 3354, "pitch": 69, "duration": 6, "velocity": 70}, {"time": 3357, "pitch": 49, "duration": 9, "velocity": 49}, {"time": 3360, "pitch": 54, "duration": 3, "velocity": 52}, {"time": 3363, "pitch": 61, "duration": 2, "velocity": 61}, {"time": 3366, "pitch": 40, "duration": 5, "velocity": 67}, {"time": 3366, "pitch": 61, "duration": 4, "velocity": 54}, {"time": 3366, "pitch": 69, "duration": 5, "velocity": 73}, {"time": 3369, "pitch": 49, "duration": 3, "velocity": 57}, {"time": 3372, "pitch": 68, "duration": 2, "velocity": 56}, {"time": 3375, "pitch": 69, "duration": 8, "velocity": 67}, {"time": 3378, "pitch": 51, "duration": 20, "velocity": 69}, {"time": 3378, "pitch": 57, "duration": 4, "velocity": 53}, {"time": 3378, "pitch": 63, "duration": 5, "velocity": 72}, {"time": 3378, "pitch": 66, "duration": 5, "velocity": 56}, {"time": 3384, "pitch": 57, "duration": 12, "velocity": 36}, {"time": 3390, "pitch": 61, "duration": 3, "velocity": 49}, {"time": 3396, "pitch": 61, "duration": 2, "velocity": 63}, {"time": 3402, "pitch": 50, "duration": 16, "velocity": 76}, {"time": 3402, "pitch": 57, "duration": 9, "velocity": 51}, {"time": 3402, "pitch": 62, "duration": 8, "velocity": 80}, {"time": 3402, "pitch": 66, "duration": 7, "velocity": 73}, {"time": 3414, "pitch": 57, "duration": 8, "velocity": 67}, {"time": 3414, "pitch": 62, "duration": 7, "velocity": 75}, {"time": 3414, "pitch": 66, "duration": 8, "velocity": 67}, {"time": 3420, "pitch": 50, "duration": 6, "velocity": 63}, {"time": 3426, "pitch": 49, "duration": 15, "velocity": 59}, {"time": 3426, "pitch": 61, "duration": 9, "velocity": 60}, {"time": 3426, "pitch": 64, "duration": 9, "velocity": 70}, {"time": 3426, "pitch": 69, "duration": 8, "velocity": 70}, {"time": 3438, "pitch": 61, "duration": 8, "velocity": 70}, {"time": 3438, "pitch": 64, "duration": 7, "velocity": 70}, {"time": 3438, "pitch": 69, "duration": 7, "velocity": 69}, {"time": 3444, "pitch": 49, "duration": 3, "velocity": 40}, {"time": 3447, "pitch": 48, "duration": 3, "velocity": 56}, {"time": 3450, "pitch": 47, "duration": 16, "velocity": 61}, {"time": 3450, "pitch": 59, "duration": 9, "velocity": 63}, {"time": 3450, "pitch": 62, "duration": 7, "velocity": 69}, {"time": 3450, "pitch": 66, "duration": 9, "velocity": 70}, {"time": 3456, "pitch": 69, "duration": 4, "velocity": 7}, {"time": 3462, "pitch": 59, "duration": 6, "velocity": 53}, {"time": 3462, "pitch": 62, "duration": 6, "velocity": 60}, {"time": 3462, "pitch": 66, "duration": 5, "velocity": 58}, {"time": 3462, "pitch": 69, "duration": 6, "velocity": 48}, {"time": 3468, "pitch": 47, "duration": 1, "velocity": 66}, {"time": 3474, "pitch": 40, "duration": 18, "velocity": 55}, {"time": 3474, "pitch": 52, "duration": 6, "velocity": 50}, {"time": 3474, "pitch": 57, "duration": 6, "velocity": 67}, {"time": 3474, "pitch": 62, "duration": 8, "velocity": 62}, {"time": 3474, "pitch": 66, "duration": 6, "velocity": 63}, {"time": 3483, "pitch": 52, "duration": 6, "velocity": 30}, {"time": 3486, "pitch": 59, "duration": 8, "velocity": 60}, {"time": 3486, "pitch": 64, "duration": 7, "velocity": 63}, {"time": 3486, "pitch": 68, "duration": 7, "velocity": 63}, {"time": 3492, "pitch": 52, "duration": 4, "velocity": 57}, {"time": 3498, "pitch": 45, "duration": 18, "velocity": 72}, {"time": 3498, "pitch": 61, "duration": 7, "velocity": 59}, {"time": 3498, "pitch": 64, "duration": 6, "velocity": 52}, {"time": 3498, "pitch": 69, "duration": 9, "velocity": 46}, {"time": 3504, "pitch": 52, "duration": 7, "velocity": 44}, {"time": 3507, "pitch": 57, "duration": 7, "velocity": 48}, {"time": 3510, "pitch": 61, "duration": 4, "velocity": 67}, {"time": 3513, "pitch": 52, "duration": 6, "velocity": 54}, {"time": 3516, "pitch": 61, "duration": 3, "velocity": 62}, {"time": 3519, "pitch": 69, "duration": 4, "velocity": 67}, {"time": 3522, "pitch": 44, "duration": 16, "velocity": 51}, {"time": 3522, "pitch": 68, "duration": 6, "velocity": 61}, {"time": 3525, "pitch": 52, "duration": 12, "velocity": 45}, {"time": 3528, "pitch": 56, "duration": 7, "velocity": 48}, {"time": 3531, "pitch": 59, "duration": 3, "velocity": 53}, {"time": 3534, "pitch": 64, "duration": 3, "velocity": 63}, {"time": 3537, "pitch": 66, "duration": 2, "velocity": 59}, {"time": 3540, "pitch": 68, "duration": 3, "velocity": 59}, {"time": 3543, "pitch": 71, "duration": 4, "velocity": 63}, {"time": 3546, "pitch": 42, "duration": 5, "velocity": 61}, {"time": 3546, "pitch": 69, "duration": 11, "velocity": 57}, {"time": 3549, "pitch": 49, "duration": 3, "velocity": 49}, {"time": 3552, "pitch": 54, "duration": 4, "velocity": 40}, {"time": 3555, "pitch": 56, "duration": 6, "velocity": 57}, {"time": 3558, "pitch": 57, "duration": 3, "velocity": 63}, {"time": 3561, "pitch": 61, "duration": 2, "velocity": 54}, {"time": 3564, "pitch": 66, "duration": 2, "velocity": 56}, {"time": 3567, "pitch": 69, "duration": 4, "velocity": 57}, {"time": 3570, "pitch": 40, "duration": 4, "velocity": 58}, {"time": 3570, "pitch": 68, "duration": 11, "velocity": 54}, {"time": 3573, "pitch": 49, "duration": 2, "velocity": 46}, {"time": 3576, "pitch": 52, "duration": 4, "velocity": 44}, {"time": 3579, "pitch": 54, "duration": 7, "velocity": 56}, {"time": 3582, "pitch": 57, "duration": 3, "velocity": 59}, {"time": 3585, "pitch": 61, "duration": 2, "velocity": 43}, {"time": 3588, "pitch": 64, "duration": 2, "velocity": 53}, {"time": 3591, "pitch": 69, "duration": 2, "velocity": 49}, {"time": 3594, "pitch": 38, "duration": 20, "velocity": 66}, {"time": 3594, "pitch": 57, "duration": 6, "velocity": 58}, {"time": 3594, "pitch": 62, "duration": 7, "velocity": 61}, {"time": 3594, "pitch": 66, "duration": 8, "velocity": 66}, {"time": 3600, "pitch": 50, "duration": 7, "velocity": 41}, {"time": 3606, "pitch": 57, "duration": 3, "velocity": 59}, {"time": 3606, "pitch": 62, "duration": 4, "velocity": 62}, {"time": 3606, "pitch": 66, "duration": 4, "velocity": 56}, {"time": 3609, "pitch": 50, "duration": 3, "velocity": 54}, {"time": 3612, "pitch": 57, "duration": 2, "velocity": 52}, {"time": 3615, "pitch": 66, "duration": 2, "velocity": 63}, {"time": 3618, "pitch": 37, "duration": 16, "velocity": 56}, {"time": 3618, "pitch": 49, "duration": 5, "velocity": 50}, {"time": 3618, "pitch": 57, "duration": 7, "velocity": 62}, {"time": 3618, "pitch": 64, "duration": 5, "velocity": 56}, {"time": 3627, "pitch": 49, "duration": 6, "velocity": 60}, {"time": 3633, "pitch": 57, "duration": 2, "velocity": 70}, {"time": 3636, "pitch": 59, "duration": 2, "velocity": 63}, {"time": 3639, "pitch": 36, "duration": 3, "velocity": 70}, {"time": 3639, "pitch": 61, "duration": 2, "velocity": 52}, {"time": 3642, "pitch": 35, "duration": 5, "velocity": 63}, {"time": 3642, "pitch": 54, "duration": 10, "velocity": 60}, {"time": 3642, "pitch": 57, "duration": 10, "velocity": 69}, {"time": 3642, "pitch": 62, "duration": 10, "velocity": 80}, {"time": 3645, "pitch": 42, "duration": 3, "velocity": 49}, {"time": 3648, "pitch": 47, "duration": 4, "velocity": 44}, {"time": 3651, "pitch": 49, "duration": 5, "velocity": 56}, {"time": 3654, "pitch": 50, "duration": 2, "velocity": 64}, {"time": 3657, "pitch": 54, "duration": 3, "velocity": 53}, {"time": 3660, "pitch": 57, "duration": 2, "velocity": 53}, {"time": 3663, "pitch": 59, "duration": 1, "velocity": 47}, {"time": 3666, "pitch": 40, "duration": 17, "velocity": 67}, {"time": 3666, "pitch": 56, "duration": 6, "velocity": 60}, {"time": 3666, "pitch": 59, "duration": 6, "velocity": 60}, {"time": 3666, "pitch": 64, "duration": 6, "velocity": 58}, {"time": 3669, "pitch": 47, "duration": 13, "velocity": 47}, {"time": 3672, "pitch": 52, "duration": 11, "velocity": 62}, {"time": 3675, "pitch": 56, "duration": 3, "velocity": 64}, {"time": 3678, "pitch": 57, "duration": 3, "velocity": 69}, {"time": 3681, "pitch": 59, "duration": 2, "velocity": 59}, {"time": 3684, "pitch": 61, "duration": 2, "velocity": 57}, {"time": 3687, "pitch": 66, "duration": 2, "velocity": 62}, {"time": 3690, "pitch": 49, "duration": 32, "velocity": 72}, {"time": 3690, "pitch": 59, "duration": 7, "velocity": 52}, {"time": 3690, "pitch": 61, "duration": 6, "velocity": 60}, {"time": 3690, "pitch": 65, "duration": 7, "velocity": 63}, {"time": 3690, "pitch": 68, "duration": 9, "velocity": 69}, {"time": 3696, "pitch": 56, "duration": 7, "velocity": 35}, {"time": 3702, "pitch": 59, "duration": 6, "velocity": 56}, {"time": 3702, "pitch": 65, "duration": 7, "velocity": 73}, {"time": 3702, "pitch": 68, "duration": 9, "velocity": 63}, {"time": 3708, "pitch": 56, "duration": 8, "velocity": 53}, {"time": 3714, "pitch": 59, "duration": 5, "velocity": 60}, {"time": 3714, "pitch": 65, "duration": 5, "velocity": 69}, {"time": 3714, "pitch": 68, "duration": 6, "velocity": 67}, {"time": 3720, "pitch": 56, "duration": 1, "velocity": 69}, {"time": 3723, "pitch": 59, "duration": 4, "velocity": 57}, {"time": 3726, "pitch": 65, "duration": 4, "velocity": 78}, {"time": 3729, "pitch": 66, "duration": 4, "velocity": 70}, {"time": 3732, "pitch": 68, "duration": 5, "velocity": 63}, {"time": 3735, "pitch": 71, "duration": 1, "velocity": 39}, {"time": 3738, "pitch": 42, "duration": 9, "velocity": 64}, {"time": 3738, "pitch": 61, "duration": 6, "velocity": 66}, {"time": 3738, "pitch": 69, "duration": 6, "velocity": 70}, {"time": 3741, "pitch": 49, "duration": 9, "velocity": 49}, {"time": 3744, "pitch": 54, "duration": 3, "velocity": 52}, {"time": 3747, "pitch": 61, "duration": 2, "velocity": 61}, {"time": 3750, "pitch": 40, "duration": 5, "velocity": 67}, {"time": 3750, "pitch": 61, "duration": 4, "velocity": 54}, {"time": 3750, "pitch": 69, "duration": 5, "velocity": 73}, {"time": 3753, "pitch": 49, "duration": 3, "velocity": 57}, {"time": 3756, "pitch": 68, "duration": 2, "velocity": 56}, {"time": 3759, "pitch": 69, "duration": 8, "velocity": 67}, {"time": 3762, "pitch": 51, "duration": 20, "velocity": 69}, {"time": 3762, "pitch": 57, "duration": 4, "velocity": 53}, {"time": 3762, "pitch": 63, "duration": 5, "velocity": 72}, {"time": 3762, "pitch": 66, "duration": 5, "velocity": 56}, {"time": 3768, "pitch": 57, "duration": 12, "velocity": 36}, {"time": 3774, "pitch": 61, "duration": 3, "velocity": 49}, {"time": 3780, "pitch": 61, "duration": 2, "velocity": 63}, {"time": 3786, "pitch": 50, "duration": 16, "velocity": 76}, {"time": 3786, "pitch": 57, "duration": 9, "velocity": 51}, {"time": 3786, "pitch": 62, "duration": 8, "velocity": 80}, {"time": 3786, "pitch": 66, "duration": 7, "velocity": 73}, {"time": 3798, "pitch": 57, "duration": 8, "velocity": 67}, {"time": 3798, "pitch": 62, "duration": 7, "velocity": 75}, {"time": 3798, "pitch": 66, "duration": 8, "velocity": 67}, {"time": 3804, "pitch": 50, "duration": 6, "velocity": 63}, {"time": 3810, "pitch": 49, "duration": 15, "velocity": 59}, {"time": 3810, "pitch": 61, "duration": 9, "velocity": 60}, {"time": 3810, "pitch": 64, "duration": 9, "velocity": 70}, {"time": 3810, "pitch": 69, "duration": 8, "velocity": 70}, {"time": 3822, "pitch": 61, "duration": 8, "velocity": 70}, {"time": 3822, "pitch": 64, "duration": 7, "velocity": 70}, {"time": 3822, "pitch": 69, "duration": 7, "velocity": 69}, {"time": 3828, "pitch": 49, "duration": 3, "velocity": 40}, {"time": 3831, "pitch": 48, "duration": 3, "velocity": 56}, {"time": 3834, "pitch": 47, "duration": 16, "velocity": 61}, {"time": 3834, "pitch": 59, "duration": 9, "velocity": 63}, {"time": 3834, "pitch": 62, "duration": 7, "velocity": 69}, {"time": 3834, "pitch": 66, "duration": 9, "velocity": 70}, {"time": 3840, "pitch": 69, "duration": 4, "velocity": 7}, {"time": 3846, "pitch": 59, "duration": 6, "velocity": 53}, {"time": 3846, "pitch": 62, "duration": 6, "velocity": 60}, {"time": 3846, "pitch": 66, "duration": 5, "velocity": 58}, {"time": 3846, "pitch": 69, "duration": 6, "velocity": 48}, {"time": 3852, "pitch": 47, "duration": 1, "velocity": 66}, {"time": 3858, "pitch": 40, "duration": 18, "velocity": 55}, {"time": 3858, "pitch": 52, "duration": 6, "velocity": 50}, {"time": 3858, "pitch": 57, "duration": 6, "velocity": 67}, {"time": 3858, "pitch": 62, "duration": 8, "velocity": 62}, {"time": 3858, "pitch": 66, "duration": 6, "velocity": 63}, {"time": 3867, "pitch": 52, "duration": 6, "velocity": 30}, {"time": 3870, "pitch": 59, "duration": 8, "velocity": 60}, {"time": 3870, "pitch": 64, "duration": 7, "velocity": 63}, {"time": 3870, "pitch": 68, "duration": 7, "velocity": 63}, {"time": 3876, "pitch": 52, "duration": 4, "velocity": 57}, {"time": 3882, "pitch": 45, "duration": 41, "velocity": 67}, {"time": 3882, "pitch": 62, "duration": 6, "velocity": 69}, {"time": 3882, "pitch": 69, "duration": 11, "velocity": 67}, {"time": 3891, "pitch": 52, "duration": 11, "velocity": 19}, {"time": 3891, "pitch": 62, "duration": 7, "velocity": 60}, {"time": 3891, "pitch": 66, "duration": 7, "velocity": 48}, {"time": 3897, "pitch": 57, "duration": 13, "velocity": 40}, {"time": 3900, "pitch": 62, "duration": 4, "velocity": 51}, {"time": 3903, "pitch": 64, "duration": 10, "velocity": 62}, {"time": 3906, "pitch": 52, "duration": 11, "velocity": 57}, {"time": 3906, "pitch": 61, "duration": 7, "velocity": 61}, {"time": 3915, "pitch": 57, "duration": 6, "velocity": 36}, {"time": 3918, "pitch": 59, "duration": 4, "velocity": 63}, {"time": 3918, "pitch": 64, "duration": 4, "velocity": 67}, {"time": 3921, "pitch": 52, "duration": 5, "velocity": 48}, {"time": 3924, "pitch": 62, "duration": 3, "velocity": 67}, {"time": 3927, "pitch": 64, "duration": 1, "velocity": 29}], "annotations": [{"time": 235, "annotation": {"number": 64, "value": 127}, "group": "control_change"}, {"time": 259, "annotation": {"number": 64, "value": 0}, "group": "control_change"}, {"time": 262, "annotation": {"number": 64, "value": 127}, "group": "control_change"}, {"time": 283, "annotation": {"number": 64, "value": 0}, "group": "control_change"}, {"time": 286, "annotation": {"number": 64, "value": 127}, "group": "control_change"}, {"time": 306, "annotation": {"number": 64, "value": 0}, "group": "control_change"}, {"time": 309, "annotation": {"number": 64, "value": 127}, "group": "control_change"}, {"time": 330, "annotation": {"number": 64, "value": 0}, "group": "control_change"}, {"time": 333, "annotation": {"number": 64, "value": 127}, "group": "control_change"}, {"time": 354, "annotation": {"number": 64, "value": 0}, "group": "control_change"}, {"time": 356, "annotation": {"number": 64, "value": 127}, "group": "control_change"}, {"time": 379, "annotation": {"number": 64, "value": 0}, "group": "control_change"}, {"time": 382, "annotation": {"number": 64, "value": 127}, "group": "control_change"}, {"time": 402, "annotation": {"number": 64, "value": 0}, "group": "control_change"}, {"time": 405, "annotation": {"number": 64, "value": 127}, "group": "control_change"}, {"time": 425, "annotation": {"number": 64, "value": 0}, "group": "control_change"}, {"time": 428, "annotation": {"number": 64, "value": 127}, "group": "control_change"}, {"time": 451, "annotation": {"number": 64, "value": 0}, "group": "control_change"}, {"time": 454, "annotation": {"number": 64, "value": 127}, "group": "control_change"}, {"time": 474, "annotation": {"number": 64, "value": 0}, "group": "control_change"}, {"time": 476, "annotation": {"number": 64, "value": 127}, "group": "control_change"}, {"time": 498, "annotation": {"number": 64, "value": 0}, "group": "control_change"}, {"time": 500, "annotation": {"number": 64, "value": 127}, "group": "control_change"}, {"time": 523, "annotation": {"number": 64, "value": 0}, "group": "control_change"}, {"time": 526, "annotation": {"number": 64, "value": 127}, "group": "control_change"}, {"time": 547, "annotation": {"number": 64, "value": 0}, "group": "control_change"}, {"time": 550, "annotation": {"number": 64, "value": 127}, "group": "control_change"}, {"time": 570, "annotation": {"number": 64, "value": 0}, "group": "control_change"}, {"time": 573, "annotation": {"number": 64, "value": 127}, "group": "control_change"}, {"time": 593, "annotation": {"number": 64, "value": 0}, "group": "control_change"}, {"time": 596, "annotation": {"number": 64, "value": 127}, "group": "control_change"}, {"time": 616, "annotation": {"number": 64, "value": 0}, "group": "control_change"}, {"time": 618, "annotation": {"number": 64, "value": 127}, "group": "control_change"}, {"time": 665, "annotation": {"number": 64, "value": 0}, "group": "control_change"}, {"time": 667, "annotation": {"number": 64, "value": 127}, "group": "control_change"}, {"time": 713, "annotation": {"number": 64, "value": 0}, "group": "control_change"}, {"time": 716, "annotation": {"number": 64, "value": 127}, "group": "control_change"}, {"time": 761, "annotation": {"number": 64, "value": 0}, "group": "control_change"}, {"time": 763, "annotation": {"number": 64, "value": 127}, "group": "control_change"}, {"time": 786, "annotation": {"number": 64, "value": 0}, "group": "control_change"}, {"time": 788, "annotation": {"number": 64, "value": 127}, "group": "control_change"}, {"time": 810, "annotation": {"number": 64, "value": 0}, "group": "control_change"}, {"time": 811, "annotation": {"number": 64, "value": 127}, "group": "control_change"}, {"time": 858, "annotation": {"number": 64, "value": 0}, "group": "control_change"}, {"time": 860, "annotation": {"number": 64, "value": 127}, "group": "control_change"}, {"time": 885, "annotation": {"number": 64, "value": 0}, "group": "control_change"}, {"time": 888, "annotation": {"number": 64, "value": 127}, "group": "control_change"}, {"time": 906, "annotation": {"number": 64, "value": 0}, "group": "control_change"}, {"time": 909, "annotation": {"number": 64, "value": 127}, "group": "control_change"}, {"time": 930, "annotation": {"number": 64, "value": 0}, "group": "control_change"}, {"time": 934, "annotation": {"number": 64, "value": 127}, "group": "control_change"}, {"time": 954, "annotation": {"number": 64, "value": 127}, "group": "control_change"}, {"time": 954, "annotation": {"number": 64, "value": 0}, "group": "control_change"}, {"time": 957, "annotation": {"number": 64, "value": 127}, "group": "control_change"}, {"time": 977, "annotation": {"number": 64, "value": 0}, "group": "control_change"}, {"time": 978, "annotation": {"number": 64, "value": 0}, "group": "control_change"}, {"time": 983, "annotation": {"number": 64, "value": 127}, "group": "control_change"}, {"time": 990, "annotation": {"number": 64, "value": 127}, "group": "control_change"}, {"time": 1001, "annotation": {"number": 64, "value": 0}, "group": "control_change"}, {"time": 1002, "annotation": {"number": 64, "value": 127}, "group": "control_change"}, {"time": 1002, "annotation": {"number": 64, "value": 0}, "group": "control_change"}, {"time": 1027, "annotation": {"number": 64, "value": 0}, "group": "control_change"}, {"time": 1029, "annotation": {"number": 64, "value": 127}, "group": "control_change"}, {"time": 1051, "annotation": {"number": 64, "value": 0}, "group": "control_change"}, {"time": 1053, "annotation": {"number": 64, "value": 127}, "group": "control_change"}, {"time": 1075, "annotation": {"number": 64, "value": 0}, "group": "control_change"}, {"time": 1078, "annotation": {"number": 64, "value": 127}, "group": "control_change"}, {"time": 1099, "annotation": {"number": 64, "value": 0}, "group": "control_change"}, {"time": 1102, "annotation": {"number": 64, "value": 127}, "group": "control_change"}, {"time": 1123, "annotation": {"number": 64, "value": 0}, "group": "control_change"}, {"time": 1126, "annotation": {"number": 64, "value": 127}, "group": "control_change"}, {"time": 1146, "annotation": {"number": 64, "value": 0}, "group": "control_change"}, {"time": 1149, "annotation": {"number": 64, "value": 127}, "group": "control_change"}, {"time": 1170, "annotation": {"number": 64, "value": 0}, "group": "control_change"}, {"time": 1173, "annotation": {"number": 64, "value": 127}, "group": "control_change"}, {"time": 1193, "annotation": {"number": 64, "value": 0}, "group": "control_change"}, {"time": 1194, "annotation": {"number": 64, "value": 127}, "group": "control_change"}, {"time": 1217, "annotation": {"number": 64, "value": 0}, "group": "control_change"}, {"time": 1220, "annotation": {"number": 64, "value": 127}, "group": "control_change"}, {"time": 1242, "annotation": {"number": 64, "value": 0}, "group": "control_change"}, {"time": 1242, "annotation": {"number": 64, "value": 127}, "group": "control_change"}, {"time": 1254, "annotation": {"number": 64, "value": 0}, "group": "control_change"}, {"time": 1256, "annotation": {"number": 64, "value": 127}, "group": "control_change"}, {"time": 1266, "annotation": {"number": 64, "value": 0}, "group": "control_change"}, {"time": 1269, "annotation": {"number": 64, "value": 127}, "group": "control_change"}, {"time": 1290, "annotation": {"number": 64, "value": 127}, "group": "control_change"}, {"time": 1312, "annotation": {"number": 64, "value": 0}, "group": "control_change"}, {"time": 1314, "annotation": {"number": 64, "value": 127}, "group": "control_change"}, {"time": 1339, "annotation": {"number": 64, "value": 0}, "group": "control_change"}, {"time": 1342, "annotation": {"number": 64, "value": 127}, "group": "control_change"}, {"time": 1362, "annotation": {"number": 64, "value": 0}, "group": "control_change"}, {"time": 1365, "annotation": {"number": 64, "value": 127}, "group": "control_change"}, {"time": 1386, "annotation": {"number": 64, "value": 0}, "group": "control_change"}, {"time": 1389, "annotation": {"number": 64, "value": 127}, "group": "control_change"}, {"time": 1411, "annotation": {"number": 64, "value": 0}, "group": "control_change"}, {"time": 1414, "annotation": {"number": 64, "value": 127}, "group": "control_change"}, {"time": 1434, "annotation": {"number": 64, "value": 0}, "group": "control_change"}, {"time": 1437, "annotation": {"number": 64, "value": 127}, "group": "control_change"}, {"time": 1459, "annotation": {"number": 64, "value": 0}, "group": "control_change"}, {"time": 1462, "annotation": {"number": 64, "value": 127}, "group": "control_change"}, {"time": 1481, "annotation": {"number": 64, "value": 0}, "group": "control_change"}, {"time": 1484, "annotation": {"number": 64, "value": 127}, "group": "control_change"}, {"time": 1507, "annotation": {"number": 64, "value": 0}, "group": "control_change"}, {"time": 1510, "annotation": {"number": 64, "value": 127}, "group": "control_change"}, {"time": 1512, "annotation": {"number": 64, "value": 0}, "group": "control_change"}, {"time": 1512, "annotation": {"number": 64, "value": 127}, "group": "control_change"}, {"time": 1530, "annotation": {"number": 64, "value": 0}, "group": "control_change"}, {"time": 1532, "annotation": {"number": 64, "value": 127}, "group": "control_change"}, {"time": 1554, "annotation": {"number": 64, "value": 0}, "group": "control_change"}, {"time": 1554, "annotation": {"number": 64, "value": 127}, "group": "control_change"}, {"time": 1578, "annotation": {"number": 64, "value": 0}, "group": "control_change"}, {"time": 1580, "annotation": {"number": 64, "value": 127}, "group": "control_change"}, {"time": 1625, "annotation": {"number": 64, "value": 0}, "group": "control_change"}, {"time": 1628, "annotation": {"number": 64, "value": 127}, "group": "control_change"}, {"time": 1639, "annotation": {"number": 64, "value": 0}, "group": "control_change"}, {"time": 1642, "annotation": {"number": 64, "value": 127}, "group": "control_change"}, {"time": 1650, "annotation": {"number": 64, "value": 0}, "group": "control_change"}, {"time": 1652, "annotation": {"number": 64, "value": 127}, "group": "control_change"}, {"time": 1675, "annotation": {"number": 64, "value": 0}, "group": "control_change"}, {"time": 1675, "annotation": {"number": 64, "value": 127}, "group": "control_change"}, {"time": 1678, "annotation": {"number": 64, "value": 127}, "group": "control_change"}, {"time": 1685, "annotation": {"number": 64, "value": 0}, "group": "control_change"}, {"time": 1699, "annotation": {"number": 64, "value": 0}, "group": "control_change"}, {"time": 1702, "annotation": {"number": 64, "value": 127}, "group": "control_change"}, {"time": 1721, "annotation": {"number": 64, "value": 0}, "group": "control_change"}, {"time": 1724, "annotation": {"number": 64, "value": 127}, "group": "control_change"}, {"time": 1747, "annotation": {"number": 64, "value": 0}, "group": "control_change"}, {"time": 1750, "annotation": {"number": 64, "value": 127}, "group": "control_change"}, {"time": 1769, "annotation": {"number": 64, "value": 0}, "group": "control_change"}, {"time": 1771, "annotation": {"number": 64, "value": 127}, "group": "control_change"}, {"time": 1793, "annotation": {"number": 64, "value": 0}, "group": "control_change"}, {"time": 1796, "annotation": {"number": 64, "value": 127}, "group": "control_change"}, {"time": 1818, "annotation": {"number": 64, "value": 0}, "group": "control_change"}, {"time": 1963, "annotation": {"number": 64, "value": 127}, "group": "control_change"}, {"time": 1987, "annotation": {"number": 64, "value": 0}, "group": "control_change"}, {"time": 1990, "annotation": {"number": 64, "value": 127}, "group": "control_change"}, {"time": 2011, "annotation": {"number": 64, "value": 0}, "group": "control_change"}, {"time": 2014, "annotation": {"number": 64, "value": 127}, "group": "control_change"}, {"time": 2034, "annotation": {"number": 64, "value": 0}, "group": "control_change"}, {"time": 2037, "annotation": {"number": 64, "value": 127}, "group": "control_change"}, {"time": 2058, "annotation": {"number": 64, "value": 0}, "group": "control_change"}, {"time": 2061, "annotation": {"number": 64, "value": 127}, "group": "control_change"}, {"time": 2082, "annotation": {"number": 64, "value": 0}, "group": "control_change"}, {"time": 2084, "annotation": {"number": 64, "value": 127}, "group": "control_change"}, {"time": 2107, "annotation": {"number": 64, "value": 0}, "group": "control_change"}, {"time": 2110, "annotation": {"number": 64, "value": 127}, "group": "control_change"}, {"time": 2130, "annotation": {"number": 64, "value": 0}, "group": "control_change"}, {"time": 2133, "annotation": {"number": 64, "value": 127}, "group": "control_change"}, {"time": 2153, "annotation": {"number": 64, "value": 0}, "group": "control_change"}, {"time": 2156, "annotation": {"number": 64, "value": 127}, "group": "control_change"}, {"time": 2179, "annotation": {"number": 64, "value": 0}, "group": "control_change"}, {"time": 2182, "annotation": {"number": 64, "value": 127}, "group": "control_change"}, {"time": 2202, "annotation": {"number": 64, "value": 0}, "group": "control_change"}, {"time": 2204, "annotation": {"number": 64, "value": 127}, "group": "control_change"}, {"time": 2226, "annotation": {"number": 64, "value": 0}, "group": "control_change"}, {"time": 2228, "annotation": {"number": 64, "value": 127}, "group": "control_change"}, {"time": 2251, "annotation": {"number": 64, "value": 0}, "group": "control_change"}, {"time": 2254, "annotation": {"number": 64, "value": 127}, "group": "control_change"}, {"time": 2275, "annotation": {"number": 64, "value": 0}, "group": "control_change"}, {"time": 2278, "annotation": {"number": 64, "value": 127}, "group": "control_change"}, {"time": 2298, "annotation": {"number": 64, "value": 0}, "group": "control_change"}, {"time": 2301, "annotation": {"number": 64, "value": 127}, "group": "control_change"}, {"time": 2321, "annotation": {"number": 64, "value": 0}, "group": "control_change"}, {"time": 2324, "annotation": {"number": 64, "value": 127}, "group": "control_change"}, {"time": 2344, "annotation": {"number": 64, "value": 0}, "group": "control_change"}, {"time": 2346, "annotation": {"number": 64, "value": 127}, "group": "control_change"}, {"time": 2393, "annotation": {"number": 64, "value": 0}, "group": "control_change"}, {"time": 2395, "annotation": {"number": 64, "value": 127}, "group": "control_change"}, {"time": 2441, "annotation": {"number": 64, "value": 0}, "group": "control_change"}, {"time": 2444, "annotation": {"number": 64, "value": 127}, "group": "control_change"}, {"time": 2489, "annotation": {"number": 64, "value": 0}, "group": "control_change"}, {"time": 2491, "annotation": {"number": 64, "value": 127}, "group": "control_change"}, {"time": 2514, "annotation": {"number": 64, "value": 0}, "group": "control_change"}, {"time": 2516, "annotation": {"number": 64, "value": 127}, "group": "control_change"}, {"time": 2538, "annotation": {"number": 64, "value": 0}, "group": "control_change"}, {"time": 2539, "annotation": {"number": 64, "value": 127}, "group": "control_change"}, {"time": 2586, "annotation": {"number": 64, "value": 0}, "group": "control_change"}, {"time": 2588, "annotation": {"number": 64, "value": 127}, "group": "control_change"}, {"time": 2613, "annotation": {"number": 64, "value": 0}, "group": "control_change"}, {"time": 2616, "annotation": {"number": 64, "value": 127}, "group": "control_change"}, {"time": 2634, "annotation": {"number": 64, "value": 0}, "group": "control_change"}, {"time": 2637, "annotation": {"number": 64, "value": 127}, "group": "control_change"}, {"time": 2658, "annotation": {"number": 64, "value": 0}, "group": "control_change"}, {"time": 2662, "annotation": {"number": 64, "value": 127}, "group": "control_change"}, {"time": 2682, "annotation": {"number": 64, "value": 127}, "group": "control_change"}, {"time": 2682, "annotation": {"number": 64, "value": 0}, "group": "control_change"}, {"time": 2685, "annotation": {"number": 64, "value": 127}, "group": "control_change"}, {"time": 2705, "annotation": {"number": 64, "value": 0}, "group": "control_change"}, {"time": 2706, "annotation": {"number": 64, "value": 0}, "group": "control_change"}, {"time": 2711, "annotation": {"number": 64, "value": 127}, "group": "control_change"}, {"time": 2718, "annotation": {"number": 64, "value": 127}, "group": "control_change"}, {"time": 2729, "annotation": {"number": 64, "value": 0}, "group": "control_change"}, {"time": 2730, "annotation": {"number": 64, "value": 127}, "group": "control_change"}, {"time": 2730, "annotation": {"number": 64, "value": 0}, "group": "control_change"}, {"time": 2755, "annotation": {"number": 64, "value": 0}, "group": "control_change"}, {"time": 2757, "annotation": {"number": 64, "value": 127}, "group": "control_change"}, {"time": 2779, "annotation": {"number": 64, "value": 0}, "group": "control_change"}, {"time": 2781, "annotation": {"number": 64, "value": 127}, "group": "control_change"}, {"time": 2803, "annotation": {"number": 64, "value": 0}, "group": "control_change"}, {"time": 2806, "annotation": {"number": 64, "value": 127}, "group": "control_change"}, {"time": 2827, "annotation": {"number": 64, "value": 0}, "group": "control_change"}, {"time": 2830, "annotation": {"number": 64, "value": 127}, "group": "control_change"}, {"time": 2851, "annotation": {"number": 64, "value": 0}, "group": "control_change"}, {"time": 2854, "annotation": {"number": 64, "value": 127}, "group": "control_change"}, {"time": 2874, "annotation": {"number": 64, "value": 0}, "group": "control_change"}, {"time": 2877, "annotation": {"number": 64, "value": 127}, "group": "control_change"}, {"time": 2898, "annotation": {"number": 64, "value": 0}, "group": "control_change"}, {"time": 2901, "annotation": {"number": 64, "value": 127}, "group": "control_change"}, {"time": 2921, "annotation": {"number": 64, "value": 0}, "group": "control_change"}, {"time": 2922, "annotation": {"number": 64, "value": 127}, "group": "control_change"}, {"time": 2945, "annotation": {"number": 64, "value": 0}, "group": "control_change"}, {"time": 2948, "annotation": {"number": 64, "value": 127}, "group": "control_change"}, {"time": 2970, "annotation": {"number": 64, "value": 0}, "group": "control_change"}, {"time": 2970, "annotation": {"number": 64, "value": 127}, "group": "control_change"}, {"time": 2982, "annotation": {"number": 64, "value": 0}, "group": "control_change"}, {"time": 2984, "annotation": {"number": 64, "value": 127}, "group": "control_change"}, {"time": 2994, "annotation": {"number": 64, "value": 0}, "group": "control_change"}, {"time": 2997, "annotation": {"number": 64, "value": 127}, "group": "control_change"}, {"time": 3018, "annotation": {"number": 64, "value": 127}, "group": "control_change"}, {"time": 3040, "annotation": {"number": 64, "value": 0}, "group": "control_change"}, {"time": 3042, "annotation": {"number": 64, "value": 127}, "group": "control_change"}, {"time": 3067, "annotation": {"number": 64, "value": 0}, "group": "control_change"}, {"time": 3070, "annotation": {"number": 64, "value": 127}, "group": "control_change"}, {"time": 3090, "annotation": {"number": 64, "value": 0}, "group": "control_change"}, {"time": 3090, "annotation": {"number": 64, "value": 127}, "group": "control_change"}, {"time": 3095, "annotation": {"number": 64, "value": 0}, "group": "control_change"}, {"time": 3114, "annotation": {"number": 64, "value": 0}, "group": "control_change"}, {"time": 3117, "annotation": {"number": 64, "value": 127}, "group": "control_change"}, {"time": 3139, "annotation": {"number": 64, "value": 0}, "group": "control_change"}, {"time": 3142, "annotation": {"number": 64, "value": 127}, "group": "control_change"}, {"time": 3162, "annotation": {"number": 64, "value": 0}, "group": "control_change"}, {"time": 3165, "annotation": {"number": 64, "value": 127}, "group": "control_change"}, {"time": 3187, "annotation": {"number": 64, "value": 0}, "group": "control_change"}, {"time": 3190, "annotation": {"number": 64, "value": 127}, "group": "control_change"}, {"time": 3209, "annotation": {"number": 64, "value": 0}, "group": "control_change"}, {"time": 3212, "annotation": {"number": 64, "value": 127}, "group": "control_change"}, {"time": 3235, "annotation": {"number": 64, "value": 0}, "group": "control_change"}, {"time": 3238, "annotation": {"number": 64, "value": 127}, "group": "control_change"}, {"time": 3240, "annotation": {"number": 64, "value": 0}, "group": "control_change"}, {"time": 3240, "annotation": {"number": 64, "value": 127}, "group": "control_change"}, {"time": 3258, "annotation": {"number": 64, "value": 0}, "group": "control_change"}, {"time": 3260, "annotation": {"number": 64, "value": 127}, "group": "control_change"}, {"time": 3282, "annotation": {"number": 64, "value": 0}, "group": "control_change"}, {"time": 3282, "annotation": {"number": 64, "value": 127}, "group": "control_change"}, {"time": 3306, "annotation": {"number": 64, "value": 0}, "group": "control_change"}, {"time": 3308, "annotation": {"number": 64, "value": 127}, "group": "control_change"}, {"time": 3353, "annotation": {"number": 64, "value": 0}, "group": "control_change"}, {"time": 3356, "annotation": {"number": 64, "value": 127}, "group": "control_change"}, {"time": 3367, "annotation": {"number": 64, "value": 0}, "group": "control_change"}, {"time": 3370, "annotation": {"number": 64, "value": 127}, "group": "control_change"}, {"time": 3378, "annotation": {"number": 64, "value": 0}, "group": "control_change"}, {"time": 3380, "annotation": {"number": 64, "value": 127}, "group": "control_change"}, {"time": 3403, "annotation": {"number": 64, "value": 0}, "group": "control_change"}, {"time": 3403, "annotation": {"number": 64, "value": 127}, "group": "control_change"}, {"time": 3406, "annotation": {"number": 64, "value": 127}, "group": "control_change"}, {"time": 3413, "annotation": {"number": 64, "value": 0}, "group": "control_change"}, {"time": 3427, "annotation": {"number": 64, "value": 0}, "group": "control_change"}, {"time": 3430, "annotation": {"number": 64, "value": 127}, "group": "control_change"}, {"time": 3449, "annotation": {"number": 64, "value": 0}, "group": "control_change"}, {"time": 3452, "annotation": {"number": 64, "value": 127}, "group": "control_change"}, {"time": 3475, "annotation": {"number": 64, "value": 0}, "group": "control_change"}, {"time": 3478, "annotation": {"number": 64, "value": 127}, "group": "control_change"}, {"time": 3497, "annotation": {"number": 64, "value": 0}, "group": "control_change"}, {"time": 3498, "annotation": {"number": 64, "value": 0}, "group": "control_change"}, {"time": 3501, "annotation": {"number": 64, "value": 127}, "group": "control_change"}, {"time": 3523, "annotation": {"number": 64, "value": 0}, "group": "control_change"}, {"time": 3526, "annotation": {"number": 64, "value": 127}, "group": "control_change"}, {"time": 3546, "annotation": {"number": 64, "value": 0}, "group": "control_change"}, {"time": 3549, "annotation": {"number": 64, "value": 127}, "group": "control_change"}, {"time": 3571, "annotation": {"number": 64, "value": 0}, "group": "control_change"}, {"time": 3574, "annotation": {"number": 64, "value": 127}, "group": "control_change"}, {"time": 3593, "annotation": {"number": 64, "value": 0}, "group": "control_change"}, {"time": 3596, "annotation": {"number": 64, "value": 127}, "group": "control_change"}, {"time": 3619, "annotation": {"number": 64, "value": 0}, "group": "control_change"}, {"time": 3622, "annotation": {"number": 64, "value": 127}, "group": "control_change"}, {"time": 3624, "annotation": {"number": 64, "value": 0}, "group": "control_change"}, {"time": 3624, "annotation": {"number": 64, "value": 127}, "group": "control_change"}, {"time": 3642, "annotation": {"number": 64, "value": 0}, "group": "control_change"}, {"time": 3644, "annotation": {"number": 64, "value": 127}, "group": "control_change"}, {"time": 3666, "annotation": {"number": 64, "value": 0}, "group": "control_change"}, {"time": 3666, "annotation": {"number": 64, "value": 127}, "group": "control_change"}, {"time": 3690, "annotation": {"number": 64, "value": 0}, "group": "control_change"}, {"time": 3692, "annotation": {"number": 64, "value": 127}, "group": "control_change"}, {"time": 3737, "annotation": {"number": 64, "value": 0}, "group": "control_change"}, {"time": 3740, "annotation": {"number": 64, "value": 127}, "group": "control_change"}, {"time": 3751, "annotation": {"number": 64, "value": 0}, "group": "control_change"}, {"time": 3754, "annotation": {"number": 64, "value": 127}, "group": "control_change"}, {"time": 3762, "annotation": {"number": 64, "value": 0}, "group": "control_change"}, {"time": 3764, "annotation": {"number": 64, "value": 127}, "group": "control_change"}, {"time": 3787, "annotation": {"number": 64, "value": 0}, "group": "control_change"}, {"time": 3787, "annotation": {"number": 64, "value": 127}, "group": "control_change"}, {"time": 3790, "annotation": {"number": 64, "value": 127}, "group": "control_change"}, {"time": 3797, "annotation": {"number": 64, "value": 0}, "group": "control_change"}, {"time": 3811, "annotation": {"number": 64, "value": 0}, "group": "control_change"}, {"time": 3814, "annotation": {"number": 64, "value": 127}, "group": "control_change"}, {"time": 3833, "annotation": {"number": 64, "value": 0}, "group": "control_change"}, {"time": 3836, "annotation": {"number": 64, "value": 127}, "group": "control_change"}, {"time": 3859, "annotation": {"number": 64, "value": 0}, "group": "control_change"}, {"time": 3862, "annotation": {"number": 64, "value": 127}, "group": "control_change"}, {"time": 3881, "annotation": {"number": 64, "value": 0}, "group": "control_change"}, {"time": 3883, "annotation": {"number": 64, "value": 127}, "group": "control_change"}, {"time": 3905, "annotation": {"number": 64, "value": 0}, "group": "control_change"}, {"time": 3908, "annotation": {"number": 64, "value": 127}, "group": "control_change"}]}]}