{"metadata": {"schema_version": "0.2", "title": "None", "source_filename": "225.mid", "source_format": "midi"}, "resolution": 12, "tempos": [{"time": 0, "qpm": 73.00007178340392}, {"time": 103, "qpm": 82.00014760026568}, {"time": 115, "qpm": 80.0}, {"time": 139, "qpm": 80.99997165000993}, {"time": 151, "qpm": 78.9999657666815}, {"time": 163, "qpm": 75.99996960001216}, {"time": 175, "qpm": 86.00005160003096}, {"time": 187, "qpm": 78.9999657666815}, {"time": 199, "qpm": 78.000078000078}, {"time": 211, "qpm": 80.99997165000993}, {"time": 283, "qpm": 72.00011520018433}, {"time": 295, "qpm": 83.0000650167176}, {"time": 319, "qpm": 80.0}, {"time": 475, "qpm": 73.00007178340392}, {"time": 487, "qpm": 80.99997165000993}, {"time": 511, "qpm": 85.00004250002125}, {"time": 523, "qpm": 78.000078000078}, {"time": 535, "qpm": 78.9999657666815}, {"time": 559, "qpm": 80.99997165000993}, {"time": 571, "qpm": 85.00004250002125}, {"time": 583, "qpm": 77.000077000077}, {"time": 595, "qpm": 80.0}, {"time": 607, "qpm": 83.0000650167176}, {"time": 619, "qpm": 77.000077000077}, {"time": 631, "qpm": 80.0}, {"time": 643, "qpm": 77.000077000077}, {"time": 655, "qpm": 80.99997165000993}, {"time": 679, "qpm": 83.0000650167176}, {"time": 691, "qpm": 77.000077000077}, {"time": 703, "qpm": 78.000078000078}, {"time": 715, "qpm": 80.99997165000993}, {"time": 727, "qpm": 84.000084000084}, {"time": 751, "qpm": 78.9999657666815}, {"time": 787, "qpm": 75.99996960001216}, {"time": 799, "qpm": 80.0}, {"time": 811, "qpm": 78.000078000078}, {"time": 823, "qpm": 84.000084000084}, {"time": 835, "qpm": 77.000077000077}, {"time": 847, "qpm": 85.00004250002125}, {"time": 859, "qpm": 80.99997165000993}, {"time": 871, "qpm": 80.0}, {"time": 883, "qpm": 78.9999657666815}, {"time": 895, "qpm": 82.00014760026568}, {"time": 907, "qpm": 78.9999657666815}, {"time": 943, "qpm": 80.99997165000993}, {"time": 955, "qpm": 80.0}, {"time": 979, "qpm": 78.9999657666815}, {"time": 991, "qpm": 80.0}, {"time": 1015, "qpm": 80.99997165000993}, {"time": 1051, "qpm": 78.000078000078}, {"time": 1063, "qpm": 80.0}, {"time": 1123, "qpm": 78.9999657666815}, {"time": 1171, "qpm": 80.99997165000993}, {"time": 1195, "qpm": 82.00014760026568}, {"time": 1207, "qpm": 67.00002903334591}, {"time": 1219, "qpm": 60.0}, {"time": 1231, "qpm": 55.00000458333371}, {"time": 1243, "qpm": 58.00004253336452}, {"time": 1255, "qpm": 80.99997165000993}, {"time": 1267, "qpm": 77.000077000077}, {"time": 1303, "qpm": 80.99997165000993}, {"time": 1375, "qpm": 78.9999657666815}, {"time": 1447, "qpm": 82.00014760026568}, {"time": 1483, "qpm": 78.9999657666815}, {"time": 1531, "qpm": 77.000077000077}, {"time": 1543, "qpm": 82.00014760026568}, {"time": 1579, "qpm": 78.000078000078}, {"time": 1591, "qpm": 80.99997165000993}, {"time": 1663, "qpm": 78.000078000078}, {"time": 1687, "qpm": 83.0000650167176}, {"time": 1699, "qpm": 80.99997165000993}, {"time": 1711, "qpm": 77.000077000077}, {"time": 1735, "qpm": 83.0000650167176}, {"time": 1747, "qpm": 80.0}, {"time": 1867, "qpm": 78.000078000078}, {"time": 1879, "qpm": 75.0}, {"time": 1891, "qpm": 70.00007000007}, {"time": 1903, "qpm": 42.00001260000378}, {"time": 1927, "qpm": 87.00002175000543}, {"time": 1939, "qpm": 82.00014760026568}, {"time": 1957, "qpm": 75.0}, {"time": 1963, "qpm": 78.9999657666815}, {"time": 1987, "qpm": 77.000077000077}, {"time": 2011, "qpm": 83.0000650167176}, {"time": 2035, "qpm": 80.99997165000993}, {"time": 2047, "qpm": 75.99996960001216}, {"time": 2059, "qpm": 61.99999586666694}, {"time": 2071, "qpm": 53.000022083342536}, {"time": 2083, "qpm": 59.00006686674245}, {"time": 2095, "qpm": 48.9999918333347}, {"time": 2119, "qpm": 73.99998273333736}, {"time": 2143, "qpm": 85.00004250002125}, {"time": 2155, "qpm": 80.0}, {"time": 2179, "qpm": 75.0}, {"time": 2191, "qpm": 83.0000650167176}, {"time": 2215, "qpm": 80.0}, {"time": 2275, "qpm": 78.000078000078}, {"time": 2287, "qpm": 82.00014760026568}, {"time": 2311, "qpm": 78.000078000078}, {"time": 2323, "qpm": 82.00014760026568}, {"time": 2347, "qpm": 75.99996960001216}, {"time": 2359, "qpm": 78.000078000078}, {"time": 2383, "qpm": 85.00004250002125}, {"time": 2407, "qpm": 72.00011520018433}, {"time": 2419, "qpm": 82.00014760026568}, {"time": 2431, "qpm": 78.000078000078}, {"time": 2443, "qpm": 80.0}, {"time": 2455, "qpm": 78.9999657666815}, {"time": 2467, "qpm": 82.00014760026568}, {"time": 2479, "qpm": 78.000078000078}, {"time": 2491, "qpm": 67.00002903334591}, {"time": 2503, "qpm": 50.99998215000625}, {"time": 2515, "qpm": 77.000077000077}, {"time": 2527, "qpm": 80.99997165000993}, {"time": 2551, "qpm": 84.000084000084}, {"time": 2563, "qpm": 73.99998273333736}, {"time": 2575, "qpm": 82.00014760026568}, {"time": 2611, "qpm": 78.9999657666815}, {"time": 2623, "qpm": 77.000077000077}, {"time": 2647, "qpm": 83.0000650167176}, {"time": 2659, "qpm": 80.0}, {"time": 3283, "qpm": 77.000077000077}, {"time": 3295, "qpm": 78.9999657666815}, {"time": 3307, "qpm": 83.0000650167176}, {"time": 3319, "qpm": 80.99997165000993}, {"time": 3355, "qpm": 78.000078000078}, {"time": 3367, "qpm": 78.9999657666815}, {"time": 3391, "qpm": 83.0000650167176}, {"time": 3403, "qpm": 78.9999657666815}, {"time": 3439, "qpm": 80.99997165000993}, {"time": 3499, "qpm": 77.000077000077}, {"time": 3511, "qpm": 80.99997165000993}, {"time": 3559, "qpm": 78.9999657666815}, {"time": 3595, "qpm": 72.00011520018433}, {"time": 3607, "qpm": 68.0000725334107}, {"time": 3619, "qpm": 60.99997255001235}, {"time": 3631, "qpm": 98.99993565004183}, {"time": 3643, "qpm": 96.99995311668933}, {"time": 3655, "qpm": 78.9999657666815}, {"time": 3667, "qpm": 73.99998273333736}, {"time": 3691, "qpm": 89.00004005001803}, {"time": 3703, "qpm": 80.0}, {"time": 3751, "qpm": 82.00014760026568}, {"time": 3763, "qpm": 86.00005160003096}, {"time": 3775, "qpm": 73.00007178340392}, {"time": 3799, "qpm": 88.00002346667293}, {"time": 3823, "qpm": 82.00014760026568}, {"time": 3835, "qpm": 73.99998273333736}, {"time": 3859, "qpm": 87.00002175000543}, {"time": 3883, "qpm": 84.000084000084}, {"time": 3895, "qpm": 72.00011520018433}, {"time": 3907, "qpm": 75.99996960001216}, {"time": 3919, "qpm": 83.0000650167176}, {"time": 3931, "qpm": 80.99997165000993}, {"time": 3943, "qpm": 78.000078000078}, {"time": 3967, "qpm": 84.000084000084}, {"time": 3979, "qpm": 80.99997165000993}, {"time": 4003, "qpm": 75.0}, {"time": 4009, "qpm": 78.9999657666815}, {"time": 4039, "qpm": 85.00004250002125}, {"time": 4063, "qpm": 78.000078000078}, {"time": 4075, "qpm": 75.99996960001216}, {"time": 4087, "qpm": 80.99997165000993}, {"time": 4123, "qpm": 72.00011520018433}, {"time": 4135, "qpm": 78.9999657666815}, {"time": 4147, "qpm": 88.00002346667293}, {"time": 4159, "qpm": 78.9999657666815}, {"time": 4219, "qpm": 82.00014760026568}, {"time": 4279, "qpm": 75.99996960001216}, {"time": 4327, "qpm": 114.0001710002565}, {"time": 4375, "qpm": 68.0000725334107}, {"time": 4399, "qpm": 91.99998773333498}, {"time": 4411, "qpm": 84.000084000084}, {"time": 4423, "qpm": 78.000078000078}, {"time": 4459, "qpm": 60.99997255001235}, {"time": 4471, "qpm": 71.00011951686785}, {"time": 4483, "qpm": 80.0}, {"time": 4591, "qpm": 85.00004250002125}], "time_signatures": [{"time": 0, "numerator": 4, "denominator": 4}], "tracks": [{"program": 4, "is_drum": false, "name": "MELODY", "notes": [{"time": 487, "pitch": 74, "duration": 24, "velocity": 99}, {"time": 511, "pitch": 74, "duration": 6, "velocity": 97}, {"time": 517, "pitch": 75, "duration": 6, "velocity": 91}, {"time": 523, "pitch": 77, "duration": 12, "velocity": 80}, {"time": 535, "pitch": 70, "duration": 48, "velocity": 95}, {"time": 583, "pitch": 70, "duration": 24, "velocity": 93}, {"time": 607, "pitch": 69, "duration": 6, "velocity": 91}, {"time": 613, "pitch": 70, "duration": 6, "velocity": 85}, {"time": 619, "pitch": 72, "duration": 6, "velocity": 72}, {"time": 625, "pitch": 74, "duration": 51, "velocity": 82}, {"time": 679, "pitch": 67, "duration": 15, "velocity": 97}, {"time": 691, "pitch": 69, "duration": 6, "velocity": 91}, {"time": 697, "pitch": 70, "duration": 6, "velocity": 82}, {"time": 703, "pitch": 72, "duration": 6, "velocity": 99}, {"time": 709, "pitch": 72, "duration": 6, "velocity": 88}, {"time": 715, "pitch": 74, "duration": 6, "velocity": 95}, {"time": 721, "pitch": 75, "duration": 6, "velocity": 99}, {"time": 727, "pitch": 77, "duration": 12, "velocity": 95}, {"time": 739, "pitch": 74, "duration": 12, "velocity": 99}, {"time": 751, "pitch": 70, "duration": 30, "velocity": 80}, {"time": 781, "pitch": 67, "duration": 6, "velocity": 88}, {"time": 787, "pitch": 74, "duration": 6, "velocity": 82}, {"time": 793, "pitch": 70, "duration": 6, "velocity": 70}, {"time": 799, "pitch": 67, "duration": 12, "velocity": 93}, {"time": 811, "pitch": 74, "duration": 6, "velocity": 95}, {"time": 817, "pitch": 70, "duration": 6, "velocity": 75}, {"time": 823, "pitch": 72, "duration": 54, "velocity": 82}, {"time": 877, "pitch": 74, "duration": 6, "velocity": 82}, {"time": 883, "pitch": 74, "duration": 6, "velocity": 88}, {"time": 889, "pitch": 74, "duration": 6, "velocity": 88}, {"time": 895, "pitch": 74, "duration": 6, "velocity": 91}, {"time": 901, "pitch": 75, "duration": 6, "velocity": 85}, {"time": 907, "pitch": 77, "duration": 12, "velocity": 80}, {"time": 919, "pitch": 70, "duration": 54, "velocity": 95}, {"time": 973, "pitch": 70, "duration": 6, "velocity": 88}, {"time": 979, "pitch": 70, "duration": 6, "velocity": 91}, {"time": 985, "pitch": 70, "duration": 6, "velocity": 88}, {"time": 991, "pitch": 69, "duration": 6, "velocity": 99}, {"time": 997, "pitch": 70, "duration": 6, "velocity": 88}, {"time": 1003, "pitch": 72, "duration": 12, "velocity": 95}, {"time": 1015, "pitch": 72, "duration": 6, "velocity": 91}, {"time": 1021, "pitch": 74, "duration": 42, "velocity": 99}, {"time": 1063, "pitch": 67, "duration": 12, "velocity": 95}, {"time": 1075, "pitch": 69, "duration": 6, "velocity": 97}, {"time": 1081, "pitch": 70, "duration": 6, "velocity": 88}, {"time": 1087, "pitch": 72, "duration": 6, "velocity": 99}, {"time": 1093, "pitch": 72, "duration": 6, "velocity": 97}, {"time": 1099, "pitch": 74, "duration": 6, "velocity": 103}, {"time": 1105, "pitch": 75, "duration": 6, "velocity": 101}, {"time": 1111, "pitch": 74, "duration": 6, "velocity": 91}, {"time": 1117, "pitch": 77, "duration": 6, "velocity": 97}, {"time": 1123, "pitch": 77, "duration": 6, "velocity": 103}, {"time": 1129, "pitch": 74, "duration": 6, "velocity": 91}, {"time": 1135, "pitch": 70, "duration": 12, "velocity": 95}, {"time": 1147, "pitch": 74, "duration": 6, "velocity": 101}, {"time": 1153, "pitch": 70, "duration": 6, "velocity": 85}, {"time": 1159, "pitch": 67, "duration": 6, "velocity": 97}, {"time": 1165, "pitch": 75, "duration": 6, "velocity": 85}, {"time": 1171, "pitch": 75, "duration": 6, "velocity": 82}, {"time": 1177, "pitch": 67, "duration": 6, "velocity": 95}, {"time": 1183, "pitch": 69, "duration": 12, "velocity": 85}, {"time": 1195, "pitch": 72, "duration": 12, "velocity": 99}, {"time": 1207, "pitch": 70, "duration": 24, "velocity": 93}, {"time": 1231, "pitch": 70, "duration": 6, "velocity": 99}, {"time": 1237, "pitch": 72, "duration": 6, "velocity": 97}, {"time": 1243, "pitch": 74, "duration": 6, "velocity": 99}, {"time": 1249, "pitch": 75, "duration": 6, "velocity": 106}, {"time": 1255, "pitch": 77, "duration": 12, "velocity": 103}, {"time": 1267, "pitch": 82, "duration": 6, "velocity": 82}, {"time": 1273, "pitch": 81, "duration": 12, "velocity": 101}, {"time": 1285, "pitch": 77, "duration": 18, "velocity": 97}, {"time": 1303, "pitch": 77, "duration": 12, "velocity": 103}, {"time": 1315, "pitch": 82, "duration": 6, "velocity": 88}, {"time": 1321, "pitch": 81, "duration": 12, "velocity": 103}, {"time": 1333, "pitch": 82, "duration": 12, "velocity": 97}, {"time": 1345, "pitch": 77, "duration": 6, "velocity": 91}, {"time": 1351, "pitch": 79, "duration": 6, "velocity": 106}, {"time": 1357, "pitch": 79, "duration": 6, "velocity": 91}, {"time": 1363, "pitch": 79, "duration": 6, "velocity": 91}, {"time": 1369, "pitch": 70, "duration": 6, "velocity": 97}, {"time": 1375, "pitch": 69, "duration": 6, "velocity": 99}, {"time": 1381, "pitch": 79, "duration": 6, "velocity": 82}, {"time": 1387, "pitch": 77, "duration": 9, "velocity": 103}, {"time": 1396, "pitch": 75, "duration": 3, "velocity": 91}, {"time": 1399, "pitch": 77, "duration": 30, "velocity": 99}, {"time": 1429, "pitch": 74, "duration": 6, "velocity": 97}, {"time": 1435, "pitch": 74, "duration": 6, "velocity": 99}, {"time": 1441, "pitch": 72, "duration": 6, "velocity": 93}, {"time": 1447, "pitch": 74, "duration": 12, "velocity": 101}, {"time": 1459, "pitch": 81, "duration": 6, "velocity": 99}, {"time": 1465, "pitch": 81, "duration": 12, "velocity": 97}, {"time": 1477, "pitch": 74, "duration": 18, "velocity": 99}, {"time": 1495, "pitch": 74, "duration": 12, "velocity": 95}, {"time": 1507, "pitch": 82, "duration": 6, "velocity": 82}, {"time": 1513, "pitch": 81, "duration": 12, "velocity": 101}, {"time": 1525, "pitch": 79, "duration": 12, "velocity": 101}, {"time": 1537, "pitch": 77, "duration": 6, "velocity": 93}, {"time": 1543, "pitch": 79, "duration": 6, "velocity": 99}, {"time": 1549, "pitch": 79, "duration": 6, "velocity": 101}, {"time": 1555, "pitch": 79, "duration": 6, "velocity": 91}, {"time": 1561, "pitch": 79, "duration": 6, "velocity": 91}, {"time": 1567, "pitch": 79, "duration": 6, "velocity": 93}, {"time": 1573, "pitch": 81, "duration": 6, "velocity": 93}, {"time": 1579, "pitch": 82, "duration": 12, "velocity": 103}, {"time": 1591, "pitch": 79, "duration": 6, "velocity": 97}, {"time": 1597, "pitch": 77, "duration": 18, "velocity": 93}, {"time": 1615, "pitch": 70, "duration": 6, "velocity": 99}, {"time": 1621, "pitch": 72, "duration": 6, "velocity": 91}, {"time": 1627, "pitch": 74, "duration": 6, "velocity": 91}, {"time": 1633, "pitch": 75, "duration": 6, "velocity": 95}, {"time": 1639, "pitch": 77, "duration": 12, "velocity": 88}, {"time": 1651, "pitch": 82, "duration": 6, "velocity": 75}, {"time": 1657, "pitch": 81, "duration": 12, "velocity": 103}, {"time": 1669, "pitch": 77, "duration": 18, "velocity": 97}, {"time": 1687, "pitch": 77, "duration": 12, "velocity": 99}, {"time": 1699, "pitch": 82, "duration": 6, "velocity": 75}, {"time": 1705, "pitch": 81, "duration": 12, "velocity": 103}, {"time": 1717, "pitch": 82, "duration": 12, "velocity": 88}, {"time": 1729, "pitch": 77, "duration": 6, "velocity": 93}, {"time": 1735, "pitch": 79, "duration": 6, "velocity": 76}, {"time": 1741, "pitch": 79, "duration": 6, "velocity": 88}, {"time": 1747, "pitch": 79, "duration": 6, "velocity": 88}, {"time": 1753, "pitch": 79, "duration": 6, "velocity": 88}, {"time": 1759, "pitch": 81, "duration": 6, "velocity": 97}, {"time": 1765, "pitch": 82, "duration": 6, "velocity": 93}, {"time": 1771, "pitch": 84, "duration": 12, "velocity": 88}, {"time": 1783, "pitch": 77, "duration": 30, "velocity": 99}, {"time": 1813, "pitch": 74, "duration": 6, "velocity": 82}, {"time": 1819, "pitch": 74, "duration": 6, "velocity": 91}, {"time": 1825, "pitch": 72, "duration": 6, "velocity": 76}, {"time": 1831, "pitch": 74, "duration": 12, "velocity": 95}, {"time": 1843, "pitch": 81, "duration": 6, "velocity": 95}, {"time": 1849, "pitch": 81, "duration": 12, "velocity": 97}, {"time": 1861, "pitch": 74, "duration": 12, "velocity": 97}, {"time": 1873, "pitch": 72, "duration": 6, "velocity": 85}, {"time": 1879, "pitch": 74, "duration": 6, "velocity": 82}, {"time": 1885, "pitch": 82, "duration": 6, "velocity": 72}, {"time": 1891, "pitch": 82, "duration": 6, "velocity": 73}, {"time": 1897, "pitch": 81, "duration": 9, "velocity": 97}, {"time": 1906, "pitch": 82, "duration": 21, "velocity": 75}, {"time": 1927, "pitch": 79, "duration": 12, "velocity": 88}, {"time": 1939, "pitch": 70, "duration": 6, "velocity": 97}, {"time": 1945, "pitch": 70, "duration": 12, "velocity": 93}, {"time": 1957, "pitch": 79, "duration": 18, "velocity": 80}, {"time": 1975, "pitch": 77, "duration": 24, "velocity": 99}, {"time": 1999, "pitch": 75, "duration": 6, "velocity": 78}, {"time": 2005, "pitch": 74, "duration": 6, "velocity": 95}, {"time": 2005, "pitch": 75, "duration": 6, "velocity": 46}, {"time": 2011, "pitch": 67, "duration": 6, "velocity": 80}, {"time": 2017, "pitch": 70, "duration": 132, "velocity": 69}, {"time": 2149, "pitch": 74, "duration": 6, "velocity": 82}, {"time": 2155, "pitch": 74, "duration": 6, "velocity": 82}, {"time": 2161, "pitch": 74, "duration": 6, "velocity": 78}, {"time": 2167, "pitch": 74, "duration": 6, "velocity": 88}, {"time": 2173, "pitch": 75, "duration": 6, "velocity": 80}, {"time": 2179, "pitch": 77, "duration": 12, "velocity": 99}, {"time": 2191, "pitch": 70, "duration": 54, "velocity": 93}, {"time": 2245, "pitch": 70, "duration": 6, "velocity": 88}, {"time": 2251, "pitch": 70, "duration": 6, "velocity": 80}, {"time": 2257, "pitch": 70, "duration": 6, "velocity": 85}, {"time": 2263, "pitch": 69, "duration": 6, "velocity": 91}, {"time": 2269, "pitch": 70, "duration": 6, "velocity": 70}, {"time": 2275, "pitch": 72, "duration": 12, "velocity": 91}, {"time": 2287, "pitch": 72, "duration": 6, "velocity": 99}, {"time": 2293, "pitch": 74, "duration": 42, "velocity": 95}, {"time": 2335, "pitch": 67, "duration": 12, "velocity": 93}, {"time": 2347, "pitch": 69, "duration": 6, "velocity": 85}, {"time": 2353, "pitch": 70, "duration": 6, "velocity": 80}, {"time": 2359, "pitch": 72, "duration": 6, "velocity": 95}, {"time": 2365, "pitch": 72, "duration": 6, "velocity": 95}, {"time": 2371, "pitch": 74, "duration": 6, "velocity": 95}, {"time": 2377, "pitch": 75, "duration": 6, "velocity": 95}, {"time": 2383, "pitch": 74, "duration": 6, "velocity": 85}, {"time": 2389, "pitch": 77, "duration": 6, "velocity": 93}, {"time": 2395, "pitch": 77, "duration": 6, "velocity": 91}, {"time": 2401, "pitch": 74, "duration": 6, "velocity": 88}, {"time": 2407, "pitch": 70, "duration": 12, "velocity": 91}, {"time": 2419, "pitch": 74, "duration": 6, "velocity": 91}, {"time": 2425, "pitch": 70, "duration": 6, "velocity": 82}, {"time": 2431, "pitch": 67, "duration": 6, "velocity": 85}, {"time": 2437, "pitch": 75, "duration": 6, "velocity": 72}, {"time": 2443, "pitch": 75, "duration": 6, "velocity": 80}, {"time": 2449, "pitch": 67, "duration": 6, "velocity": 91}, {"time": 2455, "pitch": 69, "duration": 12, "velocity": 82}, {"time": 2467, "pitch": 72, "duration": 12, "velocity": 97}, {"time": 2479, "pitch": 70, "duration": 24, "velocity": 95}, {"time": 2503, "pitch": 70, "duration": 6, "velocity": 99}, {"time": 2509, "pitch": 72, "duration": 6, "velocity": 93}, {"time": 2515, "pitch": 74, "duration": 9, "velocity": 85}, {"time": 2524, "pitch": 75, "duration": 6, "velocity": 97}, {"time": 2530, "pitch": 77, "duration": 9, "velocity": 78}, {"time": 2539, "pitch": 82, "duration": 6, "velocity": 82}, {"time": 2545, "pitch": 81, "duration": 12, "velocity": 101}, {"time": 2557, "pitch": 77, "duration": 18, "velocity": 97}, {"time": 2575, "pitch": 77, "duration": 12, "velocity": 103}, {"time": 2587, "pitch": 82, "duration": 6, "velocity": 88}, {"time": 2593, "pitch": 81, "duration": 12, "velocity": 103}, {"time": 2605, "pitch": 82, "duration": 12, "velocity": 97}, {"time": 2617, "pitch": 77, "duration": 6, "velocity": 91}, {"time": 2623, "pitch": 79, "duration": 6, "velocity": 106}, {"time": 2629, "pitch": 79, "duration": 6, "velocity": 91}, {"time": 2635, "pitch": 79, "duration": 6, "velocity": 91}, {"time": 2641, "pitch": 70, "duration": 6, "velocity": 97}, {"time": 2647, "pitch": 69, "duration": 6, "velocity": 99}, {"time": 2653, "pitch": 79, "duration": 6, "velocity": 82}, {"time": 2659, "pitch": 77, "duration": 9, "velocity": 103}, {"time": 2668, "pitch": 75, "duration": 3, "velocity": 91}, {"time": 2671, "pitch": 77, "duration": 30, "velocity": 99}, {"time": 2701, "pitch": 74, "duration": 6, "velocity": 97}, {"time": 2707, "pitch": 74, "duration": 6, "velocity": 99}, {"time": 2713, "pitch": 72, "duration": 6, "velocity": 93}, {"time": 2719, "pitch": 74, "duration": 12, "velocity": 101}, {"time": 2731, "pitch": 81, "duration": 6, "velocity": 99}, {"time": 2737, "pitch": 81, "duration": 12, "velocity": 97}, {"time": 2749, "pitch": 74, "duration": 18, "velocity": 99}, {"time": 2767, "pitch": 74, "duration": 12, "velocity": 95}, {"time": 2779, "pitch": 82, "duration": 6, "velocity": 82}, {"time": 2785, "pitch": 81, "duration": 12, "velocity": 101}, {"time": 2797, "pitch": 79, "duration": 12, "velocity": 101}, {"time": 2809, "pitch": 77, "duration": 6, "velocity": 93}, {"time": 2815, "pitch": 79, "duration": 6, "velocity": 99}, {"time": 2821, "pitch": 79, "duration": 6, "velocity": 101}, {"time": 2827, "pitch": 79, "duration": 6, "velocity": 91}, {"time": 2833, "pitch": 79, "duration": 6, "velocity": 91}, {"time": 2839, "pitch": 79, "duration": 6, "velocity": 93}, {"time": 2845, "pitch": 81, "duration": 6, "velocity": 93}, {"time": 2851, "pitch": 82, "duration": 12, "velocity": 103}, {"time": 2863, "pitch": 79, "duration": 6, "velocity": 97}, {"time": 2869, "pitch": 77, "duration": 18, "velocity": 93}, {"time": 2887, "pitch": 70, "duration": 6, "velocity": 99}, {"time": 2893, "pitch": 72, "duration": 6, "velocity": 91}, {"time": 2899, "pitch": 74, "duration": 6, "velocity": 91}, {"time": 2905, "pitch": 75, "duration": 6, "velocity": 95}, {"time": 2911, "pitch": 77, "duration": 12, "velocity": 88}, {"time": 2923, "pitch": 82, "duration": 6, "velocity": 75}, {"time": 2929, "pitch": 81, "duration": 12, "velocity": 103}, {"time": 2941, "pitch": 77, "duration": 18, "velocity": 97}, {"time": 2959, "pitch": 77, "duration": 12, "velocity": 99}, {"time": 2971, "pitch": 82, "duration": 6, "velocity": 75}, {"time": 2977, "pitch": 81, "duration": 12, "velocity": 103}, {"time": 2989, "pitch": 82, "duration": 12, "velocity": 88}, {"time": 3001, "pitch": 77, "duration": 6, "velocity": 93}, {"time": 3007, "pitch": 79, "duration": 6, "velocity": 76}, {"time": 3013, "pitch": 79, "duration": 6, "velocity": 88}, {"time": 3019, "pitch": 79, "duration": 6, "velocity": 88}, {"time": 3025, "pitch": 79, "duration": 6, "velocity": 88}, {"time": 3031, "pitch": 81, "duration": 6, "velocity": 97}, {"time": 3037, "pitch": 82, "duration": 6, "velocity": 93}, {"time": 3043, "pitch": 84, "duration": 12, "velocity": 88}, {"time": 3055, "pitch": 77, "duration": 30, "velocity": 99}, {"time": 3085, "pitch": 74, "duration": 6, "velocity": 82}, {"time": 3091, "pitch": 74, "duration": 6, "velocity": 91}, {"time": 3097, "pitch": 72, "duration": 6, "velocity": 76}, {"time": 3103, "pitch": 74, "duration": 12, "velocity": 95}, {"time": 3115, "pitch": 81, "duration": 6, "velocity": 95}, {"time": 3121, "pitch": 81, "duration": 12, "velocity": 97}, {"time": 3133, "pitch": 74, "duration": 12, "velocity": 97}, {"time": 3145, "pitch": 72, "duration": 6, "velocity": 85}, {"time": 3151, "pitch": 74, "duration": 6, "velocity": 82}, {"time": 3157, "pitch": 82, "duration": 6, "velocity": 72}, {"time": 3163, "pitch": 82, "duration": 6, "velocity": 73}, {"time": 3169, "pitch": 81, "duration": 9, "velocity": 97}, {"time": 3178, "pitch": 82, "duration": 21, "velocity": 75}, {"time": 3223, "pitch": 79, "duration": 12, "velocity": 88}, {"time": 3235, "pitch": 70, "duration": 6, "velocity": 97}, {"time": 3241, "pitch": 70, "duration": 12, "velocity": 93}, {"time": 3253, "pitch": 79, "duration": 18, "velocity": 80}, {"time": 3271, "pitch": 77, "duration": 24, "velocity": 99}, {"time": 3295, "pitch": 75, "duration": 6, "velocity": 78}, {"time": 3301, "pitch": 74, "duration": 6, "velocity": 95}, {"time": 3307, "pitch": 67, "duration": 6, "velocity": 80}, {"time": 3313, "pitch": 70, "duration": 54, "velocity": 69}, {"time": 3625, "pitch": 70, "duration": 12, "velocity": 99}, {"time": 3631, "pitch": 72, "duration": 6, "velocity": 93}, {"time": 3637, "pitch": 74, "duration": 9, "velocity": 85}, {"time": 3646, "pitch": 75, "duration": 6, "velocity": 97}, {"time": 3655, "pitch": 77, "duration": 9, "velocity": 78}, {"time": 3667, "pitch": 82, "duration": 6, "velocity": 82}, {"time": 3673, "pitch": 81, "duration": 12, "velocity": 101}, {"time": 3685, "pitch": 77, "duration": 18, "velocity": 97}, {"time": 3703, "pitch": 77, "duration": 12, "velocity": 103}, {"time": 3715, "pitch": 82, "duration": 6, "velocity": 88}, {"time": 3721, "pitch": 81, "duration": 12, "velocity": 103}, {"time": 3733, "pitch": 82, "duration": 12, "velocity": 97}, {"time": 3745, "pitch": 77, "duration": 6, "velocity": 91}, {"time": 3751, "pitch": 79, "duration": 6, "velocity": 106}, {"time": 3757, "pitch": 79, "duration": 6, "velocity": 91}, {"time": 3763, "pitch": 79, "duration": 6, "velocity": 91}, {"time": 3769, "pitch": 70, "duration": 6, "velocity": 97}, {"time": 3775, "pitch": 69, "duration": 6, "velocity": 99}, {"time": 3781, "pitch": 79, "duration": 6, "velocity": 82}, {"time": 3787, "pitch": 77, "duration": 9, "velocity": 103}, {"time": 3796, "pitch": 75, "duration": 3, "velocity": 91}, {"time": 3799, "pitch": 77, "duration": 30, "velocity": 99}, {"time": 3829, "pitch": 74, "duration": 6, "velocity": 97}, {"time": 3835, "pitch": 74, "duration": 6, "velocity": 99}, {"time": 3841, "pitch": 72, "duration": 6, "velocity": 93}, {"time": 3847, "pitch": 74, "duration": 12, "velocity": 101}, {"time": 3859, "pitch": 81, "duration": 6, "velocity": 99}, {"time": 3865, "pitch": 81, "duration": 12, "velocity": 97}, {"time": 3877, "pitch": 74, "duration": 18, "velocity": 99}, {"time": 3895, "pitch": 74, "duration": 12, "velocity": 95}, {"time": 3907, "pitch": 82, "duration": 6, "velocity": 82}, {"time": 3913, "pitch": 81, "duration": 12, "velocity": 101}, {"time": 3925, "pitch": 79, "duration": 12, "velocity": 101}, {"time": 3937, "pitch": 77, "duration": 6, "velocity": 93}, {"time": 3943, "pitch": 79, "duration": 6, "velocity": 99}, {"time": 3949, "pitch": 79, "duration": 6, "velocity": 101}, {"time": 3955, "pitch": 79, "duration": 6, "velocity": 91}, {"time": 3961, "pitch": 79, "duration": 6, "velocity": 91}, {"time": 3967, "pitch": 79, "duration": 6, "velocity": 93}, {"time": 3973, "pitch": 81, "duration": 6, "velocity": 93}, {"time": 3979, "pitch": 82, "duration": 12, "velocity": 103}, {"time": 3991, "pitch": 79, "duration": 6, "velocity": 97}, {"time": 3997, "pitch": 77, "duration": 18, "velocity": 93}, {"time": 4015, "pitch": 70, "duration": 6, "velocity": 99}, {"time": 4021, "pitch": 72, "duration": 6, "velocity": 91}, {"time": 4027, "pitch": 74, "duration": 6, "velocity": 91}, {"time": 4033, "pitch": 75, "duration": 6, "velocity": 95}, {"time": 4039, "pitch": 77, "duration": 12, "velocity": 88}, {"time": 4051, "pitch": 82, "duration": 6, "velocity": 75}, {"time": 4057, "pitch": 81, "duration": 12, "velocity": 103}, {"time": 4069, "pitch": 77, "duration": 18, "velocity": 97}, {"time": 4087, "pitch": 77, "duration": 12, "velocity": 99}, {"time": 4099, "pitch": 82, "duration": 6, "velocity": 75}, {"time": 4105, "pitch": 81, "duration": 12, "velocity": 103}, {"time": 4117, "pitch": 82, "duration": 12, "velocity": 88}, {"time": 4129, "pitch": 77, "duration": 6, "velocity": 93}, {"time": 4135, "pitch": 79, "duration": 6, "velocity": 76}, {"time": 4141, "pitch": 79, "duration": 6, "velocity": 88}, {"time": 4147, "pitch": 79, "duration": 6, "velocity": 88}, {"time": 4153, "pitch": 79, "duration": 6, "velocity": 88}, {"time": 4159, "pitch": 81, "duration": 6, "velocity": 97}, {"time": 4165, "pitch": 82, "duration": 6, "velocity": 93}, {"time": 4171, "pitch": 84, "duration": 12, "velocity": 88}, {"time": 4183, "pitch": 77, "duration": 30, "velocity": 99}, {"time": 4213, "pitch": 74, "duration": 6, "velocity": 82}, {"time": 4219, "pitch": 74, "duration": 6, "velocity": 91}, {"time": 4225, "pitch": 72, "duration": 6, "velocity": 76}, {"time": 4231, "pitch": 74, "duration": 12, "velocity": 95}, {"time": 4243, "pitch": 81, "duration": 6, "velocity": 95}, {"time": 4249, "pitch": 81, "duration": 12, "velocity": 97}, {"time": 4261, "pitch": 74, "duration": 12, "velocity": 97}, {"time": 4273, "pitch": 72, "duration": 6, "velocity": 85}, {"time": 4279, "pitch": 74, "duration": 6, "velocity": 82}, {"time": 4285, "pitch": 82, "duration": 6, "velocity": 72}, {"time": 4291, "pitch": 82, "duration": 6, "velocity": 73}, {"time": 4297, "pitch": 81, "duration": 9, "velocity": 97}, {"time": 4303, "pitch": 84, "duration": 9, "velocity": 85}, {"time": 4306, "pitch": 82, "duration": 21, "velocity": 75}, {"time": 4375, "pitch": 79, "duration": 12, "velocity": 88}, {"time": 4387, "pitch": 70, "duration": 6, "velocity": 97}, {"time": 4393, "pitch": 70, "duration": 12, "velocity": 93}, {"time": 4405, "pitch": 79, "duration": 18, "velocity": 80}, {"time": 4423, "pitch": 77, "duration": 24, "velocity": 99}]}, {"program": 0, "is_drum": false, "name": "PIANO", "notes": [{"time": 103, "pitch": 46, "duration": 6, "velocity": 73}, {"time": 109, "pitch": 53, "duration": 6, "velocity": 46}, {"time": 115, "pitch": 60, "duration": 6, "velocity": 88}, {"time": 121, "pitch": 65, "duration": 30, "velocity": 78}, {"time": 151, "pitch": 46, "duration": 6, "velocity": 69}, {"time": 157, "pitch": 53, "duration": 6, "velocity": 63}, {"time": 163, "pitch": 60, "duration": 6, "velocity": 76}, {"time": 169, "pitch": 63, "duration": 18, "velocity": 101}, {"time": 199, "pitch": 44, "duration": 24, "velocity": 72}, {"time": 205, "pitch": 51, "duration": 18, "velocity": 48}, {"time": 211, "pitch": 56, "duration": 11, "velocity": 88}, {"time": 217, "pitch": 63, "duration": 6, "velocity": 70}, {"time": 223, "pitch": 56, "duration": 6, "velocity": 69}, {"time": 229, "pitch": 62, "duration": 15, "velocity": 72}, {"time": 247, "pitch": 44, "duration": 40, "velocity": 85}, {"time": 253, "pitch": 56, "duration": 19, "velocity": 75}, {"time": 259, "pitch": 60, "duration": 20, "velocity": 58}, {"time": 265, "pitch": 63, "duration": 14, "velocity": 64}, {"time": 277, "pitch": 56, "duration": 7, "velocity": 57}, {"time": 283, "pitch": 60, "duration": 5, "velocity": 99}, {"time": 289, "pitch": 63, "duration": 4, "velocity": 73}, {"time": 295, "pitch": 42, "duration": 40, "velocity": 75}, {"time": 295, "pitch": 49, "duration": 7, "velocity": 79}, {"time": 295, "pitch": 58, "duration": 7, "velocity": 87}, {"time": 295, "pitch": 61, "duration": 8, "velocity": 77}, {"time": 301, "pitch": 54, "duration": 18, "velocity": 84}, {"time": 307, "pitch": 58, "duration": 7, "velocity": 76}, {"time": 313, "pitch": 61, "duration": 14, "velocity": 82}, {"time": 325, "pitch": 54, "duration": 17, "velocity": 88}, {"time": 331, "pitch": 58, "duration": 4, "velocity": 85}, {"time": 334, "pitch": 60, "duration": 4, "velocity": 66}, {"time": 337, "pitch": 61, "duration": 5, "velocity": 82}, {"time": 340, "pitch": 63, "duration": 3, "velocity": 69}, {"time": 343, "pitch": 42, "duration": 40, "velocity": 75}, {"time": 343, "pitch": 58, "duration": 8, "velocity": 78}, {"time": 343, "pitch": 61, "duration": 9, "velocity": 59}, {"time": 343, "pitch": 65, "duration": 9, "velocity": 72}, {"time": 349, "pitch": 54, "duration": 11, "velocity": 69}, {"time": 355, "pitch": 58, "duration": 4, "velocity": 73}, {"time": 355, "pitch": 63, "duration": 6, "velocity": 75}, {"time": 361, "pitch": 54, "duration": 5, "velocity": 66}, {"time": 361, "pitch": 58, "duration": 13, "velocity": 75}, {"time": 361, "pitch": 61, "duration": 13, "velocity": 91}, {"time": 373, "pitch": 54, "duration": 11, "velocity": 91}, {"time": 379, "pitch": 58, "duration": 5, "velocity": 76}, {"time": 379, "pitch": 61, "duration": 4, "velocity": 101}, {"time": 391, "pitch": 41, "duration": 79, "velocity": 75}, {"time": 391, "pitch": 57, "duration": 5, "velocity": 49}, {"time": 391, "pitch": 65, "duration": 9, "velocity": 75}, {"time": 397, "pitch": 48, "duration": 37, "velocity": 72}, {"time": 400, "pitch": 53, "duration": 35, "velocity": 69}, {"time": 403, "pitch": 58, "duration": 4, "velocity": 72}, {"time": 406, "pitch": 60, "duration": 2, "velocity": 62}, {"time": 409, "pitch": 65, "duration": 2, "velocity": 67}, {"time": 412, "pitch": 70, "duration": 4, "velocity": 50}, {"time": 415, "pitch": 72, "duration": 3, "velocity": 63}, {"time": 418, "pitch": 77, "duration": 4, "velocity": 69}, {"time": 421, "pitch": 72, "duration": 4, "velocity": 55}, {"time": 424, "pitch": 70, "duration": 3, "velocity": 53}, {"time": 427, "pitch": 65, "duration": 2, "velocity": 59}, {"time": 430, "pitch": 63, "duration": 4, "velocity": 78}, {"time": 433, "pitch": 60, "duration": 3, "velocity": 60}, {"time": 436, "pitch": 58, "duration": 5, "velocity": 64}, {"time": 439, "pitch": 53, "duration": 18, "velocity": 69}, {"time": 463, "pitch": 77, "duration": 5, "velocity": 45}, {"time": 487, "pitch": 58, "duration": 25, "velocity": 58}, {"time": 493, "pitch": 65, "duration": 18, "velocity": 59}, {"time": 499, "pitch": 70, "duration": 11, "velocity": 62}, {"time": 505, "pitch": 74, "duration": 8, "velocity": 64}, {"time": 511, "pitch": 57, "duration": 19, "velocity": 51}, {"time": 517, "pitch": 60, "duration": 19, "velocity": 47}, {"time": 523, "pitch": 65, "duration": 12, "velocity": 66}, {"time": 529, "pitch": 72, "duration": 9, "velocity": 72}, {"time": 535, "pitch": 55, "duration": 38, "velocity": 61}, {"time": 541, "pitch": 62, "duration": 7, "velocity": 59}, {"time": 547, "pitch": 67, "duration": 6, "velocity": 57}, {"time": 553, "pitch": 69, "duration": 6, "velocity": 55}, {"time": 559, "pitch": 62, "duration": 26, "velocity": 46}, {"time": 559, "pitch": 70, "duration": 26, "velocity": 67}, {"time": 583, "pitch": 51, "duration": 26, "velocity": 80}, {"time": 589, "pitch": 58, "duration": 18, "velocity": 64}, {"time": 595, "pitch": 63, "duration": 12, "velocity": 66}, {"time": 601, "pitch": 70, "duration": 13, "velocity": 52}, {"time": 607, "pitch": 53, "duration": 23, "velocity": 72}, {"time": 613, "pitch": 60, "duration": 12, "velocity": 53}, {"time": 619, "pitch": 65, "duration": 6, "velocity": 62}, {"time": 625, "pitch": 69, "duration": 6, "velocity": 57}, {"time": 631, "pitch": 46, "duration": 39, "velocity": 57}, {"time": 631, "pitch": 62, "duration": 13, "velocity": 61}, {"time": 631, "pitch": 70, "duration": 15, "velocity": 69}, {"time": 637, "pitch": 53, "duration": 33, "velocity": 57}, {"time": 643, "pitch": 58, "duration": 27, "velocity": 49}, {"time": 649, "pitch": 65, "duration": 6, "velocity": 60}, {"time": 655, "pitch": 62, "duration": 15, "velocity": 44}, {"time": 679, "pitch": 51, "duration": 25, "velocity": 70}, {"time": 685, "pitch": 58, "duration": 6, "velocity": 60}, {"time": 691, "pitch": 63, "duration": 6, "velocity": 59}, {"time": 697, "pitch": 67, "duration": 6, "velocity": 61}, {"time": 703, "pitch": 53, "duration": 17, "velocity": 64}, {"time": 703, "pitch": 60, "duration": 19, "velocity": 54}, {"time": 703, "pitch": 65, "duration": 7, "velocity": 64}, {"time": 703, "pitch": 69, "duration": 7, "velocity": 66}, {"time": 715, "pitch": 72, "duration": 6, "velocity": 64}, {"time": 721, "pitch": 69, "duration": 6, "velocity": 55}, {"time": 727, "pitch": 50, "duration": 15, "velocity": 73}, {"time": 727, "pitch": 60, "duration": 9, "velocity": 55}, {"time": 727, "pitch": 65, "duration": 9, "velocity": 62}, {"time": 733, "pitch": 57, "duration": 8, "velocity": 59}, {"time": 739, "pitch": 67, "duration": 6, "velocity": 50}, {"time": 745, "pitch": 69, "duration": 6, "velocity": 64}, {"time": 751, "pitch": 43, "duration": 14, "velocity": 54}, {"time": 751, "pitch": 62, "duration": 13, "velocity": 54}, {"time": 751, "pitch": 65, "duration": 15, "velocity": 59}, {"time": 751, "pitch": 70, "duration": 15, "velocity": 67}, {"time": 775, "pitch": 48, "duration": 26, "velocity": 66}, {"time": 775, "pitch": 58, "duration": 8, "velocity": 60}, {"time": 775, "pitch": 63, "duration": 8, "velocity": 58}, {"time": 775, "pitch": 67, "duration": 8, "velocity": 58}, {"time": 781, "pitch": 55, "duration": 17, "velocity": 48}, {"time": 787, "pitch": 58, "duration": 6, "velocity": 62}, {"time": 793, "pitch": 63, "duration": 6, "velocity": 61}, {"time": 799, "pitch": 52, "duration": 17, "velocity": 69}, {"time": 799, "pitch": 60, "duration": 17, "velocity": 63}, {"time": 799, "pitch": 64, "duration": 14, "velocity": 70}, {"time": 811, "pitch": 67, "duration": 3, "velocity": 69}, {"time": 823, "pitch": 41, "duration": 39, "velocity": 66}, {"time": 823, "pitch": 60, "duration": 10, "velocity": 54}, {"time": 823, "pitch": 65, "duration": 9, "velocity": 51}, {"time": 823, "pitch": 69, "duration": 10, "velocity": 55}, {"time": 829, "pitch": 48, "duration": 33, "velocity": 54}, {"time": 835, "pitch": 53, "duration": 27, "velocity": 48}, {"time": 841, "pitch": 63, "duration": 6, "velocity": 53}, {"time": 847, "pitch": 60, "duration": 8, "velocity": 52}, {"time": 847, "pitch": 65, "duration": 6, "velocity": 52}, {"time": 859, "pitch": 69, "duration": 6, "velocity": 50}, {"time": 871, "pitch": 46, "duration": 16, "velocity": 69}, {"time": 871, "pitch": 62, "duration": 11, "velocity": 63}, {"time": 871, "pitch": 70, "duration": 11, "velocity": 67}, {"time": 877, "pitch": 53, "duration": 14, "velocity": 55}, {"time": 883, "pitch": 58, "duration": 4, "velocity": 72}, {"time": 889, "pitch": 70, "duration": 6, "velocity": 61}, {"time": 895, "pitch": 45, "duration": 13, "velocity": 59}, {"time": 895, "pitch": 60, "duration": 8, "velocity": 53}, {"time": 895, "pitch": 65, "duration": 9, "velocity": 64}, {"time": 901, "pitch": 53, "duration": 7, "velocity": 49}, {"time": 907, "pitch": 57, "duration": 5, "velocity": 61}, {"time": 913, "pitch": 67, "duration": 4, "velocity": 48}, {"time": 916, "pitch": 69, "duration": 5, "velocity": 58}, {"time": 919, "pitch": 55, "duration": 18, "velocity": 60}, {"time": 919, "pitch": 70, "duration": 5, "velocity": 73}, {"time": 925, "pitch": 62, "duration": 16, "velocity": 52}, {"time": 931, "pitch": 67, "duration": 5, "velocity": 61}, {"time": 937, "pitch": 74, "duration": 3, "velocity": 51}, {"time": 937, "pitch": 82, "duration": 8, "velocity": 59}, {"time": 943, "pitch": 53, "duration": 18, "velocity": 50}, {"time": 943, "pitch": 72, "duration": 8, "velocity": 57}, {"time": 943, "pitch": 81, "duration": 6, "velocity": 60}, {"time": 949, "pitch": 62, "duration": 11, "velocity": 44}, {"time": 955, "pitch": 65, "duration": 3, "velocity": 47}, {"time": 955, "pitch": 77, "duration": 4, "velocity": 59}, {"time": 961, "pitch": 74, "duration": 5, "velocity": 58}, {"time": 967, "pitch": 51, "duration": 23, "velocity": 64}, {"time": 967, "pitch": 67, "duration": 9, "velocity": 44}, {"time": 967, "pitch": 75, "duration": 11, "velocity": 67}, {"time": 970, "pitch": 70, "duration": 8, "velocity": 18}, {"time": 973, "pitch": 58, "duration": 14, "velocity": 48}, {"time": 979, "pitch": 63, "duration": 5, "velocity": 67}, {"time": 985, "pitch": 70, "duration": 5, "velocity": 59}, {"time": 991, "pitch": 53, "duration": 18, "velocity": 50}, {"time": 991, "pitch": 60, "duration": 8, "velocity": 54}, {"time": 991, "pitch": 65, "duration": 8, "velocity": 49}, {"time": 991, "pitch": 69, "duration": 8, "velocity": 66}, {"time": 997, "pitch": 57, "duration": 11, "velocity": 55}, {"time": 1003, "pitch": 65, "duration": 6, "velocity": 58}, {"time": 1009, "pitch": 69, "duration": 6, "velocity": 58}, {"time": 1015, "pitch": 46, "duration": 44, "velocity": 67}, {"time": 1015, "pitch": 62, "duration": 13, "velocity": 53}, {"time": 1015, "pitch": 65, "duration": 11, "velocity": 56}, {"time": 1015, "pitch": 70, "duration": 19, "velocity": 72}, {"time": 1021, "pitch": 53, "duration": 36, "velocity": 52}, {"time": 1027, "pitch": 58, "duration": 19, "velocity": 48}, {"time": 1033, "pitch": 60, "duration": 13, "velocity": 55}, {"time": 1039, "pitch": 62, "duration": 7, "velocity": 57}, {"time": 1045, "pitch": 65, "duration": 5, "velocity": 52}, {"time": 1051, "pitch": 58, "duration": 4, "velocity": 44}, {"time": 1051, "pitch": 70, "duration": 7, "velocity": 62}, {"time": 1054, "pitch": 69, "duration": 3, "velocity": 61}, {"time": 1057, "pitch": 65, "duration": 4, "velocity": 53}, {"time": 1060, "pitch": 62, "duration": 3, "velocity": 60}, {"time": 1063, "pitch": 51, "duration": 24, "velocity": 58}, {"time": 1063, "pitch": 58, "duration": 8, "velocity": 69}, {"time": 1063, "pitch": 63, "duration": 7, "velocity": 56}, {"time": 1069, "pitch": 55, "duration": 10, "velocity": 61}, {"time": 1075, "pitch": 58, "duration": 4, "velocity": 64}, {"time": 1081, "pitch": 63, "duration": 4, "velocity": 60}, {"time": 1084, "pitch": 65, "duration": 3, "velocity": 64}, {"time": 1087, "pitch": 53, "duration": 16, "velocity": 50}, {"time": 1087, "pitch": 60, "duration": 8, "velocity": 61}, {"time": 1087, "pitch": 69, "duration": 8, "velocity": 64}, {"time": 1093, "pitch": 57, "duration": 13, "velocity": 55}, {"time": 1099, "pitch": 62, "duration": 3, "velocity": 63}, {"time": 1099, "pitch": 70, "duration": 3, "velocity": 63}, {"time": 1105, "pitch": 63, "duration": 2, "velocity": 48}, {"time": 1105, "pitch": 72, "duration": 3, "velocity": 56}, {"time": 1111, "pitch": 50, "duration": 15, "velocity": 67}, {"time": 1111, "pitch": 60, "duration": 7, "velocity": 59}, {"time": 1111, "pitch": 65, "duration": 9, "velocity": 56}, {"time": 1111, "pitch": 69, "duration": 8, "velocity": 59}, {"time": 1117, "pitch": 57, "duration": 9, "velocity": 49}, {"time": 1123, "pitch": 65, "duration": 4, "velocity": 72}, {"time": 1129, "pitch": 69, "duration": 6, "velocity": 51}, {"time": 1135, "pitch": 43, "duration": 8, "velocity": 63}, {"time": 1135, "pitch": 62, "duration": 8, "velocity": 54}, {"time": 1135, "pitch": 65, "duration": 8, "velocity": 49}, {"time": 1135, "pitch": 70, "duration": 11, "velocity": 70}, {"time": 1141, "pitch": 50, "duration": 8, "velocity": 56}, {"time": 1147, "pitch": 41, "duration": 12, "velocity": 70}, {"time": 1147, "pitch": 60, "duration": 7, "velocity": 63}, {"time": 1147, "pitch": 69, "duration": 6, "velocity": 61}, {"time": 1159, "pitch": 51, "duration": 16, "velocity": 63}, {"time": 1159, "pitch": 58, "duration": 9, "velocity": 69}, {"time": 1159, "pitch": 63, "duration": 9, "velocity": 66}, {"time": 1159, "pitch": 67, "duration": 10, "velocity": 67}, {"time": 1168, "pitch": 55, "duration": 8, "velocity": 52}, {"time": 1171, "pitch": 58, "duration": 5, "velocity": 66}, {"time": 1177, "pitch": 63, "duration": 5, "velocity": 62}, {"time": 1183, "pitch": 41, "duration": 14, "velocity": 75}, {"time": 1183, "pitch": 60, "duration": 6, "velocity": 70}, {"time": 1183, "pitch": 65, "duration": 6, "velocity": 66}, {"time": 1183, "pitch": 69, "duration": 5, "velocity": 72}, {"time": 1189, "pitch": 48, "duration": 9, "velocity": 45}, {"time": 1195, "pitch": 53, "duration": 6, "velocity": 57}, {"time": 1195, "pitch": 62, "duration": 7, "velocity": 59}, {"time": 1195, "pitch": 70, "duration": 7, "velocity": 66}, {"time": 1207, "pitch": 46, "duration": 22, "velocity": 72}, {"time": 1207, "pitch": 60, "duration": 12, "velocity": 59}, {"time": 1207, "pitch": 62, "duration": 12, "velocity": 63}, {"time": 1207, "pitch": 65, "duration": 12, "velocity": 63}, {"time": 1207, "pitch": 70, "duration": 16, "velocity": 59}, {"time": 1213, "pitch": 53, "duration": 16, "velocity": 50}, {"time": 1219, "pitch": 58, "duration": 10, "velocity": 60}, {"time": 1225, "pitch": 60, "duration": 4, "velocity": 67}, {"time": 1225, "pitch": 70, "duration": 2, "velocity": 38}, {"time": 1231, "pitch": 46, "duration": 6, "velocity": 70}, {"time": 1231, "pitch": 62, "duration": 3, "velocity": 78}, {"time": 1231, "pitch": 65, "duration": 2, "velocity": 66}, {"time": 1231, "pitch": 70, "duration": 5, "velocity": 67}, {"time": 1237, "pitch": 48, "duration": 7, "velocity": 72}, {"time": 1237, "pitch": 60, "duration": 2, "velocity": 73}, {"time": 1237, "pitch": 69, "duration": 6, "velocity": 76}, {"time": 1243, "pitch": 50, "duration": 8, "velocity": 69}, {"time": 1243, "pitch": 65, "duration": 2, "velocity": 73}, {"time": 1243, "pitch": 70, "duration": 2, "velocity": 76}, {"time": 1249, "pitch": 53, "duration": 1, "velocity": 78}, {"time": 1249, "pitch": 60, "duration": 2, "velocity": 73}, {"time": 1249, "pitch": 65, "duration": 2, "velocity": 76}, {"time": 1249, "pitch": 72, "duration": 2, "velocity": 73}, {"time": 1255, "pitch": 46, "duration": 40, "velocity": 70}, {"time": 1255, "pitch": 62, "duration": 7, "velocity": 93}, {"time": 1255, "pitch": 65, "duration": 7, "velocity": 88}, {"time": 1255, "pitch": 70, "duration": 9, "velocity": 78}, {"time": 1261, "pitch": 53, "duration": 8, "velocity": 61}, {"time": 1267, "pitch": 58, "duration": 6, "velocity": 63}, {"time": 1273, "pitch": 53, "duration": 22, "velocity": 66}, {"time": 1279, "pitch": 60, "duration": 7, "velocity": 69}, {"time": 1279, "pitch": 65, "duration": 7, "velocity": 73}, {"time": 1285, "pitch": 62, "duration": 7, "velocity": 76}, {"time": 1291, "pitch": 58, "duration": 4, "velocity": 64}, {"time": 1294, "pitch": 60, "duration": 4, "velocity": 72}, {"time": 1297, "pitch": 65, "duration": 3, "velocity": 56}, {"time": 1300, "pitch": 70, "duration": 9, "velocity": 69}, {"time": 1303, "pitch": 43, "duration": 13, "velocity": 72}, {"time": 1303, "pitch": 62, "duration": 8, "velocity": 67}, {"time": 1303, "pitch": 70, "duration": 6, "velocity": 70}, {"time": 1309, "pitch": 50, "duration": 7, "velocity": 48}, {"time": 1315, "pitch": 55, "duration": 7, "velocity": 58}, {"time": 1315, "pitch": 62, "duration": 5, "velocity": 66}, {"time": 1315, "pitch": 69, "duration": 7, "velocity": 64}, {"time": 1321, "pitch": 57, "duration": 21, "velocity": 57}, {"time": 1321, "pitch": 62, "duration": 8, "velocity": 60}, {"time": 1321, "pitch": 70, "duration": 9, "velocity": 75}, {"time": 1327, "pitch": 58, "duration": 15, "velocity": 58}, {"time": 1333, "pitch": 62, "duration": 6, "velocity": 70}, {"time": 1339, "pitch": 65, "duration": 6, "velocity": 72}, {"time": 1345, "pitch": 70, "duration": 4, "velocity": 60}, {"time": 1351, "pitch": 51, "duration": 25, "velocity": 72}, {"time": 1351, "pitch": 58, "duration": 8, "velocity": 78}, {"time": 1351, "pitch": 63, "duration": 8, "velocity": 76}, {"time": 1351, "pitch": 67, "duration": 8, "velocity": 75}, {"time": 1357, "pitch": 55, "duration": 16, "velocity": 56}, {"time": 1363, "pitch": 58, "duration": 8, "velocity": 67}, {"time": 1369, "pitch": 63, "duration": 7, "velocity": 64}, {"time": 1375, "pitch": 53, "duration": 18, "velocity": 72}, {"time": 1375, "pitch": 60, "duration": 9, "velocity": 72}, {"time": 1375, "pitch": 67, "duration": 7, "velocity": 75}, {"time": 1381, "pitch": 65, "duration": 5, "velocity": 62}, {"time": 1387, "pitch": 60, "duration": 6, "velocity": 51}, {"time": 1387, "pitch": 67, "duration": 6, "velocity": 63}, {"time": 1393, "pitch": 63, "duration": 6, "velocity": 69}, {"time": 1399, "pitch": 46, "duration": 39, "velocity": 63}, {"time": 1399, "pitch": 62, "duration": 12, "velocity": 54}, {"time": 1399, "pitch": 65, "duration": 10, "velocity": 57}, {"time": 1399, "pitch": 70, "duration": 14, "velocity": 53}, {"time": 1405, "pitch": 53, "duration": 33, "velocity": 50}, {"time": 1411, "pitch": 58, "duration": 21, "velocity": 59}, {"time": 1417, "pitch": 60, "duration": 7, "velocity": 61}, {"time": 1423, "pitch": 62, "duration": 5, "velocity": 67}, {"time": 1429, "pitch": 65, "duration": 6, "velocity": 53}, {"time": 1435, "pitch": 58, "duration": 5, "velocity": 53}, {"time": 1435, "pitch": 67, "duration": 6, "velocity": 67}, {"time": 1441, "pitch": 69, "duration": 6, "velocity": 76}, {"time": 1447, "pitch": 50, "duration": 42, "velocity": 73}, {"time": 1447, "pitch": 62, "duration": 7, "velocity": 66}, {"time": 1447, "pitch": 66, "duration": 8, "velocity": 72}, {"time": 1453, "pitch": 57, "duration": 14, "velocity": 60}, {"time": 1459, "pitch": 62, "duration": 14, "velocity": 61}, {"time": 1465, "pitch": 78, "duration": 3, "velocity": 66}, {"time": 1471, "pitch": 57, "duration": 8, "velocity": 59}, {"time": 1471, "pitch": 67, "duration": 2, "velocity": 67}, {"time": 1471, "pitch": 79, "duration": 2, "velocity": 69}, {"time": 1477, "pitch": 62, "duration": 8, "velocity": 51}, {"time": 1477, "pitch": 69, "duration": 2, "velocity": 57}, {"time": 1477, "pitch": 81, "duration": 2, "velocity": 76}, {"time": 1483, "pitch": 57, "duration": 5, "velocity": 52}, {"time": 1483, "pitch": 70, "duration": 3, "velocity": 60}, {"time": 1483, "pitch": 82, "duration": 3, "velocity": 59}, {"time": 1489, "pitch": 72, "duration": 3, "velocity": 61}, {"time": 1489, "pitch": 84, "duration": 3, "velocity": 61}, {"time": 1495, "pitch": 43, "duration": 39, "velocity": 75}, {"time": 1495, "pitch": 74, "duration": 5, "velocity": 61}, {"time": 1495, "pitch": 86, "duration": 4, "velocity": 66}, {"time": 1501, "pitch": 50, "duration": 33, "velocity": 66}, {"time": 1507, "pitch": 55, "duration": 13, "velocity": 59}, {"time": 1513, "pitch": 62, "duration": 4, "velocity": 61}, {"time": 1513, "pitch": 70, "duration": 7, "velocity": 73}, {"time": 1519, "pitch": 60, "duration": 3, "velocity": 63}, {"time": 1519, "pitch": 69, "duration": 6, "velocity": 67}, {"time": 1525, "pitch": 62, "duration": 4, "velocity": 59}, {"time": 1525, "pitch": 70, "duration": 5, "velocity": 70}, {"time": 1531, "pitch": 55, "duration": 4, "velocity": 52}, {"time": 1531, "pitch": 65, "duration": 5, "velocity": 66}, {"time": 1537, "pitch": 62, "duration": 3, "velocity": 62}, {"time": 1543, "pitch": 36, "duration": 6, "velocity": 72}, {"time": 1543, "pitch": 60, "duration": 19, "velocity": 72}, {"time": 1543, "pitch": 63, "duration": 18, "velocity": 76}, {"time": 1543, "pitch": 67, "duration": 18, "velocity": 73}, {"time": 1549, "pitch": 48, "duration": 8, "velocity": 58}, {"time": 1555, "pitch": 50, "duration": 8, "velocity": 76}, {"time": 1561, "pitch": 51, "duration": 6, "velocity": 66}, {"time": 1567, "pitch": 48, "duration": 17, "velocity": 73}, {"time": 1567, "pitch": 60, "duration": 8, "velocity": 67}, {"time": 1567, "pitch": 64, "duration": 11, "velocity": 72}, {"time": 1567, "pitch": 67, "duration": 11, "velocity": 69}, {"time": 1573, "pitch": 55, "duration": 11, "velocity": 59}, {"time": 1579, "pitch": 60, "duration": 4, "velocity": 67}, {"time": 1585, "pitch": 70, "duration": 5, "velocity": 67}, {"time": 1591, "pitch": 41, "duration": 11, "velocity": 62}, {"time": 1591, "pitch": 60, "duration": 26, "velocity": 69}, {"time": 1591, "pitch": 65, "duration": 3, "velocity": 53}, {"time": 1591, "pitch": 72, "duration": 26, "velocity": 75}, {"time": 1597, "pitch": 48, "duration": 6, "velocity": 67}, {"time": 1603, "pitch": 53, "duration": 8, "velocity": 57}, {"time": 1609, "pitch": 55, "duration": 24, "velocity": 63}, {"time": 1615, "pitch": 57, "duration": 17, "velocity": 67}, {"time": 1621, "pitch": 60, "duration": 5, "velocity": 72}, {"time": 1627, "pitch": 65, "duration": 5, "velocity": 88}, {"time": 1633, "pitch": 69, "duration": 5, "velocity": 80}, {"time": 1639, "pitch": 46, "duration": 12, "velocity": 75}, {"time": 1639, "pitch": 62, "duration": 7, "velocity": 72}, {"time": 1639, "pitch": 70, "duration": 6, "velocity": 82}, {"time": 1645, "pitch": 53, "duration": 7, "velocity": 47}, {"time": 1651, "pitch": 58, "duration": 6, "velocity": 60}, {"time": 1651, "pitch": 65, "duration": 4, "velocity": 56}, {"time": 1651, "pitch": 74, "duration": 5, "velocity": 66}, {"time": 1657, "pitch": 60, "duration": 13, "velocity": 52}, {"time": 1657, "pitch": 65, "duration": 8, "velocity": 60}, {"time": 1657, "pitch": 72, "duration": 8, "velocity": 78}, {"time": 1663, "pitch": 62, "duration": 13, "velocity": 66}, {"time": 1669, "pitch": 65, "duration": 7, "velocity": 63}, {"time": 1669, "pitch": 70, "duration": 7, "velocity": 72}, {"time": 1669, "pitch": 74, "duration": 6, "velocity": 73}, {"time": 1675, "pitch": 60, "duration": 3, "velocity": 67}, {"time": 1678, "pitch": 65, "duration": 3, "velocity": 70}, {"time": 1681, "pitch": 72, "duration": 4, "velocity": 49}, {"time": 1684, "pitch": 46, "duration": 4, "velocity": 58}, {"time": 1684, "pitch": 74, "duration": 3, "velocity": 61}, {"time": 1687, "pitch": 43, "duration": 12, "velocity": 63}, {"time": 1687, "pitch": 65, "duration": 6, "velocity": 75}, {"time": 1687, "pitch": 70, "duration": 5, "velocity": 76}, {"time": 1693, "pitch": 50, "duration": 7, "velocity": 51}, {"time": 1699, "pitch": 55, "duration": 9, "velocity": 58}, {"time": 1699, "pitch": 62, "duration": 5, "velocity": 72}, {"time": 1699, "pitch": 69, "duration": 2, "velocity": 67}, {"time": 1699, "pitch": 70, "duration": 5, "velocity": 66}, {"time": 1705, "pitch": 57, "duration": 22, "velocity": 60}, {"time": 1705, "pitch": 62, "duration": 7, "velocity": 51}, {"time": 1705, "pitch": 69, "duration": 7, "velocity": 60}, {"time": 1711, "pitch": 58, "duration": 6, "velocity": 66}, {"time": 1717, "pitch": 62, "duration": 5, "velocity": 75}, {"time": 1717, "pitch": 70, "duration": 5, "velocity": 72}, {"time": 1720, "pitch": 58, "duration": 4, "velocity": 55}, {"time": 1723, "pitch": 62, "duration": 4, "velocity": 67}, {"time": 1726, "pitch": 65, "duration": 4, "velocity": 59}, {"time": 1729, "pitch": 70, "duration": 3, "velocity": 56}, {"time": 1735, "pitch": 51, "duration": 25, "velocity": 56}, {"time": 1735, "pitch": 58, "duration": 7, "velocity": 64}, {"time": 1735, "pitch": 63, "duration": 8, "velocity": 63}, {"time": 1735, "pitch": 67, "duration": 8, "velocity": 69}, {"time": 1741, "pitch": 55, "duration": 9, "velocity": 55}, {"time": 1747, "pitch": 58, "duration": 6, "velocity": 52}, {"time": 1747, "pitch": 63, "duration": 7, "velocity": 49}, {"time": 1747, "pitch": 67, "duration": 8, "velocity": 56}, {"time": 1753, "pitch": 55, "duration": 7, "velocity": 56}, {"time": 1759, "pitch": 53, "duration": 18, "velocity": 63}, {"time": 1759, "pitch": 60, "duration": 6, "velocity": 64}, {"time": 1759, "pitch": 65, "duration": 6, "velocity": 70}, {"time": 1759, "pitch": 69, "duration": 6, "velocity": 67}, {"time": 1765, "pitch": 57, "duration": 10, "velocity": 56}, {"time": 1771, "pitch": 58, "duration": 5, "velocity": 70}, {"time": 1771, "pitch": 63, "duration": 5, "velocity": 75}, {"time": 1771, "pitch": 67, "duration": 5, "velocity": 69}, {"time": 1777, "pitch": 65, "duration": 5, "velocity": 69}, {"time": 1783, "pitch": 46, "duration": 41, "velocity": 69}, {"time": 1783, "pitch": 62, "duration": 12, "velocity": 60}, {"time": 1783, "pitch": 65, "duration": 12, "velocity": 64}, {"time": 1783, "pitch": 70, "duration": 13, "velocity": 66}, {"time": 1789, "pitch": 53, "duration": 22, "velocity": 62}, {"time": 1795, "pitch": 58, "duration": 27, "velocity": 70}, {"time": 1801, "pitch": 60, "duration": 6, "velocity": 72}, {"time": 1807, "pitch": 62, "duration": 9, "velocity": 73}, {"time": 1813, "pitch": 53, "duration": 5, "velocity": 54}, {"time": 1819, "pitch": 60, "duration": 6, "velocity": 66}, {"time": 1819, "pitch": 67, "duration": 6, "velocity": 78}, {"time": 1825, "pitch": 69, "duration": 6, "velocity": 70}, {"time": 1831, "pitch": 38, "duration": 6, "velocity": 67}, {"time": 1831, "pitch": 62, "duration": 20, "velocity": 69}, {"time": 1831, "pitch": 66, "duration": 21, "velocity": 72}, {"time": 1831, "pitch": 69, "duration": 19, "velocity": 63}, {"time": 1837, "pitch": 50, "duration": 8, "velocity": 57}, {"time": 1843, "pitch": 55, "duration": 7, "velocity": 58}, {"time": 1849, "pitch": 57, "duration": 7, "velocity": 75}, {"time": 1855, "pitch": 50, "duration": 15, "velocity": 67}, {"time": 1855, "pitch": 62, "duration": 8, "velocity": 66}, {"time": 1855, "pitch": 66, "duration": 9, "velocity": 78}, {"time": 1861, "pitch": 54, "duration": 12, "velocity": 70}, {"time": 1867, "pitch": 57, "duration": 5, "velocity": 66}, {"time": 1867, "pitch": 62, "duration": 4, "velocity": 57}, {"time": 1867, "pitch": 67, "duration": 6, "velocity": 70}, {"time": 1873, "pitch": 62, "duration": 2, "velocity": 30}, {"time": 1873, "pitch": 69, "duration": 5, "velocity": 64}, {"time": 1879, "pitch": 43, "duration": 10, "velocity": 75}, {"time": 1879, "pitch": 62, "duration": 9, "velocity": 66}, {"time": 1879, "pitch": 67, "duration": 10, "velocity": 62}, {"time": 1879, "pitch": 70, "duration": 11, "velocity": 61}, {"time": 1885, "pitch": 50, "duration": 12, "velocity": 58}, {"time": 1891, "pitch": 62, "duration": 3, "velocity": 60}, {"time": 1891, "pitch": 69, "duration": 5, "velocity": 64}, {"time": 1897, "pitch": 41, "duration": 3, "velocity": 55}, {"time": 1897, "pitch": 60, "duration": 2, "velocity": 48}, {"time": 1897, "pitch": 62, "duration": 1, "velocity": 44}, {"time": 1897, "pitch": 67, "duration": 2, "velocity": 66}, {"time": 1903, "pitch": 48, "duration": 23, "velocity": 69}, {"time": 1903, "pitch": 55, "duration": 23, "velocity": 70}, {"time": 1903, "pitch": 60, "duration": 9, "velocity": 53}, {"time": 1903, "pitch": 64, "duration": 9, "velocity": 67}, {"time": 1903, "pitch": 67, "duration": 9, "velocity": 63}, {"time": 1903, "pitch": 70, "duration": 10, "velocity": 69}, {"time": 1919, "pitch": 76, "duration": 6, "velocity": 59}, {"time": 1920, "pitch": 84, "duration": 5, "velocity": 52}, {"time": 1920, "pitch": 72, "duration": 5, "velocity": 49}, {"time": 1927, "pitch": 39, "duration": 42, "velocity": 67}, {"time": 1927, "pitch": 51, "duration": 14, "velocity": 70}, {"time": 1927, "pitch": 58, "duration": 8, "velocity": 63}, {"time": 1927, "pitch": 63, "duration": 8, "velocity": 70}, {"time": 1927, "pitch": 67, "duration": 7, "velocity": 70}, {"time": 1939, "pitch": 58, "duration": 6, "velocity": 48}, {"time": 1939, "pitch": 63, "duration": 6, "velocity": 51}, {"time": 1939, "pitch": 65, "duration": 5, "velocity": 46}, {"time": 1939, "pitch": 67, "duration": 6, "velocity": 61}, {"time": 1945, "pitch": 51, "duration": 7, "velocity": 39}, {"time": 1951, "pitch": 58, "duration": 7, "velocity": 55}, {"time": 1951, "pitch": 63, "duration": 7, "velocity": 61}, {"time": 1951, "pitch": 67, "duration": 7, "velocity": 56}, {"time": 1957, "pitch": 51, "duration": 7, "velocity": 40}, {"time": 1963, "pitch": 58, "duration": 6, "velocity": 58}, {"time": 1963, "pitch": 63, "duration": 7, "velocity": 66}, {"time": 1963, "pitch": 67, "duration": 6, "velocity": 66}, {"time": 1969, "pitch": 51, "duration": 3, "velocity": 59}, {"time": 1975, "pitch": 41, "duration": 45, "velocity": 75}, {"time": 1975, "pitch": 60, "duration": 17, "velocity": 69}, {"time": 1975, "pitch": 65, "duration": 17, "velocity": 67}, {"time": 1975, "pitch": 69, "duration": 17, "velocity": 67}, {"time": 1999, "pitch": 53, "duration": 16, "velocity": 50}, {"time": 1999, "pitch": 58, "duration": 6, "velocity": 61}, {"time": 1999, "pitch": 63, "duration": 8, "velocity": 61}, {"time": 1999, "pitch": 67, "duration": 8, "velocity": 60}, {"time": 2011, "pitch": 58, "duration": 7, "velocity": 61}, {"time": 2011, "pitch": 65, "duration": 7, "velocity": 66}, {"time": 2017, "pitch": 53, "duration": 2, "velocity": 52}, {"time": 2017, "pitch": 63, "duration": 2, "velocity": 70}, {"time": 2023, "pitch": 51, "duration": 13, "velocity": 78}, {"time": 2023, "pitch": 67, "duration": 7, "velocity": 85}, {"time": 2029, "pitch": 70, "duration": 5, "velocity": 67}, {"time": 2035, "pitch": 50, "duration": 14, "velocity": 72}, {"time": 2035, "pitch": 60, "duration": 5, "velocity": 69}, {"time": 2035, "pitch": 69, "duration": 8, "velocity": 70}, {"time": 2041, "pitch": 65, "duration": 6, "velocity": 85}, {"time": 2047, "pitch": 48, "duration": 12, "velocity": 66}, {"time": 2047, "pitch": 63, "duration": 7, "velocity": 78}, {"time": 2053, "pitch": 67, "duration": 6, "velocity": 60}, {"time": 2059, "pitch": 46, "duration": 9, "velocity": 67}, {"time": 2059, "pitch": 60, "duration": 5, "velocity": 66}, {"time": 2059, "pitch": 65, "duration": 3, "velocity": 64}, {"time": 2065, "pitch": 60, "duration": 3, "velocity": 51}, {"time": 2071, "pitch": 44, "duration": 31, "velocity": 85}, {"time": 2071, "pitch": 56, "duration": 30, "velocity": 73}, {"time": 2071, "pitch": 60, "duration": 30, "velocity": 80}, {"time": 2071, "pitch": 63, "duration": 30, "velocity": 95}, {"time": 2071, "pitch": 68, "duration": 30, "velocity": 95}, {"time": 2107, "pitch": 41, "duration": 30, "velocity": 66}, {"time": 2107, "pitch": 53, "duration": 29, "velocity": 73}, {"time": 2107, "pitch": 58, "duration": 7, "velocity": 70}, {"time": 2107, "pitch": 63, "duration": 7, "velocity": 75}, {"time": 2107, "pitch": 67, "duration": 7, "velocity": 70}, {"time": 2116, "pitch": 58, "duration": 2, "velocity": 54}, {"time": 2116, "pitch": 63, "duration": 3, "velocity": 62}, {"time": 2119, "pitch": 65, "duration": 2, "velocity": 60}, {"time": 2122, "pitch": 67, "duration": 5, "velocity": 58}, {"time": 2125, "pitch": 70, "duration": 5, "velocity": 66}, {"time": 2128, "pitch": 75, "duration": 2, "velocity": 63}, {"time": 2134, "pitch": 77, "duration": 3, "velocity": 46}, {"time": 2143, "pitch": 46, "duration": 16, "velocity": 69}, {"time": 2143, "pitch": 62, "duration": 11, "velocity": 63}, {"time": 2143, "pitch": 70, "duration": 11, "velocity": 67}, {"time": 2149, "pitch": 53, "duration": 14, "velocity": 55}, {"time": 2155, "pitch": 58, "duration": 4, "velocity": 72}, {"time": 2161, "pitch": 70, "duration": 6, "velocity": 61}, {"time": 2167, "pitch": 45, "duration": 13, "velocity": 59}, {"time": 2167, "pitch": 60, "duration": 8, "velocity": 53}, {"time": 2167, "pitch": 65, "duration": 9, "velocity": 64}, {"time": 2173, "pitch": 53, "duration": 7, "velocity": 49}, {"time": 2179, "pitch": 57, "duration": 5, "velocity": 61}, {"time": 2185, "pitch": 67, "duration": 4, "velocity": 48}, {"time": 2188, "pitch": 69, "duration": 5, "velocity": 58}, {"time": 2191, "pitch": 55, "duration": 18, "velocity": 60}, {"time": 2191, "pitch": 70, "duration": 5, "velocity": 73}, {"time": 2197, "pitch": 62, "duration": 16, "velocity": 52}, {"time": 2203, "pitch": 67, "duration": 5, "velocity": 61}, {"time": 2209, "pitch": 74, "duration": 3, "velocity": 51}, {"time": 2209, "pitch": 82, "duration": 8, "velocity": 59}, {"time": 2215, "pitch": 53, "duration": 18, "velocity": 50}, {"time": 2215, "pitch": 72, "duration": 8, "velocity": 57}, {"time": 2215, "pitch": 81, "duration": 6, "velocity": 60}, {"time": 2221, "pitch": 62, "duration": 11, "velocity": 44}, {"time": 2227, "pitch": 65, "duration": 3, "velocity": 47}, {"time": 2227, "pitch": 77, "duration": 4, "velocity": 59}, {"time": 2233, "pitch": 74, "duration": 5, "velocity": 58}, {"time": 2239, "pitch": 51, "duration": 23, "velocity": 64}, {"time": 2239, "pitch": 67, "duration": 9, "velocity": 44}, {"time": 2239, "pitch": 75, "duration": 11, "velocity": 67}, {"time": 2242, "pitch": 70, "duration": 8, "velocity": 18}, {"time": 2245, "pitch": 58, "duration": 14, "velocity": 48}, {"time": 2251, "pitch": 63, "duration": 5, "velocity": 67}, {"time": 2257, "pitch": 70, "duration": 5, "velocity": 59}, {"time": 2263, "pitch": 53, "duration": 18, "velocity": 50}, {"time": 2263, "pitch": 60, "duration": 8, "velocity": 54}, {"time": 2263, "pitch": 65, "duration": 8, "velocity": 49}, {"time": 2263, "pitch": 69, "duration": 8, "velocity": 66}, {"time": 2269, "pitch": 57, "duration": 11, "velocity": 55}, {"time": 2275, "pitch": 65, "duration": 6, "velocity": 58}, {"time": 2281, "pitch": 69, "duration": 6, "velocity": 58}, {"time": 2287, "pitch": 46, "duration": 44, "velocity": 67}, {"time": 2287, "pitch": 62, "duration": 13, "velocity": 53}, {"time": 2287, "pitch": 65, "duration": 11, "velocity": 56}, {"time": 2287, "pitch": 70, "duration": 19, "velocity": 72}, {"time": 2293, "pitch": 53, "duration": 36, "velocity": 52}, {"time": 2299, "pitch": 58, "duration": 19, "velocity": 48}, {"time": 2305, "pitch": 60, "duration": 13, "velocity": 55}, {"time": 2311, "pitch": 62, "duration": 7, "velocity": 57}, {"time": 2317, "pitch": 65, "duration": 5, "velocity": 52}, {"time": 2323, "pitch": 58, "duration": 4, "velocity": 44}, {"time": 2323, "pitch": 70, "duration": 7, "velocity": 62}, {"time": 2326, "pitch": 69, "duration": 3, "velocity": 61}, {"time": 2329, "pitch": 65, "duration": 4, "velocity": 53}, {"time": 2332, "pitch": 62, "duration": 3, "velocity": 60}, {"time": 2335, "pitch": 51, "duration": 24, "velocity": 58}, {"time": 2335, "pitch": 58, "duration": 8, "velocity": 69}, {"time": 2335, "pitch": 63, "duration": 7, "velocity": 56}, {"time": 2341, "pitch": 55, "duration": 10, "velocity": 61}, {"time": 2347, "pitch": 58, "duration": 4, "velocity": 64}, {"time": 2353, "pitch": 63, "duration": 4, "velocity": 60}, {"time": 2356, "pitch": 65, "duration": 3, "velocity": 64}, {"time": 2359, "pitch": 53, "duration": 16, "velocity": 50}, {"time": 2359, "pitch": 60, "duration": 8, "velocity": 61}, {"time": 2359, "pitch": 69, "duration": 8, "velocity": 64}, {"time": 2365, "pitch": 57, "duration": 13, "velocity": 55}, {"time": 2371, "pitch": 62, "duration": 3, "velocity": 63}, {"time": 2371, "pitch": 70, "duration": 3, "velocity": 63}, {"time": 2377, "pitch": 63, "duration": 2, "velocity": 48}, {"time": 2377, "pitch": 72, "duration": 3, "velocity": 56}, {"time": 2383, "pitch": 50, "duration": 15, "velocity": 67}, {"time": 2383, "pitch": 60, "duration": 7, "velocity": 59}, {"time": 2383, "pitch": 65, "duration": 9, "velocity": 56}, {"time": 2383, "pitch": 69, "duration": 8, "velocity": 59}, {"time": 2389, "pitch": 57, "duration": 9, "velocity": 49}, {"time": 2395, "pitch": 65, "duration": 4, "velocity": 72}, {"time": 2401, "pitch": 69, "duration": 6, "velocity": 51}, {"time": 2407, "pitch": 43, "duration": 8, "velocity": 63}, {"time": 2407, "pitch": 62, "duration": 8, "velocity": 54}, {"time": 2407, "pitch": 65, "duration": 8, "velocity": 49}, {"time": 2407, "pitch": 70, "duration": 11, "velocity": 70}, {"time": 2413, "pitch": 50, "duration": 8, "velocity": 56}, {"time": 2419, "pitch": 41, "duration": 12, "velocity": 70}, {"time": 2419, "pitch": 60, "duration": 7, "velocity": 63}, {"time": 2419, "pitch": 69, "duration": 6, "velocity": 61}, {"time": 2431, "pitch": 51, "duration": 16, "velocity": 63}, {"time": 2431, "pitch": 58, "duration": 9, "velocity": 69}, {"time": 2431, "pitch": 63, "duration": 9, "velocity": 66}, {"time": 2431, "pitch": 67, "duration": 10, "velocity": 67}, {"time": 2440, "pitch": 55, "duration": 8, "velocity": 52}, {"time": 2443, "pitch": 58, "duration": 5, "velocity": 66}, {"time": 2449, "pitch": 63, "duration": 5, "velocity": 62}, {"time": 2455, "pitch": 41, "duration": 14, "velocity": 75}, {"time": 2455, "pitch": 60, "duration": 6, "velocity": 70}, {"time": 2455, "pitch": 65, "duration": 6, "velocity": 66}, {"time": 2455, "pitch": 69, "duration": 5, "velocity": 72}, {"time": 2461, "pitch": 48, "duration": 9, "velocity": 45}, {"time": 2467, "pitch": 53, "duration": 6, "velocity": 57}, {"time": 2467, "pitch": 62, "duration": 7, "velocity": 59}, {"time": 2467, "pitch": 70, "duration": 7, "velocity": 66}, {"time": 2479, "pitch": 46, "duration": 22, "velocity": 72}, {"time": 2479, "pitch": 60, "duration": 12, "velocity": 59}, {"time": 2479, "pitch": 62, "duration": 12, "velocity": 63}, {"time": 2479, "pitch": 65, "duration": 12, "velocity": 63}, {"time": 2479, "pitch": 70, "duration": 16, "velocity": 59}, {"time": 2485, "pitch": 53, "duration": 16, "velocity": 50}, {"time": 2491, "pitch": 58, "duration": 10, "velocity": 60}, {"time": 2497, "pitch": 60, "duration": 4, "velocity": 67}, {"time": 2497, "pitch": 70, "duration": 2, "velocity": 38}, {"time": 2503, "pitch": 46, "duration": 6, "velocity": 70}, {"time": 2503, "pitch": 62, "duration": 3, "velocity": 78}, {"time": 2503, "pitch": 65, "duration": 2, "velocity": 66}, {"time": 2503, "pitch": 70, "duration": 5, "velocity": 67}, {"time": 2509, "pitch": 48, "duration": 7, "velocity": 72}, {"time": 2509, "pitch": 60, "duration": 2, "velocity": 73}, {"time": 2509, "pitch": 69, "duration": 6, "velocity": 76}, {"time": 2515, "pitch": 50, "duration": 8, "velocity": 69}, {"time": 2515, "pitch": 65, "duration": 2, "velocity": 73}, {"time": 2515, "pitch": 70, "duration": 2, "velocity": 76}, {"time": 2521, "pitch": 53, "duration": 1, "velocity": 78}, {"time": 2521, "pitch": 60, "duration": 2, "velocity": 73}, {"time": 2521, "pitch": 65, "duration": 2, "velocity": 76}, {"time": 2521, "pitch": 72, "duration": 2, "velocity": 73}, {"time": 2527, "pitch": 46, "duration": 40, "velocity": 70}, {"time": 2527, "pitch": 62, "duration": 7, "velocity": 93}, {"time": 2527, "pitch": 65, "duration": 7, "velocity": 88}, {"time": 2527, "pitch": 70, "duration": 9, "velocity": 78}, {"time": 2533, "pitch": 53, "duration": 8, "velocity": 61}, {"time": 2539, "pitch": 58, "duration": 6, "velocity": 63}, {"time": 2545, "pitch": 53, "duration": 22, "velocity": 66}, {"time": 2551, "pitch": 60, "duration": 7, "velocity": 69}, {"time": 2551, "pitch": 65, "duration": 7, "velocity": 73}, {"time": 2557, "pitch": 62, "duration": 7, "velocity": 76}, {"time": 2563, "pitch": 58, "duration": 4, "velocity": 64}, {"time": 2566, "pitch": 60, "duration": 4, "velocity": 72}, {"time": 2569, "pitch": 65, "duration": 3, "velocity": 56}, {"time": 2572, "pitch": 70, "duration": 9, "velocity": 69}, {"time": 2575, "pitch": 43, "duration": 13, "velocity": 72}, {"time": 2575, "pitch": 62, "duration": 8, "velocity": 67}, {"time": 2575, "pitch": 70, "duration": 6, "velocity": 70}, {"time": 2581, "pitch": 50, "duration": 7, "velocity": 48}, {"time": 2587, "pitch": 55, "duration": 7, "velocity": 58}, {"time": 2587, "pitch": 62, "duration": 5, "velocity": 66}, {"time": 2587, "pitch": 69, "duration": 7, "velocity": 64}, {"time": 2593, "pitch": 57, "duration": 21, "velocity": 57}, {"time": 2593, "pitch": 62, "duration": 8, "velocity": 60}, {"time": 2593, "pitch": 70, "duration": 9, "velocity": 75}, {"time": 2599, "pitch": 58, "duration": 15, "velocity": 58}, {"time": 2605, "pitch": 62, "duration": 6, "velocity": 70}, {"time": 2611, "pitch": 65, "duration": 6, "velocity": 72}, {"time": 2617, "pitch": 70, "duration": 4, "velocity": 60}, {"time": 2623, "pitch": 51, "duration": 25, "velocity": 72}, {"time": 2623, "pitch": 58, "duration": 8, "velocity": 78}, {"time": 2623, "pitch": 63, "duration": 8, "velocity": 76}, {"time": 2623, "pitch": 67, "duration": 8, "velocity": 75}, {"time": 2629, "pitch": 55, "duration": 16, "velocity": 56}, {"time": 2635, "pitch": 58, "duration": 8, "velocity": 67}, {"time": 2641, "pitch": 63, "duration": 7, "velocity": 64}, {"time": 2647, "pitch": 53, "duration": 18, "velocity": 72}, {"time": 2647, "pitch": 60, "duration": 9, "velocity": 72}, {"time": 2647, "pitch": 67, "duration": 7, "velocity": 75}, {"time": 2653, "pitch": 65, "duration": 5, "velocity": 62}, {"time": 2659, "pitch": 60, "duration": 6, "velocity": 51}, {"time": 2659, "pitch": 67, "duration": 6, "velocity": 63}, {"time": 2665, "pitch": 63, "duration": 6, "velocity": 69}, {"time": 2671, "pitch": 46, "duration": 39, "velocity": 63}, {"time": 2671, "pitch": 62, "duration": 12, "velocity": 54}, {"time": 2671, "pitch": 65, "duration": 10, "velocity": 57}, {"time": 2671, "pitch": 70, "duration": 14, "velocity": 53}, {"time": 2677, "pitch": 53, "duration": 33, "velocity": 50}, {"time": 2683, "pitch": 58, "duration": 21, "velocity": 59}, {"time": 2689, "pitch": 60, "duration": 7, "velocity": 61}, {"time": 2695, "pitch": 62, "duration": 5, "velocity": 67}, {"time": 2701, "pitch": 65, "duration": 6, "velocity": 53}, {"time": 2707, "pitch": 58, "duration": 5, "velocity": 53}, {"time": 2707, "pitch": 67, "duration": 6, "velocity": 67}, {"time": 2713, "pitch": 69, "duration": 6, "velocity": 76}, {"time": 2719, "pitch": 50, "duration": 42, "velocity": 73}, {"time": 2719, "pitch": 62, "duration": 7, "velocity": 66}, {"time": 2719, "pitch": 66, "duration": 8, "velocity": 72}, {"time": 2725, "pitch": 57, "duration": 14, "velocity": 60}, {"time": 2731, "pitch": 62, "duration": 14, "velocity": 61}, {"time": 2737, "pitch": 78, "duration": 3, "velocity": 66}, {"time": 2743, "pitch": 57, "duration": 8, "velocity": 59}, {"time": 2743, "pitch": 67, "duration": 2, "velocity": 67}, {"time": 2743, "pitch": 79, "duration": 2, "velocity": 69}, {"time": 2749, "pitch": 62, "duration": 8, "velocity": 51}, {"time": 2749, "pitch": 69, "duration": 2, "velocity": 57}, {"time": 2749, "pitch": 81, "duration": 2, "velocity": 76}, {"time": 2755, "pitch": 57, "duration": 5, "velocity": 52}, {"time": 2755, "pitch": 70, "duration": 3, "velocity": 60}, {"time": 2755, "pitch": 82, "duration": 3, "velocity": 59}, {"time": 2761, "pitch": 72, "duration": 3, "velocity": 61}, {"time": 2761, "pitch": 84, "duration": 3, "velocity": 61}, {"time": 2767, "pitch": 43, "duration": 39, "velocity": 75}, {"time": 2767, "pitch": 74, "duration": 5, "velocity": 61}, {"time": 2767, "pitch": 86, "duration": 4, "velocity": 66}, {"time": 2773, "pitch": 50, "duration": 33, "velocity": 66}, {"time": 2779, "pitch": 55, "duration": 13, "velocity": 59}, {"time": 2785, "pitch": 62, "duration": 4, "velocity": 61}, {"time": 2785, "pitch": 70, "duration": 7, "velocity": 73}, {"time": 2791, "pitch": 60, "duration": 3, "velocity": 63}, {"time": 2791, "pitch": 69, "duration": 6, "velocity": 67}, {"time": 2797, "pitch": 62, "duration": 4, "velocity": 59}, {"time": 2797, "pitch": 70, "duration": 5, "velocity": 70}, {"time": 2803, "pitch": 55, "duration": 4, "velocity": 52}, {"time": 2803, "pitch": 65, "duration": 5, "velocity": 66}, {"time": 2809, "pitch": 62, "duration": 3, "velocity": 62}, {"time": 2815, "pitch": 36, "duration": 6, "velocity": 72}, {"time": 2815, "pitch": 60, "duration": 19, "velocity": 72}, {"time": 2815, "pitch": 63, "duration": 18, "velocity": 76}, {"time": 2815, "pitch": 67, "duration": 18, "velocity": 73}, {"time": 2821, "pitch": 48, "duration": 8, "velocity": 58}, {"time": 2827, "pitch": 50, "duration": 8, "velocity": 76}, {"time": 2833, "pitch": 51, "duration": 6, "velocity": 66}, {"time": 2839, "pitch": 48, "duration": 17, "velocity": 73}, {"time": 2839, "pitch": 60, "duration": 8, "velocity": 67}, {"time": 2839, "pitch": 64, "duration": 11, "velocity": 72}, {"time": 2839, "pitch": 67, "duration": 11, "velocity": 69}, {"time": 2845, "pitch": 55, "duration": 11, "velocity": 59}, {"time": 2851, "pitch": 60, "duration": 4, "velocity": 67}, {"time": 2857, "pitch": 70, "duration": 5, "velocity": 67}, {"time": 2863, "pitch": 41, "duration": 11, "velocity": 62}, {"time": 2863, "pitch": 60, "duration": 26, "velocity": 69}, {"time": 2863, "pitch": 65, "duration": 3, "velocity": 53}, {"time": 2863, "pitch": 72, "duration": 26, "velocity": 75}, {"time": 2869, "pitch": 48, "duration": 6, "velocity": 67}, {"time": 2875, "pitch": 53, "duration": 8, "velocity": 57}, {"time": 2881, "pitch": 55, "duration": 24, "velocity": 63}, {"time": 2887, "pitch": 57, "duration": 17, "velocity": 67}, {"time": 2893, "pitch": 60, "duration": 5, "velocity": 72}, {"time": 2899, "pitch": 65, "duration": 5, "velocity": 88}, {"time": 2905, "pitch": 69, "duration": 5, "velocity": 80}, {"time": 2911, "pitch": 46, "duration": 12, "velocity": 75}, {"time": 2911, "pitch": 62, "duration": 7, "velocity": 72}, {"time": 2911, "pitch": 70, "duration": 6, "velocity": 82}, {"time": 2917, "pitch": 53, "duration": 7, "velocity": 47}, {"time": 2923, "pitch": 58, "duration": 6, "velocity": 60}, {"time": 2923, "pitch": 65, "duration": 4, "velocity": 56}, {"time": 2923, "pitch": 74, "duration": 5, "velocity": 66}, {"time": 2929, "pitch": 60, "duration": 13, "velocity": 52}, {"time": 2929, "pitch": 65, "duration": 8, "velocity": 60}, {"time": 2929, "pitch": 72, "duration": 8, "velocity": 78}, {"time": 2935, "pitch": 62, "duration": 13, "velocity": 66}, {"time": 2941, "pitch": 65, "duration": 7, "velocity": 63}, {"time": 2941, "pitch": 70, "duration": 7, "velocity": 72}, {"time": 2941, "pitch": 74, "duration": 6, "velocity": 73}, {"time": 2947, "pitch": 60, "duration": 3, "velocity": 67}, {"time": 2950, "pitch": 65, "duration": 3, "velocity": 70}, {"time": 2953, "pitch": 72, "duration": 4, "velocity": 49}, {"time": 2956, "pitch": 46, "duration": 4, "velocity": 58}, {"time": 2956, "pitch": 74, "duration": 3, "velocity": 61}, {"time": 2959, "pitch": 43, "duration": 12, "velocity": 63}, {"time": 2959, "pitch": 65, "duration": 6, "velocity": 75}, {"time": 2959, "pitch": 70, "duration": 5, "velocity": 76}, {"time": 2965, "pitch": 50, "duration": 7, "velocity": 51}, {"time": 2971, "pitch": 55, "duration": 9, "velocity": 58}, {"time": 2971, "pitch": 62, "duration": 5, "velocity": 72}, {"time": 2971, "pitch": 69, "duration": 2, "velocity": 67}, {"time": 2971, "pitch": 70, "duration": 5, "velocity": 66}, {"time": 2977, "pitch": 57, "duration": 22, "velocity": 60}, {"time": 2977, "pitch": 62, "duration": 7, "velocity": 51}, {"time": 2977, "pitch": 69, "duration": 7, "velocity": 60}, {"time": 2983, "pitch": 58, "duration": 6, "velocity": 66}, {"time": 2989, "pitch": 62, "duration": 5, "velocity": 75}, {"time": 2989, "pitch": 70, "duration": 5, "velocity": 72}, {"time": 2992, "pitch": 58, "duration": 4, "velocity": 55}, {"time": 2995, "pitch": 62, "duration": 4, "velocity": 67}, {"time": 2998, "pitch": 65, "duration": 4, "velocity": 59}, {"time": 3001, "pitch": 70, "duration": 3, "velocity": 56}, {"time": 3007, "pitch": 51, "duration": 25, "velocity": 56}, {"time": 3007, "pitch": 58, "duration": 7, "velocity": 64}, {"time": 3007, "pitch": 63, "duration": 8, "velocity": 63}, {"time": 3007, "pitch": 67, "duration": 8, "velocity": 69}, {"time": 3013, "pitch": 55, "duration": 9, "velocity": 55}, {"time": 3019, "pitch": 58, "duration": 6, "velocity": 52}, {"time": 3019, "pitch": 63, "duration": 7, "velocity": 49}, {"time": 3019, "pitch": 67, "duration": 8, "velocity": 56}, {"time": 3025, "pitch": 55, "duration": 7, "velocity": 56}, {"time": 3031, "pitch": 53, "duration": 18, "velocity": 63}, {"time": 3031, "pitch": 60, "duration": 6, "velocity": 64}, {"time": 3031, "pitch": 65, "duration": 6, "velocity": 70}, {"time": 3031, "pitch": 69, "duration": 6, "velocity": 67}, {"time": 3037, "pitch": 57, "duration": 10, "velocity": 56}, {"time": 3043, "pitch": 58, "duration": 5, "velocity": 70}, {"time": 3043, "pitch": 63, "duration": 5, "velocity": 75}, {"time": 3043, "pitch": 67, "duration": 5, "velocity": 69}, {"time": 3049, "pitch": 65, "duration": 5, "velocity": 69}, {"time": 3055, "pitch": 46, "duration": 41, "velocity": 69}, {"time": 3055, "pitch": 62, "duration": 12, "velocity": 60}, {"time": 3055, "pitch": 65, "duration": 12, "velocity": 64}, {"time": 3055, "pitch": 70, "duration": 13, "velocity": 66}, {"time": 3061, "pitch": 53, "duration": 22, "velocity": 62}, {"time": 3067, "pitch": 58, "duration": 27, "velocity": 70}, {"time": 3073, "pitch": 60, "duration": 6, "velocity": 72}, {"time": 3079, "pitch": 62, "duration": 9, "velocity": 73}, {"time": 3085, "pitch": 53, "duration": 5, "velocity": 54}, {"time": 3091, "pitch": 60, "duration": 6, "velocity": 66}, {"time": 3091, "pitch": 67, "duration": 6, "velocity": 78}, {"time": 3097, "pitch": 69, "duration": 6, "velocity": 70}, {"time": 3103, "pitch": 38, "duration": 6, "velocity": 67}, {"time": 3103, "pitch": 62, "duration": 20, "velocity": 69}, {"time": 3103, "pitch": 66, "duration": 21, "velocity": 72}, {"time": 3103, "pitch": 69, "duration": 19, "velocity": 63}, {"time": 3109, "pitch": 50, "duration": 8, "velocity": 57}, {"time": 3115, "pitch": 55, "duration": 7, "velocity": 58}, {"time": 3121, "pitch": 57, "duration": 7, "velocity": 75}, {"time": 3127, "pitch": 50, "duration": 15, "velocity": 67}, {"time": 3127, "pitch": 62, "duration": 8, "velocity": 66}, {"time": 3127, "pitch": 66, "duration": 9, "velocity": 78}, {"time": 3133, "pitch": 54, "duration": 12, "velocity": 70}, {"time": 3139, "pitch": 57, "duration": 5, "velocity": 66}, {"time": 3139, "pitch": 62, "duration": 4, "velocity": 57}, {"time": 3139, "pitch": 67, "duration": 6, "velocity": 70}, {"time": 3145, "pitch": 62, "duration": 2, "velocity": 30}, {"time": 3145, "pitch": 69, "duration": 5, "velocity": 64}, {"time": 3151, "pitch": 43, "duration": 10, "velocity": 75}, {"time": 3151, "pitch": 62, "duration": 9, "velocity": 66}, {"time": 3151, "pitch": 67, "duration": 10, "velocity": 62}, {"time": 3151, "pitch": 70, "duration": 11, "velocity": 61}, {"time": 3157, "pitch": 50, "duration": 12, "velocity": 58}, {"time": 3163, "pitch": 62, "duration": 3, "velocity": 60}, {"time": 3163, "pitch": 69, "duration": 5, "velocity": 64}, {"time": 3169, "pitch": 41, "duration": 3, "velocity": 55}, {"time": 3169, "pitch": 60, "duration": 2, "velocity": 48}, {"time": 3169, "pitch": 62, "duration": 1, "velocity": 44}, {"time": 3169, "pitch": 67, "duration": 2, "velocity": 66}, {"time": 3175, "pitch": 48, "duration": 42, "velocity": 53}, {"time": 3175, "pitch": 55, "duration": 42, "velocity": 59}, {"time": 3175, "pitch": 60, "duration": 17, "velocity": 53}, {"time": 3175, "pitch": 64, "duration": 17, "velocity": 61}, {"time": 3175, "pitch": 67, "duration": 17, "velocity": 60}, {"time": 3175, "pitch": 70, "duration": 19, "velocity": 66}, {"time": 3204, "pitch": 72, "duration": 6, "velocity": 47}, {"time": 3205, "pitch": 76, "duration": 7, "velocity": 53}, {"time": 3206, "pitch": 79, "duration": 6, "velocity": 55}, {"time": 3208, "pitch": 84, "duration": 5, "velocity": 45}, {"time": 3226, "pitch": 48, "duration": 41, "velocity": 75}, {"time": 3226, "pitch": 58, "duration": 6, "velocity": 64}, {"time": 3226, "pitch": 63, "duration": 6, "velocity": 72}, {"time": 3226, "pitch": 67, "duration": 6, "velocity": 63}, {"time": 3226, "pitch": 70, "duration": 6, "velocity": 51}, {"time": 3229, "pitch": 55, "duration": 7, "velocity": 46}, {"time": 3235, "pitch": 58, "duration": 6, "velocity": 56}, {"time": 3235, "pitch": 63, "duration": 6, "velocity": 63}, {"time": 3235, "pitch": 67, "duration": 7, "velocity": 51}, {"time": 3241, "pitch": 55, "duration": 13, "velocity": 49}, {"time": 3247, "pitch": 58, "duration": 9, "velocity": 59}, {"time": 3253, "pitch": 63, "duration": 17, "velocity": 63}, {"time": 3259, "pitch": 58, "duration": 7, "velocity": 67}, {"time": 3259, "pitch": 67, "duration": 7, "velocity": 66}, {"time": 3265, "pitch": 55, "duration": 2, "velocity": 66}, {"time": 3271, "pitch": 41, "duration": 43, "velocity": 72}, {"time": 3271, "pitch": 60, "duration": 14, "velocity": 66}, {"time": 3271, "pitch": 65, "duration": 14, "velocity": 70}, {"time": 3271, "pitch": 69, "duration": 14, "velocity": 66}, {"time": 3277, "pitch": 48, "duration": 37, "velocity": 38}, {"time": 3283, "pitch": 53, "duration": 31, "velocity": 49}, {"time": 3295, "pitch": 65, "duration": 2, "velocity": 39}, {"time": 3295, "pitch": 67, "duration": 2, "velocity": 34}, {"time": 3295, "pitch": 75, "duration": 3, "velocity": 72}, {"time": 3301, "pitch": 65, "duration": 3, "velocity": 61}, {"time": 3301, "pitch": 74, "duration": 3, "velocity": 67}, {"time": 3307, "pitch": 63, "duration": 6, "velocity": 64}, {"time": 3307, "pitch": 72, "duration": 5, "velocity": 73}, {"time": 3319, "pitch": 46, "duration": 41, "velocity": 75}, {"time": 3319, "pitch": 62, "duration": 12, "velocity": 63}, {"time": 3319, "pitch": 70, "duration": 13, "velocity": 67}, {"time": 3325, "pitch": 53, "duration": 30, "velocity": 51}, {"time": 3331, "pitch": 58, "duration": 9, "velocity": 56}, {"time": 3337, "pitch": 62, "duration": 13, "velocity": 51}, {"time": 3337, "pitch": 65, "duration": 13, "velocity": 63}, {"time": 3340, "pitch": 70, "duration": 11, "velocity": 22}, {"time": 3349, "pitch": 58, "duration": 10, "velocity": 44}, {"time": 3355, "pitch": 62, "duration": 3, "velocity": 70}, {"time": 3355, "pitch": 65, "duration": 4, "velocity": 73}, {"time": 3355, "pitch": 70, "duration": 4, "velocity": 72}, {"time": 3358, "pitch": 53, "duration": 4, "velocity": 60}, {"time": 3361, "pitch": 62, "duration": 3, "velocity": 58}, {"time": 3364, "pitch": 70, "duration": 5, "velocity": 70}, {"time": 3367, "pitch": 46, "duration": 44, "velocity": 76}, {"time": 3367, "pitch": 62, "duration": 12, "velocity": 66}, {"time": 3367, "pitch": 65, "duration": 12, "velocity": 70}, {"time": 3367, "pitch": 70, "duration": 2, "velocity": 72}, {"time": 3373, "pitch": 53, "duration": 20, "velocity": 55}, {"time": 3379, "pitch": 58, "duration": 21, "velocity": 57}, {"time": 3385, "pitch": 60, "duration": 3, "velocity": 60}, {"time": 3385, "pitch": 69, "duration": 7, "velocity": 67}, {"time": 3391, "pitch": 62, "duration": 5, "velocity": 58}, {"time": 3391, "pitch": 70, "duration": 11, "velocity": 73}, {"time": 3397, "pitch": 53, "duration": 12, "velocity": 49}, {"time": 3403, "pitch": 60, "duration": 7, "velocity": 61}, {"time": 3403, "pitch": 69, "duration": 5, "velocity": 70}, {"time": 3403, "pitch": 70, "duration": 6, "velocity": 48}, {"time": 3409, "pitch": 65, "duration": 5, "velocity": 61}, {"time": 3415, "pitch": 44, "duration": 45, "velocity": 73}, {"time": 3415, "pitch": 60, "duration": 9, "velocity": 64}, {"time": 3415, "pitch": 63, "duration": 9, "velocity": 69}, {"time": 3415, "pitch": 68, "duration": 10, "velocity": 62}, {"time": 3421, "pitch": 51, "duration": 7, "velocity": 49}, {"time": 3427, "pitch": 56, "duration": 12, "velocity": 54}, {"time": 3427, "pitch": 60, "duration": 7, "velocity": 58}, {"time": 3427, "pitch": 63, "duration": 6, "velocity": 62}, {"time": 3427, "pitch": 68, "duration": 7, "velocity": 61}, {"time": 3433, "pitch": 51, "duration": 31, "velocity": 47}, {"time": 3439, "pitch": 60, "duration": 4, "velocity": 58}, {"time": 3439, "pitch": 63, "duration": 3, "velocity": 61}, {"time": 3439, "pitch": 68, "duration": 5, "velocity": 57}, {"time": 3445, "pitch": 56, "duration": 9, "velocity": 47}, {"time": 3451, "pitch": 68, "duration": 8, "velocity": 72}, {"time": 3451, "pitch": 75, "duration": 6, "velocity": 73}, {"time": 3457, "pitch": 56, "duration": 4, "velocity": 37}, {"time": 3457, "pitch": 70, "duration": 5, "velocity": 64}, {"time": 3463, "pitch": 44, "duration": 42, "velocity": 73}, {"time": 3463, "pitch": 68, "duration": 7, "velocity": 69}, {"time": 3463, "pitch": 72, "duration": 5, "velocity": 76}, {"time": 3469, "pitch": 51, "duration": 35, "velocity": 46}, {"time": 3475, "pitch": 56, "duration": 25, "velocity": 61}, {"time": 3478, "pitch": 60, "duration": 3, "velocity": 61}, {"time": 3481, "pitch": 63, "duration": 4, "velocity": 53}, {"time": 3487, "pitch": 68, "duration": 2, "velocity": 55}, {"time": 3490, "pitch": 72, "duration": 4, "velocity": 36}, {"time": 3496, "pitch": 75, "duration": 5, "velocity": 40}, {"time": 3499, "pitch": 80, "duration": 2, "velocity": 78}, {"time": 3502, "pitch": 56, "duration": 3, "velocity": 60}, {"time": 3511, "pitch": 43, "duration": 45, "velocity": 69}, {"time": 3511, "pitch": 55, "duration": 14, "velocity": 57}, {"time": 3511, "pitch": 58, "duration": 9, "velocity": 66}, {"time": 3511, "pitch": 62, "duration": 9, "velocity": 64}, {"time": 3511, "pitch": 67, "duration": 8, "velocity": 62}, {"time": 3523, "pitch": 58, "duration": 7, "velocity": 57}, {"time": 3523, "pitch": 62, "duration": 7, "velocity": 60}, {"time": 3523, "pitch": 67, "duration": 7, "velocity": 59}, {"time": 3529, "pitch": 55, "duration": 7, "velocity": 45}, {"time": 3535, "pitch": 58, "duration": 8, "velocity": 51}, {"time": 3535, "pitch": 62, "duration": 9, "velocity": 57}, {"time": 3535, "pitch": 67, "duration": 9, "velocity": 48}, {"time": 3541, "pitch": 55, "duration": 13, "velocity": 35}, {"time": 3547, "pitch": 58, "duration": 7, "velocity": 75}, {"time": 3547, "pitch": 65, "duration": 12, "velocity": 76}, {"time": 3553, "pitch": 50, "duration": 7, "velocity": 58}, {"time": 3559, "pitch": 48, "duration": 40, "velocity": 58}, {"time": 3559, "pitch": 63, "duration": 14, "velocity": 73}, {"time": 3559, "pitch": 67, "duration": 10, "velocity": 60}, {"time": 3565, "pitch": 55, "duration": 34, "velocity": 61}, {"time": 3571, "pitch": 60, "duration": 26, "velocity": 70}, {"time": 3577, "pitch": 62, "duration": 4, "velocity": 62}, {"time": 3583, "pitch": 63, "duration": 8, "velocity": 52}, {"time": 3589, "pitch": 67, "duration": 7, "velocity": 58}, {"time": 3595, "pitch": 70, "duration": 9, "velocity": 73}, {"time": 3607, "pitch": 41, "duration": 38, "velocity": 72}, {"time": 3607, "pitch": 58, "duration": 20, "velocity": 61}, {"time": 3607, "pitch": 63, "duration": 21, "velocity": 61}, {"time": 3607, "pitch": 67, "duration": 21, "velocity": 53}, {"time": 3628, "pitch": 53, "duration": 20, "velocity": 67}, {"time": 3631, "pitch": 58, "duration": 7, "velocity": 60}, {"time": 3640, "pitch": 58, "duration": 2, "velocity": 32}, {"time": 3640, "pitch": 63, "duration": 7, "velocity": 76}, {"time": 3646, "pitch": 65, "duration": 4, "velocity": 63}, {"time": 3655, "pitch": 46, "duration": 12, "velocity": 73}, {"time": 3655, "pitch": 60, "duration": 10, "velocity": 60}, {"time": 3655, "pitch": 62, "duration": 11, "velocity": 70}, {"time": 3655, "pitch": 65, "duration": 8, "velocity": 60}, {"time": 3661, "pitch": 53, "duration": 7, "velocity": 56}, {"time": 3667, "pitch": 58, "duration": 7, "velocity": 50}, {"time": 3673, "pitch": 60, "duration": 24, "velocity": 60}, {"time": 3679, "pitch": 62, "duration": 18, "velocity": 60}, {"time": 3685, "pitch": 65, "duration": 11, "velocity": 44}, {"time": 3688, "pitch": 77, "duration": 6, "velocity": 63}, {"time": 3697, "pitch": 72, "duration": 7, "velocity": 60}, {"time": 3703, "pitch": 55, "duration": 41, "velocity": 67}, {"time": 3703, "pitch": 65, "duration": 7, "velocity": 56}, {"time": 3703, "pitch": 70, "duration": 10, "velocity": 62}, {"time": 3709, "pitch": 62, "duration": 26, "velocity": 48}, {"time": 3715, "pitch": 67, "duration": 26, "velocity": 52}, {"time": 3721, "pitch": 70, "duration": 5, "velocity": 51}, {"time": 3721, "pitch": 74, "duration": 6, "velocity": 51}, {"time": 3739, "pitch": 62, "duration": 5, "velocity": 62}, {"time": 3739, "pitch": 74, "duration": 6, "velocity": 62}, {"time": 3739, "pitch": 82, "duration": 9, "velocity": 67}, {"time": 3745, "pitch": 81, "duration": 7, "velocity": 58}, {"time": 3748, "pitch": 67, "duration": 16, "velocity": 48}, {"time": 3751, "pitch": 51, "duration": 19, "velocity": 72}, {"time": 3751, "pitch": 70, "duration": 10, "velocity": 52}, {"time": 3751, "pitch": 75, "duration": 15, "velocity": 73}, {"time": 3757, "pitch": 58, "duration": 13, "velocity": 58}, {"time": 3763, "pitch": 63, "duration": 7, "velocity": 70}, {"time": 3769, "pitch": 67, "duration": 8, "velocity": 66}, {"time": 3769, "pitch": 75, "duration": 3, "velocity": 40}, {"time": 3775, "pitch": 53, "duration": 16, "velocity": 67}, {"time": 3775, "pitch": 69, "duration": 10, "velocity": 69}, {"time": 3775, "pitch": 72, "duration": 12, "velocity": 70}, {"time": 3781, "pitch": 60, "duration": 11, "velocity": 51}, {"time": 3787, "pitch": 65, "duration": 11, "velocity": 50}, {"time": 3793, "pitch": 70, "duration": 4, "velocity": 57}, {"time": 3796, "pitch": 72, "duration": 4, "velocity": 62}, {"time": 3799, "pitch": 58, "duration": 33, "velocity": 66}, {"time": 3799, "pitch": 74, "duration": 8, "velocity": 67}, {"time": 3805, "pitch": 65, "duration": 33, "velocity": 40}, {"time": 3811, "pitch": 70, "duration": 19, "velocity": 59}, {"time": 3817, "pitch": 72, "duration": 9, "velocity": 60}, {"time": 3823, "pitch": 74, "duration": 12, "velocity": 62}, {"time": 3835, "pitch": 72, "duration": 4, "velocity": 64}, {"time": 3835, "pitch": 77, "duration": 3, "velocity": 76}, {"time": 3847, "pitch": 50, "duration": 42, "velocity": 64}, {"time": 3847, "pitch": 66, "duration": 8, "velocity": 73}, {"time": 3847, "pitch": 69, "duration": 10, "velocity": 62}, {"time": 3847, "pitch": 74, "duration": 9, "velocity": 62}, {"time": 3853, "pitch": 57, "duration": 36, "velocity": 45}, {"time": 3859, "pitch": 60, "duration": 16, "velocity": 54}, {"time": 3859, "pitch": 66, "duration": 10, "velocity": 64}, {"time": 3859, "pitch": 72, "duration": 12, "velocity": 67}, {"time": 3871, "pitch": 66, "duration": 9, "velocity": 62}, {"time": 3871, "pitch": 74, "duration": 8, "velocity": 66}, {"time": 3877, "pitch": 60, "duration": 8, "velocity": 41}, {"time": 3883, "pitch": 66, "duration": 4, "velocity": 70}, {"time": 3886, "pitch": 67, "duration": 4, "velocity": 59}, {"time": 3889, "pitch": 69, "duration": 3, "velocity": 60}, {"time": 3892, "pitch": 72, "duration": 2, "velocity": 57}, {"time": 3895, "pitch": 43, "duration": 14, "velocity": 69}, {"time": 3895, "pitch": 62, "duration": 8, "velocity": 48}, {"time": 3895, "pitch": 70, "duration": 9, "velocity": 76}, {"time": 3901, "pitch": 50, "duration": 12, "velocity": 34}, {"time": 3907, "pitch": 55, "duration": 3, "velocity": 49}, {"time": 3907, "pitch": 60, "duration": 3, "velocity": 61}, {"time": 3907, "pitch": 69, "duration": 5, "velocity": 70}, {"time": 3913, "pitch": 41, "duration": 3, "velocity": 64}, {"time": 3913, "pitch": 62, "duration": 3, "velocity": 62}, {"time": 3913, "pitch": 70, "duration": 5, "velocity": 72}, {"time": 3919, "pitch": 40, "duration": 21, "velocity": 76}, {"time": 3919, "pitch": 52, "duration": 14, "velocity": 73}, {"time": 3919, "pitch": 58, "duration": 4, "velocity": 52}, {"time": 3919, "pitch": 60, "duration": 3, "velocity": 42}, {"time": 3919, "pitch": 64, "duration": 9, "velocity": 64}, {"time": 3919, "pitch": 67, "duration": 8, "velocity": 48}, {"time": 3919, "pitch": 70, "duration": 9, "velocity": 43}, {"time": 3931, "pitch": 58, "duration": 7, "velocity": 66}, {"time": 3931, "pitch": 64, "duration": 6, "velocity": 70}, {"time": 3931, "pitch": 67, "duration": 7, "velocity": 57}, {"time": 3937, "pitch": 52, "duration": 2, "velocity": 64}, {"time": 3943, "pitch": 36, "duration": 37, "velocity": 58}, {"time": 3943, "pitch": 48, "duration": 15, "velocity": 69}, {"time": 3943, "pitch": 58, "duration": 8, "velocity": 60}, {"time": 3943, "pitch": 63, "duration": 7, "velocity": 67}, {"time": 3943, "pitch": 67, "duration": 8, "velocity": 69}, {"time": 3955, "pitch": 58, "duration": 6, "velocity": 63}, {"time": 3955, "pitch": 63, "duration": 6, "velocity": 64}, {"time": 3955, "pitch": 67, "duration": 6, "velocity": 60}, {"time": 3961, "pitch": 48, "duration": 10, "velocity": 44}, {"time": 3967, "pitch": 58, "duration": 8, "velocity": 66}, {"time": 3967, "pitch": 63, "duration": 8, "velocity": 64}, {"time": 3967, "pitch": 67, "duration": 8, "velocity": 56}, {"time": 3973, "pitch": 48, "duration": 9, "velocity": 46}, {"time": 3979, "pitch": 58, "duration": 5, "velocity": 85}, {"time": 3979, "pitch": 63, "duration": 6, "velocity": 76}, {"time": 3979, "pitch": 67, "duration": 8, "velocity": 72}, {"time": 3982, "pitch": 39, "duration": 4, "velocity": 63}, {"time": 3985, "pitch": 40, "duration": 3, "velocity": 45}, {"time": 3988, "pitch": 58, "duration": 2, "velocity": 54}, {"time": 3991, "pitch": 41, "duration": 21, "velocity": 73}, {"time": 3991, "pitch": 58, "duration": 10, "velocity": 69}, {"time": 3991, "pitch": 63, "duration": 11, "velocity": 70}, {"time": 3991, "pitch": 67, "duration": 7, "velocity": 67}, {"time": 3997, "pitch": 48, "duration": 18, "velocity": 57}, {"time": 4003, "pitch": 53, "duration": 8, "velocity": 75}, {"time": 4009, "pitch": 58, "duration": 2, "velocity": 64}, {"time": 4009, "pitch": 63, "duration": 5, "velocity": 72}, {"time": 4015, "pitch": 41, "duration": 8, "velocity": 67}, {"time": 4015, "pitch": 53, "duration": 6, "velocity": 70}, {"time": 4015, "pitch": 60, "duration": 5, "velocity": 69}, {"time": 4015, "pitch": 65, "duration": 5, "velocity": 72}, {"time": 4021, "pitch": 43, "duration": 8, "velocity": 66}, {"time": 4021, "pitch": 60, "duration": 2, "velocity": 50}, {"time": 4021, "pitch": 63, "duration": 3, "velocity": 64}, {"time": 4021, "pitch": 67, "duration": 5, "velocity": 60}, {"time": 4027, "pitch": 45, "duration": 4, "velocity": 67}, {"time": 4027, "pitch": 63, "duration": 5, "velocity": 73}, {"time": 4027, "pitch": 69, "duration": 4, "velocity": 66}, {"time": 4033, "pitch": 70, "duration": 4, "velocity": 69}, {"time": 4039, "pitch": 34, "duration": 3, "velocity": 76}, {"time": 4039, "pitch": 62, "duration": 7, "velocity": 75}, {"time": 4039, "pitch": 65, "duration": 8, "velocity": 72}, {"time": 4039, "pitch": 70, "duration": 8, "velocity": 75}, {"time": 4045, "pitch": 46, "duration": 34, "velocity": 73}, {"time": 4051, "pitch": 53, "duration": 12, "velocity": 69}, {"time": 4051, "pitch": 60, "duration": 8, "velocity": 67}, {"time": 4051, "pitch": 62, "duration": 8, "velocity": 67}, {"time": 4051, "pitch": 65, "duration": 7, "velocity": 67}, {"time": 4051, "pitch": 70, "duration": 8, "velocity": 67}, {"time": 4057, "pitch": 58, "duration": 10, "velocity": 45}, {"time": 4063, "pitch": 60, "duration": 2, "velocity": 67}, {"time": 4063, "pitch": 62, "duration": 2, "velocity": 72}, {"time": 4063, "pitch": 65, "duration": 3, "velocity": 73}, {"time": 4063, "pitch": 70, "duration": 4, "velocity": 63}, {"time": 4069, "pitch": 53, "duration": 11, "velocity": 60}, {"time": 4072, "pitch": 58, "duration": 5, "velocity": 69}, {"time": 4075, "pitch": 74, "duration": 2, "velocity": 93}, {"time": 4078, "pitch": 77, "duration": 2, "velocity": 59}, {"time": 4081, "pitch": 79, "duration": 3, "velocity": 60}, {"time": 4084, "pitch": 82, "duration": 5, "velocity": 75}, {"time": 4087, "pitch": 43, "duration": 11, "velocity": 72}, {"time": 4087, "pitch": 62, "duration": 9, "velocity": 69}, {"time": 4087, "pitch": 67, "duration": 11, "velocity": 72}, {"time": 4087, "pitch": 70, "duration": 9, "velocity": 72}, {"time": 4093, "pitch": 50, "duration": 6, "velocity": 59}, {"time": 4099, "pitch": 55, "duration": 10, "velocity": 52}, {"time": 4099, "pitch": 62, "duration": 4, "velocity": 69}, {"time": 4099, "pitch": 69, "duration": 7, "velocity": 72}, {"time": 4105, "pitch": 57, "duration": 23, "velocity": 69}, {"time": 4105, "pitch": 62, "duration": 9, "velocity": 72}, {"time": 4105, "pitch": 70, "duration": 9, "velocity": 67}, {"time": 4111, "pitch": 58, "duration": 9, "velocity": 62}, {"time": 4117, "pitch": 62, "duration": 5, "velocity": 69}, {"time": 4120, "pitch": 65, "duration": 4, "velocity": 62}, {"time": 4123, "pitch": 58, "duration": 3, "velocity": 72}, {"time": 4123, "pitch": 67, "duration": 6, "velocity": 62}, {"time": 4126, "pitch": 69, "duration": 4, "velocity": 66}, {"time": 4129, "pitch": 70, "duration": 13, "velocity": 73}, {"time": 4135, "pitch": 51, "duration": 20, "velocity": 66}, {"time": 4135, "pitch": 58, "duration": 7, "velocity": 69}, {"time": 4135, "pitch": 63, "duration": 7, "velocity": 73}, {"time": 4135, "pitch": 65, "duration": 7, "velocity": 50}, {"time": 4135, "pitch": 67, "duration": 7, "velocity": 63}, {"time": 4135, "pitch": 70, "duration": 7, "velocity": 43}, {"time": 4141, "pitch": 55, "duration": 8, "velocity": 57}, {"time": 4147, "pitch": 58, "duration": 7, "velocity": 69}, {"time": 4147, "pitch": 63, "duration": 7, "velocity": 70}, {"time": 4147, "pitch": 67, "duration": 7, "velocity": 66}, {"time": 4147, "pitch": 70, "duration": 6, "velocity": 55}, {"time": 4153, "pitch": 55, "duration": 2, "velocity": 58}, {"time": 4153, "pitch": 70, "duration": 3, "velocity": 31}, {"time": 4159, "pitch": 41, "duration": 13, "velocity": 72}, {"time": 4159, "pitch": 60, "duration": 9, "velocity": 72}, {"time": 4159, "pitch": 65, "duration": 8, "velocity": 75}, {"time": 4159, "pitch": 69, "duration": 8, "velocity": 73}, {"time": 4165, "pitch": 48, "duration": 8, "velocity": 53}, {"time": 4171, "pitch": 53, "duration": 5, "velocity": 58}, {"time": 4171, "pitch": 58, "duration": 4, "velocity": 64}, {"time": 4171, "pitch": 63, "duration": 5, "velocity": 66}, {"time": 4171, "pitch": 67, "duration": 10, "velocity": 59}, {"time": 4177, "pitch": 65, "duration": 5, "velocity": 60}, {"time": 4183, "pitch": 46, "duration": 42, "velocity": 69}, {"time": 4183, "pitch": 60, "duration": 11, "velocity": 70}, {"time": 4183, "pitch": 62, "duration": 10, "velocity": 75}, {"time": 4183, "pitch": 65, "duration": 11, "velocity": 63}, {"time": 4183, "pitch": 70, "duration": 10, "velocity": 61}, {"time": 4189, "pitch": 53, "duration": 35, "velocity": 55}, {"time": 4195, "pitch": 58, "duration": 9, "velocity": 80}, {"time": 4201, "pitch": 60, "duration": 5, "velocity": 76}, {"time": 4207, "pitch": 58, "duration": 9, "velocity": 70}, {"time": 4207, "pitch": 62, "duration": 5, "velocity": 85}, {"time": 4213, "pitch": 60, "duration": 4, "velocity": 51}, {"time": 4213, "pitch": 63, "duration": 5, "velocity": 61}, {"time": 4219, "pitch": 58, "duration": 5, "velocity": 52}, {"time": 4219, "pitch": 60, "duration": 5, "velocity": 64}, {"time": 4219, "pitch": 65, "duration": 6, "velocity": 76}, {"time": 4225, "pitch": 67, "duration": 1, "velocity": 44}, {"time": 4231, "pitch": 38, "duration": 7, "velocity": 72}, {"time": 4231, "pitch": 62, "duration": 11, "velocity": 62}, {"time": 4231, "pitch": 66, "duration": 10, "velocity": 95}, {"time": 4237, "pitch": 50, "duration": 8, "velocity": 57}, {"time": 4243, "pitch": 55, "duration": 9, "velocity": 66}, {"time": 4243, "pitch": 62, "duration": 6, "velocity": 63}, {"time": 4243, "pitch": 67, "duration": 10, "velocity": 73}, {"time": 4249, "pitch": 57, "duration": 12, "velocity": 58}, {"time": 4255, "pitch": 62, "duration": 8, "velocity": 72}, {"time": 4255, "pitch": 66, "duration": 6, "velocity": 80}, {"time": 4255, "pitch": 69, "duration": 7, "velocity": 75}, {"time": 4261, "pitch": 50, "duration": 9, "velocity": 67}, {"time": 4264, "pitch": 57, "duration": 5, "velocity": 58}, {"time": 4267, "pitch": 66, "duration": 4, "velocity": 101}, {"time": 4270, "pitch": 67, "duration": 5, "velocity": 59}, {"time": 4273, "pitch": 70, "duration": 3, "velocity": 72}, {"time": 4279, "pitch": 43, "duration": 7, "velocity": 72}, {"time": 4279, "pitch": 62, "duration": 7, "velocity": 76}, {"time": 4279, "pitch": 70, "duration": 10, "velocity": 82}, {"time": 4285, "pitch": 50, "duration": 6, "velocity": 63}, {"time": 4291, "pitch": 41, "duration": 6, "velocity": 60}, {"time": 4291, "pitch": 60, "duration": 5, "velocity": 63}, {"time": 4291, "pitch": 69, "duration": 6, "velocity": 76}, {"time": 4297, "pitch": 50, "duration": 2, "velocity": 63}, {"time": 4303, "pitch": 48, "duration": 48, "velocity": 72}, {"time": 4303, "pitch": 60, "duration": 8, "velocity": 72}, {"time": 4303, "pitch": 64, "duration": 9, "velocity": 82}, {"time": 4303, "pitch": 67, "duration": 9, "velocity": 66}, {"time": 4303, "pitch": 70, "duration": 14, "velocity": 66}, {"time": 4309, "pitch": 55, "duration": 43, "velocity": 50}, {"time": 4315, "pitch": 60, "duration": 36, "velocity": 63}, {"time": 4321, "pitch": 64, "duration": 30, "velocity": 72}, {"time": 4327, "pitch": 70, "duration": 25, "velocity": 64}, {"time": 4375, "pitch": 48, "duration": 18, "velocity": 50}, {"time": 4375, "pitch": 58, "duration": 7, "velocity": 70}, {"time": 4375, "pitch": 63, "duration": 7, "velocity": 61}, {"time": 4375, "pitch": 67, "duration": 8, "velocity": 66}, {"time": 4381, "pitch": 55, "duration": 13, "velocity": 44}, {"time": 4381, "pitch": 70, "duration": 3, "velocity": 1}, {"time": 4384, "pitch": 58, "duration": 9, "velocity": 72}, {"time": 4393, "pitch": 63, "duration": 13, "velocity": 69}, {"time": 4405, "pitch": 58, "duration": 2, "velocity": 40}, {"time": 4405, "pitch": 67, "duration": 10, "velocity": 63}, {"time": 4423, "pitch": 41, "duration": 66, "velocity": 62}, {"time": 4423, "pitch": 55, "duration": 14, "velocity": 57}, {"time": 4423, "pitch": 58, "duration": 10, "velocity": 70}, {"time": 4423, "pitch": 63, "duration": 10, "velocity": 63}, {"time": 4429, "pitch": 48, "duration": 60, "velocity": 47}, {"time": 4435, "pitch": 53, "duration": 53, "velocity": 72}, {"time": 4441, "pitch": 55, "duration": 8, "velocity": 56}, {"time": 4447, "pitch": 58, "duration": 5, "velocity": 48}, {"time": 4453, "pitch": 63, "duration": 3, "velocity": 50}, {"time": 4459, "pitch": 65, "duration": 2, "velocity": 54}, {"time": 4465, "pitch": 70, "duration": 9, "velocity": 45}, {"time": 4471, "pitch": 58, "duration": 21, "velocity": 76}, {"time": 4477, "pitch": 65, "duration": 8, "velocity": 61}, {"time": 4483, "pitch": 74, "duration": 7, "velocity": 75}, {"time": 4490, "pitch": 70, "duration": 7, "velocity": 67}, {"time": 4496, "pitch": 58, "duration": 20, "velocity": 55}, {"time": 4501, "pitch": 65, "duration": 7, "velocity": 52}, {"time": 4507, "pitch": 72, "duration": 7, "velocity": 51}, {"time": 4513, "pitch": 70, "duration": 7, "velocity": 66}, {"time": 4519, "pitch": 58, "duration": 20, "velocity": 64}, {"time": 4525, "pitch": 65, "duration": 6, "velocity": 51}, {"time": 4531, "pitch": 69, "duration": 5, "velocity": 57}, {"time": 4537, "pitch": 70, "duration": 10, "velocity": 66}, {"time": 4537, "pitch": 62, "duration": 8, "velocity": 57}, {"time": 4543, "pitch": 58, "duration": 17, "velocity": 48}, {"time": 4549, "pitch": 62, "duration": 3, "velocity": 56}, {"time": 4549, "pitch": 70, "duration": 5, "velocity": 39}, {"time": 4555, "pitch": 60, "duration": 7, "velocity": 66}, {"time": 4556, "pitch": 69, "duration": 5, "velocity": 61}, {"time": 4561, "pitch": 70, "duration": 4, "velocity": 75}, {"time": 4567, "pitch": 70, "duration": 7, "velocity": 67}, {"time": 4567, "pitch": 62, "duration": 6, "velocity": 62}, {"time": 4570, "pitch": 46, "duration": 9, "velocity": 44}, {"time": 4574, "pitch": 53, "duration": 5, "velocity": 53}, {"time": 4579, "pitch": 58, "duration": 7, "velocity": 56}, {"time": 4579, "pitch": 77, "duration": 15, "velocity": 78}, {"time": 4585, "pitch": 60, "duration": 25, "velocity": 67}, {"time": 4585, "pitch": 70, "duration": 8, "velocity": 73}, {"time": 4591, "pitch": 62, "duration": 13, "velocity": 67}, {"time": 4597, "pitch": 65, "duration": 8, "velocity": 44}, {"time": 4604, "pitch": 72, "duration": 5, "velocity": 63}, {"time": 4608, "pitch": 62, "duration": 2, "velocity": 69}, {"time": 4610, "pitch": 74, "duration": 6, "velocity": 58}, {"time": 4616, "pitch": 75, "duration": 9, "velocity": 78}, {"time": 4616, "pitch": 67, "duration": 9, "velocity": 59}, {"time": 4617, "pitch": 46, "duration": 22, "velocity": 40}, {"time": 4618, "pitch": 45, "duration": 1, "velocity": 41}, {"time": 4624, "pitch": 74, "duration": 3, "velocity": 62}, {"time": 4624, "pitch": 53, "duration": 16, "velocity": 47}, {"time": 4632, "pitch": 70, "duration": 8, "velocity": 67}, {"time": 4632, "pitch": 58, "duration": 5, "velocity": 56}, {"time": 4640, "pitch": 63, "duration": 2, "velocity": 67}, {"time": 4655, "pitch": 53, "duration": 24, "velocity": 49}, {"time": 4656, "pitch": 34, "duration": 24, "velocity": 70}, {"time": 4656, "pitch": 57, "duration": 10, "velocity": 64}, {"time": 4656, "pitch": 62, "duration": 25, "velocity": 67}, {"time": 4665, "pitch": 58, "duration": 16, "velocity": 42}], "annotations": [{"time": 104, "annotation": {"number": 64, "value": 127}, "group": "control_change"}, {"time": 151, "annotation": {"number": 64, "value": 0}, "group": "control_change"}, {"time": 154, "annotation": {"number": 64, "value": 127}, "group": "control_change"}, {"time": 196, "annotation": {"number": 64, "value": 0}, "group": "control_change"}, {"time": 201, "annotation": {"number": 64, "value": 127}, "group": "control_change"}, {"time": 257, "annotation": {"number": 64, "value": 127}, "group": "control_change"}, {"time": 259, "annotation": {"number": 64, "value": 0}, "group": "control_change"}, {"time": 294, "annotation": {"number": 64, "value": 0}, "group": "control_change"}, {"time": 298, "annotation": {"number": 64, "value": 127}, "group": "control_change"}, {"time": 300, "annotation": {"number": 64, "value": 0}, "group": "control_change"}, {"time": 306, "annotation": {"number": 64, "value": 127}, "group": "control_change"}, {"time": 344, "annotation": {"number": 64, "value": 0}, "group": "control_change"}, {"time": 347, "annotation": {"number": 64, "value": 127}, "group": "control_change"}, {"time": 391, "annotation": {"number": 64, "value": 0}, "group": "control_change"}, {"time": 393, "annotation": {"number": 64, "value": 127}, "group": "control_change"}, {"time": 480, "annotation": {"number": 64, "value": 0}, "group": "control_change"}, {"time": 487, "annotation": {"number": 64, "value": 127}, "group": "control_change"}, {"time": 512, "annotation": {"number": 64, "value": 0}, "group": "control_change"}, {"time": 519, "annotation": {"number": 64, "value": 127}, "group": "control_change"}, {"time": 534, "annotation": {"number": 64, "value": 0}, "group": "control_change"}, {"time": 538, "annotation": {"number": 64, "value": 127}, "group": "control_change"}, {"time": 583, "annotation": {"number": 64, "value": 0}, "group": "control_change"}, {"time": 588, "annotation": {"number": 64, "value": 127}, "group": "control_change"}, {"time": 607, "annotation": {"number": 64, "value": 0}, "group": "control_change"}, {"time": 612, "annotation": {"number": 64, "value": 127}, "group": "control_change"}, {"time": 631, "annotation": {"number": 64, "value": 0}, "group": "control_change"}, {"time": 636, "annotation": {"number": 64, "value": 127}, "group": "control_change"}, {"time": 638, "annotation": {"number": 64, "value": 0}, "group": "control_change"}, {"time": 639, "annotation": {"number": 64, "value": 127}, "group": "control_change"}, {"time": 679, "annotation": {"number": 64, "value": 0}, "group": "control_change"}, {"time": 683, "annotation": {"number": 64, "value": 127}, "group": "control_change"}, {"time": 702, "annotation": {"number": 64, "value": 0}, "group": "control_change"}, {"time": 706, "annotation": {"number": 64, "value": 127}, "group": "control_change"}, {"time": 728, "annotation": {"number": 64, "value": 0}, "group": "control_change"}, {"time": 733, "annotation": {"number": 64, "value": 127}, "group": "control_change"}, {"time": 751, "annotation": {"number": 64, "value": 0}, "group": "control_change"}, {"time": 754, "annotation": {"number": 64, "value": 127}, "group": "control_change"}, {"time": 775, "annotation": {"number": 64, "value": 0}, "group": "control_change"}, {"time": 780, "annotation": {"number": 64, "value": 127}, "group": "control_change"}, {"time": 798, "annotation": {"number": 64, "value": 0}, "group": "control_change"}, {"time": 801, "annotation": {"number": 64, "value": 127}, "group": "control_change"}, {"time": 823, "annotation": {"number": 64, "value": 0}, "group": "control_change"}, {"time": 827, "annotation": {"number": 64, "value": 127}, "group": "control_change"}, {"time": 871, "annotation": {"number": 64, "value": 0}, "group": "control_change"}, {"time": 874, "annotation": {"number": 64, "value": 127}, "group": "control_change"}, {"time": 894, "annotation": {"number": 64, "value": 0}, "group": "control_change"}, {"time": 899, "annotation": {"number": 64, "value": 127}, "group": "control_change"}, {"time": 917, "annotation": {"number": 64, "value": 0}, "group": "control_change"}, {"time": 920, "annotation": {"number": 64, "value": 127}, "group": "control_change"}, {"time": 942, "annotation": {"number": 64, "value": 0}, "group": "control_change"}, {"time": 946, "annotation": {"number": 64, "value": 127}, "group": "control_change"}, {"time": 967, "annotation": {"number": 64, "value": 0}, "group": "control_change"}, {"time": 971, "annotation": {"number": 64, "value": 127}, "group": "control_change"}, {"time": 992, "annotation": {"number": 64, "value": 0}, "group": "control_change"}, {"time": 996, "annotation": {"number": 64, "value": 127}, "group": "control_change"}, {"time": 1015, "annotation": {"number": 64, "value": 0}, "group": "control_change"}, {"time": 1019, "annotation": {"number": 64, "value": 127}, "group": "control_change"}, {"time": 1062, "annotation": {"number": 64, "value": 0}, "group": "control_change"}, {"time": 1065, "annotation": {"number": 64, "value": 127}, "group": "control_change"}, {"time": 1067, "annotation": {"number": 64, "value": 0}, "group": "control_change"}, {"time": 1068, "annotation": {"number": 64, "value": 127}, "group": "control_change"}, {"time": 1085, "annotation": {"number": 64, "value": 0}, "group": "control_change"}, {"time": 1088, "annotation": {"number": 64, "value": 127}, "group": "control_change"}, {"time": 1113, "annotation": {"number": 64, "value": 0}, "group": "control_change"}, {"time": 1116, "annotation": {"number": 64, "value": 127}, "group": "control_change"}, {"time": 1134, "annotation": {"number": 64, "value": 0}, "group": "control_change"}, {"time": 1138, "annotation": {"number": 64, "value": 127}, "group": "control_change"}, {"time": 1149, "annotation": {"number": 64, "value": 0}, "group": "control_change"}, {"time": 1151, "annotation": {"number": 64, "value": 127}, "group": "control_change"}, {"time": 1160, "annotation": {"number": 64, "value": 0}, "group": "control_change"}, {"time": 1164, "annotation": {"number": 64, "value": 127}, "group": "control_change"}, {"time": 1184, "annotation": {"number": 64, "value": 0}, "group": "control_change"}, {"time": 1187, "annotation": {"number": 64, "value": 127}, "group": "control_change"}, {"time": 1207, "annotation": {"number": 64, "value": 127}, "group": "control_change"}, {"time": 1255, "annotation": {"number": 64, "value": 0}, "group": "control_change"}, {"time": 1258, "annotation": {"number": 64, "value": 127}, "group": "control_change"}, {"time": 1260, "annotation": {"number": 64, "value": 0}, "group": "control_change"}, {"time": 1261, "annotation": {"number": 64, "value": 127}, "group": "control_change"}, {"time": 1302, "annotation": {"number": 64, "value": 0}, "group": "control_change"}, {"time": 1303, "annotation": {"number": 64, "value": 127}, "group": "control_change"}, {"time": 1352, "annotation": {"number": 64, "value": 0}, "group": "control_change"}, {"time": 1356, "annotation": {"number": 64, "value": 127}, "group": "control_change"}, {"time": 1376, "annotation": {"number": 64, "value": 0}, "group": "control_change"}, {"time": 1379, "annotation": {"number": 64, "value": 127}, "group": "control_change"}, {"time": 1381, "annotation": {"number": 64, "value": 0}, "group": "control_change"}, {"time": 1381, "annotation": {"number": 64, "value": 127}, "group": "control_change"}, {"time": 1398, "annotation": {"number": 64, "value": 0}, "group": "control_change"}, {"time": 1399, "annotation": {"number": 64, "value": 127}, "group": "control_change"}, {"time": 1446, "annotation": {"number": 64, "value": 0}, "group": "control_change"}, {"time": 1452, "annotation": {"number": 64, "value": 127}, "group": "control_change"}, {"time": 1494, "annotation": {"number": 64, "value": 0}, "group": "control_change"}, {"time": 1497, "annotation": {"number": 64, "value": 127}, "group": "control_change"}, {"time": 1543, "annotation": {"number": 64, "value": 0}, "group": "control_change"}, {"time": 1544, "annotation": {"number": 64, "value": 127}, "group": "control_change"}, {"time": 1567, "annotation": {"number": 64, "value": 0}, "group": "control_change"}, {"time": 1571, "annotation": {"number": 64, "value": 127}, "group": "control_change"}, {"time": 1590, "annotation": {"number": 64, "value": 0}, "group": "control_change"}, {"time": 1591, "annotation": {"number": 64, "value": 127}, "group": "control_change"}, {"time": 1639, "annotation": {"number": 64, "value": 0}, "group": "control_change"}, {"time": 1642, "annotation": {"number": 64, "value": 127}, "group": "control_change"}, {"time": 1685, "annotation": {"number": 64, "value": 0}, "group": "control_change"}, {"time": 1688, "annotation": {"number": 64, "value": 127}, "group": "control_change"}, {"time": 1690, "annotation": {"number": 64, "value": 0}, "group": "control_change"}, {"time": 1691, "annotation": {"number": 64, "value": 127}, "group": "control_change"}, {"time": 1736, "annotation": {"number": 64, "value": 0}, "group": "control_change"}, {"time": 1740, "annotation": {"number": 64, "value": 127}, "group": "control_change"}, {"time": 1760, "annotation": {"number": 64, "value": 0}, "group": "control_change"}, {"time": 1762, "annotation": {"number": 64, "value": 127}, "group": "control_change"}, {"time": 1783, "annotation": {"number": 64, "value": 0}, "group": "control_change"}, {"time": 1784, "annotation": {"number": 64, "value": 127}, "group": "control_change"}, {"time": 1830, "annotation": {"number": 64, "value": 0}, "group": "control_change"}, {"time": 1833, "annotation": {"number": 64, "value": 127}, "group": "control_change"}, {"time": 1836, "annotation": {"number": 64, "value": 0}, "group": "control_change"}, {"time": 1836, "annotation": {"number": 64, "value": 127}, "group": "control_change"}, {"time": 1855, "annotation": {"number": 64, "value": 0}, "group": "control_change"}, {"time": 1859, "annotation": {"number": 64, "value": 127}, "group": "control_change"}, {"time": 1878, "annotation": {"number": 64, "value": 0}, "group": "control_change"}, {"time": 1880, "annotation": {"number": 64, "value": 127}, "group": "control_change"}, {"time": 1902, "annotation": {"number": 64, "value": 0}, "group": "control_change"}, {"time": 1904, "annotation": {"number": 64, "value": 127}, "group": "control_change"}, {"time": 1931, "annotation": {"number": 64, "value": 0}, "group": "control_change"}, {"time": 1931, "annotation": {"number": 64, "value": 127}, "group": "control_change"}, {"time": 1974, "annotation": {"number": 64, "value": 0}, "group": "control_change"}, {"time": 1986, "annotation": {"number": 64, "value": 127}, "group": "control_change"}, {"time": 2023, "annotation": {"number": 64, "value": 0}, "group": "control_change"}, {"time": 2034, "annotation": {"number": 64, "value": 0}, "group": "control_change"}, {"time": 2037, "annotation": {"number": 64, "value": 127}, "group": "control_change"}, {"time": 2047, "annotation": {"number": 64, "value": 0}, "group": "control_change"}, {"time": 2050, "annotation": {"number": 64, "value": 127}, "group": "control_change"}, {"time": 2059, "annotation": {"number": 64, "value": 0}, "group": "control_change"}, {"time": 2061, "annotation": {"number": 64, "value": 127}, "group": "control_change"}, {"time": 2072, "annotation": {"number": 64, "value": 0}, "group": "control_change"}, {"time": 2074, "annotation": {"number": 64, "value": 127}, "group": "control_change"}, {"time": 2077, "annotation": {"number": 64, "value": 127}, "group": "control_change"}, {"time": 2096, "annotation": {"number": 64, "value": 0}, "group": "control_change"}, {"time": 2108, "annotation": {"number": 64, "value": 0}, "group": "control_change"}, {"time": 2110, "annotation": {"number": 64, "value": 127}, "group": "control_change"}, {"time": 2142, "annotation": {"number": 64, "value": 0}, "group": "control_change"}, {"time": 2146, "annotation": {"number": 64, "value": 127}, "group": "control_change"}, {"time": 2166, "annotation": {"number": 64, "value": 0}, "group": "control_change"}, {"time": 2171, "annotation": {"number": 64, "value": 127}, "group": "control_change"}, {"time": 2189, "annotation": {"number": 64, "value": 0}, "group": "control_change"}, {"time": 2192, "annotation": {"number": 64, "value": 127}, "group": "control_change"}, {"time": 2214, "annotation": {"number": 64, "value": 0}, "group": "control_change"}, {"time": 2218, "annotation": {"number": 64, "value": 127}, "group": "control_change"}, {"time": 2239, "annotation": {"number": 64, "value": 0}, "group": "control_change"}, {"time": 2243, "annotation": {"number": 64, "value": 127}, "group": "control_change"}, {"time": 2264, "annotation": {"number": 64, "value": 0}, "group": "control_change"}, {"time": 2268, "annotation": {"number": 64, "value": 127}, "group": "control_change"}, {"time": 2287, "annotation": {"number": 64, "value": 0}, "group": "control_change"}, {"time": 2291, "annotation": {"number": 64, "value": 127}, "group": "control_change"}, {"time": 2334, "annotation": {"number": 64, "value": 0}, "group": "control_change"}, {"time": 2337, "annotation": {"number": 64, "value": 127}, "group": "control_change"}, {"time": 2339, "annotation": {"number": 64, "value": 0}, "group": "control_change"}, {"time": 2340, "annotation": {"number": 64, "value": 127}, "group": "control_change"}, {"time": 2357, "annotation": {"number": 64, "value": 0}, "group": "control_change"}, {"time": 2360, "annotation": {"number": 64, "value": 127}, "group": "control_change"}, {"time": 2385, "annotation": {"number": 64, "value": 0}, "group": "control_change"}, {"time": 2388, "annotation": {"number": 64, "value": 127}, "group": "control_change"}, {"time": 2406, "annotation": {"number": 64, "value": 0}, "group": "control_change"}, {"time": 2410, "annotation": {"number": 64, "value": 127}, "group": "control_change"}, {"time": 2421, "annotation": {"number": 64, "value": 0}, "group": "control_change"}, {"time": 2423, "annotation": {"number": 64, "value": 127}, "group": "control_change"}, {"time": 2432, "annotation": {"number": 64, "value": 0}, "group": "control_change"}, {"time": 2436, "annotation": {"number": 64, "value": 127}, "group": "control_change"}, {"time": 2456, "annotation": {"number": 64, "value": 0}, "group": "control_change"}, {"time": 2459, "annotation": {"number": 64, "value": 127}, "group": "control_change"}, {"time": 2479, "annotation": {"number": 64, "value": 127}, "group": "control_change"}, {"time": 2527, "annotation": {"number": 64, "value": 0}, "group": "control_change"}, {"time": 2530, "annotation": {"number": 64, "value": 127}, "group": "control_change"}, {"time": 2532, "annotation": {"number": 64, "value": 0}, "group": "control_change"}, {"time": 2533, "annotation": {"number": 64, "value": 127}, "group": "control_change"}, {"time": 2574, "annotation": {"number": 64, "value": 0}, "group": "control_change"}, {"time": 2575, "annotation": {"number": 64, "value": 127}, "group": "control_change"}, {"time": 2624, "annotation": {"number": 64, "value": 0}, "group": "control_change"}, {"time": 2628, "annotation": {"number": 64, "value": 127}, "group": "control_change"}, {"time": 2648, "annotation": {"number": 64, "value": 0}, "group": "control_change"}, {"time": 2651, "annotation": {"number": 64, "value": 127}, "group": "control_change"}, {"time": 2653, "annotation": {"number": 64, "value": 0}, "group": "control_change"}, {"time": 2653, "annotation": {"number": 64, "value": 127}, "group": "control_change"}, {"time": 2670, "annotation": {"number": 64, "value": 0}, "group": "control_change"}, {"time": 2671, "annotation": {"number": 64, "value": 127}, "group": "control_change"}, {"time": 2718, "annotation": {"number": 64, "value": 0}, "group": "control_change"}, {"time": 2724, "annotation": {"number": 64, "value": 127}, "group": "control_change"}, {"time": 2766, "annotation": {"number": 64, "value": 0}, "group": "control_change"}, {"time": 2769, "annotation": {"number": 64, "value": 127}, "group": "control_change"}, {"time": 2815, "annotation": {"number": 64, "value": 0}, "group": "control_change"}, {"time": 2816, "annotation": {"number": 64, "value": 127}, "group": "control_change"}, {"time": 2839, "annotation": {"number": 64, "value": 0}, "group": "control_change"}, {"time": 2843, "annotation": {"number": 64, "value": 127}, "group": "control_change"}, {"time": 2862, "annotation": {"number": 64, "value": 0}, "group": "control_change"}, {"time": 2863, "annotation": {"number": 64, "value": 127}, "group": "control_change"}, {"time": 2911, "annotation": {"number": 64, "value": 0}, "group": "control_change"}, {"time": 2914, "annotation": {"number": 64, "value": 127}, "group": "control_change"}, {"time": 2957, "annotation": {"number": 64, "value": 0}, "group": "control_change"}, {"time": 2960, "annotation": {"number": 64, "value": 127}, "group": "control_change"}, {"time": 2962, "annotation": {"number": 64, "value": 0}, "group": "control_change"}, {"time": 2963, "annotation": {"number": 64, "value": 127}, "group": "control_change"}, {"time": 3008, "annotation": {"number": 64, "value": 0}, "group": "control_change"}, {"time": 3012, "annotation": {"number": 64, "value": 127}, "group": "control_change"}, {"time": 3032, "annotation": {"number": 64, "value": 0}, "group": "control_change"}, {"time": 3034, "annotation": {"number": 64, "value": 127}, "group": "control_change"}, {"time": 3055, "annotation": {"number": 64, "value": 0}, "group": "control_change"}, {"time": 3056, "annotation": {"number": 64, "value": 127}, "group": "control_change"}, {"time": 3102, "annotation": {"number": 64, "value": 0}, "group": "control_change"}, {"time": 3105, "annotation": {"number": 64, "value": 127}, "group": "control_change"}, {"time": 3108, "annotation": {"number": 64, "value": 0}, "group": "control_change"}, {"time": 3108, "annotation": {"number": 64, "value": 127}, "group": "control_change"}, {"time": 3127, "annotation": {"number": 64, "value": 0}, "group": "control_change"}, {"time": 3131, "annotation": {"number": 64, "value": 127}, "group": "control_change"}, {"time": 3150, "annotation": {"number": 64, "value": 0}, "group": "control_change"}, {"time": 3152, "annotation": {"number": 64, "value": 127}, "group": "control_change"}, {"time": 3174, "annotation": {"number": 64, "value": 0}, "group": "control_change"}, {"time": 3176, "annotation": {"number": 64, "value": 127}, "group": "control_change"}, {"time": 3200, "annotation": {"number": 64, "value": 0}, "group": "control_change"}, {"time": 3203, "annotation": {"number": 64, "value": 127}, "group": "control_change"}, {"time": 3223, "annotation": {"number": 64, "value": 0}, "group": "control_change"}, {"time": 3226, "annotation": {"number": 64, "value": 127}, "group": "control_change"}, {"time": 3271, "annotation": {"number": 64, "value": 0}, "group": "control_change"}, {"time": 3276, "annotation": {"number": 64, "value": 127}, "group": "control_change"}, {"time": 3321, "annotation": {"number": 64, "value": 0}, "group": "control_change"}, {"time": 3327, "annotation": {"number": 64, "value": 127}, "group": "control_change"}, {"time": 3367, "annotation": {"number": 64, "value": 0}, "group": "control_change"}, {"time": 3368, "annotation": {"number": 64, "value": 127}, "group": "control_change"}, {"time": 3415, "annotation": {"number": 64, "value": 0}, "group": "control_change"}, {"time": 3415, "annotation": {"number": 64, "value": 127}, "group": "control_change"}, {"time": 3510, "annotation": {"number": 64, "value": 0}, "group": "control_change"}, {"time": 3514, "annotation": {"number": 64, "value": 127}, "group": "control_change"}, {"time": 3559, "annotation": {"number": 64, "value": 0}, "group": "control_change"}, {"time": 3560, "annotation": {"number": 64, "value": 127}, "group": "control_change"}, {"time": 3606, "annotation": {"number": 64, "value": 0}, "group": "control_change"}, {"time": 3609, "annotation": {"number": 64, "value": 127}, "group": "control_change"}, {"time": 3652, "annotation": {"number": 64, "value": 0}, "group": "control_change"}, {"time": 3656, "annotation": {"number": 64, "value": 127}, "group": "control_change"}, {"time": 3703, "annotation": {"number": 64, "value": 0}, "group": "control_change"}, {"time": 3708, "annotation": {"number": 64, "value": 127}, "group": "control_change"}, {"time": 3751, "annotation": {"number": 64, "value": 0}, "group": "control_change"}, {"time": 3752, "annotation": {"number": 64, "value": 127}, "group": "control_change"}, {"time": 3776, "annotation": {"number": 64, "value": 0}, "group": "control_change"}, {"time": 3780, "annotation": {"number": 64, "value": 127}, "group": "control_change"}, {"time": 3797, "annotation": {"number": 64, "value": 0}, "group": "control_change"}, {"time": 3800, "annotation": {"number": 64, "value": 127}, "group": "control_change"}, {"time": 3846, "annotation": {"number": 64, "value": 0}, "group": "control_change"}, {"time": 3851, "annotation": {"number": 64, "value": 127}, "group": "control_change"}, {"time": 3896, "annotation": {"number": 64, "value": 0}, "group": "control_change"}, {"time": 3899, "annotation": {"number": 64, "value": 127}, "group": "control_change"}, {"time": 3919, "annotation": {"number": 64, "value": 0}, "group": "control_change"}, {"time": 3922, "annotation": {"number": 64, "value": 127}, "group": "control_change"}, {"time": 3942, "annotation": {"number": 64, "value": 0}, "group": "control_change"}, {"time": 3945, "annotation": {"number": 64, "value": 127}, "group": "control_change"}, {"time": 3989, "annotation": {"number": 64, "value": 0}, "group": "control_change"}, {"time": 3992, "annotation": {"number": 64, "value": 127}, "group": "control_change"}, {"time": 4037, "annotation": {"number": 64, "value": 0}, "group": "control_change"}, {"time": 4040, "annotation": {"number": 64, "value": 127}, "group": "control_change"}, {"time": 4086, "annotation": {"number": 64, "value": 0}, "group": "control_change"}, {"time": 4087, "annotation": {"number": 64, "value": 127}, "group": "control_change"}, {"time": 4134, "annotation": {"number": 64, "value": 0}, "group": "control_change"}, {"time": 4136, "annotation": {"number": 64, "value": 127}, "group": "control_change"}, {"time": 4159, "annotation": {"number": 64, "value": 0}, "group": "control_change"}, {"time": 4164, "annotation": {"number": 64, "value": 127}, "group": "control_change"}, {"time": 4184, "annotation": {"number": 64, "value": 0}, "group": "control_change"}, {"time": 4188, "annotation": {"number": 64, "value": 127}, "group": "control_change"}, {"time": 4231, "annotation": {"number": 64, "value": 0}, "group": "control_change"}, {"time": 4234, "annotation": {"number": 64, "value": 127}, "group": "control_change"}, {"time": 4278, "annotation": {"number": 64, "value": 0}, "group": "control_change"}, {"time": 4281, "annotation": {"number": 64, "value": 127}, "group": "control_change"}, {"time": 4299, "annotation": {"number": 64, "value": 0}, "group": "control_change"}, {"time": 4303, "annotation": {"number": 64, "value": 127}, "group": "control_change"}, {"time": 4369, "annotation": {"number": 64, "value": 0}, "group": "control_change"}, {"time": 4377, "annotation": {"number": 64, "value": 127}, "group": "control_change"}, {"time": 4422, "annotation": {"number": 64, "value": 0}, "group": "control_change"}, {"time": 4426, "annotation": {"number": 64, "value": 127}, "group": "control_change"}, {"time": 4473, "annotation": {"number": 64, "value": 127}, "group": "control_change"}, {"time": 4503, "annotation": {"number": 64, "value": 0}, "group": "control_change"}, {"time": 4567, "annotation": {"number": 64, "value": 0}, "group": "control_change"}, {"time": 4569, "annotation": {"number": 64, "value": 127}, "group": "control_change"}, {"time": 4616, "annotation": {"number": 64, "value": 0}, "group": "control_change"}, {"time": 4617, "annotation": {"number": 64, "value": 127}, "group": "control_change"}, {"time": 4656, "annotation": {"number": 64, "value": 0}, "group": "control_change"}, {"time": 4658, "annotation": {"number": 64, "value": 127}, "group": "control_change"}, {"time": 4714, "annotation": {"number": 64, "value": 0}, "group": "control_change"}]}]}