{"metadata": {"schema_version": "0.2", "title": "None", "source_filename": "226.mid", "source_format": "midi"}, "resolution": 12, "tempos": [{"time": 0, "qpm": 59.00006686674245}, {"time": 13, "qpm": 58.00004253336452}, {"time": 589, "qpm": 59.00006686674245}, {"time": 637, "qpm": 58.00004253336452}, {"time": 997, "qpm": 59.00006686674245}, {"time": 1021, "qpm": 58.00004253336452}, {"time": 1117, "qpm": 59.00006686674245}, {"time": 1525, "qpm": 58.00004253336452}, {"time": 1789, "qpm": 59.00006686674245}, {"time": 1837, "qpm": 58.00004253336452}, {"time": 2005, "qpm": 59.00006686674245}, {"time": 2029, "qpm": 58.00004253336452}, {"time": 2221, "qpm": 59.00006686674245}, {"time": 2605, "qpm": 58.00004253336452}, {"time": 2653, "qpm": 60.0}, {"time": 2689, "qpm": 58.00004253336452}, {"time": 2713, "qpm": 60.99997255001235}, {"time": 2725, "qpm": 59.00006686674245}, {"time": 2833, "qpm": 57.000031350017245}, {"time": 2881, "qpm": 60.0}, {"time": 2893, "qpm": 58.00004253336452}], "time_signatures": [{"time": 0, "numerator": 4, "denominator": 4}], "tracks": [{"program": 0, "is_drum": false, "name": "MELODY", "notes": [{"time": 109, "pitch": 81, "duration": 6, "velocity": 86}, {"time": 115, "pitch": 81, "duration": 3, "velocity": 84}, {"time": 118, "pitch": 79, "duration": 3, "velocity": 78}, {"time": 121, "pitch": 81, "duration": 36, "velocity": 84}, {"time": 157, "pitch": 81, "duration": 6, "velocity": 86}, {"time": 163, "pitch": 86, "duration": 3, "velocity": 83}, {"time": 166, "pitch": 86, "duration": 3, "velocity": 93}, {"time": 169, "pitch": 79, "duration": 36, "velocity": 86}, {"time": 205, "pitch": 79, "duration": 6, "velocity": 81}, {"time": 211, "pitch": 79, "duration": 3, "velocity": 90}, {"time": 214, "pitch": 79, "duration": 3, "velocity": 84}, {"time": 217, "pitch": 84, "duration": 12, "velocity": 95}, {"time": 229, "pitch": 81, "duration": 2, "velocity": 86}, {"time": 231, "pitch": 84, "duration": 1, "velocity": 84}, {"time": 232, "pitch": 81, "duration": 45, "velocity": 81}, {"time": 277, "pitch": 81, "duration": 6, "velocity": 84}, {"time": 283, "pitch": 81, "duration": 3, "velocity": 90}, {"time": 286, "pitch": 79, "duration": 3, "velocity": 86}, {"time": 289, "pitch": 86, "duration": 36, "velocity": 95}, {"time": 325, "pitch": 79, "duration": 6, "velocity": 84}, {"time": 331, "pitch": 79, "duration": 3, "velocity": 84}, {"time": 334, "pitch": 77, "duration": 3, "velocity": 90}, {"time": 337, "pitch": 79, "duration": 36, "velocity": 90}, {"time": 373, "pitch": 79, "duration": 6, "velocity": 86}, {"time": 379, "pitch": 79, "duration": 3, "velocity": 84}, {"time": 382, "pitch": 79, "duration": 3, "velocity": 83}, {"time": 385, "pitch": 81, "duration": 12, "velocity": 86}, {"time": 397, "pitch": 74, "duration": 24, "velocity": 86}, {"time": 421, "pitch": 86, "duration": 36, "velocity": 63}, {"time": 457, "pitch": 84, "duration": 3, "velocity": 90}, {"time": 460, "pitch": 86, "duration": 2, "velocity": 82}, {"time": 462, "pitch": 84, "duration": 1, "velocity": 76}, {"time": 463, "pitch": 81, "duration": 3, "velocity": 83}, {"time": 466, "pitch": 79, "duration": 3, "velocity": 79}, {"time": 469, "pitch": 81, "duration": 48, "velocity": 90}, {"time": 517, "pitch": 86, "duration": 36, "velocity": 79}, {"time": 553, "pitch": 84, "duration": 3, "velocity": 91}, {"time": 556, "pitch": 86, "duration": 2, "velocity": 79}, {"time": 558, "pitch": 84, "duration": 1, "velocity": 72}, {"time": 559, "pitch": 81, "duration": 3, "velocity": 76}, {"time": 562, "pitch": 79, "duration": 3, "velocity": 68}, {"time": 565, "pitch": 77, "duration": 48, "velocity": 84}, {"time": 613, "pitch": 69, "duration": 3, "velocity": 84}, {"time": 616, "pitch": 69, "duration": 3, "velocity": 82}, {"time": 619, "pitch": 69, "duration": 3, "velocity": 76}, {"time": 622, "pitch": 72, "duration": 3, "velocity": 79}, {"time": 625, "pitch": 74, "duration": 6, "velocity": 79}, {"time": 631, "pitch": 81, "duration": 6, "velocity": 84}, {"time": 637, "pitch": 79, "duration": 3, "velocity": 82}, {"time": 640, "pitch": 81, "duration": 1, "velocity": 73}, {"time": 641, "pitch": 79, "duration": 2, "velocity": 71}, {"time": 643, "pitch": 77, "duration": 3, "velocity": 84}, {"time": 646, "pitch": 79, "duration": 3, "velocity": 84}, {"time": 649, "pitch": 77, "duration": 6, "velocity": 81}, {"time": 655, "pitch": 69, "duration": 3, "velocity": 90}, {"time": 658, "pitch": 72, "duration": 3, "velocity": 86}, {"time": 661, "pitch": 74, "duration": 48, "velocity": 83}, {"time": 709, "pitch": 69, "duration": 3, "velocity": 98}, {"time": 712, "pitch": 74, "duration": 3, "velocity": 84}, {"time": 715, "pitch": 74, "duration": 3, "velocity": 90}, {"time": 718, "pitch": 72, "duration": 3, "velocity": 93}, {"time": 721, "pitch": 74, "duration": 6, "velocity": 94}, {"time": 727, "pitch": 77, "duration": 6, "velocity": 101}, {"time": 733, "pitch": 74, "duration": 6, "velocity": 94}, {"time": 739, "pitch": 74, "duration": 12, "velocity": 94}, {"time": 751, "pitch": 72, "duration": 3, "velocity": 90}, {"time": 754, "pitch": 69, "duration": 3, "velocity": 82}, {"time": 757, "pitch": 72, "duration": 3, "velocity": 94}, {"time": 760, "pitch": 69, "duration": 3, "velocity": 82}, {"time": 763, "pitch": 67, "duration": 3, "velocity": 76}, {"time": 766, "pitch": 69, "duration": 3, "velocity": 79}, {"time": 769, "pitch": 67, "duration": 6, "velocity": 93}, {"time": 775, "pitch": 62, "duration": 3, "velocity": 84}, {"time": 778, "pitch": 65, "duration": 3, "velocity": 84}, {"time": 781, "pitch": 72, "duration": 3, "velocity": 84}, {"time": 784, "pitch": 69, "duration": 21, "velocity": 84}, {"time": 805, "pitch": 69, "duration": 3, "velocity": 100}, {"time": 808, "pitch": 74, "duration": 3, "velocity": 90}, {"time": 811, "pitch": 74, "duration": 3, "velocity": 90}, {"time": 814, "pitch": 72, "duration": 3, "velocity": 93}, {"time": 817, "pitch": 74, "duration": 6, "velocity": 95}, {"time": 823, "pitch": 72, "duration": 3, "velocity": 94}, {"time": 826, "pitch": 74, "duration": 3, "velocity": 82}, {"time": 829, "pitch": 72, "duration": 3, "velocity": 86}, {"time": 832, "pitch": 67, "duration": 15, "velocity": 94}, {"time": 847, "pitch": 65, "duration": 3, "velocity": 95}, {"time": 850, "pitch": 67, "duration": 3, "velocity": 91}, {"time": 853, "pitch": 72, "duration": 3, "velocity": 94}, {"time": 856, "pitch": 69, "duration": 3, "velocity": 84}, {"time": 859, "pitch": 72, "duration": 3, "velocity": 84}, {"time": 862, "pitch": 69, "duration": 3, "velocity": 84}, {"time": 865, "pitch": 72, "duration": 6, "velocity": 80}, {"time": 871, "pitch": 67, "duration": 3, "velocity": 73}, {"time": 874, "pitch": 69, "duration": 6, "velocity": 86}, {"time": 880, "pitch": 62, "duration": 21, "velocity": 91}, {"time": 901, "pitch": 69, "duration": 3, "velocity": 76}, {"time": 904, "pitch": 74, "duration": 3, "velocity": 90}, {"time": 907, "pitch": 74, "duration": 3, "velocity": 84}, {"time": 910, "pitch": 72, "duration": 3, "velocity": 90}, {"time": 913, "pitch": 74, "duration": 6, "velocity": 91}, {"time": 919, "pitch": 77, "duration": 3, "velocity": 95}, {"time": 922, "pitch": 74, "duration": 3, "velocity": 91}, {"time": 925, "pitch": 77, "duration": 6, "velocity": 95}, {"time": 931, "pitch": 77, "duration": 12, "velocity": 91}, {"time": 943, "pitch": 74, "duration": 3, "velocity": 84}, {"time": 946, "pitch": 77, "duration": 3, "velocity": 91}, {"time": 949, "pitch": 77, "duration": 3, "velocity": 95}, {"time": 952, "pitch": 77, "duration": 3, "velocity": 91}, {"time": 955, "pitch": 74, "duration": 3, "velocity": 86}, {"time": 958, "pitch": 77, "duration": 3, "velocity": 93}, {"time": 961, "pitch": 74, "duration": 6, "velocity": 95}, {"time": 967, "pitch": 72, "duration": 3, "velocity": 90}, {"time": 970, "pitch": 74, "duration": 6, "velocity": 86}, {"time": 976, "pitch": 67, "duration": 21, "velocity": 95}, {"time": 997, "pitch": 62, "duration": 3, "velocity": 98}, {"time": 1000, "pitch": 62, "duration": 3, "velocity": 84}, {"time": 1003, "pitch": 62, "duration": 3, "velocity": 84}, {"time": 1006, "pitch": 65, "duration": 3, "velocity": 93}, {"time": 1009, "pitch": 69, "duration": 6, "velocity": 95}, {"time": 1015, "pitch": 72, "duration": 3, "velocity": 91}, {"time": 1018, "pitch": 74, "duration": 3, "velocity": 90}, {"time": 1021, "pitch": 72, "duration": 6, "velocity": 90}, {"time": 1027, "pitch": 67, "duration": 12, "velocity": 90}, {"time": 1039, "pitch": 65, "duration": 3, "velocity": 90}, {"time": 1042, "pitch": 67, "duration": 3, "velocity": 86}, {"time": 1045, "pitch": 65, "duration": 3, "velocity": 84}, {"time": 1048, "pitch": 62, "duration": 3, "velocity": 94}, {"time": 1051, "pitch": 62, "duration": 3, "velocity": 84}, {"time": 1054, "pitch": 67, "duration": 3, "velocity": 90}, {"time": 1057, "pitch": 65, "duration": 3, "velocity": 90}, {"time": 1060, "pitch": 67, "duration": 2, "velocity": 90}, {"time": 1062, "pitch": 65, "duration": 2, "velocity": 90}, {"time": 1064, "pitch": 62, "duration": 4, "velocity": 90}, {"time": 1066, "pitch": 60, "duration": 3, "velocity": 90}, {"time": 1069, "pitch": 62, "duration": 48, "velocity": 90}, {"time": 1117, "pitch": 74, "duration": 18, "velocity": 90}, {"time": 1135, "pitch": 72, "duration": 3, "velocity": 93}, {"time": 1138, "pitch": 74, "duration": 3, "velocity": 84}, {"time": 1141, "pitch": 72, "duration": 3, "velocity": 94}, {"time": 1144, "pitch": 69, "duration": 15, "velocity": 104}, {"time": 1159, "pitch": 69, "duration": 3, "velocity": 95}, {"time": 1162, "pitch": 72, "duration": 3, "velocity": 95}, {"time": 1165, "pitch": 74, "duration": 15, "velocity": 98}, {"time": 1180, "pitch": 77, "duration": 3, "velocity": 95}, {"time": 1183, "pitch": 74, "duration": 3, "velocity": 98}, {"time": 1186, "pitch": 77, "duration": 3, "velocity": 93}, {"time": 1189, "pitch": 79, "duration": 24, "velocity": 95}, {"time": 1213, "pitch": 74, "duration": 18, "velocity": 98}, {"time": 1231, "pitch": 74, "duration": 3, "velocity": 100}, {"time": 1234, "pitch": 77, "duration": 3, "velocity": 95}, {"time": 1237, "pitch": 79, "duration": 18, "velocity": 90}, {"time": 1255, "pitch": 79, "duration": 3, "velocity": 86}, {"time": 1258, "pitch": 81, "duration": 3, "velocity": 84}, {"time": 1261, "pitch": 74, "duration": 18, "velocity": 98}, {"time": 1279, "pitch": 72, "duration": 3, "velocity": 91}, {"time": 1282, "pitch": 74, "duration": 3, "velocity": 84}, {"time": 1285, "pitch": 72, "duration": 3, "velocity": 94}, {"time": 1288, "pitch": 69, "duration": 21, "velocity": 77}, {"time": 1309, "pitch": 69, "duration": 3, "velocity": 104}, {"time": 1312, "pitch": 74, "duration": 3, "velocity": 91}, {"time": 1315, "pitch": 74, "duration": 3, "velocity": 86}, {"time": 1318, "pitch": 72, "duration": 3, "velocity": 95}, {"time": 1321, "pitch": 74, "duration": 6, "velocity": 90}, {"time": 1327, "pitch": 77, "duration": 3, "velocity": 95}, {"time": 1330, "pitch": 74, "duration": 3, "velocity": 86}, {"time": 1333, "pitch": 74, "duration": 6, "velocity": 84}, {"time": 1339, "pitch": 74, "duration": 12, "velocity": 62}, {"time": 1351, "pitch": 72, "duration": 3, "velocity": 86}, {"time": 1354, "pitch": 74, "duration": 3, "velocity": 86}, {"time": 1357, "pitch": 74, "duration": 3, "velocity": 86}, {"time": 1360, "pitch": 72, "duration": 3, "velocity": 86}, {"time": 1363, "pitch": 72, "duration": 3, "velocity": 86}, {"time": 1366, "pitch": 74, "duration": 3, "velocity": 86}, {"time": 1369, "pitch": 72, "duration": 3, "velocity": 91}, {"time": 1372, "pitch": 74, "duration": 2, "velocity": 80}, {"time": 1374, "pitch": 72, "duration": 1, "velocity": 80}, {"time": 1375, "pitch": 67, "duration": 3, "velocity": 82}, {"time": 1378, "pitch": 72, "duration": 3, "velocity": 69}, {"time": 1381, "pitch": 69, "duration": 24, "velocity": 90}, {"time": 1405, "pitch": 62, "duration": 3, "velocity": 79}, {"time": 1408, "pitch": 62, "duration": 3, "velocity": 73}, {"time": 1411, "pitch": 62, "duration": 3, "velocity": 76}, {"time": 1414, "pitch": 65, "duration": 3, "velocity": 84}, {"time": 1417, "pitch": 69, "duration": 6, "velocity": 80}, {"time": 1423, "pitch": 72, "duration": 3, "velocity": 83}, {"time": 1426, "pitch": 74, "duration": 3, "velocity": 83}, {"time": 1429, "pitch": 67, "duration": 6, "velocity": 79}, {"time": 1435, "pitch": 67, "duration": 12, "velocity": 79}, {"time": 1447, "pitch": 69, "duration": 6, "velocity": 79}, {"time": 1453, "pitch": 72, "duration": 3, "velocity": 100}, {"time": 1456, "pitch": 72, "duration": 3, "velocity": 90}, {"time": 1459, "pitch": 72, "duration": 3, "velocity": 93}, {"time": 1462, "pitch": 74, "duration": 3, "velocity": 84}, {"time": 1465, "pitch": 79, "duration": 3, "velocity": 90}, {"time": 1468, "pitch": 81, "duration": 3, "velocity": 84}, {"time": 1471, "pitch": 77, "duration": 3, "velocity": 91}, {"time": 1474, "pitch": 79, "duration": 3, "velocity": 78}, {"time": 1477, "pitch": 74, "duration": 24, "velocity": 98}, {"time": 1525, "pitch": 86, "duration": 36, "velocity": 63}, {"time": 1561, "pitch": 84, "duration": 3, "velocity": 90}, {"time": 1564, "pitch": 86, "duration": 2, "velocity": 82}, {"time": 1566, "pitch": 84, "duration": 1, "velocity": 76}, {"time": 1567, "pitch": 81, "duration": 3, "velocity": 83}, {"time": 1570, "pitch": 79, "duration": 3, "velocity": 79}, {"time": 1573, "pitch": 81, "duration": 48, "velocity": 90}, {"time": 1621, "pitch": 86, "duration": 36, "velocity": 79}, {"time": 1657, "pitch": 84, "duration": 3, "velocity": 91}, {"time": 1660, "pitch": 86, "duration": 2, "velocity": 79}, {"time": 1662, "pitch": 84, "duration": 1, "velocity": 72}, {"time": 1663, "pitch": 81, "duration": 3, "velocity": 76}, {"time": 1666, "pitch": 79, "duration": 3, "velocity": 68}, {"time": 1669, "pitch": 77, "duration": 48, "velocity": 84}, {"time": 1717, "pitch": 69, "duration": 3, "velocity": 84}, {"time": 1720, "pitch": 69, "duration": 3, "velocity": 82}, {"time": 1723, "pitch": 69, "duration": 3, "velocity": 76}, {"time": 1726, "pitch": 72, "duration": 3, "velocity": 79}, {"time": 1729, "pitch": 74, "duration": 6, "velocity": 79}, {"time": 1735, "pitch": 81, "duration": 6, "velocity": 84}, {"time": 1741, "pitch": 79, "duration": 3, "velocity": 82}, {"time": 1744, "pitch": 81, "duration": 1, "velocity": 73}, {"time": 1745, "pitch": 79, "duration": 2, "velocity": 71}, {"time": 1747, "pitch": 77, "duration": 3, "velocity": 84}, {"time": 1750, "pitch": 79, "duration": 3, "velocity": 84}, {"time": 1753, "pitch": 77, "duration": 6, "velocity": 81}, {"time": 1759, "pitch": 69, "duration": 3, "velocity": 90}, {"time": 1762, "pitch": 72, "duration": 3, "velocity": 86}, {"time": 1765, "pitch": 74, "duration": 48, "velocity": 83}, {"time": 1813, "pitch": 69, "duration": 3, "velocity": 98}, {"time": 1816, "pitch": 74, "duration": 3, "velocity": 84}, {"time": 1819, "pitch": 74, "duration": 3, "velocity": 90}, {"time": 1822, "pitch": 72, "duration": 3, "velocity": 93}, {"time": 1825, "pitch": 74, "duration": 6, "velocity": 94}, {"time": 1831, "pitch": 77, "duration": 6, "velocity": 101}, {"time": 1837, "pitch": 74, "duration": 6, "velocity": 94}, {"time": 1843, "pitch": 74, "duration": 12, "velocity": 94}, {"time": 1855, "pitch": 72, "duration": 3, "velocity": 90}, {"time": 1858, "pitch": 69, "duration": 3, "velocity": 82}, {"time": 1861, "pitch": 72, "duration": 3, "velocity": 94}, {"time": 1864, "pitch": 69, "duration": 3, "velocity": 82}, {"time": 1867, "pitch": 67, "duration": 3, "velocity": 76}, {"time": 1870, "pitch": 69, "duration": 3, "velocity": 79}, {"time": 1873, "pitch": 67, "duration": 6, "velocity": 93}, {"time": 1879, "pitch": 62, "duration": 3, "velocity": 84}, {"time": 1882, "pitch": 65, "duration": 3, "velocity": 84}, {"time": 1885, "pitch": 72, "duration": 3, "velocity": 84}, {"time": 1888, "pitch": 69, "duration": 21, "velocity": 84}, {"time": 1909, "pitch": 69, "duration": 3, "velocity": 100}, {"time": 1912, "pitch": 74, "duration": 3, "velocity": 90}, {"time": 1915, "pitch": 74, "duration": 3, "velocity": 90}, {"time": 1918, "pitch": 72, "duration": 3, "velocity": 93}, {"time": 1921, "pitch": 74, "duration": 6, "velocity": 95}, {"time": 1927, "pitch": 72, "duration": 3, "velocity": 94}, {"time": 1930, "pitch": 74, "duration": 3, "velocity": 82}, {"time": 1933, "pitch": 72, "duration": 3, "velocity": 86}, {"time": 1936, "pitch": 67, "duration": 15, "velocity": 94}, {"time": 1951, "pitch": 65, "duration": 3, "velocity": 95}, {"time": 1954, "pitch": 67, "duration": 3, "velocity": 91}, {"time": 1957, "pitch": 72, "duration": 3, "velocity": 94}, {"time": 1960, "pitch": 69, "duration": 3, "velocity": 84}, {"time": 1963, "pitch": 72, "duration": 3, "velocity": 84}, {"time": 1966, "pitch": 69, "duration": 3, "velocity": 84}, {"time": 1969, "pitch": 72, "duration": 6, "velocity": 80}, {"time": 1975, "pitch": 67, "duration": 3, "velocity": 73}, {"time": 1978, "pitch": 69, "duration": 6, "velocity": 86}, {"time": 1984, "pitch": 62, "duration": 21, "velocity": 91}, {"time": 2005, "pitch": 69, "duration": 3, "velocity": 76}, {"time": 2008, "pitch": 74, "duration": 3, "velocity": 90}, {"time": 2011, "pitch": 74, "duration": 3, "velocity": 84}, {"time": 2014, "pitch": 72, "duration": 3, "velocity": 90}, {"time": 2017, "pitch": 74, "duration": 6, "velocity": 91}, {"time": 2023, "pitch": 77, "duration": 3, "velocity": 95}, {"time": 2026, "pitch": 74, "duration": 3, "velocity": 91}, {"time": 2029, "pitch": 77, "duration": 6, "velocity": 95}, {"time": 2035, "pitch": 77, "duration": 12, "velocity": 91}, {"time": 2047, "pitch": 74, "duration": 3, "velocity": 84}, {"time": 2050, "pitch": 77, "duration": 3, "velocity": 91}, {"time": 2053, "pitch": 77, "duration": 3, "velocity": 95}, {"time": 2056, "pitch": 77, "duration": 3, "velocity": 91}, {"time": 2059, "pitch": 74, "duration": 3, "velocity": 86}, {"time": 2062, "pitch": 77, "duration": 3, "velocity": 93}, {"time": 2065, "pitch": 74, "duration": 6, "velocity": 95}, {"time": 2074, "pitch": 74, "duration": 6, "velocity": 86}, {"time": 2080, "pitch": 67, "duration": 21, "velocity": 95}, {"time": 2101, "pitch": 62, "duration": 3, "velocity": 98}, {"time": 2104, "pitch": 62, "duration": 3, "velocity": 84}, {"time": 2107, "pitch": 62, "duration": 3, "velocity": 84}, {"time": 2110, "pitch": 65, "duration": 3, "velocity": 93}, {"time": 2113, "pitch": 69, "duration": 6, "velocity": 95}, {"time": 2119, "pitch": 72, "duration": 3, "velocity": 91}, {"time": 2122, "pitch": 74, "duration": 3, "velocity": 90}, {"time": 2125, "pitch": 72, "duration": 6, "velocity": 90}, {"time": 2131, "pitch": 67, "duration": 12, "velocity": 90}, {"time": 2143, "pitch": 65, "duration": 3, "velocity": 90}, {"time": 2146, "pitch": 67, "duration": 3, "velocity": 86}, {"time": 2149, "pitch": 65, "duration": 3, "velocity": 84}, {"time": 2152, "pitch": 62, "duration": 3, "velocity": 94}, {"time": 2155, "pitch": 62, "duration": 3, "velocity": 84}, {"time": 2158, "pitch": 67, "duration": 3, "velocity": 90}, {"time": 2161, "pitch": 65, "duration": 3, "velocity": 90}, {"time": 2164, "pitch": 67, "duration": 2, "velocity": 90}, {"time": 2166, "pitch": 62, "duration": 4, "velocity": 90}, {"time": 2170, "pitch": 60, "duration": 3, "velocity": 90}, {"time": 2173, "pitch": 62, "duration": 48, "velocity": 90}, {"time": 2221, "pitch": 74, "duration": 18, "velocity": 90}, {"time": 2239, "pitch": 72, "duration": 3, "velocity": 93}, {"time": 2242, "pitch": 74, "duration": 3, "velocity": 84}, {"time": 2245, "pitch": 72, "duration": 3, "velocity": 94}, {"time": 2248, "pitch": 69, "duration": 15, "velocity": 104}, {"time": 2263, "pitch": 69, "duration": 3, "velocity": 95}, {"time": 2266, "pitch": 72, "duration": 3, "velocity": 95}, {"time": 2269, "pitch": 74, "duration": 15, "velocity": 98}, {"time": 2284, "pitch": 77, "duration": 3, "velocity": 95}, {"time": 2287, "pitch": 74, "duration": 3, "velocity": 98}, {"time": 2290, "pitch": 77, "duration": 3, "velocity": 93}, {"time": 2293, "pitch": 79, "duration": 24, "velocity": 95}, {"time": 2317, "pitch": 74, "duration": 18, "velocity": 98}, {"time": 2335, "pitch": 74, "duration": 3, "velocity": 100}, {"time": 2338, "pitch": 77, "duration": 3, "velocity": 95}, {"time": 2341, "pitch": 79, "duration": 18, "velocity": 90}, {"time": 2359, "pitch": 79, "duration": 3, "velocity": 86}, {"time": 2362, "pitch": 81, "duration": 3, "velocity": 84}, {"time": 2365, "pitch": 74, "duration": 18, "velocity": 98}, {"time": 2383, "pitch": 72, "duration": 3, "velocity": 91}, {"time": 2386, "pitch": 74, "duration": 3, "velocity": 84}, {"time": 2389, "pitch": 72, "duration": 3, "velocity": 94}, {"time": 2392, "pitch": 69, "duration": 21, "velocity": 77}, {"time": 2413, "pitch": 69, "duration": 3, "velocity": 104}, {"time": 2416, "pitch": 74, "duration": 3, "velocity": 91}, {"time": 2419, "pitch": 74, "duration": 3, "velocity": 86}, {"time": 2422, "pitch": 72, "duration": 3, "velocity": 95}, {"time": 2425, "pitch": 74, "duration": 6, "velocity": 90}, {"time": 2431, "pitch": 77, "duration": 3, "velocity": 95}, {"time": 2434, "pitch": 74, "duration": 3, "velocity": 86}, {"time": 2437, "pitch": 74, "duration": 6, "velocity": 84}, {"time": 2443, "pitch": 74, "duration": 12, "velocity": 62}, {"time": 2455, "pitch": 72, "duration": 3, "velocity": 86}, {"time": 2458, "pitch": 74, "duration": 3, "velocity": 86}, {"time": 2461, "pitch": 74, "duration": 3, "velocity": 86}, {"time": 2464, "pitch": 72, "duration": 3, "velocity": 86}, {"time": 2467, "pitch": 72, "duration": 3, "velocity": 86}, {"time": 2470, "pitch": 74, "duration": 3, "velocity": 86}, {"time": 2473, "pitch": 72, "duration": 3, "velocity": 91}, {"time": 2476, "pitch": 74, "duration": 2, "velocity": 80}, {"time": 2478, "pitch": 72, "duration": 1, "velocity": 80}, {"time": 2479, "pitch": 67, "duration": 3, "velocity": 82}, {"time": 2482, "pitch": 72, "duration": 3, "velocity": 69}, {"time": 2485, "pitch": 69, "duration": 24, "velocity": 90}, {"time": 2509, "pitch": 62, "duration": 3, "velocity": 79}, {"time": 2512, "pitch": 62, "duration": 3, "velocity": 73}, {"time": 2515, "pitch": 62, "duration": 3, "velocity": 76}, {"time": 2518, "pitch": 65, "duration": 3, "velocity": 84}, {"time": 2521, "pitch": 69, "duration": 6, "velocity": 80}, {"time": 2527, "pitch": 72, "duration": 3, "velocity": 83}, {"time": 2530, "pitch": 74, "duration": 3, "velocity": 83}, {"time": 2533, "pitch": 67, "duration": 6, "velocity": 79}, {"time": 2539, "pitch": 67, "duration": 12, "velocity": 79}, {"time": 2551, "pitch": 69, "duration": 6, "velocity": 79}, {"time": 2557, "pitch": 72, "duration": 3, "velocity": 100}, {"time": 2560, "pitch": 72, "duration": 3, "velocity": 90}, {"time": 2563, "pitch": 72, "duration": 3, "velocity": 93}, {"time": 2566, "pitch": 74, "duration": 3, "velocity": 84}, {"time": 2569, "pitch": 79, "duration": 3, "velocity": 90}, {"time": 2572, "pitch": 81, "duration": 3, "velocity": 84}, {"time": 2575, "pitch": 77, "duration": 3, "velocity": 91}, {"time": 2578, "pitch": 79, "duration": 3, "velocity": 78}, {"time": 2581, "pitch": 74, "duration": 24, "velocity": 98}, {"time": 2629, "pitch": 69, "duration": 4, "velocity": 84}, {"time": 2632, "pitch": 74, "duration": 2, "velocity": 81}, {"time": 2635, "pitch": 74, "duration": 3, "velocity": 84}, {"time": 2638, "pitch": 72, "duration": 4, "velocity": 83}, {"time": 2641, "pitch": 74, "duration": 5, "velocity": 84}, {"time": 2647, "pitch": 77, "duration": 3, "velocity": 94}, {"time": 2650, "pitch": 74, "duration": 3, "velocity": 93}, {"time": 2653, "pitch": 77, "duration": 6, "velocity": 98}, {"time": 2659, "pitch": 77, "duration": 8, "velocity": 93}, {"time": 2671, "pitch": 74, "duration": 4, "velocity": 95}, {"time": 2674, "pitch": 77, "duration": 2, "velocity": 86}, {"time": 2677, "pitch": 77, "duration": 2, "velocity": 94}, {"time": 2680, "pitch": 77, "duration": 3, "velocity": 91}, {"time": 2683, "pitch": 74, "duration": 3, "velocity": 93}, {"time": 2686, "pitch": 77, "duration": 3, "velocity": 86}, {"time": 2689, "pitch": 74, "duration": 5, "velocity": 91}, {"time": 2695, "pitch": 72, "duration": 3, "velocity": 83}, {"time": 2698, "pitch": 74, "duration": 3, "velocity": 83}, {"time": 2701, "pitch": 69, "duration": 8, "velocity": 86}, {"time": 2725, "pitch": 62, "duration": 2, "velocity": 83}, {"time": 2728, "pitch": 62, "duration": 2, "velocity": 83}, {"time": 2731, "pitch": 62, "duration": 5, "velocity": 37}, {"time": 2734, "pitch": 65, "duration": 4, "velocity": 82}, {"time": 2737, "pitch": 69, "duration": 4, "velocity": 84}, {"time": 2743, "pitch": 72, "duration": 3, "velocity": 84}, {"time": 2746, "pitch": 74, "duration": 3, "velocity": 84}, {"time": 2749, "pitch": 67, "duration": 5, "velocity": 83}, {"time": 2755, "pitch": 67, "duration": 5, "velocity": 80}, {"time": 2767, "pitch": 69, "duration": 3, "velocity": 84}, {"time": 2773, "pitch": 72, "duration": 2, "velocity": 95}, {"time": 2776, "pitch": 72, "duration": 2, "velocity": 100}, {"time": 2779, "pitch": 72, "duration": 3, "velocity": 90}, {"time": 2782, "pitch": 72, "duration": 1, "velocity": 17}, {"time": 2782, "pitch": 74, "duration": 3, "velocity": 80}, {"time": 2785, "pitch": 79, "duration": 4, "velocity": 77}, {"time": 2788, "pitch": 81, "duration": 3, "velocity": 86}, {"time": 2791, "pitch": 77, "duration": 3, "velocity": 84}, {"time": 2794, "pitch": 79, "duration": 4, "velocity": 79}, {"time": 2797, "pitch": 74, "duration": 23, "velocity": 91}, {"time": 2845, "pitch": 86, "duration": 34, "velocity": 98}, {"time": 2881, "pitch": 84, "duration": 3, "velocity": 98}, {"time": 2884, "pitch": 86, "duration": 2, "velocity": 80}, {"time": 2886, "pitch": 84, "duration": 2, "velocity": 84}, {"time": 2887, "pitch": 81, "duration": 3, "velocity": 95}, {"time": 2890, "pitch": 79, "duration": 5, "velocity": 91}, {"time": 2893, "pitch": 81, "duration": 34, "velocity": 91}, {"time": 2941, "pitch": 86, "duration": 34, "velocity": 91}, {"time": 2977, "pitch": 84, "duration": 3, "velocity": 84}, {"time": 2980, "pitch": 86, "duration": 2, "velocity": 76}, {"time": 2982, "pitch": 84, "duration": 1, "velocity": 83}, {"time": 2983, "pitch": 81, "duration": 3, "velocity": 79}, {"time": 2986, "pitch": 79, "duration": 4, "velocity": 77}, {"time": 2989, "pitch": 77, "duration": 13, "velocity": 93}, {"time": 3037, "pitch": 72, "duration": 4, "velocity": 82}, {"time": 3040, "pitch": 74, "duration": 2, "velocity": 73}, {"time": 3042, "pitch": 72, "duration": 2, "velocity": 71}, {"time": 3043, "pitch": 69, "duration": 4, "velocity": 61}, {"time": 3046, "pitch": 72, "duration": 4, "velocity": 82}, {"time": 3049, "pitch": 74, "duration": 7, "velocity": 81}, {"time": 3055, "pitch": 81, "duration": 4, "velocity": 80}, {"time": 3061, "pitch": 79, "duration": 4, "velocity": 79}, {"time": 3064, "pitch": 81, "duration": 2, "velocity": 68}, {"time": 3066, "pitch": 79, "duration": 2, "velocity": 67}, {"time": 3067, "pitch": 77, "duration": 3, "velocity": 79}, {"time": 3070, "pitch": 79, "duration": 5, "velocity": 79}, {"time": 3073, "pitch": 77, "duration": 3, "velocity": 42}, {"time": 3079, "pitch": 69, "duration": 3, "velocity": 91}, {"time": 3082, "pitch": 72, "duration": 4, "velocity": 84}, {"time": 3085, "pitch": 69, "duration": 15, "velocity": 86}, {"time": 3133, "pitch": 86, "duration": 34, "velocity": 98}, {"time": 3169, "pitch": 84, "duration": 3, "velocity": 98}, {"time": 3172, "pitch": 86, "duration": 2, "velocity": 80}, {"time": 3174, "pitch": 84, "duration": 2, "velocity": 84}, {"time": 3175, "pitch": 81, "duration": 3, "velocity": 95}, {"time": 3178, "pitch": 79, "duration": 5, "velocity": 91}, {"time": 3181, "pitch": 77, "duration": 34, "velocity": 91}, {"time": 3229, "pitch": 69, "duration": 2, "velocity": 77}, {"time": 3232, "pitch": 69, "duration": 2, "velocity": 61}, {"time": 3235, "pitch": 69, "duration": 5, "velocity": 59}, {"time": 3238, "pitch": 72, "duration": 4, "velocity": 76}, {"time": 3241, "pitch": 74, "duration": 4, "velocity": 79}, {"time": 3247, "pitch": 81, "duration": 4, "velocity": 67}, {"time": 3253, "pitch": 79, "duration": 3, "velocity": 46}, {"time": 3256, "pitch": 81, "duration": 2, "velocity": 58}, {"time": 3258, "pitch": 79, "duration": 2, "velocity": 69}, {"time": 3259, "pitch": 77, "duration": 4, "velocity": 73}, {"time": 3262, "pitch": 79, "duration": 3, "velocity": 73}, {"time": 3265, "pitch": 77, "duration": 2, "velocity": 73}], "annotations": [{"time": 112, "annotation": {"number": 64, "value": 127}, "group": "control_change"}, {"time": 112, "annotation": {"number": 64, "value": 0}, "group": "control_change"}, {"time": 144, "annotation": {"number": 64, "value": 0}, "group": "control_change"}, {"time": 156, "annotation": {"number": 64, "value": 127}, "group": "control_change"}, {"time": 190, "annotation": {"number": 64, "value": 0}, "group": "control_change"}, {"time": 193, "annotation": {"number": 64, "value": 127}, "group": "control_change"}, {"time": 202, "annotation": {"number": 64, "value": 0}, "group": "control_change"}, {"time": 206, "annotation": {"number": 64, "value": 127}, "group": "control_change"}, {"time": 211, "annotation": {"number": 64, "value": 127}, "group": "control_change"}, {"time": 225, "annotation": {"number": 64, "value": 0}, "group": "control_change"}, {"time": 228, "annotation": {"number": 64, "value": 0}, "group": "control_change"}, {"time": 230, "annotation": {"number": 64, "value": 127}, "group": "control_change"}, {"time": 253, "annotation": {"number": 64, "value": 0}, "group": "control_change"}]}, {"program": 0, "is_drum": false, "name": "BRIDGE", "notes": [{"time": 12, "pitch": 79, "duration": 1, "velocity": 84}, {"time": 13, "pitch": 81, "duration": 45, "velocity": 86}, {"time": 60, "pitch": 84, "duration": 1, "velocity": 98}, {"time": 61, "pitch": 86, "duration": 42, "velocity": 83}, {"time": 184, "pitch": 79, "duration": 3, "velocity": 80}, {"time": 187, "pitch": 81, "duration": 5, "velocity": 76}, {"time": 190, "pitch": 79, "duration": 2, "velocity": 72}, {"time": 244, "pitch": 72, "duration": 2, "velocity": 80}, {"time": 247, "pitch": 74, "duration": 2, "velocity": 82}, {"time": 249, "pitch": 76, "duration": 1, "velocity": 83}, {"time": 250, "pitch": 77, "duration": 2, "velocity": 80}, {"time": 251, "pitch": 79, "duration": 3, "velocity": 73}, {"time": 253, "pitch": 81, "duration": 9, "velocity": 73}, {"time": 349, "pitch": 82, "duration": 7, "velocity": 79}, {"time": 355, "pitch": 79, "duration": 19, "velocity": 80}, {"time": 475, "pitch": 84, "duration": 3, "velocity": 79}, {"time": 478, "pitch": 81, "duration": 4, "velocity": 71}, {"time": 481, "pitch": 86, "duration": 3, "velocity": 81}, {"time": 484, "pitch": 81, "duration": 4, "velocity": 62}, {"time": 487, "pitch": 88, "duration": 3, "velocity": 83}, {"time": 490, "pitch": 81, "duration": 12, "velocity": 71}, {"time": 787, "pitch": 67, "duration": 4, "velocity": 93}, {"time": 790, "pitch": 69, "duration": 3, "velocity": 82}, {"time": 793, "pitch": 72, "duration": 4, "velocity": 91}, {"time": 796, "pitch": 69, "duration": 4, "velocity": 82}, {"time": 799, "pitch": 76, "duration": 4, "velocity": 86}, {"time": 802, "pitch": 69, "duration": 5, "velocity": 84}, {"time": 880, "pitch": 74, "duration": 3, "velocity": 83}, {"time": 883, "pitch": 77, "duration": 4, "velocity": 69}, {"time": 886, "pitch": 79, "duration": 4, "velocity": 75}, {"time": 889, "pitch": 81, "duration": 3, "velocity": 74}, {"time": 892, "pitch": 84, "duration": 4, "velocity": 83}, {"time": 895, "pitch": 89, "duration": 4, "velocity": 82}, {"time": 898, "pitch": 86, "duration": 7, "velocity": 84}, {"time": 1072, "pitch": 69, "duration": 4, "velocity": 86}, {"time": 1075, "pitch": 72, "duration": 3, "velocity": 90}, {"time": 1078, "pitch": 69, "duration": 4, "velocity": 76}, {"time": 1081, "pitch": 74, "duration": 3, "velocity": 80}, {"time": 1084, "pitch": 69, "duration": 4, "velocity": 72}, {"time": 1087, "pitch": 89, "duration": 6, "velocity": 83}, {"time": 1093, "pitch": 86, "duration": 6, "velocity": 83}, {"time": 1384, "pitch": 81, "duration": 4, "velocity": 90}, {"time": 1387, "pitch": 79, "duration": 3, "velocity": 76}, {"time": 1390, "pitch": 76, "duration": 6, "velocity": 77}, {"time": 1393, "pitch": 74, "duration": 6, "velocity": 83}, {"time": 1396, "pitch": 76, "duration": 6, "velocity": 83}, {"time": 1399, "pitch": 72, "duration": 6, "velocity": 83}, {"time": 1402, "pitch": 69, "duration": 6, "velocity": 83}, {"time": 1579, "pitch": 84, "duration": 3, "velocity": 79}, {"time": 1582, "pitch": 81, "duration": 4, "velocity": 71}, {"time": 1585, "pitch": 86, "duration": 3, "velocity": 81}, {"time": 1588, "pitch": 81, "duration": 4, "velocity": 62}, {"time": 1591, "pitch": 88, "duration": 3, "velocity": 83}, {"time": 1594, "pitch": 81, "duration": 12, "velocity": 71}, {"time": 1891, "pitch": 67, "duration": 4, "velocity": 93}, {"time": 1894, "pitch": 69, "duration": 3, "velocity": 82}, {"time": 1897, "pitch": 72, "duration": 4, "velocity": 91}, {"time": 1900, "pitch": 69, "duration": 4, "velocity": 82}, {"time": 1903, "pitch": 76, "duration": 4, "velocity": 86}, {"time": 1906, "pitch": 69, "duration": 5, "velocity": 84}, {"time": 1984, "pitch": 74, "duration": 3, "velocity": 83}, {"time": 1987, "pitch": 77, "duration": 4, "velocity": 69}, {"time": 1990, "pitch": 79, "duration": 4, "velocity": 75}, {"time": 1993, "pitch": 81, "duration": 3, "velocity": 74}, {"time": 1996, "pitch": 84, "duration": 4, "velocity": 83}, {"time": 1999, "pitch": 89, "duration": 4, "velocity": 82}, {"time": 2002, "pitch": 86, "duration": 7, "velocity": 84}, {"time": 2176, "pitch": 69, "duration": 4, "velocity": 86}, {"time": 2179, "pitch": 72, "duration": 3, "velocity": 90}, {"time": 2182, "pitch": 69, "duration": 4, "velocity": 76}, {"time": 2185, "pitch": 74, "duration": 3, "velocity": 80}, {"time": 2188, "pitch": 69, "duration": 4, "velocity": 72}, {"time": 2191, "pitch": 89, "duration": 6, "velocity": 83}, {"time": 2197, "pitch": 86, "duration": 6, "velocity": 83}, {"time": 2488, "pitch": 81, "duration": 4, "velocity": 90}, {"time": 2491, "pitch": 79, "duration": 3, "velocity": 76}, {"time": 2494, "pitch": 76, "duration": 6, "velocity": 77}, {"time": 2497, "pitch": 74, "duration": 6, "velocity": 83}, {"time": 2500, "pitch": 76, "duration": 6, "velocity": 83}, {"time": 2503, "pitch": 72, "duration": 6, "velocity": 83}, {"time": 2506, "pitch": 69, "duration": 6, "velocity": 83}]}, {"program": 0, "is_drum": false, "name": "PIANO", "notes": [{"time": 13, "pitch": 50, "duration": 42, "velocity": 69}, {"time": 13, "pitch": 69, "duration": 8, "velocity": 76}, {"time": 19, "pitch": 57, "duration": 7, "velocity": 62}, {"time": 25, "pitch": 62, "duration": 7, "velocity": 63}, {"time": 31, "pitch": 57, "duration": 8, "velocity": 59}, {"time": 37, "pitch": 62, "duration": 7, "velocity": 68}, {"time": 37, "pitch": 69, "duration": 7, "velocity": 71}, {"time": 43, "pitch": 57, "duration": 7, "velocity": 62}, {"time": 49, "pitch": 62, "duration": 6, "velocity": 71}, {"time": 49, "pitch": 72, "duration": 17, "velocity": 90}, {"time": 55, "pitch": 57, "duration": 7, "velocity": 75}, {"time": 61, "pitch": 50, "duration": 42, "velocity": 83}, {"time": 67, "pitch": 57, "duration": 8, "velocity": 71}, {"time": 73, "pitch": 62, "duration": 7, "velocity": 69}, {"time": 73, "pitch": 65, "duration": 8, "velocity": 75}, {"time": 79, "pitch": 57, "duration": 7, "velocity": 62}, {"time": 85, "pitch": 62, "duration": 7, "velocity": 58}, {"time": 85, "pitch": 69, "duration": 7, "velocity": 83}, {"time": 91, "pitch": 57, "duration": 7, "velocity": 71}, {"time": 97, "pitch": 62, "duration": 7, "velocity": 72}, {"time": 97, "pitch": 74, "duration": 7, "velocity": 91}, {"time": 103, "pitch": 57, "duration": 7, "velocity": 68}, {"time": 109, "pitch": 50, "duration": 44, "velocity": 82}, {"time": 112, "pitch": 57, "duration": 41, "velocity": 72}, {"time": 115, "pitch": 62, "duration": 7, "velocity": 68}, {"time": 118, "pitch": 64, "duration": 4, "velocity": 37}, {"time": 121, "pitch": 65, "duration": 11, "velocity": 82}, {"time": 127, "pitch": 62, "duration": 9, "velocity": 45}, {"time": 133, "pitch": 67, "duration": 11, "velocity": 71}, {"time": 139, "pitch": 62, "duration": 9, "velocity": 35}, {"time": 145, "pitch": 65, "duration": 15, "velocity": 72}, {"time": 145, "pitch": 69, "duration": 16, "velocity": 77}, {"time": 151, "pitch": 62, "duration": 2, "velocity": 72}, {"time": 157, "pitch": 43, "duration": 43, "velocity": 82}, {"time": 160, "pitch": 50, "duration": 40, "velocity": 77}, {"time": 163, "pitch": 55, "duration": 7, "velocity": 72}, {"time": 166, "pitch": 58, "duration": 4, "velocity": 69}, {"time": 169, "pitch": 62, "duration": 6, "velocity": 83}, {"time": 175, "pitch": 55, "duration": 8, "velocity": 52}, {"time": 181, "pitch": 58, "duration": 6, "velocity": 70}, {"time": 181, "pitch": 67, "duration": 7, "velocity": 69}, {"time": 187, "pitch": 55, "duration": 10, "velocity": 51}, {"time": 193, "pitch": 58, "duration": 6, "velocity": 79}, {"time": 193, "pitch": 62, "duration": 15, "velocity": 78}, {"time": 199, "pitch": 55, "duration": 6, "velocity": 60}, {"time": 205, "pitch": 48, "duration": 19, "velocity": 90}, {"time": 208, "pitch": 55, "duration": 16, "velocity": 76}, {"time": 211, "pitch": 60, "duration": 7, "velocity": 77}, {"time": 214, "pitch": 65, "duration": 4, "velocity": 76}, {"time": 217, "pitch": 67, "duration": 7, "velocity": 80}, {"time": 223, "pitch": 60, "duration": 2, "velocity": 78}, {"time": 229, "pitch": 41, "duration": 20, "velocity": 69}, {"time": 229, "pitch": 60, "duration": 5, "velocity": 76}, {"time": 229, "pitch": 69, "duration": 4, "velocity": 78}, {"time": 232, "pitch": 48, "duration": 22, "velocity": 75}, {"time": 235, "pitch": 53, "duration": 8, "velocity": 79}, {"time": 238, "pitch": 55, "duration": 4, "velocity": 67}, {"time": 241, "pitch": 57, "duration": 7, "velocity": 82}, {"time": 247, "pitch": 53, "duration": 7, "velocity": 62}, {"time": 253, "pitch": 41, "duration": 18, "velocity": 76}, {"time": 259, "pitch": 53, "duration": 10, "velocity": 57}, {"time": 265, "pitch": 57, "duration": 7, "velocity": 68}, {"time": 265, "pitch": 65, "duration": 6, "velocity": 83}, {"time": 271, "pitch": 53, "duration": 6, "velocity": 63}, {"time": 271, "pitch": 64, "duration": 8, "velocity": 75}, {"time": 277, "pitch": 50, "duration": 45, "velocity": 80}, {"time": 277, "pitch": 62, "duration": 3, "velocity": 81}, {"time": 280, "pitch": 57, "duration": 42, "velocity": 62}, {"time": 283, "pitch": 62, "duration": 6, "velocity": 72}, {"time": 286, "pitch": 64, "duration": 4, "velocity": 71}, {"time": 289, "pitch": 65, "duration": 12, "velocity": 84}, {"time": 295, "pitch": 62, "duration": 7, "velocity": 61}, {"time": 301, "pitch": 64, "duration": 10, "velocity": 61}, {"time": 301, "pitch": 67, "duration": 12, "velocity": 78}, {"time": 307, "pitch": 62, "duration": 8, "velocity": 59}, {"time": 313, "pitch": 65, "duration": 13, "velocity": 79}, {"time": 313, "pitch": 69, "duration": 14, "velocity": 79}, {"time": 319, "pitch": 62, "duration": 2, "velocity": 68}, {"time": 325, "pitch": 43, "duration": 42, "velocity": 86}, {"time": 328, "pitch": 50, "duration": 40, "velocity": 78}, {"time": 331, "pitch": 55, "duration": 8, "velocity": 72}, {"time": 334, "pitch": 58, "duration": 10, "velocity": 72}, {"time": 337, "pitch": 65, "duration": 7, "velocity": 82}, {"time": 343, "pitch": 55, "duration": 8, "velocity": 59}, {"time": 349, "pitch": 58, "duration": 9, "velocity": 62}, {"time": 349, "pitch": 62, "duration": 9, "velocity": 79}, {"time": 358, "pitch": 55, "duration": 5, "velocity": 39}, {"time": 361, "pitch": 58, "duration": 7, "velocity": 79}, {"time": 361, "pitch": 65, "duration": 11, "velocity": 62}, {"time": 367, "pitch": 55, "duration": 7, "velocity": 62}, {"time": 373, "pitch": 45, "duration": 5, "velocity": 79}, {"time": 373, "pitch": 61, "duration": 6, "velocity": 80}, {"time": 373, "pitch": 69, "duration": 13, "velocity": 82}, {"time": 376, "pitch": 52, "duration": 3, "velocity": 78}, {"time": 379, "pitch": 57, "duration": 4, "velocity": 55}, {"time": 382, "pitch": 59, "duration": 9, "velocity": 59}, {"time": 385, "pitch": 61, "duration": 6, "velocity": 81}, {"time": 397, "pitch": 50, "duration": 28, "velocity": 77}, {"time": 397, "pitch": 65, "duration": 7, "velocity": 75}, {"time": 397, "pitch": 69, "duration": 7, "velocity": 74}, {"time": 403, "pitch": 57, "duration": 8, "velocity": 61}, {"time": 409, "pitch": 62, "duration": 6, "velocity": 40}, {"time": 409, "pitch": 64, "duration": 9, "velocity": 68}, {"time": 409, "pitch": 67, "duration": 11, "velocity": 73}, {"time": 415, "pitch": 57, "duration": 13, "velocity": 55}, {"time": 421, "pitch": 62, "duration": 3, "velocity": 57}, {"time": 421, "pitch": 65, "duration": 12, "velocity": 72}, {"time": 421, "pitch": 69, "duration": 12, "velocity": 68}, {"time": 427, "pitch": 50, "duration": 37, "velocity": 69}, {"time": 430, "pitch": 57, "duration": 31, "velocity": 69}, {"time": 433, "pitch": 62, "duration": 13, "velocity": 69}, {"time": 436, "pitch": 64, "duration": 4, "velocity": 71}, {"time": 439, "pitch": 65, "duration": 4, "velocity": 78}, {"time": 442, "pitch": 69, "duration": 3, "velocity": 60}, {"time": 445, "pitch": 74, "duration": 2, "velocity": 73}, {"time": 451, "pitch": 65, "duration": 2, "velocity": 60}, {"time": 451, "pitch": 72, "duration": 2, "velocity": 82}, {"time": 457, "pitch": 65, "duration": 5, "velocity": 76}, {"time": 457, "pitch": 69, "duration": 6, "velocity": 73}, {"time": 469, "pitch": 45, "duration": 42, "velocity": 82}, {"time": 469, "pitch": 60, "duration": 6, "velocity": 44}, {"time": 469, "pitch": 67, "duration": 5, "velocity": 62}, {"time": 472, "pitch": 52, "duration": 40, "velocity": 73}, {"time": 475, "pitch": 57, "duration": 7, "velocity": 76}, {"time": 478, "pitch": 60, "duration": 6, "velocity": 54}, {"time": 481, "pitch": 64, "duration": 4, "velocity": 79}, {"time": 484, "pitch": 57, "duration": 6, "velocity": 57}, {"time": 487, "pitch": 60, "duration": 3, "velocity": 61}, {"time": 490, "pitch": 67, "duration": 4, "velocity": 75}, {"time": 493, "pitch": 57, "duration": 5, "velocity": 61}, {"time": 493, "pitch": 72, "duration": 8, "velocity": 86}, {"time": 502, "pitch": 57, "duration": 6, "velocity": 44}, {"time": 505, "pitch": 60, "duration": 4, "velocity": 77}, {"time": 505, "pitch": 67, "duration": 6, "velocity": 81}, {"time": 511, "pitch": 57, "duration": 2, "velocity": 62}, {"time": 511, "pitch": 64, "duration": 2, "velocity": 79}, {"time": 517, "pitch": 46, "duration": 41, "velocity": 86}, {"time": 520, "pitch": 53, "duration": 38, "velocity": 75}, {"time": 523, "pitch": 58, "duration": 6, "velocity": 72}, {"time": 526, "pitch": 60, "duration": 4, "velocity": 69}, {"time": 529, "pitch": 62, "duration": 4, "velocity": 83}, {"time": 532, "pitch": 58, "duration": 7, "velocity": 62}, {"time": 535, "pitch": 60, "duration": 3, "velocity": 61}, {"time": 538, "pitch": 65, "duration": 3, "velocity": 72}, {"time": 541, "pitch": 58, "duration": 16, "velocity": 60}, {"time": 541, "pitch": 60, "duration": 5, "velocity": 61}, {"time": 541, "pitch": 69, "duration": 6, "velocity": 76}, {"time": 553, "pitch": 69, "duration": 5, "velocity": 59}, {"time": 553, "pitch": 77, "duration": 4, "velocity": 79}, {"time": 565, "pitch": 53, "duration": 40, "velocity": 77}, {"time": 565, "pitch": 69, "duration": 5, "velocity": 71}, {"time": 568, "pitch": 60, "duration": 37, "velocity": 73}, {"time": 571, "pitch": 65, "duration": 24, "velocity": 70}, {"time": 574, "pitch": 67, "duration": 5, "velocity": 61}, {"time": 577, "pitch": 69, "duration": 4, "velocity": 72}, {"time": 580, "pitch": 72, "duration": 3, "velocity": 79}, {"time": 583, "pitch": 77, "duration": 2, "velocity": 72}, {"time": 586, "pitch": 79, "duration": 4, "velocity": 59}, {"time": 589, "pitch": 81, "duration": 6, "velocity": 75}, {"time": 601, "pitch": 69, "duration": 4, "velocity": 59}, {"time": 601, "pitch": 77, "duration": 4, "velocity": 82}, {"time": 607, "pitch": 76, "duration": 5, "velocity": 77}, {"time": 613, "pitch": 53, "duration": 20, "velocity": 75}, {"time": 613, "pitch": 77, "duration": 9, "velocity": 81}, {"time": 616, "pitch": 60, "duration": 22, "velocity": 55}, {"time": 619, "pitch": 65, "duration": 7, "velocity": 60}, {"time": 622, "pitch": 69, "duration": 4, "velocity": 73}, {"time": 625, "pitch": 72, "duration": 9, "velocity": 80}, {"time": 631, "pitch": 65, "duration": 4, "velocity": 28}, {"time": 634, "pitch": 69, "duration": 9, "velocity": 50}, {"time": 637, "pitch": 53, "duration": 19, "velocity": 71}, {"time": 637, "pitch": 77, "duration": 10, "velocity": 79}, {"time": 640, "pitch": 60, "duration": 16, "velocity": 59}, {"time": 643, "pitch": 65, "duration": 12, "velocity": 58}, {"time": 646, "pitch": 69, "duration": 11, "velocity": 60}, {"time": 649, "pitch": 72, "duration": 8, "velocity": 80}, {"time": 661, "pitch": 50, "duration": 20, "velocity": 72}, {"time": 661, "pitch": 69, "duration": 6, "velocity": 73}, {"time": 661, "pitch": 77, "duration": 5, "velocity": 82}, {"time": 664, "pitch": 57, "duration": 9, "velocity": 57}, {"time": 667, "pitch": 62, "duration": 7, "velocity": 69}, {"time": 670, "pitch": 64, "duration": 4, "velocity": 73}, {"time": 673, "pitch": 65, "duration": 8, "velocity": 81}, {"time": 679, "pitch": 57, "duration": 6, "velocity": 68}, {"time": 682, "pitch": 69, "duration": 3, "velocity": 73}, {"time": 685, "pitch": 50, "duration": 19, "velocity": 63}, {"time": 685, "pitch": 67, "duration": 3, "velocity": 78}, {"time": 688, "pitch": 57, "duration": 8, "velocity": 58}, {"time": 688, "pitch": 65, "duration": 4, "velocity": 77}, {"time": 691, "pitch": 67, "duration": 3, "velocity": 76}, {"time": 694, "pitch": 69, "duration": 3, "velocity": 75}, {"time": 697, "pitch": 57, "duration": 5, "velocity": 58}, {"time": 697, "pitch": 72, "duration": 4, "velocity": 81}, {"time": 700, "pitch": 69, "duration": 3, "velocity": 79}, {"time": 703, "pitch": 67, "duration": 3, "velocity": 75}, {"time": 706, "pitch": 65, "duration": 3, "velocity": 72}, {"time": 709, "pitch": 50, "duration": 21, "velocity": 69}, {"time": 709, "pitch": 65, "duration": 7, "velocity": 72}, {"time": 709, "pitch": 69, "duration": 7, "velocity": 72}, {"time": 712, "pitch": 57, "duration": 19, "velocity": 62}, {"time": 715, "pitch": 62, "duration": 7, "velocity": 59}, {"time": 718, "pitch": 64, "duration": 5, "velocity": 56}, {"time": 721, "pitch": 65, "duration": 6, "velocity": 73}, {"time": 724, "pitch": 62, "duration": 5, "velocity": 43}, {"time": 727, "pitch": 67, "duration": 3, "velocity": 72}, {"time": 730, "pitch": 69, "duration": 11, "velocity": 73}, {"time": 733, "pitch": 50, "duration": 19, "velocity": 61}, {"time": 736, "pitch": 57, "duration": 14, "velocity": 61}, {"time": 739, "pitch": 62, "duration": 9, "velocity": 62}, {"time": 742, "pitch": 64, "duration": 4, "velocity": 61}, {"time": 742, "pitch": 67, "duration": 3, "velocity": 63}, {"time": 745, "pitch": 65, "duration": 4, "velocity": 75}, {"time": 745, "pitch": 69, "duration": 4, "velocity": 68}, {"time": 748, "pitch": 67, "duration": 3, "velocity": 73}, {"time": 751, "pitch": 69, "duration": 3, "velocity": 76}, {"time": 757, "pitch": 41, "duration": 3, "velocity": 81}, {"time": 757, "pitch": 60, "duration": 10, "velocity": 79}, {"time": 757, "pitch": 65, "duration": 10, "velocity": 80}, {"time": 757, "pitch": 69, "duration": 11, "velocity": 78}, {"time": 760, "pitch": 53, "duration": 5, "velocity": 58}, {"time": 763, "pitch": 55, "duration": 7, "velocity": 75}, {"time": 766, "pitch": 57, "duration": 4, "velocity": 73}, {"time": 769, "pitch": 60, "duration": 4, "velocity": 68}, {"time": 772, "pitch": 65, "duration": 2, "velocity": 78}, {"time": 775, "pitch": 67, "duration": 3, "velocity": 73}, {"time": 778, "pitch": 69, "duration": 3, "velocity": 69}, {"time": 781, "pitch": 45, "duration": 19, "velocity": 71}, {"time": 781, "pitch": 60, "duration": 7, "velocity": 79}, {"time": 781, "pitch": 67, "duration": 8, "velocity": 80}, {"time": 784, "pitch": 52, "duration": 17, "velocity": 71}, {"time": 787, "pitch": 57, "duration": 4, "velocity": 57}, {"time": 790, "pitch": 60, "duration": 5, "velocity": 69}, {"time": 790, "pitch": 64, "duration": 7, "velocity": 73}, {"time": 793, "pitch": 57, "duration": 3, "velocity": 54}, {"time": 799, "pitch": 57, "duration": 6, "velocity": 59}, {"time": 802, "pitch": 69, "duration": 3, "velocity": 75}, {"time": 805, "pitch": 50, "duration": 22, "velocity": 73}, {"time": 805, "pitch": 65, "duration": 7, "velocity": 83}, {"time": 805, "pitch": 69, "duration": 1, "velocity": 55}, {"time": 808, "pitch": 57, "duration": 9, "velocity": 69}, {"time": 811, "pitch": 62, "duration": 6, "velocity": 28}, {"time": 814, "pitch": 64, "duration": 3, "velocity": 71}, {"time": 814, "pitch": 67, "duration": 3, "velocity": 75}, {"time": 817, "pitch": 65, "duration": 5, "velocity": 83}, {"time": 817, "pitch": 69, "duration": 5, "velocity": 79}, {"time": 820, "pitch": 57, "duration": 6, "velocity": 71}, {"time": 823, "pitch": 64, "duration": 3, "velocity": 78}, {"time": 823, "pitch": 67, "duration": 2, "velocity": 78}, {"time": 826, "pitch": 69, "duration": 7, "velocity": 71}, {"time": 829, "pitch": 48, "duration": 20, "velocity": 77}, {"time": 829, "pitch": 60, "duration": 7, "velocity": 63}, {"time": 829, "pitch": 64, "duration": 9, "velocity": 75}, {"time": 829, "pitch": 67, "duration": 10, "velocity": 81}, {"time": 829, "pitch": 72, "duration": 10, "velocity": 77}, {"time": 838, "pitch": 60, "duration": 4, "velocity": 71}, {"time": 841, "pitch": 64, "duration": 5, "velocity": 81}, {"time": 841, "pitch": 67, "duration": 5, "velocity": 83}, {"time": 841, "pitch": 72, "duration": 8, "velocity": 81}, {"time": 844, "pitch": 60, "duration": 4, "velocity": 72}, {"time": 847, "pitch": 64, "duration": 4, "velocity": 76}, {"time": 847, "pitch": 67, "duration": 2, "velocity": 59}, {"time": 850, "pitch": 67, "duration": 3, "velocity": 78}, {"time": 853, "pitch": 41, "duration": 17, "velocity": 80}, {"time": 853, "pitch": 60, "duration": 10, "velocity": 70}, {"time": 853, "pitch": 65, "duration": 10, "velocity": 75}, {"time": 853, "pitch": 69, "duration": 9, "velocity": 77}, {"time": 862, "pitch": 53, "duration": 5, "velocity": 68}, {"time": 865, "pitch": 60, "duration": 4, "velocity": 80}, {"time": 865, "pitch": 65, "duration": 5, "velocity": 81}, {"time": 865, "pitch": 69, "duration": 5, "velocity": 75}, {"time": 868, "pitch": 53, "duration": 8, "velocity": 73}, {"time": 871, "pitch": 60, "duration": 4, "velocity": 69}, {"time": 874, "pitch": 67, "duration": 2, "velocity": 72}, {"time": 877, "pitch": 50, "duration": 21, "velocity": 78}, {"time": 877, "pitch": 69, "duration": 7, "velocity": 75}, {"time": 880, "pitch": 57, "duration": 21, "velocity": 60}, {"time": 883, "pitch": 62, "duration": 7, "velocity": 69}, {"time": 886, "pitch": 64, "duration": 4, "velocity": 75}, {"time": 889, "pitch": 65, "duration": 3, "velocity": 80}, {"time": 895, "pitch": 69, "duration": 3, "velocity": 71}, {"time": 898, "pitch": 74, "duration": 3, "velocity": 79}, {"time": 901, "pitch": 50, "duration": 19, "velocity": 73}, {"time": 901, "pitch": 69, "duration": 5, "velocity": 50}, {"time": 901, "pitch": 77, "duration": 8, "velocity": 84}, {"time": 904, "pitch": 57, "duration": 20, "velocity": 59}, {"time": 907, "pitch": 62, "duration": 6, "velocity": 71}, {"time": 910, "pitch": 69, "duration": 4, "velocity": 73}, {"time": 916, "pitch": 62, "duration": 5, "velocity": 57}, {"time": 922, "pitch": 77, "duration": 13, "velocity": 79}, {"time": 925, "pitch": 46, "duration": 21, "velocity": 83}, {"time": 925, "pitch": 62, "duration": 7, "velocity": 78}, {"time": 925, "pitch": 69, "duration": 8, "velocity": 81}, {"time": 928, "pitch": 53, "duration": 17, "velocity": 63}, {"time": 931, "pitch": 58, "duration": 4, "velocity": 60}, {"time": 934, "pitch": 62, "duration": 5, "velocity": 79}, {"time": 934, "pitch": 67, "duration": 5, "velocity": 82}, {"time": 937, "pitch": 58, "duration": 5, "velocity": 53}, {"time": 940, "pitch": 65, "duration": 6, "velocity": 83}, {"time": 940, "pitch": 69, "duration": 6, "velocity": 80}, {"time": 943, "pitch": 58, "duration": 2, "velocity": 71}, {"time": 949, "pitch": 43, "duration": 20, "velocity": 72}, {"time": 949, "pitch": 64, "duration": 4, "velocity": 76}, {"time": 949, "pitch": 67, "duration": 5, "velocity": 84}, {"time": 949, "pitch": 71, "duration": 4, "velocity": 83}, {"time": 952, "pitch": 55, "duration": 8, "velocity": 75}, {"time": 955, "pitch": 62, "duration": 10, "velocity": 80}, {"time": 958, "pitch": 67, "duration": 9, "velocity": 90}, {"time": 964, "pitch": 55, "duration": 6, "velocity": 58}, {"time": 967, "pitch": 62, "duration": 3, "velocity": 84}, {"time": 973, "pitch": 48, "duration": 19, "velocity": 79}, {"time": 973, "pitch": 64, "duration": 7, "velocity": 81}, {"time": 973, "pitch": 67, "duration": 6, "velocity": 80}, {"time": 973, "pitch": 72, "duration": 8, "velocity": 83}, {"time": 976, "pitch": 55, "duration": 18, "velocity": 72}, {"time": 979, "pitch": 60, "duration": 13, "velocity": 76}, {"time": 982, "pitch": 62, "duration": 4, "velocity": 82}, {"time": 985, "pitch": 64, "duration": 4, "velocity": 84}, {"time": 988, "pitch": 67, "duration": 5, "velocity": 71}, {"time": 991, "pitch": 69, "duration": 3, "velocity": 76}, {"time": 994, "pitch": 72, "duration": 3, "velocity": 84}, {"time": 997, "pitch": 50, "duration": 22, "velocity": 74}, {"time": 997, "pitch": 65, "duration": 9, "velocity": 80}, {"time": 997, "pitch": 69, "duration": 8, "velocity": 79}, {"time": 1000, "pitch": 57, "duration": 14, "velocity": 73}, {"time": 1003, "pitch": 62, "duration": 6, "velocity": 68}, {"time": 1006, "pitch": 67, "duration": 3, "velocity": 76}, {"time": 1009, "pitch": 65, "duration": 4, "velocity": 81}, {"time": 1009, "pitch": 69, "duration": 5, "velocity": 79}, {"time": 1012, "pitch": 62, "duration": 4, "velocity": 58}, {"time": 1015, "pitch": 65, "duration": 5, "velocity": 74}, {"time": 1015, "pitch": 69, "duration": 5, "velocity": 69}, {"time": 1018, "pitch": 57, "duration": 3, "velocity": 63}, {"time": 1018, "pitch": 72, "duration": 10, "velocity": 84}, {"time": 1021, "pitch": 48, "duration": 17, "velocity": 80}, {"time": 1021, "pitch": 64, "duration": 7, "velocity": 73}, {"time": 1021, "pitch": 67, "duration": 7, "velocity": 83}, {"time": 1024, "pitch": 55, "duration": 14, "velocity": 72}, {"time": 1027, "pitch": 60, "duration": 7, "velocity": 75}, {"time": 1030, "pitch": 65, "duration": 3, "velocity": 79}, {"time": 1033, "pitch": 67, "duration": 5, "velocity": 75}, {"time": 1036, "pitch": 60, "duration": 2, "velocity": 57}, {"time": 1039, "pitch": 69, "duration": 3, "velocity": 79}, {"time": 1042, "pitch": 72, "duration": 5, "velocity": 77}, {"time": 1045, "pitch": 46, "duration": 8, "velocity": 83}, {"time": 1045, "pitch": 62, "duration": 9, "velocity": 80}, {"time": 1045, "pitch": 65, "duration": 8, "velocity": 83}, {"time": 1045, "pitch": 69, "duration": 8, "velocity": 81}, {"time": 1048, "pitch": 53, "duration": 5, "velocity": 78}, {"time": 1051, "pitch": 58, "duration": 2, "velocity": 84}, {"time": 1054, "pitch": 69, "duration": 2, "velocity": 63}, {"time": 1057, "pitch": 45, "duration": 7, "velocity": 84}, {"time": 1057, "pitch": 60, "duration": 5, "velocity": 80}, {"time": 1057, "pitch": 67, "duration": 5, "velocity": 76}, {"time": 1060, "pitch": 57, "duration": 9, "velocity": 62}, {"time": 1063, "pitch": 60, "duration": 4, "velocity": 78}, {"time": 1066, "pitch": 67, "duration": 3, "velocity": 77}, {"time": 1069, "pitch": 50, "duration": 19, "velocity": 81}, {"time": 1069, "pitch": 65, "duration": 7, "velocity": 83}, {"time": 1072, "pitch": 57, "duration": 21, "velocity": 76}, {"time": 1075, "pitch": 62, "duration": 16, "velocity": 82}, {"time": 1078, "pitch": 64, "duration": 4, "velocity": 82}, {"time": 1081, "pitch": 65, "duration": 2, "velocity": 80}, {"time": 1084, "pitch": 69, "duration": 3, "velocity": 83}, {"time": 1087, "pitch": 74, "duration": 3, "velocity": 80}, {"time": 1090, "pitch": 76, "duration": 3, "velocity": 78}, {"time": 1093, "pitch": 50, "duration": 3, "velocity": 76}, {"time": 1093, "pitch": 69, "duration": 3, "velocity": 77}, {"time": 1093, "pitch": 77, "duration": 4, "velocity": 84}, {"time": 1096, "pitch": 50, "duration": 16, "velocity": 80}, {"time": 1096, "pitch": 64, "duration": 5, "velocity": 77}, {"time": 1099, "pitch": 57, "duration": 14, "velocity": 71}, {"time": 1099, "pitch": 65, "duration": 4, "velocity": 79}, {"time": 1102, "pitch": 67, "duration": 3, "velocity": 79}, {"time": 1105, "pitch": 62, "duration": 3, "velocity": 62}, {"time": 1105, "pitch": 69, "duration": 4, "velocity": 78}, {"time": 1108, "pitch": 72, "duration": 3, "velocity": 90}, {"time": 1111, "pitch": 67, "duration": 3, "velocity": 82}, {"time": 1114, "pitch": 69, "duration": 2, "velocity": 77}, {"time": 1117, "pitch": 50, "duration": 20, "velocity": 83}, {"time": 1117, "pitch": 62, "duration": 8, "velocity": 76}, {"time": 1117, "pitch": 65, "duration": 11, "velocity": 83}, {"time": 1117, "pitch": 69, "duration": 10, "velocity": 82}, {"time": 1123, "pitch": 57, "duration": 7, "velocity": 39}, {"time": 1129, "pitch": 62, "duration": 4, "velocity": 81}, {"time": 1129, "pitch": 65, "duration": 5, "velocity": 91}, {"time": 1129, "pitch": 69, "duration": 5, "velocity": 84}, {"time": 1132, "pitch": 57, "duration": 4, "velocity": 69}, {"time": 1135, "pitch": 62, "duration": 2, "velocity": 78}, {"time": 1135, "pitch": 67, "duration": 3, "velocity": 78}, {"time": 1138, "pitch": 69, "duration": 2, "velocity": 78}, {"time": 1141, "pitch": 45, "duration": 20, "velocity": 83}, {"time": 1141, "pitch": 60, "duration": 6, "velocity": 78}, {"time": 1141, "pitch": 64, "duration": 7, "velocity": 80}, {"time": 1141, "pitch": 67, "duration": 7, "velocity": 78}, {"time": 1147, "pitch": 57, "duration": 7, "velocity": 39}, {"time": 1150, "pitch": 60, "duration": 2, "velocity": 61}, {"time": 1153, "pitch": 60, "duration": 4, "velocity": 84}, {"time": 1153, "pitch": 64, "duration": 6, "velocity": 84}, {"time": 1153, "pitch": 67, "duration": 5, "velocity": 82}, {"time": 1156, "pitch": 57, "duration": 7, "velocity": 62}, {"time": 1159, "pitch": 60, "duration": 4, "velocity": 79}, {"time": 1159, "pitch": 65, "duration": 2, "velocity": 80}, {"time": 1162, "pitch": 67, "duration": 2, "velocity": 79}, {"time": 1165, "pitch": 46, "duration": 20, "velocity": 90}, {"time": 1165, "pitch": 62, "duration": 7, "velocity": 76}, {"time": 1165, "pitch": 65, "duration": 7, "velocity": 84}, {"time": 1165, "pitch": 69, "duration": 7, "velocity": 83}, {"time": 1168, "pitch": 53, "duration": 16, "velocity": 73}, {"time": 1171, "pitch": 58, "duration": 7, "velocity": 79}, {"time": 1174, "pitch": 62, "duration": 2, "velocity": 62}, {"time": 1177, "pitch": 62, "duration": 4, "velocity": 81}, {"time": 1177, "pitch": 65, "duration": 5, "velocity": 95}, {"time": 1177, "pitch": 69, "duration": 5, "velocity": 84}, {"time": 1180, "pitch": 58, "duration": 3, "velocity": 84}, {"time": 1183, "pitch": 62, "duration": 2, "velocity": 81}, {"time": 1183, "pitch": 65, "duration": 2, "velocity": 71}, {"time": 1183, "pitch": 69, "duration": 2, "velocity": 73}, {"time": 1186, "pitch": 69, "duration": 2, "velocity": 83}, {"time": 1189, "pitch": 48, "duration": 21, "velocity": 86}, {"time": 1189, "pitch": 60, "duration": 4, "velocity": 77}, {"time": 1189, "pitch": 64, "duration": 5, "velocity": 84}, {"time": 1189, "pitch": 67, "duration": 6, "velocity": 79}, {"time": 1189, "pitch": 72, "duration": 7, "velocity": 79}, {"time": 1192, "pitch": 55, "duration": 18, "velocity": 69}, {"time": 1195, "pitch": 60, "duration": 9, "velocity": 75}, {"time": 1198, "pitch": 62, "duration": 2, "velocity": 58}, {"time": 1198, "pitch": 67, "duration": 2, "velocity": 82}, {"time": 1204, "pitch": 65, "duration": 5, "velocity": 84}, {"time": 1204, "pitch": 69, "duration": 5, "velocity": 83}, {"time": 1207, "pitch": 60, "duration": 2, "velocity": 71}, {"time": 1210, "pitch": 65, "duration": 1, "velocity": 60}, {"time": 1210, "pitch": 72, "duration": 2, "velocity": 84}, {"time": 1213, "pitch": 50, "duration": 20, "velocity": 83}, {"time": 1213, "pitch": 62, "duration": 6, "velocity": 73}, {"time": 1213, "pitch": 65, "duration": 7, "velocity": 83}, {"time": 1213, "pitch": 69, "duration": 6, "velocity": 80}, {"time": 1219, "pitch": 57, "duration": 7, "velocity": 67}, {"time": 1222, "pitch": 62, "duration": 1, "velocity": 69}, {"time": 1222, "pitch": 65, "duration": 2, "velocity": 80}, {"time": 1222, "pitch": 69, "duration": 2, "velocity": 60}, {"time": 1225, "pitch": 64, "duration": 3, "velocity": 83}, {"time": 1225, "pitch": 67, "duration": 4, "velocity": 84}, {"time": 1228, "pitch": 57, "duration": 2, "velocity": 53}, {"time": 1228, "pitch": 65, "duration": 3, "velocity": 86}, {"time": 1228, "pitch": 69, "duration": 3, "velocity": 82}, {"time": 1231, "pitch": 57, "duration": 2, "velocity": 69}, {"time": 1234, "pitch": 72, "duration": 3, "velocity": 98}, {"time": 1237, "pitch": 43, "duration": 5, "velocity": 79}, {"time": 1237, "pitch": 62, "duration": 13, "velocity": 83}, {"time": 1237, "pitch": 65, "duration": 13, "velocity": 95}, {"time": 1237, "pitch": 70, "duration": 13, "velocity": 86}, {"time": 1240, "pitch": 50, "duration": 3, "velocity": 77}, {"time": 1243, "pitch": 55, "duration": 4, "velocity": 76}, {"time": 1246, "pitch": 57, "duration": 10, "velocity": 79}, {"time": 1249, "pitch": 58, "duration": 6, "velocity": 81}, {"time": 1252, "pitch": 62, "duration": 4, "velocity": 93}, {"time": 1255, "pitch": 65, "duration": 5, "velocity": 79}, {"time": 1258, "pitch": 70, "duration": 2, "velocity": 84}, {"time": 1261, "pitch": 46, "duration": 20, "velocity": 83}, {"time": 1261, "pitch": 62, "duration": 4, "velocity": 76}, {"time": 1261, "pitch": 65, "duration": 5, "velocity": 82}, {"time": 1261, "pitch": 69, "duration": 5, "velocity": 83}, {"time": 1264, "pitch": 53, "duration": 17, "velocity": 79}, {"time": 1267, "pitch": 58, "duration": 4, "velocity": 71}, {"time": 1270, "pitch": 69, "duration": 4, "velocity": 72}, {"time": 1270, "pitch": 77, "duration": 4, "velocity": 84}, {"time": 1273, "pitch": 58, "duration": 3, "velocity": 15}, {"time": 1276, "pitch": 67, "duration": 5, "velocity": 82}, {"time": 1276, "pitch": 76, "duration": 6, "velocity": 82}, {"time": 1279, "pitch": 58, "duration": 2, "velocity": 84}, {"time": 1285, "pitch": 53, "duration": 19, "velocity": 84}, {"time": 1285, "pitch": 67, "duration": 5, "velocity": 78}, {"time": 1285, "pitch": 72, "duration": 7, "velocity": 93}, {"time": 1288, "pitch": 60, "duration": 8, "velocity": 79}, {"time": 1291, "pitch": 65, "duration": 4, "velocity": 76}, {"time": 1294, "pitch": 67, "duration": 2, "velocity": 79}, {"time": 1294, "pitch": 69, "duration": 3, "velocity": 75}, {"time": 1297, "pitch": 72, "duration": 4, "velocity": 80}, {"time": 1300, "pitch": 60, "duration": 3, "velocity": 84}, {"time": 1300, "pitch": 67, "duration": 3, "velocity": 83}, {"time": 1303, "pitch": 65, "duration": 3, "velocity": 86}, {"time": 1306, "pitch": 62, "duration": 2, "velocity": 83}, {"time": 1309, "pitch": 50, "duration": 18, "velocity": 69}, {"time": 1309, "pitch": 69, "duration": 6, "velocity": 73}, {"time": 1312, "pitch": 57, "duration": 16, "velocity": 68}, {"time": 1315, "pitch": 62, "duration": 11, "velocity": 62}, {"time": 1318, "pitch": 64, "duration": 5, "velocity": 62}, {"time": 1321, "pitch": 65, "duration": 4, "velocity": 75}, {"time": 1324, "pitch": 69, "duration": 3, "velocity": 71}, {"time": 1327, "pitch": 72, "duration": 4, "velocity": 78}, {"time": 1330, "pitch": 74, "duration": 1, "velocity": 78}, {"time": 1333, "pitch": 46, "duration": 18, "velocity": 74}, {"time": 1333, "pitch": 77, "duration": 5, "velocity": 80}, {"time": 1336, "pitch": 53, "duration": 15, "velocity": 60}, {"time": 1339, "pitch": 58, "duration": 7, "velocity": 54}, {"time": 1342, "pitch": 62, "duration": 4, "velocity": 61}, {"time": 1345, "pitch": 65, "duration": 4, "velocity": 84}, {"time": 1348, "pitch": 58, "duration": 4, "velocity": 61}, {"time": 1351, "pitch": 67, "duration": 3, "velocity": 75}, {"time": 1354, "pitch": 69, "duration": 4, "velocity": 73}, {"time": 1357, "pitch": 53, "duration": 19, "velocity": 79}, {"time": 1357, "pitch": 69, "duration": 1, "velocity": 81}, {"time": 1360, "pitch": 57, "duration": 7, "velocity": 73}, {"time": 1363, "pitch": 60, "duration": 5, "velocity": 82}, {"time": 1366, "pitch": 67, "duration": 6, "velocity": 82}, {"time": 1369, "pitch": 57, "duration": 7, "velocity": 57}, {"time": 1372, "pitch": 65, "duration": 3, "velocity": 83}, {"time": 1375, "pitch": 60, "duration": 3, "velocity": 63}, {"time": 1378, "pitch": 67, "duration": 3, "velocity": 76}, {"time": 1381, "pitch": 45, "duration": 19, "velocity": 74}, {"time": 1381, "pitch": 60, "duration": 6, "velocity": 68}, {"time": 1381, "pitch": 64, "duration": 7, "velocity": 76}, {"time": 1381, "pitch": 67, "duration": 6, "velocity": 72}, {"time": 1384, "pitch": 52, "duration": 17, "velocity": 72}, {"time": 1387, "pitch": 57, "duration": 17, "velocity": 69}, {"time": 1390, "pitch": 60, "duration": 3, "velocity": 73}, {"time": 1393, "pitch": 64, "duration": 4, "velocity": 74}, {"time": 1396, "pitch": 67, "duration": 3, "velocity": 71}, {"time": 1399, "pitch": 69, "duration": 2, "velocity": 71}, {"time": 1402, "pitch": 72, "duration": 3, "velocity": 83}, {"time": 1405, "pitch": 50, "duration": 19, "velocity": 78}, {"time": 1405, "pitch": 74, "duration": 5, "velocity": 78}, {"time": 1408, "pitch": 57, "duration": 12, "velocity": 72}, {"time": 1411, "pitch": 62, "duration": 11, "velocity": 73}, {"time": 1414, "pitch": 69, "duration": 4, "velocity": 69}, {"time": 1417, "pitch": 65, "duration": 3, "velocity": 75}, {"time": 1420, "pitch": 64, "duration": 4, "velocity": 72}, {"time": 1420, "pitch": 67, "duration": 3, "velocity": 77}, {"time": 1423, "pitch": 57, "duration": 2, "velocity": 79}, {"time": 1423, "pitch": 69, "duration": 3, "velocity": 79}, {"time": 1426, "pitch": 72, "duration": 2, "velocity": 77}, {"time": 1429, "pitch": 43, "duration": 3, "velocity": 78}, {"time": 1429, "pitch": 62, "duration": 10, "velocity": 78}, {"time": 1429, "pitch": 70, "duration": 9, "velocity": 83}, {"time": 1432, "pitch": 55, "duration": 4, "velocity": 57}, {"time": 1435, "pitch": 57, "duration": 12, "velocity": 68}, {"time": 1438, "pitch": 58, "duration": 9, "velocity": 76}, {"time": 1441, "pitch": 62, "duration": 4, "velocity": 80}, {"time": 1444, "pitch": 65, "duration": 4, "velocity": 83}, {"time": 1450, "pitch": 72, "duration": 3, "velocity": 86}, {"time": 1453, "pitch": 48, "duration": 20, "velocity": 73}, {"time": 1453, "pitch": 55, "duration": 20, "velocity": 72}, {"time": 1453, "pitch": 60, "duration": 20, "velocity": 72}, {"time": 1453, "pitch": 64, "duration": 12, "velocity": 75}, {"time": 1453, "pitch": 67, "duration": 12, "velocity": 82}, {"time": 1453, "pitch": 72, "duration": 13, "velocity": 83}, {"time": 1477, "pitch": 50, "duration": 20, "velocity": 86}, {"time": 1477, "pitch": 65, "duration": 7, "velocity": 80}, {"time": 1477, "pitch": 69, "duration": 6, "velocity": 81}, {"time": 1480, "pitch": 57, "duration": 41, "velocity": 72}, {"time": 1483, "pitch": 62, "duration": 16, "velocity": 79}, {"time": 1486, "pitch": 64, "duration": 3, "velocity": 79}, {"time": 1489, "pitch": 65, "duration": 4, "velocity": 79}, {"time": 1492, "pitch": 69, "duration": 3, "velocity": 59}, {"time": 1495, "pitch": 72, "duration": 4, "velocity": 80}, {"time": 1498, "pitch": 74, "duration": 2, "velocity": 75}, {"time": 1501, "pitch": 50, "duration": 19, "velocity": 79}, {"time": 1501, "pitch": 62, "duration": 7, "velocity": 63}, {"time": 1501, "pitch": 69, "duration": 4, "velocity": 62}, {"time": 1501, "pitch": 77, "duration": 6, "velocity": 86}, {"time": 1507, "pitch": 67, "duration": 2, "velocity": 78}, {"time": 1507, "pitch": 76, "duration": 2, "velocity": 80}, {"time": 1510, "pitch": 62, "duration": 5, "velocity": 35}, {"time": 1513, "pitch": 65, "duration": 2, "velocity": 76}, {"time": 1513, "pitch": 74, "duration": 2, "velocity": 84}, {"time": 1516, "pitch": 62, "duration": 5, "velocity": 24}, {"time": 1519, "pitch": 64, "duration": 2, "velocity": 68}, {"time": 1519, "pitch": 72, "duration": 2, "velocity": 91}, {"time": 1525, "pitch": 50, "duration": 43, "velocity": 71}, {"time": 1525, "pitch": 57, "duration": 38, "velocity": 71}, {"time": 1525, "pitch": 65, "duration": 7, "velocity": 83}, {"time": 1525, "pitch": 69, "duration": 8, "velocity": 78}, {"time": 1537, "pitch": 65, "duration": 8, "velocity": 68}, {"time": 1537, "pitch": 69, "duration": 8, "velocity": 67}, {"time": 1546, "pitch": 62, "duration": 8, "velocity": 42}, {"time": 1549, "pitch": 65, "duration": 9, "velocity": 68}, {"time": 1549, "pitch": 69, "duration": 9, "velocity": 68}, {"time": 1558, "pitch": 62, "duration": 6, "velocity": 24}, {"time": 1561, "pitch": 64, "duration": 6, "velocity": 71}, {"time": 1561, "pitch": 65, "duration": 6, "velocity": 75}, {"time": 1561, "pitch": 69, "duration": 6, "velocity": 71}, {"time": 1573, "pitch": 45, "duration": 21, "velocity": 76}, {"time": 1573, "pitch": 60, "duration": 7, "velocity": 67}, {"time": 1573, "pitch": 64, "duration": 7, "velocity": 71}, {"time": 1573, "pitch": 67, "duration": 7, "velocity": 76}, {"time": 1579, "pitch": 52, "duration": 11, "velocity": 68}, {"time": 1582, "pitch": 57, "duration": 11, "velocity": 50}, {"time": 1585, "pitch": 60, "duration": 4, "velocity": 62}, {"time": 1588, "pitch": 64, "duration": 4, "velocity": 71}, {"time": 1591, "pitch": 67, "duration": 14, "velocity": 63}, {"time": 1594, "pitch": 52, "duration": 4, "velocity": 73}, {"time": 1597, "pitch": 45, "duration": 2, "velocity": 74}, {"time": 1597, "pitch": 57, "duration": 2, "velocity": 59}, {"time": 1600, "pitch": 45, "duration": 18, "velocity": 75}, {"time": 1600, "pitch": 57, "duration": 2, "velocity": 41}, {"time": 1606, "pitch": 57, "duration": 4, "velocity": 43}, {"time": 1609, "pitch": 60, "duration": 5, "velocity": 67}, {"time": 1609, "pitch": 67, "duration": 5, "velocity": 73}, {"time": 1612, "pitch": 57, "duration": 4, "velocity": 44}, {"time": 1615, "pitch": 64, "duration": 3, "velocity": 73}, {"time": 1618, "pitch": 57, "duration": 4, "velocity": 50}, {"time": 1621, "pitch": 46, "duration": 21, "velocity": 76}, {"time": 1621, "pitch": 58, "duration": 13, "velocity": 58}, {"time": 1621, "pitch": 62, "duration": 5, "velocity": 62}, {"time": 1621, "pitch": 65, "duration": 7, "velocity": 72}, {"time": 1621, "pitch": 69, "duration": 7, "velocity": 69}, {"time": 1630, "pitch": 62, "duration": 5, "velocity": 47}, {"time": 1633, "pitch": 65, "duration": 4, "velocity": 73}, {"time": 1633, "pitch": 69, "duration": 5, "velocity": 62}, {"time": 1636, "pitch": 58, "duration": 7, "velocity": 53}, {"time": 1639, "pitch": 62, "duration": 3, "velocity": 57}, {"time": 1642, "pitch": 67, "duration": 11, "velocity": 73}, {"time": 1645, "pitch": 46, "duration": 3, "velocity": 81}, {"time": 1648, "pitch": 46, "duration": 17, "velocity": 84}, {"time": 1651, "pitch": 58, "duration": 8, "velocity": 68}, {"time": 1654, "pitch": 62, "duration": 2, "velocity": 48}, {"time": 1657, "pitch": 62, "duration": 7, "velocity": 15}, {"time": 1657, "pitch": 65, "duration": 8, "velocity": 79}, {"time": 1663, "pitch": 58, "duration": 2, "velocity": 63}, {"time": 1669, "pitch": 53, "duration": 20, "velocity": 58}, {"time": 1669, "pitch": 60, "duration": 3, "velocity": 71}, {"time": 1669, "pitch": 65, "duration": 3, "velocity": 63}, {"time": 1669, "pitch": 69, "duration": 4, "velocity": 73}, {"time": 1672, "pitch": 57, "duration": 6, "velocity": 54}, {"time": 1675, "pitch": 60, "duration": 10, "velocity": 63}, {"time": 1678, "pitch": 67, "duration": 7, "velocity": 77}, {"time": 1684, "pitch": 57, "duration": 5, "velocity": 69}, {"time": 1687, "pitch": 60, "duration": 4, "velocity": 60}, {"time": 1690, "pitch": 65, "duration": 13, "velocity": 75}, {"time": 1693, "pitch": 53, "duration": 2, "velocity": 69}, {"time": 1696, "pitch": 53, "duration": 17, "velocity": 72}, {"time": 1702, "pitch": 57, "duration": 7, "velocity": 54}, {"time": 1705, "pitch": 60, "duration": 7, "velocity": 60}, {"time": 1708, "pitch": 65, "duration": 4, "velocity": 80}, {"time": 1711, "pitch": 57, "duration": 2, "velocity": 71}, {"time": 1711, "pitch": 67, "duration": 3, "velocity": 76}, {"time": 1714, "pitch": 69, "duration": 4, "velocity": 60}, {"time": 1717, "pitch": 41, "duration": 21, "velocity": 81}, {"time": 1717, "pitch": 57, "duration": 7, "velocity": 71}, {"time": 1717, "pitch": 65, "duration": 6, "velocity": 79}, {"time": 1720, "pitch": 48, "duration": 11, "velocity": 71}, {"time": 1723, "pitch": 53, "duration": 15, "velocity": 59}, {"time": 1726, "pitch": 57, "duration": 12, "velocity": 49}, {"time": 1729, "pitch": 60, "duration": 10, "velocity": 69}, {"time": 1735, "pitch": 65, "duration": 4, "velocity": 72}, {"time": 1738, "pitch": 48, "duration": 3, "velocity": 78}, {"time": 1741, "pitch": 41, "duration": 2, "velocity": 73}, {"time": 1741, "pitch": 53, "duration": 2, "velocity": 53}, {"time": 1744, "pitch": 41, "duration": 16, "velocity": 79}, {"time": 1744, "pitch": 53, "duration": 7, "velocity": 72}, {"time": 1750, "pitch": 57, "duration": 5, "velocity": 51}, {"time": 1750, "pitch": 65, "duration": 10, "velocity": 40}, {"time": 1753, "pitch": 53, "duration": 8, "velocity": 59}, {"time": 1756, "pitch": 57, "duration": 4, "velocity": 61}, {"time": 1759, "pitch": 62, "duration": 3, "velocity": 81}, {"time": 1762, "pitch": 64, "duration": 3, "velocity": 79}, {"time": 1765, "pitch": 50, "duration": 19, "velocity": 68}, {"time": 1765, "pitch": 62, "duration": 3, "velocity": 72}, {"time": 1765, "pitch": 65, "duration": 5, "velocity": 78}, {"time": 1768, "pitch": 57, "duration": 19, "velocity": 44}, {"time": 1771, "pitch": 62, "duration": 7, "velocity": 58}, {"time": 1774, "pitch": 64, "duration": 4, "velocity": 57}, {"time": 1777, "pitch": 65, "duration": 3, "velocity": 72}, {"time": 1780, "pitch": 64, "duration": 5, "velocity": 59}, {"time": 1783, "pitch": 69, "duration": 3, "velocity": 62}, {"time": 1786, "pitch": 72, "duration": 11, "velocity": 76}, {"time": 1789, "pitch": 50, "duration": 19, "velocity": 17}, {"time": 1792, "pitch": 57, "duration": 16, "velocity": 61}, {"time": 1795, "pitch": 62, "duration": 7, "velocity": 55}, {"time": 1798, "pitch": 64, "duration": 4, "velocity": 61}, {"time": 1801, "pitch": 65, "duration": 4, "velocity": 72}, {"time": 1804, "pitch": 67, "duration": 3, "velocity": 73}, {"time": 1807, "pitch": 69, "duration": 3, "velocity": 68}, {"time": 1810, "pitch": 72, "duration": 2, "velocity": 69}, {"time": 1813, "pitch": 50, "duration": 21, "velocity": 69}, {"time": 1813, "pitch": 65, "duration": 7, "velocity": 72}, {"time": 1813, "pitch": 69, "duration": 7, "velocity": 72}, {"time": 1816, "pitch": 57, "duration": 19, "velocity": 62}, {"time": 1819, "pitch": 62, "duration": 7, "velocity": 59}, {"time": 1822, "pitch": 64, "duration": 5, "velocity": 56}, {"time": 1825, "pitch": 65, "duration": 6, "velocity": 73}, {"time": 1828, "pitch": 62, "duration": 5, "velocity": 43}, {"time": 1831, "pitch": 67, "duration": 3, "velocity": 72}, {"time": 1834, "pitch": 69, "duration": 11, "velocity": 73}, {"time": 1837, "pitch": 50, "duration": 19, "velocity": 61}, {"time": 1840, "pitch": 57, "duration": 14, "velocity": 61}, {"time": 1843, "pitch": 62, "duration": 9, "velocity": 62}, {"time": 1846, "pitch": 64, "duration": 4, "velocity": 61}, {"time": 1846, "pitch": 67, "duration": 3, "velocity": 63}, {"time": 1849, "pitch": 65, "duration": 4, "velocity": 75}, {"time": 1849, "pitch": 69, "duration": 4, "velocity": 68}, {"time": 1852, "pitch": 67, "duration": 3, "velocity": 73}, {"time": 1855, "pitch": 69, "duration": 3, "velocity": 76}, {"time": 1861, "pitch": 41, "duration": 3, "velocity": 81}, {"time": 1861, "pitch": 60, "duration": 10, "velocity": 79}, {"time": 1861, "pitch": 65, "duration": 10, "velocity": 80}, {"time": 1861, "pitch": 69, "duration": 11, "velocity": 78}, {"time": 1864, "pitch": 53, "duration": 5, "velocity": 58}, {"time": 1867, "pitch": 55, "duration": 7, "velocity": 75}, {"time": 1870, "pitch": 57, "duration": 4, "velocity": 73}, {"time": 1873, "pitch": 60, "duration": 4, "velocity": 68}, {"time": 1876, "pitch": 65, "duration": 2, "velocity": 78}, {"time": 1879, "pitch": 67, "duration": 3, "velocity": 73}, {"time": 1882, "pitch": 69, "duration": 3, "velocity": 69}, {"time": 1885, "pitch": 45, "duration": 19, "velocity": 71}, {"time": 1885, "pitch": 60, "duration": 7, "velocity": 79}, {"time": 1885, "pitch": 67, "duration": 8, "velocity": 80}, {"time": 1888, "pitch": 52, "duration": 17, "velocity": 71}, {"time": 1891, "pitch": 57, "duration": 4, "velocity": 57}, {"time": 1894, "pitch": 60, "duration": 5, "velocity": 69}, {"time": 1894, "pitch": 64, "duration": 7, "velocity": 73}, {"time": 1897, "pitch": 57, "duration": 3, "velocity": 54}, {"time": 1900, "pitch": 60, "duration": 6, "velocity": 81}, {"time": 1900, "pitch": 67, "duration": 6, "velocity": 83}, {"time": 1903, "pitch": 57, "duration": 6, "velocity": 59}, {"time": 1906, "pitch": 69, "duration": 3, "velocity": 75}, {"time": 1909, "pitch": 50, "duration": 22, "velocity": 73}, {"time": 1909, "pitch": 62, "duration": 5, "velocity": 73}, {"time": 1909, "pitch": 65, "duration": 7, "velocity": 83}, {"time": 1909, "pitch": 69, "duration": 1, "velocity": 55}, {"time": 1912, "pitch": 57, "duration": 9, "velocity": 69}, {"time": 1915, "pitch": 62, "duration": 6, "velocity": 28}, {"time": 1918, "pitch": 64, "duration": 3, "velocity": 71}, {"time": 1918, "pitch": 67, "duration": 3, "velocity": 75}, {"time": 1921, "pitch": 65, "duration": 5, "velocity": 83}, {"time": 1921, "pitch": 69, "duration": 5, "velocity": 79}, {"time": 1924, "pitch": 57, "duration": 6, "velocity": 71}, {"time": 1927, "pitch": 64, "duration": 3, "velocity": 78}, {"time": 1927, "pitch": 67, "duration": 2, "velocity": 78}, {"time": 1930, "pitch": 69, "duration": 7, "velocity": 71}, {"time": 1933, "pitch": 48, "duration": 20, "velocity": 77}, {"time": 1933, "pitch": 60, "duration": 7, "velocity": 63}, {"time": 1933, "pitch": 64, "duration": 9, "velocity": 75}, {"time": 1933, "pitch": 67, "duration": 10, "velocity": 81}, {"time": 1933, "pitch": 72, "duration": 10, "velocity": 77}, {"time": 1942, "pitch": 60, "duration": 4, "velocity": 71}, {"time": 1945, "pitch": 64, "duration": 5, "velocity": 81}, {"time": 1945, "pitch": 67, "duration": 5, "velocity": 83}, {"time": 1945, "pitch": 72, "duration": 8, "velocity": 81}, {"time": 1948, "pitch": 60, "duration": 4, "velocity": 72}, {"time": 1951, "pitch": 64, "duration": 4, "velocity": 76}, {"time": 1951, "pitch": 67, "duration": 2, "velocity": 59}, {"time": 1954, "pitch": 67, "duration": 3, "velocity": 78}, {"time": 1957, "pitch": 41, "duration": 17, "velocity": 80}, {"time": 1957, "pitch": 60, "duration": 10, "velocity": 70}, {"time": 1957, "pitch": 65, "duration": 10, "velocity": 75}, {"time": 1957, "pitch": 69, "duration": 9, "velocity": 77}, {"time": 1966, "pitch": 53, "duration": 5, "velocity": 68}, {"time": 1969, "pitch": 60, "duration": 4, "velocity": 80}, {"time": 1969, "pitch": 65, "duration": 5, "velocity": 81}, {"time": 1969, "pitch": 69, "duration": 5, "velocity": 75}, {"time": 1972, "pitch": 53, "duration": 8, "velocity": 73}, {"time": 1975, "pitch": 60, "duration": 4, "velocity": 69}, {"time": 1978, "pitch": 67, "duration": 2, "velocity": 72}, {"time": 1981, "pitch": 50, "duration": 21, "velocity": 78}, {"time": 1981, "pitch": 69, "duration": 7, "velocity": 75}, {"time": 1984, "pitch": 57, "duration": 21, "velocity": 60}, {"time": 1987, "pitch": 62, "duration": 7, "velocity": 69}, {"time": 1990, "pitch": 64, "duration": 4, "velocity": 75}, {"time": 1993, "pitch": 65, "duration": 3, "velocity": 80}, {"time": 1999, "pitch": 69, "duration": 3, "velocity": 71}, {"time": 2002, "pitch": 74, "duration": 3, "velocity": 79}, {"time": 2005, "pitch": 50, "duration": 19, "velocity": 73}, {"time": 2005, "pitch": 69, "duration": 5, "velocity": 50}, {"time": 2005, "pitch": 77, "duration": 8, "velocity": 84}, {"time": 2008, "pitch": 57, "duration": 20, "velocity": 59}, {"time": 2011, "pitch": 62, "duration": 6, "velocity": 71}, {"time": 2014, "pitch": 69, "duration": 4, "velocity": 73}, {"time": 2017, "pitch": 76, "duration": 4, "velocity": 80}, {"time": 2020, "pitch": 62, "duration": 5, "velocity": 57}, {"time": 2026, "pitch": 77, "duration": 13, "velocity": 79}, {"time": 2029, "pitch": 46, "duration": 21, "velocity": 83}, {"time": 2029, "pitch": 62, "duration": 7, "velocity": 78}, {"time": 2029, "pitch": 69, "duration": 8, "velocity": 81}, {"time": 2032, "pitch": 53, "duration": 17, "velocity": 63}, {"time": 2035, "pitch": 58, "duration": 4, "velocity": 60}, {"time": 2038, "pitch": 62, "duration": 5, "velocity": 79}, {"time": 2038, "pitch": 67, "duration": 5, "velocity": 82}, {"time": 2041, "pitch": 58, "duration": 5, "velocity": 53}, {"time": 2044, "pitch": 65, "duration": 6, "velocity": 83}, {"time": 2044, "pitch": 69, "duration": 6, "velocity": 80}, {"time": 2047, "pitch": 58, "duration": 2, "velocity": 71}, {"time": 2053, "pitch": 43, "duration": 20, "velocity": 72}, {"time": 2053, "pitch": 64, "duration": 4, "velocity": 76}, {"time": 2053, "pitch": 67, "duration": 5, "velocity": 84}, {"time": 2053, "pitch": 71, "duration": 4, "velocity": 83}, {"time": 2056, "pitch": 55, "duration": 8, "velocity": 75}, {"time": 2059, "pitch": 62, "duration": 10, "velocity": 80}, {"time": 2062, "pitch": 67, "duration": 9, "velocity": 90}, {"time": 2068, "pitch": 55, "duration": 6, "velocity": 58}, {"time": 2071, "pitch": 62, "duration": 3, "velocity": 84}, {"time": 2071, "pitch": 72, "duration": 4, "velocity": 91}, {"time": 2077, "pitch": 48, "duration": 19, "velocity": 79}, {"time": 2077, "pitch": 64, "duration": 7, "velocity": 81}, {"time": 2077, "pitch": 67, "duration": 6, "velocity": 80}, {"time": 2077, "pitch": 72, "duration": 8, "velocity": 83}, {"time": 2080, "pitch": 55, "duration": 18, "velocity": 72}, {"time": 2083, "pitch": 60, "duration": 13, "velocity": 76}, {"time": 2086, "pitch": 62, "duration": 4, "velocity": 82}, {"time": 2089, "pitch": 64, "duration": 4, "velocity": 84}, {"time": 2092, "pitch": 67, "duration": 5, "velocity": 71}, {"time": 2095, "pitch": 69, "duration": 3, "velocity": 76}, {"time": 2098, "pitch": 72, "duration": 3, "velocity": 84}, {"time": 2101, "pitch": 50, "duration": 22, "velocity": 74}, {"time": 2101, "pitch": 65, "duration": 9, "velocity": 80}, {"time": 2101, "pitch": 69, "duration": 8, "velocity": 79}, {"time": 2104, "pitch": 57, "duration": 14, "velocity": 73}, {"time": 2107, "pitch": 62, "duration": 6, "velocity": 68}, {"time": 2110, "pitch": 67, "duration": 3, "velocity": 76}, {"time": 2113, "pitch": 65, "duration": 4, "velocity": 81}, {"time": 2113, "pitch": 69, "duration": 5, "velocity": 79}, {"time": 2116, "pitch": 62, "duration": 4, "velocity": 58}, {"time": 2119, "pitch": 65, "duration": 5, "velocity": 74}, {"time": 2119, "pitch": 69, "duration": 5, "velocity": 69}, {"time": 2122, "pitch": 57, "duration": 3, "velocity": 63}, {"time": 2122, "pitch": 72, "duration": 10, "velocity": 84}, {"time": 2125, "pitch": 48, "duration": 17, "velocity": 80}, {"time": 2125, "pitch": 64, "duration": 7, "velocity": 73}, {"time": 2125, "pitch": 67, "duration": 7, "velocity": 83}, {"time": 2128, "pitch": 55, "duration": 14, "velocity": 72}, {"time": 2131, "pitch": 60, "duration": 7, "velocity": 75}, {"time": 2134, "pitch": 65, "duration": 3, "velocity": 79}, {"time": 2137, "pitch": 67, "duration": 5, "velocity": 75}, {"time": 2140, "pitch": 60, "duration": 2, "velocity": 57}, {"time": 2143, "pitch": 69, "duration": 3, "velocity": 79}, {"time": 2146, "pitch": 72, "duration": 5, "velocity": 77}, {"time": 2149, "pitch": 46, "duration": 8, "velocity": 83}, {"time": 2149, "pitch": 62, "duration": 9, "velocity": 80}, {"time": 2149, "pitch": 65, "duration": 8, "velocity": 83}, {"time": 2149, "pitch": 69, "duration": 8, "velocity": 81}, {"time": 2152, "pitch": 53, "duration": 5, "velocity": 78}, {"time": 2155, "pitch": 58, "duration": 2, "velocity": 84}, {"time": 2158, "pitch": 69, "duration": 2, "velocity": 63}, {"time": 2161, "pitch": 45, "duration": 7, "velocity": 84}, {"time": 2161, "pitch": 60, "duration": 5, "velocity": 80}, {"time": 2161, "pitch": 67, "duration": 5, "velocity": 76}, {"time": 2164, "pitch": 57, "duration": 9, "velocity": 62}, {"time": 2167, "pitch": 60, "duration": 4, "velocity": 78}, {"time": 2170, "pitch": 67, "duration": 3, "velocity": 77}, {"time": 2173, "pitch": 50, "duration": 19, "velocity": 81}, {"time": 2173, "pitch": 65, "duration": 7, "velocity": 83}, {"time": 2176, "pitch": 57, "duration": 21, "velocity": 76}, {"time": 2179, "pitch": 62, "duration": 16, "velocity": 82}, {"time": 2182, "pitch": 64, "duration": 4, "velocity": 82}, {"time": 2185, "pitch": 65, "duration": 2, "velocity": 80}, {"time": 2188, "pitch": 69, "duration": 3, "velocity": 83}, {"time": 2191, "pitch": 74, "duration": 3, "velocity": 80}, {"time": 2194, "pitch": 76, "duration": 3, "velocity": 78}, {"time": 2197, "pitch": 50, "duration": 3, "velocity": 76}, {"time": 2197, "pitch": 69, "duration": 3, "velocity": 77}, {"time": 2197, "pitch": 77, "duration": 4, "velocity": 84}, {"time": 2200, "pitch": 50, "duration": 16, "velocity": 80}, {"time": 2200, "pitch": 64, "duration": 5, "velocity": 77}, {"time": 2203, "pitch": 57, "duration": 14, "velocity": 71}, {"time": 2203, "pitch": 65, "duration": 4, "velocity": 79}, {"time": 2206, "pitch": 67, "duration": 3, "velocity": 79}, {"time": 2209, "pitch": 62, "duration": 3, "velocity": 62}, {"time": 2209, "pitch": 69, "duration": 4, "velocity": 78}, {"time": 2212, "pitch": 72, "duration": 3, "velocity": 90}, {"time": 2215, "pitch": 67, "duration": 3, "velocity": 82}, {"time": 2218, "pitch": 69, "duration": 2, "velocity": 77}, {"time": 2221, "pitch": 50, "duration": 20, "velocity": 83}, {"time": 2221, "pitch": 62, "duration": 8, "velocity": 76}, {"time": 2221, "pitch": 65, "duration": 11, "velocity": 83}, {"time": 2221, "pitch": 69, "duration": 10, "velocity": 82}, {"time": 2227, "pitch": 57, "duration": 7, "velocity": 39}, {"time": 2233, "pitch": 62, "duration": 4, "velocity": 81}, {"time": 2233, "pitch": 65, "duration": 5, "velocity": 91}, {"time": 2233, "pitch": 69, "duration": 5, "velocity": 84}, {"time": 2236, "pitch": 57, "duration": 4, "velocity": 69}, {"time": 2239, "pitch": 62, "duration": 2, "velocity": 78}, {"time": 2239, "pitch": 67, "duration": 3, "velocity": 78}, {"time": 2242, "pitch": 69, "duration": 2, "velocity": 78}, {"time": 2245, "pitch": 45, "duration": 20, "velocity": 83}, {"time": 2245, "pitch": 60, "duration": 6, "velocity": 78}, {"time": 2245, "pitch": 64, "duration": 7, "velocity": 80}, {"time": 2245, "pitch": 67, "duration": 7, "velocity": 78}, {"time": 2251, "pitch": 57, "duration": 7, "velocity": 39}, {"time": 2254, "pitch": 60, "duration": 2, "velocity": 61}, {"time": 2257, "pitch": 60, "duration": 4, "velocity": 84}, {"time": 2257, "pitch": 64, "duration": 6, "velocity": 84}, {"time": 2257, "pitch": 67, "duration": 5, "velocity": 82}, {"time": 2260, "pitch": 57, "duration": 7, "velocity": 62}, {"time": 2263, "pitch": 60, "duration": 4, "velocity": 79}, {"time": 2263, "pitch": 65, "duration": 2, "velocity": 80}, {"time": 2266, "pitch": 67, "duration": 2, "velocity": 79}, {"time": 2269, "pitch": 46, "duration": 20, "velocity": 90}, {"time": 2269, "pitch": 62, "duration": 7, "velocity": 76}, {"time": 2269, "pitch": 65, "duration": 7, "velocity": 84}, {"time": 2269, "pitch": 69, "duration": 7, "velocity": 83}, {"time": 2272, "pitch": 53, "duration": 16, "velocity": 73}, {"time": 2275, "pitch": 58, "duration": 7, "velocity": 79}, {"time": 2278, "pitch": 62, "duration": 2, "velocity": 62}, {"time": 2281, "pitch": 62, "duration": 4, "velocity": 81}, {"time": 2281, "pitch": 65, "duration": 5, "velocity": 95}, {"time": 2281, "pitch": 69, "duration": 5, "velocity": 84}, {"time": 2284, "pitch": 58, "duration": 3, "velocity": 84}, {"time": 2287, "pitch": 62, "duration": 2, "velocity": 81}, {"time": 2287, "pitch": 65, "duration": 2, "velocity": 71}, {"time": 2287, "pitch": 69, "duration": 2, "velocity": 73}, {"time": 2290, "pitch": 69, "duration": 2, "velocity": 83}, {"time": 2293, "pitch": 48, "duration": 21, "velocity": 86}, {"time": 2293, "pitch": 60, "duration": 4, "velocity": 77}, {"time": 2293, "pitch": 64, "duration": 5, "velocity": 84}, {"time": 2293, "pitch": 67, "duration": 6, "velocity": 79}, {"time": 2293, "pitch": 72, "duration": 7, "velocity": 79}, {"time": 2296, "pitch": 55, "duration": 18, "velocity": 69}, {"time": 2299, "pitch": 60, "duration": 9, "velocity": 75}, {"time": 2302, "pitch": 62, "duration": 2, "velocity": 58}, {"time": 2302, "pitch": 67, "duration": 2, "velocity": 82}, {"time": 2308, "pitch": 65, "duration": 5, "velocity": 84}, {"time": 2308, "pitch": 69, "duration": 5, "velocity": 83}, {"time": 2311, "pitch": 60, "duration": 2, "velocity": 71}, {"time": 2314, "pitch": 65, "duration": 1, "velocity": 60}, {"time": 2314, "pitch": 72, "duration": 2, "velocity": 84}, {"time": 2317, "pitch": 50, "duration": 20, "velocity": 83}, {"time": 2317, "pitch": 62, "duration": 6, "velocity": 73}, {"time": 2317, "pitch": 65, "duration": 7, "velocity": 83}, {"time": 2317, "pitch": 69, "duration": 6, "velocity": 80}, {"time": 2323, "pitch": 57, "duration": 7, "velocity": 67}, {"time": 2326, "pitch": 62, "duration": 1, "velocity": 69}, {"time": 2326, "pitch": 65, "duration": 2, "velocity": 80}, {"time": 2326, "pitch": 69, "duration": 2, "velocity": 60}, {"time": 2329, "pitch": 64, "duration": 3, "velocity": 83}, {"time": 2329, "pitch": 67, "duration": 4, "velocity": 84}, {"time": 2332, "pitch": 57, "duration": 2, "velocity": 53}, {"time": 2332, "pitch": 65, "duration": 3, "velocity": 86}, {"time": 2332, "pitch": 69, "duration": 3, "velocity": 82}, {"time": 2335, "pitch": 57, "duration": 2, "velocity": 69}, {"time": 2338, "pitch": 72, "duration": 3, "velocity": 98}, {"time": 2341, "pitch": 43, "duration": 5, "velocity": 79}, {"time": 2341, "pitch": 62, "duration": 13, "velocity": 83}, {"time": 2341, "pitch": 65, "duration": 13, "velocity": 95}, {"time": 2341, "pitch": 70, "duration": 13, "velocity": 86}, {"time": 2344, "pitch": 50, "duration": 3, "velocity": 77}, {"time": 2347, "pitch": 55, "duration": 4, "velocity": 76}, {"time": 2350, "pitch": 57, "duration": 10, "velocity": 79}, {"time": 2353, "pitch": 58, "duration": 6, "velocity": 81}, {"time": 2356, "pitch": 62, "duration": 4, "velocity": 93}, {"time": 2359, "pitch": 65, "duration": 5, "velocity": 79}, {"time": 2362, "pitch": 70, "duration": 2, "velocity": 84}, {"time": 2365, "pitch": 46, "duration": 20, "velocity": 83}, {"time": 2365, "pitch": 62, "duration": 4, "velocity": 76}, {"time": 2365, "pitch": 65, "duration": 5, "velocity": 82}, {"time": 2365, "pitch": 69, "duration": 5, "velocity": 83}, {"time": 2368, "pitch": 53, "duration": 17, "velocity": 79}, {"time": 2371, "pitch": 58, "duration": 4, "velocity": 71}, {"time": 2374, "pitch": 69, "duration": 4, "velocity": 72}, {"time": 2374, "pitch": 77, "duration": 4, "velocity": 84}, {"time": 2377, "pitch": 58, "duration": 3, "velocity": 15}, {"time": 2380, "pitch": 67, "duration": 5, "velocity": 82}, {"time": 2380, "pitch": 76, "duration": 6, "velocity": 82}, {"time": 2383, "pitch": 58, "duration": 2, "velocity": 84}, {"time": 2389, "pitch": 53, "duration": 19, "velocity": 84}, {"time": 2389, "pitch": 67, "duration": 5, "velocity": 78}, {"time": 2389, "pitch": 72, "duration": 7, "velocity": 93}, {"time": 2392, "pitch": 60, "duration": 8, "velocity": 79}, {"time": 2395, "pitch": 65, "duration": 4, "velocity": 76}, {"time": 2398, "pitch": 67, "duration": 2, "velocity": 79}, {"time": 2398, "pitch": 69, "duration": 3, "velocity": 75}, {"time": 2401, "pitch": 72, "duration": 4, "velocity": 80}, {"time": 2404, "pitch": 60, "duration": 3, "velocity": 84}, {"time": 2404, "pitch": 67, "duration": 3, "velocity": 83}, {"time": 2407, "pitch": 65, "duration": 3, "velocity": 86}, {"time": 2410, "pitch": 62, "duration": 2, "velocity": 83}, {"time": 2413, "pitch": 50, "duration": 18, "velocity": 69}, {"time": 2413, "pitch": 69, "duration": 6, "velocity": 73}, {"time": 2416, "pitch": 57, "duration": 16, "velocity": 68}, {"time": 2419, "pitch": 62, "duration": 11, "velocity": 62}, {"time": 2422, "pitch": 64, "duration": 5, "velocity": 62}, {"time": 2425, "pitch": 65, "duration": 4, "velocity": 75}, {"time": 2428, "pitch": 69, "duration": 3, "velocity": 71}, {"time": 2431, "pitch": 72, "duration": 4, "velocity": 78}, {"time": 2434, "pitch": 74, "duration": 1, "velocity": 78}, {"time": 2437, "pitch": 46, "duration": 18, "velocity": 74}, {"time": 2437, "pitch": 77, "duration": 5, "velocity": 80}, {"time": 2440, "pitch": 53, "duration": 15, "velocity": 60}, {"time": 2443, "pitch": 58, "duration": 7, "velocity": 54}, {"time": 2446, "pitch": 62, "duration": 4, "velocity": 61}, {"time": 2449, "pitch": 65, "duration": 4, "velocity": 84}, {"time": 2452, "pitch": 58, "duration": 4, "velocity": 61}, {"time": 2455, "pitch": 67, "duration": 3, "velocity": 75}, {"time": 2458, "pitch": 69, "duration": 4, "velocity": 73}, {"time": 2461, "pitch": 53, "duration": 19, "velocity": 79}, {"time": 2461, "pitch": 69, "duration": 1, "velocity": 81}, {"time": 2464, "pitch": 57, "duration": 7, "velocity": 73}, {"time": 2467, "pitch": 60, "duration": 5, "velocity": 82}, {"time": 2470, "pitch": 67, "duration": 6, "velocity": 82}, {"time": 2473, "pitch": 57, "duration": 7, "velocity": 57}, {"time": 2476, "pitch": 65, "duration": 3, "velocity": 83}, {"time": 2479, "pitch": 60, "duration": 3, "velocity": 63}, {"time": 2482, "pitch": 67, "duration": 3, "velocity": 76}, {"time": 2485, "pitch": 45, "duration": 19, "velocity": 74}, {"time": 2485, "pitch": 60, "duration": 6, "velocity": 68}, {"time": 2485, "pitch": 64, "duration": 7, "velocity": 76}, {"time": 2485, "pitch": 67, "duration": 6, "velocity": 72}, {"time": 2488, "pitch": 52, "duration": 17, "velocity": 72}, {"time": 2491, "pitch": 57, "duration": 17, "velocity": 69}, {"time": 2494, "pitch": 60, "duration": 3, "velocity": 73}, {"time": 2497, "pitch": 64, "duration": 4, "velocity": 74}, {"time": 2500, "pitch": 67, "duration": 3, "velocity": 71}, {"time": 2503, "pitch": 69, "duration": 2, "velocity": 71}, {"time": 2506, "pitch": 72, "duration": 3, "velocity": 83}, {"time": 2509, "pitch": 50, "duration": 19, "velocity": 78}, {"time": 2509, "pitch": 74, "duration": 5, "velocity": 78}, {"time": 2512, "pitch": 57, "duration": 12, "velocity": 72}, {"time": 2515, "pitch": 62, "duration": 11, "velocity": 73}, {"time": 2518, "pitch": 69, "duration": 4, "velocity": 69}, {"time": 2521, "pitch": 65, "duration": 3, "velocity": 75}, {"time": 2524, "pitch": 64, "duration": 4, "velocity": 72}, {"time": 2524, "pitch": 67, "duration": 3, "velocity": 77}, {"time": 2527, "pitch": 57, "duration": 2, "velocity": 79}, {"time": 2527, "pitch": 69, "duration": 3, "velocity": 79}, {"time": 2530, "pitch": 72, "duration": 2, "velocity": 77}, {"time": 2533, "pitch": 43, "duration": 3, "velocity": 78}, {"time": 2533, "pitch": 62, "duration": 10, "velocity": 78}, {"time": 2533, "pitch": 70, "duration": 9, "velocity": 83}, {"time": 2536, "pitch": 55, "duration": 4, "velocity": 57}, {"time": 2539, "pitch": 57, "duration": 12, "velocity": 68}, {"time": 2542, "pitch": 58, "duration": 9, "velocity": 76}, {"time": 2545, "pitch": 62, "duration": 4, "velocity": 80}, {"time": 2548, "pitch": 65, "duration": 4, "velocity": 83}, {"time": 2554, "pitch": 72, "duration": 3, "velocity": 86}, {"time": 2557, "pitch": 48, "duration": 20, "velocity": 73}, {"time": 2557, "pitch": 55, "duration": 20, "velocity": 72}, {"time": 2557, "pitch": 60, "duration": 20, "velocity": 72}, {"time": 2557, "pitch": 64, "duration": 12, "velocity": 75}, {"time": 2557, "pitch": 67, "duration": 12, "velocity": 82}, {"time": 2557, "pitch": 72, "duration": 13, "velocity": 83}, {"time": 2581, "pitch": 50, "duration": 20, "velocity": 86}, {"time": 2581, "pitch": 65, "duration": 7, "velocity": 80}, {"time": 2581, "pitch": 69, "duration": 6, "velocity": 81}, {"time": 2584, "pitch": 57, "duration": 41, "velocity": 72}, {"time": 2587, "pitch": 62, "duration": 16, "velocity": 79}, {"time": 2590, "pitch": 64, "duration": 3, "velocity": 79}, {"time": 2593, "pitch": 65, "duration": 4, "velocity": 79}, {"time": 2596, "pitch": 69, "duration": 3, "velocity": 59}, {"time": 2599, "pitch": 72, "duration": 4, "velocity": 80}, {"time": 2602, "pitch": 74, "duration": 2, "velocity": 75}, {"time": 2605, "pitch": 50, "duration": 19, "velocity": 79}, {"time": 2605, "pitch": 62, "duration": 7, "velocity": 63}, {"time": 2605, "pitch": 69, "duration": 4, "velocity": 62}, {"time": 2605, "pitch": 77, "duration": 6, "velocity": 86}, {"time": 2611, "pitch": 67, "duration": 2, "velocity": 78}, {"time": 2611, "pitch": 76, "duration": 2, "velocity": 80}, {"time": 2614, "pitch": 62, "duration": 5, "velocity": 35}, {"time": 2617, "pitch": 65, "duration": 2, "velocity": 76}, {"time": 2617, "pitch": 74, "duration": 2, "velocity": 84}, {"time": 2620, "pitch": 62, "duration": 5, "velocity": 24}, {"time": 2623, "pitch": 64, "duration": 2, "velocity": 68}, {"time": 2623, "pitch": 72, "duration": 2, "velocity": 91}, {"time": 2629, "pitch": 50, "duration": 18, "velocity": 69}, {"time": 2629, "pitch": 69, "duration": 6, "velocity": 73}, {"time": 2632, "pitch": 57, "duration": 16, "velocity": 68}, {"time": 2635, "pitch": 62, "duration": 11, "velocity": 62}, {"time": 2638, "pitch": 64, "duration": 5, "velocity": 62}, {"time": 2641, "pitch": 65, "duration": 4, "velocity": 75}, {"time": 2644, "pitch": 69, "duration": 3, "velocity": 71}, {"time": 2647, "pitch": 72, "duration": 4, "velocity": 78}, {"time": 2650, "pitch": 74, "duration": 1, "velocity": 78}, {"time": 2653, "pitch": 46, "duration": 18, "velocity": 74}, {"time": 2656, "pitch": 53, "duration": 15, "velocity": 60}, {"time": 2659, "pitch": 58, "duration": 7, "velocity": 54}, {"time": 2662, "pitch": 62, "duration": 4, "velocity": 61}, {"time": 2665, "pitch": 65, "duration": 4, "velocity": 84}, {"time": 2668, "pitch": 58, "duration": 4, "velocity": 61}, {"time": 2671, "pitch": 67, "duration": 3, "velocity": 75}, {"time": 2674, "pitch": 69, "duration": 4, "velocity": 73}, {"time": 2677, "pitch": 53, "duration": 19, "velocity": 79}, {"time": 2677, "pitch": 69, "duration": 1, "velocity": 81}, {"time": 2680, "pitch": 57, "duration": 7, "velocity": 73}, {"time": 2683, "pitch": 60, "duration": 5, "velocity": 82}, {"time": 2686, "pitch": 67, "duration": 6, "velocity": 82}, {"time": 2689, "pitch": 57, "duration": 7, "velocity": 57}, {"time": 2692, "pitch": 65, "duration": 3, "velocity": 83}, {"time": 2695, "pitch": 60, "duration": 3, "velocity": 63}, {"time": 2698, "pitch": 67, "duration": 3, "velocity": 76}, {"time": 2701, "pitch": 45, "duration": 19, "velocity": 74}, {"time": 2701, "pitch": 60, "duration": 6, "velocity": 68}, {"time": 2701, "pitch": 64, "duration": 7, "velocity": 76}, {"time": 2701, "pitch": 67, "duration": 6, "velocity": 72}, {"time": 2704, "pitch": 52, "duration": 17, "velocity": 72}, {"time": 2707, "pitch": 57, "duration": 17, "velocity": 69}, {"time": 2710, "pitch": 60, "duration": 3, "velocity": 73}, {"time": 2713, "pitch": 64, "duration": 4, "velocity": 74}, {"time": 2716, "pitch": 67, "duration": 3, "velocity": 71}, {"time": 2719, "pitch": 69, "duration": 2, "velocity": 71}, {"time": 2722, "pitch": 72, "duration": 3, "velocity": 83}, {"time": 2725, "pitch": 50, "duration": 19, "velocity": 78}, {"time": 2725, "pitch": 74, "duration": 5, "velocity": 78}, {"time": 2728, "pitch": 57, "duration": 12, "velocity": 72}, {"time": 2731, "pitch": 62, "duration": 11, "velocity": 73}, {"time": 2734, "pitch": 69, "duration": 4, "velocity": 69}, {"time": 2737, "pitch": 65, "duration": 3, "velocity": 75}, {"time": 2740, "pitch": 64, "duration": 4, "velocity": 72}, {"time": 2740, "pitch": 67, "duration": 3, "velocity": 77}, {"time": 2743, "pitch": 57, "duration": 2, "velocity": 79}, {"time": 2743, "pitch": 69, "duration": 3, "velocity": 79}, {"time": 2746, "pitch": 72, "duration": 2, "velocity": 77}, {"time": 2749, "pitch": 43, "duration": 3, "velocity": 78}, {"time": 2749, "pitch": 62, "duration": 10, "velocity": 78}, {"time": 2749, "pitch": 70, "duration": 9, "velocity": 83}, {"time": 2752, "pitch": 55, "duration": 4, "velocity": 57}, {"time": 2755, "pitch": 57, "duration": 12, "velocity": 68}, {"time": 2758, "pitch": 58, "duration": 9, "velocity": 76}, {"time": 2761, "pitch": 62, "duration": 4, "velocity": 80}, {"time": 2764, "pitch": 65, "duration": 4, "velocity": 83}, {"time": 2770, "pitch": 72, "duration": 3, "velocity": 86}, {"time": 2773, "pitch": 48, "duration": 20, "velocity": 73}, {"time": 2773, "pitch": 55, "duration": 20, "velocity": 72}, {"time": 2773, "pitch": 60, "duration": 20, "velocity": 72}, {"time": 2773, "pitch": 64, "duration": 12, "velocity": 75}, {"time": 2773, "pitch": 67, "duration": 12, "velocity": 82}, {"time": 2773, "pitch": 72, "duration": 13, "velocity": 83}, {"time": 2797, "pitch": 50, "duration": 20, "velocity": 86}, {"time": 2797, "pitch": 65, "duration": 7, "velocity": 80}, {"time": 2797, "pitch": 69, "duration": 6, "velocity": 81}, {"time": 2800, "pitch": 57, "duration": 41, "velocity": 72}, {"time": 2803, "pitch": 62, "duration": 16, "velocity": 79}, {"time": 2806, "pitch": 64, "duration": 3, "velocity": 79}, {"time": 2809, "pitch": 65, "duration": 4, "velocity": 79}, {"time": 2812, "pitch": 69, "duration": 3, "velocity": 59}, {"time": 2815, "pitch": 72, "duration": 4, "velocity": 80}, {"time": 2818, "pitch": 74, "duration": 2, "velocity": 75}, {"time": 2821, "pitch": 50, "duration": 19, "velocity": 79}, {"time": 2821, "pitch": 62, "duration": 7, "velocity": 63}, {"time": 2821, "pitch": 69, "duration": 4, "velocity": 62}, {"time": 2821, "pitch": 77, "duration": 6, "velocity": 86}, {"time": 2827, "pitch": 67, "duration": 2, "velocity": 78}, {"time": 2827, "pitch": 76, "duration": 2, "velocity": 80}, {"time": 2830, "pitch": 62, "duration": 5, "velocity": 35}, {"time": 2833, "pitch": 65, "duration": 2, "velocity": 76}, {"time": 2833, "pitch": 74, "duration": 2, "velocity": 84}, {"time": 2836, "pitch": 62, "duration": 5, "velocity": 24}, {"time": 2839, "pitch": 64, "duration": 2, "velocity": 68}, {"time": 2839, "pitch": 72, "duration": 2, "velocity": 91}, {"time": 2845, "pitch": 50, "duration": 43, "velocity": 71}, {"time": 2845, "pitch": 57, "duration": 38, "velocity": 71}, {"time": 2845, "pitch": 65, "duration": 7, "velocity": 83}, {"time": 2845, "pitch": 69, "duration": 8, "velocity": 78}, {"time": 2857, "pitch": 65, "duration": 8, "velocity": 68}, {"time": 2857, "pitch": 69, "duration": 8, "velocity": 67}, {"time": 2866, "pitch": 62, "duration": 8, "velocity": 42}, {"time": 2869, "pitch": 65, "duration": 9, "velocity": 68}, {"time": 2869, "pitch": 69, "duration": 9, "velocity": 68}, {"time": 2878, "pitch": 62, "duration": 6, "velocity": 24}, {"time": 2881, "pitch": 64, "duration": 6, "velocity": 71}, {"time": 2881, "pitch": 65, "duration": 6, "velocity": 75}, {"time": 2881, "pitch": 69, "duration": 6, "velocity": 71}, {"time": 2893, "pitch": 45, "duration": 21, "velocity": 76}, {"time": 2893, "pitch": 60, "duration": 7, "velocity": 67}, {"time": 2893, "pitch": 64, "duration": 7, "velocity": 71}, {"time": 2893, "pitch": 67, "duration": 7, "velocity": 76}, {"time": 2899, "pitch": 52, "duration": 11, "velocity": 68}, {"time": 2902, "pitch": 57, "duration": 11, "velocity": 50}, {"time": 2905, "pitch": 60, "duration": 4, "velocity": 62}, {"time": 2908, "pitch": 64, "duration": 4, "velocity": 71}, {"time": 2911, "pitch": 67, "duration": 14, "velocity": 63}, {"time": 2914, "pitch": 52, "duration": 4, "velocity": 73}, {"time": 2917, "pitch": 45, "duration": 2, "velocity": 74}, {"time": 2917, "pitch": 57, "duration": 2, "velocity": 59}, {"time": 2920, "pitch": 45, "duration": 18, "velocity": 75}, {"time": 2920, "pitch": 57, "duration": 2, "velocity": 41}, {"time": 2926, "pitch": 57, "duration": 4, "velocity": 43}, {"time": 2929, "pitch": 60, "duration": 5, "velocity": 67}, {"time": 2929, "pitch": 67, "duration": 5, "velocity": 73}, {"time": 2932, "pitch": 57, "duration": 4, "velocity": 44}, {"time": 2935, "pitch": 64, "duration": 3, "velocity": 73}, {"time": 2938, "pitch": 57, "duration": 4, "velocity": 50}, {"time": 2941, "pitch": 46, "duration": 21, "velocity": 76}, {"time": 2941, "pitch": 58, "duration": 13, "velocity": 58}, {"time": 2941, "pitch": 62, "duration": 5, "velocity": 62}, {"time": 2941, "pitch": 65, "duration": 7, "velocity": 72}, {"time": 2941, "pitch": 69, "duration": 7, "velocity": 69}, {"time": 2950, "pitch": 62, "duration": 5, "velocity": 47}, {"time": 2953, "pitch": 65, "duration": 4, "velocity": 73}, {"time": 2953, "pitch": 69, "duration": 5, "velocity": 62}, {"time": 2956, "pitch": 58, "duration": 7, "velocity": 53}, {"time": 2959, "pitch": 62, "duration": 3, "velocity": 57}, {"time": 2962, "pitch": 67, "duration": 11, "velocity": 73}, {"time": 2965, "pitch": 46, "duration": 3, "velocity": 81}, {"time": 2968, "pitch": 46, "duration": 17, "velocity": 84}, {"time": 2971, "pitch": 58, "duration": 8, "velocity": 68}, {"time": 2974, "pitch": 62, "duration": 2, "velocity": 48}, {"time": 2977, "pitch": 62, "duration": 7, "velocity": 15}, {"time": 2977, "pitch": 65, "duration": 8, "velocity": 79}, {"time": 2983, "pitch": 58, "duration": 2, "velocity": 63}, {"time": 2989, "pitch": 53, "duration": 20, "velocity": 58}, {"time": 2989, "pitch": 60, "duration": 3, "velocity": 71}, {"time": 2989, "pitch": 65, "duration": 3, "velocity": 63}, {"time": 2989, "pitch": 69, "duration": 4, "velocity": 73}, {"time": 2992, "pitch": 57, "duration": 6, "velocity": 54}, {"time": 2995, "pitch": 60, "duration": 10, "velocity": 63}, {"time": 2998, "pitch": 67, "duration": 7, "velocity": 77}, {"time": 3004, "pitch": 57, "duration": 5, "velocity": 69}, {"time": 3007, "pitch": 60, "duration": 4, "velocity": 60}, {"time": 3010, "pitch": 65, "duration": 13, "velocity": 75}, {"time": 3013, "pitch": 53, "duration": 2, "velocity": 69}, {"time": 3016, "pitch": 53, "duration": 17, "velocity": 72}, {"time": 3022, "pitch": 57, "duration": 7, "velocity": 54}, {"time": 3025, "pitch": 60, "duration": 7, "velocity": 60}, {"time": 3028, "pitch": 65, "duration": 4, "velocity": 80}, {"time": 3031, "pitch": 57, "duration": 2, "velocity": 71}, {"time": 3031, "pitch": 67, "duration": 3, "velocity": 76}, {"time": 3034, "pitch": 69, "duration": 4, "velocity": 60}, {"time": 3037, "pitch": 41, "duration": 21, "velocity": 81}, {"time": 3037, "pitch": 57, "duration": 7, "velocity": 71}, {"time": 3037, "pitch": 65, "duration": 6, "velocity": 79}, {"time": 3040, "pitch": 48, "duration": 11, "velocity": 71}, {"time": 3043, "pitch": 53, "duration": 15, "velocity": 59}, {"time": 3046, "pitch": 57, "duration": 12, "velocity": 49}, {"time": 3049, "pitch": 60, "duration": 10, "velocity": 69}, {"time": 3055, "pitch": 65, "duration": 4, "velocity": 72}, {"time": 3058, "pitch": 48, "duration": 3, "velocity": 78}, {"time": 3061, "pitch": 41, "duration": 2, "velocity": 73}, {"time": 3061, "pitch": 53, "duration": 2, "velocity": 53}, {"time": 3064, "pitch": 41, "duration": 16, "velocity": 79}, {"time": 3064, "pitch": 53, "duration": 7, "velocity": 72}, {"time": 3070, "pitch": 57, "duration": 5, "velocity": 51}, {"time": 3070, "pitch": 65, "duration": 10, "velocity": 40}, {"time": 3073, "pitch": 53, "duration": 8, "velocity": 59}, {"time": 3076, "pitch": 57, "duration": 4, "velocity": 61}, {"time": 3079, "pitch": 62, "duration": 3, "velocity": 81}, {"time": 3082, "pitch": 64, "duration": 3, "velocity": 79}, {"time": 3085, "pitch": 50, "duration": 19, "velocity": 68}, {"time": 3085, "pitch": 62, "duration": 3, "velocity": 72}, {"time": 3085, "pitch": 65, "duration": 5, "velocity": 78}, {"time": 3088, "pitch": 57, "duration": 19, "velocity": 44}, {"time": 3091, "pitch": 62, "duration": 7, "velocity": 58}, {"time": 3094, "pitch": 64, "duration": 4, "velocity": 57}, {"time": 3097, "pitch": 65, "duration": 3, "velocity": 72}, {"time": 3100, "pitch": 64, "duration": 5, "velocity": 59}, {"time": 3103, "pitch": 69, "duration": 3, "velocity": 62}, {"time": 3106, "pitch": 72, "duration": 11, "velocity": 76}, {"time": 3109, "pitch": 50, "duration": 19, "velocity": 17}, {"time": 3112, "pitch": 57, "duration": 16, "velocity": 61}, {"time": 3115, "pitch": 62, "duration": 7, "velocity": 55}, {"time": 3118, "pitch": 64, "duration": 4, "velocity": 61}, {"time": 3121, "pitch": 65, "duration": 4, "velocity": 72}, {"time": 3124, "pitch": 67, "duration": 3, "velocity": 73}, {"time": 3127, "pitch": 69, "duration": 3, "velocity": 68}, {"time": 3130, "pitch": 72, "duration": 2, "velocity": 69}, {"time": 3133, "pitch": 50, "duration": 43, "velocity": 71}, {"time": 3133, "pitch": 57, "duration": 38, "velocity": 71}, {"time": 3133, "pitch": 65, "duration": 7, "velocity": 83}, {"time": 3133, "pitch": 69, "duration": 8, "velocity": 78}, {"time": 3145, "pitch": 65, "duration": 8, "velocity": 68}, {"time": 3145, "pitch": 69, "duration": 8, "velocity": 67}, {"time": 3154, "pitch": 62, "duration": 8, "velocity": 42}, {"time": 3157, "pitch": 65, "duration": 9, "velocity": 68}, {"time": 3157, "pitch": 69, "duration": 9, "velocity": 68}, {"time": 3166, "pitch": 62, "duration": 6, "velocity": 24}, {"time": 3169, "pitch": 64, "duration": 6, "velocity": 71}, {"time": 3169, "pitch": 65, "duration": 6, "velocity": 75}, {"time": 3169, "pitch": 69, "duration": 6, "velocity": 71}, {"time": 3181, "pitch": 45, "duration": 21, "velocity": 76}, {"time": 3181, "pitch": 60, "duration": 7, "velocity": 67}, {"time": 3181, "pitch": 64, "duration": 7, "velocity": 71}, {"time": 3181, "pitch": 67, "duration": 7, "velocity": 76}, {"time": 3187, "pitch": 52, "duration": 11, "velocity": 68}, {"time": 3190, "pitch": 57, "duration": 11, "velocity": 50}, {"time": 3193, "pitch": 60, "duration": 4, "velocity": 62}, {"time": 3196, "pitch": 64, "duration": 4, "velocity": 71}, {"time": 3199, "pitch": 67, "duration": 14, "velocity": 63}, {"time": 3202, "pitch": 52, "duration": 4, "velocity": 73}, {"time": 3205, "pitch": 45, "duration": 2, "velocity": 74}, {"time": 3205, "pitch": 57, "duration": 2, "velocity": 59}, {"time": 3208, "pitch": 45, "duration": 18, "velocity": 75}, {"time": 3208, "pitch": 57, "duration": 2, "velocity": 41}, {"time": 3214, "pitch": 57, "duration": 4, "velocity": 43}, {"time": 3217, "pitch": 60, "duration": 5, "velocity": 67}, {"time": 3217, "pitch": 67, "duration": 5, "velocity": 73}, {"time": 3220, "pitch": 57, "duration": 4, "velocity": 44}, {"time": 3223, "pitch": 64, "duration": 3, "velocity": 73}, {"time": 3226, "pitch": 57, "duration": 4, "velocity": 50}, {"time": 3229, "pitch": 46, "duration": 21, "velocity": 76}, {"time": 3229, "pitch": 58, "duration": 13, "velocity": 58}, {"time": 3229, "pitch": 62, "duration": 5, "velocity": 62}, {"time": 3229, "pitch": 65, "duration": 7, "velocity": 72}, {"time": 3229, "pitch": 69, "duration": 7, "velocity": 69}, {"time": 3238, "pitch": 62, "duration": 5, "velocity": 47}, {"time": 3241, "pitch": 65, "duration": 4, "velocity": 73}, {"time": 3241, "pitch": 69, "duration": 5, "velocity": 62}, {"time": 3244, "pitch": 58, "duration": 7, "velocity": 53}, {"time": 3247, "pitch": 62, "duration": 3, "velocity": 57}, {"time": 3250, "pitch": 67, "duration": 11, "velocity": 73}, {"time": 3253, "pitch": 46, "duration": 3, "velocity": 81}, {"time": 3256, "pitch": 46, "duration": 17, "velocity": 84}, {"time": 3259, "pitch": 58, "duration": 8, "velocity": 68}, {"time": 3262, "pitch": 62, "duration": 2, "velocity": 48}, {"time": 3265, "pitch": 62, "duration": 7, "velocity": 15}, {"time": 3265, "pitch": 65, "duration": 8, "velocity": 79}, {"time": 3271, "pitch": 58, "duration": 2, "velocity": 63}, {"time": 3277, "pitch": 50, "duration": 61, "velocity": 42}, {"time": 3277, "pitch": 57, "duration": 60, "velocity": 53}, {"time": 3277, "pitch": 62, "duration": 34, "velocity": 43}, {"time": 3277, "pitch": 65, "duration": 40, "velocity": 71}, {"time": 3277, "pitch": 69, "duration": 41, "velocity": 68}, {"time": 3325, "pitch": 62, "duration": 12, "velocity": 12}, {"time": 3325, "pitch": 74, "duration": 11, "velocity": 46}, {"time": 3325, "pitch": 77, "duration": 10, "velocity": 51}, {"time": 3328, "pitch": 81, "duration": 9, "velocity": 61}, {"time": 3328, "pitch": 86, "duration": 9, "velocity": 27}], "annotations": [{"time": 14, "annotation": {"number": 64, "value": 127}, "group": "control_change"}, {"time": 56, "annotation": {"number": 64, "value": 0}, "group": "control_change"}, {"time": 63, "annotation": {"number": 64, "value": 127}, "group": "control_change"}, {"time": 108, "annotation": {"number": 64, "value": 0}, "group": "control_change"}, {"time": 109, "annotation": {"number": 64, "value": 127}, "group": "control_change"}, {"time": 110, "annotation": {"number": 64, "value": 127}, "group": "control_change"}, {"time": 110, "annotation": {"number": 64, "value": 0}, "group": "control_change"}, {"time": 158, "annotation": {"number": 64, "value": 0}, "group": "control_change"}, {"time": 160, "annotation": {"number": 64, "value": 127}, "group": "control_change"}, {"time": 206, "annotation": {"number": 64, "value": 0}, "group": "control_change"}, {"time": 209, "annotation": {"number": 64, "value": 127}, "group": "control_change"}, {"time": 229, "annotation": {"number": 64, "value": 0}, "group": "control_change"}, {"time": 232, "annotation": {"number": 64, "value": 127}, "group": "control_change"}, {"time": 277, "annotation": {"number": 64, "value": 0}, "group": "control_change"}, {"time": 280, "annotation": {"number": 64, "value": 127}, "group": "control_change"}, {"time": 325, "annotation": {"number": 64, "value": 0}, "group": "control_change"}, {"time": 328, "annotation": {"number": 64, "value": 127}, "group": "control_change"}, {"time": 373, "annotation": {"number": 64, "value": 0}, "group": "control_change"}, {"time": 374, "annotation": {"number": 64, "value": 127}, "group": "control_change"}, {"time": 374, "annotation": {"number": 64, "value": 0}, "group": "control_change"}, {"time": 397, "annotation": {"number": 64, "value": 0}, "group": "control_change"}, {"time": 401, "annotation": {"number": 64, "value": 127}, "group": "control_change"}, {"time": 401, "annotation": {"number": 64, "value": 0}, "group": "control_change"}, {"time": 470, "annotation": {"number": 64, "value": 0}, "group": "control_change"}, {"time": 474, "annotation": {"number": 64, "value": 127}, "group": "control_change"}, {"time": 474, "annotation": {"number": 64, "value": 0}, "group": "control_change"}, {"time": 518, "annotation": {"number": 64, "value": 0}, "group": "control_change"}, {"time": 518, "annotation": {"number": 64, "value": 127}, "group": "control_change"}, {"time": 565, "annotation": {"number": 64, "value": 0}, "group": "control_change"}, {"time": 566, "annotation": {"number": 64, "value": 127}, "group": "control_change"}, {"time": 566, "annotation": {"number": 64, "value": 0}, "group": "control_change"}, {"time": 567, "annotation": {"number": 64, "value": 127}, "group": "control_change"}, {"time": 575, "annotation": {"number": 64, "value": 0}, "group": "control_change"}, {"time": 613, "annotation": {"number": 64, "value": 0}, "group": "control_change"}, {"time": 614, "annotation": {"number": 64, "value": 127}, "group": "control_change"}, {"time": 639, "annotation": {"number": 64, "value": 0}, "group": "control_change"}, {"time": 642, "annotation": {"number": 64, "value": 127}, "group": "control_change"}, {"time": 661, "annotation": {"number": 64, "value": 0}, "group": "control_change"}, {"time": 664, "annotation": {"number": 64, "value": 127}, "group": "control_change"}, {"time": 697, "annotation": {"number": 64, "value": 0}, "group": "control_change"}, {"time": 714, "annotation": {"number": 64, "value": 127}, "group": "control_change"}, {"time": 758, "annotation": {"number": 64, "value": 0}, "group": "control_change"}, {"time": 761, "annotation": {"number": 64, "value": 127}, "group": "control_change"}, {"time": 782, "annotation": {"number": 64, "value": 0}, "group": "control_change"}, {"time": 786, "annotation": {"number": 64, "value": 127}, "group": "control_change"}, {"time": 805, "annotation": {"number": 64, "value": 0}, "group": "control_change"}, {"time": 809, "annotation": {"number": 64, "value": 127}, "group": "control_change"}, {"time": 829, "annotation": {"number": 64, "value": 0}, "group": "control_change"}, {"time": 831, "annotation": {"number": 64, "value": 127}, "group": "control_change"}, {"time": 853, "annotation": {"number": 64, "value": 0}, "group": "control_change"}, {"time": 857, "annotation": {"number": 64, "value": 127}, "group": "control_change"}, {"time": 876, "annotation": {"number": 64, "value": 0}, "group": "control_change"}, {"time": 879, "annotation": {"number": 64, "value": 127}, "group": "control_change"}, {"time": 904, "annotation": {"number": 64, "value": 0}, "group": "control_change"}, {"time": 910, "annotation": {"number": 64, "value": 127}, "group": "control_change"}, {"time": 925, "annotation": {"number": 64, "value": 0}, "group": "control_change"}, {"time": 927, "annotation": {"number": 64, "value": 127}, "group": "control_change"}, {"time": 950, "annotation": {"number": 64, "value": 0}, "group": "control_change"}, {"time": 953, "annotation": {"number": 64, "value": 127}, "group": "control_change"}, {"time": 973, "annotation": {"number": 64, "value": 0}, "group": "control_change"}, {"time": 974, "annotation": {"number": 64, "value": 127}, "group": "control_change"}, {"time": 998, "annotation": {"number": 64, "value": 0}, "group": "control_change"}, {"time": 1002, "annotation": {"number": 64, "value": 127}, "group": "control_change"}, {"time": 1022, "annotation": {"number": 64, "value": 0}, "group": "control_change"}, {"time": 1027, "annotation": {"number": 64, "value": 127}, "group": "control_change"}, {"time": 1047, "annotation": {"number": 64, "value": 0}, "group": "control_change"}, {"time": 1047, "annotation": {"number": 64, "value": 127}, "group": "control_change"}, {"time": 1050, "annotation": {"number": 64, "value": 127}, "group": "control_change"}, {"time": 1058, "annotation": {"number": 64, "value": 0}, "group": "control_change"}, {"time": 1061, "annotation": {"number": 64, "value": 127}, "group": "control_change"}, {"time": 1070, "annotation": {"number": 64, "value": 0}, "group": "control_change"}, {"time": 1074, "annotation": {"number": 64, "value": 127}, "group": "control_change"}, {"time": 1099, "annotation": {"number": 64, "value": 127}, "group": "control_change"}, {"time": 1105, "annotation": {"number": 64, "value": 0}, "group": "control_change"}, {"time": 1119, "annotation": {"number": 64, "value": 0}, "group": "control_change"}, {"time": 1122, "annotation": {"number": 64, "value": 127}, "group": "control_change"}, {"time": 1142, "annotation": {"number": 64, "value": 0}, "group": "control_change"}, {"time": 1145, "annotation": {"number": 64, "value": 127}, "group": "control_change"}, {"time": 1167, "annotation": {"number": 64, "value": 0}, "group": "control_change"}, {"time": 1170, "annotation": {"number": 64, "value": 127}, "group": "control_change"}, {"time": 1190, "annotation": {"number": 64, "value": 0}, "group": "control_change"}, {"time": 1194, "annotation": {"number": 64, "value": 127}, "group": "control_change"}, {"time": 1214, "annotation": {"number": 64, "value": 0}, "group": "control_change"}, {"time": 1219, "annotation": {"number": 64, "value": 127}, "group": "control_change"}, {"time": 1238, "annotation": {"number": 64, "value": 0}, "group": "control_change"}, {"time": 1238, "annotation": {"number": 64, "value": 127}, "group": "control_change"}, {"time": 1240, "annotation": {"number": 64, "value": 127}, "group": "control_change"}, {"time": 1262, "annotation": {"number": 64, "value": 0}, "group": "control_change"}, {"time": 1263, "annotation": {"number": 64, "value": 127}, "group": "control_change"}, {"time": 1286, "annotation": {"number": 64, "value": 0}, "group": "control_change"}, {"time": 1289, "annotation": {"number": 64, "value": 127}, "group": "control_change"}, {"time": 1308, "annotation": {"number": 64, "value": 0}, "group": "control_change"}, {"time": 1311, "annotation": {"number": 64, "value": 127}, "group": "control_change"}, {"time": 1335, "annotation": {"number": 64, "value": 0}, "group": "control_change"}, {"time": 1337, "annotation": {"number": 64, "value": 127}, "group": "control_change"}, {"time": 1357, "annotation": {"number": 64, "value": 0}, "group": "control_change"}, {"time": 1359, "annotation": {"number": 64, "value": 127}, "group": "control_change"}, {"time": 1382, "annotation": {"number": 64, "value": 0}, "group": "control_change"}, {"time": 1385, "annotation": {"number": 64, "value": 127}, "group": "control_change"}, {"time": 1406, "annotation": {"number": 64, "value": 0}, "group": "control_change"}, {"time": 1409, "annotation": {"number": 64, "value": 127}, "group": "control_change"}, {"time": 1429, "annotation": {"number": 64, "value": 0}, "group": "control_change"}, {"time": 1430, "annotation": {"number": 64, "value": 127}, "group": "control_change"}, {"time": 1453, "annotation": {"number": 64, "value": 0}, "group": "control_change"}, {"time": 1454, "annotation": {"number": 64, "value": 127}, "group": "control_change"}, {"time": 1478, "annotation": {"number": 64, "value": 0}, "group": "control_change"}, {"time": 1481, "annotation": {"number": 64, "value": 127}, "group": "control_change"}, {"time": 1525, "annotation": {"number": 64, "value": 0}, "group": "control_change"}, {"time": 1526, "annotation": {"number": 64, "value": 127}, "group": "control_change"}, {"time": 1574, "annotation": {"number": 64, "value": 0}, "group": "control_change"}, {"time": 1577, "annotation": {"number": 64, "value": 127}, "group": "control_change"}, {"time": 1621, "annotation": {"number": 64, "value": 0}, "group": "control_change"}, {"time": 1622, "annotation": {"number": 64, "value": 127}, "group": "control_change"}, {"time": 1646, "annotation": {"number": 64, "value": 0}, "group": "control_change"}, {"time": 1648, "annotation": {"number": 64, "value": 127}, "group": "control_change"}, {"time": 1670, "annotation": {"number": 64, "value": 0}, "group": "control_change"}, {"time": 1672, "annotation": {"number": 64, "value": 127}, "group": "control_change"}, {"time": 1718, "annotation": {"number": 64, "value": 0}, "group": "control_change"}, {"time": 1718, "annotation": {"number": 64, "value": 127}, "group": "control_change"}, {"time": 1766, "annotation": {"number": 64, "value": 0}, "group": "control_change"}, {"time": 1768, "annotation": {"number": 64, "value": 127}, "group": "control_change"}, {"time": 1813, "annotation": {"number": 64, "value": 0}, "group": "control_change"}, {"time": 1818, "annotation": {"number": 64, "value": 127}, "group": "control_change"}, {"time": 1862, "annotation": {"number": 64, "value": 0}, "group": "control_change"}, {"time": 1865, "annotation": {"number": 64, "value": 127}, "group": "control_change"}, {"time": 1886, "annotation": {"number": 64, "value": 0}, "group": "control_change"}, {"time": 1890, "annotation": {"number": 64, "value": 127}, "group": "control_change"}, {"time": 1909, "annotation": {"number": 64, "value": 0}, "group": "control_change"}, {"time": 1913, "annotation": {"number": 64, "value": 127}, "group": "control_change"}, {"time": 1933, "annotation": {"number": 64, "value": 0}, "group": "control_change"}, {"time": 1935, "annotation": {"number": 64, "value": 127}, "group": "control_change"}, {"time": 1957, "annotation": {"number": 64, "value": 0}, "group": "control_change"}, {"time": 1961, "annotation": {"number": 64, "value": 127}, "group": "control_change"}, {"time": 1980, "annotation": {"number": 64, "value": 0}, "group": "control_change"}, {"time": 1983, "annotation": {"number": 64, "value": 127}, "group": "control_change"}, {"time": 2008, "annotation": {"number": 64, "value": 0}, "group": "control_change"}, {"time": 2014, "annotation": {"number": 64, "value": 127}, "group": "control_change"}, {"time": 2029, "annotation": {"number": 64, "value": 0}, "group": "control_change"}, {"time": 2031, "annotation": {"number": 64, "value": 127}, "group": "control_change"}, {"time": 2054, "annotation": {"number": 64, "value": 0}, "group": "control_change"}, {"time": 2057, "annotation": {"number": 64, "value": 127}, "group": "control_change"}, {"time": 2077, "annotation": {"number": 64, "value": 0}, "group": "control_change"}, {"time": 2078, "annotation": {"number": 64, "value": 127}, "group": "control_change"}, {"time": 2102, "annotation": {"number": 64, "value": 0}, "group": "control_change"}, {"time": 2106, "annotation": {"number": 64, "value": 127}, "group": "control_change"}, {"time": 2126, "annotation": {"number": 64, "value": 0}, "group": "control_change"}, {"time": 2131, "annotation": {"number": 64, "value": 127}, "group": "control_change"}, {"time": 2151, "annotation": {"number": 64, "value": 0}, "group": "control_change"}, {"time": 2151, "annotation": {"number": 64, "value": 127}, "group": "control_change"}, {"time": 2154, "annotation": {"number": 64, "value": 127}, "group": "control_change"}, {"time": 2162, "annotation": {"number": 64, "value": 0}, "group": "control_change"}, {"time": 2165, "annotation": {"number": 64, "value": 127}, "group": "control_change"}, {"time": 2174, "annotation": {"number": 64, "value": 0}, "group": "control_change"}, {"time": 2178, "annotation": {"number": 64, "value": 127}, "group": "control_change"}, {"time": 2203, "annotation": {"number": 64, "value": 127}, "group": "control_change"}, {"time": 2209, "annotation": {"number": 64, "value": 0}, "group": "control_change"}, {"time": 2223, "annotation": {"number": 64, "value": 0}, "group": "control_change"}, {"time": 2226, "annotation": {"number": 64, "value": 127}, "group": "control_change"}, {"time": 2246, "annotation": {"number": 64, "value": 0}, "group": "control_change"}, {"time": 2249, "annotation": {"number": 64, "value": 127}, "group": "control_change"}, {"time": 2271, "annotation": {"number": 64, "value": 0}, "group": "control_change"}, {"time": 2274, "annotation": {"number": 64, "value": 127}, "group": "control_change"}, {"time": 2294, "annotation": {"number": 64, "value": 0}, "group": "control_change"}, {"time": 2298, "annotation": {"number": 64, "value": 127}, "group": "control_change"}, {"time": 2318, "annotation": {"number": 64, "value": 0}, "group": "control_change"}, {"time": 2323, "annotation": {"number": 64, "value": 127}, "group": "control_change"}, {"time": 2342, "annotation": {"number": 64, "value": 0}, "group": "control_change"}, {"time": 2342, "annotation": {"number": 64, "value": 127}, "group": "control_change"}, {"time": 2344, "annotation": {"number": 64, "value": 127}, "group": "control_change"}, {"time": 2350, "annotation": {"number": 64, "value": 0}, "group": "control_change"}, {"time": 2366, "annotation": {"number": 64, "value": 0}, "group": "control_change"}, {"time": 2367, "annotation": {"number": 64, "value": 127}, "group": "control_change"}, {"time": 2390, "annotation": {"number": 64, "value": 0}, "group": "control_change"}, {"time": 2393, "annotation": {"number": 64, "value": 127}, "group": "control_change"}, {"time": 2412, "annotation": {"number": 64, "value": 0}, "group": "control_change"}, {"time": 2415, "annotation": {"number": 64, "value": 127}, "group": "control_change"}, {"time": 2439, "annotation": {"number": 64, "value": 0}, "group": "control_change"}, {"time": 2441, "annotation": {"number": 64, "value": 127}, "group": "control_change"}, {"time": 2461, "annotation": {"number": 64, "value": 0}, "group": "control_change"}, {"time": 2463, "annotation": {"number": 64, "value": 127}, "group": "control_change"}, {"time": 2486, "annotation": {"number": 64, "value": 0}, "group": "control_change"}, {"time": 2489, "annotation": {"number": 64, "value": 127}, "group": "control_change"}, {"time": 2510, "annotation": {"number": 64, "value": 0}, "group": "control_change"}, {"time": 2513, "annotation": {"number": 64, "value": 127}, "group": "control_change"}, {"time": 2533, "annotation": {"number": 64, "value": 0}, "group": "control_change"}, {"time": 2534, "annotation": {"number": 64, "value": 127}, "group": "control_change"}, {"time": 2557, "annotation": {"number": 64, "value": 0}, "group": "control_change"}, {"time": 2558, "annotation": {"number": 64, "value": 127}, "group": "control_change"}, {"time": 2582, "annotation": {"number": 64, "value": 0}, "group": "control_change"}, {"time": 2585, "annotation": {"number": 64, "value": 127}, "group": "control_change"}, {"time": 2629, "annotation": {"number": 64, "value": 0}, "group": "control_change"}, {"time": 2631, "annotation": {"number": 64, "value": 127}, "group": "control_change"}, {"time": 2655, "annotation": {"number": 64, "value": 0}, "group": "control_change"}, {"time": 2657, "annotation": {"number": 64, "value": 127}, "group": "control_change"}, {"time": 2677, "annotation": {"number": 64, "value": 0}, "group": "control_change"}, {"time": 2679, "annotation": {"number": 64, "value": 127}, "group": "control_change"}, {"time": 2702, "annotation": {"number": 64, "value": 0}, "group": "control_change"}, {"time": 2705, "annotation": {"number": 64, "value": 127}, "group": "control_change"}, {"time": 2726, "annotation": {"number": 64, "value": 0}, "group": "control_change"}, {"time": 2729, "annotation": {"number": 64, "value": 127}, "group": "control_change"}, {"time": 2749, "annotation": {"number": 64, "value": 0}, "group": "control_change"}, {"time": 2750, "annotation": {"number": 64, "value": 127}, "group": "control_change"}, {"time": 2773, "annotation": {"number": 64, "value": 0}, "group": "control_change"}, {"time": 2774, "annotation": {"number": 64, "value": 127}, "group": "control_change"}, {"time": 2798, "annotation": {"number": 64, "value": 0}, "group": "control_change"}, {"time": 2801, "annotation": {"number": 64, "value": 127}, "group": "control_change"}, {"time": 2845, "annotation": {"number": 64, "value": 0}, "group": "control_change"}, {"time": 2846, "annotation": {"number": 64, "value": 127}, "group": "control_change"}, {"time": 2894, "annotation": {"number": 64, "value": 0}, "group": "control_change"}, {"time": 2897, "annotation": {"number": 64, "value": 127}, "group": "control_change"}, {"time": 2941, "annotation": {"number": 64, "value": 0}, "group": "control_change"}, {"time": 2942, "annotation": {"number": 64, "value": 127}, "group": "control_change"}, {"time": 2966, "annotation": {"number": 64, "value": 0}, "group": "control_change"}, {"time": 2968, "annotation": {"number": 64, "value": 127}, "group": "control_change"}, {"time": 2990, "annotation": {"number": 64, "value": 0}, "group": "control_change"}, {"time": 2992, "annotation": {"number": 64, "value": 127}, "group": "control_change"}, {"time": 3038, "annotation": {"number": 64, "value": 0}, "group": "control_change"}, {"time": 3038, "annotation": {"number": 64, "value": 127}, "group": "control_change"}, {"time": 3086, "annotation": {"number": 64, "value": 0}, "group": "control_change"}, {"time": 3088, "annotation": {"number": 64, "value": 127}, "group": "control_change"}, {"time": 3133, "annotation": {"number": 64, "value": 0}, "group": "control_change"}, {"time": 3134, "annotation": {"number": 64, "value": 127}, "group": "control_change"}, {"time": 3182, "annotation": {"number": 64, "value": 0}, "group": "control_change"}, {"time": 3185, "annotation": {"number": 64, "value": 127}, "group": "control_change"}, {"time": 3229, "annotation": {"number": 64, "value": 0}, "group": "control_change"}, {"time": 3230, "annotation": {"number": 64, "value": 127}, "group": "control_change"}, {"time": 3254, "annotation": {"number": 64, "value": 0}, "group": "control_change"}, {"time": 3256, "annotation": {"number": 64, "value": 127}, "group": "control_change"}, {"time": 3277, "annotation": {"number": 64, "value": 0}, "group": "control_change"}, {"time": 3278, "annotation": {"number": 64, "value": 127}, "group": "control_change"}, {"time": 3347, "annotation": {"number": 64, "value": 0}, "group": "control_change"}]}]}