{"metadata": {"schema_version": "0.2", "title": "None", "source_filename": "227.mid", "source_format": "midi"}, "resolution": 12, "tempos": [{"time": 0, "qpm": 67.00002903334591}, {"time": 46, "qpm": 68.0000725334107}, {"time": 58, "qpm": 73.99998273333736}, {"time": 70, "qpm": 65.99999340000066}, {"time": 130, "qpm": 69.99998833333528}, {"time": 142, "qpm": 67.00002903334591}, {"time": 154, "qpm": 68.0000725334107}, {"time": 202, "qpm": 67.00002903334591}, {"time": 250, "qpm": 65.99999340000066}, {"time": 262, "qpm": 64.0}, {"time": 274, "qpm": 67.00002903334591}, {"time": 346, "qpm": 65.99999340000066}, {"time": 358, "qpm": 67.00002903334591}, {"time": 382, "qpm": 64.0}, {"time": 406, "qpm": 67.00002903334591}, {"time": 418, "qpm": 75.0}, {"time": 430, "qpm": 67.00002903334591}, {"time": 550, "qpm": 65.99999340000066}, {"time": 574, "qpm": 64.99999458333379}, {"time": 598, "qpm": 69.99998833333528}, {"time": 610, "qpm": 67.00002903334591}, {"time": 646, "qpm": 71.00003550001774}, {"time": 658, "qpm": 67.00002903334591}, {"time": 670, "qpm": 64.99999458333379}, {"time": 682, "qpm": 67.00002903334591}, {"time": 706, "qpm": 69.99998833333528}, {"time": 718, "qpm": 65.99999340000066}, {"time": 730, "qpm": 67.00002903334591}, {"time": 766, "qpm": 64.99999458333379}, {"time": 790, "qpm": 67.00002903334591}, {"time": 802, "qpm": 68.0000725334107}, {"time": 850, "qpm": 61.99999586666694}, {"time": 862, "qpm": 68.0000725334107}, {"time": 922, "qpm": 69.99998833333528}, {"time": 934, "qpm": 65.99999340000066}, {"time": 946, "qpm": 64.99999458333379}, {"time": 958, "qpm": 67.00002903334591}, {"time": 970, "qpm": 64.99999458333379}, {"time": 982, "qpm": 69.00009660013524}, {"time": 994, "qpm": 65.99999340000066}, {"time": 1006, "qpm": 67.00002903334591}, {"time": 1018, "qpm": 64.99999458333379}, {"time": 1030, "qpm": 67.00002903334591}, {"time": 1054, "qpm": 69.00009660013524}, {"time": 1066, "qpm": 67.00002903334591}, {"time": 1138, "qpm": 64.0}, {"time": 1150, "qpm": 67.00002903334591}, {"time": 1198, "qpm": 71.00003550001774}, {"time": 1210, "qpm": 67.00002903334591}, {"time": 1246, "qpm": 64.99999458333379}, {"time": 1258, "qpm": 67.00002903334591}, {"time": 1342, "qpm": 68.0000725334107}, {"time": 1366, "qpm": 67.00002903334591}, {"time": 1558, "qpm": 64.0}, {"time": 1570, "qpm": 69.99998833333528}, {"time": 1582, "qpm": 67.00002903334591}, {"time": 1618, "qpm": 64.99999458333379}, {"time": 1630, "qpm": 67.00002903334591}, {"time": 1714, "qpm": 69.00009660013524}, {"time": 1726, "qpm": 67.00002903334591}, {"time": 1786, "qpm": 64.0}, {"time": 1798, "qpm": 67.00002903334591}, {"time": 1822, "qpm": 71.00003550001774}, {"time": 1834, "qpm": 64.99999458333379}, {"time": 1846, "qpm": 67.00002903334591}, {"time": 1942, "qpm": 71.00003550001774}, {"time": 1948, "qpm": 64.0}, {"time": 1954, "qpm": 64.99999458333379}, {"time": 1966, "qpm": 67.00002903334591}, {"time": 1990, "qpm": 69.99998833333528}, {"time": 2002, "qpm": 67.00002903334591}, {"time": 2110, "qpm": 64.99999458333379}, {"time": 2122, "qpm": 69.00009660013524}, {"time": 2134, "qpm": 67.00002903334591}, {"time": 2350, "qpm": 65.99999340000066}, {"time": 2374, "qpm": 64.99999458333379}, {"time": 2386, "qpm": 64.0}, {"time": 2398, "qpm": 73.99998273333736}, {"time": 2422, "qpm": 64.99999458333379}, {"time": 2470, "qpm": 67.00002903334591}, {"time": 2554, "qpm": 71.00003550001774}, {"time": 2566, "qpm": 67.00002903334591}, {"time": 2998, "qpm": 69.00009660013524}, {"time": 3022, "qpm": 65.99999340000066}, {"time": 3046, "qpm": 67.00002903334591}, {"time": 3082, "qpm": 64.0}, {"time": 3094, "qpm": 67.00002903334591}, {"time": 3202, "qpm": 69.99998833333528}, {"time": 3238, "qpm": 72.00002880001152}, {"time": 3250, "qpm": 64.0}, {"time": 3274, "qpm": 72.99998296667064}, {"time": 3286, "qpm": 68.0000725334107}, {"time": 3322, "qpm": 71.00003550001774}, {"time": 3346, "qpm": 65.99999340000066}, {"time": 3358, "qpm": 71.00003550001774}, {"time": 3382, "qpm": 68.0000725334107}], "key_signatures": [{"time": 0, "root": 0, "mode": "major"}], "time_signatures": [{"time": 0, "numerator": 4, "denominator": 4}], "tracks": [{"program": 0, "is_drum": false, "name": "MELODY", "notes": [{"time": 22, "pitch": 65, "duration": 5, "velocity": 81}, {"time": 28, "pitch": 65, "duration": 5, "velocity": 81}, {"time": 34, "pitch": 65, "duration": 5, "velocity": 80}, {"time": 40, "pitch": 61, "duration": 2, "velocity": 83}, {"time": 43, "pitch": 61, "duration": 2, "velocity": 84}, {"time": 46, "pitch": 65, "duration": 2, "velocity": 82}, {"time": 49, "pitch": 72, "duration": 5, "velocity": 86}, {"time": 55, "pitch": 70, "duration": 14, "velocity": 84}, {"time": 70, "pitch": 72, "duration": 8, "velocity": 94}, {"time": 79, "pitch": 67, "duration": 8, "velocity": 95}, {"time": 88, "pitch": 63, "duration": 11, "velocity": 86}, {"time": 100, "pitch": 68, "duration": 23, "velocity": 98}, {"time": 124, "pitch": 61, "duration": 2, "velocity": 90}, {"time": 126, "pitch": 61, "duration": 3, "velocity": 81}, {"time": 129, "pitch": 61, "duration": 4, "velocity": 84}, {"time": 133, "pitch": 61, "duration": 5, "velocity": 84}, {"time": 138, "pitch": 60, "duration": 3, "velocity": 83}, {"time": 142, "pitch": 58, "duration": 4, "velocity": 75}, {"time": 146, "pitch": 58, "duration": 4, "velocity": 72}, {"time": 150, "pitch": 58, "duration": 3, "velocity": 82}, {"time": 154, "pitch": 58, "duration": 5, "velocity": 76}, {"time": 160, "pitch": 63, "duration": 11, "velocity": 81}, {"time": 172, "pitch": 60, "duration": 35, "velocity": 82}, {"time": 208, "pitch": 63, "duration": 2, "velocity": 75}, {"time": 211, "pitch": 63, "duration": 2, "velocity": 83}, {"time": 214, "pitch": 65, "duration": 5, "velocity": 80}, {"time": 220, "pitch": 65, "duration": 5, "velocity": 84}, {"time": 226, "pitch": 65, "duration": 5, "velocity": 83}, {"time": 232, "pitch": 61, "duration": 5, "velocity": 90}, {"time": 238, "pitch": 65, "duration": 2, "velocity": 81}, {"time": 241, "pitch": 72, "duration": 5, "velocity": 80}, {"time": 247, "pitch": 70, "duration": 8, "velocity": 90}, {"time": 256, "pitch": 68, "duration": 2, "velocity": 84}, {"time": 259, "pitch": 70, "duration": 2, "velocity": 84}, {"time": 262, "pitch": 72, "duration": 5, "velocity": 81}, {"time": 268, "pitch": 67, "duration": 2, "velocity": 86}, {"time": 270, "pitch": 67, "duration": 3, "velocity": 82}, {"time": 274, "pitch": 67, "duration": 5, "velocity": 84}, {"time": 280, "pitch": 63, "duration": 2, "velocity": 79}, {"time": 283, "pitch": 68, "duration": 20, "velocity": 84}, {"time": 304, "pitch": 61, "duration": 2, "velocity": 84}, {"time": 307, "pitch": 60, "duration": 2, "velocity": 79}, {"time": 310, "pitch": 61, "duration": 5, "velocity": 84}, {"time": 316, "pitch": 61, "duration": 14, "velocity": 84}, {"time": 331, "pitch": 56, "duration": 2, "velocity": 83}, {"time": 334, "pitch": 58, "duration": 2, "velocity": 90}, {"time": 337, "pitch": 58, "duration": 8, "velocity": 90}, {"time": 346, "pitch": 56, "duration": 5, "velocity": 72}, {"time": 352, "pitch": 55, "duration": 5, "velocity": 82}, {"time": 358, "pitch": 56, "duration": 47, "velocity": 84}, {"time": 406, "pitch": 75, "duration": 5, "velocity": 78}, {"time": 412, "pitch": 72, "duration": 5, "velocity": 94}, {"time": 418, "pitch": 70, "duration": 5, "velocity": 86}, {"time": 424, "pitch": 68, "duration": 5, "velocity": 93}, {"time": 430, "pitch": 70, "duration": 5, "velocity": 90}, {"time": 436, "pitch": 70, "duration": 5, "velocity": 90}, {"time": 442, "pitch": 70, "duration": 4, "velocity": 90}, {"time": 446, "pitch": 70, "duration": 4, "velocity": 93}, {"time": 451, "pitch": 68, "duration": 3, "velocity": 83}, {"time": 454, "pitch": 68, "duration": 3, "velocity": 91}, {"time": 457, "pitch": 68, "duration": 38, "velocity": 84}, {"time": 496, "pitch": 68, "duration": 2, "velocity": 90}, {"time": 499, "pitch": 68, "duration": 2, "velocity": 83}, {"time": 502, "pitch": 73, "duration": 2, "velocity": 84}, {"time": 505, "pitch": 73, "duration": 14, "velocity": 84}, {"time": 520, "pitch": 73, "duration": 2, "velocity": 84}, {"time": 523, "pitch": 72, "duration": 2, "velocity": 79}, {"time": 526, "pitch": 70, "duration": 2, "velocity": 80}, {"time": 529, "pitch": 70, "duration": 14, "velocity": 83}, {"time": 544, "pitch": 68, "duration": 2, "velocity": 83}, {"time": 547, "pitch": 72, "duration": 44, "velocity": 76}, {"time": 592, "pitch": 63, "duration": 2, "velocity": 76}, {"time": 595, "pitch": 63, "duration": 2, "velocity": 71}, {"time": 598, "pitch": 75, "duration": 5, "velocity": 78}, {"time": 604, "pitch": 72, "duration": 5, "velocity": 75}, {"time": 610, "pitch": 70, "duration": 5, "velocity": 82}, {"time": 616, "pitch": 68, "duration": 5, "velocity": 83}, {"time": 622, "pitch": 70, "duration": 2, "velocity": 80}, {"time": 625, "pitch": 70, "duration": 17, "velocity": 84}, {"time": 643, "pitch": 68, "duration": 2, "velocity": 75}, {"time": 646, "pitch": 68, "duration": 2, "velocity": 83}, {"time": 649, "pitch": 68, "duration": 38, "velocity": 84}, {"time": 688, "pitch": 68, "duration": 5, "velocity": 95}, {"time": 694, "pitch": 73, "duration": 17, "velocity": 90}, {"time": 712, "pitch": 73, "duration": 2, "velocity": 86}, {"time": 715, "pitch": 72, "duration": 2, "velocity": 78}, {"time": 718, "pitch": 70, "duration": 5, "velocity": 78}, {"time": 724, "pitch": 70, "duration": 5, "velocity": 82}, {"time": 730, "pitch": 70, "duration": 4, "velocity": 84}, {"time": 734, "pitch": 68, "duration": 4, "velocity": 91}, {"time": 738, "pitch": 67, "duration": 6, "velocity": 79}, {"time": 745, "pitch": 68, "duration": 32, "velocity": 82}, {"time": 778, "pitch": 75, "duration": 2, "velocity": 86}, {"time": 781, "pitch": 75, "duration": 5, "velocity": 84}, {"time": 787, "pitch": 75, "duration": 2, "velocity": 80}, {"time": 790, "pitch": 77, "duration": 5, "velocity": 86}, {"time": 796, "pitch": 77, "duration": 5, "velocity": 91}, {"time": 802, "pitch": 77, "duration": 2, "velocity": 86}, {"time": 805, "pitch": 77, "duration": 2, "velocity": 86}, {"time": 808, "pitch": 77, "duration": 2, "velocity": 93}, {"time": 811, "pitch": 73, "duration": 2, "velocity": 81}, {"time": 814, "pitch": 77, "duration": 2, "velocity": 84}, {"time": 817, "pitch": 84, "duration": 5, "velocity": 86}, {"time": 823, "pitch": 82, "duration": 5, "velocity": 84}, {"time": 829, "pitch": 80, "duration": 2, "velocity": 93}, {"time": 832, "pitch": 80, "duration": 2, "velocity": 86}, {"time": 835, "pitch": 82, "duration": 2, "velocity": 84}, {"time": 838, "pitch": 84, "duration": 2, "velocity": 95}, {"time": 841, "pitch": 79, "duration": 5, "velocity": 84}, {"time": 847, "pitch": 79, "duration": 2, "velocity": 86}, {"time": 850, "pitch": 79, "duration": 5, "velocity": 86}, {"time": 856, "pitch": 75, "duration": 2, "velocity": 72}, {"time": 859, "pitch": 80, "duration": 32, "velocity": 68}, {"time": 892, "pitch": 73, "duration": 2, "velocity": 62}, {"time": 895, "pitch": 73, "duration": 2, "velocity": 76}, {"time": 898, "pitch": 73, "duration": 5, "velocity": 80}, {"time": 904, "pitch": 72, "duration": 2, "velocity": 86}, {"time": 907, "pitch": 70, "duration": 5, "velocity": 78}, {"time": 913, "pitch": 70, "duration": 5, "velocity": 77}, {"time": 919, "pitch": 70, "duration": 2, "velocity": 82}, {"time": 922, "pitch": 70, "duration": 5, "velocity": 82}, {"time": 928, "pitch": 68, "duration": 2, "velocity": 80}, {"time": 931, "pitch": 75, "duration": 5, "velocity": 80}, {"time": 937, "pitch": 72, "duration": 38, "velocity": 80}, {"time": 976, "pitch": 75, "duration": 2, "velocity": 81}, {"time": 979, "pitch": 75, "duration": 2, "velocity": 77}, {"time": 982, "pitch": 77, "duration": 5, "velocity": 84}, {"time": 988, "pitch": 77, "duration": 5, "velocity": 91}, {"time": 994, "pitch": 77, "duration": 2, "velocity": 83}, {"time": 997, "pitch": 77, "duration": 5, "velocity": 80}, {"time": 1003, "pitch": 73, "duration": 2, "velocity": 81}, {"time": 1006, "pitch": 77, "duration": 2, "velocity": 84}, {"time": 1009, "pitch": 84, "duration": 5, "velocity": 73}, {"time": 1015, "pitch": 82, "duration": 5, "velocity": 73}, {"time": 1021, "pitch": 80, "duration": 2, "velocity": 90}, {"time": 1024, "pitch": 80, "duration": 2, "velocity": 86}, {"time": 1027, "pitch": 82, "duration": 2, "velocity": 90}, {"time": 1030, "pitch": 84, "duration": 5, "velocity": 98}, {"time": 1036, "pitch": 79, "duration": 2, "velocity": 93}, {"time": 1039, "pitch": 79, "duration": 2, "velocity": 86}, {"time": 1042, "pitch": 79, "duration": 5, "velocity": 86}, {"time": 1048, "pitch": 75, "duration": 2, "velocity": 75}, {"time": 1051, "pitch": 80, "duration": 20, "velocity": 84}, {"time": 1072, "pitch": 73, "duration": 2, "velocity": 90}, {"time": 1075, "pitch": 72, "duration": 2, "velocity": 83}, {"time": 1078, "pitch": 73, "duration": 15, "velocity": 90}, {"time": 1093, "pitch": 73, "duration": 5, "velocity": 86}, {"time": 1098, "pitch": 72, "duration": 4, "velocity": 81}, {"time": 1102, "pitch": 70, "duration": 18, "velocity": 80}, {"time": 1120, "pitch": 67, "duration": 5, "velocity": 90}, {"time": 1125, "pitch": 68, "duration": 48, "velocity": 91}, {"time": 1174, "pitch": 75, "duration": 5, "velocity": 78}, {"time": 1180, "pitch": 72, "duration": 5, "velocity": 94}, {"time": 1186, "pitch": 70, "duration": 5, "velocity": 86}, {"time": 1192, "pitch": 68, "duration": 5, "velocity": 93}, {"time": 1198, "pitch": 70, "duration": 5, "velocity": 90}, {"time": 1204, "pitch": 70, "duration": 5, "velocity": 90}, {"time": 1210, "pitch": 70, "duration": 4, "velocity": 90}, {"time": 1214, "pitch": 70, "duration": 4, "velocity": 93}, {"time": 1219, "pitch": 68, "duration": 3, "velocity": 83}, {"time": 1222, "pitch": 68, "duration": 3, "velocity": 91}, {"time": 1225, "pitch": 68, "duration": 38, "velocity": 84}, {"time": 1264, "pitch": 68, "duration": 2, "velocity": 90}, {"time": 1267, "pitch": 68, "duration": 2, "velocity": 83}, {"time": 1270, "pitch": 73, "duration": 2, "velocity": 84}, {"time": 1273, "pitch": 73, "duration": 14, "velocity": 84}, {"time": 1288, "pitch": 73, "duration": 2, "velocity": 84}, {"time": 1291, "pitch": 72, "duration": 2, "velocity": 79}, {"time": 1294, "pitch": 70, "duration": 5, "velocity": 80}, {"time": 1300, "pitch": 70, "duration": 5, "velocity": 83}, {"time": 1306, "pitch": 70, "duration": 5, "velocity": 83}, {"time": 1312, "pitch": 68, "duration": 2, "velocity": 83}, {"time": 1315, "pitch": 72, "duration": 47, "velocity": 76}, {"time": 1363, "pitch": 63, "duration": 2, "velocity": 71}, {"time": 1366, "pitch": 75, "duration": 5, "velocity": 78}, {"time": 1372, "pitch": 72, "duration": 5, "velocity": 75}, {"time": 1378, "pitch": 70, "duration": 5, "velocity": 82}, {"time": 1384, "pitch": 68, "duration": 2, "velocity": 83}, {"time": 1387, "pitch": 70, "duration": 8, "velocity": 80}, {"time": 1396, "pitch": 70, "duration": 5, "velocity": 72}, {"time": 1402, "pitch": 70, "duration": 5, "velocity": 83}, {"time": 1408, "pitch": 68, "duration": 2, "velocity": 80}, {"time": 1411, "pitch": 70, "duration": 5, "velocity": 82}, {"time": 1417, "pitch": 68, "duration": 38, "velocity": 83}, {"time": 1456, "pitch": 63, "duration": 5, "velocity": 80}, {"time": 1462, "pitch": 73, "duration": 2, "velocity": 90}, {"time": 1465, "pitch": 73, "duration": 14, "velocity": 90}, {"time": 1480, "pitch": 68, "duration": 2, "velocity": 80}, {"time": 1483, "pitch": 68, "duration": 2, "velocity": 81}, {"time": 1486, "pitch": 70, "duration": 2, "velocity": 79}, {"time": 1489, "pitch": 70, "duration": 14, "velocity": 80}, {"time": 1504, "pitch": 70, "duration": 5, "velocity": 82}, {"time": 1510, "pitch": 68, "duration": 47, "velocity": 90}, {"time": 1558, "pitch": 77, "duration": 5, "velocity": 84}, {"time": 1564, "pitch": 77, "duration": 5, "velocity": 86}, {"time": 1570, "pitch": 77, "duration": 5, "velocity": 90}, {"time": 1576, "pitch": 73, "duration": 2, "velocity": 79}, {"time": 1579, "pitch": 73, "duration": 2, "velocity": 79}, {"time": 1582, "pitch": 77, "duration": 5, "velocity": 80}, {"time": 1588, "pitch": 84, "duration": 2, "velocity": 53}, {"time": 1591, "pitch": 82, "duration": 14, "velocity": 84}, {"time": 1606, "pitch": 84, "duration": 8, "velocity": 84}, {"time": 1615, "pitch": 79, "duration": 8, "velocity": 81}, {"time": 1624, "pitch": 75, "duration": 11, "velocity": 83}, {"time": 1636, "pitch": 80, "duration": 23, "velocity": 83}, {"time": 1660, "pitch": 73, "duration": 2, "velocity": 62}, {"time": 1663, "pitch": 73, "duration": 2, "velocity": 76}, {"time": 1666, "pitch": 73, "duration": 4, "velocity": 80}, {"time": 1670, "pitch": 72, "duration": 4, "velocity": 86}, {"time": 1675, "pitch": 72, "duration": 2, "velocity": 78}, {"time": 1678, "pitch": 70, "duration": 4, "velocity": 78}, {"time": 1682, "pitch": 70, "duration": 4, "velocity": 77}, {"time": 1687, "pitch": 70, "duration": 2, "velocity": 82}, {"time": 1690, "pitch": 70, "duration": 5, "velocity": 82}, {"time": 1696, "pitch": 75, "duration": 5, "velocity": 80}, {"time": 1702, "pitch": 70, "duration": 5, "velocity": 80}, {"time": 1708, "pitch": 72, "duration": 35, "velocity": 80}, {"time": 1744, "pitch": 75, "duration": 2, "velocity": 81}, {"time": 1747, "pitch": 75, "duration": 2, "velocity": 77}, {"time": 1750, "pitch": 77, "duration": 5, "velocity": 84}, {"time": 1756, "pitch": 77, "duration": 5, "velocity": 91}, {"time": 1762, "pitch": 77, "duration": 5, "velocity": 83}, {"time": 1767, "pitch": 73, "duration": 6, "velocity": 81}, {"time": 1774, "pitch": 77, "duration": 2, "velocity": 84}, {"time": 1777, "pitch": 84, "duration": 5, "velocity": 73}, {"time": 1783, "pitch": 82, "duration": 8, "velocity": 73}, {"time": 1792, "pitch": 80, "duration": 2, "velocity": 86}, {"time": 1795, "pitch": 82, "duration": 2, "velocity": 90}, {"time": 1798, "pitch": 84, "duration": 5, "velocity": 98}, {"time": 1804, "pitch": 79, "duration": 2, "velocity": 93}, {"time": 1807, "pitch": 79, "duration": 2, "velocity": 86}, {"time": 1810, "pitch": 79, "duration": 5, "velocity": 86}, {"time": 1816, "pitch": 75, "duration": 2, "velocity": 75}, {"time": 1819, "pitch": 80, "duration": 20, "velocity": 84}, {"time": 1840, "pitch": 73, "duration": 2, "velocity": 90}, {"time": 1843, "pitch": 72, "duration": 2, "velocity": 83}, {"time": 1846, "pitch": 73, "duration": 5, "velocity": 90}, {"time": 1852, "pitch": 73, "duration": 14, "velocity": 90}, {"time": 1867, "pitch": 68, "duration": 2, "velocity": 83}, {"time": 1870, "pitch": 70, "duration": 5, "velocity": 83}, {"time": 1876, "pitch": 70, "duration": 5, "velocity": 81}, {"time": 1882, "pitch": 68, "duration": 5, "velocity": 80}, {"time": 1888, "pitch": 67, "duration": 5, "velocity": 82}, {"time": 1888, "pitch": 67, "duration": 5, "velocity": 90}, {"time": 1894, "pitch": 68, "duration": 47, "velocity": 80}, {"time": 1894, "pitch": 68, "duration": 47, "velocity": 91}, {"time": 1942, "pitch": 77, "duration": 5, "velocity": 84}, {"time": 1948, "pitch": 77, "duration": 5, "velocity": 86}, {"time": 1954, "pitch": 77, "duration": 5, "velocity": 90}, {"time": 1960, "pitch": 73, "duration": 2, "velocity": 79}, {"time": 1963, "pitch": 73, "duration": 2, "velocity": 79}, {"time": 1966, "pitch": 77, "duration": 5, "velocity": 80}, {"time": 1972, "pitch": 84, "duration": 2, "velocity": 53}, {"time": 1975, "pitch": 82, "duration": 14, "velocity": 84}, {"time": 1990, "pitch": 84, "duration": 8, "velocity": 84}, {"time": 1999, "pitch": 79, "duration": 8, "velocity": 81}, {"time": 2008, "pitch": 75, "duration": 11, "velocity": 83}, {"time": 2020, "pitch": 80, "duration": 23, "velocity": 83}, {"time": 2044, "pitch": 73, "duration": 2, "velocity": 62}, {"time": 2047, "pitch": 73, "duration": 2, "velocity": 76}, {"time": 2050, "pitch": 73, "duration": 5, "velocity": 80}, {"time": 2056, "pitch": 72, "duration": 2, "velocity": 86}, {"time": 2059, "pitch": 72, "duration": 2, "velocity": 78}, {"time": 2062, "pitch": 70, "duration": 2, "velocity": 78}, {"time": 2065, "pitch": 70, "duration": 5, "velocity": 77}, {"time": 2071, "pitch": 70, "duration": 2, "velocity": 82}, {"time": 2074, "pitch": 70, "duration": 5, "velocity": 82}, {"time": 2080, "pitch": 75, "duration": 5, "velocity": 80}, {"time": 2086, "pitch": 70, "duration": 2, "velocity": 80}, {"time": 2090, "pitch": 72, "duration": 39, "velocity": 80}, {"time": 2128, "pitch": 75, "duration": 2, "velocity": 81}, {"time": 2131, "pitch": 75, "duration": 2, "velocity": 77}, {"time": 2134, "pitch": 77, "duration": 5, "velocity": 84}, {"time": 2140, "pitch": 77, "duration": 5, "velocity": 91}, {"time": 2146, "pitch": 77, "duration": 5, "velocity": 83}, {"time": 2151, "pitch": 73, "duration": 6, "velocity": 81}, {"time": 2158, "pitch": 77, "duration": 2, "velocity": 84}, {"time": 2161, "pitch": 84, "duration": 5, "velocity": 73}, {"time": 2167, "pitch": 82, "duration": 8, "velocity": 73}, {"time": 2176, "pitch": 80, "duration": 2, "velocity": 86}, {"time": 2179, "pitch": 82, "duration": 2, "velocity": 90}, {"time": 2182, "pitch": 84, "duration": 5, "velocity": 98}, {"time": 2188, "pitch": 79, "duration": 2, "velocity": 93}, {"time": 2191, "pitch": 79, "duration": 2, "velocity": 86}, {"time": 2194, "pitch": 79, "duration": 5, "velocity": 86}, {"time": 2200, "pitch": 75, "duration": 2, "velocity": 75}, {"time": 2203, "pitch": 80, "duration": 20, "velocity": 84}, {"time": 2224, "pitch": 73, "duration": 2, "velocity": 90}, {"time": 2227, "pitch": 72, "duration": 2, "velocity": 83}, {"time": 2230, "pitch": 73, "duration": 5, "velocity": 90}, {"time": 2236, "pitch": 73, "duration": 14, "velocity": 90}, {"time": 2251, "pitch": 68, "duration": 2, "velocity": 83}, {"time": 2254, "pitch": 70, "duration": 5, "velocity": 83}, {"time": 2260, "pitch": 70, "duration": 5, "velocity": 81}, {"time": 2266, "pitch": 68, "duration": 5, "velocity": 80}, {"time": 2272, "pitch": 67, "duration": 5, "velocity": 82}, {"time": 2272, "pitch": 67, "duration": 5, "velocity": 90}, {"time": 2278, "pitch": 68, "duration": 41, "velocity": 80}, {"time": 2278, "pitch": 68, "duration": 41, "velocity": 91}, {"time": 2320, "pitch": 72, "duration": 2, "velocity": 82}, {"time": 2323, "pitch": 72, "duration": 2, "velocity": 78}, {"time": 2326, "pitch": 73, "duration": 5, "velocity": 82}, {"time": 2332, "pitch": 73, "duration": 11, "velocity": 84}, {"time": 2344, "pitch": 68, "duration": 2, "velocity": 71}, {"time": 2347, "pitch": 68, "duration": 2, "velocity": 63}, {"time": 2350, "pitch": 70, "duration": 5, "velocity": 82}, {"time": 2356, "pitch": 70, "duration": 17, "velocity": 78}, {"time": 2374, "pitch": 68, "duration": 5, "velocity": 83}, {"time": 2380, "pitch": 68, "duration": 41, "velocity": 78}, {"time": 2422, "pitch": 72, "duration": 11, "velocity": 95}, {"time": 2434, "pitch": 75, "duration": 11, "velocity": 90}, {"time": 2446, "pitch": 72, "duration": 23, "velocity": 95}, {"time": 2470, "pitch": 72, "duration": 11, "velocity": 98}, {"time": 2482, "pitch": 70, "duration": 5, "velocity": 94}, {"time": 2488, "pitch": 68, "duration": 5, "velocity": 93}, {"time": 2494, "pitch": 65, "duration": 23, "velocity": 69}, {"time": 2518, "pitch": 68, "duration": 11, "velocity": 93}, {"time": 2530, "pitch": 72, "duration": 11, "velocity": 93}, {"time": 2542, "pitch": 70, "duration": 11, "velocity": 83}, {"time": 2554, "pitch": 75, "duration": 11, "velocity": 82}, {"time": 2566, "pitch": 73, "duration": 47, "velocity": 90}, {"time": 2614, "pitch": 72, "duration": 11, "velocity": 99}, {"time": 2626, "pitch": 75, "duration": 11, "velocity": 93}, {"time": 2638, "pitch": 72, "duration": 23, "velocity": 86}, {"time": 2662, "pitch": 72, "duration": 11, "velocity": 91}, {"time": 2674, "pitch": 70, "duration": 5, "velocity": 90}, {"time": 2680, "pitch": 68, "duration": 5, "velocity": 98}, {"time": 2686, "pitch": 65, "duration": 5, "velocity": 93}, {"time": 2692, "pitch": 68, "duration": 17, "velocity": 93}, {"time": 2710, "pitch": 68, "duration": 11, "velocity": 94}, {"time": 2722, "pitch": 72, "duration": 11, "velocity": 84}, {"time": 2734, "pitch": 70, "duration": 11, "velocity": 84}, {"time": 2746, "pitch": 67, "duration": 11, "velocity": 90}, {"time": 2758, "pitch": 68, "duration": 47, "velocity": 99}, {"time": 2806, "pitch": 72, "duration": 11, "velocity": 95}, {"time": 2818, "pitch": 75, "duration": 11, "velocity": 90}, {"time": 2830, "pitch": 72, "duration": 23, "velocity": 95}, {"time": 2854, "pitch": 72, "duration": 11, "velocity": 98}, {"time": 2866, "pitch": 70, "duration": 5, "velocity": 94}, {"time": 2872, "pitch": 68, "duration": 5, "velocity": 93}, {"time": 2878, "pitch": 65, "duration": 23, "velocity": 69}, {"time": 2902, "pitch": 63, "duration": 11, "velocity": 93}, {"time": 2914, "pitch": 68, "duration": 11, "velocity": 93}, {"time": 2926, "pitch": 70, "duration": 11, "velocity": 83}, {"time": 2938, "pitch": 75, "duration": 11, "velocity": 82}, {"time": 2950, "pitch": 73, "duration": 47, "velocity": 90}, {"time": 2998, "pitch": 72, "duration": 11, "velocity": 99}, {"time": 3010, "pitch": 75, "duration": 11, "velocity": 93}, {"time": 3022, "pitch": 72, "duration": 23, "velocity": 86}, {"time": 3046, "pitch": 72, "duration": 11, "velocity": 91}, {"time": 3058, "pitch": 70, "duration": 5, "velocity": 90}, {"time": 3064, "pitch": 68, "duration": 5, "velocity": 98}, {"time": 3070, "pitch": 65, "duration": 23, "velocity": 93}, {"time": 3094, "pitch": 63, "duration": 11, "velocity": 94}, {"time": 3106, "pitch": 68, "duration": 11, "velocity": 84}, {"time": 3118, "pitch": 67, "duration": 11, "velocity": 84}, {"time": 3130, "pitch": 63, "duration": 11, "velocity": 90}, {"time": 3142, "pitch": 68, "duration": 47, "velocity": 99}, {"time": 3190, "pitch": 68, "duration": 11, "velocity": 84}, {"time": 3202, "pitch": 72, "duration": 11, "velocity": 86}, {"time": 3214, "pitch": 70, "duration": 11, "velocity": 83}, {"time": 3226, "pitch": 67, "duration": 11, "velocity": 90}, {"time": 3238, "pitch": 68, "duration": 47, "velocity": 90}]}, {"program": 0, "is_drum": false, "name": "PIANO", "notes": [{"time": 22, "pitch": 49, "duration": 18, "velocity": 82}, {"time": 28, "pitch": 56, "duration": 13, "velocity": 73}, {"time": 34, "pitch": 61, "duration": 6, "velocity": 78}, {"time": 40, "pitch": 68, "duration": 5, "velocity": 86}, {"time": 46, "pitch": 49, "duration": 19, "velocity": 75}, {"time": 46, "pitch": 67, "duration": 10, "velocity": 83}, {"time": 52, "pitch": 55, "duration": 13, "velocity": 58}, {"time": 58, "pitch": 58, "duration": 6, "velocity": 75}, {"time": 64, "pitch": 70, "duration": 4, "velocity": 84}, {"time": 70, "pitch": 48, "duration": 17, "velocity": 79}, {"time": 70, "pitch": 58, "duration": 7, "velocity": 80}, {"time": 70, "pitch": 63, "duration": 10, "velocity": 80}, {"time": 76, "pitch": 55, "duration": 12, "velocity": 73}, {"time": 82, "pitch": 67, "duration": 5, "velocity": 83}, {"time": 88, "pitch": 70, "duration": 1, "velocity": 84}, {"time": 94, "pitch": 53, "duration": 11, "velocity": 69}, {"time": 94, "pitch": 60, "duration": 5, "velocity": 80}, {"time": 94, "pitch": 68, "duration": 9, "velocity": 86}, {"time": 106, "pitch": 55, "duration": 5, "velocity": 76}, {"time": 106, "pitch": 58, "duration": 5, "velocity": 77}, {"time": 106, "pitch": 67, "duration": 4, "velocity": 84}, {"time": 112, "pitch": 63, "duration": 4, "velocity": 75}, {"time": 118, "pitch": 46, "duration": 18, "velocity": 78}, {"time": 118, "pitch": 56, "duration": 5, "velocity": 76}, {"time": 118, "pitch": 61, "duration": 5, "velocity": 78}, {"time": 118, "pitch": 65, "duration": 5, "velocity": 79}, {"time": 124, "pitch": 53, "duration": 9, "velocity": 61}, {"time": 130, "pitch": 58, "duration": 13, "velocity": 69}, {"time": 130, "pitch": 61, "duration": 6, "velocity": 82}, {"time": 136, "pitch": 53, "duration": 6, "velocity": 68}, {"time": 136, "pitch": 65, "duration": 6, "velocity": 72}, {"time": 142, "pitch": 51, "duration": 16, "velocity": 76}, {"time": 142, "pitch": 67, "duration": 6, "velocity": 93}, {"time": 148, "pitch": 58, "duration": 11, "velocity": 72}, {"time": 154, "pitch": 63, "duration": 3, "velocity": 58}, {"time": 154, "pitch": 70, "duration": 5, "velocity": 63}, {"time": 160, "pitch": 72, "duration": 4, "velocity": 79}, {"time": 163, "pitch": 63, "duration": 4, "velocity": 53}, {"time": 166, "pitch": 44, "duration": 18, "velocity": 79}, {"time": 166, "pitch": 72, "duration": 4, "velocity": 82}, {"time": 172, "pitch": 51, "duration": 8, "velocity": 61}, {"time": 178, "pitch": 56, "duration": 6, "velocity": 62}, {"time": 178, "pitch": 60, "duration": 7, "velocity": 72}, {"time": 178, "pitch": 68, "duration": 8, "velocity": 84}, {"time": 184, "pitch": 51, "duration": 6, "velocity": 79}, {"time": 190, "pitch": 46, "duration": 6, "velocity": 82}, {"time": 190, "pitch": 61, "duration": 5, "velocity": 83}, {"time": 196, "pitch": 53, "duration": 6, "velocity": 71}, {"time": 196, "pitch": 60, "duration": 3, "velocity": 76}, {"time": 199, "pitch": 61, "duration": 3, "velocity": 78}, {"time": 202, "pitch": 48, "duration": 6, "velocity": 83}, {"time": 202, "pitch": 63, "duration": 5, "velocity": 82}, {"time": 208, "pitch": 55, "duration": 6, "velocity": 78}, {"time": 208, "pitch": 67, "duration": 4, "velocity": 86}, {"time": 214, "pitch": 49, "duration": 18, "velocity": 80}, {"time": 214, "pitch": 65, "duration": 6, "velocity": 69}, {"time": 214, "pitch": 68, "duration": 6, "velocity": 80}, {"time": 220, "pitch": 56, "duration": 6, "velocity": 78}, {"time": 226, "pitch": 61, "duration": 5, "velocity": 67}, {"time": 226, "pitch": 63, "duration": 6, "velocity": 71}, {"time": 226, "pitch": 68, "duration": 6, "velocity": 81}, {"time": 232, "pitch": 56, "duration": 5, "velocity": 75}, {"time": 235, "pitch": 68, "duration": 2, "velocity": 55}, {"time": 238, "pitch": 49, "duration": 19, "velocity": 76}, {"time": 238, "pitch": 63, "duration": 5, "velocity": 80}, {"time": 238, "pitch": 67, "duration": 5, "velocity": 86}, {"time": 244, "pitch": 55, "duration": 11, "velocity": 67}, {"time": 250, "pitch": 58, "duration": 7, "velocity": 75}, {"time": 250, "pitch": 70, "duration": 8, "velocity": 84}, {"time": 256, "pitch": 61, "duration": 1, "velocity": 73}, {"time": 262, "pitch": 48, "duration": 18, "velocity": 80}, {"time": 262, "pitch": 58, "duration": 5, "velocity": 76}, {"time": 262, "pitch": 63, "duration": 5, "velocity": 72}, {"time": 262, "pitch": 67, "duration": 5, "velocity": 86}, {"time": 268, "pitch": 51, "duration": 7, "velocity": 63}, {"time": 274, "pitch": 55, "duration": 7, "velocity": 75}, {"time": 274, "pitch": 63, "duration": 6, "velocity": 77}, {"time": 274, "pitch": 70, "duration": 4, "velocity": 82}, {"time": 280, "pitch": 60, "duration": 2, "velocity": 61}, {"time": 286, "pitch": 53, "duration": 14, "velocity": 69}, {"time": 286, "pitch": 60, "duration": 7, "velocity": 76}, {"time": 286, "pitch": 68, "duration": 9, "velocity": 83}, {"time": 298, "pitch": 56, "duration": 6, "velocity": 80}, {"time": 298, "pitch": 60, "duration": 5, "velocity": 76}, {"time": 298, "pitch": 63, "duration": 4, "velocity": 80}, {"time": 304, "pitch": 53, "duration": 1, "velocity": 73}, {"time": 310, "pitch": 46, "duration": 19, "velocity": 80}, {"time": 310, "pitch": 56, "duration": 5, "velocity": 75}, {"time": 310, "pitch": 61, "duration": 5, "velocity": 77}, {"time": 310, "pitch": 65, "duration": 4, "velocity": 77}, {"time": 316, "pitch": 53, "duration": 9, "velocity": 53}, {"time": 322, "pitch": 56, "duration": 6, "velocity": 71}, {"time": 322, "pitch": 61, "duration": 6, "velocity": 78}, {"time": 328, "pitch": 53, "duration": 4, "velocity": 63}, {"time": 334, "pitch": 51, "duration": 17, "velocity": 76}, {"time": 334, "pitch": 56, "duration": 8, "velocity": 73}, {"time": 334, "pitch": 61, "duration": 6, "velocity": 79}, {"time": 334, "pitch": 65, "duration": 6, "velocity": 77}, {"time": 346, "pitch": 68, "duration": 5, "velocity": 80}, {"time": 358, "pitch": 44, "duration": 18, "velocity": 79}, {"time": 358, "pitch": 61, "duration": 7, "velocity": 79}, {"time": 358, "pitch": 65, "duration": 5, "velocity": 78}, {"time": 364, "pitch": 51, "duration": 6, "velocity": 69}, {"time": 370, "pitch": 56, "duration": 6, "velocity": 57}, {"time": 370, "pitch": 61, "duration": 5, "velocity": 83}, {"time": 370, "pitch": 64, "duration": 6, "velocity": 79}, {"time": 376, "pitch": 51, "duration": 6, "velocity": 69}, {"time": 382, "pitch": 44, "duration": 18, "velocity": 80}, {"time": 382, "pitch": 60, "duration": 19, "velocity": 81}, {"time": 382, "pitch": 63, "duration": 19, "velocity": 78}, {"time": 406, "pitch": 44, "duration": 19, "velocity": 82}, {"time": 412, "pitch": 51, "duration": 15, "velocity": 72}, {"time": 418, "pitch": 56, "duration": 6, "velocity": 78}, {"time": 424, "pitch": 63, "duration": 7, "velocity": 83}, {"time": 430, "pitch": 43, "duration": 17, "velocity": 78}, {"time": 430, "pitch": 58, "duration": 8, "velocity": 76}, {"time": 436, "pitch": 51, "duration": 10, "velocity": 61}, {"time": 442, "pitch": 55, "duration": 4, "velocity": 68}, {"time": 442, "pitch": 58, "duration": 4, "velocity": 70}, {"time": 442, "pitch": 70, "duration": 4, "velocity": 79}, {"time": 448, "pitch": 67, "duration": 5, "velocity": 79}, {"time": 454, "pitch": 41, "duration": 10, "velocity": 69}, {"time": 454, "pitch": 60, "duration": 25, "velocity": 73}, {"time": 454, "pitch": 68, "duration": 27, "velocity": 80}, {"time": 460, "pitch": 48, "duration": 5, "velocity": 52}, {"time": 466, "pitch": 53, "duration": 6, "velocity": 52}, {"time": 472, "pitch": 55, "duration": 23, "velocity": 63}, {"time": 478, "pitch": 56, "duration": 17, "velocity": 75}, {"time": 484, "pitch": 60, "duration": 6, "velocity": 54}, {"time": 490, "pitch": 68, "duration": 5, "velocity": 80}, {"time": 496, "pitch": 63, "duration": 5, "velocity": 72}, {"time": 502, "pitch": 46, "duration": 18, "velocity": 70}, {"time": 502, "pitch": 56, "duration": 6, "velocity": 62}, {"time": 502, "pitch": 61, "duration": 8, "velocity": 79}, {"time": 502, "pitch": 65, "duration": 9, "velocity": 70}, {"time": 508, "pitch": 53, "duration": 13, "velocity": 54}, {"time": 514, "pitch": 58, "duration": 5, "velocity": 71}, {"time": 520, "pitch": 61, "duration": 5, "velocity": 60}, {"time": 526, "pitch": 46, "duration": 18, "velocity": 17}, {"time": 526, "pitch": 58, "duration": 6, "velocity": 72}, {"time": 526, "pitch": 63, "duration": 6, "velocity": 75}, {"time": 526, "pitch": 67, "duration": 6, "velocity": 77}, {"time": 532, "pitch": 55, "duration": 12, "velocity": 68}, {"time": 538, "pitch": 58, "duration": 5, "velocity": 57}, {"time": 544, "pitch": 63, "duration": 5, "velocity": 70}, {"time": 544, "pitch": 68, "duration": 2, "velocity": 76}, {"time": 550, "pitch": 44, "duration": 42, "velocity": 80}, {"time": 550, "pitch": 60, "duration": 12, "velocity": 74}, {"time": 550, "pitch": 68, "duration": 11, "velocity": 83}, {"time": 556, "pitch": 51, "duration": 40, "velocity": 63}, {"time": 562, "pitch": 56, "duration": 7, "velocity": 72}, {"time": 568, "pitch": 58, "duration": 7, "velocity": 75}, {"time": 574, "pitch": 56, "duration": 18, "velocity": 54}, {"time": 574, "pitch": 60, "duration": 22, "velocity": 81}, {"time": 598, "pitch": 44, "duration": 18, "velocity": 75}, {"time": 598, "pitch": 63, "duration": 8, "velocity": 79}, {"time": 604, "pitch": 51, "duration": 15, "velocity": 53}, {"time": 610, "pitch": 56, "duration": 5, "velocity": 59}, {"time": 616, "pitch": 68, "duration": 5, "velocity": 76}, {"time": 622, "pitch": 43, "duration": 12, "velocity": 84}, {"time": 622, "pitch": 58, "duration": 12, "velocity": 84}, {"time": 628, "pitch": 51, "duration": 11, "velocity": 63}, {"time": 634, "pitch": 55, "duration": 3, "velocity": 62}, {"time": 640, "pitch": 67, "duration": 5, "velocity": 69}, {"time": 646, "pitch": 41, "duration": 42, "velocity": 82}, {"time": 646, "pitch": 60, "duration": 9, "velocity": 73}, {"time": 646, "pitch": 68, "duration": 8, "velocity": 84}, {"time": 652, "pitch": 48, "duration": 36, "velocity": 62}, {"time": 658, "pitch": 53, "duration": 7, "velocity": 57}, {"time": 664, "pitch": 55, "duration": 6, "velocity": 78}, {"time": 670, "pitch": 53, "duration": 5, "velocity": 46}, {"time": 670, "pitch": 56, "duration": 5, "velocity": 83}, {"time": 676, "pitch": 55, "duration": 7, "velocity": 41}, {"time": 682, "pitch": 53, "duration": 12, "velocity": 52}, {"time": 682, "pitch": 60, "duration": 5, "velocity": 78}, {"time": 688, "pitch": 63, "duration": 6, "velocity": 79}, {"time": 694, "pitch": 46, "duration": 19, "velocity": 82}, {"time": 694, "pitch": 61, "duration": 6, "velocity": 80}, {"time": 700, "pitch": 53, "duration": 7, "velocity": 58}, {"time": 706, "pitch": 58, "duration": 6, "velocity": 53}, {"time": 706, "pitch": 65, "duration": 9, "velocity": 81}, {"time": 712, "pitch": 53, "duration": 7, "velocity": 63}, {"time": 718, "pitch": 46, "duration": 16, "velocity": 70}, {"time": 718, "pitch": 63, "duration": 5, "velocity": 81}, {"time": 718, "pitch": 67, "duration": 6, "velocity": 84}, {"time": 724, "pitch": 55, "duration": 6, "velocity": 68}, {"time": 730, "pitch": 58, "duration": 6, "velocity": 59}, {"time": 730, "pitch": 63, "duration": 5, "velocity": 75}, {"time": 730, "pitch": 70, "duration": 4, "velocity": 84}, {"time": 736, "pitch": 55, "duration": 2, "velocity": 79}, {"time": 742, "pitch": 44, "duration": 19, "velocity": 81}, {"time": 742, "pitch": 60, "duration": 9, "velocity": 71}, {"time": 742, "pitch": 63, "duration": 8, "velocity": 67}, {"time": 742, "pitch": 68, "duration": 11, "velocity": 81}, {"time": 748, "pitch": 51, "duration": 10, "velocity": 60}, {"time": 754, "pitch": 56, "duration": 9, "velocity": 61}, {"time": 760, "pitch": 61, "duration": 6, "velocity": 73}, {"time": 760, "pitch": 65, "duration": 5, "velocity": 68}, {"time": 766, "pitch": 44, "duration": 16, "velocity": 80}, {"time": 766, "pitch": 61, "duration": 1, "velocity": 84}, {"time": 766, "pitch": 66, "duration": 12, "velocity": 84}, {"time": 772, "pitch": 51, "duration": 12, "velocity": 75}, {"time": 778, "pitch": 56, "duration": 6, "velocity": 80}, {"time": 784, "pitch": 66, "duration": 4, "velocity": 81}, {"time": 790, "pitch": 49, "duration": 18, "velocity": 80}, {"time": 790, "pitch": 65, "duration": 5, "velocity": 83}, {"time": 796, "pitch": 56, "duration": 7, "velocity": 78}, {"time": 802, "pitch": 61, "duration": 5, "velocity": 63}, {"time": 802, "pitch": 65, "duration": 6, "velocity": 79}, {"time": 802, "pitch": 73, "duration": 6, "velocity": 84}, {"time": 808, "pitch": 56, "duration": 6, "velocity": 74}, {"time": 808, "pitch": 72, "duration": 5, "velocity": 80}, {"time": 814, "pitch": 49, "duration": 9, "velocity": 79}, {"time": 814, "pitch": 63, "duration": 6, "velocity": 74}, {"time": 814, "pitch": 70, "duration": 6, "velocity": 86}, {"time": 820, "pitch": 58, "duration": 12, "velocity": 61}, {"time": 826, "pitch": 63, "duration": 4, "velocity": 78}, {"time": 832, "pitch": 67, "duration": 3, "velocity": 83}, {"time": 835, "pitch": 68, "duration": 3, "velocity": 83}, {"time": 838, "pitch": 48, "duration": 16, "velocity": 80}, {"time": 838, "pitch": 70, "duration": 12, "velocity": 84}, {"time": 844, "pitch": 55, "duration": 10, "velocity": 73}, {"time": 850, "pitch": 60, "duration": 3, "velocity": 60}, {"time": 850, "pitch": 67, "duration": 4, "velocity": 84}, {"time": 856, "pitch": 63, "duration": 5, "velocity": 78}, {"time": 862, "pitch": 53, "duration": 6, "velocity": 72}, {"time": 862, "pitch": 60, "duration": 7, "velocity": 82}, {"time": 862, "pitch": 68, "duration": 10, "velocity": 93}, {"time": 868, "pitch": 56, "duration": 7, "velocity": 83}, {"time": 874, "pitch": 51, "duration": 7, "velocity": 74}, {"time": 874, "pitch": 58, "duration": 6, "velocity": 74}, {"time": 874, "pitch": 63, "duration": 6, "velocity": 78}, {"time": 874, "pitch": 67, "duration": 8, "velocity": 86}, {"time": 880, "pitch": 65, "duration": 2, "velocity": 78}, {"time": 886, "pitch": 46, "duration": 18, "velocity": 82}, {"time": 886, "pitch": 58, "duration": 6, "velocity": 62}, {"time": 886, "pitch": 61, "duration": 13, "velocity": 78}, {"time": 886, "pitch": 65, "duration": 12, "velocity": 78}, {"time": 892, "pitch": 53, "duration": 13, "velocity": 61}, {"time": 898, "pitch": 58, "duration": 6, "velocity": 78}, {"time": 904, "pitch": 60, "duration": 4, "velocity": 79}, {"time": 910, "pitch": 39, "duration": 11, "velocity": 79}, {"time": 910, "pitch": 56, "duration": 5, "velocity": 75}, {"time": 910, "pitch": 61, "duration": 6, "velocity": 62}, {"time": 910, "pitch": 65, "duration": 5, "velocity": 80}, {"time": 916, "pitch": 46, "duration": 6, "velocity": 74}, {"time": 922, "pitch": 51, "duration": 6, "velocity": 60}, {"time": 922, "pitch": 58, "duration": 6, "velocity": 75}, {"time": 922, "pitch": 63, "duration": 6, "velocity": 78}, {"time": 922, "pitch": 67, "duration": 5, "velocity": 81}, {"time": 928, "pitch": 53, "duration": 2, "velocity": 69}, {"time": 934, "pitch": 44, "duration": 19, "velocity": 79}, {"time": 934, "pitch": 60, "duration": 9, "velocity": 76}, {"time": 934, "pitch": 63, "duration": 10, "velocity": 80}, {"time": 934, "pitch": 68, "duration": 13, "velocity": 81}, {"time": 940, "pitch": 51, "duration": 17, "velocity": 68}, {"time": 946, "pitch": 56, "duration": 7, "velocity": 72}, {"time": 949, "pitch": 60, "duration": 4, "velocity": 69}, {"time": 952, "pitch": 61, "duration": 2, "velocity": 72}, {"time": 955, "pitch": 63, "duration": 2, "velocity": 68}, {"time": 958, "pitch": 46, "duration": 10, "velocity": 81}, {"time": 958, "pitch": 56, "duration": 7, "velocity": 75}, {"time": 958, "pitch": 61, "duration": 7, "velocity": 80}, {"time": 964, "pitch": 53, "duration": 7, "velocity": 56}, {"time": 970, "pitch": 48, "duration": 6, "velocity": 82}, {"time": 970, "pitch": 56, "duration": 3, "velocity": 80}, {"time": 970, "pitch": 63, "duration": 5, "velocity": 84}, {"time": 976, "pitch": 56, "duration": 4, "velocity": 78}, {"time": 982, "pitch": 49, "duration": 18, "velocity": 80}, {"time": 982, "pitch": 61, "duration": 4, "velocity": 84}, {"time": 982, "pitch": 65, "duration": 5, "velocity": 80}, {"time": 988, "pitch": 56, "duration": 7, "velocity": 57}, {"time": 994, "pitch": 61, "duration": 6, "velocity": 56}, {"time": 994, "pitch": 65, "duration": 6, "velocity": 73}, {"time": 994, "pitch": 73, "duration": 5, "velocity": 90}, {"time": 1000, "pitch": 56, "duration": 6, "velocity": 78}, {"time": 1000, "pitch": 72, "duration": 7, "velocity": 81}, {"time": 1006, "pitch": 49, "duration": 17, "velocity": 81}, {"time": 1006, "pitch": 63, "duration": 6, "velocity": 69}, {"time": 1006, "pitch": 70, "duration": 8, "velocity": 84}, {"time": 1012, "pitch": 58, "duration": 11, "velocity": 69}, {"time": 1018, "pitch": 60, "duration": 3, "velocity": 63}, {"time": 1018, "pitch": 61, "duration": 2, "velocity": 60}, {"time": 1021, "pitch": 67, "duration": 3, "velocity": 78}, {"time": 1024, "pitch": 68, "duration": 2, "velocity": 80}, {"time": 1027, "pitch": 70, "duration": 1, "velocity": 80}, {"time": 1030, "pitch": 48, "duration": 19, "velocity": 80}, {"time": 1030, "pitch": 58, "duration": 6, "velocity": 62}, {"time": 1030, "pitch": 63, "duration": 6, "velocity": 79}, {"time": 1036, "pitch": 55, "duration": 7, "velocity": 76}, {"time": 1042, "pitch": 58, "duration": 6, "velocity": 79}, {"time": 1042, "pitch": 67, "duration": 8, "velocity": 86}, {"time": 1048, "pitch": 55, "duration": 1, "velocity": 80}, {"time": 1054, "pitch": 41, "duration": 12, "velocity": 83}, {"time": 1054, "pitch": 60, "duration": 7, "velocity": 79}, {"time": 1054, "pitch": 68, "duration": 6, "velocity": 81}, {"time": 1060, "pitch": 53, "duration": 7, "velocity": 53}, {"time": 1066, "pitch": 39, "duration": 12, "velocity": 83}, {"time": 1066, "pitch": 58, "duration": 3, "velocity": 77}, {"time": 1066, "pitch": 67, "duration": 4, "velocity": 90}, {"time": 1072, "pitch": 53, "duration": 3, "velocity": 61}, {"time": 1072, "pitch": 63, "duration": 4, "velocity": 80}, {"time": 1078, "pitch": 46, "duration": 19, "velocity": 69}, {"time": 1078, "pitch": 56, "duration": 5, "velocity": 74}, {"time": 1078, "pitch": 61, "duration": 5, "velocity": 80}, {"time": 1084, "pitch": 51, "duration": 8, "velocity": 39}, {"time": 1090, "pitch": 56, "duration": 6, "velocity": 73}, {"time": 1090, "pitch": 61, "duration": 5, "velocity": 70}, {"time": 1090, "pitch": 65, "duration": 6, "velocity": 75}, {"time": 1096, "pitch": 51, "duration": 1, "velocity": 79}, {"time": 1102, "pitch": 39, "duration": 17, "velocity": 79}, {"time": 1102, "pitch": 58, "duration": 6, "velocity": 74}, {"time": 1102, "pitch": 63, "duration": 6, "velocity": 81}, {"time": 1102, "pitch": 67, "duration": 5, "velocity": 81}, {"time": 1108, "pitch": 51, "duration": 8, "velocity": 45}, {"time": 1114, "pitch": 56, "duration": 6, "velocity": 77}, {"time": 1114, "pitch": 61, "duration": 6, "velocity": 78}, {"time": 1114, "pitch": 65, "duration": 6, "velocity": 57}, {"time": 1114, "pitch": 68, "duration": 5, "velocity": 52}, {"time": 1120, "pitch": 51, "duration": 4, "velocity": 58}, {"time": 1126, "pitch": 44, "duration": 19, "velocity": 82}, {"time": 1126, "pitch": 60, "duration": 6, "velocity": 81}, {"time": 1126, "pitch": 63, "duration": 6, "velocity": 83}, {"time": 1126, "pitch": 68, "duration": 5, "velocity": 76}, {"time": 1132, "pitch": 51, "duration": 6, "velocity": 63}, {"time": 1138, "pitch": 56, "duration": 8, "velocity": 53}, {"time": 1138, "pitch": 61, "duration": 10, "velocity": 78}, {"time": 1138, "pitch": 64, "duration": 10, "velocity": 72}, {"time": 1144, "pitch": 51, "duration": 21, "velocity": 63}, {"time": 1150, "pitch": 44, "duration": 14, "velocity": 76}, {"time": 1150, "pitch": 56, "duration": 12, "velocity": 62}, {"time": 1150, "pitch": 60, "duration": 13, "velocity": 78}, {"time": 1150, "pitch": 63, "duration": 15, "velocity": 80}, {"time": 1174, "pitch": 44, "duration": 19, "velocity": 82}, {"time": 1180, "pitch": 51, "duration": 15, "velocity": 72}, {"time": 1186, "pitch": 56, "duration": 6, "velocity": 78}, {"time": 1192, "pitch": 63, "duration": 7, "velocity": 83}, {"time": 1198, "pitch": 43, "duration": 17, "velocity": 78}, {"time": 1198, "pitch": 58, "duration": 8, "velocity": 76}, {"time": 1204, "pitch": 51, "duration": 10, "velocity": 61}, {"time": 1210, "pitch": 55, "duration": 4, "velocity": 68}, {"time": 1210, "pitch": 58, "duration": 4, "velocity": 70}, {"time": 1210, "pitch": 70, "duration": 4, "velocity": 79}, {"time": 1216, "pitch": 67, "duration": 5, "velocity": 79}, {"time": 1222, "pitch": 41, "duration": 10, "velocity": 69}, {"time": 1222, "pitch": 60, "duration": 25, "velocity": 73}, {"time": 1222, "pitch": 68, "duration": 27, "velocity": 80}, {"time": 1228, "pitch": 48, "duration": 5, "velocity": 52}, {"time": 1234, "pitch": 53, "duration": 6, "velocity": 52}, {"time": 1240, "pitch": 55, "duration": 23, "velocity": 63}, {"time": 1246, "pitch": 56, "duration": 17, "velocity": 75}, {"time": 1252, "pitch": 60, "duration": 6, "velocity": 54}, {"time": 1258, "pitch": 68, "duration": 5, "velocity": 80}, {"time": 1264, "pitch": 63, "duration": 5, "velocity": 72}, {"time": 1270, "pitch": 46, "duration": 18, "velocity": 70}, {"time": 1270, "pitch": 56, "duration": 6, "velocity": 62}, {"time": 1270, "pitch": 61, "duration": 8, "velocity": 79}, {"time": 1270, "pitch": 65, "duration": 9, "velocity": 70}, {"time": 1276, "pitch": 53, "duration": 13, "velocity": 54}, {"time": 1282, "pitch": 58, "duration": 5, "velocity": 71}, {"time": 1288, "pitch": 61, "duration": 5, "velocity": 60}, {"time": 1294, "pitch": 46, "duration": 12, "velocity": 44}, {"time": 1294, "pitch": 58, "duration": 6, "velocity": 72}, {"time": 1294, "pitch": 63, "duration": 6, "velocity": 75}, {"time": 1294, "pitch": 67, "duration": 6, "velocity": 77}, {"time": 1300, "pitch": 55, "duration": 12, "velocity": 68}, {"time": 1306, "pitch": 39, "duration": 12, "velocity": 44}, {"time": 1306, "pitch": 58, "duration": 5, "velocity": 57}, {"time": 1312, "pitch": 63, "duration": 5, "velocity": 70}, {"time": 1312, "pitch": 68, "duration": 2, "velocity": 76}, {"time": 1318, "pitch": 44, "duration": 42, "velocity": 80}, {"time": 1318, "pitch": 60, "duration": 12, "velocity": 74}, {"time": 1318, "pitch": 68, "duration": 11, "velocity": 83}, {"time": 1324, "pitch": 51, "duration": 40, "velocity": 63}, {"time": 1330, "pitch": 56, "duration": 7, "velocity": 72}, {"time": 1336, "pitch": 58, "duration": 7, "velocity": 75}, {"time": 1342, "pitch": 56, "duration": 18, "velocity": 54}, {"time": 1342, "pitch": 60, "duration": 22, "velocity": 81}, {"time": 1366, "pitch": 44, "duration": 18, "velocity": 75}, {"time": 1366, "pitch": 63, "duration": 8, "velocity": 79}, {"time": 1372, "pitch": 51, "duration": 15, "velocity": 53}, {"time": 1378, "pitch": 56, "duration": 5, "velocity": 59}, {"time": 1384, "pitch": 68, "duration": 5, "velocity": 76}, {"time": 1390, "pitch": 43, "duration": 12, "velocity": 84}, {"time": 1390, "pitch": 58, "duration": 12, "velocity": 84}, {"time": 1396, "pitch": 51, "duration": 11, "velocity": 63}, {"time": 1402, "pitch": 55, "duration": 3, "velocity": 62}, {"time": 1408, "pitch": 68, "duration": 5, "velocity": 69}, {"time": 1414, "pitch": 41, "duration": 42, "velocity": 82}, {"time": 1414, "pitch": 60, "duration": 9, "velocity": 73}, {"time": 1414, "pitch": 68, "duration": 8, "velocity": 84}, {"time": 1420, "pitch": 48, "duration": 36, "velocity": 62}, {"time": 1426, "pitch": 53, "duration": 7, "velocity": 57}, {"time": 1432, "pitch": 55, "duration": 6, "velocity": 78}, {"time": 1438, "pitch": 53, "duration": 5, "velocity": 46}, {"time": 1438, "pitch": 56, "duration": 5, "velocity": 83}, {"time": 1444, "pitch": 55, "duration": 7, "velocity": 41}, {"time": 1450, "pitch": 53, "duration": 12, "velocity": 52}, {"time": 1450, "pitch": 60, "duration": 5, "velocity": 78}, {"time": 1456, "pitch": 63, "duration": 6, "velocity": 79}, {"time": 1462, "pitch": 46, "duration": 19, "velocity": 82}, {"time": 1462, "pitch": 61, "duration": 6, "velocity": 80}, {"time": 1468, "pitch": 53, "duration": 7, "velocity": 58}, {"time": 1474, "pitch": 58, "duration": 6, "velocity": 53}, {"time": 1474, "pitch": 65, "duration": 9, "velocity": 81}, {"time": 1480, "pitch": 53, "duration": 7, "velocity": 63}, {"time": 1486, "pitch": 46, "duration": 16, "velocity": 70}, {"time": 1486, "pitch": 63, "duration": 5, "velocity": 81}, {"time": 1486, "pitch": 67, "duration": 6, "velocity": 84}, {"time": 1492, "pitch": 55, "duration": 6, "velocity": 68}, {"time": 1498, "pitch": 58, "duration": 6, "velocity": 59}, {"time": 1498, "pitch": 63, "duration": 5, "velocity": 75}, {"time": 1498, "pitch": 70, "duration": 4, "velocity": 84}, {"time": 1504, "pitch": 55, "duration": 2, "velocity": 79}, {"time": 1510, "pitch": 44, "duration": 19, "velocity": 81}, {"time": 1510, "pitch": 60, "duration": 9, "velocity": 71}, {"time": 1510, "pitch": 63, "duration": 8, "velocity": 67}, {"time": 1510, "pitch": 68, "duration": 11, "velocity": 81}, {"time": 1516, "pitch": 51, "duration": 10, "velocity": 60}, {"time": 1522, "pitch": 56, "duration": 9, "velocity": 61}, {"time": 1528, "pitch": 60, "duration": 6, "velocity": 73}, {"time": 1528, "pitch": 63, "duration": 5, "velocity": 68}, {"time": 1534, "pitch": 44, "duration": 16, "velocity": 80}, {"time": 1534, "pitch": 61, "duration": 14, "velocity": 84}, {"time": 1534, "pitch": 66, "duration": 12, "velocity": 84}, {"time": 1540, "pitch": 51, "duration": 12, "velocity": 75}, {"time": 1546, "pitch": 56, "duration": 6, "velocity": 80}, {"time": 1552, "pitch": 66, "duration": 4, "velocity": 81}, {"time": 1558, "pitch": 49, "duration": 18, "velocity": 80}, {"time": 1558, "pitch": 65, "duration": 5, "velocity": 83}, {"time": 1564, "pitch": 56, "duration": 7, "velocity": 78}, {"time": 1570, "pitch": 61, "duration": 5, "velocity": 63}, {"time": 1570, "pitch": 65, "duration": 6, "velocity": 79}, {"time": 1570, "pitch": 73, "duration": 6, "velocity": 84}, {"time": 1576, "pitch": 56, "duration": 6, "velocity": 74}, {"time": 1576, "pitch": 73, "duration": 1, "velocity": 80}, {"time": 1582, "pitch": 49, "duration": 9, "velocity": 79}, {"time": 1582, "pitch": 63, "duration": 6, "velocity": 74}, {"time": 1582, "pitch": 70, "duration": 6, "velocity": 86}, {"time": 1588, "pitch": 58, "duration": 12, "velocity": 61}, {"time": 1594, "pitch": 63, "duration": 4, "velocity": 78}, {"time": 1600, "pitch": 67, "duration": 3, "velocity": 83}, {"time": 1603, "pitch": 68, "duration": 3, "velocity": 83}, {"time": 1606, "pitch": 48, "duration": 16, "velocity": 80}, {"time": 1606, "pitch": 70, "duration": 12, "velocity": 84}, {"time": 1612, "pitch": 55, "duration": 10, "velocity": 73}, {"time": 1618, "pitch": 60, "duration": 3, "velocity": 60}, {"time": 1618, "pitch": 67, "duration": 4, "velocity": 84}, {"time": 1624, "pitch": 63, "duration": 5, "velocity": 78}, {"time": 1630, "pitch": 53, "duration": 6, "velocity": 72}, {"time": 1630, "pitch": 60, "duration": 7, "velocity": 82}, {"time": 1630, "pitch": 68, "duration": 10, "velocity": 93}, {"time": 1636, "pitch": 56, "duration": 7, "velocity": 83}, {"time": 1642, "pitch": 51, "duration": 7, "velocity": 74}, {"time": 1642, "pitch": 58, "duration": 6, "velocity": 74}, {"time": 1642, "pitch": 63, "duration": 6, "velocity": 78}, {"time": 1642, "pitch": 67, "duration": 8, "velocity": 86}, {"time": 1648, "pitch": 65, "duration": 2, "velocity": 78}, {"time": 1654, "pitch": 46, "duration": 18, "velocity": 82}, {"time": 1654, "pitch": 58, "duration": 6, "velocity": 62}, {"time": 1654, "pitch": 61, "duration": 13, "velocity": 78}, {"time": 1654, "pitch": 65, "duration": 12, "velocity": 78}, {"time": 1660, "pitch": 53, "duration": 13, "velocity": 61}, {"time": 1666, "pitch": 58, "duration": 6, "velocity": 78}, {"time": 1672, "pitch": 61, "duration": 4, "velocity": 79}, {"time": 1678, "pitch": 39, "duration": 11, "velocity": 79}, {"time": 1678, "pitch": 56, "duration": 5, "velocity": 75}, {"time": 1678, "pitch": 61, "duration": 6, "velocity": 62}, {"time": 1678, "pitch": 65, "duration": 5, "velocity": 80}, {"time": 1684, "pitch": 46, "duration": 6, "velocity": 74}, {"time": 1690, "pitch": 51, "duration": 6, "velocity": 60}, {"time": 1690, "pitch": 58, "duration": 6, "velocity": 75}, {"time": 1690, "pitch": 63, "duration": 6, "velocity": 78}, {"time": 1690, "pitch": 67, "duration": 5, "velocity": 81}, {"time": 1696, "pitch": 53, "duration": 2, "velocity": 69}, {"time": 1702, "pitch": 44, "duration": 19, "velocity": 79}, {"time": 1702, "pitch": 60, "duration": 9, "velocity": 76}, {"time": 1702, "pitch": 63, "duration": 10, "velocity": 80}, {"time": 1702, "pitch": 70, "duration": 8, "velocity": 81}, {"time": 1708, "pitch": 51, "duration": 17, "velocity": 68}, {"time": 1708, "pitch": 68, "duration": 8, "velocity": 81}, {"time": 1714, "pitch": 56, "duration": 7, "velocity": 72}, {"time": 1717, "pitch": 60, "duration": 4, "velocity": 69}, {"time": 1720, "pitch": 61, "duration": 2, "velocity": 72}, {"time": 1723, "pitch": 63, "duration": 2, "velocity": 68}, {"time": 1726, "pitch": 46, "duration": 10, "velocity": 81}, {"time": 1726, "pitch": 56, "duration": 7, "velocity": 75}, {"time": 1726, "pitch": 61, "duration": 7, "velocity": 80}, {"time": 1732, "pitch": 53, "duration": 7, "velocity": 56}, {"time": 1738, "pitch": 48, "duration": 6, "velocity": 82}, {"time": 1738, "pitch": 56, "duration": 3, "velocity": 80}, {"time": 1738, "pitch": 63, "duration": 5, "velocity": 84}, {"time": 1744, "pitch": 56, "duration": 4, "velocity": 78}, {"time": 1750, "pitch": 49, "duration": 18, "velocity": 80}, {"time": 1750, "pitch": 61, "duration": 4, "velocity": 84}, {"time": 1750, "pitch": 65, "duration": 5, "velocity": 80}, {"time": 1756, "pitch": 56, "duration": 7, "velocity": 57}, {"time": 1762, "pitch": 61, "duration": 6, "velocity": 56}, {"time": 1762, "pitch": 65, "duration": 6, "velocity": 73}, {"time": 1762, "pitch": 73, "duration": 5, "velocity": 90}, {"time": 1768, "pitch": 56, "duration": 6, "velocity": 78}, {"time": 1768, "pitch": 73, "duration": 7, "velocity": 81}, {"time": 1774, "pitch": 49, "duration": 17, "velocity": 81}, {"time": 1774, "pitch": 63, "duration": 6, "velocity": 69}, {"time": 1774, "pitch": 70, "duration": 8, "velocity": 84}, {"time": 1780, "pitch": 58, "duration": 11, "velocity": 69}, {"time": 1786, "pitch": 60, "duration": 2, "velocity": 60}, {"time": 1789, "pitch": 67, "duration": 3, "velocity": 78}, {"time": 1792, "pitch": 68, "duration": 2, "velocity": 80}, {"time": 1795, "pitch": 70, "duration": 1, "velocity": 80}, {"time": 1798, "pitch": 48, "duration": 19, "velocity": 80}, {"time": 1798, "pitch": 58, "duration": 6, "velocity": 62}, {"time": 1798, "pitch": 63, "duration": 6, "velocity": 79}, {"time": 1804, "pitch": 55, "duration": 7, "velocity": 76}, {"time": 1810, "pitch": 58, "duration": 6, "velocity": 79}, {"time": 1810, "pitch": 67, "duration": 8, "velocity": 86}, {"time": 1816, "pitch": 55, "duration": 1, "velocity": 80}, {"time": 1822, "pitch": 41, "duration": 12, "velocity": 83}, {"time": 1822, "pitch": 60, "duration": 7, "velocity": 79}, {"time": 1822, "pitch": 68, "duration": 6, "velocity": 81}, {"time": 1828, "pitch": 53, "duration": 7, "velocity": 53}, {"time": 1834, "pitch": 39, "duration": 12, "velocity": 83}, {"time": 1834, "pitch": 58, "duration": 3, "velocity": 77}, {"time": 1834, "pitch": 67, "duration": 4, "velocity": 90}, {"time": 1840, "pitch": 53, "duration": 3, "velocity": 61}, {"time": 1840, "pitch": 65, "duration": 4, "velocity": 80}, {"time": 1846, "pitch": 46, "duration": 19, "velocity": 69}, {"time": 1846, "pitch": 56, "duration": 5, "velocity": 74}, {"time": 1846, "pitch": 61, "duration": 5, "velocity": 80}, {"time": 1852, "pitch": 51, "duration": 8, "velocity": 39}, {"time": 1858, "pitch": 56, "duration": 6, "velocity": 73}, {"time": 1858, "pitch": 61, "duration": 5, "velocity": 70}, {"time": 1858, "pitch": 65, "duration": 6, "velocity": 75}, {"time": 1864, "pitch": 51, "duration": 1, "velocity": 79}, {"time": 1870, "pitch": 39, "duration": 17, "velocity": 79}, {"time": 1870, "pitch": 58, "duration": 6, "velocity": 74}, {"time": 1870, "pitch": 63, "duration": 6, "velocity": 81}, {"time": 1870, "pitch": 67, "duration": 5, "velocity": 81}, {"time": 1876, "pitch": 51, "duration": 8, "velocity": 45}, {"time": 1882, "pitch": 56, "duration": 6, "velocity": 77}, {"time": 1882, "pitch": 61, "duration": 6, "velocity": 78}, {"time": 1882, "pitch": 65, "duration": 6, "velocity": 57}, {"time": 1882, "pitch": 68, "duration": 5, "velocity": 52}, {"time": 1888, "pitch": 51, "duration": 4, "velocity": 58}, {"time": 1894, "pitch": 44, "duration": 19, "velocity": 81}, {"time": 1894, "pitch": 60, "duration": 9, "velocity": 71}, {"time": 1894, "pitch": 63, "duration": 8, "velocity": 67}, {"time": 1894, "pitch": 68, "duration": 11, "velocity": 81}, {"time": 1900, "pitch": 51, "duration": 10, "velocity": 60}, {"time": 1906, "pitch": 56, "duration": 9, "velocity": 61}, {"time": 1912, "pitch": 60, "duration": 6, "velocity": 73}, {"time": 1912, "pitch": 63, "duration": 5, "velocity": 68}, {"time": 1918, "pitch": 44, "duration": 16, "velocity": 80}, {"time": 1918, "pitch": 61, "duration": 14, "velocity": 84}, {"time": 1918, "pitch": 66, "duration": 12, "velocity": 84}, {"time": 1924, "pitch": 51, "duration": 12, "velocity": 75}, {"time": 1930, "pitch": 56, "duration": 6, "velocity": 80}, {"time": 1936, "pitch": 66, "duration": 4, "velocity": 81}, {"time": 1942, "pitch": 49, "duration": 18, "velocity": 80}, {"time": 1942, "pitch": 65, "duration": 5, "velocity": 83}, {"time": 1948, "pitch": 56, "duration": 7, "velocity": 78}, {"time": 1954, "pitch": 61, "duration": 5, "velocity": 63}, {"time": 1954, "pitch": 65, "duration": 6, "velocity": 79}, {"time": 1954, "pitch": 73, "duration": 6, "velocity": 84}, {"time": 1960, "pitch": 56, "duration": 6, "velocity": 74}, {"time": 1960, "pitch": 73, "duration": 1, "velocity": 80}, {"time": 1966, "pitch": 49, "duration": 9, "velocity": 79}, {"time": 1966, "pitch": 63, "duration": 6, "velocity": 74}, {"time": 1966, "pitch": 70, "duration": 6, "velocity": 86}, {"time": 1972, "pitch": 58, "duration": 12, "velocity": 61}, {"time": 1978, "pitch": 63, "duration": 4, "velocity": 78}, {"time": 1984, "pitch": 67, "duration": 3, "velocity": 83}, {"time": 1987, "pitch": 68, "duration": 3, "velocity": 83}, {"time": 1990, "pitch": 48, "duration": 16, "velocity": 80}, {"time": 1990, "pitch": 70, "duration": 12, "velocity": 84}, {"time": 1996, "pitch": 55, "duration": 10, "velocity": 73}, {"time": 2002, "pitch": 60, "duration": 3, "velocity": 60}, {"time": 2002, "pitch": 67, "duration": 4, "velocity": 84}, {"time": 2008, "pitch": 63, "duration": 5, "velocity": 78}, {"time": 2014, "pitch": 53, "duration": 6, "velocity": 72}, {"time": 2014, "pitch": 60, "duration": 7, "velocity": 82}, {"time": 2014, "pitch": 68, "duration": 10, "velocity": 93}, {"time": 2020, "pitch": 56, "duration": 7, "velocity": 83}, {"time": 2026, "pitch": 51, "duration": 7, "velocity": 74}, {"time": 2026, "pitch": 58, "duration": 6, "velocity": 74}, {"time": 2026, "pitch": 63, "duration": 6, "velocity": 78}, {"time": 2026, "pitch": 67, "duration": 8, "velocity": 86}, {"time": 2032, "pitch": 65, "duration": 2, "velocity": 78}, {"time": 2038, "pitch": 46, "duration": 18, "velocity": 82}, {"time": 2038, "pitch": 58, "duration": 6, "velocity": 62}, {"time": 2038, "pitch": 61, "duration": 13, "velocity": 78}, {"time": 2038, "pitch": 65, "duration": 12, "velocity": 78}, {"time": 2044, "pitch": 53, "duration": 13, "velocity": 61}, {"time": 2050, "pitch": 58, "duration": 6, "velocity": 78}, {"time": 2056, "pitch": 61, "duration": 4, "velocity": 79}, {"time": 2062, "pitch": 39, "duration": 11, "velocity": 79}, {"time": 2062, "pitch": 56, "duration": 5, "velocity": 75}, {"time": 2062, "pitch": 61, "duration": 6, "velocity": 62}, {"time": 2062, "pitch": 65, "duration": 5, "velocity": 80}, {"time": 2068, "pitch": 46, "duration": 6, "velocity": 74}, {"time": 2074, "pitch": 51, "duration": 6, "velocity": 60}, {"time": 2074, "pitch": 58, "duration": 6, "velocity": 75}, {"time": 2074, "pitch": 63, "duration": 6, "velocity": 78}, {"time": 2074, "pitch": 67, "duration": 5, "velocity": 81}, {"time": 2080, "pitch": 53, "duration": 2, "velocity": 69}, {"time": 2086, "pitch": 44, "duration": 19, "velocity": 79}, {"time": 2086, "pitch": 60, "duration": 9, "velocity": 76}, {"time": 2086, "pitch": 63, "duration": 10, "velocity": 80}, {"time": 2086, "pitch": 68, "duration": 13, "velocity": 81}, {"time": 2092, "pitch": 51, "duration": 17, "velocity": 68}, {"time": 2098, "pitch": 56, "duration": 7, "velocity": 72}, {"time": 2101, "pitch": 60, "duration": 4, "velocity": 69}, {"time": 2104, "pitch": 61, "duration": 2, "velocity": 72}, {"time": 2107, "pitch": 63, "duration": 2, "velocity": 68}, {"time": 2110, "pitch": 46, "duration": 10, "velocity": 81}, {"time": 2110, "pitch": 56, "duration": 7, "velocity": 75}, {"time": 2110, "pitch": 61, "duration": 7, "velocity": 80}, {"time": 2116, "pitch": 53, "duration": 7, "velocity": 56}, {"time": 2122, "pitch": 48, "duration": 6, "velocity": 82}, {"time": 2122, "pitch": 56, "duration": 3, "velocity": 80}, {"time": 2122, "pitch": 63, "duration": 5, "velocity": 84}, {"time": 2128, "pitch": 56, "duration": 4, "velocity": 78}, {"time": 2134, "pitch": 49, "duration": 18, "velocity": 80}, {"time": 2134, "pitch": 61, "duration": 4, "velocity": 84}, {"time": 2134, "pitch": 65, "duration": 5, "velocity": 80}, {"time": 2140, "pitch": 56, "duration": 7, "velocity": 57}, {"time": 2146, "pitch": 61, "duration": 6, "velocity": 56}, {"time": 2146, "pitch": 65, "duration": 6, "velocity": 73}, {"time": 2146, "pitch": 73, "duration": 5, "velocity": 90}, {"time": 2152, "pitch": 56, "duration": 6, "velocity": 78}, {"time": 2152, "pitch": 73, "duration": 7, "velocity": 81}, {"time": 2158, "pitch": 49, "duration": 17, "velocity": 81}, {"time": 2158, "pitch": 63, "duration": 6, "velocity": 69}, {"time": 2158, "pitch": 70, "duration": 8, "velocity": 84}, {"time": 2164, "pitch": 58, "duration": 11, "velocity": 69}, {"time": 2170, "pitch": 60, "duration": 3, "velocity": 63}, {"time": 2170, "pitch": 61, "duration": 2, "velocity": 60}, {"time": 2173, "pitch": 67, "duration": 3, "velocity": 78}, {"time": 2176, "pitch": 68, "duration": 2, "velocity": 80}, {"time": 2179, "pitch": 70, "duration": 1, "velocity": 80}, {"time": 2182, "pitch": 48, "duration": 19, "velocity": 80}, {"time": 2182, "pitch": 58, "duration": 6, "velocity": 62}, {"time": 2182, "pitch": 63, "duration": 6, "velocity": 79}, {"time": 2188, "pitch": 55, "duration": 7, "velocity": 76}, {"time": 2194, "pitch": 58, "duration": 6, "velocity": 79}, {"time": 2194, "pitch": 67, "duration": 8, "velocity": 86}, {"time": 2200, "pitch": 55, "duration": 1, "velocity": 80}, {"time": 2206, "pitch": 41, "duration": 12, "velocity": 83}, {"time": 2206, "pitch": 60, "duration": 7, "velocity": 79}, {"time": 2206, "pitch": 68, "duration": 6, "velocity": 81}, {"time": 2212, "pitch": 53, "duration": 7, "velocity": 53}, {"time": 2218, "pitch": 39, "duration": 12, "velocity": 83}, {"time": 2218, "pitch": 58, "duration": 3, "velocity": 77}, {"time": 2218, "pitch": 67, "duration": 4, "velocity": 90}, {"time": 2224, "pitch": 53, "duration": 3, "velocity": 61}, {"time": 2224, "pitch": 65, "duration": 4, "velocity": 80}, {"time": 2230, "pitch": 46, "duration": 19, "velocity": 69}, {"time": 2230, "pitch": 56, "duration": 5, "velocity": 74}, {"time": 2230, "pitch": 61, "duration": 5, "velocity": 80}, {"time": 2236, "pitch": 51, "duration": 8, "velocity": 39}, {"time": 2242, "pitch": 56, "duration": 6, "velocity": 73}, {"time": 2242, "pitch": 61, "duration": 5, "velocity": 70}, {"time": 2242, "pitch": 65, "duration": 6, "velocity": 75}, {"time": 2248, "pitch": 51, "duration": 1, "velocity": 79}, {"time": 2254, "pitch": 39, "duration": 17, "velocity": 79}, {"time": 2254, "pitch": 58, "duration": 6, "velocity": 74}, {"time": 2254, "pitch": 63, "duration": 6, "velocity": 81}, {"time": 2254, "pitch": 67, "duration": 5, "velocity": 81}, {"time": 2260, "pitch": 51, "duration": 8, "velocity": 45}, {"time": 2266, "pitch": 56, "duration": 6, "velocity": 77}, {"time": 2266, "pitch": 61, "duration": 6, "velocity": 78}, {"time": 2266, "pitch": 65, "duration": 6, "velocity": 57}, {"time": 2266, "pitch": 68, "duration": 5, "velocity": 52}, {"time": 2272, "pitch": 51, "duration": 4, "velocity": 58}, {"time": 2278, "pitch": 44, "duration": 10, "velocity": 73}, {"time": 2278, "pitch": 72, "duration": 11, "velocity": 63}, {"time": 2284, "pitch": 51, "duration": 5, "velocity": 53}, {"time": 2284, "pitch": 63, "duration": 6, "velocity": 39}, {"time": 2290, "pitch": 56, "duration": 6, "velocity": 42}, {"time": 2290, "pitch": 70, "duration": 4, "velocity": 68}, {"time": 2296, "pitch": 58, "duration": 13, "velocity": 35}, {"time": 2296, "pitch": 68, "duration": 5, "velocity": 62}, {"time": 2302, "pitch": 60, "duration": 6, "velocity": 62}, {"time": 2302, "pitch": 63, "duration": 5, "velocity": 57}, {"time": 2308, "pitch": 61, "duration": 5, "velocity": 63}, {"time": 2314, "pitch": 60, "duration": 5, "velocity": 68}, {"time": 2320, "pitch": 56, "duration": 8, "velocity": 69}, {"time": 2326, "pitch": 49, "duration": 20, "velocity": 62}, {"time": 2326, "pitch": 65, "duration": 6, "velocity": 73}, {"time": 2332, "pitch": 53, "duration": 19, "velocity": 71}, {"time": 2338, "pitch": 61, "duration": 5, "velocity": 73}, {"time": 2344, "pitch": 65, "duration": 6, "velocity": 68}, {"time": 2350, "pitch": 51, "duration": 17, "velocity": 59}, {"time": 2350, "pitch": 58, "duration": 8, "velocity": 53}, {"time": 2350, "pitch": 67, "duration": 9, "velocity": 79}, {"time": 2356, "pitch": 55, "duration": 10, "velocity": 72}, {"time": 2362, "pitch": 65, "duration": 5, "velocity": 54}, {"time": 2374, "pitch": 44, "duration": 11, "velocity": 63}, {"time": 2374, "pitch": 58, "duration": 7, "velocity": 59}, {"time": 2374, "pitch": 63, "duration": 8, "velocity": 71}, {"time": 2380, "pitch": 51, "duration": 18, "velocity": 56}, {"time": 2386, "pitch": 56, "duration": 8, "velocity": 67}, {"time": 2386, "pitch": 61, "duration": 7, "velocity": 73}, {"time": 2386, "pitch": 64, "duration": 8, "velocity": 79}, {"time": 2398, "pitch": 44, "duration": 23, "velocity": 72}, {"time": 2398, "pitch": 58, "duration": 14, "velocity": 48}, {"time": 2398, "pitch": 60, "duration": 14, "velocity": 68}, {"time": 2398, "pitch": 63, "duration": 15, "velocity": 63}, {"time": 2410, "pitch": 51, "duration": 9, "velocity": 22}, {"time": 2416, "pitch": 56, "duration": 4, "velocity": 11}, {"time": 2419, "pitch": 58, "duration": 2, "velocity": 54}, {"time": 2422, "pitch": 63, "duration": 2, "velocity": 58}, {"time": 2425, "pitch": 56, "duration": 17, "velocity": 62}, {"time": 2425, "pitch": 72, "duration": 8, "velocity": 77}, {"time": 2431, "pitch": 60, "duration": 11, "velocity": 78}, {"time": 2434, "pitch": 63, "duration": 6, "velocity": 69}, {"time": 2440, "pitch": 72, "duration": 4, "velocity": 69}, {"time": 2446, "pitch": 55, "duration": 18, "velocity": 63}, {"time": 2446, "pitch": 63, "duration": 7, "velocity": 59}, {"time": 2446, "pitch": 70, "duration": 6, "velocity": 79}, {"time": 2452, "pitch": 58, "duration": 11, "velocity": 69}, {"time": 2458, "pitch": 68, "duration": 6, "velocity": 69}, {"time": 2464, "pitch": 70, "duration": 5, "velocity": 71}, {"time": 2470, "pitch": 53, "duration": 16, "velocity": 60}, {"time": 2470, "pitch": 63, "duration": 11, "velocity": 47}, {"time": 2470, "pitch": 72, "duration": 5, "velocity": 73}, {"time": 2476, "pitch": 60, "duration": 9, "velocity": 73}, {"time": 2482, "pitch": 68, "duration": 8, "velocity": 79}, {"time": 2494, "pitch": 49, "duration": 18, "velocity": 62}, {"time": 2494, "pitch": 56, "duration": 6, "velocity": 63}, {"time": 2494, "pitch": 61, "duration": 6, "velocity": 79}, {"time": 2494, "pitch": 65, "duration": 8, "velocity": 75}, {"time": 2500, "pitch": 53, "duration": 12, "velocity": 31}, {"time": 2506, "pitch": 56, "duration": 6, "velocity": 58}, {"time": 2506, "pitch": 63, "duration": 5, "velocity": 72}, {"time": 2512, "pitch": 61, "duration": 3, "velocity": 79}, {"time": 2518, "pitch": 44, "duration": 17, "velocity": 77}, {"time": 2518, "pitch": 60, "duration": 14, "velocity": 76}, {"time": 2518, "pitch": 68, "duration": 13, "velocity": 84}, {"time": 2524, "pitch": 51, "duration": 12, "velocity": 73}, {"time": 2530, "pitch": 56, "duration": 6, "velocity": 68}, {"time": 2536, "pitch": 68, "duration": 4, "velocity": 83}, {"time": 2542, "pitch": 48, "duration": 17, "velocity": 83}, {"time": 2542, "pitch": 58, "duration": 7, "velocity": 76}, {"time": 2542, "pitch": 63, "duration": 8, "velocity": 82}, {"time": 2548, "pitch": 55, "duration": 11, "velocity": 72}, {"time": 2554, "pitch": 58, "duration": 7, "velocity": 76}, {"time": 2560, "pitch": 67, "duration": 5, "velocity": 82}, {"time": 2566, "pitch": 49, "duration": 40, "velocity": 76}, {"time": 2572, "pitch": 56, "duration": 27, "velocity": 76}, {"time": 2578, "pitch": 61, "duration": 24, "velocity": 69}, {"time": 2584, "pitch": 68, "duration": 7, "velocity": 82}, {"time": 2590, "pitch": 65, "duration": 11, "velocity": 69}, {"time": 2602, "pitch": 63, "duration": 5, "velocity": 68}, {"time": 2608, "pitch": 61, "duration": 4, "velocity": 60}, {"time": 2614, "pitch": 56, "duration": 16, "velocity": 56}, {"time": 2614, "pitch": 75, "duration": 5, "velocity": 73}, {"time": 2620, "pitch": 63, "duration": 11, "velocity": 48}, {"time": 2620, "pitch": 72, "duration": 6, "velocity": 60}, {"time": 2626, "pitch": 68, "duration": 3, "velocity": 60}, {"time": 2626, "pitch": 72, "duration": 1, "velocity": 80}, {"time": 2632, "pitch": 75, "duration": 5, "velocity": 83}, {"time": 2638, "pitch": 55, "duration": 17, "velocity": 69}, {"time": 2638, "pitch": 72, "duration": 11, "velocity": 79}, {"time": 2644, "pitch": 63, "duration": 10, "velocity": 63}, {"time": 2650, "pitch": 67, "duration": 6, "velocity": 82}, {"time": 2656, "pitch": 70, "duration": 3, "velocity": 78}, {"time": 2662, "pitch": 53, "duration": 15, "velocity": 69}, {"time": 2662, "pitch": 68, "duration": 9, "velocity": 80}, {"time": 2668, "pitch": 60, "duration": 9, "velocity": 25}, {"time": 2674, "pitch": 63, "duration": 5, "velocity": 69}, {"time": 2674, "pitch": 67, "duration": 5, "velocity": 67}, {"time": 2680, "pitch": 68, "duration": 6, "velocity": 76}, {"time": 2686, "pitch": 49, "duration": 18, "velocity": 69}, {"time": 2686, "pitch": 61, "duration": 9, "velocity": 76}, {"time": 2686, "pitch": 65, "duration": 11, "velocity": 78}, {"time": 2692, "pitch": 56, "duration": 10, "velocity": 10}, {"time": 2698, "pitch": 63, "duration": 6, "velocity": 75}, {"time": 2704, "pitch": 65, "duration": 6, "velocity": 76}, {"time": 2710, "pitch": 44, "duration": 16, "velocity": 80}, {"time": 2710, "pitch": 60, "duration": 6, "velocity": 61}, {"time": 2710, "pitch": 63, "duration": 5, "velocity": 79}, {"time": 2716, "pitch": 51, "duration": 10, "velocity": 57}, {"time": 2722, "pitch": 56, "duration": 4, "velocity": 54}, {"time": 2722, "pitch": 58, "duration": 3, "velocity": 68}, {"time": 2722, "pitch": 63, "duration": 4, "velocity": 76}, {"time": 2734, "pitch": 39, "duration": 18, "velocity": 77}, {"time": 2734, "pitch": 56, "duration": 4, "velocity": 74}, {"time": 2734, "pitch": 63, "duration": 5, "velocity": 80}, {"time": 2740, "pitch": 51, "duration": 17, "velocity": 55}, {"time": 2746, "pitch": 55, "duration": 9, "velocity": 75}, {"time": 2746, "pitch": 61, "duration": 6, "velocity": 81}, {"time": 2752, "pitch": 58, "duration": 5, "velocity": 53}, {"time": 2758, "pitch": 44, "duration": 19, "velocity": 76}, {"time": 2758, "pitch": 56, "duration": 6, "velocity": 78}, {"time": 2758, "pitch": 60, "duration": 6, "velocity": 80}, {"time": 2764, "pitch": 51, "duration": 6, "velocity": 61}, {"time": 2770, "pitch": 56, "duration": 6, "velocity": 47}, {"time": 2770, "pitch": 61, "duration": 5, "velocity": 78}, {"time": 2776, "pitch": 51, "duration": 6, "velocity": 56}, {"time": 2776, "pitch": 63, "duration": 5, "velocity": 74}, {"time": 2782, "pitch": 44, "duration": 17, "velocity": 77}, {"time": 2782, "pitch": 58, "duration": 4, "velocity": 58}, {"time": 2782, "pitch": 60, "duration": 10, "velocity": 59}, {"time": 2788, "pitch": 51, "duration": 11, "velocity": 61}, {"time": 2794, "pitch": 56, "duration": 3, "velocity": 52}, {"time": 2794, "pitch": 58, "duration": 5, "velocity": 71}, {"time": 2794, "pitch": 61, "duration": 5, "velocity": 76}, {"time": 2800, "pitch": 60, "duration": 4, "velocity": 62}, {"time": 2800, "pitch": 63, "duration": 4, "velocity": 71}, {"time": 2809, "pitch": 56, "duration": 17, "velocity": 62}, {"time": 2809, "pitch": 72, "duration": 8, "velocity": 77}, {"time": 2815, "pitch": 60, "duration": 11, "velocity": 78}, {"time": 2818, "pitch": 63, "duration": 6, "velocity": 69}, {"time": 2824, "pitch": 72, "duration": 4, "velocity": 69}, {"time": 2830, "pitch": 55, "duration": 18, "velocity": 63}, {"time": 2830, "pitch": 63, "duration": 7, "velocity": 59}, {"time": 2830, "pitch": 72, "duration": 6, "velocity": 79}, {"time": 2836, "pitch": 58, "duration": 11, "velocity": 69}, {"time": 2842, "pitch": 68, "duration": 6, "velocity": 69}, {"time": 2848, "pitch": 70, "duration": 5, "velocity": 71}, {"time": 2854, "pitch": 53, "duration": 16, "velocity": 60}, {"time": 2854, "pitch": 63, "duration": 11, "velocity": 47}, {"time": 2854, "pitch": 72, "duration": 5, "velocity": 73}, {"time": 2860, "pitch": 60, "duration": 9, "velocity": 73}, {"time": 2866, "pitch": 70, "duration": 8, "velocity": 79}, {"time": 2878, "pitch": 49, "duration": 18, "velocity": 62}, {"time": 2878, "pitch": 56, "duration": 6, "velocity": 63}, {"time": 2878, "pitch": 61, "duration": 6, "velocity": 79}, {"time": 2878, "pitch": 65, "duration": 8, "velocity": 75}, {"time": 2884, "pitch": 53, "duration": 12, "velocity": 31}, {"time": 2890, "pitch": 56, "duration": 6, "velocity": 58}, {"time": 2890, "pitch": 63, "duration": 5, "velocity": 72}, {"time": 2896, "pitch": 61, "duration": 3, "velocity": 79}, {"time": 2902, "pitch": 44, "duration": 17, "velocity": 77}, {"time": 2902, "pitch": 60, "duration": 14, "velocity": 76}, {"time": 2902, "pitch": 68, "duration": 13, "velocity": 84}, {"time": 2908, "pitch": 51, "duration": 12, "velocity": 73}, {"time": 2914, "pitch": 56, "duration": 6, "velocity": 68}, {"time": 2920, "pitch": 68, "duration": 4, "velocity": 83}, {"time": 2926, "pitch": 48, "duration": 17, "velocity": 83}, {"time": 2926, "pitch": 58, "duration": 7, "velocity": 76}, {"time": 2926, "pitch": 63, "duration": 8, "velocity": 82}, {"time": 2932, "pitch": 55, "duration": 11, "velocity": 72}, {"time": 2938, "pitch": 58, "duration": 7, "velocity": 76}, {"time": 2944, "pitch": 67, "duration": 5, "velocity": 82}, {"time": 2950, "pitch": 49, "duration": 40, "velocity": 76}, {"time": 2956, "pitch": 56, "duration": 27, "velocity": 76}, {"time": 2962, "pitch": 61, "duration": 24, "velocity": 69}, {"time": 2968, "pitch": 68, "duration": 7, "velocity": 82}, {"time": 2974, "pitch": 63, "duration": 2, "velocity": 56}, {"time": 2974, "pitch": 65, "duration": 11, "velocity": 69}, {"time": 2986, "pitch": 63, "duration": 5, "velocity": 68}, {"time": 2992, "pitch": 61, "duration": 4, "velocity": 60}, {"time": 2998, "pitch": 56, "duration": 16, "velocity": 56}, {"time": 2998, "pitch": 75, "duration": 5, "velocity": 73}, {"time": 3004, "pitch": 63, "duration": 11, "velocity": 48}, {"time": 3004, "pitch": 72, "duration": 6, "velocity": 60}, {"time": 3010, "pitch": 68, "duration": 3, "velocity": 60}, {"time": 3010, "pitch": 75, "duration": 5, "velocity": 80}, {"time": 3016, "pitch": 75, "duration": 5, "velocity": 83}, {"time": 3022, "pitch": 55, "duration": 17, "velocity": 69}, {"time": 3022, "pitch": 72, "duration": 11, "velocity": 79}, {"time": 3028, "pitch": 63, "duration": 10, "velocity": 63}, {"time": 3034, "pitch": 67, "duration": 6, "velocity": 82}, {"time": 3040, "pitch": 70, "duration": 3, "velocity": 78}, {"time": 3046, "pitch": 53, "duration": 15, "velocity": 69}, {"time": 3046, "pitch": 68, "duration": 9, "velocity": 80}, {"time": 3052, "pitch": 60, "duration": 9, "velocity": 25}, {"time": 3058, "pitch": 63, "duration": 5, "velocity": 69}, {"time": 3058, "pitch": 67, "duration": 5, "velocity": 67}, {"time": 3064, "pitch": 68, "duration": 6, "velocity": 76}, {"time": 3070, "pitch": 49, "duration": 18, "velocity": 69}, {"time": 3070, "pitch": 61, "duration": 9, "velocity": 76}, {"time": 3070, "pitch": 65, "duration": 11, "velocity": 78}, {"time": 3076, "pitch": 56, "duration": 10, "velocity": 10}, {"time": 3082, "pitch": 63, "duration": 6, "velocity": 75}, {"time": 3088, "pitch": 65, "duration": 6, "velocity": 76}, {"time": 3094, "pitch": 49, "duration": 19, "velocity": 73}, {"time": 3100, "pitch": 56, "duration": 17, "velocity": 73}, {"time": 3106, "pitch": 61, "duration": 10, "velocity": 72}, {"time": 3112, "pitch": 65, "duration": 6, "velocity": 59}, {"time": 3118, "pitch": 49, "duration": 11, "velocity": 70}, {"time": 3118, "pitch": 67, "duration": 11, "velocity": 79}, {"time": 3124, "pitch": 55, "duration": 13, "velocity": 79}, {"time": 3130, "pitch": 58, "duration": 7, "velocity": 77}, {"time": 3136, "pitch": 65, "duration": 6, "velocity": 36}, {"time": 3142, "pitch": 53, "duration": 18, "velocity": 53}, {"time": 3142, "pitch": 60, "duration": 5, "velocity": 61}, {"time": 3142, "pitch": 68, "duration": 7, "velocity": 54}, {"time": 3148, "pitch": 56, "duration": 17, "velocity": 58}, {"time": 3154, "pitch": 60, "duration": 9, "velocity": 58}, {"time": 3154, "pitch": 67, "duration": 5, "velocity": 69}, {"time": 3154, "pitch": 79, "duration": 6, "velocity": 80}, {"time": 3160, "pitch": 68, "duration": 5, "velocity": 76}, {"time": 3160, "pitch": 75, "duration": 5, "velocity": 69}, {"time": 3166, "pitch": 49, "duration": 17, "velocity": 69}, {"time": 3166, "pitch": 73, "duration": 5, "velocity": 76}, {"time": 3172, "pitch": 56, "duration": 11, "velocity": 42}, {"time": 3178, "pitch": 61, "duration": 5, "velocity": 33}, {"time": 3178, "pitch": 65, "duration": 6, "velocity": 61}, {"time": 3178, "pitch": 73, "duration": 5, "velocity": 80}, {"time": 3184, "pitch": 72, "duration": 4, "velocity": 75}, {"time": 3190, "pitch": 56, "duration": 18, "velocity": 80}, {"time": 3196, "pitch": 60, "duration": 11, "velocity": 78}, {"time": 3202, "pitch": 63, "duration": 6, "velocity": 76}, {"time": 3208, "pitch": 72, "duration": 6, "velocity": 75}, {"time": 3214, "pitch": 51, "duration": 17, "velocity": 77}, {"time": 3214, "pitch": 70, "duration": 12, "velocity": 83}, {"time": 3220, "pitch": 58, "duration": 11, "velocity": 71}, {"time": 3226, "pitch": 63, "duration": 3, "velocity": 62}, {"time": 3226, "pitch": 67, "duration": 7, "velocity": 83}, {"time": 3238, "pitch": 44, "duration": 42, "velocity": 81}, {"time": 3238, "pitch": 60, "duration": 12, "velocity": 40}, {"time": 3238, "pitch": 68, "duration": 13, "velocity": 75}, {"time": 3244, "pitch": 51, "duration": 36, "velocity": 68}, {"time": 3250, "pitch": 56, "duration": 11, "velocity": 62}, {"time": 3262, "pitch": 61, "duration": 5, "velocity": 72}, {"time": 3268, "pitch": 63, "duration": 5, "velocity": 76}, {"time": 3274, "pitch": 56, "duration": 6, "velocity": 50}, {"time": 3274, "pitch": 60, "duration": 6, "velocity": 63}, {"time": 3274, "pitch": 68, "duration": 7, "velocity": 78}, {"time": 3280, "pitch": 63, "duration": 4, "velocity": 72}, {"time": 3286, "pitch": 49, "duration": 16, "velocity": 79}, {"time": 3292, "pitch": 56, "duration": 13, "velocity": 80}, {"time": 3298, "pitch": 61, "duration": 5, "velocity": 76}, {"time": 3304, "pitch": 68, "duration": 4, "velocity": 79}, {"time": 3310, "pitch": 49, "duration": 16, "velocity": 73}, {"time": 3310, "pitch": 70, "duration": 10, "velocity": 83}, {"time": 3316, "pitch": 58, "duration": 11, "velocity": 47}, {"time": 3322, "pitch": 61, "duration": 5, "velocity": 46}, {"time": 3322, "pitch": 72, "duration": 4, "velocity": 75}, {"time": 3334, "pitch": 53, "duration": 17, "velocity": 74}, {"time": 3334, "pitch": 65, "duration": 5, "velocity": 61}, {"time": 3334, "pitch": 68, "duration": 5, "velocity": 75}, {"time": 3334, "pitch": 72, "duration": 5, "velocity": 77}, {"time": 3340, "pitch": 60, "duration": 12, "velocity": 62}, {"time": 3346, "pitch": 79, "duration": 5, "velocity": 61}, {"time": 3352, "pitch": 77, "duration": 6, "velocity": 70}, {"time": 3358, "pitch": 49, "duration": 17, "velocity": 72}, {"time": 3358, "pitch": 75, "duration": 5, "velocity": 76}, {"time": 3364, "pitch": 56, "duration": 12, "velocity": 50}, {"time": 3370, "pitch": 61, "duration": 5, "velocity": 54}, {"time": 3370, "pitch": 65, "duration": 5, "velocity": 46}, {"time": 3370, "pitch": 68, "duration": 6, "velocity": 71}, {"time": 3376, "pitch": 70, "duration": 6, "velocity": 80}, {"time": 3382, "pitch": 44, "duration": 94, "velocity": 73}, {"time": 3382, "pitch": 60, "duration": 9, "velocity": 59}, {"time": 3382, "pitch": 63, "duration": 6, "velocity": 48}, {"time": 3382, "pitch": 68, "duration": 9, "velocity": 73}, {"time": 3388, "pitch": 56, "duration": 37, "velocity": 56}, {"time": 3394, "pitch": 61, "duration": 5, "velocity": 78}, {"time": 3400, "pitch": 63, "duration": 6, "velocity": 63}, {"time": 3406, "pitch": 60, "duration": 2, "velocity": 49}, {"time": 3406, "pitch": 68, "duration": 4, "velocity": 68}, {"time": 3412, "pitch": 70, "duration": 5, "velocity": 72}, {"time": 3418, "pitch": 72, "duration": 2, "velocity": 71}, {"time": 3424, "pitch": 73, "duration": 1, "velocity": 69}, {"time": 3430, "pitch": 56, "duration": 44, "velocity": 30}, {"time": 3430, "pitch": 72, "duration": 16, "velocity": 53}, {"time": 3430, "pitch": 75, "duration": 16, "velocity": 36}, {"time": 3430, "pitch": 80, "duration": 1, "velocity": 57}, {"time": 3445, "pitch": 79, "duration": 6, "velocity": 78}, {"time": 3451, "pitch": 80, "duration": 3, "velocity": 75}, {"time": 3457, "pitch": 84, "duration": 2, "velocity": 69}, {"time": 3463, "pitch": 87, "duration": 7, "velocity": 72}, {"time": 3472, "pitch": 91, "duration": 4, "velocity": 33}], "annotations": [{"time": 21, "annotation": {"number": 64, "value": 127}, "group": "control_change"}, {"time": 46, "annotation": {"number": 64, "value": 0}, "group": "control_change"}, {"time": 48, "annotation": {"number": 64, "value": 127}, "group": "control_change"}, {"time": 70, "annotation": {"number": 64, "value": 0}, "group": "control_change"}, {"time": 73, "annotation": {"number": 64, "value": 127}, "group": "control_change"}, {"time": 93, "annotation": {"number": 64, "value": 0}, "group": "control_change"}, {"time": 95, "annotation": {"number": 64, "value": 127}, "group": "control_change"}, {"time": 104, "annotation": {"number": 64, "value": 0}, "group": "control_change"}, {"time": 106, "annotation": {"number": 64, "value": 127}, "group": "control_change"}, {"time": 117, "annotation": {"number": 64, "value": 0}, "group": "control_change"}, {"time": 119, "annotation": {"number": 64, "value": 127}, "group": "control_change"}, {"time": 142, "annotation": {"number": 64, "value": 0}, "group": "control_change"}, {"time": 144, "annotation": {"number": 64, "value": 127}, "group": "control_change"}, {"time": 164, "annotation": {"number": 64, "value": 0}, "group": "control_change"}, {"time": 166, "annotation": {"number": 64, "value": 127}, "group": "control_change"}, {"time": 190, "annotation": {"number": 64, "value": 0}, "group": "control_change"}, {"time": 191, "annotation": {"number": 64, "value": 127}, "group": "control_change"}, {"time": 202, "annotation": {"number": 64, "value": 0}, "group": "control_change"}, {"time": 203, "annotation": {"number": 64, "value": 127}, "group": "control_change"}, {"time": 214, "annotation": {"number": 64, "value": 0}, "group": "control_change"}, {"time": 216, "annotation": {"number": 64, "value": 127}, "group": "control_change"}, {"time": 238, "annotation": {"number": 64, "value": 0}, "group": "control_change"}, {"time": 240, "annotation": {"number": 64, "value": 127}, "group": "control_change"}, {"time": 261, "annotation": {"number": 64, "value": 0}, "group": "control_change"}, {"time": 263, "annotation": {"number": 64, "value": 127}, "group": "control_change"}, {"time": 284, "annotation": {"number": 64, "value": 0}, "group": "control_change"}, {"time": 286, "annotation": {"number": 64, "value": 127}, "group": "control_change"}, {"time": 286, "annotation": {"number": 64, "value": 0}, "group": "control_change"}, {"time": 309, "annotation": {"number": 64, "value": 0}, "group": "control_change"}, {"time": 311, "annotation": {"number": 64, "value": 127}, "group": "control_change"}, {"time": 333, "annotation": {"number": 64, "value": 0}, "group": "control_change"}, {"time": 335, "annotation": {"number": 64, "value": 127}, "group": "control_change"}, {"time": 357, "annotation": {"number": 64, "value": 0}, "group": "control_change"}, {"time": 358, "annotation": {"number": 64, "value": 127}, "group": "control_change"}, {"time": 370, "annotation": {"number": 64, "value": 0}, "group": "control_change"}, {"time": 374, "annotation": {"number": 64, "value": 127}, "group": "control_change"}, {"time": 382, "annotation": {"number": 64, "value": 0}, "group": "control_change"}, {"time": 384, "annotation": {"number": 64, "value": 127}, "group": "control_change"}, {"time": 405, "annotation": {"number": 64, "value": 0}, "group": "control_change"}, {"time": 405, "annotation": {"number": 64, "value": 127}, "group": "control_change"}, {"time": 431, "annotation": {"number": 64, "value": 0}, "group": "control_change"}, {"time": 436, "annotation": {"number": 64, "value": 127}, "group": "control_change"}, {"time": 453, "annotation": {"number": 64, "value": 0}, "group": "control_change"}, {"time": 456, "annotation": {"number": 64, "value": 127}, "group": "control_change"}, {"time": 502, "annotation": {"number": 64, "value": 0}, "group": "control_change"}, {"time": 504, "annotation": {"number": 64, "value": 127}, "group": "control_change"}, {"time": 526, "annotation": {"number": 64, "value": 0}, "group": "control_change"}, {"time": 528, "annotation": {"number": 64, "value": 127}, "group": "control_change"}, {"time": 550, "annotation": {"number": 64, "value": 0}, "group": "control_change"}, {"time": 550, "annotation": {"number": 64, "value": 127}, "group": "control_change"}, {"time": 553, "annotation": {"number": 64, "value": 127}, "group": "control_change"}, {"time": 598, "annotation": {"number": 64, "value": 0}, "group": "control_change"}, {"time": 601, "annotation": {"number": 64, "value": 127}, "group": "control_change"}, {"time": 622, "annotation": {"number": 64, "value": 0}, "group": "control_change"}, {"time": 624, "annotation": {"number": 64, "value": 127}, "group": "control_change"}, {"time": 645, "annotation": {"number": 64, "value": 0}, "group": "control_change"}, {"time": 648, "annotation": {"number": 64, "value": 127}, "group": "control_change"}, {"time": 694, "annotation": {"number": 64, "value": 0}, "group": "control_change"}, {"time": 697, "annotation": {"number": 64, "value": 127}, "group": "control_change"}, {"time": 718, "annotation": {"number": 64, "value": 0}, "group": "control_change"}, {"time": 720, "annotation": {"number": 64, "value": 127}, "group": "control_change"}, {"time": 742, "annotation": {"number": 64, "value": 0}, "group": "control_change"}, {"time": 745, "annotation": {"number": 64, "value": 127}, "group": "control_change"}, {"time": 765, "annotation": {"number": 64, "value": 0}, "group": "control_change"}, {"time": 766, "annotation": {"number": 64, "value": 127}, "group": "control_change"}, {"time": 768, "annotation": {"number": 64, "value": 127}, "group": "control_change"}, {"time": 776, "annotation": {"number": 64, "value": 0}, "group": "control_change"}, {"time": 790, "annotation": {"number": 64, "value": 0}, "group": "control_change"}, {"time": 793, "annotation": {"number": 64, "value": 127}, "group": "control_change"}, {"time": 813, "annotation": {"number": 64, "value": 0}, "group": "control_change"}, {"time": 816, "annotation": {"number": 64, "value": 127}, "group": "control_change"}, {"time": 837, "annotation": {"number": 64, "value": 0}, "group": "control_change"}, {"time": 839, "annotation": {"number": 64, "value": 127}, "group": "control_change"}, {"time": 860, "annotation": {"number": 64, "value": 0}, "group": "control_change"}, {"time": 861, "annotation": {"number": 64, "value": 127}, "group": "control_change"}, {"time": 873, "annotation": {"number": 64, "value": 0}, "group": "control_change"}, {"time": 875, "annotation": {"number": 64, "value": 127}, "group": "control_change"}, {"time": 887, "annotation": {"number": 64, "value": 0}, "group": "control_change"}, {"time": 889, "annotation": {"number": 64, "value": 127}, "group": "control_change"}, {"time": 911, "annotation": {"number": 64, "value": 0}, "group": "control_change"}, {"time": 914, "annotation": {"number": 64, "value": 127}, "group": "control_change"}, {"time": 934, "annotation": {"number": 64, "value": 0}, "group": "control_change"}, {"time": 937, "annotation": {"number": 64, "value": 127}, "group": "control_change"}, {"time": 959, "annotation": {"number": 64, "value": 0}, "group": "control_change"}, {"time": 961, "annotation": {"number": 64, "value": 127}, "group": "control_change"}, {"time": 970, "annotation": {"number": 64, "value": 0}, "group": "control_change"}, {"time": 972, "annotation": {"number": 64, "value": 127}, "group": "control_change"}, {"time": 981, "annotation": {"number": 64, "value": 0}, "group": "control_change"}, {"time": 983, "annotation": {"number": 64, "value": 127}, "group": "control_change"}, {"time": 1005, "annotation": {"number": 64, "value": 0}, "group": "control_change"}, {"time": 1007, "annotation": {"number": 64, "value": 127}, "group": "control_change"}, {"time": 1030, "annotation": {"number": 64, "value": 0}, "group": "control_change"}, {"time": 1032, "annotation": {"number": 64, "value": 127}, "group": "control_change"}, {"time": 1053, "annotation": {"number": 64, "value": 0}, "group": "control_change"}, {"time": 1055, "annotation": {"number": 64, "value": 127}, "group": "control_change"}, {"time": 1078, "annotation": {"number": 64, "value": 0}, "group": "control_change"}, {"time": 1080, "annotation": {"number": 64, "value": 127}, "group": "control_change"}, {"time": 1102, "annotation": {"number": 64, "value": 0}, "group": "control_change"}, {"time": 1104, "annotation": {"number": 64, "value": 127}, "group": "control_change"}, {"time": 1124, "annotation": {"number": 64, "value": 0}, "group": "control_change"}, {"time": 1126, "annotation": {"number": 64, "value": 127}, "group": "control_change"}, {"time": 1138, "annotation": {"number": 64, "value": 0}, "group": "control_change"}, {"time": 1141, "annotation": {"number": 64, "value": 127}, "group": "control_change"}, {"time": 1150, "annotation": {"number": 64, "value": 0}, "group": "control_change"}, {"time": 1152, "annotation": {"number": 64, "value": 127}, "group": "control_change"}, {"time": 1173, "annotation": {"number": 64, "value": 127}, "group": "control_change"}, {"time": 1199, "annotation": {"number": 64, "value": 0}, "group": "control_change"}, {"time": 1204, "annotation": {"number": 64, "value": 127}, "group": "control_change"}, {"time": 1221, "annotation": {"number": 64, "value": 0}, "group": "control_change"}, {"time": 1224, "annotation": {"number": 64, "value": 127}, "group": "control_change"}, {"time": 1270, "annotation": {"number": 64, "value": 0}, "group": "control_change"}, {"time": 1272, "annotation": {"number": 64, "value": 127}, "group": "control_change"}, {"time": 1294, "annotation": {"number": 64, "value": 0}, "group": "control_change"}, {"time": 1296, "annotation": {"number": 64, "value": 127}, "group": "control_change"}, {"time": 1318, "annotation": {"number": 64, "value": 0}, "group": "control_change"}, {"time": 1318, "annotation": {"number": 64, "value": 127}, "group": "control_change"}, {"time": 1321, "annotation": {"number": 64, "value": 127}, "group": "control_change"}, {"time": 1366, "annotation": {"number": 64, "value": 0}, "group": "control_change"}, {"time": 1369, "annotation": {"number": 64, "value": 127}, "group": "control_change"}, {"time": 1390, "annotation": {"number": 64, "value": 0}, "group": "control_change"}, {"time": 1392, "annotation": {"number": 64, "value": 127}, "group": "control_change"}, {"time": 1413, "annotation": {"number": 64, "value": 0}, "group": "control_change"}, {"time": 1416, "annotation": {"number": 64, "value": 127}, "group": "control_change"}, {"time": 1462, "annotation": {"number": 64, "value": 0}, "group": "control_change"}, {"time": 1465, "annotation": {"number": 64, "value": 127}, "group": "control_change"}, {"time": 1486, "annotation": {"number": 64, "value": 0}, "group": "control_change"}, {"time": 1488, "annotation": {"number": 64, "value": 127}, "group": "control_change"}, {"time": 1510, "annotation": {"number": 64, "value": 0}, "group": "control_change"}, {"time": 1513, "annotation": {"number": 64, "value": 127}, "group": "control_change"}, {"time": 1533, "annotation": {"number": 64, "value": 0}, "group": "control_change"}, {"time": 1534, "annotation": {"number": 64, "value": 127}, "group": "control_change"}, {"time": 1536, "annotation": {"number": 64, "value": 127}, "group": "control_change"}, {"time": 1544, "annotation": {"number": 64, "value": 0}, "group": "control_change"}, {"time": 1558, "annotation": {"number": 64, "value": 0}, "group": "control_change"}, {"time": 1561, "annotation": {"number": 64, "value": 127}, "group": "control_change"}, {"time": 1581, "annotation": {"number": 64, "value": 0}, "group": "control_change"}, {"time": 1584, "annotation": {"number": 64, "value": 127}, "group": "control_change"}, {"time": 1605, "annotation": {"number": 64, "value": 0}, "group": "control_change"}, {"time": 1607, "annotation": {"number": 64, "value": 127}, "group": "control_change"}, {"time": 1628, "annotation": {"number": 64, "value": 0}, "group": "control_change"}, {"time": 1629, "annotation": {"number": 64, "value": 127}, "group": "control_change"}, {"time": 1641, "annotation": {"number": 64, "value": 0}, "group": "control_change"}, {"time": 1643, "annotation": {"number": 64, "value": 127}, "group": "control_change"}, {"time": 1655, "annotation": {"number": 64, "value": 0}, "group": "control_change"}, {"time": 1657, "annotation": {"number": 64, "value": 127}, "group": "control_change"}, {"time": 1679, "annotation": {"number": 64, "value": 0}, "group": "control_change"}, {"time": 1682, "annotation": {"number": 64, "value": 127}, "group": "control_change"}, {"time": 1702, "annotation": {"number": 64, "value": 0}, "group": "control_change"}, {"time": 1705, "annotation": {"number": 64, "value": 127}, "group": "control_change"}, {"time": 1727, "annotation": {"number": 64, "value": 0}, "group": "control_change"}, {"time": 1729, "annotation": {"number": 64, "value": 127}, "group": "control_change"}, {"time": 1738, "annotation": {"number": 64, "value": 0}, "group": "control_change"}, {"time": 1740, "annotation": {"number": 64, "value": 127}, "group": "control_change"}, {"time": 1749, "annotation": {"number": 64, "value": 0}, "group": "control_change"}, {"time": 1751, "annotation": {"number": 64, "value": 127}, "group": "control_change"}, {"time": 1773, "annotation": {"number": 64, "value": 0}, "group": "control_change"}, {"time": 1775, "annotation": {"number": 64, "value": 127}, "group": "control_change"}, {"time": 1798, "annotation": {"number": 64, "value": 0}, "group": "control_change"}, {"time": 1800, "annotation": {"number": 64, "value": 127}, "group": "control_change"}, {"time": 1821, "annotation": {"number": 64, "value": 0}, "group": "control_change"}, {"time": 1823, "annotation": {"number": 64, "value": 127}, "group": "control_change"}, {"time": 1846, "annotation": {"number": 64, "value": 0}, "group": "control_change"}, {"time": 1848, "annotation": {"number": 64, "value": 127}, "group": "control_change"}, {"time": 1870, "annotation": {"number": 64, "value": 0}, "group": "control_change"}, {"time": 1872, "annotation": {"number": 64, "value": 127}, "group": "control_change"}, {"time": 1892, "annotation": {"number": 64, "value": 0}, "group": "control_change"}, {"time": 1894, "annotation": {"number": 64, "value": 127}, "group": "control_change"}, {"time": 1894, "annotation": {"number": 64, "value": 0}, "group": "control_change"}, {"time": 1897, "annotation": {"number": 64, "value": 127}, "group": "control_change"}, {"time": 1917, "annotation": {"number": 64, "value": 0}, "group": "control_change"}, {"time": 1918, "annotation": {"number": 64, "value": 127}, "group": "control_change"}, {"time": 1920, "annotation": {"number": 64, "value": 127}, "group": "control_change"}, {"time": 1928, "annotation": {"number": 64, "value": 0}, "group": "control_change"}, {"time": 1942, "annotation": {"number": 64, "value": 0}, "group": "control_change"}, {"time": 1945, "annotation": {"number": 64, "value": 127}, "group": "control_change"}, {"time": 1965, "annotation": {"number": 64, "value": 0}, "group": "control_change"}, {"time": 1968, "annotation": {"number": 64, "value": 127}, "group": "control_change"}, {"time": 1989, "annotation": {"number": 64, "value": 0}, "group": "control_change"}, {"time": 1991, "annotation": {"number": 64, "value": 127}, "group": "control_change"}, {"time": 2012, "annotation": {"number": 64, "value": 0}, "group": "control_change"}, {"time": 2013, "annotation": {"number": 64, "value": 127}, "group": "control_change"}, {"time": 2025, "annotation": {"number": 64, "value": 0}, "group": "control_change"}, {"time": 2027, "annotation": {"number": 64, "value": 127}, "group": "control_change"}, {"time": 2039, "annotation": {"number": 64, "value": 0}, "group": "control_change"}, {"time": 2041, "annotation": {"number": 64, "value": 127}, "group": "control_change"}, {"time": 2063, "annotation": {"number": 64, "value": 0}, "group": "control_change"}, {"time": 2066, "annotation": {"number": 64, "value": 127}, "group": "control_change"}, {"time": 2086, "annotation": {"number": 64, "value": 0}, "group": "control_change"}, {"time": 2089, "annotation": {"number": 64, "value": 127}, "group": "control_change"}, {"time": 2111, "annotation": {"number": 64, "value": 0}, "group": "control_change"}, {"time": 2113, "annotation": {"number": 64, "value": 127}, "group": "control_change"}, {"time": 2122, "annotation": {"number": 64, "value": 0}, "group": "control_change"}, {"time": 2124, "annotation": {"number": 64, "value": 127}, "group": "control_change"}, {"time": 2133, "annotation": {"number": 64, "value": 0}, "group": "control_change"}, {"time": 2135, "annotation": {"number": 64, "value": 127}, "group": "control_change"}, {"time": 2157, "annotation": {"number": 64, "value": 0}, "group": "control_change"}, {"time": 2159, "annotation": {"number": 64, "value": 127}, "group": "control_change"}, {"time": 2182, "annotation": {"number": 64, "value": 0}, "group": "control_change"}, {"time": 2184, "annotation": {"number": 64, "value": 127}, "group": "control_change"}, {"time": 2205, "annotation": {"number": 64, "value": 0}, "group": "control_change"}, {"time": 2207, "annotation": {"number": 64, "value": 127}, "group": "control_change"}, {"time": 2230, "annotation": {"number": 64, "value": 0}, "group": "control_change"}, {"time": 2232, "annotation": {"number": 64, "value": 127}, "group": "control_change"}, {"time": 2254, "annotation": {"number": 64, "value": 0}, "group": "control_change"}, {"time": 2256, "annotation": {"number": 64, "value": 127}, "group": "control_change"}, {"time": 2276, "annotation": {"number": 64, "value": 0}, "group": "control_change"}, {"time": 2278, "annotation": {"number": 64, "value": 127}, "group": "control_change"}, {"time": 2278, "annotation": {"number": 64, "value": 0}, "group": "control_change"}, {"time": 2326, "annotation": {"number": 64, "value": 0}, "group": "control_change"}, {"time": 2329, "annotation": {"number": 64, "value": 127}, "group": "control_change"}, {"time": 2350, "annotation": {"number": 64, "value": 0}, "group": "control_change"}, {"time": 2354, "annotation": {"number": 64, "value": 127}, "group": "control_change"}, {"time": 2373, "annotation": {"number": 64, "value": 0}, "group": "control_change"}, {"time": 2376, "annotation": {"number": 64, "value": 127}, "group": "control_change"}, {"time": 2397, "annotation": {"number": 64, "value": 0}, "group": "control_change"}, {"time": 2401, "annotation": {"number": 64, "value": 127}, "group": "control_change"}, {"time": 2423, "annotation": {"number": 64, "value": 127}, "group": "control_change"}, {"time": 2424, "annotation": {"number": 64, "value": 0}, "group": "control_change"}, {"time": 2447, "annotation": {"number": 64, "value": 0}, "group": "control_change"}, {"time": 2451, "annotation": {"number": 64, "value": 127}, "group": "control_change"}, {"time": 2471, "annotation": {"number": 64, "value": 0}, "group": "control_change"}, {"time": 2474, "annotation": {"number": 64, "value": 127}, "group": "control_change"}, {"time": 2493, "annotation": {"number": 64, "value": 0}, "group": "control_change"}, {"time": 2497, "annotation": {"number": 64, "value": 127}, "group": "control_change"}, {"time": 2516, "annotation": {"number": 64, "value": 0}, "group": "control_change"}, {"time": 2519, "annotation": {"number": 64, "value": 127}, "group": "control_change"}, {"time": 2542, "annotation": {"number": 64, "value": 0}, "group": "control_change"}, {"time": 2546, "annotation": {"number": 64, "value": 127}, "group": "control_change"}, {"time": 2567, "annotation": {"number": 64, "value": 127}, "group": "control_change"}, {"time": 2568, "annotation": {"number": 64, "value": 0}, "group": "control_change"}, {"time": 2611, "annotation": {"number": 64, "value": 0}, "group": "control_change"}, {"time": 2614, "annotation": {"number": 64, "value": 127}, "group": "control_change"}, {"time": 2638, "annotation": {"number": 64, "value": 0}, "group": "control_change"}, {"time": 2641, "annotation": {"number": 64, "value": 127}, "group": "control_change"}, {"time": 2664, "annotation": {"number": 64, "value": 0}, "group": "control_change"}, {"time": 2667, "annotation": {"number": 64, "value": 127}, "group": "control_change"}, {"time": 2686, "annotation": {"number": 64, "value": 0}, "group": "control_change"}, {"time": 2689, "annotation": {"number": 64, "value": 127}, "group": "control_change"}, {"time": 2710, "annotation": {"number": 64, "value": 0}, "group": "control_change"}, {"time": 2714, "annotation": {"number": 64, "value": 127}, "group": "control_change"}, {"time": 2734, "annotation": {"number": 64, "value": 0}, "group": "control_change"}, {"time": 2734, "annotation": {"number": 64, "value": 127}, "group": "control_change"}, {"time": 2758, "annotation": {"number": 64, "value": 0}, "group": "control_change"}, {"time": 2762, "annotation": {"number": 64, "value": 127}, "group": "control_change"}, {"time": 2782, "annotation": {"number": 64, "value": 0}, "group": "control_change"}, {"time": 2785, "annotation": {"number": 64, "value": 127}, "group": "control_change"}, {"time": 2803, "annotation": {"number": 64, "value": 0}, "group": "control_change"}, {"time": 2831, "annotation": {"number": 64, "value": 0}, "group": "control_change"}, {"time": 2835, "annotation": {"number": 64, "value": 127}, "group": "control_change"}, {"time": 2855, "annotation": {"number": 64, "value": 0}, "group": "control_change"}, {"time": 2858, "annotation": {"number": 64, "value": 127}, "group": "control_change"}, {"time": 2877, "annotation": {"number": 64, "value": 0}, "group": "control_change"}, {"time": 2881, "annotation": {"number": 64, "value": 127}, "group": "control_change"}, {"time": 2900, "annotation": {"number": 64, "value": 0}, "group": "control_change"}, {"time": 2903, "annotation": {"number": 64, "value": 127}, "group": "control_change"}, {"time": 2926, "annotation": {"number": 64, "value": 0}, "group": "control_change"}, {"time": 2930, "annotation": {"number": 64, "value": 127}, "group": "control_change"}, {"time": 2951, "annotation": {"number": 64, "value": 127}, "group": "control_change"}, {"time": 2952, "annotation": {"number": 64, "value": 0}, "group": "control_change"}, {"time": 2995, "annotation": {"number": 64, "value": 0}, "group": "control_change"}, {"time": 2998, "annotation": {"number": 64, "value": 127}, "group": "control_change"}, {"time": 3022, "annotation": {"number": 64, "value": 0}, "group": "control_change"}, {"time": 3025, "annotation": {"number": 64, "value": 127}, "group": "control_change"}, {"time": 3048, "annotation": {"number": 64, "value": 0}, "group": "control_change"}, {"time": 3051, "annotation": {"number": 64, "value": 127}, "group": "control_change"}, {"time": 3070, "annotation": {"number": 64, "value": 0}, "group": "control_change"}, {"time": 3073, "annotation": {"number": 64, "value": 127}, "group": "control_change"}, {"time": 3094, "annotation": {"number": 64, "value": 0}, "group": "control_change"}, {"time": 3094, "annotation": {"number": 64, "value": 127}, "group": "control_change"}, {"time": 3120, "annotation": {"number": 64, "value": 0}, "group": "control_change"}, {"time": 3123, "annotation": {"number": 64, "value": 127}, "group": "control_change"}, {"time": 3143, "annotation": {"number": 64, "value": 0}, "group": "control_change"}, {"time": 3146, "annotation": {"number": 64, "value": 127}, "group": "control_change"}, {"time": 3154, "annotation": {"number": 64, "value": 127}, "group": "control_change"}, {"time": 3166, "annotation": {"number": 64, "value": 0}, "group": "control_change"}, {"time": 3167, "annotation": {"number": 64, "value": 0}, "group": "control_change"}, {"time": 3169, "annotation": {"number": 64, "value": 127}, "group": "control_change"}, {"time": 3190, "annotation": {"number": 64, "value": 0}, "group": "control_change"}, {"time": 3190, "annotation": {"number": 64, "value": 127}, "group": "control_change"}, {"time": 3214, "annotation": {"number": 64, "value": 0}, "group": "control_change"}, {"time": 3219, "annotation": {"number": 64, "value": 127}, "group": "control_change"}, {"time": 3238, "annotation": {"number": 64, "value": 0}, "group": "control_change"}, {"time": 3245, "annotation": {"number": 64, "value": 127}, "group": "control_change"}, {"time": 3285, "annotation": {"number": 64, "value": 0}, "group": "control_change"}, {"time": 3287, "annotation": {"number": 64, "value": 127}, "group": "control_change"}, {"time": 3310, "annotation": {"number": 64, "value": 0}, "group": "control_change"}, {"time": 3313, "annotation": {"number": 64, "value": 127}, "group": "control_change"}, {"time": 3334, "annotation": {"number": 64, "value": 0}, "group": "control_change"}, {"time": 3335, "annotation": {"number": 64, "value": 127}, "group": "control_change"}, {"time": 3357, "annotation": {"number": 64, "value": 0}, "group": "control_change"}, {"time": 3361, "annotation": {"number": 64, "value": 127}, "group": "control_change"}, {"time": 3382, "annotation": {"number": 64, "value": 0}, "group": "control_change"}, {"time": 3383, "annotation": {"number": 64, "value": 127}, "group": "control_change"}, {"time": 3502, "annotation": {"number": 64, "value": 0}, "group": "control_change"}]}]}