{"metadata": {"schema_version": "0.2", "title": "None", "source_filename": "228.mid", "source_format": "midi"}, "resolution": 12, "tempos": [{"time": 0, "qpm": 116.00008506672904}, {"time": 400, "qpm": 116.99988885010559}, {"time": 496, "qpm": 115.00002875000719}, {"time": 544, "qpm": 116.00008506672904}, {"time": 604, "qpm": 114.0001710002565}, {"time": 628, "qpm": 112.00005973336519}, {"time": 640, "qpm": 113.00030886751091}, {"time": 646, "qpm": 118.99992463338107}, {"time": 652, "qpm": 114.0001710002565}, {"time": 664, "qpm": 118.99992463338107}, {"time": 712, "qpm": 117.99990166674861}, {"time": 724, "qpm": 110.9999056500802}, {"time": 736, "qpm": 115.00002875000719}, {"time": 748, "qpm": 116.99988885010559}, {"time": 796, "qpm": 113.00030886751091}, {"time": 832, "qpm": 116.00008506672904}, {"time": 868, "qpm": 120.0}, {"time": 880, "qpm": 122.99996925000768}, {"time": 892, "qpm": 117.99990166674861}, {"time": 916, "qpm": 112.00005973336519}, {"time": 940, "qpm": 114.0001710002565}, {"time": 964, "qpm": 120.99994353335968}, {"time": 988, "qpm": 114.0001710002565}, {"time": 1000, "qpm": 110.00011000011}, {"time": 1012, "qpm": 112.00005973336519}, {"time": 1024, "qpm": 118.99992463338107}, {"time": 1060, "qpm": 116.00008506672904}, {"time": 1096, "qpm": 114.0001710002565}, {"time": 1144, "qpm": 118.99992463338107}, {"time": 1168, "qpm": 120.0}, {"time": 1180, "qpm": 110.00011000011}, {"time": 1192, "qpm": 115.00002875000719}, {"time": 1204, "qpm": 113.00030886751091}, {"time": 1241, "qpm": 120.99994353335968}, {"time": 1264, "qpm": 114.0001710002565}, {"time": 1300, "qpm": 122.0000691333725}, {"time": 1360, "qpm": 113.00030886751091}, {"time": 1396, "qpm": 108.99994368336243}, {"time": 1408, "qpm": 116.00008506672904}, {"time": 1432, "qpm": 117.99990166674861}, {"time": 1492, "qpm": 123.99999173333389}, {"time": 1504, "qpm": 114.0001710002565}, {"time": 1648, "qpm": 116.00008506672904}, {"time": 1672, "qpm": 120.0}, {"time": 1696, "qpm": 110.9999056500802}, {"time": 1708, "qpm": 116.00008506672904}, {"time": 1744, "qpm": 117.99990166674861}, {"time": 1840, "qpm": 110.9999056500802}, {"time": 1876, "qpm": 113.00030886751091}, {"time": 1888, "qpm": 117.99990166674861}, {"time": 1936, "qpm": 116.00008506672904}, {"time": 1984, "qpm": 114.0001710002565}, {"time": 2080, "qpm": 118.99992463338107}, {"time": 2128, "qpm": 115.00002875000719}, {"time": 2152, "qpm": 118.99992463338107}, {"time": 2176, "qpm": 116.00008506672904}, {"time": 2200, "qpm": 114.0001710002565}, {"time": 2224, "qpm": 117.99990166674861}, {"time": 2320, "qpm": 114.0001710002565}, {"time": 2344, "qpm": 116.00008506672904}, {"time": 3088, "qpm": 115.00002875000719}, {"time": 3136, "qpm": 116.00008506672904}], "time_signatures": [{"time": 0, "numerator": 4, "denominator": 4}], "tracks": [{"program": 4, "is_drum": false, "name": "MELODY", "notes": [{"time": 1312, "pitch": 68, "duration": 8, "velocity": 90}, {"time": 1321, "pitch": 68, "duration": 8, "velocity": 85}, {"time": 1330, "pitch": 68, "duration": 6, "velocity": 80}, {"time": 1336, "pitch": 71, "duration": 7, "velocity": 96}, {"time": 1345, "pitch": 71, "duration": 24, "velocity": 97}, {"time": 1366, "pitch": 66, "duration": 10, "velocity": 84}, {"time": 1378, "pitch": 66, "duration": 6, "velocity": 83}, {"time": 1384, "pitch": 71, "duration": 8, "velocity": 86}, {"time": 1393, "pitch": 71, "duration": 17, "velocity": 93}, {"time": 1408, "pitch": 64, "duration": 11, "velocity": 92}, {"time": 1420, "pitch": 64, "duration": 6, "velocity": 86}, {"time": 1426, "pitch": 61, "duration": 7, "velocity": 64}, {"time": 1432, "pitch": 64, "duration": 6, "velocity": 72}, {"time": 1438, "pitch": 71, "duration": 12, "velocity": 85}, {"time": 1450, "pitch": 68, "duration": 48, "velocity": 95}, {"time": 1498, "pitch": 59, "duration": 6, "velocity": 68}, {"time": 1504, "pitch": 61, "duration": 6, "velocity": 65}, {"time": 1510, "pitch": 61, "duration": 11, "velocity": 61}, {"time": 1522, "pitch": 64, "duration": 12, "velocity": 66}, {"time": 1534, "pitch": 64, "duration": 5, "velocity": 74}, {"time": 1540, "pitch": 64, "duration": 7, "velocity": 69}, {"time": 1546, "pitch": 61, "duration": 7, "velocity": 51}, {"time": 1552, "pitch": 59, "duration": 5, "velocity": 54}, {"time": 1558, "pitch": 59, "duration": 11, "velocity": 66}, {"time": 1570, "pitch": 59, "duration": 6, "velocity": 66}, {"time": 1576, "pitch": 68, "duration": 7, "velocity": 75}, {"time": 1582, "pitch": 64, "duration": 17, "velocity": 84}, {"time": 1600, "pitch": 66, "duration": 20, "velocity": 95}, {"time": 1618, "pitch": 64, "duration": 6, "velocity": 69}, {"time": 1624, "pitch": 61, "duration": 12, "velocity": 84}, {"time": 1636, "pitch": 68, "duration": 6, "velocity": 90}, {"time": 1642, "pitch": 66, "duration": 66, "velocity": 85}, {"time": 1708, "pitch": 68, "duration": 6, "velocity": 48}, {"time": 1714, "pitch": 68, "duration": 7, "velocity": 57}, {"time": 1720, "pitch": 71, "duration": 7, "velocity": 66}, {"time": 1726, "pitch": 73, "duration": 12, "velocity": 66}, {"time": 1738, "pitch": 68, "duration": 7, "velocity": 47}, {"time": 1744, "pitch": 66, "duration": 5, "velocity": 47}, {"time": 1750, "pitch": 66, "duration": 6, "velocity": 66}, {"time": 1756, "pitch": 66, "duration": 6, "velocity": 65}, {"time": 1762, "pitch": 66, "duration": 6, "velocity": 63}, {"time": 1768, "pitch": 71, "duration": 6, "velocity": 58}, {"time": 1774, "pitch": 71, "duration": 6, "velocity": 60}, {"time": 1780, "pitch": 71, "duration": 1, "velocity": 64}, {"time": 1786, "pitch": 71, "duration": 8, "velocity": 62}, {"time": 1792, "pitch": 64, "duration": 17, "velocity": 57}, {"time": 1810, "pitch": 64, "duration": 12, "velocity": 87}, {"time": 1822, "pitch": 61, "duration": 6, "velocity": 64}, {"time": 1828, "pitch": 71, "duration": 7, "velocity": 74}, {"time": 1834, "pitch": 68, "duration": 48, "velocity": 84}, {"time": 1882, "pitch": 59, "duration": 6, "velocity": 58}, {"time": 1888, "pitch": 61, "duration": 6, "velocity": 69}, {"time": 1894, "pitch": 61, "duration": 10, "velocity": 66}, {"time": 1906, "pitch": 61, "duration": 7, "velocity": 66}, {"time": 1912, "pitch": 64, "duration": 6, "velocity": 79}, {"time": 1918, "pitch": 66, "duration": 12, "velocity": 64}, {"time": 1930, "pitch": 61, "duration": 6, "velocity": 72}, {"time": 1936, "pitch": 59, "duration": 9, "velocity": 56}, {"time": 1945, "pitch": 59, "duration": 8, "velocity": 64}, {"time": 1954, "pitch": 59, "duration": 7, "velocity": 64}, {"time": 1960, "pitch": 68, "duration": 8, "velocity": 62}, {"time": 1966, "pitch": 64, "duration": 12, "velocity": 68}, {"time": 1978, "pitch": 59, "duration": 7, "velocity": 57}, {"time": 1984, "pitch": 66, "duration": 11, "velocity": 84}, {"time": 1996, "pitch": 66, "duration": 18, "velocity": 87}, {"time": 2014, "pitch": 66, "duration": 11, "velocity": 85}, {"time": 2026, "pitch": 63, "duration": 13, "velocity": 77}, {"time": 2038, "pitch": 64, "duration": 90, "velocity": 97}, {"time": 2128, "pitch": 68, "duration": 8, "velocity": 48}, {"time": 2137, "pitch": 68, "duration": 8, "velocity": 65}, {"time": 2146, "pitch": 68, "duration": 7, "velocity": 63}, {"time": 2152, "pitch": 71, "duration": 8, "velocity": 80}, {"time": 2158, "pitch": 73, "duration": 11, "velocity": 59}, {"time": 2170, "pitch": 71, "duration": 13, "velocity": 55}, {"time": 2182, "pitch": 66, "duration": 11, "velocity": 64}, {"time": 2194, "pitch": 66, "duration": 7, "velocity": 68}, {"time": 2200, "pitch": 71, "duration": 6, "velocity": 77}, {"time": 2206, "pitch": 71, "duration": 17, "velocity": 72}, {"time": 2224, "pitch": 64, "duration": 13, "velocity": 87}, {"time": 2236, "pitch": 64, "duration": 1, "velocity": 81}, {"time": 2242, "pitch": 61, "duration": 7, "velocity": 66}, {"time": 2248, "pitch": 64, "duration": 6, "velocity": 63}, {"time": 2254, "pitch": 71, "duration": 12, "velocity": 77}, {"time": 2266, "pitch": 68, "duration": 50, "velocity": 69}, {"time": 2317, "pitch": 59, "duration": 6, "velocity": 55}, {"time": 2320, "pitch": 61, "duration": 8, "velocity": 61}, {"time": 2329, "pitch": 61, "duration": 8, "velocity": 69}, {"time": 2338, "pitch": 61, "duration": 6, "velocity": 66}, {"time": 2344, "pitch": 64, "duration": 8, "velocity": 65}, {"time": 2350, "pitch": 66, "duration": 13, "velocity": 74}, {"time": 2362, "pitch": 61, "duration": 7, "velocity": 62}, {"time": 2368, "pitch": 59, "duration": 8, "velocity": 61}, {"time": 2377, "pitch": 59, "duration": 8, "velocity": 56}, {"time": 2386, "pitch": 59, "duration": 8, "velocity": 64}, {"time": 2392, "pitch": 68, "duration": 8, "velocity": 64}, {"time": 2401, "pitch": 68, "duration": 9, "velocity": 66}, {"time": 2410, "pitch": 64, "duration": 7, "velocity": 72}, {"time": 2416, "pitch": 66, "duration": 8, "velocity": 83}, {"time": 2425, "pitch": 66, "duration": 10, "velocity": 71}, {"time": 2434, "pitch": 64, "duration": 7, "velocity": 59}, {"time": 2440, "pitch": 61, "duration": 5, "velocity": 59}, {"time": 2446, "pitch": 68, "duration": 12, "velocity": 62}, {"time": 2458, "pitch": 66, "duration": 66, "velocity": 65}, {"time": 2524, "pitch": 68, "duration": 6, "velocity": 66}, {"time": 2530, "pitch": 68, "duration": 7, "velocity": 77}, {"time": 2536, "pitch": 71, "duration": 6, "velocity": 92}, {"time": 2542, "pitch": 71, "duration": 12, "velocity": 93}, {"time": 2554, "pitch": 68, "duration": 6, "velocity": 75}, {"time": 2560, "pitch": 66, "duration": 6, "velocity": 66}, {"time": 2566, "pitch": 66, "duration": 6, "velocity": 64}, {"time": 2572, "pitch": 66, "duration": 6, "velocity": 66}, {"time": 2578, "pitch": 66, "duration": 6, "velocity": 63}, {"time": 2584, "pitch": 71, "duration": 6, "velocity": 87}, {"time": 2596, "pitch": 71, "duration": 6, "velocity": 90}, {"time": 2602, "pitch": 71, "duration": 6, "velocity": 82}, {"time": 2608, "pitch": 64, "duration": 6, "velocity": 79}, {"time": 2614, "pitch": 64, "duration": 5, "velocity": 84}, {"time": 2620, "pitch": 64, "duration": 6, "velocity": 85}, {"time": 2626, "pitch": 61, "duration": 7, "velocity": 76}, {"time": 2632, "pitch": 64, "duration": 6, "velocity": 87}, {"time": 2638, "pitch": 71, "duration": 13, "velocity": 87}, {"time": 2650, "pitch": 68, "duration": 54, "velocity": 83}, {"time": 2704, "pitch": 61, "duration": 9, "velocity": 91}, {"time": 2713, "pitch": 61, "duration": 8, "velocity": 90}, {"time": 2722, "pitch": 61, "duration": 6, "velocity": 84}, {"time": 2728, "pitch": 64, "duration": 8, "velocity": 79}, {"time": 2737, "pitch": 64, "duration": 17, "velocity": 76}, {"time": 2752, "pitch": 59, "duration": 8, "velocity": 89}, {"time": 2761, "pitch": 59, "duration": 8, "velocity": 86}, {"time": 2770, "pitch": 59, "duration": 6, "velocity": 75}, {"time": 2776, "pitch": 64, "duration": 9, "velocity": 75}, {"time": 2785, "pitch": 64, "duration": 15, "velocity": 78}, {"time": 2800, "pitch": 68, "duration": 12, "velocity": 75}, {"time": 2812, "pitch": 66, "duration": 20, "velocity": 72}, {"time": 2830, "pitch": 61, "duration": 6, "velocity": 82}, {"time": 2836, "pitch": 64, "duration": 8, "velocity": 77}, {"time": 2845, "pitch": 64, "duration": 100, "velocity": 89}, {"time": 2944, "pitch": 61, "duration": 24, "velocity": 74}, {"time": 2968, "pitch": 64, "duration": 13, "velocity": 89}, {"time": 2980, "pitch": 71, "duration": 6, "velocity": 90}, {"time": 2986, "pitch": 68, "duration": 48, "velocity": 97}, {"time": 3034, "pitch": 59, "duration": 7, "velocity": 60}, {"time": 3040, "pitch": 61, "duration": 7, "velocity": 66}, {"time": 3046, "pitch": 64, "duration": 6, "velocity": 65}, {"time": 3052, "pitch": 64, "duration": 6, "velocity": 71}, {"time": 3058, "pitch": 64, "duration": 5, "velocity": 66}, {"time": 3064, "pitch": 64, "duration": 6, "velocity": 71}, {"time": 3070, "pitch": 61, "duration": 6, "velocity": 58}, {"time": 3076, "pitch": 59, "duration": 6, "velocity": 57}, {"time": 3082, "pitch": 71, "duration": 13, "velocity": 61}, {"time": 3094, "pitch": 68, "duration": 42, "velocity": 82}, {"time": 3136, "pitch": 61, "duration": 22, "velocity": 85}, {"time": 3160, "pitch": 64, "duration": 13, "velocity": 91}, {"time": 3172, "pitch": 71, "duration": 6, "velocity": 85}, {"time": 3178, "pitch": 68, "duration": 48, "velocity": 95}, {"time": 3226, "pitch": 59, "duration": 7, "velocity": 72}, {"time": 3232, "pitch": 61, "duration": 6, "velocity": 79}, {"time": 3238, "pitch": 64, "duration": 6, "velocity": 66}, {"time": 3244, "pitch": 64, "duration": 5, "velocity": 85}, {"time": 3250, "pitch": 64, "duration": 5, "velocity": 90}, {"time": 3256, "pitch": 64, "duration": 42, "velocity": 97}, {"time": 3298, "pitch": 64, "duration": 6, "velocity": 79}, {"time": 3304, "pitch": 64, "duration": 6, "velocity": 96}, {"time": 3310, "pitch": 61, "duration": 6, "velocity": 84}, {"time": 3316, "pitch": 68, "duration": 6, "velocity": 87}, {"time": 3322, "pitch": 66, "duration": 103, "velocity": 93}, {"time": 3424, "pitch": 76, "duration": 18, "velocity": 103}, {"time": 3442, "pitch": 71, "duration": 11, "velocity": 98}, {"time": 3454, "pitch": 71, "duration": 12, "velocity": 98}, {"time": 3466, "pitch": 71, "duration": 7, "velocity": 97}, {"time": 3472, "pitch": 73, "duration": 18, "velocity": 103}, {"time": 3490, "pitch": 71, "duration": 18, "velocity": 98}, {"time": 3508, "pitch": 71, "duration": 5, "velocity": 98}, {"time": 3514, "pitch": 71, "duration": 7, "velocity": 97}, {"time": 3520, "pitch": 64, "duration": 12, "velocity": 94}, {"time": 3532, "pitch": 64, "duration": 6, "velocity": 87}, {"time": 3538, "pitch": 61, "duration": 6, "velocity": 90}, {"time": 3544, "pitch": 64, "duration": 6, "velocity": 84}, {"time": 3550, "pitch": 71, "duration": 12, "velocity": 89}, {"time": 3562, "pitch": 68, "duration": 72, "velocity": 97}, {"time": 3634, "pitch": 59, "duration": 6, "velocity": 98}, {"time": 3640, "pitch": 76, "duration": 6, "velocity": 97}, {"time": 3646, "pitch": 71, "duration": 12, "velocity": 87}, {"time": 3658, "pitch": 73, "duration": 12, "velocity": 86}, {"time": 3670, "pitch": 71, "duration": 11, "velocity": 97}, {"time": 3682, "pitch": 71, "duration": 17, "velocity": 97}, {"time": 3700, "pitch": 71, "duration": 5, "velocity": 81}, {"time": 3706, "pitch": 71, "duration": 7, "velocity": 90}, {"time": 3712, "pitch": 61, "duration": 12, "velocity": 84}, {"time": 3724, "pitch": 64, "duration": 12, "velocity": 77}, {"time": 3736, "pitch": 64, "duration": 7, "velocity": 81}, {"time": 3742, "pitch": 66, "duration": 12, "velocity": 97}, {"time": 3754, "pitch": 64, "duration": 54, "velocity": 94}, {"time": 3808, "pitch": 61, "duration": 23, "velocity": 83}, {"time": 3832, "pitch": 64, "duration": 12, "velocity": 90}, {"time": 3844, "pitch": 71, "duration": 6, "velocity": 90}, {"time": 3850, "pitch": 68, "duration": 42, "velocity": 99}, {"time": 3892, "pitch": 59, "duration": 5, "velocity": 64}, {"time": 3898, "pitch": 59, "duration": 6, "velocity": 66}, {"time": 3904, "pitch": 61, "duration": 6, "velocity": 65}, {"time": 3910, "pitch": 64, "duration": 6, "velocity": 62}, {"time": 3916, "pitch": 64, "duration": 6, "velocity": 73}, {"time": 3922, "pitch": 61, "duration": 7, "velocity": 63}, {"time": 3928, "pitch": 59, "duration": 6, "velocity": 64}, {"time": 3934, "pitch": 71, "duration": 12, "velocity": 77}, {"time": 3946, "pitch": 68, "duration": 56, "velocity": 90}, {"time": 4000, "pitch": 61, "duration": 23, "velocity": 90}, {"time": 4024, "pitch": 64, "duration": 13, "velocity": 93}, {"time": 4036, "pitch": 71, "duration": 11, "velocity": 91}, {"time": 4048, "pitch": 68, "duration": 43, "velocity": 84}, {"time": 4090, "pitch": 59, "duration": 6, "velocity": 90}, {"time": 4096, "pitch": 61, "duration": 6, "velocity": 87}, {"time": 4102, "pitch": 64, "duration": 6, "velocity": 81}, {"time": 4108, "pitch": 64, "duration": 5, "velocity": 93}, {"time": 4114, "pitch": 64, "duration": 5, "velocity": 92}, {"time": 4120, "pitch": 64, "duration": 6, "velocity": 90}, {"time": 4126, "pitch": 64, "duration": 5, "velocity": 90}, {"time": 4132, "pitch": 64, "duration": 36, "velocity": 99}, {"time": 4168, "pitch": 64, "duration": 5, "velocity": 87}, {"time": 4174, "pitch": 61, "duration": 7, "velocity": 64}, {"time": 4180, "pitch": 68, "duration": 6, "velocity": 90}, {"time": 4186, "pitch": 66, "duration": 148, "velocity": 97}, {"time": 5057, "pitch": 68, "duration": 7, "velocity": 77}, {"time": 5065, "pitch": 68, "duration": 11, "velocity": 87}, {"time": 5077, "pitch": 71, "duration": 9, "velocity": 99}, {"time": 5089, "pitch": 71, "duration": 9, "velocity": 96}, {"time": 5098, "pitch": 68, "duration": 6, "velocity": 83}, {"time": 5104, "pitch": 66, "duration": 9, "velocity": 92}, {"time": 5113, "pitch": 66, "duration": 10, "velocity": 84}, {"time": 5122, "pitch": 71, "duration": 12, "velocity": 93}, {"time": 5134, "pitch": 71, "duration": 17, "velocity": 95}, {"time": 5152, "pitch": 64, "duration": 11, "velocity": 93}, {"time": 5164, "pitch": 64, "duration": 6, "velocity": 91}, {"time": 5170, "pitch": 61, "duration": 7, "velocity": 71}, {"time": 5176, "pitch": 64, "duration": 6, "velocity": 81}, {"time": 5182, "pitch": 71, "duration": 13, "velocity": 90}, {"time": 5194, "pitch": 68, "duration": 53, "velocity": 99}, {"time": 5248, "pitch": 61, "duration": 8, "velocity": 79}, {"time": 5257, "pitch": 61, "duration": 8, "velocity": 82}, {"time": 5266, "pitch": 61, "duration": 7, "velocity": 81}, {"time": 5272, "pitch": 64, "duration": 8, "velocity": 90}, {"time": 5278, "pitch": 66, "duration": 11, "velocity": 96}, {"time": 5290, "pitch": 61, "duration": 6, "velocity": 65}, {"time": 5296, "pitch": 59, "duration": 5, "velocity": 74}, {"time": 5302, "pitch": 59, "duration": 12, "velocity": 66}, {"time": 5314, "pitch": 68, "duration": 11, "velocity": 90}, {"time": 5326, "pitch": 68, "duration": 6, "velocity": 89}, {"time": 5332, "pitch": 66, "duration": 7, "velocity": 93}, {"time": 5338, "pitch": 64, "duration": 7, "velocity": 82}, {"time": 5344, "pitch": 66, "duration": 11, "velocity": 98}, {"time": 5356, "pitch": 66, "duration": 8, "velocity": 91}, {"time": 5362, "pitch": 64, "duration": 6, "velocity": 52}, {"time": 5368, "pitch": 61, "duration": 7, "velocity": 64}, {"time": 5374, "pitch": 68, "duration": 13, "velocity": 84}, {"time": 5386, "pitch": 66, "duration": 56, "velocity": 99}, {"time": 5440, "pitch": 68, "duration": 7, "velocity": 97}, {"time": 5449, "pitch": 68, "duration": 8, "velocity": 91}, {"time": 5458, "pitch": 68, "duration": 7, "velocity": 93}, {"time": 5464, "pitch": 71, "duration": 8, "velocity": 99}, {"time": 5473, "pitch": 71, "duration": 16, "velocity": 99}, {"time": 5488, "pitch": 66, "duration": 11, "velocity": 98}, {"time": 5500, "pitch": 66, "duration": 7, "velocity": 97}, {"time": 5506, "pitch": 71, "duration": 12, "velocity": 101}, {"time": 5518, "pitch": 71, "duration": 18, "velocity": 108}, {"time": 5536, "pitch": 64, "duration": 11, "velocity": 100}, {"time": 5548, "pitch": 64, "duration": 6, "velocity": 98}, {"time": 5554, "pitch": 61, "duration": 7, "velocity": 77}, {"time": 5560, "pitch": 64, "duration": 6, "velocity": 90}, {"time": 5566, "pitch": 71, "duration": 12, "velocity": 87}, {"time": 5578, "pitch": 68, "duration": 48, "velocity": 106}, {"time": 5626, "pitch": 59, "duration": 7, "velocity": 64}, {"time": 5632, "pitch": 61, "duration": 8, "velocity": 77}, {"time": 5641, "pitch": 61, "duration": 8, "velocity": 76}, {"time": 5650, "pitch": 61, "duration": 7, "velocity": 71}, {"time": 5656, "pitch": 64, "duration": 8, "velocity": 94}, {"time": 5665, "pitch": 64, "duration": 9, "velocity": 90}, {"time": 5674, "pitch": 61, "duration": 6, "velocity": 85}, {"time": 5680, "pitch": 59, "duration": 11, "velocity": 67}, {"time": 5692, "pitch": 59, "duration": 7, "velocity": 64}, {"time": 5698, "pitch": 68, "duration": 12, "velocity": 84}, {"time": 5710, "pitch": 64, "duration": 17, "velocity": 89}, {"time": 5728, "pitch": 66, "duration": 11, "velocity": 103}, {"time": 5740, "pitch": 66, "duration": 7, "velocity": 96}, {"time": 5746, "pitch": 64, "duration": 6, "velocity": 85}, {"time": 5752, "pitch": 61, "duration": 7, "velocity": 80}, {"time": 5758, "pitch": 64, "duration": 9, "velocity": 87}, {"time": 5770, "pitch": 64, "duration": 55, "velocity": 92}, {"time": 5824, "pitch": 61, "duration": 24, "velocity": 97}, {"time": 5848, "pitch": 64, "duration": 12, "velocity": 101}, {"time": 5860, "pitch": 71, "duration": 12, "velocity": 97}, {"time": 5872, "pitch": 68, "duration": 43, "velocity": 109}, {"time": 5914, "pitch": 59, "duration": 6, "velocity": 62}, {"time": 5920, "pitch": 61, "duration": 6, "velocity": 65}, {"time": 5926, "pitch": 64, "duration": 5, "velocity": 67}, {"time": 5932, "pitch": 64, "duration": 7, "velocity": 63}, {"time": 5938, "pitch": 61, "duration": 7, "velocity": 59}, {"time": 5944, "pitch": 59, "duration": 6, "velocity": 58}, {"time": 5950, "pitch": 71, "duration": 12, "velocity": 61}, {"time": 5962, "pitch": 68, "duration": 55, "velocity": 91}, {"time": 6016, "pitch": 61, "duration": 24, "velocity": 95}, {"time": 6040, "pitch": 64, "duration": 12, "velocity": 97}, {"time": 6052, "pitch": 71, "duration": 12, "velocity": 97}, {"time": 6064, "pitch": 68, "duration": 36, "velocity": 105}, {"time": 6100, "pitch": 59, "duration": 5, "velocity": 72}, {"time": 6106, "pitch": 59, "duration": 6, "velocity": 76}, {"time": 6112, "pitch": 61, "duration": 6, "velocity": 86}, {"time": 6118, "pitch": 64, "duration": 5, "velocity": 93}, {"time": 6124, "pitch": 64, "duration": 6, "velocity": 94}, {"time": 6130, "pitch": 64, "duration": 6, "velocity": 95}, {"time": 6136, "pitch": 64, "duration": 36, "velocity": 98}, {"time": 6172, "pitch": 64, "duration": 5, "velocity": 96}, {"time": 6178, "pitch": 64, "duration": 6, "velocity": 90}, {"time": 6184, "pitch": 64, "duration": 6, "velocity": 84}, {"time": 6190, "pitch": 61, "duration": 7, "velocity": 73}, {"time": 6196, "pitch": 68, "duration": 6, "velocity": 93}, {"time": 6202, "pitch": 66, "duration": 102, "velocity": 93}, {"time": 6304, "pitch": 76, "duration": 18, "velocity": 95}, {"time": 6322, "pitch": 71, "duration": 12, "velocity": 99}, {"time": 6334, "pitch": 71, "duration": 12, "velocity": 81}, {"time": 6346, "pitch": 71, "duration": 7, "velocity": 79}, {"time": 6352, "pitch": 73, "duration": 18, "velocity": 92}, {"time": 6370, "pitch": 71, "duration": 12, "velocity": 84}, {"time": 6382, "pitch": 71, "duration": 6, "velocity": 89}, {"time": 6388, "pitch": 71, "duration": 6, "velocity": 87}, {"time": 6394, "pitch": 71, "duration": 6, "velocity": 93}, {"time": 6400, "pitch": 64, "duration": 10, "velocity": 87}, {"time": 6412, "pitch": 64, "duration": 6, "velocity": 79}, {"time": 6418, "pitch": 61, "duration": 6, "velocity": 76}, {"time": 6424, "pitch": 64, "duration": 6, "velocity": 79}, {"time": 6430, "pitch": 71, "duration": 13, "velocity": 75}, {"time": 6442, "pitch": 68, "duration": 72, "velocity": 97}, {"time": 6514, "pitch": 59, "duration": 7, "velocity": 54}, {"time": 6520, "pitch": 76, "duration": 6, "velocity": 90}, {"time": 6526, "pitch": 71, "duration": 12, "velocity": 79}, {"time": 6538, "pitch": 73, "duration": 13, "velocity": 84}, {"time": 6550, "pitch": 71, "duration": 11, "velocity": 72}, {"time": 6562, "pitch": 71, "duration": 6, "velocity": 94}, {"time": 6568, "pitch": 71, "duration": 6, "velocity": 90}, {"time": 6574, "pitch": 71, "duration": 5, "velocity": 87}, {"time": 6580, "pitch": 71, "duration": 6, "velocity": 90}, {"time": 6586, "pitch": 71, "duration": 7, "velocity": 90}, {"time": 6592, "pitch": 61, "duration": 11, "velocity": 87}, {"time": 6604, "pitch": 64, "duration": 11, "velocity": 84}, {"time": 6616, "pitch": 64, "duration": 7, "velocity": 85}, {"time": 6622, "pitch": 66, "duration": 12, "velocity": 90}, {"time": 6634, "pitch": 64, "duration": 57, "velocity": 90}, {"time": 6691, "pitch": 61, "duration": 22, "velocity": 77}, {"time": 6712, "pitch": 64, "duration": 13, "velocity": 86}, {"time": 6724, "pitch": 71, "duration": 7, "velocity": 87}, {"time": 6730, "pitch": 68, "duration": 54, "velocity": 91}, {"time": 6784, "pitch": 61, "duration": 24, "velocity": 84}, {"time": 6808, "pitch": 64, "duration": 12, "velocity": 96}, {"time": 6820, "pitch": 71, "duration": 10, "velocity": 95}, {"time": 6829, "pitch": 68, "duration": 31, "velocity": 90}, {"time": 6859, "pitch": 66, "duration": 6, "velocity": 94}, {"time": 6862, "pitch": 68, "duration": 7, "velocity": 74}, {"time": 6868, "pitch": 66, "duration": 6, "velocity": 77}, {"time": 6874, "pitch": 64, "duration": 7, "velocity": 67}, {"time": 6880, "pitch": 61, "duration": 24, "velocity": 81}, {"time": 6904, "pitch": 64, "duration": 7, "velocity": 97}, {"time": 6910, "pitch": 71, "duration": 12, "velocity": 84}, {"time": 6922, "pitch": 68, "duration": 55, "velocity": 90}, {"time": 6976, "pitch": 61, "duration": 24, "velocity": 91}, {"time": 7000, "pitch": 64, "duration": 13, "velocity": 98}, {"time": 7012, "pitch": 71, "duration": 7, "velocity": 87}, {"time": 7018, "pitch": 68, "duration": 29, "velocity": 86}, {"time": 7048, "pitch": 66, "duration": 6, "velocity": 79}, {"time": 7054, "pitch": 68, "duration": 7, "velocity": 75}, {"time": 7060, "pitch": 66, "duration": 5, "velocity": 65}, {"time": 7066, "pitch": 64, "duration": 7, "velocity": 66}, {"time": 7072, "pitch": 61, "duration": 24, "velocity": 73}, {"time": 7096, "pitch": 64, "duration": 12, "velocity": 68}, {"time": 7108, "pitch": 71, "duration": 6, "velocity": 83}, {"time": 7114, "pitch": 68, "duration": 54, "velocity": 66}, {"time": 7168, "pitch": 61, "duration": 25, "velocity": 66}, {"time": 7192, "pitch": 64, "duration": 13, "velocity": 64}, {"time": 7204, "pitch": 71, "duration": 7, "velocity": 64}, {"time": 7210, "pitch": 68, "duration": 30, "velocity": 61}, {"time": 7240, "pitch": 66, "duration": 6, "velocity": 56}, {"time": 7246, "pitch": 68, "duration": 8, "velocity": 55}, {"time": 7252, "pitch": 66, "duration": 6, "velocity": 51}, {"time": 7258, "pitch": 64, "duration": 6, "velocity": 50}, {"time": 7264, "pitch": 61, "duration": 25, "velocity": 61}, {"time": 7288, "pitch": 64, "duration": 13, "velocity": 52}, {"time": 7300, "pitch": 71, "duration": 6, "velocity": 61}, {"time": 7306, "pitch": 68, "duration": 54, "velocity": 43}], "annotations": [{"time": 1614, "annotation": {"number": 1, "value": 1}, "group": "control_change"}, {"time": 1639, "annotation": {"number": 1, "value": 2}, "group": "control_change"}, {"time": 1782, "annotation": {"number": 1, "value": 3}, "group": "control_change"}, {"time": 1787, "annotation": {"number": 1, "value": 2}, "group": "control_change"}, {"time": 1974, "annotation": {"number": 1, "value": 2}, "group": "control_change"}, {"time": 1983, "annotation": {"number": 1, "value": 3}, "group": "control_change"}, {"time": 1989, "annotation": {"number": 1, "value": 2}, "group": "control_change"}, {"time": 3898, "annotation": {"number": 1, "value": 2}, "group": "control_change"}, {"time": 3969, "annotation": {"number": 1, "value": 3}, "group": "control_change"}, {"time": 3995, "annotation": {"number": 1, "value": 2}, "group": "control_change"}, {"time": 3996, "annotation": {"number": 1, "value": 3}, "group": "control_change"}, {"time": 4011, "annotation": {"number": 1, "value": 2}, "group": "control_change"}, {"time": 4180, "annotation": {"number": 1, "value": 2}, "group": "control_change"}, {"time": 5394, "annotation": {"number": 1, "value": 2}, "group": "control_change"}, {"time": 5394, "annotation": {"number": 1, "value": 3}, "group": "control_change"}, {"time": 5664, "annotation": {"number": 1, "value": 3}, "group": "control_change"}, {"time": 6166, "annotation": {"number": 1, "value": 2}, "group": "control_change"}, {"time": 6198, "annotation": {"number": 1, "value": 1}, "group": "control_change"}, {"time": 6204, "annotation": {"number": 1, "value": 2}, "group": "control_change"}, {"time": 6210, "annotation": {"number": 1, "value": 1}, "group": "control_change"}, {"time": 6211, "annotation": {"number": 1, "value": 2}, "group": "control_change"}, {"time": 6215, "annotation": {"number": 1, "value": 1}, "group": "control_change"}, {"time": 6217, "annotation": {"number": 1, "value": 2}, "group": "control_change"}, {"time": 6235, "annotation": {"number": 1, "value": 1}, "group": "control_change"}, {"time": 6236, "annotation": {"number": 1, "value": 2}, "group": "control_change"}, {"time": 6250, "annotation": {"number": 1, "value": 1}, "group": "control_change"}]}, {"program": 0, "is_drum": false, "name": "PIANO", "notes": [{"time": 160, "pitch": 52, "duration": 88, "velocity": 70}, {"time": 160, "pitch": 64, "duration": 8, "velocity": 59}, {"time": 166, "pitch": 68, "duration": 7, "velocity": 69}, {"time": 172, "pitch": 71, "duration": 8, "velocity": 71}, {"time": 178, "pitch": 68, "duration": 6, "velocity": 69}, {"time": 184, "pitch": 64, "duration": 11, "velocity": 52}, {"time": 190, "pitch": 68, "duration": 7, "velocity": 62}, {"time": 196, "pitch": 71, "duration": 15, "velocity": 69}, {"time": 202, "pitch": 68, "duration": 6, "velocity": 62}, {"time": 208, "pitch": 64, "duration": 9, "velocity": 46}, {"time": 214, "pitch": 68, "duration": 7, "velocity": 58}, {"time": 220, "pitch": 71, "duration": 7, "velocity": 71}, {"time": 226, "pitch": 68, "duration": 6, "velocity": 68}, {"time": 232, "pitch": 64, "duration": 10, "velocity": 51}, {"time": 238, "pitch": 68, "duration": 6, "velocity": 68}, {"time": 244, "pitch": 71, "duration": 6, "velocity": 73}, {"time": 250, "pitch": 68, "duration": 6, "velocity": 68}, {"time": 256, "pitch": 51, "duration": 83, "velocity": 72}, {"time": 256, "pitch": 63, "duration": 15, "velocity": 52}, {"time": 262, "pitch": 66, "duration": 7, "velocity": 57}, {"time": 268, "pitch": 71, "duration": 12, "velocity": 71}, {"time": 274, "pitch": 66, "duration": 6, "velocity": 55}, {"time": 280, "pitch": 63, "duration": 15, "velocity": 47}, {"time": 286, "pitch": 66, "duration": 8, "velocity": 58}, {"time": 292, "pitch": 71, "duration": 17, "velocity": 75}, {"time": 298, "pitch": 66, "duration": 6, "velocity": 60}, {"time": 304, "pitch": 63, "duration": 14, "velocity": 54}, {"time": 310, "pitch": 66, "duration": 9, "velocity": 55}, {"time": 316, "pitch": 71, "duration": 16, "velocity": 60}, {"time": 322, "pitch": 66, "duration": 6, "velocity": 63}, {"time": 328, "pitch": 63, "duration": 7, "velocity": 46}, {"time": 334, "pitch": 66, "duration": 6, "velocity": 61}, {"time": 340, "pitch": 71, "duration": 8, "velocity": 78}, {"time": 346, "pitch": 66, "duration": 6, "velocity": 62}, {"time": 352, "pitch": 49, "duration": 97, "velocity": 77}, {"time": 352, "pitch": 61, "duration": 14, "velocity": 54}, {"time": 358, "pitch": 68, "duration": 8, "velocity": 69}, {"time": 364, "pitch": 73, "duration": 17, "velocity": 75}, {"time": 370, "pitch": 68, "duration": 8, "velocity": 62}, {"time": 376, "pitch": 61, "duration": 19, "velocity": 49}, {"time": 382, "pitch": 68, "duration": 8, "velocity": 60}, {"time": 388, "pitch": 73, "duration": 18, "velocity": 74}, {"time": 394, "pitch": 68, "duration": 6, "velocity": 69}, {"time": 400, "pitch": 61, "duration": 14, "velocity": 53}, {"time": 406, "pitch": 68, "duration": 8, "velocity": 59}, {"time": 412, "pitch": 73, "duration": 8, "velocity": 72}, {"time": 418, "pitch": 68, "duration": 6, "velocity": 61}, {"time": 424, "pitch": 61, "duration": 9, "velocity": 56}, {"time": 430, "pitch": 68, "duration": 6, "velocity": 58}, {"time": 436, "pitch": 73, "duration": 6, "velocity": 71}, {"time": 442, "pitch": 68, "duration": 6, "velocity": 63}, {"time": 448, "pitch": 47, "duration": 93, "velocity": 75}, {"time": 448, "pitch": 59, "duration": 20, "velocity": 45}, {"time": 454, "pitch": 66, "duration": 7, "velocity": 55}, {"time": 460, "pitch": 71, "duration": 8, "velocity": 63}, {"time": 466, "pitch": 66, "duration": 6, "velocity": 59}, {"time": 472, "pitch": 59, "duration": 15, "velocity": 52}, {"time": 478, "pitch": 66, "duration": 8, "velocity": 39}, {"time": 484, "pitch": 71, "duration": 9, "velocity": 58}, {"time": 490, "pitch": 66, "duration": 5, "velocity": 57}, {"time": 496, "pitch": 59, "duration": 14, "velocity": 49}, {"time": 502, "pitch": 66, "duration": 7, "velocity": 53}, {"time": 508, "pitch": 71, "duration": 9, "velocity": 57}, {"time": 514, "pitch": 66, "duration": 5, "velocity": 54}, {"time": 520, "pitch": 59, "duration": 7, "velocity": 51}, {"time": 526, "pitch": 66, "duration": 6, "velocity": 59}, {"time": 532, "pitch": 71, "duration": 7, "velocity": 74}, {"time": 538, "pitch": 66, "duration": 3, "velocity": 63}, {"time": 544, "pitch": 52, "duration": 88, "velocity": 70}, {"time": 544, "pitch": 64, "duration": 8, "velocity": 59}, {"time": 550, "pitch": 68, "duration": 7, "velocity": 69}, {"time": 556, "pitch": 71, "duration": 8, "velocity": 71}, {"time": 562, "pitch": 68, "duration": 6, "velocity": 69}, {"time": 568, "pitch": 64, "duration": 11, "velocity": 52}, {"time": 574, "pitch": 68, "duration": 7, "velocity": 62}, {"time": 580, "pitch": 71, "duration": 15, "velocity": 69}, {"time": 586, "pitch": 68, "duration": 6, "velocity": 62}, {"time": 592, "pitch": 64, "duration": 9, "velocity": 46}, {"time": 598, "pitch": 68, "duration": 7, "velocity": 58}, {"time": 604, "pitch": 71, "duration": 7, "velocity": 71}, {"time": 610, "pitch": 68, "duration": 6, "velocity": 68}, {"time": 616, "pitch": 64, "duration": 10, "velocity": 51}, {"time": 622, "pitch": 68, "duration": 6, "velocity": 68}, {"time": 628, "pitch": 71, "duration": 6, "velocity": 73}, {"time": 634, "pitch": 68, "duration": 6, "velocity": 68}, {"time": 640, "pitch": 51, "duration": 83, "velocity": 72}, {"time": 640, "pitch": 63, "duration": 15, "velocity": 52}, {"time": 646, "pitch": 66, "duration": 7, "velocity": 57}, {"time": 652, "pitch": 71, "duration": 12, "velocity": 71}, {"time": 658, "pitch": 66, "duration": 6, "velocity": 55}, {"time": 664, "pitch": 63, "duration": 15, "velocity": 47}, {"time": 670, "pitch": 66, "duration": 8, "velocity": 58}, {"time": 676, "pitch": 71, "duration": 17, "velocity": 75}, {"time": 682, "pitch": 66, "duration": 6, "velocity": 60}, {"time": 688, "pitch": 63, "duration": 14, "velocity": 54}, {"time": 694, "pitch": 66, "duration": 9, "velocity": 55}, {"time": 700, "pitch": 71, "duration": 16, "velocity": 60}, {"time": 706, "pitch": 66, "duration": 6, "velocity": 63}, {"time": 712, "pitch": 63, "duration": 7, "velocity": 46}, {"time": 718, "pitch": 66, "duration": 6, "velocity": 61}, {"time": 724, "pitch": 71, "duration": 8, "velocity": 78}, {"time": 730, "pitch": 66, "duration": 6, "velocity": 62}, {"time": 736, "pitch": 49, "duration": 97, "velocity": 77}, {"time": 736, "pitch": 61, "duration": 14, "velocity": 54}, {"time": 742, "pitch": 68, "duration": 8, "velocity": 69}, {"time": 748, "pitch": 73, "duration": 17, "velocity": 75}, {"time": 754, "pitch": 68, "duration": 8, "velocity": 62}, {"time": 760, "pitch": 61, "duration": 19, "velocity": 49}, {"time": 766, "pitch": 68, "duration": 8, "velocity": 60}, {"time": 772, "pitch": 73, "duration": 18, "velocity": 74}, {"time": 778, "pitch": 68, "duration": 6, "velocity": 69}, {"time": 784, "pitch": 61, "duration": 14, "velocity": 53}, {"time": 790, "pitch": 68, "duration": 8, "velocity": 59}, {"time": 796, "pitch": 73, "duration": 8, "velocity": 72}, {"time": 802, "pitch": 68, "duration": 6, "velocity": 61}, {"time": 808, "pitch": 61, "duration": 9, "velocity": 56}, {"time": 814, "pitch": 68, "duration": 6, "velocity": 58}, {"time": 820, "pitch": 73, "duration": 6, "velocity": 71}, {"time": 826, "pitch": 68, "duration": 6, "velocity": 63}, {"time": 832, "pitch": 47, "duration": 93, "velocity": 75}, {"time": 832, "pitch": 59, "duration": 20, "velocity": 45}, {"time": 838, "pitch": 66, "duration": 7, "velocity": 55}, {"time": 844, "pitch": 71, "duration": 8, "velocity": 63}, {"time": 850, "pitch": 66, "duration": 6, "velocity": 59}, {"time": 856, "pitch": 59, "duration": 15, "velocity": 52}, {"time": 862, "pitch": 66, "duration": 8, "velocity": 39}, {"time": 868, "pitch": 71, "duration": 9, "velocity": 58}, {"time": 874, "pitch": 66, "duration": 5, "velocity": 57}, {"time": 880, "pitch": 59, "duration": 14, "velocity": 49}, {"time": 886, "pitch": 66, "duration": 7, "velocity": 53}, {"time": 892, "pitch": 71, "duration": 9, "velocity": 57}, {"time": 898, "pitch": 66, "duration": 5, "velocity": 54}, {"time": 904, "pitch": 59, "duration": 7, "velocity": 51}, {"time": 910, "pitch": 66, "duration": 6, "velocity": 59}, {"time": 916, "pitch": 71, "duration": 7, "velocity": 74}, {"time": 922, "pitch": 66, "duration": 3, "velocity": 63}, {"time": 928, "pitch": 52, "duration": 88, "velocity": 70}, {"time": 928, "pitch": 64, "duration": 8, "velocity": 59}, {"time": 934, "pitch": 68, "duration": 7, "velocity": 69}, {"time": 940, "pitch": 71, "duration": 8, "velocity": 71}, {"time": 946, "pitch": 68, "duration": 6, "velocity": 69}, {"time": 952, "pitch": 64, "duration": 11, "velocity": 52}, {"time": 958, "pitch": 68, "duration": 7, "velocity": 62}, {"time": 964, "pitch": 71, "duration": 15, "velocity": 69}, {"time": 970, "pitch": 68, "duration": 6, "velocity": 62}, {"time": 976, "pitch": 64, "duration": 9, "velocity": 46}, {"time": 982, "pitch": 68, "duration": 7, "velocity": 58}, {"time": 988, "pitch": 71, "duration": 7, "velocity": 71}, {"time": 994, "pitch": 68, "duration": 6, "velocity": 68}, {"time": 1000, "pitch": 64, "duration": 10, "velocity": 51}, {"time": 1006, "pitch": 68, "duration": 6, "velocity": 68}, {"time": 1012, "pitch": 71, "duration": 6, "velocity": 73}, {"time": 1018, "pitch": 68, "duration": 6, "velocity": 68}, {"time": 1024, "pitch": 51, "duration": 83, "velocity": 72}, {"time": 1024, "pitch": 63, "duration": 15, "velocity": 52}, {"time": 1030, "pitch": 66, "duration": 7, "velocity": 57}, {"time": 1036, "pitch": 71, "duration": 12, "velocity": 71}, {"time": 1042, "pitch": 66, "duration": 6, "velocity": 55}, {"time": 1048, "pitch": 63, "duration": 15, "velocity": 47}, {"time": 1054, "pitch": 66, "duration": 8, "velocity": 58}, {"time": 1060, "pitch": 71, "duration": 17, "velocity": 75}, {"time": 1066, "pitch": 66, "duration": 6, "velocity": 60}, {"time": 1072, "pitch": 63, "duration": 14, "velocity": 54}, {"time": 1078, "pitch": 66, "duration": 9, "velocity": 55}, {"time": 1084, "pitch": 71, "duration": 16, "velocity": 60}, {"time": 1090, "pitch": 66, "duration": 6, "velocity": 63}, {"time": 1096, "pitch": 63, "duration": 7, "velocity": 46}, {"time": 1102, "pitch": 66, "duration": 6, "velocity": 61}, {"time": 1108, "pitch": 71, "duration": 8, "velocity": 78}, {"time": 1114, "pitch": 66, "duration": 6, "velocity": 62}, {"time": 1120, "pitch": 49, "duration": 97, "velocity": 77}, {"time": 1120, "pitch": 61, "duration": 14, "velocity": 54}, {"time": 1126, "pitch": 68, "duration": 8, "velocity": 69}, {"time": 1132, "pitch": 73, "duration": 17, "velocity": 75}, {"time": 1138, "pitch": 68, "duration": 8, "velocity": 62}, {"time": 1144, "pitch": 61, "duration": 19, "velocity": 49}, {"time": 1150, "pitch": 68, "duration": 8, "velocity": 60}, {"time": 1156, "pitch": 73, "duration": 18, "velocity": 74}, {"time": 1162, "pitch": 68, "duration": 6, "velocity": 69}, {"time": 1168, "pitch": 61, "duration": 14, "velocity": 53}, {"time": 1174, "pitch": 68, "duration": 8, "velocity": 59}, {"time": 1180, "pitch": 73, "duration": 8, "velocity": 72}, {"time": 1186, "pitch": 68, "duration": 6, "velocity": 61}, {"time": 1192, "pitch": 61, "duration": 9, "velocity": 56}, {"time": 1198, "pitch": 68, "duration": 6, "velocity": 58}, {"time": 1204, "pitch": 73, "duration": 6, "velocity": 71}, {"time": 1210, "pitch": 68, "duration": 6, "velocity": 63}, {"time": 1216, "pitch": 47, "duration": 48, "velocity": 75}, {"time": 1216, "pitch": 59, "duration": 20, "velocity": 45}, {"time": 1222, "pitch": 66, "duration": 7, "velocity": 55}, {"time": 1228, "pitch": 71, "duration": 8, "velocity": 63}, {"time": 1234, "pitch": 66, "duration": 6, "velocity": 59}, {"time": 1240, "pitch": 59, "duration": 15, "velocity": 52}, {"time": 1246, "pitch": 66, "duration": 8, "velocity": 39}, {"time": 1252, "pitch": 71, "duration": 9, "velocity": 58}, {"time": 1258, "pitch": 66, "duration": 5, "velocity": 57}, {"time": 1264, "pitch": 59, "duration": 36, "velocity": 58}, {"time": 1264, "pitch": 63, "duration": 44, "velocity": 61}, {"time": 1264, "pitch": 66, "duration": 44, "velocity": 68}, {"time": 1264, "pitch": 71, "duration": 45, "velocity": 55}, {"time": 1267, "pitch": 35, "duration": 17, "velocity": 6}, {"time": 1312, "pitch": 40, "duration": 20, "velocity": 75}, {"time": 1318, "pitch": 59, "duration": 7, "velocity": 59}, {"time": 1324, "pitch": 64, "duration": 13, "velocity": 72}, {"time": 1324, "pitch": 68, "duration": 15, "velocity": 72}, {"time": 1330, "pitch": 59, "duration": 8, "velocity": 61}, {"time": 1336, "pitch": 40, "duration": 17, "velocity": 73}, {"time": 1342, "pitch": 59, "duration": 8, "velocity": 58}, {"time": 1348, "pitch": 64, "duration": 12, "velocity": 74}, {"time": 1348, "pitch": 68, "duration": 12, "velocity": 69}, {"time": 1354, "pitch": 59, "duration": 8, "velocity": 68}, {"time": 1360, "pitch": 39, "duration": 18, "velocity": 75}, {"time": 1366, "pitch": 59, "duration": 7, "velocity": 59}, {"time": 1372, "pitch": 63, "duration": 12, "velocity": 69}, {"time": 1372, "pitch": 66, "duration": 13, "velocity": 61}, {"time": 1378, "pitch": 59, "duration": 8, "velocity": 48}, {"time": 1384, "pitch": 39, "duration": 16, "velocity": 78}, {"time": 1390, "pitch": 59, "duration": 8, "velocity": 62}, {"time": 1396, "pitch": 63, "duration": 13, "velocity": 73}, {"time": 1396, "pitch": 66, "duration": 12, "velocity": 63}, {"time": 1402, "pitch": 59, "duration": 7, "velocity": 67}, {"time": 1408, "pitch": 49, "duration": 15, "velocity": 77}, {"time": 1414, "pitch": 61, "duration": 8, "velocity": 57}, {"time": 1420, "pitch": 64, "duration": 8, "velocity": 63}, {"time": 1420, "pitch": 68, "duration": 14, "velocity": 58}, {"time": 1426, "pitch": 61, "duration": 8, "velocity": 57}, {"time": 1432, "pitch": 49, "duration": 14, "velocity": 76}, {"time": 1438, "pitch": 61, "duration": 8, "velocity": 58}, {"time": 1444, "pitch": 64, "duration": 12, "velocity": 75}, {"time": 1444, "pitch": 68, "duration": 9, "velocity": 62}, {"time": 1450, "pitch": 61, "duration": 8, "velocity": 63}, {"time": 1456, "pitch": 47, "duration": 16, "velocity": 80}, {"time": 1462, "pitch": 59, "duration": 8, "velocity": 61}, {"time": 1468, "pitch": 63, "duration": 6, "velocity": 71}, {"time": 1468, "pitch": 66, "duration": 7, "velocity": 59}, {"time": 1474, "pitch": 59, "duration": 6, "velocity": 63}, {"time": 1480, "pitch": 47, "duration": 15, "velocity": 46}, {"time": 1486, "pitch": 59, "duration": 8, "velocity": 52}, {"time": 1492, "pitch": 63, "duration": 7, "velocity": 73}, {"time": 1492, "pitch": 66, "duration": 9, "velocity": 67}, {"time": 1498, "pitch": 59, "duration": 9, "velocity": 69}, {"time": 1504, "pitch": 45, "duration": 19, "velocity": 74}, {"time": 1510, "pitch": 61, "duration": 7, "velocity": 71}, {"time": 1516, "pitch": 64, "duration": 13, "velocity": 78}, {"time": 1516, "pitch": 69, "duration": 11, "velocity": 76}, {"time": 1522, "pitch": 61, "duration": 8, "velocity": 68}, {"time": 1528, "pitch": 45, "duration": 16, "velocity": 74}, {"time": 1534, "pitch": 61, "duration": 8, "velocity": 71}, {"time": 1540, "pitch": 64, "duration": 7, "velocity": 73}, {"time": 1540, "pitch": 69, "duration": 7, "velocity": 72}, {"time": 1546, "pitch": 61, "duration": 7, "velocity": 75}, {"time": 1552, "pitch": 40, "duration": 11, "velocity": 71}, {"time": 1558, "pitch": 59, "duration": 7, "velocity": 57}, {"time": 1564, "pitch": 64, "duration": 13, "velocity": 74}, {"time": 1564, "pitch": 68, "duration": 12, "velocity": 67}, {"time": 1570, "pitch": 59, "duration": 9, "velocity": 71}, {"time": 1576, "pitch": 40, "duration": 14, "velocity": 76}, {"time": 1582, "pitch": 59, "duration": 8, "velocity": 68}, {"time": 1588, "pitch": 64, "duration": 8, "velocity": 68}, {"time": 1588, "pitch": 68, "duration": 8, "velocity": 62}, {"time": 1594, "pitch": 59, "duration": 7, "velocity": 71}, {"time": 1600, "pitch": 42, "duration": 13, "velocity": 73}, {"time": 1606, "pitch": 61, "duration": 7, "velocity": 63}, {"time": 1612, "pitch": 64, "duration": 14, "velocity": 75}, {"time": 1612, "pitch": 69, "duration": 10, "velocity": 69}, {"time": 1618, "pitch": 61, "duration": 8, "velocity": 73}, {"time": 1624, "pitch": 42, "duration": 14, "velocity": 69}, {"time": 1630, "pitch": 61, "duration": 8, "velocity": 63}, {"time": 1636, "pitch": 64, "duration": 12, "velocity": 76}, {"time": 1636, "pitch": 69, "duration": 9, "velocity": 74}, {"time": 1642, "pitch": 61, "duration": 8, "velocity": 69}, {"time": 1648, "pitch": 47, "duration": 17, "velocity": 72}, {"time": 1654, "pitch": 59, "duration": 8, "velocity": 68}, {"time": 1660, "pitch": 63, "duration": 8, "velocity": 67}, {"time": 1660, "pitch": 66, "duration": 8, "velocity": 61}, {"time": 1666, "pitch": 59, "duration": 8, "velocity": 60}, {"time": 1672, "pitch": 47, "duration": 20, "velocity": 72}, {"time": 1678, "pitch": 59, "duration": 8, "velocity": 69}, {"time": 1684, "pitch": 63, "duration": 6, "velocity": 60}, {"time": 1684, "pitch": 66, "duration": 13, "velocity": 49}, {"time": 1690, "pitch": 59, "duration": 8, "velocity": 71}, {"time": 1696, "pitch": 40, "duration": 21, "velocity": 76}, {"time": 1702, "pitch": 59, "duration": 8, "velocity": 67}, {"time": 1708, "pitch": 64, "duration": 12, "velocity": 75}, {"time": 1708, "pitch": 68, "duration": 13, "velocity": 63}, {"time": 1714, "pitch": 59, "duration": 8, "velocity": 63}, {"time": 1720, "pitch": 40, "duration": 16, "velocity": 74}, {"time": 1726, "pitch": 59, "duration": 8, "velocity": 69}, {"time": 1732, "pitch": 64, "duration": 11, "velocity": 79}, {"time": 1732, "pitch": 68, "duration": 13, "velocity": 72}, {"time": 1738, "pitch": 59, "duration": 7, "velocity": 68}, {"time": 1744, "pitch": 51, "duration": 18, "velocity": 69}, {"time": 1750, "pitch": 59, "duration": 9, "velocity": 71}, {"time": 1756, "pitch": 63, "duration": 8, "velocity": 74}, {"time": 1756, "pitch": 66, "duration": 9, "velocity": 63}, {"time": 1762, "pitch": 59, "duration": 6, "velocity": 63}, {"time": 1768, "pitch": 51, "duration": 16, "velocity": 73}, {"time": 1774, "pitch": 59, "duration": 8, "velocity": 68}, {"time": 1780, "pitch": 63, "duration": 6, "velocity": 75}, {"time": 1780, "pitch": 66, "duration": 9, "velocity": 72}, {"time": 1786, "pitch": 59, "duration": 6, "velocity": 73}, {"time": 1792, "pitch": 49, "duration": 19, "velocity": 71}, {"time": 1798, "pitch": 59, "duration": 9, "velocity": 69}, {"time": 1804, "pitch": 64, "duration": 10, "velocity": 78}, {"time": 1804, "pitch": 68, "duration": 16, "velocity": 73}, {"time": 1810, "pitch": 59, "duration": 9, "velocity": 69}, {"time": 1816, "pitch": 49, "duration": 19, "velocity": 78}, {"time": 1822, "pitch": 59, "duration": 8, "velocity": 68}, {"time": 1828, "pitch": 64, "duration": 14, "velocity": 78}, {"time": 1828, "pitch": 68, "duration": 18, "velocity": 79}, {"time": 1834, "pitch": 59, "duration": 8, "velocity": 61}, {"time": 1840, "pitch": 44, "duration": 19, "velocity": 71}, {"time": 1846, "pitch": 59, "duration": 8, "velocity": 69}, {"time": 1852, "pitch": 63, "duration": 6, "velocity": 74}, {"time": 1852, "pitch": 66, "duration": 13, "velocity": 71}, {"time": 1858, "pitch": 59, "duration": 7, "velocity": 69}, {"time": 1864, "pitch": 44, "duration": 20, "velocity": 79}, {"time": 1870, "pitch": 59, "duration": 8, "velocity": 62}, {"time": 1876, "pitch": 63, "duration": 7, "velocity": 77}, {"time": 1876, "pitch": 66, "duration": 7, "velocity": 73}, {"time": 1882, "pitch": 59, "duration": 8, "velocity": 75}, {"time": 1888, "pitch": 45, "duration": 20, "velocity": 84}, {"time": 1894, "pitch": 61, "duration": 8, "velocity": 60}, {"time": 1900, "pitch": 64, "duration": 13, "velocity": 74}, {"time": 1900, "pitch": 69, "duration": 11, "velocity": 75}, {"time": 1906, "pitch": 61, "duration": 8, "velocity": 69}, {"time": 1912, "pitch": 45, "duration": 16, "velocity": 67}, {"time": 1918, "pitch": 61, "duration": 8, "velocity": 63}, {"time": 1924, "pitch": 64, "duration": 6, "velocity": 68}, {"time": 1924, "pitch": 69, "duration": 7, "velocity": 72}, {"time": 1930, "pitch": 61, "duration": 7, "velocity": 71}, {"time": 1936, "pitch": 40, "duration": 17, "velocity": 78}, {"time": 1942, "pitch": 59, "duration": 8, "velocity": 71}, {"time": 1948, "pitch": 64, "duration": 10, "velocity": 73}, {"time": 1948, "pitch": 68, "duration": 9, "velocity": 60}, {"time": 1954, "pitch": 59, "duration": 8, "velocity": 56}, {"time": 1960, "pitch": 40, "duration": 16, "velocity": 79}, {"time": 1966, "pitch": 59, "duration": 6, "velocity": 55}, {"time": 1972, "pitch": 64, "duration": 13, "velocity": 72}, {"time": 1972, "pitch": 68, "duration": 10, "velocity": 63}, {"time": 1978, "pitch": 59, "duration": 6, "velocity": 56}, {"time": 1984, "pitch": 42, "duration": 18, "velocity": 73}, {"time": 1990, "pitch": 61, "duration": 8, "velocity": 55}, {"time": 1996, "pitch": 64, "duration": 8, "velocity": 77}, {"time": 1996, "pitch": 69, "duration": 10, "velocity": 77}, {"time": 2002, "pitch": 61, "duration": 8, "velocity": 76}, {"time": 2008, "pitch": 35, "duration": 17, "velocity": 69}, {"time": 2014, "pitch": 59, "duration": 8, "velocity": 75}, {"time": 2020, "pitch": 63, "duration": 11, "velocity": 70}, {"time": 2020, "pitch": 66, "duration": 12, "velocity": 74}, {"time": 2026, "pitch": 59, "duration": 8, "velocity": 62}, {"time": 2032, "pitch": 40, "duration": 17, "velocity": 75}, {"time": 2038, "pitch": 59, "duration": 8, "velocity": 71}, {"time": 2044, "pitch": 64, "duration": 17, "velocity": 71}, {"time": 2044, "pitch": 68, "duration": 17, "velocity": 63}, {"time": 2050, "pitch": 59, "duration": 12, "velocity": 61}, {"time": 2056, "pitch": 40, "duration": 19, "velocity": 75}, {"time": 2062, "pitch": 59, "duration": 7, "velocity": 57}, {"time": 2068, "pitch": 64, "duration": 29, "velocity": 75}, {"time": 2068, "pitch": 68, "duration": 29, "velocity": 72}, {"time": 2074, "pitch": 59, "duration": 42, "velocity": 55}, {"time": 2080, "pitch": 40, "duration": 36, "velocity": 69}, {"time": 2101, "pitch": 64, "duration": 15, "velocity": 54}, {"time": 2104, "pitch": 71, "duration": 15, "velocity": 73}, {"time": 2128, "pitch": 52, "duration": 38, "velocity": 79}, {"time": 2128, "pitch": 66, "duration": 11, "velocity": 59}, {"time": 2128, "pitch": 68, "duration": 11, "velocity": 52}, {"time": 2128, "pitch": 71, "duration": 11, "velocity": 67}, {"time": 2128, "pitch": 75, "duration": 11, "velocity": 74}, {"time": 2134, "pitch": 59, "duration": 31, "velocity": 59}, {"time": 2140, "pitch": 64, "duration": 10, "velocity": 52}, {"time": 2146, "pitch": 66, "duration": 10, "velocity": 70}, {"time": 2146, "pitch": 71, "duration": 12, "velocity": 77}, {"time": 2158, "pitch": 64, "duration": 5, "velocity": 60}, {"time": 2164, "pitch": 66, "duration": 6, "velocity": 63}, {"time": 2164, "pitch": 71, "duration": 6, "velocity": 73}, {"time": 2170, "pitch": 75, "duration": 5, "velocity": 76}, {"time": 2176, "pitch": 51, "duration": 11, "velocity": 80}, {"time": 2176, "pitch": 66, "duration": 9, "velocity": 68}, {"time": 2176, "pitch": 71, "duration": 9, "velocity": 79}, {"time": 2182, "pitch": 59, "duration": 28, "velocity": 55}, {"time": 2188, "pitch": 63, "duration": 5, "velocity": 57}, {"time": 2194, "pitch": 66, "duration": 10, "velocity": 59}, {"time": 2194, "pitch": 78, "duration": 7, "velocity": 67}, {"time": 2206, "pitch": 63, "duration": 4, "velocity": 63}, {"time": 2212, "pitch": 71, "duration": 7, "velocity": 69}, {"time": 2224, "pitch": 49, "duration": 35, "velocity": 71}, {"time": 2224, "pitch": 68, "duration": 8, "velocity": 63}, {"time": 2224, "pitch": 76, "duration": 7, "velocity": 80}, {"time": 2230, "pitch": 56, "duration": 14, "velocity": 56}, {"time": 2236, "pitch": 61, "duration": 10, "velocity": 49}, {"time": 2242, "pitch": 64, "duration": 6, "velocity": 71}, {"time": 2242, "pitch": 71, "duration": 7, "velocity": 72}, {"time": 2254, "pitch": 56, "duration": 10, "velocity": 60}, {"time": 2260, "pitch": 64, "duration": 6, "velocity": 71}, {"time": 2260, "pitch": 71, "duration": 7, "velocity": 71}, {"time": 2266, "pitch": 66, "duration": 4, "velocity": 18}, {"time": 2272, "pitch": 47, "duration": 38, "velocity": 57}, {"time": 2272, "pitch": 64, "duration": 11, "velocity": 56}, {"time": 2272, "pitch": 68, "duration": 11, "velocity": 30}, {"time": 2278, "pitch": 56, "duration": 22, "velocity": 59}, {"time": 2284, "pitch": 59, "duration": 11, "velocity": 61}, {"time": 2290, "pitch": 64, "duration": 3, "velocity": 68}, {"time": 2290, "pitch": 71, "duration": 5, "velocity": 75}, {"time": 2296, "pitch": 66, "duration": 2, "velocity": 58}, {"time": 2299, "pitch": 68, "duration": 8, "velocity": 49}, {"time": 2305, "pitch": 56, "duration": 7, "velocity": 50}, {"time": 2308, "pitch": 59, "duration": 4, "velocity": 69}, {"time": 2308, "pitch": 64, "duration": 6, "velocity": 80}, {"time": 2320, "pitch": 45, "duration": 40, "velocity": 80}, {"time": 2320, "pitch": 59, "duration": 9, "velocity": 55}, {"time": 2320, "pitch": 64, "duration": 12, "velocity": 80}, {"time": 2326, "pitch": 52, "duration": 29, "velocity": 75}, {"time": 2332, "pitch": 57, "duration": 8, "velocity": 69}, {"time": 2338, "pitch": 61, "duration": 10, "velocity": 63}, {"time": 2338, "pitch": 64, "duration": 12, "velocity": 73}, {"time": 2338, "pitch": 68, "duration": 9, "velocity": 78}, {"time": 2350, "pitch": 57, "duration": 8, "velocity": 55}, {"time": 2356, "pitch": 61, "duration": 6, "velocity": 73}, {"time": 2356, "pitch": 66, "duration": 6, "velocity": 84}, {"time": 2362, "pitch": 52, "duration": 8, "velocity": 78}, {"time": 2362, "pitch": 64, "duration": 6, "velocity": 79}, {"time": 2368, "pitch": 44, "duration": 12, "velocity": 77}, {"time": 2368, "pitch": 59, "duration": 10, "velocity": 67}, {"time": 2368, "pitch": 68, "duration": 10, "velocity": 75}, {"time": 2374, "pitch": 52, "duration": 7, "velocity": 72}, {"time": 2380, "pitch": 56, "duration": 14, "velocity": 80}, {"time": 2386, "pitch": 59, "duration": 13, "velocity": 75}, {"time": 2386, "pitch": 64, "duration": 12, "velocity": 84}, {"time": 2386, "pitch": 71, "duration": 12, "velocity": 79}, {"time": 2398, "pitch": 56, "duration": 5, "velocity": 76}, {"time": 2404, "pitch": 59, "duration": 4, "velocity": 72}, {"time": 2404, "pitch": 71, "duration": 4, "velocity": 77}, {"time": 2410, "pitch": 66, "duration": 5, "velocity": 80}, {"time": 2416, "pitch": 42, "duration": 5, "velocity": 80}, {"time": 2416, "pitch": 61, "duration": 12, "velocity": 72}, {"time": 2416, "pitch": 64, "duration": 13, "velocity": 80}, {"time": 2416, "pitch": 69, "duration": 16, "velocity": 76}, {"time": 2422, "pitch": 54, "duration": 7, "velocity": 63}, {"time": 2428, "pitch": 57, "duration": 22, "velocity": 78}, {"time": 2434, "pitch": 61, "duration": 15, "velocity": 75}, {"time": 2440, "pitch": 64, "duration": 5, "velocity": 75}, {"time": 2446, "pitch": 69, "duration": 7, "velocity": 76}, {"time": 2452, "pitch": 73, "duration": 6, "velocity": 60}, {"time": 2458, "pitch": 76, "duration": 6, "velocity": 73}, {"time": 2464, "pitch": 47, "duration": 9, "velocity": 74}, {"time": 2464, "pitch": 66, "duration": 12, "velocity": 55}, {"time": 2464, "pitch": 75, "duration": 25, "velocity": 80}, {"time": 2470, "pitch": 54, "duration": 6, "velocity": 73}, {"time": 2476, "pitch": 59, "duration": 7, "velocity": 61}, {"time": 2482, "pitch": 61, "duration": 20, "velocity": 62}, {"time": 2488, "pitch": 63, "duration": 9, "velocity": 79}, {"time": 2494, "pitch": 71, "duration": 5, "velocity": 76}, {"time": 2500, "pitch": 69, "duration": 6, "velocity": 73}, {"time": 2506, "pitch": 68, "duration": 8, "velocity": 68}, {"time": 2512, "pitch": 52, "duration": 38, "velocity": 78}, {"time": 2512, "pitch": 66, "duration": 14, "velocity": 76}, {"time": 2518, "pitch": 59, "duration": 31, "velocity": 72}, {"time": 2524, "pitch": 64, "duration": 11, "velocity": 69}, {"time": 2530, "pitch": 66, "duration": 11, "velocity": 61}, {"time": 2530, "pitch": 71, "duration": 11, "velocity": 77}, {"time": 2542, "pitch": 64, "duration": 5, "velocity": 39}, {"time": 2548, "pitch": 66, "duration": 7, "velocity": 59}, {"time": 2548, "pitch": 68, "duration": 8, "velocity": 68}, {"time": 2548, "pitch": 75, "duration": 8, "velocity": 78}, {"time": 2554, "pitch": 59, "duration": 7, "velocity": 71}, {"time": 2560, "pitch": 51, "duration": 25, "velocity": 79}, {"time": 2560, "pitch": 66, "duration": 12, "velocity": 69}, {"time": 2560, "pitch": 71, "duration": 12, "velocity": 75}, {"time": 2566, "pitch": 59, "duration": 12, "velocity": 62}, {"time": 2572, "pitch": 63, "duration": 6, "velocity": 69}, {"time": 2578, "pitch": 71, "duration": 9, "velocity": 83}, {"time": 2590, "pitch": 51, "duration": 3, "velocity": 86}, {"time": 2596, "pitch": 59, "duration": 6, "velocity": 72}, {"time": 2596, "pitch": 71, "duration": 3, "velocity": 55}, {"time": 2602, "pitch": 71, "duration": 16, "velocity": 62}, {"time": 2608, "pitch": 49, "duration": 40, "velocity": 74}, {"time": 2608, "pitch": 56, "duration": 11, "velocity": 78}, {"time": 2608, "pitch": 59, "duration": 11, "velocity": 69}, {"time": 2608, "pitch": 64, "duration": 15, "velocity": 81}, {"time": 2626, "pitch": 59, "duration": 12, "velocity": 63}, {"time": 2626, "pitch": 66, "duration": 14, "velocity": 78}, {"time": 2638, "pitch": 56, "duration": 9, "velocity": 79}, {"time": 2644, "pitch": 59, "duration": 6, "velocity": 73}, {"time": 2644, "pitch": 64, "duration": 6, "velocity": 83}, {"time": 2650, "pitch": 66, "duration": 6, "velocity": 69}, {"time": 2656, "pitch": 47, "duration": 24, "velocity": 72}, {"time": 2656, "pitch": 59, "duration": 8, "velocity": 69}, {"time": 2656, "pitch": 64, "duration": 8, "velocity": 82}, {"time": 2662, "pitch": 56, "duration": 17, "velocity": 62}, {"time": 2668, "pitch": 59, "duration": 4, "velocity": 53}, {"time": 2674, "pitch": 59, "duration": 8, "velocity": 75}, {"time": 2674, "pitch": 64, "duration": 11, "velocity": 86}, {"time": 2686, "pitch": 56, "duration": 4, "velocity": 76}, {"time": 2692, "pitch": 66, "duration": 4, "velocity": 71}, {"time": 2695, "pitch": 68, "duration": 9, "velocity": 55}, {"time": 2704, "pitch": 45, "duration": 39, "velocity": 72}, {"time": 2704, "pitch": 59, "duration": 11, "velocity": 68}, {"time": 2704, "pitch": 64, "duration": 13, "velocity": 79}, {"time": 2710, "pitch": 52, "duration": 28, "velocity": 63}, {"time": 2716, "pitch": 57, "duration": 11, "velocity": 60}, {"time": 2722, "pitch": 61, "duration": 12, "velocity": 76}, {"time": 2722, "pitch": 64, "duration": 13, "velocity": 84}, {"time": 2740, "pitch": 52, "duration": 8, "velocity": 29}, {"time": 2740, "pitch": 57, "duration": 5, "velocity": 72}, {"time": 2746, "pitch": 66, "duration": 6, "velocity": 76}, {"time": 2752, "pitch": 44, "duration": 9, "velocity": 72}, {"time": 2752, "pitch": 59, "duration": 11, "velocity": 63}, {"time": 2752, "pitch": 68, "duration": 11, "velocity": 81}, {"time": 2758, "pitch": 52, "duration": 26, "velocity": 59}, {"time": 2764, "pitch": 56, "duration": 10, "velocity": 73}, {"time": 2770, "pitch": 59, "duration": 9, "velocity": 76}, {"time": 2770, "pitch": 64, "duration": 10, "velocity": 86}, {"time": 2782, "pitch": 56, "duration": 4, "velocity": 71}, {"time": 2788, "pitch": 71, "duration": 4, "velocity": 76}, {"time": 2800, "pitch": 42, "duration": 12, "velocity": 80}, {"time": 2800, "pitch": 61, "duration": 10, "velocity": 69}, {"time": 2800, "pitch": 64, "duration": 10, "velocity": 78}, {"time": 2800, "pitch": 69, "duration": 11, "velocity": 76}, {"time": 2806, "pitch": 54, "duration": 8, "velocity": 43}, {"time": 2812, "pitch": 66, "duration": 4, "velocity": 76}, {"time": 2818, "pitch": 68, "duration": 4, "velocity": 78}, {"time": 2824, "pitch": 47, "duration": 12, "velocity": 63}, {"time": 2824, "pitch": 54, "duration": 14, "velocity": 78}, {"time": 2824, "pitch": 59, "duration": 14, "velocity": 67}, {"time": 2824, "pitch": 64, "duration": 12, "velocity": 72}, {"time": 2824, "pitch": 69, "duration": 15, "velocity": 70}, {"time": 2848, "pitch": 52, "duration": 36, "velocity": 78}, {"time": 2848, "pitch": 64, "duration": 5, "velocity": 71}, {"time": 2848, "pitch": 66, "duration": 6, "velocity": 77}, {"time": 2848, "pitch": 68, "duration": 7, "velocity": 76}, {"time": 2854, "pitch": 59, "duration": 30, "velocity": 68}, {"time": 2860, "pitch": 64, "duration": 9, "velocity": 56}, {"time": 2866, "pitch": 66, "duration": 12, "velocity": 71}, {"time": 2866, "pitch": 69, "duration": 14, "velocity": 78}, {"time": 2878, "pitch": 64, "duration": 5, "velocity": 59}, {"time": 2884, "pitch": 68, "duration": 10, "velocity": 71}, {"time": 2884, "pitch": 71, "duration": 11, "velocity": 75}, {"time": 2896, "pitch": 52, "duration": 33, "velocity": 79}, {"time": 2896, "pitch": 68, "duration": 7, "velocity": 78}, {"time": 2896, "pitch": 76, "duration": 9, "velocity": 90}, {"time": 2902, "pitch": 59, "duration": 7, "velocity": 59}, {"time": 2908, "pitch": 66, "duration": 3, "velocity": 80}, {"time": 2908, "pitch": 75, "duration": 3, "velocity": 79}, {"time": 2914, "pitch": 59, "duration": 4, "velocity": 60}, {"time": 2920, "pitch": 64, "duration": 7, "velocity": 83}, {"time": 2920, "pitch": 71, "duration": 6, "velocity": 86}, {"time": 2932, "pitch": 66, "duration": 6, "velocity": 83}, {"time": 2938, "pitch": 68, "duration": 6, "velocity": 78}, {"time": 2944, "pitch": 45, "duration": 13, "velocity": 83}, {"time": 2944, "pitch": 61, "duration": 11, "velocity": 76}, {"time": 2944, "pitch": 64, "duration": 13, "velocity": 82}, {"time": 2944, "pitch": 68, "duration": 3, "velocity": 58}, {"time": 2950, "pitch": 52, "duration": 8, "velocity": 71}, {"time": 2956, "pitch": 57, "duration": 4, "velocity": 71}, {"time": 2962, "pitch": 68, "duration": 5, "velocity": 73}, {"time": 2968, "pitch": 47, "duration": 13, "velocity": 84}, {"time": 2968, "pitch": 59, "duration": 8, "velocity": 82}, {"time": 2968, "pitch": 66, "duration": 10, "velocity": 77}, {"time": 2974, "pitch": 54, "duration": 9, "velocity": 62}, {"time": 2980, "pitch": 64, "duration": 5, "velocity": 83}, {"time": 2986, "pitch": 59, "duration": 8, "velocity": 80}, {"time": 2986, "pitch": 64, "duration": 7, "velocity": 61}, {"time": 2986, "pitch": 68, "duration": 11, "velocity": 79}, {"time": 2992, "pitch": 52, "duration": 38, "velocity": 76}, {"time": 2998, "pitch": 59, "duration": 19, "velocity": 73}, {"time": 3004, "pitch": 64, "duration": 15, "velocity": 59}, {"time": 3010, "pitch": 68, "duration": 3, "velocity": 67}, {"time": 3010, "pitch": 76, "duration": 4, "velocity": 82}, {"time": 3016, "pitch": 66, "duration": 6, "velocity": 78}, {"time": 3016, "pitch": 75, "duration": 4, "velocity": 71}, {"time": 3019, "pitch": 59, "duration": 9, "velocity": 73}, {"time": 3028, "pitch": 64, "duration": 3, "velocity": 80}, {"time": 3028, "pitch": 71, "duration": 4, "velocity": 84}, {"time": 3040, "pitch": 45, "duration": 13, "velocity": 83}, {"time": 3040, "pitch": 61, "duration": 10, "velocity": 76}, {"time": 3040, "pitch": 64, "duration": 10, "velocity": 78}, {"time": 3040, "pitch": 69, "duration": 10, "velocity": 79}, {"time": 3046, "pitch": 52, "duration": 7, "velocity": 78}, {"time": 3052, "pitch": 57, "duration": 4, "velocity": 76}, {"time": 3058, "pitch": 66, "duration": 4, "velocity": 72}, {"time": 3061, "pitch": 68, "duration": 5, "velocity": 69}, {"time": 3064, "pitch": 47, "duration": 12, "velocity": 80}, {"time": 3064, "pitch": 59, "duration": 9, "velocity": 76}, {"time": 3064, "pitch": 66, "duration": 10, "velocity": 79}, {"time": 3070, "pitch": 54, "duration": 5, "velocity": 73}, {"time": 3076, "pitch": 64, "duration": 5, "velocity": 76}, {"time": 3082, "pitch": 59, "duration": 31, "velocity": 78}, {"time": 3082, "pitch": 64, "duration": 28, "velocity": 72}, {"time": 3082, "pitch": 68, "duration": 30, "velocity": 75}, {"time": 3088, "pitch": 40, "duration": 11, "velocity": 80}, {"time": 3094, "pitch": 47, "duration": 6, "velocity": 76}, {"time": 3100, "pitch": 52, "duration": 7, "velocity": 73}, {"time": 3106, "pitch": 54, "duration": 13, "velocity": 76}, {"time": 3112, "pitch": 56, "duration": 8, "velocity": 80}, {"time": 3118, "pitch": 59, "duration": 4, "velocity": 73}, {"time": 3124, "pitch": 64, "duration": 7, "velocity": 83}, {"time": 3130, "pitch": 66, "duration": 6, "velocity": 76}, {"time": 3136, "pitch": 45, "duration": 13, "velocity": 82}, {"time": 3136, "pitch": 61, "duration": 13, "velocity": 79}, {"time": 3136, "pitch": 64, "duration": 12, "velocity": 84}, {"time": 3136, "pitch": 69, "duration": 11, "velocity": 83}, {"time": 3148, "pitch": 57, "duration": 3, "velocity": 79}, {"time": 3160, "pitch": 47, "duration": 13, "velocity": 78}, {"time": 3160, "pitch": 54, "duration": 14, "velocity": 76}, {"time": 3160, "pitch": 59, "duration": 9, "velocity": 74}, {"time": 3160, "pitch": 63, "duration": 7, "velocity": 79}, {"time": 3160, "pitch": 66, "duration": 9, "velocity": 79}, {"time": 3172, "pitch": 64, "duration": 4, "velocity": 77}, {"time": 3178, "pitch": 59, "duration": 14, "velocity": 68}, {"time": 3178, "pitch": 64, "duration": 14, "velocity": 81}, {"time": 3178, "pitch": 68, "duration": 12, "velocity": 79}, {"time": 3184, "pitch": 52, "duration": 40, "velocity": 78}, {"time": 3190, "pitch": 56, "duration": 17, "velocity": 69}, {"time": 3196, "pitch": 59, "duration": 4, "velocity": 63}, {"time": 3196, "pitch": 66, "duration": 4, "velocity": 69}, {"time": 3202, "pitch": 59, "duration": 14, "velocity": 78}, {"time": 3202, "pitch": 64, "duration": 14, "velocity": 82}, {"time": 3214, "pitch": 56, "duration": 8, "velocity": 78}, {"time": 3220, "pitch": 59, "duration": 7, "velocity": 80}, {"time": 3220, "pitch": 66, "duration": 6, "velocity": 79}, {"time": 3226, "pitch": 68, "duration": 6, "velocity": 78}, {"time": 3232, "pitch": 45, "duration": 35, "velocity": 84}, {"time": 3232, "pitch": 57, "duration": 6, "velocity": 60}, {"time": 3232, "pitch": 61, "duration": 10, "velocity": 81}, {"time": 3232, "pitch": 64, "duration": 9, "velocity": 83}, {"time": 3232, "pitch": 69, "duration": 8, "velocity": 84}, {"time": 3244, "pitch": 61, "duration": 4, "velocity": 78}, {"time": 3244, "pitch": 68, "duration": 6, "velocity": 80}, {"time": 3250, "pitch": 61, "duration": 12, "velocity": 59}, {"time": 3250, "pitch": 64, "duration": 13, "velocity": 84}, {"time": 3262, "pitch": 57, "duration": 16, "velocity": 76}, {"time": 3268, "pitch": 61, "duration": 4, "velocity": 79}, {"time": 3268, "pitch": 68, "duration": 5, "velocity": 79}, {"time": 3274, "pitch": 61, "duration": 7, "velocity": 39}, {"time": 3274, "pitch": 64, "duration": 8, "velocity": 80}, {"time": 3274, "pitch": 71, "duration": 6, "velocity": 45}, {"time": 3280, "pitch": 45, "duration": 39, "velocity": 84}, {"time": 3286, "pitch": 57, "duration": 7, "velocity": 79}, {"time": 3292, "pitch": 73, "duration": 2, "velocity": 73}, {"time": 3292, "pitch": 85, "duration": 3, "velocity": 79}, {"time": 3298, "pitch": 75, "duration": 3, "velocity": 78}, {"time": 3298, "pitch": 87, "duration": 3, "velocity": 91}, {"time": 3304, "pitch": 57, "duration": 2, "velocity": 59}, {"time": 3304, "pitch": 76, "duration": 2, "velocity": 72}, {"time": 3304, "pitch": 88, "duration": 3, "velocity": 91}, {"time": 3310, "pitch": 57, "duration": 2, "velocity": 48}, {"time": 3313, "pitch": 78, "duration": 2, "velocity": 75}, {"time": 3313, "pitch": 90, "duration": 3, "velocity": 81}, {"time": 3316, "pitch": 57, "duration": 4, "velocity": 79}, {"time": 3322, "pitch": 80, "duration": 3, "velocity": 72}, {"time": 3322, "pitch": 92, "duration": 3, "velocity": 84}, {"time": 3328, "pitch": 47, "duration": 39, "velocity": 83}, {"time": 3328, "pitch": 78, "duration": 8, "velocity": 68}, {"time": 3328, "pitch": 90, "duration": 6, "velocity": 82}, {"time": 3334, "pitch": 54, "duration": 39, "velocity": 76}, {"time": 3340, "pitch": 59, "duration": 27, "velocity": 71}, {"time": 3346, "pitch": 64, "duration": 7, "velocity": 82}, {"time": 3352, "pitch": 66, "duration": 3, "velocity": 75}, {"time": 3358, "pitch": 71, "duration": 5, "velocity": 57}, {"time": 3364, "pitch": 76, "duration": 4, "velocity": 79}, {"time": 3370, "pitch": 75, "duration": 12, "velocity": 79}, {"time": 3376, "pitch": 47, "duration": 35, "velocity": 78}, {"time": 3382, "pitch": 54, "duration": 10, "velocity": 72}, {"time": 3382, "pitch": 71, "duration": 5, "velocity": 83}, {"time": 3388, "pitch": 59, "duration": 6, "velocity": 52}, {"time": 3388, "pitch": 66, "duration": 3, "velocity": 52}, {"time": 3394, "pitch": 64, "duration": 3, "velocity": 81}, {"time": 3400, "pitch": 63, "duration": 4, "velocity": 81}, {"time": 3406, "pitch": 54, "duration": 3, "velocity": 77}, {"time": 3406, "pitch": 59, "duration": 5, "velocity": 80}, {"time": 3412, "pitch": 56, "duration": 4, "velocity": 44}, {"time": 3421, "pitch": 52, "duration": 42, "velocity": 78}, {"time": 3421, "pitch": 68, "duration": 14, "velocity": 40}, {"time": 3421, "pitch": 71, "duration": 12, "velocity": 83}, {"time": 3424, "pitch": 76, "duration": 16, "velocity": 83}, {"time": 3430, "pitch": 59, "duration": 15, "velocity": 76}, {"time": 3436, "pitch": 64, "duration": 13, "velocity": 76}, {"time": 3442, "pitch": 66, "duration": 12, "velocity": 78}, {"time": 3442, "pitch": 71, "duration": 16, "velocity": 90}, {"time": 3454, "pitch": 59, "duration": 12, "velocity": 76}, {"time": 3460, "pitch": 64, "duration": 7, "velocity": 83}, {"time": 3466, "pitch": 71, "duration": 20, "velocity": 84}, {"time": 3472, "pitch": 51, "duration": 31, "velocity": 79}, {"time": 3472, "pitch": 63, "duration": 10, "velocity": 80}, {"time": 3472, "pitch": 66, "duration": 11, "velocity": 82}, {"time": 3478, "pitch": 59, "duration": 19, "velocity": 69}, {"time": 3484, "pitch": 63, "duration": 13, "velocity": 75}, {"time": 3490, "pitch": 64, "duration": 8, "velocity": 83}, {"time": 3496, "pitch": 66, "duration": 7, "velocity": 80}, {"time": 3502, "pitch": 68, "duration": 7, "velocity": 72}, {"time": 3508, "pitch": 71, "duration": 8, "velocity": 84}, {"time": 3514, "pitch": 68, "duration": 7, "velocity": 73}, {"time": 3520, "pitch": 45, "duration": 15, "velocity": 78}, {"time": 3520, "pitch": 59, "duration": 18, "velocity": 62}, {"time": 3520, "pitch": 64, "duration": 17, "velocity": 79}, {"time": 3526, "pitch": 52, "duration": 9, "velocity": 79}, {"time": 3532, "pitch": 57, "duration": 4, "velocity": 70}, {"time": 3538, "pitch": 68, "duration": 8, "velocity": 71}, {"time": 3544, "pitch": 47, "duration": 15, "velocity": 83}, {"time": 3544, "pitch": 59, "duration": 9, "velocity": 75}, {"time": 3544, "pitch": 66, "duration": 11, "velocity": 79}, {"time": 3550, "pitch": 54, "duration": 8, "velocity": 72}, {"time": 3556, "pitch": 64, "duration": 5, "velocity": 79}, {"time": 3562, "pitch": 66, "duration": 6, "velocity": 77}, {"time": 3568, "pitch": 40, "duration": 10, "velocity": 72}, {"time": 3568, "pitch": 59, "duration": 25, "velocity": 75}, {"time": 3568, "pitch": 68, "duration": 25, "velocity": 80}, {"time": 3574, "pitch": 47, "duration": 6, "velocity": 78}, {"time": 3580, "pitch": 52, "duration": 9, "velocity": 60}, {"time": 3586, "pitch": 54, "duration": 11, "velocity": 73}, {"time": 3592, "pitch": 56, "duration": 6, "velocity": 78}, {"time": 3598, "pitch": 59, "duration": 5, "velocity": 82}, {"time": 3604, "pitch": 64, "duration": 7, "velocity": 73}, {"time": 3610, "pitch": 71, "duration": 5, "velocity": 80}, {"time": 3616, "pitch": 52, "duration": 36, "velocity": 76}, {"time": 3616, "pitch": 68, "duration": 15, "velocity": 74}, {"time": 3616, "pitch": 76, "duration": 18, "velocity": 90}, {"time": 3622, "pitch": 59, "duration": 14, "velocity": 72}, {"time": 3628, "pitch": 64, "duration": 9, "velocity": 71}, {"time": 3634, "pitch": 66, "duration": 11, "velocity": 80}, {"time": 3634, "pitch": 71, "duration": 9, "velocity": 84}, {"time": 3646, "pitch": 59, "duration": 4, "velocity": 83}, {"time": 3652, "pitch": 64, "duration": 6, "velocity": 80}, {"time": 3658, "pitch": 66, "duration": 15, "velocity": 69}, {"time": 3664, "pitch": 44, "duration": 36, "velocity": 82}, {"time": 3664, "pitch": 58, "duration": 8, "velocity": 54}, {"time": 3664, "pitch": 63, "duration": 14, "velocity": 80}, {"time": 3670, "pitch": 51, "duration": 31, "velocity": 80}, {"time": 3676, "pitch": 56, "duration": 22, "velocity": 79}, {"time": 3682, "pitch": 59, "duration": 8, "velocity": 86}, {"time": 3688, "pitch": 63, "duration": 8, "velocity": 82}, {"time": 3694, "pitch": 66, "duration": 7, "velocity": 80}, {"time": 3700, "pitch": 68, "duration": 6, "velocity": 75}, {"time": 3706, "pitch": 71, "duration": 4, "velocity": 72}, {"time": 3712, "pitch": 45, "duration": 18, "velocity": 84}, {"time": 3712, "pitch": 61, "duration": 14, "velocity": 72}, {"time": 3712, "pitch": 64, "duration": 15, "velocity": 82}, {"time": 3712, "pitch": 69, "duration": 15, "velocity": 77}, {"time": 3718, "pitch": 52, "duration": 14, "velocity": 77}, {"time": 3724, "pitch": 57, "duration": 8, "velocity": 68}, {"time": 3730, "pitch": 61, "duration": 3, "velocity": 79}, {"time": 3736, "pitch": 47, "duration": 13, "velocity": 84}, {"time": 3736, "pitch": 59, "duration": 3, "velocity": 67}, {"time": 3736, "pitch": 61, "duration": 2, "velocity": 53}, {"time": 3736, "pitch": 66, "duration": 11, "velocity": 86}, {"time": 3742, "pitch": 54, "duration": 10, "velocity": 79}, {"time": 3748, "pitch": 59, "duration": 7, "velocity": 79}, {"time": 3754, "pitch": 66, "duration": 6, "velocity": 78}, {"time": 3760, "pitch": 52, "duration": 44, "velocity": 75}, {"time": 3760, "pitch": 64, "duration": 9, "velocity": 81}, {"time": 3760, "pitch": 68, "duration": 11, "velocity": 76}, {"time": 3766, "pitch": 59, "duration": 42, "velocity": 71}, {"time": 3772, "pitch": 63, "duration": 19, "velocity": 60}, {"time": 3778, "pitch": 68, "duration": 9, "velocity": 68}, {"time": 3790, "pitch": 66, "duration": 8, "velocity": 77}, {"time": 3790, "pitch": 76, "duration": 9, "velocity": 86}, {"time": 3796, "pitch": 63, "duration": 7, "velocity": 60}, {"time": 3808, "pitch": 45, "duration": 27, "velocity": 82}, {"time": 3808, "pitch": 61, "duration": 14, "velocity": 74}, {"time": 3808, "pitch": 64, "duration": 12, "velocity": 78}, {"time": 3808, "pitch": 68, "duration": 16, "velocity": 72}, {"time": 3814, "pitch": 52, "duration": 20, "velocity": 69}, {"time": 3820, "pitch": 57, "duration": 8, "velocity": 75}, {"time": 3826, "pitch": 59, "duration": 8, "velocity": 82}, {"time": 3826, "pitch": 66, "duration": 9, "velocity": 75}, {"time": 3832, "pitch": 57, "duration": 3, "velocity": 76}, {"time": 3838, "pitch": 47, "duration": 6, "velocity": 84}, {"time": 3838, "pitch": 59, "duration": 9, "velocity": 78}, {"time": 3838, "pitch": 64, "duration": 7, "velocity": 81}, {"time": 3844, "pitch": 66, "duration": 8, "velocity": 80}, {"time": 3850, "pitch": 68, "duration": 13, "velocity": 79}, {"time": 3856, "pitch": 52, "duration": 38, "velocity": 79}, {"time": 3862, "pitch": 59, "duration": 12, "velocity": 73}, {"time": 3868, "pitch": 64, "duration": 9, "velocity": 68}, {"time": 3874, "pitch": 68, "duration": 4, "velocity": 71}, {"time": 3874, "pitch": 76, "duration": 8, "velocity": 84}, {"time": 3880, "pitch": 59, "duration": 6, "velocity": 56}, {"time": 3886, "pitch": 66, "duration": 5, "velocity": 77}, {"time": 3886, "pitch": 71, "duration": 4, "velocity": 83}, {"time": 3892, "pitch": 59, "duration": 2, "velocity": 63}, {"time": 3898, "pitch": 64, "duration": 5, "velocity": 76}, {"time": 3904, "pitch": 45, "duration": 14, "velocity": 83}, {"time": 3904, "pitch": 61, "duration": 14, "velocity": 76}, {"time": 3904, "pitch": 68, "duration": 13, "velocity": 80}, {"time": 3910, "pitch": 52, "duration": 9, "velocity": 69}, {"time": 3916, "pitch": 57, "duration": 5, "velocity": 75}, {"time": 3922, "pitch": 68, "duration": 5, "velocity": 68}, {"time": 3928, "pitch": 47, "duration": 13, "velocity": 84}, {"time": 3928, "pitch": 59, "duration": 9, "velocity": 77}, {"time": 3928, "pitch": 66, "duration": 9, "velocity": 81}, {"time": 3928, "pitch": 68, "duration": 1, "velocity": 40}, {"time": 3934, "pitch": 54, "duration": 9, "velocity": 75}, {"time": 3940, "pitch": 64, "duration": 5, "velocity": 80}, {"time": 3946, "pitch": 66, "duration": 6, "velocity": 80}, {"time": 3952, "pitch": 52, "duration": 38, "velocity": 78}, {"time": 3952, "pitch": 64, "duration": 6, "velocity": 82}, {"time": 3952, "pitch": 68, "duration": 8, "velocity": 80}, {"time": 3958, "pitch": 59, "duration": 10, "velocity": 73}, {"time": 3964, "pitch": 64, "duration": 7, "velocity": 63}, {"time": 3970, "pitch": 68, "duration": 3, "velocity": 68}, {"time": 3970, "pitch": 76, "duration": 3, "velocity": 82}, {"time": 3976, "pitch": 66, "duration": 6, "velocity": 76}, {"time": 3976, "pitch": 71, "duration": 6, "velocity": 80}, {"time": 3982, "pitch": 59, "duration": 8, "velocity": 78}, {"time": 3985, "pitch": 64, "duration": 6, "velocity": 82}, {"time": 3985, "pitch": 68, "duration": 7, "velocity": 79}, {"time": 3994, "pitch": 66, "duration": 5, "velocity": 77}, {"time": 4000, "pitch": 45, "duration": 15, "velocity": 83}, {"time": 4000, "pitch": 59, "duration": 14, "velocity": 78}, {"time": 4000, "pitch": 64, "duration": 14, "velocity": 82}, {"time": 4006, "pitch": 52, "duration": 9, "velocity": 73}, {"time": 4012, "pitch": 57, "duration": 6, "velocity": 75}, {"time": 4018, "pitch": 59, "duration": 4, "velocity": 78}, {"time": 4024, "pitch": 47, "duration": 10, "velocity": 83}, {"time": 4024, "pitch": 59, "duration": 8, "velocity": 80}, {"time": 4024, "pitch": 66, "duration": 8, "velocity": 81}, {"time": 4030, "pitch": 54, "duration": 6, "velocity": 73}, {"time": 4036, "pitch": 64, "duration": 5, "velocity": 80}, {"time": 4042, "pitch": 66, "duration": 6, "velocity": 76}, {"time": 4048, "pitch": 40, "duration": 35, "velocity": 75}, {"time": 4048, "pitch": 59, "duration": 13, "velocity": 73}, {"time": 4048, "pitch": 68, "duration": 11, "velocity": 75}, {"time": 4054, "pitch": 47, "duration": 29, "velocity": 77}, {"time": 4060, "pitch": 52, "duration": 23, "velocity": 76}, {"time": 4066, "pitch": 59, "duration": 7, "velocity": 78}, {"time": 4072, "pitch": 61, "duration": 4, "velocity": 78}, {"time": 4078, "pitch": 64, "duration": 5, "velocity": 82}, {"time": 4084, "pitch": 66, "duration": 5, "velocity": 79}, {"time": 4090, "pitch": 68, "duration": 8, "velocity": 71}, {"time": 4096, "pitch": 45, "duration": 37, "velocity": 82}, {"time": 4096, "pitch": 61, "duration": 14, "velocity": 74}, {"time": 4096, "pitch": 64, "duration": 14, "velocity": 80}, {"time": 4102, "pitch": 52, "duration": 32, "velocity": 76}, {"time": 4108, "pitch": 57, "duration": 13, "velocity": 71}, {"time": 4114, "pitch": 61, "duration": 4, "velocity": 78}, {"time": 4120, "pitch": 61, "duration": 6, "velocity": 60}, {"time": 4120, "pitch": 64, "duration": 8, "velocity": 80}, {"time": 4126, "pitch": 57, "duration": 8, "velocity": 76}, {"time": 4132, "pitch": 61, "duration": 5, "velocity": 75}, {"time": 4138, "pitch": 66, "duration": 4, "velocity": 78}, {"time": 4144, "pitch": 59, "duration": 8, "velocity": 77}, {"time": 4144, "pitch": 66, "duration": 6, "velocity": 80}, {"time": 4150, "pitch": 64, "duration": 4, "velocity": 83}, {"time": 4156, "pitch": 59, "duration": 4, "velocity": 75}, {"time": 4156, "pitch": 64, "duration": 4, "velocity": 82}, {"time": 4162, "pitch": 59, "duration": 3, "velocity": 63}, {"time": 4162, "pitch": 66, "duration": 5, "velocity": 75}, {"time": 4168, "pitch": 59, "duration": 13, "velocity": 74}, {"time": 4168, "pitch": 68, "duration": 14, "velocity": 81}, {"time": 4186, "pitch": 59, "duration": 5, "velocity": 42}, {"time": 4189, "pitch": 64, "duration": 8, "velocity": 62}, {"time": 4192, "pitch": 47, "duration": 82, "velocity": 81}, {"time": 4192, "pitch": 71, "duration": 9, "velocity": 75}, {"time": 4198, "pitch": 52, "duration": 12, "velocity": 75}, {"time": 4204, "pitch": 54, "duration": 68, "velocity": 71}, {"time": 4210, "pitch": 59, "duration": 7, "velocity": 82}, {"time": 4216, "pitch": 76, "duration": 4, "velocity": 79}, {"time": 4222, "pitch": 78, "duration": 4, "velocity": 71}, {"time": 4234, "pitch": 81, "duration": 5, "velocity": 76}, {"time": 4240, "pitch": 83, "duration": 2, "velocity": 78}, {"time": 4264, "pitch": 59, "duration": 6, "velocity": 21}, {"time": 4276, "pitch": 64, "duration": 5, "velocity": 59}, {"time": 4282, "pitch": 66, "duration": 6, "velocity": 51}, {"time": 4288, "pitch": 52, "duration": 20, "velocity": 78}, {"time": 4294, "pitch": 59, "duration": 5, "velocity": 56}, {"time": 4300, "pitch": 64, "duration": 15, "velocity": 76}, {"time": 4306, "pitch": 59, "duration": 7, "velocity": 43}, {"time": 4306, "pitch": 68, "duration": 7, "velocity": 71}, {"time": 4312, "pitch": 52, "duration": 20, "velocity": 72}, {"time": 4318, "pitch": 59, "duration": 8, "velocity": 48}, {"time": 4324, "pitch": 64, "duration": 12, "velocity": 72}, {"time": 4330, "pitch": 59, "duration": 7, "velocity": 63}, {"time": 4336, "pitch": 52, "duration": 18, "velocity": 63}, {"time": 4342, "pitch": 59, "duration": 5, "velocity": 53}, {"time": 4348, "pitch": 64, "duration": 8, "velocity": 75}, {"time": 4354, "pitch": 59, "duration": 7, "velocity": 59}, {"time": 4360, "pitch": 52, "duration": 21, "velocity": 73}, {"time": 4366, "pitch": 59, "duration": 5, "velocity": 60}, {"time": 4372, "pitch": 63, "duration": 12, "velocity": 69}, {"time": 4372, "pitch": 66, "duration": 11, "velocity": 73}, {"time": 4378, "pitch": 59, "duration": 9, "velocity": 53}, {"time": 4384, "pitch": 51, "duration": 20, "velocity": 69}, {"time": 4390, "pitch": 59, "duration": 8, "velocity": 57}, {"time": 4396, "pitch": 63, "duration": 14, "velocity": 63}, {"time": 4396, "pitch": 66, "duration": 13, "velocity": 62}, {"time": 4402, "pitch": 59, "duration": 9, "velocity": 60}, {"time": 4408, "pitch": 51, "duration": 16, "velocity": 72}, {"time": 4414, "pitch": 59, "duration": 6, "velocity": 51}, {"time": 4420, "pitch": 63, "duration": 13, "velocity": 67}, {"time": 4420, "pitch": 66, "duration": 12, "velocity": 58}, {"time": 4426, "pitch": 59, "duration": 8, "velocity": 55}, {"time": 4432, "pitch": 51, "duration": 20, "velocity": 62}, {"time": 4438, "pitch": 59, "duration": 8, "velocity": 50}, {"time": 4444, "pitch": 63, "duration": 11, "velocity": 71}, {"time": 4444, "pitch": 66, "duration": 14, "velocity": 62}, {"time": 4450, "pitch": 59, "duration": 8, "velocity": 59}, {"time": 4456, "pitch": 51, "duration": 12, "velocity": 78}, {"time": 4462, "pitch": 59, "duration": 6, "velocity": 69}, {"time": 4468, "pitch": 63, "duration": 15, "velocity": 62}, {"time": 4468, "pitch": 66, "duration": 14, "velocity": 68}, {"time": 4474, "pitch": 59, "duration": 8, "velocity": 60}, {"time": 4480, "pitch": 45, "duration": 21, "velocity": 71}, {"time": 4486, "pitch": 61, "duration": 8, "velocity": 53}, {"time": 4492, "pitch": 64, "duration": 14, "velocity": 71}, {"time": 4492, "pitch": 68, "duration": 11, "velocity": 59}, {"time": 4498, "pitch": 61, "duration": 8, "velocity": 57}, {"time": 4504, "pitch": 45, "duration": 19, "velocity": 73}, {"time": 4510, "pitch": 61, "duration": 8, "velocity": 62}, {"time": 4516, "pitch": 64, "duration": 13, "velocity": 75}, {"time": 4516, "pitch": 69, "duration": 12, "velocity": 74}, {"time": 4522, "pitch": 61, "duration": 8, "velocity": 61}, {"time": 4528, "pitch": 45, "duration": 19, "velocity": 71}, {"time": 4534, "pitch": 61, "duration": 6, "velocity": 62}, {"time": 4540, "pitch": 64, "duration": 8, "velocity": 68}, {"time": 4540, "pitch": 69, "duration": 13, "velocity": 72}, {"time": 4546, "pitch": 61, "duration": 8, "velocity": 60}, {"time": 4552, "pitch": 45, "duration": 12, "velocity": 70}, {"time": 4558, "pitch": 61, "duration": 5, "velocity": 59}, {"time": 4564, "pitch": 64, "duration": 8, "velocity": 73}, {"time": 4564, "pitch": 69, "duration": 8, "velocity": 69}, {"time": 4570, "pitch": 61, "duration": 8, "velocity": 60}, {"time": 4576, "pitch": 47, "duration": 20, "velocity": 80}, {"time": 4582, "pitch": 59, "duration": 7, "velocity": 54}, {"time": 4588, "pitch": 63, "duration": 8, "velocity": 61}, {"time": 4588, "pitch": 66, "duration": 9, "velocity": 56}, {"time": 4594, "pitch": 59, "duration": 8, "velocity": 54}, {"time": 4600, "pitch": 47, "duration": 19, "velocity": 76}, {"time": 4606, "pitch": 59, "duration": 8, "velocity": 60}, {"time": 4612, "pitch": 63, "duration": 9, "velocity": 73}, {"time": 4612, "pitch": 66, "duration": 12, "velocity": 70}, {"time": 4618, "pitch": 59, "duration": 8, "velocity": 58}, {"time": 4624, "pitch": 47, "duration": 20, "velocity": 75}, {"time": 4630, "pitch": 59, "duration": 5, "velocity": 71}, {"time": 4636, "pitch": 63, "duration": 4, "velocity": 76}, {"time": 4636, "pitch": 66, "duration": 4, "velocity": 68}, {"time": 4642, "pitch": 59, "duration": 9, "velocity": 71}, {"time": 4648, "pitch": 47, "duration": 15, "velocity": 82}, {"time": 4654, "pitch": 59, "duration": 9, "velocity": 69}, {"time": 4660, "pitch": 51, "duration": 8, "velocity": 73}, {"time": 4666, "pitch": 64, "duration": 8, "velocity": 77}, {"time": 4672, "pitch": 52, "duration": 21, "velocity": 80}, {"time": 4678, "pitch": 59, "duration": 8, "velocity": 68}, {"time": 4684, "pitch": 64, "duration": 6, "velocity": 78}, {"time": 4684, "pitch": 68, "duration": 15, "velocity": 73}, {"time": 4690, "pitch": 59, "duration": 9, "velocity": 69}, {"time": 4696, "pitch": 52, "duration": 19, "velocity": 79}, {"time": 4702, "pitch": 59, "duration": 5, "velocity": 71}, {"time": 4708, "pitch": 64, "duration": 17, "velocity": 73}, {"time": 4708, "pitch": 68, "duration": 18, "velocity": 76}, {"time": 4714, "pitch": 59, "duration": 9, "velocity": 46}, {"time": 4720, "pitch": 52, "duration": 21, "velocity": 75}, {"time": 4726, "pitch": 59, "duration": 7, "velocity": 61}, {"time": 4732, "pitch": 64, "duration": 17, "velocity": 75}, {"time": 4732, "pitch": 68, "duration": 14, "velocity": 72}, {"time": 4738, "pitch": 59, "duration": 8, "velocity": 63}, {"time": 4744, "pitch": 52, "duration": 22, "velocity": 80}, {"time": 4750, "pitch": 59, "duration": 5, "velocity": 62}, {"time": 4756, "pitch": 64, "duration": 10, "velocity": 76}, {"time": 4756, "pitch": 68, "duration": 14, "velocity": 59}, {"time": 4762, "pitch": 59, "duration": 8, "velocity": 56}, {"time": 4768, "pitch": 51, "duration": 20, "velocity": 76}, {"time": 4774, "pitch": 59, "duration": 7, "velocity": 62}, {"time": 4780, "pitch": 63, "duration": 14, "velocity": 72}, {"time": 4780, "pitch": 66, "duration": 13, "velocity": 59}, {"time": 4786, "pitch": 59, "duration": 9, "velocity": 60}, {"time": 4792, "pitch": 51, "duration": 20, "velocity": 80}, {"time": 4798, "pitch": 59, "duration": 7, "velocity": 69}, {"time": 4804, "pitch": 63, "duration": 13, "velocity": 81}, {"time": 4804, "pitch": 66, "duration": 14, "velocity": 76}, {"time": 4810, "pitch": 59, "duration": 8, "velocity": 60}, {"time": 4816, "pitch": 51, "duration": 20, "velocity": 76}, {"time": 4822, "pitch": 59, "duration": 7, "velocity": 72}, {"time": 4828, "pitch": 63, "duration": 9, "velocity": 78}, {"time": 4828, "pitch": 66, "duration": 14, "velocity": 72}, {"time": 4834, "pitch": 59, "duration": 8, "velocity": 69}, {"time": 4840, "pitch": 51, "duration": 13, "velocity": 79}, {"time": 4846, "pitch": 59, "duration": 7, "velocity": 71}, {"time": 4852, "pitch": 63, "duration": 8, "velocity": 76}, {"time": 4852, "pitch": 66, "duration": 9, "velocity": 63}, {"time": 4858, "pitch": 59, "duration": 8, "velocity": 69}, {"time": 4864, "pitch": 45, "duration": 20, "velocity": 78}, {"time": 4870, "pitch": 57, "duration": 7, "velocity": 72}, {"time": 4876, "pitch": 61, "duration": 13, "velocity": 75}, {"time": 4876, "pitch": 64, "duration": 14, "velocity": 80}, {"time": 4882, "pitch": 57, "duration": 10, "velocity": 71}, {"time": 4888, "pitch": 45, "duration": 19, "velocity": 73}, {"time": 4894, "pitch": 57, "duration": 7, "velocity": 75}, {"time": 4900, "pitch": 61, "duration": 16, "velocity": 79}, {"time": 4900, "pitch": 64, "duration": 14, "velocity": 72}, {"time": 4906, "pitch": 57, "duration": 9, "velocity": 72}, {"time": 4912, "pitch": 45, "duration": 21, "velocity": 75}, {"time": 4918, "pitch": 57, "duration": 7, "velocity": 75}, {"time": 4924, "pitch": 61, "duration": 15, "velocity": 80}, {"time": 4924, "pitch": 64, "duration": 15, "velocity": 69}, {"time": 4930, "pitch": 57, "duration": 9, "velocity": 73}, {"time": 4936, "pitch": 45, "duration": 13, "velocity": 83}, {"time": 4942, "pitch": 57, "duration": 7, "velocity": 75}, {"time": 4948, "pitch": 61, "duration": 15, "velocity": 79}, {"time": 4954, "pitch": 57, "duration": 4, "velocity": 52}, {"time": 4954, "pitch": 64, "duration": 10, "velocity": 74}, {"time": 4960, "pitch": 47, "duration": 20, "velocity": 79}, {"time": 4966, "pitch": 54, "duration": 9, "velocity": 59}, {"time": 4972, "pitch": 59, "duration": 14, "velocity": 80}, {"time": 4978, "pitch": 54, "duration": 8, "velocity": 35}, {"time": 4978, "pitch": 63, "duration": 9, "velocity": 79}, {"time": 4984, "pitch": 47, "duration": 21, "velocity": 73}, {"time": 4990, "pitch": 54, "duration": 9, "velocity": 44}, {"time": 4996, "pitch": 59, "duration": 5, "velocity": 75}, {"time": 5002, "pitch": 59, "duration": 8, "velocity": 48}, {"time": 5002, "pitch": 63, "duration": 11, "velocity": 80}, {"time": 5002, "pitch": 66, "duration": 13, "velocity": 74}, {"time": 5008, "pitch": 47, "duration": 21, "velocity": 79}, {"time": 5014, "pitch": 59, "duration": 7, "velocity": 76}, {"time": 5020, "pitch": 63, "duration": 6, "velocity": 75}, {"time": 5026, "pitch": 59, "duration": 9, "velocity": 82}, {"time": 5026, "pitch": 66, "duration": 14, "velocity": 78}, {"time": 5032, "pitch": 47, "duration": 24, "velocity": 79}, {"time": 5038, "pitch": 59, "duration": 4, "velocity": 75}, {"time": 5044, "pitch": 61, "duration": 5, "velocity": 71}, {"time": 5050, "pitch": 66, "duration": 7, "velocity": 68}, {"time": 5056, "pitch": 52, "duration": 39, "velocity": 59}, {"time": 5056, "pitch": 68, "duration": 5, "velocity": 11}, {"time": 5056, "pitch": 76, "duration": 13, "velocity": 83}, {"time": 5062, "pitch": 59, "duration": 14, "velocity": 62}, {"time": 5068, "pitch": 64, "duration": 10, "velocity": 67}, {"time": 5074, "pitch": 66, "duration": 10, "velocity": 78}, {"time": 5074, "pitch": 71, "duration": 14, "velocity": 84}, {"time": 5086, "pitch": 59, "duration": 9, "velocity": 72}, {"time": 5092, "pitch": 64, "duration": 6, "velocity": 78}, {"time": 5098, "pitch": 71, "duration": 10, "velocity": 78}, {"time": 5104, "pitch": 51, "duration": 39, "velocity": 79}, {"time": 5104, "pitch": 63, "duration": 9, "velocity": 74}, {"time": 5104, "pitch": 66, "duration": 10, "velocity": 79}, {"time": 5110, "pitch": 59, "duration": 16, "velocity": 58}, {"time": 5116, "pitch": 63, "duration": 15, "velocity": 71}, {"time": 5122, "pitch": 64, "duration": 15, "velocity": 83}, {"time": 5134, "pitch": 59, "duration": 8, "velocity": 62}, {"time": 5140, "pitch": 66, "duration": 5, "velocity": 79}, {"time": 5146, "pitch": 68, "duration": 6, "velocity": 74}, {"time": 5152, "pitch": 49, "duration": 37, "velocity": 76}, {"time": 5152, "pitch": 59, "duration": 8, "velocity": 68}, {"time": 5152, "pitch": 64, "duration": 11, "velocity": 76}, {"time": 5158, "pitch": 56, "duration": 15, "velocity": 56}, {"time": 5164, "pitch": 59, "duration": 5, "velocity": 60}, {"time": 5170, "pitch": 59, "duration": 2, "velocity": 30}, {"time": 5170, "pitch": 63, "duration": 7, "velocity": 78}, {"time": 5176, "pitch": 56, "duration": 13, "velocity": 60}, {"time": 5182, "pitch": 59, "duration": 7, "velocity": 82}, {"time": 5182, "pitch": 64, "duration": 6, "velocity": 83}, {"time": 5194, "pitch": 54, "duration": 5, "velocity": 63}, {"time": 5200, "pitch": 44, "duration": 35, "velocity": 77}, {"time": 5200, "pitch": 54, "duration": 3, "velocity": 19}, {"time": 5200, "pitch": 59, "duration": 12, "velocity": 83}, {"time": 5200, "pitch": 66, "duration": 15, "velocity": 78}, {"time": 5206, "pitch": 51, "duration": 30, "velocity": 72}, {"time": 5212, "pitch": 56, "duration": 11, "velocity": 57}, {"time": 5218, "pitch": 59, "duration": 12, "velocity": 79}, {"time": 5218, "pitch": 63, "duration": 14, "velocity": 73}, {"time": 5230, "pitch": 56, "duration": 16, "velocity": 56}, {"time": 5236, "pitch": 64, "duration": 6, "velocity": 78}, {"time": 5242, "pitch": 66, "duration": 8, "velocity": 73}, {"time": 5248, "pitch": 45, "duration": 37, "velocity": 78}, {"time": 5248, "pitch": 61, "duration": 13, "velocity": 79}, {"time": 5248, "pitch": 64, "duration": 13, "velocity": 80}, {"time": 5254, "pitch": 52, "duration": 30, "velocity": 71}, {"time": 5260, "pitch": 57, "duration": 12, "velocity": 70}, {"time": 5266, "pitch": 59, "duration": 12, "velocity": 77}, {"time": 5266, "pitch": 64, "duration": 13, "velocity": 54}, {"time": 5278, "pitch": 57, "duration": 6, "velocity": 58}, {"time": 5284, "pitch": 59, "duration": 6, "velocity": 76}, {"time": 5290, "pitch": 66, "duration": 5, "velocity": 79}, {"time": 5296, "pitch": 52, "duration": 38, "velocity": 62}, {"time": 5296, "pitch": 59, "duration": 8, "velocity": 73}, {"time": 5296, "pitch": 64, "duration": 9, "velocity": 73}, {"time": 5296, "pitch": 68, "duration": 10, "velocity": 76}, {"time": 5302, "pitch": 56, "duration": 20, "velocity": 62}, {"time": 5308, "pitch": 59, "duration": 22, "velocity": 61}, {"time": 5314, "pitch": 71, "duration": 14, "velocity": 84}, {"time": 5326, "pitch": 56, "duration": 6, "velocity": 60}, {"time": 5332, "pitch": 68, "duration": 10, "velocity": 74}, {"time": 5344, "pitch": 42, "duration": 12, "velocity": 77}, {"time": 5344, "pitch": 61, "duration": 26, "velocity": 72}, {"time": 5344, "pitch": 64, "duration": 25, "velocity": 63}, {"time": 5344, "pitch": 69, "duration": 27, "velocity": 81}, {"time": 5350, "pitch": 49, "duration": 7, "velocity": 63}, {"time": 5356, "pitch": 52, "duration": 7, "velocity": 67}, {"time": 5362, "pitch": 54, "duration": 17, "velocity": 73}, {"time": 5371, "pitch": 57, "duration": 9, "velocity": 77}, {"time": 5374, "pitch": 61, "duration": 7, "velocity": 75}, {"time": 5380, "pitch": 66, "duration": 6, "velocity": 74}, {"time": 5386, "pitch": 68, "duration": 6, "velocity": 75}, {"time": 5392, "pitch": 47, "duration": 37, "velocity": 80}, {"time": 5392, "pitch": 59, "duration": 8, "velocity": 71}, {"time": 5392, "pitch": 64, "duration": 14, "velocity": 79}, {"time": 5398, "pitch": 52, "duration": 32, "velocity": 72}, {"time": 5404, "pitch": 54, "duration": 13, "velocity": 73}, {"time": 5410, "pitch": 59, "duration": 13, "velocity": 75}, {"time": 5416, "pitch": 66, "duration": 5, "velocity": 79}, {"time": 5422, "pitch": 64, "duration": 5, "velocity": 77}, {"time": 5428, "pitch": 63, "duration": 6, "velocity": 63}, {"time": 5434, "pitch": 59, "duration": 6, "velocity": 56}, {"time": 5440, "pitch": 40, "duration": 11, "velocity": 79}, {"time": 5440, "pitch": 56, "duration": 12, "velocity": 71}, {"time": 5440, "pitch": 64, "duration": 15, "velocity": 82}, {"time": 5446, "pitch": 47, "duration": 6, "velocity": 69}, {"time": 5452, "pitch": 52, "duration": 9, "velocity": 69}, {"time": 5458, "pitch": 54, "duration": 12, "velocity": 73}, {"time": 5464, "pitch": 56, "duration": 8, "velocity": 71}, {"time": 5470, "pitch": 59, "duration": 5, "velocity": 79}, {"time": 5476, "pitch": 66, "duration": 6, "velocity": 78}, {"time": 5482, "pitch": 71, "duration": 17, "velocity": 80}, {"time": 5488, "pitch": 51, "duration": 40, "velocity": 71}, {"time": 5488, "pitch": 66, "duration": 12, "velocity": 78}, {"time": 5494, "pitch": 59, "duration": 27, "velocity": 53}, {"time": 5500, "pitch": 63, "duration": 13, "velocity": 69}, {"time": 5506, "pitch": 66, "duration": 5, "velocity": 75}, {"time": 5512, "pitch": 71, "duration": 5, "velocity": 79}, {"time": 5518, "pitch": 73, "duration": 5, "velocity": 75}, {"time": 5524, "pitch": 59, "duration": 3, "velocity": 71}, {"time": 5524, "pitch": 75, "duration": 12, "velocity": 68}, {"time": 5536, "pitch": 49, "duration": 38, "velocity": 72}, {"time": 5536, "pitch": 68, "duration": 13, "velocity": 71}, {"time": 5536, "pitch": 76, "duration": 9, "velocity": 77}, {"time": 5542, "pitch": 56, "duration": 12, "velocity": 57}, {"time": 5548, "pitch": 61, "duration": 9, "velocity": 59}, {"time": 5554, "pitch": 64, "duration": 13, "velocity": 62}, {"time": 5554, "pitch": 71, "duration": 12, "velocity": 84}, {"time": 5566, "pitch": 56, "duration": 7, "velocity": 55}, {"time": 5572, "pitch": 63, "duration": 5, "velocity": 60}, {"time": 5572, "pitch": 66, "duration": 6, "velocity": 77}, {"time": 5578, "pitch": 68, "duration": 6, "velocity": 63}, {"time": 5584, "pitch": 44, "duration": 35, "velocity": 75}, {"time": 5584, "pitch": 59, "duration": 12, "velocity": 62}, {"time": 5584, "pitch": 63, "duration": 12, "velocity": 60}, {"time": 5584, "pitch": 66, "duration": 12, "velocity": 73}, {"time": 5590, "pitch": 51, "duration": 31, "velocity": 57}, {"time": 5596, "pitch": 54, "duration": 19, "velocity": 58}, {"time": 5602, "pitch": 59, "duration": 9, "velocity": 72}, {"time": 5614, "pitch": 59, "duration": 8, "velocity": 76}, {"time": 5614, "pitch": 66, "duration": 8, "velocity": 77}, {"time": 5620, "pitch": 54, "duration": 11, "velocity": 60}, {"time": 5626, "pitch": 64, "duration": 5, "velocity": 71}, {"time": 5632, "pitch": 45, "duration": 40, "velocity": 79}, {"time": 5632, "pitch": 61, "duration": 13, "velocity": 75}, {"time": 5632, "pitch": 64, "duration": 11, "velocity": 55}, {"time": 5638, "pitch": 52, "duration": 31, "velocity": 72}, {"time": 5644, "pitch": 57, "duration": 14, "velocity": 58}, {"time": 5650, "pitch": 59, "duration": 14, "velocity": 79}, {"time": 5650, "pitch": 64, "duration": 14, "velocity": 81}, {"time": 5662, "pitch": 57, "duration": 6, "velocity": 62}, {"time": 5668, "pitch": 59, "duration": 6, "velocity": 81}, {"time": 5668, "pitch": 63, "duration": 11, "velocity": 75}, {"time": 5680, "pitch": 52, "duration": 26, "velocity": 75}, {"time": 5680, "pitch": 56, "duration": 5, "velocity": 68}, {"time": 5680, "pitch": 59, "duration": 12, "velocity": 78}, {"time": 5680, "pitch": 64, "duration": 10, "velocity": 74}, {"time": 5692, "pitch": 56, "duration": 8, "velocity": 68}, {"time": 5698, "pitch": 59, "duration": 14, "velocity": 79}, {"time": 5698, "pitch": 66, "duration": 11, "velocity": 79}, {"time": 5710, "pitch": 52, "duration": 7, "velocity": 71}, {"time": 5716, "pitch": 59, "duration": 3, "velocity": 80}, {"time": 5716, "pitch": 68, "duration": 2, "velocity": 78}, {"time": 5728, "pitch": 42, "duration": 21, "velocity": 78}, {"time": 5728, "pitch": 57, "duration": 12, "velocity": 77}, {"time": 5728, "pitch": 61, "duration": 12, "velocity": 59}, {"time": 5728, "pitch": 64, "duration": 11, "velocity": 75}, {"time": 5734, "pitch": 49, "duration": 15, "velocity": 68}, {"time": 5740, "pitch": 54, "duration": 9, "velocity": 57}, {"time": 5746, "pitch": 57, "duration": 3, "velocity": 72}, {"time": 5752, "pitch": 47, "duration": 16, "velocity": 81}, {"time": 5752, "pitch": 59, "duration": 8, "velocity": 86}, {"time": 5752, "pitch": 63, "duration": 8, "velocity": 82}, {"time": 5758, "pitch": 51, "duration": 9, "velocity": 76}, {"time": 5764, "pitch": 61, "duration": 5, "velocity": 82}, {"time": 5770, "pitch": 63, "duration": 6, "velocity": 75}, {"time": 5776, "pitch": 40, "duration": 38, "velocity": 78}, {"time": 5776, "pitch": 56, "duration": 13, "velocity": 63}, {"time": 5776, "pitch": 59, "duration": 11, "velocity": 75}, {"time": 5776, "pitch": 64, "duration": 12, "velocity": 81}, {"time": 5782, "pitch": 47, "duration": 44, "velocity": 73}, {"time": 5788, "pitch": 52, "duration": 8, "velocity": 63}, {"time": 5794, "pitch": 56, "duration": 14, "velocity": 69}, {"time": 5794, "pitch": 63, "duration": 14, "velocity": 82}, {"time": 5806, "pitch": 52, "duration": 12, "velocity": 61}, {"time": 5812, "pitch": 59, "duration": 7, "velocity": 60}, {"time": 5818, "pitch": 63, "duration": 5, "velocity": 74}, {"time": 5824, "pitch": 45, "duration": 13, "velocity": 83}, {"time": 5824, "pitch": 61, "duration": 11, "velocity": 76}, {"time": 5824, "pitch": 64, "duration": 13, "velocity": 82}, {"time": 5824, "pitch": 68, "duration": 3, "velocity": 58}, {"time": 5830, "pitch": 52, "duration": 8, "velocity": 71}, {"time": 5836, "pitch": 57, "duration": 4, "velocity": 71}, {"time": 5842, "pitch": 68, "duration": 5, "velocity": 73}, {"time": 5848, "pitch": 47, "duration": 13, "velocity": 84}, {"time": 5848, "pitch": 59, "duration": 8, "velocity": 82}, {"time": 5848, "pitch": 66, "duration": 10, "velocity": 77}, {"time": 5854, "pitch": 54, "duration": 9, "velocity": 62}, {"time": 5860, "pitch": 64, "duration": 5, "velocity": 83}, {"time": 5866, "pitch": 59, "duration": 8, "velocity": 80}, {"time": 5866, "pitch": 64, "duration": 7, "velocity": 61}, {"time": 5866, "pitch": 68, "duration": 11, "velocity": 79}, {"time": 5872, "pitch": 52, "duration": 38, "velocity": 76}, {"time": 5878, "pitch": 59, "duration": 19, "velocity": 73}, {"time": 5884, "pitch": 64, "duration": 15, "velocity": 59}, {"time": 5890, "pitch": 68, "duration": 3, "velocity": 67}, {"time": 5890, "pitch": 76, "duration": 4, "velocity": 82}, {"time": 5896, "pitch": 66, "duration": 6, "velocity": 78}, {"time": 5896, "pitch": 75, "duration": 4, "velocity": 71}, {"time": 5899, "pitch": 59, "duration": 9, "velocity": 73}, {"time": 5908, "pitch": 64, "duration": 3, "velocity": 80}, {"time": 5908, "pitch": 71, "duration": 4, "velocity": 84}, {"time": 5920, "pitch": 45, "duration": 13, "velocity": 83}, {"time": 5920, "pitch": 61, "duration": 10, "velocity": 76}, {"time": 5920, "pitch": 64, "duration": 10, "velocity": 78}, {"time": 5920, "pitch": 69, "duration": 10, "velocity": 79}, {"time": 5926, "pitch": 52, "duration": 7, "velocity": 78}, {"time": 5932, "pitch": 57, "duration": 4, "velocity": 76}, {"time": 5938, "pitch": 66, "duration": 4, "velocity": 72}, {"time": 5941, "pitch": 68, "duration": 5, "velocity": 69}, {"time": 5944, "pitch": 47, "duration": 12, "velocity": 80}, {"time": 5944, "pitch": 59, "duration": 9, "velocity": 76}, {"time": 5944, "pitch": 66, "duration": 10, "velocity": 79}, {"time": 5950, "pitch": 54, "duration": 5, "velocity": 73}, {"time": 5956, "pitch": 64, "duration": 5, "velocity": 76}, {"time": 5962, "pitch": 59, "duration": 31, "velocity": 78}, {"time": 5962, "pitch": 64, "duration": 28, "velocity": 72}, {"time": 5962, "pitch": 68, "duration": 30, "velocity": 75}, {"time": 5968, "pitch": 40, "duration": 11, "velocity": 80}, {"time": 5974, "pitch": 47, "duration": 6, "velocity": 76}, {"time": 5980, "pitch": 52, "duration": 7, "velocity": 73}, {"time": 5986, "pitch": 54, "duration": 13, "velocity": 76}, {"time": 5992, "pitch": 56, "duration": 8, "velocity": 80}, {"time": 5998, "pitch": 59, "duration": 4, "velocity": 73}, {"time": 6004, "pitch": 64, "duration": 7, "velocity": 83}, {"time": 6010, "pitch": 66, "duration": 6, "velocity": 76}, {"time": 6016, "pitch": 45, "duration": 13, "velocity": 82}, {"time": 6016, "pitch": 61, "duration": 13, "velocity": 79}, {"time": 6016, "pitch": 64, "duration": 12, "velocity": 84}, {"time": 6016, "pitch": 69, "duration": 11, "velocity": 83}, {"time": 6028, "pitch": 57, "duration": 3, "velocity": 79}, {"time": 6040, "pitch": 47, "duration": 13, "velocity": 78}, {"time": 6040, "pitch": 54, "duration": 14, "velocity": 76}, {"time": 6040, "pitch": 59, "duration": 9, "velocity": 74}, {"time": 6040, "pitch": 63, "duration": 7, "velocity": 79}, {"time": 6040, "pitch": 66, "duration": 9, "velocity": 79}, {"time": 6052, "pitch": 64, "duration": 4, "velocity": 77}, {"time": 6058, "pitch": 59, "duration": 14, "velocity": 68}, {"time": 6058, "pitch": 64, "duration": 14, "velocity": 81}, {"time": 6058, "pitch": 68, "duration": 12, "velocity": 79}, {"time": 6064, "pitch": 52, "duration": 40, "velocity": 78}, {"time": 6070, "pitch": 56, "duration": 17, "velocity": 69}, {"time": 6076, "pitch": 59, "duration": 4, "velocity": 63}, {"time": 6076, "pitch": 66, "duration": 4, "velocity": 69}, {"time": 6082, "pitch": 59, "duration": 14, "velocity": 78}, {"time": 6082, "pitch": 64, "duration": 14, "velocity": 82}, {"time": 6094, "pitch": 56, "duration": 8, "velocity": 78}, {"time": 6100, "pitch": 59, "duration": 7, "velocity": 80}, {"time": 6100, "pitch": 66, "duration": 6, "velocity": 79}, {"time": 6106, "pitch": 68, "duration": 6, "velocity": 78}, {"time": 6112, "pitch": 45, "duration": 35, "velocity": 84}, {"time": 6112, "pitch": 57, "duration": 6, "velocity": 60}, {"time": 6112, "pitch": 61, "duration": 10, "velocity": 81}, {"time": 6112, "pitch": 64, "duration": 9, "velocity": 83}, {"time": 6112, "pitch": 69, "duration": 8, "velocity": 84}, {"time": 6124, "pitch": 61, "duration": 4, "velocity": 78}, {"time": 6124, "pitch": 68, "duration": 6, "velocity": 80}, {"time": 6130, "pitch": 61, "duration": 12, "velocity": 59}, {"time": 6130, "pitch": 64, "duration": 13, "velocity": 84}, {"time": 6142, "pitch": 57, "duration": 16, "velocity": 76}, {"time": 6148, "pitch": 61, "duration": 4, "velocity": 79}, {"time": 6148, "pitch": 68, "duration": 5, "velocity": 79}, {"time": 6154, "pitch": 61, "duration": 7, "velocity": 39}, {"time": 6154, "pitch": 64, "duration": 8, "velocity": 80}, {"time": 6157, "pitch": 71, "duration": 6, "velocity": 45}, {"time": 6160, "pitch": 45, "duration": 39, "velocity": 84}, {"time": 6166, "pitch": 57, "duration": 7, "velocity": 79}, {"time": 6172, "pitch": 73, "duration": 2, "velocity": 73}, {"time": 6172, "pitch": 85, "duration": 3, "velocity": 79}, {"time": 6178, "pitch": 75, "duration": 3, "velocity": 78}, {"time": 6178, "pitch": 87, "duration": 3, "velocity": 91}, {"time": 6184, "pitch": 57, "duration": 2, "velocity": 59}, {"time": 6184, "pitch": 76, "duration": 2, "velocity": 72}, {"time": 6184, "pitch": 88, "duration": 3, "velocity": 91}, {"time": 6190, "pitch": 57, "duration": 2, "velocity": 48}, {"time": 6193, "pitch": 78, "duration": 2, "velocity": 75}, {"time": 6193, "pitch": 90, "duration": 3, "velocity": 81}, {"time": 6196, "pitch": 57, "duration": 4, "velocity": 79}, {"time": 6202, "pitch": 80, "duration": 3, "velocity": 72}, {"time": 6202, "pitch": 92, "duration": 3, "velocity": 84}, {"time": 6208, "pitch": 47, "duration": 39, "velocity": 83}, {"time": 6208, "pitch": 78, "duration": 8, "velocity": 68}, {"time": 6208, "pitch": 90, "duration": 6, "velocity": 82}, {"time": 6214, "pitch": 54, "duration": 39, "velocity": 76}, {"time": 6220, "pitch": 59, "duration": 27, "velocity": 71}, {"time": 6226, "pitch": 64, "duration": 7, "velocity": 82}, {"time": 6232, "pitch": 66, "duration": 3, "velocity": 75}, {"time": 6238, "pitch": 71, "duration": 5, "velocity": 57}, {"time": 6244, "pitch": 76, "duration": 4, "velocity": 79}, {"time": 6250, "pitch": 75, "duration": 12, "velocity": 79}, {"time": 6256, "pitch": 47, "duration": 35, "velocity": 78}, {"time": 6262, "pitch": 54, "duration": 10, "velocity": 72}, {"time": 6262, "pitch": 71, "duration": 5, "velocity": 83}, {"time": 6268, "pitch": 59, "duration": 6, "velocity": 52}, {"time": 6268, "pitch": 66, "duration": 3, "velocity": 52}, {"time": 6274, "pitch": 64, "duration": 3, "velocity": 81}, {"time": 6280, "pitch": 63, "duration": 4, "velocity": 81}, {"time": 6286, "pitch": 54, "duration": 3, "velocity": 77}, {"time": 6286, "pitch": 59, "duration": 5, "velocity": 80}, {"time": 6292, "pitch": 56, "duration": 4, "velocity": 44}, {"time": 6301, "pitch": 52, "duration": 42, "velocity": 78}, {"time": 6301, "pitch": 68, "duration": 14, "velocity": 40}, {"time": 6301, "pitch": 71, "duration": 12, "velocity": 83}, {"time": 6304, "pitch": 76, "duration": 16, "velocity": 83}, {"time": 6310, "pitch": 59, "duration": 15, "velocity": 76}, {"time": 6316, "pitch": 64, "duration": 13, "velocity": 76}, {"time": 6322, "pitch": 66, "duration": 12, "velocity": 78}, {"time": 6322, "pitch": 71, "duration": 16, "velocity": 90}, {"time": 6334, "pitch": 59, "duration": 12, "velocity": 76}, {"time": 6340, "pitch": 64, "duration": 7, "velocity": 83}, {"time": 6346, "pitch": 71, "duration": 20, "velocity": 84}, {"time": 6352, "pitch": 51, "duration": 31, "velocity": 79}, {"time": 6352, "pitch": 63, "duration": 10, "velocity": 80}, {"time": 6352, "pitch": 66, "duration": 11, "velocity": 82}, {"time": 6358, "pitch": 59, "duration": 19, "velocity": 69}, {"time": 6364, "pitch": 63, "duration": 13, "velocity": 75}, {"time": 6370, "pitch": 64, "duration": 8, "velocity": 83}, {"time": 6376, "pitch": 66, "duration": 7, "velocity": 80}, {"time": 6382, "pitch": 68, "duration": 7, "velocity": 72}, {"time": 6388, "pitch": 71, "duration": 8, "velocity": 84}, {"time": 6394, "pitch": 68, "duration": 7, "velocity": 73}, {"time": 6400, "pitch": 45, "duration": 15, "velocity": 78}, {"time": 6400, "pitch": 59, "duration": 18, "velocity": 62}, {"time": 6400, "pitch": 64, "duration": 17, "velocity": 79}, {"time": 6406, "pitch": 52, "duration": 9, "velocity": 79}, {"time": 6412, "pitch": 57, "duration": 4, "velocity": 70}, {"time": 6418, "pitch": 68, "duration": 8, "velocity": 71}, {"time": 6424, "pitch": 47, "duration": 15, "velocity": 83}, {"time": 6424, "pitch": 59, "duration": 9, "velocity": 75}, {"time": 6424, "pitch": 66, "duration": 11, "velocity": 79}, {"time": 6430, "pitch": 54, "duration": 8, "velocity": 72}, {"time": 6436, "pitch": 64, "duration": 5, "velocity": 79}, {"time": 6442, "pitch": 66, "duration": 6, "velocity": 77}, {"time": 6448, "pitch": 40, "duration": 10, "velocity": 72}, {"time": 6448, "pitch": 59, "duration": 25, "velocity": 75}, {"time": 6448, "pitch": 68, "duration": 25, "velocity": 80}, {"time": 6454, "pitch": 47, "duration": 6, "velocity": 78}, {"time": 6460, "pitch": 52, "duration": 9, "velocity": 60}, {"time": 6466, "pitch": 54, "duration": 11, "velocity": 73}, {"time": 6472, "pitch": 56, "duration": 6, "velocity": 78}, {"time": 6478, "pitch": 59, "duration": 5, "velocity": 82}, {"time": 6484, "pitch": 64, "duration": 7, "velocity": 73}, {"time": 6490, "pitch": 71, "duration": 5, "velocity": 80}, {"time": 6496, "pitch": 52, "duration": 36, "velocity": 76}, {"time": 6496, "pitch": 68, "duration": 15, "velocity": 74}, {"time": 6496, "pitch": 76, "duration": 18, "velocity": 90}, {"time": 6502, "pitch": 59, "duration": 14, "velocity": 72}, {"time": 6508, "pitch": 64, "duration": 9, "velocity": 71}, {"time": 6514, "pitch": 66, "duration": 11, "velocity": 80}, {"time": 6514, "pitch": 71, "duration": 9, "velocity": 84}, {"time": 6526, "pitch": 59, "duration": 4, "velocity": 83}, {"time": 6532, "pitch": 64, "duration": 6, "velocity": 80}, {"time": 6538, "pitch": 66, "duration": 15, "velocity": 69}, {"time": 6544, "pitch": 44, "duration": 36, "velocity": 82}, {"time": 6544, "pitch": 58, "duration": 8, "velocity": 54}, {"time": 6544, "pitch": 63, "duration": 14, "velocity": 80}, {"time": 6550, "pitch": 51, "duration": 31, "velocity": 80}, {"time": 6556, "pitch": 56, "duration": 22, "velocity": 79}, {"time": 6562, "pitch": 59, "duration": 8, "velocity": 86}, {"time": 6568, "pitch": 63, "duration": 8, "velocity": 82}, {"time": 6574, "pitch": 66, "duration": 7, "velocity": 80}, {"time": 6580, "pitch": 68, "duration": 6, "velocity": 75}, {"time": 6586, "pitch": 71, "duration": 4, "velocity": 72}, {"time": 6592, "pitch": 45, "duration": 18, "velocity": 84}, {"time": 6592, "pitch": 61, "duration": 14, "velocity": 72}, {"time": 6592, "pitch": 64, "duration": 15, "velocity": 82}, {"time": 6592, "pitch": 69, "duration": 15, "velocity": 77}, {"time": 6598, "pitch": 52, "duration": 14, "velocity": 77}, {"time": 6604, "pitch": 57, "duration": 8, "velocity": 68}, {"time": 6610, "pitch": 61, "duration": 3, "velocity": 79}, {"time": 6616, "pitch": 47, "duration": 13, "velocity": 84}, {"time": 6616, "pitch": 59, "duration": 3, "velocity": 67}, {"time": 6616, "pitch": 61, "duration": 2, "velocity": 53}, {"time": 6616, "pitch": 66, "duration": 11, "velocity": 86}, {"time": 6622, "pitch": 54, "duration": 10, "velocity": 79}, {"time": 6628, "pitch": 59, "duration": 7, "velocity": 79}, {"time": 6634, "pitch": 66, "duration": 6, "velocity": 78}, {"time": 6640, "pitch": 52, "duration": 44, "velocity": 75}, {"time": 6640, "pitch": 64, "duration": 9, "velocity": 81}, {"time": 6640, "pitch": 68, "duration": 11, "velocity": 76}, {"time": 6646, "pitch": 59, "duration": 42, "velocity": 71}, {"time": 6652, "pitch": 63, "duration": 19, "velocity": 60}, {"time": 6658, "pitch": 68, "duration": 9, "velocity": 68}, {"time": 6670, "pitch": 66, "duration": 8, "velocity": 77}, {"time": 6670, "pitch": 76, "duration": 9, "velocity": 86}, {"time": 6676, "pitch": 63, "duration": 7, "velocity": 60}, {"time": 6688, "pitch": 45, "duration": 27, "velocity": 82}, {"time": 6688, "pitch": 61, "duration": 14, "velocity": 74}, {"time": 6688, "pitch": 64, "duration": 12, "velocity": 78}, {"time": 6688, "pitch": 68, "duration": 16, "velocity": 72}, {"time": 6694, "pitch": 52, "duration": 20, "velocity": 69}, {"time": 6700, "pitch": 57, "duration": 8, "velocity": 75}, {"time": 6706, "pitch": 59, "duration": 8, "velocity": 82}, {"time": 6706, "pitch": 66, "duration": 9, "velocity": 75}, {"time": 6712, "pitch": 57, "duration": 3, "velocity": 76}, {"time": 6718, "pitch": 47, "duration": 6, "velocity": 84}, {"time": 6718, "pitch": 59, "duration": 9, "velocity": 78}, {"time": 6718, "pitch": 64, "duration": 7, "velocity": 81}, {"time": 6724, "pitch": 66, "duration": 8, "velocity": 80}, {"time": 6730, "pitch": 68, "duration": 13, "velocity": 79}, {"time": 6736, "pitch": 52, "duration": 38, "velocity": 79}, {"time": 6742, "pitch": 59, "duration": 12, "velocity": 73}, {"time": 6748, "pitch": 64, "duration": 9, "velocity": 68}, {"time": 6754, "pitch": 68, "duration": 4, "velocity": 71}, {"time": 6754, "pitch": 76, "duration": 8, "velocity": 84}, {"time": 6760, "pitch": 59, "duration": 6, "velocity": 56}, {"time": 6766, "pitch": 66, "duration": 5, "velocity": 77}, {"time": 6766, "pitch": 71, "duration": 4, "velocity": 83}, {"time": 6772, "pitch": 59, "duration": 2, "velocity": 63}, {"time": 6778, "pitch": 64, "duration": 5, "velocity": 76}, {"time": 6784, "pitch": 45, "duration": 14, "velocity": 83}, {"time": 6784, "pitch": 61, "duration": 14, "velocity": 76}, {"time": 6784, "pitch": 68, "duration": 13, "velocity": 80}, {"time": 6790, "pitch": 52, "duration": 9, "velocity": 69}, {"time": 6796, "pitch": 57, "duration": 5, "velocity": 75}, {"time": 6802, "pitch": 68, "duration": 5, "velocity": 68}, {"time": 6808, "pitch": 47, "duration": 13, "velocity": 84}, {"time": 6808, "pitch": 59, "duration": 9, "velocity": 77}, {"time": 6808, "pitch": 66, "duration": 9, "velocity": 81}, {"time": 6808, "pitch": 68, "duration": 1, "velocity": 40}, {"time": 6814, "pitch": 54, "duration": 9, "velocity": 75}, {"time": 6820, "pitch": 64, "duration": 5, "velocity": 80}, {"time": 6826, "pitch": 66, "duration": 6, "velocity": 80}, {"time": 6832, "pitch": 52, "duration": 38, "velocity": 78}, {"time": 6832, "pitch": 64, "duration": 6, "velocity": 82}, {"time": 6832, "pitch": 68, "duration": 8, "velocity": 80}, {"time": 6838, "pitch": 59, "duration": 10, "velocity": 73}, {"time": 6844, "pitch": 64, "duration": 7, "velocity": 63}, {"time": 6850, "pitch": 68, "duration": 3, "velocity": 68}, {"time": 6850, "pitch": 76, "duration": 3, "velocity": 82}, {"time": 6856, "pitch": 66, "duration": 6, "velocity": 76}, {"time": 6856, "pitch": 71, "duration": 6, "velocity": 80}, {"time": 6862, "pitch": 59, "duration": 8, "velocity": 78}, {"time": 6865, "pitch": 64, "duration": 6, "velocity": 82}, {"time": 6865, "pitch": 68, "duration": 7, "velocity": 79}, {"time": 6874, "pitch": 66, "duration": 5, "velocity": 77}, {"time": 6880, "pitch": 45, "duration": 15, "velocity": 83}, {"time": 6880, "pitch": 59, "duration": 14, "velocity": 78}, {"time": 6880, "pitch": 64, "duration": 14, "velocity": 82}, {"time": 6886, "pitch": 52, "duration": 9, "velocity": 73}, {"time": 6892, "pitch": 57, "duration": 6, "velocity": 75}, {"time": 6898, "pitch": 59, "duration": 4, "velocity": 78}, {"time": 6904, "pitch": 47, "duration": 10, "velocity": 83}, {"time": 6904, "pitch": 59, "duration": 8, "velocity": 80}, {"time": 6904, "pitch": 66, "duration": 8, "velocity": 81}, {"time": 6910, "pitch": 54, "duration": 6, "velocity": 73}, {"time": 6916, "pitch": 64, "duration": 5, "velocity": 80}, {"time": 6922, "pitch": 66, "duration": 6, "velocity": 76}, {"time": 6928, "pitch": 40, "duration": 35, "velocity": 75}, {"time": 6928, "pitch": 59, "duration": 13, "velocity": 73}, {"time": 6928, "pitch": 68, "duration": 11, "velocity": 75}, {"time": 6934, "pitch": 47, "duration": 29, "velocity": 77}, {"time": 6940, "pitch": 52, "duration": 23, "velocity": 76}, {"time": 6946, "pitch": 59, "duration": 7, "velocity": 78}, {"time": 6952, "pitch": 61, "duration": 4, "velocity": 78}, {"time": 6958, "pitch": 64, "duration": 5, "velocity": 82}, {"time": 6964, "pitch": 66, "duration": 5, "velocity": 79}, {"time": 6970, "pitch": 68, "duration": 8, "velocity": 71}, {"time": 6976, "pitch": 45, "duration": 14, "velocity": 83}, {"time": 6976, "pitch": 61, "duration": 17, "velocity": 70}, {"time": 6976, "pitch": 64, "duration": 16, "velocity": 77}, {"time": 6976, "pitch": 69, "duration": 14, "velocity": 79}, {"time": 6982, "pitch": 52, "duration": 9, "velocity": 54}, {"time": 6988, "pitch": 57, "duration": 4, "velocity": 39}, {"time": 6994, "pitch": 71, "duration": 7, "velocity": 60}, {"time": 7000, "pitch": 47, "duration": 13, "velocity": 79}, {"time": 7000, "pitch": 68, "duration": 13, "velocity": 78}, {"time": 7006, "pitch": 54, "duration": 9, "velocity": 75}, {"time": 7012, "pitch": 59, "duration": 10, "velocity": 70}, {"time": 7012, "pitch": 66, "duration": 6, "velocity": 75}, {"time": 7018, "pitch": 64, "duration": 12, "velocity": 79}, {"time": 7024, "pitch": 52, "duration": 38, "velocity": 72}, {"time": 7030, "pitch": 59, "duration": 15, "velocity": 76}, {"time": 7036, "pitch": 64, "duration": 17, "velocity": 71}, {"time": 7042, "pitch": 71, "duration": 4, "velocity": 73}, {"time": 7048, "pitch": 75, "duration": 6, "velocity": 73}, {"time": 7054, "pitch": 76, "duration": 3, "velocity": 79}, {"time": 7060, "pitch": 59, "duration": 3, "velocity": 72}, {"time": 7060, "pitch": 75, "duration": 7, "velocity": 63}, {"time": 7066, "pitch": 71, "duration": 6, "velocity": 60}, {"time": 7072, "pitch": 45, "duration": 17, "velocity": 79}, {"time": 7072, "pitch": 73, "duration": 7, "velocity": 76}, {"time": 7078, "pitch": 52, "duration": 11, "velocity": 71}, {"time": 7084, "pitch": 57, "duration": 8, "velocity": 61}, {"time": 7090, "pitch": 61, "duration": 4, "velocity": 60}, {"time": 7096, "pitch": 47, "duration": 14, "velocity": 77}, {"time": 7096, "pitch": 59, "duration": 9, "velocity": 75}, {"time": 7096, "pitch": 66, "duration": 10, "velocity": 73}, {"time": 7102, "pitch": 54, "duration": 8, "velocity": 61}, {"time": 7108, "pitch": 64, "duration": 4, "velocity": 69}, {"time": 7114, "pitch": 59, "duration": 13, "velocity": 73}, {"time": 7114, "pitch": 68, "duration": 15, "velocity": 76}, {"time": 7120, "pitch": 52, "duration": 34, "velocity": 72}, {"time": 7126, "pitch": 56, "duration": 16, "velocity": 60}, {"time": 7132, "pitch": 59, "duration": 4, "velocity": 57}, {"time": 7138, "pitch": 59, "duration": 13, "velocity": 48}, {"time": 7138, "pitch": 66, "duration": 13, "velocity": 71}, {"time": 7150, "pitch": 56, "duration": 3, "velocity": 63}, {"time": 7156, "pitch": 59, "duration": 3, "velocity": 61}, {"time": 7168, "pitch": 45, "duration": 14, "velocity": 75}, {"time": 7168, "pitch": 52, "duration": 13, "velocity": 58}, {"time": 7168, "pitch": 57, "duration": 6, "velocity": 57}, {"time": 7168, "pitch": 61, "duration": 15, "velocity": 68}, {"time": 7168, "pitch": 64, "duration": 13, "velocity": 71}, {"time": 7180, "pitch": 57, "duration": 3, "velocity": 69}, {"time": 7192, "pitch": 47, "duration": 11, "velocity": 73}, {"time": 7192, "pitch": 54, "duration": 11, "velocity": 75}, {"time": 7192, "pitch": 59, "duration": 9, "velocity": 60}, {"time": 7192, "pitch": 63, "duration": 6, "velocity": 62}, {"time": 7192, "pitch": 66, "duration": 11, "velocity": 63}, {"time": 7204, "pitch": 64, "duration": 5, "velocity": 73}, {"time": 7210, "pitch": 59, "duration": 13, "velocity": 38}, {"time": 7210, "pitch": 66, "duration": 13, "velocity": 75}, {"time": 7216, "pitch": 40, "duration": 37, "velocity": 79}, {"time": 7222, "pitch": 52, "duration": 15, "velocity": 57}, {"time": 7228, "pitch": 59, "duration": 4, "velocity": 58}, {"time": 7234, "pitch": 59, "duration": 8, "velocity": 70}, {"time": 7234, "pitch": 68, "duration": 13, "velocity": 71}, {"time": 7240, "pitch": 52, "duration": 6, "velocity": 40}, {"time": 7246, "pitch": 59, "duration": 7, "velocity": 55}, {"time": 7246, "pitch": 66, "duration": 8, "velocity": 73}, {"time": 7252, "pitch": 52, "duration": 6, "velocity": 49}, {"time": 7264, "pitch": 45, "duration": 13, "velocity": 59}, {"time": 7264, "pitch": 61, "duration": 14, "velocity": 56}, {"time": 7264, "pitch": 64, "duration": 13, "velocity": 69}, {"time": 7288, "pitch": 47, "duration": 10, "velocity": 68}, {"time": 7288, "pitch": 59, "duration": 8, "velocity": 56}, {"time": 7288, "pitch": 63, "duration": 7, "velocity": 58}, {"time": 7288, "pitch": 66, "duration": 7, "velocity": 63}, {"time": 7312, "pitch": 40, "duration": 40, "velocity": 59}, {"time": 7312, "pitch": 52, "duration": 38, "velocity": 53}, {"time": 7312, "pitch": 56, "duration": 40, "velocity": 47}, {"time": 7312, "pitch": 59, "duration": 41, "velocity": 68}, {"time": 7312, "pitch": 64, "duration": 42, "velocity": 57}], "annotations": [{"time": 168, "annotation": {"number": 64, "value": 127}, "group": "control_change"}, {"time": 256, "annotation": {"number": 64, "value": 0}, "group": "control_change"}, {"time": 263, "annotation": {"number": 64, "value": 127}, "group": "control_change"}, {"time": 307, "annotation": {"number": 64, "value": 0}, "group": "control_change"}, {"time": 313, "annotation": {"number": 64, "value": 127}, "group": "control_change"}, {"time": 351, "annotation": {"number": 64, "value": 0}, "group": "control_change"}, {"time": 358, "annotation": {"number": 64, "value": 127}, "group": "control_change"}, {"time": 445, "annotation": {"number": 64, "value": 0}, "group": "control_change"}, {"time": 452, "annotation": {"number": 64, "value": 127}, "group": "control_change"}, {"time": 542, "annotation": {"number": 64, "value": 0}, "group": "control_change"}, {"time": 552, "annotation": {"number": 64, "value": 127}, "group": "control_change"}, {"time": 640, "annotation": {"number": 64, "value": 0}, "group": "control_change"}, {"time": 647, "annotation": {"number": 64, "value": 127}, "group": "control_change"}, {"time": 691, "annotation": {"number": 64, "value": 0}, "group": "control_change"}, {"time": 697, "annotation": {"number": 64, "value": 127}, "group": "control_change"}, {"time": 735, "annotation": {"number": 64, "value": 0}, "group": "control_change"}, {"time": 742, "annotation": {"number": 64, "value": 127}, "group": "control_change"}, {"time": 829, "annotation": {"number": 64, "value": 0}, "group": "control_change"}, {"time": 836, "annotation": {"number": 64, "value": 127}, "group": "control_change"}, {"time": 926, "annotation": {"number": 64, "value": 0}, "group": "control_change"}, {"time": 936, "annotation": {"number": 64, "value": 127}, "group": "control_change"}, {"time": 1024, "annotation": {"number": 64, "value": 0}, "group": "control_change"}, {"time": 1031, "annotation": {"number": 64, "value": 127}, "group": "control_change"}, {"time": 1075, "annotation": {"number": 64, "value": 0}, "group": "control_change"}, {"time": 1081, "annotation": {"number": 64, "value": 127}, "group": "control_change"}, {"time": 1119, "annotation": {"number": 64, "value": 0}, "group": "control_change"}, {"time": 1126, "annotation": {"number": 64, "value": 127}, "group": "control_change"}, {"time": 1213, "annotation": {"number": 64, "value": 0}, "group": "control_change"}, {"time": 1220, "annotation": {"number": 64, "value": 127}, "group": "control_change"}, {"time": 1312, "annotation": {"number": 64, "value": 127}, "group": "control_change"}, {"time": 1312, "annotation": {"number": 64, "value": 0}, "group": "control_change"}, {"time": 1338, "annotation": {"number": 64, "value": 0}, "group": "control_change"}, {"time": 1344, "annotation": {"number": 64, "value": 127}, "group": "control_change"}, {"time": 1361, "annotation": {"number": 64, "value": 0}, "group": "control_change"}, {"time": 1367, "annotation": {"number": 64, "value": 127}, "group": "control_change"}, {"time": 1386, "annotation": {"number": 64, "value": 0}, "group": "control_change"}, {"time": 1390, "annotation": {"number": 64, "value": 127}, "group": "control_change"}, {"time": 1407, "annotation": {"number": 64, "value": 0}, "group": "control_change"}, {"time": 1418, "annotation": {"number": 64, "value": 127}, "group": "control_change"}, {"time": 1434, "annotation": {"number": 64, "value": 0}, "group": "control_change"}, {"time": 1439, "annotation": {"number": 64, "value": 127}, "group": "control_change"}, {"time": 1457, "annotation": {"number": 64, "value": 0}, "group": "control_change"}, {"time": 1462, "annotation": {"number": 64, "value": 127}, "group": "control_change"}, {"time": 1480, "annotation": {"number": 64, "value": 0}, "group": "control_change"}, {"time": 1492, "annotation": {"number": 64, "value": 127}, "group": "control_change"}, {"time": 1506, "annotation": {"number": 64, "value": 0}, "group": "control_change"}, {"time": 1510, "annotation": {"number": 64, "value": 127}, "group": "control_change"}, {"time": 1528, "annotation": {"number": 64, "value": 0}, "group": "control_change"}, {"time": 1531, "annotation": {"number": 64, "value": 127}, "group": "control_change"}, {"time": 1552, "annotation": {"number": 64, "value": 0}, "group": "control_change"}, {"time": 1557, "annotation": {"number": 64, "value": 127}, "group": "control_change"}, {"time": 1574, "annotation": {"number": 64, "value": 0}, "group": "control_change"}, {"time": 1578, "annotation": {"number": 64, "value": 127}, "group": "control_change"}, {"time": 1599, "annotation": {"number": 64, "value": 0}, "group": "control_change"}, {"time": 1604, "annotation": {"number": 64, "value": 127}, "group": "control_change"}, {"time": 1646, "annotation": {"number": 64, "value": 0}, "group": "control_change"}, {"time": 1650, "annotation": {"number": 64, "value": 127}, "group": "control_change"}, {"time": 1695, "annotation": {"number": 64, "value": 0}, "group": "control_change"}, {"time": 1700, "annotation": {"number": 64, "value": 127}, "group": "control_change"}, {"time": 1744, "annotation": {"number": 64, "value": 0}, "group": "control_change"}, {"time": 1748, "annotation": {"number": 64, "value": 127}, "group": "control_change"}, {"time": 1775, "annotation": {"number": 64, "value": 0}, "group": "control_change"}, {"time": 1793, "annotation": {"number": 64, "value": 127}, "group": "control_change"}, {"time": 1823, "annotation": {"number": 64, "value": 0}, "group": "control_change"}, {"time": 1830, "annotation": {"number": 64, "value": 127}, "group": "control_change"}, {"time": 1844, "annotation": {"number": 64, "value": 0}, "group": "control_change"}, {"time": 1850, "annotation": {"number": 64, "value": 127}, "group": "control_change"}, {"time": 1864, "annotation": {"number": 64, "value": 0}, "group": "control_change"}, {"time": 1870, "annotation": {"number": 64, "value": 127}, "group": "control_change"}, {"time": 1886, "annotation": {"number": 64, "value": 0}, "group": "control_change"}, {"time": 1893, "annotation": {"number": 64, "value": 127}, "group": "control_change"}, {"time": 1935, "annotation": {"number": 64, "value": 0}, "group": "control_change"}, {"time": 1943, "annotation": {"number": 64, "value": 127}, "group": "control_change"}, {"time": 1979, "annotation": {"number": 64, "value": 0}, "group": "control_change"}, {"time": 1984, "annotation": {"number": 64, "value": 127}, "group": "control_change"}, {"time": 2010, "annotation": {"number": 64, "value": 0}, "group": "control_change"}, {"time": 2015, "annotation": {"number": 64, "value": 127}, "group": "control_change"}, {"time": 2030, "annotation": {"number": 64, "value": 0}, "group": "control_change"}, {"time": 2036, "annotation": {"number": 64, "value": 127}, "group": "control_change"}, {"time": 2123, "annotation": {"number": 64, "value": 0}, "group": "control_change"}, {"time": 2128, "annotation": {"number": 64, "value": 127}, "group": "control_change"}, {"time": 2128, "annotation": {"number": 64, "value": 0}, "group": "control_change"}, {"time": 2129, "annotation": {"number": 64, "value": 0}, "group": "control_change"}, {"time": 2129, "annotation": {"number": 64, "value": 127}, "group": "control_change"}, {"time": 2176, "annotation": {"number": 64, "value": 0}, "group": "control_change"}, {"time": 2179, "annotation": {"number": 64, "value": 127}, "group": "control_change"}, {"time": 2224, "annotation": {"number": 64, "value": 0}, "group": "control_change"}, {"time": 2227, "annotation": {"number": 64, "value": 127}, "group": "control_change"}, {"time": 2274, "annotation": {"number": 64, "value": 0}, "group": "control_change"}, {"time": 2277, "annotation": {"number": 64, "value": 127}, "group": "control_change"}, {"time": 2323, "annotation": {"number": 64, "value": 0}, "group": "control_change"}, {"time": 2326, "annotation": {"number": 64, "value": 127}, "group": "control_change"}, {"time": 2371, "annotation": {"number": 64, "value": 0}, "group": "control_change"}, {"time": 2374, "annotation": {"number": 64, "value": 127}, "group": "control_change"}, {"time": 2379, "annotation": {"number": 64, "value": 0}, "group": "control_change"}, {"time": 2380, "annotation": {"number": 64, "value": 127}, "group": "control_change"}, {"time": 2417, "annotation": {"number": 64, "value": 0}, "group": "control_change"}, {"time": 2420, "annotation": {"number": 64, "value": 127}, "group": "control_change"}, {"time": 2466, "annotation": {"number": 64, "value": 0}, "group": "control_change"}, {"time": 2468, "annotation": {"number": 64, "value": 127}, "group": "control_change"}, {"time": 2514, "annotation": {"number": 64, "value": 0}, "group": "control_change"}, {"time": 2517, "annotation": {"number": 64, "value": 127}, "group": "control_change"}, {"time": 2563, "annotation": {"number": 64, "value": 0}, "group": "control_change"}, {"time": 2567, "annotation": {"number": 64, "value": 127}, "group": "control_change"}, {"time": 2610, "annotation": {"number": 64, "value": 0}, "group": "control_change"}, {"time": 2613, "annotation": {"number": 64, "value": 127}, "group": "control_change"}, {"time": 2617, "annotation": {"number": 64, "value": 0}, "group": "control_change"}, {"time": 2617, "annotation": {"number": 64, "value": 127}, "group": "control_change"}, {"time": 2618, "annotation": {"number": 64, "value": 0}, "group": "control_change"}, {"time": 2618, "annotation": {"number": 64, "value": 127}, "group": "control_change"}, {"time": 2659, "annotation": {"number": 64, "value": 0}, "group": "control_change"}, {"time": 2662, "annotation": {"number": 64, "value": 127}, "group": "control_change"}, {"time": 2705, "annotation": {"number": 64, "value": 0}, "group": "control_change"}, {"time": 2710, "annotation": {"number": 64, "value": 127}, "group": "control_change"}, {"time": 2754, "annotation": {"number": 64, "value": 0}, "group": "control_change"}, {"time": 2758, "annotation": {"number": 64, "value": 127}, "group": "control_change"}, {"time": 2762, "annotation": {"number": 64, "value": 0}, "group": "control_change"}, {"time": 2763, "annotation": {"number": 64, "value": 127}, "group": "control_change"}, {"time": 2803, "annotation": {"number": 64, "value": 0}, "group": "control_change"}, {"time": 2806, "annotation": {"number": 64, "value": 127}, "group": "control_change"}, {"time": 2825, "annotation": {"number": 64, "value": 0}, "group": "control_change"}, {"time": 2828, "annotation": {"number": 64, "value": 127}, "group": "control_change"}, {"time": 2848, "annotation": {"number": 64, "value": 0}, "group": "control_change"}, {"time": 2850, "annotation": {"number": 64, "value": 127}, "group": "control_change"}, {"time": 2896, "annotation": {"number": 64, "value": 0}, "group": "control_change"}, {"time": 2897, "annotation": {"number": 64, "value": 127}, "group": "control_change"}, {"time": 2941, "annotation": {"number": 64, "value": 0}, "group": "control_change"}, {"time": 2948, "annotation": {"number": 64, "value": 127}, "group": "control_change"}, {"time": 2968, "annotation": {"number": 64, "value": 0}, "group": "control_change"}, {"time": 2974, "annotation": {"number": 64, "value": 127}, "group": "control_change"}, {"time": 2991, "annotation": {"number": 64, "value": 0}, "group": "control_change"}, {"time": 2995, "annotation": {"number": 64, "value": 127}, "group": "control_change"}, {"time": 3040, "annotation": {"number": 64, "value": 0}, "group": "control_change"}, {"time": 3044, "annotation": {"number": 64, "value": 127}, "group": "control_change"}, {"time": 3063, "annotation": {"number": 64, "value": 0}, "group": "control_change"}, {"time": 3067, "annotation": {"number": 64, "value": 127}, "group": "control_change"}, {"time": 3088, "annotation": {"number": 64, "value": 0}, "group": "control_change"}, {"time": 3092, "annotation": {"number": 64, "value": 127}, "group": "control_change"}, {"time": 3136, "annotation": {"number": 64, "value": 0}, "group": "control_change"}, {"time": 3139, "annotation": {"number": 64, "value": 127}, "group": "control_change"}, {"time": 3161, "annotation": {"number": 64, "value": 0}, "group": "control_change"}, {"time": 3165, "annotation": {"number": 64, "value": 127}, "group": "control_change"}, {"time": 3182, "annotation": {"number": 64, "value": 0}, "group": "control_change"}, {"time": 3187, "annotation": {"number": 64, "value": 127}, "group": "control_change"}, {"time": 3230, "annotation": {"number": 64, "value": 0}, "group": "control_change"}, {"time": 3233, "annotation": {"number": 64, "value": 127}, "group": "control_change"}, {"time": 3329, "annotation": {"number": 64, "value": 0}, "group": "control_change"}, {"time": 3332, "annotation": {"number": 64, "value": 127}, "group": "control_change"}, {"time": 3420, "annotation": {"number": 64, "value": 0}, "group": "control_change"}, {"time": 3424, "annotation": {"number": 64, "value": 127}, "group": "control_change"}, {"time": 3473, "annotation": {"number": 64, "value": 0}, "group": "control_change"}, {"time": 3477, "annotation": {"number": 64, "value": 127}, "group": "control_change"}, {"time": 3522, "annotation": {"number": 64, "value": 0}, "group": "control_change"}, {"time": 3526, "annotation": {"number": 64, "value": 127}, "group": "control_change"}, {"time": 3546, "annotation": {"number": 64, "value": 0}, "group": "control_change"}, {"time": 3550, "annotation": {"number": 64, "value": 127}, "group": "control_change"}, {"time": 3570, "annotation": {"number": 64, "value": 0}, "group": "control_change"}, {"time": 3574, "annotation": {"number": 64, "value": 127}, "group": "control_change"}, {"time": 3616, "annotation": {"number": 64, "value": 0}, "group": "control_change"}, {"time": 3620, "annotation": {"number": 64, "value": 127}, "group": "control_change"}, {"time": 3668, "annotation": {"number": 64, "value": 0}, "group": "control_change"}, {"time": 3672, "annotation": {"number": 64, "value": 127}, "group": "control_change"}, {"time": 3714, "annotation": {"number": 64, "value": 0}, "group": "control_change"}, {"time": 3719, "annotation": {"number": 64, "value": 127}, "group": "control_change"}, {"time": 3739, "annotation": {"number": 64, "value": 0}, "group": "control_change"}, {"time": 3744, "annotation": {"number": 64, "value": 127}, "group": "control_change"}, {"time": 3762, "annotation": {"number": 64, "value": 0}, "group": "control_change"}, {"time": 3768, "annotation": {"number": 64, "value": 127}, "group": "control_change"}, {"time": 3808, "annotation": {"number": 64, "value": 0}, "group": "control_change"}, {"time": 3809, "annotation": {"number": 64, "value": 127}, "group": "control_change"}, {"time": 3855, "annotation": {"number": 64, "value": 0}, "group": "control_change"}, {"time": 3859, "annotation": {"number": 64, "value": 127}, "group": "control_change"}, {"time": 3904, "annotation": {"number": 64, "value": 0}, "group": "control_change"}, {"time": 3909, "annotation": {"number": 64, "value": 127}, "group": "control_change"}, {"time": 3931, "annotation": {"number": 64, "value": 0}, "group": "control_change"}, {"time": 3935, "annotation": {"number": 64, "value": 127}, "group": "control_change"}, {"time": 3951, "annotation": {"number": 64, "value": 0}, "group": "control_change"}, {"time": 3954, "annotation": {"number": 64, "value": 127}, "group": "control_change"}, {"time": 4000, "annotation": {"number": 64, "value": 0}, "group": "control_change"}, {"time": 4004, "annotation": {"number": 64, "value": 127}, "group": "control_change"}, {"time": 4026, "annotation": {"number": 64, "value": 0}, "group": "control_change"}, {"time": 4030, "annotation": {"number": 64, "value": 127}, "group": "control_change"}, {"time": 4048, "annotation": {"number": 64, "value": 0}, "group": "control_change"}, {"time": 4051, "annotation": {"number": 64, "value": 127}, "group": "control_change"}, {"time": 4097, "annotation": {"number": 64, "value": 0}, "group": "control_change"}, {"time": 4101, "annotation": {"number": 64, "value": 127}, "group": "control_change"}, {"time": 4191, "annotation": {"number": 64, "value": 0}, "group": "control_change"}, {"time": 4194, "annotation": {"number": 64, "value": 127}, "group": "control_change"}, {"time": 4288, "annotation": {"number": 64, "value": 0}, "group": "control_change"}, {"time": 4289, "annotation": {"number": 64, "value": 127}, "group": "control_change"}, {"time": 4311, "annotation": {"number": 64, "value": 0}, "group": "control_change"}, {"time": 4315, "annotation": {"number": 64, "value": 127}, "group": "control_change"}, {"time": 4333, "annotation": {"number": 64, "value": 0}, "group": "control_change"}, {"time": 4337, "annotation": {"number": 64, "value": 127}, "group": "control_change"}, {"time": 4378, "annotation": {"number": 64, "value": 0}, "group": "control_change"}, {"time": 4385, "annotation": {"number": 64, "value": 127}, "group": "control_change"}, {"time": 4479, "annotation": {"number": 64, "value": 0}, "group": "control_change"}, {"time": 4485, "annotation": {"number": 64, "value": 127}, "group": "control_change"}, {"time": 4507, "annotation": {"number": 64, "value": 0}, "group": "control_change"}, {"time": 4515, "annotation": {"number": 64, "value": 127}, "group": "control_change"}, {"time": 4530, "annotation": {"number": 64, "value": 0}, "group": "control_change"}, {"time": 4534, "annotation": {"number": 64, "value": 127}, "group": "control_change"}, {"time": 4575, "annotation": {"number": 64, "value": 0}, "group": "control_change"}, {"time": 4582, "annotation": {"number": 64, "value": 127}, "group": "control_change"}, {"time": 4671, "annotation": {"number": 64, "value": 0}, "group": "control_change"}, {"time": 4680, "annotation": {"number": 64, "value": 127}, "group": "control_change"}, {"time": 4718, "annotation": {"number": 64, "value": 0}, "group": "control_change"}, {"time": 4725, "annotation": {"number": 64, "value": 127}, "group": "control_change"}, {"time": 4768, "annotation": {"number": 64, "value": 0}, "group": "control_change"}, {"time": 4779, "annotation": {"number": 64, "value": 127}, "group": "control_change"}, {"time": 4865, "annotation": {"number": 64, "value": 0}, "group": "control_change"}, {"time": 4871, "annotation": {"number": 64, "value": 127}, "group": "control_change"}, {"time": 4961, "annotation": {"number": 64, "value": 0}, "group": "control_change"}, {"time": 4966, "annotation": {"number": 64, "value": 127}, "group": "control_change"}, {"time": 5056, "annotation": {"number": 64, "value": 0}, "group": "control_change"}, {"time": 5103, "annotation": {"number": 64, "value": 0}, "group": "control_change"}, {"time": 5108, "annotation": {"number": 64, "value": 127}, "group": "control_change"}, {"time": 5151, "annotation": {"number": 64, "value": 0}, "group": "control_change"}, {"time": 5156, "annotation": {"number": 64, "value": 127}, "group": "control_change"}, {"time": 5203, "annotation": {"number": 64, "value": 0}, "group": "control_change"}, {"time": 5211, "annotation": {"number": 64, "value": 127}, "group": "control_change"}, {"time": 5252, "annotation": {"number": 64, "value": 0}, "group": "control_change"}, {"time": 5258, "annotation": {"number": 64, "value": 127}, "group": "control_change"}, {"time": 5296, "annotation": {"number": 64, "value": 0}, "group": "control_change"}, {"time": 5303, "annotation": {"number": 64, "value": 127}, "group": "control_change"}, {"time": 5345, "annotation": {"number": 64, "value": 0}, "group": "control_change"}, {"time": 5349, "annotation": {"number": 64, "value": 127}, "group": "control_change"}, {"time": 5390, "annotation": {"number": 64, "value": 0}, "group": "control_change"}, {"time": 5396, "annotation": {"number": 64, "value": 127}, "group": "control_change"}, {"time": 5442, "annotation": {"number": 64, "value": 0}, "group": "control_change"}, {"time": 5447, "annotation": {"number": 64, "value": 127}, "group": "control_change"}, {"time": 5488, "annotation": {"number": 64, "value": 0}, "group": "control_change"}, {"time": 5491, "annotation": {"number": 64, "value": 127}, "group": "control_change"}, {"time": 5538, "annotation": {"number": 64, "value": 0}, "group": "control_change"}, {"time": 5542, "annotation": {"number": 64, "value": 127}, "group": "control_change"}, {"time": 5542, "annotation": {"number": 64, "value": 0}, "group": "control_change"}, {"time": 5543, "annotation": {"number": 64, "value": 127}, "group": "control_change"}, {"time": 5586, "annotation": {"number": 64, "value": 0}, "group": "control_change"}, {"time": 5591, "annotation": {"number": 64, "value": 127}, "group": "control_change"}, {"time": 5634, "annotation": {"number": 64, "value": 0}, "group": "control_change"}, {"time": 5639, "annotation": {"number": 64, "value": 127}, "group": "control_change"}, {"time": 5685, "annotation": {"number": 64, "value": 0}, "group": "control_change"}, {"time": 5690, "annotation": {"number": 64, "value": 127}, "group": "control_change"}, {"time": 5731, "annotation": {"number": 64, "value": 0}, "group": "control_change"}, {"time": 5735, "annotation": {"number": 64, "value": 127}, "group": "control_change"}, {"time": 5755, "annotation": {"number": 64, "value": 0}, "group": "control_change"}, {"time": 5759, "annotation": {"number": 64, "value": 127}, "group": "control_change"}, {"time": 5777, "annotation": {"number": 64, "value": 0}, "group": "control_change"}, {"time": 5780, "annotation": {"number": 64, "value": 127}, "group": "control_change"}, {"time": 5824, "annotation": {"number": 64, "value": 0}, "group": "control_change"}, {"time": 5828, "annotation": {"number": 64, "value": 127}, "group": "control_change"}, {"time": 5848, "annotation": {"number": 64, "value": 0}, "group": "control_change"}, {"time": 5854, "annotation": {"number": 64, "value": 127}, "group": "control_change"}, {"time": 5871, "annotation": {"number": 64, "value": 0}, "group": "control_change"}, {"time": 5875, "annotation": {"number": 64, "value": 127}, "group": "control_change"}, {"time": 5920, "annotation": {"number": 64, "value": 0}, "group": "control_change"}, {"time": 5924, "annotation": {"number": 64, "value": 127}, "group": "control_change"}, {"time": 5943, "annotation": {"number": 64, "value": 0}, "group": "control_change"}, {"time": 5947, "annotation": {"number": 64, "value": 127}, "group": "control_change"}, {"time": 5968, "annotation": {"number": 64, "value": 0}, "group": "control_change"}, {"time": 5972, "annotation": {"number": 64, "value": 127}, "group": "control_change"}, {"time": 6016, "annotation": {"number": 64, "value": 0}, "group": "control_change"}, {"time": 6019, "annotation": {"number": 64, "value": 127}, "group": "control_change"}, {"time": 6041, "annotation": {"number": 64, "value": 0}, "group": "control_change"}, {"time": 6045, "annotation": {"number": 64, "value": 127}, "group": "control_change"}, {"time": 6062, "annotation": {"number": 64, "value": 0}, "group": "control_change"}, {"time": 6067, "annotation": {"number": 64, "value": 127}, "group": "control_change"}, {"time": 6110, "annotation": {"number": 64, "value": 0}, "group": "control_change"}, {"time": 6113, "annotation": {"number": 64, "value": 127}, "group": "control_change"}, {"time": 6209, "annotation": {"number": 64, "value": 0}, "group": "control_change"}, {"time": 6212, "annotation": {"number": 64, "value": 127}, "group": "control_change"}, {"time": 6300, "annotation": {"number": 64, "value": 0}, "group": "control_change"}, {"time": 6304, "annotation": {"number": 64, "value": 127}, "group": "control_change"}, {"time": 6353, "annotation": {"number": 64, "value": 0}, "group": "control_change"}, {"time": 6357, "annotation": {"number": 64, "value": 127}, "group": "control_change"}, {"time": 6402, "annotation": {"number": 64, "value": 0}, "group": "control_change"}, {"time": 6406, "annotation": {"number": 64, "value": 127}, "group": "control_change"}, {"time": 6426, "annotation": {"number": 64, "value": 0}, "group": "control_change"}, {"time": 6430, "annotation": {"number": 64, "value": 127}, "group": "control_change"}, {"time": 6450, "annotation": {"number": 64, "value": 0}, "group": "control_change"}, {"time": 6454, "annotation": {"number": 64, "value": 127}, "group": "control_change"}, {"time": 6496, "annotation": {"number": 64, "value": 0}, "group": "control_change"}, {"time": 6500, "annotation": {"number": 64, "value": 127}, "group": "control_change"}, {"time": 6548, "annotation": {"number": 64, "value": 0}, "group": "control_change"}, {"time": 6552, "annotation": {"number": 64, "value": 127}, "group": "control_change"}, {"time": 6594, "annotation": {"number": 64, "value": 0}, "group": "control_change"}, {"time": 6599, "annotation": {"number": 64, "value": 127}, "group": "control_change"}, {"time": 6619, "annotation": {"number": 64, "value": 0}, "group": "control_change"}, {"time": 6624, "annotation": {"number": 64, "value": 127}, "group": "control_change"}, {"time": 6642, "annotation": {"number": 64, "value": 0}, "group": "control_change"}, {"time": 6648, "annotation": {"number": 64, "value": 127}, "group": "control_change"}, {"time": 6688, "annotation": {"number": 64, "value": 0}, "group": "control_change"}, {"time": 6689, "annotation": {"number": 64, "value": 127}, "group": "control_change"}, {"time": 6735, "annotation": {"number": 64, "value": 0}, "group": "control_change"}, {"time": 6739, "annotation": {"number": 64, "value": 127}, "group": "control_change"}, {"time": 6784, "annotation": {"number": 64, "value": 0}, "group": "control_change"}, {"time": 6789, "annotation": {"number": 64, "value": 127}, "group": "control_change"}, {"time": 6811, "annotation": {"number": 64, "value": 0}, "group": "control_change"}, {"time": 6815, "annotation": {"number": 64, "value": 127}, "group": "control_change"}, {"time": 6831, "annotation": {"number": 64, "value": 0}, "group": "control_change"}, {"time": 6834, "annotation": {"number": 64, "value": 127}, "group": "control_change"}, {"time": 6880, "annotation": {"number": 64, "value": 0}, "group": "control_change"}, {"time": 6884, "annotation": {"number": 64, "value": 127}, "group": "control_change"}, {"time": 6906, "annotation": {"number": 64, "value": 0}, "group": "control_change"}, {"time": 6910, "annotation": {"number": 64, "value": 127}, "group": "control_change"}, {"time": 6928, "annotation": {"number": 64, "value": 0}, "group": "control_change"}, {"time": 6931, "annotation": {"number": 64, "value": 127}, "group": "control_change"}, {"time": 6976, "annotation": {"number": 64, "value": 0}, "group": "control_change"}, {"time": 6980, "annotation": {"number": 64, "value": 127}, "group": "control_change"}, {"time": 7003, "annotation": {"number": 64, "value": 0}, "group": "control_change"}, {"time": 7009, "annotation": {"number": 64, "value": 127}, "group": "control_change"}, {"time": 7023, "annotation": {"number": 64, "value": 0}, "group": "control_change"}, {"time": 7027, "annotation": {"number": 64, "value": 127}, "group": "control_change"}, {"time": 7073, "annotation": {"number": 64, "value": 0}, "group": "control_change"}, {"time": 7077, "annotation": {"number": 64, "value": 127}, "group": "control_change"}, {"time": 7099, "annotation": {"number": 64, "value": 0}, "group": "control_change"}, {"time": 7103, "annotation": {"number": 64, "value": 127}, "group": "control_change"}, {"time": 7120, "annotation": {"number": 64, "value": 0}, "group": "control_change"}, {"time": 7125, "annotation": {"number": 64, "value": 127}, "group": "control_change"}, {"time": 7166, "annotation": {"number": 64, "value": 0}, "group": "control_change"}, {"time": 7170, "annotation": {"number": 64, "value": 127}, "group": "control_change"}, {"time": 7189, "annotation": {"number": 64, "value": 0}, "group": "control_change"}, {"time": 7193, "annotation": {"number": 64, "value": 127}, "group": "control_change"}, {"time": 7215, "annotation": {"number": 64, "value": 0}, "group": "control_change"}, {"time": 7219, "annotation": {"number": 64, "value": 127}, "group": "control_change"}, {"time": 7263, "annotation": {"number": 64, "value": 0}, "group": "control_change"}, {"time": 7268, "annotation": {"number": 64, "value": 127}, "group": "control_change"}, {"time": 7288, "annotation": {"number": 64, "value": 0}, "group": "control_change"}, {"time": 7292, "annotation": {"number": 64, "value": 127}, "group": "control_change"}, {"time": 7312, "annotation": {"number": 64, "value": 0}, "group": "control_change"}, {"time": 7316, "annotation": {"number": 64, "value": 127}, "group": "control_change"}, {"time": 7376, "annotation": {"number": 64, "value": 0}, "group": "control_change"}]}]}