{"metadata": {"schema_version": "0.2", "title": "None", "source_filename": "229.mid", "source_format": "midi"}, "resolution": 12, "tempos": [{"time": 0, "qpm": 112.00026880064512}], "time_signatures": [{"time": 0, "numerator": 4, "denominator": 4}], "tracks": [{"program": 0, "is_drum": false, "name": "MELODY", "notes": [{"time": 233, "pitch": 69, "duration": 12, "velocity": 82}, {"time": 245, "pitch": 76, "duration": 12, "velocity": 93}, {"time": 257, "pitch": 74, "duration": 19, "velocity": 91}, {"time": 275, "pitch": 72, "duration": 17, "velocity": 93}, {"time": 293, "pitch": 71, "duration": 12, "velocity": 92}, {"time": 305, "pitch": 69, "duration": 16, "velocity": 91}, {"time": 323, "pitch": 69, "duration": 17, "velocity": 90}, {"time": 341, "pitch": 67, "duration": 12, "velocity": 93}, {"time": 353, "pitch": 64, "duration": 12, "velocity": 80}, {"time": 365, "pitch": 62, "duration": 59, "velocity": 56}, {"time": 425, "pitch": 72, "duration": 11, "velocity": 90}, {"time": 437, "pitch": 79, "duration": 12, "velocity": 93}, {"time": 449, "pitch": 78, "duration": 19, "velocity": 80}, {"time": 467, "pitch": 76, "duration": 17, "velocity": 87}, {"time": 485, "pitch": 74, "duration": 12, "velocity": 84}, {"time": 497, "pitch": 76, "duration": 71, "velocity": 98}, {"time": 569, "pitch": 76, "duration": 12, "velocity": 92}, {"time": 581, "pitch": 79, "duration": 6, "velocity": 90}, {"time": 587, "pitch": 81, "duration": 29, "velocity": 100}, {"time": 617, "pitch": 79, "duration": 5, "velocity": 100}, {"time": 623, "pitch": 81, "duration": 6, "velocity": 100}, {"time": 629, "pitch": 79, "duration": 6, "velocity": 100}, {"time": 635, "pitch": 76, "duration": 5, "velocity": 96}, {"time": 641, "pitch": 74, "duration": 23, "velocity": 97}, {"time": 665, "pitch": 72, "duration": 12, "velocity": 100}, {"time": 677, "pitch": 74, "duration": 12, "velocity": 93}, {"time": 689, "pitch": 76, "duration": 12, "velocity": 97}, {"time": 701, "pitch": 74, "duration": 12, "velocity": 80}, {"time": 713, "pitch": 72, "duration": 6, "velocity": 86}, {"time": 719, "pitch": 74, "duration": 5, "velocity": 86}, {"time": 725, "pitch": 72, "duration": 5, "velocity": 86}, {"time": 731, "pitch": 69, "duration": 3, "velocity": 100}, {"time": 734, "pitch": 67, "duration": 3, "velocity": 82}, {"time": 737, "pitch": 69, "duration": 35, "velocity": 91}, {"time": 773, "pitch": 67, "duration": 12, "velocity": 94}, {"time": 785, "pitch": 69, "duration": 36, "velocity": 100}, {"time": 821, "pitch": 72, "duration": 11, "velocity": 99}, {"time": 833, "pitch": 71, "duration": 12, "velocity": 95}, {"time": 845, "pitch": 67, "duration": 6, "velocity": 83}, {"time": 851, "pitch": 64, "duration": 6, "velocity": 68}, {"time": 857, "pitch": 76, "duration": 11, "velocity": 82}, {"time": 869, "pitch": 72, "duration": 15, "velocity": 87}, {"time": 881, "pitch": 69, "duration": 83, "velocity": 80}, {"time": 1097, "pitch": 69, "duration": 11, "velocity": 92}, {"time": 1109, "pitch": 76, "duration": 12, "velocity": 96}, {"time": 1121, "pitch": 74, "duration": 20, "velocity": 100}, {"time": 1139, "pitch": 72, "duration": 17, "velocity": 101}, {"time": 1157, "pitch": 71, "duration": 11, "velocity": 100}, {"time": 1169, "pitch": 69, "duration": 17, "velocity": 100}, {"time": 1187, "pitch": 69, "duration": 16, "velocity": 100}, {"time": 1205, "pitch": 67, "duration": 11, "velocity": 97}, {"time": 1217, "pitch": 64, "duration": 13, "velocity": 97}, {"time": 1229, "pitch": 62, "duration": 60, "velocity": 97}, {"time": 1289, "pitch": 72, "duration": 12, "velocity": 95}, {"time": 1301, "pitch": 79, "duration": 12, "velocity": 99}, {"time": 1313, "pitch": 78, "duration": 17, "velocity": 99}, {"time": 1331, "pitch": 76, "duration": 18, "velocity": 97}, {"time": 1349, "pitch": 74, "duration": 11, "velocity": 95}, {"time": 1361, "pitch": 76, "duration": 60, "velocity": 98}, {"time": 1433, "pitch": 76, "duration": 12, "velocity": 97}, {"time": 1445, "pitch": 79, "duration": 7, "velocity": 79}, {"time": 1451, "pitch": 76, "duration": 4, "velocity": 56}, {"time": 1454, "pitch": 79, "duration": 3, "velocity": 64}, {"time": 1457, "pitch": 81, "duration": 24, "velocity": 87}, {"time": 1481, "pitch": 79, "duration": 11, "velocity": 91}, {"time": 1493, "pitch": 76, "duration": 13, "velocity": 80}, {"time": 1505, "pitch": 74, "duration": 25, "velocity": 83}, {"time": 1529, "pitch": 72, "duration": 10, "velocity": 111}, {"time": 1541, "pitch": 74, "duration": 11, "velocity": 99}, {"time": 1553, "pitch": 76, "duration": 12, "velocity": 105}, {"time": 1565, "pitch": 74, "duration": 12, "velocity": 97}, {"time": 1577, "pitch": 72, "duration": 12, "velocity": 99}, {"time": 1589, "pitch": 67, "duration": 13, "velocity": 91}, {"time": 1601, "pitch": 69, "duration": 34, "velocity": 99}, {"time": 1637, "pitch": 67, "duration": 12, "velocity": 94}, {"time": 1649, "pitch": 69, "duration": 5, "velocity": 91}, {"time": 1655, "pitch": 67, "duration": 6, "velocity": 62}, {"time": 1661, "pitch": 69, "duration": 24, "velocity": 81}, {"time": 1685, "pitch": 72, "duration": 13, "velocity": 100}, {"time": 1697, "pitch": 71, "duration": 11, "velocity": 92}, {"time": 1709, "pitch": 67, "duration": 6, "velocity": 77}, {"time": 1715, "pitch": 64, "duration": 6, "velocity": 79}, {"time": 1721, "pitch": 76, "duration": 11, "velocity": 66}, {"time": 1733, "pitch": 72, "duration": 17, "velocity": 72}, {"time": 1751, "pitch": 72, "duration": 6, "velocity": 68}, {"time": 1757, "pitch": 69, "duration": 73, "velocity": 58}, {"time": 1829, "pitch": 79, "duration": 11, "velocity": 90}, {"time": 1841, "pitch": 81, "duration": 41, "velocity": 98}, {"time": 1883, "pitch": 83, "duration": 2, "velocity": 62}, {"time": 1886, "pitch": 81, "duration": 3, "velocity": 77}, {"time": 1889, "pitch": 79, "duration": 18, "velocity": 86}, {"time": 1907, "pitch": 81, "duration": 2, "velocity": 52}, {"time": 1910, "pitch": 79, "duration": 2, "velocity": 71}, {"time": 1913, "pitch": 78, "duration": 12, "velocity": 54}, {"time": 1925, "pitch": 76, "duration": 12, "velocity": 68}, {"time": 1937, "pitch": 78, "duration": 11, "velocity": 91}, {"time": 1949, "pitch": 76, "duration": 6, "velocity": 45}, {"time": 1955, "pitch": 74, "duration": 8, "velocity": 62}, {"time": 1961, "pitch": 69, "duration": 35, "velocity": 59}, {"time": 2009, "pitch": 71, "duration": 11, "velocity": 79}, {"time": 2021, "pitch": 73, "duration": 12, "velocity": 86}, {"time": 2033, "pitch": 74, "duration": 2, "velocity": 80}, {"time": 2036, "pitch": 79, "duration": 37, "velocity": 73}, {"time": 2075, "pitch": 81, "duration": 3, "velocity": 64}, {"time": 2078, "pitch": 79, "duration": 3, "velocity": 64}, {"time": 2081, "pitch": 78, "duration": 24, "velocity": 80}, {"time": 2105, "pitch": 76, "duration": 12, "velocity": 85}, {"time": 2117, "pitch": 74, "duration": 11, "velocity": 77}, {"time": 2129, "pitch": 72, "duration": 6, "velocity": 66}, {"time": 2135, "pitch": 74, "duration": 6, "velocity": 69}, {"time": 2141, "pitch": 76, "duration": 72, "velocity": 91}, {"time": 2213, "pitch": 79, "duration": 11, "velocity": 90}, {"time": 2225, "pitch": 81, "duration": 43, "velocity": 100}, {"time": 2267, "pitch": 83, "duration": 2, "velocity": 61}, {"time": 2270, "pitch": 81, "duration": 3, "velocity": 77}, {"time": 2273, "pitch": 79, "duration": 17, "velocity": 72}, {"time": 2291, "pitch": 81, "duration": 3, "velocity": 64}, {"time": 2294, "pitch": 79, "duration": 3, "velocity": 59}, {"time": 2297, "pitch": 78, "duration": 12, "velocity": 68}, {"time": 2309, "pitch": 76, "duration": 14, "velocity": 67}, {"time": 2321, "pitch": 78, "duration": 12, "velocity": 62}, {"time": 2333, "pitch": 76, "duration": 11, "velocity": 40}, {"time": 2345, "pitch": 74, "duration": 45, "velocity": 47}, {"time": 2393, "pitch": 74, "duration": 6, "velocity": 90}, {"time": 2399, "pitch": 76, "duration": 7, "velocity": 85}, {"time": 2405, "pitch": 74, "duration": 7, "velocity": 66}, {"time": 2411, "pitch": 69, "duration": 4, "velocity": 52}, {"time": 2417, "pitch": 69, "duration": 58, "velocity": 79}, {"time": 2477, "pitch": 76, "duration": 6, "velocity": 66}, {"time": 2483, "pitch": 74, "duration": 6, "velocity": 91}, {"time": 2489, "pitch": 69, "duration": 3, "velocity": 66}, {"time": 2492, "pitch": 71, "duration": 3, "velocity": 56}, {"time": 2495, "pitch": 69, "duration": 12, "velocity": 56}, {"time": 2507, "pitch": 67, "duration": 6, "velocity": 85}, {"time": 2513, "pitch": 69, "duration": 213, "velocity": 97}, {"time": 2729, "pitch": 69, "duration": 12, "velocity": 82}, {"time": 2741, "pitch": 76, "duration": 12, "velocity": 93}, {"time": 2753, "pitch": 74, "duration": 19, "velocity": 91}, {"time": 2771, "pitch": 72, "duration": 17, "velocity": 93}, {"time": 2789, "pitch": 71, "duration": 12, "velocity": 92}, {"time": 2801, "pitch": 69, "duration": 16, "velocity": 91}, {"time": 2819, "pitch": 69, "duration": 17, "velocity": 90}, {"time": 2837, "pitch": 67, "duration": 12, "velocity": 93}, {"time": 2849, "pitch": 62, "duration": 73, "velocity": 56}, {"time": 2921, "pitch": 72, "duration": 11, "velocity": 90}, {"time": 2933, "pitch": 79, "duration": 12, "velocity": 93}, {"time": 2945, "pitch": 78, "duration": 19, "velocity": 80}, {"time": 2963, "pitch": 76, "duration": 17, "velocity": 87}, {"time": 2981, "pitch": 74, "duration": 12, "velocity": 84}, {"time": 2993, "pitch": 76, "duration": 71, "velocity": 98}, {"time": 3065, "pitch": 76, "duration": 12, "velocity": 92}, {"time": 3077, "pitch": 79, "duration": 6, "velocity": 90}, {"time": 3083, "pitch": 76, "duration": 3, "velocity": 100}, {"time": 3086, "pitch": 79, "duration": 3, "velocity": 100}, {"time": 3089, "pitch": 81, "duration": 31, "velocity": 100}, {"time": 3113, "pitch": 79, "duration": 11, "velocity": 100}, {"time": 3125, "pitch": 76, "duration": 11, "velocity": 96}, {"time": 3137, "pitch": 74, "duration": 23, "velocity": 97}, {"time": 3161, "pitch": 72, "duration": 12, "velocity": 100}, {"time": 3173, "pitch": 74, "duration": 12, "velocity": 93}, {"time": 3185, "pitch": 76, "duration": 12, "velocity": 97}, {"time": 3197, "pitch": 74, "duration": 12, "velocity": 80}, {"time": 3209, "pitch": 72, "duration": 11, "velocity": 86}, {"time": 3221, "pitch": 67, "duration": 12, "velocity": 82}, {"time": 3233, "pitch": 69, "duration": 104, "velocity": 91}, {"time": 3338, "pitch": 67, "duration": 14, "velocity": 74}, {"time": 3353, "pitch": 69, "duration": 37, "velocity": 91}, {"time": 3389, "pitch": 72, "duration": 12, "velocity": 90}, {"time": 3401, "pitch": 71, "duration": 14, "velocity": 94}, {"time": 3416, "pitch": 67, "duration": 9, "velocity": 87}, {"time": 3425, "pitch": 64, "duration": 14, "velocity": 57}, {"time": 3437, "pitch": 76, "duration": 14, "velocity": 58}, {"time": 3452, "pitch": 72, "duration": 9, "velocity": 77}, {"time": 3461, "pitch": 69, "duration": 70, "velocity": 77}, {"time": 3536, "pitch": 69, "duration": 129, "velocity": 62}], "annotations": [{"time": 773, "annotation": {"number": 1, "value": 22}, "group": "control_change"}, {"time": 1173, "annotation": {"number": 1, "value": 22}, "group": "control_change"}, {"time": 1177, "annotation": {"number": 1, "value": 21}, "group": "control_change"}, {"time": 1177, "annotation": {"number": 1, "value": 22}, "group": "control_change"}, {"time": 1183, "annotation": {"number": 1, "value": 21}, "group": "control_change"}, {"time": 1183, "annotation": {"number": 1, "value": 22}, "group": "control_change"}, {"time": 1216, "annotation": {"number": 1, "value": 25}, "group": "control_change"}, {"time": 1530, "annotation": {"number": 1, "value": 37}, "group": "control_change"}, {"time": 1531, "annotation": {"number": 1, "value": 35}, "group": "control_change"}, {"time": 1531, "annotation": {"number": 1, "value": 33}, "group": "control_change"}, {"time": 1532, "annotation": {"number": 1, "value": 32}, "group": "control_change"}, {"time": 1532, "annotation": {"number": 1, "value": 29}, "group": "control_change"}, {"time": 1533, "annotation": {"number": 1, "value": 27}, "group": "control_change"}, {"time": 1539, "annotation": {"number": 1, "value": 25}, "group": "control_change"}, {"time": 2282, "annotation": {"number": 1, "value": 21}, "group": "control_change"}, {"time": 2365, "annotation": {"number": 1, "value": 22}, "group": "control_change"}]}, {"program": 0, "is_drum": false, "name": "BRIDGE", "notes": [{"time": 17, "pitch": 57, "duration": 42, "velocity": 63}, {"time": 23, "pitch": 64, "duration": 7, "velocity": 48}, {"time": 29, "pitch": 69, "duration": 6, "velocity": 59}, {"time": 35, "pitch": 64, "duration": 7, "velocity": 52}, {"time": 41, "pitch": 72, "duration": 5, "velocity": 59}, {"time": 47, "pitch": 64, "duration": 5, "velocity": 53}, {"time": 53, "pitch": 76, "duration": 11, "velocity": 63}, {"time": 59, "pitch": 64, "duration": 5, "velocity": 57}, {"time": 65, "pitch": 57, "duration": 30, "velocity": 70}, {"time": 71, "pitch": 66, "duration": 6, "velocity": 63}, {"time": 77, "pitch": 74, "duration": 6, "velocity": 75}, {"time": 83, "pitch": 66, "duration": 8, "velocity": 59}, {"time": 89, "pitch": 74, "duration": 6, "velocity": 76}, {"time": 89, "pitch": 78, "duration": 6, "velocity": 76}, {"time": 113, "pitch": 57, "duration": 42, "velocity": 63}, {"time": 119, "pitch": 64, "duration": 7, "velocity": 48}, {"time": 125, "pitch": 69, "duration": 6, "velocity": 59}, {"time": 131, "pitch": 64, "duration": 7, "velocity": 52}, {"time": 137, "pitch": 72, "duration": 5, "velocity": 59}, {"time": 143, "pitch": 64, "duration": 5, "velocity": 53}, {"time": 149, "pitch": 76, "duration": 11, "velocity": 63}, {"time": 155, "pitch": 64, "duration": 5, "velocity": 57}, {"time": 161, "pitch": 57, "duration": 30, "velocity": 70}, {"time": 167, "pitch": 66, "duration": 6, "velocity": 63}, {"time": 173, "pitch": 74, "duration": 6, "velocity": 75}, {"time": 179, "pitch": 66, "duration": 8, "velocity": 59}, {"time": 185, "pitch": 74, "duration": 6, "velocity": 76}, {"time": 185, "pitch": 78, "duration": 6, "velocity": 76}, {"time": 1385, "pitch": 68, "duration": 6, "velocity": 79}, {"time": 1391, "pitch": 69, "duration": 6, "velocity": 79}, {"time": 1397, "pitch": 71, "duration": 6, "velocity": 79}, {"time": 1403, "pitch": 68, "duration": 7, "velocity": 79}, {"time": 1409, "pitch": 64, "duration": 22, "velocity": 87}, {"time": 3353, "pitch": 53, "duration": 39, "velocity": 66}, {"time": 3353, "pitch": 72, "duration": 34, "velocity": 58}, {"time": 3354, "pitch": 76, "duration": 34, "velocity": 58}, {"time": 3378, "pitch": 65, "duration": 11, "velocity": 40}, {"time": 3378, "pitch": 69, "duration": 13, "velocity": 39}, {"time": 3401, "pitch": 55, "duration": 134, "velocity": 59}, {"time": 3401, "pitch": 71, "duration": 132, "velocity": 57}, {"time": 3401, "pitch": 62, "duration": 129, "velocity": 48}, {"time": 3401, "pitch": 67, "duration": 128, "velocity": 50}, {"time": 3428, "pitch": 74, "duration": 105, "velocity": 47}, {"time": 3556, "pitch": 60, "duration": 19, "velocity": 49}, {"time": 3557, "pitch": 45, "duration": 25, "velocity": 66}, {"time": 3557, "pitch": 57, "duration": 25, "velocity": 64}, {"time": 3557, "pitch": 64, "duration": 24, "velocity": 60}, {"time": 3560, "pitch": 69, "duration": 21, "velocity": 48}], "annotations": [{"time": 17, "annotation": {"number": 64, "value": 127}, "group": "control_change"}, {"time": 62, "annotation": {"number": 64, "value": 0}, "group": "control_change"}, {"time": 67, "annotation": {"number": 64, "value": 127}, "group": "control_change"}, {"time": 101, "annotation": {"number": 64, "value": 0}, "group": "control_change"}, {"time": 3356, "annotation": {"number": 64, "value": 127}, "group": "control_change"}, {"time": 3400, "annotation": {"number": 64, "value": 0}, "group": "control_change"}, {"time": 3405, "annotation": {"number": 64, "value": 127}, "group": "control_change"}, {"time": 3551, "annotation": {"number": 64, "value": 0}, "group": "control_change"}, {"time": 3562, "annotation": {"number": 64, "value": 127}, "group": "control_change"}, {"time": 3629, "annotation": {"number": 64, "value": 0}, "group": "control_change"}, {"time": 3632, "annotation": {"number": 64, "value": 127}, "group": "control_change"}, {"time": 3650, "annotation": {"number": 64, "value": 0}, "group": "control_change"}]}, {"program": 0, "is_drum": false, "name": "PIANO", "notes": [{"time": 209, "pitch": 57, "duration": 42, "velocity": 63}, {"time": 215, "pitch": 64, "duration": 7, "velocity": 48}, {"time": 221, "pitch": 69, "duration": 6, "velocity": 59}, {"time": 227, "pitch": 64, "duration": 7, "velocity": 52}, {"time": 233, "pitch": 72, "duration": 5, "velocity": 59}, {"time": 239, "pitch": 64, "duration": 5, "velocity": 53}, {"time": 245, "pitch": 76, "duration": 11, "velocity": 63}, {"time": 251, "pitch": 64, "duration": 5, "velocity": 57}, {"time": 257, "pitch": 57, "duration": 30, "velocity": 70}, {"time": 263, "pitch": 66, "duration": 6, "velocity": 63}, {"time": 269, "pitch": 74, "duration": 6, "velocity": 75}, {"time": 275, "pitch": 66, "duration": 8, "velocity": 59}, {"time": 281, "pitch": 74, "duration": 6, "velocity": 76}, {"time": 281, "pitch": 78, "duration": 6, "velocity": 76}, {"time": 305, "pitch": 57, "duration": 42, "velocity": 63}, {"time": 311, "pitch": 64, "duration": 7, "velocity": 48}, {"time": 317, "pitch": 69, "duration": 6, "velocity": 59}, {"time": 323, "pitch": 64, "duration": 7, "velocity": 52}, {"time": 329, "pitch": 72, "duration": 5, "velocity": 59}, {"time": 335, "pitch": 64, "duration": 5, "velocity": 53}, {"time": 341, "pitch": 76, "duration": 11, "velocity": 63}, {"time": 347, "pitch": 64, "duration": 5, "velocity": 57}, {"time": 353, "pitch": 57, "duration": 30, "velocity": 70}, {"time": 359, "pitch": 66, "duration": 6, "velocity": 63}, {"time": 365, "pitch": 74, "duration": 6, "velocity": 75}, {"time": 371, "pitch": 66, "duration": 8, "velocity": 59}, {"time": 377, "pitch": 74, "duration": 6, "velocity": 76}, {"time": 377, "pitch": 78, "duration": 6, "velocity": 76}, {"time": 401, "pitch": 57, "duration": 42, "velocity": 63}, {"time": 407, "pitch": 64, "duration": 7, "velocity": 48}, {"time": 413, "pitch": 69, "duration": 6, "velocity": 59}, {"time": 419, "pitch": 64, "duration": 7, "velocity": 52}, {"time": 425, "pitch": 72, "duration": 5, "velocity": 59}, {"time": 431, "pitch": 64, "duration": 5, "velocity": 53}, {"time": 437, "pitch": 76, "duration": 11, "velocity": 63}, {"time": 443, "pitch": 64, "duration": 5, "velocity": 57}, {"time": 449, "pitch": 57, "duration": 30, "velocity": 70}, {"time": 455, "pitch": 66, "duration": 6, "velocity": 63}, {"time": 461, "pitch": 74, "duration": 6, "velocity": 75}, {"time": 467, "pitch": 66, "duration": 8, "velocity": 59}, {"time": 473, "pitch": 74, "duration": 6, "velocity": 76}, {"time": 473, "pitch": 78, "duration": 6, "velocity": 76}, {"time": 497, "pitch": 57, "duration": 42, "velocity": 63}, {"time": 503, "pitch": 64, "duration": 7, "velocity": 48}, {"time": 509, "pitch": 69, "duration": 6, "velocity": 59}, {"time": 515, "pitch": 64, "duration": 7, "velocity": 52}, {"time": 521, "pitch": 72, "duration": 5, "velocity": 59}, {"time": 527, "pitch": 64, "duration": 5, "velocity": 53}, {"time": 533, "pitch": 76, "duration": 11, "velocity": 63}, {"time": 539, "pitch": 64, "duration": 5, "velocity": 57}, {"time": 545, "pitch": 57, "duration": 30, "velocity": 70}, {"time": 551, "pitch": 66, "duration": 6, "velocity": 63}, {"time": 557, "pitch": 74, "duration": 6, "velocity": 75}, {"time": 563, "pitch": 66, "duration": 8, "velocity": 59}, {"time": 569, "pitch": 74, "duration": 6, "velocity": 76}, {"time": 569, "pitch": 78, "duration": 6, "velocity": 76}, {"time": 593, "pitch": 53, "duration": 47, "velocity": 67}, {"time": 599, "pitch": 60, "duration": 7, "velocity": 51}, {"time": 605, "pitch": 65, "duration": 5, "velocity": 49}, {"time": 611, "pitch": 60, "duration": 6, "velocity": 49}, {"time": 617, "pitch": 72, "duration": 8, "velocity": 46}, {"time": 623, "pitch": 60, "duration": 6, "velocity": 42}, {"time": 629, "pitch": 65, "duration": 10, "velocity": 46}, {"time": 635, "pitch": 60, "duration": 5, "velocity": 44}, {"time": 641, "pitch": 55, "duration": 48, "velocity": 69}, {"time": 647, "pitch": 62, "duration": 6, "velocity": 47}, {"time": 653, "pitch": 67, "duration": 5, "velocity": 55}, {"time": 659, "pitch": 62, "duration": 7, "velocity": 45}, {"time": 665, "pitch": 72, "duration": 9, "velocity": 67}, {"time": 671, "pitch": 62, "duration": 5, "velocity": 48}, {"time": 677, "pitch": 67, "duration": 4, "velocity": 54}, {"time": 683, "pitch": 62, "duration": 5, "velocity": 47}, {"time": 689, "pitch": 60, "duration": 25, "velocity": 72}, {"time": 695, "pitch": 64, "duration": 6, "velocity": 55}, {"time": 701, "pitch": 67, "duration": 6, "velocity": 60}, {"time": 707, "pitch": 64, "duration": 5, "velocity": 54}, {"time": 713, "pitch": 59, "duration": 21, "velocity": 62}, {"time": 719, "pitch": 62, "duration": 6, "velocity": 48}, {"time": 725, "pitch": 74, "duration": 12, "velocity": 66}, {"time": 731, "pitch": 62, "duration": 6, "velocity": 50}, {"time": 737, "pitch": 57, "duration": 37, "velocity": 67}, {"time": 743, "pitch": 64, "duration": 6, "velocity": 55}, {"time": 749, "pitch": 69, "duration": 5, "velocity": 56}, {"time": 755, "pitch": 64, "duration": 6, "velocity": 53}, {"time": 761, "pitch": 72, "duration": 9, "velocity": 80}, {"time": 767, "pitch": 64, "duration": 4, "velocity": 48}, {"time": 773, "pitch": 69, "duration": 4, "velocity": 55}, {"time": 779, "pitch": 64, "duration": 5, "velocity": 46}, {"time": 785, "pitch": 53, "duration": 47, "velocity": 76}, {"time": 791, "pitch": 60, "duration": 7, "velocity": 52}, {"time": 797, "pitch": 65, "duration": 5, "velocity": 60}, {"time": 803, "pitch": 60, "duration": 6, "velocity": 47}, {"time": 809, "pitch": 69, "duration": 4, "velocity": 57}, {"time": 815, "pitch": 60, "duration": 6, "velocity": 44}, {"time": 821, "pitch": 72, "duration": 15, "velocity": 56}, {"time": 827, "pitch": 60, "duration": 4, "velocity": 50}, {"time": 833, "pitch": 55, "duration": 40, "velocity": 67}, {"time": 839, "pitch": 62, "duration": 7, "velocity": 48}, {"time": 845, "pitch": 67, "duration": 5, "velocity": 47}, {"time": 851, "pitch": 62, "duration": 6, "velocity": 49}, {"time": 857, "pitch": 74, "duration": 12, "velocity": 60}, {"time": 863, "pitch": 62, "duration": 4, "velocity": 43}, {"time": 869, "pitch": 67, "duration": 4, "velocity": 45}, {"time": 875, "pitch": 62, "duration": 5, "velocity": 44}, {"time": 881, "pitch": 57, "duration": 42, "velocity": 70}, {"time": 887, "pitch": 64, "duration": 6, "velocity": 47}, {"time": 893, "pitch": 69, "duration": 6, "velocity": 57}, {"time": 899, "pitch": 64, "duration": 8, "velocity": 48}, {"time": 905, "pitch": 72, "duration": 8, "velocity": 69}, {"time": 911, "pitch": 64, "duration": 5, "velocity": 45}, {"time": 917, "pitch": 69, "duration": 5, "velocity": 49}, {"time": 923, "pitch": 64, "duration": 5, "velocity": 52}, {"time": 929, "pitch": 57, "duration": 40, "velocity": 82}, {"time": 935, "pitch": 62, "duration": 7, "velocity": 55}, {"time": 941, "pitch": 66, "duration": 7, "velocity": 67}, {"time": 947, "pitch": 62, "duration": 6, "velocity": 52}, {"time": 953, "pitch": 74, "duration": 26, "velocity": 62}, {"time": 977, "pitch": 57, "duration": 40, "velocity": 67}, {"time": 983, "pitch": 64, "duration": 7, "velocity": 46}, {"time": 989, "pitch": 69, "duration": 5, "velocity": 55}, {"time": 995, "pitch": 64, "duration": 6, "velocity": 48}, {"time": 1001, "pitch": 72, "duration": 9, "velocity": 72}, {"time": 1007, "pitch": 64, "duration": 4, "velocity": 52}, {"time": 1013, "pitch": 69, "duration": 5, "velocity": 58}, {"time": 1019, "pitch": 64, "duration": 6, "velocity": 52}, {"time": 1025, "pitch": 57, "duration": 42, "velocity": 54}, {"time": 1031, "pitch": 66, "duration": 7, "velocity": 57}, {"time": 1037, "pitch": 69, "duration": 5, "velocity": 54}, {"time": 1043, "pitch": 66, "duration": 21, "velocity": 59}, {"time": 1049, "pitch": 78, "duration": 17, "velocity": 73}, {"time": 1073, "pitch": 57, "duration": 42, "velocity": 59}, {"time": 1079, "pitch": 60, "duration": 5, "velocity": 62}, {"time": 1085, "pitch": 67, "duration": 4, "velocity": 42}, {"time": 1091, "pitch": 60, "duration": 3, "velocity": 51}, {"time": 1097, "pitch": 72, "duration": 7, "velocity": 64}, {"time": 1103, "pitch": 64, "duration": 6, "velocity": 49}, {"time": 1109, "pitch": 69, "duration": 6, "velocity": 61}, {"time": 1115, "pitch": 64, "duration": 5, "velocity": 50}, {"time": 1121, "pitch": 57, "duration": 43, "velocity": 64}, {"time": 1127, "pitch": 66, "duration": 6, "velocity": 60}, {"time": 1133, "pitch": 69, "duration": 6, "velocity": 66}, {"time": 1139, "pitch": 66, "duration": 7, "velocity": 58}, {"time": 1145, "pitch": 74, "duration": 25, "velocity": 67}, {"time": 1169, "pitch": 57, "duration": 42, "velocity": 75}, {"time": 1175, "pitch": 64, "duration": 4, "velocity": 37}, {"time": 1181, "pitch": 69, "duration": 6, "velocity": 70}, {"time": 1187, "pitch": 64, "duration": 7, "velocity": 49}, {"time": 1193, "pitch": 72, "duration": 5, "velocity": 60}, {"time": 1199, "pitch": 64, "duration": 5, "velocity": 45}, {"time": 1205, "pitch": 69, "duration": 8, "velocity": 48}, {"time": 1211, "pitch": 64, "duration": 5, "velocity": 48}, {"time": 1214, "pitch": 57, "duration": 42, "velocity": 70}, {"time": 1220, "pitch": 62, "duration": 7, "velocity": 52}, {"time": 1229, "pitch": 69, "duration": 6, "velocity": 60}, {"time": 1235, "pitch": 62, "duration": 8, "velocity": 49}, {"time": 1241, "pitch": 74, "duration": 13, "velocity": 62}, {"time": 1253, "pitch": 69, "duration": 7, "velocity": 60}, {"time": 1265, "pitch": 60, "duration": 38, "velocity": 64}, {"time": 1271, "pitch": 64, "duration": 7, "velocity": 58}, {"time": 1277, "pitch": 67, "duration": 7, "velocity": 55}, {"time": 1283, "pitch": 64, "duration": 7, "velocity": 51}, {"time": 1289, "pitch": 72, "duration": 23, "velocity": 69}, {"time": 1295, "pitch": 64, "duration": 6, "velocity": 48}, {"time": 1301, "pitch": 67, "duration": 12, "velocity": 59}, {"time": 1307, "pitch": 64, "duration": 7, "velocity": 50}, {"time": 1313, "pitch": 50, "duration": 34, "velocity": 70}, {"time": 1319, "pitch": 62, "duration": 6, "velocity": 44}, {"time": 1325, "pitch": 69, "duration": 6, "velocity": 61}, {"time": 1331, "pitch": 62, "duration": 7, "velocity": 53}, {"time": 1337, "pitch": 74, "duration": 25, "velocity": 70}, {"time": 1343, "pitch": 62, "duration": 5, "velocity": 54}, {"time": 1349, "pitch": 69, "duration": 7, "velocity": 49}, {"time": 1355, "pitch": 62, "duration": 5, "velocity": 45}, {"time": 1361, "pitch": 52, "duration": 41, "velocity": 78}, {"time": 1367, "pitch": 64, "duration": 6, "velocity": 54}, {"time": 1373, "pitch": 69, "duration": 5, "velocity": 56}, {"time": 1379, "pitch": 64, "duration": 6, "velocity": 55}, {"time": 1385, "pitch": 71, "duration": 5, "velocity": 53}, {"time": 1391, "pitch": 64, "duration": 5, "velocity": 54}, {"time": 1397, "pitch": 69, "duration": 4, "velocity": 54}, {"time": 1403, "pitch": 64, "duration": 11, "velocity": 57}, {"time": 1409, "pitch": 52, "duration": 38, "velocity": 67}, {"time": 1415, "pitch": 59, "duration": 32, "velocity": 59}, {"time": 1421, "pitch": 64, "duration": 6, "velocity": 62}, {"time": 1427, "pitch": 69, "duration": 6, "velocity": 54}, {"time": 1433, "pitch": 68, "duration": 15, "velocity": 72}, {"time": 1457, "pitch": 53, "duration": 42, "velocity": 63}, {"time": 1457, "pitch": 72, "duration": 20, "velocity": 64}, {"time": 1463, "pitch": 60, "duration": 7, "velocity": 54}, {"time": 1469, "pitch": 65, "duration": 7, "velocity": 66}, {"time": 1475, "pitch": 60, "duration": 8, "velocity": 59}, {"time": 1481, "pitch": 69, "duration": 8, "velocity": 61}, {"time": 1481, "pitch": 72, "duration": 6, "velocity": 44}, {"time": 1487, "pitch": 60, "duration": 6, "velocity": 49}, {"time": 1493, "pitch": 65, "duration": 5, "velocity": 64}, {"time": 1499, "pitch": 72, "duration": 7, "velocity": 72}, {"time": 1505, "pitch": 55, "duration": 40, "velocity": 57}, {"time": 1511, "pitch": 62, "duration": 5, "velocity": 54}, {"time": 1517, "pitch": 67, "duration": 6, "velocity": 64}, {"time": 1523, "pitch": 62, "duration": 7, "velocity": 57}, {"time": 1529, "pitch": 74, "duration": 24, "velocity": 62}, {"time": 1535, "pitch": 62, "duration": 6, "velocity": 49}, {"time": 1541, "pitch": 71, "duration": 6, "velocity": 62}, {"time": 1547, "pitch": 67, "duration": 8, "velocity": 61}, {"time": 1553, "pitch": 60, "duration": 23, "velocity": 67}, {"time": 1559, "pitch": 64, "duration": 8, "velocity": 54}, {"time": 1565, "pitch": 67, "duration": 7, "velocity": 59}, {"time": 1571, "pitch": 72, "duration": 13, "velocity": 72}, {"time": 1577, "pitch": 59, "duration": 19, "velocity": 61}, {"time": 1583, "pitch": 62, "duration": 15, "velocity": 49}, {"time": 1589, "pitch": 67, "duration": 13, "velocity": 63}, {"time": 1595, "pitch": 74, "duration": 12, "velocity": 70}, {"time": 1601, "pitch": 57, "duration": 39, "velocity": 69}, {"time": 1607, "pitch": 64, "duration": 8, "velocity": 54}, {"time": 1613, "pitch": 69, "duration": 7, "velocity": 56}, {"time": 1619, "pitch": 64, "duration": 8, "velocity": 54}, {"time": 1625, "pitch": 72, "duration": 8, "velocity": 69}, {"time": 1631, "pitch": 64, "duration": 7, "velocity": 55}, {"time": 1637, "pitch": 69, "duration": 9, "velocity": 54}, {"time": 1649, "pitch": 53, "duration": 49, "velocity": 91}, {"time": 1649, "pitch": 72, "duration": 3, "velocity": 36}, {"time": 1655, "pitch": 60, "duration": 6, "velocity": 61}, {"time": 1661, "pitch": 65, "duration": 6, "velocity": 61}, {"time": 1667, "pitch": 60, "duration": 6, "velocity": 50}, {"time": 1673, "pitch": 65, "duration": 13, "velocity": 76}, {"time": 1673, "pitch": 69, "duration": 12, "velocity": 72}, {"time": 1685, "pitch": 60, "duration": 6, "velocity": 49}, {"time": 1691, "pitch": 69, "duration": 9, "velocity": 66}, {"time": 1697, "pitch": 55, "duration": 40, "velocity": 80}, {"time": 1703, "pitch": 62, "duration": 7, "velocity": 54}, {"time": 1709, "pitch": 67, "duration": 6, "velocity": 62}, {"time": 1715, "pitch": 62, "duration": 6, "velocity": 52}, {"time": 1721, "pitch": 67, "duration": 14, "velocity": 58}, {"time": 1721, "pitch": 71, "duration": 22, "velocity": 61}, {"time": 1745, "pitch": 57, "duration": 37, "velocity": 67}, {"time": 1751, "pitch": 64, "duration": 6, "velocity": 57}, {"time": 1757, "pitch": 69, "duration": 5, "velocity": 59}, {"time": 1763, "pitch": 64, "duration": 7, "velocity": 49}, {"time": 1769, "pitch": 72, "duration": 8, "velocity": 69}, {"time": 1775, "pitch": 64, "duration": 4, "velocity": 52}, {"time": 1781, "pitch": 69, "duration": 4, "velocity": 47}, {"time": 1787, "pitch": 64, "duration": 6, "velocity": 50}, {"time": 1793, "pitch": 57, "duration": 39, "velocity": 51}, {"time": 1799, "pitch": 62, "duration": 29, "velocity": 60}, {"time": 1805, "pitch": 69, "duration": 14, "velocity": 56}, {"time": 1811, "pitch": 74, "duration": 8, "velocity": 61}, {"time": 1817, "pitch": 78, "duration": 12, "velocity": 63}, {"time": 1829, "pitch": 74, "duration": 9, "velocity": 52}, {"time": 1841, "pitch": 57, "duration": 40, "velocity": 69}, {"time": 1847, "pitch": 64, "duration": 7, "velocity": 59}, {"time": 1853, "pitch": 69, "duration": 5, "velocity": 57}, {"time": 1859, "pitch": 64, "duration": 7, "velocity": 51}, {"time": 1865, "pitch": 72, "duration": 9, "velocity": 72}, {"time": 1871, "pitch": 64, "duration": 6, "velocity": 56}, {"time": 1877, "pitch": 69, "duration": 6, "velocity": 54}, {"time": 1883, "pitch": 71, "duration": 6, "velocity": 70}, {"time": 1889, "pitch": 57, "duration": 42, "velocity": 60}, {"time": 1889, "pitch": 72, "duration": 10, "velocity": 66}, {"time": 1895, "pitch": 62, "duration": 15, "velocity": 44}, {"time": 1901, "pitch": 66, "duration": 8, "velocity": 63}, {"time": 1907, "pitch": 69, "duration": 7, "velocity": 58}, {"time": 1913, "pitch": 74, "duration": 9, "velocity": 70}, {"time": 1919, "pitch": 62, "duration": 7, "velocity": 56}, {"time": 1925, "pitch": 69, "duration": 9, "velocity": 61}, {"time": 1931, "pitch": 71, "duration": 6, "velocity": 64}, {"time": 1937, "pitch": 50, "duration": 42, "velocity": 75}, {"time": 1937, "pitch": 74, "duration": 6, "velocity": 64}, {"time": 1943, "pitch": 66, "duration": 5, "velocity": 56}, {"time": 1949, "pitch": 69, "duration": 6, "velocity": 63}, {"time": 1955, "pitch": 66, "duration": 7, "velocity": 56}, {"time": 1961, "pitch": 62, "duration": 18, "velocity": 60}, {"time": 1961, "pitch": 74, "duration": 8, "velocity": 69}, {"time": 1967, "pitch": 66, "duration": 5, "velocity": 52}, {"time": 1973, "pitch": 69, "duration": 6, "velocity": 66}, {"time": 1979, "pitch": 66, "duration": 9, "velocity": 59}, {"time": 1985, "pitch": 50, "duration": 29, "velocity": 72}, {"time": 1991, "pitch": 66, "duration": 5, "velocity": 61}, {"time": 1997, "pitch": 69, "duration": 5, "velocity": 61}, {"time": 2003, "pitch": 66, "duration": 7, "velocity": 59}, {"time": 2009, "pitch": 62, "duration": 9, "velocity": 60}, {"time": 2009, "pitch": 74, "duration": 5, "velocity": 72}, {"time": 2015, "pitch": 66, "duration": 5, "velocity": 56}, {"time": 2021, "pitch": 69, "duration": 7, "velocity": 64}, {"time": 2027, "pitch": 74, "duration": 5, "velocity": 48}, {"time": 2033, "pitch": 57, "duration": 43, "velocity": 66}, {"time": 2039, "pitch": 64, "duration": 9, "velocity": 66}, {"time": 2045, "pitch": 69, "duration": 14, "velocity": 57}, {"time": 2051, "pitch": 72, "duration": 2, "velocity": 61}, {"time": 2057, "pitch": 64, "duration": 16, "velocity": 66}, {"time": 2057, "pitch": 76, "duration": 4, "velocity": 63}, {"time": 2063, "pitch": 69, "duration": 7, "velocity": 51}, {"time": 2069, "pitch": 72, "duration": 6, "velocity": 66}, {"time": 2075, "pitch": 69, "duration": 11, "velocity": 57}, {"time": 2081, "pitch": 57, "duration": 36, "velocity": 67}, {"time": 2087, "pitch": 64, "duration": 7, "velocity": 70}, {"time": 2093, "pitch": 69, "duration": 7, "velocity": 63}, {"time": 2099, "pitch": 64, "duration": 6, "velocity": 69}, {"time": 2105, "pitch": 72, "duration": 9, "velocity": 66}, {"time": 2111, "pitch": 64, "duration": 4, "velocity": 69}, {"time": 2117, "pitch": 69, "duration": 12, "velocity": 64}, {"time": 2129, "pitch": 57, "duration": 43, "velocity": 66}, {"time": 2129, "pitch": 72, "duration": 9, "velocity": 66}, {"time": 2135, "pitch": 64, "duration": 7, "velocity": 48}, {"time": 2141, "pitch": 69, "duration": 4, "velocity": 56}, {"time": 2147, "pitch": 64, "duration": 6, "velocity": 52}, {"time": 2153, "pitch": 74, "duration": 5, "velocity": 70}, {"time": 2159, "pitch": 64, "duration": 7, "velocity": 49}, {"time": 2165, "pitch": 76, "duration": 14, "velocity": 64}, {"time": 2171, "pitch": 64, "duration": 8, "velocity": 49}, {"time": 2177, "pitch": 57, "duration": 41, "velocity": 78}, {"time": 2183, "pitch": 64, "duration": 6, "velocity": 52}, {"time": 2189, "pitch": 69, "duration": 5, "velocity": 40}, {"time": 2195, "pitch": 64, "duration": 8, "velocity": 53}, {"time": 2201, "pitch": 72, "duration": 4, "velocity": 73}, {"time": 2207, "pitch": 64, "duration": 7, "velocity": 55}, {"time": 2213, "pitch": 74, "duration": 13, "velocity": 69}, {"time": 2219, "pitch": 64, "duration": 7, "velocity": 50}, {"time": 2225, "pitch": 53, "duration": 37, "velocity": 63}, {"time": 2225, "pitch": 76, "duration": 5, "velocity": 67}, {"time": 2231, "pitch": 69, "duration": 4, "velocity": 49}, {"time": 2237, "pitch": 60, "duration": 19, "velocity": 55}, {"time": 2237, "pitch": 72, "duration": 5, "velocity": 67}, {"time": 2243, "pitch": 69, "duration": 7, "velocity": 49}, {"time": 2249, "pitch": 65, "duration": 13, "velocity": 60}, {"time": 2249, "pitch": 76, "duration": 6, "velocity": 66}, {"time": 2255, "pitch": 69, "duration": 7, "velocity": 46}, {"time": 2261, "pitch": 60, "duration": 11, "velocity": 54}, {"time": 2261, "pitch": 72, "duration": 6, "velocity": 64}, {"time": 2267, "pitch": 76, "duration": 6, "velocity": 60}, {"time": 2273, "pitch": 53, "duration": 36, "velocity": 59}, {"time": 2273, "pitch": 76, "duration": 1, "velocity": 63}, {"time": 2279, "pitch": 60, "duration": 30, "velocity": 50}, {"time": 2279, "pitch": 69, "duration": 5, "velocity": 48}, {"time": 2285, "pitch": 72, "duration": 6, "velocity": 69}, {"time": 2291, "pitch": 76, "duration": 2, "velocity": 49}, {"time": 2297, "pitch": 65, "duration": 12, "velocity": 61}, {"time": 2303, "pitch": 69, "duration": 5, "velocity": 54}, {"time": 2309, "pitch": 72, "duration": 5, "velocity": 60}, {"time": 2321, "pitch": 50, "duration": 42, "velocity": 69}, {"time": 2321, "pitch": 74, "duration": 6, "velocity": 66}, {"time": 2327, "pitch": 66, "duration": 15, "velocity": 70}, {"time": 2333, "pitch": 69, "duration": 8, "velocity": 50}, {"time": 2339, "pitch": 74, "duration": 3, "velocity": 64}, {"time": 2345, "pitch": 62, "duration": 18, "velocity": 57}, {"time": 2345, "pitch": 74, "duration": 11, "velocity": 67}, {"time": 2351, "pitch": 66, "duration": 7, "velocity": 54}, {"time": 2357, "pitch": 69, "duration": 8, "velocity": 57}, {"time": 2363, "pitch": 74, "duration": 3, "velocity": 64}, {"time": 2369, "pitch": 50, "duration": 34, "velocity": 61}, {"time": 2369, "pitch": 62, "duration": 19, "velocity": 49}, {"time": 2369, "pitch": 74, "duration": 9, "velocity": 64}, {"time": 2375, "pitch": 66, "duration": 6, "velocity": 54}, {"time": 2381, "pitch": 69, "duration": 7, "velocity": 42}, {"time": 2387, "pitch": 74, "duration": 3, "velocity": 63}, {"time": 2393, "pitch": 62, "duration": 10, "velocity": 54}, {"time": 2393, "pitch": 74, "duration": 6, "velocity": 63}, {"time": 2399, "pitch": 66, "duration": 6, "velocity": 57}, {"time": 2405, "pitch": 69, "duration": 7, "velocity": 52}, {"time": 2411, "pitch": 74, "duration": 2, "velocity": 64}, {"time": 2417, "pitch": 53, "duration": 41, "velocity": 66}, {"time": 2417, "pitch": 76, "duration": 5, "velocity": 61}, {"time": 2423, "pitch": 60, "duration": 19, "velocity": 47}, {"time": 2423, "pitch": 69, "duration": 8, "velocity": 48}, {"time": 2429, "pitch": 72, "duration": 6, "velocity": 57}, {"time": 2435, "pitch": 74, "duration": 5, "velocity": 47}, {"time": 2441, "pitch": 65, "duration": 13, "velocity": 54}, {"time": 2441, "pitch": 76, "duration": 5, "velocity": 45}, {"time": 2447, "pitch": 69, "duration": 5, "velocity": 41}, {"time": 2453, "pitch": 60, "duration": 9, "velocity": 37}, {"time": 2453, "pitch": 76, "duration": 4, "velocity": 56}, {"time": 2459, "pitch": 69, "duration": 6, "velocity": 40}, {"time": 2465, "pitch": 52, "duration": 39, "velocity": 66}, {"time": 2465, "pitch": 74, "duration": 8, "velocity": 63}, {"time": 2471, "pitch": 59, "duration": 12, "velocity": 44}, {"time": 2471, "pitch": 62, "duration": 5, "velocity": 34}, {"time": 2477, "pitch": 67, "duration": 6, "velocity": 53}, {"time": 2483, "pitch": 62, "duration": 7, "velocity": 50}, {"time": 2489, "pitch": 59, "duration": 15, "velocity": 47}, {"time": 2489, "pitch": 74, "duration": 15, "velocity": 62}, {"time": 2513, "pitch": 57, "duration": 41, "velocity": 56}, {"time": 2513, "pitch": 64, "duration": 7, "velocity": 60}, {"time": 2513, "pitch": 72, "duration": 8, "velocity": 72}, {"time": 2519, "pitch": 60, "duration": 12, "velocity": 54}, {"time": 2525, "pitch": 64, "duration": 7, "velocity": 53}, {"time": 2531, "pitch": 71, "duration": 6, "velocity": 67}, {"time": 2537, "pitch": 60, "duration": 13, "velocity": 61}, {"time": 2537, "pitch": 72, "duration": 5, "velocity": 59}, {"time": 2543, "pitch": 64, "duration": 6, "velocity": 49}, {"time": 2549, "pitch": 71, "duration": 3, "velocity": 55}, {"time": 2561, "pitch": 57, "duration": 40, "velocity": 57}, {"time": 2561, "pitch": 74, "duration": 5, "velocity": 69}, {"time": 2567, "pitch": 62, "duration": 11, "velocity": 51}, {"time": 2567, "pitch": 66, "duration": 6, "velocity": 59}, {"time": 2573, "pitch": 69, "duration": 6, "velocity": 67}, {"time": 2579, "pitch": 66, "duration": 7, "velocity": 62}, {"time": 2585, "pitch": 62, "duration": 15, "velocity": 55}, {"time": 2585, "pitch": 74, "duration": 2, "velocity": 64}, {"time": 2597, "pitch": 78, "duration": 1, "velocity": 67}, {"time": 2609, "pitch": 57, "duration": 38, "velocity": 51}, {"time": 2609, "pitch": 76, "duration": 4, "velocity": 66}, {"time": 2615, "pitch": 69, "duration": 4, "velocity": 51}, {"time": 2621, "pitch": 64, "duration": 14, "velocity": 46}, {"time": 2621, "pitch": 72, "duration": 4, "velocity": 59}, {"time": 2627, "pitch": 69, "duration": 4, "velocity": 45}, {"time": 2633, "pitch": 69, "duration": 6, "velocity": 49}, {"time": 2633, "pitch": 76, "duration": 3, "velocity": 56}, {"time": 2642, "pitch": 64, "duration": 11, "velocity": 55}, {"time": 2645, "pitch": 72, "duration": 5, "velocity": 53}, {"time": 2651, "pitch": 76, "duration": 4, "velocity": 61}, {"time": 2657, "pitch": 57, "duration": 35, "velocity": 63}, {"time": 2657, "pitch": 78, "duration": 6, "velocity": 50}, {"time": 2663, "pitch": 62, "duration": 29, "velocity": 63}, {"time": 2669, "pitch": 66, "duration": 24, "velocity": 60}, {"time": 2675, "pitch": 69, "duration": 18, "velocity": 53}, {"time": 2681, "pitch": 78, "duration": 11, "velocity": 78}, {"time": 2705, "pitch": 57, "duration": 41, "velocity": 64}, {"time": 2711, "pitch": 64, "duration": 10, "velocity": 54}, {"time": 2717, "pitch": 69, "duration": 6, "velocity": 47}, {"time": 2723, "pitch": 72, "duration": 7, "velocity": 57}, {"time": 2729, "pitch": 64, "duration": 16, "velocity": 56}, {"time": 2735, "pitch": 69, "duration": 7, "velocity": 53}, {"time": 2741, "pitch": 76, "duration": 5, "velocity": 62}, {"time": 2747, "pitch": 72, "duration": 7, "velocity": 59}, {"time": 2753, "pitch": 57, "duration": 39, "velocity": 58}, {"time": 2759, "pitch": 66, "duration": 33, "velocity": 50}, {"time": 2765, "pitch": 69, "duration": 5, "velocity": 53}, {"time": 2771, "pitch": 74, "duration": 6, "velocity": 48}, {"time": 2777, "pitch": 69, "duration": 15, "velocity": 45}, {"time": 2777, "pitch": 78, "duration": 29, "velocity": 67}, {"time": 2801, "pitch": 57, "duration": 40, "velocity": 61}, {"time": 2807, "pitch": 64, "duration": 36, "velocity": 61}, {"time": 2813, "pitch": 69, "duration": 10, "velocity": 52}, {"time": 2819, "pitch": 72, "duration": 6, "velocity": 51}, {"time": 2825, "pitch": 76, "duration": 5, "velocity": 50}, {"time": 2831, "pitch": 69, "duration": 9, "velocity": 49}, {"time": 2837, "pitch": 72, "duration": 6, "velocity": 49}, {"time": 2843, "pitch": 76, "duration": 11, "velocity": 54}, {"time": 2849, "pitch": 57, "duration": 40, "velocity": 67}, {"time": 2855, "pitch": 69, "duration": 11, "velocity": 57}, {"time": 2861, "pitch": 74, "duration": 8, "velocity": 49}, {"time": 2867, "pitch": 78, "duration": 12, "velocity": 67}, {"time": 2879, "pitch": 69, "duration": 11, "velocity": 46}, {"time": 2885, "pitch": 74, "duration": 7, "velocity": 44}, {"time": 2891, "pitch": 78, "duration": 10, "velocity": 49}, {"time": 2897, "pitch": 57, "duration": 41, "velocity": 64}, {"time": 2903, "pitch": 64, "duration": 37, "velocity": 60}, {"time": 2909, "pitch": 69, "duration": 6, "velocity": 55}, {"time": 2915, "pitch": 72, "duration": 6, "velocity": 50}, {"time": 2921, "pitch": 69, "duration": 6, "velocity": 57}, {"time": 2927, "pitch": 76, "duration": 9, "velocity": 56}, {"time": 2933, "pitch": 69, "duration": 5, "velocity": 73}, {"time": 2939, "pitch": 72, "duration": 7, "velocity": 51}, {"time": 2945, "pitch": 57, "duration": 39, "velocity": 66}, {"time": 2951, "pitch": 66, "duration": 32, "velocity": 50}, {"time": 2957, "pitch": 69, "duration": 5, "velocity": 47}, {"time": 2963, "pitch": 72, "duration": 6, "velocity": 51}, {"time": 2969, "pitch": 69, "duration": 14, "velocity": 66}, {"time": 2969, "pitch": 78, "duration": 12, "velocity": 61}, {"time": 2993, "pitch": 57, "duration": 40, "velocity": 66}, {"time": 2999, "pitch": 64, "duration": 9, "velocity": 58}, {"time": 3005, "pitch": 69, "duration": 12, "velocity": 55}, {"time": 3011, "pitch": 72, "duration": 6, "velocity": 58}, {"time": 3017, "pitch": 64, "duration": 14, "velocity": 60}, {"time": 3017, "pitch": 76, "duration": 4, "velocity": 60}, {"time": 3023, "pitch": 69, "duration": 6, "velocity": 57}, {"time": 3029, "pitch": 72, "duration": 5, "velocity": 50}, {"time": 3035, "pitch": 76, "duration": 9, "velocity": 69}, {"time": 3041, "pitch": 57, "duration": 36, "velocity": 63}, {"time": 3047, "pitch": 66, "duration": 31, "velocity": 59}, {"time": 3053, "pitch": 69, "duration": 10, "velocity": 55}, {"time": 3059, "pitch": 74, "duration": 7, "velocity": 55}, {"time": 3065, "pitch": 78, "duration": 12, "velocity": 58}, {"time": 3077, "pitch": 69, "duration": 3, "velocity": 48}, {"time": 3089, "pitch": 65, "duration": 34, "velocity": 76}, {"time": 3095, "pitch": 69, "duration": 7, "velocity": 52}, {"time": 3101, "pitch": 72, "duration": 6, "velocity": 62}, {"time": 3107, "pitch": 69, "duration": 7, "velocity": 48}, {"time": 3113, "pitch": 76, "duration": 4, "velocity": 51}, {"time": 3119, "pitch": 69, "duration": 10, "velocity": 57}, {"time": 3125, "pitch": 72, "duration": 6, "velocity": 56}, {"time": 3131, "pitch": 76, "duration": 6, "velocity": 61}, {"time": 3137, "pitch": 55, "duration": 39, "velocity": 69}, {"time": 3137, "pitch": 74, "duration": 7, "velocity": 64}, {"time": 3143, "pitch": 62, "duration": 14, "velocity": 51}, {"time": 3149, "pitch": 67, "duration": 7, "velocity": 51}, {"time": 3155, "pitch": 69, "duration": 7, "velocity": 67}, {"time": 3161, "pitch": 62, "duration": 14, "velocity": 57}, {"time": 3161, "pitch": 71, "duration": 5, "velocity": 57}, {"time": 3167, "pitch": 67, "duration": 6, "velocity": 52}, {"time": 3167, "pitch": 72, "duration": 5, "velocity": 56}, {"time": 3173, "pitch": 69, "duration": 2, "velocity": 49}, {"time": 3173, "pitch": 74, "duration": 2, "velocity": 63}, {"time": 3179, "pitch": 77, "duration": 4, "velocity": 76}, {"time": 3185, "pitch": 48, "duration": 12, "velocity": 70}, {"time": 3185, "pitch": 72, "duration": 11, "velocity": 42}, {"time": 3185, "pitch": 76, "duration": 13, "velocity": 60}, {"time": 3191, "pitch": 55, "duration": 7, "velocity": 52}, {"time": 3191, "pitch": 67, "duration": 4, "velocity": 20}, {"time": 3197, "pitch": 60, "duration": 4, "velocity": 59}, {"time": 3203, "pitch": 77, "duration": 6, "velocity": 69}, {"time": 3209, "pitch": 59, "duration": 16, "velocity": 42}, {"time": 3209, "pitch": 67, "duration": 8, "velocity": 59}, {"time": 3209, "pitch": 74, "duration": 8, "velocity": 73}, {"time": 3215, "pitch": 64, "duration": 11, "velocity": 66}, {"time": 3221, "pitch": 67, "duration": 6, "velocity": 56}, {"time": 3227, "pitch": 71, "duration": 4, "velocity": 56}, {"time": 3230, "pitch": 72, "duration": 3, "velocity": 59}, {"time": 3233, "pitch": 45, "duration": 106, "velocity": 58}, {"time": 3233, "pitch": 57, "duration": 105, "velocity": 46}, {"time": 3233, "pitch": 64, "duration": 105, "velocity": 58}, {"time": 3233, "pitch": 69, "duration": 105, "velocity": 54}, {"time": 3233, "pitch": 72, "duration": 1, "velocity": 60}], "annotations": [{"time": 209, "annotation": {"number": 64, "value": 127}, "group": "control_change"}, {"time": 254, "annotation": {"number": 64, "value": 0}, "group": "control_change"}, {"time": 259, "annotation": {"number": 64, "value": 127}, "group": "control_change"}, {"time": 293, "annotation": {"number": 64, "value": 0}, "group": "control_change"}, {"time": 401, "annotation": {"number": 64, "value": 127}, "group": "control_change"}, {"time": 446, "annotation": {"number": 64, "value": 0}, "group": "control_change"}, {"time": 451, "annotation": {"number": 64, "value": 127}, "group": "control_change"}, {"time": 485, "annotation": {"number": 64, "value": 0}, "group": "control_change"}, {"time": 590, "annotation": {"number": 64, "value": 127}, "group": "control_change"}, {"time": 593, "annotation": {"number": 64, "value": 0}, "group": "control_change"}, {"time": 593, "annotation": {"number": 64, "value": 127}, "group": "control_change"}, {"time": 639, "annotation": {"number": 64, "value": 0}, "group": "control_change"}, {"time": 646, "annotation": {"number": 64, "value": 127}, "group": "control_change"}, {"time": 686, "annotation": {"number": 64, "value": 0}, "group": "control_change"}, {"time": 694, "annotation": {"number": 64, "value": 127}, "group": "control_change"}, {"time": 712, "annotation": {"number": 64, "value": 0}, "group": "control_change"}, {"time": 720, "annotation": {"number": 64, "value": 127}, "group": "control_change"}, {"time": 736, "annotation": {"number": 64, "value": 0}, "group": "control_change"}, {"time": 744, "annotation": {"number": 64, "value": 127}, "group": "control_change"}, {"time": 783, "annotation": {"number": 64, "value": 0}, "group": "control_change"}, {"time": 791, "annotation": {"number": 64, "value": 127}, "group": "control_change"}, {"time": 829, "annotation": {"number": 64, "value": 0}, "group": "control_change"}, {"time": 839, "annotation": {"number": 64, "value": 127}, "group": "control_change"}, {"time": 879, "annotation": {"number": 64, "value": 0}, "group": "control_change"}, {"time": 887, "annotation": {"number": 64, "value": 127}, "group": "control_change"}, {"time": 927, "annotation": {"number": 64, "value": 0}, "group": "control_change"}, {"time": 935, "annotation": {"number": 64, "value": 127}, "group": "control_change"}, {"time": 976, "annotation": {"number": 64, "value": 0}, "group": "control_change"}, {"time": 983, "annotation": {"number": 64, "value": 127}, "group": "control_change"}, {"time": 1023, "annotation": {"number": 64, "value": 0}, "group": "control_change"}, {"time": 1029, "annotation": {"number": 64, "value": 127}, "group": "control_change"}, {"time": 1073, "annotation": {"number": 64, "value": 0}, "group": "control_change"}, {"time": 1079, "annotation": {"number": 64, "value": 127}, "group": "control_change"}, {"time": 1120, "annotation": {"number": 64, "value": 0}, "group": "control_change"}, {"time": 1126, "annotation": {"number": 64, "value": 127}, "group": "control_change"}, {"time": 1167, "annotation": {"number": 64, "value": 0}, "group": "control_change"}, {"time": 1173, "annotation": {"number": 64, "value": 127}, "group": "control_change"}, {"time": 1215, "annotation": {"number": 64, "value": 0}, "group": "control_change"}, {"time": 1217, "annotation": {"number": 64, "value": 127}, "group": "control_change"}, {"time": 1261, "annotation": {"number": 64, "value": 0}, "group": "control_change"}, {"time": 1267, "annotation": {"number": 64, "value": 127}, "group": "control_change"}, {"time": 1311, "annotation": {"number": 64, "value": 0}, "group": "control_change"}, {"time": 1321, "annotation": {"number": 64, "value": 127}, "group": "control_change"}, {"time": 1357, "annotation": {"number": 64, "value": 0}, "group": "control_change"}, {"time": 1365, "annotation": {"number": 64, "value": 127}, "group": "control_change"}, {"time": 1407, "annotation": {"number": 64, "value": 0}, "group": "control_change"}, {"time": 1415, "annotation": {"number": 64, "value": 127}, "group": "control_change"}, {"time": 1455, "annotation": {"number": 64, "value": 0}, "group": "control_change"}, {"time": 1459, "annotation": {"number": 64, "value": 127}, "group": "control_change"}, {"time": 1503, "annotation": {"number": 64, "value": 0}, "group": "control_change"}, {"time": 1510, "annotation": {"number": 64, "value": 127}, "group": "control_change"}, {"time": 1552, "annotation": {"number": 64, "value": 0}, "group": "control_change"}, {"time": 1559, "annotation": {"number": 64, "value": 127}, "group": "control_change"}, {"time": 1577, "annotation": {"number": 64, "value": 0}, "group": "control_change"}, {"time": 1585, "annotation": {"number": 64, "value": 127}, "group": "control_change"}, {"time": 1601, "annotation": {"number": 64, "value": 0}, "group": "control_change"}, {"time": 1609, "annotation": {"number": 64, "value": 127}, "group": "control_change"}, {"time": 1649, "annotation": {"number": 64, "value": 0}, "group": "control_change"}, {"time": 1656, "annotation": {"number": 64, "value": 127}, "group": "control_change"}, {"time": 1696, "annotation": {"number": 64, "value": 0}, "group": "control_change"}, {"time": 1703, "annotation": {"number": 64, "value": 127}, "group": "control_change"}, {"time": 1745, "annotation": {"number": 64, "value": 0}, "group": "control_change"}, {"time": 1753, "annotation": {"number": 64, "value": 127}, "group": "control_change"}, {"time": 1794, "annotation": {"number": 64, "value": 0}, "group": "control_change"}, {"time": 1801, "annotation": {"number": 64, "value": 127}, "group": "control_change"}, {"time": 1840, "annotation": {"number": 64, "value": 0}, "group": "control_change"}, {"time": 1843, "annotation": {"number": 64, "value": 127}, "group": "control_change"}, {"time": 1887, "annotation": {"number": 64, "value": 0}, "group": "control_change"}, {"time": 1896, "annotation": {"number": 64, "value": 127}, "group": "control_change"}, {"time": 1935, "annotation": {"number": 64, "value": 0}, "group": "control_change"}, {"time": 1939, "annotation": {"number": 64, "value": 127}, "group": "control_change"}, {"time": 1984, "annotation": {"number": 64, "value": 0}, "group": "control_change"}, {"time": 1990, "annotation": {"number": 64, "value": 127}, "group": "control_change"}, {"time": 2031, "annotation": {"number": 64, "value": 0}, "group": "control_change"}, {"time": 2037, "annotation": {"number": 64, "value": 127}, "group": "control_change"}, {"time": 2079, "annotation": {"number": 64, "value": 0}, "group": "control_change"}, {"time": 2087, "annotation": {"number": 64, "value": 127}, "group": "control_change"}, {"time": 2124, "annotation": {"number": 64, "value": 0}, "group": "control_change"}, {"time": 2133, "annotation": {"number": 64, "value": 127}, "group": "control_change"}, {"time": 2176, "annotation": {"number": 64, "value": 0}, "group": "control_change"}, {"time": 2183, "annotation": {"number": 64, "value": 127}, "group": "control_change"}, {"time": 2225, "annotation": {"number": 64, "value": 0}, "group": "control_change"}, {"time": 2225, "annotation": {"number": 64, "value": 127}, "group": "control_change"}, {"time": 2272, "annotation": {"number": 64, "value": 0}, "group": "control_change"}, {"time": 2275, "annotation": {"number": 64, "value": 127}, "group": "control_change"}, {"time": 2319, "annotation": {"number": 64, "value": 0}, "group": "control_change"}, {"time": 2325, "annotation": {"number": 64, "value": 127}, "group": "control_change"}, {"time": 2368, "annotation": {"number": 64, "value": 0}, "group": "control_change"}, {"time": 2377, "annotation": {"number": 64, "value": 127}, "group": "control_change"}, {"time": 2415, "annotation": {"number": 64, "value": 0}, "group": "control_change"}, {"time": 2420, "annotation": {"number": 64, "value": 127}, "group": "control_change"}, {"time": 2465, "annotation": {"number": 64, "value": 0}, "group": "control_change"}, {"time": 2467, "annotation": {"number": 64, "value": 127}, "group": "control_change"}, {"time": 2513, "annotation": {"number": 64, "value": 0}, "group": "control_change"}, {"time": 2519, "annotation": {"number": 64, "value": 127}, "group": "control_change"}, {"time": 2561, "annotation": {"number": 64, "value": 0}, "group": "control_change"}, {"time": 2567, "annotation": {"number": 64, "value": 127}, "group": "control_change"}, {"time": 2609, "annotation": {"number": 64, "value": 0}, "group": "control_change"}, {"time": 2615, "annotation": {"number": 64, "value": 127}, "group": "control_change"}, {"time": 2656, "annotation": {"number": 64, "value": 0}, "group": "control_change"}, {"time": 2664, "annotation": {"number": 64, "value": 127}, "group": "control_change"}, {"time": 2680, "annotation": {"number": 64, "value": 0}, "group": "control_change"}, {"time": 2685, "annotation": {"number": 64, "value": 127}, "group": "control_change"}, {"time": 2705, "annotation": {"number": 64, "value": 0}, "group": "control_change"}, {"time": 2711, "annotation": {"number": 64, "value": 127}, "group": "control_change"}, {"time": 2753, "annotation": {"number": 64, "value": 0}, "group": "control_change"}, {"time": 2761, "annotation": {"number": 64, "value": 127}, "group": "control_change"}, {"time": 2801, "annotation": {"number": 64, "value": 0}, "group": "control_change"}, {"time": 2808, "annotation": {"number": 64, "value": 127}, "group": "control_change"}, {"time": 2848, "annotation": {"number": 64, "value": 0}, "group": "control_change"}, {"time": 2855, "annotation": {"number": 64, "value": 127}, "group": "control_change"}, {"time": 2896, "annotation": {"number": 64, "value": 0}, "group": "control_change"}, {"time": 2904, "annotation": {"number": 64, "value": 127}, "group": "control_change"}, {"time": 2943, "annotation": {"number": 64, "value": 0}, "group": "control_change"}, {"time": 2953, "annotation": {"number": 64, "value": 127}, "group": "control_change"}, {"time": 2975, "annotation": {"number": 64, "value": 0}, "group": "control_change"}, {"time": 3002, "annotation": {"number": 64, "value": 127}, "group": "control_change"}, {"time": 3042, "annotation": {"number": 64, "value": 0}, "group": "control_change"}, {"time": 3050, "annotation": {"number": 64, "value": 127}, "group": "control_change"}, {"time": 3088, "annotation": {"number": 64, "value": 0}, "group": "control_change"}, {"time": 3095, "annotation": {"number": 64, "value": 127}, "group": "control_change"}, {"time": 3135, "annotation": {"number": 64, "value": 0}, "group": "control_change"}, {"time": 3144, "annotation": {"number": 64, "value": 127}, "group": "control_change"}, {"time": 3184, "annotation": {"number": 64, "value": 0}, "group": "control_change"}, {"time": 3192, "annotation": {"number": 64, "value": 127}, "group": "control_change"}, {"time": 3209, "annotation": {"number": 64, "value": 0}, "group": "control_change"}, {"time": 3217, "annotation": {"number": 64, "value": 127}, "group": "control_change"}, {"time": 3232, "annotation": {"number": 64, "value": 0}, "group": "control_change"}, {"time": 3233, "annotation": {"number": 64, "value": 127}, "group": "control_change"}, {"time": 3343, "annotation": {"number": 64, "value": 0}, "group": "control_change"}]}]}