{"metadata": {"schema_version": "0.2", "title": "None", "source_filename": "231.mid", "source_format": "midi"}, "resolution": 12, "tempos": [{"time": 0, "qpm": 108.000108000108}], "time_signatures": [{"time": 0, "numerator": 6, "denominator": 8}], "tracks": [{"program": 4, "is_drum": false, "name": "MELODY", "notes": [{"time": 301, "pitch": 73, "duration": 6, "velocity": 93}, {"time": 307, "pitch": 71, "duration": 6, "velocity": 59}, {"time": 313, "pitch": 73, "duration": 6, "velocity": 62}, {"time": 319, "pitch": 71, "duration": 12, "velocity": 66}, {"time": 331, "pitch": 69, "duration": 6, "velocity": 54}, {"time": 337, "pitch": 73, "duration": 6, "velocity": 66}, {"time": 343, "pitch": 76, "duration": 6, "velocity": 65}, {"time": 349, "pitch": 73, "duration": 6, "velocity": 66}, {"time": 355, "pitch": 76, "duration": 18, "velocity": 76}, {"time": 373, "pitch": 78, "duration": 6, "velocity": 79}, {"time": 379, "pitch": 80, "duration": 6, "velocity": 61}, {"time": 385, "pitch": 81, "duration": 6, "velocity": 63}, {"time": 391, "pitch": 80, "duration": 12, "velocity": 67}, {"time": 403, "pitch": 73, "duration": 6, "velocity": 65}, {"time": 409, "pitch": 76, "duration": 6, "velocity": 68}, {"time": 415, "pitch": 78, "duration": 12, "velocity": 83}, {"time": 427, "pitch": 76, "duration": 18, "velocity": 73}, {"time": 445, "pitch": 78, "duration": 6, "velocity": 80}, {"time": 451, "pitch": 80, "duration": 6, "velocity": 66}, {"time": 457, "pitch": 81, "duration": 6, "velocity": 79}, {"time": 463, "pitch": 80, "duration": 12, "velocity": 91}, {"time": 475, "pitch": 73, "duration": 6, "velocity": 63}, {"time": 481, "pitch": 76, "duration": 6, "velocity": 75}, {"time": 487, "pitch": 73, "duration": 6, "velocity": 66}, {"time": 493, "pitch": 71, "duration": 6, "velocity": 72}, {"time": 499, "pitch": 69, "duration": 12, "velocity": 63}, {"time": 511, "pitch": 66, "duration": 6, "velocity": 63}, {"time": 517, "pitch": 71, "duration": 6, "velocity": 89}, {"time": 523, "pitch": 73, "duration": 6, "velocity": 87}, {"time": 529, "pitch": 71, "duration": 6, "velocity": 76}, {"time": 535, "pitch": 69, "duration": 12, "velocity": 75}, {"time": 547, "pitch": 66, "duration": 6, "velocity": 62}, {"time": 553, "pitch": 73, "duration": 12, "velocity": 96}, {"time": 565, "pitch": 71, "duration": 24, "velocity": 97}, {"time": 589, "pitch": 73, "duration": 6, "velocity": 99}, {"time": 595, "pitch": 71, "duration": 6, "velocity": 65}, {"time": 601, "pitch": 73, "duration": 6, "velocity": 73}, {"time": 607, "pitch": 71, "duration": 12, "velocity": 79}, {"time": 619, "pitch": 69, "duration": 6, "velocity": 71}, {"time": 625, "pitch": 73, "duration": 6, "velocity": 93}, {"time": 631, "pitch": 76, "duration": 6, "velocity": 85}, {"time": 637, "pitch": 73, "duration": 6, "velocity": 81}, {"time": 643, "pitch": 76, "duration": 18, "velocity": 86}, {"time": 661, "pitch": 78, "duration": 6, "velocity": 98}, {"time": 667, "pitch": 80, "duration": 6, "velocity": 80}, {"time": 673, "pitch": 81, "duration": 6, "velocity": 93}, {"time": 679, "pitch": 80, "duration": 12, "velocity": 93}, {"time": 691, "pitch": 73, "duration": 6, "velocity": 90}, {"time": 697, "pitch": 76, "duration": 6, "velocity": 84}, {"time": 703, "pitch": 78, "duration": 14, "velocity": 90}, {"time": 715, "pitch": 76, "duration": 18, "velocity": 100}, {"time": 733, "pitch": 78, "duration": 6, "velocity": 93}, {"time": 739, "pitch": 80, "duration": 6, "velocity": 87}, {"time": 745, "pitch": 81, "duration": 6, "velocity": 93}, {"time": 751, "pitch": 80, "duration": 12, "velocity": 87}, {"time": 763, "pitch": 73, "duration": 6, "velocity": 63}, {"time": 769, "pitch": 76, "duration": 6, "velocity": 97}, {"time": 775, "pitch": 73, "duration": 6, "velocity": 91}, {"time": 781, "pitch": 71, "duration": 6, "velocity": 66}, {"time": 787, "pitch": 69, "duration": 12, "velocity": 82}, {"time": 799, "pitch": 66, "duration": 6, "velocity": 87}, {"time": 805, "pitch": 71, "duration": 6, "velocity": 91}, {"time": 811, "pitch": 73, "duration": 6, "velocity": 77}, {"time": 817, "pitch": 78, "duration": 6, "velocity": 79}, {"time": 823, "pitch": 76, "duration": 6, "velocity": 87}, {"time": 829, "pitch": 71, "duration": 12, "velocity": 66}, {"time": 841, "pitch": 73, "duration": 12, "velocity": 87}, {"time": 853, "pitch": 69, "duration": 24, "velocity": 69}, {"time": 877, "pitch": 78, "duration": 18, "velocity": 97}, {"time": 895, "pitch": 78, "duration": 7, "velocity": 98}, {"time": 901, "pitch": 76, "duration": 6, "velocity": 92}, {"time": 907, "pitch": 73, "duration": 6, "velocity": 93}, {"time": 913, "pitch": 76, "duration": 18, "velocity": 95}, {"time": 931, "pitch": 76, "duration": 6, "velocity": 105}, {"time": 937, "pitch": 73, "duration": 6, "velocity": 90}, {"time": 943, "pitch": 71, "duration": 7, "velocity": 86}, {"time": 949, "pitch": 73, "duration": 12, "velocity": 90}, {"time": 961, "pitch": 76, "duration": 6, "velocity": 61}, {"time": 967, "pitch": 73, "duration": 6, "velocity": 93}, {"time": 973, "pitch": 71, "duration": 12, "velocity": 83}, {"time": 985, "pitch": 69, "duration": 9, "velocity": 66}, {"time": 997, "pitch": 66, "duration": 27, "velocity": 71}, {"time": 1021, "pitch": 66, "duration": 3, "velocity": 72}, {"time": 1027, "pitch": 69, "duration": 6, "velocity": 66}, {"time": 1033, "pitch": 71, "duration": 6, "velocity": 75}, {"time": 1039, "pitch": 69, "duration": 13, "velocity": 74}, {"time": 1051, "pitch": 71, "duration": 6, "velocity": 81}, {"time": 1057, "pitch": 73, "duration": 7, "velocity": 68}, {"time": 1063, "pitch": 76, "duration": 6, "velocity": 66}, {"time": 1069, "pitch": 78, "duration": 6, "velocity": 66}, {"time": 1075, "pitch": 76, "duration": 12, "velocity": 87}, {"time": 1087, "pitch": 73, "duration": 6, "velocity": 90}, {"time": 1093, "pitch": 71, "duration": 6, "velocity": 63}, {"time": 1099, "pitch": 73, "duration": 6, "velocity": 64}, {"time": 1105, "pitch": 71, "duration": 6, "velocity": 46}, {"time": 1111, "pitch": 69, "duration": 6, "velocity": 72}, {"time": 1117, "pitch": 71, "duration": 7, "velocity": 61}, {"time": 1123, "pitch": 73, "duration": 6, "velocity": 75}, {"time": 1129, "pitch": 76, "duration": 36, "velocity": 91}, {"time": 1165, "pitch": 73, "duration": 6, "velocity": 97}, {"time": 1171, "pitch": 71, "duration": 6, "velocity": 76}, {"time": 1177, "pitch": 73, "duration": 6, "velocity": 89}, {"time": 1183, "pitch": 71, "duration": 12, "velocity": 84}, {"time": 1195, "pitch": 69, "duration": 7, "velocity": 67}, {"time": 1201, "pitch": 73, "duration": 6, "velocity": 87}, {"time": 1207, "pitch": 76, "duration": 6, "velocity": 89}, {"time": 1213, "pitch": 73, "duration": 6, "velocity": 91}, {"time": 1219, "pitch": 76, "duration": 18, "velocity": 97}, {"time": 1237, "pitch": 78, "duration": 7, "velocity": 93}, {"time": 1243, "pitch": 80, "duration": 6, "velocity": 81}, {"time": 1249, "pitch": 81, "duration": 6, "velocity": 91}, {"time": 1255, "pitch": 80, "duration": 12, "velocity": 87}, {"time": 1267, "pitch": 73, "duration": 6, "velocity": 77}, {"time": 1273, "pitch": 76, "duration": 6, "velocity": 84}, {"time": 1279, "pitch": 78, "duration": 13, "velocity": 93}, {"time": 1291, "pitch": 76, "duration": 18, "velocity": 90}, {"time": 1309, "pitch": 78, "duration": 7, "velocity": 92}, {"time": 1315, "pitch": 80, "duration": 6, "velocity": 87}, {"time": 1321, "pitch": 81, "duration": 7, "velocity": 90}, {"time": 1327, "pitch": 80, "duration": 12, "velocity": 89}, {"time": 1339, "pitch": 73, "duration": 6, "velocity": 85}, {"time": 1345, "pitch": 76, "duration": 6, "velocity": 91}, {"time": 1351, "pitch": 73, "duration": 6, "velocity": 82}, {"time": 1357, "pitch": 71, "duration": 6, "velocity": 81}, {"time": 1363, "pitch": 69, "duration": 12, "velocity": 91}, {"time": 1375, "pitch": 66, "duration": 6, "velocity": 97}, {"time": 1381, "pitch": 71, "duration": 6, "velocity": 91}, {"time": 1387, "pitch": 73, "duration": 6, "velocity": 87}, {"time": 1393, "pitch": 78, "duration": 7, "velocity": 90}, {"time": 1399, "pitch": 76, "duration": 6, "velocity": 94}, {"time": 1405, "pitch": 71, "duration": 12, "velocity": 93}, {"time": 1417, "pitch": 73, "duration": 12, "velocity": 105}, {"time": 1429, "pitch": 69, "duration": 16, "velocity": 105}, {"time": 2101, "pitch": 73, "duration": 6, "velocity": 93}, {"time": 2107, "pitch": 71, "duration": 6, "velocity": 59}, {"time": 2113, "pitch": 73, "duration": 6, "velocity": 62}, {"time": 2119, "pitch": 71, "duration": 12, "velocity": 66}, {"time": 2131, "pitch": 69, "duration": 6, "velocity": 54}, {"time": 2137, "pitch": 73, "duration": 6, "velocity": 66}, {"time": 2143, "pitch": 76, "duration": 6, "velocity": 65}, {"time": 2149, "pitch": 73, "duration": 6, "velocity": 66}, {"time": 2155, "pitch": 76, "duration": 18, "velocity": 76}, {"time": 2173, "pitch": 78, "duration": 6, "velocity": 79}, {"time": 2179, "pitch": 80, "duration": 6, "velocity": 61}, {"time": 2185, "pitch": 81, "duration": 6, "velocity": 63}, {"time": 2191, "pitch": 80, "duration": 12, "velocity": 67}, {"time": 2203, "pitch": 73, "duration": 6, "velocity": 65}, {"time": 2209, "pitch": 76, "duration": 6, "velocity": 68}, {"time": 2215, "pitch": 78, "duration": 12, "velocity": 83}, {"time": 2227, "pitch": 76, "duration": 18, "velocity": 73}, {"time": 2245, "pitch": 78, "duration": 6, "velocity": 80}, {"time": 2251, "pitch": 80, "duration": 6, "velocity": 66}, {"time": 2257, "pitch": 81, "duration": 6, "velocity": 79}, {"time": 2263, "pitch": 80, "duration": 12, "velocity": 91}, {"time": 2275, "pitch": 73, "duration": 6, "velocity": 63}, {"time": 2281, "pitch": 76, "duration": 6, "velocity": 75}, {"time": 2287, "pitch": 73, "duration": 6, "velocity": 66}, {"time": 2293, "pitch": 71, "duration": 6, "velocity": 72}, {"time": 2299, "pitch": 69, "duration": 12, "velocity": 63}, {"time": 2311, "pitch": 66, "duration": 6, "velocity": 63}, {"time": 2317, "pitch": 71, "duration": 6, "velocity": 89}, {"time": 2323, "pitch": 73, "duration": 6, "velocity": 87}, {"time": 2329, "pitch": 71, "duration": 6, "velocity": 76}, {"time": 2335, "pitch": 69, "duration": 6, "velocity": 75}, {"time": 2341, "pitch": 66, "duration": 6, "velocity": 62}, {"time": 2347, "pitch": 73, "duration": 12, "velocity": 96}, {"time": 2359, "pitch": 71, "duration": 30, "velocity": 97}, {"time": 2389, "pitch": 73, "duration": 6, "velocity": 99}, {"time": 2395, "pitch": 71, "duration": 6, "velocity": 65}, {"time": 2401, "pitch": 73, "duration": 6, "velocity": 73}, {"time": 2407, "pitch": 71, "duration": 12, "velocity": 79}, {"time": 2419, "pitch": 69, "duration": 6, "velocity": 71}, {"time": 2425, "pitch": 73, "duration": 6, "velocity": 93}, {"time": 2431, "pitch": 76, "duration": 6, "velocity": 85}, {"time": 2437, "pitch": 73, "duration": 6, "velocity": 81}, {"time": 2443, "pitch": 76, "duration": 18, "velocity": 86}, {"time": 2461, "pitch": 78, "duration": 6, "velocity": 98}, {"time": 2467, "pitch": 80, "duration": 6, "velocity": 80}, {"time": 2473, "pitch": 81, "duration": 6, "velocity": 93}, {"time": 2479, "pitch": 80, "duration": 12, "velocity": 93}, {"time": 2491, "pitch": 73, "duration": 6, "velocity": 90}, {"time": 2497, "pitch": 76, "duration": 6, "velocity": 84}, {"time": 2503, "pitch": 78, "duration": 12, "velocity": 90}, {"time": 2515, "pitch": 76, "duration": 21, "velocity": 100}, {"time": 2533, "pitch": 78, "duration": 6, "velocity": 93}, {"time": 2539, "pitch": 80, "duration": 6, "velocity": 87}, {"time": 2545, "pitch": 81, "duration": 6, "velocity": 93}, {"time": 2551, "pitch": 80, "duration": 12, "velocity": 87}, {"time": 2563, "pitch": 73, "duration": 6, "velocity": 63}, {"time": 2569, "pitch": 76, "duration": 6, "velocity": 97}, {"time": 2575, "pitch": 73, "duration": 6, "velocity": 91}, {"time": 2581, "pitch": 71, "duration": 6, "velocity": 66}, {"time": 2587, "pitch": 69, "duration": 12, "velocity": 82}, {"time": 2599, "pitch": 66, "duration": 6, "velocity": 87}, {"time": 2605, "pitch": 71, "duration": 6, "velocity": 91}, {"time": 2611, "pitch": 73, "duration": 6, "velocity": 77}, {"time": 2617, "pitch": 78, "duration": 6, "velocity": 79}, {"time": 2623, "pitch": 76, "duration": 6, "velocity": 87}, {"time": 2629, "pitch": 71, "duration": 12, "velocity": 66}, {"time": 2641, "pitch": 73, "duration": 12, "velocity": 87}, {"time": 2653, "pitch": 69, "duration": 24, "velocity": 69}, {"time": 2677, "pitch": 78, "duration": 18, "velocity": 97}, {"time": 2695, "pitch": 78, "duration": 7, "velocity": 98}, {"time": 2701, "pitch": 76, "duration": 6, "velocity": 92}, {"time": 2707, "pitch": 73, "duration": 6, "velocity": 93}, {"time": 2713, "pitch": 76, "duration": 18, "velocity": 95}, {"time": 2731, "pitch": 76, "duration": 6, "velocity": 105}, {"time": 2737, "pitch": 73, "duration": 6, "velocity": 90}, {"time": 2743, "pitch": 71, "duration": 7, "velocity": 86}, {"time": 2749, "pitch": 73, "duration": 12, "velocity": 90}, {"time": 2761, "pitch": 78, "duration": 6, "velocity": 61}, {"time": 2767, "pitch": 73, "duration": 6, "velocity": 93}, {"time": 2773, "pitch": 71, "duration": 12, "velocity": 83}, {"time": 2785, "pitch": 69, "duration": 6, "velocity": 66}, {"time": 2791, "pitch": 66, "duration": 30, "velocity": 71}, {"time": 2821, "pitch": 66, "duration": 6, "velocity": 72}, {"time": 2827, "pitch": 69, "duration": 6, "velocity": 66}, {"time": 2833, "pitch": 71, "duration": 6, "velocity": 75}, {"time": 2839, "pitch": 69, "duration": 13, "velocity": 74}, {"time": 2851, "pitch": 71, "duration": 6, "velocity": 81}, {"time": 2857, "pitch": 73, "duration": 7, "velocity": 68}, {"time": 2863, "pitch": 76, "duration": 6, "velocity": 66}, {"time": 2869, "pitch": 78, "duration": 6, "velocity": 66}, {"time": 2875, "pitch": 76, "duration": 12, "velocity": 87}, {"time": 2887, "pitch": 73, "duration": 6, "velocity": 90}, {"time": 2893, "pitch": 71, "duration": 6, "velocity": 63}, {"time": 2899, "pitch": 73, "duration": 6, "velocity": 64}, {"time": 2905, "pitch": 71, "duration": 6, "velocity": 46}, {"time": 2911, "pitch": 69, "duration": 6, "velocity": 72}, {"time": 2917, "pitch": 71, "duration": 7, "velocity": 61}, {"time": 2923, "pitch": 73, "duration": 6, "velocity": 75}, {"time": 2929, "pitch": 76, "duration": 36, "velocity": 91}, {"time": 2965, "pitch": 73, "duration": 6, "velocity": 97}, {"time": 2971, "pitch": 71, "duration": 6, "velocity": 76}, {"time": 2977, "pitch": 73, "duration": 6, "velocity": 89}, {"time": 2983, "pitch": 71, "duration": 12, "velocity": 84}, {"time": 2995, "pitch": 69, "duration": 7, "velocity": 67}, {"time": 3001, "pitch": 73, "duration": 6, "velocity": 87}, {"time": 3007, "pitch": 76, "duration": 6, "velocity": 89}, {"time": 3013, "pitch": 73, "duration": 6, "velocity": 91}, {"time": 3019, "pitch": 76, "duration": 18, "velocity": 97}, {"time": 3037, "pitch": 78, "duration": 7, "velocity": 93}, {"time": 3043, "pitch": 80, "duration": 6, "velocity": 81}, {"time": 3049, "pitch": 81, "duration": 6, "velocity": 91}, {"time": 3055, "pitch": 80, "duration": 12, "velocity": 87}, {"time": 3067, "pitch": 73, "duration": 6, "velocity": 77}, {"time": 3073, "pitch": 76, "duration": 6, "velocity": 84}, {"time": 3079, "pitch": 78, "duration": 13, "velocity": 93}, {"time": 3091, "pitch": 76, "duration": 18, "velocity": 90}, {"time": 3109, "pitch": 78, "duration": 7, "velocity": 92}, {"time": 3115, "pitch": 80, "duration": 6, "velocity": 87}, {"time": 3121, "pitch": 81, "duration": 7, "velocity": 90}, {"time": 3127, "pitch": 80, "duration": 12, "velocity": 89}, {"time": 3139, "pitch": 73, "duration": 6, "velocity": 85}, {"time": 3145, "pitch": 76, "duration": 6, "velocity": 91}, {"time": 3151, "pitch": 73, "duration": 6, "velocity": 82}, {"time": 3157, "pitch": 71, "duration": 6, "velocity": 81}, {"time": 3163, "pitch": 69, "duration": 12, "velocity": 91}, {"time": 3175, "pitch": 66, "duration": 6, "velocity": 97}, {"time": 3181, "pitch": 71, "duration": 6, "velocity": 91}, {"time": 3187, "pitch": 73, "duration": 6, "velocity": 87}, {"time": 3193, "pitch": 78, "duration": 7, "velocity": 90}, {"time": 3199, "pitch": 76, "duration": 9, "velocity": 94}, {"time": 3208, "pitch": 71, "duration": 9, "velocity": 93}, {"time": 3217, "pitch": 73, "duration": 9, "velocity": 105}, {"time": 3226, "pitch": 69, "duration": 19, "velocity": 105}, {"time": 3253, "pitch": 78, "duration": 18, "velocity": 97}, {"time": 3271, "pitch": 78, "duration": 7, "velocity": 98}, {"time": 3277, "pitch": 76, "duration": 6, "velocity": 92}, {"time": 3283, "pitch": 73, "duration": 6, "velocity": 93}, {"time": 3289, "pitch": 76, "duration": 18, "velocity": 95}, {"time": 3307, "pitch": 76, "duration": 6, "velocity": 105}, {"time": 3313, "pitch": 73, "duration": 6, "velocity": 90}, {"time": 3319, "pitch": 71, "duration": 7, "velocity": 86}, {"time": 3325, "pitch": 73, "duration": 12, "velocity": 90}, {"time": 3337, "pitch": 78, "duration": 6, "velocity": 61}, {"time": 3343, "pitch": 73, "duration": 6, "velocity": 93}, {"time": 3349, "pitch": 71, "duration": 12, "velocity": 83}, {"time": 3361, "pitch": 69, "duration": 6, "velocity": 66}, {"time": 3367, "pitch": 66, "duration": 30, "velocity": 71}, {"time": 3397, "pitch": 66, "duration": 6, "velocity": 72}, {"time": 3403, "pitch": 69, "duration": 6, "velocity": 66}, {"time": 3409, "pitch": 71, "duration": 6, "velocity": 75}, {"time": 3415, "pitch": 69, "duration": 13, "velocity": 74}, {"time": 3427, "pitch": 71, "duration": 6, "velocity": 81}, {"time": 3433, "pitch": 73, "duration": 7, "velocity": 68}, {"time": 3439, "pitch": 76, "duration": 6, "velocity": 66}, {"time": 3445, "pitch": 78, "duration": 6, "velocity": 66}, {"time": 3451, "pitch": 76, "duration": 12, "velocity": 87}, {"time": 3463, "pitch": 73, "duration": 6, "velocity": 90}, {"time": 3469, "pitch": 71, "duration": 6, "velocity": 63}, {"time": 3475, "pitch": 73, "duration": 6, "velocity": 64}, {"time": 3481, "pitch": 71, "duration": 6, "velocity": 46}, {"time": 3487, "pitch": 69, "duration": 6, "velocity": 72}, {"time": 3493, "pitch": 71, "duration": 7, "velocity": 61}, {"time": 3499, "pitch": 73, "duration": 6, "velocity": 75}, {"time": 3505, "pitch": 76, "duration": 36, "velocity": 91}, {"time": 3541, "pitch": 73, "duration": 6, "velocity": 97}, {"time": 3547, "pitch": 71, "duration": 6, "velocity": 76}, {"time": 3553, "pitch": 73, "duration": 6, "velocity": 89}, {"time": 3559, "pitch": 71, "duration": 12, "velocity": 84}, {"time": 3571, "pitch": 69, "duration": 7, "velocity": 67}, {"time": 3577, "pitch": 73, "duration": 6, "velocity": 87}, {"time": 3583, "pitch": 76, "duration": 6, "velocity": 89}, {"time": 3589, "pitch": 73, "duration": 6, "velocity": 91}, {"time": 3595, "pitch": 76, "duration": 18, "velocity": 97}, {"time": 3613, "pitch": 78, "duration": 7, "velocity": 93}, {"time": 3619, "pitch": 80, "duration": 6, "velocity": 81}, {"time": 3625, "pitch": 81, "duration": 6, "velocity": 91}, {"time": 3631, "pitch": 80, "duration": 12, "velocity": 87}, {"time": 3643, "pitch": 73, "duration": 6, "velocity": 77}, {"time": 3649, "pitch": 76, "duration": 6, "velocity": 84}, {"time": 3655, "pitch": 78, "duration": 12, "velocity": 93}, {"time": 3667, "pitch": 76, "duration": 18, "velocity": 90}, {"time": 3685, "pitch": 78, "duration": 7, "velocity": 92}, {"time": 3691, "pitch": 80, "duration": 6, "velocity": 87}, {"time": 3697, "pitch": 81, "duration": 7, "velocity": 90}, {"time": 3703, "pitch": 80, "duration": 12, "velocity": 89}, {"time": 3715, "pitch": 73, "duration": 6, "velocity": 85}, {"time": 3721, "pitch": 76, "duration": 6, "velocity": 91}, {"time": 3727, "pitch": 73, "duration": 6, "velocity": 82}, {"time": 3733, "pitch": 71, "duration": 6, "velocity": 81}, {"time": 3739, "pitch": 69, "duration": 12, "velocity": 91}, {"time": 3751, "pitch": 66, "duration": 6, "velocity": 97}, {"time": 3757, "pitch": 71, "duration": 6, "velocity": 91}, {"time": 3763, "pitch": 73, "duration": 6, "velocity": 87}, {"time": 3769, "pitch": 78, "duration": 6, "velocity": 90}, {"time": 3775, "pitch": 76, "duration": 6, "velocity": 94}, {"time": 3781, "pitch": 71, "duration": 9, "velocity": 93}, {"time": 3790, "pitch": 73, "duration": 12, "velocity": 105}, {"time": 3802, "pitch": 69, "duration": 19, "velocity": 105}, {"time": 3829, "pitch": 73, "duration": 6, "velocity": 93}, {"time": 3835, "pitch": 71, "duration": 6, "velocity": 59}, {"time": 3841, "pitch": 73, "duration": 6, "velocity": 62}, {"time": 3847, "pitch": 71, "duration": 12, "velocity": 66}, {"time": 3859, "pitch": 69, "duration": 9, "velocity": 54}, {"time": 3868, "pitch": 73, "duration": 6, "velocity": 66}, {"time": 3874, "pitch": 76, "duration": 6, "velocity": 65}, {"time": 3880, "pitch": 73, "duration": 6, "velocity": 66}, {"time": 3886, "pitch": 76, "duration": 15, "velocity": 76}, {"time": 3904, "pitch": 78, "duration": 6, "velocity": 79}, {"time": 3910, "pitch": 80, "duration": 6, "velocity": 61}, {"time": 3916, "pitch": 81, "duration": 6, "velocity": 63}, {"time": 3922, "pitch": 80, "duration": 12, "velocity": 67}, {"time": 3934, "pitch": 73, "duration": 6, "velocity": 65}, {"time": 3940, "pitch": 76, "duration": 6, "velocity": 68}, {"time": 3946, "pitch": 78, "duration": 12, "velocity": 83}, {"time": 3958, "pitch": 76, "duration": 18, "velocity": 73}, {"time": 3976, "pitch": 78, "duration": 6, "velocity": 80}, {"time": 3982, "pitch": 80, "duration": 6, "velocity": 66}, {"time": 3988, "pitch": 81, "duration": 6, "velocity": 79}, {"time": 3994, "pitch": 80, "duration": 12, "velocity": 91}, {"time": 4006, "pitch": 73, "duration": 6, "velocity": 63}, {"time": 4012, "pitch": 76, "duration": 6, "velocity": 75}, {"time": 4018, "pitch": 73, "duration": 6, "velocity": 66}, {"time": 4024, "pitch": 71, "duration": 6, "velocity": 72}, {"time": 4030, "pitch": 69, "duration": 15, "velocity": 63}, {"time": 4045, "pitch": 66, "duration": 6, "velocity": 63}, {"time": 4051, "pitch": 71, "duration": 6, "velocity": 89}, {"time": 4057, "pitch": 73, "duration": 6, "velocity": 87}, {"time": 4063, "pitch": 78, "duration": 6, "velocity": 76}, {"time": 4069, "pitch": 76, "duration": 6, "velocity": 75}, {"time": 4075, "pitch": 71, "duration": 9, "velocity": 62}, {"time": 4084, "pitch": 73, "duration": 9, "velocity": 96}]}, {"program": 0, "is_drum": false, "name": "PIANO", "notes": [{"time": 10, "pitch": 59, "duration": 3, "velocity": 46}, {"time": 10, "pitch": 61, "duration": 11, "velocity": 64}, {"time": 10, "pitch": 64, "duration": 7, "velocity": 69}, {"time": 13, "pitch": 45, "duration": 33, "velocity": 75}, {"time": 13, "pitch": 69, "duration": 31, "velocity": 73}, {"time": 19, "pitch": 52, "duration": 31, "velocity": 69}, {"time": 25, "pitch": 57, "duration": 12, "velocity": 67}, {"time": 31, "pitch": 59, "duration": 8, "velocity": 73}, {"time": 37, "pitch": 64, "duration": 10, "velocity": 70}, {"time": 43, "pitch": 57, "duration": 5, "velocity": 51}, {"time": 49, "pitch": 45, "duration": 25, "velocity": 78}, {"time": 49, "pitch": 59, "duration": 13, "velocity": 66}, {"time": 49, "pitch": 61, "duration": 13, "velocity": 72}, {"time": 49, "pitch": 64, "duration": 13, "velocity": 51}, {"time": 55, "pitch": 52, "duration": 28, "velocity": 64}, {"time": 61, "pitch": 57, "duration": 20, "velocity": 69}, {"time": 61, "pitch": 69, "duration": 2, "velocity": 1}, {"time": 67, "pitch": 59, "duration": 7, "velocity": 70}, {"time": 67, "pitch": 61, "duration": 1, "velocity": 44}, {"time": 73, "pitch": 64, "duration": 6, "velocity": 62}, {"time": 79, "pitch": 69, "duration": 25, "velocity": 72}, {"time": 85, "pitch": 47, "duration": 33, "velocity": 63}, {"time": 85, "pitch": 62, "duration": 17, "velocity": 69}, {"time": 85, "pitch": 65, "duration": 18, "velocity": 73}, {"time": 91, "pitch": 50, "duration": 29, "velocity": 50}, {"time": 97, "pitch": 53, "duration": 24, "velocity": 63}, {"time": 103, "pitch": 59, "duration": 16, "velocity": 58}, {"time": 109, "pitch": 62, "duration": 13, "velocity": 69}, {"time": 115, "pitch": 69, "duration": 21, "velocity": 67}, {"time": 121, "pitch": 47, "duration": 26, "velocity": 69}, {"time": 121, "pitch": 65, "duration": 9, "velocity": 63}, {"time": 127, "pitch": 50, "duration": 21, "velocity": 49}, {"time": 133, "pitch": 53, "duration": 13, "velocity": 60}, {"time": 133, "pitch": 64, "duration": 9, "velocity": 80}, {"time": 139, "pitch": 59, "duration": 5, "velocity": 59}, {"time": 145, "pitch": 62, "duration": 5, "velocity": 80}, {"time": 151, "pitch": 59, "duration": 4, "velocity": 80}, {"time": 157, "pitch": 45, "duration": 27, "velocity": 73}, {"time": 157, "pitch": 59, "duration": 3, "velocity": 63}, {"time": 160, "pitch": 61, "duration": 12, "velocity": 66}, {"time": 163, "pitch": 52, "duration": 11, "velocity": 57}, {"time": 169, "pitch": 57, "duration": 14, "velocity": 62}, {"time": 175, "pitch": 59, "duration": 8, "velocity": 72}, {"time": 175, "pitch": 64, "duration": 9, "velocity": 67}, {"time": 181, "pitch": 52, "duration": 11, "velocity": 56}, {"time": 187, "pitch": 59, "duration": 6, "velocity": 67}, {"time": 187, "pitch": 64, "duration": 3, "velocity": 46}, {"time": 193, "pitch": 45, "duration": 25, "velocity": 72}, {"time": 193, "pitch": 57, "duration": 8, "velocity": 59}, {"time": 193, "pitch": 61, "duration": 8, "velocity": 69}, {"time": 199, "pitch": 52, "duration": 6, "velocity": 50}, {"time": 205, "pitch": 59, "duration": 9, "velocity": 80}, {"time": 205, "pitch": 64, "duration": 8, "velocity": 76}, {"time": 211, "pitch": 52, "duration": 10, "velocity": 67}, {"time": 217, "pitch": 57, "duration": 6, "velocity": 72}, {"time": 223, "pitch": 64, "duration": 5, "velocity": 67}, {"time": 229, "pitch": 47, "duration": 63, "velocity": 73}, {"time": 229, "pitch": 59, "duration": 10, "velocity": 66}, {"time": 229, "pitch": 62, "duration": 10, "velocity": 70}, {"time": 229, "pitch": 65, "duration": 12, "velocity": 70}, {"time": 229, "pitch": 69, "duration": 19, "velocity": 59}, {"time": 235, "pitch": 50, "duration": 56, "velocity": 49}, {"time": 241, "pitch": 53, "duration": 15, "velocity": 72}, {"time": 247, "pitch": 59, "duration": 12, "velocity": 73}, {"time": 253, "pitch": 62, "duration": 8, "velocity": 67}, {"time": 259, "pitch": 69, "duration": 15, "velocity": 66}, {"time": 265, "pitch": 53, "duration": 12, "velocity": 72}, {"time": 265, "pitch": 59, "duration": 6, "velocity": 72}, {"time": 265, "pitch": 65, "duration": 4, "velocity": 70}, {"time": 277, "pitch": 59, "duration": 7, "velocity": 55}, {"time": 277, "pitch": 64, "duration": 7, "velocity": 66}, {"time": 283, "pitch": 53, "duration": 7, "velocity": 69}, {"time": 289, "pitch": 59, "duration": 1, "velocity": 48}, {"time": 289, "pitch": 62, "duration": 7, "velocity": 70}, {"time": 295, "pitch": 59, "duration": 5, "velocity": 57}, {"time": 301, "pitch": 57, "duration": 25, "velocity": 67}, {"time": 301, "pitch": 69, "duration": 6, "velocity": 69}, {"time": 307, "pitch": 61, "duration": 9, "velocity": 53}, {"time": 313, "pitch": 64, "duration": 5, "velocity": 61}, {"time": 319, "pitch": 71, "duration": 7, "velocity": 75}, {"time": 325, "pitch": 61, "duration": 5, "velocity": 49}, {"time": 331, "pitch": 64, "duration": 6, "velocity": 56}, {"time": 337, "pitch": 49, "duration": 27, "velocity": 72}, {"time": 337, "pitch": 68, "duration": 5, "velocity": 67}, {"time": 343, "pitch": 59, "duration": 7, "velocity": 54}, {"time": 349, "pitch": 64, "duration": 7, "velocity": 56}, {"time": 355, "pitch": 56, "duration": 9, "velocity": 66}, {"time": 355, "pitch": 68, "duration": 5, "velocity": 63}, {"time": 361, "pitch": 61, "duration": 4, "velocity": 48}, {"time": 367, "pitch": 64, "duration": 4, "velocity": 63}, {"time": 373, "pitch": 54, "duration": 27, "velocity": 60}, {"time": 373, "pitch": 69, "duration": 8, "velocity": 75}, {"time": 379, "pitch": 57, "duration": 12, "velocity": 64}, {"time": 385, "pitch": 61, "duration": 5, "velocity": 56}, {"time": 391, "pitch": 66, "duration": 7, "velocity": 63}, {"time": 397, "pitch": 57, "duration": 3, "velocity": 62}, {"time": 403, "pitch": 61, "duration": 6, "velocity": 56}, {"time": 409, "pitch": 49, "duration": 26, "velocity": 70}, {"time": 409, "pitch": 64, "duration": 8, "velocity": 75}, {"time": 409, "pitch": 68, "duration": 8, "velocity": 70}, {"time": 415, "pitch": 56, "duration": 21, "velocity": 70}, {"time": 421, "pitch": 61, "duration": 5, "velocity": 52}, {"time": 427, "pitch": 64, "duration": 6, "velocity": 72}, {"time": 433, "pitch": 66, "duration": 5, "velocity": 72}, {"time": 439, "pitch": 68, "duration": 5, "velocity": 73}, {"time": 445, "pitch": 54, "duration": 27, "velocity": 62}, {"time": 445, "pitch": 61, "duration": 8, "velocity": 67}, {"time": 445, "pitch": 64, "duration": 9, "velocity": 70}, {"time": 445, "pitch": 69, "duration": 8, "velocity": 82}, {"time": 451, "pitch": 57, "duration": 11, "velocity": 60}, {"time": 457, "pitch": 61, "duration": 8, "velocity": 53}, {"time": 463, "pitch": 69, "duration": 8, "velocity": 72}, {"time": 469, "pitch": 57, "duration": 3, "velocity": 66}, {"time": 475, "pitch": 68, "duration": 6, "velocity": 47}, {"time": 481, "pitch": 49, "duration": 10, "velocity": 69}, {"time": 481, "pitch": 59, "duration": 6, "velocity": 69}, {"time": 481, "pitch": 64, "duration": 8, "velocity": 72}, {"time": 481, "pitch": 68, "duration": 7, "velocity": 75}, {"time": 487, "pitch": 54, "duration": 3, "velocity": 61}, {"time": 493, "pitch": 66, "duration": 2, "velocity": 58}, {"time": 493, "pitch": 68, "duration": 5, "velocity": 63}, {"time": 499, "pitch": 42, "duration": 12, "velocity": 72}, {"time": 499, "pitch": 61, "duration": 11, "velocity": 72}, {"time": 499, "pitch": 64, "duration": 11, "velocity": 75}, {"time": 499, "pitch": 69, "duration": 13, "velocity": 75}, {"time": 505, "pitch": 49, "duration": 7, "velocity": 59}, {"time": 511, "pitch": 54, "duration": 6, "velocity": 61}, {"time": 517, "pitch": 47, "duration": 26, "velocity": 69}, {"time": 517, "pitch": 57, "duration": 5, "velocity": 75}, {"time": 517, "pitch": 62, "duration": 11, "velocity": 78}, {"time": 517, "pitch": 66, "duration": 11, "velocity": 75}, {"time": 523, "pitch": 54, "duration": 19, "velocity": 63}, {"time": 529, "pitch": 59, "duration": 11, "velocity": 78}, {"time": 535, "pitch": 61, "duration": 5, "velocity": 63}, {"time": 541, "pitch": 62, "duration": 6, "velocity": 73}, {"time": 547, "pitch": 66, "duration": 5, "velocity": 53}, {"time": 553, "pitch": 40, "duration": 28, "velocity": 75}, {"time": 553, "pitch": 59, "duration": 8, "velocity": 70}, {"time": 553, "pitch": 64, "duration": 9, "velocity": 64}, {"time": 553, "pitch": 68, "duration": 9, "velocity": 66}, {"time": 565, "pitch": 47, "duration": 15, "velocity": 59}, {"time": 571, "pitch": 52, "duration": 10, "velocity": 44}, {"time": 571, "pitch": 66, "duration": 12, "velocity": 61}, {"time": 571, "pitch": 78, "duration": 11, "velocity": 45}, {"time": 589, "pitch": 45, "duration": 9, "velocity": 67}, {"time": 589, "pitch": 81, "duration": 17, "velocity": 67}, {"time": 595, "pitch": 52, "duration": 5, "velocity": 56}, {"time": 601, "pitch": 57, "duration": 6, "velocity": 52}, {"time": 607, "pitch": 59, "duration": 9, "velocity": 57}, {"time": 607, "pitch": 76, "duration": 4, "velocity": 72}, {"time": 613, "pitch": 61, "duration": 3, "velocity": 69}, {"time": 619, "pitch": 73, "duration": 5, "velocity": 72}, {"time": 625, "pitch": 49, "duration": 23, "velocity": 69}, {"time": 625, "pitch": 68, "duration": 8, "velocity": 76}, {"time": 631, "pitch": 56, "duration": 11, "velocity": 60}, {"time": 637, "pitch": 61, "duration": 8, "velocity": 76}, {"time": 643, "pitch": 64, "duration": 7, "velocity": 85}, {"time": 649, "pitch": 66, "duration": 4, "velocity": 69}, {"time": 655, "pitch": 68, "duration": 5, "velocity": 64}, {"time": 661, "pitch": 42, "duration": 10, "velocity": 75}, {"time": 661, "pitch": 61, "duration": 16, "velocity": 85}, {"time": 661, "pitch": 69, "duration": 13, "velocity": 78}, {"time": 667, "pitch": 49, "duration": 5, "velocity": 57}, {"time": 673, "pitch": 54, "duration": 7, "velocity": 63}, {"time": 673, "pitch": 68, "duration": 7, "velocity": 70}, {"time": 679, "pitch": 56, "duration": 11, "velocity": 64}, {"time": 679, "pitch": 61, "duration": 6, "velocity": 70}, {"time": 679, "pitch": 66, "duration": 7, "velocity": 72}, {"time": 685, "pitch": 57, "duration": 4, "velocity": 67}, {"time": 691, "pitch": 61, "duration": 4, "velocity": 63}, {"time": 697, "pitch": 49, "duration": 25, "velocity": 75}, {"time": 697, "pitch": 59, "duration": 8, "velocity": 76}, {"time": 697, "pitch": 64, "duration": 8, "velocity": 70}, {"time": 703, "pitch": 56, "duration": 12, "velocity": 67}, {"time": 709, "pitch": 59, "duration": 6, "velocity": 56}, {"time": 715, "pitch": 64, "duration": 7, "velocity": 88}, {"time": 721, "pitch": 56, "duration": 3, "velocity": 75}, {"time": 721, "pitch": 66, "duration": 5, "velocity": 80}, {"time": 727, "pitch": 68, "duration": 5, "velocity": 67}, {"time": 733, "pitch": 42, "duration": 14, "velocity": 75}, {"time": 733, "pitch": 61, "duration": 11, "velocity": 72}, {"time": 733, "pitch": 66, "duration": 12, "velocity": 73}, {"time": 733, "pitch": 69, "duration": 11, "velocity": 82}, {"time": 739, "pitch": 49, "duration": 8, "velocity": 69}, {"time": 745, "pitch": 54, "duration": 13, "velocity": 69}, {"time": 751, "pitch": 61, "duration": 10, "velocity": 80}, {"time": 757, "pitch": 56, "duration": 8, "velocity": 63}, {"time": 763, "pitch": 57, "duration": 5, "velocity": 78}, {"time": 769, "pitch": 49, "duration": 8, "velocity": 72}, {"time": 769, "pitch": 59, "duration": 7, "velocity": 73}, {"time": 769, "pitch": 64, "duration": 7, "velocity": 72}, {"time": 769, "pitch": 68, "duration": 8, "velocity": 61}, {"time": 775, "pitch": 56, "duration": 2, "velocity": 63}, {"time": 781, "pitch": 59, "duration": 3, "velocity": 60}, {"time": 787, "pitch": 42, "duration": 11, "velocity": 75}, {"time": 787, "pitch": 61, "duration": 4, "velocity": 80}, {"time": 787, "pitch": 69, "duration": 5, "velocity": 76}, {"time": 793, "pitch": 49, "duration": 6, "velocity": 63}, {"time": 799, "pitch": 54, "duration": 6, "velocity": 64}, {"time": 799, "pitch": 73, "duration": 5, "velocity": 48}, {"time": 805, "pitch": 47, "duration": 13, "velocity": 72}, {"time": 805, "pitch": 66, "duration": 10, "velocity": 76}, {"time": 805, "pitch": 71, "duration": 11, "velocity": 69}, {"time": 805, "pitch": 74, "duration": 14, "velocity": 70}, {"time": 811, "pitch": 54, "duration": 8, "velocity": 69}, {"time": 817, "pitch": 59, "duration": 1, "velocity": 82}, {"time": 823, "pitch": 40, "duration": 12, "velocity": 78}, {"time": 823, "pitch": 64, "duration": 8, "velocity": 69}, {"time": 823, "pitch": 69, "duration": 7, "velocity": 70}, {"time": 829, "pitch": 47, "duration": 7, "velocity": 70}, {"time": 835, "pitch": 52, "duration": 5, "velocity": 76}, {"time": 841, "pitch": 45, "duration": 25, "velocity": 70}, {"time": 847, "pitch": 52, "duration": 21, "velocity": 70}, {"time": 853, "pitch": 57, "duration": 14, "velocity": 93}, {"time": 859, "pitch": 59, "duration": 5, "velocity": 66}, {"time": 865, "pitch": 61, "duration": 3, "velocity": 66}, {"time": 871, "pitch": 64, "duration": 3, "velocity": 75}, {"time": 877, "pitch": 42, "duration": 11, "velocity": 70}, {"time": 877, "pitch": 61, "duration": 10, "velocity": 78}, {"time": 877, "pitch": 69, "duration": 13, "velocity": 80}, {"time": 883, "pitch": 49, "duration": 6, "velocity": 60}, {"time": 889, "pitch": 54, "duration": 7, "velocity": 73}, {"time": 889, "pitch": 61, "duration": 13, "velocity": 78}, {"time": 889, "pitch": 68, "duration": 14, "velocity": 70}, {"time": 895, "pitch": 56, "duration": 9, "velocity": 54}, {"time": 901, "pitch": 57, "duration": 2, "velocity": 75}, {"time": 907, "pitch": 66, "duration": 5, "velocity": 78}, {"time": 913, "pitch": 49, "duration": 26, "velocity": 67}, {"time": 913, "pitch": 59, "duration": 8, "velocity": 91}, {"time": 913, "pitch": 64, "duration": 9, "velocity": 88}, {"time": 919, "pitch": 56, "duration": 13, "velocity": 53}, {"time": 925, "pitch": 59, "duration": 5, "velocity": 61}, {"time": 931, "pitch": 64, "duration": 7, "velocity": 82}, {"time": 937, "pitch": 56, "duration": 2, "velocity": 69}, {"time": 937, "pitch": 66, "duration": 6, "velocity": 73}, {"time": 943, "pitch": 69, "duration": 6, "velocity": 62}, {"time": 949, "pitch": 49, "duration": 18, "velocity": 67}, {"time": 949, "pitch": 61, "duration": 9, "velocity": 73}, {"time": 949, "pitch": 65, "duration": 9, "velocity": 95}, {"time": 949, "pitch": 68, "duration": 9, "velocity": 78}, {"time": 955, "pitch": 56, "duration": 14, "velocity": 64}, {"time": 961, "pitch": 61, "duration": 7, "velocity": 76}, {"time": 961, "pitch": 66, "duration": 8, "velocity": 72}, {"time": 967, "pitch": 53, "duration": 9, "velocity": 82}, {"time": 973, "pitch": 68, "duration": 7, "velocity": 101}, {"time": 979, "pitch": 69, "duration": 3, "velocity": 72}, {"time": 985, "pitch": 42, "duration": 11, "velocity": 72}, {"time": 985, "pitch": 61, "duration": 25, "velocity": 73}, {"time": 985, "pitch": 69, "duration": 25, "velocity": 78}, {"time": 991, "pitch": 49, "duration": 6, "velocity": 63}, {"time": 997, "pitch": 54, "duration": 7, "velocity": 52}, {"time": 1003, "pitch": 56, "duration": 8, "velocity": 62}, {"time": 1009, "pitch": 57, "duration": 3, "velocity": 75}, {"time": 1015, "pitch": 66, "duration": 4, "velocity": 88}, {"time": 1021, "pitch": 50, "duration": 27, "velocity": 67}, {"time": 1021, "pitch": 57, "duration": 8, "velocity": 80}, {"time": 1021, "pitch": 62, "duration": 8, "velocity": 75}, {"time": 1021, "pitch": 66, "duration": 8, "velocity": 64}, {"time": 1027, "pitch": 54, "duration": 14, "velocity": 62}, {"time": 1033, "pitch": 57, "duration": 5, "velocity": 82}, {"time": 1039, "pitch": 57, "duration": 7, "velocity": 75}, {"time": 1039, "pitch": 62, "duration": 7, "velocity": 82}, {"time": 1039, "pitch": 66, "duration": 8, "velocity": 75}, {"time": 1045, "pitch": 54, "duration": 3, "velocity": 69}, {"time": 1051, "pitch": 57, "duration": 3, "velocity": 80}, {"time": 1057, "pitch": 49, "duration": 10, "velocity": 63}, {"time": 1057, "pitch": 61, "duration": 8, "velocity": 69}, {"time": 1057, "pitch": 64, "duration": 9, "velocity": 78}, {"time": 1057, "pitch": 68, "duration": 10, "velocity": 75}, {"time": 1063, "pitch": 56, "duration": 4, "velocity": 57}, {"time": 1069, "pitch": 66, "duration": 17, "velocity": 66}, {"time": 1072, "pitch": 68, "duration": 2, "velocity": 67}, {"time": 1075, "pitch": 42, "duration": 12, "velocity": 69}, {"time": 1075, "pitch": 61, "duration": 12, "velocity": 67}, {"time": 1075, "pitch": 69, "duration": 13, "velocity": 78}, {"time": 1081, "pitch": 49, "duration": 7, "velocity": 53}, {"time": 1087, "pitch": 54, "duration": 4, "velocity": 72}, {"time": 1093, "pitch": 47, "duration": 29, "velocity": 82}, {"time": 1093, "pitch": 59, "duration": 9, "velocity": 73}, {"time": 1093, "pitch": 62, "duration": 18, "velocity": 79}, {"time": 1093, "pitch": 66, "duration": 23, "velocity": 78}, {"time": 1096, "pitch": 69, "duration": 21, "velocity": 4}, {"time": 1099, "pitch": 54, "duration": 23, "velocity": 72}, {"time": 1105, "pitch": 59, "duration": 15, "velocity": 75}, {"time": 1111, "pitch": 61, "duration": 13, "velocity": 70}, {"time": 1117, "pitch": 62, "duration": 6, "velocity": 80}, {"time": 1123, "pitch": 69, "duration": 7, "velocity": 83}, {"time": 1129, "pitch": 40, "duration": 33, "velocity": 74}, {"time": 1129, "pitch": 59, "duration": 14, "velocity": 73}, {"time": 1129, "pitch": 64, "duration": 14, "velocity": 68}, {"time": 1129, "pitch": 68, "duration": 15, "velocity": 90}, {"time": 1135, "pitch": 47, "duration": 26, "velocity": 76}, {"time": 1141, "pitch": 52, "duration": 22, "velocity": 76}, {"time": 1147, "pitch": 64, "duration": 3, "velocity": 84}, {"time": 1149, "pitch": 66, "duration": 2, "velocity": 82}, {"time": 1151, "pitch": 68, "duration": 1, "velocity": 84}, {"time": 1153, "pitch": 69, "duration": 3, "velocity": 95}, {"time": 1155, "pitch": 71, "duration": 3, "velocity": 90}, {"time": 1157, "pitch": 73, "duration": 1, "velocity": 90}, {"time": 1159, "pitch": 74, "duration": 3, "velocity": 86}, {"time": 1161, "pitch": 76, "duration": 4, "velocity": 80}, {"time": 1163, "pitch": 78, "duration": 2, "velocity": 80}, {"time": 1165, "pitch": 45, "duration": 10, "velocity": 67}, {"time": 1165, "pitch": 76, "duration": 8, "velocity": 85}, {"time": 1165, "pitch": 81, "duration": 9, "velocity": 90}, {"time": 1171, "pitch": 52, "duration": 5, "velocity": 64}, {"time": 1171, "pitch": 64, "duration": 8, "velocity": 58}, {"time": 1177, "pitch": 57, "duration": 6, "velocity": 50}, {"time": 1177, "pitch": 69, "duration": 5, "velocity": 66}, {"time": 1183, "pitch": 59, "duration": 8, "velocity": 50}, {"time": 1183, "pitch": 71, "duration": 8, "velocity": 70}, {"time": 1189, "pitch": 61, "duration": 2, "velocity": 73}, {"time": 1195, "pitch": 64, "duration": 8, "velocity": 85}, {"time": 1201, "pitch": 49, "duration": 25, "velocity": 73}, {"time": 1201, "pitch": 69, "duration": 10, "velocity": 82}, {"time": 1207, "pitch": 56, "duration": 19, "velocity": 56}, {"time": 1213, "pitch": 68, "duration": 7, "velocity": 82}, {"time": 1219, "pitch": 61, "duration": 6, "velocity": 76}, {"time": 1219, "pitch": 64, "duration": 7, "velocity": 64}, {"time": 1225, "pitch": 68, "duration": 4, "velocity": 73}, {"time": 1231, "pitch": 69, "duration": 23, "velocity": 70}, {"time": 1237, "pitch": 42, "duration": 11, "velocity": 47}, {"time": 1237, "pitch": 64, "duration": 11, "velocity": 66}, {"time": 1237, "pitch": 73, "duration": 18, "velocity": 72}, {"time": 1243, "pitch": 49, "duration": 6, "velocity": 66}, {"time": 1249, "pitch": 54, "duration": 9, "velocity": 76}, {"time": 1255, "pitch": 56, "duration": 8, "velocity": 59}, {"time": 1255, "pitch": 64, "duration": 9, "velocity": 76}, {"time": 1255, "pitch": 71, "duration": 3, "velocity": 78}, {"time": 1261, "pitch": 57, "duration": 3, "velocity": 66}, {"time": 1267, "pitch": 69, "duration": 4, "velocity": 73}, {"time": 1273, "pitch": 49, "duration": 26, "velocity": 69}, {"time": 1273, "pitch": 59, "duration": 9, "velocity": 70}, {"time": 1273, "pitch": 64, "duration": 8, "velocity": 72}, {"time": 1273, "pitch": 68, "duration": 8, "velocity": 73}, {"time": 1279, "pitch": 56, "duration": 13, "velocity": 69}, {"time": 1285, "pitch": 59, "duration": 3, "velocity": 37}, {"time": 1291, "pitch": 59, "duration": 7, "velocity": 78}, {"time": 1291, "pitch": 64, "duration": 4, "velocity": 78}, {"time": 1291, "pitch": 68, "duration": 5, "velocity": 76}, {"time": 1297, "pitch": 56, "duration": 2, "velocity": 78}, {"time": 1303, "pitch": 64, "duration": 4, "velocity": 76}, {"time": 1309, "pitch": 42, "duration": 26, "velocity": 67}, {"time": 1309, "pitch": 59, "duration": 11, "velocity": 80}, {"time": 1309, "pitch": 68, "duration": 11, "velocity": 76}, {"time": 1315, "pitch": 49, "duration": 20, "velocity": 63}, {"time": 1321, "pitch": 54, "duration": 6, "velocity": 78}, {"time": 1327, "pitch": 61, "duration": 8, "velocity": 88}, {"time": 1327, "pitch": 69, "duration": 8, "velocity": 75}, {"time": 1333, "pitch": 54, "duration": 3, "velocity": 72}, {"time": 1339, "pitch": 66, "duration": 5, "velocity": 82}, {"time": 1345, "pitch": 49, "duration": 7, "velocity": 76}, {"time": 1345, "pitch": 61, "duration": 6, "velocity": 80}, {"time": 1345, "pitch": 64, "duration": 7, "velocity": 85}, {"time": 1345, "pitch": 68, "duration": 7, "velocity": 75}, {"time": 1351, "pitch": 56, "duration": 2, "velocity": 70}, {"time": 1357, "pitch": 66, "duration": 12, "velocity": 63}, {"time": 1360, "pitch": 68, "duration": 2, "velocity": 59}, {"time": 1363, "pitch": 42, "duration": 11, "velocity": 70}, {"time": 1363, "pitch": 61, "duration": 7, "velocity": 67}, {"time": 1363, "pitch": 69, "duration": 14, "velocity": 62}, {"time": 1369, "pitch": 49, "duration": 7, "velocity": 55}, {"time": 1375, "pitch": 54, "duration": 6, "velocity": 82}, {"time": 1381, "pitch": 47, "duration": 11, "velocity": 75}, {"time": 1381, "pitch": 57, "duration": 8, "velocity": 78}, {"time": 1381, "pitch": 62, "duration": 9, "velocity": 76}, {"time": 1381, "pitch": 66, "duration": 9, "velocity": 75}, {"time": 1387, "pitch": 54, "duration": 5, "velocity": 72}, {"time": 1393, "pitch": 57, "duration": 3, "velocity": 72}, {"time": 1399, "pitch": 40, "duration": 9, "velocity": 75}, {"time": 1399, "pitch": 59, "duration": 9, "velocity": 91}, {"time": 1399, "pitch": 64, "duration": 10, "velocity": 78}, {"time": 1399, "pitch": 68, "duration": 6, "velocity": 75}, {"time": 1405, "pitch": 47, "duration": 6, "velocity": 69}, {"time": 1411, "pitch": 52, "duration": 5, "velocity": 62}, {"time": 1417, "pitch": 45, "duration": 30, "velocity": 69}, {"time": 1417, "pitch": 61, "duration": 10, "velocity": 78}, {"time": 1417, "pitch": 64, "duration": 10, "velocity": 76}, {"time": 1417, "pitch": 69, "duration": 11, "velocity": 75}, {"time": 1423, "pitch": 52, "duration": 42, "velocity": 63}, {"time": 1429, "pitch": 57, "duration": 19, "velocity": 85}, {"time": 1435, "pitch": 59, "duration": 7, "velocity": 76}, {"time": 1441, "pitch": 61, "duration": 5, "velocity": 67}, {"time": 1447, "pitch": 64, "duration": 4, "velocity": 57}, {"time": 1453, "pitch": 54, "duration": 31, "velocity": 73}, {"time": 1453, "pitch": 73, "duration": 5, "velocity": 76}, {"time": 1459, "pitch": 61, "duration": 19, "velocity": 64}, {"time": 1459, "pitch": 68, "duration": 7, "velocity": 61}, {"time": 1465, "pitch": 69, "duration": 8, "velocity": 59}, {"time": 1471, "pitch": 66, "duration": 8, "velocity": 57}, {"time": 1471, "pitch": 76, "duration": 8, "velocity": 75}, {"time": 1477, "pitch": 68, "duration": 6, "velocity": 51}, {"time": 1483, "pitch": 61, "duration": 7, "velocity": 50}, {"time": 1483, "pitch": 69, "duration": 8, "velocity": 59}, {"time": 1489, "pitch": 54, "duration": 26, "velocity": 46}, {"time": 1489, "pitch": 73, "duration": 7, "velocity": 69}, {"time": 1495, "pitch": 61, "duration": 20, "velocity": 52}, {"time": 1495, "pitch": 68, "duration": 5, "velocity": 48}, {"time": 1501, "pitch": 69, "duration": 7, "velocity": 58}, {"time": 1507, "pitch": 66, "duration": 3, "velocity": 45}, {"time": 1507, "pitch": 76, "duration": 6, "velocity": 72}, {"time": 1513, "pitch": 68, "duration": 7, "velocity": 56}, {"time": 1519, "pitch": 69, "duration": 3, "velocity": 63}, {"time": 1525, "pitch": 52, "duration": 25, "velocity": 64}, {"time": 1525, "pitch": 69, "duration": 11, "velocity": 75}, {"time": 1525, "pitch": 73, "duration": 11, "velocity": 75}, {"time": 1531, "pitch": 61, "duration": 18, "velocity": 62}, {"time": 1537, "pitch": 64, "duration": 7, "velocity": 59}, {"time": 1543, "pitch": 66, "duration": 6, "velocity": 70}, {"time": 1549, "pitch": 68, "duration": 5, "velocity": 61}, {"time": 1555, "pitch": 66, "duration": 6, "velocity": 61}, {"time": 1561, "pitch": 42, "duration": 27, "velocity": 66}, {"time": 1561, "pitch": 61, "duration": 7, "velocity": 56}, {"time": 1561, "pitch": 64, "duration": 7, "velocity": 63}, {"time": 1561, "pitch": 69, "duration": 7, "velocity": 60}, {"time": 1567, "pitch": 49, "duration": 14, "velocity": 67}, {"time": 1573, "pitch": 54, "duration": 11, "velocity": 55}, {"time": 1579, "pitch": 56, "duration": 8, "velocity": 70}, {"time": 1579, "pitch": 57, "duration": 9, "velocity": 72}, {"time": 1579, "pitch": 61, "duration": 9, "velocity": 73}, {"time": 1585, "pitch": 49, "duration": 5, "velocity": 70}, {"time": 1597, "pitch": 39, "duration": 26, "velocity": 82}, {"time": 1597, "pitch": 57, "duration": 9, "velocity": 67}, {"time": 1597, "pitch": 61, "duration": 9, "velocity": 70}, {"time": 1603, "pitch": 51, "duration": 12, "velocity": 82}, {"time": 1609, "pitch": 54, "duration": 4, "velocity": 66}, {"time": 1615, "pitch": 54, "duration": 7, "velocity": 70}, {"time": 1615, "pitch": 57, "duration": 7, "velocity": 76}, {"time": 1615, "pitch": 61, "duration": 7, "velocity": 75}, {"time": 1621, "pitch": 51, "duration": 7, "velocity": 64}, {"time": 1627, "pitch": 46, "duration": 3, "velocity": 40}, {"time": 1627, "pitch": 54, "duration": 3, "velocity": 44}, {"time": 1633, "pitch": 39, "duration": 26, "velocity": 72}, {"time": 1633, "pitch": 54, "duration": 8, "velocity": 69}, {"time": 1633, "pitch": 57, "duration": 8, "velocity": 75}, {"time": 1633, "pitch": 61, "duration": 8, "velocity": 67}, {"time": 1639, "pitch": 51, "duration": 14, "velocity": 73}, {"time": 1645, "pitch": 54, "duration": 4, "velocity": 57}, {"time": 1651, "pitch": 54, "duration": 13, "velocity": 75}, {"time": 1651, "pitch": 57, "duration": 9, "velocity": 78}, {"time": 1651, "pitch": 61, "duration": 8, "velocity": 76}, {"time": 1657, "pitch": 51, "duration": 1, "velocity": 64}, {"time": 1669, "pitch": 38, "duration": 25, "velocity": 72}, {"time": 1669, "pitch": 54, "duration": 12, "velocity": 72}, {"time": 1669, "pitch": 57, "duration": 12, "velocity": 73}, {"time": 1669, "pitch": 66, "duration": 9, "velocity": 75}, {"time": 1675, "pitch": 45, "duration": 20, "velocity": 67}, {"time": 1681, "pitch": 50, "duration": 7, "velocity": 78}, {"time": 1687, "pitch": 54, "duration": 8, "velocity": 75}, {"time": 1687, "pitch": 57, "duration": 7, "velocity": 78}, {"time": 1687, "pitch": 62, "duration": 5, "velocity": 78}, {"time": 1693, "pitch": 50, "duration": 4, "velocity": 70}, {"time": 1699, "pitch": 54, "duration": 3, "velocity": 50}, {"time": 1705, "pitch": 40, "duration": 27, "velocity": 73}, {"time": 1705, "pitch": 56, "duration": 14, "velocity": 82}, {"time": 1705, "pitch": 59, "duration": 11, "velocity": 72}, {"time": 1705, "pitch": 64, "duration": 12, "velocity": 72}, {"time": 1717, "pitch": 47, "duration": 14, "velocity": 67}, {"time": 1723, "pitch": 56, "duration": 7, "velocity": 80}, {"time": 1723, "pitch": 59, "duration": 7, "velocity": 82}, {"time": 1723, "pitch": 64, "duration": 7, "velocity": 76}, {"time": 1729, "pitch": 52, "duration": 3, "velocity": 53}, {"time": 1735, "pitch": 57, "duration": 3, "velocity": 76}, {"time": 1741, "pitch": 48, "duration": 29, "velocity": 78}, {"time": 1741, "pitch": 62, "duration": 13, "velocity": 75}, {"time": 1741, "pitch": 64, "duration": 14, "velocity": 76}, {"time": 1741, "pitch": 67, "duration": 14, "velocity": 73}, {"time": 1741, "pitch": 72, "duration": 21, "velocity": 75}, {"time": 1747, "pitch": 55, "duration": 24, "velocity": 66}, {"time": 1753, "pitch": 60, "duration": 16, "velocity": 88}, {"time": 1759, "pitch": 62, "duration": 8, "velocity": 70}, {"time": 1765, "pitch": 64, "duration": 5, "velocity": 72}, {"time": 1771, "pitch": 67, "duration": 5, "velocity": 75}, {"time": 1777, "pitch": 49, "duration": 26, "velocity": 75}, {"time": 1777, "pitch": 64, "duration": 11, "velocity": 82}, {"time": 1777, "pitch": 67, "duration": 13, "velocity": 82}, {"time": 1783, "pitch": 61, "duration": 18, "velocity": 82}, {"time": 1789, "pitch": 62, "duration": 9, "velocity": 60}, {"time": 1795, "pitch": 64, "duration": 7, "velocity": 75}, {"time": 1801, "pitch": 67, "duration": 7, "velocity": 67}, {"time": 1807, "pitch": 72, "duration": 7, "velocity": 73}, {"time": 1813, "pitch": 50, "duration": 26, "velocity": 67}, {"time": 1813, "pitch": 65, "duration": 14, "velocity": 82}, {"time": 1813, "pitch": 69, "duration": 12, "velocity": 78}, {"time": 1819, "pitch": 57, "duration": 20, "velocity": 62}, {"time": 1825, "pitch": 62, "duration": 12, "velocity": 88}, {"time": 1831, "pitch": 64, "duration": 8, "velocity": 99}, {"time": 1837, "pitch": 65, "duration": 5, "velocity": 95}, {"time": 1843, "pitch": 67, "duration": 3, "velocity": 73}, {"time": 1849, "pitch": 43, "duration": 13, "velocity": 72}, {"time": 1849, "pitch": 62, "duration": 11, "velocity": 93}, {"time": 1849, "pitch": 67, "duration": 11, "velocity": 93}, {"time": 1849, "pitch": 71, "duration": 11, "velocity": 73}, {"time": 1855, "pitch": 50, "duration": 8, "velocity": 67}, {"time": 1861, "pitch": 55, "duration": 2, "velocity": 76}, {"time": 1867, "pitch": 41, "duration": 11, "velocity": 85}, {"time": 1867, "pitch": 60, "duration": 8, "velocity": 95}, {"time": 1867, "pitch": 65, "duration": 9, "velocity": 95}, {"time": 1867, "pitch": 69, "duration": 9, "velocity": 78}, {"time": 1873, "pitch": 53, "duration": 4, "velocity": 64}, {"time": 1879, "pitch": 60, "duration": 3, "velocity": 85}, {"time": 1885, "pitch": 40, "duration": 6, "velocity": 78}, {"time": 1885, "pitch": 62, "duration": 20, "velocity": 78}, {"time": 1885, "pitch": 64, "duration": 3, "velocity": 72}, {"time": 1885, "pitch": 67, "duration": 18, "velocity": 76}, {"time": 1885, "pitch": 71, "duration": 18, "velocity": 73}, {"time": 1891, "pitch": 52, "duration": 7, "velocity": 63}, {"time": 1897, "pitch": 55, "duration": 16, "velocity": 59}, {"time": 1903, "pitch": 59, "duration": 8, "velocity": 88}, {"time": 1909, "pitch": 62, "duration": 5, "velocity": 91}, {"time": 1915, "pitch": 67, "duration": 4, "velocity": 95}, {"time": 1921, "pitch": 45, "duration": 27, "velocity": 75}, {"time": 1921, "pitch": 60, "duration": 12, "velocity": 82}, {"time": 1921, "pitch": 64, "duration": 9, "velocity": 78}, {"time": 1927, "pitch": 52, "duration": 22, "velocity": 70}, {"time": 1933, "pitch": 57, "duration": 18, "velocity": 80}, {"time": 1939, "pitch": 59, "duration": 7, "velocity": 85}, {"time": 1945, "pitch": 60, "duration": 2, "velocity": 73}, {"time": 1951, "pitch": 65, "duration": 2, "velocity": 54}, {"time": 1954, "pitch": 67, "duration": 2, "velocity": 57}, {"time": 1957, "pitch": 41, "duration": 10, "velocity": 73}, {"time": 1957, "pitch": 60, "duration": 23, "velocity": 70}, {"time": 1957, "pitch": 65, "duration": 24, "velocity": 75}, {"time": 1957, "pitch": 69, "duration": 24, "velocity": 73}, {"time": 1960, "pitch": 72, "duration": 22, "velocity": 16}, {"time": 1963, "pitch": 48, "duration": 6, "velocity": 58}, {"time": 1969, "pitch": 53, "duration": 7, "velocity": 56}, {"time": 1975, "pitch": 55, "duration": 7, "velocity": 61}, {"time": 1981, "pitch": 57, "duration": 2, "velocity": 73}, {"time": 1987, "pitch": 60, "duration": 5, "velocity": 80}, {"time": 1993, "pitch": 41, "duration": 27, "velocity": 73}, {"time": 1993, "pitch": 60, "duration": 14, "velocity": 64}, {"time": 1993, "pitch": 65, "duration": 13, "velocity": 75}, {"time": 1993, "pitch": 69, "duration": 14, "velocity": 70}, {"time": 1999, "pitch": 48, "duration": 21, "velocity": 63}, {"time": 1999, "pitch": 72, "duration": 8, "velocity": 23}, {"time": 2005, "pitch": 53, "duration": 8, "velocity": 91}, {"time": 2011, "pitch": 60, "duration": 5, "velocity": 95}, {"time": 2011, "pitch": 65, "duration": 7, "velocity": 76}, {"time": 2011, "pitch": 69, "duration": 9, "velocity": 78}, {"time": 2017, "pitch": 53, "duration": 2, "velocity": 85}, {"time": 2029, "pitch": 40, "duration": 6, "velocity": 75}, {"time": 2029, "pitch": 64, "duration": 20, "velocity": 85}, {"time": 2029, "pitch": 69, "duration": 20, "velocity": 80}, {"time": 2029, "pitch": 71, "duration": 20, "velocity": 73}, {"time": 2035, "pitch": 52, "duration": 7, "velocity": 88}, {"time": 2041, "pitch": 57, "duration": 10, "velocity": 76}, {"time": 2047, "pitch": 59, "duration": 4, "velocity": 82}, {"time": 2053, "pitch": 64, "duration": 8, "velocity": 91}, {"time": 2059, "pitch": 69, "duration": 5, "velocity": 88}, {"time": 2065, "pitch": 40, "duration": 19, "velocity": 66}, {"time": 2065, "pitch": 52, "duration": 18, "velocity": 60}, {"time": 2065, "pitch": 56, "duration": 17, "velocity": 78}, {"time": 2065, "pitch": 59, "duration": 18, "velocity": 75}, {"time": 2065, "pitch": 64, "duration": 18, "velocity": 78}, {"time": 2101, "pitch": 57, "duration": 25, "velocity": 67}, {"time": 2101, "pitch": 69, "duration": 6, "velocity": 69}, {"time": 2107, "pitch": 61, "duration": 9, "velocity": 53}, {"time": 2113, "pitch": 64, "duration": 5, "velocity": 61}, {"time": 2119, "pitch": 71, "duration": 7, "velocity": 75}, {"time": 2125, "pitch": 61, "duration": 5, "velocity": 49}, {"time": 2131, "pitch": 64, "duration": 6, "velocity": 56}, {"time": 2137, "pitch": 49, "duration": 27, "velocity": 72}, {"time": 2137, "pitch": 68, "duration": 5, "velocity": 67}, {"time": 2143, "pitch": 59, "duration": 7, "velocity": 54}, {"time": 2149, "pitch": 64, "duration": 7, "velocity": 56}, {"time": 2155, "pitch": 56, "duration": 9, "velocity": 66}, {"time": 2155, "pitch": 68, "duration": 5, "velocity": 63}, {"time": 2161, "pitch": 61, "duration": 4, "velocity": 48}, {"time": 2167, "pitch": 64, "duration": 4, "velocity": 63}, {"time": 2173, "pitch": 54, "duration": 27, "velocity": 60}, {"time": 2173, "pitch": 69, "duration": 8, "velocity": 75}, {"time": 2179, "pitch": 57, "duration": 12, "velocity": 64}, {"time": 2185, "pitch": 61, "duration": 5, "velocity": 56}, {"time": 2191, "pitch": 66, "duration": 7, "velocity": 63}, {"time": 2197, "pitch": 57, "duration": 3, "velocity": 62}, {"time": 2203, "pitch": 61, "duration": 6, "velocity": 56}, {"time": 2209, "pitch": 49, "duration": 26, "velocity": 70}, {"time": 2209, "pitch": 64, "duration": 8, "velocity": 75}, {"time": 2209, "pitch": 68, "duration": 8, "velocity": 70}, {"time": 2215, "pitch": 56, "duration": 21, "velocity": 70}, {"time": 2221, "pitch": 61, "duration": 5, "velocity": 52}, {"time": 2227, "pitch": 64, "duration": 6, "velocity": 72}, {"time": 2233, "pitch": 66, "duration": 5, "velocity": 72}, {"time": 2239, "pitch": 68, "duration": 5, "velocity": 73}, {"time": 2245, "pitch": 54, "duration": 27, "velocity": 62}, {"time": 2245, "pitch": 61, "duration": 8, "velocity": 67}, {"time": 2245, "pitch": 64, "duration": 9, "velocity": 70}, {"time": 2245, "pitch": 69, "duration": 8, "velocity": 82}, {"time": 2251, "pitch": 57, "duration": 11, "velocity": 60}, {"time": 2257, "pitch": 61, "duration": 8, "velocity": 53}, {"time": 2263, "pitch": 69, "duration": 8, "velocity": 72}, {"time": 2269, "pitch": 57, "duration": 3, "velocity": 66}, {"time": 2275, "pitch": 68, "duration": 6, "velocity": 47}, {"time": 2281, "pitch": 49, "duration": 10, "velocity": 69}, {"time": 2281, "pitch": 59, "duration": 6, "velocity": 69}, {"time": 2281, "pitch": 64, "duration": 8, "velocity": 72}, {"time": 2281, "pitch": 68, "duration": 7, "velocity": 75}, {"time": 2287, "pitch": 54, "duration": 3, "velocity": 61}, {"time": 2293, "pitch": 66, "duration": 2, "velocity": 58}, {"time": 2293, "pitch": 68, "duration": 5, "velocity": 63}, {"time": 2299, "pitch": 42, "duration": 12, "velocity": 72}, {"time": 2299, "pitch": 61, "duration": 11, "velocity": 72}, {"time": 2299, "pitch": 64, "duration": 11, "velocity": 75}, {"time": 2299, "pitch": 69, "duration": 13, "velocity": 75}, {"time": 2305, "pitch": 49, "duration": 7, "velocity": 59}, {"time": 2311, "pitch": 54, "duration": 6, "velocity": 61}, {"time": 2317, "pitch": 47, "duration": 26, "velocity": 69}, {"time": 2317, "pitch": 57, "duration": 5, "velocity": 75}, {"time": 2317, "pitch": 62, "duration": 11, "velocity": 78}, {"time": 2317, "pitch": 66, "duration": 11, "velocity": 75}, {"time": 2323, "pitch": 54, "duration": 19, "velocity": 63}, {"time": 2329, "pitch": 59, "duration": 11, "velocity": 78}, {"time": 2335, "pitch": 61, "duration": 5, "velocity": 63}, {"time": 2341, "pitch": 61, "duration": 1, "velocity": 40}, {"time": 2341, "pitch": 62, "duration": 6, "velocity": 73}, {"time": 2347, "pitch": 66, "duration": 5, "velocity": 53}, {"time": 2353, "pitch": 40, "duration": 28, "velocity": 75}, {"time": 2353, "pitch": 59, "duration": 8, "velocity": 70}, {"time": 2353, "pitch": 64, "duration": 9, "velocity": 64}, {"time": 2353, "pitch": 68, "duration": 9, "velocity": 66}, {"time": 2365, "pitch": 47, "duration": 15, "velocity": 59}, {"time": 2371, "pitch": 52, "duration": 10, "velocity": 44}, {"time": 2371, "pitch": 66, "duration": 12, "velocity": 61}, {"time": 2371, "pitch": 78, "duration": 11, "velocity": 45}, {"time": 2389, "pitch": 45, "duration": 9, "velocity": 67}, {"time": 2389, "pitch": 81, "duration": 17, "velocity": 67}, {"time": 2395, "pitch": 52, "duration": 5, "velocity": 56}, {"time": 2401, "pitch": 57, "duration": 6, "velocity": 52}, {"time": 2407, "pitch": 59, "duration": 9, "velocity": 57}, {"time": 2407, "pitch": 76, "duration": 4, "velocity": 72}, {"time": 2413, "pitch": 61, "duration": 3, "velocity": 69}, {"time": 2419, "pitch": 71, "duration": 5, "velocity": 72}, {"time": 2425, "pitch": 49, "duration": 23, "velocity": 69}, {"time": 2425, "pitch": 68, "duration": 8, "velocity": 76}, {"time": 2431, "pitch": 56, "duration": 11, "velocity": 60}, {"time": 2437, "pitch": 61, "duration": 8, "velocity": 76}, {"time": 2443, "pitch": 64, "duration": 7, "velocity": 85}, {"time": 2449, "pitch": 66, "duration": 4, "velocity": 69}, {"time": 2455, "pitch": 68, "duration": 5, "velocity": 64}, {"time": 2461, "pitch": 42, "duration": 10, "velocity": 75}, {"time": 2461, "pitch": 61, "duration": 16, "velocity": 85}, {"time": 2461, "pitch": 69, "duration": 13, "velocity": 78}, {"time": 2467, "pitch": 49, "duration": 5, "velocity": 57}, {"time": 2473, "pitch": 54, "duration": 7, "velocity": 63}, {"time": 2473, "pitch": 68, "duration": 7, "velocity": 70}, {"time": 2479, "pitch": 56, "duration": 11, "velocity": 64}, {"time": 2479, "pitch": 61, "duration": 6, "velocity": 70}, {"time": 2479, "pitch": 66, "duration": 7, "velocity": 72}, {"time": 2485, "pitch": 57, "duration": 4, "velocity": 67}, {"time": 2491, "pitch": 61, "duration": 4, "velocity": 63}, {"time": 2497, "pitch": 49, "duration": 25, "velocity": 75}, {"time": 2497, "pitch": 59, "duration": 8, "velocity": 76}, {"time": 2497, "pitch": 64, "duration": 8, "velocity": 70}, {"time": 2503, "pitch": 56, "duration": 12, "velocity": 67}, {"time": 2509, "pitch": 59, "duration": 6, "velocity": 56}, {"time": 2515, "pitch": 64, "duration": 7, "velocity": 88}, {"time": 2518, "pitch": 56, "duration": 3, "velocity": 75}, {"time": 2521, "pitch": 66, "duration": 5, "velocity": 80}, {"time": 2527, "pitch": 68, "duration": 5, "velocity": 67}, {"time": 2533, "pitch": 42, "duration": 14, "velocity": 75}, {"time": 2533, "pitch": 61, "duration": 11, "velocity": 72}, {"time": 2533, "pitch": 66, "duration": 12, "velocity": 73}, {"time": 2533, "pitch": 69, "duration": 11, "velocity": 82}, {"time": 2539, "pitch": 49, "duration": 8, "velocity": 69}, {"time": 2545, "pitch": 54, "duration": 13, "velocity": 69}, {"time": 2551, "pitch": 61, "duration": 10, "velocity": 80}, {"time": 2557, "pitch": 56, "duration": 8, "velocity": 63}, {"time": 2563, "pitch": 57, "duration": 5, "velocity": 78}, {"time": 2569, "pitch": 49, "duration": 8, "velocity": 72}, {"time": 2569, "pitch": 59, "duration": 7, "velocity": 73}, {"time": 2569, "pitch": 64, "duration": 7, "velocity": 72}, {"time": 2569, "pitch": 68, "duration": 8, "velocity": 61}, {"time": 2575, "pitch": 56, "duration": 2, "velocity": 63}, {"time": 2581, "pitch": 59, "duration": 3, "velocity": 60}, {"time": 2587, "pitch": 42, "duration": 11, "velocity": 75}, {"time": 2587, "pitch": 61, "duration": 4, "velocity": 80}, {"time": 2587, "pitch": 69, "duration": 5, "velocity": 76}, {"time": 2593, "pitch": 49, "duration": 6, "velocity": 63}, {"time": 2599, "pitch": 54, "duration": 6, "velocity": 64}, {"time": 2599, "pitch": 73, "duration": 5, "velocity": 48}, {"time": 2599, "pitch": 74, "duration": 1, "velocity": 64}, {"time": 2605, "pitch": 47, "duration": 13, "velocity": 72}, {"time": 2605, "pitch": 66, "duration": 10, "velocity": 76}, {"time": 2605, "pitch": 71, "duration": 11, "velocity": 69}, {"time": 2605, "pitch": 74, "duration": 14, "velocity": 70}, {"time": 2611, "pitch": 54, "duration": 8, "velocity": 69}, {"time": 2617, "pitch": 59, "duration": 1, "velocity": 82}, {"time": 2623, "pitch": 40, "duration": 12, "velocity": 78}, {"time": 2623, "pitch": 64, "duration": 8, "velocity": 69}, {"time": 2623, "pitch": 69, "duration": 7, "velocity": 70}, {"time": 2629, "pitch": 47, "duration": 7, "velocity": 70}, {"time": 2635, "pitch": 52, "duration": 5, "velocity": 76}, {"time": 2641, "pitch": 45, "duration": 25, "velocity": 70}, {"time": 2647, "pitch": 52, "duration": 21, "velocity": 70}, {"time": 2653, "pitch": 57, "duration": 14, "velocity": 93}, {"time": 2659, "pitch": 59, "duration": 5, "velocity": 66}, {"time": 2665, "pitch": 61, "duration": 3, "velocity": 66}, {"time": 2671, "pitch": 64, "duration": 3, "velocity": 75}, {"time": 2677, "pitch": 42, "duration": 11, "velocity": 70}, {"time": 2677, "pitch": 61, "duration": 10, "velocity": 78}, {"time": 2677, "pitch": 69, "duration": 13, "velocity": 80}, {"time": 2683, "pitch": 49, "duration": 6, "velocity": 60}, {"time": 2689, "pitch": 54, "duration": 7, "velocity": 73}, {"time": 2689, "pitch": 61, "duration": 13, "velocity": 78}, {"time": 2689, "pitch": 68, "duration": 14, "velocity": 70}, {"time": 2695, "pitch": 56, "duration": 9, "velocity": 54}, {"time": 2701, "pitch": 57, "duration": 2, "velocity": 75}, {"time": 2707, "pitch": 66, "duration": 5, "velocity": 78}, {"time": 2713, "pitch": 49, "duration": 26, "velocity": 67}, {"time": 2713, "pitch": 59, "duration": 8, "velocity": 91}, {"time": 2713, "pitch": 64, "duration": 9, "velocity": 88}, {"time": 2719, "pitch": 56, "duration": 13, "velocity": 53}, {"time": 2725, "pitch": 59, "duration": 5, "velocity": 61}, {"time": 2731, "pitch": 64, "duration": 7, "velocity": 82}, {"time": 2737, "pitch": 56, "duration": 2, "velocity": 69}, {"time": 2737, "pitch": 66, "duration": 6, "velocity": 73}, {"time": 2743, "pitch": 69, "duration": 6, "velocity": 62}, {"time": 2749, "pitch": 49, "duration": 18, "velocity": 67}, {"time": 2749, "pitch": 61, "duration": 9, "velocity": 73}, {"time": 2749, "pitch": 65, "duration": 9, "velocity": 95}, {"time": 2749, "pitch": 68, "duration": 9, "velocity": 78}, {"time": 2755, "pitch": 56, "duration": 14, "velocity": 64}, {"time": 2761, "pitch": 61, "duration": 7, "velocity": 76}, {"time": 2761, "pitch": 66, "duration": 8, "velocity": 72}, {"time": 2767, "pitch": 53, "duration": 9, "velocity": 82}, {"time": 2773, "pitch": 68, "duration": 7, "velocity": 101}, {"time": 2779, "pitch": 69, "duration": 3, "velocity": 72}, {"time": 2785, "pitch": 42, "duration": 11, "velocity": 72}, {"time": 2785, "pitch": 61, "duration": 25, "velocity": 73}, {"time": 2785, "pitch": 69, "duration": 25, "velocity": 78}, {"time": 2791, "pitch": 49, "duration": 6, "velocity": 63}, {"time": 2797, "pitch": 54, "duration": 7, "velocity": 52}, {"time": 2803, "pitch": 56, "duration": 8, "velocity": 62}, {"time": 2809, "pitch": 57, "duration": 3, "velocity": 75}, {"time": 2815, "pitch": 66, "duration": 4, "velocity": 88}, {"time": 2821, "pitch": 50, "duration": 27, "velocity": 67}, {"time": 2821, "pitch": 57, "duration": 8, "velocity": 80}, {"time": 2821, "pitch": 62, "duration": 8, "velocity": 75}, {"time": 2821, "pitch": 66, "duration": 8, "velocity": 64}, {"time": 2827, "pitch": 54, "duration": 14, "velocity": 62}, {"time": 2833, "pitch": 57, "duration": 5, "velocity": 82}, {"time": 2839, "pitch": 57, "duration": 7, "velocity": 75}, {"time": 2839, "pitch": 62, "duration": 7, "velocity": 82}, {"time": 2839, "pitch": 66, "duration": 8, "velocity": 75}, {"time": 2845, "pitch": 54, "duration": 3, "velocity": 69}, {"time": 2851, "pitch": 57, "duration": 3, "velocity": 80}, {"time": 2857, "pitch": 49, "duration": 10, "velocity": 63}, {"time": 2857, "pitch": 61, "duration": 8, "velocity": 69}, {"time": 2857, "pitch": 64, "duration": 9, "velocity": 78}, {"time": 2857, "pitch": 68, "duration": 10, "velocity": 75}, {"time": 2863, "pitch": 56, "duration": 4, "velocity": 57}, {"time": 2869, "pitch": 66, "duration": 17, "velocity": 66}, {"time": 2872, "pitch": 68, "duration": 2, "velocity": 67}, {"time": 2875, "pitch": 42, "duration": 12, "velocity": 69}, {"time": 2875, "pitch": 61, "duration": 12, "velocity": 67}, {"time": 2875, "pitch": 69, "duration": 13, "velocity": 78}, {"time": 2881, "pitch": 49, "duration": 7, "velocity": 53}, {"time": 2887, "pitch": 54, "duration": 4, "velocity": 72}, {"time": 2893, "pitch": 47, "duration": 29, "velocity": 82}, {"time": 2893, "pitch": 59, "duration": 9, "velocity": 73}, {"time": 2893, "pitch": 62, "duration": 18, "velocity": 79}, {"time": 2893, "pitch": 66, "duration": 23, "velocity": 78}, {"time": 2896, "pitch": 69, "duration": 21, "velocity": 4}, {"time": 2899, "pitch": 54, "duration": 23, "velocity": 72}, {"time": 2905, "pitch": 59, "duration": 15, "velocity": 75}, {"time": 2911, "pitch": 61, "duration": 13, "velocity": 70}, {"time": 2917, "pitch": 62, "duration": 6, "velocity": 80}, {"time": 2923, "pitch": 69, "duration": 7, "velocity": 83}, {"time": 2929, "pitch": 40, "duration": 33, "velocity": 74}, {"time": 2929, "pitch": 59, "duration": 14, "velocity": 73}, {"time": 2929, "pitch": 64, "duration": 14, "velocity": 68}, {"time": 2929, "pitch": 68, "duration": 15, "velocity": 90}, {"time": 2935, "pitch": 47, "duration": 26, "velocity": 76}, {"time": 2941, "pitch": 52, "duration": 22, "velocity": 76}, {"time": 2947, "pitch": 64, "duration": 3, "velocity": 84}, {"time": 2949, "pitch": 66, "duration": 2, "velocity": 82}, {"time": 2951, "pitch": 68, "duration": 1, "velocity": 84}, {"time": 2953, "pitch": 69, "duration": 3, "velocity": 95}, {"time": 2955, "pitch": 71, "duration": 3, "velocity": 90}, {"time": 2957, "pitch": 73, "duration": 1, "velocity": 90}, {"time": 2959, "pitch": 74, "duration": 3, "velocity": 86}, {"time": 2961, "pitch": 76, "duration": 4, "velocity": 80}, {"time": 2963, "pitch": 78, "duration": 2, "velocity": 80}, {"time": 2965, "pitch": 45, "duration": 10, "velocity": 67}, {"time": 2965, "pitch": 76, "duration": 8, "velocity": 85}, {"time": 2965, "pitch": 81, "duration": 9, "velocity": 90}, {"time": 2971, "pitch": 52, "duration": 5, "velocity": 64}, {"time": 2971, "pitch": 64, "duration": 8, "velocity": 58}, {"time": 2977, "pitch": 57, "duration": 6, "velocity": 50}, {"time": 2977, "pitch": 69, "duration": 5, "velocity": 66}, {"time": 2983, "pitch": 59, "duration": 8, "velocity": 50}, {"time": 2983, "pitch": 71, "duration": 8, "velocity": 70}, {"time": 2989, "pitch": 61, "duration": 2, "velocity": 73}, {"time": 2995, "pitch": 64, "duration": 8, "velocity": 85}, {"time": 3001, "pitch": 49, "duration": 25, "velocity": 73}, {"time": 3001, "pitch": 71, "duration": 10, "velocity": 82}, {"time": 3007, "pitch": 56, "duration": 19, "velocity": 56}, {"time": 3013, "pitch": 68, "duration": 7, "velocity": 82}, {"time": 3019, "pitch": 61, "duration": 6, "velocity": 76}, {"time": 3019, "pitch": 64, "duration": 7, "velocity": 64}, {"time": 3025, "pitch": 68, "duration": 4, "velocity": 73}, {"time": 3031, "pitch": 69, "duration": 23, "velocity": 70}, {"time": 3037, "pitch": 42, "duration": 11, "velocity": 47}, {"time": 3037, "pitch": 64, "duration": 11, "velocity": 66}, {"time": 3037, "pitch": 73, "duration": 18, "velocity": 72}, {"time": 3043, "pitch": 49, "duration": 6, "velocity": 66}, {"time": 3049, "pitch": 54, "duration": 9, "velocity": 76}, {"time": 3055, "pitch": 56, "duration": 8, "velocity": 59}, {"time": 3055, "pitch": 64, "duration": 9, "velocity": 76}, {"time": 3055, "pitch": 71, "duration": 3, "velocity": 78}, {"time": 3061, "pitch": 57, "duration": 3, "velocity": 66}, {"time": 3067, "pitch": 69, "duration": 4, "velocity": 73}, {"time": 3073, "pitch": 49, "duration": 26, "velocity": 69}, {"time": 3073, "pitch": 59, "duration": 9, "velocity": 70}, {"time": 3073, "pitch": 64, "duration": 8, "velocity": 72}, {"time": 3073, "pitch": 68, "duration": 8, "velocity": 73}, {"time": 3079, "pitch": 56, "duration": 13, "velocity": 69}, {"time": 3085, "pitch": 59, "duration": 3, "velocity": 37}, {"time": 3091, "pitch": 59, "duration": 7, "velocity": 78}, {"time": 3091, "pitch": 64, "duration": 4, "velocity": 78}, {"time": 3091, "pitch": 68, "duration": 5, "velocity": 76}, {"time": 3097, "pitch": 56, "duration": 2, "velocity": 78}, {"time": 3103, "pitch": 64, "duration": 4, "velocity": 76}, {"time": 3109, "pitch": 42, "duration": 26, "velocity": 67}, {"time": 3109, "pitch": 59, "duration": 11, "velocity": 80}, {"time": 3109, "pitch": 68, "duration": 11, "velocity": 76}, {"time": 3115, "pitch": 49, "duration": 20, "velocity": 63}, {"time": 3121, "pitch": 54, "duration": 6, "velocity": 78}, {"time": 3127, "pitch": 61, "duration": 8, "velocity": 88}, {"time": 3127, "pitch": 69, "duration": 8, "velocity": 75}, {"time": 3133, "pitch": 54, "duration": 3, "velocity": 72}, {"time": 3139, "pitch": 66, "duration": 5, "velocity": 82}, {"time": 3145, "pitch": 49, "duration": 7, "velocity": 76}, {"time": 3145, "pitch": 61, "duration": 6, "velocity": 80}, {"time": 3145, "pitch": 64, "duration": 7, "velocity": 85}, {"time": 3145, "pitch": 68, "duration": 7, "velocity": 75}, {"time": 3151, "pitch": 56, "duration": 2, "velocity": 70}, {"time": 3157, "pitch": 66, "duration": 12, "velocity": 63}, {"time": 3160, "pitch": 68, "duration": 2, "velocity": 59}, {"time": 3163, "pitch": 42, "duration": 11, "velocity": 70}, {"time": 3163, "pitch": 61, "duration": 7, "velocity": 67}, {"time": 3163, "pitch": 69, "duration": 14, "velocity": 62}, {"time": 3169, "pitch": 49, "duration": 7, "velocity": 55}, {"time": 3175, "pitch": 54, "duration": 6, "velocity": 82}, {"time": 3181, "pitch": 47, "duration": 11, "velocity": 75}, {"time": 3181, "pitch": 57, "duration": 8, "velocity": 78}, {"time": 3181, "pitch": 62, "duration": 9, "velocity": 76}, {"time": 3181, "pitch": 66, "duration": 9, "velocity": 75}, {"time": 3187, "pitch": 54, "duration": 5, "velocity": 72}, {"time": 3193, "pitch": 57, "duration": 3, "velocity": 72}, {"time": 3199, "pitch": 40, "duration": 9, "velocity": 75}, {"time": 3199, "pitch": 59, "duration": 9, "velocity": 91}, {"time": 3199, "pitch": 64, "duration": 10, "velocity": 78}, {"time": 3199, "pitch": 68, "duration": 6, "velocity": 75}, {"time": 3205, "pitch": 47, "duration": 6, "velocity": 69}, {"time": 3211, "pitch": 52, "duration": 5, "velocity": 62}, {"time": 3217, "pitch": 45, "duration": 30, "velocity": 69}, {"time": 3217, "pitch": 61, "duration": 10, "velocity": 78}, {"time": 3217, "pitch": 64, "duration": 10, "velocity": 76}, {"time": 3217, "pitch": 69, "duration": 11, "velocity": 75}, {"time": 3223, "pitch": 52, "duration": 42, "velocity": 63}, {"time": 3229, "pitch": 57, "duration": 19, "velocity": 85}, {"time": 3235, "pitch": 59, "duration": 7, "velocity": 76}, {"time": 3241, "pitch": 61, "duration": 5, "velocity": 67}, {"time": 3247, "pitch": 64, "duration": 4, "velocity": 57}, {"time": 3253, "pitch": 42, "duration": 11, "velocity": 70}, {"time": 3253, "pitch": 61, "duration": 10, "velocity": 78}, {"time": 3253, "pitch": 69, "duration": 13, "velocity": 80}, {"time": 3259, "pitch": 49, "duration": 6, "velocity": 60}, {"time": 3265, "pitch": 54, "duration": 7, "velocity": 73}, {"time": 3265, "pitch": 61, "duration": 13, "velocity": 78}, {"time": 3265, "pitch": 68, "duration": 14, "velocity": 70}, {"time": 3271, "pitch": 56, "duration": 9, "velocity": 54}, {"time": 3277, "pitch": 57, "duration": 2, "velocity": 75}, {"time": 3283, "pitch": 66, "duration": 5, "velocity": 78}, {"time": 3289, "pitch": 49, "duration": 26, "velocity": 67}, {"time": 3289, "pitch": 59, "duration": 8, "velocity": 91}, {"time": 3289, "pitch": 64, "duration": 9, "velocity": 88}, {"time": 3295, "pitch": 56, "duration": 13, "velocity": 53}, {"time": 3301, "pitch": 59, "duration": 5, "velocity": 61}, {"time": 3307, "pitch": 64, "duration": 7, "velocity": 82}, {"time": 3313, "pitch": 56, "duration": 2, "velocity": 69}, {"time": 3313, "pitch": 66, "duration": 6, "velocity": 73}, {"time": 3319, "pitch": 69, "duration": 6, "velocity": 62}, {"time": 3325, "pitch": 49, "duration": 18, "velocity": 67}, {"time": 3325, "pitch": 61, "duration": 9, "velocity": 73}, {"time": 3325, "pitch": 65, "duration": 9, "velocity": 95}, {"time": 3325, "pitch": 68, "duration": 9, "velocity": 78}, {"time": 3331, "pitch": 56, "duration": 14, "velocity": 64}, {"time": 3337, "pitch": 61, "duration": 7, "velocity": 76}, {"time": 3337, "pitch": 66, "duration": 8, "velocity": 72}, {"time": 3343, "pitch": 53, "duration": 9, "velocity": 82}, {"time": 3349, "pitch": 68, "duration": 7, "velocity": 101}, {"time": 3355, "pitch": 69, "duration": 3, "velocity": 72}, {"time": 3361, "pitch": 42, "duration": 11, "velocity": 72}, {"time": 3361, "pitch": 61, "duration": 25, "velocity": 73}, {"time": 3361, "pitch": 69, "duration": 25, "velocity": 78}, {"time": 3367, "pitch": 49, "duration": 6, "velocity": 63}, {"time": 3373, "pitch": 54, "duration": 7, "velocity": 52}, {"time": 3379, "pitch": 56, "duration": 8, "velocity": 62}, {"time": 3385, "pitch": 57, "duration": 3, "velocity": 75}, {"time": 3391, "pitch": 66, "duration": 4, "velocity": 88}, {"time": 3397, "pitch": 50, "duration": 27, "velocity": 67}, {"time": 3397, "pitch": 57, "duration": 8, "velocity": 80}, {"time": 3397, "pitch": 62, "duration": 8, "velocity": 75}, {"time": 3397, "pitch": 66, "duration": 8, "velocity": 64}, {"time": 3403, "pitch": 54, "duration": 14, "velocity": 62}, {"time": 3409, "pitch": 57, "duration": 5, "velocity": 82}, {"time": 3415, "pitch": 57, "duration": 7, "velocity": 75}, {"time": 3415, "pitch": 62, "duration": 7, "velocity": 82}, {"time": 3415, "pitch": 66, "duration": 8, "velocity": 75}, {"time": 3421, "pitch": 54, "duration": 3, "velocity": 69}, {"time": 3427, "pitch": 57, "duration": 3, "velocity": 80}, {"time": 3433, "pitch": 49, "duration": 10, "velocity": 63}, {"time": 3433, "pitch": 61, "duration": 8, "velocity": 69}, {"time": 3433, "pitch": 64, "duration": 9, "velocity": 78}, {"time": 3433, "pitch": 68, "duration": 10, "velocity": 75}, {"time": 3439, "pitch": 56, "duration": 4, "velocity": 57}, {"time": 3445, "pitch": 66, "duration": 17, "velocity": 66}, {"time": 3448, "pitch": 68, "duration": 2, "velocity": 67}, {"time": 3451, "pitch": 42, "duration": 12, "velocity": 69}, {"time": 3451, "pitch": 61, "duration": 12, "velocity": 67}, {"time": 3451, "pitch": 69, "duration": 13, "velocity": 78}, {"time": 3457, "pitch": 49, "duration": 7, "velocity": 53}, {"time": 3463, "pitch": 54, "duration": 4, "velocity": 72}, {"time": 3469, "pitch": 47, "duration": 29, "velocity": 82}, {"time": 3469, "pitch": 59, "duration": 9, "velocity": 73}, {"time": 3469, "pitch": 62, "duration": 18, "velocity": 79}, {"time": 3469, "pitch": 66, "duration": 23, "velocity": 78}, {"time": 3472, "pitch": 69, "duration": 21, "velocity": 4}, {"time": 3475, "pitch": 54, "duration": 23, "velocity": 72}, {"time": 3481, "pitch": 59, "duration": 15, "velocity": 75}, {"time": 3487, "pitch": 61, "duration": 13, "velocity": 70}, {"time": 3493, "pitch": 62, "duration": 6, "velocity": 80}, {"time": 3499, "pitch": 69, "duration": 7, "velocity": 83}, {"time": 3505, "pitch": 40, "duration": 33, "velocity": 74}, {"time": 3505, "pitch": 59, "duration": 14, "velocity": 73}, {"time": 3505, "pitch": 64, "duration": 14, "velocity": 68}, {"time": 3505, "pitch": 68, "duration": 15, "velocity": 90}, {"time": 3511, "pitch": 47, "duration": 26, "velocity": 76}, {"time": 3517, "pitch": 52, "duration": 22, "velocity": 76}, {"time": 3523, "pitch": 64, "duration": 3, "velocity": 84}, {"time": 3525, "pitch": 66, "duration": 2, "velocity": 82}, {"time": 3527, "pitch": 68, "duration": 1, "velocity": 84}, {"time": 3529, "pitch": 69, "duration": 3, "velocity": 95}, {"time": 3531, "pitch": 71, "duration": 3, "velocity": 90}, {"time": 3533, "pitch": 73, "duration": 1, "velocity": 90}, {"time": 3535, "pitch": 74, "duration": 3, "velocity": 86}, {"time": 3537, "pitch": 76, "duration": 4, "velocity": 80}, {"time": 3539, "pitch": 78, "duration": 2, "velocity": 80}, {"time": 3541, "pitch": 45, "duration": 10, "velocity": 67}, {"time": 3541, "pitch": 76, "duration": 8, "velocity": 85}, {"time": 3541, "pitch": 81, "duration": 9, "velocity": 90}, {"time": 3547, "pitch": 52, "duration": 5, "velocity": 64}, {"time": 3547, "pitch": 64, "duration": 8, "velocity": 58}, {"time": 3553, "pitch": 57, "duration": 6, "velocity": 50}, {"time": 3553, "pitch": 69, "duration": 5, "velocity": 66}, {"time": 3559, "pitch": 59, "duration": 8, "velocity": 50}, {"time": 3559, "pitch": 71, "duration": 8, "velocity": 70}, {"time": 3565, "pitch": 61, "duration": 2, "velocity": 73}, {"time": 3571, "pitch": 64, "duration": 8, "velocity": 85}, {"time": 3577, "pitch": 49, "duration": 25, "velocity": 73}, {"time": 3577, "pitch": 71, "duration": 10, "velocity": 82}, {"time": 3583, "pitch": 56, "duration": 19, "velocity": 56}, {"time": 3589, "pitch": 68, "duration": 7, "velocity": 82}, {"time": 3595, "pitch": 61, "duration": 6, "velocity": 76}, {"time": 3595, "pitch": 64, "duration": 7, "velocity": 64}, {"time": 3601, "pitch": 68, "duration": 4, "velocity": 73}, {"time": 3607, "pitch": 69, "duration": 23, "velocity": 70}, {"time": 3613, "pitch": 42, "duration": 11, "velocity": 47}, {"time": 3613, "pitch": 64, "duration": 11, "velocity": 66}, {"time": 3613, "pitch": 73, "duration": 18, "velocity": 72}, {"time": 3619, "pitch": 49, "duration": 6, "velocity": 66}, {"time": 3625, "pitch": 54, "duration": 9, "velocity": 76}, {"time": 3631, "pitch": 56, "duration": 8, "velocity": 59}, {"time": 3631, "pitch": 64, "duration": 9, "velocity": 76}, {"time": 3631, "pitch": 71, "duration": 3, "velocity": 78}, {"time": 3637, "pitch": 57, "duration": 3, "velocity": 66}, {"time": 3643, "pitch": 69, "duration": 4, "velocity": 73}, {"time": 3649, "pitch": 49, "duration": 26, "velocity": 69}, {"time": 3649, "pitch": 59, "duration": 9, "velocity": 70}, {"time": 3649, "pitch": 64, "duration": 8, "velocity": 72}, {"time": 3649, "pitch": 68, "duration": 8, "velocity": 73}, {"time": 3655, "pitch": 56, "duration": 13, "velocity": 69}, {"time": 3661, "pitch": 59, "duration": 3, "velocity": 37}, {"time": 3667, "pitch": 59, "duration": 7, "velocity": 78}, {"time": 3667, "pitch": 64, "duration": 4, "velocity": 78}, {"time": 3667, "pitch": 68, "duration": 5, "velocity": 76}, {"time": 3673, "pitch": 56, "duration": 2, "velocity": 78}, {"time": 3679, "pitch": 64, "duration": 4, "velocity": 76}, {"time": 3685, "pitch": 42, "duration": 26, "velocity": 67}, {"time": 3685, "pitch": 59, "duration": 11, "velocity": 80}, {"time": 3685, "pitch": 68, "duration": 11, "velocity": 76}, {"time": 3691, "pitch": 49, "duration": 20, "velocity": 63}, {"time": 3697, "pitch": 54, "duration": 6, "velocity": 78}, {"time": 3703, "pitch": 61, "duration": 8, "velocity": 88}, {"time": 3703, "pitch": 69, "duration": 8, "velocity": 75}, {"time": 3709, "pitch": 54, "duration": 3, "velocity": 72}, {"time": 3715, "pitch": 66, "duration": 5, "velocity": 82}, {"time": 3721, "pitch": 49, "duration": 7, "velocity": 76}, {"time": 3721, "pitch": 61, "duration": 6, "velocity": 80}, {"time": 3721, "pitch": 64, "duration": 7, "velocity": 85}, {"time": 3721, "pitch": 68, "duration": 7, "velocity": 75}, {"time": 3727, "pitch": 56, "duration": 2, "velocity": 70}, {"time": 3733, "pitch": 66, "duration": 12, "velocity": 63}, {"time": 3736, "pitch": 68, "duration": 2, "velocity": 59}, {"time": 3739, "pitch": 42, "duration": 11, "velocity": 70}, {"time": 3739, "pitch": 61, "duration": 7, "velocity": 67}, {"time": 3739, "pitch": 69, "duration": 14, "velocity": 62}, {"time": 3745, "pitch": 49, "duration": 7, "velocity": 55}, {"time": 3751, "pitch": 54, "duration": 6, "velocity": 82}, {"time": 3757, "pitch": 47, "duration": 11, "velocity": 75}, {"time": 3757, "pitch": 57, "duration": 8, "velocity": 78}, {"time": 3757, "pitch": 62, "duration": 9, "velocity": 76}, {"time": 3757, "pitch": 66, "duration": 9, "velocity": 75}, {"time": 3763, "pitch": 54, "duration": 5, "velocity": 72}, {"time": 3769, "pitch": 57, "duration": 3, "velocity": 72}, {"time": 3775, "pitch": 40, "duration": 9, "velocity": 75}, {"time": 3775, "pitch": 59, "duration": 9, "velocity": 91}, {"time": 3775, "pitch": 64, "duration": 10, "velocity": 78}, {"time": 3775, "pitch": 68, "duration": 6, "velocity": 75}, {"time": 3781, "pitch": 47, "duration": 6, "velocity": 69}, {"time": 3787, "pitch": 52, "duration": 5, "velocity": 62}, {"time": 3793, "pitch": 45, "duration": 30, "velocity": 69}, {"time": 3793, "pitch": 61, "duration": 10, "velocity": 78}, {"time": 3793, "pitch": 64, "duration": 10, "velocity": 76}, {"time": 3793, "pitch": 69, "duration": 11, "velocity": 75}, {"time": 3799, "pitch": 52, "duration": 42, "velocity": 63}, {"time": 3805, "pitch": 57, "duration": 19, "velocity": 85}, {"time": 3811, "pitch": 59, "duration": 7, "velocity": 76}, {"time": 3817, "pitch": 61, "duration": 5, "velocity": 67}, {"time": 3823, "pitch": 64, "duration": 4, "velocity": 57}, {"time": 3829, "pitch": 45, "duration": 23, "velocity": 66}, {"time": 3829, "pitch": 57, "duration": 23, "velocity": 57}, {"time": 3829, "pitch": 61, "duration": 23, "velocity": 63}, {"time": 3829, "pitch": 64, "duration": 22, "velocity": 66}, {"time": 3829, "pitch": 69, "duration": 22, "velocity": 64}, {"time": 3865, "pitch": 49, "duration": 21, "velocity": 56}, {"time": 3865, "pitch": 56, "duration": 20, "velocity": 63}, {"time": 3865, "pitch": 59, "duration": 18, "velocity": 57}, {"time": 3865, "pitch": 64, "duration": 17, "velocity": 62}, {"time": 3865, "pitch": 68, "duration": 18, "velocity": 57}, {"time": 3865, "pitch": 71, "duration": 17, "velocity": 33}, {"time": 3904, "pitch": 54, "duration": 26, "velocity": 55}, {"time": 3904, "pitch": 61, "duration": 12, "velocity": 67}, {"time": 3904, "pitch": 66, "duration": 16, "velocity": 60}, {"time": 3904, "pitch": 69, "duration": 15, "velocity": 67}, {"time": 3904, "pitch": 73, "duration": 17, "velocity": 67}, {"time": 3922, "pitch": 61, "duration": 8, "velocity": 48}, {"time": 3940, "pitch": 49, "duration": 26, "velocity": 49}, {"time": 3940, "pitch": 56, "duration": 24, "velocity": 55}, {"time": 3940, "pitch": 59, "duration": 15, "velocity": 61}, {"time": 3940, "pitch": 64, "duration": 13, "velocity": 62}, {"time": 3940, "pitch": 68, "duration": 15, "velocity": 64}, {"time": 3964, "pitch": 66, "duration": 5, "velocity": 58}, {"time": 3970, "pitch": 68, "duration": 5, "velocity": 51}, {"time": 3976, "pitch": 54, "duration": 20, "velocity": 62}, {"time": 3976, "pitch": 61, "duration": 21, "velocity": 60}, {"time": 3976, "pitch": 66, "duration": 21, "velocity": 61}, {"time": 3976, "pitch": 69, "duration": 21, "velocity": 62}, {"time": 4012, "pitch": 49, "duration": 11, "velocity": 52}, {"time": 4012, "pitch": 56, "duration": 11, "velocity": 64}, {"time": 4012, "pitch": 61, "duration": 10, "velocity": 63}, {"time": 4012, "pitch": 64, "duration": 10, "velocity": 64}, {"time": 4012, "pitch": 68, "duration": 9, "velocity": 64}, {"time": 4030, "pitch": 54, "duration": 9, "velocity": 64}, {"time": 4030, "pitch": 61, "duration": 8, "velocity": 63}, {"time": 4030, "pitch": 66, "duration": 8, "velocity": 62}, {"time": 4030, "pitch": 69, "duration": 8, "velocity": 59}, {"time": 4048, "pitch": 47, "duration": 9, "velocity": 53}, {"time": 4048, "pitch": 54, "duration": 10, "velocity": 62}, {"time": 4048, "pitch": 59, "duration": 8, "velocity": 58}, {"time": 4048, "pitch": 62, "duration": 8, "velocity": 61}, {"time": 4048, "pitch": 66, "duration": 8, "velocity": 56}, {"time": 4048, "pitch": 69, "duration": 7, "velocity": 48}, {"time": 4066, "pitch": 52, "duration": 12, "velocity": 62}, {"time": 4066, "pitch": 59, "duration": 12, "velocity": 58}, {"time": 4066, "pitch": 64, "duration": 12, "velocity": 64}, {"time": 4066, "pitch": 68, "duration": 11, "velocity": 61}, {"time": 4084, "pitch": 45, "duration": 33, "velocity": 75}, {"time": 4084, "pitch": 59, "duration": 3, "velocity": 46}, {"time": 4084, "pitch": 61, "duration": 11, "velocity": 64}, {"time": 4084, "pitch": 64, "duration": 7, "velocity": 69}, {"time": 4084, "pitch": 69, "duration": 31, "velocity": 73}, {"time": 4090, "pitch": 52, "duration": 31, "velocity": 69}, {"time": 4096, "pitch": 57, "duration": 12, "velocity": 67}, {"time": 4102, "pitch": 59, "duration": 8, "velocity": 73}, {"time": 4108, "pitch": 64, "duration": 10, "velocity": 70}, {"time": 4114, "pitch": 57, "duration": 5, "velocity": 51}, {"time": 4120, "pitch": 45, "duration": 25, "velocity": 78}, {"time": 4120, "pitch": 59, "duration": 14, "velocity": 66}, {"time": 4120, "pitch": 61, "duration": 13, "velocity": 72}, {"time": 4120, "pitch": 64, "duration": 13, "velocity": 51}, {"time": 4126, "pitch": 52, "duration": 28, "velocity": 64}, {"time": 4132, "pitch": 57, "duration": 20, "velocity": 69}, {"time": 4132, "pitch": 69, "duration": 2, "velocity": 1}, {"time": 4138, "pitch": 59, "duration": 7, "velocity": 70}, {"time": 4138, "pitch": 61, "duration": 1, "velocity": 44}, {"time": 4144, "pitch": 64, "duration": 6, "velocity": 62}, {"time": 4150, "pitch": 69, "duration": 25, "velocity": 80}, {"time": 4156, "pitch": 47, "duration": 33, "velocity": 71}, {"time": 4156, "pitch": 62, "duration": 17, "velocity": 77}, {"time": 4156, "pitch": 65, "duration": 18, "velocity": 81}, {"time": 4162, "pitch": 50, "duration": 28, "velocity": 58}, {"time": 4168, "pitch": 53, "duration": 24, "velocity": 71}, {"time": 4174, "pitch": 59, "duration": 16, "velocity": 66}, {"time": 4180, "pitch": 62, "duration": 13, "velocity": 77}, {"time": 4186, "pitch": 69, "duration": 21, "velocity": 75}, {"time": 4192, "pitch": 47, "duration": 26, "velocity": 77}, {"time": 4192, "pitch": 65, "duration": 9, "velocity": 71}, {"time": 4198, "pitch": 50, "duration": 21, "velocity": 57}, {"time": 4204, "pitch": 53, "duration": 13, "velocity": 68}, {"time": 4204, "pitch": 64, "duration": 9, "velocity": 88}, {"time": 4210, "pitch": 59, "duration": 5, "velocity": 67}, {"time": 4216, "pitch": 62, "duration": 5, "velocity": 88}, {"time": 4222, "pitch": 59, "duration": 4, "velocity": 88}, {"time": 4228, "pitch": 45, "duration": 27, "velocity": 81}, {"time": 4228, "pitch": 59, "duration": 3, "velocity": 71}, {"time": 4231, "pitch": 61, "duration": 12, "velocity": 74}, {"time": 4234, "pitch": 52, "duration": 11, "velocity": 65}, {"time": 4240, "pitch": 57, "duration": 14, "velocity": 70}, {"time": 4246, "pitch": 59, "duration": 8, "velocity": 80}, {"time": 4246, "pitch": 64, "duration": 9, "velocity": 75}, {"time": 4252, "pitch": 52, "duration": 11, "velocity": 64}, {"time": 4258, "pitch": 59, "duration": 6, "velocity": 75}, {"time": 4258, "pitch": 64, "duration": 3, "velocity": 54}, {"time": 4264, "pitch": 45, "duration": 25, "velocity": 80}, {"time": 4264, "pitch": 57, "duration": 8, "velocity": 67}, {"time": 4264, "pitch": 61, "duration": 8, "velocity": 77}, {"time": 4270, "pitch": 52, "duration": 6, "velocity": 58}, {"time": 4276, "pitch": 59, "duration": 9, "velocity": 88}, {"time": 4276, "pitch": 64, "duration": 8, "velocity": 84}, {"time": 4282, "pitch": 52, "duration": 10, "velocity": 75}, {"time": 4288, "pitch": 57, "duration": 6, "velocity": 80}, {"time": 4294, "pitch": 64, "duration": 5, "velocity": 75}, {"time": 4300, "pitch": 65, "duration": 18, "velocity": 80}, {"time": 4300, "pitch": 62, "duration": 16, "velocity": 77}, {"time": 4300, "pitch": 59, "duration": 17, "velocity": 71}, {"time": 4300, "pitch": 47, "duration": 28, "velocity": 80}, {"time": 4314, "pitch": 50, "duration": 15, "velocity": 47}, {"time": 4326, "pitch": 59, "duration": 5, "velocity": 61}, {"time": 4333, "pitch": 62, "duration": 3, "velocity": 64}, {"time": 4352, "pitch": 54, "duration": 10, "velocity": 66}, {"time": 4360, "pitch": 57, "duration": 5, "velocity": 75}, {"time": 4368, "pitch": 61, "duration": 9, "velocity": 76}, {"time": 4377, "pitch": 62, "duration": 4, "velocity": 83}, {"time": 4386, "pitch": 64, "duration": 3, "velocity": 95}, {"time": 4403, "pitch": 52, "duration": 12, "velocity": 75}, {"time": 4404, "pitch": 33, "duration": 8, "velocity": 73}, {"time": 4405, "pitch": 56, "duration": 16, "velocity": 81}, {"time": 4408, "pitch": 61, "duration": 15, "velocity": 86}, {"time": 4421, "pitch": 45, "duration": 76, "velocity": 78}, {"time": 4425, "pitch": 52, "duration": 71, "velocity": 73}, {"time": 4429, "pitch": 57, "duration": 67, "velocity": 82}, {"time": 4433, "pitch": 59, "duration": 6, "velocity": 66}, {"time": 4437, "pitch": 61, "duration": 4, "velocity": 72}, {"time": 4441, "pitch": 64, "duration": 5, "velocity": 63}, {"time": 4446, "pitch": 68, "duration": 2, "velocity": 75}, {"time": 4450, "pitch": 69, "duration": 5, "velocity": 82}, {"time": 4455, "pitch": 71, "duration": 5, "velocity": 73}, {"time": 4459, "pitch": 73, "duration": 3, "velocity": 75}, {"time": 4464, "pitch": 76, "duration": 6, "velocity": 69}, {"time": 4468, "pitch": 81, "duration": 6, "velocity": 70}, {"time": 4473, "pitch": 83, "duration": 5, "velocity": 58}, {"time": 4478, "pitch": 85, "duration": 3, "velocity": 69}, {"time": 4484, "pitch": 88, "duration": 7, "velocity": 62}, {"time": 4490, "pitch": 92, "duration": 10, "velocity": 64}, {"time": 4498, "pitch": 93, "duration": 18, "velocity": 64}, {"time": 4510, "pitch": 33, "duration": 3, "velocity": 73}, {"time": 4510, "pitch": 85, "duration": 5, "velocity": 55}], "annotations": [{"time": 13, "annotation": {"number": 64, "value": 127}, "group": "control_change"}, {"time": 51, "annotation": {"number": 64, "value": 0}, "group": "control_change"}, {"time": 55, "annotation": {"number": 64, "value": 127}, "group": "control_change"}, {"time": 85, "annotation": {"number": 64, "value": 0}, "group": "control_change"}, {"time": 89, "annotation": {"number": 64, "value": 127}, "group": "control_change"}, {"time": 157, "annotation": {"number": 64, "value": 0}, "group": "control_change"}, {"time": 161, "annotation": {"number": 64, "value": 127}, "group": "control_change"}, {"time": 195, "annotation": {"number": 64, "value": 0}, "group": "control_change"}, {"time": 199, "annotation": {"number": 64, "value": 127}, "group": "control_change"}, {"time": 229, "annotation": {"number": 64, "value": 0}, "group": "control_change"}, {"time": 231, "annotation": {"number": 64, "value": 127}, "group": "control_change"}, {"time": 265, "annotation": {"number": 64, "value": 3}, "group": "control_change"}, {"time": 268, "annotation": {"number": 64, "value": 94}, "group": "control_change"}, {"time": 300, "annotation": {"number": 64, "value": 0}, "group": "control_change"}, {"time": 304, "annotation": {"number": 64, "value": 118}, "group": "control_change"}, {"time": 336, "annotation": {"number": 64, "value": 0}, "group": "control_change"}, {"time": 340, "annotation": {"number": 64, "value": 127}, "group": "control_change"}, {"time": 372, "annotation": {"number": 64, "value": 0}, "group": "control_change"}, {"time": 377, "annotation": {"number": 64, "value": 127}, "group": "control_change"}, {"time": 409, "annotation": {"number": 64, "value": 0}, "group": "control_change"}, {"time": 414, "annotation": {"number": 64, "value": 127}, "group": "control_change"}, {"time": 444, "annotation": {"number": 64, "value": 0}, "group": "control_change"}, {"time": 449, "annotation": {"number": 64, "value": 127}, "group": "control_change"}, {"time": 477, "annotation": {"number": 64, "value": 0}, "group": "control_change"}, {"time": 482, "annotation": {"number": 64, "value": 127}, "group": "control_change"}, {"time": 497, "annotation": {"number": 64, "value": 0}, "group": "control_change"}, {"time": 502, "annotation": {"number": 64, "value": 127}, "group": "control_change"}, {"time": 517, "annotation": {"number": 64, "value": 0}, "group": "control_change"}, {"time": 522, "annotation": {"number": 64, "value": 127}, "group": "control_change"}, {"time": 552, "annotation": {"number": 64, "value": 0}, "group": "control_change"}, {"time": 556, "annotation": {"number": 64, "value": 127}, "group": "control_change"}, {"time": 589, "annotation": {"number": 64, "value": 0}, "group": "control_change"}, {"time": 590, "annotation": {"number": 64, "value": 127}, "group": "control_change"}, {"time": 625, "annotation": {"number": 64, "value": 0}, "group": "control_change"}, {"time": 630, "annotation": {"number": 64, "value": 127}, "group": "control_change"}, {"time": 661, "annotation": {"number": 64, "value": 0}, "group": "control_change"}, {"time": 661, "annotation": {"number": 64, "value": 127}, "group": "control_change"}, {"time": 697, "annotation": {"number": 64, "value": 0}, "group": "control_change"}, {"time": 702, "annotation": {"number": 64, "value": 127}, "group": "control_change"}, {"time": 733, "annotation": {"number": 64, "value": 0}, "group": "control_change"}, {"time": 738, "annotation": {"number": 64, "value": 127}, "group": "control_change"}, {"time": 768, "annotation": {"number": 64, "value": 0}, "group": "control_change"}, {"time": 772, "annotation": {"number": 64, "value": 127}, "group": "control_change"}, {"time": 786, "annotation": {"number": 64, "value": 0}, "group": "control_change"}, {"time": 791, "annotation": {"number": 64, "value": 127}, "group": "control_change"}, {"time": 805, "annotation": {"number": 64, "value": 0}, "group": "control_change"}, {"time": 809, "annotation": {"number": 64, "value": 127}, "group": "control_change"}, {"time": 823, "annotation": {"number": 64, "value": 0}, "group": "control_change"}, {"time": 828, "annotation": {"number": 64, "value": 127}, "group": "control_change"}, {"time": 841, "annotation": {"number": 64, "value": 0}, "group": "control_change"}, {"time": 845, "annotation": {"number": 64, "value": 127}, "group": "control_change"}, {"time": 875, "annotation": {"number": 64, "value": 0}, "group": "control_change"}, {"time": 877, "annotation": {"number": 64, "value": 127}, "group": "control_change"}, {"time": 913, "annotation": {"number": 64, "value": 0}, "group": "control_change"}, {"time": 918, "annotation": {"number": 64, "value": 127}, "group": "control_change"}, {"time": 949, "annotation": {"number": 64, "value": 0}, "group": "control_change"}, {"time": 949, "annotation": {"number": 64, "value": 127}, "group": "control_change"}, {"time": 985, "annotation": {"number": 64, "value": 0}, "group": "control_change"}, {"time": 991, "annotation": {"number": 64, "value": 127}, "group": "control_change"}, {"time": 1021, "annotation": {"number": 64, "value": 0}, "group": "control_change"}, {"time": 1027, "annotation": {"number": 64, "value": 127}, "group": "control_change"}, {"time": 1057, "annotation": {"number": 64, "value": 0}, "group": "control_change"}, {"time": 1057, "annotation": {"number": 64, "value": 127}, "group": "control_change"}, {"time": 1074, "annotation": {"number": 64, "value": 0}, "group": "control_change"}, {"time": 1078, "annotation": {"number": 64, "value": 127}, "group": "control_change"}, {"time": 1093, "annotation": {"number": 64, "value": 0}, "group": "control_change"}, {"time": 1093, "annotation": {"number": 64, "value": 127}, "group": "control_change"}, {"time": 1118, "annotation": {"number": 64, "value": 127}, "group": "control_change"}, {"time": 1128, "annotation": {"number": 64, "value": 0}, "group": "control_change"}, {"time": 1140, "annotation": {"number": 64, "value": 127}, "group": "control_change"}, {"time": 1150, "annotation": {"number": 64, "value": 0}, "group": "control_change"}, {"time": 1155, "annotation": {"number": 64, "value": 127}, "group": "control_change"}, {"time": 1155, "annotation": {"number": 64, "value": 0}, "group": "control_change"}, {"time": 1164, "annotation": {"number": 64, "value": 0}, "group": "control_change"}, {"time": 1165, "annotation": {"number": 64, "value": 0}, "group": "control_change"}, {"time": 1165, "annotation": {"number": 64, "value": 127}, "group": "control_change"}, {"time": 1201, "annotation": {"number": 64, "value": 0}, "group": "control_change"}, {"time": 1202, "annotation": {"number": 64, "value": 0}, "group": "control_change"}, {"time": 1206, "annotation": {"number": 64, "value": 127}, "group": "control_change"}, {"time": 1237, "annotation": {"number": 64, "value": 0}, "group": "control_change"}, {"time": 1241, "annotation": {"number": 64, "value": 127}, "group": "control_change"}, {"time": 1274, "annotation": {"number": 64, "value": 0}, "group": "control_change"}, {"time": 1279, "annotation": {"number": 64, "value": 127}, "group": "control_change"}, {"time": 1309, "annotation": {"number": 64, "value": 0}, "group": "control_change"}, {"time": 1313, "annotation": {"number": 64, "value": 127}, "group": "control_change"}, {"time": 1346, "annotation": {"number": 64, "value": 0}, "group": "control_change"}, {"time": 1349, "annotation": {"number": 64, "value": 127}, "group": "control_change"}, {"time": 1362, "annotation": {"number": 64, "value": 0}, "group": "control_change"}, {"time": 1366, "annotation": {"number": 64, "value": 127}, "group": "control_change"}, {"time": 1383, "annotation": {"number": 64, "value": 0}, "group": "control_change"}, {"time": 1387, "annotation": {"number": 64, "value": 127}, "group": "control_change"}, {"time": 1401, "annotation": {"number": 64, "value": 0}, "group": "control_change"}, {"time": 1405, "annotation": {"number": 64, "value": 127}, "group": "control_change"}, {"time": 1418, "annotation": {"number": 64, "value": 0}, "group": "control_change"}, {"time": 1421, "annotation": {"number": 64, "value": 127}, "group": "control_change"}, {"time": 1453, "annotation": {"number": 64, "value": 0}, "group": "control_change"}, {"time": 1455, "annotation": {"number": 64, "value": 127}, "group": "control_change"}, {"time": 1525, "annotation": {"number": 64, "value": 0}, "group": "control_change"}, {"time": 1530, "annotation": {"number": 64, "value": 127}, "group": "control_change"}, {"time": 1604, "annotation": {"number": 64, "value": 0}, "group": "control_change"}, {"time": 1607, "annotation": {"number": 64, "value": 127}, "group": "control_change"}, {"time": 1638, "annotation": {"number": 64, "value": 0}, "group": "control_change"}, {"time": 1644, "annotation": {"number": 64, "value": 127}, "group": "control_change"}, {"time": 1671, "annotation": {"number": 64, "value": 0}, "group": "control_change"}, {"time": 1675, "annotation": {"number": 64, "value": 127}, "group": "control_change"}, {"time": 1707, "annotation": {"number": 64, "value": 0}, "group": "control_change"}, {"time": 1711, "annotation": {"number": 64, "value": 127}, "group": "control_change"}, {"time": 1740, "annotation": {"number": 64, "value": 0}, "group": "control_change"}, {"time": 1742, "annotation": {"number": 64, "value": 127}, "group": "control_change"}, {"time": 1780, "annotation": {"number": 64, "value": 0}, "group": "control_change"}, {"time": 1789, "annotation": {"number": 64, "value": 127}, "group": "control_change"}, {"time": 1813, "annotation": {"number": 64, "value": 0}, "group": "control_change"}, {"time": 1815, "annotation": {"number": 64, "value": 127}, "group": "control_change"}, {"time": 1851, "annotation": {"number": 64, "value": 0}, "group": "control_change"}, {"time": 1855, "annotation": {"number": 64, "value": 127}, "group": "control_change"}, {"time": 1869, "annotation": {"number": 64, "value": 0}, "group": "control_change"}, {"time": 1873, "annotation": {"number": 64, "value": 127}, "group": "control_change"}, {"time": 1886, "annotation": {"number": 64, "value": 0}, "group": "control_change"}, {"time": 1891, "annotation": {"number": 64, "value": 127}, "group": "control_change"}, {"time": 1923, "annotation": {"number": 64, "value": 0}, "group": "control_change"}, {"time": 1925, "annotation": {"number": 64, "value": 118}, "group": "control_change"}, {"time": 1959, "annotation": {"number": 64, "value": 127}, "group": "control_change"}, {"time": 1994, "annotation": {"number": 64, "value": 0}, "group": "control_change"}, {"time": 1998, "annotation": {"number": 64, "value": 127}, "group": "control_change"}, {"time": 2029, "annotation": {"number": 64, "value": 0}, "group": "control_change"}, {"time": 2032, "annotation": {"number": 64, "value": 127}, "group": "control_change"}, {"time": 2065, "annotation": {"number": 64, "value": 0}, "group": "control_change"}, {"time": 2065, "annotation": {"number": 64, "value": 127}, "group": "control_change"}, {"time": 2100, "annotation": {"number": 64, "value": 0}, "group": "control_change"}, {"time": 2100, "annotation": {"number": 64, "value": 127}, "group": "control_change"}, {"time": 2136, "annotation": {"number": 64, "value": 0}, "group": "control_change"}, {"time": 2140, "annotation": {"number": 64, "value": 127}, "group": "control_change"}, {"time": 2172, "annotation": {"number": 64, "value": 0}, "group": "control_change"}, {"time": 2177, "annotation": {"number": 64, "value": 127}, "group": "control_change"}, {"time": 2209, "annotation": {"number": 64, "value": 0}, "group": "control_change"}, {"time": 2214, "annotation": {"number": 64, "value": 127}, "group": "control_change"}, {"time": 2244, "annotation": {"number": 64, "value": 0}, "group": "control_change"}, {"time": 2249, "annotation": {"number": 64, "value": 127}, "group": "control_change"}, {"time": 2277, "annotation": {"number": 64, "value": 0}, "group": "control_change"}, {"time": 2282, "annotation": {"number": 64, "value": 127}, "group": "control_change"}, {"time": 2297, "annotation": {"number": 64, "value": 0}, "group": "control_change"}, {"time": 2302, "annotation": {"number": 64, "value": 127}, "group": "control_change"}, {"time": 2317, "annotation": {"number": 64, "value": 0}, "group": "control_change"}, {"time": 2322, "annotation": {"number": 64, "value": 127}, "group": "control_change"}, {"time": 2352, "annotation": {"number": 64, "value": 0}, "group": "control_change"}, {"time": 2356, "annotation": {"number": 64, "value": 127}, "group": "control_change"}, {"time": 2389, "annotation": {"number": 64, "value": 0}, "group": "control_change"}, {"time": 2390, "annotation": {"number": 64, "value": 127}, "group": "control_change"}, {"time": 2425, "annotation": {"number": 64, "value": 0}, "group": "control_change"}, {"time": 2430, "annotation": {"number": 64, "value": 127}, "group": "control_change"}, {"time": 2461, "annotation": {"number": 64, "value": 0}, "group": "control_change"}, {"time": 2461, "annotation": {"number": 64, "value": 127}, "group": "control_change"}, {"time": 2497, "annotation": {"number": 64, "value": 0}, "group": "control_change"}, {"time": 2502, "annotation": {"number": 64, "value": 127}, "group": "control_change"}, {"time": 2533, "annotation": {"number": 64, "value": 0}, "group": "control_change"}, {"time": 2538, "annotation": {"number": 64, "value": 127}, "group": "control_change"}, {"time": 2568, "annotation": {"number": 64, "value": 0}, "group": "control_change"}, {"time": 2572, "annotation": {"number": 64, "value": 127}, "group": "control_change"}, {"time": 2586, "annotation": {"number": 64, "value": 0}, "group": "control_change"}, {"time": 2591, "annotation": {"number": 64, "value": 127}, "group": "control_change"}, {"time": 2605, "annotation": {"number": 64, "value": 0}, "group": "control_change"}, {"time": 2609, "annotation": {"number": 64, "value": 127}, "group": "control_change"}, {"time": 2623, "annotation": {"number": 64, "value": 0}, "group": "control_change"}, {"time": 2628, "annotation": {"number": 64, "value": 127}, "group": "control_change"}, {"time": 2641, "annotation": {"number": 64, "value": 0}, "group": "control_change"}, {"time": 2645, "annotation": {"number": 64, "value": 127}, "group": "control_change"}, {"time": 2675, "annotation": {"number": 64, "value": 0}, "group": "control_change"}, {"time": 2677, "annotation": {"number": 64, "value": 127}, "group": "control_change"}, {"time": 2713, "annotation": {"number": 64, "value": 0}, "group": "control_change"}, {"time": 2718, "annotation": {"number": 64, "value": 127}, "group": "control_change"}, {"time": 2749, "annotation": {"number": 64, "value": 0}, "group": "control_change"}, {"time": 2749, "annotation": {"number": 64, "value": 127}, "group": "control_change"}, {"time": 2785, "annotation": {"number": 64, "value": 0}, "group": "control_change"}, {"time": 2791, "annotation": {"number": 64, "value": 127}, "group": "control_change"}, {"time": 2821, "annotation": {"number": 64, "value": 0}, "group": "control_change"}, {"time": 2827, "annotation": {"number": 64, "value": 127}, "group": "control_change"}, {"time": 2857, "annotation": {"number": 64, "value": 0}, "group": "control_change"}, {"time": 2857, "annotation": {"number": 64, "value": 127}, "group": "control_change"}, {"time": 2874, "annotation": {"number": 64, "value": 0}, "group": "control_change"}, {"time": 2878, "annotation": {"number": 64, "value": 127}, "group": "control_change"}, {"time": 2893, "annotation": {"number": 64, "value": 0}, "group": "control_change"}, {"time": 2893, "annotation": {"number": 64, "value": 127}, "group": "control_change"}, {"time": 2918, "annotation": {"number": 64, "value": 127}, "group": "control_change"}, {"time": 2928, "annotation": {"number": 64, "value": 0}, "group": "control_change"}, {"time": 2940, "annotation": {"number": 64, "value": 127}, "group": "control_change"}, {"time": 2950, "annotation": {"number": 64, "value": 0}, "group": "control_change"}, {"time": 2955, "annotation": {"number": 64, "value": 127}, "group": "control_change"}, {"time": 2955, "annotation": {"number": 64, "value": 0}, "group": "control_change"}, {"time": 2964, "annotation": {"number": 64, "value": 0}, "group": "control_change"}, {"time": 2965, "annotation": {"number": 64, "value": 0}, "group": "control_change"}, {"time": 2965, "annotation": {"number": 64, "value": 127}, "group": "control_change"}, {"time": 2992, "annotation": {"number": 64, "value": 0}, "group": "control_change"}, {"time": 3002, "annotation": {"number": 64, "value": 0}, "group": "control_change"}, {"time": 3006, "annotation": {"number": 64, "value": 127}, "group": "control_change"}, {"time": 3037, "annotation": {"number": 64, "value": 0}, "group": "control_change"}, {"time": 3041, "annotation": {"number": 64, "value": 127}, "group": "control_change"}, {"time": 3074, "annotation": {"number": 64, "value": 0}, "group": "control_change"}, {"time": 3079, "annotation": {"number": 64, "value": 127}, "group": "control_change"}, {"time": 3109, "annotation": {"number": 64, "value": 0}, "group": "control_change"}, {"time": 3113, "annotation": {"number": 64, "value": 127}, "group": "control_change"}, {"time": 3146, "annotation": {"number": 64, "value": 0}, "group": "control_change"}, {"time": 3149, "annotation": {"number": 64, "value": 127}, "group": "control_change"}, {"time": 3162, "annotation": {"number": 64, "value": 0}, "group": "control_change"}, {"time": 3166, "annotation": {"number": 64, "value": 127}, "group": "control_change"}, {"time": 3183, "annotation": {"number": 64, "value": 0}, "group": "control_change"}, {"time": 3187, "annotation": {"number": 64, "value": 127}, "group": "control_change"}, {"time": 3201, "annotation": {"number": 64, "value": 0}, "group": "control_change"}, {"time": 3205, "annotation": {"number": 64, "value": 127}, "group": "control_change"}, {"time": 3218, "annotation": {"number": 64, "value": 0}, "group": "control_change"}, {"time": 3221, "annotation": {"number": 64, "value": 127}, "group": "control_change"}, {"time": 3253, "annotation": {"number": 64, "value": 0}, "group": "control_change"}, {"time": 3253, "annotation": {"number": 64, "value": 127}, "group": "control_change"}, {"time": 3289, "annotation": {"number": 64, "value": 0}, "group": "control_change"}, {"time": 3294, "annotation": {"number": 64, "value": 127}, "group": "control_change"}, {"time": 3325, "annotation": {"number": 64, "value": 0}, "group": "control_change"}, {"time": 3325, "annotation": {"number": 64, "value": 127}, "group": "control_change"}, {"time": 3361, "annotation": {"number": 64, "value": 0}, "group": "control_change"}, {"time": 3367, "annotation": {"number": 64, "value": 127}, "group": "control_change"}, {"time": 3397, "annotation": {"number": 64, "value": 0}, "group": "control_change"}, {"time": 3403, "annotation": {"number": 64, "value": 127}, "group": "control_change"}, {"time": 3433, "annotation": {"number": 64, "value": 0}, "group": "control_change"}, {"time": 3433, "annotation": {"number": 64, "value": 127}, "group": "control_change"}, {"time": 3450, "annotation": {"number": 64, "value": 0}, "group": "control_change"}, {"time": 3454, "annotation": {"number": 64, "value": 127}, "group": "control_change"}, {"time": 3469, "annotation": {"number": 64, "value": 0}, "group": "control_change"}, {"time": 3469, "annotation": {"number": 64, "value": 127}, "group": "control_change"}, {"time": 3494, "annotation": {"number": 64, "value": 127}, "group": "control_change"}, {"time": 3504, "annotation": {"number": 64, "value": 0}, "group": "control_change"}, {"time": 3516, "annotation": {"number": 64, "value": 127}, "group": "control_change"}, {"time": 3526, "annotation": {"number": 64, "value": 0}, "group": "control_change"}, {"time": 3531, "annotation": {"number": 64, "value": 127}, "group": "control_change"}, {"time": 3531, "annotation": {"number": 64, "value": 0}, "group": "control_change"}, {"time": 3540, "annotation": {"number": 64, "value": 0}, "group": "control_change"}, {"time": 3541, "annotation": {"number": 64, "value": 0}, "group": "control_change"}, {"time": 3541, "annotation": {"number": 64, "value": 127}, "group": "control_change"}, {"time": 3578, "annotation": {"number": 64, "value": 0}, "group": "control_change"}, {"time": 3580, "annotation": {"number": 64, "value": 0}, "group": "control_change"}, {"time": 3582, "annotation": {"number": 64, "value": 127}, "group": "control_change"}, {"time": 3613, "annotation": {"number": 64, "value": 0}, "group": "control_change"}, {"time": 3617, "annotation": {"number": 64, "value": 127}, "group": "control_change"}, {"time": 3650, "annotation": {"number": 64, "value": 0}, "group": "control_change"}, {"time": 3655, "annotation": {"number": 64, "value": 127}, "group": "control_change"}, {"time": 3685, "annotation": {"number": 64, "value": 0}, "group": "control_change"}, {"time": 3689, "annotation": {"number": 64, "value": 127}, "group": "control_change"}, {"time": 3722, "annotation": {"number": 64, "value": 0}, "group": "control_change"}, {"time": 3725, "annotation": {"number": 64, "value": 127}, "group": "control_change"}, {"time": 3738, "annotation": {"number": 64, "value": 0}, "group": "control_change"}, {"time": 3742, "annotation": {"number": 64, "value": 127}, "group": "control_change"}, {"time": 3759, "annotation": {"number": 64, "value": 0}, "group": "control_change"}, {"time": 3763, "annotation": {"number": 64, "value": 127}, "group": "control_change"}, {"time": 3777, "annotation": {"number": 64, "value": 0}, "group": "control_change"}, {"time": 3781, "annotation": {"number": 64, "value": 127}, "group": "control_change"}, {"time": 3794, "annotation": {"number": 64, "value": 0}, "group": "control_change"}, {"time": 3797, "annotation": {"number": 64, "value": 127}, "group": "control_change"}, {"time": 3829, "annotation": {"number": 64, "value": 0}, "group": "control_change"}, {"time": 3838, "annotation": {"number": 64, "value": 127}, "group": "control_change"}, {"time": 3865, "annotation": {"number": 64, "value": 0}, "group": "control_change"}, {"time": 3870, "annotation": {"number": 64, "value": 127}, "group": "control_change"}, {"time": 3904, "annotation": {"number": 64, "value": 0}, "group": "control_change"}, {"time": 3908, "annotation": {"number": 64, "value": 127}, "group": "control_change"}, {"time": 3940, "annotation": {"number": 64, "value": 0}, "group": "control_change"}, {"time": 3944, "annotation": {"number": 64, "value": 127}, "group": "control_change"}, {"time": 3977, "annotation": {"number": 64, "value": 0}, "group": "control_change"}, {"time": 3981, "annotation": {"number": 64, "value": 127}, "group": "control_change"}, {"time": 4013, "annotation": {"number": 64, "value": 0}, "group": "control_change"}, {"time": 4017, "annotation": {"number": 64, "value": 127}, "group": "control_change"}, {"time": 4030, "annotation": {"number": 64, "value": 0}, "group": "control_change"}, {"time": 4034, "annotation": {"number": 64, "value": 127}, "group": "control_change"}, {"time": 4049, "annotation": {"number": 64, "value": 0}, "group": "control_change"}, {"time": 4052, "annotation": {"number": 64, "value": 127}, "group": "control_change"}, {"time": 4067, "annotation": {"number": 64, "value": 0}, "group": "control_change"}, {"time": 4070, "annotation": {"number": 64, "value": 127}, "group": "control_change"}, {"time": 4085, "annotation": {"number": 64, "value": 127}, "group": "control_change"}, {"time": 4087, "annotation": {"number": 64, "value": 0}, "group": "control_change"}, {"time": 4124, "annotation": {"number": 64, "value": 0}, "group": "control_change"}, {"time": 4127, "annotation": {"number": 64, "value": 127}, "group": "control_change"}, {"time": 4158, "annotation": {"number": 64, "value": 0}, "group": "control_change"}, {"time": 4162, "annotation": {"number": 64, "value": 127}, "group": "control_change"}, {"time": 4230, "annotation": {"number": 64, "value": 0}, "group": "control_change"}, {"time": 4234, "annotation": {"number": 64, "value": 127}, "group": "control_change"}, {"time": 4267, "annotation": {"number": 64, "value": 0}, "group": "control_change"}, {"time": 4271, "annotation": {"number": 64, "value": 127}, "group": "control_change"}, {"time": 4301, "annotation": {"number": 64, "value": 127}, "group": "control_change"}, {"time": 4403, "annotation": {"number": 64, "value": 0}, "group": "control_change"}, {"time": 4407, "annotation": {"number": 64, "value": 127}, "group": "control_change"}, {"time": 4579, "annotation": {"number": 64, "value": 0}, "group": "control_change"}]}]}