{"metadata": {"schema_version": "0.2", "title": "None", "source_filename": "232.mid", "source_format": "midi"}, "resolution": 12, "tempos": [{"time": 0, "qpm": 114.0001710002565}, {"time": 166, "qpm": 113.00030886751091}, {"time": 202, "qpm": 122.0000691333725}, {"time": 226, "qpm": 116.99988885010559}, {"time": 274, "qpm": 112.00005973336519}, {"time": 322, "qpm": 104.99992125005906}, {"time": 370, "qpm": 114.0001710002565}, {"time": 418, "qpm": 104.99992125005906}, {"time": 466, "qpm": 113.00030886751091}, {"time": 1138, "qpm": 117.99990166674861}, {"time": 1186, "qpm": 113.00030886751091}, {"time": 1234, "qpm": 116.00008506672904}, {"time": 1282, "qpm": 113.00030886751091}, {"time": 1306, "qpm": 115.00002875000719}, {"time": 1810, "qpm": 114.0001710002565}, {"time": 2050, "qpm": 118.99992463338107}, {"time": 2098, "qpm": 114.0001710002565}, {"time": 2290, "qpm": 120.0}, {"time": 2338, "qpm": 113.00030886751091}, {"time": 2434, "qpm": 114.0001710002565}, {"time": 2458, "qpm": 118.99992463338107}, {"time": 2482, "qpm": 114.0001710002565}, {"time": 2530, "qpm": 120.99994353335968}, {"time": 2542, "qpm": 113.00030886751091}, {"time": 2578, "qpm": 114.0001710002565}, {"time": 2710, "qpm": 116.00008506672904}, {"time": 2722, "qpm": 116.99988885010559}, {"time": 2770, "qpm": 114.0001710002565}, {"time": 2866, "qpm": 112.00005973336519}, {"time": 2914, "qpm": 113.00030886751091}, {"time": 2962, "qpm": 120.0}, {"time": 3010, "qpm": 114.0001710002565}, {"time": 3058, "qpm": 116.00008506672904}, {"time": 3106, "qpm": 112.00005973336519}, {"time": 3130, "qpm": 116.00008506672904}, {"time": 3202, "qpm": 114.0001710002565}, {"time": 3250, "qpm": 115.00002875000719}, {"time": 3682, "qpm": 114.0001710002565}, {"time": 3874, "qpm": 116.99988885010559}, {"time": 3922, "qpm": 115.00002875000719}, {"time": 3970, "qpm": 114.0001710002565}, {"time": 4018, "qpm": 115.00002875000719}, {"time": 4258, "qpm": 113.00030886751091}, {"time": 4306, "qpm": 114.0001710002565}, {"time": 4312, "qpm": 115.00002875000719}, {"time": 4594, "qpm": 114.0001710002565}, {"time": 4810, "qpm": 115.00002875000719}, {"time": 5506, "qpm": 113.00030886751091}, {"time": 5554, "qpm": 114.0001710002565}, {"time": 5698, "qpm": 116.00008506672904}, {"time": 5842, "qpm": 114.0001710002565}, {"time": 5938, "qpm": 104.00001386666851}, {"time": 5986, "qpm": 102.0000510000255}, {"time": 6034, "qpm": 114.0001710002565}], "time_signatures": [{"time": 0, "numerator": 4, "denominator": 4}], "tracks": [{"program": 0, "is_drum": false, "name": "MELODY", "notes": [{"time": 496, "pitch": 74, "duration": 7, "velocity": 66}, {"time": 502, "pitch": 72, "duration": 6, "velocity": 59}, {"time": 508, "pitch": 70, "duration": 7, "velocity": 45}, {"time": 514, "pitch": 72, "duration": 6, "velocity": 62}, {"time": 520, "pitch": 72, "duration": 24, "velocity": 56}, {"time": 544, "pitch": 77, "duration": 12, "velocity": 63}, {"time": 556, "pitch": 70, "duration": 36, "velocity": 77}, {"time": 592, "pitch": 74, "duration": 6, "velocity": 66}, {"time": 598, "pitch": 72, "duration": 6, "velocity": 60}, {"time": 604, "pitch": 70, "duration": 7, "velocity": 63}, {"time": 610, "pitch": 72, "duration": 6, "velocity": 67}, {"time": 616, "pitch": 72, "duration": 6, "velocity": 53}, {"time": 622, "pitch": 72, "duration": 12, "velocity": 57}, {"time": 634, "pitch": 72, "duration": 6, "velocity": 56}, {"time": 640, "pitch": 77, "duration": 18, "velocity": 55}, {"time": 658, "pitch": 79, "duration": 12, "velocity": 79}, {"time": 670, "pitch": 77, "duration": 6, "velocity": 63}, {"time": 676, "pitch": 70, "duration": 12, "velocity": 66}, {"time": 688, "pitch": 70, "duration": 6, "velocity": 87}, {"time": 694, "pitch": 70, "duration": 6, "velocity": 86}, {"time": 700, "pitch": 70, "duration": 6, "velocity": 67}, {"time": 706, "pitch": 79, "duration": 12, "velocity": 98}, {"time": 718, "pitch": 77, "duration": 6, "velocity": 77}, {"time": 724, "pitch": 79, "duration": 12, "velocity": 93}, {"time": 736, "pitch": 82, "duration": 30, "velocity": 97}, {"time": 766, "pitch": 82, "duration": 6, "velocity": 92}, {"time": 772, "pitch": 82, "duration": 6, "velocity": 95}, {"time": 778, "pitch": 82, "duration": 18, "velocity": 92}, {"time": 796, "pitch": 70, "duration": 12, "velocity": 97}, {"time": 808, "pitch": 74, "duration": 12, "velocity": 99}, {"time": 820, "pitch": 72, "duration": 60, "velocity": 81}, {"time": 880, "pitch": 74, "duration": 8, "velocity": 66}, {"time": 886, "pitch": 72, "duration": 7, "velocity": 67}, {"time": 892, "pitch": 70, "duration": 7, "velocity": 67}, {"time": 898, "pitch": 72, "duration": 13, "velocity": 74}, {"time": 910, "pitch": 72, "duration": 1, "velocity": 86}, {"time": 922, "pitch": 72, "duration": 6, "velocity": 79}, {"time": 928, "pitch": 77, "duration": 12, "velocity": 79}, {"time": 940, "pitch": 72, "duration": 12, "velocity": 74}, {"time": 952, "pitch": 70, "duration": 24, "velocity": 83}, {"time": 976, "pitch": 74, "duration": 6, "velocity": 87}, {"time": 982, "pitch": 72, "duration": 6, "velocity": 75}, {"time": 988, "pitch": 70, "duration": 7, "velocity": 67}, {"time": 994, "pitch": 72, "duration": 6, "velocity": 71}, {"time": 1000, "pitch": 72, "duration": 6, "velocity": 71}, {"time": 1006, "pitch": 72, "duration": 6, "velocity": 65}, {"time": 1012, "pitch": 70, "duration": 7, "velocity": 66}, {"time": 1018, "pitch": 72, "duration": 7, "velocity": 74}, {"time": 1024, "pitch": 77, "duration": 12, "velocity": 66}, {"time": 1036, "pitch": 77, "duration": 10, "velocity": 79}, {"time": 1042, "pitch": 79, "duration": 12, "velocity": 66}, {"time": 1054, "pitch": 82, "duration": 6, "velocity": 72}, {"time": 1060, "pitch": 79, "duration": 12, "velocity": 90}, {"time": 1072, "pitch": 79, "duration": 6, "velocity": 90}, {"time": 1078, "pitch": 79, "duration": 6, "velocity": 90}, {"time": 1084, "pitch": 77, "duration": 6, "velocity": 90}, {"time": 1090, "pitch": 82, "duration": 12, "velocity": 97}, {"time": 1102, "pitch": 82, "duration": 6, "velocity": 93}, {"time": 1108, "pitch": 79, "duration": 39, "velocity": 106}, {"time": 1144, "pitch": 82, "duration": 6, "velocity": 97}, {"time": 1150, "pitch": 82, "duration": 6, "velocity": 95}, {"time": 1156, "pitch": 82, "duration": 6, "velocity": 94}, {"time": 1162, "pitch": 82, "duration": 6, "velocity": 77}, {"time": 1168, "pitch": 79, "duration": 6, "velocity": 86}, {"time": 1174, "pitch": 79, "duration": 6, "velocity": 86}, {"time": 1180, "pitch": 82, "duration": 6, "velocity": 66}, {"time": 1186, "pitch": 79, "duration": 6, "velocity": 90}, {"time": 1192, "pitch": 77, "duration": 72, "velocity": 77}, {"time": 1264, "pitch": 77, "duration": 6, "velocity": 91}, {"time": 1270, "pitch": 79, "duration": 6, "velocity": 91}, {"time": 1276, "pitch": 82, "duration": 54, "velocity": 106}, {"time": 1330, "pitch": 82, "duration": 6, "velocity": 109}, {"time": 1336, "pitch": 82, "duration": 12, "velocity": 103}, {"time": 1348, "pitch": 82, "duration": 6, "velocity": 99}, {"time": 1354, "pitch": 82, "duration": 12, "velocity": 100}, {"time": 1366, "pitch": 79, "duration": 12, "velocity": 105}, {"time": 1378, "pitch": 82, "duration": 78, "velocity": 108}, {"time": 1456, "pitch": 74, "duration": 7, "velocity": 85}, {"time": 1462, "pitch": 72, "duration": 6, "velocity": 73}, {"time": 1468, "pitch": 70, "duration": 7, "velocity": 82}, {"time": 1474, "pitch": 72, "duration": 12, "velocity": 87}, {"time": 1486, "pitch": 70, "duration": 6, "velocity": 86}, {"time": 1492, "pitch": 72, "duration": 13, "velocity": 91}, {"time": 1504, "pitch": 74, "duration": 18, "velocity": 86}, {"time": 1522, "pitch": 78, "duration": 12, "velocity": 100}, {"time": 1534, "pitch": 78, "duration": 6, "velocity": 95}, {"time": 1540, "pitch": 79, "duration": 11, "velocity": 95}, {"time": 1552, "pitch": 81, "duration": 12, "velocity": 93}, {"time": 1564, "pitch": 74, "duration": 6, "velocity": 90}, {"time": 1570, "pitch": 84, "duration": 12, "velocity": 92}, {"time": 1582, "pitch": 82, "duration": 6, "velocity": 94}, {"time": 1588, "pitch": 82, "duration": 12, "velocity": 96}, {"time": 1600, "pitch": 81, "duration": 6, "velocity": 91}, {"time": 1606, "pitch": 81, "duration": 6, "velocity": 93}, {"time": 1612, "pitch": 79, "duration": 6, "velocity": 93}, {"time": 1618, "pitch": 81, "duration": 12, "velocity": 90}, {"time": 1630, "pitch": 82, "duration": 6, "velocity": 90}, {"time": 1636, "pitch": 74, "duration": 12, "velocity": 87}, {"time": 1648, "pitch": 72, "duration": 6, "velocity": 67}, {"time": 1654, "pitch": 70, "duration": 12, "velocity": 65}, {"time": 1666, "pitch": 72, "duration": 6, "velocity": 103}, {"time": 1672, "pitch": 72, "duration": 6, "velocity": 87}, {"time": 1678, "pitch": 72, "duration": 6, "velocity": 91}, {"time": 1684, "pitch": 70, "duration": 6, "velocity": 87}, {"time": 1690, "pitch": 72, "duration": 6, "velocity": 96}, {"time": 1696, "pitch": 70, "duration": 18, "velocity": 90}, {"time": 1714, "pitch": 79, "duration": 6, "velocity": 100}, {"time": 1720, "pitch": 77, "duration": 12, "velocity": 98}, {"time": 1732, "pitch": 79, "duration": 12, "velocity": 100}, {"time": 1744, "pitch": 77, "duration": 18, "velocity": 105}, {"time": 1762, "pitch": 79, "duration": 6, "velocity": 108}, {"time": 1768, "pitch": 82, "duration": 6, "velocity": 94}, {"time": 1774, "pitch": 82, "duration": 6, "velocity": 101}, {"time": 1780, "pitch": 79, "duration": 6, "velocity": 99}, {"time": 1786, "pitch": 82, "duration": 6, "velocity": 105}, {"time": 1792, "pitch": 79, "duration": 12, "velocity": 91}, {"time": 1804, "pitch": 79, "duration": 6, "velocity": 91}, {"time": 1810, "pitch": 86, "duration": 6, "velocity": 95}, {"time": 1816, "pitch": 84, "duration": 12, "velocity": 103}, {"time": 1828, "pitch": 77, "duration": 6, "velocity": 90}, {"time": 1834, "pitch": 86, "duration": 6, "velocity": 95}, {"time": 1840, "pitch": 84, "duration": 12, "velocity": 92}, {"time": 1852, "pitch": 84, "duration": 6, "velocity": 74}, {"time": 1858, "pitch": 84, "duration": 6, "velocity": 82}, {"time": 1864, "pitch": 82, "duration": 6, "velocity": 66}, {"time": 1870, "pitch": 82, "duration": 6, "velocity": 66}, {"time": 1876, "pitch": 82, "duration": 6, "velocity": 72}, {"time": 1882, "pitch": 79, "duration": 6, "velocity": 51}, {"time": 1888, "pitch": 77, "duration": 12, "velocity": 63}, {"time": 1900, "pitch": 78, "duration": 12, "velocity": 89}, {"time": 1912, "pitch": 78, "duration": 6, "velocity": 80}, {"time": 1918, "pitch": 78, "duration": 6, "velocity": 89}, {"time": 1924, "pitch": 78, "duration": 6, "velocity": 75}, {"time": 1930, "pitch": 79, "duration": 6, "velocity": 87}, {"time": 1936, "pitch": 81, "duration": 12, "velocity": 77}, {"time": 1948, "pitch": 74, "duration": 6, "velocity": 83}, {"time": 1954, "pitch": 84, "duration": 6, "velocity": 75}, {"time": 1960, "pitch": 82, "duration": 12, "velocity": 90}, {"time": 1972, "pitch": 82, "duration": 12, "velocity": 97}, {"time": 1984, "pitch": 81, "duration": 6, "velocity": 95}, {"time": 1990, "pitch": 81, "duration": 6, "velocity": 80}, {"time": 1996, "pitch": 79, "duration": 6, "velocity": 69}, {"time": 2002, "pitch": 81, "duration": 12, "velocity": 94}, {"time": 2014, "pitch": 82, "duration": 6, "velocity": 93}, {"time": 2020, "pitch": 74, "duration": 12, "velocity": 87}, {"time": 2032, "pitch": 72, "duration": 6, "velocity": 90}, {"time": 2038, "pitch": 70, "duration": 12, "velocity": 84}, {"time": 2050, "pitch": 72, "duration": 6, "velocity": 97}, {"time": 2056, "pitch": 72, "duration": 6, "velocity": 87}, {"time": 2062, "pitch": 72, "duration": 6, "velocity": 92}, {"time": 2068, "pitch": 70, "duration": 6, "velocity": 82}, {"time": 2074, "pitch": 72, "duration": 9, "velocity": 94}, {"time": 2083, "pitch": 70, "duration": 15, "velocity": 77}, {"time": 2098, "pitch": 79, "duration": 7, "velocity": 98}, {"time": 2104, "pitch": 77, "duration": 12, "velocity": 87}, {"time": 2116, "pitch": 79, "duration": 12, "velocity": 87}, {"time": 2128, "pitch": 77, "duration": 18, "velocity": 86}, {"time": 2146, "pitch": 79, "duration": 6, "velocity": 90}, {"time": 2152, "pitch": 82, "duration": 6, "velocity": 97}, {"time": 2158, "pitch": 82, "duration": 6, "velocity": 99}, {"time": 2164, "pitch": 79, "duration": 6, "velocity": 93}, {"time": 2170, "pitch": 82, "duration": 6, "velocity": 101}, {"time": 2176, "pitch": 79, "duration": 27, "velocity": 91}, {"time": 2200, "pitch": 86, "duration": 12, "velocity": 98}, {"time": 2212, "pitch": 84, "duration": 6, "velocity": 90}, {"time": 2218, "pitch": 84, "duration": 9, "velocity": 87}, {"time": 2224, "pitch": 82, "duration": 12, "velocity": 95}, {"time": 2236, "pitch": 79, "duration": 6, "velocity": 87}, {"time": 2242, "pitch": 84, "duration": 18, "velocity": 93}, {"time": 2260, "pitch": 82, "duration": 92, "velocity": 75}, {"time": 3184, "pitch": 74, "duration": 7, "velocity": 66}, {"time": 3190, "pitch": 72, "duration": 6, "velocity": 59}, {"time": 3196, "pitch": 70, "duration": 7, "velocity": 45}, {"time": 3202, "pitch": 72, "duration": 12, "velocity": 62}, {"time": 3214, "pitch": 72, "duration": 18, "velocity": 56}, {"time": 3232, "pitch": 77, "duration": 12, "velocity": 63}, {"time": 3244, "pitch": 70, "duration": 36, "velocity": 77}, {"time": 3280, "pitch": 74, "duration": 6, "velocity": 66}, {"time": 3286, "pitch": 72, "duration": 6, "velocity": 60}, {"time": 3292, "pitch": 70, "duration": 7, "velocity": 63}, {"time": 3298, "pitch": 72, "duration": 6, "velocity": 67}, {"time": 3304, "pitch": 72, "duration": 6, "velocity": 53}, {"time": 3310, "pitch": 72, "duration": 12, "velocity": 57}, {"time": 3322, "pitch": 72, "duration": 6, "velocity": 56}, {"time": 3328, "pitch": 77, "duration": 18, "velocity": 55}, {"time": 3346, "pitch": 79, "duration": 6, "velocity": 79}, {"time": 3352, "pitch": 77, "duration": 12, "velocity": 63}, {"time": 3364, "pitch": 70, "duration": 12, "velocity": 66}, {"time": 3376, "pitch": 70, "duration": 6, "velocity": 87}, {"time": 3382, "pitch": 70, "duration": 6, "velocity": 86}, {"time": 3388, "pitch": 70, "duration": 6, "velocity": 67}, {"time": 3394, "pitch": 79, "duration": 12, "velocity": 98}, {"time": 3406, "pitch": 77, "duration": 7, "velocity": 77}, {"time": 3412, "pitch": 79, "duration": 12, "velocity": 93}, {"time": 3424, "pitch": 82, "duration": 30, "velocity": 97}, {"time": 3454, "pitch": 82, "duration": 6, "velocity": 92}, {"time": 3460, "pitch": 82, "duration": 6, "velocity": 95}, {"time": 3466, "pitch": 82, "duration": 18, "velocity": 92}, {"time": 3484, "pitch": 70, "duration": 18, "velocity": 97}, {"time": 3502, "pitch": 74, "duration": 6, "velocity": 99}, {"time": 3508, "pitch": 72, "duration": 60, "velocity": 81}, {"time": 3568, "pitch": 74, "duration": 6, "velocity": 100}, {"time": 3574, "pitch": 72, "duration": 6, "velocity": 67}, {"time": 3580, "pitch": 70, "duration": 6, "velocity": 67}, {"time": 3586, "pitch": 72, "duration": 12, "velocity": 74}, {"time": 3598, "pitch": 72, "duration": 12, "velocity": 86}, {"time": 3610, "pitch": 72, "duration": 6, "velocity": 79}, {"time": 3616, "pitch": 77, "duration": 12, "velocity": 79}, {"time": 3628, "pitch": 72, "duration": 12, "velocity": 74}, {"time": 3640, "pitch": 70, "duration": 24, "velocity": 83}, {"time": 3664, "pitch": 74, "duration": 6, "velocity": 87}, {"time": 3670, "pitch": 72, "duration": 6, "velocity": 75}, {"time": 3676, "pitch": 70, "duration": 7, "velocity": 67}, {"time": 3682, "pitch": 72, "duration": 6, "velocity": 71}, {"time": 3688, "pitch": 72, "duration": 6, "velocity": 71}, {"time": 3694, "pitch": 72, "duration": 6, "velocity": 65}, {"time": 3700, "pitch": 70, "duration": 7, "velocity": 66}, {"time": 3706, "pitch": 72, "duration": 7, "velocity": 74}, {"time": 3712, "pitch": 77, "duration": 12, "velocity": 66}, {"time": 3724, "pitch": 77, "duration": 6, "velocity": 79}, {"time": 3730, "pitch": 79, "duration": 12, "velocity": 66}, {"time": 3742, "pitch": 82, "duration": 6, "velocity": 72}, {"time": 3748, "pitch": 79, "duration": 12, "velocity": 90}, {"time": 3760, "pitch": 79, "duration": 6, "velocity": 90}, {"time": 3766, "pitch": 79, "duration": 6, "velocity": 90}, {"time": 3772, "pitch": 77, "duration": 7, "velocity": 90}, {"time": 3778, "pitch": 82, "duration": 12, "velocity": 97}, {"time": 3790, "pitch": 82, "duration": 6, "velocity": 93}, {"time": 3796, "pitch": 79, "duration": 39, "velocity": 106}, {"time": 3835, "pitch": 82, "duration": 9, "velocity": 97}, {"time": 3844, "pitch": 82, "duration": 6, "velocity": 95}, {"time": 3850, "pitch": 82, "duration": 6, "velocity": 94}, {"time": 3856, "pitch": 79, "duration": 6, "velocity": 86}, {"time": 3862, "pitch": 79, "duration": 6, "velocity": 86}, {"time": 3868, "pitch": 82, "duration": 6, "velocity": 66}, {"time": 3874, "pitch": 79, "duration": 6, "velocity": 90}, {"time": 3880, "pitch": 77, "duration": 72, "velocity": 77}, {"time": 3952, "pitch": 77, "duration": 7, "velocity": 91}, {"time": 3958, "pitch": 79, "duration": 6, "velocity": 91}, {"time": 3964, "pitch": 82, "duration": 54, "velocity": 106}, {"time": 4018, "pitch": 82, "duration": 6, "velocity": 109}, {"time": 4024, "pitch": 82, "duration": 12, "velocity": 103}, {"time": 4036, "pitch": 82, "duration": 6, "velocity": 99}, {"time": 4042, "pitch": 82, "duration": 12, "velocity": 100}, {"time": 4054, "pitch": 79, "duration": 12, "velocity": 105}, {"time": 4066, "pitch": 82, "duration": 78, "velocity": 108}, {"time": 4144, "pitch": 74, "duration": 7, "velocity": 85}, {"time": 4150, "pitch": 72, "duration": 6, "velocity": 73}, {"time": 4156, "pitch": 70, "duration": 7, "velocity": 82}, {"time": 4162, "pitch": 72, "duration": 12, "velocity": 87}, {"time": 4174, "pitch": 70, "duration": 6, "velocity": 86}, {"time": 4180, "pitch": 72, "duration": 13, "velocity": 91}, {"time": 4192, "pitch": 74, "duration": 18, "velocity": 86}, {"time": 4210, "pitch": 78, "duration": 12, "velocity": 100}, {"time": 4222, "pitch": 78, "duration": 6, "velocity": 95}, {"time": 4228, "pitch": 79, "duration": 12, "velocity": 95}, {"time": 4240, "pitch": 81, "duration": 12, "velocity": 93}, {"time": 4252, "pitch": 74, "duration": 6, "velocity": 90}, {"time": 4258, "pitch": 84, "duration": 12, "velocity": 92}, {"time": 4270, "pitch": 82, "duration": 6, "velocity": 94}, {"time": 4276, "pitch": 82, "duration": 12, "velocity": 96}, {"time": 4288, "pitch": 81, "duration": 6, "velocity": 91}, {"time": 4294, "pitch": 81, "duration": 6, "velocity": 93}, {"time": 4300, "pitch": 79, "duration": 6, "velocity": 93}, {"time": 4306, "pitch": 81, "duration": 12, "velocity": 90}, {"time": 4318, "pitch": 82, "duration": 6, "velocity": 90}, {"time": 4324, "pitch": 74, "duration": 12, "velocity": 87}, {"time": 4336, "pitch": 72, "duration": 6, "velocity": 67}, {"time": 4342, "pitch": 70, "duration": 12, "velocity": 65}, {"time": 4354, "pitch": 72, "duration": 6, "velocity": 103}, {"time": 4360, "pitch": 72, "duration": 6, "velocity": 87}, {"time": 4366, "pitch": 72, "duration": 6, "velocity": 91}, {"time": 4372, "pitch": 70, "duration": 6, "velocity": 87}, {"time": 4378, "pitch": 72, "duration": 6, "velocity": 96}, {"time": 4384, "pitch": 70, "duration": 18, "velocity": 90}, {"time": 4402, "pitch": 79, "duration": 6, "velocity": 100}, {"time": 4408, "pitch": 77, "duration": 12, "velocity": 98}, {"time": 4420, "pitch": 79, "duration": 12, "velocity": 100}, {"time": 4432, "pitch": 77, "duration": 18, "velocity": 105}, {"time": 4450, "pitch": 79, "duration": 6, "velocity": 108}, {"time": 4456, "pitch": 82, "duration": 6, "velocity": 94}, {"time": 4462, "pitch": 82, "duration": 6, "velocity": 101}, {"time": 4468, "pitch": 79, "duration": 6, "velocity": 99}, {"time": 4474, "pitch": 82, "duration": 6, "velocity": 105}, {"time": 4480, "pitch": 79, "duration": 12, "velocity": 91}, {"time": 4492, "pitch": 79, "duration": 6, "velocity": 91}, {"time": 4498, "pitch": 86, "duration": 6, "velocity": 95}, {"time": 4504, "pitch": 84, "duration": 12, "velocity": 103}, {"time": 4516, "pitch": 77, "duration": 6, "velocity": 90}, {"time": 4522, "pitch": 86, "duration": 6, "velocity": 95}, {"time": 4528, "pitch": 84, "duration": 12, "velocity": 92}, {"time": 4540, "pitch": 84, "duration": 6, "velocity": 74}, {"time": 4546, "pitch": 84, "duration": 6, "velocity": 82}, {"time": 4552, "pitch": 82, "duration": 6, "velocity": 66}, {"time": 4558, "pitch": 82, "duration": 6, "velocity": 66}, {"time": 4564, "pitch": 82, "duration": 6, "velocity": 72}, {"time": 4570, "pitch": 79, "duration": 6, "velocity": 51}, {"time": 4576, "pitch": 77, "duration": 12, "velocity": 63}, {"time": 4588, "pitch": 78, "duration": 12, "velocity": 89}, {"time": 4600, "pitch": 78, "duration": 6, "velocity": 80}, {"time": 4606, "pitch": 78, "duration": 6, "velocity": 89}, {"time": 4612, "pitch": 78, "duration": 6, "velocity": 75}, {"time": 4618, "pitch": 79, "duration": 6, "velocity": 87}, {"time": 4624, "pitch": 81, "duration": 12, "velocity": 77}, {"time": 4636, "pitch": 74, "duration": 6, "velocity": 83}, {"time": 4642, "pitch": 84, "duration": 8, "velocity": 75}, {"time": 4648, "pitch": 82, "duration": 12, "velocity": 90}, {"time": 4660, "pitch": 82, "duration": 12, "velocity": 97}, {"time": 4672, "pitch": 81, "duration": 6, "velocity": 95}, {"time": 4678, "pitch": 81, "duration": 6, "velocity": 80}, {"time": 4684, "pitch": 79, "duration": 6, "velocity": 69}, {"time": 4690, "pitch": 81, "duration": 12, "velocity": 94}, {"time": 4702, "pitch": 82, "duration": 6, "velocity": 93}, {"time": 4708, "pitch": 74, "duration": 12, "velocity": 87}, {"time": 4720, "pitch": 72, "duration": 6, "velocity": 90}, {"time": 4726, "pitch": 70, "duration": 12, "velocity": 84}, {"time": 4738, "pitch": 72, "duration": 6, "velocity": 97}, {"time": 4744, "pitch": 72, "duration": 6, "velocity": 87}, {"time": 4750, "pitch": 72, "duration": 6, "velocity": 92}, {"time": 4756, "pitch": 70, "duration": 6, "velocity": 82}, {"time": 4762, "pitch": 72, "duration": 6, "velocity": 94}, {"time": 4768, "pitch": 70, "duration": 18, "velocity": 77}, {"time": 4786, "pitch": 79, "duration": 7, "velocity": 98}, {"time": 4792, "pitch": 77, "duration": 12, "velocity": 87}, {"time": 4804, "pitch": 79, "duration": 15, "velocity": 87}, {"time": 4816, "pitch": 77, "duration": 18, "velocity": 86}, {"time": 4834, "pitch": 79, "duration": 8, "velocity": 90}, {"time": 4840, "pitch": 82, "duration": 6, "velocity": 97}, {"time": 4846, "pitch": 82, "duration": 6, "velocity": 99}, {"time": 4852, "pitch": 79, "duration": 6, "velocity": 93}, {"time": 4858, "pitch": 82, "duration": 6, "velocity": 101}, {"time": 4864, "pitch": 79, "duration": 24, "velocity": 91}, {"time": 4888, "pitch": 86, "duration": 12, "velocity": 98}, {"time": 4900, "pitch": 84, "duration": 6, "velocity": 90}, {"time": 4906, "pitch": 84, "duration": 9, "velocity": 87}, {"time": 4915, "pitch": 82, "duration": 9, "velocity": 95}, {"time": 4924, "pitch": 79, "duration": 6, "velocity": 87}, {"time": 4930, "pitch": 84, "duration": 18, "velocity": 93}, {"time": 4948, "pitch": 82, "duration": 156, "velocity": 75}, {"time": 5104, "pitch": 84, "duration": 18, "velocity": 91}, {"time": 5122, "pitch": 84, "duration": 1, "velocity": 95}, {"time": 5128, "pitch": 82, "duration": 6, "velocity": 64}, {"time": 5134, "pitch": 82, "duration": 6, "velocity": 79}, {"time": 5140, "pitch": 82, "duration": 6, "velocity": 79}, {"time": 5146, "pitch": 79, "duration": 6, "velocity": 71}, {"time": 5152, "pitch": 77, "duration": 12, "velocity": 87}, {"time": 5164, "pitch": 78, "duration": 12, "velocity": 96}, {"time": 5176, "pitch": 78, "duration": 6, "velocity": 89}, {"time": 5182, "pitch": 78, "duration": 6, "velocity": 89}, {"time": 5188, "pitch": 78, "duration": 6, "velocity": 91}, {"time": 5194, "pitch": 79, "duration": 6, "velocity": 83}, {"time": 5200, "pitch": 81, "duration": 12, "velocity": 93}, {"time": 5212, "pitch": 74, "duration": 6, "velocity": 87}, {"time": 5218, "pitch": 84, "duration": 6, "velocity": 76}, {"time": 5224, "pitch": 82, "duration": 12, "velocity": 94}, {"time": 5236, "pitch": 82, "duration": 12, "velocity": 97}, {"time": 5248, "pitch": 81, "duration": 6, "velocity": 93}, {"time": 5254, "pitch": 81, "duration": 6, "velocity": 84}, {"time": 5260, "pitch": 79, "duration": 6, "velocity": 81}, {"time": 5266, "pitch": 81, "duration": 12, "velocity": 74}, {"time": 5278, "pitch": 82, "duration": 6, "velocity": 81}, {"time": 5284, "pitch": 74, "duration": 12, "velocity": 86}, {"time": 5296, "pitch": 72, "duration": 6, "velocity": 83}, {"time": 5302, "pitch": 70, "duration": 12, "velocity": 87}, {"time": 5314, "pitch": 72, "duration": 6, "velocity": 105}, {"time": 5320, "pitch": 72, "duration": 6, "velocity": 90}, {"time": 5326, "pitch": 72, "duration": 6, "velocity": 91}, {"time": 5332, "pitch": 70, "duration": 6, "velocity": 95}, {"time": 5338, "pitch": 72, "duration": 6, "velocity": 91}, {"time": 5344, "pitch": 70, "duration": 18, "velocity": 96}, {"time": 5362, "pitch": 79, "duration": 6, "velocity": 98}, {"time": 5368, "pitch": 77, "duration": 12, "velocity": 93}, {"time": 5380, "pitch": 79, "duration": 12, "velocity": 100}, {"time": 5392, "pitch": 77, "duration": 18, "velocity": 106}, {"time": 5410, "pitch": 79, "duration": 6, "velocity": 101}, {"time": 5416, "pitch": 82, "duration": 6, "velocity": 84}, {"time": 5422, "pitch": 82, "duration": 6, "velocity": 98}, {"time": 5428, "pitch": 79, "duration": 6, "velocity": 81}, {"time": 5434, "pitch": 82, "duration": 6, "velocity": 94}, {"time": 5440, "pitch": 79, "duration": 12, "velocity": 86}, {"time": 5452, "pitch": 79, "duration": 1, "velocity": 90}, {"time": 5458, "pitch": 86, "duration": 6, "velocity": 93}, {"time": 5464, "pitch": 84, "duration": 12, "velocity": 96}, {"time": 5476, "pitch": 77, "duration": 6, "velocity": 94}, {"time": 5482, "pitch": 86, "duration": 6, "velocity": 96}, {"time": 5488, "pitch": 84, "duration": 12, "velocity": 106}, {"time": 5500, "pitch": 86, "duration": 6, "velocity": 98}, {"time": 5506, "pitch": 86, "duration": 6, "velocity": 99}, {"time": 5512, "pitch": 84, "duration": 6, "velocity": 84}, {"time": 5518, "pitch": 84, "duration": 1, "velocity": 90}, {"time": 5524, "pitch": 84, "duration": 1, "velocity": 89}, {"time": 5530, "pitch": 81, "duration": 6, "velocity": 93}, {"time": 5536, "pitch": 79, "duration": 12, "velocity": 98}, {"time": 5548, "pitch": 80, "duration": 12, "velocity": 107}, {"time": 5560, "pitch": 80, "duration": 6, "velocity": 97}, {"time": 5566, "pitch": 80, "duration": 6, "velocity": 93}, {"time": 5572, "pitch": 80, "duration": 6, "velocity": 91}, {"time": 5578, "pitch": 81, "duration": 6, "velocity": 89}, {"time": 5584, "pitch": 83, "duration": 12, "velocity": 103}, {"time": 5596, "pitch": 76, "duration": 6, "velocity": 93}, {"time": 5602, "pitch": 86, "duration": 6, "velocity": 87}, {"time": 5608, "pitch": 84, "duration": 12, "velocity": 95}, {"time": 5620, "pitch": 84, "duration": 12, "velocity": 100}, {"time": 5632, "pitch": 83, "duration": 6, "velocity": 97}, {"time": 5638, "pitch": 83, "duration": 6, "velocity": 92}, {"time": 5644, "pitch": 81, "duration": 6, "velocity": 87}, {"time": 5650, "pitch": 83, "duration": 12, "velocity": 93}, {"time": 5662, "pitch": 84, "duration": 6, "velocity": 90}, {"time": 5668, "pitch": 76, "duration": 12, "velocity": 89}, {"time": 5680, "pitch": 74, "duration": 6, "velocity": 87}, {"time": 5686, "pitch": 72, "duration": 12, "velocity": 72}, {"time": 5698, "pitch": 74, "duration": 6, "velocity": 91}, {"time": 5704, "pitch": 74, "duration": 6, "velocity": 91}, {"time": 5710, "pitch": 74, "duration": 6, "velocity": 93}, {"time": 5716, "pitch": 72, "duration": 7, "velocity": 84}, {"time": 5722, "pitch": 74, "duration": 6, "velocity": 93}, {"time": 5728, "pitch": 72, "duration": 20, "velocity": 97}, {"time": 5746, "pitch": 81, "duration": 6, "velocity": 100}, {"time": 5752, "pitch": 79, "duration": 12, "velocity": 87}, {"time": 5764, "pitch": 81, "duration": 12, "velocity": 100}, {"time": 5776, "pitch": 79, "duration": 18, "velocity": 93}, {"time": 5794, "pitch": 81, "duration": 6, "velocity": 108}, {"time": 5800, "pitch": 84, "duration": 6, "velocity": 97}, {"time": 5806, "pitch": 84, "duration": 6, "velocity": 100}, {"time": 5812, "pitch": 81, "duration": 6, "velocity": 95}, {"time": 5818, "pitch": 84, "duration": 6, "velocity": 109}, {"time": 5824, "pitch": 81, "duration": 24, "velocity": 101}, {"time": 5848, "pitch": 88, "duration": 12, "velocity": 98}, {"time": 5860, "pitch": 86, "duration": 6, "velocity": 94}, {"time": 5866, "pitch": 86, "duration": 1, "velocity": 93}, {"time": 5875, "pitch": 84, "duration": 9, "velocity": 94}, {"time": 5884, "pitch": 81, "duration": 6, "velocity": 81}, {"time": 5890, "pitch": 86, "duration": 19, "velocity": 96}, {"time": 5908, "pitch": 84, "duration": 103, "velocity": 95}, {"time": 6010, "pitch": 79, "duration": 18, "velocity": 90}, {"time": 6022, "pitch": 81, "duration": 12, "velocity": 99}, {"time": 6034, "pitch": 84, "duration": 48, "velocity": 105}, {"time": 6082, "pitch": 84, "duration": 12, "velocity": 106}, {"time": 6094, "pitch": 84, "duration": 12, "velocity": 98}, {"time": 6106, "pitch": 84, "duration": 12, "velocity": 97}, {"time": 6118, "pitch": 84, "duration": 12, "velocity": 99}, {"time": 6130, "pitch": 81, "duration": 14, "velocity": 97}, {"time": 6142, "pitch": 84, "duration": 98, "velocity": 100}], "annotations": [{"time": 1276, "annotation": {"number": 1, "value": 2}, "group": "control_change"}, {"time": 1702, "annotation": {"number": 1, "value": 1}, "group": "control_change"}, {"time": 1702, "annotation": {"number": 1, "value": 2}, "group": "control_change"}, {"time": 1703, "annotation": {"number": 1, "value": 2}, "group": "control_change"}, {"time": 2228, "annotation": {"number": 1, "value": 1}, "group": "control_change"}, {"time": 2228, "annotation": {"number": 1, "value": 2}, "group": "control_change"}, {"time": 3968, "annotation": {"number": 1, "value": 2}, "group": "control_change"}, {"time": 4391, "annotation": {"number": 1, "value": 1}, "group": "control_change"}, {"time": 4392, "annotation": {"number": 1, "value": 2}, "group": "control_change"}, {"time": 4917, "annotation": {"number": 1, "value": 1}, "group": "control_change"}, {"time": 4917, "annotation": {"number": 1, "value": 2}, "group": "control_change"}, {"time": 5532, "annotation": {"number": 1, "value": 0}, "group": "control_change"}, {"time": 5534, "annotation": {"number": 1, "value": 1}, "group": "control_change"}, {"time": 5539, "annotation": {"number": 1, "value": 0}, "group": "control_change"}, {"time": 5551, "annotation": {"number": 1, "value": 1}, "group": "control_change"}, {"time": 5557, "annotation": {"number": 1, "value": 0}, "group": "control_change"}, {"time": 5559, "annotation": {"number": 1, "value": 1}, "group": "control_change"}, {"time": 6133, "annotation": {"number": 1, "value": 2}, "group": "control_change"}]}, {"program": 0, "is_drum": false, "name": "PIANO", "notes": [{"time": 82, "pitch": 51, "duration": 15, "velocity": 67}, {"time": 82, "pitch": 55, "duration": 13, "velocity": 64}, {"time": 82, "pitch": 58, "duration": 13, "velocity": 67}, {"time": 82, "pitch": 62, "duration": 12, "velocity": 66}, {"time": 106, "pitch": 51, "duration": 13, "velocity": 48}, {"time": 106, "pitch": 53, "duration": 8, "velocity": 58}, {"time": 106, "pitch": 57, "duration": 13, "velocity": 46}, {"time": 106, "pitch": 60, "duration": 13, "velocity": 59}, {"time": 130, "pitch": 50, "duration": 11, "velocity": 72}, {"time": 130, "pitch": 53, "duration": 10, "velocity": 63}, {"time": 130, "pitch": 57, "duration": 9, "velocity": 66}, {"time": 130, "pitch": 60, "duration": 10, "velocity": 64}, {"time": 154, "pitch": 55, "duration": 14, "velocity": 48}, {"time": 154, "pitch": 58, "duration": 15, "velocity": 57}, {"time": 154, "pitch": 62, "duration": 13, "velocity": 56}, {"time": 178, "pitch": 45, "duration": 12, "velocity": 73}, {"time": 178, "pitch": 57, "duration": 12, "velocity": 67}, {"time": 178, "pitch": 60, "duration": 11, "velocity": 72}, {"time": 178, "pitch": 63, "duration": 10, "velocity": 69}, {"time": 202, "pitch": 50, "duration": 12, "velocity": 56}, {"time": 202, "pitch": 54, "duration": 12, "velocity": 64}, {"time": 202, "pitch": 57, "duration": 12, "velocity": 57}, {"time": 202, "pitch": 62, "duration": 14, "velocity": 51}, {"time": 226, "pitch": 43, "duration": 38, "velocity": 62}, {"time": 226, "pitch": 55, "duration": 14, "velocity": 67}, {"time": 226, "pitch": 58, "duration": 14, "velocity": 73}, {"time": 226, "pitch": 62, "duration": 13, "velocity": 69}, {"time": 250, "pitch": 55, "duration": 14, "velocity": 42}, {"time": 250, "pitch": 58, "duration": 10, "velocity": 51}, {"time": 250, "pitch": 62, "duration": 10, "velocity": 43}, {"time": 274, "pitch": 48, "duration": 12, "velocity": 73}, {"time": 274, "pitch": 60, "duration": 10, "velocity": 64}, {"time": 274, "pitch": 64, "duration": 10, "velocity": 73}, {"time": 274, "pitch": 67, "duration": 10, "velocity": 75}, {"time": 274, "pitch": 72, "duration": 13, "velocity": 70}, {"time": 298, "pitch": 48, "duration": 12, "velocity": 72}, {"time": 298, "pitch": 60, "duration": 12, "velocity": 72}, {"time": 298, "pitch": 63, "duration": 12, "velocity": 78}, {"time": 298, "pitch": 66, "duration": 13, "velocity": 76}, {"time": 298, "pitch": 72, "duration": 13, "velocity": 75}, {"time": 322, "pitch": 50, "duration": 14, "velocity": 70}, {"time": 322, "pitch": 57, "duration": 13, "velocity": 59}, {"time": 322, "pitch": 60, "duration": 13, "velocity": 73}, {"time": 322, "pitch": 65, "duration": 13, "velocity": 76}, {"time": 322, "pitch": 69, "duration": 14, "velocity": 72}, {"time": 346, "pitch": 51, "duration": 22, "velocity": 88}, {"time": 346, "pitch": 58, "duration": 19, "velocity": 82}, {"time": 346, "pitch": 63, "duration": 19, "velocity": 88}, {"time": 346, "pitch": 67, "duration": 19, "velocity": 73}, {"time": 346, "pitch": 70, "duration": 20, "velocity": 67}, {"time": 370, "pitch": 53, "duration": 95, "velocity": 82}, {"time": 370, "pitch": 60, "duration": 15, "velocity": 78}, {"time": 370, "pitch": 65, "duration": 17, "velocity": 80}, {"time": 370, "pitch": 69, "duration": 18, "velocity": 73}, {"time": 391, "pitch": 60, "duration": 5, "velocity": 67}, {"time": 391, "pitch": 65, "duration": 8, "velocity": 75}, {"time": 391, "pitch": 69, "duration": 9, "velocity": 73}, {"time": 418, "pitch": 41, "duration": 49, "velocity": 75}, {"time": 463, "pitch": 77, "duration": 7, "velocity": 47}, {"time": 464, "pitch": 81, "duration": 9, "velocity": 62}, {"time": 465, "pitch": 84, "duration": 8, "velocity": 62}, {"time": 466, "pitch": 89, "duration": 8, "velocity": 64}, {"time": 514, "pitch": 46, "duration": 87, "velocity": 73}, {"time": 514, "pitch": 58, "duration": 78, "velocity": 78}, {"time": 514, "pitch": 62, "duration": 16, "velocity": 78}, {"time": 514, "pitch": 65, "duration": 17, "velocity": 91}, {"time": 514, "pitch": 70, "duration": 17, "velocity": 72}, {"time": 538, "pitch": 62, "duration": 17, "velocity": 69}, {"time": 538, "pitch": 65, "duration": 17, "velocity": 85}, {"time": 538, "pitch": 70, "duration": 17, "velocity": 69}, {"time": 562, "pitch": 62, "duration": 17, "velocity": 49}, {"time": 562, "pitch": 65, "duration": 17, "velocity": 63}, {"time": 562, "pitch": 70, "duration": 16, "velocity": 72}, {"time": 586, "pitch": 62, "duration": 14, "velocity": 73}, {"time": 586, "pitch": 65, "duration": 14, "velocity": 91}, {"time": 586, "pitch": 70, "duration": 14, "velocity": 70}, {"time": 598, "pitch": 58, "duration": 2, "velocity": 70}, {"time": 610, "pitch": 43, "duration": 90, "velocity": 76}, {"time": 610, "pitch": 55, "duration": 54, "velocity": 63}, {"time": 610, "pitch": 62, "duration": 17, "velocity": 72}, {"time": 610, "pitch": 65, "duration": 18, "velocity": 80}, {"time": 610, "pitch": 70, "duration": 17, "velocity": 76}, {"time": 634, "pitch": 62, "duration": 36, "velocity": 73}, {"time": 634, "pitch": 65, "duration": 36, "velocity": 82}, {"time": 634, "pitch": 70, "duration": 32, "velocity": 76}, {"time": 676, "pitch": 55, "duration": 7, "velocity": 64}, {"time": 682, "pitch": 62, "duration": 7, "velocity": 95}, {"time": 682, "pitch": 65, "duration": 7, "velocity": 101}, {"time": 682, "pitch": 70, "duration": 8, "velocity": 80}, {"time": 688, "pitch": 55, "duration": 8, "velocity": 73}, {"time": 694, "pitch": 65, "duration": 8, "velocity": 97}, {"time": 700, "pitch": 50, "duration": 2, "velocity": 69}, {"time": 700, "pitch": 67, "duration": 3, "velocity": 76}, {"time": 706, "pitch": 39, "duration": 44, "velocity": 73}, {"time": 706, "pitch": 51, "duration": 21, "velocity": 78}, {"time": 706, "pitch": 58, "duration": 27, "velocity": 93}, {"time": 706, "pitch": 63, "duration": 28, "velocity": 97}, {"time": 706, "pitch": 67, "duration": 29, "velocity": 88}, {"time": 706, "pitch": 70, "duration": 32, "velocity": 67}, {"time": 736, "pitch": 58, "duration": 8, "velocity": 99}, {"time": 742, "pitch": 63, "duration": 5, "velocity": 97}, {"time": 748, "pitch": 65, "duration": 4, "velocity": 78}, {"time": 754, "pitch": 39, "duration": 40, "velocity": 72}, {"time": 754, "pitch": 51, "duration": 19, "velocity": 88}, {"time": 754, "pitch": 58, "duration": 39, "velocity": 95}, {"time": 754, "pitch": 63, "duration": 43, "velocity": 97}, {"time": 754, "pitch": 67, "duration": 43, "velocity": 78}, {"time": 754, "pitch": 70, "duration": 41, "velocity": 75}, {"time": 802, "pitch": 41, "duration": 75, "velocity": 69}, {"time": 802, "pitch": 53, "duration": 75, "velocity": 80}, {"time": 802, "pitch": 60, "duration": 75, "velocity": 75}, {"time": 802, "pitch": 65, "duration": 72, "velocity": 91}, {"time": 802, "pitch": 69, "duration": 75, "velocity": 73}, {"time": 850, "pitch": 63, "duration": 28, "velocity": 62}, {"time": 874, "pitch": 41, "duration": 3, "velocity": 69}, {"time": 874, "pitch": 53, "duration": 3, "velocity": 72}, {"time": 874, "pitch": 60, "duration": 3, "velocity": 72}, {"time": 874, "pitch": 65, "duration": 19, "velocity": 78}, {"time": 874, "pitch": 69, "duration": 3, "velocity": 76}, {"time": 898, "pitch": 46, "duration": 86, "velocity": 70}, {"time": 898, "pitch": 58, "duration": 65, "velocity": 80}, {"time": 898, "pitch": 62, "duration": 18, "velocity": 88}, {"time": 898, "pitch": 65, "duration": 20, "velocity": 93}, {"time": 898, "pitch": 70, "duration": 18, "velocity": 80}, {"time": 922, "pitch": 62, "duration": 18, "velocity": 67}, {"time": 922, "pitch": 65, "duration": 19, "velocity": 72}, {"time": 922, "pitch": 70, "duration": 18, "velocity": 75}, {"time": 946, "pitch": 62, "duration": 26, "velocity": 73}, {"time": 946, "pitch": 65, "duration": 26, "velocity": 76}, {"time": 946, "pitch": 70, "duration": 25, "velocity": 75}, {"time": 970, "pitch": 58, "duration": 12, "velocity": 66}, {"time": 976, "pitch": 62, "duration": 6, "velocity": 88}, {"time": 976, "pitch": 65, "duration": 10, "velocity": 73}, {"time": 976, "pitch": 70, "duration": 6, "velocity": 72}, {"time": 982, "pitch": 53, "duration": 4, "velocity": 72}, {"time": 988, "pitch": 67, "duration": 4, "velocity": 69}, {"time": 991, "pitch": 69, "duration": 4, "velocity": 62}, {"time": 994, "pitch": 43, "duration": 86, "velocity": 66}, {"time": 994, "pitch": 55, "duration": 32, "velocity": 76}, {"time": 994, "pitch": 62, "duration": 18, "velocity": 85}, {"time": 994, "pitch": 65, "duration": 18, "velocity": 85}, {"time": 994, "pitch": 70, "duration": 16, "velocity": 62}, {"time": 1018, "pitch": 62, "duration": 14, "velocity": 69}, {"time": 1018, "pitch": 65, "duration": 14, "velocity": 73}, {"time": 1018, "pitch": 70, "duration": 13, "velocity": 72}, {"time": 1033, "pitch": 55, "duration": 19, "velocity": 31}, {"time": 1042, "pitch": 62, "duration": 16, "velocity": 64}, {"time": 1042, "pitch": 65, "duration": 18, "velocity": 70}, {"time": 1042, "pitch": 70, "duration": 17, "velocity": 64}, {"time": 1060, "pitch": 55, "duration": 8, "velocity": 46}, {"time": 1066, "pitch": 62, "duration": 8, "velocity": 88}, {"time": 1066, "pitch": 65, "duration": 7, "velocity": 88}, {"time": 1066, "pitch": 70, "duration": 9, "velocity": 76}, {"time": 1072, "pitch": 55, "duration": 7, "velocity": 57}, {"time": 1078, "pitch": 65, "duration": 8, "velocity": 99}, {"time": 1084, "pitch": 41, "duration": 3, "velocity": 76}, {"time": 1084, "pitch": 53, "duration": 2, "velocity": 48}, {"time": 1084, "pitch": 67, "duration": 5, "velocity": 72}, {"time": 1090, "pitch": 39, "duration": 11, "velocity": 70}, {"time": 1090, "pitch": 58, "duration": 26, "velocity": 76}, {"time": 1090, "pitch": 63, "duration": 26, "velocity": 80}, {"time": 1090, "pitch": 67, "duration": 25, "velocity": 75}, {"time": 1096, "pitch": 46, "duration": 6, "velocity": 61}, {"time": 1102, "pitch": 51, "duration": 7, "velocity": 61}, {"time": 1108, "pitch": 53, "duration": 19, "velocity": 58}, {"time": 1114, "pitch": 55, "duration": 13, "velocity": 70}, {"time": 1120, "pitch": 58, "duration": 8, "velocity": 85}, {"time": 1126, "pitch": 63, "duration": 7, "velocity": 82}, {"time": 1132, "pitch": 65, "duration": 5, "velocity": 69}, {"time": 1138, "pitch": 39, "duration": 38, "velocity": 73}, {"time": 1138, "pitch": 58, "duration": 18, "velocity": 64}, {"time": 1138, "pitch": 63, "duration": 18, "velocity": 76}, {"time": 1138, "pitch": 70, "duration": 18, "velocity": 76}, {"time": 1156, "pitch": 51, "duration": 8, "velocity": 53}, {"time": 1162, "pitch": 58, "duration": 9, "velocity": 88}, {"time": 1162, "pitch": 63, "duration": 9, "velocity": 97}, {"time": 1162, "pitch": 70, "duration": 9, "velocity": 82}, {"time": 1168, "pitch": 51, "duration": 6, "velocity": 72}, {"time": 1174, "pitch": 65, "duration": 6, "velocity": 93}, {"time": 1186, "pitch": 41, "duration": 13, "velocity": 76}, {"time": 1186, "pitch": 53, "duration": 13, "velocity": 91}, {"time": 1186, "pitch": 60, "duration": 14, "velocity": 95}, {"time": 1186, "pitch": 65, "duration": 13, "velocity": 93}, {"time": 1186, "pitch": 69, "duration": 13, "velocity": 76}, {"time": 1204, "pitch": 41, "duration": 69, "velocity": 76}, {"time": 1204, "pitch": 53, "duration": 53, "velocity": 80}, {"time": 1204, "pitch": 60, "duration": 61, "velocity": 80}, {"time": 1204, "pitch": 65, "duration": 62, "velocity": 76}, {"time": 1204, "pitch": 69, "duration": 62, "velocity": 78}, {"time": 1264, "pitch": 53, "duration": 11, "velocity": 59}, {"time": 1270, "pitch": 58, "duration": 7, "velocity": 82}, {"time": 1270, "pitch": 63, "duration": 7, "velocity": 78}, {"time": 1270, "pitch": 67, "duration": 7, "velocity": 72}, {"time": 1276, "pitch": 65, "duration": 2, "velocity": 80}, {"time": 1282, "pitch": 39, "duration": 38, "velocity": 69}, {"time": 1288, "pitch": 46, "duration": 33, "velocity": 73}, {"time": 1294, "pitch": 51, "duration": 26, "velocity": 80}, {"time": 1300, "pitch": 58, "duration": 20, "velocity": 72}, {"time": 1300, "pitch": 63, "duration": 22, "velocity": 76}, {"time": 1300, "pitch": 67, "duration": 23, "velocity": 75}, {"time": 1330, "pitch": 41, "duration": 43, "velocity": 76}, {"time": 1330, "pitch": 58, "duration": 22, "velocity": 67}, {"time": 1330, "pitch": 63, "duration": 25, "velocity": 73}, {"time": 1330, "pitch": 67, "duration": 25, "velocity": 73}, {"time": 1348, "pitch": 48, "duration": 30, "velocity": 59}, {"time": 1354, "pitch": 53, "duration": 19, "velocity": 66}, {"time": 1360, "pitch": 58, "duration": 7, "velocity": 62}, {"time": 1366, "pitch": 63, "duration": 8, "velocity": 73}, {"time": 1372, "pitch": 65, "duration": 4, "velocity": 69}, {"time": 1378, "pitch": 46, "duration": 42, "velocity": 73}, {"time": 1378, "pitch": 62, "duration": 13, "velocity": 76}, {"time": 1378, "pitch": 65, "duration": 13, "velocity": 78}, {"time": 1378, "pitch": 70, "duration": 14, "velocity": 76}, {"time": 1384, "pitch": 53, "duration": 23, "velocity": 52}, {"time": 1390, "pitch": 58, "duration": 31, "velocity": 76}, {"time": 1396, "pitch": 62, "duration": 10, "velocity": 85}, {"time": 1408, "pitch": 62, "duration": 1, "velocity": 46}, {"time": 1408, "pitch": 65, "duration": 6, "velocity": 95}, {"time": 1420, "pitch": 53, "duration": 46, "velocity": 58}, {"time": 1426, "pitch": 46, "duration": 35, "velocity": 67}, {"time": 1426, "pitch": 58, "duration": 26, "velocity": 67}, {"time": 1426, "pitch": 60, "duration": 31, "velocity": 67}, {"time": 1426, "pitch": 62, "duration": 31, "velocity": 75}, {"time": 1426, "pitch": 65, "duration": 26, "velocity": 46}, {"time": 1426, "pitch": 70, "duration": 25, "velocity": 25}, {"time": 1450, "pitch": 65, "duration": 2, "velocity": 75}, {"time": 1450, "pitch": 60, "duration": 7, "velocity": 69}, {"time": 1450, "pitch": 41, "duration": 16, "velocity": 60}, {"time": 1450, "pitch": 69, "duration": 16, "velocity": 69}, {"time": 1451, "pitch": 53, "duration": 15, "velocity": 64}, {"time": 1474, "pitch": 46, "duration": 36, "velocity": 75}, {"time": 1474, "pitch": 62, "duration": 13, "velocity": 78}, {"time": 1474, "pitch": 65, "duration": 13, "velocity": 82}, {"time": 1474, "pitch": 70, "duration": 14, "velocity": 80}, {"time": 1480, "pitch": 53, "duration": 31, "velocity": 55}, {"time": 1486, "pitch": 58, "duration": 1, "velocity": 82}, {"time": 1492, "pitch": 62, "duration": 10, "velocity": 95}, {"time": 1504, "pitch": 62, "duration": 6, "velocity": 75}, {"time": 1504, "pitch": 65, "duration": 7, "velocity": 101}, {"time": 1504, "pitch": 70, "duration": 6, "velocity": 73}, {"time": 1510, "pitch": 58, "duration": 2, "velocity": 56}, {"time": 1522, "pitch": 50, "duration": 40, "velocity": 76}, {"time": 1522, "pitch": 60, "duration": 9, "velocity": 91}, {"time": 1522, "pitch": 66, "duration": 9, "velocity": 97}, {"time": 1522, "pitch": 69, "duration": 8, "velocity": 91}, {"time": 1528, "pitch": 57, "duration": 23, "velocity": 59}, {"time": 1534, "pitch": 60, "duration": 15, "velocity": 78}, {"time": 1540, "pitch": 66, "duration": 10, "velocity": 103}, {"time": 1552, "pitch": 69, "duration": 10, "velocity": 101}, {"time": 1558, "pitch": 57, "duration": 3, "velocity": 62}, {"time": 1564, "pitch": 67, "duration": 32, "velocity": 85}, {"time": 1567, "pitch": 69, "duration": 2, "velocity": 63}, {"time": 1570, "pitch": 43, "duration": 11, "velocity": 72}, {"time": 1570, "pitch": 62, "duration": 26, "velocity": 82}, {"time": 1570, "pitch": 70, "duration": 25, "velocity": 70}, {"time": 1576, "pitch": 50, "duration": 7, "velocity": 62}, {"time": 1582, "pitch": 55, "duration": 7, "velocity": 73}, {"time": 1588, "pitch": 57, "duration": 19, "velocity": 76}, {"time": 1594, "pitch": 58, "duration": 13, "velocity": 64}, {"time": 1600, "pitch": 62, "duration": 4, "velocity": 95}, {"time": 1606, "pitch": 62, "duration": 2, "velocity": 44}, {"time": 1606, "pitch": 67, "duration": 5, "velocity": 88}, {"time": 1612, "pitch": 70, "duration": 3, "velocity": 67}, {"time": 1618, "pitch": 41, "duration": 10, "velocity": 76}, {"time": 1618, "pitch": 62, "duration": 25, "velocity": 88}, {"time": 1618, "pitch": 69, "duration": 25, "velocity": 76}, {"time": 1624, "pitch": 50, "duration": 6, "velocity": 63}, {"time": 1630, "pitch": 53, "duration": 7, "velocity": 49}, {"time": 1636, "pitch": 55, "duration": 6, "velocity": 70}, {"time": 1642, "pitch": 58, "duration": 12, "velocity": 73}, {"time": 1648, "pitch": 65, "duration": 4, "velocity": 101}, {"time": 1654, "pitch": 69, "duration": 6, "velocity": 103}, {"time": 1660, "pitch": 70, "duration": 27, "velocity": 78}, {"time": 1666, "pitch": 39, "duration": 40, "velocity": 73}, {"time": 1666, "pitch": 58, "duration": 13, "velocity": 99}, {"time": 1666, "pitch": 63, "duration": 17, "velocity": 88}, {"time": 1666, "pitch": 67, "duration": 18, "velocity": 88}, {"time": 1672, "pitch": 46, "duration": 38, "velocity": 69}, {"time": 1678, "pitch": 51, "duration": 14, "velocity": 63}, {"time": 1684, "pitch": 58, "duration": 3, "velocity": 42}, {"time": 1690, "pitch": 58, "duration": 7, "velocity": 80}, {"time": 1690, "pitch": 63, "duration": 8, "velocity": 73}, {"time": 1690, "pitch": 67, "duration": 8, "velocity": 73}, {"time": 1690, "pitch": 70, "duration": 6, "velocity": 63}, {"time": 1696, "pitch": 51, "duration": 9, "velocity": 67}, {"time": 1702, "pitch": 58, "duration": 5, "velocity": 73}, {"time": 1702, "pitch": 67, "duration": 4, "velocity": 60}, {"time": 1708, "pitch": 63, "duration": 3, "velocity": 63}, {"time": 1708, "pitch": 67, "duration": 3, "velocity": 56}, {"time": 1714, "pitch": 38, "duration": 40, "velocity": 88}, {"time": 1714, "pitch": 60, "duration": 14, "velocity": 93}, {"time": 1714, "pitch": 65, "duration": 13, "velocity": 64}, {"time": 1714, "pitch": 67, "duration": 13, "velocity": 80}, {"time": 1720, "pitch": 46, "duration": 33, "velocity": 62}, {"time": 1726, "pitch": 50, "duration": 15, "velocity": 66}, {"time": 1732, "pitch": 60, "duration": 7, "velocity": 80}, {"time": 1738, "pitch": 65, "duration": 4, "velocity": 85}, {"time": 1744, "pitch": 67, "duration": 5, "velocity": 91}, {"time": 1750, "pitch": 69, "duration": 6, "velocity": 82}, {"time": 1756, "pitch": 70, "duration": 23, "velocity": 72}, {"time": 1762, "pitch": 36, "duration": 2, "velocity": 75}, {"time": 1762, "pitch": 48, "duration": 3, "velocity": 88}, {"time": 1762, "pitch": 58, "duration": 2, "velocity": 82}, {"time": 1762, "pitch": 63, "duration": 3, "velocity": 99}, {"time": 1762, "pitch": 67, "duration": 3, "velocity": 99}, {"time": 1768, "pitch": 38, "duration": 2, "velocity": 80}, {"time": 1768, "pitch": 50, "duration": 2, "velocity": 99}, {"time": 1768, "pitch": 58, "duration": 2, "velocity": 85}, {"time": 1768, "pitch": 65, "duration": 3, "velocity": 88}, {"time": 1774, "pitch": 39, "duration": 7, "velocity": 80}, {"time": 1774, "pitch": 51, "duration": 7, "velocity": 101}, {"time": 1774, "pitch": 58, "duration": 6, "velocity": 97}, {"time": 1774, "pitch": 63, "duration": 6, "velocity": 99}, {"time": 1774, "pitch": 67, "duration": 6, "velocity": 93}, {"time": 1786, "pitch": 39, "duration": 18, "velocity": 88}, {"time": 1786, "pitch": 51, "duration": 11, "velocity": 95}, {"time": 1786, "pitch": 58, "duration": 17, "velocity": 99}, {"time": 1786, "pitch": 63, "duration": 17, "velocity": 103}, {"time": 1786, "pitch": 67, "duration": 16, "velocity": 97}, {"time": 1786, "pitch": 70, "duration": 13, "velocity": 69}, {"time": 1804, "pitch": 51, "duration": 3, "velocity": 97}, {"time": 1810, "pitch": 41, "duration": 43, "velocity": 91}, {"time": 1810, "pitch": 58, "duration": 12, "velocity": 93}, {"time": 1810, "pitch": 63, "duration": 12, "velocity": 99}, {"time": 1810, "pitch": 67, "duration": 11, "velocity": 97}, {"time": 1810, "pitch": 70, "duration": 12, "velocity": 67}, {"time": 1816, "pitch": 48, "duration": 30, "velocity": 61}, {"time": 1822, "pitch": 53, "duration": 18, "velocity": 93}, {"time": 1828, "pitch": 58, "duration": 4, "velocity": 75}, {"time": 1834, "pitch": 63, "duration": 3, "velocity": 88}, {"time": 1840, "pitch": 58, "duration": 7, "velocity": 95}, {"time": 1840, "pitch": 63, "duration": 8, "velocity": 101}, {"time": 1840, "pitch": 67, "duration": 8, "velocity": 97}, {"time": 1846, "pitch": 53, "duration": 7, "velocity": 75}, {"time": 1852, "pitch": 48, "duration": 2, "velocity": 62}, {"time": 1852, "pitch": 58, "duration": 2, "velocity": 64}, {"time": 1858, "pitch": 46, "duration": 38, "velocity": 80}, {"time": 1858, "pitch": 62, "duration": 11, "velocity": 85}, {"time": 1858, "pitch": 65, "duration": 11, "velocity": 88}, {"time": 1858, "pitch": 70, "duration": 11, "velocity": 78}, {"time": 1864, "pitch": 53, "duration": 26, "velocity": 67}, {"time": 1870, "pitch": 58, "duration": 18, "velocity": 97}, {"time": 1876, "pitch": 65, "duration": 3, "velocity": 47}, {"time": 1882, "pitch": 65, "duration": 1, "velocity": 40}, {"time": 1882, "pitch": 70, "duration": 3, "velocity": 67}, {"time": 1888, "pitch": 65, "duration": 8, "velocity": 95}, {"time": 1888, "pitch": 70, "duration": 7, "velocity": 101}, {"time": 1888, "pitch": 77, "duration": 6, "velocity": 85}, {"time": 1894, "pitch": 53, "duration": 2, "velocity": 63}, {"time": 1894, "pitch": 58, "duration": 2, "velocity": 85}, {"time": 1906, "pitch": 38, "duration": 21, "velocity": 80}, {"time": 1906, "pitch": 62, "duration": 8, "velocity": 93}, {"time": 1906, "pitch": 66, "duration": 8, "velocity": 103}, {"time": 1912, "pitch": 50, "duration": 15, "velocity": 50}, {"time": 1918, "pitch": 62, "duration": 7, "velocity": 75}, {"time": 1924, "pitch": 66, "duration": 3, "velocity": 82}, {"time": 1930, "pitch": 38, "duration": 2, "velocity": 82}, {"time": 1930, "pitch": 50, "duration": 2, "velocity": 76}, {"time": 1930, "pitch": 62, "duration": 2, "velocity": 82}, {"time": 1930, "pitch": 67, "duration": 3, "velocity": 97}, {"time": 1936, "pitch": 62, "duration": 5, "velocity": 80}, {"time": 1936, "pitch": 66, "duration": 12, "velocity": 103}, {"time": 1936, "pitch": 69, "duration": 10, "velocity": 95}, {"time": 1948, "pitch": 50, "duration": 4, "velocity": 88}, {"time": 1948, "pitch": 62, "duration": 4, "velocity": 72}, {"time": 1954, "pitch": 43, "duration": 43, "velocity": 82}, {"time": 1954, "pitch": 62, "duration": 13, "velocity": 78}, {"time": 1954, "pitch": 65, "duration": 13, "velocity": 88}, {"time": 1954, "pitch": 70, "duration": 13, "velocity": 72}, {"time": 1960, "pitch": 50, "duration": 31, "velocity": 66}, {"time": 1966, "pitch": 55, "duration": 19, "velocity": 70}, {"time": 1972, "pitch": 62, "duration": 4, "velocity": 75}, {"time": 1978, "pitch": 65, "duration": 3, "velocity": 72}, {"time": 1984, "pitch": 62, "duration": 9, "velocity": 97}, {"time": 1984, "pitch": 70, "duration": 11, "velocity": 73}, {"time": 1990, "pitch": 55, "duration": 6, "velocity": 80}, {"time": 1996, "pitch": 50, "duration": 5, "velocity": 70}, {"time": 1996, "pitch": 70, "duration": 3, "velocity": 53}, {"time": 2002, "pitch": 50, "duration": 35, "velocity": 80}, {"time": 2002, "pitch": 60, "duration": 8, "velocity": 73}, {"time": 2002, "pitch": 65, "duration": 8, "velocity": 80}, {"time": 2002, "pitch": 69, "duration": 8, "velocity": 69}, {"time": 2008, "pitch": 57, "duration": 16, "velocity": 63}, {"time": 2014, "pitch": 60, "duration": 4, "velocity": 62}, {"time": 2020, "pitch": 60, "duration": 11, "velocity": 49}, {"time": 2020, "pitch": 65, "duration": 11, "velocity": 75}, {"time": 2032, "pitch": 57, "duration": 4, "velocity": 64}, {"time": 2038, "pitch": 60, "duration": 6, "velocity": 78}, {"time": 2038, "pitch": 65, "duration": 10, "velocity": 97}, {"time": 2050, "pitch": 39, "duration": 40, "velocity": 76}, {"time": 2050, "pitch": 58, "duration": 10, "velocity": 82}, {"time": 2050, "pitch": 63, "duration": 10, "velocity": 82}, {"time": 2050, "pitch": 67, "duration": 8, "velocity": 69}, {"time": 2056, "pitch": 46, "duration": 21, "velocity": 59}, {"time": 2062, "pitch": 51, "duration": 12, "velocity": 70}, {"time": 2068, "pitch": 58, "duration": 4, "velocity": 63}, {"time": 2074, "pitch": 58, "duration": 7, "velocity": 75}, {"time": 2074, "pitch": 63, "duration": 7, "velocity": 73}, {"time": 2074, "pitch": 67, "duration": 7, "velocity": 75}, {"time": 2080, "pitch": 46, "duration": 8, "velocity": 31}, {"time": 2080, "pitch": 51, "duration": 9, "velocity": 95}, {"time": 2086, "pitch": 58, "duration": 4, "velocity": 80}, {"time": 2092, "pitch": 65, "duration": 4, "velocity": 78}, {"time": 2098, "pitch": 50, "duration": 35, "velocity": 73}, {"time": 2098, "pitch": 60, "duration": 9, "velocity": 85}, {"time": 2098, "pitch": 65, "duration": 9, "velocity": 91}, {"time": 2098, "pitch": 69, "duration": 10, "velocity": 80}, {"time": 2104, "pitch": 57, "duration": 15, "velocity": 67}, {"time": 2110, "pitch": 67, "duration": 4, "velocity": 61}, {"time": 2116, "pitch": 62, "duration": 4, "velocity": 70}, {"time": 2116, "pitch": 69, "duration": 18, "velocity": 97}, {"time": 2128, "pitch": 57, "duration": 4, "velocity": 66}, {"time": 2134, "pitch": 62, "duration": 2, "velocity": 80}, {"time": 2134, "pitch": 70, "duration": 7, "velocity": 66}, {"time": 2146, "pitch": 36, "duration": 3, "velocity": 73}, {"time": 2146, "pitch": 48, "duration": 3, "velocity": 76}, {"time": 2146, "pitch": 58, "duration": 3, "velocity": 76}, {"time": 2146, "pitch": 63, "duration": 3, "velocity": 85}, {"time": 2146, "pitch": 67, "duration": 4, "velocity": 91}, {"time": 2152, "pitch": 38, "duration": 2, "velocity": 70}, {"time": 2152, "pitch": 50, "duration": 2, "velocity": 80}, {"time": 2152, "pitch": 58, "duration": 2, "velocity": 80}, {"time": 2152, "pitch": 65, "duration": 3, "velocity": 82}, {"time": 2158, "pitch": 39, "duration": 14, "velocity": 69}, {"time": 2158, "pitch": 51, "duration": 2, "velocity": 85}, {"time": 2158, "pitch": 58, "duration": 6, "velocity": 80}, {"time": 2158, "pitch": 63, "duration": 7, "velocity": 91}, {"time": 2158, "pitch": 67, "duration": 7, "velocity": 82}, {"time": 2164, "pitch": 51, "duration": 8, "velocity": 85}, {"time": 2170, "pitch": 58, "duration": 3, "velocity": 63}, {"time": 2176, "pitch": 39, "duration": 12, "velocity": 72}, {"time": 2176, "pitch": 51, "duration": 6, "velocity": 93}, {"time": 2176, "pitch": 58, "duration": 8, "velocity": 93}, {"time": 2176, "pitch": 63, "duration": 10, "velocity": 97}, {"time": 2176, "pitch": 67, "duration": 9, "velocity": 91}, {"time": 2188, "pitch": 51, "duration": 3, "velocity": 66}, {"time": 2194, "pitch": 41, "duration": 37, "velocity": 88}, {"time": 2194, "pitch": 58, "duration": 10, "velocity": 95}, {"time": 2194, "pitch": 63, "duration": 15, "velocity": 99}, {"time": 2194, "pitch": 67, "duration": 12, "velocity": 85}, {"time": 2194, "pitch": 70, "duration": 9, "velocity": 46}, {"time": 2212, "pitch": 53, "duration": 7, "velocity": 75}, {"time": 2218, "pitch": 58, "duration": 7, "velocity": 95}, {"time": 2218, "pitch": 63, "duration": 8, "velocity": 103}, {"time": 2218, "pitch": 67, "duration": 8, "velocity": 97}, {"time": 2224, "pitch": 53, "duration": 10, "velocity": 62}, {"time": 2230, "pitch": 58, "duration": 6, "velocity": 70}, {"time": 2230, "pitch": 65, "duration": 5, "velocity": 80}, {"time": 2236, "pitch": 67, "duration": 4, "velocity": 64}, {"time": 2242, "pitch": 46, "duration": 87, "velocity": 72}, {"time": 2242, "pitch": 62, "duration": 11, "velocity": 91}, {"time": 2242, "pitch": 65, "duration": 12, "velocity": 95}, {"time": 2242, "pitch": 70, "duration": 10, "velocity": 73}, {"time": 2248, "pitch": 53, "duration": 30, "velocity": 67}, {"time": 2254, "pitch": 58, "duration": 18, "velocity": 75}, {"time": 2260, "pitch": 63, "duration": 9, "velocity": 85}, {"time": 2272, "pitch": 62, "duration": 5, "velocity": 93}, {"time": 2272, "pitch": 65, "duration": 6, "velocity": 95}, {"time": 2281, "pitch": 58, "duration": 16, "velocity": 51}, {"time": 2290, "pitch": 70, "duration": 20, "velocity": 54}, {"time": 2290, "pitch": 82, "duration": 26, "velocity": 66}, {"time": 2314, "pitch": 70, "duration": 7, "velocity": 55}, {"time": 2314, "pitch": 77, "duration": 9, "velocity": 69}, {"time": 2326, "pitch": 70, "duration": 2, "velocity": 59}, {"time": 2326, "pitch": 75, "duration": 2, "velocity": 66}, {"time": 2338, "pitch": 39, "duration": 37, "velocity": 49}, {"time": 2338, "pitch": 51, "duration": 28, "velocity": 69}, {"time": 2338, "pitch": 58, "duration": 18, "velocity": 82}, {"time": 2338, "pitch": 63, "duration": 16, "velocity": 73}, {"time": 2341, "pitch": 55, "duration": 16, "velocity": 33}, {"time": 2362, "pitch": 55, "duration": 13, "velocity": 52}, {"time": 2362, "pitch": 58, "duration": 13, "velocity": 66}, {"time": 2362, "pitch": 63, "duration": 12, "velocity": 62}, {"time": 2374, "pitch": 51, "duration": 2, "velocity": 40}, {"time": 2386, "pitch": 38, "duration": 18, "velocity": 64}, {"time": 2386, "pitch": 50, "duration": 15, "velocity": 48}, {"time": 2386, "pitch": 53, "duration": 11, "velocity": 54}, {"time": 2386, "pitch": 57, "duration": 11, "velocity": 63}, {"time": 2386, "pitch": 60, "duration": 11, "velocity": 60}, {"time": 2410, "pitch": 53, "duration": 13, "velocity": 58}, {"time": 2410, "pitch": 57, "duration": 9, "velocity": 62}, {"time": 2410, "pitch": 60, "duration": 12, "velocity": 64}, {"time": 2428, "pitch": 37, "duration": 4, "velocity": 57}, {"time": 2434, "pitch": 36, "duration": 5, "velocity": 70}, {"time": 2434, "pitch": 55, "duration": 18, "velocity": 63}, {"time": 2434, "pitch": 58, "duration": 18, "velocity": 69}, {"time": 2434, "pitch": 63, "duration": 18, "velocity": 66}, {"time": 2455, "pitch": 55, "duration": 16, "velocity": 45}, {"time": 2455, "pitch": 58, "duration": 16, "velocity": 59}, {"time": 2455, "pitch": 63, "duration": 15, "velocity": 46}, {"time": 2482, "pitch": 34, "duration": 16, "velocity": 56}, {"time": 2482, "pitch": 53, "duration": 15, "velocity": 67}, {"time": 2482, "pitch": 57, "duration": 16, "velocity": 69}, {"time": 2482, "pitch": 62, "duration": 15, "velocity": 72}, {"time": 2506, "pitch": 34, "duration": 4, "velocity": 63}, {"time": 2506, "pitch": 53, "duration": 2, "velocity": 67}, {"time": 2506, "pitch": 57, "duration": 3, "velocity": 61}, {"time": 2506, "pitch": 62, "duration": 2, "velocity": 72}, {"time": 2512, "pitch": 36, "duration": 8, "velocity": 64}, {"time": 2512, "pitch": 55, "duration": 3, "velocity": 63}, {"time": 2512, "pitch": 58, "duration": 4, "velocity": 64}, {"time": 2512, "pitch": 62, "duration": 3, "velocity": 66}, {"time": 2518, "pitch": 38, "duration": 3, "velocity": 62}, {"time": 2518, "pitch": 58, "duration": 3, "velocity": 69}, {"time": 2518, "pitch": 63, "duration": 3, "velocity": 67}, {"time": 2530, "pitch": 38, "duration": 4, "velocity": 58}, {"time": 2530, "pitch": 39, "duration": 41, "velocity": 58}, {"time": 2530, "pitch": 50, "duration": 4, "velocity": 54}, {"time": 2530, "pitch": 51, "duration": 10, "velocity": 54}, {"time": 2530, "pitch": 55, "duration": 12, "velocity": 63}, {"time": 2530, "pitch": 58, "duration": 13, "velocity": 75}, {"time": 2530, "pitch": 65, "duration": 13, "velocity": 75}, {"time": 2545, "pitch": 51, "duration": 3, "velocity": 34}, {"time": 2548, "pitch": 58, "duration": 12, "velocity": 73}, {"time": 2548, "pitch": 67, "duration": 12, "velocity": 75}, {"time": 2560, "pitch": 51, "duration": 9, "velocity": 51}, {"time": 2566, "pitch": 58, "duration": 3, "velocity": 91}, {"time": 2566, "pitch": 67, "duration": 7, "velocity": 80}, {"time": 2572, "pitch": 46, "duration": 3, "velocity": 66}, {"time": 2578, "pitch": 38, "duration": 38, "velocity": 70}, {"time": 2578, "pitch": 57, "duration": 10, "velocity": 76}, {"time": 2578, "pitch": 60, "duration": 12, "velocity": 88}, {"time": 2578, "pitch": 65, "duration": 10, "velocity": 69}, {"time": 2590, "pitch": 50, "duration": 17, "velocity": 44}, {"time": 2596, "pitch": 57, "duration": 8, "velocity": 53}, {"time": 2608, "pitch": 57, "duration": 7, "velocity": 73}, {"time": 2608, "pitch": 60, "duration": 8, "velocity": 76}, {"time": 2608, "pitch": 65, "duration": 8, "velocity": 75}, {"time": 2614, "pitch": 50, "duration": 2, "velocity": 54}, {"time": 2620, "pitch": 57, "duration": 3, "velocity": 47}, {"time": 2626, "pitch": 36, "duration": 37, "velocity": 69}, {"time": 2626, "pitch": 48, "duration": 9, "velocity": 60}, {"time": 2626, "pitch": 60, "duration": 19, "velocity": 63}, {"time": 2626, "pitch": 64, "duration": 14, "velocity": 73}, {"time": 2626, "pitch": 67, "duration": 15, "velocity": 69}, {"time": 2626, "pitch": 69, "duration": 16, "velocity": 70}, {"time": 2644, "pitch": 48, "duration": 9, "velocity": 44}, {"time": 2650, "pitch": 60, "duration": 14, "velocity": 75}, {"time": 2650, "pitch": 64, "duration": 11, "velocity": 93}, {"time": 2650, "pitch": 67, "duration": 10, "velocity": 75}, {"time": 2650, "pitch": 69, "duration": 14, "velocity": 76}, {"time": 2662, "pitch": 48, "duration": 3, "velocity": 58}, {"time": 2674, "pitch": 45, "duration": 3, "velocity": 56}, {"time": 2674, "pitch": 61, "duration": 3, "velocity": 59}, {"time": 2674, "pitch": 64, "duration": 3, "velocity": 57}, {"time": 2674, "pitch": 69, "duration": 4, "velocity": 46}, {"time": 2680, "pitch": 45, "duration": 3, "velocity": 63}, {"time": 2680, "pitch": 61, "duration": 3, "velocity": 55}, {"time": 2680, "pitch": 64, "duration": 3, "velocity": 62}, {"time": 2680, "pitch": 69, "duration": 4, "velocity": 49}, {"time": 2686, "pitch": 45, "duration": 3, "velocity": 69}, {"time": 2686, "pitch": 61, "duration": 3, "velocity": 62}, {"time": 2686, "pitch": 64, "duration": 3, "velocity": 67}, {"time": 2686, "pitch": 69, "duration": 3, "velocity": 61}, {"time": 2692, "pitch": 45, "duration": 7, "velocity": 76}, {"time": 2692, "pitch": 61, "duration": 12, "velocity": 85}, {"time": 2692, "pitch": 64, "duration": 12, "velocity": 93}, {"time": 2692, "pitch": 69, "duration": 9, "velocity": 82}, {"time": 2704, "pitch": 45, "duration": 7, "velocity": 63}, {"time": 2710, "pitch": 61, "duration": 4, "velocity": 78}, {"time": 2710, "pitch": 64, "duration": 4, "velocity": 82}, {"time": 2710, "pitch": 69, "duration": 4, "velocity": 82}, {"time": 2716, "pitch": 45, "duration": 2, "velocity": 59}, {"time": 2722, "pitch": 50, "duration": 32, "velocity": 72}, {"time": 2722, "pitch": 57, "duration": 30, "velocity": 67}, {"time": 2722, "pitch": 62, "duration": 14, "velocity": 72}, {"time": 2722, "pitch": 64, "duration": 20, "velocity": 82}, {"time": 2722, "pitch": 66, "duration": 22, "velocity": 85}, {"time": 2722, "pitch": 69, "duration": 22, "velocity": 85}, {"time": 2722, "pitch": 74, "duration": 21, "velocity": 80}, {"time": 2740, "pitch": 62, "duration": 13, "velocity": 38}, {"time": 2746, "pitch": 66, "duration": 14, "velocity": 93}, {"time": 2746, "pitch": 69, "duration": 14, "velocity": 95}, {"time": 2746, "pitch": 74, "duration": 14, "velocity": 82}, {"time": 2758, "pitch": 50, "duration": 2, "velocity": 50}, {"time": 2758, "pitch": 57, "duration": 3, "velocity": 72}, {"time": 2770, "pitch": 52, "duration": 36, "velocity": 72}, {"time": 2770, "pitch": 59, "duration": 25, "velocity": 72}, {"time": 2770, "pitch": 62, "duration": 19, "velocity": 80}, {"time": 2770, "pitch": 67, "duration": 20, "velocity": 91}, {"time": 2770, "pitch": 71, "duration": 15, "velocity": 75}, {"time": 2770, "pitch": 74, "duration": 1, "velocity": 47}, {"time": 2794, "pitch": 62, "duration": 7, "velocity": 85}, {"time": 2794, "pitch": 67, "duration": 8, "velocity": 88}, {"time": 2794, "pitch": 71, "duration": 8, "velocity": 78}, {"time": 2800, "pitch": 59, "duration": 7, "velocity": 61}, {"time": 2806, "pitch": 69, "duration": 7, "velocity": 75}, {"time": 2812, "pitch": 71, "duration": 5, "velocity": 63}, {"time": 2818, "pitch": 54, "duration": 32, "velocity": 67}, {"time": 2818, "pitch": 64, "duration": 8, "velocity": 80}, {"time": 2818, "pitch": 69, "duration": 9, "velocity": 82}, {"time": 2824, "pitch": 61, "duration": 15, "velocity": 63}, {"time": 2830, "pitch": 64, "duration": 4, "velocity": 67}, {"time": 2836, "pitch": 64, "duration": 12, "velocity": 69}, {"time": 2836, "pitch": 69, "duration": 12, "velocity": 93}, {"time": 2836, "pitch": 76, "duration": 11, "velocity": 85}, {"time": 2848, "pitch": 61, "duration": 2, "velocity": 72}, {"time": 2854, "pitch": 71, "duration": 7, "velocity": 95}, {"time": 2860, "pitch": 73, "duration": 4, "velocity": 66}, {"time": 2866, "pitch": 43, "duration": 9, "velocity": 69}, {"time": 2866, "pitch": 62, "duration": 12, "velocity": 76}, {"time": 2866, "pitch": 67, "duration": 23, "velocity": 88}, {"time": 2866, "pitch": 74, "duration": 24, "velocity": 80}, {"time": 2872, "pitch": 50, "duration": 5, "velocity": 59}, {"time": 2878, "pitch": 55, "duration": 7, "velocity": 56}, {"time": 2884, "pitch": 57, "duration": 17, "velocity": 61}, {"time": 2890, "pitch": 59, "duration": 13, "velocity": 61}, {"time": 2896, "pitch": 62, "duration": 3, "velocity": 82}, {"time": 2902, "pitch": 67, "duration": 4, "velocity": 95}, {"time": 2908, "pitch": 74, "duration": 3, "velocity": 70}, {"time": 2914, "pitch": 44, "duration": 36, "velocity": 73}, {"time": 2914, "pitch": 56, "duration": 9, "velocity": 69}, {"time": 2914, "pitch": 59, "duration": 14, "velocity": 75}, {"time": 2914, "pitch": 62, "duration": 13, "velocity": 78}, {"time": 2914, "pitch": 68, "duration": 13, "velocity": 76}, {"time": 2926, "pitch": 56, "duration": 18, "velocity": 45}, {"time": 2932, "pitch": 59, "duration": 9, "velocity": 61}, {"time": 2944, "pitch": 59, "duration": 7, "velocity": 72}, {"time": 2944, "pitch": 62, "duration": 7, "velocity": 82}, {"time": 2944, "pitch": 68, "duration": 7, "velocity": 78}, {"time": 2950, "pitch": 56, "duration": 3, "velocity": 58}, {"time": 2956, "pitch": 61, "duration": 2, "velocity": 43}, {"time": 2962, "pitch": 49, "duration": 39, "velocity": 72}, {"time": 2962, "pitch": 61, "duration": 8, "velocity": 76}, {"time": 2962, "pitch": 65, "duration": 11, "velocity": 99}, {"time": 2968, "pitch": 56, "duration": 24, "velocity": 58}, {"time": 2974, "pitch": 61, "duration": 4, "velocity": 58}, {"time": 2980, "pitch": 63, "duration": 9, "velocity": 80}, {"time": 2980, "pitch": 68, "duration": 3, "velocity": 56}, {"time": 2992, "pitch": 61, "duration": 7, "velocity": 76}, {"time": 2992, "pitch": 68, "duration": 5, "velocity": 80}, {"time": 2998, "pitch": 56, "duration": 2, "velocity": 73}, {"time": 3004, "pitch": 66, "duration": 2, "velocity": 60}, {"time": 3010, "pitch": 42, "duration": 42, "velocity": 75}, {"time": 3010, "pitch": 61, "duration": 7, "velocity": 76}, {"time": 3010, "pitch": 66, "duration": 11, "velocity": 76}, {"time": 3010, "pitch": 70, "duration": 8, "velocity": 64}, {"time": 3016, "pitch": 49, "duration": 39, "velocity": 70}, {"time": 3022, "pitch": 54, "duration": 19, "velocity": 63}, {"time": 3028, "pitch": 61, "duration": 7, "velocity": 69}, {"time": 3028, "pitch": 68, "duration": 9, "velocity": 85}, {"time": 3040, "pitch": 61, "duration": 5, "velocity": 78}, {"time": 3040, "pitch": 66, "duration": 8, "velocity": 78}, {"time": 3040, "pitch": 70, "duration": 7, "velocity": 75}, {"time": 3046, "pitch": 54, "duration": 5, "velocity": 57}, {"time": 3052, "pitch": 68, "duration": 4, "velocity": 50}, {"time": 3055, "pitch": 70, "duration": 2, "velocity": 63}, {"time": 3058, "pitch": 48, "duration": 40, "velocity": 66}, {"time": 3058, "pitch": 58, "duration": 14, "velocity": 85}, {"time": 3058, "pitch": 63, "duration": 14, "velocity": 82}, {"time": 3058, "pitch": 67, "duration": 14, "velocity": 80}, {"time": 3058, "pitch": 70, "duration": 14, "velocity": 72}, {"time": 3070, "pitch": 55, "duration": 26, "velocity": 69}, {"time": 3076, "pitch": 58, "duration": 5, "velocity": 66}, {"time": 3082, "pitch": 63, "duration": 7, "velocity": 70}, {"time": 3088, "pitch": 67, "duration": 3, "velocity": 75}, {"time": 3094, "pitch": 70, "duration": 7, "velocity": 82}, {"time": 3100, "pitch": 75, "duration": 5, "velocity": 66}, {"time": 3106, "pitch": 41, "duration": 81, "velocity": 75}, {"time": 3106, "pitch": 69, "duration": 26, "velocity": 78}, {"time": 3106, "pitch": 72, "duration": 24, "velocity": 88}, {"time": 3136, "pitch": 70, "duration": 5, "velocity": 72}, {"time": 3142, "pitch": 72, "duration": 1, "velocity": 45}, {"time": 3148, "pitch": 77, "duration": 31, "velocity": 35}, {"time": 3154, "pitch": 48, "duration": 31, "velocity": 57}, {"time": 3154, "pitch": 89, "duration": 20, "velocity": 75}, {"time": 3202, "pitch": 46, "duration": 87, "velocity": 73}, {"time": 3202, "pitch": 58, "duration": 78, "velocity": 78}, {"time": 3202, "pitch": 62, "duration": 16, "velocity": 78}, {"time": 3202, "pitch": 65, "duration": 17, "velocity": 91}, {"time": 3202, "pitch": 70, "duration": 17, "velocity": 72}, {"time": 3226, "pitch": 62, "duration": 17, "velocity": 69}, {"time": 3226, "pitch": 65, "duration": 17, "velocity": 85}, {"time": 3226, "pitch": 70, "duration": 17, "velocity": 69}, {"time": 3250, "pitch": 62, "duration": 17, "velocity": 49}, {"time": 3250, "pitch": 65, "duration": 17, "velocity": 63}, {"time": 3250, "pitch": 70, "duration": 16, "velocity": 72}, {"time": 3274, "pitch": 62, "duration": 14, "velocity": 73}, {"time": 3274, "pitch": 65, "duration": 14, "velocity": 91}, {"time": 3274, "pitch": 70, "duration": 14, "velocity": 70}, {"time": 3286, "pitch": 58, "duration": 2, "velocity": 70}, {"time": 3298, "pitch": 43, "duration": 90, "velocity": 76}, {"time": 3298, "pitch": 55, "duration": 54, "velocity": 63}, {"time": 3298, "pitch": 62, "duration": 17, "velocity": 72}, {"time": 3298, "pitch": 65, "duration": 18, "velocity": 80}, {"time": 3298, "pitch": 70, "duration": 17, "velocity": 76}, {"time": 3322, "pitch": 62, "duration": 36, "velocity": 73}, {"time": 3322, "pitch": 65, "duration": 36, "velocity": 82}, {"time": 3322, "pitch": 70, "duration": 32, "velocity": 76}, {"time": 3364, "pitch": 55, "duration": 7, "velocity": 64}, {"time": 3370, "pitch": 62, "duration": 7, "velocity": 95}, {"time": 3370, "pitch": 65, "duration": 7, "velocity": 101}, {"time": 3370, "pitch": 70, "duration": 8, "velocity": 80}, {"time": 3376, "pitch": 55, "duration": 8, "velocity": 73}, {"time": 3382, "pitch": 65, "duration": 8, "velocity": 97}, {"time": 3388, "pitch": 50, "duration": 2, "velocity": 69}, {"time": 3388, "pitch": 67, "duration": 3, "velocity": 76}, {"time": 3394, "pitch": 39, "duration": 44, "velocity": 73}, {"time": 3394, "pitch": 51, "duration": 21, "velocity": 78}, {"time": 3394, "pitch": 58, "duration": 27, "velocity": 93}, {"time": 3394, "pitch": 63, "duration": 28, "velocity": 97}, {"time": 3394, "pitch": 67, "duration": 29, "velocity": 88}, {"time": 3394, "pitch": 70, "duration": 32, "velocity": 67}, {"time": 3424, "pitch": 58, "duration": 8, "velocity": 99}, {"time": 3430, "pitch": 63, "duration": 5, "velocity": 97}, {"time": 3436, "pitch": 65, "duration": 4, "velocity": 78}, {"time": 3442, "pitch": 39, "duration": 40, "velocity": 72}, {"time": 3442, "pitch": 51, "duration": 19, "velocity": 88}, {"time": 3442, "pitch": 58, "duration": 39, "velocity": 95}, {"time": 3442, "pitch": 63, "duration": 43, "velocity": 97}, {"time": 3442, "pitch": 67, "duration": 43, "velocity": 78}, {"time": 3442, "pitch": 70, "duration": 41, "velocity": 75}, {"time": 3490, "pitch": 41, "duration": 75, "velocity": 69}, {"time": 3490, "pitch": 53, "duration": 75, "velocity": 80}, {"time": 3490, "pitch": 60, "duration": 75, "velocity": 75}, {"time": 3490, "pitch": 65, "duration": 72, "velocity": 91}, {"time": 3490, "pitch": 69, "duration": 75, "velocity": 73}, {"time": 3538, "pitch": 63, "duration": 28, "velocity": 62}, {"time": 3562, "pitch": 41, "duration": 3, "velocity": 69}, {"time": 3562, "pitch": 53, "duration": 3, "velocity": 72}, {"time": 3562, "pitch": 60, "duration": 3, "velocity": 72}, {"time": 3562, "pitch": 65, "duration": 19, "velocity": 78}, {"time": 3562, "pitch": 69, "duration": 3, "velocity": 76}, {"time": 3586, "pitch": 46, "duration": 86, "velocity": 70}, {"time": 3586, "pitch": 58, "duration": 65, "velocity": 80}, {"time": 3586, "pitch": 62, "duration": 18, "velocity": 88}, {"time": 3586, "pitch": 65, "duration": 20, "velocity": 93}, {"time": 3586, "pitch": 70, "duration": 18, "velocity": 80}, {"time": 3610, "pitch": 62, "duration": 18, "velocity": 67}, {"time": 3610, "pitch": 65, "duration": 19, "velocity": 72}, {"time": 3610, "pitch": 70, "duration": 18, "velocity": 75}, {"time": 3634, "pitch": 62, "duration": 26, "velocity": 73}, {"time": 3634, "pitch": 65, "duration": 26, "velocity": 76}, {"time": 3634, "pitch": 70, "duration": 25, "velocity": 75}, {"time": 3658, "pitch": 58, "duration": 12, "velocity": 66}, {"time": 3664, "pitch": 62, "duration": 6, "velocity": 88}, {"time": 3664, "pitch": 65, "duration": 10, "velocity": 73}, {"time": 3664, "pitch": 70, "duration": 6, "velocity": 72}, {"time": 3670, "pitch": 53, "duration": 4, "velocity": 72}, {"time": 3676, "pitch": 67, "duration": 4, "velocity": 69}, {"time": 3679, "pitch": 69, "duration": 4, "velocity": 62}, {"time": 3682, "pitch": 43, "duration": 86, "velocity": 66}, {"time": 3682, "pitch": 55, "duration": 32, "velocity": 76}, {"time": 3682, "pitch": 62, "duration": 18, "velocity": 85}, {"time": 3682, "pitch": 65, "duration": 18, "velocity": 85}, {"time": 3682, "pitch": 70, "duration": 16, "velocity": 62}, {"time": 3706, "pitch": 62, "duration": 14, "velocity": 69}, {"time": 3706, "pitch": 65, "duration": 14, "velocity": 73}, {"time": 3706, "pitch": 70, "duration": 13, "velocity": 72}, {"time": 3721, "pitch": 55, "duration": 19, "velocity": 31}, {"time": 3730, "pitch": 62, "duration": 16, "velocity": 64}, {"time": 3730, "pitch": 65, "duration": 18, "velocity": 70}, {"time": 3730, "pitch": 70, "duration": 17, "velocity": 64}, {"time": 3748, "pitch": 55, "duration": 8, "velocity": 46}, {"time": 3754, "pitch": 62, "duration": 8, "velocity": 88}, {"time": 3754, "pitch": 65, "duration": 7, "velocity": 88}, {"time": 3754, "pitch": 70, "duration": 9, "velocity": 76}, {"time": 3760, "pitch": 55, "duration": 7, "velocity": 57}, {"time": 3766, "pitch": 65, "duration": 8, "velocity": 99}, {"time": 3772, "pitch": 41, "duration": 3, "velocity": 76}, {"time": 3772, "pitch": 53, "duration": 2, "velocity": 48}, {"time": 3772, "pitch": 67, "duration": 5, "velocity": 72}, {"time": 3778, "pitch": 39, "duration": 11, "velocity": 70}, {"time": 3778, "pitch": 58, "duration": 26, "velocity": 76}, {"time": 3778, "pitch": 63, "duration": 26, "velocity": 80}, {"time": 3778, "pitch": 67, "duration": 25, "velocity": 75}, {"time": 3784, "pitch": 46, "duration": 6, "velocity": 61}, {"time": 3790, "pitch": 51, "duration": 7, "velocity": 61}, {"time": 3796, "pitch": 53, "duration": 19, "velocity": 58}, {"time": 3802, "pitch": 55, "duration": 13, "velocity": 70}, {"time": 3808, "pitch": 58, "duration": 8, "velocity": 85}, {"time": 3814, "pitch": 63, "duration": 7, "velocity": 82}, {"time": 3820, "pitch": 65, "duration": 5, "velocity": 69}, {"time": 3826, "pitch": 39, "duration": 38, "velocity": 73}, {"time": 3826, "pitch": 58, "duration": 18, "velocity": 64}, {"time": 3826, "pitch": 63, "duration": 18, "velocity": 76}, {"time": 3826, "pitch": 70, "duration": 18, "velocity": 76}, {"time": 3844, "pitch": 51, "duration": 8, "velocity": 53}, {"time": 3850, "pitch": 58, "duration": 9, "velocity": 88}, {"time": 3850, "pitch": 63, "duration": 9, "velocity": 97}, {"time": 3850, "pitch": 70, "duration": 9, "velocity": 82}, {"time": 3856, "pitch": 51, "duration": 6, "velocity": 72}, {"time": 3862, "pitch": 65, "duration": 6, "velocity": 93}, {"time": 3874, "pitch": 41, "duration": 13, "velocity": 76}, {"time": 3874, "pitch": 53, "duration": 13, "velocity": 91}, {"time": 3874, "pitch": 60, "duration": 14, "velocity": 95}, {"time": 3874, "pitch": 65, "duration": 13, "velocity": 93}, {"time": 3874, "pitch": 69, "duration": 13, "velocity": 76}, {"time": 3892, "pitch": 41, "duration": 69, "velocity": 76}, {"time": 3892, "pitch": 53, "duration": 53, "velocity": 80}, {"time": 3892, "pitch": 60, "duration": 61, "velocity": 80}, {"time": 3892, "pitch": 65, "duration": 62, "velocity": 76}, {"time": 3892, "pitch": 69, "duration": 62, "velocity": 78}, {"time": 3952, "pitch": 53, "duration": 11, "velocity": 59}, {"time": 3958, "pitch": 58, "duration": 7, "velocity": 82}, {"time": 3958, "pitch": 63, "duration": 7, "velocity": 78}, {"time": 3958, "pitch": 67, "duration": 7, "velocity": 72}, {"time": 3964, "pitch": 65, "duration": 2, "velocity": 80}, {"time": 3970, "pitch": 39, "duration": 38, "velocity": 69}, {"time": 3976, "pitch": 46, "duration": 33, "velocity": 73}, {"time": 3982, "pitch": 51, "duration": 26, "velocity": 80}, {"time": 3988, "pitch": 58, "duration": 20, "velocity": 72}, {"time": 3988, "pitch": 63, "duration": 22, "velocity": 76}, {"time": 3988, "pitch": 67, "duration": 23, "velocity": 75}, {"time": 4018, "pitch": 41, "duration": 43, "velocity": 76}, {"time": 4018, "pitch": 58, "duration": 22, "velocity": 67}, {"time": 4018, "pitch": 63, "duration": 25, "velocity": 73}, {"time": 4018, "pitch": 67, "duration": 25, "velocity": 73}, {"time": 4036, "pitch": 48, "duration": 30, "velocity": 59}, {"time": 4042, "pitch": 53, "duration": 19, "velocity": 66}, {"time": 4048, "pitch": 58, "duration": 7, "velocity": 62}, {"time": 4054, "pitch": 63, "duration": 8, "velocity": 73}, {"time": 4060, "pitch": 65, "duration": 4, "velocity": 69}, {"time": 4066, "pitch": 46, "duration": 42, "velocity": 73}, {"time": 4066, "pitch": 62, "duration": 13, "velocity": 76}, {"time": 4066, "pitch": 65, "duration": 13, "velocity": 78}, {"time": 4066, "pitch": 70, "duration": 14, "velocity": 76}, {"time": 4072, "pitch": 53, "duration": 23, "velocity": 52}, {"time": 4078, "pitch": 58, "duration": 31, "velocity": 76}, {"time": 4084, "pitch": 62, "duration": 10, "velocity": 85}, {"time": 4096, "pitch": 62, "duration": 1, "velocity": 46}, {"time": 4096, "pitch": 65, "duration": 6, "velocity": 95}, {"time": 4108, "pitch": 53, "duration": 46, "velocity": 58}, {"time": 4114, "pitch": 46, "duration": 35, "velocity": 67}, {"time": 4114, "pitch": 58, "duration": 26, "velocity": 67}, {"time": 4114, "pitch": 60, "duration": 31, "velocity": 67}, {"time": 4114, "pitch": 62, "duration": 31, "velocity": 75}, {"time": 4114, "pitch": 65, "duration": 26, "velocity": 46}, {"time": 4114, "pitch": 70, "duration": 33, "velocity": 25}, {"time": 4138, "pitch": 65, "duration": 2, "velocity": 75}, {"time": 4138, "pitch": 60, "duration": 7, "velocity": 69}, {"time": 4138, "pitch": 41, "duration": 16, "velocity": 60}, {"time": 4138, "pitch": 69, "duration": 16, "velocity": 69}, {"time": 4139, "pitch": 53, "duration": 15, "velocity": 64}, {"time": 4162, "pitch": 46, "duration": 36, "velocity": 75}, {"time": 4162, "pitch": 62, "duration": 13, "velocity": 78}, {"time": 4162, "pitch": 65, "duration": 13, "velocity": 82}, {"time": 4162, "pitch": 70, "duration": 14, "velocity": 80}, {"time": 4168, "pitch": 53, "duration": 31, "velocity": 55}, {"time": 4174, "pitch": 58, "duration": 1, "velocity": 82}, {"time": 4180, "pitch": 62, "duration": 10, "velocity": 95}, {"time": 4192, "pitch": 62, "duration": 6, "velocity": 75}, {"time": 4192, "pitch": 65, "duration": 7, "velocity": 101}, {"time": 4192, "pitch": 70, "duration": 6, "velocity": 73}, {"time": 4198, "pitch": 58, "duration": 2, "velocity": 56}, {"time": 4210, "pitch": 50, "duration": 40, "velocity": 76}, {"time": 4210, "pitch": 60, "duration": 9, "velocity": 91}, {"time": 4210, "pitch": 66, "duration": 9, "velocity": 97}, {"time": 4210, "pitch": 69, "duration": 8, "velocity": 91}, {"time": 4216, "pitch": 57, "duration": 23, "velocity": 59}, {"time": 4222, "pitch": 60, "duration": 15, "velocity": 78}, {"time": 4228, "pitch": 66, "duration": 10, "velocity": 103}, {"time": 4240, "pitch": 69, "duration": 10, "velocity": 101}, {"time": 4246, "pitch": 57, "duration": 3, "velocity": 62}, {"time": 4252, "pitch": 67, "duration": 32, "velocity": 85}, {"time": 4255, "pitch": 69, "duration": 2, "velocity": 63}, {"time": 4258, "pitch": 43, "duration": 11, "velocity": 72}, {"time": 4258, "pitch": 62, "duration": 26, "velocity": 82}, {"time": 4258, "pitch": 70, "duration": 25, "velocity": 70}, {"time": 4264, "pitch": 50, "duration": 7, "velocity": 62}, {"time": 4270, "pitch": 55, "duration": 7, "velocity": 73}, {"time": 4276, "pitch": 57, "duration": 19, "velocity": 76}, {"time": 4282, "pitch": 58, "duration": 13, "velocity": 64}, {"time": 4288, "pitch": 62, "duration": 4, "velocity": 95}, {"time": 4294, "pitch": 62, "duration": 2, "velocity": 44}, {"time": 4294, "pitch": 67, "duration": 5, "velocity": 88}, {"time": 4300, "pitch": 70, "duration": 3, "velocity": 67}, {"time": 4306, "pitch": 41, "duration": 10, "velocity": 76}, {"time": 4306, "pitch": 62, "duration": 25, "velocity": 88}, {"time": 4306, "pitch": 69, "duration": 25, "velocity": 76}, {"time": 4312, "pitch": 50, "duration": 6, "velocity": 63}, {"time": 4318, "pitch": 53, "duration": 7, "velocity": 49}, {"time": 4324, "pitch": 55, "duration": 6, "velocity": 70}, {"time": 4324, "pitch": 57, "duration": 17, "velocity": 48}, {"time": 4330, "pitch": 58, "duration": 12, "velocity": 73}, {"time": 4336, "pitch": 65, "duration": 4, "velocity": 101}, {"time": 4342, "pitch": 65, "duration": 1, "velocity": 54}, {"time": 4342, "pitch": 69, "duration": 6, "velocity": 103}, {"time": 4348, "pitch": 70, "duration": 27, "velocity": 78}, {"time": 4354, "pitch": 39, "duration": 40, "velocity": 73}, {"time": 4354, "pitch": 58, "duration": 13, "velocity": 99}, {"time": 4354, "pitch": 63, "duration": 17, "velocity": 88}, {"time": 4354, "pitch": 67, "duration": 18, "velocity": 88}, {"time": 4360, "pitch": 46, "duration": 38, "velocity": 69}, {"time": 4366, "pitch": 51, "duration": 14, "velocity": 63}, {"time": 4372, "pitch": 58, "duration": 3, "velocity": 42}, {"time": 4378, "pitch": 58, "duration": 7, "velocity": 80}, {"time": 4378, "pitch": 63, "duration": 8, "velocity": 73}, {"time": 4378, "pitch": 67, "duration": 8, "velocity": 73}, {"time": 4378, "pitch": 70, "duration": 6, "velocity": 63}, {"time": 4384, "pitch": 51, "duration": 9, "velocity": 67}, {"time": 4390, "pitch": 58, "duration": 5, "velocity": 73}, {"time": 4390, "pitch": 67, "duration": 4, "velocity": 60}, {"time": 4396, "pitch": 63, "duration": 3, "velocity": 63}, {"time": 4396, "pitch": 67, "duration": 3, "velocity": 56}, {"time": 4402, "pitch": 38, "duration": 40, "velocity": 88}, {"time": 4402, "pitch": 60, "duration": 14, "velocity": 93}, {"time": 4402, "pitch": 65, "duration": 13, "velocity": 64}, {"time": 4402, "pitch": 67, "duration": 13, "velocity": 80}, {"time": 4408, "pitch": 46, "duration": 33, "velocity": 62}, {"time": 4414, "pitch": 50, "duration": 15, "velocity": 66}, {"time": 4420, "pitch": 60, "duration": 7, "velocity": 80}, {"time": 4426, "pitch": 65, "duration": 4, "velocity": 85}, {"time": 4432, "pitch": 67, "duration": 5, "velocity": 91}, {"time": 4438, "pitch": 69, "duration": 6, "velocity": 82}, {"time": 4444, "pitch": 70, "duration": 23, "velocity": 72}, {"time": 4450, "pitch": 36, "duration": 2, "velocity": 75}, {"time": 4450, "pitch": 48, "duration": 3, "velocity": 88}, {"time": 4450, "pitch": 58, "duration": 2, "velocity": 82}, {"time": 4450, "pitch": 63, "duration": 3, "velocity": 99}, {"time": 4450, "pitch": 67, "duration": 3, "velocity": 99}, {"time": 4456, "pitch": 38, "duration": 2, "velocity": 80}, {"time": 4456, "pitch": 50, "duration": 2, "velocity": 99}, {"time": 4456, "pitch": 58, "duration": 2, "velocity": 85}, {"time": 4456, "pitch": 65, "duration": 3, "velocity": 88}, {"time": 4462, "pitch": 39, "duration": 7, "velocity": 80}, {"time": 4462, "pitch": 51, "duration": 7, "velocity": 101}, {"time": 4462, "pitch": 58, "duration": 6, "velocity": 97}, {"time": 4462, "pitch": 63, "duration": 6, "velocity": 99}, {"time": 4462, "pitch": 67, "duration": 6, "velocity": 93}, {"time": 4474, "pitch": 39, "duration": 18, "velocity": 88}, {"time": 4474, "pitch": 51, "duration": 11, "velocity": 95}, {"time": 4474, "pitch": 58, "duration": 17, "velocity": 99}, {"time": 4474, "pitch": 63, "duration": 17, "velocity": 103}, {"time": 4474, "pitch": 67, "duration": 16, "velocity": 97}, {"time": 4474, "pitch": 70, "duration": 13, "velocity": 69}, {"time": 4492, "pitch": 51, "duration": 3, "velocity": 97}, {"time": 4498, "pitch": 41, "duration": 43, "velocity": 91}, {"time": 4498, "pitch": 58, "duration": 12, "velocity": 93}, {"time": 4498, "pitch": 63, "duration": 12, "velocity": 99}, {"time": 4498, "pitch": 67, "duration": 11, "velocity": 97}, {"time": 4498, "pitch": 70, "duration": 12, "velocity": 67}, {"time": 4504, "pitch": 48, "duration": 30, "velocity": 61}, {"time": 4510, "pitch": 53, "duration": 18, "velocity": 93}, {"time": 4516, "pitch": 58, "duration": 4, "velocity": 75}, {"time": 4522, "pitch": 63, "duration": 3, "velocity": 88}, {"time": 4528, "pitch": 58, "duration": 7, "velocity": 95}, {"time": 4528, "pitch": 63, "duration": 8, "velocity": 101}, {"time": 4528, "pitch": 67, "duration": 8, "velocity": 97}, {"time": 4534, "pitch": 53, "duration": 7, "velocity": 75}, {"time": 4540, "pitch": 48, "duration": 2, "velocity": 62}, {"time": 4540, "pitch": 58, "duration": 2, "velocity": 64}, {"time": 4546, "pitch": 46, "duration": 38, "velocity": 80}, {"time": 4546, "pitch": 62, "duration": 11, "velocity": 85}, {"time": 4546, "pitch": 65, "duration": 11, "velocity": 88}, {"time": 4546, "pitch": 70, "duration": 11, "velocity": 78}, {"time": 4552, "pitch": 53, "duration": 26, "velocity": 67}, {"time": 4558, "pitch": 58, "duration": 18, "velocity": 97}, {"time": 4564, "pitch": 65, "duration": 3, "velocity": 47}, {"time": 4570, "pitch": 65, "duration": 1, "velocity": 40}, {"time": 4570, "pitch": 70, "duration": 3, "velocity": 67}, {"time": 4576, "pitch": 65, "duration": 8, "velocity": 95}, {"time": 4576, "pitch": 70, "duration": 7, "velocity": 101}, {"time": 4576, "pitch": 77, "duration": 6, "velocity": 85}, {"time": 4582, "pitch": 53, "duration": 2, "velocity": 63}, {"time": 4582, "pitch": 58, "duration": 2, "velocity": 85}, {"time": 4594, "pitch": 38, "duration": 21, "velocity": 80}, {"time": 4594, "pitch": 62, "duration": 8, "velocity": 93}, {"time": 4594, "pitch": 66, "duration": 8, "velocity": 103}, {"time": 4600, "pitch": 50, "duration": 15, "velocity": 50}, {"time": 4606, "pitch": 62, "duration": 7, "velocity": 75}, {"time": 4612, "pitch": 66, "duration": 3, "velocity": 82}, {"time": 4618, "pitch": 38, "duration": 2, "velocity": 82}, {"time": 4618, "pitch": 50, "duration": 2, "velocity": 76}, {"time": 4618, "pitch": 62, "duration": 2, "velocity": 82}, {"time": 4618, "pitch": 67, "duration": 3, "velocity": 97}, {"time": 4624, "pitch": 62, "duration": 5, "velocity": 80}, {"time": 4624, "pitch": 66, "duration": 12, "velocity": 103}, {"time": 4624, "pitch": 69, "duration": 10, "velocity": 95}, {"time": 4636, "pitch": 50, "duration": 4, "velocity": 88}, {"time": 4636, "pitch": 62, "duration": 4, "velocity": 72}, {"time": 4642, "pitch": 43, "duration": 43, "velocity": 82}, {"time": 4642, "pitch": 62, "duration": 13, "velocity": 78}, {"time": 4642, "pitch": 65, "duration": 13, "velocity": 88}, {"time": 4642, "pitch": 70, "duration": 13, "velocity": 72}, {"time": 4648, "pitch": 50, "duration": 31, "velocity": 66}, {"time": 4654, "pitch": 55, "duration": 19, "velocity": 70}, {"time": 4660, "pitch": 62, "duration": 4, "velocity": 75}, {"time": 4666, "pitch": 65, "duration": 3, "velocity": 72}, {"time": 4672, "pitch": 62, "duration": 9, "velocity": 97}, {"time": 4672, "pitch": 70, "duration": 11, "velocity": 73}, {"time": 4678, "pitch": 55, "duration": 6, "velocity": 80}, {"time": 4684, "pitch": 50, "duration": 5, "velocity": 70}, {"time": 4684, "pitch": 70, "duration": 3, "velocity": 53}, {"time": 4690, "pitch": 50, "duration": 35, "velocity": 80}, {"time": 4690, "pitch": 60, "duration": 8, "velocity": 73}, {"time": 4690, "pitch": 65, "duration": 8, "velocity": 80}, {"time": 4690, "pitch": 69, "duration": 8, "velocity": 69}, {"time": 4696, "pitch": 57, "duration": 16, "velocity": 63}, {"time": 4702, "pitch": 60, "duration": 4, "velocity": 62}, {"time": 4708, "pitch": 60, "duration": 11, "velocity": 49}, {"time": 4708, "pitch": 65, "duration": 11, "velocity": 75}, {"time": 4708, "pitch": 72, "duration": 9, "velocity": 76}, {"time": 4720, "pitch": 57, "duration": 4, "velocity": 64}, {"time": 4726, "pitch": 60, "duration": 6, "velocity": 78}, {"time": 4726, "pitch": 65, "duration": 10, "velocity": 97}, {"time": 4738, "pitch": 39, "duration": 40, "velocity": 76}, {"time": 4738, "pitch": 58, "duration": 10, "velocity": 82}, {"time": 4738, "pitch": 63, "duration": 10, "velocity": 82}, {"time": 4738, "pitch": 67, "duration": 8, "velocity": 69}, {"time": 4744, "pitch": 46, "duration": 21, "velocity": 59}, {"time": 4750, "pitch": 51, "duration": 12, "velocity": 70}, {"time": 4756, "pitch": 58, "duration": 4, "velocity": 63}, {"time": 4762, "pitch": 58, "duration": 7, "velocity": 75}, {"time": 4762, "pitch": 63, "duration": 7, "velocity": 73}, {"time": 4762, "pitch": 67, "duration": 7, "velocity": 75}, {"time": 4768, "pitch": 46, "duration": 8, "velocity": 31}, {"time": 4768, "pitch": 51, "duration": 9, "velocity": 95}, {"time": 4774, "pitch": 58, "duration": 4, "velocity": 80}, {"time": 4780, "pitch": 65, "duration": 4, "velocity": 78}, {"time": 4786, "pitch": 50, "duration": 35, "velocity": 73}, {"time": 4786, "pitch": 60, "duration": 9, "velocity": 85}, {"time": 4786, "pitch": 65, "duration": 9, "velocity": 91}, {"time": 4786, "pitch": 69, "duration": 10, "velocity": 80}, {"time": 4792, "pitch": 57, "duration": 15, "velocity": 67}, {"time": 4798, "pitch": 67, "duration": 4, "velocity": 61}, {"time": 4804, "pitch": 62, "duration": 4, "velocity": 70}, {"time": 4804, "pitch": 69, "duration": 18, "velocity": 97}, {"time": 4816, "pitch": 57, "duration": 4, "velocity": 66}, {"time": 4822, "pitch": 62, "duration": 2, "velocity": 80}, {"time": 4822, "pitch": 70, "duration": 7, "velocity": 66}, {"time": 4834, "pitch": 36, "duration": 3, "velocity": 73}, {"time": 4834, "pitch": 48, "duration": 3, "velocity": 76}, {"time": 4834, "pitch": 58, "duration": 3, "velocity": 76}, {"time": 4834, "pitch": 63, "duration": 3, "velocity": 85}, {"time": 4834, "pitch": 67, "duration": 4, "velocity": 91}, {"time": 4840, "pitch": 38, "duration": 2, "velocity": 70}, {"time": 4840, "pitch": 50, "duration": 2, "velocity": 80}, {"time": 4840, "pitch": 58, "duration": 2, "velocity": 80}, {"time": 4840, "pitch": 65, "duration": 3, "velocity": 82}, {"time": 4846, "pitch": 39, "duration": 14, "velocity": 69}, {"time": 4846, "pitch": 51, "duration": 2, "velocity": 85}, {"time": 4846, "pitch": 58, "duration": 6, "velocity": 80}, {"time": 4846, "pitch": 63, "duration": 7, "velocity": 91}, {"time": 4846, "pitch": 67, "duration": 7, "velocity": 82}, {"time": 4852, "pitch": 51, "duration": 8, "velocity": 85}, {"time": 4858, "pitch": 58, "duration": 3, "velocity": 63}, {"time": 4864, "pitch": 39, "duration": 12, "velocity": 72}, {"time": 4864, "pitch": 51, "duration": 6, "velocity": 93}, {"time": 4864, "pitch": 58, "duration": 8, "velocity": 93}, {"time": 4864, "pitch": 63, "duration": 10, "velocity": 97}, {"time": 4864, "pitch": 67, "duration": 9, "velocity": 91}, {"time": 4876, "pitch": 51, "duration": 3, "velocity": 66}, {"time": 4882, "pitch": 41, "duration": 37, "velocity": 88}, {"time": 4882, "pitch": 58, "duration": 10, "velocity": 95}, {"time": 4882, "pitch": 63, "duration": 15, "velocity": 99}, {"time": 4882, "pitch": 67, "duration": 12, "velocity": 85}, {"time": 4882, "pitch": 70, "duration": 9, "velocity": 46}, {"time": 4900, "pitch": 53, "duration": 7, "velocity": 75}, {"time": 4906, "pitch": 58, "duration": 7, "velocity": 95}, {"time": 4906, "pitch": 63, "duration": 8, "velocity": 103}, {"time": 4906, "pitch": 67, "duration": 8, "velocity": 97}, {"time": 4912, "pitch": 53, "duration": 10, "velocity": 62}, {"time": 4918, "pitch": 58, "duration": 6, "velocity": 70}, {"time": 4918, "pitch": 65, "duration": 5, "velocity": 80}, {"time": 4924, "pitch": 67, "duration": 4, "velocity": 64}, {"time": 4930, "pitch": 46, "duration": 29, "velocity": 72}, {"time": 4930, "pitch": 53, "duration": 29, "velocity": 80}, {"time": 4930, "pitch": 58, "duration": 8, "velocity": 85}, {"time": 4930, "pitch": 62, "duration": 15, "velocity": 70}, {"time": 4930, "pitch": 65, "duration": 15, "velocity": 88}, {"time": 4930, "pitch": 70, "duration": 14, "velocity": 73}, {"time": 4942, "pitch": 58, "duration": 8, "velocity": 39}, {"time": 4948, "pitch": 62, "duration": 9, "velocity": 72}, {"time": 4948, "pitch": 65, "duration": 10, "velocity": 85}, {"time": 4948, "pitch": 70, "duration": 10, "velocity": 76}, {"time": 4960, "pitch": 45, "duration": 3, "velocity": 73}, {"time": 4960, "pitch": 46, "duration": 2, "velocity": 85}, {"time": 4960, "pitch": 57, "duration": 2, "velocity": 82}, {"time": 4960, "pitch": 60, "duration": 3, "velocity": 78}, {"time": 4960, "pitch": 63, "duration": 3, "velocity": 76}, {"time": 4960, "pitch": 68, "duration": 2, "velocity": 80}, {"time": 4960, "pitch": 70, "duration": 2, "velocity": 70}, {"time": 4972, "pitch": 44, "duration": 14, "velocity": 78}, {"time": 4972, "pitch": 56, "duration": 8, "velocity": 91}, {"time": 4972, "pitch": 60, "duration": 13, "velocity": 76}, {"time": 4972, "pitch": 63, "duration": 13, "velocity": 82}, {"time": 4972, "pitch": 68, "duration": 12, "velocity": 88}, {"time": 4984, "pitch": 56, "duration": 2, "velocity": 70}, {"time": 4990, "pitch": 65, "duration": 3, "velocity": 61}, {"time": 4996, "pitch": 41, "duration": 20, "velocity": 75}, {"time": 4996, "pitch": 53, "duration": 6, "velocity": 93}, {"time": 4996, "pitch": 58, "duration": 13, "velocity": 85}, {"time": 4996, "pitch": 63, "duration": 13, "velocity": 95}, {"time": 4996, "pitch": 67, "duration": 10, "velocity": 85}, {"time": 5008, "pitch": 53, "duration": 6, "velocity": 57}, {"time": 5014, "pitch": 48, "duration": 2, "velocity": 70}, {"time": 5014, "pitch": 58, "duration": 2, "velocity": 88}, {"time": 5014, "pitch": 63, "duration": 2, "velocity": 99}, {"time": 5014, "pitch": 67, "duration": 3, "velocity": 99}, {"time": 5026, "pitch": 39, "duration": 32, "velocity": 70}, {"time": 5026, "pitch": 51, "duration": 11, "velocity": 80}, {"time": 5026, "pitch": 58, "duration": 16, "velocity": 76}, {"time": 5026, "pitch": 62, "duration": 14, "velocity": 93}, {"time": 5026, "pitch": 63, "duration": 16, "velocity": 73}, {"time": 5026, "pitch": 67, "duration": 18, "velocity": 72}, {"time": 5044, "pitch": 51, "duration": 8, "velocity": 56}, {"time": 5050, "pitch": 58, "duration": 7, "velocity": 80}, {"time": 5050, "pitch": 62, "duration": 1, "velocity": 69}, {"time": 5050, "pitch": 63, "duration": 8, "velocity": 93}, {"time": 5050, "pitch": 67, "duration": 7, "velocity": 75}, {"time": 5056, "pitch": 51, "duration": 2, "velocity": 63}, {"time": 5062, "pitch": 38, "duration": 3, "velocity": 67}, {"time": 5068, "pitch": 36, "duration": 43, "velocity": 75}, {"time": 5068, "pitch": 48, "duration": 9, "velocity": 88}, {"time": 5068, "pitch": 60, "duration": 15, "velocity": 82}, {"time": 5068, "pitch": 63, "duration": 15, "velocity": 82}, {"time": 5068, "pitch": 67, "duration": 12, "velocity": 82}, {"time": 5068, "pitch": 70, "duration": 15, "velocity": 76}, {"time": 5080, "pitch": 48, "duration": 12, "velocity": 67}, {"time": 5086, "pitch": 60, "duration": 2, "velocity": 48}, {"time": 5092, "pitch": 60, "duration": 12, "velocity": 82}, {"time": 5092, "pitch": 63, "duration": 13, "velocity": 91}, {"time": 5092, "pitch": 67, "duration": 11, "velocity": 76}, {"time": 5092, "pitch": 70, "duration": 12, "velocity": 70}, {"time": 5104, "pitch": 48, "duration": 8, "velocity": 72}, {"time": 5110, "pitch": 60, "duration": 3, "velocity": 82}, {"time": 5110, "pitch": 63, "duration": 4, "velocity": 93}, {"time": 5110, "pitch": 67, "duration": 3, "velocity": 66}, {"time": 5110, "pitch": 70, "duration": 3, "velocity": 73}, {"time": 5122, "pitch": 46, "duration": 31, "velocity": 73}, {"time": 5122, "pitch": 62, "duration": 9, "velocity": 80}, {"time": 5122, "pitch": 65, "duration": 11, "velocity": 93}, {"time": 5122, "pitch": 70, "duration": 10, "velocity": 69}, {"time": 5128, "pitch": 53, "duration": 19, "velocity": 66}, {"time": 5134, "pitch": 58, "duration": 14, "velocity": 66}, {"time": 5140, "pitch": 65, "duration": 3, "velocity": 42}, {"time": 5146, "pitch": 65, "duration": 5, "velocity": 80}, {"time": 5146, "pitch": 70, "duration": 6, "velocity": 91}, {"time": 5146, "pitch": 74, "duration": 7, "velocity": 91}, {"time": 5149, "pitch": 53, "duration": 4, "velocity": 66}, {"time": 5155, "pitch": 65, "duration": 3, "velocity": 91}, {"time": 5155, "pitch": 72, "duration": 3, "velocity": 95}, {"time": 5170, "pitch": 38, "duration": 11, "velocity": 69}, {"time": 5170, "pitch": 62, "duration": 7, "velocity": 73}, {"time": 5170, "pitch": 66, "duration": 8, "velocity": 97}, {"time": 5170, "pitch": 69, "duration": 8, "velocity": 88}, {"time": 5176, "pitch": 50, "duration": 10, "velocity": 69}, {"time": 5182, "pitch": 62, "duration": 2, "velocity": 67}, {"time": 5182, "pitch": 67, "duration": 5, "velocity": 91}, {"time": 5188, "pitch": 62, "duration": 2, "velocity": 76}, {"time": 5188, "pitch": 69, "duration": 3, "velocity": 95}, {"time": 5194, "pitch": 54, "duration": 6, "velocity": 57}, {"time": 5194, "pitch": 66, "duration": 1, "velocity": 37}, {"time": 5200, "pitch": 62, "duration": 8, "velocity": 91}, {"time": 5200, "pitch": 66, "duration": 4, "velocity": 101}, {"time": 5200, "pitch": 74, "duration": 5, "velocity": 91}, {"time": 5206, "pitch": 54, "duration": 5, "velocity": 66}, {"time": 5212, "pitch": 67, "duration": 4, "velocity": 56}, {"time": 5215, "pitch": 69, "duration": 2, "velocity": 63}, {"time": 5218, "pitch": 43, "duration": 38, "velocity": 73}, {"time": 5218, "pitch": 62, "duration": 8, "velocity": 76}, {"time": 5218, "pitch": 67, "duration": 12, "velocity": 78}, {"time": 5218, "pitch": 70, "duration": 9, "velocity": 73}, {"time": 5224, "pitch": 50, "duration": 24, "velocity": 53}, {"time": 5230, "pitch": 55, "duration": 7, "velocity": 59}, {"time": 5230, "pitch": 62, "duration": 2, "velocity": 62}, {"time": 5230, "pitch": 69, "duration": 3, "velocity": 72}, {"time": 5236, "pitch": 62, "duration": 8, "velocity": 91}, {"time": 5236, "pitch": 70, "duration": 7, "velocity": 59}, {"time": 5242, "pitch": 55, "duration": 8, "velocity": 49}, {"time": 5248, "pitch": 62, "duration": 7, "velocity": 91}, {"time": 5248, "pitch": 70, "duration": 8, "velocity": 76}, {"time": 5254, "pitch": 50, "duration": 3, "velocity": 69}, {"time": 5260, "pitch": 62, "duration": 2, "velocity": 61}, {"time": 5260, "pitch": 70, "duration": 3, "velocity": 73}, {"time": 5266, "pitch": 41, "duration": 40, "velocity": 70}, {"time": 5266, "pitch": 60, "duration": 13, "velocity": 80}, {"time": 5266, "pitch": 65, "duration": 12, "velocity": 93}, {"time": 5266, "pitch": 69, "duration": 11, "velocity": 91}, {"time": 5272, "pitch": 50, "duration": 19, "velocity": 60}, {"time": 5278, "pitch": 53, "duration": 23, "velocity": 62}, {"time": 5284, "pitch": 60, "duration": 4, "velocity": 73}, {"time": 5290, "pitch": 65, "duration": 2, "velocity": 97}, {"time": 5302, "pitch": 74, "duration": 3, "velocity": 97}, {"time": 5302, "pitch": 82, "duration": 4, "velocity": 70}, {"time": 5308, "pitch": 72, "duration": 3, "velocity": 88}, {"time": 5308, "pitch": 81, "duration": 3, "velocity": 76}, {"time": 5314, "pitch": 39, "duration": 38, "velocity": 72}, {"time": 5314, "pitch": 79, "duration": 10, "velocity": 97}, {"time": 5320, "pitch": 46, "duration": 24, "velocity": 59}, {"time": 5326, "pitch": 51, "duration": 18, "velocity": 73}, {"time": 5332, "pitch": 58, "duration": 3, "velocity": 95}, {"time": 5332, "pitch": 65, "duration": 3, "velocity": 88}, {"time": 5344, "pitch": 58, "duration": 7, "velocity": 91}, {"time": 5344, "pitch": 63, "duration": 8, "velocity": 97}, {"time": 5350, "pitch": 46, "duration": 3, "velocity": 72}, {"time": 5350, "pitch": 51, "duration": 1, "velocity": 47}, {"time": 5356, "pitch": 58, "duration": 2, "velocity": 78}, {"time": 5362, "pitch": 38, "duration": 28, "velocity": 80}, {"time": 5362, "pitch": 60, "duration": 8, "velocity": 93}, {"time": 5362, "pitch": 65, "duration": 8, "velocity": 88}, {"time": 5362, "pitch": 69, "duration": 7, "velocity": 73}, {"time": 5368, "pitch": 50, "duration": 13, "velocity": 80}, {"time": 5374, "pitch": 60, "duration": 3, "velocity": 57}, {"time": 5380, "pitch": 60, "duration": 8, "velocity": 82}, {"time": 5380, "pitch": 65, "duration": 8, "velocity": 97}, {"time": 5380, "pitch": 69, "duration": 4, "velocity": 67}, {"time": 5386, "pitch": 50, "duration": 4, "velocity": 88}, {"time": 5392, "pitch": 60, "duration": 7, "velocity": 93}, {"time": 5392, "pitch": 69, "duration": 3, "velocity": 72}, {"time": 5398, "pitch": 65, "duration": 3, "velocity": 66}, {"time": 5404, "pitch": 67, "duration": 3, "velocity": 78}, {"time": 5410, "pitch": 39, "duration": 20, "velocity": 66}, {"time": 5410, "pitch": 51, "duration": 19, "velocity": 95}, {"time": 5410, "pitch": 58, "duration": 7, "velocity": 93}, {"time": 5410, "pitch": 63, "duration": 9, "velocity": 97}, {"time": 5410, "pitch": 67, "duration": 6, "velocity": 99}, {"time": 5422, "pitch": 58, "duration": 2, "velocity": 72}, {"time": 5428, "pitch": 63, "duration": 2, "velocity": 78}, {"time": 5434, "pitch": 39, "duration": 3, "velocity": 75}, {"time": 5434, "pitch": 51, "duration": 2, "velocity": 85}, {"time": 5434, "pitch": 58, "duration": 2, "velocity": 82}, {"time": 5434, "pitch": 63, "duration": 2, "velocity": 99}, {"time": 5434, "pitch": 67, "duration": 2, "velocity": 95}, {"time": 5440, "pitch": 39, "duration": 2, "velocity": 80}, {"time": 5440, "pitch": 51, "duration": 2, "velocity": 88}, {"time": 5440, "pitch": 58, "duration": 2, "velocity": 75}, {"time": 5440, "pitch": 63, "duration": 2, "velocity": 97}, {"time": 5440, "pitch": 67, "duration": 2, "velocity": 99}, {"time": 5458, "pitch": 41, "duration": 39, "velocity": 73}, {"time": 5458, "pitch": 53, "duration": 6, "velocity": 93}, {"time": 5458, "pitch": 58, "duration": 8, "velocity": 97}, {"time": 5458, "pitch": 63, "duration": 10, "velocity": 99}, {"time": 5458, "pitch": 67, "duration": 7, "velocity": 99}, {"time": 5464, "pitch": 48, "duration": 28, "velocity": 64}, {"time": 5470, "pitch": 53, "duration": 6, "velocity": 69}, {"time": 5476, "pitch": 58, "duration": 3, "velocity": 91}, {"time": 5476, "pitch": 63, "duration": 2, "velocity": 97}, {"time": 5476, "pitch": 67, "duration": 5, "velocity": 97}, {"time": 5485, "pitch": 53, "duration": 10, "velocity": 48}, {"time": 5494, "pitch": 48, "duration": 2, "velocity": 64}, {"time": 5494, "pitch": 58, "duration": 2, "velocity": 93}, {"time": 5494, "pitch": 63, "duration": 3, "velocity": 101}, {"time": 5494, "pitch": 67, "duration": 4, "velocity": 97}, {"time": 5506, "pitch": 60, "duration": 10, "velocity": 91}, {"time": 5506, "pitch": 64, "duration": 10, "velocity": 78}, {"time": 5506, "pitch": 55, "duration": 9, "velocity": 91}, {"time": 5506, "pitch": 48, "duration": 20, "velocity": 95}, {"time": 5506, "pitch": 36, "duration": 40, "velocity": 80}, {"time": 5518, "pitch": 62, "duration": 5, "velocity": 66}, {"time": 5518, "pitch": 55, "duration": 3, "velocity": 63}, {"time": 5523, "pitch": 55, "duration": 9, "velocity": 82}, {"time": 5524, "pitch": 60, "duration": 12, "velocity": 95}, {"time": 5524, "pitch": 64, "duration": 12, "velocity": 91}, {"time": 5534, "pitch": 48, "duration": 7, "velocity": 59}, {"time": 5541, "pitch": 67, "duration": 4, "velocity": 78}, {"time": 5541, "pitch": 55, "duration": 5, "velocity": 99}, {"time": 5547, "pitch": 48, "duration": 4, "velocity": 72}, {"time": 5548, "pitch": 59, "duration": 3, "velocity": 49}, {"time": 5553, "pitch": 40, "duration": 7, "velocity": 76}, {"time": 5553, "pitch": 59, "duration": 6, "velocity": 85}, {"time": 5554, "pitch": 56, "duration": 5, "velocity": 103}, {"time": 5554, "pitch": 64, "duration": 6, "velocity": 82}, {"time": 5571, "pitch": 64, "duration": 8, "velocity": 88}, {"time": 5571, "pitch": 68, "duration": 5, "velocity": 97}, {"time": 5571, "pitch": 56, "duration": 13, "velocity": 99}, {"time": 5583, "pitch": 69, "duration": 10, "velocity": 95}, {"time": 5583, "pitch": 64, "duration": 8, "velocity": 80}, {"time": 5589, "pitch": 56, "duration": 4, "velocity": 88}, {"time": 5596, "pitch": 71, "duration": 5, "velocity": 85}, {"time": 5601, "pitch": 67, "duration": 27, "velocity": 91}, {"time": 5602, "pitch": 64, "duration": 26, "velocity": 80}, {"time": 5602, "pitch": 72, "duration": 25, "velocity": 66}, {"time": 5602, "pitch": 45, "duration": 10, "velocity": 70}, {"time": 5608, "pitch": 52, "duration": 6, "velocity": 70}, {"time": 5613, "pitch": 57, "duration": 8, "velocity": 62}, {"time": 5619, "pitch": 59, "duration": 20, "velocity": 61}, {"time": 5625, "pitch": 60, "duration": 13, "velocity": 67}, {"time": 5631, "pitch": 64, "duration": 5, "velocity": 80}, {"time": 5637, "pitch": 67, "duration": 6, "velocity": 75}, {"time": 5638, "pitch": 64, "duration": 1, "velocity": 45}, {"time": 5644, "pitch": 72, "duration": 3, "velocity": 75}, {"time": 5644, "pitch": 67, "duration": 3, "velocity": 54}, {"time": 5649, "pitch": 67, "duration": 20, "velocity": 82}, {"time": 5649, "pitch": 71, "duration": 21, "velocity": 73}, {"time": 5650, "pitch": 62, "duration": 16, "velocity": 80}, {"time": 5650, "pitch": 43, "duration": 9, "velocity": 72}, {"time": 5655, "pitch": 52, "duration": 6, "velocity": 60}, {"time": 5661, "pitch": 55, "duration": 8, "velocity": 50}, {"time": 5667, "pitch": 59, "duration": 18, "velocity": 59}, {"time": 5674, "pitch": 62, "duration": 10, "velocity": 69}, {"time": 5679, "pitch": 67, "duration": 8, "velocity": 91}, {"time": 5686, "pitch": 72, "duration": 7, "velocity": 72}, {"time": 5692, "pitch": 71, "duration": 6, "velocity": 69}, {"time": 5698, "pitch": 41, "duration": 37, "velocity": 70}, {"time": 5698, "pitch": 69, "duration": 17, "velocity": 97}, {"time": 5704, "pitch": 48, "duration": 33, "velocity": 66}, {"time": 5710, "pitch": 53, "duration": 10, "velocity": 76}, {"time": 5716, "pitch": 65, "duration": 13, "velocity": 85}, {"time": 5716, "pitch": 60, "duration": 13, "velocity": 85}, {"time": 5727, "pitch": 53, "duration": 7, "velocity": 75}, {"time": 5733, "pitch": 60, "duration": 6, "velocity": 85}, {"time": 5740, "pitch": 69, "duration": 5, "velocity": 70}, {"time": 5746, "pitch": 62, "duration": 8, "velocity": 85}, {"time": 5746, "pitch": 67, "duration": 9, "velocity": 99}, {"time": 5746, "pitch": 40, "duration": 37, "velocity": 67}, {"time": 5751, "pitch": 52, "duration": 17, "velocity": 63}, {"time": 5758, "pitch": 62, "duration": 3, "velocity": 62}, {"time": 5764, "pitch": 67, "duration": 3, "velocity": 88}, {"time": 5764, "pitch": 62, "duration": 3, "velocity": 75}, {"time": 5764, "pitch": 74, "duration": 5, "velocity": 82}, {"time": 5775, "pitch": 52, "duration": 10, "velocity": 59}, {"time": 5782, "pitch": 76, "duration": 4, "velocity": 75}, {"time": 5782, "pitch": 84, "duration": 4, "velocity": 69}, {"time": 5788, "pitch": 84, "duration": 2, "velocity": 56}, {"time": 5788, "pitch": 83, "duration": 2, "velocity": 61}, {"time": 5794, "pitch": 81, "duration": 7, "velocity": 88}, {"time": 5794, "pitch": 41, "duration": 39, "velocity": 69}, {"time": 5794, "pitch": 77, "duration": 8, "velocity": 91}, {"time": 5794, "pitch": 72, "duration": 9, "velocity": 91}, {"time": 5800, "pitch": 48, "duration": 33, "velocity": 67}, {"time": 5806, "pitch": 53, "duration": 17, "velocity": 78}, {"time": 5812, "pitch": 57, "duration": 8, "velocity": 75}, {"time": 5817, "pitch": 60, "duration": 5, "velocity": 73}, {"time": 5823, "pitch": 60, "duration": 2, "velocity": 56}, {"time": 5823, "pitch": 57, "duration": 3, "velocity": 60}, {"time": 5823, "pitch": 64, "duration": 9, "velocity": 76}, {"time": 5829, "pitch": 53, "duration": 4, "velocity": 61}, {"time": 5836, "pitch": 57, "duration": 3, "velocity": 63}, {"time": 5842, "pitch": 43, "duration": 32, "velocity": 59}, {"time": 5842, "pitch": 60, "duration": 10, "velocity": 76}, {"time": 5842, "pitch": 57, "duration": 13, "velocity": 73}, {"time": 5842, "pitch": 65, "duration": 7, "velocity": 78}, {"time": 5842, "pitch": 55, "duration": 8, "velocity": 62}, {"time": 5842, "pitch": 50, "duration": 12, "velocity": 57}, {"time": 5858, "pitch": 50, "duration": 8, "velocity": 31}, {"time": 5859, "pitch": 55, "duration": 10, "velocity": 76}, {"time": 5865, "pitch": 65, "duration": 7, "velocity": 76}, {"time": 5865, "pitch": 60, "duration": 8, "velocity": 80}, {"time": 5865, "pitch": 57, "duration": 8, "velocity": 78}, {"time": 5871, "pitch": 50, "duration": 4, "velocity": 70}, {"time": 5877, "pitch": 57, "duration": 5, "velocity": 69}, {"time": 5877, "pitch": 65, "duration": 1, "velocity": 46}, {"time": 5883, "pitch": 65, "duration": 3, "velocity": 63}, {"time": 5889, "pitch": 36, "duration": 44, "velocity": 69}, {"time": 5889, "pitch": 60, "duration": 10, "velocity": 70}, {"time": 5889, "pitch": 48, "duration": 9, "velocity": 72}, {"time": 5889, "pitch": 64, "duration": 10, "velocity": 69}, {"time": 5889, "pitch": 55, "duration": 11, "velocity": 76}, {"time": 5893, "pitch": 62, "duration": 8, "velocity": 15}, {"time": 5901, "pitch": 48, "duration": 9, "velocity": 50}, {"time": 5907, "pitch": 62, "duration": 11, "velocity": 73}, {"time": 5907, "pitch": 55, "duration": 13, "velocity": 67}, {"time": 5919, "pitch": 48, "duration": 13, "velocity": 51}, {"time": 5925, "pitch": 55, "duration": 8, "velocity": 69}, {"time": 5931, "pitch": 60, "duration": 4, "velocity": 72}, {"time": 5932, "pitch": 43, "duration": 2, "velocity": 40}, {"time": 5937, "pitch": 60, "duration": 7, "velocity": 75}, {"time": 5937, "pitch": 36, "duration": 17, "velocity": 67}, {"time": 5937, "pitch": 55, "duration": 7, "velocity": 78}, {"time": 5937, "pitch": 64, "duration": 8, "velocity": 80}, {"time": 5937, "pitch": 48, "duration": 17, "velocity": 93}, {"time": 6034, "pitch": 41, "duration": 43, "velocity": 69}, {"time": 6034, "pitch": 53, "duration": 42, "velocity": 93}, {"time": 6034, "pitch": 57, "duration": 31, "velocity": 85}, {"time": 6034, "pitch": 60, "duration": 30, "velocity": 95}, {"time": 6034, "pitch": 65, "duration": 33, "velocity": 72}, {"time": 6064, "pitch": 48, "duration": 14, "velocity": 60}, {"time": 6073, "pitch": 57, "duration": 8, "velocity": 62}, {"time": 6073, "pitch": 64, "duration": 12, "velocity": 69}, {"time": 6079, "pitch": 60, "duration": 5, "velocity": 75}, {"time": 6085, "pitch": 43, "duration": 70, "velocity": 67}, {"time": 6085, "pitch": 55, "duration": 68, "velocity": 56}, {"time": 6085, "pitch": 59, "duration": 69, "velocity": 73}, {"time": 6085, "pitch": 62, "duration": 69, "velocity": 70}, {"time": 6085, "pitch": 67, "duration": 71, "velocity": 66}], "annotations": [{"time": 84, "annotation": {"number": 64, "value": 127}, "group": "control_change"}, {"time": 106, "annotation": {"number": 64, "value": 0}, "group": "control_change"}, {"time": 113, "annotation": {"number": 64, "value": 127}, "group": "control_change"}, {"time": 129, "annotation": {"number": 64, "value": 0}, "group": "control_change"}, {"time": 134, "annotation": {"number": 64, "value": 127}, "group": "control_change"}, {"time": 153, "annotation": {"number": 64, "value": 0}, "group": "control_change"}, {"time": 161, "annotation": {"number": 64, "value": 127}, "group": "control_change"}, {"time": 178, "annotation": {"number": 64, "value": 0}, "group": "control_change"}, {"time": 183, "annotation": {"number": 64, "value": 127}, "group": "control_change"}, {"time": 200, "annotation": {"number": 64, "value": 0}, "group": "control_change"}, {"time": 206, "annotation": {"number": 64, "value": 127}, "group": "control_change"}, {"time": 226, "annotation": {"number": 64, "value": 0}, "group": "control_change"}, {"time": 233, "annotation": {"number": 64, "value": 127}, "group": "control_change"}, {"time": 274, "annotation": {"number": 64, "value": 0}, "group": "control_change"}, {"time": 280, "annotation": {"number": 64, "value": 127}, "group": "control_change"}, {"time": 298, "annotation": {"number": 64, "value": 0}, "group": "control_change"}, {"time": 304, "annotation": {"number": 64, "value": 127}, "group": "control_change"}, {"time": 315, "annotation": {"number": 64, "value": 0}, "group": "control_change"}, {"time": 323, "annotation": {"number": 64, "value": 127}, "group": "control_change"}, {"time": 343, "annotation": {"number": 64, "value": 0}, "group": "control_change"}, {"time": 346, "annotation": {"number": 64, "value": 127}, "group": "control_change"}, {"time": 370, "annotation": {"number": 64, "value": 0}, "group": "control_change"}, {"time": 375, "annotation": {"number": 64, "value": 127}, "group": "control_change"}, {"time": 416, "annotation": {"number": 64, "value": 0}, "group": "control_change"}, {"time": 421, "annotation": {"number": 64, "value": 127}, "group": "control_change"}, {"time": 479, "annotation": {"number": 64, "value": 127}, "group": "control_change"}, {"time": 483, "annotation": {"number": 64, "value": 0}, "group": "control_change"}, {"time": 492, "annotation": {"number": 64, "value": 0}, "group": "control_change"}, {"time": 515, "annotation": {"number": 64, "value": 127}, "group": "control_change"}, {"time": 612, "annotation": {"number": 64, "value": 0}, "group": "control_change"}, {"time": 619, "annotation": {"number": 64, "value": 127}, "group": "control_change"}, {"time": 705, "annotation": {"number": 64, "value": 0}, "group": "control_change"}, {"time": 708, "annotation": {"number": 64, "value": 127}, "group": "control_change"}, {"time": 754, "annotation": {"number": 64, "value": 0}, "group": "control_change"}, {"time": 759, "annotation": {"number": 64, "value": 127}, "group": "control_change"}, {"time": 801, "annotation": {"number": 64, "value": 0}, "group": "control_change"}, {"time": 806, "annotation": {"number": 64, "value": 127}, "group": "control_change"}, {"time": 879, "annotation": {"number": 64, "value": 127}, "group": "control_change"}, {"time": 889, "annotation": {"number": 64, "value": 0}, "group": "control_change"}, {"time": 899, "annotation": {"number": 64, "value": 0}, "group": "control_change"}, {"time": 994, "annotation": {"number": 64, "value": 0}, "group": "control_change"}, {"time": 1001, "annotation": {"number": 64, "value": 127}, "group": "control_change"}, {"time": 1090, "annotation": {"number": 64, "value": 0}, "group": "control_change"}, {"time": 1092, "annotation": {"number": 64, "value": 127}, "group": "control_change"}, {"time": 1182, "annotation": {"number": 64, "value": 0}, "group": "control_change"}, {"time": 1190, "annotation": {"number": 64, "value": 127}, "group": "control_change"}, {"time": 1204, "annotation": {"number": 64, "value": 0}, "group": "control_change"}, {"time": 1210, "annotation": {"number": 64, "value": 127}, "group": "control_change"}, {"time": 1279, "annotation": {"number": 64, "value": 0}, "group": "control_change"}, {"time": 1285, "annotation": {"number": 64, "value": 127}, "group": "control_change"}, {"time": 1329, "annotation": {"number": 64, "value": 0}, "group": "control_change"}, {"time": 1334, "annotation": {"number": 64, "value": 127}, "group": "control_change"}, {"time": 1375, "annotation": {"number": 64, "value": 0}, "group": "control_change"}, {"time": 1379, "annotation": {"number": 64, "value": 127}, "group": "control_change"}, {"time": 1455, "annotation": {"number": 64, "value": 127}, "group": "control_change"}, {"time": 1470, "annotation": {"number": 64, "value": 0}, "group": "control_change"}, {"time": 1472, "annotation": {"number": 64, "value": 0}, "group": "control_change"}, {"time": 1473, "annotation": {"number": 64, "value": 127}, "group": "control_change"}, {"time": 1520, "annotation": {"number": 64, "value": 0}, "group": "control_change"}, {"time": 1527, "annotation": {"number": 64, "value": 127}, "group": "control_change"}, {"time": 1569, "annotation": {"number": 64, "value": 0}, "group": "control_change"}, {"time": 1576, "annotation": {"number": 64, "value": 127}, "group": "control_change"}, {"time": 1619, "annotation": {"number": 64, "value": 0}, "group": "control_change"}, {"time": 1626, "annotation": {"number": 64, "value": 127}, "group": "control_change"}, {"time": 1666, "annotation": {"number": 64, "value": 0}, "group": "control_change"}, {"time": 1673, "annotation": {"number": 64, "value": 127}, "group": "control_change"}, {"time": 1713, "annotation": {"number": 64, "value": 0}, "group": "control_change"}, {"time": 1721, "annotation": {"number": 64, "value": 127}, "group": "control_change"}, {"time": 1759, "annotation": {"number": 64, "value": 127}, "group": "control_change"}, {"time": 1761, "annotation": {"number": 64, "value": 0}, "group": "control_change"}, {"time": 1766, "annotation": {"number": 64, "value": 0}, "group": "control_change"}, {"time": 1776, "annotation": {"number": 64, "value": 127}, "group": "control_change"}, {"time": 1782, "annotation": {"number": 64, "value": 0}, "group": "control_change"}, {"time": 1792, "annotation": {"number": 64, "value": 127}, "group": "control_change"}, {"time": 1805, "annotation": {"number": 64, "value": 0}, "group": "control_change"}, {"time": 1811, "annotation": {"number": 64, "value": 127}, "group": "control_change"}, {"time": 1858, "annotation": {"number": 64, "value": 0}, "group": "control_change"}, {"time": 1860, "annotation": {"number": 64, "value": 127}, "group": "control_change"}, {"time": 1906, "annotation": {"number": 64, "value": 0}, "group": "control_change"}, {"time": 1907, "annotation": {"number": 64, "value": 127}, "group": "control_change"}, {"time": 1930, "annotation": {"number": 64, "value": 0}, "group": "control_change"}, {"time": 1945, "annotation": {"number": 64, "value": 127}, "group": "control_change"}, {"time": 1956, "annotation": {"number": 64, "value": 0}, "group": "control_change"}, {"time": 1962, "annotation": {"number": 64, "value": 127}, "group": "control_change"}, {"time": 1999, "annotation": {"number": 64, "value": 0}, "group": "control_change"}, {"time": 2002, "annotation": {"number": 64, "value": 127}, "group": "control_change"}, {"time": 2049, "annotation": {"number": 64, "value": 0}, "group": "control_change"}, {"time": 2055, "annotation": {"number": 64, "value": 127}, "group": "control_change"}, {"time": 2095, "annotation": {"number": 64, "value": 0}, "group": "control_change"}, {"time": 2100, "annotation": {"number": 64, "value": 0}, "group": "control_change"}, {"time": 2107, "annotation": {"number": 64, "value": 127}, "group": "control_change"}, {"time": 2143, "annotation": {"number": 64, "value": 0}, "group": "control_change"}, {"time": 2148, "annotation": {"number": 64, "value": 127}, "group": "control_change"}, {"time": 2150, "annotation": {"number": 64, "value": 0}, "group": "control_change"}, {"time": 2159, "annotation": {"number": 64, "value": 127}, "group": "control_change"}, {"time": 2174, "annotation": {"number": 64, "value": 0}, "group": "control_change"}, {"time": 2181, "annotation": {"number": 64, "value": 127}, "group": "control_change"}, {"time": 2193, "annotation": {"number": 64, "value": 0}, "group": "control_change"}, {"time": 2202, "annotation": {"number": 64, "value": 127}, "group": "control_change"}, {"time": 2241, "annotation": {"number": 64, "value": 0}, "group": "control_change"}, {"time": 2249, "annotation": {"number": 64, "value": 127}, "group": "control_change"}, {"time": 2337, "annotation": {"number": 64, "value": 0}, "group": "control_change"}, {"time": 2340, "annotation": {"number": 64, "value": 127}, "group": "control_change"}, {"time": 2389, "annotation": {"number": 64, "value": 0}, "group": "control_change"}, {"time": 2396, "annotation": {"number": 64, "value": 127}, "group": "control_change"}, {"time": 2433, "annotation": {"number": 64, "value": 0}, "group": "control_change"}, {"time": 2439, "annotation": {"number": 64, "value": 127}, "group": "control_change"}, {"time": 2485, "annotation": {"number": 64, "value": 0}, "group": "control_change"}, {"time": 2491, "annotation": {"number": 64, "value": 127}, "group": "control_change"}, {"time": 2508, "annotation": {"number": 64, "value": 0}, "group": "control_change"}, {"time": 2516, "annotation": {"number": 64, "value": 127}, "group": "control_change"}, {"time": 2532, "annotation": {"number": 64, "value": 0}, "group": "control_change"}, {"time": 2539, "annotation": {"number": 64, "value": 127}, "group": "control_change"}, {"time": 2578, "annotation": {"number": 64, "value": 0}, "group": "control_change"}, {"time": 2584, "annotation": {"number": 64, "value": 127}, "group": "control_change"}, {"time": 2626, "annotation": {"number": 64, "value": 0}, "group": "control_change"}, {"time": 2629, "annotation": {"number": 64, "value": 127}, "group": "control_change"}, {"time": 2673, "annotation": {"number": 64, "value": 0}, "group": "control_change"}, {"time": 2681, "annotation": {"number": 64, "value": 127}, "group": "control_change"}, {"time": 2721, "annotation": {"number": 64, "value": 0}, "group": "control_change"}, {"time": 2725, "annotation": {"number": 64, "value": 127}, "group": "control_change"}, {"time": 2771, "annotation": {"number": 64, "value": 0}, "group": "control_change"}, {"time": 2778, "annotation": {"number": 64, "value": 127}, "group": "control_change"}, {"time": 2819, "annotation": {"number": 64, "value": 0}, "group": "control_change"}, {"time": 2825, "annotation": {"number": 64, "value": 127}, "group": "control_change"}, {"time": 2869, "annotation": {"number": 64, "value": 0}, "group": "control_change"}, {"time": 2876, "annotation": {"number": 64, "value": 127}, "group": "control_change"}, {"time": 2913, "annotation": {"number": 64, "value": 0}, "group": "control_change"}, {"time": 2916, "annotation": {"number": 64, "value": 127}, "group": "control_change"}, {"time": 2961, "annotation": {"number": 64, "value": 0}, "group": "control_change"}, {"time": 2969, "annotation": {"number": 64, "value": 127}, "group": "control_change"}, {"time": 3009, "annotation": {"number": 64, "value": 0}, "group": "control_change"}, {"time": 3016, "annotation": {"number": 64, "value": 127}, "group": "control_change"}, {"time": 3057, "annotation": {"number": 64, "value": 0}, "group": "control_change"}, {"time": 3062, "annotation": {"number": 64, "value": 127}, "group": "control_change"}, {"time": 3107, "annotation": {"number": 64, "value": 0}, "group": "control_change"}, {"time": 3114, "annotation": {"number": 64, "value": 127}, "group": "control_change"}, {"time": 3198, "annotation": {"number": 64, "value": 0}, "group": "control_change"}, {"time": 3203, "annotation": {"number": 64, "value": 127}, "group": "control_change"}, {"time": 3300, "annotation": {"number": 64, "value": 0}, "group": "control_change"}, {"time": 3307, "annotation": {"number": 64, "value": 127}, "group": "control_change"}, {"time": 3393, "annotation": {"number": 64, "value": 0}, "group": "control_change"}, {"time": 3396, "annotation": {"number": 64, "value": 127}, "group": "control_change"}, {"time": 3442, "annotation": {"number": 64, "value": 0}, "group": "control_change"}, {"time": 3447, "annotation": {"number": 64, "value": 127}, "group": "control_change"}, {"time": 3489, "annotation": {"number": 64, "value": 0}, "group": "control_change"}, {"time": 3494, "annotation": {"number": 64, "value": 127}, "group": "control_change"}, {"time": 3567, "annotation": {"number": 64, "value": 127}, "group": "control_change"}, {"time": 3577, "annotation": {"number": 64, "value": 0}, "group": "control_change"}, {"time": 3587, "annotation": {"number": 64, "value": 0}, "group": "control_change"}, {"time": 3682, "annotation": {"number": 64, "value": 0}, "group": "control_change"}, {"time": 3689, "annotation": {"number": 64, "value": 127}, "group": "control_change"}, {"time": 3778, "annotation": {"number": 64, "value": 0}, "group": "control_change"}, {"time": 3780, "annotation": {"number": 64, "value": 127}, "group": "control_change"}, {"time": 3870, "annotation": {"number": 64, "value": 0}, "group": "control_change"}, {"time": 3878, "annotation": {"number": 64, "value": 127}, "group": "control_change"}, {"time": 3892, "annotation": {"number": 64, "value": 0}, "group": "control_change"}, {"time": 3898, "annotation": {"number": 64, "value": 127}, "group": "control_change"}, {"time": 3967, "annotation": {"number": 64, "value": 0}, "group": "control_change"}, {"time": 3973, "annotation": {"number": 64, "value": 127}, "group": "control_change"}, {"time": 4017, "annotation": {"number": 64, "value": 0}, "group": "control_change"}, {"time": 4022, "annotation": {"number": 64, "value": 127}, "group": "control_change"}, {"time": 4063, "annotation": {"number": 64, "value": 0}, "group": "control_change"}, {"time": 4067, "annotation": {"number": 64, "value": 127}, "group": "control_change"}, {"time": 4143, "annotation": {"number": 64, "value": 127}, "group": "control_change"}, {"time": 4158, "annotation": {"number": 64, "value": 0}, "group": "control_change"}, {"time": 4160, "annotation": {"number": 64, "value": 0}, "group": "control_change"}, {"time": 4161, "annotation": {"number": 64, "value": 127}, "group": "control_change"}, {"time": 4208, "annotation": {"number": 64, "value": 0}, "group": "control_change"}, {"time": 4215, "annotation": {"number": 64, "value": 127}, "group": "control_change"}, {"time": 4257, "annotation": {"number": 64, "value": 0}, "group": "control_change"}, {"time": 4264, "annotation": {"number": 64, "value": 127}, "group": "control_change"}, {"time": 4307, "annotation": {"number": 64, "value": 0}, "group": "control_change"}, {"time": 4314, "annotation": {"number": 64, "value": 127}, "group": "control_change"}, {"time": 4354, "annotation": {"number": 64, "value": 0}, "group": "control_change"}, {"time": 4361, "annotation": {"number": 64, "value": 127}, "group": "control_change"}, {"time": 4401, "annotation": {"number": 64, "value": 0}, "group": "control_change"}, {"time": 4409, "annotation": {"number": 64, "value": 127}, "group": "control_change"}, {"time": 4447, "annotation": {"number": 64, "value": 127}, "group": "control_change"}, {"time": 4449, "annotation": {"number": 64, "value": 0}, "group": "control_change"}, {"time": 4454, "annotation": {"number": 64, "value": 0}, "group": "control_change"}, {"time": 4464, "annotation": {"number": 64, "value": 127}, "group": "control_change"}, {"time": 4470, "annotation": {"number": 64, "value": 0}, "group": "control_change"}, {"time": 4480, "annotation": {"number": 64, "value": 127}, "group": "control_change"}, {"time": 4493, "annotation": {"number": 64, "value": 0}, "group": "control_change"}, {"time": 4499, "annotation": {"number": 64, "value": 127}, "group": "control_change"}, {"time": 4546, "annotation": {"number": 64, "value": 0}, "group": "control_change"}, {"time": 4548, "annotation": {"number": 64, "value": 127}, "group": "control_change"}, {"time": 4594, "annotation": {"number": 64, "value": 0}, "group": "control_change"}, {"time": 4595, "annotation": {"number": 64, "value": 127}, "group": "control_change"}, {"time": 4618, "annotation": {"number": 64, "value": 0}, "group": "control_change"}, {"time": 4633, "annotation": {"number": 64, "value": 127}, "group": "control_change"}, {"time": 4644, "annotation": {"number": 64, "value": 0}, "group": "control_change"}, {"time": 4650, "annotation": {"number": 64, "value": 127}, "group": "control_change"}, {"time": 4687, "annotation": {"number": 64, "value": 0}, "group": "control_change"}, {"time": 4690, "annotation": {"number": 64, "value": 127}, "group": "control_change"}, {"time": 4737, "annotation": {"number": 64, "value": 0}, "group": "control_change"}, {"time": 4743, "annotation": {"number": 64, "value": 127}, "group": "control_change"}, {"time": 4783, "annotation": {"number": 64, "value": 0}, "group": "control_change"}, {"time": 4788, "annotation": {"number": 64, "value": 0}, "group": "control_change"}, {"time": 4795, "annotation": {"number": 64, "value": 127}, "group": "control_change"}, {"time": 4831, "annotation": {"number": 64, "value": 0}, "group": "control_change"}, {"time": 4836, "annotation": {"number": 64, "value": 127}, "group": "control_change"}, {"time": 4838, "annotation": {"number": 64, "value": 0}, "group": "control_change"}, {"time": 4847, "annotation": {"number": 64, "value": 127}, "group": "control_change"}, {"time": 4862, "annotation": {"number": 64, "value": 0}, "group": "control_change"}, {"time": 4869, "annotation": {"number": 64, "value": 127}, "group": "control_change"}, {"time": 4881, "annotation": {"number": 64, "value": 0}, "group": "control_change"}, {"time": 4890, "annotation": {"number": 64, "value": 127}, "group": "control_change"}, {"time": 4929, "annotation": {"number": 64, "value": 0}, "group": "control_change"}, {"time": 4932, "annotation": {"number": 64, "value": 127}, "group": "control_change"}, {"time": 4970, "annotation": {"number": 64, "value": 0}, "group": "control_change"}, {"time": 4978, "annotation": {"number": 64, "value": 127}, "group": "control_change"}, {"time": 4994, "annotation": {"number": 64, "value": 0}, "group": "control_change"}, {"time": 5001, "annotation": {"number": 64, "value": 127}, "group": "control_change"}, {"time": 5025, "annotation": {"number": 64, "value": 0}, "group": "control_change"}, {"time": 5032, "annotation": {"number": 64, "value": 127}, "group": "control_change"}, {"time": 5066, "annotation": {"number": 64, "value": 0}, "group": "control_change"}, {"time": 5075, "annotation": {"number": 64, "value": 127}, "group": "control_change"}, {"time": 5119, "annotation": {"number": 64, "value": 0}, "group": "control_change"}, {"time": 5126, "annotation": {"number": 64, "value": 127}, "group": "control_change"}, {"time": 5171, "annotation": {"number": 64, "value": 0}, "group": "control_change"}, {"time": 5178, "annotation": {"number": 64, "value": 127}, "group": "control_change"}, {"time": 5216, "annotation": {"number": 64, "value": 0}, "group": "control_change"}, {"time": 5223, "annotation": {"number": 64, "value": 127}, "group": "control_change"}, {"time": 5267, "annotation": {"number": 64, "value": 0}, "group": "control_change"}, {"time": 5276, "annotation": {"number": 64, "value": 127}, "group": "control_change"}, {"time": 5317, "annotation": {"number": 64, "value": 0}, "group": "control_change"}, {"time": 5324, "annotation": {"number": 64, "value": 127}, "group": "control_change"}, {"time": 5365, "annotation": {"number": 64, "value": 0}, "group": "control_change"}, {"time": 5374, "annotation": {"number": 64, "value": 127}, "group": "control_change"}, {"time": 5410, "annotation": {"number": 64, "value": 0}, "group": "control_change"}, {"time": 5418, "annotation": {"number": 64, "value": 127}, "group": "control_change"}, {"time": 5433, "annotation": {"number": 64, "value": 0}, "group": "control_change"}, {"time": 5461, "annotation": {"number": 64, "value": 127}, "group": "control_change"}, {"time": 5504, "annotation": {"number": 64, "value": 0}, "group": "control_change"}, {"time": 5509, "annotation": {"number": 64, "value": 127}, "group": "control_change"}, {"time": 5553, "annotation": {"number": 64, "value": 0}, "group": "control_change"}, {"time": 5557, "annotation": {"number": 64, "value": 127}, "group": "control_change"}, {"time": 5603, "annotation": {"number": 64, "value": 0}, "group": "control_change"}, {"time": 5610, "annotation": {"number": 64, "value": 127}, "group": "control_change"}, {"time": 5652, "annotation": {"number": 64, "value": 0}, "group": "control_change"}, {"time": 5659, "annotation": {"number": 64, "value": 127}, "group": "control_change"}, {"time": 5702, "annotation": {"number": 64, "value": 0}, "group": "control_change"}, {"time": 5708, "annotation": {"number": 64, "value": 127}, "group": "control_change"}, {"time": 5747, "annotation": {"number": 64, "value": 0}, "group": "control_change"}, {"time": 5754, "annotation": {"number": 64, "value": 127}, "group": "control_change"}, {"time": 5797, "annotation": {"number": 64, "value": 0}, "group": "control_change"}, {"time": 5804, "annotation": {"number": 64, "value": 127}, "group": "control_change"}, {"time": 5841, "annotation": {"number": 64, "value": 0}, "group": "control_change"}, {"time": 5849, "annotation": {"number": 64, "value": 127}, "group": "control_change"}, {"time": 5890, "annotation": {"number": 64, "value": 0}, "group": "control_change"}, {"time": 5897, "annotation": {"number": 64, "value": 127}, "group": "control_change"}, {"time": 5936, "annotation": {"number": 64, "value": 0}, "group": "control_change"}, {"time": 5941, "annotation": {"number": 64, "value": 127}, "group": "control_change"}, {"time": 5985, "annotation": {"number": 64, "value": 0}, "group": "control_change"}, {"time": 6037, "annotation": {"number": 64, "value": 127}, "group": "control_change"}, {"time": 6087, "annotation": {"number": 64, "value": 0}, "group": "control_change"}, {"time": 6093, "annotation": {"number": 64, "value": 127}, "group": "control_change"}, {"time": 6163, "annotation": {"number": 64, "value": 0}, "group": "control_change"}]}]}