{"metadata": {"schema_version": "0.2", "title": "None", "source_filename": "233.mid", "source_format": "midi"}, "resolution": 12, "tempos": [{"time": 0, "qpm": 77.000077000077}, {"time": 60, "qpm": 78.000078000078}, {"time": 144, "qpm": 80.99997165000993}, {"time": 168, "qpm": 73.99998273333736}, {"time": 180, "qpm": 80.0}, {"time": 228, "qpm": 77.000077000077}, {"time": 252, "qpm": 80.0}, {"time": 288, "qpm": 77.000077000077}, {"time": 360, "qpm": 80.0}, {"time": 384, "qpm": 78.000078000078}, {"time": 396, "qpm": 82.00014760026568}, {"time": 420, "qpm": 80.0}, {"time": 432, "qpm": 75.99996960001216}, {"time": 456, "qpm": 78.000078000078}, {"time": 504, "qpm": 80.0}, {"time": 552, "qpm": 78.9999657666815}, {"time": 564, "qpm": 75.99996960001216}, {"time": 588, "qpm": 78.000078000078}, {"time": 600, "qpm": 80.99997165000993}, {"time": 636, "qpm": 78.000078000078}, {"time": 768, "qpm": 75.99996960001216}, {"time": 792, "qpm": 75.0}, {"time": 804, "qpm": 80.0}, {"time": 900, "qpm": 75.99996960001216}, {"time": 924, "qpm": 78.9999657666815}, {"time": 972, "qpm": 78.000078000078}, {"time": 1020, "qpm": 75.99996960001216}, {"time": 1044, "qpm": 73.99998273333736}, {"time": 1104, "qpm": 78.9999657666815}, {"time": 1128, "qpm": 72.00011520018433}, {"time": 1164, "qpm": 77.000077000077}, {"time": 1176, "qpm": 70.00007000007}, {"time": 1236, "qpm": 59.00006686674245}, {"time": 1248, "qpm": 67.00002903334591}, {"time": 1260, "qpm": 75.0}, {"time": 1284, "qpm": 80.0}, {"time": 1344, "qpm": 77.000077000077}, {"time": 1392, "qpm": 80.99997165000993}, {"time": 1404, "qpm": 78.9999657666815}, {"time": 1416, "qpm": 83.0000650167176}, {"time": 1440, "qpm": 75.99996960001216}, {"time": 1464, "qpm": 78.000078000078}, {"time": 1500, "qpm": 75.99996960001216}, {"time": 1512, "qpm": 78.9999657666815}, {"time": 1596, "qpm": 72.00011520018433}, {"time": 1608, "qpm": 80.0}, {"time": 1644, "qpm": 75.99996960001216}, {"time": 1656, "qpm": 80.99997165000993}, {"time": 1692, "qpm": 78.9999657666815}, {"time": 1728, "qpm": 75.0}, {"time": 1740, "qpm": 78.000078000078}, {"time": 1824, "qpm": 80.0}, {"time": 1860, "qpm": 77.000077000077}, {"time": 1872, "qpm": 80.0}, {"time": 1884, "qpm": 78.000078000078}, {"time": 1980, "qpm": 80.99997165000993}, {"time": 2016, "qpm": 75.0}, {"time": 2028, "qpm": 80.99997165000993}, {"time": 2040, "qpm": 78.000078000078}, {"time": 2088, "qpm": 78.9999657666815}, {"time": 2124, "qpm": 77.000077000077}, {"time": 2160, "qpm": 80.0}, {"time": 2208, "qpm": 77.000077000077}, {"time": 2256, "qpm": 78.000078000078}, {"time": 2268, "qpm": 78.9999657666815}, {"time": 2280, "qpm": 80.99997165000993}, {"time": 2292, "qpm": 84.000084000084}, {"time": 2304, "qpm": 73.00007178340392}, {"time": 2316, "qpm": 78.000078000078}, {"time": 2352, "qpm": 82.00014760026568}, {"time": 2364, "qpm": 75.99996960001216}, {"time": 2376, "qpm": 80.0}, {"time": 2388, "qpm": 77.000077000077}, {"time": 2400, "qpm": 78.000078000078}, {"time": 2412, "qpm": 78.9999657666815}, {"time": 2484, "qpm": 78.000078000078}, {"time": 2544, "qpm": 80.99997165000993}, {"time": 2556, "qpm": 73.99998273333736}, {"time": 2568, "qpm": 83.0000650167176}, {"time": 2580, "qpm": 77.000077000077}, {"time": 2604, "qpm": 78.9999657666815}, {"time": 2652, "qpm": 77.000077000077}, {"time": 2700, "qpm": 84.000084000084}, {"time": 2724, "qpm": 78.9999657666815}, {"time": 2736, "qpm": 82.00014760026568}, {"time": 2748, "qpm": 73.00007178340392}, {"time": 2760, "qpm": 78.9999657666815}, {"time": 2784, "qpm": 67.00002903334591}, {"time": 2796, "qpm": 78.000078000078}, {"time": 2808, "qpm": 80.99997165000993}, {"time": 2820, "qpm": 84.000084000084}, {"time": 2856, "qpm": 85.00004250002125}, {"time": 2880, "qpm": 61.99999586666694}, {"time": 2892, "qpm": 78.9999657666815}, {"time": 2916, "qpm": 78.000078000078}, {"time": 3012, "qpm": 82.00014760026568}, {"time": 3060, "qpm": 75.99996960001216}, {"time": 3120, "qpm": 80.0}, {"time": 3180, "qpm": 73.99998273333736}, {"time": 3216, "qpm": 86.00005160003096}, {"time": 3240, "qpm": 75.0}, {"time": 3264, "qpm": 72.00011520018433}, {"time": 3276, "qpm": 58.00004253336452}, {"time": 3288, "qpm": 78.000078000078}, {"time": 3384, "qpm": 80.99997165000993}, {"time": 3408, "qpm": 75.99996960001216}, {"time": 3432, "qpm": 80.99997165000993}, {"time": 3444, "qpm": 78.000078000078}, {"time": 3480, "qpm": 80.99997165000993}, {"time": 3492, "qpm": 78.000078000078}, {"time": 3540, "qpm": 78.9999657666815}, {"time": 3564, "qpm": 77.000077000077}, {"time": 3576, "qpm": 75.99996960001216}, {"time": 3600, "qpm": 57.000031350017245}, {"time": 3612, "qpm": 53.000022083342536}, {"time": 3624, "qpm": 70.00007000007}, {"time": 3648, "qpm": 88.00002346667293}, {"time": 3660, "qpm": 85.00004250002125}, {"time": 3672, "qpm": 82.00014760026568}, {"time": 3708, "qpm": 78.9999657666815}, {"time": 3720, "qpm": 77.000077000077}, {"time": 3768, "qpm": 80.0}], "time_signatures": [{"time": 0, "numerator": 4, "denominator": 4}], "tracks": [{"program": 4, "is_drum": false, "name": "MELODY", "notes": [{"time": 9, "pitch": 67, "duration": 15, "velocity": 91}, {"time": 24, "pitch": 77, "duration": 12, "velocity": 98}, {"time": 36, "pitch": 77, "duration": 6, "velocity": 95}, {"time": 42, "pitch": 76, "duration": 6, "velocity": 82}, {"time": 48, "pitch": 76, "duration": 6, "velocity": 86}, {"time": 54, "pitch": 74, "duration": 6, "velocity": 84}, {"time": 60, "pitch": 72, "duration": 6, "velocity": 86}, {"time": 66, "pitch": 74, "duration": 3, "velocity": 81}, {"time": 69, "pitch": 76, "duration": 9, "velocity": 86}, {"time": 78, "pitch": 77, "duration": 6, "velocity": 95}, {"time": 84, "pitch": 77, "duration": 6, "velocity": 91}, {"time": 90, "pitch": 76, "duration": 6, "velocity": 86}, {"time": 96, "pitch": 76, "duration": 6, "velocity": 93}, {"time": 102, "pitch": 74, "duration": 6, "velocity": 90}, {"time": 108, "pitch": 72, "duration": 6, "velocity": 90}, {"time": 114, "pitch": 74, "duration": 3, "velocity": 84}, {"time": 117, "pitch": 76, "duration": 9, "velocity": 83}, {"time": 126, "pitch": 79, "duration": 6, "velocity": 86}, {"time": 132, "pitch": 79, "duration": 6, "velocity": 86}, {"time": 138, "pitch": 77, "duration": 6, "velocity": 84}, {"time": 144, "pitch": 76, "duration": 6, "velocity": 84}, {"time": 150, "pitch": 74, "duration": 6, "velocity": 72}, {"time": 156, "pitch": 72, "duration": 6, "velocity": 84}, {"time": 162, "pitch": 74, "duration": 6, "velocity": 78}, {"time": 168, "pitch": 76, "duration": 6, "velocity": 80}, {"time": 174, "pitch": 77, "duration": 3, "velocity": 84}, {"time": 177, "pitch": 77, "duration": 3, "velocity": 84}, {"time": 180, "pitch": 74, "duration": 24, "velocity": 90}, {"time": 204, "pitch": 67, "duration": 12, "velocity": 84}, {"time": 216, "pitch": 77, "duration": 12, "velocity": 90}, {"time": 228, "pitch": 77, "duration": 6, "velocity": 80}, {"time": 234, "pitch": 76, "duration": 6, "velocity": 79}, {"time": 240, "pitch": 76, "duration": 6, "velocity": 82}, {"time": 246, "pitch": 74, "duration": 6, "velocity": 84}, {"time": 252, "pitch": 72, "duration": 6, "velocity": 83}, {"time": 258, "pitch": 74, "duration": 3, "velocity": 80}, {"time": 261, "pitch": 76, "duration": 9, "velocity": 84}, {"time": 270, "pitch": 77, "duration": 6, "velocity": 93}, {"time": 276, "pitch": 77, "duration": 6, "velocity": 86}, {"time": 282, "pitch": 76, "duration": 6, "velocity": 84}, {"time": 288, "pitch": 76, "duration": 6, "velocity": 90}, {"time": 294, "pitch": 74, "duration": 6, "velocity": 84}, {"time": 300, "pitch": 72, "duration": 3, "velocity": 93}, {"time": 303, "pitch": 72, "duration": 3, "velocity": 80}, {"time": 306, "pitch": 74, "duration": 3, "velocity": 79}, {"time": 309, "pitch": 76, "duration": 9, "velocity": 83}, {"time": 318, "pitch": 79, "duration": 6, "velocity": 84}, {"time": 324, "pitch": 79, "duration": 6, "velocity": 84}, {"time": 330, "pitch": 77, "duration": 6, "velocity": 86}, {"time": 336, "pitch": 76, "duration": 6, "velocity": 86}, {"time": 342, "pitch": 74, "duration": 6, "velocity": 84}, {"time": 348, "pitch": 72, "duration": 12, "velocity": 84}, {"time": 360, "pitch": 71, "duration": 6, "velocity": 86}, {"time": 366, "pitch": 74, "duration": 12, "velocity": 86}, {"time": 378, "pitch": 72, "duration": 42, "velocity": 90}, {"time": 420, "pitch": 67, "duration": 6, "velocity": 83}, {"time": 426, "pitch": 69, "duration": 6, "velocity": 82}, {"time": 432, "pitch": 72, "duration": 6, "velocity": 90}, {"time": 438, "pitch": 74, "duration": 6, "velocity": 84}, {"time": 444, "pitch": 76, "duration": 6, "velocity": 84}, {"time": 450, "pitch": 74, "duration": 6, "velocity": 86}, {"time": 456, "pitch": 72, "duration": 6, "velocity": 90}, {"time": 462, "pitch": 74, "duration": 6, "velocity": 84}, {"time": 468, "pitch": 76, "duration": 6, "velocity": 90}, {"time": 474, "pitch": 79, "duration": 6, "velocity": 84}, {"time": 480, "pitch": 76, "duration": 24, "velocity": 79}, {"time": 504, "pitch": 76, "duration": 6, "velocity": 90}, {"time": 510, "pitch": 74, "duration": 6, "velocity": 86}, {"time": 516, "pitch": 72, "duration": 6, "velocity": 84}, {"time": 522, "pitch": 69, "duration": 6, "velocity": 80}, {"time": 528, "pitch": 72, "duration": 6, "velocity": 90}, {"time": 534, "pitch": 74, "duration": 6, "velocity": 80}, {"time": 540, "pitch": 72, "duration": 6, "velocity": 82}, {"time": 546, "pitch": 67, "duration": 3, "velocity": 81}, {"time": 549, "pitch": 76, "duration": 12, "velocity": 84}, {"time": 561, "pitch": 76, "duration": 3, "velocity": 86}, {"time": 564, "pitch": 77, "duration": 6, "velocity": 91}, {"time": 570, "pitch": 76, "duration": 6, "velocity": 82}, {"time": 576, "pitch": 74, "duration": 6, "velocity": 83}, {"time": 582, "pitch": 72, "duration": 3, "velocity": 93}, {"time": 585, "pitch": 72, "duration": 3, "velocity": 86}, {"time": 588, "pitch": 74, "duration": 6, "velocity": 84}, {"time": 594, "pitch": 76, "duration": 6, "velocity": 82}, {"time": 600, "pitch": 74, "duration": 12, "velocity": 83}, {"time": 612, "pitch": 67, "duration": 7, "velocity": 90}, {"time": 618, "pitch": 69, "duration": 8, "velocity": 83}, {"time": 624, "pitch": 72, "duration": 5, "velocity": 90}, {"time": 630, "pitch": 74, "duration": 6, "velocity": 86}, {"time": 636, "pitch": 76, "duration": 6, "velocity": 84}, {"time": 642, "pitch": 74, "duration": 5, "velocity": 81}, {"time": 648, "pitch": 72, "duration": 6, "velocity": 84}, {"time": 654, "pitch": 74, "duration": 6, "velocity": 90}, {"time": 660, "pitch": 76, "duration": 7, "velocity": 84}, {"time": 666, "pitch": 79, "duration": 5, "velocity": 83}, {"time": 672, "pitch": 76, "duration": 13, "velocity": 86}, {"time": 708, "pitch": 74, "duration": 26, "velocity": 78}, {"time": 732, "pitch": 72, "duration": 13, "velocity": 98}, {"time": 744, "pitch": 71, "duration": 6, "velocity": 91}, {"time": 750, "pitch": 74, "duration": 25, "velocity": 95}, {"time": 762, "pitch": 72, "duration": 9, "velocity": 93}, {"time": 786, "pitch": 72, "duration": 8, "velocity": 90}, {"time": 792, "pitch": 76, "duration": 5, "velocity": 86}, {"time": 798, "pitch": 79, "duration": 7, "velocity": 83}, {"time": 804, "pitch": 81, "duration": 18, "velocity": 91}, {"time": 822, "pitch": 79, "duration": 6, "velocity": 80}, {"time": 828, "pitch": 81, "duration": 5, "velocity": 90}, {"time": 834, "pitch": 79, "duration": 6, "velocity": 79}, {"time": 834, "pitch": 81, "duration": 1, "velocity": 43}, {"time": 840, "pitch": 76, "duration": 6, "velocity": 94}, {"time": 846, "pitch": 74, "duration": 6, "velocity": 83}, {"time": 852, "pitch": 76, "duration": 6, "velocity": 90}, {"time": 858, "pitch": 79, "duration": 7, "velocity": 82}, {"time": 864, "pitch": 76, "duration": 15, "velocity": 83}, {"time": 882, "pitch": 72, "duration": 8, "velocity": 78}, {"time": 882, "pitch": 74, "duration": 1, "velocity": 63}, {"time": 888, "pitch": 76, "duration": 5, "velocity": 86}, {"time": 894, "pitch": 79, "duration": 6, "velocity": 83}, {"time": 900, "pitch": 81, "duration": 14, "velocity": 90}, {"time": 918, "pitch": 79, "duration": 4, "velocity": 83}, {"time": 924, "pitch": 81, "duration": 4, "velocity": 95}, {"time": 930, "pitch": 79, "duration": 3, "velocity": 83}, {"time": 936, "pitch": 76, "duration": 5, "velocity": 98}, {"time": 942, "pitch": 74, "duration": 3, "velocity": 82}, {"time": 945, "pitch": 76, "duration": 29, "velocity": 84}, {"time": 978, "pitch": 72, "duration": 7, "velocity": 98}, {"time": 984, "pitch": 76, "duration": 5, "velocity": 86}, {"time": 990, "pitch": 79, "duration": 6, "velocity": 90}, {"time": 996, "pitch": 81, "duration": 14, "velocity": 90}, {"time": 1008, "pitch": 81, "duration": 2, "velocity": 95}, {"time": 1020, "pitch": 80, "duration": 5, "velocity": 103}, {"time": 1026, "pitch": 76, "duration": 7, "velocity": 90}, {"time": 1032, "pitch": 83, "duration": 5, "velocity": 91}, {"time": 1038, "pitch": 84, "duration": 5, "velocity": 83}, {"time": 1044, "pitch": 81, "duration": 2, "velocity": 84}, {"time": 1046, "pitch": 83, "duration": 4, "velocity": 81}, {"time": 1050, "pitch": 81, "duration": 4, "velocity": 91}, {"time": 1056, "pitch": 76, "duration": 5, "velocity": 98}, {"time": 1062, "pitch": 74, "duration": 3, "velocity": 98}, {"time": 1065, "pitch": 74, "duration": 3, "velocity": 98}, {"time": 1071, "pitch": 72, "duration": 5, "velocity": 100}, {"time": 1122, "pitch": 69, "duration": 3, "velocity": 84}, {"time": 1125, "pitch": 69, "duration": 3, "velocity": 83}, {"time": 1128, "pitch": 76, "duration": 6, "velocity": 86}, {"time": 1134, "pitch": 77, "duration": 6, "velocity": 93}, {"time": 1140, "pitch": 79, "duration": 6, "velocity": 84}, {"time": 1146, "pitch": 72, "duration": 6, "velocity": 83}, {"time": 1152, "pitch": 72, "duration": 18, "velocity": 86}, {"time": 1170, "pitch": 69, "duration": 3, "velocity": 86}, {"time": 1173, "pitch": 69, "duration": 3, "velocity": 80}, {"time": 1176, "pitch": 76, "duration": 6, "velocity": 86}, {"time": 1182, "pitch": 77, "duration": 6, "velocity": 84}, {"time": 1188, "pitch": 79, "duration": 6, "velocity": 79}, {"time": 1194, "pitch": 72, "duration": 9, "velocity": 82}, {"time": 1203, "pitch": 74, "duration": 6, "velocity": 82}, {"time": 1209, "pitch": 72, "duration": 27, "velocity": 86}, {"time": 1248, "pitch": 67, "duration": 15, "velocity": 91}, {"time": 1260, "pitch": 77, "duration": 12, "velocity": 98}, {"time": 1272, "pitch": 77, "duration": 6, "velocity": 95}, {"time": 1278, "pitch": 76, "duration": 6, "velocity": 82}, {"time": 1284, "pitch": 76, "duration": 6, "velocity": 86}, {"time": 1290, "pitch": 74, "duration": 6, "velocity": 84}, {"time": 1296, "pitch": 72, "duration": 6, "velocity": 86}, {"time": 1302, "pitch": 74, "duration": 3, "velocity": 81}, {"time": 1305, "pitch": 76, "duration": 9, "velocity": 86}, {"time": 1314, "pitch": 77, "duration": 6, "velocity": 95}, {"time": 1320, "pitch": 77, "duration": 6, "velocity": 91}, {"time": 1326, "pitch": 76, "duration": 6, "velocity": 86}, {"time": 1332, "pitch": 76, "duration": 6, "velocity": 93}, {"time": 1338, "pitch": 74, "duration": 6, "velocity": 90}, {"time": 1344, "pitch": 72, "duration": 6, "velocity": 90}, {"time": 1350, "pitch": 74, "duration": 3, "velocity": 84}, {"time": 1353, "pitch": 76, "duration": 9, "velocity": 83}, {"time": 1362, "pitch": 79, "duration": 6, "velocity": 86}, {"time": 1368, "pitch": 79, "duration": 6, "velocity": 86}, {"time": 1374, "pitch": 77, "duration": 6, "velocity": 84}, {"time": 1380, "pitch": 76, "duration": 6, "velocity": 84}, {"time": 1386, "pitch": 74, "duration": 6, "velocity": 72}, {"time": 1392, "pitch": 72, "duration": 6, "velocity": 84}, {"time": 1398, "pitch": 74, "duration": 6, "velocity": 78}, {"time": 1404, "pitch": 76, "duration": 6, "velocity": 80}, {"time": 1410, "pitch": 77, "duration": 3, "velocity": 84}, {"time": 1413, "pitch": 77, "duration": 3, "velocity": 84}, {"time": 1416, "pitch": 74, "duration": 24, "velocity": 90}, {"time": 1440, "pitch": 67, "duration": 12, "velocity": 84}, {"time": 1452, "pitch": 77, "duration": 12, "velocity": 90}, {"time": 1464, "pitch": 77, "duration": 6, "velocity": 80}, {"time": 1470, "pitch": 76, "duration": 6, "velocity": 79}, {"time": 1476, "pitch": 76, "duration": 6, "velocity": 82}, {"time": 1482, "pitch": 74, "duration": 6, "velocity": 84}, {"time": 1488, "pitch": 72, "duration": 6, "velocity": 83}, {"time": 1494, "pitch": 74, "duration": 3, "velocity": 80}, {"time": 1497, "pitch": 76, "duration": 9, "velocity": 84}, {"time": 1506, "pitch": 77, "duration": 6, "velocity": 93}, {"time": 1512, "pitch": 77, "duration": 6, "velocity": 86}, {"time": 1518, "pitch": 76, "duration": 6, "velocity": 84}, {"time": 1524, "pitch": 76, "duration": 6, "velocity": 90}, {"time": 1530, "pitch": 74, "duration": 6, "velocity": 84}, {"time": 1536, "pitch": 72, "duration": 3, "velocity": 93}, {"time": 1539, "pitch": 72, "duration": 3, "velocity": 80}, {"time": 1542, "pitch": 74, "duration": 3, "velocity": 79}, {"time": 1545, "pitch": 76, "duration": 9, "velocity": 83}, {"time": 1554, "pitch": 79, "duration": 6, "velocity": 84}, {"time": 1560, "pitch": 79, "duration": 6, "velocity": 84}, {"time": 1566, "pitch": 77, "duration": 6, "velocity": 86}, {"time": 1572, "pitch": 76, "duration": 6, "velocity": 86}, {"time": 1578, "pitch": 74, "duration": 6, "velocity": 84}, {"time": 1584, "pitch": 72, "duration": 12, "velocity": 84}, {"time": 1596, "pitch": 71, "duration": 6, "velocity": 86}, {"time": 1602, "pitch": 74, "duration": 6, "velocity": 86}, {"time": 1608, "pitch": 74, "duration": 6, "velocity": 86}, {"time": 1620, "pitch": 72, "duration": 42, "velocity": 90}, {"time": 2040, "pitch": 67, "duration": 6, "velocity": 83}, {"time": 2046, "pitch": 69, "duration": 6, "velocity": 82}, {"time": 2052, "pitch": 72, "duration": 6, "velocity": 90}, {"time": 2058, "pitch": 74, "duration": 6, "velocity": 84}, {"time": 2064, "pitch": 76, "duration": 6, "velocity": 84}, {"time": 2070, "pitch": 74, "duration": 6, "velocity": 86}, {"time": 2076, "pitch": 72, "duration": 6, "velocity": 90}, {"time": 2082, "pitch": 74, "duration": 6, "velocity": 84}, {"time": 2088, "pitch": 76, "duration": 6, "velocity": 90}, {"time": 2094, "pitch": 79, "duration": 6, "velocity": 84}, {"time": 2100, "pitch": 76, "duration": 24, "velocity": 79}, {"time": 2124, "pitch": 76, "duration": 6, "velocity": 90}, {"time": 2130, "pitch": 74, "duration": 6, "velocity": 86}, {"time": 2136, "pitch": 72, "duration": 6, "velocity": 84}, {"time": 2142, "pitch": 69, "duration": 6, "velocity": 80}, {"time": 2148, "pitch": 72, "duration": 6, "velocity": 90}, {"time": 2154, "pitch": 74, "duration": 6, "velocity": 80}, {"time": 2160, "pitch": 72, "duration": 6, "velocity": 82}, {"time": 2166, "pitch": 67, "duration": 3, "velocity": 81}, {"time": 2169, "pitch": 76, "duration": 12, "velocity": 84}, {"time": 2181, "pitch": 76, "duration": 3, "velocity": 86}, {"time": 2184, "pitch": 77, "duration": 6, "velocity": 91}, {"time": 2190, "pitch": 76, "duration": 6, "velocity": 82}, {"time": 2196, "pitch": 74, "duration": 6, "velocity": 83}, {"time": 2202, "pitch": 72, "duration": 3, "velocity": 93}, {"time": 2205, "pitch": 72, "duration": 3, "velocity": 86}, {"time": 2208, "pitch": 74, "duration": 6, "velocity": 84}, {"time": 2214, "pitch": 76, "duration": 6, "velocity": 82}, {"time": 2220, "pitch": 74, "duration": 12, "velocity": 83}, {"time": 2232, "pitch": 67, "duration": 7, "velocity": 90}, {"time": 2238, "pitch": 69, "duration": 8, "velocity": 83}, {"time": 2244, "pitch": 72, "duration": 5, "velocity": 90}, {"time": 2250, "pitch": 74, "duration": 6, "velocity": 86}, {"time": 2256, "pitch": 76, "duration": 6, "velocity": 84}, {"time": 2262, "pitch": 74, "duration": 5, "velocity": 81}, {"time": 2268, "pitch": 72, "duration": 6, "velocity": 84}, {"time": 2274, "pitch": 74, "duration": 6, "velocity": 90}, {"time": 2280, "pitch": 76, "duration": 7, "velocity": 84}, {"time": 2286, "pitch": 79, "duration": 5, "velocity": 83}, {"time": 2292, "pitch": 76, "duration": 13, "velocity": 86}, {"time": 2328, "pitch": 74, "duration": 26, "velocity": 78}, {"time": 2352, "pitch": 72, "duration": 13, "velocity": 98}, {"time": 2364, "pitch": 71, "duration": 6, "velocity": 91}, {"time": 2370, "pitch": 74, "duration": 25, "velocity": 95}, {"time": 2382, "pitch": 72, "duration": 9, "velocity": 93}, {"time": 2406, "pitch": 72, "duration": 8, "velocity": 90}, {"time": 2412, "pitch": 76, "duration": 5, "velocity": 86}, {"time": 2418, "pitch": 79, "duration": 7, "velocity": 83}, {"time": 2424, "pitch": 81, "duration": 18, "velocity": 91}, {"time": 2442, "pitch": 79, "duration": 6, "velocity": 80}, {"time": 2448, "pitch": 81, "duration": 5, "velocity": 90}, {"time": 2454, "pitch": 79, "duration": 6, "velocity": 79}, {"time": 2454, "pitch": 81, "duration": 1, "velocity": 43}, {"time": 2460, "pitch": 76, "duration": 6, "velocity": 94}, {"time": 2466, "pitch": 74, "duration": 6, "velocity": 83}, {"time": 2472, "pitch": 76, "duration": 6, "velocity": 90}, {"time": 2478, "pitch": 79, "duration": 7, "velocity": 82}, {"time": 2484, "pitch": 76, "duration": 15, "velocity": 83}, {"time": 2502, "pitch": 72, "duration": 8, "velocity": 78}, {"time": 2502, "pitch": 74, "duration": 1, "velocity": 63}, {"time": 2508, "pitch": 76, "duration": 5, "velocity": 86}, {"time": 2514, "pitch": 79, "duration": 6, "velocity": 83}, {"time": 2520, "pitch": 81, "duration": 14, "velocity": 90}, {"time": 2538, "pitch": 79, "duration": 4, "velocity": 83}, {"time": 2544, "pitch": 81, "duration": 4, "velocity": 95}, {"time": 2550, "pitch": 79, "duration": 3, "velocity": 83}, {"time": 2556, "pitch": 76, "duration": 5, "velocity": 98}, {"time": 2562, "pitch": 74, "duration": 3, "velocity": 82}, {"time": 2565, "pitch": 76, "duration": 29, "velocity": 84}, {"time": 2598, "pitch": 72, "duration": 7, "velocity": 98}, {"time": 2604, "pitch": 76, "duration": 5, "velocity": 86}, {"time": 2610, "pitch": 79, "duration": 6, "velocity": 90}, {"time": 2616, "pitch": 81, "duration": 14, "velocity": 90}, {"time": 2628, "pitch": 81, "duration": 2, "velocity": 95}, {"time": 2640, "pitch": 80, "duration": 5, "velocity": 103}, {"time": 2646, "pitch": 76, "duration": 7, "velocity": 90}, {"time": 2652, "pitch": 83, "duration": 5, "velocity": 91}, {"time": 2658, "pitch": 84, "duration": 5, "velocity": 83}, {"time": 2664, "pitch": 81, "duration": 2, "velocity": 84}, {"time": 2666, "pitch": 83, "duration": 4, "velocity": 81}, {"time": 2670, "pitch": 81, "duration": 4, "velocity": 91}, {"time": 2676, "pitch": 76, "duration": 5, "velocity": 98}, {"time": 2682, "pitch": 74, "duration": 3, "velocity": 98}, {"time": 2685, "pitch": 74, "duration": 3, "velocity": 98}, {"time": 2691, "pitch": 72, "duration": 5, "velocity": 100}, {"time": 2754, "pitch": 69, "duration": 3, "velocity": 84}, {"time": 2757, "pitch": 69, "duration": 3, "velocity": 83}, {"time": 2760, "pitch": 76, "duration": 6, "velocity": 86}, {"time": 2766, "pitch": 77, "duration": 6, "velocity": 93}, {"time": 2772, "pitch": 79, "duration": 6, "velocity": 84}, {"time": 2778, "pitch": 72, "duration": 6, "velocity": 83}, {"time": 2784, "pitch": 72, "duration": 18, "velocity": 86}, {"time": 2802, "pitch": 69, "duration": 3, "velocity": 86}, {"time": 2805, "pitch": 69, "duration": 3, "velocity": 80}, {"time": 2808, "pitch": 76, "duration": 6, "velocity": 86}, {"time": 2814, "pitch": 77, "duration": 6, "velocity": 84}, {"time": 2820, "pitch": 79, "duration": 6, "velocity": 79}, {"time": 2826, "pitch": 72, "duration": 9, "velocity": 82}, {"time": 2835, "pitch": 74, "duration": 6, "velocity": 82}, {"time": 2841, "pitch": 72, "duration": 27, "velocity": 86}, {"time": 2880, "pitch": 67, "duration": 15, "velocity": 91}, {"time": 2892, "pitch": 77, "duration": 12, "velocity": 98}, {"time": 2904, "pitch": 77, "duration": 6, "velocity": 95}, {"time": 2910, "pitch": 76, "duration": 6, "velocity": 82}, {"time": 2916, "pitch": 76, "duration": 6, "velocity": 86}, {"time": 2922, "pitch": 74, "duration": 6, "velocity": 84}, {"time": 2928, "pitch": 72, "duration": 6, "velocity": 86}, {"time": 2934, "pitch": 74, "duration": 3, "velocity": 81}, {"time": 2937, "pitch": 76, "duration": 9, "velocity": 86}, {"time": 2946, "pitch": 77, "duration": 6, "velocity": 95}, {"time": 2952, "pitch": 77, "duration": 6, "velocity": 91}, {"time": 2958, "pitch": 76, "duration": 6, "velocity": 86}, {"time": 2964, "pitch": 76, "duration": 6, "velocity": 93}, {"time": 2970, "pitch": 74, "duration": 6, "velocity": 90}, {"time": 2976, "pitch": 72, "duration": 6, "velocity": 90}, {"time": 2982, "pitch": 74, "duration": 3, "velocity": 84}, {"time": 2985, "pitch": 76, "duration": 9, "velocity": 83}, {"time": 2994, "pitch": 79, "duration": 6, "velocity": 86}, {"time": 3000, "pitch": 79, "duration": 6, "velocity": 86}, {"time": 3006, "pitch": 77, "duration": 6, "velocity": 84}, {"time": 3012, "pitch": 76, "duration": 6, "velocity": 84}, {"time": 3018, "pitch": 74, "duration": 6, "velocity": 72}, {"time": 3024, "pitch": 72, "duration": 6, "velocity": 84}, {"time": 3030, "pitch": 74, "duration": 6, "velocity": 78}, {"time": 3036, "pitch": 76, "duration": 6, "velocity": 80}, {"time": 3042, "pitch": 77, "duration": 3, "velocity": 84}, {"time": 3045, "pitch": 77, "duration": 3, "velocity": 84}, {"time": 3048, "pitch": 74, "duration": 24, "velocity": 90}, {"time": 3072, "pitch": 67, "duration": 12, "velocity": 84}, {"time": 3084, "pitch": 77, "duration": 12, "velocity": 90}, {"time": 3096, "pitch": 77, "duration": 6, "velocity": 80}, {"time": 3102, "pitch": 76, "duration": 6, "velocity": 79}, {"time": 3108, "pitch": 76, "duration": 6, "velocity": 82}, {"time": 3114, "pitch": 74, "duration": 6, "velocity": 84}, {"time": 3120, "pitch": 72, "duration": 6, "velocity": 83}, {"time": 3126, "pitch": 74, "duration": 3, "velocity": 80}, {"time": 3129, "pitch": 76, "duration": 9, "velocity": 84}, {"time": 3138, "pitch": 77, "duration": 6, "velocity": 93}, {"time": 3144, "pitch": 77, "duration": 6, "velocity": 86}, {"time": 3150, "pitch": 76, "duration": 6, "velocity": 84}, {"time": 3156, "pitch": 76, "duration": 6, "velocity": 90}, {"time": 3162, "pitch": 74, "duration": 6, "velocity": 84}, {"time": 3168, "pitch": 72, "duration": 3, "velocity": 93}, {"time": 3171, "pitch": 72, "duration": 3, "velocity": 80}, {"time": 3174, "pitch": 74, "duration": 3, "velocity": 79}, {"time": 3177, "pitch": 76, "duration": 9, "velocity": 83}, {"time": 3186, "pitch": 79, "duration": 6, "velocity": 84}, {"time": 3192, "pitch": 79, "duration": 6, "velocity": 84}, {"time": 3198, "pitch": 77, "duration": 6, "velocity": 86}, {"time": 3204, "pitch": 76, "duration": 6, "velocity": 86}, {"time": 3210, "pitch": 74, "duration": 6, "velocity": 84}, {"time": 3216, "pitch": 72, "duration": 12, "velocity": 84}, {"time": 3228, "pitch": 71, "duration": 6, "velocity": 86}, {"time": 3234, "pitch": 74, "duration": 6, "velocity": 86}, {"time": 3240, "pitch": 74, "duration": 6, "velocity": 86}, {"time": 3246, "pitch": 74, "duration": 3, "velocity": 86}, {"time": 3252, "pitch": 72, "duration": 42, "velocity": 90}, {"time": 3264, "pitch": 67, "duration": 15, "velocity": 91}, {"time": 3276, "pitch": 77, "duration": 12, "velocity": 98}, {"time": 3288, "pitch": 77, "duration": 6, "velocity": 95}, {"time": 3294, "pitch": 76, "duration": 6, "velocity": 82}, {"time": 3300, "pitch": 76, "duration": 6, "velocity": 86}, {"time": 3306, "pitch": 74, "duration": 6, "velocity": 84}, {"time": 3312, "pitch": 72, "duration": 6, "velocity": 86}, {"time": 3318, "pitch": 74, "duration": 3, "velocity": 81}, {"time": 3321, "pitch": 76, "duration": 9, "velocity": 86}, {"time": 3330, "pitch": 77, "duration": 6, "velocity": 95}, {"time": 3336, "pitch": 77, "duration": 6, "velocity": 91}, {"time": 3342, "pitch": 76, "duration": 6, "velocity": 86}, {"time": 3348, "pitch": 76, "duration": 6, "velocity": 93}, {"time": 3354, "pitch": 74, "duration": 6, "velocity": 90}, {"time": 3360, "pitch": 72, "duration": 6, "velocity": 90}, {"time": 3366, "pitch": 74, "duration": 3, "velocity": 84}, {"time": 3369, "pitch": 76, "duration": 9, "velocity": 83}, {"time": 3378, "pitch": 79, "duration": 6, "velocity": 86}, {"time": 3384, "pitch": 79, "duration": 6, "velocity": 86}, {"time": 3390, "pitch": 77, "duration": 6, "velocity": 84}, {"time": 3396, "pitch": 76, "duration": 6, "velocity": 84}, {"time": 3402, "pitch": 74, "duration": 6, "velocity": 72}, {"time": 3408, "pitch": 72, "duration": 6, "velocity": 84}, {"time": 3414, "pitch": 74, "duration": 6, "velocity": 78}, {"time": 3420, "pitch": 76, "duration": 6, "velocity": 80}, {"time": 3426, "pitch": 77, "duration": 3, "velocity": 84}, {"time": 3429, "pitch": 77, "duration": 3, "velocity": 84}, {"time": 3432, "pitch": 74, "duration": 24, "velocity": 90}, {"time": 3456, "pitch": 67, "duration": 12, "velocity": 84}, {"time": 3468, "pitch": 77, "duration": 12, "velocity": 90}, {"time": 3480, "pitch": 77, "duration": 6, "velocity": 80}, {"time": 3486, "pitch": 76, "duration": 6, "velocity": 79}, {"time": 3492, "pitch": 76, "duration": 6, "velocity": 82}, {"time": 3498, "pitch": 74, "duration": 6, "velocity": 84}, {"time": 3504, "pitch": 72, "duration": 6, "velocity": 83}, {"time": 3510, "pitch": 74, "duration": 3, "velocity": 80}, {"time": 3513, "pitch": 76, "duration": 9, "velocity": 84}, {"time": 3522, "pitch": 77, "duration": 6, "velocity": 93}, {"time": 3528, "pitch": 77, "duration": 6, "velocity": 86}, {"time": 3534, "pitch": 76, "duration": 6, "velocity": 84}, {"time": 3540, "pitch": 76, "duration": 6, "velocity": 90}, {"time": 3546, "pitch": 74, "duration": 6, "velocity": 84}, {"time": 3552, "pitch": 72, "duration": 3, "velocity": 93}, {"time": 3555, "pitch": 72, "duration": 3, "velocity": 80}, {"time": 3558, "pitch": 74, "duration": 3, "velocity": 79}, {"time": 3561, "pitch": 76, "duration": 9, "velocity": 83}, {"time": 3570, "pitch": 79, "duration": 6, "velocity": 84}, {"time": 3576, "pitch": 79, "duration": 6, "velocity": 84}, {"time": 3582, "pitch": 77, "duration": 6, "velocity": 86}, {"time": 3588, "pitch": 76, "duration": 6, "velocity": 86}, {"time": 3594, "pitch": 74, "duration": 6, "velocity": 84}, {"time": 3600, "pitch": 72, "duration": 12, "velocity": 84}, {"time": 3612, "pitch": 71, "duration": 6, "velocity": 86}, {"time": 3618, "pitch": 74, "duration": 6, "velocity": 86}, {"time": 3624, "pitch": 74, "duration": 6, "velocity": 86}, {"time": 3630, "pitch": 74, "duration": 3, "velocity": 86}, {"time": 3636, "pitch": 72, "duration": 42, "velocity": 90}]}, {"program": 0, "is_drum": false, "name": "PIANO", "notes": [{"time": 36, "pitch": 48, "duration": 40, "velocity": 79}, {"time": 36, "pitch": 64, "duration": 13, "velocity": 81}, {"time": 36, "pitch": 72, "duration": 15, "velocity": 86}, {"time": 42, "pitch": 55, "duration": 31, "velocity": 68}, {"time": 48, "pitch": 60, "duration": 9, "velocity": 72}, {"time": 54, "pitch": 62, "duration": 13, "velocity": 80}, {"time": 54, "pitch": 67, "duration": 12, "velocity": 84}, {"time": 66, "pitch": 60, "duration": 8, "velocity": 48}, {"time": 72, "pitch": 62, "duration": 6, "velocity": 82}, {"time": 72, "pitch": 67, "duration": 5, "velocity": 86}, {"time": 78, "pitch": 55, "duration": 7, "velocity": 69}, {"time": 84, "pitch": 47, "duration": 43, "velocity": 79}, {"time": 84, "pitch": 62, "duration": 12, "velocity": 79}, {"time": 84, "pitch": 67, "duration": 13, "velocity": 82}, {"time": 84, "pitch": 74, "duration": 12, "velocity": 84}, {"time": 90, "pitch": 55, "duration": 31, "velocity": 63}, {"time": 96, "pitch": 59, "duration": 8, "velocity": 71}, {"time": 102, "pitch": 67, "duration": 11, "velocity": 82}, {"time": 102, "pitch": 71, "duration": 6, "velocity": 84}, {"time": 114, "pitch": 59, "duration": 7, "velocity": 57}, {"time": 120, "pitch": 62, "duration": 5, "velocity": 71}, {"time": 120, "pitch": 67, "duration": 6, "velocity": 96}, {"time": 126, "pitch": 55, "duration": 1, "velocity": 75}, {"time": 132, "pitch": 41, "duration": 6, "velocity": 80}, {"time": 132, "pitch": 57, "duration": 8, "velocity": 78}, {"time": 132, "pitch": 60, "duration": 11, "velocity": 80}, {"time": 132, "pitch": 65, "duration": 12, "velocity": 83}, {"time": 138, "pitch": 53, "duration": 7, "velocity": 69}, {"time": 144, "pitch": 55, "duration": 8, "velocity": 63}, {"time": 150, "pitch": 57, "duration": 16, "velocity": 72}, {"time": 150, "pitch": 60, "duration": 7, "velocity": 83}, {"time": 150, "pitch": 65, "duration": 13, "velocity": 90}, {"time": 156, "pitch": 55, "duration": 2, "velocity": 54}, {"time": 162, "pitch": 55, "duration": 10, "velocity": 75}, {"time": 168, "pitch": 60, "duration": 4, "velocity": 84}, {"time": 168, "pitch": 69, "duration": 6, "velocity": 83}, {"time": 174, "pitch": 67, "duration": 4, "velocity": 80}, {"time": 180, "pitch": 43, "duration": 43, "velocity": 82}, {"time": 180, "pitch": 62, "duration": 8, "velocity": 79}, {"time": 180, "pitch": 67, "duration": 10, "velocity": 84}, {"time": 186, "pitch": 50, "duration": 37, "velocity": 78}, {"time": 192, "pitch": 55, "duration": 8, "velocity": 68}, {"time": 198, "pitch": 60, "duration": 7, "velocity": 78}, {"time": 198, "pitch": 67, "duration": 6, "velocity": 81}, {"time": 204, "pitch": 55, "duration": 8, "velocity": 46}, {"time": 210, "pitch": 59, "duration": 5, "velocity": 79}, {"time": 210, "pitch": 62, "duration": 5, "velocity": 83}, {"time": 216, "pitch": 60, "duration": 4, "velocity": 84}, {"time": 216, "pitch": 65, "duration": 5, "velocity": 86}, {"time": 222, "pitch": 55, "duration": 6, "velocity": 57}, {"time": 222, "pitch": 67, "duration": 5, "velocity": 82}, {"time": 228, "pitch": 48, "duration": 42, "velocity": 79}, {"time": 228, "pitch": 64, "duration": 12, "velocity": 82}, {"time": 228, "pitch": 67, "duration": 10, "velocity": 83}, {"time": 228, "pitch": 72, "duration": 11, "velocity": 86}, {"time": 234, "pitch": 55, "duration": 40, "velocity": 72}, {"time": 240, "pitch": 60, "duration": 7, "velocity": 60}, {"time": 246, "pitch": 62, "duration": 7, "velocity": 79}, {"time": 246, "pitch": 67, "duration": 8, "velocity": 84}, {"time": 252, "pitch": 60, "duration": 12, "velocity": 53}, {"time": 258, "pitch": 64, "duration": 5, "velocity": 76}, {"time": 264, "pitch": 64, "duration": 3, "velocity": 80}, {"time": 264, "pitch": 67, "duration": 4, "velocity": 86}, {"time": 264, "pitch": 72, "duration": 4, "velocity": 90}, {"time": 267, "pitch": 60, "duration": 3, "velocity": 68}, {"time": 270, "pitch": 64, "duration": 3, "velocity": 73}, {"time": 273, "pitch": 74, "duration": 12, "velocity": 82}, {"time": 276, "pitch": 47, "duration": 7, "velocity": 80}, {"time": 276, "pitch": 62, "duration": 8, "velocity": 84}, {"time": 276, "pitch": 67, "duration": 10, "velocity": 83}, {"time": 282, "pitch": 55, "duration": 33, "velocity": 60}, {"time": 288, "pitch": 59, "duration": 8, "velocity": 59}, {"time": 294, "pitch": 62, "duration": 7, "velocity": 82}, {"time": 294, "pitch": 67, "duration": 6, "velocity": 70}, {"time": 294, "pitch": 71, "duration": 7, "velocity": 90}, {"time": 300, "pitch": 59, "duration": 6, "velocity": 62}, {"time": 306, "pitch": 62, "duration": 6, "velocity": 79}, {"time": 306, "pitch": 67, "duration": 6, "velocity": 84}, {"time": 312, "pitch": 59, "duration": 3, "velocity": 71}, {"time": 315, "pitch": 62, "duration": 3, "velocity": 80}, {"time": 318, "pitch": 67, "duration": 4, "velocity": 82}, {"time": 321, "pitch": 69, "duration": 8, "velocity": 77}, {"time": 324, "pitch": 41, "duration": 18, "velocity": 82}, {"time": 324, "pitch": 60, "duration": 6, "velocity": 84}, {"time": 324, "pitch": 65, "duration": 5, "velocity": 84}, {"time": 330, "pitch": 53, "duration": 18, "velocity": 71}, {"time": 336, "pitch": 57, "duration": 8, "velocity": 56}, {"time": 342, "pitch": 60, "duration": 4, "velocity": 83}, {"time": 342, "pitch": 65, "duration": 2, "velocity": 80}, {"time": 348, "pitch": 43, "duration": 13, "velocity": 79}, {"time": 348, "pitch": 59, "duration": 8, "velocity": 78}, {"time": 348, "pitch": 62, "duration": 9, "velocity": 83}, {"time": 348, "pitch": 67, "duration": 9, "velocity": 80}, {"time": 354, "pitch": 50, "duration": 8, "velocity": 75}, {"time": 360, "pitch": 55, "duration": 5, "velocity": 76}, {"time": 366, "pitch": 60, "duration": 4, "velocity": 38}, {"time": 372, "pitch": 48, "duration": 41, "velocity": 79}, {"time": 372, "pitch": 60, "duration": 8, "velocity": 74}, {"time": 372, "pitch": 65, "duration": 8, "velocity": 79}, {"time": 372, "pitch": 69, "duration": 6, "velocity": 73}, {"time": 378, "pitch": 57, "duration": 16, "velocity": 61}, {"time": 384, "pitch": 60, "duration": 4, "velocity": 71}, {"time": 390, "pitch": 60, "duration": 9, "velocity": 78}, {"time": 390, "pitch": 65, "duration": 15, "velocity": 83}, {"time": 408, "pitch": 62, "duration": 7, "velocity": 82}, {"time": 408, "pitch": 67, "duration": 6, "velocity": 84}, {"time": 420, "pitch": 48, "duration": 18, "velocity": 76}, {"time": 420, "pitch": 64, "duration": 13, "velocity": 74}, {"time": 420, "pitch": 67, "duration": 11, "velocity": 77}, {"time": 420, "pitch": 72, "duration": 13, "velocity": 83}, {"time": 426, "pitch": 55, "duration": 18, "velocity": 68}, {"time": 432, "pitch": 60, "duration": 5, "velocity": 70}, {"time": 438, "pitch": 72, "duration": 16, "velocity": 80}, {"time": 444, "pitch": 47, "duration": 23, "velocity": 82}, {"time": 444, "pitch": 62, "duration": 13, "velocity": 72}, {"time": 444, "pitch": 67, "duration": 13, "velocity": 79}, {"time": 450, "pitch": 55, "duration": 10, "velocity": 57}, {"time": 456, "pitch": 59, "duration": 7, "velocity": 69}, {"time": 462, "pitch": 71, "duration": 7, "velocity": 79}, {"time": 468, "pitch": 45, "duration": 19, "velocity": 73}, {"time": 468, "pitch": 64, "duration": 12, "velocity": 73}, {"time": 468, "pitch": 72, "duration": 10, "velocity": 78}, {"time": 474, "pitch": 52, "duration": 18, "velocity": 55}, {"time": 480, "pitch": 57, "duration": 7, "velocity": 54}, {"time": 486, "pitch": 60, "duration": 16, "velocity": 75}, {"time": 492, "pitch": 43, "duration": 17, "velocity": 71}, {"time": 492, "pitch": 64, "duration": 13, "velocity": 83}, {"time": 492, "pitch": 67, "duration": 13, "velocity": 79}, {"time": 498, "pitch": 52, "duration": 12, "velocity": 58}, {"time": 504, "pitch": 55, "duration": 6, "velocity": 62}, {"time": 510, "pitch": 60, "duration": 5, "velocity": 69}, {"time": 516, "pitch": 41, "duration": 5, "velocity": 78}, {"time": 516, "pitch": 60, "duration": 13, "velocity": 67}, {"time": 516, "pitch": 65, "duration": 13, "velocity": 79}, {"time": 516, "pitch": 69, "duration": 13, "velocity": 76}, {"time": 522, "pitch": 53, "duration": 9, "velocity": 69}, {"time": 528, "pitch": 55, "duration": 13, "velocity": 73}, {"time": 534, "pitch": 69, "duration": 7, "velocity": 69}, {"time": 540, "pitch": 52, "duration": 18, "velocity": 79}, {"time": 540, "pitch": 64, "duration": 8, "velocity": 75}, {"time": 540, "pitch": 67, "duration": 8, "velocity": 82}, {"time": 546, "pitch": 60, "duration": 12, "velocity": 56}, {"time": 552, "pitch": 64, "duration": 6, "velocity": 75}, {"time": 558, "pitch": 67, "duration": 6, "velocity": 74}, {"time": 564, "pitch": 50, "duration": 15, "velocity": 75}, {"time": 564, "pitch": 60, "duration": 8, "velocity": 75}, {"time": 564, "pitch": 65, "duration": 8, "velocity": 75}, {"time": 564, "pitch": 69, "duration": 7, "velocity": 77}, {"time": 570, "pitch": 57, "duration": 12, "velocity": 72}, {"time": 576, "pitch": 60, "duration": 6, "velocity": 75}, {"time": 582, "pitch": 65, "duration": 5, "velocity": 75}, {"time": 588, "pitch": 55, "duration": 17, "velocity": 61}, {"time": 588, "pitch": 62, "duration": 9, "velocity": 70}, {"time": 588, "pitch": 67, "duration": 11, "velocity": 79}, {"time": 594, "pitch": 59, "duration": 11, "velocity": 73}, {"time": 600, "pitch": 65, "duration": 7, "velocity": 77}, {"time": 600, "pitch": 69, "duration": 5, "velocity": 69}, {"time": 606, "pitch": 71, "duration": 2, "velocity": 79}, {"time": 612, "pitch": 48, "duration": 18, "velocity": 69}, {"time": 612, "pitch": 64, "duration": 9, "velocity": 68}, {"time": 612, "pitch": 67, "duration": 9, "velocity": 73}, {"time": 612, "pitch": 72, "duration": 9, "velocity": 76}, {"time": 618, "pitch": 55, "duration": 11, "velocity": 50}, {"time": 624, "pitch": 60, "duration": 7, "velocity": 60}, {"time": 630, "pitch": 55, "duration": 6, "velocity": 57}, {"time": 630, "pitch": 74, "duration": 3, "velocity": 78}, {"time": 633, "pitch": 76, "duration": 3, "velocity": 73}, {"time": 636, "pitch": 47, "duration": 8, "velocity": 76}, {"time": 636, "pitch": 67, "duration": 7, "velocity": 72}, {"time": 636, "pitch": 74, "duration": 6, "velocity": 82}, {"time": 642, "pitch": 55, "duration": 12, "velocity": 58}, {"time": 648, "pitch": 59, "duration": 4, "velocity": 68}, {"time": 651, "pitch": 64, "duration": 3, "velocity": 68}, {"time": 654, "pitch": 67, "duration": 4, "velocity": 68}, {"time": 657, "pitch": 71, "duration": 3, "velocity": 83}, {"time": 660, "pitch": 45, "duration": 18, "velocity": 74}, {"time": 660, "pitch": 64, "duration": 13, "velocity": 62}, {"time": 660, "pitch": 67, "duration": 9, "velocity": 57}, {"time": 660, "pitch": 72, "duration": 9, "velocity": 76}, {"time": 666, "pitch": 52, "duration": 8, "velocity": 72}, {"time": 672, "pitch": 57, "duration": 5, "velocity": 53}, {"time": 678, "pitch": 52, "duration": 7, "velocity": 72}, {"time": 678, "pitch": 64, "duration": 2, "velocity": 59}, {"time": 678, "pitch": 72, "duration": 5, "velocity": 82}, {"time": 684, "pitch": 43, "duration": 7, "velocity": 78}, {"time": 684, "pitch": 62, "duration": 7, "velocity": 75}, {"time": 684, "pitch": 71, "duration": 10, "velocity": 86}, {"time": 690, "pitch": 52, "duration": 6, "velocity": 63}, {"time": 696, "pitch": 55, "duration": 6, "velocity": 63}, {"time": 696, "pitch": 64, "duration": 5, "velocity": 73}, {"time": 696, "pitch": 72, "duration": 5, "velocity": 83}, {"time": 702, "pitch": 59, "duration": 6, "velocity": 67}, {"time": 702, "pitch": 67, "duration": 5, "velocity": 76}, {"time": 708, "pitch": 53, "duration": 17, "velocity": 68}, {"time": 708, "pitch": 60, "duration": 8, "velocity": 70}, {"time": 708, "pitch": 65, "duration": 8, "velocity": 82}, {"time": 708, "pitch": 69, "duration": 9, "velocity": 78}, {"time": 714, "pitch": 57, "duration": 18, "velocity": 56}, {"time": 720, "pitch": 60, "duration": 5, "velocity": 71}, {"time": 726, "pitch": 65, "duration": 5, "velocity": 78}, {"time": 732, "pitch": 55, "duration": 17, "velocity": 74}, {"time": 732, "pitch": 60, "duration": 8, "velocity": 78}, {"time": 732, "pitch": 67, "duration": 8, "velocity": 81}, {"time": 738, "pitch": 59, "duration": 10, "velocity": 71}, {"time": 744, "pitch": 65, "duration": 5, "velocity": 82}, {"time": 750, "pitch": 67, "duration": 5, "velocity": 71}, {"time": 756, "pitch": 48, "duration": 20, "velocity": 74}, {"time": 756, "pitch": 62, "duration": 9, "velocity": 62}, {"time": 756, "pitch": 64, "duration": 11, "velocity": 76}, {"time": 756, "pitch": 67, "duration": 2, "velocity": 73}, {"time": 756, "pitch": 69, "duration": 11, "velocity": 55}, {"time": 762, "pitch": 55, "duration": 11, "velocity": 71}, {"time": 768, "pitch": 60, "duration": 8, "velocity": 63}, {"time": 774, "pitch": 55, "duration": 5, "velocity": 61}, {"time": 774, "pitch": 65, "duration": 6, "velocity": 75}, {"time": 780, "pitch": 48, "duration": 18, "velocity": 80}, {"time": 780, "pitch": 64, "duration": 7, "velocity": 78}, {"time": 780, "pitch": 67, "duration": 6, "velocity": 77}, {"time": 786, "pitch": 55, "duration": 12, "velocity": 72}, {"time": 792, "pitch": 60, "duration": 3, "velocity": 73}, {"time": 792, "pitch": 62, "duration": 4, "velocity": 80}, {"time": 792, "pitch": 67, "duration": 4, "velocity": 84}, {"time": 798, "pitch": 67, "duration": 4, "velocity": 74}, {"time": 803, "pitch": 69, "duration": 12, "velocity": 78}, {"time": 803, "pitch": 77, "duration": 14, "velocity": 93}, {"time": 804, "pitch": 53, "duration": 16, "velocity": 75}, {"time": 810, "pitch": 60, "duration": 17, "velocity": 71}, {"time": 816, "pitch": 65, "duration": 6, "velocity": 61}, {"time": 821, "pitch": 76, "duration": 6, "velocity": 81}, {"time": 821, "pitch": 69, "duration": 3, "velocity": 76}, {"time": 827, "pitch": 71, "duration": 14, "velocity": 82}, {"time": 827, "pitch": 79, "duration": 14, "velocity": 81}, {"time": 827, "pitch": 55, "duration": 15, "velocity": 79}, {"time": 833, "pitch": 62, "duration": 13, "velocity": 73}, {"time": 839, "pitch": 67, "duration": 6, "velocity": 72}, {"time": 845, "pitch": 74, "duration": 6, "velocity": 84}, {"time": 851, "pitch": 76, "duration": 10, "velocity": 83}, {"time": 851, "pitch": 72, "duration": 10, "velocity": 84}, {"time": 851, "pitch": 57, "duration": 31, "velocity": 74}, {"time": 857, "pitch": 64, "duration": 21, "velocity": 72}, {"time": 863, "pitch": 69, "duration": 16, "velocity": 69}, {"time": 869, "pitch": 72, "duration": 8, "velocity": 84}, {"time": 876, "pitch": 74, "duration": 5, "velocity": 80}, {"time": 881, "pitch": 76, "duration": 6, "velocity": 75}, {"time": 882, "pitch": 64, "duration": 7, "velocity": 72}, {"time": 888, "pitch": 55, "duration": 9, "velocity": 73}, {"time": 888, "pitch": 72, "duration": 6, "velocity": 86}, {"time": 894, "pitch": 71, "duration": 4, "velocity": 83}, {"time": 894, "pitch": 64, "duration": 2, "velocity": 54}, {"time": 897, "pitch": 72, "duration": 3, "velocity": 72}, {"time": 899, "pitch": 71, "duration": 2, "velocity": 73}, {"time": 900, "pitch": 53, "duration": 16, "velocity": 79}, {"time": 900, "pitch": 69, "duration": 7, "velocity": 75}, {"time": 905, "pitch": 60, "duration": 9, "velocity": 79}, {"time": 911, "pitch": 65, "duration": 6, "velocity": 79}, {"time": 917, "pitch": 72, "duration": 5, "velocity": 84}, {"time": 923, "pitch": 62, "duration": 6, "velocity": 80}, {"time": 923, "pitch": 71, "duration": 7, "velocity": 86}, {"time": 923, "pitch": 43, "duration": 6, "velocity": 76}, {"time": 929, "pitch": 55, "duration": 8, "velocity": 59}, {"time": 929, "pitch": 62, "duration": 3, "velocity": 24}, {"time": 929, "pitch": 72, "duration": 4, "velocity": 81}, {"time": 936, "pitch": 57, "duration": 7, "velocity": 63}, {"time": 936, "pitch": 64, "duration": 1, "velocity": 77}, {"time": 936, "pitch": 74, "duration": 2, "velocity": 86}, {"time": 942, "pitch": 59, "duration": 1, "velocity": 78}, {"time": 948, "pitch": 76, "duration": 6, "velocity": 82}, {"time": 948, "pitch": 67, "duration": 7, "velocity": 77}, {"time": 948, "pitch": 48, "duration": 42, "velocity": 82}, {"time": 954, "pitch": 55, "duration": 35, "velocity": 68}, {"time": 960, "pitch": 60, "duration": 9, "velocity": 68}, {"time": 965, "pitch": 67, "duration": 6, "velocity": 76}, {"time": 966, "pitch": 62, "duration": 3, "velocity": 70}, {"time": 972, "pitch": 64, "duration": 7, "velocity": 79}, {"time": 978, "pitch": 67, "duration": 4, "velocity": 79}, {"time": 983, "pitch": 64, "duration": 6, "velocity": 73}, {"time": 984, "pitch": 71, "duration": 5, "velocity": 83}, {"time": 984, "pitch": 60, "duration": 3, "velocity": 61}, {"time": 990, "pitch": 72, "duration": 7, "velocity": 82}, {"time": 996, "pitch": 53, "duration": 17, "velocity": 76}, {"time": 996, "pitch": 69, "duration": 15, "velocity": 86}, {"time": 996, "pitch": 77, "duration": 11, "velocity": 94}, {"time": 1002, "pitch": 60, "duration": 13, "velocity": 78}, {"time": 1008, "pitch": 64, "duration": 5, "velocity": 78}, {"time": 1014, "pitch": 77, "duration": 4, "velocity": 83}, {"time": 1020, "pitch": 52, "duration": 16, "velocity": 81}, {"time": 1020, "pitch": 68, "duration": 6, "velocity": 83}, {"time": 1020, "pitch": 74, "duration": 5, "velocity": 90}, {"time": 1026, "pitch": 59, "duration": 11, "velocity": 71}, {"time": 1032, "pitch": 64, "duration": 4, "velocity": 72}, {"time": 1032, "pitch": 68, "duration": 5, "velocity": 78}, {"time": 1038, "pitch": 71, "duration": 5, "velocity": 80}, {"time": 1044, "pitch": 57, "duration": 14, "velocity": 71}, {"time": 1044, "pitch": 64, "duration": 7, "velocity": 83}, {"time": 1044, "pitch": 72, "duration": 10, "velocity": 91}, {"time": 1056, "pitch": 55, "duration": 5, "velocity": 71}, {"time": 1056, "pitch": 62, "duration": 5, "velocity": 75}, {"time": 1056, "pitch": 71, "duration": 5, "velocity": 84}, {"time": 1065, "pitch": 60, "duration": 43, "velocity": 57}, {"time": 1068, "pitch": 53, "duration": 45, "velocity": 62}, {"time": 1068, "pitch": 65, "duration": 46, "velocity": 71}, {"time": 1068, "pitch": 69, "duration": 45, "velocity": 55}, {"time": 1068, "pitch": 72, "duration": 44, "velocity": 63}, {"time": 1128, "pitch": 50, "duration": 41, "velocity": 73}, {"time": 1128, "pitch": 60, "duration": 8, "velocity": 72}, {"time": 1128, "pitch": 65, "duration": 8, "velocity": 82}, {"time": 1128, "pitch": 69, "duration": 9, "velocity": 60}, {"time": 1128, "pitch": 72, "duration": 23, "velocity": 58}, {"time": 1134, "pitch": 57, "duration": 37, "velocity": 57}, {"time": 1140, "pitch": 60, "duration": 14, "velocity": 55}, {"time": 1146, "pitch": 65, "duration": 9, "velocity": 61}, {"time": 1152, "pitch": 69, "duration": 6, "velocity": 69}, {"time": 1164, "pitch": 62, "duration": 6, "velocity": 48}, {"time": 1164, "pitch": 77, "duration": 5, "velocity": 75}, {"time": 1170, "pitch": 76, "duration": 4, "velocity": 72}, {"time": 1176, "pitch": 55, "duration": 64, "velocity": 69}, {"time": 1176, "pitch": 67, "duration": 12, "velocity": 60}, {"time": 1176, "pitch": 74, "duration": 1, "velocity": 50}, {"time": 1182, "pitch": 60, "duration": 12, "velocity": 63}, {"time": 1188, "pitch": 62, "duration": 53, "velocity": 62}, {"time": 1194, "pitch": 72, "duration": 6, "velocity": 71}, {"time": 1200, "pitch": 71, "duration": 41, "velocity": 59}, {"time": 1272, "pitch": 48, "duration": 11, "velocity": 75}, {"time": 1272, "pitch": 64, "duration": 12, "velocity": 68}, {"time": 1272, "pitch": 72, "duration": 20, "velocity": 79}, {"time": 1278, "pitch": 55, "duration": 6, "velocity": 52}, {"time": 1284, "pitch": 60, "duration": 7, "velocity": 77}, {"time": 1290, "pitch": 62, "duration": 23, "velocity": 78}, {"time": 1296, "pitch": 64, "duration": 7, "velocity": 75}, {"time": 1302, "pitch": 67, "duration": 7, "velocity": 80}, {"time": 1302, "pitch": 72, "duration": 7, "velocity": 80}, {"time": 1308, "pitch": 64, "duration": 4, "velocity": 77}, {"time": 1314, "pitch": 67, "duration": 1, "velocity": 75}, {"time": 1314, "pitch": 74, "duration": 1, "velocity": 80}, {"time": 1320, "pitch": 47, "duration": 11, "velocity": 84}, {"time": 1320, "pitch": 62, "duration": 11, "velocity": 74}, {"time": 1320, "pitch": 67, "duration": 13, "velocity": 70}, {"time": 1320, "pitch": 74, "duration": 18, "velocity": 61}, {"time": 1326, "pitch": 55, "duration": 6, "velocity": 59}, {"time": 1332, "pitch": 59, "duration": 7, "velocity": 78}, {"time": 1338, "pitch": 62, "duration": 20, "velocity": 83}, {"time": 1344, "pitch": 67, "duration": 5, "velocity": 80}, {"time": 1344, "pitch": 71, "duration": 6, "velocity": 58}, {"time": 1350, "pitch": 64, "duration": 6, "velocity": 79}, {"time": 1356, "pitch": 67, "duration": 3, "velocity": 83}, {"time": 1356, "pitch": 74, "duration": 3, "velocity": 86}, {"time": 1362, "pitch": 60, "duration": 1, "velocity": 71}, {"time": 1362, "pitch": 62, "duration": 1, "velocity": 72}, {"time": 1368, "pitch": 41, "duration": 41, "velocity": 78}, {"time": 1368, "pitch": 60, "duration": 9, "velocity": 75}, {"time": 1368, "pitch": 65, "duration": 8, "velocity": 79}, {"time": 1368, "pitch": 69, "duration": 10, "velocity": 78}, {"time": 1374, "pitch": 48, "duration": 42, "velocity": 71}, {"time": 1380, "pitch": 53, "duration": 8, "velocity": 72}, {"time": 1386, "pitch": 60, "duration": 6, "velocity": 76}, {"time": 1392, "pitch": 53, "duration": 5, "velocity": 46}, {"time": 1392, "pitch": 60, "duration": 13, "velocity": 51}, {"time": 1392, "pitch": 65, "duration": 13, "velocity": 83}, {"time": 1392, "pitch": 72, "duration": 15, "velocity": 82}, {"time": 1404, "pitch": 53, "duration": 12, "velocity": 58}, {"time": 1410, "pitch": 60, "duration": 8, "velocity": 76}, {"time": 1416, "pitch": 43, "duration": 35, "velocity": 76}, {"time": 1416, "pitch": 67, "duration": 7, "velocity": 74}, {"time": 1416, "pitch": 71, "duration": 8, "velocity": 82}, {"time": 1422, "pitch": 50, "duration": 21, "velocity": 79}, {"time": 1428, "pitch": 55, "duration": 9, "velocity": 59}, {"time": 1434, "pitch": 60, "duration": 6, "velocity": 84}, {"time": 1440, "pitch": 55, "duration": 7, "velocity": 56}, {"time": 1440, "pitch": 59, "duration": 7, "velocity": 78}, {"time": 1440, "pitch": 62, "duration": 7, "velocity": 82}, {"time": 1446, "pitch": 50, "duration": 6, "velocity": 76}, {"time": 1452, "pitch": 60, "duration": 4, "velocity": 84}, {"time": 1452, "pitch": 67, "duration": 5, "velocity": 81}, {"time": 1464, "pitch": 48, "duration": 33, "velocity": 76}, {"time": 1464, "pitch": 64, "duration": 6, "velocity": 63}, {"time": 1464, "pitch": 72, "duration": 7, "velocity": 62}, {"time": 1470, "pitch": 55, "duration": 7, "velocity": 59}, {"time": 1476, "pitch": 60, "duration": 7, "velocity": 53}, {"time": 1476, "pitch": 62, "duration": 5, "velocity": 75}, {"time": 1476, "pitch": 67, "duration": 5, "velocity": 75}, {"time": 1476, "pitch": 72, "duration": 6, "velocity": 62}, {"time": 1482, "pitch": 55, "duration": 14, "velocity": 48}, {"time": 1485, "pitch": 64, "duration": 7, "velocity": 80}, {"time": 1485, "pitch": 67, "duration": 7, "velocity": 81}, {"time": 1485, "pitch": 72, "duration": 7, "velocity": 80}, {"time": 1491, "pitch": 60, "duration": 5, "velocity": 72}, {"time": 1494, "pitch": 64, "duration": 3, "velocity": 75}, {"time": 1497, "pitch": 55, "duration": 3, "velocity": 38}, {"time": 1497, "pitch": 65, "duration": 4, "velocity": 76}, {"time": 1500, "pitch": 48, "duration": 5, "velocity": 83}, {"time": 1500, "pitch": 64, "duration": 4, "velocity": 78}, {"time": 1500, "pitch": 67, "duration": 4, "velocity": 79}, {"time": 1503, "pitch": 55, "duration": 3, "velocity": 76}, {"time": 1506, "pitch": 69, "duration": 4, "velocity": 75}, {"time": 1509, "pitch": 72, "duration": 4, "velocity": 78}, {"time": 1512, "pitch": 47, "duration": 16, "velocity": 82}, {"time": 1512, "pitch": 62, "duration": 6, "velocity": 78}, {"time": 1512, "pitch": 67, "duration": 5, "velocity": 81}, {"time": 1518, "pitch": 55, "duration": 8, "velocity": 58}, {"time": 1524, "pitch": 59, "duration": 6, "velocity": 53}, {"time": 1524, "pitch": 62, "duration": 18, "velocity": 79}, {"time": 1524, "pitch": 67, "duration": 18, "velocity": 81}, {"time": 1530, "pitch": 55, "duration": 6, "velocity": 62}, {"time": 1536, "pitch": 47, "duration": 10, "velocity": 80}, {"time": 1539, "pitch": 55, "duration": 12, "velocity": 72}, {"time": 1542, "pitch": 59, "duration": 3, "velocity": 79}, {"time": 1545, "pitch": 67, "duration": 3, "velocity": 79}, {"time": 1548, "pitch": 69, "duration": 4, "velocity": 76}, {"time": 1551, "pitch": 71, "duration": 3, "velocity": 80}, {"time": 1554, "pitch": 72, "duration": 4, "velocity": 86}, {"time": 1557, "pitch": 67, "duration": 1, "velocity": 62}, {"time": 1560, "pitch": 41, "duration": 5, "velocity": 79}, {"time": 1560, "pitch": 60, "duration": 7, "velocity": 69}, {"time": 1560, "pitch": 67, "duration": 4, "velocity": 79}, {"time": 1563, "pitch": 65, "duration": 4, "velocity": 5}, {"time": 1563, "pitch": 69, "duration": 4, "velocity": 60}, {"time": 1566, "pitch": 53, "duration": 7, "velocity": 61}, {"time": 1572, "pitch": 57, "duration": 2, "velocity": 60}, {"time": 1572, "pitch": 60, "duration": 3, "velocity": 80}, {"time": 1572, "pitch": 65, "duration": 5, "velocity": 83}, {"time": 1572, "pitch": 69, "duration": 5, "velocity": 82}, {"time": 1578, "pitch": 60, "duration": 3, "velocity": 73}, {"time": 1584, "pitch": 43, "duration": 11, "velocity": 79}, {"time": 1584, "pitch": 60, "duration": 4, "velocity": 81}, {"time": 1584, "pitch": 65, "duration": 5, "velocity": 83}, {"time": 1584, "pitch": 69, "duration": 5, "velocity": 78}, {"time": 1590, "pitch": 50, "duration": 7, "velocity": 67}, {"time": 1596, "pitch": 55, "duration": 4, "velocity": 57}, {"time": 1596, "pitch": 62, "duration": 4, "velocity": 78}, {"time": 1596, "pitch": 67, "duration": 4, "velocity": 76}, {"time": 1596, "pitch": 71, "duration": 3, "velocity": 86}, {"time": 1608, "pitch": 48, "duration": 19, "velocity": 78}, {"time": 1608, "pitch": 65, "duration": 9, "velocity": 83}, {"time": 1608, "pitch": 72, "duration": 15, "velocity": 84}, {"time": 1614, "pitch": 55, "duration": 19, "velocity": 62}, {"time": 1620, "pitch": 60, "duration": 8, "velocity": 73}, {"time": 1626, "pitch": 65, "duration": 6, "velocity": 76}, {"time": 1626, "pitch": 69, "duration": 6, "velocity": 77}, {"time": 1632, "pitch": 48, "duration": 16, "velocity": 72}, {"time": 1632, "pitch": 64, "duration": 5, "velocity": 75}, {"time": 1632, "pitch": 67, "duration": 6, "velocity": 76}, {"time": 1638, "pitch": 55, "duration": 10, "velocity": 55}, {"time": 1644, "pitch": 60, "duration": 4, "velocity": 69}, {"time": 1644, "pitch": 65, "duration": 4, "velocity": 82}, {"time": 1650, "pitch": 67, "duration": 3, "velocity": 69}, {"time": 1656, "pitch": 60, "duration": 23, "velocity": 62}, {"time": 1656, "pitch": 72, "duration": 7, "velocity": 72}, {"time": 1656, "pitch": 76, "duration": 6, "velocity": 75}, {"time": 1662, "pitch": 67, "duration": 7, "velocity": 54}, {"time": 1668, "pitch": 72, "duration": 6, "velocity": 75}, {"time": 1668, "pitch": 76, "duration": 10, "velocity": 77}, {"time": 1674, "pitch": 67, "duration": 7, "velocity": 59}, {"time": 1680, "pitch": 59, "duration": 24, "velocity": 69}, {"time": 1680, "pitch": 71, "duration": 7, "velocity": 77}, {"time": 1680, "pitch": 74, "duration": 8, "velocity": 80}, {"time": 1686, "pitch": 67, "duration": 7, "velocity": 53}, {"time": 1692, "pitch": 71, "duration": 4, "velocity": 76}, {"time": 1692, "pitch": 74, "duration": 7, "velocity": 79}, {"time": 1698, "pitch": 67, "duration": 7, "velocity": 58}, {"time": 1704, "pitch": 57, "duration": 26, "velocity": 61}, {"time": 1704, "pitch": 72, "duration": 7, "velocity": 69}, {"time": 1704, "pitch": 76, "duration": 7, "velocity": 71}, {"time": 1710, "pitch": 67, "duration": 8, "velocity": 51}, {"time": 1716, "pitch": 72, "duration": 7, "velocity": 77}, {"time": 1716, "pitch": 76, "duration": 6, "velocity": 73}, {"time": 1722, "pitch": 67, "duration": 8, "velocity": 56}, {"time": 1728, "pitch": 55, "duration": 12, "velocity": 54}, {"time": 1728, "pitch": 72, "duration": 6, "velocity": 76}, {"time": 1728, "pitch": 76, "duration": 6, "velocity": 75}, {"time": 1734, "pitch": 67, "duration": 7, "velocity": 49}, {"time": 1740, "pitch": 72, "duration": 4, "velocity": 82}, {"time": 1740, "pitch": 76, "duration": 4, "velocity": 79}, {"time": 1743, "pitch": 55, "duration": 8, "velocity": 60}, {"time": 1746, "pitch": 67, "duration": 4, "velocity": 59}, {"time": 1749, "pitch": 72, "duration": 1, "velocity": 61}, {"time": 1749, "pitch": 76, "duration": 3, "velocity": 68}, {"time": 1752, "pitch": 53, "duration": 19, "velocity": 75}, {"time": 1752, "pitch": 69, "duration": 6, "velocity": 76}, {"time": 1752, "pitch": 72, "duration": 6, "velocity": 81}, {"time": 1752, "pitch": 77, "duration": 6, "velocity": 83}, {"time": 1758, "pitch": 60, "duration": 8, "velocity": 42}, {"time": 1764, "pitch": 69, "duration": 7, "velocity": 70}, {"time": 1764, "pitch": 72, "duration": 6, "velocity": 79}, {"time": 1764, "pitch": 77, "duration": 8, "velocity": 83}, {"time": 1770, "pitch": 60, "duration": 4, "velocity": 62}, {"time": 1776, "pitch": 52, "duration": 18, "velocity": 71}, {"time": 1776, "pitch": 67, "duration": 7, "velocity": 74}, {"time": 1776, "pitch": 72, "duration": 7, "velocity": 84}, {"time": 1782, "pitch": 60, "duration": 7, "velocity": 39}, {"time": 1788, "pitch": 67, "duration": 5, "velocity": 70}, {"time": 1788, "pitch": 72, "duration": 4, "velocity": 82}, {"time": 1794, "pitch": 60, "duration": 1, "velocity": 71}, {"time": 1800, "pitch": 50, "duration": 15, "velocity": 69}, {"time": 1800, "pitch": 65, "duration": 7, "velocity": 73}, {"time": 1800, "pitch": 69, "duration": 7, "velocity": 70}, {"time": 1800, "pitch": 72, "duration": 7, "velocity": 43}, {"time": 1806, "pitch": 57, "duration": 9, "velocity": 59}, {"time": 1812, "pitch": 65, "duration": 6, "velocity": 84}, {"time": 1812, "pitch": 69, "duration": 5, "velocity": 73}, {"time": 1812, "pitch": 72, "duration": 3, "velocity": 78}, {"time": 1818, "pitch": 60, "duration": 3, "velocity": 75}, {"time": 1824, "pitch": 43, "duration": 6, "velocity": 67}, {"time": 1824, "pitch": 55, "duration": 4, "velocity": 59}, {"time": 1824, "pitch": 62, "duration": 6, "velocity": 78}, {"time": 1824, "pitch": 67, "duration": 6, "velocity": 83}, {"time": 1824, "pitch": 71, "duration": 6, "velocity": 84}, {"time": 1830, "pitch": 55, "duration": 2, "velocity": 71}, {"time": 1836, "pitch": 52, "duration": 6, "velocity": 82}, {"time": 1836, "pitch": 62, "duration": 6, "velocity": 80}, {"time": 1836, "pitch": 68, "duration": 5, "velocity": 75}, {"time": 1836, "pitch": 71, "duration": 5, "velocity": 91}, {"time": 1842, "pitch": 69, "duration": 4, "velocity": 80}, {"time": 1848, "pitch": 45, "duration": 15, "velocity": 78}, {"time": 1848, "pitch": 57, "duration": 15, "velocity": 73}, {"time": 1848, "pitch": 64, "duration": 8, "velocity": 83}, {"time": 1848, "pitch": 69, "duration": 8, "velocity": 83}, {"time": 1848, "pitch": 72, "duration": 8, "velocity": 84}, {"time": 1860, "pitch": 64, "duration": 7, "velocity": 81}, {"time": 1860, "pitch": 69, "duration": 7, "velocity": 80}, {"time": 1860, "pitch": 72, "duration": 7, "velocity": 86}, {"time": 1866, "pitch": 45, "duration": 2, "velocity": 83}, {"time": 1872, "pitch": 40, "duration": 19, "velocity": 76}, {"time": 1872, "pitch": 52, "duration": 14, "velocity": 72}, {"time": 1872, "pitch": 64, "duration": 10, "velocity": 79}, {"time": 1872, "pitch": 68, "duration": 9, "velocity": 79}, {"time": 1872, "pitch": 71, "duration": 9, "velocity": 86}, {"time": 1884, "pitch": 64, "duration": 7, "velocity": 83}, {"time": 1884, "pitch": 68, "duration": 7, "velocity": 82}, {"time": 1884, "pitch": 71, "duration": 7, "velocity": 93}, {"time": 1890, "pitch": 52, "duration": 2, "velocity": 73}, {"time": 1896, "pitch": 45, "duration": 7, "velocity": 50}, {"time": 1896, "pitch": 64, "duration": 6, "velocity": 83}, {"time": 1896, "pitch": 69, "duration": 7, "velocity": 83}, {"time": 1896, "pitch": 72, "duration": 9, "velocity": 84}, {"time": 1908, "pitch": 43, "duration": 6, "velocity": 82}, {"time": 1908, "pitch": 55, "duration": 6, "velocity": 68}, {"time": 1908, "pitch": 62, "duration": 6, "velocity": 78}, {"time": 1908, "pitch": 67, "duration": 5, "velocity": 84}, {"time": 1908, "pitch": 71, "duration": 5, "velocity": 90}, {"time": 1920, "pitch": 42, "duration": 16, "velocity": 84}, {"time": 1920, "pitch": 54, "duration": 16, "velocity": 54}, {"time": 1920, "pitch": 60, "duration": 6, "velocity": 79}, {"time": 1920, "pitch": 66, "duration": 6, "velocity": 81}, {"time": 1920, "pitch": 69, "duration": 8, "velocity": 76}, {"time": 1920, "pitch": 72, "duration": 8, "velocity": 62}, {"time": 1932, "pitch": 67, "duration": 7, "velocity": 82}, {"time": 1938, "pitch": 72, "duration": 3, "velocity": 72}, {"time": 1944, "pitch": 50, "duration": 44, "velocity": 81}, {"time": 1944, "pitch": 60, "duration": 7, "velocity": 80}, {"time": 1944, "pitch": 65, "duration": 6, "velocity": 81}, {"time": 1944, "pitch": 69, "duration": 7, "velocity": 80}, {"time": 1944, "pitch": 72, "duration": 7, "velocity": 59}, {"time": 1950, "pitch": 57, "duration": 8, "velocity": 58}, {"time": 1956, "pitch": 60, "duration": 7, "velocity": 69}, {"time": 1956, "pitch": 65, "duration": 6, "velocity": 81}, {"time": 1956, "pitch": 69, "duration": 7, "velocity": 73}, {"time": 1962, "pitch": 57, "duration": 8, "velocity": 47}, {"time": 1968, "pitch": 60, "duration": 7, "velocity": 59}, {"time": 1968, "pitch": 65, "duration": 5, "velocity": 71}, {"time": 1968, "pitch": 69, "duration": 6, "velocity": 68}, {"time": 1977, "pitch": 57, "duration": 3, "velocity": 4}, {"time": 1980, "pitch": 60, "duration": 5, "velocity": 74}, {"time": 1980, "pitch": 69, "duration": 6, "velocity": 78}, {"time": 1986, "pitch": 57, "duration": 2, "velocity": 72}, {"time": 1992, "pitch": 43, "duration": 38, "velocity": 78}, {"time": 1992, "pitch": 60, "duration": 10, "velocity": 78}, {"time": 1992, "pitch": 65, "duration": 7, "velocity": 79}, {"time": 1992, "pitch": 69, "duration": 6, "velocity": 78}, {"time": 1998, "pitch": 50, "duration": 31, "velocity": 59}, {"time": 2001, "pitch": 55, "duration": 28, "velocity": 62}, {"time": 2004, "pitch": 60, "duration": 3, "velocity": 78}, {"time": 2007, "pitch": 62, "duration": 2, "velocity": 78}, {"time": 2010, "pitch": 67, "duration": 2, "velocity": 71}, {"time": 2013, "pitch": 72, "duration": 4, "velocity": 71}, {"time": 2016, "pitch": 74, "duration": 1, "velocity": 76}, {"time": 2019, "pitch": 79, "duration": 2, "velocity": 79}, {"time": 2022, "pitch": 84, "duration": 2, "velocity": 72}, {"time": 2025, "pitch": 86, "duration": 3, "velocity": 69}, {"time": 2028, "pitch": 91, "duration": 1, "velocity": 82}, {"time": 2040, "pitch": 48, "duration": 18, "velocity": 76}, {"time": 2040, "pitch": 64, "duration": 13, "velocity": 74}, {"time": 2040, "pitch": 67, "duration": 11, "velocity": 77}, {"time": 2040, "pitch": 72, "duration": 13, "velocity": 83}, {"time": 2046, "pitch": 55, "duration": 18, "velocity": 68}, {"time": 2052, "pitch": 60, "duration": 5, "velocity": 70}, {"time": 2064, "pitch": 47, "duration": 23, "velocity": 82}, {"time": 2064, "pitch": 62, "duration": 13, "velocity": 72}, {"time": 2064, "pitch": 67, "duration": 13, "velocity": 79}, {"time": 2070, "pitch": 55, "duration": 10, "velocity": 57}, {"time": 2076, "pitch": 59, "duration": 7, "velocity": 69}, {"time": 2082, "pitch": 71, "duration": 7, "velocity": 79}, {"time": 2088, "pitch": 45, "duration": 19, "velocity": 73}, {"time": 2088, "pitch": 64, "duration": 12, "velocity": 73}, {"time": 2088, "pitch": 72, "duration": 10, "velocity": 78}, {"time": 2094, "pitch": 52, "duration": 18, "velocity": 55}, {"time": 2100, "pitch": 57, "duration": 7, "velocity": 54}, {"time": 2106, "pitch": 60, "duration": 16, "velocity": 75}, {"time": 2112, "pitch": 43, "duration": 17, "velocity": 71}, {"time": 2112, "pitch": 64, "duration": 13, "velocity": 83}, {"time": 2112, "pitch": 67, "duration": 13, "velocity": 79}, {"time": 2118, "pitch": 52, "duration": 12, "velocity": 58}, {"time": 2124, "pitch": 55, "duration": 6, "velocity": 62}, {"time": 2130, "pitch": 60, "duration": 5, "velocity": 69}, {"time": 2136, "pitch": 41, "duration": 5, "velocity": 78}, {"time": 2136, "pitch": 60, "duration": 13, "velocity": 67}, {"time": 2136, "pitch": 65, "duration": 13, "velocity": 79}, {"time": 2136, "pitch": 69, "duration": 13, "velocity": 76}, {"time": 2142, "pitch": 53, "duration": 9, "velocity": 69}, {"time": 2148, "pitch": 55, "duration": 13, "velocity": 73}, {"time": 2154, "pitch": 69, "duration": 7, "velocity": 69}, {"time": 2160, "pitch": 52, "duration": 18, "velocity": 79}, {"time": 2160, "pitch": 64, "duration": 8, "velocity": 75}, {"time": 2160, "pitch": 67, "duration": 8, "velocity": 82}, {"time": 2166, "pitch": 60, "duration": 12, "velocity": 56}, {"time": 2172, "pitch": 64, "duration": 6, "velocity": 75}, {"time": 2178, "pitch": 67, "duration": 6, "velocity": 74}, {"time": 2184, "pitch": 50, "duration": 15, "velocity": 75}, {"time": 2184, "pitch": 60, "duration": 8, "velocity": 75}, {"time": 2184, "pitch": 65, "duration": 8, "velocity": 75}, {"time": 2184, "pitch": 69, "duration": 7, "velocity": 77}, {"time": 2190, "pitch": 57, "duration": 12, "velocity": 72}, {"time": 2196, "pitch": 60, "duration": 6, "velocity": 75}, {"time": 2202, "pitch": 65, "duration": 5, "velocity": 75}, {"time": 2208, "pitch": 55, "duration": 17, "velocity": 61}, {"time": 2208, "pitch": 62, "duration": 9, "velocity": 70}, {"time": 2208, "pitch": 67, "duration": 11, "velocity": 79}, {"time": 2214, "pitch": 59, "duration": 11, "velocity": 73}, {"time": 2220, "pitch": 65, "duration": 7, "velocity": 77}, {"time": 2220, "pitch": 69, "duration": 5, "velocity": 69}, {"time": 2226, "pitch": 71, "duration": 2, "velocity": 79}, {"time": 2232, "pitch": 48, "duration": 18, "velocity": 69}, {"time": 2232, "pitch": 64, "duration": 9, "velocity": 68}, {"time": 2232, "pitch": 67, "duration": 9, "velocity": 73}, {"time": 2232, "pitch": 72, "duration": 9, "velocity": 76}, {"time": 2238, "pitch": 55, "duration": 11, "velocity": 50}, {"time": 2244, "pitch": 60, "duration": 7, "velocity": 60}, {"time": 2250, "pitch": 55, "duration": 6, "velocity": 57}, {"time": 2250, "pitch": 74, "duration": 3, "velocity": 78}, {"time": 2253, "pitch": 76, "duration": 3, "velocity": 73}, {"time": 2256, "pitch": 47, "duration": 8, "velocity": 76}, {"time": 2256, "pitch": 67, "duration": 7, "velocity": 72}, {"time": 2256, "pitch": 74, "duration": 6, "velocity": 82}, {"time": 2262, "pitch": 55, "duration": 12, "velocity": 58}, {"time": 2268, "pitch": 59, "duration": 4, "velocity": 68}, {"time": 2271, "pitch": 64, "duration": 3, "velocity": 68}, {"time": 2274, "pitch": 67, "duration": 4, "velocity": 68}, {"time": 2277, "pitch": 71, "duration": 3, "velocity": 83}, {"time": 2280, "pitch": 45, "duration": 18, "velocity": 74}, {"time": 2280, "pitch": 64, "duration": 13, "velocity": 62}, {"time": 2280, "pitch": 67, "duration": 9, "velocity": 57}, {"time": 2280, "pitch": 72, "duration": 9, "velocity": 76}, {"time": 2286, "pitch": 52, "duration": 8, "velocity": 72}, {"time": 2292, "pitch": 57, "duration": 5, "velocity": 53}, {"time": 2298, "pitch": 52, "duration": 7, "velocity": 72}, {"time": 2298, "pitch": 64, "duration": 2, "velocity": 59}, {"time": 2298, "pitch": 72, "duration": 5, "velocity": 82}, {"time": 2304, "pitch": 43, "duration": 7, "velocity": 78}, {"time": 2304, "pitch": 62, "duration": 7, "velocity": 75}, {"time": 2304, "pitch": 71, "duration": 10, "velocity": 86}, {"time": 2310, "pitch": 52, "duration": 6, "velocity": 63}, {"time": 2316, "pitch": 55, "duration": 6, "velocity": 63}, {"time": 2316, "pitch": 64, "duration": 5, "velocity": 73}, {"time": 2316, "pitch": 72, "duration": 5, "velocity": 83}, {"time": 2322, "pitch": 59, "duration": 6, "velocity": 67}, {"time": 2322, "pitch": 67, "duration": 5, "velocity": 76}, {"time": 2328, "pitch": 53, "duration": 17, "velocity": 68}, {"time": 2328, "pitch": 60, "duration": 8, "velocity": 70}, {"time": 2328, "pitch": 65, "duration": 8, "velocity": 82}, {"time": 2328, "pitch": 69, "duration": 9, "velocity": 78}, {"time": 2334, "pitch": 57, "duration": 18, "velocity": 56}, {"time": 2340, "pitch": 60, "duration": 5, "velocity": 71}, {"time": 2346, "pitch": 65, "duration": 5, "velocity": 78}, {"time": 2352, "pitch": 55, "duration": 17, "velocity": 74}, {"time": 2352, "pitch": 60, "duration": 8, "velocity": 78}, {"time": 2352, "pitch": 67, "duration": 8, "velocity": 81}, {"time": 2358, "pitch": 59, "duration": 10, "velocity": 71}, {"time": 2364, "pitch": 65, "duration": 5, "velocity": 82}, {"time": 2370, "pitch": 67, "duration": 5, "velocity": 71}, {"time": 2376, "pitch": 48, "duration": 20, "velocity": 74}, {"time": 2376, "pitch": 62, "duration": 9, "velocity": 62}, {"time": 2376, "pitch": 64, "duration": 11, "velocity": 76}, {"time": 2376, "pitch": 67, "duration": 2, "velocity": 73}, {"time": 2376, "pitch": 69, "duration": 11, "velocity": 55}, {"time": 2382, "pitch": 55, "duration": 11, "velocity": 71}, {"time": 2388, "pitch": 60, "duration": 8, "velocity": 63}, {"time": 2394, "pitch": 55, "duration": 5, "velocity": 61}, {"time": 2394, "pitch": 65, "duration": 6, "velocity": 75}, {"time": 2400, "pitch": 48, "duration": 18, "velocity": 80}, {"time": 2400, "pitch": 64, "duration": 7, "velocity": 78}, {"time": 2400, "pitch": 67, "duration": 6, "velocity": 77}, {"time": 2406, "pitch": 55, "duration": 12, "velocity": 72}, {"time": 2412, "pitch": 60, "duration": 3, "velocity": 73}, {"time": 2412, "pitch": 62, "duration": 4, "velocity": 80}, {"time": 2412, "pitch": 67, "duration": 4, "velocity": 84}, {"time": 2418, "pitch": 67, "duration": 4, "velocity": 74}, {"time": 2424, "pitch": 53, "duration": 16, "velocity": 75}, {"time": 2424, "pitch": 69, "duration": 12, "velocity": 78}, {"time": 2424, "pitch": 77, "duration": 14, "velocity": 93}, {"time": 2430, "pitch": 60, "duration": 18, "velocity": 71}, {"time": 2436, "pitch": 65, "duration": 6, "velocity": 61}, {"time": 2442, "pitch": 69, "duration": 3, "velocity": 76}, {"time": 2442, "pitch": 76, "duration": 5, "velocity": 81}, {"time": 2448, "pitch": 55, "duration": 15, "velocity": 79}, {"time": 2448, "pitch": 71, "duration": 14, "velocity": 82}, {"time": 2448, "pitch": 79, "duration": 13, "velocity": 81}, {"time": 2454, "pitch": 62, "duration": 13, "velocity": 73}, {"time": 2460, "pitch": 67, "duration": 6, "velocity": 72}, {"time": 2466, "pitch": 74, "duration": 6, "velocity": 84}, {"time": 2472, "pitch": 57, "duration": 31, "velocity": 74}, {"time": 2472, "pitch": 72, "duration": 10, "velocity": 84}, {"time": 2472, "pitch": 76, "duration": 10, "velocity": 83}, {"time": 2478, "pitch": 64, "duration": 21, "velocity": 72}, {"time": 2484, "pitch": 69, "duration": 15, "velocity": 69}, {"time": 2490, "pitch": 72, "duration": 7, "velocity": 84}, {"time": 2496, "pitch": 74, "duration": 5, "velocity": 80}, {"time": 2502, "pitch": 64, "duration": 7, "velocity": 72}, {"time": 2502, "pitch": 76, "duration": 6, "velocity": 75}, {"time": 2508, "pitch": 55, "duration": 9, "velocity": 73}, {"time": 2508, "pitch": 72, "duration": 5, "velocity": 86}, {"time": 2514, "pitch": 64, "duration": 1, "velocity": 54}, {"time": 2514, "pitch": 71, "duration": 4, "velocity": 83}, {"time": 2517, "pitch": 72, "duration": 3, "velocity": 72}, {"time": 2520, "pitch": 53, "duration": 16, "velocity": 79}, {"time": 2520, "pitch": 69, "duration": 7, "velocity": 75}, {"time": 2520, "pitch": 71, "duration": 2, "velocity": 73}, {"time": 2526, "pitch": 60, "duration": 9, "velocity": 79}, {"time": 2532, "pitch": 65, "duration": 5, "velocity": 79}, {"time": 2538, "pitch": 72, "duration": 5, "velocity": 84}, {"time": 2544, "pitch": 43, "duration": 6, "velocity": 76}, {"time": 2544, "pitch": 62, "duration": 6, "velocity": 80}, {"time": 2544, "pitch": 71, "duration": 8, "velocity": 86}, {"time": 2550, "pitch": 55, "duration": 7, "velocity": 59}, {"time": 2550, "pitch": 62, "duration": 3, "velocity": 24}, {"time": 2550, "pitch": 72, "duration": 4, "velocity": 81}, {"time": 2556, "pitch": 57, "duration": 8, "velocity": 63}, {"time": 2556, "pitch": 64, "duration": 2, "velocity": 77}, {"time": 2556, "pitch": 74, "duration": 2, "velocity": 86}, {"time": 2562, "pitch": 59, "duration": 2, "velocity": 78}, {"time": 2568, "pitch": 48, "duration": 42, "velocity": 82}, {"time": 2568, "pitch": 67, "duration": 7, "velocity": 77}, {"time": 2568, "pitch": 76, "duration": 7, "velocity": 82}, {"time": 2574, "pitch": 55, "duration": 35, "velocity": 68}, {"time": 2580, "pitch": 60, "duration": 9, "velocity": 68}, {"time": 2586, "pitch": 62, "duration": 3, "velocity": 70}, {"time": 2586, "pitch": 67, "duration": 6, "velocity": 76}, {"time": 2592, "pitch": 64, "duration": 7, "velocity": 79}, {"time": 2598, "pitch": 67, "duration": 5, "velocity": 79}, {"time": 2604, "pitch": 60, "duration": 3, "velocity": 61}, {"time": 2604, "pitch": 64, "duration": 6, "velocity": 73}, {"time": 2604, "pitch": 71, "duration": 6, "velocity": 83}, {"time": 2610, "pitch": 72, "duration": 8, "velocity": 82}, {"time": 2616, "pitch": 53, "duration": 17, "velocity": 76}, {"time": 2616, "pitch": 69, "duration": 15, "velocity": 86}, {"time": 2616, "pitch": 77, "duration": 11, "velocity": 94}, {"time": 2622, "pitch": 60, "duration": 13, "velocity": 78}, {"time": 2628, "pitch": 64, "duration": 5, "velocity": 78}, {"time": 2634, "pitch": 77, "duration": 4, "velocity": 83}, {"time": 2640, "pitch": 52, "duration": 16, "velocity": 81}, {"time": 2640, "pitch": 68, "duration": 6, "velocity": 83}, {"time": 2640, "pitch": 74, "duration": 5, "velocity": 90}, {"time": 2646, "pitch": 59, "duration": 11, "velocity": 71}, {"time": 2652, "pitch": 64, "duration": 4, "velocity": 72}, {"time": 2652, "pitch": 68, "duration": 5, "velocity": 78}, {"time": 2658, "pitch": 71, "duration": 5, "velocity": 80}, {"time": 2664, "pitch": 57, "duration": 14, "velocity": 71}, {"time": 2664, "pitch": 64, "duration": 7, "velocity": 83}, {"time": 2664, "pitch": 72, "duration": 10, "velocity": 91}, {"time": 2676, "pitch": 55, "duration": 5, "velocity": 71}, {"time": 2676, "pitch": 62, "duration": 5, "velocity": 75}, {"time": 2676, "pitch": 71, "duration": 5, "velocity": 84}, {"time": 2685, "pitch": 60, "duration": 43, "velocity": 57}, {"time": 2688, "pitch": 53, "duration": 45, "velocity": 62}, {"time": 2688, "pitch": 65, "duration": 46, "velocity": 71}, {"time": 2688, "pitch": 69, "duration": 45, "velocity": 55}, {"time": 2688, "pitch": 72, "duration": 44, "velocity": 63}, {"time": 2760, "pitch": 50, "duration": 41, "velocity": 73}, {"time": 2760, "pitch": 60, "duration": 8, "velocity": 72}, {"time": 2760, "pitch": 65, "duration": 8, "velocity": 82}, {"time": 2760, "pitch": 69, "duration": 9, "velocity": 60}, {"time": 2760, "pitch": 72, "duration": 23, "velocity": 58}, {"time": 2766, "pitch": 57, "duration": 37, "velocity": 57}, {"time": 2772, "pitch": 60, "duration": 14, "velocity": 55}, {"time": 2778, "pitch": 65, "duration": 9, "velocity": 61}, {"time": 2784, "pitch": 69, "duration": 6, "velocity": 69}, {"time": 2796, "pitch": 62, "duration": 6, "velocity": 48}, {"time": 2796, "pitch": 77, "duration": 5, "velocity": 75}, {"time": 2802, "pitch": 76, "duration": 4, "velocity": 72}, {"time": 2808, "pitch": 55, "duration": 64, "velocity": 69}, {"time": 2808, "pitch": 67, "duration": 12, "velocity": 60}, {"time": 2808, "pitch": 74, "duration": 1, "velocity": 50}, {"time": 2814, "pitch": 60, "duration": 12, "velocity": 63}, {"time": 2820, "pitch": 62, "duration": 53, "velocity": 62}, {"time": 2826, "pitch": 72, "duration": 6, "velocity": 71}, {"time": 2832, "pitch": 69, "duration": 3, "velocity": 38}, {"time": 2832, "pitch": 71, "duration": 41, "velocity": 59}, {"time": 2904, "pitch": 48, "duration": 43, "velocity": 74}, {"time": 2904, "pitch": 64, "duration": 7, "velocity": 72}, {"time": 2904, "pitch": 67, "duration": 7, "velocity": 76}, {"time": 2904, "pitch": 72, "duration": 7, "velocity": 77}, {"time": 2910, "pitch": 55, "duration": 8, "velocity": 47}, {"time": 2916, "pitch": 60, "duration": 15, "velocity": 54}, {"time": 2916, "pitch": 64, "duration": 7, "velocity": 69}, {"time": 2916, "pitch": 67, "duration": 6, "velocity": 76}, {"time": 2916, "pitch": 72, "duration": 7, "velocity": 76}, {"time": 2922, "pitch": 55, "duration": 22, "velocity": 6}, {"time": 2928, "pitch": 64, "duration": 7, "velocity": 62}, {"time": 2928, "pitch": 67, "duration": 7, "velocity": 77}, {"time": 2928, "pitch": 72, "duration": 7, "velocity": 78}, {"time": 2934, "pitch": 60, "duration": 7, "velocity": 14}, {"time": 2940, "pitch": 64, "duration": 6, "velocity": 79}, {"time": 2940, "pitch": 67, "duration": 6, "velocity": 82}, {"time": 2940, "pitch": 72, "duration": 5, "velocity": 84}, {"time": 2946, "pitch": 55, "duration": 5, "velocity": 30}, {"time": 2952, "pitch": 47, "duration": 43, "velocity": 76}, {"time": 2952, "pitch": 62, "duration": 7, "velocity": 71}, {"time": 2952, "pitch": 67, "duration": 7, "velocity": 79}, {"time": 2952, "pitch": 71, "duration": 7, "velocity": 79}, {"time": 2952, "pitch": 74, "duration": 7, "velocity": 63}, {"time": 2958, "pitch": 55, "duration": 37, "velocity": 59}, {"time": 2964, "pitch": 59, "duration": 12, "velocity": 55}, {"time": 2964, "pitch": 62, "duration": 6, "velocity": 68}, {"time": 2964, "pitch": 67, "duration": 5, "velocity": 78}, {"time": 2964, "pitch": 71, "duration": 6, "velocity": 80}, {"time": 2964, "pitch": 74, "duration": 6, "velocity": 58}, {"time": 2976, "pitch": 62, "duration": 6, "velocity": 76}, {"time": 2976, "pitch": 67, "duration": 6, "velocity": 80}, {"time": 2976, "pitch": 71, "duration": 6, "velocity": 84}, {"time": 2976, "pitch": 74, "duration": 5, "velocity": 61}, {"time": 2982, "pitch": 59, "duration": 7, "velocity": 43}, {"time": 2988, "pitch": 62, "duration": 5, "velocity": 78}, {"time": 2988, "pitch": 67, "duration": 5, "velocity": 80}, {"time": 2988, "pitch": 71, "duration": 5, "velocity": 82}, {"time": 2994, "pitch": 59, "duration": 2, "velocity": 71}, {"time": 3000, "pitch": 41, "duration": 42, "velocity": 76}, {"time": 3000, "pitch": 60, "duration": 7, "velocity": 80}, {"time": 3000, "pitch": 65, "duration": 6, "velocity": 82}, {"time": 3000, "pitch": 69, "duration": 7, "velocity": 80}, {"time": 3006, "pitch": 53, "duration": 8, "velocity": 53}, {"time": 3012, "pitch": 60, "duration": 6, "velocity": 76}, {"time": 3012, "pitch": 65, "duration": 6, "velocity": 83}, {"time": 3012, "pitch": 69, "duration": 6, "velocity": 77}, {"time": 3018, "pitch": 53, "duration": 8, "velocity": 48}, {"time": 3024, "pitch": 60, "duration": 5, "velocity": 76}, {"time": 3024, "pitch": 65, "duration": 7, "velocity": 80}, {"time": 3024, "pitch": 69, "duration": 6, "velocity": 75}, {"time": 3030, "pitch": 53, "duration": 9, "velocity": 27}, {"time": 3036, "pitch": 60, "duration": 6, "velocity": 78}, {"time": 3036, "pitch": 65, "duration": 6, "velocity": 83}, {"time": 3036, "pitch": 69, "duration": 7, "velocity": 79}, {"time": 3042, "pitch": 53, "duration": 6, "velocity": 60}, {"time": 3048, "pitch": 43, "duration": 20, "velocity": 71}, {"time": 3048, "pitch": 62, "duration": 9, "velocity": 78}, {"time": 3048, "pitch": 67, "duration": 9, "velocity": 78}, {"time": 3048, "pitch": 71, "duration": 6, "velocity": 83}, {"time": 3054, "pitch": 50, "duration": 18, "velocity": 70}, {"time": 3060, "pitch": 55, "duration": 9, "velocity": 50}, {"time": 3060, "pitch": 65, "duration": 5, "velocity": 80}, {"time": 3066, "pitch": 67, "duration": 2, "velocity": 77}, {"time": 3072, "pitch": 43, "duration": 5, "velocity": 63}, {"time": 3072, "pitch": 59, "duration": 2, "velocity": 72}, {"time": 3072, "pitch": 67, "duration": 3, "velocity": 78}, {"time": 3078, "pitch": 55, "duration": 7, "velocity": 50}, {"time": 3078, "pitch": 60, "duration": 2, "velocity": 74}, {"time": 3078, "pitch": 69, "duration": 3, "velocity": 74}, {"time": 3084, "pitch": 57, "duration": 7, "velocity": 59}, {"time": 3084, "pitch": 62, "duration": 2, "velocity": 75}, {"time": 3084, "pitch": 71, "duration": 2, "velocity": 80}, {"time": 3090, "pitch": 59, "duration": 1, "velocity": 68}, {"time": 3090, "pitch": 76, "duration": 1, "velocity": 56}, {"time": 3096, "pitch": 48, "duration": 33, "velocity": 76}, {"time": 3096, "pitch": 64, "duration": 6, "velocity": 63}, {"time": 3096, "pitch": 72, "duration": 7, "velocity": 62}, {"time": 3102, "pitch": 55, "duration": 7, "velocity": 59}, {"time": 3108, "pitch": 60, "duration": 7, "velocity": 53}, {"time": 3108, "pitch": 62, "duration": 5, "velocity": 75}, {"time": 3108, "pitch": 67, "duration": 5, "velocity": 75}, {"time": 3108, "pitch": 72, "duration": 6, "velocity": 62}, {"time": 3114, "pitch": 55, "duration": 14, "velocity": 48}, {"time": 3117, "pitch": 64, "duration": 7, "velocity": 80}, {"time": 3117, "pitch": 67, "duration": 7, "velocity": 81}, {"time": 3117, "pitch": 72, "duration": 7, "velocity": 80}, {"time": 3123, "pitch": 60, "duration": 5, "velocity": 72}, {"time": 3126, "pitch": 64, "duration": 3, "velocity": 75}, {"time": 3129, "pitch": 55, "duration": 3, "velocity": 38}, {"time": 3129, "pitch": 65, "duration": 4, "velocity": 76}, {"time": 3132, "pitch": 48, "duration": 5, "velocity": 83}, {"time": 3132, "pitch": 64, "duration": 4, "velocity": 78}, {"time": 3132, "pitch": 67, "duration": 4, "velocity": 79}, {"time": 3135, "pitch": 55, "duration": 3, "velocity": 76}, {"time": 3138, "pitch": 69, "duration": 4, "velocity": 75}, {"time": 3141, "pitch": 72, "duration": 4, "velocity": 78}, {"time": 3144, "pitch": 47, "duration": 16, "velocity": 82}, {"time": 3144, "pitch": 62, "duration": 6, "velocity": 78}, {"time": 3144, "pitch": 67, "duration": 5, "velocity": 81}, {"time": 3144, "pitch": 69, "duration": 1, "velocity": 51}, {"time": 3150, "pitch": 55, "duration": 8, "velocity": 58}, {"time": 3156, "pitch": 59, "duration": 6, "velocity": 53}, {"time": 3156, "pitch": 62, "duration": 18, "velocity": 79}, {"time": 3156, "pitch": 67, "duration": 18, "velocity": 81}, {"time": 3162, "pitch": 55, "duration": 6, "velocity": 62}, {"time": 3168, "pitch": 47, "duration": 10, "velocity": 80}, {"time": 3171, "pitch": 55, "duration": 12, "velocity": 72}, {"time": 3174, "pitch": 59, "duration": 3, "velocity": 79}, {"time": 3177, "pitch": 67, "duration": 3, "velocity": 79}, {"time": 3180, "pitch": 69, "duration": 4, "velocity": 76}, {"time": 3183, "pitch": 71, "duration": 3, "velocity": 80}, {"time": 3186, "pitch": 72, "duration": 4, "velocity": 86}, {"time": 3189, "pitch": 67, "duration": 1, "velocity": 62}, {"time": 3192, "pitch": 41, "duration": 5, "velocity": 79}, {"time": 3192, "pitch": 60, "duration": 7, "velocity": 69}, {"time": 3192, "pitch": 67, "duration": 4, "velocity": 79}, {"time": 3195, "pitch": 65, "duration": 4, "velocity": 5}, {"time": 3195, "pitch": 69, "duration": 4, "velocity": 60}, {"time": 3198, "pitch": 53, "duration": 7, "velocity": 61}, {"time": 3204, "pitch": 57, "duration": 2, "velocity": 60}, {"time": 3204, "pitch": 60, "duration": 3, "velocity": 80}, {"time": 3204, "pitch": 65, "duration": 5, "velocity": 83}, {"time": 3204, "pitch": 69, "duration": 5, "velocity": 82}, {"time": 3210, "pitch": 60, "duration": 3, "velocity": 73}, {"time": 3216, "pitch": 43, "duration": 11, "velocity": 79}, {"time": 3216, "pitch": 60, "duration": 4, "velocity": 81}, {"time": 3216, "pitch": 65, "duration": 5, "velocity": 83}, {"time": 3216, "pitch": 69, "duration": 5, "velocity": 78}, {"time": 3222, "pitch": 50, "duration": 7, "velocity": 67}, {"time": 3228, "pitch": 55, "duration": 4, "velocity": 57}, {"time": 3228, "pitch": 62, "duration": 4, "velocity": 78}, {"time": 3228, "pitch": 67, "duration": 4, "velocity": 76}, {"time": 3228, "pitch": 71, "duration": 3, "velocity": 86}, {"time": 3240, "pitch": 48, "duration": 19, "velocity": 78}, {"time": 3240, "pitch": 65, "duration": 9, "velocity": 83}, {"time": 3240, "pitch": 72, "duration": 15, "velocity": 84}, {"time": 3246, "pitch": 55, "duration": 19, "velocity": 62}, {"time": 3252, "pitch": 60, "duration": 8, "velocity": 73}, {"time": 3258, "pitch": 65, "duration": 6, "velocity": 76}, {"time": 3258, "pitch": 69, "duration": 6, "velocity": 77}, {"time": 3264, "pitch": 48, "duration": 16, "velocity": 72}, {"time": 3264, "pitch": 64, "duration": 5, "velocity": 75}, {"time": 3264, "pitch": 67, "duration": 6, "velocity": 76}, {"time": 3270, "pitch": 55, "duration": 10, "velocity": 55}, {"time": 3276, "pitch": 60, "duration": 4, "velocity": 69}, {"time": 3276, "pitch": 65, "duration": 4, "velocity": 82}, {"time": 3282, "pitch": 67, "duration": 3, "velocity": 69}, {"time": 3288, "pitch": 48, "duration": 43, "velocity": 74}, {"time": 3288, "pitch": 64, "duration": 7, "velocity": 72}, {"time": 3288, "pitch": 67, "duration": 7, "velocity": 76}, {"time": 3288, "pitch": 72, "duration": 7, "velocity": 77}, {"time": 3294, "pitch": 55, "duration": 8, "velocity": 47}, {"time": 3300, "pitch": 60, "duration": 15, "velocity": 54}, {"time": 3300, "pitch": 64, "duration": 7, "velocity": 69}, {"time": 3300, "pitch": 67, "duration": 6, "velocity": 76}, {"time": 3300, "pitch": 72, "duration": 7, "velocity": 76}, {"time": 3306, "pitch": 55, "duration": 22, "velocity": 6}, {"time": 3312, "pitch": 64, "duration": 7, "velocity": 62}, {"time": 3312, "pitch": 67, "duration": 7, "velocity": 77}, {"time": 3312, "pitch": 72, "duration": 7, "velocity": 78}, {"time": 3318, "pitch": 60, "duration": 7, "velocity": 14}, {"time": 3324, "pitch": 64, "duration": 6, "velocity": 79}, {"time": 3324, "pitch": 67, "duration": 6, "velocity": 82}, {"time": 3324, "pitch": 72, "duration": 5, "velocity": 84}, {"time": 3330, "pitch": 55, "duration": 5, "velocity": 30}, {"time": 3336, "pitch": 47, "duration": 43, "velocity": 76}, {"time": 3336, "pitch": 62, "duration": 7, "velocity": 71}, {"time": 3336, "pitch": 67, "duration": 7, "velocity": 79}, {"time": 3336, "pitch": 71, "duration": 7, "velocity": 79}, {"time": 3336, "pitch": 74, "duration": 7, "velocity": 63}, {"time": 3342, "pitch": 55, "duration": 37, "velocity": 59}, {"time": 3348, "pitch": 59, "duration": 12, "velocity": 55}, {"time": 3348, "pitch": 62, "duration": 6, "velocity": 68}, {"time": 3348, "pitch": 67, "duration": 5, "velocity": 78}, {"time": 3348, "pitch": 71, "duration": 6, "velocity": 80}, {"time": 3348, "pitch": 74, "duration": 6, "velocity": 58}, {"time": 3360, "pitch": 62, "duration": 6, "velocity": 76}, {"time": 3360, "pitch": 67, "duration": 6, "velocity": 80}, {"time": 3360, "pitch": 71, "duration": 6, "velocity": 84}, {"time": 3360, "pitch": 74, "duration": 5, "velocity": 61}, {"time": 3366, "pitch": 59, "duration": 7, "velocity": 43}, {"time": 3372, "pitch": 62, "duration": 5, "velocity": 78}, {"time": 3372, "pitch": 67, "duration": 5, "velocity": 80}, {"time": 3372, "pitch": 71, "duration": 5, "velocity": 82}, {"time": 3378, "pitch": 59, "duration": 2, "velocity": 71}, {"time": 3384, "pitch": 41, "duration": 42, "velocity": 76}, {"time": 3384, "pitch": 60, "duration": 7, "velocity": 80}, {"time": 3384, "pitch": 65, "duration": 6, "velocity": 82}, {"time": 3384, "pitch": 69, "duration": 7, "velocity": 80}, {"time": 3390, "pitch": 53, "duration": 8, "velocity": 53}, {"time": 3396, "pitch": 60, "duration": 6, "velocity": 76}, {"time": 3396, "pitch": 65, "duration": 6, "velocity": 83}, {"time": 3396, "pitch": 69, "duration": 6, "velocity": 77}, {"time": 3402, "pitch": 53, "duration": 8, "velocity": 48}, {"time": 3408, "pitch": 60, "duration": 5, "velocity": 76}, {"time": 3408, "pitch": 65, "duration": 7, "velocity": 80}, {"time": 3408, "pitch": 69, "duration": 6, "velocity": 75}, {"time": 3414, "pitch": 53, "duration": 9, "velocity": 27}, {"time": 3420, "pitch": 60, "duration": 6, "velocity": 78}, {"time": 3420, "pitch": 65, "duration": 6, "velocity": 83}, {"time": 3420, "pitch": 69, "duration": 7, "velocity": 79}, {"time": 3426, "pitch": 53, "duration": 6, "velocity": 60}, {"time": 3432, "pitch": 43, "duration": 20, "velocity": 71}, {"time": 3432, "pitch": 62, "duration": 9, "velocity": 78}, {"time": 3432, "pitch": 67, "duration": 9, "velocity": 78}, {"time": 3432, "pitch": 71, "duration": 6, "velocity": 83}, {"time": 3438, "pitch": 50, "duration": 18, "velocity": 70}, {"time": 3444, "pitch": 55, "duration": 9, "velocity": 50}, {"time": 3444, "pitch": 65, "duration": 5, "velocity": 80}, {"time": 3450, "pitch": 67, "duration": 2, "velocity": 77}, {"time": 3456, "pitch": 43, "duration": 5, "velocity": 63}, {"time": 3456, "pitch": 59, "duration": 2, "velocity": 72}, {"time": 3456, "pitch": 67, "duration": 3, "velocity": 78}, {"time": 3462, "pitch": 55, "duration": 7, "velocity": 50}, {"time": 3462, "pitch": 60, "duration": 2, "velocity": 74}, {"time": 3462, "pitch": 69, "duration": 3, "velocity": 74}, {"time": 3468, "pitch": 57, "duration": 7, "velocity": 59}, {"time": 3468, "pitch": 62, "duration": 2, "velocity": 75}, {"time": 3468, "pitch": 71, "duration": 2, "velocity": 80}, {"time": 3474, "pitch": 59, "duration": 1, "velocity": 68}, {"time": 3474, "pitch": 76, "duration": 1, "velocity": 56}, {"time": 3480, "pitch": 48, "duration": 33, "velocity": 76}, {"time": 3480, "pitch": 64, "duration": 6, "velocity": 63}, {"time": 3480, "pitch": 72, "duration": 7, "velocity": 62}, {"time": 3486, "pitch": 55, "duration": 7, "velocity": 59}, {"time": 3492, "pitch": 60, "duration": 7, "velocity": 53}, {"time": 3492, "pitch": 62, "duration": 5, "velocity": 75}, {"time": 3492, "pitch": 67, "duration": 5, "velocity": 75}, {"time": 3492, "pitch": 72, "duration": 6, "velocity": 62}, {"time": 3498, "pitch": 55, "duration": 14, "velocity": 48}, {"time": 3501, "pitch": 64, "duration": 7, "velocity": 80}, {"time": 3501, "pitch": 67, "duration": 7, "velocity": 81}, {"time": 3501, "pitch": 72, "duration": 7, "velocity": 80}, {"time": 3507, "pitch": 60, "duration": 5, "velocity": 72}, {"time": 3510, "pitch": 64, "duration": 3, "velocity": 75}, {"time": 3513, "pitch": 55, "duration": 3, "velocity": 38}, {"time": 3513, "pitch": 65, "duration": 4, "velocity": 76}, {"time": 3516, "pitch": 48, "duration": 5, "velocity": 83}, {"time": 3516, "pitch": 64, "duration": 4, "velocity": 78}, {"time": 3516, "pitch": 67, "duration": 4, "velocity": 79}, {"time": 3519, "pitch": 55, "duration": 3, "velocity": 76}, {"time": 3522, "pitch": 69, "duration": 4, "velocity": 75}, {"time": 3525, "pitch": 72, "duration": 4, "velocity": 78}, {"time": 3528, "pitch": 47, "duration": 16, "velocity": 82}, {"time": 3528, "pitch": 62, "duration": 6, "velocity": 78}, {"time": 3528, "pitch": 67, "duration": 5, "velocity": 81}, {"time": 3528, "pitch": 69, "duration": 1, "velocity": 51}, {"time": 3534, "pitch": 55, "duration": 8, "velocity": 58}, {"time": 3540, "pitch": 59, "duration": 6, "velocity": 53}, {"time": 3540, "pitch": 62, "duration": 18, "velocity": 79}, {"time": 3540, "pitch": 67, "duration": 18, "velocity": 81}, {"time": 3546, "pitch": 55, "duration": 6, "velocity": 62}, {"time": 3552, "pitch": 47, "duration": 10, "velocity": 80}, {"time": 3555, "pitch": 55, "duration": 12, "velocity": 72}, {"time": 3558, "pitch": 59, "duration": 3, "velocity": 79}, {"time": 3561, "pitch": 67, "duration": 3, "velocity": 79}, {"time": 3564, "pitch": 69, "duration": 4, "velocity": 76}, {"time": 3567, "pitch": 71, "duration": 3, "velocity": 80}, {"time": 3570, "pitch": 72, "duration": 4, "velocity": 86}, {"time": 3573, "pitch": 67, "duration": 1, "velocity": 62}, {"time": 3576, "pitch": 41, "duration": 5, "velocity": 79}, {"time": 3576, "pitch": 60, "duration": 7, "velocity": 69}, {"time": 3576, "pitch": 67, "duration": 4, "velocity": 79}, {"time": 3579, "pitch": 65, "duration": 4, "velocity": 5}, {"time": 3579, "pitch": 69, "duration": 4, "velocity": 60}, {"time": 3582, "pitch": 53, "duration": 7, "velocity": 61}, {"time": 3588, "pitch": 57, "duration": 2, "velocity": 60}, {"time": 3588, "pitch": 60, "duration": 3, "velocity": 80}, {"time": 3588, "pitch": 65, "duration": 5, "velocity": 83}, {"time": 3588, "pitch": 69, "duration": 5, "velocity": 82}, {"time": 3594, "pitch": 60, "duration": 3, "velocity": 73}, {"time": 3600, "pitch": 43, "duration": 11, "velocity": 79}, {"time": 3600, "pitch": 60, "duration": 4, "velocity": 81}, {"time": 3600, "pitch": 65, "duration": 5, "velocity": 83}, {"time": 3600, "pitch": 69, "duration": 5, "velocity": 78}, {"time": 3606, "pitch": 50, "duration": 7, "velocity": 67}, {"time": 3612, "pitch": 55, "duration": 4, "velocity": 57}, {"time": 3612, "pitch": 62, "duration": 4, "velocity": 78}, {"time": 3612, "pitch": 67, "duration": 4, "velocity": 76}, {"time": 3612, "pitch": 71, "duration": 3, "velocity": 86}, {"time": 3624, "pitch": 48, "duration": 19, "velocity": 78}, {"time": 3624, "pitch": 65, "duration": 9, "velocity": 83}, {"time": 3624, "pitch": 72, "duration": 15, "velocity": 84}, {"time": 3630, "pitch": 55, "duration": 19, "velocity": 62}, {"time": 3636, "pitch": 60, "duration": 8, "velocity": 73}, {"time": 3642, "pitch": 65, "duration": 6, "velocity": 76}, {"time": 3642, "pitch": 69, "duration": 6, "velocity": 77}, {"time": 3648, "pitch": 48, "duration": 16, "velocity": 72}, {"time": 3648, "pitch": 64, "duration": 5, "velocity": 75}, {"time": 3648, "pitch": 67, "duration": 6, "velocity": 76}, {"time": 3654, "pitch": 55, "duration": 10, "velocity": 55}, {"time": 3660, "pitch": 60, "duration": 4, "velocity": 69}, {"time": 3660, "pitch": 65, "duration": 4, "velocity": 82}, {"time": 3666, "pitch": 67, "duration": 3, "velocity": 69}], "annotations": [{"time": 36, "annotation": {"number": 64, "value": 127}, "group": "control_change"}, {"time": 83, "annotation": {"number": 64, "value": 0}, "group": "control_change"}, {"time": 88, "annotation": {"number": 64, "value": 127}, "group": "control_change"}, {"time": 132, "annotation": {"number": 64, "value": 0}, "group": "control_change"}, {"time": 136, "annotation": {"number": 64, "value": 127}, "group": "control_change"}, {"time": 179, "annotation": {"number": 64, "value": 0}, "group": "control_change"}, {"time": 183, "annotation": {"number": 64, "value": 127}, "group": "control_change"}, {"time": 229, "annotation": {"number": 64, "value": 0}, "group": "control_change"}, {"time": 233, "annotation": {"number": 64, "value": 127}, "group": "control_change"}, {"time": 276, "annotation": {"number": 64, "value": 0}, "group": "control_change"}, {"time": 281, "annotation": {"number": 64, "value": 127}, "group": "control_change"}, {"time": 322, "annotation": {"number": 64, "value": 0}, "group": "control_change"}, {"time": 326, "annotation": {"number": 64, "value": 127}, "group": "control_change"}, {"time": 347, "annotation": {"number": 64, "value": 0}, "group": "control_change"}, {"time": 351, "annotation": {"number": 64, "value": 127}, "group": "control_change"}, {"time": 372, "annotation": {"number": 64, "value": 0}, "group": "control_change"}, {"time": 372, "annotation": {"number": 64, "value": 127}, "group": "control_change"}, {"time": 419, "annotation": {"number": 64, "value": 0}, "group": "control_change"}, {"time": 422, "annotation": {"number": 64, "value": 127}, "group": "control_change"}, {"time": 444, "annotation": {"number": 64, "value": 0}, "group": "control_change"}, {"time": 449, "annotation": {"number": 64, "value": 127}, "group": "control_change"}, {"time": 468, "annotation": {"number": 64, "value": 0}, "group": "control_change"}, {"time": 474, "annotation": {"number": 64, "value": 127}, "group": "control_change"}, {"time": 474, "annotation": {"number": 64, "value": 0}, "group": "control_change"}, {"time": 493, "annotation": {"number": 64, "value": 0}, "group": "control_change"}, {"time": 498, "annotation": {"number": 64, "value": 127}, "group": "control_change"}, {"time": 518, "annotation": {"number": 64, "value": 0}, "group": "control_change"}, {"time": 522, "annotation": {"number": 64, "value": 127}, "group": "control_change"}, {"time": 540, "annotation": {"number": 64, "value": 0}, "group": "control_change"}, {"time": 546, "annotation": {"number": 64, "value": 127}, "group": "control_change"}, {"time": 563, "annotation": {"number": 64, "value": 0}, "group": "control_change"}, {"time": 569, "annotation": {"number": 64, "value": 127}, "group": "control_change"}, {"time": 587, "annotation": {"number": 64, "value": 0}, "group": "control_change"}, {"time": 594, "annotation": {"number": 64, "value": 127}, "group": "control_change"}, {"time": 612, "annotation": {"number": 64, "value": 0}, "group": "control_change"}, {"time": 617, "annotation": {"number": 64, "value": 127}, "group": "control_change"}, {"time": 635, "annotation": {"number": 64, "value": 0}, "group": "control_change"}, {"time": 639, "annotation": {"number": 64, "value": 127}, "group": "control_change"}, {"time": 659, "annotation": {"number": 64, "value": 0}, "group": "control_change"}, {"time": 663, "annotation": {"number": 64, "value": 127}, "group": "control_change"}, {"time": 683, "annotation": {"number": 64, "value": 0}, "group": "control_change"}, {"time": 688, "annotation": {"number": 64, "value": 127}, "group": "control_change"}, {"time": 706, "annotation": {"number": 64, "value": 0}, "group": "control_change"}, {"time": 716, "annotation": {"number": 64, "value": 127}, "group": "control_change"}, {"time": 730, "annotation": {"number": 64, "value": 0}, "group": "control_change"}, {"time": 736, "annotation": {"number": 64, "value": 127}, "group": "control_change"}, {"time": 755, "annotation": {"number": 64, "value": 0}, "group": "control_change"}, {"time": 760, "annotation": {"number": 64, "value": 127}, "group": "control_change"}, {"time": 778, "annotation": {"number": 64, "value": 0}, "group": "control_change"}, {"time": 784, "annotation": {"number": 64, "value": 127}, "group": "control_change"}, {"time": 801, "annotation": {"number": 64, "value": 0}, "group": "control_change"}, {"time": 806, "annotation": {"number": 64, "value": 127}, "group": "control_change"}, {"time": 828, "annotation": {"number": 64, "value": 0}, "group": "control_change"}, {"time": 833, "annotation": {"number": 64, "value": 127}, "group": "control_change"}, {"time": 852, "annotation": {"number": 64, "value": 0}, "group": "control_change"}, {"time": 852, "annotation": {"number": 64, "value": 127}, "group": "control_change"}, {"time": 857, "annotation": {"number": 64, "value": 127}, "group": "control_change"}, {"time": 887, "annotation": {"number": 64, "value": 0}, "group": "control_change"}, {"time": 892, "annotation": {"number": 64, "value": 127}, "group": "control_change"}, {"time": 900, "annotation": {"number": 64, "value": 0}, "group": "control_change"}, {"time": 902, "annotation": {"number": 64, "value": 127}, "group": "control_change"}, {"time": 924, "annotation": {"number": 64, "value": 0}, "group": "control_change"}, {"time": 928, "annotation": {"number": 64, "value": 127}, "group": "control_change"}, {"time": 949, "annotation": {"number": 64, "value": 0}, "group": "control_change"}, {"time": 952, "annotation": {"number": 64, "value": 127}, "group": "control_change"}, {"time": 995, "annotation": {"number": 64, "value": 127}, "group": "control_change"}, {"time": 1018, "annotation": {"number": 64, "value": 0}, "group": "control_change"}, {"time": 1022, "annotation": {"number": 64, "value": 127}, "group": "control_change"}, {"time": 1043, "annotation": {"number": 64, "value": 0}, "group": "control_change"}, {"time": 1047, "annotation": {"number": 64, "value": 127}, "group": "control_change"}, {"time": 1055, "annotation": {"number": 64, "value": 0}, "group": "control_change"}, {"time": 1058, "annotation": {"number": 64, "value": 127}, "group": "control_change"}, {"time": 1067, "annotation": {"number": 64, "value": 0}, "group": "control_change"}, {"time": 1069, "annotation": {"number": 64, "value": 127}, "group": "control_change"}, {"time": 1114, "annotation": {"number": 64, "value": 0}, "group": "control_change"}, {"time": 1128, "annotation": {"number": 64, "value": 127}, "group": "control_change"}, {"time": 1178, "annotation": {"number": 64, "value": 0}, "group": "control_change"}, {"time": 1182, "annotation": {"number": 64, "value": 127}, "group": "control_change"}, {"time": 1268, "annotation": {"number": 64, "value": 0}, "group": "control_change"}, {"time": 1271, "annotation": {"number": 64, "value": 127}, "group": "control_change"}, {"time": 1272, "annotation": {"number": 64, "value": 127}, "group": "control_change"}, {"time": 1322, "annotation": {"number": 64, "value": 0}, "group": "control_change"}, {"time": 1325, "annotation": {"number": 64, "value": 127}, "group": "control_change"}, {"time": 1370, "annotation": {"number": 64, "value": 0}, "group": "control_change"}, {"time": 1373, "annotation": {"number": 64, "value": 127}, "group": "control_change"}, {"time": 1394, "annotation": {"number": 64, "value": 0}, "group": "control_change"}, {"time": 1396, "annotation": {"number": 64, "value": 127}, "group": "control_change"}, {"time": 1417, "annotation": {"number": 64, "value": 0}, "group": "control_change"}, {"time": 1420, "annotation": {"number": 64, "value": 127}, "group": "control_change"}, {"time": 1463, "annotation": {"number": 64, "value": 0}, "group": "control_change"}, {"time": 1469, "annotation": {"number": 64, "value": 127}, "group": "control_change"}, {"time": 1510, "annotation": {"number": 64, "value": 0}, "group": "control_change"}, {"time": 1514, "annotation": {"number": 64, "value": 127}, "group": "control_change"}, {"time": 1560, "annotation": {"number": 64, "value": 0}, "group": "control_change"}, {"time": 1563, "annotation": {"number": 64, "value": 127}, "group": "control_change"}, {"time": 1585, "annotation": {"number": 64, "value": 0}, "group": "control_change"}, {"time": 1588, "annotation": {"number": 64, "value": 127}, "group": "control_change"}, {"time": 1608, "annotation": {"number": 64, "value": 0}, "group": "control_change"}, {"time": 1613, "annotation": {"number": 64, "value": 127}, "group": "control_change"}, {"time": 1654, "annotation": {"number": 64, "value": 0}, "group": "control_change"}, {"time": 1659, "annotation": {"number": 64, "value": 127}, "group": "control_change"}, {"time": 1680, "annotation": {"number": 64, "value": 0}, "group": "control_change"}, {"time": 1684, "annotation": {"number": 64, "value": 127}, "group": "control_change"}, {"time": 1703, "annotation": {"number": 64, "value": 0}, "group": "control_change"}, {"time": 1708, "annotation": {"number": 64, "value": 127}, "group": "control_change"}, {"time": 1726, "annotation": {"number": 64, "value": 0}, "group": "control_change"}, {"time": 1731, "annotation": {"number": 64, "value": 127}, "group": "control_change"}, {"time": 1750, "annotation": {"number": 64, "value": 0}, "group": "control_change"}, {"time": 1754, "annotation": {"number": 64, "value": 127}, "group": "control_change"}, {"time": 1775, "annotation": {"number": 64, "value": 0}, "group": "control_change"}, {"time": 1781, "annotation": {"number": 64, "value": 127}, "group": "control_change"}, {"time": 1798, "annotation": {"number": 64, "value": 0}, "group": "control_change"}, {"time": 1802, "annotation": {"number": 64, "value": 127}, "group": "control_change"}, {"time": 1822, "annotation": {"number": 64, "value": 0}, "group": "control_change"}, {"time": 1824, "annotation": {"number": 64, "value": 127}, "group": "control_change"}, {"time": 1835, "annotation": {"number": 64, "value": 0}, "group": "control_change"}, {"time": 1839, "annotation": {"number": 64, "value": 127}, "group": "control_change"}, {"time": 1848, "annotation": {"number": 64, "value": 0}, "group": "control_change"}, {"time": 1850, "annotation": {"number": 64, "value": 127}, "group": "control_change"}, {"time": 1872, "annotation": {"number": 64, "value": 0}, "group": "control_change"}, {"time": 1876, "annotation": {"number": 64, "value": 127}, "group": "control_change"}, {"time": 1897, "annotation": {"number": 64, "value": 0}, "group": "control_change"}, {"time": 1898, "annotation": {"number": 64, "value": 127}, "group": "control_change"}, {"time": 1908, "annotation": {"number": 64, "value": 0}, "group": "control_change"}, {"time": 1913, "annotation": {"number": 64, "value": 127}, "group": "control_change"}, {"time": 1920, "annotation": {"number": 64, "value": 0}, "group": "control_change"}, {"time": 1923, "annotation": {"number": 64, "value": 127}, "group": "control_change"}, {"time": 1944, "annotation": {"number": 64, "value": 0}, "group": "control_change"}, {"time": 1949, "annotation": {"number": 64, "value": 127}, "group": "control_change"}, {"time": 1993, "annotation": {"number": 64, "value": 0}, "group": "control_change"}, {"time": 1999, "annotation": {"number": 64, "value": 127}, "group": "control_change"}, {"time": 2039, "annotation": {"number": 64, "value": 0}, "group": "control_change"}, {"time": 2042, "annotation": {"number": 64, "value": 127}, "group": "control_change"}, {"time": 2064, "annotation": {"number": 64, "value": 0}, "group": "control_change"}, {"time": 2069, "annotation": {"number": 64, "value": 127}, "group": "control_change"}, {"time": 2088, "annotation": {"number": 64, "value": 0}, "group": "control_change"}, {"time": 2094, "annotation": {"number": 64, "value": 127}, "group": "control_change"}, {"time": 2094, "annotation": {"number": 64, "value": 0}, "group": "control_change"}, {"time": 2113, "annotation": {"number": 64, "value": 0}, "group": "control_change"}, {"time": 2118, "annotation": {"number": 64, "value": 127}, "group": "control_change"}, {"time": 2138, "annotation": {"number": 64, "value": 0}, "group": "control_change"}, {"time": 2142, "annotation": {"number": 64, "value": 127}, "group": "control_change"}, {"time": 2160, "annotation": {"number": 64, "value": 0}, "group": "control_change"}, {"time": 2166, "annotation": {"number": 64, "value": 127}, "group": "control_change"}, {"time": 2183, "annotation": {"number": 64, "value": 0}, "group": "control_change"}, {"time": 2189, "annotation": {"number": 64, "value": 127}, "group": "control_change"}, {"time": 2207, "annotation": {"number": 64, "value": 0}, "group": "control_change"}, {"time": 2214, "annotation": {"number": 64, "value": 127}, "group": "control_change"}, {"time": 2232, "annotation": {"number": 64, "value": 0}, "group": "control_change"}, {"time": 2237, "annotation": {"number": 64, "value": 127}, "group": "control_change"}, {"time": 2255, "annotation": {"number": 64, "value": 0}, "group": "control_change"}, {"time": 2259, "annotation": {"number": 64, "value": 127}, "group": "control_change"}, {"time": 2279, "annotation": {"number": 64, "value": 0}, "group": "control_change"}, {"time": 2283, "annotation": {"number": 64, "value": 127}, "group": "control_change"}, {"time": 2303, "annotation": {"number": 64, "value": 0}, "group": "control_change"}, {"time": 2308, "annotation": {"number": 64, "value": 127}, "group": "control_change"}, {"time": 2326, "annotation": {"number": 64, "value": 0}, "group": "control_change"}, {"time": 2336, "annotation": {"number": 64, "value": 127}, "group": "control_change"}, {"time": 2350, "annotation": {"number": 64, "value": 0}, "group": "control_change"}, {"time": 2356, "annotation": {"number": 64, "value": 127}, "group": "control_change"}, {"time": 2375, "annotation": {"number": 64, "value": 0}, "group": "control_change"}, {"time": 2380, "annotation": {"number": 64, "value": 127}, "group": "control_change"}, {"time": 2398, "annotation": {"number": 64, "value": 0}, "group": "control_change"}, {"time": 2404, "annotation": {"number": 64, "value": 127}, "group": "control_change"}, {"time": 2421, "annotation": {"number": 64, "value": 0}, "group": "control_change"}, {"time": 2426, "annotation": {"number": 64, "value": 127}, "group": "control_change"}, {"time": 2448, "annotation": {"number": 64, "value": 0}, "group": "control_change"}, {"time": 2453, "annotation": {"number": 64, "value": 127}, "group": "control_change"}, {"time": 2472, "annotation": {"number": 64, "value": 0}, "group": "control_change"}, {"time": 2472, "annotation": {"number": 64, "value": 127}, "group": "control_change"}, {"time": 2477, "annotation": {"number": 64, "value": 127}, "group": "control_change"}, {"time": 2507, "annotation": {"number": 64, "value": 0}, "group": "control_change"}, {"time": 2512, "annotation": {"number": 64, "value": 127}, "group": "control_change"}, {"time": 2520, "annotation": {"number": 64, "value": 0}, "group": "control_change"}, {"time": 2522, "annotation": {"number": 64, "value": 127}, "group": "control_change"}, {"time": 2544, "annotation": {"number": 64, "value": 0}, "group": "control_change"}, {"time": 2548, "annotation": {"number": 64, "value": 127}, "group": "control_change"}, {"time": 2569, "annotation": {"number": 64, "value": 0}, "group": "control_change"}, {"time": 2572, "annotation": {"number": 64, "value": 127}, "group": "control_change"}, {"time": 2615, "annotation": {"number": 64, "value": 127}, "group": "control_change"}, {"time": 2638, "annotation": {"number": 64, "value": 0}, "group": "control_change"}, {"time": 2642, "annotation": {"number": 64, "value": 127}, "group": "control_change"}, {"time": 2663, "annotation": {"number": 64, "value": 0}, "group": "control_change"}, {"time": 2667, "annotation": {"number": 64, "value": 127}, "group": "control_change"}, {"time": 2675, "annotation": {"number": 64, "value": 0}, "group": "control_change"}, {"time": 2678, "annotation": {"number": 64, "value": 127}, "group": "control_change"}, {"time": 2687, "annotation": {"number": 64, "value": 0}, "group": "control_change"}, {"time": 2689, "annotation": {"number": 64, "value": 127}, "group": "control_change"}, {"time": 2734, "annotation": {"number": 64, "value": 0}, "group": "control_change"}, {"time": 2760, "annotation": {"number": 64, "value": 127}, "group": "control_change"}, {"time": 2810, "annotation": {"number": 64, "value": 0}, "group": "control_change"}, {"time": 2814, "annotation": {"number": 64, "value": 127}, "group": "control_change"}, {"time": 2900, "annotation": {"number": 64, "value": 0}, "group": "control_change"}, {"time": 2904, "annotation": {"number": 64, "value": 127}, "group": "control_change"}, {"time": 2904, "annotation": {"number": 64, "value": 0}, "group": "control_change"}, {"time": 2952, "annotation": {"number": 64, "value": 0}, "group": "control_change"}, {"time": 2959, "annotation": {"number": 64, "value": 127}, "group": "control_change"}, {"time": 2998, "annotation": {"number": 64, "value": 0}, "group": "control_change"}, {"time": 3005, "annotation": {"number": 64, "value": 127}, "group": "control_change"}, {"time": 3047, "annotation": {"number": 64, "value": 0}, "group": "control_change"}, {"time": 3053, "annotation": {"number": 64, "value": 127}, "group": "control_change"}, {"time": 3096, "annotation": {"number": 64, "value": 0}, "group": "control_change"}, {"time": 3101, "annotation": {"number": 64, "value": 127}, "group": "control_change"}, {"time": 3142, "annotation": {"number": 64, "value": 0}, "group": "control_change"}, {"time": 3146, "annotation": {"number": 64, "value": 127}, "group": "control_change"}, {"time": 3192, "annotation": {"number": 64, "value": 0}, "group": "control_change"}, {"time": 3195, "annotation": {"number": 64, "value": 127}, "group": "control_change"}, {"time": 3217, "annotation": {"number": 64, "value": 0}, "group": "control_change"}, {"time": 3220, "annotation": {"number": 64, "value": 127}, "group": "control_change"}, {"time": 3240, "annotation": {"number": 64, "value": 0}, "group": "control_change"}, {"time": 3245, "annotation": {"number": 64, "value": 127}, "group": "control_change"}, {"time": 3286, "annotation": {"number": 64, "value": 0}, "group": "control_change"}, {"time": 3336, "annotation": {"number": 64, "value": 0}, "group": "control_change"}, {"time": 3343, "annotation": {"number": 64, "value": 127}, "group": "control_change"}, {"time": 3382, "annotation": {"number": 64, "value": 0}, "group": "control_change"}, {"time": 3389, "annotation": {"number": 64, "value": 127}, "group": "control_change"}, {"time": 3431, "annotation": {"number": 64, "value": 0}, "group": "control_change"}, {"time": 3437, "annotation": {"number": 64, "value": 127}, "group": "control_change"}, {"time": 3480, "annotation": {"number": 64, "value": 0}, "group": "control_change"}, {"time": 3485, "annotation": {"number": 64, "value": 127}, "group": "control_change"}, {"time": 3526, "annotation": {"number": 64, "value": 0}, "group": "control_change"}, {"time": 3530, "annotation": {"number": 64, "value": 127}, "group": "control_change"}, {"time": 3576, "annotation": {"number": 64, "value": 0}, "group": "control_change"}, {"time": 3579, "annotation": {"number": 64, "value": 127}, "group": "control_change"}, {"time": 3601, "annotation": {"number": 64, "value": 0}, "group": "control_change"}, {"time": 3604, "annotation": {"number": 64, "value": 127}, "group": "control_change"}, {"time": 3624, "annotation": {"number": 64, "value": 0}, "group": "control_change"}, {"time": 3629, "annotation": {"number": 64, "value": 127}, "group": "control_change"}, {"time": 3670, "annotation": {"number": 64, "value": 0}, "group": "control_change"}]}]}