{"metadata": {"schema_version": "0.2", "title": "None", "source_filename": "234.mid", "source_format": "midi"}, "resolution": 12, "tempos": [{"time": 0, "qpm": 120.0}, {"time": 4317, "qpm": 134.00005806669182}, {"time": 4365, "qpm": 120.0}], "time_signatures": [{"time": 0, "numerator": 4, "denominator": 4}], "tracks": [{"program": 4, "is_drum": false, "name": "MELODY", "notes": [{"time": 441, "pitch": 67, "duration": 5, "velocity": 87}, {"time": 447, "pitch": 67, "duration": 5, "velocity": 76}, {"time": 453, "pitch": 67, "duration": 5, "velocity": 79}, {"time": 459, "pitch": 72, "duration": 11, "velocity": 90}, {"time": 471, "pitch": 70, "duration": 5, "velocity": 87}, {"time": 477, "pitch": 70, "duration": 6, "velocity": 90}, {"time": 483, "pitch": 68, "duration": 5, "velocity": 60}, {"time": 489, "pitch": 68, "duration": 5, "velocity": 64}, {"time": 495, "pitch": 68, "duration": 23, "velocity": 86}, {"time": 519, "pitch": 68, "duration": 6, "velocity": 90}, {"time": 525, "pitch": 70, "duration": 11, "velocity": 96}, {"time": 537, "pitch": 65, "duration": 5, "velocity": 84}, {"time": 543, "pitch": 65, "duration": 11, "velocity": 87}, {"time": 555, "pitch": 68, "duration": 12, "velocity": 95}, {"time": 567, "pitch": 67, "duration": 64, "velocity": 97}, {"time": 633, "pitch": 63, "duration": 3, "velocity": 77}, {"time": 639, "pitch": 63, "duration": 4, "velocity": 68}, {"time": 645, "pitch": 63, "duration": 5, "velocity": 74}, {"time": 651, "pitch": 67, "duration": 9, "velocity": 82}, {"time": 663, "pitch": 67, "duration": 5, "velocity": 87}, {"time": 669, "pitch": 67, "duration": 4, "velocity": 89}, {"time": 675, "pitch": 65, "duration": 3, "velocity": 64}, {"time": 681, "pitch": 65, "duration": 3, "velocity": 80}, {"time": 687, "pitch": 65, "duration": 25, "velocity": 83}, {"time": 717, "pitch": 65, "duration": 10, "velocity": 97}, {"time": 729, "pitch": 63, "duration": 5, "velocity": 84}, {"time": 735, "pitch": 65, "duration": 12, "velocity": 90}, {"time": 747, "pitch": 68, "duration": 12, "velocity": 98}, {"time": 759, "pitch": 67, "duration": 65, "velocity": 98}, {"time": 825, "pitch": 67, "duration": 4, "velocity": 85}, {"time": 831, "pitch": 67, "duration": 5, "velocity": 80}, {"time": 837, "pitch": 67, "duration": 6, "velocity": 74}, {"time": 843, "pitch": 72, "duration": 11, "velocity": 86}, {"time": 855, "pitch": 70, "duration": 5, "velocity": 74}, {"time": 861, "pitch": 70, "duration": 12, "velocity": 87}, {"time": 873, "pitch": 68, "duration": 4, "velocity": 73}, {"time": 879, "pitch": 68, "duration": 17, "velocity": 80}, {"time": 897, "pitch": 68, "duration": 5, "velocity": 96}, {"time": 903, "pitch": 68, "duration": 6, "velocity": 89}, {"time": 909, "pitch": 70, "duration": 11, "velocity": 90}, {"time": 921, "pitch": 65, "duration": 5, "velocity": 65}, {"time": 927, "pitch": 65, "duration": 11, "velocity": 90}, {"time": 939, "pitch": 68, "duration": 12, "velocity": 95}, {"time": 951, "pitch": 67, "duration": 65, "velocity": 100}, {"time": 1017, "pitch": 63, "duration": 5, "velocity": 66}, {"time": 1023, "pitch": 63, "duration": 5, "velocity": 63}, {"time": 1029, "pitch": 63, "duration": 5, "velocity": 53}, {"time": 1035, "pitch": 63, "duration": 4, "velocity": 56}, {"time": 1041, "pitch": 63, "duration": 5, "velocity": 59}, {"time": 1047, "pitch": 72, "duration": 2, "velocity": 79}, {"time": 1053, "pitch": 72, "duration": 5, "velocity": 72}, {"time": 1059, "pitch": 70, "duration": 5, "velocity": 62}, {"time": 1065, "pitch": 67, "duration": 6, "velocity": 58}, {"time": 1071, "pitch": 70, "duration": 22, "velocity": 69}, {"time": 1095, "pitch": 67, "duration": 5, "velocity": 96}, {"time": 1101, "pitch": 75, "duration": 11, "velocity": 90}, {"time": 1113, "pitch": 74, "duration": 5, "velocity": 95}, {"time": 1119, "pitch": 74, "duration": 12, "velocity": 95}, {"time": 1131, "pitch": 75, "duration": 11, "velocity": 91}, {"time": 1143, "pitch": 74, "duration": 11, "velocity": 93}, {"time": 1155, "pitch": 72, "duration": 24, "velocity": 92}, {"time": 1185, "pitch": 72, "duration": 6, "velocity": 106}, {"time": 1191, "pitch": 74, "duration": 6, "velocity": 93}, {"time": 1197, "pitch": 75, "duration": 10, "velocity": 106}, {"time": 1209, "pitch": 75, "duration": 10, "velocity": 109}, {"time": 1221, "pitch": 75, "duration": 11, "velocity": 103}, {"time": 1233, "pitch": 72, "duration": 6, "velocity": 100}, {"time": 1239, "pitch": 74, "duration": 6, "velocity": 90}, {"time": 1245, "pitch": 75, "duration": 11, "velocity": 99}, {"time": 1257, "pitch": 75, "duration": 9, "velocity": 99}, {"time": 1269, "pitch": 75, "duration": 3, "velocity": 91}, {"time": 1275, "pitch": 75, "duration": 5, "velocity": 93}, {"time": 1281, "pitch": 77, "duration": 6, "velocity": 93}, {"time": 1287, "pitch": 75, "duration": 5, "velocity": 91}, {"time": 1293, "pitch": 74, "duration": 10, "velocity": 97}, {"time": 1305, "pitch": 74, "duration": 11, "velocity": 92}, {"time": 1317, "pitch": 74, "duration": 24, "velocity": 90}, {"time": 1341, "pitch": 72, "duration": 11, "velocity": 103}, {"time": 1353, "pitch": 70, "duration": 6, "velocity": 90}, {"time": 1359, "pitch": 74, "duration": 12, "velocity": 105}, {"time": 1371, "pitch": 72, "duration": 5, "velocity": 92}, {"time": 1377, "pitch": 70, "duration": 5, "velocity": 97}, {"time": 1383, "pitch": 67, "duration": 5, "velocity": 91}, {"time": 1389, "pitch": 72, "duration": 11, "velocity": 103}, {"time": 1401, "pitch": 70, "duration": 7, "velocity": 100}, {"time": 1407, "pitch": 72, "duration": 29, "velocity": 105}, {"time": 1437, "pitch": 72, "duration": 12, "velocity": 90}, {"time": 1443, "pitch": 70, "duration": 11, "velocity": 84}, {"time": 1455, "pitch": 67, "duration": 11, "velocity": 87}, {"time": 1467, "pitch": 67, "duration": 6, "velocity": 82}, {"time": 1473, "pitch": 65, "duration": 6, "velocity": 63}, {"time": 1479, "pitch": 63, "duration": 6, "velocity": 64}, {"time": 1485, "pitch": 65, "duration": 11, "velocity": 79}, {"time": 1497, "pitch": 63, "duration": 7, "velocity": 63}, {"time": 1503, "pitch": 65, "duration": 11, "velocity": 68}, {"time": 1515, "pitch": 68, "duration": 10, "velocity": 80}, {"time": 1527, "pitch": 68, "duration": 12, "velocity": 93}, {"time": 1539, "pitch": 67, "duration": 27, "velocity": 91}, {"time": 1566, "pitch": 72, "duration": 7, "velocity": 98}, {"time": 1572, "pitch": 74, "duration": 7, "velocity": 93}, {"time": 1581, "pitch": 75, "duration": 11, "velocity": 97}, {"time": 1593, "pitch": 75, "duration": 11, "velocity": 99}, {"time": 1605, "pitch": 75, "duration": 11, "velocity": 99}, {"time": 1617, "pitch": 72, "duration": 6, "velocity": 98}, {"time": 1623, "pitch": 74, "duration": 6, "velocity": 87}, {"time": 1629, "pitch": 75, "duration": 10, "velocity": 91}, {"time": 1641, "pitch": 75, "duration": 11, "velocity": 101}, {"time": 1653, "pitch": 75, "duration": 4, "velocity": 89}, {"time": 1659, "pitch": 75, "duration": 6, "velocity": 90}, {"time": 1665, "pitch": 77, "duration": 6, "velocity": 95}, {"time": 1671, "pitch": 75, "duration": 5, "velocity": 90}, {"time": 1677, "pitch": 74, "duration": 11, "velocity": 97}, {"time": 1689, "pitch": 74, "duration": 11, "velocity": 98}, {"time": 1701, "pitch": 74, "duration": 23, "velocity": 103}, {"time": 1725, "pitch": 72, "duration": 11, "velocity": 103}, {"time": 1737, "pitch": 70, "duration": 6, "velocity": 77}, {"time": 1743, "pitch": 74, "duration": 9, "velocity": 93}, {"time": 1752, "pitch": 72, "duration": 6, "velocity": 95}, {"time": 1758, "pitch": 70, "duration": 13, "velocity": 97}, {"time": 1773, "pitch": 72, "duration": 11, "velocity": 95}, {"time": 1785, "pitch": 70, "duration": 6, "velocity": 93}, {"time": 1791, "pitch": 72, "duration": 29, "velocity": 96}, {"time": 1821, "pitch": 74, "duration": 11, "velocity": 98}, {"time": 1833, "pitch": 74, "duration": 11, "velocity": 94}, {"time": 1845, "pitch": 75, "duration": 12, "velocity": 96}, {"time": 1857, "pitch": 74, "duration": 5, "velocity": 79}, {"time": 1863, "pitch": 74, "duration": 12, "velocity": 91}, {"time": 1875, "pitch": 75, "duration": 3, "velocity": 55}, {"time": 1878, "pitch": 74, "duration": 3, "velocity": 56}, {"time": 1881, "pitch": 72, "duration": 56, "velocity": 67}, {"time": 2745, "pitch": 67, "duration": 5, "velocity": 87}, {"time": 2751, "pitch": 67, "duration": 5, "velocity": 76}, {"time": 2757, "pitch": 67, "duration": 6, "velocity": 79}, {"time": 2763, "pitch": 72, "duration": 11, "velocity": 90}, {"time": 2775, "pitch": 70, "duration": 5, "velocity": 87}, {"time": 2781, "pitch": 70, "duration": 6, "velocity": 90}, {"time": 2787, "pitch": 68, "duration": 5, "velocity": 60}, {"time": 2793, "pitch": 68, "duration": 5, "velocity": 64}, {"time": 2799, "pitch": 68, "duration": 18, "velocity": 86}, {"time": 2817, "pitch": 68, "duration": 1, "velocity": 86}, {"time": 2823, "pitch": 68, "duration": 6, "velocity": 90}, {"time": 2829, "pitch": 70, "duration": 11, "velocity": 96}, {"time": 2841, "pitch": 65, "duration": 5, "velocity": 84}, {"time": 2847, "pitch": 65, "duration": 11, "velocity": 87}, {"time": 2859, "pitch": 68, "duration": 12, "velocity": 95}, {"time": 2871, "pitch": 67, "duration": 64, "velocity": 97}, {"time": 2937, "pitch": 63, "duration": 5, "velocity": 66}, {"time": 2943, "pitch": 63, "duration": 5, "velocity": 63}, {"time": 2949, "pitch": 63, "duration": 5, "velocity": 53}, {"time": 2955, "pitch": 63, "duration": 4, "velocity": 56}, {"time": 2961, "pitch": 63, "duration": 5, "velocity": 59}, {"time": 2967, "pitch": 72, "duration": 2, "velocity": 79}, {"time": 2973, "pitch": 72, "duration": 5, "velocity": 72}, {"time": 2979, "pitch": 70, "duration": 5, "velocity": 62}, {"time": 2985, "pitch": 67, "duration": 6, "velocity": 58}, {"time": 2991, "pitch": 70, "duration": 22, "velocity": 69}, {"time": 3015, "pitch": 67, "duration": 5, "velocity": 96}, {"time": 3021, "pitch": 75, "duration": 11, "velocity": 90}, {"time": 3033, "pitch": 74, "duration": 5, "velocity": 95}, {"time": 3039, "pitch": 74, "duration": 12, "velocity": 95}, {"time": 3051, "pitch": 75, "duration": 11, "velocity": 91}, {"time": 3063, "pitch": 74, "duration": 11, "velocity": 93}, {"time": 3075, "pitch": 72, "duration": 24, "velocity": 92}, {"time": 3105, "pitch": 72, "duration": 6, "velocity": 106}, {"time": 3111, "pitch": 74, "duration": 6, "velocity": 93}, {"time": 3117, "pitch": 75, "duration": 10, "velocity": 106}, {"time": 3129, "pitch": 75, "duration": 10, "velocity": 109}, {"time": 3141, "pitch": 75, "duration": 11, "velocity": 103}, {"time": 3153, "pitch": 72, "duration": 6, "velocity": 100}, {"time": 3159, "pitch": 74, "duration": 6, "velocity": 90}, {"time": 3165, "pitch": 75, "duration": 11, "velocity": 99}, {"time": 3177, "pitch": 75, "duration": 11, "velocity": 99}, {"time": 3189, "pitch": 75, "duration": 6, "velocity": 91}, {"time": 3195, "pitch": 75, "duration": 5, "velocity": 93}, {"time": 3201, "pitch": 77, "duration": 6, "velocity": 93}, {"time": 3207, "pitch": 75, "duration": 5, "velocity": 91}, {"time": 3213, "pitch": 74, "duration": 11, "velocity": 97}, {"time": 3225, "pitch": 74, "duration": 11, "velocity": 92}, {"time": 3237, "pitch": 74, "duration": 24, "velocity": 90}, {"time": 3261, "pitch": 72, "duration": 11, "velocity": 103}, {"time": 3273, "pitch": 70, "duration": 5, "velocity": 90}, {"time": 3279, "pitch": 74, "duration": 10, "velocity": 105}, {"time": 3291, "pitch": 72, "duration": 7, "velocity": 92}, {"time": 3297, "pitch": 70, "duration": 5, "velocity": 97}, {"time": 3303, "pitch": 67, "duration": 6, "velocity": 91}, {"time": 3309, "pitch": 72, "duration": 11, "velocity": 103}, {"time": 3321, "pitch": 70, "duration": 5, "velocity": 100}, {"time": 3327, "pitch": 72, "duration": 29, "velocity": 105}, {"time": 3357, "pitch": 72, "duration": 5, "velocity": 90}, {"time": 3363, "pitch": 70, "duration": 11, "velocity": 84}, {"time": 3375, "pitch": 67, "duration": 11, "velocity": 87}, {"time": 3387, "pitch": 67, "duration": 5, "velocity": 82}, {"time": 3393, "pitch": 65, "duration": 5, "velocity": 63}, {"time": 3399, "pitch": 63, "duration": 5, "velocity": 64}, {"time": 3405, "pitch": 65, "duration": 11, "velocity": 79}, {"time": 3417, "pitch": 63, "duration": 5, "velocity": 63}, {"time": 3423, "pitch": 65, "duration": 11, "velocity": 68}, {"time": 3435, "pitch": 68, "duration": 11, "velocity": 80}, {"time": 3447, "pitch": 68, "duration": 12, "velocity": 93}, {"time": 3459, "pitch": 67, "duration": 29, "velocity": 91}, {"time": 3489, "pitch": 72, "duration": 6, "velocity": 98}, {"time": 3495, "pitch": 74, "duration": 6, "velocity": 93}, {"time": 3501, "pitch": 75, "duration": 11, "velocity": 97}, {"time": 3513, "pitch": 75, "duration": 11, "velocity": 99}, {"time": 3525, "pitch": 75, "duration": 11, "velocity": 99}, {"time": 3537, "pitch": 72, "duration": 6, "velocity": 98}, {"time": 3543, "pitch": 74, "duration": 6, "velocity": 87}, {"time": 3549, "pitch": 75, "duration": 11, "velocity": 91}, {"time": 3561, "pitch": 75, "duration": 11, "velocity": 101}, {"time": 3573, "pitch": 75, "duration": 5, "velocity": 89}, {"time": 3579, "pitch": 75, "duration": 6, "velocity": 90}, {"time": 3585, "pitch": 77, "duration": 6, "velocity": 95}, {"time": 3591, "pitch": 75, "duration": 5, "velocity": 90}, {"time": 3597, "pitch": 74, "duration": 11, "velocity": 97}, {"time": 3609, "pitch": 74, "duration": 11, "velocity": 98}, {"time": 3621, "pitch": 74, "duration": 23, "velocity": 103}, {"time": 3645, "pitch": 72, "duration": 11, "velocity": 103}, {"time": 3657, "pitch": 70, "duration": 6, "velocity": 77}, {"time": 3663, "pitch": 74, "duration": 9, "velocity": 93}, {"time": 3675, "pitch": 72, "duration": 6, "velocity": 95}, {"time": 3681, "pitch": 70, "duration": 13, "velocity": 97}, {"time": 3693, "pitch": 72, "duration": 11, "velocity": 95}, {"time": 3705, "pitch": 70, "duration": 6, "velocity": 93}, {"time": 3711, "pitch": 72, "duration": 29, "velocity": 96}, {"time": 3741, "pitch": 74, "duration": 11, "velocity": 98}, {"time": 3753, "pitch": 74, "duration": 11, "velocity": 94}, {"time": 3765, "pitch": 75, "duration": 12, "velocity": 96}, {"time": 3777, "pitch": 74, "duration": 5, "velocity": 79}, {"time": 3783, "pitch": 74, "duration": 12, "velocity": 91}, {"time": 3795, "pitch": 75, "duration": 3, "velocity": 55}, {"time": 3798, "pitch": 74, "duration": 3, "velocity": 56}, {"time": 3801, "pitch": 72, "duration": 56, "velocity": 67}, {"time": 3861, "pitch": 72, "duration": 10, "velocity": 109}, {"time": 3873, "pitch": 74, "duration": 12, "velocity": 100}, {"time": 3885, "pitch": 75, "duration": 18, "velocity": 105}, {"time": 3909, "pitch": 67, "duration": 5, "velocity": 99}, {"time": 3915, "pitch": 72, "duration": 11, "velocity": 99}, {"time": 3927, "pitch": 70, "duration": 28, "velocity": 106}, {"time": 3969, "pitch": 70, "duration": 6, "velocity": 99}, {"time": 3975, "pitch": 72, "duration": 7, "velocity": 103}, {"time": 3981, "pitch": 74, "duration": 17, "velocity": 106}, {"time": 4005, "pitch": 67, "duration": 6, "velocity": 100}, {"time": 4011, "pitch": 74, "duration": 18, "velocity": 94}, {"time": 4029, "pitch": 72, "duration": 29, "velocity": 101}, {"time": 4065, "pitch": 72, "duration": 4, "velocity": 103}, {"time": 4071, "pitch": 75, "duration": 2, "velocity": 79}, {"time": 4077, "pitch": 77, "duration": 9, "velocity": 98}, {"time": 4089, "pitch": 77, "duration": 2, "velocity": 97}, {"time": 4095, "pitch": 77, "duration": 2, "velocity": 98}, {"time": 4101, "pitch": 77, "duration": 8, "velocity": 99}, {"time": 4113, "pitch": 75, "duration": 2, "velocity": 96}, {"time": 4119, "pitch": 74, "duration": 8, "velocity": 101}, {"time": 4131, "pitch": 74, "duration": 21, "velocity": 100}, {"time": 4161, "pitch": 72, "duration": 3, "velocity": 97}, {"time": 4167, "pitch": 74, "duration": 3, "velocity": 94}, {"time": 4173, "pitch": 75, "duration": 8, "velocity": 100}, {"time": 4185, "pitch": 75, "duration": 12, "velocity": 98}, {"time": 4203, "pitch": 77, "duration": 7, "velocity": 98}, {"time": 4215, "pitch": 80, "duration": 4, "velocity": 97}, {"time": 4221, "pitch": 79, "duration": 41, "velocity": 103}, {"time": 4269, "pitch": 84, "duration": 24, "velocity": 111}, {"time": 4299, "pitch": 87, "duration": 7, "velocity": 105}, {"time": 4311, "pitch": 84, "duration": 3, "velocity": 91}, {"time": 4317, "pitch": 84, "duration": 6, "velocity": 95}, {"time": 4326, "pitch": 84, "duration": 5, "velocity": 97}, {"time": 4335, "pitch": 82, "duration": 15, "velocity": 100}, {"time": 4353, "pitch": 77, "duration": 5, "velocity": 91}, {"time": 4359, "pitch": 79, "duration": 5, "velocity": 94}, {"time": 4368, "pitch": 79, "duration": 4, "velocity": 94}, {"time": 4377, "pitch": 79, "duration": 3, "velocity": 97}, {"time": 4383, "pitch": 79, "duration": 5, "velocity": 99}, {"time": 4392, "pitch": 79, "duration": 6, "velocity": 98}, {"time": 4401, "pitch": 77, "duration": 3, "velocity": 91}, {"time": 4407, "pitch": 77, "duration": 6, "velocity": 100}, {"time": 4416, "pitch": 79, "duration": 17, "velocity": 105}, {"time": 4455, "pitch": 72, "duration": 4, "velocity": 109}, {"time": 4461, "pitch": 79, "duration": 18, "velocity": 111}, {"time": 4494, "pitch": 75, "duration": 14, "velocity": 106}, {"time": 4509, "pitch": 77, "duration": 23, "velocity": 106}, {"time": 4545, "pitch": 74, "duration": 7, "velocity": 114}, {"time": 4557, "pitch": 74, "duration": 7, "velocity": 105}, {"time": 4566, "pitch": 75, "duration": 3, "velocity": 56}, {"time": 4569, "pitch": 74, "duration": 3, "velocity": 74}, {"time": 4572, "pitch": 72, "duration": 39, "velocity": 58}, {"time": 4641, "pitch": 72, "duration": 6, "velocity": 106}, {"time": 4647, "pitch": 74, "duration": 6, "velocity": 93}, {"time": 4653, "pitch": 75, "duration": 10, "velocity": 106}, {"time": 4665, "pitch": 75, "duration": 10, "velocity": 109}, {"time": 4677, "pitch": 75, "duration": 11, "velocity": 103}, {"time": 4689, "pitch": 72, "duration": 6, "velocity": 100}, {"time": 4695, "pitch": 74, "duration": 6, "velocity": 90}, {"time": 4701, "pitch": 75, "duration": 11, "velocity": 99}, {"time": 4713, "pitch": 75, "duration": 9, "velocity": 99}, {"time": 4725, "pitch": 75, "duration": 3, "velocity": 91}, {"time": 4731, "pitch": 75, "duration": 5, "velocity": 93}, {"time": 4737, "pitch": 77, "duration": 6, "velocity": 93}, {"time": 4743, "pitch": 75, "duration": 5, "velocity": 91}, {"time": 4749, "pitch": 74, "duration": 10, "velocity": 97}, {"time": 4761, "pitch": 74, "duration": 11, "velocity": 92}, {"time": 4773, "pitch": 74, "duration": 24, "velocity": 90}, {"time": 4797, "pitch": 72, "duration": 11, "velocity": 103}, {"time": 4809, "pitch": 70, "duration": 6, "velocity": 90}, {"time": 4815, "pitch": 74, "duration": 12, "velocity": 105}, {"time": 4827, "pitch": 72, "duration": 5, "velocity": 92}, {"time": 4833, "pitch": 70, "duration": 7, "velocity": 97}, {"time": 4845, "pitch": 72, "duration": 11, "velocity": 103}, {"time": 4857, "pitch": 70, "duration": 7, "velocity": 100}, {"time": 4863, "pitch": 72, "duration": 29, "velocity": 105}, {"time": 4893, "pitch": 72, "duration": 5, "velocity": 90}, {"time": 4899, "pitch": 70, "duration": 11, "velocity": 84}, {"time": 4911, "pitch": 67, "duration": 11, "velocity": 87}, {"time": 4923, "pitch": 67, "duration": 6, "velocity": 82}, {"time": 4929, "pitch": 65, "duration": 6, "velocity": 63}, {"time": 4935, "pitch": 63, "duration": 6, "velocity": 64}, {"time": 4941, "pitch": 65, "duration": 11, "velocity": 79}, {"time": 4953, "pitch": 63, "duration": 7, "velocity": 63}, {"time": 4959, "pitch": 65, "duration": 11, "velocity": 68}, {"time": 4971, "pitch": 68, "duration": 10, "velocity": 80}, {"time": 4983, "pitch": 68, "duration": 12, "velocity": 93}, {"time": 4995, "pitch": 67, "duration": 27, "velocity": 91}, {"time": 5025, "pitch": 72, "duration": 4, "velocity": 98}, {"time": 5031, "pitch": 74, "duration": 6, "velocity": 93}, {"time": 5037, "pitch": 75, "duration": 11, "velocity": 97}, {"time": 5049, "pitch": 75, "duration": 11, "velocity": 99}, {"time": 5061, "pitch": 75, "duration": 11, "velocity": 99}, {"time": 5073, "pitch": 72, "duration": 6, "velocity": 98}, {"time": 5079, "pitch": 74, "duration": 7, "velocity": 87}, {"time": 5085, "pitch": 75, "duration": 10, "velocity": 91}, {"time": 5097, "pitch": 75, "duration": 11, "velocity": 101}, {"time": 5109, "pitch": 75, "duration": 4, "velocity": 89}, {"time": 5115, "pitch": 75, "duration": 6, "velocity": 90}, {"time": 5121, "pitch": 77, "duration": 6, "velocity": 95}, {"time": 5127, "pitch": 75, "duration": 6, "velocity": 90}, {"time": 5133, "pitch": 74, "duration": 12, "velocity": 97}, {"time": 5145, "pitch": 74, "duration": 12, "velocity": 98}, {"time": 5157, "pitch": 74, "duration": 24, "velocity": 103}, {"time": 5181, "pitch": 72, "duration": 12, "velocity": 103}, {"time": 5193, "pitch": 70, "duration": 6, "velocity": 77}, {"time": 5199, "pitch": 74, "duration": 10, "velocity": 93}, {"time": 5211, "pitch": 72, "duration": 6, "velocity": 95}, {"time": 5217, "pitch": 70, "duration": 11, "velocity": 97}, {"time": 5229, "pitch": 72, "duration": 12, "velocity": 95}, {"time": 5241, "pitch": 70, "duration": 6, "velocity": 93}, {"time": 5247, "pitch": 72, "duration": 30, "velocity": 96}, {"time": 5277, "pitch": 74, "duration": 12, "velocity": 98}, {"time": 5289, "pitch": 74, "duration": 12, "velocity": 94}, {"time": 5301, "pitch": 75, "duration": 12, "velocity": 96}, {"time": 5313, "pitch": 74, "duration": 6, "velocity": 79}, {"time": 5319, "pitch": 74, "duration": 12, "velocity": 91}, {"time": 5331, "pitch": 75, "duration": 3, "velocity": 55}, {"time": 5334, "pitch": 74, "duration": 3, "velocity": 56}, {"time": 5337, "pitch": 72, "duration": 57, "velocity": 67}, {"time": 5409, "pitch": 72, "duration": 6, "velocity": 106}, {"time": 5415, "pitch": 70, "duration": 6, "velocity": 93}, {"time": 5421, "pitch": 72, "duration": 9, "velocity": 97}, {"time": 5433, "pitch": 70, "duration": 6, "velocity": 87}, {"time": 5439, "pitch": 72, "duration": 29, "velocity": 95}, {"time": 5469, "pitch": 74, "duration": 9, "velocity": 103}, {"time": 5481, "pitch": 74, "duration": 12, "velocity": 96}, {"time": 5493, "pitch": 75, "duration": 9, "velocity": 93}, {"time": 5505, "pitch": 74, "duration": 7, "velocity": 94}, {"time": 5511, "pitch": 74, "duration": 1, "velocity": 99}, {"time": 5523, "pitch": 75, "duration": 3, "velocity": 91}, {"time": 5526, "pitch": 74, "duration": 3, "velocity": 89}, {"time": 5529, "pitch": 72, "duration": 33, "velocity": 88}], "annotations": [{"time": 468, "annotation": {"number": 1, "value": 1}, "group": "control_change"}, {"time": 1353, "annotation": {"number": 1, "value": 1}, "group": "control_change"}, {"time": 1873, "annotation": {"number": 1, "value": 0}, "group": "control_change"}, {"time": 1874, "annotation": {"number": 1, "value": 1}, "group": "control_change"}, {"time": 2771, "annotation": {"number": 1, "value": 1}, "group": "control_change"}, {"time": 3271, "annotation": {"number": 1, "value": 1}, "group": "control_change"}, {"time": 3791, "annotation": {"number": 1, "value": 0}, "group": "control_change"}, {"time": 3793, "annotation": {"number": 1, "value": 1}, "group": "control_change"}, {"time": 4125, "annotation": {"number": 1, "value": 0}, "group": "control_change"}, {"time": 4126, "annotation": {"number": 1, "value": 1}, "group": "control_change"}, {"time": 4452, "annotation": {"number": 1, "value": 0}, "group": "control_change"}, {"time": 4454, "annotation": {"number": 1, "value": 1}, "group": "control_change"}, {"time": 4454, "annotation": {"number": 1, "value": 0}, "group": "control_change"}, {"time": 4456, "annotation": {"number": 1, "value": 1}, "group": "control_change"}, {"time": 4456, "annotation": {"number": 1, "value": 0}, "group": "control_change"}, {"time": 4458, "annotation": {"number": 1, "value": 0}, "group": "control_change"}, {"time": 4458, "annotation": {"number": 1, "value": 1}, "group": "control_change"}, {"time": 4459, "annotation": {"number": 1, "value": 1}, "group": "control_change"}, {"time": 4459, "annotation": {"number": 1, "value": 0}, "group": "control_change"}, {"time": 4460, "annotation": {"number": 1, "value": 1}, "group": "control_change"}, {"time": 4460, "annotation": {"number": 1, "value": 0}, "group": "control_change"}, {"time": 4461, "annotation": {"number": 1, "value": 0}, "group": "control_change"}, {"time": 4462, "annotation": {"number": 1, "value": 1}, "group": "control_change"}, {"time": 4462, "annotation": {"number": 1, "value": 0}, "group": "control_change"}, {"time": 4515, "annotation": {"number": 1, "value": 1}, "group": "control_change"}, {"time": 4523, "annotation": {"number": 1, "value": 0}, "group": "control_change"}, {"time": 4523, "annotation": {"number": 1, "value": 1}, "group": "control_change"}, {"time": 4524, "annotation": {"number": 1, "value": 0}, "group": "control_change"}, {"time": 4524, "annotation": {"number": 1, "value": 1}, "group": "control_change"}, {"time": 4525, "annotation": {"number": 1, "value": 0}, "group": "control_change"}, {"time": 4525, "annotation": {"number": 1, "value": 1}, "group": "control_change"}, {"time": 4526, "annotation": {"number": 1, "value": 1}, "group": "control_change"}, {"time": 4534, "annotation": {"number": 1, "value": 0}, "group": "control_change"}, {"time": 4536, "annotation": {"number": 1, "value": 1}, "group": "control_change"}, {"time": 4812, "annotation": {"number": 1, "value": 1}, "group": "control_change"}, {"time": 5332, "annotation": {"number": 1, "value": 0}, "group": "control_change"}, {"time": 5333, "annotation": {"number": 1, "value": 1}, "group": "control_change"}]}, {"program": 0, "is_drum": false, "name": "PIANO", "notes": [{"time": 45, "pitch": 48, "duration": 42, "velocity": 48}, {"time": 45, "pitch": 60, "duration": 32, "velocity": 53}, {"time": 45, "pitch": 62, "duration": 17, "velocity": 55}, {"time": 45, "pitch": 63, "duration": 17, "velocity": 60}, {"time": 45, "pitch": 67, "duration": 17, "velocity": 58}, {"time": 66, "pitch": 62, "duration": 13, "velocity": 55}, {"time": 66, "pitch": 63, "duration": 13, "velocity": 64}, {"time": 66, "pitch": 67, "duration": 13, "velocity": 62}, {"time": 78, "pitch": 60, "duration": 5, "velocity": 52}, {"time": 93, "pitch": 53, "duration": 31, "velocity": 66}, {"time": 93, "pitch": 60, "duration": 19, "velocity": 56}, {"time": 93, "pitch": 63, "duration": 18, "velocity": 64}, {"time": 93, "pitch": 68, "duration": 19, "velocity": 56}, {"time": 117, "pitch": 60, "duration": 14, "velocity": 56}, {"time": 117, "pitch": 63, "duration": 13, "velocity": 63}, {"time": 117, "pitch": 68, "duration": 12, "velocity": 56}, {"time": 129, "pitch": 53, "duration": 11, "velocity": 64}, {"time": 135, "pitch": 65, "duration": 18, "velocity": 62}, {"time": 141, "pitch": 46, "duration": 35, "velocity": 58}, {"time": 141, "pitch": 62, "duration": 11, "velocity": 63}, {"time": 141, "pitch": 70, "duration": 9, "velocity": 62}, {"time": 153, "pitch": 58, "duration": 24, "velocity": 39}, {"time": 159, "pitch": 60, "duration": 9, "velocity": 47}, {"time": 159, "pitch": 63, "duration": 8, "velocity": 61}, {"time": 159, "pitch": 68, "duration": 9, "velocity": 60}, {"time": 171, "pitch": 67, "duration": 9, "velocity": 60}, {"time": 183, "pitch": 65, "duration": 5, "velocity": 58}, {"time": 189, "pitch": 51, "duration": 16, "velocity": 69}, {"time": 189, "pitch": 63, "duration": 5, "velocity": 61}, {"time": 189, "pitch": 67, "duration": 7, "velocity": 62}, {"time": 195, "pitch": 58, "duration": 16, "velocity": 58}, {"time": 201, "pitch": 63, "duration": 5, "velocity": 58}, {"time": 207, "pitch": 65, "duration": 4, "velocity": 53}, {"time": 213, "pitch": 50, "duration": 13, "velocity": 67}, {"time": 213, "pitch": 65, "duration": 10, "velocity": 50}, {"time": 213, "pitch": 70, "duration": 9, "velocity": 67}, {"time": 219, "pitch": 58, "duration": 8, "velocity": 61}, {"time": 225, "pitch": 62, "duration": 3, "velocity": 61}, {"time": 231, "pitch": 72, "duration": 6, "velocity": 54}, {"time": 237, "pitch": 56, "duration": 37, "velocity": 70}, {"time": 243, "pitch": 63, "duration": 13, "velocity": 63}, {"time": 249, "pitch": 68, "duration": 10, "velocity": 44}, {"time": 267, "pitch": 63, "duration": 5, "velocity": 67}, {"time": 273, "pitch": 67, "duration": 5, "velocity": 64}, {"time": 279, "pitch": 70, "duration": 3, "velocity": 46}, {"time": 285, "pitch": 46, "duration": 5, "velocity": 70}, {"time": 285, "pitch": 62, "duration": 10, "velocity": 61}, {"time": 285, "pitch": 65, "duration": 11, "velocity": 67}, {"time": 285, "pitch": 70, "duration": 16, "velocity": 64}, {"time": 291, "pitch": 58, "duration": 8, "velocity": 50}, {"time": 297, "pitch": 60, "duration": 22, "velocity": 60}, {"time": 303, "pitch": 62, "duration": 16, "velocity": 66}, {"time": 309, "pitch": 65, "duration": 7, "velocity": 70}, {"time": 315, "pitch": 70, "duration": 6, "velocity": 54}, {"time": 321, "pitch": 72, "duration": 5, "velocity": 51}, {"time": 333, "pitch": 56, "duration": 11, "velocity": 72}, {"time": 333, "pitch": 63, "duration": 11, "velocity": 69}, {"time": 333, "pitch": 68, "duration": 11, "velocity": 70}, {"time": 333, "pitch": 72, "duration": 13, "velocity": 69}, {"time": 351, "pitch": 72, "duration": 17, "velocity": 70}, {"time": 357, "pitch": 46, "duration": 10, "velocity": 66}, {"time": 357, "pitch": 58, "duration": 13, "velocity": 62}, {"time": 357, "pitch": 65, "duration": 10, "velocity": 58}, {"time": 357, "pitch": 70, "duration": 9, "velocity": 60}, {"time": 369, "pitch": 70, "duration": 11, "velocity": 76}, {"time": 381, "pitch": 48, "duration": 46, "velocity": 69}, {"time": 381, "pitch": 63, "duration": 11, "velocity": 58}, {"time": 381, "pitch": 67, "duration": 9, "velocity": 59}, {"time": 387, "pitch": 55, "duration": 39, "velocity": 44}, {"time": 393, "pitch": 60, "duration": 33, "velocity": 64}, {"time": 399, "pitch": 62, "duration": 8, "velocity": 57}, {"time": 405, "pitch": 63, "duration": 6, "velocity": 57}, {"time": 411, "pitch": 67, "duration": 4, "velocity": 59}, {"time": 417, "pitch": 72, "duration": 11, "velocity": 57}, {"time": 429, "pitch": 48, "duration": 34, "velocity": 63}, {"time": 435, "pitch": 55, "duration": 29, "velocity": 62}, {"time": 441, "pitch": 60, "duration": 24, "velocity": 50}, {"time": 447, "pitch": 62, "duration": 8, "velocity": 43}, {"time": 453, "pitch": 63, "duration": 22, "velocity": 58}, {"time": 477, "pitch": 53, "duration": 36, "velocity": 72}, {"time": 483, "pitch": 60, "duration": 29, "velocity": 53}, {"time": 489, "pitch": 65, "duration": 21, "velocity": 49}, {"time": 495, "pitch": 67, "duration": 17, "velocity": 56}, {"time": 513, "pitch": 68, "duration": 13, "velocity": 50}, {"time": 525, "pitch": 46, "duration": 33, "velocity": 70}, {"time": 531, "pitch": 53, "duration": 27, "velocity": 58}, {"time": 537, "pitch": 58, "duration": 22, "velocity": 52}, {"time": 543, "pitch": 60, "duration": 12, "velocity": 58}, {"time": 555, "pitch": 62, "duration": 6, "velocity": 48}, {"time": 573, "pitch": 51, "duration": 35, "velocity": 66}, {"time": 573, "pitch": 70, "duration": 11, "velocity": 55}, {"time": 579, "pitch": 58, "duration": 26, "velocity": 54}, {"time": 585, "pitch": 63, "duration": 15, "velocity": 57}, {"time": 591, "pitch": 67, "duration": 17, "velocity": 57}, {"time": 615, "pitch": 63, "duration": 5, "velocity": 48}, {"time": 621, "pitch": 44, "duration": 9, "velocity": 42}, {"time": 621, "pitch": 60, "duration": 12, "velocity": 47}, {"time": 621, "pitch": 67, "duration": 18, "velocity": 56}, {"time": 627, "pitch": 51, "duration": 5, "velocity": 54}, {"time": 633, "pitch": 56, "duration": 8, "velocity": 50}, {"time": 639, "pitch": 58, "duration": 14, "velocity": 64}, {"time": 651, "pitch": 60, "duration": 2, "velocity": 59}, {"time": 669, "pitch": 46, "duration": 33, "velocity": 64}, {"time": 675, "pitch": 53, "duration": 27, "velocity": 64}, {"time": 681, "pitch": 58, "duration": 22, "velocity": 61}, {"time": 687, "pitch": 62, "duration": 12, "velocity": 53}, {"time": 717, "pitch": 56, "duration": 33, "velocity": 53}, {"time": 717, "pitch": 72, "duration": 11, "velocity": 57}, {"time": 723, "pitch": 60, "duration": 26, "velocity": 55}, {"time": 729, "pitch": 63, "duration": 7, "velocity": 49}, {"time": 735, "pitch": 68, "duration": 19, "velocity": 69}, {"time": 765, "pitch": 43, "duration": 5, "velocity": 69}, {"time": 765, "pitch": 72, "duration": 16, "velocity": 59}, {"time": 771, "pitch": 55, "duration": 6, "velocity": 56}, {"time": 777, "pitch": 60, "duration": 28, "velocity": 78}, {"time": 783, "pitch": 62, "duration": 23, "velocity": 73}, {"time": 789, "pitch": 67, "duration": 12, "velocity": 64}, {"time": 801, "pitch": 72, "duration": 7, "velocity": 66}, {"time": 807, "pitch": 74, "duration": 7, "velocity": 60}, {"time": 813, "pitch": 48, "duration": 15, "velocity": 70}, {"time": 813, "pitch": 75, "duration": 27, "velocity": 69}, {"time": 825, "pitch": 55, "duration": 5, "velocity": 48}, {"time": 831, "pitch": 60, "duration": 8, "velocity": 48}, {"time": 837, "pitch": 62, "duration": 12, "velocity": 59}, {"time": 843, "pitch": 63, "duration": 6, "velocity": 58}, {"time": 849, "pitch": 67, "duration": 4, "velocity": 63}, {"time": 855, "pitch": 75, "duration": 4, "velocity": 67}, {"time": 861, "pitch": 53, "duration": 35, "velocity": 63}, {"time": 861, "pitch": 74, "duration": 13, "velocity": 75}, {"time": 873, "pitch": 60, "duration": 18, "velocity": 53}, {"time": 879, "pitch": 65, "duration": 12, "velocity": 48}, {"time": 879, "pitch": 68, "duration": 15, "velocity": 62}, {"time": 879, "pitch": 72, "duration": 16, "velocity": 64}, {"time": 897, "pitch": 70, "duration": 5, "velocity": 54}, {"time": 903, "pitch": 72, "duration": 5, "velocity": 50}, {"time": 909, "pitch": 46, "duration": 31, "velocity": 72}, {"time": 909, "pitch": 65, "duration": 9, "velocity": 56}, {"time": 909, "pitch": 70, "duration": 8, "velocity": 61}, {"time": 915, "pitch": 53, "duration": 26, "velocity": 57}, {"time": 921, "pitch": 58, "duration": 19, "velocity": 44}, {"time": 927, "pitch": 63, "duration": 13, "velocity": 61}, {"time": 927, "pitch": 68, "duration": 12, "velocity": 52}, {"time": 957, "pitch": 51, "duration": 14, "velocity": 72}, {"time": 963, "pitch": 58, "duration": 15, "velocity": 62}, {"time": 963, "pitch": 70, "duration": 5, "velocity": 58}, {"time": 969, "pitch": 63, "duration": 4, "velocity": 67}, {"time": 969, "pitch": 70, "duration": 1, "velocity": 31}, {"time": 969, "pitch": 75, "duration": 3, "velocity": 60}, {"time": 975, "pitch": 79, "duration": 6, "velocity": 78}, {"time": 981, "pitch": 50, "duration": 12, "velocity": 60}, {"time": 981, "pitch": 77, "duration": 5, "velocity": 61}, {"time": 987, "pitch": 58, "duration": 7, "velocity": 62}, {"time": 987, "pitch": 70, "duration": 5, "velocity": 55}, {"time": 993, "pitch": 62, "duration": 8, "velocity": 67}, {"time": 993, "pitch": 74, "duration": 4, "velocity": 44}, {"time": 999, "pitch": 75, "duration": 6, "velocity": 51}, {"time": 1005, "pitch": 56, "duration": 35, "velocity": 62}, {"time": 1005, "pitch": 72, "duration": 12, "velocity": 61}, {"time": 1011, "pitch": 63, "duration": 30, "velocity": 58}, {"time": 1017, "pitch": 68, "duration": 20, "velocity": 53}, {"time": 1023, "pitch": 70, "duration": 13, "velocity": 47}, {"time": 1035, "pitch": 72, "duration": 5, "velocity": 62}, {"time": 1050, "pitch": 65, "duration": 2, "velocity": 36}, {"time": 1053, "pitch": 46, "duration": 10, "velocity": 69}, {"time": 1053, "pitch": 70, "duration": 20, "velocity": 63}, {"time": 1059, "pitch": 53, "duration": 5, "velocity": 55}, {"time": 1065, "pitch": 58, "duration": 7, "velocity": 51}, {"time": 1071, "pitch": 60, "duration": 13, "velocity": 42}, {"time": 1077, "pitch": 62, "duration": 7, "velocity": 64}, {"time": 1083, "pitch": 65, "duration": 3, "velocity": 59}, {"time": 1089, "pitch": 72, "duration": 5, "velocity": 56}, {"time": 1095, "pitch": 77, "duration": 11, "velocity": 54}, {"time": 1101, "pitch": 56, "duration": 17, "velocity": 72}, {"time": 1101, "pitch": 72, "duration": 14, "velocity": 70}, {"time": 1107, "pitch": 63, "duration": 13, "velocity": 64}, {"time": 1113, "pitch": 68, "duration": 7, "velocity": 61}, {"time": 1119, "pitch": 74, "duration": 4, "velocity": 58}, {"time": 1122, "pitch": 75, "duration": 3, "velocity": 70}, {"time": 1125, "pitch": 58, "duration": 10, "velocity": 67}, {"time": 1125, "pitch": 77, "duration": 12, "velocity": 73}, {"time": 1131, "pitch": 65, "duration": 5, "velocity": 59}, {"time": 1137, "pitch": 75, "duration": 6, "velocity": 64}, {"time": 1143, "pitch": 74, "duration": 6, "velocity": 64}, {"time": 1149, "pitch": 48, "duration": 39, "velocity": 73}, {"time": 1149, "pitch": 72, "duration": 5, "velocity": 67}, {"time": 1155, "pitch": 55, "duration": 36, "velocity": 59}, {"time": 1161, "pitch": 60, "duration": 25, "velocity": 73}, {"time": 1167, "pitch": 62, "duration": 6, "velocity": 64}, {"time": 1173, "pitch": 63, "duration": 3, "velocity": 67}, {"time": 1179, "pitch": 67, "duration": 4, "velocity": 69}, {"time": 1185, "pitch": 74, "duration": 4, "velocity": 58}, {"time": 1191, "pitch": 75, "duration": 3, "velocity": 61}, {"time": 1197, "pitch": 48, "duration": 12, "velocity": 69}, {"time": 1197, "pitch": 67, "duration": 13, "velocity": 63}, {"time": 1197, "pitch": 72, "duration": 13, "velocity": 69}, {"time": 1197, "pitch": 75, "duration": 13, "velocity": 69}, {"time": 1203, "pitch": 55, "duration": 6, "velocity": 63}, {"time": 1209, "pitch": 60, "duration": 7, "velocity": 52}, {"time": 1215, "pitch": 62, "duration": 9, "velocity": 67}, {"time": 1221, "pitch": 63, "duration": 9, "velocity": 72}, {"time": 1221, "pitch": 67, "duration": 9, "velocity": 73}, {"time": 1221, "pitch": 72, "duration": 9, "velocity": 73}, {"time": 1221, "pitch": 75, "duration": 9, "velocity": 73}, {"time": 1227, "pitch": 62, "duration": 7, "velocity": 63}, {"time": 1233, "pitch": 60, "duration": 4, "velocity": 61}, {"time": 1239, "pitch": 75, "duration": 7, "velocity": 67}, {"time": 1245, "pitch": 53, "duration": 38, "velocity": 73}, {"time": 1245, "pitch": 68, "duration": 14, "velocity": 67}, {"time": 1245, "pitch": 72, "duration": 13, "velocity": 59}, {"time": 1251, "pitch": 60, "duration": 17, "velocity": 49}, {"time": 1257, "pitch": 65, "duration": 13, "velocity": 66}, {"time": 1263, "pitch": 67, "duration": 7, "velocity": 62}, {"time": 1269, "pitch": 68, "duration": 9, "velocity": 75}, {"time": 1269, "pitch": 72, "duration": 9, "velocity": 69}, {"time": 1275, "pitch": 60, "duration": 7, "velocity": 60}, {"time": 1281, "pitch": 65, "duration": 7, "velocity": 63}, {"time": 1287, "pitch": 75, "duration": 7, "velocity": 70}, {"time": 1293, "pitch": 46, "duration": 9, "velocity": 72}, {"time": 1293, "pitch": 65, "duration": 7, "velocity": 61}, {"time": 1293, "pitch": 70, "duration": 9, "velocity": 67}, {"time": 1293, "pitch": 74, "duration": 10, "velocity": 69}, {"time": 1299, "pitch": 53, "duration": 4, "velocity": 62}, {"time": 1305, "pitch": 58, "duration": 7, "velocity": 44}, {"time": 1305, "pitch": 65, "duration": 9, "velocity": 61}, {"time": 1305, "pitch": 72, "duration": 10, "velocity": 70}, {"time": 1311, "pitch": 60, "duration": 8, "velocity": 61}, {"time": 1317, "pitch": 62, "duration": 8, "velocity": 59}, {"time": 1317, "pitch": 65, "duration": 7, "velocity": 66}, {"time": 1317, "pitch": 70, "duration": 7, "velocity": 72}, {"time": 1317, "pitch": 74, "duration": 7, "velocity": 67}, {"time": 1323, "pitch": 60, "duration": 9, "velocity": 59}, {"time": 1329, "pitch": 58, "duration": 7, "velocity": 70}, {"time": 1335, "pitch": 68, "duration": 5, "velocity": 58}, {"time": 1341, "pitch": 51, "duration": 35, "velocity": 76}, {"time": 1341, "pitch": 67, "duration": 12, "velocity": 64}, {"time": 1341, "pitch": 70, "duration": 11, "velocity": 60}, {"time": 1347, "pitch": 58, "duration": 13, "velocity": 59}, {"time": 1353, "pitch": 63, "duration": 17, "velocity": 52}, {"time": 1359, "pitch": 65, "duration": 8, "velocity": 61}, {"time": 1359, "pitch": 70, "duration": 3, "velocity": 58}, {"time": 1365, "pitch": 58, "duration": 5, "velocity": 53}, {"time": 1371, "pitch": 67, "duration": 4, "velocity": 76}, {"time": 1371, "pitch": 70, "duration": 4, "velocity": 70}, {"time": 1377, "pitch": 58, "duration": 1, "velocity": 62}, {"time": 1383, "pitch": 50, "duration": 3, "velocity": 67}, {"time": 1389, "pitch": 44, "duration": 8, "velocity": 78}, {"time": 1389, "pitch": 60, "duration": 11, "velocity": 56}, {"time": 1389, "pitch": 63, "duration": 14, "velocity": 62}, {"time": 1389, "pitch": 68, "duration": 24, "velocity": 66}, {"time": 1395, "pitch": 51, "duration": 5, "velocity": 63}, {"time": 1401, "pitch": 56, "duration": 7, "velocity": 47}, {"time": 1407, "pitch": 58, "duration": 9, "velocity": 61}, {"time": 1413, "pitch": 60, "duration": 3, "velocity": 72}, {"time": 1419, "pitch": 60, "duration": 5, "velocity": 64}, {"time": 1425, "pitch": 63, "duration": 8, "velocity": 61}, {"time": 1431, "pitch": 68, "duration": 3, "velocity": 72}, {"time": 1437, "pitch": 46, "duration": 36, "velocity": 73}, {"time": 1437, "pitch": 62, "duration": 11, "velocity": 69}, {"time": 1437, "pitch": 65, "duration": 12, "velocity": 72}, {"time": 1437, "pitch": 70, "duration": 12, "velocity": 73}, {"time": 1443, "pitch": 53, "duration": 27, "velocity": 60}, {"time": 1449, "pitch": 58, "duration": 18, "velocity": 59}, {"time": 1455, "pitch": 62, "duration": 9, "velocity": 70}, {"time": 1467, "pitch": 63, "duration": 3, "velocity": 72}, {"time": 1467, "pitch": 67, "duration": 3, "velocity": 70}, {"time": 1473, "pitch": 58, "duration": 4, "velocity": 59}, {"time": 1479, "pitch": 63, "duration": 2, "velocity": 57}, {"time": 1479, "pitch": 68, "duration": 6, "velocity": 64}, {"time": 1485, "pitch": 44, "duration": 5, "velocity": 72}, {"time": 1485, "pitch": 63, "duration": 11, "velocity": 62}, {"time": 1485, "pitch": 68, "duration": 1, "velocity": 69}, {"time": 1485, "pitch": 72, "duration": 12, "velocity": 61}, {"time": 1491, "pitch": 56, "duration": 7, "velocity": 62}, {"time": 1497, "pitch": 58, "duration": 2, "velocity": 70}, {"time": 1503, "pitch": 63, "duration": 3, "velocity": 57}, {"time": 1509, "pitch": 46, "duration": 13, "velocity": 69}, {"time": 1509, "pitch": 65, "duration": 12, "velocity": 63}, {"time": 1509, "pitch": 70, "duration": 12, "velocity": 64}, {"time": 1509, "pitch": 74, "duration": 12, "velocity": 63}, {"time": 1515, "pitch": 53, "duration": 8, "velocity": 70}, {"time": 1521, "pitch": 58, "duration": 10, "velocity": 62}, {"time": 1527, "pitch": 65, "duration": 3, "velocity": 47}, {"time": 1533, "pitch": 48, "duration": 10, "velocity": 69}, {"time": 1533, "pitch": 63, "duration": 7, "velocity": 56}, {"time": 1533, "pitch": 67, "duration": 8, "velocity": 63}, {"time": 1533, "pitch": 72, "duration": 8, "velocity": 63}, {"time": 1539, "pitch": 55, "duration": 5, "velocity": 53}, {"time": 1545, "pitch": 60, "duration": 7, "velocity": 46}, {"time": 1551, "pitch": 62, "duration": 16, "velocity": 64}, {"time": 1557, "pitch": 63, "duration": 10, "velocity": 69}, {"time": 1563, "pitch": 72, "duration": 7, "velocity": 66}, {"time": 1569, "pitch": 74, "duration": 5, "velocity": 66}, {"time": 1575, "pitch": 75, "duration": 15, "velocity": 63}, {"time": 1581, "pitch": 48, "duration": 12, "velocity": 75}, {"time": 1581, "pitch": 72, "duration": 8, "velocity": 69}, {"time": 1581, "pitch": 79, "duration": 8, "velocity": 72}, {"time": 1587, "pitch": 55, "duration": 6, "velocity": 57}, {"time": 1593, "pitch": 60, "duration": 10, "velocity": 67}, {"time": 1599, "pitch": 62, "duration": 8, "velocity": 54}, {"time": 1599, "pitch": 72, "duration": 7, "velocity": 63}, {"time": 1599, "pitch": 75, "duration": 8, "velocity": 66}, {"time": 1599, "pitch": 79, "duration": 8, "velocity": 73}, {"time": 1605, "pitch": 63, "duration": 13, "velocity": 62}, {"time": 1611, "pitch": 72, "duration": 4, "velocity": 58}, {"time": 1617, "pitch": 62, "duration": 4, "velocity": 69}, {"time": 1617, "pitch": 74, "duration": 3, "velocity": 69}, {"time": 1623, "pitch": 75, "duration": 5, "velocity": 64}, {"time": 1629, "pitch": 53, "duration": 38, "velocity": 67}, {"time": 1629, "pitch": 72, "duration": 7, "velocity": 60}, {"time": 1629, "pitch": 79, "duration": 7, "velocity": 72}, {"time": 1635, "pitch": 60, "duration": 13, "velocity": 56}, {"time": 1641, "pitch": 65, "duration": 16, "velocity": 51}, {"time": 1641, "pitch": 72, "duration": 2, "velocity": 59}, {"time": 1641, "pitch": 80, "duration": 2, "velocity": 66}, {"time": 1647, "pitch": 72, "duration": 2, "velocity": 57}, {"time": 1647, "pitch": 80, "duration": 3, "velocity": 69}, {"time": 1653, "pitch": 60, "duration": 5, "velocity": 48}, {"time": 1659, "pitch": 70, "duration": 2, "velocity": 67}, {"time": 1659, "pitch": 79, "duration": 2, "velocity": 76}, {"time": 1665, "pitch": 60, "duration": 2, "velocity": 67}, {"time": 1671, "pitch": 68, "duration": 10, "velocity": 69}, {"time": 1671, "pitch": 77, "duration": 8, "velocity": 78}, {"time": 1677, "pitch": 46, "duration": 32, "velocity": 70}, {"time": 1683, "pitch": 53, "duration": 14, "velocity": 53}, {"time": 1689, "pitch": 58, "duration": 18, "velocity": 70}, {"time": 1695, "pitch": 60, "duration": 8, "velocity": 63}, {"time": 1701, "pitch": 62, "duration": 4, "velocity": 73}, {"time": 1707, "pitch": 53, "duration": 4, "velocity": 52}, {"time": 1707, "pitch": 63, "duration": 3, "velocity": 75}, {"time": 1713, "pitch": 65, "duration": 3, "velocity": 54}, {"time": 1719, "pitch": 68, "duration": 4, "velocity": 69}, {"time": 1725, "pitch": 51, "duration": 15, "velocity": 73}, {"time": 1725, "pitch": 67, "duration": 9, "velocity": 85}, {"time": 1731, "pitch": 58, "duration": 16, "velocity": 52}, {"time": 1737, "pitch": 63, "duration": 3, "velocity": 51}, {"time": 1743, "pitch": 65, "duration": 3, "velocity": 60}, {"time": 1749, "pitch": 50, "duration": 14, "velocity": 66}, {"time": 1749, "pitch": 65, "duration": 2, "velocity": 47}, {"time": 1749, "pitch": 70, "duration": 4, "velocity": 64}, {"time": 1755, "pitch": 58, "duration": 8, "velocity": 66}, {"time": 1761, "pitch": 62, "duration": 2, "velocity": 64}, {"time": 1767, "pitch": 72, "duration": 6, "velocity": 57}, {"time": 1770, "pitch": 74, "duration": 3, "velocity": 62}, {"time": 1773, "pitch": 44, "duration": 9, "velocity": 75}, {"time": 1773, "pitch": 75, "duration": 10, "velocity": 62}, {"time": 1779, "pitch": 51, "duration": 5, "velocity": 66}, {"time": 1785, "pitch": 56, "duration": 7, "velocity": 47}, {"time": 1785, "pitch": 63, "duration": 2, "velocity": 53}, {"time": 1785, "pitch": 68, "duration": 1, "velocity": 47}, {"time": 1785, "pitch": 72, "duration": 3, "velocity": 62}, {"time": 1791, "pitch": 58, "duration": 7, "velocity": 69}, {"time": 1791, "pitch": 63, "duration": 6, "velocity": 60}, {"time": 1791, "pitch": 68, "duration": 6, "velocity": 67}, {"time": 1791, "pitch": 72, "duration": 7, "velocity": 66}, {"time": 1797, "pitch": 60, "duration": 2, "velocity": 61}, {"time": 1803, "pitch": 63, "duration": 4, "velocity": 54}, {"time": 1809, "pitch": 70, "duration": 3, "velocity": 57}, {"time": 1815, "pitch": 72, "duration": 3, "velocity": 56}, {"time": 1821, "pitch": 46, "duration": 37, "velocity": 73}, {"time": 1821, "pitch": 65, "duration": 10, "velocity": 60}, {"time": 1821, "pitch": 70, "duration": 9, "velocity": 73}, {"time": 1821, "pitch": 72, "duration": 2, "velocity": 62}, {"time": 1827, "pitch": 53, "duration": 32, "velocity": 63}, {"time": 1833, "pitch": 58, "duration": 17, "velocity": 67}, {"time": 1839, "pitch": 60, "duration": 8, "velocity": 70}, {"time": 1839, "pitch": 65, "duration": 8, "velocity": 78}, {"time": 1851, "pitch": 62, "duration": 6, "velocity": 67}, {"time": 1851, "pitch": 65, "duration": 7, "velocity": 62}, {"time": 1857, "pitch": 58, "duration": 3, "velocity": 70}, {"time": 1866, "pitch": 65, "duration": 1, "velocity": 34}, {"time": 1869, "pitch": 48, "duration": 81, "velocity": 66}, {"time": 1869, "pitch": 63, "duration": 12, "velocity": 70}, {"time": 1869, "pitch": 67, "duration": 9, "velocity": 67}, {"time": 1875, "pitch": 55, "duration": 22, "velocity": 67}, {"time": 1881, "pitch": 60, "duration": 16, "velocity": 61}, {"time": 1887, "pitch": 62, "duration": 8, "velocity": 69}, {"time": 1887, "pitch": 65, "duration": 9, "velocity": 75}, {"time": 1899, "pitch": 63, "duration": 1, "velocity": 69}, {"time": 1899, "pitch": 67, "duration": 2, "velocity": 72}, {"time": 1911, "pitch": 55, "duration": 29, "velocity": 51}, {"time": 1917, "pitch": 67, "duration": 10, "velocity": 66}, {"time": 1917, "pitch": 75, "duration": 18, "velocity": 72}, {"time": 1935, "pitch": 60, "duration": 11, "velocity": 42}, {"time": 1941, "pitch": 65, "duration": 6, "velocity": 66}, {"time": 1941, "pitch": 74, "duration": 3, "velocity": 70}, {"time": 1941, "pitch": 67, "duration": 9, "velocity": 88}, {"time": 1947, "pitch": 55, "duration": 3, "velocity": 47}, {"time": 1950, "pitch": 72, "duration": 9, "velocity": 76}, {"time": 1953, "pitch": 70, "duration": 1, "velocity": 72}, {"time": 1959, "pitch": 74, "duration": 6, "velocity": 82}, {"time": 1965, "pitch": 56, "duration": 25, "velocity": 73}, {"time": 1965, "pitch": 60, "duration": 6, "velocity": 63}, {"time": 1965, "pitch": 63, "duration": 7, "velocity": 69}, {"time": 1965, "pitch": 68, "duration": 8, "velocity": 70}, {"time": 1965, "pitch": 75, "duration": 24, "velocity": 95}, {"time": 1977, "pitch": 63, "duration": 4, "velocity": 34}, {"time": 1983, "pitch": 63, "duration": 11, "velocity": 48}, {"time": 1983, "pitch": 68, "duration": 10, "velocity": 72}, {"time": 1983, "pitch": 72, "duration": 9, "velocity": 72}, {"time": 1989, "pitch": 79, "duration": 9, "velocity": 82}, {"time": 1995, "pitch": 56, "duration": 20, "velocity": 66}, {"time": 1998, "pitch": 77, "duration": 9, "velocity": 91}, {"time": 2001, "pitch": 63, "duration": 5, "velocity": 73}, {"time": 2007, "pitch": 72, "duration": 4, "velocity": 63}, {"time": 2007, "pitch": 75, "duration": 6, "velocity": 76}, {"time": 2013, "pitch": 58, "duration": 30, "velocity": 60}, {"time": 2013, "pitch": 65, "duration": 7, "velocity": 66}, {"time": 2013, "pitch": 70, "duration": 7, "velocity": 75}, {"time": 2013, "pitch": 74, "duration": 6, "velocity": 70}, {"time": 2013, "pitch": 77, "duration": 27, "velocity": 85}, {"time": 2019, "pitch": 62, "duration": 13, "velocity": 48}, {"time": 2025, "pitch": 65, "duration": 13, "velocity": 45}, {"time": 2031, "pitch": 77, "duration": 9, "velocity": 78}, {"time": 2037, "pitch": 62, "duration": 13, "velocity": 53}, {"time": 2043, "pitch": 65, "duration": 4, "velocity": 59}, {"time": 2049, "pitch": 72, "duration": 5, "velocity": 67}, {"time": 2055, "pitch": 74, "duration": 7, "velocity": 63}, {"time": 2061, "pitch": 55, "duration": 35, "velocity": 73}, {"time": 2061, "pitch": 65, "duration": 8, "velocity": 53}, {"time": 2061, "pitch": 70, "duration": 8, "velocity": 67}, {"time": 2061, "pitch": 84, "duration": 12, "velocity": 99}, {"time": 2067, "pitch": 62, "duration": 14, "velocity": 62}, {"time": 2073, "pitch": 65, "duration": 5, "velocity": 54}, {"time": 2073, "pitch": 82, "duration": 6, "velocity": 91}, {"time": 2079, "pitch": 65, "duration": 10, "velocity": 69}, {"time": 2079, "pitch": 70, "duration": 12, "velocity": 78}, {"time": 2079, "pitch": 74, "duration": 11, "velocity": 75}, {"time": 2079, "pitch": 82, "duration": 24, "velocity": 88}, {"time": 2091, "pitch": 62, "duration": 5, "velocity": 64}, {"time": 2097, "pitch": 72, "duration": 7, "velocity": 72}, {"time": 2103, "pitch": 74, "duration": 5, "velocity": 66}, {"time": 2103, "pitch": 79, "duration": 3, "velocity": 72}, {"time": 2106, "pitch": 77, "duration": 3, "velocity": 73}, {"time": 2109, "pitch": 48, "duration": 9, "velocity": 64}, {"time": 2109, "pitch": 67, "duration": 8, "velocity": 66}, {"time": 2109, "pitch": 70, "duration": 12, "velocity": 63}, {"time": 2109, "pitch": 75, "duration": 11, "velocity": 73}, {"time": 2109, "pitch": 79, "duration": 12, "velocity": 95}, {"time": 2115, "pitch": 55, "duration": 5, "velocity": 59}, {"time": 2121, "pitch": 60, "duration": 7, "velocity": 44}, {"time": 2121, "pitch": 67, "duration": 3, "velocity": 55}, {"time": 2121, "pitch": 74, "duration": 6, "velocity": 69}, {"time": 2121, "pitch": 75, "duration": 6, "velocity": 78}, {"time": 2127, "pitch": 62, "duration": 10, "velocity": 52}, {"time": 2127, "pitch": 67, "duration": 6, "velocity": 67}, {"time": 2127, "pitch": 72, "duration": 29, "velocity": 85}, {"time": 2127, "pitch": 75, "duration": 8, "velocity": 73}, {"time": 2133, "pitch": 63, "duration": 4, "velocity": 62}, {"time": 2139, "pitch": 67, "duration": 4, "velocity": 60}, {"time": 2145, "pitch": 70, "duration": 8, "velocity": 59}, {"time": 2151, "pitch": 72, "duration": 5, "velocity": 64}, {"time": 2157, "pitch": 56, "duration": 38, "velocity": 62}, {"time": 2157, "pitch": 63, "duration": 7, "velocity": 60}, {"time": 2157, "pitch": 68, "duration": 7, "velocity": 63}, {"time": 2157, "pitch": 72, "duration": 8, "velocity": 63}, {"time": 2157, "pitch": 75, "duration": 12, "velocity": 42}, {"time": 2163, "pitch": 60, "duration": 14, "velocity": 63}, {"time": 2169, "pitch": 63, "duration": 16, "velocity": 61}, {"time": 2169, "pitch": 74, "duration": 6, "velocity": 75}, {"time": 2175, "pitch": 68, "duration": 13, "velocity": 78}, {"time": 2175, "pitch": 75, "duration": 12, "velocity": 82}, {"time": 2187, "pitch": 60, "duration": 8, "velocity": 67}, {"time": 2187, "pitch": 84, "duration": 12, "velocity": 95}, {"time": 2193, "pitch": 63, "duration": 4, "velocity": 69}, {"time": 2199, "pitch": 72, "duration": 4, "velocity": 64}, {"time": 2199, "pitch": 82, "duration": 6, "velocity": 70}, {"time": 2205, "pitch": 58, "duration": 35, "velocity": 59}, {"time": 2205, "pitch": 65, "duration": 8, "velocity": 66}, {"time": 2205, "pitch": 74, "duration": 9, "velocity": 75}, {"time": 2205, "pitch": 84, "duration": 6, "velocity": 70}, {"time": 2211, "pitch": 62, "duration": 16, "velocity": 60}, {"time": 2211, "pitch": 82, "duration": 6, "velocity": 93}, {"time": 2217, "pitch": 65, "duration": 4, "velocity": 55}, {"time": 2217, "pitch": 79, "duration": 6, "velocity": 80}, {"time": 2223, "pitch": 65, "duration": 12, "velocity": 66}, {"time": 2223, "pitch": 74, "duration": 12, "velocity": 61}, {"time": 2223, "pitch": 82, "duration": 24, "velocity": 67}, {"time": 2235, "pitch": 62, "duration": 4, "velocity": 67}, {"time": 2241, "pitch": 72, "duration": 7, "velocity": 60}, {"time": 2247, "pitch": 74, "duration": 2, "velocity": 50}, {"time": 2247, "pitch": 79, "duration": 6, "velocity": 72}, {"time": 2253, "pitch": 55, "duration": 39, "velocity": 67}, {"time": 2253, "pitch": 67, "duration": 8, "velocity": 64}, {"time": 2253, "pitch": 70, "duration": 8, "velocity": 66}, {"time": 2253, "pitch": 74, "duration": 8, "velocity": 61}, {"time": 2253, "pitch": 87, "duration": 9, "velocity": 75}, {"time": 2259, "pitch": 62, "duration": 32, "velocity": 62}, {"time": 2262, "pitch": 87, "duration": 9, "velocity": 78}, {"time": 2265, "pitch": 67, "duration": 4, "velocity": 60}, {"time": 2271, "pitch": 67, "duration": 11, "velocity": 66}, {"time": 2271, "pitch": 70, "duration": 3, "velocity": 72}, {"time": 2271, "pitch": 87, "duration": 6, "velocity": 82}, {"time": 2277, "pitch": 87, "duration": 9, "velocity": 82}, {"time": 2283, "pitch": 70, "duration": 2, "velocity": 59}, {"time": 2283, "pitch": 74, "duration": 2, "velocity": 76}, {"time": 2286, "pitch": 86, "duration": 9, "velocity": 97}, {"time": 2289, "pitch": 67, "duration": 2, "velocity": 63}, {"time": 2295, "pitch": 77, "duration": 4, "velocity": 69}, {"time": 2295, "pitch": 87, "duration": 3, "velocity": 64}, {"time": 2298, "pitch": 86, "duration": 3, "velocity": 85}, {"time": 2301, "pitch": 48, "duration": 38, "velocity": 72}, {"time": 2301, "pitch": 70, "duration": 6, "velocity": 59}, {"time": 2301, "pitch": 75, "duration": 5, "velocity": 64}, {"time": 2301, "pitch": 84, "duration": 42, "velocity": 97}, {"time": 2307, "pitch": 55, "duration": 30, "velocity": 60}, {"time": 2313, "pitch": 60, "duration": 13, "velocity": 58}, {"time": 2319, "pitch": 67, "duration": 4, "velocity": 53}, {"time": 2325, "pitch": 67, "duration": 7, "velocity": 64}, {"time": 2325, "pitch": 70, "duration": 7, "velocity": 73}, {"time": 2325, "pitch": 75, "duration": 7, "velocity": 72}, {"time": 2331, "pitch": 60, "duration": 6, "velocity": 50}, {"time": 2337, "pitch": 67, "duration": 3, "velocity": 69}, {"time": 2337, "pitch": 74, "duration": 2, "velocity": 70}, {"time": 2343, "pitch": 84, "duration": 3, "velocity": 67}, {"time": 2346, "pitch": 86, "duration": 3, "velocity": 62}, {"time": 2349, "pitch": 44, "duration": 39, "velocity": 67}, {"time": 2349, "pitch": 56, "duration": 12, "velocity": 59}, {"time": 2349, "pitch": 63, "duration": 16, "velocity": 69}, {"time": 2349, "pitch": 68, "duration": 14, "velocity": 73}, {"time": 2349, "pitch": 72, "duration": 11, "velocity": 72}, {"time": 2349, "pitch": 87, "duration": 9, "velocity": 93}, {"time": 2358, "pitch": 87, "duration": 9, "velocity": 93}, {"time": 2367, "pitch": 56, "duration": 7, "velocity": 50}, {"time": 2367, "pitch": 87, "duration": 6, "velocity": 82}, {"time": 2373, "pitch": 63, "duration": 8, "velocity": 69}, {"time": 2373, "pitch": 68, "duration": 8, "velocity": 69}, {"time": 2373, "pitch": 72, "duration": 7, "velocity": 66}, {"time": 2373, "pitch": 87, "duration": 9, "velocity": 82}, {"time": 2379, "pitch": 56, "duration": 10, "velocity": 54}, {"time": 2379, "pitch": 91, "duration": 9, "velocity": 88}, {"time": 2385, "pitch": 63, "duration": 6, "velocity": 62}, {"time": 2391, "pitch": 72, "duration": 5, "velocity": 59}, {"time": 2391, "pitch": 91, "duration": 6, "velocity": 76}, {"time": 2397, "pitch": 46, "duration": 38, "velocity": 64}, {"time": 2397, "pitch": 58, "duration": 9, "velocity": 69}, {"time": 2397, "pitch": 65, "duration": 15, "velocity": 70}, {"time": 2397, "pitch": 70, "duration": 11, "velocity": 72}, {"time": 2397, "pitch": 74, "duration": 10, "velocity": 66}, {"time": 2397, "pitch": 91, "duration": 6, "velocity": 85}, {"time": 2403, "pitch": 89, "duration": 6, "velocity": 82}, {"time": 2409, "pitch": 87, "duration": 6, "velocity": 73}, {"time": 2415, "pitch": 58, "duration": 10, "velocity": 50}, {"time": 2415, "pitch": 65, "duration": 11, "velocity": 72}, {"time": 2415, "pitch": 70, "duration": 11, "velocity": 78}, {"time": 2415, "pitch": 74, "duration": 10, "velocity": 70}, {"time": 2415, "pitch": 89, "duration": 24, "velocity": 93}, {"time": 2427, "pitch": 58, "duration": 5, "velocity": 55}, {"time": 2433, "pitch": 65, "duration": 5, "velocity": 64}, {"time": 2433, "pitch": 72, "duration": 13, "velocity": 64}, {"time": 2439, "pitch": 70, "duration": 2, "velocity": 52}, {"time": 2439, "pitch": 82, "duration": 3, "velocity": 73}, {"time": 2442, "pitch": 84, "duration": 3, "velocity": 63}, {"time": 2445, "pitch": 43, "duration": 34, "velocity": 76}, {"time": 2445, "pitch": 55, "duration": 13, "velocity": 67}, {"time": 2445, "pitch": 65, "duration": 17, "velocity": 64}, {"time": 2445, "pitch": 70, "duration": 16, "velocity": 75}, {"time": 2445, "pitch": 86, "duration": 12, "velocity": 82}, {"time": 2457, "pitch": 86, "duration": 6, "velocity": 82}, {"time": 2463, "pitch": 55, "duration": 8, "velocity": 46}, {"time": 2463, "pitch": 86, "duration": 6, "velocity": 75}, {"time": 2469, "pitch": 65, "duration": 8, "velocity": 67}, {"time": 2469, "pitch": 70, "duration": 8, "velocity": 70}, {"time": 2469, "pitch": 86, "duration": 9, "velocity": 80}, {"time": 2475, "pitch": 55, "duration": 6, "velocity": 49}, {"time": 2478, "pitch": 87, "duration": 9, "velocity": 78}, {"time": 2481, "pitch": 65, "duration": 5, "velocity": 63}, {"time": 2487, "pitch": 70, "duration": 4, "velocity": 64}, {"time": 2487, "pitch": 89, "duration": 6, "velocity": 61}, {"time": 2493, "pitch": 48, "duration": 35, "velocity": 73}, {"time": 2493, "pitch": 60, "duration": 1, "velocity": 39}, {"time": 2493, "pitch": 63, "duration": 9, "velocity": 72}, {"time": 2493, "pitch": 67, "duration": 8, "velocity": 73}, {"time": 2493, "pitch": 70, "duration": 7, "velocity": 52}, {"time": 2493, "pitch": 89, "duration": 6, "velocity": 80}, {"time": 2499, "pitch": 60, "duration": 13, "velocity": 55}, {"time": 2499, "pitch": 87, "duration": 6, "velocity": 88}, {"time": 2505, "pitch": 62, "duration": 4, "velocity": 46}, {"time": 2505, "pitch": 86, "duration": 6, "velocity": 82}, {"time": 2511, "pitch": 63, "duration": 12, "velocity": 75}, {"time": 2511, "pitch": 67, "duration": 11, "velocity": 73}, {"time": 2511, "pitch": 84, "duration": 27, "velocity": 88}, {"time": 2523, "pitch": 60, "duration": 5, "velocity": 49}, {"time": 2529, "pitch": 62, "duration": 4, "velocity": 57}, {"time": 2529, "pitch": 65, "duration": 5, "velocity": 66}, {"time": 2535, "pitch": 63, "duration": 3, "velocity": 47}, {"time": 2535, "pitch": 67, "duration": 4, "velocity": 63}, {"time": 2538, "pitch": 44, "duration": 39, "velocity": 69}, {"time": 2538, "pitch": 56, "duration": 13, "velocity": 61}, {"time": 2538, "pitch": 60, "duration": 15, "velocity": 60}, {"time": 2538, "pitch": 63, "duration": 1, "velocity": 61}, {"time": 2538, "pitch": 67, "duration": 1, "velocity": 67}, {"time": 2538, "pitch": 77, "duration": 3, "velocity": 52}, {"time": 2538, "pitch": 79, "duration": 9, "velocity": 101}, {"time": 2550, "pitch": 82, "duration": 9, "velocity": 67}, {"time": 2559, "pitch": 56, "duration": 10, "velocity": 39}, {"time": 2559, "pitch": 80, "duration": 6, "velocity": 78}, {"time": 2565, "pitch": 60, "duration": 14, "velocity": 61}, {"time": 2565, "pitch": 63, "duration": 14, "velocity": 62}, {"time": 2565, "pitch": 67, "duration": 13, "velocity": 61}, {"time": 2565, "pitch": 80, "duration": 9, "velocity": 80}, {"time": 2574, "pitch": 79, "duration": 9, "velocity": 91}, {"time": 2577, "pitch": 56, "duration": 4, "velocity": 59}, {"time": 2583, "pitch": 80, "duration": 6, "velocity": 73}, {"time": 2589, "pitch": 46, "duration": 37, "velocity": 75}, {"time": 2589, "pitch": 62, "duration": 14, "velocity": 69}, {"time": 2589, "pitch": 65, "duration": 15, "velocity": 66}, {"time": 2589, "pitch": 70, "duration": 11, "velocity": 64}, {"time": 2589, "pitch": 79, "duration": 12, "velocity": 93}, {"time": 2601, "pitch": 53, "duration": 12, "velocity": 28}, {"time": 2601, "pitch": 77, "duration": 6, "velocity": 76}, {"time": 2607, "pitch": 77, "duration": 24, "velocity": 76}, {"time": 2613, "pitch": 58, "duration": 12, "velocity": 55}, {"time": 2613, "pitch": 62, "duration": 13, "velocity": 67}, {"time": 2613, "pitch": 65, "duration": 12, "velocity": 72}, {"time": 2613, "pitch": 70, "duration": 12, "velocity": 62}, {"time": 2625, "pitch": 53, "duration": 2, "velocity": 46}, {"time": 2631, "pitch": 67, "duration": 6, "velocity": 78}, {"time": 2637, "pitch": 43, "duration": 25, "velocity": 72}, {"time": 2637, "pitch": 62, "duration": 14, "velocity": 72}, {"time": 2637, "pitch": 67, "duration": 11, "velocity": 72}, {"time": 2637, "pitch": 80, "duration": 6, "velocity": 76}, {"time": 2643, "pitch": 79, "duration": 6, "velocity": 78}, {"time": 2649, "pitch": 55, "duration": 14, "velocity": 47}, {"time": 2649, "pitch": 77, "duration": 6, "velocity": 78}, {"time": 2655, "pitch": 75, "duration": 6, "velocity": 78}, {"time": 2661, "pitch": 59, "duration": 12, "velocity": 64}, {"time": 2661, "pitch": 62, "duration": 12, "velocity": 63}, {"time": 2661, "pitch": 65, "duration": 12, "velocity": 61}, {"time": 2661, "pitch": 74, "duration": 12, "velocity": 78}, {"time": 2673, "pitch": 72, "duration": 6, "velocity": 82}, {"time": 2679, "pitch": 71, "duration": 6, "velocity": 91}, {"time": 2685, "pitch": 48, "duration": 11, "velocity": 72}, {"time": 2685, "pitch": 63, "duration": 5, "velocity": 63}, {"time": 2685, "pitch": 67, "duration": 7, "velocity": 67}, {"time": 2685, "pitch": 72, "duration": 8, "velocity": 63}, {"time": 2685, "pitch": 72, "duration": 8, "velocity": 80}, {"time": 2691, "pitch": 55, "duration": 5, "velocity": 56}, {"time": 2697, "pitch": 60, "duration": 6, "velocity": 58}, {"time": 2703, "pitch": 62, "duration": 14, "velocity": 50}, {"time": 2709, "pitch": 63, "duration": 8, "velocity": 62}, {"time": 2715, "pitch": 67, "duration": 4, "velocity": 73}, {"time": 2721, "pitch": 75, "duration": 6, "velocity": 62}, {"time": 2727, "pitch": 74, "duration": 5, "velocity": 63}, {"time": 2733, "pitch": 48, "duration": 37, "velocity": 72}, {"time": 2733, "pitch": 63, "duration": 14, "velocity": 63}, {"time": 2733, "pitch": 67, "duration": 13, "velocity": 67}, {"time": 2733, "pitch": 72, "duration": 1, "velocity": 61}, {"time": 2733, "pitch": 72, "duration": 16, "velocity": 64}, {"time": 2745, "pitch": 55, "duration": 13, "velocity": 36}, {"time": 2757, "pitch": 60, "duration": 15, "velocity": 48}, {"time": 2757, "pitch": 63, "duration": 13, "velocity": 63}, {"time": 2757, "pitch": 67, "duration": 12, "velocity": 70}, {"time": 2757, "pitch": 72, "duration": 14, "velocity": 61}, {"time": 2769, "pitch": 55, "duration": 2, "velocity": 61}, {"time": 2781, "pitch": 53, "duration": 37, "velocity": 70}, {"time": 2781, "pitch": 68, "duration": 12, "velocity": 61}, {"time": 2781, "pitch": 72, "duration": 9, "velocity": 62}, {"time": 2787, "pitch": 60, "duration": 30, "velocity": 58}, {"time": 2793, "pitch": 65, "duration": 20, "velocity": 50}, {"time": 2799, "pitch": 67, "duration": 14, "velocity": 62}, {"time": 2805, "pitch": 68, "duration": 11, "velocity": 63}, {"time": 2817, "pitch": 72, "duration": 4, "velocity": 58}, {"time": 2823, "pitch": 75, "duration": 7, "velocity": 66}, {"time": 2829, "pitch": 46, "duration": 37, "velocity": 66}, {"time": 2829, "pitch": 74, "duration": 8, "velocity": 69}, {"time": 2835, "pitch": 53, "duration": 31, "velocity": 57}, {"time": 2841, "pitch": 58, "duration": 35, "velocity": 58}, {"time": 2847, "pitch": 62, "duration": 8, "velocity": 58}, {"time": 2853, "pitch": 63, "duration": 7, "velocity": 62}, {"time": 2859, "pitch": 65, "duration": 4, "velocity": 58}, {"time": 2865, "pitch": 67, "duration": 5, "velocity": 48}, {"time": 2871, "pitch": 68, "duration": 3, "velocity": 60}, {"time": 2877, "pitch": 51, "duration": 25, "velocity": 64}, {"time": 2877, "pitch": 70, "duration": 14, "velocity": 69}, {"time": 2883, "pitch": 58, "duration": 33, "velocity": 57}, {"time": 2889, "pitch": 63, "duration": 11, "velocity": 62}, {"time": 2895, "pitch": 65, "duration": 8, "velocity": 61}, {"time": 2901, "pitch": 67, "duration": 7, "velocity": 61}, {"time": 2907, "pitch": 70, "duration": 7, "velocity": 67}, {"time": 2907, "pitch": 70, "duration": 7, "velocity": 72}, {"time": 2913, "pitch": 50, "duration": 3, "velocity": 62}, {"time": 2913, "pitch": 75, "duration": 6, "velocity": 73}, {"time": 2919, "pitch": 72, "duration": 7, "velocity": 50}, {"time": 2919, "pitch": 74, "duration": 6, "velocity": 67}, {"time": 2925, "pitch": 56, "duration": 40, "velocity": 72}, {"time": 2925, "pitch": 75, "duration": 17, "velocity": 66}, {"time": 2925, "pitch": 72, "duration": 1, "velocity": 67}, {"time": 2931, "pitch": 63, "duration": 17, "velocity": 56}, {"time": 2937, "pitch": 68, "duration": 15, "velocity": 59}, {"time": 2943, "pitch": 74, "duration": 5, "velocity": 61}, {"time": 2949, "pitch": 72, "duration": 1, "velocity": 69}, {"time": 2955, "pitch": 63, "duration": 9, "velocity": 67}, {"time": 2961, "pitch": 67, "duration": 4, "velocity": 46}, {"time": 2967, "pitch": 70, "duration": 4, "velocity": 49}, {"time": 2973, "pitch": 68, "duration": 11, "velocity": 55}, {"time": 2973, "pitch": 72, "duration": 10, "velocity": 49}, {"time": 2976, "pitch": 58, "duration": 32, "velocity": 44}, {"time": 2985, "pitch": 62, "duration": 11, "velocity": 44}, {"time": 2991, "pitch": 65, "duration": 9, "velocity": 63}, {"time": 2991, "pitch": 70, "duration": 10, "velocity": 70}, {"time": 3003, "pitch": 62, "duration": 4, "velocity": 62}, {"time": 3009, "pitch": 65, "duration": 4, "velocity": 48}, {"time": 3015, "pitch": 72, "duration": 2, "velocity": 59}, {"time": 3021, "pitch": 56, "duration": 14, "velocity": 60}, {"time": 3021, "pitch": 68, "duration": 7, "velocity": 43}, {"time": 3021, "pitch": 72, "duration": 8, "velocity": 49}, {"time": 3027, "pitch": 60, "duration": 7, "velocity": 62}, {"time": 3033, "pitch": 63, "duration": 4, "velocity": 64}, {"time": 3039, "pitch": 68, "duration": 3, "velocity": 73}, {"time": 3039, "pitch": 72, "duration": 2, "velocity": 40}, {"time": 3045, "pitch": 46, "duration": 14, "velocity": 73}, {"time": 3045, "pitch": 65, "duration": 10, "velocity": 59}, {"time": 3045, "pitch": 70, "duration": 10, "velocity": 61}, {"time": 3045, "pitch": 74, "duration": 9, "velocity": 75}, {"time": 3051, "pitch": 53, "duration": 10, "velocity": 63}, {"time": 3057, "pitch": 58, "duration": 10, "velocity": 64}, {"time": 3063, "pitch": 65, "duration": 3, "velocity": 45}, {"time": 3069, "pitch": 48, "duration": 10, "velocity": 72}, {"time": 3069, "pitch": 67, "duration": 7, "velocity": 64}, {"time": 3069, "pitch": 72, "duration": 24, "velocity": 73}, {"time": 3069, "pitch": 75, "duration": 23, "velocity": 73}, {"time": 3075, "pitch": 55, "duration": 5, "velocity": 70}, {"time": 3081, "pitch": 60, "duration": 7, "velocity": 56}, {"time": 3087, "pitch": 62, "duration": 8, "velocity": 55}, {"time": 3093, "pitch": 63, "duration": 3, "velocity": 80}, {"time": 3093, "pitch": 67, "duration": 8, "velocity": 61}, {"time": 3099, "pitch": 67, "duration": 2, "velocity": 76}, {"time": 3099, "pitch": 72, "duration": 8, "velocity": 73}, {"time": 3105, "pitch": 74, "duration": 5, "velocity": 73}, {"time": 3105, "pitch": 74, "duration": 5, "velocity": 70}, {"time": 3111, "pitch": 75, "duration": 6, "velocity": 76}, {"time": 3117, "pitch": 48, "duration": 11, "velocity": 58}, {"time": 3117, "pitch": 67, "duration": 8, "velocity": 72}, {"time": 3117, "pitch": 72, "duration": 8, "velocity": 63}, {"time": 3117, "pitch": 75, "duration": 1, "velocity": 76}, {"time": 3117, "pitch": 79, "duration": 17, "velocity": 73}, {"time": 3123, "pitch": 55, "duration": 6, "velocity": 62}, {"time": 3129, "pitch": 60, "duration": 7, "velocity": 63}, {"time": 3135, "pitch": 62, "duration": 15, "velocity": 55}, {"time": 3135, "pitch": 67, "duration": 3, "velocity": 64}, {"time": 3135, "pitch": 75, "duration": 3, "velocity": 73}, {"time": 3141, "pitch": 63, "duration": 8, "velocity": 63}, {"time": 3141, "pitch": 67, "duration": 3, "velocity": 64}, {"time": 3141, "pitch": 75, "duration": 7, "velocity": 75}, {"time": 3147, "pitch": 67, "duration": 3, "velocity": 62}, {"time": 3147, "pitch": 74, "duration": 3, "velocity": 67}, {"time": 3153, "pitch": 72, "duration": 5, "velocity": 76}, {"time": 3159, "pitch": 75, "duration": 8, "velocity": 76}, {"time": 3165, "pitch": 53, "duration": 38, "velocity": 75}, {"time": 3165, "pitch": 68, "duration": 12, "velocity": 67}, {"time": 3165, "pitch": 72, "duration": 12, "velocity": 70}, {"time": 3171, "pitch": 60, "duration": 18, "velocity": 55}, {"time": 3177, "pitch": 65, "duration": 23, "velocity": 72}, {"time": 3183, "pitch": 67, "duration": 7, "velocity": 67}, {"time": 3189, "pitch": 68, "duration": 2, "velocity": 75}, {"time": 3195, "pitch": 72, "duration": 7, "velocity": 41}, {"time": 3201, "pitch": 60, "duration": 3, "velocity": 64}, {"time": 3201, "pitch": 80, "duration": 3, "velocity": 72}, {"time": 3207, "pitch": 79, "duration": 6, "velocity": 57}, {"time": 3213, "pitch": 46, "duration": 32, "velocity": 72}, {"time": 3213, "pitch": 70, "duration": 7, "velocity": 60}, {"time": 3213, "pitch": 77, "duration": 6, "velocity": 69}, {"time": 3219, "pitch": 53, "duration": 26, "velocity": 69}, {"time": 3225, "pitch": 58, "duration": 7, "velocity": 50}, {"time": 3231, "pitch": 62, "duration": 8, "velocity": 69}, {"time": 3231, "pitch": 68, "duration": 10, "velocity": 59}, {"time": 3243, "pitch": 58, "duration": 4, "velocity": 57}, {"time": 3249, "pitch": 62, "duration": 8, "velocity": 75}, {"time": 3255, "pitch": 68, "duration": 5, "velocity": 64}, {"time": 3261, "pitch": 51, "duration": 33, "velocity": 73}, {"time": 3261, "pitch": 63, "duration": 7, "velocity": 75}, {"time": 3261, "pitch": 67, "duration": 9, "velocity": 69}, {"time": 3267, "pitch": 58, "duration": 26, "velocity": 62}, {"time": 3273, "pitch": 63, "duration": 15, "velocity": 60}, {"time": 3279, "pitch": 67, "duration": 7, "velocity": 69}, {"time": 3285, "pitch": 70, "duration": 4, "velocity": 61}, {"time": 3290, "pitch": 67, "duration": 5, "velocity": 61}, {"time": 3291, "pitch": 72, "duration": 5, "velocity": 59}, {"time": 3297, "pitch": 53, "duration": 3, "velocity": 60}, {"time": 3297, "pitch": 74, "duration": 5, "velocity": 57}, {"time": 3297, "pitch": 75, "duration": 10, "velocity": 67}, {"time": 3302, "pitch": 77, "duration": 6, "velocity": 72}, {"time": 3303, "pitch": 67, "duration": 4, "velocity": 59}, {"time": 3308, "pitch": 75, "duration": 23, "velocity": 59}, {"time": 3309, "pitch": 44, "duration": 11, "velocity": 72}, {"time": 3309, "pitch": 68, "duration": 10, "velocity": 58}, {"time": 3309, "pitch": 72, "duration": 13, "velocity": 75}, {"time": 3315, "pitch": 51, "duration": 5, "velocity": 67}, {"time": 3321, "pitch": 56, "duration": 7, "velocity": 55}, {"time": 3321, "pitch": 63, "duration": 4, "velocity": 53}, {"time": 3321, "pitch": 70, "duration": 5, "velocity": 66}, {"time": 3327, "pitch": 58, "duration": 15, "velocity": 64}, {"time": 3327, "pitch": 63, "duration": 7, "velocity": 49}, {"time": 3327, "pitch": 68, "duration": 7, "velocity": 59}, {"time": 3333, "pitch": 60, "duration": 8, "velocity": 64}, {"time": 3339, "pitch": 63, "duration": 4, "velocity": 59}, {"time": 3345, "pitch": 70, "duration": 5, "velocity": 75}, {"time": 3351, "pitch": 75, "duration": 7, "velocity": 67}, {"time": 3357, "pitch": 46, "duration": 10, "velocity": 72}, {"time": 3357, "pitch": 65, "duration": 8, "velocity": 59}, {"time": 3357, "pitch": 70, "duration": 10, "velocity": 55}, {"time": 3357, "pitch": 74, "duration": 12, "velocity": 56}, {"time": 3363, "pitch": 53, "duration": 5, "velocity": 62}, {"time": 3369, "pitch": 58, "duration": 7, "velocity": 54}, {"time": 3369, "pitch": 65, "duration": 3, "velocity": 51}, {"time": 3369, "pitch": 72, "duration": 3, "velocity": 63}, {"time": 3375, "pitch": 60, "duration": 20, "velocity": 58}, {"time": 3375, "pitch": 65, "duration": 4, "velocity": 64}, {"time": 3375, "pitch": 72, "duration": 4, "velocity": 70}, {"time": 3381, "pitch": 62, "duration": 13, "velocity": 63}, {"time": 3387, "pitch": 65, "duration": 3, "velocity": 62}, {"time": 3387, "pitch": 70, "duration": 3, "velocity": 76}, {"time": 3399, "pitch": 63, "duration": 1, "velocity": 46}, {"time": 3399, "pitch": 68, "duration": 4, "velocity": 59}, {"time": 3405, "pitch": 56, "duration": 13, "velocity": 69}, {"time": 3405, "pitch": 68, "duration": 8, "velocity": 69}, {"time": 3405, "pitch": 72, "duration": 8, "velocity": 63}, {"time": 3411, "pitch": 60, "duration": 6, "velocity": 66}, {"time": 3417, "pitch": 63, "duration": 4, "velocity": 70}, {"time": 3423, "pitch": 70, "duration": 18, "velocity": 61}, {"time": 3429, "pitch": 46, "duration": 16, "velocity": 67}, {"time": 3429, "pitch": 65, "duration": 12, "velocity": 60}, {"time": 3429, "pitch": 74, "duration": 11, "velocity": 75}, {"time": 3435, "pitch": 53, "duration": 10, "velocity": 60}, {"time": 3441, "pitch": 58, "duration": 11, "velocity": 61}, {"time": 3447, "pitch": 65, "duration": 5, "velocity": 57}, {"time": 3453, "pitch": 48, "duration": 10, "velocity": 70}, {"time": 3453, "pitch": 75, "duration": 5, "velocity": 73}, {"time": 3459, "pitch": 55, "duration": 6, "velocity": 64}, {"time": 3459, "pitch": 67, "duration": 4, "velocity": 56}, {"time": 3465, "pitch": 60, "duration": 7, "velocity": 44}, {"time": 3465, "pitch": 74, "duration": 5, "velocity": 80}, {"time": 3471, "pitch": 62, "duration": 7, "velocity": 66}, {"time": 3471, "pitch": 67, "duration": 7, "velocity": 60}, {"time": 3477, "pitch": 63, "duration": 7, "velocity": 62}, {"time": 3477, "pitch": 77, "duration": 8, "velocity": 75}, {"time": 3483, "pitch": 62, "duration": 8, "velocity": 60}, {"time": 3483, "pitch": 75, "duration": 5, "velocity": 70}, {"time": 3489, "pitch": 60, "duration": 4, "velocity": 66}, {"time": 3489, "pitch": 74, "duration": 5, "velocity": 66}, {"time": 3495, "pitch": 72, "duration": 6, "velocity": 59}, {"time": 3501, "pitch": 48, "duration": 8, "velocity": 70}, {"time": 3501, "pitch": 63, "duration": 8, "velocity": 70}, {"time": 3501, "pitch": 72, "duration": 1, "velocity": 78}, {"time": 3507, "pitch": 55, "duration": 4, "velocity": 60}, {"time": 3513, "pitch": 60, "duration": 7, "velocity": 66}, {"time": 3519, "pitch": 62, "duration": 10, "velocity": 66}, {"time": 3525, "pitch": 63, "duration": 12, "velocity": 78}, {"time": 3525, "pitch": 67, "duration": 7, "velocity": 69}, {"time": 3525, "pitch": 75, "duration": 7, "velocity": 76}, {"time": 3531, "pitch": 74, "duration": 5, "velocity": 73}, {"time": 3537, "pitch": 62, "duration": 2, "velocity": 63}, {"time": 3537, "pitch": 72, "duration": 6, "velocity": 58}, {"time": 3543, "pitch": 74, "duration": 4, "velocity": 70}, {"time": 3549, "pitch": 53, "duration": 35, "velocity": 66}, {"time": 3549, "pitch": 68, "duration": 13, "velocity": 76}, {"time": 3549, "pitch": 75, "duration": 20, "velocity": 70}, {"time": 3555, "pitch": 60, "duration": 29, "velocity": 64}, {"time": 3561, "pitch": 65, "duration": 21, "velocity": 66}, {"time": 3567, "pitch": 67, "duration": 7, "velocity": 58}, {"time": 3573, "pitch": 68, "duration": 2, "velocity": 78}, {"time": 3579, "pitch": 72, "duration": 5, "velocity": 75}, {"time": 3585, "pitch": 80, "duration": 4, "velocity": 61}, {"time": 3591, "pitch": 79, "duration": 6, "velocity": 72}, {"time": 3597, "pitch": 46, "duration": 9, "velocity": 70}, {"time": 3597, "pitch": 77, "duration": 19, "velocity": 72}, {"time": 3603, "pitch": 53, "duration": 6, "velocity": 63}, {"time": 3609, "pitch": 58, "duration": 7, "velocity": 50}, {"time": 3615, "pitch": 60, "duration": 15, "velocity": 57}, {"time": 3621, "pitch": 62, "duration": 8, "velocity": 61}, {"time": 3627, "pitch": 65, "duration": 7, "velocity": 67}, {"time": 3633, "pitch": 68, "duration": 7, "velocity": 73}, {"time": 3639, "pitch": 70, "duration": 5, "velocity": 64}, {"time": 3645, "pitch": 51, "duration": 21, "velocity": 73}, {"time": 3645, "pitch": 67, "duration": 13, "velocity": 69}, {"time": 3645, "pitch": 72, "duration": 13, "velocity": 73}, {"time": 3651, "pitch": 58, "duration": 21, "velocity": 58}, {"time": 3657, "pitch": 63, "duration": 6, "velocity": 49}, {"time": 3663, "pitch": 65, "duration": 4, "velocity": 67}, {"time": 3663, "pitch": 70, "duration": 8, "velocity": 72}, {"time": 3675, "pitch": 50, "duration": 8, "velocity": 70}, {"time": 3675, "pitch": 65, "duration": 5, "velocity": 70}, {"time": 3675, "pitch": 70, "duration": 3, "velocity": 78}, {"time": 3681, "pitch": 58, "duration": 3, "velocity": 70}, {"time": 3687, "pitch": 65, "duration": 5, "velocity": 64}, {"time": 3693, "pitch": 44, "duration": 43, "velocity": 72}, {"time": 3693, "pitch": 60, "duration": 10, "velocity": 62}, {"time": 3693, "pitch": 63, "duration": 9, "velocity": 67}, {"time": 3693, "pitch": 68, "duration": 9, "velocity": 73}, {"time": 3699, "pitch": 51, "duration": 40, "velocity": 59}, {"time": 3705, "pitch": 56, "duration": 13, "velocity": 60}, {"time": 3711, "pitch": 60, "duration": 4, "velocity": 59}, {"time": 3717, "pitch": 60, "duration": 7, "velocity": 61}, {"time": 3717, "pitch": 63, "duration": 7, "velocity": 75}, {"time": 3717, "pitch": 68, "duration": 7, "velocity": 69}, {"time": 3723, "pitch": 56, "duration": 7, "velocity": 49}, {"time": 3729, "pitch": 60, "duration": 6, "velocity": 59}, {"time": 3729, "pitch": 63, "duration": 2, "velocity": 46}, {"time": 3729, "pitch": 68, "duration": 7, "velocity": 60}, {"time": 3735, "pitch": 56, "duration": 2, "velocity": 52}, {"time": 3741, "pitch": 46, "duration": 37, "velocity": 64}, {"time": 3741, "pitch": 62, "duration": 12, "velocity": 64}, {"time": 3741, "pitch": 65, "duration": 11, "velocity": 66}, {"time": 3741, "pitch": 70, "duration": 11, "velocity": 72}, {"time": 3747, "pitch": 53, "duration": 32, "velocity": 67}, {"time": 3753, "pitch": 58, "duration": 13, "velocity": 67}, {"time": 3759, "pitch": 60, "duration": 4, "velocity": 58}, {"time": 3765, "pitch": 63, "duration": 8, "velocity": 75}, {"time": 3765, "pitch": 67, "duration": 8, "velocity": 76}, {"time": 3771, "pitch": 58, "duration": 7, "velocity": 57}, {"time": 3777, "pitch": 65, "duration": 5, "velocity": 72}, {"time": 3789, "pitch": 48, "duration": 37, "velocity": 62}, {"time": 3789, "pitch": 55, "duration": 14, "velocity": 69}, {"time": 3789, "pitch": 60, "duration": 13, "velocity": 63}, {"time": 3789, "pitch": 63, "duration": 13, "velocity": 69}, {"time": 3789, "pitch": 67, "duration": 10, "velocity": 64}, {"time": 3807, "pitch": 55, "duration": 26, "velocity": 48}, {"time": 3813, "pitch": 62, "duration": 7, "velocity": 70}, {"time": 3813, "pitch": 65, "duration": 7, "velocity": 72}, {"time": 3819, "pitch": 60, "duration": 8, "velocity": 45}, {"time": 3825, "pitch": 62, "duration": 3, "velocity": 59}, {"time": 3831, "pitch": 63, "duration": 2, "velocity": 76}, {"time": 3831, "pitch": 67, "duration": 4, "velocity": 75}, {"time": 3837, "pitch": 48, "duration": 9, "velocity": 59}, {"time": 3843, "pitch": 55, "duration": 5, "velocity": 63}, {"time": 3843, "pitch": 67, "duration": 2, "velocity": 61}, {"time": 3843, "pitch": 75, "duration": 2, "velocity": 72}, {"time": 3849, "pitch": 60, "duration": 7, "velocity": 48}, {"time": 3849, "pitch": 67, "duration": 2, "velocity": 61}, {"time": 3849, "pitch": 75, "duration": 3, "velocity": 75}, {"time": 3855, "pitch": 62, "duration": 9, "velocity": 64}, {"time": 3855, "pitch": 65, "duration": 2, "velocity": 66}, {"time": 3855, "pitch": 74, "duration": 2, "velocity": 51}, {"time": 3861, "pitch": 63, "duration": 2, "velocity": 63}, {"time": 3861, "pitch": 65, "duration": 2, "velocity": 57}, {"time": 3861, "pitch": 74, "duration": 2, "velocity": 64}, {"time": 3867, "pitch": 63, "duration": 2, "velocity": 66}, {"time": 3867, "pitch": 70, "duration": 2, "velocity": 54}, {"time": 3873, "pitch": 63, "duration": 2, "velocity": 61}, {"time": 3873, "pitch": 70, "duration": 3, "velocity": 69}, {"time": 3879, "pitch": 70, "duration": 3, "velocity": 59}, {"time": 3885, "pitch": 56, "duration": 37, "velocity": 75}, {"time": 3885, "pitch": 75, "duration": 7, "velocity": 66}, {"time": 3891, "pitch": 63, "duration": 13, "velocity": 57}, {"time": 3891, "pitch": 67, "duration": 3, "velocity": 58}, {"time": 3897, "pitch": 72, "duration": 6, "velocity": 70}, {"time": 3903, "pitch": 68, "duration": 7, "velocity": 58}, {"time": 3909, "pitch": 63, "duration": 8, "velocity": 70}, {"time": 3909, "pitch": 75, "duration": 7, "velocity": 75}, {"time": 3915, "pitch": 68, "duration": 10, "velocity": 56}, {"time": 3921, "pitch": 63, "duration": 2, "velocity": 70}, {"time": 3921, "pitch": 72, "duration": 5, "velocity": 58}, {"time": 3927, "pitch": 75, "duration": 3, "velocity": 59}, {"time": 3933, "pitch": 46, "duration": 9, "velocity": 75}, {"time": 3933, "pitch": 77, "duration": 10, "velocity": 70}, {"time": 3939, "pitch": 53, "duration": 5, "velocity": 62}, {"time": 3939, "pitch": 65, "duration": 7, "velocity": 48}, {"time": 3945, "pitch": 58, "duration": 7, "velocity": 54}, {"time": 3945, "pitch": 70, "duration": 5, "velocity": 67}, {"time": 3951, "pitch": 60, "duration": 8, "velocity": 54}, {"time": 3951, "pitch": 65, "duration": 8, "velocity": 57}, {"time": 3957, "pitch": 62, "duration": 13, "velocity": 62}, {"time": 3957, "pitch": 77, "duration": 8, "velocity": 72}, {"time": 3963, "pitch": 65, "duration": 4, "velocity": 51}, {"time": 3969, "pitch": 60, "duration": 10, "velocity": 50}, {"time": 3969, "pitch": 72, "duration": 5, "velocity": 66}, {"time": 3975, "pitch": 74, "duration": 5, "velocity": 57}, {"time": 3981, "pitch": 55, "duration": 34, "velocity": 69}, {"time": 3981, "pitch": 70, "duration": 11, "velocity": 72}, {"time": 3987, "pitch": 62, "duration": 12, "velocity": 64}, {"time": 3993, "pitch": 67, "duration": 14, "velocity": 62}, {"time": 3999, "pitch": 70, "duration": 8, "velocity": 70}, {"time": 4005, "pitch": 77, "duration": 7, "velocity": 72}, {"time": 4011, "pitch": 62, "duration": 5, "velocity": 60}, {"time": 4011, "pitch": 70, "duration": 7, "velocity": 55}, {"time": 4017, "pitch": 72, "duration": 5, "velocity": 63}, {"time": 4023, "pitch": 74, "duration": 6, "velocity": 63}, {"time": 4029, "pitch": 48, "duration": 37, "velocity": 69}, {"time": 4029, "pitch": 67, "duration": 8, "velocity": 70}, {"time": 4029, "pitch": 75, "duration": 10, "velocity": 72}, {"time": 4035, "pitch": 55, "duration": 27, "velocity": 58}, {"time": 4041, "pitch": 60, "duration": 5, "velocity": 64}, {"time": 4041, "pitch": 67, "duration": 2, "velocity": 63}, {"time": 4041, "pitch": 74, "duration": 4, "velocity": 70}, {"time": 4047, "pitch": 65, "duration": 7, "velocity": 73}, {"time": 4047, "pitch": 72, "duration": 6, "velocity": 67}, {"time": 4053, "pitch": 60, "duration": 7, "velocity": 56}, {"time": 4059, "pitch": 63, "duration": 7, "velocity": 76}, {"time": 4059, "pitch": 70, "duration": 8, "velocity": 82}, {"time": 4065, "pitch": 55, "duration": 1, "velocity": 47}, {"time": 4065, "pitch": 60, "duration": 3, "velocity": 78}, {"time": 4071, "pitch": 63, "duration": 3, "velocity": 38}, {"time": 4077, "pitch": 53, "duration": 36, "velocity": 69}, {"time": 4077, "pitch": 69, "duration": 12, "velocity": 69}, {"time": 4077, "pitch": 72, "duration": 10, "velocity": 72}, {"time": 4077, "pitch": 77, "duration": 11, "velocity": 73}, {"time": 4083, "pitch": 60, "duration": 15, "velocity": 59}, {"time": 4089, "pitch": 65, "duration": 14, "velocity": 66}, {"time": 4095, "pitch": 67, "duration": 8, "velocity": 69}, {"time": 4101, "pitch": 69, "duration": 9, "velocity": 93}, {"time": 4107, "pitch": 60, "duration": 5, "velocity": 64}, {"time": 4113, "pitch": 72, "duration": 5, "velocity": 53}, {"time": 4125, "pitch": 46, "duration": 38, "velocity": 66}, {"time": 4125, "pitch": 70, "duration": 8, "velocity": 76}, {"time": 4125, "pitch": 77, "duration": 6, "velocity": 69}, {"time": 4131, "pitch": 53, "duration": 14, "velocity": 58}, {"time": 4137, "pitch": 58, "duration": 18, "velocity": 73}, {"time": 4143, "pitch": 60, "duration": 5, "velocity": 67}, {"time": 4143, "pitch": 65, "duration": 4, "velocity": 69}, {"time": 4149, "pitch": 53, "duration": 4, "velocity": 55}, {"time": 4155, "pitch": 63, "duration": 8, "velocity": 76}, {"time": 4155, "pitch": 67, "duration": 7, "velocity": 76}, {"time": 4161, "pitch": 53, "duration": 2, "velocity": 75}, {"time": 4167, "pitch": 65, "duration": 3, "velocity": 61}, {"time": 4173, "pitch": 63, "duration": 11, "velocity": 66}, {"time": 4173, "pitch": 68, "duration": 12, "velocity": 59}, {"time": 4173, "pitch": 72, "duration": 12, "velocity": 75}, {"time": 4176, "pitch": 56, "duration": 33, "velocity": 54}, {"time": 4185, "pitch": 60, "duration": 25, "velocity": 69}, {"time": 4191, "pitch": 63, "duration": 4, "velocity": 73}, {"time": 4197, "pitch": 68, "duration": 7, "velocity": 73}, {"time": 4203, "pitch": 72, "duration": 6, "velocity": 66}, {"time": 4209, "pitch": 75, "duration": 7, "velocity": 75}, {"time": 4215, "pitch": 74, "duration": 5, "velocity": 91}, {"time": 4221, "pitch": 43, "duration": 43, "velocity": 82}, {"time": 4221, "pitch": 60, "duration": 7, "velocity": 78}, {"time": 4221, "pitch": 62, "duration": 8, "velocity": 93}, {"time": 4221, "pitch": 67, "duration": 7, "velocity": 69}, {"time": 4227, "pitch": 55, "duration": 39, "velocity": 80}, {"time": 4233, "pitch": 60, "duration": 5, "velocity": 82}, {"time": 4239, "pitch": 62, "duration": 2, "velocity": 73}, {"time": 4245, "pitch": 67, "duration": 4, "velocity": 97}, {"time": 4251, "pitch": 72, "duration": 6, "velocity": 64}, {"time": 4257, "pitch": 74, "duration": 1, "velocity": 80}, {"time": 4263, "pitch": 79, "duration": 6, "velocity": 58}, {"time": 4269, "pitch": 56, "duration": 20, "velocity": 58}, {"time": 4269, "pitch": 60, "duration": 20, "velocity": 64}, {"time": 4269, "pitch": 63, "duration": 20, "velocity": 70}, {"time": 4269, "pitch": 67, "duration": 20, "velocity": 67}, {"time": 4269, "pitch": 79, "duration": 1, "velocity": 66}, {"time": 4275, "pitch": 72, "duration": 5, "velocity": 59}, {"time": 4281, "pitch": 75, "duration": 6, "velocity": 78}, {"time": 4287, "pitch": 72, "duration": 4, "velocity": 66}, {"time": 4293, "pitch": 56, "duration": 14, "velocity": 60}, {"time": 4293, "pitch": 60, "duration": 14, "velocity": 66}, {"time": 4293, "pitch": 63, "duration": 14, "velocity": 72}, {"time": 4293, "pitch": 67, "duration": 14, "velocity": 64}, {"time": 4293, "pitch": 79, "duration": 5, "velocity": 75}, {"time": 4299, "pitch": 72, "duration": 4, "velocity": 53}, {"time": 4305, "pitch": 75, "duration": 4, "velocity": 61}, {"time": 4311, "pitch": 79, "duration": 5, "velocity": 50}, {"time": 4317, "pitch": 58, "duration": 21, "velocity": 72}, {"time": 4317, "pitch": 62, "duration": 21, "velocity": 66}, {"time": 4317, "pitch": 65, "duration": 21, "velocity": 70}, {"time": 4317, "pitch": 77, "duration": 5, "velocity": 66}, {"time": 4323, "pitch": 70, "duration": 7, "velocity": 58}, {"time": 4335, "pitch": 77, "duration": 8, "velocity": 66}, {"time": 4341, "pitch": 58, "duration": 7, "velocity": 70}, {"time": 4341, "pitch": 62, "duration": 6, "velocity": 69}, {"time": 4341, "pitch": 65, "duration": 6, "velocity": 70}, {"time": 4347, "pitch": 70, "duration": 4, "velocity": 58}, {"time": 4353, "pitch": 74, "duration": 3, "velocity": 60}, {"time": 4359, "pitch": 77, "duration": 4, "velocity": 60}, {"time": 4365, "pitch": 55, "duration": 37, "velocity": 73}, {"time": 4365, "pitch": 62, "duration": 11, "velocity": 76}, {"time": 4365, "pitch": 65, "duration": 17, "velocity": 67}, {"time": 4365, "pitch": 70, "duration": 17, "velocity": 70}, {"time": 4365, "pitch": 74, "duration": 12, "velocity": 70}, {"time": 4383, "pitch": 62, "duration": 7, "velocity": 61}, {"time": 4389, "pitch": 65, "duration": 7, "velocity": 76}, {"time": 4389, "pitch": 70, "duration": 8, "velocity": 85}, {"time": 4395, "pitch": 62, "duration": 6, "velocity": 72}, {"time": 4401, "pitch": 72, "duration": 5, "velocity": 75}, {"time": 4407, "pitch": 74, "duration": 5, "velocity": 69}, {"time": 4413, "pitch": 48, "duration": 3, "velocity": 70}, {"time": 4413, "pitch": 60, "duration": 3, "velocity": 80}, {"time": 4413, "pitch": 63, "duration": 3, "velocity": 78}, {"time": 4413, "pitch": 67, "duration": 3, "velocity": 76}, {"time": 4413, "pitch": 72, "duration": 4, "velocity": 75}, {"time": 4419, "pitch": 48, "duration": 33, "velocity": 76}, {"time": 4419, "pitch": 60, "duration": 10, "velocity": 85}, {"time": 4419, "pitch": 63, "duration": 13, "velocity": 73}, {"time": 4419, "pitch": 67, "duration": 13, "velocity": 72}, {"time": 4419, "pitch": 72, "duration": 13, "velocity": 72}, {"time": 4431, "pitch": 55, "duration": 13, "velocity": 75}, {"time": 4437, "pitch": 63, "duration": 5, "velocity": 78}, {"time": 4437, "pitch": 70, "duration": 8, "velocity": 78}, {"time": 4443, "pitch": 60, "duration": 7, "velocity": 62}, {"time": 4449, "pitch": 63, "duration": 2, "velocity": 78}, {"time": 4449, "pitch": 72, "duration": 3, "velocity": 80}, {"time": 4452, "pitch": 55, "duration": 1, "velocity": 66}, {"time": 4461, "pitch": 44, "duration": 40, "velocity": 76}, {"time": 4461, "pitch": 56, "duration": 9, "velocity": 91}, {"time": 4461, "pitch": 63, "duration": 15, "velocity": 80}, {"time": 4461, "pitch": 68, "duration": 13, "velocity": 80}, {"time": 4461, "pitch": 72, "duration": 16, "velocity": 78}, {"time": 4479, "pitch": 56, "duration": 7, "velocity": 44}, {"time": 4485, "pitch": 63, "duration": 7, "velocity": 66}, {"time": 4485, "pitch": 68, "duration": 8, "velocity": 72}, {"time": 4485, "pitch": 72, "duration": 7, "velocity": 73}, {"time": 4491, "pitch": 56, "duration": 10, "velocity": 57}, {"time": 4497, "pitch": 63, "duration": 5, "velocity": 73}, {"time": 4497, "pitch": 68, "duration": 1, "velocity": 40}, {"time": 4497, "pitch": 72, "duration": 7, "velocity": 72}, {"time": 4503, "pitch": 70, "duration": 4, "velocity": 73}, {"time": 4509, "pitch": 46, "duration": 38, "velocity": 66}, {"time": 4509, "pitch": 53, "duration": 37, "velocity": 70}, {"time": 4509, "pitch": 58, "duration": 7, "velocity": 76}, {"time": 4509, "pitch": 65, "duration": 9, "velocity": 75}, {"time": 4509, "pitch": 70, "duration": 6, "velocity": 63}, {"time": 4509, "pitch": 74, "duration": 5, "velocity": 73}, {"time": 4521, "pitch": 58, "duration": 8, "velocity": 63}, {"time": 4527, "pitch": 65, "duration": 12, "velocity": 82}, {"time": 4527, "pitch": 70, "duration": 12, "velocity": 93}, {"time": 4527, "pitch": 77, "duration": 12, "velocity": 76}, {"time": 4539, "pitch": 58, "duration": 5, "velocity": 64}, {"time": 4545, "pitch": 65, "duration": 1, "velocity": 56}, {"time": 4545, "pitch": 72, "duration": 2, "velocity": 72}, {"time": 4557, "pitch": 48, "duration": 76, "velocity": 78}, {"time": 4557, "pitch": 63, "duration": 9, "velocity": 66}, {"time": 4557, "pitch": 67, "duration": 9, "velocity": 72}, {"time": 4557, "pitch": 72, "duration": 9, "velocity": 69}, {"time": 4563, "pitch": 55, "duration": 70, "velocity": 60}, {"time": 4569, "pitch": 60, "duration": 51, "velocity": 67}, {"time": 4575, "pitch": 62, "duration": 4, "velocity": 63}, {"time": 4581, "pitch": 63, "duration": 6, "velocity": 59}, {"time": 4587, "pitch": 65, "duration": 2, "velocity": 64}, {"time": 4593, "pitch": 67, "duration": 5, "velocity": 61}, {"time": 4599, "pitch": 75, "duration": 5, "velocity": 59}, {"time": 4605, "pitch": 74, "duration": 8, "velocity": 55}, {"time": 4617, "pitch": 72, "duration": 9, "velocity": 51}, {"time": 4629, "pitch": 60, "duration": 7, "velocity": 45}, {"time": 4629, "pitch": 67, "duration": 3, "velocity": 49}, {"time": 4635, "pitch": 72, "duration": 4, "velocity": 70}, {"time": 4641, "pitch": 74, "duration": 5, "velocity": 48}, {"time": 4647, "pitch": 75, "duration": 3, "velocity": 62}, {"time": 4653, "pitch": 60, "duration": 31, "velocity": 62}, {"time": 4653, "pitch": 67, "duration": 14, "velocity": 63}, {"time": 4653, "pitch": 75, "duration": 11, "velocity": 73}, {"time": 4677, "pitch": 67, "duration": 12, "velocity": 64}, {"time": 4677, "pitch": 72, "duration": 11, "velocity": 63}, {"time": 4677, "pitch": 75, "duration": 11, "velocity": 64}, {"time": 4689, "pitch": 60, "duration": 4, "velocity": 55}, {"time": 4701, "pitch": 53, "duration": 38, "velocity": 58}, {"time": 4701, "pitch": 60, "duration": 28, "velocity": 66}, {"time": 4701, "pitch": 65, "duration": 9, "velocity": 62}, {"time": 4701, "pitch": 68, "duration": 14, "velocity": 60}, {"time": 4701, "pitch": 72, "duration": 11, "velocity": 57}, {"time": 4707, "pitch": 75, "duration": 7, "velocity": 1}, {"time": 4713, "pitch": 65, "duration": 22, "velocity": 51}, {"time": 4719, "pitch": 67, "duration": 7, "velocity": 69}, {"time": 4725, "pitch": 68, "duration": 6, "velocity": 59}, {"time": 4731, "pitch": 72, "duration": 4, "velocity": 64}, {"time": 4737, "pitch": 75, "duration": 2, "velocity": 69}, {"time": 4743, "pitch": 79, "duration": 4, "velocity": 69}, {"time": 4749, "pitch": 46, "duration": 8, "velocity": 66}, {"time": 4749, "pitch": 77, "duration": 17, "velocity": 69}, {"time": 4755, "pitch": 53, "duration": 6, "velocity": 49}, {"time": 4761, "pitch": 58, "duration": 7, "velocity": 49}, {"time": 4767, "pitch": 60, "duration": 11, "velocity": 57}, {"time": 4773, "pitch": 62, "duration": 5, "velocity": 63}, {"time": 4779, "pitch": 65, "duration": 3, "velocity": 59}, {"time": 4785, "pitch": 70, "duration": 5, "velocity": 64}, {"time": 4791, "pitch": 75, "duration": 3, "velocity": 54}, {"time": 4797, "pitch": 51, "duration": 37, "velocity": 76}, {"time": 4797, "pitch": 67, "duration": 13, "velocity": 61}, {"time": 4797, "pitch": 70, "duration": 11, "velocity": 66}, {"time": 4797, "pitch": 75, "duration": 13, "velocity": 66}, {"time": 4803, "pitch": 58, "duration": 24, "velocity": 57}, {"time": 4809, "pitch": 63, "duration": 19, "velocity": 57}, {"time": 4815, "pitch": 67, "duration": 8, "velocity": 72}, {"time": 4827, "pitch": 67, "duration": 4, "velocity": 70}, {"time": 4827, "pitch": 74, "duration": 3, "velocity": 73}, {"time": 4833, "pitch": 58, "duration": 2, "velocity": 62}, {"time": 4839, "pitch": 70, "duration": 5, "velocity": 59}, {"time": 4845, "pitch": 44, "duration": 31, "velocity": 70}, {"time": 4845, "pitch": 63, "duration": 13, "velocity": 66}, {"time": 4845, "pitch": 68, "duration": 12, "velocity": 70}, {"time": 4845, "pitch": 72, "duration": 10, "velocity": 72}, {"time": 4857, "pitch": 56, "duration": 13, "velocity": 44}, {"time": 4869, "pitch": 63, "duration": 7, "velocity": 63}, {"time": 4869, "pitch": 68, "duration": 7, "velocity": 70}, {"time": 4869, "pitch": 72, "duration": 9, "velocity": 69}, {"time": 4881, "pitch": 43, "duration": 2, "velocity": 70}, {"time": 4881, "pitch": 55, "duration": 3, "velocity": 62}, {"time": 4881, "pitch": 63, "duration": 2, "velocity": 59}, {"time": 4881, "pitch": 70, "duration": 3, "velocity": 62}, {"time": 4893, "pitch": 46, "duration": 36, "velocity": 63}, {"time": 4893, "pitch": 58, "duration": 25, "velocity": 64}, {"time": 4893, "pitch": 62, "duration": 15, "velocity": 69}, {"time": 4893, "pitch": 65, "duration": 14, "velocity": 70}, {"time": 4893, "pitch": 70, "duration": 14, "velocity": 61}, {"time": 4917, "pitch": 62, "duration": 7, "velocity": 67}, {"time": 4917, "pitch": 65, "duration": 7, "velocity": 70}, {"time": 4917, "pitch": 70, "duration": 6, "velocity": 63}, {"time": 4923, "pitch": 58, "duration": 8, "velocity": 52}, {"time": 4929, "pitch": 63, "duration": 2, "velocity": 69}, {"time": 4929, "pitch": 68, "duration": 3, "velocity": 76}, {"time": 4941, "pitch": 44, "duration": 14, "velocity": 54}, {"time": 4941, "pitch": 56, "duration": 14, "velocity": 62}, {"time": 4941, "pitch": 63, "duration": 7, "velocity": 64}, {"time": 4941, "pitch": 68, "duration": 7, "velocity": 69}, {"time": 4941, "pitch": 72, "duration": 6, "velocity": 66}, {"time": 4953, "pitch": 63, "duration": 6, "velocity": 62}, {"time": 4959, "pitch": 70, "duration": 4, "velocity": 72}, {"time": 4965, "pitch": 46, "duration": 12, "velocity": 66}, {"time": 4965, "pitch": 58, "duration": 5, "velocity": 57}, {"time": 4965, "pitch": 65, "duration": 9, "velocity": 66}, {"time": 4965, "pitch": 70, "duration": 8, "velocity": 67}, {"time": 4965, "pitch": 74, "duration": 8, "velocity": 67}, {"time": 4971, "pitch": 58, "duration": 8, "velocity": 58}, {"time": 4977, "pitch": 65, "duration": 7, "velocity": 69}, {"time": 4983, "pitch": 70, "duration": 5, "velocity": 63}, {"time": 4989, "pitch": 48, "duration": 37, "velocity": 70}, {"time": 4989, "pitch": 67, "duration": 8, "velocity": 66}, {"time": 4989, "pitch": 75, "duration": 10, "velocity": 76}, {"time": 4995, "pitch": 55, "duration": 25, "velocity": 53}, {"time": 5001, "pitch": 67, "duration": 2, "velocity": 64}, {"time": 5001, "pitch": 74, "duration": 5, "velocity": 75}, {"time": 5007, "pitch": 67, "duration": 8, "velocity": 67}, {"time": 5007, "pitch": 72, "duration": 8, "velocity": 75}, {"time": 5013, "pitch": 60, "duration": 10, "velocity": 60}, {"time": 5019, "pitch": 72, "duration": 7, "velocity": 78}, {"time": 5025, "pitch": 55, "duration": 3, "velocity": 69}, {"time": 5025, "pitch": 74, "duration": 7, "velocity": 72}, {"time": 5031, "pitch": 75, "duration": 3, "velocity": 70}, {"time": 5037, "pitch": 60, "duration": 31, "velocity": 62}, {"time": 5037, "pitch": 67, "duration": 14, "velocity": 63}, {"time": 5037, "pitch": 75, "duration": 11, "velocity": 73}, {"time": 5061, "pitch": 67, "duration": 12, "velocity": 64}, {"time": 5061, "pitch": 72, "duration": 11, "velocity": 63}, {"time": 5061, "pitch": 75, "duration": 11, "velocity": 64}, {"time": 5073, "pitch": 60, "duration": 4, "velocity": 55}, {"time": 5085, "pitch": 53, "duration": 38, "velocity": 58}, {"time": 5085, "pitch": 60, "duration": 28, "velocity": 66}, {"time": 5085, "pitch": 65, "duration": 9, "velocity": 62}, {"time": 5085, "pitch": 68, "duration": 14, "velocity": 60}, {"time": 5085, "pitch": 72, "duration": 11, "velocity": 57}, {"time": 5091, "pitch": 75, "duration": 7, "velocity": 1}, {"time": 5097, "pitch": 65, "duration": 22, "velocity": 51}, {"time": 5103, "pitch": 67, "duration": 7, "velocity": 69}, {"time": 5109, "pitch": 68, "duration": 6, "velocity": 59}, {"time": 5115, "pitch": 72, "duration": 4, "velocity": 64}, {"time": 5121, "pitch": 75, "duration": 2, "velocity": 69}, {"time": 5127, "pitch": 79, "duration": 4, "velocity": 69}, {"time": 5133, "pitch": 46, "duration": 8, "velocity": 66}, {"time": 5133, "pitch": 77, "duration": 17, "velocity": 69}, {"time": 5139, "pitch": 53, "duration": 6, "velocity": 49}, {"time": 5145, "pitch": 58, "duration": 7, "velocity": 49}, {"time": 5151, "pitch": 60, "duration": 11, "velocity": 57}, {"time": 5157, "pitch": 62, "duration": 5, "velocity": 63}, {"time": 5163, "pitch": 65, "duration": 3, "velocity": 59}, {"time": 5169, "pitch": 70, "duration": 5, "velocity": 64}, {"time": 5175, "pitch": 75, "duration": 3, "velocity": 54}, {"time": 5181, "pitch": 51, "duration": 37, "velocity": 76}, {"time": 5181, "pitch": 67, "duration": 13, "velocity": 61}, {"time": 5181, "pitch": 70, "duration": 11, "velocity": 66}, {"time": 5181, "pitch": 75, "duration": 13, "velocity": 66}, {"time": 5187, "pitch": 58, "duration": 24, "velocity": 57}, {"time": 5193, "pitch": 63, "duration": 19, "velocity": 57}, {"time": 5199, "pitch": 67, "duration": 8, "velocity": 72}, {"time": 5211, "pitch": 67, "duration": 4, "velocity": 70}, {"time": 5211, "pitch": 74, "duration": 3, "velocity": 73}, {"time": 5217, "pitch": 58, "duration": 2, "velocity": 62}, {"time": 5223, "pitch": 70, "duration": 5, "velocity": 59}, {"time": 5229, "pitch": 44, "duration": 31, "velocity": 70}, {"time": 5229, "pitch": 63, "duration": 13, "velocity": 66}, {"time": 5229, "pitch": 68, "duration": 12, "velocity": 70}, {"time": 5229, "pitch": 72, "duration": 10, "velocity": 72}, {"time": 5241, "pitch": 56, "duration": 13, "velocity": 44}, {"time": 5253, "pitch": 63, "duration": 7, "velocity": 63}, {"time": 5253, "pitch": 68, "duration": 7, "velocity": 70}, {"time": 5253, "pitch": 72, "duration": 9, "velocity": 69}, {"time": 5265, "pitch": 43, "duration": 2, "velocity": 70}, {"time": 5265, "pitch": 55, "duration": 3, "velocity": 62}, {"time": 5265, "pitch": 63, "duration": 2, "velocity": 59}, {"time": 5265, "pitch": 70, "duration": 3, "velocity": 62}, {"time": 5277, "pitch": 46, "duration": 36, "velocity": 63}, {"time": 5277, "pitch": 58, "duration": 25, "velocity": 64}, {"time": 5277, "pitch": 62, "duration": 15, "velocity": 69}, {"time": 5277, "pitch": 65, "duration": 14, "velocity": 70}, {"time": 5277, "pitch": 70, "duration": 14, "velocity": 61}, {"time": 5301, "pitch": 62, "duration": 7, "velocity": 67}, {"time": 5301, "pitch": 65, "duration": 7, "velocity": 70}, {"time": 5301, "pitch": 70, "duration": 6, "velocity": 63}, {"time": 5307, "pitch": 58, "duration": 8, "velocity": 52}, {"time": 5313, "pitch": 63, "duration": 2, "velocity": 69}, {"time": 5313, "pitch": 68, "duration": 3, "velocity": 76}, {"time": 5325, "pitch": 48, "duration": 83, "velocity": 73}, {"time": 5325, "pitch": 63, "duration": 12, "velocity": 62}, {"time": 5325, "pitch": 67, "duration": 12, "velocity": 64}, {"time": 5325, "pitch": 72, "duration": 14, "velocity": 59}, {"time": 5331, "pitch": 55, "duration": 74, "velocity": 58}, {"time": 5337, "pitch": 60, "duration": 68, "velocity": 57}, {"time": 5343, "pitch": 62, "duration": 6, "velocity": 58}, {"time": 5349, "pitch": 63, "duration": 2, "velocity": 67}, {"time": 5355, "pitch": 67, "duration": 4, "velocity": 63}, {"time": 5361, "pitch": 72, "duration": 5, "velocity": 59}, {"time": 5367, "pitch": 74, "duration": 7, "velocity": 59}, {"time": 5373, "pitch": 75, "duration": 1, "velocity": 63}, {"time": 5421, "pitch": 44, "duration": 5, "velocity": 73}, {"time": 5427, "pitch": 56, "duration": 7, "velocity": 57}, {"time": 5433, "pitch": 58, "duration": 10, "velocity": 61}, {"time": 5439, "pitch": 60, "duration": 5, "velocity": 60}, {"time": 5445, "pitch": 63, "duration": 6, "velocity": 67}, {"time": 5451, "pitch": 68, "duration": 6, "velocity": 73}, {"time": 5457, "pitch": 72, "duration": 5, "velocity": 60}, {"time": 5463, "pitch": 75, "duration": 7, "velocity": 53}, {"time": 5469, "pitch": 46, "duration": 11, "velocity": 58}, {"time": 5469, "pitch": 70, "duration": 22, "velocity": 63}, {"time": 5469, "pitch": 74, "duration": 23, "velocity": 59}, {"time": 5475, "pitch": 53, "duration": 5, "velocity": 51}, {"time": 5481, "pitch": 58, "duration": 7, "velocity": 45}, {"time": 5487, "pitch": 60, "duration": 7, "velocity": 54}, {"time": 5493, "pitch": 62, "duration": 2, "velocity": 64}, {"time": 5505, "pitch": 70, "duration": 5, "velocity": 59}, {"time": 5511, "pitch": 74, "duration": 5, "velocity": 62}, {"time": 5517, "pitch": 48, "duration": 9, "velocity": 61}, {"time": 5517, "pitch": 67, "duration": 14, "velocity": 59}, {"time": 5517, "pitch": 75, "duration": 17, "velocity": 70}, {"time": 5523, "pitch": 55, "duration": 5, "velocity": 49}, {"time": 5529, "pitch": 60, "duration": 7, "velocity": 43}, {"time": 5535, "pitch": 62, "duration": 60, "velocity": 51}, {"time": 5535, "pitch": 67, "duration": 10, "velocity": 52}, {"time": 5535, "pitch": 74, "duration": 10, "velocity": 63}, {"time": 5547, "pitch": 63, "duration": 47, "velocity": 54}, {"time": 5553, "pitch": 70, "duration": 6, "velocity": 59}, {"time": 5559, "pitch": 67, "duration": 8, "velocity": 44}, {"time": 5565, "pitch": 74, "duration": 3, "velocity": 60}, {"time": 5589, "pitch": 72, "duration": 2, "velocity": 66}, {"time": 5613, "pitch": 56, "duration": 36, "velocity": 58}, {"time": 5613, "pitch": 68, "duration": 15, "velocity": 62}, {"time": 5613, "pitch": 72, "duration": 18, "velocity": 56}, {"time": 5637, "pitch": 63, "duration": 10, "velocity": 58}, {"time": 5637, "pitch": 68, "duration": 11, "velocity": 64}, {"time": 5649, "pitch": 75, "duration": 11, "velocity": 54}, {"time": 5661, "pitch": 46, "duration": 32, "velocity": 61}, {"time": 5661, "pitch": 65, "duration": 9, "velocity": 47}, {"time": 5661, "pitch": 70, "duration": 10, "velocity": 48}, {"time": 5661, "pitch": 74, "duration": 11, "velocity": 63}, {"time": 5673, "pitch": 53, "duration": 20, "velocity": 37}, {"time": 5685, "pitch": 58, "duration": 12, "velocity": 54}, {"time": 5685, "pitch": 65, "duration": 11, "velocity": 54}, {"time": 5685, "pitch": 70, "duration": 10, "velocity": 57}, {"time": 5685, "pitch": 74, "duration": 12, "velocity": 57}, {"time": 5709, "pitch": 62, "duration": 26, "velocity": 64}, {"time": 5709, "pitch": 65, "duration": 12, "velocity": 58}, {"time": 5709, "pitch": 70, "duration": 12, "velocity": 62}, {"time": 5709, "pitch": 74, "duration": 12, "velocity": 60}, {"time": 5733, "pitch": 67, "duration": 11, "velocity": 55}, {"time": 5733, "pitch": 70, "duration": 11, "velocity": 54}, {"time": 5733, "pitch": 74, "duration": 14, "velocity": 55}, {"time": 5745, "pitch": 62, "duration": 1, "velocity": 53}, {"time": 5745, "pitch": 70, "duration": 5, "velocity": 49}, {"time": 5751, "pitch": 72, "duration": 8, "velocity": 51}, {"time": 5757, "pitch": 48, "duration": 36, "velocity": 61}, {"time": 5757, "pitch": 67, "duration": 13, "velocity": 56}, {"time": 5757, "pitch": 75, "duration": 11, "velocity": 63}, {"time": 5769, "pitch": 55, "duration": 12, "velocity": 35}, {"time": 5781, "pitch": 60, "duration": 9, "velocity": 44}, {"time": 5781, "pitch": 67, "duration": 7, "velocity": 59}, {"time": 5781, "pitch": 74, "duration": 10, "velocity": 69}, {"time": 5793, "pitch": 75, "duration": 6, "velocity": 39}, {"time": 5805, "pitch": 56, "duration": 29, "velocity": 55}, {"time": 5805, "pitch": 63, "duration": 15, "velocity": 62}, {"time": 5805, "pitch": 68, "duration": 13, "velocity": 66}, {"time": 5805, "pitch": 72, "duration": 14, "velocity": 59}, {"time": 5805, "pitch": 75, "duration": 14, "velocity": 40}, {"time": 5829, "pitch": 63, "duration": 11, "velocity": 59}, {"time": 5829, "pitch": 68, "duration": 11, "velocity": 64}, {"time": 5829, "pitch": 72, "duration": 12, "velocity": 57}, {"time": 5829, "pitch": 75, "duration": 14, "velocity": 51}, {"time": 5841, "pitch": 56, "duration": 3, "velocity": 48}, {"time": 5853, "pitch": 46, "duration": 30, "velocity": 64}, {"time": 5853, "pitch": 58, "duration": 31, "velocity": 57}, {"time": 5853, "pitch": 65, "duration": 14, "velocity": 58}, {"time": 5853, "pitch": 70, "duration": 14, "velocity": 61}, {"time": 5853, "pitch": 74, "duration": 16, "velocity": 59}, {"time": 5853, "pitch": 77, "duration": 14, "velocity": 59}, {"time": 5877, "pitch": 65, "duration": 10, "velocity": 61}, {"time": 5877, "pitch": 70, "duration": 10, "velocity": 61}, {"time": 5877, "pitch": 74, "duration": 9, "velocity": 58}, {"time": 5901, "pitch": 55, "duration": 37, "velocity": 56}, {"time": 5901, "pitch": 62, "duration": 27, "velocity": 64}, {"time": 5901, "pitch": 67, "duration": 14, "velocity": 63}, {"time": 5901, "pitch": 70, "duration": 11, "velocity": 61}, {"time": 5901, "pitch": 74, "duration": 11, "velocity": 56}, {"time": 5925, "pitch": 67, "duration": 12, "velocity": 60}, {"time": 5925, "pitch": 70, "duration": 9, "velocity": 66}, {"time": 5925, "pitch": 74, "duration": 10, "velocity": 61}, {"time": 5937, "pitch": 62, "duration": 2, "velocity": 56}, {"time": 5949, "pitch": 48, "duration": 17, "velocity": 66}, {"time": 5949, "pitch": 67, "duration": 9, "velocity": 62}, {"time": 5949, "pitch": 75, "duration": 10, "velocity": 66}, {"time": 5961, "pitch": 55, "duration": 7, "velocity": 46}, {"time": 5961, "pitch": 74, "duration": 5, "velocity": 50}, {"time": 5967, "pitch": 60, "duration": 8, "velocity": 51}, {"time": 5967, "pitch": 67, "duration": 8, "velocity": 61}, {"time": 5967, "pitch": 75, "duration": 9, "velocity": 73}, {"time": 5973, "pitch": 62, "duration": 9, "velocity": 43}, {"time": 5979, "pitch": 63, "duration": 3, "velocity": 61}, {"time": 5985, "pitch": 67, "duration": 5, "velocity": 57}, {"time": 5991, "pitch": 75, "duration": 4, "velocity": 50}, {"time": 5997, "pitch": 53, "duration": 37, "velocity": 60}, {"time": 5997, "pitch": 60, "duration": 27, "velocity": 67}, {"time": 5997, "pitch": 65, "duration": 13, "velocity": 55}, {"time": 5997, "pitch": 68, "duration": 15, "velocity": 63}, {"time": 5997, "pitch": 72, "duration": 13, "velocity": 59}, {"time": 6021, "pitch": 65, "duration": 10, "velocity": 63}, {"time": 6021, "pitch": 68, "duration": 9, "velocity": 62}, {"time": 6021, "pitch": 72, "duration": 9, "velocity": 62}, {"time": 6027, "pitch": 75, "duration": 9, "velocity": 64}, {"time": 6033, "pitch": 60, "duration": 1, "velocity": 57}, {"time": 6033, "pitch": 75, "duration": 3, "velocity": 64}, {"time": 6039, "pitch": 72, "duration": 7, "velocity": 67}, {"time": 6045, "pitch": 46, "duration": 25, "velocity": 72}, {"time": 6045, "pitch": 65, "duration": 10, "velocity": 59}, {"time": 6045, "pitch": 70, "duration": 11, "velocity": 55}, {"time": 6045, "pitch": 74, "duration": 10, "velocity": 61}, {"time": 6045, "pitch": 74, "duration": 10, "velocity": 82}, {"time": 6057, "pitch": 53, "duration": 14, "velocity": 47}, {"time": 6069, "pitch": 58, "duration": 11, "velocity": 50}, {"time": 6069, "pitch": 65, "duration": 12, "velocity": 61}, {"time": 6069, "pitch": 70, "duration": 10, "velocity": 60}, {"time": 6069, "pitch": 74, "duration": 11, "velocity": 64}, {"time": 6093, "pitch": 55, "duration": 33, "velocity": 67}, {"time": 6093, "pitch": 67, "duration": 13, "velocity": 61}, {"time": 6093, "pitch": 70, "duration": 11, "velocity": 64}, {"time": 6093, "pitch": 74, "duration": 9, "velocity": 63}, {"time": 6105, "pitch": 62, "duration": 20, "velocity": 56}, {"time": 6111, "pitch": 67, "duration": 8, "velocity": 63}, {"time": 6117, "pitch": 70, "duration": 7, "velocity": 70}, {"time": 6123, "pitch": 72, "duration": 4, "velocity": 64}, {"time": 6129, "pitch": 74, "duration": 4, "velocity": 58}, {"time": 6141, "pitch": 48, "duration": 10, "velocity": 70}, {"time": 6141, "pitch": 67, "duration": 8, "velocity": 63}, {"time": 6147, "pitch": 55, "duration": 4, "velocity": 58}, {"time": 6153, "pitch": 60, "duration": 7, "velocity": 44}, {"time": 6153, "pitch": 74, "duration": 5, "velocity": 46}, {"time": 6159, "pitch": 62, "duration": 16, "velocity": 66}, {"time": 6159, "pitch": 72, "duration": 9, "velocity": 69}, {"time": 6171, "pitch": 63, "duration": 4, "velocity": 67}, {"time": 6189, "pitch": 53, "duration": 35, "velocity": 70}, {"time": 6195, "pitch": 60, "duration": 10, "velocity": 63}, {"time": 6201, "pitch": 65, "duration": 6, "velocity": 51}, {"time": 6207, "pitch": 65, "duration": 7, "velocity": 73}, {"time": 6213, "pitch": 68, "duration": 6, "velocity": 55}, {"time": 6219, "pitch": 60, "duration": 6, "velocity": 69}, {"time": 6219, "pitch": 72, "duration": 6, "velocity": 58}, {"time": 6225, "pitch": 75, "duration": 6, "velocity": 69}, {"time": 6231, "pitch": 74, "duration": 4, "velocity": 45}, {"time": 6237, "pitch": 46, "duration": 10, "velocity": 67}, {"time": 6237, "pitch": 65, "duration": 6, "velocity": 66}, {"time": 6237, "pitch": 70, "duration": 8, "velocity": 67}, {"time": 6237, "pitch": 74, "duration": 10, "velocity": 70}, {"time": 6243, "pitch": 53, "duration": 4, "velocity": 58}, {"time": 6249, "pitch": 58, "duration": 7, "velocity": 47}, {"time": 6249, "pitch": 65, "duration": 3, "velocity": 47}, {"time": 6249, "pitch": 72, "duration": 5, "velocity": 66}, {"time": 6255, "pitch": 60, "duration": 10, "velocity": 59}, {"time": 6255, "pitch": 65, "duration": 5, "velocity": 60}, {"time": 6255, "pitch": 74, "duration": 8, "velocity": 69}, {"time": 6261, "pitch": 62, "duration": 3, "velocity": 76}, {"time": 6267, "pitch": 65, "duration": 3, "velocity": 56}, {"time": 6273, "pitch": 70, "duration": 5, "velocity": 69}, {"time": 6279, "pitch": 75, "duration": 9, "velocity": 72}, {"time": 6285, "pitch": 44, "duration": 9, "velocity": 67}, {"time": 6285, "pitch": 63, "duration": 7, "velocity": 63}, {"time": 6285, "pitch": 68, "duration": 9, "velocity": 62}, {"time": 6285, "pitch": 72, "duration": 11, "velocity": 64}, {"time": 6291, "pitch": 51, "duration": 4, "velocity": 69}, {"time": 6297, "pitch": 56, "duration": 7, "velocity": 47}, {"time": 6297, "pitch": 63, "duration": 3, "velocity": 48}, {"time": 6297, "pitch": 70, "duration": 5, "velocity": 51}, {"time": 6303, "pitch": 58, "duration": 14, "velocity": 66}, {"time": 6303, "pitch": 63, "duration": 7, "velocity": 64}, {"time": 6303, "pitch": 72, "duration": 12, "velocity": 69}, {"time": 6315, "pitch": 60, "duration": 2, "velocity": 70}, {"time": 6321, "pitch": 63, "duration": 4, "velocity": 60}, {"time": 6327, "pitch": 75, "duration": 5, "velocity": 61}, {"time": 6333, "pitch": 46, "duration": 33, "velocity": 69}, {"time": 6333, "pitch": 65, "duration": 7, "velocity": 61}, {"time": 6333, "pitch": 74, "duration": 10, "velocity": 69}, {"time": 6345, "pitch": 53, "duration": 21, "velocity": 50}, {"time": 6345, "pitch": 65, "duration": 6, "velocity": 58}, {"time": 6345, "pitch": 72, "duration": 7, "velocity": 55}, {"time": 6357, "pitch": 58, "duration": 8, "velocity": 48}, {"time": 6357, "pitch": 65, "duration": 3, "velocity": 49}, {"time": 6357, "pitch": 70, "duration": 13, "velocity": 62}, {"time": 6381, "pitch": 44, "duration": 15, "velocity": 72}, {"time": 6381, "pitch": 72, "duration": 9, "velocity": 76}, {"time": 6390, "pitch": 51, "duration": 7, "velocity": 64}, {"time": 6390, "pitch": 74, "duration": 7, "velocity": 69}, {"time": 6399, "pitch": 56, "duration": 8, "velocity": 46}, {"time": 6399, "pitch": 75, "duration": 4, "velocity": 60}, {"time": 6405, "pitch": 58, "duration": 7, "velocity": 50}, {"time": 6405, "pitch": 79, "duration": 6, "velocity": 69}, {"time": 6414, "pitch": 77, "duration": 7, "velocity": 73}, {"time": 6423, "pitch": 75, "duration": 6, "velocity": 63}, {"time": 6429, "pitch": 58, "duration": 35, "velocity": 48}, {"time": 6429, "pitch": 62, "duration": 37, "velocity": 63}, {"time": 6429, "pitch": 65, "duration": 36, "velocity": 62}, {"time": 6429, "pitch": 74, "duration": 7, "velocity": 62}, {"time": 6438, "pitch": 70, "duration": 10, "velocity": 59}, {"time": 6447, "pitch": 74, "duration": 5, "velocity": 66}, {"time": 6453, "pitch": 77, "duration": 10, "velocity": 56}, {"time": 6477, "pitch": 56, "duration": 26, "velocity": 49}, {"time": 6477, "pitch": 60, "duration": 26, "velocity": 58}, {"time": 6477, "pitch": 63, "duration": 25, "velocity": 61}, {"time": 6477, "pitch": 67, "duration": 25, "velocity": 58}, {"time": 6477, "pitch": 72, "duration": 26, "velocity": 70}, {"time": 6519, "pitch": 65, "duration": 7, "velocity": 45}, {"time": 6522, "pitch": 70, "duration": 6, "velocity": 51}, {"time": 6525, "pitch": 46, "duration": 37, "velocity": 55}, {"time": 6525, "pitch": 58, "duration": 38, "velocity": 44}, {"time": 6525, "pitch": 74, "duration": 11, "velocity": 57}, {"time": 6537, "pitch": 77, "duration": 9, "velocity": 52}, {"time": 6567, "pitch": 74, "duration": 6, "velocity": 53}, {"time": 6573, "pitch": 48, "duration": 56, "velocity": 50}, {"time": 6573, "pitch": 67, "duration": 10, "velocity": 44}, {"time": 6573, "pitch": 72, "duration": 9, "velocity": 49}, {"time": 6585, "pitch": 55, "duration": 43, "velocity": 37}, {"time": 6597, "pitch": 60, "duration": 31, "velocity": 36}, {"time": 6597, "pitch": 62, "duration": 11, "velocity": 52}, {"time": 6609, "pitch": 63, "duration": 16, "velocity": 50}, {"time": 6621, "pitch": 72, "duration": 7, "velocity": 52}], "annotations": [{"time": 47, "annotation": {"number": 64, "value": 127}, "group": "control_change"}, {"time": 94, "annotation": {"number": 64, "value": 0}, "group": "control_change"}, {"time": 99, "annotation": {"number": 64, "value": 127}, "group": "control_change"}, {"time": 141, "annotation": {"number": 64, "value": 0}, "group": "control_change"}, {"time": 146, "annotation": {"number": 64, "value": 127}, "group": "control_change"}, {"time": 187, "annotation": {"number": 64, "value": 0}, "group": "control_change"}, {"time": 191, "annotation": {"number": 64, "value": 127}, "group": "control_change"}, {"time": 213, "annotation": {"number": 64, "value": 0}, "group": "control_change"}, {"time": 217, "annotation": {"number": 64, "value": 127}, "group": "control_change"}, {"time": 235, "annotation": {"number": 64, "value": 0}, "group": "control_change"}, {"time": 239, "annotation": {"number": 64, "value": 127}, "group": "control_change"}, {"time": 285, "annotation": {"number": 64, "value": 0}, "group": "control_change"}, {"time": 286, "annotation": {"number": 64, "value": 127}, "group": "control_change"}, {"time": 333, "annotation": {"number": 64, "value": 0}, "group": "control_change"}, {"time": 335, "annotation": {"number": 64, "value": 127}, "group": "control_change"}, {"time": 356, "annotation": {"number": 64, "value": 0}, "group": "control_change"}, {"time": 360, "annotation": {"number": 64, "value": 127}, "group": "control_change"}, {"time": 381, "annotation": {"number": 64, "value": 0}, "group": "control_change"}, {"time": 386, "annotation": {"number": 64, "value": 127}, "group": "control_change"}, {"time": 429, "annotation": {"number": 64, "value": 127}, "group": "control_change"}, {"time": 430, "annotation": {"number": 64, "value": 0}, "group": "control_change"}, {"time": 477, "annotation": {"number": 64, "value": 0}, "group": "control_change"}, {"time": 481, "annotation": {"number": 64, "value": 127}, "group": "control_change"}, {"time": 525, "annotation": {"number": 64, "value": 0}, "group": "control_change"}, {"time": 529, "annotation": {"number": 64, "value": 127}, "group": "control_change"}, {"time": 573, "annotation": {"number": 64, "value": 0}, "group": "control_change"}, {"time": 578, "annotation": {"number": 64, "value": 127}, "group": "control_change"}, {"time": 620, "annotation": {"number": 64, "value": 0}, "group": "control_change"}, {"time": 625, "annotation": {"number": 64, "value": 127}, "group": "control_change"}, {"time": 669, "annotation": {"number": 64, "value": 0}, "group": "control_change"}, {"time": 674, "annotation": {"number": 64, "value": 127}, "group": "control_change"}, {"time": 718, "annotation": {"number": 64, "value": 0}, "group": "control_change"}, {"time": 723, "annotation": {"number": 64, "value": 127}, "group": "control_change"}, {"time": 765, "annotation": {"number": 64, "value": 0}, "group": "control_change"}, {"time": 770, "annotation": {"number": 64, "value": 127}, "group": "control_change"}, {"time": 812, "annotation": {"number": 64, "value": 0}, "group": "control_change"}, {"time": 819, "annotation": {"number": 64, "value": 127}, "group": "control_change"}, {"time": 863, "annotation": {"number": 64, "value": 0}, "group": "control_change"}, {"time": 867, "annotation": {"number": 64, "value": 127}, "group": "control_change"}, {"time": 909, "annotation": {"number": 64, "value": 0}, "group": "control_change"}, {"time": 914, "annotation": {"number": 64, "value": 127}, "group": "control_change"}, {"time": 954, "annotation": {"number": 64, "value": 0}, "group": "control_change"}, {"time": 959, "annotation": {"number": 64, "value": 127}, "group": "control_change"}, {"time": 980, "annotation": {"number": 64, "value": 0}, "group": "control_change"}, {"time": 984, "annotation": {"number": 64, "value": 127}, "group": "control_change"}, {"time": 1004, "annotation": {"number": 64, "value": 0}, "group": "control_change"}, {"time": 1009, "annotation": {"number": 64, "value": 127}, "group": "control_change"}, {"time": 1053, "annotation": {"number": 64, "value": 0}, "group": "control_change"}, {"time": 1053, "annotation": {"number": 64, "value": 127}, "group": "control_change"}, {"time": 1102, "annotation": {"number": 64, "value": 0}, "group": "control_change"}, {"time": 1106, "annotation": {"number": 64, "value": 127}, "group": "control_change"}, {"time": 1123, "annotation": {"number": 64, "value": 0}, "group": "control_change"}, {"time": 1128, "annotation": {"number": 64, "value": 127}, "group": "control_change"}, {"time": 1147, "annotation": {"number": 64, "value": 0}, "group": "control_change"}, {"time": 1151, "annotation": {"number": 64, "value": 127}, "group": "control_change"}, {"time": 1196, "annotation": {"number": 64, "value": 0}, "group": "control_change"}, {"time": 1201, "annotation": {"number": 64, "value": 127}, "group": "control_change"}, {"time": 1243, "annotation": {"number": 64, "value": 127}, "group": "control_change"}, {"time": 1244, "annotation": {"number": 64, "value": 0}, "group": "control_change"}, {"time": 1293, "annotation": {"number": 64, "value": 0}, "group": "control_change"}, {"time": 1298, "annotation": {"number": 64, "value": 127}, "group": "control_change"}, {"time": 1341, "annotation": {"number": 64, "value": 0}, "group": "control_change"}, {"time": 1348, "annotation": {"number": 64, "value": 127}, "group": "control_change"}, {"time": 1390, "annotation": {"number": 64, "value": 0}, "group": "control_change"}, {"time": 1395, "annotation": {"number": 64, "value": 127}, "group": "control_change"}, {"time": 1438, "annotation": {"number": 64, "value": 0}, "group": "control_change"}, {"time": 1443, "annotation": {"number": 64, "value": 127}, "group": "control_change"}, {"time": 1484, "annotation": {"number": 64, "value": 0}, "group": "control_change"}, {"time": 1485, "annotation": {"number": 64, "value": 127}, "group": "control_change"}, {"time": 1510, "annotation": {"number": 64, "value": 0}, "group": "control_change"}, {"time": 1515, "annotation": {"number": 64, "value": 127}, "group": "control_change"}, {"time": 1531, "annotation": {"number": 64, "value": 127}, "group": "control_change"}, {"time": 1582, "annotation": {"number": 64, "value": 0}, "group": "control_change"}, {"time": 1587, "annotation": {"number": 64, "value": 127}, "group": "control_change"}, {"time": 1629, "annotation": {"number": 64, "value": 0}, "group": "control_change"}, {"time": 1635, "annotation": {"number": 64, "value": 127}, "group": "control_change"}, {"time": 1676, "annotation": {"number": 64, "value": 0}, "group": "control_change"}, {"time": 1682, "annotation": {"number": 64, "value": 127}, "group": "control_change"}, {"time": 1727, "annotation": {"number": 64, "value": 0}, "group": "control_change"}, {"time": 1732, "annotation": {"number": 64, "value": 127}, "group": "control_change"}, {"time": 1749, "annotation": {"number": 64, "value": 0}, "group": "control_change"}, {"time": 1758, "annotation": {"number": 64, "value": 127}, "group": "control_change"}, {"time": 1771, "annotation": {"number": 64, "value": 0}, "group": "control_change"}, {"time": 1775, "annotation": {"number": 64, "value": 127}, "group": "control_change"}, {"time": 1823, "annotation": {"number": 64, "value": 0}, "group": "control_change"}, {"time": 1827, "annotation": {"number": 64, "value": 127}, "group": "control_change"}, {"time": 1868, "annotation": {"number": 64, "value": 0}, "group": "control_change"}, {"time": 1871, "annotation": {"number": 64, "value": 127}, "group": "control_change"}, {"time": 1875, "annotation": {"number": 64, "value": 0}, "group": "control_change"}, {"time": 1877, "annotation": {"number": 64, "value": 127}, "group": "control_change"}, {"time": 1963, "annotation": {"number": 64, "value": 0}, "group": "control_change"}, {"time": 1967, "annotation": {"number": 64, "value": 127}, "group": "control_change"}, {"time": 2012, "annotation": {"number": 64, "value": 0}, "group": "control_change"}, {"time": 2018, "annotation": {"number": 64, "value": 127}, "group": "control_change"}, {"time": 2061, "annotation": {"number": 64, "value": 0}, "group": "control_change"}, {"time": 2070, "annotation": {"number": 64, "value": 127}, "group": "control_change"}, {"time": 2111, "annotation": {"number": 64, "value": 0}, "group": "control_change"}, {"time": 2115, "annotation": {"number": 64, "value": 127}, "group": "control_change"}, {"time": 2157, "annotation": {"number": 64, "value": 0}, "group": "control_change"}, {"time": 2159, "annotation": {"number": 64, "value": 127}, "group": "control_change"}, {"time": 2205, "annotation": {"number": 64, "value": 0}, "group": "control_change"}, {"time": 2210, "annotation": {"number": 64, "value": 127}, "group": "control_change"}, {"time": 2255, "annotation": {"number": 64, "value": 0}, "group": "control_change"}, {"time": 2260, "annotation": {"number": 64, "value": 127}, "group": "control_change"}, {"time": 2301, "annotation": {"number": 64, "value": 0}, "group": "control_change"}, {"time": 2306, "annotation": {"number": 64, "value": 127}, "group": "control_change"}, {"time": 2349, "annotation": {"number": 64, "value": 0}, "group": "control_change"}, {"time": 2353, "annotation": {"number": 64, "value": 127}, "group": "control_change"}, {"time": 2397, "annotation": {"number": 64, "value": 0}, "group": "control_change"}, {"time": 2403, "annotation": {"number": 64, "value": 127}, "group": "control_change"}, {"time": 2445, "annotation": {"number": 64, "value": 0}, "group": "control_change"}, {"time": 2450, "annotation": {"number": 64, "value": 127}, "group": "control_change"}, {"time": 2495, "annotation": {"number": 64, "value": 0}, "group": "control_change"}, {"time": 2500, "annotation": {"number": 64, "value": 127}, "group": "control_change"}, {"time": 2539, "annotation": {"number": 64, "value": 0}, "group": "control_change"}, {"time": 2544, "annotation": {"number": 64, "value": 127}, "group": "control_change"}, {"time": 2590, "annotation": {"number": 64, "value": 0}, "group": "control_change"}, {"time": 2595, "annotation": {"number": 64, "value": 127}, "group": "control_change"}, {"time": 2637, "annotation": {"number": 64, "value": 0}, "group": "control_change"}, {"time": 2643, "annotation": {"number": 64, "value": 127}, "group": "control_change"}, {"time": 2661, "annotation": {"number": 64, "value": 0}, "group": "control_change"}, {"time": 2666, "annotation": {"number": 64, "value": 127}, "group": "control_change"}, {"time": 2684, "annotation": {"number": 64, "value": 0}, "group": "control_change"}, {"time": 2685, "annotation": {"number": 64, "value": 127}, "group": "control_change"}, {"time": 2731, "annotation": {"number": 64, "value": 0}, "group": "control_change"}, {"time": 2732, "annotation": {"number": 64, "value": 127}, "group": "control_change"}, {"time": 2736, "annotation": {"number": 64, "value": 127}, "group": "control_change"}, {"time": 2766, "annotation": {"number": 64, "value": 0}, "group": "control_change"}, {"time": 2782, "annotation": {"number": 64, "value": 0}, "group": "control_change"}, {"time": 2788, "annotation": {"number": 64, "value": 127}, "group": "control_change"}, {"time": 2829, "annotation": {"number": 64, "value": 0}, "group": "control_change"}, {"time": 2834, "annotation": {"number": 64, "value": 127}, "group": "control_change"}, {"time": 2877, "annotation": {"number": 64, "value": 0}, "group": "control_change"}, {"time": 2883, "annotation": {"number": 64, "value": 127}, "group": "control_change"}, {"time": 2911, "annotation": {"number": 64, "value": 0}, "group": "control_change"}, {"time": 2914, "annotation": {"number": 64, "value": 127}, "group": "control_change"}, {"time": 2924, "annotation": {"number": 64, "value": 0}, "group": "control_change"}, {"time": 2928, "annotation": {"number": 64, "value": 127}, "group": "control_change"}, {"time": 2976, "annotation": {"number": 64, "value": 0}, "group": "control_change"}, {"time": 2980, "annotation": {"number": 64, "value": 127}, "group": "control_change"}, {"time": 3022, "annotation": {"number": 64, "value": 0}, "group": "control_change"}, {"time": 3027, "annotation": {"number": 64, "value": 127}, "group": "control_change"}, {"time": 3045, "annotation": {"number": 64, "value": 0}, "group": "control_change"}, {"time": 3050, "annotation": {"number": 64, "value": 127}, "group": "control_change"}, {"time": 3066, "annotation": {"number": 64, "value": 0}, "group": "control_change"}, {"time": 3071, "annotation": {"number": 64, "value": 127}, "group": "control_change"}, {"time": 3118, "annotation": {"number": 64, "value": 0}, "group": "control_change"}, {"time": 3123, "annotation": {"number": 64, "value": 127}, "group": "control_change"}, {"time": 3166, "annotation": {"number": 64, "value": 0}, "group": "control_change"}, {"time": 3171, "annotation": {"number": 64, "value": 127}, "group": "control_change"}, {"time": 3213, "annotation": {"number": 64, "value": 0}, "group": "control_change"}, {"time": 3217, "annotation": {"number": 64, "value": 127}, "group": "control_change"}, {"time": 3260, "annotation": {"number": 64, "value": 0}, "group": "control_change"}, {"time": 3267, "annotation": {"number": 64, "value": 127}, "group": "control_change"}, {"time": 3310, "annotation": {"number": 64, "value": 0}, "group": "control_change"}, {"time": 3315, "annotation": {"number": 64, "value": 127}, "group": "control_change"}, {"time": 3359, "annotation": {"number": 64, "value": 0}, "group": "control_change"}, {"time": 3364, "annotation": {"number": 64, "value": 127}, "group": "control_change"}, {"time": 3406, "annotation": {"number": 64, "value": 127}, "group": "control_change"}, {"time": 3406, "annotation": {"number": 64, "value": 0}, "group": "control_change"}, {"time": 3411, "annotation": {"number": 64, "value": 127}, "group": "control_change"}, {"time": 3422, "annotation": {"number": 64, "value": 0}, "group": "control_change"}, {"time": 3429, "annotation": {"number": 64, "value": 0}, "group": "control_change"}, {"time": 3434, "annotation": {"number": 64, "value": 127}, "group": "control_change"}, {"time": 3452, "annotation": {"number": 64, "value": 0}, "group": "control_change"}, {"time": 3457, "annotation": {"number": 64, "value": 127}, "group": "control_change"}, {"time": 3500, "annotation": {"number": 64, "value": 0}, "group": "control_change"}, {"time": 3501, "annotation": {"number": 64, "value": 127}, "group": "control_change"}, {"time": 3550, "annotation": {"number": 64, "value": 0}, "group": "control_change"}, {"time": 3555, "annotation": {"number": 64, "value": 127}, "group": "control_change"}, {"time": 3597, "annotation": {"number": 64, "value": 0}, "group": "control_change"}, {"time": 3602, "annotation": {"number": 64, "value": 127}, "group": "control_change"}, {"time": 3647, "annotation": {"number": 64, "value": 0}, "group": "control_change"}, {"time": 3652, "annotation": {"number": 64, "value": 127}, "group": "control_change"}, {"time": 3691, "annotation": {"number": 64, "value": 0}, "group": "control_change"}, {"time": 3698, "annotation": {"number": 64, "value": 127}, "group": "control_change"}, {"time": 3740, "annotation": {"number": 64, "value": 0}, "group": "control_change"}, {"time": 3746, "annotation": {"number": 64, "value": 127}, "group": "control_change"}, {"time": 3788, "annotation": {"number": 64, "value": 0}, "group": "control_change"}, {"time": 3793, "annotation": {"number": 64, "value": 127}, "group": "control_change"}, {"time": 3883, "annotation": {"number": 64, "value": 0}, "group": "control_change"}, {"time": 3888, "annotation": {"number": 64, "value": 127}, "group": "control_change"}, {"time": 3933, "annotation": {"number": 64, "value": 0}, "group": "control_change"}, {"time": 3939, "annotation": {"number": 64, "value": 127}, "group": "control_change"}, {"time": 3980, "annotation": {"number": 64, "value": 0}, "group": "control_change"}, {"time": 3987, "annotation": {"number": 64, "value": 127}, "group": "control_change"}, {"time": 4028, "annotation": {"number": 64, "value": 0}, "group": "control_change"}, {"time": 4033, "annotation": {"number": 64, "value": 127}, "group": "control_change"}, {"time": 4076, "annotation": {"number": 64, "value": 0}, "group": "control_change"}, {"time": 4077, "annotation": {"number": 64, "value": 127}, "group": "control_change"}, {"time": 4121, "annotation": {"number": 64, "value": 0}, "group": "control_change"}, {"time": 4126, "annotation": {"number": 64, "value": 0}, "group": "control_change"}, {"time": 4132, "annotation": {"number": 64, "value": 127}, "group": "control_change"}, {"time": 4173, "annotation": {"number": 64, "value": 0}, "group": "control_change"}, {"time": 4173, "annotation": {"number": 64, "value": 127}, "group": "control_change"}, {"time": 4219, "annotation": {"number": 64, "value": 0}, "group": "control_change"}, {"time": 4221, "annotation": {"number": 64, "value": 0}, "group": "control_change"}, {"time": 4226, "annotation": {"number": 64, "value": 127}, "group": "control_change"}, {"time": 4268, "annotation": {"number": 64, "value": 0}, "group": "control_change"}, {"time": 4268, "annotation": {"number": 64, "value": 127}, "group": "control_change"}, {"time": 4317, "annotation": {"number": 64, "value": 0}, "group": "control_change"}, {"time": 4321, "annotation": {"number": 64, "value": 127}, "group": "control_change"}, {"time": 4362, "annotation": {"number": 64, "value": 0}, "group": "control_change"}, {"time": 4365, "annotation": {"number": 64, "value": 127}, "group": "control_change"}, {"time": 4413, "annotation": {"number": 64, "value": 0}, "group": "control_change"}, {"time": 4428, "annotation": {"number": 64, "value": 127}, "group": "control_change"}, {"time": 4461, "annotation": {"number": 64, "value": 0}, "group": "control_change"}, {"time": 4465, "annotation": {"number": 64, "value": 127}, "group": "control_change"}, {"time": 4510, "annotation": {"number": 64, "value": 0}, "group": "control_change"}, {"time": 4515, "annotation": {"number": 64, "value": 127}, "group": "control_change"}, {"time": 4556, "annotation": {"number": 64, "value": 0}, "group": "control_change"}, {"time": 4559, "annotation": {"number": 64, "value": 127}, "group": "control_change"}, {"time": 4652, "annotation": {"number": 64, "value": 0}, "group": "control_change"}, {"time": 4656, "annotation": {"number": 64, "value": 127}, "group": "control_change"}, {"time": 4702, "annotation": {"number": 64, "value": 0}, "group": "control_change"}, {"time": 4707, "annotation": {"number": 64, "value": 127}, "group": "control_change"}, {"time": 4752, "annotation": {"number": 64, "value": 0}, "group": "control_change"}, {"time": 4756, "annotation": {"number": 64, "value": 127}, "group": "control_change"}, {"time": 4797, "annotation": {"number": 64, "value": 0}, "group": "control_change"}, {"time": 4798, "annotation": {"number": 64, "value": 127}, "group": "control_change"}, {"time": 4844, "annotation": {"number": 64, "value": 0}, "group": "control_change"}, {"time": 4849, "annotation": {"number": 64, "value": 127}, "group": "control_change"}, {"time": 4893, "annotation": {"number": 64, "value": 0}, "group": "control_change"}, {"time": 4896, "annotation": {"number": 64, "value": 127}, "group": "control_change"}, {"time": 4941, "annotation": {"number": 64, "value": 0}, "group": "control_change"}, {"time": 4943, "annotation": {"number": 64, "value": 127}, "group": "control_change"}, {"time": 4966, "annotation": {"number": 64, "value": 0}, "group": "control_change"}, {"time": 4971, "annotation": {"number": 64, "value": 127}, "group": "control_change"}, {"time": 4989, "annotation": {"number": 64, "value": 0}, "group": "control_change"}, {"time": 4990, "annotation": {"number": 64, "value": 127}, "group": "control_change"}, {"time": 5035, "annotation": {"number": 64, "value": 0}, "group": "control_change"}, {"time": 5040, "annotation": {"number": 64, "value": 127}, "group": "control_change"}, {"time": 5086, "annotation": {"number": 64, "value": 0}, "group": "control_change"}, {"time": 5091, "annotation": {"number": 64, "value": 127}, "group": "control_change"}, {"time": 5136, "annotation": {"number": 64, "value": 0}, "group": "control_change"}, {"time": 5140, "annotation": {"number": 64, "value": 127}, "group": "control_change"}, {"time": 5181, "annotation": {"number": 64, "value": 0}, "group": "control_change"}, {"time": 5182, "annotation": {"number": 64, "value": 127}, "group": "control_change"}, {"time": 5228, "annotation": {"number": 64, "value": 0}, "group": "control_change"}, {"time": 5233, "annotation": {"number": 64, "value": 127}, "group": "control_change"}, {"time": 5277, "annotation": {"number": 64, "value": 0}, "group": "control_change"}, {"time": 5280, "annotation": {"number": 64, "value": 127}, "group": "control_change"}, {"time": 5325, "annotation": {"number": 64, "value": 0}, "group": "control_change"}, {"time": 5330, "annotation": {"number": 64, "value": 127}, "group": "control_change"}, {"time": 5420, "annotation": {"number": 64, "value": 0}, "group": "control_change"}, {"time": 5427, "annotation": {"number": 64, "value": 127}, "group": "control_change"}, {"time": 5470, "annotation": {"number": 64, "value": 0}, "group": "control_change"}, {"time": 5475, "annotation": {"number": 64, "value": 127}, "group": "control_change"}, {"time": 5516, "annotation": {"number": 64, "value": 0}, "group": "control_change"}, {"time": 5524, "annotation": {"number": 64, "value": 127}, "group": "control_change"}, {"time": 5612, "annotation": {"number": 64, "value": 0}, "group": "control_change"}, {"time": 5614, "annotation": {"number": 64, "value": 127}, "group": "control_change"}, {"time": 5662, "annotation": {"number": 64, "value": 0}, "group": "control_change"}, {"time": 5669, "annotation": {"number": 64, "value": 127}, "group": "control_change"}, {"time": 5709, "annotation": {"number": 64, "value": 0}, "group": "control_change"}, {"time": 5713, "annotation": {"number": 64, "value": 127}, "group": "control_change"}, {"time": 5756, "annotation": {"number": 64, "value": 0}, "group": "control_change"}, {"time": 5763, "annotation": {"number": 64, "value": 127}, "group": "control_change"}, {"time": 5805, "annotation": {"number": 64, "value": 0}, "group": "control_change"}, {"time": 5806, "annotation": {"number": 64, "value": 127}, "group": "control_change"}, {"time": 5852, "annotation": {"number": 64, "value": 0}, "group": "control_change"}, {"time": 5858, "annotation": {"number": 64, "value": 127}, "group": "control_change"}, {"time": 5900, "annotation": {"number": 64, "value": 0}, "group": "control_change"}, {"time": 5906, "annotation": {"number": 64, "value": 127}, "group": "control_change"}, {"time": 5950, "annotation": {"number": 64, "value": 0}, "group": "control_change"}, {"time": 5957, "annotation": {"number": 64, "value": 127}, "group": "control_change"}, {"time": 5997, "annotation": {"number": 64, "value": 0}, "group": "control_change"}, {"time": 6002, "annotation": {"number": 64, "value": 127}, "group": "control_change"}, {"time": 6044, "annotation": {"number": 64, "value": 0}, "group": "control_change"}, {"time": 6050, "annotation": {"number": 64, "value": 127}, "group": "control_change"}, {"time": 6093, "annotation": {"number": 64, "value": 0}, "group": "control_change"}, {"time": 6094, "annotation": {"number": 64, "value": 127}, "group": "control_change"}, {"time": 6139, "annotation": {"number": 64, "value": 0}, "group": "control_change"}, {"time": 6144, "annotation": {"number": 64, "value": 127}, "group": "control_change"}, {"time": 6190, "annotation": {"number": 64, "value": 0}, "group": "control_change"}, {"time": 6194, "annotation": {"number": 64, "value": 127}, "group": "control_change"}, {"time": 6238, "annotation": {"number": 64, "value": 0}, "group": "control_change"}, {"time": 6242, "annotation": {"number": 64, "value": 127}, "group": "control_change"}, {"time": 6287, "annotation": {"number": 64, "value": 0}, "group": "control_change"}, {"time": 6291, "annotation": {"number": 64, "value": 127}, "group": "control_change"}, {"time": 6333, "annotation": {"number": 64, "value": 0}, "group": "control_change"}, {"time": 6337, "annotation": {"number": 64, "value": 127}, "group": "control_change"}, {"time": 6381, "annotation": {"number": 64, "value": 0}, "group": "control_change"}, {"time": 6381, "annotation": {"number": 64, "value": 127}, "group": "control_change"}, {"time": 6428, "annotation": {"number": 64, "value": 0}, "group": "control_change"}, {"time": 6433, "annotation": {"number": 64, "value": 127}, "group": "control_change"}, {"time": 6476, "annotation": {"number": 64, "value": 0}, "group": "control_change"}, {"time": 6480, "annotation": {"number": 64, "value": 127}, "group": "control_change"}, {"time": 6522, "annotation": {"number": 64, "value": 0}, "group": "control_change"}, {"time": 6526, "annotation": {"number": 64, "value": 127}, "group": "control_change"}, {"time": 6573, "annotation": {"number": 64, "value": 0}, "group": "control_change"}, {"time": 6578, "annotation": {"number": 64, "value": 127}, "group": "control_change"}, {"time": 6654, "annotation": {"number": 64, "value": 0}, "group": "control_change"}]}]}