{"metadata": {"schema_version": "0.2", "title": "None", "source_filename": "235.mid", "source_format": "midi"}, "resolution": 12, "tempos": [{"time": 0, "qpm": 65.99999340000066}, {"time": 53, "qpm": 60.99997255001235}, {"time": 65, "qpm": 62.99999685000016}, {"time": 89, "qpm": 61.99999586666694}], "time_signatures": [{"time": 0, "numerator": 4, "denominator": 4}], "tracks": [{"program": 4, "is_drum": false, "name": "MELODY", "notes": [{"time": 251, "pitch": 71, "duration": 3, "velocity": 90}, {"time": 254, "pitch": 69, "duration": 3, "velocity": 83}, {"time": 257, "pitch": 71, "duration": 9, "velocity": 90}, {"time": 266, "pitch": 69, "duration": 3, "velocity": 79}, {"time": 269, "pitch": 71, "duration": 3, "velocity": 90}, {"time": 272, "pitch": 71, "duration": 9, "velocity": 90}, {"time": 281, "pitch": 69, "duration": 6, "velocity": 93}, {"time": 287, "pitch": 71, "duration": 3, "velocity": 82}, {"time": 290, "pitch": 64, "duration": 6, "velocity": 80}, {"time": 296, "pitch": 67, "duration": 51, "velocity": 84}, {"time": 347, "pitch": 71, "duration": 3, "velocity": 90}, {"time": 350, "pitch": 71, "duration": 3, "velocity": 90}, {"time": 353, "pitch": 71, "duration": 6, "velocity": 98}, {"time": 359, "pitch": 71, "duration": 3, "velocity": 93}, {"time": 362, "pitch": 69, "duration": 6, "velocity": 84}, {"time": 368, "pitch": 69, "duration": 6, "velocity": 75}, {"time": 374, "pitch": 69, "duration": 3, "velocity": 82}, {"time": 377, "pitch": 67, "duration": 6, "velocity": 83}, {"time": 383, "pitch": 67, "duration": 3, "velocity": 84}, {"time": 386, "pitch": 64, "duration": 3, "velocity": 83}, {"time": 389, "pitch": 62, "duration": 57, "velocity": 79}, {"time": 446, "pitch": 62, "duration": 3, "velocity": 73}, {"time": 449, "pitch": 71, "duration": 6, "velocity": 84}, {"time": 455, "pitch": 67, "duration": 3, "velocity": 79}, {"time": 458, "pitch": 71, "duration": 6, "velocity": 86}, {"time": 464, "pitch": 69, "duration": 6, "velocity": 83}, {"time": 470, "pitch": 67, "duration": 3, "velocity": 84}, {"time": 473, "pitch": 67, "duration": 3, "velocity": 86}, {"time": 476, "pitch": 67, "duration": 6, "velocity": 86}, {"time": 482, "pitch": 67, "duration": 3, "velocity": 90}, {"time": 485, "pitch": 64, "duration": 3, "velocity": 84}, {"time": 488, "pitch": 69, "duration": 51, "velocity": 90}, {"time": 539, "pitch": 69, "duration": 3, "velocity": 83}, {"time": 542, "pitch": 69, "duration": 3, "velocity": 90}, {"time": 545, "pitch": 69, "duration": 6, "velocity": 86}, {"time": 551, "pitch": 62, "duration": 3, "velocity": 78}, {"time": 554, "pitch": 69, "duration": 6, "velocity": 80}, {"time": 560, "pitch": 71, "duration": 9, "velocity": 86}, {"time": 569, "pitch": 71, "duration": 6, "velocity": 90}, {"time": 575, "pitch": 69, "duration": 6, "velocity": 84}, {"time": 581, "pitch": 67, "duration": 54, "velocity": 93}, {"time": 635, "pitch": 71, "duration": 3, "velocity": 86}, {"time": 638, "pitch": 71, "duration": 3, "velocity": 86}, {"time": 641, "pitch": 71, "duration": 6, "velocity": 84}, {"time": 647, "pitch": 67, "duration": 3, "velocity": 83}, {"time": 650, "pitch": 71, "duration": 6, "velocity": 83}, {"time": 656, "pitch": 69, "duration": 6, "velocity": 80}, {"time": 662, "pitch": 69, "duration": 3, "velocity": 86}, {"time": 665, "pitch": 67, "duration": 3, "velocity": 90}, {"time": 668, "pitch": 67, "duration": 6, "velocity": 86}, {"time": 674, "pitch": 67, "duration": 3, "velocity": 83}, {"time": 677, "pitch": 64, "duration": 6, "velocity": 98}, {"time": 683, "pitch": 67, "duration": 51, "velocity": 84}, {"time": 734, "pitch": 62, "duration": 3, "velocity": 59}, {"time": 737, "pitch": 71, "duration": 6, "velocity": 90}, {"time": 743, "pitch": 67, "duration": 3, "velocity": 82}, {"time": 746, "pitch": 71, "duration": 6, "velocity": 98}, {"time": 752, "pitch": 69, "duration": 6, "velocity": 95}, {"time": 758, "pitch": 67, "duration": 6, "velocity": 72}, {"time": 764, "pitch": 67, "duration": 6, "velocity": 80}, {"time": 770, "pitch": 67, "duration": 3, "velocity": 83}, {"time": 773, "pitch": 64, "duration": 6, "velocity": 81}, {"time": 779, "pitch": 62, "duration": 51, "velocity": 76}, {"time": 830, "pitch": 62, "duration": 3, "velocity": 73}, {"time": 833, "pitch": 71, "duration": 6, "velocity": 84}, {"time": 839, "pitch": 67, "duration": 3, "velocity": 79}, {"time": 842, "pitch": 71, "duration": 6, "velocity": 86}, {"time": 848, "pitch": 69, "duration": 9, "velocity": 83}, {"time": 857, "pitch": 67, "duration": 6, "velocity": 86}, {"time": 863, "pitch": 67, "duration": 3, "velocity": 86}, {"time": 866, "pitch": 64, "duration": 3, "velocity": 84}, {"time": 869, "pitch": 69, "duration": 57, "velocity": 90}, {"time": 926, "pitch": 69, "duration": 3, "velocity": 90}, {"time": 929, "pitch": 69, "duration": 6, "velocity": 86}, {"time": 935, "pitch": 69, "duration": 3, "velocity": 78}, {"time": 938, "pitch": 69, "duration": 6, "velocity": 80}, {"time": 944, "pitch": 62, "duration": 9, "velocity": 86}, {"time": 953, "pitch": 69, "duration": 6, "velocity": 90}, {"time": 959, "pitch": 67, "duration": 3, "velocity": 84}, {"time": 962, "pitch": 67, "duration": 12, "velocity": 93}, {"time": 974, "pitch": 64, "duration": 45, "velocity": 68}, {"time": 1019, "pitch": 76, "duration": 3, "velocity": 86}, {"time": 1022, "pitch": 76, "duration": 3, "velocity": 86}, {"time": 1025, "pitch": 76, "duration": 6, "velocity": 101}, {"time": 1031, "pitch": 76, "duration": 3, "velocity": 100}, {"time": 1034, "pitch": 76, "duration": 9, "velocity": 100}, {"time": 1043, "pitch": 74, "duration": 6, "velocity": 94}, {"time": 1049, "pitch": 74, "duration": 6, "velocity": 94}, {"time": 1055, "pitch": 74, "duration": 12, "velocity": 94}, {"time": 1067, "pitch": 64, "duration": 48, "velocity": 93}, {"time": 1115, "pitch": 76, "duration": 3, "velocity": 98}, {"time": 1118, "pitch": 76, "duration": 3, "velocity": 94}, {"time": 1121, "pitch": 76, "duration": 6, "velocity": 98}, {"time": 1127, "pitch": 76, "duration": 3, "velocity": 98}, {"time": 1130, "pitch": 79, "duration": 9, "velocity": 98}, {"time": 1139, "pitch": 76, "duration": 6, "velocity": 95}, {"time": 1145, "pitch": 74, "duration": 6, "velocity": 95}, {"time": 1151, "pitch": 74, "duration": 3, "velocity": 95}, {"time": 1154, "pitch": 71, "duration": 57, "velocity": 98}, {"time": 1211, "pitch": 76, "duration": 3, "velocity": 86}, {"time": 1214, "pitch": 74, "duration": 3, "velocity": 86}, {"time": 1217, "pitch": 76, "duration": 6, "velocity": 84}, {"time": 1223, "pitch": 74, "duration": 3, "velocity": 84}, {"time": 1226, "pitch": 76, "duration": 9, "velocity": 90}, {"time": 1235, "pitch": 74, "duration": 6, "velocity": 94}, {"time": 1241, "pitch": 74, "duration": 6, "velocity": 95}, {"time": 1247, "pitch": 67, "duration": 3, "velocity": 79}, {"time": 1250, "pitch": 69, "duration": 21, "velocity": 90}, {"time": 1271, "pitch": 67, "duration": 3, "velocity": 86}, {"time": 1274, "pitch": 64, "duration": 33, "velocity": 84}, {"time": 1307, "pitch": 69, "duration": 3, "velocity": 83}, {"time": 1310, "pitch": 69, "duration": 3, "velocity": 90}, {"time": 1313, "pitch": 69, "duration": 6, "velocity": 91}, {"time": 1319, "pitch": 69, "duration": 3, "velocity": 95}, {"time": 1322, "pitch": 69, "duration": 12, "velocity": 94}, {"time": 1334, "pitch": 71, "duration": 3, "velocity": 95}, {"time": 1337, "pitch": 71, "duration": 6, "velocity": 98}, {"time": 1343, "pitch": 69, "duration": 3, "velocity": 98}, {"time": 1346, "pitch": 71, "duration": 2, "velocity": 83}, {"time": 1348, "pitch": 69, "duration": 1, "velocity": 76}, {"time": 1349, "pitch": 67, "duration": 48, "velocity": 86}, {"time": 1787, "pitch": 76, "duration": 3, "velocity": 86}, {"time": 1790, "pitch": 76, "duration": 3, "velocity": 86}, {"time": 1793, "pitch": 76, "duration": 6, "velocity": 101}, {"time": 1799, "pitch": 76, "duration": 3, "velocity": 100}, {"time": 1802, "pitch": 76, "duration": 9, "velocity": 100}, {"time": 1811, "pitch": 74, "duration": 6, "velocity": 94}, {"time": 1817, "pitch": 74, "duration": 6, "velocity": 94}, {"time": 1823, "pitch": 74, "duration": 12, "velocity": 94}, {"time": 1835, "pitch": 64, "duration": 48, "velocity": 93}, {"time": 1883, "pitch": 76, "duration": 3, "velocity": 98}, {"time": 1886, "pitch": 76, "duration": 3, "velocity": 94}, {"time": 1889, "pitch": 76, "duration": 6, "velocity": 98}, {"time": 1895, "pitch": 76, "duration": 3, "velocity": 98}, {"time": 1898, "pitch": 79, "duration": 9, "velocity": 98}, {"time": 1907, "pitch": 76, "duration": 6, "velocity": 95}, {"time": 1913, "pitch": 74, "duration": 6, "velocity": 95}, {"time": 1919, "pitch": 74, "duration": 3, "velocity": 95}, {"time": 1922, "pitch": 71, "duration": 57, "velocity": 98}, {"time": 1979, "pitch": 76, "duration": 3, "velocity": 86}, {"time": 1982, "pitch": 74, "duration": 3, "velocity": 86}, {"time": 1985, "pitch": 76, "duration": 6, "velocity": 84}, {"time": 1991, "pitch": 74, "duration": 3, "velocity": 84}, {"time": 1994, "pitch": 76, "duration": 9, "velocity": 90}, {"time": 2003, "pitch": 74, "duration": 6, "velocity": 94}, {"time": 2009, "pitch": 74, "duration": 6, "velocity": 95}, {"time": 2015, "pitch": 67, "duration": 3, "velocity": 79}, {"time": 2018, "pitch": 69, "duration": 21, "velocity": 90}, {"time": 2039, "pitch": 67, "duration": 3, "velocity": 86}, {"time": 2042, "pitch": 64, "duration": 33, "velocity": 84}, {"time": 2075, "pitch": 69, "duration": 3, "velocity": 83}, {"time": 2078, "pitch": 69, "duration": 3, "velocity": 90}, {"time": 2081, "pitch": 69, "duration": 6, "velocity": 91}, {"time": 2087, "pitch": 69, "duration": 3, "velocity": 95}, {"time": 2090, "pitch": 69, "duration": 12, "velocity": 94}, {"time": 2102, "pitch": 71, "duration": 3, "velocity": 95}, {"time": 2105, "pitch": 71, "duration": 6, "velocity": 98}, {"time": 2111, "pitch": 69, "duration": 3, "velocity": 98}, {"time": 2114, "pitch": 71, "duration": 2, "velocity": 83}, {"time": 2116, "pitch": 69, "duration": 1, "velocity": 76}, {"time": 2117, "pitch": 67, "duration": 54, "velocity": 86}, {"time": 2171, "pitch": 76, "duration": 3, "velocity": 86}, {"time": 2174, "pitch": 76, "duration": 3, "velocity": 86}, {"time": 2177, "pitch": 76, "duration": 6, "velocity": 101}, {"time": 2183, "pitch": 76, "duration": 3, "velocity": 100}, {"time": 2186, "pitch": 76, "duration": 9, "velocity": 100}, {"time": 2195, "pitch": 74, "duration": 6, "velocity": 94}, {"time": 2201, "pitch": 74, "duration": 6, "velocity": 94}, {"time": 2207, "pitch": 74, "duration": 6, "velocity": 94}, {"time": 2213, "pitch": 64, "duration": 54, "velocity": 93}, {"time": 2267, "pitch": 76, "duration": 3, "velocity": 98}, {"time": 2270, "pitch": 76, "duration": 3, "velocity": 94}, {"time": 2273, "pitch": 76, "duration": 6, "velocity": 98}, {"time": 2279, "pitch": 76, "duration": 3, "velocity": 98}, {"time": 2282, "pitch": 79, "duration": 9, "velocity": 98}, {"time": 2291, "pitch": 76, "duration": 6, "velocity": 95}, {"time": 2297, "pitch": 74, "duration": 6, "velocity": 95}, {"time": 2303, "pitch": 74, "duration": 3, "velocity": 95}, {"time": 2306, "pitch": 71, "duration": 57, "velocity": 98}, {"time": 2363, "pitch": 76, "duration": 3, "velocity": 86}, {"time": 2366, "pitch": 76, "duration": 3, "velocity": 86}, {"time": 2369, "pitch": 76, "duration": 6, "velocity": 84}, {"time": 2375, "pitch": 74, "duration": 3, "velocity": 84}, {"time": 2378, "pitch": 76, "duration": 9, "velocity": 90}, {"time": 2387, "pitch": 74, "duration": 6, "velocity": 94}, {"time": 2393, "pitch": 74, "duration": 4, "velocity": 95}, {"time": 2397, "pitch": 74, "duration": 5, "velocity": 95}, {"time": 2402, "pitch": 67, "duration": 3, "velocity": 79}, {"time": 2405, "pitch": 69, "duration": 54, "velocity": 90}, {"time": 2459, "pitch": 69, "duration": 3, "velocity": 83}, {"time": 2462, "pitch": 69, "duration": 3, "velocity": 90}, {"time": 2465, "pitch": 69, "duration": 6, "velocity": 91}, {"time": 2471, "pitch": 69, "duration": 3, "velocity": 95}, {"time": 2474, "pitch": 69, "duration": 3, "velocity": 94}, {"time": 2477, "pitch": 69, "duration": 9, "velocity": 94}, {"time": 2486, "pitch": 71, "duration": 9, "velocity": 95}, {"time": 2495, "pitch": 69, "duration": 3, "velocity": 98}, {"time": 2498, "pitch": 71, "duration": 2, "velocity": 83}, {"time": 2500, "pitch": 69, "duration": 1, "velocity": 76}, {"time": 2501, "pitch": 67, "duration": 48, "velocity": 86}]}, {"program": 0, "is_drum": false, "name": "PIANO", "notes": [{"time": 53, "pitch": 55, "duration": 43, "velocity": 79}, {"time": 59, "pitch": 62, "duration": 8, "velocity": 71}, {"time": 65, "pitch": 71, "duration": 12, "velocity": 82}, {"time": 71, "pitch": 62, "duration": 9, "velocity": 57}, {"time": 77, "pitch": 69, "duration": 8, "velocity": 73}, {"time": 83, "pitch": 62, "duration": 12, "velocity": 68}, {"time": 89, "pitch": 74, "duration": 14, "velocity": 80}, {"time": 95, "pitch": 67, "duration": 9, "velocity": 58}, {"time": 101, "pitch": 48, "duration": 43, "velocity": 81}, {"time": 107, "pitch": 52, "duration": 13, "velocity": 72}, {"time": 113, "pitch": 71, "duration": 6, "velocity": 76}, {"time": 125, "pitch": 67, "duration": 15, "velocity": 60}, {"time": 137, "pitch": 71, "duration": 7, "velocity": 58}, {"time": 149, "pitch": 55, "duration": 43, "velocity": 79}, {"time": 155, "pitch": 62, "duration": 7, "velocity": 54}, {"time": 161, "pitch": 71, "duration": 6, "velocity": 73}, {"time": 167, "pitch": 62, "duration": 8, "velocity": 56}, {"time": 173, "pitch": 69, "duration": 6, "velocity": 63}, {"time": 179, "pitch": 62, "duration": 13, "velocity": 60}, {"time": 185, "pitch": 74, "duration": 22, "velocity": 71}, {"time": 191, "pitch": 67, "duration": 12, "velocity": 71}, {"time": 197, "pitch": 48, "duration": 9, "velocity": 83}, {"time": 203, "pitch": 50, "duration": 9, "velocity": 76}, {"time": 206, "pitch": 52, "duration": 23, "velocity": 45}, {"time": 209, "pitch": 55, "duration": 21, "velocity": 75}, {"time": 215, "pitch": 71, "duration": 6, "velocity": 61}, {"time": 221, "pitch": 74, "duration": 12, "velocity": 75}, {"time": 245, "pitch": 55, "duration": 43, "velocity": 79}, {"time": 251, "pitch": 62, "duration": 8, "velocity": 71}, {"time": 257, "pitch": 71, "duration": 12, "velocity": 82}, {"time": 263, "pitch": 62, "duration": 9, "velocity": 57}, {"time": 269, "pitch": 69, "duration": 8, "velocity": 73}, {"time": 275, "pitch": 62, "duration": 12, "velocity": 68}, {"time": 281, "pitch": 74, "duration": 14, "velocity": 80}, {"time": 287, "pitch": 67, "duration": 9, "velocity": 58}, {"time": 293, "pitch": 48, "duration": 43, "velocity": 81}, {"time": 299, "pitch": 52, "duration": 13, "velocity": 72}, {"time": 305, "pitch": 71, "duration": 6, "velocity": 76}, {"time": 317, "pitch": 67, "duration": 15, "velocity": 60}, {"time": 329, "pitch": 71, "duration": 7, "velocity": 58}, {"time": 341, "pitch": 55, "duration": 43, "velocity": 79}, {"time": 347, "pitch": 62, "duration": 7, "velocity": 54}, {"time": 353, "pitch": 71, "duration": 6, "velocity": 73}, {"time": 359, "pitch": 62, "duration": 8, "velocity": 56}, {"time": 365, "pitch": 69, "duration": 6, "velocity": 63}, {"time": 371, "pitch": 62, "duration": 13, "velocity": 60}, {"time": 377, "pitch": 67, "duration": 12, "velocity": 71}, {"time": 389, "pitch": 50, "duration": 44, "velocity": 75}, {"time": 395, "pitch": 57, "duration": 9, "velocity": 68}, {"time": 401, "pitch": 62, "duration": 10, "velocity": 73}, {"time": 407, "pitch": 57, "duration": 9, "velocity": 59}, {"time": 413, "pitch": 78, "duration": 8, "velocity": 81}, {"time": 416, "pitch": 76, "duration": 8, "velocity": 81}, {"time": 419, "pitch": 74, "duration": 8, "velocity": 81}, {"time": 425, "pitch": 67, "duration": 8, "velocity": 81}, {"time": 428, "pitch": 69, "duration": 8, "velocity": 81}, {"time": 431, "pitch": 74, "duration": 8, "velocity": 81}, {"time": 437, "pitch": 55, "duration": 43, "velocity": 81}, {"time": 443, "pitch": 62, "duration": 8, "velocity": 69}, {"time": 449, "pitch": 71, "duration": 13, "velocity": 84}, {"time": 455, "pitch": 62, "duration": 8, "velocity": 43}, {"time": 461, "pitch": 74, "duration": 14, "velocity": 68}, {"time": 467, "pitch": 62, "duration": 8, "velocity": 27}, {"time": 473, "pitch": 67, "duration": 5, "velocity": 79}, {"time": 476, "pitch": 62, "duration": 6, "velocity": 59}, {"time": 479, "pitch": 67, "duration": 7, "velocity": 78}, {"time": 482, "pitch": 74, "duration": 7, "velocity": 70}, {"time": 485, "pitch": 45, "duration": 43, "velocity": 84}, {"time": 491, "pitch": 57, "duration": 9, "velocity": 62}, {"time": 497, "pitch": 69, "duration": 6, "velocity": 80}, {"time": 503, "pitch": 57, "duration": 12, "velocity": 44}, {"time": 509, "pitch": 72, "duration": 8, "velocity": 75}, {"time": 515, "pitch": 60, "duration": 11, "velocity": 34}, {"time": 521, "pitch": 76, "duration": 10, "velocity": 86}, {"time": 524, "pitch": 57, "duration": 8, "velocity": 55}, {"time": 527, "pitch": 60, "duration": 4, "velocity": 72}, {"time": 530, "pitch": 67, "duration": 9, "velocity": 76}, {"time": 533, "pitch": 50, "duration": 44, "velocity": 84}, {"time": 539, "pitch": 57, "duration": 7, "velocity": 72}, {"time": 545, "pitch": 69, "duration": 9, "velocity": 58}, {"time": 551, "pitch": 57, "duration": 13, "velocity": 63}, {"time": 557, "pitch": 76, "duration": 7, "velocity": 68}, {"time": 563, "pitch": 67, "duration": 7, "velocity": 73}, {"time": 569, "pitch": 57, "duration": 7, "velocity": 63}, {"time": 569, "pitch": 78, "duration": 6, "velocity": 81}, {"time": 575, "pitch": 72, "duration": 13, "velocity": 78}, {"time": 581, "pitch": 55, "duration": 22, "velocity": 79}, {"time": 587, "pitch": 62, "duration": 7, "velocity": 53}, {"time": 590, "pitch": 64, "duration": 7, "velocity": 53}, {"time": 593, "pitch": 67, "duration": 6, "velocity": 72}, {"time": 599, "pitch": 71, "duration": 8, "velocity": 54}, {"time": 605, "pitch": 55, "duration": 21, "velocity": 77}, {"time": 605, "pitch": 74, "duration": 13, "velocity": 75}, {"time": 611, "pitch": 62, "duration": 7, "velocity": 37}, {"time": 617, "pitch": 67, "duration": 7, "velocity": 75}, {"time": 617, "pitch": 71, "duration": 6, "velocity": 63}, {"time": 623, "pitch": 62, "duration": 5, "velocity": 57}, {"time": 623, "pitch": 69, "duration": 5, "velocity": 78}, {"time": 629, "pitch": 55, "duration": 43, "velocity": 84}, {"time": 635, "pitch": 62, "duration": 8, "velocity": 76}, {"time": 641, "pitch": 71, "duration": 7, "velocity": 82}, {"time": 647, "pitch": 62, "duration": 7, "velocity": 68}, {"time": 653, "pitch": 69, "duration": 7, "velocity": 81}, {"time": 659, "pitch": 62, "duration": 7, "velocity": 58}, {"time": 665, "pitch": 74, "duration": 18, "velocity": 76}, {"time": 671, "pitch": 67, "duration": 13, "velocity": 80}, {"time": 677, "pitch": 48, "duration": 43, "velocity": 83}, {"time": 683, "pitch": 60, "duration": 8, "velocity": 72}, {"time": 689, "pitch": 67, "duration": 8, "velocity": 79}, {"time": 695, "pitch": 60, "duration": 8, "velocity": 53}, {"time": 701, "pitch": 71, "duration": 7, "velocity": 83}, {"time": 707, "pitch": 64, "duration": 7, "velocity": 61}, {"time": 713, "pitch": 60, "duration": 6, "velocity": 60}, {"time": 713, "pitch": 69, "duration": 7, "velocity": 78}, {"time": 719, "pitch": 67, "duration": 7, "velocity": 80}, {"time": 725, "pitch": 55, "duration": 48, "velocity": 80}, {"time": 731, "pitch": 62, "duration": 7, "velocity": 73}, {"time": 737, "pitch": 71, "duration": 6, "velocity": 86}, {"time": 743, "pitch": 62, "duration": 7, "velocity": 59}, {"time": 749, "pitch": 69, "duration": 14, "velocity": 73}, {"time": 755, "pitch": 62, "duration": 13, "velocity": 57}, {"time": 761, "pitch": 74, "duration": 15, "velocity": 79}, {"time": 767, "pitch": 67, "duration": 9, "velocity": 72}, {"time": 773, "pitch": 50, "duration": 45, "velocity": 83}, {"time": 779, "pitch": 57, "duration": 15, "velocity": 73}, {"time": 785, "pitch": 74, "duration": 10, "velocity": 78}, {"time": 791, "pitch": 62, "duration": 8, "velocity": 58}, {"time": 797, "pitch": 57, "duration": 20, "velocity": 59}, {"time": 797, "pitch": 69, "duration": 5, "velocity": 76}, {"time": 797, "pitch": 78, "duration": 3, "velocity": 72}, {"time": 800, "pitch": 76, "duration": 3, "velocity": 72}, {"time": 803, "pitch": 62, "duration": 7, "velocity": 62}, {"time": 803, "pitch": 74, "duration": 3, "velocity": 72}, {"time": 809, "pitch": 67, "duration": 3, "velocity": 72}, {"time": 812, "pitch": 69, "duration": 3, "velocity": 72}, {"time": 815, "pitch": 74, "duration": 3, "velocity": 72}, {"time": 818, "pitch": 62, "duration": 5, "velocity": 57}, {"time": 821, "pitch": 55, "duration": 46, "velocity": 75}, {"time": 827, "pitch": 62, "duration": 7, "velocity": 60}, {"time": 833, "pitch": 71, "duration": 7, "velocity": 82}, {"time": 839, "pitch": 62, "duration": 7, "velocity": 61}, {"time": 845, "pitch": 69, "duration": 9, "velocity": 75}, {"time": 851, "pitch": 62, "duration": 7, "velocity": 56}, {"time": 857, "pitch": 74, "duration": 7, "velocity": 77}, {"time": 860, "pitch": 62, "duration": 4, "velocity": 57}, {"time": 863, "pitch": 67, "duration": 3, "velocity": 69}, {"time": 866, "pitch": 69, "duration": 8, "velocity": 70}, {"time": 869, "pitch": 57, "duration": 43, "velocity": 72}, {"time": 875, "pitch": 64, "duration": 7, "velocity": 62}, {"time": 881, "pitch": 69, "duration": 7, "velocity": 72}, {"time": 887, "pitch": 64, "duration": 7, "velocity": 62}, {"time": 893, "pitch": 72, "duration": 7, "velocity": 78}, {"time": 899, "pitch": 64, "duration": 7, "velocity": 58}, {"time": 905, "pitch": 71, "duration": 6, "velocity": 80}, {"time": 911, "pitch": 67, "duration": 10, "velocity": 63}, {"time": 917, "pitch": 50, "duration": 45, "velocity": 80}, {"time": 923, "pitch": 62, "duration": 7, "velocity": 63}, {"time": 929, "pitch": 69, "duration": 7, "velocity": 75}, {"time": 935, "pitch": 62, "duration": 7, "velocity": 69}, {"time": 941, "pitch": 72, "duration": 6, "velocity": 83}, {"time": 947, "pitch": 62, "duration": 10, "velocity": 58}, {"time": 962, "pitch": 67, "duration": 7, "velocity": 76}, {"time": 965, "pitch": 55, "duration": 45, "velocity": 75}, {"time": 971, "pitch": 62, "duration": 3, "velocity": 68}, {"time": 977, "pitch": 67, "duration": 7, "velocity": 73}, {"time": 983, "pitch": 62, "duration": 7, "velocity": 58}, {"time": 983, "pitch": 71, "duration": 9, "velocity": 71}, {"time": 989, "pitch": 74, "duration": 12, "velocity": 75}, {"time": 995, "pitch": 62, "duration": 9, "velocity": 50}, {"time": 1001, "pitch": 69, "duration": 10, "velocity": 76}, {"time": 1007, "pitch": 62, "duration": 5, "velocity": 68}, {"time": 1013, "pitch": 60, "duration": 42, "velocity": 82}, {"time": 1019, "pitch": 64, "duration": 8, "velocity": 63}, {"time": 1022, "pitch": 67, "duration": 11, "velocity": 73}, {"time": 1025, "pitch": 72, "duration": 7, "velocity": 79}, {"time": 1031, "pitch": 64, "duration": 7, "velocity": 59}, {"time": 1037, "pitch": 67, "duration": 7, "velocity": 1}, {"time": 1037, "pitch": 74, "duration": 7, "velocity": 83}, {"time": 1043, "pitch": 64, "duration": 7, "velocity": 55}, {"time": 1049, "pitch": 67, "duration": 2, "velocity": 37}, {"time": 1049, "pitch": 72, "duration": 20, "velocity": 84}, {"time": 1055, "pitch": 71, "duration": 11, "velocity": 80}, {"time": 1061, "pitch": 52, "duration": 47, "velocity": 79}, {"time": 1067, "pitch": 59, "duration": 4, "velocity": 71}, {"time": 1070, "pitch": 64, "duration": 4, "velocity": 80}, {"time": 1073, "pitch": 67, "duration": 6, "velocity": 83}, {"time": 1079, "pitch": 59, "duration": 8, "velocity": 59}, {"time": 1085, "pitch": 71, "duration": 24, "velocity": 83}, {"time": 1091, "pitch": 59, "duration": 7, "velocity": 54}, {"time": 1097, "pitch": 69, "duration": 11, "velocity": 76}, {"time": 1103, "pitch": 67, "duration": 5, "velocity": 73}, {"time": 1109, "pitch": 48, "duration": 42, "velocity": 82}, {"time": 1115, "pitch": 55, "duration": 37, "velocity": 75}, {"time": 1118, "pitch": 60, "duration": 6, "velocity": 73}, {"time": 1121, "pitch": 67, "duration": 7, "velocity": 80}, {"time": 1127, "pitch": 60, "duration": 9, "velocity": 71}, {"time": 1133, "pitch": 64, "duration": 12, "velocity": 82}, {"time": 1139, "pitch": 60, "duration": 8, "velocity": 56}, {"time": 1145, "pitch": 67, "duration": 18, "velocity": 82}, {"time": 1151, "pitch": 60, "duration": 6, "velocity": 68}, {"time": 1157, "pitch": 55, "duration": 45, "velocity": 84}, {"time": 1163, "pitch": 62, "duration": 9, "velocity": 75}, {"time": 1169, "pitch": 71, "duration": 6, "velocity": 78}, {"time": 1175, "pitch": 62, "duration": 10, "velocity": 37}, {"time": 1181, "pitch": 69, "duration": 9, "velocity": 69}, {"time": 1187, "pitch": 62, "duration": 7, "velocity": 57}, {"time": 1190, "pitch": 67, "duration": 7, "velocity": 62}, {"time": 1193, "pitch": 74, "duration": 6, "velocity": 82}, {"time": 1196, "pitch": 62, "duration": 4, "velocity": 68}, {"time": 1199, "pitch": 69, "duration": 3, "velocity": 78}, {"time": 1202, "pitch": 71, "duration": 8, "velocity": 79}, {"time": 1205, "pitch": 48, "duration": 42, "velocity": 78}, {"time": 1211, "pitch": 55, "duration": 37, "velocity": 63}, {"time": 1214, "pitch": 60, "duration": 6, "velocity": 60}, {"time": 1217, "pitch": 72, "duration": 12, "velocity": 84}, {"time": 1223, "pitch": 60, "duration": 8, "velocity": 43}, {"time": 1229, "pitch": 67, "duration": 8, "velocity": 82}, {"time": 1235, "pitch": 60, "duration": 7, "velocity": 80}, {"time": 1241, "pitch": 62, "duration": 6, "velocity": 83}, {"time": 1244, "pitch": 60, "duration": 3, "velocity": 69}, {"time": 1247, "pitch": 64, "duration": 4, "velocity": 82}, {"time": 1250, "pitch": 67, "duration": 5, "velocity": 78}, {"time": 1253, "pitch": 45, "duration": 5, "velocity": 86}, {"time": 1259, "pitch": 57, "duration": 2, "velocity": 73}, {"time": 1265, "pitch": 60, "duration": 24, "velocity": 79}, {"time": 1271, "pitch": 64, "duration": 6, "velocity": 82}, {"time": 1277, "pitch": 72, "duration": 6, "velocity": 82}, {"time": 1283, "pitch": 69, "duration": 6, "velocity": 76}, {"time": 1289, "pitch": 62, "duration": 3, "velocity": 72}, {"time": 1289, "pitch": 67, "duration": 6, "velocity": 75}, {"time": 1295, "pitch": 64, "duration": 2, "velocity": 59}, {"time": 1295, "pitch": 69, "duration": 6, "velocity": 75}, {"time": 1301, "pitch": 50, "duration": 19, "velocity": 82}, {"time": 1301, "pitch": 62, "duration": 7, "velocity": 78}, {"time": 1307, "pitch": 57, "duration": 8, "velocity": 73}, {"time": 1310, "pitch": 62, "duration": 9, "velocity": 72}, {"time": 1313, "pitch": 72, "duration": 6, "velocity": 84}, {"time": 1319, "pitch": 57, "duration": 7, "velocity": 75}, {"time": 1322, "pitch": 62, "duration": 4, "velocity": 56}, {"time": 1325, "pitch": 50, "duration": 20, "velocity": 80}, {"time": 1325, "pitch": 71, "duration": 7, "velocity": 86}, {"time": 1331, "pitch": 57, "duration": 13, "velocity": 67}, {"time": 1334, "pitch": 62, "duration": 5, "velocity": 68}, {"time": 1337, "pitch": 74, "duration": 5, "velocity": 83}, {"time": 1340, "pitch": 69, "duration": 4, "velocity": 76}, {"time": 1343, "pitch": 67, "duration": 4, "velocity": 78}, {"time": 1346, "pitch": 62, "duration": 5, "velocity": 67}, {"time": 1349, "pitch": 43, "duration": 42, "velocity": 80}, {"time": 1349, "pitch": 55, "duration": 42, "velocity": 80}, {"time": 1355, "pitch": 62, "duration": 4, "velocity": 75}, {"time": 1358, "pitch": 64, "duration": 4, "velocity": 79}, {"time": 1361, "pitch": 67, "duration": 6, "velocity": 78}, {"time": 1367, "pitch": 71, "duration": 6, "velocity": 82}, {"time": 1373, "pitch": 74, "duration": 18, "velocity": 82}, {"time": 1397, "pitch": 55, "duration": 43, "velocity": 79}, {"time": 1403, "pitch": 62, "duration": 8, "velocity": 71}, {"time": 1409, "pitch": 71, "duration": 12, "velocity": 82}, {"time": 1415, "pitch": 62, "duration": 9, "velocity": 57}, {"time": 1421, "pitch": 69, "duration": 8, "velocity": 73}, {"time": 1427, "pitch": 62, "duration": 12, "velocity": 68}, {"time": 1433, "pitch": 74, "duration": 14, "velocity": 80}, {"time": 1439, "pitch": 67, "duration": 9, "velocity": 58}, {"time": 1445, "pitch": 48, "duration": 43, "velocity": 81}, {"time": 1451, "pitch": 52, "duration": 13, "velocity": 72}, {"time": 1457, "pitch": 71, "duration": 6, "velocity": 76}, {"time": 1469, "pitch": 67, "duration": 15, "velocity": 60}, {"time": 1481, "pitch": 71, "duration": 7, "velocity": 58}, {"time": 1493, "pitch": 55, "duration": 43, "velocity": 79}, {"time": 1499, "pitch": 62, "duration": 7, "velocity": 54}, {"time": 1505, "pitch": 71, "duration": 6, "velocity": 73}, {"time": 1511, "pitch": 62, "duration": 8, "velocity": 56}, {"time": 1517, "pitch": 69, "duration": 6, "velocity": 63}, {"time": 1523, "pitch": 62, "duration": 13, "velocity": 60}, {"time": 1529, "pitch": 67, "duration": 18, "velocity": 71}, {"time": 1535, "pitch": 67, "duration": 12, "velocity": 71}, {"time": 1541, "pitch": 50, "duration": 9, "velocity": 83}, {"time": 1547, "pitch": 57, "duration": 9, "velocity": 83}, {"time": 1553, "pitch": 62, "duration": 9, "velocity": 83}, {"time": 1559, "pitch": 57, "duration": 9, "velocity": 83}, {"time": 1565, "pitch": 66, "duration": 3, "velocity": 83}, {"time": 1568, "pitch": 64, "duration": 3, "velocity": 83}, {"time": 1571, "pitch": 62, "duration": 3, "velocity": 83}, {"time": 1577, "pitch": 55, "duration": 3, "velocity": 83}, {"time": 1580, "pitch": 57, "duration": 3, "velocity": 83}, {"time": 1583, "pitch": 62, "duration": 3, "velocity": 83}, {"time": 1589, "pitch": 55, "duration": 43, "velocity": 79}, {"time": 1595, "pitch": 62, "duration": 8, "velocity": 71}, {"time": 1601, "pitch": 71, "duration": 12, "velocity": 82}, {"time": 1607, "pitch": 62, "duration": 9, "velocity": 57}, {"time": 1613, "pitch": 69, "duration": 8, "velocity": 73}, {"time": 1619, "pitch": 62, "duration": 12, "velocity": 68}, {"time": 1625, "pitch": 74, "duration": 14, "velocity": 80}, {"time": 1631, "pitch": 67, "duration": 9, "velocity": 58}, {"time": 1637, "pitch": 45, "duration": 43, "velocity": 81}, {"time": 1643, "pitch": 52, "duration": 11, "velocity": 72}, {"time": 1649, "pitch": 57, "duration": 6, "velocity": 76}, {"time": 1655, "pitch": 52, "duration": 11, "velocity": 72}, {"time": 1661, "pitch": 60, "duration": 15, "velocity": 60}, {"time": 1673, "pitch": 76, "duration": 7, "velocity": 58}, {"time": 1685, "pitch": 50, "duration": 43, "velocity": 79}, {"time": 1691, "pitch": 57, "duration": 7, "velocity": 54}, {"time": 1697, "pitch": 62, "duration": 6, "velocity": 73}, {"time": 1703, "pitch": 57, "duration": 8, "velocity": 56}, {"time": 1709, "pitch": 64, "duration": 6, "velocity": 63}, {"time": 1715, "pitch": 62, "duration": 13, "velocity": 60}, {"time": 1721, "pitch": 66, "duration": 22, "velocity": 71}, {"time": 1733, "pitch": 43, "duration": 12, "velocity": 71}, {"time": 1739, "pitch": 50, "duration": 4, "velocity": 71}, {"time": 1742, "pitch": 52, "duration": 4, "velocity": 71}, {"time": 1745, "pitch": 55, "duration": 4, "velocity": 71}, {"time": 1751, "pitch": 59, "duration": 4, "velocity": 71}, {"time": 1757, "pitch": 62, "duration": 4, "velocity": 71}, {"time": 1769, "pitch": 55, "duration": 4, "velocity": 71}, {"time": 1775, "pitch": 50, "duration": 4, "velocity": 71}, {"time": 1781, "pitch": 48, "duration": 40, "velocity": 71}, {"time": 1787, "pitch": 55, "duration": 35, "velocity": 69}, {"time": 1793, "pitch": 60, "duration": 7, "velocity": 69}, {"time": 1805, "pitch": 67, "duration": 7, "velocity": 56}, {"time": 1805, "pitch": 69, "duration": 2, "velocity": 58}, {"time": 1811, "pitch": 60, "duration": 10, "velocity": 30}, {"time": 1817, "pitch": 64, "duration": 13, "velocity": 82}, {"time": 1829, "pitch": 52, "duration": 45, "velocity": 80}, {"time": 1835, "pitch": 59, "duration": 39, "velocity": 67}, {"time": 1841, "pitch": 64, "duration": 7, "velocity": 62}, {"time": 1850, "pitch": 64, "duration": 3, "velocity": 38}, {"time": 1853, "pitch": 71, "duration": 7, "velocity": 83}, {"time": 1859, "pitch": 64, "duration": 7, "velocity": 40}, {"time": 1865, "pitch": 74, "duration": 14, "velocity": 84}, {"time": 1871, "pitch": 64, "duration": 3, "velocity": 60}, {"time": 1877, "pitch": 60, "duration": 34, "velocity": 80}, {"time": 1883, "pitch": 64, "duration": 8, "velocity": 56}, {"time": 1889, "pitch": 72, "duration": 6, "velocity": 83}, {"time": 1895, "pitch": 64, "duration": 7, "velocity": 61}, {"time": 1901, "pitch": 76, "duration": 7, "velocity": 78}, {"time": 1907, "pitch": 64, "duration": 8, "velocity": 71}, {"time": 1913, "pitch": 60, "duration": 7, "velocity": 75}, {"time": 1913, "pitch": 74, "duration": 13, "velocity": 83}, {"time": 1919, "pitch": 72, "duration": 7, "velocity": 80}, {"time": 1925, "pitch": 55, "duration": 38, "velocity": 68}, {"time": 1931, "pitch": 62, "duration": 7, "velocity": 73}, {"time": 1937, "pitch": 69, "duration": 8, "velocity": 80}, {"time": 1943, "pitch": 62, "duration": 7, "velocity": 62}, {"time": 1949, "pitch": 71, "duration": 6, "velocity": 79}, {"time": 1955, "pitch": 62, "duration": 10, "velocity": 52}, {"time": 1961, "pitch": 74, "duration": 8, "velocity": 80}, {"time": 1964, "pitch": 55, "duration": 6, "velocity": 72}, {"time": 1967, "pitch": 62, "duration": 5, "velocity": 71}, {"time": 1970, "pitch": 69, "duration": 9, "velocity": 78}, {"time": 1973, "pitch": 48, "duration": 42, "velocity": 84}, {"time": 1979, "pitch": 64, "duration": 8, "velocity": 62}, {"time": 1985, "pitch": 72, "duration": 6, "velocity": 83}, {"time": 1991, "pitch": 64, "duration": 8, "velocity": 73}, {"time": 1997, "pitch": 74, "duration": 6, "velocity": 82}, {"time": 2003, "pitch": 60, "duration": 8, "velocity": 33}, {"time": 2009, "pitch": 64, "duration": 15, "velocity": 76}, {"time": 2009, "pitch": 72, "duration": 19, "velocity": 82}, {"time": 2015, "pitch": 60, "duration": 2, "velocity": 56}, {"time": 2021, "pitch": 57, "duration": 43, "velocity": 84}, {"time": 2027, "pitch": 60, "duration": 10, "velocity": 80}, {"time": 2033, "pitch": 69, "duration": 6, "velocity": 80}, {"time": 2039, "pitch": 64, "duration": 13, "velocity": 71}, {"time": 2045, "pitch": 60, "duration": 7, "velocity": 78}, {"time": 2045, "pitch": 72, "duration": 7, "velocity": 83}, {"time": 2051, "pitch": 69, "duration": 6, "velocity": 76}, {"time": 2057, "pitch": 60, "duration": 6, "velocity": 68}, {"time": 2057, "pitch": 67, "duration": 6, "velocity": 72}, {"time": 2057, "pitch": 71, "duration": 6, "velocity": 83}, {"time": 2063, "pitch": 64, "duration": 3, "velocity": 57}, {"time": 2063, "pitch": 69, "duration": 6, "velocity": 76}, {"time": 2069, "pitch": 50, "duration": 43, "velocity": 77}, {"time": 2069, "pitch": 62, "duration": 7, "velocity": 74}, {"time": 2069, "pitch": 67, "duration": 7, "velocity": 78}, {"time": 2075, "pitch": 57, "duration": 7, "velocity": 68}, {"time": 2081, "pitch": 60, "duration": 5, "velocity": 72}, {"time": 2081, "pitch": 67, "duration": 7, "velocity": 74}, {"time": 2087, "pitch": 57, "duration": 8, "velocity": 62}, {"time": 2093, "pitch": 60, "duration": 5, "velocity": 63}, {"time": 2093, "pitch": 64, "duration": 6, "velocity": 73}, {"time": 2093, "pitch": 67, "duration": 6, "velocity": 80}, {"time": 2099, "pitch": 62, "duration": 7, "velocity": 63}, {"time": 2099, "pitch": 66, "duration": 6, "velocity": 84}, {"time": 2105, "pitch": 57, "duration": 6, "velocity": 71}, {"time": 2105, "pitch": 64, "duration": 7, "velocity": 73}, {"time": 2105, "pitch": 67, "duration": 7, "velocity": 76}, {"time": 2111, "pitch": 69, "duration": 2, "velocity": 75}, {"time": 2117, "pitch": 43, "duration": 6, "velocity": 78}, {"time": 2117, "pitch": 62, "duration": 6, "velocity": 62}, {"time": 2117, "pitch": 67, "duration": 6, "velocity": 69}, {"time": 2117, "pitch": 71, "duration": 5, "velocity": 78}, {"time": 2123, "pitch": 55, "duration": 7, "velocity": 59}, {"time": 2129, "pitch": 57, "duration": 31, "velocity": 61}, {"time": 2129, "pitch": 62, "duration": 6, "velocity": 73}, {"time": 2129, "pitch": 72, "duration": 9, "velocity": 83}, {"time": 2135, "pitch": 60, "duration": 7, "velocity": 76}, {"time": 2141, "pitch": 71, "duration": 7, "velocity": 72}, {"time": 2147, "pitch": 67, "duration": 8, "velocity": 75}, {"time": 2153, "pitch": 60, "duration": 7, "velocity": 78}, {"time": 2159, "pitch": 69, "duration": 6, "velocity": 78}, {"time": 2165, "pitch": 48, "duration": 40, "velocity": 71}, {"time": 2171, "pitch": 55, "duration": 35, "velocity": 69}, {"time": 2177, "pitch": 60, "duration": 7, "velocity": 69}, {"time": 2189, "pitch": 67, "duration": 7, "velocity": 56}, {"time": 2189, "pitch": 69, "duration": 2, "velocity": 58}, {"time": 2195, "pitch": 60, "duration": 10, "velocity": 30}, {"time": 2201, "pitch": 64, "duration": 13, "velocity": 82}, {"time": 2213, "pitch": 52, "duration": 45, "velocity": 80}, {"time": 2219, "pitch": 59, "duration": 39, "velocity": 67}, {"time": 2225, "pitch": 64, "duration": 7, "velocity": 62}, {"time": 2234, "pitch": 64, "duration": 3, "velocity": 38}, {"time": 2237, "pitch": 71, "duration": 7, "velocity": 83}, {"time": 2243, "pitch": 64, "duration": 7, "velocity": 40}, {"time": 2249, "pitch": 74, "duration": 14, "velocity": 84}, {"time": 2255, "pitch": 64, "duration": 3, "velocity": 60}, {"time": 2261, "pitch": 60, "duration": 34, "velocity": 80}, {"time": 2267, "pitch": 64, "duration": 8, "velocity": 56}, {"time": 2273, "pitch": 72, "duration": 6, "velocity": 83}, {"time": 2279, "pitch": 64, "duration": 7, "velocity": 61}, {"time": 2285, "pitch": 76, "duration": 7, "velocity": 78}, {"time": 2291, "pitch": 64, "duration": 8, "velocity": 71}, {"time": 2297, "pitch": 60, "duration": 7, "velocity": 75}, {"time": 2297, "pitch": 74, "duration": 13, "velocity": 83}, {"time": 2303, "pitch": 72, "duration": 7, "velocity": 80}, {"time": 2309, "pitch": 55, "duration": 38, "velocity": 68}, {"time": 2315, "pitch": 62, "duration": 7, "velocity": 73}, {"time": 2321, "pitch": 69, "duration": 8, "velocity": 80}, {"time": 2327, "pitch": 62, "duration": 7, "velocity": 62}, {"time": 2333, "pitch": 71, "duration": 6, "velocity": 79}, {"time": 2339, "pitch": 62, "duration": 10, "velocity": 52}, {"time": 2345, "pitch": 74, "duration": 8, "velocity": 80}, {"time": 2348, "pitch": 55, "duration": 6, "velocity": 72}, {"time": 2351, "pitch": 62, "duration": 5, "velocity": 71}, {"time": 2354, "pitch": 69, "duration": 9, "velocity": 78}, {"time": 2357, "pitch": 48, "duration": 42, "velocity": 84}, {"time": 2363, "pitch": 64, "duration": 8, "velocity": 62}, {"time": 2369, "pitch": 72, "duration": 6, "velocity": 83}, {"time": 2375, "pitch": 64, "duration": 8, "velocity": 73}, {"time": 2381, "pitch": 74, "duration": 6, "velocity": 82}, {"time": 2387, "pitch": 60, "duration": 8, "velocity": 33}, {"time": 2393, "pitch": 64, "duration": 15, "velocity": 76}, {"time": 2393, "pitch": 72, "duration": 19, "velocity": 82}, {"time": 2399, "pitch": 60, "duration": 2, "velocity": 56}, {"time": 2405, "pitch": 57, "duration": 43, "velocity": 84}, {"time": 2411, "pitch": 60, "duration": 10, "velocity": 80}, {"time": 2417, "pitch": 69, "duration": 6, "velocity": 80}, {"time": 2423, "pitch": 64, "duration": 13, "velocity": 71}, {"time": 2429, "pitch": 60, "duration": 7, "velocity": 78}, {"time": 2429, "pitch": 72, "duration": 7, "velocity": 83}, {"time": 2435, "pitch": 69, "duration": 6, "velocity": 76}, {"time": 2441, "pitch": 60, "duration": 6, "velocity": 68}, {"time": 2441, "pitch": 67, "duration": 6, "velocity": 72}, {"time": 2441, "pitch": 71, "duration": 6, "velocity": 83}, {"time": 2447, "pitch": 64, "duration": 3, "velocity": 57}, {"time": 2447, "pitch": 69, "duration": 6, "velocity": 76}, {"time": 2453, "pitch": 50, "duration": 43, "velocity": 77}, {"time": 2453, "pitch": 62, "duration": 7, "velocity": 74}, {"time": 2453, "pitch": 67, "duration": 7, "velocity": 78}, {"time": 2459, "pitch": 57, "duration": 7, "velocity": 68}, {"time": 2465, "pitch": 60, "duration": 5, "velocity": 72}, {"time": 2465, "pitch": 67, "duration": 7, "velocity": 74}, {"time": 2471, "pitch": 57, "duration": 8, "velocity": 62}, {"time": 2477, "pitch": 60, "duration": 5, "velocity": 63}, {"time": 2477, "pitch": 64, "duration": 6, "velocity": 73}, {"time": 2477, "pitch": 67, "duration": 6, "velocity": 80}, {"time": 2483, "pitch": 62, "duration": 7, "velocity": 63}, {"time": 2483, "pitch": 66, "duration": 6, "velocity": 84}, {"time": 2489, "pitch": 57, "duration": 6, "velocity": 71}, {"time": 2489, "pitch": 64, "duration": 7, "velocity": 73}, {"time": 2489, "pitch": 67, "duration": 7, "velocity": 76}, {"time": 2495, "pitch": 69, "duration": 2, "velocity": 75}, {"time": 2501, "pitch": 43, "duration": 6, "velocity": 78}, {"time": 2501, "pitch": 62, "duration": 6, "velocity": 62}, {"time": 2501, "pitch": 67, "duration": 6, "velocity": 69}, {"time": 2501, "pitch": 71, "duration": 5, "velocity": 78}, {"time": 2507, "pitch": 55, "duration": 7, "velocity": 59}, {"time": 2513, "pitch": 57, "duration": 31, "velocity": 61}, {"time": 2513, "pitch": 62, "duration": 6, "velocity": 73}, {"time": 2513, "pitch": 72, "duration": 9, "velocity": 83}, {"time": 2519, "pitch": 60, "duration": 7, "velocity": 76}, {"time": 2525, "pitch": 71, "duration": 7, "velocity": 72}, {"time": 2531, "pitch": 67, "duration": 8, "velocity": 75}, {"time": 2537, "pitch": 60, "duration": 7, "velocity": 78}, {"time": 2543, "pitch": 69, "duration": 6, "velocity": 78}, {"time": 2549, "pitch": 55, "duration": 43, "velocity": 79}, {"time": 2555, "pitch": 62, "duration": 8, "velocity": 71}, {"time": 2561, "pitch": 71, "duration": 12, "velocity": 82}, {"time": 2567, "pitch": 62, "duration": 9, "velocity": 57}, {"time": 2573, "pitch": 69, "duration": 8, "velocity": 73}, {"time": 2579, "pitch": 62, "duration": 12, "velocity": 68}, {"time": 2585, "pitch": 74, "duration": 14, "velocity": 80}, {"time": 2591, "pitch": 67, "duration": 9, "velocity": 58}, {"time": 2597, "pitch": 48, "duration": 43, "velocity": 81}, {"time": 2603, "pitch": 52, "duration": 13, "velocity": 72}, {"time": 2609, "pitch": 71, "duration": 6, "velocity": 76}, {"time": 2621, "pitch": 67, "duration": 15, "velocity": 60}, {"time": 2633, "pitch": 71, "duration": 7, "velocity": 58}, {"time": 2645, "pitch": 55, "duration": 43, "velocity": 79}, {"time": 2651, "pitch": 62, "duration": 7, "velocity": 54}, {"time": 2657, "pitch": 71, "duration": 6, "velocity": 73}, {"time": 2663, "pitch": 62, "duration": 8, "velocity": 56}, {"time": 2669, "pitch": 69, "duration": 6, "velocity": 63}, {"time": 2675, "pitch": 62, "duration": 13, "velocity": 60}, {"time": 2681, "pitch": 74, "duration": 22, "velocity": 71}, {"time": 2687, "pitch": 67, "duration": 12, "velocity": 71}, {"time": 2693, "pitch": 48, "duration": 9, "velocity": 83}, {"time": 2699, "pitch": 50, "duration": 9, "velocity": 76}, {"time": 2702, "pitch": 52, "duration": 23, "velocity": 45}, {"time": 2705, "pitch": 55, "duration": 21, "velocity": 75}, {"time": 2711, "pitch": 71, "duration": 6, "velocity": 61}, {"time": 2717, "pitch": 74, "duration": 12, "velocity": 75}, {"time": 2741, "pitch": 55, "duration": 64, "velocity": 76}, {"time": 2747, "pitch": 62, "duration": 5, "velocity": 68}, {"time": 2750, "pitch": 64, "duration": 5, "velocity": 75}, {"time": 2753, "pitch": 67, "duration": 7, "velocity": 71}, {"time": 2759, "pitch": 71, "duration": 6, "velocity": 84}, {"time": 2768, "pitch": 74, "duration": 23, "velocity": 76}, {"time": 2783, "pitch": 76, "duration": 3, "velocity": 71}], "annotations": [{"time": 56, "annotation": {"number": 64, "value": 127}, "group": "control_change"}, {"time": 102, "annotation": {"number": 64, "value": 0}, "group": "control_change"}, {"time": 107, "annotation": {"number": 64, "value": 127}, "group": "control_change"}, {"time": 150, "annotation": {"number": 64, "value": 0}, "group": "control_change"}, {"time": 154, "annotation": {"number": 64, "value": 127}, "group": "control_change"}, {"time": 197, "annotation": {"number": 64, "value": 0}, "group": "control_change"}, {"time": 200, "annotation": {"number": 64, "value": 127}, "group": "control_change"}, {"time": 245, "annotation": {"number": 64, "value": 0}, "group": "control_change"}, {"time": 248, "annotation": {"number": 64, "value": 127}, "group": "control_change"}, {"time": 294, "annotation": {"number": 64, "value": 0}, "group": "control_change"}, {"time": 299, "annotation": {"number": 64, "value": 127}, "group": "control_change"}, {"time": 342, "annotation": {"number": 64, "value": 0}, "group": "control_change"}, {"time": 346, "annotation": {"number": 64, "value": 127}, "group": "control_change"}, {"time": 389, "annotation": {"number": 64, "value": 0}, "group": "control_change"}, {"time": 392, "annotation": {"number": 64, "value": 127}, "group": "control_change"}, {"time": 437, "annotation": {"number": 64, "value": 0}, "group": "control_change"}, {"time": 439, "annotation": {"number": 64, "value": 127}, "group": "control_change"}, {"time": 485, "annotation": {"number": 64, "value": 0}, "group": "control_change"}, {"time": 489, "annotation": {"number": 64, "value": 127}, "group": "control_change"}, {"time": 525, "annotation": {"number": 64, "value": 0}, "group": "control_change"}, {"time": 539, "annotation": {"number": 64, "value": 127}, "group": "control_change"}, {"time": 577, "annotation": {"number": 64, "value": 0}, "group": "control_change"}, {"time": 586, "annotation": {"number": 64, "value": 127}, "group": "control_change"}, {"time": 607, "annotation": {"number": 64, "value": 0}, "group": "control_change"}, {"time": 636, "annotation": {"number": 64, "value": 127}, "group": "control_change"}, {"time": 677, "annotation": {"number": 64, "value": 0}, "group": "control_change"}, {"time": 683, "annotation": {"number": 64, "value": 127}, "group": "control_change"}, {"time": 724, "annotation": {"number": 64, "value": 0}, "group": "control_change"}, {"time": 731, "annotation": {"number": 64, "value": 127}, "group": "control_change"}, {"time": 773, "annotation": {"number": 64, "value": 0}, "group": "control_change"}, {"time": 775, "annotation": {"number": 64, "value": 127}, "group": "control_change"}, {"time": 812, "annotation": {"number": 64, "value": 0}, "group": "control_change"}, {"time": 825, "annotation": {"number": 64, "value": 127}, "group": "control_change"}, {"time": 869, "annotation": {"number": 64, "value": 0}, "group": "control_change"}, {"time": 872, "annotation": {"number": 64, "value": 127}, "group": "control_change"}, {"time": 888, "annotation": {"number": 64, "value": 0}, "group": "control_change"}, {"time": 896, "annotation": {"number": 64, "value": 127}, "group": "control_change"}, {"time": 918, "annotation": {"number": 64, "value": 0}, "group": "control_change"}, {"time": 924, "annotation": {"number": 64, "value": 127}, "group": "control_change"}, {"time": 965, "annotation": {"number": 64, "value": 0}, "group": "control_change"}, {"time": 969, "annotation": {"number": 64, "value": 127}, "group": "control_change"}, {"time": 1000, "annotation": {"number": 64, "value": 0}, "group": "control_change"}, {"time": 1003, "annotation": {"number": 64, "value": 127}, "group": "control_change"}, {"time": 1013, "annotation": {"number": 64, "value": 0}, "group": "control_change"}, {"time": 1014, "annotation": {"number": 64, "value": 0}, "group": "control_change"}, {"time": 1015, "annotation": {"number": 64, "value": 127}, "group": "control_change"}, {"time": 1019, "annotation": {"number": 64, "value": 127}, "group": "control_change"}, {"time": 1020, "annotation": {"number": 64, "value": 0}, "group": "control_change"}, {"time": 1021, "annotation": {"number": 64, "value": 127}, "group": "control_change"}, {"time": 1021, "annotation": {"number": 64, "value": 0}, "group": "control_change"}, {"time": 1060, "annotation": {"number": 64, "value": 0}, "group": "control_change"}, {"time": 1063, "annotation": {"number": 64, "value": 127}, "group": "control_change"}, {"time": 1109, "annotation": {"number": 64, "value": 0}, "group": "control_change"}, {"time": 1113, "annotation": {"number": 64, "value": 127}, "group": "control_change"}, {"time": 1157, "annotation": {"number": 64, "value": 0}, "group": "control_change"}, {"time": 1159, "annotation": {"number": 64, "value": 127}, "group": "control_change"}, {"time": 1204, "annotation": {"number": 64, "value": 0}, "group": "control_change"}, {"time": 1207, "annotation": {"number": 64, "value": 127}, "group": "control_change"}, {"time": 1252, "annotation": {"number": 64, "value": 0}, "group": "control_change"}, {"time": 1252, "annotation": {"number": 64, "value": 127}, "group": "control_change"}, {"time": 1255, "annotation": {"number": 64, "value": 127}, "group": "control_change"}, {"time": 1301, "annotation": {"number": 64, "value": 0}, "group": "control_change"}, {"time": 1308, "annotation": {"number": 64, "value": 127}, "group": "control_change"}, {"time": 1325, "annotation": {"number": 64, "value": 0}, "group": "control_change"}, {"time": 1330, "annotation": {"number": 64, "value": 127}, "group": "control_change"}, {"time": 1348, "annotation": {"number": 64, "value": 0}, "group": "control_change"}, {"time": 1351, "annotation": {"number": 64, "value": 127}, "group": "control_change"}, {"time": 1352, "annotation": {"number": 64, "value": 0}, "group": "control_change"}, {"time": 1396, "annotation": {"number": 64, "value": 0}, "group": "control_change"}, {"time": 1400, "annotation": {"number": 64, "value": 127}, "group": "control_change"}, {"time": 1446, "annotation": {"number": 64, "value": 0}, "group": "control_change"}, {"time": 1451, "annotation": {"number": 64, "value": 127}, "group": "control_change"}, {"time": 1494, "annotation": {"number": 64, "value": 0}, "group": "control_change"}, {"time": 1498, "annotation": {"number": 64, "value": 127}, "group": "control_change"}, {"time": 1541, "annotation": {"number": 64, "value": 0}, "group": "control_change"}, {"time": 1544, "annotation": {"number": 64, "value": 127}, "group": "control_change"}, {"time": 1589, "annotation": {"number": 64, "value": 0}, "group": "control_change"}, {"time": 1592, "annotation": {"number": 64, "value": 127}, "group": "control_change"}, {"time": 1638, "annotation": {"number": 64, "value": 0}, "group": "control_change"}, {"time": 1643, "annotation": {"number": 64, "value": 127}, "group": "control_change"}, {"time": 1686, "annotation": {"number": 64, "value": 0}, "group": "control_change"}, {"time": 1690, "annotation": {"number": 64, "value": 127}, "group": "control_change"}, {"time": 1733, "annotation": {"number": 64, "value": 0}, "group": "control_change"}, {"time": 1736, "annotation": {"number": 64, "value": 127}, "group": "control_change"}, {"time": 1781, "annotation": {"number": 64, "value": 0}, "group": "control_change"}, {"time": 1781, "annotation": {"number": 64, "value": 127}, "group": "control_change"}, {"time": 1828, "annotation": {"number": 64, "value": 0}, "group": "control_change"}, {"time": 1834, "annotation": {"number": 64, "value": 127}, "group": "control_change"}, {"time": 1879, "annotation": {"number": 64, "value": 0}, "group": "control_change"}, {"time": 1882, "annotation": {"number": 64, "value": 127}, "group": "control_change"}, {"time": 1925, "annotation": {"number": 64, "value": 0}, "group": "control_change"}, {"time": 1932, "annotation": {"number": 64, "value": 127}, "group": "control_change"}, {"time": 1974, "annotation": {"number": 64, "value": 0}, "group": "control_change"}, {"time": 1978, "annotation": {"number": 64, "value": 127}, "group": "control_change"}, {"time": 2021, "annotation": {"number": 64, "value": 0}, "group": "control_change"}, {"time": 2022, "annotation": {"number": 64, "value": 127}, "group": "control_change"}, {"time": 2069, "annotation": {"number": 64, "value": 0}, "group": "control_change"}, {"time": 2073, "annotation": {"number": 64, "value": 127}, "group": "control_change"}, {"time": 2073, "annotation": {"number": 64, "value": 0}, "group": "control_change"}, {"time": 2117, "annotation": {"number": 64, "value": 0}, "group": "control_change"}, {"time": 2120, "annotation": {"number": 64, "value": 127}, "group": "control_change"}, {"time": 2165, "annotation": {"number": 64, "value": 0}, "group": "control_change"}, {"time": 2165, "annotation": {"number": 64, "value": 127}, "group": "control_change"}, {"time": 2212, "annotation": {"number": 64, "value": 0}, "group": "control_change"}, {"time": 2218, "annotation": {"number": 64, "value": 127}, "group": "control_change"}, {"time": 2263, "annotation": {"number": 64, "value": 0}, "group": "control_change"}, {"time": 2266, "annotation": {"number": 64, "value": 127}, "group": "control_change"}, {"time": 2309, "annotation": {"number": 64, "value": 0}, "group": "control_change"}, {"time": 2316, "annotation": {"number": 64, "value": 127}, "group": "control_change"}, {"time": 2358, "annotation": {"number": 64, "value": 0}, "group": "control_change"}, {"time": 2362, "annotation": {"number": 64, "value": 127}, "group": "control_change"}, {"time": 2405, "annotation": {"number": 64, "value": 0}, "group": "control_change"}, {"time": 2406, "annotation": {"number": 64, "value": 127}, "group": "control_change"}, {"time": 2453, "annotation": {"number": 64, "value": 0}, "group": "control_change"}, {"time": 2457, "annotation": {"number": 64, "value": 127}, "group": "control_change"}, {"time": 2457, "annotation": {"number": 64, "value": 0}, "group": "control_change"}, {"time": 2501, "annotation": {"number": 64, "value": 0}, "group": "control_change"}, {"time": 2504, "annotation": {"number": 64, "value": 127}, "group": "control_change"}, {"time": 2549, "annotation": {"number": 64, "value": 0}, "group": "control_change"}, {"time": 2552, "annotation": {"number": 64, "value": 127}, "group": "control_change"}, {"time": 2598, "annotation": {"number": 64, "value": 0}, "group": "control_change"}, {"time": 2603, "annotation": {"number": 64, "value": 127}, "group": "control_change"}, {"time": 2646, "annotation": {"number": 64, "value": 0}, "group": "control_change"}, {"time": 2650, "annotation": {"number": 64, "value": 127}, "group": "control_change"}, {"time": 2693, "annotation": {"number": 64, "value": 0}, "group": "control_change"}, {"time": 2696, "annotation": {"number": 64, "value": 127}, "group": "control_change"}, {"time": 2741, "annotation": {"number": 64, "value": 0}, "group": "control_change"}, {"time": 2742, "annotation": {"number": 64, "value": 127}, "group": "control_change"}, {"time": 2780, "annotation": {"number": 64, "value": 0}, "group": "control_change"}, {"time": 2783, "annotation": {"number": 64, "value": 127}, "group": "control_change"}]}]}