{"metadata": {"schema_version": "0.2", "title": "None", "source_filename": "236.mid", "source_format": "midi"}, "resolution": 12, "tempos": [{"time": 0, "qpm": 116.00008506672904}], "time_signatures": [{"time": 0, "numerator": 4, "denominator": 4}], "tracks": [{"program": 0, "is_drum": false, "name": "MELODY", "notes": [{"time": 449, "pitch": 73, "duration": 13, "velocity": 109}, {"time": 461, "pitch": 75, "duration": 5, "velocity": 97}, {"time": 467, "pitch": 75, "duration": 29, "velocity": 101}, {"time": 497, "pitch": 73, "duration": 12, "velocity": 101}, {"time": 509, "pitch": 75, "duration": 6, "velocity": 101}, {"time": 515, "pitch": 78, "duration": 12, "velocity": 99}, {"time": 527, "pitch": 75, "duration": 18, "velocity": 103}, {"time": 545, "pitch": 73, "duration": 12, "velocity": 109}, {"time": 557, "pitch": 75, "duration": 6, "velocity": 106}, {"time": 563, "pitch": 75, "duration": 29, "velocity": 106}, {"time": 593, "pitch": 73, "duration": 13, "velocity": 98}, {"time": 605, "pitch": 75, "duration": 6, "velocity": 105}, {"time": 611, "pitch": 80, "duration": 13, "velocity": 106}, {"time": 623, "pitch": 78, "duration": 13, "velocity": 106}, {"time": 635, "pitch": 75, "duration": 12, "velocity": 108}, {"time": 647, "pitch": 73, "duration": 6, "velocity": 87}, {"time": 653, "pitch": 71, "duration": 31, "velocity": 92}, {"time": 683, "pitch": 68, "duration": 5, "velocity": 98}, {"time": 689, "pitch": 71, "duration": 12, "velocity": 99}, {"time": 701, "pitch": 73, "duration": 5, "velocity": 106}, {"time": 707, "pitch": 73, "duration": 19, "velocity": 108}, {"time": 725, "pitch": 68, "duration": 6, "velocity": 92}, {"time": 731, "pitch": 71, "duration": 12, "velocity": 101}, {"time": 743, "pitch": 73, "duration": 35, "velocity": 108}, {"time": 779, "pitch": 68, "duration": 6, "velocity": 93}, {"time": 785, "pitch": 71, "duration": 12, "velocity": 101}, {"time": 797, "pitch": 73, "duration": 6, "velocity": 99}, {"time": 803, "pitch": 75, "duration": 13, "velocity": 105}, {"time": 815, "pitch": 73, "duration": 17, "velocity": 106}, {"time": 833, "pitch": 73, "duration": 13, "velocity": 114}, {"time": 845, "pitch": 75, "duration": 6, "velocity": 109}, {"time": 851, "pitch": 75, "duration": 29, "velocity": 105}, {"time": 881, "pitch": 73, "duration": 12, "velocity": 109}, {"time": 893, "pitch": 75, "duration": 6, "velocity": 105}, {"time": 899, "pitch": 78, "duration": 12, "velocity": 91}, {"time": 911, "pitch": 75, "duration": 18, "velocity": 101}, {"time": 929, "pitch": 73, "duration": 12, "velocity": 111}, {"time": 941, "pitch": 75, "duration": 5, "velocity": 108}, {"time": 947, "pitch": 75, "duration": 24, "velocity": 108}, {"time": 971, "pitch": 66, "duration": 6, "velocity": 86}, {"time": 977, "pitch": 73, "duration": 13, "velocity": 91}, {"time": 989, "pitch": 75, "duration": 6, "velocity": 94}, {"time": 995, "pitch": 80, "duration": 12, "velocity": 90}, {"time": 1007, "pitch": 78, "duration": 12, "velocity": 97}, {"time": 1019, "pitch": 75, "duration": 12, "velocity": 98}, {"time": 1031, "pitch": 73, "duration": 5, "velocity": 90}, {"time": 1037, "pitch": 71, "duration": 31, "velocity": 82}, {"time": 1067, "pitch": 68, "duration": 6, "velocity": 92}, {"time": 1073, "pitch": 71, "duration": 13, "velocity": 99}, {"time": 1085, "pitch": 73, "duration": 5, "velocity": 98}, {"time": 1091, "pitch": 73, "duration": 19, "velocity": 97}, {"time": 1109, "pitch": 68, "duration": 6, "velocity": 90}, {"time": 1115, "pitch": 71, "duration": 17, "velocity": 98}, {"time": 1133, "pitch": 73, "duration": 5, "velocity": 91}, {"time": 1139, "pitch": 73, "duration": 13, "velocity": 90}, {"time": 1151, "pitch": 75, "duration": 18, "velocity": 93}, {"time": 1169, "pitch": 71, "duration": 12, "velocity": 100}, {"time": 1181, "pitch": 73, "duration": 6, "velocity": 97}, {"time": 1187, "pitch": 75, "duration": 12, "velocity": 98}, {"time": 1199, "pitch": 73, "duration": 18, "velocity": 91}, {"time": 1217, "pitch": 71, "duration": 24, "velocity": 83}, {"time": 1241, "pitch": 68, "duration": 6, "velocity": 99}, {"time": 1247, "pitch": 71, "duration": 6, "velocity": 96}, {"time": 1253, "pitch": 68, "duration": 6, "velocity": 95}, {"time": 1259, "pitch": 71, "duration": 18, "velocity": 96}, {"time": 1277, "pitch": 68, "duration": 6, "velocity": 91}, {"time": 1283, "pitch": 71, "duration": 18, "velocity": 93}, {"time": 1301, "pitch": 73, "duration": 5, "velocity": 94}, {"time": 1307, "pitch": 71, "duration": 31, "velocity": 93}, {"time": 1337, "pitch": 68, "duration": 5, "velocity": 91}, {"time": 1343, "pitch": 71, "duration": 6, "velocity": 90}, {"time": 1349, "pitch": 68, "duration": 6, "velocity": 80}, {"time": 1355, "pitch": 71, "duration": 19, "velocity": 91}, {"time": 1373, "pitch": 68, "duration": 6, "velocity": 101}, {"time": 1379, "pitch": 71, "duration": 16, "velocity": 97}, {"time": 1394, "pitch": 75, "duration": 8, "velocity": 106}, {"time": 1403, "pitch": 71, "duration": 30, "velocity": 98}, {"time": 1433, "pitch": 75, "duration": 10, "velocity": 105}, {"time": 1445, "pitch": 75, "duration": 11, "velocity": 99}, {"time": 1457, "pitch": 75, "duration": 12, "velocity": 99}, {"time": 1469, "pitch": 80, "duration": 12, "velocity": 109}, {"time": 1481, "pitch": 78, "duration": 12, "velocity": 106}, {"time": 1493, "pitch": 75, "duration": 5, "velocity": 97}, {"time": 1499, "pitch": 75, "duration": 12, "velocity": 93}, {"time": 1511, "pitch": 73, "duration": 53, "velocity": 84}, {"time": 1565, "pitch": 66, "duration": 12, "velocity": 96}, {"time": 1577, "pitch": 73, "duration": 12, "velocity": 97}, {"time": 1589, "pitch": 75, "duration": 6, "velocity": 96}, {"time": 1595, "pitch": 75, "duration": 19, "velocity": 106}, {"time": 1613, "pitch": 73, "duration": 6, "velocity": 106}, {"time": 1619, "pitch": 75, "duration": 17, "velocity": 98}, {"time": 1637, "pitch": 78, "duration": 6, "velocity": 106}, {"time": 1643, "pitch": 80, "duration": 12, "velocity": 109}, {"time": 1655, "pitch": 78, "duration": 19, "velocity": 111}, {"time": 1673, "pitch": 71, "duration": 11, "velocity": 108}, {"time": 1685, "pitch": 73, "duration": 12, "velocity": 106}, {"time": 1697, "pitch": 75, "duration": 12, "velocity": 101}, {"time": 1709, "pitch": 80, "duration": 13, "velocity": 96}, {"time": 1721, "pitch": 78, "duration": 12, "velocity": 98}, {"time": 1733, "pitch": 75, "duration": 6, "velocity": 105}, {"time": 1739, "pitch": 78, "duration": 41, "velocity": 101}, {"time": 1781, "pitch": 78, "duration": 6, "velocity": 98}, {"time": 1787, "pitch": 80, "duration": 7, "velocity": 99}, {"time": 1793, "pitch": 83, "duration": 23, "velocity": 99}, {"time": 1817, "pitch": 80, "duration": 12, "velocity": 103}, {"time": 1829, "pitch": 78, "duration": 13, "velocity": 99}, {"time": 1841, "pitch": 75, "duration": 12, "velocity": 97}, {"time": 1853, "pitch": 78, "duration": 6, "velocity": 95}, {"time": 1859, "pitch": 75, "duration": 20, "velocity": 98}, {"time": 1877, "pitch": 71, "duration": 6, "velocity": 114}, {"time": 1883, "pitch": 73, "duration": 6, "velocity": 98}, {"time": 1889, "pitch": 75, "duration": 12, "velocity": 106}, {"time": 1901, "pitch": 71, "duration": 10, "velocity": 106}, {"time": 1907, "pitch": 68, "duration": 12, "velocity": 92}, {"time": 1919, "pitch": 75, "duration": 17, "velocity": 101}, {"time": 1937, "pitch": 73, "duration": 23, "velocity": 100}, {"time": 1949, "pitch": 66, "duration": 12, "velocity": 92}, {"time": 1961, "pitch": 73, "duration": 13, "velocity": 98}, {"time": 1973, "pitch": 75, "duration": 6, "velocity": 96}, {"time": 1979, "pitch": 75, "duration": 19, "velocity": 97}, {"time": 1997, "pitch": 73, "duration": 6, "velocity": 99}, {"time": 2003, "pitch": 75, "duration": 18, "velocity": 97}, {"time": 2021, "pitch": 78, "duration": 6, "velocity": 105}, {"time": 2027, "pitch": 80, "duration": 11, "velocity": 95}, {"time": 2039, "pitch": 78, "duration": 18, "velocity": 103}, {"time": 2057, "pitch": 71, "duration": 12, "velocity": 99}, {"time": 2069, "pitch": 73, "duration": 12, "velocity": 95}, {"time": 2081, "pitch": 75, "duration": 12, "velocity": 96}, {"time": 2093, "pitch": 80, "duration": 12, "velocity": 91}, {"time": 2105, "pitch": 78, "duration": 12, "velocity": 99}, {"time": 2117, "pitch": 75, "duration": 6, "velocity": 91}, {"time": 2123, "pitch": 78, "duration": 41, "velocity": 105}, {"time": 2165, "pitch": 78, "duration": 6, "velocity": 114}, {"time": 2171, "pitch": 80, "duration": 6, "velocity": 100}, {"time": 2177, "pitch": 83, "duration": 24, "velocity": 101}, {"time": 2201, "pitch": 80, "duration": 12, "velocity": 105}, {"time": 2213, "pitch": 78, "duration": 12, "velocity": 106}, {"time": 2225, "pitch": 75, "duration": 13, "velocity": 98}, {"time": 2237, "pitch": 78, "duration": 6, "velocity": 97}, {"time": 2243, "pitch": 75, "duration": 23, "velocity": 105}, {"time": 2267, "pitch": 71, "duration": 6, "velocity": 96}, {"time": 2273, "pitch": 68, "duration": 12, "velocity": 99}, {"time": 2285, "pitch": 75, "duration": 7, "velocity": 101}, {"time": 2291, "pitch": 73, "duration": 24, "velocity": 108}, {"time": 2315, "pitch": 71, "duration": 6, "velocity": 98}, {"time": 2321, "pitch": 71, "duration": 12, "velocity": 103}, {"time": 2333, "pitch": 68, "duration": 12, "velocity": 97}, {"time": 2345, "pitch": 71, "duration": 12, "velocity": 105}, {"time": 2357, "pitch": 73, "duration": 6, "velocity": 105}, {"time": 2363, "pitch": 63, "duration": 3, "velocity": 78}, {"time": 2363, "pitch": 73, "duration": 12, "velocity": 108}, {"time": 2369, "pitch": 63, "duration": 3, "velocity": 82}, {"time": 2375, "pitch": 63, "duration": 3, "velocity": 78}, {"time": 2375, "pitch": 71, "duration": 90, "velocity": 98}, {"time": 2381, "pitch": 63, "duration": 4, "velocity": 97}, {"time": 2393, "pitch": 63, "duration": 2, "velocity": 95}, {"time": 2399, "pitch": 63, "duration": 3, "velocity": 91}, {"time": 2402, "pitch": 63, "duration": 5, "velocity": 70}, {"time": 2405, "pitch": 63, "duration": 2, "velocity": 93}, {"time": 2411, "pitch": 63, "duration": 5, "velocity": 93}, {"time": 2423, "pitch": 63, "duration": 2, "velocity": 93}, {"time": 2429, "pitch": 63, "duration": 2, "velocity": 93}, {"time": 2435, "pitch": 63, "duration": 2, "velocity": 93}, {"time": 2441, "pitch": 63, "duration": 2, "velocity": 95}, {"time": 2447, "pitch": 63, "duration": 1, "velocity": 99}, {"time": 2450, "pitch": 63, "duration": 4, "velocity": 93}, {"time": 2453, "pitch": 63, "duration": 1, "velocity": 97}, {"time": 2465, "pitch": 63, "duration": 3, "velocity": 75}, {"time": 2471, "pitch": 63, "duration": 3, "velocity": 75}, {"time": 2477, "pitch": 63, "duration": 3, "velocity": 82}, {"time": 2489, "pitch": 63, "duration": 3, "velocity": 97}, {"time": 2495, "pitch": 63, "duration": 3, "velocity": 101}, {"time": 2501, "pitch": 63, "duration": 3, "velocity": 95}, {"time": 2507, "pitch": 63, "duration": 3, "velocity": 95}, {"time": 2519, "pitch": 63, "duration": 3, "velocity": 95}, {"time": 2525, "pitch": 63, "duration": 3, "velocity": 95}, {"time": 2531, "pitch": 63, "duration": 3, "velocity": 95}, {"time": 2537, "pitch": 63, "duration": 3, "velocity": 95}, {"time": 2543, "pitch": 63, "duration": 3, "velocity": 95}, {"time": 2549, "pitch": 64, "duration": 3, "velocity": 95}, {"time": 2555, "pitch": 61, "duration": 3, "velocity": 95}, {"time": 2561, "pitch": 63, "duration": 3, "velocity": 95}, {"time": 2567, "pitch": 63, "duration": 3, "velocity": 95}, {"time": 2573, "pitch": 63, "duration": 3, "velocity": 95}, {"time": 2585, "pitch": 63, "duration": 3, "velocity": 95}, {"time": 2591, "pitch": 63, "duration": 3, "velocity": 95}, {"time": 2594, "pitch": 63, "duration": 3, "velocity": 95}, {"time": 2597, "pitch": 63, "duration": 3, "velocity": 95}, {"time": 2603, "pitch": 63, "duration": 3, "velocity": 95}, {"time": 2615, "pitch": 63, "duration": 3, "velocity": 95}, {"time": 2621, "pitch": 63, "duration": 3, "velocity": 95}, {"time": 2627, "pitch": 63, "duration": 3, "velocity": 95}, {"time": 2633, "pitch": 63, "duration": 3, "velocity": 95}, {"time": 2636, "pitch": 61, "duration": 2, "velocity": 95}, {"time": 2639, "pitch": 61, "duration": 3, "velocity": 95}, {"time": 2642, "pitch": 59, "duration": 2, "velocity": 95}, {"time": 2657, "pitch": 63, "duration": 3, "velocity": 95}, {"time": 2663, "pitch": 63, "duration": 3, "velocity": 95}, {"time": 2669, "pitch": 63, "duration": 3, "velocity": 95}, {"time": 2681, "pitch": 63, "duration": 3, "velocity": 95}, {"time": 2687, "pitch": 63, "duration": 3, "velocity": 95}, {"time": 2693, "pitch": 63, "duration": 3, "velocity": 95}, {"time": 2699, "pitch": 63, "duration": 3, "velocity": 95}, {"time": 2705, "pitch": 63, "duration": 3, "velocity": 95}, {"time": 2741, "pitch": 66, "duration": 12, "velocity": 100}, {"time": 2753, "pitch": 73, "duration": 13, "velocity": 109}, {"time": 2765, "pitch": 75, "duration": 5, "velocity": 97}, {"time": 2771, "pitch": 75, "duration": 29, "velocity": 101}, {"time": 2801, "pitch": 73, "duration": 12, "velocity": 101}, {"time": 2813, "pitch": 75, "duration": 6, "velocity": 101}, {"time": 2819, "pitch": 78, "duration": 12, "velocity": 99}, {"time": 2831, "pitch": 75, "duration": 18, "velocity": 103}, {"time": 2849, "pitch": 73, "duration": 12, "velocity": 109}, {"time": 2861, "pitch": 75, "duration": 6, "velocity": 106}, {"time": 2867, "pitch": 75, "duration": 29, "velocity": 106}, {"time": 2897, "pitch": 73, "duration": 13, "velocity": 98}, {"time": 2909, "pitch": 75, "duration": 6, "velocity": 105}, {"time": 2915, "pitch": 80, "duration": 13, "velocity": 106}, {"time": 2927, "pitch": 78, "duration": 13, "velocity": 106}, {"time": 2939, "pitch": 75, "duration": 12, "velocity": 108}, {"time": 2951, "pitch": 73, "duration": 6, "velocity": 87}, {"time": 2957, "pitch": 71, "duration": 31, "velocity": 92}, {"time": 2987, "pitch": 68, "duration": 5, "velocity": 98}, {"time": 2993, "pitch": 71, "duration": 12, "velocity": 99}, {"time": 3005, "pitch": 73, "duration": 5, "velocity": 106}, {"time": 3011, "pitch": 73, "duration": 19, "velocity": 108}, {"time": 3029, "pitch": 68, "duration": 6, "velocity": 92}, {"time": 3035, "pitch": 71, "duration": 12, "velocity": 101}, {"time": 3047, "pitch": 73, "duration": 35, "velocity": 108}, {"time": 3083, "pitch": 68, "duration": 6, "velocity": 93}, {"time": 3089, "pitch": 71, "duration": 12, "velocity": 101}, {"time": 3101, "pitch": 73, "duration": 6, "velocity": 99}, {"time": 3107, "pitch": 75, "duration": 13, "velocity": 105}, {"time": 3119, "pitch": 73, "duration": 17, "velocity": 106}, {"time": 3137, "pitch": 73, "duration": 13, "velocity": 114}, {"time": 3149, "pitch": 75, "duration": 6, "velocity": 109}, {"time": 3155, "pitch": 75, "duration": 29, "velocity": 105}, {"time": 3185, "pitch": 73, "duration": 12, "velocity": 109}, {"time": 3197, "pitch": 75, "duration": 6, "velocity": 105}, {"time": 3203, "pitch": 78, "duration": 12, "velocity": 91}, {"time": 3215, "pitch": 75, "duration": 18, "velocity": 101}, {"time": 3233, "pitch": 73, "duration": 12, "velocity": 111}, {"time": 3245, "pitch": 75, "duration": 5, "velocity": 108}, {"time": 3251, "pitch": 75, "duration": 24, "velocity": 108}, {"time": 3275, "pitch": 66, "duration": 6, "velocity": 86}, {"time": 3281, "pitch": 73, "duration": 13, "velocity": 91}, {"time": 3293, "pitch": 75, "duration": 6, "velocity": 94}, {"time": 3299, "pitch": 80, "duration": 13, "velocity": 90}, {"time": 3311, "pitch": 78, "duration": 12, "velocity": 97}, {"time": 3323, "pitch": 75, "duration": 12, "velocity": 98}, {"time": 3335, "pitch": 73, "duration": 5, "velocity": 90}, {"time": 3341, "pitch": 71, "duration": 31, "velocity": 82}, {"time": 3371, "pitch": 68, "duration": 6, "velocity": 92}, {"time": 3377, "pitch": 71, "duration": 13, "velocity": 99}, {"time": 3389, "pitch": 73, "duration": 5, "velocity": 98}, {"time": 3395, "pitch": 73, "duration": 19, "velocity": 97}, {"time": 3413, "pitch": 68, "duration": 6, "velocity": 90}, {"time": 3419, "pitch": 71, "duration": 17, "velocity": 98}, {"time": 3437, "pitch": 73, "duration": 5, "velocity": 91}, {"time": 3443, "pitch": 73, "duration": 13, "velocity": 90}, {"time": 3455, "pitch": 75, "duration": 18, "velocity": 93}, {"time": 3473, "pitch": 71, "duration": 12, "velocity": 100}, {"time": 3485, "pitch": 73, "duration": 6, "velocity": 97}, {"time": 3491, "pitch": 75, "duration": 12, "velocity": 98}, {"time": 3503, "pitch": 73, "duration": 18, "velocity": 91}, {"time": 3521, "pitch": 71, "duration": 24, "velocity": 83}, {"time": 3545, "pitch": 68, "duration": 6, "velocity": 99}, {"time": 3551, "pitch": 71, "duration": 6, "velocity": 96}, {"time": 3557, "pitch": 68, "duration": 6, "velocity": 95}, {"time": 3563, "pitch": 71, "duration": 18, "velocity": 96}, {"time": 3581, "pitch": 68, "duration": 6, "velocity": 91}, {"time": 3587, "pitch": 71, "duration": 18, "velocity": 93}, {"time": 3605, "pitch": 73, "duration": 5, "velocity": 94}, {"time": 3611, "pitch": 71, "duration": 31, "velocity": 93}, {"time": 3641, "pitch": 68, "duration": 5, "velocity": 91}, {"time": 3647, "pitch": 71, "duration": 6, "velocity": 90}, {"time": 3653, "pitch": 68, "duration": 6, "velocity": 80}, {"time": 3659, "pitch": 71, "duration": 18, "velocity": 91}, {"time": 3677, "pitch": 68, "duration": 6, "velocity": 101}, {"time": 3683, "pitch": 71, "duration": 12, "velocity": 97}, {"time": 3695, "pitch": 75, "duration": 11, "velocity": 106}, {"time": 3707, "pitch": 71, "duration": 30, "velocity": 98}, {"time": 3737, "pitch": 75, "duration": 10, "velocity": 105}, {"time": 3749, "pitch": 75, "duration": 11, "velocity": 99}, {"time": 3761, "pitch": 75, "duration": 12, "velocity": 99}, {"time": 3773, "pitch": 80, "duration": 6, "velocity": 109}, {"time": 3779, "pitch": 78, "duration": 18, "velocity": 106}, {"time": 3797, "pitch": 75, "duration": 5, "velocity": 97}, {"time": 3803, "pitch": 75, "duration": 12, "velocity": 93}, {"time": 3815, "pitch": 73, "duration": 53, "velocity": 84}, {"time": 3869, "pitch": 66, "duration": 12, "velocity": 96}, {"time": 3881, "pitch": 73, "duration": 12, "velocity": 97}, {"time": 3893, "pitch": 75, "duration": 6, "velocity": 96}, {"time": 3899, "pitch": 75, "duration": 19, "velocity": 106}, {"time": 3917, "pitch": 73, "duration": 6, "velocity": 106}, {"time": 3923, "pitch": 75, "duration": 17, "velocity": 98}, {"time": 3941, "pitch": 78, "duration": 6, "velocity": 106}, {"time": 3947, "pitch": 80, "duration": 12, "velocity": 109}, {"time": 3959, "pitch": 78, "duration": 19, "velocity": 111}, {"time": 3977, "pitch": 71, "duration": 11, "velocity": 108}, {"time": 3989, "pitch": 73, "duration": 12, "velocity": 106}, {"time": 4001, "pitch": 75, "duration": 12, "velocity": 101}, {"time": 4013, "pitch": 80, "duration": 13, "velocity": 96}, {"time": 4025, "pitch": 78, "duration": 12, "velocity": 98}, {"time": 4037, "pitch": 75, "duration": 6, "velocity": 105}, {"time": 4043, "pitch": 78, "duration": 42, "velocity": 101}, {"time": 4085, "pitch": 78, "duration": 6, "velocity": 98}, {"time": 4091, "pitch": 80, "duration": 7, "velocity": 99}, {"time": 4097, "pitch": 83, "duration": 18, "velocity": 99}, {"time": 4115, "pitch": 80, "duration": 6, "velocity": 99}, {"time": 4121, "pitch": 80, "duration": 12, "velocity": 103}, {"time": 4133, "pitch": 78, "duration": 13, "velocity": 99}, {"time": 4145, "pitch": 75, "duration": 12, "velocity": 97}, {"time": 4157, "pitch": 78, "duration": 6, "velocity": 95}, {"time": 4163, "pitch": 75, "duration": 20, "velocity": 98}, {"time": 4181, "pitch": 71, "duration": 6, "velocity": 114}, {"time": 4187, "pitch": 73, "duration": 6, "velocity": 98}, {"time": 4193, "pitch": 75, "duration": 12, "velocity": 106}, {"time": 4205, "pitch": 71, "duration": 10, "velocity": 106}, {"time": 4211, "pitch": 68, "duration": 12, "velocity": 92}, {"time": 4223, "pitch": 75, "duration": 17, "velocity": 101}, {"time": 4241, "pitch": 73, "duration": 12, "velocity": 100}, {"time": 4253, "pitch": 66, "duration": 12, "velocity": 92}, {"time": 4265, "pitch": 73, "duration": 13, "velocity": 98}, {"time": 4277, "pitch": 75, "duration": 6, "velocity": 96}, {"time": 4283, "pitch": 75, "duration": 18, "velocity": 97}, {"time": 4301, "pitch": 73, "duration": 6, "velocity": 99}, {"time": 4307, "pitch": 75, "duration": 18, "velocity": 97}, {"time": 4325, "pitch": 78, "duration": 6, "velocity": 105}, {"time": 4331, "pitch": 80, "duration": 12, "velocity": 95}, {"time": 4343, "pitch": 78, "duration": 18, "velocity": 103}, {"time": 4361, "pitch": 71, "duration": 12, "velocity": 99}, {"time": 4373, "pitch": 73, "duration": 12, "velocity": 95}, {"time": 4385, "pitch": 75, "duration": 12, "velocity": 96}, {"time": 4397, "pitch": 80, "duration": 12, "velocity": 91}, {"time": 4409, "pitch": 78, "duration": 12, "velocity": 99}, {"time": 4421, "pitch": 75, "duration": 6, "velocity": 91}, {"time": 4427, "pitch": 78, "duration": 41, "velocity": 105}, {"time": 4469, "pitch": 78, "duration": 6, "velocity": 114}, {"time": 4475, "pitch": 80, "duration": 7, "velocity": 100}, {"time": 4481, "pitch": 83, "duration": 24, "velocity": 101}, {"time": 4505, "pitch": 80, "duration": 12, "velocity": 105}, {"time": 4517, "pitch": 78, "duration": 12, "velocity": 106}, {"time": 4529, "pitch": 75, "duration": 13, "velocity": 98}, {"time": 4541, "pitch": 78, "duration": 6, "velocity": 97}, {"time": 4547, "pitch": 75, "duration": 23, "velocity": 105}, {"time": 4571, "pitch": 71, "duration": 6, "velocity": 96}, {"time": 4577, "pitch": 68, "duration": 12, "velocity": 99}, {"time": 4589, "pitch": 75, "duration": 7, "velocity": 101}, {"time": 4595, "pitch": 73, "duration": 24, "velocity": 108}, {"time": 4619, "pitch": 71, "duration": 6, "velocity": 98}, {"time": 4625, "pitch": 71, "duration": 12, "velocity": 103}, {"time": 4637, "pitch": 68, "duration": 12, "velocity": 97}, {"time": 4649, "pitch": 71, "duration": 12, "velocity": 105}, {"time": 4661, "pitch": 73, "duration": 6, "velocity": 105}, {"time": 4667, "pitch": 73, "duration": 12, "velocity": 108}, {"time": 4673, "pitch": 71, "duration": 9, "velocity": 99}, {"time": 4679, "pitch": 71, "duration": 3, "velocity": 98}, {"time": 4685, "pitch": 66, "duration": 7, "velocity": 103}, {"time": 4697, "pitch": 71, "duration": 3, "velocity": 97}, {"time": 4703, "pitch": 71, "duration": 2, "velocity": 97}, {"time": 4706, "pitch": 71, "duration": 2, "velocity": 72}, {"time": 4709, "pitch": 71, "duration": 3, "velocity": 97}, {"time": 4712, "pitch": 66, "duration": 3, "velocity": 97}, {"time": 4729, "pitch": 71, "duration": 2, "velocity": 101}, {"time": 4734, "pitch": 71, "duration": 2, "velocity": 99}, {"time": 4739, "pitch": 71, "duration": 2, "velocity": 101}, {"time": 4745, "pitch": 71, "duration": 3, "velocity": 101}, {"time": 4751, "pitch": 75, "duration": 3, "velocity": 82}, {"time": 4757, "pitch": 73, "duration": 4, "velocity": 109}, {"time": 4763, "pitch": 71, "duration": 3, "velocity": 103}, {"time": 4775, "pitch": 71, "duration": 1, "velocity": 103}, {"time": 4778, "pitch": 71, "duration": 2, "velocity": 93}, {"time": 4781, "pitch": 66, "duration": 5, "velocity": 113}, {"time": 4793, "pitch": 71, "duration": 3, "velocity": 95}, {"time": 4799, "pitch": 71, "duration": 2, "velocity": 103}, {"time": 4805, "pitch": 71, "duration": 3, "velocity": 101}, {"time": 4811, "pitch": 66, "duration": 3, "velocity": 106}, {"time": 4823, "pitch": 66, "duration": 2, "velocity": 103}, {"time": 4829, "pitch": 66, "duration": 2, "velocity": 95}, {"time": 4835, "pitch": 66, "duration": 2, "velocity": 101}, {"time": 4841, "pitch": 66, "duration": 2, "velocity": 99}, {"time": 4847, "pitch": 66, "duration": 3, "velocity": 97}, {"time": 4853, "pitch": 73, "duration": 4, "velocity": 106}, {"time": 4859, "pitch": 71, "duration": 6, "velocity": 106}, {"time": 4865, "pitch": 66, "duration": 2, "velocity": 106}, {"time": 4871, "pitch": 66, "duration": 2, "velocity": 103}, {"time": 4874, "pitch": 66, "duration": 2, "velocity": 93}, {"time": 4877, "pitch": 71, "duration": 6, "velocity": 103}, {"time": 4889, "pitch": 66, "duration": 2, "velocity": 106}, {"time": 4895, "pitch": 66, "duration": 2, "velocity": 106}, {"time": 4898, "pitch": 66, "duration": 2, "velocity": 55}, {"time": 4901, "pitch": 66, "duration": 3, "velocity": 109}, {"time": 4907, "pitch": 71, "duration": 5, "velocity": 101}, {"time": 4919, "pitch": 66, "duration": 2, "velocity": 103}, {"time": 4919, "pitch": 76, "duration": 1, "velocity": 62}, {"time": 4925, "pitch": 66, "duration": 2, "velocity": 95}, {"time": 4931, "pitch": 66, "duration": 3, "velocity": 93}, {"time": 4937, "pitch": 66, "duration": 3, "velocity": 95}, {"time": 4943, "pitch": 66, "duration": 3, "velocity": 95}, {"time": 4949, "pitch": 73, "duration": 3, "velocity": 106}, {"time": 4955, "pitch": 71, "duration": 8, "velocity": 101}, {"time": 4967, "pitch": 66, "duration": 2, "velocity": 103}, {"time": 4970, "pitch": 66, "duration": 2, "velocity": 78}, {"time": 4973, "pitch": 71, "duration": 8, "velocity": 99}, {"time": 4985, "pitch": 66, "duration": 2, "velocity": 101}, {"time": 4991, "pitch": 66, "duration": 2, "velocity": 103}, {"time": 4997, "pitch": 66, "duration": 3, "velocity": 99}, {"time": 5003, "pitch": 73, "duration": 11, "velocity": 103}, {"time": 5021, "pitch": 66, "duration": 12, "velocity": 96}, {"time": 5033, "pitch": 73, "duration": 12, "velocity": 97}, {"time": 5045, "pitch": 75, "duration": 6, "velocity": 96}, {"time": 5051, "pitch": 75, "duration": 19, "velocity": 106}, {"time": 5069, "pitch": 73, "duration": 6, "velocity": 106}, {"time": 5075, "pitch": 75, "duration": 17, "velocity": 98}, {"time": 5093, "pitch": 78, "duration": 6, "velocity": 106}, {"time": 5099, "pitch": 80, "duration": 12, "velocity": 109}, {"time": 5111, "pitch": 78, "duration": 19, "velocity": 111}, {"time": 5129, "pitch": 71, "duration": 11, "velocity": 108}, {"time": 5141, "pitch": 73, "duration": 12, "velocity": 106}, {"time": 5153, "pitch": 75, "duration": 12, "velocity": 101}, {"time": 5165, "pitch": 80, "duration": 12, "velocity": 96}, {"time": 5177, "pitch": 78, "duration": 12, "velocity": 98}, {"time": 5189, "pitch": 75, "duration": 6, "velocity": 105}, {"time": 5195, "pitch": 78, "duration": 42, "velocity": 101}, {"time": 5237, "pitch": 78, "duration": 6, "velocity": 98}, {"time": 5243, "pitch": 80, "duration": 7, "velocity": 99}, {"time": 5249, "pitch": 83, "duration": 18, "velocity": 99}, {"time": 5267, "pitch": 80, "duration": 6, "velocity": 99}, {"time": 5273, "pitch": 80, "duration": 12, "velocity": 103}, {"time": 5285, "pitch": 78, "duration": 13, "velocity": 99}, {"time": 5297, "pitch": 75, "duration": 12, "velocity": 97}, {"time": 5309, "pitch": 78, "duration": 6, "velocity": 95}, {"time": 5315, "pitch": 75, "duration": 20, "velocity": 98}, {"time": 5333, "pitch": 71, "duration": 6, "velocity": 114}, {"time": 5339, "pitch": 73, "duration": 6, "velocity": 98}, {"time": 5345, "pitch": 75, "duration": 12, "velocity": 106}, {"time": 5357, "pitch": 71, "duration": 10, "velocity": 106}, {"time": 5363, "pitch": 68, "duration": 12, "velocity": 92}, {"time": 5375, "pitch": 75, "duration": 17, "velocity": 101}, {"time": 5393, "pitch": 73, "duration": 12, "velocity": 100}, {"time": 5405, "pitch": 66, "duration": 12, "velocity": 92}, {"time": 5417, "pitch": 73, "duration": 13, "velocity": 98}, {"time": 5429, "pitch": 75, "duration": 6, "velocity": 96}, {"time": 5435, "pitch": 75, "duration": 18, "velocity": 97}, {"time": 5453, "pitch": 73, "duration": 6, "velocity": 99}, {"time": 5459, "pitch": 75, "duration": 18, "velocity": 97}, {"time": 5477, "pitch": 78, "duration": 6, "velocity": 105}, {"time": 5483, "pitch": 80, "duration": 12, "velocity": 95}, {"time": 5495, "pitch": 78, "duration": 18, "velocity": 103}, {"time": 5513, "pitch": 71, "duration": 12, "velocity": 99}, {"time": 5525, "pitch": 73, "duration": 12, "velocity": 95}, {"time": 5537, "pitch": 75, "duration": 12, "velocity": 96}, {"time": 5549, "pitch": 80, "duration": 12, "velocity": 91}, {"time": 5561, "pitch": 78, "duration": 12, "velocity": 99}, {"time": 5573, "pitch": 75, "duration": 6, "velocity": 91}, {"time": 5579, "pitch": 80, "duration": 12, "velocity": 105}, {"time": 5591, "pitch": 78, "duration": 29, "velocity": 105}, {"time": 5609, "pitch": 85, "duration": 12, "velocity": 106}, {"time": 5621, "pitch": 87, "duration": 13, "velocity": 103}, {"time": 5633, "pitch": 85, "duration": 12, "velocity": 105}, {"time": 5645, "pitch": 83, "duration": 22, "velocity": 105}, {"time": 5663, "pitch": 80, "duration": 12, "velocity": 106}, {"time": 5675, "pitch": 78, "duration": 6, "velocity": 95}, {"time": 5681, "pitch": 75, "duration": 13, "velocity": 98}, {"time": 5693, "pitch": 78, "duration": 6, "velocity": 97}, {"time": 5699, "pitch": 75, "duration": 24, "velocity": 109}, {"time": 5723, "pitch": 71, "duration": 6, "velocity": 109}, {"time": 5729, "pitch": 68, "duration": 12, "velocity": 97}, {"time": 5741, "pitch": 75, "duration": 7, "velocity": 99}, {"time": 5747, "pitch": 73, "duration": 24, "velocity": 103}, {"time": 5771, "pitch": 71, "duration": 6, "velocity": 119}, {"time": 5777, "pitch": 71, "duration": 12, "velocity": 108}, {"time": 5789, "pitch": 68, "duration": 12, "velocity": 93}, {"time": 5801, "pitch": 71, "duration": 13, "velocity": 106}, {"time": 5813, "pitch": 73, "duration": 6, "velocity": 100}, {"time": 5819, "pitch": 73, "duration": 30, "velocity": 100}, {"time": 5837, "pitch": 75, "duration": 6, "velocity": 103}, {"time": 5843, "pitch": 73, "duration": 6, "velocity": 100}, {"time": 5849, "pitch": 75, "duration": 8, "velocity": 97}, {"time": 5861, "pitch": 75, "duration": 6, "velocity": 97}, {"time": 5867, "pitch": 73, "duration": 7, "velocity": 95}, {"time": 5873, "pitch": 75, "duration": 9, "velocity": 91}, {"time": 5885, "pitch": 75, "duration": 6, "velocity": 95}, {"time": 5891, "pitch": 73, "duration": 7, "velocity": 92}, {"time": 5897, "pitch": 75, "duration": 6, "velocity": 95}, {"time": 5903, "pitch": 78, "duration": 6, "velocity": 89}, {"time": 5909, "pitch": 75, "duration": 8, "velocity": 103}, {"time": 5930, "pitch": 75, "duration": 7, "velocity": 103}, {"time": 5936, "pitch": 73, "duration": 9, "velocity": 94}, {"time": 5945, "pitch": 75, "duration": 12, "velocity": 101}, {"time": 5957, "pitch": 75, "duration": 6, "velocity": 97}, {"time": 5963, "pitch": 73, "duration": 7, "velocity": 97}, {"time": 5969, "pitch": 75, "duration": 12, "velocity": 98}, {"time": 5981, "pitch": 71, "duration": 6, "velocity": 97}, {"time": 5987, "pitch": 73, "duration": 6, "velocity": 93}, {"time": 5993, "pitch": 75, "duration": 12, "velocity": 100}, {"time": 6005, "pitch": 71, "duration": 24, "velocity": 97}, {"time": 6029, "pitch": 71, "duration": 6, "velocity": 109}, {"time": 6035, "pitch": 73, "duration": 6, "velocity": 106}, {"time": 6041, "pitch": 75, "duration": 12, "velocity": 105}, {"time": 6053, "pitch": 68, "duration": 12, "velocity": 114}, {"time": 6065, "pitch": 66, "duration": 18, "velocity": 101}, {"time": 6083, "pitch": 68, "duration": 6, "velocity": 98}, {"time": 6089, "pitch": 71, "duration": 12, "velocity": 100}, {"time": 6101, "pitch": 73, "duration": 12, "velocity": 100}, {"time": 6113, "pitch": 75, "duration": 12, "velocity": 99}, {"time": 6125, "pitch": 75, "duration": 6, "velocity": 99}, {"time": 6131, "pitch": 73, "duration": 6, "velocity": 97}, {"time": 6137, "pitch": 75, "duration": 6, "velocity": 105}, {"time": 6143, "pitch": 78, "duration": 6, "velocity": 101}, {"time": 6149, "pitch": 71, "duration": 7, "velocity": 99}, {"time": 6155, "pitch": 73, "duration": 7, "velocity": 105}, {"time": 6161, "pitch": 75, "duration": 12, "velocity": 108}, {"time": 6173, "pitch": 75, "duration": 6, "velocity": 106}, {"time": 6179, "pitch": 73, "duration": 6, "velocity": 99}, {"time": 6185, "pitch": 75, "duration": 12, "velocity": 97}, {"time": 6197, "pitch": 71, "duration": 24, "velocity": 100}, {"time": 6221, "pitch": 75, "duration": 6, "velocity": 105}, {"time": 6227, "pitch": 73, "duration": 6, "velocity": 99}, {"time": 6233, "pitch": 75, "duration": 12, "velocity": 97}, {"time": 6245, "pitch": 75, "duration": 6, "velocity": 105}, {"time": 6251, "pitch": 73, "duration": 7, "velocity": 100}, {"time": 6257, "pitch": 75, "duration": 12, "velocity": 100}, {"time": 6269, "pitch": 75, "duration": 6, "velocity": 108}, {"time": 6275, "pitch": 73, "duration": 7, "velocity": 101}, {"time": 6281, "pitch": 75, "duration": 6, "velocity": 103}, {"time": 6287, "pitch": 78, "duration": 6, "velocity": 91}, {"time": 6293, "pitch": 75, "duration": 24, "velocity": 111}, {"time": 6317, "pitch": 75, "duration": 6, "velocity": 106}, {"time": 6323, "pitch": 73, "duration": 6, "velocity": 97}, {"time": 6329, "pitch": 75, "duration": 12, "velocity": 97}, {"time": 6341, "pitch": 75, "duration": 7, "velocity": 97}, {"time": 6347, "pitch": 73, "duration": 7, "velocity": 94}, {"time": 6353, "pitch": 75, "duration": 12, "velocity": 97}, {"time": 6365, "pitch": 71, "duration": 7, "velocity": 97}, {"time": 6371, "pitch": 73, "duration": 7, "velocity": 97}, {"time": 6377, "pitch": 75, "duration": 13, "velocity": 100}, {"time": 6389, "pitch": 71, "duration": 24, "velocity": 101}, {"time": 6413, "pitch": 71, "duration": 6, "velocity": 122}, {"time": 6419, "pitch": 73, "duration": 6, "velocity": 101}, {"time": 6425, "pitch": 75, "duration": 12, "velocity": 106}, {"time": 6437, "pitch": 68, "duration": 12, "velocity": 100}, {"time": 6449, "pitch": 66, "duration": 18, "velocity": 99}, {"time": 6467, "pitch": 68, "duration": 6, "velocity": 106}, {"time": 6473, "pitch": 71, "duration": 12, "velocity": 106}, {"time": 6485, "pitch": 73, "duration": 12, "velocity": 97}, {"time": 6497, "pitch": 75, "duration": 12, "velocity": 109}, {"time": 6509, "pitch": 75, "duration": 6, "velocity": 105}, {"time": 6515, "pitch": 73, "duration": 6, "velocity": 93}, {"time": 6521, "pitch": 75, "duration": 6, "velocity": 98}, {"time": 6527, "pitch": 78, "duration": 6, "velocity": 90}, {"time": 6533, "pitch": 71, "duration": 7, "velocity": 93}, {"time": 6539, "pitch": 73, "duration": 6, "velocity": 105}, {"time": 6545, "pitch": 75, "duration": 12, "velocity": 109}, {"time": 6557, "pitch": 75, "duration": 6, "velocity": 103}, {"time": 6563, "pitch": 73, "duration": 7, "velocity": 100}, {"time": 6569, "pitch": 75, "duration": 12, "velocity": 105}, {"time": 6581, "pitch": 71, "duration": 15, "velocity": 101}], "annotations": [{"time": 610, "annotation": {"number": 1, "value": 1}, "group": "control_change"}, {"time": 610, "annotation": {"number": 1, "value": 0}, "group": "control_change"}, {"time": 623, "annotation": {"number": 1, "value": 1}, "group": "control_change"}, {"time": 634, "annotation": {"number": 1, "value": 0}, "group": "control_change"}, {"time": 635, "annotation": {"number": 1, "value": 1}, "group": "control_change"}, {"time": 645, "annotation": {"number": 1, "value": 0}, "group": "control_change"}, {"time": 646, "annotation": {"number": 1, "value": 1}, "group": "control_change"}, {"time": 646, "annotation": {"number": 1, "value": 0}, "group": "control_change"}, {"time": 647, "annotation": {"number": 1, "value": 0}, "group": "control_change"}, {"time": 649, "annotation": {"number": 1, "value": 1}, "group": "control_change"}, {"time": 654, "annotation": {"number": 1, "value": 0}, "group": "control_change"}, {"time": 660, "annotation": {"number": 1, "value": 1}, "group": "control_change"}, {"time": 1241, "annotation": {"number": 1, "value": 1}, "group": "control_change"}, {"time": 1261, "annotation": {"number": 1, "value": 0}, "group": "control_change"}, {"time": 1372, "annotation": {"number": 1, "value": 1}, "group": "control_change"}, {"time": 1372, "annotation": {"number": 1, "value": 0}, "group": "control_change"}, {"time": 1373, "annotation": {"number": 1, "value": 1}, "group": "control_change"}, {"time": 1373, "annotation": {"number": 1, "value": 0}, "group": "control_change"}, {"time": 1378, "annotation": {"number": 1, "value": 1}, "group": "control_change"}, {"time": 1378, "annotation": {"number": 1, "value": 0}, "group": "control_change"}, {"time": 1389, "annotation": {"number": 1, "value": 0}, "group": "control_change"}, {"time": 1390, "annotation": {"number": 1, "value": 1}, "group": "control_change"}, {"time": 1390, "annotation": {"number": 1, "value": 0}, "group": "control_change"}, {"time": 1391, "annotation": {"number": 1, "value": 0}, "group": "control_change"}, {"time": 1391, "annotation": {"number": 1, "value": 1}, "group": "control_change"}, {"time": 1393, "annotation": {"number": 1, "value": 1}, "group": "control_change"}, {"time": 1394, "annotation": {"number": 1, "value": 0}, "group": "control_change"}, {"time": 1396, "annotation": {"number": 1, "value": 1}, "group": "control_change"}, {"time": 1406, "annotation": {"number": 1, "value": 0}, "group": "control_change"}, {"time": 1409, "annotation": {"number": 1, "value": 1}, "group": "control_change"}, {"time": 1411, "annotation": {"number": 1, "value": 0}, "group": "control_change"}, {"time": 1413, "annotation": {"number": 1, "value": 1}, "group": "control_change"}, {"time": 1420, "annotation": {"number": 1, "value": 0}, "group": "control_change"}, {"time": 1421, "annotation": {"number": 1, "value": 1}, "group": "control_change"}, {"time": 1675, "annotation": {"number": 1, "value": 1}, "group": "control_change"}, {"time": 1676, "annotation": {"number": 1, "value": 0}, "group": "control_change"}, {"time": 1678, "annotation": {"number": 1, "value": 1}, "group": "control_change"}, {"time": 1678, "annotation": {"number": 1, "value": 0}, "group": "control_change"}, {"time": 1679, "annotation": {"number": 1, "value": 1}, "group": "control_change"}, {"time": 1680, "annotation": {"number": 1, "value": 0}, "group": "control_change"}, {"time": 1691, "annotation": {"number": 1, "value": 1}, "group": "control_change"}, {"time": 1694, "annotation": {"number": 1, "value": 0}, "group": "control_change"}, {"time": 1695, "annotation": {"number": 1, "value": 1}, "group": "control_change"}, {"time": 1696, "annotation": {"number": 1, "value": 0}, "group": "control_change"}, {"time": 1700, "annotation": {"number": 1, "value": 1}, "group": "control_change"}, {"time": 1752, "annotation": {"number": 1, "value": 0}, "group": "control_change"}, {"time": 1753, "annotation": {"number": 1, "value": 1}, "group": "control_change"}, {"time": 1754, "annotation": {"number": 1, "value": 0}, "group": "control_change"}, {"time": 1755, "annotation": {"number": 1, "value": 1}, "group": "control_change"}, {"time": 1760, "annotation": {"number": 1, "value": 0}, "group": "control_change"}, {"time": 1760, "annotation": {"number": 1, "value": 1}, "group": "control_change"}, {"time": 1761, "annotation": {"number": 1, "value": 1}, "group": "control_change"}, {"time": 1761, "annotation": {"number": 1, "value": 0}, "group": "control_change"}, {"time": 1762, "annotation": {"number": 1, "value": 1}, "group": "control_change"}, {"time": 1762, "annotation": {"number": 1, "value": 0}, "group": "control_change"}, {"time": 1765, "annotation": {"number": 1, "value": 1}, "group": "control_change"}, {"time": 1765, "annotation": {"number": 1, "value": 0}, "group": "control_change"}, {"time": 1771, "annotation": {"number": 1, "value": 1}, "group": "control_change"}, {"time": 1772, "annotation": {"number": 1, "value": 0}, "group": "control_change"}, {"time": 1772, "annotation": {"number": 1, "value": 1}, "group": "control_change"}, {"time": 2056, "annotation": {"number": 1, "value": 0}, "group": "control_change"}, {"time": 2056, "annotation": {"number": 1, "value": 1}, "group": "control_change"}, {"time": 2057, "annotation": {"number": 1, "value": 1}, "group": "control_change"}, {"time": 2060, "annotation": {"number": 1, "value": 0}, "group": "control_change"}, {"time": 2060, "annotation": {"number": 1, "value": 1}, "group": "control_change"}, {"time": 2066, "annotation": {"number": 1, "value": 0}, "group": "control_change"}, {"time": 2066, "annotation": {"number": 1, "value": 1}, "group": "control_change"}, {"time": 2266, "annotation": {"number": 1, "value": 0}, "group": "control_change"}, {"time": 2266, "annotation": {"number": 1, "value": 1}, "group": "control_change"}, {"time": 2278, "annotation": {"number": 1, "value": 0}, "group": "control_change"}, {"time": 2279, "annotation": {"number": 1, "value": 1}, "group": "control_change"}, {"time": 2289, "annotation": {"number": 1, "value": 0}, "group": "control_change"}, {"time": 2289, "annotation": {"number": 1, "value": 1}, "group": "control_change"}, {"time": 2290, "annotation": {"number": 1, "value": 0}, "group": "control_change"}, {"time": 2291, "annotation": {"number": 1, "value": 1}, "group": "control_change"}, {"time": 2292, "annotation": {"number": 1, "value": 0}, "group": "control_change"}, {"time": 2296, "annotation": {"number": 1, "value": 1}, "group": "control_change"}, {"time": 2300, "annotation": {"number": 1, "value": 0}, "group": "control_change"}, {"time": 2914, "annotation": {"number": 1, "value": 1}, "group": "control_change"}, {"time": 2915, "annotation": {"number": 1, "value": 0}, "group": "control_change"}, {"time": 2928, "annotation": {"number": 1, "value": 1}, "group": "control_change"}, {"time": 2938, "annotation": {"number": 1, "value": 0}, "group": "control_change"}, {"time": 2939, "annotation": {"number": 1, "value": 1}, "group": "control_change"}, {"time": 2949, "annotation": {"number": 1, "value": 0}, "group": "control_change"}, {"time": 2950, "annotation": {"number": 1, "value": 1}, "group": "control_change"}, {"time": 2950, "annotation": {"number": 1, "value": 0}, "group": "control_change"}, {"time": 2951, "annotation": {"number": 1, "value": 0}, "group": "control_change"}, {"time": 2953, "annotation": {"number": 1, "value": 1}, "group": "control_change"}, {"time": 2958, "annotation": {"number": 1, "value": 0}, "group": "control_change"}, {"time": 2964, "annotation": {"number": 1, "value": 1}, "group": "control_change"}, {"time": 3545, "annotation": {"number": 1, "value": 1}, "group": "control_change"}, {"time": 3565, "annotation": {"number": 1, "value": 0}, "group": "control_change"}, {"time": 3676, "annotation": {"number": 1, "value": 1}, "group": "control_change"}, {"time": 3676, "annotation": {"number": 1, "value": 0}, "group": "control_change"}, {"time": 3677, "annotation": {"number": 1, "value": 1}, "group": "control_change"}, {"time": 3677, "annotation": {"number": 1, "value": 0}, "group": "control_change"}, {"time": 3682, "annotation": {"number": 1, "value": 1}, "group": "control_change"}, {"time": 3682, "annotation": {"number": 1, "value": 0}, "group": "control_change"}, {"time": 3693, "annotation": {"number": 1, "value": 0}, "group": "control_change"}, {"time": 3694, "annotation": {"number": 1, "value": 1}, "group": "control_change"}, {"time": 3694, "annotation": {"number": 1, "value": 0}, "group": "control_change"}, {"time": 3695, "annotation": {"number": 1, "value": 0}, "group": "control_change"}, {"time": 3695, "annotation": {"number": 1, "value": 1}, "group": "control_change"}, {"time": 3696, "annotation": {"number": 1, "value": 0}, "group": "control_change"}, {"time": 3697, "annotation": {"number": 1, "value": 1}, "group": "control_change"}, {"time": 3699, "annotation": {"number": 1, "value": 0}, "group": "control_change"}, {"time": 3700, "annotation": {"number": 1, "value": 1}, "group": "control_change"}, {"time": 3710, "annotation": {"number": 1, "value": 0}, "group": "control_change"}, {"time": 3713, "annotation": {"number": 1, "value": 1}, "group": "control_change"}, {"time": 3715, "annotation": {"number": 1, "value": 0}, "group": "control_change"}, {"time": 3717, "annotation": {"number": 1, "value": 1}, "group": "control_change"}, {"time": 3724, "annotation": {"number": 1, "value": 0}, "group": "control_change"}, {"time": 3725, "annotation": {"number": 1, "value": 1}, "group": "control_change"}, {"time": 3979, "annotation": {"number": 1, "value": 1}, "group": "control_change"}, {"time": 3980, "annotation": {"number": 1, "value": 0}, "group": "control_change"}, {"time": 3982, "annotation": {"number": 1, "value": 1}, "group": "control_change"}, {"time": 3982, "annotation": {"number": 1, "value": 0}, "group": "control_change"}, {"time": 3983, "annotation": {"number": 1, "value": 1}, "group": "control_change"}, {"time": 3984, "annotation": {"number": 1, "value": 0}, "group": "control_change"}, {"time": 3995, "annotation": {"number": 1, "value": 1}, "group": "control_change"}, {"time": 3998, "annotation": {"number": 1, "value": 0}, "group": "control_change"}, {"time": 3999, "annotation": {"number": 1, "value": 1}, "group": "control_change"}, {"time": 4000, "annotation": {"number": 1, "value": 0}, "group": "control_change"}, {"time": 4004, "annotation": {"number": 1, "value": 1}, "group": "control_change"}, {"time": 4056, "annotation": {"number": 1, "value": 0}, "group": "control_change"}, {"time": 4057, "annotation": {"number": 1, "value": 1}, "group": "control_change"}, {"time": 4058, "annotation": {"number": 1, "value": 0}, "group": "control_change"}, {"time": 4059, "annotation": {"number": 1, "value": 1}, "group": "control_change"}, {"time": 4064, "annotation": {"number": 1, "value": 0}, "group": "control_change"}, {"time": 4064, "annotation": {"number": 1, "value": 1}, "group": "control_change"}, {"time": 4065, "annotation": {"number": 1, "value": 1}, "group": "control_change"}, {"time": 4065, "annotation": {"number": 1, "value": 0}, "group": "control_change"}, {"time": 4066, "annotation": {"number": 1, "value": 1}, "group": "control_change"}, {"time": 4067, "annotation": {"number": 1, "value": 0}, "group": "control_change"}, {"time": 4069, "annotation": {"number": 1, "value": 1}, "group": "control_change"}, {"time": 4069, "annotation": {"number": 1, "value": 0}, "group": "control_change"}, {"time": 4075, "annotation": {"number": 1, "value": 1}, "group": "control_change"}, {"time": 4076, "annotation": {"number": 1, "value": 0}, "group": "control_change"}, {"time": 4076, "annotation": {"number": 1, "value": 1}, "group": "control_change"}, {"time": 4360, "annotation": {"number": 1, "value": 0}, "group": "control_change"}, {"time": 4360, "annotation": {"number": 1, "value": 1}, "group": "control_change"}, {"time": 4361, "annotation": {"number": 1, "value": 1}, "group": "control_change"}, {"time": 4364, "annotation": {"number": 1, "value": 0}, "group": "control_change"}, {"time": 4364, "annotation": {"number": 1, "value": 1}, "group": "control_change"}, {"time": 4370, "annotation": {"number": 1, "value": 0}, "group": "control_change"}, {"time": 4370, "annotation": {"number": 1, "value": 1}, "group": "control_change"}, {"time": 4570, "annotation": {"number": 1, "value": 0}, "group": "control_change"}, {"time": 4570, "annotation": {"number": 1, "value": 1}, "group": "control_change"}, {"time": 4583, "annotation": {"number": 1, "value": 0}, "group": "control_change"}, {"time": 4583, "annotation": {"number": 1, "value": 1}, "group": "control_change"}, {"time": 4593, "annotation": {"number": 1, "value": 0}, "group": "control_change"}, {"time": 4593, "annotation": {"number": 1, "value": 1}, "group": "control_change"}, {"time": 4594, "annotation": {"number": 1, "value": 0}, "group": "control_change"}, {"time": 4595, "annotation": {"number": 1, "value": 1}, "group": "control_change"}, {"time": 4596, "annotation": {"number": 1, "value": 0}, "group": "control_change"}, {"time": 4600, "annotation": {"number": 1, "value": 1}, "group": "control_change"}, {"time": 4604, "annotation": {"number": 1, "value": 0}, "group": "control_change"}, {"time": 5130, "annotation": {"number": 1, "value": 1}, "group": "control_change"}, {"time": 5132, "annotation": {"number": 1, "value": 0}, "group": "control_change"}, {"time": 5134, "annotation": {"number": 1, "value": 1}, "group": "control_change"}, {"time": 5134, "annotation": {"number": 1, "value": 0}, "group": "control_change"}, {"time": 5135, "annotation": {"number": 1, "value": 0}, "group": "control_change"}, {"time": 5147, "annotation": {"number": 1, "value": 1}, "group": "control_change"}, {"time": 5150, "annotation": {"number": 1, "value": 0}, "group": "control_change"}, {"time": 5150, "annotation": {"number": 1, "value": 1}, "group": "control_change"}, {"time": 5151, "annotation": {"number": 1, "value": 0}, "group": "control_change"}, {"time": 5156, "annotation": {"number": 1, "value": 1}, "group": "control_change"}, {"time": 5208, "annotation": {"number": 1, "value": 0}, "group": "control_change"}, {"time": 5209, "annotation": {"number": 1, "value": 1}, "group": "control_change"}, {"time": 5209, "annotation": {"number": 1, "value": 0}, "group": "control_change"}, {"time": 5211, "annotation": {"number": 1, "value": 1}, "group": "control_change"}, {"time": 5215, "annotation": {"number": 1, "value": 0}, "group": "control_change"}, {"time": 5216, "annotation": {"number": 1, "value": 1}, "group": "control_change"}, {"time": 5216, "annotation": {"number": 1, "value": 0}, "group": "control_change"}, {"time": 5217, "annotation": {"number": 1, "value": 0}, "group": "control_change"}, {"time": 5218, "annotation": {"number": 1, "value": 1}, "group": "control_change"}, {"time": 5218, "annotation": {"number": 1, "value": 0}, "group": "control_change"}, {"time": 5220, "annotation": {"number": 1, "value": 1}, "group": "control_change"}, {"time": 5220, "annotation": {"number": 1, "value": 0}, "group": "control_change"}, {"time": 5227, "annotation": {"number": 1, "value": 1}, "group": "control_change"}, {"time": 5227, "annotation": {"number": 1, "value": 0}, "group": "control_change"}, {"time": 5228, "annotation": {"number": 1, "value": 1}, "group": "control_change"}, {"time": 5228, "annotation": {"number": 1, "value": 0}, "group": "control_change"}, {"time": 5511, "annotation": {"number": 1, "value": 0}, "group": "control_change"}, {"time": 5512, "annotation": {"number": 1, "value": 1}, "group": "control_change"}, {"time": 5512, "annotation": {"number": 1, "value": 0}, "group": "control_change"}, {"time": 5515, "annotation": {"number": 1, "value": 0}, "group": "control_change"}, {"time": 5516, "annotation": {"number": 1, "value": 1}, "group": "control_change"}, {"time": 5521, "annotation": {"number": 1, "value": 0}, "group": "control_change"}, {"time": 5522, "annotation": {"number": 1, "value": 1}, "group": "control_change"}, {"time": 6336, "annotation": {"number": 1, "value": 0}, "group": "control_change"}, {"time": 6336, "annotation": {"number": 1, "value": 1}, "group": "control_change"}, {"time": 6434, "annotation": {"number": 1, "value": 0}, "group": "control_change"}, {"time": 6545, "annotation": {"number": 1, "value": 1}, "group": "control_change"}]}, {"program": 0, "is_drum": false, "name": "BRIDGE", "notes": [{"time": 257, "pitch": 54, "duration": 94, "velocity": 59}, {"time": 257, "pitch": 59, "duration": 93, "velocity": 63}, {"time": 257, "pitch": 61, "duration": 94, "velocity": 66}, {"time": 257, "pitch": 63, "duration": 93, "velocity": 61}, {"time": 257, "pitch": 71, "duration": 13, "velocity": 88}, {"time": 269, "pitch": 66, "duration": 8, "velocity": 70}, {"time": 275, "pitch": 68, "duration": 5, "velocity": 73}, {"time": 281, "pitch": 71, "duration": 11, "velocity": 70}, {"time": 293, "pitch": 75, "duration": 13, "velocity": 70}, {"time": 305, "pitch": 73, "duration": 19, "velocity": 78}, {"time": 323, "pitch": 75, "duration": 7, "velocity": 70}, {"time": 329, "pitch": 73, "duration": 13, "velocity": 93}, {"time": 341, "pitch": 71, "duration": 16, "velocity": 73}, {"time": 353, "pitch": 54, "duration": 90, "velocity": 45}, {"time": 353, "pitch": 59, "duration": 89, "velocity": 57}, {"time": 353, "pitch": 61, "duration": 89, "velocity": 50}, {"time": 353, "pitch": 63, "duration": 88, "velocity": 44}, {"time": 365, "pitch": 66, "duration": 8, "velocity": 56}, {"time": 371, "pitch": 68, "duration": 4, "velocity": 54}, {"time": 377, "pitch": 71, "duration": 11, "velocity": 62}, {"time": 389, "pitch": 75, "duration": 11, "velocity": 78}, {"time": 401, "pitch": 73, "duration": 14, "velocity": 75}, {"time": 419, "pitch": 78, "duration": 4, "velocity": 60}, {"time": 425, "pitch": 75, "duration": 5, "velocity": 64}, {"time": 437, "pitch": 71, "duration": 5, "velocity": 70}, {"time": 599, "pitch": 66, "duration": 4, "velocity": 95}, {"time": 602, "pitch": 68, "duration": 4, "velocity": 76}, {"time": 605, "pitch": 71, "duration": 9, "velocity": 93}, {"time": 983, "pitch": 66, "duration": 5, "velocity": 88}, {"time": 986, "pitch": 68, "duration": 4, "velocity": 75}, {"time": 989, "pitch": 71, "duration": 3, "velocity": 88}, {"time": 995, "pitch": 73, "duration": 3, "velocity": 93}, {"time": 1001, "pitch": 75, "duration": 2, "velocity": 99}, {"time": 1007, "pitch": 78, "duration": 3, "velocity": 61}, {"time": 1013, "pitch": 73, "duration": 8, "velocity": 80}, {"time": 1175, "pitch": 75, "duration": 5, "velocity": 103}, {"time": 1181, "pitch": 73, "duration": 5, "velocity": 100}, {"time": 1187, "pitch": 71, "duration": 4, "velocity": 108}, {"time": 1193, "pitch": 68, "duration": 4, "velocity": 105}, {"time": 1199, "pitch": 66, "duration": 4, "velocity": 100}, {"time": 1205, "pitch": 68, "duration": 4, "velocity": 108}, {"time": 1211, "pitch": 71, "duration": 18, "velocity": 122}, {"time": 1301, "pitch": 73, "duration": 6, "velocity": 43}, {"time": 1307, "pitch": 68, "duration": 8, "velocity": 80}, {"time": 1313, "pitch": 71, "duration": 13, "velocity": 93}, {"time": 1325, "pitch": 68, "duration": 7, "velocity": 78}, {"time": 1331, "pitch": 71, "duration": 9, "velocity": 72}, {"time": 1421, "pitch": 73, "duration": 5, "velocity": 67}, {"time": 1427, "pitch": 68, "duration": 9, "velocity": 60}, {"time": 1433, "pitch": 71, "duration": 19, "velocity": 75}, {"time": 1613, "pitch": 66, "duration": 8, "velocity": 95}, {"time": 1619, "pitch": 68, "duration": 6, "velocity": 85}, {"time": 1625, "pitch": 71, "duration": 12, "velocity": 91}, {"time": 1637, "pitch": 75, "duration": 13, "velocity": 76}, {"time": 1649, "pitch": 73, "duration": 28, "velocity": 99}, {"time": 1661, "pitch": 66, "duration": 8, "velocity": 73}, {"time": 1667, "pitch": 68, "duration": 7, "velocity": 69}, {"time": 1673, "pitch": 71, "duration": 12, "velocity": 80}, {"time": 1685, "pitch": 73, "duration": 12, "velocity": 95}, {"time": 1697, "pitch": 68, "duration": 23, "velocity": 93}, {"time": 1709, "pitch": 66, "duration": 7, "velocity": 82}, {"time": 1715, "pitch": 68, "duration": 5, "velocity": 72}, {"time": 1721, "pitch": 71, "duration": 11, "velocity": 93}, {"time": 1733, "pitch": 78, "duration": 13, "velocity": 80}, {"time": 1745, "pitch": 75, "duration": 14, "velocity": 97}, {"time": 1763, "pitch": 78, "duration": 6, "velocity": 76}, {"time": 1769, "pitch": 75, "duration": 12, "velocity": 88}, {"time": 1781, "pitch": 71, "duration": 12, "velocity": 88}, {"time": 1793, "pitch": 68, "duration": 23, "velocity": 101}, {"time": 1805, "pitch": 66, "duration": 7, "velocity": 91}, {"time": 1811, "pitch": 68, "duration": 5, "velocity": 82}, {"time": 1817, "pitch": 71, "duration": 11, "velocity": 91}, {"time": 1829, "pitch": 75, "duration": 12, "velocity": 85}, {"time": 1841, "pitch": 73, "duration": 8, "velocity": 95}, {"time": 1853, "pitch": 75, "duration": 10, "velocity": 97}, {"time": 1865, "pitch": 73, "duration": 6, "velocity": 95}, {"time": 1871, "pitch": 71, "duration": 6, "velocity": 80}, {"time": 1877, "pitch": 68, "duration": 6, "velocity": 97}, {"time": 1937, "pitch": 78, "duration": 7, "velocity": 66}, {"time": 1943, "pitch": 75, "duration": 7, "velocity": 75}, {"time": 1949, "pitch": 73, "duration": 6, "velocity": 91}, {"time": 1955, "pitch": 75, "duration": 6, "velocity": 76}, {"time": 1961, "pitch": 71, "duration": 7, "velocity": 76}, {"time": 1967, "pitch": 73, "duration": 5, "velocity": 69}, {"time": 1973, "pitch": 68, "duration": 7, "velocity": 91}, {"time": 1979, "pitch": 66, "duration": 7, "velocity": 67}, {"time": 1985, "pitch": 71, "duration": 17, "velocity": 91}, {"time": 1997, "pitch": 66, "duration": 8, "velocity": 91}, {"time": 2003, "pitch": 68, "duration": 5, "velocity": 91}, {"time": 2009, "pitch": 71, "duration": 11, "velocity": 97}, {"time": 2021, "pitch": 75, "duration": 10, "velocity": 78}, {"time": 2033, "pitch": 73, "duration": 24, "velocity": 97}, {"time": 2057, "pitch": 75, "duration": 6, "velocity": 66}, {"time": 2063, "pitch": 78, "duration": 5, "velocity": 70}, {"time": 2069, "pitch": 75, "duration": 6, "velocity": 76}, {"time": 2075, "pitch": 73, "duration": 5, "velocity": 80}, {"time": 2081, "pitch": 68, "duration": 7, "velocity": 85}, {"time": 2093, "pitch": 66, "duration": 7, "velocity": 93}, {"time": 2099, "pitch": 68, "duration": 5, "velocity": 82}, {"time": 2105, "pitch": 71, "duration": 9, "velocity": 93}, {"time": 2117, "pitch": 75, "duration": 15, "velocity": 99}, {"time": 2129, "pitch": 78, "duration": 17, "velocity": 80}, {"time": 2141, "pitch": 78, "duration": 5, "velocity": 78}, {"time": 2153, "pitch": 75, "duration": 5, "velocity": 93}, {"time": 2159, "pitch": 73, "duration": 4, "velocity": 91}, {"time": 2165, "pitch": 71, "duration": 9, "velocity": 93}, {"time": 2189, "pitch": 66, "duration": 8, "velocity": 95}, {"time": 2195, "pitch": 68, "duration": 5, "velocity": 85}, {"time": 2201, "pitch": 71, "duration": 11, "velocity": 97}, {"time": 2213, "pitch": 75, "duration": 10, "velocity": 91}, {"time": 2225, "pitch": 73, "duration": 14, "velocity": 91}, {"time": 2243, "pitch": 75, "duration": 3, "velocity": 75}, {"time": 2249, "pitch": 73, "duration": 10, "velocity": 97}, {"time": 2261, "pitch": 71, "duration": 11, "velocity": 95}, {"time": 2273, "pitch": 68, "duration": 9, "velocity": 88}, {"time": 2315, "pitch": 66, "duration": 4, "velocity": 93}, {"time": 2318, "pitch": 68, "duration": 4, "velocity": 85}, {"time": 2321, "pitch": 75, "duration": 20, "velocity": 93}, {"time": 2333, "pitch": 73, "duration": 13, "velocity": 91}, {"time": 2345, "pitch": 71, "duration": 13, "velocity": 99}, {"time": 2357, "pitch": 68, "duration": 11, "velocity": 85}, {"time": 2369, "pitch": 71, "duration": 21, "velocity": 97}, {"time": 2384, "pitch": 66, "duration": 5, "velocity": 91}, {"time": 2387, "pitch": 68, "duration": 4, "velocity": 82}, {"time": 2393, "pitch": 71, "duration": 11, "velocity": 101}, {"time": 2405, "pitch": 75, "duration": 9, "velocity": 97}, {"time": 2417, "pitch": 73, "duration": 3, "velocity": 113}, {"time": 2420, "pitch": 73, "duration": 3, "velocity": 58}, {"time": 2426, "pitch": 73, "duration": 1, "velocity": 76}, {"time": 2429, "pitch": 73, "duration": 2, "velocity": 99}, {"time": 2435, "pitch": 75, "duration": 3, "velocity": 103}, {"time": 2441, "pitch": 73, "duration": 7, "velocity": 118}, {"time": 2453, "pitch": 71, "duration": 12, "velocity": 103}, {"time": 2477, "pitch": 66, "duration": 7, "velocity": 95}, {"time": 2483, "pitch": 68, "duration": 4, "velocity": 95}, {"time": 2489, "pitch": 71, "duration": 7, "velocity": 101}, {"time": 2501, "pitch": 78, "duration": 9, "velocity": 85}, {"time": 2513, "pitch": 75, "duration": 17, "velocity": 109}, {"time": 2531, "pitch": 78, "duration": 3, "velocity": 88}, {"time": 2537, "pitch": 75, "duration": 4, "velocity": 103}, {"time": 2543, "pitch": 73, "duration": 6, "velocity": 97}, {"time": 2549, "pitch": 71, "duration": 12, "velocity": 97}, {"time": 2573, "pitch": 66, "duration": 5, "velocity": 97}, {"time": 2579, "pitch": 68, "duration": 5, "velocity": 95}, {"time": 2585, "pitch": 71, "duration": 13, "velocity": 101}, {"time": 2597, "pitch": 75, "duration": 10, "velocity": 99}, {"time": 2609, "pitch": 73, "duration": 15, "velocity": 99}, {"time": 2627, "pitch": 78, "duration": 4, "velocity": 88}, {"time": 2633, "pitch": 75, "duration": 9, "velocity": 101}, {"time": 2645, "pitch": 71, "duration": 17, "velocity": 88}, {"time": 2657, "pitch": 73, "duration": 5, "velocity": 70}, {"time": 2706, "pitch": 48, "duration": 2, "velocity": 64}, {"time": 2708, "pitch": 50, "duration": 1, "velocity": 90}, {"time": 2710, "pitch": 52, "duration": 1, "velocity": 93}, {"time": 2710, "pitch": 53, "duration": 1, "velocity": 105}, {"time": 2711, "pitch": 55, "duration": 1, "velocity": 105}, {"time": 2712, "pitch": 57, "duration": 1, "velocity": 103}, {"time": 2712, "pitch": 59, "duration": 1, "velocity": 100}, {"time": 2713, "pitch": 60, "duration": 1, "velocity": 100}, {"time": 2714, "pitch": 62, "duration": 1, "velocity": 100}, {"time": 2715, "pitch": 64, "duration": 1, "velocity": 90}, {"time": 2716, "pitch": 65, "duration": 1, "velocity": 95}, {"time": 2717, "pitch": 67, "duration": 1, "velocity": 88}, {"time": 2718, "pitch": 69, "duration": 1, "velocity": 90}, {"time": 2719, "pitch": 71, "duration": 1, "velocity": 95}, {"time": 2720, "pitch": 72, "duration": 1, "velocity": 93}, {"time": 2721, "pitch": 74, "duration": 1, "velocity": 85}, {"time": 2722, "pitch": 76, "duration": 1, "velocity": 88}, {"time": 2723, "pitch": 77, "duration": 1, "velocity": 85}, {"time": 2723, "pitch": 79, "duration": 1, "velocity": 90}, {"time": 2724, "pitch": 81, "duration": 1, "velocity": 85}, {"time": 2725, "pitch": 83, "duration": 1, "velocity": 72}, {"time": 3071, "pitch": 59, "duration": 5, "velocity": 95}, {"time": 3078, "pitch": 64, "duration": 4, "velocity": 103}, {"time": 3083, "pitch": 66, "duration": 2, "velocity": 100}, {"time": 3089, "pitch": 66, "duration": 11, "velocity": 103}, {"time": 3101, "pitch": 68, "duration": 6, "velocity": 92}, {"time": 3107, "pitch": 66, "duration": 8, "velocity": 108}, {"time": 3125, "pitch": 63, "duration": 4, "velocity": 95}, {"time": 3131, "pitch": 66, "duration": 7, "velocity": 110}, {"time": 3287, "pitch": 66, "duration": 3, "velocity": 90}, {"time": 3290, "pitch": 68, "duration": 4, "velocity": 85}, {"time": 3293, "pitch": 71, "duration": 4, "velocity": 98}, {"time": 3299, "pitch": 75, "duration": 10, "velocity": 113}, {"time": 3311, "pitch": 73, "duration": 4, "velocity": 90}, {"time": 3317, "pitch": 71, "duration": 5, "velocity": 108}, {"time": 3323, "pitch": 66, "duration": 11, "velocity": 113}, {"time": 3479, "pitch": 75, "duration": 4, "velocity": 98}, {"time": 3485, "pitch": 73, "duration": 4, "velocity": 103}, {"time": 3491, "pitch": 71, "duration": 6, "velocity": 108}, {"time": 3497, "pitch": 68, "duration": 5, "velocity": 100}, {"time": 3503, "pitch": 66, "duration": 6, "velocity": 105}, {"time": 3509, "pitch": 68, "duration": 5, "velocity": 103}, {"time": 3515, "pitch": 71, "duration": 9, "velocity": 113}, {"time": 3917, "pitch": 66, "duration": 8, "velocity": 95}, {"time": 3923, "pitch": 68, "duration": 6, "velocity": 85}, {"time": 3929, "pitch": 71, "duration": 12, "velocity": 91}, {"time": 3941, "pitch": 75, "duration": 13, "velocity": 76}, {"time": 3953, "pitch": 73, "duration": 28, "velocity": 99}, {"time": 3965, "pitch": 66, "duration": 8, "velocity": 73}, {"time": 3971, "pitch": 68, "duration": 7, "velocity": 69}, {"time": 3977, "pitch": 71, "duration": 12, "velocity": 80}, {"time": 3989, "pitch": 73, "duration": 12, "velocity": 95}, {"time": 4001, "pitch": 68, "duration": 23, "velocity": 93}, {"time": 4013, "pitch": 66, "duration": 7, "velocity": 82}, {"time": 4019, "pitch": 68, "duration": 5, "velocity": 72}, {"time": 4025, "pitch": 71, "duration": 11, "velocity": 93}, {"time": 4037, "pitch": 78, "duration": 13, "velocity": 80}, {"time": 4049, "pitch": 75, "duration": 14, "velocity": 97}, {"time": 4067, "pitch": 78, "duration": 6, "velocity": 76}, {"time": 4073, "pitch": 75, "duration": 12, "velocity": 88}, {"time": 4085, "pitch": 71, "duration": 12, "velocity": 88}, {"time": 4097, "pitch": 68, "duration": 23, "velocity": 101}, {"time": 4109, "pitch": 66, "duration": 7, "velocity": 91}, {"time": 4115, "pitch": 68, "duration": 5, "velocity": 82}, {"time": 4121, "pitch": 71, "duration": 11, "velocity": 91}, {"time": 4133, "pitch": 75, "duration": 12, "velocity": 85}, {"time": 4145, "pitch": 73, "duration": 8, "velocity": 95}, {"time": 4157, "pitch": 75, "duration": 10, "velocity": 97}, {"time": 4169, "pitch": 73, "duration": 6, "velocity": 95}, {"time": 4175, "pitch": 71, "duration": 6, "velocity": 80}, {"time": 4181, "pitch": 68, "duration": 6, "velocity": 97}, {"time": 4241, "pitch": 78, "duration": 7, "velocity": 66}, {"time": 4247, "pitch": 75, "duration": 7, "velocity": 75}, {"time": 4253, "pitch": 73, "duration": 6, "velocity": 91}, {"time": 4259, "pitch": 75, "duration": 6, "velocity": 76}, {"time": 4265, "pitch": 71, "duration": 7, "velocity": 76}, {"time": 4271, "pitch": 73, "duration": 5, "velocity": 69}, {"time": 4277, "pitch": 68, "duration": 7, "velocity": 91}, {"time": 4283, "pitch": 66, "duration": 7, "velocity": 67}, {"time": 4289, "pitch": 71, "duration": 17, "velocity": 91}, {"time": 4301, "pitch": 66, "duration": 8, "velocity": 91}, {"time": 4307, "pitch": 68, "duration": 5, "velocity": 91}, {"time": 4313, "pitch": 71, "duration": 11, "velocity": 97}, {"time": 4325, "pitch": 75, "duration": 10, "velocity": 78}, {"time": 4337, "pitch": 73, "duration": 24, "velocity": 97}, {"time": 4361, "pitch": 75, "duration": 6, "velocity": 66}, {"time": 4367, "pitch": 78, "duration": 5, "velocity": 70}, {"time": 4373, "pitch": 75, "duration": 6, "velocity": 76}, {"time": 4379, "pitch": 73, "duration": 5, "velocity": 80}, {"time": 4385, "pitch": 68, "duration": 7, "velocity": 85}, {"time": 4397, "pitch": 66, "duration": 7, "velocity": 93}, {"time": 4403, "pitch": 68, "duration": 5, "velocity": 82}, {"time": 4409, "pitch": 71, "duration": 9, "velocity": 93}, {"time": 4421, "pitch": 75, "duration": 15, "velocity": 99}, {"time": 4433, "pitch": 78, "duration": 17, "velocity": 80}, {"time": 4445, "pitch": 78, "duration": 5, "velocity": 78}, {"time": 4457, "pitch": 75, "duration": 5, "velocity": 93}, {"time": 4463, "pitch": 73, "duration": 4, "velocity": 91}, {"time": 4469, "pitch": 71, "duration": 9, "velocity": 93}, {"time": 4493, "pitch": 66, "duration": 8, "velocity": 95}, {"time": 4499, "pitch": 68, "duration": 5, "velocity": 85}, {"time": 4505, "pitch": 71, "duration": 11, "velocity": 97}, {"time": 4517, "pitch": 75, "duration": 10, "velocity": 91}, {"time": 4529, "pitch": 73, "duration": 14, "velocity": 91}, {"time": 4547, "pitch": 75, "duration": 3, "velocity": 75}, {"time": 4553, "pitch": 73, "duration": 10, "velocity": 97}, {"time": 4565, "pitch": 71, "duration": 11, "velocity": 95}, {"time": 4577, "pitch": 68, "duration": 9, "velocity": 88}, {"time": 4619, "pitch": 66, "duration": 4, "velocity": 93}, {"time": 4622, "pitch": 68, "duration": 4, "velocity": 85}, {"time": 4625, "pitch": 75, "duration": 20, "velocity": 93}, {"time": 4637, "pitch": 73, "duration": 13, "velocity": 91}, {"time": 4649, "pitch": 71, "duration": 13, "velocity": 99}, {"time": 4661, "pitch": 68, "duration": 11, "velocity": 85}, {"time": 4673, "pitch": 71, "duration": 21, "velocity": 97}, {"time": 4688, "pitch": 66, "duration": 5, "velocity": 91}, {"time": 4691, "pitch": 68, "duration": 4, "velocity": 82}, {"time": 4697, "pitch": 71, "duration": 11, "velocity": 101}, {"time": 4709, "pitch": 75, "duration": 9, "velocity": 97}, {"time": 4721, "pitch": 73, "duration": 3, "velocity": 113}, {"time": 4724, "pitch": 73, "duration": 3, "velocity": 58}, {"time": 4730, "pitch": 73, "duration": 1, "velocity": 76}, {"time": 4733, "pitch": 73, "duration": 2, "velocity": 99}, {"time": 4739, "pitch": 75, "duration": 3, "velocity": 103}, {"time": 4745, "pitch": 73, "duration": 7, "velocity": 118}, {"time": 4757, "pitch": 71, "duration": 12, "velocity": 103}, {"time": 4781, "pitch": 66, "duration": 7, "velocity": 95}, {"time": 4787, "pitch": 68, "duration": 4, "velocity": 95}, {"time": 4793, "pitch": 71, "duration": 7, "velocity": 101}, {"time": 4805, "pitch": 78, "duration": 9, "velocity": 85}, {"time": 4817, "pitch": 75, "duration": 17, "velocity": 109}, {"time": 4835, "pitch": 78, "duration": 3, "velocity": 88}, {"time": 4841, "pitch": 75, "duration": 4, "velocity": 103}, {"time": 4847, "pitch": 73, "duration": 6, "velocity": 97}, {"time": 4853, "pitch": 71, "duration": 12, "velocity": 97}, {"time": 4877, "pitch": 66, "duration": 5, "velocity": 97}, {"time": 4883, "pitch": 68, "duration": 5, "velocity": 95}, {"time": 4889, "pitch": 71, "duration": 13, "velocity": 101}, {"time": 4901, "pitch": 75, "duration": 10, "velocity": 99}, {"time": 4913, "pitch": 73, "duration": 15, "velocity": 99}, {"time": 4931, "pitch": 78, "duration": 4, "velocity": 88}, {"time": 4937, "pitch": 75, "duration": 9, "velocity": 101}, {"time": 4949, "pitch": 71, "duration": 17, "velocity": 88}, {"time": 4961, "pitch": 73, "duration": 5, "velocity": 70}, {"time": 5069, "pitch": 66, "duration": 8, "velocity": 95}, {"time": 5075, "pitch": 68, "duration": 6, "velocity": 85}, {"time": 5081, "pitch": 71, "duration": 12, "velocity": 91}, {"time": 5093, "pitch": 75, "duration": 13, "velocity": 76}, {"time": 5105, "pitch": 73, "duration": 28, "velocity": 99}, {"time": 5117, "pitch": 66, "duration": 8, "velocity": 73}, {"time": 5123, "pitch": 68, "duration": 7, "velocity": 69}, {"time": 5129, "pitch": 71, "duration": 12, "velocity": 80}, {"time": 5141, "pitch": 73, "duration": 12, "velocity": 95}, {"time": 5153, "pitch": 68, "duration": 23, "velocity": 93}, {"time": 5165, "pitch": 66, "duration": 7, "velocity": 82}, {"time": 5171, "pitch": 68, "duration": 5, "velocity": 72}, {"time": 5177, "pitch": 71, "duration": 11, "velocity": 93}, {"time": 5189, "pitch": 78, "duration": 13, "velocity": 80}, {"time": 5201, "pitch": 75, "duration": 14, "velocity": 97}, {"time": 5219, "pitch": 78, "duration": 6, "velocity": 76}, {"time": 5225, "pitch": 75, "duration": 12, "velocity": 88}, {"time": 5237, "pitch": 71, "duration": 12, "velocity": 88}, {"time": 5249, "pitch": 68, "duration": 23, "velocity": 101}, {"time": 5261, "pitch": 66, "duration": 7, "velocity": 91}, {"time": 5267, "pitch": 68, "duration": 5, "velocity": 82}, {"time": 5273, "pitch": 71, "duration": 11, "velocity": 91}, {"time": 5285, "pitch": 75, "duration": 12, "velocity": 85}, {"time": 5297, "pitch": 73, "duration": 8, "velocity": 95}, {"time": 5309, "pitch": 75, "duration": 10, "velocity": 97}, {"time": 5321, "pitch": 73, "duration": 6, "velocity": 95}, {"time": 5327, "pitch": 71, "duration": 6, "velocity": 80}, {"time": 5333, "pitch": 68, "duration": 6, "velocity": 97}, {"time": 5393, "pitch": 78, "duration": 7, "velocity": 66}, {"time": 5399, "pitch": 75, "duration": 7, "velocity": 75}, {"time": 5405, "pitch": 73, "duration": 6, "velocity": 91}, {"time": 5411, "pitch": 75, "duration": 6, "velocity": 76}, {"time": 5417, "pitch": 71, "duration": 7, "velocity": 76}, {"time": 5423, "pitch": 73, "duration": 5, "velocity": 69}, {"time": 5429, "pitch": 68, "duration": 7, "velocity": 91}, {"time": 5435, "pitch": 66, "duration": 7, "velocity": 67}, {"time": 5441, "pitch": 71, "duration": 17, "velocity": 91}, {"time": 5453, "pitch": 66, "duration": 8, "velocity": 91}, {"time": 5459, "pitch": 68, "duration": 5, "velocity": 91}, {"time": 5465, "pitch": 71, "duration": 11, "velocity": 97}, {"time": 5477, "pitch": 75, "duration": 10, "velocity": 78}, {"time": 5489, "pitch": 73, "duration": 24, "velocity": 97}, {"time": 5513, "pitch": 75, "duration": 6, "velocity": 66}, {"time": 5519, "pitch": 78, "duration": 5, "velocity": 70}, {"time": 5525, "pitch": 75, "duration": 6, "velocity": 76}, {"time": 5531, "pitch": 73, "duration": 5, "velocity": 80}, {"time": 5537, "pitch": 68, "duration": 7, "velocity": 85}, {"time": 5549, "pitch": 66, "duration": 7, "velocity": 93}, {"time": 5555, "pitch": 68, "duration": 5, "velocity": 82}, {"time": 5561, "pitch": 71, "duration": 9, "velocity": 93}, {"time": 5573, "pitch": 75, "duration": 15, "velocity": 99}, {"time": 5585, "pitch": 78, "duration": 17, "velocity": 80}, {"time": 5597, "pitch": 78, "duration": 5, "velocity": 78}, {"time": 5609, "pitch": 75, "duration": 5, "velocity": 93}, {"time": 5615, "pitch": 73, "duration": 4, "velocity": 91}, {"time": 5621, "pitch": 71, "duration": 9, "velocity": 93}, {"time": 5645, "pitch": 66, "duration": 8, "velocity": 95}, {"time": 5651, "pitch": 68, "duration": 5, "velocity": 85}, {"time": 5657, "pitch": 71, "duration": 11, "velocity": 97}, {"time": 5669, "pitch": 75, "duration": 10, "velocity": 91}, {"time": 5681, "pitch": 73, "duration": 14, "velocity": 91}, {"time": 5699, "pitch": 75, "duration": 3, "velocity": 75}, {"time": 5705, "pitch": 73, "duration": 10, "velocity": 97}, {"time": 5717, "pitch": 71, "duration": 11, "velocity": 95}, {"time": 5729, "pitch": 68, "duration": 9, "velocity": 88}, {"time": 5771, "pitch": 66, "duration": 4, "velocity": 93}, {"time": 5774, "pitch": 68, "duration": 4, "velocity": 85}, {"time": 5777, "pitch": 75, "duration": 20, "velocity": 93}, {"time": 5789, "pitch": 73, "duration": 13, "velocity": 91}, {"time": 5801, "pitch": 71, "duration": 13, "velocity": 99}, {"time": 5813, "pitch": 68, "duration": 11, "velocity": 85}, {"time": 5825, "pitch": 71, "duration": 21, "velocity": 97}, {"time": 5840, "pitch": 66, "duration": 5, "velocity": 91}, {"time": 5843, "pitch": 68, "duration": 4, "velocity": 82}, {"time": 5849, "pitch": 71, "duration": 11, "velocity": 101}, {"time": 5861, "pitch": 75, "duration": 9, "velocity": 97}, {"time": 5873, "pitch": 73, "duration": 3, "velocity": 113}, {"time": 5876, "pitch": 73, "duration": 3, "velocity": 58}, {"time": 5882, "pitch": 73, "duration": 1, "velocity": 76}, {"time": 5885, "pitch": 73, "duration": 2, "velocity": 99}, {"time": 5891, "pitch": 75, "duration": 3, "velocity": 103}, {"time": 5897, "pitch": 73, "duration": 7, "velocity": 118}, {"time": 5909, "pitch": 71, "duration": 12, "velocity": 103}, {"time": 5933, "pitch": 66, "duration": 7, "velocity": 95}, {"time": 5939, "pitch": 68, "duration": 4, "velocity": 95}, {"time": 5945, "pitch": 71, "duration": 7, "velocity": 101}, {"time": 5957, "pitch": 78, "duration": 9, "velocity": 85}, {"time": 5969, "pitch": 75, "duration": 17, "velocity": 109}, {"time": 5987, "pitch": 78, "duration": 3, "velocity": 88}, {"time": 5993, "pitch": 75, "duration": 4, "velocity": 103}, {"time": 5999, "pitch": 73, "duration": 6, "velocity": 97}, {"time": 6005, "pitch": 71, "duration": 12, "velocity": 97}, {"time": 6029, "pitch": 66, "duration": 5, "velocity": 97}, {"time": 6035, "pitch": 68, "duration": 5, "velocity": 95}, {"time": 6041, "pitch": 71, "duration": 13, "velocity": 101}, {"time": 6053, "pitch": 75, "duration": 10, "velocity": 99}, {"time": 6065, "pitch": 73, "duration": 15, "velocity": 99}, {"time": 6083, "pitch": 78, "duration": 4, "velocity": 88}, {"time": 6089, "pitch": 75, "duration": 9, "velocity": 101}, {"time": 6101, "pitch": 71, "duration": 17, "velocity": 88}, {"time": 6113, "pitch": 73, "duration": 5, "velocity": 70}, {"time": 6593, "pitch": 47, "duration": 92, "velocity": 70}, {"time": 6593, "pitch": 59, "duration": 44, "velocity": 82}, {"time": 6593, "pitch": 63, "duration": 7, "velocity": 76}, {"time": 6593, "pitch": 66, "duration": 8, "velocity": 80}, {"time": 6593, "pitch": 71, "duration": 10, "velocity": 78}, {"time": 6605, "pitch": 66, "duration": 7, "velocity": 37}, {"time": 6611, "pitch": 68, "duration": 4, "velocity": 56}, {"time": 6617, "pitch": 71, "duration": 8, "velocity": 64}, {"time": 6629, "pitch": 75, "duration": 10, "velocity": 70}, {"time": 6647, "pitch": 59, "duration": 11, "velocity": 35}, {"time": 6665, "pitch": 73, "duration": 5, "velocity": 93}, {"time": 6674, "pitch": 71, "duration": 3, "velocity": 72}, {"time": 6680, "pitch": 67, "duration": 3, "velocity": 91}, {"time": 6689, "pitch": 47, "duration": 36, "velocity": 75}, {"time": 6689, "pitch": 66, "duration": 14, "velocity": 63}, {"time": 6701, "pitch": 54, "duration": 20, "velocity": 46}, {"time": 6707, "pitch": 59, "duration": 15, "velocity": 58}, {"time": 6713, "pitch": 61, "duration": 4, "velocity": 57}, {"time": 6719, "pitch": 63, "duration": 3, "velocity": 67}, {"time": 6725, "pitch": 66, "duration": 2, "velocity": 78}, {"time": 6737, "pitch": 47, "duration": 7, "velocity": 46}, {"time": 6737, "pitch": 52, "duration": 6, "velocity": 61}, {"time": 6737, "pitch": 56, "duration": 5, "velocity": 58}, {"time": 6737, "pitch": 59, "duration": 6, "velocity": 61}, {"time": 6737, "pitch": 64, "duration": 5, "velocity": 53}, {"time": 6737, "pitch": 67, "duration": 6, "velocity": 67}, {"time": 6755, "pitch": 42, "duration": 14, "velocity": 58}, {"time": 6755, "pitch": 54, "duration": 10, "velocity": 45}, {"time": 6755, "pitch": 56, "duration": 12, "velocity": 62}, {"time": 6755, "pitch": 59, "duration": 9, "velocity": 73}, {"time": 6755, "pitch": 64, "duration": 11, "velocity": 62}, {"time": 6767, "pitch": 49, "duration": 2, "velocity": 70}, {"time": 6773, "pitch": 61, "duration": 3, "velocity": 67}, {"time": 6785, "pitch": 35, "duration": 17, "velocity": 62}, {"time": 6785, "pitch": 47, "duration": 16, "velocity": 50}, {"time": 6785, "pitch": 54, "duration": 14, "velocity": 60}, {"time": 6785, "pitch": 59, "duration": 16, "velocity": 67}, {"time": 6785, "pitch": 63, "duration": 15, "velocity": 57}], "annotations": [{"time": 255, "annotation": {"number": 64, "value": 127}, "group": "control_change"}, {"time": 446, "annotation": {"number": 64, "value": 0}, "group": "control_change"}, {"time": 6599, "annotation": {"number": 64, "value": 127}, "group": "control_change"}, {"time": 6690, "annotation": {"number": 64, "value": 0}, "group": "control_change"}, {"time": 6697, "annotation": {"number": 64, "value": 127}, "group": "control_change"}, {"time": 6734, "annotation": {"number": 64, "value": 0}, "group": "control_change"}, {"time": 6740, "annotation": {"number": 64, "value": 127}, "group": "control_change"}, {"time": 6753, "annotation": {"number": 64, "value": 0}, "group": "control_change"}, {"time": 6760, "annotation": {"number": 64, "value": 127}, "group": "control_change"}, {"time": 6782, "annotation": {"number": 64, "value": 0}, "group": "control_change"}, {"time": 6789, "annotation": {"number": 64, "value": 127}, "group": "control_change"}, {"time": 6884, "annotation": {"number": 64, "value": 0}, "group": "control_change"}]}, {"program": 0, "is_drum": false, "name": "PIANO", "notes": [{"time": 449, "pitch": 47, "duration": 43, "velocity": 73}, {"time": 449, "pitch": 63, "duration": 13, "velocity": 64}, {"time": 449, "pitch": 66, "duration": 12, "velocity": 72}, {"time": 449, "pitch": 71, "duration": 14, "velocity": 66}, {"time": 455, "pitch": 54, "duration": 37, "velocity": 58}, {"time": 461, "pitch": 59, "duration": 12, "velocity": 61}, {"time": 467, "pitch": 61, "duration": 13, "velocity": 63}, {"time": 467, "pitch": 66, "duration": 14, "velocity": 69}, {"time": 479, "pitch": 59, "duration": 11, "velocity": 44}, {"time": 485, "pitch": 63, "duration": 5, "velocity": 61}, {"time": 491, "pitch": 71, "duration": 7, "velocity": 66}, {"time": 497, "pitch": 46, "duration": 38, "velocity": 82}, {"time": 497, "pitch": 61, "duration": 13, "velocity": 69}, {"time": 497, "pitch": 66, "duration": 13, "velocity": 60}, {"time": 497, "pitch": 70, "duration": 13, "velocity": 75}, {"time": 503, "pitch": 54, "duration": 32, "velocity": 62}, {"time": 509, "pitch": 58, "duration": 25, "velocity": 62}, {"time": 515, "pitch": 61, "duration": 13, "velocity": 61}, {"time": 527, "pitch": 66, "duration": 7, "velocity": 61}, {"time": 533, "pitch": 68, "duration": 7, "velocity": 70}, {"time": 539, "pitch": 70, "duration": 6, "velocity": 70}, {"time": 545, "pitch": 44, "duration": 12, "velocity": 76}, {"time": 545, "pitch": 63, "duration": 10, "velocity": 72}, {"time": 545, "pitch": 71, "duration": 24, "velocity": 59}, {"time": 551, "pitch": 51, "duration": 6, "velocity": 57}, {"time": 557, "pitch": 56, "duration": 8, "velocity": 59}, {"time": 557, "pitch": 63, "duration": 13, "velocity": 34}, {"time": 563, "pitch": 58, "duration": 15, "velocity": 55}, {"time": 569, "pitch": 59, "duration": 9, "velocity": 67}, {"time": 575, "pitch": 63, "duration": 9, "velocity": 60}, {"time": 581, "pitch": 71, "duration": 9, "velocity": 76}, {"time": 593, "pitch": 42, "duration": 33, "velocity": 72}, {"time": 593, "pitch": 61, "duration": 13, "velocity": 67}, {"time": 593, "pitch": 66, "duration": 12, "velocity": 70}, {"time": 593, "pitch": 70, "duration": 12, "velocity": 72}, {"time": 599, "pitch": 51, "duration": 28, "velocity": 50}, {"time": 605, "pitch": 54, "duration": 24, "velocity": 58}, {"time": 611, "pitch": 61, "duration": 5, "velocity": 64}, {"time": 617, "pitch": 66, "duration": 7, "velocity": 62}, {"time": 623, "pitch": 70, "duration": 6, "velocity": 69}, {"time": 629, "pitch": 73, "duration": 3, "velocity": 72}, {"time": 641, "pitch": 52, "duration": 38, "velocity": 60}, {"time": 641, "pitch": 59, "duration": 9, "velocity": 69}, {"time": 641, "pitch": 64, "duration": 9, "velocity": 72}, {"time": 641, "pitch": 68, "duration": 11, "velocity": 69}, {"time": 647, "pitch": 56, "duration": 16, "velocity": 57}, {"time": 653, "pitch": 66, "duration": 7, "velocity": 63}, {"time": 659, "pitch": 59, "duration": 13, "velocity": 66}, {"time": 659, "pitch": 64, "duration": 13, "velocity": 72}, {"time": 671, "pitch": 56, "duration": 7, "velocity": 49}, {"time": 677, "pitch": 59, "duration": 5, "velocity": 59}, {"time": 683, "pitch": 68, "duration": 4, "velocity": 63}, {"time": 689, "pitch": 39, "duration": 6, "velocity": 73}, {"time": 689, "pitch": 59, "duration": 16, "velocity": 72}, {"time": 689, "pitch": 66, "duration": 18, "velocity": 62}, {"time": 695, "pitch": 51, "duration": 8, "velocity": 60}, {"time": 701, "pitch": 54, "duration": 23, "velocity": 48}, {"time": 707, "pitch": 59, "duration": 13, "velocity": 55}, {"time": 713, "pitch": 63, "duration": 7, "velocity": 69}, {"time": 719, "pitch": 66, "duration": 5, "velocity": 82}, {"time": 725, "pitch": 68, "duration": 6, "velocity": 61}, {"time": 731, "pitch": 71, "duration": 8, "velocity": 64}, {"time": 737, "pitch": 49, "duration": 39, "velocity": 70}, {"time": 737, "pitch": 61, "duration": 8, "velocity": 62}, {"time": 737, "pitch": 64, "duration": 13, "velocity": 73}, {"time": 737, "pitch": 68, "duration": 14, "velocity": 73}, {"time": 743, "pitch": 56, "duration": 24, "velocity": 56}, {"time": 749, "pitch": 61, "duration": 23, "velocity": 59}, {"time": 755, "pitch": 63, "duration": 9, "velocity": 73}, {"time": 755, "pitch": 66, "duration": 11, "velocity": 72}, {"time": 767, "pitch": 64, "duration": 6, "velocity": 70}, {"time": 767, "pitch": 68, "duration": 8, "velocity": 72}, {"time": 773, "pitch": 56, "duration": 3, "velocity": 59}, {"time": 779, "pitch": 59, "duration": 3, "velocity": 48}, {"time": 785, "pitch": 42, "duration": 37, "velocity": 75}, {"time": 785, "pitch": 59, "duration": 11, "velocity": 78}, {"time": 785, "pitch": 64, "duration": 11, "velocity": 72}, {"time": 785, "pitch": 68, "duration": 11, "velocity": 64}, {"time": 785, "pitch": 71, "duration": 10, "velocity": 75}, {"time": 791, "pitch": 49, "duration": 31, "velocity": 67}, {"time": 797, "pitch": 54, "duration": 8, "velocity": 67}, {"time": 803, "pitch": 61, "duration": 4, "velocity": 70}, {"time": 803, "pitch": 66, "duration": 4, "velocity": 72}, {"time": 803, "pitch": 70, "duration": 4, "velocity": 78}, {"time": 812, "pitch": 54, "duration": 5, "velocity": 27}, {"time": 815, "pitch": 64, "duration": 8, "velocity": 73}, {"time": 815, "pitch": 68, "duration": 7, "velocity": 69}, {"time": 815, "pitch": 71, "duration": 7, "velocity": 70}, {"time": 821, "pitch": 54, "duration": 3, "velocity": 52}, {"time": 833, "pitch": 47, "duration": 42, "velocity": 76}, {"time": 833, "pitch": 63, "duration": 15, "velocity": 73}, {"time": 833, "pitch": 66, "duration": 13, "velocity": 73}, {"time": 833, "pitch": 71, "duration": 16, "velocity": 70}, {"time": 839, "pitch": 54, "duration": 28, "velocity": 35}, {"time": 845, "pitch": 59, "duration": 13, "velocity": 54}, {"time": 851, "pitch": 63, "duration": 4, "velocity": 63}, {"time": 857, "pitch": 63, "duration": 8, "velocity": 69}, {"time": 857, "pitch": 66, "duration": 9, "velocity": 76}, {"time": 857, "pitch": 71, "duration": 9, "velocity": 75}, {"time": 863, "pitch": 59, "duration": 10, "velocity": 54}, {"time": 869, "pitch": 63, "duration": 6, "velocity": 69}, {"time": 875, "pitch": 54, "duration": 7, "velocity": 66}, {"time": 875, "pitch": 71, "duration": 5, "velocity": 69}, {"time": 881, "pitch": 46, "duration": 39, "velocity": 63}, {"time": 881, "pitch": 61, "duration": 13, "velocity": 72}, {"time": 881, "pitch": 66, "duration": 12, "velocity": 69}, {"time": 881, "pitch": 70, "duration": 10, "velocity": 75}, {"time": 887, "pitch": 54, "duration": 23, "velocity": 57}, {"time": 893, "pitch": 58, "duration": 26, "velocity": 54}, {"time": 899, "pitch": 61, "duration": 8, "velocity": 73}, {"time": 905, "pitch": 66, "duration": 7, "velocity": 59}, {"time": 911, "pitch": 68, "duration": 5, "velocity": 69}, {"time": 917, "pitch": 54, "duration": 4, "velocity": 69}, {"time": 917, "pitch": 70, "duration": 5, "velocity": 63}, {"time": 923, "pitch": 73, "duration": 3, "velocity": 62}, {"time": 926, "pitch": 70, "duration": 2, "velocity": 18}, {"time": 929, "pitch": 44, "duration": 10, "velocity": 75}, {"time": 929, "pitch": 63, "duration": 23, "velocity": 72}, {"time": 929, "pitch": 66, "duration": 22, "velocity": 72}, {"time": 929, "pitch": 71, "duration": 22, "velocity": 73}, {"time": 935, "pitch": 51, "duration": 5, "velocity": 59}, {"time": 941, "pitch": 56, "duration": 8, "velocity": 45}, {"time": 947, "pitch": 58, "duration": 17, "velocity": 64}, {"time": 953, "pitch": 59, "duration": 11, "velocity": 67}, {"time": 959, "pitch": 63, "duration": 4, "velocity": 66}, {"time": 959, "pitch": 71, "duration": 3, "velocity": 72}, {"time": 965, "pitch": 63, "duration": 3, "velocity": 72}, {"time": 965, "pitch": 71, "duration": 4, "velocity": 75}, {"time": 971, "pitch": 61, "duration": 4, "velocity": 66}, {"time": 971, "pitch": 70, "duration": 3, "velocity": 63}, {"time": 977, "pitch": 42, "duration": 38, "velocity": 69}, {"time": 977, "pitch": 61, "duration": 9, "velocity": 69}, {"time": 977, "pitch": 70, "duration": 10, "velocity": 73}, {"time": 983, "pitch": 51, "duration": 21, "velocity": 62}, {"time": 989, "pitch": 54, "duration": 8, "velocity": 49}, {"time": 995, "pitch": 59, "duration": 8, "velocity": 73}, {"time": 995, "pitch": 66, "duration": 10, "velocity": 78}, {"time": 1001, "pitch": 54, "duration": 6, "velocity": 58}, {"time": 1007, "pitch": 59, "duration": 8, "velocity": 82}, {"time": 1007, "pitch": 63, "duration": 8, "velocity": 66}, {"time": 1013, "pitch": 51, "duration": 2, "velocity": 62}, {"time": 1019, "pitch": 61, "duration": 4, "velocity": 47}, {"time": 1022, "pitch": 63, "duration": 3, "velocity": 70}, {"time": 1025, "pitch": 40, "duration": 42, "velocity": 72}, {"time": 1025, "pitch": 56, "duration": 14, "velocity": 69}, {"time": 1025, "pitch": 59, "duration": 13, "velocity": 70}, {"time": 1025, "pitch": 64, "duration": 11, "velocity": 59}, {"time": 1031, "pitch": 47, "duration": 27, "velocity": 70}, {"time": 1037, "pitch": 52, "duration": 12, "velocity": 66}, {"time": 1043, "pitch": 56, "duration": 13, "velocity": 66}, {"time": 1043, "pitch": 59, "duration": 12, "velocity": 72}, {"time": 1043, "pitch": 64, "duration": 12, "velocity": 66}, {"time": 1055, "pitch": 52, "duration": 9, "velocity": 56}, {"time": 1061, "pitch": 56, "duration": 7, "velocity": 73}, {"time": 1067, "pitch": 47, "duration": 7, "velocity": 70}, {"time": 1067, "pitch": 66, "duration": 9, "velocity": 69}, {"time": 1073, "pitch": 39, "duration": 31, "velocity": 75}, {"time": 1073, "pitch": 54, "duration": 14, "velocity": 76}, {"time": 1073, "pitch": 59, "duration": 11, "velocity": 78}, {"time": 1073, "pitch": 63, "duration": 11, "velocity": 75}, {"time": 1079, "pitch": 47, "duration": 25, "velocity": 56}, {"time": 1085, "pitch": 51, "duration": 13, "velocity": 66}, {"time": 1091, "pitch": 54, "duration": 5, "velocity": 78}, {"time": 1097, "pitch": 59, "duration": 4, "velocity": 57}, {"time": 1103, "pitch": 51, "duration": 2, "velocity": 47}, {"time": 1103, "pitch": 61, "duration": 4, "velocity": 82}, {"time": 1109, "pitch": 63, "duration": 6, "velocity": 67}, {"time": 1115, "pitch": 38, "duration": 7, "velocity": 54}, {"time": 1115, "pitch": 66, "duration": 3, "velocity": 66}, {"time": 1121, "pitch": 37, "duration": 11, "velocity": 73}, {"time": 1121, "pitch": 56, "duration": 22, "velocity": 66}, {"time": 1121, "pitch": 59, "duration": 15, "velocity": 72}, {"time": 1121, "pitch": 64, "duration": 21, "velocity": 69}, {"time": 1127, "pitch": 44, "duration": 7, "velocity": 62}, {"time": 1133, "pitch": 49, "duration": 8, "velocity": 50}, {"time": 1139, "pitch": 51, "duration": 17, "velocity": 59}, {"time": 1145, "pitch": 52, "duration": 11, "velocity": 72}, {"time": 1151, "pitch": 56, "duration": 5, "velocity": 73}, {"time": 1157, "pitch": 59, "duration": 7, "velocity": 70}, {"time": 1163, "pitch": 64, "duration": 5, "velocity": 61}, {"time": 1169, "pitch": 42, "duration": 10, "velocity": 75}, {"time": 1169, "pitch": 68, "duration": 12, "velocity": 95}, {"time": 1175, "pitch": 49, "duration": 6, "velocity": 60}, {"time": 1181, "pitch": 54, "duration": 7, "velocity": 59}, {"time": 1181, "pitch": 66, "duration": 5, "velocity": 72}, {"time": 1187, "pitch": 56, "duration": 17, "velocity": 61}, {"time": 1187, "pitch": 64, "duration": 10, "velocity": 91}, {"time": 1193, "pitch": 58, "duration": 11, "velocity": 70}, {"time": 1199, "pitch": 61, "duration": 7, "velocity": 88}, {"time": 1211, "pitch": 61, "duration": 5, "velocity": 70}, {"time": 1217, "pitch": 40, "duration": 85, "velocity": 73}, {"time": 1217, "pitch": 56, "duration": 13, "velocity": 80}, {"time": 1217, "pitch": 59, "duration": 13, "velocity": 80}, {"time": 1217, "pitch": 63, "duration": 12, "velocity": 76}, {"time": 1223, "pitch": 47, "duration": 80, "velocity": 66}, {"time": 1229, "pitch": 52, "duration": 15, "velocity": 78}, {"time": 1235, "pitch": 56, "duration": 13, "velocity": 62}, {"time": 1241, "pitch": 59, "duration": 9, "velocity": 73}, {"time": 1241, "pitch": 63, "duration": 8, "velocity": 80}, {"time": 1247, "pitch": 52, "duration": 9, "velocity": 45}, {"time": 1253, "pitch": 56, "duration": 8, "velocity": 58}, {"time": 1259, "pitch": 59, "duration": 4, "velocity": 64}, {"time": 1265, "pitch": 51, "duration": 6, "velocity": 76}, {"time": 1265, "pitch": 56, "duration": 7, "velocity": 73}, {"time": 1265, "pitch": 59, "duration": 8, "velocity": 73}, {"time": 1265, "pitch": 63, "duration": 9, "velocity": 75}, {"time": 1277, "pitch": 51, "duration": 7, "velocity": 55}, {"time": 1289, "pitch": 51, "duration": 7, "velocity": 51}, {"time": 1295, "pitch": 64, "duration": 6, "velocity": 70}, {"time": 1295, "pitch": 68, "duration": 7, "velocity": 91}, {"time": 1295, "pitch": 73, "duration": 7, "velocity": 75}, {"time": 1301, "pitch": 51, "duration": 3, "velocity": 56}, {"time": 1307, "pitch": 71, "duration": 5, "velocity": 78}, {"time": 1310, "pitch": 73, "duration": 2, "velocity": 66}, {"time": 1313, "pitch": 44, "duration": 9, "velocity": 72}, {"time": 1313, "pitch": 68, "duration": 11, "velocity": 88}, {"time": 1313, "pitch": 71, "duration": 15, "velocity": 64}, {"time": 1313, "pitch": 75, "duration": 15, "velocity": 72}, {"time": 1319, "pitch": 51, "duration": 5, "velocity": 60}, {"time": 1325, "pitch": 56, "duration": 7, "velocity": 56}, {"time": 1331, "pitch": 58, "duration": 16, "velocity": 69}, {"time": 1331, "pitch": 68, "duration": 4, "velocity": 85}, {"time": 1331, "pitch": 73, "duration": 4, "velocity": 85}, {"time": 1337, "pitch": 59, "duration": 8, "velocity": 69}, {"time": 1343, "pitch": 63, "duration": 3, "velocity": 67}, {"time": 1343, "pitch": 68, "duration": 2, "velocity": 64}, {"time": 1349, "pitch": 68, "duration": 2, "velocity": 75}, {"time": 1349, "pitch": 70, "duration": 5, "velocity": 75}, {"time": 1355, "pitch": 63, "duration": 18, "velocity": 75}, {"time": 1355, "pitch": 71, "duration": 18, "velocity": 73}, {"time": 1361, "pitch": 44, "duration": 40, "velocity": 67}, {"time": 1367, "pitch": 51, "duration": 34, "velocity": 50}, {"time": 1373, "pitch": 56, "duration": 8, "velocity": 78}, {"time": 1379, "pitch": 63, "duration": 8, "velocity": 76}, {"time": 1379, "pitch": 71, "duration": 9, "velocity": 72}, {"time": 1385, "pitch": 56, "duration": 8, "velocity": 45}, {"time": 1391, "pitch": 61, "duration": 7, "velocity": 78}, {"time": 1391, "pitch": 66, "duration": 7, "velocity": 82}, {"time": 1391, "pitch": 70, "duration": 8, "velocity": 91}, {"time": 1397, "pitch": 56, "duration": 4, "velocity": 55}, {"time": 1409, "pitch": 40, "duration": 38, "velocity": 73}, {"time": 1409, "pitch": 52, "duration": 20, "velocity": 82}, {"time": 1409, "pitch": 59, "duration": 9, "velocity": 80}, {"time": 1409, "pitch": 63, "duration": 9, "velocity": 85}, {"time": 1409, "pitch": 64, "duration": 10, "velocity": 88}, {"time": 1409, "pitch": 68, "duration": 8, "velocity": 70}, {"time": 1421, "pitch": 59, "duration": 4, "velocity": 66}, {"time": 1427, "pitch": 59, "duration": 8, "velocity": 82}, {"time": 1427, "pitch": 66, "duration": 9, "velocity": 78}, {"time": 1433, "pitch": 52, "duration": 14, "velocity": 51}, {"time": 1439, "pitch": 59, "duration": 5, "velocity": 69}, {"time": 1445, "pitch": 47, "duration": 8, "velocity": 46}, {"time": 1445, "pitch": 64, "duration": 4, "velocity": 69}, {"time": 1451, "pitch": 40, "duration": 44, "velocity": 70}, {"time": 1451, "pitch": 59, "duration": 9, "velocity": 80}, {"time": 1451, "pitch": 64, "duration": 10, "velocity": 76}, {"time": 1451, "pitch": 68, "duration": 9, "velocity": 75}, {"time": 1457, "pitch": 52, "duration": 19, "velocity": 85}, {"time": 1463, "pitch": 59, "duration": 5, "velocity": 72}, {"time": 1469, "pitch": 64, "duration": 3, "velocity": 70}, {"time": 1475, "pitch": 59, "duration": 8, "velocity": 70}, {"time": 1475, "pitch": 64, "duration": 8, "velocity": 76}, {"time": 1475, "pitch": 68, "duration": 8, "velocity": 66}, {"time": 1481, "pitch": 52, "duration": 7, "velocity": 97}, {"time": 1487, "pitch": 59, "duration": 4, "velocity": 78}, {"time": 1493, "pitch": 52, "duration": 5, "velocity": 99}, {"time": 1493, "pitch": 64, "duration": 6, "velocity": 70}, {"time": 1499, "pitch": 68, "duration": 3, "velocity": 52}, {"time": 1505, "pitch": 42, "duration": 43, "velocity": 78}, {"time": 1505, "pitch": 54, "duration": 1, "velocity": 44}, {"time": 1505, "pitch": 59, "duration": 8, "velocity": 80}, {"time": 1505, "pitch": 64, "duration": 8, "velocity": 88}, {"time": 1505, "pitch": 68, "duration": 8, "velocity": 76}, {"time": 1505, "pitch": 71, "duration": 8, "velocity": 69}, {"time": 1511, "pitch": 54, "duration": 16, "velocity": 60}, {"time": 1517, "pitch": 59, "duration": 3, "velocity": 58}, {"time": 1523, "pitch": 59, "duration": 19, "velocity": 88}, {"time": 1523, "pitch": 64, "duration": 16, "velocity": 93}, {"time": 1523, "pitch": 68, "duration": 12, "velocity": 85}, {"time": 1535, "pitch": 49, "duration": 16, "velocity": 69}, {"time": 1541, "pitch": 54, "duration": 6, "velocity": 88}, {"time": 1547, "pitch": 59, "duration": 3, "velocity": 75}, {"time": 1553, "pitch": 42, "duration": 19, "velocity": 69}, {"time": 1553, "pitch": 58, "duration": 13, "velocity": 69}, {"time": 1553, "pitch": 61, "duration": 11, "velocity": 73}, {"time": 1553, "pitch": 66, "duration": 10, "velocity": 76}, {"time": 1559, "pitch": 49, "duration": 16, "velocity": 67}, {"time": 1565, "pitch": 54, "duration": 8, "velocity": 82}, {"time": 1571, "pitch": 56, "duration": 5, "velocity": 82}, {"time": 1577, "pitch": 42, "duration": 13, "velocity": 69}, {"time": 1577, "pitch": 56, "duration": 7, "velocity": 76}, {"time": 1577, "pitch": 59, "duration": 10, "velocity": 82}, {"time": 1577, "pitch": 64, "duration": 8, "velocity": 85}, {"time": 1589, "pitch": 46, "duration": 3, "velocity": 80}, {"time": 1589, "pitch": 58, "duration": 3, "velocity": 85}, {"time": 1589, "pitch": 61, "duration": 3, "velocity": 85}, {"time": 1589, "pitch": 66, "duration": 3, "velocity": 78}, {"time": 1601, "pitch": 47, "duration": 11, "velocity": 76}, {"time": 1601, "pitch": 63, "duration": 7, "velocity": 88}, {"time": 1601, "pitch": 66, "duration": 8, "velocity": 85}, {"time": 1601, "pitch": 71, "duration": 8, "velocity": 78}, {"time": 1607, "pitch": 54, "duration": 6, "velocity": 60}, {"time": 1613, "pitch": 59, "duration": 7, "velocity": 46}, {"time": 1619, "pitch": 61, "duration": 15, "velocity": 59}, {"time": 1619, "pitch": 66, "duration": 8, "velocity": 61}, {"time": 1619, "pitch": 71, "duration": 8, "velocity": 64}, {"time": 1619, "pitch": 75, "duration": 11, "velocity": 64}, {"time": 1625, "pitch": 63, "duration": 8, "velocity": 67}, {"time": 1631, "pitch": 66, "duration": 9, "velocity": 69}, {"time": 1637, "pitch": 73, "duration": 5, "velocity": 70}, {"time": 1643, "pitch": 75, "duration": 6, "velocity": 69}, {"time": 1649, "pitch": 46, "duration": 38, "velocity": 72}, {"time": 1649, "pitch": 66, "duration": 9, "velocity": 72}, {"time": 1649, "pitch": 73, "duration": 8, "velocity": 80}, {"time": 1655, "pitch": 54, "duration": 24, "velocity": 63}, {"time": 1661, "pitch": 58, "duration": 24, "velocity": 62}, {"time": 1667, "pitch": 61, "duration": 5, "velocity": 82}, {"time": 1673, "pitch": 66, "duration": 7, "velocity": 66}, {"time": 1679, "pitch": 68, "duration": 5, "velocity": 73}, {"time": 1685, "pitch": 54, "duration": 3, "velocity": 70}, {"time": 1685, "pitch": 70, "duration": 11, "velocity": 75}, {"time": 1691, "pitch": 73, "duration": 2, "velocity": 59}, {"time": 1697, "pitch": 44, "duration": 10, "velocity": 76}, {"time": 1697, "pitch": 63, "duration": 14, "velocity": 78}, {"time": 1697, "pitch": 66, "duration": 16, "velocity": 69}, {"time": 1697, "pitch": 71, "duration": 16, "velocity": 73}, {"time": 1703, "pitch": 51, "duration": 6, "velocity": 67}, {"time": 1709, "pitch": 56, "duration": 7, "velocity": 49}, {"time": 1715, "pitch": 58, "duration": 9, "velocity": 67}, {"time": 1721, "pitch": 59, "duration": 9, "velocity": 78}, {"time": 1721, "pitch": 63, "duration": 13, "velocity": 75}, {"time": 1721, "pitch": 66, "duration": 13, "velocity": 80}, {"time": 1721, "pitch": 71, "duration": 13, "velocity": 75}, {"time": 1727, "pitch": 58, "duration": 9, "velocity": 62}, {"time": 1733, "pitch": 56, "duration": 4, "velocity": 63}, {"time": 1739, "pitch": 71, "duration": 5, "velocity": 73}, {"time": 1745, "pitch": 42, "duration": 40, "velocity": 70}, {"time": 1745, "pitch": 61, "duration": 10, "velocity": 70}, {"time": 1745, "pitch": 66, "duration": 9, "velocity": 73}, {"time": 1745, "pitch": 70, "duration": 9, "velocity": 70}, {"time": 1751, "pitch": 51, "duration": 26, "velocity": 67}, {"time": 1757, "pitch": 54, "duration": 26, "velocity": 69}, {"time": 1763, "pitch": 59, "duration": 7, "velocity": 82}, {"time": 1769, "pitch": 61, "duration": 5, "velocity": 88}, {"time": 1775, "pitch": 63, "duration": 7, "velocity": 69}, {"time": 1781, "pitch": 66, "duration": 8, "velocity": 76}, {"time": 1790, "pitch": 63, "duration": 2, "velocity": 30}, {"time": 1793, "pitch": 40, "duration": 42, "velocity": 75}, {"time": 1793, "pitch": 56, "duration": 14, "velocity": 69}, {"time": 1793, "pitch": 59, "duration": 14, "velocity": 80}, {"time": 1793, "pitch": 64, "duration": 13, "velocity": 82}, {"time": 1799, "pitch": 47, "duration": 31, "velocity": 64}, {"time": 1805, "pitch": 52, "duration": 15, "velocity": 62}, {"time": 1811, "pitch": 56, "duration": 9, "velocity": 69}, {"time": 1817, "pitch": 59, "duration": 13, "velocity": 75}, {"time": 1817, "pitch": 64, "duration": 13, "velocity": 73}, {"time": 1829, "pitch": 52, "duration": 6, "velocity": 59}, {"time": 1835, "pitch": 47, "duration": 7, "velocity": 67}, {"time": 1841, "pitch": 39, "duration": 8, "velocity": 75}, {"time": 1841, "pitch": 54, "duration": 12, "velocity": 73}, {"time": 1841, "pitch": 63, "duration": 20, "velocity": 80}, {"time": 1847, "pitch": 47, "duration": 6, "velocity": 66}, {"time": 1853, "pitch": 51, "duration": 7, "velocity": 62}, {"time": 1859, "pitch": 54, "duration": 19, "velocity": 70}, {"time": 1865, "pitch": 59, "duration": 11, "velocity": 66}, {"time": 1871, "pitch": 63, "duration": 7, "velocity": 80}, {"time": 1877, "pitch": 66, "duration": 6, "velocity": 76}, {"time": 1883, "pitch": 71, "duration": 20, "velocity": 64}, {"time": 1889, "pitch": 49, "duration": 37, "velocity": 73}, {"time": 1889, "pitch": 61, "duration": 13, "velocity": 78}, {"time": 1889, "pitch": 64, "duration": 12, "velocity": 70}, {"time": 1889, "pitch": 68, "duration": 12, "velocity": 73}, {"time": 1895, "pitch": 56, "duration": 19, "velocity": 60}, {"time": 1901, "pitch": 59, "duration": 19, "velocity": 69}, {"time": 1907, "pitch": 61, "duration": 5, "velocity": 60}, {"time": 1913, "pitch": 61, "duration": 8, "velocity": 60}, {"time": 1913, "pitch": 64, "duration": 10, "velocity": 73}, {"time": 1913, "pitch": 71, "duration": 11, "velocity": 75}, {"time": 1919, "pitch": 56, "duration": 6, "velocity": 66}, {"time": 1925, "pitch": 66, "duration": 6, "velocity": 72}, {"time": 1925, "pitch": 71, "duration": 1, "velocity": 40}, {"time": 1931, "pitch": 71, "duration": 7, "velocity": 72}, {"time": 1937, "pitch": 42, "duration": 20, "velocity": 76}, {"time": 1937, "pitch": 61, "duration": 8, "velocity": 67}, {"time": 1937, "pitch": 66, "duration": 10, "velocity": 75}, {"time": 1937, "pitch": 70, "duration": 13, "velocity": 80}, {"time": 1943, "pitch": 49, "duration": 8, "velocity": 61}, {"time": 1949, "pitch": 54, "duration": 9, "velocity": 70}, {"time": 1949, "pitch": 63, "duration": 3, "velocity": 73}, {"time": 1949, "pitch": 66, "duration": 1, "velocity": 56}, {"time": 1949, "pitch": 71, "duration": 3, "velocity": 82}, {"time": 1955, "pitch": 49, "duration": 5, "velocity": 69}, {"time": 1961, "pitch": 44, "duration": 13, "velocity": 70}, {"time": 1961, "pitch": 66, "duration": 2, "velocity": 80}, {"time": 1961, "pitch": 73, "duration": 3, "velocity": 82}, {"time": 1967, "pitch": 46, "duration": 2, "velocity": 52}, {"time": 1973, "pitch": 46, "duration": 4, "velocity": 85}, {"time": 1973, "pitch": 68, "duration": 3, "velocity": 72}, {"time": 1973, "pitch": 76, "duration": 4, "velocity": 80}, {"time": 1979, "pitch": 76, "duration": 2, "velocity": 40}, {"time": 1985, "pitch": 47, "duration": 38, "velocity": 72}, {"time": 1985, "pitch": 66, "duration": 10, "velocity": 85}, {"time": 1985, "pitch": 71, "duration": 9, "velocity": 76}, {"time": 1985, "pitch": 75, "duration": 9, "velocity": 78}, {"time": 1991, "pitch": 54, "duration": 26, "velocity": 57}, {"time": 1997, "pitch": 59, "duration": 13, "velocity": 75}, {"time": 2003, "pitch": 63, "duration": 5, "velocity": 59}, {"time": 2009, "pitch": 63, "duration": 9, "velocity": 70}, {"time": 2009, "pitch": 66, "duration": 10, "velocity": 82}, {"time": 2009, "pitch": 71, "duration": 8, "velocity": 82}, {"time": 2015, "pitch": 59, "duration": 8, "velocity": 53}, {"time": 2021, "pitch": 54, "duration": 9, "velocity": 70}, {"time": 2027, "pitch": 66, "duration": 2, "velocity": 45}, {"time": 2027, "pitch": 71, "duration": 4, "velocity": 70}, {"time": 2033, "pitch": 46, "duration": 41, "velocity": 73}, {"time": 2033, "pitch": 61, "duration": 11, "velocity": 85}, {"time": 2033, "pitch": 70, "duration": 11, "velocity": 80}, {"time": 2033, "pitch": 71, "duration": 2, "velocity": 60}, {"time": 2039, "pitch": 54, "duration": 25, "velocity": 63}, {"time": 2045, "pitch": 58, "duration": 8, "velocity": 73}, {"time": 2051, "pitch": 61, "duration": 14, "velocity": 76}, {"time": 2051, "pitch": 66, "duration": 9, "velocity": 93}, {"time": 2063, "pitch": 58, "duration": 9, "velocity": 54}, {"time": 2069, "pitch": 66, "duration": 6, "velocity": 88}, {"time": 2072, "pitch": 54, "duration": 3, "velocity": 62}, {"time": 2075, "pitch": 68, "duration": 5, "velocity": 61}, {"time": 2078, "pitch": 70, "duration": 3, "velocity": 72}, {"time": 2081, "pitch": 44, "duration": 43, "velocity": 73}, {"time": 2081, "pitch": 63, "duration": 11, "velocity": 80}, {"time": 2081, "pitch": 66, "duration": 11, "velocity": 72}, {"time": 2081, "pitch": 71, "duration": 11, "velocity": 76}, {"time": 2087, "pitch": 51, "duration": 31, "velocity": 70}, {"time": 2093, "pitch": 56, "duration": 8, "velocity": 69}, {"time": 2099, "pitch": 63, "duration": 12, "velocity": 72}, {"time": 2099, "pitch": 66, "duration": 13, "velocity": 75}, {"time": 2099, "pitch": 71, "duration": 10, "velocity": 70}, {"time": 2111, "pitch": 56, "duration": 10, "velocity": 53}, {"time": 2117, "pitch": 63, "duration": 4, "velocity": 91}, {"time": 2117, "pitch": 66, "duration": 5, "velocity": 91}, {"time": 2117, "pitch": 71, "duration": 4, "velocity": 72}, {"time": 2123, "pitch": 51, "duration": 5, "velocity": 58}, {"time": 2129, "pitch": 39, "duration": 10, "velocity": 73}, {"time": 2129, "pitch": 61, "duration": 18, "velocity": 75}, {"time": 2129, "pitch": 66, "duration": 22, "velocity": 75}, {"time": 2135, "pitch": 47, "duration": 6, "velocity": 48}, {"time": 2141, "pitch": 51, "duration": 7, "velocity": 72}, {"time": 2147, "pitch": 54, "duration": 20, "velocity": 70}, {"time": 2153, "pitch": 59, "duration": 12, "velocity": 88}, {"time": 2159, "pitch": 63, "duration": 8, "velocity": 80}, {"time": 2165, "pitch": 66, "duration": 7, "velocity": 93}, {"time": 2171, "pitch": 71, "duration": 13, "velocity": 73}, {"time": 2177, "pitch": 52, "duration": 42, "velocity": 78}, {"time": 2177, "pitch": 59, "duration": 10, "velocity": 75}, {"time": 2177, "pitch": 64, "duration": 11, "velocity": 78}, {"time": 2177, "pitch": 68, "duration": 12, "velocity": 76}, {"time": 2183, "pitch": 56, "duration": 19, "velocity": 64}, {"time": 2189, "pitch": 59, "duration": 4, "velocity": 61}, {"time": 2195, "pitch": 59, "duration": 13, "velocity": 70}, {"time": 2195, "pitch": 64, "duration": 13, "velocity": 76}, {"time": 2207, "pitch": 56, "duration": 16, "velocity": 56}, {"time": 2213, "pitch": 59, "duration": 7, "velocity": 85}, {"time": 2219, "pitch": 68, "duration": 4, "velocity": 88}, {"time": 2225, "pitch": 51, "duration": 34, "velocity": 70}, {"time": 2225, "pitch": 66, "duration": 12, "velocity": 95}, {"time": 2231, "pitch": 59, "duration": 29, "velocity": 62}, {"time": 2237, "pitch": 63, "duration": 13, "velocity": 62}, {"time": 2243, "pitch": 66, "duration": 5, "velocity": 78}, {"time": 2249, "pitch": 71, "duration": 5, "velocity": 91}, {"time": 2255, "pitch": 63, "duration": 3, "velocity": 66}, {"time": 2255, "pitch": 71, "duration": 1, "velocity": 46}, {"time": 2255, "pitch": 73, "duration": 4, "velocity": 88}, {"time": 2261, "pitch": 75, "duration": 5, "velocity": 75}, {"time": 2267, "pitch": 75, "duration": 4, "velocity": 39}, {"time": 2267, "pitch": 78, "duration": 3, "velocity": 70}, {"time": 2273, "pitch": 49, "duration": 12, "velocity": 70}, {"time": 2273, "pitch": 68, "duration": 10, "velocity": 67}, {"time": 2273, "pitch": 76, "duration": 19, "velocity": 76}, {"time": 2279, "pitch": 56, "duration": 7, "velocity": 61}, {"time": 2285, "pitch": 61, "duration": 8, "velocity": 58}, {"time": 2288, "pitch": 68, "duration": 2, "velocity": 31}, {"time": 2291, "pitch": 63, "duration": 11, "velocity": 57}, {"time": 2291, "pitch": 68, "duration": 8, "velocity": 80}, {"time": 2291, "pitch": 75, "duration": 10, "velocity": 91}, {"time": 2297, "pitch": 64, "duration": 5, "velocity": 51}, {"time": 2303, "pitch": 71, "duration": 5, "velocity": 95}, {"time": 2321, "pitch": 42, "duration": 37, "velocity": 73}, {"time": 2321, "pitch": 66, "duration": 5, "velocity": 80}, {"time": 2321, "pitch": 73, "duration": 4, "velocity": 88}, {"time": 2327, "pitch": 49, "duration": 27, "velocity": 63}, {"time": 2333, "pitch": 54, "duration": 8, "velocity": 63}, {"time": 2339, "pitch": 59, "duration": 10, "velocity": 73}, {"time": 2339, "pitch": 64, "duration": 9, "velocity": 73}, {"time": 2345, "pitch": 54, "duration": 9, "velocity": 51}, {"time": 2351, "pitch": 58, "duration": 7, "velocity": 88}, {"time": 2351, "pitch": 61, "duration": 7, "velocity": 82}, {"time": 2351, "pitch": 66, "duration": 7, "velocity": 72}, {"time": 2369, "pitch": 47, "duration": 43, "velocity": 78}, {"time": 2369, "pitch": 63, "duration": 13, "velocity": 75}, {"time": 2369, "pitch": 66, "duration": 12, "velocity": 73}, {"time": 2369, "pitch": 71, "duration": 13, "velocity": 76}, {"time": 2375, "pitch": 54, "duration": 31, "velocity": 55}, {"time": 2381, "pitch": 59, "duration": 14, "velocity": 61}, {"time": 2387, "pitch": 63, "duration": 4, "velocity": 61}, {"time": 2393, "pitch": 63, "duration": 3, "velocity": 72}, {"time": 2393, "pitch": 66, "duration": 7, "velocity": 93}, {"time": 2393, "pitch": 71, "duration": 8, "velocity": 73}, {"time": 2399, "pitch": 59, "duration": 11, "velocity": 61}, {"time": 2405, "pitch": 63, "duration": 7, "velocity": 62}, {"time": 2405, "pitch": 66, "duration": 3, "velocity": 66}, {"time": 2411, "pitch": 54, "duration": 7, "velocity": 62}, {"time": 2417, "pitch": 46, "duration": 43, "velocity": 73}, {"time": 2417, "pitch": 61, "duration": 11, "velocity": 75}, {"time": 2417, "pitch": 66, "duration": 10, "velocity": 72}, {"time": 2417, "pitch": 70, "duration": 7, "velocity": 73}, {"time": 2423, "pitch": 54, "duration": 26, "velocity": 56}, {"time": 2429, "pitch": 58, "duration": 13, "velocity": 48}, {"time": 2435, "pitch": 61, "duration": 4, "velocity": 59}, {"time": 2441, "pitch": 61, "duration": 8, "velocity": 73}, {"time": 2441, "pitch": 66, "duration": 7, "velocity": 73}, {"time": 2441, "pitch": 70, "duration": 7, "velocity": 78}, {"time": 2447, "pitch": 58, "duration": 10, "velocity": 52}, {"time": 2453, "pitch": 68, "duration": 5, "velocity": 80}, {"time": 2459, "pitch": 54, "duration": 3, "velocity": 70}, {"time": 2459, "pitch": 70, "duration": 5, "velocity": 76}, {"time": 2465, "pitch": 44, "duration": 10, "velocity": 73}, {"time": 2465, "pitch": 63, "duration": 10, "velocity": 70}, {"time": 2465, "pitch": 66, "duration": 13, "velocity": 76}, {"time": 2465, "pitch": 71, "duration": 12, "velocity": 69}, {"time": 2471, "pitch": 51, "duration": 5, "velocity": 57}, {"time": 2477, "pitch": 56, "duration": 7, "velocity": 47}, {"time": 2483, "pitch": 58, "duration": 8, "velocity": 56}, {"time": 2489, "pitch": 59, "duration": 7, "velocity": 62}, {"time": 2489, "pitch": 63, "duration": 15, "velocity": 75}, {"time": 2489, "pitch": 66, "duration": 16, "velocity": 76}, {"time": 2489, "pitch": 71, "duration": 17, "velocity": 76}, {"time": 2495, "pitch": 58, "duration": 6, "velocity": 61}, {"time": 2501, "pitch": 56, "duration": 7, "velocity": 47}, {"time": 2507, "pitch": 51, "duration": 7, "velocity": 64}, {"time": 2513, "pitch": 42, "duration": 9, "velocity": 76}, {"time": 2513, "pitch": 61, "duration": 12, "velocity": 75}, {"time": 2513, "pitch": 66, "duration": 22, "velocity": 73}, {"time": 2513, "pitch": 70, "duration": 25, "velocity": 78}, {"time": 2519, "pitch": 51, "duration": 5, "velocity": 60}, {"time": 2525, "pitch": 54, "duration": 8, "velocity": 64}, {"time": 2531, "pitch": 58, "duration": 19, "velocity": 54}, {"time": 2537, "pitch": 59, "duration": 12, "velocity": 64}, {"time": 2543, "pitch": 63, "duration": 5, "velocity": 85}, {"time": 2549, "pitch": 66, "duration": 6, "velocity": 95}, {"time": 2555, "pitch": 71, "duration": 6, "velocity": 67}, {"time": 2561, "pitch": 40, "duration": 11, "velocity": 64}, {"time": 2561, "pitch": 59, "duration": 18, "velocity": 76}, {"time": 2561, "pitch": 64, "duration": 18, "velocity": 76}, {"time": 2561, "pitch": 68, "duration": 18, "velocity": 75}, {"time": 2567, "pitch": 47, "duration": 6, "velocity": 56}, {"time": 2573, "pitch": 52, "duration": 8, "velocity": 58}, {"time": 2579, "pitch": 54, "duration": 9, "velocity": 49}, {"time": 2585, "pitch": 56, "duration": 8, "velocity": 75}, {"time": 2585, "pitch": 59, "duration": 9, "velocity": 78}, {"time": 2585, "pitch": 64, "duration": 12, "velocity": 78}, {"time": 2585, "pitch": 68, "duration": 8, "velocity": 75}, {"time": 2591, "pitch": 54, "duration": 8, "velocity": 67}, {"time": 2597, "pitch": 52, "duration": 4, "velocity": 66}, {"time": 2603, "pitch": 66, "duration": 4, "velocity": 66}, {"time": 2609, "pitch": 40, "duration": 10, "velocity": 70}, {"time": 2609, "pitch": 59, "duration": 6, "velocity": 78}, {"time": 2609, "pitch": 64, "duration": 6, "velocity": 72}, {"time": 2609, "pitch": 68, "duration": 8, "velocity": 70}, {"time": 2615, "pitch": 47, "duration": 6, "velocity": 72}, {"time": 2621, "pitch": 52, "duration": 6, "velocity": 64}, {"time": 2627, "pitch": 54, "duration": 8, "velocity": 69}, {"time": 2627, "pitch": 68, "duration": 8, "velocity": 67}, {"time": 2627, "pitch": 71, "duration": 3, "velocity": 52}, {"time": 2627, "pitch": 76, "duration": 8, "velocity": 78}, {"time": 2633, "pitch": 56, "duration": 13, "velocity": 54}, {"time": 2639, "pitch": 66, "duration": 6, "velocity": 69}, {"time": 2639, "pitch": 75, "duration": 7, "velocity": 78}, {"time": 2645, "pitch": 54, "duration": 3, "velocity": 64}, {"time": 2657, "pitch": 42, "duration": 11, "velocity": 69}, {"time": 2657, "pitch": 61, "duration": 24, "velocity": 82}, {"time": 2657, "pitch": 66, "duration": 24, "velocity": 76}, {"time": 2657, "pitch": 70, "duration": 25, "velocity": 69}, {"time": 2657, "pitch": 73, "duration": 24, "velocity": 62}, {"time": 2663, "pitch": 49, "duration": 6, "velocity": 61}, {"time": 2669, "pitch": 54, "duration": 7, "velocity": 58}, {"time": 2675, "pitch": 56, "duration": 18, "velocity": 63}, {"time": 2681, "pitch": 58, "duration": 11, "velocity": 66}, {"time": 2687, "pitch": 61, "duration": 8, "velocity": 80}, {"time": 2693, "pitch": 66, "duration": 5, "velocity": 62}, {"time": 2699, "pitch": 66, "duration": 1, "velocity": 39}, {"time": 2699, "pitch": 68, "duration": 6, "velocity": 76}, {"time": 2705, "pitch": 42, "duration": 31, "velocity": 73}, {"time": 2705, "pitch": 61, "duration": 7, "velocity": 69}, {"time": 2705, "pitch": 70, "duration": 10, "velocity": 80}, {"time": 2711, "pitch": 49, "duration": 26, "velocity": 62}, {"time": 2717, "pitch": 54, "duration": 21, "velocity": 75}, {"time": 2717, "pitch": 63, "duration": 3, "velocity": 73}, {"time": 2717, "pitch": 71, "duration": 3, "velocity": 59}, {"time": 2729, "pitch": 64, "duration": 2, "velocity": 73}, {"time": 2729, "pitch": 73, "duration": 3, "velocity": 76}, {"time": 2741, "pitch": 68, "duration": 2, "velocity": 67}, {"time": 2741, "pitch": 76, "duration": 2, "velocity": 75}, {"time": 2753, "pitch": 47, "duration": 39, "velocity": 70}, {"time": 2753, "pitch": 66, "duration": 11, "velocity": 73}, {"time": 2753, "pitch": 71, "duration": 10, "velocity": 80}, {"time": 2753, "pitch": 75, "duration": 11, "velocity": 78}, {"time": 2774, "pitch": 59, "duration": 7, "velocity": 23}, {"time": 2777, "pitch": 61, "duration": 13, "velocity": 62}, {"time": 2777, "pitch": 63, "duration": 13, "velocity": 63}, {"time": 2777, "pitch": 66, "duration": 13, "velocity": 66}, {"time": 2777, "pitch": 71, "duration": 13, "velocity": 46}, {"time": 2789, "pitch": 59, "duration": 3, "velocity": 39}, {"time": 2801, "pitch": 46, "duration": 47, "velocity": 64}, {"time": 2801, "pitch": 58, "duration": 11, "velocity": 59}, {"time": 2801, "pitch": 61, "duration": 15, "velocity": 69}, {"time": 2801, "pitch": 66, "duration": 14, "velocity": 72}, {"time": 2801, "pitch": 70, "duration": 15, "velocity": 70}, {"time": 2819, "pitch": 58, "duration": 6, "velocity": 41}, {"time": 2825, "pitch": 61, "duration": 8, "velocity": 80}, {"time": 2825, "pitch": 66, "duration": 8, "velocity": 76}, {"time": 2825, "pitch": 70, "duration": 8, "velocity": 73}, {"time": 2831, "pitch": 58, "duration": 4, "velocity": 55}, {"time": 2837, "pitch": 66, "duration": 3, "velocity": 59}, {"time": 2837, "pitch": 68, "duration": 3, "velocity": 46}, {"time": 2843, "pitch": 70, "duration": 6, "velocity": 70}, {"time": 2849, "pitch": 44, "duration": 38, "velocity": 63}, {"time": 2849, "pitch": 63, "duration": 12, "velocity": 72}, {"time": 2849, "pitch": 66, "duration": 12, "velocity": 58}, {"time": 2849, "pitch": 71, "duration": 11, "velocity": 59}, {"time": 2855, "pitch": 51, "duration": 26, "velocity": 49}, {"time": 2861, "pitch": 56, "duration": 15, "velocity": 48}, {"time": 2867, "pitch": 63, "duration": 5, "velocity": 55}, {"time": 2873, "pitch": 63, "duration": 11, "velocity": 46}, {"time": 2873, "pitch": 66, "duration": 12, "velocity": 66}, {"time": 2873, "pitch": 71, "duration": 9, "velocity": 66}, {"time": 2879, "pitch": 56, "duration": 8, "velocity": 46}, {"time": 2885, "pitch": 51, "duration": 12, "velocity": 64}, {"time": 2891, "pitch": 73, "duration": 9, "velocity": 61}, {"time": 2897, "pitch": 42, "duration": 11, "velocity": 60}, {"time": 2897, "pitch": 61, "duration": 25, "velocity": 63}, {"time": 2897, "pitch": 66, "duration": 24, "velocity": 62}, {"time": 2897, "pitch": 70, "duration": 25, "velocity": 69}, {"time": 2903, "pitch": 51, "duration": 7, "velocity": 51}, {"time": 2909, "pitch": 54, "duration": 8, "velocity": 44}, {"time": 2912, "pitch": 73, "duration": 10, "velocity": 1}, {"time": 2915, "pitch": 56, "duration": 17, "velocity": 69}, {"time": 2921, "pitch": 58, "duration": 12, "velocity": 61}, {"time": 2927, "pitch": 61, "duration": 5, "velocity": 57}, {"time": 2933, "pitch": 66, "duration": 7, "velocity": 62}, {"time": 2939, "pitch": 71, "duration": 7, "velocity": 62}, {"time": 2945, "pitch": 40, "duration": 10, "velocity": 69}, {"time": 2945, "pitch": 59, "duration": 26, "velocity": 58}, {"time": 2945, "pitch": 64, "duration": 26, "velocity": 63}, {"time": 2945, "pitch": 68, "duration": 27, "velocity": 67}, {"time": 2951, "pitch": 47, "duration": 6, "velocity": 56}, {"time": 2957, "pitch": 52, "duration": 8, "velocity": 45}, {"time": 2960, "pitch": 71, "duration": 16, "velocity": 1}, {"time": 2963, "pitch": 54, "duration": 19, "velocity": 58}, {"time": 2969, "pitch": 56, "duration": 22, "velocity": 60}, {"time": 2975, "pitch": 59, "duration": 4, "velocity": 59}, {"time": 2981, "pitch": 64, "duration": 6, "velocity": 64}, {"time": 2987, "pitch": 68, "duration": 5, "velocity": 46}, {"time": 2993, "pitch": 51, "duration": 27, "velocity": 60}, {"time": 2993, "pitch": 59, "duration": 15, "velocity": 72}, {"time": 2993, "pitch": 66, "duration": 15, "velocity": 67}, {"time": 3011, "pitch": 59, "duration": 7, "velocity": 63}, {"time": 3011, "pitch": 63, "duration": 7, "velocity": 73}, {"time": 3023, "pitch": 59, "duration": 2, "velocity": 75}, {"time": 3023, "pitch": 66, "duration": 2, "velocity": 70}, {"time": 3032, "pitch": 50, "duration": 5, "velocity": 76}, {"time": 3032, "pitch": 60, "duration": 4, "velocity": 82}, {"time": 3032, "pitch": 65, "duration": 2, "velocity": 91}, {"time": 3032, "pitch": 67, "duration": 3, "velocity": 59}, {"time": 3041, "pitch": 49, "duration": 32, "velocity": 73}, {"time": 3041, "pitch": 59, "duration": 13, "velocity": 72}, {"time": 3041, "pitch": 64, "duration": 13, "velocity": 70}, {"time": 3041, "pitch": 68, "duration": 13, "velocity": 70}, {"time": 3053, "pitch": 56, "duration": 18, "velocity": 61}, {"time": 3059, "pitch": 59, "duration": 8, "velocity": 62}, {"time": 3071, "pitch": 59, "duration": 2, "velocity": 58}, {"time": 3071, "pitch": 64, "duration": 2, "velocity": 76}, {"time": 3083, "pitch": 56, "duration": 5, "velocity": 55}, {"time": 3089, "pitch": 42, "duration": 19, "velocity": 73}, {"time": 3089, "pitch": 56, "duration": 7, "velocity": 42}, {"time": 3089, "pitch": 59, "duration": 8, "velocity": 72}, {"time": 3089, "pitch": 64, "duration": 8, "velocity": 67}, {"time": 3095, "pitch": 49, "duration": 14, "velocity": 60}, {"time": 3101, "pitch": 54, "duration": 8, "velocity": 58}, {"time": 3107, "pitch": 56, "duration": 2, "velocity": 80}, {"time": 3107, "pitch": 59, "duration": 2, "velocity": 80}, {"time": 3107, "pitch": 64, "duration": 2, "velocity": 73}, {"time": 3119, "pitch": 46, "duration": 7, "velocity": 70}, {"time": 3119, "pitch": 58, "duration": 8, "velocity": 76}, {"time": 3119, "pitch": 61, "duration": 8, "velocity": 88}, {"time": 3119, "pitch": 66, "duration": 8, "velocity": 69}, {"time": 3137, "pitch": 35, "duration": 48, "velocity": 75}, {"time": 3137, "pitch": 47, "duration": 27, "velocity": 60}, {"time": 3137, "pitch": 54, "duration": 15, "velocity": 76}, {"time": 3137, "pitch": 59, "duration": 16, "velocity": 75}, {"time": 3137, "pitch": 63, "duration": 15, "velocity": 70}, {"time": 3143, "pitch": 61, "duration": 12, "velocity": 21}, {"time": 3161, "pitch": 54, "duration": 8, "velocity": 70}, {"time": 3161, "pitch": 59, "duration": 8, "velocity": 73}, {"time": 3161, "pitch": 61, "duration": 8, "velocity": 66}, {"time": 3161, "pitch": 63, "duration": 8, "velocity": 73}, {"time": 3167, "pitch": 47, "duration": 9, "velocity": 54}, {"time": 3173, "pitch": 54, "duration": 6, "velocity": 69}, {"time": 3173, "pitch": 61, "duration": 5, "velocity": 63}, {"time": 3179, "pitch": 63, "duration": 7, "velocity": 51}, {"time": 3185, "pitch": 46, "duration": 25, "velocity": 70}, {"time": 3185, "pitch": 54, "duration": 14, "velocity": 75}, {"time": 3185, "pitch": 58, "duration": 19, "velocity": 67}, {"time": 3185, "pitch": 61, "duration": 20, "velocity": 66}, {"time": 3209, "pitch": 54, "duration": 10, "velocity": 70}, {"time": 3209, "pitch": 58, "duration": 11, "velocity": 69}, {"time": 3209, "pitch": 61, "duration": 11, "velocity": 73}, {"time": 3215, "pitch": 46, "duration": 12, "velocity": 63}, {"time": 3221, "pitch": 54, "duration": 5, "velocity": 61}, {"time": 3227, "pitch": 45, "duration": 6, "velocity": 70}, {"time": 3227, "pitch": 66, "duration": 18, "velocity": 69}, {"time": 3233, "pitch": 44, "duration": 34, "velocity": 78}, {"time": 3233, "pitch": 54, "duration": 6, "velocity": 73}, {"time": 3233, "pitch": 59, "duration": 7, "velocity": 78}, {"time": 3233, "pitch": 63, "duration": 10, "velocity": 73}, {"time": 3239, "pitch": 51, "duration": 29, "velocity": 64}, {"time": 3245, "pitch": 56, "duration": 23, "velocity": 55}, {"time": 3251, "pitch": 59, "duration": 2, "velocity": 82}, {"time": 3263, "pitch": 63, "duration": 4, "velocity": 78}, {"time": 3269, "pitch": 63, "duration": 3, "velocity": 50}, {"time": 3269, "pitch": 71, "duration": 4, "velocity": 73}, {"time": 3275, "pitch": 70, "duration": 5, "velocity": 66}, {"time": 3281, "pitch": 51, "duration": 36, "velocity": 73}, {"time": 3281, "pitch": 61, "duration": 7, "velocity": 70}, {"time": 3281, "pitch": 66, "duration": 8, "velocity": 73}, {"time": 3287, "pitch": 58, "duration": 18, "velocity": 59}, {"time": 3293, "pitch": 61, "duration": 3, "velocity": 66}, {"time": 3299, "pitch": 66, "duration": 2, "velocity": 91}, {"time": 3305, "pitch": 58, "duration": 7, "velocity": 35}, {"time": 3323, "pitch": 71, "duration": 5, "velocity": 69}, {"time": 3326, "pitch": 73, "duration": 3, "velocity": 70}, {"time": 3329, "pitch": 52, "duration": 38, "velocity": 69}, {"time": 3329, "pitch": 68, "duration": 12, "velocity": 69}, {"time": 3329, "pitch": 75, "duration": 14, "velocity": 88}, {"time": 3335, "pitch": 59, "duration": 22, "velocity": 61}, {"time": 3341, "pitch": 64, "duration": 22, "velocity": 58}, {"time": 3347, "pitch": 68, "duration": 4, "velocity": 78}, {"time": 3347, "pitch": 73, "duration": 4, "velocity": 66}, {"time": 3359, "pitch": 66, "duration": 7, "velocity": 73}, {"time": 3359, "pitch": 71, "duration": 4, "velocity": 88}, {"time": 3365, "pitch": 59, "duration": 5, "velocity": 52}, {"time": 3377, "pitch": 51, "duration": 35, "velocity": 69}, {"time": 3377, "pitch": 66, "duration": 9, "velocity": 73}, {"time": 3383, "pitch": 59, "duration": 29, "velocity": 66}, {"time": 3389, "pitch": 63, "duration": 18, "velocity": 58}, {"time": 3395, "pitch": 66, "duration": 4, "velocity": 78}, {"time": 3401, "pitch": 71, "duration": 4, "velocity": 78}, {"time": 3407, "pitch": 73, "duration": 5, "velocity": 82}, {"time": 3413, "pitch": 75, "duration": 7, "velocity": 70}, {"time": 3419, "pitch": 78, "duration": 3, "velocity": 70}, {"time": 3422, "pitch": 75, "duration": 3, "velocity": 39}, {"time": 3425, "pitch": 49, "duration": 9, "velocity": 70}, {"time": 3425, "pitch": 68, "duration": 26, "velocity": 59}, {"time": 3425, "pitch": 76, "duration": 26, "velocity": 70}, {"time": 3431, "pitch": 56, "duration": 6, "velocity": 51}, {"time": 3437, "pitch": 61, "duration": 8, "velocity": 51}, {"time": 3443, "pitch": 63, "duration": 14, "velocity": 58}, {"time": 3449, "pitch": 64, "duration": 8, "velocity": 69}, {"time": 3455, "pitch": 68, "duration": 8, "velocity": 70}, {"time": 3461, "pitch": 71, "duration": 7, "velocity": 69}, {"time": 3467, "pitch": 76, "duration": 3, "velocity": 64}, {"time": 3470, "pitch": 68, "duration": 3, "velocity": 41}, {"time": 3473, "pitch": 42, "duration": 9, "velocity": 69}, {"time": 3473, "pitch": 71, "duration": 2, "velocity": 31}, {"time": 3473, "pitch": 78, "duration": 9, "velocity": 67}, {"time": 3479, "pitch": 49, "duration": 5, "velocity": 50}, {"time": 3485, "pitch": 54, "duration": 7, "velocity": 41}, {"time": 3491, "pitch": 56, "duration": 10, "velocity": 56}, {"time": 3491, "pitch": 68, "duration": 3, "velocity": 63}, {"time": 3491, "pitch": 76, "duration": 4, "velocity": 73}, {"time": 3497, "pitch": 58, "duration": 8, "velocity": 64}, {"time": 3503, "pitch": 66, "duration": 3, "velocity": 67}, {"time": 3503, "pitch": 75, "duration": 3, "velocity": 78}, {"time": 3509, "pitch": 58, "duration": 2, "velocity": 58}, {"time": 3521, "pitch": 49, "duration": 44, "velocity": 73}, {"time": 3521, "pitch": 61, "duration": 14, "velocity": 70}, {"time": 3521, "pitch": 64, "duration": 14, "velocity": 73}, {"time": 3521, "pitch": 68, "duration": 14, "velocity": 69}, {"time": 3521, "pitch": 71, "duration": 15, "velocity": 67}, {"time": 3533, "pitch": 56, "duration": 15, "velocity": 59}, {"time": 3539, "pitch": 61, "duration": 5, "velocity": 57}, {"time": 3545, "pitch": 61, "duration": 12, "velocity": 66}, {"time": 3545, "pitch": 64, "duration": 12, "velocity": 78}, {"time": 3545, "pitch": 68, "duration": 12, "velocity": 73}, {"time": 3545, "pitch": 71, "duration": 12, "velocity": 72}, {"time": 3557, "pitch": 56, "duration": 19, "velocity": 54}, {"time": 3563, "pitch": 61, "duration": 8, "velocity": 66}, {"time": 3575, "pitch": 61, "duration": 10, "velocity": 76}, {"time": 3575, "pitch": 64, "duration": 13, "velocity": 85}, {"time": 3575, "pitch": 68, "duration": 10, "velocity": 75}, {"time": 3575, "pitch": 71, "duration": 13, "velocity": 60}, {"time": 3587, "pitch": 49, "duration": 21, "velocity": 67}, {"time": 3593, "pitch": 56, "duration": 7, "velocity": 73}, {"time": 3599, "pitch": 61, "duration": 7, "velocity": 91}, {"time": 3599, "pitch": 64, "duration": 7, "velocity": 99}, {"time": 3599, "pitch": 68, "duration": 7, "velocity": 88}, {"time": 3599, "pitch": 71, "duration": 7, "velocity": 73}, {"time": 3605, "pitch": 56, "duration": 3, "velocity": 69}, {"time": 3611, "pitch": 68, "duration": 18, "velocity": 76}, {"time": 3614, "pitch": 70, "duration": 3, "velocity": 70}, {"time": 3617, "pitch": 44, "duration": 87, "velocity": 70}, {"time": 3617, "pitch": 63, "duration": 12, "velocity": 80}, {"time": 3617, "pitch": 71, "duration": 11, "velocity": 70}, {"time": 3623, "pitch": 51, "duration": 80, "velocity": 56}, {"time": 3629, "pitch": 56, "duration": 9, "velocity": 50}, {"time": 3635, "pitch": 63, "duration": 7, "velocity": 76}, {"time": 3635, "pitch": 68, "duration": 12, "velocity": 76}, {"time": 3635, "pitch": 71, "duration": 13, "velocity": 78}, {"time": 3647, "pitch": 56, "duration": 12, "velocity": 50}, {"time": 3653, "pitch": 63, "duration": 2, "velocity": 48}, {"time": 3659, "pitch": 63, "duration": 2, "velocity": 76}, {"time": 3659, "pitch": 68, "duration": 2, "velocity": 80}, {"time": 3659, "pitch": 71, "duration": 3, "velocity": 69}, {"time": 3665, "pitch": 56, "duration": 6, "velocity": 35}, {"time": 3671, "pitch": 61, "duration": 2, "velocity": 85}, {"time": 3671, "pitch": 70, "duration": 2, "velocity": 85}, {"time": 3674, "pitch": 56, "duration": 7, "velocity": 45}, {"time": 3683, "pitch": 63, "duration": 3, "velocity": 80}, {"time": 3683, "pitch": 71, "duration": 4, "velocity": 75}, {"time": 3689, "pitch": 56, "duration": 8, "velocity": 48}, {"time": 3695, "pitch": 63, "duration": 4, "velocity": 72}, {"time": 3695, "pitch": 66, "duration": 3, "velocity": 70}, {"time": 3695, "pitch": 73, "duration": 5, "velocity": 78}, {"time": 3701, "pitch": 56, "duration": 2, "velocity": 56}, {"time": 3713, "pitch": 40, "duration": 6, "velocity": 72}, {"time": 3713, "pitch": 59, "duration": 9, "velocity": 72}, {"time": 3713, "pitch": 63, "duration": 9, "velocity": 80}, {"time": 3713, "pitch": 64, "duration": 14, "velocity": 80}, {"time": 3713, "pitch": 68, "duration": 14, "velocity": 76}, {"time": 3719, "pitch": 52, "duration": 8, "velocity": 60}, {"time": 3725, "pitch": 54, "duration": 21, "velocity": 64}, {"time": 3731, "pitch": 56, "duration": 15, "velocity": 72}, {"time": 3743, "pitch": 59, "duration": 4, "velocity": 80}, {"time": 3749, "pitch": 64, "duration": 3, "velocity": 67}, {"time": 3755, "pitch": 59, "duration": 15, "velocity": 72}, {"time": 3755, "pitch": 66, "duration": 9, "velocity": 73}, {"time": 3761, "pitch": 40, "duration": 34, "velocity": 70}, {"time": 3761, "pitch": 64, "duration": 9, "velocity": 54}, {"time": 3761, "pitch": 68, "duration": 8, "velocity": 70}, {"time": 3767, "pitch": 47, "duration": 23, "velocity": 60}, {"time": 3773, "pitch": 52, "duration": 15, "velocity": 75}, {"time": 3779, "pitch": 59, "duration": 4, "velocity": 52}, {"time": 3785, "pitch": 59, "duration": 8, "velocity": 76}, {"time": 3785, "pitch": 64, "duration": 8, "velocity": 80}, {"time": 3785, "pitch": 68, "duration": 8, "velocity": 80}, {"time": 3791, "pitch": 47, "duration": 4, "velocity": 47}, {"time": 3791, "pitch": 52, "duration": 4, "velocity": 88}, {"time": 3797, "pitch": 59, "duration": 3, "velocity": 66}, {"time": 3809, "pitch": 42, "duration": 37, "velocity": 73}, {"time": 3809, "pitch": 54, "duration": 11, "velocity": 95}, {"time": 3809, "pitch": 59, "duration": 15, "velocity": 85}, {"time": 3809, "pitch": 64, "duration": 17, "velocity": 95}, {"time": 3809, "pitch": 68, "duration": 16, "velocity": 88}, {"time": 3809, "pitch": 71, "duration": 18, "velocity": 70}, {"time": 3827, "pitch": 54, "duration": 8, "velocity": 59}, {"time": 3833, "pitch": 59, "duration": 11, "velocity": 95}, {"time": 3833, "pitch": 64, "duration": 12, "velocity": 99}, {"time": 3833, "pitch": 68, "duration": 12, "velocity": 91}, {"time": 3833, "pitch": 71, "duration": 11, "velocity": 70}, {"time": 3845, "pitch": 54, "duration": 2, "velocity": 76}, {"time": 3857, "pitch": 42, "duration": 14, "velocity": 72}, {"time": 3857, "pitch": 54, "duration": 9, "velocity": 91}, {"time": 3857, "pitch": 66, "duration": 6, "velocity": 85}, {"time": 3857, "pitch": 78, "duration": 7, "velocity": 78}, {"time": 3869, "pitch": 54, "duration": 10, "velocity": 88}, {"time": 3869, "pitch": 68, "duration": 3, "velocity": 75}, {"time": 3869, "pitch": 80, "duration": 3, "velocity": 80}, {"time": 3881, "pitch": 56, "duration": 13, "velocity": 60}, {"time": 3881, "pitch": 71, "duration": 1, "velocity": 48}, {"time": 3881, "pitch": 73, "duration": 1, "velocity": 61}, {"time": 3881, "pitch": 83, "duration": 2, "velocity": 73}, {"time": 3881, "pitch": 85, "duration": 2, "velocity": 76}, {"time": 3893, "pitch": 58, "duration": 2, "velocity": 64}, {"time": 3893, "pitch": 73, "duration": 2, "velocity": 88}, {"time": 3893, "pitch": 85, "duration": 3, "velocity": 80}, {"time": 3899, "pitch": 75, "duration": 8, "velocity": 82}, {"time": 3899, "pitch": 87, "duration": 7, "velocity": 78}, {"time": 3905, "pitch": 47, "duration": 11, "velocity": 76}, {"time": 3905, "pitch": 63, "duration": 7, "velocity": 88}, {"time": 3905, "pitch": 66, "duration": 8, "velocity": 85}, {"time": 3905, "pitch": 71, "duration": 8, "velocity": 78}, {"time": 3911, "pitch": 54, "duration": 6, "velocity": 60}, {"time": 3917, "pitch": 59, "duration": 7, "velocity": 46}, {"time": 3923, "pitch": 61, "duration": 15, "velocity": 59}, {"time": 3923, "pitch": 66, "duration": 8, "velocity": 61}, {"time": 3923, "pitch": 71, "duration": 8, "velocity": 64}, {"time": 3923, "pitch": 75, "duration": 11, "velocity": 64}, {"time": 3929, "pitch": 63, "duration": 8, "velocity": 67}, {"time": 3935, "pitch": 66, "duration": 9, "velocity": 69}, {"time": 3941, "pitch": 73, "duration": 5, "velocity": 70}, {"time": 3947, "pitch": 75, "duration": 6, "velocity": 69}, {"time": 3953, "pitch": 46, "duration": 38, "velocity": 72}, {"time": 3953, "pitch": 66, "duration": 9, "velocity": 72}, {"time": 3953, "pitch": 73, "duration": 8, "velocity": 80}, {"time": 3959, "pitch": 54, "duration": 24, "velocity": 63}, {"time": 3965, "pitch": 58, "duration": 24, "velocity": 62}, {"time": 3971, "pitch": 61, "duration": 5, "velocity": 82}, {"time": 3977, "pitch": 66, "duration": 7, "velocity": 66}, {"time": 3983, "pitch": 68, "duration": 5, "velocity": 73}, {"time": 3989, "pitch": 54, "duration": 3, "velocity": 70}, {"time": 3989, "pitch": 70, "duration": 11, "velocity": 75}, {"time": 3995, "pitch": 73, "duration": 2, "velocity": 59}, {"time": 4001, "pitch": 44, "duration": 10, "velocity": 76}, {"time": 4001, "pitch": 63, "duration": 14, "velocity": 78}, {"time": 4001, "pitch": 66, "duration": 16, "velocity": 69}, {"time": 4001, "pitch": 71, "duration": 16, "velocity": 73}, {"time": 4007, "pitch": 51, "duration": 6, "velocity": 67}, {"time": 4013, "pitch": 56, "duration": 7, "velocity": 49}, {"time": 4019, "pitch": 58, "duration": 9, "velocity": 67}, {"time": 4025, "pitch": 59, "duration": 9, "velocity": 78}, {"time": 4025, "pitch": 63, "duration": 13, "velocity": 75}, {"time": 4025, "pitch": 66, "duration": 13, "velocity": 80}, {"time": 4025, "pitch": 71, "duration": 13, "velocity": 75}, {"time": 4031, "pitch": 58, "duration": 9, "velocity": 62}, {"time": 4037, "pitch": 56, "duration": 4, "velocity": 63}, {"time": 4043, "pitch": 71, "duration": 5, "velocity": 73}, {"time": 4049, "pitch": 42, "duration": 40, "velocity": 70}, {"time": 4049, "pitch": 61, "duration": 10, "velocity": 70}, {"time": 4049, "pitch": 66, "duration": 9, "velocity": 73}, {"time": 4049, "pitch": 70, "duration": 9, "velocity": 70}, {"time": 4055, "pitch": 51, "duration": 26, "velocity": 67}, {"time": 4061, "pitch": 54, "duration": 26, "velocity": 69}, {"time": 4067, "pitch": 59, "duration": 7, "velocity": 82}, {"time": 4073, "pitch": 61, "duration": 5, "velocity": 88}, {"time": 4079, "pitch": 63, "duration": 7, "velocity": 69}, {"time": 4085, "pitch": 66, "duration": 8, "velocity": 76}, {"time": 4094, "pitch": 63, "duration": 2, "velocity": 30}, {"time": 4097, "pitch": 40, "duration": 42, "velocity": 75}, {"time": 4097, "pitch": 56, "duration": 14, "velocity": 69}, {"time": 4097, "pitch": 59, "duration": 14, "velocity": 80}, {"time": 4097, "pitch": 64, "duration": 13, "velocity": 82}, {"time": 4103, "pitch": 47, "duration": 31, "velocity": 64}, {"time": 4109, "pitch": 52, "duration": 15, "velocity": 62}, {"time": 4115, "pitch": 56, "duration": 9, "velocity": 69}, {"time": 4121, "pitch": 59, "duration": 13, "velocity": 75}, {"time": 4121, "pitch": 64, "duration": 13, "velocity": 73}, {"time": 4133, "pitch": 52, "duration": 6, "velocity": 59}, {"time": 4139, "pitch": 47, "duration": 7, "velocity": 67}, {"time": 4145, "pitch": 39, "duration": 8, "velocity": 75}, {"time": 4145, "pitch": 54, "duration": 12, "velocity": 73}, {"time": 4145, "pitch": 63, "duration": 20, "velocity": 80}, {"time": 4151, "pitch": 47, "duration": 6, "velocity": 66}, {"time": 4157, "pitch": 51, "duration": 7, "velocity": 62}, {"time": 4163, "pitch": 54, "duration": 19, "velocity": 70}, {"time": 4169, "pitch": 59, "duration": 11, "velocity": 66}, {"time": 4175, "pitch": 63, "duration": 7, "velocity": 80}, {"time": 4181, "pitch": 66, "duration": 6, "velocity": 76}, {"time": 4187, "pitch": 71, "duration": 20, "velocity": 64}, {"time": 4193, "pitch": 49, "duration": 37, "velocity": 73}, {"time": 4193, "pitch": 61, "duration": 13, "velocity": 78}, {"time": 4193, "pitch": 64, "duration": 12, "velocity": 70}, {"time": 4193, "pitch": 68, "duration": 12, "velocity": 73}, {"time": 4199, "pitch": 56, "duration": 19, "velocity": 60}, {"time": 4205, "pitch": 59, "duration": 19, "velocity": 69}, {"time": 4211, "pitch": 61, "duration": 5, "velocity": 60}, {"time": 4217, "pitch": 61, "duration": 8, "velocity": 60}, {"time": 4217, "pitch": 64, "duration": 10, "velocity": 73}, {"time": 4217, "pitch": 71, "duration": 11, "velocity": 75}, {"time": 4223, "pitch": 56, "duration": 6, "velocity": 66}, {"time": 4229, "pitch": 66, "duration": 6, "velocity": 72}, {"time": 4229, "pitch": 71, "duration": 1, "velocity": 40}, {"time": 4235, "pitch": 71, "duration": 7, "velocity": 72}, {"time": 4241, "pitch": 42, "duration": 20, "velocity": 76}, {"time": 4241, "pitch": 61, "duration": 8, "velocity": 67}, {"time": 4241, "pitch": 66, "duration": 10, "velocity": 75}, {"time": 4241, "pitch": 70, "duration": 13, "velocity": 80}, {"time": 4247, "pitch": 49, "duration": 8, "velocity": 61}, {"time": 4253, "pitch": 54, "duration": 9, "velocity": 70}, {"time": 4253, "pitch": 63, "duration": 3, "velocity": 73}, {"time": 4253, "pitch": 66, "duration": 1, "velocity": 56}, {"time": 4253, "pitch": 71, "duration": 3, "velocity": 82}, {"time": 4259, "pitch": 49, "duration": 5, "velocity": 69}, {"time": 4265, "pitch": 44, "duration": 13, "velocity": 70}, {"time": 4265, "pitch": 66, "duration": 2, "velocity": 80}, {"time": 4265, "pitch": 73, "duration": 3, "velocity": 82}, {"time": 4271, "pitch": 46, "duration": 2, "velocity": 52}, {"time": 4277, "pitch": 46, "duration": 4, "velocity": 85}, {"time": 4277, "pitch": 68, "duration": 3, "velocity": 72}, {"time": 4277, "pitch": 76, "duration": 4, "velocity": 80}, {"time": 4283, "pitch": 76, "duration": 2, "velocity": 40}, {"time": 4289, "pitch": 47, "duration": 38, "velocity": 72}, {"time": 4289, "pitch": 66, "duration": 10, "velocity": 85}, {"time": 4289, "pitch": 71, "duration": 9, "velocity": 76}, {"time": 4289, "pitch": 75, "duration": 9, "velocity": 78}, {"time": 4295, "pitch": 54, "duration": 26, "velocity": 57}, {"time": 4301, "pitch": 59, "duration": 13, "velocity": 75}, {"time": 4307, "pitch": 63, "duration": 5, "velocity": 59}, {"time": 4313, "pitch": 63, "duration": 9, "velocity": 70}, {"time": 4313, "pitch": 66, "duration": 10, "velocity": 82}, {"time": 4313, "pitch": 71, "duration": 8, "velocity": 82}, {"time": 4319, "pitch": 59, "duration": 8, "velocity": 53}, {"time": 4325, "pitch": 54, "duration": 9, "velocity": 70}, {"time": 4331, "pitch": 66, "duration": 2, "velocity": 45}, {"time": 4331, "pitch": 71, "duration": 4, "velocity": 70}, {"time": 4337, "pitch": 46, "duration": 41, "velocity": 73}, {"time": 4337, "pitch": 61, "duration": 11, "velocity": 85}, {"time": 4337, "pitch": 70, "duration": 11, "velocity": 80}, {"time": 4337, "pitch": 71, "duration": 2, "velocity": 60}, {"time": 4343, "pitch": 54, "duration": 25, "velocity": 63}, {"time": 4349, "pitch": 58, "duration": 8, "velocity": 73}, {"time": 4355, "pitch": 61, "duration": 14, "velocity": 76}, {"time": 4355, "pitch": 66, "duration": 9, "velocity": 93}, {"time": 4367, "pitch": 58, "duration": 9, "velocity": 54}, {"time": 4373, "pitch": 66, "duration": 6, "velocity": 88}, {"time": 4376, "pitch": 54, "duration": 3, "velocity": 62}, {"time": 4379, "pitch": 68, "duration": 5, "velocity": 61}, {"time": 4382, "pitch": 70, "duration": 3, "velocity": 72}, {"time": 4385, "pitch": 44, "duration": 43, "velocity": 73}, {"time": 4385, "pitch": 63, "duration": 11, "velocity": 80}, {"time": 4385, "pitch": 66, "duration": 11, "velocity": 72}, {"time": 4385, "pitch": 71, "duration": 11, "velocity": 76}, {"time": 4391, "pitch": 51, "duration": 31, "velocity": 70}, {"time": 4397, "pitch": 56, "duration": 8, "velocity": 69}, {"time": 4403, "pitch": 63, "duration": 12, "velocity": 72}, {"time": 4403, "pitch": 66, "duration": 13, "velocity": 75}, {"time": 4403, "pitch": 71, "duration": 10, "velocity": 70}, {"time": 4415, "pitch": 56, "duration": 10, "velocity": 53}, {"time": 4421, "pitch": 63, "duration": 4, "velocity": 91}, {"time": 4421, "pitch": 66, "duration": 5, "velocity": 91}, {"time": 4421, "pitch": 71, "duration": 4, "velocity": 72}, {"time": 4427, "pitch": 51, "duration": 5, "velocity": 58}, {"time": 4433, "pitch": 39, "duration": 10, "velocity": 73}, {"time": 4433, "pitch": 61, "duration": 18, "velocity": 75}, {"time": 4433, "pitch": 66, "duration": 22, "velocity": 75}, {"time": 4439, "pitch": 47, "duration": 6, "velocity": 48}, {"time": 4445, "pitch": 51, "duration": 7, "velocity": 72}, {"time": 4451, "pitch": 54, "duration": 20, "velocity": 70}, {"time": 4457, "pitch": 59, "duration": 12, "velocity": 88}, {"time": 4463, "pitch": 63, "duration": 8, "velocity": 80}, {"time": 4469, "pitch": 66, "duration": 7, "velocity": 93}, {"time": 4475, "pitch": 71, "duration": 13, "velocity": 73}, {"time": 4481, "pitch": 52, "duration": 42, "velocity": 78}, {"time": 4481, "pitch": 59, "duration": 10, "velocity": 75}, {"time": 4481, "pitch": 64, "duration": 11, "velocity": 78}, {"time": 4481, "pitch": 68, "duration": 12, "velocity": 76}, {"time": 4487, "pitch": 56, "duration": 19, "velocity": 64}, {"time": 4493, "pitch": 59, "duration": 4, "velocity": 61}, {"time": 4499, "pitch": 59, "duration": 13, "velocity": 70}, {"time": 4499, "pitch": 64, "duration": 13, "velocity": 76}, {"time": 4511, "pitch": 56, "duration": 16, "velocity": 56}, {"time": 4517, "pitch": 59, "duration": 7, "velocity": 85}, {"time": 4523, "pitch": 68, "duration": 4, "velocity": 88}, {"time": 4529, "pitch": 51, "duration": 34, "velocity": 70}, {"time": 4529, "pitch": 66, "duration": 12, "velocity": 95}, {"time": 4535, "pitch": 59, "duration": 29, "velocity": 62}, {"time": 4541, "pitch": 63, "duration": 13, "velocity": 62}, {"time": 4547, "pitch": 66, "duration": 5, "velocity": 78}, {"time": 4553, "pitch": 71, "duration": 5, "velocity": 91}, {"time": 4559, "pitch": 63, "duration": 3, "velocity": 66}, {"time": 4559, "pitch": 71, "duration": 1, "velocity": 46}, {"time": 4559, "pitch": 73, "duration": 4, "velocity": 88}, {"time": 4565, "pitch": 75, "duration": 5, "velocity": 75}, {"time": 4571, "pitch": 75, "duration": 4, "velocity": 39}, {"time": 4571, "pitch": 78, "duration": 3, "velocity": 70}, {"time": 4577, "pitch": 49, "duration": 12, "velocity": 70}, {"time": 4577, "pitch": 68, "duration": 10, "velocity": 67}, {"time": 4577, "pitch": 76, "duration": 19, "velocity": 76}, {"time": 4583, "pitch": 56, "duration": 7, "velocity": 61}, {"time": 4589, "pitch": 61, "duration": 8, "velocity": 58}, {"time": 4592, "pitch": 68, "duration": 2, "velocity": 31}, {"time": 4595, "pitch": 63, "duration": 11, "velocity": 57}, {"time": 4595, "pitch": 68, "duration": 8, "velocity": 80}, {"time": 4595, "pitch": 75, "duration": 10, "velocity": 91}, {"time": 4601, "pitch": 64, "duration": 5, "velocity": 51}, {"time": 4607, "pitch": 71, "duration": 5, "velocity": 95}, {"time": 4625, "pitch": 42, "duration": 37, "velocity": 73}, {"time": 4625, "pitch": 66, "duration": 5, "velocity": 80}, {"time": 4625, "pitch": 73, "duration": 4, "velocity": 88}, {"time": 4631, "pitch": 49, "duration": 27, "velocity": 63}, {"time": 4637, "pitch": 54, "duration": 8, "velocity": 63}, {"time": 4643, "pitch": 59, "duration": 10, "velocity": 73}, {"time": 4643, "pitch": 64, "duration": 9, "velocity": 73}, {"time": 4649, "pitch": 54, "duration": 9, "velocity": 51}, {"time": 4655, "pitch": 58, "duration": 7, "velocity": 88}, {"time": 4655, "pitch": 61, "duration": 7, "velocity": 82}, {"time": 4655, "pitch": 66, "duration": 7, "velocity": 72}, {"time": 4673, "pitch": 47, "duration": 43, "velocity": 78}, {"time": 4673, "pitch": 63, "duration": 13, "velocity": 75}, {"time": 4673, "pitch": 66, "duration": 12, "velocity": 73}, {"time": 4673, "pitch": 71, "duration": 13, "velocity": 76}, {"time": 4679, "pitch": 54, "duration": 31, "velocity": 55}, {"time": 4685, "pitch": 59, "duration": 14, "velocity": 61}, {"time": 4691, "pitch": 63, "duration": 4, "velocity": 61}, {"time": 4697, "pitch": 63, "duration": 3, "velocity": 72}, {"time": 4697, "pitch": 66, "duration": 7, "velocity": 93}, {"time": 4697, "pitch": 71, "duration": 8, "velocity": 73}, {"time": 4703, "pitch": 59, "duration": 11, "velocity": 61}, {"time": 4709, "pitch": 63, "duration": 7, "velocity": 62}, {"time": 4709, "pitch": 66, "duration": 3, "velocity": 66}, {"time": 4715, "pitch": 54, "duration": 7, "velocity": 62}, {"time": 4721, "pitch": 46, "duration": 43, "velocity": 73}, {"time": 4721, "pitch": 61, "duration": 11, "velocity": 75}, {"time": 4721, "pitch": 66, "duration": 10, "velocity": 72}, {"time": 4721, "pitch": 70, "duration": 7, "velocity": 73}, {"time": 4727, "pitch": 54, "duration": 26, "velocity": 56}, {"time": 4733, "pitch": 58, "duration": 13, "velocity": 48}, {"time": 4739, "pitch": 61, "duration": 4, "velocity": 59}, {"time": 4745, "pitch": 61, "duration": 8, "velocity": 73}, {"time": 4745, "pitch": 66, "duration": 7, "velocity": 73}, {"time": 4745, "pitch": 70, "duration": 7, "velocity": 78}, {"time": 4751, "pitch": 58, "duration": 10, "velocity": 52}, {"time": 4757, "pitch": 68, "duration": 5, "velocity": 80}, {"time": 4763, "pitch": 54, "duration": 3, "velocity": 70}, {"time": 4763, "pitch": 70, "duration": 5, "velocity": 76}, {"time": 4769, "pitch": 44, "duration": 10, "velocity": 73}, {"time": 4769, "pitch": 63, "duration": 10, "velocity": 70}, {"time": 4769, "pitch": 66, "duration": 13, "velocity": 76}, {"time": 4769, "pitch": 71, "duration": 12, "velocity": 69}, {"time": 4775, "pitch": 51, "duration": 5, "velocity": 57}, {"time": 4781, "pitch": 56, "duration": 7, "velocity": 47}, {"time": 4787, "pitch": 58, "duration": 8, "velocity": 56}, {"time": 4793, "pitch": 59, "duration": 7, "velocity": 62}, {"time": 4793, "pitch": 63, "duration": 15, "velocity": 75}, {"time": 4793, "pitch": 66, "duration": 16, "velocity": 76}, {"time": 4793, "pitch": 71, "duration": 17, "velocity": 76}, {"time": 4799, "pitch": 58, "duration": 6, "velocity": 61}, {"time": 4805, "pitch": 56, "duration": 7, "velocity": 47}, {"time": 4811, "pitch": 51, "duration": 7, "velocity": 64}, {"time": 4817, "pitch": 42, "duration": 9, "velocity": 76}, {"time": 4817, "pitch": 61, "duration": 12, "velocity": 75}, {"time": 4817, "pitch": 66, "duration": 22, "velocity": 73}, {"time": 4817, "pitch": 70, "duration": 25, "velocity": 78}, {"time": 4823, "pitch": 51, "duration": 5, "velocity": 60}, {"time": 4829, "pitch": 54, "duration": 8, "velocity": 64}, {"time": 4835, "pitch": 58, "duration": 19, "velocity": 54}, {"time": 4841, "pitch": 59, "duration": 12, "velocity": 64}, {"time": 4847, "pitch": 63, "duration": 5, "velocity": 85}, {"time": 4853, "pitch": 66, "duration": 6, "velocity": 95}, {"time": 4859, "pitch": 71, "duration": 6, "velocity": 67}, {"time": 4865, "pitch": 40, "duration": 11, "velocity": 64}, {"time": 4865, "pitch": 59, "duration": 18, "velocity": 76}, {"time": 4865, "pitch": 64, "duration": 18, "velocity": 76}, {"time": 4865, "pitch": 68, "duration": 18, "velocity": 75}, {"time": 4871, "pitch": 47, "duration": 6, "velocity": 56}, {"time": 4877, "pitch": 52, "duration": 8, "velocity": 58}, {"time": 4883, "pitch": 54, "duration": 9, "velocity": 49}, {"time": 4889, "pitch": 56, "duration": 8, "velocity": 75}, {"time": 4889, "pitch": 59, "duration": 9, "velocity": 78}, {"time": 4889, "pitch": 64, "duration": 12, "velocity": 78}, {"time": 4889, "pitch": 68, "duration": 8, "velocity": 75}, {"time": 4895, "pitch": 54, "duration": 8, "velocity": 67}, {"time": 4901, "pitch": 52, "duration": 4, "velocity": 66}, {"time": 4907, "pitch": 66, "duration": 4, "velocity": 66}, {"time": 4913, "pitch": 40, "duration": 10, "velocity": 70}, {"time": 4913, "pitch": 59, "duration": 6, "velocity": 78}, {"time": 4913, "pitch": 64, "duration": 6, "velocity": 72}, {"time": 4913, "pitch": 68, "duration": 8, "velocity": 70}, {"time": 4919, "pitch": 47, "duration": 6, "velocity": 72}, {"time": 4925, "pitch": 52, "duration": 6, "velocity": 64}, {"time": 4931, "pitch": 54, "duration": 8, "velocity": 69}, {"time": 4931, "pitch": 68, "duration": 8, "velocity": 67}, {"time": 4931, "pitch": 71, "duration": 3, "velocity": 52}, {"time": 4931, "pitch": 76, "duration": 8, "velocity": 78}, {"time": 4937, "pitch": 56, "duration": 13, "velocity": 54}, {"time": 4943, "pitch": 66, "duration": 6, "velocity": 69}, {"time": 4943, "pitch": 75, "duration": 7, "velocity": 78}, {"time": 4949, "pitch": 54, "duration": 3, "velocity": 64}, {"time": 4961, "pitch": 40, "duration": 42, "velocity": 75}, {"time": 4961, "pitch": 56, "duration": 14, "velocity": 95}, {"time": 4961, "pitch": 59, "duration": 13, "velocity": 97}, {"time": 4961, "pitch": 63, "duration": 11, "velocity": 72}, {"time": 4967, "pitch": 47, "duration": 40, "velocity": 75}, {"time": 4973, "pitch": 52, "duration": 26, "velocity": 95}, {"time": 4979, "pitch": 56, "duration": 4, "velocity": 93}, {"time": 4985, "pitch": 59, "duration": 9, "velocity": 91}, {"time": 4997, "pitch": 56, "duration": 7, "velocity": 91}, {"time": 4997, "pitch": 59, "duration": 1, "velocity": 82}, {"time": 4997, "pitch": 63, "duration": 10, "velocity": 101}, {"time": 5003, "pitch": 52, "duration": 4, "velocity": 67}, {"time": 5009, "pitch": 42, "duration": 11, "velocity": 67}, {"time": 5009, "pitch": 58, "duration": 12, "velocity": 101}, {"time": 5009, "pitch": 61, "duration": 12, "velocity": 95}, {"time": 5009, "pitch": 66, "duration": 14, "velocity": 80}, {"time": 5015, "pitch": 49, "duration": 6, "velocity": 64}, {"time": 5021, "pitch": 54, "duration": 7, "velocity": 88}, {"time": 5027, "pitch": 56, "duration": 8, "velocity": 72}, {"time": 5033, "pitch": 58, "duration": 3, "velocity": 85}, {"time": 5039, "pitch": 61, "duration": 3, "velocity": 97}, {"time": 5042, "pitch": 66, "duration": 4, "velocity": 76}, {"time": 5045, "pitch": 68, "duration": 2, "velocity": 97}, {"time": 5048, "pitch": 70, "duration": 4, "velocity": 93}, {"time": 5051, "pitch": 71, "duration": 5, "velocity": 75}, {"time": 5054, "pitch": 73, "duration": 4, "velocity": 69}, {"time": 5057, "pitch": 47, "duration": 11, "velocity": 76}, {"time": 5057, "pitch": 63, "duration": 7, "velocity": 88}, {"time": 5057, "pitch": 66, "duration": 8, "velocity": 85}, {"time": 5057, "pitch": 71, "duration": 8, "velocity": 78}, {"time": 5057, "pitch": 75, "duration": 2, "velocity": 78}, {"time": 5063, "pitch": 54, "duration": 6, "velocity": 60}, {"time": 5069, "pitch": 59, "duration": 7, "velocity": 46}, {"time": 5075, "pitch": 61, "duration": 15, "velocity": 59}, {"time": 5075, "pitch": 66, "duration": 8, "velocity": 61}, {"time": 5075, "pitch": 71, "duration": 8, "velocity": 64}, {"time": 5075, "pitch": 75, "duration": 11, "velocity": 64}, {"time": 5081, "pitch": 63, "duration": 8, "velocity": 67}, {"time": 5087, "pitch": 66, "duration": 9, "velocity": 69}, {"time": 5093, "pitch": 73, "duration": 5, "velocity": 70}, {"time": 5099, "pitch": 75, "duration": 6, "velocity": 69}, {"time": 5105, "pitch": 46, "duration": 38, "velocity": 72}, {"time": 5105, "pitch": 66, "duration": 9, "velocity": 72}, {"time": 5105, "pitch": 73, "duration": 8, "velocity": 80}, {"time": 5111, "pitch": 54, "duration": 24, "velocity": 63}, {"time": 5117, "pitch": 58, "duration": 24, "velocity": 62}, {"time": 5123, "pitch": 61, "duration": 5, "velocity": 82}, {"time": 5129, "pitch": 66, "duration": 7, "velocity": 66}, {"time": 5135, "pitch": 68, "duration": 5, "velocity": 73}, {"time": 5141, "pitch": 54, "duration": 3, "velocity": 70}, {"time": 5141, "pitch": 70, "duration": 11, "velocity": 75}, {"time": 5147, "pitch": 73, "duration": 2, "velocity": 59}, {"time": 5153, "pitch": 44, "duration": 10, "velocity": 76}, {"time": 5153, "pitch": 63, "duration": 14, "velocity": 78}, {"time": 5153, "pitch": 66, "duration": 16, "velocity": 69}, {"time": 5153, "pitch": 71, "duration": 16, "velocity": 73}, {"time": 5159, "pitch": 51, "duration": 6, "velocity": 67}, {"time": 5165, "pitch": 56, "duration": 7, "velocity": 49}, {"time": 5171, "pitch": 58, "duration": 9, "velocity": 67}, {"time": 5177, "pitch": 59, "duration": 9, "velocity": 78}, {"time": 5177, "pitch": 63, "duration": 13, "velocity": 75}, {"time": 5177, "pitch": 66, "duration": 13, "velocity": 80}, {"time": 5177, "pitch": 71, "duration": 13, "velocity": 75}, {"time": 5183, "pitch": 58, "duration": 9, "velocity": 62}, {"time": 5189, "pitch": 56, "duration": 4, "velocity": 63}, {"time": 5195, "pitch": 71, "duration": 5, "velocity": 73}, {"time": 5201, "pitch": 42, "duration": 40, "velocity": 70}, {"time": 5201, "pitch": 61, "duration": 10, "velocity": 70}, {"time": 5201, "pitch": 66, "duration": 9, "velocity": 73}, {"time": 5201, "pitch": 70, "duration": 9, "velocity": 70}, {"time": 5207, "pitch": 51, "duration": 26, "velocity": 67}, {"time": 5213, "pitch": 54, "duration": 26, "velocity": 69}, {"time": 5219, "pitch": 59, "duration": 7, "velocity": 82}, {"time": 5225, "pitch": 61, "duration": 5, "velocity": 88}, {"time": 5231, "pitch": 63, "duration": 7, "velocity": 69}, {"time": 5237, "pitch": 66, "duration": 8, "velocity": 76}, {"time": 5246, "pitch": 63, "duration": 2, "velocity": 30}, {"time": 5249, "pitch": 40, "duration": 42, "velocity": 75}, {"time": 5249, "pitch": 56, "duration": 14, "velocity": 69}, {"time": 5249, "pitch": 59, "duration": 14, "velocity": 80}, {"time": 5249, "pitch": 64, "duration": 13, "velocity": 82}, {"time": 5255, "pitch": 47, "duration": 31, "velocity": 64}, {"time": 5261, "pitch": 52, "duration": 15, "velocity": 62}, {"time": 5267, "pitch": 56, "duration": 9, "velocity": 69}, {"time": 5273, "pitch": 59, "duration": 13, "velocity": 75}, {"time": 5273, "pitch": 64, "duration": 13, "velocity": 73}, {"time": 5285, "pitch": 52, "duration": 6, "velocity": 59}, {"time": 5291, "pitch": 47, "duration": 7, "velocity": 67}, {"time": 5297, "pitch": 39, "duration": 8, "velocity": 75}, {"time": 5297, "pitch": 54, "duration": 12, "velocity": 73}, {"time": 5297, "pitch": 63, "duration": 20, "velocity": 80}, {"time": 5303, "pitch": 47, "duration": 6, "velocity": 66}, {"time": 5309, "pitch": 51, "duration": 7, "velocity": 62}, {"time": 5315, "pitch": 54, "duration": 19, "velocity": 70}, {"time": 5321, "pitch": 59, "duration": 11, "velocity": 66}, {"time": 5327, "pitch": 63, "duration": 7, "velocity": 80}, {"time": 5333, "pitch": 66, "duration": 6, "velocity": 76}, {"time": 5339, "pitch": 71, "duration": 20, "velocity": 64}, {"time": 5345, "pitch": 49, "duration": 37, "velocity": 73}, {"time": 5345, "pitch": 61, "duration": 13, "velocity": 78}, {"time": 5345, "pitch": 64, "duration": 12, "velocity": 70}, {"time": 5345, "pitch": 68, "duration": 12, "velocity": 73}, {"time": 5351, "pitch": 56, "duration": 19, "velocity": 60}, {"time": 5357, "pitch": 59, "duration": 19, "velocity": 69}, {"time": 5363, "pitch": 61, "duration": 5, "velocity": 60}, {"time": 5369, "pitch": 61, "duration": 8, "velocity": 60}, {"time": 5369, "pitch": 64, "duration": 10, "velocity": 73}, {"time": 5369, "pitch": 71, "duration": 11, "velocity": 75}, {"time": 5375, "pitch": 56, "duration": 6, "velocity": 66}, {"time": 5381, "pitch": 66, "duration": 6, "velocity": 72}, {"time": 5381, "pitch": 71, "duration": 1, "velocity": 40}, {"time": 5387, "pitch": 71, "duration": 7, "velocity": 72}, {"time": 5393, "pitch": 42, "duration": 20, "velocity": 76}, {"time": 5393, "pitch": 61, "duration": 8, "velocity": 67}, {"time": 5393, "pitch": 66, "duration": 10, "velocity": 75}, {"time": 5393, "pitch": 70, "duration": 13, "velocity": 80}, {"time": 5399, "pitch": 49, "duration": 8, "velocity": 61}, {"time": 5405, "pitch": 54, "duration": 9, "velocity": 70}, {"time": 5405, "pitch": 63, "duration": 3, "velocity": 73}, {"time": 5405, "pitch": 66, "duration": 1, "velocity": 56}, {"time": 5405, "pitch": 71, "duration": 3, "velocity": 82}, {"time": 5411, "pitch": 49, "duration": 5, "velocity": 69}, {"time": 5417, "pitch": 44, "duration": 13, "velocity": 70}, {"time": 5417, "pitch": 66, "duration": 2, "velocity": 80}, {"time": 5417, "pitch": 73, "duration": 3, "velocity": 82}, {"time": 5423, "pitch": 46, "duration": 2, "velocity": 52}, {"time": 5429, "pitch": 46, "duration": 4, "velocity": 85}, {"time": 5429, "pitch": 68, "duration": 3, "velocity": 72}, {"time": 5429, "pitch": 76, "duration": 4, "velocity": 80}, {"time": 5435, "pitch": 76, "duration": 2, "velocity": 40}, {"time": 5441, "pitch": 47, "duration": 38, "velocity": 72}, {"time": 5441, "pitch": 66, "duration": 10, "velocity": 85}, {"time": 5441, "pitch": 71, "duration": 9, "velocity": 76}, {"time": 5441, "pitch": 75, "duration": 9, "velocity": 78}, {"time": 5447, "pitch": 54, "duration": 26, "velocity": 57}, {"time": 5453, "pitch": 59, "duration": 13, "velocity": 75}, {"time": 5459, "pitch": 63, "duration": 5, "velocity": 59}, {"time": 5465, "pitch": 63, "duration": 9, "velocity": 70}, {"time": 5465, "pitch": 66, "duration": 10, "velocity": 82}, {"time": 5465, "pitch": 71, "duration": 8, "velocity": 82}, {"time": 5471, "pitch": 59, "duration": 8, "velocity": 53}, {"time": 5477, "pitch": 54, "duration": 9, "velocity": 70}, {"time": 5483, "pitch": 66, "duration": 2, "velocity": 45}, {"time": 5483, "pitch": 71, "duration": 4, "velocity": 70}, {"time": 5489, "pitch": 46, "duration": 41, "velocity": 73}, {"time": 5489, "pitch": 61, "duration": 11, "velocity": 85}, {"time": 5489, "pitch": 70, "duration": 11, "velocity": 80}, {"time": 5489, "pitch": 71, "duration": 2, "velocity": 60}, {"time": 5495, "pitch": 54, "duration": 25, "velocity": 63}, {"time": 5501, "pitch": 58, "duration": 8, "velocity": 73}, {"time": 5507, "pitch": 61, "duration": 14, "velocity": 76}, {"time": 5507, "pitch": 66, "duration": 9, "velocity": 93}, {"time": 5519, "pitch": 58, "duration": 9, "velocity": 54}, {"time": 5525, "pitch": 66, "duration": 6, "velocity": 88}, {"time": 5528, "pitch": 54, "duration": 3, "velocity": 62}, {"time": 5531, "pitch": 68, "duration": 5, "velocity": 61}, {"time": 5534, "pitch": 70, "duration": 3, "velocity": 72}, {"time": 5537, "pitch": 44, "duration": 43, "velocity": 73}, {"time": 5537, "pitch": 63, "duration": 11, "velocity": 80}, {"time": 5537, "pitch": 66, "duration": 11, "velocity": 72}, {"time": 5537, "pitch": 71, "duration": 11, "velocity": 76}, {"time": 5543, "pitch": 51, "duration": 31, "velocity": 70}, {"time": 5549, "pitch": 56, "duration": 8, "velocity": 69}, {"time": 5555, "pitch": 63, "duration": 12, "velocity": 72}, {"time": 5555, "pitch": 66, "duration": 13, "velocity": 75}, {"time": 5555, "pitch": 71, "duration": 10, "velocity": 70}, {"time": 5567, "pitch": 56, "duration": 10, "velocity": 53}, {"time": 5573, "pitch": 63, "duration": 4, "velocity": 91}, {"time": 5573, "pitch": 66, "duration": 5, "velocity": 91}, {"time": 5573, "pitch": 71, "duration": 4, "velocity": 72}, {"time": 5579, "pitch": 51, "duration": 5, "velocity": 58}, {"time": 5585, "pitch": 39, "duration": 10, "velocity": 73}, {"time": 5585, "pitch": 61, "duration": 18, "velocity": 75}, {"time": 5585, "pitch": 66, "duration": 22, "velocity": 75}, {"time": 5591, "pitch": 47, "duration": 6, "velocity": 48}, {"time": 5597, "pitch": 51, "duration": 7, "velocity": 72}, {"time": 5603, "pitch": 54, "duration": 20, "velocity": 70}, {"time": 5609, "pitch": 59, "duration": 12, "velocity": 88}, {"time": 5615, "pitch": 63, "duration": 8, "velocity": 80}, {"time": 5621, "pitch": 66, "duration": 7, "velocity": 93}, {"time": 5627, "pitch": 71, "duration": 13, "velocity": 73}, {"time": 5633, "pitch": 52, "duration": 42, "velocity": 78}, {"time": 5633, "pitch": 59, "duration": 10, "velocity": 75}, {"time": 5633, "pitch": 64, "duration": 11, "velocity": 78}, {"time": 5633, "pitch": 68, "duration": 12, "velocity": 76}, {"time": 5639, "pitch": 56, "duration": 19, "velocity": 64}, {"time": 5645, "pitch": 59, "duration": 4, "velocity": 61}, {"time": 5651, "pitch": 59, "duration": 13, "velocity": 70}, {"time": 5651, "pitch": 64, "duration": 13, "velocity": 76}, {"time": 5663, "pitch": 56, "duration": 16, "velocity": 56}, {"time": 5669, "pitch": 59, "duration": 7, "velocity": 85}, {"time": 5675, "pitch": 68, "duration": 4, "velocity": 88}, {"time": 5681, "pitch": 51, "duration": 34, "velocity": 70}, {"time": 5681, "pitch": 66, "duration": 12, "velocity": 95}, {"time": 5687, "pitch": 59, "duration": 29, "velocity": 62}, {"time": 5693, "pitch": 63, "duration": 13, "velocity": 62}, {"time": 5699, "pitch": 66, "duration": 5, "velocity": 78}, {"time": 5705, "pitch": 71, "duration": 5, "velocity": 91}, {"time": 5711, "pitch": 63, "duration": 3, "velocity": 66}, {"time": 5711, "pitch": 71, "duration": 1, "velocity": 46}, {"time": 5711, "pitch": 73, "duration": 4, "velocity": 88}, {"time": 5717, "pitch": 75, "duration": 5, "velocity": 75}, {"time": 5723, "pitch": 75, "duration": 4, "velocity": 39}, {"time": 5723, "pitch": 78, "duration": 3, "velocity": 70}, {"time": 5729, "pitch": 49, "duration": 12, "velocity": 70}, {"time": 5729, "pitch": 68, "duration": 10, "velocity": 67}, {"time": 5729, "pitch": 76, "duration": 19, "velocity": 76}, {"time": 5735, "pitch": 56, "duration": 7, "velocity": 61}, {"time": 5741, "pitch": 61, "duration": 8, "velocity": 58}, {"time": 5744, "pitch": 68, "duration": 2, "velocity": 31}, {"time": 5747, "pitch": 63, "duration": 11, "velocity": 57}, {"time": 5747, "pitch": 68, "duration": 8, "velocity": 80}, {"time": 5747, "pitch": 75, "duration": 10, "velocity": 91}, {"time": 5753, "pitch": 64, "duration": 5, "velocity": 51}, {"time": 5759, "pitch": 71, "duration": 5, "velocity": 95}, {"time": 5777, "pitch": 42, "duration": 37, "velocity": 73}, {"time": 5777, "pitch": 66, "duration": 5, "velocity": 80}, {"time": 5777, "pitch": 73, "duration": 4, "velocity": 88}, {"time": 5783, "pitch": 49, "duration": 27, "velocity": 63}, {"time": 5789, "pitch": 54, "duration": 8, "velocity": 63}, {"time": 5795, "pitch": 59, "duration": 10, "velocity": 73}, {"time": 5795, "pitch": 64, "duration": 9, "velocity": 73}, {"time": 5801, "pitch": 54, "duration": 9, "velocity": 51}, {"time": 5807, "pitch": 58, "duration": 7, "velocity": 88}, {"time": 5807, "pitch": 61, "duration": 7, "velocity": 82}, {"time": 5807, "pitch": 66, "duration": 7, "velocity": 72}, {"time": 5825, "pitch": 47, "duration": 43, "velocity": 78}, {"time": 5825, "pitch": 63, "duration": 13, "velocity": 75}, {"time": 5825, "pitch": 66, "duration": 12, "velocity": 73}, {"time": 5825, "pitch": 71, "duration": 13, "velocity": 76}, {"time": 5831, "pitch": 54, "duration": 31, "velocity": 55}, {"time": 5837, "pitch": 59, "duration": 14, "velocity": 61}, {"time": 5843, "pitch": 63, "duration": 4, "velocity": 61}, {"time": 5849, "pitch": 63, "duration": 3, "velocity": 72}, {"time": 5849, "pitch": 66, "duration": 7, "velocity": 93}, {"time": 5849, "pitch": 71, "duration": 8, "velocity": 73}, {"time": 5855, "pitch": 59, "duration": 11, "velocity": 61}, {"time": 5861, "pitch": 63, "duration": 7, "velocity": 62}, {"time": 5861, "pitch": 66, "duration": 3, "velocity": 66}, {"time": 5867, "pitch": 54, "duration": 7, "velocity": 62}, {"time": 5873, "pitch": 46, "duration": 43, "velocity": 73}, {"time": 5873, "pitch": 61, "duration": 11, "velocity": 75}, {"time": 5873, "pitch": 66, "duration": 10, "velocity": 72}, {"time": 5873, "pitch": 70, "duration": 7, "velocity": 73}, {"time": 5879, "pitch": 54, "duration": 26, "velocity": 56}, {"time": 5885, "pitch": 58, "duration": 13, "velocity": 48}, {"time": 5891, "pitch": 61, "duration": 4, "velocity": 59}, {"time": 5897, "pitch": 61, "duration": 8, "velocity": 73}, {"time": 5897, "pitch": 66, "duration": 7, "velocity": 73}, {"time": 5897, "pitch": 70, "duration": 7, "velocity": 78}, {"time": 5903, "pitch": 58, "duration": 10, "velocity": 52}, {"time": 5909, "pitch": 68, "duration": 5, "velocity": 80}, {"time": 5915, "pitch": 54, "duration": 3, "velocity": 70}, {"time": 5915, "pitch": 70, "duration": 5, "velocity": 76}, {"time": 5921, "pitch": 44, "duration": 10, "velocity": 73}, {"time": 5921, "pitch": 63, "duration": 10, "velocity": 70}, {"time": 5921, "pitch": 66, "duration": 13, "velocity": 76}, {"time": 5921, "pitch": 71, "duration": 12, "velocity": 69}, {"time": 5927, "pitch": 51, "duration": 5, "velocity": 57}, {"time": 5933, "pitch": 56, "duration": 7, "velocity": 47}, {"time": 5939, "pitch": 58, "duration": 8, "velocity": 56}, {"time": 5945, "pitch": 59, "duration": 7, "velocity": 62}, {"time": 5945, "pitch": 63, "duration": 15, "velocity": 75}, {"time": 5945, "pitch": 66, "duration": 16, "velocity": 76}, {"time": 5945, "pitch": 71, "duration": 17, "velocity": 76}, {"time": 5951, "pitch": 58, "duration": 6, "velocity": 61}, {"time": 5957, "pitch": 56, "duration": 7, "velocity": 47}, {"time": 5963, "pitch": 51, "duration": 7, "velocity": 64}, {"time": 5969, "pitch": 42, "duration": 9, "velocity": 76}, {"time": 5969, "pitch": 61, "duration": 12, "velocity": 75}, {"time": 5969, "pitch": 66, "duration": 22, "velocity": 73}, {"time": 5969, "pitch": 70, "duration": 25, "velocity": 78}, {"time": 5975, "pitch": 51, "duration": 5, "velocity": 60}, {"time": 5981, "pitch": 54, "duration": 8, "velocity": 64}, {"time": 5987, "pitch": 58, "duration": 19, "velocity": 54}, {"time": 5993, "pitch": 59, "duration": 12, "velocity": 64}, {"time": 5999, "pitch": 63, "duration": 5, "velocity": 85}, {"time": 6005, "pitch": 66, "duration": 6, "velocity": 95}, {"time": 6011, "pitch": 71, "duration": 6, "velocity": 67}, {"time": 6017, "pitch": 40, "duration": 11, "velocity": 64}, {"time": 6017, "pitch": 59, "duration": 18, "velocity": 76}, {"time": 6017, "pitch": 64, "duration": 18, "velocity": 76}, {"time": 6017, "pitch": 68, "duration": 18, "velocity": 75}, {"time": 6023, "pitch": 47, "duration": 6, "velocity": 56}, {"time": 6029, "pitch": 52, "duration": 8, "velocity": 58}, {"time": 6035, "pitch": 54, "duration": 9, "velocity": 49}, {"time": 6041, "pitch": 56, "duration": 8, "velocity": 75}, {"time": 6041, "pitch": 59, "duration": 9, "velocity": 78}, {"time": 6041, "pitch": 64, "duration": 12, "velocity": 78}, {"time": 6041, "pitch": 68, "duration": 8, "velocity": 75}, {"time": 6047, "pitch": 54, "duration": 8, "velocity": 67}, {"time": 6053, "pitch": 52, "duration": 4, "velocity": 66}, {"time": 6059, "pitch": 66, "duration": 4, "velocity": 66}, {"time": 6065, "pitch": 40, "duration": 10, "velocity": 70}, {"time": 6065, "pitch": 59, "duration": 6, "velocity": 78}, {"time": 6065, "pitch": 64, "duration": 6, "velocity": 72}, {"time": 6065, "pitch": 68, "duration": 8, "velocity": 70}, {"time": 6071, "pitch": 47, "duration": 6, "velocity": 72}, {"time": 6077, "pitch": 52, "duration": 6, "velocity": 64}, {"time": 6083, "pitch": 54, "duration": 8, "velocity": 69}, {"time": 6083, "pitch": 68, "duration": 8, "velocity": 67}, {"time": 6083, "pitch": 71, "duration": 3, "velocity": 52}, {"time": 6083, "pitch": 76, "duration": 8, "velocity": 78}, {"time": 6089, "pitch": 56, "duration": 13, "velocity": 54}, {"time": 6095, "pitch": 66, "duration": 6, "velocity": 69}, {"time": 6095, "pitch": 75, "duration": 7, "velocity": 78}, {"time": 6101, "pitch": 54, "duration": 3, "velocity": 64}, {"time": 6113, "pitch": 40, "duration": 12, "velocity": 73}, {"time": 6113, "pitch": 59, "duration": 25, "velocity": 85}, {"time": 6113, "pitch": 64, "duration": 25, "velocity": 85}, {"time": 6113, "pitch": 68, "duration": 23, "velocity": 85}, {"time": 6119, "pitch": 47, "duration": 7, "velocity": 73}, {"time": 6125, "pitch": 52, "duration": 7, "velocity": 61}, {"time": 6131, "pitch": 54, "duration": 14, "velocity": 57}, {"time": 6137, "pitch": 56, "duration": 9, "velocity": 91}, {"time": 6143, "pitch": 59, "duration": 4, "velocity": 95}, {"time": 6149, "pitch": 64, "duration": 5, "velocity": 95}, {"time": 6155, "pitch": 66, "duration": 4, "velocity": 63}, {"time": 6161, "pitch": 42, "duration": 12, "velocity": 72}, {"time": 6161, "pitch": 61, "duration": 26, "velocity": 82}, {"time": 6161, "pitch": 66, "duration": 26, "velocity": 82}, {"time": 6161, "pitch": 70, "duration": 24, "velocity": 72}, {"time": 6167, "pitch": 49, "duration": 7, "velocity": 70}, {"time": 6173, "pitch": 54, "duration": 8, "velocity": 73}, {"time": 6179, "pitch": 56, "duration": 15, "velocity": 59}, {"time": 6185, "pitch": 58, "duration": 9, "velocity": 70}, {"time": 6191, "pitch": 61, "duration": 4, "velocity": 76}, {"time": 6197, "pitch": 66, "duration": 4, "velocity": 93}, {"time": 6203, "pitch": 66, "duration": 2, "velocity": 51}, {"time": 6209, "pitch": 47, "duration": 44, "velocity": 72}, {"time": 6209, "pitch": 63, "duration": 14, "velocity": 93}, {"time": 6209, "pitch": 66, "duration": 12, "velocity": 101}, {"time": 6209, "pitch": 71, "duration": 11, "velocity": 88}, {"time": 6215, "pitch": 54, "duration": 27, "velocity": 69}, {"time": 6221, "pitch": 59, "duration": 13, "velocity": 91}, {"time": 6227, "pitch": 63, "duration": 4, "velocity": 70}, {"time": 6233, "pitch": 63, "duration": 9, "velocity": 88}, {"time": 6233, "pitch": 66, "duration": 9, "velocity": 97}, {"time": 6233, "pitch": 71, "duration": 8, "velocity": 75}, {"time": 6239, "pitch": 59, "duration": 9, "velocity": 72}, {"time": 6245, "pitch": 63, "duration": 5, "velocity": 66}, {"time": 6245, "pitch": 71, "duration": 2, "velocity": 63}, {"time": 6251, "pitch": 54, "duration": 6, "velocity": 64}, {"time": 6251, "pitch": 73, "duration": 4, "velocity": 75}, {"time": 6257, "pitch": 46, "duration": 38, "velocity": 70}, {"time": 6257, "pitch": 61, "duration": 14, "velocity": 91}, {"time": 6257, "pitch": 66, "duration": 12, "velocity": 80}, {"time": 6257, "pitch": 70, "duration": 11, "velocity": 73}, {"time": 6257, "pitch": 73, "duration": 11, "velocity": 48}, {"time": 6263, "pitch": 54, "duration": 32, "velocity": 67}, {"time": 6269, "pitch": 58, "duration": 23, "velocity": 75}, {"time": 6275, "pitch": 61, "duration": 3, "velocity": 93}, {"time": 6278, "pitch": 66, "duration": 4, "velocity": 70}, {"time": 6281, "pitch": 68, "duration": 2, "velocity": 85}, {"time": 6284, "pitch": 70, "duration": 4, "velocity": 95}, {"time": 6287, "pitch": 71, "duration": 5, "velocity": 62}, {"time": 6290, "pitch": 73, "duration": 5, "velocity": 85}, {"time": 6293, "pitch": 75, "duration": 4, "velocity": 93}, {"time": 6296, "pitch": 78, "duration": 6, "velocity": 67}, {"time": 6299, "pitch": 76, "duration": 4, "velocity": 78}, {"time": 6305, "pitch": 44, "duration": 11, "velocity": 75}, {"time": 6305, "pitch": 75, "duration": 10, "velocity": 91}, {"time": 6311, "pitch": 51, "duration": 6, "velocity": 64}, {"time": 6317, "pitch": 56, "duration": 7, "velocity": 51}, {"time": 6317, "pitch": 66, "duration": 8, "velocity": 54}, {"time": 6317, "pitch": 75, "duration": 4, "velocity": 70}, {"time": 6323, "pitch": 58, "duration": 7, "velocity": 64}, {"time": 6323, "pitch": 73, "duration": 5, "velocity": 85}, {"time": 6329, "pitch": 59, "duration": 9, "velocity": 70}, {"time": 6329, "pitch": 66, "duration": 8, "velocity": 76}, {"time": 6329, "pitch": 75, "duration": 8, "velocity": 101}, {"time": 6335, "pitch": 58, "duration": 14, "velocity": 69}, {"time": 6341, "pitch": 66, "duration": 3, "velocity": 78}, {"time": 6341, "pitch": 73, "duration": 5, "velocity": 95}, {"time": 6347, "pitch": 56, "duration": 4, "velocity": 66}, {"time": 6347, "pitch": 75, "duration": 3, "velocity": 72}, {"time": 6353, "pitch": 51, "duration": 37, "velocity": 75}, {"time": 6353, "pitch": 66, "duration": 13, "velocity": 82}, {"time": 6353, "pitch": 70, "duration": 12, "velocity": 88}, {"time": 6353, "pitch": 73, "duration": 12, "velocity": 88}, {"time": 6359, "pitch": 58, "duration": 22, "velocity": 58}, {"time": 6365, "pitch": 63, "duration": 21, "velocity": 80}, {"time": 6371, "pitch": 66, "duration": 5, "velocity": 82}, {"time": 6377, "pitch": 68, "duration": 4, "velocity": 97}, {"time": 6383, "pitch": 70, "duration": 6, "velocity": 82}, {"time": 6389, "pitch": 58, "duration": 2, "velocity": 62}, {"time": 6389, "pitch": 73, "duration": 3, "velocity": 73}, {"time": 6401, "pitch": 40, "duration": 12, "velocity": 73}, {"time": 6401, "pitch": 59, "duration": 26, "velocity": 80}, {"time": 6401, "pitch": 64, "duration": 24, "velocity": 82}, {"time": 6401, "pitch": 68, "duration": 26, "velocity": 73}, {"time": 6401, "pitch": 71, "duration": 26, "velocity": 64}, {"time": 6407, "pitch": 47, "duration": 7, "velocity": 75}, {"time": 6413, "pitch": 52, "duration": 7, "velocity": 59}, {"time": 6419, "pitch": 54, "duration": 15, "velocity": 67}, {"time": 6425, "pitch": 56, "duration": 11, "velocity": 72}, {"time": 6431, "pitch": 59, "duration": 4, "velocity": 82}, {"time": 6437, "pitch": 64, "duration": 5, "velocity": 80}, {"time": 6443, "pitch": 71, "duration": 5, "velocity": 69}, {"time": 6449, "pitch": 47, "duration": 38, "velocity": 75}, {"time": 6449, "pitch": 63, "duration": 12, "velocity": 88}, {"time": 6449, "pitch": 66, "duration": 13, "velocity": 88}, {"time": 6449, "pitch": 71, "duration": 9, "velocity": 62}, {"time": 6455, "pitch": 54, "duration": 32, "velocity": 61}, {"time": 6461, "pitch": 59, "duration": 20, "velocity": 69}, {"time": 6467, "pitch": 63, "duration": 5, "velocity": 85}, {"time": 6473, "pitch": 63, "duration": 3, "velocity": 55}, {"time": 6473, "pitch": 66, "duration": 9, "velocity": 76}, {"time": 6485, "pitch": 59, "duration": 2, "velocity": 69}, {"time": 6485, "pitch": 63, "duration": 3, "velocity": 91}, {"time": 6485, "pitch": 71, "duration": 3, "velocity": 76}, {"time": 6497, "pitch": 49, "duration": 38, "velocity": 69}, {"time": 6497, "pitch": 61, "duration": 9, "velocity": 82}, {"time": 6497, "pitch": 64, "duration": 9, "velocity": 82}, {"time": 6497, "pitch": 68, "duration": 8, "velocity": 72}, {"time": 6497, "pitch": 71, "duration": 8, "velocity": 61}, {"time": 6503, "pitch": 56, "duration": 24, "velocity": 59}, {"time": 6509, "pitch": 61, "duration": 8, "velocity": 78}, {"time": 6515, "pitch": 64, "duration": 9, "velocity": 72}, {"time": 6527, "pitch": 61, "duration": 8, "velocity": 85}, {"time": 6527, "pitch": 68, "duration": 9, "velocity": 91}, {"time": 6533, "pitch": 56, "duration": 2, "velocity": 64}, {"time": 6545, "pitch": 42, "duration": 15, "velocity": 73}, {"time": 6545, "pitch": 54, "duration": 8, "velocity": 93}, {"time": 6545, "pitch": 59, "duration": 14, "velocity": 93}, {"time": 6545, "pitch": 64, "duration": 13, "velocity": 88}, {"time": 6545, "pitch": 68, "duration": 13, "velocity": 72}, {"time": 6545, "pitch": 71, "duration": 13, "velocity": 64}, {"time": 6557, "pitch": 54, "duration": 3, "velocity": 76}, {"time": 6569, "pitch": 42, "duration": 13, "velocity": 67}, {"time": 6569, "pitch": 54, "duration": 7, "velocity": 91}, {"time": 6569, "pitch": 61, "duration": 14, "velocity": 80}, {"time": 6569, "pitch": 66, "duration": 14, "velocity": 82}, {"time": 6569, "pitch": 70, "duration": 13, "velocity": 78}, {"time": 6581, "pitch": 54, "duration": 3, "velocity": 88}], "annotations": [{"time": 452, "annotation": {"number": 64, "value": 127}, "group": "control_change"}, {"time": 500, "annotation": {"number": 64, "value": 0}, "group": "control_change"}, {"time": 508, "annotation": {"number": 64, "value": 127}, "group": "control_change"}, {"time": 546, "annotation": {"number": 64, "value": 0}, "group": "control_change"}, {"time": 553, "annotation": {"number": 64, "value": 127}, "group": "control_change"}, {"time": 595, "annotation": {"number": 64, "value": 0}, "group": "control_change"}, {"time": 602, "annotation": {"number": 64, "value": 127}, "group": "control_change"}, {"time": 642, "annotation": {"number": 64, "value": 0}, "group": "control_change"}, {"time": 648, "annotation": {"number": 64, "value": 127}, "group": "control_change"}, {"time": 691, "annotation": {"number": 64, "value": 0}, "group": "control_change"}, {"time": 695, "annotation": {"number": 64, "value": 127}, "group": "control_change"}, {"time": 737, "annotation": {"number": 64, "value": 0}, "group": "control_change"}, {"time": 743, "annotation": {"number": 64, "value": 127}, "group": "control_change"}, {"time": 787, "annotation": {"number": 64, "value": 0}, "group": "control_change"}, {"time": 791, "annotation": {"number": 64, "value": 127}, "group": "control_change"}, {"time": 831, "annotation": {"number": 64, "value": 0}, "group": "control_change"}, {"time": 835, "annotation": {"number": 64, "value": 127}, "group": "control_change"}, {"time": 884, "annotation": {"number": 64, "value": 0}, "group": "control_change"}, {"time": 888, "annotation": {"number": 64, "value": 127}, "group": "control_change"}, {"time": 931, "annotation": {"number": 64, "value": 0}, "group": "control_change"}, {"time": 936, "annotation": {"number": 64, "value": 127}, "group": "control_change"}, {"time": 979, "annotation": {"number": 64, "value": 0}, "group": "control_change"}, {"time": 984, "annotation": {"number": 64, "value": 127}, "group": "control_change"}, {"time": 1025, "annotation": {"number": 64, "value": 0}, "group": "control_change"}, {"time": 1029, "annotation": {"number": 64, "value": 127}, "group": "control_change"}, {"time": 1073, "annotation": {"number": 64, "value": 0}, "group": "control_change"}, {"time": 1084, "annotation": {"number": 64, "value": 127}, "group": "control_change"}, {"time": 1122, "annotation": {"number": 64, "value": 0}, "group": "control_change"}, {"time": 1127, "annotation": {"number": 64, "value": 127}, "group": "control_change"}, {"time": 1173, "annotation": {"number": 64, "value": 0}, "group": "control_change"}, {"time": 1179, "annotation": {"number": 64, "value": 127}, "group": "control_change"}, {"time": 1215, "annotation": {"number": 64, "value": 0}, "group": "control_change"}, {"time": 1220, "annotation": {"number": 64, "value": 127}, "group": "control_change"}, {"time": 1265, "annotation": {"number": 64, "value": 0}, "group": "control_change"}, {"time": 1268, "annotation": {"number": 64, "value": 127}, "group": "control_change"}, {"time": 1310, "annotation": {"number": 64, "value": 0}, "group": "control_change"}, {"time": 1316, "annotation": {"number": 64, "value": 127}, "group": "control_change"}, {"time": 1363, "annotation": {"number": 64, "value": 0}, "group": "control_change"}, {"time": 1373, "annotation": {"number": 64, "value": 127}, "group": "control_change"}, {"time": 1410, "annotation": {"number": 64, "value": 0}, "group": "control_change"}, {"time": 1417, "annotation": {"number": 64, "value": 127}, "group": "control_change"}, {"time": 1455, "annotation": {"number": 64, "value": 0}, "group": "control_change"}, {"time": 1461, "annotation": {"number": 64, "value": 127}, "group": "control_change"}, {"time": 1503, "annotation": {"number": 64, "value": 0}, "group": "control_change"}, {"time": 1509, "annotation": {"number": 64, "value": 127}, "group": "control_change"}, {"time": 1553, "annotation": {"number": 64, "value": 0}, "group": "control_change"}, {"time": 1554, "annotation": {"number": 64, "value": 127}, "group": "control_change"}, {"time": 1577, "annotation": {"number": 64, "value": 0}, "group": "control_change"}, {"time": 1582, "annotation": {"number": 64, "value": 127}, "group": "control_change"}, {"time": 1587, "annotation": {"number": 64, "value": 0}, "group": "control_change"}, {"time": 1590, "annotation": {"number": 64, "value": 127}, "group": "control_change"}, {"time": 1600, "annotation": {"number": 64, "value": 0}, "group": "control_change"}, {"time": 1606, "annotation": {"number": 64, "value": 127}, "group": "control_change"}, {"time": 1650, "annotation": {"number": 64, "value": 0}, "group": "control_change"}, {"time": 1658, "annotation": {"number": 64, "value": 127}, "group": "control_change"}, {"time": 1697, "annotation": {"number": 64, "value": 0}, "group": "control_change"}, {"time": 1708, "annotation": {"number": 64, "value": 127}, "group": "control_change"}, {"time": 1747, "annotation": {"number": 64, "value": 0}, "group": "control_change"}, {"time": 1753, "annotation": {"number": 64, "value": 127}, "group": "control_change"}, {"time": 1794, "annotation": {"number": 64, "value": 0}, "group": "control_change"}, {"time": 1804, "annotation": {"number": 64, "value": 127}, "group": "control_change"}, {"time": 1840, "annotation": {"number": 64, "value": 0}, "group": "control_change"}, {"time": 1855, "annotation": {"number": 64, "value": 127}, "group": "control_change"}, {"time": 1889, "annotation": {"number": 64, "value": 0}, "group": "control_change"}, {"time": 1897, "annotation": {"number": 64, "value": 127}, "group": "control_change"}, {"time": 1938, "annotation": {"number": 64, "value": 0}, "group": "control_change"}, {"time": 1945, "annotation": {"number": 64, "value": 127}, "group": "control_change"}, {"time": 1959, "annotation": {"number": 64, "value": 0}, "group": "control_change"}, {"time": 1963, "annotation": {"number": 64, "value": 127}, "group": "control_change"}, {"time": 1986, "annotation": {"number": 64, "value": 0}, "group": "control_change"}, {"time": 1991, "annotation": {"number": 64, "value": 127}, "group": "control_change"}, {"time": 2032, "annotation": {"number": 64, "value": 0}, "group": "control_change"}, {"time": 2047, "annotation": {"number": 64, "value": 127}, "group": "control_change"}, {"time": 2081, "annotation": {"number": 64, "value": 0}, "group": "control_change"}, {"time": 2087, "annotation": {"number": 64, "value": 127}, "group": "control_change"}, {"time": 2129, "annotation": {"number": 64, "value": 0}, "group": "control_change"}, {"time": 2134, "annotation": {"number": 64, "value": 127}, "group": "control_change"}, {"time": 2177, "annotation": {"number": 64, "value": 0}, "group": "control_change"}, {"time": 2188, "annotation": {"number": 64, "value": 127}, "group": "control_change"}, {"time": 2224, "annotation": {"number": 64, "value": 0}, "group": "control_change"}, {"time": 2233, "annotation": {"number": 64, "value": 127}, "group": "control_change"}, {"time": 2274, "annotation": {"number": 64, "value": 0}, "group": "control_change"}, {"time": 2281, "annotation": {"number": 64, "value": 127}, "group": "control_change"}, {"time": 2321, "annotation": {"number": 64, "value": 0}, "group": "control_change"}, {"time": 2325, "annotation": {"number": 64, "value": 127}, "group": "control_change"}, {"time": 2367, "annotation": {"number": 64, "value": 0}, "group": "control_change"}, {"time": 2377, "annotation": {"number": 64, "value": 127}, "group": "control_change"}, {"time": 2417, "annotation": {"number": 64, "value": 0}, "group": "control_change"}, {"time": 2426, "annotation": {"number": 64, "value": 127}, "group": "control_change"}, {"time": 2463, "annotation": {"number": 64, "value": 0}, "group": "control_change"}, {"time": 2470, "annotation": {"number": 64, "value": 127}, "group": "control_change"}, {"time": 2514, "annotation": {"number": 64, "value": 0}, "group": "control_change"}, {"time": 2519, "annotation": {"number": 64, "value": 127}, "group": "control_change"}, {"time": 2561, "annotation": {"number": 64, "value": 0}, "group": "control_change"}, {"time": 2564, "annotation": {"number": 64, "value": 127}, "group": "control_change"}, {"time": 2610, "annotation": {"number": 64, "value": 0}, "group": "control_change"}, {"time": 2615, "annotation": {"number": 64, "value": 127}, "group": "control_change"}, {"time": 2657, "annotation": {"number": 64, "value": 0}, "group": "control_change"}, {"time": 2662, "annotation": {"number": 64, "value": 127}, "group": "control_change"}, {"time": 2704, "annotation": {"number": 64, "value": 0}, "group": "control_change"}, {"time": 2712, "annotation": {"number": 64, "value": 127}, "group": "control_change"}, {"time": 2753, "annotation": {"number": 64, "value": 0}, "group": "control_change"}, {"time": 2762, "annotation": {"number": 64, "value": 127}, "group": "control_change"}, {"time": 2802, "annotation": {"number": 64, "value": 0}, "group": "control_change"}, {"time": 2815, "annotation": {"number": 64, "value": 127}, "group": "control_change"}, {"time": 2849, "annotation": {"number": 64, "value": 0}, "group": "control_change"}, {"time": 2858, "annotation": {"number": 64, "value": 127}, "group": "control_change"}, {"time": 2899, "annotation": {"number": 64, "value": 0}, "group": "control_change"}, {"time": 2905, "annotation": {"number": 64, "value": 127}, "group": "control_change"}, {"time": 2947, "annotation": {"number": 64, "value": 0}, "group": "control_change"}, {"time": 2952, "annotation": {"number": 64, "value": 127}, "group": "control_change"}, {"time": 2993, "annotation": {"number": 64, "value": 0}, "group": "control_change"}, {"time": 2998, "annotation": {"number": 64, "value": 127}, "group": "control_change"}, {"time": 3033, "annotation": {"number": 64, "value": 0}, "group": "control_change"}, {"time": 3036, "annotation": {"number": 64, "value": 127}, "group": "control_change"}, {"time": 3042, "annotation": {"number": 64, "value": 0}, "group": "control_change"}, {"time": 3046, "annotation": {"number": 64, "value": 127}, "group": "control_change"}, {"time": 3090, "annotation": {"number": 64, "value": 0}, "group": "control_change"}, {"time": 3096, "annotation": {"number": 64, "value": 127}, "group": "control_change"}, {"time": 3117, "annotation": {"number": 64, "value": 0}, "group": "control_change"}, {"time": 3124, "annotation": {"number": 64, "value": 127}, "group": "control_change"}, {"time": 3127, "annotation": {"number": 64, "value": 0}, "group": "control_change"}, {"time": 3129, "annotation": {"number": 64, "value": 127}, "group": "control_change"}, {"time": 3139, "annotation": {"number": 64, "value": 0}, "group": "control_change"}, {"time": 3148, "annotation": {"number": 64, "value": 127}, "group": "control_change"}, {"time": 3187, "annotation": {"number": 64, "value": 0}, "group": "control_change"}, {"time": 3193, "annotation": {"number": 64, "value": 127}, "group": "control_change"}, {"time": 3233, "annotation": {"number": 64, "value": 0}, "group": "control_change"}, {"time": 3237, "annotation": {"number": 64, "value": 127}, "group": "control_change"}, {"time": 3283, "annotation": {"number": 64, "value": 0}, "group": "control_change"}, {"time": 3287, "annotation": {"number": 64, "value": 127}, "group": "control_change"}, {"time": 3328, "annotation": {"number": 64, "value": 0}, "group": "control_change"}, {"time": 3332, "annotation": {"number": 64, "value": 127}, "group": "control_change"}, {"time": 3380, "annotation": {"number": 64, "value": 0}, "group": "control_change"}, {"time": 3384, "annotation": {"number": 64, "value": 127}, "group": "control_change"}, {"time": 3427, "annotation": {"number": 64, "value": 0}, "group": "control_change"}, {"time": 3432, "annotation": {"number": 64, "value": 127}, "group": "control_change"}, {"time": 3520, "annotation": {"number": 64, "value": 127}, "group": "control_change"}, {"time": 3522, "annotation": {"number": 64, "value": 0}, "group": "control_change"}, {"time": 3615, "annotation": {"number": 64, "value": 0}, "group": "control_change"}, {"time": 3620, "annotation": {"number": 64, "value": 127}, "group": "control_change"}, {"time": 3713, "annotation": {"number": 64, "value": 0}, "group": "control_change"}, {"time": 3718, "annotation": {"number": 64, "value": 127}, "group": "control_change"}, {"time": 3808, "annotation": {"number": 64, "value": 0}, "group": "control_change"}, {"time": 3813, "annotation": {"number": 64, "value": 127}, "group": "control_change"}, {"time": 3855, "annotation": {"number": 64, "value": 0}, "group": "control_change"}, {"time": 3860, "annotation": {"number": 64, "value": 127}, "group": "control_change"}, {"time": 3905, "annotation": {"number": 64, "value": 0}, "group": "control_change"}, {"time": 3910, "annotation": {"number": 64, "value": 127}, "group": "control_change"}, {"time": 3954, "annotation": {"number": 64, "value": 0}, "group": "control_change"}, {"time": 3962, "annotation": {"number": 64, "value": 127}, "group": "control_change"}, {"time": 4001, "annotation": {"number": 64, "value": 0}, "group": "control_change"}, {"time": 4012, "annotation": {"number": 64, "value": 127}, "group": "control_change"}, {"time": 4051, "annotation": {"number": 64, "value": 0}, "group": "control_change"}, {"time": 4057, "annotation": {"number": 64, "value": 127}, "group": "control_change"}, {"time": 4098, "annotation": {"number": 64, "value": 0}, "group": "control_change"}, {"time": 4108, "annotation": {"number": 64, "value": 127}, "group": "control_change"}, {"time": 4144, "annotation": {"number": 64, "value": 0}, "group": "control_change"}, {"time": 4159, "annotation": {"number": 64, "value": 127}, "group": "control_change"}, {"time": 4193, "annotation": {"number": 64, "value": 0}, "group": "control_change"}, {"time": 4201, "annotation": {"number": 64, "value": 127}, "group": "control_change"}, {"time": 4242, "annotation": {"number": 64, "value": 0}, "group": "control_change"}, {"time": 4249, "annotation": {"number": 64, "value": 127}, "group": "control_change"}, {"time": 4263, "annotation": {"number": 64, "value": 0}, "group": "control_change"}, {"time": 4267, "annotation": {"number": 64, "value": 127}, "group": "control_change"}, {"time": 4290, "annotation": {"number": 64, "value": 0}, "group": "control_change"}, {"time": 4295, "annotation": {"number": 64, "value": 127}, "group": "control_change"}, {"time": 4336, "annotation": {"number": 64, "value": 0}, "group": "control_change"}, {"time": 4351, "annotation": {"number": 64, "value": 127}, "group": "control_change"}, {"time": 4385, "annotation": {"number": 64, "value": 0}, "group": "control_change"}, {"time": 4391, "annotation": {"number": 64, "value": 127}, "group": "control_change"}, {"time": 4433, "annotation": {"number": 64, "value": 0}, "group": "control_change"}, {"time": 4438, "annotation": {"number": 64, "value": 127}, "group": "control_change"}, {"time": 4481, "annotation": {"number": 64, "value": 0}, "group": "control_change"}, {"time": 4492, "annotation": {"number": 64, "value": 127}, "group": "control_change"}, {"time": 4528, "annotation": {"number": 64, "value": 0}, "group": "control_change"}, {"time": 4537, "annotation": {"number": 64, "value": 127}, "group": "control_change"}, {"time": 4578, "annotation": {"number": 64, "value": 0}, "group": "control_change"}, {"time": 4585, "annotation": {"number": 64, "value": 127}, "group": "control_change"}, {"time": 4625, "annotation": {"number": 64, "value": 0}, "group": "control_change"}, {"time": 4629, "annotation": {"number": 64, "value": 127}, "group": "control_change"}, {"time": 4671, "annotation": {"number": 64, "value": 0}, "group": "control_change"}, {"time": 4681, "annotation": {"number": 64, "value": 127}, "group": "control_change"}, {"time": 4721, "annotation": {"number": 64, "value": 0}, "group": "control_change"}, {"time": 4730, "annotation": {"number": 64, "value": 127}, "group": "control_change"}, {"time": 4767, "annotation": {"number": 64, "value": 0}, "group": "control_change"}, {"time": 4774, "annotation": {"number": 64, "value": 127}, "group": "control_change"}, {"time": 4818, "annotation": {"number": 64, "value": 0}, "group": "control_change"}, {"time": 4823, "annotation": {"number": 64, "value": 127}, "group": "control_change"}, {"time": 4865, "annotation": {"number": 64, "value": 0}, "group": "control_change"}, {"time": 4868, "annotation": {"number": 64, "value": 127}, "group": "control_change"}, {"time": 4914, "annotation": {"number": 64, "value": 0}, "group": "control_change"}, {"time": 4919, "annotation": {"number": 64, "value": 127}, "group": "control_change"}, {"time": 4961, "annotation": {"number": 64, "value": 0}, "group": "control_change"}, {"time": 4963, "annotation": {"number": 64, "value": 127}, "group": "control_change"}, {"time": 5011, "annotation": {"number": 64, "value": 0}, "group": "control_change"}, {"time": 5017, "annotation": {"number": 64, "value": 127}, "group": "control_change"}, {"time": 5056, "annotation": {"number": 64, "value": 0}, "group": "control_change"}, {"time": 5062, "annotation": {"number": 64, "value": 127}, "group": "control_change"}, {"time": 5106, "annotation": {"number": 64, "value": 0}, "group": "control_change"}, {"time": 5114, "annotation": {"number": 64, "value": 127}, "group": "control_change"}, {"time": 5153, "annotation": {"number": 64, "value": 0}, "group": "control_change"}, {"time": 5164, "annotation": {"number": 64, "value": 127}, "group": "control_change"}, {"time": 5203, "annotation": {"number": 64, "value": 0}, "group": "control_change"}, {"time": 5209, "annotation": {"number": 64, "value": 127}, "group": "control_change"}, {"time": 5250, "annotation": {"number": 64, "value": 0}, "group": "control_change"}, {"time": 5260, "annotation": {"number": 64, "value": 127}, "group": "control_change"}, {"time": 5296, "annotation": {"number": 64, "value": 0}, "group": "control_change"}, {"time": 5311, "annotation": {"number": 64, "value": 127}, "group": "control_change"}, {"time": 5345, "annotation": {"number": 64, "value": 0}, "group": "control_change"}, {"time": 5353, "annotation": {"number": 64, "value": 127}, "group": "control_change"}, {"time": 5394, "annotation": {"number": 64, "value": 0}, "group": "control_change"}, {"time": 5401, "annotation": {"number": 64, "value": 127}, "group": "control_change"}, {"time": 5415, "annotation": {"number": 64, "value": 0}, "group": "control_change"}, {"time": 5419, "annotation": {"number": 64, "value": 127}, "group": "control_change"}, {"time": 5442, "annotation": {"number": 64, "value": 0}, "group": "control_change"}, {"time": 5447, "annotation": {"number": 64, "value": 127}, "group": "control_change"}, {"time": 5488, "annotation": {"number": 64, "value": 0}, "group": "control_change"}, {"time": 5503, "annotation": {"number": 64, "value": 127}, "group": "control_change"}, {"time": 5537, "annotation": {"number": 64, "value": 0}, "group": "control_change"}, {"time": 5543, "annotation": {"number": 64, "value": 127}, "group": "control_change"}, {"time": 5585, "annotation": {"number": 64, "value": 0}, "group": "control_change"}, {"time": 5590, "annotation": {"number": 64, "value": 127}, "group": "control_change"}, {"time": 5633, "annotation": {"number": 64, "value": 0}, "group": "control_change"}, {"time": 5644, "annotation": {"number": 64, "value": 127}, "group": "control_change"}, {"time": 5680, "annotation": {"number": 64, "value": 0}, "group": "control_change"}, {"time": 5689, "annotation": {"number": 64, "value": 127}, "group": "control_change"}, {"time": 5730, "annotation": {"number": 64, "value": 0}, "group": "control_change"}, {"time": 5737, "annotation": {"number": 64, "value": 127}, "group": "control_change"}, {"time": 5777, "annotation": {"number": 64, "value": 0}, "group": "control_change"}, {"time": 5781, "annotation": {"number": 64, "value": 127}, "group": "control_change"}, {"time": 5823, "annotation": {"number": 64, "value": 0}, "group": "control_change"}, {"time": 5833, "annotation": {"number": 64, "value": 127}, "group": "control_change"}, {"time": 5873, "annotation": {"number": 64, "value": 0}, "group": "control_change"}, {"time": 5882, "annotation": {"number": 64, "value": 127}, "group": "control_change"}, {"time": 5919, "annotation": {"number": 64, "value": 0}, "group": "control_change"}, {"time": 5926, "annotation": {"number": 64, "value": 127}, "group": "control_change"}, {"time": 5970, "annotation": {"number": 64, "value": 0}, "group": "control_change"}, {"time": 5975, "annotation": {"number": 64, "value": 127}, "group": "control_change"}, {"time": 6017, "annotation": {"number": 64, "value": 0}, "group": "control_change"}, {"time": 6020, "annotation": {"number": 64, "value": 127}, "group": "control_change"}, {"time": 6066, "annotation": {"number": 64, "value": 0}, "group": "control_change"}, {"time": 6071, "annotation": {"number": 64, "value": 127}, "group": "control_change"}, {"time": 6113, "annotation": {"number": 64, "value": 0}, "group": "control_change"}, {"time": 6114, "annotation": {"number": 64, "value": 127}, "group": "control_change"}, {"time": 6161, "annotation": {"number": 64, "value": 0}, "group": "control_change"}, {"time": 6169, "annotation": {"number": 64, "value": 127}, "group": "control_change"}, {"time": 6209, "annotation": {"number": 64, "value": 0}, "group": "control_change"}, {"time": 6218, "annotation": {"number": 64, "value": 127}, "group": "control_change"}, {"time": 6257, "annotation": {"number": 64, "value": 0}, "group": "control_change"}, {"time": 6264, "annotation": {"number": 64, "value": 127}, "group": "control_change"}, {"time": 6303, "annotation": {"number": 64, "value": 0}, "group": "control_change"}, {"time": 6309, "annotation": {"number": 64, "value": 127}, "group": "control_change"}, {"time": 6353, "annotation": {"number": 64, "value": 0}, "group": "control_change"}, {"time": 6361, "annotation": {"number": 64, "value": 127}, "group": "control_change"}, {"time": 6401, "annotation": {"number": 64, "value": 0}, "group": "control_change"}, {"time": 6410, "annotation": {"number": 64, "value": 127}, "group": "control_change"}, {"time": 6448, "annotation": {"number": 64, "value": 0}, "group": "control_change"}, {"time": 6458, "annotation": {"number": 64, "value": 127}, "group": "control_change"}, {"time": 6495, "annotation": {"number": 64, "value": 0}, "group": "control_change"}, {"time": 6506, "annotation": {"number": 64, "value": 127}, "group": "control_change"}, {"time": 6541, "annotation": {"number": 64, "value": 0}, "group": "control_change"}, {"time": 6550, "annotation": {"number": 64, "value": 127}, "group": "control_change"}, {"time": 6568, "annotation": {"number": 64, "value": 0}, "group": "control_change"}, {"time": 6581, "annotation": {"number": 64, "value": 127}, "group": "control_change"}, {"time": 6591, "annotation": {"number": 64, "value": 0}, "group": "control_change"}]}]}