{"metadata": {"schema_version": "0.2", "title": "None", "source_filename": "237.mid", "source_format": "midi"}, "resolution": 12, "tempos": [{"time": 0, "qpm": 45.99999386666749}, {"time": 29, "qpm": 36.00001440000576}, {"time": 41, "qpm": 45.99999386666749}, {"time": 65, "qpm": 80.99997165000993}, {"time": 89, "qpm": 65.99999340000066}, {"time": 101, "qpm": 52.000006933334255}, {"time": 113, "qpm": 36.99999136666868}, {"time": 125, "qpm": 61.99999586666694}, {"time": 149, "qpm": 44.000011733336464}, {"time": 161, "qpm": 57.000031350017245}, {"time": 173, "qpm": 59.00006686674245}, {"time": 185, "qpm": 71.00011951686785}, {"time": 197, "qpm": 75.0}, {"time": 209, "qpm": 45.99999386666749}, {"time": 221, "qpm": 40.99998975000256}, {"time": 233, "qpm": 75.99996960001216}, {"time": 257, "qpm": 60.99997255001235}, {"time": 281, "qpm": 54.00000540000054}, {"time": 293, "qpm": 75.99996960001216}, {"time": 305, "qpm": 80.0}, {"time": 329, "qpm": 73.99998273333736}, {"time": 353, "qpm": 72.00011520018433}, {"time": 365, "qpm": 73.00007178340392}, {"time": 377, "qpm": 80.99997165000993}, {"time": 389, "qpm": 78.000078000078}, {"time": 401, "qpm": 71.00011951686785}, {"time": 413, "qpm": 68.0000725334107}, {"time": 425, "qpm": 80.0}, {"time": 437, "qpm": 86.00005160003096}, {"time": 449, "qpm": 71.00011951686785}, {"time": 485, "qpm": 77.000077000077}, {"time": 533, "qpm": 73.99998273333736}, {"time": 545, "qpm": 75.99996960001216}, {"time": 569, "qpm": 75.0}, {"time": 581, "qpm": 78.000078000078}, {"time": 593, "qpm": 73.00007178340392}, {"time": 617, "qpm": 75.0}, {"time": 665, "qpm": 78.000078000078}, {"time": 677, "qpm": 80.0}, {"time": 689, "qpm": 67.00002903334591}, {"time": 701, "qpm": 77.000077000077}, {"time": 713, "qpm": 75.0}, {"time": 773, "qpm": 75.99996960001216}, {"time": 833, "qpm": 73.00007178340392}, {"time": 845, "qpm": 75.0}, {"time": 857, "qpm": 72.00011520018433}, {"time": 881, "qpm": 75.0}, {"time": 941, "qpm": 75.99996960001216}, {"time": 1037, "qpm": 73.99998273333736}, {"time": 1049, "qpm": 72.00011520018433}, {"time": 1061, "qpm": 73.99998273333736}, {"time": 1097, "qpm": 73.00007178340392}, {"time": 1121, "qpm": 80.0}, {"time": 1133, "qpm": 75.99996960001216}, {"time": 1157, "qpm": 75.0}, {"time": 1721, "qpm": 73.99998273333736}, {"time": 1745, "qpm": 75.0}, {"time": 1889, "qpm": 78.000078000078}, {"time": 1901, "qpm": 75.0}, {"time": 1925, "qpm": 73.00007178340392}, {"time": 1961, "qpm": 75.99996960001216}, {"time": 2033, "qpm": 73.99998273333736}, {"time": 2081, "qpm": 78.000078000078}, {"time": 2093, "qpm": 75.0}, {"time": 3041, "qpm": 73.99998273333736}, {"time": 3089, "qpm": 75.0}, {"time": 3125, "qpm": 71.00011951686785}, {"time": 3149, "qpm": 73.00007178340392}, {"time": 3161, "qpm": 75.99996960001216}, {"time": 3185, "qpm": 71.00011951686785}, {"time": 3197, "qpm": 73.99998273333736}, {"time": 3377, "qpm": 75.0}, {"time": 3449, "qpm": 73.00007178340392}, {"time": 3749, "qpm": 50.99998215000625}, {"time": 3761, "qpm": 73.00007178340392}, {"time": 3785, "qpm": 62.99999685000016}, {"time": 3821, "qpm": 57.000031350017245}, {"time": 3833, "qpm": 61.99999586666694}, {"time": 3845, "qpm": 60.0}, {"time": 3857, "qpm": 55.99997760000896}, {"time": 3869, "qpm": 59.00006686674245}, {"time": 3881, "qpm": 52.000006933334255}], "time_signatures": [{"time": 0, "numerator": 4, "denominator": 4}], "tracks": [{"program": 0, "is_drum": false, "name": "MELODY", "notes": [{"time": 299, "pitch": 75, "duration": 5, "velocity": 95}, {"time": 305, "pitch": 83, "duration": 20, "velocity": 95}, {"time": 323, "pitch": 75, "duration": 5, "velocity": 86}, {"time": 329, "pitch": 82, "duration": 17, "velocity": 94}, {"time": 347, "pitch": 78, "duration": 5, "velocity": 84}, {"time": 353, "pitch": 80, "duration": 5, "velocity": 91}, {"time": 359, "pitch": 78, "duration": 5, "velocity": 93}, {"time": 365, "pitch": 76, "duration": 5, "velocity": 91}, {"time": 371, "pitch": 78, "duration": 29, "velocity": 95}, {"time": 401, "pitch": 76, "duration": 5, "velocity": 95}, {"time": 407, "pitch": 75, "duration": 5, "velocity": 95}, {"time": 413, "pitch": 76, "duration": 5, "velocity": 90}, {"time": 419, "pitch": 80, "duration": 23, "velocity": 98}, {"time": 443, "pitch": 78, "duration": 5, "velocity": 86}, {"time": 449, "pitch": 75, "duration": 38, "velocity": 95}, {"time": 488, "pitch": 75, "duration": 8, "velocity": 91}, {"time": 497, "pitch": 83, "duration": 17, "velocity": 95}, {"time": 515, "pitch": 75, "duration": 5, "velocity": 95}, {"time": 521, "pitch": 82, "duration": 17, "velocity": 98}, {"time": 539, "pitch": 78, "duration": 5, "velocity": 90}, {"time": 545, "pitch": 80, "duration": 5, "velocity": 91}, {"time": 551, "pitch": 78, "duration": 5, "velocity": 90}, {"time": 557, "pitch": 76, "duration": 2, "velocity": 98}, {"time": 560, "pitch": 78, "duration": 2, "velocity": 75}, {"time": 563, "pitch": 78, "duration": 29, "velocity": 93}, {"time": 593, "pitch": 80, "duration": 5, "velocity": 84}, {"time": 599, "pitch": 80, "duration": 5, "velocity": 95}, {"time": 605, "pitch": 80, "duration": 5, "velocity": 98}, {"time": 611, "pitch": 79, "duration": 17, "velocity": 101}, {"time": 629, "pitch": 80, "duration": 8, "velocity": 94}, {"time": 638, "pitch": 80, "duration": 38, "velocity": 84}, {"time": 677, "pitch": 71, "duration": 5, "velocity": 98}, {"time": 683, "pitch": 73, "duration": 5, "velocity": 94}, {"time": 689, "pitch": 75, "duration": 5, "velocity": 95}, {"time": 695, "pitch": 75, "duration": 5, "velocity": 98}, {"time": 701, "pitch": 75, "duration": 5, "velocity": 104}, {"time": 707, "pitch": 75, "duration": 17, "velocity": 103}, {"time": 725, "pitch": 73, "duration": 5, "velocity": 94}, {"time": 734, "pitch": 73, "duration": 41, "velocity": 95}, {"time": 773, "pitch": 73, "duration": 2, "velocity": 93}, {"time": 779, "pitch": 75, "duration": 5, "velocity": 90}, {"time": 785, "pitch": 76, "duration": 5, "velocity": 98}, {"time": 791, "pitch": 76, "duration": 5, "velocity": 100}, {"time": 797, "pitch": 76, "duration": 5, "velocity": 101}, {"time": 803, "pitch": 76, "duration": 11, "velocity": 100}, {"time": 815, "pitch": 75, "duration": 5, "velocity": 90}, {"time": 821, "pitch": 71, "duration": 5, "velocity": 90}, {"time": 827, "pitch": 75, "duration": 47, "velocity": 84}, {"time": 875, "pitch": 71, "duration": 2, "velocity": 90}, {"time": 878, "pitch": 71, "duration": 2, "velocity": 90}, {"time": 881, "pitch": 80, "duration": 5, "velocity": 94}, {"time": 887, "pitch": 80, "duration": 5, "velocity": 91}, {"time": 893, "pitch": 80, "duration": 5, "velocity": 95}, {"time": 899, "pitch": 80, "duration": 11, "velocity": 94}, {"time": 911, "pitch": 78, "duration": 5, "velocity": 84}, {"time": 917, "pitch": 76, "duration": 5, "velocity": 91}, {"time": 923, "pitch": 78, "duration": 11, "velocity": 84}, {"time": 935, "pitch": 78, "duration": 5, "velocity": 86}, {"time": 941, "pitch": 76, "duration": 5, "velocity": 98}, {"time": 947, "pitch": 75, "duration": 29, "velocity": 95}, {"time": 977, "pitch": 73, "duration": 5, "velocity": 98}, {"time": 983, "pitch": 73, "duration": 5, "velocity": 95}, {"time": 989, "pitch": 73, "duration": 5, "velocity": 90}, {"time": 995, "pitch": 73, "duration": 11, "velocity": 98}, {"time": 1007, "pitch": 75, "duration": 5, "velocity": 98}, {"time": 1013, "pitch": 76, "duration": 8, "velocity": 94}, {"time": 1022, "pitch": 75, "duration": 38, "velocity": 95}, {"time": 1061, "pitch": 71, "duration": 5, "velocity": 106}, {"time": 1067, "pitch": 73, "duration": 5, "velocity": 95}, {"time": 1073, "pitch": 75, "duration": 5, "velocity": 91}, {"time": 1079, "pitch": 75, "duration": 5, "velocity": 104}, {"time": 1085, "pitch": 75, "duration": 5, "velocity": 104}, {"time": 1091, "pitch": 75, "duration": 11, "velocity": 108}, {"time": 1103, "pitch": 76, "duration": 5, "velocity": 95}, {"time": 1109, "pitch": 78, "duration": 5, "velocity": 84}, {"time": 1115, "pitch": 75, "duration": 5, "velocity": 101}, {"time": 1121, "pitch": 73, "duration": 35, "velocity": 95}, {"time": 1157, "pitch": 73, "duration": 5, "velocity": 84}, {"time": 1163, "pitch": 75, "duration": 5, "velocity": 98}, {"time": 1169, "pitch": 76, "duration": 5, "velocity": 101}, {"time": 1175, "pitch": 76, "duration": 5, "velocity": 100}, {"time": 1181, "pitch": 76, "duration": 5, "velocity": 101}, {"time": 1187, "pitch": 80, "duration": 11, "velocity": 106}, {"time": 1199, "pitch": 82, "duration": 5, "velocity": 90}, {"time": 1205, "pitch": 83, "duration": 5, "velocity": 84}, {"time": 1211, "pitch": 82, "duration": 5, "velocity": 94}, {"time": 1217, "pitch": 80, "duration": 41, "velocity": 91}, {"time": 1259, "pitch": 80, "duration": 2, "velocity": 80}, {"time": 1262, "pitch": 82, "duration": 2, "velocity": 82}, {"time": 1265, "pitch": 83, "duration": 5, "velocity": 84}, {"time": 1271, "pitch": 83, "duration": 5, "velocity": 83}, {"time": 1277, "pitch": 83, "duration": 5, "velocity": 82}, {"time": 1283, "pitch": 83, "duration": 11, "velocity": 84}, {"time": 1295, "pitch": 82, "duration": 5, "velocity": 84}, {"time": 1301, "pitch": 80, "duration": 5, "velocity": 84}, {"time": 1307, "pitch": 78, "duration": 11, "velocity": 78}, {"time": 1319, "pitch": 78, "duration": 5, "velocity": 80}, {"time": 1325, "pitch": 76, "duration": 5, "velocity": 84}, {"time": 1331, "pitch": 75, "duration": 26, "velocity": 82}, {"time": 1358, "pitch": 71, "duration": 2, "velocity": 79}, {"time": 1361, "pitch": 80, "duration": 5, "velocity": 84}, {"time": 1367, "pitch": 80, "duration": 5, "velocity": 78}, {"time": 1373, "pitch": 80, "duration": 5, "velocity": 80}, {"time": 1379, "pitch": 80, "duration": 11, "velocity": 82}, {"time": 1391, "pitch": 82, "duration": 5, "velocity": 84}, {"time": 1397, "pitch": 83, "duration": 5, "velocity": 86}, {"time": 1403, "pitch": 82, "duration": 53, "velocity": 90}, {"time": 1931, "pitch": 75, "duration": 5, "velocity": 95}, {"time": 1937, "pitch": 83, "duration": 20, "velocity": 95}, {"time": 1955, "pitch": 75, "duration": 5, "velocity": 86}, {"time": 1961, "pitch": 82, "duration": 17, "velocity": 94}, {"time": 1979, "pitch": 78, "duration": 5, "velocity": 84}, {"time": 1985, "pitch": 80, "duration": 5, "velocity": 91}, {"time": 1991, "pitch": 78, "duration": 5, "velocity": 93}, {"time": 1997, "pitch": 76, "duration": 5, "velocity": 91}, {"time": 2006, "pitch": 78, "duration": 29, "velocity": 95}, {"time": 2033, "pitch": 76, "duration": 5, "velocity": 95}, {"time": 2039, "pitch": 75, "duration": 5, "velocity": 95}, {"time": 2045, "pitch": 76, "duration": 5, "velocity": 90}, {"time": 2051, "pitch": 80, "duration": 23, "velocity": 98}, {"time": 2069, "pitch": 78, "duration": 5, "velocity": 86}, {"time": 2075, "pitch": 75, "duration": 38, "velocity": 95}, {"time": 2123, "pitch": 75, "duration": 8, "velocity": 91}, {"time": 2129, "pitch": 83, "duration": 17, "velocity": 95}, {"time": 2147, "pitch": 85, "duration": 5, "velocity": 95}, {"time": 2153, "pitch": 82, "duration": 17, "velocity": 98}, {"time": 2171, "pitch": 78, "duration": 5, "velocity": 90}, {"time": 2177, "pitch": 80, "duration": 5, "velocity": 91}, {"time": 2183, "pitch": 78, "duration": 5, "velocity": 90}, {"time": 2189, "pitch": 76, "duration": 2, "velocity": 98}, {"time": 2192, "pitch": 78, "duration": 2, "velocity": 75}, {"time": 2195, "pitch": 78, "duration": 29, "velocity": 93}, {"time": 2225, "pitch": 80, "duration": 5, "velocity": 84}, {"time": 2231, "pitch": 80, "duration": 5, "velocity": 95}, {"time": 2237, "pitch": 80, "duration": 5, "velocity": 98}, {"time": 2243, "pitch": 79, "duration": 17, "velocity": 101}, {"time": 2261, "pitch": 80, "duration": 8, "velocity": 94}, {"time": 2267, "pitch": 80, "duration": 2, "velocity": 84}, {"time": 2309, "pitch": 71, "duration": 5, "velocity": 98}, {"time": 2315, "pitch": 73, "duration": 5, "velocity": 94}, {"time": 2321, "pitch": 75, "duration": 5, "velocity": 95}, {"time": 2327, "pitch": 75, "duration": 5, "velocity": 98}, {"time": 2333, "pitch": 75, "duration": 5, "velocity": 104}, {"time": 2339, "pitch": 75, "duration": 17, "velocity": 103}, {"time": 2357, "pitch": 73, "duration": 5, "velocity": 94}, {"time": 2366, "pitch": 73, "duration": 41, "velocity": 95}, {"time": 2405, "pitch": 73, "duration": 2, "velocity": 93}, {"time": 2411, "pitch": 75, "duration": 5, "velocity": 90}, {"time": 2417, "pitch": 76, "duration": 5, "velocity": 98}, {"time": 2423, "pitch": 76, "duration": 5, "velocity": 100}, {"time": 2429, "pitch": 76, "duration": 5, "velocity": 101}, {"time": 2435, "pitch": 76, "duration": 11, "velocity": 100}, {"time": 2447, "pitch": 75, "duration": 5, "velocity": 90}, {"time": 2453, "pitch": 73, "duration": 5, "velocity": 90}, {"time": 2459, "pitch": 75, "duration": 47, "velocity": 84}, {"time": 2507, "pitch": 71, "duration": 2, "velocity": 90}, {"time": 2510, "pitch": 71, "duration": 2, "velocity": 90}, {"time": 2513, "pitch": 80, "duration": 5, "velocity": 94}, {"time": 2519, "pitch": 80, "duration": 5, "velocity": 91}, {"time": 2525, "pitch": 80, "duration": 5, "velocity": 95}, {"time": 2531, "pitch": 80, "duration": 11, "velocity": 94}, {"time": 2543, "pitch": 78, "duration": 5, "velocity": 84}, {"time": 2549, "pitch": 76, "duration": 5, "velocity": 91}, {"time": 2555, "pitch": 78, "duration": 11, "velocity": 84}, {"time": 2567, "pitch": 78, "duration": 5, "velocity": 86}, {"time": 2573, "pitch": 76, "duration": 5, "velocity": 98}, {"time": 2579, "pitch": 75, "duration": 29, "velocity": 95}, {"time": 2609, "pitch": 73, "duration": 5, "velocity": 98}, {"time": 2615, "pitch": 73, "duration": 5, "velocity": 95}, {"time": 2621, "pitch": 73, "duration": 5, "velocity": 90}, {"time": 2627, "pitch": 73, "duration": 11, "velocity": 98}, {"time": 2639, "pitch": 75, "duration": 5, "velocity": 98}, {"time": 2645, "pitch": 76, "duration": 8, "velocity": 94}, {"time": 2654, "pitch": 75, "duration": 38, "velocity": 95}, {"time": 2693, "pitch": 71, "duration": 5, "velocity": 106}, {"time": 2699, "pitch": 73, "duration": 5, "velocity": 95}, {"time": 2705, "pitch": 75, "duration": 5, "velocity": 91}, {"time": 2711, "pitch": 75, "duration": 5, "velocity": 104}, {"time": 2717, "pitch": 75, "duration": 5, "velocity": 104}, {"time": 2723, "pitch": 75, "duration": 11, "velocity": 108}, {"time": 2735, "pitch": 76, "duration": 5, "velocity": 95}, {"time": 2741, "pitch": 78, "duration": 5, "velocity": 84}, {"time": 2747, "pitch": 75, "duration": 5, "velocity": 101}, {"time": 2753, "pitch": 73, "duration": 35, "velocity": 95}, {"time": 2789, "pitch": 73, "duration": 5, "velocity": 84}, {"time": 2795, "pitch": 75, "duration": 5, "velocity": 98}, {"time": 2801, "pitch": 76, "duration": 5, "velocity": 101}, {"time": 2807, "pitch": 76, "duration": 5, "velocity": 100}, {"time": 2813, "pitch": 76, "duration": 5, "velocity": 101}, {"time": 2819, "pitch": 80, "duration": 11, "velocity": 106}, {"time": 2831, "pitch": 82, "duration": 5, "velocity": 90}, {"time": 2837, "pitch": 83, "duration": 5, "velocity": 84}, {"time": 2843, "pitch": 82, "duration": 5, "velocity": 94}, {"time": 2849, "pitch": 80, "duration": 41, "velocity": 91}, {"time": 2891, "pitch": 80, "duration": 2, "velocity": 80}, {"time": 2894, "pitch": 82, "duration": 2, "velocity": 82}, {"time": 2897, "pitch": 83, "duration": 5, "velocity": 84}, {"time": 2903, "pitch": 83, "duration": 5, "velocity": 83}, {"time": 2909, "pitch": 83, "duration": 5, "velocity": 82}, {"time": 2915, "pitch": 83, "duration": 11, "velocity": 84}, {"time": 2927, "pitch": 82, "duration": 5, "velocity": 84}, {"time": 2933, "pitch": 80, "duration": 5, "velocity": 84}, {"time": 2939, "pitch": 78, "duration": 11, "velocity": 78}, {"time": 2951, "pitch": 78, "duration": 5, "velocity": 80}, {"time": 2957, "pitch": 76, "duration": 5, "velocity": 84}, {"time": 2963, "pitch": 75, "duration": 26, "velocity": 82}, {"time": 2990, "pitch": 71, "duration": 2, "velocity": 79}, {"time": 2993, "pitch": 80, "duration": 5, "velocity": 84}, {"time": 2999, "pitch": 80, "duration": 5, "velocity": 78}, {"time": 3005, "pitch": 80, "duration": 5, "velocity": 80}, {"time": 3011, "pitch": 80, "duration": 11, "velocity": 82}, {"time": 3023, "pitch": 82, "duration": 5, "velocity": 84}, {"time": 3029, "pitch": 83, "duration": 5, "velocity": 86}, {"time": 3035, "pitch": 82, "duration": 53, "velocity": 90}, {"time": 3077, "pitch": 75, "duration": 5, "velocity": 90}, {"time": 3083, "pitch": 76, "duration": 5, "velocity": 86}, {"time": 3089, "pitch": 78, "duration": 4, "velocity": 91}, {"time": 3095, "pitch": 78, "duration": 4, "velocity": 84}, {"time": 3101, "pitch": 78, "duration": 4, "velocity": 91}, {"time": 3107, "pitch": 78, "duration": 9, "velocity": 93}, {"time": 3119, "pitch": 76, "duration": 4, "velocity": 91}, {"time": 3125, "pitch": 75, "duration": 4, "velocity": 86}, {"time": 3131, "pitch": 80, "duration": 6, "velocity": 90}, {"time": 3137, "pitch": 78, "duration": 14, "velocity": 84}, {"time": 3173, "pitch": 75, "duration": 7, "velocity": 94}, {"time": 3179, "pitch": 78, "duration": 5, "velocity": 83}, {"time": 3185, "pitch": 80, "duration": 4, "velocity": 90}, {"time": 3191, "pitch": 80, "duration": 4, "velocity": 95}, {"time": 3197, "pitch": 80, "duration": 4, "velocity": 91}, {"time": 3203, "pitch": 80, "duration": 10, "velocity": 98}, {"time": 3215, "pitch": 82, "duration": 5, "velocity": 90}, {"time": 3221, "pitch": 83, "duration": 9, "velocity": 95}, {"time": 3233, "pitch": 82, "duration": 5, "velocity": 91}, {"time": 3239, "pitch": 80, "duration": 29, "velocity": 94}, {"time": 3275, "pitch": 80, "duration": 3, "velocity": 82}, {"time": 3278, "pitch": 82, "duration": 2, "velocity": 82}, {"time": 3281, "pitch": 83, "duration": 3, "velocity": 83}, {"time": 3287, "pitch": 83, "duration": 3, "velocity": 90}, {"time": 3293, "pitch": 83, "duration": 3, "velocity": 86}, {"time": 3299, "pitch": 83, "duration": 10, "velocity": 91}, {"time": 3311, "pitch": 82, "duration": 4, "velocity": 90}, {"time": 3317, "pitch": 80, "duration": 5, "velocity": 84}, {"time": 3323, "pitch": 78, "duration": 15, "velocity": 90}, {"time": 3335, "pitch": 78, "duration": 3, "velocity": 83}, {"time": 3341, "pitch": 80, "duration": 6, "velocity": 90}, {"time": 3347, "pitch": 75, "duration": 25, "velocity": 91}, {"time": 3377, "pitch": 80, "duration": 4, "velocity": 83}, {"time": 3383, "pitch": 80, "duration": 4, "velocity": 90}, {"time": 3389, "pitch": 80, "duration": 3, "velocity": 80}, {"time": 3395, "pitch": 80, "duration": 11, "velocity": 90}, {"time": 3407, "pitch": 82, "duration": 4, "velocity": 91}, {"time": 3413, "pitch": 83, "duration": 3, "velocity": 91}, {"time": 3419, "pitch": 82, "duration": 42, "velocity": 98}, {"time": 3467, "pitch": 75, "duration": 7, "velocity": 69}, {"time": 3473, "pitch": 83, "duration": 19, "velocity": 82}, {"time": 3491, "pitch": 75, "duration": 7, "velocity": 68}, {"time": 3497, "pitch": 82, "duration": 18, "velocity": 84}, {"time": 3515, "pitch": 78, "duration": 5, "velocity": 75}, {"time": 3521, "pitch": 80, "duration": 5, "velocity": 73}, {"time": 3527, "pitch": 78, "duration": 5, "velocity": 73}, {"time": 3533, "pitch": 76, "duration": 3, "velocity": 78}, {"time": 3536, "pitch": 78, "duration": 3, "velocity": 78}, {"time": 3539, "pitch": 78, "duration": 9, "velocity": 73}, {"time": 3569, "pitch": 80, "duration": 4, "velocity": 80}, {"time": 3575, "pitch": 80, "duration": 4, "velocity": 79}, {"time": 3581, "pitch": 80, "duration": 6, "velocity": 80}, {"time": 3587, "pitch": 79, "duration": 16, "velocity": 81}, {"time": 3605, "pitch": 80, "duration": 4, "velocity": 78}, {"time": 3611, "pitch": 80, "duration": 41, "velocity": 73}, {"time": 3665, "pitch": 80, "duration": 4, "velocity": 61}, {"time": 3671, "pitch": 80, "duration": 4, "velocity": 78}, {"time": 3677, "pitch": 80, "duration": 6, "velocity": 78}, {"time": 3683, "pitch": 79, "duration": 33, "velocity": 81}, {"time": 3749, "pitch": 80, "duration": 10, "velocity": 61}, {"time": 3761, "pitch": 80, "duration": 46, "velocity": 60}]}, {"program": 0, "is_drum": false, "name": "PIANO", "notes": [{"time": 4, "pitch": 57, "duration": 10, "velocity": 76}, {"time": 4, "pitch": 54, "duration": 10, "velocity": 71}, {"time": 5, "pitch": 30, "duration": 10, "velocity": 84}, {"time": 5, "pitch": 42, "duration": 10, "velocity": 84}, {"time": 23, "pitch": 57, "duration": 1, "velocity": 84}, {"time": 24, "pitch": 64, "duration": 1, "velocity": 84}, {"time": 26, "pitch": 66, "duration": 1, "velocity": 84}, {"time": 27, "pitch": 71, "duration": 1, "velocity": 84}, {"time": 28, "pitch": 73, "duration": 1, "velocity": 84}, {"time": 29, "pitch": 78, "duration": 1, "velocity": 84}, {"time": 38, "pitch": 78, "duration": 1, "velocity": 84}, {"time": 38, "pitch": 79, "duration": 2, "velocity": 84}, {"time": 39, "pitch": 83, "duration": 2, "velocity": 84}, {"time": 40, "pitch": 86, "duration": 1, "velocity": 84}, {"time": 41, "pitch": 90, "duration": 1, "velocity": 84}, {"time": 89, "pitch": 51, "duration": 6, "velocity": 69}, {"time": 89, "pitch": 58, "duration": 5, "velocity": 76}, {"time": 89, "pitch": 63, "duration": 6, "velocity": 79}, {"time": 89, "pitch": 66, "duration": 6, "velocity": 78}, {"time": 89, "pitch": 70, "duration": 4, "velocity": 84}, {"time": 101, "pitch": 52, "duration": 4, "velocity": 79}, {"time": 101, "pitch": 59, "duration": 4, "velocity": 80}, {"time": 101, "pitch": 64, "duration": 4, "velocity": 83}, {"time": 101, "pitch": 68, "duration": 5, "velocity": 79}, {"time": 101, "pitch": 71, "duration": 4, "velocity": 70}, {"time": 113, "pitch": 39, "duration": 4, "velocity": 90}, {"time": 113, "pitch": 51, "duration": 1, "velocity": 80}, {"time": 113, "pitch": 61, "duration": 4, "velocity": 80}, {"time": 113, "pitch": 66, "duration": 4, "velocity": 82}, {"time": 113, "pitch": 70, "duration": 3, "velocity": 90}, {"time": 116, "pitch": 51, "duration": 1, "velocity": 86}, {"time": 125, "pitch": 37, "duration": 1, "velocity": 90}, {"time": 125, "pitch": 61, "duration": 6, "velocity": 39}, {"time": 125, "pitch": 64, "duration": 7, "velocity": 72}, {"time": 125, "pitch": 68, "duration": 7, "velocity": 78}, {"time": 125, "pitch": 73, "duration": 7, "velocity": 79}, {"time": 131, "pitch": 49, "duration": 11, "velocity": 76}, {"time": 137, "pitch": 56, "duration": 7, "velocity": 71}, {"time": 137, "pitch": 64, "duration": 5, "velocity": 82}, {"time": 137, "pitch": 68, "duration": 6, "velocity": 81}, {"time": 137, "pitch": 73, "duration": 5, "velocity": 73}, {"time": 143, "pitch": 61, "duration": 1, "velocity": 84}, {"time": 149, "pitch": 46, "duration": 5, "velocity": 84}, {"time": 149, "pitch": 61, "duration": 4, "velocity": 79}, {"time": 149, "pitch": 64, "duration": 4, "velocity": 81}, {"time": 149, "pitch": 68, "duration": 4, "velocity": 79}, {"time": 155, "pitch": 58, "duration": 6, "velocity": 78}, {"time": 161, "pitch": 51, "duration": 22, "velocity": 81}, {"time": 161, "pitch": 61, "duration": 5, "velocity": 82}, {"time": 161, "pitch": 67, "duration": 5, "velocity": 76}, {"time": 161, "pitch": 70, "duration": 5, "velocity": 91}, {"time": 167, "pitch": 58, "duration": 6, "velocity": 58}, {"time": 173, "pitch": 63, "duration": 8, "velocity": 61}, {"time": 173, "pitch": 67, "duration": 7, "velocity": 63}, {"time": 173, "pitch": 70, "duration": 3, "velocity": 46}, {"time": 173, "pitch": 74, "duration": 1, "velocity": 49}, {"time": 173, "pitch": 75, "duration": 7, "velocity": 62}, {"time": 179, "pitch": 58, "duration": 3, "velocity": 70}, {"time": 188, "pitch": 63, "duration": 13, "velocity": 55}, {"time": 188, "pitch": 67, "duration": 13, "velocity": 73}, {"time": 191, "pitch": 39, "duration": 1, "velocity": 79}, {"time": 191, "pitch": 75, "duration": 11, "velocity": 72}, {"time": 209, "pitch": 44, "duration": 59, "velocity": 79}, {"time": 209, "pitch": 63, "duration": 7, "velocity": 69}, {"time": 209, "pitch": 66, "duration": 7, "velocity": 76}, {"time": 209, "pitch": 71, "duration": 8, "velocity": 76}, {"time": 215, "pitch": 56, "duration": 52, "velocity": 58}, {"time": 218, "pitch": 70, "duration": 3, "velocity": 83}, {"time": 224, "pitch": 63, "duration": 5, "velocity": 46}, {"time": 224, "pitch": 68, "duration": 6, "velocity": 59}, {"time": 230, "pitch": 71, "duration": 2, "velocity": 73}, {"time": 233, "pitch": 75, "duration": 19, "velocity": 72}, {"time": 245, "pitch": 80, "duration": 23, "velocity": 72}, {"time": 305, "pitch": 56, "duration": 15, "velocity": 60}, {"time": 311, "pitch": 59, "duration": 17, "velocity": 71}, {"time": 317, "pitch": 63, "duration": 12, "velocity": 60}, {"time": 329, "pitch": 54, "duration": 21, "velocity": 62}, {"time": 335, "pitch": 58, "duration": 16, "velocity": 50}, {"time": 341, "pitch": 66, "duration": 14, "velocity": 57}, {"time": 353, "pitch": 52, "duration": 19, "velocity": 71}, {"time": 359, "pitch": 56, "duration": 17, "velocity": 26}, {"time": 365, "pitch": 59, "duration": 10, "velocity": 61}, {"time": 377, "pitch": 51, "duration": 20, "velocity": 63}, {"time": 383, "pitch": 54, "duration": 20, "velocity": 35}, {"time": 389, "pitch": 63, "duration": 16, "velocity": 61}, {"time": 401, "pitch": 49, "duration": 21, "velocity": 71}, {"time": 407, "pitch": 56, "duration": 13, "velocity": 35}, {"time": 413, "pitch": 64, "duration": 11, "velocity": 75}, {"time": 425, "pitch": 54, "duration": 24, "velocity": 60}, {"time": 431, "pitch": 58, "duration": 9, "velocity": 50}, {"time": 437, "pitch": 61, "duration": 11, "velocity": 68}, {"time": 449, "pitch": 47, "duration": 10, "velocity": 70}, {"time": 455, "pitch": 59, "duration": 9, "velocity": 55}, {"time": 461, "pitch": 61, "duration": 5, "velocity": 59}, {"time": 467, "pitch": 63, "duration": 9, "velocity": 68}, {"time": 473, "pitch": 58, "duration": 12, "velocity": 73}, {"time": 473, "pitch": 67, "duration": 19, "velocity": 69}, {"time": 485, "pitch": 51, "duration": 11, "velocity": 78}, {"time": 497, "pitch": 56, "duration": 21, "velocity": 72}, {"time": 497, "pitch": 59, "duration": 17, "velocity": 61}, {"time": 497, "pitch": 63, "duration": 19, "velocity": 72}, {"time": 509, "pitch": 68, "duration": 7, "velocity": 75}, {"time": 521, "pitch": 54, "duration": 18, "velocity": 60}, {"time": 521, "pitch": 58, "duration": 7, "velocity": 67}, {"time": 521, "pitch": 66, "duration": 8, "velocity": 72}, {"time": 533, "pitch": 63, "duration": 5, "velocity": 72}, {"time": 539, "pitch": 70, "duration": 4, "velocity": 79}, {"time": 545, "pitch": 52, "duration": 17, "velocity": 67}, {"time": 545, "pitch": 59, "duration": 14, "velocity": 63}, {"time": 545, "pitch": 64, "duration": 11, "velocity": 73}, {"time": 545, "pitch": 68, "duration": 14, "velocity": 72}, {"time": 557, "pitch": 66, "duration": 5, "velocity": 76}, {"time": 563, "pitch": 64, "duration": 2, "velocity": 72}, {"time": 569, "pitch": 51, "duration": 14, "velocity": 75}, {"time": 569, "pitch": 59, "duration": 9, "velocity": 56}, {"time": 569, "pitch": 63, "duration": 10, "velocity": 60}, {"time": 569, "pitch": 66, "duration": 12, "velocity": 71}, {"time": 581, "pitch": 68, "duration": 2, "velocity": 69}, {"time": 593, "pitch": 49, "duration": 15, "velocity": 73}, {"time": 593, "pitch": 59, "duration": 6, "velocity": 69}, {"time": 593, "pitch": 64, "duration": 6, "velocity": 78}, {"time": 599, "pitch": 56, "duration": 10, "velocity": 60}, {"time": 605, "pitch": 59, "duration": 5, "velocity": 63}, {"time": 611, "pitch": 66, "duration": 1, "velocity": 71}, {"time": 617, "pitch": 51, "duration": 12, "velocity": 76}, {"time": 617, "pitch": 61, "duration": 6, "velocity": 49}, {"time": 617, "pitch": 63, "duration": 2, "velocity": 50}, {"time": 617, "pitch": 67, "duration": 7, "velocity": 68}, {"time": 623, "pitch": 58, "duration": 8, "velocity": 57}, {"time": 629, "pitch": 61, "duration": 2, "velocity": 60}, {"time": 641, "pitch": 56, "duration": 42, "velocity": 72}, {"time": 641, "pitch": 63, "duration": 1, "velocity": 48}, {"time": 647, "pitch": 63, "duration": 13, "velocity": 71}, {"time": 653, "pitch": 68, "duration": 6, "velocity": 80}, {"time": 659, "pitch": 73, "duration": 4, "velocity": 80}, {"time": 662, "pitch": 63, "duration": 17, "velocity": 49}, {"time": 662, "pitch": 68, "duration": 15, "velocity": 69}, {"time": 665, "pitch": 75, "duration": 16, "velocity": 80}, {"time": 677, "pitch": 68, "duration": 1, "velocity": 83}, {"time": 689, "pitch": 47, "duration": 37, "velocity": 80}, {"time": 689, "pitch": 63, "duration": 7, "velocity": 80}, {"time": 689, "pitch": 71, "duration": 7, "velocity": 93}, {"time": 695, "pitch": 59, "duration": 17, "velocity": 73}, {"time": 701, "pitch": 66, "duration": 19, "velocity": 80}, {"time": 707, "pitch": 71, "duration": 8, "velocity": 84}, {"time": 719, "pitch": 59, "duration": 10, "velocity": 57}, {"time": 725, "pitch": 68, "duration": 3, "velocity": 84}, {"time": 737, "pitch": 58, "duration": 22, "velocity": 79}, {"time": 737, "pitch": 61, "duration": 5, "velocity": 77}, {"time": 737, "pitch": 66, "duration": 6, "velocity": 79}, {"time": 743, "pitch": 61, "duration": 9, "velocity": 71}, {"time": 749, "pitch": 66, "duration": 6, "velocity": 76}, {"time": 755, "pitch": 70, "duration": 4, "velocity": 90}, {"time": 773, "pitch": 44, "duration": 5, "velocity": 80}, {"time": 773, "pitch": 60, "duration": 4, "velocity": 84}, {"time": 773, "pitch": 63, "duration": 4, "velocity": 83}, {"time": 773, "pitch": 68, "duration": 4, "velocity": 84}, {"time": 779, "pitch": 56, "duration": 5, "velocity": 61}, {"time": 785, "pitch": 49, "duration": 38, "velocity": 82}, {"time": 785, "pitch": 59, "duration": 6, "velocity": 78}, {"time": 785, "pitch": 64, "duration": 6, "velocity": 84}, {"time": 785, "pitch": 71, "duration": 9, "velocity": 93}, {"time": 791, "pitch": 56, "duration": 34, "velocity": 62}, {"time": 797, "pitch": 64, "duration": 9, "velocity": 84}, {"time": 803, "pitch": 71, "duration": 5, "velocity": 90}, {"time": 815, "pitch": 59, "duration": 10, "velocity": 42}, {"time": 821, "pitch": 68, "duration": 6, "velocity": 78}, {"time": 821, "pitch": 75, "duration": 5, "velocity": 83}, {"time": 833, "pitch": 56, "duration": 30, "velocity": 59}, {"time": 833, "pitch": 66, "duration": 7, "velocity": 72}, {"time": 833, "pitch": 75, "duration": 5, "velocity": 79}, {"time": 839, "pitch": 59, "duration": 17, "velocity": 73}, {"time": 839, "pitch": 73, "duration": 5, "velocity": 84}, {"time": 845, "pitch": 71, "duration": 5, "velocity": 90}, {"time": 851, "pitch": 70, "duration": 6, "velocity": 79}, {"time": 857, "pitch": 71, "duration": 5, "velocity": 84}, {"time": 863, "pitch": 59, "duration": 6, "velocity": 83}, {"time": 869, "pitch": 54, "duration": 7, "velocity": 83}, {"time": 869, "pitch": 75, "duration": 5, "velocity": 91}, {"time": 875, "pitch": 59, "duration": 4, "velocity": 84}, {"time": 875, "pitch": 71, "duration": 3, "velocity": 84}, {"time": 881, "pitch": 52, "duration": 44, "velocity": 82}, {"time": 881, "pitch": 68, "duration": 13, "velocity": 83}, {"time": 887, "pitch": 59, "duration": 33, "velocity": 79}, {"time": 893, "pitch": 64, "duration": 12, "velocity": 79}, {"time": 899, "pitch": 68, "duration": 7, "velocity": 78}, {"time": 911, "pitch": 66, "duration": 2, "velocity": 78}, {"time": 917, "pitch": 64, "duration": 3, "velocity": 73}, {"time": 917, "pitch": 68, "duration": 4, "velocity": 76}, {"time": 917, "pitch": 71, "duration": 5, "velocity": 83}, {"time": 923, "pitch": 59, "duration": 5, "velocity": 80}, {"time": 929, "pitch": 51, "duration": 41, "velocity": 82}, {"time": 929, "pitch": 66, "duration": 8, "velocity": 83}, {"time": 929, "pitch": 73, "duration": 8, "velocity": 90}, {"time": 935, "pitch": 59, "duration": 9, "velocity": 78}, {"time": 941, "pitch": 63, "duration": 4, "velocity": 76}, {"time": 941, "pitch": 71, "duration": 10, "velocity": 91}, {"time": 947, "pitch": 66, "duration": 6, "velocity": 84}, {"time": 953, "pitch": 59, "duration": 6, "velocity": 69}, {"time": 959, "pitch": 63, "duration": 7, "velocity": 82}, {"time": 962, "pitch": 59, "duration": 7, "velocity": 79}, {"time": 965, "pitch": 64, "duration": 4, "velocity": 86}, {"time": 968, "pitch": 66, "duration": 2, "velocity": 79}, {"time": 971, "pitch": 68, "duration": 3, "velocity": 79}, {"time": 974, "pitch": 71, "duration": 10, "velocity": 83}, {"time": 977, "pitch": 49, "duration": 12, "velocity": 90}, {"time": 977, "pitch": 61, "duration": 8, "velocity": 78}, {"time": 977, "pitch": 64, "duration": 8, "velocity": 80}, {"time": 983, "pitch": 56, "duration": 8, "velocity": 77}, {"time": 989, "pitch": 61, "duration": 10, "velocity": 86}, {"time": 995, "pitch": 47, "duration": 2, "velocity": 90}, {"time": 1001, "pitch": 46, "duration": 18, "velocity": 98}, {"time": 1001, "pitch": 61, "duration": 8, "velocity": 81}, {"time": 1001, "pitch": 64, "duration": 8, "velocity": 90}, {"time": 1001, "pitch": 68, "duration": 7, "velocity": 90}, {"time": 1007, "pitch": 58, "duration": 10, "velocity": 73}, {"time": 1013, "pitch": 61, "duration": 6, "velocity": 84}, {"time": 1019, "pitch": 68, "duration": 5, "velocity": 93}, {"time": 1025, "pitch": 39, "duration": 5, "velocity": 91}, {"time": 1025, "pitch": 63, "duration": 4, "velocity": 82}, {"time": 1025, "pitch": 67, "duration": 7, "velocity": 83}, {"time": 1031, "pitch": 51, "duration": 6, "velocity": 68}, {"time": 1031, "pitch": 63, "duration": 4, "velocity": 78}, {"time": 1031, "pitch": 68, "duration": 6, "velocity": 84}, {"time": 1037, "pitch": 55, "duration": 30, "velocity": 79}, {"time": 1037, "pitch": 63, "duration": 4, "velocity": 69}, {"time": 1037, "pitch": 70, "duration": 4, "velocity": 99}, {"time": 1043, "pitch": 58, "duration": 8, "velocity": 80}, {"time": 1049, "pitch": 63, "duration": 7, "velocity": 58}, {"time": 1049, "pitch": 67, "duration": 2, "velocity": 82}, {"time": 1049, "pitch": 79, "duration": 2, "velocity": 94}, {"time": 1055, "pitch": 58, "duration": 11, "velocity": 74}, {"time": 1055, "pitch": 68, "duration": 1, "velocity": 73}, {"time": 1055, "pitch": 80, "duration": 2, "velocity": 90}, {"time": 1061, "pitch": 63, "duration": 3, "velocity": 77}, {"time": 1061, "pitch": 71, "duration": 1, "velocity": 84}, {"time": 1061, "pitch": 82, "duration": 1, "velocity": 94}, {"time": 1067, "pitch": 78, "duration": 1, "velocity": 82}, {"time": 1067, "pitch": 83, "duration": 1, "velocity": 83}, {"time": 1073, "pitch": 47, "duration": 40, "velocity": 81}, {"time": 1073, "pitch": 75, "duration": 1, "velocity": 67}, {"time": 1073, "pitch": 87, "duration": 2, "velocity": 84}, {"time": 1079, "pitch": 54, "duration": 11, "velocity": 77}, {"time": 1085, "pitch": 59, "duration": 7, "velocity": 84}, {"time": 1091, "pitch": 63, "duration": 3, "velocity": 79}, {"time": 1091, "pitch": 71, "duration": 5, "velocity": 94}, {"time": 1097, "pitch": 63, "duration": 3, "velocity": 81}, {"time": 1097, "pitch": 66, "duration": 3, "velocity": 83}, {"time": 1097, "pitch": 71, "duration": 1, "velocity": 50}, {"time": 1103, "pitch": 54, "duration": 7, "velocity": 73}, {"time": 1109, "pitch": 59, "duration": 4, "velocity": 72}, {"time": 1109, "pitch": 66, "duration": 5, "velocity": 84}, {"time": 1109, "pitch": 75, "duration": 6, "velocity": 90}, {"time": 1115, "pitch": 54, "duration": 4, "velocity": 81}, {"time": 1118, "pitch": 75, "duration": 2, "velocity": 81}, {"time": 1121, "pitch": 46, "duration": 8, "velocity": 86}, {"time": 1121, "pitch": 66, "duration": 15, "velocity": 84}, {"time": 1121, "pitch": 73, "duration": 15, "velocity": 90}, {"time": 1127, "pitch": 54, "duration": 2, "velocity": 75}, {"time": 1130, "pitch": 58, "duration": 3, "velocity": 68}, {"time": 1133, "pitch": 61, "duration": 7, "velocity": 79}, {"time": 1136, "pitch": 63, "duration": 4, "velocity": 84}, {"time": 1139, "pitch": 66, "duration": 2, "velocity": 82}, {"time": 1142, "pitch": 73, "duration": 2, "velocity": 84}, {"time": 1145, "pitch": 46, "duration": 7, "velocity": 91}, {"time": 1145, "pitch": 66, "duration": 4, "velocity": 79}, {"time": 1145, "pitch": 75, "duration": 6, "velocity": 84}, {"time": 1151, "pitch": 58, "duration": 1, "velocity": 83}, {"time": 1151, "pitch": 66, "duration": 1, "velocity": 84}, {"time": 1151, "pitch": 73, "duration": 1, "velocity": 49}, {"time": 1157, "pitch": 44, "duration": 6, "velocity": 84}, {"time": 1157, "pitch": 60, "duration": 6, "velocity": 84}, {"time": 1157, "pitch": 63, "duration": 5, "velocity": 82}, {"time": 1157, "pitch": 68, "duration": 5, "velocity": 90}, {"time": 1163, "pitch": 56, "duration": 4, "velocity": 84}, {"time": 1169, "pitch": 49, "duration": 19, "velocity": 90}, {"time": 1169, "pitch": 59, "duration": 9, "velocity": 94}, {"time": 1169, "pitch": 64, "duration": 6, "velocity": 90}, {"time": 1169, "pitch": 71, "duration": 10, "velocity": 84}, {"time": 1175, "pitch": 56, "duration": 8, "velocity": 76}, {"time": 1181, "pitch": 59, "duration": 2, "velocity": 86}, {"time": 1184, "pitch": 64, "duration": 3, "velocity": 78}, {"time": 1187, "pitch": 56, "duration": 5, "velocity": 72}, {"time": 1187, "pitch": 66, "duration": 1, "velocity": 83}, {"time": 1190, "pitch": 68, "duration": 4, "velocity": 83}, {"time": 1193, "pitch": 49, "duration": 19, "velocity": 82}, {"time": 1193, "pitch": 76, "duration": 3, "velocity": 84}, {"time": 1196, "pitch": 75, "duration": 2, "velocity": 84}, {"time": 1199, "pitch": 56, "duration": 7, "velocity": 67}, {"time": 1199, "pitch": 71, "duration": 2, "velocity": 84}, {"time": 1202, "pitch": 68, "duration": 2, "velocity": 80}, {"time": 1205, "pitch": 61, "duration": 3, "velocity": 77}, {"time": 1205, "pitch": 64, "duration": 2, "velocity": 83}, {"time": 1208, "pitch": 63, "duration": 4, "velocity": 86}, {"time": 1211, "pitch": 56, "duration": 1, "velocity": 79}, {"time": 1211, "pitch": 64, "duration": 4, "velocity": 84}, {"time": 1214, "pitch": 66, "duration": 1, "velocity": 79}, {"time": 1217, "pitch": 44, "duration": 11, "velocity": 83}, {"time": 1217, "pitch": 59, "duration": 7, "velocity": 91}, {"time": 1217, "pitch": 68, "duration": 7, "velocity": 80}, {"time": 1223, "pitch": 51, "duration": 6, "velocity": 78}, {"time": 1229, "pitch": 56, "duration": 7, "velocity": 72}, {"time": 1229, "pitch": 59, "duration": 1, "velocity": 80}, {"time": 1229, "pitch": 63, "duration": 1, "velocity": 84}, {"time": 1229, "pitch": 68, "duration": 1, "velocity": 86}, {"time": 1235, "pitch": 58, "duration": 7, "velocity": 80}, {"time": 1241, "pitch": 59, "duration": 7, "velocity": 84}, {"time": 1241, "pitch": 66, "duration": 3, "velocity": 82}, {"time": 1241, "pitch": 75, "duration": 3, "velocity": 83}, {"time": 1247, "pitch": 58, "duration": 11, "velocity": 79}, {"time": 1247, "pitch": 64, "duration": 4, "velocity": 84}, {"time": 1247, "pitch": 73, "duration": 3, "velocity": 79}, {"time": 1253, "pitch": 63, "duration": 3, "velocity": 94}, {"time": 1253, "pitch": 71, "duration": 3, "velocity": 96}, {"time": 1259, "pitch": 61, "duration": 1, "velocity": 84}, {"time": 1259, "pitch": 70, "duration": 1, "velocity": 94}, {"time": 1265, "pitch": 40, "duration": 42, "velocity": 86}, {"time": 1265, "pitch": 59, "duration": 7, "velocity": 86}, {"time": 1265, "pitch": 64, "duration": 6, "velocity": 82}, {"time": 1265, "pitch": 68, "duration": 7, "velocity": 83}, {"time": 1265, "pitch": 71, "duration": 7, "velocity": 90}, {"time": 1271, "pitch": 52, "duration": 8, "velocity": 54}, {"time": 1277, "pitch": 59, "duration": 6, "velocity": 86}, {"time": 1277, "pitch": 64, "duration": 5, "velocity": 90}, {"time": 1277, "pitch": 68, "duration": 6, "velocity": 82}, {"time": 1277, "pitch": 71, "duration": 1, "velocity": 75}, {"time": 1283, "pitch": 52, "duration": 7, "velocity": 52}, {"time": 1289, "pitch": 59, "duration": 6, "velocity": 82}, {"time": 1289, "pitch": 66, "duration": 6, "velocity": 81}, {"time": 1295, "pitch": 52, "duration": 6, "velocity": 76}, {"time": 1301, "pitch": 59, "duration": 3, "velocity": 94}, {"time": 1301, "pitch": 64, "duration": 4, "velocity": 96}, {"time": 1304, "pitch": 52, "duration": 2, "velocity": 80}, {"time": 1307, "pitch": 59, "duration": 2, "velocity": 76}, {"time": 1313, "pitch": 47, "duration": 10, "velocity": 80}, {"time": 1313, "pitch": 59, "duration": 6, "velocity": 84}, {"time": 1313, "pitch": 63, "duration": 8, "velocity": 84}, {"time": 1313, "pitch": 66, "duration": 8, "velocity": 79}, {"time": 1319, "pitch": 51, "duration": 7, "velocity": 82}, {"time": 1325, "pitch": 47, "duration": 29, "velocity": 77}, {"time": 1325, "pitch": 61, "duration": 5, "velocity": 82}, {"time": 1325, "pitch": 66, "duration": 4, "velocity": 76}, {"time": 1331, "pitch": 54, "duration": 23, "velocity": 71}, {"time": 1331, "pitch": 61, "duration": 1, "velocity": 47}, {"time": 1331, "pitch": 63, "duration": 5, "velocity": 81}, {"time": 1331, "pitch": 66, "duration": 5, "velocity": 81}, {"time": 1337, "pitch": 59, "duration": 8, "velocity": 76}, {"time": 1343, "pitch": 63, "duration": 3, "velocity": 80}, {"time": 1346, "pitch": 66, "duration": 4, "velocity": 83}, {"time": 1349, "pitch": 59, "duration": 4, "velocity": 84}, {"time": 1352, "pitch": 64, "duration": 3, "velocity": 91}, {"time": 1355, "pitch": 63, "duration": 2, "velocity": 78}, {"time": 1361, "pitch": 49, "duration": 18, "velocity": 84}, {"time": 1361, "pitch": 56, "duration": 13, "velocity": 75}, {"time": 1361, "pitch": 59, "duration": 9, "velocity": 94}, {"time": 1361, "pitch": 64, "duration": 9, "velocity": 86}, {"time": 1373, "pitch": 59, "duration": 7, "velocity": 91}, {"time": 1373, "pitch": 64, "duration": 6, "velocity": 94}, {"time": 1379, "pitch": 56, "duration": 1, "velocity": 79}, {"time": 1385, "pitch": 46, "duration": 19, "velocity": 91}, {"time": 1385, "pitch": 61, "duration": 7, "velocity": 84}, {"time": 1385, "pitch": 64, "duration": 7, "velocity": 91}, {"time": 1391, "pitch": 58, "duration": 5, "velocity": 73}, {"time": 1397, "pitch": 61, "duration": 6, "velocity": 93}, {"time": 1397, "pitch": 64, "duration": 10, "velocity": 99}, {"time": 1403, "pitch": 58, "duration": 1, "velocity": 90}, {"time": 1406, "pitch": 63, "duration": 3, "velocity": 52}, {"time": 1409, "pitch": 39, "duration": 6, "velocity": 86}, {"time": 1409, "pitch": 67, "duration": 19, "velocity": 62}, {"time": 1409, "pitch": 70, "duration": 17, "velocity": 90}, {"time": 1415, "pitch": 51, "duration": 6, "velocity": 82}, {"time": 1421, "pitch": 56, "duration": 25, "velocity": 79}, {"time": 1427, "pitch": 58, "duration": 19, "velocity": 81}, {"time": 1433, "pitch": 63, "duration": 2, "velocity": 84}, {"time": 1436, "pitch": 68, "duration": 3, "velocity": 75}, {"time": 1439, "pitch": 70, "duration": 1, "velocity": 84}, {"time": 1442, "pitch": 75, "duration": 1, "velocity": 83}, {"time": 1445, "pitch": 80, "duration": 3, "velocity": 76}, {"time": 1448, "pitch": 82, "duration": 4, "velocity": 78}, {"time": 1451, "pitch": 85, "duration": 3, "velocity": 77}, {"time": 1454, "pitch": 87, "duration": 1, "velocity": 84}, {"time": 1457, "pitch": 40, "duration": 10, "velocity": 76}, {"time": 1463, "pitch": 47, "duration": 5, "velocity": 80}, {"time": 1469, "pitch": 52, "duration": 6, "velocity": 69}, {"time": 1475, "pitch": 56, "duration": 19, "velocity": 78}, {"time": 1487, "pitch": 59, "duration": 6, "velocity": 52}, {"time": 1505, "pitch": 39, "duration": 11, "velocity": 63}, {"time": 1511, "pitch": 47, "duration": 5, "velocity": 59}, {"time": 1517, "pitch": 51, "duration": 6, "velocity": 61}, {"time": 1523, "pitch": 54, "duration": 13, "velocity": 77}, {"time": 1535, "pitch": 59, "duration": 2, "velocity": 73}, {"time": 1553, "pitch": 38, "duration": 3, "velocity": 82}, {"time": 1559, "pitch": 38, "duration": 10, "velocity": 81}, {"time": 1565, "pitch": 41, "duration": 5, "velocity": 84}, {"time": 1571, "pitch": 44, "duration": 4, "velocity": 80}, {"time": 1589, "pitch": 56, "duration": 1, "velocity": 75}, {"time": 1601, "pitch": 39, "duration": 11, "velocity": 79}, {"time": 1607, "pitch": 46, "duration": 5, "velocity": 79}, {"time": 1613, "pitch": 51, "duration": 1, "velocity": 72}, {"time": 1619, "pitch": 56, "duration": 7, "velocity": 58}, {"time": 1625, "pitch": 58, "duration": 6, "velocity": 82}, {"time": 1631, "pitch": 63, "duration": 1, "velocity": 81}, {"time": 1637, "pitch": 63, "duration": 2, "velocity": 83}, {"time": 1649, "pitch": 56, "duration": 34, "velocity": 72}, {"time": 1649, "pitch": 71, "duration": 8, "velocity": 84}, {"time": 1661, "pitch": 64, "duration": 5, "velocity": 86}, {"time": 1661, "pitch": 68, "duration": 5, "velocity": 78}, {"time": 1667, "pitch": 59, "duration": 6, "velocity": 74}, {"time": 1667, "pitch": 63, "duration": 4, "velocity": 58}, {"time": 1667, "pitch": 66, "duration": 4, "velocity": 80}, {"time": 1673, "pitch": 64, "duration": 2, "velocity": 84}, {"time": 1673, "pitch": 68, "duration": 7, "velocity": 82}, {"time": 1679, "pitch": 59, "duration": 3, "velocity": 61}, {"time": 1682, "pitch": 64, "duration": 4, "velocity": 86}, {"time": 1682, "pitch": 71, "duration": 5, "velocity": 90}, {"time": 1685, "pitch": 59, "duration": 2, "velocity": 79}, {"time": 1688, "pitch": 64, "duration": 1, "velocity": 82}, {"time": 1688, "pitch": 68, "duration": 1, "velocity": 84}, {"time": 1697, "pitch": 51, "duration": 22, "velocity": 83}, {"time": 1697, "pitch": 61, "duration": 7, "velocity": 80}, {"time": 1697, "pitch": 66, "duration": 9, "velocity": 83}, {"time": 1703, "pitch": 58, "duration": 18, "velocity": 72}, {"time": 1706, "pitch": 63, "duration": 13, "velocity": 81}, {"time": 1709, "pitch": 66, "duration": 3, "velocity": 75}, {"time": 1712, "pitch": 68, "duration": 1, "velocity": 76}, {"time": 1715, "pitch": 70, "duration": 1, "velocity": 83}, {"time": 1718, "pitch": 73, "duration": 3, "velocity": 80}, {"time": 1721, "pitch": 51, "duration": 17, "velocity": 82}, {"time": 1721, "pitch": 78, "duration": 3, "velocity": 80}, {"time": 1724, "pitch": 75, "duration": 2, "velocity": 78}, {"time": 1727, "pitch": 73, "duration": 2, "velocity": 78}, {"time": 1730, "pitch": 70, "duration": 1, "velocity": 82}, {"time": 1733, "pitch": 58, "duration": 4, "velocity": 78}, {"time": 1733, "pitch": 66, "duration": 3, "velocity": 79}, {"time": 1736, "pitch": 63, "duration": 2, "velocity": 80}, {"time": 1739, "pitch": 59, "duration": 1, "velocity": 90}, {"time": 1742, "pitch": 59, "duration": 1, "velocity": 43}, {"time": 1745, "pitch": 37, "duration": 16, "velocity": 83}, {"time": 1745, "pitch": 56, "duration": 7, "velocity": 84}, {"time": 1745, "pitch": 59, "duration": 7, "velocity": 90}, {"time": 1745, "pitch": 64, "duration": 6, "velocity": 84}, {"time": 1751, "pitch": 49, "duration": 7, "velocity": 39}, {"time": 1757, "pitch": 56, "duration": 7, "velocity": 77}, {"time": 1757, "pitch": 59, "duration": 7, "velocity": 86}, {"time": 1757, "pitch": 64, "duration": 7, "velocity": 84}, {"time": 1763, "pitch": 37, "duration": 1, "velocity": 76}, {"time": 1763, "pitch": 49, "duration": 1, "velocity": 71}, {"time": 1769, "pitch": 46, "duration": 19, "velocity": 84}, {"time": 1769, "pitch": 61, "duration": 6, "velocity": 83}, {"time": 1769, "pitch": 64, "duration": 6, "velocity": 84}, {"time": 1769, "pitch": 68, "duration": 6, "velocity": 84}, {"time": 1775, "pitch": 55, "duration": 6, "velocity": 56}, {"time": 1781, "pitch": 58, "duration": 5, "velocity": 75}, {"time": 1781, "pitch": 61, "duration": 6, "velocity": 84}, {"time": 1781, "pitch": 68, "duration": 6, "velocity": 84}, {"time": 1787, "pitch": 55, "duration": 1, "velocity": 83}, {"time": 1793, "pitch": 39, "duration": 5, "velocity": 86}, {"time": 1793, "pitch": 63, "duration": 14, "velocity": 82}, {"time": 1793, "pitch": 67, "duration": 14, "velocity": 82}, {"time": 1793, "pitch": 70, "duration": 14, "velocity": 90}, {"time": 1799, "pitch": 51, "duration": 1, "velocity": 73}, {"time": 1805, "pitch": 56, "duration": 1, "velocity": 71}, {"time": 1811, "pitch": 63, "duration": 1, "velocity": 76}, {"time": 1817, "pitch": 38, "duration": 18, "velocity": 82}, {"time": 1817, "pitch": 50, "duration": 18, "velocity": 69}, {"time": 1817, "pitch": 62, "duration": 10, "velocity": 77}, {"time": 1817, "pitch": 66, "duration": 10, "velocity": 76}, {"time": 1817, "pitch": 69, "duration": 9, "velocity": 79}, {"time": 1832, "pitch": 62, "duration": 2, "velocity": 73}, {"time": 1835, "pitch": 69, "duration": 1, "velocity": 79}, {"time": 1841, "pitch": 44, "duration": 9, "velocity": 60}, {"time": 1841, "pitch": 63, "duration": 5, "velocity": 72}, {"time": 1841, "pitch": 70, "duration": 5, "velocity": 82}, {"time": 1847, "pitch": 51, "duration": 4, "velocity": 71}, {"time": 1853, "pitch": 56, "duration": 7, "velocity": 63}, {"time": 1853, "pitch": 63, "duration": 7, "velocity": 77}, {"time": 1859, "pitch": 58, "duration": 36, "velocity": 76}, {"time": 1859, "pitch": 70, "duration": 14, "velocity": 83}, {"time": 1889, "pitch": 75, "duration": 6, "velocity": 38}, {"time": 1937, "pitch": 44, "duration": 19, "velocity": 82}, {"time": 1937, "pitch": 59, "duration": 14, "velocity": 82}, {"time": 1937, "pitch": 63, "duration": 12, "velocity": 82}, {"time": 1937, "pitch": 68, "duration": 12, "velocity": 83}, {"time": 1943, "pitch": 51, "duration": 17, "velocity": 62}, {"time": 1949, "pitch": 56, "duration": 6, "velocity": 76}, {"time": 1955, "pitch": 59, "duration": 3, "velocity": 81}, {"time": 1958, "pitch": 68, "duration": 2, "velocity": 81}, {"time": 1961, "pitch": 42, "duration": 17, "velocity": 78}, {"time": 1961, "pitch": 66, "duration": 13, "velocity": 83}, {"time": 1967, "pitch": 51, "duration": 11, "velocity": 78}, {"time": 1973, "pitch": 54, "duration": 4, "velocity": 78}, {"time": 1976, "pitch": 58, "duration": 4, "velocity": 79}, {"time": 1979, "pitch": 59, "duration": 3, "velocity": 73}, {"time": 1982, "pitch": 66, "duration": 4, "velocity": 75}, {"time": 1985, "pitch": 40, "duration": 21, "velocity": 81}, {"time": 1985, "pitch": 56, "duration": 8, "velocity": 72}, {"time": 1985, "pitch": 59, "duration": 8, "velocity": 80}, {"time": 1985, "pitch": 63, "duration": 11, "velocity": 82}, {"time": 1991, "pitch": 52, "duration": 9, "velocity": 73}, {"time": 1997, "pitch": 56, "duration": 6, "velocity": 75}, {"time": 1997, "pitch": 59, "duration": 1, "velocity": 39}, {"time": 1997, "pitch": 64, "duration": 6, "velocity": 82}, {"time": 2003, "pitch": 52, "duration": 3, "velocity": 61}, {"time": 2003, "pitch": 63, "duration": 4, "velocity": 77}, {"time": 2009, "pitch": 39, "duration": 6, "velocity": 86}, {"time": 2009, "pitch": 54, "duration": 9, "velocity": 75}, {"time": 2009, "pitch": 59, "duration": 7, "velocity": 81}, {"time": 2009, "pitch": 63, "duration": 8, "velocity": 82}, {"time": 2015, "pitch": 51, "duration": 10, "velocity": 69}, {"time": 2021, "pitch": 59, "duration": 3, "velocity": 78}, {"time": 2024, "pitch": 61, "duration": 3, "velocity": 76}, {"time": 2027, "pitch": 63, "duration": 2, "velocity": 71}, {"time": 2030, "pitch": 66, "duration": 4, "velocity": 72}, {"time": 2033, "pitch": 49, "duration": 18, "velocity": 73}, {"time": 2033, "pitch": 64, "duration": 5, "velocity": 79}, {"time": 2039, "pitch": 56, "duration": 7, "velocity": 68}, {"time": 2039, "pitch": 63, "duration": 7, "velocity": 74}, {"time": 2045, "pitch": 61, "duration": 5, "velocity": 63}, {"time": 2045, "pitch": 64, "duration": 5, "velocity": 76}, {"time": 2051, "pitch": 56, "duration": 1, "velocity": 76}, {"time": 2051, "pitch": 71, "duration": 5, "velocity": 84}, {"time": 2057, "pitch": 42, "duration": 9, "velocity": 78}, {"time": 2057, "pitch": 61, "duration": 17, "velocity": 71}, {"time": 2057, "pitch": 70, "duration": 17, "velocity": 91}, {"time": 2063, "pitch": 49, "duration": 5, "velocity": 75}, {"time": 2069, "pitch": 54, "duration": 6, "velocity": 60}, {"time": 2075, "pitch": 58, "duration": 1, "velocity": 82}, {"time": 2081, "pitch": 47, "duration": 19, "velocity": 83}, {"time": 2081, "pitch": 63, "duration": 8, "velocity": 76}, {"time": 2081, "pitch": 70, "duration": 6, "velocity": 84}, {"time": 2087, "pitch": 54, "duration": 16, "velocity": 63}, {"time": 2087, "pitch": 71, "duration": 4, "velocity": 74}, {"time": 2093, "pitch": 66, "duration": 5, "velocity": 79}, {"time": 2099, "pitch": 58, "duration": 2, "velocity": 59}, {"time": 2099, "pitch": 63, "duration": 4, "velocity": 79}, {"time": 2105, "pitch": 46, "duration": 7, "velocity": 90}, {"time": 2105, "pitch": 61, "duration": 6, "velocity": 74}, {"time": 2105, "pitch": 64, "duration": 6, "velocity": 80}, {"time": 2111, "pitch": 68, "duration": 4, "velocity": 79}, {"time": 2117, "pitch": 39, "duration": 6, "velocity": 84}, {"time": 2117, "pitch": 63, "duration": 7, "velocity": 78}, {"time": 2117, "pitch": 67, "duration": 5, "velocity": 73}, {"time": 2117, "pitch": 70, "duration": 5, "velocity": 90}, {"time": 2123, "pitch": 51, "duration": 5, "velocity": 72}, {"time": 2129, "pitch": 44, "duration": 15, "velocity": 83}, {"time": 2129, "pitch": 63, "duration": 6, "velocity": 75}, {"time": 2129, "pitch": 71, "duration": 5, "velocity": 90}, {"time": 2135, "pitch": 51, "duration": 11, "velocity": 78}, {"time": 2141, "pitch": 56, "duration": 4, "velocity": 75}, {"time": 2144, "pitch": 58, "duration": 2, "velocity": 75}, {"time": 2147, "pitch": 59, "duration": 3, "velocity": 71}, {"time": 2150, "pitch": 66, "duration": 2, "velocity": 81}, {"time": 2153, "pitch": 42, "duration": 23, "velocity": 79}, {"time": 2153, "pitch": 58, "duration": 7, "velocity": 75}, {"time": 2153, "pitch": 61, "duration": 6, "velocity": 83}, {"time": 2153, "pitch": 66, "duration": 6, "velocity": 52}, {"time": 2159, "pitch": 54, "duration": 9, "velocity": 56}, {"time": 2165, "pitch": 58, "duration": 3, "velocity": 69}, {"time": 2168, "pitch": 59, "duration": 3, "velocity": 80}, {"time": 2171, "pitch": 61, "duration": 3, "velocity": 76}, {"time": 2174, "pitch": 66, "duration": 8, "velocity": 77}, {"time": 2177, "pitch": 40, "duration": 24, "velocity": 80}, {"time": 2177, "pitch": 52, "duration": 3, "velocity": 61}, {"time": 2177, "pitch": 56, "duration": 7, "velocity": 71}, {"time": 2177, "pitch": 59, "duration": 6, "velocity": 80}, {"time": 2177, "pitch": 63, "duration": 9, "velocity": 78}, {"time": 2183, "pitch": 52, "duration": 8, "velocity": 19}, {"time": 2189, "pitch": 56, "duration": 6, "velocity": 73}, {"time": 2189, "pitch": 59, "duration": 5, "velocity": 82}, {"time": 2189, "pitch": 64, "duration": 5, "velocity": 80}, {"time": 2195, "pitch": 52, "duration": 7, "velocity": 68}, {"time": 2198, "pitch": 54, "duration": 16, "velocity": 44}, {"time": 2201, "pitch": 47, "duration": 15, "velocity": 82}, {"time": 2201, "pitch": 59, "duration": 6, "velocity": 80}, {"time": 2201, "pitch": 63, "duration": 6, "velocity": 84}, {"time": 2213, "pitch": 59, "duration": 4, "velocity": 81}, {"time": 2216, "pitch": 61, "duration": 3, "velocity": 81}, {"time": 2219, "pitch": 63, "duration": 5, "velocity": 77}, {"time": 2222, "pitch": 64, "duration": 2, "velocity": 69}, {"time": 2225, "pitch": 37, "duration": 17, "velocity": 82}, {"time": 2225, "pitch": 49, "duration": 12, "velocity": 62}, {"time": 2225, "pitch": 56, "duration": 8, "velocity": 72}, {"time": 2225, "pitch": 59, "duration": 7, "velocity": 77}, {"time": 2225, "pitch": 64, "duration": 6, "velocity": 69}, {"time": 2237, "pitch": 56, "duration": 7, "velocity": 77}, {"time": 2237, "pitch": 59, "duration": 4, "velocity": 81}, {"time": 2237, "pitch": 64, "duration": 4, "velocity": 84}, {"time": 2243, "pitch": 49, "duration": 2, "velocity": 79}, {"time": 2249, "pitch": 39, "duration": 17, "velocity": 81}, {"time": 2249, "pitch": 51, "duration": 3, "velocity": 62}, {"time": 2249, "pitch": 55, "duration": 8, "velocity": 78}, {"time": 2249, "pitch": 58, "duration": 7, "velocity": 56}, {"time": 2249, "pitch": 61, "duration": 9, "velocity": 79}, {"time": 2255, "pitch": 51, "duration": 7, "velocity": 58}, {"time": 2261, "pitch": 55, "duration": 4, "velocity": 80}, {"time": 2261, "pitch": 58, "duration": 6, "velocity": 78}, {"time": 2261, "pitch": 63, "duration": 9, "velocity": 79}, {"time": 2267, "pitch": 51, "duration": 5, "velocity": 75}, {"time": 2273, "pitch": 44, "duration": 11, "velocity": 80}, {"time": 2273, "pitch": 56, "duration": 4, "velocity": 76}, {"time": 2273, "pitch": 59, "duration": 4, "velocity": 91}, {"time": 2279, "pitch": 51, "duration": 5, "velocity": 75}, {"time": 2279, "pitch": 58, "duration": 3, "velocity": 78}, {"time": 2279, "pitch": 61, "duration": 6, "velocity": 82}, {"time": 2285, "pitch": 56, "duration": 6, "velocity": 72}, {"time": 2285, "pitch": 58, "duration": 1, "velocity": 79}, {"time": 2285, "pitch": 63, "duration": 1, "velocity": 84}, {"time": 2291, "pitch": 58, "duration": 1, "velocity": 82}, {"time": 2291, "pitch": 63, "duration": 1, "velocity": 80}, {"time": 2291, "pitch": 71, "duration": 1, "velocity": 90}, {"time": 2294, "pitch": 70, "duration": 2, "velocity": 82}, {"time": 2297, "pitch": 44, "duration": 3, "velocity": 78}, {"time": 2297, "pitch": 71, "duration": 3, "velocity": 84}, {"time": 2300, "pitch": 51, "duration": 2, "velocity": 79}, {"time": 2300, "pitch": 70, "duration": 2, "velocity": 84}, {"time": 2303, "pitch": 56, "duration": 3, "velocity": 72}, {"time": 2303, "pitch": 63, "duration": 3, "velocity": 80}, {"time": 2306, "pitch": 58, "duration": 4, "velocity": 72}, {"time": 2306, "pitch": 68, "duration": 3, "velocity": 76}, {"time": 2309, "pitch": 59, "duration": 1, "velocity": 84}, {"time": 2309, "pitch": 70, "duration": 1, "velocity": 84}, {"time": 2312, "pitch": 70, "duration": 1, "velocity": 72}, {"time": 2312, "pitch": 71, "duration": 1, "velocity": 75}, {"time": 2315, "pitch": 73, "duration": 3, "velocity": 72}, {"time": 2318, "pitch": 75, "duration": 1, "velocity": 83}, {"time": 2321, "pitch": 47, "duration": 37, "velocity": 80}, {"time": 2321, "pitch": 63, "duration": 7, "velocity": 80}, {"time": 2321, "pitch": 71, "duration": 7, "velocity": 93}, {"time": 2327, "pitch": 59, "duration": 17, "velocity": 73}, {"time": 2333, "pitch": 66, "duration": 19, "velocity": 80}, {"time": 2339, "pitch": 71, "duration": 8, "velocity": 84}, {"time": 2351, "pitch": 59, "duration": 10, "velocity": 57}, {"time": 2357, "pitch": 68, "duration": 3, "velocity": 84}, {"time": 2369, "pitch": 58, "duration": 22, "velocity": 79}, {"time": 2369, "pitch": 61, "duration": 5, "velocity": 77}, {"time": 2369, "pitch": 66, "duration": 6, "velocity": 79}, {"time": 2375, "pitch": 61, "duration": 9, "velocity": 71}, {"time": 2381, "pitch": 66, "duration": 6, "velocity": 76}, {"time": 2387, "pitch": 70, "duration": 4, "velocity": 90}, {"time": 2405, "pitch": 44, "duration": 5, "velocity": 80}, {"time": 2405, "pitch": 60, "duration": 4, "velocity": 84}, {"time": 2405, "pitch": 63, "duration": 4, "velocity": 83}, {"time": 2405, "pitch": 68, "duration": 4, "velocity": 84}, {"time": 2411, "pitch": 56, "duration": 5, "velocity": 61}, {"time": 2417, "pitch": 49, "duration": 38, "velocity": 82}, {"time": 2417, "pitch": 59, "duration": 6, "velocity": 78}, {"time": 2417, "pitch": 64, "duration": 6, "velocity": 84}, {"time": 2417, "pitch": 71, "duration": 9, "velocity": 93}, {"time": 2423, "pitch": 56, "duration": 34, "velocity": 62}, {"time": 2429, "pitch": 64, "duration": 9, "velocity": 84}, {"time": 2435, "pitch": 71, "duration": 5, "velocity": 90}, {"time": 2447, "pitch": 59, "duration": 10, "velocity": 42}, {"time": 2453, "pitch": 68, "duration": 6, "velocity": 78}, {"time": 2453, "pitch": 75, "duration": 5, "velocity": 83}, {"time": 2465, "pitch": 56, "duration": 30, "velocity": 59}, {"time": 2465, "pitch": 66, "duration": 7, "velocity": 72}, {"time": 2465, "pitch": 75, "duration": 5, "velocity": 79}, {"time": 2471, "pitch": 59, "duration": 17, "velocity": 73}, {"time": 2471, "pitch": 73, "duration": 5, "velocity": 84}, {"time": 2477, "pitch": 71, "duration": 5, "velocity": 90}, {"time": 2483, "pitch": 70, "duration": 6, "velocity": 79}, {"time": 2489, "pitch": 71, "duration": 5, "velocity": 84}, {"time": 2495, "pitch": 59, "duration": 6, "velocity": 83}, {"time": 2501, "pitch": 54, "duration": 7, "velocity": 83}, {"time": 2501, "pitch": 75, "duration": 5, "velocity": 91}, {"time": 2507, "pitch": 59, "duration": 4, "velocity": 84}, {"time": 2507, "pitch": 71, "duration": 3, "velocity": 84}, {"time": 2513, "pitch": 52, "duration": 44, "velocity": 82}, {"time": 2513, "pitch": 68, "duration": 13, "velocity": 83}, {"time": 2519, "pitch": 59, "duration": 33, "velocity": 79}, {"time": 2525, "pitch": 64, "duration": 12, "velocity": 79}, {"time": 2531, "pitch": 68, "duration": 7, "velocity": 78}, {"time": 2543, "pitch": 66, "duration": 2, "velocity": 78}, {"time": 2549, "pitch": 64, "duration": 3, "velocity": 73}, {"time": 2549, "pitch": 68, "duration": 4, "velocity": 76}, {"time": 2549, "pitch": 71, "duration": 5, "velocity": 83}, {"time": 2555, "pitch": 59, "duration": 5, "velocity": 80}, {"time": 2561, "pitch": 51, "duration": 41, "velocity": 82}, {"time": 2561, "pitch": 66, "duration": 8, "velocity": 83}, {"time": 2561, "pitch": 73, "duration": 8, "velocity": 90}, {"time": 2567, "pitch": 59, "duration": 9, "velocity": 78}, {"time": 2573, "pitch": 63, "duration": 4, "velocity": 76}, {"time": 2573, "pitch": 71, "duration": 10, "velocity": 91}, {"time": 2579, "pitch": 66, "duration": 6, "velocity": 84}, {"time": 2585, "pitch": 59, "duration": 6, "velocity": 69}, {"time": 2591, "pitch": 63, "duration": 7, "velocity": 82}, {"time": 2594, "pitch": 59, "duration": 7, "velocity": 79}, {"time": 2597, "pitch": 64, "duration": 4, "velocity": 86}, {"time": 2600, "pitch": 66, "duration": 2, "velocity": 79}, {"time": 2603, "pitch": 68, "duration": 3, "velocity": 79}, {"time": 2606, "pitch": 71, "duration": 10, "velocity": 83}, {"time": 2609, "pitch": 49, "duration": 12, "velocity": 90}, {"time": 2609, "pitch": 61, "duration": 8, "velocity": 78}, {"time": 2609, "pitch": 64, "duration": 8, "velocity": 80}, {"time": 2615, "pitch": 56, "duration": 8, "velocity": 77}, {"time": 2621, "pitch": 61, "duration": 10, "velocity": 86}, {"time": 2627, "pitch": 47, "duration": 2, "velocity": 90}, {"time": 2633, "pitch": 46, "duration": 18, "velocity": 98}, {"time": 2633, "pitch": 61, "duration": 8, "velocity": 81}, {"time": 2633, "pitch": 64, "duration": 8, "velocity": 90}, {"time": 2633, "pitch": 68, "duration": 7, "velocity": 90}, {"time": 2639, "pitch": 58, "duration": 10, "velocity": 73}, {"time": 2645, "pitch": 61, "duration": 6, "velocity": 84}, {"time": 2651, "pitch": 68, "duration": 5, "velocity": 93}, {"time": 2657, "pitch": 39, "duration": 5, "velocity": 91}, {"time": 2657, "pitch": 63, "duration": 4, "velocity": 82}, {"time": 2657, "pitch": 67, "duration": 7, "velocity": 83}, {"time": 2663, "pitch": 51, "duration": 6, "velocity": 68}, {"time": 2663, "pitch": 63, "duration": 4, "velocity": 78}, {"time": 2663, "pitch": 68, "duration": 6, "velocity": 84}, {"time": 2669, "pitch": 55, "duration": 30, "velocity": 79}, {"time": 2669, "pitch": 63, "duration": 4, "velocity": 69}, {"time": 2669, "pitch": 70, "duration": 4, "velocity": 99}, {"time": 2675, "pitch": 58, "duration": 8, "velocity": 80}, {"time": 2681, "pitch": 63, "duration": 7, "velocity": 58}, {"time": 2681, "pitch": 67, "duration": 2, "velocity": 82}, {"time": 2681, "pitch": 79, "duration": 2, "velocity": 94}, {"time": 2687, "pitch": 58, "duration": 11, "velocity": 74}, {"time": 2687, "pitch": 68, "duration": 1, "velocity": 73}, {"time": 2687, "pitch": 80, "duration": 2, "velocity": 90}, {"time": 2693, "pitch": 63, "duration": 3, "velocity": 77}, {"time": 2693, "pitch": 71, "duration": 1, "velocity": 84}, {"time": 2693, "pitch": 82, "duration": 1, "velocity": 94}, {"time": 2699, "pitch": 78, "duration": 1, "velocity": 82}, {"time": 2699, "pitch": 83, "duration": 1, "velocity": 83}, {"time": 2705, "pitch": 47, "duration": 40, "velocity": 81}, {"time": 2705, "pitch": 75, "duration": 1, "velocity": 67}, {"time": 2705, "pitch": 87, "duration": 2, "velocity": 84}, {"time": 2711, "pitch": 54, "duration": 11, "velocity": 77}, {"time": 2717, "pitch": 59, "duration": 7, "velocity": 84}, {"time": 2723, "pitch": 63, "duration": 3, "velocity": 79}, {"time": 2723, "pitch": 71, "duration": 5, "velocity": 94}, {"time": 2729, "pitch": 63, "duration": 3, "velocity": 81}, {"time": 2729, "pitch": 66, "duration": 3, "velocity": 83}, {"time": 2729, "pitch": 71, "duration": 1, "velocity": 50}, {"time": 2735, "pitch": 54, "duration": 7, "velocity": 73}, {"time": 2741, "pitch": 59, "duration": 4, "velocity": 72}, {"time": 2741, "pitch": 66, "duration": 5, "velocity": 84}, {"time": 2741, "pitch": 75, "duration": 6, "velocity": 90}, {"time": 2747, "pitch": 54, "duration": 4, "velocity": 81}, {"time": 2750, "pitch": 75, "duration": 2, "velocity": 81}, {"time": 2753, "pitch": 46, "duration": 8, "velocity": 86}, {"time": 2753, "pitch": 66, "duration": 15, "velocity": 84}, {"time": 2753, "pitch": 73, "duration": 15, "velocity": 90}, {"time": 2759, "pitch": 54, "duration": 2, "velocity": 75}, {"time": 2762, "pitch": 58, "duration": 3, "velocity": 68}, {"time": 2765, "pitch": 61, "duration": 7, "velocity": 79}, {"time": 2768, "pitch": 63, "duration": 4, "velocity": 84}, {"time": 2771, "pitch": 66, "duration": 2, "velocity": 82}, {"time": 2774, "pitch": 73, "duration": 2, "velocity": 84}, {"time": 2777, "pitch": 46, "duration": 7, "velocity": 91}, {"time": 2777, "pitch": 66, "duration": 4, "velocity": 79}, {"time": 2777, "pitch": 75, "duration": 6, "velocity": 84}, {"time": 2783, "pitch": 58, "duration": 1, "velocity": 83}, {"time": 2783, "pitch": 66, "duration": 1, "velocity": 84}, {"time": 2783, "pitch": 73, "duration": 1, "velocity": 49}, {"time": 2789, "pitch": 44, "duration": 6, "velocity": 84}, {"time": 2789, "pitch": 60, "duration": 6, "velocity": 84}, {"time": 2789, "pitch": 63, "duration": 5, "velocity": 82}, {"time": 2789, "pitch": 68, "duration": 5, "velocity": 90}, {"time": 2795, "pitch": 56, "duration": 4, "velocity": 84}, {"time": 2801, "pitch": 49, "duration": 19, "velocity": 90}, {"time": 2801, "pitch": 59, "duration": 9, "velocity": 94}, {"time": 2801, "pitch": 64, "duration": 6, "velocity": 90}, {"time": 2801, "pitch": 71, "duration": 10, "velocity": 84}, {"time": 2807, "pitch": 56, "duration": 8, "velocity": 76}, {"time": 2813, "pitch": 59, "duration": 2, "velocity": 86}, {"time": 2816, "pitch": 64, "duration": 3, "velocity": 78}, {"time": 2819, "pitch": 56, "duration": 5, "velocity": 72}, {"time": 2819, "pitch": 66, "duration": 1, "velocity": 83}, {"time": 2822, "pitch": 68, "duration": 4, "velocity": 83}, {"time": 2825, "pitch": 49, "duration": 19, "velocity": 82}, {"time": 2825, "pitch": 76, "duration": 3, "velocity": 84}, {"time": 2828, "pitch": 75, "duration": 2, "velocity": 84}, {"time": 2831, "pitch": 56, "duration": 7, "velocity": 67}, {"time": 2831, "pitch": 71, "duration": 2, "velocity": 84}, {"time": 2834, "pitch": 68, "duration": 2, "velocity": 80}, {"time": 2837, "pitch": 61, "duration": 3, "velocity": 77}, {"time": 2837, "pitch": 64, "duration": 2, "velocity": 83}, {"time": 2840, "pitch": 63, "duration": 4, "velocity": 86}, {"time": 2843, "pitch": 56, "duration": 1, "velocity": 79}, {"time": 2843, "pitch": 64, "duration": 4, "velocity": 84}, {"time": 2846, "pitch": 66, "duration": 1, "velocity": 79}, {"time": 2849, "pitch": 44, "duration": 11, "velocity": 83}, {"time": 2849, "pitch": 59, "duration": 7, "velocity": 91}, {"time": 2849, "pitch": 68, "duration": 7, "velocity": 80}, {"time": 2855, "pitch": 51, "duration": 6, "velocity": 78}, {"time": 2861, "pitch": 56, "duration": 7, "velocity": 72}, {"time": 2861, "pitch": 59, "duration": 1, "velocity": 80}, {"time": 2861, "pitch": 63, "duration": 1, "velocity": 84}, {"time": 2861, "pitch": 68, "duration": 1, "velocity": 86}, {"time": 2867, "pitch": 58, "duration": 7, "velocity": 80}, {"time": 2873, "pitch": 59, "duration": 7, "velocity": 84}, {"time": 2873, "pitch": 66, "duration": 3, "velocity": 82}, {"time": 2873, "pitch": 75, "duration": 3, "velocity": 83}, {"time": 2879, "pitch": 58, "duration": 11, "velocity": 79}, {"time": 2879, "pitch": 64, "duration": 4, "velocity": 84}, {"time": 2879, "pitch": 73, "duration": 3, "velocity": 79}, {"time": 2885, "pitch": 63, "duration": 3, "velocity": 94}, {"time": 2885, "pitch": 71, "duration": 3, "velocity": 96}, {"time": 2891, "pitch": 61, "duration": 1, "velocity": 84}, {"time": 2891, "pitch": 70, "duration": 1, "velocity": 94}, {"time": 2897, "pitch": 40, "duration": 42, "velocity": 86}, {"time": 2897, "pitch": 59, "duration": 7, "velocity": 86}, {"time": 2897, "pitch": 64, "duration": 6, "velocity": 82}, {"time": 2897, "pitch": 68, "duration": 7, "velocity": 83}, {"time": 2897, "pitch": 71, "duration": 7, "velocity": 90}, {"time": 2903, "pitch": 52, "duration": 8, "velocity": 54}, {"time": 2909, "pitch": 59, "duration": 6, "velocity": 86}, {"time": 2909, "pitch": 64, "duration": 5, "velocity": 90}, {"time": 2909, "pitch": 68, "duration": 6, "velocity": 82}, {"time": 2909, "pitch": 71, "duration": 1, "velocity": 75}, {"time": 2915, "pitch": 52, "duration": 7, "velocity": 52}, {"time": 2921, "pitch": 59, "duration": 6, "velocity": 82}, {"time": 2921, "pitch": 66, "duration": 6, "velocity": 81}, {"time": 2927, "pitch": 52, "duration": 6, "velocity": 76}, {"time": 2933, "pitch": 59, "duration": 3, "velocity": 94}, {"time": 2933, "pitch": 64, "duration": 4, "velocity": 96}, {"time": 2936, "pitch": 52, "duration": 2, "velocity": 80}, {"time": 2939, "pitch": 59, "duration": 2, "velocity": 76}, {"time": 2945, "pitch": 47, "duration": 10, "velocity": 80}, {"time": 2945, "pitch": 59, "duration": 6, "velocity": 84}, {"time": 2945, "pitch": 63, "duration": 8, "velocity": 84}, {"time": 2945, "pitch": 66, "duration": 8, "velocity": 79}, {"time": 2951, "pitch": 51, "duration": 7, "velocity": 82}, {"time": 2957, "pitch": 47, "duration": 29, "velocity": 77}, {"time": 2957, "pitch": 61, "duration": 5, "velocity": 82}, {"time": 2957, "pitch": 66, "duration": 4, "velocity": 76}, {"time": 2963, "pitch": 54, "duration": 23, "velocity": 71}, {"time": 2963, "pitch": 61, "duration": 1, "velocity": 47}, {"time": 2963, "pitch": 63, "duration": 5, "velocity": 81}, {"time": 2963, "pitch": 66, "duration": 5, "velocity": 81}, {"time": 2969, "pitch": 59, "duration": 8, "velocity": 76}, {"time": 2975, "pitch": 63, "duration": 3, "velocity": 80}, {"time": 2978, "pitch": 66, "duration": 4, "velocity": 83}, {"time": 2981, "pitch": 59, "duration": 4, "velocity": 84}, {"time": 2984, "pitch": 64, "duration": 3, "velocity": 91}, {"time": 2987, "pitch": 63, "duration": 2, "velocity": 78}, {"time": 2993, "pitch": 49, "duration": 18, "velocity": 84}, {"time": 2993, "pitch": 56, "duration": 13, "velocity": 75}, {"time": 2993, "pitch": 59, "duration": 9, "velocity": 94}, {"time": 2993, "pitch": 64, "duration": 9, "velocity": 86}, {"time": 3005, "pitch": 59, "duration": 7, "velocity": 91}, {"time": 3005, "pitch": 64, "duration": 6, "velocity": 94}, {"time": 3011, "pitch": 56, "duration": 1, "velocity": 79}, {"time": 3017, "pitch": 46, "duration": 19, "velocity": 91}, {"time": 3017, "pitch": 61, "duration": 7, "velocity": 84}, {"time": 3017, "pitch": 64, "duration": 7, "velocity": 91}, {"time": 3023, "pitch": 58, "duration": 5, "velocity": 73}, {"time": 3029, "pitch": 61, "duration": 6, "velocity": 93}, {"time": 3029, "pitch": 64, "duration": 10, "velocity": 99}, {"time": 3035, "pitch": 58, "duration": 1, "velocity": 90}, {"time": 3038, "pitch": 63, "duration": 3, "velocity": 52}, {"time": 3041, "pitch": 39, "duration": 6, "velocity": 86}, {"time": 3041, "pitch": 67, "duration": 19, "velocity": 62}, {"time": 3041, "pitch": 70, "duration": 17, "velocity": 90}, {"time": 3047, "pitch": 51, "duration": 6, "velocity": 82}, {"time": 3053, "pitch": 56, "duration": 25, "velocity": 79}, {"time": 3059, "pitch": 58, "duration": 19, "velocity": 81}, {"time": 3065, "pitch": 63, "duration": 2, "velocity": 84}, {"time": 3068, "pitch": 68, "duration": 3, "velocity": 75}, {"time": 3071, "pitch": 70, "duration": 1, "velocity": 84}, {"time": 3074, "pitch": 75, "duration": 1, "velocity": 83}, {"time": 3077, "pitch": 80, "duration": 3, "velocity": 76}, {"time": 3080, "pitch": 82, "duration": 4, "velocity": 78}, {"time": 3083, "pitch": 85, "duration": 3, "velocity": 77}, {"time": 3086, "pitch": 87, "duration": 1, "velocity": 84}, {"time": 3095, "pitch": 47, "duration": 4, "velocity": 81}, {"time": 3095, "pitch": 59, "duration": 3, "velocity": 60}, {"time": 3095, "pitch": 63, "duration": 3, "velocity": 80}, {"time": 3095, "pitch": 66, "duration": 3, "velocity": 84}, {"time": 3095, "pitch": 71, "duration": 3, "velocity": 84}, {"time": 3101, "pitch": 47, "duration": 3, "velocity": 81}, {"time": 3101, "pitch": 59, "duration": 3, "velocity": 75}, {"time": 3101, "pitch": 63, "duration": 3, "velocity": 76}, {"time": 3101, "pitch": 66, "duration": 3, "velocity": 80}, {"time": 3101, "pitch": 71, "duration": 3, "velocity": 84}, {"time": 3107, "pitch": 47, "duration": 20, "velocity": 86}, {"time": 3107, "pitch": 59, "duration": 9, "velocity": 93}, {"time": 3107, "pitch": 63, "duration": 13, "velocity": 81}, {"time": 3107, "pitch": 66, "duration": 14, "velocity": 83}, {"time": 3107, "pitch": 71, "duration": 13, "velocity": 91}, {"time": 3122, "pitch": 59, "duration": 4, "velocity": 4}, {"time": 3125, "pitch": 63, "duration": 7, "velocity": 84}, {"time": 3125, "pitch": 66, "duration": 6, "velocity": 93}, {"time": 3125, "pitch": 71, "duration": 7, "velocity": 93}, {"time": 3131, "pitch": 47, "duration": 1, "velocity": 90}, {"time": 3131, "pitch": 59, "duration": 1, "velocity": 78}, {"time": 3143, "pitch": 42, "duration": 16, "velocity": 84}, {"time": 3143, "pitch": 54, "duration": 3, "velocity": 50}, {"time": 3143, "pitch": 61, "duration": 7, "velocity": 72}, {"time": 3143, "pitch": 66, "duration": 7, "velocity": 78}, {"time": 3143, "pitch": 70, "duration": 6, "velocity": 77}, {"time": 3149, "pitch": 54, "duration": 5, "velocity": 60}, {"time": 3155, "pitch": 61, "duration": 3, "velocity": 78}, {"time": 3155, "pitch": 68, "duration": 3, "velocity": 83}, {"time": 3158, "pitch": 66, "duration": 1, "velocity": 79}, {"time": 3158, "pitch": 70, "duration": 1, "velocity": 71}, {"time": 3161, "pitch": 42, "duration": 19, "velocity": 86}, {"time": 3161, "pitch": 54, "duration": 4, "velocity": 78}, {"time": 3161, "pitch": 61, "duration": 6, "velocity": 80}, {"time": 3161, "pitch": 66, "duration": 1, "velocity": 70}, {"time": 3161, "pitch": 70, "duration": 6, "velocity": 94}, {"time": 3167, "pitch": 54, "duration": 2, "velocity": 62}, {"time": 3167, "pitch": 66, "duration": 1, "velocity": 58}, {"time": 3170, "pitch": 61, "duration": 4, "velocity": 83}, {"time": 3170, "pitch": 66, "duration": 5, "velocity": 83}, {"time": 3170, "pitch": 73, "duration": 4, "velocity": 94}, {"time": 3173, "pitch": 54, "duration": 2, "velocity": 82}, {"time": 3176, "pitch": 61, "duration": 4, "velocity": 83}, {"time": 3176, "pitch": 68, "duration": 1, "velocity": 83}, {"time": 3176, "pitch": 70, "duration": 2, "velocity": 80}, {"time": 3179, "pitch": 54, "duration": 1, "velocity": 61}, {"time": 3185, "pitch": 37, "duration": 39, "velocity": 84}, {"time": 3185, "pitch": 49, "duration": 5, "velocity": 79}, {"time": 3185, "pitch": 59, "duration": 7, "velocity": 93}, {"time": 3185, "pitch": 64, "duration": 8, "velocity": 84}, {"time": 3185, "pitch": 68, "duration": 6, "velocity": 90}, {"time": 3191, "pitch": 49, "duration": 5, "velocity": 62}, {"time": 3197, "pitch": 59, "duration": 5, "velocity": 84}, {"time": 3197, "pitch": 64, "duration": 5, "velocity": 83}, {"time": 3197, "pitch": 68, "duration": 5, "velocity": 84}, {"time": 3203, "pitch": 49, "duration": 7, "velocity": 62}, {"time": 3203, "pitch": 59, "duration": 1, "velocity": 38}, {"time": 3203, "pitch": 66, "duration": 4, "velocity": 83}, {"time": 3209, "pitch": 59, "duration": 7, "velocity": 84}, {"time": 3209, "pitch": 64, "duration": 7, "velocity": 83}, {"time": 3209, "pitch": 68, "duration": 5, "velocity": 83}, {"time": 3215, "pitch": 49, "duration": 5, "velocity": 55}, {"time": 3221, "pitch": 59, "duration": 2, "velocity": 86}, {"time": 3221, "pitch": 64, "duration": 2, "velocity": 86}, {"time": 3221, "pitch": 68, "duration": 3, "velocity": 82}, {"time": 3224, "pitch": 49, "duration": 3, "velocity": 79}, {"time": 3227, "pitch": 66, "duration": 2, "velocity": 75}, {"time": 3230, "pitch": 68, "duration": 3, "velocity": 78}, {"time": 3233, "pitch": 44, "duration": 42, "velocity": 80}, {"time": 3233, "pitch": 63, "duration": 4, "velocity": 78}, {"time": 3233, "pitch": 71, "duration": 6, "velocity": 90}, {"time": 3239, "pitch": 51, "duration": 18, "velocity": 72}, {"time": 3239, "pitch": 63, "duration": 1, "velocity": 74}, {"time": 3239, "pitch": 70, "duration": 2, "velocity": 83}, {"time": 3242, "pitch": 63, "duration": 3, "velocity": 82}, {"time": 3242, "pitch": 71, "duration": 4, "velocity": 90}, {"time": 3245, "pitch": 56, "duration": 3, "velocity": 61}, {"time": 3248, "pitch": 61, "duration": 1, "velocity": 84}, {"time": 3248, "pitch": 70, "duration": 1, "velocity": 86}, {"time": 3251, "pitch": 56, "duration": 3, "velocity": 52}, {"time": 3254, "pitch": 59, "duration": 6, "velocity": 83}, {"time": 3254, "pitch": 68, "duration": 4, "velocity": 91}, {"time": 3260, "pitch": 51, "duration": 10, "velocity": 11}, {"time": 3260, "pitch": 56, "duration": 6, "velocity": 76}, {"time": 3263, "pitch": 58, "duration": 3, "velocity": 86}, {"time": 3266, "pitch": 59, "duration": 1, "velocity": 80}, {"time": 3269, "pitch": 56, "duration": 4, "velocity": 57}, {"time": 3269, "pitch": 63, "duration": 3, "velocity": 84}, {"time": 3272, "pitch": 68, "duration": 1, "velocity": 60}, {"time": 3272, "pitch": 70, "duration": 1, "velocity": 58}, {"time": 3275, "pitch": 51, "duration": 1, "velocity": 80}, {"time": 3275, "pitch": 68, "duration": 1, "velocity": 38}, {"time": 3275, "pitch": 70, "duration": 2, "velocity": 84}, {"time": 3278, "pitch": 71, "duration": 12, "velocity": 86}, {"time": 3281, "pitch": 40, "duration": 42, "velocity": 84}, {"time": 3281, "pitch": 59, "duration": 7, "velocity": 86}, {"time": 3281, "pitch": 64, "duration": 6, "velocity": 83}, {"time": 3281, "pitch": 68, "duration": 7, "velocity": 83}, {"time": 3287, "pitch": 52, "duration": 8, "velocity": 37}, {"time": 3293, "pitch": 59, "duration": 7, "velocity": 84}, {"time": 3293, "pitch": 64, "duration": 6, "velocity": 82}, {"time": 3293, "pitch": 68, "duration": 6, "velocity": 80}, {"time": 3299, "pitch": 52, "duration": 7, "velocity": 50}, {"time": 3305, "pitch": 59, "duration": 7, "velocity": 80}, {"time": 3305, "pitch": 64, "duration": 7, "velocity": 83}, {"time": 3305, "pitch": 68, "duration": 7, "velocity": 80}, {"time": 3311, "pitch": 52, "duration": 6, "velocity": 70}, {"time": 3317, "pitch": 59, "duration": 3, "velocity": 86}, {"time": 3317, "pitch": 66, "duration": 4, "velocity": 90}, {"time": 3320, "pitch": 52, "duration": 2, "velocity": 62}, {"time": 3323, "pitch": 64, "duration": 2, "velocity": 81}, {"time": 3326, "pitch": 66, "duration": 2, "velocity": 75}, {"time": 3329, "pitch": 39, "duration": 42, "velocity": 91}, {"time": 3329, "pitch": 59, "duration": 7, "velocity": 81}, {"time": 3329, "pitch": 63, "duration": 7, "velocity": 82}, {"time": 3329, "pitch": 66, "duration": 7, "velocity": 80}, {"time": 3335, "pitch": 51, "duration": 8, "velocity": 59}, {"time": 3341, "pitch": 59, "duration": 4, "velocity": 82}, {"time": 3341, "pitch": 63, "duration": 4, "velocity": 83}, {"time": 3341, "pitch": 66, "duration": 4, "velocity": 82}, {"time": 3347, "pitch": 51, "duration": 8, "velocity": 54}, {"time": 3353, "pitch": 54, "duration": 7, "velocity": 80}, {"time": 3353, "pitch": 59, "duration": 6, "velocity": 86}, {"time": 3353, "pitch": 66, "duration": 7, "velocity": 84}, {"time": 3359, "pitch": 51, "duration": 6, "velocity": 56}, {"time": 3365, "pitch": 54, "duration": 6, "velocity": 83}, {"time": 3365, "pitch": 59, "duration": 6, "velocity": 93}, {"time": 3365, "pitch": 66, "duration": 5, "velocity": 84}, {"time": 3371, "pitch": 51, "duration": 1, "velocity": 80}, {"time": 3377, "pitch": 49, "duration": 19, "velocity": 86}, {"time": 3377, "pitch": 64, "duration": 5, "velocity": 84}, {"time": 3377, "pitch": 68, "duration": 6, "velocity": 82}, {"time": 3383, "pitch": 56, "duration": 7, "velocity": 68}, {"time": 3383, "pitch": 63, "duration": 4, "velocity": 69}, {"time": 3383, "pitch": 66, "duration": 5, "velocity": 80}, {"time": 3389, "pitch": 61, "duration": 6, "velocity": 79}, {"time": 3389, "pitch": 63, "duration": 1, "velocity": 47}, {"time": 3389, "pitch": 64, "duration": 1, "velocity": 83}, {"time": 3389, "pitch": 68, "duration": 1, "velocity": 81}, {"time": 3395, "pitch": 56, "duration": 3, "velocity": 81}, {"time": 3395, "pitch": 68, "duration": 3, "velocity": 79}, {"time": 3395, "pitch": 76, "duration": 4, "velocity": 90}, {"time": 3401, "pitch": 46, "duration": 6, "velocity": 91}, {"time": 3401, "pitch": 68, "duration": 4, "velocity": 80}, {"time": 3401, "pitch": 75, "duration": 5, "velocity": 86}, {"time": 3407, "pitch": 56, "duration": 6, "velocity": 57}, {"time": 3407, "pitch": 68, "duration": 4, "velocity": 75}, {"time": 3407, "pitch": 73, "duration": 5, "velocity": 83}, {"time": 3413, "pitch": 58, "duration": 3, "velocity": 80}, {"time": 3413, "pitch": 71, "duration": 5, "velocity": 94}, {"time": 3419, "pitch": 68, "duration": 5, "velocity": 90}, {"time": 3425, "pitch": 39, "duration": 5, "velocity": 84}, {"time": 3425, "pitch": 70, "duration": 15, "velocity": 94}, {"time": 3431, "pitch": 51, "duration": 6, "velocity": 71}, {"time": 3437, "pitch": 56, "duration": 25, "velocity": 76}, {"time": 3443, "pitch": 58, "duration": 18, "velocity": 83}, {"time": 3449, "pitch": 63, "duration": 7, "velocity": 83}, {"time": 3455, "pitch": 68, "duration": 5, "velocity": 79}, {"time": 3461, "pitch": 70, "duration": 1, "velocity": 80}, {"time": 3467, "pitch": 75, "duration": 3, "velocity": 79}, {"time": 3473, "pitch": 56, "duration": 19, "velocity": 57}, {"time": 3473, "pitch": 83, "duration": 5, "velocity": 80}, {"time": 3479, "pitch": 63, "duration": 10, "velocity": 68}, {"time": 3479, "pitch": 82, "duration": 5, "velocity": 77}, {"time": 3485, "pitch": 68, "duration": 5, "velocity": 57}, {"time": 3485, "pitch": 75, "duration": 5, "velocity": 68}, {"time": 3485, "pitch": 83, "duration": 8, "velocity": 79}, {"time": 3494, "pitch": 73, "duration": 4, "velocity": 58}, {"time": 3497, "pitch": 54, "duration": 17, "velocity": 71}, {"time": 3497, "pitch": 78, "duration": 3, "velocity": 68}, {"time": 3497, "pitch": 82, "duration": 4, "velocity": 80}, {"time": 3503, "pitch": 63, "duration": 11, "velocity": 60}, {"time": 3509, "pitch": 66, "duration": 3, "velocity": 56}, {"time": 3509, "pitch": 73, "duration": 5, "velocity": 78}, {"time": 3515, "pitch": 70, "duration": 7, "velocity": 75}, {"time": 3521, "pitch": 52, "duration": 18, "velocity": 71}, {"time": 3521, "pitch": 71, "duration": 12, "velocity": 83}, {"time": 3527, "pitch": 59, "duration": 11, "velocity": 56}, {"time": 3533, "pitch": 64, "duration": 3, "velocity": 58}, {"time": 3533, "pitch": 66, "duration": 6, "velocity": 60}, {"time": 3533, "pitch": 73, "duration": 5, "velocity": 80}, {"time": 3539, "pitch": 75, "duration": 5, "velocity": 73}, {"time": 3545, "pitch": 51, "duration": 16, "velocity": 77}, {"time": 3545, "pitch": 66, "duration": 9, "velocity": 61}, {"time": 3545, "pitch": 71, "duration": 6, "velocity": 79}, {"time": 3551, "pitch": 59, "duration": 10, "velocity": 41}, {"time": 3557, "pitch": 63, "duration": 3, "velocity": 39}, {"time": 3569, "pitch": 49, "duration": 15, "velocity": 68}, {"time": 3569, "pitch": 59, "duration": 5, "velocity": 62}, {"time": 3569, "pitch": 64, "duration": 5, "velocity": 77}, {"time": 3569, "pitch": 68, "duration": 5, "velocity": 72}, {"time": 3575, "pitch": 56, "duration": 12, "velocity": 62}, {"time": 3581, "pitch": 59, "duration": 5, "velocity": 79}, {"time": 3587, "pitch": 68, "duration": 5, "velocity": 73}, {"time": 3593, "pitch": 51, "duration": 23, "velocity": 55}, {"time": 3593, "pitch": 58, "duration": 23, "velocity": 75}, {"time": 3593, "pitch": 63, "duration": 36, "velocity": 44}, {"time": 3593, "pitch": 67, "duration": 23, "velocity": 73}, {"time": 3620, "pitch": 71, "duration": 12, "velocity": 75}, {"time": 3623, "pitch": 44, "duration": 13, "velocity": 63}, {"time": 3629, "pitch": 51, "duration": 7, "velocity": 62}, {"time": 3629, "pitch": 70, "duration": 5, "velocity": 71}, {"time": 3635, "pitch": 56, "duration": 2, "velocity": 25}, {"time": 3635, "pitch": 68, "duration": 10, "velocity": 62}, {"time": 3647, "pitch": 63, "duration": 4, "velocity": 48}, {"time": 3653, "pitch": 66, "duration": 1, "velocity": 59}, {"time": 3665, "pitch": 68, "duration": 25, "velocity": 72}, {"time": 3665, "pitch": 61, "duration": 24, "velocity": 69}, {"time": 3665, "pitch": 64, "duration": 25, "velocity": 74}, {"time": 3665, "pitch": 49, "duration": 28, "velocity": 79}, {"time": 3693, "pitch": 51, "duration": 49, "velocity": 69}, {"time": 3693, "pitch": 61, "duration": 46, "velocity": 57}, {"time": 3694, "pitch": 67, "duration": 44, "velocity": 67}, {"time": 3694, "pitch": 70, "duration": 46, "velocity": 71}], "annotations": [{"time": 4, "annotation": {"number": 64, "value": 127}, "group": "control_change"}, {"time": 26, "annotation": {"number": 64, "value": 0}, "group": "control_change"}, {"time": 89, "annotation": {"number": 64, "value": 127}, "group": "control_change"}, {"time": 100, "annotation": {"number": 64, "value": 0}, "group": "control_change"}, {"time": 102, "annotation": {"number": 64, "value": 127}, "group": "control_change"}, {"time": 113, "annotation": {"number": 64, "value": 0}, "group": "control_change"}, {"time": 115, "annotation": {"number": 64, "value": 127}, "group": "control_change"}, {"time": 125, "annotation": {"number": 64, "value": 0}, "group": "control_change"}, {"time": 125, "annotation": {"number": 64, "value": 127}, "group": "control_change"}, {"time": 149, "annotation": {"number": 64, "value": 0}, "group": "control_change"}, {"time": 151, "annotation": {"number": 64, "value": 127}, "group": "control_change"}, {"time": 161, "annotation": {"number": 64, "value": 0}, "group": "control_change"}, {"time": 163, "annotation": {"number": 64, "value": 127}, "group": "control_change"}, {"time": 210, "annotation": {"number": 64, "value": 0}, "group": "control_change"}, {"time": 212, "annotation": {"number": 64, "value": 127}, "group": "control_change"}, {"time": 278, "annotation": {"number": 64, "value": 0}, "group": "control_change"}, {"time": 305, "annotation": {"number": 64, "value": 127}, "group": "control_change"}, {"time": 329, "annotation": {"number": 64, "value": 0}, "group": "control_change"}, {"time": 334, "annotation": {"number": 64, "value": 127}, "group": "control_change"}, {"time": 353, "annotation": {"number": 64, "value": 0}, "group": "control_change"}, {"time": 359, "annotation": {"number": 64, "value": 127}, "group": "control_change"}, {"time": 375, "annotation": {"number": 64, "value": 0}, "group": "control_change"}, {"time": 383, "annotation": {"number": 64, "value": 127}, "group": "control_change"}, {"time": 402, "annotation": {"number": 64, "value": 0}, "group": "control_change"}, {"time": 408, "annotation": {"number": 64, "value": 127}, "group": "control_change"}, {"time": 424, "annotation": {"number": 64, "value": 0}, "group": "control_change"}, {"time": 430, "annotation": {"number": 64, "value": 127}, "group": "control_change"}, {"time": 448, "annotation": {"number": 64, "value": 0}, "group": "control_change"}, {"time": 452, "annotation": {"number": 64, "value": 127}, "group": "control_change"}, {"time": 471, "annotation": {"number": 64, "value": 0}, "group": "control_change"}, {"time": 474, "annotation": {"number": 64, "value": 127}, "group": "control_change"}, {"time": 496, "annotation": {"number": 64, "value": 0}, "group": "control_change"}, {"time": 500, "annotation": {"number": 64, "value": 127}, "group": "control_change"}, {"time": 500, "annotation": {"number": 64, "value": 0}, "group": "control_change"}, {"time": 520, "annotation": {"number": 64, "value": 0}, "group": "control_change"}, {"time": 525, "annotation": {"number": 64, "value": 127}, "group": "control_change"}, {"time": 525, "annotation": {"number": 64, "value": 0}, "group": "control_change"}, {"time": 544, "annotation": {"number": 64, "value": 0}, "group": "control_change"}, {"time": 550, "annotation": {"number": 64, "value": 127}, "group": "control_change"}, {"time": 568, "annotation": {"number": 64, "value": 0}, "group": "control_change"}, {"time": 573, "annotation": {"number": 64, "value": 127}, "group": "control_change"}, {"time": 592, "annotation": {"number": 64, "value": 0}, "group": "control_change"}, {"time": 599, "annotation": {"number": 64, "value": 127}, "group": "control_change"}, {"time": 616, "annotation": {"number": 64, "value": 0}, "group": "control_change"}, {"time": 621, "annotation": {"number": 64, "value": 127}, "group": "control_change"}, {"time": 639, "annotation": {"number": 64, "value": 0}, "group": "control_change"}, {"time": 645, "annotation": {"number": 64, "value": 127}, "group": "control_change"}, {"time": 688, "annotation": {"number": 64, "value": 0}, "group": "control_change"}, {"time": 690, "annotation": {"number": 64, "value": 127}, "group": "control_change"}, {"time": 735, "annotation": {"number": 64, "value": 0}, "group": "control_change"}, {"time": 740, "annotation": {"number": 64, "value": 127}, "group": "control_change"}, {"time": 771, "annotation": {"number": 64, "value": 0}, "group": "control_change"}, {"time": 773, "annotation": {"number": 64, "value": 127}, "group": "control_change"}, {"time": 784, "annotation": {"number": 64, "value": 0}, "group": "control_change"}, {"time": 789, "annotation": {"number": 64, "value": 127}, "group": "control_change"}, {"time": 832, "annotation": {"number": 64, "value": 0}, "group": "control_change"}, {"time": 838, "annotation": {"number": 64, "value": 127}, "group": "control_change"}, {"time": 868, "annotation": {"number": 64, "value": 0}, "group": "control_change"}, {"time": 872, "annotation": {"number": 64, "value": 127}, "group": "control_change"}, {"time": 880, "annotation": {"number": 64, "value": 0}, "group": "control_change"}, {"time": 886, "annotation": {"number": 64, "value": 127}, "group": "control_change"}, {"time": 886, "annotation": {"number": 64, "value": 0}, "group": "control_change"}, {"time": 927, "annotation": {"number": 64, "value": 0}, "group": "control_change"}, {"time": 934, "annotation": {"number": 64, "value": 127}, "group": "control_change"}, {"time": 976, "annotation": {"number": 64, "value": 0}, "group": "control_change"}, {"time": 978, "annotation": {"number": 64, "value": 127}, "group": "control_change"}, {"time": 999, "annotation": {"number": 64, "value": 0}, "group": "control_change"}, {"time": 1003, "annotation": {"number": 64, "value": 127}, "group": "control_change"}, {"time": 1025, "annotation": {"number": 64, "value": 0}, "group": "control_change"}, {"time": 1028, "annotation": {"number": 64, "value": 127}, "group": "control_change"}, {"time": 1072, "annotation": {"number": 64, "value": 0}, "group": "control_change"}, {"time": 1078, "annotation": {"number": 64, "value": 127}, "group": "control_change"}, {"time": 1118, "annotation": {"number": 64, "value": 0}, "group": "control_change"}, {"time": 1121, "annotation": {"number": 64, "value": 127}, "group": "control_change"}, {"time": 1156, "annotation": {"number": 64, "value": 0}, "group": "control_change"}, {"time": 1156, "annotation": {"number": 64, "value": 127}, "group": "control_change"}, {"time": 1160, "annotation": {"number": 64, "value": 127}, "group": "control_change"}, {"time": 1167, "annotation": {"number": 64, "value": 0}, "group": "control_change"}, {"time": 1175, "annotation": {"number": 64, "value": 127}, "group": "control_change"}, {"time": 1216, "annotation": {"number": 64, "value": 0}, "group": "control_change"}, {"time": 1219, "annotation": {"number": 64, "value": 127}, "group": "control_change"}, {"time": 1264, "annotation": {"number": 64, "value": 0}, "group": "control_change"}, {"time": 1264, "annotation": {"number": 64, "value": 127}, "group": "control_change"}, {"time": 1268, "annotation": {"number": 64, "value": 127}, "group": "control_change"}, {"time": 1313, "annotation": {"number": 64, "value": 0}, "group": "control_change"}, {"time": 1318, "annotation": {"number": 64, "value": 127}, "group": "control_change"}, {"time": 1363, "annotation": {"number": 64, "value": 0}, "group": "control_change"}, {"time": 1367, "annotation": {"number": 64, "value": 127}, "group": "control_change"}, {"time": 1385, "annotation": {"number": 64, "value": 0}, "group": "control_change"}, {"time": 1389, "annotation": {"number": 64, "value": 127}, "group": "control_change"}, {"time": 1408, "annotation": {"number": 64, "value": 0}, "group": "control_change"}, {"time": 1457, "annotation": {"number": 64, "value": 0}, "group": "control_change"}, {"time": 1460, "annotation": {"number": 64, "value": 127}, "group": "control_change"}, {"time": 1460, "annotation": {"number": 64, "value": 0}, "group": "control_change"}, {"time": 1461, "annotation": {"number": 64, "value": 127}, "group": "control_change"}, {"time": 1504, "annotation": {"number": 64, "value": 0}, "group": "control_change"}, {"time": 1511, "annotation": {"number": 64, "value": 127}, "group": "control_change"}, {"time": 1599, "annotation": {"number": 64, "value": 0}, "group": "control_change"}, {"time": 1601, "annotation": {"number": 64, "value": 127}, "group": "control_change"}, {"time": 1647, "annotation": {"number": 64, "value": 0}, "group": "control_change"}, {"time": 1650, "annotation": {"number": 64, "value": 127}, "group": "control_change"}, {"time": 1683, "annotation": {"number": 64, "value": 0}, "group": "control_change"}, {"time": 1685, "annotation": {"number": 64, "value": 127}, "group": "control_change"}, {"time": 1696, "annotation": {"number": 64, "value": 0}, "group": "control_change"}, {"time": 1701, "annotation": {"number": 64, "value": 127}, "group": "control_change"}, {"time": 1701, "annotation": {"number": 64, "value": 0}, "group": "control_change"}, {"time": 1743, "annotation": {"number": 64, "value": 0}, "group": "control_change"}, {"time": 1747, "annotation": {"number": 64, "value": 127}, "group": "control_change"}, {"time": 1767, "annotation": {"number": 64, "value": 0}, "group": "control_change"}, {"time": 1770, "annotation": {"number": 64, "value": 127}, "group": "control_change"}, {"time": 1793, "annotation": {"number": 64, "value": 0}, "group": "control_change"}, {"time": 1795, "annotation": {"number": 64, "value": 127}, "group": "control_change"}, {"time": 1818, "annotation": {"number": 64, "value": 0}, "group": "control_change"}, {"time": 1822, "annotation": {"number": 64, "value": 127}, "group": "control_change"}, {"time": 1842, "annotation": {"number": 64, "value": 0}, "group": "control_change"}, {"time": 1845, "annotation": {"number": 64, "value": 127}, "group": "control_change"}, {"time": 1910, "annotation": {"number": 64, "value": 0}, "group": "control_change"}, {"time": 1938, "annotation": {"number": 64, "value": 127}, "group": "control_change"}, {"time": 1961, "annotation": {"number": 64, "value": 0}, "group": "control_change"}, {"time": 1967, "annotation": {"number": 64, "value": 127}, "group": "control_change"}, {"time": 1985, "annotation": {"number": 64, "value": 0}, "group": "control_change"}, {"time": 1985, "annotation": {"number": 64, "value": 127}, "group": "control_change"}, {"time": 1991, "annotation": {"number": 64, "value": 127}, "group": "control_change"}, {"time": 2008, "annotation": {"number": 64, "value": 0}, "group": "control_change"}, {"time": 2015, "annotation": {"number": 64, "value": 127}, "group": "control_change"}, {"time": 2032, "annotation": {"number": 64, "value": 0}, "group": "control_change"}, {"time": 2032, "annotation": {"number": 64, "value": 127}, "group": "control_change"}, {"time": 2039, "annotation": {"number": 64, "value": 127}, "group": "control_change"}, {"time": 2058, "annotation": {"number": 64, "value": 0}, "group": "control_change"}, {"time": 2064, "annotation": {"number": 64, "value": 127}, "group": "control_change"}, {"time": 2078, "annotation": {"number": 64, "value": 0}, "group": "control_change"}, {"time": 2086, "annotation": {"number": 64, "value": 127}, "group": "control_change"}, {"time": 2105, "annotation": {"number": 64, "value": 0}, "group": "control_change"}, {"time": 2110, "annotation": {"number": 64, "value": 127}, "group": "control_change"}, {"time": 2117, "annotation": {"number": 64, "value": 0}, "group": "control_change"}, {"time": 2122, "annotation": {"number": 64, "value": 127}, "group": "control_change"}, {"time": 2129, "annotation": {"number": 64, "value": 0}, "group": "control_change"}, {"time": 2135, "annotation": {"number": 64, "value": 127}, "group": "control_change"}, {"time": 2151, "annotation": {"number": 64, "value": 0}, "group": "control_change"}, {"time": 2158, "annotation": {"number": 64, "value": 127}, "group": "control_change"}, {"time": 2176, "annotation": {"number": 64, "value": 0}, "group": "control_change"}, {"time": 2182, "annotation": {"number": 64, "value": 127}, "group": "control_change"}, {"time": 2199, "annotation": {"number": 64, "value": 0}, "group": "control_change"}, {"time": 2206, "annotation": {"number": 64, "value": 127}, "group": "control_change"}, {"time": 2225, "annotation": {"number": 64, "value": 0}, "group": "control_change"}, {"time": 2231, "annotation": {"number": 64, "value": 127}, "group": "control_change"}, {"time": 2231, "annotation": {"number": 64, "value": 0}, "group": "control_change"}, {"time": 2248, "annotation": {"number": 64, "value": 0}, "group": "control_change"}, {"time": 2254, "annotation": {"number": 64, "value": 127}, "group": "control_change"}, {"time": 2271, "annotation": {"number": 64, "value": 0}, "group": "control_change"}, {"time": 2278, "annotation": {"number": 64, "value": 127}, "group": "control_change"}, {"time": 2319, "annotation": {"number": 64, "value": 0}, "group": "control_change"}, {"time": 2322, "annotation": {"number": 64, "value": 127}, "group": "control_change"}, {"time": 2367, "annotation": {"number": 64, "value": 0}, "group": "control_change"}, {"time": 2372, "annotation": {"number": 64, "value": 127}, "group": "control_change"}, {"time": 2403, "annotation": {"number": 64, "value": 0}, "group": "control_change"}, {"time": 2405, "annotation": {"number": 64, "value": 127}, "group": "control_change"}, {"time": 2416, "annotation": {"number": 64, "value": 0}, "group": "control_change"}, {"time": 2421, "annotation": {"number": 64, "value": 127}, "group": "control_change"}, {"time": 2464, "annotation": {"number": 64, "value": 0}, "group": "control_change"}, {"time": 2470, "annotation": {"number": 64, "value": 127}, "group": "control_change"}, {"time": 2500, "annotation": {"number": 64, "value": 0}, "group": "control_change"}, {"time": 2504, "annotation": {"number": 64, "value": 127}, "group": "control_change"}, {"time": 2512, "annotation": {"number": 64, "value": 0}, "group": "control_change"}, {"time": 2518, "annotation": {"number": 64, "value": 127}, "group": "control_change"}, {"time": 2518, "annotation": {"number": 64, "value": 0}, "group": "control_change"}, {"time": 2559, "annotation": {"number": 64, "value": 0}, "group": "control_change"}, {"time": 2566, "annotation": {"number": 64, "value": 127}, "group": "control_change"}, {"time": 2608, "annotation": {"number": 64, "value": 0}, "group": "control_change"}, {"time": 2610, "annotation": {"number": 64, "value": 127}, "group": "control_change"}, {"time": 2631, "annotation": {"number": 64, "value": 0}, "group": "control_change"}, {"time": 2635, "annotation": {"number": 64, "value": 127}, "group": "control_change"}, {"time": 2657, "annotation": {"number": 64, "value": 0}, "group": "control_change"}, {"time": 2660, "annotation": {"number": 64, "value": 127}, "group": "control_change"}, {"time": 2704, "annotation": {"number": 64, "value": 0}, "group": "control_change"}, {"time": 2710, "annotation": {"number": 64, "value": 127}, "group": "control_change"}, {"time": 2750, "annotation": {"number": 64, "value": 0}, "group": "control_change"}, {"time": 2753, "annotation": {"number": 64, "value": 127}, "group": "control_change"}, {"time": 2788, "annotation": {"number": 64, "value": 0}, "group": "control_change"}, {"time": 2788, "annotation": {"number": 64, "value": 127}, "group": "control_change"}, {"time": 2792, "annotation": {"number": 64, "value": 127}, "group": "control_change"}, {"time": 2799, "annotation": {"number": 64, "value": 0}, "group": "control_change"}, {"time": 2807, "annotation": {"number": 64, "value": 127}, "group": "control_change"}, {"time": 2848, "annotation": {"number": 64, "value": 0}, "group": "control_change"}, {"time": 2851, "annotation": {"number": 64, "value": 127}, "group": "control_change"}, {"time": 2896, "annotation": {"number": 64, "value": 0}, "group": "control_change"}, {"time": 2896, "annotation": {"number": 64, "value": 127}, "group": "control_change"}, {"time": 2900, "annotation": {"number": 64, "value": 127}, "group": "control_change"}, {"time": 2945, "annotation": {"number": 64, "value": 0}, "group": "control_change"}, {"time": 2950, "annotation": {"number": 64, "value": 127}, "group": "control_change"}, {"time": 2995, "annotation": {"number": 64, "value": 0}, "group": "control_change"}, {"time": 2999, "annotation": {"number": 64, "value": 127}, "group": "control_change"}, {"time": 3017, "annotation": {"number": 64, "value": 0}, "group": "control_change"}, {"time": 3021, "annotation": {"number": 64, "value": 127}, "group": "control_change"}, {"time": 3040, "annotation": {"number": 64, "value": 0}, "group": "control_change"}, {"time": 3093, "annotation": {"number": 64, "value": 127}, "group": "control_change"}, {"time": 3107, "annotation": {"number": 64, "value": 0}, "group": "control_change"}, {"time": 3111, "annotation": {"number": 64, "value": 127}, "group": "control_change"}, {"time": 3133, "annotation": {"number": 64, "value": 0}, "group": "control_change"}, {"time": 3144, "annotation": {"number": 64, "value": 127}, "group": "control_change"}, {"time": 3183, "annotation": {"number": 64, "value": 0}, "group": "control_change"}, {"time": 3190, "annotation": {"number": 64, "value": 127}, "group": "control_change"}, {"time": 3231, "annotation": {"number": 64, "value": 0}, "group": "control_change"}, {"time": 3232, "annotation": {"number": 64, "value": 127}, "group": "control_change"}, {"time": 3232, "annotation": {"number": 64, "value": 0}, "group": "control_change"}, {"time": 3237, "annotation": {"number": 64, "value": 127}, "group": "control_change"}, {"time": 3238, "annotation": {"number": 64, "value": 0}, "group": "control_change"}, {"time": 3238, "annotation": {"number": 64, "value": 127}, "group": "control_change"}, {"time": 3281, "annotation": {"number": 64, "value": 0}, "group": "control_change"}, {"time": 3287, "annotation": {"number": 64, "value": 127}, "group": "control_change"}, {"time": 3331, "annotation": {"number": 64, "value": 0}, "group": "control_change"}, {"time": 3336, "annotation": {"number": 64, "value": 127}, "group": "control_change"}, {"time": 3377, "annotation": {"number": 64, "value": 0}, "group": "control_change"}, {"time": 3378, "annotation": {"number": 64, "value": 127}, "group": "control_change"}, {"time": 3402, "annotation": {"number": 64, "value": 0}, "group": "control_change"}, {"time": 3403, "annotation": {"number": 64, "value": 127}, "group": "control_change"}, {"time": 3403, "annotation": {"number": 64, "value": 0}, "group": "control_change"}, {"time": 3407, "annotation": {"number": 64, "value": 127}, "group": "control_change"}, {"time": 3425, "annotation": {"number": 64, "value": 0}, "group": "control_change"}, {"time": 3430, "annotation": {"number": 64, "value": 127}, "group": "control_change"}, {"time": 3473, "annotation": {"number": 64, "value": 0}, "group": "control_change"}, {"time": 3478, "annotation": {"number": 64, "value": 127}, "group": "control_change"}, {"time": 3497, "annotation": {"number": 64, "value": 0}, "group": "control_change"}, {"time": 3502, "annotation": {"number": 64, "value": 127}, "group": "control_change"}, {"time": 3521, "annotation": {"number": 64, "value": 0}, "group": "control_change"}, {"time": 3527, "annotation": {"number": 64, "value": 127}, "group": "control_change"}, {"time": 3544, "annotation": {"number": 64, "value": 0}, "group": "control_change"}, {"time": 3550, "annotation": {"number": 64, "value": 127}, "group": "control_change"}, {"time": 3570, "annotation": {"number": 64, "value": 0}, "group": "control_change"}, {"time": 3574, "annotation": {"number": 64, "value": 127}, "group": "control_change"}, {"time": 3592, "annotation": {"number": 64, "value": 0}, "group": "control_change"}, {"time": 3598, "annotation": {"number": 64, "value": 127}, "group": "control_change"}, {"time": 3619, "annotation": {"number": 64, "value": 0}, "group": "control_change"}, {"time": 3628, "annotation": {"number": 64, "value": 127}, "group": "control_change"}, {"time": 3665, "annotation": {"number": 64, "value": 0}, "group": "control_change"}]}]}