{"metadata": {"schema_version": "0.2", "title": "None", "source_filename": "238.mid", "source_format": "midi"}, "resolution": 12, "tempos": [{"time": 0, "qpm": 73.99998273333736}, {"time": 90, "qpm": 75.99996960001216}, {"time": 114, "qpm": 71.00011951686785}, {"time": 138, "qpm": 77.000077000077}, {"time": 162, "qpm": 58.00004253336452}, {"time": 186, "qpm": 60.99997255001235}, {"time": 210, "qpm": 38.000008866668736}, {"time": 216, "qpm": 42.99999498333392}, {"time": 234, "qpm": 78.9999657666815}, {"time": 330, "qpm": 86.00005160003096}, {"time": 378, "qpm": 78.000078000078}, {"time": 414, "qpm": 73.99998273333736}, {"time": 426, "qpm": 80.0}, {"time": 438, "qpm": 82.00014760026568}, {"time": 510, "qpm": 75.99996960001216}, {"time": 522, "qpm": 85.00004250002125}, {"time": 534, "qpm": 80.0}, {"time": 546, "qpm": 80.99997165000993}, {"time": 606, "qpm": 77.000077000077}, {"time": 618, "qpm": 84.000084000084}, {"time": 630, "qpm": 78.9999657666815}, {"time": 642, "qpm": 80.99997165000993}, {"time": 702, "qpm": 78.000078000078}, {"time": 714, "qpm": 85.00004250002125}, {"time": 726, "qpm": 80.99997165000993}, {"time": 834, "qpm": 80.0}, {"time": 906, "qpm": 82.00014760026568}, {"time": 954, "qpm": 80.0}, {"time": 979, "qpm": 82.00014760026568}, {"time": 1002, "qpm": 78.9999657666815}, {"time": 1038, "qpm": 83.0000650167176}, {"time": 1062, "qpm": 80.0}, {"time": 1098, "qpm": 83.0000650167176}, {"time": 1110, "qpm": 80.0}, {"time": 1170, "qpm": 86.00005160003096}, {"time": 1182, "qpm": 78.9999657666815}, {"time": 1194, "qpm": 82.00014760026568}, {"time": 1206, "qpm": 80.0}, {"time": 1230, "qpm": 84.000084000084}, {"time": 1242, "qpm": 82.00014760026568}, {"time": 1266, "qpm": 77.000077000077}, {"time": 1278, "qpm": 78.9999657666815}, {"time": 1290, "qpm": 86.00005160003096}, {"time": 1302, "qpm": 78.000078000078}, {"time": 1314, "qpm": 84.000084000084}, {"time": 1326, "qpm": 80.0}, {"time": 1386, "qpm": 80.99997165000993}, {"time": 1410, "qpm": 83.0000650167176}, {"time": 1434, "qpm": 78.000078000078}, {"time": 1446, "qpm": 80.0}, {"time": 1458, "qpm": 87.00002175000543}, {"time": 1470, "qpm": 75.99996960001216}, {"time": 1482, "qpm": 84.000084000084}, {"time": 1494, "qpm": 77.000077000077}, {"time": 1506, "qpm": 82.00014760026568}, {"time": 1554, "qpm": 78.9999657666815}, {"time": 1566, "qpm": 82.00014760026568}, {"time": 1614, "qpm": 77.000077000077}, {"time": 1626, "qpm": 80.99997165000993}, {"time": 1674, "qpm": 78.000078000078}, {"time": 1698, "qpm": 80.0}, {"time": 1722, "qpm": 82.00014760026568}, {"time": 1818, "qpm": 80.0}, {"time": 1866, "qpm": 83.0000650167176}, {"time": 1878, "qpm": 80.0}, {"time": 1914, "qpm": 84.000084000084}, {"time": 1926, "qpm": 80.0}, {"time": 1938, "qpm": 80.99997165000993}, {"time": 2034, "qpm": 80.0}, {"time": 2094, "qpm": 82.00014760026568}, {"time": 2148, "qpm": 80.0}, {"time": 2166, "qpm": 82.00014760026568}, {"time": 2190, "qpm": 77.000077000077}, {"time": 2202, "qpm": 82.00014760026568}, {"time": 2226, "qpm": 78.000078000078}, {"time": 2250, "qpm": 83.0000650167176}, {"time": 2286, "qpm": 80.0}, {"time": 2322, "qpm": 80.99997165000993}, {"time": 2430, "qpm": 84.000084000084}, {"time": 2454, "qpm": 75.99996960001216}, {"time": 2466, "qpm": 82.00014760026568}, {"time": 2478, "qpm": 80.0}, {"time": 2538, "qpm": 80.99997165000993}, {"time": 3078, "qpm": 80.0}, {"time": 3174, "qpm": 82.00014760026568}, {"time": 3234, "qpm": 80.99997165000993}, {"time": 3282, "qpm": 78.9999657666815}, {"time": 3306, "qpm": 80.99997165000993}, {"time": 3594, "qpm": 80.0}, {"time": 3654, "qpm": 80.99997165000993}, {"time": 4074, "qpm": 78.9999657666815}, {"time": 4098, "qpm": 80.99997165000993}], "time_signatures": [{"time": 0, "numerator": 4, "denominator": 4}], "tracks": [{"program": 0, "is_drum": false, "name": "MELODY", "notes": [{"time": 516, "pitch": 74, "duration": 3, "velocity": 79}, {"time": 519, "pitch": 76, "duration": 3, "velocity": 80}, {"time": 522, "pitch": 78, "duration": 18, "velocity": 77}, {"time": 540, "pitch": 78, "duration": 6, "velocity": 79}, {"time": 546, "pitch": 78, "duration": 6, "velocity": 75}, {"time": 552, "pitch": 76, "duration": 9, "velocity": 75}, {"time": 561, "pitch": 74, "duration": 6, "velocity": 78}, {"time": 567, "pitch": 71, "duration": 3, "velocity": 59}, {"time": 570, "pitch": 74, "duration": 42, "velocity": 79}, {"time": 612, "pitch": 74, "duration": 3, "velocity": 78}, {"time": 615, "pitch": 76, "duration": 3, "velocity": 79}, {"time": 618, "pitch": 78, "duration": 18, "velocity": 80}, {"time": 636, "pitch": 78, "duration": 6, "velocity": 78}, {"time": 642, "pitch": 78, "duration": 9, "velocity": 75}, {"time": 651, "pitch": 76, "duration": 6, "velocity": 83}, {"time": 657, "pitch": 74, "duration": 6, "velocity": 84}, {"time": 663, "pitch": 83, "duration": 12, "velocity": 80}, {"time": 675, "pitch": 81, "duration": 33, "velocity": 76}, {"time": 708, "pitch": 78, "duration": 3, "velocity": 78}, {"time": 711, "pitch": 81, "duration": 3, "velocity": 75}, {"time": 714, "pitch": 83, "duration": 9, "velocity": 77}, {"time": 723, "pitch": 83, "duration": 9, "velocity": 82}, {"time": 732, "pitch": 83, "duration": 6, "velocity": 82}, {"time": 738, "pitch": 81, "duration": 18, "velocity": 80}, {"time": 756, "pitch": 78, "duration": 3, "velocity": 84}, {"time": 759, "pitch": 76, "duration": 3, "velocity": 78}, {"time": 762, "pitch": 78, "duration": 12, "velocity": 82}, {"time": 774, "pitch": 76, "duration": 12, "velocity": 82}, {"time": 786, "pitch": 74, "duration": 18, "velocity": 84}, {"time": 804, "pitch": 74, "duration": 3, "velocity": 78}, {"time": 807, "pitch": 76, "duration": 3, "velocity": 82}, {"time": 810, "pitch": 78, "duration": 18, "velocity": 80}, {"time": 828, "pitch": 78, "duration": 3, "velocity": 76}, {"time": 831, "pitch": 78, "duration": 3, "velocity": 62}, {"time": 834, "pitch": 78, "duration": 6, "velocity": 72}, {"time": 840, "pitch": 76, "duration": 12, "velocity": 80}, {"time": 852, "pitch": 74, "duration": 3, "velocity": 78}, {"time": 855, "pitch": 71, "duration": 3, "velocity": 74}, {"time": 858, "pitch": 74, "duration": 42, "velocity": 81}, {"time": 900, "pitch": 74, "duration": 3, "velocity": 79}, {"time": 903, "pitch": 76, "duration": 3, "velocity": 80}, {"time": 906, "pitch": 78, "duration": 18, "velocity": 77}, {"time": 924, "pitch": 78, "duration": 6, "velocity": 79}, {"time": 930, "pitch": 78, "duration": 6, "velocity": 75}, {"time": 936, "pitch": 76, "duration": 9, "velocity": 75}, {"time": 945, "pitch": 74, "duration": 6, "velocity": 78}, {"time": 951, "pitch": 71, "duration": 3, "velocity": 59}, {"time": 954, "pitch": 74, "duration": 42, "velocity": 79}, {"time": 996, "pitch": 74, "duration": 3, "velocity": 78}, {"time": 999, "pitch": 76, "duration": 3, "velocity": 79}, {"time": 1002, "pitch": 78, "duration": 6, "velocity": 80}, {"time": 1008, "pitch": 78, "duration": 12, "velocity": 80}, {"time": 1020, "pitch": 78, "duration": 6, "velocity": 78}, {"time": 1026, "pitch": 78, "duration": 9, "velocity": 75}, {"time": 1035, "pitch": 76, "duration": 9, "velocity": 83}, {"time": 1044, "pitch": 74, "duration": 3, "velocity": 84}, {"time": 1047, "pitch": 83, "duration": 12, "velocity": 80}, {"time": 1059, "pitch": 81, "duration": 33, "velocity": 76}, {"time": 1092, "pitch": 78, "duration": 3, "velocity": 78}, {"time": 1095, "pitch": 81, "duration": 3, "velocity": 75}, {"time": 1098, "pitch": 83, "duration": 6, "velocity": 77}, {"time": 1104, "pitch": 83, "duration": 9, "velocity": 82}, {"time": 1113, "pitch": 85, "duration": 6, "velocity": 82}, {"time": 1119, "pitch": 86, "duration": 3, "velocity": 82}, {"time": 1122, "pitch": 85, "duration": 6, "velocity": 90}, {"time": 1128, "pitch": 85, "duration": 12, "velocity": 90}, {"time": 1140, "pitch": 86, "duration": 3, "velocity": 90}, {"time": 1143, "pitch": 88, "duration": 3, "velocity": 79}, {"time": 1146, "pitch": 86, "duration": 12, "velocity": 83}, {"time": 1158, "pitch": 85, "duration": 12, "velocity": 83}, {"time": 1170, "pitch": 83, "duration": 18, "velocity": 86}, {"time": 1188, "pitch": 78, "duration": 3, "velocity": 84}, {"time": 1191, "pitch": 78, "duration": 3, "velocity": 82}, {"time": 1194, "pitch": 76, "duration": 6, "velocity": 83}, {"time": 1200, "pitch": 74, "duration": 9, "velocity": 84}, {"time": 1209, "pitch": 74, "duration": 3, "velocity": 78}, {"time": 1212, "pitch": 83, "duration": 3, "velocity": 80}, {"time": 1215, "pitch": 83, "duration": 3, "velocity": 73}, {"time": 1218, "pitch": 83, "duration": 6, "velocity": 83}, {"time": 1224, "pitch": 83, "duration": 6, "velocity": 84}, {"time": 1230, "pitch": 83, "duration": 3, "velocity": 82}, {"time": 1233, "pitch": 83, "duration": 9, "velocity": 86}, {"time": 1242, "pitch": 81, "duration": 39, "velocity": 86}, {"time": 1281, "pitch": 81, "duration": 3, "velocity": 69}, {"time": 1284, "pitch": 81, "duration": 3, "velocity": 71}, {"time": 1287, "pitch": 81, "duration": 3, "velocity": 69}, {"time": 1290, "pitch": 91, "duration": 6, "velocity": 95}, {"time": 1296, "pitch": 90, "duration": 6, "velocity": 86}, {"time": 1302, "pitch": 88, "duration": 3, "velocity": 83}, {"time": 1305, "pitch": 86, "duration": 6, "velocity": 83}, {"time": 1311, "pitch": 81, "duration": 27, "velocity": 73}, {"time": 1338, "pitch": 88, "duration": 6, "velocity": 90}, {"time": 1344, "pitch": 86, "duration": 6, "velocity": 90}, {"time": 1350, "pitch": 85, "duration": 3, "velocity": 80}, {"time": 1353, "pitch": 83, "duration": 6, "velocity": 83}, {"time": 1359, "pitch": 78, "duration": 27, "velocity": 91}, {"time": 1386, "pitch": 83, "duration": 3, "velocity": 90}, {"time": 1389, "pitch": 83, "duration": 3, "velocity": 82}, {"time": 1392, "pitch": 83, "duration": 3, "velocity": 84}, {"time": 1395, "pitch": 83, "duration": 3, "velocity": 80}, {"time": 1398, "pitch": 83, "duration": 6, "velocity": 83}, {"time": 1404, "pitch": 86, "duration": 3, "velocity": 90}, {"time": 1407, "pitch": 81, "duration": 21, "velocity": 82}, {"time": 1428, "pitch": 76, "duration": 3, "velocity": 84}, {"time": 1431, "pitch": 78, "duration": 3, "velocity": 79}, {"time": 1434, "pitch": 79, "duration": 3, "velocity": 90}, {"time": 1437, "pitch": 79, "duration": 6, "velocity": 86}, {"time": 1443, "pitch": 79, "duration": 3, "velocity": 86}, {"time": 1446, "pitch": 79, "duration": 6, "velocity": 90}, {"time": 1452, "pitch": 79, "duration": 3, "velocity": 78}, {"time": 1455, "pitch": 81, "duration": 3, "velocity": 78}, {"time": 1458, "pitch": 78, "duration": 6, "velocity": 84}, {"time": 1464, "pitch": 76, "duration": 9, "velocity": 80}, {"time": 1473, "pitch": 81, "duration": 3, "velocity": 69}, {"time": 1476, "pitch": 81, "duration": 3, "velocity": 71}, {"time": 1479, "pitch": 81, "duration": 3, "velocity": 69}, {"time": 1482, "pitch": 91, "duration": 6, "velocity": 95}, {"time": 1488, "pitch": 90, "duration": 6, "velocity": 86}, {"time": 1494, "pitch": 88, "duration": 3, "velocity": 83}, {"time": 1497, "pitch": 86, "duration": 6, "velocity": 83}, {"time": 1503, "pitch": 81, "duration": 27, "velocity": 73}, {"time": 1530, "pitch": 88, "duration": 6, "velocity": 90}, {"time": 1536, "pitch": 86, "duration": 6, "velocity": 90}, {"time": 1542, "pitch": 85, "duration": 3, "velocity": 80}, {"time": 1545, "pitch": 83, "duration": 6, "velocity": 83}, {"time": 1551, "pitch": 78, "duration": 27, "velocity": 91}, {"time": 1578, "pitch": 83, "duration": 3, "velocity": 90}, {"time": 1581, "pitch": 83, "duration": 3, "velocity": 82}, {"time": 1584, "pitch": 83, "duration": 3, "velocity": 84}, {"time": 1587, "pitch": 83, "duration": 3, "velocity": 80}, {"time": 1590, "pitch": 83, "duration": 6, "velocity": 83}, {"time": 1596, "pitch": 86, "duration": 3, "velocity": 90}, {"time": 1599, "pitch": 81, "duration": 15, "velocity": 82}, {"time": 1614, "pitch": 76, "duration": 3, "velocity": 83}, {"time": 1617, "pitch": 78, "duration": 3, "velocity": 77}, {"time": 1620, "pitch": 76, "duration": 6, "velocity": 80}, {"time": 1626, "pitch": 74, "duration": 144, "velocity": 84}, {"time": 1812, "pitch": 74, "duration": 3, "velocity": 79}, {"time": 1815, "pitch": 76, "duration": 3, "velocity": 80}, {"time": 1818, "pitch": 78, "duration": 18, "velocity": 77}, {"time": 1836, "pitch": 78, "duration": 6, "velocity": 79}, {"time": 1842, "pitch": 78, "duration": 6, "velocity": 75}, {"time": 1848, "pitch": 76, "duration": 9, "velocity": 75}, {"time": 1857, "pitch": 74, "duration": 6, "velocity": 78}, {"time": 1863, "pitch": 71, "duration": 3, "velocity": 59}, {"time": 1866, "pitch": 74, "duration": 42, "velocity": 79}, {"time": 1908, "pitch": 74, "duration": 3, "velocity": 78}, {"time": 1911, "pitch": 76, "duration": 3, "velocity": 79}, {"time": 1914, "pitch": 78, "duration": 18, "velocity": 80}, {"time": 1932, "pitch": 78, "duration": 6, "velocity": 78}, {"time": 1938, "pitch": 78, "duration": 9, "velocity": 75}, {"time": 1947, "pitch": 76, "duration": 6, "velocity": 83}, {"time": 1953, "pitch": 74, "duration": 6, "velocity": 84}, {"time": 1959, "pitch": 83, "duration": 12, "velocity": 80}, {"time": 1971, "pitch": 81, "duration": 33, "velocity": 76}, {"time": 2004, "pitch": 78, "duration": 3, "velocity": 78}, {"time": 2007, "pitch": 81, "duration": 3, "velocity": 75}, {"time": 2010, "pitch": 83, "duration": 9, "velocity": 77}, {"time": 2019, "pitch": 83, "duration": 9, "velocity": 82}, {"time": 2028, "pitch": 83, "duration": 6, "velocity": 82}, {"time": 2034, "pitch": 81, "duration": 15, "velocity": 80}, {"time": 2049, "pitch": 78, "duration": 6, "velocity": 84}, {"time": 2055, "pitch": 76, "duration": 3, "velocity": 78}, {"time": 2058, "pitch": 78, "duration": 12, "velocity": 82}, {"time": 2070, "pitch": 76, "duration": 12, "velocity": 82}, {"time": 2082, "pitch": 74, "duration": 18, "velocity": 84}, {"time": 2100, "pitch": 74, "duration": 3, "velocity": 78}, {"time": 2103, "pitch": 76, "duration": 3, "velocity": 82}, {"time": 2106, "pitch": 78, "duration": 18, "velocity": 80}, {"time": 2124, "pitch": 78, "duration": 3, "velocity": 76}, {"time": 2127, "pitch": 78, "duration": 3, "velocity": 62}, {"time": 2130, "pitch": 78, "duration": 6, "velocity": 72}, {"time": 2136, "pitch": 76, "duration": 12, "velocity": 80}, {"time": 2148, "pitch": 74, "duration": 3, "velocity": 78}, {"time": 2151, "pitch": 71, "duration": 3, "velocity": 74}, {"time": 2154, "pitch": 74, "duration": 39, "velocity": 81}, {"time": 2193, "pitch": 74, "duration": 6, "velocity": 79}, {"time": 2199, "pitch": 76, "duration": 3, "velocity": 80}, {"time": 2202, "pitch": 78, "duration": 18, "velocity": 77}, {"time": 2220, "pitch": 78, "duration": 6, "velocity": 79}, {"time": 2226, "pitch": 78, "duration": 6, "velocity": 75}, {"time": 2232, "pitch": 76, "duration": 9, "velocity": 75}, {"time": 2241, "pitch": 74, "duration": 6, "velocity": 78}, {"time": 2247, "pitch": 71, "duration": 3, "velocity": 59}, {"time": 2250, "pitch": 74, "duration": 42, "velocity": 79}, {"time": 2292, "pitch": 74, "duration": 3, "velocity": 78}, {"time": 2295, "pitch": 76, "duration": 3, "velocity": 79}, {"time": 2298, "pitch": 78, "duration": 6, "velocity": 80}, {"time": 2304, "pitch": 78, "duration": 12, "velocity": 80}, {"time": 2316, "pitch": 78, "duration": 6, "velocity": 78}, {"time": 2322, "pitch": 78, "duration": 9, "velocity": 75}, {"time": 2331, "pitch": 76, "duration": 9, "velocity": 83}, {"time": 2340, "pitch": 74, "duration": 3, "velocity": 84}, {"time": 2343, "pitch": 83, "duration": 12, "velocity": 80}, {"time": 2355, "pitch": 81, "duration": 33, "velocity": 76}, {"time": 2388, "pitch": 78, "duration": 3, "velocity": 78}, {"time": 2391, "pitch": 81, "duration": 3, "velocity": 75}, {"time": 2394, "pitch": 83, "duration": 6, "velocity": 77}, {"time": 2400, "pitch": 83, "duration": 9, "velocity": 82}, {"time": 2409, "pitch": 85, "duration": 6, "velocity": 82}, {"time": 2415, "pitch": 86, "duration": 3, "velocity": 82}, {"time": 2418, "pitch": 85, "duration": 6, "velocity": 90}, {"time": 2424, "pitch": 85, "duration": 12, "velocity": 90}, {"time": 2436, "pitch": 86, "duration": 3, "velocity": 90}, {"time": 2439, "pitch": 88, "duration": 3, "velocity": 79}, {"time": 2442, "pitch": 86, "duration": 12, "velocity": 83}, {"time": 2454, "pitch": 85, "duration": 12, "velocity": 83}, {"time": 2466, "pitch": 83, "duration": 18, "velocity": 86}, {"time": 2484, "pitch": 78, "duration": 3, "velocity": 84}, {"time": 2487, "pitch": 78, "duration": 3, "velocity": 82}, {"time": 2490, "pitch": 76, "duration": 6, "velocity": 83}, {"time": 2496, "pitch": 74, "duration": 9, "velocity": 84}, {"time": 2505, "pitch": 74, "duration": 3, "velocity": 78}, {"time": 2508, "pitch": 83, "duration": 3, "velocity": 80}, {"time": 2511, "pitch": 83, "duration": 3, "velocity": 73}, {"time": 2514, "pitch": 83, "duration": 6, "velocity": 83}, {"time": 2520, "pitch": 83, "duration": 6, "velocity": 84}, {"time": 2526, "pitch": 83, "duration": 3, "velocity": 82}, {"time": 2529, "pitch": 83, "duration": 9, "velocity": 86}, {"time": 2538, "pitch": 81, "duration": 39, "velocity": 86}, {"time": 2577, "pitch": 81, "duration": 3, "velocity": 69}, {"time": 2580, "pitch": 81, "duration": 3, "velocity": 71}, {"time": 2583, "pitch": 81, "duration": 3, "velocity": 69}, {"time": 2586, "pitch": 91, "duration": 6, "velocity": 95}, {"time": 2592, "pitch": 90, "duration": 6, "velocity": 86}, {"time": 2598, "pitch": 88, "duration": 3, "velocity": 83}, {"time": 2601, "pitch": 86, "duration": 6, "velocity": 83}, {"time": 2607, "pitch": 81, "duration": 27, "velocity": 73}, {"time": 2634, "pitch": 88, "duration": 6, "velocity": 90}, {"time": 2640, "pitch": 86, "duration": 6, "velocity": 90}, {"time": 2646, "pitch": 85, "duration": 3, "velocity": 80}, {"time": 2649, "pitch": 83, "duration": 6, "velocity": 83}, {"time": 2655, "pitch": 78, "duration": 27, "velocity": 91}, {"time": 2682, "pitch": 83, "duration": 3, "velocity": 90}, {"time": 2685, "pitch": 83, "duration": 3, "velocity": 82}, {"time": 2688, "pitch": 83, "duration": 3, "velocity": 84}, {"time": 2691, "pitch": 83, "duration": 3, "velocity": 80}, {"time": 2694, "pitch": 83, "duration": 6, "velocity": 83}, {"time": 2700, "pitch": 86, "duration": 3, "velocity": 90}, {"time": 2703, "pitch": 81, "duration": 21, "velocity": 82}, {"time": 2724, "pitch": 76, "duration": 3, "velocity": 84}, {"time": 2727, "pitch": 78, "duration": 3, "velocity": 79}, {"time": 2730, "pitch": 79, "duration": 3, "velocity": 90}, {"time": 2733, "pitch": 79, "duration": 6, "velocity": 86}, {"time": 2739, "pitch": 79, "duration": 3, "velocity": 86}, {"time": 2742, "pitch": 79, "duration": 6, "velocity": 90}, {"time": 2748, "pitch": 79, "duration": 3, "velocity": 78}, {"time": 2751, "pitch": 81, "duration": 3, "velocity": 78}, {"time": 2754, "pitch": 78, "duration": 6, "velocity": 84}, {"time": 2760, "pitch": 76, "duration": 9, "velocity": 80}, {"time": 2769, "pitch": 81, "duration": 3, "velocity": 69}, {"time": 2772, "pitch": 81, "duration": 3, "velocity": 71}, {"time": 2775, "pitch": 81, "duration": 3, "velocity": 69}, {"time": 2778, "pitch": 91, "duration": 6, "velocity": 95}, {"time": 2784, "pitch": 90, "duration": 6, "velocity": 86}, {"time": 2790, "pitch": 88, "duration": 3, "velocity": 83}, {"time": 2793, "pitch": 86, "duration": 6, "velocity": 83}, {"time": 2799, "pitch": 81, "duration": 27, "velocity": 73}, {"time": 2826, "pitch": 88, "duration": 6, "velocity": 90}, {"time": 2832, "pitch": 86, "duration": 6, "velocity": 90}, {"time": 2838, "pitch": 85, "duration": 3, "velocity": 80}, {"time": 2841, "pitch": 83, "duration": 6, "velocity": 83}, {"time": 2847, "pitch": 78, "duration": 27, "velocity": 91}, {"time": 2874, "pitch": 83, "duration": 3, "velocity": 90}, {"time": 2877, "pitch": 83, "duration": 3, "velocity": 82}, {"time": 2880, "pitch": 83, "duration": 3, "velocity": 84}, {"time": 2883, "pitch": 83, "duration": 3, "velocity": 80}, {"time": 2886, "pitch": 83, "duration": 6, "velocity": 83}, {"time": 2892, "pitch": 86, "duration": 3, "velocity": 90}, {"time": 2895, "pitch": 81, "duration": 15, "velocity": 82}, {"time": 2910, "pitch": 76, "duration": 3, "velocity": 83}, {"time": 2913, "pitch": 78, "duration": 3, "velocity": 77}, {"time": 2916, "pitch": 76, "duration": 6, "velocity": 80}, {"time": 2922, "pitch": 74, "duration": 48, "velocity": 84}, {"time": 3297, "pitch": 81, "duration": 3, "velocity": 69}, {"time": 3300, "pitch": 81, "duration": 3, "velocity": 71}, {"time": 3303, "pitch": 81, "duration": 3, "velocity": 69}, {"time": 3306, "pitch": 91, "duration": 6, "velocity": 95}, {"time": 3312, "pitch": 90, "duration": 6, "velocity": 86}, {"time": 3318, "pitch": 88, "duration": 3, "velocity": 83}, {"time": 3321, "pitch": 86, "duration": 6, "velocity": 83}, {"time": 3327, "pitch": 81, "duration": 27, "velocity": 73}, {"time": 3354, "pitch": 88, "duration": 6, "velocity": 90}, {"time": 3360, "pitch": 86, "duration": 6, "velocity": 90}, {"time": 3366, "pitch": 85, "duration": 3, "velocity": 80}, {"time": 3369, "pitch": 83, "duration": 6, "velocity": 83}, {"time": 3375, "pitch": 78, "duration": 27, "velocity": 91}, {"time": 3402, "pitch": 83, "duration": 3, "velocity": 90}, {"time": 3405, "pitch": 83, "duration": 3, "velocity": 82}, {"time": 3408, "pitch": 83, "duration": 3, "velocity": 84}, {"time": 3411, "pitch": 83, "duration": 3, "velocity": 80}, {"time": 3414, "pitch": 83, "duration": 6, "velocity": 83}, {"time": 3420, "pitch": 86, "duration": 3, "velocity": 90}, {"time": 3423, "pitch": 81, "duration": 21, "velocity": 82}, {"time": 3444, "pitch": 76, "duration": 3, "velocity": 84}, {"time": 3447, "pitch": 78, "duration": 3, "velocity": 79}, {"time": 3450, "pitch": 79, "duration": 3, "velocity": 90}, {"time": 3453, "pitch": 79, "duration": 6, "velocity": 86}, {"time": 3459, "pitch": 79, "duration": 3, "velocity": 86}, {"time": 3462, "pitch": 79, "duration": 6, "velocity": 90}, {"time": 3468, "pitch": 79, "duration": 3, "velocity": 78}, {"time": 3471, "pitch": 81, "duration": 3, "velocity": 78}, {"time": 3474, "pitch": 78, "duration": 6, "velocity": 84}, {"time": 3480, "pitch": 76, "duration": 9, "velocity": 80}, {"time": 3489, "pitch": 81, "duration": 3, "velocity": 69}, {"time": 3492, "pitch": 81, "duration": 3, "velocity": 71}, {"time": 3495, "pitch": 81, "duration": 3, "velocity": 69}, {"time": 3498, "pitch": 91, "duration": 6, "velocity": 95}, {"time": 3504, "pitch": 90, "duration": 6, "velocity": 86}, {"time": 3510, "pitch": 88, "duration": 3, "velocity": 83}, {"time": 3513, "pitch": 86, "duration": 6, "velocity": 83}, {"time": 3519, "pitch": 81, "duration": 27, "velocity": 73}, {"time": 3546, "pitch": 88, "duration": 6, "velocity": 90}, {"time": 3552, "pitch": 86, "duration": 6, "velocity": 90}, {"time": 3558, "pitch": 85, "duration": 3, "velocity": 80}, {"time": 3561, "pitch": 83, "duration": 6, "velocity": 83}, {"time": 3567, "pitch": 78, "duration": 27, "velocity": 91}, {"time": 3594, "pitch": 83, "duration": 3, "velocity": 90}, {"time": 3597, "pitch": 83, "duration": 3, "velocity": 82}, {"time": 3600, "pitch": 83, "duration": 3, "velocity": 84}, {"time": 3603, "pitch": 83, "duration": 3, "velocity": 80}, {"time": 3606, "pitch": 83, "duration": 6, "velocity": 83}, {"time": 3612, "pitch": 86, "duration": 3, "velocity": 90}, {"time": 3615, "pitch": 81, "duration": 15, "velocity": 82}, {"time": 3630, "pitch": 76, "duration": 3, "velocity": 83}, {"time": 3633, "pitch": 78, "duration": 3, "velocity": 77}, {"time": 3636, "pitch": 76, "duration": 6, "velocity": 80}, {"time": 3642, "pitch": 74, "duration": 48, "velocity": 84}, {"time": 3681, "pitch": 81, "duration": 3, "velocity": 69}, {"time": 3684, "pitch": 81, "duration": 3, "velocity": 71}, {"time": 3687, "pitch": 81, "duration": 3, "velocity": 69}, {"time": 3690, "pitch": 91, "duration": 6, "velocity": 95}, {"time": 3696, "pitch": 90, "duration": 6, "velocity": 86}, {"time": 3702, "pitch": 88, "duration": 3, "velocity": 83}, {"time": 3705, "pitch": 86, "duration": 6, "velocity": 83}, {"time": 3711, "pitch": 81, "duration": 27, "velocity": 73}, {"time": 3738, "pitch": 88, "duration": 6, "velocity": 90}, {"time": 3744, "pitch": 86, "duration": 6, "velocity": 90}, {"time": 3750, "pitch": 85, "duration": 3, "velocity": 80}, {"time": 3753, "pitch": 83, "duration": 6, "velocity": 83}, {"time": 3759, "pitch": 78, "duration": 27, "velocity": 91}, {"time": 3786, "pitch": 83, "duration": 3, "velocity": 90}, {"time": 3789, "pitch": 83, "duration": 3, "velocity": 82}, {"time": 3792, "pitch": 83, "duration": 3, "velocity": 84}, {"time": 3795, "pitch": 83, "duration": 3, "velocity": 80}, {"time": 3798, "pitch": 83, "duration": 6, "velocity": 83}, {"time": 3804, "pitch": 86, "duration": 3, "velocity": 90}, {"time": 3807, "pitch": 81, "duration": 21, "velocity": 82}, {"time": 3828, "pitch": 76, "duration": 3, "velocity": 84}, {"time": 3831, "pitch": 78, "duration": 3, "velocity": 79}, {"time": 3834, "pitch": 79, "duration": 3, "velocity": 90}, {"time": 3837, "pitch": 79, "duration": 6, "velocity": 86}, {"time": 3843, "pitch": 79, "duration": 3, "velocity": 86}, {"time": 3846, "pitch": 79, "duration": 6, "velocity": 90}, {"time": 3852, "pitch": 79, "duration": 3, "velocity": 78}, {"time": 3855, "pitch": 81, "duration": 3, "velocity": 78}, {"time": 3858, "pitch": 78, "duration": 6, "velocity": 84}, {"time": 3864, "pitch": 76, "duration": 9, "velocity": 80}, {"time": 3873, "pitch": 81, "duration": 3, "velocity": 69}, {"time": 3876, "pitch": 81, "duration": 3, "velocity": 71}, {"time": 3879, "pitch": 81, "duration": 3, "velocity": 69}, {"time": 3882, "pitch": 91, "duration": 6, "velocity": 95}, {"time": 3888, "pitch": 90, "duration": 6, "velocity": 86}, {"time": 3894, "pitch": 88, "duration": 3, "velocity": 83}, {"time": 3897, "pitch": 86, "duration": 6, "velocity": 83}, {"time": 3903, "pitch": 81, "duration": 27, "velocity": 73}, {"time": 3930, "pitch": 88, "duration": 6, "velocity": 90}, {"time": 3936, "pitch": 86, "duration": 6, "velocity": 90}, {"time": 3942, "pitch": 85, "duration": 3, "velocity": 80}, {"time": 3945, "pitch": 83, "duration": 6, "velocity": 83}, {"time": 3951, "pitch": 78, "duration": 27, "velocity": 91}, {"time": 3978, "pitch": 83, "duration": 3, "velocity": 90}, {"time": 3981, "pitch": 83, "duration": 3, "velocity": 82}, {"time": 3984, "pitch": 83, "duration": 3, "velocity": 84}, {"time": 3987, "pitch": 83, "duration": 3, "velocity": 80}, {"time": 3990, "pitch": 83, "duration": 6, "velocity": 83}, {"time": 3996, "pitch": 86, "duration": 3, "velocity": 90}, {"time": 3999, "pitch": 81, "duration": 15, "velocity": 82}, {"time": 4014, "pitch": 76, "duration": 3, "velocity": 83}, {"time": 4017, "pitch": 78, "duration": 3, "velocity": 77}, {"time": 4020, "pitch": 76, "duration": 6, "velocity": 80}, {"time": 4026, "pitch": 74, "duration": 48, "velocity": 84}, {"time": 4065, "pitch": 81, "duration": 3, "velocity": 69}, {"time": 4068, "pitch": 81, "duration": 3, "velocity": 71}, {"time": 4071, "pitch": 81, "duration": 3, "velocity": 69}, {"time": 4074, "pitch": 91, "duration": 6, "velocity": 95}, {"time": 4080, "pitch": 90, "duration": 6, "velocity": 86}, {"time": 4086, "pitch": 88, "duration": 3, "velocity": 83}, {"time": 4089, "pitch": 86, "duration": 6, "velocity": 83}, {"time": 4095, "pitch": 81, "duration": 27, "velocity": 73}, {"time": 4122, "pitch": 88, "duration": 6, "velocity": 90}, {"time": 4128, "pitch": 86, "duration": 6, "velocity": 90}, {"time": 4134, "pitch": 85, "duration": 3, "velocity": 80}, {"time": 4137, "pitch": 83, "duration": 6, "velocity": 83}, {"time": 4143, "pitch": 78, "duration": 27, "velocity": 91}, {"time": 4170, "pitch": 83, "duration": 3, "velocity": 90}, {"time": 4173, "pitch": 83, "duration": 3, "velocity": 82}, {"time": 4176, "pitch": 83, "duration": 3, "velocity": 84}, {"time": 4179, "pitch": 83, "duration": 3, "velocity": 80}, {"time": 4182, "pitch": 83, "duration": 6, "velocity": 83}, {"time": 4188, "pitch": 86, "duration": 3, "velocity": 90}, {"time": 4191, "pitch": 81, "duration": 21, "velocity": 82}, {"time": 4212, "pitch": 76, "duration": 3, "velocity": 84}, {"time": 4215, "pitch": 78, "duration": 3, "velocity": 79}, {"time": 4218, "pitch": 79, "duration": 3, "velocity": 90}, {"time": 4221, "pitch": 79, "duration": 6, "velocity": 86}, {"time": 4227, "pitch": 79, "duration": 3, "velocity": 86}, {"time": 4230, "pitch": 79, "duration": 6, "velocity": 90}, {"time": 4236, "pitch": 79, "duration": 3, "velocity": 78}, {"time": 4239, "pitch": 81, "duration": 3, "velocity": 78}, {"time": 4242, "pitch": 78, "duration": 6, "velocity": 84}, {"time": 4248, "pitch": 76, "duration": 9, "velocity": 80}]}, {"program": 0, "is_drum": false, "name": "BRIDGE", "notes": [{"time": 90, "pitch": 71, "duration": 18, "velocity": 84}, {"time": 108, "pitch": 69, "duration": 30, "velocity": 84}, {"time": 138, "pitch": 74, "duration": 6, "velocity": 91}, {"time": 144, "pitch": 73, "duration": 6, "velocity": 90}, {"time": 150, "pitch": 69, "duration": 15, "velocity": 93}, {"time": 165, "pitch": 71, "duration": 9, "velocity": 95}, {"time": 174, "pitch": 66, "duration": 12, "velocity": 90}, {"time": 186, "pitch": 64, "duration": 48, "velocity": 90}, {"time": 234, "pitch": 71, "duration": 18, "velocity": 84}, {"time": 252, "pitch": 69, "duration": 36, "velocity": 84}, {"time": 288, "pitch": 71, "duration": 6, "velocity": 90}, {"time": 294, "pitch": 74, "duration": 6, "velocity": 93}, {"time": 300, "pitch": 73, "duration": 9, "velocity": 93}, {"time": 309, "pitch": 76, "duration": 15, "velocity": 95}, {"time": 324, "pitch": 74, "duration": 6, "velocity": 95}, {"time": 330, "pitch": 78, "duration": 18, "velocity": 90}, {"time": 348, "pitch": 71, "duration": 30, "velocity": 90}, {"time": 426, "pitch": 69, "duration": 48, "velocity": 90}, {"time": 1626, "pitch": 71, "duration": 18, "velocity": 100}, {"time": 1626, "pitch": 83, "duration": 18, "velocity": 100}, {"time": 1644, "pitch": 69, "duration": 36, "velocity": 91}, {"time": 1644, "pitch": 81, "duration": 36, "velocity": 91}, {"time": 1680, "pitch": 74, "duration": 6, "velocity": 91}, {"time": 1680, "pitch": 86, "duration": 6, "velocity": 91}, {"time": 1686, "pitch": 73, "duration": 6, "velocity": 86}, {"time": 1686, "pitch": 85, "duration": 6, "velocity": 86}, {"time": 1692, "pitch": 69, "duration": 18, "velocity": 90}, {"time": 1692, "pitch": 81, "duration": 18, "velocity": 90}, {"time": 1710, "pitch": 71, "duration": 12, "velocity": 91}, {"time": 1710, "pitch": 83, "duration": 12, "velocity": 91}, {"time": 1722, "pitch": 66, "duration": 96, "velocity": 100}, {"time": 1722, "pitch": 78, "duration": 96, "velocity": 100}, {"time": 2928, "pitch": 69, "duration": 9, "velocity": 101}, {"time": 2937, "pitch": 81, "duration": 3, "velocity": 84}, {"time": 2940, "pitch": 79, "duration": 6, "velocity": 95}, {"time": 2946, "pitch": 78, "duration": 6, "velocity": 98}, {"time": 2952, "pitch": 79, "duration": 3, "velocity": 94}, {"time": 2955, "pitch": 78, "duration": 6, "velocity": 93}, {"time": 2961, "pitch": 76, "duration": 6, "velocity": 84}, {"time": 2967, "pitch": 74, "duration": 3, "velocity": 95}, {"time": 2970, "pitch": 78, "duration": 12, "velocity": 95}, {"time": 2982, "pitch": 76, "duration": 6, "velocity": 86}, {"time": 2988, "pitch": 78, "duration": 36, "velocity": 94}, {"time": 3024, "pitch": 74, "duration": 6, "velocity": 98}, {"time": 3030, "pitch": 81, "duration": 6, "velocity": 90}, {"time": 3036, "pitch": 79, "duration": 6, "velocity": 98}, {"time": 3042, "pitch": 78, "duration": 6, "velocity": 93}, {"time": 3048, "pitch": 79, "duration": 3, "velocity": 98}, {"time": 3051, "pitch": 78, "duration": 9, "velocity": 98}, {"time": 3060, "pitch": 76, "duration": 3, "velocity": 93}, {"time": 3063, "pitch": 74, "duration": 3, "velocity": 93}, {"time": 3066, "pitch": 81, "duration": 15, "velocity": 86}, {"time": 3081, "pitch": 69, "duration": 3, "velocity": 79}, {"time": 3084, "pitch": 71, "duration": 3, "velocity": 80}, {"time": 3087, "pitch": 73, "duration": 3, "velocity": 82}, {"time": 3090, "pitch": 74, "duration": 3, "velocity": 90}, {"time": 3093, "pitch": 74, "duration": 3, "velocity": 80}, {"time": 3096, "pitch": 74, "duration": 3, "velocity": 75}, {"time": 3099, "pitch": 76, "duration": 3, "velocity": 83}, {"time": 3102, "pitch": 78, "duration": 3, "velocity": 90}, {"time": 3105, "pitch": 76, "duration": 3, "velocity": 76}, {"time": 3108, "pitch": 78, "duration": 3, "velocity": 78}, {"time": 3111, "pitch": 79, "duration": 3, "velocity": 90}, {"time": 3114, "pitch": 81, "duration": 6, "velocity": 91}, {"time": 3120, "pitch": 86, "duration": 6, "velocity": 95}, {"time": 3126, "pitch": 85, "duration": 6, "velocity": 96}, {"time": 3126, "pitch": 86, "duration": 6, "velocity": 70}, {"time": 3132, "pitch": 86, "duration": 3, "velocity": 90}, {"time": 3135, "pitch": 81, "duration": 27, "velocity": 90}, {"time": 3162, "pitch": 86, "duration": 6, "velocity": 98}, {"time": 3168, "pitch": 85, "duration": 6, "velocity": 100}, {"time": 3174, "pitch": 86, "duration": 6, "velocity": 91}, {"time": 3180, "pitch": 93, "duration": 3, "velocity": 95}, {"time": 3183, "pitch": 81, "duration": 21, "velocity": 86}, {"time": 3204, "pitch": 86, "duration": 3, "velocity": 90}, {"time": 3207, "pitch": 85, "duration": 3, "velocity": 84}, {"time": 3210, "pitch": 86, "duration": 6, "velocity": 94}, {"time": 3216, "pitch": 81, "duration": 3, "velocity": 83}, {"time": 3219, "pitch": 79, "duration": 3, "velocity": 84}, {"time": 3222, "pitch": 81, "duration": 3, "velocity": 83}, {"time": 3225, "pitch": 86, "duration": 3, "velocity": 82}, {"time": 3228, "pitch": 91, "duration": 3, "velocity": 95}, {"time": 3231, "pitch": 90, "duration": 3, "velocity": 93}, {"time": 3234, "pitch": 91, "duration": 3, "velocity": 90}, {"time": 3237, "pitch": 90, "duration": 3, "velocity": 79}, {"time": 3240, "pitch": 86, "duration": 3, "velocity": 93}, {"time": 3243, "pitch": 81, "duration": 3, "velocity": 93}, {"time": 3246, "pitch": 86, "duration": 15, "velocity": 77}, {"time": 3261, "pitch": 69, "duration": 3, "velocity": 83}, {"time": 3264, "pitch": 71, "duration": 3, "velocity": 82}, {"time": 3267, "pitch": 74, "duration": 3, "velocity": 90}, {"time": 3270, "pitch": 76, "duration": 3, "velocity": 95}, {"time": 3273, "pitch": 74, "duration": 3, "velocity": 83}, {"time": 3276, "pitch": 76, "duration": 3, "velocity": 76}, {"time": 3279, "pitch": 78, "duration": 3, "velocity": 93}, {"time": 3282, "pitch": 79, "duration": 3, "velocity": 95}, {"time": 3285, "pitch": 78, "duration": 3, "velocity": 84}, {"time": 3288, "pitch": 79, "duration": 3, "velocity": 83}, {"time": 3291, "pitch": 81, "duration": 3, "velocity": 84}, {"time": 3294, "pitch": 83, "duration": 3, "velocity": 91}, {"time": 3297, "pitch": 81, "duration": 3, "velocity": 95}, {"time": 3300, "pitch": 83, "duration": 3, "velocity": 83}, {"time": 3303, "pitch": 85, "duration": 3, "velocity": 91}, {"time": 3306, "pitch": 86, "duration": 48, "velocity": 98}]}, {"program": 0, "is_drum": false, "name": "PIANO", "notes": [{"time": 88, "pitch": 64, "duration": 13, "velocity": 55}, {"time": 89, "pitch": 66, "duration": 12, "velocity": 76}, {"time": 89, "pitch": 50, "duration": 44, "velocity": 83}, {"time": 90, "pitch": 69, "duration": 11, "velocity": 79}, {"time": 90, "pitch": 74, "duration": 84, "velocity": 79}, {"time": 96, "pitch": 57, "duration": 42, "velocity": 53}, {"time": 102, "pitch": 62, "duration": 33, "velocity": 56}, {"time": 108, "pitch": 64, "duration": 24, "velocity": 69}, {"time": 108, "pitch": 69, "duration": 24, "velocity": 75}, {"time": 132, "pitch": 66, "duration": 6, "velocity": 63}, {"time": 138, "pitch": 50, "duration": 36, "velocity": 62}, {"time": 138, "pitch": 64, "duration": 16, "velocity": 31}, {"time": 138, "pitch": 69, "duration": 28, "velocity": 73}, {"time": 141, "pitch": 57, "duration": 29, "velocity": 47}, {"time": 150, "pitch": 62, "duration": 20, "velocity": 22}, {"time": 156, "pitch": 64, "duration": 16, "velocity": 59}, {"time": 174, "pitch": 43, "duration": 31, "velocity": 80}, {"time": 174, "pitch": 62, "duration": 6, "velocity": 77}, {"time": 174, "pitch": 66, "duration": 5, "velocity": 76}, {"time": 174, "pitch": 69, "duration": 5, "velocity": 75}, {"time": 179, "pitch": 50, "duration": 31, "velocity": 72}, {"time": 183, "pitch": 55, "duration": 9, "velocity": 57}, {"time": 186, "pitch": 59, "duration": 3, "velocity": 63}, {"time": 186, "pitch": 62, "duration": 7, "velocity": 77}, {"time": 186, "pitch": 66, "duration": 8, "velocity": 69}, {"time": 201, "pitch": 55, "duration": 6, "velocity": 51}, {"time": 204, "pitch": 71, "duration": 2, "velocity": 60}, {"time": 204, "pitch": 78, "duration": 4, "velocity": 68}, {"time": 210, "pitch": 43, "duration": 23, "velocity": 79}, {"time": 210, "pitch": 71, "duration": 5, "velocity": 63}, {"time": 210, "pitch": 76, "duration": 4, "velocity": 84}, {"time": 213, "pitch": 50, "duration": 20, "velocity": 63}, {"time": 216, "pitch": 55, "duration": 10, "velocity": 69}, {"time": 219, "pitch": 66, "duration": 2, "velocity": 76}, {"time": 219, "pitch": 74, "duration": 4, "velocity": 84}, {"time": 225, "pitch": 64, "duration": 1, "velocity": 63}, {"time": 225, "pitch": 71, "duration": 1, "velocity": 69}, {"time": 228, "pitch": 62, "duration": 4, "velocity": 78}, {"time": 228, "pitch": 69, "duration": 4, "velocity": 76}, {"time": 231, "pitch": 55, "duration": 4, "velocity": 70}, {"time": 234, "pitch": 62, "duration": 5, "velocity": 86}, {"time": 234, "pitch": 66, "duration": 6, "velocity": 79}, {"time": 237, "pitch": 50, "duration": 32, "velocity": 75}, {"time": 243, "pitch": 57, "duration": 38, "velocity": 47}, {"time": 246, "pitch": 62, "duration": 8, "velocity": 45}, {"time": 252, "pitch": 64, "duration": 5, "velocity": 78}, {"time": 252, "pitch": 69, "duration": 7, "velocity": 79}, {"time": 267, "pitch": 62, "duration": 3, "velocity": 62}, {"time": 270, "pitch": 78, "duration": 4, "velocity": 77}, {"time": 270, "pitch": 86, "duration": 4, "velocity": 84}, {"time": 273, "pitch": 85, "duration": 3, "velocity": 84}, {"time": 276, "pitch": 83, "duration": 4, "velocity": 76}, {"time": 279, "pitch": 81, "duration": 4, "velocity": 69}, {"time": 282, "pitch": 50, "duration": 43, "velocity": 82}, {"time": 282, "pitch": 76, "duration": 12, "velocity": 76}, {"time": 288, "pitch": 57, "duration": 14, "velocity": 61}, {"time": 294, "pitch": 74, "duration": 9, "velocity": 76}, {"time": 300, "pitch": 62, "duration": 7, "velocity": 69}, {"time": 300, "pitch": 64, "duration": 7, "velocity": 79}, {"time": 300, "pitch": 69, "duration": 11, "velocity": 80}, {"time": 312, "pitch": 57, "duration": 6, "velocity": 62}, {"time": 318, "pitch": 62, "duration": 7, "velocity": 86}, {"time": 318, "pitch": 69, "duration": 8, "velocity": 84}, {"time": 330, "pitch": 43, "duration": 43, "velocity": 83}, {"time": 330, "pitch": 59, "duration": 14, "velocity": 80}, {"time": 330, "pitch": 62, "duration": 13, "velocity": 86}, {"time": 330, "pitch": 66, "duration": 15, "velocity": 82}, {"time": 336, "pitch": 50, "duration": 44, "velocity": 75}, {"time": 342, "pitch": 55, "duration": 11, "velocity": 62}, {"time": 348, "pitch": 59, "duration": 20, "velocity": 74}, {"time": 348, "pitch": 62, "duration": 21, "velocity": 82}, {"time": 366, "pitch": 55, "duration": 7, "velocity": 67}, {"time": 372, "pitch": 59, "duration": 4, "velocity": 44}, {"time": 372, "pitch": 64, "duration": 6, "velocity": 83}, {"time": 378, "pitch": 43, "duration": 40, "velocity": 76}, {"time": 378, "pitch": 59, "duration": 9, "velocity": 67}, {"time": 378, "pitch": 62, "duration": 11, "velocity": 79}, {"time": 378, "pitch": 66, "duration": 14, "velocity": 78}, {"time": 384, "pitch": 50, "duration": 32, "velocity": 75}, {"time": 390, "pitch": 55, "duration": 8, "velocity": 71}, {"time": 396, "pitch": 59, "duration": 9, "velocity": 59}, {"time": 396, "pitch": 62, "duration": 8, "velocity": 62}, {"time": 396, "pitch": 69, "duration": 10, "velocity": 75}, {"time": 402, "pitch": 55, "duration": 10, "velocity": 54}, {"time": 408, "pitch": 59, "duration": 3, "velocity": 61}, {"time": 408, "pitch": 66, "duration": 12, "velocity": 80}, {"time": 414, "pitch": 57, "duration": 6, "velocity": 73}, {"time": 414, "pitch": 64, "duration": 7, "velocity": 86}, {"time": 420, "pitch": 62, "duration": 5, "velocity": 82}, {"time": 426, "pitch": 50, "duration": 9, "velocity": 90}, {"time": 426, "pitch": 57, "duration": 9, "velocity": 90}, {"time": 432, "pitch": 50, "duration": 3, "velocity": 68}, {"time": 438, "pitch": 54, "duration": 28, "velocity": 79}, {"time": 444, "pitch": 57, "duration": 5, "velocity": 79}, {"time": 444, "pitch": 66, "duration": 8, "velocity": 82}, {"time": 456, "pitch": 66, "duration": 3, "velocity": 78}, {"time": 456, "pitch": 74, "duration": 4, "velocity": 86}, {"time": 462, "pitch": 64, "duration": 4, "velocity": 82}, {"time": 462, "pitch": 69, "duration": 3, "velocity": 74}, {"time": 468, "pitch": 62, "duration": 8, "velocity": 77}, {"time": 468, "pitch": 67, "duration": 10, "velocity": 77}, {"time": 474, "pitch": 50, "duration": 34, "velocity": 79}, {"time": 480, "pitch": 57, "duration": 19, "velocity": 68}, {"time": 480, "pitch": 64, "duration": 4, "velocity": 78}, {"time": 480, "pitch": 69, "duration": 6, "velocity": 80}, {"time": 486, "pitch": 64, "duration": 3, "velocity": 72}, {"time": 486, "pitch": 66, "duration": 5, "velocity": 78}, {"time": 492, "pitch": 62, "duration": 10, "velocity": 83}, {"time": 492, "pitch": 64, "duration": 14, "velocity": 80}, {"time": 492, "pitch": 69, "duration": 14, "velocity": 84}, {"time": 504, "pitch": 57, "duration": 2, "velocity": 79}, {"time": 510, "pitch": 62, "duration": 5, "velocity": 83}, {"time": 510, "pitch": 69, "duration": 5, "velocity": 77}, {"time": 516, "pitch": 45, "duration": 2, "velocity": 78}, {"time": 522, "pitch": 50, "duration": 21, "velocity": 78}, {"time": 522, "pitch": 66, "duration": 16, "velocity": 71}, {"time": 522, "pitch": 74, "duration": 16, "velocity": 84}, {"time": 528, "pitch": 57, "duration": 17, "velocity": 76}, {"time": 534, "pitch": 62, "duration": 7, "velocity": 83}, {"time": 540, "pitch": 69, "duration": 5, "velocity": 80}, {"time": 546, "pitch": 49, "duration": 18, "velocity": 84}, {"time": 546, "pitch": 64, "duration": 13, "velocity": 74}, {"time": 546, "pitch": 69, "duration": 14, "velocity": 79}, {"time": 552, "pitch": 57, "duration": 13, "velocity": 72}, {"time": 558, "pitch": 61, "duration": 6, "velocity": 73}, {"time": 564, "pitch": 69, "duration": 4, "velocity": 73}, {"time": 567, "pitch": 71, "duration": 4, "velocity": 76}, {"time": 570, "pitch": 47, "duration": 12, "velocity": 80}, {"time": 570, "pitch": 66, "duration": 27, "velocity": 78}, {"time": 570, "pitch": 74, "duration": 27, "velocity": 81}, {"time": 576, "pitch": 54, "duration": 6, "velocity": 78}, {"time": 582, "pitch": 59, "duration": 7, "velocity": 72}, {"time": 588, "pitch": 61, "duration": 23, "velocity": 82}, {"time": 594, "pitch": 62, "duration": 16, "velocity": 80}, {"time": 600, "pitch": 66, "duration": 8, "velocity": 72}, {"time": 606, "pitch": 74, "duration": 13, "velocity": 82}, {"time": 618, "pitch": 50, "duration": 21, "velocity": 79}, {"time": 618, "pitch": 66, "duration": 14, "velocity": 78}, {"time": 618, "pitch": 69, "duration": 14, "velocity": 83}, {"time": 624, "pitch": 57, "duration": 15, "velocity": 73}, {"time": 630, "pitch": 62, "duration": 6, "velocity": 84}, {"time": 636, "pitch": 69, "duration": 4, "velocity": 84}, {"time": 639, "pitch": 71, "duration": 3, "velocity": 80}, {"time": 642, "pitch": 49, "duration": 10, "velocity": 84}, {"time": 642, "pitch": 64, "duration": 14, "velocity": 74}, {"time": 642, "pitch": 69, "duration": 14, "velocity": 76}, {"time": 648, "pitch": 57, "duration": 12, "velocity": 62}, {"time": 654, "pitch": 61, "duration": 3, "velocity": 75}, {"time": 660, "pitch": 69, "duration": 4, "velocity": 75}, {"time": 666, "pitch": 54, "duration": 42, "velocity": 80}, {"time": 666, "pitch": 69, "duration": 11, "velocity": 83}, {"time": 666, "pitch": 73, "duration": 12, "velocity": 84}, {"time": 672, "pitch": 61, "duration": 18, "velocity": 73}, {"time": 678, "pitch": 66, "duration": 12, "velocity": 76}, {"time": 684, "pitch": 76, "duration": 7, "velocity": 79}, {"time": 690, "pitch": 73, "duration": 12, "velocity": 80}, {"time": 696, "pitch": 61, "duration": 10, "velocity": 75}, {"time": 702, "pitch": 69, "duration": 6, "velocity": 83}, {"time": 708, "pitch": 66, "duration": 6, "velocity": 76}, {"time": 714, "pitch": 55, "duration": 18, "velocity": 71}, {"time": 714, "pitch": 62, "duration": 9, "velocity": 83}, {"time": 714, "pitch": 71, "duration": 9, "velocity": 84}, {"time": 720, "pitch": 59, "duration": 11, "velocity": 73}, {"time": 726, "pitch": 67, "duration": 6, "velocity": 80}, {"time": 732, "pitch": 71, "duration": 6, "velocity": 79}, {"time": 738, "pitch": 45, "duration": 16, "velocity": 83}, {"time": 738, "pitch": 64, "duration": 8, "velocity": 80}, {"time": 738, "pitch": 69, "duration": 8, "velocity": 79}, {"time": 738, "pitch": 73, "duration": 8, "velocity": 86}, {"time": 744, "pitch": 52, "duration": 10, "velocity": 80}, {"time": 750, "pitch": 57, "duration": 7, "velocity": 58}, {"time": 756, "pitch": 64, "duration": 5, "velocity": 79}, {"time": 762, "pitch": 50, "duration": 9, "velocity": 78}, {"time": 762, "pitch": 66, "duration": 8, "velocity": 79}, {"time": 762, "pitch": 74, "duration": 8, "velocity": 86}, {"time": 768, "pitch": 57, "duration": 7, "velocity": 74}, {"time": 768, "pitch": 73, "duration": 6, "velocity": 84}, {"time": 774, "pitch": 49, "duration": 11, "velocity": 82}, {"time": 780, "pitch": 57, "duration": 4, "velocity": 68}, {"time": 786, "pitch": 47, "duration": 16, "velocity": 83}, {"time": 786, "pitch": 66, "duration": 8, "velocity": 76}, {"time": 786, "pitch": 74, "duration": 7, "velocity": 84}, {"time": 792, "pitch": 54, "duration": 11, "velocity": 76}, {"time": 798, "pitch": 59, "duration": 5, "velocity": 63}, {"time": 798, "pitch": 62, "duration": 6, "velocity": 82}, {"time": 804, "pitch": 66, "duration": 6, "velocity": 79}, {"time": 810, "pitch": 55, "duration": 16, "velocity": 69}, {"time": 810, "pitch": 62, "duration": 8, "velocity": 78}, {"time": 810, "pitch": 67, "duration": 8, "velocity": 79}, {"time": 810, "pitch": 71, "duration": 7, "velocity": 78}, {"time": 816, "pitch": 59, "duration": 9, "velocity": 73}, {"time": 822, "pitch": 62, "duration": 6, "velocity": 84}, {"time": 828, "pitch": 71, "duration": 5, "velocity": 79}, {"time": 834, "pitch": 45, "duration": 12, "velocity": 80}, {"time": 834, "pitch": 64, "duration": 7, "velocity": 78}, {"time": 834, "pitch": 69, "duration": 7, "velocity": 79}, {"time": 834, "pitch": 73, "duration": 6, "velocity": 90}, {"time": 840, "pitch": 52, "duration": 6, "velocity": 75}, {"time": 846, "pitch": 57, "duration": 9, "velocity": 59}, {"time": 846, "pitch": 64, "duration": 8, "velocity": 78}, {"time": 846, "pitch": 71, "duration": 6, "velocity": 79}, {"time": 852, "pitch": 59, "duration": 6, "velocity": 61}, {"time": 852, "pitch": 69, "duration": 6, "velocity": 78}, {"time": 858, "pitch": 50, "duration": 19, "velocity": 83}, {"time": 858, "pitch": 66, "duration": 14, "velocity": 83}, {"time": 864, "pitch": 57, "duration": 18, "velocity": 75}, {"time": 870, "pitch": 62, "duration": 7, "velocity": 79}, {"time": 876, "pitch": 64, "duration": 7, "velocity": 80}, {"time": 882, "pitch": 50, "duration": 9, "velocity": 79}, {"time": 882, "pitch": 66, "duration": 5, "velocity": 80}, {"time": 888, "pitch": 57, "duration": 6, "velocity": 73}, {"time": 888, "pitch": 69, "duration": 4, "velocity": 79}, {"time": 894, "pitch": 62, "duration": 6, "velocity": 68}, {"time": 894, "pitch": 69, "duration": 3, "velocity": 82}, {"time": 900, "pitch": 64, "duration": 2, "velocity": 79}, {"time": 900, "pitch": 76, "duration": 5, "velocity": 78}, {"time": 906, "pitch": 50, "duration": 15, "velocity": 80}, {"time": 906, "pitch": 74, "duration": 14, "velocity": 84}, {"time": 912, "pitch": 57, "duration": 12, "velocity": 73}, {"time": 918, "pitch": 62, "duration": 3, "velocity": 80}, {"time": 921, "pitch": 69, "duration": 3, "velocity": 75}, {"time": 924, "pitch": 74, "duration": 3, "velocity": 79}, {"time": 927, "pitch": 78, "duration": 3, "velocity": 79}, {"time": 930, "pitch": 49, "duration": 8, "velocity": 79}, {"time": 930, "pitch": 74, "duration": 9, "velocity": 80}, {"time": 936, "pitch": 57, "duration": 11, "velocity": 71}, {"time": 942, "pitch": 61, "duration": 4, "velocity": 68}, {"time": 942, "pitch": 69, "duration": 6, "velocity": 79}, {"time": 948, "pitch": 81, "duration": 5, "velocity": 73}, {"time": 954, "pitch": 47, "duration": 43, "velocity": 79}, {"time": 954, "pitch": 74, "duration": 5, "velocity": 83}, {"time": 960, "pitch": 54, "duration": 38, "velocity": 72}, {"time": 966, "pitch": 59, "duration": 8, "velocity": 62}, {"time": 972, "pitch": 61, "duration": 4, "velocity": 75}, {"time": 975, "pitch": 62, "duration": 5, "velocity": 70}, {"time": 978, "pitch": 59, "duration": 8, "velocity": 58}, {"time": 978, "pitch": 66, "duration": 4, "velocity": 78}, {"time": 981, "pitch": 69, "duration": 1, "velocity": 46}, {"time": 987, "pitch": 73, "duration": 3, "velocity": 73}, {"time": 990, "pitch": 59, "duration": 4, "velocity": 58}, {"time": 990, "pitch": 74, "duration": 5, "velocity": 82}, {"time": 993, "pitch": 73, "duration": 4, "velocity": 78}, {"time": 999, "pitch": 69, "duration": 5, "velocity": 72}, {"time": 1002, "pitch": 50, "duration": 18, "velocity": 76}, {"time": 1002, "pitch": 66, "duration": 9, "velocity": 78}, {"time": 1008, "pitch": 57, "duration": 7, "velocity": 63}, {"time": 1014, "pitch": 62, "duration": 5, "velocity": 59}, {"time": 1014, "pitch": 64, "duration": 5, "velocity": 70}, {"time": 1014, "pitch": 69, "duration": 5, "velocity": 78}, {"time": 1020, "pitch": 57, "duration": 6, "velocity": 73}, {"time": 1020, "pitch": 66, "duration": 6, "velocity": 79}, {"time": 1026, "pitch": 49, "duration": 7, "velocity": 82}, {"time": 1026, "pitch": 64, "duration": 7, "velocity": 76}, {"time": 1026, "pitch": 69, "duration": 5, "velocity": 79}, {"time": 1032, "pitch": 57, "duration": 10, "velocity": 73}, {"time": 1038, "pitch": 61, "duration": 3, "velocity": 60}, {"time": 1038, "pitch": 66, "duration": 5, "velocity": 79}, {"time": 1038, "pitch": 73, "duration": 5, "velocity": 84}, {"time": 1050, "pitch": 42, "duration": 6, "velocity": 84}, {"time": 1050, "pitch": 64, "duration": 14, "velocity": 61}, {"time": 1050, "pitch": 73, "duration": 15, "velocity": 83}, {"time": 1056, "pitch": 54, "duration": 7, "velocity": 70}, {"time": 1062, "pitch": 57, "duration": 8, "velocity": 77}, {"time": 1068, "pitch": 62, "duration": 2, "velocity": 83}, {"time": 1074, "pitch": 42, "duration": 19, "velocity": 82}, {"time": 1074, "pitch": 64, "duration": 3, "velocity": 70}, {"time": 1074, "pitch": 69, "duration": 6, "velocity": 79}, {"time": 1080, "pitch": 64, "duration": 4, "velocity": 75}, {"time": 1080, "pitch": 73, "duration": 5, "velocity": 82}, {"time": 1086, "pitch": 54, "duration": 11, "velocity": 72}, {"time": 1086, "pitch": 64, "duration": 7, "velocity": 81}, {"time": 1086, "pitch": 76, "duration": 4, "velocity": 78}, {"time": 1092, "pitch": 74, "duration": 3, "velocity": 81}, {"time": 1098, "pitch": 43, "duration": 13, "velocity": 80}, {"time": 1098, "pitch": 62, "duration": 20, "velocity": 84}, {"time": 1098, "pitch": 67, "duration": 19, "velocity": 73}, {"time": 1098, "pitch": 71, "duration": 21, "velocity": 75}, {"time": 1098, "pitch": 74, "duration": 20, "velocity": 72}, {"time": 1104, "pitch": 50, "duration": 7, "velocity": 78}, {"time": 1110, "pitch": 55, "duration": 7, "velocity": 74}, {"time": 1116, "pitch": 59, "duration": 2, "velocity": 78}, {"time": 1122, "pitch": 45, "duration": 13, "velocity": 84}, {"time": 1122, "pitch": 64, "duration": 13, "velocity": 78}, {"time": 1122, "pitch": 69, "duration": 13, "velocity": 82}, {"time": 1122, "pitch": 73, "duration": 12, "velocity": 84}, {"time": 1128, "pitch": 52, "duration": 8, "velocity": 75}, {"time": 1134, "pitch": 57, "duration": 5, "velocity": 69}, {"time": 1140, "pitch": 64, "duration": 3, "velocity": 71}, {"time": 1140, "pitch": 71, "duration": 5, "velocity": 75}, {"time": 1146, "pitch": 50, "duration": 8, "velocity": 84}, {"time": 1146, "pitch": 66, "duration": 7, "velocity": 82}, {"time": 1146, "pitch": 69, "duration": 6, "velocity": 84}, {"time": 1152, "pitch": 57, "duration": 7, "velocity": 77}, {"time": 1158, "pitch": 49, "duration": 11, "velocity": 84}, {"time": 1158, "pitch": 64, "duration": 6, "velocity": 78}, {"time": 1158, "pitch": 69, "duration": 8, "velocity": 81}, {"time": 1164, "pitch": 57, "duration": 3, "velocity": 78}, {"time": 1170, "pitch": 47, "duration": 17, "velocity": 83}, {"time": 1170, "pitch": 66, "duration": 8, "velocity": 80}, {"time": 1170, "pitch": 69, "duration": 7, "velocity": 74}, {"time": 1170, "pitch": 74, "duration": 7, "velocity": 81}, {"time": 1176, "pitch": 54, "duration": 11, "velocity": 72}, {"time": 1182, "pitch": 59, "duration": 4, "velocity": 76}, {"time": 1188, "pitch": 62, "duration": 4, "velocity": 72}, {"time": 1191, "pitch": 66, "duration": 3, "velocity": 75}, {"time": 1194, "pitch": 55, "duration": 16, "velocity": 76}, {"time": 1194, "pitch": 62, "duration": 6, "velocity": 84}, {"time": 1194, "pitch": 67, "duration": 7, "velocity": 84}, {"time": 1194, "pitch": 71, "duration": 6, "velocity": 84}, {"time": 1200, "pitch": 59, "duration": 11, "velocity": 73}, {"time": 1206, "pitch": 62, "duration": 4, "velocity": 80}, {"time": 1206, "pitch": 67, "duration": 4, "velocity": 80}, {"time": 1206, "pitch": 71, "duration": 5, "velocity": 80}, {"time": 1209, "pitch": 55, "duration": 1, "velocity": 46}, {"time": 1212, "pitch": 62, "duration": 11, "velocity": 73}, {"time": 1218, "pitch": 67, "duration": 9, "velocity": 69}, {"time": 1218, "pitch": 71, "duration": 3, "velocity": 81}, {"time": 1218, "pitch": 79, "duration": 5, "velocity": 93}, {"time": 1224, "pitch": 69, "duration": 4, "velocity": 81}, {"time": 1224, "pitch": 78, "duration": 7, "velocity": 79}, {"time": 1230, "pitch": 62, "duration": 6, "velocity": 81}, {"time": 1230, "pitch": 71, "duration": 7, "velocity": 76}, {"time": 1230, "pitch": 79, "duration": 3, "velocity": 90}, {"time": 1236, "pitch": 81, "duration": 4, "velocity": 81}, {"time": 1242, "pitch": 45, "duration": 19, "velocity": 82}, {"time": 1242, "pitch": 69, "duration": 5, "velocity": 79}, {"time": 1242, "pitch": 76, "duration": 4, "velocity": 83}, {"time": 1248, "pitch": 52, "duration": 16, "velocity": 79}, {"time": 1251, "pitch": 57, "duration": 9, "velocity": 72}, {"time": 1254, "pitch": 62, "duration": 4, "velocity": 82}, {"time": 1257, "pitch": 64, "duration": 2, "velocity": 81}, {"time": 1260, "pitch": 69, "duration": 3, "velocity": 80}, {"time": 1263, "pitch": 74, "duration": 3, "velocity": 78}, {"time": 1266, "pitch": 45, "duration": 3, "velocity": 80}, {"time": 1266, "pitch": 76, "duration": 3, "velocity": 80}, {"time": 1269, "pitch": 57, "duration": 4, "velocity": 62}, {"time": 1269, "pitch": 69, "duration": 5, "velocity": 57}, {"time": 1269, "pitch": 78, "duration": 3, "velocity": 75}, {"time": 1272, "pitch": 59, "duration": 9, "velocity": 62}, {"time": 1272, "pitch": 79, "duration": 4, "velocity": 82}, {"time": 1275, "pitch": 78, "duration": 3, "velocity": 80}, {"time": 1278, "pitch": 61, "duration": 5, "velocity": 80}, {"time": 1278, "pitch": 74, "duration": 3, "velocity": 78}, {"time": 1281, "pitch": 69, "duration": 3, "velocity": 74}, {"time": 1284, "pitch": 67, "duration": 5, "velocity": 76}, {"time": 1290, "pitch": 50, "duration": 23, "velocity": 77}, {"time": 1290, "pitch": 57, "duration": 26, "velocity": 75}, {"time": 1290, "pitch": 62, "duration": 14, "velocity": 81}, {"time": 1290, "pitch": 66, "duration": 10, "velocity": 80}, {"time": 1290, "pitch": 69, "duration": 10, "velocity": 72}, {"time": 1290, "pitch": 74, "duration": 8, "velocity": 78}, {"time": 1302, "pitch": 66, "duration": 7, "velocity": 79}, {"time": 1302, "pitch": 69, "duration": 8, "velocity": 79}, {"time": 1302, "pitch": 74, "duration": 7, "velocity": 83}, {"time": 1308, "pitch": 62, "duration": 4, "velocity": 54}, {"time": 1311, "pitch": 66, "duration": 2, "velocity": 57}, {"time": 1314, "pitch": 50, "duration": 19, "velocity": 82}, {"time": 1314, "pitch": 66, "duration": 7, "velocity": 77}, {"time": 1314, "pitch": 69, "duration": 7, "velocity": 75}, {"time": 1314, "pitch": 74, "duration": 7, "velocity": 84}, {"time": 1320, "pitch": 57, "duration": 10, "velocity": 54}, {"time": 1323, "pitch": 66, "duration": 5, "velocity": 78}, {"time": 1323, "pitch": 69, "duration": 4, "velocity": 71}, {"time": 1323, "pitch": 73, "duration": 5, "velocity": 83}, {"time": 1326, "pitch": 62, "duration": 4, "velocity": 71}, {"time": 1329, "pitch": 66, "duration": 4, "velocity": 83}, {"time": 1329, "pitch": 69, "duration": 4, "velocity": 82}, {"time": 1329, "pitch": 73, "duration": 1, "velocity": 23}, {"time": 1329, "pitch": 74, "duration": 5, "velocity": 91}, {"time": 1332, "pitch": 57, "duration": 2, "velocity": 79}, {"time": 1338, "pitch": 47, "duration": 43, "velocity": 84}, {"time": 1338, "pitch": 66, "duration": 6, "velocity": 81}, {"time": 1338, "pitch": 69, "duration": 5, "velocity": 79}, {"time": 1338, "pitch": 74, "duration": 5, "velocity": 84}, {"time": 1344, "pitch": 54, "duration": 8, "velocity": 75}, {"time": 1350, "pitch": 59, "duration": 8, "velocity": 68}, {"time": 1350, "pitch": 62, "duration": 9, "velocity": 80}, {"time": 1350, "pitch": 66, "duration": 6, "velocity": 80}, {"time": 1350, "pitch": 71, "duration": 9, "velocity": 82}, {"time": 1356, "pitch": 54, "duration": 20, "velocity": 59}, {"time": 1362, "pitch": 62, "duration": 6, "velocity": 82}, {"time": 1362, "pitch": 66, "duration": 7, "velocity": 80}, {"time": 1362, "pitch": 71, "duration": 6, "velocity": 79}, {"time": 1368, "pitch": 59, "duration": 4, "velocity": 55}, {"time": 1371, "pitch": 62, "duration": 4, "velocity": 80}, {"time": 1371, "pitch": 69, "duration": 7, "velocity": 82}, {"time": 1374, "pitch": 59, "duration": 3, "velocity": 71}, {"time": 1377, "pitch": 62, "duration": 4, "velocity": 90}, {"time": 1377, "pitch": 66, "duration": 1, "velocity": 56}, {"time": 1377, "pitch": 71, "duration": 3, "velocity": 86}, {"time": 1380, "pitch": 54, "duration": 2, "velocity": 83}, {"time": 1386, "pitch": 43, "duration": 30, "velocity": 78}, {"time": 1386, "pitch": 55, "duration": 15, "velocity": 73}, {"time": 1386, "pitch": 59, "duration": 9, "velocity": 78}, {"time": 1386, "pitch": 62, "duration": 8, "velocity": 84}, {"time": 1386, "pitch": 67, "duration": 7, "velocity": 90}, {"time": 1398, "pitch": 59, "duration": 9, "velocity": 80}, {"time": 1398, "pitch": 62, "duration": 7, "velocity": 84}, {"time": 1398, "pitch": 67, "duration": 7, "velocity": 86}, {"time": 1404, "pitch": 55, "duration": 8, "velocity": 54}, {"time": 1410, "pitch": 59, "duration": 6, "velocity": 76}, {"time": 1410, "pitch": 62, "duration": 7, "velocity": 84}, {"time": 1410, "pitch": 67, "duration": 6, "velocity": 84}, {"time": 1416, "pitch": 45, "duration": 12, "velocity": 82}, {"time": 1416, "pitch": 55, "duration": 3, "velocity": 67}, {"time": 1416, "pitch": 61, "duration": 6, "velocity": 84}, {"time": 1416, "pitch": 64, "duration": 6, "velocity": 84}, {"time": 1416, "pitch": 69, "duration": 6, "velocity": 84}, {"time": 1425, "pitch": 57, "duration": 5, "velocity": 59}, {"time": 1425, "pitch": 61, "duration": 4, "velocity": 82}, {"time": 1428, "pitch": 64, "duration": 3, "velocity": 83}, {"time": 1434, "pitch": 52, "duration": 15, "velocity": 81}, {"time": 1434, "pitch": 59, "duration": 8, "velocity": 81}, {"time": 1434, "pitch": 62, "duration": 9, "velocity": 76}, {"time": 1434, "pitch": 67, "duration": 6, "velocity": 83}, {"time": 1446, "pitch": 59, "duration": 7, "velocity": 78}, {"time": 1446, "pitch": 62, "duration": 8, "velocity": 79}, {"time": 1446, "pitch": 67, "duration": 8, "velocity": 84}, {"time": 1452, "pitch": 52, "duration": 2, "velocity": 81}, {"time": 1458, "pitch": 43, "duration": 4, "velocity": 72}, {"time": 1458, "pitch": 45, "duration": 18, "velocity": 74}, {"time": 1458, "pitch": 57, "duration": 3, "velocity": 71}, {"time": 1458, "pitch": 61, "duration": 5, "velocity": 84}, {"time": 1458, "pitch": 64, "duration": 7, "velocity": 84}, {"time": 1458, "pitch": 69, "duration": 5, "velocity": 83}, {"time": 1464, "pitch": 57, "duration": 4, "velocity": 68}, {"time": 1467, "pitch": 59, "duration": 2, "velocity": 84}, {"time": 1467, "pitch": 62, "duration": 2, "velocity": 82}, {"time": 1467, "pitch": 67, "duration": 3, "velocity": 86}, {"time": 1470, "pitch": 57, "duration": 3, "velocity": 75}, {"time": 1473, "pitch": 61, "duration": 2, "velocity": 80}, {"time": 1473, "pitch": 69, "duration": 2, "velocity": 91}, {"time": 1476, "pitch": 57, "duration": 5, "velocity": 84}, {"time": 1479, "pitch": 69, "duration": 2, "velocity": 75}, {"time": 1482, "pitch": 50, "duration": 19, "velocity": 91}, {"time": 1482, "pitch": 66, "duration": 5, "velocity": 93}, {"time": 1482, "pitch": 69, "duration": 6, "velocity": 84}, {"time": 1482, "pitch": 74, "duration": 7, "velocity": 84}, {"time": 1488, "pitch": 57, "duration": 7, "velocity": 72}, {"time": 1488, "pitch": 66, "duration": 4, "velocity": 68}, {"time": 1488, "pitch": 73, "duration": 6, "velocity": 86}, {"time": 1494, "pitch": 62, "duration": 7, "velocity": 62}, {"time": 1494, "pitch": 66, "duration": 7, "velocity": 79}, {"time": 1494, "pitch": 74, "duration": 6, "velocity": 83}, {"time": 1500, "pitch": 57, "duration": 5, "velocity": 79}, {"time": 1503, "pitch": 69, "duration": 2, "velocity": 54}, {"time": 1506, "pitch": 50, "duration": 18, "velocity": 80}, {"time": 1506, "pitch": 66, "duration": 5, "velocity": 79}, {"time": 1506, "pitch": 74, "duration": 7, "velocity": 84}, {"time": 1512, "pitch": 57, "duration": 7, "velocity": 73}, {"time": 1515, "pitch": 64, "duration": 3, "velocity": 82}, {"time": 1515, "pitch": 73, "duration": 5, "velocity": 84}, {"time": 1518, "pitch": 62, "duration": 4, "velocity": 71}, {"time": 1521, "pitch": 66, "duration": 5, "velocity": 84}, {"time": 1521, "pitch": 74, "duration": 5, "velocity": 93}, {"time": 1524, "pitch": 57, "duration": 2, "velocity": 78}, {"time": 1530, "pitch": 47, "duration": 21, "velocity": 82}, {"time": 1530, "pitch": 66, "duration": 5, "velocity": 79}, {"time": 1530, "pitch": 69, "duration": 5, "velocity": 83}, {"time": 1530, "pitch": 74, "duration": 4, "velocity": 86}, {"time": 1536, "pitch": 54, "duration": 17, "velocity": 78}, {"time": 1539, "pitch": 59, "duration": 12, "velocity": 76}, {"time": 1542, "pitch": 62, "duration": 3, "velocity": 62}, {"time": 1545, "pitch": 64, "duration": 2, "velocity": 79}, {"time": 1548, "pitch": 66, "duration": 4, "velocity": 59}, {"time": 1551, "pitch": 69, "duration": 3, "velocity": 80}, {"time": 1554, "pitch": 47, "duration": 19, "velocity": 79}, {"time": 1554, "pitch": 66, "duration": 5, "velocity": 82}, {"time": 1554, "pitch": 74, "duration": 7, "velocity": 82}, {"time": 1560, "pitch": 54, "duration": 9, "velocity": 75}, {"time": 1560, "pitch": 64, "duration": 2, "velocity": 68}, {"time": 1560, "pitch": 73, "duration": 3, "velocity": 81}, {"time": 1563, "pitch": 66, "duration": 3, "velocity": 82}, {"time": 1563, "pitch": 74, "duration": 4, "velocity": 86}, {"time": 1566, "pitch": 59, "duration": 3, "velocity": 67}, {"time": 1569, "pitch": 62, "duration": 1, "velocity": 53}, {"time": 1569, "pitch": 69, "duration": 3, "velocity": 86}, {"time": 1572, "pitch": 54, "duration": 2, "velocity": 82}, {"time": 1575, "pitch": 62, "duration": 2, "velocity": 80}, {"time": 1578, "pitch": 43, "duration": 20, "velocity": 79}, {"time": 1578, "pitch": 55, "duration": 15, "velocity": 83}, {"time": 1578, "pitch": 59, "duration": 10, "velocity": 78}, {"time": 1578, "pitch": 62, "duration": 10, "velocity": 72}, {"time": 1578, "pitch": 67, "duration": 7, "velocity": 86}, {"time": 1590, "pitch": 59, "duration": 9, "velocity": 84}, {"time": 1590, "pitch": 62, "duration": 9, "velocity": 84}, {"time": 1590, "pitch": 67, "duration": 6, "velocity": 90}, {"time": 1596, "pitch": 55, "duration": 3, "velocity": 69}, {"time": 1602, "pitch": 45, "duration": 17, "velocity": 82}, {"time": 1602, "pitch": 61, "duration": 9, "velocity": 84}, {"time": 1602, "pitch": 64, "duration": 6, "velocity": 59}, {"time": 1602, "pitch": 69, "duration": 8, "velocity": 93}, {"time": 1608, "pitch": 57, "duration": 8, "velocity": 54}, {"time": 1614, "pitch": 61, "duration": 4, "velocity": 86}, {"time": 1614, "pitch": 64, "duration": 4, "velocity": 86}, {"time": 1614, "pitch": 69, "duration": 5, "velocity": 83}, {"time": 1620, "pitch": 57, "duration": 5, "velocity": 78}, {"time": 1626, "pitch": 50, "duration": 45, "velocity": 79}, {"time": 1626, "pitch": 66, "duration": 11, "velocity": 83}, {"time": 1626, "pitch": 69, "duration": 11, "velocity": 83}, {"time": 1626, "pitch": 74, "duration": 14, "velocity": 86}, {"time": 1632, "pitch": 57, "duration": 44, "velocity": 72}, {"time": 1638, "pitch": 62, "duration": 16, "velocity": 71}, {"time": 1644, "pitch": 69, "duration": 22, "velocity": 78}, {"time": 1650, "pitch": 64, "duration": 13, "velocity": 68}, {"time": 1650, "pitch": 66, "duration": 14, "velocity": 79}, {"time": 1662, "pitch": 62, "duration": 6, "velocity": 67}, {"time": 1665, "pitch": 64, "duration": 5, "velocity": 78}, {"time": 1668, "pitch": 66, "duration": 3, "velocity": 77}, {"time": 1671, "pitch": 69, "duration": 3, "velocity": 72}, {"time": 1674, "pitch": 50, "duration": 39, "velocity": 75}, {"time": 1674, "pitch": 64, "duration": 6, "velocity": 78}, {"time": 1674, "pitch": 74, "duration": 7, "velocity": 82}, {"time": 1680, "pitch": 57, "duration": 12, "velocity": 53}, {"time": 1680, "pitch": 69, "duration": 3, "velocity": 54}, {"time": 1686, "pitch": 66, "duration": 3, "velocity": 70}, {"time": 1686, "pitch": 74, "duration": 4, "velocity": 81}, {"time": 1692, "pitch": 62, "duration": 13, "velocity": 56}, {"time": 1692, "pitch": 66, "duration": 4, "velocity": 79}, {"time": 1692, "pitch": 73, "duration": 6, "velocity": 82}, {"time": 1698, "pitch": 66, "duration": 3, "velocity": 78}, {"time": 1698, "pitch": 74, "duration": 4, "velocity": 84}, {"time": 1704, "pitch": 57, "duration": 11, "velocity": 59}, {"time": 1704, "pitch": 66, "duration": 3, "velocity": 75}, {"time": 1704, "pitch": 73, "duration": 4, "velocity": 76}, {"time": 1704, "pitch": 74, "duration": 2, "velocity": 53}, {"time": 1710, "pitch": 69, "duration": 6, "velocity": 83}, {"time": 1716, "pitch": 66, "duration": 2, "velocity": 77}, {"time": 1722, "pitch": 43, "duration": 45, "velocity": 81}, {"time": 1722, "pitch": 59, "duration": 14, "velocity": 79}, {"time": 1722, "pitch": 62, "duration": 14, "velocity": 83}, {"time": 1722, "pitch": 67, "duration": 15, "velocity": 81}, {"time": 1728, "pitch": 50, "duration": 42, "velocity": 78}, {"time": 1734, "pitch": 55, "duration": 9, "velocity": 71}, {"time": 1740, "pitch": 59, "duration": 8, "velocity": 78}, {"time": 1740, "pitch": 67, "duration": 8, "velocity": 38}, {"time": 1746, "pitch": 55, "duration": 20, "velocity": 60}, {"time": 1752, "pitch": 59, "duration": 1, "velocity": 36}, {"time": 1752, "pitch": 66, "duration": 8, "velocity": 83}, {"time": 1758, "pitch": 67, "duration": 3, "velocity": 84}, {"time": 1764, "pitch": 69, "duration": 4, "velocity": 80}, {"time": 1770, "pitch": 43, "duration": 18, "velocity": 71}, {"time": 1770, "pitch": 71, "duration": 8, "velocity": 80}, {"time": 1776, "pitch": 62, "duration": 7, "velocity": 69}, {"time": 1782, "pitch": 67, "duration": 5, "velocity": 76}, {"time": 1788, "pitch": 71, "duration": 5, "velocity": 73}, {"time": 1791, "pitch": 62, "duration": 6, "velocity": 56}, {"time": 1794, "pitch": 45, "duration": 17, "velocity": 84}, {"time": 1794, "pitch": 57, "duration": 9, "velocity": 79}, {"time": 1794, "pitch": 67, "duration": 6, "velocity": 73}, {"time": 1794, "pitch": 74, "duration": 12, "velocity": 84}, {"time": 1806, "pitch": 57, "duration": 4, "velocity": 83}, {"time": 1806, "pitch": 66, "duration": 4, "velocity": 76}, {"time": 1806, "pitch": 73, "duration": 4, "velocity": 84}, {"time": 1806, "pitch": 74, "duration": 3, "velocity": 40}, {"time": 1818, "pitch": 50, "duration": 21, "velocity": 78}, {"time": 1818, "pitch": 66, "duration": 16, "velocity": 71}, {"time": 1818, "pitch": 74, "duration": 16, "velocity": 84}, {"time": 1824, "pitch": 57, "duration": 17, "velocity": 76}, {"time": 1830, "pitch": 62, "duration": 7, "velocity": 83}, {"time": 1836, "pitch": 69, "duration": 5, "velocity": 80}, {"time": 1842, "pitch": 49, "duration": 18, "velocity": 84}, {"time": 1842, "pitch": 64, "duration": 13, "velocity": 74}, {"time": 1842, "pitch": 69, "duration": 14, "velocity": 79}, {"time": 1848, "pitch": 57, "duration": 13, "velocity": 72}, {"time": 1854, "pitch": 61, "duration": 6, "velocity": 73}, {"time": 1860, "pitch": 69, "duration": 4, "velocity": 73}, {"time": 1863, "pitch": 71, "duration": 4, "velocity": 76}, {"time": 1866, "pitch": 47, "duration": 12, "velocity": 80}, {"time": 1866, "pitch": 66, "duration": 27, "velocity": 78}, {"time": 1866, "pitch": 74, "duration": 27, "velocity": 81}, {"time": 1872, "pitch": 54, "duration": 6, "velocity": 78}, {"time": 1878, "pitch": 59, "duration": 7, "velocity": 72}, {"time": 1884, "pitch": 61, "duration": 23, "velocity": 82}, {"time": 1890, "pitch": 62, "duration": 16, "velocity": 80}, {"time": 1896, "pitch": 66, "duration": 8, "velocity": 72}, {"time": 1902, "pitch": 74, "duration": 13, "velocity": 82}, {"time": 1914, "pitch": 50, "duration": 21, "velocity": 79}, {"time": 1914, "pitch": 66, "duration": 14, "velocity": 78}, {"time": 1914, "pitch": 69, "duration": 14, "velocity": 83}, {"time": 1920, "pitch": 57, "duration": 15, "velocity": 73}, {"time": 1926, "pitch": 62, "duration": 6, "velocity": 84}, {"time": 1932, "pitch": 69, "duration": 4, "velocity": 84}, {"time": 1935, "pitch": 71, "duration": 3, "velocity": 80}, {"time": 1938, "pitch": 49, "duration": 10, "velocity": 84}, {"time": 1938, "pitch": 64, "duration": 14, "velocity": 74}, {"time": 1938, "pitch": 69, "duration": 14, "velocity": 76}, {"time": 1944, "pitch": 57, "duration": 12, "velocity": 62}, {"time": 1950, "pitch": 61, "duration": 3, "velocity": 75}, {"time": 1956, "pitch": 69, "duration": 4, "velocity": 75}, {"time": 1962, "pitch": 54, "duration": 42, "velocity": 80}, {"time": 1962, "pitch": 69, "duration": 11, "velocity": 83}, {"time": 1962, "pitch": 73, "duration": 12, "velocity": 84}, {"time": 1968, "pitch": 61, "duration": 18, "velocity": 73}, {"time": 1974, "pitch": 66, "duration": 12, "velocity": 76}, {"time": 1980, "pitch": 76, "duration": 7, "velocity": 79}, {"time": 1986, "pitch": 73, "duration": 12, "velocity": 80}, {"time": 1992, "pitch": 61, "duration": 10, "velocity": 75}, {"time": 1998, "pitch": 69, "duration": 6, "velocity": 83}, {"time": 2004, "pitch": 66, "duration": 6, "velocity": 76}, {"time": 2010, "pitch": 55, "duration": 18, "velocity": 71}, {"time": 2010, "pitch": 62, "duration": 9, "velocity": 83}, {"time": 2010, "pitch": 71, "duration": 9, "velocity": 84}, {"time": 2016, "pitch": 59, "duration": 11, "velocity": 73}, {"time": 2022, "pitch": 67, "duration": 6, "velocity": 80}, {"time": 2028, "pitch": 71, "duration": 6, "velocity": 79}, {"time": 2034, "pitch": 45, "duration": 16, "velocity": 83}, {"time": 2034, "pitch": 64, "duration": 8, "velocity": 80}, {"time": 2034, "pitch": 69, "duration": 8, "velocity": 79}, {"time": 2034, "pitch": 73, "duration": 8, "velocity": 86}, {"time": 2040, "pitch": 52, "duration": 10, "velocity": 80}, {"time": 2046, "pitch": 57, "duration": 7, "velocity": 58}, {"time": 2052, "pitch": 64, "duration": 5, "velocity": 79}, {"time": 2058, "pitch": 50, "duration": 9, "velocity": 78}, {"time": 2058, "pitch": 66, "duration": 8, "velocity": 79}, {"time": 2058, "pitch": 74, "duration": 8, "velocity": 86}, {"time": 2064, "pitch": 57, "duration": 7, "velocity": 74}, {"time": 2064, "pitch": 73, "duration": 6, "velocity": 84}, {"time": 2070, "pitch": 49, "duration": 11, "velocity": 82}, {"time": 2076, "pitch": 57, "duration": 4, "velocity": 68}, {"time": 2082, "pitch": 47, "duration": 16, "velocity": 83}, {"time": 2082, "pitch": 66, "duration": 8, "velocity": 76}, {"time": 2082, "pitch": 74, "duration": 7, "velocity": 84}, {"time": 2088, "pitch": 54, "duration": 11, "velocity": 76}, {"time": 2094, "pitch": 59, "duration": 5, "velocity": 63}, {"time": 2094, "pitch": 62, "duration": 6, "velocity": 82}, {"time": 2100, "pitch": 66, "duration": 6, "velocity": 79}, {"time": 2106, "pitch": 55, "duration": 16, "velocity": 69}, {"time": 2106, "pitch": 62, "duration": 8, "velocity": 78}, {"time": 2106, "pitch": 67, "duration": 8, "velocity": 79}, {"time": 2106, "pitch": 71, "duration": 7, "velocity": 78}, {"time": 2112, "pitch": 59, "duration": 9, "velocity": 73}, {"time": 2118, "pitch": 62, "duration": 6, "velocity": 84}, {"time": 2124, "pitch": 71, "duration": 5, "velocity": 79}, {"time": 2130, "pitch": 45, "duration": 12, "velocity": 80}, {"time": 2130, "pitch": 64, "duration": 7, "velocity": 78}, {"time": 2130, "pitch": 69, "duration": 7, "velocity": 79}, {"time": 2130, "pitch": 73, "duration": 6, "velocity": 90}, {"time": 2136, "pitch": 52, "duration": 6, "velocity": 75}, {"time": 2142, "pitch": 57, "duration": 9, "velocity": 59}, {"time": 2142, "pitch": 64, "duration": 8, "velocity": 78}, {"time": 2142, "pitch": 71, "duration": 6, "velocity": 79}, {"time": 2148, "pitch": 59, "duration": 6, "velocity": 61}, {"time": 2148, "pitch": 69, "duration": 6, "velocity": 78}, {"time": 2154, "pitch": 50, "duration": 19, "velocity": 83}, {"time": 2154, "pitch": 66, "duration": 14, "velocity": 83}, {"time": 2160, "pitch": 57, "duration": 18, "velocity": 75}, {"time": 2166, "pitch": 62, "duration": 7, "velocity": 79}, {"time": 2172, "pitch": 64, "duration": 7, "velocity": 80}, {"time": 2178, "pitch": 50, "duration": 9, "velocity": 79}, {"time": 2178, "pitch": 66, "duration": 5, "velocity": 80}, {"time": 2184, "pitch": 57, "duration": 6, "velocity": 73}, {"time": 2184, "pitch": 69, "duration": 4, "velocity": 79}, {"time": 2190, "pitch": 62, "duration": 6, "velocity": 68}, {"time": 2190, "pitch": 69, "duration": 3, "velocity": 82}, {"time": 2196, "pitch": 64, "duration": 2, "velocity": 79}, {"time": 2196, "pitch": 76, "duration": 5, "velocity": 78}, {"time": 2202, "pitch": 50, "duration": 15, "velocity": 80}, {"time": 2202, "pitch": 74, "duration": 14, "velocity": 84}, {"time": 2208, "pitch": 57, "duration": 12, "velocity": 73}, {"time": 2214, "pitch": 62, "duration": 3, "velocity": 80}, {"time": 2217, "pitch": 69, "duration": 3, "velocity": 75}, {"time": 2220, "pitch": 74, "duration": 3, "velocity": 79}, {"time": 2223, "pitch": 78, "duration": 3, "velocity": 79}, {"time": 2226, "pitch": 49, "duration": 8, "velocity": 79}, {"time": 2226, "pitch": 74, "duration": 9, "velocity": 80}, {"time": 2232, "pitch": 57, "duration": 11, "velocity": 71}, {"time": 2238, "pitch": 61, "duration": 4, "velocity": 68}, {"time": 2238, "pitch": 69, "duration": 6, "velocity": 79}, {"time": 2244, "pitch": 81, "duration": 5, "velocity": 73}, {"time": 2250, "pitch": 47, "duration": 43, "velocity": 79}, {"time": 2250, "pitch": 74, "duration": 5, "velocity": 83}, {"time": 2256, "pitch": 54, "duration": 38, "velocity": 72}, {"time": 2262, "pitch": 59, "duration": 8, "velocity": 62}, {"time": 2268, "pitch": 61, "duration": 4, "velocity": 75}, {"time": 2271, "pitch": 62, "duration": 5, "velocity": 70}, {"time": 2274, "pitch": 59, "duration": 8, "velocity": 58}, {"time": 2274, "pitch": 66, "duration": 4, "velocity": 78}, {"time": 2277, "pitch": 69, "duration": 1, "velocity": 46}, {"time": 2283, "pitch": 73, "duration": 3, "velocity": 73}, {"time": 2286, "pitch": 59, "duration": 4, "velocity": 58}, {"time": 2286, "pitch": 74, "duration": 5, "velocity": 82}, {"time": 2289, "pitch": 73, "duration": 4, "velocity": 78}, {"time": 2295, "pitch": 69, "duration": 5, "velocity": 72}, {"time": 2298, "pitch": 50, "duration": 18, "velocity": 76}, {"time": 2298, "pitch": 66, "duration": 9, "velocity": 78}, {"time": 2304, "pitch": 57, "duration": 7, "velocity": 63}, {"time": 2310, "pitch": 62, "duration": 5, "velocity": 59}, {"time": 2310, "pitch": 64, "duration": 5, "velocity": 70}, {"time": 2310, "pitch": 69, "duration": 5, "velocity": 78}, {"time": 2316, "pitch": 57, "duration": 6, "velocity": 73}, {"time": 2316, "pitch": 66, "duration": 6, "velocity": 79}, {"time": 2322, "pitch": 49, "duration": 7, "velocity": 82}, {"time": 2322, "pitch": 64, "duration": 7, "velocity": 76}, {"time": 2322, "pitch": 69, "duration": 5, "velocity": 79}, {"time": 2328, "pitch": 57, "duration": 10, "velocity": 73}, {"time": 2334, "pitch": 61, "duration": 3, "velocity": 60}, {"time": 2334, "pitch": 66, "duration": 5, "velocity": 79}, {"time": 2334, "pitch": 73, "duration": 5, "velocity": 84}, {"time": 2346, "pitch": 42, "duration": 6, "velocity": 84}, {"time": 2346, "pitch": 64, "duration": 14, "velocity": 61}, {"time": 2346, "pitch": 73, "duration": 15, "velocity": 83}, {"time": 2352, "pitch": 54, "duration": 7, "velocity": 70}, {"time": 2358, "pitch": 57, "duration": 8, "velocity": 77}, {"time": 2364, "pitch": 62, "duration": 2, "velocity": 83}, {"time": 2370, "pitch": 42, "duration": 19, "velocity": 82}, {"time": 2370, "pitch": 64, "duration": 3, "velocity": 70}, {"time": 2370, "pitch": 69, "duration": 6, "velocity": 79}, {"time": 2376, "pitch": 64, "duration": 4, "velocity": 75}, {"time": 2376, "pitch": 73, "duration": 5, "velocity": 82}, {"time": 2382, "pitch": 54, "duration": 11, "velocity": 72}, {"time": 2382, "pitch": 64, "duration": 7, "velocity": 81}, {"time": 2382, "pitch": 76, "duration": 4, "velocity": 78}, {"time": 2388, "pitch": 74, "duration": 3, "velocity": 81}, {"time": 2394, "pitch": 43, "duration": 13, "velocity": 80}, {"time": 2394, "pitch": 62, "duration": 20, "velocity": 84}, {"time": 2394, "pitch": 67, "duration": 19, "velocity": 73}, {"time": 2394, "pitch": 71, "duration": 21, "velocity": 75}, {"time": 2394, "pitch": 74, "duration": 20, "velocity": 72}, {"time": 2400, "pitch": 50, "duration": 7, "velocity": 78}, {"time": 2406, "pitch": 55, "duration": 7, "velocity": 74}, {"time": 2412, "pitch": 59, "duration": 2, "velocity": 78}, {"time": 2418, "pitch": 45, "duration": 13, "velocity": 84}, {"time": 2418, "pitch": 64, "duration": 13, "velocity": 78}, {"time": 2418, "pitch": 69, "duration": 13, "velocity": 82}, {"time": 2418, "pitch": 73, "duration": 12, "velocity": 84}, {"time": 2424, "pitch": 52, "duration": 8, "velocity": 75}, {"time": 2430, "pitch": 57, "duration": 5, "velocity": 69}, {"time": 2436, "pitch": 64, "duration": 3, "velocity": 71}, {"time": 2436, "pitch": 71, "duration": 5, "velocity": 75}, {"time": 2442, "pitch": 50, "duration": 8, "velocity": 84}, {"time": 2442, "pitch": 66, "duration": 7, "velocity": 82}, {"time": 2442, "pitch": 69, "duration": 6, "velocity": 84}, {"time": 2448, "pitch": 57, "duration": 7, "velocity": 77}, {"time": 2454, "pitch": 49, "duration": 11, "velocity": 84}, {"time": 2454, "pitch": 64, "duration": 6, "velocity": 78}, {"time": 2454, "pitch": 69, "duration": 8, "velocity": 81}, {"time": 2460, "pitch": 57, "duration": 3, "velocity": 78}, {"time": 2466, "pitch": 47, "duration": 17, "velocity": 83}, {"time": 2466, "pitch": 66, "duration": 8, "velocity": 80}, {"time": 2466, "pitch": 69, "duration": 7, "velocity": 74}, {"time": 2466, "pitch": 74, "duration": 7, "velocity": 81}, {"time": 2472, "pitch": 54, "duration": 11, "velocity": 72}, {"time": 2478, "pitch": 59, "duration": 4, "velocity": 76}, {"time": 2484, "pitch": 62, "duration": 4, "velocity": 72}, {"time": 2487, "pitch": 66, "duration": 3, "velocity": 75}, {"time": 2490, "pitch": 55, "duration": 16, "velocity": 76}, {"time": 2490, "pitch": 62, "duration": 6, "velocity": 84}, {"time": 2490, "pitch": 67, "duration": 7, "velocity": 84}, {"time": 2490, "pitch": 71, "duration": 6, "velocity": 84}, {"time": 2496, "pitch": 59, "duration": 11, "velocity": 73}, {"time": 2502, "pitch": 62, "duration": 4, "velocity": 80}, {"time": 2502, "pitch": 67, "duration": 4, "velocity": 80}, {"time": 2502, "pitch": 71, "duration": 5, "velocity": 80}, {"time": 2505, "pitch": 55, "duration": 1, "velocity": 46}, {"time": 2508, "pitch": 62, "duration": 11, "velocity": 73}, {"time": 2514, "pitch": 67, "duration": 9, "velocity": 69}, {"time": 2514, "pitch": 71, "duration": 3, "velocity": 81}, {"time": 2514, "pitch": 79, "duration": 5, "velocity": 93}, {"time": 2520, "pitch": 69, "duration": 4, "velocity": 81}, {"time": 2520, "pitch": 78, "duration": 7, "velocity": 79}, {"time": 2526, "pitch": 62, "duration": 6, "velocity": 81}, {"time": 2526, "pitch": 71, "duration": 7, "velocity": 76}, {"time": 2526, "pitch": 79, "duration": 3, "velocity": 90}, {"time": 2532, "pitch": 81, "duration": 4, "velocity": 81}, {"time": 2538, "pitch": 45, "duration": 19, "velocity": 82}, {"time": 2538, "pitch": 69, "duration": 5, "velocity": 79}, {"time": 2538, "pitch": 76, "duration": 4, "velocity": 83}, {"time": 2544, "pitch": 52, "duration": 16, "velocity": 79}, {"time": 2547, "pitch": 57, "duration": 9, "velocity": 72}, {"time": 2550, "pitch": 62, "duration": 4, "velocity": 82}, {"time": 2553, "pitch": 64, "duration": 2, "velocity": 81}, {"time": 2556, "pitch": 69, "duration": 3, "velocity": 80}, {"time": 2559, "pitch": 74, "duration": 3, "velocity": 78}, {"time": 2562, "pitch": 45, "duration": 3, "velocity": 80}, {"time": 2562, "pitch": 76, "duration": 3, "velocity": 80}, {"time": 2565, "pitch": 57, "duration": 4, "velocity": 62}, {"time": 2565, "pitch": 69, "duration": 5, "velocity": 57}, {"time": 2565, "pitch": 78, "duration": 3, "velocity": 75}, {"time": 2568, "pitch": 59, "duration": 9, "velocity": 62}, {"time": 2568, "pitch": 79, "duration": 4, "velocity": 82}, {"time": 2571, "pitch": 78, "duration": 3, "velocity": 80}, {"time": 2574, "pitch": 61, "duration": 5, "velocity": 80}, {"time": 2574, "pitch": 74, "duration": 3, "velocity": 78}, {"time": 2577, "pitch": 69, "duration": 3, "velocity": 74}, {"time": 2580, "pitch": 67, "duration": 5, "velocity": 76}, {"time": 2586, "pitch": 50, "duration": 23, "velocity": 77}, {"time": 2586, "pitch": 57, "duration": 26, "velocity": 75}, {"time": 2586, "pitch": 62, "duration": 14, "velocity": 81}, {"time": 2586, "pitch": 66, "duration": 10, "velocity": 80}, {"time": 2586, "pitch": 69, "duration": 10, "velocity": 72}, {"time": 2586, "pitch": 74, "duration": 8, "velocity": 78}, {"time": 2598, "pitch": 66, "duration": 7, "velocity": 79}, {"time": 2598, "pitch": 69, "duration": 8, "velocity": 79}, {"time": 2598, "pitch": 74, "duration": 7, "velocity": 83}, {"time": 2604, "pitch": 62, "duration": 4, "velocity": 54}, {"time": 2607, "pitch": 66, "duration": 2, "velocity": 57}, {"time": 2610, "pitch": 50, "duration": 19, "velocity": 82}, {"time": 2610, "pitch": 66, "duration": 7, "velocity": 77}, {"time": 2610, "pitch": 69, "duration": 7, "velocity": 75}, {"time": 2610, "pitch": 74, "duration": 7, "velocity": 84}, {"time": 2616, "pitch": 57, "duration": 10, "velocity": 54}, {"time": 2619, "pitch": 66, "duration": 5, "velocity": 78}, {"time": 2619, "pitch": 69, "duration": 4, "velocity": 71}, {"time": 2619, "pitch": 73, "duration": 5, "velocity": 83}, {"time": 2622, "pitch": 62, "duration": 4, "velocity": 71}, {"time": 2625, "pitch": 66, "duration": 4, "velocity": 83}, {"time": 2625, "pitch": 69, "duration": 4, "velocity": 82}, {"time": 2625, "pitch": 73, "duration": 1, "velocity": 23}, {"time": 2625, "pitch": 74, "duration": 5, "velocity": 91}, {"time": 2628, "pitch": 57, "duration": 2, "velocity": 79}, {"time": 2634, "pitch": 47, "duration": 43, "velocity": 84}, {"time": 2634, "pitch": 66, "duration": 6, "velocity": 81}, {"time": 2634, "pitch": 69, "duration": 5, "velocity": 79}, {"time": 2634, "pitch": 74, "duration": 5, "velocity": 84}, {"time": 2640, "pitch": 54, "duration": 8, "velocity": 75}, {"time": 2646, "pitch": 59, "duration": 8, "velocity": 68}, {"time": 2646, "pitch": 62, "duration": 9, "velocity": 80}, {"time": 2646, "pitch": 66, "duration": 6, "velocity": 80}, {"time": 2646, "pitch": 71, "duration": 9, "velocity": 82}, {"time": 2652, "pitch": 54, "duration": 20, "velocity": 59}, {"time": 2658, "pitch": 62, "duration": 6, "velocity": 82}, {"time": 2658, "pitch": 66, "duration": 7, "velocity": 80}, {"time": 2658, "pitch": 71, "duration": 6, "velocity": 79}, {"time": 2664, "pitch": 59, "duration": 4, "velocity": 55}, {"time": 2667, "pitch": 62, "duration": 4, "velocity": 80}, {"time": 2667, "pitch": 69, "duration": 7, "velocity": 82}, {"time": 2670, "pitch": 59, "duration": 3, "velocity": 71}, {"time": 2673, "pitch": 62, "duration": 4, "velocity": 90}, {"time": 2673, "pitch": 66, "duration": 1, "velocity": 56}, {"time": 2673, "pitch": 71, "duration": 3, "velocity": 86}, {"time": 2676, "pitch": 54, "duration": 2, "velocity": 83}, {"time": 2682, "pitch": 43, "duration": 30, "velocity": 78}, {"time": 2682, "pitch": 55, "duration": 15, "velocity": 73}, {"time": 2682, "pitch": 59, "duration": 9, "velocity": 78}, {"time": 2682, "pitch": 62, "duration": 8, "velocity": 84}, {"time": 2682, "pitch": 67, "duration": 7, "velocity": 90}, {"time": 2694, "pitch": 59, "duration": 9, "velocity": 80}, {"time": 2694, "pitch": 62, "duration": 7, "velocity": 84}, {"time": 2694, "pitch": 67, "duration": 7, "velocity": 86}, {"time": 2700, "pitch": 55, "duration": 8, "velocity": 54}, {"time": 2706, "pitch": 59, "duration": 6, "velocity": 76}, {"time": 2706, "pitch": 62, "duration": 7, "velocity": 84}, {"time": 2706, "pitch": 67, "duration": 6, "velocity": 84}, {"time": 2712, "pitch": 45, "duration": 12, "velocity": 82}, {"time": 2712, "pitch": 55, "duration": 3, "velocity": 67}, {"time": 2712, "pitch": 61, "duration": 6, "velocity": 84}, {"time": 2712, "pitch": 64, "duration": 6, "velocity": 84}, {"time": 2712, "pitch": 69, "duration": 6, "velocity": 84}, {"time": 2721, "pitch": 57, "duration": 5, "velocity": 59}, {"time": 2721, "pitch": 61, "duration": 4, "velocity": 82}, {"time": 2724, "pitch": 64, "duration": 3, "velocity": 83}, {"time": 2730, "pitch": 52, "duration": 15, "velocity": 81}, {"time": 2730, "pitch": 59, "duration": 8, "velocity": 81}, {"time": 2730, "pitch": 62, "duration": 9, "velocity": 76}, {"time": 2730, "pitch": 67, "duration": 6, "velocity": 83}, {"time": 2742, "pitch": 59, "duration": 7, "velocity": 78}, {"time": 2742, "pitch": 62, "duration": 8, "velocity": 79}, {"time": 2742, "pitch": 67, "duration": 8, "velocity": 84}, {"time": 2748, "pitch": 52, "duration": 2, "velocity": 81}, {"time": 2754, "pitch": 43, "duration": 4, "velocity": 72}, {"time": 2754, "pitch": 45, "duration": 18, "velocity": 74}, {"time": 2754, "pitch": 57, "duration": 3, "velocity": 71}, {"time": 2754, "pitch": 61, "duration": 5, "velocity": 84}, {"time": 2754, "pitch": 64, "duration": 7, "velocity": 84}, {"time": 2754, "pitch": 69, "duration": 5, "velocity": 83}, {"time": 2760, "pitch": 57, "duration": 4, "velocity": 68}, {"time": 2763, "pitch": 59, "duration": 2, "velocity": 84}, {"time": 2763, "pitch": 62, "duration": 2, "velocity": 82}, {"time": 2763, "pitch": 67, "duration": 3, "velocity": 86}, {"time": 2766, "pitch": 57, "duration": 3, "velocity": 75}, {"time": 2769, "pitch": 61, "duration": 2, "velocity": 80}, {"time": 2769, "pitch": 69, "duration": 2, "velocity": 91}, {"time": 2772, "pitch": 57, "duration": 5, "velocity": 84}, {"time": 2775, "pitch": 69, "duration": 2, "velocity": 75}, {"time": 2778, "pitch": 50, "duration": 19, "velocity": 91}, {"time": 2778, "pitch": 66, "duration": 5, "velocity": 93}, {"time": 2778, "pitch": 69, "duration": 6, "velocity": 84}, {"time": 2778, "pitch": 74, "duration": 7, "velocity": 84}, {"time": 2784, "pitch": 57, "duration": 7, "velocity": 72}, {"time": 2784, "pitch": 66, "duration": 4, "velocity": 68}, {"time": 2784, "pitch": 73, "duration": 6, "velocity": 86}, {"time": 2790, "pitch": 62, "duration": 7, "velocity": 62}, {"time": 2790, "pitch": 66, "duration": 7, "velocity": 79}, {"time": 2790, "pitch": 74, "duration": 6, "velocity": 83}, {"time": 2796, "pitch": 57, "duration": 5, "velocity": 79}, {"time": 2799, "pitch": 69, "duration": 2, "velocity": 54}, {"time": 2802, "pitch": 50, "duration": 18, "velocity": 80}, {"time": 2802, "pitch": 66, "duration": 5, "velocity": 79}, {"time": 2802, "pitch": 74, "duration": 7, "velocity": 84}, {"time": 2808, "pitch": 57, "duration": 7, "velocity": 73}, {"time": 2811, "pitch": 64, "duration": 3, "velocity": 82}, {"time": 2811, "pitch": 73, "duration": 5, "velocity": 84}, {"time": 2814, "pitch": 62, "duration": 4, "velocity": 71}, {"time": 2817, "pitch": 66, "duration": 5, "velocity": 84}, {"time": 2817, "pitch": 74, "duration": 5, "velocity": 93}, {"time": 2820, "pitch": 57, "duration": 2, "velocity": 78}, {"time": 2826, "pitch": 47, "duration": 21, "velocity": 82}, {"time": 2826, "pitch": 66, "duration": 5, "velocity": 79}, {"time": 2826, "pitch": 69, "duration": 5, "velocity": 83}, {"time": 2826, "pitch": 74, "duration": 4, "velocity": 86}, {"time": 2832, "pitch": 54, "duration": 17, "velocity": 78}, {"time": 2835, "pitch": 59, "duration": 12, "velocity": 76}, {"time": 2838, "pitch": 62, "duration": 3, "velocity": 62}, {"time": 2841, "pitch": 64, "duration": 2, "velocity": 79}, {"time": 2844, "pitch": 66, "duration": 4, "velocity": 59}, {"time": 2847, "pitch": 69, "duration": 3, "velocity": 80}, {"time": 2850, "pitch": 47, "duration": 19, "velocity": 79}, {"time": 2850, "pitch": 66, "duration": 5, "velocity": 82}, {"time": 2850, "pitch": 74, "duration": 7, "velocity": 82}, {"time": 2856, "pitch": 54, "duration": 9, "velocity": 75}, {"time": 2856, "pitch": 64, "duration": 2, "velocity": 68}, {"time": 2856, "pitch": 73, "duration": 3, "velocity": 81}, {"time": 2859, "pitch": 66, "duration": 3, "velocity": 82}, {"time": 2859, "pitch": 74, "duration": 4, "velocity": 86}, {"time": 2862, "pitch": 59, "duration": 3, "velocity": 67}, {"time": 2865, "pitch": 62, "duration": 1, "velocity": 53}, {"time": 2865, "pitch": 69, "duration": 3, "velocity": 86}, {"time": 2868, "pitch": 54, "duration": 2, "velocity": 82}, {"time": 2871, "pitch": 62, "duration": 2, "velocity": 80}, {"time": 2874, "pitch": 43, "duration": 20, "velocity": 79}, {"time": 2874, "pitch": 55, "duration": 15, "velocity": 83}, {"time": 2874, "pitch": 59, "duration": 10, "velocity": 78}, {"time": 2874, "pitch": 62, "duration": 10, "velocity": 72}, {"time": 2874, "pitch": 67, "duration": 7, "velocity": 86}, {"time": 2886, "pitch": 59, "duration": 9, "velocity": 84}, {"time": 2886, "pitch": 62, "duration": 9, "velocity": 84}, {"time": 2886, "pitch": 67, "duration": 6, "velocity": 90}, {"time": 2892, "pitch": 55, "duration": 3, "velocity": 69}, {"time": 2898, "pitch": 45, "duration": 17, "velocity": 82}, {"time": 2898, "pitch": 61, "duration": 9, "velocity": 84}, {"time": 2898, "pitch": 64, "duration": 6, "velocity": 59}, {"time": 2898, "pitch": 69, "duration": 8, "velocity": 93}, {"time": 2904, "pitch": 57, "duration": 8, "velocity": 54}, {"time": 2910, "pitch": 61, "duration": 4, "velocity": 86}, {"time": 2910, "pitch": 64, "duration": 4, "velocity": 86}, {"time": 2910, "pitch": 69, "duration": 5, "velocity": 83}, {"time": 2916, "pitch": 57, "duration": 5, "velocity": 78}, {"time": 2922, "pitch": 50, "duration": 42, "velocity": 80}, {"time": 2922, "pitch": 66, "duration": 7, "velocity": 82}, {"time": 2922, "pitch": 69, "duration": 8, "velocity": 83}, {"time": 2922, "pitch": 74, "duration": 7, "velocity": 84}, {"time": 2928, "pitch": 57, "duration": 30, "velocity": 60}, {"time": 2934, "pitch": 62, "duration": 14, "velocity": 75}, {"time": 2934, "pitch": 66, "duration": 7, "velocity": 80}, {"time": 2934, "pitch": 69, "duration": 7, "velocity": 79}, {"time": 2934, "pitch": 74, "duration": 7, "velocity": 84}, {"time": 2946, "pitch": 66, "duration": 7, "velocity": 80}, {"time": 2946, "pitch": 69, "duration": 8, "velocity": 82}, {"time": 2946, "pitch": 74, "duration": 6, "velocity": 83}, {"time": 2952, "pitch": 62, "duration": 7, "velocity": 51}, {"time": 2958, "pitch": 66, "duration": 5, "velocity": 84}, {"time": 2958, "pitch": 69, "duration": 5, "velocity": 84}, {"time": 2958, "pitch": 74, "duration": 5, "velocity": 91}, {"time": 2964, "pitch": 57, "duration": 2, "velocity": 77}, {"time": 2970, "pitch": 47, "duration": 9, "velocity": 82}, {"time": 2970, "pitch": 66, "duration": 10, "velocity": 83}, {"time": 2970, "pitch": 74, "duration": 7, "velocity": 90}, {"time": 2976, "pitch": 54, "duration": 6, "velocity": 78}, {"time": 2976, "pitch": 73, "duration": 6, "velocity": 84}, {"time": 2982, "pitch": 59, "duration": 8, "velocity": 61}, {"time": 2982, "pitch": 66, "duration": 4, "velocity": 77}, {"time": 2982, "pitch": 74, "duration": 6, "velocity": 80}, {"time": 2988, "pitch": 61, "duration": 22, "velocity": 81}, {"time": 2988, "pitch": 66, "duration": 11, "velocity": 82}, {"time": 2988, "pitch": 69, "duration": 13, "velocity": 84}, {"time": 2988, "pitch": 74, "duration": 16, "velocity": 57}, {"time": 3000, "pitch": 62, "duration": 9, "velocity": 82}, {"time": 3003, "pitch": 66, "duration": 5, "velocity": 83}, {"time": 3006, "pitch": 74, "duration": 6, "velocity": 91}, {"time": 3009, "pitch": 73, "duration": 3, "velocity": 81}, {"time": 3012, "pitch": 69, "duration": 4, "velocity": 79}, {"time": 3018, "pitch": 43, "duration": 44, "velocity": 81}, {"time": 3018, "pitch": 55, "duration": 27, "velocity": 75}, {"time": 3018, "pitch": 62, "duration": 8, "velocity": 79}, {"time": 3018, "pitch": 64, "duration": 4, "velocity": 72}, {"time": 3018, "pitch": 67, "duration": 7, "velocity": 83}, {"time": 3018, "pitch": 71, "duration": 6, "velocity": 82}, {"time": 3030, "pitch": 62, "duration": 7, "velocity": 81}, {"time": 3030, "pitch": 67, "duration": 8, "velocity": 83}, {"time": 3030, "pitch": 71, "duration": 8, "velocity": 78}, {"time": 3042, "pitch": 62, "duration": 6, "velocity": 78}, {"time": 3042, "pitch": 67, "duration": 7, "velocity": 84}, {"time": 3042, "pitch": 71, "duration": 6, "velocity": 79}, {"time": 3048, "pitch": 55, "duration": 9, "velocity": 72}, {"time": 3051, "pitch": 62, "duration": 5, "velocity": 80}, {"time": 3054, "pitch": 67, "duration": 4, "velocity": 83}, {"time": 3057, "pitch": 71, "duration": 4, "velocity": 80}, {"time": 3060, "pitch": 55, "duration": 5, "velocity": 79}, {"time": 3060, "pitch": 74, "duration": 4, "velocity": 82}, {"time": 3066, "pitch": 45, "duration": 11, "velocity": 86}, {"time": 3066, "pitch": 74, "duration": 6, "velocity": 98}, {"time": 3072, "pitch": 52, "duration": 6, "velocity": 82}, {"time": 3072, "pitch": 73, "duration": 6, "velocity": 83}, {"time": 3078, "pitch": 57, "duration": 7, "velocity": 79}, {"time": 3078, "pitch": 69, "duration": 5, "velocity": 82}, {"time": 3084, "pitch": 59, "duration": 11, "velocity": 80}, {"time": 3084, "pitch": 71, "duration": 5, "velocity": 94}, {"time": 3090, "pitch": 61, "duration": 6, "velocity": 76}, {"time": 3090, "pitch": 73, "duration": 4, "velocity": 91}, {"time": 3096, "pitch": 62, "duration": 4, "velocity": 82}, {"time": 3096, "pitch": 74, "duration": 3, "velocity": 94}, {"time": 3099, "pitch": 64, "duration": 5, "velocity": 75}, {"time": 3099, "pitch": 74, "duration": 1, "velocity": 33}, {"time": 3102, "pitch": 66, "duration": 3, "velocity": 84}, {"time": 3102, "pitch": 76, "duration": 3, "velocity": 84}, {"time": 3105, "pitch": 69, "duration": 3, "velocity": 75}, {"time": 3108, "pitch": 74, "duration": 4, "velocity": 84}, {"time": 3111, "pitch": 76, "duration": 2, "velocity": 86}, {"time": 3114, "pitch": 50, "duration": 40, "velocity": 83}, {"time": 3114, "pitch": 69, "duration": 7, "velocity": 78}, {"time": 3114, "pitch": 74, "duration": 6, "velocity": 84}, {"time": 3114, "pitch": 78, "duration": 6, "velocity": 78}, {"time": 3120, "pitch": 57, "duration": 8, "velocity": 73}, {"time": 3126, "pitch": 62, "duration": 14, "velocity": 74}, {"time": 3126, "pitch": 66, "duration": 7, "velocity": 80}, {"time": 3126, "pitch": 69, "duration": 7, "velocity": 82}, {"time": 3126, "pitch": 74, "duration": 6, "velocity": 86}, {"time": 3132, "pitch": 57, "duration": 22, "velocity": 54}, {"time": 3138, "pitch": 66, "duration": 7, "velocity": 80}, {"time": 3138, "pitch": 69, "duration": 7, "velocity": 82}, {"time": 3138, "pitch": 74, "duration": 6, "velocity": 83}, {"time": 3144, "pitch": 62, "duration": 6, "velocity": 57}, {"time": 3150, "pitch": 66, "duration": 4, "velocity": 84}, {"time": 3150, "pitch": 69, "duration": 5, "velocity": 84}, {"time": 3150, "pitch": 74, "duration": 5, "velocity": 90}, {"time": 3153, "pitch": 62, "duration": 1, "velocity": 74}, {"time": 3156, "pitch": 49, "duration": 3, "velocity": 91}, {"time": 3156, "pitch": 61, "duration": 2, "velocity": 84}, {"time": 3156, "pitch": 66, "duration": 2, "velocity": 67}, {"time": 3156, "pitch": 73, "duration": 4, "velocity": 84}, {"time": 3162, "pitch": 47, "duration": 43, "velocity": 84}, {"time": 3162, "pitch": 59, "duration": 16, "velocity": 83}, {"time": 3162, "pitch": 66, "duration": 8, "velocity": 82}, {"time": 3162, "pitch": 69, "duration": 8, "velocity": 84}, {"time": 3162, "pitch": 74, "duration": 7, "velocity": 84}, {"time": 3174, "pitch": 66, "duration": 8, "velocity": 79}, {"time": 3174, "pitch": 69, "duration": 8, "velocity": 84}, {"time": 3174, "pitch": 74, "duration": 8, "velocity": 84}, {"time": 3180, "pitch": 59, "duration": 12, "velocity": 18}, {"time": 3186, "pitch": 66, "duration": 9, "velocity": 76}, {"time": 3186, "pitch": 69, "duration": 7, "velocity": 83}, {"time": 3186, "pitch": 74, "duration": 9, "velocity": 79}, {"time": 3195, "pitch": 59, "duration": 7, "velocity": 68}, {"time": 3201, "pitch": 62, "duration": 4, "velocity": 90}, {"time": 3201, "pitch": 67, "duration": 2, "velocity": 79}, {"time": 3201, "pitch": 69, "duration": 2, "velocity": 76}, {"time": 3207, "pitch": 62, "duration": 2, "velocity": 68}, {"time": 3210, "pitch": 43, "duration": 43, "velocity": 84}, {"time": 3210, "pitch": 55, "duration": 16, "velocity": 82}, {"time": 3210, "pitch": 59, "duration": 9, "velocity": 78}, {"time": 3210, "pitch": 62, "duration": 9, "velocity": 82}, {"time": 3210, "pitch": 67, "duration": 8, "velocity": 83}, {"time": 3222, "pitch": 59, "duration": 8, "velocity": 78}, {"time": 3222, "pitch": 62, "duration": 7, "velocity": 86}, {"time": 3222, "pitch": 67, "duration": 7, "velocity": 81}, {"time": 3228, "pitch": 55, "duration": 9, "velocity": 52}, {"time": 3234, "pitch": 59, "duration": 8, "velocity": 76}, {"time": 3234, "pitch": 62, "duration": 7, "velocity": 83}, {"time": 3234, "pitch": 67, "duration": 6, "velocity": 81}, {"time": 3240, "pitch": 55, "duration": 8, "velocity": 39}, {"time": 3246, "pitch": 59, "duration": 7, "velocity": 86}, {"time": 3246, "pitch": 62, "duration": 7, "velocity": 98}, {"time": 3246, "pitch": 67, "duration": 6, "velocity": 90}, {"time": 3252, "pitch": 55, "duration": 2, "velocity": 80}, {"time": 3258, "pitch": 45, "duration": 20, "velocity": 84}, {"time": 3258, "pitch": 57, "duration": 15, "velocity": 84}, {"time": 3258, "pitch": 59, "duration": 9, "velocity": 86}, {"time": 3258, "pitch": 62, "duration": 9, "velocity": 96}, {"time": 3258, "pitch": 67, "duration": 6, "velocity": 90}, {"time": 3270, "pitch": 59, "duration": 6, "velocity": 84}, {"time": 3270, "pitch": 62, "duration": 6, "velocity": 91}, {"time": 3270, "pitch": 67, "duration": 5, "velocity": 90}, {"time": 3276, "pitch": 57, "duration": 3, "velocity": 81}, {"time": 3282, "pitch": 45, "duration": 19, "velocity": 86}, {"time": 3282, "pitch": 57, "duration": 4, "velocity": 86}, {"time": 3282, "pitch": 61, "duration": 4, "velocity": 90}, {"time": 3282, "pitch": 64, "duration": 5, "velocity": 90}, {"time": 3282, "pitch": 69, "duration": 4, "velocity": 91}, {"time": 3288, "pitch": 57, "duration": 3, "velocity": 75}, {"time": 3288, "pitch": 59, "duration": 3, "velocity": 86}, {"time": 3288, "pitch": 62, "duration": 4, "velocity": 84}, {"time": 3288, "pitch": 67, "duration": 3, "velocity": 86}, {"time": 3294, "pitch": 57, "duration": 4, "velocity": 83}, {"time": 3294, "pitch": 62, "duration": 3, "velocity": 91}, {"time": 3294, "pitch": 69, "duration": 3, "velocity": 86}, {"time": 3300, "pitch": 52, "duration": 2, "velocity": 93}, {"time": 3300, "pitch": 57, "duration": 1, "velocity": 55}, {"time": 3300, "pitch": 62, "duration": 2, "velocity": 73}, {"time": 3300, "pitch": 71, "duration": 3, "velocity": 95}, {"time": 3306, "pitch": 50, "duration": 23, "velocity": 77}, {"time": 3306, "pitch": 57, "duration": 26, "velocity": 75}, {"time": 3306, "pitch": 62, "duration": 14, "velocity": 81}, {"time": 3306, "pitch": 66, "duration": 10, "velocity": 80}, {"time": 3306, "pitch": 69, "duration": 10, "velocity": 72}, {"time": 3306, "pitch": 74, "duration": 8, "velocity": 78}, {"time": 3318, "pitch": 66, "duration": 7, "velocity": 79}, {"time": 3318, "pitch": 69, "duration": 8, "velocity": 79}, {"time": 3318, "pitch": 74, "duration": 7, "velocity": 83}, {"time": 3324, "pitch": 62, "duration": 4, "velocity": 54}, {"time": 3327, "pitch": 66, "duration": 2, "velocity": 57}, {"time": 3330, "pitch": 50, "duration": 19, "velocity": 82}, {"time": 3330, "pitch": 66, "duration": 7, "velocity": 77}, {"time": 3330, "pitch": 69, "duration": 7, "velocity": 75}, {"time": 3330, "pitch": 74, "duration": 7, "velocity": 84}, {"time": 3336, "pitch": 57, "duration": 10, "velocity": 54}, {"time": 3339, "pitch": 66, "duration": 5, "velocity": 78}, {"time": 3339, "pitch": 69, "duration": 4, "velocity": 71}, {"time": 3339, "pitch": 73, "duration": 5, "velocity": 83}, {"time": 3342, "pitch": 62, "duration": 4, "velocity": 71}, {"time": 3345, "pitch": 66, "duration": 4, "velocity": 83}, {"time": 3345, "pitch": 69, "duration": 4, "velocity": 82}, {"time": 3345, "pitch": 73, "duration": 1, "velocity": 23}, {"time": 3345, "pitch": 74, "duration": 5, "velocity": 91}, {"time": 3348, "pitch": 57, "duration": 2, "velocity": 79}, {"time": 3354, "pitch": 47, "duration": 43, "velocity": 84}, {"time": 3354, "pitch": 66, "duration": 6, "velocity": 81}, {"time": 3354, "pitch": 69, "duration": 5, "velocity": 79}, {"time": 3354, "pitch": 74, "duration": 5, "velocity": 84}, {"time": 3360, "pitch": 54, "duration": 8, "velocity": 75}, {"time": 3366, "pitch": 59, "duration": 8, "velocity": 68}, {"time": 3366, "pitch": 62, "duration": 9, "velocity": 80}, {"time": 3366, "pitch": 66, "duration": 6, "velocity": 80}, {"time": 3366, "pitch": 71, "duration": 9, "velocity": 82}, {"time": 3372, "pitch": 54, "duration": 20, "velocity": 59}, {"time": 3378, "pitch": 62, "duration": 6, "velocity": 82}, {"time": 3378, "pitch": 66, "duration": 7, "velocity": 80}, {"time": 3378, "pitch": 71, "duration": 6, "velocity": 79}, {"time": 3384, "pitch": 59, "duration": 4, "velocity": 55}, {"time": 3387, "pitch": 62, "duration": 4, "velocity": 80}, {"time": 3387, "pitch": 69, "duration": 7, "velocity": 82}, {"time": 3390, "pitch": 59, "duration": 3, "velocity": 71}, {"time": 3393, "pitch": 62, "duration": 4, "velocity": 90}, {"time": 3393, "pitch": 66, "duration": 1, "velocity": 56}, {"time": 3393, "pitch": 71, "duration": 3, "velocity": 86}, {"time": 3396, "pitch": 54, "duration": 2, "velocity": 83}, {"time": 3402, "pitch": 43, "duration": 30, "velocity": 78}, {"time": 3402, "pitch": 55, "duration": 15, "velocity": 73}, {"time": 3402, "pitch": 59, "duration": 9, "velocity": 78}, {"time": 3402, "pitch": 62, "duration": 8, "velocity": 84}, {"time": 3402, "pitch": 67, "duration": 7, "velocity": 90}, {"time": 3414, "pitch": 59, "duration": 9, "velocity": 80}, {"time": 3414, "pitch": 62, "duration": 7, "velocity": 84}, {"time": 3414, "pitch": 67, "duration": 7, "velocity": 86}, {"time": 3420, "pitch": 55, "duration": 8, "velocity": 54}, {"time": 3426, "pitch": 59, "duration": 6, "velocity": 76}, {"time": 3426, "pitch": 62, "duration": 7, "velocity": 84}, {"time": 3426, "pitch": 67, "duration": 6, "velocity": 84}, {"time": 3432, "pitch": 45, "duration": 12, "velocity": 82}, {"time": 3432, "pitch": 55, "duration": 3, "velocity": 67}, {"time": 3432, "pitch": 61, "duration": 6, "velocity": 84}, {"time": 3432, "pitch": 64, "duration": 6, "velocity": 84}, {"time": 3432, "pitch": 69, "duration": 6, "velocity": 84}, {"time": 3441, "pitch": 57, "duration": 5, "velocity": 59}, {"time": 3441, "pitch": 61, "duration": 4, "velocity": 82}, {"time": 3444, "pitch": 64, "duration": 3, "velocity": 83}, {"time": 3450, "pitch": 52, "duration": 15, "velocity": 81}, {"time": 3450, "pitch": 59, "duration": 8, "velocity": 81}, {"time": 3450, "pitch": 62, "duration": 9, "velocity": 76}, {"time": 3450, "pitch": 67, "duration": 6, "velocity": 83}, {"time": 3462, "pitch": 59, "duration": 7, "velocity": 78}, {"time": 3462, "pitch": 62, "duration": 8, "velocity": 79}, {"time": 3462, "pitch": 67, "duration": 8, "velocity": 84}, {"time": 3468, "pitch": 52, "duration": 2, "velocity": 81}, {"time": 3474, "pitch": 43, "duration": 4, "velocity": 72}, {"time": 3474, "pitch": 45, "duration": 18, "velocity": 74}, {"time": 3474, "pitch": 57, "duration": 3, "velocity": 71}, {"time": 3474, "pitch": 61, "duration": 5, "velocity": 84}, {"time": 3474, "pitch": 64, "duration": 7, "velocity": 84}, {"time": 3474, "pitch": 69, "duration": 5, "velocity": 83}, {"time": 3480, "pitch": 57, "duration": 4, "velocity": 68}, {"time": 3483, "pitch": 59, "duration": 2, "velocity": 84}, {"time": 3483, "pitch": 62, "duration": 2, "velocity": 82}, {"time": 3483, "pitch": 67, "duration": 3, "velocity": 86}, {"time": 3486, "pitch": 57, "duration": 3, "velocity": 75}, {"time": 3489, "pitch": 61, "duration": 2, "velocity": 80}, {"time": 3489, "pitch": 69, "duration": 2, "velocity": 91}, {"time": 3492, "pitch": 57, "duration": 5, "velocity": 84}, {"time": 3495, "pitch": 69, "duration": 2, "velocity": 75}, {"time": 3498, "pitch": 50, "duration": 19, "velocity": 91}, {"time": 3498, "pitch": 66, "duration": 5, "velocity": 93}, {"time": 3498, "pitch": 69, "duration": 6, "velocity": 84}, {"time": 3498, "pitch": 74, "duration": 7, "velocity": 84}, {"time": 3504, "pitch": 57, "duration": 7, "velocity": 72}, {"time": 3504, "pitch": 66, "duration": 4, "velocity": 68}, {"time": 3504, "pitch": 73, "duration": 6, "velocity": 86}, {"time": 3510, "pitch": 62, "duration": 7, "velocity": 62}, {"time": 3510, "pitch": 66, "duration": 7, "velocity": 79}, {"time": 3510, "pitch": 74, "duration": 6, "velocity": 83}, {"time": 3516, "pitch": 57, "duration": 5, "velocity": 79}, {"time": 3519, "pitch": 69, "duration": 2, "velocity": 54}, {"time": 3522, "pitch": 50, "duration": 18, "velocity": 80}, {"time": 3522, "pitch": 66, "duration": 5, "velocity": 79}, {"time": 3522, "pitch": 74, "duration": 7, "velocity": 84}, {"time": 3528, "pitch": 57, "duration": 7, "velocity": 73}, {"time": 3531, "pitch": 64, "duration": 3, "velocity": 82}, {"time": 3531, "pitch": 73, "duration": 5, "velocity": 84}, {"time": 3534, "pitch": 62, "duration": 4, "velocity": 71}, {"time": 3537, "pitch": 66, "duration": 5, "velocity": 84}, {"time": 3537, "pitch": 74, "duration": 5, "velocity": 93}, {"time": 3540, "pitch": 57, "duration": 2, "velocity": 78}, {"time": 3546, "pitch": 47, "duration": 21, "velocity": 82}, {"time": 3546, "pitch": 66, "duration": 5, "velocity": 79}, {"time": 3546, "pitch": 69, "duration": 5, "velocity": 83}, {"time": 3546, "pitch": 74, "duration": 4, "velocity": 86}, {"time": 3552, "pitch": 54, "duration": 17, "velocity": 78}, {"time": 3555, "pitch": 59, "duration": 12, "velocity": 76}, {"time": 3558, "pitch": 62, "duration": 3, "velocity": 62}, {"time": 3561, "pitch": 64, "duration": 2, "velocity": 79}, {"time": 3564, "pitch": 66, "duration": 4, "velocity": 59}, {"time": 3567, "pitch": 69, "duration": 3, "velocity": 80}, {"time": 3570, "pitch": 47, "duration": 19, "velocity": 79}, {"time": 3570, "pitch": 66, "duration": 5, "velocity": 82}, {"time": 3570, "pitch": 74, "duration": 7, "velocity": 82}, {"time": 3576, "pitch": 54, "duration": 9, "velocity": 75}, {"time": 3576, "pitch": 64, "duration": 2, "velocity": 68}, {"time": 3576, "pitch": 73, "duration": 3, "velocity": 81}, {"time": 3579, "pitch": 66, "duration": 3, "velocity": 82}, {"time": 3579, "pitch": 74, "duration": 4, "velocity": 86}, {"time": 3582, "pitch": 59, "duration": 3, "velocity": 67}, {"time": 3585, "pitch": 62, "duration": 1, "velocity": 53}, {"time": 3585, "pitch": 69, "duration": 3, "velocity": 86}, {"time": 3588, "pitch": 54, "duration": 2, "velocity": 82}, {"time": 3591, "pitch": 62, "duration": 2, "velocity": 80}, {"time": 3594, "pitch": 43, "duration": 20, "velocity": 79}, {"time": 3594, "pitch": 55, "duration": 15, "velocity": 83}, {"time": 3594, "pitch": 59, "duration": 10, "velocity": 78}, {"time": 3594, "pitch": 62, "duration": 10, "velocity": 72}, {"time": 3594, "pitch": 67, "duration": 7, "velocity": 86}, {"time": 3606, "pitch": 59, "duration": 9, "velocity": 84}, {"time": 3606, "pitch": 62, "duration": 9, "velocity": 84}, {"time": 3606, "pitch": 67, "duration": 6, "velocity": 90}, {"time": 3612, "pitch": 55, "duration": 3, "velocity": 69}, {"time": 3618, "pitch": 45, "duration": 17, "velocity": 82}, {"time": 3618, "pitch": 61, "duration": 9, "velocity": 84}, {"time": 3618, "pitch": 64, "duration": 6, "velocity": 59}, {"time": 3618, "pitch": 69, "duration": 8, "velocity": 93}, {"time": 3624, "pitch": 57, "duration": 8, "velocity": 54}, {"time": 3630, "pitch": 61, "duration": 4, "velocity": 86}, {"time": 3630, "pitch": 64, "duration": 4, "velocity": 86}, {"time": 3630, "pitch": 69, "duration": 5, "velocity": 83}, {"time": 3636, "pitch": 57, "duration": 5, "velocity": 78}, {"time": 3642, "pitch": 38, "duration": 2, "velocity": 86}, {"time": 3642, "pitch": 50, "duration": 4, "velocity": 79}, {"time": 3642, "pitch": 66, "duration": 6, "velocity": 79}, {"time": 3642, "pitch": 69, "duration": 6, "velocity": 82}, {"time": 3642, "pitch": 74, "duration": 7, "velocity": 84}, {"time": 3648, "pitch": 50, "duration": 36, "velocity": 78}, {"time": 3651, "pitch": 66, "duration": 4, "velocity": 86}, {"time": 3651, "pitch": 73, "duration": 5, "velocity": 96}, {"time": 3654, "pitch": 57, "duration": 24, "velocity": 75}, {"time": 3657, "pitch": 69, "duration": 1, "velocity": 80}, {"time": 3657, "pitch": 74, "duration": 4, "velocity": 95}, {"time": 3663, "pitch": 62, "duration": 2, "velocity": 82}, {"time": 3663, "pitch": 69, "duration": 6, "velocity": 90}, {"time": 3669, "pitch": 62, "duration": 5, "velocity": 83}, {"time": 3669, "pitch": 69, "duration": 2, "velocity": 68}, {"time": 3669, "pitch": 71, "duration": 4, "velocity": 78}, {"time": 3672, "pitch": 73, "duration": 2, "velocity": 95}, {"time": 3675, "pitch": 74, "duration": 3, "velocity": 98}, {"time": 3678, "pitch": 62, "duration": 5, "velocity": 84}, {"time": 3678, "pitch": 74, "duration": 1, "velocity": 30}, {"time": 3678, "pitch": 76, "duration": 4, "velocity": 84}, {"time": 3681, "pitch": 78, "duration": 3, "velocity": 90}, {"time": 3684, "pitch": 57, "duration": 2, "velocity": 83}, {"time": 3684, "pitch": 79, "duration": 3, "velocity": 90}, {"time": 3687, "pitch": 81, "duration": 2, "velocity": 86}, {"time": 3690, "pitch": 50, "duration": 23, "velocity": 77}, {"time": 3690, "pitch": 57, "duration": 26, "velocity": 75}, {"time": 3690, "pitch": 62, "duration": 14, "velocity": 81}, {"time": 3690, "pitch": 66, "duration": 10, "velocity": 80}, {"time": 3690, "pitch": 69, "duration": 10, "velocity": 72}, {"time": 3690, "pitch": 74, "duration": 8, "velocity": 78}, {"time": 3702, "pitch": 66, "duration": 7, "velocity": 79}, {"time": 3702, "pitch": 69, "duration": 8, "velocity": 79}, {"time": 3702, "pitch": 74, "duration": 7, "velocity": 83}, {"time": 3708, "pitch": 62, "duration": 4, "velocity": 54}, {"time": 3711, "pitch": 66, "duration": 2, "velocity": 57}, {"time": 3714, "pitch": 50, "duration": 19, "velocity": 82}, {"time": 3714, "pitch": 66, "duration": 7, "velocity": 77}, {"time": 3714, "pitch": 69, "duration": 7, "velocity": 75}, {"time": 3714, "pitch": 74, "duration": 7, "velocity": 84}, {"time": 3720, "pitch": 57, "duration": 10, "velocity": 54}, {"time": 3723, "pitch": 66, "duration": 5, "velocity": 78}, {"time": 3723, "pitch": 69, "duration": 4, "velocity": 71}, {"time": 3723, "pitch": 73, "duration": 5, "velocity": 83}, {"time": 3726, "pitch": 62, "duration": 4, "velocity": 71}, {"time": 3729, "pitch": 66, "duration": 4, "velocity": 83}, {"time": 3729, "pitch": 69, "duration": 4, "velocity": 82}, {"time": 3729, "pitch": 73, "duration": 1, "velocity": 23}, {"time": 3729, "pitch": 74, "duration": 5, "velocity": 91}, {"time": 3732, "pitch": 57, "duration": 2, "velocity": 79}, {"time": 3738, "pitch": 47, "duration": 43, "velocity": 84}, {"time": 3738, "pitch": 66, "duration": 6, "velocity": 81}, {"time": 3738, "pitch": 69, "duration": 5, "velocity": 79}, {"time": 3738, "pitch": 74, "duration": 5, "velocity": 84}, {"time": 3744, "pitch": 54, "duration": 8, "velocity": 75}, {"time": 3750, "pitch": 59, "duration": 8, "velocity": 68}, {"time": 3750, "pitch": 62, "duration": 9, "velocity": 80}, {"time": 3750, "pitch": 66, "duration": 6, "velocity": 80}, {"time": 3750, "pitch": 71, "duration": 9, "velocity": 82}, {"time": 3756, "pitch": 54, "duration": 20, "velocity": 59}, {"time": 3762, "pitch": 62, "duration": 6, "velocity": 82}, {"time": 3762, "pitch": 66, "duration": 7, "velocity": 80}, {"time": 3762, "pitch": 71, "duration": 6, "velocity": 79}, {"time": 3768, "pitch": 59, "duration": 4, "velocity": 55}, {"time": 3771, "pitch": 62, "duration": 4, "velocity": 80}, {"time": 3771, "pitch": 69, "duration": 7, "velocity": 82}, {"time": 3774, "pitch": 59, "duration": 3, "velocity": 71}, {"time": 3777, "pitch": 62, "duration": 4, "velocity": 90}, {"time": 3777, "pitch": 66, "duration": 1, "velocity": 56}, {"time": 3777, "pitch": 71, "duration": 3, "velocity": 86}, {"time": 3780, "pitch": 54, "duration": 2, "velocity": 83}, {"time": 3786, "pitch": 43, "duration": 30, "velocity": 78}, {"time": 3786, "pitch": 55, "duration": 15, "velocity": 73}, {"time": 3786, "pitch": 59, "duration": 9, "velocity": 78}, {"time": 3786, "pitch": 62, "duration": 8, "velocity": 84}, {"time": 3786, "pitch": 67, "duration": 7, "velocity": 90}, {"time": 3798, "pitch": 59, "duration": 9, "velocity": 80}, {"time": 3798, "pitch": 62, "duration": 7, "velocity": 84}, {"time": 3798, "pitch": 67, "duration": 7, "velocity": 86}, {"time": 3804, "pitch": 55, "duration": 8, "velocity": 54}, {"time": 3810, "pitch": 59, "duration": 6, "velocity": 76}, {"time": 3810, "pitch": 62, "duration": 7, "velocity": 84}, {"time": 3810, "pitch": 67, "duration": 6, "velocity": 84}, {"time": 3816, "pitch": 45, "duration": 12, "velocity": 82}, {"time": 3816, "pitch": 55, "duration": 3, "velocity": 67}, {"time": 3816, "pitch": 61, "duration": 6, "velocity": 84}, {"time": 3816, "pitch": 64, "duration": 6, "velocity": 84}, {"time": 3816, "pitch": 69, "duration": 6, "velocity": 84}, {"time": 3825, "pitch": 57, "duration": 5, "velocity": 59}, {"time": 3825, "pitch": 61, "duration": 4, "velocity": 82}, {"time": 3828, "pitch": 64, "duration": 3, "velocity": 83}, {"time": 3834, "pitch": 52, "duration": 15, "velocity": 81}, {"time": 3834, "pitch": 59, "duration": 8, "velocity": 81}, {"time": 3834, "pitch": 62, "duration": 9, "velocity": 76}, {"time": 3834, "pitch": 67, "duration": 6, "velocity": 83}, {"time": 3846, "pitch": 59, "duration": 7, "velocity": 78}, {"time": 3846, "pitch": 62, "duration": 8, "velocity": 79}, {"time": 3846, "pitch": 67, "duration": 8, "velocity": 84}, {"time": 3852, "pitch": 52, "duration": 2, "velocity": 81}, {"time": 3858, "pitch": 43, "duration": 4, "velocity": 72}, {"time": 3858, "pitch": 45, "duration": 18, "velocity": 74}, {"time": 3858, "pitch": 57, "duration": 3, "velocity": 71}, {"time": 3858, "pitch": 61, "duration": 5, "velocity": 84}, {"time": 3858, "pitch": 64, "duration": 7, "velocity": 84}, {"time": 3858, "pitch": 69, "duration": 5, "velocity": 83}, {"time": 3864, "pitch": 57, "duration": 4, "velocity": 68}, {"time": 3867, "pitch": 59, "duration": 2, "velocity": 84}, {"time": 3867, "pitch": 62, "duration": 2, "velocity": 82}, {"time": 3867, "pitch": 67, "duration": 3, "velocity": 86}, {"time": 3870, "pitch": 57, "duration": 3, "velocity": 75}, {"time": 3873, "pitch": 61, "duration": 2, "velocity": 80}, {"time": 3873, "pitch": 69, "duration": 2, "velocity": 91}, {"time": 3876, "pitch": 57, "duration": 5, "velocity": 84}, {"time": 3879, "pitch": 69, "duration": 2, "velocity": 75}, {"time": 3882, "pitch": 50, "duration": 19, "velocity": 91}, {"time": 3882, "pitch": 66, "duration": 5, "velocity": 93}, {"time": 3882, "pitch": 69, "duration": 6, "velocity": 84}, {"time": 3882, "pitch": 74, "duration": 7, "velocity": 84}, {"time": 3888, "pitch": 57, "duration": 7, "velocity": 72}, {"time": 3888, "pitch": 66, "duration": 4, "velocity": 68}, {"time": 3888, "pitch": 73, "duration": 6, "velocity": 86}, {"time": 3894, "pitch": 62, "duration": 7, "velocity": 62}, {"time": 3894, "pitch": 66, "duration": 7, "velocity": 79}, {"time": 3894, "pitch": 74, "duration": 6, "velocity": 83}, {"time": 3900, "pitch": 57, "duration": 5, "velocity": 79}, {"time": 3903, "pitch": 69, "duration": 2, "velocity": 54}, {"time": 3906, "pitch": 50, "duration": 18, "velocity": 80}, {"time": 3906, "pitch": 66, "duration": 5, "velocity": 79}, {"time": 3906, "pitch": 74, "duration": 7, "velocity": 84}, {"time": 3912, "pitch": 57, "duration": 7, "velocity": 73}, {"time": 3915, "pitch": 64, "duration": 3, "velocity": 82}, {"time": 3915, "pitch": 73, "duration": 5, "velocity": 84}, {"time": 3918, "pitch": 62, "duration": 4, "velocity": 71}, {"time": 3921, "pitch": 66, "duration": 5, "velocity": 84}, {"time": 3921, "pitch": 74, "duration": 5, "velocity": 93}, {"time": 3924, "pitch": 57, "duration": 2, "velocity": 78}, {"time": 3930, "pitch": 47, "duration": 21, "velocity": 82}, {"time": 3930, "pitch": 66, "duration": 5, "velocity": 79}, {"time": 3930, "pitch": 69, "duration": 5, "velocity": 83}, {"time": 3930, "pitch": 74, "duration": 4, "velocity": 86}, {"time": 3936, "pitch": 54, "duration": 17, "velocity": 78}, {"time": 3939, "pitch": 59, "duration": 12, "velocity": 76}, {"time": 3942, "pitch": 62, "duration": 3, "velocity": 62}, {"time": 3945, "pitch": 64, "duration": 2, "velocity": 79}, {"time": 3948, "pitch": 66, "duration": 4, "velocity": 59}, {"time": 3951, "pitch": 69, "duration": 3, "velocity": 80}, {"time": 3954, "pitch": 47, "duration": 19, "velocity": 79}, {"time": 3954, "pitch": 66, "duration": 5, "velocity": 82}, {"time": 3954, "pitch": 74, "duration": 7, "velocity": 82}, {"time": 3960, "pitch": 54, "duration": 9, "velocity": 75}, {"time": 3960, "pitch": 64, "duration": 2, "velocity": 68}, {"time": 3960, "pitch": 73, "duration": 3, "velocity": 81}, {"time": 3963, "pitch": 66, "duration": 3, "velocity": 82}, {"time": 3963, "pitch": 74, "duration": 4, "velocity": 86}, {"time": 3966, "pitch": 59, "duration": 3, "velocity": 67}, {"time": 3969, "pitch": 62, "duration": 1, "velocity": 53}, {"time": 3969, "pitch": 69, "duration": 3, "velocity": 86}, {"time": 3972, "pitch": 54, "duration": 2, "velocity": 82}, {"time": 3975, "pitch": 62, "duration": 2, "velocity": 80}, {"time": 3978, "pitch": 43, "duration": 20, "velocity": 79}, {"time": 3978, "pitch": 55, "duration": 15, "velocity": 83}, {"time": 3978, "pitch": 59, "duration": 10, "velocity": 78}, {"time": 3978, "pitch": 62, "duration": 10, "velocity": 72}, {"time": 3978, "pitch": 67, "duration": 7, "velocity": 86}, {"time": 3990, "pitch": 59, "duration": 9, "velocity": 84}, {"time": 3990, "pitch": 62, "duration": 9, "velocity": 84}, {"time": 3990, "pitch": 67, "duration": 6, "velocity": 90}, {"time": 3996, "pitch": 55, "duration": 3, "velocity": 69}, {"time": 4002, "pitch": 45, "duration": 17, "velocity": 82}, {"time": 4002, "pitch": 61, "duration": 9, "velocity": 84}, {"time": 4002, "pitch": 64, "duration": 6, "velocity": 59}, {"time": 4002, "pitch": 69, "duration": 8, "velocity": 93}, {"time": 4008, "pitch": 57, "duration": 8, "velocity": 54}, {"time": 4014, "pitch": 61, "duration": 4, "velocity": 86}, {"time": 4014, "pitch": 64, "duration": 4, "velocity": 86}, {"time": 4014, "pitch": 69, "duration": 5, "velocity": 83}, {"time": 4020, "pitch": 57, "duration": 5, "velocity": 78}, {"time": 4026, "pitch": 38, "duration": 2, "velocity": 86}, {"time": 4026, "pitch": 50, "duration": 4, "velocity": 79}, {"time": 4026, "pitch": 66, "duration": 6, "velocity": 79}, {"time": 4026, "pitch": 69, "duration": 6, "velocity": 82}, {"time": 4026, "pitch": 74, "duration": 7, "velocity": 84}, {"time": 4032, "pitch": 50, "duration": 36, "velocity": 78}, {"time": 4035, "pitch": 66, "duration": 4, "velocity": 86}, {"time": 4035, "pitch": 73, "duration": 5, "velocity": 96}, {"time": 4038, "pitch": 57, "duration": 24, "velocity": 75}, {"time": 4041, "pitch": 69, "duration": 1, "velocity": 80}, {"time": 4041, "pitch": 74, "duration": 4, "velocity": 95}, {"time": 4047, "pitch": 62, "duration": 2, "velocity": 82}, {"time": 4047, "pitch": 69, "duration": 6, "velocity": 90}, {"time": 4053, "pitch": 62, "duration": 5, "velocity": 83}, {"time": 4053, "pitch": 69, "duration": 2, "velocity": 68}, {"time": 4053, "pitch": 71, "duration": 4, "velocity": 78}, {"time": 4056, "pitch": 73, "duration": 2, "velocity": 95}, {"time": 4059, "pitch": 74, "duration": 3, "velocity": 98}, {"time": 4062, "pitch": 62, "duration": 5, "velocity": 84}, {"time": 4062, "pitch": 74, "duration": 1, "velocity": 30}, {"time": 4062, "pitch": 76, "duration": 4, "velocity": 84}, {"time": 4065, "pitch": 78, "duration": 3, "velocity": 90}, {"time": 4068, "pitch": 57, "duration": 2, "velocity": 83}, {"time": 4068, "pitch": 79, "duration": 3, "velocity": 90}, {"time": 4071, "pitch": 81, "duration": 2, "velocity": 86}, {"time": 4074, "pitch": 50, "duration": 23, "velocity": 77}, {"time": 4074, "pitch": 57, "duration": 26, "velocity": 75}, {"time": 4074, "pitch": 62, "duration": 14, "velocity": 81}, {"time": 4074, "pitch": 66, "duration": 10, "velocity": 80}, {"time": 4074, "pitch": 69, "duration": 10, "velocity": 72}, {"time": 4074, "pitch": 74, "duration": 8, "velocity": 78}, {"time": 4086, "pitch": 66, "duration": 7, "velocity": 79}, {"time": 4086, "pitch": 69, "duration": 8, "velocity": 79}, {"time": 4086, "pitch": 74, "duration": 7, "velocity": 83}, {"time": 4092, "pitch": 62, "duration": 4, "velocity": 54}, {"time": 4095, "pitch": 66, "duration": 2, "velocity": 57}, {"time": 4098, "pitch": 50, "duration": 19, "velocity": 82}, {"time": 4098, "pitch": 66, "duration": 7, "velocity": 77}, {"time": 4098, "pitch": 69, "duration": 7, "velocity": 75}, {"time": 4098, "pitch": 74, "duration": 7, "velocity": 84}, {"time": 4104, "pitch": 57, "duration": 10, "velocity": 54}, {"time": 4107, "pitch": 66, "duration": 5, "velocity": 78}, {"time": 4107, "pitch": 69, "duration": 4, "velocity": 71}, {"time": 4107, "pitch": 73, "duration": 5, "velocity": 83}, {"time": 4110, "pitch": 62, "duration": 4, "velocity": 71}, {"time": 4113, "pitch": 66, "duration": 4, "velocity": 83}, {"time": 4113, "pitch": 69, "duration": 4, "velocity": 82}, {"time": 4113, "pitch": 73, "duration": 1, "velocity": 23}, {"time": 4113, "pitch": 74, "duration": 5, "velocity": 91}, {"time": 4116, "pitch": 57, "duration": 2, "velocity": 79}, {"time": 4122, "pitch": 47, "duration": 43, "velocity": 84}, {"time": 4122, "pitch": 66, "duration": 6, "velocity": 81}, {"time": 4122, "pitch": 69, "duration": 5, "velocity": 79}, {"time": 4122, "pitch": 74, "duration": 5, "velocity": 84}, {"time": 4128, "pitch": 54, "duration": 8, "velocity": 75}, {"time": 4134, "pitch": 59, "duration": 8, "velocity": 68}, {"time": 4134, "pitch": 62, "duration": 9, "velocity": 80}, {"time": 4134, "pitch": 66, "duration": 6, "velocity": 80}, {"time": 4134, "pitch": 71, "duration": 9, "velocity": 82}, {"time": 4140, "pitch": 54, "duration": 20, "velocity": 59}, {"time": 4146, "pitch": 62, "duration": 6, "velocity": 82}, {"time": 4146, "pitch": 66, "duration": 7, "velocity": 80}, {"time": 4146, "pitch": 71, "duration": 6, "velocity": 79}, {"time": 4152, "pitch": 59, "duration": 4, "velocity": 55}, {"time": 4155, "pitch": 62, "duration": 4, "velocity": 80}, {"time": 4155, "pitch": 69, "duration": 7, "velocity": 82}, {"time": 4158, "pitch": 59, "duration": 3, "velocity": 71}, {"time": 4161, "pitch": 62, "duration": 4, "velocity": 90}, {"time": 4161, "pitch": 66, "duration": 1, "velocity": 56}, {"time": 4161, "pitch": 71, "duration": 3, "velocity": 86}, {"time": 4164, "pitch": 54, "duration": 2, "velocity": 83}, {"time": 4170, "pitch": 43, "duration": 18, "velocity": 76}, {"time": 4170, "pitch": 55, "duration": 14, "velocity": 69}, {"time": 4170, "pitch": 62, "duration": 8, "velocity": 72}, {"time": 4170, "pitch": 67, "duration": 7, "velocity": 81}, {"time": 4170, "pitch": 71, "duration": 8, "velocity": 68}, {"time": 4170, "pitch": 74, "duration": 8, "velocity": 52}, {"time": 4182, "pitch": 62, "duration": 6, "velocity": 79}, {"time": 4182, "pitch": 67, "duration": 7, "velocity": 81}, {"time": 4182, "pitch": 71, "duration": 8, "velocity": 79}, {"time": 4188, "pitch": 55, "duration": 8, "velocity": 62}, {"time": 4194, "pitch": 45, "duration": 15, "velocity": 69}, {"time": 4194, "pitch": 64, "duration": 14, "velocity": 75}, {"time": 4194, "pitch": 69, "duration": 14, "velocity": 75}, {"time": 4194, "pitch": 73, "duration": 14, "velocity": 80}, {"time": 4200, "pitch": 52, "duration": 10, "velocity": 68}, {"time": 4206, "pitch": 57, "duration": 7, "velocity": 57}, {"time": 4212, "pitch": 64, "duration": 2, "velocity": 58}, {"time": 4218, "pitch": 52, "duration": 15, "velocity": 57}, {"time": 4218, "pitch": 59, "duration": 16, "velocity": 74}, {"time": 4218, "pitch": 62, "duration": 7, "velocity": 77}, {"time": 4218, "pitch": 67, "duration": 7, "velocity": 79}, {"time": 4218, "pitch": 71, "duration": 8, "velocity": 77}, {"time": 4230, "pitch": 62, "duration": 4, "velocity": 75}, {"time": 4242, "pitch": 45, "duration": 7, "velocity": 75}, {"time": 4242, "pitch": 57, "duration": 7, "velocity": 69}, {"time": 4242, "pitch": 62, "duration": 6, "velocity": 76}, {"time": 4242, "pitch": 67, "duration": 6, "velocity": 72}, {"time": 4242, "pitch": 71, "duration": 7, "velocity": 74}, {"time": 4251, "pitch": 45, "duration": 5, "velocity": 75}, {"time": 4251, "pitch": 57, "duration": 3, "velocity": 58}, {"time": 4251, "pitch": 62, "duration": 5, "velocity": 72}, {"time": 4251, "pitch": 69, "duration": 9, "velocity": 78}, {"time": 4266, "pitch": 64, "duration": 12, "velocity": 44}, {"time": 4268, "pitch": 66, "duration": 11, "velocity": 76}, {"time": 4269, "pitch": 38, "duration": 2, "velocity": 93}, {"time": 4269, "pitch": 69, "duration": 10, "velocity": 63}, {"time": 4270, "pitch": 74, "duration": 10, "velocity": 78}, {"time": 4278, "pitch": 50, "duration": 35, "velocity": 51}, {"time": 4281, "pitch": 57, "duration": 32, "velocity": 71}, {"time": 4283, "pitch": 62, "duration": 30, "velocity": 62}, {"time": 4285, "pitch": 64, "duration": 2, "velocity": 59}, {"time": 4287, "pitch": 66, "duration": 2, "velocity": 61}, {"time": 4288, "pitch": 69, "duration": 3, "velocity": 72}, {"time": 4290, "pitch": 74, "duration": 1, "velocity": 72}, {"time": 4293, "pitch": 76, "duration": 2, "velocity": 70}, {"time": 4295, "pitch": 78, "duration": 3, "velocity": 68}, {"time": 4298, "pitch": 79, "duration": 1, "velocity": 73}, {"time": 4300, "pitch": 81, "duration": 3, "velocity": 48}, {"time": 4302, "pitch": 86, "duration": 3, "velocity": 68}, {"time": 4305, "pitch": 88, "duration": 2, "velocity": 72}, {"time": 4310, "pitch": 93, "duration": 4, "velocity": 68}, {"time": 4314, "pitch": 98, "duration": 1, "velocity": 78}], "annotations": [{"time": 89, "annotation": {"number": 64, "value": 127}, "group": "control_change"}, {"time": 90, "annotation": {"number": 64, "value": 0}, "group": "control_change"}, {"time": 90, "annotation": {"number": 64, "value": 127}, "group": "control_change"}, {"time": 175, "annotation": {"number": 64, "value": 0}, "group": "control_change"}, {"time": 177, "annotation": {"number": 64, "value": 127}, "group": "control_change"}, {"time": 236, "annotation": {"number": 64, "value": 0}, "group": "control_change"}, {"time": 239, "annotation": {"number": 64, "value": 127}, "group": "control_change"}, {"time": 330, "annotation": {"number": 64, "value": 0}, "group": "control_change"}, {"time": 335, "annotation": {"number": 64, "value": 127}, "group": "control_change"}, {"time": 425, "annotation": {"number": 64, "value": 0}, "group": "control_change"}, {"time": 428, "annotation": {"number": 64, "value": 127}, "group": "control_change"}, {"time": 474, "annotation": {"number": 64, "value": 0}, "group": "control_change"}, {"time": 478, "annotation": {"number": 64, "value": 127}, "group": "control_change"}, {"time": 520, "annotation": {"number": 64, "value": 0}, "group": "control_change"}, {"time": 522, "annotation": {"number": 64, "value": 127}, "group": "control_change"}, {"time": 548, "annotation": {"number": 64, "value": 0}, "group": "control_change"}, {"time": 553, "annotation": {"number": 64, "value": 127}, "group": "control_change"}, {"time": 570, "annotation": {"number": 64, "value": 0}, "group": "control_change"}, {"time": 576, "annotation": {"number": 64, "value": 127}, "group": "control_change"}, {"time": 616, "annotation": {"number": 64, "value": 0}, "group": "control_change"}, {"time": 616, "annotation": {"number": 64, "value": 127}, "group": "control_change"}, {"time": 625, "annotation": {"number": 64, "value": 127}, "group": "control_change"}, {"time": 643, "annotation": {"number": 64, "value": 0}, "group": "control_change"}, {"time": 643, "annotation": {"number": 64, "value": 127}, "group": "control_change"}, {"time": 644, "annotation": {"number": 64, "value": 0}, "group": "control_change"}, {"time": 649, "annotation": {"number": 64, "value": 127}, "group": "control_change"}, {"time": 665, "annotation": {"number": 64, "value": 0}, "group": "control_change"}, {"time": 667, "annotation": {"number": 64, "value": 127}, "group": "control_change"}, {"time": 714, "annotation": {"number": 64, "value": 0}, "group": "control_change"}, {"time": 715, "annotation": {"number": 64, "value": 127}, "group": "control_change"}, {"time": 740, "annotation": {"number": 64, "value": 0}, "group": "control_change"}, {"time": 744, "annotation": {"number": 64, "value": 127}, "group": "control_change"}, {"time": 762, "annotation": {"number": 64, "value": 0}, "group": "control_change"}, {"time": 764, "annotation": {"number": 64, "value": 127}, "group": "control_change"}, {"time": 776, "annotation": {"number": 64, "value": 0}, "group": "control_change"}, {"time": 779, "annotation": {"number": 64, "value": 127}, "group": "control_change"}, {"time": 787, "annotation": {"number": 64, "value": 0}, "group": "control_change"}, {"time": 790, "annotation": {"number": 64, "value": 127}, "group": "control_change"}, {"time": 810, "annotation": {"number": 64, "value": 0}, "group": "control_change"}, {"time": 812, "annotation": {"number": 64, "value": 127}, "group": "control_change"}, {"time": 835, "annotation": {"number": 64, "value": 0}, "group": "control_change"}, {"time": 837, "annotation": {"number": 64, "value": 127}, "group": "control_change"}, {"time": 858, "annotation": {"number": 64, "value": 0}, "group": "control_change"}, {"time": 861, "annotation": {"number": 64, "value": 127}, "group": "control_change"}, {"time": 907, "annotation": {"number": 64, "value": 0}, "group": "control_change"}, {"time": 914, "annotation": {"number": 64, "value": 127}, "group": "control_change"}, {"time": 930, "annotation": {"number": 64, "value": 0}, "group": "control_change"}, {"time": 933, "annotation": {"number": 64, "value": 127}, "group": "control_change"}, {"time": 954, "annotation": {"number": 64, "value": 0}, "group": "control_change"}, {"time": 956, "annotation": {"number": 64, "value": 127}, "group": "control_change"}, {"time": 1003, "annotation": {"number": 64, "value": 0}, "group": "control_change"}, {"time": 1006, "annotation": {"number": 64, "value": 127}, "group": "control_change"}, {"time": 1027, "annotation": {"number": 64, "value": 0}, "group": "control_change"}, {"time": 1030, "annotation": {"number": 64, "value": 127}, "group": "control_change"}, {"time": 1051, "annotation": {"number": 64, "value": 0}, "group": "control_change"}, {"time": 1054, "annotation": {"number": 64, "value": 127}, "group": "control_change"}, {"time": 1100, "annotation": {"number": 64, "value": 0}, "group": "control_change"}, {"time": 1103, "annotation": {"number": 64, "value": 127}, "group": "control_change"}, {"time": 1124, "annotation": {"number": 64, "value": 0}, "group": "control_change"}, {"time": 1127, "annotation": {"number": 64, "value": 127}, "group": "control_change"}, {"time": 1146, "annotation": {"number": 64, "value": 0}, "group": "control_change"}, {"time": 1149, "annotation": {"number": 64, "value": 127}, "group": "control_change"}, {"time": 1158, "annotation": {"number": 64, "value": 0}, "group": "control_change"}, {"time": 1161, "annotation": {"number": 64, "value": 127}, "group": "control_change"}, {"time": 1170, "annotation": {"number": 64, "value": 0}, "group": "control_change"}, {"time": 1174, "annotation": {"number": 64, "value": 127}, "group": "control_change"}, {"time": 1194, "annotation": {"number": 64, "value": 0}, "group": "control_change"}, {"time": 1195, "annotation": {"number": 64, "value": 127}, "group": "control_change"}, {"time": 1242, "annotation": {"number": 64, "value": 0}, "group": "control_change"}, {"time": 1244, "annotation": {"number": 64, "value": 127}, "group": "control_change"}, {"time": 1289, "annotation": {"number": 64, "value": 0}, "group": "control_change"}, {"time": 1292, "annotation": {"number": 64, "value": 127}, "group": "control_change"}, {"time": 1338, "annotation": {"number": 64, "value": 0}, "group": "control_change"}, {"time": 1340, "annotation": {"number": 64, "value": 127}, "group": "control_change"}, {"time": 1387, "annotation": {"number": 64, "value": 0}, "group": "control_change"}, {"time": 1389, "annotation": {"number": 64, "value": 127}, "group": "control_change"}, {"time": 1420, "annotation": {"number": 64, "value": 0}, "group": "control_change"}, {"time": 1423, "annotation": {"number": 64, "value": 127}, "group": "control_change"}, {"time": 1434, "annotation": {"number": 64, "value": 0}, "group": "control_change"}, {"time": 1436, "annotation": {"number": 64, "value": 127}, "group": "control_change"}, {"time": 1456, "annotation": {"number": 64, "value": 0}, "group": "control_change"}, {"time": 1459, "annotation": {"number": 64, "value": 127}, "group": "control_change"}, {"time": 1481, "annotation": {"number": 64, "value": 0}, "group": "control_change"}, {"time": 1483, "annotation": {"number": 64, "value": 127}, "group": "control_change"}, {"time": 1528, "annotation": {"number": 64, "value": 0}, "group": "control_change"}, {"time": 1531, "annotation": {"number": 64, "value": 127}, "group": "control_change"}, {"time": 1577, "annotation": {"number": 64, "value": 0}, "group": "control_change"}, {"time": 1580, "annotation": {"number": 64, "value": 127}, "group": "control_change"}, {"time": 1606, "annotation": {"number": 64, "value": 0}, "group": "control_change"}, {"time": 1608, "annotation": {"number": 64, "value": 127}, "group": "control_change"}, {"time": 1625, "annotation": {"number": 64, "value": 0}, "group": "control_change"}, {"time": 1627, "annotation": {"number": 64, "value": 127}, "group": "control_change"}, {"time": 1722, "annotation": {"number": 64, "value": 0}, "group": "control_change"}, {"time": 1725, "annotation": {"number": 64, "value": 127}, "group": "control_change"}, {"time": 1794, "annotation": {"number": 64, "value": 0}, "group": "control_change"}, {"time": 1796, "annotation": {"number": 64, "value": 127}, "group": "control_change"}, {"time": 1817, "annotation": {"number": 64, "value": 0}, "group": "control_change"}, {"time": 1818, "annotation": {"number": 64, "value": 127}, "group": "control_change"}, {"time": 1844, "annotation": {"number": 64, "value": 0}, "group": "control_change"}, {"time": 1849, "annotation": {"number": 64, "value": 127}, "group": "control_change"}, {"time": 1866, "annotation": {"number": 64, "value": 0}, "group": "control_change"}, {"time": 1872, "annotation": {"number": 64, "value": 127}, "group": "control_change"}, {"time": 1912, "annotation": {"number": 64, "value": 0}, "group": "control_change"}, {"time": 1912, "annotation": {"number": 64, "value": 127}, "group": "control_change"}, {"time": 1921, "annotation": {"number": 64, "value": 127}, "group": "control_change"}, {"time": 1939, "annotation": {"number": 64, "value": 0}, "group": "control_change"}, {"time": 1939, "annotation": {"number": 64, "value": 127}, "group": "control_change"}, {"time": 1940, "annotation": {"number": 64, "value": 0}, "group": "control_change"}, {"time": 1945, "annotation": {"number": 64, "value": 127}, "group": "control_change"}, {"time": 1961, "annotation": {"number": 64, "value": 0}, "group": "control_change"}, {"time": 1963, "annotation": {"number": 64, "value": 127}, "group": "control_change"}, {"time": 2010, "annotation": {"number": 64, "value": 0}, "group": "control_change"}, {"time": 2011, "annotation": {"number": 64, "value": 127}, "group": "control_change"}, {"time": 2036, "annotation": {"number": 64, "value": 0}, "group": "control_change"}, {"time": 2040, "annotation": {"number": 64, "value": 127}, "group": "control_change"}, {"time": 2058, "annotation": {"number": 64, "value": 0}, "group": "control_change"}, {"time": 2060, "annotation": {"number": 64, "value": 127}, "group": "control_change"}, {"time": 2072, "annotation": {"number": 64, "value": 0}, "group": "control_change"}, {"time": 2075, "annotation": {"number": 64, "value": 127}, "group": "control_change"}, {"time": 2083, "annotation": {"number": 64, "value": 0}, "group": "control_change"}, {"time": 2086, "annotation": {"number": 64, "value": 127}, "group": "control_change"}, {"time": 2106, "annotation": {"number": 64, "value": 0}, "group": "control_change"}, {"time": 2108, "annotation": {"number": 64, "value": 127}, "group": "control_change"}, {"time": 2131, "annotation": {"number": 64, "value": 0}, "group": "control_change"}, {"time": 2133, "annotation": {"number": 64, "value": 127}, "group": "control_change"}, {"time": 2154, "annotation": {"number": 64, "value": 0}, "group": "control_change"}, {"time": 2157, "annotation": {"number": 64, "value": 127}, "group": "control_change"}, {"time": 2203, "annotation": {"number": 64, "value": 0}, "group": "control_change"}, {"time": 2210, "annotation": {"number": 64, "value": 127}, "group": "control_change"}, {"time": 2226, "annotation": {"number": 64, "value": 0}, "group": "control_change"}, {"time": 2229, "annotation": {"number": 64, "value": 127}, "group": "control_change"}, {"time": 2250, "annotation": {"number": 64, "value": 0}, "group": "control_change"}, {"time": 2252, "annotation": {"number": 64, "value": 127}, "group": "control_change"}, {"time": 2299, "annotation": {"number": 64, "value": 0}, "group": "control_change"}, {"time": 2302, "annotation": {"number": 64, "value": 127}, "group": "control_change"}, {"time": 2323, "annotation": {"number": 64, "value": 0}, "group": "control_change"}, {"time": 2326, "annotation": {"number": 64, "value": 127}, "group": "control_change"}, {"time": 2347, "annotation": {"number": 64, "value": 0}, "group": "control_change"}, {"time": 2350, "annotation": {"number": 64, "value": 127}, "group": "control_change"}, {"time": 2396, "annotation": {"number": 64, "value": 0}, "group": "control_change"}, {"time": 2399, "annotation": {"number": 64, "value": 127}, "group": "control_change"}, {"time": 2420, "annotation": {"number": 64, "value": 0}, "group": "control_change"}, {"time": 2423, "annotation": {"number": 64, "value": 127}, "group": "control_change"}, {"time": 2442, "annotation": {"number": 64, "value": 0}, "group": "control_change"}, {"time": 2445, "annotation": {"number": 64, "value": 127}, "group": "control_change"}, {"time": 2454, "annotation": {"number": 64, "value": 0}, "group": "control_change"}, {"time": 2457, "annotation": {"number": 64, "value": 127}, "group": "control_change"}, {"time": 2466, "annotation": {"number": 64, "value": 0}, "group": "control_change"}, {"time": 2470, "annotation": {"number": 64, "value": 127}, "group": "control_change"}, {"time": 2490, "annotation": {"number": 64, "value": 0}, "group": "control_change"}, {"time": 2491, "annotation": {"number": 64, "value": 127}, "group": "control_change"}, {"time": 2538, "annotation": {"number": 64, "value": 0}, "group": "control_change"}, {"time": 2540, "annotation": {"number": 64, "value": 127}, "group": "control_change"}, {"time": 2585, "annotation": {"number": 64, "value": 0}, "group": "control_change"}, {"time": 2588, "annotation": {"number": 64, "value": 127}, "group": "control_change"}, {"time": 2634, "annotation": {"number": 64, "value": 0}, "group": "control_change"}, {"time": 2636, "annotation": {"number": 64, "value": 127}, "group": "control_change"}, {"time": 2683, "annotation": {"number": 64, "value": 0}, "group": "control_change"}, {"time": 2685, "annotation": {"number": 64, "value": 127}, "group": "control_change"}, {"time": 2716, "annotation": {"number": 64, "value": 0}, "group": "control_change"}, {"time": 2719, "annotation": {"number": 64, "value": 127}, "group": "control_change"}, {"time": 2730, "annotation": {"number": 64, "value": 0}, "group": "control_change"}, {"time": 2732, "annotation": {"number": 64, "value": 127}, "group": "control_change"}, {"time": 2752, "annotation": {"number": 64, "value": 0}, "group": "control_change"}, {"time": 2755, "annotation": {"number": 64, "value": 127}, "group": "control_change"}, {"time": 2777, "annotation": {"number": 64, "value": 0}, "group": "control_change"}, {"time": 2779, "annotation": {"number": 64, "value": 127}, "group": "control_change"}, {"time": 2824, "annotation": {"number": 64, "value": 0}, "group": "control_change"}, {"time": 2827, "annotation": {"number": 64, "value": 127}, "group": "control_change"}, {"time": 2873, "annotation": {"number": 64, "value": 0}, "group": "control_change"}, {"time": 2876, "annotation": {"number": 64, "value": 127}, "group": "control_change"}, {"time": 2902, "annotation": {"number": 64, "value": 0}, "group": "control_change"}, {"time": 2904, "annotation": {"number": 64, "value": 127}, "group": "control_change"}, {"time": 2921, "annotation": {"number": 64, "value": 0}, "group": "control_change"}, {"time": 2922, "annotation": {"number": 64, "value": 127}, "group": "control_change"}, {"time": 2922, "annotation": {"number": 64, "value": 0}, "group": "control_change"}, {"time": 2923, "annotation": {"number": 64, "value": 127}, "group": "control_change"}, {"time": 2970, "annotation": {"number": 64, "value": 0}, "group": "control_change"}, {"time": 2973, "annotation": {"number": 64, "value": 127}, "group": "control_change"}, {"time": 3019, "annotation": {"number": 64, "value": 0}, "group": "control_change"}, {"time": 3021, "annotation": {"number": 64, "value": 127}, "group": "control_change"}, {"time": 3067, "annotation": {"number": 64, "value": 0}, "group": "control_change"}, {"time": 3069, "annotation": {"number": 64, "value": 127}, "group": "control_change"}, {"time": 3114, "annotation": {"number": 64, "value": 0}, "group": "control_change"}, {"time": 3116, "annotation": {"number": 64, "value": 127}, "group": "control_change"}, {"time": 3163, "annotation": {"number": 64, "value": 0}, "group": "control_change"}, {"time": 3165, "annotation": {"number": 64, "value": 127}, "group": "control_change"}, {"time": 3211, "annotation": {"number": 64, "value": 0}, "group": "control_change"}, {"time": 3214, "annotation": {"number": 64, "value": 127}, "group": "control_change"}, {"time": 3258, "annotation": {"number": 64, "value": 0}, "group": "control_change"}, {"time": 3260, "annotation": {"number": 64, "value": 127}, "group": "control_change"}, {"time": 3282, "annotation": {"number": 64, "value": 0}, "group": "control_change"}, {"time": 3284, "annotation": {"number": 64, "value": 127}, "group": "control_change"}, {"time": 3305, "annotation": {"number": 64, "value": 0}, "group": "control_change"}, {"time": 3308, "annotation": {"number": 64, "value": 127}, "group": "control_change"}, {"time": 3354, "annotation": {"number": 64, "value": 0}, "group": "control_change"}, {"time": 3356, "annotation": {"number": 64, "value": 127}, "group": "control_change"}, {"time": 3403, "annotation": {"number": 64, "value": 0}, "group": "control_change"}, {"time": 3405, "annotation": {"number": 64, "value": 127}, "group": "control_change"}, {"time": 3436, "annotation": {"number": 64, "value": 0}, "group": "control_change"}, {"time": 3439, "annotation": {"number": 64, "value": 127}, "group": "control_change"}, {"time": 3450, "annotation": {"number": 64, "value": 0}, "group": "control_change"}, {"time": 3452, "annotation": {"number": 64, "value": 127}, "group": "control_change"}, {"time": 3472, "annotation": {"number": 64, "value": 0}, "group": "control_change"}, {"time": 3475, "annotation": {"number": 64, "value": 127}, "group": "control_change"}, {"time": 3497, "annotation": {"number": 64, "value": 0}, "group": "control_change"}, {"time": 3499, "annotation": {"number": 64, "value": 127}, "group": "control_change"}, {"time": 3544, "annotation": {"number": 64, "value": 0}, "group": "control_change"}, {"time": 3547, "annotation": {"number": 64, "value": 127}, "group": "control_change"}, {"time": 3593, "annotation": {"number": 64, "value": 0}, "group": "control_change"}, {"time": 3596, "annotation": {"number": 64, "value": 127}, "group": "control_change"}, {"time": 3622, "annotation": {"number": 64, "value": 0}, "group": "control_change"}, {"time": 3624, "annotation": {"number": 64, "value": 127}, "group": "control_change"}, {"time": 3641, "annotation": {"number": 64, "value": 0}, "group": "control_change"}, {"time": 3642, "annotation": {"number": 64, "value": 127}, "group": "control_change"}, {"time": 3689, "annotation": {"number": 64, "value": 0}, "group": "control_change"}, {"time": 3692, "annotation": {"number": 64, "value": 127}, "group": "control_change"}, {"time": 3738, "annotation": {"number": 64, "value": 0}, "group": "control_change"}, {"time": 3740, "annotation": {"number": 64, "value": 127}, "group": "control_change"}, {"time": 3787, "annotation": {"number": 64, "value": 0}, "group": "control_change"}, {"time": 3789, "annotation": {"number": 64, "value": 127}, "group": "control_change"}, {"time": 3820, "annotation": {"number": 64, "value": 0}, "group": "control_change"}, {"time": 3823, "annotation": {"number": 64, "value": 127}, "group": "control_change"}, {"time": 3834, "annotation": {"number": 64, "value": 0}, "group": "control_change"}, {"time": 3836, "annotation": {"number": 64, "value": 127}, "group": "control_change"}, {"time": 3856, "annotation": {"number": 64, "value": 0}, "group": "control_change"}, {"time": 3859, "annotation": {"number": 64, "value": 127}, "group": "control_change"}, {"time": 3881, "annotation": {"number": 64, "value": 0}, "group": "control_change"}, {"time": 3883, "annotation": {"number": 64, "value": 127}, "group": "control_change"}, {"time": 3928, "annotation": {"number": 64, "value": 0}, "group": "control_change"}, {"time": 3931, "annotation": {"number": 64, "value": 127}, "group": "control_change"}, {"time": 3977, "annotation": {"number": 64, "value": 0}, "group": "control_change"}, {"time": 3980, "annotation": {"number": 64, "value": 127}, "group": "control_change"}, {"time": 4006, "annotation": {"number": 64, "value": 0}, "group": "control_change"}, {"time": 4008, "annotation": {"number": 64, "value": 127}, "group": "control_change"}, {"time": 4025, "annotation": {"number": 64, "value": 0}, "group": "control_change"}, {"time": 4026, "annotation": {"number": 64, "value": 127}, "group": "control_change"}, {"time": 4073, "annotation": {"number": 64, "value": 0}, "group": "control_change"}, {"time": 4076, "annotation": {"number": 64, "value": 127}, "group": "control_change"}, {"time": 4122, "annotation": {"number": 64, "value": 0}, "group": "control_change"}, {"time": 4124, "annotation": {"number": 64, "value": 127}, "group": "control_change"}, {"time": 4170, "annotation": {"number": 64, "value": 127}, "group": "control_change"}, {"time": 4194, "annotation": {"number": 64, "value": 0}, "group": "control_change"}, {"time": 4197, "annotation": {"number": 64, "value": 127}, "group": "control_change"}, {"time": 4218, "annotation": {"number": 64, "value": 0}, "group": "control_change"}, {"time": 4220, "annotation": {"number": 64, "value": 127}, "group": "control_change"}, {"time": 4241, "annotation": {"number": 64, "value": 0}, "group": "control_change"}, {"time": 4244, "annotation": {"number": 64, "value": 127}, "group": "control_change"}, {"time": 4266, "annotation": {"number": 64, "value": 0}, "group": "control_change"}, {"time": 4269, "annotation": {"number": 64, "value": 127}, "group": "control_change"}]}]}