{"metadata": {"schema_version": "0.2", "title": "None", "source_filename": "239.mid", "source_format": "midi"}, "resolution": 12, "tempos": [{"time": 0, "qpm": 65.99999340000066}, {"time": 21, "qpm": 61.99999586666694}, {"time": 45, "qpm": 67.00002903334591}, {"time": 69, "qpm": 60.0}, {"time": 81, "qpm": 64.0}, {"time": 105, "qpm": 61.99999586666694}, {"time": 117, "qpm": 64.99999458333379}, {"time": 153, "qpm": 58.00004253336452}, {"time": 159, "qpm": 67.00002903334591}, {"time": 165, "qpm": 64.99999458333379}, {"time": 177, "qpm": 60.99997255001235}, {"time": 189, "qpm": 68.0000725334107}, {"time": 201, "qpm": 67.00002903334591}, {"time": 213, "qpm": 64.0}, {"time": 225, "qpm": 60.99997255001235}, {"time": 237, "qpm": 61.99999586666694}, {"time": 249, "qpm": 65.99999340000066}, {"time": 285, "qpm": 61.99999586666694}, {"time": 321, "qpm": 64.99999458333379}, {"time": 345, "qpm": 54.00000540000054}, {"time": 357, "qpm": 69.00009660013524}, {"time": 393, "qpm": 62.99999685000016}, {"time": 405, "qpm": 64.99999458333379}, {"time": 417, "qpm": 71.00011951686785}, {"time": 429, "qpm": 61.99999586666694}, {"time": 441, "qpm": 60.99997255001235}, {"time": 477, "qpm": 65.99999340000066}, {"time": 513, "qpm": 61.99999586666694}, {"time": 525, "qpm": 60.99997255001235}, {"time": 537, "qpm": 65.99999340000066}, {"time": 561, "qpm": 62.99999685000016}, {"time": 585, "qpm": 60.99997255001235}, {"time": 597, "qpm": 65.99999340000066}, {"time": 609, "qpm": 69.00009660013524}, {"time": 633, "qpm": 59.00006686674245}, {"time": 645, "qpm": 61.99999586666694}, {"time": 657, "qpm": 64.99999458333379}, {"time": 669, "qpm": 62.99999685000016}, {"time": 693, "qpm": 64.99999458333379}, {"time": 705, "qpm": 64.0}, {"time": 717, "qpm": 64.99999458333379}, {"time": 777, "qpm": 60.99997255001235}, {"time": 801, "qpm": 64.0}, {"time": 825, "qpm": 67.00002903334591}, {"time": 837, "qpm": 61.99999586666694}, {"time": 849, "qpm": 67.00002903334591}, {"time": 861, "qpm": 60.0}, {"time": 867, "qpm": 69.00009660013524}, {"time": 873, "qpm": 64.0}, {"time": 933, "qpm": 60.99997255001235}, {"time": 945, "qpm": 64.0}, {"time": 993, "qpm": 67.00002903334591}, {"time": 1005, "qpm": 64.0}, {"time": 1137, "qpm": 61.99999586666694}, {"time": 1149, "qpm": 64.0}, {"time": 1173, "qpm": 64.99999458333379}, {"time": 1197, "qpm": 59.00006686674245}, {"time": 1209, "qpm": 69.00009660013524}, {"time": 1221, "qpm": 65.99999340000066}, {"time": 1245, "qpm": 58.00004253336452}, {"time": 1257, "qpm": 64.0}, {"time": 1269, "qpm": 65.99999340000066}, {"time": 1317, "qpm": 59.00006686674245}, {"time": 1329, "qpm": 65.99999340000066}, {"time": 1341, "qpm": 68.0000725334107}, {"time": 1353, "qpm": 61.99999586666694}, {"time": 1377, "qpm": 60.0}, {"time": 1389, "qpm": 64.0}, {"time": 1413, "qpm": 67.00002903334591}, {"time": 1437, "qpm": 62.99999685000016}, {"time": 1461, "qpm": 64.0}, {"time": 1497, "qpm": 60.0}, {"time": 1509, "qpm": 70.00007000007}, {"time": 1521, "qpm": 60.99997255001235}, {"time": 1545, "qpm": 62.99999685000016}, {"time": 1557, "qpm": 67.00002903334591}, {"time": 1581, "qpm": 62.99999685000016}, {"time": 1593, "qpm": 65.99999340000066}, {"time": 1605, "qpm": 64.0}, {"time": 1611, "qpm": 64.99999458333379}, {"time": 1629, "qpm": 62.99999685000016}, {"time": 1665, "qpm": 64.99999458333379}, {"time": 1701, "qpm": 64.0}, {"time": 1725, "qpm": 61.99999586666694}, {"time": 1761, "qpm": 65.99999340000066}, {"time": 1785, "qpm": 61.99999586666694}, {"time": 1809, "qpm": 64.0}, {"time": 1929, "qpm": 69.00009660013524}, {"time": 1941, "qpm": 61.99999586666694}, {"time": 1977, "qpm": 72.00011520018433}, {"time": 1989, "qpm": 54.00000540000054}, {"time": 1995, "qpm": 68.0000725334107}, {"time": 2001, "qpm": 64.99999458333379}, {"time": 2061, "qpm": 60.99997255001235}, {"time": 2073, "qpm": 64.0}, {"time": 2097, "qpm": 62.99999685000016}, {"time": 2133, "qpm": 64.99999458333379}, {"time": 2157, "qpm": 70.00007000007}, {"time": 2163, "qpm": 62.99999685000016}, {"time": 2169, "qpm": 60.99997255001235}, {"time": 2181, "qpm": 67.00002903334591}, {"time": 2193, "qpm": 62.99999685000016}, {"time": 2205, "qpm": 64.99999458333379}, {"time": 2229, "qpm": 62.99999685000016}, {"time": 2241, "qpm": 61.99999586666694}, {"time": 2277, "qpm": 64.99999458333379}, {"time": 2325, "qpm": 61.99999586666694}, {"time": 2337, "qpm": 64.99999458333379}, {"time": 2349, "qpm": 68.0000725334107}, {"time": 2361, "qpm": 64.0}, {"time": 2373, "qpm": 62.99999685000016}, {"time": 2433, "qpm": 70.00007000007}, {"time": 2445, "qpm": 64.99999458333379}, {"time": 2457, "qpm": 62.99999685000016}, {"time": 2469, "qpm": 64.99999458333379}, {"time": 2481, "qpm": 60.99997255001235}, {"time": 2505, "qpm": 64.0}, {"time": 2529, "qpm": 67.00002903334591}, {"time": 2553, "qpm": 64.0}, {"time": 2565, "qpm": 60.0}, {"time": 2577, "qpm": 64.0}, {"time": 2601, "qpm": 65.99999340000066}, {"time": 2613, "qpm": 62.99999685000016}, {"time": 2673, "qpm": 68.0000725334107}, {"time": 2685, "qpm": 62.99999685000016}, {"time": 2721, "qpm": 67.00002903334591}, {"time": 2745, "qpm": 64.0}, {"time": 2757, "qpm": 61.99999586666694}, {"time": 2781, "qpm": 67.00002903334591}, {"time": 2805, "qpm": 60.99997255001235}, {"time": 2829, "qpm": 62.99999685000016}, {"time": 2841, "qpm": 67.00002903334591}, {"time": 2853, "qpm": 64.99999458333379}, {"time": 2901, "qpm": 59.00006686674245}, {"time": 2913, "qpm": 62.99999685000016}, {"time": 2925, "qpm": 65.99999340000066}, {"time": 2949, "qpm": 62.99999685000016}, {"time": 2985, "qpm": 71.00011951686785}, {"time": 2997, "qpm": 62.99999685000016}, {"time": 3057, "qpm": 64.0}, {"time": 3189, "qpm": 64.99999458333379}, {"time": 3213, "qpm": 62.99999685000016}, {"time": 3237, "qpm": 64.99999458333379}, {"time": 3285, "qpm": 64.0}, {"time": 3297, "qpm": 58.00004253336452}, {"time": 3309, "qpm": 65.99999340000066}, {"time": 3333, "qpm": 61.99999586666694}, {"time": 3357, "qpm": 64.99999458333379}, {"time": 3453, "qpm": 60.0}, {"time": 3477, "qpm": 64.99999458333379}, {"time": 3489, "qpm": 70.00007000007}, {"time": 3495, "qpm": 67.00002903334591}, {"time": 3513, "qpm": 60.0}, {"time": 3525, "qpm": 64.99999458333379}, {"time": 3549, "qpm": 60.99997255001235}, {"time": 3561, "qpm": 64.0}, {"time": 3849, "qpm": 65.99999340000066}, {"time": 3861, "qpm": 64.0}, {"time": 4113, "qpm": 73.00007178340392}, {"time": 4137, "qpm": 67.00002903334591}, {"time": 4221, "qpm": 59.00006686674245}, {"time": 4233, "qpm": 67.00002903334591}, {"time": 4269, "qpm": 60.99997255001235}, {"time": 4293, "qpm": 58.00004253336452}, {"time": 4317, "qpm": 62.99999685000016}], "time_signatures": [{"time": 0, "numerator": 4, "denominator": 4}], "tracks": [{"program": 4, "is_drum": false, "name": "MELODY", "notes": [{"time": 399, "pitch": 71, "duration": 3, "velocity": 56}, {"time": 402, "pitch": 72, "duration": 3, "velocity": 75}, {"time": 405, "pitch": 74, "duration": 6, "velocity": 76}, {"time": 411, "pitch": 71, "duration": 6, "velocity": 55}, {"time": 417, "pitch": 74, "duration": 6, "velocity": 76}, {"time": 423, "pitch": 71, "duration": 6, "velocity": 57}, {"time": 429, "pitch": 74, "duration": 6, "velocity": 77}, {"time": 435, "pitch": 71, "duration": 6, "velocity": 56}, {"time": 441, "pitch": 74, "duration": 6, "velocity": 61}, {"time": 447, "pitch": 83, "duration": 6, "velocity": 73}, {"time": 453, "pitch": 81, "duration": 4, "velocity": 56}, {"time": 457, "pitch": 79, "duration": 5, "velocity": 76}, {"time": 462, "pitch": 76, "duration": 27, "velocity": 62}, {"time": 489, "pitch": 76, "duration": 6, "velocity": 60}, {"time": 495, "pitch": 83, "duration": 6, "velocity": 75}, {"time": 504, "pitch": 81, "duration": 6, "velocity": 71}, {"time": 507, "pitch": 79, "duration": 3, "velocity": 61}, {"time": 510, "pitch": 81, "duration": 12, "velocity": 60}, {"time": 522, "pitch": 74, "duration": 3, "velocity": 62}, {"time": 525, "pitch": 74, "duration": 6, "velocity": 69}, {"time": 531, "pitch": 71, "duration": 6, "velocity": 72}, {"time": 537, "pitch": 74, "duration": 3, "velocity": 80}, {"time": 540, "pitch": 81, "duration": 9, "velocity": 72}, {"time": 549, "pitch": 81, "duration": 6, "velocity": 56}, {"time": 555, "pitch": 78, "duration": 12, "velocity": 60}, {"time": 567, "pitch": 79, "duration": 18, "velocity": 69}, {"time": 585, "pitch": 79, "duration": 3, "velocity": 63}, {"time": 589, "pitch": 81, "duration": 3, "velocity": 73}, {"time": 593, "pitch": 83, "duration": 4, "velocity": 79}, {"time": 597, "pitch": 83, "duration": 9, "velocity": 82}, {"time": 606, "pitch": 76, "duration": 9, "velocity": 73}, {"time": 615, "pitch": 81, "duration": 18, "velocity": 76}, {"time": 633, "pitch": 79, "duration": 4, "velocity": 38}, {"time": 637, "pitch": 81, "duration": 3, "velocity": 67}, {"time": 640, "pitch": 83, "duration": 5, "velocity": 76}, {"time": 645, "pitch": 83, "duration": 12, "velocity": 84}, {"time": 657, "pitch": 74, "duration": 6, "velocity": 60}, {"time": 663, "pitch": 79, "duration": 18, "velocity": 69}, {"time": 681, "pitch": 79, "duration": 4, "velocity": 62}, {"time": 685, "pitch": 81, "duration": 4, "velocity": 71}, {"time": 689, "pitch": 83, "duration": 4, "velocity": 72}, {"time": 693, "pitch": 81, "duration": 9, "velocity": 79}, {"time": 702, "pitch": 76, "duration": 3, "velocity": 60}, {"time": 705, "pitch": 78, "duration": 6, "velocity": 59}, {"time": 711, "pitch": 79, "duration": 6, "velocity": 71}, {"time": 717, "pitch": 79, "duration": 6, "velocity": 55}, {"time": 723, "pitch": 78, "duration": 6, "velocity": 64}, {"time": 729, "pitch": 79, "duration": 6, "velocity": 64}, {"time": 735, "pitch": 81, "duration": 6, "velocity": 64}, {"time": 741, "pitch": 83, "duration": 6, "velocity": 71}, {"time": 747, "pitch": 81, "duration": 5, "velocity": 62}, {"time": 753, "pitch": 79, "duration": 6, "velocity": 73}, {"time": 759, "pitch": 74, "duration": 8, "velocity": 62}, {"time": 783, "pitch": 71, "duration": 3, "velocity": 56}, {"time": 786, "pitch": 72, "duration": 3, "velocity": 75}, {"time": 789, "pitch": 74, "duration": 6, "velocity": 76}, {"time": 795, "pitch": 71, "duration": 6, "velocity": 55}, {"time": 801, "pitch": 74, "duration": 6, "velocity": 76}, {"time": 807, "pitch": 71, "duration": 6, "velocity": 57}, {"time": 813, "pitch": 74, "duration": 6, "velocity": 77}, {"time": 819, "pitch": 71, "duration": 6, "velocity": 56}, {"time": 825, "pitch": 74, "duration": 6, "velocity": 61}, {"time": 831, "pitch": 83, "duration": 6, "velocity": 73}, {"time": 837, "pitch": 81, "duration": 4, "velocity": 56}, {"time": 841, "pitch": 79, "duration": 5, "velocity": 76}, {"time": 846, "pitch": 76, "duration": 27, "velocity": 62}, {"time": 873, "pitch": 76, "duration": 6, "velocity": 60}, {"time": 879, "pitch": 83, "duration": 6, "velocity": 75}, {"time": 885, "pitch": 81, "duration": 6, "velocity": 71}, {"time": 891, "pitch": 79, "duration": 3, "velocity": 61}, {"time": 894, "pitch": 81, "duration": 12, "velocity": 60}, {"time": 906, "pitch": 74, "duration": 3, "velocity": 62}, {"time": 909, "pitch": 74, "duration": 6, "velocity": 69}, {"time": 915, "pitch": 71, "duration": 6, "velocity": 72}, {"time": 921, "pitch": 74, "duration": 6, "velocity": 80}, {"time": 927, "pitch": 81, "duration": 6, "velocity": 72}, {"time": 933, "pitch": 81, "duration": 6, "velocity": 56}, {"time": 939, "pitch": 79, "duration": 6, "velocity": 76}, {"time": 945, "pitch": 81, "duration": 6, "velocity": 61}, {"time": 951, "pitch": 83, "duration": 18, "velocity": 80}, {"time": 969, "pitch": 83, "duration": 3, "velocity": 63}, {"time": 973, "pitch": 84, "duration": 3, "velocity": 73}, {"time": 977, "pitch": 86, "duration": 4, "velocity": 79}, {"time": 981, "pitch": 86, "duration": 12, "velocity": 82}, {"time": 993, "pitch": 79, "duration": 6, "velocity": 73}, {"time": 999, "pitch": 81, "duration": 18, "velocity": 76}, {"time": 1017, "pitch": 83, "duration": 3, "velocity": 67}, {"time": 1021, "pitch": 84, "duration": 3, "velocity": 67}, {"time": 1024, "pitch": 86, "duration": 5, "velocity": 76}, {"time": 1029, "pitch": 86, "duration": 6, "velocity": 84}, {"time": 1035, "pitch": 78, "duration": 6, "velocity": 71}, {"time": 1041, "pitch": 81, "duration": 5, "velocity": 73}, {"time": 1046, "pitch": 78, "duration": 4, "velocity": 68}, {"time": 1050, "pitch": 79, "duration": 15, "velocity": 57}, {"time": 1065, "pitch": 83, "duration": 4, "velocity": 78}, {"time": 1070, "pitch": 84, "duration": 3, "velocity": 73}, {"time": 1073, "pitch": 86, "duration": 4, "velocity": 76}, {"time": 1077, "pitch": 86, "duration": 6, "velocity": 80}, {"time": 1083, "pitch": 79, "duration": 3, "velocity": 73}, {"time": 1086, "pitch": 88, "duration": 6, "velocity": 81}, {"time": 1092, "pitch": 86, "duration": 9, "velocity": 79}, {"time": 1101, "pitch": 83, "duration": 6, "velocity": 80}, {"time": 1107, "pitch": 84, "duration": 3, "velocity": 76}, {"time": 1110, "pitch": 83, "duration": 12, "velocity": 80}, {"time": 1122, "pitch": 79, "duration": 3, "velocity": 63}, {"time": 1125, "pitch": 81, "duration": 30, "velocity": 79}, {"time": 1155, "pitch": 74, "duration": 6, "velocity": 82}, {"time": 1161, "pitch": 88, "duration": 6, "velocity": 95}, {"time": 1167, "pitch": 83, "duration": 6, "velocity": 86}, {"time": 1173, "pitch": 83, "duration": 6, "velocity": 84}, {"time": 1179, "pitch": 84, "duration": 12, "velocity": 82}, {"time": 1191, "pitch": 86, "duration": 15, "velocity": 86}, {"time": 1206, "pitch": 74, "duration": 3, "velocity": 78}, {"time": 1209, "pitch": 88, "duration": 6, "velocity": 93}, {"time": 1215, "pitch": 83, "duration": 6, "velocity": 80}, {"time": 1221, "pitch": 83, "duration": 6, "velocity": 83}, {"time": 1227, "pitch": 84, "duration": 12, "velocity": 84}, {"time": 1239, "pitch": 83, "duration": 12, "velocity": 82}, {"time": 1251, "pitch": 79, "duration": 3, "velocity": 83}, {"time": 1254, "pitch": 79, "duration": 7, "velocity": 90}, {"time": 1261, "pitch": 91, "duration": 8, "velocity": 93}, {"time": 1269, "pitch": 90, "duration": 6, "velocity": 103}, {"time": 1275, "pitch": 91, "duration": 3, "velocity": 83}, {"time": 1278, "pitch": 90, "duration": 6, "velocity": 78}, {"time": 1284, "pitch": 86, "duration": 6, "velocity": 72}, {"time": 1290, "pitch": 86, "duration": 3, "velocity": 71}, {"time": 1293, "pitch": 90, "duration": 6, "velocity": 78}, {"time": 1299, "pitch": 91, "duration": 3, "velocity": 82}, {"time": 1302, "pitch": 90, "duration": 9, "velocity": 78}, {"time": 1311, "pitch": 81, "duration": 3, "velocity": 76}, {"time": 1314, "pitch": 83, "duration": 39, "velocity": 82}, {"time": 1353, "pitch": 83, "duration": 6, "velocity": 91}, {"time": 1359, "pitch": 84, "duration": 6, "velocity": 95}, {"time": 1365, "pitch": 86, "duration": 6, "velocity": 91}, {"time": 1371, "pitch": 84, "duration": 6, "velocity": 93}, {"time": 1377, "pitch": 84, "duration": 6, "velocity": 86}, {"time": 1383, "pitch": 83, "duration": 3, "velocity": 61}, {"time": 1386, "pitch": 84, "duration": 6, "velocity": 83}, {"time": 1392, "pitch": 74, "duration": 15, "velocity": 61}, {"time": 1407, "pitch": 83, "duration": 3, "velocity": 90}, {"time": 1410, "pitch": 81, "duration": 3, "velocity": 82}, {"time": 1413, "pitch": 83, "duration": 6, "velocity": 83}, {"time": 1419, "pitch": 81, "duration": 3, "velocity": 83}, {"time": 1422, "pitch": 83, "duration": 6, "velocity": 84}, {"time": 1428, "pitch": 89, "duration": 9, "velocity": 91}, {"time": 1437, "pitch": 88, "duration": 18, "velocity": 94}, {"time": 1455, "pitch": 88, "duration": 3, "velocity": 82}, {"time": 1458, "pitch": 90, "duration": 3, "velocity": 86}, {"time": 1461, "pitch": 91, "duration": 6, "velocity": 90}, {"time": 1467, "pitch": 88, "duration": 3, "velocity": 83}, {"time": 1470, "pitch": 88, "duration": 6, "velocity": 84}, {"time": 1476, "pitch": 90, "duration": 6, "velocity": 105}, {"time": 1482, "pitch": 91, "duration": 9, "velocity": 83}, {"time": 1491, "pitch": 90, "duration": 6, "velocity": 84}, {"time": 1497, "pitch": 88, "duration": 6, "velocity": 90}, {"time": 1503, "pitch": 90, "duration": 6, "velocity": 84}, {"time": 1509, "pitch": 88, "duration": 12, "velocity": 84}, {"time": 1521, "pitch": 83, "duration": 6, "velocity": 84}, {"time": 1527, "pitch": 86, "duration": 30, "velocity": 84}, {"time": 1539, "pitch": 74, "duration": 6, "velocity": 82}, {"time": 1545, "pitch": 88, "duration": 6, "velocity": 95}, {"time": 1551, "pitch": 83, "duration": 6, "velocity": 86}, {"time": 1557, "pitch": 83, "duration": 6, "velocity": 84}, {"time": 1563, "pitch": 84, "duration": 12, "velocity": 82}, {"time": 1575, "pitch": 86, "duration": 15, "velocity": 86}, {"time": 1587, "pitch": 74, "duration": 3, "velocity": 78}, {"time": 1593, "pitch": 88, "duration": 6, "velocity": 93}, {"time": 1599, "pitch": 83, "duration": 6, "velocity": 80}, {"time": 1605, "pitch": 83, "duration": 6, "velocity": 83}, {"time": 1611, "pitch": 84, "duration": 12, "velocity": 84}, {"time": 1623, "pitch": 83, "duration": 12, "velocity": 82}, {"time": 1638, "pitch": 79, "duration": 3, "velocity": 83}, {"time": 1641, "pitch": 79, "duration": 1, "velocity": 90}, {"time": 1647, "pitch": 91, "duration": 8, "velocity": 93}, {"time": 1653, "pitch": 90, "duration": 6, "velocity": 103}, {"time": 1659, "pitch": 91, "duration": 3, "velocity": 83}, {"time": 1662, "pitch": 90, "duration": 6, "velocity": 78}, {"time": 1668, "pitch": 86, "duration": 6, "velocity": 72}, {"time": 1674, "pitch": 86, "duration": 3, "velocity": 71}, {"time": 1677, "pitch": 90, "duration": 6, "velocity": 78}, {"time": 1683, "pitch": 91, "duration": 3, "velocity": 82}, {"time": 1686, "pitch": 90, "duration": 9, "velocity": 78}, {"time": 1698, "pitch": 81, "duration": 3, "velocity": 76}, {"time": 1701, "pitch": 83, "duration": 36, "velocity": 82}, {"time": 1737, "pitch": 83, "duration": 6, "velocity": 91}, {"time": 1743, "pitch": 84, "duration": 3, "velocity": 95}, {"time": 1746, "pitch": 86, "duration": 9, "velocity": 91}, {"time": 1755, "pitch": 84, "duration": 3, "velocity": 93}, {"time": 1758, "pitch": 83, "duration": 9, "velocity": 86}, {"time": 1767, "pitch": 79, "duration": 3, "velocity": 61}, {"time": 1770, "pitch": 81, "duration": 15, "velocity": 83}, {"time": 1785, "pitch": 83, "duration": 6, "velocity": 93}, {"time": 1791, "pitch": 84, "duration": 3, "velocity": 84}, {"time": 1794, "pitch": 83, "duration": 9, "velocity": 86}, {"time": 1803, "pitch": 84, "duration": 3, "velocity": 90}, {"time": 1806, "pitch": 83, "duration": 9, "velocity": 82}, {"time": 1815, "pitch": 78, "duration": 3, "velocity": 83}, {"time": 1818, "pitch": 79, "duration": 15, "velocity": 82}, {"time": 1833, "pitch": 83, "duration": 6, "velocity": 84}, {"time": 1839, "pitch": 84, "duration": 6, "velocity": 75}, {"time": 1845, "pitch": 86, "duration": 6, "velocity": 83}, {"time": 1851, "pitch": 84, "duration": 6, "velocity": 81}, {"time": 1857, "pitch": 84, "duration": 6, "velocity": 56}, {"time": 1863, "pitch": 91, "duration": 6, "velocity": 75}, {"time": 1869, "pitch": 90, "duration": 12, "velocity": 75}, {"time": 1881, "pitch": 81, "duration": 6, "velocity": 79}, {"time": 1887, "pitch": 84, "duration": 45, "velocity": 83}, {"time": 1932, "pitch": 83, "duration": 9, "velocity": 81}, {"time": 1941, "pitch": 79, "duration": 48, "velocity": 75}, {"time": 2079, "pitch": 71, "duration": 3, "velocity": 56}, {"time": 2082, "pitch": 72, "duration": 3, "velocity": 75}, {"time": 2085, "pitch": 74, "duration": 6, "velocity": 76}, {"time": 2091, "pitch": 71, "duration": 6, "velocity": 55}, {"time": 2097, "pitch": 74, "duration": 6, "velocity": 76}, {"time": 2103, "pitch": 71, "duration": 6, "velocity": 57}, {"time": 2109, "pitch": 74, "duration": 6, "velocity": 77}, {"time": 2115, "pitch": 71, "duration": 6, "velocity": 56}, {"time": 2121, "pitch": 74, "duration": 6, "velocity": 61}, {"time": 2127, "pitch": 83, "duration": 6, "velocity": 73}, {"time": 2133, "pitch": 81, "duration": 6, "velocity": 56}, {"time": 2139, "pitch": 79, "duration": 3, "velocity": 76}, {"time": 2142, "pitch": 76, "duration": 27, "velocity": 62}, {"time": 2169, "pitch": 76, "duration": 6, "velocity": 60}, {"time": 2175, "pitch": 83, "duration": 6, "velocity": 75}, {"time": 2181, "pitch": 81, "duration": 6, "velocity": 71}, {"time": 2187, "pitch": 79, "duration": 3, "velocity": 61}, {"time": 2190, "pitch": 81, "duration": 12, "velocity": 60}, {"time": 2202, "pitch": 74, "duration": 3, "velocity": 62}, {"time": 2205, "pitch": 74, "duration": 6, "velocity": 69}, {"time": 2211, "pitch": 71, "duration": 6, "velocity": 72}, {"time": 2217, "pitch": 74, "duration": 3, "velocity": 80}, {"time": 2220, "pitch": 81, "duration": 9, "velocity": 72}, {"time": 2229, "pitch": 81, "duration": 6, "velocity": 56}, {"time": 2235, "pitch": 78, "duration": 12, "velocity": 60}, {"time": 2247, "pitch": 79, "duration": 18, "velocity": 69}, {"time": 2265, "pitch": 79, "duration": 3, "velocity": 63}, {"time": 2268, "pitch": 81, "duration": 6, "velocity": 73}, {"time": 2274, "pitch": 83, "duration": 3, "velocity": 79}, {"time": 2277, "pitch": 83, "duration": 9, "velocity": 82}, {"time": 2286, "pitch": 76, "duration": 9, "velocity": 73}, {"time": 2295, "pitch": 81, "duration": 18, "velocity": 76}, {"time": 2313, "pitch": 79, "duration": 3, "velocity": 38}, {"time": 2316, "pitch": 81, "duration": 3, "velocity": 67}, {"time": 2319, "pitch": 83, "duration": 6, "velocity": 76}, {"time": 2325, "pitch": 83, "duration": 12, "velocity": 84}, {"time": 2337, "pitch": 74, "duration": 6, "velocity": 60}, {"time": 2343, "pitch": 79, "duration": 18, "velocity": 69}, {"time": 2361, "pitch": 79, "duration": 3, "velocity": 62}, {"time": 2364, "pitch": 81, "duration": 6, "velocity": 71}, {"time": 2370, "pitch": 83, "duration": 3, "velocity": 72}, {"time": 2373, "pitch": 83, "duration": 9, "velocity": 79}, {"time": 2382, "pitch": 76, "duration": 3, "velocity": 60}, {"time": 2385, "pitch": 78, "duration": 6, "velocity": 59}, {"time": 2391, "pitch": 79, "duration": 6, "velocity": 71}, {"time": 2397, "pitch": 79, "duration": 6, "velocity": 55}, {"time": 2403, "pitch": 78, "duration": 6, "velocity": 64}, {"time": 2409, "pitch": 79, "duration": 6, "velocity": 64}, {"time": 2415, "pitch": 81, "duration": 6, "velocity": 64}, {"time": 2421, "pitch": 83, "duration": 6, "velocity": 71}, {"time": 2427, "pitch": 81, "duration": 6, "velocity": 62}, {"time": 2433, "pitch": 79, "duration": 6, "velocity": 73}, {"time": 2439, "pitch": 74, "duration": 24, "velocity": 62}, {"time": 2463, "pitch": 71, "duration": 3, "velocity": 56}, {"time": 2466, "pitch": 72, "duration": 3, "velocity": 75}, {"time": 2469, "pitch": 74, "duration": 6, "velocity": 76}, {"time": 2475, "pitch": 71, "duration": 6, "velocity": 55}, {"time": 2481, "pitch": 74, "duration": 6, "velocity": 76}, {"time": 2487, "pitch": 71, "duration": 6, "velocity": 57}, {"time": 2493, "pitch": 74, "duration": 6, "velocity": 77}, {"time": 2499, "pitch": 71, "duration": 6, "velocity": 56}, {"time": 2505, "pitch": 74, "duration": 6, "velocity": 61}, {"time": 2511, "pitch": 83, "duration": 6, "velocity": 73}, {"time": 2517, "pitch": 81, "duration": 6, "velocity": 56}, {"time": 2523, "pitch": 79, "duration": 3, "velocity": 76}, {"time": 2526, "pitch": 76, "duration": 27, "velocity": 62}, {"time": 2553, "pitch": 76, "duration": 6, "velocity": 60}, {"time": 2559, "pitch": 83, "duration": 6, "velocity": 75}, {"time": 2565, "pitch": 81, "duration": 6, "velocity": 71}, {"time": 2571, "pitch": 79, "duration": 3, "velocity": 61}, {"time": 2574, "pitch": 81, "duration": 12, "velocity": 60}, {"time": 2586, "pitch": 74, "duration": 3, "velocity": 62}, {"time": 2589, "pitch": 74, "duration": 6, "velocity": 69}, {"time": 2595, "pitch": 71, "duration": 6, "velocity": 72}, {"time": 2601, "pitch": 74, "duration": 6, "velocity": 80}, {"time": 2607, "pitch": 81, "duration": 6, "velocity": 72}, {"time": 2613, "pitch": 81, "duration": 6, "velocity": 56}, {"time": 2619, "pitch": 79, "duration": 6, "velocity": 76}, {"time": 2625, "pitch": 81, "duration": 6, "velocity": 61}, {"time": 2631, "pitch": 83, "duration": 18, "velocity": 80}, {"time": 2649, "pitch": 83, "duration": 3, "velocity": 63}, {"time": 2652, "pitch": 84, "duration": 6, "velocity": 73}, {"time": 2658, "pitch": 86, "duration": 3, "velocity": 79}, {"time": 2661, "pitch": 86, "duration": 12, "velocity": 82}, {"time": 2673, "pitch": 79, "duration": 6, "velocity": 73}, {"time": 2679, "pitch": 81, "duration": 18, "velocity": 76}, {"time": 2697, "pitch": 83, "duration": 3, "velocity": 67}, {"time": 2700, "pitch": 84, "duration": 3, "velocity": 67}, {"time": 2703, "pitch": 86, "duration": 6, "velocity": 76}, {"time": 2709, "pitch": 86, "duration": 6, "velocity": 84}, {"time": 2715, "pitch": 78, "duration": 6, "velocity": 71}, {"time": 2721, "pitch": 81, "duration": 6, "velocity": 73}, {"time": 2727, "pitch": 78, "duration": 3, "velocity": 68}, {"time": 2730, "pitch": 79, "duration": 15, "velocity": 57}, {"time": 2745, "pitch": 83, "duration": 6, "velocity": 78}, {"time": 2751, "pitch": 84, "duration": 3, "velocity": 73}, {"time": 2754, "pitch": 86, "duration": 3, "velocity": 76}, {"time": 2757, "pitch": 86, "duration": 6, "velocity": 80}, {"time": 2763, "pitch": 79, "duration": 3, "velocity": 73}, {"time": 2766, "pitch": 88, "duration": 6, "velocity": 81}, {"time": 2772, "pitch": 86, "duration": 9, "velocity": 79}, {"time": 2781, "pitch": 83, "duration": 6, "velocity": 80}, {"time": 2787, "pitch": 84, "duration": 3, "velocity": 76}, {"time": 2790, "pitch": 83, "duration": 12, "velocity": 80}, {"time": 2802, "pitch": 79, "duration": 3, "velocity": 63}, {"time": 2805, "pitch": 81, "duration": 30, "velocity": 79}, {"time": 2835, "pitch": 74, "duration": 6, "velocity": 82}, {"time": 2841, "pitch": 88, "duration": 6, "velocity": 95}, {"time": 2847, "pitch": 83, "duration": 6, "velocity": 86}, {"time": 2853, "pitch": 83, "duration": 6, "velocity": 84}, {"time": 2859, "pitch": 84, "duration": 12, "velocity": 82}, {"time": 2871, "pitch": 86, "duration": 15, "velocity": 86}, {"time": 2886, "pitch": 74, "duration": 3, "velocity": 78}, {"time": 2889, "pitch": 88, "duration": 6, "velocity": 93}, {"time": 2895, "pitch": 83, "duration": 6, "velocity": 80}, {"time": 2901, "pitch": 83, "duration": 6, "velocity": 83}, {"time": 2907, "pitch": 84, "duration": 12, "velocity": 84}, {"time": 2919, "pitch": 83, "duration": 12, "velocity": 82}, {"time": 2931, "pitch": 79, "duration": 3, "velocity": 83}, {"time": 2934, "pitch": 79, "duration": 6, "velocity": 90}, {"time": 2940, "pitch": 91, "duration": 9, "velocity": 93}, {"time": 2949, "pitch": 90, "duration": 6, "velocity": 103}, {"time": 2955, "pitch": 91, "duration": 3, "velocity": 83}, {"time": 2958, "pitch": 90, "duration": 6, "velocity": 78}, {"time": 2964, "pitch": 86, "duration": 6, "velocity": 72}, {"time": 2970, "pitch": 86, "duration": 3, "velocity": 71}, {"time": 2973, "pitch": 90, "duration": 6, "velocity": 78}, {"time": 2979, "pitch": 91, "duration": 3, "velocity": 82}, {"time": 2982, "pitch": 90, "duration": 9, "velocity": 78}, {"time": 2991, "pitch": 81, "duration": 3, "velocity": 76}, {"time": 2994, "pitch": 83, "duration": 39, "velocity": 82}, {"time": 3033, "pitch": 83, "duration": 6, "velocity": 91}, {"time": 3039, "pitch": 84, "duration": 3, "velocity": 95}, {"time": 3042, "pitch": 86, "duration": 9, "velocity": 91}, {"time": 3051, "pitch": 84, "duration": 3, "velocity": 93}, {"time": 3054, "pitch": 84, "duration": 9, "velocity": 86}, {"time": 3063, "pitch": 79, "duration": 3, "velocity": 61}, {"time": 3066, "pitch": 81, "duration": 15, "velocity": 83}, {"time": 3081, "pitch": 83, "duration": 6, "velocity": 84}, {"time": 3087, "pitch": 84, "duration": 3, "velocity": 86}, {"time": 3090, "pitch": 83, "duration": 9, "velocity": 93}, {"time": 3099, "pitch": 84, "duration": 3, "velocity": 90}, {"time": 3102, "pitch": 83, "duration": 9, "velocity": 93}, {"time": 3111, "pitch": 78, "duration": 3, "velocity": 79}, {"time": 3114, "pitch": 79, "duration": 15, "velocity": 77}, {"time": 3129, "pitch": 83, "duration": 6, "velocity": 91}, {"time": 3135, "pitch": 84, "duration": 3, "velocity": 82}, {"time": 3138, "pitch": 86, "duration": 9, "velocity": 83}, {"time": 3147, "pitch": 84, "duration": 3, "velocity": 98}, {"time": 3150, "pitch": 84, "duration": 6, "velocity": 98}, {"time": 3156, "pitch": 91, "duration": 9, "velocity": 83}, {"time": 3165, "pitch": 90, "duration": 9, "velocity": 105}, {"time": 3171, "pitch": 81, "duration": 3, "velocity": 83}, {"time": 3177, "pitch": 84, "duration": 12, "velocity": 83}, {"time": 3189, "pitch": 83, "duration": 48, "velocity": 95}, {"time": 3195, "pitch": 79, "duration": 3, "velocity": 83}, {"time": 3363, "pitch": 74, "duration": 6, "velocity": 61}, {"time": 3369, "pitch": 88, "duration": 5, "velocity": 83}, {"time": 3375, "pitch": 83, "duration": 4, "velocity": 95}, {"time": 3381, "pitch": 83, "duration": 5, "velocity": 90}, {"time": 3387, "pitch": 84, "duration": 8, "velocity": 86}, {"time": 3399, "pitch": 86, "duration": 8, "velocity": 80}, {"time": 3414, "pitch": 74, "duration": 1, "velocity": 71}, {"time": 3417, "pitch": 88, "duration": 7, "velocity": 90}, {"time": 3423, "pitch": 83, "duration": 4, "velocity": 82}, {"time": 3429, "pitch": 83, "duration": 4, "velocity": 84}, {"time": 3435, "pitch": 84, "duration": 9, "velocity": 84}, {"time": 3447, "pitch": 83, "duration": 9, "velocity": 84}, {"time": 3462, "pitch": 79, "duration": 1, "velocity": 93}, {"time": 3465, "pitch": 79, "duration": 5, "velocity": 95}, {"time": 3471, "pitch": 91, "duration": 4, "velocity": 90}, {"time": 3477, "pitch": 90, "duration": 4, "velocity": 106}, {"time": 3483, "pitch": 91, "duration": 1, "velocity": 82}, {"time": 3486, "pitch": 90, "duration": 3, "velocity": 83}, {"time": 3492, "pitch": 86, "duration": 4, "velocity": 93}, {"time": 3498, "pitch": 86, "duration": 1, "velocity": 83}, {"time": 3501, "pitch": 90, "duration": 4, "velocity": 101}, {"time": 3507, "pitch": 91, "duration": 2, "velocity": 83}, {"time": 3510, "pitch": 90, "duration": 1, "velocity": 110}, {"time": 3522, "pitch": 81, "duration": 4, "velocity": 86}, {"time": 3525, "pitch": 83, "duration": 10, "velocity": 94}, {"time": 3537, "pitch": 86, "duration": 16, "velocity": 100}, {"time": 3561, "pitch": 83, "duration": 5, "velocity": 100}, {"time": 3567, "pitch": 84, "duration": 4, "velocity": 94}, {"time": 3573, "pitch": 86, "duration": 5, "velocity": 93}, {"time": 3579, "pitch": 84, "duration": 1, "velocity": 98}, {"time": 3585, "pitch": 84, "duration": 8, "velocity": 94}, {"time": 3591, "pitch": 83, "duration": 2, "velocity": 95}, {"time": 3594, "pitch": 84, "duration": 7, "velocity": 100}, {"time": 3603, "pitch": 74, "duration": 1, "velocity": 86}, {"time": 3615, "pitch": 83, "duration": 3, "velocity": 95}, {"time": 3618, "pitch": 81, "duration": 2, "velocity": 90}, {"time": 3621, "pitch": 83, "duration": 5, "velocity": 98}, {"time": 3627, "pitch": 81, "duration": 2, "velocity": 86}, {"time": 3630, "pitch": 83, "duration": 2, "velocity": 91}, {"time": 3636, "pitch": 90, "duration": 7, "velocity": 106}, {"time": 3645, "pitch": 88, "duration": 9, "velocity": 95}, {"time": 3663, "pitch": 88, "duration": 2, "velocity": 91}, {"time": 3666, "pitch": 90, "duration": 2, "velocity": 98}, {"time": 3669, "pitch": 91, "duration": 5, "velocity": 98}, {"time": 3675, "pitch": 88, "duration": 1, "velocity": 93}, {"time": 3678, "pitch": 88, "duration": 4, "velocity": 98}, {"time": 3684, "pitch": 90, "duration": 4, "velocity": 105}, {"time": 3690, "pitch": 91, "duration": 6, "velocity": 94}, {"time": 3699, "pitch": 90, "duration": 5, "velocity": 98}, {"time": 3705, "pitch": 88, "duration": 5, "velocity": 93}, {"time": 3711, "pitch": 90, "duration": 5, "velocity": 106}, {"time": 3717, "pitch": 88, "duration": 9, "velocity": 98}, {"time": 3726, "pitch": 83, "duration": 8, "velocity": 100}, {"time": 3735, "pitch": 86, "duration": 9, "velocity": 90}, {"time": 3747, "pitch": 74, "duration": 6, "velocity": 61}, {"time": 3753, "pitch": 88, "duration": 5, "velocity": 83}, {"time": 3759, "pitch": 83, "duration": 4, "velocity": 95}, {"time": 3765, "pitch": 83, "duration": 5, "velocity": 90}, {"time": 3771, "pitch": 84, "duration": 8, "velocity": 86}, {"time": 3783, "pitch": 86, "duration": 8, "velocity": 80}, {"time": 3798, "pitch": 74, "duration": 1, "velocity": 71}, {"time": 3801, "pitch": 88, "duration": 7, "velocity": 90}, {"time": 3807, "pitch": 83, "duration": 4, "velocity": 82}, {"time": 3813, "pitch": 83, "duration": 4, "velocity": 84}, {"time": 3819, "pitch": 84, "duration": 9, "velocity": 84}, {"time": 3831, "pitch": 83, "duration": 9, "velocity": 84}, {"time": 3846, "pitch": 79, "duration": 1, "velocity": 93}, {"time": 3849, "pitch": 79, "duration": 5, "velocity": 95}, {"time": 3855, "pitch": 91, "duration": 4, "velocity": 90}, {"time": 3861, "pitch": 90, "duration": 4, "velocity": 106}, {"time": 3867, "pitch": 91, "duration": 1, "velocity": 82}, {"time": 3870, "pitch": 90, "duration": 3, "velocity": 83}, {"time": 3876, "pitch": 86, "duration": 4, "velocity": 93}, {"time": 3882, "pitch": 86, "duration": 1, "velocity": 83}, {"time": 3885, "pitch": 90, "duration": 4, "velocity": 101}, {"time": 3891, "pitch": 91, "duration": 2, "velocity": 83}, {"time": 3894, "pitch": 90, "duration": 1, "velocity": 110}, {"time": 3906, "pitch": 81, "duration": 4, "velocity": 86}, {"time": 3909, "pitch": 83, "duration": 10, "velocity": 94}, {"time": 3921, "pitch": 86, "duration": 16, "velocity": 100}, {"time": 3945, "pitch": 83, "duration": 5, "velocity": 100}, {"time": 3951, "pitch": 84, "duration": 4, "velocity": 94}, {"time": 3954, "pitch": 86, "duration": 5, "velocity": 93}, {"time": 3963, "pitch": 84, "duration": 1, "velocity": 98}, {"time": 3966, "pitch": 83, "duration": 8, "velocity": 94}, {"time": 3975, "pitch": 79, "duration": 2, "velocity": 95}, {"time": 3978, "pitch": 81, "duration": 7, "velocity": 100}, {"time": 3993, "pitch": 83, "duration": 7, "velocity": 100}, {"time": 3999, "pitch": 84, "duration": 3, "velocity": 95}, {"time": 4005, "pitch": 83, "duration": 5, "velocity": 98}, {"time": 4011, "pitch": 84, "duration": 2, "velocity": 86}, {"time": 4014, "pitch": 83, "duration": 2, "velocity": 91}, {"time": 4023, "pitch": 78, "duration": 2, "velocity": 84}, {"time": 4026, "pitch": 79, "duration": 13, "velocity": 90}, {"time": 4041, "pitch": 83, "duration": 5, "velocity": 98}, {"time": 4047, "pitch": 84, "duration": 3, "velocity": 90}, {"time": 4050, "pitch": 86, "duration": 8, "velocity": 84}, {"time": 4059, "pitch": 84, "duration": 2, "velocity": 93}, {"time": 4062, "pitch": 84, "duration": 7, "velocity": 90}, {"time": 4071, "pitch": 90, "duration": 3, "velocity": 78}, {"time": 4077, "pitch": 90, "duration": 9, "velocity": 91}, {"time": 4089, "pitch": 81, "duration": 5, "velocity": 86}, {"time": 4095, "pitch": 84, "duration": 13, "velocity": 82}, {"time": 4125, "pitch": 83, "duration": 6, "velocity": 82}, {"time": 4134, "pitch": 79, "duration": 15, "velocity": 84}]}, {"program": 0, "is_drum": false, "name": "PIANO", "notes": [{"time": 6, "pitch": 74, "duration": 3, "velocity": 51}, {"time": 9, "pitch": 88, "duration": 8, "velocity": 72}, {"time": 15, "pitch": 86, "duration": 6, "velocity": 76}, {"time": 21, "pitch": 67, "duration": 11, "velocity": 61}, {"time": 21, "pitch": 83, "duration": 8, "velocity": 68}, {"time": 27, "pitch": 74, "duration": 5, "velocity": 59}, {"time": 30, "pitch": 84, "duration": 9, "velocity": 69}, {"time": 33, "pitch": 79, "duration": 7, "velocity": 39}, {"time": 39, "pitch": 81, "duration": 22, "velocity": 49}, {"time": 39, "pitch": 86, "duration": 22, "velocity": 63}, {"time": 57, "pitch": 83, "duration": 3, "velocity": 38}, {"time": 66, "pitch": 74, "duration": 2, "velocity": 46}, {"time": 69, "pitch": 66, "duration": 9, "velocity": 65}, {"time": 69, "pitch": 81, "duration": 4, "velocity": 69}, {"time": 69, "pitch": 86, "duration": 26, "velocity": 71}, {"time": 75, "pitch": 74, "duration": 5, "velocity": 72}, {"time": 81, "pitch": 78, "duration": 1, "velocity": 72}, {"time": 87, "pitch": 81, "duration": 1, "velocity": 54}, {"time": 93, "pitch": 81, "duration": 7, "velocity": 56}, {"time": 93, "pitch": 93, "duration": 5, "velocity": 60}, {"time": 99, "pitch": 91, "duration": 4, "velocity": 83}, {"time": 105, "pitch": 74, "duration": 1, "velocity": 75}, {"time": 105, "pitch": 90, "duration": 5, "velocity": 73}, {"time": 111, "pitch": 86, "duration": 5, "velocity": 57}, {"time": 114, "pitch": 67, "duration": 2, "velocity": 1}, {"time": 117, "pitch": 64, "duration": 12, "velocity": 72}, {"time": 117, "pitch": 91, "duration": 23, "velocity": 74}, {"time": 123, "pitch": 71, "duration": 5, "velocity": 54}, {"time": 129, "pitch": 76, "duration": 6, "velocity": 59}, {"time": 135, "pitch": 78, "duration": 19, "velocity": 22}, {"time": 141, "pitch": 90, "duration": 14, "velocity": 63}, {"time": 159, "pitch": 83, "duration": 6, "velocity": 56}, {"time": 165, "pitch": 62, "duration": 10, "velocity": 62}, {"time": 165, "pitch": 86, "duration": 20, "velocity": 73}, {"time": 171, "pitch": 71, "duration": 5, "velocity": 54}, {"time": 177, "pitch": 74, "duration": 5, "velocity": 56}, {"time": 183, "pitch": 78, "duration": 7, "velocity": 47}, {"time": 189, "pitch": 79, "duration": 14, "velocity": 63}, {"time": 195, "pitch": 78, "duration": 5, "velocity": 79}, {"time": 201, "pitch": 79, "duration": 2, "velocity": 78}, {"time": 207, "pitch": 78, "duration": 5, "velocity": 94}, {"time": 213, "pitch": 48, "duration": 11, "velocity": 79}, {"time": 213, "pitch": 76, "duration": 9, "velocity": 93}, {"time": 219, "pitch": 55, "duration": 6, "velocity": 62}, {"time": 225, "pitch": 60, "duration": 6, "velocity": 72}, {"time": 231, "pitch": 64, "duration": 1, "velocity": 75}, {"time": 237, "pitch": 50, "duration": 16, "velocity": 76}, {"time": 237, "pitch": 69, "duration": 3, "velocity": 53}, {"time": 237, "pitch": 74, "duration": 2, "velocity": 73}, {"time": 237, "pitch": 78, "duration": 8, "velocity": 84}, {"time": 243, "pitch": 57, "duration": 11, "velocity": 69}, {"time": 246, "pitch": 74, "duration": 8, "velocity": 84}, {"time": 249, "pitch": 62, "duration": 11, "velocity": 61}, {"time": 255, "pitch": 69, "duration": 6, "velocity": 71}, {"time": 261, "pitch": 59, "duration": 19, "velocity": 82}, {"time": 261, "pitch": 74, "duration": 2, "velocity": 50}, {"time": 261, "pitch": 78, "duration": 1, "velocity": 69}, {"time": 261, "pitch": 81, "duration": 9, "velocity": 75}, {"time": 267, "pitch": 66, "duration": 13, "velocity": 68}, {"time": 270, "pitch": 79, "duration": 7, "velocity": 76}, {"time": 273, "pitch": 71, "duration": 6, "velocity": 72}, {"time": 279, "pitch": 78, "duration": 5, "velocity": 76}, {"time": 285, "pitch": 52, "duration": 18, "velocity": 78}, {"time": 285, "pitch": 80, "duration": 17, "velocity": 78}, {"time": 303, "pitch": 59, "duration": 6, "velocity": 6}, {"time": 309, "pitch": 60, "duration": 39, "velocity": 72}, {"time": 309, "pitch": 72, "duration": 11, "velocity": 74}, {"time": 315, "pitch": 64, "duration": 5, "velocity": 47}, {"time": 315, "pitch": 67, "duration": 29, "velocity": 59}, {"time": 321, "pitch": 71, "duration": 6, "velocity": 69}, {"time": 327, "pitch": 72, "duration": 1, "velocity": 63}, {"time": 333, "pitch": 72, "duration": 8, "velocity": 53}, {"time": 333, "pitch": 79, "duration": 14, "velocity": 53}, {"time": 354, "pitch": 74, "duration": 4, "velocity": 24}, {"time": 357, "pitch": 78, "duration": 10, "velocity": 57}, {"time": 360, "pitch": 81, "duration": 11, "velocity": 69}, {"time": 405, "pitch": 43, "duration": 5, "velocity": 76}, {"time": 405, "pitch": 62, "duration": 31, "velocity": 57}, {"time": 405, "pitch": 67, "duration": 28, "velocity": 73}, {"time": 405, "pitch": 71, "duration": 31, "velocity": 82}, {"time": 411, "pitch": 55, "duration": 25, "velocity": 56}, {"time": 451, "pitch": 64, "duration": 15, "velocity": 51}, {"time": 451, "pitch": 67, "duration": 16, "velocity": 69}, {"time": 452, "pitch": 74, "duration": 16, "velocity": 73}, {"time": 453, "pitch": 48, "duration": 37, "velocity": 20}, {"time": 453, "pitch": 55, "duration": 37, "velocity": 45}, {"time": 453, "pitch": 59, "duration": 36, "velocity": 47}, {"time": 476, "pitch": 86, "duration": 6, "velocity": 48}, {"time": 477, "pitch": 74, "duration": 7, "velocity": 35}, {"time": 477, "pitch": 79, "duration": 6, "velocity": 42}, {"time": 501, "pitch": 45, "duration": 14, "velocity": 75}, {"time": 501, "pitch": 64, "duration": 5, "velocity": 63}, {"time": 501, "pitch": 72, "duration": 5, "velocity": 79}, {"time": 507, "pitch": 52, "duration": 10, "velocity": 61}, {"time": 513, "pitch": 57, "duration": 5, "velocity": 62}, {"time": 513, "pitch": 60, "duration": 4, "velocity": 78}, {"time": 513, "pitch": 67, "duration": 5, "velocity": 78}, {"time": 519, "pitch": 64, "duration": 6, "velocity": 79}, {"time": 525, "pitch": 50, "duration": 17, "velocity": 5}, {"time": 525, "pitch": 57, "duration": 18, "velocity": 30}, {"time": 525, "pitch": 60, "duration": 6, "velocity": 68}, {"time": 525, "pitch": 67, "duration": 8, "velocity": 77}, {"time": 537, "pitch": 60, "duration": 6, "velocity": 24}, {"time": 537, "pitch": 69, "duration": 6, "velocity": 63}, {"time": 549, "pitch": 43, "duration": 30, "velocity": 73}, {"time": 549, "pitch": 62, "duration": 4, "velocity": 69}, {"time": 549, "pitch": 67, "duration": 5, "velocity": 53}, {"time": 555, "pitch": 50, "duration": 8, "velocity": 62}, {"time": 561, "pitch": 55, "duration": 6, "velocity": 62}, {"time": 561, "pitch": 60, "duration": 5, "velocity": 83}, {"time": 567, "pitch": 62, "duration": 11, "velocity": 79}, {"time": 573, "pitch": 55, "duration": 7, "velocity": 40}, {"time": 573, "pitch": 59, "duration": 6, "velocity": 59}, {"time": 573, "pitch": 67, "duration": 6, "velocity": 59}, {"time": 597, "pitch": 45, "duration": 15, "velocity": 60}, {"time": 597, "pitch": 64, "duration": 6, "velocity": 63}, {"time": 597, "pitch": 72, "duration": 6, "velocity": 78}, {"time": 603, "pitch": 57, "duration": 12, "velocity": 44}, {"time": 609, "pitch": 60, "duration": 6, "velocity": 58}, {"time": 609, "pitch": 67, "duration": 7, "velocity": 61}, {"time": 615, "pitch": 69, "duration": 6, "velocity": 69}, {"time": 621, "pitch": 50, "duration": 17, "velocity": 31}, {"time": 621, "pitch": 57, "duration": 18, "velocity": 51}, {"time": 621, "pitch": 62, "duration": 5, "velocity": 51}, {"time": 621, "pitch": 66, "duration": 5, "velocity": 79}, {"time": 633, "pitch": 74, "duration": 4, "velocity": 73}, {"time": 645, "pitch": 47, "duration": 14, "velocity": 82}, {"time": 645, "pitch": 62, "duration": 4, "velocity": 60}, {"time": 645, "pitch": 69, "duration": 10, "velocity": 73}, {"time": 651, "pitch": 59, "duration": 13, "velocity": 43}, {"time": 657, "pitch": 66, "duration": 6, "velocity": 79}, {"time": 669, "pitch": 52, "duration": 19, "velocity": 68}, {"time": 669, "pitch": 62, "duration": 6, "velocity": 54}, {"time": 669, "pitch": 67, "duration": 6, "velocity": 71}, {"time": 675, "pitch": 59, "duration": 13, "velocity": 56}, {"time": 687, "pitch": 71, "duration": 5, "velocity": 68}, {"time": 693, "pitch": 45, "duration": 5, "velocity": 63}, {"time": 693, "pitch": 64, "duration": 11, "velocity": 57}, {"time": 693, "pitch": 72, "duration": 13, "velocity": 81}, {"time": 699, "pitch": 57, "duration": 6, "velocity": 61}, {"time": 705, "pitch": 60, "duration": 28, "velocity": 60}, {"time": 711, "pitch": 64, "duration": 19, "velocity": 45}, {"time": 717, "pitch": 67, "duration": 12, "velocity": 50}, {"time": 717, "pitch": 72, "duration": 11, "velocity": 58}, {"time": 729, "pitch": 71, "duration": 5, "velocity": 75}, {"time": 735, "pitch": 67, "duration": 6, "velocity": 75}, {"time": 741, "pitch": 50, "duration": 37, "velocity": 69}, {"time": 741, "pitch": 60, "duration": 5, "velocity": 32}, {"time": 741, "pitch": 69, "duration": 6, "velocity": 68}, {"time": 747, "pitch": 57, "duration": 12, "velocity": 67}, {"time": 753, "pitch": 62, "duration": 6, "velocity": 53}, {"time": 753, "pitch": 67, "duration": 5, "velocity": 68}, {"time": 759, "pitch": 67, "duration": 6, "velocity": 48}, {"time": 762, "pitch": 69, "duration": 1, "velocity": 46}, {"time": 765, "pitch": 57, "duration": 11, "velocity": 49}, {"time": 765, "pitch": 62, "duration": 11, "velocity": 40}, {"time": 765, "pitch": 66, "duration": 11, "velocity": 17}, {"time": 765, "pitch": 69, "duration": 11, "velocity": 58}, {"time": 789, "pitch": 55, "duration": 38, "velocity": 68}, {"time": 789, "pitch": 62, "duration": 7, "velocity": 70}, {"time": 789, "pitch": 67, "duration": 6, "velocity": 80}, {"time": 789, "pitch": 69, "duration": 5, "velocity": 69}, {"time": 789, "pitch": 71, "duration": 6, "velocity": 78}, {"time": 801, "pitch": 62, "duration": 7, "velocity": 56}, {"time": 801, "pitch": 67, "duration": 7, "velocity": 68}, {"time": 801, "pitch": 71, "duration": 7, "velocity": 59}, {"time": 813, "pitch": 62, "duration": 7, "velocity": 60}, {"time": 813, "pitch": 67, "duration": 6, "velocity": 71}, {"time": 813, "pitch": 71, "duration": 5, "velocity": 63}, {"time": 825, "pitch": 62, "duration": 6, "velocity": 76}, {"time": 825, "pitch": 67, "duration": 6, "velocity": 76}, {"time": 825, "pitch": 71, "duration": 5, "velocity": 80}, {"time": 831, "pitch": 55, "duration": 6, "velocity": 67}, {"time": 837, "pitch": 48, "duration": 38, "velocity": 78}, {"time": 837, "pitch": 62, "duration": 5, "velocity": 61}, {"time": 837, "pitch": 64, "duration": 5, "velocity": 72}, {"time": 837, "pitch": 67, "duration": 5, "velocity": 70}, {"time": 837, "pitch": 71, "duration": 5, "velocity": 73}, {"time": 843, "pitch": 60, "duration": 22, "velocity": 36}, {"time": 849, "pitch": 62, "duration": 7, "velocity": 48}, {"time": 849, "pitch": 64, "duration": 6, "velocity": 51}, {"time": 849, "pitch": 67, "duration": 7, "velocity": 45}, {"time": 849, "pitch": 71, "duration": 6, "velocity": 71}, {"time": 861, "pitch": 62, "duration": 7, "velocity": 41}, {"time": 861, "pitch": 64, "duration": 6, "velocity": 51}, {"time": 861, "pitch": 67, "duration": 7, "velocity": 37}, {"time": 861, "pitch": 71, "duration": 6, "velocity": 61}, {"time": 870, "pitch": 60, "duration": 5, "velocity": 35}, {"time": 873, "pitch": 62, "duration": 5, "velocity": 70}, {"time": 873, "pitch": 64, "duration": 5, "velocity": 76}, {"time": 873, "pitch": 67, "duration": 5, "velocity": 75}, {"time": 873, "pitch": 71, "duration": 5, "velocity": 72}, {"time": 879, "pitch": 48, "duration": 3, "velocity": 82}, {"time": 885, "pitch": 45, "duration": 18, "velocity": 80}, {"time": 885, "pitch": 60, "duration": 7, "velocity": 78}, {"time": 885, "pitch": 64, "duration": 6, "velocity": 67}, {"time": 885, "pitch": 67, "duration": 8, "velocity": 76}, {"time": 891, "pitch": 57, "duration": 8, "velocity": 27}, {"time": 897, "pitch": 60, "duration": 6, "velocity": 69}, {"time": 897, "pitch": 64, "duration": 6, "velocity": 75}, {"time": 897, "pitch": 67, "duration": 7, "velocity": 68}, {"time": 897, "pitch": 71, "duration": 5, "velocity": 75}, {"time": 903, "pitch": 57, "duration": 6, "velocity": 59}, {"time": 909, "pitch": 50, "duration": 15, "velocity": 77}, {"time": 909, "pitch": 62, "duration": 7, "velocity": 71}, {"time": 909, "pitch": 66, "duration": 6, "velocity": 81}, {"time": 909, "pitch": 69, "duration": 6, "velocity": 76}, {"time": 921, "pitch": 62, "duration": 5, "velocity": 71}, {"time": 921, "pitch": 66, "duration": 5, "velocity": 76}, {"time": 921, "pitch": 69, "duration": 5, "velocity": 69}, {"time": 927, "pitch": 50, "duration": 6, "velocity": 63}, {"time": 933, "pitch": 43, "duration": 41, "velocity": 77}, {"time": 933, "pitch": 62, "duration": 6, "velocity": 59}, {"time": 933, "pitch": 67, "duration": 6, "velocity": 68}, {"time": 933, "pitch": 69, "duration": 5, "velocity": 44}, {"time": 933, "pitch": 71, "duration": 6, "velocity": 77}, {"time": 939, "pitch": 55, "duration": 8, "velocity": 18}, {"time": 945, "pitch": 62, "duration": 6, "velocity": 55}, {"time": 945, "pitch": 67, "duration": 5, "velocity": 69}, {"time": 945, "pitch": 69, "duration": 5, "velocity": 67}, {"time": 945, "pitch": 71, "duration": 5, "velocity": 70}, {"time": 951, "pitch": 55, "duration": 9, "velocity": 51}, {"time": 957, "pitch": 62, "duration": 6, "velocity": 60}, {"time": 957, "pitch": 67, "duration": 6, "velocity": 79}, {"time": 957, "pitch": 71, "duration": 7, "velocity": 71}, {"time": 957, "pitch": 74, "duration": 8, "velocity": 63}, {"time": 963, "pitch": 55, "duration": 8, "velocity": 53}, {"time": 969, "pitch": 62, "duration": 5, "velocity": 60}, {"time": 969, "pitch": 67, "duration": 5, "velocity": 75}, {"time": 969, "pitch": 71, "duration": 5, "velocity": 73}, {"time": 972, "pitch": 47, "duration": 1, "velocity": 57}, {"time": 975, "pitch": 55, "duration": 6, "velocity": 76}, {"time": 981, "pitch": 48, "duration": 19, "velocity": 68}, {"time": 981, "pitch": 64, "duration": 6, "velocity": 62}, {"time": 981, "pitch": 71, "duration": 6, "velocity": 99}, {"time": 984, "pitch": 70, "duration": 2, "velocity": 30}, {"time": 987, "pitch": 55, "duration": 6, "velocity": 69}, {"time": 990, "pitch": 60, "duration": 6, "velocity": 54}, {"time": 990, "pitch": 64, "duration": 8, "velocity": 38}, {"time": 990, "pitch": 67, "duration": 7, "velocity": 72}, {"time": 993, "pitch": 72, "duration": 7, "velocity": 72}, {"time": 999, "pitch": 55, "duration": 5, "velocity": 65}, {"time": 1005, "pitch": 50, "duration": 18, "velocity": 70}, {"time": 1005, "pitch": 62, "duration": 6, "velocity": 62}, {"time": 1005, "pitch": 66, "duration": 6, "velocity": 53}, {"time": 1005, "pitch": 69, "duration": 6, "velocity": 78}, {"time": 1011, "pitch": 57, "duration": 9, "velocity": 51}, {"time": 1017, "pitch": 62, "duration": 4, "velocity": 48}, {"time": 1017, "pitch": 66, "duration": 5, "velocity": 53}, {"time": 1017, "pitch": 74, "duration": 5, "velocity": 78}, {"time": 1023, "pitch": 69, "duration": 5, "velocity": 72}, {"time": 1029, "pitch": 47, "duration": 6, "velocity": 62}, {"time": 1029, "pitch": 62, "duration": 7, "velocity": 60}, {"time": 1029, "pitch": 66, "duration": 7, "velocity": 68}, {"time": 1035, "pitch": 59, "duration": 7, "velocity": 51}, {"time": 1041, "pitch": 62, "duration": 2, "velocity": 68}, {"time": 1041, "pitch": 66, "duration": 3, "velocity": 35}, {"time": 1041, "pitch": 74, "duration": 5, "velocity": 76}, {"time": 1047, "pitch": 69, "duration": 5, "velocity": 78}, {"time": 1053, "pitch": 40, "duration": 5, "velocity": 81}, {"time": 1053, "pitch": 62, "duration": 15, "velocity": 62}, {"time": 1053, "pitch": 67, "duration": 15, "velocity": 84}, {"time": 1059, "pitch": 52, "duration": 1, "velocity": 66}, {"time": 1065, "pitch": 55, "duration": 7, "velocity": 77}, {"time": 1068, "pitch": 59, "duration": 3, "velocity": 77}, {"time": 1071, "pitch": 67, "duration": 3, "velocity": 94}, {"time": 1074, "pitch": 69, "duration": 1, "velocity": 60}, {"time": 1077, "pitch": 45, "duration": 41, "velocity": 77}, {"time": 1077, "pitch": 60, "duration": 7, "velocity": 37}, {"time": 1077, "pitch": 64, "duration": 6, "velocity": 65}, {"time": 1083, "pitch": 57, "duration": 8, "velocity": 45}, {"time": 1089, "pitch": 60, "duration": 6, "velocity": 66}, {"time": 1089, "pitch": 64, "duration": 6, "velocity": 85}, {"time": 1089, "pitch": 67, "duration": 5, "velocity": 81}, {"time": 1095, "pitch": 57, "duration": 5, "velocity": 47}, {"time": 1101, "pitch": 57, "duration": 1, "velocity": 26}, {"time": 1101, "pitch": 60, "duration": 5, "velocity": 79}, {"time": 1101, "pitch": 64, "duration": 8, "velocity": 84}, {"time": 1101, "pitch": 67, "duration": 4, "velocity": 88}, {"time": 1110, "pitch": 57, "duration": 3, "velocity": 54}, {"time": 1113, "pitch": 60, "duration": 4, "velocity": 60}, {"time": 1113, "pitch": 64, "duration": 4, "velocity": 81}, {"time": 1113, "pitch": 67, "duration": 4, "velocity": 74}, {"time": 1116, "pitch": 57, "duration": 2, "velocity": 57}, {"time": 1119, "pitch": 60, "duration": 2, "velocity": 65}, {"time": 1122, "pitch": 64, "duration": 2, "velocity": 68}, {"time": 1125, "pitch": 38, "duration": 19, "velocity": 82}, {"time": 1125, "pitch": 50, "duration": 5, "velocity": 60}, {"time": 1125, "pitch": 60, "duration": 6, "velocity": 81}, {"time": 1125, "pitch": 64, "duration": 8, "velocity": 78}, {"time": 1125, "pitch": 67, "duration": 4, "velocity": 91}, {"time": 1134, "pitch": 50, "duration": 5, "velocity": 54}, {"time": 1137, "pitch": 60, "duration": 6, "velocity": 82}, {"time": 1137, "pitch": 64, "duration": 6, "velocity": 92}, {"time": 1137, "pitch": 67, "duration": 6, "velocity": 84}, {"time": 1143, "pitch": 50, "duration": 1, "velocity": 78}, {"time": 1149, "pitch": 38, "duration": 16, "velocity": 97}, {"time": 1149, "pitch": 50, "duration": 3, "velocity": 76}, {"time": 1149, "pitch": 62, "duration": 4, "velocity": 91}, {"time": 1149, "pitch": 66, "duration": 4, "velocity": 119}, {"time": 1155, "pitch": 50, "duration": 3, "velocity": 78}, {"time": 1155, "pitch": 64, "duration": 4, "velocity": 92}, {"time": 1155, "pitch": 67, "duration": 4, "velocity": 97}, {"time": 1161, "pitch": 50, "duration": 5, "velocity": 96}, {"time": 1161, "pitch": 62, "duration": 1, "velocity": 92}, {"time": 1161, "pitch": 64, "duration": 1, "velocity": 44}, {"time": 1161, "pitch": 69, "duration": 1, "velocity": 86}, {"time": 1167, "pitch": 42, "duration": 1, "velocity": 119}, {"time": 1167, "pitch": 62, "duration": 1, "velocity": 74}, {"time": 1167, "pitch": 66, "duration": 1, "velocity": 105}, {"time": 1167, "pitch": 72, "duration": 2, "velocity": 97}, {"time": 1173, "pitch": 43, "duration": 43, "velocity": 96}, {"time": 1173, "pitch": 62, "duration": 6, "velocity": 92}, {"time": 1173, "pitch": 67, "duration": 6, "velocity": 106}, {"time": 1173, "pitch": 71, "duration": 6, "velocity": 92}, {"time": 1179, "pitch": 55, "duration": 9, "velocity": 50}, {"time": 1185, "pitch": 62, "duration": 7, "velocity": 79}, {"time": 1185, "pitch": 67, "duration": 6, "velocity": 96}, {"time": 1185, "pitch": 71, "duration": 6, "velocity": 94}, {"time": 1191, "pitch": 55, "duration": 25, "velocity": 31}, {"time": 1197, "pitch": 69, "duration": 9, "velocity": 33}, {"time": 1221, "pitch": 47, "duration": 33, "velocity": 70}, {"time": 1221, "pitch": 62, "duration": 7, "velocity": 62}, {"time": 1221, "pitch": 66, "duration": 6, "velocity": 47}, {"time": 1221, "pitch": 69, "duration": 6, "velocity": 68}, {"time": 1227, "pitch": 59, "duration": 14, "velocity": 60}, {"time": 1233, "pitch": 62, "duration": 12, "velocity": 50}, {"time": 1239, "pitch": 74, "duration": 5, "velocity": 79}, {"time": 1245, "pitch": 59, "duration": 6, "velocity": 72}, {"time": 1251, "pitch": 62, "duration": 3, "velocity": 84}, {"time": 1251, "pitch": 66, "duration": 4, "velocity": 127}, {"time": 1257, "pitch": 47, "duration": 7, "velocity": 92}, {"time": 1257, "pitch": 59, "duration": 1, "velocity": 68}, {"time": 1257, "pitch": 62, "duration": 1, "velocity": 85}, {"time": 1257, "pitch": 64, "duration": 1, "velocity": 117}, {"time": 1257, "pitch": 67, "duration": 1, "velocity": 127}, {"time": 1263, "pitch": 59, "duration": 1, "velocity": 122}, {"time": 1263, "pitch": 62, "duration": 1, "velocity": 91}, {"time": 1263, "pitch": 67, "duration": 1, "velocity": 96}, {"time": 1263, "pitch": 71, "duration": 1, "velocity": 111}, {"time": 1269, "pitch": 36, "duration": 1, "velocity": 117}, {"time": 1269, "pitch": 64, "duration": 13, "velocity": 99}, {"time": 1269, "pitch": 67, "duration": 13, "velocity": 107}, {"time": 1269, "pitch": 72, "duration": 12, "velocity": 106}, {"time": 1275, "pitch": 48, "duration": 14, "velocity": 60}, {"time": 1278, "pitch": 55, "duration": 11, "velocity": 92}, {"time": 1281, "pitch": 60, "duration": 4, "velocity": 119}, {"time": 1284, "pitch": 64, "duration": 4, "velocity": 107}, {"time": 1284, "pitch": 72, "duration": 3, "velocity": 107}, {"time": 1287, "pitch": 60, "duration": 2, "velocity": 92}, {"time": 1287, "pitch": 67, "duration": 2, "velocity": 97}, {"time": 1290, "pitch": 69, "duration": 2, "velocity": 96}, {"time": 1293, "pitch": 50, "duration": 20, "velocity": 92}, {"time": 1293, "pitch": 62, "duration": 3, "velocity": 88}, {"time": 1293, "pitch": 66, "duration": 6, "velocity": 105}, {"time": 1293, "pitch": 69, "duration": 6, "velocity": 88}, {"time": 1296, "pitch": 57, "duration": 11, "velocity": 72}, {"time": 1299, "pitch": 62, "duration": 4, "velocity": 85}, {"time": 1302, "pitch": 66, "duration": 4, "velocity": 102}, {"time": 1302, "pitch": 72, "duration": 4, "velocity": 101}, {"time": 1305, "pitch": 62, "duration": 4, "velocity": 72}, {"time": 1308, "pitch": 67, "duration": 4, "velocity": 103}, {"time": 1311, "pitch": 57, "duration": 1, "velocity": 96}, {"time": 1311, "pitch": 69, "duration": 4, "velocity": 78}, {"time": 1314, "pitch": 71, "duration": 2, "velocity": 94}, {"time": 1317, "pitch": 43, "duration": 4, "velocity": 91}, {"time": 1317, "pitch": 62, "duration": 12, "velocity": 94}, {"time": 1317, "pitch": 67, "duration": 12, "velocity": 99}, {"time": 1317, "pitch": 71, "duration": 12, "velocity": 97}, {"time": 1320, "pitch": 50, "duration": 3, "velocity": 79}, {"time": 1323, "pitch": 55, "duration": 3, "velocity": 78}, {"time": 1326, "pitch": 57, "duration": 8, "velocity": 60}, {"time": 1329, "pitch": 59, "duration": 5, "velocity": 78}, {"time": 1332, "pitch": 62, "duration": 2, "velocity": 77}, {"time": 1335, "pitch": 67, "duration": 2, "velocity": 91}, {"time": 1338, "pitch": 71, "duration": 1, "velocity": 86}, {"time": 1341, "pitch": 43, "duration": 11, "velocity": 91}, {"time": 1341, "pitch": 62, "duration": 7, "velocity": 72}, {"time": 1341, "pitch": 65, "duration": 7, "velocity": 88}, {"time": 1341, "pitch": 69, "duration": 7, "velocity": 94}, {"time": 1344, "pitch": 50, "duration": 10, "velocity": 78}, {"time": 1347, "pitch": 55, "duration": 5, "velocity": 107}, {"time": 1350, "pitch": 59, "duration": 2, "velocity": 72}, {"time": 1353, "pitch": 43, "duration": 5, "velocity": 99}, {"time": 1353, "pitch": 59, "duration": 3, "velocity": 85}, {"time": 1353, "pitch": 62, "duration": 4, "velocity": 96}, {"time": 1353, "pitch": 65, "duration": 4, "velocity": 97}, {"time": 1356, "pitch": 55, "duration": 2, "velocity": 66}, {"time": 1359, "pitch": 59, "duration": 1, "velocity": 79}, {"time": 1359, "pitch": 62, "duration": 1, "velocity": 82}, {"time": 1359, "pitch": 67, "duration": 1, "velocity": 77}, {"time": 1362, "pitch": 47, "duration": 1, "velocity": 90}, {"time": 1365, "pitch": 48, "duration": 17, "velocity": 92}, {"time": 1365, "pitch": 64, "duration": 6, "velocity": 60}, {"time": 1365, "pitch": 67, "duration": 6, "velocity": 99}, {"time": 1365, "pitch": 71, "duration": 5, "velocity": 106}, {"time": 1371, "pitch": 55, "duration": 7, "velocity": 60}, {"time": 1377, "pitch": 60, "duration": 3, "velocity": 90}, {"time": 1377, "pitch": 64, "duration": 3, "velocity": 90}, {"time": 1377, "pitch": 67, "duration": 3, "velocity": 103}, {"time": 1377, "pitch": 71, "duration": 4, "velocity": 101}, {"time": 1380, "pitch": 55, "duration": 6, "velocity": 101}, {"time": 1383, "pitch": 64, "duration": 3, "velocity": 86}, {"time": 1386, "pitch": 67, "duration": 2, "velocity": 92}, {"time": 1389, "pitch": 50, "duration": 19, "velocity": 90}, {"time": 1389, "pitch": 62, "duration": 7, "velocity": 79}, {"time": 1389, "pitch": 66, "duration": 7, "velocity": 93}, {"time": 1389, "pitch": 69, "duration": 6, "velocity": 77}, {"time": 1395, "pitch": 57, "duration": 12, "velocity": 77}, {"time": 1398, "pitch": 62, "duration": 4, "velocity": 84}, {"time": 1401, "pitch": 66, "duration": 4, "velocity": 105}, {"time": 1404, "pitch": 67, "duration": 3, "velocity": 86}, {"time": 1407, "pitch": 69, "duration": 2, "velocity": 84}, {"time": 1410, "pitch": 62, "duration": 2, "velocity": 47}, {"time": 1413, "pitch": 47, "duration": 19, "velocity": 79}, {"time": 1413, "pitch": 62, "duration": 4, "velocity": 78}, {"time": 1413, "pitch": 66, "duration": 4, "velocity": 78}, {"time": 1413, "pitch": 74, "duration": 4, "velocity": 96}, {"time": 1416, "pitch": 59, "duration": 7, "velocity": 60}, {"time": 1419, "pitch": 62, "duration": 1, "velocity": 63}, {"time": 1422, "pitch": 62, "duration": 4, "velocity": 91}, {"time": 1422, "pitch": 69, "duration": 4, "velocity": 82}, {"time": 1425, "pitch": 59, "duration": 3, "velocity": 53}, {"time": 1428, "pitch": 62, "duration": 4, "velocity": 77}, {"time": 1431, "pitch": 59, "duration": 1, "velocity": 62}, {"time": 1437, "pitch": 40, "duration": 18, "velocity": 99}, {"time": 1437, "pitch": 56, "duration": 3, "velocity": 85}, {"time": 1437, "pitch": 59, "duration": 3, "velocity": 101}, {"time": 1437, "pitch": 64, "duration": 3, "velocity": 97}, {"time": 1443, "pitch": 52, "duration": 3, "velocity": 47}, {"time": 1446, "pitch": 64, "duration": 4, "velocity": 91}, {"time": 1446, "pitch": 68, "duration": 4, "velocity": 85}, {"time": 1449, "pitch": 52, "duration": 3, "velocity": 54}, {"time": 1452, "pitch": 64, "duration": 4, "velocity": 84}, {"time": 1452, "pitch": 69, "duration": 5, "velocity": 91}, {"time": 1455, "pitch": 52, "duration": 2, "velocity": 72}, {"time": 1458, "pitch": 64, "duration": 1, "velocity": 68}, {"time": 1458, "pitch": 71, "duration": 2, "velocity": 90}, {"time": 1461, "pitch": 45, "duration": 6, "velocity": 69}, {"time": 1461, "pitch": 64, "duration": 13, "velocity": 96}, {"time": 1461, "pitch": 67, "duration": 13, "velocity": 107}, {"time": 1461, "pitch": 72, "duration": 13, "velocity": 77}, {"time": 1464, "pitch": 52, "duration": 3, "velocity": 72}, {"time": 1467, "pitch": 57, "duration": 4, "velocity": 60}, {"time": 1470, "pitch": 59, "duration": 7, "velocity": 63}, {"time": 1473, "pitch": 60, "duration": 4, "velocity": 74}, {"time": 1476, "pitch": 64, "duration": 2, "velocity": 90}, {"time": 1479, "pitch": 67, "duration": 2, "velocity": 97}, {"time": 1482, "pitch": 71, "duration": 2, "velocity": 86}, {"time": 1485, "pitch": 45, "duration": 17, "velocity": 84}, {"time": 1485, "pitch": 64, "duration": 10, "velocity": 84}, {"time": 1485, "pitch": 67, "duration": 5, "velocity": 77}, {"time": 1485, "pitch": 72, "duration": 8, "velocity": 84}, {"time": 1491, "pitch": 52, "duration": 12, "velocity": 90}, {"time": 1494, "pitch": 57, "duration": 3, "velocity": 60}, {"time": 1497, "pitch": 64, "duration": 3, "velocity": 76}, {"time": 1497, "pitch": 67, "duration": 3, "velocity": 85}, {"time": 1497, "pitch": 72, "duration": 4, "velocity": 103}, {"time": 1500, "pitch": 57, "duration": 3, "velocity": 56}, {"time": 1503, "pitch": 62, "duration": 2, "velocity": 91}, {"time": 1503, "pitch": 71, "duration": 2, "velocity": 85}, {"time": 1506, "pitch": 47, "duration": 1, "velocity": 81}, {"time": 1509, "pitch": 48, "duration": 19, "velocity": 76}, {"time": 1509, "pitch": 60, "duration": 4, "velocity": 53}, {"time": 1509, "pitch": 64, "duration": 9, "velocity": 69}, {"time": 1509, "pitch": 67, "duration": 8, "velocity": 84}, {"time": 1515, "pitch": 55, "duration": 13, "velocity": 84}, {"time": 1518, "pitch": 60, "duration": 9, "velocity": 84}, {"time": 1521, "pitch": 62, "duration": 2, "velocity": 66}, {"time": 1524, "pitch": 64, "duration": 2, "velocity": 85}, {"time": 1527, "pitch": 67, "duration": 2, "velocity": 91}, {"time": 1530, "pitch": 69, "duration": 2, "velocity": 90}, {"time": 1533, "pitch": 50, "duration": 6, "velocity": 85}, {"time": 1533, "pitch": 62, "duration": 2, "velocity": 76}, {"time": 1533, "pitch": 66, "duration": 5, "velocity": 109}, {"time": 1536, "pitch": 57, "duration": 2, "velocity": 81}, {"time": 1539, "pitch": 64, "duration": 1, "velocity": 94}, {"time": 1539, "pitch": 67, "duration": 1, "velocity": 81}, {"time": 1539, "pitch": 68, "duration": 1, "velocity": 54}, {"time": 1545, "pitch": 38, "duration": 9, "velocity": 97}, {"time": 1545, "pitch": 62, "duration": 1, "velocity": 81}, {"time": 1545, "pitch": 66, "duration": 1, "velocity": 83}, {"time": 1545, "pitch": 69, "duration": 1, "velocity": 85}, {"time": 1548, "pitch": 50, "duration": 2, "velocity": 77}, {"time": 1551, "pitch": 50, "duration": 2, "velocity": 41}, {"time": 1551, "pitch": 62, "duration": 4, "velocity": 85}, {"time": 1551, "pitch": 66, "duration": 2, "velocity": 105}, {"time": 1551, "pitch": 72, "duration": 3, "velocity": 111}, {"time": 1554, "pitch": 42, "duration": 1, "velocity": 96}, {"time": 1557, "pitch": 43, "duration": 8, "velocity": 96}, {"time": 1557, "pitch": 62, "duration": 5, "velocity": 90}, {"time": 1557, "pitch": 67, "duration": 5, "velocity": 101}, {"time": 1557, "pitch": 71, "duration": 5, "velocity": 92}, {"time": 1563, "pitch": 50, "duration": 3, "velocity": 86}, {"time": 1566, "pitch": 55, "duration": 4, "velocity": 79}, {"time": 1569, "pitch": 57, "duration": 5, "velocity": 62}, {"time": 1572, "pitch": 59, "duration": 2, "velocity": 84}, {"time": 1575, "pitch": 62, "duration": 2, "velocity": 91}, {"time": 1578, "pitch": 67, "duration": 2, "velocity": 88}, {"time": 1581, "pitch": 43, "duration": 18, "velocity": 91}, {"time": 1581, "pitch": 62, "duration": 3, "velocity": 81}, {"time": 1581, "pitch": 67, "duration": 1, "velocity": 45}, {"time": 1581, "pitch": 69, "duration": 3, "velocity": 90}, {"time": 1584, "pitch": 50, "duration": 16, "velocity": 76}, {"time": 1584, "pitch": 62, "duration": 1, "velocity": 86}, {"time": 1584, "pitch": 71, "duration": 1, "velocity": 97}, {"time": 1587, "pitch": 55, "duration": 3, "velocity": 72}, {"time": 1590, "pitch": 62, "duration": 4, "velocity": 99}, {"time": 1590, "pitch": 69, "duration": 2, "velocity": 99}, {"time": 1593, "pitch": 55, "duration": 3, "velocity": 63}, {"time": 1596, "pitch": 62, "duration": 4, "velocity": 92}, {"time": 1596, "pitch": 67, "duration": 5, "velocity": 107}, {"time": 1599, "pitch": 55, "duration": 2, "velocity": 84}, {"time": 1602, "pitch": 66, "duration": 2, "velocity": 88}, {"time": 1605, "pitch": 47, "duration": 22, "velocity": 90}, {"time": 1605, "pitch": 62, "duration": 4, "velocity": 91}, {"time": 1605, "pitch": 67, "duration": 4, "velocity": 77}, {"time": 1608, "pitch": 59, "duration": 6, "velocity": 70}, {"time": 1611, "pitch": 62, "duration": 4, "velocity": 66}, {"time": 1614, "pitch": 66, "duration": 2, "velocity": 127}, {"time": 1617, "pitch": 59, "duration": 3, "velocity": 41}, {"time": 1620, "pitch": 62, "duration": 1, "velocity": 78}, {"time": 1620, "pitch": 66, "duration": 1, "velocity": 29}, {"time": 1620, "pitch": 74, "duration": 1, "velocity": 107}, {"time": 1623, "pitch": 59, "duration": 4, "velocity": 47}, {"time": 1626, "pitch": 66, "duration": 1, "velocity": 93}, {"time": 1626, "pitch": 78, "duration": 1, "velocity": 86}, {"time": 1629, "pitch": 47, "duration": 18, "velocity": 77}, {"time": 1629, "pitch": 66, "duration": 1, "velocity": 90}, {"time": 1629, "pitch": 78, "duration": 1, "velocity": 81}, {"time": 1632, "pitch": 59, "duration": 1, "velocity": 57}, {"time": 1632, "pitch": 66, "duration": 1, "velocity": 35}, {"time": 1632, "pitch": 78, "duration": 1, "velocity": 23}, {"time": 1635, "pitch": 59, "duration": 2, "velocity": 59}, {"time": 1635, "pitch": 67, "duration": 1, "velocity": 92}, {"time": 1635, "pitch": 79, "duration": 1, "velocity": 111}, {"time": 1638, "pitch": 66, "duration": 1, "velocity": 86}, {"time": 1638, "pitch": 78, "duration": 1, "velocity": 90}, {"time": 1641, "pitch": 59, "duration": 3, "velocity": 56}, {"time": 1644, "pitch": 62, "duration": 2, "velocity": 103}, {"time": 1644, "pitch": 74, "duration": 1, "velocity": 111}, {"time": 1647, "pitch": 54, "duration": 1, "velocity": 92}, {"time": 1650, "pitch": 60, "duration": 2, "velocity": 53}, {"time": 1650, "pitch": 62, "duration": 2, "velocity": 82}, {"time": 1653, "pitch": 36, "duration": 1, "velocity": 96}, {"time": 1653, "pitch": 55, "duration": 3, "velocity": 91}, {"time": 1653, "pitch": 60, "duration": 3, "velocity": 77}, {"time": 1653, "pitch": 64, "duration": 4, "velocity": 68}, {"time": 1659, "pitch": 48, "duration": 14, "velocity": 56}, {"time": 1662, "pitch": 55, "duration": 11, "velocity": 88}, {"time": 1665, "pitch": 60, "duration": 4, "velocity": 107}, {"time": 1668, "pitch": 64, "duration": 2, "velocity": 92}, {"time": 1668, "pitch": 72, "duration": 1, "velocity": 70}, {"time": 1671, "pitch": 64, "duration": 1, "velocity": 39}, {"time": 1671, "pitch": 67, "duration": 2, "velocity": 106}, {"time": 1674, "pitch": 69, "duration": 2, "velocity": 91}, {"time": 1677, "pitch": 50, "duration": 14, "velocity": 96}, {"time": 1677, "pitch": 62, "duration": 4, "velocity": 92}, {"time": 1677, "pitch": 66, "duration": 4, "velocity": 115}, {"time": 1677, "pitch": 69, "duration": 4, "velocity": 96}, {"time": 1680, "pitch": 57, "duration": 10, "velocity": 57}, {"time": 1683, "pitch": 62, "duration": 3, "velocity": 51}, {"time": 1686, "pitch": 66, "duration": 4, "velocity": 112}, {"time": 1686, "pitch": 72, "duration": 4, "velocity": 101}, {"time": 1689, "pitch": 62, "duration": 1, "velocity": 76}, {"time": 1692, "pitch": 66, "duration": 2, "velocity": 109}, {"time": 1695, "pitch": 42, "duration": 2, "velocity": 92}, {"time": 1695, "pitch": 69, "duration": 3, "velocity": 79}, {"time": 1698, "pitch": 72, "duration": 3, "velocity": 91}, {"time": 1701, "pitch": 43, "duration": 5, "velocity": 90}, {"time": 1701, "pitch": 62, "duration": 12, "velocity": 82}, {"time": 1701, "pitch": 67, "duration": 11, "velocity": 92}, {"time": 1701, "pitch": 71, "duration": 11, "velocity": 94}, {"time": 1704, "pitch": 50, "duration": 3, "velocity": 72}, {"time": 1707, "pitch": 55, "duration": 3, "velocity": 70}, {"time": 1710, "pitch": 57, "duration": 7, "velocity": 60}, {"time": 1713, "pitch": 59, "duration": 3, "velocity": 81}, {"time": 1716, "pitch": 62, "duration": 2, "velocity": 103}, {"time": 1719, "pitch": 67, "duration": 2, "velocity": 101}, {"time": 1722, "pitch": 69, "duration": 2, "velocity": 96}, {"time": 1725, "pitch": 43, "duration": 10, "velocity": 90}, {"time": 1725, "pitch": 62, "duration": 3, "velocity": 96}, {"time": 1725, "pitch": 71, "duration": 3, "velocity": 96}, {"time": 1728, "pitch": 55, "duration": 3, "velocity": 68}, {"time": 1731, "pitch": 62, "duration": 1, "velocity": 94}, {"time": 1731, "pitch": 65, "duration": 1, "velocity": 111}, {"time": 1734, "pitch": 55, "duration": 2, "velocity": 68}, {"time": 1737, "pitch": 43, "duration": 5, "velocity": 97}, {"time": 1737, "pitch": 59, "duration": 3, "velocity": 91}, {"time": 1737, "pitch": 62, "duration": 3, "velocity": 101}, {"time": 1737, "pitch": 65, "duration": 4, "velocity": 101}, {"time": 1740, "pitch": 55, "duration": 2, "velocity": 90}, {"time": 1743, "pitch": 47, "duration": 1, "velocity": 92}, {"time": 1743, "pitch": 62, "duration": 1, "velocity": 91}, {"time": 1743, "pitch": 67, "duration": 1, "velocity": 92}, {"time": 1749, "pitch": 48, "duration": 19, "velocity": 90}, {"time": 1749, "pitch": 64, "duration": 6, "velocity": 65}, {"time": 1749, "pitch": 67, "duration": 6, "velocity": 101}, {"time": 1749, "pitch": 72, "duration": 6, "velocity": 81}, {"time": 1752, "pitch": 55, "duration": 17, "velocity": 88}, {"time": 1755, "pitch": 60, "duration": 5, "velocity": 92}, {"time": 1758, "pitch": 64, "duration": 1, "velocity": 69}, {"time": 1761, "pitch": 64, "duration": 4, "velocity": 82}, {"time": 1761, "pitch": 67, "duration": 4, "velocity": 86}, {"time": 1761, "pitch": 72, "duration": 3, "velocity": 103}, {"time": 1764, "pitch": 60, "duration": 3, "velocity": 66}, {"time": 1767, "pitch": 64, "duration": 4, "velocity": 72}, {"time": 1770, "pitch": 60, "duration": 2, "velocity": 63}, {"time": 1770, "pitch": 69, "duration": 2, "velocity": 84}, {"time": 1773, "pitch": 50, "duration": 19, "velocity": 85}, {"time": 1773, "pitch": 62, "duration": 7, "velocity": 84}, {"time": 1773, "pitch": 66, "duration": 7, "velocity": 112}, {"time": 1773, "pitch": 69, "duration": 8, "velocity": 77}, {"time": 1779, "pitch": 57, "duration": 7, "velocity": 57}, {"time": 1785, "pitch": 62, "duration": 4, "velocity": 63}, {"time": 1785, "pitch": 66, "duration": 6, "velocity": 74}, {"time": 1785, "pitch": 69, "duration": 5, "velocity": 60}, {"time": 1785, "pitch": 72, "duration": 6, "velocity": 101}, {"time": 1791, "pitch": 57, "duration": 1, "velocity": 88}, {"time": 1797, "pitch": 47, "duration": 19, "velocity": 86}, {"time": 1797, "pitch": 62, "duration": 7, "velocity": 94}, {"time": 1797, "pitch": 66, "duration": 6, "velocity": 93}, {"time": 1797, "pitch": 69, "duration": 6, "velocity": 84}, {"time": 1803, "pitch": 59, "duration": 4, "velocity": 63}, {"time": 1806, "pitch": 62, "duration": 1, "velocity": 50}, {"time": 1809, "pitch": 59, "duration": 3, "velocity": 60}, {"time": 1809, "pitch": 62, "duration": 6, "velocity": 88}, {"time": 1809, "pitch": 69, "duration": 6, "velocity": 91}, {"time": 1815, "pitch": 59, "duration": 1, "velocity": 72}, {"time": 1821, "pitch": 40, "duration": 18, "velocity": 99}, {"time": 1821, "pitch": 52, "duration": 5, "velocity": 82}, {"time": 1821, "pitch": 62, "duration": 5, "velocity": 78}, {"time": 1821, "pitch": 67, "duration": 5, "velocity": 86}, {"time": 1821, "pitch": 71, "duration": 5, "velocity": 79}, {"time": 1827, "pitch": 52, "duration": 3, "velocity": 17}, {"time": 1830, "pitch": 62, "duration": 4, "velocity": 70}, {"time": 1830, "pitch": 69, "duration": 4, "velocity": 76}, {"time": 1833, "pitch": 52, "duration": 3, "velocity": 47}, {"time": 1836, "pitch": 62, "duration": 4, "velocity": 84}, {"time": 1836, "pitch": 67, "duration": 3, "velocity": 103}, {"time": 1836, "pitch": 71, "duration": 3, "velocity": 81}, {"time": 1839, "pitch": 52, "duration": 1, "velocity": 86}, {"time": 1845, "pitch": 45, "duration": 20, "velocity": 70}, {"time": 1845, "pitch": 57, "duration": 13, "velocity": 63}, {"time": 1845, "pitch": 60, "duration": 10, "velocity": 81}, {"time": 1845, "pitch": 64, "duration": 10, "velocity": 91}, {"time": 1845, "pitch": 69, "duration": 10, "velocity": 90}, {"time": 1857, "pitch": 60, "duration": 7, "velocity": 76}, {"time": 1857, "pitch": 64, "duration": 7, "velocity": 92}, {"time": 1857, "pitch": 69, "duration": 8, "velocity": 90}, {"time": 1863, "pitch": 57, "duration": 1, "velocity": 62}, {"time": 1869, "pitch": 38, "duration": 14, "velocity": 66}, {"time": 1869, "pitch": 50, "duration": 16, "velocity": 54}, {"time": 1869, "pitch": 62, "duration": 8, "velocity": 69}, {"time": 1869, "pitch": 66, "duration": 8, "velocity": 51}, {"time": 1869, "pitch": 69, "duration": 8, "velocity": 45}, {"time": 1891, "pitch": 74, "duration": 2, "velocity": 39}, {"time": 1892, "pitch": 76, "duration": 2, "velocity": 53}, {"time": 1893, "pitch": 48, "duration": 2, "velocity": 76}, {"time": 1893, "pitch": 83, "duration": 4, "velocity": 97}, {"time": 1896, "pitch": 74, "duration": 12, "velocity": 50}, {"time": 1899, "pitch": 76, "duration": 9, "velocity": 86}, {"time": 1902, "pitch": 83, "duration": 19, "velocity": 90}, {"time": 1905, "pitch": 60, "duration": 27, "velocity": 30}, {"time": 1905, "pitch": 67, "duration": 26, "velocity": 63}, {"time": 1905, "pitch": 71, "duration": 25, "velocity": 69}, {"time": 1939, "pitch": 74, "duration": 2, "velocity": 38}, {"time": 1940, "pitch": 78, "duration": 2, "velocity": 53}, {"time": 1941, "pitch": 81, "duration": 3, "velocity": 74}, {"time": 1947, "pitch": 74, "duration": 5, "velocity": 53}, {"time": 1950, "pitch": 78, "duration": 2, "velocity": 57}, {"time": 1950, "pitch": 81, "duration": 30, "velocity": 91}, {"time": 1989, "pitch": 48, "duration": 39, "velocity": 76}, {"time": 1989, "pitch": 71, "duration": 3, "velocity": 96}, {"time": 1992, "pitch": 67, "duration": 2, "velocity": 79}, {"time": 1995, "pitch": 64, "duration": 7, "velocity": 60}, {"time": 1998, "pitch": 60, "duration": 4, "velocity": 42}, {"time": 2001, "pitch": 59, "duration": 25, "velocity": 70}, {"time": 2004, "pitch": 60, "duration": 4, "velocity": 56}, {"time": 2007, "pitch": 67, "duration": 18, "velocity": 74}, {"time": 2010, "pitch": 71, "duration": 11, "velocity": 72}, {"time": 2013, "pitch": 72, "duration": 13, "velocity": 86}, {"time": 2034, "pitch": 62, "duration": 37, "velocity": 41}, {"time": 2035, "pitch": 66, "duration": 36, "velocity": 38}, {"time": 2036, "pitch": 69, "duration": 35, "velocity": 60}, {"time": 2037, "pitch": 74, "duration": 35, "velocity": 60}, {"time": 2037, "pitch": 50, "duration": 36, "velocity": 60}, {"time": 2085, "pitch": 55, "duration": 28, "velocity": 74}, {"time": 2085, "pitch": 62, "duration": 7, "velocity": 62}, {"time": 2085, "pitch": 67, "duration": 7, "velocity": 84}, {"time": 2085, "pitch": 71, "duration": 6, "velocity": 70}, {"time": 2097, "pitch": 62, "duration": 7, "velocity": 62}, {"time": 2097, "pitch": 67, "duration": 7, "velocity": 77}, {"time": 2097, "pitch": 71, "duration": 6, "velocity": 72}, {"time": 2109, "pitch": 62, "duration": 8, "velocity": 45}, {"time": 2109, "pitch": 67, "duration": 8, "velocity": 54}, {"time": 2109, "pitch": 71, "duration": 8, "velocity": 65}, {"time": 2118, "pitch": 55, "duration": 6, "velocity": 72}, {"time": 2121, "pitch": 62, "duration": 7, "velocity": 66}, {"time": 2121, "pitch": 67, "duration": 7, "velocity": 91}, {"time": 2121, "pitch": 71, "duration": 6, "velocity": 84}, {"time": 2127, "pitch": 55, "duration": 6, "velocity": 79}, {"time": 2133, "pitch": 48, "duration": 44, "velocity": 51}, {"time": 2133, "pitch": 60, "duration": 26, "velocity": 54}, {"time": 2133, "pitch": 62, "duration": 7, "velocity": 50}, {"time": 2133, "pitch": 64, "duration": 6, "velocity": 68}, {"time": 2133, "pitch": 67, "duration": 7, "velocity": 82}, {"time": 2133, "pitch": 71, "duration": 7, "velocity": 54}, {"time": 2145, "pitch": 62, "duration": 7, "velocity": 42}, {"time": 2145, "pitch": 64, "duration": 6, "velocity": 69}, {"time": 2145, "pitch": 67, "duration": 7, "velocity": 60}, {"time": 2145, "pitch": 71, "duration": 6, "velocity": 54}, {"time": 2157, "pitch": 62, "duration": 4, "velocity": 50}, {"time": 2157, "pitch": 64, "duration": 4, "velocity": 68}, {"time": 2157, "pitch": 67, "duration": 4, "velocity": 72}, {"time": 2157, "pitch": 71, "duration": 7, "velocity": 65}, {"time": 2160, "pitch": 60, "duration": 10, "velocity": 47}, {"time": 2163, "pitch": 62, "duration": 5, "velocity": 62}, {"time": 2166, "pitch": 64, "duration": 2, "velocity": 65}, {"time": 2169, "pitch": 62, "duration": 1, "velocity": 31}, {"time": 2169, "pitch": 67, "duration": 3, "velocity": 96}, {"time": 2172, "pitch": 69, "duration": 4, "velocity": 68}, {"time": 2175, "pitch": 71, "duration": 2, "velocity": 94}, {"time": 2178, "pitch": 72, "duration": 1, "velocity": 74}, {"time": 2181, "pitch": 45, "duration": 18, "velocity": 70}, {"time": 2181, "pitch": 57, "duration": 15, "velocity": 45}, {"time": 2181, "pitch": 60, "duration": 7, "velocity": 62}, {"time": 2181, "pitch": 64, "duration": 6, "velocity": 78}, {"time": 2181, "pitch": 67, "duration": 7, "velocity": 82}, {"time": 2184, "pitch": 72, "duration": 3, "velocity": 2}, {"time": 2193, "pitch": 60, "duration": 6, "velocity": 60}, {"time": 2193, "pitch": 64, "duration": 6, "velocity": 82}, {"time": 2193, "pitch": 67, "duration": 6, "velocity": 78}, {"time": 2199, "pitch": 57, "duration": 5, "velocity": 54}, {"time": 2205, "pitch": 50, "duration": 19, "velocity": 79}, {"time": 2205, "pitch": 60, "duration": 5, "velocity": 66}, {"time": 2205, "pitch": 64, "duration": 5, "velocity": 82}, {"time": 2205, "pitch": 67, "duration": 6, "velocity": 85}, {"time": 2211, "pitch": 57, "duration": 8, "velocity": 60}, {"time": 2217, "pitch": 62, "duration": 5, "velocity": 54}, {"time": 2217, "pitch": 64, "duration": 7, "velocity": 66}, {"time": 2217, "pitch": 66, "duration": 5, "velocity": 74}, {"time": 2223, "pitch": 57, "duration": 1, "velocity": 74}, {"time": 2223, "pitch": 67, "duration": 2, "velocity": 86}, {"time": 2229, "pitch": 43, "duration": 5, "velocity": 77}, {"time": 2229, "pitch": 62, "duration": 8, "velocity": 63}, {"time": 2229, "pitch": 67, "duration": 8, "velocity": 77}, {"time": 2229, "pitch": 71, "duration": 1, "velocity": 53}, {"time": 2229, "pitch": 72, "duration": 8, "velocity": 60}, {"time": 2235, "pitch": 55, "duration": 7, "velocity": 60}, {"time": 2241, "pitch": 57, "duration": 7, "velocity": 60}, {"time": 2241, "pitch": 62, "duration": 6, "velocity": 68}, {"time": 2241, "pitch": 67, "duration": 3, "velocity": 62}, {"time": 2241, "pitch": 71, "duration": 6, "velocity": 85}, {"time": 2247, "pitch": 59, "duration": 6, "velocity": 90}, {"time": 2253, "pitch": 55, "duration": 19, "velocity": 66}, {"time": 2253, "pitch": 71, "duration": 6, "velocity": 88}, {"time": 2259, "pitch": 62, "duration": 6, "velocity": 65}, {"time": 2259, "pitch": 72, "duration": 1, "velocity": 91}, {"time": 2265, "pitch": 67, "duration": 4, "velocity": 56}, {"time": 2265, "pitch": 71, "duration": 4, "velocity": 69}, {"time": 2265, "pitch": 74, "duration": 4, "velocity": 85}, {"time": 2271, "pitch": 62, "duration": 1, "velocity": 91}, {"time": 2271, "pitch": 79, "duration": 2, "velocity": 63}, {"time": 2274, "pitch": 67, "duration": 5, "velocity": 56}, {"time": 2277, "pitch": 48, "duration": 20, "velocity": 68}, {"time": 2277, "pitch": 72, "duration": 4, "velocity": 57}, {"time": 2277, "pitch": 76, "duration": 3, "velocity": 88}, {"time": 2283, "pitch": 55, "duration": 14, "velocity": 85}, {"time": 2286, "pitch": 60, "duration": 10, "velocity": 60}, {"time": 2289, "pitch": 62, "duration": 4, "velocity": 66}, {"time": 2292, "pitch": 64, "duration": 3, "velocity": 72}, {"time": 2295, "pitch": 67, "duration": 3, "velocity": 84}, {"time": 2298, "pitch": 69, "duration": 3, "velocity": 66}, {"time": 2301, "pitch": 50, "duration": 19, "velocity": 79}, {"time": 2301, "pitch": 62, "duration": 3, "velocity": 63}, {"time": 2301, "pitch": 66, "duration": 6, "velocity": 81}, {"time": 2307, "pitch": 57, "duration": 7, "velocity": 53}, {"time": 2307, "pitch": 64, "duration": 7, "velocity": 56}, {"time": 2307, "pitch": 67, "duration": 5, "velocity": 86}, {"time": 2313, "pitch": 62, "duration": 4, "velocity": 54}, {"time": 2313, "pitch": 66, "duration": 5, "velocity": 48}, {"time": 2313, "pitch": 69, "duration": 6, "velocity": 76}, {"time": 2319, "pitch": 57, "duration": 1, "velocity": 69}, {"time": 2322, "pitch": 66, "duration": 8, "velocity": 85}, {"time": 2325, "pitch": 47, "duration": 18, "velocity": 86}, {"time": 2325, "pitch": 62, "duration": 5, "velocity": 72}, {"time": 2331, "pitch": 59, "duration": 7, "velocity": 50}, {"time": 2337, "pitch": 62, "duration": 6, "velocity": 63}, {"time": 2337, "pitch": 66, "duration": 5, "velocity": 29}, {"time": 2337, "pitch": 74, "duration": 6, "velocity": 74}, {"time": 2343, "pitch": 59, "duration": 1, "velocity": 50}, {"time": 2349, "pitch": 40, "duration": 2, "velocity": 97}, {"time": 2349, "pitch": 62, "duration": 8, "velocity": 68}, {"time": 2349, "pitch": 67, "duration": 6, "velocity": 91}, {"time": 2355, "pitch": 52, "duration": 13, "velocity": 81}, {"time": 2355, "pitch": 69, "duration": 2, "velocity": 72}, {"time": 2358, "pitch": 67, "duration": 6, "velocity": 82}, {"time": 2358, "pitch": 71, "duration": 6, "velocity": 81}, {"time": 2361, "pitch": 59, "duration": 6, "velocity": 66}, {"time": 2364, "pitch": 64, "duration": 2, "velocity": 81}, {"time": 2367, "pitch": 67, "duration": 4, "velocity": 77}, {"time": 2370, "pitch": 71, "duration": 3, "velocity": 86}, {"time": 2373, "pitch": 45, "duration": 41, "velocity": 72}, {"time": 2373, "pitch": 64, "duration": 5, "velocity": 74}, {"time": 2373, "pitch": 67, "duration": 5, "velocity": 72}, {"time": 2373, "pitch": 72, "duration": 5, "velocity": 82}, {"time": 2379, "pitch": 52, "duration": 7, "velocity": 62}, {"time": 2385, "pitch": 57, "duration": 6, "velocity": 50}, {"time": 2385, "pitch": 60, "duration": 5, "velocity": 72}, {"time": 2385, "pitch": 64, "duration": 6, "velocity": 76}, {"time": 2385, "pitch": 67, "duration": 5, "velocity": 86}, {"time": 2391, "pitch": 52, "duration": 10, "velocity": 60}, {"time": 2397, "pitch": 57, "duration": 3, "velocity": 63}, {"time": 2397, "pitch": 60, "duration": 6, "velocity": 72}, {"time": 2397, "pitch": 64, "duration": 7, "velocity": 79}, {"time": 2397, "pitch": 67, "duration": 4, "velocity": 77}, {"time": 2403, "pitch": 57, "duration": 5, "velocity": 50}, {"time": 2406, "pitch": 60, "duration": 1, "velocity": 30}, {"time": 2409, "pitch": 60, "duration": 4, "velocity": 81}, {"time": 2409, "pitch": 64, "duration": 4, "velocity": 90}, {"time": 2409, "pitch": 67, "duration": 3, "velocity": 103}, {"time": 2412, "pitch": 57, "duration": 2, "velocity": 65}, {"time": 2415, "pitch": 60, "duration": 2, "velocity": 69}, {"time": 2418, "pitch": 64, "duration": 2, "velocity": 77}, {"time": 2421, "pitch": 38, "duration": 23, "velocity": 65}, {"time": 2421, "pitch": 50, "duration": 5, "velocity": 60}, {"time": 2421, "pitch": 62, "duration": 6, "velocity": 65}, {"time": 2421, "pitch": 66, "duration": 6, "velocity": 51}, {"time": 2421, "pitch": 69, "duration": 6, "velocity": 81}, {"time": 2421, "pitch": 72, "duration": 6, "velocity": 84}, {"time": 2430, "pitch": 50, "duration": 7, "velocity": 45}, {"time": 2433, "pitch": 62, "duration": 5, "velocity": 96}, {"time": 2433, "pitch": 66, "duration": 5, "velocity": 88}, {"time": 2433, "pitch": 74, "duration": 4, "velocity": 94}, {"time": 2439, "pitch": 62, "duration": 1, "velocity": 76}, {"time": 2439, "pitch": 66, "duration": 1, "velocity": 85}, {"time": 2439, "pitch": 72, "duration": 2, "velocity": 103}, {"time": 2442, "pitch": 50, "duration": 2, "velocity": 56}, {"time": 2445, "pitch": 38, "duration": 2, "velocity": 94}, {"time": 2445, "pitch": 50, "duration": 2, "velocity": 82}, {"time": 2445, "pitch": 62, "duration": 2, "velocity": 86}, {"time": 2445, "pitch": 66, "duration": 2, "velocity": 86}, {"time": 2445, "pitch": 74, "duration": 2, "velocity": 97}, {"time": 2469, "pitch": 43, "duration": 19, "velocity": 65}, {"time": 2469, "pitch": 55, "duration": 15, "velocity": 62}, {"time": 2469, "pitch": 62, "duration": 8, "velocity": 79}, {"time": 2469, "pitch": 67, "duration": 8, "velocity": 96}, {"time": 2469, "pitch": 71, "duration": 8, "velocity": 90}, {"time": 2481, "pitch": 62, "duration": 6, "velocity": 79}, {"time": 2481, "pitch": 67, "duration": 6, "velocity": 101}, {"time": 2481, "pitch": 71, "duration": 6, "velocity": 97}, {"time": 2487, "pitch": 55, "duration": 6, "velocity": 60}, {"time": 2490, "pitch": 62, "duration": 2, "velocity": 44}, {"time": 2493, "pitch": 43, "duration": 18, "velocity": 84}, {"time": 2493, "pitch": 62, "duration": 4, "velocity": 76}, {"time": 2493, "pitch": 67, "duration": 4, "velocity": 103}, {"time": 2493, "pitch": 71, "duration": 4, "velocity": 97}, {"time": 2496, "pitch": 55, "duration": 6, "velocity": 56}, {"time": 2499, "pitch": 62, "duration": 1, "velocity": 60}, {"time": 2499, "pitch": 69, "duration": 2, "velocity": 79}, {"time": 2502, "pitch": 62, "duration": 4, "velocity": 86}, {"time": 2502, "pitch": 67, "duration": 4, "velocity": 96}, {"time": 2505, "pitch": 55, "duration": 4, "velocity": 62}, {"time": 2508, "pitch": 62, "duration": 4, "velocity": 90}, {"time": 2508, "pitch": 66, "duration": 4, "velocity": 86}, {"time": 2511, "pitch": 55, "duration": 2, "velocity": 85}, {"time": 2514, "pitch": 62, "duration": 1, "velocity": 41}, {"time": 2517, "pitch": 47, "duration": 21, "velocity": 81}, {"time": 2517, "pitch": 62, "duration": 4, "velocity": 91}, {"time": 2517, "pitch": 66, "duration": 4, "velocity": 83}, {"time": 2517, "pitch": 74, "duration": 4, "velocity": 90}, {"time": 2520, "pitch": 59, "duration": 6, "velocity": 57}, {"time": 2523, "pitch": 62, "duration": 2, "velocity": 65}, {"time": 2526, "pitch": 69, "duration": 2, "velocity": 76}, {"time": 2529, "pitch": 59, "duration": 9, "velocity": 42}, {"time": 2532, "pitch": 66, "duration": 1, "velocity": 62}, {"time": 2532, "pitch": 78, "duration": 1, "velocity": 78}, {"time": 2535, "pitch": 67, "duration": 1, "velocity": 60}, {"time": 2538, "pitch": 66, "duration": 1, "velocity": 90}, {"time": 2538, "pitch": 78, "duration": 1, "velocity": 83}, {"time": 2541, "pitch": 47, "duration": 19, "velocity": 84}, {"time": 2544, "pitch": 62, "duration": 1, "velocity": 69}, {"time": 2544, "pitch": 74, "duration": 1, "velocity": 65}, {"time": 2547, "pitch": 59, "duration": 3, "velocity": 60}, {"time": 2550, "pitch": 62, "duration": 2, "velocity": 72}, {"time": 2553, "pitch": 64, "duration": 2, "velocity": 84}, {"time": 2554, "pitch": 66, "duration": 2, "velocity": 74}, {"time": 2556, "pitch": 67, "duration": 2, "velocity": 88}, {"time": 2557, "pitch": 69, "duration": 3, "velocity": 69}, {"time": 2559, "pitch": 71, "duration": 1, "velocity": 79}, {"time": 2560, "pitch": 72, "duration": 3, "velocity": 76}, {"time": 2562, "pitch": 74, "duration": 3, "velocity": 72}, {"time": 2565, "pitch": 48, "duration": 17, "velocity": 88}, {"time": 2565, "pitch": 76, "duration": 4, "velocity": 76}, {"time": 2568, "pitch": 55, "duration": 15, "velocity": 84}, {"time": 2571, "pitch": 60, "duration": 6, "velocity": 63}, {"time": 2574, "pitch": 64, "duration": 2, "velocity": 69}, {"time": 2577, "pitch": 67, "duration": 3, "velocity": 92}, {"time": 2580, "pitch": 71, "duration": 5, "velocity": 84}, {"time": 2583, "pitch": 60, "duration": 2, "velocity": 63}, {"time": 2586, "pitch": 64, "duration": 2, "velocity": 60}, {"time": 2586, "pitch": 72, "duration": 1, "velocity": 53}, {"time": 2589, "pitch": 50, "duration": 20, "velocity": 82}, {"time": 2589, "pitch": 62, "duration": 4, "velocity": 74}, {"time": 2589, "pitch": 66, "duration": 5, "velocity": 92}, {"time": 2589, "pitch": 69, "duration": 5, "velocity": 60}, {"time": 2592, "pitch": 57, "duration": 11, "velocity": 69}, {"time": 2595, "pitch": 62, "duration": 3, "velocity": 59}, {"time": 2598, "pitch": 66, "duration": 2, "velocity": 102}, {"time": 2601, "pitch": 62, "duration": 4, "velocity": 42}, {"time": 2604, "pitch": 66, "duration": 4, "velocity": 99}, {"time": 2604, "pitch": 74, "duration": 4, "velocity": 91}, {"time": 2607, "pitch": 57, "duration": 1, "velocity": 91}, {"time": 2610, "pitch": 67, "duration": 2, "velocity": 91}, {"time": 2613, "pitch": 43, "duration": 5, "velocity": 86}, {"time": 2613, "pitch": 62, "duration": 13, "velocity": 60}, {"time": 2613, "pitch": 67, "duration": 1, "velocity": 50}, {"time": 2613, "pitch": 71, "duration": 12, "velocity": 97}, {"time": 2616, "pitch": 50, "duration": 3, "velocity": 78}, {"time": 2619, "pitch": 55, "duration": 4, "velocity": 60}, {"time": 2622, "pitch": 57, "duration": 6, "velocity": 54}, {"time": 2625, "pitch": 59, "duration": 3, "velocity": 72}, {"time": 2628, "pitch": 62, "duration": 2, "velocity": 79}, {"time": 2631, "pitch": 69, "duration": 2, "velocity": 76}, {"time": 2634, "pitch": 71, "duration": 2, "velocity": 77}, {"time": 2637, "pitch": 43, "duration": 10, "velocity": 92}, {"time": 2637, "pitch": 64, "duration": 4, "velocity": 82}, {"time": 2637, "pitch": 67, "duration": 3, "velocity": 99}, {"time": 2637, "pitch": 72, "duration": 4, "velocity": 86}, {"time": 2640, "pitch": 55, "duration": 4, "velocity": 63}, {"time": 2643, "pitch": 62, "duration": 2, "velocity": 74}, {"time": 2643, "pitch": 65, "duration": 2, "velocity": 99}, {"time": 2643, "pitch": 69, "duration": 1, "velocity": 50}, {"time": 2646, "pitch": 55, "duration": 2, "velocity": 65}, {"time": 2649, "pitch": 43, "duration": 8, "velocity": 94}, {"time": 2649, "pitch": 59, "duration": 1, "velocity": 81}, {"time": 2649, "pitch": 62, "duration": 1, "velocity": 97}, {"time": 2649, "pitch": 65, "duration": 2, "velocity": 94}, {"time": 2652, "pitch": 55, "duration": 2, "velocity": 60}, {"time": 2655, "pitch": 62, "duration": 2, "velocity": 81}, {"time": 2655, "pitch": 67, "duration": 2, "velocity": 92}, {"time": 2655, "pitch": 71, "duration": 2, "velocity": 92}, {"time": 2658, "pitch": 55, "duration": 3, "velocity": 60}, {"time": 2661, "pitch": 48, "duration": 20, "velocity": 85}, {"time": 2661, "pitch": 64, "duration": 5, "velocity": 91}, {"time": 2661, "pitch": 67, "duration": 6, "velocity": 99}, {"time": 2661, "pitch": 72, "duration": 5, "velocity": 99}, {"time": 2664, "pitch": 55, "duration": 17, "velocity": 82}, {"time": 2667, "pitch": 60, "duration": 5, "velocity": 60}, {"time": 2670, "pitch": 64, "duration": 1, "velocity": 50}, {"time": 2673, "pitch": 64, "duration": 4, "velocity": 79}, {"time": 2673, "pitch": 67, "duration": 4, "velocity": 99}, {"time": 2673, "pitch": 72, "duration": 3, "velocity": 96}, {"time": 2676, "pitch": 60, "duration": 3, "velocity": 65}, {"time": 2679, "pitch": 64, "duration": 4, "velocity": 65}, {"time": 2682, "pitch": 60, "duration": 3, "velocity": 57}, {"time": 2682, "pitch": 69, "duration": 2, "velocity": 82}, {"time": 2685, "pitch": 50, "duration": 19, "velocity": 90}, {"time": 2685, "pitch": 62, "duration": 4, "velocity": 77}, {"time": 2685, "pitch": 66, "duration": 7, "velocity": 86}, {"time": 2685, "pitch": 69, "duration": 6, "velocity": 84}, {"time": 2688, "pitch": 57, "duration": 12, "velocity": 56}, {"time": 2691, "pitch": 62, "duration": 6, "velocity": 57}, {"time": 2697, "pitch": 66, "duration": 4, "velocity": 86}, {"time": 2697, "pitch": 69, "duration": 4, "velocity": 78}, {"time": 2700, "pitch": 62, "duration": 3, "velocity": 69}, {"time": 2703, "pitch": 57, "duration": 2, "velocity": 82}, {"time": 2706, "pitch": 67, "duration": 2, "velocity": 69}, {"time": 2709, "pitch": 47, "duration": 18, "velocity": 78}, {"time": 2709, "pitch": 62, "duration": 6, "velocity": 85}, {"time": 2709, "pitch": 66, "duration": 7, "velocity": 81}, {"time": 2709, "pitch": 69, "duration": 6, "velocity": 88}, {"time": 2715, "pitch": 59, "duration": 7, "velocity": 53}, {"time": 2721, "pitch": 62, "duration": 4, "velocity": 86}, {"time": 2721, "pitch": 66, "duration": 4, "velocity": 93}, {"time": 2721, "pitch": 69, "duration": 4, "velocity": 92}, {"time": 2724, "pitch": 59, "duration": 2, "velocity": 77}, {"time": 2727, "pitch": 62, "duration": 3, "velocity": 72}, {"time": 2730, "pitch": 69, "duration": 2, "velocity": 65}, {"time": 2733, "pitch": 40, "duration": 1, "velocity": 84}, {"time": 2733, "pitch": 52, "duration": 2, "velocity": 81}, {"time": 2733, "pitch": 64, "duration": 5, "velocity": 88}, {"time": 2733, "pitch": 68, "duration": 5, "velocity": 53}, {"time": 2733, "pitch": 71, "duration": 4, "velocity": 106}, {"time": 2739, "pitch": 52, "duration": 8, "velocity": 68}, {"time": 2742, "pitch": 64, "duration": 5, "velocity": 70}, {"time": 2742, "pitch": 68, "duration": 4, "velocity": 78}, {"time": 2742, "pitch": 76, "duration": 4, "velocity": 107}, {"time": 2745, "pitch": 59, "duration": 1, "velocity": 91}, {"time": 2748, "pitch": 64, "duration": 5, "velocity": 74}, {"time": 2748, "pitch": 68, "duration": 4, "velocity": 72}, {"time": 2748, "pitch": 74, "duration": 4, "velocity": 91}, {"time": 2751, "pitch": 44, "duration": 4, "velocity": 88}, {"time": 2754, "pitch": 56, "duration": 2, "velocity": 94}, {"time": 2757, "pitch": 45, "duration": 5, "velocity": 82}, {"time": 2757, "pitch": 64, "duration": 13, "velocity": 82}, {"time": 2757, "pitch": 69, "duration": 12, "velocity": 91}, {"time": 2757, "pitch": 72, "duration": 12, "velocity": 94}, {"time": 2760, "pitch": 52, "duration": 2, "velocity": 76}, {"time": 2763, "pitch": 57, "duration": 4, "velocity": 53}, {"time": 2766, "pitch": 59, "duration": 7, "velocity": 66}, {"time": 2769, "pitch": 60, "duration": 4, "velocity": 68}, {"time": 2772, "pitch": 64, "duration": 2, "velocity": 90}, {"time": 2775, "pitch": 69, "duration": 2, "velocity": 92}, {"time": 2778, "pitch": 71, "duration": 2, "velocity": 85}, {"time": 2781, "pitch": 45, "duration": 19, "velocity": 76}, {"time": 2781, "pitch": 64, "duration": 5, "velocity": 79}, {"time": 2781, "pitch": 72, "duration": 4, "velocity": 88}, {"time": 2784, "pitch": 52, "duration": 17, "velocity": 90}, {"time": 2787, "pitch": 57, "duration": 4, "velocity": 66}, {"time": 2790, "pitch": 61, "duration": 5, "velocity": 99}, {"time": 2790, "pitch": 64, "duration": 5, "velocity": 111}, {"time": 2790, "pitch": 69, "duration": 5, "velocity": 97}, {"time": 2793, "pitch": 57, "duration": 4, "velocity": 68}, {"time": 2796, "pitch": 61, "duration": 4, "velocity": 88}, {"time": 2796, "pitch": 67, "duration": 5, "velocity": 103}, {"time": 2799, "pitch": 57, "duration": 5, "velocity": 92}, {"time": 2802, "pitch": 62, "duration": 2, "velocity": 60}, {"time": 2805, "pitch": 50, "duration": 18, "velocity": 90}, {"time": 2805, "pitch": 64, "duration": 6, "velocity": 94}, {"time": 2805, "pitch": 66, "duration": 6, "velocity": 57}, {"time": 2808, "pitch": 57, "duration": 13, "velocity": 70}, {"time": 2811, "pitch": 62, "duration": 12, "velocity": 77}, {"time": 2814, "pitch": 64, "duration": 3, "velocity": 84}, {"time": 2817, "pitch": 66, "duration": 2, "velocity": 83}, {"time": 2820, "pitch": 67, "duration": 3, "velocity": 96}, {"time": 2823, "pitch": 69, "duration": 3, "velocity": 77}, {"time": 2826, "pitch": 57, "duration": 2, "velocity": 19}, {"time": 2826, "pitch": 72, "duration": 3, "velocity": 97}, {"time": 2829, "pitch": 50, "duration": 20, "velocity": 79}, {"time": 2829, "pitch": 71, "duration": 6, "velocity": 90}, {"time": 2832, "pitch": 57, "duration": 8, "velocity": 53}, {"time": 2835, "pitch": 69, "duration": 5, "velocity": 94}, {"time": 2838, "pitch": 62, "duration": 4, "velocity": 79}, {"time": 2841, "pitch": 67, "duration": 1, "velocity": 107}, {"time": 2841, "pitch": 72, "duration": 1, "velocity": 96}, {"time": 2844, "pitch": 57, "duration": 5, "velocity": 74}, {"time": 2847, "pitch": 62, "duration": 1, "velocity": 85}, {"time": 2847, "pitch": 69, "duration": 1, "velocity": 34}, {"time": 2847, "pitch": 76, "duration": 1, "velocity": 103}, {"time": 2853, "pitch": 43, "duration": 2, "velocity": 101}, {"time": 2853, "pitch": 55, "duration": 3, "velocity": 90}, {"time": 2853, "pitch": 62, "duration": 4, "velocity": 84}, {"time": 2853, "pitch": 67, "duration": 4, "velocity": 90}, {"time": 2853, "pitch": 71, "duration": 4, "velocity": 94}, {"time": 2853, "pitch": 74, "duration": 4, "velocity": 86}, {"time": 2862, "pitch": 43, "duration": 21, "velocity": 57}, {"time": 2862, "pitch": 55, "duration": 5, "velocity": 36}, {"time": 2865, "pitch": 62, "duration": 4, "velocity": 90}, {"time": 2865, "pitch": 67, "duration": 4, "velocity": 84}, {"time": 2865, "pitch": 71, "duration": 4, "velocity": 95}, {"time": 2865, "pitch": 74, "duration": 4, "velocity": 83}, {"time": 2871, "pitch": 55, "duration": 5, "velocity": 61}, {"time": 2874, "pitch": 62, "duration": 4, "velocity": 93}, {"time": 2874, "pitch": 69, "duration": 4, "velocity": 90}, {"time": 2880, "pitch": 62, "duration": 5, "velocity": 86}, {"time": 2880, "pitch": 67, "duration": 5, "velocity": 90}, {"time": 2880, "pitch": 71, "duration": 5, "velocity": 96}, {"time": 2886, "pitch": 43, "duration": 5, "velocity": 83}, {"time": 2886, "pitch": 55, "duration": 4, "velocity": 84}, {"time": 2889, "pitch": 62, "duration": 3, "velocity": 95}, {"time": 2889, "pitch": 67, "duration": 3, "velocity": 99}, {"time": 2889, "pitch": 71, "duration": 3, "velocity": 98}, {"time": 2889, "pitch": 74, "duration": 3, "velocity": 79}, {"time": 2892, "pitch": 43, "duration": 3, "velocity": 84}, {"time": 2892, "pitch": 55, "duration": 2, "velocity": 82}, {"time": 2895, "pitch": 62, "duration": 2, "velocity": 84}, {"time": 2895, "pitch": 67, "duration": 1, "velocity": 51}, {"time": 2898, "pitch": 62, "duration": 1, "velocity": 47}, {"time": 2898, "pitch": 69, "duration": 1, "velocity": 79}, {"time": 2901, "pitch": 42, "duration": 43, "velocity": 90}, {"time": 2901, "pitch": 54, "duration": 5, "velocity": 82}, {"time": 2901, "pitch": 62, "duration": 7, "velocity": 91}, {"time": 2901, "pitch": 66, "duration": 6, "velocity": 81}, {"time": 2901, "pitch": 69, "duration": 8, "velocity": 81}, {"time": 2901, "pitch": 74, "duration": 7, "velocity": 90}, {"time": 2910, "pitch": 54, "duration": 5, "velocity": 62}, {"time": 2913, "pitch": 62, "duration": 6, "velocity": 86}, {"time": 2913, "pitch": 66, "duration": 5, "velocity": 78}, {"time": 2913, "pitch": 69, "duration": 6, "velocity": 84}, {"time": 2913, "pitch": 74, "duration": 6, "velocity": 86}, {"time": 2922, "pitch": 54, "duration": 6, "velocity": 79}, {"time": 2925, "pitch": 62, "duration": 2, "velocity": 91}, {"time": 2925, "pitch": 66, "duration": 3, "velocity": 78}, {"time": 2925, "pitch": 69, "duration": 3, "velocity": 83}, {"time": 2925, "pitch": 74, "duration": 3, "velocity": 90}, {"time": 2931, "pitch": 54, "duration": 9, "velocity": 61}, {"time": 2934, "pitch": 74, "duration": 1, "velocity": 72}, {"time": 2934, "pitch": 78, "duration": 1, "velocity": 82}, {"time": 2934, "pitch": 81, "duration": 1, "velocity": 82}, {"time": 2934, "pitch": 86, "duration": 1, "velocity": 72}, {"time": 2937, "pitch": 74, "duration": 1, "velocity": 91}, {"time": 2937, "pitch": 78, "duration": 1, "velocity": 94}, {"time": 2937, "pitch": 81, "duration": 1, "velocity": 90}, {"time": 2937, "pitch": 86, "duration": 1, "velocity": 95}, {"time": 2943, "pitch": 44, "duration": 1, "velocity": 78}, {"time": 2943, "pitch": 54, "duration": 1, "velocity": 99}, {"time": 2946, "pitch": 71, "duration": 2, "velocity": 83}, {"time": 2949, "pitch": 36, "duration": 1, "velocity": 104}, {"time": 2949, "pitch": 48, "duration": 2, "velocity": 86}, {"time": 2949, "pitch": 64, "duration": 9, "velocity": 84}, {"time": 2949, "pitch": 67, "duration": 9, "velocity": 90}, {"time": 2949, "pitch": 72, "duration": 8, "velocity": 95}, {"time": 2955, "pitch": 48, "duration": 12, "velocity": 80}, {"time": 2958, "pitch": 60, "duration": 4, "velocity": 91}, {"time": 2961, "pitch": 64, "duration": 3, "velocity": 99}, {"time": 2961, "pitch": 67, "duration": 3, "velocity": 99}, {"time": 2961, "pitch": 72, "duration": 4, "velocity": 99}, {"time": 2964, "pitch": 60, "duration": 5, "velocity": 90}, {"time": 2967, "pitch": 64, "duration": 2, "velocity": 75}, {"time": 2970, "pitch": 69, "duration": 2, "velocity": 82}, {"time": 2973, "pitch": 50, "duration": 20, "velocity": 90}, {"time": 2973, "pitch": 62, "duration": 6, "velocity": 82}, {"time": 2973, "pitch": 66, "duration": 5, "velocity": 84}, {"time": 2973, "pitch": 69, "duration": 5, "velocity": 79}, {"time": 2973, "pitch": 72, "duration": 4, "velocity": 93}, {"time": 2979, "pitch": 57, "duration": 10, "velocity": 76}, {"time": 2982, "pitch": 62, "duration": 1, "velocity": 75}, {"time": 2988, "pitch": 62, "duration": 4, "velocity": 94}, {"time": 2988, "pitch": 66, "duration": 4, "velocity": 98}, {"time": 2988, "pitch": 74, "duration": 4, "velocity": 100}, {"time": 2991, "pitch": 57, "duration": 1, "velocity": 82}, {"time": 2994, "pitch": 62, "duration": 1, "velocity": 68}, {"time": 2994, "pitch": 72, "duration": 2, "velocity": 86}, {"time": 2997, "pitch": 43, "duration": 22, "velocity": 91}, {"time": 2997, "pitch": 62, "duration": 5, "velocity": 82}, {"time": 2997, "pitch": 67, "duration": 5, "velocity": 90}, {"time": 2997, "pitch": 71, "duration": 5, "velocity": 90}, {"time": 3003, "pitch": 55, "duration": 9, "velocity": 69}, {"time": 3009, "pitch": 59, "duration": 4, "velocity": 95}, {"time": 3009, "pitch": 62, "duration": 1, "velocity": 59}, {"time": 3009, "pitch": 62, "duration": 1, "velocity": 94}, {"time": 3009, "pitch": 67, "duration": 4, "velocity": 90}, {"time": 3015, "pitch": 55, "duration": 6, "velocity": 71}, {"time": 3018, "pitch": 57, "duration": 1, "velocity": 83}, {"time": 3018, "pitch": 62, "duration": 1, "velocity": 83}, {"time": 3021, "pitch": 43, "duration": 18, "velocity": 95}, {"time": 3021, "pitch": 57, "duration": 3, "velocity": 61}, {"time": 3021, "pitch": 59, "duration": 2, "velocity": 75}, {"time": 3021, "pitch": 62, "duration": 4, "velocity": 94}, {"time": 3021, "pitch": 65, "duration": 3, "velocity": 75}, {"time": 3024, "pitch": 55, "duration": 9, "velocity": 80}, {"time": 3027, "pitch": 59, "duration": 3, "velocity": 86}, {"time": 3030, "pitch": 62, "duration": 1, "velocity": 81}, {"time": 3033, "pitch": 59, "duration": 3, "velocity": 94}, {"time": 3033, "pitch": 62, "duration": 3, "velocity": 86}, {"time": 3033, "pitch": 65, "duration": 5, "velocity": 90}, {"time": 3036, "pitch": 55, "duration": 4, "velocity": 83}, {"time": 3039, "pitch": 59, "duration": 1, "velocity": 99}, {"time": 3039, "pitch": 62, "duration": 1, "velocity": 94}, {"time": 3039, "pitch": 67, "duration": 1, "velocity": 91}, {"time": 3045, "pitch": 48, "duration": 20, "velocity": 85}, {"time": 3045, "pitch": 64, "duration": 6, "velocity": 84}, {"time": 3045, "pitch": 67, "duration": 6, "velocity": 97}, {"time": 3045, "pitch": 72, "duration": 5, "velocity": 94}, {"time": 3048, "pitch": 55, "duration": 17, "velocity": 81}, {"time": 3051, "pitch": 60, "duration": 6, "velocity": 60}, {"time": 3054, "pitch": 64, "duration": 1, "velocity": 38}, {"time": 3057, "pitch": 64, "duration": 4, "velocity": 92}, {"time": 3057, "pitch": 67, "duration": 5, "velocity": 97}, {"time": 3057, "pitch": 72, "duration": 4, "velocity": 99}, {"time": 3060, "pitch": 60, "duration": 4, "velocity": 53}, {"time": 3063, "pitch": 64, "duration": 2, "velocity": 53}, {"time": 3069, "pitch": 50, "duration": 18, "velocity": 79}, {"time": 3069, "pitch": 62, "duration": 7, "velocity": 82}, {"time": 3069, "pitch": 66, "duration": 7, "velocity": 74}, {"time": 3069, "pitch": 69, "duration": 6, "velocity": 84}, {"time": 3075, "pitch": 57, "duration": 6, "velocity": 53}, {"time": 3081, "pitch": 62, "duration": 4, "velocity": 78}, {"time": 3081, "pitch": 66, "duration": 5, "velocity": 69}, {"time": 3081, "pitch": 69, "duration": 5, "velocity": 88}, {"time": 3084, "pitch": 57, "duration": 2, "velocity": 79}, {"time": 3087, "pitch": 62, "duration": 1, "velocity": 53}, {"time": 3087, "pitch": 67, "duration": 2, "velocity": 72}, {"time": 3090, "pitch": 69, "duration": 2, "velocity": 72}, {"time": 3093, "pitch": 47, "duration": 7, "velocity": 68}, {"time": 3093, "pitch": 59, "duration": 7, "velocity": 70}, {"time": 3093, "pitch": 62, "duration": 6, "velocity": 81}, {"time": 3093, "pitch": 66, "duration": 7, "velocity": 81}, {"time": 3093, "pitch": 71, "duration": 6, "velocity": 107}, {"time": 3105, "pitch": 39, "duration": 7, "velocity": 94}, {"time": 3105, "pitch": 51, "duration": 1, "velocity": 35}, {"time": 3105, "pitch": 62, "duration": 6, "velocity": 81}, {"time": 3105, "pitch": 69, "duration": 5, "velocity": 76}, {"time": 3111, "pitch": 51, "duration": 1, "velocity": 44}, {"time": 3117, "pitch": 40, "duration": 8, "velocity": 97}, {"time": 3117, "pitch": 52, "duration": 8, "velocity": 63}, {"time": 3117, "pitch": 62, "duration": 7, "velocity": 70}, {"time": 3117, "pitch": 67, "duration": 7, "velocity": 96}, {"time": 3117, "pitch": 71, "duration": 5, "velocity": 92}, {"time": 3129, "pitch": 38, "duration": 5, "velocity": 85}, {"time": 3129, "pitch": 50, "duration": 6, "velocity": 70}, {"time": 3129, "pitch": 62, "duration": 6, "velocity": 79}, {"time": 3129, "pitch": 67, "duration": 5, "velocity": 92}, {"time": 3129, "pitch": 71, "duration": 5, "velocity": 92}, {"time": 3141, "pitch": 48, "duration": 20, "velocity": 66}, {"time": 3141, "pitch": 60, "duration": 15, "velocity": 53}, {"time": 3141, "pitch": 64, "duration": 9, "velocity": 79}, {"time": 3141, "pitch": 67, "duration": 7, "velocity": 99}, {"time": 3141, "pitch": 72, "duration": 9, "velocity": 86}, {"time": 3153, "pitch": 64, "duration": 7, "velocity": 85}, {"time": 3153, "pitch": 67, "duration": 6, "velocity": 103}, {"time": 3153, "pitch": 72, "duration": 7, "velocity": 85}, {"time": 3159, "pitch": 60, "duration": 2, "velocity": 56}, {"time": 3165, "pitch": 50, "duration": 19, "velocity": 68}, {"time": 3165, "pitch": 57, "duration": 14, "velocity": 65}, {"time": 3165, "pitch": 62, "duration": 9, "velocity": 81}, {"time": 3165, "pitch": 66, "duration": 9, "velocity": 54}, {"time": 3165, "pitch": 69, "duration": 7, "velocity": 79}, {"time": 3177, "pitch": 62, "duration": 6, "velocity": 77}, {"time": 3177, "pitch": 66, "duration": 6, "velocity": 78}, {"time": 3177, "pitch": 69, "duration": 6, "velocity": 85}, {"time": 3183, "pitch": 57, "duration": 1, "velocity": 63}, {"time": 3189, "pitch": 48, "duration": 3, "velocity": 63}, {"time": 3189, "pitch": 60, "duration": 3, "velocity": 54}, {"time": 3189, "pitch": 64, "duration": 3, "velocity": 77}, {"time": 3189, "pitch": 67, "duration": 3, "velocity": 81}, {"time": 3189, "pitch": 72, "duration": 3, "velocity": 74}, {"time": 3195, "pitch": 48, "duration": 4, "velocity": 74}, {"time": 3195, "pitch": 60, "duration": 4, "velocity": 74}, {"time": 3195, "pitch": 64, "duration": 1, "velocity": 77}, {"time": 3195, "pitch": 67, "duration": 1, "velocity": 90}, {"time": 3195, "pitch": 72, "duration": 4, "velocity": 84}, {"time": 3201, "pitch": 48, "duration": 3, "velocity": 78}, {"time": 3201, "pitch": 60, "duration": 3, "velocity": 70}, {"time": 3201, "pitch": 64, "duration": 3, "velocity": 78}, {"time": 3201, "pitch": 67, "duration": 2, "velocity": 94}, {"time": 3201, "pitch": 72, "duration": 3, "velocity": 85}, {"time": 3207, "pitch": 48, "duration": 4, "velocity": 72}, {"time": 3207, "pitch": 60, "duration": 4, "velocity": 60}, {"time": 3207, "pitch": 64, "duration": 3, "velocity": 76}, {"time": 3207, "pitch": 67, "duration": 3, "velocity": 88}, {"time": 3207, "pitch": 72, "duration": 3, "velocity": 86}, {"time": 3213, "pitch": 48, "duration": 3, "velocity": 77}, {"time": 3213, "pitch": 60, "duration": 3, "velocity": 62}, {"time": 3213, "pitch": 64, "duration": 3, "velocity": 77}, {"time": 3213, "pitch": 67, "duration": 3, "velocity": 88}, {"time": 3213, "pitch": 72, "duration": 3, "velocity": 85}, {"time": 3219, "pitch": 48, "duration": 4, "velocity": 81}, {"time": 3219, "pitch": 60, "duration": 3, "velocity": 70}, {"time": 3219, "pitch": 64, "duration": 3, "velocity": 70}, {"time": 3219, "pitch": 67, "duration": 3, "velocity": 82}, {"time": 3219, "pitch": 72, "duration": 3, "velocity": 84}, {"time": 3225, "pitch": 48, "duration": 4, "velocity": 77}, {"time": 3225, "pitch": 60, "duration": 4, "velocity": 65}, {"time": 3225, "pitch": 64, "duration": 4, "velocity": 72}, {"time": 3225, "pitch": 67, "duration": 4, "velocity": 90}, {"time": 3225, "pitch": 72, "duration": 3, "velocity": 85}, {"time": 3231, "pitch": 48, "duration": 1, "velocity": 85}, {"time": 3231, "pitch": 60, "duration": 1, "velocity": 66}, {"time": 3231, "pitch": 64, "duration": 1, "velocity": 72}, {"time": 3231, "pitch": 67, "duration": 1, "velocity": 94}, {"time": 3231, "pitch": 72, "duration": 1, "velocity": 90}, {"time": 3237, "pitch": 47, "duration": 2, "velocity": 81}, {"time": 3237, "pitch": 59, "duration": 2, "velocity": 66}, {"time": 3237, "pitch": 62, "duration": 1, "velocity": 79}, {"time": 3237, "pitch": 66, "duration": 1, "velocity": 60}, {"time": 3237, "pitch": 69, "duration": 2, "velocity": 88}, {"time": 3243, "pitch": 47, "duration": 3, "velocity": 60}, {"time": 3243, "pitch": 59, "duration": 2, "velocity": 65}, {"time": 3243, "pitch": 62, "duration": 1, "velocity": 69}, {"time": 3243, "pitch": 66, "duration": 2, "velocity": 63}, {"time": 3243, "pitch": 69, "duration": 2, "velocity": 77}, {"time": 3249, "pitch": 47, "duration": 2, "velocity": 69}, {"time": 3249, "pitch": 59, "duration": 2, "velocity": 62}, {"time": 3249, "pitch": 62, "duration": 1, "velocity": 69}, {"time": 3249, "pitch": 66, "duration": 2, "velocity": 56}, {"time": 3249, "pitch": 69, "duration": 1, "velocity": 79}, {"time": 3255, "pitch": 47, "duration": 2, "velocity": 53}, {"time": 3255, "pitch": 59, "duration": 2, "velocity": 54}, {"time": 3255, "pitch": 62, "duration": 1, "velocity": 63}, {"time": 3255, "pitch": 66, "duration": 1, "velocity": 53}, {"time": 3255, "pitch": 69, "duration": 1, "velocity": 74}, {"time": 3261, "pitch": 47, "duration": 2, "velocity": 66}, {"time": 3261, "pitch": 59, "duration": 2, "velocity": 60}, {"time": 3261, "pitch": 62, "duration": 1, "velocity": 76}, {"time": 3261, "pitch": 66, "duration": 1, "velocity": 53}, {"time": 3261, "pitch": 69, "duration": 2, "velocity": 81}, {"time": 3267, "pitch": 47, "duration": 3, "velocity": 44}, {"time": 3267, "pitch": 59, "duration": 3, "velocity": 50}, {"time": 3267, "pitch": 62, "duration": 2, "velocity": 65}, {"time": 3267, "pitch": 66, "duration": 2, "velocity": 33}, {"time": 3267, "pitch": 69, "duration": 2, "velocity": 66}, {"time": 3273, "pitch": 47, "duration": 4, "velocity": 63}, {"time": 3273, "pitch": 59, "duration": 3, "velocity": 57}, {"time": 3273, "pitch": 62, "duration": 3, "velocity": 78}, {"time": 3273, "pitch": 66, "duration": 4, "velocity": 56}, {"time": 3273, "pitch": 69, "duration": 3, "velocity": 86}, {"time": 3279, "pitch": 47, "duration": 2, "velocity": 76}, {"time": 3279, "pitch": 59, "duration": 1, "velocity": 53}, {"time": 3279, "pitch": 62, "duration": 2, "velocity": 81}, {"time": 3279, "pitch": 66, "duration": 1, "velocity": 50}, {"time": 3279, "pitch": 69, "duration": 1, "velocity": 82}, {"time": 3282, "pitch": 46, "duration": 2, "velocity": 39}, {"time": 3285, "pitch": 45, "duration": 2, "velocity": 76}, {"time": 3285, "pitch": 57, "duration": 1, "velocity": 50}, {"time": 3285, "pitch": 60, "duration": 2, "velocity": 66}, {"time": 3285, "pitch": 64, "duration": 2, "velocity": 88}, {"time": 3285, "pitch": 69, "duration": 2, "velocity": 79}, {"time": 3291, "pitch": 45, "duration": 2, "velocity": 76}, {"time": 3291, "pitch": 57, "duration": 2, "velocity": 57}, {"time": 3291, "pitch": 60, "duration": 2, "velocity": 69}, {"time": 3291, "pitch": 64, "duration": 1, "velocity": 92}, {"time": 3291, "pitch": 69, "duration": 3, "velocity": 78}, {"time": 3297, "pitch": 45, "duration": 3, "velocity": 86}, {"time": 3297, "pitch": 57, "duration": 2, "velocity": 59}, {"time": 3297, "pitch": 60, "duration": 1, "velocity": 77}, {"time": 3297, "pitch": 64, "duration": 1, "velocity": 92}, {"time": 3297, "pitch": 69, "duration": 3, "velocity": 82}, {"time": 3303, "pitch": 45, "duration": 3, "velocity": 78}, {"time": 3303, "pitch": 57, "duration": 2, "velocity": 47}, {"time": 3303, "pitch": 60, "duration": 2, "velocity": 69}, {"time": 3303, "pitch": 64, "duration": 2, "velocity": 82}, {"time": 3303, "pitch": 69, "duration": 2, "velocity": 76}, {"time": 3309, "pitch": 45, "duration": 2, "velocity": 62}, {"time": 3309, "pitch": 57, "duration": 2, "velocity": 60}, {"time": 3309, "pitch": 60, "duration": 2, "velocity": 68}, {"time": 3309, "pitch": 64, "duration": 2, "velocity": 86}, {"time": 3309, "pitch": 69, "duration": 2, "velocity": 72}, {"time": 3315, "pitch": 45, "duration": 3, "velocity": 70}, {"time": 3315, "pitch": 57, "duration": 2, "velocity": 45}, {"time": 3315, "pitch": 60, "duration": 2, "velocity": 63}, {"time": 3315, "pitch": 64, "duration": 2, "velocity": 88}, {"time": 3315, "pitch": 69, "duration": 2, "velocity": 72}, {"time": 3321, "pitch": 45, "duration": 3, "velocity": 82}, {"time": 3321, "pitch": 57, "duration": 3, "velocity": 53}, {"time": 3321, "pitch": 60, "duration": 3, "velocity": 77}, {"time": 3321, "pitch": 64, "duration": 3, "velocity": 90}, {"time": 3321, "pitch": 69, "duration": 3, "velocity": 85}, {"time": 3324, "pitch": 45, "duration": 1, "velocity": 88}, {"time": 3324, "pitch": 57, "duration": 1, "velocity": 38}, {"time": 3324, "pitch": 60, "duration": 1, "velocity": 84}, {"time": 3324, "pitch": 67, "duration": 5, "velocity": 90}, {"time": 3327, "pitch": 57, "duration": 1, "velocity": 57}, {"time": 3330, "pitch": 60, "duration": 2, "velocity": 63}, {"time": 3330, "pitch": 64, "duration": 1, "velocity": 81}, {"time": 3330, "pitch": 69, "duration": 2, "velocity": 79}, {"time": 3333, "pitch": 38, "duration": 21, "velocity": 94}, {"time": 3333, "pitch": 50, "duration": 3, "velocity": 74}, {"time": 3333, "pitch": 60, "duration": 6, "velocity": 82}, {"time": 3333, "pitch": 64, "duration": 6, "velocity": 81}, {"time": 3333, "pitch": 67, "duration": 5, "velocity": 94}, {"time": 3339, "pitch": 50, "duration": 10, "velocity": 82}, {"time": 3342, "pitch": 60, "duration": 2, "velocity": 77}, {"time": 3342, "pitch": 64, "duration": 2, "velocity": 76}, {"time": 3345, "pitch": 64, "duration": 6, "velocity": 97}, {"time": 3345, "pitch": 67, "duration": 1, "velocity": 72}, {"time": 3348, "pitch": 67, "duration": 3, "velocity": 88}, {"time": 3351, "pitch": 69, "duration": 1, "velocity": 85}, {"time": 3354, "pitch": 50, "duration": 2, "velocity": 60}, {"time": 3354, "pitch": 72, "duration": 1, "velocity": 91}, {"time": 3357, "pitch": 38, "duration": 18, "velocity": 79}, {"time": 3357, "pitch": 50, "duration": 3, "velocity": 65}, {"time": 3357, "pitch": 67, "duration": 1, "velocity": 47}, {"time": 3357, "pitch": 76, "duration": 1, "velocity": 50}, {"time": 3363, "pitch": 67, "duration": 1, "velocity": 81}, {"time": 3363, "pitch": 79, "duration": 1, "velocity": 103}, {"time": 3366, "pitch": 50, "duration": 1, "velocity": 23}, {"time": 3369, "pitch": 50, "duration": 2, "velocity": 72}, {"time": 3369, "pitch": 69, "duration": 1, "velocity": 74}, {"time": 3369, "pitch": 81, "duration": 1, "velocity": 99}, {"time": 3375, "pitch": 50, "duration": 1, "velocity": 84}, {"time": 3375, "pitch": 72, "duration": 1, "velocity": 76}, {"time": 3381, "pitch": 43, "duration": 39, "velocity": 68}, {"time": 3381, "pitch": 55, "duration": 39, "velocity": 59}, {"time": 3381, "pitch": 62, "duration": 12, "velocity": 53}, {"time": 3381, "pitch": 67, "duration": 12, "velocity": 91}, {"time": 3381, "pitch": 74, "duration": 13, "velocity": 74}, {"time": 3405, "pitch": 79, "duration": 11, "velocity": 45}, {"time": 3405, "pitch": 91, "duration": 10, "velocity": 26}, {"time": 3429, "pitch": 47, "duration": 33, "velocity": 38}, {"time": 3429, "pitch": 59, "duration": 33, "velocity": 45}, {"time": 3429, "pitch": 62, "duration": 34, "velocity": 50}, {"time": 3429, "pitch": 66, "duration": 33, "velocity": 37}, {"time": 3429, "pitch": 69, "duration": 33, "velocity": 60}, {"time": 3477, "pitch": 36, "duration": 4, "velocity": 107}, {"time": 3477, "pitch": 48, "duration": 4, "velocity": 92}, {"time": 3477, "pitch": 64, "duration": 4, "velocity": 101}, {"time": 3477, "pitch": 67, "duration": 4, "velocity": 119}, {"time": 3477, "pitch": 72, "duration": 4, "velocity": 113}, {"time": 3498, "pitch": 36, "duration": 1, "velocity": 81}, {"time": 3498, "pitch": 48, "duration": 2, "velocity": 63}, {"time": 3498, "pitch": 64, "duration": 2, "velocity": 85}, {"time": 3498, "pitch": 67, "duration": 2, "velocity": 101}, {"time": 3498, "pitch": 72, "duration": 2, "velocity": 97}, {"time": 3501, "pitch": 38, "duration": 7, "velocity": 88}, {"time": 3501, "pitch": 50, "duration": 5, "velocity": 101}, {"time": 3501, "pitch": 62, "duration": 5, "velocity": 91}, {"time": 3501, "pitch": 66, "duration": 6, "velocity": 99}, {"time": 3501, "pitch": 69, "duration": 6, "velocity": 81}, {"time": 3510, "pitch": 38, "duration": 3, "velocity": 68}, {"time": 3510, "pitch": 50, "duration": 3, "velocity": 106}, {"time": 3510, "pitch": 62, "duration": 3, "velocity": 86}, {"time": 3510, "pitch": 66, "duration": 3, "velocity": 109}, {"time": 3510, "pitch": 69, "duration": 3, "velocity": 96}, {"time": 3510, "pitch": 72, "duration": 3, "velocity": 101}, {"time": 3525, "pitch": 43, "duration": 20, "velocity": 97}, {"time": 3525, "pitch": 62, "duration": 6, "velocity": 81}, {"time": 3525, "pitch": 67, "duration": 6, "velocity": 103}, {"time": 3525, "pitch": 71, "duration": 6, "velocity": 107}, {"time": 3531, "pitch": 55, "duration": 14, "velocity": 82}, {"time": 3534, "pitch": 62, "duration": 2, "velocity": 85}, {"time": 3537, "pitch": 64, "duration": 3, "velocity": 106}, {"time": 3540, "pitch": 66, "duration": 3, "velocity": 94}, {"time": 3543, "pitch": 67, "duration": 2, "velocity": 88}, {"time": 3546, "pitch": 69, "duration": 1, "velocity": 72}, {"time": 3549, "pitch": 43, "duration": 18, "velocity": 92}, {"time": 3549, "pitch": 65, "duration": 5, "velocity": 104}, {"time": 3549, "pitch": 69, "duration": 4, "velocity": 101}, {"time": 3552, "pitch": 50, "duration": 15, "velocity": 60}, {"time": 3555, "pitch": 55, "duration": 10, "velocity": 92}, {"time": 3555, "pitch": 62, "duration": 2, "velocity": 88}, {"time": 3558, "pitch": 65, "duration": 2, "velocity": 77}, {"time": 3559, "pitch": 67, "duration": 1, "velocity": 106}, {"time": 3561, "pitch": 67, "duration": 1, "velocity": 81}, {"time": 3562, "pitch": 69, "duration": 3, "velocity": 66}, {"time": 3564, "pitch": 71, "duration": 2, "velocity": 60}, {"time": 3565, "pitch": 72, "duration": 2, "velocity": 85}, {"time": 3567, "pitch": 55, "duration": 3, "velocity": 76}, {"time": 3567, "pitch": 74, "duration": 3, "velocity": 103}, {"time": 3568, "pitch": 76, "duration": 3, "velocity": 69}, {"time": 3570, "pitch": 78, "duration": 4, "velocity": 72}, {"time": 3573, "pitch": 48, "duration": 18, "velocity": 84}, {"time": 3573, "pitch": 79, "duration": 2, "velocity": 90}, {"time": 3576, "pitch": 55, "duration": 16, "velocity": 86}, {"time": 3579, "pitch": 60, "duration": 3, "velocity": 82}, {"time": 3582, "pitch": 64, "duration": 4, "velocity": 107}, {"time": 3582, "pitch": 67, "duration": 4, "velocity": 111}, {"time": 3582, "pitch": 72, "duration": 4, "velocity": 97}, {"time": 3585, "pitch": 60, "duration": 3, "velocity": 76}, {"time": 3588, "pitch": 64, "duration": 4, "velocity": 96}, {"time": 3588, "pitch": 71, "duration": 5, "velocity": 86}, {"time": 3591, "pitch": 60, "duration": 3, "velocity": 70}, {"time": 3594, "pitch": 64, "duration": 1, "velocity": 60}, {"time": 3594, "pitch": 72, "duration": 2, "velocity": 97}, {"time": 3597, "pitch": 50, "duration": 20, "velocity": 84}, {"time": 3597, "pitch": 62, "duration": 4, "velocity": 92}, {"time": 3597, "pitch": 66, "duration": 4, "velocity": 96}, {"time": 3597, "pitch": 69, "duration": 5, "velocity": 84}, {"time": 3600, "pitch": 57, "duration": 6, "velocity": 60}, {"time": 3603, "pitch": 62, "duration": 3, "velocity": 68}, {"time": 3606, "pitch": 66, "duration": 1, "velocity": 69}, {"time": 3606, "pitch": 78, "duration": 1, "velocity": 81}, {"time": 3609, "pitch": 57, "duration": 3, "velocity": 77}, {"time": 3609, "pitch": 67, "duration": 1, "velocity": 90}, {"time": 3609, "pitch": 79, "duration": 1, "velocity": 107}, {"time": 3612, "pitch": 62, "duration": 3, "velocity": 92}, {"time": 3612, "pitch": 69, "duration": 1, "velocity": 70}, {"time": 3612, "pitch": 81, "duration": 1, "velocity": 96}, {"time": 3615, "pitch": 57, "duration": 3, "velocity": 84}, {"time": 3618, "pitch": 72, "duration": 2, "velocity": 60}, {"time": 3618, "pitch": 84, "duration": 2, "velocity": 97}, {"time": 3621, "pitch": 47, "duration": 18, "velocity": 88}, {"time": 3621, "pitch": 71, "duration": 3, "velocity": 86}, {"time": 3621, "pitch": 83, "duration": 2, "velocity": 99}, {"time": 3624, "pitch": 59, "duration": 6, "velocity": 68}, {"time": 3627, "pitch": 64, "duration": 1, "velocity": 47}, {"time": 3630, "pitch": 67, "duration": 3, "velocity": 86}, {"time": 3633, "pitch": 59, "duration": 3, "velocity": 54}, {"time": 3636, "pitch": 62, "duration": 3, "velocity": 88}, {"time": 3636, "pitch": 69, "duration": 5, "velocity": 111}, {"time": 3639, "pitch": 59, "duration": 1, "velocity": 90}, {"time": 3642, "pitch": 64, "duration": 1, "velocity": 45}, {"time": 3642, "pitch": 68, "duration": 1, "velocity": 45}, {"time": 3645, "pitch": 40, "duration": 1, "velocity": 86}, {"time": 3645, "pitch": 52, "duration": 2, "velocity": 99}, {"time": 3645, "pitch": 64, "duration": 4, "velocity": 84}, {"time": 3645, "pitch": 68, "duration": 3, "velocity": 57}, {"time": 3645, "pitch": 71, "duration": 3, "velocity": 107}, {"time": 3651, "pitch": 52, "duration": 8, "velocity": 77}, {"time": 3654, "pitch": 64, "duration": 5, "velocity": 86}, {"time": 3654, "pitch": 68, "duration": 5, "velocity": 81}, {"time": 3654, "pitch": 76, "duration": 3, "velocity": 107}, {"time": 3657, "pitch": 59, "duration": 1, "velocity": 94}, {"time": 3660, "pitch": 64, "duration": 4, "velocity": 72}, {"time": 3660, "pitch": 71, "duration": 4, "velocity": 106}, {"time": 3663, "pitch": 44, "duration": 4, "velocity": 77}, {"time": 3663, "pitch": 69, "duration": 3, "velocity": 79}, {"time": 3666, "pitch": 56, "duration": 1, "velocity": 81}, {"time": 3666, "pitch": 71, "duration": 2, "velocity": 88}, {"time": 3669, "pitch": 45, "duration": 6, "velocity": 96}, {"time": 3669, "pitch": 64, "duration": 13, "velocity": 82}, {"time": 3669, "pitch": 67, "duration": 13, "velocity": 99}, {"time": 3669, "pitch": 72, "duration": 13, "velocity": 91}, {"time": 3672, "pitch": 52, "duration": 3, "velocity": 81}, {"time": 3675, "pitch": 57, "duration": 4, "velocity": 60}, {"time": 3678, "pitch": 59, "duration": 5, "velocity": 60}, {"time": 3681, "pitch": 60, "duration": 3, "velocity": 74}, {"time": 3684, "pitch": 64, "duration": 2, "velocity": 90}, {"time": 3687, "pitch": 67, "duration": 1, "velocity": 81}, {"time": 3687, "pitch": 72, "duration": 1, "velocity": 78}, {"time": 3690, "pitch": 64, "duration": 1, "velocity": 97}, {"time": 3693, "pitch": 45, "duration": 18, "velocity": 82}, {"time": 3693, "pitch": 61, "duration": 4, "velocity": 78}, {"time": 3693, "pitch": 64, "duration": 4, "velocity": 92}, {"time": 3693, "pitch": 69, "duration": 4, "velocity": 92}, {"time": 3696, "pitch": 57, "duration": 5, "velocity": 76}, {"time": 3699, "pitch": 61, "duration": 3, "velocity": 85}, {"time": 3699, "pitch": 69, "duration": 1, "velocity": 62}, {"time": 3702, "pitch": 57, "duration": 3, "velocity": 47}, {"time": 3702, "pitch": 64, "duration": 2, "velocity": 82}, {"time": 3705, "pitch": 61, "duration": 4, "velocity": 109}, {"time": 3705, "pitch": 64, "duration": 4, "velocity": 99}, {"time": 3705, "pitch": 67, "duration": 5, "velocity": 107}, {"time": 3708, "pitch": 57, "duration": 3, "velocity": 81}, {"time": 3711, "pitch": 52, "duration": 1, "velocity": 101}, {"time": 3711, "pitch": 61, "duration": 1, "velocity": 37}, {"time": 3711, "pitch": 64, "duration": 1, "velocity": 99}, {"time": 3711, "pitch": 69, "duration": 4, "velocity": 81}, {"time": 3714, "pitch": 64, "duration": 1, "velocity": 22}, {"time": 3717, "pitch": 38, "duration": 1, "velocity": 101}, {"time": 3717, "pitch": 62, "duration": 5, "velocity": 85}, {"time": 3717, "pitch": 66, "duration": 10, "velocity": 88}, {"time": 3717, "pitch": 69, "duration": 12, "velocity": 79}, {"time": 3723, "pitch": 50, "duration": 14, "velocity": 77}, {"time": 3726, "pitch": 57, "duration": 7, "velocity": 84}, {"time": 3729, "pitch": 62, "duration": 6, "velocity": 82}, {"time": 3732, "pitch": 64, "duration": 2, "velocity": 97}, {"time": 3735, "pitch": 66, "duration": 1, "velocity": 93}, {"time": 3738, "pitch": 69, "duration": 2, "velocity": 88}, {"time": 3741, "pitch": 50, "duration": 19, "velocity": 79}, {"time": 3741, "pitch": 69, "duration": 4, "velocity": 60}, {"time": 3741, "pitch": 74, "duration": 4, "velocity": 86}, {"time": 3741, "pitch": 78, "duration": 3, "velocity": 19}, {"time": 3744, "pitch": 57, "duration": 9, "velocity": 60}, {"time": 3747, "pitch": 69, "duration": 1, "velocity": 65}, {"time": 3747, "pitch": 78, "duration": 1, "velocity": 102}, {"time": 3750, "pitch": 69, "duration": 1, "velocity": 44}, {"time": 3750, "pitch": 79, "duration": 1, "velocity": 31}, {"time": 3753, "pitch": 62, "duration": 6, "velocity": 79}, {"time": 3753, "pitch": 69, "duration": 1, "velocity": 65}, {"time": 3753, "pitch": 79, "duration": 1, "velocity": 101}, {"time": 3759, "pitch": 57, "duration": 1, "velocity": 74}, {"time": 3759, "pitch": 69, "duration": 1, "velocity": 65}, {"time": 3765, "pitch": 43, "duration": 1, "velocity": 106}, {"time": 3765, "pitch": 74, "duration": 6, "velocity": 72}, {"time": 3765, "pitch": 79, "duration": 5, "velocity": 96}, {"time": 3765, "pitch": 83, "duration": 5, "velocity": 96}, {"time": 3771, "pitch": 55, "duration": 13, "velocity": 85}, {"time": 3774, "pitch": 62, "duration": 7, "velocity": 88}, {"time": 3777, "pitch": 67, "duration": 6, "velocity": 101}, {"time": 3780, "pitch": 72, "duration": 4, "velocity": 85}, {"time": 3783, "pitch": 62, "duration": 4, "velocity": 63}, {"time": 3783, "pitch": 74, "duration": 2, "velocity": 88}, {"time": 3786, "pitch": 71, "duration": 6, "velocity": 90}, {"time": 3786, "pitch": 79, "duration": 5, "velocity": 111}, {"time": 3789, "pitch": 55, "duration": 19, "velocity": 86}, {"time": 3792, "pitch": 62, "duration": 5, "velocity": 63}, {"time": 3792, "pitch": 71, "duration": 1, "velocity": 88}, {"time": 3792, "pitch": 78, "duration": 1, "velocity": 31}, {"time": 3792, "pitch": 78, "duration": 1, "velocity": 81}, {"time": 3795, "pitch": 67, "duration": 3, "velocity": 68}, {"time": 3798, "pitch": 71, "duration": 2, "velocity": 99}, {"time": 3798, "pitch": 79, "duration": 2, "velocity": 85}, {"time": 3801, "pitch": 62, "duration": 3, "velocity": 91}, {"time": 3801, "pitch": 71, "duration": 3, "velocity": 92}, {"time": 3801, "pitch": 79, "duration": 3, "velocity": 85}, {"time": 3804, "pitch": 67, "duration": 3, "velocity": 77}, {"time": 3807, "pitch": 62, "duration": 2, "velocity": 88}, {"time": 3807, "pitch": 71, "duration": 4, "velocity": 88}, {"time": 3807, "pitch": 78, "duration": 3, "velocity": 88}, {"time": 3810, "pitch": 76, "duration": 3, "velocity": 90}, {"time": 3813, "pitch": 47, "duration": 21, "velocity": 92}, {"time": 3813, "pitch": 69, "duration": 4, "velocity": 106}, {"time": 3813, "pitch": 74, "duration": 3, "velocity": 96}, {"time": 3816, "pitch": 59, "duration": 10, "velocity": 65}, {"time": 3819, "pitch": 62, "duration": 4, "velocity": 94}, {"time": 3822, "pitch": 66, "duration": 4, "velocity": 92}, {"time": 3825, "pitch": 62, "duration": 1, "velocity": 26}, {"time": 3825, "pitch": 69, "duration": 3, "velocity": 59}, {"time": 3828, "pitch": 72, "duration": 1, "velocity": 96}, {"time": 3831, "pitch": 59, "duration": 3, "velocity": 42}, {"time": 3831, "pitch": 62, "duration": 1, "velocity": 48}, {"time": 3834, "pitch": 62, "duration": 4, "velocity": 76}, {"time": 3834, "pitch": 66, "duration": 3, "velocity": 74}, {"time": 3834, "pitch": 74, "duration": 4, "velocity": 103}, {"time": 3837, "pitch": 47, "duration": 21, "velocity": 90}, {"time": 3840, "pitch": 59, "duration": 2, "velocity": 70}, {"time": 3840, "pitch": 66, "duration": 1, "velocity": 90}, {"time": 3840, "pitch": 78, "duration": 1, "velocity": 74}, {"time": 3843, "pitch": 67, "duration": 1, "velocity": 72}, {"time": 3843, "pitch": 79, "duration": 1, "velocity": 106}, {"time": 3846, "pitch": 59, "duration": 2, "velocity": 47}, {"time": 3846, "pitch": 66, "duration": 1, "velocity": 44}, {"time": 3849, "pitch": 62, "duration": 2, "velocity": 63}, {"time": 3849, "pitch": 74, "duration": 2, "velocity": 76}, {"time": 3852, "pitch": 54, "duration": 2, "velocity": 45}, {"time": 3852, "pitch": 59, "duration": 1, "velocity": 2}, {"time": 3855, "pitch": 59, "duration": 2, "velocity": 72}, {"time": 3855, "pitch": 71, "duration": 2, "velocity": 107}, {"time": 3858, "pitch": 54, "duration": 1, "velocity": 94}, {"time": 3858, "pitch": 62, "duration": 1, "velocity": 54}, {"time": 3858, "pitch": 74, "duration": 1, "velocity": 99}, {"time": 3861, "pitch": 48, "duration": 19, "velocity": 78}, {"time": 3861, "pitch": 64, "duration": 7, "velocity": 63}, {"time": 3861, "pitch": 76, "duration": 3, "velocity": 101}, {"time": 3864, "pitch": 55, "duration": 18, "velocity": 74}, {"time": 3867, "pitch": 60, "duration": 14, "velocity": 84}, {"time": 3870, "pitch": 64, "duration": 2, "velocity": 90}, {"time": 3873, "pitch": 67, "duration": 2, "velocity": 94}, {"time": 3876, "pitch": 72, "duration": 3, "velocity": 70}, {"time": 3879, "pitch": 76, "duration": 2, "velocity": 72}, {"time": 3882, "pitch": 79, "duration": 3, "velocity": 79}, {"time": 3882, "pitch": 81, "duration": 4, "velocity": 76}, {"time": 3885, "pitch": 50, "duration": 13, "velocity": 85}, {"time": 3885, "pitch": 74, "duration": 4, "velocity": 63}, {"time": 3885, "pitch": 78, "duration": 4, "velocity": 56}, {"time": 3885, "pitch": 84, "duration": 4, "velocity": 54}, {"time": 3888, "pitch": 57, "duration": 6, "velocity": 60}, {"time": 3891, "pitch": 62, "duration": 4, "velocity": 79}, {"time": 3894, "pitch": 66, "duration": 4, "velocity": 74}, {"time": 3894, "pitch": 69, "duration": 4, "velocity": 70}, {"time": 3897, "pitch": 57, "duration": 2, "velocity": 69}, {"time": 3900, "pitch": 62, "duration": 3, "velocity": 60}, {"time": 3900, "pitch": 66, "duration": 3, "velocity": 99}, {"time": 3900, "pitch": 72, "duration": 4, "velocity": 106}, {"time": 3903, "pitch": 42, "duration": 1, "velocity": 105}, {"time": 3906, "pitch": 67, "duration": 2, "velocity": 72}, {"time": 3909, "pitch": 43, "duration": 5, "velocity": 88}, {"time": 3909, "pitch": 62, "duration": 13, "velocity": 76}, {"time": 3909, "pitch": 67, "duration": 13, "velocity": 85}, {"time": 3909, "pitch": 71, "duration": 12, "velocity": 99}, {"time": 3912, "pitch": 50, "duration": 3, "velocity": 77}, {"time": 3915, "pitch": 55, "duration": 4, "velocity": 72}, {"time": 3918, "pitch": 57, "duration": 7, "velocity": 56}, {"time": 3921, "pitch": 59, "duration": 4, "velocity": 70}, {"time": 3924, "pitch": 62, "duration": 4, "velocity": 78}, {"time": 3927, "pitch": 67, "duration": 3, "velocity": 92}, {"time": 3930, "pitch": 71, "duration": 2, "velocity": 96}, {"time": 3933, "pitch": 43, "duration": 18, "velocity": 84}, {"time": 3933, "pitch": 62, "duration": 6, "velocity": 90}, {"time": 3933, "pitch": 65, "duration": 6, "velocity": 92}, {"time": 3933, "pitch": 71, "duration": 6, "velocity": 106}, {"time": 3936, "pitch": 50, "duration": 16, "velocity": 72}, {"time": 3939, "pitch": 55, "duration": 5, "velocity": 96}, {"time": 3942, "pitch": 59, "duration": 2, "velocity": 84}, {"time": 3945, "pitch": 59, "duration": 4, "velocity": 76}, {"time": 3945, "pitch": 62, "duration": 4, "velocity": 91}, {"time": 3945, "pitch": 67, "duration": 4, "velocity": 111}, {"time": 3948, "pitch": 55, "duration": 3, "velocity": 63}, {"time": 3951, "pitch": 59, "duration": 2, "velocity": 72}, {"time": 3951, "pitch": 65, "duration": 2, "velocity": 88}, {"time": 3954, "pitch": 47, "duration": 1, "velocity": 82}, {"time": 3957, "pitch": 48, "duration": 21, "velocity": 90}, {"time": 3957, "pitch": 64, "duration": 7, "velocity": 78}, {"time": 3957, "pitch": 67, "duration": 7, "velocity": 94}, {"time": 3957, "pitch": 71, "duration": 6, "velocity": 99}, {"time": 3963, "pitch": 55, "duration": 13, "velocity": 38}, {"time": 3966, "pitch": 60, "duration": 4, "velocity": 41}, {"time": 3969, "pitch": 64, "duration": 3, "velocity": 86}, {"time": 3969, "pitch": 67, "duration": 3, "velocity": 94}, {"time": 3969, "pitch": 71, "duration": 4, "velocity": 103}, {"time": 3972, "pitch": 60, "duration": 4, "velocity": 60}, {"time": 3975, "pitch": 64, "duration": 2, "velocity": 68}, {"time": 3978, "pitch": 55, "duration": 2, "velocity": 60}, {"time": 3978, "pitch": 67, "duration": 2, "velocity": 74}, {"time": 3981, "pitch": 50, "duration": 18, "velocity": 86}, {"time": 3981, "pitch": 62, "duration": 7, "velocity": 70}, {"time": 3981, "pitch": 66, "duration": 6, "velocity": 69}, {"time": 3981, "pitch": 69, "duration": 6, "velocity": 91}, {"time": 3987, "pitch": 57, "duration": 7, "velocity": 50}, {"time": 3990, "pitch": 62, "duration": 2, "velocity": 47}, {"time": 3993, "pitch": 62, "duration": 3, "velocity": 90}, {"time": 3993, "pitch": 66, "duration": 4, "velocity": 78}, {"time": 3993, "pitch": 69, "duration": 4, "velocity": 92}, {"time": 3996, "pitch": 57, "duration": 4, "velocity": 76}, {"time": 3999, "pitch": 62, "duration": 2, "velocity": 68}, {"time": 3999, "pitch": 67, "duration": 3, "velocity": 92}, {"time": 4002, "pitch": 62, "duration": 1, "velocity": 74}, {"time": 4002, "pitch": 69, "duration": 2, "velocity": 92}, {"time": 4005, "pitch": 47, "duration": 16, "velocity": 84}, {"time": 4005, "pitch": 62, "duration": 6, "velocity": 56}, {"time": 4005, "pitch": 66, "duration": 7, "velocity": 74}, {"time": 4005, "pitch": 74, "duration": 6, "velocity": 72}, {"time": 4011, "pitch": 59, "duration": 6, "velocity": 62}, {"time": 4014, "pitch": 62, "duration": 1, "velocity": 50}, {"time": 4017, "pitch": 62, "duration": 4, "velocity": 76}, {"time": 4017, "pitch": 66, "duration": 4, "velocity": 88}, {"time": 4017, "pitch": 74, "duration": 4, "velocity": 96}, {"time": 4020, "pitch": 59, "duration": 1, "velocity": 60}, {"time": 4023, "pitch": 62, "duration": 2, "velocity": 62}, {"time": 4026, "pitch": 39, "duration": 1, "velocity": 39}, {"time": 4026, "pitch": 69, "duration": 2, "velocity": 72}, {"time": 4029, "pitch": 40, "duration": 3, "velocity": 96}, {"time": 4029, "pitch": 62, "duration": 12, "velocity": 65}, {"time": 4029, "pitch": 67, "duration": 13, "velocity": 70}, {"time": 4029, "pitch": 71, "duration": 12, "velocity": 91}, {"time": 4032, "pitch": 52, "duration": 3, "velocity": 63}, {"time": 4035, "pitch": 54, "duration": 13, "velocity": 93}, {"time": 4038, "pitch": 55, "duration": 10, "velocity": 85}, {"time": 4041, "pitch": 59, "duration": 6, "velocity": 85}, {"time": 4044, "pitch": 62, "duration": 5, "velocity": 85}, {"time": 4047, "pitch": 66, "duration": 3, "velocity": 93}, {"time": 4050, "pitch": 67, "duration": 2, "velocity": 65}, {"time": 4053, "pitch": 48, "duration": 20, "velocity": 27}, {"time": 4053, "pitch": 55, "duration": 20, "velocity": 82}, {"time": 4053, "pitch": 60, "duration": 14, "velocity": 57}, {"time": 4053, "pitch": 64, "duration": 9, "velocity": 77}, {"time": 4053, "pitch": 67, "duration": 8, "velocity": 92}, {"time": 4053, "pitch": 71, "duration": 6, "velocity": 97}, {"time": 4065, "pitch": 64, "duration": 7, "velocity": 68}, {"time": 4065, "pitch": 67, "duration": 6, "velocity": 94}, {"time": 4065, "pitch": 71, "duration": 7, "velocity": 81}, {"time": 4071, "pitch": 60, "duration": 1, "velocity": 54}, {"time": 4077, "pitch": 50, "duration": 52, "velocity": 81}, {"time": 4077, "pitch": 60, "duration": 6, "velocity": 65}, {"time": 4077, "pitch": 64, "duration": 7, "velocity": 72}, {"time": 4077, "pitch": 67, "duration": 7, "velocity": 82}, {"time": 4086, "pitch": 57, "duration": 45, "velocity": 51}, {"time": 4089, "pitch": 62, "duration": 41, "velocity": 42}, {"time": 4092, "pitch": 64, "duration": 3, "velocity": 60}, {"time": 4095, "pitch": 67, "duration": 1, "velocity": 65}, {"time": 4098, "pitch": 69, "duration": 5, "velocity": 39}, {"time": 4101, "pitch": 72, "duration": 3, "velocity": 60}, {"time": 4104, "pitch": 76, "duration": 3, "velocity": 59}, {"time": 4110, "pitch": 79, "duration": 4, "velocity": 63}, {"time": 4113, "pitch": 81, "duration": 6, "velocity": 39}, {"time": 4133, "pitch": 59, "duration": 9, "velocity": 38}, {"time": 4133, "pitch": 43, "duration": 15, "velocity": 88}, {"time": 4133, "pitch": 62, "duration": 8, "velocity": 63}, {"time": 4134, "pitch": 67, "duration": 8, "velocity": 51}, {"time": 4140, "pitch": 50, "duration": 8, "velocity": 50}, {"time": 4147, "pitch": 69, "duration": 7, "velocity": 60}, {"time": 4148, "pitch": 55, "duration": 9, "velocity": 63}, {"time": 4156, "pitch": 59, "duration": 13, "velocity": 47}, {"time": 4162, "pitch": 71, "duration": 5, "velocity": 53}, {"time": 4185, "pitch": 72, "duration": 10, "velocity": 41}, {"time": 4185, "pitch": 63, "duration": 8, "velocity": 45}, {"time": 4185, "pitch": 67, "duration": 6, "velocity": 77}, {"time": 4186, "pitch": 48, "duration": 38, "velocity": 79}, {"time": 4192, "pitch": 55, "duration": 33, "velocity": 82}, {"time": 4198, "pitch": 60, "duration": 26, "velocity": 60}, {"time": 4198, "pitch": 69, "duration": 12, "velocity": 79}, {"time": 4204, "pitch": 63, "duration": 13, "velocity": 39}, {"time": 4210, "pitch": 67, "duration": 15, "velocity": 68}, {"time": 4234, "pitch": 47, "duration": 17, "velocity": 60}, {"time": 4234, "pitch": 62, "duration": 7, "velocity": 50}, {"time": 4234, "pitch": 69, "duration": 7, "velocity": 53}, {"time": 4240, "pitch": 59, "duration": 14, "velocity": 50}, {"time": 4245, "pitch": 62, "duration": 9, "velocity": 63}, {"time": 4251, "pitch": 74, "duration": 5, "velocity": 72}, {"time": 4258, "pitch": 52, "duration": 19, "velocity": 63}, {"time": 4258, "pitch": 62, "duration": 6, "velocity": 47}, {"time": 4258, "pitch": 67, "duration": 10, "velocity": 63}, {"time": 4271, "pitch": 74, "duration": 4, "velocity": 66}, {"time": 4271, "pitch": 59, "duration": 5, "velocity": 23}, {"time": 4281, "pitch": 64, "duration": 5, "velocity": 44}, {"time": 4281, "pitch": 67, "duration": 6, "velocity": 65}, {"time": 4281, "pitch": 45, "duration": 17, "velocity": 54}, {"time": 4282, "pitch": 72, "duration": 7, "velocity": 63}, {"time": 4287, "pitch": 52, "duration": 12, "velocity": 60}, {"time": 4287, "pitch": 71, "duration": 5, "velocity": 66}, {"time": 4292, "pitch": 57, "duration": 7, "velocity": 34}, {"time": 4293, "pitch": 67, "duration": 6, "velocity": 63}, {"time": 4299, "pitch": 64, "duration": 7, "velocity": 56}, {"time": 4305, "pitch": 50, "duration": 34, "velocity": 63}, {"time": 4305, "pitch": 60, "duration": 6, "velocity": 53}, {"time": 4310, "pitch": 57, "duration": 28, "velocity": 39}, {"time": 4317, "pitch": 62, "duration": 6, "velocity": 45}, {"time": 4317, "pitch": 67, "duration": 2, "velocity": 65}, {"time": 4323, "pitch": 69, "duration": 4, "velocity": 50}, {"time": 4330, "pitch": 74, "duration": 3, "velocity": 27}, {"time": 4351, "pitch": 67, "duration": 4, "velocity": 18}, {"time": 4352, "pitch": 71, "duration": 3, "velocity": 18}, {"time": 4352, "pitch": 48, "duration": 9, "velocity": 44}, {"time": 4353, "pitch": 76, "duration": 6, "velocity": 57}, {"time": 4359, "pitch": 74, "duration": 1, "velocity": 78}, {"time": 4366, "pitch": 38, "duration": 6, "velocity": 68}, {"time": 4366, "pitch": 66, "duration": 4, "velocity": 39}, {"time": 4366, "pitch": 72, "duration": 5, "velocity": 33}, {"time": 4367, "pitch": 62, "duration": 4, "velocity": 44}, {"time": 4373, "pitch": 69, "duration": 2, "velocity": 39}, {"time": 4383, "pitch": 57, "duration": 16, "velocity": 22}, {"time": 4384, "pitch": 43, "duration": 16, "velocity": 39}, {"time": 4384, "pitch": 55, "duration": 16, "velocity": 42}, {"time": 4384, "pitch": 62, "duration": 16, "velocity": 57}, {"time": 4384, "pitch": 59, "duration": 16, "velocity": 14}, {"time": 4386, "pitch": 67, "duration": 13, "velocity": 45}], "annotations": [{"time": 8, "annotation": {"number": 64, "value": 127}, "group": "control_change"}, {"time": 20, "annotation": {"number": 64, "value": 127}, "group": "control_change"}, {"time": 20, "annotation": {"number": 64, "value": 0}, "group": "control_change"}, {"time": 67, "annotation": {"number": 64, "value": 0}, "group": "control_change"}, {"time": 67, "annotation": {"number": 64, "value": 127}, "group": "control_change"}, {"time": 69, "annotation": {"number": 64, "value": 127}, "group": "control_change"}, {"time": 70, "annotation": {"number": 64, "value": 0}, "group": "control_change"}, {"time": 72, "annotation": {"number": 64, "value": 127}, "group": "control_change"}, {"time": 93, "annotation": {"number": 64, "value": 127}, "group": "control_change"}, {"time": 93, "annotation": {"number": 64, "value": 0}, "group": "control_change"}, {"time": 97, "annotation": {"number": 64, "value": 127}, "group": "control_change"}, {"time": 104, "annotation": {"number": 64, "value": 0}, "group": "control_change"}, {"time": 104, "annotation": {"number": 64, "value": 127}, "group": "control_change"}, {"time": 117, "annotation": {"number": 64, "value": 0}, "group": "control_change"}, {"time": 119, "annotation": {"number": 64, "value": 127}, "group": "control_change"}, {"time": 165, "annotation": {"number": 64, "value": 127}, "group": "control_change"}, {"time": 165, "annotation": {"number": 64, "value": 0}, "group": "control_change"}, {"time": 187, "annotation": {"number": 64, "value": 127}, "group": "control_change"}, {"time": 213, "annotation": {"number": 64, "value": 0}, "group": "control_change"}, {"time": 215, "annotation": {"number": 64, "value": 127}, "group": "control_change"}, {"time": 236, "annotation": {"number": 64, "value": 127}, "group": "control_change"}, {"time": 236, "annotation": {"number": 64, "value": 0}, "group": "control_change"}, {"time": 237, "annotation": {"number": 64, "value": 127}, "group": "control_change"}, {"time": 258, "annotation": {"number": 64, "value": 0}, "group": "control_change"}, {"time": 258, "annotation": {"number": 64, "value": 127}, "group": "control_change"}, {"time": 260, "annotation": {"number": 64, "value": 0}, "group": "control_change"}, {"time": 261, "annotation": {"number": 64, "value": 127}, "group": "control_change"}, {"time": 267, "annotation": {"number": 64, "value": 127}, "group": "control_change"}, {"time": 299, "annotation": {"number": 64, "value": 127}, "group": "control_change"}, {"time": 308, "annotation": {"number": 64, "value": 0}, "group": "control_change"}, {"time": 356, "annotation": {"number": 64, "value": 0}, "group": "control_change"}, {"time": 360, "annotation": {"number": 64, "value": 127}, "group": "control_change"}, {"time": 387, "annotation": {"number": 64, "value": 0}, "group": "control_change"}, {"time": 406, "annotation": {"number": 64, "value": 127}, "group": "control_change"}, {"time": 452, "annotation": {"number": 64, "value": 0}, "group": "control_change"}, {"time": 454, "annotation": {"number": 64, "value": 127}, "group": "control_change"}, {"time": 501, "annotation": {"number": 64, "value": 0}, "group": "control_change"}, {"time": 504, "annotation": {"number": 64, "value": 127}, "group": "control_change"}, {"time": 524, "annotation": {"number": 64, "value": 0}, "group": "control_change"}, {"time": 527, "annotation": {"number": 64, "value": 127}, "group": "control_change"}, {"time": 550, "annotation": {"number": 64, "value": 0}, "group": "control_change"}, {"time": 553, "annotation": {"number": 64, "value": 127}, "group": "control_change"}, {"time": 573, "annotation": {"number": 64, "value": 0}, "group": "control_change"}, {"time": 575, "annotation": {"number": 64, "value": 127}, "group": "control_change"}, {"time": 575, "annotation": {"number": 64, "value": 0}, "group": "control_change"}, {"time": 595, "annotation": {"number": 64, "value": 0}, "group": "control_change"}, {"time": 596, "annotation": {"number": 64, "value": 127}, "group": "control_change"}, {"time": 597, "annotation": {"number": 64, "value": 0}, "group": "control_change"}, {"time": 597, "annotation": {"number": 64, "value": 127}, "group": "control_change"}, {"time": 602, "annotation": {"number": 64, "value": 127}, "group": "control_change"}, {"time": 605, "annotation": {"number": 64, "value": 0}, "group": "control_change"}, {"time": 621, "annotation": {"number": 64, "value": 0}, "group": "control_change"}, {"time": 624, "annotation": {"number": 64, "value": 127}, "group": "control_change"}, {"time": 629, "annotation": {"number": 64, "value": 0}, "group": "control_change"}, {"time": 630, "annotation": {"number": 64, "value": 127}, "group": "control_change"}, {"time": 630, "annotation": {"number": 64, "value": 0}, "group": "control_change"}, {"time": 644, "annotation": {"number": 64, "value": 127}, "group": "control_change"}, {"time": 647, "annotation": {"number": 64, "value": 0}, "group": "control_change"}, {"time": 669, "annotation": {"number": 64, "value": 0}, "group": "control_change"}, {"time": 674, "annotation": {"number": 64, "value": 127}, "group": "control_change"}, {"time": 693, "annotation": {"number": 64, "value": 0}, "group": "control_change"}, {"time": 698, "annotation": {"number": 64, "value": 127}, "group": "control_change"}, {"time": 739, "annotation": {"number": 64, "value": 0}, "group": "control_change"}, {"time": 744, "annotation": {"number": 64, "value": 127}, "group": "control_change"}, {"time": 767, "annotation": {"number": 64, "value": 0}, "group": "control_change"}, {"time": 770, "annotation": {"number": 64, "value": 127}, "group": "control_change"}, {"time": 789, "annotation": {"number": 64, "value": 0}, "group": "control_change"}, {"time": 790, "annotation": {"number": 64, "value": 127}, "group": "control_change"}, {"time": 837, "annotation": {"number": 64, "value": 0}, "group": "control_change"}, {"time": 840, "annotation": {"number": 64, "value": 127}, "group": "control_change"}, {"time": 885, "annotation": {"number": 64, "value": 0}, "group": "control_change"}, {"time": 889, "annotation": {"number": 64, "value": 127}, "group": "control_change"}, {"time": 909, "annotation": {"number": 64, "value": 0}, "group": "control_change"}, {"time": 912, "annotation": {"number": 64, "value": 127}, "group": "control_change"}, {"time": 912, "annotation": {"number": 64, "value": 0}, "group": "control_change"}, {"time": 933, "annotation": {"number": 64, "value": 0}, "group": "control_change"}, {"time": 934, "annotation": {"number": 64, "value": 127}, "group": "control_change"}, {"time": 981, "annotation": {"number": 64, "value": 0}, "group": "control_change"}, {"time": 983, "annotation": {"number": 64, "value": 127}, "group": "control_change"}, {"time": 1004, "annotation": {"number": 64, "value": 0}, "group": "control_change"}, {"time": 1009, "annotation": {"number": 64, "value": 127}, "group": "control_change"}, {"time": 1028, "annotation": {"number": 64, "value": 0}, "group": "control_change"}, {"time": 1034, "annotation": {"number": 64, "value": 127}, "group": "control_change"}, {"time": 1052, "annotation": {"number": 64, "value": 0}, "group": "control_change"}, {"time": 1055, "annotation": {"number": 64, "value": 127}, "group": "control_change"}, {"time": 1077, "annotation": {"number": 64, "value": 0}, "group": "control_change"}, {"time": 1080, "annotation": {"number": 64, "value": 127}, "group": "control_change"}, {"time": 1125, "annotation": {"number": 64, "value": 0}, "group": "control_change"}, {"time": 1127, "annotation": {"number": 64, "value": 127}, "group": "control_change"}, {"time": 1148, "annotation": {"number": 64, "value": 0}, "group": "control_change"}, {"time": 1150, "annotation": {"number": 64, "value": 127}, "group": "control_change"}, {"time": 1173, "annotation": {"number": 64, "value": 0}, "group": "control_change"}, {"time": 1175, "annotation": {"number": 64, "value": 127}, "group": "control_change"}, {"time": 1221, "annotation": {"number": 64, "value": 0}, "group": "control_change"}, {"time": 1221, "annotation": {"number": 64, "value": 127}, "group": "control_change"}, {"time": 1267, "annotation": {"number": 64, "value": 0}, "group": "control_change"}, {"time": 1269, "annotation": {"number": 64, "value": 127}, "group": "control_change"}, {"time": 1293, "annotation": {"number": 64, "value": 0}, "group": "control_change"}, {"time": 1295, "annotation": {"number": 64, "value": 127}, "group": "control_change"}, {"time": 1317, "annotation": {"number": 64, "value": 0}, "group": "control_change"}, {"time": 1318, "annotation": {"number": 64, "value": 127}, "group": "control_change"}, {"time": 1342, "annotation": {"number": 64, "value": 0}, "group": "control_change"}, {"time": 1344, "annotation": {"number": 64, "value": 127}, "group": "control_change"}, {"time": 1365, "annotation": {"number": 64, "value": 0}, "group": "control_change"}, {"time": 1367, "annotation": {"number": 64, "value": 127}, "group": "control_change"}, {"time": 1387, "annotation": {"number": 64, "value": 0}, "group": "control_change"}, {"time": 1389, "annotation": {"number": 64, "value": 127}, "group": "control_change"}, {"time": 1413, "annotation": {"number": 64, "value": 0}, "group": "control_change"}, {"time": 1416, "annotation": {"number": 64, "value": 127}, "group": "control_change"}, {"time": 1437, "annotation": {"number": 64, "value": 127}, "group": "control_change"}, {"time": 1437, "annotation": {"number": 64, "value": 0}, "group": "control_change"}, {"time": 1460, "annotation": {"number": 64, "value": 0}, "group": "control_change"}, {"time": 1463, "annotation": {"number": 64, "value": 127}, "group": "control_change"}, {"time": 1485, "annotation": {"number": 64, "value": 0}, "group": "control_change"}, {"time": 1487, "annotation": {"number": 64, "value": 127}, "group": "control_change"}, {"time": 1508, "annotation": {"number": 64, "value": 0}, "group": "control_change"}, {"time": 1510, "annotation": {"number": 64, "value": 127}, "group": "control_change"}, {"time": 1534, "annotation": {"number": 64, "value": 0}, "group": "control_change"}, {"time": 1535, "annotation": {"number": 64, "value": 127}, "group": "control_change"}, {"time": 1555, "annotation": {"number": 64, "value": 0}, "group": "control_change"}, {"time": 1557, "annotation": {"number": 64, "value": 127}, "group": "control_change"}, {"time": 1604, "annotation": {"number": 64, "value": 0}, "group": "control_change"}, {"time": 1606, "annotation": {"number": 64, "value": 127}, "group": "control_change"}, {"time": 1652, "annotation": {"number": 64, "value": 0}, "group": "control_change"}, {"time": 1653, "annotation": {"number": 64, "value": 127}, "group": "control_change"}, {"time": 1676, "annotation": {"number": 64, "value": 0}, "group": "control_change"}, {"time": 1678, "annotation": {"number": 64, "value": 127}, "group": "control_change"}, {"time": 1701, "annotation": {"number": 64, "value": 0}, "group": "control_change"}, {"time": 1704, "annotation": {"number": 64, "value": 127}, "group": "control_change"}, {"time": 1726, "annotation": {"number": 64, "value": 0}, "group": "control_change"}, {"time": 1727, "annotation": {"number": 64, "value": 127}, "group": "control_change"}, {"time": 1749, "annotation": {"number": 64, "value": 0}, "group": "control_change"}, {"time": 1752, "annotation": {"number": 64, "value": 127}, "group": "control_change"}, {"time": 1773, "annotation": {"number": 64, "value": 0}, "group": "control_change"}, {"time": 1778, "annotation": {"number": 64, "value": 127}, "group": "control_change"}, {"time": 1796, "annotation": {"number": 64, "value": 0}, "group": "control_change"}, {"time": 1797, "annotation": {"number": 64, "value": 127}, "group": "control_change"}, {"time": 1820, "annotation": {"number": 64, "value": 0}, "group": "control_change"}, {"time": 1822, "annotation": {"number": 64, "value": 127}, "group": "control_change"}, {"time": 1844, "annotation": {"number": 64, "value": 0}, "group": "control_change"}, {"time": 1846, "annotation": {"number": 64, "value": 127}, "group": "control_change"}, {"time": 1867, "annotation": {"number": 64, "value": 127}, "group": "control_change"}, {"time": 1869, "annotation": {"number": 64, "value": 0}, "group": "control_change"}, {"time": 1891, "annotation": {"number": 64, "value": 0}, "group": "control_change"}, {"time": 1893, "annotation": {"number": 64, "value": 127}, "group": "control_change"}, {"time": 1941, "annotation": {"number": 64, "value": 0}, "group": "control_change"}, {"time": 1943, "annotation": {"number": 64, "value": 127}, "group": "control_change"}, {"time": 2038, "annotation": {"number": 64, "value": 127}, "group": "control_change"}, {"time": 2080, "annotation": {"number": 64, "value": 0}, "group": "control_change"}, {"time": 2086, "annotation": {"number": 64, "value": 127}, "group": "control_change"}, {"time": 2132, "annotation": {"number": 64, "value": 0}, "group": "control_change"}, {"time": 2135, "annotation": {"number": 64, "value": 127}, "group": "control_change"}, {"time": 2181, "annotation": {"number": 64, "value": 0}, "group": "control_change"}, {"time": 2183, "annotation": {"number": 64, "value": 127}, "group": "control_change"}, {"time": 2205, "annotation": {"number": 64, "value": 0}, "group": "control_change"}, {"time": 2208, "annotation": {"number": 64, "value": 127}, "group": "control_change"}, {"time": 2229, "annotation": {"number": 64, "value": 0}, "group": "control_change"}, {"time": 2231, "annotation": {"number": 64, "value": 127}, "group": "control_change"}, {"time": 2254, "annotation": {"number": 64, "value": 0}, "group": "control_change"}, {"time": 2255, "annotation": {"number": 64, "value": 127}, "group": "control_change"}, {"time": 2276, "annotation": {"number": 64, "value": 0}, "group": "control_change"}, {"time": 2277, "annotation": {"number": 64, "value": 127}, "group": "control_change"}, {"time": 2300, "annotation": {"number": 64, "value": 0}, "group": "control_change"}, {"time": 2302, "annotation": {"number": 64, "value": 127}, "group": "control_change"}, {"time": 2325, "annotation": {"number": 64, "value": 0}, "group": "control_change"}, {"time": 2327, "annotation": {"number": 64, "value": 127}, "group": "control_change"}, {"time": 2347, "annotation": {"number": 64, "value": 0}, "group": "control_change"}, {"time": 2349, "annotation": {"number": 64, "value": 127}, "group": "control_change"}, {"time": 2374, "annotation": {"number": 64, "value": 0}, "group": "control_change"}, {"time": 2376, "annotation": {"number": 64, "value": 127}, "group": "control_change"}, {"time": 2420, "annotation": {"number": 64, "value": 0}, "group": "control_change"}, {"time": 2422, "annotation": {"number": 64, "value": 127}, "group": "control_change"}, {"time": 2448, "annotation": {"number": 64, "value": 0}, "group": "control_change"}, {"time": 2470, "annotation": {"number": 64, "value": 127}, "group": "control_change"}, {"time": 2517, "annotation": {"number": 64, "value": 0}, "group": "control_change"}, {"time": 2518, "annotation": {"number": 64, "value": 127}, "group": "control_change"}, {"time": 2564, "annotation": {"number": 64, "value": 0}, "group": "control_change"}, {"time": 2565, "annotation": {"number": 64, "value": 127}, "group": "control_change"}, {"time": 2589, "annotation": {"number": 64, "value": 0}, "group": "control_change"}, {"time": 2592, "annotation": {"number": 64, "value": 127}, "group": "control_change"}, {"time": 2613, "annotation": {"number": 64, "value": 0}, "group": "control_change"}, {"time": 2616, "annotation": {"number": 64, "value": 127}, "group": "control_change"}, {"time": 2638, "annotation": {"number": 64, "value": 0}, "group": "control_change"}, {"time": 2639, "annotation": {"number": 64, "value": 127}, "group": "control_change"}, {"time": 2661, "annotation": {"number": 64, "value": 0}, "group": "control_change"}, {"time": 2663, "annotation": {"number": 64, "value": 127}, "group": "control_change"}, {"time": 2685, "annotation": {"number": 64, "value": 0}, "group": "control_change"}, {"time": 2688, "annotation": {"number": 64, "value": 127}, "group": "control_change"}, {"time": 2709, "annotation": {"number": 64, "value": 0}, "group": "control_change"}, {"time": 2711, "annotation": {"number": 64, "value": 127}, "group": "control_change"}, {"time": 2732, "annotation": {"number": 64, "value": 0}, "group": "control_change"}, {"time": 2734, "annotation": {"number": 64, "value": 127}, "group": "control_change"}, {"time": 2757, "annotation": {"number": 64, "value": 0}, "group": "control_change"}, {"time": 2758, "annotation": {"number": 64, "value": 127}, "group": "control_change"}, {"time": 2783, "annotation": {"number": 64, "value": 0}, "group": "control_change"}, {"time": 2784, "annotation": {"number": 64, "value": 127}, "group": "control_change"}, {"time": 2805, "annotation": {"number": 64, "value": 0}, "group": "control_change"}, {"time": 2807, "annotation": {"number": 64, "value": 127}, "group": "control_change"}, {"time": 2829, "annotation": {"number": 64, "value": 0}, "group": "control_change"}, {"time": 2830, "annotation": {"number": 64, "value": 127}, "group": "control_change"}, {"time": 2853, "annotation": {"number": 64, "value": 127}, "group": "control_change"}, {"time": 2902, "annotation": {"number": 64, "value": 0}, "group": "control_change"}, {"time": 2904, "annotation": {"number": 64, "value": 127}, "group": "control_change"}, {"time": 2948, "annotation": {"number": 64, "value": 0}, "group": "control_change"}, {"time": 2951, "annotation": {"number": 64, "value": 127}, "group": "control_change"}, {"time": 2973, "annotation": {"number": 64, "value": 0}, "group": "control_change"}, {"time": 2976, "annotation": {"number": 64, "value": 127}, "group": "control_change"}, {"time": 2998, "annotation": {"number": 64, "value": 0}, "group": "control_change"}, {"time": 3001, "annotation": {"number": 64, "value": 127}, "group": "control_change"}, {"time": 3021, "annotation": {"number": 64, "value": 0}, "group": "control_change"}, {"time": 3024, "annotation": {"number": 64, "value": 127}, "group": "control_change"}, {"time": 3045, "annotation": {"number": 64, "value": 0}, "group": "control_change"}, {"time": 3047, "annotation": {"number": 64, "value": 127}, "group": "control_change"}, {"time": 3069, "annotation": {"number": 64, "value": 0}, "group": "control_change"}, {"time": 3071, "annotation": {"number": 64, "value": 127}, "group": "control_change"}, {"time": 3093, "annotation": {"number": 64, "value": 0}, "group": "control_change"}, {"time": 3094, "annotation": {"number": 64, "value": 127}, "group": "control_change"}, {"time": 3105, "annotation": {"number": 64, "value": 0}, "group": "control_change"}, {"time": 3106, "annotation": {"number": 64, "value": 127}, "group": "control_change"}, {"time": 3117, "annotation": {"number": 64, "value": 0}, "group": "control_change"}, {"time": 3121, "annotation": {"number": 64, "value": 127}, "group": "control_change"}, {"time": 3130, "annotation": {"number": 64, "value": 0}, "group": "control_change"}, {"time": 3131, "annotation": {"number": 64, "value": 127}, "group": "control_change"}, {"time": 3141, "annotation": {"number": 64, "value": 0}, "group": "control_change"}, {"time": 3144, "annotation": {"number": 64, "value": 127}, "group": "control_change"}, {"time": 3166, "annotation": {"number": 64, "value": 0}, "group": "control_change"}, {"time": 3168, "annotation": {"number": 64, "value": 127}, "group": "control_change"}, {"time": 3189, "annotation": {"number": 64, "value": 0}, "group": "control_change"}, {"time": 3190, "annotation": {"number": 64, "value": 127}, "group": "control_change"}, {"time": 3200, "annotation": {"number": 64, "value": 0}, "group": "control_change"}, {"time": 3224, "annotation": {"number": 64, "value": 127}, "group": "control_change"}, {"time": 3236, "annotation": {"number": 64, "value": 0}, "group": "control_change"}, {"time": 3247, "annotation": {"number": 64, "value": 127}, "group": "control_change"}, {"time": 3261, "annotation": {"number": 64, "value": 0}, "group": "control_change"}, {"time": 3308, "annotation": {"number": 64, "value": 127}, "group": "control_change"}, {"time": 3319, "annotation": {"number": 64, "value": 0}, "group": "control_change"}, {"time": 3326, "annotation": {"number": 64, "value": 127}, "group": "control_change"}, {"time": 3333, "annotation": {"number": 64, "value": 0}, "group": "control_change"}, {"time": 3335, "annotation": {"number": 64, "value": 127}, "group": "control_change"}, {"time": 3380, "annotation": {"number": 64, "value": 0}, "group": "control_change"}, {"time": 3381, "annotation": {"number": 64, "value": 127}, "group": "control_change"}, {"time": 3429, "annotation": {"number": 64, "value": 0}, "group": "control_change"}, {"time": 3430, "annotation": {"number": 64, "value": 127}, "group": "control_change"}, {"time": 3463, "annotation": {"number": 64, "value": 0}, "group": "control_change"}, {"time": 3497, "annotation": {"number": 64, "value": 127}, "group": "control_change"}, {"time": 3502, "annotation": {"number": 64, "value": 0}, "group": "control_change"}, {"time": 3526, "annotation": {"number": 64, "value": 127}, "group": "control_change"}, {"time": 3572, "annotation": {"number": 64, "value": 0}, "group": "control_change"}, {"time": 3573, "annotation": {"number": 64, "value": 127}, "group": "control_change"}, {"time": 3598, "annotation": {"number": 64, "value": 0}, "group": "control_change"}, {"time": 3599, "annotation": {"number": 64, "value": 127}, "group": "control_change"}, {"time": 3622, "annotation": {"number": 64, "value": 0}, "group": "control_change"}, {"time": 3623, "annotation": {"number": 64, "value": 127}, "group": "control_change"}, {"time": 3644, "annotation": {"number": 64, "value": 0}, "group": "control_change"}, {"time": 3645, "annotation": {"number": 64, "value": 127}, "group": "control_change"}, {"time": 3669, "annotation": {"number": 64, "value": 0}, "group": "control_change"}, {"time": 3671, "annotation": {"number": 64, "value": 127}, "group": "control_change"}, {"time": 3695, "annotation": {"number": 64, "value": 0}, "group": "control_change"}, {"time": 3697, "annotation": {"number": 64, "value": 127}, "group": "control_change"}, {"time": 3717, "annotation": {"number": 64, "value": 0}, "group": "control_change"}, {"time": 3718, "annotation": {"number": 64, "value": 127}, "group": "control_change"}, {"time": 3743, "annotation": {"number": 64, "value": 0}, "group": "control_change"}, {"time": 3744, "annotation": {"number": 64, "value": 127}, "group": "control_change"}, {"time": 3813, "annotation": {"number": 64, "value": 0}, "group": "control_change"}, {"time": 3814, "annotation": {"number": 64, "value": 127}, "group": "control_change"}, {"time": 3862, "annotation": {"number": 64, "value": 0}, "group": "control_change"}, {"time": 3863, "annotation": {"number": 64, "value": 127}, "group": "control_change"}, {"time": 3885, "annotation": {"number": 64, "value": 0}, "group": "control_change"}, {"time": 3887, "annotation": {"number": 64, "value": 127}, "group": "control_change"}, {"time": 3910, "annotation": {"number": 64, "value": 0}, "group": "control_change"}, {"time": 3911, "annotation": {"number": 64, "value": 127}, "group": "control_change"}, {"time": 3934, "annotation": {"number": 64, "value": 0}, "group": "control_change"}, {"time": 3936, "annotation": {"number": 64, "value": 127}, "group": "control_change"}, {"time": 3958, "annotation": {"number": 64, "value": 0}, "group": "control_change"}, {"time": 3960, "annotation": {"number": 64, "value": 127}, "group": "control_change"}, {"time": 3982, "annotation": {"number": 64, "value": 0}, "group": "control_change"}, {"time": 3984, "annotation": {"number": 64, "value": 127}, "group": "control_change"}, {"time": 4005, "annotation": {"number": 64, "value": 0}, "group": "control_change"}, {"time": 4007, "annotation": {"number": 64, "value": 127}, "group": "control_change"}, {"time": 4031, "annotation": {"number": 64, "value": 0}, "group": "control_change"}, {"time": 4033, "annotation": {"number": 64, "value": 127}, "group": "control_change"}, {"time": 4055, "annotation": {"number": 64, "value": 0}, "group": "control_change"}, {"time": 4056, "annotation": {"number": 64, "value": 127}, "group": "control_change"}, {"time": 4080, "annotation": {"number": 64, "value": 0}, "group": "control_change"}, {"time": 4082, "annotation": {"number": 64, "value": 127}, "group": "control_change"}, {"time": 4134, "annotation": {"number": 64, "value": 127}, "group": "control_change"}, {"time": 4141, "annotation": {"number": 64, "value": 0}, "group": "control_change"}, {"time": 4185, "annotation": {"number": 64, "value": 0}, "group": "control_change"}, {"time": 4187, "annotation": {"number": 64, "value": 127}, "group": "control_change"}, {"time": 4235, "annotation": {"number": 64, "value": 0}, "group": "control_change"}, {"time": 4238, "annotation": {"number": 64, "value": 127}, "group": "control_change"}, {"time": 4258, "annotation": {"number": 64, "value": 0}, "group": "control_change"}, {"time": 4260, "annotation": {"number": 64, "value": 127}, "group": "control_change"}, {"time": 4282, "annotation": {"number": 64, "value": 0}, "group": "control_change"}, {"time": 4285, "annotation": {"number": 64, "value": 127}, "group": "control_change"}, {"time": 4307, "annotation": {"number": 64, "value": 0}, "group": "control_change"}, {"time": 4309, "annotation": {"number": 64, "value": 127}, "group": "control_change"}, {"time": 4385, "annotation": {"number": 64, "value": 0}, "group": "control_change"}, {"time": 4388, "annotation": {"number": 64, "value": 127}, "group": "control_change"}, {"time": 4413, "annotation": {"number": 64, "value": 0}, "group": "control_change"}]}]}