{"metadata": {"schema_version": "0.2", "title": "None", "source_filename": "240.mid", "source_format": "midi"}, "resolution": 12, "tempos": [{"time": 0, "qpm": 124.000248000496}, {"time": 1851, "qpm": 113.00030886751091}, {"time": 1863, "qpm": 124.000248000496}, {"time": 6950, "qpm": 30.0}], "time_signatures": [{"time": 0, "numerator": 4, "denominator": 4}], "tracks": [{"program": 0, "is_drum": false, "name": "MELODY", "notes": [{"time": 1113, "pitch": 71, "duration": 6, "velocity": 86}, {"time": 1119, "pitch": 79, "duration": 12, "velocity": 93}, {"time": 1131, "pitch": 79, "duration": 6, "velocity": 95}, {"time": 1137, "pitch": 79, "duration": 18, "velocity": 90}, {"time": 1155, "pitch": 78, "duration": 12, "velocity": 100}, {"time": 1167, "pitch": 76, "duration": 12, "velocity": 94}, {"time": 1179, "pitch": 79, "duration": 13, "velocity": 99}, {"time": 1191, "pitch": 78, "duration": 18, "velocity": 106}, {"time": 1209, "pitch": 74, "duration": 66, "velocity": 85}, {"time": 1275, "pitch": 71, "duration": 7, "velocity": 90}, {"time": 1281, "pitch": 74, "duration": 7, "velocity": 91}, {"time": 1287, "pitch": 76, "duration": 48, "velocity": 100}, {"time": 1335, "pitch": 76, "duration": 12, "velocity": 100}, {"time": 1347, "pitch": 74, "duration": 7, "velocity": 97}, {"time": 1353, "pitch": 72, "duration": 12, "velocity": 71}, {"time": 1365, "pitch": 74, "duration": 12, "velocity": 87}, {"time": 1377, "pitch": 71, "duration": 55, "velocity": 92}, {"time": 1497, "pitch": 71, "duration": 6, "velocity": 90}, {"time": 1503, "pitch": 79, "duration": 12, "velocity": 93}, {"time": 1515, "pitch": 79, "duration": 6, "velocity": 99}, {"time": 1521, "pitch": 79, "duration": 19, "velocity": 98}, {"time": 1542, "pitch": 78, "duration": 12, "velocity": 97}, {"time": 1551, "pitch": 76, "duration": 12, "velocity": 90}, {"time": 1563, "pitch": 79, "duration": 12, "velocity": 96}, {"time": 1575, "pitch": 78, "duration": 24, "velocity": 100}, {"time": 1599, "pitch": 83, "duration": 12, "velocity": 95}, {"time": 1611, "pitch": 78, "duration": 47, "velocity": 100}, {"time": 1659, "pitch": 71, "duration": 10, "velocity": 87}, {"time": 1665, "pitch": 74, "duration": 9, "velocity": 91}, {"time": 1671, "pitch": 76, "duration": 37, "velocity": 100}, {"time": 1710, "pitch": 76, "duration": 10, "velocity": 92}, {"time": 1719, "pitch": 79, "duration": 13, "velocity": 89}, {"time": 1731, "pitch": 78, "duration": 6, "velocity": 92}, {"time": 1737, "pitch": 76, "duration": 18, "velocity": 93}, {"time": 1755, "pitch": 74, "duration": 13, "velocity": 100}, {"time": 1767, "pitch": 76, "duration": 84, "velocity": 106}, {"time": 1851, "pitch": 74, "duration": 12, "velocity": 111}, {"time": 1863, "pitch": 76, "duration": 19, "velocity": 106}, {"time": 1881, "pitch": 83, "duration": 54, "velocity": 108}, {"time": 1935, "pitch": 81, "duration": 12, "velocity": 108}, {"time": 1947, "pitch": 79, "duration": 13, "velocity": 108}, {"time": 1959, "pitch": 81, "duration": 72, "velocity": 101}, {"time": 2031, "pitch": 79, "duration": 12, "velocity": 109}, {"time": 2043, "pitch": 78, "duration": 12, "velocity": 114}, {"time": 2055, "pitch": 76, "duration": 36, "velocity": 114}, {"time": 2091, "pitch": 79, "duration": 12, "velocity": 101}, {"time": 2103, "pitch": 78, "duration": 39, "velocity": 114}, {"time": 2139, "pitch": 74, "duration": 20, "velocity": 109}, {"time": 2163, "pitch": 71, "duration": 75, "velocity": 100}, {"time": 2235, "pitch": 74, "duration": 12, "velocity": 109}, {"time": 2247, "pitch": 76, "duration": 24, "velocity": 109}, {"time": 2271, "pitch": 83, "duration": 48, "velocity": 105}, {"time": 2319, "pitch": 81, "duration": 12, "velocity": 108}, {"time": 2331, "pitch": 79, "duration": 12, "velocity": 100}, {"time": 2343, "pitch": 81, "duration": 24, "velocity": 103}, {"time": 2367, "pitch": 86, "duration": 24, "velocity": 109}, {"time": 2391, "pitch": 83, "duration": 36, "velocity": 101}, {"time": 2427, "pitch": 76, "duration": 7, "velocity": 105}, {"time": 2433, "pitch": 78, "duration": 7, "velocity": 93}, {"time": 2439, "pitch": 79, "duration": 48, "velocity": 109}, {"time": 2487, "pitch": 81, "duration": 19, "velocity": 109}, {"time": 2505, "pitch": 79, "duration": 18, "velocity": 101}, {"time": 2523, "pitch": 81, "duration": 12, "velocity": 100}, {"time": 2535, "pitch": 83, "duration": 71, "velocity": 108}, {"time": 2607, "pitch": 76, "duration": 12, "velocity": 100}, {"time": 2619, "pitch": 78, "duration": 13, "velocity": 100}, {"time": 2631, "pitch": 79, "duration": 24, "velocity": 97}, {"time": 2655, "pitch": 83, "duration": 24, "velocity": 111}, {"time": 2679, "pitch": 81, "duration": 48, "velocity": 109}, {"time": 2727, "pitch": 79, "duration": 13, "velocity": 108}, {"time": 2739, "pitch": 78, "duration": 12, "velocity": 106}, {"time": 2751, "pitch": 79, "duration": 12, "velocity": 97}, {"time": 2763, "pitch": 81, "duration": 13, "velocity": 98}, {"time": 2775, "pitch": 79, "duration": 24, "velocity": 108}, {"time": 2799, "pitch": 79, "duration": 13, "velocity": 105}, {"time": 2811, "pitch": 78, "duration": 12, "velocity": 103}, {"time": 2823, "pitch": 76, "duration": 24, "velocity": 100}, {"time": 2847, "pitch": 79, "duration": 26, "velocity": 106}, {"time": 2871, "pitch": 78, "duration": 36, "velocity": 101}, {"time": 2907, "pitch": 74, "duration": 12, "velocity": 97}, {"time": 2919, "pitch": 71, "duration": 72, "velocity": 98}, {"time": 2991, "pitch": 76, "duration": 12, "velocity": 114}, {"time": 3003, "pitch": 78, "duration": 13, "velocity": 103}, {"time": 3015, "pitch": 79, "duration": 24, "velocity": 106}, {"time": 3039, "pitch": 83, "duration": 24, "velocity": 97}, {"time": 3063, "pitch": 81, "duration": 48, "velocity": 114}, {"time": 3111, "pitch": 79, "duration": 12, "velocity": 105}, {"time": 3123, "pitch": 78, "duration": 12, "velocity": 106}, {"time": 3135, "pitch": 79, "duration": 13, "velocity": 100}, {"time": 3147, "pitch": 81, "duration": 13, "velocity": 105}, {"time": 3159, "pitch": 83, "duration": 27, "velocity": 106}, {"time": 3183, "pitch": 83, "duration": 3, "velocity": 111}, {"time": 3195, "pitch": 79, "duration": 12, "velocity": 106}, {"time": 3207, "pitch": 76, "duration": 36, "velocity": 101}, {"time": 3243, "pitch": 79, "duration": 12, "velocity": 109}, {"time": 3255, "pitch": 78, "duration": 36, "velocity": 105}, {"time": 3291, "pitch": 74, "duration": 25, "velocity": 94}, {"time": 3315, "pitch": 76, "duration": 84, "velocity": 101}, {"time": 4155, "pitch": 74, "duration": 12, "velocity": 111}, {"time": 4167, "pitch": 76, "duration": 19, "velocity": 106}, {"time": 4188, "pitch": 83, "duration": 54, "velocity": 108}, {"time": 4239, "pitch": 81, "duration": 12, "velocity": 108}, {"time": 4251, "pitch": 79, "duration": 13, "velocity": 108}, {"time": 4263, "pitch": 81, "duration": 72, "velocity": 101}, {"time": 4335, "pitch": 79, "duration": 12, "velocity": 109}, {"time": 4347, "pitch": 78, "duration": 12, "velocity": 114}, {"time": 4359, "pitch": 76, "duration": 36, "velocity": 114}, {"time": 4395, "pitch": 79, "duration": 12, "velocity": 101}, {"time": 4407, "pitch": 78, "duration": 36, "velocity": 114}, {"time": 4443, "pitch": 74, "duration": 12, "velocity": 109}, {"time": 4455, "pitch": 71, "duration": 48, "velocity": 100}, {"time": 4539, "pitch": 74, "duration": 12, "velocity": 109}, {"time": 4551, "pitch": 76, "duration": 24, "velocity": 109}, {"time": 4575, "pitch": 83, "duration": 48, "velocity": 105}, {"time": 4623, "pitch": 81, "duration": 12, "velocity": 108}, {"time": 4635, "pitch": 79, "duration": 12, "velocity": 100}, {"time": 4647, "pitch": 81, "duration": 24, "velocity": 103}, {"time": 4671, "pitch": 86, "duration": 24, "velocity": 109}, {"time": 4695, "pitch": 83, "duration": 36, "velocity": 101}, {"time": 4731, "pitch": 76, "duration": 7, "velocity": 105}, {"time": 4737, "pitch": 78, "duration": 7, "velocity": 93}, {"time": 4743, "pitch": 79, "duration": 48, "velocity": 109}, {"time": 4791, "pitch": 81, "duration": 19, "velocity": 109}, {"time": 4809, "pitch": 79, "duration": 18, "velocity": 101}, {"time": 4827, "pitch": 81, "duration": 12, "velocity": 100}, {"time": 4839, "pitch": 83, "duration": 72, "velocity": 108}, {"time": 4911, "pitch": 76, "duration": 12, "velocity": 100}, {"time": 4923, "pitch": 78, "duration": 13, "velocity": 100}, {"time": 4935, "pitch": 79, "duration": 24, "velocity": 97}, {"time": 4959, "pitch": 83, "duration": 24, "velocity": 111}, {"time": 4983, "pitch": 81, "duration": 48, "velocity": 109}, {"time": 5031, "pitch": 79, "duration": 13, "velocity": 108}, {"time": 5043, "pitch": 78, "duration": 12, "velocity": 106}, {"time": 5055, "pitch": 79, "duration": 12, "velocity": 97}, {"time": 5067, "pitch": 81, "duration": 13, "velocity": 98}, {"time": 5079, "pitch": 79, "duration": 24, "velocity": 108}, {"time": 5103, "pitch": 79, "duration": 13, "velocity": 105}, {"time": 5115, "pitch": 78, "duration": 12, "velocity": 103}, {"time": 5127, "pitch": 76, "duration": 24, "velocity": 100}, {"time": 5151, "pitch": 79, "duration": 26, "velocity": 106}, {"time": 5175, "pitch": 78, "duration": 36, "velocity": 101}, {"time": 5211, "pitch": 74, "duration": 12, "velocity": 97}, {"time": 5223, "pitch": 71, "duration": 71, "velocity": 98}, {"time": 5295, "pitch": 76, "duration": 12, "velocity": 114}, {"time": 5307, "pitch": 78, "duration": 13, "velocity": 103}, {"time": 5319, "pitch": 79, "duration": 24, "velocity": 106}, {"time": 5343, "pitch": 83, "duration": 24, "velocity": 97}, {"time": 5367, "pitch": 81, "duration": 48, "velocity": 114}, {"time": 5415, "pitch": 79, "duration": 12, "velocity": 105}, {"time": 5427, "pitch": 78, "duration": 12, "velocity": 106}, {"time": 5439, "pitch": 79, "duration": 13, "velocity": 100}, {"time": 5451, "pitch": 81, "duration": 13, "velocity": 105}, {"time": 5463, "pitch": 83, "duration": 24, "velocity": 106}, {"time": 5487, "pitch": 83, "duration": 1, "velocity": 111}, {"time": 5499, "pitch": 79, "duration": 12, "velocity": 106}, {"time": 5511, "pitch": 76, "duration": 36, "velocity": 101}, {"time": 5547, "pitch": 79, "duration": 12, "velocity": 109}, {"time": 5559, "pitch": 78, "duration": 36, "velocity": 105}, {"time": 5595, "pitch": 74, "duration": 15, "velocity": 94}, {"time": 5610, "pitch": 76, "duration": 81, "velocity": 101}, {"time": 5679, "pitch": 76, "duration": 12, "velocity": 100}, {"time": 5691, "pitch": 78, "duration": 12, "velocity": 100}, {"time": 5703, "pitch": 79, "duration": 24, "velocity": 97}, {"time": 5727, "pitch": 83, "duration": 24, "velocity": 111}, {"time": 5751, "pitch": 81, "duration": 48, "velocity": 109}, {"time": 5799, "pitch": 79, "duration": 13, "velocity": 108}, {"time": 5811, "pitch": 78, "duration": 12, "velocity": 106}, {"time": 5823, "pitch": 79, "duration": 12, "velocity": 97}, {"time": 5835, "pitch": 81, "duration": 13, "velocity": 98}, {"time": 5847, "pitch": 79, "duration": 24, "velocity": 108}, {"time": 5871, "pitch": 79, "duration": 13, "velocity": 105}, {"time": 5883, "pitch": 78, "duration": 12, "velocity": 103}, {"time": 5895, "pitch": 76, "duration": 24, "velocity": 100}, {"time": 5919, "pitch": 79, "duration": 24, "velocity": 106}, {"time": 5943, "pitch": 78, "duration": 36, "velocity": 101}, {"time": 5979, "pitch": 86, "duration": 21, "velocity": 97}, {"time": 6000, "pitch": 83, "duration": 63, "velocity": 127}, {"time": 6075, "pitch": 76, "duration": 6, "velocity": 114}, {"time": 6081, "pitch": 78, "duration": 6, "velocity": 103}, {"time": 6087, "pitch": 79, "duration": 24, "velocity": 106}, {"time": 6111, "pitch": 83, "duration": 24, "velocity": 97}, {"time": 6135, "pitch": 81, "duration": 48, "velocity": 114}, {"time": 6183, "pitch": 79, "duration": 12, "velocity": 105}, {"time": 6195, "pitch": 78, "duration": 12, "velocity": 106}, {"time": 6207, "pitch": 79, "duration": 13, "velocity": 100}, {"time": 6219, "pitch": 81, "duration": 13, "velocity": 105}, {"time": 6231, "pitch": 83, "duration": 75, "velocity": 106}, {"time": 6348, "pitch": 83, "duration": 16, "velocity": 98}, {"time": 6363, "pitch": 79, "duration": 13, "velocity": 99}, {"time": 6375, "pitch": 76, "duration": 36, "velocity": 105}, {"time": 6411, "pitch": 79, "duration": 12, "velocity": 77}, {"time": 6423, "pitch": 78, "duration": 34, "velocity": 99}, {"time": 6459, "pitch": 74, "duration": 13, "velocity": 98}, {"time": 6471, "pitch": 76, "duration": 72, "velocity": 91}, {"time": 6543, "pitch": 79, "duration": 12, "velocity": 98}, {"time": 6555, "pitch": 78, "duration": 12, "velocity": 99}, {"time": 6567, "pitch": 76, "duration": 24, "velocity": 99}, {"time": 6591, "pitch": 79, "duration": 24, "velocity": 101}, {"time": 6615, "pitch": 78, "duration": 18, "velocity": 100}, {"time": 6699, "pitch": 74, "duration": 6, "velocity": 92}, {"time": 6711, "pitch": 76, "duration": 24, "velocity": 92}]}, {"program": 0, "is_drum": false, "name": "BRIDGE", "notes": [{"time": 219, "pitch": 76, "duration": 8, "velocity": 88}, {"time": 225, "pitch": 78, "duration": 7, "velocity": 75}, {"time": 231, "pitch": 79, "duration": 23, "velocity": 82}, {"time": 255, "pitch": 83, "duration": 10, "velocity": 82}, {"time": 267, "pitch": 81, "duration": 19, "velocity": 81}, {"time": 291, "pitch": 78, "duration": 17, "velocity": 81}, {"time": 315, "pitch": 79, "duration": 38, "velocity": 82}, {"time": 351, "pitch": 76, "duration": 3, "velocity": 94}, {"time": 357, "pitch": 64, "duration": 4, "velocity": 91}, {"time": 363, "pitch": 76, "duration": 2, "velocity": 85}, {"time": 369, "pitch": 76, "duration": 4, "velocity": 82}, {"time": 375, "pitch": 64, "duration": 3, "velocity": 72}, {"time": 381, "pitch": 76, "duration": 2, "velocity": 68}, {"time": 387, "pitch": 76, "duration": 8, "velocity": 63}, {"time": 393, "pitch": 64, "duration": 3, "velocity": 62}, {"time": 399, "pitch": 76, "duration": 2, "velocity": 56}, {"time": 405, "pitch": 76, "duration": 8, "velocity": 44}, {"time": 411, "pitch": 76, "duration": 2, "velocity": 78}, {"time": 417, "pitch": 78, "duration": 7, "velocity": 69}, {"time": 423, "pitch": 79, "duration": 18, "velocity": 73}, {"time": 447, "pitch": 83, "duration": 9, "velocity": 85}, {"time": 459, "pitch": 81, "duration": 20, "velocity": 93}, {"time": 483, "pitch": 78, "duration": 15, "velocity": 95}, {"time": 504, "pitch": 76, "duration": 15, "velocity": 75}, {"time": 519, "pitch": 76, "duration": 3, "velocity": 84}, {"time": 525, "pitch": 76, "duration": 3, "velocity": 84}, {"time": 531, "pitch": 76, "duration": 8, "velocity": 67}, {"time": 531, "pitch": 88, "duration": 3, "velocity": 79}, {"time": 537, "pitch": 76, "duration": 2, "velocity": 72}, {"time": 543, "pitch": 76, "duration": 4, "velocity": 65}, {"time": 549, "pitch": 88, "duration": 4, "velocity": 61}, {"time": 555, "pitch": 76, "duration": 2, "velocity": 59}, {"time": 555, "pitch": 76, "duration": 2, "velocity": 72}, {"time": 561, "pitch": 76, "duration": 3, "velocity": 61}, {"time": 567, "pitch": 88, "duration": 4, "velocity": 55}, {"time": 573, "pitch": 76, "duration": 2, "velocity": 48}, {"time": 579, "pitch": 76, "duration": 5, "velocity": 46}, {"time": 579, "pitch": 76, "duration": 5, "velocity": 67}, {"time": 585, "pitch": 88, "duration": 6, "velocity": 39}, {"time": 592, "pitch": 76, "duration": 3, "velocity": 43}, {"time": 603, "pitch": 76, "duration": 8, "velocity": 82}, {"time": 609, "pitch": 78, "duration": 7, "velocity": 88}, {"time": 615, "pitch": 79, "duration": 20, "velocity": 93}, {"time": 639, "pitch": 83, "duration": 9, "velocity": 88}, {"time": 651, "pitch": 81, "duration": 14, "velocity": 80}, {"time": 675, "pitch": 78, "duration": 13, "velocity": 75}, {"time": 711, "pitch": 86, "duration": 21, "velocity": 85}, {"time": 783, "pitch": 79, "duration": 3, "velocity": 88}, {"time": 783, "pitch": 91, "duration": 4, "velocity": 91}, {"time": 795, "pitch": 78, "duration": 2, "velocity": 99}, {"time": 795, "pitch": 90, "duration": 3, "velocity": 91}, {"time": 807, "pitch": 79, "duration": 37, "velocity": 99}, {"time": 807, "pitch": 91, "duration": 37, "velocity": 101}, {"time": 867, "pitch": 72, "duration": 10, "velocity": 95}, {"time": 867, "pitch": 84, "duration": 10, "velocity": 95}, {"time": 879, "pitch": 76, "duration": 11, "velocity": 95}, {"time": 879, "pitch": 88, "duration": 11, "velocity": 95}, {"time": 891, "pitch": 79, "duration": 12, "velocity": 101}, {"time": 891, "pitch": 91, "duration": 12, "velocity": 101}, {"time": 903, "pitch": 81, "duration": 81, "velocity": 101}, {"time": 903, "pitch": 93, "duration": 81, "velocity": 101}, {"time": 975, "pitch": 55, "duration": 20, "velocity": 88}, {"time": 999, "pitch": 54, "duration": 78, "velocity": 90}, {"time": 1000, "pitch": 86, "duration": 88, "velocity": 97}, {"time": 1863, "pitch": 67, "duration": 46, "velocity": 97}, {"time": 1911, "pitch": 71, "duration": 46, "velocity": 70}, {"time": 1959, "pitch": 69, "duration": 50, "velocity": 70}, {"time": 2031, "pitch": 67, "duration": 13, "velocity": 82}, {"time": 2043, "pitch": 66, "duration": 12, "velocity": 82}, {"time": 2055, "pitch": 67, "duration": 44, "velocity": 82}, {"time": 2103, "pitch": 66, "duration": 34, "velocity": 82}, {"time": 2127, "pitch": 74, "duration": 24, "velocity": 82}, {"time": 2151, "pitch": 71, "duration": 39, "velocity": 82}, {"time": 2199, "pitch": 79, "duration": 24, "velocity": 82}, {"time": 2223, "pitch": 78, "duration": 25, "velocity": 82}, {"time": 2247, "pitch": 76, "duration": 71, "velocity": 82}, {"time": 2295, "pitch": 71, "duration": 46, "velocity": 82}, {"time": 2343, "pitch": 69, "duration": 39, "velocity": 82}, {"time": 2391, "pitch": 74, "duration": 45, "velocity": 82}, {"time": 2439, "pitch": 71, "duration": 44, "velocity": 82}, {"time": 2631, "pitch": 67, "duration": 23, "velocity": 82}, {"time": 2655, "pitch": 71, "duration": 26, "velocity": 82}, {"time": 2679, "pitch": 69, "duration": 25, "velocity": 82}, {"time": 2703, "pitch": 66, "duration": 23, "velocity": 82}, {"time": 2727, "pitch": 67, "duration": 20, "velocity": 82}, {"time": 2799, "pitch": 67, "duration": 13, "velocity": 82}, {"time": 2811, "pitch": 66, "duration": 11, "velocity": 82}, {"time": 2823, "pitch": 64, "duration": 46, "velocity": 82}, {"time": 2871, "pitch": 62, "duration": 43, "velocity": 82}, {"time": 2919, "pitch": 71, "duration": 32, "velocity": 82}, {"time": 2955, "pitch": 69, "duration": 10, "velocity": 82}, {"time": 2967, "pitch": 71, "duration": 10, "velocity": 82}, {"time": 2979, "pitch": 75, "duration": 12, "velocity": 82}, {"time": 2991, "pitch": 76, "duration": 11, "velocity": 82}, {"time": 3003, "pitch": 78, "duration": 11, "velocity": 82}, {"time": 3015, "pitch": 79, "duration": 28, "velocity": 82}, {"time": 3039, "pitch": 83, "duration": 26, "velocity": 82}, {"time": 3063, "pitch": 81, "duration": 36, "velocity": 83}, {"time": 3099, "pitch": 78, "duration": 14, "velocity": 84}, {"time": 3111, "pitch": 79, "duration": 71, "velocity": 84}, {"time": 3183, "pitch": 79, "duration": 13, "velocity": 87}, {"time": 3195, "pitch": 78, "duration": 13, "velocity": 87}, {"time": 3207, "pitch": 76, "duration": 45, "velocity": 87}, {"time": 3255, "pitch": 74, "duration": 46, "velocity": 91}, {"time": 3303, "pitch": 76, "duration": 75, "velocity": 92}, {"time": 3387, "pitch": 76, "duration": 6, "velocity": 85}, {"time": 3393, "pitch": 78, "duration": 6, "velocity": 88}, {"time": 3399, "pitch": 79, "duration": 24, "velocity": 97}, {"time": 3423, "pitch": 83, "duration": 24, "velocity": 72}, {"time": 3447, "pitch": 78, "duration": 36, "velocity": 75}, {"time": 3447, "pitch": 79, "duration": 36, "velocity": 75}, {"time": 3483, "pitch": 74, "duration": 12, "velocity": 51}, {"time": 3495, "pitch": 76, "duration": 84, "velocity": 53}, {"time": 3579, "pitch": 69, "duration": 6, "velocity": 72}, {"time": 3585, "pitch": 71, "duration": 6, "velocity": 66}, {"time": 3591, "pitch": 72, "duration": 24, "velocity": 82}, {"time": 3615, "pitch": 79, "duration": 12, "velocity": 95}, {"time": 3627, "pitch": 78, "duration": 36, "velocity": 101}, {"time": 3663, "pitch": 74, "duration": 12, "velocity": 88}, {"time": 3675, "pitch": 69, "duration": 9, "velocity": 73}, {"time": 3684, "pitch": 71, "duration": 39, "velocity": 75}, {"time": 3723, "pitch": 69, "duration": 6, "velocity": 69}, {"time": 3729, "pitch": 71, "duration": 6, "velocity": 66}, {"time": 3735, "pitch": 72, "duration": 24, "velocity": 76}, {"time": 3759, "pitch": 71, "duration": 12, "velocity": 64}, {"time": 3771, "pitch": 76, "duration": 6, "velocity": 60}, {"time": 3777, "pitch": 78, "duration": 6, "velocity": 93}, {"time": 3783, "pitch": 67, "duration": 24, "velocity": 103}, {"time": 3783, "pitch": 79, "duration": 24, "velocity": 103}, {"time": 3807, "pitch": 71, "duration": 24, "velocity": 88}, {"time": 3807, "pitch": 83, "duration": 24, "velocity": 88}, {"time": 3831, "pitch": 69, "duration": 48, "velocity": 95}, {"time": 3831, "pitch": 81, "duration": 48, "velocity": 95}, {"time": 3879, "pitch": 67, "duration": 12, "velocity": 88}, {"time": 3879, "pitch": 79, "duration": 12, "velocity": 88}, {"time": 3891, "pitch": 66, "duration": 12, "velocity": 106}, {"time": 3891, "pitch": 78, "duration": 12, "velocity": 106}, {"time": 3903, "pitch": 67, "duration": 12, "velocity": 99}, {"time": 3903, "pitch": 79, "duration": 12, "velocity": 99}, {"time": 3915, "pitch": 69, "duration": 12, "velocity": 99}, {"time": 3915, "pitch": 81, "duration": 12, "velocity": 99}, {"time": 3927, "pitch": 71, "duration": 48, "velocity": 97}, {"time": 3927, "pitch": 83, "duration": 48, "velocity": 97}, {"time": 3975, "pitch": 76, "duration": 48, "velocity": 103}, {"time": 3975, "pitch": 88, "duration": 48, "velocity": 103}, {"time": 4023, "pitch": 74, "duration": 48, "velocity": 101}, {"time": 4023, "pitch": 86, "duration": 48, "velocity": 101}, {"time": 4071, "pitch": 76, "duration": 96, "velocity": 78}, {"time": 4071, "pitch": 88, "duration": 96, "velocity": 78}, {"time": 4545, "pitch": 67, "duration": 51, "velocity": 85}, {"time": 4599, "pitch": 71, "duration": 48, "velocity": 87}, {"time": 4647, "pitch": 69, "duration": 45, "velocity": 87}, {"time": 4695, "pitch": 74, "duration": 49, "velocity": 87}, {"time": 4743, "pitch": 71, "duration": 40, "velocity": 87}, {"time": 4935, "pitch": 67, "duration": 23, "velocity": 82}, {"time": 4959, "pitch": 71, "duration": 26, "velocity": 82}, {"time": 4983, "pitch": 69, "duration": 25, "velocity": 82}, {"time": 5007, "pitch": 66, "duration": 23, "velocity": 82}, {"time": 5031, "pitch": 67, "duration": 20, "velocity": 82}, {"time": 5103, "pitch": 67, "duration": 13, "velocity": 82}, {"time": 5115, "pitch": 66, "duration": 11, "velocity": 82}, {"time": 5127, "pitch": 64, "duration": 46, "velocity": 82}, {"time": 5175, "pitch": 62, "duration": 43, "velocity": 82}, {"time": 5223, "pitch": 71, "duration": 32, "velocity": 82}, {"time": 5259, "pitch": 69, "duration": 10, "velocity": 82}, {"time": 5271, "pitch": 71, "duration": 10, "velocity": 82}, {"time": 5283, "pitch": 75, "duration": 12, "velocity": 82}, {"time": 5295, "pitch": 76, "duration": 12, "velocity": 82}, {"time": 5307, "pitch": 78, "duration": 11, "velocity": 82}, {"time": 5319, "pitch": 79, "duration": 28, "velocity": 82}, {"time": 5343, "pitch": 83, "duration": 26, "velocity": 82}, {"time": 5367, "pitch": 81, "duration": 36, "velocity": 83}, {"time": 5403, "pitch": 78, "duration": 14, "velocity": 84}, {"time": 5415, "pitch": 79, "duration": 71, "velocity": 84}, {"time": 5487, "pitch": 83, "duration": 12, "velocity": 86}, {"time": 5499, "pitch": 79, "duration": 11, "velocity": 86}, {"time": 5511, "pitch": 76, "duration": 45, "velocity": 87}, {"time": 5511, "pitch": 88, "duration": 45, "velocity": 87}, {"time": 5559, "pitch": 74, "duration": 46, "velocity": 91}, {"time": 5559, "pitch": 86, "duration": 46, "velocity": 91}, {"time": 5607, "pitch": 76, "duration": 75, "velocity": 92}, {"time": 5607, "pitch": 88, "duration": 75, "velocity": 92}, {"time": 5703, "pitch": 79, "duration": 48, "velocity": 86}, {"time": 5751, "pitch": 74, "duration": 38, "velocity": 87}, {"time": 5799, "pitch": 76, "duration": 43, "velocity": 87}, {"time": 5871, "pitch": 79, "duration": 22, "velocity": 87}, {"time": 5871, "pitch": 83, "duration": 19, "velocity": 87}, {"time": 5895, "pitch": 88, "duration": 35, "velocity": 87}, {"time": 5943, "pitch": 81, "duration": 30, "velocity": 87}, {"time": 5991, "pitch": 83, "duration": 68, "velocity": 86}, {"time": 6063, "pitch": 79, "duration": 14, "velocity": 86}, {"time": 6075, "pitch": 78, "duration": 10, "velocity": 86}, {"time": 6087, "pitch": 76, "duration": 49, "velocity": 86}, {"time": 6135, "pitch": 78, "duration": 43, "velocity": 86}, {"time": 6183, "pitch": 79, "duration": 24, "velocity": 86}, {"time": 6207, "pitch": 81, "duration": 24, "velocity": 86}, {"time": 6231, "pitch": 83, "duration": 56, "velocity": 87}, {"time": 6375, "pitch": 88, "duration": 48, "velocity": 91}, {"time": 6423, "pitch": 90, "duration": 49, "velocity": 91}, {"time": 6471, "pitch": 88, "duration": 81, "velocity": 91}, {"time": 6567, "pitch": 88, "duration": 264, "velocity": 91}], "annotations": [{"time": 87, "annotation": {"number": 64, "value": 127}, "group": "control_change"}, {"time": 219, "annotation": {"number": 64, "value": 0}, "group": "control_change"}, {"time": 233, "annotation": {"number": 64, "value": 127}, "group": "control_change"}, {"time": 273, "annotation": {"number": 64, "value": 0}, "group": "control_change"}, {"time": 278, "annotation": {"number": 64, "value": 127}, "group": "control_change"}, {"time": 321, "annotation": {"number": 64, "value": 0}, "group": "control_change"}, {"time": 325, "annotation": {"number": 64, "value": 127}, "group": "control_change"}, {"time": 375, "annotation": {"number": 64, "value": 0}, "group": "control_change"}, {"time": 378, "annotation": {"number": 64, "value": 121}, "group": "control_change"}, {"time": 423, "annotation": {"number": 64, "value": 0}, "group": "control_change"}, {"time": 426, "annotation": {"number": 64, "value": 127}, "group": "control_change"}, {"time": 471, "annotation": {"number": 64, "value": 0}, "group": "control_change"}, {"time": 473, "annotation": {"number": 64, "value": 127}, "group": "control_change"}, {"time": 519, "annotation": {"number": 64, "value": 0}, "group": "control_change"}, {"time": 525, "annotation": {"number": 64, "value": 127}, "group": "control_change"}, {"time": 615, "annotation": {"number": 64, "value": 0}, "group": "control_change"}, {"time": 619, "annotation": {"number": 64, "value": 127}, "group": "control_change"}, {"time": 659, "annotation": {"number": 64, "value": 0}, "group": "control_change"}, {"time": 662, "annotation": {"number": 64, "value": 127}, "group": "control_change"}, {"time": 715, "annotation": {"number": 64, "value": 0}, "group": "control_change"}, {"time": 718, "annotation": {"number": 64, "value": 127}, "group": "control_change"}, {"time": 806, "annotation": {"number": 64, "value": 0}, "group": "control_change"}, {"time": 808, "annotation": {"number": 64, "value": 127}, "group": "control_change"}, {"time": 854, "annotation": {"number": 64, "value": 0}, "group": "control_change"}, {"time": 856, "annotation": {"number": 64, "value": 127}, "group": "control_change"}, {"time": 904, "annotation": {"number": 64, "value": 0}, "group": "control_change"}, {"time": 906, "annotation": {"number": 64, "value": 127}, "group": "control_change"}, {"time": 950, "annotation": {"number": 64, "value": 0}, "group": "control_change"}, {"time": 953, "annotation": {"number": 64, "value": 127}, "group": "control_change"}, {"time": 1096, "annotation": {"number": 64, "value": 0}, "group": "control_change"}, {"time": 3399, "annotation": {"number": 64, "value": 0}, "group": "control_change"}]}, {"program": 0, "is_drum": false, "name": "PIANO", "notes": [{"time": 85, "pitch": 64, "duration": 15, "velocity": 45}, {"time": 86, "pitch": 69, "duration": 14, "velocity": 59}, {"time": 86, "pitch": 40, "duration": 129, "velocity": 50}, {"time": 86, "pitch": 71, "duration": 15, "velocity": 63}, {"time": 86, "pitch": 52, "duration": 82, "velocity": 48}, {"time": 89, "pitch": 76, "duration": 14, "velocity": 45}, {"time": 132, "pitch": 76, "duration": 5, "velocity": 39}, {"time": 132, "pitch": 81, "duration": 18, "velocity": 42}, {"time": 134, "pitch": 83, "duration": 21, "velocity": 46}, {"time": 136, "pitch": 88, "duration": 19, "velocity": 45}, {"time": 183, "pitch": 52, "duration": 23, "velocity": 39}, {"time": 189, "pitch": 64, "duration": 6, "velocity": 43}, {"time": 195, "pitch": 69, "duration": 5, "velocity": 60}, {"time": 201, "pitch": 71, "duration": 9, "velocity": 72}, {"time": 231, "pitch": 45, "duration": 26, "velocity": 70}, {"time": 231, "pitch": 60, "duration": 12, "velocity": 78}, {"time": 231, "pitch": 64, "duration": 13, "velocity": 85}, {"time": 231, "pitch": 67, "duration": 13, "velocity": 54}, {"time": 237, "pitch": 52, "duration": 21, "velocity": 59}, {"time": 243, "pitch": 57, "duration": 16, "velocity": 59}, {"time": 249, "pitch": 60, "duration": 5, "velocity": 64}, {"time": 255, "pitch": 67, "duration": 4, "velocity": 91}, {"time": 267, "pitch": 47, "duration": 37, "velocity": 70}, {"time": 267, "pitch": 59, "duration": 39, "velocity": 78}, {"time": 267, "pitch": 62, "duration": 33, "velocity": 78}, {"time": 267, "pitch": 66, "duration": 32, "velocity": 91}, {"time": 267, "pitch": 69, "duration": 33, "velocity": 78}, {"time": 315, "pitch": 52, "duration": 90, "velocity": 73}, {"time": 315, "pitch": 62, "duration": 27, "velocity": 69}, {"time": 315, "pitch": 67, "duration": 15, "velocity": 66}, {"time": 315, "pitch": 71, "duration": 20, "velocity": 61}, {"time": 375, "pitch": 64, "duration": 19, "velocity": 46}, {"time": 375, "pitch": 69, "duration": 8, "velocity": 48}, {"time": 375, "pitch": 78, "duration": 8, "velocity": 63}, {"time": 381, "pitch": 79, "duration": 4, "velocity": 64}, {"time": 387, "pitch": 74, "duration": 4, "velocity": 63}, {"time": 393, "pitch": 69, "duration": 4, "velocity": 56}, {"time": 399, "pitch": 59, "duration": 5, "velocity": 40}, {"time": 405, "pitch": 66, "duration": 2, "velocity": 70}, {"time": 423, "pitch": 45, "duration": 29, "velocity": 72}, {"time": 423, "pitch": 60, "duration": 16, "velocity": 69}, {"time": 423, "pitch": 64, "duration": 14, "velocity": 70}, {"time": 423, "pitch": 69, "duration": 13, "velocity": 70}, {"time": 432, "pitch": 52, "duration": 18, "velocity": 37}, {"time": 441, "pitch": 57, "duration": 11, "velocity": 49}, {"time": 447, "pitch": 60, "duration": 4, "velocity": 72}, {"time": 453, "pitch": 64, "duration": 3, "velocity": 67}, {"time": 459, "pitch": 38, "duration": 37, "velocity": 72}, {"time": 459, "pitch": 62, "duration": 23, "velocity": 72}, {"time": 459, "pitch": 66, "duration": 24, "velocity": 99}, {"time": 459, "pitch": 69, "duration": 22, "velocity": 72}, {"time": 483, "pitch": 50, "duration": 15, "velocity": 30}, {"time": 489, "pitch": 62, "duration": 3, "velocity": 53}, {"time": 495, "pitch": 66, "duration": 3, "velocity": 101}, {"time": 507, "pitch": 52, "duration": 93, "velocity": 53}, {"time": 507, "pitch": 59, "duration": 35, "velocity": 64}, {"time": 507, "pitch": 64, "duration": 14, "velocity": 58}, {"time": 507, "pitch": 67, "duration": 14, "velocity": 66}, {"time": 507, "pitch": 71, "duration": 14, "velocity": 62}, {"time": 537, "pitch": 64, "duration": 11, "velocity": 63}, {"time": 549, "pitch": 59, "duration": 7, "velocity": 36}, {"time": 561, "pitch": 64, "duration": 13, "velocity": 64}, {"time": 573, "pitch": 59, "duration": 14, "velocity": 49}, {"time": 585, "pitch": 64, "duration": 14, "velocity": 63}, {"time": 615, "pitch": 45, "duration": 30, "velocity": 78}, {"time": 621, "pitch": 52, "duration": 26, "velocity": 66}, {"time": 627, "pitch": 57, "duration": 15, "velocity": 85}, {"time": 633, "pitch": 60, "duration": 5, "velocity": 73}, {"time": 639, "pitch": 64, "duration": 8, "velocity": 82}, {"time": 645, "pitch": 67, "duration": 5, "velocity": 64}, {"time": 651, "pitch": 47, "duration": 50, "velocity": 66}, {"time": 651, "pitch": 62, "duration": 8, "velocity": 66}, {"time": 651, "pitch": 66, "duration": 8, "velocity": 75}, {"time": 657, "pitch": 59, "duration": 20, "velocity": 49}, {"time": 663, "pitch": 62, "duration": 8, "velocity": 51}, {"time": 669, "pitch": 66, "duration": 3, "velocity": 69}, {"time": 675, "pitch": 62, "duration": 13, "velocity": 73}, {"time": 675, "pitch": 66, "duration": 13, "velocity": 78}, {"time": 687, "pitch": 59, "duration": 14, "velocity": 47}, {"time": 693, "pitch": 62, "duration": 8, "velocity": 75}, {"time": 699, "pitch": 66, "duration": 4, "velocity": 99}, {"time": 711, "pitch": 52, "duration": 49, "velocity": 69}, {"time": 711, "pitch": 62, "duration": 8, "velocity": 63}, {"time": 711, "pitch": 67, "duration": 8, "velocity": 75}, {"time": 711, "pitch": 71, "duration": 9, "velocity": 70}, {"time": 717, "pitch": 59, "duration": 14, "velocity": 61}, {"time": 723, "pitch": 62, "duration": 4, "velocity": 63}, {"time": 729, "pitch": 64, "duration": 12, "velocity": 70}, {"time": 729, "pitch": 69, "duration": 11, "velocity": 76}, {"time": 741, "pitch": 59, "duration": 23, "velocity": 61}, {"time": 747, "pitch": 64, "duration": 4, "velocity": 78}, {"time": 753, "pitch": 64, "duration": 3, "velocity": 61}, {"time": 753, "pitch": 67, "duration": 9, "velocity": 88}, {"time": 753, "pitch": 71, "duration": 9, "velocity": 75}, {"time": 765, "pitch": 52, "duration": 33, "velocity": 69}, {"time": 771, "pitch": 59, "duration": 18, "velocity": 62}, {"time": 777, "pitch": 62, "duration": 3, "velocity": 72}, {"time": 777, "pitch": 66, "duration": 5, "velocity": 91}, {"time": 789, "pitch": 64, "duration": 8, "velocity": 88}, {"time": 789, "pitch": 67, "duration": 7, "velocity": 95}, {"time": 795, "pitch": 59, "duration": 3, "velocity": 75}, {"time": 807, "pitch": 45, "duration": 38, "velocity": 85}, {"time": 807, "pitch": 60, "duration": 19, "velocity": 80}, {"time": 807, "pitch": 64, "duration": 16, "velocity": 82}, {"time": 807, "pitch": 67, "duration": 12, "velocity": 78}, {"time": 819, "pitch": 52, "duration": 29, "velocity": 59}, {"time": 825, "pitch": 57, "duration": 21, "velocity": 93}, {"time": 831, "pitch": 60, "duration": 5, "velocity": 91}, {"time": 837, "pitch": 64, "duration": 4, "velocity": 73}, {"time": 843, "pitch": 64, "duration": 2, "velocity": 52}, {"time": 843, "pitch": 67, "duration": 7, "velocity": 95}, {"time": 849, "pitch": 69, "duration": 4, "velocity": 58}, {"time": 855, "pitch": 45, "duration": 39, "velocity": 72}, {"time": 855, "pitch": 60, "duration": 11, "velocity": 76}, {"time": 855, "pitch": 64, "duration": 10, "velocity": 76}, {"time": 855, "pitch": 69, "duration": 13, "velocity": 73}, {"time": 861, "pitch": 52, "duration": 32, "velocity": 54}, {"time": 867, "pitch": 57, "duration": 19, "velocity": 78}, {"time": 873, "pitch": 60, "duration": 7, "velocity": 75}, {"time": 879, "pitch": 64, "duration": 3, "velocity": 60}, {"time": 885, "pitch": 60, "duration": 9, "velocity": 91}, {"time": 885, "pitch": 64, "duration": 9, "velocity": 95}, {"time": 885, "pitch": 69, "duration": 9, "velocity": 73}, {"time": 891, "pitch": 57, "duration": 3, "velocity": 78}, {"time": 903, "pitch": 38, "duration": 86, "velocity": 76}, {"time": 903, "pitch": 50, "duration": 10, "velocity": 80}, {"time": 903, "pitch": 62, "duration": 19, "velocity": 93}, {"time": 903, "pitch": 66, "duration": 15, "velocity": 103}, {"time": 903, "pitch": 69, "duration": 19, "velocity": 82}, {"time": 921, "pitch": 50, "duration": 10, "velocity": 48}, {"time": 927, "pitch": 62, "duration": 9, "velocity": 82}, {"time": 927, "pitch": 66, "duration": 10, "velocity": 97}, {"time": 927, "pitch": 69, "duration": 10, "velocity": 76}, {"time": 939, "pitch": 50, "duration": 50, "velocity": 49}, {"time": 951, "pitch": 69, "duration": 35, "velocity": 58}, {"time": 951, "pitch": 74, "duration": 35, "velocity": 58}, {"time": 951, "pitch": 78, "duration": 35, "velocity": 63}, {"time": 951, "pitch": 81, "duration": 36, "velocity": 73}, {"time": 993, "pitch": 78, "duration": 4, "velocity": 54}, {"time": 993, "pitch": 90, "duration": 4, "velocity": 54}, {"time": 996, "pitch": 69, "duration": 27, "velocity": 38}, {"time": 996, "pitch": 76, "duration": 4, "velocity": 57}, {"time": 996, "pitch": 88, "duration": 4, "velocity": 57}, {"time": 999, "pitch": 38, "duration": 24, "velocity": 63}, {"time": 999, "pitch": 50, "duration": 25, "velocity": 48}, {"time": 999, "pitch": 62, "duration": 24, "velocity": 56}, {"time": 999, "pitch": 66, "duration": 24, "velocity": 69}, {"time": 999, "pitch": 74, "duration": 16, "velocity": 60}, {"time": 999, "pitch": 86, "duration": 16, "velocity": 60}, {"time": 1095, "pitch": 40, "duration": 65, "velocity": 66}, {"time": 1095, "pitch": 52, "duration": 66, "velocity": 63}, {"time": 1095, "pitch": 55, "duration": 64, "velocity": 66}, {"time": 1095, "pitch": 59, "duration": 64, "velocity": 70}, {"time": 1095, "pitch": 64, "duration": 64, "velocity": 69}, {"time": 1191, "pitch": 47, "duration": 80, "velocity": 66}, {"time": 1191, "pitch": 54, "duration": 81, "velocity": 70}, {"time": 1191, "pitch": 57, "duration": 27, "velocity": 53}, {"time": 1191, "pitch": 62, "duration": 27, "velocity": 60}, {"time": 1191, "pitch": 66, "duration": 28, "velocity": 49}, {"time": 1263, "pitch": 69, "duration": 5, "velocity": 51}, {"time": 1287, "pitch": 45, "duration": 40, "velocity": 72}, {"time": 1287, "pitch": 57, "duration": 42, "velocity": 66}, {"time": 1287, "pitch": 60, "duration": 39, "velocity": 69}, {"time": 1287, "pitch": 64, "duration": 45, "velocity": 66}, {"time": 1287, "pitch": 69, "duration": 43, "velocity": 69}, {"time": 1311, "pitch": 67, "duration": 20, "velocity": 55}, {"time": 1335, "pitch": 50, "duration": 31, "velocity": 70}, {"time": 1335, "pitch": 57, "duration": 31, "velocity": 51}, {"time": 1335, "pitch": 60, "duration": 13, "velocity": 69}, {"time": 1335, "pitch": 64, "duration": 19, "velocity": 70}, {"time": 1335, "pitch": 67, "duration": 17, "velocity": 67}, {"time": 1359, "pitch": 62, "duration": 9, "velocity": 48}, {"time": 1359, "pitch": 66, "duration": 7, "velocity": 59}, {"time": 1383, "pitch": 43, "duration": 34, "velocity": 69}, {"time": 1383, "pitch": 59, "duration": 19, "velocity": 69}, {"time": 1383, "pitch": 62, "duration": 18, "velocity": 72}, {"time": 1383, "pitch": 67, "duration": 17, "velocity": 64}, {"time": 1419, "pitch": 69, "duration": 10, "velocity": 70}, {"time": 1425, "pitch": 71, "duration": 4, "velocity": 49}, {"time": 1431, "pitch": 42, "duration": 10, "velocity": 70}, {"time": 1431, "pitch": 54, "duration": 10, "velocity": 62}, {"time": 1431, "pitch": 57, "duration": 9, "velocity": 75}, {"time": 1431, "pitch": 60, "duration": 9, "velocity": 75}, {"time": 1431, "pitch": 64, "duration": 11, "velocity": 61}, {"time": 1455, "pitch": 47, "duration": 11, "velocity": 66}, {"time": 1455, "pitch": 59, "duration": 11, "velocity": 62}, {"time": 1455, "pitch": 63, "duration": 11, "velocity": 78}, {"time": 1455, "pitch": 66, "duration": 12, "velocity": 69}, {"time": 1479, "pitch": 40, "duration": 86, "velocity": 66}, {"time": 1479, "pitch": 52, "duration": 46, "velocity": 60}, {"time": 1479, "pitch": 55, "duration": 60, "velocity": 63}, {"time": 1479, "pitch": 59, "duration": 61, "velocity": 69}, {"time": 1479, "pitch": 64, "duration": 63, "velocity": 66}, {"time": 1539, "pitch": 52, "duration": 24, "velocity": 33}, {"time": 1551, "pitch": 55, "duration": 13, "velocity": 47}, {"time": 1563, "pitch": 64, "duration": 4, "velocity": 64}, {"time": 1575, "pitch": 47, "duration": 79, "velocity": 75}, {"time": 1575, "pitch": 59, "duration": 35, "velocity": 73}, {"time": 1575, "pitch": 62, "duration": 49, "velocity": 59}, {"time": 1575, "pitch": 66, "duration": 46, "velocity": 66}, {"time": 1575, "pitch": 69, "duration": 50, "velocity": 48}, {"time": 1575, "pitch": 71, "duration": 49, "velocity": 49}, {"time": 1623, "pitch": 59, "duration": 29, "velocity": 36}, {"time": 1635, "pitch": 62, "duration": 8, "velocity": 37}, {"time": 1647, "pitch": 66, "duration": 7, "velocity": 80}, {"time": 1659, "pitch": 46, "duration": 12, "velocity": 43}, {"time": 1671, "pitch": 48, "duration": 36, "velocity": 61}, {"time": 1671, "pitch": 55, "duration": 36, "velocity": 64}, {"time": 1671, "pitch": 60, "duration": 16, "velocity": 63}, {"time": 1671, "pitch": 62, "duration": 28, "velocity": 64}, {"time": 1671, "pitch": 64, "duration": 28, "velocity": 69}, {"time": 1671, "pitch": 67, "duration": 36, "velocity": 69}, {"time": 1692, "pitch": 60, "duration": 13, "velocity": 39}, {"time": 1719, "pitch": 50, "duration": 30, "velocity": 62}, {"time": 1719, "pitch": 57, "duration": 30, "velocity": 72}, {"time": 1719, "pitch": 62, "duration": 26, "velocity": 66}, {"time": 1719, "pitch": 66, "duration": 24, "velocity": 66}, {"time": 1719, "pitch": 69, "duration": 25, "velocity": 72}, {"time": 1767, "pitch": 52, "duration": 81, "velocity": 76}, {"time": 1767, "pitch": 64, "duration": 11, "velocity": 63}, {"time": 1767, "pitch": 69, "duration": 13, "velocity": 66}, {"time": 1767, "pitch": 71, "duration": 13, "velocity": 67}, {"time": 1779, "pitch": 59, "duration": 68, "velocity": 51}, {"time": 1785, "pitch": 64, "duration": 25, "velocity": 60}, {"time": 1791, "pitch": 69, "duration": 8, "velocity": 60}, {"time": 1797, "pitch": 71, "duration": 4, "velocity": 48}, {"time": 1803, "pitch": 76, "duration": 3, "velocity": 60}, {"time": 1809, "pitch": 81, "duration": 5, "velocity": 64}, {"time": 1815, "pitch": 64, "duration": 25, "velocity": 56}, {"time": 1815, "pitch": 83, "duration": 27, "velocity": 60}, {"time": 1839, "pitch": 56, "duration": 12, "velocity": 60}, {"time": 1863, "pitch": 45, "duration": 88, "velocity": 72}, {"time": 1863, "pitch": 57, "duration": 33, "velocity": 78}, {"time": 1863, "pitch": 64, "duration": 17, "velocity": 70}, {"time": 1863, "pitch": 67, "duration": 15, "velocity": 73}, {"time": 1863, "pitch": 69, "duration": 17, "velocity": 73}, {"time": 1863, "pitch": 72, "duration": 17, "velocity": 73}, {"time": 1887, "pitch": 64, "duration": 13, "velocity": 64}, {"time": 1887, "pitch": 67, "duration": 11, "velocity": 63}, {"time": 1887, "pitch": 69, "duration": 12, "velocity": 61}, {"time": 1887, "pitch": 72, "duration": 10, "velocity": 58}, {"time": 1899, "pitch": 57, "duration": 41, "velocity": 40}, {"time": 1911, "pitch": 64, "duration": 12, "velocity": 64}, {"time": 1911, "pitch": 67, "duration": 10, "velocity": 62}, {"time": 1911, "pitch": 69, "duration": 12, "velocity": 61}, {"time": 1911, "pitch": 72, "duration": 16, "velocity": 63}, {"time": 1935, "pitch": 64, "duration": 12, "velocity": 69}, {"time": 1935, "pitch": 67, "duration": 12, "velocity": 70}, {"time": 1935, "pitch": 69, "duration": 13, "velocity": 70}, {"time": 1935, "pitch": 72, "duration": 11, "velocity": 64}, {"time": 1947, "pitch": 57, "duration": 4, "velocity": 63}, {"time": 1959, "pitch": 47, "duration": 44, "velocity": 64}, {"time": 1959, "pitch": 59, "duration": 29, "velocity": 61}, {"time": 1959, "pitch": 62, "duration": 16, "velocity": 66}, {"time": 1959, "pitch": 66, "duration": 15, "velocity": 73}, {"time": 1959, "pitch": 69, "duration": 16, "velocity": 69}, {"time": 1959, "pitch": 74, "duration": 16, "velocity": 64}, {"time": 1983, "pitch": 62, "duration": 12, "velocity": 49}, {"time": 1983, "pitch": 66, "duration": 12, "velocity": 62}, {"time": 1983, "pitch": 69, "duration": 12, "velocity": 62}, {"time": 1983, "pitch": 74, "duration": 14, "velocity": 47}, {"time": 1995, "pitch": 59, "duration": 8, "velocity": 40}, {"time": 2001, "pitch": 53, "duration": 6, "velocity": 58}, {"time": 2007, "pitch": 47, "duration": 39, "velocity": 72}, {"time": 2007, "pitch": 62, "duration": 15, "velocity": 63}, {"time": 2007, "pitch": 66, "duration": 15, "velocity": 64}, {"time": 2007, "pitch": 69, "duration": 16, "velocity": 69}, {"time": 2007, "pitch": 74, "duration": 15, "velocity": 45}, {"time": 2022, "pitch": 59, "duration": 9, "velocity": 35}, {"time": 2031, "pitch": 62, "duration": 14, "velocity": 66}, {"time": 2031, "pitch": 66, "duration": 12, "velocity": 69}, {"time": 2031, "pitch": 69, "duration": 12, "velocity": 67}, {"time": 2031, "pitch": 74, "duration": 14, "velocity": 56}, {"time": 2037, "pitch": 59, "duration": 9, "velocity": 55}, {"time": 2043, "pitch": 54, "duration": 8, "velocity": 69}, {"time": 2055, "pitch": 45, "duration": 31, "velocity": 66}, {"time": 2055, "pitch": 57, "duration": 12, "velocity": 72}, {"time": 2055, "pitch": 60, "duration": 18, "velocity": 72}, {"time": 2055, "pitch": 64, "duration": 17, "velocity": 72}, {"time": 2055, "pitch": 67, "duration": 12, "velocity": 73}, {"time": 2061, "pitch": 69, "duration": 11, "velocity": 31}, {"time": 2073, "pitch": 57, "duration": 11, "velocity": 35}, {"time": 2079, "pitch": 60, "duration": 13, "velocity": 76}, {"time": 2079, "pitch": 64, "duration": 12, "velocity": 72}, {"time": 2079, "pitch": 67, "duration": 12, "velocity": 75}, {"time": 2079, "pitch": 69, "duration": 11, "velocity": 72}, {"time": 2091, "pitch": 45, "duration": 4, "velocity": 73}, {"time": 2091, "pitch": 57, "duration": 2, "velocity": 57}, {"time": 2103, "pitch": 38, "duration": 36, "velocity": 72}, {"time": 2103, "pitch": 50, "duration": 9, "velocity": 61}, {"time": 2103, "pitch": 62, "duration": 15, "velocity": 73}, {"time": 2103, "pitch": 66, "duration": 15, "velocity": 78}, {"time": 2103, "pitch": 69, "duration": 16, "velocity": 70}, {"time": 2121, "pitch": 50, "duration": 10, "velocity": 33}, {"time": 2127, "pitch": 62, "duration": 10, "velocity": 78}, {"time": 2127, "pitch": 66, "duration": 9, "velocity": 80}, {"time": 2127, "pitch": 69, "duration": 8, "velocity": 72}, {"time": 2139, "pitch": 42, "duration": 3, "velocity": 72}, {"time": 2151, "pitch": 43, "duration": 90, "velocity": 72}, {"time": 2151, "pitch": 55, "duration": 27, "velocity": 75}, {"time": 2151, "pitch": 59, "duration": 19, "velocity": 69}, {"time": 2151, "pitch": 62, "duration": 15, "velocity": 76}, {"time": 2151, "pitch": 67, "duration": 18, "velocity": 76}, {"time": 2175, "pitch": 59, "duration": 14, "velocity": 61}, {"time": 2175, "pitch": 62, "duration": 15, "velocity": 63}, {"time": 2175, "pitch": 66, "duration": 10, "velocity": 70}, {"time": 2175, "pitch": 67, "duration": 11, "velocity": 62}, {"time": 2187, "pitch": 55, "duration": 18, "velocity": 49}, {"time": 2199, "pitch": 59, "duration": 14, "velocity": 67}, {"time": 2199, "pitch": 62, "duration": 13, "velocity": 73}, {"time": 2199, "pitch": 67, "duration": 11, "velocity": 72}, {"time": 2211, "pitch": 55, "duration": 14, "velocity": 62}, {"time": 2223, "pitch": 59, "duration": 14, "velocity": 82}, {"time": 2223, "pitch": 62, "duration": 11, "velocity": 91}, {"time": 2223, "pitch": 67, "duration": 11, "velocity": 76}, {"time": 2229, "pitch": 55, "duration": 8, "velocity": 57}, {"time": 2247, "pitch": 48, "duration": 67, "velocity": 76}, {"time": 2247, "pitch": 60, "duration": 9, "velocity": 82}, {"time": 2247, "pitch": 64, "duration": 10, "velocity": 82}, {"time": 2247, "pitch": 67, "duration": 9, "velocity": 78}, {"time": 2256, "pitch": 55, "duration": 13, "velocity": 42}, {"time": 2271, "pitch": 60, "duration": 28, "velocity": 49}, {"time": 2271, "pitch": 62, "duration": 13, "velocity": 67}, {"time": 2271, "pitch": 64, "duration": 13, "velocity": 60}, {"time": 2271, "pitch": 67, "duration": 13, "velocity": 59}, {"time": 2271, "pitch": 72, "duration": 15, "velocity": 67}, {"time": 2283, "pitch": 55, "duration": 38, "velocity": 35}, {"time": 2295, "pitch": 62, "duration": 12, "velocity": 63}, {"time": 2295, "pitch": 64, "duration": 12, "velocity": 58}, {"time": 2295, "pitch": 67, "duration": 12, "velocity": 64}, {"time": 2295, "pitch": 72, "duration": 12, "velocity": 59}, {"time": 2307, "pitch": 60, "duration": 10, "velocity": 36}, {"time": 2313, "pitch": 62, "duration": 17, "velocity": 53}, {"time": 2319, "pitch": 48, "duration": 16, "velocity": 69}, {"time": 2325, "pitch": 55, "duration": 11, "velocity": 66}, {"time": 2331, "pitch": 60, "duration": 3, "velocity": 80}, {"time": 2337, "pitch": 67, "duration": 5, "velocity": 63}, {"time": 2343, "pitch": 47, "duration": 79, "velocity": 72}, {"time": 2343, "pitch": 59, "duration": 28, "velocity": 72}, {"time": 2343, "pitch": 62, "duration": 19, "velocity": 78}, {"time": 2343, "pitch": 66, "duration": 17, "velocity": 80}, {"time": 2343, "pitch": 69, "duration": 15, "velocity": 72}, {"time": 2367, "pitch": 62, "duration": 15, "velocity": 67}, {"time": 2367, "pitch": 66, "duration": 14, "velocity": 75}, {"time": 2367, "pitch": 69, "duration": 12, "velocity": 62}, {"time": 2379, "pitch": 59, "duration": 18, "velocity": 44}, {"time": 2391, "pitch": 62, "duration": 15, "velocity": 47}, {"time": 2391, "pitch": 66, "duration": 14, "velocity": 52}, {"time": 2391, "pitch": 69, "duration": 12, "velocity": 55}, {"time": 2409, "pitch": 59, "duration": 8, "velocity": 40}, {"time": 2415, "pitch": 62, "duration": 14, "velocity": 91}, {"time": 2415, "pitch": 66, "duration": 11, "velocity": 97}, {"time": 2415, "pitch": 69, "duration": 12, "velocity": 85}, {"time": 2439, "pitch": 45, "duration": 39, "velocity": 66}, {"time": 2439, "pitch": 57, "duration": 29, "velocity": 66}, {"time": 2439, "pitch": 60, "duration": 17, "velocity": 76}, {"time": 2439, "pitch": 64, "duration": 18, "velocity": 76}, {"time": 2439, "pitch": 67, "duration": 17, "velocity": 72}, {"time": 2439, "pitch": 69, "duration": 13, "velocity": 66}, {"time": 2463, "pitch": 60, "duration": 12, "velocity": 64}, {"time": 2463, "pitch": 64, "duration": 14, "velocity": 66}, {"time": 2463, "pitch": 67, "duration": 15, "velocity": 61}, {"time": 2475, "pitch": 57, "duration": 4, "velocity": 64}, {"time": 2487, "pitch": 45, "duration": 37, "velocity": 73}, {"time": 2487, "pitch": 57, "duration": 12, "velocity": 78}, {"time": 2487, "pitch": 60, "duration": 16, "velocity": 75}, {"time": 2487, "pitch": 64, "duration": 16, "velocity": 80}, {"time": 2487, "pitch": 69, "duration": 18, "velocity": 75}, {"time": 2505, "pitch": 57, "duration": 12, "velocity": 50}, {"time": 2511, "pitch": 60, "duration": 11, "velocity": 91}, {"time": 2511, "pitch": 64, "duration": 11, "velocity": 91}, {"time": 2511, "pitch": 69, "duration": 11, "velocity": 75}, {"time": 2523, "pitch": 57, "duration": 3, "velocity": 76}, {"time": 2535, "pitch": 47, "duration": 38, "velocity": 69}, {"time": 2535, "pitch": 59, "duration": 8, "velocity": 93}, {"time": 2535, "pitch": 64, "duration": 15, "velocity": 88}, {"time": 2535, "pitch": 66, "duration": 14, "velocity": 91}, {"time": 2535, "pitch": 71, "duration": 16, "velocity": 75}, {"time": 2547, "pitch": 59, "duration": 16, "velocity": 45}, {"time": 2559, "pitch": 64, "duration": 13, "velocity": 95}, {"time": 2559, "pitch": 66, "duration": 13, "velocity": 101}, {"time": 2559, "pitch": 71, "duration": 12, "velocity": 72}, {"time": 2571, "pitch": 59, "duration": 3, "velocity": 88}, {"time": 2583, "pitch": 47, "duration": 38, "velocity": 69}, {"time": 2583, "pitch": 59, "duration": 9, "velocity": 95}, {"time": 2583, "pitch": 63, "duration": 20, "velocity": 95}, {"time": 2583, "pitch": 66, "duration": 20, "velocity": 99}, {"time": 2583, "pitch": 71, "duration": 18, "velocity": 76}, {"time": 2601, "pitch": 59, "duration": 9, "velocity": 67}, {"time": 2607, "pitch": 63, "duration": 13, "velocity": 101}, {"time": 2607, "pitch": 66, "duration": 12, "velocity": 109}, {"time": 2607, "pitch": 71, "duration": 12, "velocity": 88}, {"time": 2619, "pitch": 59, "duration": 3, "velocity": 88}, {"time": 2631, "pitch": 48, "duration": 42, "velocity": 73}, {"time": 2631, "pitch": 60, "duration": 14, "velocity": 80}, {"time": 2631, "pitch": 64, "duration": 4, "velocity": 75}, {"time": 2631, "pitch": 67, "duration": 9, "velocity": 95}, {"time": 2631, "pitch": 72, "duration": 10, "velocity": 73}, {"time": 2637, "pitch": 64, "duration": 11, "velocity": 40}, {"time": 2643, "pitch": 55, "duration": 23, "velocity": 59}, {"time": 2649, "pitch": 60, "duration": 7, "velocity": 61}, {"time": 2655, "pitch": 64, "duration": 7, "velocity": 78}, {"time": 2655, "pitch": 67, "duration": 8, "velocity": 88}, {"time": 2655, "pitch": 72, "duration": 7, "velocity": 72}, {"time": 2661, "pitch": 60, "duration": 10, "velocity": 73}, {"time": 2667, "pitch": 64, "duration": 7, "velocity": 80}, {"time": 2673, "pitch": 55, "duration": 5, "velocity": 73}, {"time": 2673, "pitch": 69, "duration": 5, "velocity": 67}, {"time": 2679, "pitch": 50, "duration": 39, "velocity": 58}, {"time": 2679, "pitch": 62, "duration": 6, "velocity": 75}, {"time": 2679, "pitch": 66, "duration": 10, "velocity": 99}, {"time": 2679, "pitch": 69, "duration": 3, "velocity": 48}, {"time": 2685, "pitch": 57, "duration": 19, "velocity": 47}, {"time": 2691, "pitch": 62, "duration": 23, "velocity": 76}, {"time": 2697, "pitch": 64, "duration": 9, "velocity": 72}, {"time": 2703, "pitch": 66, "duration": 8, "velocity": 95}, {"time": 2709, "pitch": 67, "duration": 4, "velocity": 67}, {"time": 2715, "pitch": 57, "duration": 4, "velocity": 73}, {"time": 2727, "pitch": 52, "duration": 39, "velocity": 70}, {"time": 2727, "pitch": 64, "duration": 7, "velocity": 72}, {"time": 2727, "pitch": 67, "duration": 8, "velocity": 82}, {"time": 2733, "pitch": 59, "duration": 12, "velocity": 53}, {"time": 2739, "pitch": 64, "duration": 5, "velocity": 69}, {"time": 2745, "pitch": 64, "duration": 2, "velocity": 50}, {"time": 2745, "pitch": 69, "duration": 8, "velocity": 78}, {"time": 2751, "pitch": 59, "duration": 19, "velocity": 55}, {"time": 2757, "pitch": 64, "duration": 8, "velocity": 67}, {"time": 2763, "pitch": 71, "duration": 8, "velocity": 76}, {"time": 2769, "pitch": 78, "duration": 5, "velocity": 82}, {"time": 2775, "pitch": 52, "duration": 39, "velocity": 70}, {"time": 2775, "pitch": 79, "duration": 4, "velocity": 69}, {"time": 2781, "pitch": 59, "duration": 17, "velocity": 64}, {"time": 2781, "pitch": 78, "duration": 3, "velocity": 66}, {"time": 2787, "pitch": 74, "duration": 4, "velocity": 78}, {"time": 2793, "pitch": 64, "duration": 8, "velocity": 70}, {"time": 2793, "pitch": 69, "duration": 5, "velocity": 82}, {"time": 2799, "pitch": 66, "duration": 7, "velocity": 99}, {"time": 2805, "pitch": 67, "duration": 8, "velocity": 76}, {"time": 2811, "pitch": 59, "duration": 3, "velocity": 72}, {"time": 2811, "pitch": 69, "duration": 4, "velocity": 70}, {"time": 2817, "pitch": 62, "duration": 4, "velocity": 80}, {"time": 2823, "pitch": 45, "duration": 12, "velocity": 69}, {"time": 2823, "pitch": 60, "duration": 12, "velocity": 73}, {"time": 2823, "pitch": 64, "duration": 16, "velocity": 75}, {"time": 2823, "pitch": 69, "duration": 19, "velocity": 75}, {"time": 2829, "pitch": 52, "duration": 6, "velocity": 56}, {"time": 2835, "pitch": 57, "duration": 7, "velocity": 78}, {"time": 2841, "pitch": 59, "duration": 14, "velocity": 69}, {"time": 2847, "pitch": 60, "duration": 8, "velocity": 76}, {"time": 2853, "pitch": 64, "duration": 4, "velocity": 76}, {"time": 2859, "pitch": 67, "duration": 7, "velocity": 82}, {"time": 2865, "pitch": 71, "duration": 7, "velocity": 70}, {"time": 2871, "pitch": 50, "duration": 36, "velocity": 66}, {"time": 2871, "pitch": 62, "duration": 7, "velocity": 66}, {"time": 2871, "pitch": 66, "duration": 14, "velocity": 97}, {"time": 2877, "pitch": 57, "duration": 19, "velocity": 57}, {"time": 2883, "pitch": 62, "duration": 22, "velocity": 60}, {"time": 2889, "pitch": 64, "duration": 14, "velocity": 75}, {"time": 2895, "pitch": 66, "duration": 7, "velocity": 85}, {"time": 2901, "pitch": 67, "duration": 7, "velocity": 69}, {"time": 2907, "pitch": 57, "duration": 3, "velocity": 62}, {"time": 2907, "pitch": 69, "duration": 6, "velocity": 62}, {"time": 2913, "pitch": 72, "duration": 4, "velocity": 47}, {"time": 2913, "pitch": 74, "duration": 3, "velocity": 47}, {"time": 2919, "pitch": 55, "duration": 38, "velocity": 69}, {"time": 2919, "pitch": 71, "duration": 10, "velocity": 85}, {"time": 2925, "pitch": 62, "duration": 21, "velocity": 60}, {"time": 2931, "pitch": 67, "duration": 23, "velocity": 52}, {"time": 2937, "pitch": 69, "duration": 5, "velocity": 72}, {"time": 2943, "pitch": 71, "duration": 14, "velocity": 80}, {"time": 2955, "pitch": 62, "duration": 8, "velocity": 63}, {"time": 2961, "pitch": 74, "duration": 5, "velocity": 42}, {"time": 2967, "pitch": 47, "duration": 38, "velocity": 69}, {"time": 2967, "pitch": 64, "duration": 8, "velocity": 82}, {"time": 2967, "pitch": 66, "duration": 9, "velocity": 78}, {"time": 2967, "pitch": 71, "duration": 8, "velocity": 76}, {"time": 2973, "pitch": 59, "duration": 20, "velocity": 62}, {"time": 2979, "pitch": 64, "duration": 7, "velocity": 75}, {"time": 2985, "pitch": 66, "duration": 4, "velocity": 59}, {"time": 2991, "pitch": 51, "duration": 16, "velocity": 88}, {"time": 2991, "pitch": 63, "duration": 13, "velocity": 80}, {"time": 2991, "pitch": 66, "duration": 13, "velocity": 73}, {"time": 2991, "pitch": 71, "duration": 13, "velocity": 66}, {"time": 3003, "pitch": 59, "duration": 5, "velocity": 88}, {"time": 3015, "pitch": 48, "duration": 42, "velocity": 72}, {"time": 3015, "pitch": 64, "duration": 14, "velocity": 85}, {"time": 3015, "pitch": 67, "duration": 14, "velocity": 91}, {"time": 3015, "pitch": 72, "duration": 11, "velocity": 80}, {"time": 3021, "pitch": 55, "duration": 32, "velocity": 67}, {"time": 3027, "pitch": 60, "duration": 14, "velocity": 73}, {"time": 3033, "pitch": 64, "duration": 5, "velocity": 76}, {"time": 3039, "pitch": 64, "duration": 7, "velocity": 66}, {"time": 3039, "pitch": 67, "duration": 8, "velocity": 76}, {"time": 3045, "pitch": 60, "duration": 13, "velocity": 72}, {"time": 3051, "pitch": 64, "duration": 6, "velocity": 85}, {"time": 3057, "pitch": 55, "duration": 5, "velocity": 70}, {"time": 3057, "pitch": 67, "duration": 5, "velocity": 82}, {"time": 3063, "pitch": 50, "duration": 39, "velocity": 72}, {"time": 3063, "pitch": 62, "duration": 4, "velocity": 78}, {"time": 3063, "pitch": 66, "duration": 9, "velocity": 95}, {"time": 3069, "pitch": 57, "duration": 21, "velocity": 52}, {"time": 3075, "pitch": 64, "duration": 3, "velocity": 70}, {"time": 3075, "pitch": 67, "duration": 4, "velocity": 82}, {"time": 3081, "pitch": 66, "duration": 4, "velocity": 101}, {"time": 3081, "pitch": 69, "duration": 4, "velocity": 82}, {"time": 3087, "pitch": 62, "duration": 7, "velocity": 58}, {"time": 3099, "pitch": 57, "duration": 3, "velocity": 69}, {"time": 3099, "pitch": 62, "duration": 4, "velocity": 85}, {"time": 3111, "pitch": 52, "duration": 34, "velocity": 69}, {"time": 3111, "pitch": 67, "duration": 9, "velocity": 82}, {"time": 3111, "pitch": 71, "duration": 9, "velocity": 70}, {"time": 3117, "pitch": 59, "duration": 20, "velocity": 45}, {"time": 3123, "pitch": 69, "duration": 7, "velocity": 54}, {"time": 3129, "pitch": 67, "duration": 8, "velocity": 76}, {"time": 3129, "pitch": 71, "duration": 9, "velocity": 59}, {"time": 3135, "pitch": 64, "duration": 8, "velocity": 73}, {"time": 3141, "pitch": 59, "duration": 13, "velocity": 62}, {"time": 3147, "pitch": 66, "duration": 4, "velocity": 78}, {"time": 3153, "pitch": 64, "duration": 11, "velocity": 91}, {"time": 3153, "pitch": 67, "duration": 6, "velocity": 88}, {"time": 3159, "pitch": 52, "duration": 40, "velocity": 64}, {"time": 3165, "pitch": 59, "duration": 13, "velocity": 73}, {"time": 3171, "pitch": 62, "duration": 3, "velocity": 70}, {"time": 3171, "pitch": 66, "duration": 4, "velocity": 85}, {"time": 3177, "pitch": 64, "duration": 3, "velocity": 78}, {"time": 3177, "pitch": 67, "duration": 5, "velocity": 80}, {"time": 3183, "pitch": 62, "duration": 3, "velocity": 80}, {"time": 3183, "pitch": 69, "duration": 4, "velocity": 72}, {"time": 3189, "pitch": 62, "duration": 3, "velocity": 52}, {"time": 3189, "pitch": 67, "duration": 5, "velocity": 85}, {"time": 3195, "pitch": 59, "duration": 3, "velocity": 53}, {"time": 3195, "pitch": 62, "duration": 3, "velocity": 36}, {"time": 3195, "pitch": 66, "duration": 6, "velocity": 99}, {"time": 3201, "pitch": 62, "duration": 3, "velocity": 78}, {"time": 3207, "pitch": 48, "duration": 31, "velocity": 72}, {"time": 3207, "pitch": 60, "duration": 12, "velocity": 82}, {"time": 3207, "pitch": 64, "duration": 11, "velocity": 75}, {"time": 3207, "pitch": 67, "duration": 13, "velocity": 67}, {"time": 3219, "pitch": 55, "duration": 13, "velocity": 53}, {"time": 3225, "pitch": 60, "duration": 12, "velocity": 57}, {"time": 3231, "pitch": 64, "duration": 11, "velocity": 95}, {"time": 3231, "pitch": 67, "duration": 10, "velocity": 88}, {"time": 3237, "pitch": 55, "duration": 3, "velocity": 55}, {"time": 3243, "pitch": 47, "duration": 3, "velocity": 91}, {"time": 3249, "pitch": 45, "duration": 3, "velocity": 82}, {"time": 3255, "pitch": 47, "duration": 38, "velocity": 85}, {"time": 3255, "pitch": 62, "duration": 14, "velocity": 88}, {"time": 3255, "pitch": 66, "duration": 15, "velocity": 99}, {"time": 3267, "pitch": 59, "duration": 15, "velocity": 56}, {"time": 3273, "pitch": 62, "duration": 3, "velocity": 53}, {"time": 3279, "pitch": 62, "duration": 12, "velocity": 80}, {"time": 3279, "pitch": 66, "duration": 12, "velocity": 88}, {"time": 3279, "pitch": 69, "duration": 10, "velocity": 85}, {"time": 3291, "pitch": 59, "duration": 2, "velocity": 69}, {"time": 3303, "pitch": 40, "duration": 44, "velocity": 76}, {"time": 3303, "pitch": 64, "duration": 12, "velocity": 78}, {"time": 3303, "pitch": 69, "duration": 13, "velocity": 93}, {"time": 3303, "pitch": 71, "duration": 10, "velocity": 85}, {"time": 3315, "pitch": 52, "duration": 18, "velocity": 56}, {"time": 3321, "pitch": 64, "duration": 9, "velocity": 97}, {"time": 3333, "pitch": 64, "duration": 2, "velocity": 56}, {"time": 3333, "pitch": 69, "duration": 4, "velocity": 91}, {"time": 3339, "pitch": 52, "duration": 9, "velocity": 69}, {"time": 3351, "pitch": 40, "duration": 21, "velocity": 69}, {"time": 3351, "pitch": 52, "duration": 9, "velocity": 72}, {"time": 3351, "pitch": 64, "duration": 11, "velocity": 62}, {"time": 3351, "pitch": 68, "duration": 11, "velocity": 70}, {"time": 3351, "pitch": 76, "duration": 13, "velocity": 75}, {"time": 3369, "pitch": 52, "duration": 4, "velocity": 60}, {"time": 3399, "pitch": 45, "duration": 32, "velocity": 59}, {"time": 3399, "pitch": 57, "duration": 34, "velocity": 54}, {"time": 3399, "pitch": 60, "duration": 31, "velocity": 60}, {"time": 3399, "pitch": 64, "duration": 30, "velocity": 60}, {"time": 3399, "pitch": 69, "duration": 31, "velocity": 53}, {"time": 3447, "pitch": 47, "duration": 32, "velocity": 56}, {"time": 3447, "pitch": 59, "duration": 32, "velocity": 44}, {"time": 3447, "pitch": 62, "duration": 31, "velocity": 53}, {"time": 3447, "pitch": 66, "duration": 29, "velocity": 56}, {"time": 3447, "pitch": 69, "duration": 31, "velocity": 55}, {"time": 3495, "pitch": 48, "duration": 81, "velocity": 49}, {"time": 3495, "pitch": 64, "duration": 12, "velocity": 46}, {"time": 3495, "pitch": 67, "duration": 12, "velocity": 50}, {"time": 3495, "pitch": 72, "duration": 13, "velocity": 44}, {"time": 3507, "pitch": 55, "duration": 38, "velocity": 40}, {"time": 3519, "pitch": 60, "duration": 56, "velocity": 33}, {"time": 3519, "pitch": 62, "duration": 9, "velocity": 38}, {"time": 3519, "pitch": 67, "duration": 12, "velocity": 39}, {"time": 3543, "pitch": 64, "duration": 7, "velocity": 40}, {"time": 3549, "pitch": 55, "duration": 16, "velocity": 38}, {"time": 3555, "pitch": 66, "duration": 4, "velocity": 46}, {"time": 3561, "pitch": 67, "duration": 3, "velocity": 55}, {"time": 3567, "pitch": 69, "duration": 7, "velocity": 69}, {"time": 3573, "pitch": 55, "duration": 4, "velocity": 42}, {"time": 3591, "pitch": 48, "duration": 30, "velocity": 69}, {"time": 3591, "pitch": 60, "duration": 14, "velocity": 62}, {"time": 3591, "pitch": 64, "duration": 15, "velocity": 60}, {"time": 3591, "pitch": 67, "duration": 12, "velocity": 58}, {"time": 3615, "pitch": 60, "duration": 14, "velocity": 66}, {"time": 3615, "pitch": 64, "duration": 11, "velocity": 80}, {"time": 3615, "pitch": 67, "duration": 12, "velocity": 73}, {"time": 3627, "pitch": 48, "duration": 3, "velocity": 69}, {"time": 3633, "pitch": 67, "duration": 5, "velocity": 67}, {"time": 3639, "pitch": 38, "duration": 35, "velocity": 54}, {"time": 3639, "pitch": 50, "duration": 10, "velocity": 53}, {"time": 3639, "pitch": 62, "duration": 16, "velocity": 64}, {"time": 3639, "pitch": 66, "duration": 15, "velocity": 59}, {"time": 3639, "pitch": 69, "duration": 14, "velocity": 63}, {"time": 3654, "pitch": 50, "duration": 13, "velocity": 31}, {"time": 3663, "pitch": 62, "duration": 10, "velocity": 63}, {"time": 3663, "pitch": 66, "duration": 8, "velocity": 70}, {"time": 3663, "pitch": 69, "duration": 8, "velocity": 54}, {"time": 3675, "pitch": 50, "duration": 3, "velocity": 44}, {"time": 3687, "pitch": 43, "duration": 36, "velocity": 75}, {"time": 3687, "pitch": 59, "duration": 18, "velocity": 67}, {"time": 3687, "pitch": 62, "duration": 15, "velocity": 76}, {"time": 3687, "pitch": 67, "duration": 16, "velocity": 70}, {"time": 3699, "pitch": 50, "duration": 26, "velocity": 41}, {"time": 3705, "pitch": 55, "duration": 13, "velocity": 55}, {"time": 3711, "pitch": 59, "duration": 4, "velocity": 75}, {"time": 3717, "pitch": 62, "duration": 8, "velocity": 82}, {"time": 3723, "pitch": 55, "duration": 3, "velocity": 60}, {"time": 3735, "pitch": 42, "duration": 13, "velocity": 73}, {"time": 3735, "pitch": 54, "duration": 5, "velocity": 93}, {"time": 3735, "pitch": 57, "duration": 10, "velocity": 75}, {"time": 3735, "pitch": 60, "duration": 10, "velocity": 82}, {"time": 3735, "pitch": 64, "duration": 11, "velocity": 78}, {"time": 3747, "pitch": 54, "duration": 3, "velocity": 80}, {"time": 3759, "pitch": 47, "duration": 15, "velocity": 73}, {"time": 3759, "pitch": 59, "duration": 6, "velocity": 69}, {"time": 3759, "pitch": 63, "duration": 13, "velocity": 78}, {"time": 3759, "pitch": 66, "duration": 12, "velocity": 82}, {"time": 3759, "pitch": 71, "duration": 12, "velocity": 76}, {"time": 3771, "pitch": 59, "duration": 9, "velocity": 72}, {"time": 3777, "pitch": 64, "duration": 20, "velocity": 40}, {"time": 3780, "pitch": 67, "duration": 18, "velocity": 66}, {"time": 3783, "pitch": 48, "duration": 40, "velocity": 67}, {"time": 3783, "pitch": 72, "duration": 15, "velocity": 78}, {"time": 3795, "pitch": 55, "duration": 33, "velocity": 49}, {"time": 3801, "pitch": 60, "duration": 13, "velocity": 70}, {"time": 3807, "pitch": 64, "duration": 11, "velocity": 80}, {"time": 3813, "pitch": 67, "duration": 9, "velocity": 66}, {"time": 3819, "pitch": 60, "duration": 9, "velocity": 66}, {"time": 3825, "pitch": 72, "duration": 13, "velocity": 78}, {"time": 3831, "pitch": 48, "duration": 39, "velocity": 75}, {"time": 3831, "pitch": 62, "duration": 12, "velocity": 75}, {"time": 3831, "pitch": 66, "duration": 13, "velocity": 88}, {"time": 3831, "pitch": 69, "duration": 13, "velocity": 63}, {"time": 3837, "pitch": 55, "duration": 27, "velocity": 62}, {"time": 3843, "pitch": 60, "duration": 18, "velocity": 69}, {"time": 3849, "pitch": 62, "duration": 4, "velocity": 82}, {"time": 3861, "pitch": 62, "duration": 8, "velocity": 85}, {"time": 3861, "pitch": 66, "duration": 8, "velocity": 91}, {"time": 3861, "pitch": 74, "duration": 7, "velocity": 78}, {"time": 3867, "pitch": 55, "duration": 3, "velocity": 58}, {"time": 3867, "pitch": 60, "duration": 2, "velocity": 72}, {"time": 3879, "pitch": 52, "duration": 14, "velocity": 69}, {"time": 3879, "pitch": 67, "duration": 8, "velocity": 76}, {"time": 3879, "pitch": 71, "duration": 8, "velocity": 76}, {"time": 3885, "pitch": 59, "duration": 15, "velocity": 61}, {"time": 3891, "pitch": 67, "duration": 5, "velocity": 85}, {"time": 3897, "pitch": 71, "duration": 4, "velocity": 72}, {"time": 3903, "pitch": 50, "duration": 13, "velocity": 73}, {"time": 3903, "pitch": 62, "duration": 8, "velocity": 72}, {"time": 3903, "pitch": 66, "duration": 8, "velocity": 72}, {"time": 3903, "pitch": 69, "duration": 8, "velocity": 63}, {"time": 3909, "pitch": 59, "duration": 7, "velocity": 62}, {"time": 3915, "pitch": 62, "duration": 4, "velocity": 82}, {"time": 3915, "pitch": 66, "duration": 2, "velocity": 47}, {"time": 3927, "pitch": 49, "duration": 5, "velocity": 76}, {"time": 3927, "pitch": 61, "duration": 6, "velocity": 85}, {"time": 3927, "pitch": 64, "duration": 5, "velocity": 80}, {"time": 3927, "pitch": 67, "duration": 5, "velocity": 82}, {"time": 3927, "pitch": 71, "duration": 6, "velocity": 78}, {"time": 3943, "pitch": 76, "duration": 5, "velocity": 58}, {"time": 3945, "pitch": 79, "duration": 3, "velocity": 60}, {"time": 3945, "pitch": 73, "duration": 3, "velocity": 46}, {"time": 3947, "pitch": 83, "duration": 3, "velocity": 63}, {"time": 3955, "pitch": 88, "duration": 5, "velocity": 37}, {"time": 3958, "pitch": 91, "duration": 3, "velocity": 34}, {"time": 3958, "pitch": 85, "duration": 3, "velocity": 61}, {"time": 3959, "pitch": 95, "duration": 3, "velocity": 62}, {"time": 3975, "pitch": 45, "duration": 39, "velocity": 78}, {"time": 3975, "pitch": 60, "duration": 11, "velocity": 64}, {"time": 3975, "pitch": 64, "duration": 11, "velocity": 69}, {"time": 3981, "pitch": 52, "duration": 33, "velocity": 60}, {"time": 3987, "pitch": 57, "duration": 29, "velocity": 82}, {"time": 3993, "pitch": 59, "duration": 6, "velocity": 78}, {"time": 3999, "pitch": 60, "duration": 3, "velocity": 70}, {"time": 4005, "pitch": 64, "duration": 4, "velocity": 80}, {"time": 4011, "pitch": 67, "duration": 6, "velocity": 85}, {"time": 4017, "pitch": 69, "duration": 4, "velocity": 60}, {"time": 4023, "pitch": 47, "duration": 34, "velocity": 72}, {"time": 4023, "pitch": 62, "duration": 7, "velocity": 76}, {"time": 4023, "pitch": 66, "duration": 8, "velocity": 82}, {"time": 4023, "pitch": 69, "duration": 7, "velocity": 70}, {"time": 4029, "pitch": 59, "duration": 16, "velocity": 59}, {"time": 4035, "pitch": 62, "duration": 3, "velocity": 80}, {"time": 4041, "pitch": 62, "duration": 13, "velocity": 75}, {"time": 4041, "pitch": 66, "duration": 12, "velocity": 85}, {"time": 4041, "pitch": 74, "duration": 12, "velocity": 80}, {"time": 4053, "pitch": 59, "duration": 8, "velocity": 69}, {"time": 4059, "pitch": 62, "duration": 5, "velocity": 80}, {"time": 4065, "pitch": 71, "duration": 2, "velocity": 46}, {"time": 4071, "pitch": 52, "duration": 42, "velocity": 73}, {"time": 4071, "pitch": 67, "duration": 2, "velocity": 48}, {"time": 4071, "pitch": 69, "duration": 6, "velocity": 67}, {"time": 4077, "pitch": 57, "duration": 37, "velocity": 64}, {"time": 4083, "pitch": 59, "duration": 33, "velocity": 56}, {"time": 4089, "pitch": 64, "duration": 25, "velocity": 78}, {"time": 4095, "pitch": 69, "duration": 6, "velocity": 64}, {"time": 4101, "pitch": 71, "duration": 3, "velocity": 58}, {"time": 4107, "pitch": 76, "duration": 14, "velocity": 61}, {"time": 4113, "pitch": 88, "duration": 8, "velocity": 67}, {"time": 4119, "pitch": 52, "duration": 39, "velocity": 66}, {"time": 4125, "pitch": 59, "duration": 12, "velocity": 62}, {"time": 4125, "pitch": 74, "duration": 3, "velocity": 80}, {"time": 4125, "pitch": 86, "duration": 3, "velocity": 69}, {"time": 4131, "pitch": 64, "duration": 11, "velocity": 54}, {"time": 4137, "pitch": 71, "duration": 3, "velocity": 78}, {"time": 4137, "pitch": 83, "duration": 2, "velocity": 70}, {"time": 4143, "pitch": 59, "duration": 7, "velocity": 51}, {"time": 4149, "pitch": 67, "duration": 6, "velocity": 88}, {"time": 4149, "pitch": 79, "duration": 6, "velocity": 88}, {"time": 4155, "pitch": 59, "duration": 3, "velocity": 63}, {"time": 4167, "pitch": 45, "duration": 88, "velocity": 72}, {"time": 4167, "pitch": 57, "duration": 33, "velocity": 78}, {"time": 4167, "pitch": 64, "duration": 17, "velocity": 70}, {"time": 4167, "pitch": 67, "duration": 15, "velocity": 73}, {"time": 4167, "pitch": 69, "duration": 17, "velocity": 73}, {"time": 4167, "pitch": 72, "duration": 17, "velocity": 73}, {"time": 4191, "pitch": 64, "duration": 13, "velocity": 64}, {"time": 4191, "pitch": 67, "duration": 11, "velocity": 63}, {"time": 4191, "pitch": 69, "duration": 12, "velocity": 61}, {"time": 4191, "pitch": 72, "duration": 10, "velocity": 58}, {"time": 4203, "pitch": 57, "duration": 41, "velocity": 40}, {"time": 4215, "pitch": 64, "duration": 12, "velocity": 64}, {"time": 4215, "pitch": 67, "duration": 10, "velocity": 62}, {"time": 4215, "pitch": 69, "duration": 12, "velocity": 61}, {"time": 4215, "pitch": 72, "duration": 16, "velocity": 63}, {"time": 4239, "pitch": 64, "duration": 12, "velocity": 69}, {"time": 4239, "pitch": 67, "duration": 12, "velocity": 70}, {"time": 4239, "pitch": 69, "duration": 13, "velocity": 70}, {"time": 4239, "pitch": 72, "duration": 11, "velocity": 64}, {"time": 4251, "pitch": 57, "duration": 4, "velocity": 63}, {"time": 4263, "pitch": 47, "duration": 44, "velocity": 64}, {"time": 4263, "pitch": 59, "duration": 29, "velocity": 61}, {"time": 4263, "pitch": 62, "duration": 16, "velocity": 66}, {"time": 4263, "pitch": 66, "duration": 15, "velocity": 73}, {"time": 4263, "pitch": 69, "duration": 16, "velocity": 69}, {"time": 4263, "pitch": 74, "duration": 16, "velocity": 64}, {"time": 4287, "pitch": 62, "duration": 12, "velocity": 49}, {"time": 4287, "pitch": 66, "duration": 12, "velocity": 62}, {"time": 4287, "pitch": 69, "duration": 12, "velocity": 62}, {"time": 4287, "pitch": 74, "duration": 14, "velocity": 47}, {"time": 4299, "pitch": 59, "duration": 8, "velocity": 40}, {"time": 4305, "pitch": 53, "duration": 6, "velocity": 58}, {"time": 4311, "pitch": 47, "duration": 39, "velocity": 72}, {"time": 4311, "pitch": 62, "duration": 15, "velocity": 63}, {"time": 4311, "pitch": 66, "duration": 15, "velocity": 64}, {"time": 4311, "pitch": 69, "duration": 16, "velocity": 69}, {"time": 4311, "pitch": 74, "duration": 15, "velocity": 45}, {"time": 4326, "pitch": 59, "duration": 9, "velocity": 35}, {"time": 4335, "pitch": 62, "duration": 14, "velocity": 66}, {"time": 4335, "pitch": 66, "duration": 12, "velocity": 69}, {"time": 4335, "pitch": 69, "duration": 12, "velocity": 67}, {"time": 4335, "pitch": 74, "duration": 14, "velocity": 56}, {"time": 4341, "pitch": 59, "duration": 9, "velocity": 55}, {"time": 4347, "pitch": 54, "duration": 8, "velocity": 69}, {"time": 4359, "pitch": 45, "duration": 31, "velocity": 66}, {"time": 4359, "pitch": 57, "duration": 12, "velocity": 72}, {"time": 4359, "pitch": 60, "duration": 18, "velocity": 72}, {"time": 4359, "pitch": 64, "duration": 17, "velocity": 72}, {"time": 4359, "pitch": 67, "duration": 12, "velocity": 73}, {"time": 4365, "pitch": 69, "duration": 11, "velocity": 31}, {"time": 4377, "pitch": 57, "duration": 11, "velocity": 35}, {"time": 4383, "pitch": 60, "duration": 13, "velocity": 76}, {"time": 4383, "pitch": 64, "duration": 12, "velocity": 72}, {"time": 4383, "pitch": 67, "duration": 12, "velocity": 75}, {"time": 4383, "pitch": 69, "duration": 11, "velocity": 72}, {"time": 4395, "pitch": 45, "duration": 4, "velocity": 73}, {"time": 4395, "pitch": 57, "duration": 2, "velocity": 57}, {"time": 4407, "pitch": 38, "duration": 36, "velocity": 72}, {"time": 4407, "pitch": 50, "duration": 9, "velocity": 61}, {"time": 4407, "pitch": 62, "duration": 15, "velocity": 73}, {"time": 4407, "pitch": 66, "duration": 15, "velocity": 78}, {"time": 4407, "pitch": 69, "duration": 16, "velocity": 70}, {"time": 4425, "pitch": 50, "duration": 10, "velocity": 33}, {"time": 4431, "pitch": 62, "duration": 10, "velocity": 78}, {"time": 4431, "pitch": 66, "duration": 9, "velocity": 80}, {"time": 4431, "pitch": 69, "duration": 8, "velocity": 72}, {"time": 4443, "pitch": 42, "duration": 3, "velocity": 72}, {"time": 4455, "pitch": 43, "duration": 90, "velocity": 72}, {"time": 4455, "pitch": 55, "duration": 27, "velocity": 75}, {"time": 4455, "pitch": 59, "duration": 19, "velocity": 69}, {"time": 4455, "pitch": 62, "duration": 15, "velocity": 76}, {"time": 4455, "pitch": 67, "duration": 18, "velocity": 76}, {"time": 4479, "pitch": 59, "duration": 14, "velocity": 61}, {"time": 4479, "pitch": 62, "duration": 15, "velocity": 63}, {"time": 4479, "pitch": 66, "duration": 10, "velocity": 70}, {"time": 4479, "pitch": 67, "duration": 11, "velocity": 62}, {"time": 4491, "pitch": 55, "duration": 18, "velocity": 49}, {"time": 4503, "pitch": 59, "duration": 14, "velocity": 67}, {"time": 4503, "pitch": 62, "duration": 13, "velocity": 73}, {"time": 4503, "pitch": 67, "duration": 11, "velocity": 72}, {"time": 4515, "pitch": 55, "duration": 14, "velocity": 62}, {"time": 4527, "pitch": 59, "duration": 14, "velocity": 82}, {"time": 4527, "pitch": 62, "duration": 11, "velocity": 91}, {"time": 4527, "pitch": 67, "duration": 11, "velocity": 76}, {"time": 4533, "pitch": 55, "duration": 8, "velocity": 57}, {"time": 4551, "pitch": 48, "duration": 67, "velocity": 76}, {"time": 4551, "pitch": 60, "duration": 9, "velocity": 82}, {"time": 4551, "pitch": 64, "duration": 10, "velocity": 82}, {"time": 4551, "pitch": 67, "duration": 9, "velocity": 78}, {"time": 4560, "pitch": 55, "duration": 13, "velocity": 42}, {"time": 4575, "pitch": 60, "duration": 28, "velocity": 49}, {"time": 4575, "pitch": 62, "duration": 13, "velocity": 67}, {"time": 4575, "pitch": 64, "duration": 13, "velocity": 60}, {"time": 4575, "pitch": 67, "duration": 13, "velocity": 59}, {"time": 4575, "pitch": 72, "duration": 15, "velocity": 67}, {"time": 4587, "pitch": 55, "duration": 38, "velocity": 35}, {"time": 4599, "pitch": 62, "duration": 12, "velocity": 63}, {"time": 4599, "pitch": 64, "duration": 12, "velocity": 58}, {"time": 4599, "pitch": 67, "duration": 12, "velocity": 64}, {"time": 4599, "pitch": 72, "duration": 12, "velocity": 59}, {"time": 4611, "pitch": 60, "duration": 10, "velocity": 36}, {"time": 4617, "pitch": 62, "duration": 17, "velocity": 53}, {"time": 4623, "pitch": 48, "duration": 16, "velocity": 69}, {"time": 4629, "pitch": 55, "duration": 11, "velocity": 66}, {"time": 4635, "pitch": 60, "duration": 3, "velocity": 80}, {"time": 4641, "pitch": 67, "duration": 5, "velocity": 63}, {"time": 4647, "pitch": 47, "duration": 79, "velocity": 72}, {"time": 4647, "pitch": 59, "duration": 28, "velocity": 72}, {"time": 4647, "pitch": 62, "duration": 19, "velocity": 78}, {"time": 4647, "pitch": 66, "duration": 17, "velocity": 80}, {"time": 4647, "pitch": 69, "duration": 15, "velocity": 72}, {"time": 4671, "pitch": 62, "duration": 15, "velocity": 67}, {"time": 4671, "pitch": 66, "duration": 14, "velocity": 75}, {"time": 4671, "pitch": 69, "duration": 12, "velocity": 62}, {"time": 4683, "pitch": 59, "duration": 18, "velocity": 44}, {"time": 4695, "pitch": 62, "duration": 15, "velocity": 47}, {"time": 4695, "pitch": 66, "duration": 14, "velocity": 52}, {"time": 4695, "pitch": 69, "duration": 12, "velocity": 55}, {"time": 4713, "pitch": 59, "duration": 8, "velocity": 40}, {"time": 4719, "pitch": 62, "duration": 14, "velocity": 91}, {"time": 4719, "pitch": 66, "duration": 11, "velocity": 97}, {"time": 4719, "pitch": 69, "duration": 12, "velocity": 85}, {"time": 4743, "pitch": 45, "duration": 39, "velocity": 66}, {"time": 4743, "pitch": 57, "duration": 29, "velocity": 66}, {"time": 4743, "pitch": 60, "duration": 17, "velocity": 76}, {"time": 4743, "pitch": 64, "duration": 18, "velocity": 76}, {"time": 4743, "pitch": 67, "duration": 17, "velocity": 72}, {"time": 4743, "pitch": 69, "duration": 13, "velocity": 66}, {"time": 4767, "pitch": 60, "duration": 12, "velocity": 64}, {"time": 4767, "pitch": 64, "duration": 14, "velocity": 66}, {"time": 4767, "pitch": 67, "duration": 15, "velocity": 61}, {"time": 4779, "pitch": 57, "duration": 4, "velocity": 64}, {"time": 4791, "pitch": 45, "duration": 37, "velocity": 73}, {"time": 4791, "pitch": 57, "duration": 12, "velocity": 78}, {"time": 4791, "pitch": 60, "duration": 16, "velocity": 75}, {"time": 4791, "pitch": 64, "duration": 16, "velocity": 80}, {"time": 4791, "pitch": 69, "duration": 18, "velocity": 75}, {"time": 4809, "pitch": 57, "duration": 12, "velocity": 50}, {"time": 4815, "pitch": 60, "duration": 11, "velocity": 91}, {"time": 4815, "pitch": 64, "duration": 11, "velocity": 91}, {"time": 4815, "pitch": 69, "duration": 11, "velocity": 75}, {"time": 4827, "pitch": 57, "duration": 3, "velocity": 76}, {"time": 4839, "pitch": 47, "duration": 38, "velocity": 69}, {"time": 4839, "pitch": 59, "duration": 8, "velocity": 93}, {"time": 4839, "pitch": 64, "duration": 15, "velocity": 88}, {"time": 4839, "pitch": 66, "duration": 14, "velocity": 91}, {"time": 4839, "pitch": 71, "duration": 16, "velocity": 75}, {"time": 4851, "pitch": 59, "duration": 16, "velocity": 45}, {"time": 4863, "pitch": 64, "duration": 13, "velocity": 95}, {"time": 4863, "pitch": 66, "duration": 13, "velocity": 101}, {"time": 4863, "pitch": 71, "duration": 12, "velocity": 72}, {"time": 4875, "pitch": 59, "duration": 3, "velocity": 88}, {"time": 4887, "pitch": 47, "duration": 38, "velocity": 69}, {"time": 4887, "pitch": 59, "duration": 9, "velocity": 95}, {"time": 4887, "pitch": 63, "duration": 20, "velocity": 95}, {"time": 4887, "pitch": 66, "duration": 20, "velocity": 99}, {"time": 4887, "pitch": 71, "duration": 18, "velocity": 76}, {"time": 4905, "pitch": 59, "duration": 9, "velocity": 67}, {"time": 4911, "pitch": 63, "duration": 13, "velocity": 101}, {"time": 4911, "pitch": 66, "duration": 12, "velocity": 109}, {"time": 4911, "pitch": 71, "duration": 12, "velocity": 88}, {"time": 4923, "pitch": 59, "duration": 3, "velocity": 88}, {"time": 4935, "pitch": 48, "duration": 42, "velocity": 73}, {"time": 4935, "pitch": 60, "duration": 14, "velocity": 80}, {"time": 4935, "pitch": 64, "duration": 4, "velocity": 75}, {"time": 4935, "pitch": 67, "duration": 9, "velocity": 95}, {"time": 4935, "pitch": 72, "duration": 10, "velocity": 73}, {"time": 4941, "pitch": 64, "duration": 11, "velocity": 40}, {"time": 4947, "pitch": 55, "duration": 23, "velocity": 59}, {"time": 4953, "pitch": 60, "duration": 7, "velocity": 61}, {"time": 4959, "pitch": 64, "duration": 7, "velocity": 78}, {"time": 4959, "pitch": 67, "duration": 8, "velocity": 88}, {"time": 4959, "pitch": 72, "duration": 7, "velocity": 72}, {"time": 4965, "pitch": 60, "duration": 10, "velocity": 73}, {"time": 4971, "pitch": 64, "duration": 7, "velocity": 80}, {"time": 4977, "pitch": 55, "duration": 5, "velocity": 73}, {"time": 4977, "pitch": 69, "duration": 5, "velocity": 67}, {"time": 4983, "pitch": 50, "duration": 39, "velocity": 58}, {"time": 4983, "pitch": 62, "duration": 6, "velocity": 75}, {"time": 4983, "pitch": 66, "duration": 10, "velocity": 99}, {"time": 4983, "pitch": 69, "duration": 3, "velocity": 48}, {"time": 4989, "pitch": 57, "duration": 19, "velocity": 47}, {"time": 4995, "pitch": 62, "duration": 23, "velocity": 76}, {"time": 5001, "pitch": 64, "duration": 9, "velocity": 72}, {"time": 5007, "pitch": 66, "duration": 8, "velocity": 95}, {"time": 5013, "pitch": 67, "duration": 4, "velocity": 67}, {"time": 5019, "pitch": 57, "duration": 4, "velocity": 73}, {"time": 5031, "pitch": 52, "duration": 39, "velocity": 70}, {"time": 5031, "pitch": 64, "duration": 7, "velocity": 72}, {"time": 5031, "pitch": 67, "duration": 8, "velocity": 82}, {"time": 5037, "pitch": 59, "duration": 12, "velocity": 53}, {"time": 5043, "pitch": 64, "duration": 5, "velocity": 69}, {"time": 5049, "pitch": 64, "duration": 2, "velocity": 50}, {"time": 5049, "pitch": 69, "duration": 8, "velocity": 78}, {"time": 5055, "pitch": 59, "duration": 19, "velocity": 55}, {"time": 5061, "pitch": 64, "duration": 8, "velocity": 67}, {"time": 5067, "pitch": 71, "duration": 8, "velocity": 76}, {"time": 5073, "pitch": 78, "duration": 5, "velocity": 82}, {"time": 5079, "pitch": 52, "duration": 39, "velocity": 70}, {"time": 5079, "pitch": 79, "duration": 4, "velocity": 69}, {"time": 5085, "pitch": 59, "duration": 17, "velocity": 64}, {"time": 5085, "pitch": 78, "duration": 3, "velocity": 66}, {"time": 5091, "pitch": 74, "duration": 4, "velocity": 78}, {"time": 5097, "pitch": 64, "duration": 8, "velocity": 70}, {"time": 5097, "pitch": 69, "duration": 5, "velocity": 82}, {"time": 5103, "pitch": 66, "duration": 7, "velocity": 99}, {"time": 5109, "pitch": 67, "duration": 8, "velocity": 76}, {"time": 5115, "pitch": 59, "duration": 3, "velocity": 72}, {"time": 5115, "pitch": 69, "duration": 4, "velocity": 70}, {"time": 5121, "pitch": 62, "duration": 4, "velocity": 80}, {"time": 5127, "pitch": 45, "duration": 12, "velocity": 69}, {"time": 5127, "pitch": 60, "duration": 12, "velocity": 73}, {"time": 5127, "pitch": 64, "duration": 16, "velocity": 75}, {"time": 5127, "pitch": 69, "duration": 19, "velocity": 75}, {"time": 5133, "pitch": 52, "duration": 6, "velocity": 56}, {"time": 5139, "pitch": 57, "duration": 7, "velocity": 78}, {"time": 5145, "pitch": 59, "duration": 14, "velocity": 69}, {"time": 5151, "pitch": 60, "duration": 8, "velocity": 76}, {"time": 5157, "pitch": 64, "duration": 4, "velocity": 76}, {"time": 5163, "pitch": 67, "duration": 7, "velocity": 82}, {"time": 5169, "pitch": 71, "duration": 7, "velocity": 70}, {"time": 5175, "pitch": 50, "duration": 36, "velocity": 66}, {"time": 5175, "pitch": 62, "duration": 7, "velocity": 66}, {"time": 5175, "pitch": 66, "duration": 14, "velocity": 97}, {"time": 5181, "pitch": 57, "duration": 19, "velocity": 57}, {"time": 5187, "pitch": 62, "duration": 22, "velocity": 60}, {"time": 5193, "pitch": 64, "duration": 14, "velocity": 75}, {"time": 5199, "pitch": 66, "duration": 7, "velocity": 85}, {"time": 5205, "pitch": 67, "duration": 7, "velocity": 69}, {"time": 5211, "pitch": 57, "duration": 3, "velocity": 62}, {"time": 5211, "pitch": 69, "duration": 6, "velocity": 62}, {"time": 5217, "pitch": 72, "duration": 4, "velocity": 47}, {"time": 5217, "pitch": 74, "duration": 3, "velocity": 47}, {"time": 5223, "pitch": 55, "duration": 38, "velocity": 69}, {"time": 5223, "pitch": 71, "duration": 10, "velocity": 85}, {"time": 5229, "pitch": 62, "duration": 21, "velocity": 60}, {"time": 5235, "pitch": 67, "duration": 23, "velocity": 52}, {"time": 5241, "pitch": 69, "duration": 5, "velocity": 72}, {"time": 5247, "pitch": 71, "duration": 14, "velocity": 80}, {"time": 5259, "pitch": 62, "duration": 8, "velocity": 63}, {"time": 5265, "pitch": 74, "duration": 5, "velocity": 42}, {"time": 5271, "pitch": 47, "duration": 38, "velocity": 69}, {"time": 5271, "pitch": 64, "duration": 8, "velocity": 82}, {"time": 5271, "pitch": 66, "duration": 9, "velocity": 78}, {"time": 5271, "pitch": 71, "duration": 8, "velocity": 76}, {"time": 5277, "pitch": 59, "duration": 20, "velocity": 62}, {"time": 5283, "pitch": 64, "duration": 7, "velocity": 75}, {"time": 5289, "pitch": 66, "duration": 4, "velocity": 59}, {"time": 5295, "pitch": 51, "duration": 16, "velocity": 88}, {"time": 5295, "pitch": 63, "duration": 13, "velocity": 80}, {"time": 5295, "pitch": 66, "duration": 13, "velocity": 73}, {"time": 5295, "pitch": 71, "duration": 13, "velocity": 66}, {"time": 5307, "pitch": 59, "duration": 5, "velocity": 88}, {"time": 5319, "pitch": 48, "duration": 42, "velocity": 72}, {"time": 5319, "pitch": 64, "duration": 14, "velocity": 85}, {"time": 5319, "pitch": 67, "duration": 14, "velocity": 91}, {"time": 5319, "pitch": 72, "duration": 11, "velocity": 80}, {"time": 5325, "pitch": 55, "duration": 32, "velocity": 67}, {"time": 5331, "pitch": 60, "duration": 14, "velocity": 73}, {"time": 5337, "pitch": 64, "duration": 5, "velocity": 76}, {"time": 5343, "pitch": 64, "duration": 7, "velocity": 66}, {"time": 5343, "pitch": 67, "duration": 8, "velocity": 76}, {"time": 5349, "pitch": 60, "duration": 13, "velocity": 72}, {"time": 5355, "pitch": 64, "duration": 6, "velocity": 85}, {"time": 5361, "pitch": 55, "duration": 5, "velocity": 70}, {"time": 5361, "pitch": 67, "duration": 5, "velocity": 82}, {"time": 5367, "pitch": 50, "duration": 39, "velocity": 72}, {"time": 5367, "pitch": 62, "duration": 4, "velocity": 78}, {"time": 5367, "pitch": 66, "duration": 9, "velocity": 95}, {"time": 5373, "pitch": 57, "duration": 21, "velocity": 52}, {"time": 5379, "pitch": 64, "duration": 3, "velocity": 70}, {"time": 5379, "pitch": 67, "duration": 4, "velocity": 82}, {"time": 5385, "pitch": 66, "duration": 4, "velocity": 101}, {"time": 5385, "pitch": 69, "duration": 4, "velocity": 82}, {"time": 5391, "pitch": 62, "duration": 7, "velocity": 58}, {"time": 5403, "pitch": 57, "duration": 3, "velocity": 69}, {"time": 5403, "pitch": 62, "duration": 4, "velocity": 85}, {"time": 5415, "pitch": 52, "duration": 34, "velocity": 69}, {"time": 5415, "pitch": 67, "duration": 9, "velocity": 82}, {"time": 5415, "pitch": 71, "duration": 9, "velocity": 70}, {"time": 5421, "pitch": 59, "duration": 20, "velocity": 45}, {"time": 5427, "pitch": 69, "duration": 7, "velocity": 54}, {"time": 5433, "pitch": 67, "duration": 8, "velocity": 76}, {"time": 5433, "pitch": 71, "duration": 9, "velocity": 59}, {"time": 5439, "pitch": 64, "duration": 8, "velocity": 73}, {"time": 5445, "pitch": 59, "duration": 13, "velocity": 62}, {"time": 5451, "pitch": 66, "duration": 4, "velocity": 78}, {"time": 5457, "pitch": 64, "duration": 11, "velocity": 91}, {"time": 5457, "pitch": 67, "duration": 6, "velocity": 88}, {"time": 5463, "pitch": 52, "duration": 40, "velocity": 64}, {"time": 5469, "pitch": 59, "duration": 13, "velocity": 73}, {"time": 5475, "pitch": 62, "duration": 3, "velocity": 70}, {"time": 5475, "pitch": 66, "duration": 4, "velocity": 85}, {"time": 5481, "pitch": 64, "duration": 3, "velocity": 78}, {"time": 5481, "pitch": 67, "duration": 5, "velocity": 80}, {"time": 5487, "pitch": 62, "duration": 3, "velocity": 80}, {"time": 5487, "pitch": 69, "duration": 4, "velocity": 72}, {"time": 5493, "pitch": 62, "duration": 3, "velocity": 52}, {"time": 5493, "pitch": 67, "duration": 5, "velocity": 85}, {"time": 5499, "pitch": 59, "duration": 3, "velocity": 53}, {"time": 5499, "pitch": 62, "duration": 3, "velocity": 36}, {"time": 5499, "pitch": 66, "duration": 6, "velocity": 99}, {"time": 5505, "pitch": 62, "duration": 3, "velocity": 78}, {"time": 5511, "pitch": 48, "duration": 31, "velocity": 72}, {"time": 5511, "pitch": 60, "duration": 12, "velocity": 82}, {"time": 5511, "pitch": 64, "duration": 11, "velocity": 75}, {"time": 5511, "pitch": 67, "duration": 13, "velocity": 67}, {"time": 5523, "pitch": 55, "duration": 13, "velocity": 53}, {"time": 5529, "pitch": 60, "duration": 12, "velocity": 57}, {"time": 5535, "pitch": 64, "duration": 11, "velocity": 95}, {"time": 5535, "pitch": 67, "duration": 10, "velocity": 88}, {"time": 5541, "pitch": 55, "duration": 3, "velocity": 55}, {"time": 5547, "pitch": 47, "duration": 3, "velocity": 91}, {"time": 5553, "pitch": 45, "duration": 3, "velocity": 82}, {"time": 5559, "pitch": 47, "duration": 38, "velocity": 85}, {"time": 5559, "pitch": 62, "duration": 14, "velocity": 88}, {"time": 5559, "pitch": 66, "duration": 15, "velocity": 99}, {"time": 5571, "pitch": 59, "duration": 15, "velocity": 56}, {"time": 5577, "pitch": 62, "duration": 3, "velocity": 53}, {"time": 5583, "pitch": 62, "duration": 12, "velocity": 80}, {"time": 5583, "pitch": 66, "duration": 12, "velocity": 88}, {"time": 5583, "pitch": 69, "duration": 10, "velocity": 85}, {"time": 5595, "pitch": 59, "duration": 2, "velocity": 69}, {"time": 5607, "pitch": 40, "duration": 44, "velocity": 76}, {"time": 5607, "pitch": 64, "duration": 12, "velocity": 78}, {"time": 5607, "pitch": 69, "duration": 13, "velocity": 93}, {"time": 5607, "pitch": 71, "duration": 10, "velocity": 85}, {"time": 5619, "pitch": 52, "duration": 18, "velocity": 56}, {"time": 5625, "pitch": 64, "duration": 9, "velocity": 97}, {"time": 5637, "pitch": 64, "duration": 2, "velocity": 56}, {"time": 5637, "pitch": 69, "duration": 4, "velocity": 91}, {"time": 5643, "pitch": 52, "duration": 9, "velocity": 69}, {"time": 5655, "pitch": 40, "duration": 39, "velocity": 70}, {"time": 5655, "pitch": 52, "duration": 4, "velocity": 73}, {"time": 5655, "pitch": 64, "duration": 8, "velocity": 75}, {"time": 5655, "pitch": 68, "duration": 9, "velocity": 73}, {"time": 5667, "pitch": 52, "duration": 5, "velocity": 64}, {"time": 5667, "pitch": 64, "duration": 7, "velocity": 64}, {"time": 5667, "pitch": 69, "duration": 13, "velocity": 72}, {"time": 5679, "pitch": 52, "duration": 7, "velocity": 93}, {"time": 5679, "pitch": 64, "duration": 3, "velocity": 80}, {"time": 5679, "pitch": 71, "duration": 3, "velocity": 80}, {"time": 5691, "pitch": 52, "duration": 3, "velocity": 91}, {"time": 5691, "pitch": 64, "duration": 3, "velocity": 88}, {"time": 5691, "pitch": 76, "duration": 3, "velocity": 88}, {"time": 5703, "pitch": 48, "duration": 42, "velocity": 73}, {"time": 5703, "pitch": 60, "duration": 14, "velocity": 80}, {"time": 5703, "pitch": 64, "duration": 4, "velocity": 75}, {"time": 5703, "pitch": 67, "duration": 9, "velocity": 95}, {"time": 5703, "pitch": 72, "duration": 10, "velocity": 73}, {"time": 5709, "pitch": 64, "duration": 11, "velocity": 40}, {"time": 5715, "pitch": 55, "duration": 23, "velocity": 59}, {"time": 5721, "pitch": 60, "duration": 7, "velocity": 61}, {"time": 5727, "pitch": 64, "duration": 7, "velocity": 78}, {"time": 5727, "pitch": 67, "duration": 8, "velocity": 88}, {"time": 5727, "pitch": 72, "duration": 7, "velocity": 72}, {"time": 5733, "pitch": 60, "duration": 10, "velocity": 73}, {"time": 5739, "pitch": 64, "duration": 7, "velocity": 80}, {"time": 5745, "pitch": 55, "duration": 5, "velocity": 73}, {"time": 5745, "pitch": 69, "duration": 5, "velocity": 67}, {"time": 5751, "pitch": 50, "duration": 39, "velocity": 58}, {"time": 5751, "pitch": 62, "duration": 6, "velocity": 75}, {"time": 5751, "pitch": 66, "duration": 10, "velocity": 99}, {"time": 5751, "pitch": 69, "duration": 3, "velocity": 48}, {"time": 5757, "pitch": 57, "duration": 19, "velocity": 47}, {"time": 5763, "pitch": 62, "duration": 23, "velocity": 76}, {"time": 5769, "pitch": 64, "duration": 9, "velocity": 72}, {"time": 5775, "pitch": 66, "duration": 8, "velocity": 95}, {"time": 5781, "pitch": 67, "duration": 4, "velocity": 67}, {"time": 5787, "pitch": 57, "duration": 4, "velocity": 73}, {"time": 5799, "pitch": 52, "duration": 39, "velocity": 70}, {"time": 5799, "pitch": 64, "duration": 7, "velocity": 72}, {"time": 5799, "pitch": 67, "duration": 8, "velocity": 82}, {"time": 5805, "pitch": 59, "duration": 12, "velocity": 53}, {"time": 5811, "pitch": 64, "duration": 5, "velocity": 69}, {"time": 5817, "pitch": 64, "duration": 2, "velocity": 50}, {"time": 5817, "pitch": 69, "duration": 8, "velocity": 78}, {"time": 5823, "pitch": 59, "duration": 19, "velocity": 55}, {"time": 5829, "pitch": 64, "duration": 8, "velocity": 67}, {"time": 5835, "pitch": 71, "duration": 8, "velocity": 76}, {"time": 5841, "pitch": 78, "duration": 5, "velocity": 82}, {"time": 5847, "pitch": 52, "duration": 39, "velocity": 70}, {"time": 5847, "pitch": 79, "duration": 4, "velocity": 69}, {"time": 5853, "pitch": 59, "duration": 17, "velocity": 64}, {"time": 5853, "pitch": 78, "duration": 3, "velocity": 66}, {"time": 5859, "pitch": 74, "duration": 4, "velocity": 78}, {"time": 5865, "pitch": 64, "duration": 8, "velocity": 70}, {"time": 5865, "pitch": 69, "duration": 5, "velocity": 82}, {"time": 5871, "pitch": 66, "duration": 7, "velocity": 99}, {"time": 5877, "pitch": 67, "duration": 8, "velocity": 76}, {"time": 5883, "pitch": 59, "duration": 3, "velocity": 72}, {"time": 5883, "pitch": 69, "duration": 4, "velocity": 70}, {"time": 5889, "pitch": 62, "duration": 4, "velocity": 80}, {"time": 5895, "pitch": 45, "duration": 12, "velocity": 69}, {"time": 5895, "pitch": 60, "duration": 12, "velocity": 73}, {"time": 5895, "pitch": 64, "duration": 16, "velocity": 75}, {"time": 5895, "pitch": 69, "duration": 19, "velocity": 75}, {"time": 5901, "pitch": 52, "duration": 6, "velocity": 56}, {"time": 5907, "pitch": 57, "duration": 7, "velocity": 78}, {"time": 5913, "pitch": 59, "duration": 14, "velocity": 69}, {"time": 5919, "pitch": 60, "duration": 8, "velocity": 76}, {"time": 5925, "pitch": 64, "duration": 4, "velocity": 76}, {"time": 5931, "pitch": 67, "duration": 7, "velocity": 82}, {"time": 5937, "pitch": 71, "duration": 7, "velocity": 70}, {"time": 5943, "pitch": 50, "duration": 36, "velocity": 66}, {"time": 5943, "pitch": 62, "duration": 7, "velocity": 66}, {"time": 5943, "pitch": 66, "duration": 14, "velocity": 97}, {"time": 5949, "pitch": 57, "duration": 19, "velocity": 57}, {"time": 5955, "pitch": 62, "duration": 22, "velocity": 60}, {"time": 5961, "pitch": 64, "duration": 14, "velocity": 75}, {"time": 5967, "pitch": 66, "duration": 7, "velocity": 85}, {"time": 5973, "pitch": 67, "duration": 7, "velocity": 69}, {"time": 5979, "pitch": 57, "duration": 3, "velocity": 62}, {"time": 5979, "pitch": 69, "duration": 6, "velocity": 62}, {"time": 5985, "pitch": 72, "duration": 4, "velocity": 47}, {"time": 5985, "pitch": 74, "duration": 3, "velocity": 47}, {"time": 5991, "pitch": 55, "duration": 38, "velocity": 69}, {"time": 5991, "pitch": 71, "duration": 10, "velocity": 85}, {"time": 5997, "pitch": 62, "duration": 21, "velocity": 60}, {"time": 6003, "pitch": 67, "duration": 23, "velocity": 52}, {"time": 6009, "pitch": 69, "duration": 5, "velocity": 72}, {"time": 6015, "pitch": 71, "duration": 14, "velocity": 80}, {"time": 6027, "pitch": 62, "duration": 8, "velocity": 63}, {"time": 6033, "pitch": 74, "duration": 5, "velocity": 42}, {"time": 6039, "pitch": 47, "duration": 38, "velocity": 69}, {"time": 6039, "pitch": 64, "duration": 8, "velocity": 82}, {"time": 6039, "pitch": 66, "duration": 9, "velocity": 78}, {"time": 6039, "pitch": 71, "duration": 8, "velocity": 76}, {"time": 6045, "pitch": 59, "duration": 20, "velocity": 62}, {"time": 6051, "pitch": 64, "duration": 7, "velocity": 75}, {"time": 6057, "pitch": 66, "duration": 4, "velocity": 59}, {"time": 6063, "pitch": 51, "duration": 16, "velocity": 88}, {"time": 6063, "pitch": 63, "duration": 13, "velocity": 80}, {"time": 6063, "pitch": 66, "duration": 13, "velocity": 73}, {"time": 6063, "pitch": 71, "duration": 13, "velocity": 66}, {"time": 6075, "pitch": 59, "duration": 5, "velocity": 88}, {"time": 6087, "pitch": 48, "duration": 42, "velocity": 72}, {"time": 6087, "pitch": 64, "duration": 14, "velocity": 85}, {"time": 6087, "pitch": 67, "duration": 14, "velocity": 91}, {"time": 6087, "pitch": 72, "duration": 11, "velocity": 80}, {"time": 6093, "pitch": 55, "duration": 32, "velocity": 67}, {"time": 6099, "pitch": 60, "duration": 14, "velocity": 73}, {"time": 6105, "pitch": 64, "duration": 5, "velocity": 76}, {"time": 6111, "pitch": 64, "duration": 7, "velocity": 66}, {"time": 6111, "pitch": 67, "duration": 8, "velocity": 76}, {"time": 6117, "pitch": 60, "duration": 13, "velocity": 72}, {"time": 6123, "pitch": 64, "duration": 6, "velocity": 85}, {"time": 6129, "pitch": 55, "duration": 5, "velocity": 70}, {"time": 6129, "pitch": 67, "duration": 5, "velocity": 82}, {"time": 6135, "pitch": 50, "duration": 39, "velocity": 72}, {"time": 6135, "pitch": 62, "duration": 4, "velocity": 78}, {"time": 6135, "pitch": 66, "duration": 9, "velocity": 95}, {"time": 6141, "pitch": 57, "duration": 21, "velocity": 52}, {"time": 6147, "pitch": 64, "duration": 3, "velocity": 70}, {"time": 6147, "pitch": 67, "duration": 4, "velocity": 82}, {"time": 6153, "pitch": 66, "duration": 4, "velocity": 101}, {"time": 6153, "pitch": 69, "duration": 4, "velocity": 82}, {"time": 6159, "pitch": 62, "duration": 7, "velocity": 58}, {"time": 6171, "pitch": 57, "duration": 3, "velocity": 69}, {"time": 6171, "pitch": 62, "duration": 4, "velocity": 85}, {"time": 6183, "pitch": 52, "duration": 16, "velocity": 70}, {"time": 6183, "pitch": 64, "duration": 8, "velocity": 73}, {"time": 6183, "pitch": 67, "duration": 8, "velocity": 76}, {"time": 6183, "pitch": 71, "duration": 8, "velocity": 73}, {"time": 6189, "pitch": 59, "duration": 17, "velocity": 69}, {"time": 6195, "pitch": 64, "duration": 7, "velocity": 76}, {"time": 6201, "pitch": 71, "duration": 7, "velocity": 69}, {"time": 6207, "pitch": 50, "duration": 14, "velocity": 72}, {"time": 6207, "pitch": 62, "duration": 9, "velocity": 73}, {"time": 6207, "pitch": 66, "duration": 10, "velocity": 73}, {"time": 6207, "pitch": 69, "duration": 9, "velocity": 62}, {"time": 6213, "pitch": 59, "duration": 9, "velocity": 62}, {"time": 6219, "pitch": 62, "duration": 7, "velocity": 85}, {"time": 6219, "pitch": 66, "duration": 2, "velocity": 66}, {"time": 6225, "pitch": 71, "duration": 4, "velocity": 57}, {"time": 6231, "pitch": 49, "duration": 73, "velocity": 75}, {"time": 6231, "pitch": 61, "duration": 73, "velocity": 99}, {"time": 6231, "pitch": 64, "duration": 23, "velocity": 82}, {"time": 6231, "pitch": 67, "duration": 28, "velocity": 88}, {"time": 6231, "pitch": 71, "duration": 30, "velocity": 78}, {"time": 6279, "pitch": 85, "duration": 14, "velocity": 61}, {"time": 6283, "pitch": 88, "duration": 12, "velocity": 47}, {"time": 6284, "pitch": 91, "duration": 11, "velocity": 47}, {"time": 6286, "pitch": 95, "duration": 9, "velocity": 46}, {"time": 6375, "pitch": 45, "duration": 30, "velocity": 70}, {"time": 6375, "pitch": 57, "duration": 30, "velocity": 67}, {"time": 6375, "pitch": 60, "duration": 26, "velocity": 67}, {"time": 6375, "pitch": 64, "duration": 26, "velocity": 64}, {"time": 6375, "pitch": 67, "duration": 27, "velocity": 66}, {"time": 6423, "pitch": 47, "duration": 29, "velocity": 63}, {"time": 6423, "pitch": 59, "duration": 30, "velocity": 58}, {"time": 6423, "pitch": 62, "duration": 31, "velocity": 67}, {"time": 6423, "pitch": 66, "duration": 30, "velocity": 70}, {"time": 6423, "pitch": 69, "duration": 30, "velocity": 66}, {"time": 6471, "pitch": 52, "duration": 74, "velocity": 69}, {"time": 6471, "pitch": 62, "duration": 13, "velocity": 55}, {"time": 6471, "pitch": 67, "duration": 12, "velocity": 60}, {"time": 6471, "pitch": 71, "duration": 14, "velocity": 58}, {"time": 6483, "pitch": 59, "duration": 15, "velocity": 29}, {"time": 6495, "pitch": 64, "duration": 13, "velocity": 51}, {"time": 6495, "pitch": 69, "duration": 12, "velocity": 59}, {"time": 6507, "pitch": 59, "duration": 34, "velocity": 44}, {"time": 6516, "pitch": 64, "duration": 17, "velocity": 41}, {"time": 6519, "pitch": 68, "duration": 14, "velocity": 50}, {"time": 6519, "pitch": 71, "duration": 23, "velocity": 51}, {"time": 6537, "pitch": 64, "duration": 6, "velocity": 49}, {"time": 6566, "pitch": 64, "duration": 12, "velocity": 62}, {"time": 6566, "pitch": 60, "duration": 14, "velocity": 64}, {"time": 6566, "pitch": 67, "duration": 12, "velocity": 63}, {"time": 6567, "pitch": 45, "duration": 37, "velocity": 62}, {"time": 6579, "pitch": 52, "duration": 25, "velocity": 56}, {"time": 6591, "pitch": 57, "duration": 14, "velocity": 45}, {"time": 6592, "pitch": 60, "duration": 11, "velocity": 53}, {"time": 6604, "pitch": 67, "duration": 8, "velocity": 64}, {"time": 6616, "pitch": 47, "duration": 78, "velocity": 55}, {"time": 6616, "pitch": 66, "duration": 74, "velocity": 60}, {"time": 6616, "pitch": 69, "duration": 76, "velocity": 66}, {"time": 6616, "pitch": 62, "duration": 76, "velocity": 63}, {"time": 6616, "pitch": 59, "duration": 79, "velocity": 49}, {"time": 6715, "pitch": 69, "duration": 14, "velocity": 67}, {"time": 6715, "pitch": 64, "duration": 14, "velocity": 60}, {"time": 6715, "pitch": 52, "duration": 72, "velocity": 69}, {"time": 6726, "pitch": 57, "duration": 59, "velocity": 55}, {"time": 6733, "pitch": 59, "duration": 52, "velocity": 66}, {"time": 6739, "pitch": 64, "duration": 46, "velocity": 78}, {"time": 6746, "pitch": 69, "duration": 5, "velocity": 35}, {"time": 6752, "pitch": 71, "duration": 3, "velocity": 52}, {"time": 6760, "pitch": 76, "duration": 8, "velocity": 32}, {"time": 6767, "pitch": 81, "duration": 11, "velocity": 57}, {"time": 6777, "pitch": 83, "duration": 14, "velocity": 35}, {"time": 6791, "pitch": 88, "duration": 20, "velocity": 44}, {"time": 6814, "pitch": 76, "duration": 22, "velocity": 37}, {"time": 6816, "pitch": 80, "duration": 21, "velocity": 39}, {"time": 6818, "pitch": 40, "duration": 21, "velocity": 44}, {"time": 6819, "pitch": 83, "duration": 18, "velocity": 40}, {"time": 6821, "pitch": 88, "duration": 18, "velocity": 41}], "annotations": [{"time": 87, "annotation": {"number": 64, "value": 127}, "group": "control_change"}, {"time": 219, "annotation": {"number": 64, "value": 0}, "group": "control_change"}, {"time": 233, "annotation": {"number": 64, "value": 127}, "group": "control_change"}, {"time": 273, "annotation": {"number": 64, "value": 0}, "group": "control_change"}, {"time": 278, "annotation": {"number": 64, "value": 127}, "group": "control_change"}, {"time": 321, "annotation": {"number": 64, "value": 0}, "group": "control_change"}, {"time": 325, "annotation": {"number": 64, "value": 127}, "group": "control_change"}, {"time": 375, "annotation": {"number": 64, "value": 0}, "group": "control_change"}, {"time": 378, "annotation": {"number": 64, "value": 121}, "group": "control_change"}, {"time": 423, "annotation": {"number": 64, "value": 0}, "group": "control_change"}, {"time": 426, "annotation": {"number": 64, "value": 127}, "group": "control_change"}, {"time": 471, "annotation": {"number": 64, "value": 0}, "group": "control_change"}, {"time": 473, "annotation": {"number": 64, "value": 127}, "group": "control_change"}, {"time": 519, "annotation": {"number": 64, "value": 0}, "group": "control_change"}, {"time": 525, "annotation": {"number": 64, "value": 127}, "group": "control_change"}, {"time": 615, "annotation": {"number": 64, "value": 0}, "group": "control_change"}, {"time": 619, "annotation": {"number": 64, "value": 127}, "group": "control_change"}, {"time": 659, "annotation": {"number": 64, "value": 0}, "group": "control_change"}, {"time": 662, "annotation": {"number": 64, "value": 127}, "group": "control_change"}, {"time": 715, "annotation": {"number": 64, "value": 0}, "group": "control_change"}, {"time": 718, "annotation": {"number": 64, "value": 127}, "group": "control_change"}, {"time": 806, "annotation": {"number": 64, "value": 0}, "group": "control_change"}, {"time": 808, "annotation": {"number": 64, "value": 127}, "group": "control_change"}, {"time": 854, "annotation": {"number": 64, "value": 0}, "group": "control_change"}, {"time": 856, "annotation": {"number": 64, "value": 127}, "group": "control_change"}, {"time": 904, "annotation": {"number": 64, "value": 0}, "group": "control_change"}, {"time": 906, "annotation": {"number": 64, "value": 127}, "group": "control_change"}, {"time": 950, "annotation": {"number": 64, "value": 0}, "group": "control_change"}, {"time": 953, "annotation": {"number": 64, "value": 127}, "group": "control_change"}, {"time": 1096, "annotation": {"number": 64, "value": 127}, "group": "control_change"}, {"time": 1096, "annotation": {"number": 64, "value": 0}, "group": "control_change"}, {"time": 1191, "annotation": {"number": 64, "value": 0}, "group": "control_change"}, {"time": 1196, "annotation": {"number": 64, "value": 127}, "group": "control_change"}, {"time": 1287, "annotation": {"number": 64, "value": 0}, "group": "control_change"}, {"time": 1288, "annotation": {"number": 64, "value": 127}, "group": "control_change"}, {"time": 1336, "annotation": {"number": 64, "value": 0}, "group": "control_change"}, {"time": 1341, "annotation": {"number": 64, "value": 127}, "group": "control_change"}, {"time": 1380, "annotation": {"number": 64, "value": 0}, "group": "control_change"}, {"time": 1384, "annotation": {"number": 64, "value": 127}, "group": "control_change"}, {"time": 1428, "annotation": {"number": 64, "value": 0}, "group": "control_change"}, {"time": 1433, "annotation": {"number": 64, "value": 127}, "group": "control_change"}, {"time": 1456, "annotation": {"number": 64, "value": 0}, "group": "control_change"}, {"time": 1460, "annotation": {"number": 64, "value": 127}, "group": "control_change"}, {"time": 1461, "annotation": {"number": 64, "value": 127}, "group": "control_change"}, {"time": 1478, "annotation": {"number": 64, "value": 0}, "group": "control_change"}, {"time": 1479, "annotation": {"number": 64, "value": 0}, "group": "control_change"}, {"time": 1483, "annotation": {"number": 64, "value": 127}, "group": "control_change"}, {"time": 1484, "annotation": {"number": 64, "value": 127}, "group": "control_change"}, {"time": 1527, "annotation": {"number": 64, "value": 0}, "group": "control_change"}, {"time": 1575, "annotation": {"number": 64, "value": 127}, "group": "control_change"}, {"time": 1576, "annotation": {"number": 64, "value": 0}, "group": "control_change"}, {"time": 1670, "annotation": {"number": 64, "value": 0}, "group": "control_change"}, {"time": 1671, "annotation": {"number": 64, "value": 127}, "group": "control_change"}, {"time": 1719, "annotation": {"number": 64, "value": 0}, "group": "control_change"}, {"time": 1724, "annotation": {"number": 64, "value": 127}, "group": "control_change"}, {"time": 1764, "annotation": {"number": 64, "value": 0}, "group": "control_change"}, {"time": 1768, "annotation": {"number": 64, "value": 127}, "group": "control_change"}, {"time": 1861, "annotation": {"number": 64, "value": 0}, "group": "control_change"}, {"time": 1862, "annotation": {"number": 64, "value": 127}, "group": "control_change"}, {"time": 1863, "annotation": {"number": 64, "value": 0}, "group": "control_change"}, {"time": 1956, "annotation": {"number": 64, "value": 0}, "group": "control_change"}, {"time": 1964, "annotation": {"number": 64, "value": 127}, "group": "control_change"}, {"time": 2007, "annotation": {"number": 64, "value": 0}, "group": "control_change"}, {"time": 2011, "annotation": {"number": 64, "value": 127}, "group": "control_change"}, {"time": 2054, "annotation": {"number": 64, "value": 0}, "group": "control_change"}, {"time": 2062, "annotation": {"number": 64, "value": 127}, "group": "control_change"}, {"time": 2102, "annotation": {"number": 64, "value": 0}, "group": "control_change"}, {"time": 2108, "annotation": {"number": 64, "value": 127}, "group": "control_change"}, {"time": 2153, "annotation": {"number": 64, "value": 0}, "group": "control_change"}, {"time": 2161, "annotation": {"number": 64, "value": 127}, "group": "control_change"}, {"time": 2249, "annotation": {"number": 64, "value": 0}, "group": "control_change"}, {"time": 2254, "annotation": {"number": 64, "value": 127}, "group": "control_change"}, {"time": 2344, "annotation": {"number": 64, "value": 0}, "group": "control_change"}, {"time": 2350, "annotation": {"number": 64, "value": 127}, "group": "control_change"}, {"time": 2440, "annotation": {"number": 64, "value": 0}, "group": "control_change"}, {"time": 2445, "annotation": {"number": 64, "value": 127}, "group": "control_change"}, {"time": 2487, "annotation": {"number": 64, "value": 0}, "group": "control_change"}, {"time": 2488, "annotation": {"number": 64, "value": 127}, "group": "control_change"}, {"time": 2532, "annotation": {"number": 64, "value": 0}, "group": "control_change"}, {"time": 2537, "annotation": {"number": 64, "value": 127}, "group": "control_change"}, {"time": 2581, "annotation": {"number": 64, "value": 0}, "group": "control_change"}, {"time": 2588, "annotation": {"number": 64, "value": 127}, "group": "control_change"}, {"time": 2625, "annotation": {"number": 64, "value": 0}, "group": "control_change"}, {"time": 2630, "annotation": {"number": 64, "value": 127}, "group": "control_change"}, {"time": 2678, "annotation": {"number": 64, "value": 0}, "group": "control_change"}, {"time": 2684, "annotation": {"number": 64, "value": 127}, "group": "control_change"}, {"time": 2727, "annotation": {"number": 64, "value": 0}, "group": "control_change"}, {"time": 2731, "annotation": {"number": 64, "value": 127}, "group": "control_change"}, {"time": 2823, "annotation": {"number": 64, "value": 127}, "group": "control_change"}, {"time": 2873, "annotation": {"number": 64, "value": 0}, "group": "control_change"}, {"time": 2877, "annotation": {"number": 64, "value": 127}, "group": "control_change"}, {"time": 2920, "annotation": {"number": 64, "value": 0}, "group": "control_change"}, {"time": 2924, "annotation": {"number": 64, "value": 127}, "group": "control_change"}, {"time": 2967, "annotation": {"number": 64, "value": 0}, "group": "control_change"}, {"time": 2968, "annotation": {"number": 64, "value": 127}, "group": "control_change"}, {"time": 2990, "annotation": {"number": 64, "value": 0}, "group": "control_change"}, {"time": 2994, "annotation": {"number": 64, "value": 127}, "group": "control_change"}, {"time": 3015, "annotation": {"number": 64, "value": 0}, "group": "control_change"}, {"time": 3020, "annotation": {"number": 64, "value": 127}, "group": "control_change"}, {"time": 3061, "annotation": {"number": 64, "value": 0}, "group": "control_change"}, {"time": 3065, "annotation": {"number": 64, "value": 127}, "group": "control_change"}, {"time": 3111, "annotation": {"number": 64, "value": 0}, "group": "control_change"}, {"time": 3112, "annotation": {"number": 64, "value": 127}, "group": "control_change"}, {"time": 3115, "annotation": {"number": 64, "value": 127}, "group": "control_change"}, {"time": 3207, "annotation": {"number": 64, "value": 0}, "group": "control_change"}, {"time": 3212, "annotation": {"number": 64, "value": 127}, "group": "control_change"}, {"time": 3255, "annotation": {"number": 64, "value": 0}, "group": "control_change"}, {"time": 3259, "annotation": {"number": 64, "value": 127}, "group": "control_change"}, {"time": 3301, "annotation": {"number": 64, "value": 0}, "group": "control_change"}, {"time": 3304, "annotation": {"number": 64, "value": 127}, "group": "control_change"}, {"time": 3387, "annotation": {"number": 64, "value": 0}, "group": "control_change"}, {"time": 3402, "annotation": {"number": 64, "value": 127}, "group": "control_change"}, {"time": 3444, "annotation": {"number": 64, "value": 0}, "group": "control_change"}, {"time": 3455, "annotation": {"number": 64, "value": 127}, "group": "control_change"}, {"time": 3492, "annotation": {"number": 64, "value": 0}, "group": "control_change"}, {"time": 3506, "annotation": {"number": 64, "value": 127}, "group": "control_change"}, {"time": 3591, "annotation": {"number": 64, "value": 0}, "group": "control_change"}, {"time": 3599, "annotation": {"number": 64, "value": 127}, "group": "control_change"}, {"time": 3638, "annotation": {"number": 64, "value": 0}, "group": "control_change"}, {"time": 3646, "annotation": {"number": 64, "value": 127}, "group": "control_change"}, {"time": 3687, "annotation": {"number": 64, "value": 0}, "group": "control_change"}, {"time": 3699, "annotation": {"number": 64, "value": 127}, "group": "control_change"}, {"time": 3732, "annotation": {"number": 64, "value": 0}, "group": "control_change"}, {"time": 3737, "annotation": {"number": 64, "value": 127}, "group": "control_change"}, {"time": 3757, "annotation": {"number": 64, "value": 0}, "group": "control_change"}, {"time": 3764, "annotation": {"number": 64, "value": 127}, "group": "control_change"}, {"time": 3781, "annotation": {"number": 64, "value": 0}, "group": "control_change"}, {"time": 3789, "annotation": {"number": 64, "value": 127}, "group": "control_change"}, {"time": 3832, "annotation": {"number": 64, "value": 0}, "group": "control_change"}, {"time": 3838, "annotation": {"number": 64, "value": 127}, "group": "control_change"}, {"time": 3878, "annotation": {"number": 64, "value": 0}, "group": "control_change"}, {"time": 3883, "annotation": {"number": 64, "value": 127}, "group": "control_change"}, {"time": 3885, "annotation": {"number": 64, "value": 127}, "group": "control_change"}, {"time": 3900, "annotation": {"number": 64, "value": 0}, "group": "control_change"}, {"time": 3903, "annotation": {"number": 64, "value": 0}, "group": "control_change"}, {"time": 3913, "annotation": {"number": 64, "value": 127}, "group": "control_change"}, {"time": 3925, "annotation": {"number": 64, "value": 0}, "group": "control_change"}, {"time": 3930, "annotation": {"number": 64, "value": 127}, "group": "control_change"}, {"time": 3976, "annotation": {"number": 64, "value": 0}, "group": "control_change"}, {"time": 3984, "annotation": {"number": 64, "value": 127}, "group": "control_change"}, {"time": 4022, "annotation": {"number": 64, "value": 0}, "group": "control_change"}, {"time": 4031, "annotation": {"number": 64, "value": 127}, "group": "control_change"}, {"time": 4073, "annotation": {"number": 64, "value": 0}, "group": "control_change"}, {"time": 4076, "annotation": {"number": 64, "value": 127}, "group": "control_change"}, {"time": 4166, "annotation": {"number": 64, "value": 0}, "group": "control_change"}, {"time": 4260, "annotation": {"number": 64, "value": 0}, "group": "control_change"}, {"time": 4268, "annotation": {"number": 64, "value": 127}, "group": "control_change"}, {"time": 4311, "annotation": {"number": 64, "value": 0}, "group": "control_change"}, {"time": 4315, "annotation": {"number": 64, "value": 127}, "group": "control_change"}, {"time": 4358, "annotation": {"number": 64, "value": 0}, "group": "control_change"}, {"time": 4366, "annotation": {"number": 64, "value": 127}, "group": "control_change"}, {"time": 4406, "annotation": {"number": 64, "value": 0}, "group": "control_change"}, {"time": 4412, "annotation": {"number": 64, "value": 127}, "group": "control_change"}, {"time": 4457, "annotation": {"number": 64, "value": 0}, "group": "control_change"}, {"time": 4465, "annotation": {"number": 64, "value": 127}, "group": "control_change"}, {"time": 4553, "annotation": {"number": 64, "value": 0}, "group": "control_change"}, {"time": 4558, "annotation": {"number": 64, "value": 127}, "group": "control_change"}, {"time": 4648, "annotation": {"number": 64, "value": 0}, "group": "control_change"}, {"time": 4654, "annotation": {"number": 64, "value": 127}, "group": "control_change"}, {"time": 4744, "annotation": {"number": 64, "value": 0}, "group": "control_change"}, {"time": 4749, "annotation": {"number": 64, "value": 127}, "group": "control_change"}, {"time": 4791, "annotation": {"number": 64, "value": 0}, "group": "control_change"}, {"time": 4792, "annotation": {"number": 64, "value": 127}, "group": "control_change"}, {"time": 4836, "annotation": {"number": 64, "value": 0}, "group": "control_change"}, {"time": 4841, "annotation": {"number": 64, "value": 127}, "group": "control_change"}, {"time": 4885, "annotation": {"number": 64, "value": 0}, "group": "control_change"}, {"time": 4892, "annotation": {"number": 64, "value": 127}, "group": "control_change"}, {"time": 4929, "annotation": {"number": 64, "value": 0}, "group": "control_change"}, {"time": 4934, "annotation": {"number": 64, "value": 127}, "group": "control_change"}, {"time": 4935, "annotation": {"number": 64, "value": 0}, "group": "control_change"}, {"time": 4982, "annotation": {"number": 64, "value": 0}, "group": "control_change"}, {"time": 4988, "annotation": {"number": 64, "value": 127}, "group": "control_change"}, {"time": 5031, "annotation": {"number": 64, "value": 0}, "group": "control_change"}, {"time": 5035, "annotation": {"number": 64, "value": 127}, "group": "control_change"}, {"time": 5127, "annotation": {"number": 64, "value": 127}, "group": "control_change"}, {"time": 5177, "annotation": {"number": 64, "value": 0}, "group": "control_change"}, {"time": 5181, "annotation": {"number": 64, "value": 127}, "group": "control_change"}, {"time": 5224, "annotation": {"number": 64, "value": 0}, "group": "control_change"}, {"time": 5228, "annotation": {"number": 64, "value": 127}, "group": "control_change"}, {"time": 5271, "annotation": {"number": 64, "value": 0}, "group": "control_change"}, {"time": 5272, "annotation": {"number": 64, "value": 127}, "group": "control_change"}, {"time": 5294, "annotation": {"number": 64, "value": 0}, "group": "control_change"}, {"time": 5298, "annotation": {"number": 64, "value": 127}, "group": "control_change"}, {"time": 5319, "annotation": {"number": 64, "value": 0}, "group": "control_change"}, {"time": 5324, "annotation": {"number": 64, "value": 127}, "group": "control_change"}, {"time": 5365, "annotation": {"number": 64, "value": 0}, "group": "control_change"}, {"time": 5369, "annotation": {"number": 64, "value": 127}, "group": "control_change"}, {"time": 5415, "annotation": {"number": 64, "value": 0}, "group": "control_change"}, {"time": 5416, "annotation": {"number": 64, "value": 127}, "group": "control_change"}, {"time": 5419, "annotation": {"number": 64, "value": 127}, "group": "control_change"}, {"time": 5511, "annotation": {"number": 64, "value": 0}, "group": "control_change"}, {"time": 5516, "annotation": {"number": 64, "value": 127}, "group": "control_change"}, {"time": 5559, "annotation": {"number": 64, "value": 0}, "group": "control_change"}, {"time": 5563, "annotation": {"number": 64, "value": 127}, "group": "control_change"}, {"time": 5605, "annotation": {"number": 64, "value": 0}, "group": "control_change"}, {"time": 5608, "annotation": {"number": 64, "value": 127}, "group": "control_change"}, {"time": 5653, "annotation": {"number": 64, "value": 127}, "group": "control_change"}, {"time": 5655, "annotation": {"number": 64, "value": 0}, "group": "control_change"}, {"time": 5702, "annotation": {"number": 64, "value": 0}, "group": "control_change"}, {"time": 5750, "annotation": {"number": 64, "value": 0}, "group": "control_change"}, {"time": 5756, "annotation": {"number": 64, "value": 127}, "group": "control_change"}, {"time": 5799, "annotation": {"number": 64, "value": 0}, "group": "control_change"}, {"time": 5803, "annotation": {"number": 64, "value": 127}, "group": "control_change"}, {"time": 5895, "annotation": {"number": 64, "value": 127}, "group": "control_change"}, {"time": 5945, "annotation": {"number": 64, "value": 0}, "group": "control_change"}, {"time": 5949, "annotation": {"number": 64, "value": 127}, "group": "control_change"}, {"time": 5992, "annotation": {"number": 64, "value": 0}, "group": "control_change"}, {"time": 5996, "annotation": {"number": 64, "value": 127}, "group": "control_change"}, {"time": 6039, "annotation": {"number": 64, "value": 0}, "group": "control_change"}, {"time": 6040, "annotation": {"number": 64, "value": 127}, "group": "control_change"}, {"time": 6062, "annotation": {"number": 64, "value": 0}, "group": "control_change"}, {"time": 6066, "annotation": {"number": 64, "value": 127}, "group": "control_change"}, {"time": 6087, "annotation": {"number": 64, "value": 0}, "group": "control_change"}, {"time": 6092, "annotation": {"number": 64, "value": 127}, "group": "control_change"}, {"time": 6133, "annotation": {"number": 64, "value": 0}, "group": "control_change"}, {"time": 6137, "annotation": {"number": 64, "value": 127}, "group": "control_change"}, {"time": 6183, "annotation": {"number": 64, "value": 127}, "group": "control_change"}, {"time": 6208, "annotation": {"number": 64, "value": 0}, "group": "control_change"}, {"time": 6213, "annotation": {"number": 64, "value": 127}, "group": "control_change"}, {"time": 6229, "annotation": {"number": 64, "value": 0}, "group": "control_change"}, {"time": 6233, "annotation": {"number": 64, "value": 127}, "group": "control_change"}, {"time": 6327, "annotation": {"number": 64, "value": 0}, "group": "control_change"}, {"time": 6378, "annotation": {"number": 64, "value": 127}, "group": "control_change"}, {"time": 6423, "annotation": {"number": 64, "value": 0}, "group": "control_change"}, {"time": 6429, "annotation": {"number": 64, "value": 127}, "group": "control_change"}, {"time": 6470, "annotation": {"number": 64, "value": 0}, "group": "control_change"}, {"time": 6477, "annotation": {"number": 64, "value": 127}, "group": "control_change"}, {"time": 6552, "annotation": {"number": 64, "value": 0}, "group": "control_change"}, {"time": 6566, "annotation": {"number": 64, "value": 127}, "group": "control_change"}, {"time": 6616, "annotation": {"number": 64, "value": 0}, "group": "control_change"}, {"time": 6626, "annotation": {"number": 64, "value": 127}, "group": "control_change"}, {"time": 6716, "annotation": {"number": 64, "value": 0}, "group": "control_change"}, {"time": 6721, "annotation": {"number": 64, "value": 127}, "group": "control_change"}, {"time": 6818, "annotation": {"number": 64, "value": 0}, "group": "control_change"}, {"time": 6823, "annotation": {"number": 64, "value": 127}, "group": "control_change"}]}]}