{"metadata": {"schema_version": "0.2", "title": "None", "source_filename": "241.mid", "source_format": "midi"}, "resolution": 12, "tempos": [{"time": 0, "qpm": 60.0}, {"time": 41, "qpm": 54.00000540000054}, {"time": 53, "qpm": 59.00006686674245}, {"time": 89, "qpm": 46.99999060000188}, {"time": 101, "qpm": 64.0}, {"time": 137, "qpm": 48.9999918333347}, {"time": 149, "qpm": 61.99999586666694}, {"time": 173, "qpm": 45.99999386666749}, {"time": 185, "qpm": 60.0}, {"time": 257, "qpm": 55.99997760000896}, {"time": 281, "qpm": 68.0000725334107}, {"time": 293, "qpm": 58.00004253336452}, {"time": 341, "qpm": 55.00000458333371}, {"time": 353, "qpm": 60.0}, {"time": 389, "qpm": 54.00000540000054}, {"time": 401, "qpm": 59.00006686674245}, {"time": 425, "qpm": 57.000031350017245}, {"time": 437, "qpm": 60.0}, {"time": 461, "qpm": 52.000006933334255}, {"time": 473, "qpm": 62.99999685000016}, {"time": 485, "qpm": 58.00004253336452}], "time_signatures": [{"time": 0, "numerator": 4, "denominator": 4}], "tracks": [{"program": 4, "is_drum": false, "name": "MELODY", "notes": [{"time": 281, "pitch": 66, "duration": 9, "velocity": 77}, {"time": 290, "pitch": 61, "duration": 3, "velocity": 91}, {"time": 293, "pitch": 66, "duration": 3, "velocity": 69}, {"time": 296, "pitch": 68, "duration": 3, "velocity": 79}, {"time": 299, "pitch": 69, "duration": 3, "velocity": 78}, {"time": 302, "pitch": 71, "duration": 3, "velocity": 99}, {"time": 305, "pitch": 73, "duration": 18, "velocity": 90}, {"time": 323, "pitch": 73, "duration": 6, "velocity": 103}, {"time": 329, "pitch": 81, "duration": 9, "velocity": 96}, {"time": 338, "pitch": 73, "duration": 3, "velocity": 85}, {"time": 341, "pitch": 78, "duration": 9, "velocity": 81}, {"time": 350, "pitch": 73, "duration": 3, "velocity": 91}, {"time": 353, "pitch": 76, "duration": 24, "velocity": 91}, {"time": 377, "pitch": 66, "duration": 9, "velocity": 78}, {"time": 386, "pitch": 61, "duration": 3, "velocity": 92}, {"time": 389, "pitch": 66, "duration": 3, "velocity": 72}, {"time": 392, "pitch": 68, "duration": 3, "velocity": 92}, {"time": 395, "pitch": 69, "duration": 3, "velocity": 90}, {"time": 398, "pitch": 71, "duration": 3, "velocity": 96}, {"time": 401, "pitch": 73, "duration": 18, "velocity": 86}, {"time": 419, "pitch": 76, "duration": 6, "velocity": 96}, {"time": 425, "pitch": 71, "duration": 9, "velocity": 82}, {"time": 434, "pitch": 73, "duration": 3, "velocity": 79}, {"time": 437, "pitch": 71, "duration": 9, "velocity": 81}, {"time": 446, "pitch": 64, "duration": 3, "velocity": 54}, {"time": 449, "pitch": 66, "duration": 24, "velocity": 54}, {"time": 473, "pitch": 66, "duration": 9, "velocity": 77}, {"time": 482, "pitch": 61, "duration": 3, "velocity": 91}, {"time": 485, "pitch": 66, "duration": 3, "velocity": 69}, {"time": 488, "pitch": 68, "duration": 3, "velocity": 79}, {"time": 491, "pitch": 69, "duration": 3, "velocity": 78}, {"time": 494, "pitch": 71, "duration": 3, "velocity": 99}, {"time": 497, "pitch": 73, "duration": 21, "velocity": 90}, {"time": 518, "pitch": 73, "duration": 3, "velocity": 103}, {"time": 521, "pitch": 81, "duration": 9, "velocity": 96}, {"time": 530, "pitch": 73, "duration": 3, "velocity": 85}, {"time": 533, "pitch": 78, "duration": 9, "velocity": 81}, {"time": 542, "pitch": 73, "duration": 3, "velocity": 91}, {"time": 545, "pitch": 76, "duration": 24, "velocity": 91}, {"time": 569, "pitch": 66, "duration": 9, "velocity": 78}, {"time": 578, "pitch": 61, "duration": 3, "velocity": 92}, {"time": 581, "pitch": 66, "duration": 3, "velocity": 72}, {"time": 584, "pitch": 68, "duration": 3, "velocity": 92}, {"time": 587, "pitch": 69, "duration": 3, "velocity": 90}, {"time": 590, "pitch": 71, "duration": 3, "velocity": 96}, {"time": 593, "pitch": 73, "duration": 18, "velocity": 86}, {"time": 611, "pitch": 76, "duration": 6, "velocity": 96}, {"time": 617, "pitch": 71, "duration": 9, "velocity": 82}, {"time": 626, "pitch": 73, "duration": 3, "velocity": 79}, {"time": 629, "pitch": 71, "duration": 6, "velocity": 81}, {"time": 635, "pitch": 64, "duration": 3, "velocity": 54}, {"time": 638, "pitch": 66, "duration": 21, "velocity": 54}, {"time": 659, "pitch": 66, "duration": 3, "velocity": 60}, {"time": 662, "pitch": 69, "duration": 3, "velocity": 82}, {"time": 665, "pitch": 71, "duration": 6, "velocity": 86}, {"time": 671, "pitch": 71, "duration": 3, "velocity": 92}, {"time": 674, "pitch": 69, "duration": 3, "velocity": 86}, {"time": 677, "pitch": 66, "duration": 6, "velocity": 94}, {"time": 683, "pitch": 66, "duration": 3, "velocity": 91}, {"time": 686, "pitch": 69, "duration": 3, "velocity": 78}, {"time": 689, "pitch": 71, "duration": 6, "velocity": 76}, {"time": 695, "pitch": 71, "duration": 3, "velocity": 86}, {"time": 698, "pitch": 69, "duration": 3, "velocity": 85}, {"time": 701, "pitch": 66, "duration": 6, "velocity": 91}, {"time": 707, "pitch": 69, "duration": 3, "velocity": 96}, {"time": 710, "pitch": 71, "duration": 3, "velocity": 85}, {"time": 713, "pitch": 73, "duration": 9, "velocity": 107}, {"time": 722, "pitch": 76, "duration": 3, "velocity": 85}, {"time": 725, "pitch": 71, "duration": 6, "velocity": 107}, {"time": 731, "pitch": 76, "duration": 3, "velocity": 92}, {"time": 734, "pitch": 73, "duration": 21, "velocity": 99}, {"time": 755, "pitch": 66, "duration": 3, "velocity": 60}, {"time": 758, "pitch": 69, "duration": 3, "velocity": 82}, {"time": 761, "pitch": 71, "duration": 6, "velocity": 86}, {"time": 767, "pitch": 71, "duration": 3, "velocity": 92}, {"time": 770, "pitch": 69, "duration": 3, "velocity": 86}, {"time": 773, "pitch": 66, "duration": 6, "velocity": 94}, {"time": 779, "pitch": 66, "duration": 3, "velocity": 91}, {"time": 782, "pitch": 69, "duration": 3, "velocity": 78}, {"time": 785, "pitch": 71, "duration": 6, "velocity": 76}, {"time": 791, "pitch": 71, "duration": 3, "velocity": 86}, {"time": 794, "pitch": 69, "duration": 3, "velocity": 85}, {"time": 797, "pitch": 66, "duration": 6, "velocity": 91}, {"time": 803, "pitch": 69, "duration": 3, "velocity": 96}, {"time": 806, "pitch": 71, "duration": 3, "velocity": 85}, {"time": 809, "pitch": 73, "duration": 9, "velocity": 107}, {"time": 818, "pitch": 76, "duration": 3, "velocity": 85}, {"time": 821, "pitch": 71, "duration": 6, "velocity": 107}, {"time": 827, "pitch": 76, "duration": 3, "velocity": 92}, {"time": 830, "pitch": 73, "duration": 3, "velocity": 99}, {"time": 833, "pitch": 76, "duration": 24, "velocity": 99}, {"time": 857, "pitch": 78, "duration": 12, "velocity": 94}, {"time": 869, "pitch": 73, "duration": 3, "velocity": 99}, {"time": 872, "pitch": 78, "duration": 3, "velocity": 99}, {"time": 875, "pitch": 73, "duration": 3, "velocity": 113}, {"time": 878, "pitch": 78, "duration": 21, "velocity": 92}, {"time": 899, "pitch": 73, "duration": 6, "velocity": 99}, {"time": 905, "pitch": 80, "duration": 12, "velocity": 107}, {"time": 917, "pitch": 73, "duration": 3, "velocity": 65}, {"time": 920, "pitch": 80, "duration": 3, "velocity": 94}, {"time": 923, "pitch": 73, "duration": 3, "velocity": 99}, {"time": 926, "pitch": 80, "duration": 21, "velocity": 99}, {"time": 947, "pitch": 73, "duration": 6, "velocity": 103}, {"time": 953, "pitch": 81, "duration": 9, "velocity": 113}, {"time": 962, "pitch": 81, "duration": 3, "velocity": 97}, {"time": 965, "pitch": 83, "duration": 3, "velocity": 88}, {"time": 968, "pitch": 81, "duration": 3, "velocity": 107}, {"time": 971, "pitch": 78, "duration": 6, "velocity": 96}, {"time": 977, "pitch": 78, "duration": 6, "velocity": 91}, {"time": 983, "pitch": 76, "duration": 6, "velocity": 91}, {"time": 989, "pitch": 76, "duration": 6, "velocity": 107}, {"time": 995, "pitch": 71, "duration": 3, "velocity": 107}, {"time": 998, "pitch": 73, "duration": 18, "velocity": 107}, {"time": 1016, "pitch": 71, "duration": 3, "velocity": 92}, {"time": 1019, "pitch": 69, "duration": 3, "velocity": 92}, {"time": 1022, "pitch": 71, "duration": 3, "velocity": 78}, {"time": 1025, "pitch": 73, "duration": 24, "velocity": 99}, {"time": 1049, "pitch": 78, "duration": 12, "velocity": 65}, {"time": 1061, "pitch": 73, "duration": 3, "velocity": 90}, {"time": 1064, "pitch": 78, "duration": 3, "velocity": 94}, {"time": 1067, "pitch": 73, "duration": 3, "velocity": 96}, {"time": 1070, "pitch": 78, "duration": 21, "velocity": 92}, {"time": 1091, "pitch": 73, "duration": 6, "velocity": 117}, {"time": 1097, "pitch": 80, "duration": 12, "velocity": 124}, {"time": 1109, "pitch": 73, "duration": 3, "velocity": 92}, {"time": 1112, "pitch": 80, "duration": 3, "velocity": 92}, {"time": 1115, "pitch": 73, "duration": 3, "velocity": 97}, {"time": 1118, "pitch": 80, "duration": 21, "velocity": 106}, {"time": 1139, "pitch": 73, "duration": 6, "velocity": 91}, {"time": 1145, "pitch": 81, "duration": 9, "velocity": 111}, {"time": 1154, "pitch": 81, "duration": 3, "velocity": 101}, {"time": 1157, "pitch": 81, "duration": 6, "velocity": 99}, {"time": 1163, "pitch": 78, "duration": 6, "velocity": 72}, {"time": 1169, "pitch": 78, "duration": 6, "velocity": 103}, {"time": 1175, "pitch": 76, "duration": 6, "velocity": 92}, {"time": 1181, "pitch": 76, "duration": 3, "velocity": 92}, {"time": 1184, "pitch": 73, "duration": 6, "velocity": 92}, {"time": 1190, "pitch": 73, "duration": 3, "velocity": 78}, {"time": 1193, "pitch": 78, "duration": 48, "velocity": 50}, {"time": 1379, "pitch": 66, "duration": 3, "velocity": 60}, {"time": 1382, "pitch": 69, "duration": 3, "velocity": 82}, {"time": 1385, "pitch": 71, "duration": 6, "velocity": 86}, {"time": 1391, "pitch": 71, "duration": 3, "velocity": 92}, {"time": 1394, "pitch": 69, "duration": 3, "velocity": 86}, {"time": 1397, "pitch": 66, "duration": 6, "velocity": 94}, {"time": 1403, "pitch": 66, "duration": 3, "velocity": 91}, {"time": 1406, "pitch": 69, "duration": 3, "velocity": 78}, {"time": 1409, "pitch": 71, "duration": 6, "velocity": 76}, {"time": 1415, "pitch": 71, "duration": 3, "velocity": 86}, {"time": 1418, "pitch": 69, "duration": 3, "velocity": 85}, {"time": 1421, "pitch": 66, "duration": 6, "velocity": 91}, {"time": 1427, "pitch": 69, "duration": 3, "velocity": 96}, {"time": 1430, "pitch": 71, "duration": 3, "velocity": 85}, {"time": 1433, "pitch": 73, "duration": 9, "velocity": 107}, {"time": 1442, "pitch": 76, "duration": 3, "velocity": 85}, {"time": 1445, "pitch": 71, "duration": 6, "velocity": 107}, {"time": 1451, "pitch": 76, "duration": 3, "velocity": 92}, {"time": 1454, "pitch": 73, "duration": 21, "velocity": 99}, {"time": 1475, "pitch": 66, "duration": 3, "velocity": 60}, {"time": 1478, "pitch": 69, "duration": 3, "velocity": 82}, {"time": 1481, "pitch": 71, "duration": 6, "velocity": 86}, {"time": 1487, "pitch": 71, "duration": 3, "velocity": 92}, {"time": 1490, "pitch": 69, "duration": 3, "velocity": 86}, {"time": 1493, "pitch": 66, "duration": 6, "velocity": 94}, {"time": 1499, "pitch": 66, "duration": 3, "velocity": 91}, {"time": 1502, "pitch": 69, "duration": 3, "velocity": 78}, {"time": 1505, "pitch": 71, "duration": 6, "velocity": 76}, {"time": 1511, "pitch": 71, "duration": 3, "velocity": 86}, {"time": 1514, "pitch": 69, "duration": 3, "velocity": 85}, {"time": 1517, "pitch": 66, "duration": 6, "velocity": 91}, {"time": 1523, "pitch": 69, "duration": 3, "velocity": 96}, {"time": 1526, "pitch": 71, "duration": 3, "velocity": 85}, {"time": 1529, "pitch": 73, "duration": 9, "velocity": 107}, {"time": 1538, "pitch": 76, "duration": 3, "velocity": 85}, {"time": 1541, "pitch": 71, "duration": 6, "velocity": 107}, {"time": 1547, "pitch": 76, "duration": 3, "velocity": 92}, {"time": 1550, "pitch": 73, "duration": 3, "velocity": 99}, {"time": 1553, "pitch": 76, "duration": 24, "velocity": 99}, {"time": 1577, "pitch": 78, "duration": 12, "velocity": 94}, {"time": 1589, "pitch": 73, "duration": 3, "velocity": 99}, {"time": 1592, "pitch": 78, "duration": 3, "velocity": 99}, {"time": 1595, "pitch": 73, "duration": 3, "velocity": 113}, {"time": 1598, "pitch": 78, "duration": 21, "velocity": 92}, {"time": 1619, "pitch": 73, "duration": 6, "velocity": 99}, {"time": 1625, "pitch": 80, "duration": 12, "velocity": 107}, {"time": 1637, "pitch": 73, "duration": 3, "velocity": 65}, {"time": 1640, "pitch": 80, "duration": 3, "velocity": 94}, {"time": 1643, "pitch": 73, "duration": 3, "velocity": 99}, {"time": 1646, "pitch": 80, "duration": 21, "velocity": 99}, {"time": 1667, "pitch": 73, "duration": 6, "velocity": 103}, {"time": 1673, "pitch": 81, "duration": 9, "velocity": 113}, {"time": 1682, "pitch": 81, "duration": 3, "velocity": 97}, {"time": 1685, "pitch": 83, "duration": 3, "velocity": 88}, {"time": 1688, "pitch": 81, "duration": 3, "velocity": 107}, {"time": 1691, "pitch": 78, "duration": 6, "velocity": 96}, {"time": 1697, "pitch": 78, "duration": 6, "velocity": 91}, {"time": 1703, "pitch": 76, "duration": 6, "velocity": 91}, {"time": 1709, "pitch": 76, "duration": 6, "velocity": 107}, {"time": 1715, "pitch": 71, "duration": 3, "velocity": 107}, {"time": 1718, "pitch": 73, "duration": 18, "velocity": 107}, {"time": 1736, "pitch": 71, "duration": 3, "velocity": 92}, {"time": 1739, "pitch": 69, "duration": 3, "velocity": 92}, {"time": 1742, "pitch": 71, "duration": 3, "velocity": 78}, {"time": 1745, "pitch": 73, "duration": 24, "velocity": 99}, {"time": 1769, "pitch": 78, "duration": 12, "velocity": 65}, {"time": 1781, "pitch": 73, "duration": 3, "velocity": 90}, {"time": 1784, "pitch": 78, "duration": 3, "velocity": 94}, {"time": 1787, "pitch": 73, "duration": 3, "velocity": 96}, {"time": 1790, "pitch": 78, "duration": 21, "velocity": 92}, {"time": 1811, "pitch": 73, "duration": 6, "velocity": 117}, {"time": 1817, "pitch": 80, "duration": 12, "velocity": 124}, {"time": 1829, "pitch": 73, "duration": 3, "velocity": 92}, {"time": 1832, "pitch": 80, "duration": 3, "velocity": 92}, {"time": 1835, "pitch": 73, "duration": 3, "velocity": 97}, {"time": 1838, "pitch": 80, "duration": 21, "velocity": 106}, {"time": 1859, "pitch": 73, "duration": 6, "velocity": 91}, {"time": 1865, "pitch": 81, "duration": 9, "velocity": 111}, {"time": 1874, "pitch": 81, "duration": 3, "velocity": 101}, {"time": 1877, "pitch": 81, "duration": 6, "velocity": 99}, {"time": 1883, "pitch": 78, "duration": 6, "velocity": 72}, {"time": 1889, "pitch": 78, "duration": 6, "velocity": 103}, {"time": 1895, "pitch": 76, "duration": 6, "velocity": 92}, {"time": 1901, "pitch": 76, "duration": 3, "velocity": 92}, {"time": 1904, "pitch": 73, "duration": 6, "velocity": 92}, {"time": 1910, "pitch": 73, "duration": 3, "velocity": 78}, {"time": 1913, "pitch": 78, "duration": 48, "velocity": 50}, {"time": 1955, "pitch": 73, "duration": 6, "velocity": 91}, {"time": 1961, "pitch": 81, "duration": 9, "velocity": 111}, {"time": 1970, "pitch": 81, "duration": 3, "velocity": 101}, {"time": 1973, "pitch": 93, "duration": 1, "velocity": 99}, {"time": 1974, "pitch": 81, "duration": 5, "velocity": 99}, {"time": 1979, "pitch": 78, "duration": 6, "velocity": 72}, {"time": 1985, "pitch": 78, "duration": 6, "velocity": 103}, {"time": 1991, "pitch": 76, "duration": 6, "velocity": 92}, {"time": 2003, "pitch": 76, "duration": 3, "velocity": 92}, {"time": 2006, "pitch": 73, "duration": 3, "velocity": 92}, {"time": 2012, "pitch": 73, "duration": 6, "velocity": 92}, {"time": 2018, "pitch": 73, "duration": 3, "velocity": 78}, {"time": 2021, "pitch": 78, "duration": 48, "velocity": 50}], "annotations": [{"time": 280, "annotation": {"number": 64, "value": 127}, "group": "control_change"}, {"time": 324, "annotation": {"number": 64, "value": 0}, "group": "control_change"}, {"time": 338, "annotation": {"number": 64, "value": 127}, "group": "control_change"}, {"time": 352, "annotation": {"number": 64, "value": 0}, "group": "control_change"}, {"time": 355, "annotation": {"number": 64, "value": 127}, "group": "control_change"}, {"time": 367, "annotation": {"number": 64, "value": 0}, "group": "control_change"}, {"time": 472, "annotation": {"number": 64, "value": 127}, "group": "control_change"}, {"time": 516, "annotation": {"number": 64, "value": 0}, "group": "control_change"}, {"time": 530, "annotation": {"number": 64, "value": 127}, "group": "control_change"}, {"time": 544, "annotation": {"number": 64, "value": 0}, "group": "control_change"}, {"time": 547, "annotation": {"number": 64, "value": 127}, "group": "control_change"}, {"time": 559, "annotation": {"number": 64, "value": 0}, "group": "control_change"}]}, {"program": 0, "is_drum": false, "name": "PIANO", "notes": [{"time": 41, "pitch": 42, "duration": 42, "velocity": 86}, {"time": 41, "pitch": 54, "duration": 37, "velocity": 83}, {"time": 41, "pitch": 57, "duration": 4, "velocity": 90}, {"time": 41, "pitch": 61, "duration": 4, "velocity": 90}, {"time": 41, "pitch": 66, "duration": 4, "velocity": 81}, {"time": 53, "pitch": 69, "duration": 3, "velocity": 84}, {"time": 53, "pitch": 73, "duration": 3, "velocity": 90}, {"time": 53, "pitch": 78, "duration": 4, "velocity": 84}, {"time": 65, "pitch": 78, "duration": 3, "velocity": 75}, {"time": 65, "pitch": 81, "duration": 3, "velocity": 80}, {"time": 65, "pitch": 90, "duration": 2, "velocity": 93}, {"time": 68, "pitch": 78, "duration": 3, "velocity": 75}, {"time": 68, "pitch": 81, "duration": 1, "velocity": 80}, {"time": 68, "pitch": 90, "duration": 2, "velocity": 93}, {"time": 77, "pitch": 68, "duration": 5, "velocity": 93}, {"time": 77, "pitch": 71, "duration": 5, "velocity": 91}, {"time": 77, "pitch": 76, "duration": 5, "velocity": 84}, {"time": 83, "pitch": 54, "duration": 2, "velocity": 90}, {"time": 89, "pitch": 42, "duration": 46, "velocity": 84}, {"time": 89, "pitch": 54, "duration": 11, "velocity": 84}, {"time": 89, "pitch": 61, "duration": 2, "velocity": 84}, {"time": 89, "pitch": 66, "duration": 3, "velocity": 83}, {"time": 89, "pitch": 69, "duration": 3, "velocity": 84}, {"time": 101, "pitch": 69, "duration": 3, "velocity": 83}, {"time": 101, "pitch": 73, "duration": 3, "velocity": 82}, {"time": 101, "pitch": 78, "duration": 4, "velocity": 90}, {"time": 107, "pitch": 54, "duration": 27, "velocity": 75}, {"time": 116, "pitch": 78, "duration": 4, "velocity": 75}, {"time": 116, "pitch": 81, "duration": 4, "velocity": 84}, {"time": 116, "pitch": 85, "duration": 4, "velocity": 90}, {"time": 116, "pitch": 90, "duration": 3, "velocity": 90}, {"time": 131, "pitch": 57, "duration": 5, "velocity": 71}, {"time": 131, "pitch": 61, "duration": 5, "velocity": 75}, {"time": 131, "pitch": 66, "duration": 5, "velocity": 80}, {"time": 134, "pitch": 54, "duration": 1, "velocity": 84}, {"time": 137, "pitch": 38, "duration": 29, "velocity": 90}, {"time": 137, "pitch": 50, "duration": 13, "velocity": 90}, {"time": 137, "pitch": 57, "duration": 6, "velocity": 93}, {"time": 137, "pitch": 62, "duration": 7, "velocity": 86}, {"time": 137, "pitch": 66, "duration": 7, "velocity": 84}, {"time": 149, "pitch": 57, "duration": 7, "velocity": 84}, {"time": 149, "pitch": 62, "duration": 9, "velocity": 84}, {"time": 149, "pitch": 66, "duration": 8, "velocity": 79}, {"time": 149, "pitch": 69, "duration": 14, "velocity": 93}, {"time": 155, "pitch": 50, "duration": 10, "velocity": 57}, {"time": 161, "pitch": 57, "duration": 6, "velocity": 50}, {"time": 161, "pitch": 62, "duration": 7, "velocity": 28}, {"time": 161, "pitch": 66, "duration": 7, "velocity": 35}, {"time": 173, "pitch": 37, "duration": 3, "velocity": 90}, {"time": 173, "pitch": 49, "duration": 4, "velocity": 86}, {"time": 173, "pitch": 59, "duration": 4, "velocity": 90}, {"time": 173, "pitch": 64, "duration": 3, "velocity": 90}, {"time": 173, "pitch": 68, "duration": 3, "velocity": 95}, {"time": 183, "pitch": 54, "duration": 51, "velocity": 81}, {"time": 183, "pitch": 57, "duration": 14, "velocity": 84}, {"time": 183, "pitch": 61, "duration": 22, "velocity": 90}, {"time": 183, "pitch": 66, "duration": 22, "velocity": 80}, {"time": 185, "pitch": 42, "duration": 50, "velocity": 86}, {"time": 200, "pitch": 57, "duration": 2, "velocity": 1}, {"time": 206, "pitch": 66, "duration": 2, "velocity": 46}, {"time": 209, "pitch": 69, "duration": 1, "velocity": 43}, {"time": 209, "pitch": 73, "duration": 1, "velocity": 63}, {"time": 209, "pitch": 78, "duration": 1, "velocity": 53}, {"time": 212, "pitch": 78, "duration": 3, "velocity": 68}, {"time": 212, "pitch": 81, "duration": 3, "velocity": 71}, {"time": 215, "pitch": 85, "duration": 1, "velocity": 72}, {"time": 215, "pitch": 85, "duration": 1, "velocity": 84}, {"time": 218, "pitch": 81, "duration": 10, "velocity": 82}, {"time": 218, "pitch": 85, "duration": 11, "velocity": 84}, {"time": 218, "pitch": 90, "duration": 11, "velocity": 96}, {"time": 281, "pitch": 54, "duration": 23, "velocity": 38}, {"time": 281, "pitch": 57, "duration": 23, "velocity": 62}, {"time": 281, "pitch": 61, "duration": 23, "velocity": 53}, {"time": 284, "pitch": 68, "duration": 4, "velocity": 47}, {"time": 287, "pitch": 69, "duration": 4, "velocity": 54}, {"time": 290, "pitch": 76, "duration": 4, "velocity": 60}, {"time": 293, "pitch": 68, "duration": 5, "velocity": 31}, {"time": 296, "pitch": 69, "duration": 3, "velocity": 41}, {"time": 299, "pitch": 76, "duration": 4, "velocity": 77}, {"time": 302, "pitch": 68, "duration": 4, "velocity": 41}, {"time": 305, "pitch": 54, "duration": 17, "velocity": 29}, {"time": 305, "pitch": 57, "duration": 17, "velocity": 53}, {"time": 305, "pitch": 61, "duration": 17, "velocity": 39}, {"time": 305, "pitch": 69, "duration": 3, "velocity": 48}, {"time": 308, "pitch": 68, "duration": 3, "velocity": 39}, {"time": 311, "pitch": 69, "duration": 3, "velocity": 38}, {"time": 314, "pitch": 76, "duration": 3, "velocity": 66}, {"time": 317, "pitch": 68, "duration": 4, "velocity": 31}, {"time": 320, "pitch": 69, "duration": 3, "velocity": 42}, {"time": 323, "pitch": 76, "duration": 2, "velocity": 78}, {"time": 326, "pitch": 68, "duration": 3, "velocity": 51}, {"time": 329, "pitch": 50, "duration": 18, "velocity": 39}, {"time": 329, "pitch": 54, "duration": 18, "velocity": 53}, {"time": 329, "pitch": 57, "duration": 18, "velocity": 59}, {"time": 329, "pitch": 69, "duration": 2, "velocity": 60}, {"time": 332, "pitch": 68, "duration": 3, "velocity": 50}, {"time": 335, "pitch": 69, "duration": 3, "velocity": 63}, {"time": 338, "pitch": 76, "duration": 3, "velocity": 84}, {"time": 341, "pitch": 68, "duration": 4, "velocity": 41}, {"time": 344, "pitch": 69, "duration": 3, "velocity": 47}, {"time": 347, "pitch": 76, "duration": 2, "velocity": 81}, {"time": 350, "pitch": 68, "duration": 3, "velocity": 47}, {"time": 353, "pitch": 49, "duration": 20, "velocity": 35}, {"time": 353, "pitch": 52, "duration": 20, "velocity": 72}, {"time": 353, "pitch": 56, "duration": 20, "velocity": 56}, {"time": 353, "pitch": 71, "duration": 4, "velocity": 62}, {"time": 356, "pitch": 64, "duration": 4, "velocity": 45}, {"time": 359, "pitch": 68, "duration": 6, "velocity": 27}, {"time": 362, "pitch": 76, "duration": 3, "velocity": 72}, {"time": 365, "pitch": 64, "duration": 4, "velocity": 47}, {"time": 368, "pitch": 68, "duration": 4, "velocity": 47}, {"time": 371, "pitch": 76, "duration": 5, "velocity": 45}, {"time": 374, "pitch": 64, "duration": 2, "velocity": 54}, {"time": 377, "pitch": 54, "duration": 41, "velocity": 25}, {"time": 377, "pitch": 57, "duration": 42, "velocity": 60}, {"time": 377, "pitch": 61, "duration": 26, "velocity": 45}, {"time": 377, "pitch": 69, "duration": 3, "velocity": 74}, {"time": 380, "pitch": 68, "duration": 4, "velocity": 42}, {"time": 383, "pitch": 69, "duration": 3, "velocity": 47}, {"time": 386, "pitch": 76, "duration": 3, "velocity": 70}, {"time": 389, "pitch": 68, "duration": 3, "velocity": 31}, {"time": 392, "pitch": 69, "duration": 3, "velocity": 54}, {"time": 395, "pitch": 76, "duration": 3, "velocity": 60}, {"time": 398, "pitch": 68, "duration": 5, "velocity": 38}, {"time": 401, "pitch": 69, "duration": 3, "velocity": 38}, {"time": 404, "pitch": 76, "duration": 3, "velocity": 63}, {"time": 407, "pitch": 68, "duration": 4, "velocity": 31}, {"time": 410, "pitch": 69, "duration": 3, "velocity": 45}, {"time": 413, "pitch": 61, "duration": 5, "velocity": 33}, {"time": 413, "pitch": 76, "duration": 4, "velocity": 69}, {"time": 416, "pitch": 68, "duration": 3, "velocity": 39}, {"time": 419, "pitch": 69, "duration": 2, "velocity": 54}, {"time": 422, "pitch": 76, "duration": 3, "velocity": 77}, {"time": 425, "pitch": 49, "duration": 17, "velocity": 26}, {"time": 425, "pitch": 56, "duration": 18, "velocity": 57}, {"time": 425, "pitch": 59, "duration": 17, "velocity": 44}, {"time": 425, "pitch": 76, "duration": 1, "velocity": 82}, {"time": 428, "pitch": 68, "duration": 3, "velocity": 42}, {"time": 431, "pitch": 69, "duration": 3, "velocity": 60}, {"time": 437, "pitch": 68, "duration": 4, "velocity": 37}, {"time": 440, "pitch": 69, "duration": 3, "velocity": 48}, {"time": 443, "pitch": 73, "duration": 4, "velocity": 45}, {"time": 446, "pitch": 68, "duration": 3, "velocity": 41}, {"time": 449, "pitch": 54, "duration": 19, "velocity": 27}, {"time": 449, "pitch": 57, "duration": 19, "velocity": 62}, {"time": 449, "pitch": 61, "duration": 19, "velocity": 47}, {"time": 449, "pitch": 69, "duration": 3, "velocity": 63}, {"time": 452, "pitch": 68, "duration": 3, "velocity": 54}, {"time": 455, "pitch": 69, "duration": 3, "velocity": 72}, {"time": 458, "pitch": 73, "duration": 3, "velocity": 70}, {"time": 461, "pitch": 68, "duration": 3, "velocity": 39}, {"time": 464, "pitch": 69, "duration": 2, "velocity": 51}, {"time": 467, "pitch": 73, "duration": 3, "velocity": 60}, {"time": 470, "pitch": 66, "duration": 3, "velocity": 39}, {"time": 473, "pitch": 54, "duration": 42, "velocity": 27}, {"time": 473, "pitch": 57, "duration": 42, "velocity": 68}, {"time": 473, "pitch": 61, "duration": 42, "velocity": 54}, {"time": 473, "pitch": 68, "duration": 3, "velocity": 60}, {"time": 476, "pitch": 66, "duration": 4, "velocity": 42}, {"time": 479, "pitch": 68, "duration": 3, "velocity": 57}, {"time": 485, "pitch": 68, "duration": 3, "velocity": 21}, {"time": 491, "pitch": 73, "duration": 2, "velocity": 57}, {"time": 494, "pitch": 76, "duration": 3, "velocity": 68}, {"time": 497, "pitch": 68, "duration": 4, "velocity": 31}, {"time": 500, "pitch": 69, "duration": 3, "velocity": 50}, {"time": 503, "pitch": 73, "duration": 2, "velocity": 68}, {"time": 506, "pitch": 68, "duration": 4, "velocity": 53}, {"time": 509, "pitch": 69, "duration": 3, "velocity": 60}, {"time": 512, "pitch": 76, "duration": 3, "velocity": 81}, {"time": 515, "pitch": 68, "duration": 4, "velocity": 56}, {"time": 518, "pitch": 69, "duration": 3, "velocity": 60}, {"time": 521, "pitch": 50, "duration": 18, "velocity": 42}, {"time": 521, "pitch": 54, "duration": 18, "velocity": 56}, {"time": 521, "pitch": 57, "duration": 17, "velocity": 47}, {"time": 521, "pitch": 73, "duration": 2, "velocity": 68}, {"time": 524, "pitch": 68, "duration": 3, "velocity": 50}, {"time": 527, "pitch": 69, "duration": 3, "velocity": 69}, {"time": 530, "pitch": 73, "duration": 1, "velocity": 38}, {"time": 530, "pitch": 76, "duration": 4, "velocity": 50}, {"time": 533, "pitch": 68, "duration": 3, "velocity": 39}, {"time": 536, "pitch": 69, "duration": 3, "velocity": 63}, {"time": 539, "pitch": 76, "duration": 3, "velocity": 72}, {"time": 542, "pitch": 68, "duration": 3, "velocity": 54}, {"time": 545, "pitch": 49, "duration": 19, "velocity": 42}, {"time": 545, "pitch": 52, "duration": 19, "velocity": 63}, {"time": 545, "pitch": 56, "duration": 19, "velocity": 59}, {"time": 545, "pitch": 71, "duration": 3, "velocity": 74}, {"time": 548, "pitch": 64, "duration": 3, "velocity": 37}, {"time": 551, "pitch": 68, "duration": 3, "velocity": 68}, {"time": 554, "pitch": 71, "duration": 3, "velocity": 68}, {"time": 557, "pitch": 64, "duration": 4, "velocity": 48}, {"time": 560, "pitch": 71, "duration": 3, "velocity": 70}, {"time": 563, "pitch": 76, "duration": 4, "velocity": 66}, {"time": 566, "pitch": 64, "duration": 2, "velocity": 53}, {"time": 569, "pitch": 54, "duration": 41, "velocity": 25}, {"time": 569, "pitch": 57, "duration": 40, "velocity": 23}, {"time": 569, "pitch": 61, "duration": 40, "velocity": 26}, {"time": 569, "pitch": 69, "duration": 2, "velocity": 77}, {"time": 572, "pitch": 66, "duration": 4, "velocity": 45}, {"time": 575, "pitch": 68, "duration": 3, "velocity": 45}, {"time": 578, "pitch": 69, "duration": 2, "velocity": 59}, {"time": 581, "pitch": 71, "duration": 2, "velocity": 63}, {"time": 584, "pitch": 68, "duration": 3, "velocity": 65}, {"time": 587, "pitch": 69, "duration": 2, "velocity": 68}, {"time": 593, "pitch": 66, "duration": 4, "velocity": 33}, {"time": 596, "pitch": 68, "duration": 3, "velocity": 60}, {"time": 599, "pitch": 69, "duration": 3, "velocity": 69}, {"time": 602, "pitch": 66, "duration": 3, "velocity": 47}, {"time": 605, "pitch": 73, "duration": 3, "velocity": 76}, {"time": 608, "pitch": 66, "duration": 4, "velocity": 50}, {"time": 611, "pitch": 68, "duration": 3, "velocity": 70}, {"time": 614, "pitch": 69, "duration": 4, "velocity": 63}, {"time": 617, "pitch": 49, "duration": 17, "velocity": 35}, {"time": 617, "pitch": 52, "duration": 18, "velocity": 62}, {"time": 617, "pitch": 56, "duration": 17, "velocity": 54}, {"time": 617, "pitch": 68, "duration": 2, "velocity": 84}, {"time": 620, "pitch": 64, "duration": 3, "velocity": 66}, {"time": 623, "pitch": 59, "duration": 4, "velocity": 48}, {"time": 626, "pitch": 64, "duration": 3, "velocity": 66}, {"time": 629, "pitch": 68, "duration": 3, "velocity": 54}, {"time": 632, "pitch": 59, "duration": 4, "velocity": 70}, {"time": 635, "pitch": 64, "duration": 4, "velocity": 79}, {"time": 638, "pitch": 69, "duration": 4, "velocity": 70}, {"time": 641, "pitch": 42, "duration": 19, "velocity": 47}, {"time": 641, "pitch": 61, "duration": 6, "velocity": 50}, {"time": 641, "pitch": 66, "duration": 4, "velocity": 65}, {"time": 644, "pitch": 49, "duration": 15, "velocity": 63}, {"time": 647, "pitch": 54, "duration": 12, "velocity": 47}, {"time": 650, "pitch": 56, "duration": 3, "velocity": 57}, {"time": 653, "pitch": 57, "duration": 2, "velocity": 72}, {"time": 656, "pitch": 61, "duration": 3, "velocity": 63}, {"time": 659, "pitch": 66, "duration": 3, "velocity": 54}, {"time": 662, "pitch": 69, "duration": 13, "velocity": 78}, {"time": 665, "pitch": 47, "duration": 21, "velocity": 54}, {"time": 665, "pitch": 54, "duration": 13, "velocity": 60}, {"time": 665, "pitch": 57, "duration": 10, "velocity": 45}, {"time": 665, "pitch": 62, "duration": 10, "velocity": 42}, {"time": 665, "pitch": 66, "duration": 10, "velocity": 47}, {"time": 677, "pitch": 57, "duration": 4, "velocity": 66}, {"time": 677, "pitch": 62, "duration": 4, "velocity": 85}, {"time": 677, "pitch": 66, "duration": 3, "velocity": 79}, {"time": 680, "pitch": 54, "duration": 7, "velocity": 50}, {"time": 683, "pitch": 57, "duration": 4, "velocity": 53}, {"time": 686, "pitch": 62, "duration": 1, "velocity": 70}, {"time": 689, "pitch": 47, "duration": 19, "velocity": 78}, {"time": 689, "pitch": 57, "duration": 2, "velocity": 70}, {"time": 689, "pitch": 62, "duration": 3, "velocity": 66}, {"time": 689, "pitch": 66, "duration": 5, "velocity": 78}, {"time": 692, "pitch": 54, "duration": 6, "velocity": 57}, {"time": 695, "pitch": 59, "duration": 3, "velocity": 56}, {"time": 698, "pitch": 61, "duration": 3, "velocity": 68}, {"time": 698, "pitch": 69, "duration": 4, "velocity": 94}, {"time": 701, "pitch": 54, "duration": 3, "velocity": 42}, {"time": 704, "pitch": 59, "duration": 3, "velocity": 70}, {"time": 704, "pitch": 68, "duration": 3, "velocity": 81}, {"time": 707, "pitch": 54, "duration": 1, "velocity": 77}, {"time": 713, "pitch": 42, "duration": 22, "velocity": 63}, {"time": 713, "pitch": 57, "duration": 5, "velocity": 65}, {"time": 713, "pitch": 61, "duration": 5, "velocity": 81}, {"time": 713, "pitch": 66, "duration": 5, "velocity": 85}, {"time": 716, "pitch": 49, "duration": 14, "velocity": 78}, {"time": 719, "pitch": 54, "duration": 7, "velocity": 48}, {"time": 722, "pitch": 56, "duration": 4, "velocity": 66}, {"time": 722, "pitch": 61, "duration": 2, "velocity": 85}, {"time": 725, "pitch": 57, "duration": 3, "velocity": 78}, {"time": 728, "pitch": 56, "duration": 1, "velocity": 66}, {"time": 728, "pitch": 61, "duration": 1, "velocity": 97}, {"time": 731, "pitch": 54, "duration": 3, "velocity": 38}, {"time": 734, "pitch": 49, "duration": 3, "velocity": 69}, {"time": 734, "pitch": 61, "duration": 1, "velocity": 57}, {"time": 734, "pitch": 69, "duration": 1, "velocity": 63}, {"time": 737, "pitch": 42, "duration": 20, "velocity": 63}, {"time": 737, "pitch": 61, "duration": 4, "velocity": 77}, {"time": 737, "pitch": 69, "duration": 6, "velocity": 92}, {"time": 740, "pitch": 49, "duration": 4, "velocity": 81}, {"time": 743, "pitch": 54, "duration": 11, "velocity": 48}, {"time": 746, "pitch": 59, "duration": 1, "velocity": 60}, {"time": 746, "pitch": 68, "duration": 1, "velocity": 84}, {"time": 749, "pitch": 59, "duration": 2, "velocity": 82}, {"time": 749, "pitch": 68, "duration": 1, "velocity": 97}, {"time": 752, "pitch": 49, "duration": 2, "velocity": 60}, {"time": 755, "pitch": 57, "duration": 2, "velocity": 68}, {"time": 755, "pitch": 66, "duration": 2, "velocity": 88}, {"time": 758, "pitch": 49, "duration": 1, "velocity": 69}, {"time": 761, "pitch": 47, "duration": 19, "velocity": 69}, {"time": 761, "pitch": 54, "duration": 4, "velocity": 63}, {"time": 761, "pitch": 57, "duration": 4, "velocity": 86}, {"time": 761, "pitch": 62, "duration": 4, "velocity": 84}, {"time": 764, "pitch": 50, "duration": 13, "velocity": 66}, {"time": 767, "pitch": 54, "duration": 3, "velocity": 54}, {"time": 770, "pitch": 62, "duration": 1, "velocity": 90}, {"time": 776, "pitch": 57, "duration": 1, "velocity": 54}, {"time": 776, "pitch": 59, "duration": 1, "velocity": 54}, {"time": 776, "pitch": 62, "duration": 3, "velocity": 81}, {"time": 776, "pitch": 69, "duration": 4, "velocity": 79}, {"time": 779, "pitch": 50, "duration": 1, "velocity": 74}, {"time": 782, "pitch": 59, "duration": 1, "velocity": 60}, {"time": 782, "pitch": 66, "duration": 1, "velocity": 79}, {"time": 782, "pitch": 69, "duration": 1, "velocity": 38}, {"time": 785, "pitch": 47, "duration": 19, "velocity": 81}, {"time": 785, "pitch": 59, "duration": 5, "velocity": 72}, {"time": 785, "pitch": 66, "duration": 5, "velocity": 77}, {"time": 788, "pitch": 54, "duration": 11, "velocity": 57}, {"time": 791, "pitch": 64, "duration": 2, "velocity": 76}, {"time": 794, "pitch": 62, "duration": 3, "velocity": 81}, {"time": 794, "pitch": 66, "duration": 4, "velocity": 82}, {"time": 797, "pitch": 59, "duration": 3, "velocity": 45}, {"time": 800, "pitch": 62, "duration": 4, "velocity": 76}, {"time": 800, "pitch": 69, "duration": 4, "velocity": 94}, {"time": 803, "pitch": 54, "duration": 1, "velocity": 92}, {"time": 809, "pitch": 37, "duration": 3, "velocity": 81}, {"time": 809, "pitch": 59, "duration": 10, "velocity": 84}, {"time": 809, "pitch": 64, "duration": 10, "velocity": 82}, {"time": 809, "pitch": 68, "duration": 9, "velocity": 94}, {"time": 812, "pitch": 49, "duration": 3, "velocity": 65}, {"time": 815, "pitch": 52, "duration": 10, "velocity": 78}, {"time": 818, "pitch": 56, "duration": 7, "velocity": 96}, {"time": 821, "pitch": 59, "duration": 4, "velocity": 84}, {"time": 824, "pitch": 64, "duration": 3, "velocity": 91}, {"time": 827, "pitch": 66, "duration": 4, "velocity": 74}, {"time": 830, "pitch": 59, "duration": 1, "velocity": 27}, {"time": 830, "pitch": 68, "duration": 2, "velocity": 88}, {"time": 833, "pitch": 37, "duration": 20, "velocity": 86}, {"time": 833, "pitch": 59, "duration": 4, "velocity": 81}, {"time": 833, "pitch": 64, "duration": 4, "velocity": 96}, {"time": 833, "pitch": 71, "duration": 4, "velocity": 101}, {"time": 836, "pitch": 49, "duration": 3, "velocity": 54}, {"time": 839, "pitch": 59, "duration": 1, "velocity": 82}, {"time": 839, "pitch": 64, "duration": 1, "velocity": 81}, {"time": 839, "pitch": 71, "duration": 2, "velocity": 81}, {"time": 842, "pitch": 49, "duration": 4, "velocity": 50}, {"time": 845, "pitch": 66, "duration": 1, "velocity": 85}, {"time": 845, "pitch": 73, "duration": 1, "velocity": 92}, {"time": 848, "pitch": 49, "duration": 3, "velocity": 50}, {"time": 851, "pitch": 69, "duration": 1, "velocity": 68}, {"time": 851, "pitch": 76, "duration": 1, "velocity": 96}, {"time": 854, "pitch": 49, "duration": 3, "velocity": 60}, {"time": 857, "pitch": 42, "duration": 21, "velocity": 81}, {"time": 857, "pitch": 69, "duration": 4, "velocity": 76}, {"time": 857, "pitch": 73, "duration": 4, "velocity": 96}, {"time": 857, "pitch": 78, "duration": 3, "velocity": 85}, {"time": 860, "pitch": 49, "duration": 14, "velocity": 79}, {"time": 863, "pitch": 54, "duration": 6, "velocity": 60}, {"time": 866, "pitch": 61, "duration": 1, "velocity": 68}, {"time": 866, "pitch": 69, "duration": 1, "velocity": 79}, {"time": 869, "pitch": 61, "duration": 3, "velocity": 79}, {"time": 869, "pitch": 69, "duration": 4, "velocity": 88}, {"time": 872, "pitch": 54, "duration": 6, "velocity": 41}, {"time": 875, "pitch": 61, "duration": 1, "velocity": 70}, {"time": 875, "pitch": 68, "duration": 1, "velocity": 78}, {"time": 875, "pitch": 69, "duration": 1, "velocity": 60}, {"time": 878, "pitch": 49, "duration": 3, "velocity": 82}, {"time": 878, "pitch": 57, "duration": 3, "velocity": 97}, {"time": 878, "pitch": 66, "duration": 4, "velocity": 88}, {"time": 881, "pitch": 42, "duration": 18, "velocity": 59}, {"time": 884, "pitch": 49, "duration": 9, "velocity": 72}, {"time": 887, "pitch": 54, "duration": 4, "velocity": 65}, {"time": 890, "pitch": 61, "duration": 1, "velocity": 69}, {"time": 890, "pitch": 69, "duration": 1, "velocity": 94}, {"time": 893, "pitch": 54, "duration": 4, "velocity": 51}, {"time": 893, "pitch": 59, "duration": 2, "velocity": 82}, {"time": 893, "pitch": 68, "duration": 2, "velocity": 101}, {"time": 896, "pitch": 49, "duration": 4, "velocity": 65}, {"time": 899, "pitch": 61, "duration": 1, "velocity": 85}, {"time": 899, "pitch": 69, "duration": 1, "velocity": 99}, {"time": 905, "pitch": 37, "duration": 2, "velocity": 85}, {"time": 905, "pitch": 59, "duration": 10, "velocity": 82}, {"time": 905, "pitch": 64, "duration": 9, "velocity": 72}, {"time": 905, "pitch": 68, "duration": 9, "velocity": 85}, {"time": 905, "pitch": 71, "duration": 9, "velocity": 65}, {"time": 908, "pitch": 49, "duration": 3, "velocity": 50}, {"time": 911, "pitch": 52, "duration": 11, "velocity": 69}, {"time": 914, "pitch": 56, "duration": 8, "velocity": 68}, {"time": 917, "pitch": 59, "duration": 4, "velocity": 82}, {"time": 920, "pitch": 64, "duration": 2, "velocity": 74}, {"time": 923, "pitch": 66, "duration": 2, "velocity": 70}, {"time": 926, "pitch": 59, "duration": 5, "velocity": 76}, {"time": 926, "pitch": 64, "duration": 6, "velocity": 77}, {"time": 926, "pitch": 68, "duration": 9, "velocity": 66}, {"time": 929, "pitch": 49, "duration": 21, "velocity": 77}, {"time": 932, "pitch": 56, "duration": 6, "velocity": 57}, {"time": 935, "pitch": 61, "duration": 4, "velocity": 39}, {"time": 938, "pitch": 64, "duration": 2, "velocity": 90}, {"time": 938, "pitch": 71, "duration": 1, "velocity": 88}, {"time": 941, "pitch": 64, "duration": 3, "velocity": 84}, {"time": 941, "pitch": 69, "duration": 3, "velocity": 92}, {"time": 944, "pitch": 56, "duration": 2, "velocity": 70}, {"time": 947, "pitch": 56, "duration": 1, "velocity": 85}, {"time": 947, "pitch": 61, "duration": 2, "velocity": 65}, {"time": 947, "pitch": 68, "duration": 3, "velocity": 85}, {"time": 947, "pitch": 69, "duration": 1, "velocity": 53}, {"time": 950, "pitch": 64, "duration": 2, "velocity": 85}, {"time": 953, "pitch": 39, "duration": 3, "velocity": 78}, {"time": 953, "pitch": 63, "duration": 9, "velocity": 54}, {"time": 953, "pitch": 66, "duration": 9, "velocity": 82}, {"time": 953, "pitch": 69, "duration": 9, "velocity": 70}, {"time": 956, "pitch": 51, "duration": 1, "velocity": 66}, {"time": 959, "pitch": 54, "duration": 12, "velocity": 47}, {"time": 962, "pitch": 57, "duration": 8, "velocity": 85}, {"time": 965, "pitch": 63, "duration": 2, "velocity": 92}, {"time": 968, "pitch": 66, "duration": 3, "velocity": 68}, {"time": 971, "pitch": 68, "duration": 3, "velocity": 88}, {"time": 974, "pitch": 69, "duration": 13, "velocity": 86}, {"time": 977, "pitch": 38, "duration": 3, "velocity": 70}, {"time": 977, "pitch": 57, "duration": 10, "velocity": 81}, {"time": 977, "pitch": 62, "duration": 9, "velocity": 79}, {"time": 977, "pitch": 66, "duration": 10, "velocity": 60}, {"time": 980, "pitch": 50, "duration": 4, "velocity": 54}, {"time": 983, "pitch": 52, "duration": 13, "velocity": 72}, {"time": 986, "pitch": 54, "duration": 10, "velocity": 41}, {"time": 986, "pitch": 56, "duration": 2, "velocity": 53}, {"time": 989, "pitch": 57, "duration": 3, "velocity": 94}, {"time": 992, "pitch": 62, "duration": 3, "velocity": 70}, {"time": 995, "pitch": 66, "duration": 3, "velocity": 63}, {"time": 998, "pitch": 69, "duration": 4, "velocity": 79}, {"time": 1001, "pitch": 49, "duration": 20, "velocity": 72}, {"time": 1001, "pitch": 59, "duration": 4, "velocity": 77}, {"time": 1001, "pitch": 64, "duration": 4, "velocity": 76}, {"time": 1001, "pitch": 68, "duration": 4, "velocity": 90}, {"time": 1004, "pitch": 56, "duration": 7, "velocity": 69}, {"time": 1007, "pitch": 59, "duration": 1, "velocity": 70}, {"time": 1010, "pitch": 59, "duration": 4, "velocity": 82}, {"time": 1010, "pitch": 66, "duration": 4, "velocity": 84}, {"time": 1013, "pitch": 56, "duration": 3, "velocity": 68}, {"time": 1016, "pitch": 64, "duration": 1, "velocity": 84}, {"time": 1016, "pitch": 68, "duration": 1, "velocity": 88}, {"time": 1019, "pitch": 56, "duration": 4, "velocity": 82}, {"time": 1022, "pitch": 64, "duration": 1, "velocity": 82}, {"time": 1022, "pitch": 71, "duration": 2, "velocity": 84}, {"time": 1025, "pitch": 49, "duration": 20, "velocity": 72}, {"time": 1028, "pitch": 56, "duration": 4, "velocity": 69}, {"time": 1028, "pitch": 73, "duration": 1, "velocity": 56}, {"time": 1028, "pitch": 85, "duration": 1, "velocity": 92}, {"time": 1031, "pitch": 61, "duration": 3, "velocity": 60}, {"time": 1034, "pitch": 71, "duration": 1, "velocity": 54}, {"time": 1034, "pitch": 83, "duration": 1, "velocity": 92}, {"time": 1037, "pitch": 56, "duration": 3, "velocity": 77}, {"time": 1037, "pitch": 71, "duration": 1, "velocity": 74}, {"time": 1037, "pitch": 83, "duration": 1, "velocity": 96}, {"time": 1040, "pitch": 61, "duration": 3, "velocity": 69}, {"time": 1040, "pitch": 69, "duration": 1, "velocity": 92}, {"time": 1040, "pitch": 81, "duration": 1, "velocity": 96}, {"time": 1043, "pitch": 56, "duration": 2, "velocity": 85}, {"time": 1046, "pitch": 68, "duration": 1, "velocity": 72}, {"time": 1046, "pitch": 80, "duration": 1, "velocity": 99}, {"time": 1049, "pitch": 42, "duration": 5, "velocity": 70}, {"time": 1049, "pitch": 66, "duration": 8, "velocity": 81}, {"time": 1049, "pitch": 78, "duration": 7, "velocity": 92}, {"time": 1052, "pitch": 49, "duration": 3, "velocity": 72}, {"time": 1055, "pitch": 54, "duration": 4, "velocity": 66}, {"time": 1058, "pitch": 56, "duration": 6, "velocity": 63}, {"time": 1061, "pitch": 57, "duration": 3, "velocity": 63}, {"time": 1064, "pitch": 61, "duration": 1, "velocity": 78}, {"time": 1064, "pitch": 69, "duration": 1, "velocity": 91}, {"time": 1067, "pitch": 59, "duration": 1, "velocity": 76}, {"time": 1067, "pitch": 68, "duration": 2, "velocity": 72}, {"time": 1070, "pitch": 61, "duration": 1, "velocity": 76}, {"time": 1070, "pitch": 69, "duration": 2, "velocity": 84}, {"time": 1073, "pitch": 42, "duration": 6, "velocity": 70}, {"time": 1073, "pitch": 61, "duration": 4, "velocity": 79}, {"time": 1073, "pitch": 68, "duration": 5, "velocity": 82}, {"time": 1073, "pitch": 69, "duration": 1, "velocity": 45}, {"time": 1076, "pitch": 49, "duration": 3, "velocity": 25}, {"time": 1079, "pitch": 54, "duration": 4, "velocity": 47}, {"time": 1079, "pitch": 61, "duration": 2, "velocity": 79}, {"time": 1079, "pitch": 66, "duration": 2, "velocity": 74}, {"time": 1082, "pitch": 56, "duration": 4, "velocity": 60}, {"time": 1082, "pitch": 61, "duration": 4, "velocity": 70}, {"time": 1082, "pitch": 64, "duration": 4, "velocity": 86}, {"time": 1085, "pitch": 57, "duration": 4, "velocity": 72}, {"time": 1088, "pitch": 56, "duration": 2, "velocity": 68}, {"time": 1088, "pitch": 61, "duration": 6, "velocity": 84}, {"time": 1088, "pitch": 66, "duration": 5, "velocity": 84}, {"time": 1091, "pitch": 54, "duration": 3, "velocity": 60}, {"time": 1094, "pitch": 52, "duration": 2, "velocity": 84}, {"time": 1097, "pitch": 49, "duration": 18, "velocity": 90}, {"time": 1097, "pitch": 59, "duration": 4, "velocity": 91}, {"time": 1097, "pitch": 64, "duration": 4, "velocity": 92}, {"time": 1100, "pitch": 56, "duration": 6, "velocity": 60}, {"time": 1103, "pitch": 59, "duration": 2, "velocity": 72}, {"time": 1106, "pitch": 64, "duration": 2, "velocity": 91}, {"time": 1106, "pitch": 71, "duration": 3, "velocity": 96}, {"time": 1109, "pitch": 56, "duration": 3, "velocity": 37}, {"time": 1109, "pitch": 57, "duration": 1, "velocity": 33}, {"time": 1112, "pitch": 61, "duration": 3, "velocity": 62}, {"time": 1115, "pitch": 56, "duration": 4, "velocity": 72}, {"time": 1118, "pitch": 73, "duration": 1, "velocity": 85}, {"time": 1118, "pitch": 80, "duration": 2, "velocity": 96}, {"time": 1121, "pitch": 49, "duration": 19, "velocity": 77}, {"time": 1121, "pitch": 73, "duration": 3, "velocity": 78}, {"time": 1121, "pitch": 81, "duration": 4, "velocity": 99}, {"time": 1124, "pitch": 56, "duration": 3, "velocity": 65}, {"time": 1127, "pitch": 61, "duration": 3, "velocity": 60}, {"time": 1127, "pitch": 73, "duration": 1, "velocity": 92}, {"time": 1130, "pitch": 56, "duration": 5, "velocity": 82}, {"time": 1133, "pitch": 68, "duration": 2, "velocity": 86}, {"time": 1133, "pitch": 76, "duration": 2, "velocity": 101}, {"time": 1136, "pitch": 61, "duration": 3, "velocity": 60}, {"time": 1139, "pitch": 56, "duration": 1, "velocity": 86}, {"time": 1139, "pitch": 64, "duration": 2, "velocity": 90}, {"time": 1139, "pitch": 73, "duration": 2, "velocity": 91}, {"time": 1145, "pitch": 50, "duration": 13, "velocity": 79}, {"time": 1145, "pitch": 57, "duration": 7, "velocity": 90}, {"time": 1145, "pitch": 62, "duration": 7, "velocity": 86}, {"time": 1145, "pitch": 66, "duration": 7, "velocity": 72}, {"time": 1145, "pitch": 69, "duration": 7, "velocity": 81}, {"time": 1157, "pitch": 57, "duration": 4, "velocity": 76}, {"time": 1157, "pitch": 62, "duration": 4, "velocity": 54}, {"time": 1157, "pitch": 66, "duration": 4, "velocity": 72}, {"time": 1157, "pitch": 69, "duration": 3, "velocity": 81}, {"time": 1160, "pitch": 50, "duration": 2, "velocity": 86}, {"time": 1163, "pitch": 57, "duration": 2, "velocity": 81}, {"time": 1163, "pitch": 62, "duration": 2, "velocity": 72}, {"time": 1166, "pitch": 62, "duration": 1, "velocity": 29}, {"time": 1166, "pitch": 69, "duration": 2, "velocity": 69}, {"time": 1169, "pitch": 37, "duration": 2, "velocity": 77}, {"time": 1169, "pitch": 49, "duration": 3, "velocity": 79}, {"time": 1169, "pitch": 59, "duration": 2, "velocity": 86}, {"time": 1169, "pitch": 64, "duration": 2, "velocity": 99}, {"time": 1169, "pitch": 68, "duration": 2, "velocity": 101}, {"time": 1193, "pitch": 42, "duration": 44, "velocity": 76}, {"time": 1193, "pitch": 54, "duration": 5, "velocity": 69}, {"time": 1193, "pitch": 61, "duration": 1, "velocity": 74}, {"time": 1193, "pitch": 66, "duration": 1, "velocity": 90}, {"time": 1193, "pitch": 69, "duration": 1, "velocity": 60}, {"time": 1196, "pitch": 61, "duration": 2, "velocity": 76}, {"time": 1196, "pitch": 69, "duration": 2, "velocity": 85}, {"time": 1199, "pitch": 54, "duration": 3, "velocity": 88}, {"time": 1199, "pitch": 61, "duration": 1, "velocity": 94}, {"time": 1199, "pitch": 69, "duration": 2, "velocity": 97}, {"time": 1202, "pitch": 61, "duration": 1, "velocity": 56}, {"time": 1202, "pitch": 68, "duration": 2, "velocity": 77}, {"time": 1205, "pitch": 54, "duration": 3, "velocity": 72}, {"time": 1205, "pitch": 61, "duration": 1, "velocity": 76}, {"time": 1205, "pitch": 68, "duration": 1, "velocity": 99}, {"time": 1208, "pitch": 61, "duration": 2, "velocity": 79}, {"time": 1208, "pitch": 69, "duration": 1, "velocity": 90}, {"time": 1211, "pitch": 54, "duration": 4, "velocity": 50}, {"time": 1211, "pitch": 61, "duration": 1, "velocity": 70}, {"time": 1211, "pitch": 69, "duration": 1, "velocity": 91}, {"time": 1214, "pitch": 61, "duration": 2, "velocity": 68}, {"time": 1214, "pitch": 68, "duration": 2, "velocity": 76}, {"time": 1217, "pitch": 54, "duration": 3, "velocity": 47}, {"time": 1217, "pitch": 61, "duration": 1, "velocity": 66}, {"time": 1217, "pitch": 68, "duration": 1, "velocity": 94}, {"time": 1220, "pitch": 61, "duration": 1, "velocity": 86}, {"time": 1220, "pitch": 68, "duration": 1, "velocity": 97}, {"time": 1223, "pitch": 61, "duration": 1, "velocity": 60}, {"time": 1223, "pitch": 66, "duration": 1, "velocity": 59}, {"time": 1226, "pitch": 61, "duration": 1, "velocity": 39}, {"time": 1226, "pitch": 64, "duration": 1, "velocity": 88}, {"time": 1229, "pitch": 54, "duration": 5, "velocity": 68}, {"time": 1229, "pitch": 61, "duration": 2, "velocity": 70}, {"time": 1229, "pitch": 68, "duration": 2, "velocity": 84}, {"time": 1232, "pitch": 61, "duration": 1, "velocity": 60}, {"time": 1232, "pitch": 69, "duration": 2, "velocity": 94}, {"time": 1235, "pitch": 49, "duration": 1, "velocity": 91}, {"time": 1235, "pitch": 61, "duration": 1, "velocity": 65}, {"time": 1235, "pitch": 68, "duration": 2, "velocity": 82}, {"time": 1238, "pitch": 64, "duration": 1, "velocity": 82}, {"time": 1241, "pitch": 42, "duration": 5, "velocity": 78}, {"time": 1241, "pitch": 61, "duration": 1, "velocity": 81}, {"time": 1241, "pitch": 69, "duration": 1, "velocity": 86}, {"time": 1244, "pitch": 49, "duration": 2, "velocity": 76}, {"time": 1244, "pitch": 61, "duration": 1, "velocity": 72}, {"time": 1244, "pitch": 69, "duration": 1, "velocity": 88}, {"time": 1247, "pitch": 54, "duration": 3, "velocity": 66}, {"time": 1247, "pitch": 61, "duration": 1, "velocity": 79}, {"time": 1247, "pitch": 69, "duration": 1, "velocity": 88}, {"time": 1250, "pitch": 56, "duration": 4, "velocity": 72}, {"time": 1250, "pitch": 61, "duration": 1, "velocity": 69}, {"time": 1250, "pitch": 68, "duration": 1, "velocity": 79}, {"time": 1253, "pitch": 57, "duration": 4, "velocity": 69}, {"time": 1253, "pitch": 61, "duration": 1, "velocity": 77}, {"time": 1253, "pitch": 68, "duration": 1, "velocity": 86}, {"time": 1256, "pitch": 56, "duration": 3, "velocity": 60}, {"time": 1256, "pitch": 59, "duration": 1, "velocity": 91}, {"time": 1256, "pitch": 64, "duration": 1, "velocity": 94}, {"time": 1259, "pitch": 59, "duration": 1, "velocity": 65}, {"time": 1259, "pitch": 64, "duration": 2, "velocity": 90}, {"time": 1262, "pitch": 61, "duration": 1, "velocity": 88}, {"time": 1262, "pitch": 66, "duration": 1, "velocity": 85}, {"time": 1265, "pitch": 42, "duration": 18, "velocity": 82}, {"time": 1265, "pitch": 61, "duration": 1, "velocity": 74}, {"time": 1265, "pitch": 66, "duration": 1, "velocity": 77}, {"time": 1268, "pitch": 49, "duration": 4, "velocity": 70}, {"time": 1268, "pitch": 61, "duration": 1, "velocity": 69}, {"time": 1268, "pitch": 69, "duration": 1, "velocity": 85}, {"time": 1271, "pitch": 54, "duration": 4, "velocity": 60}, {"time": 1271, "pitch": 61, "duration": 1, "velocity": 72}, {"time": 1271, "pitch": 69, "duration": 1, "velocity": 88}, {"time": 1274, "pitch": 49, "duration": 2, "velocity": 70}, {"time": 1274, "pitch": 59, "duration": 1, "velocity": 79}, {"time": 1274, "pitch": 68, "duration": 1, "velocity": 85}, {"time": 1277, "pitch": 54, "duration": 4, "velocity": 72}, {"time": 1277, "pitch": 59, "duration": 1, "velocity": 90}, {"time": 1277, "pitch": 68, "duration": 1, "velocity": 92}, {"time": 1280, "pitch": 57, "duration": 1, "velocity": 85}, {"time": 1280, "pitch": 66, "duration": 1, "velocity": 94}, {"time": 1283, "pitch": 49, "duration": 1, "velocity": 82}, {"time": 1283, "pitch": 57, "duration": 1, "velocity": 84}, {"time": 1283, "pitch": 66, "duration": 1, "velocity": 86}, {"time": 1286, "pitch": 57, "duration": 3, "velocity": 68}, {"time": 1286, "pitch": 64, "duration": 4, "velocity": 107}, {"time": 1289, "pitch": 38, "duration": 1, "velocity": 79}, {"time": 1289, "pitch": 50, "duration": 1, "velocity": 101}, {"time": 1292, "pitch": 62, "duration": 1, "velocity": 82}, {"time": 1292, "pitch": 69, "duration": 1, "velocity": 54}, {"time": 1295, "pitch": 61, "duration": 1, "velocity": 91}, {"time": 1295, "pitch": 69, "duration": 1, "velocity": 97}, {"time": 1298, "pitch": 59, "duration": 1, "velocity": 81}, {"time": 1298, "pitch": 68, "duration": 1, "velocity": 85}, {"time": 1301, "pitch": 50, "duration": 5, "velocity": 79}, {"time": 1301, "pitch": 59, "duration": 1, "velocity": 77}, {"time": 1301, "pitch": 68, "duration": 2, "velocity": 79}, {"time": 1304, "pitch": 56, "duration": 2, "velocity": 85}, {"time": 1304, "pitch": 59, "duration": 1, "velocity": 69}, {"time": 1304, "pitch": 66, "duration": 1, "velocity": 60}, {"time": 1307, "pitch": 59, "duration": 1, "velocity": 77}, {"time": 1307, "pitch": 66, "duration": 1, "velocity": 77}, {"time": 1310, "pitch": 59, "duration": 1, "velocity": 57}, {"time": 1310, "pitch": 64, "duration": 1, "velocity": 72}, {"time": 1313, "pitch": 38, "duration": 5, "velocity": 85}, {"time": 1313, "pitch": 62, "duration": 4, "velocity": 78}, {"time": 1313, "pitch": 66, "duration": 4, "velocity": 68}, {"time": 1316, "pitch": 45, "duration": 2, "velocity": 70}, {"time": 1319, "pitch": 50, "duration": 4, "velocity": 65}, {"time": 1319, "pitch": 57, "duration": 1, "velocity": 47}, {"time": 1322, "pitch": 52, "duration": 4, "velocity": 72}, {"time": 1322, "pitch": 57, "duration": 1, "velocity": 70}, {"time": 1322, "pitch": 62, "duration": 1, "velocity": 65}, {"time": 1322, "pitch": 66, "duration": 1, "velocity": 57}, {"time": 1322, "pitch": 69, "duration": 1, "velocity": 78}, {"time": 1325, "pitch": 54, "duration": 4, "velocity": 57}, {"time": 1325, "pitch": 57, "duration": 1, "velocity": 63}, {"time": 1325, "pitch": 62, "duration": 1, "velocity": 53}, {"time": 1325, "pitch": 66, "duration": 1, "velocity": 54}, {"time": 1325, "pitch": 69, "duration": 1, "velocity": 77}, {"time": 1328, "pitch": 52, "duration": 1, "velocity": 78}, {"time": 1328, "pitch": 57, "duration": 1, "velocity": 63}, {"time": 1328, "pitch": 64, "duration": 1, "velocity": 65}, {"time": 1331, "pitch": 57, "duration": 1, "velocity": 84}, {"time": 1331, "pitch": 64, "duration": 2, "velocity": 99}, {"time": 1334, "pitch": 38, "duration": 3, "velocity": 65}, {"time": 1334, "pitch": 64, "duration": 1, "velocity": 56}, {"time": 1337, "pitch": 35, "duration": 2, "velocity": 91}, {"time": 1337, "pitch": 57, "duration": 1, "velocity": 84}, {"time": 1337, "pitch": 62, "duration": 1, "velocity": 68}, {"time": 1337, "pitch": 66, "duration": 1, "velocity": 51}, {"time": 1337, "pitch": 69, "duration": 2, "velocity": 88}, {"time": 1340, "pitch": 57, "duration": 1, "velocity": 63}, {"time": 1340, "pitch": 62, "duration": 1, "velocity": 76}, {"time": 1340, "pitch": 66, "duration": 1, "velocity": 69}, {"time": 1340, "pitch": 69, "duration": 1, "velocity": 33}, {"time": 1343, "pitch": 62, "duration": 1, "velocity": 56}, {"time": 1343, "pitch": 66, "duration": 1, "velocity": 37}, {"time": 1343, "pitch": 69, "duration": 1, "velocity": 60}, {"time": 1346, "pitch": 57, "duration": 1, "velocity": 70}, {"time": 1346, "pitch": 62, "duration": 1, "velocity": 63}, {"time": 1346, "pitch": 66, "duration": 1, "velocity": 78}, {"time": 1346, "pitch": 69, "duration": 1, "velocity": 65}, {"time": 1349, "pitch": 57, "duration": 2, "velocity": 57}, {"time": 1349, "pitch": 62, "duration": 2, "velocity": 60}, {"time": 1349, "pitch": 66, "duration": 2, "velocity": 60}, {"time": 1349, "pitch": 69, "duration": 1, "velocity": 65}, {"time": 1352, "pitch": 62, "duration": 1, "velocity": 54}, {"time": 1352, "pitch": 66, "duration": 1, "velocity": 27}, {"time": 1355, "pitch": 57, "duration": 1, "velocity": 70}, {"time": 1355, "pitch": 62, "duration": 1, "velocity": 76}, {"time": 1355, "pitch": 66, "duration": 4, "velocity": 63}, {"time": 1358, "pitch": 42, "duration": 22, "velocity": 72}, {"time": 1358, "pitch": 62, "duration": 1, "velocity": 54}, {"time": 1361, "pitch": 49, "duration": 16, "velocity": 79}, {"time": 1361, "pitch": 61, "duration": 1, "velocity": 41}, {"time": 1361, "pitch": 69, "duration": 1, "velocity": 54}, {"time": 1364, "pitch": 61, "duration": 1, "velocity": 76}, {"time": 1364, "pitch": 69, "duration": 1, "velocity": 91}, {"time": 1367, "pitch": 54, "duration": 1, "velocity": 53}, {"time": 1367, "pitch": 61, "duration": 1, "velocity": 74}, {"time": 1367, "pitch": 69, "duration": 1, "velocity": 94}, {"time": 1370, "pitch": 54, "duration": 1, "velocity": 45}, {"time": 1370, "pitch": 59, "duration": 1, "velocity": 81}, {"time": 1370, "pitch": 68, "duration": 1, "velocity": 84}, {"time": 1373, "pitch": 54, "duration": 5, "velocity": 63}, {"time": 1373, "pitch": 59, "duration": 1, "velocity": 91}, {"time": 1373, "pitch": 68, "duration": 1, "velocity": 94}, {"time": 1376, "pitch": 57, "duration": 1, "velocity": 76}, {"time": 1376, "pitch": 66, "duration": 1, "velocity": 90}, {"time": 1379, "pitch": 57, "duration": 1, "velocity": 76}, {"time": 1379, "pitch": 66, "duration": 1, "velocity": 70}, {"time": 1385, "pitch": 47, "duration": 18, "velocity": 68}, {"time": 1385, "pitch": 54, "duration": 10, "velocity": 62}, {"time": 1385, "pitch": 57, "duration": 7, "velocity": 72}, {"time": 1385, "pitch": 62, "duration": 15, "velocity": 72}, {"time": 1385, "pitch": 66, "duration": 11, "velocity": 60}, {"time": 1385, "pitch": 69, "duration": 12, "velocity": 60}, {"time": 1397, "pitch": 54, "duration": 12, "velocity": 45}, {"time": 1400, "pitch": 59, "duration": 4, "velocity": 53}, {"time": 1403, "pitch": 61, "duration": 3, "velocity": 68}, {"time": 1406, "pitch": 62, "duration": 2, "velocity": 70}, {"time": 1409, "pitch": 47, "duration": 19, "velocity": 66}, {"time": 1412, "pitch": 54, "duration": 9, "velocity": 60}, {"time": 1412, "pitch": 69, "duration": 1, "velocity": 54}, {"time": 1415, "pitch": 59, "duration": 2, "velocity": 18}, {"time": 1415, "pitch": 66, "duration": 1, "velocity": 76}, {"time": 1415, "pitch": 74, "duration": 1, "velocity": 96}, {"time": 1418, "pitch": 64, "duration": 3, "velocity": 81}, {"time": 1418, "pitch": 73, "duration": 3, "velocity": 85}, {"time": 1421, "pitch": 59, "duration": 5, "velocity": 45}, {"time": 1424, "pitch": 66, "duration": 1, "velocity": 76}, {"time": 1424, "pitch": 69, "duration": 1, "velocity": 84}, {"time": 1424, "pitch": 74, "duration": 1, "velocity": 107}, {"time": 1427, "pitch": 54, "duration": 1, "velocity": 74}, {"time": 1430, "pitch": 78, "duration": 2, "velocity": 72}, {"time": 1433, "pitch": 42, "duration": 5, "velocity": 82}, {"time": 1433, "pitch": 73, "duration": 7, "velocity": 77}, {"time": 1433, "pitch": 81, "duration": 7, "velocity": 88}, {"time": 1436, "pitch": 49, "duration": 2, "velocity": 66}, {"time": 1439, "pitch": 54, "duration": 3, "velocity": 44}, {"time": 1442, "pitch": 56, "duration": 7, "velocity": 65}, {"time": 1445, "pitch": 57, "duration": 3, "velocity": 86}, {"time": 1448, "pitch": 61, "duration": 2, "velocity": 81}, {"time": 1451, "pitch": 66, "duration": 3, "velocity": 63}, {"time": 1454, "pitch": 68, "duration": 3, "velocity": 68}, {"time": 1457, "pitch": 42, "duration": 5, "velocity": 63}, {"time": 1457, "pitch": 61, "duration": 1, "velocity": 65}, {"time": 1457, "pitch": 69, "duration": 1, "velocity": 72}, {"time": 1460, "pitch": 49, "duration": 2, "velocity": 68}, {"time": 1463, "pitch": 54, "duration": 3, "velocity": 51}, {"time": 1466, "pitch": 56, "duration": 5, "velocity": 62}, {"time": 1466, "pitch": 81, "duration": 2, "velocity": 72}, {"time": 1469, "pitch": 57, "duration": 6, "velocity": 65}, {"time": 1469, "pitch": 76, "duration": 1, "velocity": 86}, {"time": 1469, "pitch": 80, "duration": 2, "velocity": 68}, {"time": 1472, "pitch": 69, "duration": 2, "velocity": 70}, {"time": 1472, "pitch": 73, "duration": 1, "velocity": 77}, {"time": 1475, "pitch": 68, "duration": 2, "velocity": 92}, {"time": 1478, "pitch": 71, "duration": 3, "velocity": 72}, {"time": 1481, "pitch": 47, "duration": 19, "velocity": 72}, {"time": 1481, "pitch": 66, "duration": 5, "velocity": 66}, {"time": 1481, "pitch": 69, "duration": 6, "velocity": 27}, {"time": 1481, "pitch": 74, "duration": 5, "velocity": 99}, {"time": 1484, "pitch": 54, "duration": 12, "velocity": 60}, {"time": 1487, "pitch": 59, "duration": 5, "velocity": 56}, {"time": 1490, "pitch": 62, "duration": 1, "velocity": 68}, {"time": 1490, "pitch": 66, "duration": 1, "velocity": 47}, {"time": 1493, "pitch": 62, "duration": 1, "velocity": 72}, {"time": 1493, "pitch": 66, "duration": 1, "velocity": 88}, {"time": 1496, "pitch": 59, "duration": 2, "velocity": 45}, {"time": 1496, "pitch": 66, "duration": 2, "velocity": 68}, {"time": 1496, "pitch": 74, "duration": 2, "velocity": 74}, {"time": 1499, "pitch": 54, "duration": 3, "velocity": 45}, {"time": 1502, "pitch": 64, "duration": 1, "velocity": 68}, {"time": 1502, "pitch": 73, "duration": 2, "velocity": 78}, {"time": 1505, "pitch": 47, "duration": 16, "velocity": 76}, {"time": 1505, "pitch": 66, "duration": 4, "velocity": 54}, {"time": 1505, "pitch": 69, "duration": 4, "velocity": 37}, {"time": 1505, "pitch": 74, "duration": 4, "velocity": 79}, {"time": 1508, "pitch": 54, "duration": 6, "velocity": 54}, {"time": 1511, "pitch": 59, "duration": 3, "velocity": 65}, {"time": 1514, "pitch": 62, "duration": 4, "velocity": 82}, {"time": 1514, "pitch": 66, "duration": 3, "velocity": 76}, {"time": 1517, "pitch": 54, "duration": 3, "velocity": 74}, {"time": 1520, "pitch": 57, "duration": 1, "velocity": 47}, {"time": 1523, "pitch": 62, "duration": 2, "velocity": 82}, {"time": 1526, "pitch": 69, "duration": 12, "velocity": 76}, {"time": 1529, "pitch": 37, "duration": 3, "velocity": 90}, {"time": 1529, "pitch": 59, "duration": 10, "velocity": 70}, {"time": 1529, "pitch": 64, "duration": 10, "velocity": 66}, {"time": 1529, "pitch": 68, "duration": 9, "velocity": 68}, {"time": 1532, "pitch": 49, "duration": 4, "velocity": 47}, {"time": 1535, "pitch": 52, "duration": 8, "velocity": 68}, {"time": 1538, "pitch": 56, "duration": 4, "velocity": 74}, {"time": 1541, "pitch": 59, "duration": 2, "velocity": 97}, {"time": 1544, "pitch": 64, "duration": 2, "velocity": 90}, {"time": 1547, "pitch": 59, "duration": 1, "velocity": 44}, {"time": 1547, "pitch": 68, "duration": 2, "velocity": 91}, {"time": 1550, "pitch": 59, "duration": 2, "velocity": 84}, {"time": 1550, "pitch": 64, "duration": 3, "velocity": 94}, {"time": 1550, "pitch": 71, "duration": 3, "velocity": 106}, {"time": 1553, "pitch": 37, "duration": 5, "velocity": 79}, {"time": 1556, "pitch": 64, "duration": 1, "velocity": 82}, {"time": 1556, "pitch": 76, "duration": 1, "velocity": 77}, {"time": 1559, "pitch": 49, "duration": 3, "velocity": 86}, {"time": 1559, "pitch": 66, "duration": 1, "velocity": 79}, {"time": 1559, "pitch": 78, "duration": 2, "velocity": 96}, {"time": 1565, "pitch": 52, "duration": 3, "velocity": 76}, {"time": 1565, "pitch": 68, "duration": 1, "velocity": 96}, {"time": 1565, "pitch": 80, "duration": 1, "velocity": 107}, {"time": 1568, "pitch": 54, "duration": 4, "velocity": 60}, {"time": 1571, "pitch": 56, "duration": 3, "velocity": 33}, {"time": 1571, "pitch": 69, "duration": 1, "velocity": 85}, {"time": 1571, "pitch": 81, "duration": 1, "velocity": 99}, {"time": 1574, "pitch": 71, "duration": 1, "velocity": 54}, {"time": 1574, "pitch": 83, "duration": 1, "velocity": 82}, {"time": 1577, "pitch": 42, "duration": 21, "velocity": 84}, {"time": 1577, "pitch": 73, "duration": 3, "velocity": 48}, {"time": 1577, "pitch": 85, "duration": 3, "velocity": 103}, {"time": 1580, "pitch": 49, "duration": 13, "velocity": 85}, {"time": 1583, "pitch": 54, "duration": 5, "velocity": 72}, {"time": 1586, "pitch": 61, "duration": 1, "velocity": 68}, {"time": 1586, "pitch": 69, "duration": 1, "velocity": 88}, {"time": 1589, "pitch": 61, "duration": 3, "velocity": 96}, {"time": 1589, "pitch": 69, "duration": 3, "velocity": 94}, {"time": 1592, "pitch": 54, "duration": 6, "velocity": 47}, {"time": 1595, "pitch": 59, "duration": 1, "velocity": 90}, {"time": 1595, "pitch": 68, "duration": 1, "velocity": 94}, {"time": 1598, "pitch": 49, "duration": 4, "velocity": 90}, {"time": 1598, "pitch": 57, "duration": 3, "velocity": 88}, {"time": 1598, "pitch": 66, "duration": 4, "velocity": 92}, {"time": 1601, "pitch": 42, "duration": 5, "velocity": 65}, {"time": 1604, "pitch": 49, "duration": 2, "velocity": 63}, {"time": 1607, "pitch": 54, "duration": 4, "velocity": 44}, {"time": 1610, "pitch": 56, "duration": 4, "velocity": 57}, {"time": 1610, "pitch": 73, "duration": 1, "velocity": 78}, {"time": 1610, "pitch": 81, "duration": 1, "velocity": 90}, {"time": 1613, "pitch": 57, "duration": 3, "velocity": 59}, {"time": 1613, "pitch": 73, "duration": 1, "velocity": 66}, {"time": 1613, "pitch": 81, "duration": 1, "velocity": 85}, {"time": 1616, "pitch": 56, "duration": 2, "velocity": 53}, {"time": 1616, "pitch": 71, "duration": 1, "velocity": 63}, {"time": 1616, "pitch": 80, "duration": 1, "velocity": 85}, {"time": 1619, "pitch": 54, "duration": 2, "velocity": 65}, {"time": 1619, "pitch": 71, "duration": 1, "velocity": 66}, {"time": 1619, "pitch": 80, "duration": 1, "velocity": 81}, {"time": 1622, "pitch": 69, "duration": 1, "velocity": 72}, {"time": 1622, "pitch": 76, "duration": 1, "velocity": 62}, {"time": 1622, "pitch": 78, "duration": 1, "velocity": 53}, {"time": 1625, "pitch": 37, "duration": 2, "velocity": 82}, {"time": 1625, "pitch": 68, "duration": 9, "velocity": 82}, {"time": 1625, "pitch": 76, "duration": 8, "velocity": 90}, {"time": 1628, "pitch": 49, "duration": 4, "velocity": 62}, {"time": 1631, "pitch": 52, "duration": 10, "velocity": 68}, {"time": 1634, "pitch": 56, "duration": 7, "velocity": 68}, {"time": 1637, "pitch": 59, "duration": 3, "velocity": 72}, {"time": 1640, "pitch": 64, "duration": 2, "velocity": 91}, {"time": 1643, "pitch": 64, "duration": 1, "velocity": 54}, {"time": 1643, "pitch": 66, "duration": 2, "velocity": 76}, {"time": 1646, "pitch": 37, "duration": 3, "velocity": 68}, {"time": 1646, "pitch": 59, "duration": 5, "velocity": 84}, {"time": 1646, "pitch": 64, "duration": 6, "velocity": 86}, {"time": 1646, "pitch": 71, "duration": 10, "velocity": 96}, {"time": 1649, "pitch": 49, "duration": 7, "velocity": 63}, {"time": 1652, "pitch": 59, "duration": 4, "velocity": 91}, {"time": 1652, "pitch": 68, "duration": 5, "velocity": 101}, {"time": 1658, "pitch": 52, "duration": 5, "velocity": 79}, {"time": 1658, "pitch": 59, "duration": 2, "velocity": 72}, {"time": 1658, "pitch": 66, "duration": 2, "velocity": 72}, {"time": 1661, "pitch": 56, "duration": 6, "velocity": 68}, {"time": 1661, "pitch": 59, "duration": 3, "velocity": 78}, {"time": 1661, "pitch": 64, "duration": 1, "velocity": 86}, {"time": 1664, "pitch": 59, "duration": 1, "velocity": 79}, {"time": 1664, "pitch": 64, "duration": 3, "velocity": 94}, {"time": 1667, "pitch": 52, "duration": 1, "velocity": 90}, {"time": 1670, "pitch": 59, "duration": 1, "velocity": 68}, {"time": 1670, "pitch": 66, "duration": 2, "velocity": 70}, {"time": 1673, "pitch": 39, "duration": 1, "velocity": 68}, {"time": 1673, "pitch": 51, "duration": 1, "velocity": 85}, {"time": 1673, "pitch": 54, "duration": 1, "velocity": 72}, {"time": 1673, "pitch": 57, "duration": 1, "velocity": 92}, {"time": 1673, "pitch": 61, "duration": 2, "velocity": 88}, {"time": 1678, "pitch": 66, "duration": 1, "velocity": 56}, {"time": 1678, "pitch": 69, "duration": 2, "velocity": 76}, {"time": 1679, "pitch": 63, "duration": 10, "velocity": 50}, {"time": 1679, "pitch": 73, "duration": 1, "velocity": 79}, {"time": 1688, "pitch": 66, "duration": 3, "velocity": 79}, {"time": 1688, "pitch": 69, "duration": 4, "velocity": 92}, {"time": 1688, "pitch": 74, "duration": 4, "velocity": 101}, {"time": 1691, "pitch": 63, "duration": 1, "velocity": 54}, {"time": 1694, "pitch": 73, "duration": 2, "velocity": 65}, {"time": 1697, "pitch": 38, "duration": 3, "velocity": 60}, {"time": 1697, "pitch": 64, "duration": 11, "velocity": 76}, {"time": 1697, "pitch": 69, "duration": 11, "velocity": 9}, {"time": 1697, "pitch": 74, "duration": 11, "velocity": 96}, {"time": 1700, "pitch": 50, "duration": 3, "velocity": 69}, {"time": 1703, "pitch": 52, "duration": 12, "velocity": 85}, {"time": 1706, "pitch": 54, "duration": 9, "velocity": 63}, {"time": 1709, "pitch": 56, "duration": 2, "velocity": 65}, {"time": 1709, "pitch": 57, "duration": 5, "velocity": 68}, {"time": 1712, "pitch": 62, "duration": 4, "velocity": 91}, {"time": 1715, "pitch": 66, "duration": 3, "velocity": 84}, {"time": 1718, "pitch": 69, "duration": 13, "velocity": 88}, {"time": 1721, "pitch": 37, "duration": 3, "velocity": 92}, {"time": 1721, "pitch": 59, "duration": 10, "velocity": 78}, {"time": 1721, "pitch": 64, "duration": 10, "velocity": 91}, {"time": 1721, "pitch": 68, "duration": 10, "velocity": 90}, {"time": 1724, "pitch": 49, "duration": 4, "velocity": 65}, {"time": 1727, "pitch": 52, "duration": 10, "velocity": 66}, {"time": 1730, "pitch": 56, "duration": 7, "velocity": 60}, {"time": 1733, "pitch": 59, "duration": 2, "velocity": 76}, {"time": 1733, "pitch": 66, "duration": 2, "velocity": 60}, {"time": 1736, "pitch": 59, "duration": 2, "velocity": 60}, {"time": 1736, "pitch": 68, "duration": 4, "velocity": 91}, {"time": 1739, "pitch": 59, "duration": 1, "velocity": 41}, {"time": 1742, "pitch": 59, "duration": 10, "velocity": 92}, {"time": 1742, "pitch": 64, "duration": 10, "velocity": 82}, {"time": 1742, "pitch": 71, "duration": 11, "velocity": 81}, {"time": 1745, "pitch": 37, "duration": 2, "velocity": 86}, {"time": 1748, "pitch": 49, "duration": 4, "velocity": 56}, {"time": 1751, "pitch": 52, "duration": 9, "velocity": 68}, {"time": 1754, "pitch": 54, "duration": 10, "velocity": 57}, {"time": 1757, "pitch": 64, "duration": 1, "velocity": 72}, {"time": 1757, "pitch": 76, "duration": 1, "velocity": 103}, {"time": 1760, "pitch": 66, "duration": 1, "velocity": 54}, {"time": 1760, "pitch": 78, "duration": 1, "velocity": 90}, {"time": 1763, "pitch": 52, "duration": 4, "velocity": 72}, {"time": 1763, "pitch": 68, "duration": 1, "velocity": 60}, {"time": 1763, "pitch": 80, "duration": 1, "velocity": 92}, {"time": 1766, "pitch": 71, "duration": 1, "velocity": 45}, {"time": 1766, "pitch": 83, "duration": 1, "velocity": 94}, {"time": 1769, "pitch": 42, "duration": 20, "velocity": 76}, {"time": 1769, "pitch": 69, "duration": 4, "velocity": 72}, {"time": 1769, "pitch": 81, "duration": 3, "velocity": 94}, {"time": 1772, "pitch": 49, "duration": 12, "velocity": 82}, {"time": 1775, "pitch": 54, "duration": 4, "velocity": 63}, {"time": 1778, "pitch": 61, "duration": 1, "velocity": 70}, {"time": 1778, "pitch": 69, "duration": 1, "velocity": 97}, {"time": 1781, "pitch": 61, "duration": 1, "velocity": 81}, {"time": 1781, "pitch": 69, "duration": 1, "velocity": 103}, {"time": 1784, "pitch": 54, "duration": 5, "velocity": 39}, {"time": 1784, "pitch": 59, "duration": 2, "velocity": 54}, {"time": 1784, "pitch": 68, "duration": 2, "velocity": 78}, {"time": 1787, "pitch": 49, "duration": 3, "velocity": 45}, {"time": 1787, "pitch": 64, "duration": 2, "velocity": 88}, {"time": 1790, "pitch": 61, "duration": 10, "velocity": 99}, {"time": 1790, "pitch": 66, "duration": 9, "velocity": 70}, {"time": 1790, "pitch": 69, "duration": 8, "velocity": 103}, {"time": 1793, "pitch": 42, "duration": 19, "velocity": 70}, {"time": 1796, "pitch": 49, "duration": 11, "velocity": 76}, {"time": 1799, "pitch": 54, "duration": 5, "velocity": 65}, {"time": 1802, "pitch": 61, "duration": 1, "velocity": 68}, {"time": 1802, "pitch": 69, "duration": 1, "velocity": 82}, {"time": 1805, "pitch": 54, "duration": 4, "velocity": 56}, {"time": 1805, "pitch": 59, "duration": 1, "velocity": 84}, {"time": 1805, "pitch": 68, "duration": 1, "velocity": 101}, {"time": 1808, "pitch": 57, "duration": 1, "velocity": 18}, {"time": 1811, "pitch": 49, "duration": 1, "velocity": 97}, {"time": 1811, "pitch": 57, "duration": 1, "velocity": 88}, {"time": 1811, "pitch": 66, "duration": 1, "velocity": 85}, {"time": 1817, "pitch": 37, "duration": 2, "velocity": 86}, {"time": 1817, "pitch": 56, "duration": 7, "velocity": 72}, {"time": 1817, "pitch": 64, "duration": 10, "velocity": 96}, {"time": 1820, "pitch": 49, "duration": 4, "velocity": 63}, {"time": 1823, "pitch": 52, "duration": 9, "velocity": 74}, {"time": 1826, "pitch": 56, "duration": 6, "velocity": 63}, {"time": 1829, "pitch": 59, "duration": 2, "velocity": 86}, {"time": 1832, "pitch": 59, "duration": 1, "velocity": 63}, {"time": 1832, "pitch": 61, "duration": 3, "velocity": 85}, {"time": 1835, "pitch": 64, "duration": 2, "velocity": 88}, {"time": 1838, "pitch": 56, "duration": 4, "velocity": 68}, {"time": 1838, "pitch": 59, "duration": 5, "velocity": 97}, {"time": 1838, "pitch": 64, "duration": 4, "velocity": 57}, {"time": 1841, "pitch": 37, "duration": 19, "velocity": 78}, {"time": 1841, "pitch": 49, "duration": 4, "velocity": 57}, {"time": 1844, "pitch": 56, "duration": 1, "velocity": 86}, {"time": 1844, "pitch": 64, "duration": 1, "velocity": 97}, {"time": 1847, "pitch": 49, "duration": 2, "velocity": 50}, {"time": 1847, "pitch": 52, "duration": 1, "velocity": 72}, {"time": 1847, "pitch": 56, "duration": 1, "velocity": 88}, {"time": 1847, "pitch": 61, "duration": 1, "velocity": 79}, {"time": 1850, "pitch": 49, "duration": 2, "velocity": 54}, {"time": 1853, "pitch": 52, "duration": 3, "velocity": 76}, {"time": 1853, "pitch": 56, "duration": 3, "velocity": 86}, {"time": 1853, "pitch": 59, "duration": 3, "velocity": 68}, {"time": 1853, "pitch": 64, "duration": 3, "velocity": 86}, {"time": 1856, "pitch": 49, "duration": 2, "velocity": 65}, {"time": 1856, "pitch": 52, "duration": 1, "velocity": 99}, {"time": 1856, "pitch": 59, "duration": 4, "velocity": 91}, {"time": 1859, "pitch": 49, "duration": 1, "velocity": 72}, {"time": 1862, "pitch": 64, "duration": 2, "velocity": 86}, {"time": 1865, "pitch": 38, "duration": 18, "velocity": 81}, {"time": 1865, "pitch": 39, "duration": 1, "velocity": 33}, {"time": 1865, "pitch": 54, "duration": 7, "velocity": 69}, {"time": 1865, "pitch": 57, "duration": 7, "velocity": 97}, {"time": 1865, "pitch": 62, "duration": 6, "velocity": 94}, {"time": 1874, "pitch": 50, "duration": 4, "velocity": 21}, {"time": 1877, "pitch": 54, "duration": 4, "velocity": 74}, {"time": 1877, "pitch": 57, "duration": 7, "velocity": 97}, {"time": 1877, "pitch": 62, "duration": 4, "velocity": 90}, {"time": 1880, "pitch": 50, "duration": 4, "velocity": 54}, {"time": 1883, "pitch": 54, "duration": 2, "velocity": 60}, {"time": 1889, "pitch": 37, "duration": 4, "velocity": 88}, {"time": 1889, "pitch": 49, "duration": 4, "velocity": 70}, {"time": 1889, "pitch": 52, "duration": 4, "velocity": 86}, {"time": 1889, "pitch": 56, "duration": 4, "velocity": 62}, {"time": 1889, "pitch": 59, "duration": 4, "velocity": 79}, {"time": 1913, "pitch": 42, "duration": 42, "velocity": 78}, {"time": 1913, "pitch": 54, "duration": 4, "velocity": 78}, {"time": 1913, "pitch": 57, "duration": 5, "velocity": 96}, {"time": 1913, "pitch": 61, "duration": 5, "velocity": 94}, {"time": 1925, "pitch": 54, "duration": 6, "velocity": 41}, {"time": 1925, "pitch": 56, "duration": 3, "velocity": 41}, {"time": 1925, "pitch": 57, "duration": 4, "velocity": 65}, {"time": 1925, "pitch": 61, "duration": 4, "velocity": 60}, {"time": 1937, "pitch": 54, "duration": 6, "velocity": 44}, {"time": 1937, "pitch": 56, "duration": 5, "velocity": 45}, {"time": 1937, "pitch": 57, "duration": 5, "velocity": 60}, {"time": 1937, "pitch": 61, "duration": 5, "velocity": 63}, {"time": 1949, "pitch": 54, "duration": 5, "velocity": 44}, {"time": 1949, "pitch": 56, "duration": 7, "velocity": 50}, {"time": 1949, "pitch": 57, "duration": 7, "velocity": 70}, {"time": 1949, "pitch": 61, "duration": 6, "velocity": 68}, {"time": 1961, "pitch": 47, "duration": 17, "velocity": 72}, {"time": 1961, "pitch": 54, "duration": 7, "velocity": 76}, {"time": 1961, "pitch": 57, "duration": 7, "velocity": 91}, {"time": 1961, "pitch": 62, "duration": 7, "velocity": 91}, {"time": 1973, "pitch": 54, "duration": 7, "velocity": 56}, {"time": 1973, "pitch": 57, "duration": 7, "velocity": 77}, {"time": 1973, "pitch": 62, "duration": 7, "velocity": 60}, {"time": 1979, "pitch": 47, "duration": 1, "velocity": 62}, {"time": 1985, "pitch": 38, "duration": 3, "velocity": 44}, {"time": 1985, "pitch": 50, "duration": 2, "velocity": 54}, {"time": 1985, "pitch": 54, "duration": 3, "velocity": 57}, {"time": 1985, "pitch": 57, "duration": 3, "velocity": 77}, {"time": 1985, "pitch": 62, "duration": 3, "velocity": 77}, {"time": 1994, "pitch": 37, "duration": 12, "velocity": 51}, {"time": 1994, "pitch": 49, "duration": 11, "velocity": 47}, {"time": 1994, "pitch": 52, "duration": 11, "velocity": 68}, {"time": 1994, "pitch": 56, "duration": 11, "velocity": 72}, {"time": 1994, "pitch": 59, "duration": 11, "velocity": 62}, {"time": 2033, "pitch": 42, "duration": 41, "velocity": 74}, {"time": 2033, "pitch": 56, "duration": 3, "velocity": 30}, {"time": 2033, "pitch": 57, "duration": 5, "velocity": 84}, {"time": 2033, "pitch": 61, "duration": 5, "velocity": 81}, {"time": 2039, "pitch": 49, "duration": 7, "velocity": 66}, {"time": 2045, "pitch": 54, "duration": 7, "velocity": 50}, {"time": 2045, "pitch": 56, "duration": 3, "velocity": 85}, {"time": 2045, "pitch": 57, "duration": 4, "velocity": 94}, {"time": 2045, "pitch": 61, "duration": 5, "velocity": 96}, {"time": 2051, "pitch": 49, "duration": 7, "velocity": 54}, {"time": 2054, "pitch": 61, "duration": 1, "velocity": 72}, {"time": 2054, "pitch": 69, "duration": 1, "velocity": 96}, {"time": 2057, "pitch": 54, "duration": 7, "velocity": 47}, {"time": 2057, "pitch": 61, "duration": 2, "velocity": 72}, {"time": 2057, "pitch": 69, "duration": 2, "velocity": 92}, {"time": 2063, "pitch": 49, "duration": 7, "velocity": 69}, {"time": 2066, "pitch": 59, "duration": 1, "velocity": 78}, {"time": 2066, "pitch": 68, "duration": 1, "velocity": 101}, {"time": 2069, "pitch": 54, "duration": 5, "velocity": 50}, {"time": 2069, "pitch": 59, "duration": 1, "velocity": 85}, {"time": 2069, "pitch": 68, "duration": 1, "velocity": 94}, {"time": 2075, "pitch": 49, "duration": 1, "velocity": 72}, {"time": 2075, "pitch": 57, "duration": 1, "velocity": 90}, {"time": 2075, "pitch": 66, "duration": 1, "velocity": 84}, {"time": 2081, "pitch": 42, "duration": 43, "velocity": 70}, {"time": 2081, "pitch": 56, "duration": 4, "velocity": 65}, {"time": 2081, "pitch": 57, "duration": 5, "velocity": 81}, {"time": 2081, "pitch": 61, "duration": 6, "velocity": 91}, {"time": 2087, "pitch": 49, "duration": 32, "velocity": 59}, {"time": 2093, "pitch": 54, "duration": 3, "velocity": 60}, {"time": 2093, "pitch": 59, "duration": 5, "velocity": 94}, {"time": 2093, "pitch": 64, "duration": 6, "velocity": 90}, {"time": 2102, "pitch": 54, "duration": 5, "velocity": 45}, {"time": 2105, "pitch": 61, "duration": 3, "velocity": 69}, {"time": 2105, "pitch": 64, "duration": 1, "velocity": 60}, {"time": 2105, "pitch": 69, "duration": 3, "velocity": 97}, {"time": 2111, "pitch": 54, "duration": 3, "velocity": 38}, {"time": 2114, "pitch": 59, "duration": 1, "velocity": 74}, {"time": 2114, "pitch": 68, "duration": 1, "velocity": 96}, {"time": 2117, "pitch": 54, "duration": 4, "velocity": 53}, {"time": 2117, "pitch": 59, "duration": 1, "velocity": 74}, {"time": 2117, "pitch": 68, "duration": 1, "velocity": 91}, {"time": 2123, "pitch": 49, "duration": 1, "velocity": 72}, {"time": 2123, "pitch": 57, "duration": 1, "velocity": 72}, {"time": 2123, "pitch": 66, "duration": 1, "velocity": 90}, {"time": 2129, "pitch": 37, "duration": 7, "velocity": 88}, {"time": 2129, "pitch": 59, "duration": 5, "velocity": 69}, {"time": 2129, "pitch": 64, "duration": 4, "velocity": 97}, {"time": 2144, "pitch": 42, "duration": 31, "velocity": 62}, {"time": 2144, "pitch": 30, "duration": 43, "velocity": 62}, {"time": 2144, "pitch": 54, "duration": 2, "velocity": 62}, {"time": 2146, "pitch": 66, "duration": 2, "velocity": 65}, {"time": 2148, "pitch": 54, "duration": 1, "velocity": 68}, {"time": 2149, "pitch": 66, "duration": 1, "velocity": 69}, {"time": 2150, "pitch": 54, "duration": 1, "velocity": 71}, {"time": 2151, "pitch": 66, "duration": 1, "velocity": 72}, {"time": 2152, "pitch": 54, "duration": 1, "velocity": 73}, {"time": 2153, "pitch": 66, "duration": 1, "velocity": 74}, {"time": 2154, "pitch": 54, "duration": 1, "velocity": 75}, {"time": 2155, "pitch": 66, "duration": 1, "velocity": 76}, {"time": 2156, "pitch": 54, "duration": 1, "velocity": 78}, {"time": 2157, "pitch": 66, "duration": 1, "velocity": 78}, {"time": 2158, "pitch": 54, "duration": 1, "velocity": 80}, {"time": 2159, "pitch": 66, "duration": 1, "velocity": 81}, {"time": 2160, "pitch": 54, "duration": 1, "velocity": 82}, {"time": 2160, "pitch": 66, "duration": 1, "velocity": 83}, {"time": 2162, "pitch": 54, "duration": 1, "velocity": 84}, {"time": 2162, "pitch": 66, "duration": 1, "velocity": 84}, {"time": 2163, "pitch": 54, "duration": 1, "velocity": 86}, {"time": 2164, "pitch": 66, "duration": 1, "velocity": 87}, {"time": 2165, "pitch": 54, "duration": 1, "velocity": 88}, {"time": 2166, "pitch": 66, "duration": 1, "velocity": 89}, {"time": 2167, "pitch": 54, "duration": 1, "velocity": 90}, {"time": 2168, "pitch": 66, "duration": 1, "velocity": 91}, {"time": 2169, "pitch": 54, "duration": 1, "velocity": 92}, {"time": 2170, "pitch": 66, "duration": 1, "velocity": 93}, {"time": 2171, "pitch": 54, "duration": 1, "velocity": 95}, {"time": 2172, "pitch": 66, "duration": 1, "velocity": 96}, {"time": 2173, "pitch": 54, "duration": 1, "velocity": 98}, {"time": 2174, "pitch": 90, "duration": 1, "velocity": 51}, {"time": 2174, "pitch": 66, "duration": 1, "velocity": 99}, {"time": 2175, "pitch": 54, "duration": 1, "velocity": 101}, {"time": 2176, "pitch": 66, "duration": 10, "velocity": 102}, {"time": 2176, "pitch": 61, "duration": 9, "velocity": 97}, {"time": 2177, "pitch": 42, "duration": 12, "velocity": 97}, {"time": 2177, "pitch": 54, "duration": 8, "velocity": 103}], "annotations": [{"time": 43, "annotation": {"number": 64, "value": 127}, "group": "control_change"}, {"time": 89, "annotation": {"number": 64, "value": 0}, "group": "control_change"}, {"time": 90, "annotation": {"number": 64, "value": 127}, "group": "control_change"}, {"time": 91, "annotation": {"number": 64, "value": 0}, "group": "control_change"}, {"time": 91, "annotation": {"number": 64, "value": 127}, "group": "control_change"}, {"time": 139, "annotation": {"number": 64, "value": 0}, "group": "control_change"}, {"time": 141, "annotation": {"number": 64, "value": 127}, "group": "control_change"}, {"time": 174, "annotation": {"number": 64, "value": 0}, "group": "control_change"}, {"time": 175, "annotation": {"number": 64, "value": 127}, "group": "control_change"}, {"time": 182, "annotation": {"number": 64, "value": 0}, "group": "control_change"}, {"time": 184, "annotation": {"number": 64, "value": 127}, "group": "control_change"}, {"time": 231, "annotation": {"number": 64, "value": 0}, "group": "control_change"}, {"time": 280, "annotation": {"number": 64, "value": 127}, "group": "control_change"}, {"time": 328, "annotation": {"number": 64, "value": 0}, "group": "control_change"}, {"time": 330, "annotation": {"number": 64, "value": 127}, "group": "control_change"}, {"time": 351, "annotation": {"number": 64, "value": 0}, "group": "control_change"}, {"time": 354, "annotation": {"number": 64, "value": 127}, "group": "control_change"}, {"time": 377, "annotation": {"number": 64, "value": 0}, "group": "control_change"}, {"time": 379, "annotation": {"number": 64, "value": 127}, "group": "control_change"}, {"time": 425, "annotation": {"number": 64, "value": 0}, "group": "control_change"}, {"time": 425, "annotation": {"number": 64, "value": 127}, "group": "control_change"}, {"time": 448, "annotation": {"number": 64, "value": 0}, "group": "control_change"}, {"time": 451, "annotation": {"number": 64, "value": 127}, "group": "control_change"}, {"time": 471, "annotation": {"number": 64, "value": 0}, "group": "control_change"}, {"time": 474, "annotation": {"number": 64, "value": 127}, "group": "control_change"}, {"time": 521, "annotation": {"number": 64, "value": 0}, "group": "control_change"}, {"time": 523, "annotation": {"number": 64, "value": 127}, "group": "control_change"}, {"time": 544, "annotation": {"number": 64, "value": 0}, "group": "control_change"}, {"time": 548, "annotation": {"number": 64, "value": 127}, "group": "control_change"}, {"time": 570, "annotation": {"number": 64, "value": 0}, "group": "control_change"}, {"time": 573, "annotation": {"number": 64, "value": 127}, "group": "control_change"}, {"time": 617, "annotation": {"number": 64, "value": 0}, "group": "control_change"}, {"time": 621, "annotation": {"number": 64, "value": 127}, "group": "control_change"}, {"time": 641, "annotation": {"number": 64, "value": 0}, "group": "control_change"}, {"time": 642, "annotation": {"number": 64, "value": 127}, "group": "control_change"}, {"time": 663, "annotation": {"number": 64, "value": 0}, "group": "control_change"}, {"time": 672, "annotation": {"number": 64, "value": 127}, "group": "control_change"}, {"time": 688, "annotation": {"number": 64, "value": 0}, "group": "control_change"}, {"time": 690, "annotation": {"number": 64, "value": 127}, "group": "control_change"}, {"time": 713, "annotation": {"number": 64, "value": 0}, "group": "control_change"}, {"time": 716, "annotation": {"number": 64, "value": 127}, "group": "control_change"}, {"time": 760, "annotation": {"number": 64, "value": 0}, "group": "control_change"}, {"time": 761, "annotation": {"number": 64, "value": 127}, "group": "control_change"}, {"time": 786, "annotation": {"number": 64, "value": 0}, "group": "control_change"}, {"time": 787, "annotation": {"number": 64, "value": 127}, "group": "control_change"}, {"time": 809, "annotation": {"number": 64, "value": 0}, "group": "control_change"}, {"time": 811, "annotation": {"number": 64, "value": 127}, "group": "control_change"}, {"time": 857, "annotation": {"number": 64, "value": 0}, "group": "control_change"}, {"time": 858, "annotation": {"number": 64, "value": 127}, "group": "control_change"}, {"time": 904, "annotation": {"number": 64, "value": 0}, "group": "control_change"}, {"time": 906, "annotation": {"number": 64, "value": 127}, "group": "control_change"}, {"time": 928, "annotation": {"number": 64, "value": 0}, "group": "control_change"}, {"time": 930, "annotation": {"number": 64, "value": 127}, "group": "control_change"}, {"time": 953, "annotation": {"number": 64, "value": 0}, "group": "control_change"}, {"time": 953, "annotation": {"number": 64, "value": 127}, "group": "control_change"}, {"time": 977, "annotation": {"number": 64, "value": 0}, "group": "control_change"}, {"time": 979, "annotation": {"number": 64, "value": 127}, "group": "control_change"}, {"time": 1001, "annotation": {"number": 64, "value": 0}, "group": "control_change"}, {"time": 1003, "annotation": {"number": 64, "value": 127}, "group": "control_change"}, {"time": 1049, "annotation": {"number": 64, "value": 0}, "group": "control_change"}, {"time": 1051, "annotation": {"number": 64, "value": 127}, "group": "control_change"}, {"time": 1074, "annotation": {"number": 64, "value": 0}, "group": "control_change"}, {"time": 1076, "annotation": {"number": 64, "value": 127}, "group": "control_change"}, {"time": 1097, "annotation": {"number": 64, "value": 0}, "group": "control_change"}, {"time": 1098, "annotation": {"number": 64, "value": 127}, "group": "control_change"}, {"time": 1145, "annotation": {"number": 64, "value": 0}, "group": "control_change"}, {"time": 1145, "annotation": {"number": 64, "value": 127}, "group": "control_change"}, {"time": 1169, "annotation": {"number": 64, "value": 0}, "group": "control_change"}, {"time": 1193, "annotation": {"number": 64, "value": 127}, "group": "control_change"}, {"time": 1241, "annotation": {"number": 64, "value": 0}, "group": "control_change"}, {"time": 1243, "annotation": {"number": 64, "value": 127}, "group": "control_change"}, {"time": 1336, "annotation": {"number": 64, "value": 0}, "group": "control_change"}, {"time": 1338, "annotation": {"number": 64, "value": 127}, "group": "control_change"}, {"time": 1359, "annotation": {"number": 64, "value": 0}, "group": "control_change"}, {"time": 1361, "annotation": {"number": 64, "value": 127}, "group": "control_change"}, {"time": 1385, "annotation": {"number": 64, "value": 0}, "group": "control_change"}, {"time": 1387, "annotation": {"number": 64, "value": 127}, "group": "control_change"}, {"time": 1432, "annotation": {"number": 64, "value": 0}, "group": "control_change"}, {"time": 1435, "annotation": {"number": 64, "value": 127}, "group": "control_change"}, {"time": 1480, "annotation": {"number": 64, "value": 0}, "group": "control_change"}, {"time": 1482, "annotation": {"number": 64, "value": 127}, "group": "control_change"}, {"time": 1506, "annotation": {"number": 64, "value": 0}, "group": "control_change"}, {"time": 1507, "annotation": {"number": 64, "value": 127}, "group": "control_change"}, {"time": 1528, "annotation": {"number": 64, "value": 0}, "group": "control_change"}, {"time": 1531, "annotation": {"number": 64, "value": 127}, "group": "control_change"}, {"time": 1577, "annotation": {"number": 64, "value": 0}, "group": "control_change"}, {"time": 1578, "annotation": {"number": 64, "value": 127}, "group": "control_change"}, {"time": 1626, "annotation": {"number": 64, "value": 0}, "group": "control_change"}, {"time": 1628, "annotation": {"number": 64, "value": 127}, "group": "control_change"}, {"time": 1672, "annotation": {"number": 64, "value": 127}, "group": "control_change"}, {"time": 1696, "annotation": {"number": 64, "value": 0}, "group": "control_change"}, {"time": 1698, "annotation": {"number": 64, "value": 127}, "group": "control_change"}, {"time": 1721, "annotation": {"number": 64, "value": 0}, "group": "control_change"}, {"time": 1723, "annotation": {"number": 64, "value": 127}, "group": "control_change"}, {"time": 1768, "annotation": {"number": 64, "value": 0}, "group": "control_change"}, {"time": 1770, "annotation": {"number": 64, "value": 127}, "group": "control_change"}, {"time": 1793, "annotation": {"number": 64, "value": 0}, "group": "control_change"}, {"time": 1795, "annotation": {"number": 64, "value": 127}, "group": "control_change"}, {"time": 1817, "annotation": {"number": 64, "value": 0}, "group": "control_change"}, {"time": 1819, "annotation": {"number": 64, "value": 127}, "group": "control_change"}, {"time": 1865, "annotation": {"number": 64, "value": 0}, "group": "control_change"}, {"time": 1867, "annotation": {"number": 64, "value": 127}, "group": "control_change"}, {"time": 1890, "annotation": {"number": 64, "value": 0}, "group": "control_change"}, {"time": 1913, "annotation": {"number": 64, "value": 127}, "group": "control_change"}, {"time": 1961, "annotation": {"number": 64, "value": 0}, "group": "control_change"}, {"time": 1964, "annotation": {"number": 64, "value": 127}, "group": "control_change"}, {"time": 1988, "annotation": {"number": 64, "value": 0}, "group": "control_change"}, {"time": 1996, "annotation": {"number": 64, "value": 127}, "group": "control_change"}, {"time": 2034, "annotation": {"number": 64, "value": 0}, "group": "control_change"}, {"time": 2035, "annotation": {"number": 64, "value": 127}, "group": "control_change"}, {"time": 2081, "annotation": {"number": 64, "value": 0}, "group": "control_change"}, {"time": 2084, "annotation": {"number": 64, "value": 127}, "group": "control_change"}, {"time": 2145, "annotation": {"number": 64, "value": 0}, "group": "control_change"}, {"time": 2148, "annotation": {"number": 64, "value": 127}, "group": "control_change"}, {"time": 2180, "annotation": {"number": 64, "value": 0}, "group": "control_change"}]}]}