{"metadata": {"schema_version": "0.2", "title": "None", "source_filename": "242.mid", "source_format": "midi"}, "resolution": 12, "tempos": [{"time": 0, "qpm": 60.99997255001235}, {"time": 22, "qpm": 64.99999458333379}, {"time": 34, "qpm": 70.00007000007}, {"time": 58, "qpm": 52.000006933334255}, {"time": 70, "qpm": 59.00006686674245}, {"time": 106, "qpm": 60.99997255001235}, {"time": 118, "qpm": 68.0000725334107}, {"time": 124, "qpm": 69.00009660013524}, {"time": 130, "qpm": 65.99999340000066}, {"time": 142, "qpm": 64.99999458333379}, {"time": 154, "qpm": 58.00004253336452}, {"time": 166, "qpm": 60.99997255001235}, {"time": 250, "qpm": 65.99999340000066}, {"time": 262, "qpm": 61.99999586666694}, {"time": 394, "qpm": 60.0}, {"time": 418, "qpm": 60.99997255001235}, {"time": 478, "qpm": 72.00011520018433}, {"time": 490, "qpm": 60.0}, {"time": 502, "qpm": 61.99999586666694}, {"time": 526, "qpm": 64.0}, {"time": 562, "qpm": 60.0}, {"time": 586, "qpm": 65.99999340000066}, {"time": 598, "qpm": 59.00006686674245}, {"time": 610, "qpm": 65.99999340000066}, {"time": 646, "qpm": 57.000031350017245}, {"time": 670, "qpm": 62.99999685000016}, {"time": 694, "qpm": 61.99999586666694}, {"time": 1834, "qpm": 57.000031350017245}, {"time": 1846, "qpm": 61.99999586666694}, {"time": 1930, "qpm": 62.99999685000016}, {"time": 1942, "qpm": 61.99999586666694}, {"time": 1966, "qpm": 64.99999458333379}, {"time": 1978, "qpm": 61.99999586666694}, {"time": 1990, "qpm": 67.00002903334591}, {"time": 2002, "qpm": 61.99999586666694}, {"time": 2050, "qpm": 62.99999685000016}, {"time": 2122, "qpm": 61.99999586666694}, {"time": 2134, "qpm": 60.99997255001235}, {"time": 2146, "qpm": 61.99999586666694}, {"time": 2242, "qpm": 64.99999458333379}, {"time": 2254, "qpm": 62.99999685000016}, {"time": 2290, "qpm": 60.99997255001235}, {"time": 2302, "qpm": 61.99999586666694}, {"time": 2338, "qpm": 64.0}, {"time": 2362, "qpm": 62.99999685000016}, {"time": 2386, "qpm": 64.99999458333379}, {"time": 2398, "qpm": 61.99999586666694}, {"time": 2410, "qpm": 60.99997255001235}, {"time": 2422, "qpm": 65.99999340000066}, {"time": 2434, "qpm": 62.99999685000016}, {"time": 2458, "qpm": 61.99999586666694}, {"time": 2506, "qpm": 64.99999458333379}, {"time": 2518, "qpm": 62.99999685000016}, {"time": 2578, "qpm": 70.00007000007}, {"time": 2590, "qpm": 60.99997255001235}, {"time": 2596, "qpm": 64.99999458333379}, {"time": 2602, "qpm": 61.99999586666694}, {"time": 2614, "qpm": 62.99999685000016}, {"time": 2638, "qpm": 64.0}, {"time": 2662, "qpm": 61.99999586666694}, {"time": 2686, "qpm": 64.0}, {"time": 2770, "qpm": 65.99999340000066}, {"time": 2782, "qpm": 64.99999458333379}, {"time": 2806, "qpm": 62.99999685000016}, {"time": 2842, "qpm": 64.0}, {"time": 2926, "qpm": 64.99999458333379}, {"time": 2998, "qpm": 62.99999685000016}, {"time": 3022, "qpm": 64.99999458333379}, {"time": 3034, "qpm": 64.0}, {"time": 3082, "qpm": 69.00009660013524}, {"time": 3094, "qpm": 60.0}, {"time": 3130, "qpm": 42.00001260000378}, {"time": 3142, "qpm": 53.000022083342536}, {"time": 3154, "qpm": 48.0}, {"time": 3166, "qpm": 64.99999458333379}, {"time": 3190, "qpm": 64.0}, {"time": 3238, "qpm": 61.99999586666694}, {"time": 3262, "qpm": 67.00002903334591}, {"time": 3286, "qpm": 60.99997255001235}, {"time": 3322, "qpm": 62.99999685000016}, {"time": 3334, "qpm": 55.99997760000896}, {"time": 3346, "qpm": 40.0}], "time_signatures": [{"time": 0, "numerator": 4, "denominator": 4}], "tracks": [{"program": 4, "is_drum": false, "name": "MELODY", "notes": [{"time": 304, "pitch": 64, "duration": 3, "velocity": 84}, {"time": 307, "pitch": 66, "duration": 3, "velocity": 94}, {"time": 310, "pitch": 66, "duration": 3, "velocity": 84}, {"time": 313, "pitch": 68, "duration": 6, "velocity": 65}, {"time": 319, "pitch": 68, "duration": 9, "velocity": 76}, {"time": 328, "pitch": 64, "duration": 6, "velocity": 65}, {"time": 334, "pitch": 69, "duration": 12, "velocity": 102}, {"time": 346, "pitch": 68, "duration": 6, "velocity": 72}, {"time": 351, "pitch": 66, "duration": 2, "velocity": 86}, {"time": 355, "pitch": 64, "duration": 3, "velocity": 60}, {"time": 358, "pitch": 66, "duration": 3, "velocity": 84}, {"time": 363, "pitch": 68, "duration": 5, "velocity": 70}, {"time": 367, "pitch": 68, "duration": 1, "velocity": 68}, {"time": 400, "pitch": 64, "duration": 3, "velocity": 54}, {"time": 403, "pitch": 66, "duration": 3, "velocity": 82}, {"time": 406, "pitch": 66, "duration": 3, "velocity": 68}, {"time": 409, "pitch": 68, "duration": 6, "velocity": 66}, {"time": 415, "pitch": 68, "duration": 9, "velocity": 63}, {"time": 424, "pitch": 64, "duration": 6, "velocity": 42}, {"time": 430, "pitch": 69, "duration": 12, "velocity": 50}, {"time": 442, "pitch": 68, "duration": 6, "velocity": 78}, {"time": 447, "pitch": 66, "duration": 2, "velocity": 94}, {"time": 451, "pitch": 64, "duration": 3, "velocity": 57}, {"time": 454, "pitch": 75, "duration": 6, "velocity": 85}, {"time": 458, "pitch": 73, "duration": 6, "velocity": 68}, {"time": 466, "pitch": 71, "duration": 24, "velocity": 68}, {"time": 490, "pitch": 71, "duration": 6, "velocity": 70}, {"time": 494, "pitch": 69, "duration": 3, "velocity": 84}, {"time": 499, "pitch": 68, "duration": 3, "velocity": 72}, {"time": 502, "pitch": 69, "duration": 6, "velocity": 74}, {"time": 508, "pitch": 61, "duration": 3, "velocity": 60}, {"time": 511, "pitch": 69, "duration": 24, "velocity": 59}, {"time": 535, "pitch": 69, "duration": 6, "velocity": 76}, {"time": 541, "pitch": 69, "duration": 3, "velocity": 65}, {"time": 544, "pitch": 68, "duration": 3, "velocity": 76}, {"time": 547, "pitch": 66, "duration": 3, "velocity": 65}, {"time": 550, "pitch": 68, "duration": 33, "velocity": 65}, {"time": 583, "pitch": 59, "duration": 3, "velocity": 54}, {"time": 586, "pitch": 68, "duration": 6, "velocity": 68}, {"time": 591, "pitch": 66, "duration": 2, "velocity": 71}, {"time": 595, "pitch": 64, "duration": 3, "velocity": 69}, {"time": 598, "pitch": 66, "duration": 12, "velocity": 73}, {"time": 610, "pitch": 68, "duration": 3, "velocity": 82}, {"time": 614, "pitch": 66, "duration": 6, "velocity": 77}, {"time": 619, "pitch": 64, "duration": 3, "velocity": 59}, {"time": 622, "pitch": 66, "duration": 12, "velocity": 90}, {"time": 634, "pitch": 66, "duration": 6, "velocity": 77}, {"time": 640, "pitch": 64, "duration": 6, "velocity": 62}, {"time": 646, "pitch": 71, "duration": 6, "velocity": 82}, {"time": 652, "pitch": 66, "duration": 36, "velocity": 68}, {"time": 688, "pitch": 64, "duration": 3, "velocity": 63}, {"time": 691, "pitch": 66, "duration": 3, "velocity": 84}, {"time": 694, "pitch": 66, "duration": 3, "velocity": 72}, {"time": 697, "pitch": 68, "duration": 6, "velocity": 77}, {"time": 703, "pitch": 68, "duration": 9, "velocity": 74}, {"time": 712, "pitch": 64, "duration": 3, "velocity": 51}, {"time": 715, "pitch": 69, "duration": 15, "velocity": 85}, {"time": 730, "pitch": 68, "duration": 3, "velocity": 68}, {"time": 735, "pitch": 66, "duration": 5, "velocity": 79}, {"time": 739, "pitch": 64, "duration": 3, "velocity": 62}, {"time": 742, "pitch": 66, "duration": 6, "velocity": 86}, {"time": 748, "pitch": 68, "duration": 3, "velocity": 81}, {"time": 751, "pitch": 68, "duration": 33, "velocity": 72}, {"time": 784, "pitch": 64, "duration": 3, "velocity": 94}, {"time": 787, "pitch": 66, "duration": 3, "velocity": 82}, {"time": 790, "pitch": 66, "duration": 3, "velocity": 85}, {"time": 793, "pitch": 68, "duration": 6, "velocity": 72}, {"time": 799, "pitch": 68, "duration": 9, "velocity": 74}, {"time": 808, "pitch": 64, "duration": 3, "velocity": 68}, {"time": 811, "pitch": 69, "duration": 15, "velocity": 102}, {"time": 826, "pitch": 68, "duration": 3, "velocity": 84}, {"time": 831, "pitch": 66, "duration": 6, "velocity": 99}, {"time": 835, "pitch": 64, "duration": 3, "velocity": 76}, {"time": 838, "pitch": 75, "duration": 9, "velocity": 90}, {"time": 847, "pitch": 71, "duration": 9, "velocity": 82}, {"time": 856, "pitch": 68, "duration": 3, "velocity": 81}, {"time": 859, "pitch": 71, "duration": 15, "velocity": 76}, {"time": 874, "pitch": 71, "duration": 6, "velocity": 94}, {"time": 878, "pitch": 69, "duration": 3, "velocity": 84}, {"time": 883, "pitch": 68, "duration": 3, "velocity": 72}, {"time": 886, "pitch": 69, "duration": 6, "velocity": 105}, {"time": 892, "pitch": 61, "duration": 3, "velocity": 57}, {"time": 895, "pitch": 69, "duration": 27, "velocity": 90}, {"time": 922, "pitch": 69, "duration": 3, "velocity": 77}, {"time": 926, "pitch": 68, "duration": 6, "velocity": 68}, {"time": 931, "pitch": 66, "duration": 3, "velocity": 72}, {"time": 934, "pitch": 68, "duration": 6, "velocity": 65}, {"time": 940, "pitch": 71, "duration": 6, "velocity": 85}, {"time": 946, "pitch": 66, "duration": 6, "velocity": 77}, {"time": 952, "pitch": 68, "duration": 6, "velocity": 88}, {"time": 958, "pitch": 64, "duration": 12, "velocity": 63}, {"time": 970, "pitch": 64, "duration": 3, "velocity": 88}, {"time": 975, "pitch": 66, "duration": 5, "velocity": 86}, {"time": 979, "pitch": 68, "duration": 3, "velocity": 77}, {"time": 982, "pitch": 68, "duration": 3, "velocity": 84}, {"time": 985, "pitch": 69, "duration": 9, "velocity": 74}, {"time": 994, "pitch": 69, "duration": 6, "velocity": 74}, {"time": 1000, "pitch": 68, "duration": 3, "velocity": 65}, {"time": 1003, "pitch": 66, "duration": 15, "velocity": 96}, {"time": 1018, "pitch": 68, "duration": 3, "velocity": 88}, {"time": 1023, "pitch": 66, "duration": 5, "velocity": 72}, {"time": 1027, "pitch": 68, "duration": 3, "velocity": 76}, {"time": 1030, "pitch": 66, "duration": 6, "velocity": 76}, {"time": 1036, "pitch": 64, "duration": 42, "velocity": 65}, {"time": 1078, "pitch": 71, "duration": 33, "velocity": 103}, {"time": 1111, "pitch": 71, "duration": 3, "velocity": 85}, {"time": 1114, "pitch": 78, "duration": 3, "velocity": 96}, {"time": 1119, "pitch": 76, "duration": 6, "velocity": 85}, {"time": 1123, "pitch": 75, "duration": 3, "velocity": 82}, {"time": 1126, "pitch": 76, "duration": 36, "velocity": 92}, {"time": 1162, "pitch": 68, "duration": 3, "velocity": 86}, {"time": 1167, "pitch": 69, "duration": 5, "velocity": 90}, {"time": 1171, "pitch": 71, "duration": 3, "velocity": 90}, {"time": 1174, "pitch": 73, "duration": 6, "velocity": 82}, {"time": 1180, "pitch": 73, "duration": 3, "velocity": 78}, {"time": 1183, "pitch": 73, "duration": 3, "velocity": 76}, {"time": 1186, "pitch": 73, "duration": 3, "velocity": 76}, {"time": 1191, "pitch": 71, "duration": 6, "velocity": 69}, {"time": 1195, "pitch": 73, "duration": 12, "velocity": 78}, {"time": 1207, "pitch": 73, "duration": 3, "velocity": 77}, {"time": 1210, "pitch": 73, "duration": 3, "velocity": 79}, {"time": 1215, "pitch": 75, "duration": 5, "velocity": 86}, {"time": 1219, "pitch": 76, "duration": 3, "velocity": 76}, {"time": 1222, "pitch": 78, "duration": 54, "velocity": 90}, {"time": 1276, "pitch": 75, "duration": 3, "velocity": 88}, {"time": 1279, "pitch": 75, "duration": 3, "velocity": 84}, {"time": 1282, "pitch": 75, "duration": 6, "velocity": 90}, {"time": 1288, "pitch": 68, "duration": 3, "velocity": 76}, {"time": 1291, "pitch": 71, "duration": 15, "velocity": 72}, {"time": 1306, "pitch": 71, "duration": 6, "velocity": 88}, {"time": 1312, "pitch": 68, "duration": 6, "velocity": 84}, {"time": 1318, "pitch": 75, "duration": 3, "velocity": 94}, {"time": 1323, "pitch": 76, "duration": 5, "velocity": 85}, {"time": 1327, "pitch": 75, "duration": 3, "velocity": 70}, {"time": 1330, "pitch": 76, "duration": 24, "velocity": 99}, {"time": 1354, "pitch": 76, "duration": 3, "velocity": 103}, {"time": 1359, "pitch": 78, "duration": 5, "velocity": 84}, {"time": 1363, "pitch": 80, "duration": 3, "velocity": 96}, {"time": 1366, "pitch": 73, "duration": 12, "velocity": 88}, {"time": 1378, "pitch": 76, "duration": 3, "velocity": 117}, {"time": 1382, "pitch": 78, "duration": 3, "velocity": 91}, {"time": 1387, "pitch": 80, "duration": 5, "velocity": 76}, {"time": 1390, "pitch": 73, "duration": 9, "velocity": 86}, {"time": 1399, "pitch": 73, "duration": 3, "velocity": 96}, {"time": 1402, "pitch": 80, "duration": 6, "velocity": 97}, {"time": 1408, "pitch": 78, "duration": 3, "velocity": 84}, {"time": 1411, "pitch": 76, "duration": 3, "velocity": 90}, {"time": 1414, "pitch": 78, "duration": 48, "velocity": 97}, {"time": 1462, "pitch": 71, "duration": 33, "velocity": 103}, {"time": 1495, "pitch": 71, "duration": 3, "velocity": 85}, {"time": 1499, "pitch": 78, "duration": 2, "velocity": 96}, {"time": 1502, "pitch": 76, "duration": 6, "velocity": 85}, {"time": 1507, "pitch": 75, "duration": 3, "velocity": 82}, {"time": 1510, "pitch": 76, "duration": 36, "velocity": 92}, {"time": 1546, "pitch": 68, "duration": 3, "velocity": 86}, {"time": 1550, "pitch": 69, "duration": 6, "velocity": 90}, {"time": 1555, "pitch": 71, "duration": 3, "velocity": 90}, {"time": 1558, "pitch": 73, "duration": 6, "velocity": 82}, {"time": 1564, "pitch": 73, "duration": 3, "velocity": 78}, {"time": 1567, "pitch": 73, "duration": 3, "velocity": 76}, {"time": 1570, "pitch": 73, "duration": 3, "velocity": 76}, {"time": 1574, "pitch": 71, "duration": 6, "velocity": 69}, {"time": 1579, "pitch": 73, "duration": 12, "velocity": 78}, {"time": 1591, "pitch": 73, "duration": 3, "velocity": 77}, {"time": 1594, "pitch": 73, "duration": 3, "velocity": 79}, {"time": 1598, "pitch": 75, "duration": 6, "velocity": 86}, {"time": 1603, "pitch": 76, "duration": 3, "velocity": 76}, {"time": 1606, "pitch": 78, "duration": 54, "velocity": 90}, {"time": 1660, "pitch": 75, "duration": 3, "velocity": 88}, {"time": 1663, "pitch": 75, "duration": 3, "velocity": 84}, {"time": 1666, "pitch": 75, "duration": 6, "velocity": 90}, {"time": 1672, "pitch": 68, "duration": 3, "velocity": 76}, {"time": 1675, "pitch": 71, "duration": 15, "velocity": 72}, {"time": 1690, "pitch": 71, "duration": 6, "velocity": 88}, {"time": 1696, "pitch": 68, "duration": 6, "velocity": 84}, {"time": 1702, "pitch": 75, "duration": 3, "velocity": 94}, {"time": 1705, "pitch": 76, "duration": 6, "velocity": 85}, {"time": 1711, "pitch": 75, "duration": 3, "velocity": 70}, {"time": 1714, "pitch": 76, "duration": 24, "velocity": 99}, {"time": 1738, "pitch": 76, "duration": 3, "velocity": 103}, {"time": 1741, "pitch": 78, "duration": 6, "velocity": 84}, {"time": 1747, "pitch": 80, "duration": 3, "velocity": 96}, {"time": 1750, "pitch": 73, "duration": 6, "velocity": 88}, {"time": 1756, "pitch": 73, "duration": 3, "velocity": 63}, {"time": 1759, "pitch": 71, "duration": 3, "velocity": 79}, {"time": 1762, "pitch": 73, "duration": 3, "velocity": 84}, {"time": 1765, "pitch": 75, "duration": 6, "velocity": 96}, {"time": 1771, "pitch": 76, "duration": 12, "velocity": 90}, {"time": 1783, "pitch": 71, "duration": 3, "velocity": 84}, {"time": 1786, "pitch": 81, "duration": 3, "velocity": 72}, {"time": 1791, "pitch": 80, "duration": 5, "velocity": 91}, {"time": 1795, "pitch": 76, "duration": 3, "velocity": 77}, {"time": 1798, "pitch": 78, "duration": 9, "velocity": 85}, {"time": 1807, "pitch": 76, "duration": 36, "velocity": 78}, {"time": 2032, "pitch": 64, "duration": 3, "velocity": 63}, {"time": 2035, "pitch": 66, "duration": 3, "velocity": 84}, {"time": 2038, "pitch": 66, "duration": 3, "velocity": 72}, {"time": 2041, "pitch": 68, "duration": 6, "velocity": 77}, {"time": 2047, "pitch": 68, "duration": 9, "velocity": 74}, {"time": 2056, "pitch": 64, "duration": 3, "velocity": 51}, {"time": 2059, "pitch": 69, "duration": 15, "velocity": 85}, {"time": 2074, "pitch": 68, "duration": 3, "velocity": 68}, {"time": 2079, "pitch": 66, "duration": 5, "velocity": 79}, {"time": 2083, "pitch": 64, "duration": 3, "velocity": 62}, {"time": 2086, "pitch": 66, "duration": 6, "velocity": 86}, {"time": 2092, "pitch": 68, "duration": 3, "velocity": 81}, {"time": 2095, "pitch": 68, "duration": 33, "velocity": 72}, {"time": 2128, "pitch": 64, "duration": 3, "velocity": 94}, {"time": 2131, "pitch": 66, "duration": 3, "velocity": 82}, {"time": 2134, "pitch": 66, "duration": 3, "velocity": 85}, {"time": 2137, "pitch": 68, "duration": 6, "velocity": 72}, {"time": 2143, "pitch": 68, "duration": 9, "velocity": 74}, {"time": 2152, "pitch": 64, "duration": 3, "velocity": 68}, {"time": 2155, "pitch": 69, "duration": 15, "velocity": 102}, {"time": 2170, "pitch": 68, "duration": 3, "velocity": 84}, {"time": 2175, "pitch": 66, "duration": 6, "velocity": 99}, {"time": 2179, "pitch": 64, "duration": 3, "velocity": 76}, {"time": 2182, "pitch": 75, "duration": 9, "velocity": 90}, {"time": 2191, "pitch": 71, "duration": 9, "velocity": 82}, {"time": 2200, "pitch": 68, "duration": 3, "velocity": 81}, {"time": 2203, "pitch": 71, "duration": 15, "velocity": 76}, {"time": 2218, "pitch": 71, "duration": 6, "velocity": 94}, {"time": 2222, "pitch": 69, "duration": 3, "velocity": 84}, {"time": 2227, "pitch": 68, "duration": 3, "velocity": 72}, {"time": 2230, "pitch": 69, "duration": 6, "velocity": 105}, {"time": 2236, "pitch": 61, "duration": 3, "velocity": 57}, {"time": 2239, "pitch": 69, "duration": 27, "velocity": 90}, {"time": 2266, "pitch": 69, "duration": 3, "velocity": 77}, {"time": 2270, "pitch": 68, "duration": 6, "velocity": 68}, {"time": 2275, "pitch": 66, "duration": 3, "velocity": 72}, {"time": 2278, "pitch": 68, "duration": 6, "velocity": 65}, {"time": 2284, "pitch": 71, "duration": 6, "velocity": 85}, {"time": 2290, "pitch": 66, "duration": 6, "velocity": 77}, {"time": 2296, "pitch": 68, "duration": 6, "velocity": 88}, {"time": 2302, "pitch": 64, "duration": 12, "velocity": 63}, {"time": 2314, "pitch": 64, "duration": 3, "velocity": 88}, {"time": 2319, "pitch": 66, "duration": 5, "velocity": 86}, {"time": 2323, "pitch": 68, "duration": 3, "velocity": 77}, {"time": 2326, "pitch": 68, "duration": 3, "velocity": 84}, {"time": 2329, "pitch": 69, "duration": 9, "velocity": 74}, {"time": 2338, "pitch": 69, "duration": 6, "velocity": 74}, {"time": 2344, "pitch": 68, "duration": 3, "velocity": 65}, {"time": 2347, "pitch": 66, "duration": 15, "velocity": 96}, {"time": 2362, "pitch": 68, "duration": 3, "velocity": 88}, {"time": 2367, "pitch": 66, "duration": 5, "velocity": 72}, {"time": 2371, "pitch": 68, "duration": 3, "velocity": 76}, {"time": 2374, "pitch": 66, "duration": 6, "velocity": 76}, {"time": 2380, "pitch": 64, "duration": 42, "velocity": 65}, {"time": 2422, "pitch": 71, "duration": 33, "velocity": 103}, {"time": 2455, "pitch": 71, "duration": 3, "velocity": 85}, {"time": 2458, "pitch": 78, "duration": 3, "velocity": 96}, {"time": 2463, "pitch": 76, "duration": 6, "velocity": 85}, {"time": 2467, "pitch": 75, "duration": 3, "velocity": 82}, {"time": 2470, "pitch": 76, "duration": 36, "velocity": 92}, {"time": 2506, "pitch": 68, "duration": 3, "velocity": 86}, {"time": 2511, "pitch": 69, "duration": 5, "velocity": 90}, {"time": 2515, "pitch": 71, "duration": 3, "velocity": 90}, {"time": 2518, "pitch": 73, "duration": 6, "velocity": 82}, {"time": 2524, "pitch": 73, "duration": 3, "velocity": 78}, {"time": 2527, "pitch": 73, "duration": 3, "velocity": 76}, {"time": 2530, "pitch": 73, "duration": 3, "velocity": 76}, {"time": 2535, "pitch": 71, "duration": 6, "velocity": 69}, {"time": 2539, "pitch": 73, "duration": 12, "velocity": 78}, {"time": 2551, "pitch": 73, "duration": 3, "velocity": 77}, {"time": 2554, "pitch": 73, "duration": 3, "velocity": 79}, {"time": 2559, "pitch": 75, "duration": 5, "velocity": 86}, {"time": 2563, "pitch": 76, "duration": 3, "velocity": 76}, {"time": 2566, "pitch": 78, "duration": 54, "velocity": 90}, {"time": 2620, "pitch": 75, "duration": 3, "velocity": 88}, {"time": 2623, "pitch": 75, "duration": 3, "velocity": 84}, {"time": 2626, "pitch": 75, "duration": 6, "velocity": 90}, {"time": 2632, "pitch": 68, "duration": 3, "velocity": 76}, {"time": 2635, "pitch": 71, "duration": 15, "velocity": 72}, {"time": 2650, "pitch": 71, "duration": 6, "velocity": 88}, {"time": 2656, "pitch": 68, "duration": 6, "velocity": 84}, {"time": 2667, "pitch": 76, "duration": 5, "velocity": 85}, {"time": 2671, "pitch": 75, "duration": 3, "velocity": 70}, {"time": 2674, "pitch": 76, "duration": 24, "velocity": 99}, {"time": 2698, "pitch": 76, "duration": 3, "velocity": 103}, {"time": 2703, "pitch": 78, "duration": 5, "velocity": 84}, {"time": 2707, "pitch": 80, "duration": 3, "velocity": 96}, {"time": 2710, "pitch": 73, "duration": 12, "velocity": 88}, {"time": 2722, "pitch": 76, "duration": 3, "velocity": 90}, {"time": 2726, "pitch": 78, "duration": 3, "velocity": 91}, {"time": 2731, "pitch": 80, "duration": 5, "velocity": 76}, {"time": 2734, "pitch": 73, "duration": 9, "velocity": 86}, {"time": 2743, "pitch": 73, "duration": 3, "velocity": 96}, {"time": 2746, "pitch": 80, "duration": 6, "velocity": 97}, {"time": 2752, "pitch": 78, "duration": 3, "velocity": 84}, {"time": 2755, "pitch": 76, "duration": 3, "velocity": 90}, {"time": 2758, "pitch": 78, "duration": 48, "velocity": 97}, {"time": 2806, "pitch": 71, "duration": 33, "velocity": 103}, {"time": 2839, "pitch": 71, "duration": 3, "velocity": 85}, {"time": 2842, "pitch": 78, "duration": 3, "velocity": 96}, {"time": 2846, "pitch": 76, "duration": 6, "velocity": 85}, {"time": 2851, "pitch": 75, "duration": 3, "velocity": 82}, {"time": 2854, "pitch": 76, "duration": 36, "velocity": 92}, {"time": 2890, "pitch": 68, "duration": 3, "velocity": 86}, {"time": 2894, "pitch": 69, "duration": 6, "velocity": 90}, {"time": 2899, "pitch": 71, "duration": 3, "velocity": 90}, {"time": 2902, "pitch": 73, "duration": 6, "velocity": 82}, {"time": 2908, "pitch": 73, "duration": 3, "velocity": 78}, {"time": 2911, "pitch": 73, "duration": 3, "velocity": 76}, {"time": 2914, "pitch": 73, "duration": 3, "velocity": 76}, {"time": 2918, "pitch": 71, "duration": 6, "velocity": 69}, {"time": 2923, "pitch": 73, "duration": 12, "velocity": 78}, {"time": 2935, "pitch": 73, "duration": 3, "velocity": 77}, {"time": 2938, "pitch": 73, "duration": 3, "velocity": 79}, {"time": 2942, "pitch": 75, "duration": 6, "velocity": 86}, {"time": 2947, "pitch": 76, "duration": 3, "velocity": 76}, {"time": 2950, "pitch": 78, "duration": 54, "velocity": 90}, {"time": 3004, "pitch": 75, "duration": 3, "velocity": 88}, {"time": 3007, "pitch": 75, "duration": 3, "velocity": 84}, {"time": 3010, "pitch": 75, "duration": 6, "velocity": 90}, {"time": 3016, "pitch": 68, "duration": 3, "velocity": 76}, {"time": 3019, "pitch": 71, "duration": 15, "velocity": 72}, {"time": 3034, "pitch": 71, "duration": 6, "velocity": 88}, {"time": 3040, "pitch": 68, "duration": 6, "velocity": 84}, {"time": 3046, "pitch": 75, "duration": 3, "velocity": 94}, {"time": 3049, "pitch": 76, "duration": 6, "velocity": 85}, {"time": 3055, "pitch": 75, "duration": 3, "velocity": 70}, {"time": 3058, "pitch": 76, "duration": 24, "velocity": 99}, {"time": 3082, "pitch": 76, "duration": 3, "velocity": 103}, {"time": 3085, "pitch": 78, "duration": 6, "velocity": 84}, {"time": 3091, "pitch": 80, "duration": 3, "velocity": 96}, {"time": 3094, "pitch": 73, "duration": 3, "velocity": 88}, {"time": 3097, "pitch": 73, "duration": 3, "velocity": 100}, {"time": 3101, "pitch": 71, "duration": 3, "velocity": 79}, {"time": 3106, "pitch": 73, "duration": 3, "velocity": 84}, {"time": 3110, "pitch": 75, "duration": 6, "velocity": 96}, {"time": 3115, "pitch": 76, "duration": 8, "velocity": 90}, {"time": 3124, "pitch": 73, "duration": 2, "velocity": 100}, {"time": 3126, "pitch": 71, "duration": 10, "velocity": 100}, {"time": 3139, "pitch": 71, "duration": 3, "velocity": 84}, {"time": 3142, "pitch": 81, "duration": 3, "velocity": 72}, {"time": 3145, "pitch": 80, "duration": 6, "velocity": 91}, {"time": 3151, "pitch": 76, "duration": 3, "velocity": 77}, {"time": 3154, "pitch": 78, "duration": 12, "velocity": 85}, {"time": 3166, "pitch": 76, "duration": 36, "velocity": 78}]}, {"program": 0, "is_drum": false, "name": "PIANO", "notes": [{"time": 22, "pitch": 43, "duration": 11, "velocity": 65}, {"time": 28, "pitch": 50, "duration": 5, "velocity": 70}, {"time": 34, "pitch": 55, "duration": 7, "velocity": 84}, {"time": 40, "pitch": 57, "duration": 13, "velocity": 72}, {"time": 46, "pitch": 59, "duration": 15, "velocity": 74}, {"time": 58, "pitch": 62, "duration": 2, "velocity": 65}, {"time": 70, "pitch": 47, "duration": 7, "velocity": 68}, {"time": 76, "pitch": 50, "duration": 7, "velocity": 79}, {"time": 82, "pitch": 57, "duration": 14, "velocity": 65}, {"time": 94, "pitch": 56, "duration": 24, "velocity": 51}, {"time": 118, "pitch": 45, "duration": 11, "velocity": 60}, {"time": 124, "pitch": 52, "duration": 6, "velocity": 74}, {"time": 124, "pitch": 64, "duration": 4, "velocity": 60}, {"time": 130, "pitch": 57, "duration": 6, "velocity": 65}, {"time": 130, "pitch": 64, "duration": 4, "velocity": 66}, {"time": 136, "pitch": 59, "duration": 1, "velocity": 74}, {"time": 136, "pitch": 62, "duration": 5, "velocity": 68}, {"time": 142, "pitch": 43, "duration": 12, "velocity": 88}, {"time": 142, "pitch": 62, "duration": 4, "velocity": 63}, {"time": 148, "pitch": 50, "duration": 5, "velocity": 65}, {"time": 148, "pitch": 60, "duration": 7, "velocity": 54}, {"time": 154, "pitch": 55, "duration": 6, "velocity": 65}, {"time": 157, "pitch": 60, "duration": 3, "velocity": 60}, {"time": 160, "pitch": 59, "duration": 1, "velocity": 79}, {"time": 163, "pitch": 60, "duration": 1, "velocity": 51}, {"time": 166, "pitch": 42, "duration": 12, "velocity": 54}, {"time": 166, "pitch": 62, "duration": 22, "velocity": 48}, {"time": 172, "pitch": 50, "duration": 5, "velocity": 81}, {"time": 178, "pitch": 54, "duration": 1, "velocity": 51}, {"time": 184, "pitch": 57, "duration": 1, "velocity": 72}, {"time": 190, "pitch": 47, "duration": 19, "velocity": 50}, {"time": 190, "pitch": 54, "duration": 13, "velocity": 47}, {"time": 190, "pitch": 59, "duration": 6, "velocity": 42}, {"time": 190, "pitch": 59, "duration": 6, "velocity": 60}, {"time": 190, "pitch": 59, "duration": 6, "velocity": 76}, {"time": 190, "pitch": 63, "duration": 6, "velocity": 53}, {"time": 202, "pitch": 59, "duration": 2, "velocity": 38}, {"time": 202, "pitch": 64, "duration": 6, "velocity": 48}, {"time": 214, "pitch": 40, "duration": 8, "velocity": 63}, {"time": 214, "pitch": 59, "duration": 14, "velocity": 45}, {"time": 214, "pitch": 64, "duration": 10, "velocity": 69}, {"time": 214, "pitch": 68, "duration": 17, "velocity": 69}, {"time": 220, "pitch": 47, "duration": 5, "velocity": 54}, {"time": 226, "pitch": 52, "duration": 7, "velocity": 34}, {"time": 232, "pitch": 54, "duration": 8, "velocity": 60}, {"time": 238, "pitch": 56, "duration": 12, "velocity": 45}, {"time": 238, "pitch": 59, "duration": 10, "velocity": 26}, {"time": 238, "pitch": 68, "duration": 12, "velocity": 50}, {"time": 253, "pitch": 59, "duration": 4, "velocity": 50}, {"time": 256, "pitch": 64, "duration": 3, "velocity": 79}, {"time": 259, "pitch": 68, "duration": 3, "velocity": 69}, {"time": 262, "pitch": 40, "duration": 5, "velocity": 56}, {"time": 262, "pitch": 60, "duration": 9, "velocity": 39}, {"time": 262, "pitch": 64, "duration": 9, "velocity": 39}, {"time": 262, "pitch": 69, "duration": 5, "velocity": 60}, {"time": 268, "pitch": 52, "duration": 6, "velocity": 53}, {"time": 274, "pitch": 57, "duration": 27, "velocity": 39}, {"time": 280, "pitch": 64, "duration": 7, "velocity": 59}, {"time": 280, "pitch": 69, "duration": 8, "velocity": 37}, {"time": 286, "pitch": 60, "duration": 11, "velocity": 35}, {"time": 292, "pitch": 68, "duration": 6, "velocity": 12}, {"time": 298, "pitch": 64, "duration": 4, "velocity": 81}, {"time": 310, "pitch": 40, "duration": 17, "velocity": 56}, {"time": 310, "pitch": 52, "duration": 17, "velocity": 48}, {"time": 310, "pitch": 56, "duration": 16, "velocity": 45}, {"time": 310, "pitch": 59, "duration": 15, "velocity": 78}, {"time": 310, "pitch": 64, "duration": 16, "velocity": 57}, {"time": 334, "pitch": 40, "duration": 18, "velocity": 30}, {"time": 334, "pitch": 52, "duration": 18, "velocity": 38}, {"time": 334, "pitch": 57, "duration": 17, "velocity": 41}, {"time": 334, "pitch": 60, "duration": 15, "velocity": 44}, {"time": 334, "pitch": 64, "duration": 16, "velocity": 63}, {"time": 358, "pitch": 40, "duration": 19, "velocity": 57}, {"time": 358, "pitch": 56, "duration": 17, "velocity": 33}, {"time": 358, "pitch": 59, "duration": 16, "velocity": 60}, {"time": 358, "pitch": 64, "duration": 17, "velocity": 47}, {"time": 382, "pitch": 40, "duration": 17, "velocity": 23}, {"time": 382, "pitch": 52, "duration": 18, "velocity": 35}, {"time": 382, "pitch": 57, "duration": 16, "velocity": 29}, {"time": 382, "pitch": 60, "duration": 15, "velocity": 31}, {"time": 382, "pitch": 64, "duration": 15, "velocity": 50}, {"time": 406, "pitch": 40, "duration": 20, "velocity": 33}, {"time": 406, "pitch": 56, "duration": 7, "velocity": 45}, {"time": 406, "pitch": 59, "duration": 8, "velocity": 65}, {"time": 406, "pitch": 64, "duration": 8, "velocity": 47}, {"time": 421, "pitch": 52, "duration": 5, "velocity": 33}, {"time": 424, "pitch": 59, "duration": 4, "velocity": 45}, {"time": 427, "pitch": 71, "duration": 6, "velocity": 42}, {"time": 430, "pitch": 40, "duration": 17, "velocity": 47}, {"time": 430, "pitch": 61, "duration": 5, "velocity": 45}, {"time": 430, "pitch": 64, "duration": 6, "velocity": 57}, {"time": 430, "pitch": 69, "duration": 6, "velocity": 56}, {"time": 439, "pitch": 52, "duration": 9, "velocity": 31}, {"time": 454, "pitch": 44, "duration": 19, "velocity": 63}, {"time": 454, "pitch": 59, "duration": 7, "velocity": 54}, {"time": 454, "pitch": 63, "duration": 6, "velocity": 68}, {"time": 454, "pitch": 66, "duration": 6, "velocity": 78}, {"time": 469, "pitch": 56, "duration": 5, "velocity": 21}, {"time": 472, "pitch": 68, "duration": 4, "velocity": 54}, {"time": 475, "pitch": 78, "duration": 3, "velocity": 68}, {"time": 478, "pitch": 49, "duration": 18, "velocity": 53}, {"time": 478, "pitch": 68, "duration": 7, "velocity": 39}, {"time": 478, "pitch": 74, "duration": 7, "velocity": 51}, {"time": 490, "pitch": 61, "duration": 3, "velocity": 39}, {"time": 490, "pitch": 68, "duration": 4, "velocity": 38}, {"time": 502, "pitch": 42, "duration": 19, "velocity": 56}, {"time": 502, "pitch": 61, "duration": 5, "velocity": 50}, {"time": 502, "pitch": 64, "duration": 5, "velocity": 60}, {"time": 502, "pitch": 69, "duration": 5, "velocity": 47}, {"time": 511, "pitch": 54, "duration": 8, "velocity": 6}, {"time": 517, "pitch": 57, "duration": 4, "velocity": 42}, {"time": 520, "pitch": 64, "duration": 2, "velocity": 54}, {"time": 526, "pitch": 42, "duration": 18, "velocity": 39}, {"time": 526, "pitch": 54, "duration": 18, "velocity": 39}, {"time": 526, "pitch": 57, "duration": 18, "velocity": 39}, {"time": 526, "pitch": 60, "duration": 16, "velocity": 47}, {"time": 526, "pitch": 64, "duration": 17, "velocity": 63}, {"time": 550, "pitch": 44, "duration": 23, "velocity": 50}, {"time": 550, "pitch": 54, "duration": 13, "velocity": 27}, {"time": 550, "pitch": 59, "duration": 11, "velocity": 53}, {"time": 550, "pitch": 63, "duration": 15, "velocity": 66}, {"time": 568, "pitch": 66, "duration": 3, "velocity": 54}, {"time": 574, "pitch": 49, "duration": 20, "velocity": 35}, {"time": 574, "pitch": 56, "duration": 11, "velocity": 39}, {"time": 574, "pitch": 59, "duration": 11, "velocity": 60}, {"time": 574, "pitch": 64, "duration": 12, "velocity": 38}, {"time": 586, "pitch": 56, "duration": 5, "velocity": 30}, {"time": 592, "pitch": 59, "duration": 5, "velocity": 76}, {"time": 595, "pitch": 64, "duration": 2, "velocity": 45}, {"time": 598, "pitch": 42, "duration": 19, "velocity": 12}, {"time": 598, "pitch": 54, "duration": 17, "velocity": 42}, {"time": 598, "pitch": 57, "duration": 7, "velocity": 45}, {"time": 598, "pitch": 61, "duration": 4, "velocity": 54}, {"time": 598, "pitch": 64, "duration": 6, "velocity": 68}, {"time": 607, "pitch": 57, "duration": 9, "velocity": 39}, {"time": 607, "pitch": 61, "duration": 4, "velocity": 63}, {"time": 607, "pitch": 64, "duration": 6, "velocity": 56}, {"time": 619, "pitch": 44, "duration": 4, "velocity": 41}, {"time": 622, "pitch": 45, "duration": 19, "velocity": 44}, {"time": 622, "pitch": 57, "duration": 9, "velocity": 41}, {"time": 622, "pitch": 61, "duration": 6, "velocity": 63}, {"time": 622, "pitch": 64, "duration": 8, "velocity": 68}, {"time": 634, "pitch": 57, "duration": 7, "velocity": 39}, {"time": 634, "pitch": 61, "duration": 4, "velocity": 74}, {"time": 634, "pitch": 64, "duration": 5, "velocity": 63}, {"time": 646, "pitch": 35, "duration": 1, "velocity": 57}, {"time": 646, "pitch": 54, "duration": 5, "velocity": 50}, {"time": 646, "pitch": 59, "duration": 5, "velocity": 68}, {"time": 646, "pitch": 64, "duration": 9, "velocity": 57}, {"time": 652, "pitch": 47, "duration": 34, "velocity": 31}, {"time": 658, "pitch": 54, "duration": 13, "velocity": 50}, {"time": 664, "pitch": 69, "duration": 2, "velocity": 57}, {"time": 670, "pitch": 59, "duration": 3, "velocity": 19}, {"time": 670, "pitch": 68, "duration": 10, "velocity": 53}, {"time": 682, "pitch": 54, "duration": 5, "velocity": 53}, {"time": 682, "pitch": 59, "duration": 7, "velocity": 42}, {"time": 682, "pitch": 66, "duration": 7, "velocity": 72}, {"time": 688, "pitch": 64, "duration": 2, "velocity": 79}, {"time": 694, "pitch": 40, "duration": 19, "velocity": 47}, {"time": 694, "pitch": 56, "duration": 6, "velocity": 18}, {"time": 694, "pitch": 59, "duration": 5, "velocity": 66}, {"time": 694, "pitch": 64, "duration": 7, "velocity": 50}, {"time": 700, "pitch": 52, "duration": 6, "velocity": 5}, {"time": 706, "pitch": 56, "duration": 6, "velocity": 44}, {"time": 706, "pitch": 59, "duration": 6, "velocity": 65}, {"time": 706, "pitch": 64, "duration": 6, "velocity": 38}, {"time": 712, "pitch": 52, "duration": 4, "velocity": 27}, {"time": 718, "pitch": 40, "duration": 19, "velocity": 35}, {"time": 718, "pitch": 52, "duration": 14, "velocity": 27}, {"time": 718, "pitch": 57, "duration": 9, "velocity": 42}, {"time": 718, "pitch": 64, "duration": 6, "velocity": 68}, {"time": 721, "pitch": 60, "duration": 4, "velocity": 2}, {"time": 730, "pitch": 57, "duration": 6, "velocity": 38}, {"time": 730, "pitch": 60, "duration": 5, "velocity": 47}, {"time": 730, "pitch": 64, "duration": 5, "velocity": 68}, {"time": 736, "pitch": 52, "duration": 3, "velocity": 45}, {"time": 742, "pitch": 52, "duration": 15, "velocity": 56}, {"time": 742, "pitch": 59, "duration": 8, "velocity": 50}, {"time": 742, "pitch": 64, "duration": 8, "velocity": 60}, {"time": 742, "pitch": 68, "duration": 8, "velocity": 54}, {"time": 742, "pitch": 71, "duration": 8, "velocity": 39}, {"time": 754, "pitch": 59, "duration": 6, "velocity": 47}, {"time": 754, "pitch": 64, "duration": 6, "velocity": 60}, {"time": 754, "pitch": 68, "duration": 6, "velocity": 59}, {"time": 754, "pitch": 71, "duration": 5, "velocity": 37}, {"time": 760, "pitch": 52, "duration": 6, "velocity": 50}, {"time": 766, "pitch": 60, "duration": 8, "velocity": 41}, {"time": 766, "pitch": 64, "duration": 6, "velocity": 56}, {"time": 766, "pitch": 69, "duration": 8, "velocity": 42}, {"time": 772, "pitch": 52, "duration": 10, "velocity": 19}, {"time": 778, "pitch": 60, "duration": 6, "velocity": 44}, {"time": 778, "pitch": 64, "duration": 6, "velocity": 78}, {"time": 778, "pitch": 69, "duration": 7, "velocity": 53}, {"time": 784, "pitch": 52, "duration": 21, "velocity": 65}, {"time": 787, "pitch": 66, "duration": 5, "velocity": 91}, {"time": 790, "pitch": 40, "duration": 20, "velocity": 56}, {"time": 790, "pitch": 59, "duration": 7, "velocity": 57}, {"time": 790, "pitch": 64, "duration": 7, "velocity": 53}, {"time": 790, "pitch": 68, "duration": 7, "velocity": 69}, {"time": 802, "pitch": 59, "duration": 7, "velocity": 53}, {"time": 802, "pitch": 64, "duration": 8, "velocity": 54}, {"time": 802, "pitch": 68, "duration": 6, "velocity": 63}, {"time": 808, "pitch": 52, "duration": 3, "velocity": 53}, {"time": 814, "pitch": 48, "duration": 15, "velocity": 35}, {"time": 814, "pitch": 60, "duration": 10, "velocity": 41}, {"time": 814, "pitch": 64, "duration": 7, "velocity": 74}, {"time": 814, "pitch": 69, "duration": 10, "velocity": 59}, {"time": 826, "pitch": 60, "duration": 7, "velocity": 41}, {"time": 826, "pitch": 64, "duration": 6, "velocity": 82}, {"time": 826, "pitch": 69, "duration": 8, "velocity": 60}, {"time": 832, "pitch": 48, "duration": 6, "velocity": 50}, {"time": 838, "pitch": 44, "duration": 22, "velocity": 47}, {"time": 838, "pitch": 56, "duration": 13, "velocity": 42}, {"time": 838, "pitch": 59, "duration": 7, "velocity": 60}, {"time": 838, "pitch": 63, "duration": 7, "velocity": 72}, {"time": 838, "pitch": 66, "duration": 7, "velocity": 84}, {"time": 850, "pitch": 59, "duration": 7, "velocity": 56}, {"time": 850, "pitch": 63, "duration": 7, "velocity": 65}, {"time": 850, "pitch": 66, "duration": 6, "velocity": 77}, {"time": 856, "pitch": 56, "duration": 5, "velocity": 41}, {"time": 862, "pitch": 49, "duration": 14, "velocity": 72}, {"time": 862, "pitch": 59, "duration": 8, "velocity": 59}, {"time": 862, "pitch": 65, "duration": 10, "velocity": 56}, {"time": 862, "pitch": 68, "duration": 8, "velocity": 60}, {"time": 874, "pitch": 37, "duration": 7, "velocity": 70}, {"time": 874, "pitch": 61, "duration": 7, "velocity": 69}, {"time": 874, "pitch": 65, "duration": 6, "velocity": 54}, {"time": 874, "pitch": 68, "duration": 6, "velocity": 79}, {"time": 880, "pitch": 49, "duration": 6, "velocity": 54}, {"time": 886, "pitch": 42, "duration": 19, "velocity": 74}, {"time": 886, "pitch": 57, "duration": 9, "velocity": 50}, {"time": 886, "pitch": 61, "duration": 6, "velocity": 86}, {"time": 886, "pitch": 64, "duration": 6, "velocity": 63}, {"time": 892, "pitch": 49, "duration": 7, "velocity": 50}, {"time": 898, "pitch": 54, "duration": 6, "velocity": 38}, {"time": 898, "pitch": 57, "duration": 7, "velocity": 53}, {"time": 898, "pitch": 61, "duration": 5, "velocity": 76}, {"time": 898, "pitch": 64, "duration": 6, "velocity": 77}, {"time": 904, "pitch": 49, "duration": 6, "velocity": 50}, {"time": 910, "pitch": 42, "duration": 18, "velocity": 82}, {"time": 910, "pitch": 57, "duration": 8, "velocity": 39}, {"time": 910, "pitch": 60, "duration": 7, "velocity": 57}, {"time": 910, "pitch": 64, "duration": 6, "velocity": 74}, {"time": 916, "pitch": 54, "duration": 8, "velocity": 29}, {"time": 922, "pitch": 57, "duration": 6, "velocity": 74}, {"time": 922, "pitch": 60, "duration": 6, "velocity": 77}, {"time": 922, "pitch": 64, "duration": 6, "velocity": 53}, {"time": 928, "pitch": 54, "duration": 6, "velocity": 60}, {"time": 934, "pitch": 40, "duration": 7, "velocity": 42}, {"time": 934, "pitch": 52, "duration": 6, "velocity": 54}, {"time": 934, "pitch": 56, "duration": 7, "velocity": 54}, {"time": 934, "pitch": 59, "duration": 6, "velocity": 76}, {"time": 934, "pitch": 64, "duration": 5, "velocity": 62}, {"time": 940, "pitch": 66, "duration": 4, "velocity": 85}, {"time": 946, "pitch": 39, "duration": 7, "velocity": 47}, {"time": 946, "pitch": 51, "duration": 6, "velocity": 50}, {"time": 946, "pitch": 54, "duration": 6, "velocity": 60}, {"time": 946, "pitch": 59, "duration": 5, "velocity": 82}, {"time": 946, "pitch": 63, "duration": 7, "velocity": 76}, {"time": 958, "pitch": 49, "duration": 7, "velocity": 50}, {"time": 958, "pitch": 56, "duration": 6, "velocity": 54}, {"time": 958, "pitch": 59, "duration": 5, "velocity": 70}, {"time": 958, "pitch": 64, "duration": 9, "velocity": 72}, {"time": 964, "pitch": 52, "duration": 11, "velocity": 50}, {"time": 967, "pitch": 56, "duration": 7, "velocity": 41}, {"time": 970, "pitch": 59, "duration": 4, "velocity": 77}, {"time": 973, "pitch": 64, "duration": 2, "velocity": 63}, {"time": 976, "pitch": 66, "duration": 3, "velocity": 62}, {"time": 979, "pitch": 71, "duration": 9, "velocity": 85}, {"time": 982, "pitch": 42, "duration": 19, "velocity": 65}, {"time": 982, "pitch": 61, "duration": 7, "velocity": 63}, {"time": 982, "pitch": 64, "duration": 7, "velocity": 85}, {"time": 982, "pitch": 69, "duration": 7, "velocity": 63}, {"time": 988, "pitch": 49, "duration": 7, "velocity": 39}, {"time": 994, "pitch": 54, "duration": 6, "velocity": 38}, {"time": 994, "pitch": 61, "duration": 7, "velocity": 69}, {"time": 994, "pitch": 64, "duration": 7, "velocity": 57}, {"time": 994, "pitch": 69, "duration": 7, "velocity": 54}, {"time": 1000, "pitch": 49, "duration": 1, "velocity": 68}, {"time": 1006, "pitch": 61, "duration": 7, "velocity": 60}, {"time": 1006, "pitch": 64, "duration": 7, "velocity": 45}, {"time": 1006, "pitch": 69, "duration": 8, "velocity": 42}, {"time": 1018, "pitch": 47, "duration": 6, "velocity": 62}, {"time": 1018, "pitch": 59, "duration": 7, "velocity": 65}, {"time": 1018, "pitch": 64, "duration": 6, "velocity": 70}, {"time": 1018, "pitch": 66, "duration": 3, "velocity": 77}, {"time": 1024, "pitch": 66, "duration": 4, "velocity": 78}, {"time": 1027, "pitch": 68, "duration": 3, "velocity": 76}, {"time": 1030, "pitch": 40, "duration": 16, "velocity": 50}, {"time": 1030, "pitch": 59, "duration": 5, "velocity": 54}, {"time": 1030, "pitch": 64, "duration": 5, "velocity": 65}, {"time": 1030, "pitch": 71, "duration": 4, "velocity": 59}, {"time": 1036, "pitch": 47, "duration": 7, "velocity": 45}, {"time": 1042, "pitch": 52, "duration": 4, "velocity": 45}, {"time": 1042, "pitch": 56, "duration": 4, "velocity": 76}, {"time": 1042, "pitch": 59, "duration": 3, "velocity": 68}, {"time": 1042, "pitch": 64, "duration": 4, "velocity": 76}, {"time": 1045, "pitch": 47, "duration": 7, "velocity": 78}, {"time": 1048, "pitch": 59, "duration": 2, "velocity": 84}, {"time": 1051, "pitch": 64, "duration": 2, "velocity": 94}, {"time": 1054, "pitch": 40, "duration": 9, "velocity": 76}, {"time": 1054, "pitch": 57, "duration": 6, "velocity": 68}, {"time": 1054, "pitch": 61, "duration": 4, "velocity": 72}, {"time": 1054, "pitch": 64, "duration": 5, "velocity": 72}, {"time": 1057, "pitch": 47, "duration": 8, "velocity": 53}, {"time": 1060, "pitch": 52, "duration": 4, "velocity": 70}, {"time": 1063, "pitch": 59, "duration": 4, "velocity": 74}, {"time": 1066, "pitch": 40, "duration": 6, "velocity": 82}, {"time": 1066, "pitch": 61, "duration": 2, "velocity": 70}, {"time": 1069, "pitch": 47, "duration": 4, "velocity": 66}, {"time": 1069, "pitch": 64, "duration": 2, "velocity": 84}, {"time": 1072, "pitch": 52, "duration": 2, "velocity": 53}, {"time": 1072, "pitch": 66, "duration": 4, "velocity": 68}, {"time": 1075, "pitch": 69, "duration": 4, "velocity": 86}, {"time": 1078, "pitch": 40, "duration": 21, "velocity": 86}, {"time": 1078, "pitch": 52, "duration": 15, "velocity": 81}, {"time": 1078, "pitch": 59, "duration": 9, "velocity": 76}, {"time": 1078, "pitch": 64, "duration": 10, "velocity": 86}, {"time": 1078, "pitch": 68, "duration": 9, "velocity": 91}, {"time": 1078, "pitch": 71, "duration": 10, "velocity": 76}, {"time": 1090, "pitch": 59, "duration": 7, "velocity": 69}, {"time": 1090, "pitch": 64, "duration": 7, "velocity": 74}, {"time": 1090, "pitch": 68, "duration": 7, "velocity": 60}, {"time": 1090, "pitch": 71, "duration": 7, "velocity": 68}, {"time": 1096, "pitch": 52, "duration": 4, "velocity": 76}, {"time": 1102, "pitch": 39, "duration": 19, "velocity": 82}, {"time": 1102, "pitch": 51, "duration": 7, "velocity": 66}, {"time": 1102, "pitch": 59, "duration": 9, "velocity": 70}, {"time": 1102, "pitch": 63, "duration": 9, "velocity": 88}, {"time": 1102, "pitch": 66, "duration": 8, "velocity": 88}, {"time": 1102, "pitch": 71, "duration": 9, "velocity": 79}, {"time": 1111, "pitch": 51, "duration": 5, "velocity": 65}, {"time": 1114, "pitch": 59, "duration": 4, "velocity": 72}, {"time": 1114, "pitch": 63, "duration": 4, "velocity": 65}, {"time": 1114, "pitch": 66, "duration": 4, "velocity": 68}, {"time": 1114, "pitch": 71, "duration": 4, "velocity": 85}, {"time": 1117, "pitch": 51, "duration": 3, "velocity": 70}, {"time": 1120, "pitch": 59, "duration": 1, "velocity": 45}, {"time": 1120, "pitch": 66, "duration": 2, "velocity": 54}, {"time": 1120, "pitch": 68, "duration": 4, "velocity": 79}, {"time": 1123, "pitch": 71, "duration": 12, "velocity": 81}, {"time": 1126, "pitch": 37, "duration": 3, "velocity": 78}, {"time": 1126, "pitch": 49, "duration": 4, "velocity": 68}, {"time": 1126, "pitch": 61, "duration": 10, "velocity": 72}, {"time": 1126, "pitch": 64, "duration": 10, "velocity": 68}, {"time": 1126, "pitch": 68, "duration": 9, "velocity": 78}, {"time": 1135, "pitch": 49, "duration": 8, "velocity": 63}, {"time": 1138, "pitch": 61, "duration": 7, "velocity": 77}, {"time": 1138, "pitch": 64, "duration": 8, "velocity": 86}, {"time": 1138, "pitch": 68, "duration": 7, "velocity": 77}, {"time": 1144, "pitch": 49, "duration": 2, "velocity": 79}, {"time": 1150, "pitch": 47, "duration": 19, "velocity": 81}, {"time": 1150, "pitch": 59, "duration": 5, "velocity": 74}, {"time": 1150, "pitch": 64, "duration": 6, "velocity": 85}, {"time": 1150, "pitch": 68, "duration": 7, "velocity": 72}, {"time": 1156, "pitch": 56, "duration": 9, "velocity": 54}, {"time": 1159, "pitch": 59, "duration": 8, "velocity": 63}, {"time": 1162, "pitch": 63, "duration": 4, "velocity": 91}, {"time": 1165, "pitch": 64, "duration": 2, "velocity": 79}, {"time": 1168, "pitch": 56, "duration": 1, "velocity": 65}, {"time": 1168, "pitch": 64, "duration": 1, "velocity": 47}, {"time": 1168, "pitch": 66, "duration": 2, "velocity": 84}, {"time": 1171, "pitch": 71, "duration": 5, "velocity": 88}, {"time": 1174, "pitch": 45, "duration": 43, "velocity": 41}, {"time": 1174, "pitch": 57, "duration": 28, "velocity": 42}, {"time": 1174, "pitch": 61, "duration": 8, "velocity": 69}, {"time": 1174, "pitch": 64, "duration": 8, "velocity": 81}, {"time": 1174, "pitch": 69, "duration": 11, "velocity": 48}, {"time": 1186, "pitch": 61, "duration": 8, "velocity": 77}, {"time": 1186, "pitch": 64, "duration": 7, "velocity": 79}, {"time": 1186, "pitch": 69, "duration": 22, "velocity": 44}, {"time": 1198, "pitch": 61, "duration": 9, "velocity": 54}, {"time": 1198, "pitch": 64, "duration": 9, "velocity": 69}, {"time": 1207, "pitch": 57, "duration": 6, "velocity": 42}, {"time": 1210, "pitch": 61, "duration": 7, "velocity": 74}, {"time": 1210, "pitch": 64, "duration": 7, "velocity": 85}, {"time": 1210, "pitch": 69, "duration": 8, "velocity": 56}, {"time": 1216, "pitch": 57, "duration": 2, "velocity": 45}, {"time": 1222, "pitch": 47, "duration": 20, "velocity": 81}, {"time": 1222, "pitch": 59, "duration": 6, "velocity": 76}, {"time": 1222, "pitch": 64, "duration": 9, "velocity": 84}, {"time": 1222, "pitch": 66, "duration": 8, "velocity": 77}, {"time": 1222, "pitch": 71, "duration": 10, "velocity": 86}, {"time": 1228, "pitch": 54, "duration": 9, "velocity": 60}, {"time": 1231, "pitch": 59, "duration": 10, "velocity": 72}, {"time": 1234, "pitch": 64, "duration": 4, "velocity": 82}, {"time": 1237, "pitch": 66, "duration": 4, "velocity": 81}, {"time": 1240, "pitch": 54, "duration": 4, "velocity": 76}, {"time": 1240, "pitch": 71, "duration": 1, "velocity": 47}, {"time": 1243, "pitch": 63, "duration": 4, "velocity": 85}, {"time": 1243, "pitch": 71, "duration": 4, "velocity": 96}, {"time": 1246, "pitch": 47, "duration": 19, "velocity": 72}, {"time": 1249, "pitch": 61, "duration": 2, "velocity": 72}, {"time": 1249, "pitch": 69, "duration": 2, "velocity": 94}, {"time": 1252, "pitch": 54, "duration": 3, "velocity": 63}, {"time": 1255, "pitch": 59, "duration": 4, "velocity": 63}, {"time": 1255, "pitch": 68, "duration": 4, "velocity": 68}, {"time": 1258, "pitch": 54, "duration": 3, "velocity": 78}, {"time": 1261, "pitch": 59, "duration": 5, "velocity": 60}, {"time": 1261, "pitch": 66, "duration": 4, "velocity": 79}, {"time": 1264, "pitch": 54, "duration": 1, "velocity": 88}, {"time": 1264, "pitch": 68, "duration": 2, "velocity": 72}, {"time": 1267, "pitch": 64, "duration": 2, "velocity": 56}, {"time": 1270, "pitch": 44, "duration": 20, "velocity": 72}, {"time": 1270, "pitch": 59, "duration": 5, "velocity": 70}, {"time": 1270, "pitch": 63, "duration": 5, "velocity": 82}, {"time": 1270, "pitch": 66, "duration": 5, "velocity": 90}, {"time": 1270, "pitch": 71, "duration": 5, "velocity": 66}, {"time": 1273, "pitch": 56, "duration": 10, "velocity": 42}, {"time": 1276, "pitch": 59, "duration": 5, "velocity": 54}, {"time": 1279, "pitch": 66, "duration": 3, "velocity": 92}, {"time": 1282, "pitch": 59, "duration": 3, "velocity": 76}, {"time": 1282, "pitch": 66, "duration": 1, "velocity": 57}, {"time": 1282, "pitch": 71, "duration": 7, "velocity": 85}, {"time": 1285, "pitch": 56, "duration": 4, "velocity": 39}, {"time": 1285, "pitch": 59, "duration": 1, "velocity": 69}, {"time": 1285, "pitch": 66, "duration": 3, "velocity": 94}, {"time": 1288, "pitch": 51, "duration": 6, "velocity": 72}, {"time": 1291, "pitch": 59, "duration": 4, "velocity": 76}, {"time": 1291, "pitch": 63, "duration": 4, "velocity": 88}, {"time": 1291, "pitch": 66, "duration": 4, "velocity": 92}, {"time": 1291, "pitch": 71, "duration": 5, "velocity": 65}, {"time": 1294, "pitch": 44, "duration": 19, "velocity": 60}, {"time": 1297, "pitch": 51, "duration": 11, "velocity": 72}, {"time": 1300, "pitch": 56, "duration": 4, "velocity": 54}, {"time": 1303, "pitch": 66, "duration": 2, "velocity": 72}, {"time": 1303, "pitch": 71, "duration": 2, "velocity": 54}, {"time": 1303, "pitch": 78, "duration": 2, "velocity": 85}, {"time": 1306, "pitch": 56, "duration": 4, "velocity": 47}, {"time": 1306, "pitch": 66, "duration": 3, "velocity": 74}, {"time": 1306, "pitch": 71, "duration": 3, "velocity": 84}, {"time": 1306, "pitch": 78, "duration": 3, "velocity": 79}, {"time": 1309, "pitch": 68, "duration": 3, "velocity": 72}, {"time": 1309, "pitch": 71, "duration": 1, "velocity": 69}, {"time": 1309, "pitch": 76, "duration": 3, "velocity": 97}, {"time": 1312, "pitch": 51, "duration": 2, "velocity": 84}, {"time": 1312, "pitch": 56, "duration": 5, "velocity": 44}, {"time": 1315, "pitch": 66, "duration": 2, "velocity": 70}, {"time": 1315, "pitch": 75, "duration": 3, "velocity": 90}, {"time": 1318, "pitch": 49, "duration": 21, "velocity": 85}, {"time": 1318, "pitch": 68, "duration": 5, "velocity": 63}, {"time": 1318, "pitch": 71, "duration": 5, "velocity": 84}, {"time": 1318, "pitch": 76, "duration": 4, "velocity": 96}, {"time": 1321, "pitch": 56, "duration": 13, "velocity": 57}, {"time": 1324, "pitch": 61, "duration": 4, "velocity": 60}, {"time": 1327, "pitch": 64, "duration": 5, "velocity": 72}, {"time": 1327, "pitch": 68, "duration": 5, "velocity": 69}, {"time": 1330, "pitch": 61, "duration": 4, "velocity": 50}, {"time": 1333, "pitch": 63, "duration": 4, "velocity": 76}, {"time": 1333, "pitch": 66, "duration": 4, "velocity": 88}, {"time": 1336, "pitch": 56, "duration": 5, "velocity": 54}, {"time": 1339, "pitch": 64, "duration": 1, "velocity": 81}, {"time": 1339, "pitch": 68, "duration": 2, "velocity": 79}, {"time": 1342, "pitch": 49, "duration": 14, "velocity": 78}, {"time": 1345, "pitch": 56, "duration": 6, "velocity": 63}, {"time": 1345, "pitch": 68, "duration": 1, "velocity": 54}, {"time": 1345, "pitch": 76, "duration": 1, "velocity": 94}, {"time": 1348, "pitch": 68, "duration": 1, "velocity": 66}, {"time": 1348, "pitch": 76, "duration": 2, "velocity": 94}, {"time": 1351, "pitch": 61, "duration": 2, "velocity": 54}, {"time": 1351, "pitch": 66, "duration": 1, "velocity": 81}, {"time": 1351, "pitch": 75, "duration": 1, "velocity": 72}, {"time": 1354, "pitch": 56, "duration": 7, "velocity": 63}, {"time": 1354, "pitch": 66, "duration": 1, "velocity": 79}, {"time": 1354, "pitch": 75, "duration": 2, "velocity": 76}, {"time": 1357, "pitch": 64, "duration": 3, "velocity": 72}, {"time": 1357, "pitch": 71, "duration": 2, "velocity": 86}, {"time": 1360, "pitch": 47, "duration": 3, "velocity": 63}, {"time": 1363, "pitch": 64, "duration": 2, "velocity": 68}, {"time": 1366, "pitch": 45, "duration": 20, "velocity": 63}, {"time": 1366, "pitch": 61, "duration": 7, "velocity": 66}, {"time": 1366, "pitch": 64, "duration": 7, "velocity": 81}, {"time": 1366, "pitch": 68, "duration": 6, "velocity": 65}, {"time": 1372, "pitch": 52, "duration": 13, "velocity": 60}, {"time": 1375, "pitch": 57, "duration": 5, "velocity": 69}, {"time": 1378, "pitch": 61, "duration": 5, "velocity": 69}, {"time": 1378, "pitch": 64, "duration": 5, "velocity": 76}, {"time": 1378, "pitch": 68, "duration": 4, "velocity": 63}, {"time": 1381, "pitch": 57, "duration": 4, "velocity": 53}, {"time": 1384, "pitch": 61, "duration": 1, "velocity": 31}, {"time": 1390, "pitch": 46, "duration": 19, "velocity": 79}, {"time": 1390, "pitch": 61, "duration": 7, "velocity": 70}, {"time": 1390, "pitch": 64, "duration": 7, "velocity": 68}, {"time": 1390, "pitch": 68, "duration": 6, "velocity": 79}, {"time": 1396, "pitch": 58, "duration": 7, "velocity": 44}, {"time": 1399, "pitch": 61, "duration": 2, "velocity": 51}, {"time": 1402, "pitch": 61, "duration": 5, "velocity": 77}, {"time": 1402, "pitch": 64, "duration": 5, "velocity": 76}, {"time": 1402, "pitch": 68, "duration": 5, "velocity": 86}, {"time": 1405, "pitch": 58, "duration": 3, "velocity": 48}, {"time": 1408, "pitch": 66, "duration": 2, "velocity": 72}, {"time": 1411, "pitch": 68, "duration": 2, "velocity": 65}, {"time": 1414, "pitch": 35, "duration": 2, "velocity": 97}, {"time": 1414, "pitch": 59, "duration": 8, "velocity": 90}, {"time": 1414, "pitch": 64, "duration": 9, "velocity": 77}, {"time": 1414, "pitch": 71, "duration": 15, "velocity": 97}, {"time": 1420, "pitch": 47, "duration": 12, "velocity": 63}, {"time": 1423, "pitch": 52, "duration": 9, "velocity": 70}, {"time": 1426, "pitch": 54, "duration": 9, "velocity": 79}, {"time": 1429, "pitch": 59, "duration": 3, "velocity": 79}, {"time": 1432, "pitch": 64, "duration": 4, "velocity": 65}, {"time": 1435, "pitch": 66, "duration": 2, "velocity": 94}, {"time": 1438, "pitch": 47, "duration": 17, "velocity": 78}, {"time": 1441, "pitch": 54, "duration": 3, "velocity": 79}, {"time": 1441, "pitch": 71, "duration": 2, "velocity": 66}, {"time": 1441, "pitch": 83, "duration": 1, "velocity": 66}, {"time": 1444, "pitch": 54, "duration": 1, "velocity": 81}, {"time": 1444, "pitch": 59, "duration": 3, "velocity": 56}, {"time": 1446, "pitch": 69, "duration": 1, "velocity": 53}, {"time": 1446, "pitch": 81, "duration": 1, "velocity": 85}, {"time": 1447, "pitch": 59, "duration": 4, "velocity": 54}, {"time": 1450, "pitch": 54, "duration": 5, "velocity": 86}, {"time": 1450, "pitch": 68, "duration": 2, "velocity": 59}, {"time": 1450, "pitch": 80, "duration": 2, "velocity": 96}, {"time": 1454, "pitch": 66, "duration": 2, "velocity": 84}, {"time": 1454, "pitch": 78, "duration": 1, "velocity": 91}, {"time": 1457, "pitch": 64, "duration": 2, "velocity": 60}, {"time": 1457, "pitch": 76, "duration": 2, "velocity": 72}, {"time": 1462, "pitch": 40, "duration": 6, "velocity": 82}, {"time": 1462, "pitch": 59, "duration": 8, "velocity": 74}, {"time": 1462, "pitch": 64, "duration": 7, "velocity": 85}, {"time": 1462, "pitch": 68, "duration": 6, "velocity": 85}, {"time": 1468, "pitch": 52, "duration": 4, "velocity": 54}, {"time": 1471, "pitch": 54, "duration": 6, "velocity": 60}, {"time": 1474, "pitch": 56, "duration": 4, "velocity": 60}, {"time": 1477, "pitch": 68, "duration": 2, "velocity": 103}, {"time": 1480, "pitch": 68, "duration": 1, "velocity": 22}, {"time": 1480, "pitch": 71, "duration": 4, "velocity": 90}, {"time": 1483, "pitch": 76, "duration": 4, "velocity": 96}, {"time": 1486, "pitch": 39, "duration": 4, "velocity": 86}, {"time": 1486, "pitch": 66, "duration": 8, "velocity": 85}, {"time": 1486, "pitch": 75, "duration": 9, "velocity": 101}, {"time": 1489, "pitch": 51, "duration": 5, "velocity": 60}, {"time": 1492, "pitch": 54, "duration": 11, "velocity": 77}, {"time": 1495, "pitch": 66, "duration": 6, "velocity": 78}, {"time": 1495, "pitch": 71, "duration": 5, "velocity": 78}, {"time": 1495, "pitch": 75, "duration": 1, "velocity": 31}, {"time": 1495, "pitch": 78, "duration": 7, "velocity": 94}, {"time": 1498, "pitch": 56, "duration": 6, "velocity": 63}, {"time": 1501, "pitch": 59, "duration": 3, "velocity": 72}, {"time": 1504, "pitch": 73, "duration": 2, "velocity": 84}, {"time": 1507, "pitch": 75, "duration": 3, "velocity": 84}, {"time": 1510, "pitch": 49, "duration": 20, "velocity": 72}, {"time": 1510, "pitch": 68, "duration": 6, "velocity": 60}, {"time": 1510, "pitch": 71, "duration": 6, "velocity": 77}, {"time": 1510, "pitch": 76, "duration": 5, "velocity": 96}, {"time": 1513, "pitch": 56, "duration": 7, "velocity": 63}, {"time": 1516, "pitch": 61, "duration": 6, "velocity": 59}, {"time": 1519, "pitch": 64, "duration": 4, "velocity": 68}, {"time": 1519, "pitch": 68, "duration": 3, "velocity": 86}, {"time": 1522, "pitch": 56, "duration": 4, "velocity": 60}, {"time": 1525, "pitch": 64, "duration": 5, "velocity": 76}, {"time": 1525, "pitch": 71, "duration": 5, "velocity": 94}, {"time": 1528, "pitch": 56, "duration": 5, "velocity": 65}, {"time": 1531, "pitch": 66, "duration": 8, "velocity": 72}, {"time": 1534, "pitch": 47, "duration": 19, "velocity": 63}, {"time": 1534, "pitch": 63, "duration": 7, "velocity": 82}, {"time": 1534, "pitch": 71, "duration": 7, "velocity": 86}, {"time": 1537, "pitch": 56, "duration": 9, "velocity": 60}, {"time": 1540, "pitch": 59, "duration": 9, "velocity": 54}, {"time": 1543, "pitch": 63, "duration": 4, "velocity": 68}, {"time": 1546, "pitch": 64, "duration": 2, "velocity": 68}, {"time": 1549, "pitch": 63, "duration": 1, "velocity": 31}, {"time": 1549, "pitch": 66, "duration": 2, "velocity": 70}, {"time": 1552, "pitch": 56, "duration": 2, "velocity": 74}, {"time": 1552, "pitch": 68, "duration": 2, "velocity": 68}, {"time": 1555, "pitch": 71, "duration": 9, "velocity": 84}, {"time": 1558, "pitch": 45, "duration": 21, "velocity": 72}, {"time": 1558, "pitch": 61, "duration": 8, "velocity": 68}, {"time": 1558, "pitch": 64, "duration": 7, "velocity": 66}, {"time": 1558, "pitch": 69, "duration": 8, "velocity": 66}, {"time": 1561, "pitch": 52, "duration": 17, "velocity": 76}, {"time": 1564, "pitch": 57, "duration": 7, "velocity": 56}, {"time": 1567, "pitch": 61, "duration": 2, "velocity": 57}, {"time": 1570, "pitch": 61, "duration": 4, "velocity": 76}, {"time": 1570, "pitch": 64, "duration": 6, "velocity": 70}, {"time": 1570, "pitch": 69, "duration": 7, "velocity": 70}, {"time": 1573, "pitch": 57, "duration": 6, "velocity": 39}, {"time": 1576, "pitch": 61, "duration": 2, "velocity": 53}, {"time": 1579, "pitch": 61, "duration": 1, "velocity": 51}, {"time": 1579, "pitch": 64, "duration": 2, "velocity": 79}, {"time": 1579, "pitch": 69, "duration": 2, "velocity": 53}, {"time": 1582, "pitch": 45, "duration": 20, "velocity": 48}, {"time": 1582, "pitch": 61, "duration": 1, "velocity": 60}, {"time": 1582, "pitch": 64, "duration": 1, "velocity": 68}, {"time": 1582, "pitch": 69, "duration": 2, "velocity": 41}, {"time": 1585, "pitch": 52, "duration": 16, "velocity": 90}, {"time": 1588, "pitch": 57, "duration": 3, "velocity": 63}, {"time": 1588, "pitch": 69, "duration": 1, "velocity": 27}, {"time": 1591, "pitch": 69, "duration": 2, "velocity": 59}, {"time": 1591, "pitch": 81, "duration": 1, "velocity": 72}, {"time": 1594, "pitch": 57, "duration": 1, "velocity": 57}, {"time": 1594, "pitch": 69, "duration": 2, "velocity": 60}, {"time": 1594, "pitch": 81, "duration": 2, "velocity": 63}, {"time": 1597, "pitch": 57, "duration": 2, "velocity": 23}, {"time": 1600, "pitch": 57, "duration": 3, "velocity": 39}, {"time": 1600, "pitch": 68, "duration": 2, "velocity": 69}, {"time": 1600, "pitch": 80, "duration": 1, "velocity": 79}, {"time": 1603, "pitch": 66, "duration": 2, "velocity": 65}, {"time": 1603, "pitch": 78, "duration": 2, "velocity": 60}, {"time": 1606, "pitch": 47, "duration": 19, "velocity": 76}, {"time": 1606, "pitch": 66, "duration": 4, "velocity": 74}, {"time": 1606, "pitch": 78, "duration": 3, "velocity": 82}, {"time": 1609, "pitch": 54, "duration": 6, "velocity": 74}, {"time": 1612, "pitch": 59, "duration": 4, "velocity": 50}, {"time": 1615, "pitch": 64, "duration": 4, "velocity": 79}, {"time": 1615, "pitch": 66, "duration": 4, "velocity": 79}, {"time": 1618, "pitch": 54, "duration": 6, "velocity": 85}, {"time": 1621, "pitch": 59, "duration": 3, "velocity": 65}, {"time": 1624, "pitch": 64, "duration": 1, "velocity": 82}, {"time": 1627, "pitch": 59, "duration": 5, "velocity": 90}, {"time": 1627, "pitch": 63, "duration": 5, "velocity": 81}, {"time": 1630, "pitch": 35, "duration": 18, "velocity": 85}, {"time": 1633, "pitch": 47, "duration": 2, "velocity": 60}, {"time": 1633, "pitch": 54, "duration": 3, "velocity": 74}, {"time": 1633, "pitch": 59, "duration": 3, "velocity": 62}, {"time": 1633, "pitch": 66, "duration": 3, "velocity": 96}, {"time": 1636, "pitch": 47, "duration": 3, "velocity": 50}, {"time": 1639, "pitch": 56, "duration": 4, "velocity": 56}, {"time": 1639, "pitch": 59, "duration": 3, "velocity": 78}, {"time": 1639, "pitch": 64, "duration": 3, "velocity": 74}, {"time": 1642, "pitch": 47, "duration": 4, "velocity": 50}, {"time": 1645, "pitch": 54, "duration": 6, "velocity": 85}, {"time": 1645, "pitch": 59, "duration": 5, "velocity": 70}, {"time": 1645, "pitch": 63, "duration": 6, "velocity": 63}, {"time": 1645, "pitch": 66, "duration": 7, "velocity": 60}, {"time": 1648, "pitch": 47, "duration": 6, "velocity": 50}, {"time": 1651, "pitch": 46, "duration": 4, "velocity": 77}, {"time": 1654, "pitch": 44, "duration": 24, "velocity": 77}, {"time": 1654, "pitch": 54, "duration": 8, "velocity": 81}, {"time": 1654, "pitch": 59, "duration": 8, "velocity": 70}, {"time": 1654, "pitch": 63, "duration": 8, "velocity": 88}, {"time": 1657, "pitch": 66, "duration": 5, "velocity": 2}, {"time": 1666, "pitch": 54, "duration": 7, "velocity": 76}, {"time": 1666, "pitch": 59, "duration": 7, "velocity": 90}, {"time": 1666, "pitch": 63, "duration": 7, "velocity": 97}, {"time": 1666, "pitch": 66, "duration": 6, "velocity": 60}, {"time": 1672, "pitch": 61, "duration": 5, "velocity": 62}, {"time": 1675, "pitch": 54, "duration": 1, "velocity": 37}, {"time": 1675, "pitch": 63, "duration": 2, "velocity": 74}, {"time": 1678, "pitch": 44, "duration": 16, "velocity": 33}, {"time": 1678, "pitch": 54, "duration": 5, "velocity": 84}, {"time": 1678, "pitch": 59, "duration": 5, "velocity": 86}, {"time": 1678, "pitch": 63, "duration": 5, "velocity": 72}, {"time": 1678, "pitch": 66, "duration": 7, "velocity": 69}, {"time": 1687, "pitch": 54, "duration": 2, "velocity": 56}, {"time": 1687, "pitch": 59, "duration": 2, "velocity": 60}, {"time": 1687, "pitch": 63, "duration": 2, "velocity": 63}, {"time": 1690, "pitch": 54, "duration": 7, "velocity": 86}, {"time": 1690, "pitch": 59, "duration": 7, "velocity": 85}, {"time": 1690, "pitch": 63, "duration": 7, "velocity": 77}, {"time": 1690, "pitch": 66, "duration": 6, "velocity": 74}, {"time": 1696, "pitch": 44, "duration": 2, "velocity": 69}, {"time": 1699, "pitch": 61, "duration": 2, "velocity": 51}, {"time": 1699, "pitch": 63, "duration": 2, "velocity": 74}, {"time": 1702, "pitch": 37, "duration": 22, "velocity": 66}, {"time": 1702, "pitch": 49, "duration": 11, "velocity": 38}, {"time": 1702, "pitch": 56, "duration": 6, "velocity": 63}, {"time": 1702, "pitch": 59, "duration": 6, "velocity": 82}, {"time": 1702, "pitch": 64, "duration": 6, "velocity": 68}, {"time": 1711, "pitch": 56, "duration": 2, "velocity": 50}, {"time": 1711, "pitch": 59, "duration": 2, "velocity": 65}, {"time": 1711, "pitch": 64, "duration": 3, "velocity": 54}, {"time": 1714, "pitch": 49, "duration": 5, "velocity": 63}, {"time": 1714, "pitch": 56, "duration": 8, "velocity": 60}, {"time": 1714, "pitch": 59, "duration": 6, "velocity": 78}, {"time": 1714, "pitch": 64, "duration": 7, "velocity": 38}, {"time": 1723, "pitch": 49, "duration": 4, "velocity": 47}, {"time": 1726, "pitch": 37, "duration": 5, "velocity": 74}, {"time": 1726, "pitch": 56, "duration": 3, "velocity": 60}, {"time": 1726, "pitch": 59, "duration": 3, "velocity": 82}, {"time": 1726, "pitch": 64, "duration": 4, "velocity": 79}, {"time": 1729, "pitch": 49, "duration": 2, "velocity": 45}, {"time": 1729, "pitch": 54, "duration": 2, "velocity": 74}, {"time": 1729, "pitch": 63, "duration": 4, "velocity": 88}, {"time": 1735, "pitch": 56, "duration": 2, "velocity": 60}, {"time": 1735, "pitch": 64, "duration": 2, "velocity": 82}, {"time": 1738, "pitch": 35, "duration": 5, "velocity": 91}, {"time": 1738, "pitch": 54, "duration": 4, "velocity": 57}, {"time": 1738, "pitch": 63, "duration": 5, "velocity": 79}, {"time": 1741, "pitch": 47, "duration": 4, "velocity": 65}, {"time": 1744, "pitch": 59, "duration": 3, "velocity": 79}, {"time": 1747, "pitch": 61, "duration": 2, "velocity": 63}, {"time": 1750, "pitch": 45, "duration": 19, "velocity": 45}, {"time": 1750, "pitch": 57, "duration": 18, "velocity": 47}, {"time": 1750, "pitch": 61, "duration": 10, "velocity": 70}, {"time": 1750, "pitch": 64, "duration": 10, "velocity": 72}, {"time": 1750, "pitch": 69, "duration": 10, "velocity": 54}, {"time": 1762, "pitch": 61, "duration": 7, "velocity": 76}, {"time": 1762, "pitch": 64, "duration": 6, "velocity": 76}, {"time": 1762, "pitch": 69, "duration": 7, "velocity": 72}, {"time": 1774, "pitch": 35, "duration": 18, "velocity": 57}, {"time": 1774, "pitch": 47, "duration": 15, "velocity": 54}, {"time": 1774, "pitch": 59, "duration": 7, "velocity": 72}, {"time": 1774, "pitch": 63, "duration": 7, "velocity": 90}, {"time": 1774, "pitch": 66, "duration": 7, "velocity": 92}, {"time": 1774, "pitch": 71, "duration": 7, "velocity": 72}, {"time": 1786, "pitch": 59, "duration": 7, "velocity": 72}, {"time": 1786, "pitch": 63, "duration": 6, "velocity": 91}, {"time": 1786, "pitch": 66, "duration": 6, "velocity": 90}, {"time": 1786, "pitch": 69, "duration": 7, "velocity": 57}, {"time": 1792, "pitch": 47, "duration": 2, "velocity": 53}, {"time": 1798, "pitch": 40, "duration": 5, "velocity": 88}, {"time": 1798, "pitch": 59, "duration": 6, "velocity": 63}, {"time": 1798, "pitch": 64, "duration": 7, "velocity": 68}, {"time": 1798, "pitch": 68, "duration": 6, "velocity": 69}, {"time": 1804, "pitch": 52, "duration": 37, "velocity": 50}, {"time": 1810, "pitch": 61, "duration": 6, "velocity": 50}, {"time": 1810, "pitch": 64, "duration": 5, "velocity": 65}, {"time": 1810, "pitch": 69, "duration": 6, "velocity": 57}, {"time": 1822, "pitch": 59, "duration": 18, "velocity": 38}, {"time": 1822, "pitch": 64, "duration": 18, "velocity": 31}, {"time": 1822, "pitch": 71, "duration": 17, "velocity": 19}, {"time": 1846, "pitch": 69, "duration": 35, "velocity": 52}, {"time": 1846, "pitch": 72, "duration": 35, "velocity": 60}, {"time": 1846, "pitch": 76, "duration": 35, "velocity": 56}, {"time": 1894, "pitch": 52, "duration": 7, "velocity": 75}, {"time": 1900, "pitch": 59, "duration": 5, "velocity": 69}, {"time": 1906, "pitch": 66, "duration": 1, "velocity": 63}, {"time": 1912, "pitch": 68, "duration": 2, "velocity": 69}, {"time": 1942, "pitch": 57, "duration": 38, "velocity": 74}, {"time": 1942, "pitch": 60, "duration": 38, "velocity": 83}, {"time": 1942, "pitch": 64, "duration": 38, "velocity": 80}, {"time": 1942, "pitch": 66, "duration": 24, "velocity": 75}, {"time": 2038, "pitch": 40, "duration": 19, "velocity": 47}, {"time": 2038, "pitch": 56, "duration": 6, "velocity": 18}, {"time": 2038, "pitch": 59, "duration": 5, "velocity": 66}, {"time": 2038, "pitch": 64, "duration": 7, "velocity": 50}, {"time": 2044, "pitch": 52, "duration": 6, "velocity": 5}, {"time": 2050, "pitch": 56, "duration": 6, "velocity": 44}, {"time": 2050, "pitch": 59, "duration": 6, "velocity": 65}, {"time": 2050, "pitch": 64, "duration": 6, "velocity": 38}, {"time": 2056, "pitch": 52, "duration": 4, "velocity": 27}, {"time": 2062, "pitch": 40, "duration": 19, "velocity": 35}, {"time": 2062, "pitch": 52, "duration": 14, "velocity": 27}, {"time": 2062, "pitch": 57, "duration": 9, "velocity": 42}, {"time": 2062, "pitch": 64, "duration": 6, "velocity": 68}, {"time": 2065, "pitch": 60, "duration": 4, "velocity": 2}, {"time": 2074, "pitch": 57, "duration": 6, "velocity": 38}, {"time": 2074, "pitch": 60, "duration": 5, "velocity": 47}, {"time": 2074, "pitch": 64, "duration": 5, "velocity": 68}, {"time": 2080, "pitch": 52, "duration": 3, "velocity": 45}, {"time": 2086, "pitch": 52, "duration": 15, "velocity": 56}, {"time": 2086, "pitch": 59, "duration": 8, "velocity": 50}, {"time": 2086, "pitch": 64, "duration": 8, "velocity": 60}, {"time": 2086, "pitch": 68, "duration": 8, "velocity": 54}, {"time": 2086, "pitch": 71, "duration": 8, "velocity": 39}, {"time": 2098, "pitch": 59, "duration": 6, "velocity": 47}, {"time": 2098, "pitch": 64, "duration": 6, "velocity": 60}, {"time": 2098, "pitch": 68, "duration": 6, "velocity": 59}, {"time": 2098, "pitch": 71, "duration": 5, "velocity": 37}, {"time": 2104, "pitch": 52, "duration": 6, "velocity": 50}, {"time": 2110, "pitch": 60, "duration": 8, "velocity": 41}, {"time": 2110, "pitch": 64, "duration": 6, "velocity": 56}, {"time": 2110, "pitch": 69, "duration": 8, "velocity": 42}, {"time": 2116, "pitch": 52, "duration": 10, "velocity": 19}, {"time": 2122, "pitch": 60, "duration": 6, "velocity": 44}, {"time": 2122, "pitch": 64, "duration": 6, "velocity": 78}, {"time": 2122, "pitch": 69, "duration": 7, "velocity": 53}, {"time": 2128, "pitch": 52, "duration": 21, "velocity": 65}, {"time": 2131, "pitch": 66, "duration": 5, "velocity": 91}, {"time": 2134, "pitch": 40, "duration": 20, "velocity": 56}, {"time": 2134, "pitch": 59, "duration": 7, "velocity": 57}, {"time": 2134, "pitch": 64, "duration": 7, "velocity": 53}, {"time": 2134, "pitch": 68, "duration": 7, "velocity": 69}, {"time": 2146, "pitch": 59, "duration": 7, "velocity": 53}, {"time": 2146, "pitch": 64, "duration": 8, "velocity": 54}, {"time": 2146, "pitch": 68, "duration": 6, "velocity": 63}, {"time": 2152, "pitch": 52, "duration": 3, "velocity": 53}, {"time": 2158, "pitch": 48, "duration": 15, "velocity": 35}, {"time": 2158, "pitch": 60, "duration": 10, "velocity": 41}, {"time": 2158, "pitch": 64, "duration": 7, "velocity": 74}, {"time": 2158, "pitch": 69, "duration": 10, "velocity": 59}, {"time": 2170, "pitch": 60, "duration": 7, "velocity": 41}, {"time": 2170, "pitch": 64, "duration": 6, "velocity": 82}, {"time": 2170, "pitch": 69, "duration": 8, "velocity": 60}, {"time": 2176, "pitch": 48, "duration": 6, "velocity": 50}, {"time": 2182, "pitch": 44, "duration": 22, "velocity": 47}, {"time": 2182, "pitch": 56, "duration": 13, "velocity": 42}, {"time": 2182, "pitch": 59, "duration": 7, "velocity": 60}, {"time": 2182, "pitch": 63, "duration": 7, "velocity": 72}, {"time": 2182, "pitch": 66, "duration": 7, "velocity": 84}, {"time": 2194, "pitch": 59, "duration": 7, "velocity": 56}, {"time": 2194, "pitch": 63, "duration": 7, "velocity": 65}, {"time": 2194, "pitch": 66, "duration": 6, "velocity": 77}, {"time": 2200, "pitch": 56, "duration": 5, "velocity": 41}, {"time": 2206, "pitch": 49, "duration": 14, "velocity": 72}, {"time": 2206, "pitch": 59, "duration": 8, "velocity": 59}, {"time": 2206, "pitch": 65, "duration": 10, "velocity": 56}, {"time": 2206, "pitch": 68, "duration": 8, "velocity": 60}, {"time": 2218, "pitch": 37, "duration": 7, "velocity": 70}, {"time": 2218, "pitch": 61, "duration": 7, "velocity": 69}, {"time": 2218, "pitch": 65, "duration": 6, "velocity": 54}, {"time": 2218, "pitch": 68, "duration": 6, "velocity": 79}, {"time": 2224, "pitch": 49, "duration": 6, "velocity": 54}, {"time": 2230, "pitch": 42, "duration": 19, "velocity": 74}, {"time": 2230, "pitch": 57, "duration": 9, "velocity": 50}, {"time": 2230, "pitch": 61, "duration": 6, "velocity": 86}, {"time": 2230, "pitch": 64, "duration": 6, "velocity": 63}, {"time": 2236, "pitch": 49, "duration": 7, "velocity": 50}, {"time": 2242, "pitch": 54, "duration": 6, "velocity": 38}, {"time": 2242, "pitch": 57, "duration": 7, "velocity": 53}, {"time": 2242, "pitch": 61, "duration": 5, "velocity": 76}, {"time": 2242, "pitch": 64, "duration": 6, "velocity": 77}, {"time": 2248, "pitch": 49, "duration": 6, "velocity": 50}, {"time": 2254, "pitch": 42, "duration": 18, "velocity": 82}, {"time": 2254, "pitch": 57, "duration": 8, "velocity": 39}, {"time": 2254, "pitch": 60, "duration": 7, "velocity": 57}, {"time": 2254, "pitch": 64, "duration": 6, "velocity": 74}, {"time": 2260, "pitch": 54, "duration": 8, "velocity": 29}, {"time": 2266, "pitch": 57, "duration": 6, "velocity": 74}, {"time": 2266, "pitch": 60, "duration": 6, "velocity": 77}, {"time": 2266, "pitch": 64, "duration": 6, "velocity": 53}, {"time": 2272, "pitch": 54, "duration": 6, "velocity": 60}, {"time": 2278, "pitch": 40, "duration": 7, "velocity": 42}, {"time": 2278, "pitch": 52, "duration": 6, "velocity": 54}, {"time": 2278, "pitch": 56, "duration": 7, "velocity": 54}, {"time": 2278, "pitch": 59, "duration": 6, "velocity": 76}, {"time": 2278, "pitch": 64, "duration": 5, "velocity": 62}, {"time": 2284, "pitch": 66, "duration": 4, "velocity": 85}, {"time": 2290, "pitch": 39, "duration": 7, "velocity": 47}, {"time": 2290, "pitch": 51, "duration": 6, "velocity": 50}, {"time": 2290, "pitch": 54, "duration": 6, "velocity": 60}, {"time": 2290, "pitch": 59, "duration": 5, "velocity": 82}, {"time": 2290, "pitch": 63, "duration": 7, "velocity": 76}, {"time": 2302, "pitch": 49, "duration": 7, "velocity": 50}, {"time": 2302, "pitch": 56, "duration": 6, "velocity": 54}, {"time": 2302, "pitch": 59, "duration": 5, "velocity": 70}, {"time": 2302, "pitch": 64, "duration": 9, "velocity": 72}, {"time": 2308, "pitch": 52, "duration": 11, "velocity": 50}, {"time": 2311, "pitch": 56, "duration": 7, "velocity": 41}, {"time": 2314, "pitch": 59, "duration": 4, "velocity": 77}, {"time": 2317, "pitch": 64, "duration": 2, "velocity": 63}, {"time": 2320, "pitch": 66, "duration": 3, "velocity": 62}, {"time": 2323, "pitch": 71, "duration": 9, "velocity": 85}, {"time": 2326, "pitch": 42, "duration": 19, "velocity": 65}, {"time": 2326, "pitch": 61, "duration": 7, "velocity": 63}, {"time": 2326, "pitch": 64, "duration": 7, "velocity": 85}, {"time": 2326, "pitch": 69, "duration": 7, "velocity": 63}, {"time": 2332, "pitch": 49, "duration": 7, "velocity": 39}, {"time": 2338, "pitch": 54, "duration": 6, "velocity": 38}, {"time": 2338, "pitch": 61, "duration": 7, "velocity": 69}, {"time": 2338, "pitch": 64, "duration": 7, "velocity": 57}, {"time": 2338, "pitch": 69, "duration": 7, "velocity": 54}, {"time": 2344, "pitch": 49, "duration": 1, "velocity": 68}, {"time": 2350, "pitch": 61, "duration": 7, "velocity": 60}, {"time": 2350, "pitch": 64, "duration": 7, "velocity": 45}, {"time": 2350, "pitch": 69, "duration": 8, "velocity": 42}, {"time": 2362, "pitch": 47, "duration": 6, "velocity": 62}, {"time": 2362, "pitch": 59, "duration": 7, "velocity": 65}, {"time": 2362, "pitch": 64, "duration": 6, "velocity": 70}, {"time": 2362, "pitch": 66, "duration": 3, "velocity": 77}, {"time": 2368, "pitch": 66, "duration": 4, "velocity": 78}, {"time": 2371, "pitch": 68, "duration": 3, "velocity": 76}, {"time": 2374, "pitch": 40, "duration": 16, "velocity": 50}, {"time": 2374, "pitch": 59, "duration": 5, "velocity": 54}, {"time": 2374, "pitch": 64, "duration": 5, "velocity": 65}, {"time": 2374, "pitch": 71, "duration": 4, "velocity": 59}, {"time": 2380, "pitch": 47, "duration": 7, "velocity": 45}, {"time": 2386, "pitch": 52, "duration": 4, "velocity": 45}, {"time": 2386, "pitch": 56, "duration": 4, "velocity": 76}, {"time": 2386, "pitch": 59, "duration": 3, "velocity": 68}, {"time": 2386, "pitch": 64, "duration": 4, "velocity": 76}, {"time": 2389, "pitch": 47, "duration": 7, "velocity": 78}, {"time": 2392, "pitch": 59, "duration": 2, "velocity": 84}, {"time": 2395, "pitch": 64, "duration": 2, "velocity": 94}, {"time": 2398, "pitch": 40, "duration": 9, "velocity": 76}, {"time": 2398, "pitch": 57, "duration": 6, "velocity": 68}, {"time": 2398, "pitch": 61, "duration": 4, "velocity": 72}, {"time": 2398, "pitch": 64, "duration": 5, "velocity": 72}, {"time": 2401, "pitch": 47, "duration": 8, "velocity": 53}, {"time": 2404, "pitch": 52, "duration": 4, "velocity": 70}, {"time": 2407, "pitch": 59, "duration": 4, "velocity": 74}, {"time": 2410, "pitch": 40, "duration": 6, "velocity": 82}, {"time": 2410, "pitch": 61, "duration": 2, "velocity": 70}, {"time": 2413, "pitch": 47, "duration": 4, "velocity": 66}, {"time": 2413, "pitch": 64, "duration": 2, "velocity": 84}, {"time": 2416, "pitch": 52, "duration": 2, "velocity": 53}, {"time": 2416, "pitch": 66, "duration": 4, "velocity": 68}, {"time": 2419, "pitch": 69, "duration": 4, "velocity": 86}, {"time": 2422, "pitch": 40, "duration": 21, "velocity": 86}, {"time": 2422, "pitch": 52, "duration": 15, "velocity": 81}, {"time": 2422, "pitch": 59, "duration": 9, "velocity": 76}, {"time": 2422, "pitch": 64, "duration": 10, "velocity": 86}, {"time": 2422, "pitch": 68, "duration": 9, "velocity": 91}, {"time": 2422, "pitch": 71, "duration": 10, "velocity": 76}, {"time": 2434, "pitch": 59, "duration": 7, "velocity": 69}, {"time": 2434, "pitch": 64, "duration": 7, "velocity": 74}, {"time": 2434, "pitch": 68, "duration": 7, "velocity": 60}, {"time": 2434, "pitch": 71, "duration": 7, "velocity": 68}, {"time": 2440, "pitch": 52, "duration": 4, "velocity": 76}, {"time": 2446, "pitch": 39, "duration": 19, "velocity": 82}, {"time": 2446, "pitch": 51, "duration": 7, "velocity": 66}, {"time": 2446, "pitch": 59, "duration": 9, "velocity": 70}, {"time": 2446, "pitch": 63, "duration": 9, "velocity": 88}, {"time": 2446, "pitch": 66, "duration": 8, "velocity": 88}, {"time": 2446, "pitch": 71, "duration": 9, "velocity": 79}, {"time": 2455, "pitch": 51, "duration": 5, "velocity": 65}, {"time": 2458, "pitch": 59, "duration": 4, "velocity": 72}, {"time": 2458, "pitch": 63, "duration": 4, "velocity": 65}, {"time": 2458, "pitch": 66, "duration": 4, "velocity": 68}, {"time": 2458, "pitch": 71, "duration": 4, "velocity": 85}, {"time": 2461, "pitch": 51, "duration": 3, "velocity": 70}, {"time": 2464, "pitch": 59, "duration": 1, "velocity": 45}, {"time": 2464, "pitch": 66, "duration": 2, "velocity": 54}, {"time": 2464, "pitch": 68, "duration": 4, "velocity": 79}, {"time": 2467, "pitch": 71, "duration": 12, "velocity": 81}, {"time": 2470, "pitch": 37, "duration": 3, "velocity": 78}, {"time": 2470, "pitch": 49, "duration": 4, "velocity": 68}, {"time": 2470, "pitch": 61, "duration": 10, "velocity": 72}, {"time": 2470, "pitch": 64, "duration": 10, "velocity": 68}, {"time": 2470, "pitch": 68, "duration": 9, "velocity": 78}, {"time": 2479, "pitch": 49, "duration": 8, "velocity": 63}, {"time": 2482, "pitch": 61, "duration": 7, "velocity": 77}, {"time": 2482, "pitch": 64, "duration": 8, "velocity": 86}, {"time": 2482, "pitch": 68, "duration": 7, "velocity": 77}, {"time": 2488, "pitch": 49, "duration": 2, "velocity": 79}, {"time": 2494, "pitch": 47, "duration": 19, "velocity": 81}, {"time": 2494, "pitch": 59, "duration": 5, "velocity": 74}, {"time": 2494, "pitch": 64, "duration": 6, "velocity": 85}, {"time": 2494, "pitch": 68, "duration": 7, "velocity": 72}, {"time": 2500, "pitch": 56, "duration": 9, "velocity": 54}, {"time": 2503, "pitch": 59, "duration": 8, "velocity": 63}, {"time": 2506, "pitch": 63, "duration": 4, "velocity": 91}, {"time": 2509, "pitch": 64, "duration": 2, "velocity": 79}, {"time": 2512, "pitch": 56, "duration": 1, "velocity": 65}, {"time": 2512, "pitch": 64, "duration": 1, "velocity": 47}, {"time": 2512, "pitch": 66, "duration": 2, "velocity": 84}, {"time": 2515, "pitch": 71, "duration": 5, "velocity": 88}, {"time": 2518, "pitch": 45, "duration": 43, "velocity": 41}, {"time": 2518, "pitch": 57, "duration": 28, "velocity": 42}, {"time": 2518, "pitch": 61, "duration": 8, "velocity": 69}, {"time": 2518, "pitch": 64, "duration": 8, "velocity": 81}, {"time": 2518, "pitch": 69, "duration": 11, "velocity": 48}, {"time": 2530, "pitch": 61, "duration": 8, "velocity": 77}, {"time": 2530, "pitch": 64, "duration": 7, "velocity": 79}, {"time": 2530, "pitch": 69, "duration": 22, "velocity": 44}, {"time": 2542, "pitch": 61, "duration": 9, "velocity": 54}, {"time": 2542, "pitch": 64, "duration": 9, "velocity": 69}, {"time": 2551, "pitch": 57, "duration": 6, "velocity": 42}, {"time": 2554, "pitch": 61, "duration": 7, "velocity": 74}, {"time": 2554, "pitch": 64, "duration": 7, "velocity": 85}, {"time": 2554, "pitch": 69, "duration": 8, "velocity": 56}, {"time": 2560, "pitch": 57, "duration": 2, "velocity": 45}, {"time": 2566, "pitch": 47, "duration": 20, "velocity": 81}, {"time": 2566, "pitch": 59, "duration": 6, "velocity": 76}, {"time": 2566, "pitch": 64, "duration": 9, "velocity": 84}, {"time": 2566, "pitch": 66, "duration": 8, "velocity": 77}, {"time": 2566, "pitch": 71, "duration": 10, "velocity": 86}, {"time": 2572, "pitch": 54, "duration": 9, "velocity": 60}, {"time": 2575, "pitch": 59, "duration": 10, "velocity": 72}, {"time": 2578, "pitch": 64, "duration": 4, "velocity": 82}, {"time": 2581, "pitch": 66, "duration": 4, "velocity": 81}, {"time": 2584, "pitch": 54, "duration": 4, "velocity": 76}, {"time": 2584, "pitch": 71, "duration": 1, "velocity": 47}, {"time": 2587, "pitch": 63, "duration": 4, "velocity": 85}, {"time": 2587, "pitch": 71, "duration": 4, "velocity": 96}, {"time": 2590, "pitch": 47, "duration": 19, "velocity": 72}, {"time": 2593, "pitch": 61, "duration": 2, "velocity": 72}, {"time": 2593, "pitch": 69, "duration": 2, "velocity": 94}, {"time": 2596, "pitch": 54, "duration": 3, "velocity": 63}, {"time": 2599, "pitch": 59, "duration": 4, "velocity": 63}, {"time": 2599, "pitch": 68, "duration": 4, "velocity": 68}, {"time": 2602, "pitch": 54, "duration": 3, "velocity": 78}, {"time": 2605, "pitch": 59, "duration": 5, "velocity": 60}, {"time": 2605, "pitch": 66, "duration": 4, "velocity": 79}, {"time": 2608, "pitch": 54, "duration": 1, "velocity": 88}, {"time": 2608, "pitch": 68, "duration": 2, "velocity": 72}, {"time": 2611, "pitch": 64, "duration": 2, "velocity": 56}, {"time": 2614, "pitch": 44, "duration": 20, "velocity": 72}, {"time": 2614, "pitch": 59, "duration": 5, "velocity": 70}, {"time": 2614, "pitch": 63, "duration": 5, "velocity": 82}, {"time": 2614, "pitch": 66, "duration": 5, "velocity": 90}, {"time": 2614, "pitch": 71, "duration": 5, "velocity": 66}, {"time": 2617, "pitch": 56, "duration": 10, "velocity": 42}, {"time": 2620, "pitch": 59, "duration": 5, "velocity": 54}, {"time": 2623, "pitch": 66, "duration": 3, "velocity": 92}, {"time": 2626, "pitch": 59, "duration": 3, "velocity": 76}, {"time": 2626, "pitch": 66, "duration": 1, "velocity": 57}, {"time": 2626, "pitch": 71, "duration": 7, "velocity": 85}, {"time": 2629, "pitch": 56, "duration": 4, "velocity": 39}, {"time": 2629, "pitch": 59, "duration": 1, "velocity": 69}, {"time": 2629, "pitch": 66, "duration": 3, "velocity": 94}, {"time": 2632, "pitch": 51, "duration": 6, "velocity": 72}, {"time": 2635, "pitch": 59, "duration": 4, "velocity": 76}, {"time": 2635, "pitch": 63, "duration": 4, "velocity": 88}, {"time": 2635, "pitch": 66, "duration": 4, "velocity": 92}, {"time": 2635, "pitch": 71, "duration": 5, "velocity": 65}, {"time": 2638, "pitch": 44, "duration": 19, "velocity": 60}, {"time": 2641, "pitch": 51, "duration": 11, "velocity": 72}, {"time": 2644, "pitch": 56, "duration": 4, "velocity": 54}, {"time": 2647, "pitch": 66, "duration": 2, "velocity": 72}, {"time": 2647, "pitch": 71, "duration": 2, "velocity": 54}, {"time": 2647, "pitch": 78, "duration": 2, "velocity": 85}, {"time": 2650, "pitch": 56, "duration": 4, "velocity": 47}, {"time": 2650, "pitch": 66, "duration": 3, "velocity": 74}, {"time": 2650, "pitch": 71, "duration": 3, "velocity": 84}, {"time": 2650, "pitch": 78, "duration": 3, "velocity": 79}, {"time": 2653, "pitch": 68, "duration": 3, "velocity": 72}, {"time": 2653, "pitch": 71, "duration": 1, "velocity": 69}, {"time": 2653, "pitch": 76, "duration": 3, "velocity": 97}, {"time": 2656, "pitch": 51, "duration": 2, "velocity": 84}, {"time": 2656, "pitch": 56, "duration": 5, "velocity": 44}, {"time": 2659, "pitch": 66, "duration": 2, "velocity": 70}, {"time": 2659, "pitch": 75, "duration": 3, "velocity": 90}, {"time": 2662, "pitch": 49, "duration": 21, "velocity": 85}, {"time": 2662, "pitch": 68, "duration": 5, "velocity": 63}, {"time": 2662, "pitch": 71, "duration": 5, "velocity": 84}, {"time": 2662, "pitch": 76, "duration": 4, "velocity": 96}, {"time": 2665, "pitch": 56, "duration": 13, "velocity": 57}, {"time": 2668, "pitch": 61, "duration": 4, "velocity": 60}, {"time": 2671, "pitch": 64, "duration": 5, "velocity": 72}, {"time": 2671, "pitch": 68, "duration": 5, "velocity": 69}, {"time": 2674, "pitch": 61, "duration": 4, "velocity": 50}, {"time": 2677, "pitch": 63, "duration": 4, "velocity": 76}, {"time": 2677, "pitch": 66, "duration": 4, "velocity": 88}, {"time": 2680, "pitch": 56, "duration": 5, "velocity": 54}, {"time": 2683, "pitch": 64, "duration": 1, "velocity": 81}, {"time": 2683, "pitch": 68, "duration": 2, "velocity": 79}, {"time": 2686, "pitch": 49, "duration": 14, "velocity": 78}, {"time": 2689, "pitch": 56, "duration": 6, "velocity": 63}, {"time": 2689, "pitch": 68, "duration": 1, "velocity": 54}, {"time": 2689, "pitch": 76, "duration": 1, "velocity": 94}, {"time": 2692, "pitch": 68, "duration": 1, "velocity": 66}, {"time": 2692, "pitch": 76, "duration": 2, "velocity": 94}, {"time": 2695, "pitch": 61, "duration": 2, "velocity": 54}, {"time": 2695, "pitch": 66, "duration": 1, "velocity": 81}, {"time": 2695, "pitch": 75, "duration": 1, "velocity": 72}, {"time": 2698, "pitch": 56, "duration": 7, "velocity": 63}, {"time": 2698, "pitch": 66, "duration": 1, "velocity": 79}, {"time": 2698, "pitch": 75, "duration": 2, "velocity": 76}, {"time": 2701, "pitch": 64, "duration": 3, "velocity": 72}, {"time": 2701, "pitch": 71, "duration": 2, "velocity": 86}, {"time": 2704, "pitch": 47, "duration": 3, "velocity": 63}, {"time": 2707, "pitch": 64, "duration": 2, "velocity": 68}, {"time": 2710, "pitch": 45, "duration": 20, "velocity": 63}, {"time": 2710, "pitch": 61, "duration": 7, "velocity": 66}, {"time": 2710, "pitch": 64, "duration": 7, "velocity": 81}, {"time": 2710, "pitch": 68, "duration": 6, "velocity": 65}, {"time": 2716, "pitch": 52, "duration": 13, "velocity": 60}, {"time": 2719, "pitch": 57, "duration": 5, "velocity": 69}, {"time": 2722, "pitch": 61, "duration": 5, "velocity": 69}, {"time": 2722, "pitch": 64, "duration": 5, "velocity": 76}, {"time": 2722, "pitch": 68, "duration": 4, "velocity": 63}, {"time": 2725, "pitch": 57, "duration": 4, "velocity": 53}, {"time": 2728, "pitch": 61, "duration": 1, "velocity": 31}, {"time": 2734, "pitch": 46, "duration": 19, "velocity": 79}, {"time": 2734, "pitch": 61, "duration": 7, "velocity": 70}, {"time": 2734, "pitch": 64, "duration": 7, "velocity": 68}, {"time": 2734, "pitch": 68, "duration": 6, "velocity": 79}, {"time": 2740, "pitch": 58, "duration": 7, "velocity": 44}, {"time": 2743, "pitch": 61, "duration": 2, "velocity": 51}, {"time": 2746, "pitch": 61, "duration": 5, "velocity": 77}, {"time": 2746, "pitch": 64, "duration": 5, "velocity": 76}, {"time": 2746, "pitch": 68, "duration": 5, "velocity": 86}, {"time": 2749, "pitch": 58, "duration": 3, "velocity": 48}, {"time": 2752, "pitch": 66, "duration": 2, "velocity": 72}, {"time": 2755, "pitch": 68, "duration": 2, "velocity": 65}, {"time": 2758, "pitch": 35, "duration": 2, "velocity": 97}, {"time": 2758, "pitch": 59, "duration": 8, "velocity": 90}, {"time": 2758, "pitch": 64, "duration": 9, "velocity": 77}, {"time": 2758, "pitch": 71, "duration": 15, "velocity": 97}, {"time": 2764, "pitch": 47, "duration": 12, "velocity": 63}, {"time": 2767, "pitch": 52, "duration": 9, "velocity": 70}, {"time": 2770, "pitch": 54, "duration": 9, "velocity": 79}, {"time": 2773, "pitch": 59, "duration": 3, "velocity": 79}, {"time": 2776, "pitch": 64, "duration": 4, "velocity": 65}, {"time": 2779, "pitch": 66, "duration": 2, "velocity": 94}, {"time": 2782, "pitch": 47, "duration": 17, "velocity": 78}, {"time": 2785, "pitch": 54, "duration": 3, "velocity": 79}, {"time": 2785, "pitch": 71, "duration": 2, "velocity": 66}, {"time": 2785, "pitch": 83, "duration": 1, "velocity": 66}, {"time": 2788, "pitch": 54, "duration": 1, "velocity": 81}, {"time": 2788, "pitch": 59, "duration": 3, "velocity": 56}, {"time": 2790, "pitch": 69, "duration": 1, "velocity": 53}, {"time": 2790, "pitch": 81, "duration": 1, "velocity": 85}, {"time": 2791, "pitch": 59, "duration": 4, "velocity": 54}, {"time": 2794, "pitch": 54, "duration": 5, "velocity": 86}, {"time": 2794, "pitch": 68, "duration": 2, "velocity": 59}, {"time": 2794, "pitch": 80, "duration": 2, "velocity": 96}, {"time": 2798, "pitch": 66, "duration": 2, "velocity": 84}, {"time": 2798, "pitch": 78, "duration": 1, "velocity": 91}, {"time": 2801, "pitch": 64, "duration": 2, "velocity": 60}, {"time": 2801, "pitch": 76, "duration": 2, "velocity": 72}, {"time": 2806, "pitch": 40, "duration": 6, "velocity": 82}, {"time": 2806, "pitch": 59, "duration": 8, "velocity": 74}, {"time": 2806, "pitch": 64, "duration": 7, "velocity": 85}, {"time": 2806, "pitch": 68, "duration": 6, "velocity": 85}, {"time": 2812, "pitch": 52, "duration": 4, "velocity": 54}, {"time": 2815, "pitch": 54, "duration": 6, "velocity": 60}, {"time": 2818, "pitch": 56, "duration": 4, "velocity": 60}, {"time": 2821, "pitch": 68, "duration": 2, "velocity": 103}, {"time": 2824, "pitch": 68, "duration": 1, "velocity": 22}, {"time": 2824, "pitch": 71, "duration": 4, "velocity": 90}, {"time": 2827, "pitch": 76, "duration": 4, "velocity": 96}, {"time": 2830, "pitch": 39, "duration": 4, "velocity": 86}, {"time": 2830, "pitch": 66, "duration": 8, "velocity": 85}, {"time": 2830, "pitch": 75, "duration": 9, "velocity": 101}, {"time": 2833, "pitch": 51, "duration": 5, "velocity": 60}, {"time": 2836, "pitch": 54, "duration": 11, "velocity": 77}, {"time": 2839, "pitch": 66, "duration": 6, "velocity": 78}, {"time": 2839, "pitch": 71, "duration": 5, "velocity": 78}, {"time": 2839, "pitch": 75, "duration": 1, "velocity": 31}, {"time": 2839, "pitch": 78, "duration": 7, "velocity": 94}, {"time": 2842, "pitch": 56, "duration": 6, "velocity": 63}, {"time": 2845, "pitch": 59, "duration": 3, "velocity": 72}, {"time": 2848, "pitch": 73, "duration": 2, "velocity": 84}, {"time": 2851, "pitch": 75, "duration": 3, "velocity": 84}, {"time": 2854, "pitch": 49, "duration": 20, "velocity": 72}, {"time": 2854, "pitch": 68, "duration": 6, "velocity": 60}, {"time": 2854, "pitch": 71, "duration": 6, "velocity": 77}, {"time": 2854, "pitch": 76, "duration": 5, "velocity": 96}, {"time": 2857, "pitch": 56, "duration": 7, "velocity": 63}, {"time": 2860, "pitch": 61, "duration": 6, "velocity": 59}, {"time": 2863, "pitch": 64, "duration": 4, "velocity": 68}, {"time": 2863, "pitch": 68, "duration": 3, "velocity": 86}, {"time": 2866, "pitch": 56, "duration": 4, "velocity": 60}, {"time": 2869, "pitch": 64, "duration": 5, "velocity": 76}, {"time": 2869, "pitch": 71, "duration": 5, "velocity": 94}, {"time": 2872, "pitch": 56, "duration": 5, "velocity": 65}, {"time": 2875, "pitch": 66, "duration": 8, "velocity": 72}, {"time": 2878, "pitch": 47, "duration": 19, "velocity": 63}, {"time": 2878, "pitch": 63, "duration": 7, "velocity": 82}, {"time": 2878, "pitch": 71, "duration": 7, "velocity": 86}, {"time": 2881, "pitch": 56, "duration": 9, "velocity": 60}, {"time": 2884, "pitch": 59, "duration": 9, "velocity": 54}, {"time": 2887, "pitch": 63, "duration": 4, "velocity": 68}, {"time": 2890, "pitch": 64, "duration": 2, "velocity": 68}, {"time": 2893, "pitch": 63, "duration": 1, "velocity": 31}, {"time": 2893, "pitch": 66, "duration": 2, "velocity": 70}, {"time": 2896, "pitch": 56, "duration": 2, "velocity": 74}, {"time": 2896, "pitch": 68, "duration": 2, "velocity": 68}, {"time": 2899, "pitch": 71, "duration": 9, "velocity": 84}, {"time": 2902, "pitch": 45, "duration": 21, "velocity": 72}, {"time": 2902, "pitch": 61, "duration": 8, "velocity": 68}, {"time": 2902, "pitch": 64, "duration": 7, "velocity": 66}, {"time": 2902, "pitch": 69, "duration": 8, "velocity": 66}, {"time": 2905, "pitch": 52, "duration": 17, "velocity": 76}, {"time": 2908, "pitch": 57, "duration": 7, "velocity": 56}, {"time": 2911, "pitch": 61, "duration": 2, "velocity": 57}, {"time": 2914, "pitch": 61, "duration": 4, "velocity": 76}, {"time": 2914, "pitch": 64, "duration": 6, "velocity": 70}, {"time": 2914, "pitch": 69, "duration": 7, "velocity": 70}, {"time": 2917, "pitch": 57, "duration": 6, "velocity": 39}, {"time": 2920, "pitch": 61, "duration": 2, "velocity": 53}, {"time": 2923, "pitch": 61, "duration": 1, "velocity": 51}, {"time": 2923, "pitch": 64, "duration": 2, "velocity": 79}, {"time": 2923, "pitch": 69, "duration": 2, "velocity": 53}, {"time": 2926, "pitch": 45, "duration": 20, "velocity": 48}, {"time": 2926, "pitch": 61, "duration": 1, "velocity": 60}, {"time": 2926, "pitch": 64, "duration": 1, "velocity": 68}, {"time": 2926, "pitch": 69, "duration": 2, "velocity": 41}, {"time": 2929, "pitch": 52, "duration": 16, "velocity": 90}, {"time": 2932, "pitch": 57, "duration": 3, "velocity": 63}, {"time": 2932, "pitch": 69, "duration": 1, "velocity": 27}, {"time": 2935, "pitch": 69, "duration": 2, "velocity": 59}, {"time": 2935, "pitch": 81, "duration": 1, "velocity": 72}, {"time": 2938, "pitch": 57, "duration": 1, "velocity": 57}, {"time": 2938, "pitch": 69, "duration": 2, "velocity": 60}, {"time": 2938, "pitch": 81, "duration": 2, "velocity": 63}, {"time": 2941, "pitch": 57, "duration": 2, "velocity": 23}, {"time": 2944, "pitch": 57, "duration": 3, "velocity": 39}, {"time": 2944, "pitch": 68, "duration": 2, "velocity": 69}, {"time": 2944, "pitch": 80, "duration": 1, "velocity": 79}, {"time": 2947, "pitch": 66, "duration": 2, "velocity": 65}, {"time": 2947, "pitch": 78, "duration": 2, "velocity": 60}, {"time": 2950, "pitch": 47, "duration": 19, "velocity": 76}, {"time": 2950, "pitch": 66, "duration": 4, "velocity": 74}, {"time": 2950, "pitch": 78, "duration": 3, "velocity": 82}, {"time": 2953, "pitch": 54, "duration": 6, "velocity": 74}, {"time": 2956, "pitch": 59, "duration": 4, "velocity": 50}, {"time": 2959, "pitch": 64, "duration": 4, "velocity": 79}, {"time": 2959, "pitch": 66, "duration": 4, "velocity": 79}, {"time": 2962, "pitch": 54, "duration": 6, "velocity": 85}, {"time": 2965, "pitch": 59, "duration": 3, "velocity": 65}, {"time": 2968, "pitch": 64, "duration": 1, "velocity": 82}, {"time": 2971, "pitch": 59, "duration": 5, "velocity": 90}, {"time": 2971, "pitch": 63, "duration": 5, "velocity": 81}, {"time": 2974, "pitch": 35, "duration": 18, "velocity": 85}, {"time": 2977, "pitch": 47, "duration": 2, "velocity": 60}, {"time": 2977, "pitch": 54, "duration": 3, "velocity": 74}, {"time": 2977, "pitch": 59, "duration": 3, "velocity": 62}, {"time": 2977, "pitch": 66, "duration": 3, "velocity": 96}, {"time": 2980, "pitch": 47, "duration": 3, "velocity": 50}, {"time": 2983, "pitch": 56, "duration": 4, "velocity": 56}, {"time": 2983, "pitch": 59, "duration": 3, "velocity": 78}, {"time": 2983, "pitch": 64, "duration": 3, "velocity": 74}, {"time": 2986, "pitch": 47, "duration": 4, "velocity": 50}, {"time": 2989, "pitch": 54, "duration": 6, "velocity": 85}, {"time": 2989, "pitch": 59, "duration": 5, "velocity": 70}, {"time": 2989, "pitch": 63, "duration": 6, "velocity": 63}, {"time": 2989, "pitch": 66, "duration": 7, "velocity": 60}, {"time": 2992, "pitch": 47, "duration": 6, "velocity": 50}, {"time": 2995, "pitch": 46, "duration": 4, "velocity": 77}, {"time": 2998, "pitch": 44, "duration": 24, "velocity": 77}, {"time": 2998, "pitch": 54, "duration": 8, "velocity": 81}, {"time": 2998, "pitch": 59, "duration": 8, "velocity": 70}, {"time": 2998, "pitch": 63, "duration": 8, "velocity": 88}, {"time": 3001, "pitch": 66, "duration": 5, "velocity": 2}, {"time": 3010, "pitch": 54, "duration": 7, "velocity": 76}, {"time": 3010, "pitch": 59, "duration": 7, "velocity": 90}, {"time": 3010, "pitch": 63, "duration": 7, "velocity": 97}, {"time": 3010, "pitch": 66, "duration": 6, "velocity": 60}, {"time": 3016, "pitch": 61, "duration": 5, "velocity": 62}, {"time": 3019, "pitch": 54, "duration": 1, "velocity": 37}, {"time": 3019, "pitch": 63, "duration": 2, "velocity": 74}, {"time": 3022, "pitch": 44, "duration": 16, "velocity": 33}, {"time": 3022, "pitch": 54, "duration": 5, "velocity": 84}, {"time": 3022, "pitch": 59, "duration": 5, "velocity": 86}, {"time": 3022, "pitch": 63, "duration": 5, "velocity": 72}, {"time": 3022, "pitch": 66, "duration": 7, "velocity": 69}, {"time": 3031, "pitch": 54, "duration": 2, "velocity": 56}, {"time": 3031, "pitch": 59, "duration": 2, "velocity": 60}, {"time": 3031, "pitch": 63, "duration": 2, "velocity": 63}, {"time": 3034, "pitch": 54, "duration": 7, "velocity": 86}, {"time": 3034, "pitch": 59, "duration": 7, "velocity": 85}, {"time": 3034, "pitch": 63, "duration": 7, "velocity": 77}, {"time": 3034, "pitch": 66, "duration": 6, "velocity": 74}, {"time": 3040, "pitch": 44, "duration": 2, "velocity": 69}, {"time": 3043, "pitch": 61, "duration": 2, "velocity": 51}, {"time": 3043, "pitch": 63, "duration": 2, "velocity": 74}, {"time": 3046, "pitch": 37, "duration": 22, "velocity": 66}, {"time": 3046, "pitch": 49, "duration": 11, "velocity": 38}, {"time": 3046, "pitch": 56, "duration": 6, "velocity": 63}, {"time": 3046, "pitch": 59, "duration": 6, "velocity": 82}, {"time": 3046, "pitch": 64, "duration": 6, "velocity": 68}, {"time": 3055, "pitch": 56, "duration": 2, "velocity": 50}, {"time": 3055, "pitch": 59, "duration": 2, "velocity": 65}, {"time": 3055, "pitch": 64, "duration": 3, "velocity": 54}, {"time": 3058, "pitch": 49, "duration": 5, "velocity": 63}, {"time": 3058, "pitch": 56, "duration": 8, "velocity": 60}, {"time": 3058, "pitch": 59, "duration": 6, "velocity": 78}, {"time": 3058, "pitch": 64, "duration": 7, "velocity": 38}, {"time": 3067, "pitch": 49, "duration": 4, "velocity": 47}, {"time": 3070, "pitch": 37, "duration": 5, "velocity": 74}, {"time": 3070, "pitch": 56, "duration": 3, "velocity": 60}, {"time": 3070, "pitch": 59, "duration": 3, "velocity": 82}, {"time": 3070, "pitch": 64, "duration": 4, "velocity": 79}, {"time": 3073, "pitch": 49, "duration": 2, "velocity": 45}, {"time": 3073, "pitch": 54, "duration": 2, "velocity": 74}, {"time": 3073, "pitch": 63, "duration": 4, "velocity": 88}, {"time": 3079, "pitch": 56, "duration": 2, "velocity": 60}, {"time": 3079, "pitch": 64, "duration": 2, "velocity": 82}, {"time": 3082, "pitch": 35, "duration": 5, "velocity": 91}, {"time": 3082, "pitch": 54, "duration": 4, "velocity": 57}, {"time": 3082, "pitch": 63, "duration": 5, "velocity": 79}, {"time": 3085, "pitch": 47, "duration": 4, "velocity": 65}, {"time": 3088, "pitch": 59, "duration": 3, "velocity": 79}, {"time": 3091, "pitch": 61, "duration": 2, "velocity": 63}, {"time": 3097, "pitch": 45, "duration": 2, "velocity": 86}, {"time": 3097, "pitch": 57, "duration": 2, "velocity": 84}, {"time": 3097, "pitch": 61, "duration": 2, "velocity": 79}, {"time": 3097, "pitch": 64, "duration": 2, "velocity": 77}, {"time": 3097, "pitch": 69, "duration": 2, "velocity": 90}, {"time": 3101, "pitch": 44, "duration": 1, "velocity": 86}, {"time": 3101, "pitch": 56, "duration": 1, "velocity": 82}, {"time": 3101, "pitch": 59, "duration": 2, "velocity": 84}, {"time": 3101, "pitch": 64, "duration": 2, "velocity": 78}, {"time": 3101, "pitch": 68, "duration": 2, "velocity": 79}, {"time": 3106, "pitch": 45, "duration": 2, "velocity": 86}, {"time": 3106, "pitch": 57, "duration": 2, "velocity": 77}, {"time": 3106, "pitch": 61, "duration": 2, "velocity": 58}, {"time": 3106, "pitch": 64, "duration": 3, "velocity": 80}, {"time": 3106, "pitch": 69, "duration": 2, "velocity": 80}, {"time": 3111, "pitch": 47, "duration": 2, "velocity": 91}, {"time": 3111, "pitch": 59, "duration": 2, "velocity": 86}, {"time": 3111, "pitch": 63, "duration": 2, "velocity": 80}, {"time": 3111, "pitch": 66, "duration": 2, "velocity": 83}, {"time": 3111, "pitch": 71, "duration": 2, "velocity": 80}, {"time": 3115, "pitch": 47, "duration": 18, "velocity": 86}, {"time": 3115, "pitch": 59, "duration": 18, "velocity": 91}, {"time": 3115, "pitch": 63, "duration": 22, "velocity": 84}, {"time": 3115, "pitch": 66, "duration": 22, "velocity": 86}, {"time": 3115, "pitch": 69, "duration": 21, "velocity": 73}, {"time": 3115, "pitch": 71, "duration": 9, "velocity": 84}, {"time": 3115, "pitch": 35, "duration": 19, "velocity": 100}, {"time": 3166, "pitch": 59, "duration": 18, "velocity": 38}, {"time": 3166, "pitch": 64, "duration": 18, "velocity": 31}, {"time": 3166, "pitch": 71, "duration": 17, "velocity": 19}, {"time": 3185, "pitch": 59, "duration": 4, "velocity": 69}, {"time": 3188, "pitch": 64, "duration": 7, "velocity": 77}, {"time": 3191, "pitch": 40, "duration": 19, "velocity": 78}, {"time": 3191, "pitch": 61, "duration": 5, "velocity": 63}, {"time": 3192, "pitch": 52, "duration": 14, "velocity": 62}, {"time": 3192, "pitch": 69, "duration": 4, "velocity": 81}, {"time": 3198, "pitch": 59, "duration": 4, "velocity": 67}, {"time": 3198, "pitch": 71, "duration": 5, "velocity": 56}, {"time": 3204, "pitch": 68, "duration": 5, "velocity": 76}, {"time": 3204, "pitch": 59, "duration": 5, "velocity": 67}, {"time": 3205, "pitch": 64, "duration": 4, "velocity": 57}, {"time": 3209, "pitch": 52, "duration": 1, "velocity": 84}, {"time": 3214, "pitch": 59, "duration": 7, "velocity": 82}, {"time": 3214, "pitch": 64, "duration": 8, "velocity": 80}, {"time": 3214, "pitch": 68, "duration": 6, "velocity": 78}, {"time": 3214, "pitch": 38, "duration": 40, "velocity": 86}, {"time": 3214, "pitch": 50, "duration": 16, "velocity": 86}, {"time": 3227, "pitch": 68, "duration": 7, "velocity": 71}, {"time": 3227, "pitch": 59, "duration": 6, "velocity": 68}, {"time": 3227, "pitch": 64, "duration": 6, "velocity": 74}, {"time": 3235, "pitch": 50, "duration": 7, "velocity": 14}, {"time": 3239, "pitch": 68, "duration": 7, "velocity": 76}, {"time": 3239, "pitch": 59, "duration": 6, "velocity": 74}, {"time": 3239, "pitch": 64, "duration": 7, "velocity": 76}, {"time": 3247, "pitch": 50, "duration": 6, "velocity": 15}, {"time": 3250, "pitch": 59, "duration": 6, "velocity": 76}, {"time": 3250, "pitch": 64, "duration": 6, "velocity": 79}, {"time": 3251, "pitch": 68, "duration": 5, "velocity": 79}, {"time": 3256, "pitch": 38, "duration": 5, "velocity": 84}, {"time": 3256, "pitch": 50, "duration": 1, "velocity": 73}, {"time": 3262, "pitch": 64, "duration": 8, "velocity": 83}, {"time": 3262, "pitch": 69, "duration": 6, "velocity": 86}, {"time": 3262, "pitch": 61, "duration": 7, "velocity": 76}, {"time": 3262, "pitch": 37, "duration": 39, "velocity": 90}, {"time": 3262, "pitch": 49, "duration": 14, "velocity": 83}, {"time": 3274, "pitch": 69, "duration": 7, "velocity": 83}, {"time": 3275, "pitch": 64, "duration": 6, "velocity": 80}, {"time": 3275, "pitch": 61, "duration": 7, "velocity": 79}, {"time": 3281, "pitch": 49, "duration": 7, "velocity": 68}, {"time": 3287, "pitch": 69, "duration": 6, "velocity": 82}, {"time": 3287, "pitch": 61, "duration": 7, "velocity": 75}, {"time": 3287, "pitch": 64, "duration": 7, "velocity": 79}, {"time": 3292, "pitch": 49, "duration": 9, "velocity": 59}, {"time": 3298, "pitch": 64, "duration": 7, "velocity": 84}, {"time": 3298, "pitch": 69, "duration": 6, "velocity": 86}, {"time": 3298, "pitch": 61, "duration": 7, "velocity": 80}, {"time": 3304, "pitch": 37, "duration": 1, "velocity": 90}, {"time": 3304, "pitch": 49, "duration": 1, "velocity": 79}, {"time": 3310, "pitch": 36, "duration": 20, "velocity": 91}, {"time": 3310, "pitch": 48, "duration": 5, "velocity": 83}, {"time": 3310, "pitch": 64, "duration": 8, "velocity": 86}, {"time": 3310, "pitch": 61, "duration": 6, "velocity": 79}, {"time": 3310, "pitch": 69, "duration": 6, "velocity": 84}, {"time": 3316, "pitch": 48, "duration": 8, "velocity": 51}, {"time": 3322, "pitch": 61, "duration": 7, "velocity": 76}, {"time": 3322, "pitch": 64, "duration": 7, "velocity": 83}, {"time": 3322, "pitch": 69, "duration": 6, "velocity": 82}, {"time": 3328, "pitch": 48, "duration": 1, "velocity": 90}, {"time": 3334, "pitch": 71, "duration": 6, "velocity": 86}, {"time": 3334, "pitch": 64, "duration": 7, "velocity": 82}, {"time": 3334, "pitch": 59, "duration": 7, "velocity": 80}, {"time": 3334, "pitch": 35, "duration": 18, "velocity": 98}, {"time": 3334, "pitch": 47, "duration": 4, "velocity": 79}, {"time": 3340, "pitch": 47, "duration": 9, "velocity": 79}, {"time": 3346, "pitch": 69, "duration": 1, "velocity": 82}, {"time": 3346, "pitch": 59, "duration": 1, "velocity": 83}, {"time": 3346, "pitch": 64, "duration": 1, "velocity": 72}, {"time": 3351, "pitch": 71, "duration": 1, "velocity": 90}, {"time": 3351, "pitch": 64, "duration": 1, "velocity": 80}, {"time": 3351, "pitch": 47, "duration": 1, "velocity": 79}, {"time": 3357, "pitch": 59, "duration": 4, "velocity": 78}, {"time": 3357, "pitch": 64, "duration": 4, "velocity": 72}, {"time": 3357, "pitch": 68, "duration": 4, "velocity": 61}, {"time": 3357, "pitch": 40, "duration": 20, "velocity": 84}, {"time": 3361, "pitch": 52, "duration": 15, "velocity": 80}, {"time": 3362, "pitch": 59, "duration": 1, "velocity": 61}, {"time": 3364, "pitch": 64, "duration": 2, "velocity": 78}, {"time": 3365, "pitch": 66, "duration": 1, "velocity": 68}, {"time": 3366, "pitch": 68, "duration": 1, "velocity": 75}, {"time": 3367, "pitch": 71, "duration": 1, "velocity": 90}, {"time": 3368, "pitch": 76, "duration": 2, "velocity": 76}, {"time": 3370, "pitch": 78, "duration": 1, "velocity": 75}, {"time": 3372, "pitch": 83, "duration": 1, "velocity": 12}, {"time": 3372, "pitch": 88, "duration": 2, "velocity": 62}, {"time": 3374, "pitch": 90, "duration": 2, "velocity": 75}, {"time": 3375, "pitch": 92, "duration": 3, "velocity": 49}, {"time": 3378, "pitch": 95, "duration": 1, "velocity": 80}], "annotations": [{"time": 11, "annotation": {"number": 64, "value": 127}, "group": "control_change"}, {"time": 24, "annotation": {"number": 64, "value": 127}, "group": "control_change"}, {"time": 69, "annotation": {"number": 64, "value": 0}, "group": "control_change"}, {"time": 72, "annotation": {"number": 64, "value": 127}, "group": "control_change"}, {"time": 94, "annotation": {"number": 64, "value": 0}, "group": "control_change"}, {"time": 95, "annotation": {"number": 64, "value": 0}, "group": "control_change"}, {"time": 95, "annotation": {"number": 64, "value": 127}, "group": "control_change"}, {"time": 118, "annotation": {"number": 64, "value": 127}, "group": "control_change"}, {"time": 119, "annotation": {"number": 64, "value": 0}, "group": "control_change"}, {"time": 143, "annotation": {"number": 64, "value": 0}, "group": "control_change"}, {"time": 146, "annotation": {"number": 64, "value": 127}, "group": "control_change"}, {"time": 165, "annotation": {"number": 64, "value": 0}, "group": "control_change"}, {"time": 166, "annotation": {"number": 64, "value": 0}, "group": "control_change"}, {"time": 168, "annotation": {"number": 64, "value": 127}, "group": "control_change"}, {"time": 202, "annotation": {"number": 64, "value": 127}, "group": "control_change"}, {"time": 203, "annotation": {"number": 64, "value": 0}, "group": "control_change"}, {"time": 214, "annotation": {"number": 64, "value": 0}, "group": "control_change"}, {"time": 217, "annotation": {"number": 64, "value": 127}, "group": "control_change"}, {"time": 238, "annotation": {"number": 64, "value": 127}, "group": "control_change"}, {"time": 254, "annotation": {"number": 64, "value": 0}, "group": "control_change"}, {"time": 262, "annotation": {"number": 64, "value": 0}, "group": "control_change"}, {"time": 264, "annotation": {"number": 64, "value": 127}, "group": "control_change"}, {"time": 309, "annotation": {"number": 64, "value": 0}, "group": "control_change"}, {"time": 310, "annotation": {"number": 64, "value": 127}, "group": "control_change"}, {"time": 333, "annotation": {"number": 64, "value": 0}, "group": "control_change"}, {"time": 335, "annotation": {"number": 64, "value": 127}, "group": "control_change"}, {"time": 358, "annotation": {"number": 64, "value": 0}, "group": "control_change"}, {"time": 361, "annotation": {"number": 64, "value": 127}, "group": "control_change"}, {"time": 382, "annotation": {"number": 64, "value": 0}, "group": "control_change"}, {"time": 384, "annotation": {"number": 64, "value": 127}, "group": "control_change"}, {"time": 406, "annotation": {"number": 64, "value": 0}, "group": "control_change"}, {"time": 408, "annotation": {"number": 64, "value": 127}, "group": "control_change"}, {"time": 429, "annotation": {"number": 64, "value": 0}, "group": "control_change"}, {"time": 431, "annotation": {"number": 64, "value": 127}, "group": "control_change"}, {"time": 453, "annotation": {"number": 64, "value": 0}, "group": "control_change"}, {"time": 455, "annotation": {"number": 64, "value": 127}, "group": "control_change"}, {"time": 477, "annotation": {"number": 64, "value": 0}, "group": "control_change"}, {"time": 479, "annotation": {"number": 64, "value": 127}, "group": "control_change"}, {"time": 501, "annotation": {"number": 64, "value": 0}, "group": "control_change"}, {"time": 504, "annotation": {"number": 64, "value": 127}, "group": "control_change"}, {"time": 525, "annotation": {"number": 64, "value": 0}, "group": "control_change"}, {"time": 525, "annotation": {"number": 64, "value": 127}, "group": "control_change"}, {"time": 550, "annotation": {"number": 64, "value": 0}, "group": "control_change"}, {"time": 552, "annotation": {"number": 64, "value": 127}, "group": "control_change"}, {"time": 573, "annotation": {"number": 64, "value": 0}, "group": "control_change"}, {"time": 576, "annotation": {"number": 64, "value": 127}, "group": "control_change"}, {"time": 599, "annotation": {"number": 64, "value": 0}, "group": "control_change"}, {"time": 601, "annotation": {"number": 64, "value": 127}, "group": "control_change"}, {"time": 621, "annotation": {"number": 64, "value": 0}, "group": "control_change"}, {"time": 624, "annotation": {"number": 64, "value": 127}, "group": "control_change"}, {"time": 647, "annotation": {"number": 64, "value": 0}, "group": "control_change"}, {"time": 648, "annotation": {"number": 64, "value": 127}, "group": "control_change"}, {"time": 694, "annotation": {"number": 64, "value": 0}, "group": "control_change"}, {"time": 696, "annotation": {"number": 64, "value": 127}, "group": "control_change"}, {"time": 718, "annotation": {"number": 64, "value": 0}, "group": "control_change"}, {"time": 720, "annotation": {"number": 64, "value": 127}, "group": "control_change"}, {"time": 741, "annotation": {"number": 64, "value": 127}, "group": "control_change"}, {"time": 767, "annotation": {"number": 64, "value": 0}, "group": "control_change"}, {"time": 769, "annotation": {"number": 64, "value": 127}, "group": "control_change"}, {"time": 790, "annotation": {"number": 64, "value": 0}, "group": "control_change"}, {"time": 793, "annotation": {"number": 64, "value": 127}, "group": "control_change"}, {"time": 814, "annotation": {"number": 64, "value": 0}, "group": "control_change"}, {"time": 816, "annotation": {"number": 64, "value": 127}, "group": "control_change"}, {"time": 838, "annotation": {"number": 64, "value": 0}, "group": "control_change"}, {"time": 840, "annotation": {"number": 64, "value": 127}, "group": "control_change"}, {"time": 862, "annotation": {"number": 64, "value": 0}, "group": "control_change"}, {"time": 864, "annotation": {"number": 64, "value": 127}, "group": "control_change"}, {"time": 886, "annotation": {"number": 64, "value": 0}, "group": "control_change"}, {"time": 889, "annotation": {"number": 64, "value": 127}, "group": "control_change"}, {"time": 910, "annotation": {"number": 64, "value": 0}, "group": "control_change"}, {"time": 913, "annotation": {"number": 64, "value": 127}, "group": "control_change"}, {"time": 934, "annotation": {"number": 64, "value": 0}, "group": "control_change"}, {"time": 935, "annotation": {"number": 64, "value": 127}, "group": "control_change"}, {"time": 947, "annotation": {"number": 64, "value": 0}, "group": "control_change"}, {"time": 949, "annotation": {"number": 64, "value": 127}, "group": "control_change"}, {"time": 958, "annotation": {"number": 64, "value": 0}, "group": "control_change"}, {"time": 960, "annotation": {"number": 64, "value": 127}, "group": "control_change"}, {"time": 982, "annotation": {"number": 64, "value": 0}, "group": "control_change"}, {"time": 984, "annotation": {"number": 64, "value": 127}, "group": "control_change"}, {"time": 1019, "annotation": {"number": 64, "value": 0}, "group": "control_change"}, {"time": 1020, "annotation": {"number": 64, "value": 127}, "group": "control_change"}, {"time": 1029, "annotation": {"number": 64, "value": 0}, "group": "control_change"}, {"time": 1031, "annotation": {"number": 64, "value": 127}, "group": "control_change"}, {"time": 1054, "annotation": {"number": 64, "value": 0}, "group": "control_change"}, {"time": 1055, "annotation": {"number": 64, "value": 127}, "group": "control_change"}, {"time": 1078, "annotation": {"number": 64, "value": 0}, "group": "control_change"}, {"time": 1079, "annotation": {"number": 64, "value": 127}, "group": "control_change"}, {"time": 1102, "annotation": {"number": 64, "value": 0}, "group": "control_change"}, {"time": 1105, "annotation": {"number": 64, "value": 127}, "group": "control_change"}, {"time": 1127, "annotation": {"number": 64, "value": 0}, "group": "control_change"}, {"time": 1128, "annotation": {"number": 64, "value": 127}, "group": "control_change"}, {"time": 1151, "annotation": {"number": 64, "value": 0}, "group": "control_change"}, {"time": 1152, "annotation": {"number": 64, "value": 127}, "group": "control_change"}, {"time": 1154, "annotation": {"number": 64, "value": 0}, "group": "control_change"}, {"time": 1174, "annotation": {"number": 64, "value": 0}, "group": "control_change"}, {"time": 1175, "annotation": {"number": 64, "value": 127}, "group": "control_change"}, {"time": 1220, "annotation": {"number": 64, "value": 0}, "group": "control_change"}, {"time": 1222, "annotation": {"number": 64, "value": 127}, "group": "control_change"}, {"time": 1270, "annotation": {"number": 64, "value": 0}, "group": "control_change"}, {"time": 1270, "annotation": {"number": 64, "value": 127}, "group": "control_change"}, {"time": 1318, "annotation": {"number": 64, "value": 0}, "group": "control_change"}, {"time": 1320, "annotation": {"number": 64, "value": 127}, "group": "control_change"}, {"time": 1366, "annotation": {"number": 64, "value": 0}, "group": "control_change"}, {"time": 1368, "annotation": {"number": 64, "value": 127}, "group": "control_change"}, {"time": 1390, "annotation": {"number": 64, "value": 0}, "group": "control_change"}, {"time": 1393, "annotation": {"number": 64, "value": 127}, "group": "control_change"}, {"time": 1413, "annotation": {"number": 64, "value": 0}, "group": "control_change"}, {"time": 1415, "annotation": {"number": 64, "value": 127}, "group": "control_change"}, {"time": 1461, "annotation": {"number": 64, "value": 0}, "group": "control_change"}, {"time": 1463, "annotation": {"number": 64, "value": 127}, "group": "control_change"}, {"time": 1488, "annotation": {"number": 64, "value": 0}, "group": "control_change"}, {"time": 1492, "annotation": {"number": 64, "value": 127}, "group": "control_change"}, {"time": 1510, "annotation": {"number": 64, "value": 0}, "group": "control_change"}, {"time": 1511, "annotation": {"number": 64, "value": 127}, "group": "control_change"}, {"time": 1534, "annotation": {"number": 64, "value": 0}, "group": "control_change"}, {"time": 1536, "annotation": {"number": 64, "value": 127}, "group": "control_change"}, {"time": 1558, "annotation": {"number": 64, "value": 0}, "group": "control_change"}, {"time": 1560, "annotation": {"number": 64, "value": 127}, "group": "control_change"}, {"time": 1605, "annotation": {"number": 64, "value": 0}, "group": "control_change"}, {"time": 1606, "annotation": {"number": 64, "value": 127}, "group": "control_change"}, {"time": 1653, "annotation": {"number": 64, "value": 0}, "group": "control_change"}, {"time": 1655, "annotation": {"number": 64, "value": 127}, "group": "control_change"}, {"time": 1702, "annotation": {"number": 64, "value": 0}, "group": "control_change"}, {"time": 1704, "annotation": {"number": 64, "value": 127}, "group": "control_change"}, {"time": 1750, "annotation": {"number": 64, "value": 0}, "group": "control_change"}, {"time": 1750, "annotation": {"number": 64, "value": 127}, "group": "control_change"}, {"time": 1775, "annotation": {"number": 64, "value": 0}, "group": "control_change"}, {"time": 1779, "annotation": {"number": 64, "value": 127}, "group": "control_change"}, {"time": 1799, "annotation": {"number": 64, "value": 0}, "group": "control_change"}, {"time": 1801, "annotation": {"number": 64, "value": 127}, "group": "control_change"}, {"time": 1846, "annotation": {"number": 64, "value": 127}, "group": "control_change"}, {"time": 1847, "annotation": {"number": 64, "value": 0}, "group": "control_change"}, {"time": 1888, "annotation": {"number": 64, "value": 0}, "group": "control_change"}, {"time": 1894, "annotation": {"number": 64, "value": 127}, "group": "control_change"}, {"time": 1935, "annotation": {"number": 64, "value": 0}, "group": "control_change"}, {"time": 1944, "annotation": {"number": 64, "value": 127}, "group": "control_change"}, {"time": 1977, "annotation": {"number": 64, "value": 127}, "group": "control_change"}, {"time": 1982, "annotation": {"number": 64, "value": 0}, "group": "control_change"}, {"time": 1983, "annotation": {"number": 64, "value": 127}, "group": "control_change"}, {"time": 1983, "annotation": {"number": 64, "value": 0}, "group": "control_change"}, {"time": 1989, "annotation": {"number": 64, "value": 0}, "group": "control_change"}, {"time": 1991, "annotation": {"number": 64, "value": 127}, "group": "control_change"}, {"time": 2038, "annotation": {"number": 64, "value": 0}, "group": "control_change"}, {"time": 2040, "annotation": {"number": 64, "value": 127}, "group": "control_change"}, {"time": 2062, "annotation": {"number": 64, "value": 0}, "group": "control_change"}, {"time": 2064, "annotation": {"number": 64, "value": 127}, "group": "control_change"}, {"time": 2085, "annotation": {"number": 64, "value": 127}, "group": "control_change"}, {"time": 2111, "annotation": {"number": 64, "value": 0}, "group": "control_change"}, {"time": 2113, "annotation": {"number": 64, "value": 127}, "group": "control_change"}, {"time": 2134, "annotation": {"number": 64, "value": 0}, "group": "control_change"}, {"time": 2137, "annotation": {"number": 64, "value": 127}, "group": "control_change"}, {"time": 2158, "annotation": {"number": 64, "value": 0}, "group": "control_change"}, {"time": 2160, "annotation": {"number": 64, "value": 127}, "group": "control_change"}, {"time": 2182, "annotation": {"number": 64, "value": 0}, "group": "control_change"}, {"time": 2184, "annotation": {"number": 64, "value": 127}, "group": "control_change"}, {"time": 2206, "annotation": {"number": 64, "value": 0}, "group": "control_change"}, {"time": 2208, "annotation": {"number": 64, "value": 127}, "group": "control_change"}, {"time": 2230, "annotation": {"number": 64, "value": 0}, "group": "control_change"}, {"time": 2233, "annotation": {"number": 64, "value": 127}, "group": "control_change"}, {"time": 2254, "annotation": {"number": 64, "value": 0}, "group": "control_change"}, {"time": 2257, "annotation": {"number": 64, "value": 127}, "group": "control_change"}, {"time": 2278, "annotation": {"number": 64, "value": 0}, "group": "control_change"}, {"time": 2279, "annotation": {"number": 64, "value": 127}, "group": "control_change"}, {"time": 2291, "annotation": {"number": 64, "value": 0}, "group": "control_change"}, {"time": 2293, "annotation": {"number": 64, "value": 127}, "group": "control_change"}, {"time": 2302, "annotation": {"number": 64, "value": 0}, "group": "control_change"}, {"time": 2304, "annotation": {"number": 64, "value": 127}, "group": "control_change"}, {"time": 2326, "annotation": {"number": 64, "value": 0}, "group": "control_change"}, {"time": 2328, "annotation": {"number": 64, "value": 127}, "group": "control_change"}, {"time": 2363, "annotation": {"number": 64, "value": 0}, "group": "control_change"}, {"time": 2364, "annotation": {"number": 64, "value": 127}, "group": "control_change"}, {"time": 2373, "annotation": {"number": 64, "value": 0}, "group": "control_change"}, {"time": 2375, "annotation": {"number": 64, "value": 127}, "group": "control_change"}, {"time": 2398, "annotation": {"number": 64, "value": 0}, "group": "control_change"}, {"time": 2399, "annotation": {"number": 64, "value": 127}, "group": "control_change"}, {"time": 2422, "annotation": {"number": 64, "value": 0}, "group": "control_change"}, {"time": 2423, "annotation": {"number": 64, "value": 127}, "group": "control_change"}, {"time": 2446, "annotation": {"number": 64, "value": 0}, "group": "control_change"}, {"time": 2449, "annotation": {"number": 64, "value": 127}, "group": "control_change"}, {"time": 2471, "annotation": {"number": 64, "value": 0}, "group": "control_change"}, {"time": 2472, "annotation": {"number": 64, "value": 127}, "group": "control_change"}, {"time": 2495, "annotation": {"number": 64, "value": 0}, "group": "control_change"}, {"time": 2496, "annotation": {"number": 64, "value": 127}, "group": "control_change"}, {"time": 2498, "annotation": {"number": 64, "value": 0}, "group": "control_change"}, {"time": 2518, "annotation": {"number": 64, "value": 0}, "group": "control_change"}, {"time": 2519, "annotation": {"number": 64, "value": 127}, "group": "control_change"}, {"time": 2564, "annotation": {"number": 64, "value": 0}, "group": "control_change"}, {"time": 2566, "annotation": {"number": 64, "value": 127}, "group": "control_change"}, {"time": 2614, "annotation": {"number": 64, "value": 0}, "group": "control_change"}, {"time": 2614, "annotation": {"number": 64, "value": 127}, "group": "control_change"}, {"time": 2662, "annotation": {"number": 64, "value": 0}, "group": "control_change"}, {"time": 2664, "annotation": {"number": 64, "value": 127}, "group": "control_change"}, {"time": 2710, "annotation": {"number": 64, "value": 0}, "group": "control_change"}, {"time": 2712, "annotation": {"number": 64, "value": 127}, "group": "control_change"}, {"time": 2734, "annotation": {"number": 64, "value": 0}, "group": "control_change"}, {"time": 2737, "annotation": {"number": 64, "value": 127}, "group": "control_change"}, {"time": 2757, "annotation": {"number": 64, "value": 0}, "group": "control_change"}, {"time": 2759, "annotation": {"number": 64, "value": 127}, "group": "control_change"}, {"time": 2805, "annotation": {"number": 64, "value": 0}, "group": "control_change"}, {"time": 2807, "annotation": {"number": 64, "value": 127}, "group": "control_change"}, {"time": 2832, "annotation": {"number": 64, "value": 0}, "group": "control_change"}, {"time": 2836, "annotation": {"number": 64, "value": 127}, "group": "control_change"}, {"time": 2854, "annotation": {"number": 64, "value": 0}, "group": "control_change"}, {"time": 2855, "annotation": {"number": 64, "value": 127}, "group": "control_change"}, {"time": 2878, "annotation": {"number": 64, "value": 0}, "group": "control_change"}, {"time": 2880, "annotation": {"number": 64, "value": 127}, "group": "control_change"}, {"time": 2902, "annotation": {"number": 64, "value": 0}, "group": "control_change"}, {"time": 2904, "annotation": {"number": 64, "value": 127}, "group": "control_change"}, {"time": 2949, "annotation": {"number": 64, "value": 0}, "group": "control_change"}, {"time": 2950, "annotation": {"number": 64, "value": 127}, "group": "control_change"}, {"time": 2997, "annotation": {"number": 64, "value": 0}, "group": "control_change"}, {"time": 2999, "annotation": {"number": 64, "value": 127}, "group": "control_change"}, {"time": 3046, "annotation": {"number": 64, "value": 0}, "group": "control_change"}, {"time": 3048, "annotation": {"number": 64, "value": 127}, "group": "control_change"}, {"time": 3094, "annotation": {"number": 64, "value": 0}, "group": "control_change"}, {"time": 3098, "annotation": {"number": 64, "value": 127}, "group": "control_change"}, {"time": 3104, "annotation": {"number": 64, "value": 0}, "group": "control_change"}, {"time": 3116, "annotation": {"number": 64, "value": 127}, "group": "control_change"}, {"time": 3137, "annotation": {"number": 64, "value": 0}, "group": "control_change"}, {"time": 3179, "annotation": {"number": 64, "value": 127}, "group": "control_change"}, {"time": 3191, "annotation": {"number": 64, "value": 0}, "group": "control_change"}, {"time": 3193, "annotation": {"number": 64, "value": 127}, "group": "control_change"}, {"time": 3214, "annotation": {"number": 64, "value": 0}, "group": "control_change"}, {"time": 3218, "annotation": {"number": 64, "value": 127}, "group": "control_change"}, {"time": 3238, "annotation": {"number": 64, "value": 0}, "group": "control_change"}, {"time": 3262, "annotation": {"number": 64, "value": 0}, "group": "control_change"}, {"time": 3266, "annotation": {"number": 64, "value": 127}, "group": "control_change"}, {"time": 3310, "annotation": {"number": 64, "value": 0}, "group": "control_change"}, {"time": 3313, "annotation": {"number": 64, "value": 127}, "group": "control_change"}, {"time": 3335, "annotation": {"number": 64, "value": 0}, "group": "control_change"}, {"time": 3338, "annotation": {"number": 64, "value": 127}, "group": "control_change"}, {"time": 3357, "annotation": {"number": 64, "value": 0}, "group": "control_change"}, {"time": 3360, "annotation": {"number": 64, "value": 127}, "group": "control_change"}]}]}