{"metadata": {"schema_version": "0.2", "title": "None", "source_filename": "243.mid", "source_format": "midi"}, "resolution": 12, "tempos": [{"time": 0, "qpm": 105.99995053335641}, {"time": 16, "qpm": 106.99993580003851}, {"time": 28, "qpm": 104.99992125005906}, {"time": 64, "qpm": 106.99993580003851}, {"time": 88, "qpm": 110.00011000011}, {"time": 112, "qpm": 104.99992125005906}, {"time": 208, "qpm": 105.99995053335641}, {"time": 400, "qpm": 104.99992125005906}, {"time": 448, "qpm": 114.0001710002565}, {"time": 496, "qpm": 105.99995053335641}, {"time": 532, "qpm": 102.0000510000255}, {"time": 616, "qpm": 103.0000480666891}, {"time": 640, "qpm": 107.99991360006912}, {"time": 676, "qpm": 110.9999056500802}, {"time": 688, "qpm": 107.99991360006912}, {"time": 736, "qpm": 103.0000480666891}, {"time": 784, "qpm": 104.00001386666851}, {"time": 832, "qpm": 110.00011000011}, {"time": 856, "qpm": 108.99994368336243}, {"time": 868, "qpm": 104.99992125005906}, {"time": 880, "qpm": 107.99991360006912}, {"time": 940, "qpm": 104.00001386666851}, {"time": 952, "qpm": 102.0000510000255}, {"time": 976, "qpm": 101.00006901671382}, {"time": 988, "qpm": 104.99992125005906}, {"time": 1012, "qpm": 108.99994368336243}, {"time": 1072, "qpm": 105.99995053335641}, {"time": 1264, "qpm": 102.0000510000255}, {"time": 1288, "qpm": 105.99995053335641}, {"time": 1432, "qpm": 107.99991360006912}, {"time": 1456, "qpm": 104.00001386666851}, {"time": 1492, "qpm": 112.00005973336519}, {"time": 1504, "qpm": 107.99991360006912}, {"time": 1528, "qpm": 104.99992125005906}, {"time": 1612, "qpm": 107.99991360006912}, {"time": 1648, "qpm": 105.99995053335641}, {"time": 1804, "qpm": 106.99993580003851}, {"time": 1840, "qpm": 104.99992125005906}, {"time": 1936, "qpm": 106.99993580003851}, {"time": 2032, "qpm": 102.0000510000255}, {"time": 2056, "qpm": 106.99993580003851}, {"time": 2080, "qpm": 105.99995053335641}, {"time": 2152, "qpm": 104.99992125005906}, {"time": 2224, "qpm": 107.99991360006912}, {"time": 2284, "qpm": 104.99992125005906}, {"time": 2320, "qpm": 105.99995053335641}, {"time": 2368, "qpm": 107.99991360006912}, {"time": 2392, "qpm": 104.99992125005906}, {"time": 2416, "qpm": 102.0000510000255}, {"time": 2464, "qpm": 110.00011000011}, {"time": 2512, "qpm": 105.99995053335641}, {"time": 3664, "qpm": 104.00001386666851}, {"time": 3712, "qpm": 105.99995053335641}, {"time": 3772, "qpm": 103.0000480666891}, {"time": 3808, "qpm": 104.00001386666851}, {"time": 3904, "qpm": 105.99995053335641}], "time_signatures": [{"time": 0, "numerator": 4, "denominator": 4}], "tracks": [{"program": 4, "is_drum": false, "name": "MELODY", "notes": [{"time": 400, "pitch": 67, "duration": 6, "velocity": 57}, {"time": 406, "pitch": 72, "duration": 6, "velocity": 55}, {"time": 412, "pitch": 72, "duration": 6, "velocity": 66}, {"time": 418, "pitch": 72, "duration": 12, "velocity": 84}, {"time": 430, "pitch": 71, "duration": 6, "velocity": 69}, {"time": 436, "pitch": 72, "duration": 36, "velocity": 77}, {"time": 472, "pitch": 74, "duration": 6, "velocity": 91}, {"time": 478, "pitch": 72, "duration": 6, "velocity": 74}, {"time": 484, "pitch": 71, "duration": 6, "velocity": 66}, {"time": 490, "pitch": 69, "duration": 6, "velocity": 62}, {"time": 496, "pitch": 67, "duration": 12, "velocity": 64}, {"time": 508, "pitch": 67, "duration": 6, "velocity": 66}, {"time": 514, "pitch": 69, "duration": 6, "velocity": 80}, {"time": 520, "pitch": 71, "duration": 78, "velocity": 74}, {"time": 598, "pitch": 60, "duration": 6, "velocity": 52}, {"time": 604, "pitch": 69, "duration": 6, "velocity": 61}, {"time": 610, "pitch": 69, "duration": 6, "velocity": 66}, {"time": 616, "pitch": 69, "duration": 6, "velocity": 63}, {"time": 622, "pitch": 71, "duration": 18, "velocity": 62}, {"time": 640, "pitch": 72, "duration": 6, "velocity": 62}, {"time": 646, "pitch": 71, "duration": 9, "velocity": 57}, {"time": 655, "pitch": 67, "duration": 12, "velocity": 41}, {"time": 667, "pitch": 64, "duration": 15, "velocity": 52}, {"time": 682, "pitch": 64, "duration": 6, "velocity": 75}, {"time": 688, "pitch": 62, "duration": 6, "velocity": 63}, {"time": 694, "pitch": 60, "duration": 6, "velocity": 59}, {"time": 700, "pitch": 62, "duration": 6, "velocity": 63}, {"time": 706, "pitch": 60, "duration": 6, "velocity": 47}, {"time": 712, "pitch": 62, "duration": 6, "velocity": 51}, {"time": 718, "pitch": 60, "duration": 6, "velocity": 54}, {"time": 724, "pitch": 62, "duration": 6, "velocity": 56}, {"time": 730, "pitch": 64, "duration": 12, "velocity": 64}, {"time": 742, "pitch": 67, "duration": 54, "velocity": 83}, {"time": 796, "pitch": 64, "duration": 6, "velocity": 61}, {"time": 802, "pitch": 64, "duration": 6, "velocity": 66}, {"time": 808, "pitch": 64, "duration": 12, "velocity": 66}, {"time": 820, "pitch": 66, "duration": 6, "velocity": 54}, {"time": 826, "pitch": 68, "duration": 18, "velocity": 66}, {"time": 844, "pitch": 68, "duration": 12, "velocity": 84}, {"time": 856, "pitch": 69, "duration": 6, "velocity": 77}, {"time": 862, "pitch": 71, "duration": 12, "velocity": 66}, {"time": 874, "pitch": 71, "duration": 6, "velocity": 87}, {"time": 880, "pitch": 71, "duration": 36, "velocity": 87}, {"time": 916, "pitch": 69, "duration": 6, "velocity": 68}, {"time": 922, "pitch": 72, "duration": 36, "velocity": 96}, {"time": 958, "pitch": 69, "duration": 6, "velocity": 63}, {"time": 964, "pitch": 69, "duration": 6, "velocity": 63}, {"time": 970, "pitch": 71, "duration": 6, "velocity": 79}, {"time": 976, "pitch": 72, "duration": 6, "velocity": 89}, {"time": 982, "pitch": 71, "duration": 6, "velocity": 59}, {"time": 988, "pitch": 69, "duration": 6, "velocity": 57}, {"time": 994, "pitch": 72, "duration": 24, "velocity": 66}, {"time": 1018, "pitch": 72, "duration": 6, "velocity": 90}, {"time": 1024, "pitch": 72, "duration": 12, "velocity": 94}, {"time": 1036, "pitch": 71, "duration": 18, "velocity": 89}, {"time": 1054, "pitch": 69, "duration": 12, "velocity": 90}, {"time": 1066, "pitch": 64, "duration": 6, "velocity": 87}, {"time": 1072, "pitch": 62, "duration": 102, "velocity": 65}, {"time": 1174, "pitch": 67, "duration": 6, "velocity": 66}, {"time": 1180, "pitch": 72, "duration": 6, "velocity": 83}, {"time": 1186, "pitch": 72, "duration": 6, "velocity": 75}, {"time": 1192, "pitch": 72, "duration": 12, "velocity": 90}, {"time": 1204, "pitch": 71, "duration": 6, "velocity": 87}, {"time": 1210, "pitch": 72, "duration": 30, "velocity": 93}, {"time": 1240, "pitch": 74, "duration": 6, "velocity": 96}, {"time": 1246, "pitch": 72, "duration": 6, "velocity": 83}, {"time": 1252, "pitch": 71, "duration": 6, "velocity": 82}, {"time": 1258, "pitch": 69, "duration": 12, "velocity": 59}, {"time": 1270, "pitch": 71, "duration": 6, "velocity": 81}, {"time": 1276, "pitch": 71, "duration": 12, "velocity": 79}, {"time": 1288, "pitch": 76, "duration": 6, "velocity": 84}, {"time": 1294, "pitch": 71, "duration": 72, "velocity": 86}, {"time": 1366, "pitch": 64, "duration": 6, "velocity": 66}, {"time": 1372, "pitch": 69, "duration": 6, "velocity": 75}, {"time": 1378, "pitch": 69, "duration": 6, "velocity": 66}, {"time": 1384, "pitch": 69, "duration": 12, "velocity": 89}, {"time": 1396, "pitch": 71, "duration": 6, "velocity": 87}, {"time": 1402, "pitch": 72, "duration": 12, "velocity": 83}, {"time": 1414, "pitch": 71, "duration": 12, "velocity": 87}, {"time": 1426, "pitch": 69, "duration": 12, "velocity": 81}, {"time": 1438, "pitch": 64, "duration": 12, "velocity": 84}, {"time": 1450, "pitch": 64, "duration": 6, "velocity": 87}, {"time": 1456, "pitch": 62, "duration": 6, "velocity": 76}, {"time": 1462, "pitch": 60, "duration": 6, "velocity": 64}, {"time": 1468, "pitch": 62, "duration": 6, "velocity": 73}, {"time": 1474, "pitch": 60, "duration": 6, "velocity": 62}, {"time": 1480, "pitch": 62, "duration": 6, "velocity": 61}, {"time": 1486, "pitch": 60, "duration": 6, "velocity": 64}, {"time": 1492, "pitch": 62, "duration": 6, "velocity": 61}, {"time": 1498, "pitch": 64, "duration": 12, "velocity": 65}, {"time": 1510, "pitch": 67, "duration": 54, "velocity": 66}, {"time": 1564, "pitch": 64, "duration": 6, "velocity": 61}, {"time": 1570, "pitch": 64, "duration": 6, "velocity": 66}, {"time": 1576, "pitch": 64, "duration": 12, "velocity": 66}, {"time": 1588, "pitch": 66, "duration": 6, "velocity": 54}, {"time": 1594, "pitch": 68, "duration": 18, "velocity": 66}, {"time": 1612, "pitch": 68, "duration": 12, "velocity": 84}, {"time": 1624, "pitch": 69, "duration": 6, "velocity": 77}, {"time": 1630, "pitch": 71, "duration": 12, "velocity": 66}, {"time": 1642, "pitch": 71, "duration": 6, "velocity": 87}, {"time": 1648, "pitch": 71, "duration": 36, "velocity": 87}, {"time": 1684, "pitch": 69, "duration": 6, "velocity": 68}, {"time": 1690, "pitch": 72, "duration": 36, "velocity": 96}, {"time": 1726, "pitch": 69, "duration": 6, "velocity": 67}, {"time": 1732, "pitch": 69, "duration": 6, "velocity": 68}, {"time": 1738, "pitch": 71, "duration": 6, "velocity": 82}, {"time": 1744, "pitch": 72, "duration": 9, "velocity": 80}, {"time": 1753, "pitch": 71, "duration": 9, "velocity": 66}, {"time": 1762, "pitch": 69, "duration": 3, "velocity": 57}, {"time": 1765, "pitch": 72, "duration": 3, "velocity": 63}, {"time": 1768, "pitch": 72, "duration": 18, "velocity": 64}, {"time": 1786, "pitch": 72, "duration": 6, "velocity": 89}, {"time": 1792, "pitch": 72, "duration": 12, "velocity": 92}, {"time": 1804, "pitch": 69, "duration": 12, "velocity": 68}, {"time": 1816, "pitch": 76, "duration": 9, "velocity": 97}, {"time": 1825, "pitch": 76, "duration": 9, "velocity": 98}, {"time": 1834, "pitch": 72, "duration": 12, "velocity": 93}, {"time": 1846, "pitch": 74, "duration": 72, "velocity": 92}, {"time": 1918, "pitch": 67, "duration": 6, "velocity": 75}, {"time": 1924, "pitch": 69, "duration": 6, "velocity": 68}, {"time": 1930, "pitch": 72, "duration": 6, "velocity": 66}, {"time": 1936, "pitch": 74, "duration": 6, "velocity": 68}, {"time": 1942, "pitch": 76, "duration": 6, "velocity": 66}, {"time": 1948, "pitch": 76, "duration": 6, "velocity": 67}, {"time": 1954, "pitch": 76, "duration": 6, "velocity": 62}, {"time": 1960, "pitch": 76, "duration": 6, "velocity": 66}, {"time": 1966, "pitch": 72, "duration": 6, "velocity": 66}, {"time": 1972, "pitch": 74, "duration": 6, "velocity": 65}, {"time": 1978, "pitch": 76, "duration": 36, "velocity": 64}, {"time": 2014, "pitch": 67, "duration": 6, "velocity": 89}, {"time": 2020, "pitch": 69, "duration": 6, "velocity": 66}, {"time": 2026, "pitch": 72, "duration": 6, "velocity": 87}, {"time": 2032, "pitch": 74, "duration": 6, "velocity": 75}, {"time": 2038, "pitch": 74, "duration": 6, "velocity": 66}, {"time": 2044, "pitch": 74, "duration": 6, "velocity": 65}, {"time": 2050, "pitch": 74, "duration": 6, "velocity": 79}, {"time": 2056, "pitch": 74, "duration": 9, "velocity": 86}, {"time": 2065, "pitch": 71, "duration": 9, "velocity": 68}, {"time": 2074, "pitch": 72, "duration": 12, "velocity": 84}, {"time": 2086, "pitch": 74, "duration": 24, "velocity": 79}, {"time": 2110, "pitch": 69, "duration": 6, "velocity": 81}, {"time": 2116, "pitch": 69, "duration": 6, "velocity": 66}, {"time": 2122, "pitch": 71, "duration": 6, "velocity": 82}, {"time": 2128, "pitch": 72, "duration": 6, "velocity": 91}, {"time": 2134, "pitch": 72, "duration": 18, "velocity": 90}, {"time": 2152, "pitch": 72, "duration": 12, "velocity": 95}, {"time": 2164, "pitch": 64, "duration": 12, "velocity": 72}, {"time": 2176, "pitch": 62, "duration": 18, "velocity": 75}, {"time": 2194, "pitch": 69, "duration": 24, "velocity": 91}, {"time": 2218, "pitch": 67, "duration": 6, "velocity": 81}, {"time": 2224, "pitch": 67, "duration": 78, "velocity": 92}, {"time": 2302, "pitch": 76, "duration": 6, "velocity": 100}, {"time": 2308, "pitch": 74, "duration": 6, "velocity": 91}, {"time": 2314, "pitch": 72, "duration": 6, "velocity": 90}, {"time": 2320, "pitch": 74, "duration": 6, "velocity": 93}, {"time": 2326, "pitch": 76, "duration": 6, "velocity": 97}, {"time": 2332, "pitch": 76, "duration": 6, "velocity": 93}, {"time": 2338, "pitch": 76, "duration": 6, "velocity": 95}, {"time": 2344, "pitch": 76, "duration": 9, "velocity": 98}, {"time": 2353, "pitch": 72, "duration": 9, "velocity": 90}, {"time": 2362, "pitch": 79, "duration": 6, "velocity": 91}, {"time": 2368, "pitch": 76, "duration": 30, "velocity": 100}, {"time": 2398, "pitch": 67, "duration": 6, "velocity": 90}, {"time": 2404, "pitch": 69, "duration": 6, "velocity": 79}, {"time": 2410, "pitch": 72, "duration": 6, "velocity": 87}, {"time": 2416, "pitch": 74, "duration": 6, "velocity": 92}, {"time": 2422, "pitch": 74, "duration": 6, "velocity": 90}, {"time": 2428, "pitch": 74, "duration": 6, "velocity": 90}, {"time": 2434, "pitch": 74, "duration": 6, "velocity": 81}, {"time": 2440, "pitch": 79, "duration": 9, "velocity": 82}, {"time": 2449, "pitch": 79, "duration": 9, "velocity": 91}, {"time": 2458, "pitch": 81, "duration": 6, "velocity": 94}, {"time": 2464, "pitch": 76, "duration": 6, "velocity": 77}, {"time": 2470, "pitch": 74, "duration": 24, "velocity": 77}, {"time": 2494, "pitch": 69, "duration": 6, "velocity": 87}, {"time": 2500, "pitch": 69, "duration": 6, "velocity": 77}, {"time": 2506, "pitch": 71, "duration": 6, "velocity": 96}, {"time": 2512, "pitch": 72, "duration": 9, "velocity": 99}, {"time": 2521, "pitch": 72, "duration": 27, "velocity": 98}, {"time": 2548, "pitch": 69, "duration": 6, "velocity": 93}, {"time": 2554, "pitch": 72, "duration": 6, "velocity": 87}, {"time": 2560, "pitch": 76, "duration": 12, "velocity": 93}, {"time": 2572, "pitch": 77, "duration": 12, "velocity": 94}, {"time": 2584, "pitch": 76, "duration": 12, "velocity": 99}, {"time": 2596, "pitch": 72, "duration": 6, "velocity": 93}, {"time": 2602, "pitch": 74, "duration": 12, "velocity": 98}, {"time": 2614, "pitch": 72, "duration": 72, "velocity": 99}, {"time": 2686, "pitch": 71, "duration": 6, "velocity": 81}, {"time": 2692, "pitch": 71, "duration": 6, "velocity": 77}, {"time": 2698, "pitch": 72, "duration": 6, "velocity": 77}, {"time": 2704, "pitch": 74, "duration": 6, "velocity": 69}, {"time": 2710, "pitch": 74, "duration": 6, "velocity": 77}, {"time": 2716, "pitch": 72, "duration": 6, "velocity": 67}, {"time": 2722, "pitch": 74, "duration": 6, "velocity": 81}, {"time": 2728, "pitch": 67, "duration": 12, "velocity": 81}, {"time": 2740, "pitch": 71, "duration": 6, "velocity": 87}, {"time": 2746, "pitch": 72, "duration": 6, "velocity": 87}, {"time": 2752, "pitch": 74, "duration": 30, "velocity": 99}, {"time": 2782, "pitch": 67, "duration": 6, "velocity": 76}, {"time": 2788, "pitch": 76, "duration": 6, "velocity": 96}, {"time": 2794, "pitch": 77, "duration": 6, "velocity": 72}, {"time": 2800, "pitch": 74, "duration": 6, "velocity": 82}, {"time": 2806, "pitch": 72, "duration": 6, "velocity": 80}, {"time": 2812, "pitch": 72, "duration": 6, "velocity": 75}, {"time": 2818, "pitch": 69, "duration": 6, "velocity": 79}, {"time": 2824, "pitch": 72, "duration": 9, "velocity": 92}, {"time": 2833, "pitch": 69, "duration": 9, "velocity": 86}, {"time": 2842, "pitch": 67, "duration": 36, "velocity": 96}, {"time": 2878, "pitch": 69, "duration": 6, "velocity": 93}, {"time": 2884, "pitch": 69, "duration": 6, "velocity": 90}, {"time": 2890, "pitch": 71, "duration": 6, "velocity": 80}, {"time": 2896, "pitch": 72, "duration": 6, "velocity": 90}, {"time": 2902, "pitch": 71, "duration": 6, "velocity": 79}, {"time": 2908, "pitch": 69, "duration": 6, "velocity": 66}, {"time": 2914, "pitch": 71, "duration": 6, "velocity": 83}, {"time": 2920, "pitch": 72, "duration": 9, "velocity": 93}, {"time": 2929, "pitch": 72, "duration": 9, "velocity": 93}, {"time": 2938, "pitch": 64, "duration": 6, "velocity": 72}, {"time": 2944, "pitch": 67, "duration": 30, "velocity": 91}, {"time": 2974, "pitch": 67, "duration": 6, "velocity": 95}, {"time": 2980, "pitch": 65, "duration": 6, "velocity": 75}, {"time": 2986, "pitch": 64, "duration": 6, "velocity": 69}, {"time": 2992, "pitch": 65, "duration": 6, "velocity": 87}, {"time": 2998, "pitch": 64, "duration": 6, "velocity": 74}, {"time": 3004, "pitch": 65, "duration": 6, "velocity": 85}, {"time": 3010, "pitch": 64, "duration": 6, "velocity": 66}, {"time": 3016, "pitch": 65, "duration": 6, "velocity": 85}, {"time": 3022, "pitch": 72, "duration": 12, "velocity": 90}, {"time": 3034, "pitch": 64, "duration": 6, "velocity": 72}, {"time": 3040, "pitch": 65, "duration": 6, "velocity": 81}, {"time": 3046, "pitch": 64, "duration": 6, "velocity": 69}, {"time": 3052, "pitch": 65, "duration": 6, "velocity": 84}, {"time": 3058, "pitch": 64, "duration": 6, "velocity": 64}, {"time": 3064, "pitch": 65, "duration": 9, "velocity": 87}, {"time": 3073, "pitch": 72, "duration": 9, "velocity": 103}, {"time": 3082, "pitch": 74, "duration": 84, "velocity": 90}, {"time": 3166, "pitch": 67, "duration": 6, "velocity": 87}, {"time": 3172, "pitch": 69, "duration": 9, "velocity": 94}, {"time": 3181, "pitch": 72, "duration": 9, "velocity": 84}, {"time": 3190, "pitch": 74, "duration": 6, "velocity": 91}, {"time": 3196, "pitch": 76, "duration": 6, "velocity": 86}, {"time": 3202, "pitch": 76, "duration": 6, "velocity": 87}, {"time": 3208, "pitch": 76, "duration": 6, "velocity": 87}, {"time": 3214, "pitch": 76, "duration": 6, "velocity": 72}, {"time": 3220, "pitch": 72, "duration": 9, "velocity": 83}, {"time": 3229, "pitch": 74, "duration": 9, "velocity": 90}, {"time": 3238, "pitch": 76, "duration": 24, "velocity": 92}, {"time": 3262, "pitch": 67, "duration": 6, "velocity": 85}, {"time": 3268, "pitch": 69, "duration": 6, "velocity": 90}, {"time": 3274, "pitch": 72, "duration": 6, "velocity": 83}, {"time": 3280, "pitch": 72, "duration": 6, "velocity": 98}, {"time": 3286, "pitch": 74, "duration": 6, "velocity": 91}, {"time": 3292, "pitch": 74, "duration": 6, "velocity": 90}, {"time": 3298, "pitch": 74, "duration": 6, "velocity": 79}, {"time": 3304, "pitch": 74, "duration": 9, "velocity": 95}, {"time": 3313, "pitch": 71, "duration": 9, "velocity": 97}, {"time": 3322, "pitch": 72, "duration": 6, "velocity": 95}, {"time": 3328, "pitch": 74, "duration": 30, "velocity": 97}, {"time": 3358, "pitch": 69, "duration": 6, "velocity": 96}, {"time": 3364, "pitch": 69, "duration": 6, "velocity": 90}, {"time": 3370, "pitch": 71, "duration": 6, "velocity": 89}, {"time": 3376, "pitch": 72, "duration": 9, "velocity": 98}, {"time": 3385, "pitch": 72, "duration": 15, "velocity": 91}, {"time": 3400, "pitch": 72, "duration": 12, "velocity": 103}, {"time": 3412, "pitch": 64, "duration": 12, "velocity": 93}, {"time": 3424, "pitch": 62, "duration": 18, "velocity": 97}, {"time": 3442, "pitch": 69, "duration": 30, "velocity": 106}, {"time": 3472, "pitch": 67, "duration": 9, "velocity": 109}, {"time": 3481, "pitch": 67, "duration": 69, "velocity": 109}, {"time": 3550, "pitch": 76, "duration": 6, "velocity": 103}, {"time": 3556, "pitch": 74, "duration": 6, "velocity": 91}, {"time": 3562, "pitch": 72, "duration": 6, "velocity": 92}, {"time": 3568, "pitch": 74, "duration": 6, "velocity": 97}, {"time": 3574, "pitch": 76, "duration": 12, "velocity": 97}, {"time": 3586, "pitch": 76, "duration": 3, "velocity": 90}, {"time": 3589, "pitch": 76, "duration": 3, "velocity": 65}, {"time": 3592, "pitch": 76, "duration": 9, "velocity": 90}, {"time": 3601, "pitch": 72, "duration": 9, "velocity": 103}, {"time": 3610, "pitch": 79, "duration": 9, "velocity": 87}, {"time": 3619, "pitch": 76, "duration": 27, "velocity": 99}, {"time": 3646, "pitch": 67, "duration": 6, "velocity": 98}, {"time": 3652, "pitch": 69, "duration": 6, "velocity": 92}, {"time": 3658, "pitch": 72, "duration": 6, "velocity": 93}, {"time": 3664, "pitch": 74, "duration": 6, "velocity": 97}, {"time": 3670, "pitch": 74, "duration": 6, "velocity": 99}, {"time": 3676, "pitch": 74, "duration": 6, "velocity": 95}, {"time": 3682, "pitch": 74, "duration": 12, "velocity": 91}, {"time": 3694, "pitch": 79, "duration": 9, "velocity": 97}, {"time": 3703, "pitch": 79, "duration": 6, "velocity": 101}, {"time": 3709, "pitch": 79, "duration": 6, "velocity": 93}, {"time": 3715, "pitch": 76, "duration": 6, "velocity": 95}, {"time": 3721, "pitch": 74, "duration": 21, "velocity": 91}, {"time": 3742, "pitch": 69, "duration": 3, "velocity": 93}, {"time": 3745, "pitch": 69, "duration": 3, "velocity": 74}, {"time": 3748, "pitch": 69, "duration": 6, "velocity": 91}, {"time": 3754, "pitch": 71, "duration": 6, "velocity": 96}, {"time": 3760, "pitch": 72, "duration": 6, "velocity": 103}, {"time": 3766, "pitch": 72, "duration": 30, "velocity": 103}, {"time": 3796, "pitch": 69, "duration": 6, "velocity": 87}, {"time": 3802, "pitch": 72, "duration": 6, "velocity": 89}, {"time": 3808, "pitch": 76, "duration": 9, "velocity": 91}, {"time": 3817, "pitch": 77, "duration": 15, "velocity": 100}, {"time": 3832, "pitch": 77, "duration": 9, "velocity": 103}, {"time": 3841, "pitch": 72, "duration": 36, "velocity": 97}, {"time": 3877, "pitch": 74, "duration": 21, "velocity": 103}, {"time": 3898, "pitch": 72, "duration": 102, "velocity": 97}], "annotations": [{"time": 1527, "annotation": {"number": 1, "value": 9}, "group": "control_change"}, {"time": 2100, "annotation": {"number": 1, "value": 7}, "group": "control_change"}, {"time": 2115, "annotation": {"number": 1, "value": 11}, "group": "control_change"}, {"time": 2115, "annotation": {"number": 1, "value": 12}, "group": "control_change"}, {"time": 2116, "annotation": {"number": 1, "value": 11}, "group": "control_change"}, {"time": 2117, "annotation": {"number": 1, "value": 12}, "group": "control_change"}, {"time": 2119, "annotation": {"number": 1, "value": 11}, "group": "control_change"}, {"time": 2124, "annotation": {"number": 1, "value": 12}, "group": "control_change"}, {"time": 2124, "annotation": {"number": 1, "value": 11}, "group": "control_change"}, {"time": 2126, "annotation": {"number": 1, "value": 12}, "group": "control_change"}, {"time": 2126, "annotation": {"number": 1, "value": 11}, "group": "control_change"}, {"time": 2127, "annotation": {"number": 1, "value": 11}, "group": "control_change"}, {"time": 2129, "annotation": {"number": 1, "value": 12}, "group": "control_change"}, {"time": 2129, "annotation": {"number": 1, "value": 11}, "group": "control_change"}, {"time": 2141, "annotation": {"number": 1, "value": 11}, "group": "control_change"}, {"time": 2141, "annotation": {"number": 1, "value": 12}, "group": "control_change"}, {"time": 2152, "annotation": {"number": 1, "value": 11}, "group": "control_change"}, {"time": 2152, "annotation": {"number": 1, "value": 12}, "group": "control_change"}, {"time": 2153, "annotation": {"number": 1, "value": 12}, "group": "control_change"}, {"time": 2155, "annotation": {"number": 1, "value": 11}, "group": "control_change"}, {"time": 2155, "annotation": {"number": 1, "value": 12}, "group": "control_change"}, {"time": 2157, "annotation": {"number": 1, "value": 11}, "group": "control_change"}, {"time": 2158, "annotation": {"number": 1, "value": 12}, "group": "control_change"}, {"time": 2158, "annotation": {"number": 1, "value": 11}, "group": "control_change"}, {"time": 2159, "annotation": {"number": 1, "value": 11}, "group": "control_change"}, {"time": 2161, "annotation": {"number": 1, "value": 12}, "group": "control_change"}, {"time": 2161, "annotation": {"number": 1, "value": 11}, "group": "control_change"}, {"time": 2163, "annotation": {"number": 1, "value": 12}, "group": "control_change"}, {"time": 3585, "annotation": {"number": 1, "value": 5}, "group": "control_change"}]}, {"program": 0, "is_drum": false, "name": "PIANO", "notes": [{"time": 16, "pitch": 48, "duration": 36, "velocity": 63}, {"time": 16, "pitch": 62, "duration": 12, "velocity": 47}, {"time": 16, "pitch": 64, "duration": 12, "velocity": 59}, {"time": 16, "pitch": 67, "duration": 13, "velocity": 61}, {"time": 22, "pitch": 55, "duration": 31, "velocity": 49}, {"time": 28, "pitch": 60, "duration": 29, "velocity": 46}, {"time": 34, "pitch": 62, "duration": 18, "velocity": 59}, {"time": 34, "pitch": 67, "duration": 15, "velocity": 56}, {"time": 64, "pitch": 50, "duration": 33, "velocity": 68}, {"time": 64, "pitch": 65, "duration": 14, "velocity": 50}, {"time": 64, "pitch": 69, "duration": 12, "velocity": 61}, {"time": 70, "pitch": 57, "duration": 28, "velocity": 50}, {"time": 76, "pitch": 62, "duration": 17, "velocity": 49}, {"time": 82, "pitch": 64, "duration": 15, "velocity": 51}, {"time": 94, "pitch": 65, "duration": 6, "velocity": 61}, {"time": 112, "pitch": 45, "duration": 38, "velocity": 58}, {"time": 112, "pitch": 60, "duration": 12, "velocity": 56}, {"time": 112, "pitch": 64, "duration": 12, "velocity": 56}, {"time": 118, "pitch": 52, "duration": 36, "velocity": 55}, {"time": 124, "pitch": 57, "duration": 28, "velocity": 40}, {"time": 130, "pitch": 59, "duration": 15, "velocity": 46}, {"time": 142, "pitch": 60, "duration": 11, "velocity": 39}, {"time": 154, "pitch": 59, "duration": 6, "velocity": 42}, {"time": 154, "pitch": 62, "duration": 6, "velocity": 61}, {"time": 160, "pitch": 45, "duration": 33, "velocity": 58}, {"time": 160, "pitch": 60, "duration": 12, "velocity": 63}, {"time": 160, "pitch": 64, "duration": 13, "velocity": 70}, {"time": 166, "pitch": 52, "duration": 23, "velocity": 56}, {"time": 172, "pitch": 57, "duration": 18, "velocity": 61}, {"time": 178, "pitch": 59, "duration": 8, "velocity": 69}, {"time": 184, "pitch": 60, "duration": 6, "velocity": 75}, {"time": 190, "pitch": 62, "duration": 5, "velocity": 70}, {"time": 196, "pitch": 64, "duration": 6, "velocity": 60}, {"time": 202, "pitch": 67, "duration": 6, "velocity": 53}, {"time": 208, "pitch": 48, "duration": 37, "velocity": 66}, {"time": 208, "pitch": 60, "duration": 7, "velocity": 56}, {"time": 208, "pitch": 64, "duration": 10, "velocity": 73}, {"time": 214, "pitch": 55, "duration": 19, "velocity": 57}, {"time": 220, "pitch": 60, "duration": 23, "velocity": 34}, {"time": 226, "pitch": 62, "duration": 18, "velocity": 54}, {"time": 226, "pitch": 67, "duration": 17, "velocity": 59}, {"time": 244, "pitch": 55, "duration": 4, "velocity": 53}, {"time": 256, "pitch": 50, "duration": 37, "velocity": 59}, {"time": 256, "pitch": 57, "duration": 8, "velocity": 47}, {"time": 256, "pitch": 60, "duration": 7, "velocity": 69}, {"time": 256, "pitch": 65, "duration": 7, "velocity": 55}, {"time": 262, "pitch": 53, "duration": 31, "velocity": 54}, {"time": 268, "pitch": 57, "duration": 24, "velocity": 39}, {"time": 274, "pitch": 65, "duration": 17, "velocity": 61}, {"time": 304, "pitch": 45, "duration": 72, "velocity": 63}, {"time": 304, "pitch": 64, "duration": 7, "velocity": 63}, {"time": 310, "pitch": 57, "duration": 19, "velocity": 35}, {"time": 316, "pitch": 59, "duration": 14, "velocity": 57}, {"time": 322, "pitch": 60, "duration": 11, "velocity": 72}, {"time": 334, "pitch": 57, "duration": 40, "velocity": 25}, {"time": 340, "pitch": 64, "duration": 6, "velocity": 50}, {"time": 346, "pitch": 71, "duration": 6, "velocity": 75}, {"time": 352, "pitch": 64, "duration": 24, "velocity": 16}, {"time": 352, "pitch": 69, "duration": 25, "velocity": 19}, {"time": 352, "pitch": 72, "duration": 25, "velocity": 63}, {"time": 396, "pitch": 64, "duration": 16, "velocity": 51}, {"time": 397, "pitch": 67, "duration": 15, "velocity": 58}, {"time": 400, "pitch": 48, "duration": 40, "velocity": 63}, {"time": 400, "pitch": 72, "duration": 45, "velocity": 78}, {"time": 406, "pitch": 55, "duration": 43, "velocity": 53}, {"time": 412, "pitch": 60, "duration": 33, "velocity": 58}, {"time": 418, "pitch": 62, "duration": 42, "velocity": 54}, {"time": 448, "pitch": 48, "duration": 37, "velocity": 73}, {"time": 448, "pitch": 67, "duration": 12, "velocity": 62}, {"time": 454, "pitch": 55, "duration": 32, "velocity": 55}, {"time": 460, "pitch": 60, "duration": 21, "velocity": 41}, {"time": 466, "pitch": 62, "duration": 13, "velocity": 59}, {"time": 478, "pitch": 67, "duration": 9, "velocity": 73}, {"time": 496, "pitch": 52, "duration": 38, "velocity": 72}, {"time": 496, "pitch": 62, "duration": 7, "velocity": 55}, {"time": 496, "pitch": 67, "duration": 7, "velocity": 60}, {"time": 502, "pitch": 59, "duration": 35, "velocity": 40}, {"time": 508, "pitch": 62, "duration": 17, "velocity": 54}, {"time": 514, "pitch": 67, "duration": 19, "velocity": 59}, {"time": 532, "pitch": 69, "duration": 8, "velocity": 63}, {"time": 544, "pitch": 52, "duration": 40, "velocity": 59}, {"time": 544, "pitch": 67, "duration": 8, "velocity": 47}, {"time": 544, "pitch": 71, "duration": 8, "velocity": 73}, {"time": 550, "pitch": 59, "duration": 33, "velocity": 51}, {"time": 556, "pitch": 62, "duration": 20, "velocity": 49}, {"time": 562, "pitch": 67, "duration": 17, "velocity": 59}, {"time": 592, "pitch": 45, "duration": 41, "velocity": 63}, {"time": 592, "pitch": 64, "duration": 12, "velocity": 62}, {"time": 598, "pitch": 52, "duration": 39, "velocity": 60}, {"time": 604, "pitch": 57, "duration": 30, "velocity": 46}, {"time": 610, "pitch": 60, "duration": 12, "velocity": 57}, {"time": 622, "pitch": 62, "duration": 17, "velocity": 56}, {"time": 640, "pitch": 45, "duration": 36, "velocity": 47}, {"time": 640, "pitch": 60, "duration": 19, "velocity": 61}, {"time": 640, "pitch": 64, "duration": 28, "velocity": 61}, {"time": 658, "pitch": 52, "duration": 17, "velocity": 11}, {"time": 664, "pitch": 57, "duration": 8, "velocity": 50}, {"time": 670, "pitch": 60, "duration": 6, "velocity": 60}, {"time": 676, "pitch": 62, "duration": 8, "velocity": 71}, {"time": 688, "pitch": 50, "duration": 48, "velocity": 69}, {"time": 688, "pitch": 62, "duration": 8, "velocity": 44}, {"time": 688, "pitch": 66, "duration": 8, "velocity": 75}, {"time": 688, "pitch": 69, "duration": 8, "velocity": 71}, {"time": 694, "pitch": 57, "duration": 24, "velocity": 41}, {"time": 700, "pitch": 60, "duration": 18, "velocity": 61}, {"time": 706, "pitch": 66, "duration": 14, "velocity": 72}, {"time": 724, "pitch": 57, "duration": 12, "velocity": 43}, {"time": 730, "pitch": 60, "duration": 5, "velocity": 51}, {"time": 736, "pitch": 55, "duration": 33, "velocity": 60}, {"time": 736, "pitch": 60, "duration": 6, "velocity": 69}, {"time": 736, "pitch": 65, "duration": 7, "velocity": 69}, {"time": 736, "pitch": 69, "duration": 7, "velocity": 62}, {"time": 736, "pitch": 72, "duration": 20, "velocity": 59}, {"time": 742, "pitch": 59, "duration": 25, "velocity": 32}, {"time": 748, "pitch": 60, "duration": 8, "velocity": 61}, {"time": 754, "pitch": 65, "duration": 12, "velocity": 77}, {"time": 772, "pitch": 72, "duration": 8, "velocity": 78}, {"time": 784, "pitch": 52, "duration": 37, "velocity": 75}, {"time": 784, "pitch": 71, "duration": 12, "velocity": 75}, {"time": 790, "pitch": 59, "duration": 12, "velocity": 37}, {"time": 796, "pitch": 64, "duration": 10, "velocity": 59}, {"time": 802, "pitch": 69, "duration": 17, "velocity": 62}, {"time": 814, "pitch": 59, "duration": 11, "velocity": 56}, {"time": 820, "pitch": 64, "duration": 20, "velocity": 55}, {"time": 826, "pitch": 68, "duration": 16, "velocity": 61}, {"time": 832, "pitch": 52, "duration": 38, "velocity": 58}, {"time": 838, "pitch": 59, "duration": 16, "velocity": 68}, {"time": 844, "pitch": 64, "duration": 19, "velocity": 57}, {"time": 850, "pitch": 74, "duration": 14, "velocity": 75}, {"time": 862, "pitch": 59, "duration": 7, "velocity": 56}, {"time": 868, "pitch": 69, "duration": 7, "velocity": 70}, {"time": 874, "pitch": 71, "duration": 5, "velocity": 73}, {"time": 880, "pitch": 45, "duration": 10, "velocity": 62}, {"time": 880, "pitch": 64, "duration": 25, "velocity": 58}, {"time": 880, "pitch": 72, "duration": 27, "velocity": 75}, {"time": 886, "pitch": 52, "duration": 6, "velocity": 46}, {"time": 892, "pitch": 57, "duration": 8, "velocity": 47}, {"time": 898, "pitch": 59, "duration": 19, "velocity": 61}, {"time": 904, "pitch": 60, "duration": 19, "velocity": 71}, {"time": 910, "pitch": 64, "duration": 6, "velocity": 59}, {"time": 916, "pitch": 71, "duration": 6, "velocity": 71}, {"time": 922, "pitch": 64, "duration": 13, "velocity": 62}, {"time": 922, "pitch": 72, "duration": 14, "velocity": 52}, {"time": 928, "pitch": 57, "duration": 36, "velocity": 46}, {"time": 934, "pitch": 60, "duration": 19, "velocity": 71}, {"time": 940, "pitch": 64, "duration": 4, "velocity": 68}, {"time": 946, "pitch": 71, "duration": 6, "velocity": 79}, {"time": 952, "pitch": 72, "duration": 8, "velocity": 76}, {"time": 955, "pitch": 60, "duration": 6, "velocity": 57}, {"time": 961, "pitch": 67, "duration": 9, "velocity": 76}, {"time": 970, "pitch": 64, "duration": 3, "velocity": 62}, {"time": 976, "pitch": 53, "duration": 32, "velocity": 74}, {"time": 976, "pitch": 60, "duration": 13, "velocity": 59}, {"time": 976, "pitch": 65, "duration": 14, "velocity": 71}, {"time": 976, "pitch": 69, "duration": 15, "velocity": 60}, {"time": 1000, "pitch": 60, "duration": 15, "velocity": 57}, {"time": 1000, "pitch": 65, "duration": 16, "velocity": 63}, {"time": 1000, "pitch": 69, "duration": 16, "velocity": 57}, {"time": 1012, "pitch": 53, "duration": 4, "velocity": 72}, {"time": 1024, "pitch": 50, "duration": 37, "velocity": 50}, {"time": 1024, "pitch": 62, "duration": 8, "velocity": 50}, {"time": 1024, "pitch": 66, "duration": 8, "velocity": 71}, {"time": 1024, "pitch": 72, "duration": 16, "velocity": 58}, {"time": 1030, "pitch": 57, "duration": 14, "velocity": 43}, {"time": 1036, "pitch": 62, "duration": 20, "velocity": 68}, {"time": 1042, "pitch": 69, "duration": 19, "velocity": 79}, {"time": 1054, "pitch": 57, "duration": 6, "velocity": 51}, {"time": 1060, "pitch": 66, "duration": 2, "velocity": 82}, {"time": 1072, "pitch": 43, "duration": 38, "velocity": 71}, {"time": 1072, "pitch": 57, "duration": 11, "velocity": 59}, {"time": 1072, "pitch": 60, "duration": 9, "velocity": 72}, {"time": 1072, "pitch": 65, "duration": 13, "velocity": 63}, {"time": 1078, "pitch": 50, "duration": 36, "velocity": 57}, {"time": 1084, "pitch": 55, "duration": 13, "velocity": 50}, {"time": 1090, "pitch": 60, "duration": 13, "velocity": 76}, {"time": 1102, "pitch": 55, "duration": 11, "velocity": 47}, {"time": 1108, "pitch": 60, "duration": 5, "velocity": 69}, {"time": 1114, "pitch": 65, "duration": 3, "velocity": 75}, {"time": 1120, "pitch": 43, "duration": 34, "velocity": 60}, {"time": 1120, "pitch": 59, "duration": 11, "velocity": 68}, {"time": 1120, "pitch": 67, "duration": 10, "velocity": 74}, {"time": 1144, "pitch": 50, "duration": 12, "velocity": 50}, {"time": 1144, "pitch": 57, "duration": 14, "velocity": 54}, {"time": 1144, "pitch": 60, "duration": 11, "velocity": 69}, {"time": 1144, "pitch": 65, "duration": 13, "velocity": 63}, {"time": 1156, "pitch": 62, "duration": 3, "velocity": 70}, {"time": 1168, "pitch": 48, "duration": 39, "velocity": 56}, {"time": 1168, "pitch": 64, "duration": 16, "velocity": 56}, {"time": 1168, "pitch": 67, "duration": 15, "velocity": 63}, {"time": 1168, "pitch": 72, "duration": 16, "velocity": 73}, {"time": 1192, "pitch": 64, "duration": 16, "velocity": 60}, {"time": 1192, "pitch": 67, "duration": 14, "velocity": 69}, {"time": 1192, "pitch": 72, "duration": 16, "velocity": 68}, {"time": 1216, "pitch": 48, "duration": 36, "velocity": 61}, {"time": 1216, "pitch": 64, "duration": 13, "velocity": 61}, {"time": 1216, "pitch": 67, "duration": 13, "velocity": 68}, {"time": 1216, "pitch": 72, "duration": 13, "velocity": 61}, {"time": 1240, "pitch": 62, "duration": 7, "velocity": 59}, {"time": 1240, "pitch": 67, "duration": 8, "velocity": 61}, {"time": 1240, "pitch": 71, "duration": 10, "velocity": 73}, {"time": 1252, "pitch": 64, "duration": 3, "velocity": 41}, {"time": 1252, "pitch": 67, "duration": 3, "velocity": 49}, {"time": 1252, "pitch": 72, "duration": 3, "velocity": 79}, {"time": 1264, "pitch": 52, "duration": 38, "velocity": 50}, {"time": 1264, "pitch": 59, "duration": 30, "velocity": 57}, {"time": 1264, "pitch": 62, "duration": 16, "velocity": 61}, {"time": 1264, "pitch": 67, "duration": 16, "velocity": 67}, {"time": 1264, "pitch": 71, "duration": 16, "velocity": 77}, {"time": 1288, "pitch": 62, "duration": 13, "velocity": 59}, {"time": 1288, "pitch": 67, "duration": 13, "velocity": 68}, {"time": 1288, "pitch": 71, "duration": 13, "velocity": 74}, {"time": 1300, "pitch": 59, "duration": 4, "velocity": 37}, {"time": 1312, "pitch": 52, "duration": 40, "velocity": 59}, {"time": 1312, "pitch": 59, "duration": 25, "velocity": 63}, {"time": 1312, "pitch": 62, "duration": 16, "velocity": 56}, {"time": 1312, "pitch": 67, "duration": 16, "velocity": 58}, {"time": 1312, "pitch": 71, "duration": 15, "velocity": 69}, {"time": 1336, "pitch": 62, "duration": 6, "velocity": 61}, {"time": 1336, "pitch": 67, "duration": 6, "velocity": 61}, {"time": 1336, "pitch": 71, "duration": 7, "velocity": 73}, {"time": 1342, "pitch": 59, "duration": 10, "velocity": 61}, {"time": 1348, "pitch": 62, "duration": 6, "velocity": 63}, {"time": 1354, "pitch": 67, "duration": 3, "velocity": 63}, {"time": 1360, "pitch": 57, "duration": 33, "velocity": 61}, {"time": 1360, "pitch": 64, "duration": 17, "velocity": 63}, {"time": 1360, "pitch": 67, "duration": 17, "velocity": 38}, {"time": 1360, "pitch": 72, "duration": 17, "velocity": 69}, {"time": 1384, "pitch": 64, "duration": 9, "velocity": 68}, {"time": 1384, "pitch": 67, "duration": 9, "velocity": 69}, {"time": 1384, "pitch": 72, "duration": 7, "velocity": 73}, {"time": 1408, "pitch": 45, "duration": 35, "velocity": 58}, {"time": 1408, "pitch": 60, "duration": 9, "velocity": 60}, {"time": 1408, "pitch": 64, "duration": 10, "velocity": 68}, {"time": 1408, "pitch": 69, "duration": 10, "velocity": 67}, {"time": 1414, "pitch": 57, "duration": 24, "velocity": 27}, {"time": 1420, "pitch": 60, "duration": 4, "velocity": 54}, {"time": 1426, "pitch": 64, "duration": 18, "velocity": 58}, {"time": 1432, "pitch": 60, "duration": 10, "velocity": 63}, {"time": 1432, "pitch": 69, "duration": 10, "velocity": 69}, {"time": 1444, "pitch": 57, "duration": 3, "velocity": 47}, {"time": 1456, "pitch": 50, "duration": 36, "velocity": 52}, {"time": 1456, "pitch": 62, "duration": 8, "velocity": 53}, {"time": 1456, "pitch": 66, "duration": 8, "velocity": 72}, {"time": 1456, "pitch": 69, "duration": 8, "velocity": 58}, {"time": 1462, "pitch": 57, "duration": 14, "velocity": 36}, {"time": 1468, "pitch": 62, "duration": 15, "velocity": 41}, {"time": 1474, "pitch": 67, "duration": 13, "velocity": 61}, {"time": 1486, "pitch": 57, "duration": 6, "velocity": 51}, {"time": 1492, "pitch": 62, "duration": 3, "velocity": 63}, {"time": 1492, "pitch": 69, "duration": 3, "velocity": 69}, {"time": 1504, "pitch": 43, "duration": 31, "velocity": 62}, {"time": 1504, "pitch": 60, "duration": 8, "velocity": 76}, {"time": 1504, "pitch": 65, "duration": 8, "velocity": 69}, {"time": 1510, "pitch": 55, "duration": 18, "velocity": 35}, {"time": 1516, "pitch": 60, "duration": 8, "velocity": 61}, {"time": 1522, "pitch": 62, "duration": 7, "velocity": 82}, {"time": 1534, "pitch": 55, "duration": 4, "velocity": 53}, {"time": 1540, "pitch": 65, "duration": 2, "velocity": 80}, {"time": 1552, "pitch": 52, "duration": 27, "velocity": 69}, {"time": 1552, "pitch": 62, "duration": 7, "velocity": 63}, {"time": 1552, "pitch": 68, "duration": 8, "velocity": 63}, {"time": 1558, "pitch": 59, "duration": 13, "velocity": 59}, {"time": 1564, "pitch": 64, "duration": 4, "velocity": 54}, {"time": 1570, "pitch": 64, "duration": 7, "velocity": 53}, {"time": 1570, "pitch": 71, "duration": 9, "velocity": 84}, {"time": 1576, "pitch": 59, "duration": 3, "velocity": 73}, {"time": 1582, "pitch": 64, "duration": 9, "velocity": 35}, {"time": 1588, "pitch": 69, "duration": 6, "velocity": 73}, {"time": 1594, "pitch": 71, "duration": 14, "velocity": 76}, {"time": 1600, "pitch": 52, "duration": 35, "velocity": 71}, {"time": 1600, "pitch": 64, "duration": 9, "velocity": 69}, {"time": 1600, "pitch": 68, "duration": 9, "velocity": 59}, {"time": 1600, "pitch": 74, "duration": 12, "velocity": 73}, {"time": 1606, "pitch": 59, "duration": 20, "velocity": 58}, {"time": 1612, "pitch": 64, "duration": 6, "velocity": 56}, {"time": 1624, "pitch": 64, "duration": 8, "velocity": 60}, {"time": 1624, "pitch": 68, "duration": 8, "velocity": 58}, {"time": 1624, "pitch": 71, "duration": 8, "velocity": 78}, {"time": 1630, "pitch": 59, "duration": 4, "velocity": 71}, {"time": 1636, "pitch": 69, "duration": 4, "velocity": 75}, {"time": 1642, "pitch": 71, "duration": 5, "velocity": 79}, {"time": 1648, "pitch": 45, "duration": 11, "velocity": 71}, {"time": 1648, "pitch": 64, "duration": 26, "velocity": 71}, {"time": 1648, "pitch": 67, "duration": 24, "velocity": 69}, {"time": 1648, "pitch": 72, "duration": 25, "velocity": 80}, {"time": 1654, "pitch": 52, "duration": 6, "velocity": 59}, {"time": 1660, "pitch": 55, "duration": 7, "velocity": 53}, {"time": 1666, "pitch": 57, "duration": 24, "velocity": 62}, {"time": 1672, "pitch": 59, "duration": 17, "velocity": 48}, {"time": 1678, "pitch": 64, "duration": 8, "velocity": 62}, {"time": 1684, "pitch": 72, "duration": 4, "velocity": 76}, {"time": 1690, "pitch": 71, "duration": 5, "velocity": 72}, {"time": 1696, "pitch": 57, "duration": 34, "velocity": 60}, {"time": 1696, "pitch": 64, "duration": 8, "velocity": 63}, {"time": 1696, "pitch": 72, "duration": 8, "velocity": 78}, {"time": 1702, "pitch": 60, "duration": 12, "velocity": 69}, {"time": 1708, "pitch": 64, "duration": 4, "velocity": 53}, {"time": 1708, "pitch": 71, "duration": 7, "velocity": 68}, {"time": 1714, "pitch": 64, "duration": 7, "velocity": 51}, {"time": 1714, "pitch": 72, "duration": 9, "velocity": 78}, {"time": 1720, "pitch": 60, "duration": 9, "velocity": 57}, {"time": 1726, "pitch": 64, "duration": 5, "velocity": 72}, {"time": 1726, "pitch": 67, "duration": 8, "velocity": 77}, {"time": 1738, "pitch": 64, "duration": 3, "velocity": 48}, {"time": 1744, "pitch": 53, "duration": 32, "velocity": 72}, {"time": 1744, "pitch": 60, "duration": 19, "velocity": 62}, {"time": 1744, "pitch": 65, "duration": 19, "velocity": 75}, {"time": 1744, "pitch": 69, "duration": 13, "velocity": 69}, {"time": 1768, "pitch": 60, "duration": 15, "velocity": 76}, {"time": 1768, "pitch": 65, "duration": 15, "velocity": 79}, {"time": 1768, "pitch": 69, "duration": 14, "velocity": 72}, {"time": 1780, "pitch": 53, "duration": 9, "velocity": 62}, {"time": 1786, "pitch": 52, "duration": 5, "velocity": 69}, {"time": 1792, "pitch": 50, "duration": 33, "velocity": 73}, {"time": 1792, "pitch": 62, "duration": 19, "velocity": 76}, {"time": 1792, "pitch": 66, "duration": 16, "velocity": 55}, {"time": 1792, "pitch": 69, "duration": 20, "velocity": 73}, {"time": 1816, "pitch": 62, "duration": 12, "velocity": 70}, {"time": 1816, "pitch": 66, "duration": 10, "velocity": 82}, {"time": 1816, "pitch": 69, "duration": 12, "velocity": 71}, {"time": 1816, "pitch": 72, "duration": 11, "velocity": 74}, {"time": 1828, "pitch": 50, "duration": 2, "velocity": 79}, {"time": 1840, "pitch": 43, "duration": 40, "velocity": 79}, {"time": 1840, "pitch": 60, "duration": 8, "velocity": 75}, {"time": 1840, "pitch": 65, "duration": 8, "velocity": 78}, {"time": 1840, "pitch": 69, "duration": 8, "velocity": 73}, {"time": 1840, "pitch": 72, "duration": 8, "velocity": 30}, {"time": 1846, "pitch": 55, "duration": 14, "velocity": 49}, {"time": 1852, "pitch": 60, "duration": 4, "velocity": 61}, {"time": 1858, "pitch": 60, "duration": 11, "velocity": 80}, {"time": 1858, "pitch": 65, "duration": 13, "velocity": 84}, {"time": 1858, "pitch": 69, "duration": 1, "velocity": 69}, {"time": 1870, "pitch": 55, "duration": 10, "velocity": 69}, {"time": 1876, "pitch": 60, "duration": 5, "velocity": 77}, {"time": 1876, "pitch": 69, "duration": 6, "velocity": 79}, {"time": 1882, "pitch": 50, "duration": 4, "velocity": 73}, {"time": 1888, "pitch": 43, "duration": 7, "velocity": 80}, {"time": 1888, "pitch": 62, "duration": 7, "velocity": 80}, {"time": 1888, "pitch": 71, "duration": 6, "velocity": 90}, {"time": 1894, "pitch": 55, "duration": 8, "velocity": 55}, {"time": 1900, "pitch": 57, "duration": 7, "velocity": 68}, {"time": 1900, "pitch": 64, "duration": 3, "velocity": 76}, {"time": 1900, "pitch": 72, "duration": 3, "velocity": 90}, {"time": 1906, "pitch": 59, "duration": 5, "velocity": 68}, {"time": 1912, "pitch": 60, "duration": 6, "velocity": 62}, {"time": 1912, "pitch": 65, "duration": 2, "velocity": 77}, {"time": 1912, "pitch": 74, "duration": 3, "velocity": 90}, {"time": 1918, "pitch": 62, "duration": 9, "velocity": 71}, {"time": 1924, "pitch": 64, "duration": 2, "velocity": 79}, {"time": 1924, "pitch": 69, "duration": 2, "velocity": 47}, {"time": 1924, "pitch": 72, "duration": 3, "velocity": 70}, {"time": 1924, "pitch": 77, "duration": 5, "velocity": 86}, {"time": 1936, "pitch": 48, "duration": 39, "velocity": 80}, {"time": 1936, "pitch": 64, "duration": 14, "velocity": 68}, {"time": 1936, "pitch": 67, "duration": 12, "velocity": 72}, {"time": 1936, "pitch": 72, "duration": 13, "velocity": 81}, {"time": 1942, "pitch": 55, "duration": 28, "velocity": 63}, {"time": 1948, "pitch": 60, "duration": 12, "velocity": 71}, {"time": 1954, "pitch": 64, "duration": 4, "velocity": 69}, {"time": 1954, "pitch": 71, "duration": 6, "velocity": 84}, {"time": 1960, "pitch": 64, "duration": 6, "velocity": 63}, {"time": 1960, "pitch": 67, "duration": 7, "velocity": 80}, {"time": 1960, "pitch": 72, "duration": 6, "velocity": 82}, {"time": 1966, "pitch": 60, "duration": 5, "velocity": 45}, {"time": 1969, "pitch": 64, "duration": 5, "velocity": 71}, {"time": 1969, "pitch": 72, "duration": 5, "velocity": 83}, {"time": 1972, "pitch": 55, "duration": 6, "velocity": 72}, {"time": 1978, "pitch": 71, "duration": 4, "velocity": 80}, {"time": 1984, "pitch": 47, "duration": 43, "velocity": 76}, {"time": 1984, "pitch": 62, "duration": 8, "velocity": 70}, {"time": 1984, "pitch": 67, "duration": 8, "velocity": 79}, {"time": 1984, "pitch": 71, "duration": 7, "velocity": 83}, {"time": 1990, "pitch": 59, "duration": 18, "velocity": 62}, {"time": 1996, "pitch": 62, "duration": 6, "velocity": 63}, {"time": 2002, "pitch": 67, "duration": 8, "velocity": 83}, {"time": 2008, "pitch": 71, "duration": 2, "velocity": 86}, {"time": 2014, "pitch": 59, "duration": 7, "velocity": 56}, {"time": 2020, "pitch": 72, "duration": 3, "velocity": 78}, {"time": 2020, "pitch": 84, "duration": 3, "velocity": 74}, {"time": 2026, "pitch": 59, "duration": 2, "velocity": 54}, {"time": 2026, "pitch": 74, "duration": 2, "velocity": 63}, {"time": 2026, "pitch": 86, "duration": 3, "velocity": 83}, {"time": 2032, "pitch": 52, "duration": 36, "velocity": 77}, {"time": 2032, "pitch": 67, "duration": 11, "velocity": 78}, {"time": 2032, "pitch": 71, "duration": 12, "velocity": 84}, {"time": 2038, "pitch": 59, "duration": 17, "velocity": 68}, {"time": 2044, "pitch": 64, "duration": 20, "velocity": 69}, {"time": 2050, "pitch": 67, "duration": 6, "velocity": 69}, {"time": 2056, "pitch": 69, "duration": 5, "velocity": 76}, {"time": 2062, "pitch": 71, "duration": 5, "velocity": 79}, {"time": 2068, "pitch": 59, "duration": 2, "velocity": 77}, {"time": 2068, "pitch": 72, "duration": 10, "velocity": 78}, {"time": 2080, "pitch": 52, "duration": 38, "velocity": 81}, {"time": 2080, "pitch": 62, "duration": 6, "velocity": 63}, {"time": 2080, "pitch": 67, "duration": 11, "velocity": 73}, {"time": 2080, "pitch": 71, "duration": 9, "velocity": 81}, {"time": 2086, "pitch": 59, "duration": 11, "velocity": 61}, {"time": 2092, "pitch": 64, "duration": 9, "velocity": 68}, {"time": 2098, "pitch": 71, "duration": 5, "velocity": 74}, {"time": 2104, "pitch": 59, "duration": 13, "velocity": 61}, {"time": 2104, "pitch": 69, "duration": 9, "velocity": 75}, {"time": 2113, "pitch": 67, "duration": 7, "velocity": 77}, {"time": 2122, "pitch": 64, "duration": 2, "velocity": 69}, {"time": 2128, "pitch": 45, "duration": 10, "velocity": 78}, {"time": 2128, "pitch": 64, "duration": 13, "velocity": 78}, {"time": 2128, "pitch": 72, "duration": 14, "velocity": 86}, {"time": 2134, "pitch": 52, "duration": 6, "velocity": 62}, {"time": 2140, "pitch": 57, "duration": 7, "velocity": 53}, {"time": 2146, "pitch": 59, "duration": 8, "velocity": 70}, {"time": 2146, "pitch": 64, "duration": 4, "velocity": 73}, {"time": 2146, "pitch": 71, "duration": 6, "velocity": 80}, {"time": 2152, "pitch": 60, "duration": 7, "velocity": 81}, {"time": 2152, "pitch": 64, "duration": 4, "velocity": 45}, {"time": 2152, "pitch": 72, "duration": 7, "velocity": 83}, {"time": 2158, "pitch": 59, "duration": 5, "velocity": 62}, {"time": 2161, "pitch": 64, "duration": 3, "velocity": 76}, {"time": 2161, "pitch": 71, "duration": 5, "velocity": 82}, {"time": 2164, "pitch": 57, "duration": 3, "velocity": 56}, {"time": 2170, "pitch": 64, "duration": 2, "velocity": 56}, {"time": 2170, "pitch": 69, "duration": 5, "velocity": 76}, {"time": 2176, "pitch": 50, "duration": 38, "velocity": 68}, {"time": 2176, "pitch": 66, "duration": 11, "velocity": 79}, {"time": 2176, "pitch": 74, "duration": 12, "velocity": 83}, {"time": 2182, "pitch": 57, "duration": 11, "velocity": 57}, {"time": 2188, "pitch": 62, "duration": 8, "velocity": 59}, {"time": 2194, "pitch": 69, "duration": 8, "velocity": 73}, {"time": 2200, "pitch": 57, "duration": 7, "velocity": 57}, {"time": 2206, "pitch": 62, "duration": 5, "velocity": 61}, {"time": 2206, "pitch": 66, "duration": 4, "velocity": 72}, {"time": 2212, "pitch": 57, "duration": 3, "velocity": 73}, {"time": 2212, "pitch": 64, "duration": 4, "velocity": 70}, {"time": 2212, "pitch": 67, "duration": 8, "velocity": 71}, {"time": 2224, "pitch": 43, "duration": 43, "velocity": 80}, {"time": 2224, "pitch": 57, "duration": 14, "velocity": 69}, {"time": 2224, "pitch": 60, "duration": 13, "velocity": 82}, {"time": 2224, "pitch": 65, "duration": 13, "velocity": 83}, {"time": 2230, "pitch": 50, "duration": 34, "velocity": 68}, {"time": 2236, "pitch": 55, "duration": 22, "velocity": 72}, {"time": 2242, "pitch": 60, "duration": 7, "velocity": 82}, {"time": 2260, "pitch": 55, "duration": 8, "velocity": 68}, {"time": 2260, "pitch": 67, "duration": 2, "velocity": 80}, {"time": 2272, "pitch": 43, "duration": 9, "velocity": 79}, {"time": 2272, "pitch": 69, "duration": 7, "velocity": 38}, {"time": 2278, "pitch": 50, "duration": 5, "velocity": 69}, {"time": 2284, "pitch": 55, "duration": 7, "velocity": 56}, {"time": 2284, "pitch": 69, "duration": 3, "velocity": 68}, {"time": 2290, "pitch": 57, "duration": 9, "velocity": 68}, {"time": 2296, "pitch": 59, "duration": 5, "velocity": 78}, {"time": 2302, "pitch": 60, "duration": 8, "velocity": 72}, {"time": 2308, "pitch": 62, "duration": 3, "velocity": 79}, {"time": 2320, "pitch": 48, "duration": 43, "velocity": 82}, {"time": 2320, "pitch": 67, "duration": 9, "velocity": 74}, {"time": 2320, "pitch": 72, "duration": 7, "velocity": 79}, {"time": 2320, "pitch": 76, "duration": 7, "velocity": 79}, {"time": 2326, "pitch": 55, "duration": 33, "velocity": 72}, {"time": 2332, "pitch": 60, "duration": 7, "velocity": 68}, {"time": 2338, "pitch": 62, "duration": 8, "velocity": 78}, {"time": 2338, "pitch": 67, "duration": 8, "velocity": 79}, {"time": 2344, "pitch": 60, "duration": 8, "velocity": 58}, {"time": 2350, "pitch": 62, "duration": 6, "velocity": 83}, {"time": 2350, "pitch": 64, "duration": 8, "velocity": 78}, {"time": 2350, "pitch": 67, "duration": 7, "velocity": 83}, {"time": 2356, "pitch": 60, "duration": 5, "velocity": 56}, {"time": 2362, "pitch": 55, "duration": 3, "velocity": 54}, {"time": 2362, "pitch": 62, "duration": 3, "velocity": 73}, {"time": 2362, "pitch": 67, "duration": 4, "velocity": 78}, {"time": 2368, "pitch": 47, "duration": 39, "velocity": 59}, {"time": 2368, "pitch": 62, "duration": 16, "velocity": 75}, {"time": 2368, "pitch": 67, "duration": 13, "velocity": 79}, {"time": 2377, "pitch": 55, "duration": 31, "velocity": 57}, {"time": 2386, "pitch": 59, "duration": 7, "velocity": 68}, {"time": 2392, "pitch": 62, "duration": 8, "velocity": 79}, {"time": 2392, "pitch": 67, "duration": 8, "velocity": 82}, {"time": 2398, "pitch": 59, "duration": 7, "velocity": 58}, {"time": 2404, "pitch": 67, "duration": 4, "velocity": 81}, {"time": 2407, "pitch": 69, "duration": 5, "velocity": 68}, {"time": 2410, "pitch": 71, "duration": 24, "velocity": 80}, {"time": 2416, "pitch": 40, "duration": 4, "velocity": 86}, {"time": 2416, "pitch": 62, "duration": 20, "velocity": 73}, {"time": 2416, "pitch": 67, "duration": 19, "velocity": 78}, {"time": 2422, "pitch": 52, "duration": 7, "velocity": 58}, {"time": 2428, "pitch": 55, "duration": 14, "velocity": 72}, {"time": 2434, "pitch": 59, "duration": 17, "velocity": 80}, {"time": 2440, "pitch": 62, "duration": 7, "velocity": 79}, {"time": 2446, "pitch": 55, "duration": 8, "velocity": 79}, {"time": 2452, "pitch": 62, "duration": 2, "velocity": 63}, {"time": 2452, "pitch": 69, "duration": 5, "velocity": 79}, {"time": 2458, "pitch": 71, "duration": 5, "velocity": 83}, {"time": 2464, "pitch": 40, "duration": 33, "velocity": 82}, {"time": 2464, "pitch": 62, "duration": 8, "velocity": 78}, {"time": 2464, "pitch": 67, "duration": 9, "velocity": 79}, {"time": 2464, "pitch": 74, "duration": 9, "velocity": 82}, {"time": 2470, "pitch": 52, "duration": 14, "velocity": 72}, {"time": 2476, "pitch": 62, "duration": 4, "velocity": 73}, {"time": 2482, "pitch": 62, "duration": 2, "velocity": 79}, {"time": 2482, "pitch": 71, "duration": 3, "velocity": 86}, {"time": 2488, "pitch": 52, "duration": 3, "velocity": 53}, {"time": 2488, "pitch": 67, "duration": 2, "velocity": 54}, {"time": 2488, "pitch": 79, "duration": 3, "velocity": 80}, {"time": 2494, "pitch": 52, "duration": 8, "velocity": 70}, {"time": 2494, "pitch": 69, "duration": 3, "velocity": 60}, {"time": 2494, "pitch": 81, "duration": 3, "velocity": 83}, {"time": 2500, "pitch": 53, "duration": 7, "velocity": 70}, {"time": 2500, "pitch": 71, "duration": 3, "velocity": 72}, {"time": 2500, "pitch": 83, "duration": 4, "velocity": 82}, {"time": 2506, "pitch": 55, "duration": 2, "velocity": 72}, {"time": 2506, "pitch": 74, "duration": 2, "velocity": 74}, {"time": 2506, "pitch": 86, "duration": 1, "velocity": 39}, {"time": 2512, "pitch": 45, "duration": 40, "velocity": 79}, {"time": 2512, "pitch": 72, "duration": 8, "velocity": 78}, {"time": 2512, "pitch": 84, "duration": 7, "velocity": 84}, {"time": 2518, "pitch": 52, "duration": 41, "velocity": 73}, {"time": 2524, "pitch": 57, "duration": 7, "velocity": 57}, {"time": 2530, "pitch": 60, "duration": 4, "velocity": 78}, {"time": 2530, "pitch": 64, "duration": 4, "velocity": 73}, {"time": 2530, "pitch": 67, "duration": 5, "velocity": 79}, {"time": 2536, "pitch": 57, "duration": 5, "velocity": 40}, {"time": 2542, "pitch": 64, "duration": 3, "velocity": 76}, {"time": 2542, "pitch": 72, "duration": 4, "velocity": 83}, {"time": 2548, "pitch": 57, "duration": 5, "velocity": 48}, {"time": 2548, "pitch": 62, "duration": 3, "velocity": 68}, {"time": 2548, "pitch": 71, "duration": 4, "velocity": 76}, {"time": 2554, "pitch": 64, "duration": 3, "velocity": 73}, {"time": 2554, "pitch": 72, "duration": 4, "velocity": 82}, {"time": 2560, "pitch": 43, "duration": 38, "velocity": 79}, {"time": 2560, "pitch": 57, "duration": 9, "velocity": 73}, {"time": 2560, "pitch": 60, "duration": 9, "velocity": 81}, {"time": 2560, "pitch": 65, "duration": 8, "velocity": 81}, {"time": 2566, "pitch": 55, "duration": 15, "velocity": 58}, {"time": 2572, "pitch": 57, "duration": 5, "velocity": 72}, {"time": 2578, "pitch": 60, "duration": 6, "velocity": 83}, {"time": 2584, "pitch": 55, "duration": 21, "velocity": 61}, {"time": 2584, "pitch": 59, "duration": 11, "velocity": 82}, {"time": 2584, "pitch": 62, "duration": 13, "velocity": 81}, {"time": 2584, "pitch": 67, "duration": 10, "velocity": 81}, {"time": 2608, "pitch": 48, "duration": 37, "velocity": 86}, {"time": 2608, "pitch": 62, "duration": 14, "velocity": 80}, {"time": 2608, "pitch": 67, "duration": 12, "velocity": 80}, {"time": 2614, "pitch": 55, "duration": 25, "velocity": 73}, {"time": 2620, "pitch": 60, "duration": 7, "velocity": 63}, {"time": 2626, "pitch": 64, "duration": 6, "velocity": 82}, {"time": 2626, "pitch": 72, "duration": 7, "velocity": 93}, {"time": 2632, "pitch": 60, "duration": 8, "velocity": 51}, {"time": 2638, "pitch": 65, "duration": 8, "velocity": 84}, {"time": 2638, "pitch": 69, "duration": 8, "velocity": 76}, {"time": 2644, "pitch": 55, "duration": 8, "velocity": 73}, {"time": 2650, "pitch": 64, "duration": 19, "velocity": 83}, {"time": 2650, "pitch": 72, "duration": 19, "velocity": 84}, {"time": 2656, "pitch": 48, "duration": 38, "velocity": 78}, {"time": 2662, "pitch": 55, "duration": 37, "velocity": 68}, {"time": 2668, "pitch": 60, "duration": 24, "velocity": 69}, {"time": 2674, "pitch": 64, "duration": 6, "velocity": 73}, {"time": 2680, "pitch": 65, "duration": 3, "velocity": 76}, {"time": 2683, "pitch": 67, "duration": 2, "velocity": 74}, {"time": 2686, "pitch": 69, "duration": 4, "velocity": 82}, {"time": 2689, "pitch": 71, "duration": 5, "velocity": 79}, {"time": 2692, "pitch": 72, "duration": 6, "velocity": 76}, {"time": 2695, "pitch": 74, "duration": 3, "velocity": 73}, {"time": 2698, "pitch": 76, "duration": 4, "velocity": 75}, {"time": 2704, "pitch": 52, "duration": 43, "velocity": 83}, {"time": 2704, "pitch": 62, "duration": 8, "velocity": 76}, {"time": 2704, "pitch": 67, "duration": 8, "velocity": 78}, {"time": 2704, "pitch": 71, "duration": 7, "velocity": 83}, {"time": 2710, "pitch": 59, "duration": 17, "velocity": 80}, {"time": 2716, "pitch": 62, "duration": 4, "velocity": 80}, {"time": 2722, "pitch": 62, "duration": 14, "velocity": 84}, {"time": 2722, "pitch": 71, "duration": 14, "velocity": 84}, {"time": 2734, "pitch": 59, "duration": 8, "velocity": 79}, {"time": 2740, "pitch": 62, "duration": 7, "velocity": 83}, {"time": 2740, "pitch": 74, "duration": 9, "velocity": 86}, {"time": 2746, "pitch": 59, "duration": 5, "velocity": 79}, {"time": 2752, "pitch": 52, "duration": 38, "velocity": 82}, {"time": 2752, "pitch": 64, "duration": 9, "velocity": 75}, {"time": 2752, "pitch": 67, "duration": 8, "velocity": 76}, {"time": 2752, "pitch": 71, "duration": 9, "velocity": 86}, {"time": 2758, "pitch": 59, "duration": 14, "velocity": 78}, {"time": 2764, "pitch": 64, "duration": 4, "velocity": 76}, {"time": 2764, "pitch": 69, "duration": 5, "velocity": 77}, {"time": 2770, "pitch": 64, "duration": 4, "velocity": 79}, {"time": 2770, "pitch": 67, "duration": 2, "velocity": 76}, {"time": 2770, "pitch": 71, "duration": 7, "velocity": 84}, {"time": 2776, "pitch": 59, "duration": 7, "velocity": 71}, {"time": 2782, "pitch": 64, "duration": 8, "velocity": 80}, {"time": 2782, "pitch": 67, "duration": 8, "velocity": 79}, {"time": 2782, "pitch": 74, "duration": 8, "velocity": 91}, {"time": 2788, "pitch": 59, "duration": 2, "velocity": 84}, {"time": 2794, "pitch": 69, "duration": 5, "velocity": 78}, {"time": 2800, "pitch": 69, "duration": 6, "velocity": 80}, {"time": 2800, "pitch": 77, "duration": 8, "velocity": 86}, {"time": 2800, "pitch": 53, "duration": 38, "velocity": 75}, {"time": 2806, "pitch": 60, "duration": 12, "velocity": 62}, {"time": 2809, "pitch": 67, "duration": 2, "velocity": 77}, {"time": 2809, "pitch": 76, "duration": 6, "velocity": 79}, {"time": 2812, "pitch": 65, "duration": 7, "velocity": 58}, {"time": 2818, "pitch": 77, "duration": 2, "velocity": 84}, {"time": 2818, "pitch": 69, "duration": 2, "velocity": 80}, {"time": 2824, "pitch": 60, "duration": 3, "velocity": 78}, {"time": 2830, "pitch": 72, "duration": 7, "velocity": 86}, {"time": 2831, "pitch": 64, "duration": 1, "velocity": 44}, {"time": 2836, "pitch": 60, "duration": 2, "velocity": 80}, {"time": 2842, "pitch": 71, "duration": 3, "velocity": 72}, {"time": 2844, "pitch": 72, "duration": 14, "velocity": 77}, {"time": 2848, "pitch": 64, "duration": 10, "velocity": 75}, {"time": 2848, "pitch": 67, "duration": 10, "velocity": 81}, {"time": 2849, "pitch": 48, "duration": 38, "velocity": 79}, {"time": 2854, "pitch": 55, "duration": 26, "velocity": 71}, {"time": 2860, "pitch": 60, "duration": 6, "velocity": 60}, {"time": 2866, "pitch": 62, "duration": 8, "velocity": 78}, {"time": 2866, "pitch": 67, "duration": 7, "velocity": 78}, {"time": 2872, "pitch": 60, "duration": 8, "velocity": 57}, {"time": 2878, "pitch": 62, "duration": 3, "velocity": 73}, {"time": 2879, "pitch": 64, "duration": 6, "velocity": 62}, {"time": 2884, "pitch": 55, "duration": 4, "velocity": 78}, {"time": 2884, "pitch": 65, "duration": 6, "velocity": 75}, {"time": 2890, "pitch": 67, "duration": 3, "velocity": 82}, {"time": 2896, "pitch": 72, "duration": 7, "velocity": 86}, {"time": 2896, "pitch": 64, "duration": 6, "velocity": 79}, {"time": 2896, "pitch": 45, "duration": 11, "velocity": 76}, {"time": 2901, "pitch": 52, "duration": 7, "velocity": 59}, {"time": 2902, "pitch": 64, "duration": 4, "velocity": 35}, {"time": 2903, "pitch": 71, "duration": 6, "velocity": 82}, {"time": 2908, "pitch": 57, "duration": 7, "velocity": 52}, {"time": 2908, "pitch": 64, "duration": 10, "velocity": 61}, {"time": 2909, "pitch": 69, "duration": 5, "velocity": 79}, {"time": 2914, "pitch": 71, "duration": 8, "velocity": 58}, {"time": 2914, "pitch": 59, "duration": 8, "velocity": 71}, {"time": 2920, "pitch": 72, "duration": 9, "velocity": 84}, {"time": 2920, "pitch": 64, "duration": 6, "velocity": 73}, {"time": 2921, "pitch": 60, "duration": 11, "velocity": 77}, {"time": 2928, "pitch": 64, "duration": 3, "velocity": 63}, {"time": 2928, "pitch": 67, "duration": 5, "velocity": 79}, {"time": 2931, "pitch": 59, "duration": 3, "velocity": 77}, {"time": 2937, "pitch": 69, "duration": 6, "velocity": 76}, {"time": 2943, "pitch": 40, "duration": 6, "velocity": 83}, {"time": 2943, "pitch": 62, "duration": 22, "velocity": 75}, {"time": 2943, "pitch": 67, "duration": 22, "velocity": 77}, {"time": 2950, "pitch": 52, "duration": 7, "velocity": 54}, {"time": 2956, "pitch": 55, "duration": 27, "velocity": 71}, {"time": 2962, "pitch": 59, "duration": 6, "velocity": 76}, {"time": 2968, "pitch": 67, "duration": 7, "velocity": 79}, {"time": 2968, "pitch": 62, "duration": 6, "velocity": 78}, {"time": 2973, "pitch": 59, "duration": 3, "velocity": 73}, {"time": 2977, "pitch": 64, "duration": 4, "velocity": 82}, {"time": 2977, "pitch": 69, "duration": 7, "velocity": 79}, {"time": 2980, "pitch": 59, "duration": 2, "velocity": 79}, {"time": 2986, "pitch": 64, "duration": 2, "velocity": 79}, {"time": 2986, "pitch": 71, "duration": 2, "velocity": 83}, {"time": 2992, "pitch": 38, "duration": 6, "velocity": 83}, {"time": 2992, "pitch": 60, "duration": 19, "velocity": 80}, {"time": 2992, "pitch": 65, "duration": 20, "velocity": 82}, {"time": 2992, "pitch": 69, "duration": 20, "velocity": 82}, {"time": 2998, "pitch": 50, "duration": 7, "velocity": 72}, {"time": 2998, "pitch": 72, "duration": 13, "velocity": 3}, {"time": 3004, "pitch": 53, "duration": 18, "velocity": 80}, {"time": 3010, "pitch": 57, "duration": 11, "velocity": 76}, {"time": 3016, "pitch": 60, "duration": 5, "velocity": 95}, {"time": 3022, "pitch": 60, "duration": 2, "velocity": 52}, {"time": 3022, "pitch": 67, "duration": 4, "velocity": 81}, {"time": 3028, "pitch": 60, "duration": 2, "velocity": 51}, {"time": 3028, "pitch": 69, "duration": 7, "velocity": 81}, {"time": 3034, "pitch": 40, "duration": 2, "velocity": 83}, {"time": 3034, "pitch": 72, "duration": 4, "velocity": 81}, {"time": 3040, "pitch": 41, "duration": 11, "velocity": 86}, {"time": 3040, "pitch": 60, "duration": 12, "velocity": 83}, {"time": 3040, "pitch": 65, "duration": 12, "velocity": 82}, {"time": 3040, "pitch": 69, "duration": 13, "velocity": 82}, {"time": 3046, "pitch": 48, "duration": 6, "velocity": 80}, {"time": 3052, "pitch": 53, "duration": 7, "velocity": 70}, {"time": 3058, "pitch": 55, "duration": 9, "velocity": 73}, {"time": 3064, "pitch": 57, "duration": 6, "velocity": 73}, {"time": 3064, "pitch": 69, "duration": 5, "velocity": 75}, {"time": 3064, "pitch": 77, "duration": 10, "velocity": 84}, {"time": 3070, "pitch": 59, "duration": 7, "velocity": 71}, {"time": 3073, "pitch": 67, "duration": 3, "velocity": 75}, {"time": 3073, "pitch": 76, "duration": 7, "velocity": 84}, {"time": 3076, "pitch": 57, "duration": 6, "velocity": 37}, {"time": 3082, "pitch": 55, "duration": 2, "velocity": 74}, {"time": 3082, "pitch": 69, "duration": 2, "velocity": 68}, {"time": 3082, "pitch": 77, "duration": 3, "velocity": 84}, {"time": 3088, "pitch": 43, "duration": 28, "velocity": 90}, {"time": 3088, "pitch": 57, "duration": 16, "velocity": 79}, {"time": 3088, "pitch": 60, "duration": 15, "velocity": 90}, {"time": 3088, "pitch": 65, "duration": 12, "velocity": 84}, {"time": 3094, "pitch": 50, "duration": 21, "velocity": 80}, {"time": 3100, "pitch": 55, "duration": 15, "velocity": 79}, {"time": 3106, "pitch": 57, "duration": 8, "velocity": 76}, {"time": 3112, "pitch": 60, "duration": 2, "velocity": 83}, {"time": 3118, "pitch": 43, "duration": 2, "velocity": 84}, {"time": 3118, "pitch": 55, "duration": 2, "velocity": 84}, {"time": 3118, "pitch": 57, "duration": 2, "velocity": 79}, {"time": 3118, "pitch": 60, "duration": 2, "velocity": 90}, {"time": 3118, "pitch": 65, "duration": 2, "velocity": 84}, {"time": 3130, "pitch": 43, "duration": 20, "velocity": 90}, {"time": 3130, "pitch": 55, "duration": 11, "velocity": 84}, {"time": 3130, "pitch": 59, "duration": 13, "velocity": 86}, {"time": 3130, "pitch": 62, "duration": 13, "velocity": 90}, {"time": 3130, "pitch": 67, "duration": 13, "velocity": 84}, {"time": 3142, "pitch": 55, "duration": 5, "velocity": 72}, {"time": 3148, "pitch": 59, "duration": 3, "velocity": 76}, {"time": 3148, "pitch": 67, "duration": 1, "velocity": 53}, {"time": 3154, "pitch": 60, "duration": 2, "velocity": 68}, {"time": 3160, "pitch": 43, "duration": 19, "velocity": 83}, {"time": 3160, "pitch": 57, "duration": 6, "velocity": 78}, {"time": 3160, "pitch": 60, "duration": 8, "velocity": 84}, {"time": 3160, "pitch": 65, "duration": 5, "velocity": 84}, {"time": 3166, "pitch": 55, "duration": 11, "velocity": 62}, {"time": 3172, "pitch": 59, "duration": 7, "velocity": 90}, {"time": 3172, "pitch": 62, "duration": 7, "velocity": 93}, {"time": 3172, "pitch": 67, "duration": 8, "velocity": 84}, {"time": 3178, "pitch": 50, "duration": 2, "velocity": 90}, {"time": 3184, "pitch": 48, "duration": 42, "velocity": 83}, {"time": 3184, "pitch": 79, "duration": 8, "velocity": 78}, {"time": 3184, "pitch": 88, "duration": 6, "velocity": 84}, {"time": 3190, "pitch": 55, "duration": 37, "velocity": 75}, {"time": 3196, "pitch": 60, "duration": 7, "velocity": 71}, {"time": 3202, "pitch": 64, "duration": 5, "velocity": 78}, {"time": 3202, "pitch": 67, "duration": 7, "velocity": 78}, {"time": 3208, "pitch": 64, "duration": 6, "velocity": 84}, {"time": 3208, "pitch": 72, "duration": 7, "velocity": 91}, {"time": 3214, "pitch": 60, "duration": 4, "velocity": 54}, {"time": 3217, "pitch": 64, "duration": 6, "velocity": 84}, {"time": 3217, "pitch": 71, "duration": 7, "velocity": 84}, {"time": 3220, "pitch": 60, "duration": 4, "velocity": 68}, {"time": 3226, "pitch": 64, "duration": 2, "velocity": 73}, {"time": 3226, "pitch": 72, "duration": 4, "velocity": 86}, {"time": 3232, "pitch": 48, "duration": 38, "velocity": 80}, {"time": 3232, "pitch": 64, "duration": 5, "velocity": 69}, {"time": 3232, "pitch": 67, "duration": 5, "velocity": 72}, {"time": 3232, "pitch": 74, "duration": 6, "velocity": 84}, {"time": 3238, "pitch": 55, "duration": 28, "velocity": 61}, {"time": 3241, "pitch": 76, "duration": 3, "velocity": 84}, {"time": 3244, "pitch": 60, "duration": 7, "velocity": 58}, {"time": 3250, "pitch": 65, "duration": 3, "velocity": 79}, {"time": 3250, "pitch": 72, "duration": 3, "velocity": 75}, {"time": 3250, "pitch": 74, "duration": 1, "velocity": 68}, {"time": 3256, "pitch": 60, "duration": 3, "velocity": 42}, {"time": 3256, "pitch": 64, "duration": 6, "velocity": 80}, {"time": 3256, "pitch": 71, "duration": 7, "velocity": 84}, {"time": 3262, "pitch": 60, "duration": 4, "velocity": 69}, {"time": 3265, "pitch": 64, "duration": 5, "velocity": 83}, {"time": 3265, "pitch": 72, "duration": 6, "velocity": 86}, {"time": 3268, "pitch": 55, "duration": 3, "velocity": 78}, {"time": 3274, "pitch": 71, "duration": 3, "velocity": 80}, {"time": 3280, "pitch": 52, "duration": 40, "velocity": 81}, {"time": 3280, "pitch": 62, "duration": 8, "velocity": 74}, {"time": 3280, "pitch": 67, "duration": 8, "velocity": 75}, {"time": 3280, "pitch": 71, "duration": 7, "velocity": 82}, {"time": 3286, "pitch": 59, "duration": 14, "velocity": 71}, {"time": 3292, "pitch": 62, "duration": 3, "velocity": 55}, {"time": 3292, "pitch": 69, "duration": 4, "velocity": 71}, {"time": 3298, "pitch": 67, "duration": 7, "velocity": 80}, {"time": 3298, "pitch": 71, "duration": 7, "velocity": 80}, {"time": 3304, "pitch": 59, "duration": 12, "velocity": 73}, {"time": 3310, "pitch": 64, "duration": 9, "velocity": 62}, {"time": 3316, "pitch": 67, "duration": 4, "velocity": 90}, {"time": 3319, "pitch": 69, "duration": 6, "velocity": 72}, {"time": 3322, "pitch": 71, "duration": 4, "velocity": 68}, {"time": 3325, "pitch": 72, "duration": 3, "velocity": 82}, {"time": 3328, "pitch": 52, "duration": 33, "velocity": 78}, {"time": 3328, "pitch": 67, "duration": 9, "velocity": 75}, {"time": 3328, "pitch": 74, "duration": 9, "velocity": 90}, {"time": 3334, "pitch": 59, "duration": 10, "velocity": 57}, {"time": 3340, "pitch": 64, "duration": 6, "velocity": 72}, {"time": 3346, "pitch": 67, "duration": 7, "velocity": 76}, {"time": 3346, "pitch": 71, "duration": 7, "velocity": 81}, {"time": 3352, "pitch": 59, "duration": 7, "velocity": 74}, {"time": 3358, "pitch": 62, "duration": 4, "velocity": 73}, {"time": 3358, "pitch": 67, "duration": 9, "velocity": 80}, {"time": 3370, "pitch": 71, "duration": 2, "velocity": 84}, {"time": 3376, "pitch": 45, "duration": 5, "velocity": 79}, {"time": 3376, "pitch": 64, "duration": 6, "velocity": 80}, {"time": 3376, "pitch": 72, "duration": 7, "velocity": 90}, {"time": 3382, "pitch": 57, "duration": 7, "velocity": 50}, {"time": 3385, "pitch": 64, "duration": 4, "velocity": 78}, {"time": 3385, "pitch": 71, "duration": 6, "velocity": 82}, {"time": 3388, "pitch": 59, "duration": 20, "velocity": 68}, {"time": 3394, "pitch": 64, "duration": 8, "velocity": 79}, {"time": 3394, "pitch": 72, "duration": 8, "velocity": 84}, {"time": 3400, "pitch": 60, "duration": 10, "velocity": 83}, {"time": 3406, "pitch": 64, "duration": 8, "velocity": 82}, {"time": 3406, "pitch": 69, "duration": 8, "velocity": 80}, {"time": 3412, "pitch": 59, "duration": 3, "velocity": 83}, {"time": 3418, "pitch": 71, "duration": 3, "velocity": 75}, {"time": 3424, "pitch": 50, "duration": 37, "velocity": 79}, {"time": 3424, "pitch": 62, "duration": 8, "velocity": 73}, {"time": 3424, "pitch": 66, "duration": 8, "velocity": 83}, {"time": 3424, "pitch": 72, "duration": 8, "velocity": 83}, {"time": 3430, "pitch": 57, "duration": 16, "velocity": 72}, {"time": 3436, "pitch": 62, "duration": 4, "velocity": 76}, {"time": 3436, "pitch": 72, "duration": 1, "velocity": 58}, {"time": 3442, "pitch": 62, "duration": 13, "velocity": 82}, {"time": 3442, "pitch": 69, "duration": 14, "velocity": 83}, {"time": 3454, "pitch": 57, "duration": 7, "velocity": 71}, {"time": 3460, "pitch": 62, "duration": 3, "velocity": 80}, {"time": 3460, "pitch": 69, "duration": 3, "velocity": 79}, {"time": 3472, "pitch": 43, "duration": 39, "velocity": 81}, {"time": 3472, "pitch": 60, "duration": 13, "velocity": 81}, {"time": 3472, "pitch": 65, "duration": 13, "velocity": 80}, {"time": 3472, "pitch": 69, "duration": 12, "velocity": 78}, {"time": 3478, "pitch": 50, "duration": 39, "velocity": 76}, {"time": 3484, "pitch": 55, "duration": 14, "velocity": 77}, {"time": 3490, "pitch": 60, "duration": 8, "velocity": 90}, {"time": 3496, "pitch": 65, "duration": 8, "velocity": 84}, {"time": 3502, "pitch": 67, "duration": 4, "velocity": 84}, {"time": 3508, "pitch": 55, "duration": 5, "velocity": 69}, {"time": 3508, "pitch": 69, "duration": 7, "velocity": 86}, {"time": 3514, "pitch": 72, "duration": 5, "velocity": 83}, {"time": 3520, "pitch": 43, "duration": 9, "velocity": 79}, {"time": 3520, "pitch": 71, "duration": 6, "velocity": 86}, {"time": 3520, "pitch": 74, "duration": 6, "velocity": 84}, {"time": 3526, "pitch": 50, "duration": 5, "velocity": 75}, {"time": 3526, "pitch": 69, "duration": 3, "velocity": 59}, {"time": 3526, "pitch": 72, "duration": 6, "velocity": 84}, {"time": 3532, "pitch": 55, "duration": 7, "velocity": 53}, {"time": 3532, "pitch": 69, "duration": 7, "velocity": 76}, {"time": 3532, "pitch": 74, "duration": 5, "velocity": 84}, {"time": 3538, "pitch": 57, "duration": 8, "velocity": 72}, {"time": 3538, "pitch": 71, "duration": 2, "velocity": 83}, {"time": 3538, "pitch": 76, "duration": 3, "velocity": 80}, {"time": 3544, "pitch": 59, "duration": 6, "velocity": 71}, {"time": 3544, "pitch": 72, "duration": 2, "velocity": 84}, {"time": 3544, "pitch": 77, "duration": 3, "velocity": 84}, {"time": 3550, "pitch": 60, "duration": 7, "velocity": 79}, {"time": 3550, "pitch": 74, "duration": 2, "velocity": 81}, {"time": 3550, "pitch": 79, "duration": 3, "velocity": 55}, {"time": 3556, "pitch": 62, "duration": 3, "velocity": 60}, {"time": 3556, "pitch": 76, "duration": 2, "velocity": 79}, {"time": 3556, "pitch": 79, "duration": 2, "velocity": 70}, {"time": 3556, "pitch": 81, "duration": 2, "velocity": 74}, {"time": 3562, "pitch": 77, "duration": 5, "velocity": 79}, {"time": 3562, "pitch": 83, "duration": 2, "velocity": 78}, {"time": 3568, "pitch": 48, "duration": 40, "velocity": 83}, {"time": 3568, "pitch": 76, "duration": 8, "velocity": 79}, {"time": 3568, "pitch": 79, "duration": 7, "velocity": 82}, {"time": 3568, "pitch": 84, "duration": 6, "velocity": 80}, {"time": 3574, "pitch": 55, "duration": 29, "velocity": 72}, {"time": 3580, "pitch": 60, "duration": 8, "velocity": 69}, {"time": 3586, "pitch": 62, "duration": 4, "velocity": 83}, {"time": 3586, "pitch": 65, "duration": 2, "velocity": 75}, {"time": 3586, "pitch": 67, "duration": 5, "velocity": 72}, {"time": 3589, "pitch": 60, "duration": 3, "velocity": 70}, {"time": 3592, "pitch": 64, "duration": 6, "velocity": 83}, {"time": 3592, "pitch": 72, "duration": 6, "velocity": 84}, {"time": 3595, "pitch": 60, "duration": 5, "velocity": 68}, {"time": 3601, "pitch": 62, "duration": 5, "velocity": 84}, {"time": 3601, "pitch": 71, "duration": 6, "velocity": 83}, {"time": 3604, "pitch": 55, "duration": 3, "velocity": 23}, {"time": 3604, "pitch": 60, "duration": 4, "velocity": 84}, {"time": 3610, "pitch": 62, "duration": 2, "velocity": 76}, {"time": 3610, "pitch": 72, "duration": 3, "velocity": 84}, {"time": 3616, "pitch": 48, "duration": 12, "velocity": 84}, {"time": 3616, "pitch": 62, "duration": 5, "velocity": 70}, {"time": 3616, "pitch": 67, "duration": 10, "velocity": 83}, {"time": 3616, "pitch": 71, "duration": 8, "velocity": 79}, {"time": 3622, "pitch": 55, "duration": 6, "velocity": 73}, {"time": 3628, "pitch": 60, "duration": 7, "velocity": 76}, {"time": 3628, "pitch": 64, "duration": 2, "velocity": 81}, {"time": 3628, "pitch": 67, "duration": 1, "velocity": 84}, {"time": 3628, "pitch": 72, "duration": 3, "velocity": 90}, {"time": 3634, "pitch": 62, "duration": 8, "velocity": 76}, {"time": 3640, "pitch": 64, "duration": 8, "velocity": 76}, {"time": 3640, "pitch": 71, "duration": 3, "velocity": 61}, {"time": 3640, "pitch": 77, "duration": 2, "velocity": 83}, {"time": 3646, "pitch": 62, "duration": 8, "velocity": 79}, {"time": 3646, "pitch": 71, "duration": 4, "velocity": 81}, {"time": 3646, "pitch": 74, "duration": 3, "velocity": 69}, {"time": 3646, "pitch": 76, "duration": 3, "velocity": 72}, {"time": 3652, "pitch": 60, "duration": 3, "velocity": 82}, {"time": 3652, "pitch": 67, "duration": 3, "velocity": 62}, {"time": 3652, "pitch": 72, "duration": 5, "velocity": 84}, {"time": 3658, "pitch": 74, "duration": 4, "velocity": 80}, {"time": 3664, "pitch": 52, "duration": 38, "velocity": 83}, {"time": 3664, "pitch": 62, "duration": 7, "velocity": 77}, {"time": 3664, "pitch": 67, "duration": 7, "velocity": 82}, {"time": 3664, "pitch": 71, "duration": 8, "velocity": 83}, {"time": 3670, "pitch": 59, "duration": 12, "velocity": 78}, {"time": 3673, "pitch": 62, "duration": 4, "velocity": 71}, {"time": 3673, "pitch": 69, "duration": 6, "velocity": 63}, {"time": 3679, "pitch": 62, "duration": 9, "velocity": 84}, {"time": 3679, "pitch": 67, "duration": 9, "velocity": 80}, {"time": 3679, "pitch": 71, "duration": 8, "velocity": 91}, {"time": 3688, "pitch": 59, "duration": 7, "velocity": 78}, {"time": 3694, "pitch": 62, "duration": 4, "velocity": 79}, {"time": 3700, "pitch": 59, "duration": 4, "velocity": 83}, {"time": 3700, "pitch": 67, "duration": 4, "velocity": 79}, {"time": 3706, "pitch": 69, "duration": 4, "velocity": 80}, {"time": 3712, "pitch": 52, "duration": 39, "velocity": 82}, {"time": 3712, "pitch": 62, "duration": 6, "velocity": 79}, {"time": 3712, "pitch": 67, "duration": 6, "velocity": 80}, {"time": 3712, "pitch": 71, "duration": 6, "velocity": 83}, {"time": 3718, "pitch": 59, "duration": 14, "velocity": 73}, {"time": 3721, "pitch": 62, "duration": 6, "velocity": 79}, {"time": 3721, "pitch": 69, "duration": 8, "velocity": 79}, {"time": 3730, "pitch": 62, "duration": 6, "velocity": 61}, {"time": 3730, "pitch": 71, "duration": 9, "velocity": 86}, {"time": 3736, "pitch": 59, "duration": 15, "velocity": 78}, {"time": 3742, "pitch": 64, "duration": 6, "velocity": 75}, {"time": 3742, "pitch": 67, "duration": 7, "velocity": 80}, {"time": 3748, "pitch": 69, "duration": 5, "velocity": 78}, {"time": 3751, "pitch": 71, "duration": 3, "velocity": 82}, {"time": 3754, "pitch": 74, "duration": 3, "velocity": 78}, {"time": 3757, "pitch": 71, "duration": 2, "velocity": 59}, {"time": 3757, "pitch": 72, "duration": 1, "velocity": 53}, {"time": 3760, "pitch": 45, "duration": 10, "velocity": 54}, {"time": 3760, "pitch": 47, "duration": 2, "velocity": 70}, {"time": 3760, "pitch": 62, "duration": 3, "velocity": 68}, {"time": 3760, "pitch": 64, "duration": 24, "velocity": 73}, {"time": 3760, "pitch": 67, "duration": 2, "velocity": 58}, {"time": 3760, "pitch": 72, "duration": 24, "velocity": 84}, {"time": 3766, "pitch": 52, "duration": 6, "velocity": 78}, {"time": 3772, "pitch": 57, "duration": 7, "velocity": 60}, {"time": 3778, "pitch": 59, "duration": 9, "velocity": 79}, {"time": 3784, "pitch": 60, "duration": 14, "velocity": 80}, {"time": 3790, "pitch": 64, "duration": 9, "velocity": 82}, {"time": 3790, "pitch": 72, "duration": 10, "velocity": 91}, {"time": 3796, "pitch": 59, "duration": 3, "velocity": 76}, {"time": 3802, "pitch": 64, "duration": 3, "velocity": 61}, {"time": 3802, "pitch": 71, "duration": 3, "velocity": 79}, {"time": 3808, "pitch": 43, "duration": 6, "velocity": 81}, {"time": 3808, "pitch": 60, "duration": 12, "velocity": 80}, {"time": 3808, "pitch": 65, "duration": 19, "velocity": 79}, {"time": 3808, "pitch": 69, "duration": 20, "velocity": 82}, {"time": 3814, "pitch": 55, "duration": 8, "velocity": 59}, {"time": 3820, "pitch": 57, "duration": 18, "velocity": 50}, {"time": 3826, "pitch": 60, "duration": 10, "velocity": 84}, {"time": 3832, "pitch": 65, "duration": 8, "velocity": 80}, {"time": 3838, "pitch": 67, "duration": 4, "velocity": 72}, {"time": 3844, "pitch": 69, "duration": 6, "velocity": 72}, {"time": 3850, "pitch": 72, "duration": 5, "velocity": 79}, {"time": 3856, "pitch": 67, "duration": 8, "velocity": 79}, {"time": 3880, "pitch": 74, "duration": 4, "velocity": 54}, {"time": 3880, "pitch": 86, "duration": 4, "velocity": 77}, {"time": 3904, "pitch": 48, "duration": 71, "velocity": 76}, {"time": 3904, "pitch": 64, "duration": 18, "velocity": 38}, {"time": 3904, "pitch": 72, "duration": 18, "velocity": 47}, {"time": 3916, "pitch": 55, "duration": 58, "velocity": 59}, {"time": 3922, "pitch": 60, "duration": 51, "velocity": 61}, {"time": 3928, "pitch": 65, "duration": 6, "velocity": 71}, {"time": 3931, "pitch": 67, "duration": 2, "velocity": 76}, {"time": 3937, "pitch": 72, "duration": 4, "velocity": 73}, {"time": 3940, "pitch": 77, "duration": 6, "velocity": 78}, {"time": 3946, "pitch": 79, "duration": 2, "velocity": 60}, {"time": 3952, "pitch": 84, "duration": 8, "velocity": 78}, {"time": 3958, "pitch": 89, "duration": 5, "velocity": 79}, {"time": 3964, "pitch": 91, "duration": 9, "velocity": 73}, {"time": 3976, "pitch": 96, "duration": 2, "velocity": 63}, {"time": 3994, "pitch": 74, "duration": 12, "velocity": 48}, {"time": 3994, "pitch": 76, "duration": 11, "velocity": 54}, {"time": 3997, "pitch": 36, "duration": 3, "velocity": 76}, {"time": 3997, "pitch": 79, "duration": 10, "velocity": 62}, {"time": 4000, "pitch": 84, "duration": 9, "velocity": 36}], "annotations": [{"time": 19, "annotation": {"number": 64, "value": 127}, "group": "control_change"}, {"time": 19, "annotation": {"number": 64, "value": 0}, "group": "control_change"}, {"time": 64, "annotation": {"number": 64, "value": 0}, "group": "control_change"}, {"time": 68, "annotation": {"number": 64, "value": 127}, "group": "control_change"}, {"time": 114, "annotation": {"number": 64, "value": 0}, "group": "control_change"}, {"time": 118, "annotation": {"number": 64, "value": 127}, "group": "control_change"}, {"time": 209, "annotation": {"number": 64, "value": 0}, "group": "control_change"}, {"time": 213, "annotation": {"number": 64, "value": 127}, "group": "control_change"}, {"time": 256, "annotation": {"number": 64, "value": 0}, "group": "control_change"}, {"time": 260, "annotation": {"number": 64, "value": 127}, "group": "control_change"}, {"time": 303, "annotation": {"number": 64, "value": 0}, "group": "control_change"}, {"time": 307, "annotation": {"number": 64, "value": 127}, "group": "control_change"}, {"time": 391, "annotation": {"number": 64, "value": 0}, "group": "control_change"}, {"time": 400, "annotation": {"number": 64, "value": 127}, "group": "control_change"}, {"time": 400, "annotation": {"number": 64, "value": 0}, "group": "control_change"}, {"time": 449, "annotation": {"number": 64, "value": 0}, "group": "control_change"}, {"time": 452, "annotation": {"number": 64, "value": 127}, "group": "control_change"}, {"time": 496, "annotation": {"number": 64, "value": 0}, "group": "control_change"}, {"time": 500, "annotation": {"number": 64, "value": 127}, "group": "control_change"}, {"time": 593, "annotation": {"number": 64, "value": 0}, "group": "control_change"}, {"time": 597, "annotation": {"number": 64, "value": 127}, "group": "control_change"}, {"time": 688, "annotation": {"number": 64, "value": 0}, "group": "control_change"}, {"time": 689, "annotation": {"number": 64, "value": 127}, "group": "control_change"}, {"time": 736, "annotation": {"number": 64, "value": 127}, "group": "control_change"}, {"time": 766, "annotation": {"number": 64, "value": 0}, "group": "control_change"}, {"time": 784, "annotation": {"number": 64, "value": 0}, "group": "control_change"}, {"time": 788, "annotation": {"number": 64, "value": 127}, "group": "control_change"}, {"time": 833, "annotation": {"number": 64, "value": 0}, "group": "control_change"}, {"time": 837, "annotation": {"number": 64, "value": 127}, "group": "control_change"}, {"time": 837, "annotation": {"number": 64, "value": 0}, "group": "control_change"}, {"time": 879, "annotation": {"number": 64, "value": 0}, "group": "control_change"}, {"time": 882, "annotation": {"number": 64, "value": 127}, "group": "control_change"}, {"time": 931, "annotation": {"number": 64, "value": 0}, "group": "control_change"}, {"time": 935, "annotation": {"number": 64, "value": 127}, "group": "control_change"}, {"time": 976, "annotation": {"number": 64, "value": 0}, "group": "control_change"}, {"time": 979, "annotation": {"number": 64, "value": 127}, "group": "control_change"}, {"time": 1024, "annotation": {"number": 64, "value": 0}, "group": "control_change"}, {"time": 1025, "annotation": {"number": 64, "value": 127}, "group": "control_change"}, {"time": 1074, "annotation": {"number": 64, "value": 0}, "group": "control_change"}, {"time": 1078, "annotation": {"number": 64, "value": 127}, "group": "control_change"}, {"time": 1120, "annotation": {"number": 64, "value": 127}, "group": "control_change"}, {"time": 1147, "annotation": {"number": 64, "value": 0}, "group": "control_change"}, {"time": 1150, "annotation": {"number": 64, "value": 127}, "group": "control_change"}, {"time": 1167, "annotation": {"number": 64, "value": 0}, "group": "control_change"}, {"time": 1169, "annotation": {"number": 64, "value": 0}, "group": "control_change"}, {"time": 1171, "annotation": {"number": 64, "value": 127}, "group": "control_change"}, {"time": 1219, "annotation": {"number": 64, "value": 0}, "group": "control_change"}, {"time": 1222, "annotation": {"number": 64, "value": 127}, "group": "control_change"}, {"time": 1266, "annotation": {"number": 64, "value": 0}, "group": "control_change"}, {"time": 1270, "annotation": {"number": 64, "value": 127}, "group": "control_change"}, {"time": 1315, "annotation": {"number": 64, "value": 0}, "group": "control_change"}, {"time": 1318, "annotation": {"number": 64, "value": 127}, "group": "control_change"}, {"time": 1362, "annotation": {"number": 64, "value": 0}, "group": "control_change"}, {"time": 1365, "annotation": {"number": 64, "value": 127}, "group": "control_change"}, {"time": 1411, "annotation": {"number": 64, "value": 0}, "group": "control_change"}, {"time": 1414, "annotation": {"number": 64, "value": 127}, "group": "control_change"}, {"time": 1457, "annotation": {"number": 64, "value": 0}, "group": "control_change"}, {"time": 1460, "annotation": {"number": 64, "value": 127}, "group": "control_change"}, {"time": 1505, "annotation": {"number": 64, "value": 0}, "group": "control_change"}, {"time": 1507, "annotation": {"number": 64, "value": 127}, "group": "control_change"}, {"time": 1553, "annotation": {"number": 64, "value": 0}, "group": "control_change"}, {"time": 1556, "annotation": {"number": 64, "value": 127}, "group": "control_change"}, {"time": 1602, "annotation": {"number": 64, "value": 0}, "group": "control_change"}, {"time": 1605, "annotation": {"number": 64, "value": 127}, "group": "control_change"}, {"time": 1648, "annotation": {"number": 64, "value": 0}, "group": "control_change"}, {"time": 1652, "annotation": {"number": 64, "value": 127}, "group": "control_change"}, {"time": 1698, "annotation": {"number": 64, "value": 0}, "group": "control_change"}, {"time": 1701, "annotation": {"number": 64, "value": 127}, "group": "control_change"}, {"time": 1743, "annotation": {"number": 64, "value": 0}, "group": "control_change"}, {"time": 1746, "annotation": {"number": 64, "value": 127}, "group": "control_change"}, {"time": 1789, "annotation": {"number": 64, "value": 0}, "group": "control_change"}, {"time": 1794, "annotation": {"number": 64, "value": 127}, "group": "control_change"}, {"time": 1838, "annotation": {"number": 64, "value": 0}, "group": "control_change"}, {"time": 1841, "annotation": {"number": 64, "value": 127}, "group": "control_change"}, {"time": 1935, "annotation": {"number": 64, "value": 0}, "group": "control_change"}, {"time": 1936, "annotation": {"number": 64, "value": 127}, "group": "control_change"}, {"time": 1984, "annotation": {"number": 64, "value": 0}, "group": "control_change"}, {"time": 1988, "annotation": {"number": 64, "value": 127}, "group": "control_change"}, {"time": 2032, "annotation": {"number": 64, "value": 0}, "group": "control_change"}, {"time": 2034, "annotation": {"number": 64, "value": 127}, "group": "control_change"}, {"time": 2080, "annotation": {"number": 64, "value": 0}, "group": "control_change"}, {"time": 2082, "annotation": {"number": 64, "value": 127}, "group": "control_change"}, {"time": 2128, "annotation": {"number": 64, "value": 0}, "group": "control_change"}, {"time": 2129, "annotation": {"number": 64, "value": 127}, "group": "control_change"}, {"time": 2175, "annotation": {"number": 64, "value": 127}, "group": "control_change"}, {"time": 2224, "annotation": {"number": 64, "value": 0}, "group": "control_change"}, {"time": 2226, "annotation": {"number": 64, "value": 127}, "group": "control_change"}, {"time": 2321, "annotation": {"number": 64, "value": 0}, "group": "control_change"}, {"time": 2325, "annotation": {"number": 64, "value": 127}, "group": "control_change"}, {"time": 2370, "annotation": {"number": 64, "value": 0}, "group": "control_change"}, {"time": 2373, "annotation": {"number": 64, "value": 127}, "group": "control_change"}, {"time": 2415, "annotation": {"number": 64, "value": 0}, "group": "control_change"}, {"time": 2418, "annotation": {"number": 64, "value": 127}, "group": "control_change"}, {"time": 2465, "annotation": {"number": 64, "value": 0}, "group": "control_change"}, {"time": 2472, "annotation": {"number": 64, "value": 127}, "group": "control_change"}, {"time": 2512, "annotation": {"number": 64, "value": 0}, "group": "control_change"}, {"time": 2518, "annotation": {"number": 64, "value": 127}, "group": "control_change"}, {"time": 2560, "annotation": {"number": 64, "value": 0}, "group": "control_change"}, {"time": 2561, "annotation": {"number": 64, "value": 127}, "group": "control_change"}, {"time": 2610, "annotation": {"number": 64, "value": 0}, "group": "control_change"}, {"time": 2613, "annotation": {"number": 64, "value": 127}, "group": "control_change"}, {"time": 2703, "annotation": {"number": 64, "value": 127}, "group": "control_change"}, {"time": 2705, "annotation": {"number": 64, "value": 0}, "group": "control_change"}, {"time": 2708, "annotation": {"number": 64, "value": 127}, "group": "control_change"}, {"time": 2717, "annotation": {"number": 64, "value": 0}, "group": "control_change"}, {"time": 2755, "annotation": {"number": 64, "value": 0}, "group": "control_change"}, {"time": 2760, "annotation": {"number": 64, "value": 127}, "group": "control_change"}, {"time": 2800, "annotation": {"number": 64, "value": 0}, "group": "control_change"}, {"time": 2801, "annotation": {"number": 64, "value": 127}, "group": "control_change"}, {"time": 2847, "annotation": {"number": 64, "value": 0}, "group": "control_change"}, {"time": 2850, "annotation": {"number": 64, "value": 127}, "group": "control_change"}, {"time": 2892, "annotation": {"number": 64, "value": 0}, "group": "control_change"}, {"time": 2896, "annotation": {"number": 64, "value": 127}, "group": "control_change"}, {"time": 2944, "annotation": {"number": 64, "value": 0}, "group": "control_change"}, {"time": 2948, "annotation": {"number": 64, "value": 127}, "group": "control_change"}, {"time": 2991, "annotation": {"number": 64, "value": 0}, "group": "control_change"}, {"time": 2992, "annotation": {"number": 64, "value": 127}, "group": "control_change"}, {"time": 3041, "annotation": {"number": 64, "value": 0}, "group": "control_change"}, {"time": 3045, "annotation": {"number": 64, "value": 127}, "group": "control_change"}, {"time": 3087, "annotation": {"number": 64, "value": 0}, "group": "control_change"}, {"time": 3088, "annotation": {"number": 64, "value": 127}, "group": "control_change"}, {"time": 3120, "annotation": {"number": 64, "value": 0}, "group": "control_change"}, {"time": 3136, "annotation": {"number": 64, "value": 127}, "group": "control_change"}, {"time": 3185, "annotation": {"number": 64, "value": 0}, "group": "control_change"}, {"time": 3187, "annotation": {"number": 64, "value": 127}, "group": "control_change"}, {"time": 3231, "annotation": {"number": 64, "value": 127}, "group": "control_change"}, {"time": 3281, "annotation": {"number": 64, "value": 0}, "group": "control_change"}, {"time": 3284, "annotation": {"number": 64, "value": 127}, "group": "control_change"}, {"time": 3326, "annotation": {"number": 64, "value": 0}, "group": "control_change"}, {"time": 3330, "annotation": {"number": 64, "value": 127}, "group": "control_change"}, {"time": 3372, "annotation": {"number": 64, "value": 0}, "group": "control_change"}, {"time": 3376, "annotation": {"number": 64, "value": 127}, "group": "control_change"}, {"time": 3424, "annotation": {"number": 64, "value": 0}, "group": "control_change"}, {"time": 3425, "annotation": {"number": 64, "value": 127}, "group": "control_change"}, {"time": 3471, "annotation": {"number": 64, "value": 0}, "group": "control_change"}, {"time": 3478, "annotation": {"number": 64, "value": 127}, "group": "control_change"}, {"time": 3521, "annotation": {"number": 64, "value": 0}, "group": "control_change"}, {"time": 3525, "annotation": {"number": 64, "value": 127}, "group": "control_change"}, {"time": 3566, "annotation": {"number": 64, "value": 0}, "group": "control_change"}, {"time": 3571, "annotation": {"number": 64, "value": 127}, "group": "control_change"}, {"time": 3617, "annotation": {"number": 64, "value": 0}, "group": "control_change"}, {"time": 3623, "annotation": {"number": 64, "value": 127}, "group": "control_change"}, {"time": 3664, "annotation": {"number": 64, "value": 0}, "group": "control_change"}, {"time": 3670, "annotation": {"number": 64, "value": 127}, "group": "control_change"}, {"time": 3712, "annotation": {"number": 64, "value": 0}, "group": "control_change"}, {"time": 3713, "annotation": {"number": 64, "value": 127}, "group": "control_change"}, {"time": 3760, "annotation": {"number": 64, "value": 0}, "group": "control_change"}, {"time": 3764, "annotation": {"number": 64, "value": 127}, "group": "control_change"}, {"time": 3808, "annotation": {"number": 64, "value": 0}, "group": "control_change"}, {"time": 3809, "annotation": {"number": 64, "value": 127}, "group": "control_change"}, {"time": 3906, "annotation": {"number": 64, "value": 0}, "group": "control_change"}, {"time": 3912, "annotation": {"number": 64, "value": 127}, "group": "control_change"}, {"time": 4040, "annotation": {"number": 64, "value": 0}, "group": "control_change"}]}]}