{"metadata": {"schema_version": "0.2", "title": "None", "source_filename": "244.mid", "source_format": "midi"}, "resolution": 12, "tempos": [{"time": 0, "qpm": 61.99999586666694}, {"time": 1243, "qpm": 65.99999340000066}, {"time": 1255, "qpm": 61.99999586666694}, {"time": 1279, "qpm": 64.0}, {"time": 1303, "qpm": 60.0}, {"time": 1315, "qpm": 61.99999586666694}, {"time": 1351, "qpm": 64.99999458333379}, {"time": 1387, "qpm": 61.99999586666694}, {"time": 1435, "qpm": 64.99999458333379}, {"time": 1447, "qpm": 62.99999685000016}, {"time": 1471, "qpm": 61.99999586666694}, {"time": 1519, "qpm": 64.0}, {"time": 1543, "qpm": 61.99999586666694}, {"time": 1591, "qpm": 62.99999685000016}, {"time": 1615, "qpm": 67.00002903334591}, {"time": 1627, "qpm": 64.0}, {"time": 1639, "qpm": 62.99999685000016}, {"time": 1975, "qpm": 60.0}, {"time": 1987, "qpm": 61.99999586666694}, {"time": 2731, "qpm": 59.00006686674245}, {"time": 2743, "qpm": 62.99999685000016}, {"time": 2791, "qpm": 64.99999458333379}, {"time": 2803, "qpm": 62.99999685000016}, {"time": 2815, "qpm": 61.99999586666694}, {"time": 2839, "qpm": 62.99999685000016}, {"time": 3235, "qpm": 61.99999586666694}, {"time": 3295, "qpm": 64.99999458333379}, {"time": 3319, "qpm": 61.99999586666694}, {"time": 3355, "qpm": 64.0}, {"time": 3367, "qpm": 61.99999586666694}, {"time": 3391, "qpm": 62.99999685000016}, {"time": 3523, "qpm": 54.00000540000054}, {"time": 3535, "qpm": 40.0}, {"time": 3547, "qpm": 57.000031350017245}, {"time": 3559, "qpm": 60.0}, {"time": 3583, "qpm": 48.9999918333347}, {"time": 3595, "qpm": 61.99999586666694}, {"time": 3619, "qpm": 53.000022083342536}, {"time": 3643, "qpm": 60.99997255001235}, {"time": 3655, "qpm": 55.99997760000896}, {"time": 3667, "qpm": 48.9999918333347}, {"time": 3679, "qpm": 42.00001260000378}], "time_signatures": [{"time": 0, "numerator": 4, "denominator": 4}], "tracks": [{"program": 0, "is_drum": false, "name": "MELODY", "notes": [{"time": 439, "pitch": 70, "duration": 6, "velocity": 95}, {"time": 445, "pitch": 75, "duration": 4, "velocity": 86}, {"time": 451, "pitch": 75, "duration": 3, "velocity": 93}, {"time": 454, "pitch": 73, "duration": 3, "velocity": 83}, {"time": 457, "pitch": 75, "duration": 6, "velocity": 84}, {"time": 463, "pitch": 70, "duration": 6, "velocity": 95}, {"time": 469, "pitch": 77, "duration": 4, "velocity": 83}, {"time": 475, "pitch": 77, "duration": 2, "velocity": 86}, {"time": 478, "pitch": 75, "duration": 2, "velocity": 86}, {"time": 481, "pitch": 77, "duration": 5, "velocity": 86}, {"time": 487, "pitch": 78, "duration": 4, "velocity": 90}, {"time": 493, "pitch": 78, "duration": 5, "velocity": 83}, {"time": 499, "pitch": 78, "duration": 3, "velocity": 82}, {"time": 502, "pitch": 77, "duration": 2, "velocity": 94}, {"time": 505, "pitch": 75, "duration": 6, "velocity": 86}, {"time": 511, "pitch": 73, "duration": 21, "velocity": 95}, {"time": 535, "pitch": 70, "duration": 5, "velocity": 101}, {"time": 541, "pitch": 75, "duration": 4, "velocity": 86}, {"time": 547, "pitch": 75, "duration": 2, "velocity": 94}, {"time": 550, "pitch": 73, "duration": 3, "velocity": 84}, {"time": 553, "pitch": 75, "duration": 6, "velocity": 95}, {"time": 559, "pitch": 70, "duration": 7, "velocity": 101}, {"time": 565, "pitch": 77, "duration": 4, "velocity": 94}, {"time": 571, "pitch": 77, "duration": 2, "velocity": 103}, {"time": 574, "pitch": 75, "duration": 2, "velocity": 86}, {"time": 577, "pitch": 77, "duration": 5, "velocity": 105}, {"time": 583, "pitch": 78, "duration": 4, "velocity": 95}, {"time": 589, "pitch": 78, "duration": 4, "velocity": 84}, {"time": 595, "pitch": 78, "duration": 3, "velocity": 84}, {"time": 598, "pitch": 77, "duration": 2, "velocity": 83}, {"time": 601, "pitch": 78, "duration": 5, "velocity": 86}, {"time": 607, "pitch": 80, "duration": 21, "velocity": 94}, {"time": 631, "pitch": 80, "duration": 4, "velocity": 98}, {"time": 637, "pitch": 80, "duration": 4, "velocity": 90}, {"time": 643, "pitch": 80, "duration": 2, "velocity": 91}, {"time": 646, "pitch": 78, "duration": 4, "velocity": 83}, {"time": 649, "pitch": 80, "duration": 2, "velocity": 86}, {"time": 652, "pitch": 82, "duration": 4, "velocity": 93}, {"time": 655, "pitch": 80, "duration": 12, "velocity": 94}, {"time": 667, "pitch": 75, "duration": 13, "velocity": 104}, {"time": 679, "pitch": 80, "duration": 4, "velocity": 76}, {"time": 685, "pitch": 82, "duration": 5, "velocity": 91}, {"time": 691, "pitch": 75, "duration": 3, "velocity": 95}, {"time": 694, "pitch": 73, "duration": 3, "velocity": 86}, {"time": 697, "pitch": 75, "duration": 5, "velocity": 91}, {"time": 703, "pitch": 70, "duration": 23, "velocity": 101}, {"time": 727, "pitch": 68, "duration": 9, "velocity": 98}, {"time": 736, "pitch": 75, "duration": 15, "velocity": 103}, {"time": 751, "pitch": 73, "duration": 6, "velocity": 101}, {"time": 757, "pitch": 77, "duration": 11, "velocity": 98}, {"time": 769, "pitch": 75, "duration": 3, "velocity": 90}, {"time": 772, "pitch": 73, "duration": 4, "velocity": 93}, {"time": 775, "pitch": 75, "duration": 44, "velocity": 94}, {"time": 823, "pitch": 70, "duration": 6, "velocity": 94}, {"time": 829, "pitch": 75, "duration": 5, "velocity": 95}, {"time": 835, "pitch": 75, "duration": 3, "velocity": 93}, {"time": 838, "pitch": 73, "duration": 3, "velocity": 90}, {"time": 841, "pitch": 75, "duration": 6, "velocity": 98}, {"time": 847, "pitch": 70, "duration": 6, "velocity": 95}, {"time": 853, "pitch": 77, "duration": 4, "velocity": 103}, {"time": 859, "pitch": 77, "duration": 2, "velocity": 98}, {"time": 862, "pitch": 75, "duration": 4, "velocity": 86}, {"time": 865, "pitch": 77, "duration": 4, "velocity": 103}, {"time": 871, "pitch": 78, "duration": 4, "velocity": 93}, {"time": 877, "pitch": 78, "duration": 4, "velocity": 90}, {"time": 883, "pitch": 78, "duration": 3, "velocity": 86}, {"time": 886, "pitch": 77, "duration": 2, "velocity": 101}, {"time": 889, "pitch": 75, "duration": 6, "velocity": 93}, {"time": 895, "pitch": 73, "duration": 23, "velocity": 100}, {"time": 919, "pitch": 70, "duration": 7, "velocity": 103}, {"time": 925, "pitch": 75, "duration": 5, "velocity": 84}, {"time": 931, "pitch": 75, "duration": 2, "velocity": 95}, {"time": 934, "pitch": 73, "duration": 3, "velocity": 84}, {"time": 937, "pitch": 75, "duration": 5, "velocity": 91}, {"time": 943, "pitch": 70, "duration": 6, "velocity": 103}, {"time": 949, "pitch": 77, "duration": 4, "velocity": 105}, {"time": 955, "pitch": 77, "duration": 2, "velocity": 98}, {"time": 958, "pitch": 75, "duration": 4, "velocity": 86}, {"time": 961, "pitch": 77, "duration": 4, "velocity": 103}, {"time": 967, "pitch": 78, "duration": 4, "velocity": 93}, {"time": 973, "pitch": 78, "duration": 4, "velocity": 86}, {"time": 979, "pitch": 78, "duration": 2, "velocity": 93}, {"time": 982, "pitch": 77, "duration": 2, "velocity": 86}, {"time": 985, "pitch": 78, "duration": 5, "velocity": 95}, {"time": 991, "pitch": 80, "duration": 22, "velocity": 101}, {"time": 1015, "pitch": 80, "duration": 4, "velocity": 98}, {"time": 1021, "pitch": 80, "duration": 4, "velocity": 94}, {"time": 1027, "pitch": 80, "duration": 3, "velocity": 86}, {"time": 1030, "pitch": 78, "duration": 4, "velocity": 83}, {"time": 1033, "pitch": 80, "duration": 3, "velocity": 93}, {"time": 1036, "pitch": 82, "duration": 4, "velocity": 95}, {"time": 1039, "pitch": 80, "duration": 12, "velocity": 98}, {"time": 1051, "pitch": 75, "duration": 13, "velocity": 104}, {"time": 1063, "pitch": 82, "duration": 4, "velocity": 90}, {"time": 1069, "pitch": 82, "duration": 5, "velocity": 99}, {"time": 1075, "pitch": 75, "duration": 3, "velocity": 93}, {"time": 1078, "pitch": 73, "duration": 3, "velocity": 91}, {"time": 1081, "pitch": 75, "duration": 6, "velocity": 95}, {"time": 1087, "pitch": 70, "duration": 23, "velocity": 100}, {"time": 1111, "pitch": 68, "duration": 9, "velocity": 104}, {"time": 1120, "pitch": 75, "duration": 15, "velocity": 101}, {"time": 1135, "pitch": 73, "duration": 6, "velocity": 90}, {"time": 1141, "pitch": 77, "duration": 10, "velocity": 105}, {"time": 1153, "pitch": 75, "duration": 2, "velocity": 94}, {"time": 1156, "pitch": 73, "duration": 3, "velocity": 90}, {"time": 1159, "pitch": 75, "duration": 45, "velocity": 95}, {"time": 1207, "pitch": 78, "duration": 17, "velocity": 93}, {"time": 1225, "pitch": 80, "duration": 5, "velocity": 98}, {"time": 1231, "pitch": 82, "duration": 22, "velocity": 98}, {"time": 1255, "pitch": 83, "duration": 6, "velocity": 98}, {"time": 1261, "pitch": 82, "duration": 5, "velocity": 93}, {"time": 1267, "pitch": 80, "duration": 6, "velocity": 95}, {"time": 1273, "pitch": 83, "duration": 6, "velocity": 94}, {"time": 1279, "pitch": 82, "duration": 22, "velocity": 98}, {"time": 1303, "pitch": 78, "duration": 6, "velocity": 84}, {"time": 1309, "pitch": 75, "duration": 2, "velocity": 84}, {"time": 1315, "pitch": 75, "duration": 10, "velocity": 91}, {"time": 1321, "pitch": 78, "duration": 4, "velocity": 83}, {"time": 1324, "pitch": 80, "duration": 7, "velocity": 83}, {"time": 1333, "pitch": 80, "duration": 5, "velocity": 90}, {"time": 1339, "pitch": 80, "duration": 5, "velocity": 93}, {"time": 1345, "pitch": 73, "duration": 6, "velocity": 90}, {"time": 1351, "pitch": 78, "duration": 19, "velocity": 83}, {"time": 1369, "pitch": 80, "duration": 6, "velocity": 91}, {"time": 1375, "pitch": 82, "duration": 22, "velocity": 91}, {"time": 1399, "pitch": 78, "duration": 16, "velocity": 86}, {"time": 1417, "pitch": 80, "duration": 5, "velocity": 93}, {"time": 1423, "pitch": 82, "duration": 22, "velocity": 90}, {"time": 1447, "pitch": 83, "duration": 5, "velocity": 86}, {"time": 1453, "pitch": 82, "duration": 6, "velocity": 93}, {"time": 1459, "pitch": 80, "duration": 6, "velocity": 90}, {"time": 1465, "pitch": 83, "duration": 5, "velocity": 93}, {"time": 1471, "pitch": 82, "duration": 21, "velocity": 91}, {"time": 1495, "pitch": 78, "duration": 6, "velocity": 84}, {"time": 1501, "pitch": 75, "duration": 4, "velocity": 93}, {"time": 1507, "pitch": 75, "duration": 7, "velocity": 84}, {"time": 1513, "pitch": 78, "duration": 3, "velocity": 81}, {"time": 1516, "pitch": 80, "duration": 8, "velocity": 80}, {"time": 1525, "pitch": 80, "duration": 4, "velocity": 84}, {"time": 1531, "pitch": 80, "duration": 5, "velocity": 84}, {"time": 1537, "pitch": 73, "duration": 6, "velocity": 90}, {"time": 1543, "pitch": 78, "duration": 15, "velocity": 84}, {"time": 1561, "pitch": 80, "duration": 10, "velocity": 91}, {"time": 1573, "pitch": 73, "duration": 6, "velocity": 90}, {"time": 1579, "pitch": 77, "duration": 4, "velocity": 84}, {"time": 1585, "pitch": 75, "duration": 3, "velocity": 76}, {"time": 1588, "pitch": 73, "duration": 4, "velocity": 76}, {"time": 1591, "pitch": 75, "duration": 18, "velocity": 80}, {"time": 1975, "pitch": 70, "duration": 6, "velocity": 95}, {"time": 1981, "pitch": 75, "duration": 4, "velocity": 86}, {"time": 1987, "pitch": 75, "duration": 3, "velocity": 93}, {"time": 1990, "pitch": 73, "duration": 3, "velocity": 83}, {"time": 1993, "pitch": 75, "duration": 6, "velocity": 84}, {"time": 1999, "pitch": 70, "duration": 6, "velocity": 95}, {"time": 2005, "pitch": 77, "duration": 4, "velocity": 83}, {"time": 2011, "pitch": 77, "duration": 2, "velocity": 86}, {"time": 2014, "pitch": 75, "duration": 2, "velocity": 86}, {"time": 2017, "pitch": 77, "duration": 5, "velocity": 86}, {"time": 2023, "pitch": 78, "duration": 4, "velocity": 90}, {"time": 2029, "pitch": 78, "duration": 5, "velocity": 83}, {"time": 2035, "pitch": 78, "duration": 3, "velocity": 82}, {"time": 2038, "pitch": 77, "duration": 2, "velocity": 94}, {"time": 2041, "pitch": 75, "duration": 6, "velocity": 86}, {"time": 2047, "pitch": 73, "duration": 21, "velocity": 95}, {"time": 2071, "pitch": 70, "duration": 5, "velocity": 101}, {"time": 2077, "pitch": 75, "duration": 4, "velocity": 86}, {"time": 2083, "pitch": 75, "duration": 2, "velocity": 94}, {"time": 2086, "pitch": 73, "duration": 3, "velocity": 84}, {"time": 2089, "pitch": 75, "duration": 6, "velocity": 95}, {"time": 2095, "pitch": 70, "duration": 7, "velocity": 101}, {"time": 2101, "pitch": 77, "duration": 4, "velocity": 94}, {"time": 2107, "pitch": 77, "duration": 2, "velocity": 103}, {"time": 2110, "pitch": 75, "duration": 2, "velocity": 86}, {"time": 2113, "pitch": 77, "duration": 5, "velocity": 105}, {"time": 2119, "pitch": 78, "duration": 4, "velocity": 95}, {"time": 2125, "pitch": 78, "duration": 4, "velocity": 84}, {"time": 2131, "pitch": 78, "duration": 3, "velocity": 84}, {"time": 2134, "pitch": 77, "duration": 2, "velocity": 83}, {"time": 2137, "pitch": 78, "duration": 5, "velocity": 86}, {"time": 2143, "pitch": 80, "duration": 21, "velocity": 94}, {"time": 2167, "pitch": 80, "duration": 4, "velocity": 98}, {"time": 2173, "pitch": 80, "duration": 4, "velocity": 90}, {"time": 2179, "pitch": 80, "duration": 2, "velocity": 91}, {"time": 2182, "pitch": 78, "duration": 4, "velocity": 83}, {"time": 2185, "pitch": 80, "duration": 2, "velocity": 86}, {"time": 2188, "pitch": 82, "duration": 4, "velocity": 93}, {"time": 2191, "pitch": 80, "duration": 12, "velocity": 94}, {"time": 2203, "pitch": 75, "duration": 13, "velocity": 104}, {"time": 2215, "pitch": 80, "duration": 4, "velocity": 76}, {"time": 2221, "pitch": 82, "duration": 5, "velocity": 91}, {"time": 2227, "pitch": 75, "duration": 3, "velocity": 95}, {"time": 2230, "pitch": 73, "duration": 3, "velocity": 86}, {"time": 2233, "pitch": 75, "duration": 5, "velocity": 91}, {"time": 2239, "pitch": 70, "duration": 23, "velocity": 101}, {"time": 2263, "pitch": 68, "duration": 6, "velocity": 98}, {"time": 2269, "pitch": 75, "duration": 18, "velocity": 103}, {"time": 2287, "pitch": 73, "duration": 6, "velocity": 101}, {"time": 2293, "pitch": 77, "duration": 11, "velocity": 98}, {"time": 2305, "pitch": 75, "duration": 3, "velocity": 90}, {"time": 2308, "pitch": 73, "duration": 4, "velocity": 93}, {"time": 2311, "pitch": 75, "duration": 44, "velocity": 94}, {"time": 2359, "pitch": 70, "duration": 6, "velocity": 94}, {"time": 2365, "pitch": 75, "duration": 5, "velocity": 95}, {"time": 2371, "pitch": 75, "duration": 3, "velocity": 93}, {"time": 2374, "pitch": 73, "duration": 3, "velocity": 90}, {"time": 2377, "pitch": 75, "duration": 6, "velocity": 98}, {"time": 2383, "pitch": 70, "duration": 6, "velocity": 95}, {"time": 2389, "pitch": 77, "duration": 4, "velocity": 103}, {"time": 2395, "pitch": 77, "duration": 2, "velocity": 98}, {"time": 2398, "pitch": 75, "duration": 4, "velocity": 86}, {"time": 2401, "pitch": 77, "duration": 4, "velocity": 103}, {"time": 2407, "pitch": 78, "duration": 4, "velocity": 93}, {"time": 2413, "pitch": 78, "duration": 4, "velocity": 90}, {"time": 2419, "pitch": 78, "duration": 3, "velocity": 86}, {"time": 2422, "pitch": 77, "duration": 2, "velocity": 101}, {"time": 2425, "pitch": 75, "duration": 6, "velocity": 93}, {"time": 2431, "pitch": 73, "duration": 23, "velocity": 100}, {"time": 2455, "pitch": 70, "duration": 7, "velocity": 103}, {"time": 2461, "pitch": 75, "duration": 5, "velocity": 84}, {"time": 2467, "pitch": 75, "duration": 2, "velocity": 95}, {"time": 2470, "pitch": 73, "duration": 3, "velocity": 84}, {"time": 2473, "pitch": 75, "duration": 5, "velocity": 91}, {"time": 2479, "pitch": 70, "duration": 6, "velocity": 103}, {"time": 2485, "pitch": 77, "duration": 4, "velocity": 105}, {"time": 2491, "pitch": 77, "duration": 2, "velocity": 98}, {"time": 2494, "pitch": 75, "duration": 4, "velocity": 86}, {"time": 2497, "pitch": 77, "duration": 4, "velocity": 103}, {"time": 2503, "pitch": 78, "duration": 4, "velocity": 93}, {"time": 2509, "pitch": 78, "duration": 4, "velocity": 86}, {"time": 2515, "pitch": 78, "duration": 2, "velocity": 93}, {"time": 2518, "pitch": 77, "duration": 2, "velocity": 86}, {"time": 2521, "pitch": 78, "duration": 5, "velocity": 95}, {"time": 2527, "pitch": 80, "duration": 22, "velocity": 101}, {"time": 2551, "pitch": 80, "duration": 4, "velocity": 98}, {"time": 2557, "pitch": 80, "duration": 4, "velocity": 94}, {"time": 2563, "pitch": 80, "duration": 3, "velocity": 86}, {"time": 2566, "pitch": 78, "duration": 4, "velocity": 83}, {"time": 2569, "pitch": 80, "duration": 3, "velocity": 93}, {"time": 2572, "pitch": 82, "duration": 4, "velocity": 95}, {"time": 2575, "pitch": 80, "duration": 12, "velocity": 98}, {"time": 2587, "pitch": 75, "duration": 13, "velocity": 104}, {"time": 2599, "pitch": 82, "duration": 4, "velocity": 90}, {"time": 2605, "pitch": 82, "duration": 5, "velocity": 99}, {"time": 2611, "pitch": 75, "duration": 3, "velocity": 93}, {"time": 2614, "pitch": 73, "duration": 3, "velocity": 91}, {"time": 2617, "pitch": 75, "duration": 6, "velocity": 95}, {"time": 2623, "pitch": 70, "duration": 23, "velocity": 100}, {"time": 2647, "pitch": 68, "duration": 9, "velocity": 104}, {"time": 2656, "pitch": 75, "duration": 15, "velocity": 101}, {"time": 2671, "pitch": 73, "duration": 6, "velocity": 90}, {"time": 2677, "pitch": 77, "duration": 10, "velocity": 105}, {"time": 2689, "pitch": 75, "duration": 2, "velocity": 94}, {"time": 2692, "pitch": 73, "duration": 3, "velocity": 90}, {"time": 2695, "pitch": 75, "duration": 45, "velocity": 95}, {"time": 2743, "pitch": 78, "duration": 17, "velocity": 93}, {"time": 2761, "pitch": 80, "duration": 5, "velocity": 98}, {"time": 2767, "pitch": 82, "duration": 22, "velocity": 98}, {"time": 2791, "pitch": 83, "duration": 6, "velocity": 98}, {"time": 2797, "pitch": 82, "duration": 5, "velocity": 93}, {"time": 2803, "pitch": 80, "duration": 6, "velocity": 95}, {"time": 2809, "pitch": 83, "duration": 6, "velocity": 94}, {"time": 2815, "pitch": 82, "duration": 22, "velocity": 98}, {"time": 2839, "pitch": 78, "duration": 6, "velocity": 84}, {"time": 2845, "pitch": 75, "duration": 2, "velocity": 84}, {"time": 2851, "pitch": 75, "duration": 10, "velocity": 91}, {"time": 2857, "pitch": 78, "duration": 4, "velocity": 83}, {"time": 2860, "pitch": 80, "duration": 7, "velocity": 83}, {"time": 2869, "pitch": 80, "duration": 5, "velocity": 90}, {"time": 2875, "pitch": 80, "duration": 5, "velocity": 93}, {"time": 2881, "pitch": 73, "duration": 6, "velocity": 90}, {"time": 2887, "pitch": 78, "duration": 19, "velocity": 83}, {"time": 2905, "pitch": 80, "duration": 6, "velocity": 91}, {"time": 2911, "pitch": 82, "duration": 22, "velocity": 91}, {"time": 2935, "pitch": 78, "duration": 16, "velocity": 86}, {"time": 2953, "pitch": 80, "duration": 5, "velocity": 93}, {"time": 2959, "pitch": 82, "duration": 22, "velocity": 90}, {"time": 2983, "pitch": 83, "duration": 5, "velocity": 86}, {"time": 2989, "pitch": 82, "duration": 6, "velocity": 93}, {"time": 2995, "pitch": 80, "duration": 6, "velocity": 90}, {"time": 3001, "pitch": 83, "duration": 5, "velocity": 93}, {"time": 3007, "pitch": 82, "duration": 21, "velocity": 91}, {"time": 3031, "pitch": 78, "duration": 6, "velocity": 84}, {"time": 3037, "pitch": 75, "duration": 4, "velocity": 93}, {"time": 3043, "pitch": 75, "duration": 7, "velocity": 84}, {"time": 3049, "pitch": 78, "duration": 5, "velocity": 81}, {"time": 3055, "pitch": 80, "duration": 5, "velocity": 80}, {"time": 3061, "pitch": 80, "duration": 4, "velocity": 84}, {"time": 3067, "pitch": 80, "duration": 5, "velocity": 84}, {"time": 3073, "pitch": 73, "duration": 6, "velocity": 90}, {"time": 3079, "pitch": 78, "duration": 15, "velocity": 84}, {"time": 3097, "pitch": 80, "duration": 10, "velocity": 91}, {"time": 3109, "pitch": 73, "duration": 6, "velocity": 90}, {"time": 3115, "pitch": 77, "duration": 4, "velocity": 84}, {"time": 3121, "pitch": 75, "duration": 3, "velocity": 76}, {"time": 3124, "pitch": 73, "duration": 4, "velocity": 76}, {"time": 3127, "pitch": 75, "duration": 18, "velocity": 80}, {"time": 3175, "pitch": 78, "duration": 17, "velocity": 93}, {"time": 3193, "pitch": 80, "duration": 5, "velocity": 98}, {"time": 3199, "pitch": 82, "duration": 22, "velocity": 98}, {"time": 3223, "pitch": 83, "duration": 6, "velocity": 98}, {"time": 3229, "pitch": 82, "duration": 5, "velocity": 93}, {"time": 3235, "pitch": 80, "duration": 6, "velocity": 95}, {"time": 3241, "pitch": 83, "duration": 6, "velocity": 94}, {"time": 3247, "pitch": 82, "duration": 22, "velocity": 98}, {"time": 3271, "pitch": 78, "duration": 6, "velocity": 84}, {"time": 3277, "pitch": 75, "duration": 2, "velocity": 84}, {"time": 3283, "pitch": 75, "duration": 10, "velocity": 91}, {"time": 3289, "pitch": 78, "duration": 4, "velocity": 83}, {"time": 3292, "pitch": 80, "duration": 7, "velocity": 83}, {"time": 3301, "pitch": 80, "duration": 5, "velocity": 90}, {"time": 3307, "pitch": 80, "duration": 5, "velocity": 93}, {"time": 3313, "pitch": 73, "duration": 6, "velocity": 90}, {"time": 3319, "pitch": 78, "duration": 19, "velocity": 83}, {"time": 3337, "pitch": 80, "duration": 6, "velocity": 91}, {"time": 3343, "pitch": 82, "duration": 22, "velocity": 91}, {"time": 3367, "pitch": 78, "duration": 16, "velocity": 86}, {"time": 3385, "pitch": 80, "duration": 5, "velocity": 93}, {"time": 3391, "pitch": 82, "duration": 22, "velocity": 90}, {"time": 3415, "pitch": 83, "duration": 5, "velocity": 86}, {"time": 3421, "pitch": 82, "duration": 6, "velocity": 93}, {"time": 3427, "pitch": 80, "duration": 6, "velocity": 90}, {"time": 3433, "pitch": 83, "duration": 5, "velocity": 93}, {"time": 3439, "pitch": 82, "duration": 21, "velocity": 91}, {"time": 3463, "pitch": 78, "duration": 6, "velocity": 84}, {"time": 3469, "pitch": 75, "duration": 4, "velocity": 93}, {"time": 3475, "pitch": 75, "duration": 7, "velocity": 84}, {"time": 3481, "pitch": 78, "duration": 5, "velocity": 81}, {"time": 3487, "pitch": 80, "duration": 5, "velocity": 80}, {"time": 3493, "pitch": 80, "duration": 4, "velocity": 84}, {"time": 3499, "pitch": 80, "duration": 5, "velocity": 84}, {"time": 3505, "pitch": 73, "duration": 6, "velocity": 90}, {"time": 3511, "pitch": 78, "duration": 15, "velocity": 84}, {"time": 3529, "pitch": 80, "duration": 10, "velocity": 91}, {"time": 3541, "pitch": 73, "duration": 6, "velocity": 90}, {"time": 3547, "pitch": 77, "duration": 4, "velocity": 84}, {"time": 3571, "pitch": 75, "duration": 3, "velocity": 76}, {"time": 3583, "pitch": 73, "duration": 4, "velocity": 76}, {"time": 3589, "pitch": 75, "duration": 18, "velocity": 80}]}, {"program": 0, "is_drum": false, "name": "BRIDGE", "notes": [{"time": 55, "pitch": 75, "duration": 18, "velocity": 95}, {"time": 73, "pitch": 73, "duration": 7, "velocity": 90}, {"time": 79, "pitch": 70, "duration": 12, "velocity": 98}, {"time": 91, "pitch": 68, "duration": 7, "velocity": 90}, {"time": 97, "pitch": 70, "duration": 6, "velocity": 95}, {"time": 103, "pitch": 73, "duration": 7, "velocity": 96}, {"time": 109, "pitch": 70, "duration": 5, "velocity": 98}, {"time": 115, "pitch": 68, "duration": 6, "velocity": 90}, {"time": 121, "pitch": 70, "duration": 6, "velocity": 95}, {"time": 127, "pitch": 65, "duration": 22, "velocity": 86}, {"time": 151, "pitch": 63, "duration": 19, "velocity": 104}, {"time": 169, "pitch": 70, "duration": 5, "velocity": 91}, {"time": 175, "pitch": 70, "duration": 11, "velocity": 104}, {"time": 187, "pitch": 68, "duration": 5, "velocity": 91}, {"time": 193, "pitch": 66, "duration": 6, "velocity": 91}, {"time": 199, "pitch": 73, "duration": 6, "velocity": 98}, {"time": 205, "pitch": 68, "duration": 6, "velocity": 91}, {"time": 211, "pitch": 70, "duration": 22, "velocity": 98}, {"time": 235, "pitch": 70, "duration": 3, "velocity": 101}, {"time": 238, "pitch": 68, "duration": 4, "velocity": 95}, {"time": 241, "pitch": 70, "duration": 3, "velocity": 98}, {"time": 244, "pitch": 73, "duration": 3, "velocity": 90}, {"time": 247, "pitch": 75, "duration": 6, "velocity": 90}, {"time": 253, "pitch": 78, "duration": 6, "velocity": 94}, {"time": 259, "pitch": 77, "duration": 5, "velocity": 98}, {"time": 265, "pitch": 73, "duration": 6, "velocity": 99}, {"time": 271, "pitch": 75, "duration": 11, "velocity": 98}, {"time": 283, "pitch": 73, "duration": 7, "velocity": 93}, {"time": 289, "pitch": 70, "duration": 6, "velocity": 99}, {"time": 295, "pitch": 68, "duration": 6, "velocity": 90}, {"time": 301, "pitch": 73, "duration": 6, "velocity": 94}, {"time": 307, "pitch": 70, "duration": 29, "velocity": 98}, {"time": 337, "pitch": 68, "duration": 3, "velocity": 95}, {"time": 340, "pitch": 70, "duration": 3, "velocity": 91}, {"time": 343, "pitch": 63, "duration": 18, "velocity": 100}, {"time": 361, "pitch": 66, "duration": 6, "velocity": 95}, {"time": 367, "pitch": 68, "duration": 13, "velocity": 95}, {"time": 379, "pitch": 65, "duration": 5, "velocity": 106}, {"time": 385, "pitch": 61, "duration": 7, "velocity": 93}, {"time": 391, "pitch": 63, "duration": 15, "velocity": 84}, {"time": 523, "pitch": 70, "duration": 6, "velocity": 83}, {"time": 529, "pitch": 68, "duration": 7, "velocity": 73}, {"time": 535, "pitch": 70, "duration": 25, "velocity": 84}, {"time": 571, "pitch": 68, "duration": 7, "velocity": 73}, {"time": 577, "pitch": 70, "duration": 6, "velocity": 77}, {"time": 583, "pitch": 63, "duration": 23, "velocity": 75}, {"time": 607, "pitch": 61, "duration": 20, "velocity": 71}, {"time": 619, "pitch": 75, "duration": 3, "velocity": 71}, {"time": 622, "pitch": 77, "duration": 3, "velocity": 84}, {"time": 625, "pitch": 73, "duration": 6, "velocity": 81}, {"time": 631, "pitch": 75, "duration": 23, "velocity": 82}, {"time": 667, "pitch": 75, "duration": 3, "velocity": 75}, {"time": 670, "pitch": 77, "duration": 2, "velocity": 68}, {"time": 673, "pitch": 73, "duration": 6, "velocity": 75}, {"time": 679, "pitch": 75, "duration": 20, "velocity": 83}, {"time": 703, "pitch": 70, "duration": 6, "velocity": 83}, {"time": 709, "pitch": 68, "duration": 8, "velocity": 73}, {"time": 715, "pitch": 70, "duration": 5, "velocity": 80}, {"time": 721, "pitch": 73, "duration": 6, "velocity": 80}, {"time": 727, "pitch": 75, "duration": 17, "velocity": 79}, {"time": 805, "pitch": 70, "duration": 7, "velocity": 84}, {"time": 811, "pitch": 65, "duration": 6, "velocity": 81}, {"time": 817, "pitch": 61, "duration": 7, "velocity": 72}, {"time": 823, "pitch": 63, "duration": 18, "velocity": 75}, {"time": 1591, "pitch": 75, "duration": 18, "velocity": 95}, {"time": 1609, "pitch": 73, "duration": 7, "velocity": 90}, {"time": 1615, "pitch": 70, "duration": 12, "velocity": 98}, {"time": 1627, "pitch": 68, "duration": 7, "velocity": 90}, {"time": 1633, "pitch": 70, "duration": 6, "velocity": 95}, {"time": 1639, "pitch": 73, "duration": 7, "velocity": 96}, {"time": 1645, "pitch": 70, "duration": 5, "velocity": 98}, {"time": 1651, "pitch": 68, "duration": 6, "velocity": 90}, {"time": 1657, "pitch": 70, "duration": 6, "velocity": 95}, {"time": 1663, "pitch": 65, "duration": 22, "velocity": 86}, {"time": 1687, "pitch": 63, "duration": 19, "velocity": 104}, {"time": 1705, "pitch": 70, "duration": 5, "velocity": 91}, {"time": 1711, "pitch": 70, "duration": 11, "velocity": 104}, {"time": 1723, "pitch": 68, "duration": 5, "velocity": 91}, {"time": 1729, "pitch": 66, "duration": 6, "velocity": 91}, {"time": 1735, "pitch": 73, "duration": 6, "velocity": 98}, {"time": 1741, "pitch": 68, "duration": 6, "velocity": 91}, {"time": 1747, "pitch": 70, "duration": 22, "velocity": 98}, {"time": 1771, "pitch": 70, "duration": 3, "velocity": 101}, {"time": 1774, "pitch": 68, "duration": 4, "velocity": 95}, {"time": 1777, "pitch": 70, "duration": 3, "velocity": 98}, {"time": 1780, "pitch": 73, "duration": 3, "velocity": 90}, {"time": 1783, "pitch": 75, "duration": 6, "velocity": 90}, {"time": 1789, "pitch": 78, "duration": 6, "velocity": 94}, {"time": 1795, "pitch": 77, "duration": 5, "velocity": 98}, {"time": 1801, "pitch": 73, "duration": 6, "velocity": 99}, {"time": 1807, "pitch": 75, "duration": 11, "velocity": 98}, {"time": 1819, "pitch": 73, "duration": 7, "velocity": 93}, {"time": 1825, "pitch": 70, "duration": 6, "velocity": 99}, {"time": 1831, "pitch": 68, "duration": 6, "velocity": 90}, {"time": 1837, "pitch": 73, "duration": 6, "velocity": 94}, {"time": 1843, "pitch": 70, "duration": 29, "velocity": 98}, {"time": 1873, "pitch": 68, "duration": 3, "velocity": 95}, {"time": 1876, "pitch": 70, "duration": 3, "velocity": 91}, {"time": 1879, "pitch": 63, "duration": 18, "velocity": 100}, {"time": 1897, "pitch": 66, "duration": 6, "velocity": 95}, {"time": 1903, "pitch": 68, "duration": 13, "velocity": 95}, {"time": 1915, "pitch": 65, "duration": 5, "velocity": 106}, {"time": 1921, "pitch": 61, "duration": 7, "velocity": 93}, {"time": 1927, "pitch": 63, "duration": 15, "velocity": 84}, {"time": 2059, "pitch": 70, "duration": 6, "velocity": 83}, {"time": 2065, "pitch": 68, "duration": 7, "velocity": 73}, {"time": 2071, "pitch": 70, "duration": 25, "velocity": 84}, {"time": 2107, "pitch": 68, "duration": 7, "velocity": 73}, {"time": 2113, "pitch": 70, "duration": 6, "velocity": 77}, {"time": 2119, "pitch": 63, "duration": 23, "velocity": 75}, {"time": 2143, "pitch": 61, "duration": 20, "velocity": 71}, {"time": 2155, "pitch": 75, "duration": 3, "velocity": 71}, {"time": 2158, "pitch": 77, "duration": 3, "velocity": 84}, {"time": 2161, "pitch": 73, "duration": 6, "velocity": 81}, {"time": 2167, "pitch": 75, "duration": 23, "velocity": 82}, {"time": 2203, "pitch": 75, "duration": 3, "velocity": 75}, {"time": 2206, "pitch": 77, "duration": 2, "velocity": 68}, {"time": 2209, "pitch": 73, "duration": 6, "velocity": 75}, {"time": 2215, "pitch": 75, "duration": 20, "velocity": 83}, {"time": 2239, "pitch": 70, "duration": 6, "velocity": 83}, {"time": 2245, "pitch": 68, "duration": 8, "velocity": 73}, {"time": 2251, "pitch": 70, "duration": 5, "velocity": 80}, {"time": 2257, "pitch": 73, "duration": 6, "velocity": 80}, {"time": 2263, "pitch": 75, "duration": 17, "velocity": 79}, {"time": 2341, "pitch": 70, "duration": 7, "velocity": 84}, {"time": 2347, "pitch": 65, "duration": 6, "velocity": 81}, {"time": 2353, "pitch": 61, "duration": 7, "velocity": 72}, {"time": 2359, "pitch": 63, "duration": 18, "velocity": 75}, {"time": 3158, "pitch": 82, "duration": 5, "velocity": 81}, {"time": 3164, "pitch": 80, "duration": 3, "velocity": 81}, {"time": 3166, "pitch": 78, "duration": 3, "velocity": 81}, {"time": 3169, "pitch": 77, "duration": 3, "velocity": 81}, {"time": 3172, "pitch": 73, "duration": 4, "velocity": 81}, {"time": 3175, "pitch": 75, "duration": 22, "velocity": 81}, {"time": 3218, "pitch": 75, "duration": 3, "velocity": 81}, {"time": 3224, "pitch": 75, "duration": 15, "velocity": 81}, {"time": 3325, "pitch": 73, "duration": 6, "velocity": 81}, {"time": 3331, "pitch": 78, "duration": 6, "velocity": 81}, {"time": 3337, "pitch": 80, "duration": 5, "velocity": 81}, {"time": 3343, "pitch": 82, "duration": 19, "velocity": 81}, {"time": 3358, "pitch": 85, "duration": 3, "velocity": 81}, {"time": 3361, "pitch": 82, "duration": 1, "velocity": 81}, {"time": 3367, "pitch": 87, "duration": 19, "velocity": 81}, {"time": 3397, "pitch": 75, "duration": 4, "velocity": 81}, {"time": 3403, "pitch": 75, "duration": 6, "velocity": 81}, {"time": 3409, "pitch": 73, "duration": 3, "velocity": 81}, {"time": 3412, "pitch": 71, "duration": 3, "velocity": 81}, {"time": 3415, "pitch": 70, "duration": 18, "velocity": 81}, {"time": 3427, "pitch": 68, "duration": 5, "velocity": 81}, {"time": 3433, "pitch": 75, "duration": 4, "velocity": 81}, {"time": 3436, "pitch": 77, "duration": 4, "velocity": 81}, {"time": 3439, "pitch": 78, "duration": 17, "velocity": 81}, {"time": 3454, "pitch": 77, "duration": 4, "velocity": 81}, {"time": 3457, "pitch": 75, "duration": 3, "velocity": 81}, {"time": 3460, "pitch": 70, "duration": 2, "velocity": 81}, {"time": 3463, "pitch": 68, "duration": 15, "velocity": 81}, {"time": 3487, "pitch": 73, "duration": 21, "velocity": 81}, {"time": 3505, "pitch": 80, "duration": 3, "velocity": 81}, {"time": 3508, "pitch": 78, "duration": 4, "velocity": 81}, {"time": 3511, "pitch": 75, "duration": 17, "velocity": 81}, {"time": 3529, "pitch": 77, "duration": 10, "velocity": 82}, {"time": 3593, "pitch": 75, "duration": 17, "velocity": 84}, {"time": 3611, "pitch": 73, "duration": 6, "velocity": 84}, {"time": 3618, "pitch": 70, "duration": 12, "velocity": 83}, {"time": 3630, "pitch": 68, "duration": 6, "velocity": 76}, {"time": 3636, "pitch": 70, "duration": 5, "velocity": 83}, {"time": 3641, "pitch": 73, "duration": 9, "velocity": 84}, {"time": 3649, "pitch": 75, "duration": 6, "velocity": 80}, {"time": 3653, "pitch": 70, "duration": 12, "velocity": 79}, {"time": 3668, "pitch": 68, "duration": 12, "velocity": 84}, {"time": 3678, "pitch": 61, "duration": 12, "velocity": 82}, {"time": 3691, "pitch": 63, "duration": 60, "velocity": 78}]}, {"program": 0, "is_drum": false, "name": "PIANO", "notes": [{"time": 55, "pitch": 51, "duration": 46, "velocity": 80}, {"time": 55, "pitch": 63, "duration": 6, "velocity": 68}, {"time": 55, "pitch": 66, "duration": 6, "velocity": 68}, {"time": 55, "pitch": 70, "duration": 7, "velocity": 77}, {"time": 61, "pitch": 58, "duration": 8, "velocity": 69}, {"time": 67, "pitch": 63, "duration": 5, "velocity": 59}, {"time": 67, "pitch": 68, "duration": 6, "velocity": 73}, {"time": 73, "pitch": 58, "duration": 19, "velocity": 71}, {"time": 73, "pitch": 70, "duration": 4, "velocity": 78}, {"time": 79, "pitch": 63, "duration": 6, "velocity": 31}, {"time": 79, "pitch": 66, "duration": 8, "velocity": 49}, {"time": 79, "pitch": 75, "duration": 6, "velocity": 68}, {"time": 91, "pitch": 63, "duration": 6, "velocity": 75}, {"time": 91, "pitch": 66, "duration": 6, "velocity": 71}, {"time": 91, "pitch": 73, "duration": 5, "velocity": 83}, {"time": 97, "pitch": 58, "duration": 4, "velocity": 76}, {"time": 103, "pitch": 46, "duration": 43, "velocity": 81}, {"time": 103, "pitch": 61, "duration": 6, "velocity": 70}, {"time": 103, "pitch": 65, "duration": 6, "velocity": 79}, {"time": 103, "pitch": 68, "duration": 6, "velocity": 72}, {"time": 109, "pitch": 58, "duration": 8, "velocity": 59}, {"time": 115, "pitch": 61, "duration": 6, "velocity": 53}, {"time": 115, "pitch": 65, "duration": 5, "velocity": 76}, {"time": 115, "pitch": 73, "duration": 6, "velocity": 75}, {"time": 121, "pitch": 58, "duration": 13, "velocity": 36}, {"time": 133, "pitch": 77, "duration": 1, "velocity": 80}, {"time": 133, "pitch": 89, "duration": 2, "velocity": 82}, {"time": 139, "pitch": 58, "duration": 6, "velocity": 45}, {"time": 139, "pitch": 75, "duration": 1, "velocity": 69}, {"time": 139, "pitch": 87, "duration": 1, "velocity": 74}, {"time": 145, "pitch": 70, "duration": 1, "velocity": 79}, {"time": 145, "pitch": 82, "duration": 2, "velocity": 73}, {"time": 151, "pitch": 47, "duration": 43, "velocity": 72}, {"time": 151, "pitch": 71, "duration": 5, "velocity": 76}, {"time": 151, "pitch": 83, "duration": 4, "velocity": 73}, {"time": 157, "pitch": 54, "duration": 7, "velocity": 58}, {"time": 163, "pitch": 59, "duration": 6, "velocity": 54}, {"time": 163, "pitch": 63, "duration": 6, "velocity": 74}, {"time": 163, "pitch": 66, "duration": 7, "velocity": 81}, {"time": 169, "pitch": 54, "duration": 17, "velocity": 62}, {"time": 175, "pitch": 59, "duration": 8, "velocity": 55}, {"time": 175, "pitch": 63, "duration": 10, "velocity": 59}, {"time": 175, "pitch": 66, "duration": 5, "velocity": 70}, {"time": 175, "pitch": 71, "duration": 13, "velocity": 53}, {"time": 187, "pitch": 59, "duration": 3, "velocity": 78}, {"time": 187, "pitch": 66, "duration": 4, "velocity": 79}, {"time": 190, "pitch": 54, "duration": 7, "velocity": 77}, {"time": 193, "pitch": 59, "duration": 3, "velocity": 82}, {"time": 196, "pitch": 66, "duration": 3, "velocity": 80}, {"time": 199, "pitch": 46, "duration": 42, "velocity": 79}, {"time": 199, "pitch": 61, "duration": 7, "velocity": 61}, {"time": 199, "pitch": 65, "duration": 7, "velocity": 74}, {"time": 205, "pitch": 58, "duration": 20, "velocity": 59}, {"time": 211, "pitch": 61, "duration": 8, "velocity": 63}, {"time": 211, "pitch": 73, "duration": 7, "velocity": 73}, {"time": 217, "pitch": 68, "duration": 7, "velocity": 71}, {"time": 223, "pitch": 61, "duration": 10, "velocity": 43}, {"time": 223, "pitch": 65, "duration": 8, "velocity": 56}, {"time": 232, "pitch": 58, "duration": 7, "velocity": 60}, {"time": 235, "pitch": 61, "duration": 2, "velocity": 68}, {"time": 235, "pitch": 66, "duration": 3, "velocity": 75}, {"time": 238, "pitch": 65, "duration": 3, "velocity": 71}, {"time": 241, "pitch": 63, "duration": 3, "velocity": 79}, {"time": 244, "pitch": 61, "duration": 4, "velocity": 75}, {"time": 247, "pitch": 39, "duration": 3, "velocity": 76}, {"time": 247, "pitch": 63, "duration": 12, "velocity": 83}, {"time": 250, "pitch": 51, "duration": 3, "velocity": 72}, {"time": 253, "pitch": 53, "duration": 12, "velocity": 63}, {"time": 256, "pitch": 54, "duration": 10, "velocity": 63}, {"time": 259, "pitch": 58, "duration": 11, "velocity": 71}, {"time": 262, "pitch": 63, "duration": 4, "velocity": 58}, {"time": 265, "pitch": 66, "duration": 3, "velocity": 79}, {"time": 268, "pitch": 68, "duration": 3, "velocity": 68}, {"time": 271, "pitch": 51, "duration": 20, "velocity": 77}, {"time": 271, "pitch": 63, "duration": 4, "velocity": 68}, {"time": 271, "pitch": 70, "duration": 5, "velocity": 82}, {"time": 274, "pitch": 58, "duration": 7, "velocity": 68}, {"time": 277, "pitch": 63, "duration": 7, "velocity": 60}, {"time": 280, "pitch": 66, "duration": 2, "velocity": 67}, {"time": 280, "pitch": 75, "duration": 2, "velocity": 78}, {"time": 283, "pitch": 66, "duration": 2, "velocity": 75}, {"time": 283, "pitch": 75, "duration": 2, "velocity": 82}, {"time": 286, "pitch": 58, "duration": 5, "velocity": 69}, {"time": 289, "pitch": 63, "duration": 1, "velocity": 79}, {"time": 289, "pitch": 73, "duration": 1, "velocity": 84}, {"time": 295, "pitch": 46, "duration": 21, "velocity": 83}, {"time": 295, "pitch": 61, "duration": 4, "velocity": 75}, {"time": 295, "pitch": 65, "duration": 3, "velocity": 82}, {"time": 295, "pitch": 68, "duration": 4, "velocity": 78}, {"time": 298, "pitch": 58, "duration": 12, "velocity": 57}, {"time": 301, "pitch": 61, "duration": 4, "velocity": 54}, {"time": 304, "pitch": 65, "duration": 5, "velocity": 79}, {"time": 307, "pitch": 61, "duration": 2, "velocity": 5}, {"time": 307, "pitch": 73, "duration": 2, "velocity": 55}, {"time": 310, "pitch": 61, "duration": 5, "velocity": 59}, {"time": 310, "pitch": 65, "duration": 4, "velocity": 74}, {"time": 310, "pitch": 73, "duration": 5, "velocity": 81}, {"time": 313, "pitch": 58, "duration": 5, "velocity": 30}, {"time": 316, "pitch": 61, "duration": 6, "velocity": 52}, {"time": 316, "pitch": 70, "duration": 6, "velocity": 83}, {"time": 319, "pitch": 46, "duration": 19, "velocity": 80}, {"time": 322, "pitch": 58, "duration": 7, "velocity": 52}, {"time": 325, "pitch": 61, "duration": 5, "velocity": 63}, {"time": 328, "pitch": 65, "duration": 3, "velocity": 68}, {"time": 331, "pitch": 61, "duration": 4, "velocity": 40}, {"time": 331, "pitch": 66, "duration": 8, "velocity": 83}, {"time": 337, "pitch": 58, "duration": 6, "velocity": 59}, {"time": 340, "pitch": 68, "duration": 2, "velocity": 63}, {"time": 343, "pitch": 47, "duration": 18, "velocity": 83}, {"time": 343, "pitch": 63, "duration": 6, "velocity": 84}, {"time": 343, "pitch": 68, "duration": 1, "velocity": 33}, {"time": 346, "pitch": 54, "duration": 16, "velocity": 69}, {"time": 349, "pitch": 59, "duration": 11, "velocity": 69}, {"time": 352, "pitch": 61, "duration": 7, "velocity": 69}, {"time": 355, "pitch": 63, "duration": 6, "velocity": 84}, {"time": 361, "pitch": 66, "duration": 5, "velocity": 78}, {"time": 367, "pitch": 49, "duration": 18, "velocity": 78}, {"time": 367, "pitch": 61, "duration": 5, "velocity": 80}, {"time": 367, "pitch": 68, "duration": 5, "velocity": 80}, {"time": 373, "pitch": 56, "duration": 12, "velocity": 61}, {"time": 379, "pitch": 61, "duration": 5, "velocity": 60}, {"time": 379, "pitch": 65, "duration": 5, "velocity": 80}, {"time": 379, "pitch": 68, "duration": 4, "velocity": 72}, {"time": 379, "pitch": 73, "duration": 4, "velocity": 82}, {"time": 391, "pitch": 39, "duration": 5, "velocity": 80}, {"time": 391, "pitch": 63, "duration": 31, "velocity": 77}, {"time": 391, "pitch": 66, "duration": 32, "velocity": 79}, {"time": 397, "pitch": 51, "duration": 7, "velocity": 61}, {"time": 403, "pitch": 53, "duration": 8, "velocity": 79}, {"time": 409, "pitch": 56, "duration": 7, "velocity": 58}, {"time": 415, "pitch": 51, "duration": 14, "velocity": 84}, {"time": 427, "pitch": 63, "duration": 3, "velocity": 56}, {"time": 427, "pitch": 70, "duration": 3, "velocity": 80}, {"time": 439, "pitch": 51, "duration": 19, "velocity": 80}, {"time": 439, "pitch": 61, "duration": 6, "velocity": 68}, {"time": 439, "pitch": 66, "duration": 12, "velocity": 70}, {"time": 439, "pitch": 70, "duration": 11, "velocity": 78}, {"time": 445, "pitch": 58, "duration": 16, "velocity": 68}, {"time": 451, "pitch": 63, "duration": 7, "velocity": 61}, {"time": 457, "pitch": 66, "duration": 5, "velocity": 72}, {"time": 463, "pitch": 49, "duration": 18, "velocity": 68}, {"time": 463, "pitch": 61, "duration": 6, "velocity": 59}, {"time": 463, "pitch": 65, "duration": 6, "velocity": 79}, {"time": 463, "pitch": 68, "duration": 7, "velocity": 69}, {"time": 469, "pitch": 58, "duration": 12, "velocity": 55}, {"time": 475, "pitch": 61, "duration": 5, "velocity": 59}, {"time": 478, "pitch": 65, "duration": 3, "velocity": 72}, {"time": 481, "pitch": 66, "duration": 3, "velocity": 68}, {"time": 484, "pitch": 68, "duration": 3, "velocity": 76}, {"time": 487, "pitch": 47, "duration": 18, "velocity": 73}, {"time": 487, "pitch": 61, "duration": 7, "velocity": 60}, {"time": 487, "pitch": 63, "duration": 7, "velocity": 69}, {"time": 487, "pitch": 66, "duration": 7, "velocity": 76}, {"time": 493, "pitch": 54, "duration": 14, "velocity": 51}, {"time": 499, "pitch": 61, "duration": 7, "velocity": 59}, {"time": 499, "pitch": 63, "duration": 7, "velocity": 60}, {"time": 499, "pitch": 66, "duration": 7, "velocity": 70}, {"time": 511, "pitch": 46, "duration": 17, "velocity": 73}, {"time": 511, "pitch": 61, "duration": 9, "velocity": 69}, {"time": 511, "pitch": 65, "duration": 8, "velocity": 74}, {"time": 511, "pitch": 68, "duration": 6, "velocity": 68}, {"time": 523, "pitch": 61, "duration": 7, "velocity": 58}, {"time": 523, "pitch": 73, "duration": 6, "velocity": 72}, {"time": 529, "pitch": 70, "duration": 12, "velocity": 71}, {"time": 535, "pitch": 51, "duration": 22, "velocity": 74}, {"time": 535, "pitch": 61, "duration": 6, "velocity": 63}, {"time": 535, "pitch": 66, "duration": 6, "velocity": 71}, {"time": 541, "pitch": 58, "duration": 12, "velocity": 57}, {"time": 547, "pitch": 61, "duration": 7, "velocity": 56}, {"time": 547, "pitch": 66, "duration": 7, "velocity": 62}, {"time": 547, "pitch": 70, "duration": 6, "velocity": 62}, {"time": 556, "pitch": 58, "duration": 3, "velocity": 59}, {"time": 559, "pitch": 49, "duration": 19, "velocity": 69}, {"time": 559, "pitch": 61, "duration": 6, "velocity": 60}, {"time": 559, "pitch": 65, "duration": 6, "velocity": 63}, {"time": 559, "pitch": 68, "duration": 6, "velocity": 72}, {"time": 565, "pitch": 58, "duration": 8, "velocity": 42}, {"time": 571, "pitch": 61, "duration": 7, "velocity": 62}, {"time": 571, "pitch": 65, "duration": 6, "velocity": 79}, {"time": 571, "pitch": 68, "duration": 6, "velocity": 50}, {"time": 577, "pitch": 58, "duration": 6, "velocity": 68}, {"time": 583, "pitch": 47, "duration": 18, "velocity": 63}, {"time": 583, "pitch": 61, "duration": 7, "velocity": 62}, {"time": 583, "pitch": 63, "duration": 8, "velocity": 71}, {"time": 583, "pitch": 66, "duration": 6, "velocity": 74}, {"time": 589, "pitch": 54, "duration": 10, "velocity": 52}, {"time": 595, "pitch": 59, "duration": 8, "velocity": 43}, {"time": 595, "pitch": 61, "duration": 7, "velocity": 57}, {"time": 595, "pitch": 63, "duration": 6, "velocity": 60}, {"time": 595, "pitch": 66, "duration": 8, "velocity": 73}, {"time": 604, "pitch": 61, "duration": 4, "velocity": 57}, {"time": 604, "pitch": 65, "duration": 8, "velocity": 69}, {"time": 607, "pitch": 49, "duration": 20, "velocity": 53}, {"time": 607, "pitch": 68, "duration": 10, "velocity": 71}, {"time": 613, "pitch": 56, "duration": 14, "velocity": 56}, {"time": 619, "pitch": 61, "duration": 5, "velocity": 60}, {"time": 625, "pitch": 66, "duration": 5, "velocity": 76}, {"time": 631, "pitch": 44, "duration": 16, "velocity": 75}, {"time": 631, "pitch": 59, "duration": 9, "velocity": 73}, {"time": 631, "pitch": 63, "duration": 9, "velocity": 69}, {"time": 631, "pitch": 68, "duration": 8, "velocity": 70}, {"time": 637, "pitch": 51, "duration": 10, "velocity": 58}, {"time": 640, "pitch": 56, "duration": 13, "velocity": 52}, {"time": 643, "pitch": 59, "duration": 4, "velocity": 69}, {"time": 646, "pitch": 63, "duration": 2, "velocity": 75}, {"time": 649, "pitch": 65, "duration": 3, "velocity": 55}, {"time": 652, "pitch": 68, "duration": 3, "velocity": 75}, {"time": 655, "pitch": 51, "duration": 20, "velocity": 71}, {"time": 655, "pitch": 66, "duration": 6, "velocity": 75}, {"time": 658, "pitch": 58, "duration": 16, "velocity": 58}, {"time": 661, "pitch": 63, "duration": 9, "velocity": 51}, {"time": 664, "pitch": 65, "duration": 1, "velocity": 5}, {"time": 667, "pitch": 66, "duration": 8, "velocity": 32}, {"time": 676, "pitch": 61, "duration": 6, "velocity": 57}, {"time": 679, "pitch": 51, "duration": 16, "velocity": 73}, {"time": 679, "pitch": 66, "duration": 7, "velocity": 72}, {"time": 679, "pitch": 70, "duration": 6, "velocity": 80}, {"time": 685, "pitch": 58, "duration": 12, "velocity": 59}, {"time": 688, "pitch": 63, "duration": 5, "velocity": 60}, {"time": 691, "pitch": 65, "duration": 3, "velocity": 70}, {"time": 694, "pitch": 66, "duration": 3, "velocity": 75}, {"time": 697, "pitch": 68, "duration": 4, "velocity": 69}, {"time": 700, "pitch": 70, "duration": 1, "velocity": 78}, {"time": 703, "pitch": 46, "duration": 18, "velocity": 73}, {"time": 703, "pitch": 61, "duration": 7, "velocity": 13}, {"time": 703, "pitch": 73, "duration": 5, "velocity": 79}, {"time": 709, "pitch": 58, "duration": 15, "velocity": 50}, {"time": 715, "pitch": 61, "duration": 7, "velocity": 69}, {"time": 715, "pitch": 70, "duration": 6, "velocity": 83}, {"time": 721, "pitch": 65, "duration": 3, "velocity": 81}, {"time": 727, "pitch": 44, "duration": 19, "velocity": 74}, {"time": 727, "pitch": 59, "duration": 6, "velocity": 59}, {"time": 727, "pitch": 63, "duration": 7, "velocity": 72}, {"time": 727, "pitch": 66, "duration": 5, "velocity": 62}, {"time": 733, "pitch": 56, "duration": 10, "velocity": 23}, {"time": 739, "pitch": 59, "duration": 6, "velocity": 72}, {"time": 739, "pitch": 63, "duration": 6, "velocity": 76}, {"time": 739, "pitch": 66, "duration": 6, "velocity": 73}, {"time": 745, "pitch": 56, "duration": 4, "velocity": 58}, {"time": 751, "pitch": 46, "duration": 17, "velocity": 79}, {"time": 751, "pitch": 61, "duration": 6, "velocity": 75}, {"time": 751, "pitch": 65, "duration": 5, "velocity": 78}, {"time": 751, "pitch": 68, "duration": 5, "velocity": 72}, {"time": 757, "pitch": 58, "duration": 9, "velocity": 49}, {"time": 763, "pitch": 61, "duration": 6, "velocity": 75}, {"time": 763, "pitch": 65, "duration": 5, "velocity": 59}, {"time": 763, "pitch": 73, "duration": 6, "velocity": 84}, {"time": 769, "pitch": 68, "duration": 4, "velocity": 76}, {"time": 772, "pitch": 70, "duration": 22, "velocity": 78}, {"time": 775, "pitch": 39, "duration": 5, "velocity": 79}, {"time": 775, "pitch": 63, "duration": 20, "velocity": 72}, {"time": 775, "pitch": 66, "duration": 19, "velocity": 77}, {"time": 781, "pitch": 51, "duration": 1, "velocity": 72}, {"time": 787, "pitch": 53, "duration": 29, "velocity": 77}, {"time": 793, "pitch": 54, "duration": 23, "velocity": 61}, {"time": 799, "pitch": 58, "duration": 6, "velocity": 26}, {"time": 802, "pitch": 63, "duration": 3, "velocity": 52}, {"time": 805, "pitch": 65, "duration": 2, "velocity": 72}, {"time": 808, "pitch": 66, "duration": 3, "velocity": 72}, {"time": 811, "pitch": 58, "duration": 4, "velocity": 57}, {"time": 811, "pitch": 68, "duration": 4, "velocity": 59}, {"time": 814, "pitch": 70, "duration": 1, "velocity": 71}, {"time": 817, "pitch": 73, "duration": 1, "velocity": 78}, {"time": 820, "pitch": 77, "duration": 3, "velocity": 70}, {"time": 823, "pitch": 51, "duration": 19, "velocity": 71}, {"time": 823, "pitch": 78, "duration": 3, "velocity": 76}, {"time": 829, "pitch": 58, "duration": 7, "velocity": 57}, {"time": 835, "pitch": 63, "duration": 6, "velocity": 56}, {"time": 835, "pitch": 66, "duration": 6, "velocity": 63}, {"time": 835, "pitch": 70, "duration": 6, "velocity": 80}, {"time": 835, "pitch": 73, "duration": 6, "velocity": 79}, {"time": 841, "pitch": 58, "duration": 7, "velocity": 71}, {"time": 847, "pitch": 49, "duration": 18, "velocity": 76}, {"time": 847, "pitch": 61, "duration": 7, "velocity": 57}, {"time": 847, "pitch": 65, "duration": 7, "velocity": 72}, {"time": 847, "pitch": 68, "duration": 7, "velocity": 77}, {"time": 853, "pitch": 56, "duration": 9, "velocity": 44}, {"time": 859, "pitch": 61, "duration": 7, "velocity": 69}, {"time": 859, "pitch": 65, "duration": 6, "velocity": 79}, {"time": 859, "pitch": 68, "duration": 7, "velocity": 72}, {"time": 865, "pitch": 56, "duration": 6, "velocity": 75}, {"time": 868, "pitch": 65, "duration": 3, "velocity": 82}, {"time": 871, "pitch": 47, "duration": 18, "velocity": 79}, {"time": 871, "pitch": 63, "duration": 6, "velocity": 78}, {"time": 871, "pitch": 66, "duration": 7, "velocity": 79}, {"time": 877, "pitch": 54, "duration": 7, "velocity": 69}, {"time": 883, "pitch": 59, "duration": 6, "velocity": 58}, {"time": 883, "pitch": 63, "duration": 11, "velocity": 82}, {"time": 883, "pitch": 66, "duration": 7, "velocity": 78}, {"time": 889, "pitch": 54, "duration": 6, "velocity": 76}, {"time": 895, "pitch": 46, "duration": 18, "velocity": 82}, {"time": 895, "pitch": 61, "duration": 7, "velocity": 75}, {"time": 895, "pitch": 65, "duration": 7, "velocity": 77}, {"time": 895, "pitch": 68, "duration": 6, "velocity": 80}, {"time": 901, "pitch": 58, "duration": 8, "velocity": 58}, {"time": 904, "pitch": 61, "duration": 1, "velocity": 39}, {"time": 907, "pitch": 61, "duration": 7, "velocity": 78}, {"time": 907, "pitch": 65, "duration": 7, "velocity": 78}, {"time": 907, "pitch": 68, "duration": 7, "velocity": 76}, {"time": 913, "pitch": 58, "duration": 6, "velocity": 58}, {"time": 919, "pitch": 51, "duration": 19, "velocity": 76}, {"time": 919, "pitch": 63, "duration": 6, "velocity": 79}, {"time": 919, "pitch": 66, "duration": 7, "velocity": 78}, {"time": 919, "pitch": 70, "duration": 5, "velocity": 80}, {"time": 925, "pitch": 58, "duration": 8, "velocity": 60}, {"time": 931, "pitch": 63, "duration": 7, "velocity": 79}, {"time": 931, "pitch": 66, "duration": 7, "velocity": 76}, {"time": 931, "pitch": 70, "duration": 6, "velocity": 81}, {"time": 937, "pitch": 58, "duration": 7, "velocity": 78}, {"time": 943, "pitch": 49, "duration": 21, "velocity": 78}, {"time": 943, "pitch": 61, "duration": 7, "velocity": 72}, {"time": 943, "pitch": 65, "duration": 6, "velocity": 78}, {"time": 943, "pitch": 68, "duration": 6, "velocity": 76}, {"time": 949, "pitch": 58, "duration": 7, "velocity": 71}, {"time": 955, "pitch": 61, "duration": 7, "velocity": 77}, {"time": 955, "pitch": 65, "duration": 7, "velocity": 83}, {"time": 955, "pitch": 68, "duration": 7, "velocity": 75}, {"time": 961, "pitch": 58, "duration": 3, "velocity": 77}, {"time": 967, "pitch": 47, "duration": 18, "velocity": 79}, {"time": 967, "pitch": 59, "duration": 6, "velocity": 79}, {"time": 967, "pitch": 63, "duration": 6, "velocity": 73}, {"time": 967, "pitch": 66, "duration": 6, "velocity": 73}, {"time": 973, "pitch": 54, "duration": 8, "velocity": 60}, {"time": 979, "pitch": 59, "duration": 7, "velocity": 75}, {"time": 979, "pitch": 63, "duration": 7, "velocity": 76}, {"time": 979, "pitch": 66, "duration": 8, "velocity": 79}, {"time": 985, "pitch": 54, "duration": 6, "velocity": 76}, {"time": 991, "pitch": 49, "duration": 19, "velocity": 75}, {"time": 991, "pitch": 61, "duration": 5, "velocity": 79}, {"time": 991, "pitch": 65, "duration": 5, "velocity": 83}, {"time": 991, "pitch": 68, "duration": 7, "velocity": 79}, {"time": 997, "pitch": 56, "duration": 7, "velocity": 62}, {"time": 1000, "pitch": 61, "duration": 5, "velocity": 32}, {"time": 1003, "pitch": 65, "duration": 5, "velocity": 84}, {"time": 1006, "pitch": 66, "duration": 2, "velocity": 79}, {"time": 1009, "pitch": 63, "duration": 3, "velocity": 76}, {"time": 1009, "pitch": 66, "duration": 1, "velocity": 52}, {"time": 1012, "pitch": 59, "duration": 9, "velocity": 76}, {"time": 1015, "pitch": 44, "duration": 17, "velocity": 78}, {"time": 1015, "pitch": 63, "duration": 7, "velocity": 79}, {"time": 1015, "pitch": 68, "duration": 6, "velocity": 79}, {"time": 1021, "pitch": 51, "duration": 7, "velocity": 71}, {"time": 1027, "pitch": 56, "duration": 5, "velocity": 53}, {"time": 1027, "pitch": 59, "duration": 6, "velocity": 80}, {"time": 1027, "pitch": 63, "duration": 6, "velocity": 81}, {"time": 1027, "pitch": 68, "duration": 6, "velocity": 80}, {"time": 1033, "pitch": 51, "duration": 1, "velocity": 83}, {"time": 1039, "pitch": 35, "duration": 18, "velocity": 81}, {"time": 1039, "pitch": 47, "duration": 15, "velocity": 76}, {"time": 1039, "pitch": 59, "duration": 8, "velocity": 77}, {"time": 1039, "pitch": 63, "duration": 9, "velocity": 76}, {"time": 1039, "pitch": 66, "duration": 8, "velocity": 80}, {"time": 1051, "pitch": 59, "duration": 6, "velocity": 79}, {"time": 1051, "pitch": 63, "duration": 6, "velocity": 78}, {"time": 1051, "pitch": 66, "duration": 6, "velocity": 78}, {"time": 1057, "pitch": 47, "duration": 1, "velocity": 73}, {"time": 1063, "pitch": 39, "duration": 19, "velocity": 56}, {"time": 1063, "pitch": 51, "duration": 14, "velocity": 72}, {"time": 1063, "pitch": 63, "duration": 9, "velocity": 79}, {"time": 1063, "pitch": 66, "duration": 9, "velocity": 81}, {"time": 1063, "pitch": 70, "duration": 6, "velocity": 86}, {"time": 1075, "pitch": 63, "duration": 7, "velocity": 80}, {"time": 1075, "pitch": 66, "duration": 7, "velocity": 83}, {"time": 1075, "pitch": 70, "duration": 6, "velocity": 84}, {"time": 1081, "pitch": 51, "duration": 2, "velocity": 71}, {"time": 1087, "pitch": 46, "duration": 17, "velocity": 80}, {"time": 1087, "pitch": 61, "duration": 9, "velocity": 77}, {"time": 1087, "pitch": 65, "duration": 9, "velocity": 83}, {"time": 1087, "pitch": 68, "duration": 9, "velocity": 79}, {"time": 1096, "pitch": 58, "duration": 3, "velocity": 49}, {"time": 1099, "pitch": 61, "duration": 4, "velocity": 74}, {"time": 1099, "pitch": 65, "duration": 4, "velocity": 74}, {"time": 1099, "pitch": 68, "duration": 5, "velocity": 79}, {"time": 1102, "pitch": 58, "duration": 3, "velocity": 58}, {"time": 1105, "pitch": 65, "duration": 3, "velocity": 71}, {"time": 1108, "pitch": 68, "duration": 4, "velocity": 73}, {"time": 1111, "pitch": 44, "duration": 19, "velocity": 78}, {"time": 1111, "pitch": 56, "duration": 15, "velocity": 62}, {"time": 1111, "pitch": 59, "duration": 7, "velocity": 75}, {"time": 1111, "pitch": 63, "duration": 7, "velocity": 82}, {"time": 1111, "pitch": 66, "duration": 7, "velocity": 79}, {"time": 1123, "pitch": 59, "duration": 7, "velocity": 80}, {"time": 1123, "pitch": 63, "duration": 7, "velocity": 82}, {"time": 1123, "pitch": 66, "duration": 7, "velocity": 82}, {"time": 1129, "pitch": 56, "duration": 2, "velocity": 71}, {"time": 1135, "pitch": 46, "duration": 19, "velocity": 86}, {"time": 1135, "pitch": 58, "duration": 13, "velocity": 79}, {"time": 1135, "pitch": 61, "duration": 8, "velocity": 79}, {"time": 1135, "pitch": 65, "duration": 8, "velocity": 83}, {"time": 1135, "pitch": 68, "duration": 7, "velocity": 80}, {"time": 1147, "pitch": 61, "duration": 7, "velocity": 74}, {"time": 1147, "pitch": 65, "duration": 6, "velocity": 82}, {"time": 1147, "pitch": 68, "duration": 6, "velocity": 74}, {"time": 1153, "pitch": 58, "duration": 1, "velocity": 83}, {"time": 1159, "pitch": 39, "duration": 6, "velocity": 81}, {"time": 1159, "pitch": 63, "duration": 18, "velocity": 77}, {"time": 1159, "pitch": 66, "duration": 16, "velocity": 78}, {"time": 1159, "pitch": 70, "duration": 16, "velocity": 81}, {"time": 1165, "pitch": 51, "duration": 1, "velocity": 83}, {"time": 1171, "pitch": 53, "duration": 4, "velocity": 79}, {"time": 1177, "pitch": 54, "duration": 1, "velocity": 79}, {"time": 1183, "pitch": 39, "duration": 18, "velocity": 80}, {"time": 1183, "pitch": 63, "duration": 1, "velocity": 77}, {"time": 1183, "pitch": 75, "duration": 1, "velocity": 83}, {"time": 1186, "pitch": 65, "duration": 1, "velocity": 60}, {"time": 1186, "pitch": 77, "duration": 1, "velocity": 80}, {"time": 1189, "pitch": 66, "duration": 1, "velocity": 63}, {"time": 1189, "pitch": 78, "duration": 1, "velocity": 80}, {"time": 1192, "pitch": 68, "duration": 1, "velocity": 58}, {"time": 1192, "pitch": 80, "duration": 2, "velocity": 82}, {"time": 1195, "pitch": 70, "duration": 1, "velocity": 62}, {"time": 1195, "pitch": 82, "duration": 1, "velocity": 84}, {"time": 1198, "pitch": 73, "duration": 2, "velocity": 69}, {"time": 1198, "pitch": 85, "duration": 1, "velocity": 56}, {"time": 1201, "pitch": 51, "duration": 8, "velocity": 83}, {"time": 1201, "pitch": 75, "duration": 1, "velocity": 83}, {"time": 1201, "pitch": 87, "duration": 1, "velocity": 83}, {"time": 1204, "pitch": 77, "duration": 1, "velocity": 52}, {"time": 1207, "pitch": 47, "duration": 12, "velocity": 83}, {"time": 1207, "pitch": 66, "duration": 5, "velocity": 80}, {"time": 1207, "pitch": 71, "duration": 5, "velocity": 90}, {"time": 1207, "pitch": 75, "duration": 5, "velocity": 82}, {"time": 1207, "pitch": 78, "duration": 5, "velocity": 79}, {"time": 1213, "pitch": 54, "duration": 7, "velocity": 62}, {"time": 1219, "pitch": 59, "duration": 2, "velocity": 77}, {"time": 1219, "pitch": 63, "duration": 1, "velocity": 81}, {"time": 1219, "pitch": 66, "duration": 2, "velocity": 83}, {"time": 1219, "pitch": 71, "duration": 2, "velocity": 95}, {"time": 1225, "pitch": 49, "duration": 4, "velocity": 79}, {"time": 1225, "pitch": 56, "duration": 4, "velocity": 80}, {"time": 1225, "pitch": 61, "duration": 4, "velocity": 81}, {"time": 1225, "pitch": 65, "duration": 3, "velocity": 82}, {"time": 1225, "pitch": 68, "duration": 4, "velocity": 82}, {"time": 1231, "pitch": 54, "duration": 16, "velocity": 79}, {"time": 1231, "pitch": 61, "duration": 10, "velocity": 83}, {"time": 1231, "pitch": 66, "duration": 10, "velocity": 86}, {"time": 1231, "pitch": 70, "duration": 8, "velocity": 90}, {"time": 1243, "pitch": 61, "duration": 7, "velocity": 84}, {"time": 1243, "pitch": 66, "duration": 7, "velocity": 86}, {"time": 1243, "pitch": 70, "duration": 8, "velocity": 90}, {"time": 1249, "pitch": 54, "duration": 1, "velocity": 82}, {"time": 1255, "pitch": 44, "duration": 7, "velocity": 83}, {"time": 1255, "pitch": 56, "duration": 4, "velocity": 81}, {"time": 1255, "pitch": 63, "duration": 7, "velocity": 91}, {"time": 1255, "pitch": 66, "duration": 7, "velocity": 86}, {"time": 1255, "pitch": 71, "duration": 7, "velocity": 93}, {"time": 1261, "pitch": 56, "duration": 2, "velocity": 68}, {"time": 1267, "pitch": 49, "duration": 7, "velocity": 91}, {"time": 1267, "pitch": 61, "duration": 7, "velocity": 83}, {"time": 1267, "pitch": 65, "duration": 7, "velocity": 86}, {"time": 1267, "pitch": 68, "duration": 7, "velocity": 83}, {"time": 1279, "pitch": 51, "duration": 20, "velocity": 86}, {"time": 1279, "pitch": 63, "duration": 6, "velocity": 90}, {"time": 1279, "pitch": 66, "duration": 6, "velocity": 86}, {"time": 1279, "pitch": 70, "duration": 5, "velocity": 90}, {"time": 1285, "pitch": 58, "duration": 10, "velocity": 73}, {"time": 1288, "pitch": 63, "duration": 2, "velocity": 72}, {"time": 1291, "pitch": 63, "duration": 2, "velocity": 83}, {"time": 1291, "pitch": 66, "duration": 2, "velocity": 83}, {"time": 1291, "pitch": 70, "duration": 2, "velocity": 82}, {"time": 1294, "pitch": 63, "duration": 3, "velocity": 83}, {"time": 1297, "pitch": 58, "duration": 1, "velocity": 80}, {"time": 1303, "pitch": 44, "duration": 17, "velocity": 83}, {"time": 1303, "pitch": 59, "duration": 5, "velocity": 83}, {"time": 1303, "pitch": 63, "duration": 5, "velocity": 84}, {"time": 1303, "pitch": 68, "duration": 5, "velocity": 83}, {"time": 1309, "pitch": 56, "duration": 8, "velocity": 60}, {"time": 1315, "pitch": 63, "duration": 7, "velocity": 83}, {"time": 1315, "pitch": 66, "duration": 6, "velocity": 84}, {"time": 1315, "pitch": 71, "duration": 9, "velocity": 93}, {"time": 1321, "pitch": 56, "duration": 5, "velocity": 79}, {"time": 1327, "pitch": 49, "duration": 18, "velocity": 86}, {"time": 1327, "pitch": 61, "duration": 6, "velocity": 78}, {"time": 1327, "pitch": 65, "duration": 6, "velocity": 74}, {"time": 1327, "pitch": 68, "duration": 6, "velocity": 72}, {"time": 1327, "pitch": 71, "duration": 5, "velocity": 27}, {"time": 1333, "pitch": 56, "duration": 7, "velocity": 73}, {"time": 1339, "pitch": 61, "duration": 6, "velocity": 75}, {"time": 1339, "pitch": 65, "duration": 5, "velocity": 78}, {"time": 1339, "pitch": 68, "duration": 4, "velocity": 78}, {"time": 1339, "pitch": 73, "duration": 3, "velocity": 86}, {"time": 1345, "pitch": 56, "duration": 1, "velocity": 76}, {"time": 1345, "pitch": 71, "duration": 3, "velocity": 75}, {"time": 1351, "pitch": 54, "duration": 16, "velocity": 73}, {"time": 1351, "pitch": 61, "duration": 10, "velocity": 82}, {"time": 1351, "pitch": 66, "duration": 10, "velocity": 81}, {"time": 1351, "pitch": 70, "duration": 9, "velocity": 86}, {"time": 1363, "pitch": 61, "duration": 7, "velocity": 83}, {"time": 1363, "pitch": 66, "duration": 5, "velocity": 86}, {"time": 1363, "pitch": 70, "duration": 5, "velocity": 83}, {"time": 1369, "pitch": 54, "duration": 2, "velocity": 80}, {"time": 1369, "pitch": 68, "duration": 2, "velocity": 82}, {"time": 1375, "pitch": 51, "duration": 20, "velocity": 82}, {"time": 1375, "pitch": 61, "duration": 6, "velocity": 82}, {"time": 1375, "pitch": 66, "duration": 6, "velocity": 84}, {"time": 1375, "pitch": 70, "duration": 7, "velocity": 84}, {"time": 1381, "pitch": 58, "duration": 6, "velocity": 72}, {"time": 1384, "pitch": 63, "duration": 5, "velocity": 75}, {"time": 1387, "pitch": 65, "duration": 3, "velocity": 86}, {"time": 1390, "pitch": 66, "duration": 4, "velocity": 82}, {"time": 1393, "pitch": 58, "duration": 1, "velocity": 84}, {"time": 1393, "pitch": 65, "duration": 3, "velocity": 73}, {"time": 1396, "pitch": 61, "duration": 2, "velocity": 90}, {"time": 1399, "pitch": 47, "duration": 9, "velocity": 86}, {"time": 1399, "pitch": 63, "duration": 4, "velocity": 86}, {"time": 1399, "pitch": 66, "duration": 5, "velocity": 84}, {"time": 1405, "pitch": 54, "duration": 5, "velocity": 73}, {"time": 1411, "pitch": 49, "duration": 7, "velocity": 91}, {"time": 1411, "pitch": 61, "duration": 7, "velocity": 84}, {"time": 1411, "pitch": 65, "duration": 7, "velocity": 83}, {"time": 1411, "pitch": 68, "duration": 7, "velocity": 62}, {"time": 1411, "pitch": 71, "duration": 7, "velocity": 84}, {"time": 1417, "pitch": 56, "duration": 2, "velocity": 82}, {"time": 1423, "pitch": 54, "duration": 18, "velocity": 84}, {"time": 1423, "pitch": 61, "duration": 5, "velocity": 83}, {"time": 1423, "pitch": 66, "duration": 6, "velocity": 84}, {"time": 1423, "pitch": 70, "duration": 5, "velocity": 90}, {"time": 1429, "pitch": 61, "duration": 3, "velocity": 71}, {"time": 1435, "pitch": 61, "duration": 5, "velocity": 90}, {"time": 1435, "pitch": 66, "duration": 4, "velocity": 78}, {"time": 1435, "pitch": 73, "duration": 4, "velocity": 96}, {"time": 1441, "pitch": 70, "duration": 5, "velocity": 91}, {"time": 1447, "pitch": 54, "duration": 2, "velocity": 59}, {"time": 1447, "pitch": 56, "duration": 8, "velocity": 60}, {"time": 1447, "pitch": 63, "duration": 8, "velocity": 90}, {"time": 1447, "pitch": 66, "duration": 8, "velocity": 83}, {"time": 1447, "pitch": 71, "duration": 9, "velocity": 86}, {"time": 1459, "pitch": 49, "duration": 7, "velocity": 82}, {"time": 1459, "pitch": 61, "duration": 7, "velocity": 83}, {"time": 1459, "pitch": 65, "duration": 7, "velocity": 84}, {"time": 1459, "pitch": 68, "duration": 7, "velocity": 86}, {"time": 1471, "pitch": 51, "duration": 19, "velocity": 86}, {"time": 1471, "pitch": 63, "duration": 6, "velocity": 83}, {"time": 1471, "pitch": 66, "duration": 6, "velocity": 84}, {"time": 1471, "pitch": 70, "duration": 5, "velocity": 90}, {"time": 1477, "pitch": 58, "duration": 6, "velocity": 76}, {"time": 1480, "pitch": 63, "duration": 4, "velocity": 76}, {"time": 1483, "pitch": 65, "duration": 3, "velocity": 83}, {"time": 1486, "pitch": 58, "duration": 2, "velocity": 75}, {"time": 1486, "pitch": 61, "duration": 3, "velocity": 83}, {"time": 1486, "pitch": 66, "duration": 4, "velocity": 83}, {"time": 1489, "pitch": 58, "duration": 1, "velocity": 78}, {"time": 1492, "pitch": 68, "duration": 2, "velocity": 81}, {"time": 1495, "pitch": 44, "duration": 22, "velocity": 80}, {"time": 1495, "pitch": 56, "duration": 16, "velocity": 67}, {"time": 1495, "pitch": 59, "duration": 10, "velocity": 80}, {"time": 1495, "pitch": 63, "duration": 10, "velocity": 82}, {"time": 1495, "pitch": 68, "duration": 10, "velocity": 81}, {"time": 1507, "pitch": 59, "duration": 9, "velocity": 84}, {"time": 1507, "pitch": 63, "duration": 11, "velocity": 84}, {"time": 1507, "pitch": 68, "duration": 10, "velocity": 84}, {"time": 1513, "pitch": 56, "duration": 7, "velocity": 43}, {"time": 1519, "pitch": 49, "duration": 15, "velocity": 86}, {"time": 1519, "pitch": 61, "duration": 10, "velocity": 84}, {"time": 1519, "pitch": 65, "duration": 9, "velocity": 83}, {"time": 1519, "pitch": 68, "duration": 9, "velocity": 82}, {"time": 1531, "pitch": 61, "duration": 7, "velocity": 83}, {"time": 1531, "pitch": 65, "duration": 6, "velocity": 78}, {"time": 1531, "pitch": 68, "duration": 6, "velocity": 79}, {"time": 1537, "pitch": 49, "duration": 1, "velocity": 79}, {"time": 1543, "pitch": 47, "duration": 16, "velocity": 75}, {"time": 1543, "pitch": 63, "duration": 12, "velocity": 79}, {"time": 1543, "pitch": 66, "duration": 12, "velocity": 83}, {"time": 1543, "pitch": 71, "duration": 13, "velocity": 86}, {"time": 1555, "pitch": 59, "duration": 3, "velocity": 79}, {"time": 1558, "pitch": 63, "duration": 2, "velocity": 79}, {"time": 1561, "pitch": 66, "duration": 3, "velocity": 78}, {"time": 1564, "pitch": 61, "duration": 20, "velocity": 56}, {"time": 1564, "pitch": 65, "duration": 20, "velocity": 72}, {"time": 1564, "pitch": 68, "duration": 21, "velocity": 76}, {"time": 1567, "pitch": 49, "duration": 16, "velocity": 80}, {"time": 1567, "pitch": 56, "duration": 17, "velocity": 78}, {"time": 1591, "pitch": 51, "duration": 46, "velocity": 80}, {"time": 1591, "pitch": 63, "duration": 6, "velocity": 68}, {"time": 1591, "pitch": 66, "duration": 6, "velocity": 68}, {"time": 1591, "pitch": 70, "duration": 7, "velocity": 77}, {"time": 1597, "pitch": 58, "duration": 8, "velocity": 69}, {"time": 1603, "pitch": 63, "duration": 5, "velocity": 59}, {"time": 1603, "pitch": 68, "duration": 6, "velocity": 73}, {"time": 1609, "pitch": 58, "duration": 19, "velocity": 71}, {"time": 1609, "pitch": 70, "duration": 4, "velocity": 78}, {"time": 1615, "pitch": 63, "duration": 6, "velocity": 31}, {"time": 1615, "pitch": 66, "duration": 8, "velocity": 49}, {"time": 1615, "pitch": 75, "duration": 6, "velocity": 68}, {"time": 1627, "pitch": 63, "duration": 6, "velocity": 75}, {"time": 1627, "pitch": 66, "duration": 6, "velocity": 71}, {"time": 1627, "pitch": 73, "duration": 5, "velocity": 83}, {"time": 1633, "pitch": 58, "duration": 4, "velocity": 76}, {"time": 1639, "pitch": 46, "duration": 43, "velocity": 81}, {"time": 1639, "pitch": 61, "duration": 6, "velocity": 70}, {"time": 1639, "pitch": 65, "duration": 6, "velocity": 79}, {"time": 1639, "pitch": 68, "duration": 6, "velocity": 72}, {"time": 1645, "pitch": 58, "duration": 8, "velocity": 59}, {"time": 1651, "pitch": 61, "duration": 6, "velocity": 53}, {"time": 1651, "pitch": 65, "duration": 5, "velocity": 76}, {"time": 1651, "pitch": 73, "duration": 6, "velocity": 75}, {"time": 1657, "pitch": 58, "duration": 13, "velocity": 36}, {"time": 1669, "pitch": 77, "duration": 1, "velocity": 80}, {"time": 1669, "pitch": 89, "duration": 2, "velocity": 82}, {"time": 1675, "pitch": 58, "duration": 6, "velocity": 45}, {"time": 1675, "pitch": 75, "duration": 1, "velocity": 69}, {"time": 1675, "pitch": 87, "duration": 1, "velocity": 74}, {"time": 1681, "pitch": 70, "duration": 1, "velocity": 79}, {"time": 1681, "pitch": 82, "duration": 2, "velocity": 73}, {"time": 1687, "pitch": 47, "duration": 43, "velocity": 72}, {"time": 1687, "pitch": 71, "duration": 5, "velocity": 76}, {"time": 1687, "pitch": 83, "duration": 4, "velocity": 73}, {"time": 1693, "pitch": 54, "duration": 7, "velocity": 58}, {"time": 1699, "pitch": 59, "duration": 6, "velocity": 54}, {"time": 1699, "pitch": 63, "duration": 6, "velocity": 74}, {"time": 1699, "pitch": 66, "duration": 7, "velocity": 81}, {"time": 1705, "pitch": 54, "duration": 17, "velocity": 62}, {"time": 1711, "pitch": 59, "duration": 8, "velocity": 55}, {"time": 1711, "pitch": 63, "duration": 10, "velocity": 59}, {"time": 1711, "pitch": 66, "duration": 5, "velocity": 70}, {"time": 1711, "pitch": 71, "duration": 13, "velocity": 53}, {"time": 1723, "pitch": 59, "duration": 3, "velocity": 78}, {"time": 1723, "pitch": 66, "duration": 4, "velocity": 79}, {"time": 1726, "pitch": 54, "duration": 7, "velocity": 77}, {"time": 1729, "pitch": 59, "duration": 3, "velocity": 82}, {"time": 1732, "pitch": 66, "duration": 3, "velocity": 80}, {"time": 1735, "pitch": 46, "duration": 42, "velocity": 79}, {"time": 1735, "pitch": 61, "duration": 7, "velocity": 61}, {"time": 1735, "pitch": 65, "duration": 7, "velocity": 74}, {"time": 1741, "pitch": 58, "duration": 20, "velocity": 59}, {"time": 1747, "pitch": 61, "duration": 8, "velocity": 63}, {"time": 1747, "pitch": 73, "duration": 7, "velocity": 73}, {"time": 1753, "pitch": 68, "duration": 7, "velocity": 71}, {"time": 1759, "pitch": 61, "duration": 10, "velocity": 43}, {"time": 1759, "pitch": 65, "duration": 8, "velocity": 56}, {"time": 1768, "pitch": 58, "duration": 7, "velocity": 60}, {"time": 1771, "pitch": 61, "duration": 2, "velocity": 68}, {"time": 1771, "pitch": 66, "duration": 3, "velocity": 75}, {"time": 1774, "pitch": 65, "duration": 3, "velocity": 71}, {"time": 1777, "pitch": 63, "duration": 3, "velocity": 79}, {"time": 1780, "pitch": 61, "duration": 4, "velocity": 75}, {"time": 1783, "pitch": 39, "duration": 3, "velocity": 76}, {"time": 1783, "pitch": 63, "duration": 12, "velocity": 83}, {"time": 1786, "pitch": 51, "duration": 3, "velocity": 72}, {"time": 1789, "pitch": 53, "duration": 12, "velocity": 63}, {"time": 1792, "pitch": 54, "duration": 10, "velocity": 63}, {"time": 1795, "pitch": 58, "duration": 11, "velocity": 71}, {"time": 1798, "pitch": 63, "duration": 4, "velocity": 58}, {"time": 1801, "pitch": 66, "duration": 3, "velocity": 79}, {"time": 1804, "pitch": 68, "duration": 3, "velocity": 68}, {"time": 1807, "pitch": 51, "duration": 20, "velocity": 77}, {"time": 1807, "pitch": 63, "duration": 4, "velocity": 68}, {"time": 1807, "pitch": 70, "duration": 5, "velocity": 82}, {"time": 1810, "pitch": 58, "duration": 7, "velocity": 68}, {"time": 1813, "pitch": 63, "duration": 7, "velocity": 60}, {"time": 1816, "pitch": 66, "duration": 2, "velocity": 67}, {"time": 1816, "pitch": 75, "duration": 2, "velocity": 78}, {"time": 1819, "pitch": 66, "duration": 2, "velocity": 75}, {"time": 1819, "pitch": 75, "duration": 2, "velocity": 82}, {"time": 1822, "pitch": 58, "duration": 5, "velocity": 69}, {"time": 1825, "pitch": 63, "duration": 1, "velocity": 79}, {"time": 1825, "pitch": 73, "duration": 1, "velocity": 84}, {"time": 1831, "pitch": 46, "duration": 21, "velocity": 83}, {"time": 1831, "pitch": 61, "duration": 4, "velocity": 75}, {"time": 1831, "pitch": 65, "duration": 3, "velocity": 82}, {"time": 1831, "pitch": 68, "duration": 4, "velocity": 78}, {"time": 1834, "pitch": 58, "duration": 12, "velocity": 57}, {"time": 1837, "pitch": 61, "duration": 4, "velocity": 54}, {"time": 1840, "pitch": 65, "duration": 5, "velocity": 79}, {"time": 1843, "pitch": 61, "duration": 2, "velocity": 5}, {"time": 1843, "pitch": 73, "duration": 2, "velocity": 55}, {"time": 1846, "pitch": 61, "duration": 5, "velocity": 59}, {"time": 1846, "pitch": 65, "duration": 4, "velocity": 74}, {"time": 1846, "pitch": 73, "duration": 5, "velocity": 81}, {"time": 1849, "pitch": 58, "duration": 5, "velocity": 30}, {"time": 1852, "pitch": 61, "duration": 6, "velocity": 52}, {"time": 1852, "pitch": 70, "duration": 6, "velocity": 83}, {"time": 1855, "pitch": 46, "duration": 19, "velocity": 80}, {"time": 1858, "pitch": 58, "duration": 7, "velocity": 52}, {"time": 1861, "pitch": 61, "duration": 5, "velocity": 63}, {"time": 1864, "pitch": 65, "duration": 3, "velocity": 68}, {"time": 1867, "pitch": 61, "duration": 4, "velocity": 40}, {"time": 1867, "pitch": 66, "duration": 8, "velocity": 83}, {"time": 1873, "pitch": 58, "duration": 6, "velocity": 59}, {"time": 1876, "pitch": 68, "duration": 2, "velocity": 63}, {"time": 1879, "pitch": 47, "duration": 18, "velocity": 83}, {"time": 1879, "pitch": 63, "duration": 6, "velocity": 84}, {"time": 1879, "pitch": 68, "duration": 1, "velocity": 33}, {"time": 1882, "pitch": 54, "duration": 16, "velocity": 69}, {"time": 1885, "pitch": 59, "duration": 11, "velocity": 69}, {"time": 1888, "pitch": 61, "duration": 7, "velocity": 69}, {"time": 1891, "pitch": 63, "duration": 6, "velocity": 84}, {"time": 1897, "pitch": 66, "duration": 5, "velocity": 78}, {"time": 1903, "pitch": 49, "duration": 18, "velocity": 78}, {"time": 1903, "pitch": 61, "duration": 5, "velocity": 80}, {"time": 1903, "pitch": 68, "duration": 5, "velocity": 80}, {"time": 1909, "pitch": 56, "duration": 12, "velocity": 61}, {"time": 1915, "pitch": 61, "duration": 5, "velocity": 60}, {"time": 1915, "pitch": 65, "duration": 5, "velocity": 80}, {"time": 1915, "pitch": 68, "duration": 4, "velocity": 72}, {"time": 1915, "pitch": 73, "duration": 4, "velocity": 82}, {"time": 1927, "pitch": 39, "duration": 5, "velocity": 80}, {"time": 1927, "pitch": 63, "duration": 31, "velocity": 77}, {"time": 1927, "pitch": 66, "duration": 32, "velocity": 79}, {"time": 1933, "pitch": 51, "duration": 7, "velocity": 61}, {"time": 1939, "pitch": 53, "duration": 8, "velocity": 79}, {"time": 1945, "pitch": 56, "duration": 7, "velocity": 58}, {"time": 1951, "pitch": 51, "duration": 14, "velocity": 84}, {"time": 1963, "pitch": 63, "duration": 3, "velocity": 56}, {"time": 1963, "pitch": 70, "duration": 3, "velocity": 80}, {"time": 1975, "pitch": 51, "duration": 19, "velocity": 80}, {"time": 1975, "pitch": 61, "duration": 6, "velocity": 68}, {"time": 1975, "pitch": 66, "duration": 12, "velocity": 70}, {"time": 1975, "pitch": 70, "duration": 11, "velocity": 78}, {"time": 1981, "pitch": 58, "duration": 16, "velocity": 68}, {"time": 1987, "pitch": 63, "duration": 7, "velocity": 61}, {"time": 1993, "pitch": 66, "duration": 5, "velocity": 72}, {"time": 1999, "pitch": 49, "duration": 18, "velocity": 68}, {"time": 1999, "pitch": 61, "duration": 6, "velocity": 59}, {"time": 1999, "pitch": 65, "duration": 6, "velocity": 79}, {"time": 1999, "pitch": 68, "duration": 7, "velocity": 69}, {"time": 2005, "pitch": 58, "duration": 12, "velocity": 55}, {"time": 2011, "pitch": 61, "duration": 5, "velocity": 59}, {"time": 2014, "pitch": 65, "duration": 3, "velocity": 72}, {"time": 2017, "pitch": 66, "duration": 3, "velocity": 68}, {"time": 2020, "pitch": 68, "duration": 3, "velocity": 76}, {"time": 2023, "pitch": 47, "duration": 18, "velocity": 73}, {"time": 2023, "pitch": 61, "duration": 7, "velocity": 60}, {"time": 2023, "pitch": 63, "duration": 7, "velocity": 69}, {"time": 2023, "pitch": 66, "duration": 7, "velocity": 76}, {"time": 2029, "pitch": 54, "duration": 14, "velocity": 51}, {"time": 2035, "pitch": 61, "duration": 7, "velocity": 59}, {"time": 2035, "pitch": 63, "duration": 7, "velocity": 60}, {"time": 2035, "pitch": 66, "duration": 7, "velocity": 70}, {"time": 2047, "pitch": 46, "duration": 17, "velocity": 73}, {"time": 2047, "pitch": 61, "duration": 9, "velocity": 69}, {"time": 2047, "pitch": 65, "duration": 8, "velocity": 74}, {"time": 2047, "pitch": 68, "duration": 6, "velocity": 68}, {"time": 2059, "pitch": 61, "duration": 7, "velocity": 58}, {"time": 2059, "pitch": 73, "duration": 6, "velocity": 72}, {"time": 2065, "pitch": 70, "duration": 12, "velocity": 71}, {"time": 2071, "pitch": 51, "duration": 22, "velocity": 74}, {"time": 2071, "pitch": 61, "duration": 6, "velocity": 63}, {"time": 2071, "pitch": 66, "duration": 6, "velocity": 71}, {"time": 2077, "pitch": 58, "duration": 12, "velocity": 57}, {"time": 2083, "pitch": 61, "duration": 7, "velocity": 56}, {"time": 2083, "pitch": 66, "duration": 7, "velocity": 62}, {"time": 2083, "pitch": 70, "duration": 6, "velocity": 62}, {"time": 2092, "pitch": 58, "duration": 3, "velocity": 59}, {"time": 2095, "pitch": 49, "duration": 19, "velocity": 69}, {"time": 2095, "pitch": 61, "duration": 6, "velocity": 60}, {"time": 2095, "pitch": 65, "duration": 6, "velocity": 63}, {"time": 2095, "pitch": 68, "duration": 6, "velocity": 72}, {"time": 2101, "pitch": 58, "duration": 8, "velocity": 42}, {"time": 2107, "pitch": 61, "duration": 7, "velocity": 62}, {"time": 2107, "pitch": 65, "duration": 6, "velocity": 79}, {"time": 2107, "pitch": 68, "duration": 6, "velocity": 50}, {"time": 2113, "pitch": 58, "duration": 6, "velocity": 68}, {"time": 2119, "pitch": 47, "duration": 18, "velocity": 63}, {"time": 2119, "pitch": 61, "duration": 7, "velocity": 62}, {"time": 2119, "pitch": 63, "duration": 8, "velocity": 71}, {"time": 2119, "pitch": 66, "duration": 6, "velocity": 74}, {"time": 2125, "pitch": 54, "duration": 10, "velocity": 52}, {"time": 2131, "pitch": 59, "duration": 8, "velocity": 43}, {"time": 2131, "pitch": 61, "duration": 7, "velocity": 57}, {"time": 2131, "pitch": 63, "duration": 6, "velocity": 60}, {"time": 2131, "pitch": 66, "duration": 8, "velocity": 73}, {"time": 2140, "pitch": 61, "duration": 4, "velocity": 57}, {"time": 2140, "pitch": 65, "duration": 8, "velocity": 69}, {"time": 2143, "pitch": 49, "duration": 20, "velocity": 53}, {"time": 2143, "pitch": 68, "duration": 10, "velocity": 71}, {"time": 2149, "pitch": 56, "duration": 14, "velocity": 56}, {"time": 2155, "pitch": 61, "duration": 5, "velocity": 60}, {"time": 2161, "pitch": 66, "duration": 5, "velocity": 76}, {"time": 2167, "pitch": 44, "duration": 16, "velocity": 75}, {"time": 2167, "pitch": 59, "duration": 9, "velocity": 73}, {"time": 2167, "pitch": 63, "duration": 9, "velocity": 69}, {"time": 2167, "pitch": 68, "duration": 8, "velocity": 70}, {"time": 2173, "pitch": 51, "duration": 10, "velocity": 58}, {"time": 2176, "pitch": 56, "duration": 13, "velocity": 52}, {"time": 2179, "pitch": 59, "duration": 4, "velocity": 69}, {"time": 2182, "pitch": 63, "duration": 2, "velocity": 75}, {"time": 2185, "pitch": 65, "duration": 3, "velocity": 55}, {"time": 2188, "pitch": 68, "duration": 3, "velocity": 75}, {"time": 2191, "pitch": 51, "duration": 20, "velocity": 71}, {"time": 2191, "pitch": 66, "duration": 6, "velocity": 75}, {"time": 2194, "pitch": 58, "duration": 16, "velocity": 58}, {"time": 2197, "pitch": 63, "duration": 9, "velocity": 51}, {"time": 2200, "pitch": 65, "duration": 1, "velocity": 5}, {"time": 2203, "pitch": 66, "duration": 8, "velocity": 32}, {"time": 2212, "pitch": 61, "duration": 6, "velocity": 57}, {"time": 2215, "pitch": 51, "duration": 16, "velocity": 73}, {"time": 2215, "pitch": 66, "duration": 7, "velocity": 72}, {"time": 2215, "pitch": 70, "duration": 6, "velocity": 80}, {"time": 2221, "pitch": 58, "duration": 12, "velocity": 59}, {"time": 2224, "pitch": 63, "duration": 5, "velocity": 60}, {"time": 2227, "pitch": 65, "duration": 3, "velocity": 70}, {"time": 2230, "pitch": 66, "duration": 3, "velocity": 75}, {"time": 2233, "pitch": 68, "duration": 4, "velocity": 69}, {"time": 2236, "pitch": 70, "duration": 1, "velocity": 78}, {"time": 2239, "pitch": 46, "duration": 18, "velocity": 73}, {"time": 2239, "pitch": 61, "duration": 7, "velocity": 13}, {"time": 2239, "pitch": 73, "duration": 5, "velocity": 79}, {"time": 2245, "pitch": 58, "duration": 15, "velocity": 50}, {"time": 2251, "pitch": 61, "duration": 7, "velocity": 69}, {"time": 2251, "pitch": 70, "duration": 6, "velocity": 83}, {"time": 2257, "pitch": 65, "duration": 3, "velocity": 81}, {"time": 2263, "pitch": 44, "duration": 19, "velocity": 74}, {"time": 2263, "pitch": 59, "duration": 6, "velocity": 59}, {"time": 2263, "pitch": 63, "duration": 7, "velocity": 72}, {"time": 2263, "pitch": 66, "duration": 5, "velocity": 62}, {"time": 2269, "pitch": 56, "duration": 10, "velocity": 23}, {"time": 2275, "pitch": 59, "duration": 6, "velocity": 72}, {"time": 2275, "pitch": 63, "duration": 6, "velocity": 76}, {"time": 2275, "pitch": 66, "duration": 6, "velocity": 73}, {"time": 2281, "pitch": 56, "duration": 4, "velocity": 58}, {"time": 2287, "pitch": 46, "duration": 17, "velocity": 79}, {"time": 2287, "pitch": 61, "duration": 6, "velocity": 75}, {"time": 2287, "pitch": 65, "duration": 5, "velocity": 78}, {"time": 2287, "pitch": 68, "duration": 5, "velocity": 72}, {"time": 2293, "pitch": 58, "duration": 9, "velocity": 49}, {"time": 2299, "pitch": 61, "duration": 6, "velocity": 75}, {"time": 2299, "pitch": 65, "duration": 5, "velocity": 59}, {"time": 2299, "pitch": 73, "duration": 6, "velocity": 84}, {"time": 2305, "pitch": 68, "duration": 4, "velocity": 76}, {"time": 2308, "pitch": 70, "duration": 22, "velocity": 78}, {"time": 2311, "pitch": 39, "duration": 5, "velocity": 79}, {"time": 2311, "pitch": 63, "duration": 20, "velocity": 72}, {"time": 2311, "pitch": 66, "duration": 19, "velocity": 77}, {"time": 2317, "pitch": 51, "duration": 1, "velocity": 72}, {"time": 2323, "pitch": 53, "duration": 29, "velocity": 77}, {"time": 2329, "pitch": 54, "duration": 23, "velocity": 61}, {"time": 2335, "pitch": 58, "duration": 6, "velocity": 26}, {"time": 2338, "pitch": 63, "duration": 3, "velocity": 52}, {"time": 2341, "pitch": 65, "duration": 2, "velocity": 72}, {"time": 2344, "pitch": 66, "duration": 3, "velocity": 72}, {"time": 2347, "pitch": 58, "duration": 4, "velocity": 57}, {"time": 2347, "pitch": 68, "duration": 4, "velocity": 59}, {"time": 2350, "pitch": 70, "duration": 1, "velocity": 71}, {"time": 2353, "pitch": 73, "duration": 1, "velocity": 78}, {"time": 2356, "pitch": 77, "duration": 3, "velocity": 70}, {"time": 2359, "pitch": 51, "duration": 19, "velocity": 71}, {"time": 2359, "pitch": 78, "duration": 3, "velocity": 76}, {"time": 2365, "pitch": 58, "duration": 7, "velocity": 57}, {"time": 2371, "pitch": 63, "duration": 6, "velocity": 56}, {"time": 2371, "pitch": 66, "duration": 6, "velocity": 63}, {"time": 2371, "pitch": 70, "duration": 6, "velocity": 80}, {"time": 2371, "pitch": 73, "duration": 6, "velocity": 79}, {"time": 2377, "pitch": 58, "duration": 7, "velocity": 71}, {"time": 2383, "pitch": 49, "duration": 18, "velocity": 76}, {"time": 2383, "pitch": 61, "duration": 7, "velocity": 57}, {"time": 2383, "pitch": 65, "duration": 7, "velocity": 72}, {"time": 2383, "pitch": 68, "duration": 7, "velocity": 77}, {"time": 2389, "pitch": 56, "duration": 9, "velocity": 44}, {"time": 2395, "pitch": 61, "duration": 7, "velocity": 69}, {"time": 2395, "pitch": 65, "duration": 6, "velocity": 79}, {"time": 2395, "pitch": 68, "duration": 7, "velocity": 72}, {"time": 2401, "pitch": 56, "duration": 6, "velocity": 75}, {"time": 2404, "pitch": 65, "duration": 3, "velocity": 82}, {"time": 2407, "pitch": 47, "duration": 18, "velocity": 79}, {"time": 2407, "pitch": 63, "duration": 6, "velocity": 78}, {"time": 2407, "pitch": 66, "duration": 7, "velocity": 79}, {"time": 2413, "pitch": 54, "duration": 7, "velocity": 69}, {"time": 2419, "pitch": 59, "duration": 6, "velocity": 58}, {"time": 2419, "pitch": 63, "duration": 11, "velocity": 82}, {"time": 2419, "pitch": 66, "duration": 7, "velocity": 78}, {"time": 2425, "pitch": 54, "duration": 6, "velocity": 76}, {"time": 2431, "pitch": 46, "duration": 18, "velocity": 82}, {"time": 2431, "pitch": 61, "duration": 7, "velocity": 75}, {"time": 2431, "pitch": 65, "duration": 7, "velocity": 77}, {"time": 2431, "pitch": 68, "duration": 6, "velocity": 80}, {"time": 2437, "pitch": 58, "duration": 8, "velocity": 58}, {"time": 2440, "pitch": 61, "duration": 1, "velocity": 39}, {"time": 2443, "pitch": 61, "duration": 7, "velocity": 78}, {"time": 2443, "pitch": 65, "duration": 7, "velocity": 78}, {"time": 2443, "pitch": 68, "duration": 7, "velocity": 76}, {"time": 2449, "pitch": 58, "duration": 6, "velocity": 58}, {"time": 2455, "pitch": 51, "duration": 19, "velocity": 76}, {"time": 2455, "pitch": 63, "duration": 6, "velocity": 79}, {"time": 2455, "pitch": 66, "duration": 7, "velocity": 78}, {"time": 2455, "pitch": 70, "duration": 5, "velocity": 80}, {"time": 2461, "pitch": 58, "duration": 8, "velocity": 60}, {"time": 2467, "pitch": 63, "duration": 7, "velocity": 79}, {"time": 2467, "pitch": 66, "duration": 7, "velocity": 76}, {"time": 2467, "pitch": 70, "duration": 6, "velocity": 81}, {"time": 2473, "pitch": 58, "duration": 7, "velocity": 78}, {"time": 2479, "pitch": 49, "duration": 21, "velocity": 78}, {"time": 2479, "pitch": 61, "duration": 7, "velocity": 72}, {"time": 2479, "pitch": 65, "duration": 6, "velocity": 78}, {"time": 2479, "pitch": 68, "duration": 6, "velocity": 76}, {"time": 2485, "pitch": 58, "duration": 7, "velocity": 71}, {"time": 2491, "pitch": 61, "duration": 7, "velocity": 77}, {"time": 2491, "pitch": 65, "duration": 7, "velocity": 83}, {"time": 2491, "pitch": 68, "duration": 7, "velocity": 75}, {"time": 2497, "pitch": 58, "duration": 3, "velocity": 77}, {"time": 2503, "pitch": 47, "duration": 18, "velocity": 79}, {"time": 2503, "pitch": 59, "duration": 6, "velocity": 79}, {"time": 2503, "pitch": 63, "duration": 6, "velocity": 73}, {"time": 2503, "pitch": 66, "duration": 6, "velocity": 73}, {"time": 2509, "pitch": 54, "duration": 8, "velocity": 60}, {"time": 2515, "pitch": 59, "duration": 7, "velocity": 75}, {"time": 2515, "pitch": 63, "duration": 7, "velocity": 76}, {"time": 2515, "pitch": 66, "duration": 8, "velocity": 79}, {"time": 2521, "pitch": 54, "duration": 6, "velocity": 76}, {"time": 2527, "pitch": 49, "duration": 19, "velocity": 75}, {"time": 2527, "pitch": 61, "duration": 5, "velocity": 79}, {"time": 2527, "pitch": 65, "duration": 5, "velocity": 83}, {"time": 2527, "pitch": 68, "duration": 7, "velocity": 79}, {"time": 2533, "pitch": 56, "duration": 7, "velocity": 62}, {"time": 2536, "pitch": 61, "duration": 5, "velocity": 32}, {"time": 2539, "pitch": 65, "duration": 5, "velocity": 84}, {"time": 2542, "pitch": 66, "duration": 2, "velocity": 79}, {"time": 2545, "pitch": 63, "duration": 3, "velocity": 76}, {"time": 2545, "pitch": 66, "duration": 1, "velocity": 52}, {"time": 2548, "pitch": 59, "duration": 9, "velocity": 76}, {"time": 2551, "pitch": 44, "duration": 17, "velocity": 78}, {"time": 2551, "pitch": 63, "duration": 7, "velocity": 79}, {"time": 2551, "pitch": 68, "duration": 6, "velocity": 79}, {"time": 2557, "pitch": 51, "duration": 7, "velocity": 71}, {"time": 2563, "pitch": 56, "duration": 5, "velocity": 53}, {"time": 2563, "pitch": 59, "duration": 6, "velocity": 80}, {"time": 2563, "pitch": 63, "duration": 6, "velocity": 81}, {"time": 2563, "pitch": 68, "duration": 6, "velocity": 80}, {"time": 2569, "pitch": 51, "duration": 1, "velocity": 83}, {"time": 2575, "pitch": 35, "duration": 18, "velocity": 81}, {"time": 2575, "pitch": 47, "duration": 15, "velocity": 76}, {"time": 2575, "pitch": 59, "duration": 8, "velocity": 77}, {"time": 2575, "pitch": 63, "duration": 9, "velocity": 76}, {"time": 2575, "pitch": 66, "duration": 8, "velocity": 80}, {"time": 2587, "pitch": 59, "duration": 6, "velocity": 79}, {"time": 2587, "pitch": 63, "duration": 6, "velocity": 78}, {"time": 2587, "pitch": 66, "duration": 6, "velocity": 78}, {"time": 2593, "pitch": 47, "duration": 1, "velocity": 73}, {"time": 2599, "pitch": 39, "duration": 19, "velocity": 56}, {"time": 2599, "pitch": 51, "duration": 14, "velocity": 72}, {"time": 2599, "pitch": 63, "duration": 9, "velocity": 79}, {"time": 2599, "pitch": 66, "duration": 9, "velocity": 81}, {"time": 2599, "pitch": 70, "duration": 6, "velocity": 86}, {"time": 2611, "pitch": 63, "duration": 7, "velocity": 80}, {"time": 2611, "pitch": 66, "duration": 7, "velocity": 83}, {"time": 2611, "pitch": 70, "duration": 6, "velocity": 84}, {"time": 2617, "pitch": 51, "duration": 2, "velocity": 71}, {"time": 2623, "pitch": 46, "duration": 17, "velocity": 80}, {"time": 2623, "pitch": 61, "duration": 9, "velocity": 77}, {"time": 2623, "pitch": 65, "duration": 9, "velocity": 83}, {"time": 2623, "pitch": 68, "duration": 9, "velocity": 79}, {"time": 2632, "pitch": 58, "duration": 3, "velocity": 49}, {"time": 2635, "pitch": 61, "duration": 4, "velocity": 74}, {"time": 2635, "pitch": 65, "duration": 4, "velocity": 74}, {"time": 2635, "pitch": 68, "duration": 5, "velocity": 79}, {"time": 2638, "pitch": 58, "duration": 3, "velocity": 58}, {"time": 2641, "pitch": 65, "duration": 3, "velocity": 71}, {"time": 2644, "pitch": 68, "duration": 4, "velocity": 73}, {"time": 2647, "pitch": 44, "duration": 19, "velocity": 78}, {"time": 2647, "pitch": 56, "duration": 15, "velocity": 62}, {"time": 2647, "pitch": 59, "duration": 7, "velocity": 75}, {"time": 2647, "pitch": 63, "duration": 7, "velocity": 82}, {"time": 2647, "pitch": 66, "duration": 7, "velocity": 79}, {"time": 2659, "pitch": 59, "duration": 7, "velocity": 80}, {"time": 2659, "pitch": 63, "duration": 7, "velocity": 82}, {"time": 2659, "pitch": 66, "duration": 7, "velocity": 82}, {"time": 2665, "pitch": 56, "duration": 2, "velocity": 71}, {"time": 2671, "pitch": 46, "duration": 19, "velocity": 86}, {"time": 2671, "pitch": 58, "duration": 13, "velocity": 79}, {"time": 2671, "pitch": 61, "duration": 8, "velocity": 79}, {"time": 2671, "pitch": 65, "duration": 8, "velocity": 83}, {"time": 2671, "pitch": 68, "duration": 7, "velocity": 80}, {"time": 2683, "pitch": 61, "duration": 7, "velocity": 74}, {"time": 2683, "pitch": 65, "duration": 6, "velocity": 82}, {"time": 2683, "pitch": 68, "duration": 6, "velocity": 74}, {"time": 2689, "pitch": 58, "duration": 1, "velocity": 83}, {"time": 2695, "pitch": 39, "duration": 6, "velocity": 81}, {"time": 2695, "pitch": 63, "duration": 18, "velocity": 77}, {"time": 2695, "pitch": 66, "duration": 16, "velocity": 78}, {"time": 2695, "pitch": 70, "duration": 16, "velocity": 81}, {"time": 2701, "pitch": 51, "duration": 1, "velocity": 83}, {"time": 2707, "pitch": 53, "duration": 4, "velocity": 79}, {"time": 2713, "pitch": 54, "duration": 1, "velocity": 79}, {"time": 2719, "pitch": 39, "duration": 18, "velocity": 79}, {"time": 2719, "pitch": 63, "duration": 1, "velocity": 77}, {"time": 2719, "pitch": 75, "duration": 1, "velocity": 83}, {"time": 2722, "pitch": 65, "duration": 1, "velocity": 60}, {"time": 2722, "pitch": 77, "duration": 1, "velocity": 80}, {"time": 2725, "pitch": 66, "duration": 1, "velocity": 63}, {"time": 2725, "pitch": 78, "duration": 1, "velocity": 80}, {"time": 2728, "pitch": 68, "duration": 1, "velocity": 58}, {"time": 2728, "pitch": 80, "duration": 2, "velocity": 82}, {"time": 2731, "pitch": 70, "duration": 1, "velocity": 62}, {"time": 2731, "pitch": 82, "duration": 1, "velocity": 84}, {"time": 2734, "pitch": 73, "duration": 2, "velocity": 69}, {"time": 2734, "pitch": 85, "duration": 1, "velocity": 56}, {"time": 2737, "pitch": 51, "duration": 8, "velocity": 87}, {"time": 2737, "pitch": 75, "duration": 1, "velocity": 41}, {"time": 2737, "pitch": 87, "duration": 1, "velocity": 75}, {"time": 2740, "pitch": 77, "duration": 1, "velocity": 52}, {"time": 2743, "pitch": 47, "duration": 12, "velocity": 83}, {"time": 2743, "pitch": 66, "duration": 5, "velocity": 80}, {"time": 2743, "pitch": 71, "duration": 5, "velocity": 90}, {"time": 2743, "pitch": 75, "duration": 5, "velocity": 82}, {"time": 2743, "pitch": 78, "duration": 5, "velocity": 79}, {"time": 2749, "pitch": 54, "duration": 7, "velocity": 62}, {"time": 2755, "pitch": 59, "duration": 2, "velocity": 77}, {"time": 2755, "pitch": 63, "duration": 1, "velocity": 81}, {"time": 2755, "pitch": 66, "duration": 2, "velocity": 83}, {"time": 2755, "pitch": 71, "duration": 2, "velocity": 95}, {"time": 2761, "pitch": 49, "duration": 4, "velocity": 79}, {"time": 2761, "pitch": 56, "duration": 4, "velocity": 80}, {"time": 2761, "pitch": 61, "duration": 4, "velocity": 81}, {"time": 2761, "pitch": 65, "duration": 3, "velocity": 82}, {"time": 2761, "pitch": 68, "duration": 4, "velocity": 82}, {"time": 2767, "pitch": 54, "duration": 16, "velocity": 79}, {"time": 2767, "pitch": 61, "duration": 10, "velocity": 83}, {"time": 2767, "pitch": 66, "duration": 10, "velocity": 86}, {"time": 2767, "pitch": 70, "duration": 8, "velocity": 90}, {"time": 2779, "pitch": 61, "duration": 7, "velocity": 84}, {"time": 2779, "pitch": 66, "duration": 7, "velocity": 86}, {"time": 2779, "pitch": 70, "duration": 8, "velocity": 90}, {"time": 2785, "pitch": 54, "duration": 1, "velocity": 82}, {"time": 2791, "pitch": 44, "duration": 7, "velocity": 83}, {"time": 2791, "pitch": 56, "duration": 4, "velocity": 81}, {"time": 2791, "pitch": 63, "duration": 7, "velocity": 91}, {"time": 2791, "pitch": 66, "duration": 7, "velocity": 86}, {"time": 2791, "pitch": 71, "duration": 7, "velocity": 93}, {"time": 2797, "pitch": 56, "duration": 2, "velocity": 68}, {"time": 2803, "pitch": 49, "duration": 7, "velocity": 91}, {"time": 2803, "pitch": 61, "duration": 7, "velocity": 83}, {"time": 2803, "pitch": 65, "duration": 7, "velocity": 86}, {"time": 2803, "pitch": 68, "duration": 7, "velocity": 83}, {"time": 2815, "pitch": 51, "duration": 20, "velocity": 86}, {"time": 2815, "pitch": 63, "duration": 6, "velocity": 90}, {"time": 2815, "pitch": 66, "duration": 6, "velocity": 86}, {"time": 2815, "pitch": 70, "duration": 5, "velocity": 90}, {"time": 2821, "pitch": 58, "duration": 10, "velocity": 73}, {"time": 2824, "pitch": 63, "duration": 2, "velocity": 72}, {"time": 2827, "pitch": 63, "duration": 2, "velocity": 75}, {"time": 2827, "pitch": 66, "duration": 2, "velocity": 75}, {"time": 2827, "pitch": 70, "duration": 2, "velocity": 75}, {"time": 2830, "pitch": 63, "duration": 3, "velocity": 83}, {"time": 2833, "pitch": 58, "duration": 1, "velocity": 80}, {"time": 2836, "pitch": 70, "duration": 2, "velocity": 67}, {"time": 2836, "pitch": 71, "duration": 1, "velocity": 75}, {"time": 2839, "pitch": 44, "duration": 17, "velocity": 83}, {"time": 2839, "pitch": 59, "duration": 5, "velocity": 83}, {"time": 2839, "pitch": 63, "duration": 5, "velocity": 84}, {"time": 2839, "pitch": 68, "duration": 5, "velocity": 83}, {"time": 2845, "pitch": 56, "duration": 8, "velocity": 60}, {"time": 2851, "pitch": 63, "duration": 7, "velocity": 83}, {"time": 2851, "pitch": 66, "duration": 6, "velocity": 84}, {"time": 2851, "pitch": 71, "duration": 9, "velocity": 93}, {"time": 2857, "pitch": 56, "duration": 5, "velocity": 79}, {"time": 2863, "pitch": 49, "duration": 18, "velocity": 86}, {"time": 2863, "pitch": 61, "duration": 6, "velocity": 78}, {"time": 2863, "pitch": 65, "duration": 6, "velocity": 74}, {"time": 2863, "pitch": 68, "duration": 6, "velocity": 72}, {"time": 2863, "pitch": 71, "duration": 5, "velocity": 27}, {"time": 2869, "pitch": 56, "duration": 7, "velocity": 73}, {"time": 2875, "pitch": 61, "duration": 6, "velocity": 75}, {"time": 2875, "pitch": 65, "duration": 5, "velocity": 78}, {"time": 2875, "pitch": 68, "duration": 4, "velocity": 78}, {"time": 2875, "pitch": 73, "duration": 3, "velocity": 86}, {"time": 2881, "pitch": 56, "duration": 1, "velocity": 76}, {"time": 2881, "pitch": 71, "duration": 3, "velocity": 75}, {"time": 2887, "pitch": 54, "duration": 16, "velocity": 73}, {"time": 2887, "pitch": 61, "duration": 10, "velocity": 82}, {"time": 2887, "pitch": 66, "duration": 10, "velocity": 81}, {"time": 2887, "pitch": 70, "duration": 9, "velocity": 86}, {"time": 2899, "pitch": 61, "duration": 7, "velocity": 83}, {"time": 2899, "pitch": 66, "duration": 5, "velocity": 86}, {"time": 2899, "pitch": 70, "duration": 5, "velocity": 83}, {"time": 2905, "pitch": 54, "duration": 2, "velocity": 80}, {"time": 2905, "pitch": 68, "duration": 2, "velocity": 82}, {"time": 2911, "pitch": 51, "duration": 20, "velocity": 82}, {"time": 2911, "pitch": 61, "duration": 6, "velocity": 82}, {"time": 2911, "pitch": 66, "duration": 6, "velocity": 84}, {"time": 2911, "pitch": 70, "duration": 7, "velocity": 84}, {"time": 2917, "pitch": 58, "duration": 6, "velocity": 72}, {"time": 2920, "pitch": 63, "duration": 5, "velocity": 75}, {"time": 2923, "pitch": 65, "duration": 3, "velocity": 86}, {"time": 2926, "pitch": 66, "duration": 4, "velocity": 82}, {"time": 2929, "pitch": 58, "duration": 1, "velocity": 84}, {"time": 2929, "pitch": 65, "duration": 3, "velocity": 73}, {"time": 2932, "pitch": 61, "duration": 2, "velocity": 90}, {"time": 2935, "pitch": 47, "duration": 9, "velocity": 86}, {"time": 2935, "pitch": 63, "duration": 4, "velocity": 86}, {"time": 2935, "pitch": 66, "duration": 5, "velocity": 84}, {"time": 2941, "pitch": 54, "duration": 5, "velocity": 73}, {"time": 2947, "pitch": 49, "duration": 7, "velocity": 91}, {"time": 2947, "pitch": 61, "duration": 7, "velocity": 84}, {"time": 2947, "pitch": 65, "duration": 7, "velocity": 83}, {"time": 2947, "pitch": 68, "duration": 7, "velocity": 62}, {"time": 2947, "pitch": 71, "duration": 7, "velocity": 84}, {"time": 2953, "pitch": 56, "duration": 2, "velocity": 82}, {"time": 2959, "pitch": 54, "duration": 18, "velocity": 84}, {"time": 2959, "pitch": 61, "duration": 5, "velocity": 83}, {"time": 2959, "pitch": 66, "duration": 6, "velocity": 84}, {"time": 2959, "pitch": 70, "duration": 5, "velocity": 90}, {"time": 2965, "pitch": 61, "duration": 3, "velocity": 71}, {"time": 2971, "pitch": 61, "duration": 5, "velocity": 90}, {"time": 2971, "pitch": 66, "duration": 4, "velocity": 78}, {"time": 2971, "pitch": 73, "duration": 4, "velocity": 96}, {"time": 2977, "pitch": 70, "duration": 5, "velocity": 91}, {"time": 2983, "pitch": 54, "duration": 2, "velocity": 59}, {"time": 2983, "pitch": 56, "duration": 8, "velocity": 60}, {"time": 2983, "pitch": 63, "duration": 8, "velocity": 90}, {"time": 2983, "pitch": 66, "duration": 8, "velocity": 83}, {"time": 2983, "pitch": 71, "duration": 9, "velocity": 86}, {"time": 2995, "pitch": 49, "duration": 7, "velocity": 82}, {"time": 2995, "pitch": 61, "duration": 7, "velocity": 83}, {"time": 2995, "pitch": 65, "duration": 7, "velocity": 84}, {"time": 2995, "pitch": 68, "duration": 7, "velocity": 86}, {"time": 3007, "pitch": 51, "duration": 19, "velocity": 86}, {"time": 3007, "pitch": 63, "duration": 6, "velocity": 83}, {"time": 3007, "pitch": 66, "duration": 6, "velocity": 84}, {"time": 3007, "pitch": 70, "duration": 5, "velocity": 90}, {"time": 3013, "pitch": 58, "duration": 6, "velocity": 76}, {"time": 3016, "pitch": 63, "duration": 4, "velocity": 76}, {"time": 3019, "pitch": 65, "duration": 3, "velocity": 83}, {"time": 3022, "pitch": 58, "duration": 2, "velocity": 75}, {"time": 3022, "pitch": 61, "duration": 3, "velocity": 83}, {"time": 3022, "pitch": 66, "duration": 4, "velocity": 83}, {"time": 3025, "pitch": 58, "duration": 1, "velocity": 78}, {"time": 3028, "pitch": 68, "duration": 2, "velocity": 81}, {"time": 3031, "pitch": 44, "duration": 22, "velocity": 80}, {"time": 3031, "pitch": 56, "duration": 16, "velocity": 67}, {"time": 3031, "pitch": 59, "duration": 10, "velocity": 80}, {"time": 3031, "pitch": 63, "duration": 10, "velocity": 82}, {"time": 3031, "pitch": 68, "duration": 10, "velocity": 81}, {"time": 3043, "pitch": 59, "duration": 9, "velocity": 84}, {"time": 3043, "pitch": 63, "duration": 11, "velocity": 84}, {"time": 3043, "pitch": 68, "duration": 10, "velocity": 84}, {"time": 3049, "pitch": 56, "duration": 7, "velocity": 43}, {"time": 3055, "pitch": 49, "duration": 15, "velocity": 86}, {"time": 3055, "pitch": 61, "duration": 10, "velocity": 84}, {"time": 3055, "pitch": 65, "duration": 9, "velocity": 83}, {"time": 3055, "pitch": 68, "duration": 9, "velocity": 82}, {"time": 3067, "pitch": 61, "duration": 7, "velocity": 83}, {"time": 3067, "pitch": 65, "duration": 6, "velocity": 78}, {"time": 3067, "pitch": 68, "duration": 6, "velocity": 79}, {"time": 3073, "pitch": 49, "duration": 1, "velocity": 79}, {"time": 3079, "pitch": 47, "duration": 16, "velocity": 75}, {"time": 3079, "pitch": 63, "duration": 12, "velocity": 79}, {"time": 3079, "pitch": 66, "duration": 12, "velocity": 83}, {"time": 3079, "pitch": 71, "duration": 13, "velocity": 86}, {"time": 3091, "pitch": 59, "duration": 3, "velocity": 79}, {"time": 3094, "pitch": 63, "duration": 2, "velocity": 79}, {"time": 3097, "pitch": 66, "duration": 3, "velocity": 78}, {"time": 3100, "pitch": 61, "duration": 20, "velocity": 56}, {"time": 3100, "pitch": 65, "duration": 20, "velocity": 72}, {"time": 3100, "pitch": 68, "duration": 21, "velocity": 76}, {"time": 3103, "pitch": 49, "duration": 16, "velocity": 80}, {"time": 3103, "pitch": 56, "duration": 17, "velocity": 78}, {"time": 3127, "pitch": 39, "duration": 2, "velocity": 84}, {"time": 3127, "pitch": 63, "duration": 14, "velocity": 68}, {"time": 3127, "pitch": 66, "duration": 11, "velocity": 78}, {"time": 3127, "pitch": 70, "duration": 11, "velocity": 81}, {"time": 3130, "pitch": 51, "duration": 3, "velocity": 55}, {"time": 3133, "pitch": 53, "duration": 14, "velocity": 72}, {"time": 3136, "pitch": 54, "duration": 12, "velocity": 79}, {"time": 3139, "pitch": 58, "duration": 5, "velocity": 78}, {"time": 3142, "pitch": 65, "duration": 2, "velocity": 82}, {"time": 3145, "pitch": 66, "duration": 2, "velocity": 80}, {"time": 3148, "pitch": 63, "duration": 5, "velocity": 83}, {"time": 3148, "pitch": 68, "duration": 5, "velocity": 80}, {"time": 3151, "pitch": 51, "duration": 19, "velocity": 80}, {"time": 3154, "pitch": 63, "duration": 2, "velocity": 84}, {"time": 3154, "pitch": 70, "duration": 2, "velocity": 98}, {"time": 3157, "pitch": 58, "duration": 5, "velocity": 75}, {"time": 3160, "pitch": 63, "duration": 2, "velocity": 76}, {"time": 3160, "pitch": 66, "duration": 2, "velocity": 78}, {"time": 3163, "pitch": 63, "duration": 3, "velocity": 82}, {"time": 3163, "pitch": 66, "duration": 3, "velocity": 84}, {"time": 3166, "pitch": 58, "duration": 4, "velocity": 82}, {"time": 3169, "pitch": 61, "duration": 3, "velocity": 83}, {"time": 3169, "pitch": 65, "duration": 3, "velocity": 82}, {"time": 3172, "pitch": 66, "duration": 2, "velocity": 82}, {"time": 3175, "pitch": 47, "duration": 9, "velocity": 84}, {"time": 3175, "pitch": 61, "duration": 7, "velocity": 79}, {"time": 3175, "pitch": 63, "duration": 7, "velocity": 79}, {"time": 3175, "pitch": 66, "duration": 7, "velocity": 83}, {"time": 3181, "pitch": 54, "duration": 5, "velocity": 79}, {"time": 3187, "pitch": 49, "duration": 7, "velocity": 83}, {"time": 3187, "pitch": 61, "duration": 7, "velocity": 83}, {"time": 3187, "pitch": 65, "duration": 7, "velocity": 84}, {"time": 3187, "pitch": 68, "duration": 7, "velocity": 82}, {"time": 3193, "pitch": 56, "duration": 2, "velocity": 83}, {"time": 3196, "pitch": 61, "duration": 1, "velocity": 46}, {"time": 3199, "pitch": 42, "duration": 19, "velocity": 90}, {"time": 3199, "pitch": 61, "duration": 6, "velocity": 80}, {"time": 3199, "pitch": 66, "duration": 6, "velocity": 80}, {"time": 3199, "pitch": 70, "duration": 6, "velocity": 84}, {"time": 3205, "pitch": 54, "duration": 4, "velocity": 69}, {"time": 3208, "pitch": 61, "duration": 3, "velocity": 78}, {"time": 3208, "pitch": 66, "duration": 2, "velocity": 72}, {"time": 3208, "pitch": 73, "duration": 3, "velocity": 83}, {"time": 3211, "pitch": 54, "duration": 4, "velocity": 54}, {"time": 3214, "pitch": 61, "duration": 4, "velocity": 82}, {"time": 3214, "pitch": 66, "duration": 1, "velocity": 46}, {"time": 3214, "pitch": 70, "duration": 4, "velocity": 94}, {"time": 3217, "pitch": 54, "duration": 2, "velocity": 60}, {"time": 3223, "pitch": 47, "duration": 6, "velocity": 84}, {"time": 3223, "pitch": 63, "duration": 6, "velocity": 75}, {"time": 3223, "pitch": 66, "duration": 6, "velocity": 78}, {"time": 3223, "pitch": 71, "duration": 6, "velocity": 81}, {"time": 3229, "pitch": 59, "duration": 1, "velocity": 53}, {"time": 3235, "pitch": 49, "duration": 7, "velocity": 81}, {"time": 3235, "pitch": 56, "duration": 7, "velocity": 73}, {"time": 3235, "pitch": 61, "duration": 5, "velocity": 79}, {"time": 3235, "pitch": 65, "duration": 5, "velocity": 82}, {"time": 3235, "pitch": 68, "duration": 6, "velocity": 78}, {"time": 3241, "pitch": 61, "duration": 3, "velocity": 79}, {"time": 3247, "pitch": 51, "duration": 18, "velocity": 79}, {"time": 3247, "pitch": 63, "duration": 6, "velocity": 84}, {"time": 3247, "pitch": 66, "duration": 6, "velocity": 81}, {"time": 3247, "pitch": 70, "duration": 4, "velocity": 86}, {"time": 3253, "pitch": 58, "duration": 5, "velocity": 75}, {"time": 3256, "pitch": 63, "duration": 4, "velocity": 71}, {"time": 3259, "pitch": 65, "duration": 3, "velocity": 82}, {"time": 3262, "pitch": 58, "duration": 2, "velocity": 80}, {"time": 3265, "pitch": 58, "duration": 2, "velocity": 80}, {"time": 3265, "pitch": 66, "duration": 3, "velocity": 86}, {"time": 3268, "pitch": 65, "duration": 2, "velocity": 78}, {"time": 3271, "pitch": 44, "duration": 5, "velocity": 79}, {"time": 3271, "pitch": 63, "duration": 3, "velocity": 40}, {"time": 3271, "pitch": 71, "duration": 12, "velocity": 90}, {"time": 3274, "pitch": 51, "duration": 3, "velocity": 77}, {"time": 3277, "pitch": 56, "duration": 4, "velocity": 62}, {"time": 3280, "pitch": 58, "duration": 8, "velocity": 76}, {"time": 3283, "pitch": 59, "duration": 5, "velocity": 80}, {"time": 3286, "pitch": 63, "duration": 2, "velocity": 76}, {"time": 3289, "pitch": 66, "duration": 3, "velocity": 76}, {"time": 3292, "pitch": 71, "duration": 8, "velocity": 84}, {"time": 3295, "pitch": 49, "duration": 18, "velocity": 80}, {"time": 3295, "pitch": 61, "duration": 4, "velocity": 72}, {"time": 3295, "pitch": 65, "duration": 5, "velocity": 75}, {"time": 3295, "pitch": 68, "duration": 7, "velocity": 73}, {"time": 3298, "pitch": 56, "duration": 8, "velocity": 72}, {"time": 3301, "pitch": 61, "duration": 7, "velocity": 69}, {"time": 3304, "pitch": 63, "duration": 7, "velocity": 69}, {"time": 3307, "pitch": 65, "duration": 4, "velocity": 75}, {"time": 3310, "pitch": 56, "duration": 3, "velocity": 76}, {"time": 3313, "pitch": 66, "duration": 2, "velocity": 74}, {"time": 3319, "pitch": 42, "duration": 15, "velocity": 83}, {"time": 3319, "pitch": 61, "duration": 7, "velocity": 80}, {"time": 3319, "pitch": 66, "duration": 7, "velocity": 82}, {"time": 3319, "pitch": 70, "duration": 5, "velocity": 90}, {"time": 3325, "pitch": 49, "duration": 9, "velocity": 75}, {"time": 3328, "pitch": 54, "duration": 11, "velocity": 60}, {"time": 3331, "pitch": 61, "duration": 2, "velocity": 77}, {"time": 3334, "pitch": 61, "duration": 1, "velocity": 34}, {"time": 3334, "pitch": 66, "duration": 3, "velocity": 78}, {"time": 3337, "pitch": 53, "duration": 1, "velocity": 75}, {"time": 3337, "pitch": 61, "duration": 2, "velocity": 69}, {"time": 3337, "pitch": 68, "duration": 3, "velocity": 78}, {"time": 3340, "pitch": 61, "duration": 1, "velocity": 73}, {"time": 3343, "pitch": 51, "duration": 20, "velocity": 83}, {"time": 3343, "pitch": 61, "duration": 2, "velocity": 80}, {"time": 3343, "pitch": 66, "duration": 6, "velocity": 82}, {"time": 3343, "pitch": 70, "duration": 5, "velocity": 84}, {"time": 3346, "pitch": 58, "duration": 5, "velocity": 73}, {"time": 3349, "pitch": 63, "duration": 3, "velocity": 73}, {"time": 3352, "pitch": 65, "duration": 1, "velocity": 62}, {"time": 3352, "pitch": 68, "duration": 2, "velocity": 73}, {"time": 3355, "pitch": 65, "duration": 3, "velocity": 83}, {"time": 3355, "pitch": 68, "duration": 4, "velocity": 76}, {"time": 3358, "pitch": 58, "duration": 2, "velocity": 79}, {"time": 3361, "pitch": 58, "duration": 1, "velocity": 82}, {"time": 3361, "pitch": 61, "duration": 3, "velocity": 83}, {"time": 3361, "pitch": 66, "duration": 3, "velocity": 76}, {"time": 3361, "pitch": 70, "duration": 2, "velocity": 84}, {"time": 3364, "pitch": 68, "duration": 2, "velocity": 76}, {"time": 3367, "pitch": 47, "duration": 9, "velocity": 83}, {"time": 3367, "pitch": 63, "duration": 4, "velocity": 84}, {"time": 3367, "pitch": 66, "duration": 4, "velocity": 86}, {"time": 3367, "pitch": 71, "duration": 4, "velocity": 95}, {"time": 3373, "pitch": 54, "duration": 6, "velocity": 71}, {"time": 3376, "pitch": 59, "duration": 2, "velocity": 72}, {"time": 3379, "pitch": 49, "duration": 7, "velocity": 83}, {"time": 3379, "pitch": 75, "duration": 2, "velocity": 78}, {"time": 3379, "pitch": 87, "duration": 2, "velocity": 86}, {"time": 3382, "pitch": 56, "duration": 4, "velocity": 73}, {"time": 3385, "pitch": 61, "duration": 4, "velocity": 71}, {"time": 3385, "pitch": 77, "duration": 1, "velocity": 84}, {"time": 3385, "pitch": 89, "duration": 1, "velocity": 94}, {"time": 3391, "pitch": 54, "duration": 19, "velocity": 79}, {"time": 3391, "pitch": 78, "duration": 5, "velocity": 76}, {"time": 3391, "pitch": 90, "duration": 3, "velocity": 84}, {"time": 3394, "pitch": 61, "duration": 11, "velocity": 72}, {"time": 3397, "pitch": 66, "duration": 9, "velocity": 69}, {"time": 3400, "pitch": 70, "duration": 5, "velocity": 80}, {"time": 3406, "pitch": 78, "duration": 2, "velocity": 76}, {"time": 3409, "pitch": 61, "duration": 1, "velocity": 82}, {"time": 3409, "pitch": 73, "duration": 3, "velocity": 83}, {"time": 3415, "pitch": 44, "duration": 7, "velocity": 83}, {"time": 3415, "pitch": 66, "duration": 4, "velocity": 80}, {"time": 3415, "pitch": 75, "duration": 3, "velocity": 79}, {"time": 3418, "pitch": 51, "duration": 4, "velocity": 80}, {"time": 3421, "pitch": 56, "duration": 5, "velocity": 73}, {"time": 3424, "pitch": 61, "duration": 1, "velocity": 57}, {"time": 3427, "pitch": 49, "duration": 7, "velocity": 84}, {"time": 3427, "pitch": 61, "duration": 4, "velocity": 83}, {"time": 3427, "pitch": 65, "duration": 4, "velocity": 79}, {"time": 3427, "pitch": 68, "duration": 4, "velocity": 83}, {"time": 3430, "pitch": 56, "duration": 4, "velocity": 71}, {"time": 3433, "pitch": 61, "duration": 4, "velocity": 72}, {"time": 3436, "pitch": 71, "duration": 2, "velocity": 86}, {"time": 3439, "pitch": 51, "duration": 19, "velocity": 81}, {"time": 3439, "pitch": 63, "duration": 3, "velocity": 76}, {"time": 3439, "pitch": 66, "duration": 5, "velocity": 80}, {"time": 3439, "pitch": 70, "duration": 5, "velocity": 83}, {"time": 3442, "pitch": 58, "duration": 6, "velocity": 69}, {"time": 3445, "pitch": 63, "duration": 3, "velocity": 63}, {"time": 3448, "pitch": 66, "duration": 1, "velocity": 71}, {"time": 3451, "pitch": 66, "duration": 4, "velocity": 82}, {"time": 3454, "pitch": 58, "duration": 3, "velocity": 78}, {"time": 3454, "pitch": 61, "duration": 4, "velocity": 79}, {"time": 3454, "pitch": 68, "duration": 4, "velocity": 81}, {"time": 3460, "pitch": 70, "duration": 2, "velocity": 86}, {"time": 3463, "pitch": 44, "duration": 18, "velocity": 79}, {"time": 3463, "pitch": 56, "duration": 16, "velocity": 73}, {"time": 3463, "pitch": 63, "duration": 9, "velocity": 80}, {"time": 3463, "pitch": 68, "duration": 9, "velocity": 82}, {"time": 3463, "pitch": 71, "duration": 9, "velocity": 86}, {"time": 3475, "pitch": 63, "duration": 6, "velocity": 80}, {"time": 3475, "pitch": 68, "duration": 5, "velocity": 79}, {"time": 3475, "pitch": 71, "duration": 6, "velocity": 86}, {"time": 3481, "pitch": 56, "duration": 4, "velocity": 69}, {"time": 3487, "pitch": 49, "duration": 19, "velocity": 81}, {"time": 3487, "pitch": 61, "duration": 7, "velocity": 76}, {"time": 3487, "pitch": 65, "duration": 6, "velocity": 73}, {"time": 3487, "pitch": 68, "duration": 6, "velocity": 80}, {"time": 3493, "pitch": 56, "duration": 9, "velocity": 50}, {"time": 3499, "pitch": 61, "duration": 7, "velocity": 75}, {"time": 3499, "pitch": 65, "duration": 6, "velocity": 81}, {"time": 3499, "pitch": 68, "duration": 7, "velocity": 73}, {"time": 3505, "pitch": 56, "duration": 1, "velocity": 67}, {"time": 3511, "pitch": 47, "duration": 13, "velocity": 78}, {"time": 3511, "pitch": 54, "duration": 13, "velocity": 76}, {"time": 3511, "pitch": 59, "duration": 11, "velocity": 72}, {"time": 3511, "pitch": 61, "duration": 9, "velocity": 74}, {"time": 3511, "pitch": 63, "duration": 9, "velocity": 78}, {"time": 3511, "pitch": 66, "duration": 9, "velocity": 78}, {"time": 3511, "pitch": 71, "duration": 9, "velocity": 80}, {"time": 3523, "pitch": 61, "duration": 2, "velocity": 81}, {"time": 3523, "pitch": 63, "duration": 2, "velocity": 78}, {"time": 3523, "pitch": 66, "duration": 3, "velocity": 80}, {"time": 3529, "pitch": 37, "duration": 30, "velocity": 80}, {"time": 3529, "pitch": 49, "duration": 29, "velocity": 70}, {"time": 3529, "pitch": 61, "duration": 14, "velocity": 80}, {"time": 3529, "pitch": 65, "duration": 14, "velocity": 90}, {"time": 3529, "pitch": 68, "duration": 15, "velocity": 78}, {"time": 3550, "pitch": 73, "duration": 4, "velocity": 58}, {"time": 3551, "pitch": 77, "duration": 5, "velocity": 75}, {"time": 3553, "pitch": 80, "duration": 4, "velocity": 61}, {"time": 3553, "pitch": 85, "duration": 5, "velocity": 50}, {"time": 3592, "pitch": 63, "duration": 5, "velocity": 30}, {"time": 3592, "pitch": 66, "duration": 6, "velocity": 67}, {"time": 3592, "pitch": 51, "duration": 20, "velocity": 72}, {"time": 3593, "pitch": 70, "duration": 6, "velocity": 79}, {"time": 3598, "pitch": 58, "duration": 8, "velocity": 61}, {"time": 3604, "pitch": 63, "duration": 6, "velocity": 38}, {"time": 3605, "pitch": 66, "duration": 7, "velocity": 73}, {"time": 3605, "pitch": 70, "duration": 7, "velocity": 77}, {"time": 3611, "pitch": 58, "duration": 5, "velocity": 75}, {"time": 3618, "pitch": 63, "duration": 7, "velocity": 53}, {"time": 3618, "pitch": 66, "duration": 6, "velocity": 59}, {"time": 3618, "pitch": 70, "duration": 7, "velocity": 61}, {"time": 3618, "pitch": 49, "duration": 17, "velocity": 69}, {"time": 3624, "pitch": 58, "duration": 6, "velocity": 59}, {"time": 3629, "pitch": 61, "duration": 5, "velocity": 56}, {"time": 3630, "pitch": 70, "duration": 5, "velocity": 76}, {"time": 3630, "pitch": 66, "duration": 5, "velocity": 75}, {"time": 3635, "pitch": 58, "duration": 1, "velocity": 72}, {"time": 3640, "pitch": 70, "duration": 6, "velocity": 73}, {"time": 3640, "pitch": 63, "duration": 6, "velocity": 56}, {"time": 3640, "pitch": 66, "duration": 6, "velocity": 56}, {"time": 3641, "pitch": 47, "duration": 20, "velocity": 79}, {"time": 3647, "pitch": 54, "duration": 6, "velocity": 57}, {"time": 3653, "pitch": 63, "duration": 9, "velocity": 56}, {"time": 3653, "pitch": 70, "duration": 8, "velocity": 63}, {"time": 3653, "pitch": 59, "duration": 7, "velocity": 42}, {"time": 3653, "pitch": 66, "duration": 9, "velocity": 54}, {"time": 3661, "pitch": 54, "duration": 1, "velocity": 79}, {"time": 3668, "pitch": 65, "duration": 5, "velocity": 75}, {"time": 3668, "pitch": 68, "duration": 5, "velocity": 70}, {"time": 3668, "pitch": 46, "duration": 17, "velocity": 78}, {"time": 3668, "pitch": 61, "duration": 5, "velocity": 63}, {"time": 3673, "pitch": 58, "duration": 8, "velocity": 53}, {"time": 3679, "pitch": 65, "duration": 5, "velocity": 70}, {"time": 3679, "pitch": 61, "duration": 6, "velocity": 68}, {"time": 3679, "pitch": 73, "duration": 8, "velocity": 80}, {"time": 3693, "pitch": 63, "duration": 16, "velocity": 62}, {"time": 3693, "pitch": 66, "duration": 16, "velocity": 79}, {"time": 3693, "pitch": 39, "duration": 28, "velocity": 84}, {"time": 3694, "pitch": 70, "duration": 16, "velocity": 73}, {"time": 3694, "pitch": 73, "duration": 16, "velocity": 18}, {"time": 3715, "pitch": 75, "duration": 3, "velocity": 43}, {"time": 3716, "pitch": 78, "duration": 2, "velocity": 30}, {"time": 3717, "pitch": 82, "duration": 2, "velocity": 55}, {"time": 3718, "pitch": 87, "duration": 2, "velocity": 58}], "annotations": [{"time": 56, "annotation": {"number": 64, "value": 127}, "group": "control_change"}, {"time": 104, "annotation": {"number": 64, "value": 0}, "group": "control_change"}, {"time": 107, "annotation": {"number": 64, "value": 127}, "group": "control_change"}, {"time": 152, "annotation": {"number": 64, "value": 0}, "group": "control_change"}, {"time": 155, "annotation": {"number": 64, "value": 127}, "group": "control_change"}, {"time": 198, "annotation": {"number": 64, "value": 0}, "group": "control_change"}, {"time": 200, "annotation": {"number": 64, "value": 127}, "group": "control_change"}, {"time": 246, "annotation": {"number": 64, "value": 0}, "group": "control_change"}, {"time": 248, "annotation": {"number": 64, "value": 127}, "group": "control_change"}, {"time": 296, "annotation": {"number": 64, "value": 0}, "group": "control_change"}, {"time": 298, "annotation": {"number": 64, "value": 127}, "group": "control_change"}, {"time": 343, "annotation": {"number": 64, "value": 0}, "group": "control_change"}, {"time": 344, "annotation": {"number": 64, "value": 127}, "group": "control_change"}, {"time": 344, "annotation": {"number": 64, "value": 0}, "group": "control_change"}, {"time": 345, "annotation": {"number": 64, "value": 127}, "group": "control_change"}, {"time": 367, "annotation": {"number": 64, "value": 0}, "group": "control_change"}, {"time": 368, "annotation": {"number": 64, "value": 127}, "group": "control_change"}, {"time": 391, "annotation": {"number": 64, "value": 0}, "group": "control_change"}, {"time": 392, "annotation": {"number": 64, "value": 127}, "group": "control_change"}, {"time": 392, "annotation": {"number": 64, "value": 0}, "group": "control_change"}, {"time": 439, "annotation": {"number": 64, "value": 0}, "group": "control_change"}, {"time": 440, "annotation": {"number": 64, "value": 127}, "group": "control_change"}, {"time": 464, "annotation": {"number": 64, "value": 0}, "group": "control_change"}, {"time": 467, "annotation": {"number": 64, "value": 127}, "group": "control_change"}, {"time": 486, "annotation": {"number": 64, "value": 0}, "group": "control_change"}, {"time": 490, "annotation": {"number": 64, "value": 127}, "group": "control_change"}, {"time": 512, "annotation": {"number": 64, "value": 0}, "group": "control_change"}, {"time": 515, "annotation": {"number": 64, "value": 127}, "group": "control_change"}, {"time": 535, "annotation": {"number": 64, "value": 0}, "group": "control_change"}, {"time": 538, "annotation": {"number": 64, "value": 127}, "group": "control_change"}, {"time": 558, "annotation": {"number": 64, "value": 0}, "group": "control_change"}, {"time": 561, "annotation": {"number": 64, "value": 127}, "group": "control_change"}, {"time": 583, "annotation": {"number": 64, "value": 0}, "group": "control_change"}, {"time": 586, "annotation": {"number": 64, "value": 127}, "group": "control_change"}, {"time": 607, "annotation": {"number": 64, "value": 0}, "group": "control_change"}, {"time": 609, "annotation": {"number": 64, "value": 127}, "group": "control_change"}, {"time": 632, "annotation": {"number": 64, "value": 0}, "group": "control_change"}, {"time": 634, "annotation": {"number": 64, "value": 127}, "group": "control_change"}, {"time": 654, "annotation": {"number": 64, "value": 0}, "group": "control_change"}, {"time": 656, "annotation": {"number": 64, "value": 127}, "group": "control_change"}, {"time": 679, "annotation": {"number": 64, "value": 0}, "group": "control_change"}, {"time": 679, "annotation": {"number": 64, "value": 127}, "group": "control_change"}, {"time": 704, "annotation": {"number": 64, "value": 0}, "group": "control_change"}, {"time": 706, "annotation": {"number": 64, "value": 127}, "group": "control_change"}, {"time": 728, "annotation": {"number": 64, "value": 0}, "group": "control_change"}, {"time": 730, "annotation": {"number": 64, "value": 127}, "group": "control_change"}, {"time": 751, "annotation": {"number": 64, "value": 0}, "group": "control_change"}, {"time": 754, "annotation": {"number": 64, "value": 127}, "group": "control_change"}, {"time": 774, "annotation": {"number": 64, "value": 0}, "group": "control_change"}, {"time": 776, "annotation": {"number": 64, "value": 127}, "group": "control_change"}, {"time": 822, "annotation": {"number": 64, "value": 0}, "group": "control_change"}, {"time": 824, "annotation": {"number": 64, "value": 127}, "group": "control_change"}, {"time": 847, "annotation": {"number": 64, "value": 0}, "group": "control_change"}, {"time": 850, "annotation": {"number": 64, "value": 127}, "group": "control_change"}, {"time": 872, "annotation": {"number": 64, "value": 0}, "group": "control_change"}, {"time": 874, "annotation": {"number": 64, "value": 127}, "group": "control_change"}, {"time": 895, "annotation": {"number": 64, "value": 0}, "group": "control_change"}, {"time": 897, "annotation": {"number": 64, "value": 127}, "group": "control_change"}, {"time": 919, "annotation": {"number": 64, "value": 0}, "group": "control_change"}, {"time": 922, "annotation": {"number": 64, "value": 127}, "group": "control_change"}, {"time": 944, "annotation": {"number": 64, "value": 0}, "group": "control_change"}, {"time": 946, "annotation": {"number": 64, "value": 127}, "group": "control_change"}, {"time": 968, "annotation": {"number": 64, "value": 0}, "group": "control_change"}, {"time": 970, "annotation": {"number": 64, "value": 127}, "group": "control_change"}, {"time": 991, "annotation": {"number": 64, "value": 0}, "group": "control_change"}, {"time": 993, "annotation": {"number": 64, "value": 127}, "group": "control_change"}, {"time": 1015, "annotation": {"number": 64, "value": 0}, "group": "control_change"}, {"time": 1017, "annotation": {"number": 64, "value": 127}, "group": "control_change"}, {"time": 1039, "annotation": {"number": 64, "value": 0}, "group": "control_change"}, {"time": 1040, "annotation": {"number": 64, "value": 127}, "group": "control_change"}, {"time": 1065, "annotation": {"number": 64, "value": 0}, "group": "control_change"}, {"time": 1067, "annotation": {"number": 64, "value": 127}, "group": "control_change"}, {"time": 1087, "annotation": {"number": 64, "value": 0}, "group": "control_change"}, {"time": 1090, "annotation": {"number": 64, "value": 127}, "group": "control_change"}, {"time": 1111, "annotation": {"number": 64, "value": 0}, "group": "control_change"}, {"time": 1113, "annotation": {"number": 64, "value": 127}, "group": "control_change"}, {"time": 1135, "annotation": {"number": 64, "value": 0}, "group": "control_change"}, {"time": 1137, "annotation": {"number": 64, "value": 127}, "group": "control_change"}, {"time": 1158, "annotation": {"number": 64, "value": 0}, "group": "control_change"}, {"time": 1160, "annotation": {"number": 64, "value": 127}, "group": "control_change"}, {"time": 1206, "annotation": {"number": 64, "value": 0}, "group": "control_change"}, {"time": 1208, "annotation": {"number": 64, "value": 127}, "group": "control_change"}, {"time": 1225, "annotation": {"number": 64, "value": 0}, "group": "control_change"}, {"time": 1227, "annotation": {"number": 64, "value": 127}, "group": "control_change"}, {"time": 1232, "annotation": {"number": 64, "value": 0}, "group": "control_change"}, {"time": 1235, "annotation": {"number": 64, "value": 127}, "group": "control_change"}, {"time": 1256, "annotation": {"number": 64, "value": 0}, "group": "control_change"}, {"time": 1258, "annotation": {"number": 64, "value": 127}, "group": "control_change"}, {"time": 1267, "annotation": {"number": 64, "value": 0}, "group": "control_change"}, {"time": 1270, "annotation": {"number": 64, "value": 127}, "group": "control_change"}, {"time": 1279, "annotation": {"number": 64, "value": 0}, "group": "control_change"}, {"time": 1282, "annotation": {"number": 64, "value": 127}, "group": "control_change"}, {"time": 1303, "annotation": {"number": 64, "value": 0}, "group": "control_change"}, {"time": 1303, "annotation": {"number": 64, "value": 127}, "group": "control_change"}, {"time": 1326, "annotation": {"number": 64, "value": 0}, "group": "control_change"}, {"time": 1329, "annotation": {"number": 64, "value": 127}, "group": "control_change"}, {"time": 1350, "annotation": {"number": 64, "value": 0}, "group": "control_change"}, {"time": 1352, "annotation": {"number": 64, "value": 127}, "group": "control_change"}, {"time": 1375, "annotation": {"number": 64, "value": 0}, "group": "control_change"}, {"time": 1378, "annotation": {"number": 64, "value": 127}, "group": "control_change"}, {"time": 1398, "annotation": {"number": 64, "value": 0}, "group": "control_change"}, {"time": 1400, "annotation": {"number": 64, "value": 127}, "group": "control_change"}, {"time": 1412, "annotation": {"number": 64, "value": 0}, "group": "control_change"}, {"time": 1412, "annotation": {"number": 64, "value": 127}, "group": "control_change"}, {"time": 1414, "annotation": {"number": 64, "value": 127}, "group": "control_change"}, {"time": 1422, "annotation": {"number": 64, "value": 0}, "group": "control_change"}, {"time": 1425, "annotation": {"number": 64, "value": 127}, "group": "control_change"}, {"time": 1447, "annotation": {"number": 64, "value": 0}, "group": "control_change"}, {"time": 1450, "annotation": {"number": 64, "value": 127}, "group": "control_change"}, {"time": 1459, "annotation": {"number": 64, "value": 0}, "group": "control_change"}, {"time": 1462, "annotation": {"number": 64, "value": 127}, "group": "control_change"}, {"time": 1471, "annotation": {"number": 64, "value": 0}, "group": "control_change"}, {"time": 1474, "annotation": {"number": 64, "value": 127}, "group": "control_change"}, {"time": 1494, "annotation": {"number": 64, "value": 0}, "group": "control_change"}, {"time": 1495, "annotation": {"number": 64, "value": 127}, "group": "control_change"}, {"time": 1519, "annotation": {"number": 64, "value": 0}, "group": "control_change"}, {"time": 1523, "annotation": {"number": 64, "value": 127}, "group": "control_change"}, {"time": 1542, "annotation": {"number": 64, "value": 0}, "group": "control_change"}, {"time": 1546, "annotation": {"number": 64, "value": 127}, "group": "control_change"}, {"time": 1565, "annotation": {"number": 64, "value": 0}, "group": "control_change"}, {"time": 1568, "annotation": {"number": 64, "value": 127}, "group": "control_change"}, {"time": 1588, "annotation": {"number": 64, "value": 0}, "group": "control_change"}, {"time": 1589, "annotation": {"number": 64, "value": 127}, "group": "control_change"}, {"time": 1589, "annotation": {"number": 64, "value": 0}, "group": "control_change"}, {"time": 1592, "annotation": {"number": 64, "value": 127}, "group": "control_change"}, {"time": 1640, "annotation": {"number": 64, "value": 0}, "group": "control_change"}, {"time": 1643, "annotation": {"number": 64, "value": 127}, "group": "control_change"}, {"time": 1688, "annotation": {"number": 64, "value": 0}, "group": "control_change"}, {"time": 1691, "annotation": {"number": 64, "value": 127}, "group": "control_change"}, {"time": 1734, "annotation": {"number": 64, "value": 0}, "group": "control_change"}, {"time": 1736, "annotation": {"number": 64, "value": 127}, "group": "control_change"}, {"time": 1782, "annotation": {"number": 64, "value": 0}, "group": "control_change"}, {"time": 1784, "annotation": {"number": 64, "value": 127}, "group": "control_change"}, {"time": 1832, "annotation": {"number": 64, "value": 0}, "group": "control_change"}, {"time": 1834, "annotation": {"number": 64, "value": 127}, "group": "control_change"}, {"time": 1879, "annotation": {"number": 64, "value": 0}, "group": "control_change"}, {"time": 1880, "annotation": {"number": 64, "value": 127}, "group": "control_change"}, {"time": 1880, "annotation": {"number": 64, "value": 0}, "group": "control_change"}, {"time": 1881, "annotation": {"number": 64, "value": 127}, "group": "control_change"}, {"time": 1903, "annotation": {"number": 64, "value": 0}, "group": "control_change"}, {"time": 1904, "annotation": {"number": 64, "value": 127}, "group": "control_change"}, {"time": 1927, "annotation": {"number": 64, "value": 0}, "group": "control_change"}, {"time": 1928, "annotation": {"number": 64, "value": 127}, "group": "control_change"}, {"time": 1928, "annotation": {"number": 64, "value": 0}, "group": "control_change"}, {"time": 1975, "annotation": {"number": 64, "value": 0}, "group": "control_change"}, {"time": 1976, "annotation": {"number": 64, "value": 127}, "group": "control_change"}, {"time": 2000, "annotation": {"number": 64, "value": 0}, "group": "control_change"}, {"time": 2003, "annotation": {"number": 64, "value": 127}, "group": "control_change"}, {"time": 2022, "annotation": {"number": 64, "value": 0}, "group": "control_change"}, {"time": 2026, "annotation": {"number": 64, "value": 127}, "group": "control_change"}, {"time": 2048, "annotation": {"number": 64, "value": 0}, "group": "control_change"}, {"time": 2051, "annotation": {"number": 64, "value": 127}, "group": "control_change"}, {"time": 2071, "annotation": {"number": 64, "value": 0}, "group": "control_change"}, {"time": 2074, "annotation": {"number": 64, "value": 127}, "group": "control_change"}, {"time": 2094, "annotation": {"number": 64, "value": 0}, "group": "control_change"}, {"time": 2097, "annotation": {"number": 64, "value": 127}, "group": "control_change"}, {"time": 2119, "annotation": {"number": 64, "value": 0}, "group": "control_change"}, {"time": 2122, "annotation": {"number": 64, "value": 127}, "group": "control_change"}, {"time": 2143, "annotation": {"number": 64, "value": 0}, "group": "control_change"}, {"time": 2145, "annotation": {"number": 64, "value": 127}, "group": "control_change"}, {"time": 2168, "annotation": {"number": 64, "value": 0}, "group": "control_change"}, {"time": 2170, "annotation": {"number": 64, "value": 127}, "group": "control_change"}, {"time": 2190, "annotation": {"number": 64, "value": 0}, "group": "control_change"}, {"time": 2192, "annotation": {"number": 64, "value": 127}, "group": "control_change"}, {"time": 2215, "annotation": {"number": 64, "value": 0}, "group": "control_change"}, {"time": 2215, "annotation": {"number": 64, "value": 127}, "group": "control_change"}, {"time": 2240, "annotation": {"number": 64, "value": 0}, "group": "control_change"}, {"time": 2242, "annotation": {"number": 64, "value": 127}, "group": "control_change"}, {"time": 2264, "annotation": {"number": 64, "value": 0}, "group": "control_change"}, {"time": 2266, "annotation": {"number": 64, "value": 127}, "group": "control_change"}, {"time": 2287, "annotation": {"number": 64, "value": 0}, "group": "control_change"}, {"time": 2290, "annotation": {"number": 64, "value": 127}, "group": "control_change"}, {"time": 2310, "annotation": {"number": 64, "value": 0}, "group": "control_change"}, {"time": 2312, "annotation": {"number": 64, "value": 127}, "group": "control_change"}, {"time": 2358, "annotation": {"number": 64, "value": 0}, "group": "control_change"}, {"time": 2360, "annotation": {"number": 64, "value": 127}, "group": "control_change"}, {"time": 2383, "annotation": {"number": 64, "value": 0}, "group": "control_change"}, {"time": 2386, "annotation": {"number": 64, "value": 127}, "group": "control_change"}, {"time": 2408, "annotation": {"number": 64, "value": 0}, "group": "control_change"}, {"time": 2410, "annotation": {"number": 64, "value": 127}, "group": "control_change"}, {"time": 2431, "annotation": {"number": 64, "value": 0}, "group": "control_change"}, {"time": 2433, "annotation": {"number": 64, "value": 127}, "group": "control_change"}, {"time": 2455, "annotation": {"number": 64, "value": 0}, "group": "control_change"}, {"time": 2458, "annotation": {"number": 64, "value": 127}, "group": "control_change"}, {"time": 2480, "annotation": {"number": 64, "value": 0}, "group": "control_change"}, {"time": 2482, "annotation": {"number": 64, "value": 127}, "group": "control_change"}, {"time": 2504, "annotation": {"number": 64, "value": 0}, "group": "control_change"}, {"time": 2506, "annotation": {"number": 64, "value": 127}, "group": "control_change"}, {"time": 2527, "annotation": {"number": 64, "value": 0}, "group": "control_change"}, {"time": 2529, "annotation": {"number": 64, "value": 127}, "group": "control_change"}, {"time": 2551, "annotation": {"number": 64, "value": 0}, "group": "control_change"}, {"time": 2553, "annotation": {"number": 64, "value": 127}, "group": "control_change"}, {"time": 2575, "annotation": {"number": 64, "value": 0}, "group": "control_change"}, {"time": 2576, "annotation": {"number": 64, "value": 127}, "group": "control_change"}, {"time": 2601, "annotation": {"number": 64, "value": 0}, "group": "control_change"}, {"time": 2603, "annotation": {"number": 64, "value": 127}, "group": "control_change"}, {"time": 2623, "annotation": {"number": 64, "value": 0}, "group": "control_change"}, {"time": 2626, "annotation": {"number": 64, "value": 127}, "group": "control_change"}, {"time": 2647, "annotation": {"number": 64, "value": 0}, "group": "control_change"}, {"time": 2649, "annotation": {"number": 64, "value": 127}, "group": "control_change"}, {"time": 2671, "annotation": {"number": 64, "value": 0}, "group": "control_change"}, {"time": 2673, "annotation": {"number": 64, "value": 127}, "group": "control_change"}, {"time": 2694, "annotation": {"number": 64, "value": 0}, "group": "control_change"}, {"time": 2696, "annotation": {"number": 64, "value": 127}, "group": "control_change"}, {"time": 2742, "annotation": {"number": 64, "value": 0}, "group": "control_change"}, {"time": 2744, "annotation": {"number": 64, "value": 127}, "group": "control_change"}, {"time": 2761, "annotation": {"number": 64, "value": 0}, "group": "control_change"}, {"time": 2763, "annotation": {"number": 64, "value": 127}, "group": "control_change"}, {"time": 2768, "annotation": {"number": 64, "value": 0}, "group": "control_change"}, {"time": 2771, "annotation": {"number": 64, "value": 127}, "group": "control_change"}, {"time": 2792, "annotation": {"number": 64, "value": 0}, "group": "control_change"}, {"time": 2794, "annotation": {"number": 64, "value": 127}, "group": "control_change"}, {"time": 2803, "annotation": {"number": 64, "value": 0}, "group": "control_change"}, {"time": 2806, "annotation": {"number": 64, "value": 127}, "group": "control_change"}, {"time": 2815, "annotation": {"number": 64, "value": 0}, "group": "control_change"}, {"time": 2818, "annotation": {"number": 64, "value": 127}, "group": "control_change"}, {"time": 2839, "annotation": {"number": 64, "value": 0}, "group": "control_change"}, {"time": 2839, "annotation": {"number": 64, "value": 127}, "group": "control_change"}, {"time": 2862, "annotation": {"number": 64, "value": 0}, "group": "control_change"}, {"time": 2865, "annotation": {"number": 64, "value": 127}, "group": "control_change"}, {"time": 2886, "annotation": {"number": 64, "value": 0}, "group": "control_change"}, {"time": 2888, "annotation": {"number": 64, "value": 127}, "group": "control_change"}, {"time": 2911, "annotation": {"number": 64, "value": 0}, "group": "control_change"}, {"time": 2914, "annotation": {"number": 64, "value": 127}, "group": "control_change"}, {"time": 2934, "annotation": {"number": 64, "value": 0}, "group": "control_change"}, {"time": 2936, "annotation": {"number": 64, "value": 127}, "group": "control_change"}, {"time": 2948, "annotation": {"number": 64, "value": 0}, "group": "control_change"}, {"time": 2948, "annotation": {"number": 64, "value": 127}, "group": "control_change"}, {"time": 2950, "annotation": {"number": 64, "value": 127}, "group": "control_change"}, {"time": 2958, "annotation": {"number": 64, "value": 0}, "group": "control_change"}, {"time": 2961, "annotation": {"number": 64, "value": 127}, "group": "control_change"}, {"time": 2983, "annotation": {"number": 64, "value": 0}, "group": "control_change"}, {"time": 2986, "annotation": {"number": 64, "value": 127}, "group": "control_change"}, {"time": 2995, "annotation": {"number": 64, "value": 0}, "group": "control_change"}, {"time": 2998, "annotation": {"number": 64, "value": 127}, "group": "control_change"}, {"time": 3007, "annotation": {"number": 64, "value": 0}, "group": "control_change"}, {"time": 3010, "annotation": {"number": 64, "value": 127}, "group": "control_change"}, {"time": 3030, "annotation": {"number": 64, "value": 0}, "group": "control_change"}, {"time": 3031, "annotation": {"number": 64, "value": 127}, "group": "control_change"}, {"time": 3055, "annotation": {"number": 64, "value": 0}, "group": "control_change"}, {"time": 3059, "annotation": {"number": 64, "value": 127}, "group": "control_change"}, {"time": 3078, "annotation": {"number": 64, "value": 0}, "group": "control_change"}, {"time": 3082, "annotation": {"number": 64, "value": 127}, "group": "control_change"}, {"time": 3101, "annotation": {"number": 64, "value": 0}, "group": "control_change"}, {"time": 3104, "annotation": {"number": 64, "value": 127}, "group": "control_change"}, {"time": 3124, "annotation": {"number": 64, "value": 0}, "group": "control_change"}, {"time": 3125, "annotation": {"number": 64, "value": 127}, "group": "control_change"}, {"time": 3125, "annotation": {"number": 64, "value": 0}, "group": "control_change"}, {"time": 3128, "annotation": {"number": 64, "value": 127}, "group": "control_change"}, {"time": 3176, "annotation": {"number": 64, "value": 0}, "group": "control_change"}, {"time": 3179, "annotation": {"number": 64, "value": 127}, "group": "control_change"}, {"time": 3190, "annotation": {"number": 64, "value": 0}, "group": "control_change"}, {"time": 3193, "annotation": {"number": 64, "value": 127}, "group": "control_change"}, {"time": 3199, "annotation": {"number": 64, "value": 0}, "group": "control_change"}, {"time": 3202, "annotation": {"number": 64, "value": 127}, "group": "control_change"}, {"time": 3225, "annotation": {"number": 64, "value": 0}, "group": "control_change"}, {"time": 3229, "annotation": {"number": 64, "value": 127}, "group": "control_change"}, {"time": 3236, "annotation": {"number": 64, "value": 0}, "group": "control_change"}, {"time": 3238, "annotation": {"number": 64, "value": 127}, "group": "control_change"}, {"time": 3248, "annotation": {"number": 64, "value": 0}, "group": "control_change"}, {"time": 3251, "annotation": {"number": 64, "value": 127}, "group": "control_change"}, {"time": 3270, "annotation": {"number": 64, "value": 0}, "group": "control_change"}, {"time": 3271, "annotation": {"number": 64, "value": 127}, "group": "control_change"}, {"time": 3295, "annotation": {"number": 64, "value": 0}, "group": "control_change"}, {"time": 3297, "annotation": {"number": 64, "value": 127}, "group": "control_change"}, {"time": 3320, "annotation": {"number": 64, "value": 0}, "group": "control_change"}, {"time": 3322, "annotation": {"number": 64, "value": 127}, "group": "control_change"}, {"time": 3342, "annotation": {"number": 64, "value": 0}, "group": "control_change"}, {"time": 3345, "annotation": {"number": 64, "value": 127}, "group": "control_change"}, {"time": 3367, "annotation": {"number": 64, "value": 0}, "group": "control_change"}, {"time": 3369, "annotation": {"number": 64, "value": 127}, "group": "control_change"}, {"time": 3378, "annotation": {"number": 64, "value": 0}, "group": "control_change"}, {"time": 3380, "annotation": {"number": 64, "value": 127}, "group": "control_change"}, {"time": 3391, "annotation": {"number": 64, "value": 0}, "group": "control_change"}, {"time": 3393, "annotation": {"number": 64, "value": 127}, "group": "control_change"}, {"time": 3415, "annotation": {"number": 64, "value": 0}, "group": "control_change"}, {"time": 3417, "annotation": {"number": 64, "value": 127}, "group": "control_change"}, {"time": 3427, "annotation": {"number": 64, "value": 0}, "group": "control_change"}, {"time": 3429, "annotation": {"number": 64, "value": 127}, "group": "control_change"}, {"time": 3439, "annotation": {"number": 64, "value": 127}, "group": "control_change"}, {"time": 3439, "annotation": {"number": 64, "value": 0}, "group": "control_change"}, {"time": 3462, "annotation": {"number": 64, "value": 0}, "group": "control_change"}, {"time": 3463, "annotation": {"number": 64, "value": 127}, "group": "control_change"}, {"time": 3487, "annotation": {"number": 64, "value": 0}, "group": "control_change"}, {"time": 3487, "annotation": {"number": 64, "value": 127}, "group": "control_change"}, {"time": 3491, "annotation": {"number": 64, "value": 127}, "group": "control_change"}, {"time": 3510, "annotation": {"number": 64, "value": 0}, "group": "control_change"}, {"time": 3510, "annotation": {"number": 64, "value": 127}, "group": "control_change"}, {"time": 3513, "annotation": {"number": 64, "value": 127}, "group": "control_change"}, {"time": 3531, "annotation": {"number": 64, "value": 0}, "group": "control_change"}, {"time": 3535, "annotation": {"number": 64, "value": 127}, "group": "control_change"}, {"time": 3571, "annotation": {"number": 64, "value": 0}, "group": "control_change"}, {"time": 3594, "annotation": {"number": 64, "value": 127}, "group": "control_change"}, {"time": 3594, "annotation": {"number": 64, "value": 0}, "group": "control_change"}, {"time": 3619, "annotation": {"number": 64, "value": 0}, "group": "control_change"}, {"time": 3619, "annotation": {"number": 64, "value": 127}, "group": "control_change"}, {"time": 3622, "annotation": {"number": 64, "value": 127}, "group": "control_change"}, {"time": 3641, "annotation": {"number": 64, "value": 0}, "group": "control_change"}, {"time": 3644, "annotation": {"number": 64, "value": 127}, "group": "control_change"}, {"time": 3669, "annotation": {"number": 64, "value": 0}, "group": "control_change"}, {"time": 3672, "annotation": {"number": 64, "value": 127}, "group": "control_change"}, {"time": 3729, "annotation": {"number": 64, "value": 0}, "group": "control_change"}]}]}