{"metadata": {"schema_version": "0.2", "title": "None", "source_filename": "245.mid", "source_format": "midi"}, "resolution": 12, "tempos": [{"time": 0, "qpm": 88.00002346667293}, {"time": 1296, "qpm": 87.00002175000543}, {"time": 1344, "qpm": 77.000077000077}, {"time": 1380, "qpm": 73.00007178340392}, {"time": 1392, "qpm": 88.00002346667293}, {"time": 2880, "qpm": 82.00014760026568}, {"time": 2928, "qpm": 88.00002346667293}, {"time": 3360, "qpm": 84.000084000084}, {"time": 3408, "qpm": 86.00005160003096}, {"time": 3432, "qpm": 88.00002346667293}, {"time": 3936, "qpm": 80.0}, {"time": 3960, "qpm": 78.9999657666815}, {"time": 3972, "qpm": 70.00007000007}], "time_signatures": [{"time": 0, "numerator": 4, "denominator": 4}], "tracks": [{"program": 0, "is_drum": false, "name": "MELODY", "notes": [{"time": 630, "pitch": 77, "duration": 6, "velocity": 78}, {"time": 636, "pitch": 77, "duration": 6, "velocity": 80}, {"time": 642, "pitch": 77, "duration": 6, "velocity": 73}, {"time": 648, "pitch": 77, "duration": 9, "velocity": 75}, {"time": 657, "pitch": 75, "duration": 9, "velocity": 83}, {"time": 666, "pitch": 74, "duration": 6, "velocity": 78}, {"time": 672, "pitch": 72, "duration": 9, "velocity": 93}, {"time": 681, "pitch": 74, "duration": 9, "velocity": 84}, {"time": 690, "pitch": 67, "duration": 36, "velocity": 79}, {"time": 726, "pitch": 77, "duration": 6, "velocity": 78}, {"time": 732, "pitch": 77, "duration": 6, "velocity": 80}, {"time": 738, "pitch": 77, "duration": 6, "velocity": 73}, {"time": 744, "pitch": 77, "duration": 9, "velocity": 75}, {"time": 753, "pitch": 75, "duration": 9, "velocity": 83}, {"time": 762, "pitch": 74, "duration": 6, "velocity": 78}, {"time": 768, "pitch": 72, "duration": 9, "velocity": 93}, {"time": 777, "pitch": 74, "duration": 9, "velocity": 84}, {"time": 786, "pitch": 67, "duration": 36, "velocity": 79}, {"time": 822, "pitch": 72, "duration": 6, "velocity": 86}, {"time": 828, "pitch": 72, "duration": 6, "velocity": 83}, {"time": 834, "pitch": 74, "duration": 6, "velocity": 84}, {"time": 840, "pitch": 77, "duration": 6, "velocity": 84}, {"time": 846, "pitch": 79, "duration": 12, "velocity": 84}, {"time": 858, "pitch": 77, "duration": 24, "velocity": 78}, {"time": 882, "pitch": 74, "duration": 6, "velocity": 82}, {"time": 888, "pitch": 74, "duration": 6, "velocity": 83}, {"time": 894, "pitch": 72, "duration": 6, "velocity": 84}, {"time": 900, "pitch": 70, "duration": 6, "velocity": 82}, {"time": 906, "pitch": 72, "duration": 12, "velocity": 83}, {"time": 918, "pitch": 70, "duration": 3, "velocity": 63}, {"time": 921, "pitch": 67, "duration": 93, "velocity": 81}, {"time": 1014, "pitch": 77, "duration": 6, "velocity": 78}, {"time": 1020, "pitch": 77, "duration": 6, "velocity": 80}, {"time": 1026, "pitch": 77, "duration": 6, "velocity": 73}, {"time": 1032, "pitch": 77, "duration": 9, "velocity": 75}, {"time": 1041, "pitch": 75, "duration": 9, "velocity": 83}, {"time": 1050, "pitch": 74, "duration": 6, "velocity": 78}, {"time": 1056, "pitch": 72, "duration": 9, "velocity": 93}, {"time": 1065, "pitch": 74, "duration": 9, "velocity": 84}, {"time": 1074, "pitch": 67, "duration": 36, "velocity": 79}, {"time": 1110, "pitch": 77, "duration": 6, "velocity": 78}, {"time": 1116, "pitch": 77, "duration": 6, "velocity": 80}, {"time": 1122, "pitch": 77, "duration": 6, "velocity": 73}, {"time": 1128, "pitch": 77, "duration": 9, "velocity": 75}, {"time": 1137, "pitch": 75, "duration": 9, "velocity": 83}, {"time": 1146, "pitch": 74, "duration": 6, "velocity": 78}, {"time": 1152, "pitch": 72, "duration": 9, "velocity": 93}, {"time": 1161, "pitch": 74, "duration": 9, "velocity": 84}, {"time": 1170, "pitch": 67, "duration": 36, "velocity": 79}, {"time": 1206, "pitch": 72, "duration": 6, "velocity": 86}, {"time": 1212, "pitch": 72, "duration": 6, "velocity": 83}, {"time": 1218, "pitch": 74, "duration": 6, "velocity": 84}, {"time": 1224, "pitch": 77, "duration": 6, "velocity": 84}, {"time": 1230, "pitch": 79, "duration": 12, "velocity": 84}, {"time": 1242, "pitch": 77, "duration": 24, "velocity": 78}, {"time": 1266, "pitch": 74, "duration": 6, "velocity": 82}, {"time": 1272, "pitch": 74, "duration": 6, "velocity": 83}, {"time": 1278, "pitch": 72, "duration": 6, "velocity": 84}, {"time": 1284, "pitch": 70, "duration": 6, "velocity": 82}, {"time": 1290, "pitch": 72, "duration": 12, "velocity": 83}, {"time": 1302, "pitch": 70, "duration": 3, "velocity": 63}, {"time": 1305, "pitch": 67, "duration": 39, "velocity": 81}, {"time": 1344, "pitch": 72, "duration": 12, "velocity": 93}, {"time": 1356, "pitch": 74, "duration": 12, "velocity": 98}, {"time": 1368, "pitch": 75, "duration": 12, "velocity": 95}, {"time": 1380, "pitch": 77, "duration": 12, "velocity": 90}, {"time": 1392, "pitch": 84, "duration": 6, "velocity": 83}, {"time": 1398, "pitch": 84, "duration": 6, "velocity": 83}, {"time": 1404, "pitch": 84, "duration": 6, "velocity": 90}, {"time": 1410, "pitch": 82, "duration": 6, "velocity": 90}, {"time": 1416, "pitch": 82, "duration": 18, "velocity": 90}, {"time": 1434, "pitch": 82, "duration": 6, "velocity": 93}, {"time": 1440, "pitch": 81, "duration": 6, "velocity": 90}, {"time": 1446, "pitch": 81, "duration": 6, "velocity": 98}, {"time": 1452, "pitch": 81, "duration": 6, "velocity": 95}, {"time": 1458, "pitch": 81, "duration": 6, "velocity": 95}, {"time": 1464, "pitch": 82, "duration": 12, "velocity": 90}, {"time": 1476, "pitch": 81, "duration": 6, "velocity": 93}, {"time": 1482, "pitch": 77, "duration": 6, "velocity": 84}, {"time": 1488, "pitch": 79, "duration": 6, "velocity": 84}, {"time": 1494, "pitch": 79, "duration": 6, "velocity": 84}, {"time": 1500, "pitch": 79, "duration": 6, "velocity": 84}, {"time": 1506, "pitch": 77, "duration": 6, "velocity": 84}, {"time": 1512, "pitch": 79, "duration": 12, "velocity": 72}, {"time": 1524, "pitch": 79, "duration": 6, "velocity": 90}, {"time": 1530, "pitch": 77, "duration": 6, "velocity": 83}, {"time": 1536, "pitch": 79, "duration": 6, "velocity": 95}, {"time": 1542, "pitch": 79, "duration": 6, "velocity": 98}, {"time": 1548, "pitch": 79, "duration": 6, "velocity": 91}, {"time": 1554, "pitch": 86, "duration": 6, "velocity": 95}, {"time": 1560, "pitch": 84, "duration": 18, "velocity": 98}, {"time": 1578, "pitch": 82, "duration": 6, "velocity": 72}, {"time": 1584, "pitch": 84, "duration": 6, "velocity": 83}, {"time": 1590, "pitch": 84, "duration": 6, "velocity": 83}, {"time": 1596, "pitch": 84, "duration": 6, "velocity": 90}, {"time": 1602, "pitch": 82, "duration": 6, "velocity": 90}, {"time": 1608, "pitch": 82, "duration": 18, "velocity": 90}, {"time": 1626, "pitch": 82, "duration": 6, "velocity": 93}, {"time": 1632, "pitch": 81, "duration": 6, "velocity": 90}, {"time": 1638, "pitch": 81, "duration": 6, "velocity": 98}, {"time": 1644, "pitch": 81, "duration": 6, "velocity": 95}, {"time": 1650, "pitch": 81, "duration": 6, "velocity": 95}, {"time": 1656, "pitch": 82, "duration": 12, "velocity": 90}, {"time": 1668, "pitch": 82, "duration": 6, "velocity": 93}, {"time": 1674, "pitch": 77, "duration": 6, "velocity": 84}, {"time": 1680, "pitch": 79, "duration": 9, "velocity": 84}, {"time": 1689, "pitch": 77, "duration": 3, "velocity": 78}, {"time": 1692, "pitch": 70, "duration": 30, "velocity": 90}, {"time": 1722, "pitch": 72, "duration": 3, "velocity": 84}, {"time": 1725, "pitch": 74, "duration": 3, "velocity": 76}, {"time": 1728, "pitch": 75, "duration": 6, "velocity": 83}, {"time": 1734, "pitch": 74, "duration": 6, "velocity": 83}, {"time": 1740, "pitch": 70, "duration": 6, "velocity": 90}, {"time": 1746, "pitch": 75, "duration": 12, "velocity": 81}, {"time": 1758, "pitch": 74, "duration": 12, "velocity": 86}, {"time": 1770, "pitch": 70, "duration": 6, "velocity": 84}, {"time": 1776, "pitch": 70, "duration": 48, "velocity": 82}, {"time": 2166, "pitch": 77, "duration": 6, "velocity": 78}, {"time": 2172, "pitch": 77, "duration": 6, "velocity": 80}, {"time": 2178, "pitch": 77, "duration": 6, "velocity": 73}, {"time": 2184, "pitch": 77, "duration": 9, "velocity": 75}, {"time": 2193, "pitch": 75, "duration": 9, "velocity": 83}, {"time": 2202, "pitch": 74, "duration": 6, "velocity": 78}, {"time": 2208, "pitch": 72, "duration": 9, "velocity": 93}, {"time": 2217, "pitch": 74, "duration": 9, "velocity": 84}, {"time": 2226, "pitch": 67, "duration": 36, "velocity": 79}, {"time": 2262, "pitch": 77, "duration": 6, "velocity": 78}, {"time": 2268, "pitch": 77, "duration": 6, "velocity": 80}, {"time": 2274, "pitch": 77, "duration": 6, "velocity": 73}, {"time": 2280, "pitch": 77, "duration": 9, "velocity": 75}, {"time": 2289, "pitch": 75, "duration": 9, "velocity": 83}, {"time": 2298, "pitch": 74, "duration": 6, "velocity": 78}, {"time": 2304, "pitch": 72, "duration": 9, "velocity": 93}, {"time": 2313, "pitch": 74, "duration": 9, "velocity": 84}, {"time": 2322, "pitch": 67, "duration": 36, "velocity": 79}, {"time": 2358, "pitch": 72, "duration": 6, "velocity": 86}, {"time": 2364, "pitch": 72, "duration": 6, "velocity": 83}, {"time": 2370, "pitch": 74, "duration": 6, "velocity": 84}, {"time": 2376, "pitch": 77, "duration": 6, "velocity": 84}, {"time": 2382, "pitch": 79, "duration": 12, "velocity": 84}, {"time": 2394, "pitch": 77, "duration": 24, "velocity": 78}, {"time": 2418, "pitch": 74, "duration": 6, "velocity": 82}, {"time": 2424, "pitch": 74, "duration": 6, "velocity": 83}, {"time": 2430, "pitch": 72, "duration": 6, "velocity": 84}, {"time": 2436, "pitch": 70, "duration": 6, "velocity": 82}, {"time": 2442, "pitch": 72, "duration": 12, "velocity": 83}, {"time": 2454, "pitch": 70, "duration": 3, "velocity": 63}, {"time": 2457, "pitch": 67, "duration": 93, "velocity": 81}, {"time": 2550, "pitch": 77, "duration": 6, "velocity": 78}, {"time": 2556, "pitch": 77, "duration": 6, "velocity": 80}, {"time": 2562, "pitch": 77, "duration": 6, "velocity": 73}, {"time": 2568, "pitch": 77, "duration": 9, "velocity": 75}, {"time": 2577, "pitch": 75, "duration": 9, "velocity": 83}, {"time": 2586, "pitch": 74, "duration": 6, "velocity": 78}, {"time": 2592, "pitch": 72, "duration": 9, "velocity": 93}, {"time": 2601, "pitch": 74, "duration": 9, "velocity": 84}, {"time": 2610, "pitch": 67, "duration": 36, "velocity": 79}, {"time": 2646, "pitch": 77, "duration": 6, "velocity": 78}, {"time": 2652, "pitch": 77, "duration": 6, "velocity": 80}, {"time": 2658, "pitch": 77, "duration": 6, "velocity": 73}, {"time": 2664, "pitch": 77, "duration": 9, "velocity": 75}, {"time": 2673, "pitch": 75, "duration": 9, "velocity": 83}, {"time": 2682, "pitch": 74, "duration": 6, "velocity": 78}, {"time": 2688, "pitch": 72, "duration": 9, "velocity": 93}, {"time": 2697, "pitch": 74, "duration": 9, "velocity": 84}, {"time": 2706, "pitch": 67, "duration": 36, "velocity": 79}, {"time": 2742, "pitch": 72, "duration": 6, "velocity": 86}, {"time": 2748, "pitch": 72, "duration": 6, "velocity": 83}, {"time": 2754, "pitch": 74, "duration": 6, "velocity": 84}, {"time": 2760, "pitch": 77, "duration": 6, "velocity": 84}, {"time": 2766, "pitch": 79, "duration": 12, "velocity": 84}, {"time": 2778, "pitch": 77, "duration": 24, "velocity": 78}, {"time": 2802, "pitch": 74, "duration": 6, "velocity": 82}, {"time": 2808, "pitch": 74, "duration": 6, "velocity": 83}, {"time": 2814, "pitch": 72, "duration": 6, "velocity": 84}, {"time": 2820, "pitch": 70, "duration": 6, "velocity": 82}, {"time": 2826, "pitch": 72, "duration": 12, "velocity": 83}, {"time": 2838, "pitch": 70, "duration": 3, "velocity": 63}, {"time": 2841, "pitch": 67, "duration": 39, "velocity": 81}, {"time": 2880, "pitch": 72, "duration": 12, "velocity": 93}, {"time": 2892, "pitch": 74, "duration": 12, "velocity": 98}, {"time": 2904, "pitch": 75, "duration": 12, "velocity": 95}, {"time": 2916, "pitch": 77, "duration": 12, "velocity": 90}, {"time": 2928, "pitch": 84, "duration": 6, "velocity": 83}, {"time": 2934, "pitch": 84, "duration": 6, "velocity": 83}, {"time": 2940, "pitch": 84, "duration": 6, "velocity": 90}, {"time": 2946, "pitch": 82, "duration": 6, "velocity": 90}, {"time": 2952, "pitch": 82, "duration": 18, "velocity": 90}, {"time": 2970, "pitch": 82, "duration": 6, "velocity": 93}, {"time": 2976, "pitch": 81, "duration": 6, "velocity": 90}, {"time": 2982, "pitch": 81, "duration": 6, "velocity": 98}, {"time": 2988, "pitch": 81, "duration": 6, "velocity": 95}, {"time": 2994, "pitch": 81, "duration": 6, "velocity": 95}, {"time": 3000, "pitch": 82, "duration": 12, "velocity": 90}, {"time": 3012, "pitch": 81, "duration": 6, "velocity": 93}, {"time": 3018, "pitch": 77, "duration": 6, "velocity": 84}, {"time": 3024, "pitch": 79, "duration": 6, "velocity": 84}, {"time": 3030, "pitch": 79, "duration": 6, "velocity": 84}, {"time": 3036, "pitch": 79, "duration": 6, "velocity": 84}, {"time": 3042, "pitch": 77, "duration": 6, "velocity": 84}, {"time": 3048, "pitch": 79, "duration": 12, "velocity": 72}, {"time": 3060, "pitch": 79, "duration": 6, "velocity": 90}, {"time": 3066, "pitch": 77, "duration": 6, "velocity": 83}, {"time": 3072, "pitch": 79, "duration": 6, "velocity": 95}, {"time": 3078, "pitch": 79, "duration": 6, "velocity": 98}, {"time": 3084, "pitch": 79, "duration": 6, "velocity": 91}, {"time": 3090, "pitch": 86, "duration": 6, "velocity": 95}, {"time": 3096, "pitch": 84, "duration": 18, "velocity": 98}, {"time": 3114, "pitch": 82, "duration": 6, "velocity": 72}, {"time": 3120, "pitch": 84, "duration": 6, "velocity": 83}, {"time": 3126, "pitch": 84, "duration": 6, "velocity": 83}, {"time": 3132, "pitch": 84, "duration": 6, "velocity": 90}, {"time": 3138, "pitch": 82, "duration": 6, "velocity": 90}, {"time": 3144, "pitch": 82, "duration": 18, "velocity": 90}, {"time": 3162, "pitch": 82, "duration": 6, "velocity": 93}, {"time": 3168, "pitch": 81, "duration": 6, "velocity": 90}, {"time": 3174, "pitch": 81, "duration": 6, "velocity": 98}, {"time": 3180, "pitch": 81, "duration": 6, "velocity": 95}, {"time": 3186, "pitch": 81, "duration": 6, "velocity": 95}, {"time": 3192, "pitch": 82, "duration": 12, "velocity": 90}, {"time": 3204, "pitch": 82, "duration": 6, "velocity": 93}, {"time": 3210, "pitch": 77, "duration": 6, "velocity": 84}, {"time": 3216, "pitch": 79, "duration": 9, "velocity": 84}, {"time": 3225, "pitch": 77, "duration": 3, "velocity": 78}, {"time": 3228, "pitch": 70, "duration": 30, "velocity": 90}, {"time": 3258, "pitch": 72, "duration": 3, "velocity": 84}, {"time": 3261, "pitch": 74, "duration": 3, "velocity": 76}, {"time": 3264, "pitch": 75, "duration": 6, "velocity": 83}, {"time": 3270, "pitch": 74, "duration": 6, "velocity": 83}, {"time": 3276, "pitch": 70, "duration": 6, "velocity": 90}, {"time": 3282, "pitch": 75, "duration": 12, "velocity": 81}, {"time": 3294, "pitch": 74, "duration": 12, "velocity": 86}, {"time": 3306, "pitch": 70, "duration": 6, "velocity": 84}, {"time": 3312, "pitch": 70, "duration": 48, "velocity": 82}, {"time": 3408, "pitch": 84, "duration": 6, "velocity": 83}, {"time": 3414, "pitch": 84, "duration": 6, "velocity": 83}, {"time": 3420, "pitch": 84, "duration": 6, "velocity": 90}, {"time": 3426, "pitch": 82, "duration": 6, "velocity": 90}, {"time": 3432, "pitch": 82, "duration": 18, "velocity": 90}, {"time": 3450, "pitch": 82, "duration": 6, "velocity": 93}, {"time": 3456, "pitch": 81, "duration": 6, "velocity": 90}, {"time": 3462, "pitch": 81, "duration": 6, "velocity": 98}, {"time": 3468, "pitch": 81, "duration": 6, "velocity": 95}, {"time": 3474, "pitch": 81, "duration": 6, "velocity": 95}, {"time": 3480, "pitch": 82, "duration": 12, "velocity": 90}, {"time": 3492, "pitch": 81, "duration": 6, "velocity": 93}, {"time": 3498, "pitch": 77, "duration": 6, "velocity": 84}, {"time": 3504, "pitch": 79, "duration": 6, "velocity": 84}, {"time": 3510, "pitch": 79, "duration": 6, "velocity": 84}, {"time": 3516, "pitch": 79, "duration": 6, "velocity": 84}, {"time": 3522, "pitch": 77, "duration": 6, "velocity": 84}, {"time": 3528, "pitch": 79, "duration": 12, "velocity": 72}, {"time": 3540, "pitch": 79, "duration": 6, "velocity": 90}, {"time": 3546, "pitch": 77, "duration": 6, "velocity": 83}, {"time": 3552, "pitch": 79, "duration": 6, "velocity": 95}, {"time": 3558, "pitch": 79, "duration": 6, "velocity": 98}, {"time": 3564, "pitch": 79, "duration": 6, "velocity": 91}, {"time": 3570, "pitch": 86, "duration": 6, "velocity": 95}, {"time": 3576, "pitch": 84, "duration": 18, "velocity": 98}, {"time": 3594, "pitch": 82, "duration": 6, "velocity": 72}, {"time": 3600, "pitch": 84, "duration": 6, "velocity": 83}, {"time": 3606, "pitch": 84, "duration": 6, "velocity": 83}, {"time": 3612, "pitch": 84, "duration": 6, "velocity": 90}, {"time": 3618, "pitch": 82, "duration": 6, "velocity": 90}, {"time": 3624, "pitch": 82, "duration": 18, "velocity": 90}, {"time": 3642, "pitch": 82, "duration": 6, "velocity": 93}, {"time": 3648, "pitch": 81, "duration": 6, "velocity": 90}, {"time": 3654, "pitch": 81, "duration": 6, "velocity": 98}, {"time": 3660, "pitch": 81, "duration": 6, "velocity": 95}, {"time": 3666, "pitch": 81, "duration": 6, "velocity": 95}, {"time": 3672, "pitch": 82, "duration": 12, "velocity": 90}, {"time": 3684, "pitch": 82, "duration": 6, "velocity": 93}, {"time": 3690, "pitch": 77, "duration": 6, "velocity": 84}, {"time": 3696, "pitch": 79, "duration": 9, "velocity": 84}, {"time": 3705, "pitch": 77, "duration": 3, "velocity": 78}, {"time": 3708, "pitch": 70, "duration": 30, "velocity": 90}, {"time": 3738, "pitch": 72, "duration": 3, "velocity": 84}, {"time": 3741, "pitch": 74, "duration": 3, "velocity": 76}, {"time": 3744, "pitch": 75, "duration": 6, "velocity": 83}, {"time": 3750, "pitch": 74, "duration": 6, "velocity": 83}, {"time": 3756, "pitch": 70, "duration": 6, "velocity": 90}, {"time": 3762, "pitch": 75, "duration": 12, "velocity": 81}, {"time": 3774, "pitch": 74, "duration": 12, "velocity": 86}, {"time": 3786, "pitch": 70, "duration": 6, "velocity": 84}, {"time": 3798, "pitch": 70, "duration": 48, "velocity": 82}]}, {"program": 0, "is_drum": false, "name": "PIANO", "notes": [{"time": 48, "pitch": 46, "duration": 45, "velocity": 79}, {"time": 54, "pitch": 53, "duration": 13, "velocity": 56}, {"time": 60, "pitch": 58, "duration": 7, "velocity": 62}, {"time": 66, "pitch": 60, "duration": 19, "velocity": 84}, {"time": 78, "pitch": 53, "duration": 14, "velocity": 58}, {"time": 84, "pitch": 58, "duration": 8, "velocity": 84}, {"time": 90, "pitch": 62, "duration": 16, "velocity": 83}, {"time": 96, "pitch": 46, "duration": 38, "velocity": 79}, {"time": 102, "pitch": 53, "duration": 14, "velocity": 69}, {"time": 108, "pitch": 58, "duration": 7, "velocity": 79}, {"time": 114, "pitch": 62, "duration": 14, "velocity": 84}, {"time": 126, "pitch": 53, "duration": 8, "velocity": 62}, {"time": 132, "pitch": 58, "duration": 7, "velocity": 83}, {"time": 138, "pitch": 62, "duration": 7, "velocity": 84}, {"time": 144, "pitch": 46, "duration": 42, "velocity": 83}, {"time": 144, "pitch": 63, "duration": 13, "velocity": 84}, {"time": 150, "pitch": 54, "duration": 13, "velocity": 74}, {"time": 156, "pitch": 58, "duration": 7, "velocity": 83}, {"time": 162, "pitch": 60, "duration": 18, "velocity": 84}, {"time": 174, "pitch": 51, "duration": 16, "velocity": 55}, {"time": 180, "pitch": 54, "duration": 20, "velocity": 79}, {"time": 186, "pitch": 63, "duration": 24, "velocity": 83}, {"time": 192, "pitch": 46, "duration": 44, "velocity": 80}, {"time": 198, "pitch": 51, "duration": 19, "velocity": 79}, {"time": 204, "pitch": 54, "duration": 7, "velocity": 63}, {"time": 210, "pitch": 60, "duration": 19, "velocity": 80}, {"time": 228, "pitch": 58, "duration": 7, "velocity": 82}, {"time": 234, "pitch": 60, "duration": 7, "velocity": 83}, {"time": 240, "pitch": 46, "duration": 40, "velocity": 71}, {"time": 240, "pitch": 53, "duration": 7, "velocity": 71}, {"time": 240, "pitch": 58, "duration": 7, "velocity": 71}, {"time": 240, "pitch": 62, "duration": 9, "velocity": 82}, {"time": 246, "pitch": 51, "duration": 15, "velocity": 76}, {"time": 252, "pitch": 58, "duration": 21, "velocity": 83}, {"time": 258, "pitch": 65, "duration": 15, "velocity": 78}, {"time": 270, "pitch": 53, "duration": 15, "velocity": 57}, {"time": 276, "pitch": 60, "duration": 6, "velocity": 78}, {"time": 282, "pitch": 58, "duration": 14, "velocity": 71}, {"time": 282, "pitch": 62, "duration": 16, "velocity": 71}, {"time": 288, "pitch": 46, "duration": 41, "velocity": 78}, {"time": 294, "pitch": 53, "duration": 20, "velocity": 68}, {"time": 300, "pitch": 58, "duration": 3, "velocity": 60}, {"time": 306, "pitch": 58, "duration": 4, "velocity": 73}, {"time": 306, "pitch": 65, "duration": 4, "velocity": 62}, {"time": 312, "pitch": 58, "duration": 7, "velocity": 56}, {"time": 312, "pitch": 65, "duration": 7, "velocity": 69}, {"time": 318, "pitch": 53, "duration": 11, "velocity": 61}, {"time": 324, "pitch": 60, "duration": 6, "velocity": 79}, {"time": 330, "pitch": 65, "duration": 4, "velocity": 59}, {"time": 336, "pitch": 43, "duration": 43, "velocity": 82}, {"time": 336, "pitch": 58, "duration": 11, "velocity": 84}, {"time": 342, "pitch": 50, "duration": 41, "velocity": 72}, {"time": 348, "pitch": 55, "duration": 8, "velocity": 61}, {"time": 354, "pitch": 62, "duration": 8, "velocity": 73}, {"time": 354, "pitch": 70, "duration": 7, "velocity": 79}, {"time": 363, "pitch": 55, "duration": 4, "velocity": 38}, {"time": 366, "pitch": 60, "duration": 6, "velocity": 71}, {"time": 366, "pitch": 69, "duration": 5, "velocity": 86}, {"time": 372, "pitch": 55, "duration": 7, "velocity": 36}, {"time": 378, "pitch": 58, "duration": 20, "velocity": 76}, {"time": 378, "pitch": 65, "duration": 20, "velocity": 83}, {"time": 384, "pitch": 43, "duration": 39, "velocity": 72}, {"time": 390, "pitch": 50, "duration": 33, "velocity": 80}, {"time": 396, "pitch": 55, "duration": 26, "velocity": 60}, {"time": 402, "pitch": 57, "duration": 8, "velocity": 75}, {"time": 408, "pitch": 58, "duration": 18, "velocity": 79}, {"time": 420, "pitch": 57, "duration": 6, "velocity": 71}, {"time": 420, "pitch": 65, "duration": 5, "velocity": 78}, {"time": 432, "pitch": 39, "duration": 43, "velocity": 84}, {"time": 432, "pitch": 55, "duration": 8, "velocity": 73}, {"time": 432, "pitch": 58, "duration": 8, "velocity": 84}, {"time": 432, "pitch": 63, "duration": 8, "velocity": 80}, {"time": 438, "pitch": 51, "duration": 25, "velocity": 68}, {"time": 444, "pitch": 55, "duration": 4, "velocity": 51}, {"time": 450, "pitch": 55, "duration": 9, "velocity": 72}, {"time": 450, "pitch": 58, "duration": 9, "velocity": 86}, {"time": 450, "pitch": 62, "duration": 10, "velocity": 84}, {"time": 462, "pitch": 55, "duration": 9, "velocity": 73}, {"time": 462, "pitch": 58, "duration": 9, "velocity": 81}, {"time": 462, "pitch": 63, "duration": 8, "velocity": 82}, {"time": 468, "pitch": 51, "duration": 10, "velocity": 61}, {"time": 474, "pitch": 55, "duration": 5, "velocity": 60}, {"time": 480, "pitch": 39, "duration": 38, "velocity": 74}, {"time": 480, "pitch": 58, "duration": 8, "velocity": 82}, {"time": 480, "pitch": 65, "duration": 7, "velocity": 75}, {"time": 486, "pitch": 51, "duration": 14, "velocity": 59}, {"time": 492, "pitch": 55, "duration": 3, "velocity": 61}, {"time": 492, "pitch": 63, "duration": 4, "velocity": 80}, {"time": 498, "pitch": 53, "duration": 9, "velocity": 71}, {"time": 498, "pitch": 62, "duration": 11, "velocity": 80}, {"time": 504, "pitch": 51, "duration": 8, "velocity": 46}, {"time": 510, "pitch": 55, "duration": 9, "velocity": 71}, {"time": 510, "pitch": 58, "duration": 9, "velocity": 83}, {"time": 510, "pitch": 63, "duration": 10, "velocity": 83}, {"time": 516, "pitch": 51, "duration": 11, "velocity": 72}, {"time": 522, "pitch": 55, "duration": 3, "velocity": 38}, {"time": 528, "pitch": 41, "duration": 44, "velocity": 76}, {"time": 528, "pitch": 55, "duration": 10, "velocity": 78}, {"time": 528, "pitch": 58, "duration": 14, "velocity": 84}, {"time": 528, "pitch": 63, "duration": 14, "velocity": 86}, {"time": 534, "pitch": 48, "duration": 34, "velocity": 78}, {"time": 540, "pitch": 53, "duration": 21, "velocity": 80}, {"time": 546, "pitch": 58, "duration": 18, "velocity": 82}, {"time": 564, "pitch": 60, "duration": 2, "velocity": 83}, {"time": 570, "pitch": 48, "duration": 6, "velocity": 82}, {"time": 570, "pitch": 53, "duration": 2, "velocity": 19}, {"time": 576, "pitch": 41, "duration": 42, "velocity": 79}, {"time": 576, "pitch": 65, "duration": 14, "velocity": 76}, {"time": 576, "pitch": 70, "duration": 13, "velocity": 84}, {"time": 576, "pitch": 77, "duration": 14, "velocity": 79}, {"time": 594, "pitch": 65, "duration": 8, "velocity": 75}, {"time": 594, "pitch": 70, "duration": 12, "velocity": 75}, {"time": 594, "pitch": 75, "duration": 11, "velocity": 75}, {"time": 606, "pitch": 65, "duration": 6, "velocity": 71}, {"time": 606, "pitch": 74, "duration": 8, "velocity": 81}, {"time": 612, "pitch": 53, "duration": 6, "velocity": 56}, {"time": 618, "pitch": 65, "duration": 6, "velocity": 63}, {"time": 618, "pitch": 70, "duration": 7, "velocity": 78}, {"time": 624, "pitch": 46, "duration": 44, "velocity": 80}, {"time": 624, "pitch": 62, "duration": 13, "velocity": 69}, {"time": 624, "pitch": 65, "duration": 12, "velocity": 72}, {"time": 624, "pitch": 70, "duration": 1, "velocity": 76}, {"time": 630, "pitch": 53, "duration": 36, "velocity": 59}, {"time": 636, "pitch": 58, "duration": 15, "velocity": 69}, {"time": 642, "pitch": 60, "duration": 19, "velocity": 58}, {"time": 642, "pitch": 62, "duration": 19, "velocity": 59}, {"time": 642, "pitch": 65, "duration": 19, "velocity": 70}, {"time": 642, "pitch": 70, "duration": 19, "velocity": 59}, {"time": 660, "pitch": 58, "duration": 4, "velocity": 59}, {"time": 663, "pitch": 60, "duration": 5, "velocity": 69}, {"time": 666, "pitch": 65, "duration": 4, "velocity": 67}, {"time": 669, "pitch": 70, "duration": 41, "velocity": 82}, {"time": 672, "pitch": 51, "duration": 40, "velocity": 73}, {"time": 672, "pitch": 58, "duration": 8, "velocity": 63}, {"time": 672, "pitch": 63, "duration": 8, "velocity": 77}, {"time": 672, "pitch": 67, "duration": 34, "velocity": 56}, {"time": 678, "pitch": 55, "duration": 34, "velocity": 53}, {"time": 684, "pitch": 58, "duration": 30, "velocity": 57}, {"time": 690, "pitch": 65, "duration": 21, "velocity": 73}, {"time": 714, "pitch": 67, "duration": 8, "velocity": 62}, {"time": 720, "pitch": 46, "duration": 36, "velocity": 73}, {"time": 720, "pitch": 62, "duration": 10, "velocity": 49}, {"time": 720, "pitch": 65, "duration": 11, "velocity": 69}, {"time": 726, "pitch": 53, "duration": 31, "velocity": 58}, {"time": 732, "pitch": 58, "duration": 24, "velocity": 59}, {"time": 738, "pitch": 60, "duration": 16, "velocity": 61}, {"time": 738, "pitch": 65, "duration": 16, "velocity": 61}, {"time": 762, "pitch": 65, "duration": 7, "velocity": 63}, {"time": 768, "pitch": 51, "duration": 40, "velocity": 71}, {"time": 768, "pitch": 63, "duration": 8, "velocity": 70}, {"time": 774, "pitch": 58, "duration": 32, "velocity": 45}, {"time": 780, "pitch": 63, "duration": 10, "velocity": 53}, {"time": 786, "pitch": 75, "duration": 16, "velocity": 76}, {"time": 804, "pitch": 74, "duration": 12, "velocity": 71}, {"time": 816, "pitch": 48, "duration": 38, "velocity": 71}, {"time": 816, "pitch": 63, "duration": 11, "velocity": 59}, {"time": 816, "pitch": 70, "duration": 14, "velocity": 73}, {"time": 822, "pitch": 55, "duration": 19, "velocity": 57}, {"time": 828, "pitch": 60, "duration": 14, "velocity": 56}, {"time": 834, "pitch": 63, "duration": 14, "velocity": 70}, {"time": 834, "pitch": 67, "duration": 16, "velocity": 69}, {"time": 852, "pitch": 55, "duration": 13, "velocity": 51}, {"time": 858, "pitch": 60, "duration": 7, "velocity": 51}, {"time": 864, "pitch": 50, "duration": 39, "velocity": 74}, {"time": 864, "pitch": 65, "duration": 11, "velocity": 77}, {"time": 870, "pitch": 57, "duration": 32, "velocity": 54}, {"time": 876, "pitch": 62, "duration": 18, "velocity": 62}, {"time": 882, "pitch": 69, "duration": 13, "velocity": 71}, {"time": 894, "pitch": 72, "duration": 7, "velocity": 82}, {"time": 912, "pitch": 48, "duration": 39, "velocity": 71}, {"time": 912, "pitch": 58, "duration": 8, "velocity": 57}, {"time": 912, "pitch": 63, "duration": 12, "velocity": 74}, {"time": 912, "pitch": 70, "duration": 17, "velocity": 62}, {"time": 918, "pitch": 55, "duration": 16, "velocity": 32}, {"time": 924, "pitch": 60, "duration": 21, "velocity": 55}, {"time": 930, "pitch": 67, "duration": 3, "velocity": 53}, {"time": 942, "pitch": 67, "duration": 6, "velocity": 57}, {"time": 942, "pitch": 75, "duration": 10, "velocity": 74}, {"time": 948, "pitch": 55, "duration": 5, "velocity": 54}, {"time": 954, "pitch": 65, "duration": 4, "velocity": 49}, {"time": 954, "pitch": 74, "duration": 4, "velocity": 52}, {"time": 960, "pitch": 41, "duration": 11, "velocity": 62}, {"time": 960, "pitch": 65, "duration": 9, "velocity": 62}, {"time": 960, "pitch": 74, "duration": 13, "velocity": 72}, {"time": 966, "pitch": 48, "duration": 6, "velocity": 55}, {"time": 972, "pitch": 53, "duration": 8, "velocity": 53}, {"time": 978, "pitch": 55, "duration": 19, "velocity": 60}, {"time": 978, "pitch": 63, "duration": 5, "velocity": 59}, {"time": 978, "pitch": 70, "duration": 5, "velocity": 75}, {"time": 990, "pitch": 58, "duration": 9, "velocity": 60}, {"time": 990, "pitch": 63, "duration": 8, "velocity": 72}, {"time": 990, "pitch": 67, "duration": 13, "velocity": 69}, {"time": 1002, "pitch": 65, "duration": 4, "velocity": 72}, {"time": 1008, "pitch": 46, "duration": 42, "velocity": 76}, {"time": 1008, "pitch": 60, "duration": 13, "velocity": 55}, {"time": 1008, "pitch": 62, "duration": 15, "velocity": 73}, {"time": 1008, "pitch": 65, "duration": 12, "velocity": 63}, {"time": 1014, "pitch": 53, "duration": 36, "velocity": 54}, {"time": 1020, "pitch": 58, "duration": 15, "velocity": 41}, {"time": 1026, "pitch": 60, "duration": 15, "velocity": 62}, {"time": 1026, "pitch": 62, "duration": 19, "velocity": 72}, {"time": 1026, "pitch": 65, "duration": 19, "velocity": 75}, {"time": 1044, "pitch": 58, "duration": 4, "velocity": 59}, {"time": 1047, "pitch": 60, "duration": 4, "velocity": 60}, {"time": 1050, "pitch": 62, "duration": 4, "velocity": 76}, {"time": 1053, "pitch": 65, "duration": 3, "velocity": 71}, {"time": 1056, "pitch": 51, "duration": 43, "velocity": 76}, {"time": 1056, "pitch": 58, "duration": 8, "velocity": 74}, {"time": 1056, "pitch": 63, "duration": 8, "velocity": 79}, {"time": 1056, "pitch": 67, "duration": 7, "velocity": 75}, {"time": 1062, "pitch": 55, "duration": 36, "velocity": 56}, {"time": 1068, "pitch": 58, "duration": 14, "velocity": 52}, {"time": 1074, "pitch": 62, "duration": 7, "velocity": 69}, {"time": 1080, "pitch": 63, "duration": 6, "velocity": 73}, {"time": 1092, "pitch": 70, "duration": 5, "velocity": 72}, {"time": 1098, "pitch": 74, "duration": 5, "velocity": 61}, {"time": 1104, "pitch": 46, "duration": 42, "velocity": 71}, {"time": 1104, "pitch": 70, "duration": 12, "velocity": 55}, {"time": 1110, "pitch": 53, "duration": 34, "velocity": 57}, {"time": 1116, "pitch": 58, "duration": 15, "velocity": 61}, {"time": 1122, "pitch": 60, "duration": 18, "velocity": 51}, {"time": 1122, "pitch": 62, "duration": 18, "velocity": 55}, {"time": 1122, "pitch": 65, "duration": 18, "velocity": 71}, {"time": 1122, "pitch": 70, "duration": 19, "velocity": 62}, {"time": 1140, "pitch": 58, "duration": 5, "velocity": 71}, {"time": 1146, "pitch": 65, "duration": 6, "velocity": 71}, {"time": 1152, "pitch": 51, "duration": 41, "velocity": 63}, {"time": 1152, "pitch": 58, "duration": 7, "velocity": 59}, {"time": 1152, "pitch": 63, "duration": 7, "velocity": 72}, {"time": 1152, "pitch": 67, "duration": 7, "velocity": 68}, {"time": 1158, "pitch": 55, "duration": 25, "velocity": 51}, {"time": 1164, "pitch": 58, "duration": 4, "velocity": 54}, {"time": 1170, "pitch": 58, "duration": 8, "velocity": 61}, {"time": 1170, "pitch": 62, "duration": 13, "velocity": 74}, {"time": 1170, "pitch": 67, "duration": 10, "velocity": 75}, {"time": 1182, "pitch": 58, "duration": 6, "velocity": 63}, {"time": 1182, "pitch": 65, "duration": 6, "velocity": 74}, {"time": 1188, "pitch": 55, "duration": 6, "velocity": 50}, {"time": 1200, "pitch": 48, "duration": 38, "velocity": 75}, {"time": 1200, "pitch": 58, "duration": 8, "velocity": 58}, {"time": 1200, "pitch": 63, "duration": 9, "velocity": 72}, {"time": 1200, "pitch": 67, "duration": 12, "velocity": 72}, {"time": 1206, "pitch": 55, "duration": 15, "velocity": 54}, {"time": 1212, "pitch": 60, "duration": 18, "velocity": 42}, {"time": 1218, "pitch": 63, "duration": 2, "velocity": 77}, {"time": 1218, "pitch": 70, "duration": 3, "velocity": 78}, {"time": 1230, "pitch": 67, "duration": 8, "velocity": 71}, {"time": 1230, "pitch": 70, "duration": 6, "velocity": 75}, {"time": 1230, "pitch": 75, "duration": 8, "velocity": 80}, {"time": 1236, "pitch": 60, "duration": 3, "velocity": 67}, {"time": 1248, "pitch": 50, "duration": 10, "velocity": 76}, {"time": 1248, "pitch": 65, "duration": 7, "velocity": 61}, {"time": 1248, "pitch": 70, "duration": 6, "velocity": 69}, {"time": 1248, "pitch": 74, "duration": 10, "velocity": 61}, {"time": 1254, "pitch": 57, "duration": 5, "velocity": 56}, {"time": 1260, "pitch": 62, "duration": 8, "velocity": 54}, {"time": 1260, "pitch": 65, "duration": 4, "velocity": 61}, {"time": 1260, "pitch": 72, "duration": 5, "velocity": 75}, {"time": 1266, "pitch": 65, "duration": 16, "velocity": 28}, {"time": 1266, "pitch": 70, "duration": 3, "velocity": 78}, {"time": 1266, "pitch": 77, "duration": 5, "velocity": 69}, {"time": 1284, "pitch": 81, "duration": 4, "velocity": 59}, {"time": 1290, "pitch": 82, "duration": 14, "velocity": 69}, {"time": 1296, "pitch": 48, "duration": 37, "velocity": 69}, {"time": 1296, "pitch": 70, "duration": 8, "velocity": 54}, {"time": 1296, "pitch": 75, "duration": 8, "velocity": 68}, {"time": 1302, "pitch": 55, "duration": 15, "velocity": 57}, {"time": 1308, "pitch": 60, "duration": 14, "velocity": 58}, {"time": 1314, "pitch": 63, "duration": 10, "velocity": 75}, {"time": 1326, "pitch": 67, "duration": 7, "velocity": 71}, {"time": 1332, "pitch": 55, "duration": 3, "velocity": 52}, {"time": 1338, "pitch": 70, "duration": 4, "velocity": 68}, {"time": 1344, "pitch": 41, "duration": 34, "velocity": 74}, {"time": 1344, "pitch": 58, "duration": 6, "velocity": 73}, {"time": 1344, "pitch": 63, "duration": 7, "velocity": 69}, {"time": 1344, "pitch": 67, "duration": 7, "velocity": 73}, {"time": 1356, "pitch": 53, "duration": 8, "velocity": 57}, {"time": 1356, "pitch": 60, "duration": 5, "velocity": 69}, {"time": 1356, "pitch": 65, "duration": 5, "velocity": 72}, {"time": 1356, "pitch": 69, "duration": 4, "velocity": 75}, {"time": 1368, "pitch": 53, "duration": 4, "velocity": 55}, {"time": 1368, "pitch": 58, "duration": 2, "velocity": 81}, {"time": 1368, "pitch": 63, "duration": 2, "velocity": 80}, {"time": 1368, "pitch": 70, "duration": 3, "velocity": 74}, {"time": 1380, "pitch": 45, "duration": 11, "velocity": 77}, {"time": 1392, "pitch": 46, "duration": 45, "velocity": 83}, {"time": 1392, "pitch": 60, "duration": 13, "velocity": 73}, {"time": 1392, "pitch": 62, "duration": 14, "velocity": 72}, {"time": 1392, "pitch": 65, "duration": 9, "velocity": 75}, {"time": 1392, "pitch": 70, "duration": 15, "velocity": 80}, {"time": 1398, "pitch": 53, "duration": 37, "velocity": 72}, {"time": 1404, "pitch": 58, "duration": 7, "velocity": 71}, {"time": 1410, "pitch": 60, "duration": 6, "velocity": 77}, {"time": 1410, "pitch": 65, "duration": 10, "velocity": 79}, {"time": 1416, "pitch": 58, "duration": 7, "velocity": 33}, {"time": 1422, "pitch": 62, "duration": 4, "velocity": 68}, {"time": 1422, "pitch": 70, "duration": 6, "velocity": 79}, {"time": 1428, "pitch": 58, "duration": 4, "velocity": 56}, {"time": 1428, "pitch": 60, "duration": 4, "velocity": 73}, {"time": 1428, "pitch": 69, "duration": 6, "velocity": 79}, {"time": 1434, "pitch": 70, "duration": 6, "velocity": 79}, {"time": 1440, "pitch": 43, "duration": 10, "velocity": 79}, {"time": 1440, "pitch": 62, "duration": 9, "velocity": 76}, {"time": 1440, "pitch": 69, "duration": 6, "velocity": 84}, {"time": 1446, "pitch": 50, "duration": 6, "velocity": 68}, {"time": 1446, "pitch": 70, "duration": 5, "velocity": 80}, {"time": 1452, "pitch": 53, "duration": 7, "velocity": 48}, {"time": 1452, "pitch": 62, "duration": 3, "velocity": 57}, {"time": 1452, "pitch": 69, "duration": 7, "velocity": 77}, {"time": 1458, "pitch": 55, "duration": 20, "velocity": 75}, {"time": 1458, "pitch": 62, "duration": 7, "velocity": 71}, {"time": 1458, "pitch": 65, "duration": 6, "velocity": 79}, {"time": 1464, "pitch": 58, "duration": 11, "velocity": 72}, {"time": 1470, "pitch": 65, "duration": 5, "velocity": 79}, {"time": 1476, "pitch": 67, "duration": 6, "velocity": 77}, {"time": 1482, "pitch": 70, "duration": 5, "velocity": 79}, {"time": 1488, "pitch": 39, "duration": 6, "velocity": 79}, {"time": 1488, "pitch": 58, "duration": 15, "velocity": 62}, {"time": 1488, "pitch": 63, "duration": 15, "velocity": 76}, {"time": 1488, "pitch": 67, "duration": 19, "velocity": 75}, {"time": 1494, "pitch": 51, "duration": 7, "velocity": 68}, {"time": 1500, "pitch": 53, "duration": 27, "velocity": 72}, {"time": 1506, "pitch": 55, "duration": 14, "velocity": 76}, {"time": 1512, "pitch": 58, "duration": 8, "velocity": 78}, {"time": 1518, "pitch": 63, "duration": 9, "velocity": 84}, {"time": 1524, "pitch": 55, "duration": 2, "velocity": 80}, {"time": 1530, "pitch": 58, "duration": 4, "velocity": 75}, {"time": 1536, "pitch": 41, "duration": 14, "velocity": 82}, {"time": 1536, "pitch": 58, "duration": 10, "velocity": 81}, {"time": 1536, "pitch": 63, "duration": 11, "velocity": 80}, {"time": 1536, "pitch": 67, "duration": 11, "velocity": 79}, {"time": 1542, "pitch": 48, "duration": 9, "velocity": 75}, {"time": 1548, "pitch": 53, "duration": 4, "velocity": 69}, {"time": 1554, "pitch": 58, "duration": 3, "velocity": 75}, {"time": 1560, "pitch": 41, "duration": 9, "velocity": 78}, {"time": 1560, "pitch": 60, "duration": 6, "velocity": 78}, {"time": 1560, "pitch": 65, "duration": 6, "velocity": 75}, {"time": 1560, "pitch": 69, "duration": 5, "velocity": 82}, {"time": 1566, "pitch": 48, "duration": 6, "velocity": 71}, {"time": 1572, "pitch": 53, "duration": 7, "velocity": 54}, {"time": 1572, "pitch": 62, "duration": 3, "velocity": 76}, {"time": 1572, "pitch": 70, "duration": 3, "velocity": 79}, {"time": 1578, "pitch": 55, "duration": 2, "velocity": 63}, {"time": 1578, "pitch": 63, "duration": 3, "velocity": 63}, {"time": 1578, "pitch": 72, "duration": 3, "velocity": 79}, {"time": 1584, "pitch": 46, "duration": 8, "velocity": 83}, {"time": 1584, "pitch": 65, "duration": 9, "velocity": 72}, {"time": 1584, "pitch": 74, "duration": 8, "velocity": 82}, {"time": 1590, "pitch": 53, "duration": 5, "velocity": 71}, {"time": 1596, "pitch": 58, "duration": 7, "velocity": 68}, {"time": 1602, "pitch": 60, "duration": 7, "velocity": 75}, {"time": 1602, "pitch": 67, "duration": 4, "velocity": 68}, {"time": 1602, "pitch": 75, "duration": 3, "velocity": 78}, {"time": 1608, "pitch": 62, "duration": 6, "velocity": 60}, {"time": 1608, "pitch": 67, "duration": 5, "velocity": 75}, {"time": 1608, "pitch": 75, "duration": 3, "velocity": 80}, {"time": 1614, "pitch": 60, "duration": 5, "velocity": 54}, {"time": 1617, "pitch": 65, "duration": 6, "velocity": 71}, {"time": 1617, "pitch": 74, "duration": 7, "velocity": 79}, {"time": 1620, "pitch": 58, "duration": 5, "velocity": 17}, {"time": 1626, "pitch": 55, "duration": 2, "velocity": 72}, {"time": 1626, "pitch": 65, "duration": 2, "velocity": 33}, {"time": 1626, "pitch": 72, "duration": 4, "velocity": 81}, {"time": 1632, "pitch": 43, "duration": 12, "velocity": 80}, {"time": 1632, "pitch": 65, "duration": 11, "velocity": 52}, {"time": 1632, "pitch": 70, "duration": 11, "velocity": 77}, {"time": 1638, "pitch": 50, "duration": 7, "velocity": 75}, {"time": 1644, "pitch": 53, "duration": 8, "velocity": 69}, {"time": 1650, "pitch": 55, "duration": 22, "velocity": 73}, {"time": 1656, "pitch": 58, "duration": 14, "velocity": 82}, {"time": 1662, "pitch": 62, "duration": 4, "velocity": 73}, {"time": 1665, "pitch": 69, "duration": 3, "velocity": 82}, {"time": 1668, "pitch": 70, "duration": 3, "velocity": 79}, {"time": 1671, "pitch": 69, "duration": 3, "velocity": 79}, {"time": 1674, "pitch": 65, "duration": 2, "velocity": 61}, {"time": 1677, "pitch": 62, "duration": 3, "velocity": 72}, {"time": 1680, "pitch": 39, "duration": 42, "velocity": 82}, {"time": 1680, "pitch": 58, "duration": 12, "velocity": 80}, {"time": 1686, "pitch": 46, "duration": 37, "velocity": 78}, {"time": 1686, "pitch": 63, "duration": 15, "velocity": 80}, {"time": 1692, "pitch": 55, "duration": 10, "velocity": 59}, {"time": 1692, "pitch": 62, "duration": 11, "velocity": 80}, {"time": 1698, "pitch": 51, "duration": 13, "velocity": 62}, {"time": 1704, "pitch": 55, "duration": 14, "velocity": 61}, {"time": 1704, "pitch": 58, "duration": 14, "velocity": 78}, {"time": 1704, "pitch": 63, "duration": 14, "velocity": 77}, {"time": 1716, "pitch": 51, "duration": 7, "velocity": 58}, {"time": 1722, "pitch": 55, "duration": 3, "velocity": 70}, {"time": 1728, "pitch": 36, "duration": 8, "velocity": 82}, {"time": 1728, "pitch": 55, "duration": 8, "velocity": 71}, {"time": 1728, "pitch": 58, "duration": 7, "velocity": 82}, {"time": 1728, "pitch": 63, "duration": 7, "velocity": 80}, {"time": 1734, "pitch": 48, "duration": 5, "velocity": 61}, {"time": 1734, "pitch": 62, "duration": 6, "velocity": 82}, {"time": 1740, "pitch": 60, "duration": 6, "velocity": 82}, {"time": 1746, "pitch": 39, "duration": 10, "velocity": 79}, {"time": 1746, "pitch": 51, "duration": 11, "velocity": 63}, {"time": 1746, "pitch": 55, "duration": 10, "velocity": 71}, {"time": 1746, "pitch": 58, "duration": 9, "velocity": 80}, {"time": 1746, "pitch": 63, "duration": 11, "velocity": 79}, {"time": 1776, "pitch": 46, "duration": 43, "velocity": 79}, {"time": 1776, "pitch": 60, "duration": 14, "velocity": 60}, {"time": 1776, "pitch": 62, "duration": 12, "velocity": 59}, {"time": 1776, "pitch": 65, "duration": 12, "velocity": 72}, {"time": 1776, "pitch": 70, "duration": 33, "velocity": 59}, {"time": 1782, "pitch": 53, "duration": 32, "velocity": 60}, {"time": 1788, "pitch": 58, "duration": 9, "velocity": 55}, {"time": 1794, "pitch": 63, "duration": 14, "velocity": 70}, {"time": 1794, "pitch": 67, "duration": 15, "velocity": 62}, {"time": 1806, "pitch": 58, "duration": 10, "velocity": 36}, {"time": 1812, "pitch": 60, "duration": 6, "velocity": 59}, {"time": 1812, "pitch": 65, "duration": 10, "velocity": 72}, {"time": 1818, "pitch": 53, "duration": 7, "velocity": 53}, {"time": 1824, "pitch": 46, "duration": 40, "velocity": 62}, {"time": 1824, "pitch": 62, "duration": 26, "velocity": 55}, {"time": 1824, "pitch": 65, "duration": 26, "velocity": 18}, {"time": 1824, "pitch": 70, "duration": 26, "velocity": 71}, {"time": 1842, "pitch": 53, "duration": 19, "velocity": 61}, {"time": 1848, "pitch": 58, "duration": 13, "velocity": 52}, {"time": 1854, "pitch": 62, "duration": 4, "velocity": 67}, {"time": 1860, "pitch": 65, "duration": 6, "velocity": 73}, {"time": 1866, "pitch": 70, "duration": 7, "velocity": 52}, {"time": 1872, "pitch": 51, "duration": 39, "velocity": 80}, {"time": 1872, "pitch": 66, "duration": 17, "velocity": 67}, {"time": 1872, "pitch": 75, "duration": 17, "velocity": 78}, {"time": 1878, "pitch": 58, "duration": 24, "velocity": 63}, {"time": 1884, "pitch": 63, "duration": 9, "velocity": 63}, {"time": 1890, "pitch": 72, "duration": 12, "velocity": 83}, {"time": 1896, "pitch": 63, "duration": 6, "velocity": 31}, {"time": 1902, "pitch": 66, "duration": 7, "velocity": 43}, {"time": 1902, "pitch": 70, "duration": 6, "velocity": 83}, {"time": 1908, "pitch": 58, "duration": 6, "velocity": 63}, {"time": 1914, "pitch": 63, "duration": 4, "velocity": 75}, {"time": 1917, "pitch": 65, "duration": 4, "velocity": 72}, {"time": 1920, "pitch": 46, "duration": 38, "velocity": 67}, {"time": 1920, "pitch": 66, "duration": 13, "velocity": 77}, {"time": 1926, "pitch": 53, "duration": 15, "velocity": 57}, {"time": 1926, "pitch": 65, "duration": 12, "velocity": 69}, {"time": 1932, "pitch": 58, "duration": 8, "velocity": 61}, {"time": 1938, "pitch": 63, "duration": 14, "velocity": 76}, {"time": 1950, "pitch": 58, "duration": 10, "velocity": 69}, {"time": 1956, "pitch": 53, "duration": 12, "velocity": 71}, {"time": 1962, "pitch": 63, "duration": 5, "velocity": 75}, {"time": 1968, "pitch": 46, "duration": 35, "velocity": 79}, {"time": 1968, "pitch": 60, "duration": 3, "velocity": 69}, {"time": 1970, "pitch": 62, "duration": 12, "velocity": 76}, {"time": 1974, "pitch": 53, "duration": 36, "velocity": 62}, {"time": 1980, "pitch": 58, "duration": 11, "velocity": 59}, {"time": 1986, "pitch": 60, "duration": 12, "velocity": 69}, {"time": 1986, "pitch": 62, "duration": 12, "velocity": 62}, {"time": 1986, "pitch": 65, "duration": 12, "velocity": 78}, {"time": 1998, "pitch": 58, "duration": 6, "velocity": 45}, {"time": 2004, "pitch": 60, "duration": 9, "velocity": 57}, {"time": 2004, "pitch": 70, "duration": 10, "velocity": 72}, {"time": 2010, "pitch": 65, "duration": 20, "velocity": 68}, {"time": 2016, "pitch": 46, "duration": 40, "velocity": 73}, {"time": 2016, "pitch": 60, "duration": 13, "velocity": 29}, {"time": 2016, "pitch": 62, "duration": 14, "velocity": 54}, {"time": 2016, "pitch": 70, "duration": 13, "velocity": 45}, {"time": 2022, "pitch": 53, "duration": 30, "velocity": 68}, {"time": 2028, "pitch": 58, "duration": 9, "velocity": 63}, {"time": 2034, "pitch": 60, "duration": 12, "velocity": 61}, {"time": 2034, "pitch": 62, "duration": 12, "velocity": 60}, {"time": 2034, "pitch": 65, "duration": 13, "velocity": 71}, {"time": 2034, "pitch": 70, "duration": 12, "velocity": 69}, {"time": 2046, "pitch": 58, "duration": 6, "velocity": 69}, {"time": 2052, "pitch": 60, "duration": 5, "velocity": 69}, {"time": 2052, "pitch": 62, "duration": 3, "velocity": 58}, {"time": 2052, "pitch": 65, "duration": 5, "velocity": 76}, {"time": 2052, "pitch": 70, "duration": 4, "velocity": 69}, {"time": 2058, "pitch": 53, "duration": 7, "velocity": 68}, {"time": 2064, "pitch": 46, "duration": 37, "velocity": 63}, {"time": 2064, "pitch": 60, "duration": 14, "velocity": 58}, {"time": 2064, "pitch": 63, "duration": 14, "velocity": 72}, {"time": 2064, "pitch": 66, "duration": 15, "velocity": 62}, {"time": 2070, "pitch": 54, "duration": 36, "velocity": 68}, {"time": 2076, "pitch": 58, "duration": 17, "velocity": 57}, {"time": 2082, "pitch": 60, "duration": 20, "velocity": 62}, {"time": 2082, "pitch": 66, "duration": 22, "velocity": 60}, {"time": 2094, "pitch": 63, "duration": 9, "velocity": 67}, {"time": 2100, "pitch": 58, "duration": 5, "velocity": 58}, {"time": 2106, "pitch": 60, "duration": 23, "velocity": 58}, {"time": 2112, "pitch": 46, "duration": 41, "velocity": 56}, {"time": 2112, "pitch": 54, "duration": 33, "velocity": 69}, {"time": 2112, "pitch": 58, "duration": 10, "velocity": 36}, {"time": 2112, "pitch": 63, "duration": 17, "velocity": 75}, {"time": 2130, "pitch": 58, "duration": 17, "velocity": 49}, {"time": 2136, "pitch": 65, "duration": 6, "velocity": 78}, {"time": 2142, "pitch": 66, "duration": 6, "velocity": 74}, {"time": 2148, "pitch": 63, "duration": 6, "velocity": 40}, {"time": 2154, "pitch": 60, "duration": 5, "velocity": 59}, {"time": 2160, "pitch": 46, "duration": 38, "velocity": 55}, {"time": 2160, "pitch": 58, "duration": 14, "velocity": 63}, {"time": 2160, "pitch": 60, "duration": 3, "velocity": 69}, {"time": 2162, "pitch": 62, "duration": 33, "velocity": 76}, {"time": 2178, "pitch": 53, "duration": 15, "velocity": 68}, {"time": 2178, "pitch": 58, "duration": 15, "velocity": 70}, {"time": 2196, "pitch": 53, "duration": 8, "velocity": 55}, {"time": 2196, "pitch": 58, "duration": 7, "velocity": 62}, {"time": 2196, "pitch": 63, "duration": 9, "velocity": 73}, {"time": 2202, "pitch": 46, "duration": 4, "velocity": 57}, {"time": 2208, "pitch": 51, "duration": 34, "velocity": 78}, {"time": 2208, "pitch": 55, "duration": 13, "velocity": 62}, {"time": 2208, "pitch": 58, "duration": 14, "velocity": 79}, {"time": 2208, "pitch": 63, "duration": 15, "velocity": 72}, {"time": 2226, "pitch": 55, "duration": 5, "velocity": 59}, {"time": 2226, "pitch": 58, "duration": 7, "velocity": 31}, {"time": 2226, "pitch": 62, "duration": 8, "velocity": 71}, {"time": 2244, "pitch": 67, "duration": 3, "velocity": 56}, {"time": 2244, "pitch": 75, "duration": 3, "velocity": 80}, {"time": 2250, "pitch": 65, "duration": 3, "velocity": 55}, {"time": 2250, "pitch": 74, "duration": 6, "velocity": 73}, {"time": 2256, "pitch": 46, "duration": 13, "velocity": 69}, {"time": 2256, "pitch": 65, "duration": 13, "velocity": 60}, {"time": 2256, "pitch": 72, "duration": 14, "velocity": 75}, {"time": 2262, "pitch": 53, "duration": 7, "velocity": 50}, {"time": 2268, "pitch": 58, "duration": 8, "velocity": 58}, {"time": 2274, "pitch": 60, "duration": 19, "velocity": 68}, {"time": 2274, "pitch": 65, "duration": 8, "velocity": 63}, {"time": 2274, "pitch": 70, "duration": 11, "velocity": 76}, {"time": 2286, "pitch": 62, "duration": 7, "velocity": 54}, {"time": 2292, "pitch": 65, "duration": 4, "velocity": 63}, {"time": 2295, "pitch": 70, "duration": 4, "velocity": 73}, {"time": 2298, "pitch": 72, "duration": 2, "velocity": 50}, {"time": 2304, "pitch": 51, "duration": 40, "velocity": 73}, {"time": 2304, "pitch": 67, "duration": 13, "velocity": 55}, {"time": 2304, "pitch": 75, "duration": 13, "velocity": 86}, {"time": 2310, "pitch": 58, "duration": 23, "velocity": 54}, {"time": 2316, "pitch": 63, "duration": 18, "velocity": 63}, {"time": 2322, "pitch": 65, "duration": 8, "velocity": 60}, {"time": 2328, "pitch": 70, "duration": 6, "velocity": 73}, {"time": 2334, "pitch": 69, "duration": 7, "velocity": 73}, {"time": 2340, "pitch": 58, "duration": 4, "velocity": 75}, {"time": 2340, "pitch": 65, "duration": 23, "velocity": 67}, {"time": 2346, "pitch": 58, "duration": 13, "velocity": 63}, {"time": 2352, "pitch": 48, "duration": 31, "velocity": 40}, {"time": 2352, "pitch": 63, "duration": 13, "velocity": 63}, {"time": 2352, "pitch": 67, "duration": 20, "velocity": 71}, {"time": 2358, "pitch": 55, "duration": 15, "velocity": 50}, {"time": 2364, "pitch": 60, "duration": 17, "velocity": 56}, {"time": 2370, "pitch": 63, "duration": 9, "velocity": 71}, {"time": 2370, "pitch": 70, "duration": 13, "velocity": 78}, {"time": 2382, "pitch": 55, "duration": 17, "velocity": 55}, {"time": 2388, "pitch": 58, "duration": 6, "velocity": 77}, {"time": 2394, "pitch": 67, "duration": 8, "velocity": 63}, {"time": 2400, "pitch": 50, "duration": 42, "velocity": 72}, {"time": 2400, "pitch": 60, "duration": 8, "velocity": 59}, {"time": 2400, "pitch": 65, "duration": 10, "velocity": 74}, {"time": 2406, "pitch": 57, "duration": 22, "velocity": 56}, {"time": 2412, "pitch": 62, "duration": 19, "velocity": 67}, {"time": 2418, "pitch": 65, "duration": 8, "velocity": 60}, {"time": 2424, "pitch": 72, "duration": 6, "velocity": 75}, {"time": 2430, "pitch": 69, "duration": 7, "velocity": 72}, {"time": 2436, "pitch": 57, "duration": 5, "velocity": 69}, {"time": 2436, "pitch": 65, "duration": 6, "velocity": 49}, {"time": 2442, "pitch": 60, "duration": 7, "velocity": 56}, {"time": 2448, "pitch": 48, "duration": 12, "velocity": 70}, {"time": 2448, "pitch": 63, "duration": 12, "velocity": 74}, {"time": 2448, "pitch": 67, "duration": 13, "velocity": 70}, {"time": 2454, "pitch": 55, "duration": 6, "velocity": 54}, {"time": 2460, "pitch": 58, "duration": 7, "velocity": 62}, {"time": 2466, "pitch": 60, "duration": 17, "velocity": 75}, {"time": 2472, "pitch": 62, "duration": 10, "velocity": 75}, {"time": 2478, "pitch": 67, "duration": 11, "velocity": 58}, {"time": 2484, "pitch": 70, "duration": 8, "velocity": 76}, {"time": 2496, "pitch": 41, "duration": 10, "velocity": 57}, {"time": 2496, "pitch": 65, "duration": 6, "velocity": 54}, {"time": 2496, "pitch": 74, "duration": 11, "velocity": 75}, {"time": 2502, "pitch": 48, "duration": 6, "velocity": 56}, {"time": 2508, "pitch": 53, "duration": 9, "velocity": 38}, {"time": 2508, "pitch": 67, "duration": 4, "velocity": 50}, {"time": 2508, "pitch": 75, "duration": 4, "velocity": 63}, {"time": 2514, "pitch": 55, "duration": 8, "velocity": 52}, {"time": 2520, "pitch": 57, "duration": 15, "velocity": 68}, {"time": 2520, "pitch": 69, "duration": 3, "velocity": 68}, {"time": 2520, "pitch": 77, "duration": 4, "velocity": 71}, {"time": 2538, "pitch": 67, "duration": 3, "velocity": 68}, {"time": 2538, "pitch": 75, "duration": 3, "velocity": 78}, {"time": 2544, "pitch": 46, "duration": 40, "velocity": 68}, {"time": 2544, "pitch": 65, "duration": 9, "velocity": 57}, {"time": 2544, "pitch": 74, "duration": 8, "velocity": 74}, {"time": 2550, "pitch": 53, "duration": 35, "velocity": 58}, {"time": 2556, "pitch": 58, "duration": 12, "velocity": 61}, {"time": 2562, "pitch": 60, "duration": 12, "velocity": 56}, {"time": 2562, "pitch": 62, "duration": 13, "velocity": 61}, {"time": 2562, "pitch": 65, "duration": 12, "velocity": 61}, {"time": 2574, "pitch": 58, "duration": 9, "velocity": 51}, {"time": 2580, "pitch": 60, "duration": 6, "velocity": 75}, {"time": 2586, "pitch": 65, "duration": 6, "velocity": 73}, {"time": 2592, "pitch": 51, "duration": 41, "velocity": 72}, {"time": 2592, "pitch": 58, "duration": 8, "velocity": 59}, {"time": 2592, "pitch": 63, "duration": 8, "velocity": 75}, {"time": 2592, "pitch": 67, "duration": 9, "velocity": 68}, {"time": 2598, "pitch": 55, "duration": 22, "velocity": 59}, {"time": 2604, "pitch": 58, "duration": 15, "velocity": 63}, {"time": 2610, "pitch": 65, "duration": 18, "velocity": 68}, {"time": 2634, "pitch": 58, "duration": 2, "velocity": 60}, {"time": 2634, "pitch": 63, "duration": 6, "velocity": 77}, {"time": 2640, "pitch": 46, "duration": 43, "velocity": 68}, {"time": 2640, "pitch": 60, "duration": 10, "velocity": 53}, {"time": 2640, "pitch": 62, "duration": 9, "velocity": 56}, {"time": 2640, "pitch": 65, "duration": 12, "velocity": 72}, {"time": 2646, "pitch": 53, "duration": 32, "velocity": 62}, {"time": 2652, "pitch": 58, "duration": 9, "velocity": 57}, {"time": 2658, "pitch": 60, "duration": 9, "velocity": 59}, {"time": 2658, "pitch": 62, "duration": 11, "velocity": 69}, {"time": 2658, "pitch": 65, "duration": 8, "velocity": 72}, {"time": 2670, "pitch": 58, "duration": 7, "velocity": 52}, {"time": 2676, "pitch": 60, "duration": 6, "velocity": 75}, {"time": 2676, "pitch": 62, "duration": 4, "velocity": 75}, {"time": 2676, "pitch": 65, "duration": 6, "velocity": 78}, {"time": 2679, "pitch": 58, "duration": 3, "velocity": 52}, {"time": 2682, "pitch": 63, "duration": 4, "velocity": 71}, {"time": 2685, "pitch": 65, "duration": 3, "velocity": 76}, {"time": 2688, "pitch": 51, "duration": 28, "velocity": 75}, {"time": 2688, "pitch": 58, "duration": 6, "velocity": 72}, {"time": 2688, "pitch": 63, "duration": 7, "velocity": 71}, {"time": 2688, "pitch": 67, "duration": 8, "velocity": 76}, {"time": 2694, "pitch": 55, "duration": 18, "velocity": 53}, {"time": 2700, "pitch": 58, "duration": 5, "velocity": 63}, {"time": 2706, "pitch": 58, "duration": 9, "velocity": 45}, {"time": 2706, "pitch": 65, "duration": 9, "velocity": 68}, {"time": 2718, "pitch": 51, "duration": 7, "velocity": 73}, {"time": 2724, "pitch": 50, "duration": 9, "velocity": 75}, {"time": 2724, "pitch": 58, "duration": 8, "velocity": 72}, {"time": 2724, "pitch": 65, "duration": 8, "velocity": 75}, {"time": 2724, "pitch": 70, "duration": 5, "velocity": 50}, {"time": 2730, "pitch": 70, "duration": 4, "velocity": 18}, {"time": 2736, "pitch": 48, "duration": 43, "velocity": 72}, {"time": 2736, "pitch": 58, "duration": 8, "velocity": 62}, {"time": 2736, "pitch": 63, "duration": 7, "velocity": 71}, {"time": 2736, "pitch": 67, "duration": 8, "velocity": 70}, {"time": 2736, "pitch": 70, "duration": 15, "velocity": 36}, {"time": 2742, "pitch": 55, "duration": 18, "velocity": 56}, {"time": 2748, "pitch": 58, "duration": 19, "velocity": 75}, {"time": 2754, "pitch": 63, "duration": 13, "velocity": 80}, {"time": 2766, "pitch": 55, "duration": 7, "velocity": 59}, {"time": 2772, "pitch": 58, "duration": 7, "velocity": 74}, {"time": 2772, "pitch": 63, "duration": 9, "velocity": 72}, {"time": 2772, "pitch": 67, "duration": 9, "velocity": 75}, {"time": 2778, "pitch": 55, "duration": 7, "velocity": 58}, {"time": 2784, "pitch": 50, "duration": 38, "velocity": 77}, {"time": 2784, "pitch": 60, "duration": 7, "velocity": 69}, {"time": 2784, "pitch": 65, "duration": 7, "velocity": 76}, {"time": 2790, "pitch": 57, "duration": 16, "velocity": 72}, {"time": 2796, "pitch": 60, "duration": 19, "velocity": 60}, {"time": 2802, "pitch": 65, "duration": 13, "velocity": 74}, {"time": 2802, "pitch": 72, "duration": 12, "velocity": 75}, {"time": 2814, "pitch": 57, "duration": 8, "velocity": 72}, {"time": 2820, "pitch": 65, "duration": 6, "velocity": 73}, {"time": 2826, "pitch": 70, "duration": 19, "velocity": 73}, {"time": 2832, "pitch": 48, "duration": 41, "velocity": 62}, {"time": 2832, "pitch": 58, "duration": 6, "velocity": 70}, {"time": 2832, "pitch": 63, "duration": 11, "velocity": 72}, {"time": 2832, "pitch": 67, "duration": 11, "velocity": 63}, {"time": 2838, "pitch": 55, "duration": 36, "velocity": 56}, {"time": 2844, "pitch": 60, "duration": 18, "velocity": 57}, {"time": 2850, "pitch": 63, "duration": 3, "velocity": 51}, {"time": 2862, "pitch": 67, "duration": 3, "velocity": 58}, {"time": 2862, "pitch": 75, "duration": 3, "velocity": 75}, {"time": 2868, "pitch": 60, "duration": 4, "velocity": 59}, {"time": 2868, "pitch": 65, "duration": 3, "velocity": 57}, {"time": 2868, "pitch": 74, "duration": 2, "velocity": 73}, {"time": 2874, "pitch": 69, "duration": 1, "velocity": 38}, {"time": 2880, "pitch": 41, "duration": 25, "velocity": 79}, {"time": 2886, "pitch": 53, "duration": 9, "velocity": 48}, {"time": 2892, "pitch": 58, "duration": 5, "velocity": 73}, {"time": 2892, "pitch": 63, "duration": 5, "velocity": 73}, {"time": 2892, "pitch": 67, "duration": 5, "velocity": 75}, {"time": 2898, "pitch": 53, "duration": 6, "velocity": 48}, {"time": 2904, "pitch": 43, "duration": 3, "velocity": 79}, {"time": 2904, "pitch": 60, "duration": 3, "velocity": 80}, {"time": 2904, "pitch": 65, "duration": 4, "velocity": 76}, {"time": 2904, "pitch": 69, "duration": 3, "velocity": 84}, {"time": 2916, "pitch": 58, "duration": 3, "velocity": 76}, {"time": 2916, "pitch": 63, "duration": 4, "velocity": 75}, {"time": 2916, "pitch": 67, "duration": 5, "velocity": 75}, {"time": 2928, "pitch": 34, "duration": 2, "velocity": 73}, {"time": 2928, "pitch": 62, "duration": 8, "velocity": 79}, {"time": 2928, "pitch": 65, "duration": 9, "velocity": 78}, {"time": 2928, "pitch": 70, "duration": 9, "velocity": 83}, {"time": 2934, "pitch": 46, "duration": 35, "velocity": 59}, {"time": 2940, "pitch": 53, "duration": 22, "velocity": 68}, {"time": 2940, "pitch": 60, "duration": 6, "velocity": 73}, {"time": 2940, "pitch": 62, "duration": 6, "velocity": 72}, {"time": 2940, "pitch": 65, "duration": 6, "velocity": 75}, {"time": 2940, "pitch": 70, "duration": 6, "velocity": 20}, {"time": 2946, "pitch": 58, "duration": 8, "velocity": 56}, {"time": 2952, "pitch": 60, "duration": 4, "velocity": 62}, {"time": 2952, "pitch": 62, "duration": 4, "velocity": 61}, {"time": 2952, "pitch": 65, "duration": 5, "velocity": 75}, {"time": 2958, "pitch": 58, "duration": 8, "velocity": 53}, {"time": 2964, "pitch": 67, "duration": 4, "velocity": 75}, {"time": 2964, "pitch": 75, "duration": 4, "velocity": 83}, {"time": 2970, "pitch": 53, "duration": 2, "velocity": 72}, {"time": 2970, "pitch": 65, "duration": 4, "velocity": 68}, {"time": 2970, "pitch": 74, "duration": 5, "velocity": 76}, {"time": 2976, "pitch": 43, "duration": 11, "velocity": 77}, {"time": 2976, "pitch": 65, "duration": 9, "velocity": 73}, {"time": 2976, "pitch": 72, "duration": 5, "velocity": 84}, {"time": 2982, "pitch": 50, "duration": 6, "velocity": 74}, {"time": 2982, "pitch": 74, "duration": 6, "velocity": 73}, {"time": 2988, "pitch": 53, "duration": 8, "velocity": 54}, {"time": 2988, "pitch": 65, "duration": 12, "velocity": 70}, {"time": 2988, "pitch": 70, "duration": 9, "velocity": 80}, {"time": 2994, "pitch": 55, "duration": 20, "velocity": 68}, {"time": 3000, "pitch": 58, "duration": 12, "velocity": 75}, {"time": 3006, "pitch": 62, "duration": 6, "velocity": 73}, {"time": 3009, "pitch": 65, "duration": 3, "velocity": 69}, {"time": 3012, "pitch": 69, "duration": 4, "velocity": 73}, {"time": 3015, "pitch": 70, "duration": 3, "velocity": 77}, {"time": 3018, "pitch": 72, "duration": 8, "velocity": 80}, {"time": 3021, "pitch": 70, "duration": 5, "velocity": 69}, {"time": 3024, "pitch": 51, "duration": 37, "velocity": 80}, {"time": 3024, "pitch": 67, "duration": 10, "velocity": 78}, {"time": 3030, "pitch": 58, "duration": 8, "velocity": 78}, {"time": 3036, "pitch": 63, "duration": 6, "velocity": 73}, {"time": 3042, "pitch": 58, "duration": 19, "velocity": 70}, {"time": 3042, "pitch": 65, "duration": 7, "velocity": 72}, {"time": 3048, "pitch": 63, "duration": 9, "velocity": 69}, {"time": 3048, "pitch": 67, "duration": 12, "velocity": 80}, {"time": 3060, "pitch": 46, "duration": 11, "velocity": 79}, {"time": 3066, "pitch": 58, "duration": 4, "velocity": 72}, {"time": 3072, "pitch": 36, "duration": 16, "velocity": 78}, {"time": 3072, "pitch": 58, "duration": 7, "velocity": 76}, {"time": 3072, "pitch": 63, "duration": 7, "velocity": 80}, {"time": 3072, "pitch": 67, "duration": 8, "velocity": 78}, {"time": 3072, "pitch": 70, "duration": 8, "velocity": 60}, {"time": 3078, "pitch": 48, "duration": 13, "velocity": 60}, {"time": 3084, "pitch": 58, "duration": 8, "velocity": 79}, {"time": 3090, "pitch": 70, "duration": 4, "velocity": 83}, {"time": 3096, "pitch": 41, "duration": 10, "velocity": 76}, {"time": 3096, "pitch": 60, "duration": 5, "velocity": 76}, {"time": 3096, "pitch": 65, "duration": 5, "velocity": 73}, {"time": 3096, "pitch": 69, "duration": 5, "velocity": 84}, {"time": 3102, "pitch": 48, "duration": 6, "velocity": 75}, {"time": 3108, "pitch": 53, "duration": 7, "velocity": 55}, {"time": 3108, "pitch": 62, "duration": 2, "velocity": 79}, {"time": 3108, "pitch": 70, "duration": 2, "velocity": 86}, {"time": 3114, "pitch": 55, "duration": 2, "velocity": 72}, {"time": 3114, "pitch": 63, "duration": 1, "velocity": 58}, {"time": 3114, "pitch": 65, "duration": 1, "velocity": 55}, {"time": 3114, "pitch": 72, "duration": 2, "velocity": 83}, {"time": 3120, "pitch": 46, "duration": 28, "velocity": 79}, {"time": 3120, "pitch": 65, "duration": 10, "velocity": 42}, {"time": 3120, "pitch": 74, "duration": 9, "velocity": 81}, {"time": 3126, "pitch": 53, "duration": 5, "velocity": 68}, {"time": 3132, "pitch": 58, "duration": 6, "velocity": 56}, {"time": 3138, "pitch": 60, "duration": 6, "velocity": 71}, {"time": 3138, "pitch": 63, "duration": 3, "velocity": 62}, {"time": 3138, "pitch": 72, "duration": 3, "velocity": 82}, {"time": 3144, "pitch": 62, "duration": 8, "velocity": 75}, {"time": 3144, "pitch": 70, "duration": 5, "velocity": 86}, {"time": 3156, "pitch": 46, "duration": 5, "velocity": 71}, {"time": 3156, "pitch": 62, "duration": 5, "velocity": 72}, {"time": 3156, "pitch": 70, "duration": 6, "velocity": 84}, {"time": 3162, "pitch": 45, "duration": 7, "velocity": 83}, {"time": 3162, "pitch": 69, "duration": 6, "velocity": 72}, {"time": 3168, "pitch": 43, "duration": 13, "velocity": 75}, {"time": 3168, "pitch": 62, "duration": 25, "velocity": 69}, {"time": 3168, "pitch": 65, "duration": 23, "velocity": 77}, {"time": 3168, "pitch": 70, "duration": 26, "velocity": 78}, {"time": 3174, "pitch": 50, "duration": 7, "velocity": 56}, {"time": 3180, "pitch": 53, "duration": 7, "velocity": 63}, {"time": 3186, "pitch": 55, "duration": 19, "velocity": 71}, {"time": 3192, "pitch": 58, "duration": 12, "velocity": 82}, {"time": 3198, "pitch": 62, "duration": 4, "velocity": 69}, {"time": 3201, "pitch": 65, "duration": 4, "velocity": 71}, {"time": 3204, "pitch": 69, "duration": 3, "velocity": 80}, {"time": 3207, "pitch": 70, "duration": 5, "velocity": 81}, {"time": 3210, "pitch": 65, "duration": 4, "velocity": 43}, {"time": 3213, "pitch": 58, "duration": 11, "velocity": 76}, {"time": 3216, "pitch": 39, "duration": 10, "velocity": 77}, {"time": 3216, "pitch": 63, "duration": 9, "velocity": 79}, {"time": 3216, "pitch": 67, "duration": 8, "velocity": 79}, {"time": 3222, "pitch": 46, "duration": 5, "velocity": 76}, {"time": 3228, "pitch": 51, "duration": 7, "velocity": 59}, {"time": 3228, "pitch": 58, "duration": 4, "velocity": 71}, {"time": 3228, "pitch": 65, "duration": 6, "velocity": 74}, {"time": 3234, "pitch": 53, "duration": 10, "velocity": 79}, {"time": 3234, "pitch": 58, "duration": 8, "velocity": 77}, {"time": 3234, "pitch": 63, "duration": 7, "velocity": 79}, {"time": 3234, "pitch": 67, "duration": 8, "velocity": 78}, {"time": 3240, "pitch": 55, "duration": 9, "velocity": 76}, {"time": 3246, "pitch": 53, "duration": 5, "velocity": 61}, {"time": 3246, "pitch": 58, "duration": 4, "velocity": 69}, {"time": 3252, "pitch": 51, "duration": 6, "velocity": 56}, {"time": 3252, "pitch": 58, "duration": 2, "velocity": 20}, {"time": 3252, "pitch": 63, "duration": 9, "velocity": 80}, {"time": 3258, "pitch": 46, "duration": 7, "velocity": 75}, {"time": 3264, "pitch": 39, "duration": 18, "velocity": 83}, {"time": 3264, "pitch": 58, "duration": 9, "velocity": 79}, {"time": 3264, "pitch": 63, "duration": 7, "velocity": 81}, {"time": 3264, "pitch": 67, "duration": 8, "velocity": 79}, {"time": 3270, "pitch": 51, "duration": 14, "velocity": 60}, {"time": 3276, "pitch": 58, "duration": 6, "velocity": 75}, {"time": 3288, "pitch": 41, "duration": 17, "velocity": 76}, {"time": 3288, "pitch": 60, "duration": 15, "velocity": 73}, {"time": 3288, "pitch": 65, "duration": 14, "velocity": 72}, {"time": 3288, "pitch": 69, "duration": 14, "velocity": 81}, {"time": 3294, "pitch": 48, "duration": 11, "velocity": 72}, {"time": 3300, "pitch": 53, "duration": 7, "velocity": 68}, {"time": 3312, "pitch": 46, "duration": 41, "velocity": 84}, {"time": 3312, "pitch": 62, "duration": 13, "velocity": 77}, {"time": 3312, "pitch": 65, "duration": 13, "velocity": 76}, {"time": 3312, "pitch": 70, "duration": 15, "velocity": 82}, {"time": 3318, "pitch": 53, "duration": 38, "velocity": 73}, {"time": 3324, "pitch": 58, "duration": 7, "velocity": 73}, {"time": 3330, "pitch": 60, "duration": 7, "velocity": 73}, {"time": 3330, "pitch": 63, "duration": 10, "velocity": 79}, {"time": 3330, "pitch": 67, "duration": 10, "velocity": 76}, {"time": 3342, "pitch": 62, "duration": 8, "velocity": 78}, {"time": 3342, "pitch": 65, "duration": 8, "velocity": 78}, {"time": 3342, "pitch": 70, "duration": 8, "velocity": 79}, {"time": 3348, "pitch": 58, "duration": 4, "velocity": 63}, {"time": 3354, "pitch": 62, "duration": 3, "velocity": 53}, {"time": 3360, "pitch": 41, "duration": 20, "velocity": 84}, {"time": 3360, "pitch": 53, "duration": 15, "velocity": 80}, {"time": 3360, "pitch": 60, "duration": 7, "velocity": 80}, {"time": 3360, "pitch": 65, "duration": 6, "velocity": 83}, {"time": 3360, "pitch": 72, "duration": 9, "velocity": 86}, {"time": 3372, "pitch": 60, "duration": 7, "velocity": 79}, {"time": 3372, "pitch": 65, "duration": 7, "velocity": 82}, {"time": 3372, "pitch": 69, "duration": 7, "velocity": 86}, {"time": 3378, "pitch": 53, "duration": 3, "velocity": 67}, {"time": 3384, "pitch": 41, "duration": 15, "velocity": 83}, {"time": 3384, "pitch": 53, "duration": 15, "velocity": 82}, {"time": 3384, "pitch": 60, "duration": 3, "velocity": 82}, {"time": 3384, "pitch": 65, "duration": 1, "velocity": 69}, {"time": 3384, "pitch": 67, "duration": 3, "velocity": 82}, {"time": 3396, "pitch": 58, "duration": 6, "velocity": 80}, {"time": 3396, "pitch": 63, "duration": 6, "velocity": 84}, {"time": 3396, "pitch": 67, "duration": 7, "velocity": 78}, {"time": 3402, "pitch": 41, "duration": 2, "velocity": 84}, {"time": 3408, "pitch": 34, "duration": 2, "velocity": 101}, {"time": 3408, "pitch": 62, "duration": 8, "velocity": 79}, {"time": 3408, "pitch": 65, "duration": 9, "velocity": 78}, {"time": 3408, "pitch": 70, "duration": 9, "velocity": 83}, {"time": 3414, "pitch": 46, "duration": 35, "velocity": 59}, {"time": 3420, "pitch": 53, "duration": 22, "velocity": 68}, {"time": 3420, "pitch": 60, "duration": 6, "velocity": 73}, {"time": 3420, "pitch": 62, "duration": 6, "velocity": 72}, {"time": 3420, "pitch": 65, "duration": 6, "velocity": 75}, {"time": 3420, "pitch": 70, "duration": 6, "velocity": 20}, {"time": 3426, "pitch": 58, "duration": 8, "velocity": 56}, {"time": 3432, "pitch": 60, "duration": 4, "velocity": 62}, {"time": 3432, "pitch": 62, "duration": 4, "velocity": 61}, {"time": 3432, "pitch": 65, "duration": 5, "velocity": 75}, {"time": 3438, "pitch": 58, "duration": 8, "velocity": 53}, {"time": 3444, "pitch": 67, "duration": 4, "velocity": 75}, {"time": 3444, "pitch": 75, "duration": 4, "velocity": 83}, {"time": 3450, "pitch": 53, "duration": 2, "velocity": 72}, {"time": 3450, "pitch": 65, "duration": 4, "velocity": 68}, {"time": 3450, "pitch": 74, "duration": 5, "velocity": 76}, {"time": 3456, "pitch": 43, "duration": 11, "velocity": 77}, {"time": 3456, "pitch": 65, "duration": 9, "velocity": 73}, {"time": 3456, "pitch": 72, "duration": 5, "velocity": 84}, {"time": 3462, "pitch": 50, "duration": 6, "velocity": 74}, {"time": 3462, "pitch": 74, "duration": 6, "velocity": 73}, {"time": 3468, "pitch": 53, "duration": 8, "velocity": 54}, {"time": 3468, "pitch": 65, "duration": 12, "velocity": 70}, {"time": 3468, "pitch": 70, "duration": 9, "velocity": 80}, {"time": 3474, "pitch": 55, "duration": 20, "velocity": 68}, {"time": 3480, "pitch": 58, "duration": 12, "velocity": 75}, {"time": 3486, "pitch": 62, "duration": 6, "velocity": 73}, {"time": 3489, "pitch": 65, "duration": 3, "velocity": 69}, {"time": 3492, "pitch": 69, "duration": 4, "velocity": 73}, {"time": 3495, "pitch": 70, "duration": 3, "velocity": 77}, {"time": 3498, "pitch": 72, "duration": 8, "velocity": 80}, {"time": 3501, "pitch": 70, "duration": 5, "velocity": 69}, {"time": 3504, "pitch": 51, "duration": 37, "velocity": 80}, {"time": 3504, "pitch": 67, "duration": 10, "velocity": 78}, {"time": 3510, "pitch": 58, "duration": 8, "velocity": 78}, {"time": 3516, "pitch": 63, "duration": 6, "velocity": 73}, {"time": 3522, "pitch": 58, "duration": 19, "velocity": 70}, {"time": 3522, "pitch": 65, "duration": 7, "velocity": 72}, {"time": 3528, "pitch": 63, "duration": 9, "velocity": 69}, {"time": 3528, "pitch": 67, "duration": 12, "velocity": 80}, {"time": 3540, "pitch": 46, "duration": 11, "velocity": 79}, {"time": 3546, "pitch": 58, "duration": 4, "velocity": 72}, {"time": 3552, "pitch": 36, "duration": 16, "velocity": 78}, {"time": 3552, "pitch": 58, "duration": 7, "velocity": 76}, {"time": 3552, "pitch": 63, "duration": 7, "velocity": 80}, {"time": 3552, "pitch": 67, "duration": 8, "velocity": 78}, {"time": 3552, "pitch": 70, "duration": 8, "velocity": 60}, {"time": 3558, "pitch": 48, "duration": 13, "velocity": 60}, {"time": 3564, "pitch": 58, "duration": 8, "velocity": 79}, {"time": 3570, "pitch": 70, "duration": 4, "velocity": 83}, {"time": 3576, "pitch": 41, "duration": 10, "velocity": 76}, {"time": 3576, "pitch": 60, "duration": 5, "velocity": 76}, {"time": 3576, "pitch": 65, "duration": 5, "velocity": 73}, {"time": 3576, "pitch": 69, "duration": 5, "velocity": 84}, {"time": 3582, "pitch": 48, "duration": 6, "velocity": 75}, {"time": 3588, "pitch": 53, "duration": 7, "velocity": 55}, {"time": 3588, "pitch": 62, "duration": 2, "velocity": 79}, {"time": 3588, "pitch": 70, "duration": 2, "velocity": 86}, {"time": 3594, "pitch": 55, "duration": 2, "velocity": 72}, {"time": 3594, "pitch": 63, "duration": 1, "velocity": 58}, {"time": 3594, "pitch": 65, "duration": 1, "velocity": 55}, {"time": 3594, "pitch": 72, "duration": 2, "velocity": 83}, {"time": 3600, "pitch": 46, "duration": 8, "velocity": 79}, {"time": 3600, "pitch": 65, "duration": 10, "velocity": 42}, {"time": 3600, "pitch": 74, "duration": 9, "velocity": 81}, {"time": 3606, "pitch": 53, "duration": 5, "velocity": 68}, {"time": 3612, "pitch": 58, "duration": 6, "velocity": 56}, {"time": 3618, "pitch": 60, "duration": 6, "velocity": 71}, {"time": 3618, "pitch": 63, "duration": 3, "velocity": 62}, {"time": 3618, "pitch": 72, "duration": 3, "velocity": 82}, {"time": 3624, "pitch": 62, "duration": 8, "velocity": 75}, {"time": 3624, "pitch": 70, "duration": 5, "velocity": 86}, {"time": 3636, "pitch": 46, "duration": 5, "velocity": 71}, {"time": 3636, "pitch": 62, "duration": 5, "velocity": 72}, {"time": 3636, "pitch": 70, "duration": 6, "velocity": 84}, {"time": 3642, "pitch": 45, "duration": 7, "velocity": 83}, {"time": 3642, "pitch": 69, "duration": 6, "velocity": 72}, {"time": 3648, "pitch": 43, "duration": 13, "velocity": 75}, {"time": 3648, "pitch": 62, "duration": 25, "velocity": 69}, {"time": 3648, "pitch": 65, "duration": 23, "velocity": 77}, {"time": 3648, "pitch": 70, "duration": 26, "velocity": 78}, {"time": 3654, "pitch": 50, "duration": 7, "velocity": 56}, {"time": 3660, "pitch": 53, "duration": 7, "velocity": 63}, {"time": 3666, "pitch": 55, "duration": 19, "velocity": 71}, {"time": 3672, "pitch": 58, "duration": 12, "velocity": 82}, {"time": 3678, "pitch": 62, "duration": 4, "velocity": 69}, {"time": 3681, "pitch": 65, "duration": 4, "velocity": 71}, {"time": 3684, "pitch": 69, "duration": 3, "velocity": 80}, {"time": 3687, "pitch": 70, "duration": 5, "velocity": 81}, {"time": 3690, "pitch": 65, "duration": 4, "velocity": 43}, {"time": 3693, "pitch": 58, "duration": 11, "velocity": 76}, {"time": 3696, "pitch": 39, "duration": 10, "velocity": 77}, {"time": 3696, "pitch": 63, "duration": 9, "velocity": 79}, {"time": 3696, "pitch": 67, "duration": 8, "velocity": 79}, {"time": 3702, "pitch": 46, "duration": 5, "velocity": 76}, {"time": 3708, "pitch": 51, "duration": 7, "velocity": 59}, {"time": 3708, "pitch": 58, "duration": 4, "velocity": 71}, {"time": 3708, "pitch": 65, "duration": 6, "velocity": 74}, {"time": 3714, "pitch": 53, "duration": 10, "velocity": 79}, {"time": 3714, "pitch": 58, "duration": 8, "velocity": 77}, {"time": 3714, "pitch": 63, "duration": 7, "velocity": 79}, {"time": 3714, "pitch": 67, "duration": 8, "velocity": 78}, {"time": 3720, "pitch": 55, "duration": 9, "velocity": 76}, {"time": 3726, "pitch": 53, "duration": 5, "velocity": 61}, {"time": 3726, "pitch": 58, "duration": 4, "velocity": 69}, {"time": 3732, "pitch": 51, "duration": 6, "velocity": 56}, {"time": 3732, "pitch": 58, "duration": 2, "velocity": 20}, {"time": 3732, "pitch": 63, "duration": 9, "velocity": 80}, {"time": 3738, "pitch": 46, "duration": 7, "velocity": 75}, {"time": 3744, "pitch": 39, "duration": 18, "velocity": 83}, {"time": 3744, "pitch": 58, "duration": 9, "velocity": 79}, {"time": 3744, "pitch": 63, "duration": 7, "velocity": 81}, {"time": 3744, "pitch": 67, "duration": 8, "velocity": 79}, {"time": 3750, "pitch": 51, "duration": 14, "velocity": 60}, {"time": 3756, "pitch": 58, "duration": 6, "velocity": 75}, {"time": 3768, "pitch": 41, "duration": 17, "velocity": 76}, {"time": 3768, "pitch": 60, "duration": 15, "velocity": 73}, {"time": 3768, "pitch": 65, "duration": 14, "velocity": 72}, {"time": 3768, "pitch": 69, "duration": 14, "velocity": 81}, {"time": 3774, "pitch": 48, "duration": 11, "velocity": 72}, {"time": 3780, "pitch": 53, "duration": 7, "velocity": 68}, {"time": 3792, "pitch": 43, "duration": 18, "velocity": 80}, {"time": 3792, "pitch": 62, "duration": 15, "velocity": 59}, {"time": 3792, "pitch": 70, "duration": 15, "velocity": 90}, {"time": 3798, "pitch": 50, "duration": 12, "velocity": 72}, {"time": 3804, "pitch": 55, "duration": 5, "velocity": 68}, {"time": 3810, "pitch": 62, "duration": 3, "velocity": 72}, {"time": 3810, "pitch": 70, "duration": 6, "velocity": 82}, {"time": 3816, "pitch": 41, "duration": 12, "velocity": 73}, {"time": 3816, "pitch": 60, "duration": 8, "velocity": 71}, {"time": 3816, "pitch": 69, "duration": 11, "velocity": 84}, {"time": 3822, "pitch": 50, "duration": 8, "velocity": 62}, {"time": 3828, "pitch": 53, "duration": 4, "velocity": 69}, {"time": 3828, "pitch": 60, "duration": 4, "velocity": 61}, {"time": 3828, "pitch": 65, "duration": 4, "velocity": 75}, {"time": 3840, "pitch": 51, "duration": 22, "velocity": 41}, {"time": 3840, "pitch": 58, "duration": 8, "velocity": 73}, {"time": 3840, "pitch": 63, "duration": 8, "velocity": 75}, {"time": 3840, "pitch": 67, "duration": 9, "velocity": 78}, {"time": 3846, "pitch": 55, "duration": 16, "velocity": 73}, {"time": 3852, "pitch": 58, "duration": 7, "velocity": 62}, {"time": 3858, "pitch": 67, "duration": 5, "velocity": 73}, {"time": 3864, "pitch": 50, "duration": 15, "velocity": 67}, {"time": 3864, "pitch": 58, "duration": 7, "velocity": 76}, {"time": 3864, "pitch": 65, "duration": 8, "velocity": 79}, {"time": 3870, "pitch": 53, "duration": 9, "velocity": 69}, {"time": 3876, "pitch": 58, "duration": 4, "velocity": 72}, {"time": 3882, "pitch": 65, "duration": 4, "velocity": 76}, {"time": 3888, "pitch": 48, "duration": 18, "velocity": 72}, {"time": 3888, "pitch": 58, "duration": 8, "velocity": 70}, {"time": 3888, "pitch": 63, "duration": 8, "velocity": 79}, {"time": 3888, "pitch": 70, "duration": 14, "velocity": 67}, {"time": 3894, "pitch": 55, "duration": 12, "velocity": 54}, {"time": 3900, "pitch": 58, "duration": 8, "velocity": 73}, {"time": 3906, "pitch": 70, "duration": 11, "velocity": 79}, {"time": 3918, "pitch": 67, "duration": 5, "velocity": 80}, {"time": 3924, "pitch": 63, "duration": 4, "velocity": 79}, {"time": 3930, "pitch": 58, "duration": 2, "velocity": 76}, {"time": 3936, "pitch": 41, "duration": 38, "velocity": 74}, {"time": 3936, "pitch": 55, "duration": 7, "velocity": 71}, {"time": 3936, "pitch": 58, "duration": 8, "velocity": 81}, {"time": 3936, "pitch": 63, "duration": 8, "velocity": 76}, {"time": 3942, "pitch": 53, "duration": 15, "velocity": 40}, {"time": 3948, "pitch": 55, "duration": 7, "velocity": 76}, {"time": 3954, "pitch": 58, "duration": 9, "velocity": 77}, {"time": 3960, "pitch": 67, "duration": 5, "velocity": 76}, {"time": 3960, "pitch": 75, "duration": 5, "velocity": 90}, {"time": 3966, "pitch": 65, "duration": 4, "velocity": 78}, {"time": 3966, "pitch": 74, "duration": 4, "velocity": 83}, {"time": 3972, "pitch": 63, "duration": 4, "velocity": 82}, {"time": 3972, "pitch": 72, "duration": 4, "velocity": 86}, {"time": 3978, "pitch": 62, "duration": 6, "velocity": 81}, {"time": 3978, "pitch": 70, "duration": 6, "velocity": 90}, {"time": 3984, "pitch": 34, "duration": 2, "velocity": 86}, {"time": 3984, "pitch": 58, "duration": 7, "velocity": 72}, {"time": 3984, "pitch": 53, "duration": 5, "velocity": 60}, {"time": 3984, "pitch": 62, "duration": 1, "velocity": 76}, {"time": 3984, "pitch": 60, "duration": 7, "velocity": 75}, {"time": 3992, "pitch": 46, "duration": 30, "velocity": 71}, {"time": 3994, "pitch": 53, "duration": 28, "velocity": 75}, {"time": 3996, "pitch": 58, "duration": 25, "velocity": 76}, {"time": 3999, "pitch": 60, "duration": 2, "velocity": 73}, {"time": 4001, "pitch": 62, "duration": 2, "velocity": 76}, {"time": 4003, "pitch": 65, "duration": 3, "velocity": 75}, {"time": 4006, "pitch": 70, "duration": 1, "velocity": 78}, {"time": 4008, "pitch": 72, "duration": 4, "velocity": 76}, {"time": 4010, "pitch": 74, "duration": 3, "velocity": 71}, {"time": 4012, "pitch": 77, "duration": 3, "velocity": 73}, {"time": 4014, "pitch": 82, "duration": 1, "velocity": 62}, {"time": 4017, "pitch": 84, "duration": 4, "velocity": 73}, {"time": 4020, "pitch": 86, "duration": 4, "velocity": 54}, {"time": 4023, "pitch": 89, "duration": 4, "velocity": 71}, {"time": 4027, "pitch": 94, "duration": 1, "velocity": 77}], "annotations": [{"time": 48, "annotation": {"number": 64, "value": 127}, "group": "control_change"}, {"time": 97, "annotation": {"number": 64, "value": 0}, "group": "control_change"}, {"time": 102, "annotation": {"number": 64, "value": 127}, "group": "control_change"}, {"time": 145, "annotation": {"number": 64, "value": 0}, "group": "control_change"}, {"time": 149, "annotation": {"number": 64, "value": 127}, "group": "control_change"}, {"time": 192, "annotation": {"number": 64, "value": 0}, "group": "control_change"}, {"time": 197, "annotation": {"number": 64, "value": 127}, "group": "control_change"}, {"time": 240, "annotation": {"number": 64, "value": 0}, "group": "control_change"}, {"time": 245, "annotation": {"number": 64, "value": 127}, "group": "control_change"}, {"time": 288, "annotation": {"number": 64, "value": 0}, "group": "control_change"}, {"time": 293, "annotation": {"number": 64, "value": 127}, "group": "control_change"}, {"time": 336, "annotation": {"number": 64, "value": 0}, "group": "control_change"}, {"time": 341, "annotation": {"number": 64, "value": 127}, "group": "control_change"}, {"time": 390, "annotation": {"number": 64, "value": 0}, "group": "control_change"}, {"time": 393, "annotation": {"number": 64, "value": 127}, "group": "control_change"}, {"time": 434, "annotation": {"number": 64, "value": 0}, "group": "control_change"}, {"time": 438, "annotation": {"number": 64, "value": 127}, "group": "control_change"}, {"time": 483, "annotation": {"number": 64, "value": 0}, "group": "control_change"}, {"time": 487, "annotation": {"number": 64, "value": 127}, "group": "control_change"}, {"time": 529, "annotation": {"number": 64, "value": 0}, "group": "control_change"}, {"time": 533, "annotation": {"number": 64, "value": 127}, "group": "control_change"}, {"time": 576, "annotation": {"number": 64, "value": 0}, "group": "control_change"}, {"time": 580, "annotation": {"number": 64, "value": 127}, "group": "control_change"}, {"time": 625, "annotation": {"number": 64, "value": 127}, "group": "control_change"}, {"time": 625, "annotation": {"number": 64, "value": 0}, "group": "control_change"}, {"time": 674, "annotation": {"number": 64, "value": 0}, "group": "control_change"}, {"time": 678, "annotation": {"number": 64, "value": 127}, "group": "control_change"}, {"time": 723, "annotation": {"number": 64, "value": 0}, "group": "control_change"}, {"time": 726, "annotation": {"number": 64, "value": 127}, "group": "control_change"}, {"time": 768, "annotation": {"number": 64, "value": 0}, "group": "control_change"}, {"time": 772, "annotation": {"number": 64, "value": 127}, "group": "control_change"}, {"time": 818, "annotation": {"number": 64, "value": 0}, "group": "control_change"}, {"time": 822, "annotation": {"number": 64, "value": 127}, "group": "control_change"}, {"time": 865, "annotation": {"number": 64, "value": 0}, "group": "control_change"}, {"time": 868, "annotation": {"number": 64, "value": 127}, "group": "control_change"}, {"time": 913, "annotation": {"number": 64, "value": 0}, "group": "control_change"}, {"time": 916, "annotation": {"number": 64, "value": 127}, "group": "control_change"}, {"time": 961, "annotation": {"number": 64, "value": 0}, "group": "control_change"}, {"time": 964, "annotation": {"number": 64, "value": 127}, "group": "control_change"}, {"time": 1009, "annotation": {"number": 64, "value": 0}, "group": "control_change"}, {"time": 1014, "annotation": {"number": 64, "value": 127}, "group": "control_change"}, {"time": 1015, "annotation": {"number": 64, "value": 0}, "group": "control_change"}, {"time": 1016, "annotation": {"number": 64, "value": 127}, "group": "control_change"}, {"time": 1017, "annotation": {"number": 64, "value": 0}, "group": "control_change"}, {"time": 1017, "annotation": {"number": 64, "value": 127}, "group": "control_change"}, {"time": 1058, "annotation": {"number": 64, "value": 0}, "group": "control_change"}, {"time": 1061, "annotation": {"number": 64, "value": 127}, "group": "control_change"}, {"time": 1106, "annotation": {"number": 64, "value": 0}, "group": "control_change"}, {"time": 1109, "annotation": {"number": 64, "value": 127}, "group": "control_change"}, {"time": 1153, "annotation": {"number": 64, "value": 0}, "group": "control_change"}, {"time": 1157, "annotation": {"number": 64, "value": 127}, "group": "control_change"}, {"time": 1202, "annotation": {"number": 64, "value": 0}, "group": "control_change"}, {"time": 1206, "annotation": {"number": 64, "value": 127}, "group": "control_change"}, {"time": 1249, "annotation": {"number": 64, "value": 0}, "group": "control_change"}, {"time": 1251, "annotation": {"number": 64, "value": 127}, "group": "control_change"}, {"time": 1297, "annotation": {"number": 64, "value": 0}, "group": "control_change"}, {"time": 1300, "annotation": {"number": 64, "value": 127}, "group": "control_change"}, {"time": 1344, "annotation": {"number": 64, "value": 0}, "group": "control_change"}, {"time": 1346, "annotation": {"number": 64, "value": 127}, "group": "control_change"}, {"time": 1346, "annotation": {"number": 64, "value": 0}, "group": "control_change"}, {"time": 1391, "annotation": {"number": 64, "value": 0}, "group": "control_change"}, {"time": 1394, "annotation": {"number": 64, "value": 127}, "group": "control_change"}, {"time": 1442, "annotation": {"number": 64, "value": 0}, "group": "control_change"}, {"time": 1445, "annotation": {"number": 64, "value": 127}, "group": "control_change"}, {"time": 1445, "annotation": {"number": 64, "value": 0}, "group": "control_change"}, {"time": 1446, "annotation": {"number": 64, "value": 127}, "group": "control_change"}, {"time": 1489, "annotation": {"number": 64, "value": 0}, "group": "control_change"}, {"time": 1492, "annotation": {"number": 64, "value": 127}, "group": "control_change"}, {"time": 1538, "annotation": {"number": 64, "value": 0}, "group": "control_change"}, {"time": 1542, "annotation": {"number": 64, "value": 127}, "group": "control_change"}, {"time": 1560, "annotation": {"number": 64, "value": 0}, "group": "control_change"}, {"time": 1563, "annotation": {"number": 64, "value": 127}, "group": "control_change"}, {"time": 1585, "annotation": {"number": 64, "value": 0}, "group": "control_change"}, {"time": 1588, "annotation": {"number": 64, "value": 127}, "group": "control_change"}, {"time": 1633, "annotation": {"number": 64, "value": 0}, "group": "control_change"}, {"time": 1636, "annotation": {"number": 64, "value": 127}, "group": "control_change"}, {"time": 1639, "annotation": {"number": 64, "value": 0}, "group": "control_change"}, {"time": 1640, "annotation": {"number": 64, "value": 127}, "group": "control_change"}, {"time": 1682, "annotation": {"number": 64, "value": 0}, "group": "control_change"}, {"time": 1685, "annotation": {"number": 64, "value": 127}, "group": "control_change"}, {"time": 1728, "annotation": {"number": 64, "value": 0}, "group": "control_change"}, {"time": 1729, "annotation": {"number": 64, "value": 127}, "group": "control_change"}, {"time": 1745, "annotation": {"number": 64, "value": 0}, "group": "control_change"}, {"time": 1749, "annotation": {"number": 64, "value": 127}, "group": "control_change"}, {"time": 1776, "annotation": {"number": 64, "value": 0}, "group": "control_change"}, {"time": 1779, "annotation": {"number": 64, "value": 127}, "group": "control_change"}, {"time": 1781, "annotation": {"number": 64, "value": 0}, "group": "control_change"}, {"time": 1783, "annotation": {"number": 64, "value": 127}, "group": "control_change"}, {"time": 1823, "annotation": {"number": 64, "value": 0}, "group": "control_change"}, {"time": 1826, "annotation": {"number": 64, "value": 127}, "group": "control_change"}, {"time": 1872, "annotation": {"number": 64, "value": 0}, "group": "control_change"}, {"time": 1875, "annotation": {"number": 64, "value": 127}, "group": "control_change"}, {"time": 1968, "annotation": {"number": 64, "value": 0}, "group": "control_change"}, {"time": 1972, "annotation": {"number": 64, "value": 127}, "group": "control_change"}, {"time": 2021, "annotation": {"number": 64, "value": 0}, "group": "control_change"}, {"time": 2026, "annotation": {"number": 64, "value": 127}, "group": "control_change"}, {"time": 2064, "annotation": {"number": 64, "value": 0}, "group": "control_change"}, {"time": 2067, "annotation": {"number": 64, "value": 127}, "group": "control_change"}, {"time": 2162, "annotation": {"number": 64, "value": 0}, "group": "control_change"}, {"time": 2165, "annotation": {"number": 64, "value": 127}, "group": "control_change"}, {"time": 2211, "annotation": {"number": 64, "value": 0}, "group": "control_change"}, {"time": 2216, "annotation": {"number": 64, "value": 127}, "group": "control_change"}, {"time": 2259, "annotation": {"number": 64, "value": 0}, "group": "control_change"}, {"time": 2263, "annotation": {"number": 64, "value": 127}, "group": "control_change"}, {"time": 2305, "annotation": {"number": 64, "value": 0}, "group": "control_change"}, {"time": 2312, "annotation": {"number": 64, "value": 127}, "group": "control_change"}, {"time": 2354, "annotation": {"number": 64, "value": 0}, "group": "control_change"}, {"time": 2358, "annotation": {"number": 64, "value": 127}, "group": "control_change"}, {"time": 2401, "annotation": {"number": 64, "value": 0}, "group": "control_change"}, {"time": 2405, "annotation": {"number": 64, "value": 127}, "group": "control_change"}, {"time": 2451, "annotation": {"number": 64, "value": 0}, "group": "control_change"}, {"time": 2454, "annotation": {"number": 64, "value": 127}, "group": "control_change"}, {"time": 2497, "annotation": {"number": 64, "value": 0}, "group": "control_change"}, {"time": 2497, "annotation": {"number": 64, "value": 127}, "group": "control_change"}, {"time": 2500, "annotation": {"number": 64, "value": 127}, "group": "control_change"}, {"time": 2547, "annotation": {"number": 64, "value": 0}, "group": "control_change"}, {"time": 2551, "annotation": {"number": 64, "value": 127}, "group": "control_change"}, {"time": 2595, "annotation": {"number": 64, "value": 0}, "group": "control_change"}, {"time": 2599, "annotation": {"number": 64, "value": 127}, "group": "control_change"}, {"time": 2601, "annotation": {"number": 64, "value": 0}, "group": "control_change"}, {"time": 2602, "annotation": {"number": 64, "value": 127}, "group": "control_change"}, {"time": 2628, "annotation": {"number": 64, "value": 0}, "group": "control_change"}, {"time": 2629, "annotation": {"number": 64, "value": 127}, "group": "control_change"}, {"time": 2633, "annotation": {"number": 64, "value": 0}, "group": "control_change"}, {"time": 2634, "annotation": {"number": 64, "value": 127}, "group": "control_change"}, {"time": 2641, "annotation": {"number": 64, "value": 0}, "group": "control_change"}, {"time": 2644, "annotation": {"number": 64, "value": 127}, "group": "control_change"}, {"time": 2646, "annotation": {"number": 64, "value": 0}, "group": "control_change"}, {"time": 2648, "annotation": {"number": 64, "value": 127}, "group": "control_change"}, {"time": 2648, "annotation": {"number": 64, "value": 0}, "group": "control_change"}, {"time": 2651, "annotation": {"number": 64, "value": 0}, "group": "control_change"}, {"time": 2652, "annotation": {"number": 64, "value": 127}, "group": "control_change"}, {"time": 2688, "annotation": {"number": 64, "value": 0}, "group": "control_change"}, {"time": 2691, "annotation": {"number": 64, "value": 127}, "group": "control_change"}, {"time": 2723, "annotation": {"number": 64, "value": 0}, "group": "control_change"}, {"time": 2725, "annotation": {"number": 64, "value": 127}, "group": "control_change"}, {"time": 2728, "annotation": {"number": 64, "value": 0}, "group": "control_change"}, {"time": 2729, "annotation": {"number": 64, "value": 127}, "group": "control_change"}, {"time": 2736, "annotation": {"number": 64, "value": 0}, "group": "control_change"}, {"time": 2739, "annotation": {"number": 64, "value": 127}, "group": "control_change"}, {"time": 2741, "annotation": {"number": 64, "value": 0}, "group": "control_change"}, {"time": 2743, "annotation": {"number": 64, "value": 127}, "group": "control_change"}, {"time": 2746, "annotation": {"number": 64, "value": 0}, "group": "control_change"}, {"time": 2747, "annotation": {"number": 64, "value": 127}, "group": "control_change"}, {"time": 2751, "annotation": {"number": 64, "value": 0}, "group": "control_change"}, {"time": 2752, "annotation": {"number": 64, "value": 127}, "group": "control_change"}, {"time": 2755, "annotation": {"number": 64, "value": 0}, "group": "control_change"}, {"time": 2756, "annotation": {"number": 64, "value": 127}, "group": "control_change"}, {"time": 2756, "annotation": {"number": 64, "value": 0}, "group": "control_change"}, {"time": 2760, "annotation": {"number": 64, "value": 0}, "group": "control_change"}, {"time": 2760, "annotation": {"number": 64, "value": 127}, "group": "control_change"}, {"time": 2774, "annotation": {"number": 64, "value": 0}, "group": "control_change"}, {"time": 2774, "annotation": {"number": 64, "value": 127}, "group": "control_change"}, {"time": 2785, "annotation": {"number": 64, "value": 0}, "group": "control_change"}, {"time": 2788, "annotation": {"number": 64, "value": 127}, "group": "control_change"}, {"time": 2791, "annotation": {"number": 64, "value": 0}, "group": "control_change"}, {"time": 2792, "annotation": {"number": 64, "value": 127}, "group": "control_change"}, {"time": 2833, "annotation": {"number": 64, "value": 0}, "group": "control_change"}, {"time": 2837, "annotation": {"number": 64, "value": 127}, "group": "control_change"}, {"time": 2928, "annotation": {"number": 64, "value": 0}, "group": "control_change"}, {"time": 2931, "annotation": {"number": 64, "value": 127}, "group": "control_change"}, {"time": 2978, "annotation": {"number": 64, "value": 0}, "group": "control_change"}, {"time": 2982, "annotation": {"number": 64, "value": 127}, "group": "control_change"}, {"time": 3025, "annotation": {"number": 64, "value": 0}, "group": "control_change"}, {"time": 3028, "annotation": {"number": 64, "value": 127}, "group": "control_change"}, {"time": 3072, "annotation": {"number": 64, "value": 0}, "group": "control_change"}, {"time": 3073, "annotation": {"number": 64, "value": 127}, "group": "control_change"}, {"time": 3098, "annotation": {"number": 64, "value": 0}, "group": "control_change"}, {"time": 3101, "annotation": {"number": 64, "value": 127}, "group": "control_change"}, {"time": 3123, "annotation": {"number": 64, "value": 0}, "group": "control_change"}, {"time": 3126, "annotation": {"number": 64, "value": 127}, "group": "control_change"}, {"time": 3129, "annotation": {"number": 64, "value": 0}, "group": "control_change"}, {"time": 3130, "annotation": {"number": 64, "value": 127}, "group": "control_change"}, {"time": 3167, "annotation": {"number": 64, "value": 0}, "group": "control_change"}, {"time": 3171, "annotation": {"number": 64, "value": 127}, "group": "control_change"}, {"time": 3173, "annotation": {"number": 64, "value": 0}, "group": "control_change"}, {"time": 3175, "annotation": {"number": 64, "value": 127}, "group": "control_change"}, {"time": 3178, "annotation": {"number": 64, "value": 0}, "group": "control_change"}, {"time": 3180, "annotation": {"number": 64, "value": 127}, "group": "control_change"}, {"time": 3183, "annotation": {"number": 64, "value": 0}, "group": "control_change"}, {"time": 3185, "annotation": {"number": 64, "value": 127}, "group": "control_change"}, {"time": 3188, "annotation": {"number": 64, "value": 0}, "group": "control_change"}, {"time": 3189, "annotation": {"number": 64, "value": 127}, "group": "control_change"}, {"time": 3217, "annotation": {"number": 64, "value": 0}, "group": "control_change"}, {"time": 3219, "annotation": {"number": 64, "value": 127}, "group": "control_change"}, {"time": 3264, "annotation": {"number": 64, "value": 0}, "group": "control_change"}, {"time": 3265, "annotation": {"number": 64, "value": 127}, "group": "control_change"}, {"time": 3288, "annotation": {"number": 64, "value": 0}, "group": "control_change"}, {"time": 3294, "annotation": {"number": 64, "value": 127}, "group": "control_change"}, {"time": 3313, "annotation": {"number": 64, "value": 0}, "group": "control_change"}, {"time": 3321, "annotation": {"number": 64, "value": 127}, "group": "control_change"}, {"time": 3360, "annotation": {"number": 64, "value": 127}, "group": "control_change"}, {"time": 3410, "annotation": {"number": 64, "value": 0}, "group": "control_change"}, {"time": 3411, "annotation": {"number": 64, "value": 127}, "group": "control_change"}, {"time": 3458, "annotation": {"number": 64, "value": 0}, "group": "control_change"}, {"time": 3462, "annotation": {"number": 64, "value": 127}, "group": "control_change"}, {"time": 3505, "annotation": {"number": 64, "value": 0}, "group": "control_change"}, {"time": 3508, "annotation": {"number": 64, "value": 127}, "group": "control_change"}, {"time": 3552, "annotation": {"number": 64, "value": 0}, "group": "control_change"}, {"time": 3553, "annotation": {"number": 64, "value": 127}, "group": "control_change"}, {"time": 3578, "annotation": {"number": 64, "value": 0}, "group": "control_change"}, {"time": 3581, "annotation": {"number": 64, "value": 127}, "group": "control_change"}, {"time": 3603, "annotation": {"number": 64, "value": 0}, "group": "control_change"}, {"time": 3606, "annotation": {"number": 64, "value": 127}, "group": "control_change"}, {"time": 3609, "annotation": {"number": 64, "value": 0}, "group": "control_change"}, {"time": 3610, "annotation": {"number": 64, "value": 127}, "group": "control_change"}, {"time": 3647, "annotation": {"number": 64, "value": 0}, "group": "control_change"}, {"time": 3651, "annotation": {"number": 64, "value": 127}, "group": "control_change"}, {"time": 3653, "annotation": {"number": 64, "value": 0}, "group": "control_change"}, {"time": 3655, "annotation": {"number": 64, "value": 127}, "group": "control_change"}, {"time": 3658, "annotation": {"number": 64, "value": 0}, "group": "control_change"}, {"time": 3660, "annotation": {"number": 64, "value": 127}, "group": "control_change"}, {"time": 3663, "annotation": {"number": 64, "value": 0}, "group": "control_change"}, {"time": 3665, "annotation": {"number": 64, "value": 127}, "group": "control_change"}, {"time": 3668, "annotation": {"number": 64, "value": 0}, "group": "control_change"}, {"time": 3669, "annotation": {"number": 64, "value": 127}, "group": "control_change"}, {"time": 3697, "annotation": {"number": 64, "value": 0}, "group": "control_change"}, {"time": 3699, "annotation": {"number": 64, "value": 127}, "group": "control_change"}, {"time": 3744, "annotation": {"number": 64, "value": 0}, "group": "control_change"}, {"time": 3745, "annotation": {"number": 64, "value": 127}, "group": "control_change"}, {"time": 3768, "annotation": {"number": 64, "value": 0}, "group": "control_change"}, {"time": 3774, "annotation": {"number": 64, "value": 127}, "group": "control_change"}, {"time": 3792, "annotation": {"number": 64, "value": 0}, "group": "control_change"}, {"time": 3796, "annotation": {"number": 64, "value": 127}, "group": "control_change"}, {"time": 3819, "annotation": {"number": 64, "value": 0}, "group": "control_change"}, {"time": 3823, "annotation": {"number": 64, "value": 127}, "group": "control_change"}, {"time": 3842, "annotation": {"number": 64, "value": 0}, "group": "control_change"}, {"time": 3846, "annotation": {"number": 64, "value": 127}, "group": "control_change"}, {"time": 3865, "annotation": {"number": 64, "value": 0}, "group": "control_change"}, {"time": 3870, "annotation": {"number": 64, "value": 127}, "group": "control_change"}, {"time": 3887, "annotation": {"number": 64, "value": 0}, "group": "control_change"}, {"time": 3895, "annotation": {"number": 64, "value": 127}, "group": "control_change"}, {"time": 3938, "annotation": {"number": 64, "value": 0}, "group": "control_change"}, {"time": 3947, "annotation": {"number": 64, "value": 127}, "group": "control_change"}, {"time": 3982, "annotation": {"number": 64, "value": 0}, "group": "control_change"}, {"time": 3985, "annotation": {"number": 64, "value": 127}, "group": "control_change"}, {"time": 4050, "annotation": {"number": 64, "value": 0}, "group": "control_change"}]}]}