{"metadata": {"schema_version": "0.2", "title": "None", "source_filename": "246.mid", "source_format": "midi"}, "resolution": 12, "tempos": [{"time": 0, "qpm": 140.00014000014}, {"time": 336, "qpm": 135.000135000135}, {"time": 384, "qpm": 138.9998957500782}, {"time": 432, "qpm": 147.0000955500621}, {"time": 456, "qpm": 151.99993920002433}, {"time": 480, "qpm": 140.00014000014}, {"time": 768, "qpm": 145.00003625000906}, {"time": 816, "qpm": 138.00019320027047}, {"time": 864, "qpm": 137.00037675103607}, {"time": 912, "qpm": 140.99997180000565}, {"time": 960, "qpm": 137.00037675103607}, {"time": 984, "qpm": 138.9998957500782}, {"time": 1032, "qpm": 143.99988480009216}, {"time": 1056, "qpm": 138.00019320027047}, {"time": 1080, "qpm": 140.00014000014}, {"time": 1104, "qpm": 137.00037675103607}, {"time": 1152, "qpm": 142.0004070678336}, {"time": 1176, "qpm": 140.99997180000565}, {"time": 1248, "qpm": 137.00037675103607}, {"time": 1272, "qpm": 138.9998957500782}, {"time": 1296, "qpm": 140.99997180000565}, {"time": 1392, "qpm": 138.9998957500782}, {"time": 1464, "qpm": 140.99997180000565}, {"time": 1488, "qpm": 142.0004070678336}, {"time": 1524, "qpm": 143.000143000143}, {"time": 1536, "qpm": 140.99997180000565}, {"time": 1584, "qpm": 138.9998957500782}, {"time": 1728, "qpm": 140.99997180000565}, {"time": 1848, "qpm": 140.00014000014}, {"time": 1872, "qpm": 138.00019320027047}, {"time": 1896, "qpm": 140.00014000014}, {"time": 1920, "qpm": 136.00045333484445}, {"time": 1944, "qpm": 138.00019320027047}, {"time": 1968, "qpm": 143.99988480009216}, {"time": 2016, "qpm": 132.000132000132}, {"time": 2064, "qpm": 145.00003625000906}, {"time": 2088, "qpm": 148.000148000148}, {"time": 2112, "qpm": 140.99997180000565}, {"time": 2124, "qpm": 136.00045333484445}, {"time": 2160, "qpm": 140.99997180000565}, {"time": 2208, "qpm": 140.00014000014}, {"time": 2256, "qpm": 142.0004070678336}, {"time": 2292, "qpm": 104.99992125005906}, {"time": 2304, "qpm": 126.99998518333506}, {"time": 2316, "qpm": 132.000132000132}, {"time": 2328, "qpm": 143.000143000143}, {"time": 2340, "qpm": 140.00014000014}, {"time": 2544, "qpm": 156.9998377668343}, {"time": 2556, "qpm": 135.000135000135}, {"time": 2568, "qpm": 138.9998957500782}, {"time": 2604, "qpm": 157.999931533363}, {"time": 2640, "qpm": 156.00056160202178}, {"time": 2664, "qpm": 142.0004070678336}, {"time": 2688, "qpm": 135.000135000135}, {"time": 2700, "qpm": 128.0}, {"time": 2712, "qpm": 138.00019320027047}, {"time": 2760, "qpm": 143.000143000143}, {"time": 2796, "qpm": 142.0004070678336}, {"time": 2856, "qpm": 143.99988480009216}, {"time": 2880, "qpm": 134.00005806669182}, {"time": 2904, "qpm": 140.00014000014}, {"time": 2928, "qpm": 136.00045333484445}, {"time": 2952, "qpm": 140.00014000014}, {"time": 3000, "qpm": 130.00041166797027}, {"time": 3012, "qpm": 142.0004070678336}, {"time": 3024, "qpm": 143.99988480009216}, {"time": 3072, "qpm": 137.00037675103607}, {"time": 3096, "qpm": 138.00019320027047}, {"time": 3120, "qpm": 143.000143000143}, {"time": 3168, "qpm": 135.000135000135}, {"time": 3192, "qpm": 143.000143000143}, {"time": 3204, "qpm": 147.0000955500621}, {"time": 3216, "qpm": 140.00014000014}, {"time": 3300, "qpm": 136.00045333484445}, {"time": 3336, "qpm": 143.99988480009216}, {"time": 3360, "qpm": 140.99997180000565}, {"time": 3504, "qpm": 137.00037675103607}, {"time": 3600, "qpm": 142.0004070678336}, {"time": 3648, "qpm": 140.99997180000565}, {"time": 3696, "qpm": 138.00019320027047}, {"time": 3744, "qpm": 140.00014000014}, {"time": 4128, "qpm": 138.9998957500782}, {"time": 4224, "qpm": 143.000143000143}, {"time": 4272, "qpm": 140.00014000014}, {"time": 4704, "qpm": 133.00024161710562}, {"time": 4728, "qpm": 136.00045333484445}, {"time": 4896, "qpm": 143.000143000143}], "time_signatures": [{"time": 0, "numerator": 4, "denominator": 4}], "tracks": [{"program": 0, "is_drum": false, "name": "MELODY", "notes": [{"time": 720, "pitch": 73, "duration": 12, "velocity": 75}, {"time": 732, "pitch": 73, "duration": 12, "velocity": 87}, {"time": 744, "pitch": 76, "duration": 12, "velocity": 86}, {"time": 756, "pitch": 75, "duration": 12, "velocity": 86}, {"time": 768, "pitch": 73, "duration": 12, "velocity": 86}, {"time": 780, "pitch": 73, "duration": 12, "velocity": 75}, {"time": 792, "pitch": 71, "duration": 12, "velocity": 77}, {"time": 804, "pitch": 68, "duration": 12, "velocity": 83}, {"time": 816, "pitch": 73, "duration": 12, "velocity": 95}, {"time": 828, "pitch": 80, "duration": 6, "velocity": 95}, {"time": 834, "pitch": 80, "duration": 5, "velocity": 91}, {"time": 840, "pitch": 75, "duration": 6, "velocity": 66}, {"time": 846, "pitch": 73, "duration": 6, "velocity": 66}, {"time": 852, "pitch": 71, "duration": 12, "velocity": 75}, {"time": 864, "pitch": 73, "duration": 48, "velocity": 99}, {"time": 912, "pitch": 73, "duration": 12, "velocity": 90}, {"time": 924, "pitch": 73, "duration": 12, "velocity": 89}, {"time": 936, "pitch": 76, "duration": 13, "velocity": 90}, {"time": 948, "pitch": 75, "duration": 12, "velocity": 90}, {"time": 960, "pitch": 73, "duration": 12, "velocity": 79}, {"time": 972, "pitch": 73, "duration": 13, "velocity": 76}, {"time": 984, "pitch": 71, "duration": 12, "velocity": 92}, {"time": 996, "pitch": 68, "duration": 12, "velocity": 65}, {"time": 1008, "pitch": 73, "duration": 36, "velocity": 103}, {"time": 1044, "pitch": 66, "duration": 12, "velocity": 96}, {"time": 1056, "pitch": 68, "duration": 48, "velocity": 101}, {"time": 1104, "pitch": 71, "duration": 12, "velocity": 101}, {"time": 1116, "pitch": 71, "duration": 6, "velocity": 92}, {"time": 1122, "pitch": 73, "duration": 6, "velocity": 83}, {"time": 1128, "pitch": 76, "duration": 12, "velocity": 95}, {"time": 1140, "pitch": 75, "duration": 12, "velocity": 101}, {"time": 1152, "pitch": 73, "duration": 12, "velocity": 105}, {"time": 1164, "pitch": 73, "duration": 36, "velocity": 106}, {"time": 1200, "pitch": 71, "duration": 11, "velocity": 97}, {"time": 1212, "pitch": 71, "duration": 3, "velocity": 91}, {"time": 1215, "pitch": 73, "duration": 9, "velocity": 83}, {"time": 1224, "pitch": 80, "duration": 12, "velocity": 90}, {"time": 1236, "pitch": 75, "duration": 12, "velocity": 90}, {"time": 1248, "pitch": 75, "duration": 6, "velocity": 81}, {"time": 1254, "pitch": 73, "duration": 42, "velocity": 90}, {"time": 1296, "pitch": 78, "duration": 12, "velocity": 100}, {"time": 1308, "pitch": 78, "duration": 6, "velocity": 90}, {"time": 1314, "pitch": 76, "duration": 7, "velocity": 93}, {"time": 1320, "pitch": 78, "duration": 12, "velocity": 97}, {"time": 1332, "pitch": 78, "duration": 12, "velocity": 100}, {"time": 1344, "pitch": 78, "duration": 18, "velocity": 111}, {"time": 1362, "pitch": 76, "duration": 6, "velocity": 91}, {"time": 1368, "pitch": 78, "duration": 12, "velocity": 97}, {"time": 1380, "pitch": 78, "duration": 11, "velocity": 100}, {"time": 1392, "pitch": 73, "duration": 12, "velocity": 93}, {"time": 1404, "pitch": 83, "duration": 24, "velocity": 90}, {"time": 1428, "pitch": 80, "duration": 12, "velocity": 101}, {"time": 1440, "pitch": 78, "duration": 12, "velocity": 106}, {"time": 1452, "pitch": 76, "duration": 23, "velocity": 97}, {"time": 1476, "pitch": 75, "duration": 12, "velocity": 91}, {"time": 1488, "pitch": 76, "duration": 48, "velocity": 95}, {"time": 1536, "pitch": 75, "duration": 18, "velocity": 108}, {"time": 1554, "pitch": 80, "duration": 7, "velocity": 97}, {"time": 1560, "pitch": 75, "duration": 12, "velocity": 99}, {"time": 1572, "pitch": 80, "duration": 12, "velocity": 99}, {"time": 1584, "pitch": 75, "duration": 12, "velocity": 103}, {"time": 1596, "pitch": 73, "duration": 24, "velocity": 103}, {"time": 1620, "pitch": 71, "duration": 12, "velocity": 100}, {"time": 1632, "pitch": 73, "duration": 96, "velocity": 116}, {"time": 1728, "pitch": 80, "duration": 12, "velocity": 111}, {"time": 1740, "pitch": 80, "duration": 12, "velocity": 108}, {"time": 1752, "pitch": 83, "duration": 12, "velocity": 98}, {"time": 1764, "pitch": 80, "duration": 13, "velocity": 109}, {"time": 1776, "pitch": 78, "duration": 12, "velocity": 106}, {"time": 1788, "pitch": 78, "duration": 36, "velocity": 105}, {"time": 1824, "pitch": 78, "duration": 12, "velocity": 106}, {"time": 1836, "pitch": 78, "duration": 12, "velocity": 97}, {"time": 1848, "pitch": 78, "duration": 12, "velocity": 96}, {"time": 1860, "pitch": 75, "duration": 12, "velocity": 96}, {"time": 1872, "pitch": 76, "duration": 6, "velocity": 91}, {"time": 1878, "pitch": 75, "duration": 6, "velocity": 61}, {"time": 1884, "pitch": 73, "duration": 36, "velocity": 71}, {"time": 1920, "pitch": 80, "duration": 12, "velocity": 101}, {"time": 1932, "pitch": 80, "duration": 12, "velocity": 98}, {"time": 1944, "pitch": 85, "duration": 12, "velocity": 98}, {"time": 1956, "pitch": 80, "duration": 6, "velocity": 99}, {"time": 1962, "pitch": 78, "duration": 6, "velocity": 98}, {"time": 1968, "pitch": 80, "duration": 12, "velocity": 105}, {"time": 1980, "pitch": 78, "duration": 35, "velocity": 103}, {"time": 2016, "pitch": 78, "duration": 11, "velocity": 103}, {"time": 2028, "pitch": 78, "duration": 12, "velocity": 101}, {"time": 2040, "pitch": 83, "duration": 12, "velocity": 100}, {"time": 2052, "pitch": 80, "duration": 6, "velocity": 105}, {"time": 2058, "pitch": 78, "duration": 6, "velocity": 97}, {"time": 2064, "pitch": 80, "duration": 96, "velocity": 109}, {"time": 2160, "pitch": 83, "duration": 24, "velocity": 105}, {"time": 2184, "pitch": 83, "duration": 24, "velocity": 103}, {"time": 2208, "pitch": 80, "duration": 12, "velocity": 101}, {"time": 2220, "pitch": 78, "duration": 24, "velocity": 109}, {"time": 2244, "pitch": 75, "duration": 12, "velocity": 109}, {"time": 2256, "pitch": 75, "duration": 12, "velocity": 119}, {"time": 2268, "pitch": 73, "duration": 132, "velocity": 106}, {"time": 2640, "pitch": 73, "duration": 12, "velocity": 75}, {"time": 2652, "pitch": 73, "duration": 12, "velocity": 87}, {"time": 2664, "pitch": 76, "duration": 12, "velocity": 86}, {"time": 2676, "pitch": 75, "duration": 12, "velocity": 86}, {"time": 2688, "pitch": 73, "duration": 12, "velocity": 86}, {"time": 2700, "pitch": 73, "duration": 12, "velocity": 75}, {"time": 2712, "pitch": 71, "duration": 12, "velocity": 77}, {"time": 2724, "pitch": 68, "duration": 12, "velocity": 83}, {"time": 2736, "pitch": 73, "duration": 12, "velocity": 95}, {"time": 2748, "pitch": 80, "duration": 6, "velocity": 95}, {"time": 2754, "pitch": 80, "duration": 5, "velocity": 91}, {"time": 2760, "pitch": 75, "duration": 6, "velocity": 66}, {"time": 2766, "pitch": 73, "duration": 6, "velocity": 66}, {"time": 2772, "pitch": 71, "duration": 12, "velocity": 75}, {"time": 2784, "pitch": 73, "duration": 48, "velocity": 99}, {"time": 2832, "pitch": 73, "duration": 12, "velocity": 90}, {"time": 2844, "pitch": 73, "duration": 12, "velocity": 89}, {"time": 2856, "pitch": 76, "duration": 13, "velocity": 90}, {"time": 2868, "pitch": 75, "duration": 12, "velocity": 90}, {"time": 2880, "pitch": 73, "duration": 12, "velocity": 79}, {"time": 2892, "pitch": 73, "duration": 13, "velocity": 76}, {"time": 2904, "pitch": 71, "duration": 12, "velocity": 92}, {"time": 2916, "pitch": 68, "duration": 12, "velocity": 65}, {"time": 2928, "pitch": 73, "duration": 12, "velocity": 103}, {"time": 2940, "pitch": 73, "duration": 12, "velocity": 103}, {"time": 2952, "pitch": 64, "duration": 11, "velocity": 103}, {"time": 2964, "pitch": 66, "duration": 12, "velocity": 96}, {"time": 2976, "pitch": 68, "duration": 48, "velocity": 101}, {"time": 3024, "pitch": 71, "duration": 12, "velocity": 101}, {"time": 3036, "pitch": 71, "duration": 6, "velocity": 92}, {"time": 3042, "pitch": 73, "duration": 6, "velocity": 83}, {"time": 3048, "pitch": 76, "duration": 12, "velocity": 95}, {"time": 3060, "pitch": 75, "duration": 12, "velocity": 101}, {"time": 3072, "pitch": 73, "duration": 12, "velocity": 105}, {"time": 3084, "pitch": 73, "duration": 36, "velocity": 106}, {"time": 3120, "pitch": 71, "duration": 11, "velocity": 97}, {"time": 3132, "pitch": 71, "duration": 6, "velocity": 91}, {"time": 3138, "pitch": 73, "duration": 5, "velocity": 83}, {"time": 3144, "pitch": 80, "duration": 12, "velocity": 90}, {"time": 3156, "pitch": 75, "duration": 12, "velocity": 90}, {"time": 3168, "pitch": 75, "duration": 6, "velocity": 81}, {"time": 3174, "pitch": 73, "duration": 42, "velocity": 90}, {"time": 3216, "pitch": 78, "duration": 12, "velocity": 100}, {"time": 3228, "pitch": 78, "duration": 6, "velocity": 90}, {"time": 3234, "pitch": 76, "duration": 7, "velocity": 93}, {"time": 3240, "pitch": 78, "duration": 12, "velocity": 97}, {"time": 3252, "pitch": 78, "duration": 12, "velocity": 100}, {"time": 3264, "pitch": 78, "duration": 18, "velocity": 111}, {"time": 3282, "pitch": 76, "duration": 6, "velocity": 91}, {"time": 3288, "pitch": 78, "duration": 12, "velocity": 97}, {"time": 3300, "pitch": 78, "duration": 11, "velocity": 100}, {"time": 3312, "pitch": 73, "duration": 12, "velocity": 93}, {"time": 3324, "pitch": 83, "duration": 24, "velocity": 90}, {"time": 3348, "pitch": 80, "duration": 12, "velocity": 101}, {"time": 3360, "pitch": 78, "duration": 12, "velocity": 106}, {"time": 3372, "pitch": 76, "duration": 23, "velocity": 97}, {"time": 3396, "pitch": 75, "duration": 12, "velocity": 91}, {"time": 3408, "pitch": 76, "duration": 48, "velocity": 95}, {"time": 3456, "pitch": 75, "duration": 18, "velocity": 108}, {"time": 3474, "pitch": 80, "duration": 7, "velocity": 97}, {"time": 3480, "pitch": 75, "duration": 12, "velocity": 99}, {"time": 3492, "pitch": 80, "duration": 12, "velocity": 99}, {"time": 3504, "pitch": 75, "duration": 12, "velocity": 103}, {"time": 3516, "pitch": 73, "duration": 24, "velocity": 103}, {"time": 3540, "pitch": 71, "duration": 12, "velocity": 100}, {"time": 3552, "pitch": 73, "duration": 96, "velocity": 116}, {"time": 3648, "pitch": 80, "duration": 12, "velocity": 111}, {"time": 3660, "pitch": 80, "duration": 12, "velocity": 108}, {"time": 3672, "pitch": 83, "duration": 12, "velocity": 98}, {"time": 3684, "pitch": 80, "duration": 13, "velocity": 109}, {"time": 3696, "pitch": 78, "duration": 12, "velocity": 106}, {"time": 3708, "pitch": 78, "duration": 36, "velocity": 105}, {"time": 3744, "pitch": 78, "duration": 12, "velocity": 106}, {"time": 3756, "pitch": 78, "duration": 12, "velocity": 97}, {"time": 3768, "pitch": 78, "duration": 12, "velocity": 96}, {"time": 3780, "pitch": 75, "duration": 12, "velocity": 96}, {"time": 3792, "pitch": 76, "duration": 6, "velocity": 91}, {"time": 3798, "pitch": 75, "duration": 6, "velocity": 61}, {"time": 3804, "pitch": 73, "duration": 36, "velocity": 71}, {"time": 3840, "pitch": 80, "duration": 12, "velocity": 101}, {"time": 3852, "pitch": 80, "duration": 12, "velocity": 98}, {"time": 3864, "pitch": 85, "duration": 12, "velocity": 98}, {"time": 3876, "pitch": 80, "duration": 6, "velocity": 99}, {"time": 3882, "pitch": 78, "duration": 6, "velocity": 98}, {"time": 3888, "pitch": 80, "duration": 12, "velocity": 105}, {"time": 3900, "pitch": 78, "duration": 24, "velocity": 103}, {"time": 3924, "pitch": 78, "duration": 12, "velocity": 103}, {"time": 3936, "pitch": 78, "duration": 11, "velocity": 103}, {"time": 3948, "pitch": 78, "duration": 6, "velocity": 101}, {"time": 3954, "pitch": 78, "duration": 6, "velocity": 101}, {"time": 3960, "pitch": 83, "duration": 12, "velocity": 100}, {"time": 3972, "pitch": 80, "duration": 6, "velocity": 105}, {"time": 3978, "pitch": 78, "duration": 6, "velocity": 97}, {"time": 3984, "pitch": 80, "duration": 96, "velocity": 109}, {"time": 4080, "pitch": 83, "duration": 24, "velocity": 105}, {"time": 4104, "pitch": 83, "duration": 24, "velocity": 103}, {"time": 4128, "pitch": 80, "duration": 12, "velocity": 101}, {"time": 4140, "pitch": 78, "duration": 24, "velocity": 109}, {"time": 4164, "pitch": 75, "duration": 12, "velocity": 109}, {"time": 4176, "pitch": 75, "duration": 7, "velocity": 119}, {"time": 4182, "pitch": 73, "duration": 137, "velocity": 106}, {"time": 4272, "pitch": 80, "duration": 12, "velocity": 111}, {"time": 4284, "pitch": 80, "duration": 12, "velocity": 108}, {"time": 4296, "pitch": 83, "duration": 12, "velocity": 98}, {"time": 4308, "pitch": 80, "duration": 12, "velocity": 109}, {"time": 4320, "pitch": 78, "duration": 12, "velocity": 106}, {"time": 4332, "pitch": 78, "duration": 36, "velocity": 105}, {"time": 4368, "pitch": 78, "duration": 12, "velocity": 106}, {"time": 4380, "pitch": 78, "duration": 12, "velocity": 97}, {"time": 4392, "pitch": 78, "duration": 12, "velocity": 96}, {"time": 4404, "pitch": 76, "duration": 6, "velocity": 96}, {"time": 4410, "pitch": 75, "duration": 6, "velocity": 96}, {"time": 4416, "pitch": 76, "duration": 6, "velocity": 91}, {"time": 4422, "pitch": 75, "duration": 6, "velocity": 61}, {"time": 4428, "pitch": 73, "duration": 36, "velocity": 71}, {"time": 4464, "pitch": 80, "duration": 12, "velocity": 101}, {"time": 4476, "pitch": 80, "duration": 12, "velocity": 98}, {"time": 4488, "pitch": 85, "duration": 12, "velocity": 98}, {"time": 4500, "pitch": 80, "duration": 6, "velocity": 99}, {"time": 4506, "pitch": 78, "duration": 6, "velocity": 98}, {"time": 4512, "pitch": 80, "duration": 12, "velocity": 105}, {"time": 4524, "pitch": 78, "duration": 24, "velocity": 103}, {"time": 4548, "pitch": 78, "duration": 12, "velocity": 103}, {"time": 4560, "pitch": 78, "duration": 11, "velocity": 103}, {"time": 4572, "pitch": 78, "duration": 6, "velocity": 101}, {"time": 4578, "pitch": 78, "duration": 6, "velocity": 101}, {"time": 4584, "pitch": 83, "duration": 12, "velocity": 100}, {"time": 4596, "pitch": 80, "duration": 6, "velocity": 105}, {"time": 4602, "pitch": 78, "duration": 6, "velocity": 97}, {"time": 4608, "pitch": 80, "duration": 96, "velocity": 109}, {"time": 4704, "pitch": 83, "duration": 24, "velocity": 105}, {"time": 4728, "pitch": 83, "duration": 24, "velocity": 103}, {"time": 4752, "pitch": 80, "duration": 12, "velocity": 101}, {"time": 4764, "pitch": 78, "duration": 24, "velocity": 109}, {"time": 4788, "pitch": 83, "duration": 15, "velocity": 109}, {"time": 4803, "pitch": 85, "duration": 260, "velocity": 106}], "annotations": [{"time": 863, "annotation": {"number": 1, "value": 3}, "group": "control_change"}, {"time": 1309, "annotation": {"number": 1, "value": 3}, "group": "control_change"}, {"time": 1311, "annotation": {"number": 1, "value": 5}, "group": "control_change"}, {"time": 1311, "annotation": {"number": 1, "value": 3}, "group": "control_change"}, {"time": 1312, "annotation": {"number": 1, "value": 5}, "group": "control_change"}, {"time": 1312, "annotation": {"number": 1, "value": 3}, "group": "control_change"}, {"time": 1319, "annotation": {"number": 1, "value": 5}, "group": "control_change"}, {"time": 1326, "annotation": {"number": 1, "value": 3}, "group": "control_change"}, {"time": 1336, "annotation": {"number": 1, "value": 5}, "group": "control_change"}, {"time": 1337, "annotation": {"number": 1, "value": 3}, "group": "control_change"}, {"time": 1337, "annotation": {"number": 1, "value": 5}, "group": "control_change"}, {"time": 1339, "annotation": {"number": 1, "value": 3}, "group": "control_change"}, {"time": 1340, "annotation": {"number": 1, "value": 5}, "group": "control_change"}, {"time": 1341, "annotation": {"number": 1, "value": 3}, "group": "control_change"}, {"time": 1344, "annotation": {"number": 1, "value": 5}, "group": "control_change"}, {"time": 1368, "annotation": {"number": 1, "value": 5}, "group": "control_change"}, {"time": 1368, "annotation": {"number": 1, "value": 3}, "group": "control_change"}, {"time": 1369, "annotation": {"number": 1, "value": 5}, "group": "control_change"}, {"time": 1375, "annotation": {"number": 1, "value": 3}, "group": "control_change"}, {"time": 1595, "annotation": {"number": 1, "value": 3}, "group": "control_change"}, {"time": 2258, "annotation": {"number": 1, "value": 5}, "group": "control_change"}, {"time": 2258, "annotation": {"number": 1, "value": 7}, "group": "control_change"}, {"time": 2260, "annotation": {"number": 1, "value": 5}, "group": "control_change"}, {"time": 2268, "annotation": {"number": 1, "value": 9}, "group": "control_change"}, {"time": 2268, "annotation": {"number": 1, "value": 7}, "group": "control_change"}, {"time": 2313, "annotation": {"number": 1, "value": 5}, "group": "control_change"}, {"time": 2783, "annotation": {"number": 1, "value": 3}, "group": "control_change"}, {"time": 3230, "annotation": {"number": 1, "value": 3}, "group": "control_change"}, {"time": 3231, "annotation": {"number": 1, "value": 5}, "group": "control_change"}, {"time": 3231, "annotation": {"number": 1, "value": 3}, "group": "control_change"}, {"time": 3232, "annotation": {"number": 1, "value": 5}, "group": "control_change"}, {"time": 3232, "annotation": {"number": 1, "value": 3}, "group": "control_change"}, {"time": 3239, "annotation": {"number": 1, "value": 5}, "group": "control_change"}, {"time": 3247, "annotation": {"number": 1, "value": 3}, "group": "control_change"}, {"time": 3256, "annotation": {"number": 1, "value": 5}, "group": "control_change"}, {"time": 3257, "annotation": {"number": 1, "value": 3}, "group": "control_change"}, {"time": 3257, "annotation": {"number": 1, "value": 5}, "group": "control_change"}, {"time": 3259, "annotation": {"number": 1, "value": 3}, "group": "control_change"}, {"time": 3261, "annotation": {"number": 1, "value": 5}, "group": "control_change"}, {"time": 3261, "annotation": {"number": 1, "value": 3}, "group": "control_change"}, {"time": 3264, "annotation": {"number": 1, "value": 5}, "group": "control_change"}, {"time": 3288, "annotation": {"number": 1, "value": 5}, "group": "control_change"}, {"time": 3288, "annotation": {"number": 1, "value": 3}, "group": "control_change"}, {"time": 3289, "annotation": {"number": 1, "value": 5}, "group": "control_change"}, {"time": 3295, "annotation": {"number": 1, "value": 3}, "group": "control_change"}, {"time": 3516, "annotation": {"number": 1, "value": 3}, "group": "control_change"}, {"time": 4178, "annotation": {"number": 1, "value": 5}, "group": "control_change"}, {"time": 4178, "annotation": {"number": 1, "value": 7}, "group": "control_change"}, {"time": 4180, "annotation": {"number": 1, "value": 5}, "group": "control_change"}, {"time": 4188, "annotation": {"number": 1, "value": 9}, "group": "control_change"}, {"time": 4189, "annotation": {"number": 1, "value": 7}, "group": "control_change"}, {"time": 4233, "annotation": {"number": 1, "value": 5}, "group": "control_change"}, {"time": 4800, "annotation": {"number": 1, "value": 5}, "group": "control_change"}, {"time": 4801, "annotation": {"number": 1, "value": 7}, "group": "control_change"}, {"time": 4802, "annotation": {"number": 1, "value": 5}, "group": "control_change"}, {"time": 4811, "annotation": {"number": 1, "value": 9}, "group": "control_change"}, {"time": 4811, "annotation": {"number": 1, "value": 7}, "group": "control_change"}, {"time": 4856, "annotation": {"number": 1, "value": 5}, "group": "control_change"}]}, {"program": 0, "is_drum": false, "name": "PIANO", "notes": [{"time": 48, "pitch": 49, "duration": 84, "velocity": 57}, {"time": 48, "pitch": 64, "duration": 13, "velocity": 48}, {"time": 48, "pitch": 68, "duration": 12, "velocity": 59}, {"time": 48, "pitch": 73, "duration": 13, "velocity": 53}, {"time": 72, "pitch": 64, "duration": 13, "velocity": 39}, {"time": 72, "pitch": 68, "duration": 11, "velocity": 59}, {"time": 96, "pitch": 63, "duration": 12, "velocity": 39}, {"time": 96, "pitch": 66, "duration": 11, "velocity": 53}, {"time": 192, "pitch": 49, "duration": 88, "velocity": 86}, {"time": 192, "pitch": 61, "duration": 6, "velocity": 76}, {"time": 192, "pitch": 64, "duration": 11, "velocity": 82}, {"time": 192, "pitch": 68, "duration": 11, "velocity": 77}, {"time": 204, "pitch": 56, "duration": 16, "velocity": 35}, {"time": 216, "pitch": 61, "duration": 50, "velocity": 18}, {"time": 216, "pitch": 63, "duration": 5, "velocity": 50}, {"time": 216, "pitch": 66, "duration": 6, "velocity": 72}, {"time": 228, "pitch": 56, "duration": 40, "velocity": 33}, {"time": 240, "pitch": 64, "duration": 15, "velocity": 57}, {"time": 240, "pitch": 68, "duration": 14, "velocity": 62}, {"time": 264, "pitch": 63, "duration": 6, "velocity": 60}, {"time": 264, "pitch": 64, "duration": 7, "velocity": 62}, {"time": 264, "pitch": 68, "duration": 9, "velocity": 69}, {"time": 270, "pitch": 56, "duration": 14, "velocity": 34}, {"time": 270, "pitch": 61, "duration": 9, "velocity": 29}, {"time": 276, "pitch": 63, "duration": 5, "velocity": 26}, {"time": 276, "pitch": 66, "duration": 6, "velocity": 56}, {"time": 288, "pitch": 49, "duration": 87, "velocity": 77}, {"time": 288, "pitch": 64, "duration": 14, "velocity": 68}, {"time": 288, "pitch": 68, "duration": 14, "velocity": 72}, {"time": 300, "pitch": 56, "duration": 69, "velocity": 22}, {"time": 312, "pitch": 64, "duration": 14, "velocity": 38}, {"time": 312, "pitch": 68, "duration": 12, "velocity": 53}, {"time": 336, "pitch": 63, "duration": 13, "velocity": 41}, {"time": 336, "pitch": 64, "duration": 14, "velocity": 45}, {"time": 336, "pitch": 68, "duration": 14, "velocity": 50}, {"time": 360, "pitch": 63, "duration": 12, "velocity": 50}, {"time": 360, "pitch": 64, "duration": 13, "velocity": 54}, {"time": 360, "pitch": 68, "duration": 16, "velocity": 60}, {"time": 372, "pitch": 61, "duration": 5, "velocity": 17}, {"time": 378, "pitch": 56, "duration": 8, "velocity": 41}, {"time": 384, "pitch": 49, "duration": 54, "velocity": 53}, {"time": 384, "pitch": 63, "duration": 12, "velocity": 44}, {"time": 384, "pitch": 64, "duration": 12, "velocity": 56}, {"time": 384, "pitch": 68, "duration": 12, "velocity": 60}, {"time": 408, "pitch": 63, "duration": 12, "velocity": 39}, {"time": 408, "pitch": 64, "duration": 12, "velocity": 53}, {"time": 408, "pitch": 68, "duration": 11, "velocity": 54}, {"time": 432, "pitch": 63, "duration": 35, "velocity": 47}, {"time": 432, "pitch": 64, "duration": 35, "velocity": 54}, {"time": 432, "pitch": 68, "duration": 32, "velocity": 47}, {"time": 480, "pitch": 42, "duration": 86, "velocity": 90}, {"time": 480, "pitch": 54, "duration": 29, "velocity": 68}, {"time": 480, "pitch": 61, "duration": 17, "velocity": 77}, {"time": 480, "pitch": 66, "duration": 15, "velocity": 101}, {"time": 480, "pitch": 69, "duration": 18, "velocity": 59}, {"time": 504, "pitch": 61, "duration": 15, "velocity": 60}, {"time": 504, "pitch": 66, "duration": 13, "velocity": 85}, {"time": 504, "pitch": 69, "duration": 19, "velocity": 42}, {"time": 516, "pitch": 54, "duration": 12, "velocity": 2}, {"time": 522, "pitch": 69, "duration": 1, "velocity": 17}, {"time": 528, "pitch": 61, "duration": 16, "velocity": 60}, {"time": 528, "pitch": 66, "duration": 15, "velocity": 85}, {"time": 540, "pitch": 54, "duration": 21, "velocity": 10}, {"time": 552, "pitch": 61, "duration": 21, "velocity": 63}, {"time": 552, "pitch": 66, "duration": 20, "velocity": 94}, {"time": 552, "pitch": 69, "duration": 20, "velocity": 21}, {"time": 564, "pitch": 49, "duration": 13, "velocity": 50}, {"time": 570, "pitch": 45, "duration": 6, "velocity": 51}, {"time": 576, "pitch": 42, "duration": 79, "velocity": 57}, {"time": 576, "pitch": 54, "duration": 35, "velocity": 41}, {"time": 576, "pitch": 61, "duration": 17, "velocity": 53}, {"time": 576, "pitch": 66, "duration": 16, "velocity": 78}, {"time": 576, "pitch": 69, "duration": 19, "velocity": 37}, {"time": 600, "pitch": 61, "duration": 18, "velocity": 41}, {"time": 600, "pitch": 66, "duration": 15, "velocity": 68}, {"time": 600, "pitch": 69, "duration": 17, "velocity": 15}, {"time": 624, "pitch": 49, "duration": 48, "velocity": 69}, {"time": 672, "pitch": 49, "duration": 1, "velocity": 69}, {"time": 720, "pitch": 49, "duration": 1, "velocity": 66}, {"time": 720, "pitch": 61, "duration": 18, "velocity": 69}, {"time": 720, "pitch": 64, "duration": 16, "velocity": 80}, {"time": 720, "pitch": 68, "duration": 16, "velocity": 82}, {"time": 744, "pitch": 61, "duration": 12, "velocity": 59}, {"time": 744, "pitch": 64, "duration": 13, "velocity": 69}, {"time": 744, "pitch": 68, "duration": 12, "velocity": 60}, {"time": 768, "pitch": 63, "duration": 13, "velocity": 53}, {"time": 768, "pitch": 64, "duration": 12, "velocity": 60}, {"time": 768, "pitch": 68, "duration": 12, "velocity": 66}, {"time": 780, "pitch": 56, "duration": 16, "velocity": 19}, {"time": 792, "pitch": 63, "duration": 16, "velocity": 53}, {"time": 792, "pitch": 66, "duration": 14, "velocity": 85}, {"time": 804, "pitch": 56, "duration": 14, "velocity": 63}, {"time": 816, "pitch": 49, "duration": 38, "velocity": 66}, {"time": 816, "pitch": 64, "duration": 26, "velocity": 69}, {"time": 816, "pitch": 68, "duration": 27, "velocity": 72}, {"time": 828, "pitch": 56, "duration": 36, "velocity": 31}, {"time": 840, "pitch": 61, "duration": 14, "velocity": 60}, {"time": 852, "pitch": 63, "duration": 13, "velocity": 66}, {"time": 864, "pitch": 49, "duration": 35, "velocity": 66}, {"time": 864, "pitch": 64, "duration": 21, "velocity": 74}, {"time": 864, "pitch": 68, "duration": 24, "velocity": 66}, {"time": 876, "pitch": 56, "duration": 11, "velocity": 25}, {"time": 888, "pitch": 61, "duration": 11, "velocity": 44}, {"time": 888, "pitch": 63, "duration": 12, "velocity": 60}, {"time": 888, "pitch": 66, "duration": 12, "velocity": 94}, {"time": 900, "pitch": 64, "duration": 45, "velocity": 66}, {"time": 900, "pitch": 68, "duration": 12, "velocity": 69}, {"time": 912, "pitch": 49, "duration": 38, "velocity": 82}, {"time": 912, "pitch": 63, "duration": 6, "velocity": 68}, {"time": 912, "pitch": 68, "duration": 35, "velocity": 66}, {"time": 924, "pitch": 56, "duration": 12, "velocity": 51}, {"time": 936, "pitch": 61, "duration": 11, "velocity": 54}, {"time": 948, "pitch": 56, "duration": 10, "velocity": 74}, {"time": 960, "pitch": 47, "duration": 38, "velocity": 71}, {"time": 960, "pitch": 59, "duration": 14, "velocity": 60}, {"time": 960, "pitch": 63, "duration": 13, "velocity": 65}, {"time": 960, "pitch": 66, "duration": 13, "velocity": 53}, {"time": 972, "pitch": 54, "duration": 16, "velocity": 56}, {"time": 984, "pitch": 59, "duration": 13, "velocity": 62}, {"time": 984, "pitch": 63, "duration": 13, "velocity": 74}, {"time": 984, "pitch": 66, "duration": 13, "velocity": 87}, {"time": 996, "pitch": 54, "duration": 3, "velocity": 74}, {"time": 1008, "pitch": 45, "duration": 36, "velocity": 33}, {"time": 1008, "pitch": 57, "duration": 19, "velocity": 69}, {"time": 1008, "pitch": 61, "duration": 15, "velocity": 80}, {"time": 1008, "pitch": 64, "duration": 14, "velocity": 84}, {"time": 1032, "pitch": 61, "duration": 14, "velocity": 66}, {"time": 1032, "pitch": 64, "duration": 12, "velocity": 74}, {"time": 1032, "pitch": 69, "duration": 16, "velocity": 36}, {"time": 1044, "pitch": 57, "duration": 5, "velocity": 59}, {"time": 1056, "pitch": 44, "duration": 41, "velocity": 82}, {"time": 1056, "pitch": 59, "duration": 16, "velocity": 69}, {"time": 1056, "pitch": 63, "duration": 16, "velocity": 66}, {"time": 1068, "pitch": 56, "duration": 26, "velocity": 51}, {"time": 1080, "pitch": 58, "duration": 14, "velocity": 71}, {"time": 1080, "pitch": 63, "duration": 13, "velocity": 88}, {"time": 1092, "pitch": 59, "duration": 11, "velocity": 78}, {"time": 1092, "pitch": 66, "duration": 13, "velocity": 98}, {"time": 1104, "pitch": 47, "duration": 38, "velocity": 92}, {"time": 1104, "pitch": 61, "duration": 14, "velocity": 66}, {"time": 1104, "pitch": 63, "duration": 16, "velocity": 78}, {"time": 1104, "pitch": 66, "duration": 1, "velocity": 94}, {"time": 1104, "pitch": 71, "duration": 17, "velocity": 76}, {"time": 1116, "pitch": 54, "duration": 13, "velocity": 56}, {"time": 1128, "pitch": 59, "duration": 11, "velocity": 37}, {"time": 1128, "pitch": 63, "duration": 12, "velocity": 76}, {"time": 1128, "pitch": 66, "duration": 12, "velocity": 92}, {"time": 1128, "pitch": 71, "duration": 9, "velocity": 65}, {"time": 1140, "pitch": 54, "duration": 12, "velocity": 90}, {"time": 1152, "pitch": 49, "duration": 42, "velocity": 90}, {"time": 1152, "pitch": 64, "duration": 15, "velocity": 85}, {"time": 1152, "pitch": 68, "duration": 14, "velocity": 88}, {"time": 1164, "pitch": 56, "duration": 31, "velocity": 65}, {"time": 1170, "pitch": 61, "duration": 21, "velocity": 72}, {"time": 1176, "pitch": 63, "duration": 8, "velocity": 72}, {"time": 1182, "pitch": 64, "duration": 8, "velocity": 76}, {"time": 1188, "pitch": 66, "duration": 6, "velocity": 78}, {"time": 1194, "pitch": 68, "duration": 6, "velocity": 74}, {"time": 1200, "pitch": 44, "duration": 36, "velocity": 82}, {"time": 1200, "pitch": 59, "duration": 16, "velocity": 69}, {"time": 1200, "pitch": 63, "duration": 14, "velocity": 90}, {"time": 1200, "pitch": 68, "duration": 1, "velocity": 87}, {"time": 1212, "pitch": 51, "duration": 24, "velocity": 75}, {"time": 1224, "pitch": 56, "duration": 24, "velocity": 48}, {"time": 1224, "pitch": 59, "duration": 16, "velocity": 75}, {"time": 1224, "pitch": 63, "duration": 14, "velocity": 90}, {"time": 1224, "pitch": 68, "duration": 19, "velocity": 94}, {"time": 1248, "pitch": 49, "duration": 40, "velocity": 88}, {"time": 1248, "pitch": 61, "duration": 9, "velocity": 76}, {"time": 1248, "pitch": 64, "duration": 9, "velocity": 90}, {"time": 1260, "pitch": 56, "duration": 33, "velocity": 63}, {"time": 1266, "pitch": 68, "duration": 9, "velocity": 44}, {"time": 1272, "pitch": 61, "duration": 15, "velocity": 62}, {"time": 1272, "pitch": 76, "duration": 9, "velocity": 92}, {"time": 1278, "pitch": 75, "duration": 5, "velocity": 97}, {"time": 1284, "pitch": 73, "duration": 5, "velocity": 71}, {"time": 1290, "pitch": 71, "duration": 6, "velocity": 78}, {"time": 1296, "pitch": 42, "duration": 40, "velocity": 97}, {"time": 1296, "pitch": 54, "duration": 31, "velocity": 76}, {"time": 1296, "pitch": 61, "duration": 20, "velocity": 69}, {"time": 1296, "pitch": 66, "duration": 20, "velocity": 75}, {"time": 1296, "pitch": 69, "duration": 21, "velocity": 99}, {"time": 1320, "pitch": 61, "duration": 13, "velocity": 74}, {"time": 1320, "pitch": 66, "duration": 13, "velocity": 86}, {"time": 1320, "pitch": 69, "duration": 14, "velocity": 82}, {"time": 1332, "pitch": 54, "duration": 4, "velocity": 72}, {"time": 1344, "pitch": 42, "duration": 31, "velocity": 77}, {"time": 1344, "pitch": 54, "duration": 32, "velocity": 85}, {"time": 1344, "pitch": 61, "duration": 22, "velocity": 72}, {"time": 1344, "pitch": 66, "duration": 22, "velocity": 99}, {"time": 1344, "pitch": 69, "duration": 23, "velocity": 83}, {"time": 1368, "pitch": 61, "duration": 13, "velocity": 82}, {"time": 1368, "pitch": 66, "duration": 12, "velocity": 96}, {"time": 1368, "pitch": 69, "duration": 13, "velocity": 54}, {"time": 1380, "pitch": 42, "duration": 3, "velocity": 103}, {"time": 1380, "pitch": 54, "duration": 1, "velocity": 60}, {"time": 1392, "pitch": 37, "duration": 7, "velocity": 91}, {"time": 1392, "pitch": 49, "duration": 7, "velocity": 63}, {"time": 1392, "pitch": 61, "duration": 7, "velocity": 81}, {"time": 1392, "pitch": 64, "duration": 7, "velocity": 88}, {"time": 1392, "pitch": 68, "duration": 6, "velocity": 88}, {"time": 1404, "pitch": 37, "duration": 25, "velocity": 96}, {"time": 1404, "pitch": 49, "duration": 17, "velocity": 86}, {"time": 1404, "pitch": 61, "duration": 25, "velocity": 74}, {"time": 1404, "pitch": 64, "duration": 25, "velocity": 72}, {"time": 1404, "pitch": 68, "duration": 25, "velocity": 91}, {"time": 1428, "pitch": 49, "duration": 4, "velocity": 72}, {"time": 1440, "pitch": 46, "duration": 40, "velocity": 74}, {"time": 1440, "pitch": 58, "duration": 38, "velocity": 56}, {"time": 1440, "pitch": 61, "duration": 21, "velocity": 72}, {"time": 1440, "pitch": 64, "duration": 16, "velocity": 79}, {"time": 1440, "pitch": 68, "duration": 14, "velocity": 76}, {"time": 1488, "pitch": 45, "duration": 40, "velocity": 68}, {"time": 1488, "pitch": 57, "duration": 39, "velocity": 47}, {"time": 1488, "pitch": 61, "duration": 39, "velocity": 72}, {"time": 1488, "pitch": 64, "duration": 39, "velocity": 74}, {"time": 1488, "pitch": 69, "duration": 40, "velocity": 60}, {"time": 1536, "pitch": 44, "duration": 77, "velocity": 65}, {"time": 1536, "pitch": 56, "duration": 77, "velocity": 45}, {"time": 1536, "pitch": 60, "duration": 75, "velocity": 45}, {"time": 1536, "pitch": 63, "duration": 75, "velocity": 88}, {"time": 1536, "pitch": 68, "duration": 75, "velocity": 78}, {"time": 1632, "pitch": 49, "duration": 86, "velocity": 60}, {"time": 1632, "pitch": 56, "duration": 44, "velocity": 50}, {"time": 1632, "pitch": 61, "duration": 21, "velocity": 85}, {"time": 1632, "pitch": 64, "duration": 21, "velocity": 72}, {"time": 1656, "pitch": 64, "duration": 19, "velocity": 72}, {"time": 1668, "pitch": 59, "duration": 10, "velocity": 66}, {"time": 1680, "pitch": 61, "duration": 3, "velocity": 84}, {"time": 1686, "pitch": 56, "duration": 32, "velocity": 54}, {"time": 1686, "pitch": 63, "duration": 4, "velocity": 65}, {"time": 1692, "pitch": 64, "duration": 9, "velocity": 78}, {"time": 1698, "pitch": 66, "duration": 8, "velocity": 63}, {"time": 1704, "pitch": 61, "duration": 14, "velocity": 44}, {"time": 1704, "pitch": 68, "duration": 4, "velocity": 56}, {"time": 1710, "pitch": 71, "duration": 6, "velocity": 62}, {"time": 1716, "pitch": 73, "duration": 5, "velocity": 68}, {"time": 1722, "pitch": 75, "duration": 5, "velocity": 68}, {"time": 1728, "pitch": 40, "duration": 31, "velocity": 86}, {"time": 1728, "pitch": 52, "duration": 14, "velocity": 72}, {"time": 1728, "pitch": 59, "duration": 19, "velocity": 68}, {"time": 1728, "pitch": 64, "duration": 19, "velocity": 86}, {"time": 1728, "pitch": 68, "duration": 19, "velocity": 82}, {"time": 1728, "pitch": 71, "duration": 20, "velocity": 63}, {"time": 1746, "pitch": 52, "duration": 6, "velocity": 47}, {"time": 1752, "pitch": 59, "duration": 8, "velocity": 86}, {"time": 1752, "pitch": 64, "duration": 9, "velocity": 90}, {"time": 1752, "pitch": 68, "duration": 9, "velocity": 92}, {"time": 1752, "pitch": 71, "duration": 6, "velocity": 63}, {"time": 1758, "pitch": 52, "duration": 5, "velocity": 63}, {"time": 1764, "pitch": 59, "duration": 8, "velocity": 60}, {"time": 1764, "pitch": 68, "duration": 3, "velocity": 82}, {"time": 1770, "pitch": 71, "duration": 18, "velocity": 78}, {"time": 1776, "pitch": 47, "duration": 35, "velocity": 82}, {"time": 1776, "pitch": 59, "duration": 8, "velocity": 69}, {"time": 1776, "pitch": 63, "duration": 9, "velocity": 82}, {"time": 1776, "pitch": 66, "duration": 10, "velocity": 86}, {"time": 1788, "pitch": 54, "duration": 22, "velocity": 76}, {"time": 1794, "pitch": 59, "duration": 14, "velocity": 65}, {"time": 1800, "pitch": 66, "duration": 8, "velocity": 97}, {"time": 1806, "pitch": 71, "duration": 5, "velocity": 69}, {"time": 1812, "pitch": 73, "duration": 8, "velocity": 69}, {"time": 1818, "pitch": 75, "duration": 3, "velocity": 65}, {"time": 1824, "pitch": 44, "duration": 39, "velocity": 65}, {"time": 1824, "pitch": 56, "duration": 12, "velocity": 50}, {"time": 1824, "pitch": 60, "duration": 22, "velocity": 47}, {"time": 1824, "pitch": 63, "duration": 19, "velocity": 96}, {"time": 1824, "pitch": 68, "duration": 19, "velocity": 72}, {"time": 1842, "pitch": 56, "duration": 8, "velocity": 45}, {"time": 1848, "pitch": 51, "duration": 14, "velocity": 88}, {"time": 1854, "pitch": 56, "duration": 10, "velocity": 82}, {"time": 1860, "pitch": 60, "duration": 4, "velocity": 48}, {"time": 1866, "pitch": 63, "duration": 5, "velocity": 91}, {"time": 1872, "pitch": 49, "duration": 36, "velocity": 77}, {"time": 1872, "pitch": 64, "duration": 17, "velocity": 90}, {"time": 1872, "pitch": 68, "duration": 20, "velocity": 74}, {"time": 1884, "pitch": 56, "duration": 24, "velocity": 56}, {"time": 1890, "pitch": 61, "duration": 16, "velocity": 57}, {"time": 1896, "pitch": 63, "duration": 8, "velocity": 72}, {"time": 1902, "pitch": 64, "duration": 8, "velocity": 76}, {"time": 1908, "pitch": 66, "duration": 9, "velocity": 79}, {"time": 1914, "pitch": 68, "duration": 5, "velocity": 79}, {"time": 1920, "pitch": 49, "duration": 37, "velocity": 82}, {"time": 1920, "pitch": 61, "duration": 8, "velocity": 72}, {"time": 1920, "pitch": 64, "duration": 12, "velocity": 77}, {"time": 1920, "pitch": 68, "duration": 13, "velocity": 72}, {"time": 1926, "pitch": 56, "duration": 29, "velocity": 60}, {"time": 1932, "pitch": 61, "duration": 16, "velocity": 78}, {"time": 1938, "pitch": 63, "duration": 9, "velocity": 68}, {"time": 1944, "pitch": 64, "duration": 8, "velocity": 72}, {"time": 1950, "pitch": 66, "duration": 10, "velocity": 94}, {"time": 1956, "pitch": 68, "duration": 7, "velocity": 77}, {"time": 1962, "pitch": 71, "duration": 9, "velocity": 90}, {"time": 1968, "pitch": 42, "duration": 41, "velocity": 85}, {"time": 1968, "pitch": 61, "duration": 14, "velocity": 68}, {"time": 1968, "pitch": 66, "duration": 14, "velocity": 76}, {"time": 1968, "pitch": 70, "duration": 14, "velocity": 85}, {"time": 1980, "pitch": 54, "duration": 14, "velocity": 47}, {"time": 1992, "pitch": 61, "duration": 15, "velocity": 76}, {"time": 1992, "pitch": 66, "duration": 15, "velocity": 88}, {"time": 1992, "pitch": 70, "duration": 15, "velocity": 94}, {"time": 2004, "pitch": 54, "duration": 5, "velocity": 68}, {"time": 2016, "pitch": 35, "duration": 35, "velocity": 81}, {"time": 2016, "pitch": 47, "duration": 27, "velocity": 53}, {"time": 2016, "pitch": 54, "duration": 16, "velocity": 69}, {"time": 2016, "pitch": 59, "duration": 16, "velocity": 68}, {"time": 2016, "pitch": 63, "duration": 16, "velocity": 84}, {"time": 2040, "pitch": 54, "duration": 11, "velocity": 74}, {"time": 2040, "pitch": 59, "duration": 11, "velocity": 72}, {"time": 2040, "pitch": 63, "duration": 12, "velocity": 88}, {"time": 2046, "pitch": 47, "duration": 4, "velocity": 65}, {"time": 2064, "pitch": 40, "duration": 13, "velocity": 82}, {"time": 2064, "pitch": 52, "duration": 12, "velocity": 69}, {"time": 2064, "pitch": 56, "duration": 12, "velocity": 72}, {"time": 2064, "pitch": 59, "duration": 12, "velocity": 88}, {"time": 2064, "pitch": 64, "duration": 11, "velocity": 90}, {"time": 2088, "pitch": 39, "duration": 29, "velocity": 77}, {"time": 2088, "pitch": 51, "duration": 22, "velocity": 57}, {"time": 2088, "pitch": 54, "duration": 29, "velocity": 77}, {"time": 2088, "pitch": 57, "duration": 29, "velocity": 54}, {"time": 2088, "pitch": 61, "duration": 28, "velocity": 81}, {"time": 2124, "pitch": 39, "duration": 3, "velocity": 81}, {"time": 2124, "pitch": 51, "duration": 3, "velocity": 77}, {"time": 2124, "pitch": 54, "duration": 3, "velocity": 77}, {"time": 2124, "pitch": 57, "duration": 3, "velocity": 54}, {"time": 2124, "pitch": 63, "duration": 3, "velocity": 84}, {"time": 2130, "pitch": 39, "duration": 3, "velocity": 82}, {"time": 2130, "pitch": 51, "duration": 3, "velocity": 65}, {"time": 2130, "pitch": 54, "duration": 3, "velocity": 65}, {"time": 2130, "pitch": 57, "duration": 3, "velocity": 48}, {"time": 2130, "pitch": 63, "duration": 3, "velocity": 76}, {"time": 2136, "pitch": 39, "duration": 3, "velocity": 81}, {"time": 2136, "pitch": 51, "duration": 3, "velocity": 76}, {"time": 2136, "pitch": 54, "duration": 3, "velocity": 68}, {"time": 2136, "pitch": 57, "duration": 3, "velocity": 53}, {"time": 2136, "pitch": 63, "duration": 3, "velocity": 72}, {"time": 2142, "pitch": 39, "duration": 3, "velocity": 72}, {"time": 2142, "pitch": 51, "duration": 3, "velocity": 70}, {"time": 2142, "pitch": 54, "duration": 3, "velocity": 78}, {"time": 2142, "pitch": 57, "duration": 3, "velocity": 48}, {"time": 2142, "pitch": 63, "duration": 2, "velocity": 65}, {"time": 2148, "pitch": 39, "duration": 3, "velocity": 78}, {"time": 2148, "pitch": 51, "duration": 3, "velocity": 72}, {"time": 2148, "pitch": 54, "duration": 3, "velocity": 69}, {"time": 2148, "pitch": 57, "duration": 3, "velocity": 45}, {"time": 2148, "pitch": 63, "duration": 2, "velocity": 60}, {"time": 2154, "pitch": 39, "duration": 3, "velocity": 85}, {"time": 2154, "pitch": 51, "duration": 3, "velocity": 84}, {"time": 2154, "pitch": 54, "duration": 3, "velocity": 81}, {"time": 2154, "pitch": 57, "duration": 3, "velocity": 68}, {"time": 2154, "pitch": 63, "duration": 3, "velocity": 97}, {"time": 2160, "pitch": 39, "duration": 43, "velocity": 78}, {"time": 2160, "pitch": 51, "duration": 43, "velocity": 55}, {"time": 2160, "pitch": 54, "duration": 44, "velocity": 63}, {"time": 2160, "pitch": 57, "duration": 44, "velocity": 66}, {"time": 2160, "pitch": 63, "duration": 42, "velocity": 69}, {"time": 2238, "pitch": 47, "duration": 6, "velocity": 33}, {"time": 2238, "pitch": 54, "duration": 8, "velocity": 74}, {"time": 2238, "pitch": 59, "duration": 7, "velocity": 70}, {"time": 2238, "pitch": 63, "duration": 9, "velocity": 99}, {"time": 2256, "pitch": 49, "duration": 48, "velocity": 68}, {"time": 2256, "pitch": 56, "duration": 47, "velocity": 65}, {"time": 2256, "pitch": 61, "duration": 45, "velocity": 90}, {"time": 2256, "pitch": 64, "duration": 46, "velocity": 81}, {"time": 2304, "pitch": 37, "duration": 3, "velocity": 72}, {"time": 2304, "pitch": 49, "duration": 3, "velocity": 62}, {"time": 2304, "pitch": 56, "duration": 3, "velocity": 53}, {"time": 2304, "pitch": 61, "duration": 2, "velocity": 69}, {"time": 2304, "pitch": 64, "duration": 3, "velocity": 60}, {"time": 2310, "pitch": 37, "duration": 3, "velocity": 72}, {"time": 2310, "pitch": 49, "duration": 3, "velocity": 62}, {"time": 2310, "pitch": 56, "duration": 3, "velocity": 53}, {"time": 2310, "pitch": 61, "duration": 2, "velocity": 69}, {"time": 2310, "pitch": 64, "duration": 3, "velocity": 60}, {"time": 2316, "pitch": 37, "duration": 3, "velocity": 62}, {"time": 2316, "pitch": 49, "duration": 2, "velocity": 56}, {"time": 2316, "pitch": 56, "duration": 3, "velocity": 54}, {"time": 2316, "pitch": 61, "duration": 3, "velocity": 74}, {"time": 2316, "pitch": 64, "duration": 3, "velocity": 62}, {"time": 2322, "pitch": 37, "duration": 3, "velocity": 68}, {"time": 2322, "pitch": 49, "duration": 3, "velocity": 53}, {"time": 2322, "pitch": 56, "duration": 3, "velocity": 59}, {"time": 2322, "pitch": 61, "duration": 3, "velocity": 77}, {"time": 2322, "pitch": 64, "duration": 3, "velocity": 60}, {"time": 2328, "pitch": 37, "duration": 3, "velocity": 72}, {"time": 2328, "pitch": 49, "duration": 3, "velocity": 56}, {"time": 2328, "pitch": 56, "duration": 3, "velocity": 56}, {"time": 2328, "pitch": 61, "duration": 3, "velocity": 63}, {"time": 2328, "pitch": 64, "duration": 3, "velocity": 59}, {"time": 2334, "pitch": 37, "duration": 4, "velocity": 70}, {"time": 2334, "pitch": 49, "duration": 3, "velocity": 53}, {"time": 2334, "pitch": 56, "duration": 3, "velocity": 60}, {"time": 2334, "pitch": 61, "duration": 3, "velocity": 76}, {"time": 2334, "pitch": 64, "duration": 3, "velocity": 62}, {"time": 2340, "pitch": 37, "duration": 4, "velocity": 54}, {"time": 2340, "pitch": 49, "duration": 3, "velocity": 50}, {"time": 2340, "pitch": 56, "duration": 3, "velocity": 57}, {"time": 2340, "pitch": 61, "duration": 2, "velocity": 72}, {"time": 2340, "pitch": 64, "duration": 2, "velocity": 57}, {"time": 2346, "pitch": 37, "duration": 3, "velocity": 72}, {"time": 2346, "pitch": 49, "duration": 3, "velocity": 53}, {"time": 2346, "pitch": 56, "duration": 3, "velocity": 57}, {"time": 2346, "pitch": 61, "duration": 3, "velocity": 82}, {"time": 2346, "pitch": 64, "duration": 2, "velocity": 60}, {"time": 2352, "pitch": 37, "duration": 45, "velocity": 88}, {"time": 2352, "pitch": 49, "duration": 44, "velocity": 86}, {"time": 2352, "pitch": 56, "duration": 44, "velocity": 74}, {"time": 2352, "pitch": 61, "duration": 44, "velocity": 81}, {"time": 2352, "pitch": 64, "duration": 42, "velocity": 91}, {"time": 2400, "pitch": 37, "duration": 4, "velocity": 72}, {"time": 2400, "pitch": 49, "duration": 3, "velocity": 50}, {"time": 2400, "pitch": 56, "duration": 3, "velocity": 60}, {"time": 2400, "pitch": 61, "duration": 3, "velocity": 72}, {"time": 2400, "pitch": 64, "duration": 3, "velocity": 69}, {"time": 2406, "pitch": 37, "duration": 4, "velocity": 72}, {"time": 2406, "pitch": 49, "duration": 3, "velocity": 50}, {"time": 2406, "pitch": 56, "duration": 3, "velocity": 60}, {"time": 2406, "pitch": 61, "duration": 3, "velocity": 72}, {"time": 2406, "pitch": 64, "duration": 3, "velocity": 69}, {"time": 2412, "pitch": 37, "duration": 4, "velocity": 74}, {"time": 2412, "pitch": 49, "duration": 3, "velocity": 51}, {"time": 2412, "pitch": 56, "duration": 4, "velocity": 54}, {"time": 2412, "pitch": 61, "duration": 3, "velocity": 78}, {"time": 2412, "pitch": 64, "duration": 4, "velocity": 60}, {"time": 2418, "pitch": 37, "duration": 4, "velocity": 70}, {"time": 2418, "pitch": 49, "duration": 3, "velocity": 57}, {"time": 2418, "pitch": 56, "duration": 3, "velocity": 60}, {"time": 2418, "pitch": 61, "duration": 3, "velocity": 81}, {"time": 2418, "pitch": 64, "duration": 3, "velocity": 54}, {"time": 2424, "pitch": 37, "duration": 4, "velocity": 65}, {"time": 2424, "pitch": 49, "duration": 3, "velocity": 56}, {"time": 2424, "pitch": 56, "duration": 4, "velocity": 60}, {"time": 2424, "pitch": 61, "duration": 3, "velocity": 78}, {"time": 2424, "pitch": 64, "duration": 3, "velocity": 60}, {"time": 2430, "pitch": 37, "duration": 5, "velocity": 56}, {"time": 2430, "pitch": 49, "duration": 3, "velocity": 69}, {"time": 2430, "pitch": 56, "duration": 4, "velocity": 56}, {"time": 2430, "pitch": 61, "duration": 3, "velocity": 78}, {"time": 2430, "pitch": 64, "duration": 4, "velocity": 60}, {"time": 2436, "pitch": 37, "duration": 4, "velocity": 60}, {"time": 2436, "pitch": 49, "duration": 3, "velocity": 63}, {"time": 2436, "pitch": 56, "duration": 4, "velocity": 54}, {"time": 2436, "pitch": 61, "duration": 3, "velocity": 79}, {"time": 2436, "pitch": 64, "duration": 3, "velocity": 56}, {"time": 2448, "pitch": 37, "duration": 3, "velocity": 86}, {"time": 2448, "pitch": 49, "duration": 3, "velocity": 70}, {"time": 2448, "pitch": 56, "duration": 3, "velocity": 54}, {"time": 2448, "pitch": 61, "duration": 3, "velocity": 82}, {"time": 2448, "pitch": 64, "duration": 2, "velocity": 72}, {"time": 2454, "pitch": 35, "duration": 2, "velocity": 111}, {"time": 2454, "pitch": 47, "duration": 2, "velocity": 54}, {"time": 2454, "pitch": 54, "duration": 3, "velocity": 60}, {"time": 2454, "pitch": 59, "duration": 2, "velocity": 53}, {"time": 2454, "pitch": 61, "duration": 3, "velocity": 88}, {"time": 2454, "pitch": 64, "duration": 2, "velocity": 68}, {"time": 2460, "pitch": 37, "duration": 38, "velocity": 91}, {"time": 2460, "pitch": 49, "duration": 38, "velocity": 90}, {"time": 2460, "pitch": 56, "duration": 48, "velocity": 72}, {"time": 2460, "pitch": 61, "duration": 48, "velocity": 88}, {"time": 2460, "pitch": 64, "duration": 49, "velocity": 70}, {"time": 2496, "pitch": 37, "duration": 2, "velocity": 85}, {"time": 2496, "pitch": 49, "duration": 2, "velocity": 72}, {"time": 2502, "pitch": 37, "duration": 3, "velocity": 76}, {"time": 2502, "pitch": 49, "duration": 3, "velocity": 50}, {"time": 2508, "pitch": 37, "duration": 3, "velocity": 65}, {"time": 2508, "pitch": 49, "duration": 2, "velocity": 57}, {"time": 2514, "pitch": 37, "duration": 4, "velocity": 84}, {"time": 2514, "pitch": 49, "duration": 3, "velocity": 68}, {"time": 2520, "pitch": 37, "duration": 4, "velocity": 76}, {"time": 2520, "pitch": 49, "duration": 3, "velocity": 68}, {"time": 2526, "pitch": 37, "duration": 3, "velocity": 68}, {"time": 2526, "pitch": 49, "duration": 4, "velocity": 65}, {"time": 2532, "pitch": 37, "duration": 3, "velocity": 91}, {"time": 2532, "pitch": 49, "duration": 3, "velocity": 92}, {"time": 2550, "pitch": 37, "duration": 15, "velocity": 106}, {"time": 2550, "pitch": 49, "duration": 15, "velocity": 103}, {"time": 2550, "pitch": 52, "duration": 15, "velocity": 99}, {"time": 2550, "pitch": 56, "duration": 15, "velocity": 96}, {"time": 2550, "pitch": 61, "duration": 15, "velocity": 103}, {"time": 2568, "pitch": 44, "duration": 18, "velocity": 84}, {"time": 2568, "pitch": 56, "duration": 18, "velocity": 86}, {"time": 2568, "pitch": 59, "duration": 18, "velocity": 92}, {"time": 2568, "pitch": 63, "duration": 18, "velocity": 99}, {"time": 2568, "pitch": 68, "duration": 18, "velocity": 101}, {"time": 2586, "pitch": 44, "duration": 17, "velocity": 84}, {"time": 2586, "pitch": 56, "duration": 16, "velocity": 86}, {"time": 2586, "pitch": 59, "duration": 19, "velocity": 92}, {"time": 2586, "pitch": 63, "duration": 27, "velocity": 99}, {"time": 2586, "pitch": 68, "duration": 28, "velocity": 101}, {"time": 2640, "pitch": 49, "duration": 87, "velocity": 66}, {"time": 2640, "pitch": 61, "duration": 18, "velocity": 69}, {"time": 2640, "pitch": 64, "duration": 16, "velocity": 80}, {"time": 2640, "pitch": 68, "duration": 16, "velocity": 82}, {"time": 2664, "pitch": 61, "duration": 12, "velocity": 59}, {"time": 2664, "pitch": 64, "duration": 13, "velocity": 69}, {"time": 2664, "pitch": 68, "duration": 12, "velocity": 60}, {"time": 2688, "pitch": 63, "duration": 13, "velocity": 53}, {"time": 2688, "pitch": 64, "duration": 12, "velocity": 60}, {"time": 2688, "pitch": 68, "duration": 12, "velocity": 66}, {"time": 2700, "pitch": 56, "duration": 16, "velocity": 19}, {"time": 2712, "pitch": 63, "duration": 16, "velocity": 53}, {"time": 2712, "pitch": 66, "duration": 14, "velocity": 85}, {"time": 2724, "pitch": 56, "duration": 14, "velocity": 63}, {"time": 2736, "pitch": 49, "duration": 38, "velocity": 66}, {"time": 2736, "pitch": 64, "duration": 26, "velocity": 69}, {"time": 2736, "pitch": 68, "duration": 27, "velocity": 72}, {"time": 2748, "pitch": 56, "duration": 36, "velocity": 31}, {"time": 2760, "pitch": 61, "duration": 14, "velocity": 60}, {"time": 2772, "pitch": 63, "duration": 13, "velocity": 66}, {"time": 2784, "pitch": 49, "duration": 35, "velocity": 66}, {"time": 2784, "pitch": 64, "duration": 21, "velocity": 74}, {"time": 2784, "pitch": 68, "duration": 24, "velocity": 66}, {"time": 2796, "pitch": 56, "duration": 11, "velocity": 25}, {"time": 2808, "pitch": 61, "duration": 11, "velocity": 44}, {"time": 2808, "pitch": 63, "duration": 12, "velocity": 60}, {"time": 2808, "pitch": 66, "duration": 12, "velocity": 94}, {"time": 2820, "pitch": 64, "duration": 45, "velocity": 66}, {"time": 2820, "pitch": 68, "duration": 12, "velocity": 69}, {"time": 2832, "pitch": 49, "duration": 38, "velocity": 82}, {"time": 2832, "pitch": 63, "duration": 6, "velocity": 68}, {"time": 2832, "pitch": 68, "duration": 35, "velocity": 66}, {"time": 2844, "pitch": 56, "duration": 12, "velocity": 51}, {"time": 2856, "pitch": 61, "duration": 11, "velocity": 54}, {"time": 2868, "pitch": 56, "duration": 10, "velocity": 74}, {"time": 2880, "pitch": 47, "duration": 38, "velocity": 71}, {"time": 2880, "pitch": 59, "duration": 14, "velocity": 60}, {"time": 2880, "pitch": 63, "duration": 13, "velocity": 65}, {"time": 2880, "pitch": 66, "duration": 13, "velocity": 53}, {"time": 2892, "pitch": 54, "duration": 16, "velocity": 56}, {"time": 2904, "pitch": 59, "duration": 13, "velocity": 62}, {"time": 2904, "pitch": 63, "duration": 13, "velocity": 74}, {"time": 2904, "pitch": 66, "duration": 13, "velocity": 87}, {"time": 2916, "pitch": 54, "duration": 3, "velocity": 74}, {"time": 2928, "pitch": 46, "duration": 36, "velocity": 50}, {"time": 2928, "pitch": 58, "duration": 19, "velocity": 69}, {"time": 2928, "pitch": 61, "duration": 15, "velocity": 80}, {"time": 2928, "pitch": 64, "duration": 14, "velocity": 84}, {"time": 2952, "pitch": 61, "duration": 14, "velocity": 66}, {"time": 2952, "pitch": 64, "duration": 12, "velocity": 74}, {"time": 2952, "pitch": 69, "duration": 16, "velocity": 36}, {"time": 2964, "pitch": 57, "duration": 5, "velocity": 59}, {"time": 2976, "pitch": 44, "duration": 41, "velocity": 82}, {"time": 2976, "pitch": 59, "duration": 16, "velocity": 69}, {"time": 2976, "pitch": 63, "duration": 16, "velocity": 66}, {"time": 2988, "pitch": 56, "duration": 26, "velocity": 51}, {"time": 3000, "pitch": 58, "duration": 14, "velocity": 71}, {"time": 3000, "pitch": 63, "duration": 13, "velocity": 88}, {"time": 3012, "pitch": 59, "duration": 11, "velocity": 78}, {"time": 3012, "pitch": 66, "duration": 13, "velocity": 98}, {"time": 3024, "pitch": 47, "duration": 38, "velocity": 92}, {"time": 3024, "pitch": 61, "duration": 14, "velocity": 66}, {"time": 3024, "pitch": 63, "duration": 16, "velocity": 78}, {"time": 3024, "pitch": 66, "duration": 1, "velocity": 94}, {"time": 3024, "pitch": 71, "duration": 17, "velocity": 76}, {"time": 3036, "pitch": 54, "duration": 13, "velocity": 56}, {"time": 3048, "pitch": 59, "duration": 11, "velocity": 37}, {"time": 3048, "pitch": 63, "duration": 12, "velocity": 76}, {"time": 3048, "pitch": 66, "duration": 12, "velocity": 92}, {"time": 3048, "pitch": 71, "duration": 9, "velocity": 65}, {"time": 3060, "pitch": 54, "duration": 12, "velocity": 90}, {"time": 3072, "pitch": 49, "duration": 42, "velocity": 90}, {"time": 3072, "pitch": 64, "duration": 15, "velocity": 85}, {"time": 3072, "pitch": 68, "duration": 14, "velocity": 88}, {"time": 3084, "pitch": 56, "duration": 31, "velocity": 65}, {"time": 3084, "pitch": 61, "duration": 21, "velocity": 72}, {"time": 3096, "pitch": 63, "duration": 8, "velocity": 72}, {"time": 3102, "pitch": 64, "duration": 8, "velocity": 76}, {"time": 3108, "pitch": 66, "duration": 6, "velocity": 78}, {"time": 3114, "pitch": 68, "duration": 6, "velocity": 74}, {"time": 3120, "pitch": 44, "duration": 36, "velocity": 82}, {"time": 3120, "pitch": 59, "duration": 16, "velocity": 69}, {"time": 3120, "pitch": 63, "duration": 14, "velocity": 90}, {"time": 3120, "pitch": 68, "duration": 1, "velocity": 87}, {"time": 3132, "pitch": 51, "duration": 24, "velocity": 75}, {"time": 3144, "pitch": 56, "duration": 24, "velocity": 48}, {"time": 3144, "pitch": 59, "duration": 16, "velocity": 75}, {"time": 3144, "pitch": 63, "duration": 14, "velocity": 90}, {"time": 3144, "pitch": 68, "duration": 19, "velocity": 94}, {"time": 3168, "pitch": 49, "duration": 40, "velocity": 88}, {"time": 3168, "pitch": 61, "duration": 9, "velocity": 76}, {"time": 3168, "pitch": 64, "duration": 9, "velocity": 90}, {"time": 3180, "pitch": 56, "duration": 33, "velocity": 63}, {"time": 3186, "pitch": 68, "duration": 9, "velocity": 44}, {"time": 3192, "pitch": 61, "duration": 15, "velocity": 62}, {"time": 3192, "pitch": 76, "duration": 9, "velocity": 92}, {"time": 3198, "pitch": 75, "duration": 5, "velocity": 97}, {"time": 3204, "pitch": 73, "duration": 5, "velocity": 71}, {"time": 3210, "pitch": 71, "duration": 6, "velocity": 78}, {"time": 3216, "pitch": 42, "duration": 40, "velocity": 97}, {"time": 3216, "pitch": 54, "duration": 31, "velocity": 76}, {"time": 3216, "pitch": 61, "duration": 20, "velocity": 69}, {"time": 3216, "pitch": 66, "duration": 20, "velocity": 111}, {"time": 3216, "pitch": 69, "duration": 21, "velocity": 99}, {"time": 3240, "pitch": 61, "duration": 13, "velocity": 74}, {"time": 3240, "pitch": 66, "duration": 13, "velocity": 113}, {"time": 3240, "pitch": 69, "duration": 14, "velocity": 109}, {"time": 3252, "pitch": 54, "duration": 4, "velocity": 72}, {"time": 3264, "pitch": 42, "duration": 31, "velocity": 77}, {"time": 3264, "pitch": 54, "duration": 32, "velocity": 85}, {"time": 3264, "pitch": 61, "duration": 22, "velocity": 72}, {"time": 3264, "pitch": 65, "duration": 22, "velocity": 99}, {"time": 3264, "pitch": 69, "duration": 23, "velocity": 83}, {"time": 3288, "pitch": 61, "duration": 13, "velocity": 82}, {"time": 3288, "pitch": 65, "duration": 12, "velocity": 96}, {"time": 3288, "pitch": 69, "duration": 13, "velocity": 54}, {"time": 3300, "pitch": 42, "duration": 3, "velocity": 103}, {"time": 3300, "pitch": 54, "duration": 1, "velocity": 60}, {"time": 3312, "pitch": 37, "duration": 7, "velocity": 91}, {"time": 3312, "pitch": 49, "duration": 7, "velocity": 63}, {"time": 3312, "pitch": 61, "duration": 7, "velocity": 81}, {"time": 3312, "pitch": 64, "duration": 7, "velocity": 88}, {"time": 3312, "pitch": 68, "duration": 6, "velocity": 88}, {"time": 3324, "pitch": 37, "duration": 25, "velocity": 96}, {"time": 3324, "pitch": 49, "duration": 17, "velocity": 86}, {"time": 3324, "pitch": 61, "duration": 25, "velocity": 74}, {"time": 3324, "pitch": 64, "duration": 25, "velocity": 72}, {"time": 3324, "pitch": 68, "duration": 25, "velocity": 91}, {"time": 3342, "pitch": 49, "duration": 4, "velocity": 72}, {"time": 3360, "pitch": 46, "duration": 40, "velocity": 74}, {"time": 3360, "pitch": 58, "duration": 38, "velocity": 56}, {"time": 3360, "pitch": 61, "duration": 21, "velocity": 72}, {"time": 3360, "pitch": 64, "duration": 16, "velocity": 79}, {"time": 3360, "pitch": 68, "duration": 14, "velocity": 76}, {"time": 3408, "pitch": 45, "duration": 40, "velocity": 68}, {"time": 3408, "pitch": 57, "duration": 39, "velocity": 47}, {"time": 3408, "pitch": 61, "duration": 39, "velocity": 72}, {"time": 3408, "pitch": 64, "duration": 39, "velocity": 74}, {"time": 3408, "pitch": 69, "duration": 40, "velocity": 60}, {"time": 3456, "pitch": 44, "duration": 77, "velocity": 65}, {"time": 3456, "pitch": 56, "duration": 77, "velocity": 45}, {"time": 3456, "pitch": 60, "duration": 75, "velocity": 45}, {"time": 3456, "pitch": 63, "duration": 75, "velocity": 88}, {"time": 3456, "pitch": 68, "duration": 75, "velocity": 78}, {"time": 3552, "pitch": 49, "duration": 57, "velocity": 60}, {"time": 3552, "pitch": 56, "duration": 44, "velocity": 50}, {"time": 3552, "pitch": 61, "duration": 21, "velocity": 85}, {"time": 3552, "pitch": 64, "duration": 21, "velocity": 72}, {"time": 3576, "pitch": 64, "duration": 19, "velocity": 72}, {"time": 3582, "pitch": 59, "duration": 10, "velocity": 66}, {"time": 3606, "pitch": 37, "duration": 4, "velocity": 25}, {"time": 3606, "pitch": 49, "duration": 3, "velocity": 47}, {"time": 3606, "pitch": 56, "duration": 4, "velocity": 39}, {"time": 3606, "pitch": 61, "duration": 2, "velocity": 57}, {"time": 3612, "pitch": 37, "duration": 4, "velocity": 68}, {"time": 3612, "pitch": 49, "duration": 3, "velocity": 47}, {"time": 3612, "pitch": 56, "duration": 4, "velocity": 38}, {"time": 3612, "pitch": 61, "duration": 3, "velocity": 56}, {"time": 3612, "pitch": 64, "duration": 3, "velocity": 30}, {"time": 3618, "pitch": 37, "duration": 4, "velocity": 68}, {"time": 3618, "pitch": 49, "duration": 3, "velocity": 48}, {"time": 3618, "pitch": 56, "duration": 4, "velocity": 54}, {"time": 3618, "pitch": 61, "duration": 3, "velocity": 79}, {"time": 3618, "pitch": 64, "duration": 4, "velocity": 53}, {"time": 3624, "pitch": 37, "duration": 4, "velocity": 76}, {"time": 3624, "pitch": 49, "duration": 3, "velocity": 54}, {"time": 3624, "pitch": 56, "duration": 3, "velocity": 60}, {"time": 3624, "pitch": 61, "duration": 3, "velocity": 78}, {"time": 3624, "pitch": 64, "duration": 3, "velocity": 54}, {"time": 3630, "pitch": 37, "duration": 3, "velocity": 72}, {"time": 3630, "pitch": 49, "duration": 3, "velocity": 68}, {"time": 3630, "pitch": 56, "duration": 4, "velocity": 63}, {"time": 3630, "pitch": 61, "duration": 3, "velocity": 74}, {"time": 3630, "pitch": 64, "duration": 3, "velocity": 60}, {"time": 3636, "pitch": 37, "duration": 4, "velocity": 76}, {"time": 3636, "pitch": 49, "duration": 2, "velocity": 76}, {"time": 3636, "pitch": 56, "duration": 4, "velocity": 68}, {"time": 3636, "pitch": 61, "duration": 3, "velocity": 74}, {"time": 3636, "pitch": 64, "duration": 3, "velocity": 66}, {"time": 3642, "pitch": 37, "duration": 3, "velocity": 65}, {"time": 3642, "pitch": 49, "duration": 2, "velocity": 60}, {"time": 3642, "pitch": 56, "duration": 3, "velocity": 59}, {"time": 3642, "pitch": 61, "duration": 3, "velocity": 79}, {"time": 3642, "pitch": 64, "duration": 2, "velocity": 68}, {"time": 3648, "pitch": 40, "duration": 31, "velocity": 86}, {"time": 3648, "pitch": 52, "duration": 14, "velocity": 72}, {"time": 3648, "pitch": 59, "duration": 19, "velocity": 68}, {"time": 3648, "pitch": 64, "duration": 19, "velocity": 86}, {"time": 3648, "pitch": 68, "duration": 19, "velocity": 82}, {"time": 3648, "pitch": 71, "duration": 20, "velocity": 63}, {"time": 3666, "pitch": 52, "duration": 6, "velocity": 47}, {"time": 3672, "pitch": 59, "duration": 8, "velocity": 86}, {"time": 3672, "pitch": 64, "duration": 9, "velocity": 90}, {"time": 3672, "pitch": 68, "duration": 9, "velocity": 92}, {"time": 3672, "pitch": 71, "duration": 6, "velocity": 63}, {"time": 3678, "pitch": 52, "duration": 5, "velocity": 63}, {"time": 3684, "pitch": 59, "duration": 8, "velocity": 60}, {"time": 3684, "pitch": 66, "duration": 3, "velocity": 82}, {"time": 3690, "pitch": 71, "duration": 18, "velocity": 78}, {"time": 3696, "pitch": 47, "duration": 35, "velocity": 82}, {"time": 3696, "pitch": 59, "duration": 8, "velocity": 69}, {"time": 3696, "pitch": 63, "duration": 9, "velocity": 82}, {"time": 3696, "pitch": 66, "duration": 10, "velocity": 86}, {"time": 3708, "pitch": 54, "duration": 22, "velocity": 76}, {"time": 3714, "pitch": 59, "duration": 14, "velocity": 65}, {"time": 3720, "pitch": 66, "duration": 8, "velocity": 97}, {"time": 3726, "pitch": 71, "duration": 5, "velocity": 69}, {"time": 3732, "pitch": 73, "duration": 8, "velocity": 69}, {"time": 3738, "pitch": 75, "duration": 3, "velocity": 65}, {"time": 3744, "pitch": 44, "duration": 39, "velocity": 65}, {"time": 3744, "pitch": 56, "duration": 12, "velocity": 50}, {"time": 3744, "pitch": 60, "duration": 22, "velocity": 47}, {"time": 3744, "pitch": 63, "duration": 19, "velocity": 96}, {"time": 3744, "pitch": 68, "duration": 19, "velocity": 72}, {"time": 3762, "pitch": 56, "duration": 8, "velocity": 45}, {"time": 3768, "pitch": 51, "duration": 14, "velocity": 88}, {"time": 3774, "pitch": 56, "duration": 10, "velocity": 82}, {"time": 3780, "pitch": 60, "duration": 4, "velocity": 48}, {"time": 3786, "pitch": 63, "duration": 5, "velocity": 91}, {"time": 3792, "pitch": 49, "duration": 36, "velocity": 77}, {"time": 3792, "pitch": 64, "duration": 17, "velocity": 90}, {"time": 3792, "pitch": 68, "duration": 20, "velocity": 74}, {"time": 3804, "pitch": 56, "duration": 24, "velocity": 56}, {"time": 3810, "pitch": 61, "duration": 16, "velocity": 57}, {"time": 3816, "pitch": 63, "duration": 8, "velocity": 72}, {"time": 3822, "pitch": 64, "duration": 8, "velocity": 76}, {"time": 3828, "pitch": 66, "duration": 9, "velocity": 79}, {"time": 3834, "pitch": 68, "duration": 5, "velocity": 79}, {"time": 3840, "pitch": 49, "duration": 37, "velocity": 82}, {"time": 3840, "pitch": 61, "duration": 8, "velocity": 72}, {"time": 3840, "pitch": 64, "duration": 12, "velocity": 77}, {"time": 3840, "pitch": 68, "duration": 13, "velocity": 72}, {"time": 3846, "pitch": 56, "duration": 29, "velocity": 60}, {"time": 3852, "pitch": 61, "duration": 16, "velocity": 78}, {"time": 3858, "pitch": 63, "duration": 9, "velocity": 68}, {"time": 3864, "pitch": 64, "duration": 8, "velocity": 72}, {"time": 3870, "pitch": 66, "duration": 10, "velocity": 94}, {"time": 3876, "pitch": 68, "duration": 7, "velocity": 77}, {"time": 3882, "pitch": 71, "duration": 9, "velocity": 90}, {"time": 3888, "pitch": 42, "duration": 41, "velocity": 85}, {"time": 3888, "pitch": 61, "duration": 14, "velocity": 68}, {"time": 3888, "pitch": 66, "duration": 14, "velocity": 76}, {"time": 3888, "pitch": 70, "duration": 14, "velocity": 85}, {"time": 3900, "pitch": 54, "duration": 14, "velocity": 47}, {"time": 3912, "pitch": 61, "duration": 15, "velocity": 76}, {"time": 3912, "pitch": 66, "duration": 15, "velocity": 88}, {"time": 3912, "pitch": 70, "duration": 15, "velocity": 94}, {"time": 3924, "pitch": 54, "duration": 5, "velocity": 68}, {"time": 3936, "pitch": 35, "duration": 35, "velocity": 81}, {"time": 3936, "pitch": 47, "duration": 27, "velocity": 53}, {"time": 3936, "pitch": 54, "duration": 16, "velocity": 69}, {"time": 3936, "pitch": 59, "duration": 16, "velocity": 68}, {"time": 3936, "pitch": 63, "duration": 16, "velocity": 84}, {"time": 3960, "pitch": 54, "duration": 11, "velocity": 74}, {"time": 3960, "pitch": 59, "duration": 11, "velocity": 72}, {"time": 3960, "pitch": 63, "duration": 12, "velocity": 88}, {"time": 3966, "pitch": 47, "duration": 4, "velocity": 65}, {"time": 3984, "pitch": 40, "duration": 13, "velocity": 82}, {"time": 3984, "pitch": 52, "duration": 12, "velocity": 69}, {"time": 3984, "pitch": 56, "duration": 12, "velocity": 72}, {"time": 3984, "pitch": 59, "duration": 12, "velocity": 88}, {"time": 3984, "pitch": 64, "duration": 11, "velocity": 90}, {"time": 4008, "pitch": 39, "duration": 29, "velocity": 77}, {"time": 4008, "pitch": 51, "duration": 22, "velocity": 57}, {"time": 4008, "pitch": 54, "duration": 29, "velocity": 77}, {"time": 4008, "pitch": 57, "duration": 29, "velocity": 54}, {"time": 4008, "pitch": 61, "duration": 28, "velocity": 81}, {"time": 4044, "pitch": 39, "duration": 3, "velocity": 81}, {"time": 4044, "pitch": 51, "duration": 3, "velocity": 77}, {"time": 4044, "pitch": 54, "duration": 3, "velocity": 77}, {"time": 4044, "pitch": 57, "duration": 3, "velocity": 54}, {"time": 4044, "pitch": 63, "duration": 3, "velocity": 84}, {"time": 4050, "pitch": 39, "duration": 3, "velocity": 82}, {"time": 4050, "pitch": 51, "duration": 3, "velocity": 65}, {"time": 4050, "pitch": 54, "duration": 3, "velocity": 65}, {"time": 4050, "pitch": 57, "duration": 3, "velocity": 48}, {"time": 4050, "pitch": 63, "duration": 3, "velocity": 76}, {"time": 4056, "pitch": 39, "duration": 3, "velocity": 81}, {"time": 4056, "pitch": 51, "duration": 3, "velocity": 76}, {"time": 4056, "pitch": 54, "duration": 3, "velocity": 68}, {"time": 4056, "pitch": 57, "duration": 3, "velocity": 53}, {"time": 4056, "pitch": 63, "duration": 3, "velocity": 72}, {"time": 4062, "pitch": 39, "duration": 3, "velocity": 72}, {"time": 4062, "pitch": 51, "duration": 3, "velocity": 70}, {"time": 4062, "pitch": 54, "duration": 3, "velocity": 78}, {"time": 4062, "pitch": 57, "duration": 3, "velocity": 48}, {"time": 4062, "pitch": 63, "duration": 2, "velocity": 65}, {"time": 4068, "pitch": 39, "duration": 3, "velocity": 78}, {"time": 4068, "pitch": 51, "duration": 3, "velocity": 72}, {"time": 4068, "pitch": 54, "duration": 3, "velocity": 69}, {"time": 4068, "pitch": 57, "duration": 3, "velocity": 45}, {"time": 4068, "pitch": 63, "duration": 2, "velocity": 60}, {"time": 4074, "pitch": 39, "duration": 3, "velocity": 85}, {"time": 4074, "pitch": 51, "duration": 3, "velocity": 84}, {"time": 4074, "pitch": 54, "duration": 3, "velocity": 81}, {"time": 4074, "pitch": 57, "duration": 3, "velocity": 68}, {"time": 4074, "pitch": 63, "duration": 3, "velocity": 97}, {"time": 4080, "pitch": 44, "duration": 36, "velocity": 79}, {"time": 4080, "pitch": 56, "duration": 33, "velocity": 54}, {"time": 4080, "pitch": 59, "duration": 18, "velocity": 79}, {"time": 4080, "pitch": 63, "duration": 16, "velocity": 92}, {"time": 4080, "pitch": 68, "duration": 17, "velocity": 86}, {"time": 4128, "pitch": 44, "duration": 30, "velocity": 70}, {"time": 4128, "pitch": 56, "duration": 26, "velocity": 56}, {"time": 4128, "pitch": 59, "duration": 28, "velocity": 65}, {"time": 4128, "pitch": 63, "duration": 27, "velocity": 84}, {"time": 4128, "pitch": 68, "duration": 28, "velocity": 84}, {"time": 4176, "pitch": 37, "duration": 48, "velocity": 69}, {"time": 4176, "pitch": 49, "duration": 48, "velocity": 50}, {"time": 4176, "pitch": 61, "duration": 51, "velocity": 72}, {"time": 4176, "pitch": 64, "duration": 50, "velocity": 74}, {"time": 4176, "pitch": 68, "duration": 51, "velocity": 74}, {"time": 4230, "pitch": 37, "duration": 4, "velocity": 25}, {"time": 4230, "pitch": 49, "duration": 3, "velocity": 47}, {"time": 4230, "pitch": 56, "duration": 4, "velocity": 39}, {"time": 4230, "pitch": 61, "duration": 2, "velocity": 57}, {"time": 4236, "pitch": 37, "duration": 4, "velocity": 68}, {"time": 4236, "pitch": 49, "duration": 3, "velocity": 47}, {"time": 4236, "pitch": 56, "duration": 4, "velocity": 38}, {"time": 4236, "pitch": 61, "duration": 3, "velocity": 56}, {"time": 4236, "pitch": 64, "duration": 3, "velocity": 30}, {"time": 4242, "pitch": 37, "duration": 4, "velocity": 68}, {"time": 4242, "pitch": 49, "duration": 3, "velocity": 48}, {"time": 4242, "pitch": 56, "duration": 4, "velocity": 54}, {"time": 4242, "pitch": 61, "duration": 3, "velocity": 79}, {"time": 4242, "pitch": 64, "duration": 4, "velocity": 53}, {"time": 4248, "pitch": 37, "duration": 4, "velocity": 76}, {"time": 4248, "pitch": 49, "duration": 3, "velocity": 54}, {"time": 4248, "pitch": 56, "duration": 3, "velocity": 60}, {"time": 4248, "pitch": 61, "duration": 3, "velocity": 78}, {"time": 4248, "pitch": 64, "duration": 3, "velocity": 54}, {"time": 4248, "pitch": 76, "duration": 4, "velocity": 18}, {"time": 4254, "pitch": 37, "duration": 3, "velocity": 72}, {"time": 4254, "pitch": 49, "duration": 3, "velocity": 68}, {"time": 4254, "pitch": 56, "duration": 4, "velocity": 63}, {"time": 4254, "pitch": 61, "duration": 3, "velocity": 74}, {"time": 4254, "pitch": 64, "duration": 3, "velocity": 60}, {"time": 4260, "pitch": 37, "duration": 4, "velocity": 76}, {"time": 4260, "pitch": 49, "duration": 3, "velocity": 76}, {"time": 4260, "pitch": 56, "duration": 4, "velocity": 68}, {"time": 4260, "pitch": 61, "duration": 3, "velocity": 74}, {"time": 4260, "pitch": 64, "duration": 3, "velocity": 66}, {"time": 4266, "pitch": 37, "duration": 3, "velocity": 65}, {"time": 4266, "pitch": 49, "duration": 2, "velocity": 60}, {"time": 4266, "pitch": 56, "duration": 3, "velocity": 59}, {"time": 4266, "pitch": 61, "duration": 3, "velocity": 79}, {"time": 4266, "pitch": 64, "duration": 2, "velocity": 68}, {"time": 4272, "pitch": 40, "duration": 31, "velocity": 86}, {"time": 4272, "pitch": 52, "duration": 14, "velocity": 72}, {"time": 4272, "pitch": 59, "duration": 19, "velocity": 68}, {"time": 4272, "pitch": 64, "duration": 19, "velocity": 86}, {"time": 4272, "pitch": 68, "duration": 19, "velocity": 82}, {"time": 4272, "pitch": 71, "duration": 20, "velocity": 63}, {"time": 4290, "pitch": 52, "duration": 6, "velocity": 47}, {"time": 4296, "pitch": 59, "duration": 8, "velocity": 86}, {"time": 4296, "pitch": 64, "duration": 9, "velocity": 90}, {"time": 4296, "pitch": 68, "duration": 9, "velocity": 92}, {"time": 4296, "pitch": 71, "duration": 6, "velocity": 63}, {"time": 4302, "pitch": 52, "duration": 5, "velocity": 63}, {"time": 4308, "pitch": 59, "duration": 8, "velocity": 60}, {"time": 4308, "pitch": 66, "duration": 3, "velocity": 82}, {"time": 4314, "pitch": 71, "duration": 18, "velocity": 78}, {"time": 4320, "pitch": 47, "duration": 35, "velocity": 82}, {"time": 4320, "pitch": 59, "duration": 8, "velocity": 69}, {"time": 4320, "pitch": 63, "duration": 9, "velocity": 82}, {"time": 4320, "pitch": 66, "duration": 10, "velocity": 86}, {"time": 4332, "pitch": 54, "duration": 22, "velocity": 76}, {"time": 4338, "pitch": 59, "duration": 14, "velocity": 65}, {"time": 4344, "pitch": 66, "duration": 8, "velocity": 97}, {"time": 4350, "pitch": 71, "duration": 5, "velocity": 69}, {"time": 4356, "pitch": 73, "duration": 8, "velocity": 69}, {"time": 4362, "pitch": 75, "duration": 3, "velocity": 65}, {"time": 4368, "pitch": 44, "duration": 39, "velocity": 65}, {"time": 4368, "pitch": 56, "duration": 12, "velocity": 50}, {"time": 4368, "pitch": 60, "duration": 22, "velocity": 47}, {"time": 4368, "pitch": 63, "duration": 19, "velocity": 96}, {"time": 4368, "pitch": 68, "duration": 19, "velocity": 72}, {"time": 4386, "pitch": 56, "duration": 8, "velocity": 45}, {"time": 4392, "pitch": 51, "duration": 14, "velocity": 88}, {"time": 4398, "pitch": 56, "duration": 10, "velocity": 82}, {"time": 4404, "pitch": 60, "duration": 4, "velocity": 48}, {"time": 4410, "pitch": 63, "duration": 5, "velocity": 91}, {"time": 4416, "pitch": 49, "duration": 36, "velocity": 77}, {"time": 4416, "pitch": 64, "duration": 17, "velocity": 90}, {"time": 4416, "pitch": 68, "duration": 20, "velocity": 74}, {"time": 4428, "pitch": 56, "duration": 24, "velocity": 56}, {"time": 4434, "pitch": 61, "duration": 16, "velocity": 57}, {"time": 4440, "pitch": 63, "duration": 8, "velocity": 72}, {"time": 4446, "pitch": 64, "duration": 8, "velocity": 76}, {"time": 4452, "pitch": 66, "duration": 9, "velocity": 79}, {"time": 4458, "pitch": 68, "duration": 5, "velocity": 79}, {"time": 4464, "pitch": 49, "duration": 37, "velocity": 82}, {"time": 4464, "pitch": 61, "duration": 8, "velocity": 72}, {"time": 4464, "pitch": 64, "duration": 12, "velocity": 77}, {"time": 4464, "pitch": 68, "duration": 13, "velocity": 72}, {"time": 4470, "pitch": 56, "duration": 29, "velocity": 60}, {"time": 4476, "pitch": 61, "duration": 16, "velocity": 78}, {"time": 4482, "pitch": 63, "duration": 9, "velocity": 68}, {"time": 4488, "pitch": 64, "duration": 8, "velocity": 72}, {"time": 4494, "pitch": 66, "duration": 10, "velocity": 94}, {"time": 4500, "pitch": 68, "duration": 7, "velocity": 77}, {"time": 4506, "pitch": 71, "duration": 9, "velocity": 90}, {"time": 4512, "pitch": 42, "duration": 41, "velocity": 85}, {"time": 4512, "pitch": 61, "duration": 14, "velocity": 68}, {"time": 4512, "pitch": 66, "duration": 14, "velocity": 76}, {"time": 4512, "pitch": 70, "duration": 14, "velocity": 85}, {"time": 4524, "pitch": 54, "duration": 14, "velocity": 47}, {"time": 4536, "pitch": 61, "duration": 15, "velocity": 76}, {"time": 4536, "pitch": 66, "duration": 15, "velocity": 88}, {"time": 4536, "pitch": 70, "duration": 15, "velocity": 94}, {"time": 4548, "pitch": 54, "duration": 5, "velocity": 68}, {"time": 4560, "pitch": 35, "duration": 35, "velocity": 81}, {"time": 4560, "pitch": 47, "duration": 27, "velocity": 53}, {"time": 4560, "pitch": 54, "duration": 16, "velocity": 69}, {"time": 4560, "pitch": 59, "duration": 16, "velocity": 68}, {"time": 4560, "pitch": 63, "duration": 16, "velocity": 84}, {"time": 4584, "pitch": 54, "duration": 11, "velocity": 74}, {"time": 4584, "pitch": 59, "duration": 11, "velocity": 72}, {"time": 4584, "pitch": 63, "duration": 12, "velocity": 88}, {"time": 4590, "pitch": 47, "duration": 4, "velocity": 65}, {"time": 4608, "pitch": 40, "duration": 13, "velocity": 82}, {"time": 4608, "pitch": 52, "duration": 12, "velocity": 69}, {"time": 4608, "pitch": 56, "duration": 12, "velocity": 72}, {"time": 4608, "pitch": 59, "duration": 12, "velocity": 88}, {"time": 4608, "pitch": 64, "duration": 11, "velocity": 90}, {"time": 4632, "pitch": 39, "duration": 29, "velocity": 77}, {"time": 4632, "pitch": 51, "duration": 22, "velocity": 57}, {"time": 4632, "pitch": 54, "duration": 29, "velocity": 77}, {"time": 4632, "pitch": 57, "duration": 29, "velocity": 54}, {"time": 4632, "pitch": 61, "duration": 28, "velocity": 81}, {"time": 4668, "pitch": 39, "duration": 3, "velocity": 81}, {"time": 4668, "pitch": 51, "duration": 3, "velocity": 77}, {"time": 4668, "pitch": 54, "duration": 3, "velocity": 77}, {"time": 4668, "pitch": 57, "duration": 3, "velocity": 54}, {"time": 4668, "pitch": 63, "duration": 3, "velocity": 84}, {"time": 4674, "pitch": 39, "duration": 3, "velocity": 82}, {"time": 4674, "pitch": 51, "duration": 3, "velocity": 65}, {"time": 4674, "pitch": 54, "duration": 3, "velocity": 65}, {"time": 4674, "pitch": 57, "duration": 3, "velocity": 48}, {"time": 4674, "pitch": 63, "duration": 3, "velocity": 76}, {"time": 4680, "pitch": 39, "duration": 3, "velocity": 81}, {"time": 4680, "pitch": 51, "duration": 3, "velocity": 76}, {"time": 4680, "pitch": 54, "duration": 3, "velocity": 68}, {"time": 4680, "pitch": 57, "duration": 3, "velocity": 53}, {"time": 4680, "pitch": 63, "duration": 3, "velocity": 72}, {"time": 4686, "pitch": 39, "duration": 3, "velocity": 72}, {"time": 4686, "pitch": 51, "duration": 3, "velocity": 70}, {"time": 4686, "pitch": 54, "duration": 3, "velocity": 78}, {"time": 4686, "pitch": 57, "duration": 3, "velocity": 48}, {"time": 4686, "pitch": 63, "duration": 2, "velocity": 65}, {"time": 4692, "pitch": 39, "duration": 3, "velocity": 78}, {"time": 4692, "pitch": 51, "duration": 3, "velocity": 72}, {"time": 4692, "pitch": 54, "duration": 3, "velocity": 69}, {"time": 4692, "pitch": 57, "duration": 3, "velocity": 45}, {"time": 4692, "pitch": 63, "duration": 2, "velocity": 60}, {"time": 4698, "pitch": 39, "duration": 3, "velocity": 85}, {"time": 4698, "pitch": 51, "duration": 3, "velocity": 84}, {"time": 4698, "pitch": 54, "duration": 3, "velocity": 81}, {"time": 4698, "pitch": 57, "duration": 3, "velocity": 68}, {"time": 4698, "pitch": 63, "duration": 3, "velocity": 97}, {"time": 4704, "pitch": 44, "duration": 36, "velocity": 79}, {"time": 4704, "pitch": 56, "duration": 33, "velocity": 54}, {"time": 4704, "pitch": 59, "duration": 18, "velocity": 79}, {"time": 4704, "pitch": 63, "duration": 16, "velocity": 92}, {"time": 4704, "pitch": 68, "duration": 17, "velocity": 86}, {"time": 4752, "pitch": 44, "duration": 30, "velocity": 70}, {"time": 4752, "pitch": 56, "duration": 26, "velocity": 56}, {"time": 4752, "pitch": 59, "duration": 28, "velocity": 65}, {"time": 4752, "pitch": 63, "duration": 27, "velocity": 84}, {"time": 4752, "pitch": 68, "duration": 28, "velocity": 84}, {"time": 4800, "pitch": 37, "duration": 48, "velocity": 69}, {"time": 4800, "pitch": 49, "duration": 48, "velocity": 50}, {"time": 4800, "pitch": 61, "duration": 51, "velocity": 72}, {"time": 4800, "pitch": 64, "duration": 50, "velocity": 74}, {"time": 4800, "pitch": 68, "duration": 51, "velocity": 74}, {"time": 4872, "pitch": 76, "duration": 4, "velocity": 18}], "annotations": [{"time": 48, "annotation": {"number": 64, "value": 127}, "group": "control_change"}, {"time": 192, "annotation": {"number": 64, "value": 127}, "group": "control_change"}, {"time": 197, "annotation": {"number": 64, "value": 0}, "group": "control_change"}, {"time": 203, "annotation": {"number": 64, "value": 127}, "group": "control_change"}, {"time": 290, "annotation": {"number": 64, "value": 0}, "group": "control_change"}, {"time": 292, "annotation": {"number": 64, "value": 127}, "group": "control_change"}, {"time": 380, "annotation": {"number": 64, "value": 0}, "group": "control_change"}, {"time": 384, "annotation": {"number": 64, "value": 127}, "group": "control_change"}, {"time": 434, "annotation": {"number": 64, "value": 0}, "group": "control_change"}, {"time": 482, "annotation": {"number": 64, "value": 127}, "group": "control_change"}, {"time": 485, "annotation": {"number": 64, "value": 127}, "group": "control_change"}, {"time": 500, "annotation": {"number": 64, "value": 0}, "group": "control_change"}, {"time": 573, "annotation": {"number": 64, "value": 0}, "group": "control_change"}, {"time": 578, "annotation": {"number": 64, "value": 127}, "group": "control_change"}, {"time": 666, "annotation": {"number": 64, "value": 0}, "group": "control_change"}, {"time": 723, "annotation": {"number": 64, "value": 127}, "group": "control_change"}, {"time": 812, "annotation": {"number": 64, "value": 0}, "group": "control_change"}, {"time": 819, "annotation": {"number": 64, "value": 127}, "group": "control_change"}, {"time": 865, "annotation": {"number": 64, "value": 0}, "group": "control_change"}, {"time": 871, "annotation": {"number": 64, "value": 127}, "group": "control_change"}, {"time": 911, "annotation": {"number": 64, "value": 0}, "group": "control_change"}, {"time": 917, "annotation": {"number": 64, "value": 127}, "group": "control_change"}, {"time": 960, "annotation": {"number": 64, "value": 0}, "group": "control_change"}, {"time": 966, "annotation": {"number": 64, "value": 127}, "group": "control_change"}, {"time": 1001, "annotation": {"number": 64, "value": 0}, "group": "control_change"}, {"time": 1018, "annotation": {"number": 64, "value": 127}, "group": "control_change"}, {"time": 1056, "annotation": {"number": 64, "value": 0}, "group": "control_change"}, {"time": 1058, "annotation": {"number": 64, "value": 127}, "group": "control_change"}, {"time": 1103, "annotation": {"number": 64, "value": 127}, "group": "control_change"}, {"time": 1105, "annotation": {"number": 64, "value": 0}, "group": "control_change"}, {"time": 1150, "annotation": {"number": 64, "value": 0}, "group": "control_change"}, {"time": 1157, "annotation": {"number": 64, "value": 127}, "group": "control_change"}, {"time": 1200, "annotation": {"number": 64, "value": 0}, "group": "control_change"}, {"time": 1203, "annotation": {"number": 64, "value": 127}, "group": "control_change"}, {"time": 1247, "annotation": {"number": 64, "value": 0}, "group": "control_change"}, {"time": 1252, "annotation": {"number": 64, "value": 127}, "group": "control_change"}, {"time": 1296, "annotation": {"number": 64, "value": 0}, "group": "control_change"}, {"time": 1297, "annotation": {"number": 64, "value": 127}, "group": "control_change"}, {"time": 1345, "annotation": {"number": 64, "value": 0}, "group": "control_change"}, {"time": 1352, "annotation": {"number": 64, "value": 127}, "group": "control_change"}, {"time": 1392, "annotation": {"number": 64, "value": 0}, "group": "control_change"}, {"time": 1393, "annotation": {"number": 64, "value": 127}, "group": "control_change"}, {"time": 1394, "annotation": {"number": 64, "value": 0}, "group": "control_change"}, {"time": 1416, "annotation": {"number": 64, "value": 127}, "group": "control_change"}, {"time": 1440, "annotation": {"number": 64, "value": 0}, "group": "control_change"}, {"time": 1443, "annotation": {"number": 64, "value": 127}, "group": "control_change"}, {"time": 1490, "annotation": {"number": 64, "value": 0}, "group": "control_change"}, {"time": 1494, "annotation": {"number": 64, "value": 127}, "group": "control_change"}, {"time": 1540, "annotation": {"number": 64, "value": 127}, "group": "control_change"}, {"time": 1541, "annotation": {"number": 64, "value": 0}, "group": "control_change"}, {"time": 1629, "annotation": {"number": 64, "value": 0}, "group": "control_change"}, {"time": 1642, "annotation": {"number": 64, "value": 127}, "group": "control_change"}, {"time": 1728, "annotation": {"number": 64, "value": 0}, "group": "control_change"}, {"time": 1732, "annotation": {"number": 64, "value": 127}, "group": "control_change"}, {"time": 1776, "annotation": {"number": 64, "value": 0}, "group": "control_change"}, {"time": 1783, "annotation": {"number": 64, "value": 127}, "group": "control_change"}, {"time": 1824, "annotation": {"number": 64, "value": 0}, "group": "control_change"}, {"time": 1831, "annotation": {"number": 64, "value": 127}, "group": "control_change"}, {"time": 1874, "annotation": {"number": 64, "value": 0}, "group": "control_change"}, {"time": 1883, "annotation": {"number": 64, "value": 127}, "group": "control_change"}, {"time": 1917, "annotation": {"number": 64, "value": 0}, "group": "control_change"}, {"time": 1922, "annotation": {"number": 64, "value": 127}, "group": "control_change"}, {"time": 1968, "annotation": {"number": 64, "value": 0}, "group": "control_change"}, {"time": 1977, "annotation": {"number": 64, "value": 127}, "group": "control_change"}, {"time": 2015, "annotation": {"number": 64, "value": 0}, "group": "control_change"}, {"time": 2018, "annotation": {"number": 64, "value": 127}, "group": "control_change"}, {"time": 2061, "annotation": {"number": 64, "value": 0}, "group": "control_change"}, {"time": 2068, "annotation": {"number": 64, "value": 127}, "group": "control_change"}, {"time": 2086, "annotation": {"number": 64, "value": 0}, "group": "control_change"}, {"time": 2097, "annotation": {"number": 64, "value": 127}, "group": "control_change"}, {"time": 2120, "annotation": {"number": 64, "value": 0}, "group": "control_change"}, {"time": 2124, "annotation": {"number": 64, "value": 127}, "group": "control_change"}, {"time": 2155, "annotation": {"number": 64, "value": 0}, "group": "control_change"}, {"time": 2175, "annotation": {"number": 64, "value": 127}, "group": "control_change"}, {"time": 2205, "annotation": {"number": 64, "value": 0}, "group": "control_change"}, {"time": 2266, "annotation": {"number": 64, "value": 127}, "group": "control_change"}, {"time": 2307, "annotation": {"number": 64, "value": 0}, "group": "control_change"}, {"time": 2376, "annotation": {"number": 64, "value": 127}, "group": "control_change"}, {"time": 2402, "annotation": {"number": 64, "value": 0}, "group": "control_change"}, {"time": 2643, "annotation": {"number": 64, "value": 127}, "group": "control_change"}, {"time": 2732, "annotation": {"number": 64, "value": 0}, "group": "control_change"}, {"time": 2739, "annotation": {"number": 64, "value": 127}, "group": "control_change"}, {"time": 2785, "annotation": {"number": 64, "value": 0}, "group": "control_change"}, {"time": 2791, "annotation": {"number": 64, "value": 127}, "group": "control_change"}, {"time": 2831, "annotation": {"number": 64, "value": 0}, "group": "control_change"}, {"time": 2837, "annotation": {"number": 64, "value": 127}, "group": "control_change"}, {"time": 2880, "annotation": {"number": 64, "value": 0}, "group": "control_change"}, {"time": 2886, "annotation": {"number": 64, "value": 127}, "group": "control_change"}, {"time": 2921, "annotation": {"number": 64, "value": 0}, "group": "control_change"}, {"time": 2938, "annotation": {"number": 64, "value": 127}, "group": "control_change"}, {"time": 2976, "annotation": {"number": 64, "value": 0}, "group": "control_change"}, {"time": 2978, "annotation": {"number": 64, "value": 127}, "group": "control_change"}, {"time": 3023, "annotation": {"number": 64, "value": 127}, "group": "control_change"}, {"time": 3025, "annotation": {"number": 64, "value": 0}, "group": "control_change"}, {"time": 3070, "annotation": {"number": 64, "value": 0}, "group": "control_change"}, {"time": 3077, "annotation": {"number": 64, "value": 127}, "group": "control_change"}, {"time": 3120, "annotation": {"number": 64, "value": 0}, "group": "control_change"}, {"time": 3123, "annotation": {"number": 64, "value": 127}, "group": "control_change"}, {"time": 3167, "annotation": {"number": 64, "value": 0}, "group": "control_change"}, {"time": 3172, "annotation": {"number": 64, "value": 127}, "group": "control_change"}, {"time": 3216, "annotation": {"number": 64, "value": 0}, "group": "control_change"}, {"time": 3217, "annotation": {"number": 64, "value": 127}, "group": "control_change"}, {"time": 3265, "annotation": {"number": 64, "value": 0}, "group": "control_change"}, {"time": 3272, "annotation": {"number": 64, "value": 127}, "group": "control_change"}, {"time": 3312, "annotation": {"number": 64, "value": 0}, "group": "control_change"}, {"time": 3313, "annotation": {"number": 64, "value": 127}, "group": "control_change"}, {"time": 3314, "annotation": {"number": 64, "value": 0}, "group": "control_change"}, {"time": 3336, "annotation": {"number": 64, "value": 127}, "group": "control_change"}, {"time": 3360, "annotation": {"number": 64, "value": 0}, "group": "control_change"}, {"time": 3363, "annotation": {"number": 64, "value": 127}, "group": "control_change"}, {"time": 3410, "annotation": {"number": 64, "value": 0}, "group": "control_change"}, {"time": 3414, "annotation": {"number": 64, "value": 127}, "group": "control_change"}, {"time": 3460, "annotation": {"number": 64, "value": 127}, "group": "control_change"}, {"time": 3461, "annotation": {"number": 64, "value": 0}, "group": "control_change"}, {"time": 3549, "annotation": {"number": 64, "value": 0}, "group": "control_change"}, {"time": 3562, "annotation": {"number": 64, "value": 127}, "group": "control_change"}, {"time": 3648, "annotation": {"number": 64, "value": 0}, "group": "control_change"}, {"time": 3652, "annotation": {"number": 64, "value": 127}, "group": "control_change"}, {"time": 3696, "annotation": {"number": 64, "value": 0}, "group": "control_change"}, {"time": 3703, "annotation": {"number": 64, "value": 127}, "group": "control_change"}, {"time": 3744, "annotation": {"number": 64, "value": 0}, "group": "control_change"}, {"time": 3751, "annotation": {"number": 64, "value": 127}, "group": "control_change"}, {"time": 3753, "annotation": {"number": 64, "value": 127}, "group": "control_change"}, {"time": 3766, "annotation": {"number": 64, "value": 0}, "group": "control_change"}, {"time": 3794, "annotation": {"number": 64, "value": 0}, "group": "control_change"}, {"time": 3803, "annotation": {"number": 64, "value": 127}, "group": "control_change"}, {"time": 3837, "annotation": {"number": 64, "value": 0}, "group": "control_change"}, {"time": 3842, "annotation": {"number": 64, "value": 127}, "group": "control_change"}, {"time": 3888, "annotation": {"number": 64, "value": 0}, "group": "control_change"}, {"time": 3897, "annotation": {"number": 64, "value": 127}, "group": "control_change"}, {"time": 3935, "annotation": {"number": 64, "value": 0}, "group": "control_change"}, {"time": 3938, "annotation": {"number": 64, "value": 127}, "group": "control_change"}, {"time": 3981, "annotation": {"number": 64, "value": 0}, "group": "control_change"}, {"time": 3988, "annotation": {"number": 64, "value": 127}, "group": "control_change"}, {"time": 4006, "annotation": {"number": 64, "value": 0}, "group": "control_change"}, {"time": 4017, "annotation": {"number": 64, "value": 127}, "group": "control_change"}, {"time": 4040, "annotation": {"number": 64, "value": 0}, "group": "control_change"}, {"time": 4044, "annotation": {"number": 64, "value": 127}, "group": "control_change"}, {"time": 4075, "annotation": {"number": 64, "value": 0}, "group": "control_change"}, {"time": 4087, "annotation": {"number": 64, "value": 127}, "group": "control_change"}, {"time": 4128, "annotation": {"number": 64, "value": 0}, "group": "control_change"}, {"time": 4145, "annotation": {"number": 64, "value": 127}, "group": "control_change"}, {"time": 4177, "annotation": {"number": 64, "value": 0}, "group": "control_change"}, {"time": 4187, "annotation": {"number": 64, "value": 127}, "group": "control_change"}, {"time": 4221, "annotation": {"number": 64, "value": 0}, "group": "control_change"}, {"time": 4272, "annotation": {"number": 64, "value": 0}, "group": "control_change"}, {"time": 4276, "annotation": {"number": 64, "value": 127}, "group": "control_change"}, {"time": 4320, "annotation": {"number": 64, "value": 0}, "group": "control_change"}, {"time": 4327, "annotation": {"number": 64, "value": 127}, "group": "control_change"}, {"time": 4368, "annotation": {"number": 64, "value": 0}, "group": "control_change"}, {"time": 4375, "annotation": {"number": 64, "value": 127}, "group": "control_change"}, {"time": 4377, "annotation": {"number": 64, "value": 127}, "group": "control_change"}, {"time": 4390, "annotation": {"number": 64, "value": 0}, "group": "control_change"}, {"time": 4418, "annotation": {"number": 64, "value": 0}, "group": "control_change"}, {"time": 4427, "annotation": {"number": 64, "value": 127}, "group": "control_change"}, {"time": 4461, "annotation": {"number": 64, "value": 0}, "group": "control_change"}, {"time": 4466, "annotation": {"number": 64, "value": 127}, "group": "control_change"}, {"time": 4512, "annotation": {"number": 64, "value": 0}, "group": "control_change"}, {"time": 4521, "annotation": {"number": 64, "value": 127}, "group": "control_change"}, {"time": 4559, "annotation": {"number": 64, "value": 0}, "group": "control_change"}, {"time": 4562, "annotation": {"number": 64, "value": 127}, "group": "control_change"}, {"time": 4605, "annotation": {"number": 64, "value": 0}, "group": "control_change"}, {"time": 4612, "annotation": {"number": 64, "value": 127}, "group": "control_change"}, {"time": 4630, "annotation": {"number": 64, "value": 0}, "group": "control_change"}, {"time": 4641, "annotation": {"number": 64, "value": 127}, "group": "control_change"}, {"time": 4664, "annotation": {"number": 64, "value": 0}, "group": "control_change"}, {"time": 4668, "annotation": {"number": 64, "value": 127}, "group": "control_change"}, {"time": 4699, "annotation": {"number": 64, "value": 0}, "group": "control_change"}, {"time": 4711, "annotation": {"number": 64, "value": 127}, "group": "control_change"}, {"time": 4752, "annotation": {"number": 64, "value": 0}, "group": "control_change"}, {"time": 4769, "annotation": {"number": 64, "value": 127}, "group": "control_change"}, {"time": 4801, "annotation": {"number": 64, "value": 0}, "group": "control_change"}, {"time": 4811, "annotation": {"number": 64, "value": 127}, "group": "control_change"}, {"time": 4845, "annotation": {"number": 64, "value": 0}, "group": "control_change"}]}]}