{"metadata": {"schema_version": "0.2", "title": "None", "source_filename": "247.mid", "source_format": "midi"}, "resolution": 12, "tempos": [{"time": 0, "qpm": 82.00014760026568}, {"time": 854, "qpm": 86.00005160003096}, {"time": 902, "qpm": 83.0000650167176}, {"time": 950, "qpm": 85.00004250002125}, {"time": 998, "qpm": 84.000084000084}, {"time": 1046, "qpm": 89.00004005001803}, {"time": 1094, "qpm": 71.00011951686785}, {"time": 1106, "qpm": 82.00014760026568}, {"time": 1130, "qpm": 78.9999657666815}, {"time": 1142, "qpm": 83.0000650167176}, {"time": 1190, "qpm": 80.0}, {"time": 1202, "qpm": 83.0000650167176}, {"time": 1214, "qpm": 90.99995298335763}, {"time": 1238, "qpm": 78.9999657666815}, {"time": 1286, "qpm": 83.0000650167176}, {"time": 1298, "qpm": 89.9999550000225}, {"time": 1322, "qpm": 75.99996960001216}, {"time": 1358, "qpm": 84.000084000084}, {"time": 1382, "qpm": 78.000078000078}, {"time": 1406, "qpm": 78.9999657666815}, {"time": 1430, "qpm": 80.99997165000993}, {"time": 1454, "qpm": 78.000078000078}, {"time": 1478, "qpm": 80.99997165000993}, {"time": 1502, "qpm": 78.000078000078}, {"time": 1526, "qpm": 80.99997165000993}, {"time": 1550, "qpm": 75.0}, {"time": 1562, "qpm": 80.99997165000993}, {"time": 1574, "qpm": 77.000077000077}, {"time": 1598, "qpm": 86.00005160003096}, {"time": 1610, "qpm": 80.99997165000993}, {"time": 1646, "qpm": 75.0}, {"time": 1670, "qpm": 85.00004250002125}, {"time": 1694, "qpm": 77.000077000077}, {"time": 1718, "qpm": 82.00014760026568}, {"time": 1766, "qpm": 78.9999657666815}, {"time": 1814, "qpm": 82.00014760026568}, {"time": 1850, "qpm": 73.99998273333736}, {"time": 1862, "qpm": 77.000077000077}, {"time": 1874, "qpm": 78.9999657666815}, {"time": 1886, "qpm": 80.99997165000993}, {"time": 1898, "qpm": 73.99998273333736}, {"time": 1910, "qpm": 80.99997165000993}, {"time": 1922, "qpm": 77.000077000077}, {"time": 1946, "qpm": 75.0}, {"time": 1958, "qpm": 78.000078000078}, {"time": 2006, "qpm": 72.00011520018433}, {"time": 2018, "qpm": 78.9999657666815}, {"time": 2042, "qpm": 72.00011520018433}, {"time": 2054, "qpm": 77.000077000077}, {"time": 2066, "qpm": 80.0}, {"time": 2102, "qpm": 73.99998273333736}, {"time": 2114, "qpm": 78.9999657666815}, {"time": 2414, "qpm": 75.0}, {"time": 2438, "qpm": 78.9999657666815}, {"time": 2462, "qpm": 73.99998273333736}, {"time": 2474, "qpm": 78.000078000078}, {"time": 2546, "qpm": 80.99997165000993}, {"time": 2570, "qpm": 78.000078000078}, {"time": 2594, "qpm": 85.00004250002125}, {"time": 2606, "qpm": 77.000077000077}, {"time": 2618, "qpm": 78.000078000078}, {"time": 2666, "qpm": 84.000084000084}, {"time": 2690, "qpm": 73.99998273333736}, {"time": 2702, "qpm": 77.000077000077}, {"time": 2726, "qpm": 83.0000650167176}, {"time": 2750, "qpm": 78.000078000078}, {"time": 2786, "qpm": 73.99998273333736}, {"time": 2798, "qpm": 71.00011951686785}, {"time": 2822, "qpm": 77.000077000077}, {"time": 2882, "qpm": 78.9999657666815}, {"time": 2918, "qpm": 75.99996960001216}, {"time": 2954, "qpm": 73.00007178340392}, {"time": 2966, "qpm": 78.000078000078}, {"time": 2978, "qpm": 80.99997165000993}, {"time": 3026, "qpm": 78.000078000078}, {"time": 3038, "qpm": 78.9999657666815}, {"time": 3050, "qpm": 73.99998273333736}, {"time": 3062, "qpm": 78.000078000078}, {"time": 3134, "qpm": 75.99996960001216}, {"time": 3158, "qpm": 77.000077000077}, {"time": 3278, "qpm": 70.00007000007}, {"time": 3302, "qpm": 82.00014760026568}, {"time": 3386, "qpm": 80.0}, {"time": 3398, "qpm": 82.00014760026568}, {"time": 3446, "qpm": 80.99997165000993}, {"time": 3470, "qpm": 82.00014760026568}, {"time": 3614, "qpm": 80.0}, {"time": 3662, "qpm": 82.00014760026568}, {"time": 3710, "qpm": 80.0}, {"time": 3734, "qpm": 82.00014760026568}, {"time": 3794, "qpm": 83.0000650167176}, {"time": 3806, "qpm": 86.00005160003096}, {"time": 3830, "qpm": 82.00014760026568}, {"time": 3878, "qpm": 78.9999657666815}, {"time": 3902, "qpm": 85.00004250002125}, {"time": 3926, "qpm": 82.00014760026568}, {"time": 3974, "qpm": 84.000084000084}, {"time": 4022, "qpm": 80.99997165000993}, {"time": 4034, "qpm": 80.0}, {"time": 4046, "qpm": 82.00014760026568}, {"time": 4070, "qpm": 80.99997165000993}, {"time": 4118, "qpm": 82.00014760026568}, {"time": 4166, "qpm": 83.0000650167176}, {"time": 4274, "qpm": 80.99997165000993}, {"time": 4310, "qpm": 83.0000650167176}, {"time": 4334, "qpm": 82.00014760026568}, {"time": 4358, "qpm": 85.00004250002125}, {"time": 4406, "qpm": 82.00014760026568}, {"time": 4478, "qpm": 86.00005160003096}, {"time": 4502, "qpm": 83.0000650167176}, {"time": 4550, "qpm": 85.00004250002125}, {"time": 4610, "qpm": 80.0}, {"time": 4646, "qpm": 85.00004250002125}, {"time": 4670, "qpm": 83.0000650167176}, {"time": 4718, "qpm": 80.0}, {"time": 4742, "qpm": 83.0000650167176}, {"time": 4766, "qpm": 86.00005160003096}, {"time": 4790, "qpm": 83.0000650167176}, {"time": 4814, "qpm": 85.00004250002125}, {"time": 4838, "qpm": 83.0000650167176}, {"time": 4862, "qpm": 80.0}, {"time": 4886, "qpm": 82.00014760026568}, {"time": 4958, "qpm": 85.00004250002125}, {"time": 4982, "qpm": 80.99997165000993}, {"time": 5018, "qpm": 83.0000650167176}, {"time": 5078, "qpm": 82.00014760026568}, {"time": 5186, "qpm": 75.99996960001216}, {"time": 5198, "qpm": 78.000078000078}, {"time": 5246, "qpm": 80.99997165000993}, {"time": 5270, "qpm": 78.000078000078}, {"time": 5294, "qpm": 82.00014760026568}, {"time": 5366, "qpm": 69.00009660013524}, {"time": 5378, "qpm": 73.00007178340392}, {"time": 5402, "qpm": 80.99997165000993}, {"time": 5450, "qpm": 77.000077000077}, {"time": 5462, "qpm": 86.00005160003096}, {"time": 5474, "qpm": 78.000078000078}, {"time": 5510, "qpm": 82.00014760026568}, {"time": 5534, "qpm": 78.000078000078}, {"time": 5546, "qpm": 80.99997165000993}, {"time": 5558, "qpm": 80.0}, {"time": 5582, "qpm": 80.99997165000993}, {"time": 5594, "qpm": 75.0}, {"time": 5606, "qpm": 83.0000650167176}, {"time": 5618, "qpm": 84.000084000084}, {"time": 5642, "qpm": 78.9999657666815}, {"time": 5654, "qpm": 84.000084000084}, {"time": 5690, "qpm": 78.000078000078}, {"time": 5702, "qpm": 84.000084000084}, {"time": 5726, "qpm": 64.99999458333379}, {"time": 5750, "qpm": 72.00011520018433}, {"time": 5774, "qpm": 59.00006686674245}, {"time": 5786, "qpm": 45.99999386666749}], "time_signatures": [{"time": 0, "numerator": 4, "denominator": 4}], "tracks": [{"program": 4, "is_drum": false, "name": "MELODY", "notes": [{"time": 1280, "pitch": 73, "duration": 3, "velocity": 78}, {"time": 1283, "pitch": 75, "duration": 3, "velocity": 82}, {"time": 1286, "pitch": 77, "duration": 6, "velocity": 81}, {"time": 1292, "pitch": 77, "duration": 6, "velocity": 83}, {"time": 1298, "pitch": 77, "duration": 6, "velocity": 83}, {"time": 1304, "pitch": 77, "duration": 6, "velocity": 77}, {"time": 1310, "pitch": 77, "duration": 6, "velocity": 79}, {"time": 1316, "pitch": 75, "duration": 6, "velocity": 82}, {"time": 1322, "pitch": 73, "duration": 6, "velocity": 73}, {"time": 1328, "pitch": 77, "duration": 6, "velocity": 71}, {"time": 1334, "pitch": 75, "duration": 6, "velocity": 79}, {"time": 1340, "pitch": 75, "duration": 6, "velocity": 77}, {"time": 1346, "pitch": 72, "duration": 6, "velocity": 80}, {"time": 1352, "pitch": 70, "duration": 3, "velocity": 68}, {"time": 1355, "pitch": 68, "duration": 21, "velocity": 79}, {"time": 1376, "pitch": 70, "duration": 3, "velocity": 79}, {"time": 1379, "pitch": 72, "duration": 3, "velocity": 84}, {"time": 1382, "pitch": 73, "duration": 6, "velocity": 78}, {"time": 1388, "pitch": 73, "duration": 6, "velocity": 82}, {"time": 1394, "pitch": 73, "duration": 6, "velocity": 84}, {"time": 1400, "pitch": 73, "duration": 6, "velocity": 69}, {"time": 1406, "pitch": 73, "duration": 6, "velocity": 80}, {"time": 1412, "pitch": 72, "duration": 6, "velocity": 77}, {"time": 1418, "pitch": 70, "duration": 6, "velocity": 72}, {"time": 1424, "pitch": 73, "duration": 6, "velocity": 79}, {"time": 1430, "pitch": 72, "duration": 12, "velocity": 82}, {"time": 1442, "pitch": 72, "duration": 6, "velocity": 79}, {"time": 1448, "pitch": 65, "duration": 6, "velocity": 74}, {"time": 1454, "pitch": 68, "duration": 18, "velocity": 77}, {"time": 1472, "pitch": 68, "duration": 6, "velocity": 83}, {"time": 1478, "pitch": 70, "duration": 12, "velocity": 82}, {"time": 1490, "pitch": 66, "duration": 6, "velocity": 80}, {"time": 1496, "pitch": 65, "duration": 6, "velocity": 80}, {"time": 1502, "pitch": 63, "duration": 18, "velocity": 78}, {"time": 1520, "pitch": 70, "duration": 6, "velocity": 61}, {"time": 1526, "pitch": 68, "duration": 12, "velocity": 79}, {"time": 1538, "pitch": 65, "duration": 6, "velocity": 78}, {"time": 1544, "pitch": 63, "duration": 6, "velocity": 82}, {"time": 1550, "pitch": 61, "duration": 18, "velocity": 84}, {"time": 1568, "pitch": 63, "duration": 3, "velocity": 84}, {"time": 1571, "pitch": 65, "duration": 3, "velocity": 79}, {"time": 1574, "pitch": 66, "duration": 6, "velocity": 80}, {"time": 1580, "pitch": 66, "duration": 6, "velocity": 83}, {"time": 1586, "pitch": 66, "duration": 6, "velocity": 84}, {"time": 1592, "pitch": 65, "duration": 6, "velocity": 79}, {"time": 1598, "pitch": 66, "duration": 6, "velocity": 82}, {"time": 1604, "pitch": 68, "duration": 6, "velocity": 79}, {"time": 1610, "pitch": 70, "duration": 6, "velocity": 75}, {"time": 1616, "pitch": 73, "duration": 6, "velocity": 93}, {"time": 1622, "pitch": 72, "duration": 18, "velocity": 83}, {"time": 1640, "pitch": 70, "duration": 6, "velocity": 78}, {"time": 1646, "pitch": 68, "duration": 18, "velocity": 79}, {"time": 1664, "pitch": 73, "duration": 3, "velocity": 78}, {"time": 1667, "pitch": 75, "duration": 3, "velocity": 82}, {"time": 1670, "pitch": 77, "duration": 6, "velocity": 81}, {"time": 1676, "pitch": 77, "duration": 6, "velocity": 83}, {"time": 1682, "pitch": 77, "duration": 6, "velocity": 83}, {"time": 1688, "pitch": 77, "duration": 6, "velocity": 77}, {"time": 1694, "pitch": 77, "duration": 6, "velocity": 79}, {"time": 1700, "pitch": 75, "duration": 6, "velocity": 82}, {"time": 1706, "pitch": 73, "duration": 6, "velocity": 73}, {"time": 1712, "pitch": 77, "duration": 6, "velocity": 71}, {"time": 1718, "pitch": 75, "duration": 6, "velocity": 79}, {"time": 1724, "pitch": 75, "duration": 6, "velocity": 77}, {"time": 1730, "pitch": 72, "duration": 6, "velocity": 80}, {"time": 1736, "pitch": 70, "duration": 3, "velocity": 68}, {"time": 1739, "pitch": 68, "duration": 21, "velocity": 79}, {"time": 1760, "pitch": 70, "duration": 3, "velocity": 79}, {"time": 1763, "pitch": 72, "duration": 3, "velocity": 84}, {"time": 1766, "pitch": 73, "duration": 6, "velocity": 78}, {"time": 1772, "pitch": 73, "duration": 6, "velocity": 82}, {"time": 1778, "pitch": 73, "duration": 6, "velocity": 84}, {"time": 1784, "pitch": 73, "duration": 6, "velocity": 69}, {"time": 1790, "pitch": 73, "duration": 6, "velocity": 80}, {"time": 1796, "pitch": 72, "duration": 6, "velocity": 77}, {"time": 1802, "pitch": 70, "duration": 6, "velocity": 72}, {"time": 1808, "pitch": 73, "duration": 6, "velocity": 79}, {"time": 1814, "pitch": 72, "duration": 12, "velocity": 82}, {"time": 1826, "pitch": 72, "duration": 6, "velocity": 79}, {"time": 1832, "pitch": 65, "duration": 6, "velocity": 74}, {"time": 1838, "pitch": 68, "duration": 18, "velocity": 77}, {"time": 1856, "pitch": 68, "duration": 6, "velocity": 83}, {"time": 1862, "pitch": 70, "duration": 12, "velocity": 82}, {"time": 1874, "pitch": 66, "duration": 6, "velocity": 80}, {"time": 1880, "pitch": 65, "duration": 6, "velocity": 80}, {"time": 1886, "pitch": 63, "duration": 18, "velocity": 78}, {"time": 1904, "pitch": 70, "duration": 6, "velocity": 61}, {"time": 1910, "pitch": 68, "duration": 12, "velocity": 79}, {"time": 1922, "pitch": 72, "duration": 12, "velocity": 90}, {"time": 1934, "pitch": 73, "duration": 15, "velocity": 90}, {"time": 1949, "pitch": 70, "duration": 6, "velocity": 82}, {"time": 1955, "pitch": 68, "duration": 3, "velocity": 79}, {"time": 1958, "pitch": 70, "duration": 24, "velocity": 79}, {"time": 1982, "pitch": 70, "duration": 6, "velocity": 82}, {"time": 1988, "pitch": 72, "duration": 6, "velocity": 84}, {"time": 1994, "pitch": 73, "duration": 6, "velocity": 84}, {"time": 2000, "pitch": 70, "duration": 6, "velocity": 83}, {"time": 2006, "pitch": 75, "duration": 30, "velocity": 84}, {"time": 2036, "pitch": 68, "duration": 6, "velocity": 86}, {"time": 2042, "pitch": 68, "duration": 6, "velocity": 83}, {"time": 2048, "pitch": 68, "duration": 6, "velocity": 83}, {"time": 2054, "pitch": 77, "duration": 12, "velocity": 80}, {"time": 2066, "pitch": 77, "duration": 18, "velocity": 83}, {"time": 2084, "pitch": 77, "duration": 6, "velocity": 84}, {"time": 2090, "pitch": 75, "duration": 6, "velocity": 82}, {"time": 2096, "pitch": 73, "duration": 6, "velocity": 91}, {"time": 2102, "pitch": 80, "duration": 12, "velocity": 84}, {"time": 2114, "pitch": 75, "duration": 18, "velocity": 86}, {"time": 2132, "pitch": 77, "duration": 6, "velocity": 84}, {"time": 2138, "pitch": 75, "duration": 6, "velocity": 84}, {"time": 2144, "pitch": 73, "duration": 6, "velocity": 90}, {"time": 2150, "pitch": 73, "duration": 6, "velocity": 46}, {"time": 2150, "pitch": 73, "duration": 6, "velocity": 90}, {"time": 2156, "pitch": 73, "duration": 6, "velocity": 93}, {"time": 2162, "pitch": 73, "duration": 6, "velocity": 94}, {"time": 2168, "pitch": 85, "duration": 6, "velocity": 86}, {"time": 2174, "pitch": 85, "duration": 6, "velocity": 90}, {"time": 2180, "pitch": 84, "duration": 6, "velocity": 86}, {"time": 2186, "pitch": 82, "duration": 6, "velocity": 84}, {"time": 2192, "pitch": 80, "duration": 6, "velocity": 50}, {"time": 2198, "pitch": 82, "duration": 6, "velocity": 78}, {"time": 2204, "pitch": 80, "duration": 6, "velocity": 81}, {"time": 2210, "pitch": 80, "duration": 18, "velocity": 81}, {"time": 2228, "pitch": 73, "duration": 6, "velocity": 98}, {"time": 2234, "pitch": 73, "duration": 6, "velocity": 95}, {"time": 2240, "pitch": 73, "duration": 6, "velocity": 86}, {"time": 2246, "pitch": 73, "duration": 12, "velocity": 98}, {"time": 2258, "pitch": 82, "duration": 18, "velocity": 94}, {"time": 2276, "pitch": 73, "duration": 6, "velocity": 91}, {"time": 2282, "pitch": 73, "duration": 6, "velocity": 91}, {"time": 2288, "pitch": 73, "duration": 6, "velocity": 94}, {"time": 2294, "pitch": 73, "duration": 12, "velocity": 98}, {"time": 2306, "pitch": 80, "duration": 18, "velocity": 90}, {"time": 2324, "pitch": 73, "duration": 6, "velocity": 98}, {"time": 2330, "pitch": 73, "duration": 6, "velocity": 90}, {"time": 2336, "pitch": 73, "duration": 6, "velocity": 83}, {"time": 2342, "pitch": 78, "duration": 6, "velocity": 80}, {"time": 2348, "pitch": 78, "duration": 6, "velocity": 90}, {"time": 2354, "pitch": 78, "duration": 6, "velocity": 84}, {"time": 2360, "pitch": 80, "duration": 6, "velocity": 78}, {"time": 2366, "pitch": 82, "duration": 9, "velocity": 84}, {"time": 2375, "pitch": 85, "duration": 9, "velocity": 83}, {"time": 2384, "pitch": 77, "duration": 6, "velocity": 83}, {"time": 2390, "pitch": 75, "duration": 30, "velocity": 83}, {"time": 2420, "pitch": 68, "duration": 6, "velocity": 82}, {"time": 2426, "pitch": 68, "duration": 6, "velocity": 83}, {"time": 2432, "pitch": 68, "duration": 6, "velocity": 83}, {"time": 2438, "pitch": 77, "duration": 12, "velocity": 86}, {"time": 2450, "pitch": 77, "duration": 18, "velocity": 91}, {"time": 2468, "pitch": 77, "duration": 6, "velocity": 56}, {"time": 2474, "pitch": 75, "duration": 6, "velocity": 86}, {"time": 2480, "pitch": 73, "duration": 6, "velocity": 80}, {"time": 2486, "pitch": 80, "duration": 12, "velocity": 86}, {"time": 2498, "pitch": 75, "duration": 18, "velocity": 84}, {"time": 2516, "pitch": 77, "duration": 6, "velocity": 90}, {"time": 2522, "pitch": 75, "duration": 6, "velocity": 84}, {"time": 2528, "pitch": 73, "duration": 6, "velocity": 84}, {"time": 2534, "pitch": 73, "duration": 6, "velocity": 93}, {"time": 2540, "pitch": 73, "duration": 6, "velocity": 90}, {"time": 2546, "pitch": 73, "duration": 6, "velocity": 90}, {"time": 2552, "pitch": 85, "duration": 6, "velocity": 90}, {"time": 2558, "pitch": 85, "duration": 6, "velocity": 91}, {"time": 2564, "pitch": 84, "duration": 6, "velocity": 79}, {"time": 2570, "pitch": 82, "duration": 6, "velocity": 84}, {"time": 2576, "pitch": 80, "duration": 6, "velocity": 84}, {"time": 2582, "pitch": 82, "duration": 6, "velocity": 80}, {"time": 2588, "pitch": 80, "duration": 6, "velocity": 84}, {"time": 2594, "pitch": 80, "duration": 18, "velocity": 91}, {"time": 2612, "pitch": 72, "duration": 6, "velocity": 98}, {"time": 2618, "pitch": 73, "duration": 6, "velocity": 95}, {"time": 2624, "pitch": 72, "duration": 6, "velocity": 90}, {"time": 2630, "pitch": 73, "duration": 12, "velocity": 79}, {"time": 2642, "pitch": 82, "duration": 18, "velocity": 79}, {"time": 2660, "pitch": 82, "duration": 6, "velocity": 90}, {"time": 2666, "pitch": 84, "duration": 6, "velocity": 90}, {"time": 2672, "pitch": 85, "duration": 6, "velocity": 91}, {"time": 2678, "pitch": 85, "duration": 12, "velocity": 98}, {"time": 2690, "pitch": 80, "duration": 18, "velocity": 86}, {"time": 2708, "pitch": 73, "duration": 6, "velocity": 94}, {"time": 2714, "pitch": 73, "duration": 6, "velocity": 95}, {"time": 2720, "pitch": 73, "duration": 6, "velocity": 91}, {"time": 2726, "pitch": 78, "duration": 6, "velocity": 91}, {"time": 2732, "pitch": 78, "duration": 6, "velocity": 91}, {"time": 2738, "pitch": 78, "duration": 6, "velocity": 90}, {"time": 2744, "pitch": 80, "duration": 6, "velocity": 82}, {"time": 2750, "pitch": 82, "duration": 9, "velocity": 90}, {"time": 2759, "pitch": 85, "duration": 9, "velocity": 93}, {"time": 2768, "pitch": 77, "duration": 6, "velocity": 84}, {"time": 2774, "pitch": 75, "duration": 24, "velocity": 98}, {"time": 2798, "pitch": 78, "duration": 6, "velocity": 91}, {"time": 2804, "pitch": 77, "duration": 12, "velocity": 90}, {"time": 2816, "pitch": 75, "duration": 3, "velocity": 90}, {"time": 2819, "pitch": 73, "duration": 3, "velocity": 83}, {"time": 2822, "pitch": 73, "duration": 48, "velocity": 91}, {"time": 3296, "pitch": 73, "duration": 3, "velocity": 78}, {"time": 3299, "pitch": 75, "duration": 3, "velocity": 82}, {"time": 3302, "pitch": 77, "duration": 6, "velocity": 81}, {"time": 3308, "pitch": 77, "duration": 6, "velocity": 83}, {"time": 3314, "pitch": 77, "duration": 6, "velocity": 83}, {"time": 3320, "pitch": 77, "duration": 6, "velocity": 77}, {"time": 3326, "pitch": 77, "duration": 6, "velocity": 79}, {"time": 3332, "pitch": 75, "duration": 6, "velocity": 82}, {"time": 3338, "pitch": 73, "duration": 6, "velocity": 73}, {"time": 3344, "pitch": 77, "duration": 6, "velocity": 71}, {"time": 3350, "pitch": 75, "duration": 6, "velocity": 79}, {"time": 3356, "pitch": 75, "duration": 6, "velocity": 77}, {"time": 3362, "pitch": 72, "duration": 6, "velocity": 80}, {"time": 3368, "pitch": 70, "duration": 3, "velocity": 68}, {"time": 3371, "pitch": 68, "duration": 21, "velocity": 79}, {"time": 3392, "pitch": 70, "duration": 3, "velocity": 79}, {"time": 3395, "pitch": 72, "duration": 3, "velocity": 84}, {"time": 3398, "pitch": 73, "duration": 6, "velocity": 78}, {"time": 3404, "pitch": 73, "duration": 6, "velocity": 82}, {"time": 3410, "pitch": 73, "duration": 6, "velocity": 84}, {"time": 3416, "pitch": 73, "duration": 6, "velocity": 69}, {"time": 3422, "pitch": 73, "duration": 6, "velocity": 80}, {"time": 3428, "pitch": 72, "duration": 6, "velocity": 77}, {"time": 3434, "pitch": 70, "duration": 6, "velocity": 72}, {"time": 3440, "pitch": 73, "duration": 6, "velocity": 79}, {"time": 3446, "pitch": 72, "duration": 12, "velocity": 82}, {"time": 3458, "pitch": 72, "duration": 6, "velocity": 79}, {"time": 3464, "pitch": 65, "duration": 6, "velocity": 74}, {"time": 3470, "pitch": 68, "duration": 18, "velocity": 77}, {"time": 3488, "pitch": 68, "duration": 6, "velocity": 83}, {"time": 3494, "pitch": 70, "duration": 12, "velocity": 82}, {"time": 3506, "pitch": 66, "duration": 6, "velocity": 80}, {"time": 3512, "pitch": 65, "duration": 6, "velocity": 80}, {"time": 3518, "pitch": 63, "duration": 18, "velocity": 78}, {"time": 3536, "pitch": 70, "duration": 6, "velocity": 61}, {"time": 3542, "pitch": 68, "duration": 12, "velocity": 79}, {"time": 3554, "pitch": 72, "duration": 12, "velocity": 90}, {"time": 3566, "pitch": 73, "duration": 15, "velocity": 90}, {"time": 3581, "pitch": 70, "duration": 6, "velocity": 82}, {"time": 3587, "pitch": 68, "duration": 3, "velocity": 79}, {"time": 3590, "pitch": 70, "duration": 24, "velocity": 79}, {"time": 3614, "pitch": 70, "duration": 6, "velocity": 82}, {"time": 3620, "pitch": 72, "duration": 6, "velocity": 84}, {"time": 3626, "pitch": 73, "duration": 6, "velocity": 84}, {"time": 3632, "pitch": 70, "duration": 6, "velocity": 83}, {"time": 3638, "pitch": 75, "duration": 30, "velocity": 84}, {"time": 3668, "pitch": 68, "duration": 6, "velocity": 86}, {"time": 3674, "pitch": 68, "duration": 6, "velocity": 83}, {"time": 3680, "pitch": 68, "duration": 6, "velocity": 83}, {"time": 3686, "pitch": 77, "duration": 12, "velocity": 80}, {"time": 3698, "pitch": 77, "duration": 18, "velocity": 83}, {"time": 3716, "pitch": 77, "duration": 6, "velocity": 84}, {"time": 3722, "pitch": 75, "duration": 6, "velocity": 82}, {"time": 3728, "pitch": 73, "duration": 6, "velocity": 91}, {"time": 3734, "pitch": 80, "duration": 12, "velocity": 84}, {"time": 3746, "pitch": 75, "duration": 18, "velocity": 86}, {"time": 3764, "pitch": 77, "duration": 6, "velocity": 84}, {"time": 3770, "pitch": 75, "duration": 6, "velocity": 84}, {"time": 3776, "pitch": 73, "duration": 6, "velocity": 90}, {"time": 3782, "pitch": 73, "duration": 6, "velocity": 46}, {"time": 3782, "pitch": 73, "duration": 6, "velocity": 90}, {"time": 3788, "pitch": 73, "duration": 6, "velocity": 93}, {"time": 3794, "pitch": 73, "duration": 6, "velocity": 94}, {"time": 3800, "pitch": 85, "duration": 6, "velocity": 86}, {"time": 3806, "pitch": 85, "duration": 6, "velocity": 90}, {"time": 3812, "pitch": 84, "duration": 6, "velocity": 86}, {"time": 3818, "pitch": 82, "duration": 6, "velocity": 84}, {"time": 3824, "pitch": 80, "duration": 6, "velocity": 50}, {"time": 3830, "pitch": 82, "duration": 6, "velocity": 78}, {"time": 3836, "pitch": 80, "duration": 6, "velocity": 81}, {"time": 3842, "pitch": 80, "duration": 18, "velocity": 81}, {"time": 3860, "pitch": 73, "duration": 6, "velocity": 98}, {"time": 3866, "pitch": 73, "duration": 6, "velocity": 95}, {"time": 3872, "pitch": 73, "duration": 6, "velocity": 86}, {"time": 3878, "pitch": 73, "duration": 12, "velocity": 98}, {"time": 3890, "pitch": 82, "duration": 18, "velocity": 94}, {"time": 3908, "pitch": 73, "duration": 6, "velocity": 91}, {"time": 3914, "pitch": 73, "duration": 6, "velocity": 91}, {"time": 3920, "pitch": 73, "duration": 6, "velocity": 94}, {"time": 3926, "pitch": 73, "duration": 12, "velocity": 98}, {"time": 3938, "pitch": 80, "duration": 18, "velocity": 90}, {"time": 3956, "pitch": 73, "duration": 6, "velocity": 98}, {"time": 3962, "pitch": 73, "duration": 6, "velocity": 90}, {"time": 3968, "pitch": 73, "duration": 6, "velocity": 83}, {"time": 3974, "pitch": 78, "duration": 6, "velocity": 80}, {"time": 3980, "pitch": 78, "duration": 6, "velocity": 90}, {"time": 3986, "pitch": 78, "duration": 6, "velocity": 84}, {"time": 3992, "pitch": 80, "duration": 6, "velocity": 78}, {"time": 3998, "pitch": 82, "duration": 9, "velocity": 84}, {"time": 4007, "pitch": 85, "duration": 9, "velocity": 83}, {"time": 4016, "pitch": 77, "duration": 6, "velocity": 83}, {"time": 4022, "pitch": 75, "duration": 30, "velocity": 83}, {"time": 4052, "pitch": 68, "duration": 6, "velocity": 82}, {"time": 4058, "pitch": 68, "duration": 6, "velocity": 83}, {"time": 4064, "pitch": 68, "duration": 6, "velocity": 83}, {"time": 4070, "pitch": 77, "duration": 12, "velocity": 86}, {"time": 4082, "pitch": 77, "duration": 18, "velocity": 91}, {"time": 4100, "pitch": 77, "duration": 6, "velocity": 56}, {"time": 4106, "pitch": 75, "duration": 6, "velocity": 86}, {"time": 4112, "pitch": 73, "duration": 6, "velocity": 80}, {"time": 4118, "pitch": 80, "duration": 12, "velocity": 86}, {"time": 4130, "pitch": 75, "duration": 18, "velocity": 84}, {"time": 4148, "pitch": 77, "duration": 6, "velocity": 90}, {"time": 4154, "pitch": 75, "duration": 6, "velocity": 84}, {"time": 4160, "pitch": 73, "duration": 6, "velocity": 84}, {"time": 4166, "pitch": 73, "duration": 6, "velocity": 93}, {"time": 4172, "pitch": 73, "duration": 6, "velocity": 90}, {"time": 4178, "pitch": 73, "duration": 6, "velocity": 90}, {"time": 4184, "pitch": 85, "duration": 6, "velocity": 90}, {"time": 4190, "pitch": 85, "duration": 6, "velocity": 91}, {"time": 4196, "pitch": 84, "duration": 6, "velocity": 79}, {"time": 4202, "pitch": 82, "duration": 6, "velocity": 84}, {"time": 4208, "pitch": 80, "duration": 6, "velocity": 84}, {"time": 4214, "pitch": 82, "duration": 6, "velocity": 80}, {"time": 4220, "pitch": 80, "duration": 6, "velocity": 84}, {"time": 4226, "pitch": 80, "duration": 18, "velocity": 91}, {"time": 4244, "pitch": 72, "duration": 6, "velocity": 98}, {"time": 4250, "pitch": 73, "duration": 6, "velocity": 95}, {"time": 4256, "pitch": 72, "duration": 6, "velocity": 90}, {"time": 4262, "pitch": 73, "duration": 12, "velocity": 79}, {"time": 4274, "pitch": 82, "duration": 18, "velocity": 79}, {"time": 4292, "pitch": 82, "duration": 6, "velocity": 90}, {"time": 4298, "pitch": 84, "duration": 6, "velocity": 90}, {"time": 4304, "pitch": 85, "duration": 6, "velocity": 91}, {"time": 4310, "pitch": 85, "duration": 12, "velocity": 98}, {"time": 4322, "pitch": 80, "duration": 18, "velocity": 86}, {"time": 4340, "pitch": 73, "duration": 6, "velocity": 94}, {"time": 4346, "pitch": 73, "duration": 6, "velocity": 95}, {"time": 4352, "pitch": 73, "duration": 6, "velocity": 91}, {"time": 4358, "pitch": 78, "duration": 6, "velocity": 91}, {"time": 4364, "pitch": 78, "duration": 6, "velocity": 91}, {"time": 4370, "pitch": 78, "duration": 6, "velocity": 90}, {"time": 4376, "pitch": 80, "duration": 6, "velocity": 82}, {"time": 4382, "pitch": 82, "duration": 9, "velocity": 90}, {"time": 4391, "pitch": 85, "duration": 9, "velocity": 93}, {"time": 4400, "pitch": 77, "duration": 6, "velocity": 84}, {"time": 4406, "pitch": 75, "duration": 24, "velocity": 98}, {"time": 4436, "pitch": 68, "duration": 6, "velocity": 86}, {"time": 4442, "pitch": 68, "duration": 6, "velocity": 83}, {"time": 4448, "pitch": 68, "duration": 6, "velocity": 83}, {"time": 4454, "pitch": 77, "duration": 12, "velocity": 80}, {"time": 4466, "pitch": 77, "duration": 18, "velocity": 83}, {"time": 4484, "pitch": 77, "duration": 6, "velocity": 84}, {"time": 4490, "pitch": 75, "duration": 6, "velocity": 82}, {"time": 4496, "pitch": 73, "duration": 6, "velocity": 91}, {"time": 4502, "pitch": 80, "duration": 12, "velocity": 84}, {"time": 4514, "pitch": 75, "duration": 18, "velocity": 86}, {"time": 4532, "pitch": 77, "duration": 6, "velocity": 84}, {"time": 4538, "pitch": 75, "duration": 6, "velocity": 84}, {"time": 4544, "pitch": 73, "duration": 6, "velocity": 90}, {"time": 4550, "pitch": 73, "duration": 6, "velocity": 46}, {"time": 4550, "pitch": 73, "duration": 6, "velocity": 90}, {"time": 4556, "pitch": 73, "duration": 6, "velocity": 93}, {"time": 4562, "pitch": 73, "duration": 6, "velocity": 94}, {"time": 4568, "pitch": 85, "duration": 6, "velocity": 86}, {"time": 4574, "pitch": 85, "duration": 6, "velocity": 90}, {"time": 4580, "pitch": 84, "duration": 6, "velocity": 86}, {"time": 4586, "pitch": 82, "duration": 6, "velocity": 84}, {"time": 4592, "pitch": 80, "duration": 6, "velocity": 50}, {"time": 4598, "pitch": 82, "duration": 6, "velocity": 78}, {"time": 4604, "pitch": 80, "duration": 6, "velocity": 81}, {"time": 4610, "pitch": 80, "duration": 18, "velocity": 81}, {"time": 4628, "pitch": 73, "duration": 6, "velocity": 98}, {"time": 4634, "pitch": 73, "duration": 6, "velocity": 95}, {"time": 4640, "pitch": 73, "duration": 6, "velocity": 86}, {"time": 4646, "pitch": 73, "duration": 12, "velocity": 98}, {"time": 4658, "pitch": 82, "duration": 18, "velocity": 94}, {"time": 4676, "pitch": 73, "duration": 6, "velocity": 91}, {"time": 4682, "pitch": 73, "duration": 6, "velocity": 91}, {"time": 4688, "pitch": 73, "duration": 6, "velocity": 94}, {"time": 4694, "pitch": 73, "duration": 12, "velocity": 98}, {"time": 4706, "pitch": 80, "duration": 18, "velocity": 90}, {"time": 4724, "pitch": 73, "duration": 6, "velocity": 98}, {"time": 4730, "pitch": 73, "duration": 6, "velocity": 90}, {"time": 4736, "pitch": 73, "duration": 6, "velocity": 83}, {"time": 4742, "pitch": 78, "duration": 6, "velocity": 80}, {"time": 4748, "pitch": 78, "duration": 6, "velocity": 90}, {"time": 4754, "pitch": 78, "duration": 6, "velocity": 84}, {"time": 4760, "pitch": 80, "duration": 6, "velocity": 78}, {"time": 4766, "pitch": 82, "duration": 9, "velocity": 84}, {"time": 4775, "pitch": 85, "duration": 9, "velocity": 83}, {"time": 4784, "pitch": 77, "duration": 6, "velocity": 83}, {"time": 4790, "pitch": 75, "duration": 30, "velocity": 83}, {"time": 4820, "pitch": 68, "duration": 6, "velocity": 82}, {"time": 4826, "pitch": 68, "duration": 6, "velocity": 83}, {"time": 4832, "pitch": 68, "duration": 6, "velocity": 83}, {"time": 4838, "pitch": 77, "duration": 12, "velocity": 86}, {"time": 4850, "pitch": 77, "duration": 18, "velocity": 91}, {"time": 4868, "pitch": 77, "duration": 6, "velocity": 56}, {"time": 4874, "pitch": 75, "duration": 6, "velocity": 86}, {"time": 4880, "pitch": 73, "duration": 6, "velocity": 80}, {"time": 4886, "pitch": 80, "duration": 12, "velocity": 86}, {"time": 4898, "pitch": 75, "duration": 18, "velocity": 84}, {"time": 4916, "pitch": 77, "duration": 6, "velocity": 90}, {"time": 4922, "pitch": 75, "duration": 6, "velocity": 84}, {"time": 4928, "pitch": 73, "duration": 6, "velocity": 84}, {"time": 4934, "pitch": 73, "duration": 6, "velocity": 93}, {"time": 4940, "pitch": 73, "duration": 6, "velocity": 90}, {"time": 4946, "pitch": 73, "duration": 6, "velocity": 90}, {"time": 4952, "pitch": 85, "duration": 6, "velocity": 90}, {"time": 4958, "pitch": 85, "duration": 6, "velocity": 91}, {"time": 4964, "pitch": 84, "duration": 6, "velocity": 79}, {"time": 4970, "pitch": 82, "duration": 6, "velocity": 84}, {"time": 4976, "pitch": 80, "duration": 6, "velocity": 84}, {"time": 4982, "pitch": 82, "duration": 6, "velocity": 80}, {"time": 4988, "pitch": 80, "duration": 6, "velocity": 84}, {"time": 4994, "pitch": 80, "duration": 18, "velocity": 91}, {"time": 5012, "pitch": 72, "duration": 6, "velocity": 98}, {"time": 5018, "pitch": 73, "duration": 6, "velocity": 95}, {"time": 5024, "pitch": 72, "duration": 6, "velocity": 90}, {"time": 5030, "pitch": 73, "duration": 12, "velocity": 79}, {"time": 5042, "pitch": 82, "duration": 18, "velocity": 79}, {"time": 5060, "pitch": 82, "duration": 6, "velocity": 90}, {"time": 5066, "pitch": 84, "duration": 6, "velocity": 90}, {"time": 5072, "pitch": 85, "duration": 6, "velocity": 91}, {"time": 5078, "pitch": 85, "duration": 12, "velocity": 98}, {"time": 5090, "pitch": 80, "duration": 18, "velocity": 86}, {"time": 5108, "pitch": 73, "duration": 6, "velocity": 94}, {"time": 5114, "pitch": 73, "duration": 6, "velocity": 95}, {"time": 5120, "pitch": 73, "duration": 6, "velocity": 91}, {"time": 5126, "pitch": 78, "duration": 6, "velocity": 91}, {"time": 5132, "pitch": 78, "duration": 6, "velocity": 91}, {"time": 5138, "pitch": 78, "duration": 6, "velocity": 90}, {"time": 5144, "pitch": 80, "duration": 6, "velocity": 82}, {"time": 5150, "pitch": 82, "duration": 9, "velocity": 90}, {"time": 5159, "pitch": 85, "duration": 9, "velocity": 93}, {"time": 5168, "pitch": 77, "duration": 6, "velocity": 84}, {"time": 5174, "pitch": 75, "duration": 24, "velocity": 98}, {"time": 5198, "pitch": 78, "duration": 6, "velocity": 91}, {"time": 5204, "pitch": 77, "duration": 12, "velocity": 90}, {"time": 5216, "pitch": 75, "duration": 3, "velocity": 90}, {"time": 5219, "pitch": 73, "duration": 3, "velocity": 83}, {"time": 5222, "pitch": 73, "duration": 48, "velocity": 91}, {"time": 5289, "pitch": 68, "duration": 7, "velocity": 80}, {"time": 5295, "pitch": 78, "duration": 9, "velocity": 82}, {"time": 5303, "pitch": 77, "duration": 9, "velocity": 83}, {"time": 5311, "pitch": 75, "duration": 7, "velocity": 79}, {"time": 5318, "pitch": 77, "duration": 39, "velocity": 78}, {"time": 5408, "pitch": 73, "duration": 3, "velocity": 78}, {"time": 5411, "pitch": 75, "duration": 3, "velocity": 82}, {"time": 5414, "pitch": 77, "duration": 6, "velocity": 81}, {"time": 5420, "pitch": 77, "duration": 6, "velocity": 83}, {"time": 5426, "pitch": 77, "duration": 6, "velocity": 83}, {"time": 5432, "pitch": 77, "duration": 6, "velocity": 77}, {"time": 5438, "pitch": 77, "duration": 6, "velocity": 79}, {"time": 5444, "pitch": 75, "duration": 6, "velocity": 82}, {"time": 5450, "pitch": 73, "duration": 6, "velocity": 73}, {"time": 5456, "pitch": 77, "duration": 6, "velocity": 71}, {"time": 5462, "pitch": 75, "duration": 6, "velocity": 79}, {"time": 5468, "pitch": 75, "duration": 6, "velocity": 77}, {"time": 5474, "pitch": 72, "duration": 6, "velocity": 80}, {"time": 5480, "pitch": 70, "duration": 3, "velocity": 68}, {"time": 5483, "pitch": 68, "duration": 21, "velocity": 79}, {"time": 5504, "pitch": 70, "duration": 3, "velocity": 79}, {"time": 5507, "pitch": 72, "duration": 3, "velocity": 84}, {"time": 5510, "pitch": 73, "duration": 6, "velocity": 78}, {"time": 5516, "pitch": 73, "duration": 6, "velocity": 82}, {"time": 5522, "pitch": 73, "duration": 6, "velocity": 84}, {"time": 5528, "pitch": 73, "duration": 6, "velocity": 69}, {"time": 5534, "pitch": 73, "duration": 6, "velocity": 80}, {"time": 5540, "pitch": 72, "duration": 6, "velocity": 77}, {"time": 5546, "pitch": 70, "duration": 6, "velocity": 72}, {"time": 5552, "pitch": 73, "duration": 6, "velocity": 79}, {"time": 5558, "pitch": 72, "duration": 12, "velocity": 82}, {"time": 5570, "pitch": 72, "duration": 6, "velocity": 79}, {"time": 5576, "pitch": 65, "duration": 6, "velocity": 74}, {"time": 5582, "pitch": 68, "duration": 18, "velocity": 77}, {"time": 5600, "pitch": 68, "duration": 6, "velocity": 83}, {"time": 5606, "pitch": 70, "duration": 12, "velocity": 82}, {"time": 5618, "pitch": 66, "duration": 6, "velocity": 80}, {"time": 5624, "pitch": 65, "duration": 6, "velocity": 80}, {"time": 5630, "pitch": 63, "duration": 18, "velocity": 78}, {"time": 5648, "pitch": 70, "duration": 6, "velocity": 61}, {"time": 5654, "pitch": 68, "duration": 12, "velocity": 79}, {"time": 5666, "pitch": 65, "duration": 6, "velocity": 78}, {"time": 5672, "pitch": 63, "duration": 6, "velocity": 82}, {"time": 5678, "pitch": 61, "duration": 18, "velocity": 84}, {"time": 5696, "pitch": 63, "duration": 3, "velocity": 84}, {"time": 5699, "pitch": 65, "duration": 3, "velocity": 79}, {"time": 5702, "pitch": 66, "duration": 6, "velocity": 80}, {"time": 5708, "pitch": 66, "duration": 6, "velocity": 83}, {"time": 5714, "pitch": 73, "duration": 4, "velocity": 98}, {"time": 5744, "pitch": 63, "duration": 6, "velocity": 79}, {"time": 5747, "pitch": 65, "duration": 4, "velocity": 73}, {"time": 5750, "pitch": 66, "duration": 5, "velocity": 79}, {"time": 5762, "pitch": 75, "duration": 17, "velocity": 86}, {"time": 5774, "pitch": 70, "duration": 17, "velocity": 86}, {"time": 5786, "pitch": 72, "duration": 17, "velocity": 86}, {"time": 5798, "pitch": 73, "duration": 17, "velocity": 86}]}, {"program": 0, "is_drum": false, "name": "PIANO", "notes": [{"time": 854, "pitch": 49, "duration": 29, "velocity": 82}, {"time": 902, "pitch": 48, "duration": 37, "velocity": 76}, {"time": 908, "pitch": 56, "duration": 32, "velocity": 55}, {"time": 920, "pitch": 60, "duration": 17, "velocity": 47}, {"time": 950, "pitch": 58, "duration": 34, "velocity": 70}, {"time": 998, "pitch": 53, "duration": 31, "velocity": 84}, {"time": 1004, "pitch": 60, "duration": 24, "velocity": 62}, {"time": 1004, "pitch": 65, "duration": 10, "velocity": 60}, {"time": 1010, "pitch": 68, "duration": 7, "velocity": 71}, {"time": 1016, "pitch": 72, "duration": 14, "velocity": 68}, {"time": 1046, "pitch": 42, "duration": 18, "velocity": 69}, {"time": 1046, "pitch": 61, "duration": 11, "velocity": 47}, {"time": 1046, "pitch": 66, "duration": 9, "velocity": 73}, {"time": 1046, "pitch": 70, "duration": 9, "velocity": 80}, {"time": 1052, "pitch": 54, "duration": 10, "velocity": 57}, {"time": 1070, "pitch": 44, "duration": 16, "velocity": 58}, {"time": 1070, "pitch": 56, "duration": 18, "velocity": 57}, {"time": 1070, "pitch": 60, "duration": 17, "velocity": 61}, {"time": 1070, "pitch": 63, "duration": 16, "velocity": 68}, {"time": 1070, "pitch": 68, "duration": 16, "velocity": 69}, {"time": 1094, "pitch": 53, "duration": 14, "velocity": 72}, {"time": 1094, "pitch": 60, "duration": 14, "velocity": 54}, {"time": 1094, "pitch": 63, "duration": 13, "velocity": 71}, {"time": 1094, "pitch": 68, "duration": 14, "velocity": 61}, {"time": 1118, "pitch": 46, "duration": 17, "velocity": 71}, {"time": 1118, "pitch": 58, "duration": 7, "velocity": 57}, {"time": 1118, "pitch": 61, "duration": 11, "velocity": 78}, {"time": 1118, "pitch": 65, "duration": 12, "velocity": 71}, {"time": 1130, "pitch": 58, "duration": 5, "velocity": 58}, {"time": 1139, "pitch": 47, "duration": 41, "velocity": 81}, {"time": 1139, "pitch": 63, "duration": 8, "velocity": 72}, {"time": 1139, "pitch": 66, "duration": 8, "velocity": 76}, {"time": 1139, "pitch": 70, "duration": 9, "velocity": 73}, {"time": 1145, "pitch": 59, "duration": 20, "velocity": 59}, {"time": 1154, "pitch": 63, "duration": 19, "velocity": 60}, {"time": 1160, "pitch": 70, "duration": 16, "velocity": 78}, {"time": 1172, "pitch": 59, "duration": 8, "velocity": 34}, {"time": 1178, "pitch": 66, "duration": 5, "velocity": 61}, {"time": 1190, "pitch": 44, "duration": 46, "velocity": 73}, {"time": 1190, "pitch": 61, "duration": 7, "velocity": 74}, {"time": 1190, "pitch": 66, "duration": 7, "velocity": 75}, {"time": 1196, "pitch": 56, "duration": 38, "velocity": 52}, {"time": 1202, "pitch": 61, "duration": 8, "velocity": 68}, {"time": 1208, "pitch": 66, "duration": 6, "velocity": 70}, {"time": 1214, "pitch": 68, "duration": 3, "velocity": 61}, {"time": 1229, "pitch": 75, "duration": 4, "velocity": 76}, {"time": 1238, "pitch": 54, "duration": 20, "velocity": 21}, {"time": 1238, "pitch": 70, "duration": 18, "velocity": 39}, {"time": 1238, "pitch": 73, "duration": 20, "velocity": 59}, {"time": 1238, "pitch": 78, "duration": 20, "velocity": 76}, {"time": 1286, "pitch": 61, "duration": 42, "velocity": 60}, {"time": 1286, "pitch": 68, "duration": 11, "velocity": 56}, {"time": 1286, "pitch": 73, "duration": 13, "velocity": 72}, {"time": 1286, "pitch": 77, "duration": 15, "velocity": 71}, {"time": 1304, "pitch": 68, "duration": 15, "velocity": 56}, {"time": 1310, "pitch": 80, "duration": 11, "velocity": 57}, {"time": 1322, "pitch": 68, "duration": 6, "velocity": 50}, {"time": 1328, "pitch": 77, "duration": 6, "velocity": 73}, {"time": 1334, "pitch": 60, "duration": 38, "velocity": 78}, {"time": 1334, "pitch": 75, "duration": 5, "velocity": 80}, {"time": 1340, "pitch": 68, "duration": 31, "velocity": 42}, {"time": 1346, "pitch": 80, "duration": 9, "velocity": 57}, {"time": 1352, "pitch": 72, "duration": 12, "velocity": 48}, {"time": 1358, "pitch": 75, "duration": 6, "velocity": 57}, {"time": 1358, "pitch": 84, "duration": 5, "velocity": 71}, {"time": 1376, "pitch": 73, "duration": 3, "velocity": 48}, {"time": 1379, "pitch": 75, "duration": 4, "velocity": 69}, {"time": 1382, "pitch": 58, "duration": 41, "velocity": 61}, {"time": 1382, "pitch": 68, "duration": 5, "velocity": 59}, {"time": 1382, "pitch": 73, "duration": 12, "velocity": 76}, {"time": 1388, "pitch": 65, "duration": 13, "velocity": 62}, {"time": 1394, "pitch": 70, "duration": 8, "velocity": 60}, {"time": 1400, "pitch": 77, "duration": 7, "velocity": 53}, {"time": 1406, "pitch": 75, "duration": 11, "velocity": 69}, {"time": 1418, "pitch": 65, "duration": 4, "velocity": 57}, {"time": 1418, "pitch": 68, "duration": 4, "velocity": 43}, {"time": 1418, "pitch": 73, "duration": 3, "velocity": 74}, {"time": 1430, "pitch": 53, "duration": 42, "velocity": 67}, {"time": 1430, "pitch": 63, "duration": 5, "velocity": 63}, {"time": 1430, "pitch": 68, "duration": 11, "velocity": 59}, {"time": 1430, "pitch": 72, "duration": 8, "velocity": 71}, {"time": 1436, "pitch": 60, "duration": 9, "velocity": 46}, {"time": 1442, "pitch": 65, "duration": 6, "velocity": 58}, {"time": 1448, "pitch": 75, "duration": 8, "velocity": 72}, {"time": 1454, "pitch": 60, "duration": 16, "velocity": 59}, {"time": 1454, "pitch": 63, "duration": 7, "velocity": 52}, {"time": 1454, "pitch": 72, "duration": 8, "velocity": 72}, {"time": 1466, "pitch": 63, "duration": 4, "velocity": 62}, {"time": 1466, "pitch": 68, "duration": 4, "velocity": 73}, {"time": 1472, "pitch": 66, "duration": 5, "velocity": 75}, {"time": 1478, "pitch": 54, "duration": 18, "velocity": 68}, {"time": 1478, "pitch": 61, "duration": 5, "velocity": 68}, {"time": 1478, "pitch": 68, "duration": 2, "velocity": 68}, {"time": 1478, "pitch": 70, "duration": 8, "velocity": 78}, {"time": 1484, "pitch": 61, "duration": 12, "velocity": 59}, {"time": 1490, "pitch": 66, "duration": 6, "velocity": 67}, {"time": 1496, "pitch": 73, "duration": 5, "velocity": 80}, {"time": 1502, "pitch": 56, "duration": 18, "velocity": 72}, {"time": 1502, "pitch": 68, "duration": 5, "velocity": 57}, {"time": 1502, "pitch": 72, "duration": 8, "velocity": 75}, {"time": 1508, "pitch": 63, "duration": 11, "velocity": 52}, {"time": 1514, "pitch": 68, "duration": 3, "velocity": 54}, {"time": 1514, "pitch": 72, "duration": 7, "velocity": 62}, {"time": 1514, "pitch": 75, "duration": 6, "velocity": 73}, {"time": 1526, "pitch": 53, "duration": 16, "velocity": 70}, {"time": 1526, "pitch": 63, "duration": 7, "velocity": 54}, {"time": 1526, "pitch": 72, "duration": 6, "velocity": 79}, {"time": 1532, "pitch": 60, "duration": 9, "velocity": 74}, {"time": 1538, "pitch": 68, "duration": 6, "velocity": 78}, {"time": 1544, "pitch": 72, "duration": 5, "velocity": 75}, {"time": 1547, "pitch": 65, "duration": 7, "velocity": 52}, {"time": 1550, "pitch": 46, "duration": 17, "velocity": 53}, {"time": 1550, "pitch": 68, "duration": 6, "velocity": 68}, {"time": 1550, "pitch": 73, "duration": 5, "velocity": 73}, {"time": 1556, "pitch": 53, "duration": 12, "velocity": 63}, {"time": 1562, "pitch": 58, "duration": 7, "velocity": 59}, {"time": 1562, "pitch": 61, "duration": 7, "velocity": 61}, {"time": 1562, "pitch": 68, "duration": 5, "velocity": 47}, {"time": 1568, "pitch": 65, "duration": 3, "velocity": 75}, {"time": 1574, "pitch": 51, "duration": 37, "velocity": 76}, {"time": 1574, "pitch": 61, "duration": 7, "velocity": 69}, {"time": 1574, "pitch": 66, "duration": 7, "velocity": 78}, {"time": 1580, "pitch": 58, "duration": 19, "velocity": 62}, {"time": 1586, "pitch": 61, "duration": 4, "velocity": 76}, {"time": 1592, "pitch": 70, "duration": 5, "velocity": 75}, {"time": 1598, "pitch": 63, "duration": 9, "velocity": 59}, {"time": 1598, "pitch": 66, "duration": 2, "velocity": 76}, {"time": 1598, "pitch": 73, "duration": 2, "velocity": 79}, {"time": 1604, "pitch": 58, "duration": 11, "velocity": 39}, {"time": 1610, "pitch": 63, "duration": 3, "velocity": 57}, {"time": 1610, "pitch": 70, "duration": 2, "velocity": 63}, {"time": 1610, "pitch": 78, "duration": 9, "velocity": 82}, {"time": 1616, "pitch": 68, "duration": 4, "velocity": 57}, {"time": 1616, "pitch": 77, "duration": 6, "velocity": 73}, {"time": 1622, "pitch": 44, "duration": 20, "velocity": 58}, {"time": 1622, "pitch": 68, "duration": 6, "velocity": 57}, {"time": 1628, "pitch": 51, "duration": 18, "velocity": 76}, {"time": 1631, "pitch": 56, "duration": 12, "velocity": 58}, {"time": 1634, "pitch": 61, "duration": 3, "velocity": 42}, {"time": 1637, "pitch": 63, "duration": 1, "velocity": 61}, {"time": 1640, "pitch": 66, "duration": 2, "velocity": 71}, {"time": 1643, "pitch": 73, "duration": 3, "velocity": 77}, {"time": 1646, "pitch": 44, "duration": 6, "velocity": 55}, {"time": 1646, "pitch": 68, "duration": 5, "velocity": 62}, {"time": 1646, "pitch": 80, "duration": 4, "velocity": 57}, {"time": 1652, "pitch": 56, "duration": 6, "velocity": 49}, {"time": 1658, "pitch": 58, "duration": 6, "velocity": 56}, {"time": 1658, "pitch": 66, "duration": 4, "velocity": 40}, {"time": 1658, "pitch": 78, "duration": 2, "velocity": 81}, {"time": 1664, "pitch": 60, "duration": 1, "velocity": 52}, {"time": 1667, "pitch": 63, "duration": 7, "velocity": 39}, {"time": 1670, "pitch": 49, "duration": 11, "velocity": 79}, {"time": 1670, "pitch": 65, "duration": 7, "velocity": 68}, {"time": 1670, "pitch": 68, "duration": 6, "velocity": 73}, {"time": 1670, "pitch": 73, "duration": 6, "velocity": 76}, {"time": 1676, "pitch": 56, "duration": 7, "velocity": 68}, {"time": 1682, "pitch": 61, "duration": 7, "velocity": 58}, {"time": 1682, "pitch": 68, "duration": 4, "velocity": 69}, {"time": 1682, "pitch": 77, "duration": 6, "velocity": 78}, {"time": 1688, "pitch": 63, "duration": 7, "velocity": 58}, {"time": 1688, "pitch": 68, "duration": 4, "velocity": 60}, {"time": 1688, "pitch": 75, "duration": 7, "velocity": 76}, {"time": 1694, "pitch": 65, "duration": 8, "velocity": 72}, {"time": 1694, "pitch": 68, "duration": 5, "velocity": 69}, {"time": 1694, "pitch": 73, "duration": 5, "velocity": 80}, {"time": 1700, "pitch": 63, "duration": 11, "velocity": 69}, {"time": 1706, "pitch": 68, "duration": 6, "velocity": 75}, {"time": 1706, "pitch": 77, "duration": 5, "velocity": 81}, {"time": 1712, "pitch": 80, "duration": 6, "velocity": 69}, {"time": 1718, "pitch": 48, "duration": 6, "velocity": 75}, {"time": 1718, "pitch": 68, "duration": 14, "velocity": 69}, {"time": 1718, "pitch": 75, "duration": 18, "velocity": 80}, {"time": 1724, "pitch": 60, "duration": 7, "velocity": 62}, {"time": 1730, "pitch": 63, "duration": 36, "velocity": 72}, {"time": 1736, "pitch": 65, "duration": 13, "velocity": 76}, {"time": 1742, "pitch": 68, "duration": 14, "velocity": 44}, {"time": 1742, "pitch": 72, "duration": 7, "velocity": 80}, {"time": 1748, "pitch": 73, "duration": 7, "velocity": 80}, {"time": 1754, "pitch": 65, "duration": 12, "velocity": 71}, {"time": 1754, "pitch": 75, "duration": 6, "velocity": 79}, {"time": 1760, "pitch": 77, "duration": 7, "velocity": 80}, {"time": 1766, "pitch": 58, "duration": 30, "velocity": 78}, {"time": 1766, "pitch": 68, "duration": 7, "velocity": 67}, {"time": 1766, "pitch": 73, "duration": 6, "velocity": 82}, {"time": 1772, "pitch": 65, "duration": 8, "velocity": 75}, {"time": 1778, "pitch": 68, "duration": 6, "velocity": 54}, {"time": 1778, "pitch": 70, "duration": 6, "velocity": 75}, {"time": 1784, "pitch": 73, "duration": 4, "velocity": 79}, {"time": 1790, "pitch": 65, "duration": 8, "velocity": 74}, {"time": 1790, "pitch": 68, "duration": 7, "velocity": 73}, {"time": 1790, "pitch": 73, "duration": 7, "velocity": 52}, {"time": 1796, "pitch": 46, "duration": 12, "velocity": 60}, {"time": 1802, "pitch": 58, "duration": 9, "velocity": 50}, {"time": 1808, "pitch": 65, "duration": 3, "velocity": 71}, {"time": 1808, "pitch": 73, "duration": 5, "velocity": 81}, {"time": 1814, "pitch": 53, "duration": 41, "velocity": 69}, {"time": 1814, "pitch": 63, "duration": 10, "velocity": 71}, {"time": 1814, "pitch": 72, "duration": 10, "velocity": 81}, {"time": 1820, "pitch": 56, "duration": 25, "velocity": 71}, {"time": 1826, "pitch": 60, "duration": 8, "velocity": 68}, {"time": 1832, "pitch": 68, "duration": 6, "velocity": 68}, {"time": 1838, "pitch": 60, "duration": 12, "velocity": 58}, {"time": 1838, "pitch": 65, "duration": 6, "velocity": 73}, {"time": 1850, "pitch": 65, "duration": 7, "velocity": 58}, {"time": 1850, "pitch": 73, "duration": 4, "velocity": 68}, {"time": 1856, "pitch": 72, "duration": 2, "velocity": 75}, {"time": 1862, "pitch": 42, "duration": 6, "velocity": 75}, {"time": 1862, "pitch": 61, "duration": 11, "velocity": 58}, {"time": 1862, "pitch": 66, "duration": 9, "velocity": 77}, {"time": 1862, "pitch": 70, "duration": 13, "velocity": 75}, {"time": 1868, "pitch": 54, "duration": 7, "velocity": 59}, {"time": 1874, "pitch": 56, "duration": 2, "velocity": 71}, {"time": 1874, "pitch": 61, "duration": 3, "velocity": 34}, {"time": 1874, "pitch": 68, "duration": 5, "velocity": 78}, {"time": 1880, "pitch": 66, "duration": 5, "velocity": 78}, {"time": 1886, "pitch": 44, "duration": 11, "velocity": 53}, {"time": 1886, "pitch": 63, "duration": 6, "velocity": 69}, {"time": 1886, "pitch": 68, "duration": 6, "velocity": 72}, {"time": 1886, "pitch": 72, "duration": 5, "velocity": 80}, {"time": 1892, "pitch": 51, "duration": 6, "velocity": 57}, {"time": 1898, "pitch": 56, "duration": 6, "velocity": 61}, {"time": 1898, "pitch": 68, "duration": 5, "velocity": 75}, {"time": 1898, "pitch": 73, "duration": 5, "velocity": 79}, {"time": 1904, "pitch": 58, "duration": 6, "velocity": 61}, {"time": 1910, "pitch": 53, "duration": 17, "velocity": 72}, {"time": 1910, "pitch": 63, "duration": 5, "velocity": 78}, {"time": 1910, "pitch": 68, "duration": 7, "velocity": 80}, {"time": 1916, "pitch": 60, "duration": 11, "velocity": 68}, {"time": 1922, "pitch": 65, "duration": 3, "velocity": 63}, {"time": 1922, "pitch": 68, "duration": 7, "velocity": 75}, {"time": 1922, "pitch": 72, "duration": 5, "velocity": 80}, {"time": 1928, "pitch": 75, "duration": 2, "velocity": 79}, {"time": 1934, "pitch": 46, "duration": 18, "velocity": 72}, {"time": 1934, "pitch": 65, "duration": 5, "velocity": 72}, {"time": 1934, "pitch": 73, "duration": 5, "velocity": 82}, {"time": 1940, "pitch": 53, "duration": 7, "velocity": 69}, {"time": 1946, "pitch": 58, "duration": 5, "velocity": 53}, {"time": 1946, "pitch": 61, "duration": 5, "velocity": 71}, {"time": 1946, "pitch": 70, "duration": 5, "velocity": 76}, {"time": 1952, "pitch": 53, "duration": 1, "velocity": 78}, {"time": 1958, "pitch": 51, "duration": 44, "velocity": 73}, {"time": 1958, "pitch": 61, "duration": 5, "velocity": 75}, {"time": 1958, "pitch": 66, "duration": 8, "velocity": 77}, {"time": 1958, "pitch": 70, "duration": 7, "velocity": 73}, {"time": 1964, "pitch": 58, "duration": 7, "velocity": 54}, {"time": 1970, "pitch": 63, "duration": 7, "velocity": 54}, {"time": 1970, "pitch": 65, "duration": 6, "velocity": 75}, {"time": 1970, "pitch": 68, "duration": 13, "velocity": 76}, {"time": 1976, "pitch": 58, "duration": 7, "velocity": 54}, {"time": 1982, "pitch": 63, "duration": 5, "velocity": 70}, {"time": 1982, "pitch": 66, "duration": 5, "velocity": 77}, {"time": 1982, "pitch": 70, "duration": 6, "velocity": 78}, {"time": 1988, "pitch": 58, "duration": 8, "velocity": 60}, {"time": 1994, "pitch": 61, "duration": 7, "velocity": 74}, {"time": 1994, "pitch": 66, "duration": 6, "velocity": 78}, {"time": 1994, "pitch": 73, "duration": 7, "velocity": 83}, {"time": 2000, "pitch": 58, "duration": 1, "velocity": 72}, {"time": 2006, "pitch": 44, "duration": 18, "velocity": 82}, {"time": 2006, "pitch": 61, "duration": 6, "velocity": 76}, {"time": 2006, "pitch": 66, "duration": 6, "velocity": 80}, {"time": 2006, "pitch": 70, "duration": 6, "velocity": 75}, {"time": 2006, "pitch": 73, "duration": 6, "velocity": 73}, {"time": 2012, "pitch": 51, "duration": 6, "velocity": 71}, {"time": 2018, "pitch": 56, "duration": 7, "velocity": 55}, {"time": 2018, "pitch": 61, "duration": 3, "velocity": 79}, {"time": 2018, "pitch": 68, "duration": 4, "velocity": 76}, {"time": 2024, "pitch": 51, "duration": 6, "velocity": 80}, {"time": 2024, "pitch": 66, "duration": 3, "velocity": 80}, {"time": 2030, "pitch": 44, "duration": 12, "velocity": 79}, {"time": 2030, "pitch": 63, "duration": 2, "velocity": 83}, {"time": 2030, "pitch": 72, "duration": 2, "velocity": 94}, {"time": 2036, "pitch": 51, "duration": 6, "velocity": 75}, {"time": 2036, "pitch": 65, "duration": 2, "velocity": 82}, {"time": 2036, "pitch": 73, "duration": 2, "velocity": 82}, {"time": 2042, "pitch": 56, "duration": 6, "velocity": 68}, {"time": 2042, "pitch": 66, "duration": 1, "velocity": 82}, {"time": 2042, "pitch": 75, "duration": 2, "velocity": 86}, {"time": 2048, "pitch": 58, "duration": 2, "velocity": 78}, {"time": 2054, "pitch": 49, "duration": 42, "velocity": 90}, {"time": 2054, "pitch": 68, "duration": 5, "velocity": 76}, {"time": 2054, "pitch": 73, "duration": 5, "velocity": 83}, {"time": 2054, "pitch": 77, "duration": 5, "velocity": 81}, {"time": 2060, "pitch": 56, "duration": 6, "velocity": 76}, {"time": 2066, "pitch": 61, "duration": 14, "velocity": 52}, {"time": 2066, "pitch": 63, "duration": 6, "velocity": 62}, {"time": 2066, "pitch": 65, "duration": 5, "velocity": 34}, {"time": 2066, "pitch": 68, "duration": 6, "velocity": 72}, {"time": 2066, "pitch": 73, "duration": 6, "velocity": 59}, {"time": 2072, "pitch": 56, "duration": 19, "velocity": 56}, {"time": 2078, "pitch": 63, "duration": 6, "velocity": 69}, {"time": 2078, "pitch": 65, "duration": 6, "velocity": 71}, {"time": 2078, "pitch": 68, "duration": 6, "velocity": 78}, {"time": 2078, "pitch": 70, "duration": 4, "velocity": 60}, {"time": 2078, "pitch": 73, "duration": 7, "velocity": 71}, {"time": 2084, "pitch": 61, "duration": 9, "velocity": 52}, {"time": 2090, "pitch": 63, "duration": 6, "velocity": 76}, {"time": 2090, "pitch": 65, "duration": 6, "velocity": 75}, {"time": 2090, "pitch": 68, "duration": 6, "velocity": 80}, {"time": 2090, "pitch": 70, "duration": 5, "velocity": 72}, {"time": 2090, "pitch": 73, "duration": 4, "velocity": 70}, {"time": 2096, "pitch": 56, "duration": 7, "velocity": 73}, {"time": 2102, "pitch": 48, "duration": 40, "velocity": 80}, {"time": 2102, "pitch": 63, "duration": 6, "velocity": 78}, {"time": 2102, "pitch": 68, "duration": 6, "velocity": 76}, {"time": 2102, "pitch": 72, "duration": 6, "velocity": 76}, {"time": 2108, "pitch": 56, "duration": 10, "velocity": 69}, {"time": 2114, "pitch": 60, "duration": 13, "velocity": 47}, {"time": 2114, "pitch": 63, "duration": 4, "velocity": 71}, {"time": 2114, "pitch": 68, "duration": 4, "velocity": 72}, {"time": 2114, "pitch": 72, "duration": 3, "velocity": 63}, {"time": 2120, "pitch": 56, "duration": 18, "velocity": 68}, {"time": 2126, "pitch": 63, "duration": 5, "velocity": 72}, {"time": 2126, "pitch": 68, "duration": 6, "velocity": 73}, {"time": 2126, "pitch": 72, "duration": 5, "velocity": 76}, {"time": 2132, "pitch": 60, "duration": 10, "velocity": 57}, {"time": 2138, "pitch": 63, "duration": 5, "velocity": 73}, {"time": 2138, "pitch": 68, "duration": 1, "velocity": 55}, {"time": 2138, "pitch": 75, "duration": 4, "velocity": 84}, {"time": 2141, "pitch": 56, "duration": 4, "velocity": 78}, {"time": 2144, "pitch": 70, "duration": 4, "velocity": 75}, {"time": 2147, "pitch": 72, "duration": 3, "velocity": 83}, {"time": 2150, "pitch": 46, "duration": 43, "velocity": 73}, {"time": 2150, "pitch": 65, "duration": 6, "velocity": 73}, {"time": 2150, "pitch": 68, "duration": 6, "velocity": 76}, {"time": 2150, "pitch": 73, "duration": 6, "velocity": 83}, {"time": 2156, "pitch": 53, "duration": 9, "velocity": 76}, {"time": 2162, "pitch": 58, "duration": 11, "velocity": 51}, {"time": 2162, "pitch": 61, "duration": 5, "velocity": 75}, {"time": 2162, "pitch": 65, "duration": 5, "velocity": 75}, {"time": 2162, "pitch": 70, "duration": 6, "velocity": 79}, {"time": 2168, "pitch": 53, "duration": 13, "velocity": 59}, {"time": 2174, "pitch": 61, "duration": 3, "velocity": 78}, {"time": 2174, "pitch": 68, "duration": 4, "velocity": 82}, {"time": 2180, "pitch": 58, "duration": 6, "velocity": 17}, {"time": 2180, "pitch": 61, "duration": 1, "velocity": 81}, {"time": 2180, "pitch": 70, "duration": 2, "velocity": 79}, {"time": 2186, "pitch": 53, "duration": 4, "velocity": 76}, {"time": 2186, "pitch": 63, "duration": 1, "velocity": 57}, {"time": 2186, "pitch": 65, "duration": 1, "velocity": 54}, {"time": 2186, "pitch": 72, "duration": 2, "velocity": 78}, {"time": 2192, "pitch": 53, "duration": 6, "velocity": 79}, {"time": 2192, "pitch": 73, "duration": 4, "velocity": 90}, {"time": 2198, "pitch": 53, "duration": 16, "velocity": 79}, {"time": 2198, "pitch": 65, "duration": 6, "velocity": 73}, {"time": 2198, "pitch": 68, "duration": 6, "velocity": 79}, {"time": 2198, "pitch": 72, "duration": 6, "velocity": 80}, {"time": 2204, "pitch": 60, "duration": 11, "velocity": 78}, {"time": 2210, "pitch": 65, "duration": 7, "velocity": 76}, {"time": 2216, "pitch": 75, "duration": 2, "velocity": 84}, {"time": 2222, "pitch": 49, "duration": 18, "velocity": 76}, {"time": 2222, "pitch": 65, "duration": 7, "velocity": 72}, {"time": 2222, "pitch": 68, "duration": 7, "velocity": 75}, {"time": 2222, "pitch": 71, "duration": 7, "velocity": 86}, {"time": 2228, "pitch": 61, "duration": 8, "velocity": 73}, {"time": 2234, "pitch": 65, "duration": 4, "velocity": 76}, {"time": 2234, "pitch": 73, "duration": 4, "velocity": 84}, {"time": 2246, "pitch": 42, "duration": 6, "velocity": 78}, {"time": 2246, "pitch": 61, "duration": 7, "velocity": 75}, {"time": 2246, "pitch": 66, "duration": 7, "velocity": 47}, {"time": 2246, "pitch": 70, "duration": 7, "velocity": 55}, {"time": 2252, "pitch": 54, "duration": 7, "velocity": 68}, {"time": 2258, "pitch": 56, "duration": 7, "velocity": 69}, {"time": 2258, "pitch": 61, "duration": 5, "velocity": 72}, {"time": 2258, "pitch": 68, "duration": 6, "velocity": 78}, {"time": 2264, "pitch": 58, "duration": 1, "velocity": 75}, {"time": 2270, "pitch": 61, "duration": 8, "velocity": 58}, {"time": 2276, "pitch": 66, "duration": 5, "velocity": 80}, {"time": 2282, "pitch": 70, "duration": 7, "velocity": 80}, {"time": 2288, "pitch": 73, "duration": 6, "velocity": 84}, {"time": 2294, "pitch": 53, "duration": 41, "velocity": 80}, {"time": 2294, "pitch": 63, "duration": 6, "velocity": 78}, {"time": 2294, "pitch": 68, "duration": 7, "velocity": 71}, {"time": 2294, "pitch": 72, "duration": 8, "velocity": 84}, {"time": 2300, "pitch": 60, "duration": 10, "velocity": 61}, {"time": 2306, "pitch": 65, "duration": 8, "velocity": 71}, {"time": 2306, "pitch": 68, "duration": 1, "velocity": 80}, {"time": 2312, "pitch": 60, "duration": 7, "velocity": 68}, {"time": 2318, "pitch": 77, "duration": 2, "velocity": 79}, {"time": 2318, "pitch": 89, "duration": 2, "velocity": 84}, {"time": 2324, "pitch": 60, "duration": 10, "velocity": 68}, {"time": 2330, "pitch": 73, "duration": 2, "velocity": 83}, {"time": 2330, "pitch": 85, "duration": 1, "velocity": 83}, {"time": 2342, "pitch": 51, "duration": 16, "velocity": 82}, {"time": 2342, "pitch": 61, "duration": 6, "velocity": 77}, {"time": 2342, "pitch": 66, "duration": 6, "velocity": 82}, {"time": 2342, "pitch": 70, "duration": 7, "velocity": 73}, {"time": 2342, "pitch": 73, "duration": 6, "velocity": 73}, {"time": 2348, "pitch": 58, "duration": 11, "velocity": 79}, {"time": 2354, "pitch": 61, "duration": 5, "velocity": 84}, {"time": 2360, "pitch": 68, "duration": 4, "velocity": 78}, {"time": 2366, "pitch": 51, "duration": 19, "velocity": 80}, {"time": 2366, "pitch": 63, "duration": 7, "velocity": 79}, {"time": 2366, "pitch": 67, "duration": 6, "velocity": 79}, {"time": 2366, "pitch": 73, "duration": 8, "velocity": 84}, {"time": 2372, "pitch": 58, "duration": 13, "velocity": 61}, {"time": 2378, "pitch": 63, "duration": 4, "velocity": 75}, {"time": 2378, "pitch": 67, "duration": 3, "velocity": 71}, {"time": 2378, "pitch": 75, "duration": 4, "velocity": 82}, {"time": 2390, "pitch": 44, "duration": 12, "velocity": 82}, {"time": 2390, "pitch": 61, "duration": 5, "velocity": 80}, {"time": 2390, "pitch": 66, "duration": 5, "velocity": 79}, {"time": 2390, "pitch": 73, "duration": 5, "velocity": 84}, {"time": 2396, "pitch": 51, "duration": 6, "velocity": 76}, {"time": 2402, "pitch": 56, "duration": 7, "velocity": 70}, {"time": 2402, "pitch": 63, "duration": 1, "velocity": 73}, {"time": 2402, "pitch": 72, "duration": 2, "velocity": 91}, {"time": 2408, "pitch": 58, "duration": 9, "velocity": 72}, {"time": 2408, "pitch": 65, "duration": 1, "velocity": 83}, {"time": 2408, "pitch": 73, "duration": 2, "velocity": 86}, {"time": 2414, "pitch": 60, "duration": 6, "velocity": 82}, {"time": 2414, "pitch": 66, "duration": 2, "velocity": 84}, {"time": 2414, "pitch": 75, "duration": 2, "velocity": 91}, {"time": 2420, "pitch": 61, "duration": 7, "velocity": 78}, {"time": 2420, "pitch": 68, "duration": 1, "velocity": 80}, {"time": 2420, "pitch": 77, "duration": 2, "velocity": 86}, {"time": 2426, "pitch": 63, "duration": 7, "velocity": 83}, {"time": 2426, "pitch": 70, "duration": 2, "velocity": 80}, {"time": 2426, "pitch": 78, "duration": 2, "velocity": 86}, {"time": 2432, "pitch": 65, "duration": 1, "velocity": 90}, {"time": 2432, "pitch": 73, "duration": 1, "velocity": 76}, {"time": 2432, "pitch": 80, "duration": 1, "velocity": 78}, {"time": 2438, "pitch": 49, "duration": 42, "velocity": 91}, {"time": 2438, "pitch": 68, "duration": 5, "velocity": 75}, {"time": 2438, "pitch": 73, "duration": 5, "velocity": 84}, {"time": 2438, "pitch": 77, "duration": 5, "velocity": 82}, {"time": 2444, "pitch": 56, "duration": 8, "velocity": 78}, {"time": 2450, "pitch": 61, "duration": 12, "velocity": 53}, {"time": 2450, "pitch": 63, "duration": 6, "velocity": 78}, {"time": 2450, "pitch": 65, "duration": 6, "velocity": 73}, {"time": 2450, "pitch": 68, "duration": 6, "velocity": 74}, {"time": 2450, "pitch": 73, "duration": 6, "velocity": 76}, {"time": 2456, "pitch": 56, "duration": 21, "velocity": 75}, {"time": 2462, "pitch": 63, "duration": 6, "velocity": 82}, {"time": 2462, "pitch": 65, "duration": 6, "velocity": 82}, {"time": 2462, "pitch": 68, "duration": 5, "velocity": 82}, {"time": 2462, "pitch": 73, "duration": 6, "velocity": 82}, {"time": 2468, "pitch": 61, "duration": 7, "velocity": 71}, {"time": 2471, "pitch": 63, "duration": 2, "velocity": 81}, {"time": 2474, "pitch": 65, "duration": 4, "velocity": 84}, {"time": 2477, "pitch": 66, "duration": 2, "velocity": 81}, {"time": 2480, "pitch": 56, "duration": 4, "velocity": 73}, {"time": 2480, "pitch": 68, "duration": 3, "velocity": 82}, {"time": 2483, "pitch": 70, "duration": 4, "velocity": 81}, {"time": 2486, "pitch": 48, "duration": 9, "velocity": 83}, {"time": 2486, "pitch": 63, "duration": 5, "velocity": 79}, {"time": 2486, "pitch": 68, "duration": 6, "velocity": 82}, {"time": 2492, "pitch": 56, "duration": 6, "velocity": 71}, {"time": 2498, "pitch": 60, "duration": 7, "velocity": 75}, {"time": 2498, "pitch": 63, "duration": 5, "velocity": 77}, {"time": 2498, "pitch": 68, "duration": 6, "velocity": 79}, {"time": 2498, "pitch": 75, "duration": 5, "velocity": 83}, {"time": 2504, "pitch": 61, "duration": 2, "velocity": 83}, {"time": 2510, "pitch": 70, "duration": 3, "velocity": 78}, {"time": 2513, "pitch": 72, "duration": 3, "velocity": 83}, {"time": 2516, "pitch": 73, "duration": 2, "velocity": 84}, {"time": 2519, "pitch": 63, "duration": 4, "velocity": 47}, {"time": 2522, "pitch": 48, "duration": 13, "velocity": 79}, {"time": 2522, "pitch": 75, "duration": 3, "velocity": 86}, {"time": 2525, "pitch": 63, "duration": 3, "velocity": 60}, {"time": 2528, "pitch": 68, "duration": 3, "velocity": 75}, {"time": 2531, "pitch": 72, "duration": 3, "velocity": 82}, {"time": 2534, "pitch": 46, "duration": 28, "velocity": 83}, {"time": 2534, "pitch": 65, "duration": 6, "velocity": 76}, {"time": 2534, "pitch": 68, "duration": 5, "velocity": 71}, {"time": 2534, "pitch": 73, "duration": 5, "velocity": 84}, {"time": 2540, "pitch": 53, "duration": 7, "velocity": 79}, {"time": 2546, "pitch": 58, "duration": 6, "velocity": 50}, {"time": 2546, "pitch": 61, "duration": 5, "velocity": 79}, {"time": 2546, "pitch": 65, "duration": 5, "velocity": 75}, {"time": 2546, "pitch": 68, "duration": 5, "velocity": 78}, {"time": 2552, "pitch": 53, "duration": 19, "velocity": 79}, {"time": 2558, "pitch": 61, "duration": 6, "velocity": 82}, {"time": 2558, "pitch": 65, "duration": 7, "velocity": 79}, {"time": 2558, "pitch": 70, "duration": 8, "velocity": 84}, {"time": 2564, "pitch": 58, "duration": 9, "velocity": 58}, {"time": 2570, "pitch": 61, "duration": 6, "velocity": 84}, {"time": 2570, "pitch": 65, "duration": 6, "velocity": 84}, {"time": 2570, "pitch": 68, "duration": 6, "velocity": 84}, {"time": 2576, "pitch": 53, "duration": 7, "velocity": 83}, {"time": 2582, "pitch": 44, "duration": 19, "velocity": 79}, {"time": 2582, "pitch": 61, "duration": 6, "velocity": 79}, {"time": 2582, "pitch": 65, "duration": 6, "velocity": 78}, {"time": 2582, "pitch": 68, "duration": 6, "velocity": 80}, {"time": 2588, "pitch": 53, "duration": 7, "velocity": 79}, {"time": 2594, "pitch": 56, "duration": 4, "velocity": 71}, {"time": 2594, "pitch": 61, "duration": 8, "velocity": 82}, {"time": 2594, "pitch": 65, "duration": 5, "velocity": 79}, {"time": 2594, "pitch": 68, "duration": 5, "velocity": 82}, {"time": 2600, "pitch": 56, "duration": 6, "velocity": 72}, {"time": 2606, "pitch": 49, "duration": 11, "velocity": 79}, {"time": 2606, "pitch": 61, "duration": 5, "velocity": 75}, {"time": 2606, "pitch": 65, "duration": 5, "velocity": 78}, {"time": 2606, "pitch": 68, "duration": 4, "velocity": 60}, {"time": 2606, "pitch": 71, "duration": 5, "velocity": 86}, {"time": 2612, "pitch": 53, "duration": 6, "velocity": 83}, {"time": 2618, "pitch": 61, "duration": 6, "velocity": 82}, {"time": 2618, "pitch": 65, "duration": 6, "velocity": 81}, {"time": 2618, "pitch": 71, "duration": 5, "velocity": 83}, {"time": 2618, "pitch": 73, "duration": 6, "velocity": 86}, {"time": 2624, "pitch": 37, "duration": 2, "velocity": 84}, {"time": 2630, "pitch": 42, "duration": 10, "velocity": 84}, {"time": 2630, "pitch": 61, "duration": 6, "velocity": 80}, {"time": 2630, "pitch": 66, "duration": 6, "velocity": 84}, {"time": 2630, "pitch": 70, "duration": 6, "velocity": 82}, {"time": 2630, "pitch": 73, "duration": 6, "velocity": 41}, {"time": 2636, "pitch": 49, "duration": 6, "velocity": 76}, {"time": 2642, "pitch": 54, "duration": 7, "velocity": 61}, {"time": 2642, "pitch": 61, "duration": 6, "velocity": 78}, {"time": 2642, "pitch": 66, "duration": 7, "velocity": 86}, {"time": 2648, "pitch": 56, "duration": 21, "velocity": 78}, {"time": 2654, "pitch": 61, "duration": 2, "velocity": 86}, {"time": 2654, "pitch": 73, "duration": 3, "velocity": 90}, {"time": 2660, "pitch": 63, "duration": 4, "velocity": 58}, {"time": 2660, "pitch": 72, "duration": 3, "velocity": 84}, {"time": 2666, "pitch": 58, "duration": 6, "velocity": 68}, {"time": 2666, "pitch": 65, "duration": 3, "velocity": 78}, {"time": 2666, "pitch": 73, "duration": 3, "velocity": 90}, {"time": 2672, "pitch": 66, "duration": 2, "velocity": 68}, {"time": 2672, "pitch": 75, "duration": 2, "velocity": 84}, {"time": 2678, "pitch": 41, "duration": 18, "velocity": 82}, {"time": 2678, "pitch": 63, "duration": 7, "velocity": 78}, {"time": 2678, "pitch": 68, "duration": 7, "velocity": 77}, {"time": 2678, "pitch": 72, "duration": 6, "velocity": 79}, {"time": 2684, "pitch": 53, "duration": 10, "velocity": 70}, {"time": 2690, "pitch": 70, "duration": 5, "velocity": 81}, {"time": 2696, "pitch": 53, "duration": 24, "velocity": 68}, {"time": 2696, "pitch": 72, "duration": 5, "velocity": 84}, {"time": 2702, "pitch": 65, "duration": 8, "velocity": 75}, {"time": 2702, "pitch": 68, "duration": 9, "velocity": 83}, {"time": 2702, "pitch": 73, "duration": 8, "velocity": 86}, {"time": 2714, "pitch": 65, "duration": 2, "velocity": 81}, {"time": 2714, "pitch": 72, "duration": 2, "velocity": 86}, {"time": 2720, "pitch": 61, "duration": 4, "velocity": 76}, {"time": 2720, "pitch": 68, "duration": 5, "velocity": 74}, {"time": 2726, "pitch": 51, "duration": 27, "velocity": 80}, {"time": 2726, "pitch": 61, "duration": 7, "velocity": 84}, {"time": 2726, "pitch": 66, "duration": 6, "velocity": 83}, {"time": 2726, "pitch": 70, "duration": 7, "velocity": 81}, {"time": 2732, "pitch": 58, "duration": 22, "velocity": 73}, {"time": 2738, "pitch": 61, "duration": 7, "velocity": 90}, {"time": 2744, "pitch": 66, "duration": 6, "velocity": 76}, {"time": 2750, "pitch": 55, "duration": 16, "velocity": 84}, {"time": 2750, "pitch": 66, "duration": 2, "velocity": 56}, {"time": 2750, "pitch": 70, "duration": 5, "velocity": 79}, {"time": 2756, "pitch": 67, "duration": 6, "velocity": 81}, {"time": 2762, "pitch": 61, "duration": 10, "velocity": 95}, {"time": 2762, "pitch": 73, "duration": 2, "velocity": 57}, {"time": 2768, "pitch": 73, "duration": 4, "velocity": 83}, {"time": 2774, "pitch": 44, "duration": 41, "velocity": 82}, {"time": 2774, "pitch": 61, "duration": 8, "velocity": 83}, {"time": 2774, "pitch": 66, "duration": 7, "velocity": 84}, {"time": 2774, "pitch": 70, "duration": 8, "velocity": 83}, {"time": 2774, "pitch": 73, "duration": 8, "velocity": 79}, {"time": 2780, "pitch": 51, "duration": 36, "velocity": 78}, {"time": 2783, "pitch": 56, "duration": 19, "velocity": 76}, {"time": 2786, "pitch": 61, "duration": 3, "velocity": 79}, {"time": 2789, "pitch": 66, "duration": 3, "velocity": 80}, {"time": 2792, "pitch": 68, "duration": 2, "velocity": 75}, {"time": 2795, "pitch": 70, "duration": 4, "velocity": 79}, {"time": 2798, "pitch": 73, "duration": 6, "velocity": 83}, {"time": 2810, "pitch": 56, "duration": 9, "velocity": 62}, {"time": 2810, "pitch": 70, "duration": 2, "velocity": 75}, {"time": 2810, "pitch": 78, "duration": 6, "velocity": 84}, {"time": 2822, "pitch": 49, "duration": 30, "velocity": 82}, {"time": 2822, "pitch": 68, "duration": 6, "velocity": 71}, {"time": 2822, "pitch": 73, "duration": 6, "velocity": 82}, {"time": 2822, "pitch": 77, "duration": 6, "velocity": 78}, {"time": 2870, "pitch": 61, "duration": 13, "velocity": 75}, {"time": 2876, "pitch": 68, "duration": 7, "velocity": 57}, {"time": 2882, "pitch": 73, "duration": 7, "velocity": 60}, {"time": 2888, "pitch": 75, "duration": 16, "velocity": 62}, {"time": 2894, "pitch": 77, "duration": 8, "velocity": 61}, {"time": 2918, "pitch": 60, "duration": 11, "velocity": 55}, {"time": 2924, "pitch": 68, "duration": 6, "velocity": 41}, {"time": 2930, "pitch": 72, "duration": 8, "velocity": 20}, {"time": 2936, "pitch": 75, "duration": 16, "velocity": 53}, {"time": 2966, "pitch": 58, "duration": 13, "velocity": 62}, {"time": 2972, "pitch": 65, "duration": 6, "velocity": 59}, {"time": 2978, "pitch": 68, "duration": 7, "velocity": 71}, {"time": 2984, "pitch": 73, "duration": 19, "velocity": 59}, {"time": 2990, "pitch": 72, "duration": 16, "velocity": 71}, {"time": 3002, "pitch": 77, "duration": 4, "velocity": 57}, {"time": 3014, "pitch": 56, "duration": 10, "velocity": 60}, {"time": 3020, "pitch": 65, "duration": 5, "velocity": 58}, {"time": 3026, "pitch": 68, "duration": 7, "velocity": 60}, {"time": 3032, "pitch": 73, "duration": 10, "velocity": 61}, {"time": 3038, "pitch": 72, "duration": 4, "velocity": 75}, {"time": 3050, "pitch": 68, "duration": 1, "velocity": 72}, {"time": 3062, "pitch": 54, "duration": 20, "velocity": 84}, {"time": 3068, "pitch": 61, "duration": 8, "velocity": 82}, {"time": 3074, "pitch": 66, "duration": 7, "velocity": 79}, {"time": 3080, "pitch": 61, "duration": 6, "velocity": 71}, {"time": 3086, "pitch": 54, "duration": 17, "velocity": 76}, {"time": 3086, "pitch": 63, "duration": 9, "velocity": 59}, {"time": 3086, "pitch": 65, "duration": 1, "velocity": 45}, {"time": 3086, "pitch": 68, "duration": 6, "velocity": 51}, {"time": 3092, "pitch": 72, "duration": 4, "velocity": 84}, {"time": 3098, "pitch": 61, "duration": 5, "velocity": 79}, {"time": 3098, "pitch": 63, "duration": 7, "velocity": 30}, {"time": 3098, "pitch": 68, "duration": 3, "velocity": 67}, {"time": 3098, "pitch": 75, "duration": 8, "velocity": 81}, {"time": 3104, "pitch": 72, "duration": 10, "velocity": 79}, {"time": 3110, "pitch": 53, "duration": 17, "velocity": 82}, {"time": 3110, "pitch": 63, "duration": 7, "velocity": 74}, {"time": 3110, "pitch": 68, "duration": 8, "velocity": 82}, {"time": 3116, "pitch": 60, "duration": 9, "velocity": 75}, {"time": 3122, "pitch": 63, "duration": 5, "velocity": 68}, {"time": 3122, "pitch": 72, "duration": 6, "velocity": 80}, {"time": 3134, "pitch": 46, "duration": 17, "velocity": 73}, {"time": 3134, "pitch": 65, "duration": 4, "velocity": 74}, {"time": 3134, "pitch": 68, "duration": 4, "velocity": 80}, {"time": 3134, "pitch": 73, "duration": 4, "velocity": 82}, {"time": 3140, "pitch": 53, "duration": 11, "velocity": 68}, {"time": 3146, "pitch": 58, "duration": 3, "velocity": 59}, {"time": 3146, "pitch": 61, "duration": 5, "velocity": 76}, {"time": 3146, "pitch": 65, "duration": 4, "velocity": 73}, {"time": 3146, "pitch": 68, "duration": 6, "velocity": 76}, {"time": 3152, "pitch": 58, "duration": 6, "velocity": 55}, {"time": 3158, "pitch": 51, "duration": 16, "velocity": 78}, {"time": 3158, "pitch": 61, "duration": 8, "velocity": 57}, {"time": 3158, "pitch": 66, "duration": 8, "velocity": 75}, {"time": 3158, "pitch": 70, "duration": 7, "velocity": 73}, {"time": 3164, "pitch": 58, "duration": 11, "velocity": 76}, {"time": 3170, "pitch": 61, "duration": 6, "velocity": 76}, {"time": 3176, "pitch": 68, "duration": 5, "velocity": 79}, {"time": 3182, "pitch": 55, "duration": 17, "velocity": 73}, {"time": 3182, "pitch": 61, "duration": 6, "velocity": 73}, {"time": 3182, "pitch": 67, "duration": 6, "velocity": 78}, {"time": 3182, "pitch": 70, "duration": 7, "velocity": 76}, {"time": 3188, "pitch": 58, "duration": 10, "velocity": 72}, {"time": 3194, "pitch": 61, "duration": 5, "velocity": 78}, {"time": 3194, "pitch": 67, "duration": 4, "velocity": 62}, {"time": 3194, "pitch": 73, "duration": 5, "velocity": 90}, {"time": 3206, "pitch": 47, "duration": 33, "velocity": 81}, {"time": 3206, "pitch": 63, "duration": 13, "velocity": 73}, {"time": 3206, "pitch": 66, "duration": 14, "velocity": 80}, {"time": 3206, "pitch": 71, "duration": 12, "velocity": 80}, {"time": 3212, "pitch": 54, "duration": 27, "velocity": 72}, {"time": 3218, "pitch": 59, "duration": 13, "velocity": 59}, {"time": 3224, "pitch": 61, "duration": 8, "velocity": 79}, {"time": 3230, "pitch": 66, "duration": 8, "velocity": 81}, {"time": 3236, "pitch": 59, "duration": 2, "velocity": 46}, {"time": 3242, "pitch": 45, "duration": 6, "velocity": 95}, {"time": 3242, "pitch": 61, "duration": 6, "velocity": 79}, {"time": 3242, "pitch": 69, "duration": 5, "velocity": 72}, {"time": 3254, "pitch": 44, "duration": 36, "velocity": 84}, {"time": 3254, "pitch": 58, "duration": 6, "velocity": 73}, {"time": 3254, "pitch": 61, "duration": 6, "velocity": 83}, {"time": 3254, "pitch": 66, "duration": 7, "velocity": 83}, {"time": 3260, "pitch": 56, "duration": 29, "velocity": 61}, {"time": 3263, "pitch": 61, "duration": 3, "velocity": 72}, {"time": 3266, "pitch": 63, "duration": 1, "velocity": 80}, {"time": 3271, "pitch": 73, "duration": 4, "velocity": 42}, {"time": 3274, "pitch": 75, "duration": 2, "velocity": 76}, {"time": 3276, "pitch": 77, "duration": 1, "velocity": 76}, {"time": 3278, "pitch": 80, "duration": 2, "velocity": 69}, {"time": 3279, "pitch": 85, "duration": 3, "velocity": 71}, {"time": 3281, "pitch": 87, "duration": 3, "velocity": 75}, {"time": 3283, "pitch": 89, "duration": 1, "velocity": 75}, {"time": 3284, "pitch": 92, "duration": 1, "velocity": 80}, {"time": 3302, "pitch": 49, "duration": 11, "velocity": 79}, {"time": 3302, "pitch": 65, "duration": 7, "velocity": 68}, {"time": 3302, "pitch": 68, "duration": 6, "velocity": 73}, {"time": 3302, "pitch": 73, "duration": 6, "velocity": 76}, {"time": 3308, "pitch": 56, "duration": 7, "velocity": 68}, {"time": 3314, "pitch": 61, "duration": 7, "velocity": 58}, {"time": 3314, "pitch": 68, "duration": 4, "velocity": 69}, {"time": 3314, "pitch": 77, "duration": 6, "velocity": 78}, {"time": 3320, "pitch": 63, "duration": 7, "velocity": 58}, {"time": 3320, "pitch": 68, "duration": 4, "velocity": 60}, {"time": 3320, "pitch": 75, "duration": 7, "velocity": 76}, {"time": 3326, "pitch": 65, "duration": 8, "velocity": 72}, {"time": 3326, "pitch": 68, "duration": 5, "velocity": 69}, {"time": 3326, "pitch": 73, "duration": 5, "velocity": 80}, {"time": 3332, "pitch": 63, "duration": 11, "velocity": 69}, {"time": 3338, "pitch": 68, "duration": 6, "velocity": 75}, {"time": 3338, "pitch": 77, "duration": 5, "velocity": 81}, {"time": 3344, "pitch": 80, "duration": 6, "velocity": 69}, {"time": 3350, "pitch": 48, "duration": 6, "velocity": 75}, {"time": 3350, "pitch": 68, "duration": 14, "velocity": 69}, {"time": 3350, "pitch": 75, "duration": 18, "velocity": 80}, {"time": 3356, "pitch": 60, "duration": 7, "velocity": 62}, {"time": 3362, "pitch": 63, "duration": 36, "velocity": 72}, {"time": 3368, "pitch": 65, "duration": 13, "velocity": 76}, {"time": 3374, "pitch": 68, "duration": 14, "velocity": 44}, {"time": 3374, "pitch": 72, "duration": 7, "velocity": 80}, {"time": 3380, "pitch": 73, "duration": 7, "velocity": 80}, {"time": 3386, "pitch": 65, "duration": 12, "velocity": 71}, {"time": 3386, "pitch": 75, "duration": 6, "velocity": 79}, {"time": 3392, "pitch": 77, "duration": 7, "velocity": 80}, {"time": 3398, "pitch": 58, "duration": 30, "velocity": 78}, {"time": 3398, "pitch": 68, "duration": 7, "velocity": 67}, {"time": 3398, "pitch": 73, "duration": 6, "velocity": 82}, {"time": 3404, "pitch": 65, "duration": 8, "velocity": 75}, {"time": 3410, "pitch": 68, "duration": 6, "velocity": 54}, {"time": 3410, "pitch": 70, "duration": 6, "velocity": 75}, {"time": 3416, "pitch": 73, "duration": 4, "velocity": 79}, {"time": 3422, "pitch": 65, "duration": 8, "velocity": 74}, {"time": 3422, "pitch": 68, "duration": 7, "velocity": 73}, {"time": 3422, "pitch": 73, "duration": 7, "velocity": 52}, {"time": 3428, "pitch": 46, "duration": 12, "velocity": 60}, {"time": 3434, "pitch": 58, "duration": 9, "velocity": 50}, {"time": 3440, "pitch": 65, "duration": 3, "velocity": 71}, {"time": 3440, "pitch": 73, "duration": 5, "velocity": 81}, {"time": 3446, "pitch": 53, "duration": 41, "velocity": 69}, {"time": 3446, "pitch": 63, "duration": 10, "velocity": 71}, {"time": 3446, "pitch": 72, "duration": 10, "velocity": 81}, {"time": 3452, "pitch": 56, "duration": 25, "velocity": 71}, {"time": 3458, "pitch": 60, "duration": 8, "velocity": 68}, {"time": 3464, "pitch": 68, "duration": 6, "velocity": 68}, {"time": 3470, "pitch": 60, "duration": 12, "velocity": 58}, {"time": 3470, "pitch": 65, "duration": 6, "velocity": 73}, {"time": 3482, "pitch": 65, "duration": 7, "velocity": 58}, {"time": 3482, "pitch": 73, "duration": 4, "velocity": 68}, {"time": 3488, "pitch": 72, "duration": 2, "velocity": 75}, {"time": 3494, "pitch": 42, "duration": 6, "velocity": 75}, {"time": 3494, "pitch": 61, "duration": 11, "velocity": 58}, {"time": 3494, "pitch": 66, "duration": 9, "velocity": 77}, {"time": 3494, "pitch": 70, "duration": 13, "velocity": 75}, {"time": 3500, "pitch": 54, "duration": 7, "velocity": 59}, {"time": 3506, "pitch": 56, "duration": 2, "velocity": 71}, {"time": 3506, "pitch": 61, "duration": 3, "velocity": 34}, {"time": 3506, "pitch": 68, "duration": 5, "velocity": 78}, {"time": 3512, "pitch": 66, "duration": 5, "velocity": 78}, {"time": 3518, "pitch": 44, "duration": 11, "velocity": 53}, {"time": 3518, "pitch": 63, "duration": 6, "velocity": 69}, {"time": 3518, "pitch": 68, "duration": 6, "velocity": 72}, {"time": 3518, "pitch": 72, "duration": 5, "velocity": 80}, {"time": 3524, "pitch": 51, "duration": 6, "velocity": 57}, {"time": 3530, "pitch": 56, "duration": 6, "velocity": 61}, {"time": 3530, "pitch": 68, "duration": 5, "velocity": 75}, {"time": 3530, "pitch": 73, "duration": 5, "velocity": 79}, {"time": 3536, "pitch": 58, "duration": 6, "velocity": 61}, {"time": 3542, "pitch": 53, "duration": 17, "velocity": 72}, {"time": 3542, "pitch": 63, "duration": 5, "velocity": 78}, {"time": 3542, "pitch": 68, "duration": 7, "velocity": 80}, {"time": 3548, "pitch": 60, "duration": 11, "velocity": 68}, {"time": 3554, "pitch": 65, "duration": 3, "velocity": 63}, {"time": 3554, "pitch": 68, "duration": 7, "velocity": 75}, {"time": 3554, "pitch": 72, "duration": 5, "velocity": 80}, {"time": 3560, "pitch": 75, "duration": 2, "velocity": 79}, {"time": 3566, "pitch": 46, "duration": 18, "velocity": 72}, {"time": 3566, "pitch": 65, "duration": 5, "velocity": 72}, {"time": 3566, "pitch": 73, "duration": 5, "velocity": 82}, {"time": 3572, "pitch": 53, "duration": 7, "velocity": 69}, {"time": 3578, "pitch": 58, "duration": 5, "velocity": 53}, {"time": 3578, "pitch": 61, "duration": 5, "velocity": 71}, {"time": 3578, "pitch": 70, "duration": 5, "velocity": 76}, {"time": 3584, "pitch": 53, "duration": 1, "velocity": 78}, {"time": 3590, "pitch": 51, "duration": 44, "velocity": 73}, {"time": 3590, "pitch": 61, "duration": 5, "velocity": 75}, {"time": 3590, "pitch": 66, "duration": 8, "velocity": 77}, {"time": 3590, "pitch": 70, "duration": 7, "velocity": 73}, {"time": 3596, "pitch": 58, "duration": 7, "velocity": 54}, {"time": 3602, "pitch": 63, "duration": 7, "velocity": 54}, {"time": 3602, "pitch": 65, "duration": 6, "velocity": 75}, {"time": 3602, "pitch": 68, "duration": 13, "velocity": 76}, {"time": 3608, "pitch": 58, "duration": 7, "velocity": 54}, {"time": 3614, "pitch": 63, "duration": 5, "velocity": 70}, {"time": 3614, "pitch": 66, "duration": 5, "velocity": 77}, {"time": 3614, "pitch": 70, "duration": 6, "velocity": 78}, {"time": 3620, "pitch": 58, "duration": 8, "velocity": 60}, {"time": 3626, "pitch": 61, "duration": 7, "velocity": 74}, {"time": 3626, "pitch": 66, "duration": 6, "velocity": 78}, {"time": 3626, "pitch": 73, "duration": 7, "velocity": 83}, {"time": 3632, "pitch": 58, "duration": 1, "velocity": 72}, {"time": 3638, "pitch": 44, "duration": 18, "velocity": 82}, {"time": 3638, "pitch": 61, "duration": 6, "velocity": 76}, {"time": 3638, "pitch": 66, "duration": 6, "velocity": 80}, {"time": 3638, "pitch": 70, "duration": 6, "velocity": 75}, {"time": 3638, "pitch": 73, "duration": 6, "velocity": 73}, {"time": 3644, "pitch": 51, "duration": 6, "velocity": 71}, {"time": 3650, "pitch": 56, "duration": 7, "velocity": 55}, {"time": 3650, "pitch": 61, "duration": 3, "velocity": 79}, {"time": 3650, "pitch": 68, "duration": 4, "velocity": 76}, {"time": 3656, "pitch": 51, "duration": 6, "velocity": 80}, {"time": 3656, "pitch": 66, "duration": 3, "velocity": 80}, {"time": 3662, "pitch": 44, "duration": 12, "velocity": 79}, {"time": 3662, "pitch": 63, "duration": 2, "velocity": 83}, {"time": 3662, "pitch": 72, "duration": 2, "velocity": 94}, {"time": 3668, "pitch": 51, "duration": 6, "velocity": 75}, {"time": 3668, "pitch": 65, "duration": 2, "velocity": 82}, {"time": 3668, "pitch": 73, "duration": 2, "velocity": 82}, {"time": 3674, "pitch": 56, "duration": 6, "velocity": 68}, {"time": 3674, "pitch": 66, "duration": 1, "velocity": 82}, {"time": 3674, "pitch": 75, "duration": 2, "velocity": 86}, {"time": 3680, "pitch": 58, "duration": 2, "velocity": 78}, {"time": 3686, "pitch": 49, "duration": 42, "velocity": 90}, {"time": 3686, "pitch": 68, "duration": 5, "velocity": 76}, {"time": 3686, "pitch": 73, "duration": 5, "velocity": 83}, {"time": 3686, "pitch": 77, "duration": 5, "velocity": 81}, {"time": 3692, "pitch": 56, "duration": 6, "velocity": 76}, {"time": 3698, "pitch": 61, "duration": 14, "velocity": 52}, {"time": 3698, "pitch": 63, "duration": 6, "velocity": 62}, {"time": 3698, "pitch": 65, "duration": 5, "velocity": 34}, {"time": 3698, "pitch": 68, "duration": 6, "velocity": 72}, {"time": 3698, "pitch": 73, "duration": 6, "velocity": 59}, {"time": 3704, "pitch": 56, "duration": 19, "velocity": 56}, {"time": 3710, "pitch": 63, "duration": 6, "velocity": 69}, {"time": 3710, "pitch": 65, "duration": 6, "velocity": 71}, {"time": 3710, "pitch": 68, "duration": 6, "velocity": 78}, {"time": 3710, "pitch": 70, "duration": 4, "velocity": 60}, {"time": 3710, "pitch": 73, "duration": 7, "velocity": 71}, {"time": 3716, "pitch": 61, "duration": 9, "velocity": 52}, {"time": 3722, "pitch": 63, "duration": 6, "velocity": 76}, {"time": 3722, "pitch": 65, "duration": 6, "velocity": 75}, {"time": 3722, "pitch": 68, "duration": 6, "velocity": 80}, {"time": 3722, "pitch": 70, "duration": 5, "velocity": 72}, {"time": 3722, "pitch": 73, "duration": 4, "velocity": 70}, {"time": 3728, "pitch": 56, "duration": 7, "velocity": 73}, {"time": 3734, "pitch": 48, "duration": 40, "velocity": 80}, {"time": 3734, "pitch": 63, "duration": 6, "velocity": 78}, {"time": 3734, "pitch": 68, "duration": 6, "velocity": 76}, {"time": 3734, "pitch": 72, "duration": 6, "velocity": 76}, {"time": 3740, "pitch": 56, "duration": 10, "velocity": 69}, {"time": 3746, "pitch": 60, "duration": 13, "velocity": 47}, {"time": 3746, "pitch": 63, "duration": 4, "velocity": 71}, {"time": 3746, "pitch": 68, "duration": 4, "velocity": 72}, {"time": 3746, "pitch": 72, "duration": 3, "velocity": 63}, {"time": 3752, "pitch": 56, "duration": 18, "velocity": 68}, {"time": 3758, "pitch": 63, "duration": 5, "velocity": 72}, {"time": 3758, "pitch": 68, "duration": 6, "velocity": 73}, {"time": 3758, "pitch": 72, "duration": 5, "velocity": 76}, {"time": 3764, "pitch": 60, "duration": 10, "velocity": 57}, {"time": 3770, "pitch": 63, "duration": 5, "velocity": 73}, {"time": 3770, "pitch": 68, "duration": 1, "velocity": 55}, {"time": 3770, "pitch": 75, "duration": 4, "velocity": 84}, {"time": 3773, "pitch": 56, "duration": 4, "velocity": 78}, {"time": 3776, "pitch": 70, "duration": 4, "velocity": 75}, {"time": 3779, "pitch": 72, "duration": 3, "velocity": 83}, {"time": 3782, "pitch": 46, "duration": 43, "velocity": 73}, {"time": 3782, "pitch": 65, "duration": 6, "velocity": 73}, {"time": 3782, "pitch": 68, "duration": 6, "velocity": 76}, {"time": 3782, "pitch": 73, "duration": 6, "velocity": 83}, {"time": 3788, "pitch": 53, "duration": 9, "velocity": 76}, {"time": 3794, "pitch": 58, "duration": 11, "velocity": 51}, {"time": 3794, "pitch": 61, "duration": 5, "velocity": 75}, {"time": 3794, "pitch": 65, "duration": 5, "velocity": 75}, {"time": 3794, "pitch": 70, "duration": 6, "velocity": 79}, {"time": 3800, "pitch": 53, "duration": 13, "velocity": 59}, {"time": 3806, "pitch": 61, "duration": 3, "velocity": 78}, {"time": 3806, "pitch": 68, "duration": 4, "velocity": 82}, {"time": 3812, "pitch": 58, "duration": 6, "velocity": 17}, {"time": 3812, "pitch": 61, "duration": 1, "velocity": 81}, {"time": 3812, "pitch": 70, "duration": 2, "velocity": 79}, {"time": 3818, "pitch": 53, "duration": 4, "velocity": 76}, {"time": 3818, "pitch": 63, "duration": 1, "velocity": 57}, {"time": 3818, "pitch": 65, "duration": 1, "velocity": 54}, {"time": 3818, "pitch": 72, "duration": 2, "velocity": 78}, {"time": 3824, "pitch": 53, "duration": 6, "velocity": 79}, {"time": 3824, "pitch": 73, "duration": 4, "velocity": 90}, {"time": 3830, "pitch": 53, "duration": 16, "velocity": 79}, {"time": 3830, "pitch": 65, "duration": 6, "velocity": 73}, {"time": 3830, "pitch": 68, "duration": 6, "velocity": 79}, {"time": 3830, "pitch": 72, "duration": 6, "velocity": 80}, {"time": 3836, "pitch": 60, "duration": 11, "velocity": 78}, {"time": 3842, "pitch": 65, "duration": 7, "velocity": 76}, {"time": 3848, "pitch": 75, "duration": 2, "velocity": 84}, {"time": 3854, "pitch": 49, "duration": 18, "velocity": 76}, {"time": 3854, "pitch": 65, "duration": 7, "velocity": 72}, {"time": 3854, "pitch": 68, "duration": 7, "velocity": 75}, {"time": 3854, "pitch": 71, "duration": 7, "velocity": 86}, {"time": 3860, "pitch": 61, "duration": 8, "velocity": 73}, {"time": 3866, "pitch": 65, "duration": 4, "velocity": 76}, {"time": 3866, "pitch": 73, "duration": 4, "velocity": 84}, {"time": 3878, "pitch": 42, "duration": 6, "velocity": 78}, {"time": 3878, "pitch": 61, "duration": 7, "velocity": 75}, {"time": 3878, "pitch": 66, "duration": 7, "velocity": 47}, {"time": 3878, "pitch": 70, "duration": 7, "velocity": 55}, {"time": 3884, "pitch": 54, "duration": 7, "velocity": 68}, {"time": 3890, "pitch": 56, "duration": 7, "velocity": 69}, {"time": 3890, "pitch": 61, "duration": 5, "velocity": 72}, {"time": 3890, "pitch": 68, "duration": 6, "velocity": 78}, {"time": 3896, "pitch": 58, "duration": 1, "velocity": 75}, {"time": 3902, "pitch": 61, "duration": 8, "velocity": 58}, {"time": 3908, "pitch": 66, "duration": 5, "velocity": 80}, {"time": 3914, "pitch": 70, "duration": 7, "velocity": 80}, {"time": 3920, "pitch": 73, "duration": 6, "velocity": 84}, {"time": 3926, "pitch": 53, "duration": 41, "velocity": 80}, {"time": 3926, "pitch": 63, "duration": 6, "velocity": 78}, {"time": 3926, "pitch": 68, "duration": 7, "velocity": 71}, {"time": 3926, "pitch": 72, "duration": 8, "velocity": 84}, {"time": 3932, "pitch": 60, "duration": 10, "velocity": 61}, {"time": 3938, "pitch": 65, "duration": 8, "velocity": 71}, {"time": 3938, "pitch": 68, "duration": 1, "velocity": 80}, {"time": 3944, "pitch": 60, "duration": 7, "velocity": 68}, {"time": 3950, "pitch": 77, "duration": 2, "velocity": 79}, {"time": 3950, "pitch": 89, "duration": 2, "velocity": 84}, {"time": 3956, "pitch": 60, "duration": 10, "velocity": 68}, {"time": 3962, "pitch": 73, "duration": 2, "velocity": 83}, {"time": 3962, "pitch": 85, "duration": 1, "velocity": 83}, {"time": 3974, "pitch": 51, "duration": 16, "velocity": 82}, {"time": 3974, "pitch": 61, "duration": 6, "velocity": 77}, {"time": 3974, "pitch": 66, "duration": 6, "velocity": 82}, {"time": 3974, "pitch": 70, "duration": 7, "velocity": 73}, {"time": 3974, "pitch": 73, "duration": 6, "velocity": 73}, {"time": 3980, "pitch": 58, "duration": 11, "velocity": 79}, {"time": 3986, "pitch": 61, "duration": 5, "velocity": 84}, {"time": 3992, "pitch": 68, "duration": 4, "velocity": 78}, {"time": 3998, "pitch": 51, "duration": 19, "velocity": 80}, {"time": 3998, "pitch": 63, "duration": 7, "velocity": 79}, {"time": 3998, "pitch": 67, "duration": 6, "velocity": 79}, {"time": 3998, "pitch": 73, "duration": 8, "velocity": 84}, {"time": 4004, "pitch": 58, "duration": 13, "velocity": 61}, {"time": 4010, "pitch": 63, "duration": 4, "velocity": 75}, {"time": 4010, "pitch": 67, "duration": 3, "velocity": 71}, {"time": 4010, "pitch": 75, "duration": 4, "velocity": 82}, {"time": 4022, "pitch": 44, "duration": 12, "velocity": 82}, {"time": 4022, "pitch": 61, "duration": 5, "velocity": 80}, {"time": 4022, "pitch": 66, "duration": 5, "velocity": 79}, {"time": 4022, "pitch": 73, "duration": 5, "velocity": 84}, {"time": 4028, "pitch": 51, "duration": 6, "velocity": 76}, {"time": 4034, "pitch": 56, "duration": 7, "velocity": 70}, {"time": 4034, "pitch": 63, "duration": 1, "velocity": 73}, {"time": 4034, "pitch": 72, "duration": 2, "velocity": 91}, {"time": 4040, "pitch": 58, "duration": 9, "velocity": 72}, {"time": 4040, "pitch": 65, "duration": 1, "velocity": 83}, {"time": 4040, "pitch": 73, "duration": 2, "velocity": 86}, {"time": 4046, "pitch": 60, "duration": 6, "velocity": 82}, {"time": 4046, "pitch": 66, "duration": 2, "velocity": 84}, {"time": 4046, "pitch": 75, "duration": 2, "velocity": 91}, {"time": 4052, "pitch": 61, "duration": 7, "velocity": 78}, {"time": 4052, "pitch": 68, "duration": 1, "velocity": 80}, {"time": 4052, "pitch": 77, "duration": 2, "velocity": 86}, {"time": 4058, "pitch": 63, "duration": 7, "velocity": 83}, {"time": 4058, "pitch": 70, "duration": 2, "velocity": 80}, {"time": 4058, "pitch": 78, "duration": 2, "velocity": 86}, {"time": 4064, "pitch": 65, "duration": 1, "velocity": 90}, {"time": 4064, "pitch": 73, "duration": 1, "velocity": 76}, {"time": 4064, "pitch": 80, "duration": 1, "velocity": 78}, {"time": 4070, "pitch": 49, "duration": 42, "velocity": 91}, {"time": 4070, "pitch": 68, "duration": 5, "velocity": 75}, {"time": 4070, "pitch": 73, "duration": 5, "velocity": 84}, {"time": 4070, "pitch": 77, "duration": 5, "velocity": 82}, {"time": 4076, "pitch": 56, "duration": 8, "velocity": 78}, {"time": 4082, "pitch": 61, "duration": 12, "velocity": 53}, {"time": 4082, "pitch": 63, "duration": 6, "velocity": 78}, {"time": 4082, "pitch": 65, "duration": 6, "velocity": 73}, {"time": 4082, "pitch": 68, "duration": 6, "velocity": 74}, {"time": 4082, "pitch": 73, "duration": 6, "velocity": 76}, {"time": 4088, "pitch": 56, "duration": 21, "velocity": 75}, {"time": 4094, "pitch": 63, "duration": 6, "velocity": 82}, {"time": 4094, "pitch": 65, "duration": 6, "velocity": 82}, {"time": 4094, "pitch": 68, "duration": 5, "velocity": 82}, {"time": 4094, "pitch": 73, "duration": 6, "velocity": 82}, {"time": 4100, "pitch": 61, "duration": 7, "velocity": 71}, {"time": 4103, "pitch": 63, "duration": 2, "velocity": 81}, {"time": 4106, "pitch": 65, "duration": 4, "velocity": 84}, {"time": 4109, "pitch": 66, "duration": 2, "velocity": 81}, {"time": 4112, "pitch": 56, "duration": 4, "velocity": 73}, {"time": 4112, "pitch": 68, "duration": 3, "velocity": 82}, {"time": 4115, "pitch": 70, "duration": 4, "velocity": 81}, {"time": 4118, "pitch": 48, "duration": 9, "velocity": 83}, {"time": 4118, "pitch": 63, "duration": 5, "velocity": 79}, {"time": 4118, "pitch": 68, "duration": 6, "velocity": 82}, {"time": 4124, "pitch": 56, "duration": 6, "velocity": 71}, {"time": 4130, "pitch": 60, "duration": 7, "velocity": 75}, {"time": 4130, "pitch": 63, "duration": 5, "velocity": 77}, {"time": 4130, "pitch": 68, "duration": 6, "velocity": 79}, {"time": 4130, "pitch": 75, "duration": 5, "velocity": 83}, {"time": 4136, "pitch": 61, "duration": 2, "velocity": 83}, {"time": 4142, "pitch": 70, "duration": 3, "velocity": 78}, {"time": 4145, "pitch": 72, "duration": 3, "velocity": 83}, {"time": 4148, "pitch": 73, "duration": 2, "velocity": 84}, {"time": 4151, "pitch": 63, "duration": 4, "velocity": 47}, {"time": 4154, "pitch": 48, "duration": 13, "velocity": 79}, {"time": 4154, "pitch": 75, "duration": 3, "velocity": 86}, {"time": 4157, "pitch": 63, "duration": 3, "velocity": 60}, {"time": 4160, "pitch": 68, "duration": 3, "velocity": 75}, {"time": 4163, "pitch": 72, "duration": 3, "velocity": 82}, {"time": 4166, "pitch": 46, "duration": 28, "velocity": 83}, {"time": 4166, "pitch": 65, "duration": 6, "velocity": 76}, {"time": 4166, "pitch": 68, "duration": 5, "velocity": 71}, {"time": 4166, "pitch": 73, "duration": 5, "velocity": 84}, {"time": 4172, "pitch": 53, "duration": 7, "velocity": 79}, {"time": 4178, "pitch": 58, "duration": 6, "velocity": 50}, {"time": 4178, "pitch": 61, "duration": 5, "velocity": 79}, {"time": 4178, "pitch": 65, "duration": 5, "velocity": 75}, {"time": 4178, "pitch": 68, "duration": 5, "velocity": 78}, {"time": 4184, "pitch": 53, "duration": 19, "velocity": 79}, {"time": 4190, "pitch": 61, "duration": 6, "velocity": 82}, {"time": 4190, "pitch": 65, "duration": 7, "velocity": 79}, {"time": 4190, "pitch": 70, "duration": 8, "velocity": 84}, {"time": 4196, "pitch": 58, "duration": 9, "velocity": 58}, {"time": 4202, "pitch": 61, "duration": 6, "velocity": 84}, {"time": 4202, "pitch": 65, "duration": 6, "velocity": 84}, {"time": 4202, "pitch": 68, "duration": 6, "velocity": 84}, {"time": 4208, "pitch": 53, "duration": 7, "velocity": 83}, {"time": 4214, "pitch": 44, "duration": 19, "velocity": 79}, {"time": 4214, "pitch": 61, "duration": 6, "velocity": 79}, {"time": 4214, "pitch": 65, "duration": 6, "velocity": 78}, {"time": 4214, "pitch": 68, "duration": 6, "velocity": 80}, {"time": 4220, "pitch": 53, "duration": 7, "velocity": 79}, {"time": 4226, "pitch": 56, "duration": 4, "velocity": 71}, {"time": 4226, "pitch": 61, "duration": 8, "velocity": 82}, {"time": 4226, "pitch": 65, "duration": 5, "velocity": 79}, {"time": 4226, "pitch": 68, "duration": 5, "velocity": 82}, {"time": 4232, "pitch": 56, "duration": 6, "velocity": 72}, {"time": 4238, "pitch": 49, "duration": 11, "velocity": 79}, {"time": 4238, "pitch": 61, "duration": 5, "velocity": 75}, {"time": 4238, "pitch": 65, "duration": 5, "velocity": 78}, {"time": 4238, "pitch": 68, "duration": 4, "velocity": 60}, {"time": 4238, "pitch": 71, "duration": 5, "velocity": 86}, {"time": 4244, "pitch": 53, "duration": 6, "velocity": 83}, {"time": 4250, "pitch": 61, "duration": 6, "velocity": 82}, {"time": 4250, "pitch": 65, "duration": 6, "velocity": 81}, {"time": 4250, "pitch": 71, "duration": 5, "velocity": 83}, {"time": 4250, "pitch": 73, "duration": 6, "velocity": 86}, {"time": 4256, "pitch": 37, "duration": 2, "velocity": 84}, {"time": 4262, "pitch": 42, "duration": 10, "velocity": 84}, {"time": 4262, "pitch": 61, "duration": 6, "velocity": 80}, {"time": 4262, "pitch": 66, "duration": 6, "velocity": 84}, {"time": 4262, "pitch": 70, "duration": 6, "velocity": 82}, {"time": 4262, "pitch": 73, "duration": 6, "velocity": 41}, {"time": 4268, "pitch": 49, "duration": 6, "velocity": 76}, {"time": 4274, "pitch": 54, "duration": 7, "velocity": 61}, {"time": 4274, "pitch": 61, "duration": 6, "velocity": 78}, {"time": 4274, "pitch": 66, "duration": 7, "velocity": 86}, {"time": 4280, "pitch": 56, "duration": 21, "velocity": 78}, {"time": 4286, "pitch": 61, "duration": 2, "velocity": 86}, {"time": 4286, "pitch": 73, "duration": 3, "velocity": 90}, {"time": 4292, "pitch": 63, "duration": 4, "velocity": 58}, {"time": 4292, "pitch": 72, "duration": 3, "velocity": 84}, {"time": 4298, "pitch": 58, "duration": 6, "velocity": 68}, {"time": 4298, "pitch": 65, "duration": 3, "velocity": 78}, {"time": 4298, "pitch": 73, "duration": 3, "velocity": 90}, {"time": 4304, "pitch": 66, "duration": 2, "velocity": 68}, {"time": 4304, "pitch": 75, "duration": 2, "velocity": 84}, {"time": 4310, "pitch": 41, "duration": 18, "velocity": 82}, {"time": 4310, "pitch": 63, "duration": 7, "velocity": 78}, {"time": 4310, "pitch": 68, "duration": 7, "velocity": 77}, {"time": 4310, "pitch": 72, "duration": 6, "velocity": 79}, {"time": 4316, "pitch": 53, "duration": 10, "velocity": 70}, {"time": 4322, "pitch": 70, "duration": 5, "velocity": 81}, {"time": 4328, "pitch": 53, "duration": 24, "velocity": 68}, {"time": 4328, "pitch": 72, "duration": 5, "velocity": 84}, {"time": 4334, "pitch": 65, "duration": 8, "velocity": 75}, {"time": 4334, "pitch": 68, "duration": 9, "velocity": 83}, {"time": 4334, "pitch": 73, "duration": 8, "velocity": 86}, {"time": 4346, "pitch": 65, "duration": 2, "velocity": 81}, {"time": 4346, "pitch": 72, "duration": 2, "velocity": 86}, {"time": 4352, "pitch": 61, "duration": 4, "velocity": 76}, {"time": 4352, "pitch": 68, "duration": 5, "velocity": 74}, {"time": 4358, "pitch": 51, "duration": 27, "velocity": 80}, {"time": 4358, "pitch": 61, "duration": 7, "velocity": 84}, {"time": 4358, "pitch": 66, "duration": 6, "velocity": 83}, {"time": 4358, "pitch": 70, "duration": 7, "velocity": 81}, {"time": 4364, "pitch": 58, "duration": 22, "velocity": 73}, {"time": 4370, "pitch": 61, "duration": 7, "velocity": 90}, {"time": 4376, "pitch": 66, "duration": 6, "velocity": 76}, {"time": 4382, "pitch": 55, "duration": 16, "velocity": 84}, {"time": 4382, "pitch": 66, "duration": 2, "velocity": 56}, {"time": 4382, "pitch": 70, "duration": 5, "velocity": 79}, {"time": 4388, "pitch": 67, "duration": 6, "velocity": 81}, {"time": 4394, "pitch": 61, "duration": 10, "velocity": 95}, {"time": 4394, "pitch": 73, "duration": 2, "velocity": 57}, {"time": 4400, "pitch": 73, "duration": 4, "velocity": 83}, {"time": 4406, "pitch": 44, "duration": 41, "velocity": 82}, {"time": 4406, "pitch": 61, "duration": 8, "velocity": 83}, {"time": 4406, "pitch": 66, "duration": 7, "velocity": 84}, {"time": 4406, "pitch": 70, "duration": 8, "velocity": 83}, {"time": 4406, "pitch": 73, "duration": 8, "velocity": 79}, {"time": 4412, "pitch": 51, "duration": 36, "velocity": 78}, {"time": 4415, "pitch": 56, "duration": 19, "velocity": 76}, {"time": 4418, "pitch": 61, "duration": 3, "velocity": 79}, {"time": 4421, "pitch": 66, "duration": 3, "velocity": 80}, {"time": 4424, "pitch": 68, "duration": 2, "velocity": 75}, {"time": 4427, "pitch": 70, "duration": 4, "velocity": 79}, {"time": 4430, "pitch": 73, "duration": 6, "velocity": 83}, {"time": 4442, "pitch": 56, "duration": 9, "velocity": 62}, {"time": 4442, "pitch": 70, "duration": 2, "velocity": 75}, {"time": 4442, "pitch": 78, "duration": 6, "velocity": 84}, {"time": 4454, "pitch": 61, "duration": 43, "velocity": 62}, {"time": 4454, "pitch": 80, "duration": 14, "velocity": 63}, {"time": 4460, "pitch": 65, "duration": 7, "velocity": 55}, {"time": 4466, "pitch": 75, "duration": 6, "velocity": 76}, {"time": 4472, "pitch": 65, "duration": 8, "velocity": 50}, {"time": 4478, "pitch": 80, "duration": 13, "velocity": 61}, {"time": 4490, "pitch": 65, "duration": 4, "velocity": 69}, {"time": 4493, "pitch": 68, "duration": 3, "velocity": 63}, {"time": 4496, "pitch": 75, "duration": 3, "velocity": 82}, {"time": 4499, "pitch": 80, "duration": 13, "velocity": 76}, {"time": 4502, "pitch": 60, "duration": 46, "velocity": 82}, {"time": 4502, "pitch": 68, "duration": 7, "velocity": 67}, {"time": 4502, "pitch": 75, "duration": 8, "velocity": 83}, {"time": 4520, "pitch": 73, "duration": 7, "velocity": 78}, {"time": 4526, "pitch": 80, "duration": 11, "velocity": 75}, {"time": 4532, "pitch": 68, "duration": 6, "velocity": 48}, {"time": 4538, "pitch": 75, "duration": 7, "velocity": 78}, {"time": 4544, "pitch": 80, "duration": 9, "velocity": 73}, {"time": 4550, "pitch": 58, "duration": 43, "velocity": 71}, {"time": 4550, "pitch": 68, "duration": 7, "velocity": 41}, {"time": 4550, "pitch": 73, "duration": 7, "velocity": 83}, {"time": 4556, "pitch": 65, "duration": 11, "velocity": 63}, {"time": 4562, "pitch": 68, "duration": 7, "velocity": 62}, {"time": 4568, "pitch": 73, "duration": 3, "velocity": 86}, {"time": 4580, "pitch": 65, "duration": 14, "velocity": 53}, {"time": 4580, "pitch": 77, "duration": 3, "velocity": 72}, {"time": 4580, "pitch": 85, "duration": 5, "velocity": 82}, {"time": 4586, "pitch": 70, "duration": 4, "velocity": 72}, {"time": 4586, "pitch": 75, "duration": 3, "velocity": 79}, {"time": 4586, "pitch": 84, "duration": 2, "velocity": 86}, {"time": 4598, "pitch": 56, "duration": 38, "velocity": 71}, {"time": 4598, "pitch": 72, "duration": 2, "velocity": 59}, {"time": 4598, "pitch": 80, "duration": 15, "velocity": 77}, {"time": 4604, "pitch": 65, "duration": 14, "velocity": 60}, {"time": 4610, "pitch": 68, "duration": 8, "velocity": 67}, {"time": 4616, "pitch": 72, "duration": 7, "velocity": 80}, {"time": 4622, "pitch": 65, "duration": 9, "velocity": 68}, {"time": 4622, "pitch": 73, "duration": 6, "velocity": 80}, {"time": 4628, "pitch": 75, "duration": 6, "velocity": 79}, {"time": 4634, "pitch": 77, "duration": 5, "velocity": 75}, {"time": 4640, "pitch": 73, "duration": 5, "velocity": 82}, {"time": 4646, "pitch": 54, "duration": 42, "velocity": 76}, {"time": 4646, "pitch": 68, "duration": 3, "velocity": 43}, {"time": 4646, "pitch": 70, "duration": 12, "velocity": 71}, {"time": 4652, "pitch": 61, "duration": 13, "velocity": 76}, {"time": 4658, "pitch": 66, "duration": 6, "velocity": 78}, {"time": 4664, "pitch": 68, "duration": 6, "velocity": 72}, {"time": 4667, "pitch": 70, "duration": 4, "velocity": 76}, {"time": 4670, "pitch": 61, "duration": 12, "velocity": 77}, {"time": 4670, "pitch": 73, "duration": 13, "velocity": 83}, {"time": 4682, "pitch": 49, "duration": 13, "velocity": 68}, {"time": 4685, "pitch": 61, "duration": 4, "velocity": 73}, {"time": 4688, "pitch": 68, "duration": 3, "velocity": 76}, {"time": 4691, "pitch": 73, "duration": 13, "velocity": 81}, {"time": 4694, "pitch": 41, "duration": 4, "velocity": 63}, {"time": 4694, "pitch": 61, "duration": 7, "velocity": 72}, {"time": 4694, "pitch": 68, "duration": 9, "velocity": 78}, {"time": 4706, "pitch": 53, "duration": 10, "velocity": 42}, {"time": 4712, "pitch": 61, "duration": 5, "velocity": 75}, {"time": 4718, "pitch": 61, "duration": 2, "velocity": 37}, {"time": 4718, "pitch": 68, "duration": 6, "velocity": 84}, {"time": 4724, "pitch": 61, "duration": 7, "velocity": 73}, {"time": 4730, "pitch": 63, "duration": 6, "velocity": 82}, {"time": 4736, "pitch": 66, "duration": 6, "velocity": 75}, {"time": 4742, "pitch": 51, "duration": 19, "velocity": 74}, {"time": 4742, "pitch": 61, "duration": 7, "velocity": 82}, {"time": 4742, "pitch": 68, "duration": 6, "velocity": 82}, {"time": 4748, "pitch": 58, "duration": 7, "velocity": 38}, {"time": 4754, "pitch": 61, "duration": 6, "velocity": 63}, {"time": 4754, "pitch": 66, "duration": 6, "velocity": 77}, {"time": 4754, "pitch": 70, "duration": 5, "velocity": 79}, {"time": 4760, "pitch": 58, "duration": 7, "velocity": 58}, {"time": 4766, "pitch": 51, "duration": 18, "velocity": 83}, {"time": 4766, "pitch": 61, "duration": 9, "velocity": 83}, {"time": 4766, "pitch": 67, "duration": 8, "velocity": 82}, {"time": 4766, "pitch": 70, "duration": 7, "velocity": 83}, {"time": 4772, "pitch": 58, "duration": 11, "velocity": 63}, {"time": 4778, "pitch": 61, "duration": 7, "velocity": 82}, {"time": 4784, "pitch": 66, "duration": 1, "velocity": 82}, {"time": 4790, "pitch": 44, "duration": 20, "velocity": 84}, {"time": 4790, "pitch": 58, "duration": 9, "velocity": 80}, {"time": 4790, "pitch": 61, "duration": 6, "velocity": 90}, {"time": 4790, "pitch": 66, "duration": 6, "velocity": 86}, {"time": 4796, "pitch": 51, "duration": 17, "velocity": 84}, {"time": 4799, "pitch": 56, "duration": 13, "velocity": 93}, {"time": 4802, "pitch": 58, "duration": 3, "velocity": 90}, {"time": 4805, "pitch": 60, "duration": 4, "velocity": 71}, {"time": 4808, "pitch": 61, "duration": 2, "velocity": 95}, {"time": 4811, "pitch": 63, "duration": 4, "velocity": 84}, {"time": 4814, "pitch": 44, "duration": 14, "velocity": 84}, {"time": 4814, "pitch": 65, "duration": 3, "velocity": 83}, {"time": 4817, "pitch": 66, "duration": 2, "velocity": 93}, {"time": 4820, "pitch": 68, "duration": 4, "velocity": 84}, {"time": 4823, "pitch": 70, "duration": 4, "velocity": 80}, {"time": 4826, "pitch": 56, "duration": 3, "velocity": 84}, {"time": 4826, "pitch": 72, "duration": 4, "velocity": 90}, {"time": 4829, "pitch": 73, "duration": 3, "velocity": 80}, {"time": 4838, "pitch": 49, "duration": 14, "velocity": 98}, {"time": 4838, "pitch": 65, "duration": 8, "velocity": 84}, {"time": 4838, "pitch": 68, "duration": 6, "velocity": 86}, {"time": 4838, "pitch": 73, "duration": 6, "velocity": 93}, {"time": 4844, "pitch": 56, "duration": 6, "velocity": 52}, {"time": 4850, "pitch": 61, "duration": 2, "velocity": 83}, {"time": 4850, "pitch": 65, "duration": 3, "velocity": 80}, {"time": 4856, "pitch": 49, "duration": 2, "velocity": 96}, {"time": 4856, "pitch": 61, "duration": 1, "velocity": 84}, {"time": 4856, "pitch": 65, "duration": 1, "velocity": 84}, {"time": 4856, "pitch": 68, "duration": 1, "velocity": 81}, {"time": 4856, "pitch": 73, "duration": 2, "velocity": 90}, {"time": 4862, "pitch": 47, "duration": 14, "velocity": 95}, {"time": 4862, "pitch": 59, "duration": 4, "velocity": 82}, {"time": 4862, "pitch": 63, "duration": 8, "velocity": 83}, {"time": 4862, "pitch": 66, "duration": 8, "velocity": 86}, {"time": 4862, "pitch": 71, "duration": 7, "velocity": 86}, {"time": 4874, "pitch": 63, "duration": 5, "velocity": 86}, {"time": 4874, "pitch": 66, "duration": 5, "velocity": 90}, {"time": 4874, "pitch": 71, "duration": 5, "velocity": 91}, {"time": 4880, "pitch": 47, "duration": 2, "velocity": 86}, {"time": 4880, "pitch": 59, "duration": 1, "velocity": 56}, {"time": 4886, "pitch": 44, "duration": 19, "velocity": 86}, {"time": 4886, "pitch": 56, "duration": 6, "velocity": 79}, {"time": 4886, "pitch": 63, "duration": 9, "velocity": 84}, {"time": 4886, "pitch": 68, "duration": 9, "velocity": 84}, {"time": 4886, "pitch": 72, "duration": 9, "velocity": 91}, {"time": 4898, "pitch": 56, "duration": 4, "velocity": 73}, {"time": 4904, "pitch": 56, "duration": 2, "velocity": 81}, {"time": 4904, "pitch": 63, "duration": 2, "velocity": 82}, {"time": 4904, "pitch": 68, "duration": 1, "velocity": 62}, {"time": 4904, "pitch": 72, "duration": 4, "velocity": 96}, {"time": 4910, "pitch": 45, "duration": 17, "velocity": 90}, {"time": 4910, "pitch": 57, "duration": 3, "velocity": 84}, {"time": 4910, "pitch": 60, "duration": 7, "velocity": 83}, {"time": 4910, "pitch": 65, "duration": 10, "velocity": 75}, {"time": 4910, "pitch": 69, "duration": 7, "velocity": 82}, {"time": 4919, "pitch": 57, "duration": 3, "velocity": 81}, {"time": 4922, "pitch": 60, "duration": 4, "velocity": 90}, {"time": 4922, "pitch": 69, "duration": 5, "velocity": 83}, {"time": 4925, "pitch": 57, "duration": 3, "velocity": 91}, {"time": 4928, "pitch": 65, "duration": 5, "velocity": 84}, {"time": 4931, "pitch": 68, "duration": 2, "velocity": 75}, {"time": 4934, "pitch": 46, "duration": 23, "velocity": 90}, {"time": 4934, "pitch": 61, "duration": 4, "velocity": 86}, {"time": 4934, "pitch": 65, "duration": 4, "velocity": 86}, {"time": 4934, "pitch": 70, "duration": 5, "velocity": 90}, {"time": 4940, "pitch": 53, "duration": 15, "velocity": 80}, {"time": 4943, "pitch": 65, "duration": 3, "velocity": 78}, {"time": 4943, "pitch": 73, "duration": 6, "velocity": 96}, {"time": 4946, "pitch": 58, "duration": 5, "velocity": 72}, {"time": 4952, "pitch": 58, "duration": 4, "velocity": 63}, {"time": 4952, "pitch": 63, "duration": 2, "velocity": 83}, {"time": 4952, "pitch": 72, "duration": 4, "velocity": 93}, {"time": 4955, "pitch": 53, "duration": 1, "velocity": 31}, {"time": 4958, "pitch": 46, "duration": 17, "velocity": 83}, {"time": 4958, "pitch": 65, "duration": 9, "velocity": 86}, {"time": 4958, "pitch": 73, "duration": 9, "velocity": 90}, {"time": 4964, "pitch": 53, "duration": 14, "velocity": 84}, {"time": 4967, "pitch": 58, "duration": 9, "velocity": 90}, {"time": 4970, "pitch": 65, "duration": 2, "velocity": 93}, {"time": 4973, "pitch": 70, "duration": 2, "velocity": 83}, {"time": 4976, "pitch": 72, "duration": 3, "velocity": 84}, {"time": 4979, "pitch": 73, "duration": 3, "velocity": 99}, {"time": 4982, "pitch": 44, "duration": 7, "velocity": 83}, {"time": 4982, "pitch": 63, "duration": 11, "velocity": 84}, {"time": 4982, "pitch": 68, "duration": 13, "velocity": 84}, {"time": 4982, "pitch": 72, "duration": 7, "velocity": 91}, {"time": 4988, "pitch": 53, "duration": 3, "velocity": 80}, {"time": 4991, "pitch": 56, "duration": 4, "velocity": 75}, {"time": 4994, "pitch": 58, "duration": 4, "velocity": 76}, {"time": 4997, "pitch": 60, "duration": 12, "velocity": 84}, {"time": 5000, "pitch": 63, "duration": 4, "velocity": 84}, {"time": 5003, "pitch": 68, "duration": 2, "velocity": 77}, {"time": 5006, "pitch": 63, "duration": 4, "velocity": 83}, {"time": 5006, "pitch": 72, "duration": 6, "velocity": 98}, {"time": 5012, "pitch": 60, "duration": 4, "velocity": 80}, {"time": 5012, "pitch": 65, "duration": 3, "velocity": 82}, {"time": 5012, "pitch": 73, "duration": 4, "velocity": 90}, {"time": 5018, "pitch": 60, "duration": 2, "velocity": 86}, {"time": 5018, "pitch": 63, "duration": 3, "velocity": 84}, {"time": 5018, "pitch": 72, "duration": 2, "velocity": 93}, {"time": 5024, "pitch": 68, "duration": 2, "velocity": 90}, {"time": 5027, "pitch": 68, "duration": 1, "velocity": 56}, {"time": 5030, "pitch": 42, "duration": 6, "velocity": 84}, {"time": 5030, "pitch": 61, "duration": 11, "velocity": 90}, {"time": 5030, "pitch": 68, "duration": 2, "velocity": 98}, {"time": 5032, "pitch": 70, "duration": 16, "velocity": 84}, {"time": 5036, "pitch": 54, "duration": 6, "velocity": 58}, {"time": 5042, "pitch": 58, "duration": 29, "velocity": 82}, {"time": 5048, "pitch": 61, "duration": 5, "velocity": 91}, {"time": 5054, "pitch": 66, "duration": 6, "velocity": 98}, {"time": 5060, "pitch": 61, "duration": 10, "velocity": 84}, {"time": 5063, "pitch": 66, "duration": 3, "velocity": 86}, {"time": 5066, "pitch": 70, "duration": 3, "velocity": 86}, {"time": 5069, "pitch": 73, "duration": 4, "velocity": 90}, {"time": 5072, "pitch": 72, "duration": 4, "velocity": 90}, {"time": 5075, "pitch": 70, "duration": 2, "velocity": 72}, {"time": 5078, "pitch": 45, "duration": 36, "velocity": 109}, {"time": 5078, "pitch": 57, "duration": 35, "velocity": 81}, {"time": 5078, "pitch": 61, "duration": 9, "velocity": 83}, {"time": 5078, "pitch": 64, "duration": 9, "velocity": 95}, {"time": 5078, "pitch": 69, "duration": 11, "velocity": 90}, {"time": 5100, "pitch": 73, "duration": 14, "velocity": 72}, {"time": 5101, "pitch": 76, "duration": 13, "velocity": 81}, {"time": 5103, "pitch": 81, "duration": 11, "velocity": 71}, {"time": 5126, "pitch": 51, "duration": 35, "velocity": 68}, {"time": 5126, "pitch": 61, "duration": 13, "velocity": 71}, {"time": 5126, "pitch": 66, "duration": 12, "velocity": 76}, {"time": 5126, "pitch": 70, "duration": 13, "velocity": 78}, {"time": 5138, "pitch": 58, "duration": 24, "velocity": 54}, {"time": 5144, "pitch": 61, "duration": 17, "velocity": 60}, {"time": 5150, "pitch": 73, "duration": 11, "velocity": 72}, {"time": 5174, "pitch": 44, "duration": 41, "velocity": 59}, {"time": 5174, "pitch": 58, "duration": 44, "velocity": 48}, {"time": 5174, "pitch": 61, "duration": 42, "velocity": 73}, {"time": 5174, "pitch": 66, "duration": 42, "velocity": 58}, {"time": 5219, "pitch": 49, "duration": 42, "velocity": 60}, {"time": 5219, "pitch": 56, "duration": 41, "velocity": 63}, {"time": 5219, "pitch": 63, "duration": 12, "velocity": 59}, {"time": 5219, "pitch": 68, "duration": 13, "velocity": 72}, {"time": 5231, "pitch": 61, "duration": 10, "velocity": 22}, {"time": 5237, "pitch": 63, "duration": 12, "velocity": 37}, {"time": 5237, "pitch": 68, "duration": 13, "velocity": 68}, {"time": 5249, "pitch": 61, "duration": 10, "velocity": 39}, {"time": 5255, "pitch": 63, "duration": 6, "velocity": 54}, {"time": 5261, "pitch": 68, "duration": 4, "velocity": 53}, {"time": 5269, "pitch": 61, "duration": 33, "velocity": 69}, {"time": 5269, "pitch": 56, "duration": 35, "velocity": 62}, {"time": 5269, "pitch": 66, "duration": 32, "velocity": 80}, {"time": 5270, "pitch": 70, "duration": 33, "velocity": 73}, {"time": 5270, "pitch": 73, "duration": 33, "velocity": 75}, {"time": 5318, "pitch": 49, "duration": 83, "velocity": 73}, {"time": 5318, "pitch": 65, "duration": 19, "velocity": 63}, {"time": 5318, "pitch": 68, "duration": 20, "velocity": 73}, {"time": 5318, "pitch": 73, "duration": 21, "velocity": 79}, {"time": 5342, "pitch": 66, "duration": 14, "velocity": 71}, {"time": 5342, "pitch": 70, "duration": 14, "velocity": 69}, {"time": 5342, "pitch": 73, "duration": 16, "velocity": 54}, {"time": 5363, "pitch": 85, "duration": 5, "velocity": 53}, {"time": 5363, "pitch": 89, "duration": 6, "velocity": 62}, {"time": 5364, "pitch": 92, "duration": 3, "velocity": 62}, {"time": 5366, "pitch": 97, "duration": 3, "velocity": 61}, {"time": 5414, "pitch": 61, "duration": 42, "velocity": 60}, {"time": 5414, "pitch": 68, "duration": 11, "velocity": 56}, {"time": 5414, "pitch": 73, "duration": 13, "velocity": 72}, {"time": 5414, "pitch": 77, "duration": 15, "velocity": 71}, {"time": 5432, "pitch": 68, "duration": 15, "velocity": 56}, {"time": 5438, "pitch": 80, "duration": 11, "velocity": 57}, {"time": 5450, "pitch": 68, "duration": 6, "velocity": 50}, {"time": 5456, "pitch": 77, "duration": 6, "velocity": 73}, {"time": 5462, "pitch": 60, "duration": 38, "velocity": 78}, {"time": 5462, "pitch": 75, "duration": 5, "velocity": 80}, {"time": 5468, "pitch": 68, "duration": 31, "velocity": 42}, {"time": 5474, "pitch": 80, "duration": 9, "velocity": 57}, {"time": 5480, "pitch": 72, "duration": 12, "velocity": 48}, {"time": 5486, "pitch": 75, "duration": 6, "velocity": 57}, {"time": 5486, "pitch": 84, "duration": 5, "velocity": 71}, {"time": 5504, "pitch": 73, "duration": 3, "velocity": 48}, {"time": 5507, "pitch": 75, "duration": 4, "velocity": 69}, {"time": 5510, "pitch": 58, "duration": 41, "velocity": 61}, {"time": 5510, "pitch": 68, "duration": 5, "velocity": 59}, {"time": 5510, "pitch": 73, "duration": 12, "velocity": 76}, {"time": 5516, "pitch": 65, "duration": 13, "velocity": 62}, {"time": 5522, "pitch": 70, "duration": 8, "velocity": 60}, {"time": 5528, "pitch": 77, "duration": 7, "velocity": 53}, {"time": 5534, "pitch": 75, "duration": 11, "velocity": 69}, {"time": 5546, "pitch": 65, "duration": 4, "velocity": 57}, {"time": 5546, "pitch": 68, "duration": 4, "velocity": 43}, {"time": 5546, "pitch": 73, "duration": 3, "velocity": 74}, {"time": 5558, "pitch": 53, "duration": 42, "velocity": 67}, {"time": 5558, "pitch": 63, "duration": 5, "velocity": 63}, {"time": 5558, "pitch": 68, "duration": 11, "velocity": 59}, {"time": 5558, "pitch": 72, "duration": 8, "velocity": 71}, {"time": 5564, "pitch": 60, "duration": 9, "velocity": 46}, {"time": 5570, "pitch": 65, "duration": 6, "velocity": 58}, {"time": 5576, "pitch": 75, "duration": 8, "velocity": 72}, {"time": 5582, "pitch": 60, "duration": 16, "velocity": 59}, {"time": 5582, "pitch": 63, "duration": 7, "velocity": 52}, {"time": 5582, "pitch": 72, "duration": 8, "velocity": 72}, {"time": 5594, "pitch": 63, "duration": 4, "velocity": 62}, {"time": 5594, "pitch": 68, "duration": 4, "velocity": 73}, {"time": 5600, "pitch": 66, "duration": 5, "velocity": 75}, {"time": 5606, "pitch": 54, "duration": 18, "velocity": 68}, {"time": 5606, "pitch": 61, "duration": 5, "velocity": 68}, {"time": 5606, "pitch": 68, "duration": 2, "velocity": 68}, {"time": 5606, "pitch": 70, "duration": 8, "velocity": 78}, {"time": 5612, "pitch": 61, "duration": 12, "velocity": 59}, {"time": 5618, "pitch": 66, "duration": 6, "velocity": 67}, {"time": 5624, "pitch": 73, "duration": 5, "velocity": 80}, {"time": 5630, "pitch": 56, "duration": 18, "velocity": 72}, {"time": 5630, "pitch": 68, "duration": 5, "velocity": 57}, {"time": 5630, "pitch": 72, "duration": 8, "velocity": 75}, {"time": 5636, "pitch": 63, "duration": 11, "velocity": 52}, {"time": 5642, "pitch": 68, "duration": 3, "velocity": 54}, {"time": 5642, "pitch": 72, "duration": 7, "velocity": 62}, {"time": 5642, "pitch": 75, "duration": 6, "velocity": 73}, {"time": 5654, "pitch": 53, "duration": 16, "velocity": 70}, {"time": 5654, "pitch": 63, "duration": 7, "velocity": 54}, {"time": 5654, "pitch": 72, "duration": 6, "velocity": 79}, {"time": 5660, "pitch": 60, "duration": 9, "velocity": 74}, {"time": 5666, "pitch": 68, "duration": 6, "velocity": 78}, {"time": 5672, "pitch": 72, "duration": 5, "velocity": 75}, {"time": 5675, "pitch": 65, "duration": 7, "velocity": 52}, {"time": 5678, "pitch": 46, "duration": 17, "velocity": 53}, {"time": 5678, "pitch": 68, "duration": 6, "velocity": 68}, {"time": 5678, "pitch": 73, "duration": 5, "velocity": 73}, {"time": 5684, "pitch": 53, "duration": 12, "velocity": 63}, {"time": 5690, "pitch": 58, "duration": 7, "velocity": 59}, {"time": 5690, "pitch": 61, "duration": 7, "velocity": 61}, {"time": 5690, "pitch": 68, "duration": 5, "velocity": 47}, {"time": 5696, "pitch": 65, "duration": 3, "velocity": 75}, {"time": 5702, "pitch": 61, "duration": 7, "velocity": 69}, {"time": 5702, "pitch": 66, "duration": 7, "velocity": 78}, {"time": 5703, "pitch": 51, "duration": 37, "velocity": 76}, {"time": 5708, "pitch": 58, "duration": 19, "velocity": 62}, {"time": 5714, "pitch": 61, "duration": 4, "velocity": 76}, {"time": 5720, "pitch": 70, "duration": 5, "velocity": 75}, {"time": 5726, "pitch": 63, "duration": 9, "velocity": 59}, {"time": 5726, "pitch": 66, "duration": 2, "velocity": 76}, {"time": 5726, "pitch": 73, "duration": 2, "velocity": 79}, {"time": 5733, "pitch": 58, "duration": 11, "velocity": 39}, {"time": 5738, "pitch": 70, "duration": 2, "velocity": 63}, {"time": 5738, "pitch": 78, "duration": 9, "velocity": 82}, {"time": 5739, "pitch": 63, "duration": 3, "velocity": 57}, {"time": 5744, "pitch": 68, "duration": 4, "velocity": 57}, {"time": 5744, "pitch": 77, "duration": 6, "velocity": 73}, {"time": 5750, "pitch": 70, "duration": 6, "velocity": 75}, {"time": 5750, "pitch": 66, "duration": 5, "velocity": 80}, {"time": 5750, "pitch": 56, "duration": 40, "velocity": 73}, {"time": 5750, "pitch": 61, "duration": 6, "velocity": 75}, {"time": 5750, "pitch": 73, "duration": 6, "velocity": 58}, {"time": 5764, "pitch": 70, "duration": 4, "velocity": 61}, {"time": 5764, "pitch": 73, "duration": 4, "velocity": 79}, {"time": 5764, "pitch": 78, "duration": 4, "velocity": 78}, {"time": 5776, "pitch": 72, "duration": 5, "velocity": 72}, {"time": 5776, "pitch": 80, "duration": 4, "velocity": 73}, {"time": 5776, "pitch": 75, "duration": 4, "velocity": 82}, {"time": 5785, "pitch": 70, "duration": 5, "velocity": 57}, {"time": 5785, "pitch": 78, "duration": 5, "velocity": 71}, {"time": 5785, "pitch": 73, "duration": 4, "velocity": 74}, {"time": 5799, "pitch": 77, "duration": 7, "velocity": 69}, {"time": 5799, "pitch": 49, "duration": 6, "velocity": 69}, {"time": 5802, "pitch": 56, "duration": 3, "velocity": 50}, {"time": 5806, "pitch": 75, "duration": 7, "velocity": 73}, {"time": 5806, "pitch": 61, "duration": 4, "velocity": 47}, {"time": 5809, "pitch": 63, "duration": 16, "velocity": 61}, {"time": 5813, "pitch": 73, "duration": 6, "velocity": 73}, {"time": 5813, "pitch": 65, "duration": 9, "velocity": 63}, {"time": 5819, "pitch": 68, "duration": 4, "velocity": 61}, {"time": 5823, "pitch": 66, "duration": 2, "velocity": 72}, {"time": 5828, "pitch": 63, "duration": 1, "velocity": 72}, {"time": 5838, "pitch": 51, "duration": 2, "velocity": 63}, {"time": 5838, "pitch": 53, "duration": 3, "velocity": 79}, {"time": 5838, "pitch": 37, "duration": 1, "velocity": 84}, {"time": 5839, "pitch": 56, "duration": 2, "velocity": 71}, {"time": 5839, "pitch": 61, "duration": 3, "velocity": 71}, {"time": 5844, "pitch": 49, "duration": 2, "velocity": 60}, {"time": 5845, "pitch": 56, "duration": 2, "velocity": 69}, {"time": 5846, "pitch": 61, "duration": 1, "velocity": 76}, {"time": 5848, "pitch": 63, "duration": 1, "velocity": 73}, {"time": 5849, "pitch": 65, "duration": 2, "velocity": 78}, {"time": 5850, "pitch": 68, "duration": 2, "velocity": 76}, {"time": 5852, "pitch": 73, "duration": 1, "velocity": 73}, {"time": 5853, "pitch": 75, "duration": 2, "velocity": 48}, {"time": 5854, "pitch": 77, "duration": 2, "velocity": 51}, {"time": 5856, "pitch": 80, "duration": 1, "velocity": 62}, {"time": 5858, "pitch": 85, "duration": 1, "velocity": 63}, {"time": 5859, "pitch": 87, "duration": 3, "velocity": 69}, {"time": 5861, "pitch": 89, "duration": 1, "velocity": 68}, {"time": 5862, "pitch": 92, "duration": 2, "velocity": 72}, {"time": 5864, "pitch": 97, "duration": 1, "velocity": 62}], "annotations": [{"time": 854, "annotation": {"number": 64, "value": 127}, "group": "control_change"}, {"time": 902, "annotation": {"number": 64, "value": 0}, "group": "control_change"}, {"time": 903, "annotation": {"number": 64, "value": 0}, "group": "control_change"}, {"time": 907, "annotation": {"number": 64, "value": 127}, "group": "control_change"}, {"time": 945, "annotation": {"number": 64, "value": 0}, "group": "control_change"}, {"time": 952, "annotation": {"number": 64, "value": 127}, "group": "control_change"}, {"time": 996, "annotation": {"number": 64, "value": 0}, "group": "control_change"}, {"time": 999, "annotation": {"number": 64, "value": 127}, "group": "control_change"}, {"time": 1046, "annotation": {"number": 64, "value": 127}, "group": "control_change"}, {"time": 1046, "annotation": {"number": 64, "value": 0}, "group": "control_change"}, {"time": 1068, "annotation": {"number": 64, "value": 0}, "group": "control_change"}, {"time": 1071, "annotation": {"number": 64, "value": 127}, "group": "control_change"}, {"time": 1094, "annotation": {"number": 64, "value": 0}, "group": "control_change"}, {"time": 1100, "annotation": {"number": 64, "value": 127}, "group": "control_change"}, {"time": 1116, "annotation": {"number": 64, "value": 0}, "group": "control_change"}, {"time": 1121, "annotation": {"number": 64, "value": 127}, "group": "control_change"}, {"time": 1139, "annotation": {"number": 64, "value": 0}, "group": "control_change"}, {"time": 1143, "annotation": {"number": 64, "value": 127}, "group": "control_change"}, {"time": 1156, "annotation": {"number": 64, "value": 0}, "group": "control_change"}, {"time": 1188, "annotation": {"number": 64, "value": 0}, "group": "control_change"}, {"time": 1194, "annotation": {"number": 64, "value": 127}, "group": "control_change"}, {"time": 1248, "annotation": {"number": 64, "value": 0}, "group": "control_change"}, {"time": 1285, "annotation": {"number": 64, "value": 127}, "group": "control_change"}, {"time": 1334, "annotation": {"number": 64, "value": 0}, "group": "control_change"}, {"time": 1337, "annotation": {"number": 64, "value": 127}, "group": "control_change"}, {"time": 1383, "annotation": {"number": 64, "value": 0}, "group": "control_change"}, {"time": 1387, "annotation": {"number": 64, "value": 127}, "group": "control_change"}, {"time": 1430, "annotation": {"number": 64, "value": 0}, "group": "control_change"}, {"time": 1433, "annotation": {"number": 64, "value": 127}, "group": "control_change"}, {"time": 1479, "annotation": {"number": 64, "value": 0}, "group": "control_change"}, {"time": 1482, "annotation": {"number": 64, "value": 127}, "group": "control_change"}, {"time": 1502, "annotation": {"number": 64, "value": 0}, "group": "control_change"}, {"time": 1505, "annotation": {"number": 64, "value": 127}, "group": "control_change"}, {"time": 1528, "annotation": {"number": 64, "value": 0}, "group": "control_change"}, {"time": 1531, "annotation": {"number": 64, "value": 127}, "group": "control_change"}, {"time": 1551, "annotation": {"number": 64, "value": 0}, "group": "control_change"}, {"time": 1555, "annotation": {"number": 64, "value": 127}, "group": "control_change"}, {"time": 1576, "annotation": {"number": 64, "value": 0}, "group": "control_change"}, {"time": 1581, "annotation": {"number": 64, "value": 127}, "group": "control_change"}, {"time": 1623, "annotation": {"number": 64, "value": 0}, "group": "control_change"}, {"time": 1627, "annotation": {"number": 64, "value": 127}, "group": "control_change"}, {"time": 1669, "annotation": {"number": 64, "value": 0}, "group": "control_change"}, {"time": 1669, "annotation": {"number": 64, "value": 127}, "group": "control_change"}, {"time": 1670, "annotation": {"number": 64, "value": 0}, "group": "control_change"}, {"time": 1719, "annotation": {"number": 64, "value": 0}, "group": "control_change"}, {"time": 1723, "annotation": {"number": 64, "value": 127}, "group": "control_change"}, {"time": 1768, "annotation": {"number": 64, "value": 0}, "group": "control_change"}, {"time": 1772, "annotation": {"number": 64, "value": 127}, "group": "control_change"}, {"time": 1772, "annotation": {"number": 64, "value": 0}, "group": "control_change"}, {"time": 1816, "annotation": {"number": 64, "value": 0}, "group": "control_change"}, {"time": 1819, "annotation": {"number": 64, "value": 127}, "group": "control_change"}, {"time": 1862, "annotation": {"number": 64, "value": 0}, "group": "control_change"}, {"time": 1866, "annotation": {"number": 64, "value": 127}, "group": "control_change"}, {"time": 1886, "annotation": {"number": 64, "value": 0}, "group": "control_change"}, {"time": 1889, "annotation": {"number": 64, "value": 127}, "group": "control_change"}, {"time": 1910, "annotation": {"number": 64, "value": 0}, "group": "control_change"}, {"time": 1912, "annotation": {"number": 64, "value": 127}, "group": "control_change"}, {"time": 1912, "annotation": {"number": 64, "value": 0}, "group": "control_change"}, {"time": 1913, "annotation": {"number": 64, "value": 127}, "group": "control_change"}, {"time": 1934, "annotation": {"number": 64, "value": 0}, "group": "control_change"}, {"time": 1937, "annotation": {"number": 64, "value": 127}, "group": "control_change"}, {"time": 1959, "annotation": {"number": 64, "value": 0}, "group": "control_change"}, {"time": 1962, "annotation": {"number": 64, "value": 127}, "group": "control_change"}, {"time": 2005, "annotation": {"number": 64, "value": 0}, "group": "control_change"}, {"time": 2008, "annotation": {"number": 64, "value": 127}, "group": "control_change"}, {"time": 2053, "annotation": {"number": 64, "value": 0}, "group": "control_change"}, {"time": 2055, "annotation": {"number": 64, "value": 127}, "group": "control_change"}, {"time": 2102, "annotation": {"number": 64, "value": 0}, "group": "control_change"}, {"time": 2105, "annotation": {"number": 64, "value": 127}, "group": "control_change"}, {"time": 2150, "annotation": {"number": 64, "value": 0}, "group": "control_change"}, {"time": 2152, "annotation": {"number": 64, "value": 127}, "group": "control_change"}, {"time": 2198, "annotation": {"number": 64, "value": 0}, "group": "control_change"}, {"time": 2198, "annotation": {"number": 64, "value": 127}, "group": "control_change"}, {"time": 2222, "annotation": {"number": 64, "value": 0}, "group": "control_change"}, {"time": 2225, "annotation": {"number": 64, "value": 127}, "group": "control_change"}, {"time": 2246, "annotation": {"number": 64, "value": 0}, "group": "control_change"}, {"time": 2249, "annotation": {"number": 64, "value": 127}, "group": "control_change"}, {"time": 2295, "annotation": {"number": 64, "value": 0}, "group": "control_change"}, {"time": 2299, "annotation": {"number": 64, "value": 127}, "group": "control_change"}, {"time": 2342, "annotation": {"number": 64, "value": 0}, "group": "control_change"}, {"time": 2343, "annotation": {"number": 64, "value": 127}, "group": "control_change"}, {"time": 2366, "annotation": {"number": 64, "value": 0}, "group": "control_change"}, {"time": 2370, "annotation": {"number": 64, "value": 127}, "group": "control_change"}, {"time": 2391, "annotation": {"number": 64, "value": 0}, "group": "control_change"}, {"time": 2394, "annotation": {"number": 64, "value": 127}, "group": "control_change"}, {"time": 2439, "annotation": {"number": 64, "value": 0}, "group": "control_change"}, {"time": 2441, "annotation": {"number": 64, "value": 127}, "group": "control_change"}, {"time": 2486, "annotation": {"number": 64, "value": 0}, "group": "control_change"}, {"time": 2489, "annotation": {"number": 64, "value": 127}, "group": "control_change"}, {"time": 2534, "annotation": {"number": 64, "value": 0}, "group": "control_change"}, {"time": 2536, "annotation": {"number": 64, "value": 127}, "group": "control_change"}, {"time": 2582, "annotation": {"number": 64, "value": 0}, "group": "control_change"}, {"time": 2584, "annotation": {"number": 64, "value": 127}, "group": "control_change"}, {"time": 2606, "annotation": {"number": 64, "value": 0}, "group": "control_change"}, {"time": 2610, "annotation": {"number": 64, "value": 127}, "group": "control_change"}, {"time": 2631, "annotation": {"number": 64, "value": 0}, "group": "control_change"}, {"time": 2635, "annotation": {"number": 64, "value": 127}, "group": "control_change"}, {"time": 2679, "annotation": {"number": 64, "value": 0}, "group": "control_change"}, {"time": 2682, "annotation": {"number": 64, "value": 127}, "group": "control_change"}, {"time": 2704, "annotation": {"number": 64, "value": 0}, "group": "control_change"}, {"time": 2707, "annotation": {"number": 64, "value": 127}, "group": "control_change"}, {"time": 2728, "annotation": {"number": 64, "value": 0}, "group": "control_change"}, {"time": 2731, "annotation": {"number": 64, "value": 127}, "group": "control_change"}, {"time": 2752, "annotation": {"number": 64, "value": 0}, "group": "control_change"}, {"time": 2756, "annotation": {"number": 64, "value": 127}, "group": "control_change"}, {"time": 2775, "annotation": {"number": 64, "value": 0}, "group": "control_change"}, {"time": 2778, "annotation": {"number": 64, "value": 127}, "group": "control_change"}, {"time": 2822, "annotation": {"number": 64, "value": 0}, "group": "control_change"}, {"time": 2826, "annotation": {"number": 64, "value": 127}, "group": "control_change"}, {"time": 2858, "annotation": {"number": 64, "value": 0}, "group": "control_change"}, {"time": 2870, "annotation": {"number": 64, "value": 0}, "group": "control_change"}, {"time": 2871, "annotation": {"number": 64, "value": 127}, "group": "control_change"}, {"time": 2917, "annotation": {"number": 64, "value": 0}, "group": "control_change"}, {"time": 2923, "annotation": {"number": 64, "value": 127}, "group": "control_change"}, {"time": 2966, "annotation": {"number": 64, "value": 0}, "group": "control_change"}, {"time": 2973, "annotation": {"number": 64, "value": 127}, "group": "control_change"}, {"time": 3014, "annotation": {"number": 64, "value": 0}, "group": "control_change"}, {"time": 3020, "annotation": {"number": 64, "value": 127}, "group": "control_change"}, {"time": 3061, "annotation": {"number": 64, "value": 0}, "group": "control_change"}, {"time": 3066, "annotation": {"number": 64, "value": 127}, "group": "control_change"}, {"time": 3085, "annotation": {"number": 64, "value": 0}, "group": "control_change"}, {"time": 3091, "annotation": {"number": 64, "value": 127}, "group": "control_change"}, {"time": 3109, "annotation": {"number": 64, "value": 0}, "group": "control_change"}, {"time": 3115, "annotation": {"number": 64, "value": 127}, "group": "control_change"}, {"time": 3133, "annotation": {"number": 64, "value": 0}, "group": "control_change"}, {"time": 3138, "annotation": {"number": 64, "value": 127}, "group": "control_change"}, {"time": 3157, "annotation": {"number": 64, "value": 127}, "group": "control_change"}, {"time": 3182, "annotation": {"number": 64, "value": 0}, "group": "control_change"}, {"time": 3186, "annotation": {"number": 64, "value": 127}, "group": "control_change"}, {"time": 3206, "annotation": {"number": 64, "value": 0}, "group": "control_change"}, {"time": 3210, "annotation": {"number": 64, "value": 127}, "group": "control_change"}, {"time": 3242, "annotation": {"number": 64, "value": 0}, "group": "control_change"}, {"time": 3245, "annotation": {"number": 64, "value": 127}, "group": "control_change"}, {"time": 3254, "annotation": {"number": 64, "value": 0}, "group": "control_change"}, {"time": 3257, "annotation": {"number": 64, "value": 127}, "group": "control_change"}, {"time": 3299, "annotation": {"number": 64, "value": 0}, "group": "control_change"}, {"time": 3351, "annotation": {"number": 64, "value": 0}, "group": "control_change"}, {"time": 3355, "annotation": {"number": 64, "value": 127}, "group": "control_change"}, {"time": 3400, "annotation": {"number": 64, "value": 0}, "group": "control_change"}, {"time": 3404, "annotation": {"number": 64, "value": 127}, "group": "control_change"}, {"time": 3404, "annotation": {"number": 64, "value": 0}, "group": "control_change"}, {"time": 3448, "annotation": {"number": 64, "value": 0}, "group": "control_change"}, {"time": 3451, "annotation": {"number": 64, "value": 127}, "group": "control_change"}, {"time": 3494, "annotation": {"number": 64, "value": 0}, "group": "control_change"}, {"time": 3498, "annotation": {"number": 64, "value": 127}, "group": "control_change"}, {"time": 3518, "annotation": {"number": 64, "value": 0}, "group": "control_change"}, {"time": 3521, "annotation": {"number": 64, "value": 127}, "group": "control_change"}, {"time": 3542, "annotation": {"number": 64, "value": 0}, "group": "control_change"}, {"time": 3544, "annotation": {"number": 64, "value": 127}, "group": "control_change"}, {"time": 3544, "annotation": {"number": 64, "value": 0}, "group": "control_change"}, {"time": 3545, "annotation": {"number": 64, "value": 127}, "group": "control_change"}, {"time": 3566, "annotation": {"number": 64, "value": 0}, "group": "control_change"}, {"time": 3569, "annotation": {"number": 64, "value": 127}, "group": "control_change"}, {"time": 3591, "annotation": {"number": 64, "value": 0}, "group": "control_change"}, {"time": 3594, "annotation": {"number": 64, "value": 127}, "group": "control_change"}, {"time": 3637, "annotation": {"number": 64, "value": 0}, "group": "control_change"}, {"time": 3640, "annotation": {"number": 64, "value": 127}, "group": "control_change"}, {"time": 3685, "annotation": {"number": 64, "value": 0}, "group": "control_change"}, {"time": 3687, "annotation": {"number": 64, "value": 127}, "group": "control_change"}, {"time": 3734, "annotation": {"number": 64, "value": 0}, "group": "control_change"}, {"time": 3737, "annotation": {"number": 64, "value": 127}, "group": "control_change"}, {"time": 3782, "annotation": {"number": 64, "value": 0}, "group": "control_change"}, {"time": 3784, "annotation": {"number": 64, "value": 127}, "group": "control_change"}, {"time": 3830, "annotation": {"number": 64, "value": 0}, "group": "control_change"}, {"time": 3830, "annotation": {"number": 64, "value": 127}, "group": "control_change"}, {"time": 3854, "annotation": {"number": 64, "value": 0}, "group": "control_change"}, {"time": 3857, "annotation": {"number": 64, "value": 127}, "group": "control_change"}, {"time": 3878, "annotation": {"number": 64, "value": 0}, "group": "control_change"}, {"time": 3881, "annotation": {"number": 64, "value": 127}, "group": "control_change"}, {"time": 3927, "annotation": {"number": 64, "value": 0}, "group": "control_change"}, {"time": 3931, "annotation": {"number": 64, "value": 127}, "group": "control_change"}, {"time": 3974, "annotation": {"number": 64, "value": 0}, "group": "control_change"}, {"time": 3975, "annotation": {"number": 64, "value": 127}, "group": "control_change"}, {"time": 3998, "annotation": {"number": 64, "value": 0}, "group": "control_change"}, {"time": 4002, "annotation": {"number": 64, "value": 127}, "group": "control_change"}, {"time": 4023, "annotation": {"number": 64, "value": 0}, "group": "control_change"}, {"time": 4026, "annotation": {"number": 64, "value": 127}, "group": "control_change"}, {"time": 4071, "annotation": {"number": 64, "value": 0}, "group": "control_change"}, {"time": 4073, "annotation": {"number": 64, "value": 127}, "group": "control_change"}, {"time": 4118, "annotation": {"number": 64, "value": 0}, "group": "control_change"}, {"time": 4121, "annotation": {"number": 64, "value": 127}, "group": "control_change"}, {"time": 4166, "annotation": {"number": 64, "value": 0}, "group": "control_change"}, {"time": 4168, "annotation": {"number": 64, "value": 127}, "group": "control_change"}, {"time": 4214, "annotation": {"number": 64, "value": 0}, "group": "control_change"}, {"time": 4216, "annotation": {"number": 64, "value": 127}, "group": "control_change"}, {"time": 4238, "annotation": {"number": 64, "value": 0}, "group": "control_change"}, {"time": 4242, "annotation": {"number": 64, "value": 127}, "group": "control_change"}, {"time": 4263, "annotation": {"number": 64, "value": 0}, "group": "control_change"}, {"time": 4267, "annotation": {"number": 64, "value": 127}, "group": "control_change"}, {"time": 4311, "annotation": {"number": 64, "value": 0}, "group": "control_change"}, {"time": 4314, "annotation": {"number": 64, "value": 127}, "group": "control_change"}, {"time": 4336, "annotation": {"number": 64, "value": 0}, "group": "control_change"}, {"time": 4339, "annotation": {"number": 64, "value": 127}, "group": "control_change"}, {"time": 4360, "annotation": {"number": 64, "value": 0}, "group": "control_change"}, {"time": 4363, "annotation": {"number": 64, "value": 127}, "group": "control_change"}, {"time": 4384, "annotation": {"number": 64, "value": 0}, "group": "control_change"}, {"time": 4388, "annotation": {"number": 64, "value": 127}, "group": "control_change"}, {"time": 4407, "annotation": {"number": 64, "value": 0}, "group": "control_change"}, {"time": 4410, "annotation": {"number": 64, "value": 127}, "group": "control_change"}, {"time": 4453, "annotation": {"number": 64, "value": 127}, "group": "control_change"}, {"time": 4454, "annotation": {"number": 64, "value": 0}, "group": "control_change"}, {"time": 4457, "annotation": {"number": 64, "value": 127}, "group": "control_change"}, {"time": 4502, "annotation": {"number": 64, "value": 0}, "group": "control_change"}, {"time": 4506, "annotation": {"number": 64, "value": 127}, "group": "control_change"}, {"time": 4549, "annotation": {"number": 64, "value": 0}, "group": "control_change"}, {"time": 4554, "annotation": {"number": 64, "value": 127}, "group": "control_change"}, {"time": 4600, "annotation": {"number": 64, "value": 0}, "group": "control_change"}, {"time": 4604, "annotation": {"number": 64, "value": 127}, "group": "control_change"}, {"time": 4646, "annotation": {"number": 64, "value": 0}, "group": "control_change"}, {"time": 4651, "annotation": {"number": 64, "value": 127}, "group": "control_change"}, {"time": 4694, "annotation": {"number": 64, "value": 0}, "group": "control_change"}, {"time": 4697, "annotation": {"number": 64, "value": 127}, "group": "control_change"}, {"time": 4742, "annotation": {"number": 64, "value": 0}, "group": "control_change"}, {"time": 4747, "annotation": {"number": 64, "value": 127}, "group": "control_change"}, {"time": 4765, "annotation": {"number": 64, "value": 0}, "group": "control_change"}, {"time": 4768, "annotation": {"number": 64, "value": 127}, "group": "control_change"}, {"time": 4791, "annotation": {"number": 64, "value": 0}, "group": "control_change"}, {"time": 4795, "annotation": {"number": 64, "value": 127}, "group": "control_change"}, {"time": 4838, "annotation": {"number": 64, "value": 0}, "group": "control_change"}, {"time": 4839, "annotation": {"number": 64, "value": 127}, "group": "control_change"}, {"time": 4853, "annotation": {"number": 64, "value": 0}, "group": "control_change"}, {"time": 4856, "annotation": {"number": 64, "value": 127}, "group": "control_change"}, {"time": 4856, "annotation": {"number": 64, "value": 0}, "group": "control_change"}, {"time": 4862, "annotation": {"number": 64, "value": 0}, "group": "control_change"}, {"time": 4865, "annotation": {"number": 64, "value": 127}, "group": "control_change"}, {"time": 4886, "annotation": {"number": 64, "value": 0}, "group": "control_change"}, {"time": 4890, "annotation": {"number": 64, "value": 127}, "group": "control_change"}, {"time": 4910, "annotation": {"number": 64, "value": 0}, "group": "control_change"}, {"time": 4913, "annotation": {"number": 64, "value": 127}, "group": "control_change"}, {"time": 4934, "annotation": {"number": 64, "value": 0}, "group": "control_change"}, {"time": 4938, "annotation": {"number": 64, "value": 127}, "group": "control_change"}, {"time": 4983, "annotation": {"number": 64, "value": 0}, "group": "control_change"}, {"time": 4986, "annotation": {"number": 64, "value": 127}, "group": "control_change"}, {"time": 5031, "annotation": {"number": 64, "value": 0}, "group": "control_change"}, {"time": 5036, "annotation": {"number": 64, "value": 127}, "group": "control_change"}, {"time": 5036, "annotation": {"number": 64, "value": 0}, "group": "control_change"}, {"time": 5079, "annotation": {"number": 64, "value": 0}, "group": "control_change"}, {"time": 5081, "annotation": {"number": 64, "value": 127}, "group": "control_change"}, {"time": 5127, "annotation": {"number": 64, "value": 0}, "group": "control_change"}, {"time": 5129, "annotation": {"number": 64, "value": 127}, "group": "control_change"}, {"time": 5175, "annotation": {"number": 64, "value": 0}, "group": "control_change"}, {"time": 5179, "annotation": {"number": 64, "value": 127}, "group": "control_change"}, {"time": 5222, "annotation": {"number": 64, "value": 127}, "group": "control_change"}, {"time": 5222, "annotation": {"number": 64, "value": 0}, "group": "control_change"}, {"time": 5268, "annotation": {"number": 64, "value": 0}, "group": "control_change"}, {"time": 5268, "annotation": {"number": 64, "value": 127}, "group": "control_change"}, {"time": 5269, "annotation": {"number": 64, "value": 0}, "group": "control_change"}, {"time": 5272, "annotation": {"number": 64, "value": 127}, "group": "control_change"}, {"time": 5318, "annotation": {"number": 64, "value": 0}, "group": "control_change"}, {"time": 5323, "annotation": {"number": 64, "value": 127}, "group": "control_change"}, {"time": 5409, "annotation": {"number": 64, "value": 0}, "group": "control_change"}, {"time": 5413, "annotation": {"number": 64, "value": 127}, "group": "control_change"}, {"time": 5462, "annotation": {"number": 64, "value": 0}, "group": "control_change"}, {"time": 5465, "annotation": {"number": 64, "value": 127}, "group": "control_change"}, {"time": 5511, "annotation": {"number": 64, "value": 0}, "group": "control_change"}, {"time": 5515, "annotation": {"number": 64, "value": 127}, "group": "control_change"}, {"time": 5558, "annotation": {"number": 64, "value": 0}, "group": "control_change"}, {"time": 5561, "annotation": {"number": 64, "value": 127}, "group": "control_change"}, {"time": 5607, "annotation": {"number": 64, "value": 0}, "group": "control_change"}, {"time": 5610, "annotation": {"number": 64, "value": 127}, "group": "control_change"}, {"time": 5630, "annotation": {"number": 64, "value": 0}, "group": "control_change"}, {"time": 5633, "annotation": {"number": 64, "value": 127}, "group": "control_change"}, {"time": 5656, "annotation": {"number": 64, "value": 0}, "group": "control_change"}, {"time": 5659, "annotation": {"number": 64, "value": 127}, "group": "control_change"}, {"time": 5679, "annotation": {"number": 64, "value": 0}, "group": "control_change"}, {"time": 5683, "annotation": {"number": 64, "value": 127}, "group": "control_change"}, {"time": 5704, "annotation": {"number": 64, "value": 0}, "group": "control_change"}, {"time": 5709, "annotation": {"number": 64, "value": 127}, "group": "control_change"}, {"time": 5750, "annotation": {"number": 64, "value": 0}, "group": "control_change"}, {"time": 5751, "annotation": {"number": 64, "value": 127}, "group": "control_change"}, {"time": 5799, "annotation": {"number": 64, "value": 0}, "group": "control_change"}, {"time": 5801, "annotation": {"number": 64, "value": 127}, "group": "control_change"}, {"time": 5874, "annotation": {"number": 64, "value": 0}, "group": "control_change"}]}]}