{"metadata": {"schema_version": "0.2", "title": "None", "source_filename": "248.mid", "source_format": "midi"}, "resolution": 12, "tempos": [{"time": 0, "qpm": 138.00051060188923}], "time_signatures": [{"time": 0, "numerator": 4, "denominator": 4}], "tracks": [{"program": 0, "is_drum": false, "name": "MELODY", "notes": [{"time": 390, "pitch": 65, "duration": 12, "velocity": 86}, {"time": 402, "pitch": 69, "duration": 12, "velocity": 86}, {"time": 414, "pitch": 72, "duration": 6, "velocity": 74}, {"time": 420, "pitch": 72, "duration": 6, "velocity": 66}, {"time": 426, "pitch": 72, "duration": 12, "velocity": 66}, {"time": 438, "pitch": 74, "duration": 6, "velocity": 84}, {"time": 444, "pitch": 72, "duration": 7, "velocity": 71}, {"time": 450, "pitch": 74, "duration": 6, "velocity": 65}, {"time": 456, "pitch": 77, "duration": 6, "velocity": 64}, {"time": 462, "pitch": 77, "duration": 6, "velocity": 50}, {"time": 468, "pitch": 72, "duration": 18, "velocity": 62}, {"time": 486, "pitch": 72, "duration": 12, "velocity": 95}, {"time": 498, "pitch": 72, "duration": 12, "velocity": 94}, {"time": 510, "pitch": 72, "duration": 6, "velocity": 92}, {"time": 516, "pitch": 69, "duration": 6, "velocity": 83}, {"time": 522, "pitch": 72, "duration": 12, "velocity": 87}, {"time": 534, "pitch": 70, "duration": 6, "velocity": 80}, {"time": 540, "pitch": 69, "duration": 6, "velocity": 64}, {"time": 546, "pitch": 67, "duration": 6, "velocity": 63}, {"time": 552, "pitch": 70, "duration": 7, "velocity": 64}, {"time": 558, "pitch": 67, "duration": 24, "velocity": 72}, {"time": 582, "pitch": 72, "duration": 12, "velocity": 77}, {"time": 594, "pitch": 72, "duration": 12, "velocity": 90}, {"time": 606, "pitch": 69, "duration": 6, "velocity": 71}, {"time": 612, "pitch": 72, "duration": 6, "velocity": 66}, {"time": 618, "pitch": 72, "duration": 12, "velocity": 77}, {"time": 630, "pitch": 74, "duration": 12, "velocity": 87}, {"time": 642, "pitch": 77, "duration": 12, "velocity": 85}, {"time": 654, "pitch": 79, "duration": 24, "velocity": 90}, {"time": 678, "pitch": 81, "duration": 6, "velocity": 97}, {"time": 684, "pitch": 72, "duration": 18, "velocity": 85}, {"time": 702, "pitch": 77, "duration": 6, "velocity": 93}, {"time": 708, "pitch": 74, "duration": 3, "velocity": 71}, {"time": 711, "pitch": 72, "duration": 15, "velocity": 84}, {"time": 726, "pitch": 72, "duration": 6, "velocity": 90}, {"time": 732, "pitch": 72, "duration": 6, "velocity": 76}, {"time": 738, "pitch": 81, "duration": 6, "velocity": 91}, {"time": 744, "pitch": 72, "duration": 30, "velocity": 90}, {"time": 774, "pitch": 72, "duration": 12, "velocity": 99}, {"time": 786, "pitch": 72, "duration": 12, "velocity": 97}, {"time": 798, "pitch": 69, "duration": 6, "velocity": 84}, {"time": 804, "pitch": 70, "duration": 6, "velocity": 86}, {"time": 810, "pitch": 72, "duration": 12, "velocity": 90}, {"time": 822, "pitch": 74, "duration": 6, "velocity": 95}, {"time": 828, "pitch": 72, "duration": 6, "velocity": 81}, {"time": 834, "pitch": 74, "duration": 6, "velocity": 77}, {"time": 840, "pitch": 77, "duration": 6, "velocity": 69}, {"time": 846, "pitch": 77, "duration": 6, "velocity": 85}, {"time": 852, "pitch": 72, "duration": 17, "velocity": 84}, {"time": 870, "pitch": 72, "duration": 12, "velocity": 80}, {"time": 882, "pitch": 72, "duration": 12, "velocity": 84}, {"time": 894, "pitch": 69, "duration": 6, "velocity": 81}, {"time": 900, "pitch": 70, "duration": 6, "velocity": 84}, {"time": 906, "pitch": 72, "duration": 12, "velocity": 79}, {"time": 918, "pitch": 70, "duration": 6, "velocity": 80}, {"time": 924, "pitch": 69, "duration": 6, "velocity": 77}, {"time": 930, "pitch": 67, "duration": 6, "velocity": 62}, {"time": 936, "pitch": 70, "duration": 6, "velocity": 64}, {"time": 942, "pitch": 67, "duration": 24, "velocity": 62}, {"time": 966, "pitch": 72, "duration": 6, "velocity": 79}, {"time": 972, "pitch": 72, "duration": 6, "velocity": 82}, {"time": 978, "pitch": 72, "duration": 12, "velocity": 82}, {"time": 990, "pitch": 69, "duration": 6, "velocity": 79}, {"time": 996, "pitch": 70, "duration": 6, "velocity": 76}, {"time": 1002, "pitch": 72, "duration": 12, "velocity": 81}, {"time": 1014, "pitch": 74, "duration": 12, "velocity": 82}, {"time": 1026, "pitch": 77, "duration": 12, "velocity": 93}, {"time": 1038, "pitch": 79, "duration": 24, "velocity": 97}, {"time": 1062, "pitch": 81, "duration": 6, "velocity": 93}, {"time": 1068, "pitch": 81, "duration": 18, "velocity": 95}, {"time": 1086, "pitch": 84, "duration": 6, "velocity": 98}, {"time": 1092, "pitch": 84, "duration": 18, "velocity": 98}, {"time": 1110, "pitch": 74, "duration": 6, "velocity": 93}, {"time": 1116, "pitch": 77, "duration": 5, "velocity": 86}, {"time": 1122, "pitch": 77, "duration": 6, "velocity": 87}, {"time": 1128, "pitch": 77, "duration": 6, "velocity": 89}, {"time": 1134, "pitch": 79, "duration": 24, "velocity": 108}, {"time": 1158, "pitch": 81, "duration": 12, "velocity": 105}, {"time": 1170, "pitch": 81, "duration": 12, "velocity": 97}, {"time": 1182, "pitch": 77, "duration": 12, "velocity": 96}, {"time": 1194, "pitch": 77, "duration": 12, "velocity": 97}, {"time": 1206, "pitch": 72, "duration": 6, "velocity": 98}, {"time": 1212, "pitch": 72, "duration": 12, "velocity": 94}, {"time": 1224, "pitch": 72, "duration": 6, "velocity": 96}, {"time": 1230, "pitch": 72, "duration": 24, "velocity": 98}, {"time": 1254, "pitch": 81, "duration": 12, "velocity": 98}, {"time": 1266, "pitch": 81, "duration": 12, "velocity": 97}, {"time": 1278, "pitch": 79, "duration": 6, "velocity": 90}, {"time": 1284, "pitch": 77, "duration": 6, "velocity": 66}, {"time": 1290, "pitch": 77, "duration": 6, "velocity": 66}, {"time": 1296, "pitch": 81, "duration": 54, "velocity": 94}, {"time": 1350, "pitch": 81, "duration": 12, "velocity": 99}, {"time": 1362, "pitch": 81, "duration": 12, "velocity": 95}, {"time": 1374, "pitch": 79, "duration": 6, "velocity": 87}, {"time": 1380, "pitch": 77, "duration": 6, "velocity": 64}, {"time": 1386, "pitch": 77, "duration": 12, "velocity": 77}, {"time": 1398, "pitch": 72, "duration": 6, "velocity": 95}, {"time": 1404, "pitch": 72, "duration": 12, "velocity": 91}, {"time": 1416, "pitch": 72, "duration": 6, "velocity": 94}, {"time": 1422, "pitch": 72, "duration": 24, "velocity": 98}, {"time": 1446, "pitch": 79, "duration": 6, "velocity": 94}, {"time": 1452, "pitch": 79, "duration": 6, "velocity": 90}, {"time": 1458, "pitch": 79, "duration": 6, "velocity": 84}, {"time": 1464, "pitch": 77, "duration": 5, "velocity": 85}, {"time": 1470, "pitch": 74, "duration": 12, "velocity": 77}, {"time": 1482, "pitch": 81, "duration": 12, "velocity": 97}, {"time": 1494, "pitch": 79, "duration": 48, "velocity": 99}, {"time": 1542, "pitch": 81, "duration": 12, "velocity": 100}, {"time": 1554, "pitch": 81, "duration": 12, "velocity": 96}, {"time": 1566, "pitch": 79, "duration": 6, "velocity": 87}, {"time": 1572, "pitch": 77, "duration": 6, "velocity": 87}, {"time": 1578, "pitch": 77, "duration": 12, "velocity": 90}, {"time": 1590, "pitch": 72, "duration": 6, "velocity": 85}, {"time": 1596, "pitch": 72, "duration": 12, "velocity": 77}, {"time": 1608, "pitch": 69, "duration": 6, "velocity": 93}, {"time": 1614, "pitch": 72, "duration": 24, "velocity": 93}, {"time": 1638, "pitch": 81, "duration": 12, "velocity": 97}, {"time": 1650, "pitch": 81, "duration": 12, "velocity": 97}, {"time": 1662, "pitch": 79, "duration": 6, "velocity": 93}, {"time": 1668, "pitch": 77, "duration": 6, "velocity": 69}, {"time": 1674, "pitch": 77, "duration": 6, "velocity": 87}, {"time": 1680, "pitch": 81, "duration": 54, "velocity": 98}, {"time": 1734, "pitch": 81, "duration": 12, "velocity": 101}, {"time": 1746, "pitch": 81, "duration": 12, "velocity": 94}, {"time": 1758, "pitch": 79, "duration": 7, "velocity": 87}, {"time": 1764, "pitch": 77, "duration": 6, "velocity": 67}, {"time": 1770, "pitch": 77, "duration": 12, "velocity": 79}, {"time": 1782, "pitch": 72, "duration": 6, "velocity": 83}, {"time": 1788, "pitch": 72, "duration": 12, "velocity": 81}, {"time": 1800, "pitch": 72, "duration": 6, "velocity": 91}, {"time": 1806, "pitch": 72, "duration": 24, "velocity": 86}, {"time": 1830, "pitch": 77, "duration": 6, "velocity": 90}, {"time": 1836, "pitch": 79, "duration": 5, "velocity": 87}, {"time": 1842, "pitch": 79, "duration": 6, "velocity": 84}, {"time": 1848, "pitch": 77, "duration": 5, "velocity": 64}, {"time": 1854, "pitch": 74, "duration": 12, "velocity": 77}, {"time": 1866, "pitch": 76, "duration": 12, "velocity": 91}, {"time": 1878, "pitch": 77, "duration": 35, "velocity": 97}, {"time": 2310, "pitch": 72, "duration": 11, "velocity": 86}, {"time": 2322, "pitch": 72, "duration": 12, "velocity": 86}, {"time": 2334, "pitch": 69, "duration": 6, "velocity": 74}, {"time": 2340, "pitch": 70, "duration": 6, "velocity": 66}, {"time": 2346, "pitch": 72, "duration": 12, "velocity": 66}, {"time": 2358, "pitch": 74, "duration": 6, "velocity": 84}, {"time": 2364, "pitch": 72, "duration": 7, "velocity": 71}, {"time": 2370, "pitch": 74, "duration": 6, "velocity": 65}, {"time": 2376, "pitch": 77, "duration": 6, "velocity": 64}, {"time": 2382, "pitch": 77, "duration": 6, "velocity": 50}, {"time": 2388, "pitch": 72, "duration": 18, "velocity": 62}, {"time": 2406, "pitch": 72, "duration": 12, "velocity": 95}, {"time": 2418, "pitch": 72, "duration": 12, "velocity": 94}, {"time": 2430, "pitch": 72, "duration": 6, "velocity": 92}, {"time": 2436, "pitch": 69, "duration": 6, "velocity": 83}, {"time": 2442, "pitch": 72, "duration": 12, "velocity": 87}, {"time": 2454, "pitch": 70, "duration": 6, "velocity": 80}, {"time": 2460, "pitch": 69, "duration": 6, "velocity": 64}, {"time": 2466, "pitch": 67, "duration": 6, "velocity": 63}, {"time": 2472, "pitch": 70, "duration": 7, "velocity": 64}, {"time": 2478, "pitch": 67, "duration": 24, "velocity": 72}, {"time": 2502, "pitch": 72, "duration": 12, "velocity": 77}, {"time": 2514, "pitch": 72, "duration": 12, "velocity": 90}, {"time": 2526, "pitch": 69, "duration": 6, "velocity": 71}, {"time": 2532, "pitch": 70, "duration": 6, "velocity": 66}, {"time": 2538, "pitch": 72, "duration": 12, "velocity": 77}, {"time": 2550, "pitch": 74, "duration": 12, "velocity": 87}, {"time": 2562, "pitch": 77, "duration": 12, "velocity": 85}, {"time": 2574, "pitch": 79, "duration": 24, "velocity": 90}, {"time": 2598, "pitch": 81, "duration": 6, "velocity": 97}, {"time": 2604, "pitch": 72, "duration": 18, "velocity": 85}, {"time": 2622, "pitch": 77, "duration": 6, "velocity": 93}, {"time": 2628, "pitch": 74, "duration": 5, "velocity": 71}, {"time": 2631, "pitch": 72, "duration": 15, "velocity": 84}, {"time": 2646, "pitch": 72, "duration": 6, "velocity": 90}, {"time": 2652, "pitch": 72, "duration": 6, "velocity": 76}, {"time": 2658, "pitch": 81, "duration": 6, "velocity": 91}, {"time": 2664, "pitch": 72, "duration": 30, "velocity": 90}, {"time": 2694, "pitch": 72, "duration": 12, "velocity": 99}, {"time": 2706, "pitch": 72, "duration": 12, "velocity": 97}, {"time": 2718, "pitch": 69, "duration": 6, "velocity": 84}, {"time": 2724, "pitch": 70, "duration": 6, "velocity": 86}, {"time": 2730, "pitch": 72, "duration": 12, "velocity": 90}, {"time": 2742, "pitch": 74, "duration": 6, "velocity": 95}, {"time": 2748, "pitch": 72, "duration": 6, "velocity": 81}, {"time": 2754, "pitch": 74, "duration": 6, "velocity": 77}, {"time": 2760, "pitch": 77, "duration": 6, "velocity": 69}, {"time": 2766, "pitch": 77, "duration": 6, "velocity": 85}, {"time": 2772, "pitch": 72, "duration": 17, "velocity": 84}, {"time": 2790, "pitch": 72, "duration": 12, "velocity": 80}, {"time": 2802, "pitch": 72, "duration": 12, "velocity": 84}, {"time": 2814, "pitch": 69, "duration": 6, "velocity": 81}, {"time": 2820, "pitch": 70, "duration": 6, "velocity": 84}, {"time": 2826, "pitch": 72, "duration": 12, "velocity": 79}, {"time": 2838, "pitch": 70, "duration": 6, "velocity": 80}, {"time": 2844, "pitch": 69, "duration": 6, "velocity": 77}, {"time": 2850, "pitch": 67, "duration": 6, "velocity": 62}, {"time": 2856, "pitch": 70, "duration": 6, "velocity": 64}, {"time": 2862, "pitch": 67, "duration": 24, "velocity": 62}, {"time": 2886, "pitch": 72, "duration": 6, "velocity": 79}, {"time": 2892, "pitch": 72, "duration": 6, "velocity": 82}, {"time": 2898, "pitch": 72, "duration": 12, "velocity": 82}, {"time": 2910, "pitch": 69, "duration": 6, "velocity": 79}, {"time": 2916, "pitch": 70, "duration": 6, "velocity": 76}, {"time": 2922, "pitch": 72, "duration": 12, "velocity": 81}, {"time": 2934, "pitch": 74, "duration": 12, "velocity": 82}, {"time": 2946, "pitch": 77, "duration": 12, "velocity": 93}, {"time": 2958, "pitch": 79, "duration": 24, "velocity": 97}, {"time": 2982, "pitch": 81, "duration": 6, "velocity": 93}, {"time": 2988, "pitch": 81, "duration": 18, "velocity": 95}, {"time": 3006, "pitch": 84, "duration": 6, "velocity": 98}, {"time": 3012, "pitch": 84, "duration": 18, "velocity": 98}, {"time": 3030, "pitch": 74, "duration": 6, "velocity": 93}, {"time": 3036, "pitch": 77, "duration": 5, "velocity": 86}, {"time": 3042, "pitch": 77, "duration": 6, "velocity": 87}, {"time": 3048, "pitch": 77, "duration": 6, "velocity": 89}, {"time": 3054, "pitch": 79, "duration": 23, "velocity": 108}, {"time": 3078, "pitch": 81, "duration": 12, "velocity": 105}, {"time": 3090, "pitch": 81, "duration": 12, "velocity": 97}, {"time": 3102, "pitch": 77, "duration": 12, "velocity": 96}, {"time": 3114, "pitch": 77, "duration": 12, "velocity": 97}, {"time": 3126, "pitch": 72, "duration": 6, "velocity": 98}, {"time": 3132, "pitch": 72, "duration": 12, "velocity": 94}, {"time": 3144, "pitch": 72, "duration": 6, "velocity": 96}, {"time": 3150, "pitch": 72, "duration": 24, "velocity": 98}, {"time": 3174, "pitch": 81, "duration": 12, "velocity": 98}, {"time": 3186, "pitch": 81, "duration": 12, "velocity": 97}, {"time": 3198, "pitch": 79, "duration": 6, "velocity": 90}, {"time": 3204, "pitch": 77, "duration": 6, "velocity": 66}, {"time": 3210, "pitch": 77, "duration": 6, "velocity": 66}, {"time": 3216, "pitch": 81, "duration": 54, "velocity": 94}, {"time": 3270, "pitch": 81, "duration": 12, "velocity": 99}, {"time": 3282, "pitch": 81, "duration": 12, "velocity": 95}, {"time": 3294, "pitch": 79, "duration": 6, "velocity": 87}, {"time": 3300, "pitch": 77, "duration": 6, "velocity": 64}, {"time": 3306, "pitch": 77, "duration": 12, "velocity": 77}, {"time": 3318, "pitch": 72, "duration": 6, "velocity": 95}, {"time": 3324, "pitch": 72, "duration": 12, "velocity": 91}, {"time": 3336, "pitch": 72, "duration": 6, "velocity": 94}, {"time": 3342, "pitch": 72, "duration": 24, "velocity": 98}, {"time": 3366, "pitch": 79, "duration": 6, "velocity": 94}, {"time": 3372, "pitch": 79, "duration": 6, "velocity": 90}, {"time": 3378, "pitch": 79, "duration": 6, "velocity": 84}, {"time": 3384, "pitch": 77, "duration": 5, "velocity": 85}, {"time": 3390, "pitch": 74, "duration": 12, "velocity": 77}, {"time": 3402, "pitch": 81, "duration": 12, "velocity": 97}, {"time": 3414, "pitch": 79, "duration": 48, "velocity": 99}, {"time": 3462, "pitch": 81, "duration": 12, "velocity": 100}, {"time": 3474, "pitch": 81, "duration": 12, "velocity": 96}, {"time": 3486, "pitch": 79, "duration": 6, "velocity": 87}, {"time": 3492, "pitch": 77, "duration": 6, "velocity": 87}, {"time": 3498, "pitch": 77, "duration": 12, "velocity": 90}, {"time": 3510, "pitch": 72, "duration": 6, "velocity": 85}, {"time": 3516, "pitch": 72, "duration": 12, "velocity": 77}, {"time": 3528, "pitch": 69, "duration": 6, "velocity": 93}, {"time": 3534, "pitch": 72, "duration": 24, "velocity": 93}, {"time": 3558, "pitch": 81, "duration": 12, "velocity": 97}, {"time": 3570, "pitch": 81, "duration": 12, "velocity": 97}, {"time": 3582, "pitch": 79, "duration": 6, "velocity": 93}, {"time": 3588, "pitch": 77, "duration": 6, "velocity": 69}, {"time": 3594, "pitch": 77, "duration": 6, "velocity": 87}, {"time": 3600, "pitch": 81, "duration": 54, "velocity": 98}, {"time": 3654, "pitch": 81, "duration": 12, "velocity": 101}, {"time": 3666, "pitch": 81, "duration": 12, "velocity": 94}, {"time": 3678, "pitch": 79, "duration": 7, "velocity": 87}, {"time": 3684, "pitch": 77, "duration": 6, "velocity": 67}, {"time": 3690, "pitch": 77, "duration": 12, "velocity": 79}, {"time": 3702, "pitch": 72, "duration": 6, "velocity": 83}, {"time": 3708, "pitch": 72, "duration": 12, "velocity": 81}, {"time": 3720, "pitch": 72, "duration": 6, "velocity": 91}, {"time": 3726, "pitch": 72, "duration": 24, "velocity": 86}, {"time": 3750, "pitch": 77, "duration": 6, "velocity": 90}, {"time": 3756, "pitch": 79, "duration": 5, "velocity": 87}, {"time": 3762, "pitch": 79, "duration": 6, "velocity": 84}, {"time": 3768, "pitch": 77, "duration": 5, "velocity": 64}, {"time": 3774, "pitch": 74, "duration": 12, "velocity": 77}, {"time": 3786, "pitch": 76, "duration": 12, "velocity": 91}, {"time": 3798, "pitch": 77, "duration": 35, "velocity": 97}, {"time": 3846, "pitch": 81, "duration": 12, "velocity": 105}, {"time": 3858, "pitch": 81, "duration": 12, "velocity": 97}, {"time": 3870, "pitch": 77, "duration": 12, "velocity": 96}, {"time": 3882, "pitch": 77, "duration": 12, "velocity": 97}, {"time": 3894, "pitch": 72, "duration": 6, "velocity": 98}, {"time": 3900, "pitch": 72, "duration": 12, "velocity": 94}, {"time": 3912, "pitch": 72, "duration": 6, "velocity": 96}, {"time": 3918, "pitch": 72, "duration": 24, "velocity": 98}, {"time": 3942, "pitch": 81, "duration": 12, "velocity": 98}, {"time": 3954, "pitch": 81, "duration": 12, "velocity": 97}, {"time": 3966, "pitch": 79, "duration": 6, "velocity": 90}, {"time": 3972, "pitch": 77, "duration": 6, "velocity": 66}, {"time": 3978, "pitch": 77, "duration": 6, "velocity": 66}, {"time": 3984, "pitch": 81, "duration": 54, "velocity": 94}, {"time": 4038, "pitch": 81, "duration": 12, "velocity": 99}, {"time": 4050, "pitch": 81, "duration": 12, "velocity": 95}, {"time": 4062, "pitch": 79, "duration": 6, "velocity": 87}, {"time": 4068, "pitch": 77, "duration": 6, "velocity": 64}, {"time": 4074, "pitch": 77, "duration": 12, "velocity": 77}, {"time": 4086, "pitch": 72, "duration": 6, "velocity": 95}, {"time": 4092, "pitch": 72, "duration": 12, "velocity": 91}, {"time": 4104, "pitch": 72, "duration": 6, "velocity": 94}, {"time": 4110, "pitch": 72, "duration": 24, "velocity": 98}, {"time": 4134, "pitch": 79, "duration": 6, "velocity": 94}, {"time": 4140, "pitch": 79, "duration": 6, "velocity": 90}, {"time": 4146, "pitch": 79, "duration": 6, "velocity": 84}, {"time": 4152, "pitch": 77, "duration": 5, "velocity": 85}, {"time": 4158, "pitch": 74, "duration": 12, "velocity": 77}, {"time": 4170, "pitch": 76, "duration": 12, "velocity": 97}, {"time": 4182, "pitch": 77, "duration": 48, "velocity": 99}], "annotations": [{"time": 1310, "annotation": {"number": 1, "value": 0}, "group": "control_change"}, {"time": 1360, "annotation": {"number": 1, "value": 0}, "group": "control_change"}, {"time": 1361, "annotation": {"number": 1, "value": 1}, "group": "control_change"}, {"time": 3230, "annotation": {"number": 1, "value": 0}, "group": "control_change"}, {"time": 3280, "annotation": {"number": 1, "value": 0}, "group": "control_change"}, {"time": 3281, "annotation": {"number": 1, "value": 1}, "group": "control_change"}, {"time": 3997, "annotation": {"number": 1, "value": 0}, "group": "control_change"}, {"time": 4047, "annotation": {"number": 1, "value": 0}, "group": "control_change"}, {"time": 4048, "annotation": {"number": 1, "value": 1}, "group": "control_change"}]}, {"program": 0, "is_drum": false, "name": "PIANO", "notes": [{"time": 6, "pitch": 46, "duration": 14, "velocity": 84}, {"time": 6, "pitch": 58, "duration": 14, "velocity": 80}, {"time": 6, "pitch": 62, "duration": 6, "velocity": 78}, {"time": 6, "pitch": 65, "duration": 6, "velocity": 68}, {"time": 6, "pitch": 70, "duration": 6, "velocity": 79}, {"time": 18, "pitch": 62, "duration": 14, "velocity": 78}, {"time": 18, "pitch": 65, "duration": 13, "velocity": 79}, {"time": 18, "pitch": 70, "duration": 11, "velocity": 79}, {"time": 24, "pitch": 46, "duration": 3, "velocity": 83}, {"time": 24, "pitch": 58, "duration": 2, "velocity": 62}, {"time": 30, "pitch": 53, "duration": 6, "velocity": 78}, {"time": 36, "pitch": 62, "duration": 7, "velocity": 79}, {"time": 36, "pitch": 65, "duration": 8, "velocity": 82}, {"time": 36, "pitch": 70, "duration": 7, "velocity": 83}, {"time": 42, "pitch": 53, "duration": 2, "velocity": 82}, {"time": 48, "pitch": 67, "duration": 5, "velocity": 73}, {"time": 54, "pitch": 41, "duration": 13, "velocity": 83}, {"time": 54, "pitch": 53, "duration": 14, "velocity": 75}, {"time": 54, "pitch": 60, "duration": 6, "velocity": 61}, {"time": 54, "pitch": 65, "duration": 6, "velocity": 78}, {"time": 54, "pitch": 69, "duration": 7, "velocity": 77}, {"time": 66, "pitch": 60, "duration": 12, "velocity": 72}, {"time": 66, "pitch": 65, "duration": 12, "velocity": 79}, {"time": 66, "pitch": 69, "duration": 12, "velocity": 73}, {"time": 72, "pitch": 41, "duration": 3, "velocity": 80}, {"time": 72, "pitch": 53, "duration": 2, "velocity": 58}, {"time": 78, "pitch": 48, "duration": 6, "velocity": 82}, {"time": 84, "pitch": 60, "duration": 8, "velocity": 82}, {"time": 84, "pitch": 65, "duration": 9, "velocity": 75}, {"time": 84, "pitch": 69, "duration": 9, "velocity": 79}, {"time": 90, "pitch": 48, "duration": 4, "velocity": 83}, {"time": 90, "pitch": 53, "duration": 2, "velocity": 67}, {"time": 96, "pitch": 67, "duration": 2, "velocity": 71}, {"time": 102, "pitch": 43, "duration": 14, "velocity": 86}, {"time": 102, "pitch": 55, "duration": 14, "velocity": 76}, {"time": 102, "pitch": 62, "duration": 4, "velocity": 68}, {"time": 102, "pitch": 65, "duration": 4, "velocity": 79}, {"time": 102, "pitch": 70, "duration": 5, "velocity": 80}, {"time": 114, "pitch": 62, "duration": 12, "velocity": 80}, {"time": 114, "pitch": 65, "duration": 11, "velocity": 81}, {"time": 114, "pitch": 70, "duration": 10, "velocity": 81}, {"time": 120, "pitch": 43, "duration": 2, "velocity": 55}, {"time": 120, "pitch": 55, "duration": 2, "velocity": 54}, {"time": 126, "pitch": 48, "duration": 8, "velocity": 84}, {"time": 132, "pitch": 60, "duration": 8, "velocity": 79}, {"time": 132, "pitch": 64, "duration": 9, "velocity": 81}, {"time": 132, "pitch": 67, "duration": 10, "velocity": 79}, {"time": 132, "pitch": 72, "duration": 9, "velocity": 80}, {"time": 138, "pitch": 48, "duration": 4, "velocity": 80}, {"time": 144, "pitch": 60, "duration": 2, "velocity": 62}, {"time": 150, "pitch": 41, "duration": 14, "velocity": 78}, {"time": 150, "pitch": 53, "duration": 13, "velocity": 69}, {"time": 150, "pitch": 60, "duration": 4, "velocity": 79}, {"time": 150, "pitch": 65, "duration": 4, "velocity": 71}, {"time": 150, "pitch": 69, "duration": 4, "velocity": 71}, {"time": 162, "pitch": 60, "duration": 12, "velocity": 84}, {"time": 162, "pitch": 65, "duration": 11, "velocity": 84}, {"time": 162, "pitch": 69, "duration": 11, "velocity": 78}, {"time": 168, "pitch": 41, "duration": 3, "velocity": 82}, {"time": 168, "pitch": 53, "duration": 2, "velocity": 57}, {"time": 174, "pitch": 48, "duration": 5, "velocity": 79}, {"time": 180, "pitch": 60, "duration": 3, "velocity": 75}, {"time": 180, "pitch": 65, "duration": 4, "velocity": 82}, {"time": 180, "pitch": 69, "duration": 10, "velocity": 73}, {"time": 186, "pitch": 43, "duration": 7, "velocity": 78}, {"time": 192, "pitch": 45, "duration": 7, "velocity": 72}, {"time": 198, "pitch": 46, "duration": 13, "velocity": 82}, {"time": 198, "pitch": 62, "duration": 5, "velocity": 79}, {"time": 198, "pitch": 65, "duration": 5, "velocity": 84}, {"time": 198, "pitch": 70, "duration": 5, "velocity": 84}, {"time": 210, "pitch": 62, "duration": 11, "velocity": 80}, {"time": 210, "pitch": 65, "duration": 11, "velocity": 83}, {"time": 210, "pitch": 70, "duration": 10, "velocity": 81}, {"time": 216, "pitch": 46, "duration": 2, "velocity": 75}, {"time": 222, "pitch": 46, "duration": 7, "velocity": 82}, {"time": 228, "pitch": 62, "duration": 8, "velocity": 80}, {"time": 228, "pitch": 65, "duration": 9, "velocity": 83}, {"time": 228, "pitch": 70, "duration": 8, "velocity": 84}, {"time": 234, "pitch": 46, "duration": 4, "velocity": 78}, {"time": 240, "pitch": 67, "duration": 3, "velocity": 76}, {"time": 246, "pitch": 41, "duration": 13, "velocity": 80}, {"time": 246, "pitch": 60, "duration": 3, "velocity": 59}, {"time": 246, "pitch": 65, "duration": 3, "velocity": 71}, {"time": 246, "pitch": 67, "duration": 2, "velocity": 75}, {"time": 246, "pitch": 69, "duration": 4, "velocity": 72}, {"time": 258, "pitch": 60, "duration": 12, "velocity": 80}, {"time": 258, "pitch": 65, "duration": 12, "velocity": 84}, {"time": 258, "pitch": 69, "duration": 11, "velocity": 75}, {"time": 264, "pitch": 41, "duration": 3, "velocity": 80}, {"time": 270, "pitch": 48, "duration": 7, "velocity": 78}, {"time": 276, "pitch": 60, "duration": 12, "velocity": 69}, {"time": 276, "pitch": 65, "duration": 12, "velocity": 76}, {"time": 276, "pitch": 69, "duration": 13, "velocity": 73}, {"time": 282, "pitch": 41, "duration": 7, "velocity": 79}, {"time": 294, "pitch": 36, "duration": 13, "velocity": 98}, {"time": 306, "pitch": 60, "duration": 12, "velocity": 79}, {"time": 306, "pitch": 64, "duration": 12, "velocity": 69}, {"time": 306, "pitch": 67, "duration": 12, "velocity": 72}, {"time": 306, "pitch": 72, "duration": 11, "velocity": 78}, {"time": 312, "pitch": 36, "duration": 2, "velocity": 83}, {"time": 318, "pitch": 36, "duration": 8, "velocity": 94}, {"time": 324, "pitch": 60, "duration": 7, "velocity": 82}, {"time": 324, "pitch": 64, "duration": 6, "velocity": 79}, {"time": 324, "pitch": 67, "duration": 8, "velocity": 75}, {"time": 324, "pitch": 72, "duration": 8, "velocity": 84}, {"time": 330, "pitch": 40, "duration": 3, "velocity": 83}, {"time": 336, "pitch": 60, "duration": 1, "velocity": 50}, {"time": 342, "pitch": 41, "duration": 8, "velocity": 84}, {"time": 342, "pitch": 60, "duration": 8, "velocity": 91}, {"time": 342, "pitch": 65, "duration": 8, "velocity": 86}, {"time": 342, "pitch": 69, "duration": 8, "velocity": 84}, {"time": 360, "pitch": 36, "duration": 3, "velocity": 101}, {"time": 360, "pitch": 48, "duration": 2, "velocity": 84}, {"time": 360, "pitch": 60, "duration": 3, "velocity": 83}, {"time": 360, "pitch": 64, "duration": 3, "velocity": 91}, {"time": 366, "pitch": 41, "duration": 4, "velocity": 93}, {"time": 366, "pitch": 60, "duration": 4, "velocity": 84}, {"time": 366, "pitch": 65, "duration": 4, "velocity": 90}, {"time": 366, "pitch": 69, "duration": 5, "velocity": 81}, {"time": 390, "pitch": 41, "duration": 17, "velocity": 86}, {"time": 390, "pitch": 53, "duration": 18, "velocity": 79}, {"time": 402, "pitch": 60, "duration": 2, "velocity": 83}, {"time": 402, "pitch": 65, "duration": 2, "velocity": 80}, {"time": 402, "pitch": 69, "duration": 3, "velocity": 84}, {"time": 408, "pitch": 60, "duration": 3, "velocity": 84}, {"time": 408, "pitch": 65, "duration": 2, "velocity": 86}, {"time": 408, "pitch": 69, "duration": 3, "velocity": 84}, {"time": 414, "pitch": 48, "duration": 11, "velocity": 79}, {"time": 426, "pitch": 60, "duration": 3, "velocity": 90}, {"time": 426, "pitch": 65, "duration": 2, "velocity": 86}, {"time": 426, "pitch": 69, "duration": 3, "velocity": 84}, {"time": 438, "pitch": 46, "duration": 17, "velocity": 90}, {"time": 438, "pitch": 58, "duration": 17, "velocity": 82}, {"time": 450, "pitch": 62, "duration": 2, "velocity": 80}, {"time": 450, "pitch": 65, "duration": 2, "velocity": 78}, {"time": 450, "pitch": 70, "duration": 2, "velocity": 79}, {"time": 456, "pitch": 62, "duration": 4, "velocity": 83}, {"time": 456, "pitch": 65, "duration": 3, "velocity": 81}, {"time": 456, "pitch": 70, "duration": 4, "velocity": 90}, {"time": 462, "pitch": 48, "duration": 14, "velocity": 83}, {"time": 474, "pitch": 60, "duration": 2, "velocity": 90}, {"time": 474, "pitch": 64, "duration": 2, "velocity": 86}, {"time": 474, "pitch": 67, "duration": 2, "velocity": 90}, {"time": 486, "pitch": 41, "duration": 15, "velocity": 82}, {"time": 486, "pitch": 53, "duration": 16, "velocity": 71}, {"time": 498, "pitch": 60, "duration": 3, "velocity": 82}, {"time": 498, "pitch": 65, "duration": 3, "velocity": 84}, {"time": 498, "pitch": 69, "duration": 3, "velocity": 79}, {"time": 504, "pitch": 41, "duration": 3, "velocity": 75}, {"time": 504, "pitch": 53, "duration": 1, "velocity": 44}, {"time": 504, "pitch": 60, "duration": 2, "velocity": 20}, {"time": 504, "pitch": 69, "duration": 2, "velocity": 37}, {"time": 510, "pitch": 48, "duration": 15, "velocity": 84}, {"time": 522, "pitch": 60, "duration": 3, "velocity": 84}, {"time": 522, "pitch": 65, "duration": 3, "velocity": 86}, {"time": 522, "pitch": 69, "duration": 4, "velocity": 81}, {"time": 534, "pitch": 46, "duration": 13, "velocity": 79}, {"time": 546, "pitch": 62, "duration": 2, "velocity": 83}, {"time": 546, "pitch": 65, "duration": 2, "velocity": 82}, {"time": 546, "pitch": 70, "duration": 3, "velocity": 86}, {"time": 552, "pitch": 46, "duration": 2, "velocity": 73}, {"time": 552, "pitch": 62, "duration": 2, "velocity": 62}, {"time": 552, "pitch": 65, "duration": 2, "velocity": 69}, {"time": 552, "pitch": 70, "duration": 3, "velocity": 82}, {"time": 558, "pitch": 48, "duration": 11, "velocity": 82}, {"time": 570, "pitch": 60, "duration": 2, "velocity": 83}, {"time": 570, "pitch": 64, "duration": 2, "velocity": 68}, {"time": 570, "pitch": 67, "duration": 2, "velocity": 79}, {"time": 582, "pitch": 41, "duration": 17, "velocity": 86}, {"time": 582, "pitch": 53, "duration": 18, "velocity": 79}, {"time": 594, "pitch": 60, "duration": 2, "velocity": 83}, {"time": 594, "pitch": 65, "duration": 2, "velocity": 80}, {"time": 594, "pitch": 69, "duration": 3, "velocity": 84}, {"time": 600, "pitch": 60, "duration": 3, "velocity": 84}, {"time": 600, "pitch": 65, "duration": 2, "velocity": 86}, {"time": 600, "pitch": 69, "duration": 3, "velocity": 84}, {"time": 606, "pitch": 48, "duration": 11, "velocity": 79}, {"time": 618, "pitch": 60, "duration": 3, "velocity": 90}, {"time": 618, "pitch": 65, "duration": 2, "velocity": 86}, {"time": 618, "pitch": 69, "duration": 3, "velocity": 84}, {"time": 630, "pitch": 46, "duration": 17, "velocity": 90}, {"time": 630, "pitch": 58, "duration": 17, "velocity": 82}, {"time": 642, "pitch": 62, "duration": 2, "velocity": 80}, {"time": 642, "pitch": 65, "duration": 2, "velocity": 78}, {"time": 642, "pitch": 70, "duration": 2, "velocity": 79}, {"time": 648, "pitch": 62, "duration": 4, "velocity": 83}, {"time": 648, "pitch": 65, "duration": 3, "velocity": 81}, {"time": 648, "pitch": 70, "duration": 4, "velocity": 90}, {"time": 654, "pitch": 48, "duration": 14, "velocity": 83}, {"time": 666, "pitch": 60, "duration": 2, "velocity": 90}, {"time": 666, "pitch": 64, "duration": 2, "velocity": 86}, {"time": 666, "pitch": 67, "duration": 2, "velocity": 90}, {"time": 678, "pitch": 41, "duration": 12, "velocity": 84}, {"time": 678, "pitch": 53, "duration": 13, "velocity": 72}, {"time": 678, "pitch": 60, "duration": 4, "velocity": 75}, {"time": 678, "pitch": 65, "duration": 4, "velocity": 80}, {"time": 678, "pitch": 69, "duration": 4, "velocity": 79}, {"time": 690, "pitch": 60, "duration": 9, "velocity": 82}, {"time": 690, "pitch": 65, "duration": 8, "velocity": 80}, {"time": 690, "pitch": 69, "duration": 9, "velocity": 79}, {"time": 696, "pitch": 41, "duration": 3, "velocity": 76}, {"time": 696, "pitch": 53, "duration": 2, "velocity": 51}, {"time": 702, "pitch": 48, "duration": 13, "velocity": 86}, {"time": 714, "pitch": 60, "duration": 6, "velocity": 80}, {"time": 714, "pitch": 64, "duration": 5, "velocity": 71}, {"time": 714, "pitch": 67, "duration": 7, "velocity": 83}, {"time": 720, "pitch": 48, "duration": 4, "velocity": 80}, {"time": 726, "pitch": 46, "duration": 4, "velocity": 78}, {"time": 726, "pitch": 62, "duration": 4, "velocity": 80}, {"time": 726, "pitch": 65, "duration": 4, "velocity": 81}, {"time": 726, "pitch": 70, "duration": 4, "velocity": 90}, {"time": 738, "pitch": 36, "duration": 3, "velocity": 86}, {"time": 738, "pitch": 48, "duration": 4, "velocity": 82}, {"time": 738, "pitch": 60, "duration": 3, "velocity": 78}, {"time": 738, "pitch": 64, "duration": 3, "velocity": 79}, {"time": 738, "pitch": 67, "duration": 4, "velocity": 79}, {"time": 750, "pitch": 41, "duration": 9, "velocity": 80}, {"time": 750, "pitch": 53, "duration": 7, "velocity": 68}, {"time": 750, "pitch": 60, "duration": 8, "velocity": 86}, {"time": 750, "pitch": 65, "duration": 8, "velocity": 84}, {"time": 750, "pitch": 69, "duration": 9, "velocity": 80}, {"time": 774, "pitch": 41, "duration": 17, "velocity": 86}, {"time": 774, "pitch": 53, "duration": 18, "velocity": 79}, {"time": 786, "pitch": 60, "duration": 2, "velocity": 83}, {"time": 786, "pitch": 65, "duration": 2, "velocity": 80}, {"time": 786, "pitch": 69, "duration": 3, "velocity": 84}, {"time": 792, "pitch": 60, "duration": 3, "velocity": 84}, {"time": 792, "pitch": 65, "duration": 2, "velocity": 86}, {"time": 792, "pitch": 69, "duration": 3, "velocity": 84}, {"time": 798, "pitch": 48, "duration": 11, "velocity": 79}, {"time": 810, "pitch": 60, "duration": 3, "velocity": 90}, {"time": 810, "pitch": 65, "duration": 2, "velocity": 86}, {"time": 810, "pitch": 69, "duration": 3, "velocity": 84}, {"time": 822, "pitch": 46, "duration": 17, "velocity": 90}, {"time": 822, "pitch": 58, "duration": 17, "velocity": 82}, {"time": 834, "pitch": 62, "duration": 2, "velocity": 80}, {"time": 834, "pitch": 65, "duration": 2, "velocity": 78}, {"time": 834, "pitch": 70, "duration": 2, "velocity": 79}, {"time": 840, "pitch": 62, "duration": 4, "velocity": 83}, {"time": 840, "pitch": 65, "duration": 3, "velocity": 81}, {"time": 840, "pitch": 70, "duration": 4, "velocity": 90}, {"time": 846, "pitch": 48, "duration": 14, "velocity": 83}, {"time": 858, "pitch": 60, "duration": 2, "velocity": 90}, {"time": 858, "pitch": 64, "duration": 2, "velocity": 86}, {"time": 858, "pitch": 67, "duration": 2, "velocity": 90}, {"time": 870, "pitch": 41, "duration": 15, "velocity": 82}, {"time": 870, "pitch": 53, "duration": 16, "velocity": 71}, {"time": 882, "pitch": 60, "duration": 3, "velocity": 82}, {"time": 882, "pitch": 65, "duration": 3, "velocity": 84}, {"time": 882, "pitch": 69, "duration": 3, "velocity": 79}, {"time": 888, "pitch": 41, "duration": 3, "velocity": 75}, {"time": 888, "pitch": 53, "duration": 1, "velocity": 44}, {"time": 888, "pitch": 60, "duration": 2, "velocity": 20}, {"time": 888, "pitch": 69, "duration": 2, "velocity": 37}, {"time": 894, "pitch": 48, "duration": 15, "velocity": 84}, {"time": 906, "pitch": 60, "duration": 3, "velocity": 84}, {"time": 906, "pitch": 65, "duration": 3, "velocity": 86}, {"time": 906, "pitch": 69, "duration": 4, "velocity": 81}, {"time": 918, "pitch": 46, "duration": 13, "velocity": 79}, {"time": 930, "pitch": 62, "duration": 2, "velocity": 83}, {"time": 930, "pitch": 65, "duration": 2, "velocity": 82}, {"time": 930, "pitch": 70, "duration": 3, "velocity": 86}, {"time": 936, "pitch": 46, "duration": 2, "velocity": 73}, {"time": 936, "pitch": 62, "duration": 2, "velocity": 62}, {"time": 936, "pitch": 65, "duration": 2, "velocity": 69}, {"time": 936, "pitch": 70, "duration": 3, "velocity": 82}, {"time": 942, "pitch": 48, "duration": 11, "velocity": 82}, {"time": 954, "pitch": 60, "duration": 2, "velocity": 83}, {"time": 954, "pitch": 64, "duration": 2, "velocity": 68}, {"time": 954, "pitch": 67, "duration": 2, "velocity": 79}, {"time": 966, "pitch": 41, "duration": 17, "velocity": 86}, {"time": 966, "pitch": 53, "duration": 18, "velocity": 79}, {"time": 978, "pitch": 60, "duration": 2, "velocity": 83}, {"time": 978, "pitch": 65, "duration": 2, "velocity": 80}, {"time": 978, "pitch": 69, "duration": 3, "velocity": 84}, {"time": 984, "pitch": 60, "duration": 3, "velocity": 84}, {"time": 984, "pitch": 65, "duration": 2, "velocity": 86}, {"time": 984, "pitch": 69, "duration": 3, "velocity": 84}, {"time": 990, "pitch": 48, "duration": 11, "velocity": 79}, {"time": 1002, "pitch": 60, "duration": 3, "velocity": 90}, {"time": 1002, "pitch": 65, "duration": 2, "velocity": 86}, {"time": 1002, "pitch": 69, "duration": 3, "velocity": 84}, {"time": 1014, "pitch": 46, "duration": 17, "velocity": 90}, {"time": 1014, "pitch": 58, "duration": 17, "velocity": 82}, {"time": 1026, "pitch": 62, "duration": 2, "velocity": 80}, {"time": 1026, "pitch": 65, "duration": 2, "velocity": 78}, {"time": 1026, "pitch": 70, "duration": 2, "velocity": 79}, {"time": 1032, "pitch": 62, "duration": 4, "velocity": 83}, {"time": 1032, "pitch": 65, "duration": 3, "velocity": 81}, {"time": 1032, "pitch": 70, "duration": 4, "velocity": 90}, {"time": 1038, "pitch": 48, "duration": 14, "velocity": 83}, {"time": 1050, "pitch": 60, "duration": 2, "velocity": 90}, {"time": 1050, "pitch": 64, "duration": 2, "velocity": 86}, {"time": 1050, "pitch": 67, "duration": 2, "velocity": 90}, {"time": 1062, "pitch": 41, "duration": 12, "velocity": 84}, {"time": 1062, "pitch": 53, "duration": 13, "velocity": 72}, {"time": 1062, "pitch": 60, "duration": 4, "velocity": 75}, {"time": 1062, "pitch": 65, "duration": 4, "velocity": 80}, {"time": 1062, "pitch": 69, "duration": 4, "velocity": 79}, {"time": 1074, "pitch": 60, "duration": 9, "velocity": 82}, {"time": 1074, "pitch": 65, "duration": 8, "velocity": 80}, {"time": 1074, "pitch": 69, "duration": 9, "velocity": 79}, {"time": 1077, "pitch": 41, "duration": 3, "velocity": 76}, {"time": 1080, "pitch": 53, "duration": 2, "velocity": 51}, {"time": 1086, "pitch": 48, "duration": 13, "velocity": 86}, {"time": 1098, "pitch": 60, "duration": 6, "velocity": 80}, {"time": 1098, "pitch": 64, "duration": 5, "velocity": 71}, {"time": 1098, "pitch": 67, "duration": 7, "velocity": 83}, {"time": 1104, "pitch": 48, "duration": 4, "velocity": 80}, {"time": 1110, "pitch": 46, "duration": 4, "velocity": 78}, {"time": 1110, "pitch": 62, "duration": 4, "velocity": 80}, {"time": 1110, "pitch": 65, "duration": 4, "velocity": 81}, {"time": 1110, "pitch": 70, "duration": 4, "velocity": 90}, {"time": 1122, "pitch": 36, "duration": 3, "velocity": 86}, {"time": 1122, "pitch": 48, "duration": 4, "velocity": 82}, {"time": 1122, "pitch": 60, "duration": 3, "velocity": 78}, {"time": 1122, "pitch": 64, "duration": 3, "velocity": 79}, {"time": 1122, "pitch": 67, "duration": 4, "velocity": 79}, {"time": 1134, "pitch": 36, "duration": 20, "velocity": 90}, {"time": 1134, "pitch": 48, "duration": 13, "velocity": 77}, {"time": 1134, "pitch": 60, "duration": 8, "velocity": 78}, {"time": 1134, "pitch": 64, "duration": 8, "velocity": 78}, {"time": 1134, "pitch": 67, "duration": 7, "velocity": 82}, {"time": 1134, "pitch": 72, "duration": 8, "velocity": 79}, {"time": 1146, "pitch": 60, "duration": 8, "velocity": 80}, {"time": 1146, "pitch": 64, "duration": 8, "velocity": 79}, {"time": 1146, "pitch": 67, "duration": 8, "velocity": 83}, {"time": 1146, "pitch": 72, "duration": 9, "velocity": 78}, {"time": 1152, "pitch": 48, "duration": 2, "velocity": 90}, {"time": 1158, "pitch": 46, "duration": 13, "velocity": 91}, {"time": 1158, "pitch": 58, "duration": 14, "velocity": 84}, {"time": 1158, "pitch": 62, "duration": 4, "velocity": 81}, {"time": 1158, "pitch": 65, "duration": 5, "velocity": 82}, {"time": 1158, "pitch": 70, "duration": 5, "velocity": 83}, {"time": 1170, "pitch": 62, "duration": 12, "velocity": 78}, {"time": 1170, "pitch": 65, "duration": 13, "velocity": 79}, {"time": 1170, "pitch": 70, "duration": 12, "velocity": 84}, {"time": 1176, "pitch": 46, "duration": 3, "velocity": 82}, {"time": 1176, "pitch": 58, "duration": 2, "velocity": 56}, {"time": 1182, "pitch": 53, "duration": 6, "velocity": 82}, {"time": 1188, "pitch": 62, "duration": 9, "velocity": 80}, {"time": 1188, "pitch": 65, "duration": 9, "velocity": 83}, {"time": 1188, "pitch": 70, "duration": 9, "velocity": 84}, {"time": 1194, "pitch": 53, "duration": 2, "velocity": 84}, {"time": 1200, "pitch": 67, "duration": 6, "velocity": 79}, {"time": 1206, "pitch": 41, "duration": 14, "velocity": 86}, {"time": 1206, "pitch": 53, "duration": 15, "velocity": 70}, {"time": 1206, "pitch": 60, "duration": 5, "velocity": 76}, {"time": 1206, "pitch": 65, "duration": 5, "velocity": 80}, {"time": 1206, "pitch": 69, "duration": 6, "velocity": 80}, {"time": 1218, "pitch": 60, "duration": 14, "velocity": 75}, {"time": 1218, "pitch": 65, "duration": 13, "velocity": 78}, {"time": 1218, "pitch": 69, "duration": 14, "velocity": 73}, {"time": 1224, "pitch": 41, "duration": 3, "velocity": 80}, {"time": 1224, "pitch": 53, "duration": 2, "velocity": 57}, {"time": 1230, "pitch": 48, "duration": 6, "velocity": 84}, {"time": 1236, "pitch": 60, "duration": 7, "velocity": 79}, {"time": 1236, "pitch": 65, "duration": 8, "velocity": 83}, {"time": 1236, "pitch": 69, "duration": 8, "velocity": 77}, {"time": 1242, "pitch": 48, "duration": 4, "velocity": 84}, {"time": 1248, "pitch": 60, "duration": 2, "velocity": 59}, {"time": 1248, "pitch": 67, "duration": 4, "velocity": 77}, {"time": 1254, "pitch": 62, "duration": 5, "velocity": 71}, {"time": 1254, "pitch": 65, "duration": 5, "velocity": 81}, {"time": 1254, "pitch": 70, "duration": 6, "velocity": 79}, {"time": 1257, "pitch": 46, "duration": 10, "velocity": 50}, {"time": 1266, "pitch": 62, "duration": 13, "velocity": 71}, {"time": 1266, "pitch": 65, "duration": 13, "velocity": 75}, {"time": 1266, "pitch": 70, "duration": 14, "velocity": 76}, {"time": 1272, "pitch": 46, "duration": 2, "velocity": 73}, {"time": 1278, "pitch": 36, "duration": 12, "velocity": 91}, {"time": 1290, "pitch": 60, "duration": 7, "velocity": 77}, {"time": 1290, "pitch": 64, "duration": 7, "velocity": 68}, {"time": 1290, "pitch": 67, "duration": 11, "velocity": 76}, {"time": 1302, "pitch": 41, "duration": 14, "velocity": 81}, {"time": 1302, "pitch": 53, "duration": 15, "velocity": 62}, {"time": 1302, "pitch": 60, "duration": 3, "velocity": 82}, {"time": 1302, "pitch": 65, "duration": 2, "velocity": 83}, {"time": 1302, "pitch": 69, "duration": 4, "velocity": 78}, {"time": 1314, "pitch": 60, "duration": 12, "velocity": 82}, {"time": 1314, "pitch": 65, "duration": 12, "velocity": 79}, {"time": 1314, "pitch": 69, "duration": 11, "velocity": 75}, {"time": 1320, "pitch": 41, "duration": 3, "velocity": 82}, {"time": 1320, "pitch": 53, "duration": 2, "velocity": 61}, {"time": 1326, "pitch": 41, "duration": 7, "velocity": 82}, {"time": 1326, "pitch": 53, "duration": 6, "velocity": 61}, {"time": 1332, "pitch": 60, "duration": 19, "velocity": 82}, {"time": 1332, "pitch": 65, "duration": 13, "velocity": 79}, {"time": 1332, "pitch": 69, "duration": 18, "velocity": 76}, {"time": 1338, "pitch": 43, "duration": 6, "velocity": 73}, {"time": 1344, "pitch": 45, "duration": 6, "velocity": 73}, {"time": 1350, "pitch": 46, "duration": 13, "velocity": 84}, {"time": 1362, "pitch": 62, "duration": 13, "velocity": 82}, {"time": 1362, "pitch": 65, "duration": 11, "velocity": 81}, {"time": 1362, "pitch": 70, "duration": 12, "velocity": 83}, {"time": 1368, "pitch": 46, "duration": 2, "velocity": 72}, {"time": 1374, "pitch": 46, "duration": 7, "velocity": 80}, {"time": 1380, "pitch": 62, "duration": 8, "velocity": 79}, {"time": 1380, "pitch": 65, "duration": 8, "velocity": 80}, {"time": 1380, "pitch": 70, "duration": 10, "velocity": 82}, {"time": 1386, "pitch": 46, "duration": 7, "velocity": 76}, {"time": 1392, "pitch": 67, "duration": 4, "velocity": 82}, {"time": 1398, "pitch": 41, "duration": 14, "velocity": 83}, {"time": 1398, "pitch": 53, "duration": 14, "velocity": 69}, {"time": 1398, "pitch": 60, "duration": 3, "velocity": 80}, {"time": 1398, "pitch": 65, "duration": 3, "velocity": 80}, {"time": 1398, "pitch": 69, "duration": 4, "velocity": 81}, {"time": 1410, "pitch": 60, "duration": 12, "velocity": 83}, {"time": 1410, "pitch": 65, "duration": 13, "velocity": 82}, {"time": 1410, "pitch": 69, "duration": 12, "velocity": 76}, {"time": 1416, "pitch": 41, "duration": 2, "velocity": 79}, {"time": 1416, "pitch": 53, "duration": 2, "velocity": 69}, {"time": 1422, "pitch": 41, "duration": 6, "velocity": 84}, {"time": 1422, "pitch": 53, "duration": 6, "velocity": 72}, {"time": 1428, "pitch": 60, "duration": 6, "velocity": 83}, {"time": 1428, "pitch": 65, "duration": 8, "velocity": 82}, {"time": 1428, "pitch": 69, "duration": 8, "velocity": 80}, {"time": 1434, "pitch": 42, "duration": 4, "velocity": 98}, {"time": 1434, "pitch": 54, "duration": 4, "velocity": 81}, {"time": 1440, "pitch": 65, "duration": 3, "velocity": 41}, {"time": 1440, "pitch": 69, "duration": 2, "velocity": 49}, {"time": 1446, "pitch": 43, "duration": 13, "velocity": 91}, {"time": 1446, "pitch": 55, "duration": 14, "velocity": 79}, {"time": 1446, "pitch": 62, "duration": 5, "velocity": 82}, {"time": 1446, "pitch": 67, "duration": 5, "velocity": 82}, {"time": 1446, "pitch": 71, "duration": 4, "velocity": 83}, {"time": 1458, "pitch": 62, "duration": 12, "velocity": 81}, {"time": 1458, "pitch": 67, "duration": 12, "velocity": 76}, {"time": 1458, "pitch": 71, "duration": 10, "velocity": 82}, {"time": 1464, "pitch": 43, "duration": 3, "velocity": 84}, {"time": 1464, "pitch": 55, "duration": 2, "velocity": 69}, {"time": 1470, "pitch": 48, "duration": 14, "velocity": 93}, {"time": 1482, "pitch": 60, "duration": 6, "velocity": 83}, {"time": 1482, "pitch": 64, "duration": 4, "velocity": 82}, {"time": 1482, "pitch": 67, "duration": 7, "velocity": 83}, {"time": 1494, "pitch": 36, "duration": 3, "velocity": 103}, {"time": 1494, "pitch": 48, "duration": 2, "velocity": 84}, {"time": 1494, "pitch": 60, "duration": 3, "velocity": 90}, {"time": 1494, "pitch": 64, "duration": 3, "velocity": 82}, {"time": 1494, "pitch": 67, "duration": 3, "velocity": 86}, {"time": 1506, "pitch": 36, "duration": 4, "velocity": 95}, {"time": 1506, "pitch": 48, "duration": 3, "velocity": 84}, {"time": 1506, "pitch": 60, "duration": 4, "velocity": 86}, {"time": 1506, "pitch": 64, "duration": 3, "velocity": 84}, {"time": 1506, "pitch": 67, "duration": 4, "velocity": 84}, {"time": 1518, "pitch": 38, "duration": 6, "velocity": 86}, {"time": 1518, "pitch": 60, "duration": 4, "velocity": 84}, {"time": 1518, "pitch": 65, "duration": 5, "velocity": 94}, {"time": 1530, "pitch": 40, "duration": 2, "velocity": 63}, {"time": 1530, "pitch": 60, "duration": 2, "velocity": 86}, {"time": 1530, "pitch": 67, "duration": 3, "velocity": 90}, {"time": 1542, "pitch": 46, "duration": 13, "velocity": 95}, {"time": 1542, "pitch": 58, "duration": 13, "velocity": 79}, {"time": 1542, "pitch": 62, "duration": 6, "velocity": 84}, {"time": 1542, "pitch": 65, "duration": 6, "velocity": 84}, {"time": 1542, "pitch": 70, "duration": 7, "velocity": 84}, {"time": 1554, "pitch": 62, "duration": 13, "velocity": 80}, {"time": 1554, "pitch": 65, "duration": 13, "velocity": 83}, {"time": 1554, "pitch": 70, "duration": 14, "velocity": 82}, {"time": 1560, "pitch": 46, "duration": 3, "velocity": 84}, {"time": 1560, "pitch": 58, "duration": 3, "velocity": 68}, {"time": 1566, "pitch": 53, "duration": 5, "velocity": 84}, {"time": 1572, "pitch": 62, "duration": 8, "velocity": 82}, {"time": 1572, "pitch": 65, "duration": 9, "velocity": 86}, {"time": 1572, "pitch": 70, "duration": 7, "velocity": 84}, {"time": 1578, "pitch": 53, "duration": 3, "velocity": 83}, {"time": 1584, "pitch": 67, "duration": 6, "velocity": 82}, {"time": 1590, "pitch": 41, "duration": 14, "velocity": 86}, {"time": 1590, "pitch": 53, "duration": 14, "velocity": 78}, {"time": 1590, "pitch": 60, "duration": 6, "velocity": 71}, {"time": 1590, "pitch": 65, "duration": 6, "velocity": 79}, {"time": 1590, "pitch": 69, "duration": 7, "velocity": 78}, {"time": 1602, "pitch": 60, "duration": 12, "velocity": 80}, {"time": 1602, "pitch": 65, "duration": 13, "velocity": 83}, {"time": 1602, "pitch": 69, "duration": 13, "velocity": 76}, {"time": 1608, "pitch": 41, "duration": 3, "velocity": 80}, {"time": 1608, "pitch": 53, "duration": 3, "velocity": 79}, {"time": 1614, "pitch": 48, "duration": 6, "velocity": 90}, {"time": 1620, "pitch": 60, "duration": 7, "velocity": 83}, {"time": 1620, "pitch": 65, "duration": 9, "velocity": 82}, {"time": 1620, "pitch": 69, "duration": 9, "velocity": 79}, {"time": 1626, "pitch": 48, "duration": 4, "velocity": 86}, {"time": 1632, "pitch": 67, "duration": 4, "velocity": 79}, {"time": 1638, "pitch": 43, "duration": 13, "velocity": 83}, {"time": 1638, "pitch": 55, "duration": 14, "velocity": 71}, {"time": 1638, "pitch": 62, "duration": 4, "velocity": 75}, {"time": 1638, "pitch": 65, "duration": 5, "velocity": 84}, {"time": 1638, "pitch": 70, "duration": 5, "velocity": 79}, {"time": 1650, "pitch": 62, "duration": 11, "velocity": 82}, {"time": 1650, "pitch": 65, "duration": 11, "velocity": 84}, {"time": 1650, "pitch": 70, "duration": 12, "velocity": 84}, {"time": 1656, "pitch": 43, "duration": 3, "velocity": 80}, {"time": 1656, "pitch": 55, "duration": 2, "velocity": 53}, {"time": 1662, "pitch": 48, "duration": 8, "velocity": 84}, {"time": 1668, "pitch": 60, "duration": 8, "velocity": 90}, {"time": 1668, "pitch": 64, "duration": 8, "velocity": 86}, {"time": 1668, "pitch": 67, "duration": 11, "velocity": 83}, {"time": 1674, "pitch": 48, "duration": 3, "velocity": 84}, {"time": 1680, "pitch": 65, "duration": 4, "velocity": 79}, {"time": 1686, "pitch": 41, "duration": 14, "velocity": 90}, {"time": 1686, "pitch": 53, "duration": 14, "velocity": 78}, {"time": 1686, "pitch": 60, "duration": 7, "velocity": 82}, {"time": 1686, "pitch": 65, "duration": 7, "velocity": 82}, {"time": 1686, "pitch": 69, "duration": 8, "velocity": 78}, {"time": 1698, "pitch": 60, "duration": 1, "velocity": 79}, {"time": 1698, "pitch": 65, "duration": 2, "velocity": 86}, {"time": 1698, "pitch": 69, "duration": 3, "velocity": 81}, {"time": 1704, "pitch": 41, "duration": 3, "velocity": 86}, {"time": 1704, "pitch": 53, "duration": 3, "velocity": 76}, {"time": 1710, "pitch": 41, "duration": 13, "velocity": 81}, {"time": 1710, "pitch": 53, "duration": 5, "velocity": 61}, {"time": 1716, "pitch": 69, "duration": 4, "velocity": 84}, {"time": 1716, "pitch": 72, "duration": 1, "velocity": 50}, {"time": 1716, "pitch": 77, "duration": 5, "velocity": 93}, {"time": 1722, "pitch": 53, "duration": 4, "velocity": 82}, {"time": 1722, "pitch": 67, "duration": 3, "velocity": 84}, {"time": 1722, "pitch": 76, "duration": 4, "velocity": 82}, {"time": 1722, "pitch": 77, "duration": 1, "velocity": 59}, {"time": 1728, "pitch": 72, "duration": 4, "velocity": 93}, {"time": 1734, "pitch": 46, "duration": 14, "velocity": 84}, {"time": 1734, "pitch": 58, "duration": 14, "velocity": 84}, {"time": 1734, "pitch": 70, "duration": 7, "velocity": 91}, {"time": 1734, "pitch": 74, "duration": 8, "velocity": 86}, {"time": 1746, "pitch": 70, "duration": 10, "velocity": 94}, {"time": 1746, "pitch": 74, "duration": 9, "velocity": 83}, {"time": 1752, "pitch": 46, "duration": 3, "velocity": 91}, {"time": 1752, "pitch": 58, "duration": 2, "velocity": 73}, {"time": 1758, "pitch": 53, "duration": 7, "velocity": 83}, {"time": 1764, "pitch": 62, "duration": 7, "velocity": 78}, {"time": 1764, "pitch": 65, "duration": 9, "velocity": 83}, {"time": 1764, "pitch": 70, "duration": 8, "velocity": 71}, {"time": 1770, "pitch": 46, "duration": 2, "velocity": 90}, {"time": 1770, "pitch": 53, "duration": 2, "velocity": 84}, {"time": 1776, "pitch": 67, "duration": 3, "velocity": 79}, {"time": 1782, "pitch": 48, "duration": 8, "velocity": 86}, {"time": 1782, "pitch": 60, "duration": 4, "velocity": 86}, {"time": 1782, "pitch": 65, "duration": 4, "velocity": 83}, {"time": 1782, "pitch": 69, "duration": 5, "velocity": 80}, {"time": 1794, "pitch": 60, "duration": 14, "velocity": 86}, {"time": 1794, "pitch": 65, "duration": 15, "velocity": 71}, {"time": 1794, "pitch": 69, "duration": 15, "velocity": 78}, {"time": 1800, "pitch": 41, "duration": 3, "velocity": 84}, {"time": 1806, "pitch": 41, "duration": 7, "velocity": 90}, {"time": 1812, "pitch": 60, "duration": 6, "velocity": 83}, {"time": 1812, "pitch": 65, "duration": 8, "velocity": 84}, {"time": 1812, "pitch": 69, "duration": 8, "velocity": 78}, {"time": 1818, "pitch": 41, "duration": 8, "velocity": 86}, {"time": 1824, "pitch": 65, "duration": 3, "velocity": 32}, {"time": 1824, "pitch": 67, "duration": 1, "velocity": 69}, {"time": 1830, "pitch": 43, "duration": 12, "velocity": 84}, {"time": 1830, "pitch": 55, "duration": 13, "velocity": 76}, {"time": 1830, "pitch": 62, "duration": 5, "velocity": 83}, {"time": 1830, "pitch": 67, "duration": 5, "velocity": 80}, {"time": 1830, "pitch": 70, "duration": 5, "velocity": 84}, {"time": 1842, "pitch": 62, "duration": 11, "velocity": 82}, {"time": 1842, "pitch": 67, "duration": 10, "velocity": 80}, {"time": 1842, "pitch": 70, "duration": 10, "velocity": 86}, {"time": 1845, "pitch": 43, "duration": 3, "velocity": 79}, {"time": 1845, "pitch": 55, "duration": 2, "velocity": 54}, {"time": 1851, "pitch": 48, "duration": 9, "velocity": 84}, {"time": 1857, "pitch": 60, "duration": 9, "velocity": 90}, {"time": 1857, "pitch": 64, "duration": 6, "velocity": 90}, {"time": 1857, "pitch": 67, "duration": 12, "velocity": 86}, {"time": 1863, "pitch": 48, "duration": 3, "velocity": 81}, {"time": 1872, "pitch": 65, "duration": 4, "velocity": 78}, {"time": 1878, "pitch": 41, "duration": 13, "velocity": 82}, {"time": 1878, "pitch": 52, "duration": 4, "velocity": 63}, {"time": 1878, "pitch": 53, "duration": 14, "velocity": 60}, {"time": 1878, "pitch": 60, "duration": 4, "velocity": 78}, {"time": 1878, "pitch": 65, "duration": 5, "velocity": 72}, {"time": 1878, "pitch": 69, "duration": 5, "velocity": 77}, {"time": 1890, "pitch": 60, "duration": 12, "velocity": 94}, {"time": 1890, "pitch": 65, "duration": 12, "velocity": 84}, {"time": 1890, "pitch": 69, "duration": 13, "velocity": 79}, {"time": 1896, "pitch": 41, "duration": 3, "velocity": 83}, {"time": 1896, "pitch": 53, "duration": 2, "velocity": 57}, {"time": 1902, "pitch": 48, "duration": 5, "velocity": 84}, {"time": 1908, "pitch": 60, "duration": 8, "velocity": 84}, {"time": 1908, "pitch": 65, "duration": 8, "velocity": 83}, {"time": 1908, "pitch": 69, "duration": 8, "velocity": 81}, {"time": 1914, "pitch": 48, "duration": 9, "velocity": 90}, {"time": 1920, "pitch": 67, "duration": 2, "velocity": 73}, {"time": 1926, "pitch": 46, "duration": 14, "velocity": 84}, {"time": 1926, "pitch": 58, "duration": 14, "velocity": 80}, {"time": 1926, "pitch": 62, "duration": 6, "velocity": 78}, {"time": 1926, "pitch": 65, "duration": 6, "velocity": 68}, {"time": 1926, "pitch": 70, "duration": 6, "velocity": 79}, {"time": 1938, "pitch": 62, "duration": 14, "velocity": 78}, {"time": 1938, "pitch": 65, "duration": 13, "velocity": 79}, {"time": 1938, "pitch": 70, "duration": 11, "velocity": 79}, {"time": 1944, "pitch": 46, "duration": 3, "velocity": 83}, {"time": 1944, "pitch": 58, "duration": 2, "velocity": 62}, {"time": 1950, "pitch": 53, "duration": 6, "velocity": 78}, {"time": 1956, "pitch": 62, "duration": 7, "velocity": 79}, {"time": 1956, "pitch": 65, "duration": 8, "velocity": 82}, {"time": 1956, "pitch": 70, "duration": 7, "velocity": 83}, {"time": 1962, "pitch": 53, "duration": 2, "velocity": 82}, {"time": 1968, "pitch": 67, "duration": 5, "velocity": 73}, {"time": 1974, "pitch": 41, "duration": 13, "velocity": 83}, {"time": 1974, "pitch": 53, "duration": 14, "velocity": 75}, {"time": 1974, "pitch": 60, "duration": 6, "velocity": 61}, {"time": 1974, "pitch": 65, "duration": 6, "velocity": 78}, {"time": 1974, "pitch": 69, "duration": 7, "velocity": 77}, {"time": 1986, "pitch": 60, "duration": 12, "velocity": 72}, {"time": 1986, "pitch": 65, "duration": 12, "velocity": 79}, {"time": 1986, "pitch": 69, "duration": 12, "velocity": 73}, {"time": 1992, "pitch": 41, "duration": 3, "velocity": 80}, {"time": 1992, "pitch": 53, "duration": 2, "velocity": 58}, {"time": 1998, "pitch": 48, "duration": 6, "velocity": 82}, {"time": 2004, "pitch": 60, "duration": 8, "velocity": 82}, {"time": 2004, "pitch": 65, "duration": 9, "velocity": 75}, {"time": 2004, "pitch": 69, "duration": 9, "velocity": 79}, {"time": 2010, "pitch": 48, "duration": 4, "velocity": 83}, {"time": 2010, "pitch": 53, "duration": 2, "velocity": 67}, {"time": 2016, "pitch": 67, "duration": 2, "velocity": 71}, {"time": 2022, "pitch": 43, "duration": 14, "velocity": 86}, {"time": 2022, "pitch": 55, "duration": 14, "velocity": 76}, {"time": 2022, "pitch": 62, "duration": 4, "velocity": 68}, {"time": 2022, "pitch": 65, "duration": 4, "velocity": 79}, {"time": 2022, "pitch": 70, "duration": 5, "velocity": 80}, {"time": 2034, "pitch": 62, "duration": 12, "velocity": 80}, {"time": 2034, "pitch": 65, "duration": 11, "velocity": 81}, {"time": 2034, "pitch": 70, "duration": 10, "velocity": 81}, {"time": 2040, "pitch": 43, "duration": 2, "velocity": 55}, {"time": 2040, "pitch": 55, "duration": 2, "velocity": 54}, {"time": 2046, "pitch": 48, "duration": 8, "velocity": 84}, {"time": 2052, "pitch": 60, "duration": 8, "velocity": 79}, {"time": 2052, "pitch": 64, "duration": 9, "velocity": 81}, {"time": 2052, "pitch": 67, "duration": 10, "velocity": 79}, {"time": 2052, "pitch": 72, "duration": 9, "velocity": 80}, {"time": 2058, "pitch": 48, "duration": 4, "velocity": 80}, {"time": 2064, "pitch": 60, "duration": 2, "velocity": 62}, {"time": 2070, "pitch": 41, "duration": 14, "velocity": 78}, {"time": 2070, "pitch": 53, "duration": 13, "velocity": 69}, {"time": 2070, "pitch": 60, "duration": 4, "velocity": 79}, {"time": 2070, "pitch": 65, "duration": 4, "velocity": 71}, {"time": 2070, "pitch": 69, "duration": 4, "velocity": 71}, {"time": 2082, "pitch": 60, "duration": 12, "velocity": 84}, {"time": 2082, "pitch": 65, "duration": 11, "velocity": 84}, {"time": 2082, "pitch": 69, "duration": 11, "velocity": 78}, {"time": 2088, "pitch": 41, "duration": 3, "velocity": 82}, {"time": 2088, "pitch": 53, "duration": 2, "velocity": 57}, {"time": 2094, "pitch": 48, "duration": 5, "velocity": 79}, {"time": 2100, "pitch": 60, "duration": 3, "velocity": 75}, {"time": 2100, "pitch": 65, "duration": 4, "velocity": 82}, {"time": 2100, "pitch": 69, "duration": 10, "velocity": 73}, {"time": 2106, "pitch": 43, "duration": 7, "velocity": 78}, {"time": 2112, "pitch": 45, "duration": 7, "velocity": 72}, {"time": 2118, "pitch": 46, "duration": 13, "velocity": 82}, {"time": 2118, "pitch": 62, "duration": 5, "velocity": 79}, {"time": 2118, "pitch": 65, "duration": 5, "velocity": 84}, {"time": 2118, "pitch": 70, "duration": 5, "velocity": 84}, {"time": 2130, "pitch": 62, "duration": 11, "velocity": 80}, {"time": 2130, "pitch": 65, "duration": 11, "velocity": 83}, {"time": 2130, "pitch": 70, "duration": 10, "velocity": 81}, {"time": 2136, "pitch": 46, "duration": 2, "velocity": 75}, {"time": 2142, "pitch": 46, "duration": 7, "velocity": 82}, {"time": 2148, "pitch": 62, "duration": 8, "velocity": 80}, {"time": 2148, "pitch": 65, "duration": 9, "velocity": 83}, {"time": 2148, "pitch": 70, "duration": 8, "velocity": 84}, {"time": 2154, "pitch": 46, "duration": 4, "velocity": 78}, {"time": 2160, "pitch": 67, "duration": 3, "velocity": 76}, {"time": 2166, "pitch": 41, "duration": 13, "velocity": 80}, {"time": 2166, "pitch": 60, "duration": 3, "velocity": 59}, {"time": 2166, "pitch": 65, "duration": 3, "velocity": 71}, {"time": 2166, "pitch": 67, "duration": 2, "velocity": 75}, {"time": 2166, "pitch": 69, "duration": 4, "velocity": 72}, {"time": 2178, "pitch": 60, "duration": 12, "velocity": 80}, {"time": 2178, "pitch": 65, "duration": 12, "velocity": 84}, {"time": 2178, "pitch": 69, "duration": 11, "velocity": 75}, {"time": 2184, "pitch": 41, "duration": 3, "velocity": 80}, {"time": 2190, "pitch": 48, "duration": 7, "velocity": 78}, {"time": 2196, "pitch": 60, "duration": 12, "velocity": 69}, {"time": 2196, "pitch": 65, "duration": 12, "velocity": 76}, {"time": 2196, "pitch": 69, "duration": 13, "velocity": 73}, {"time": 2202, "pitch": 41, "duration": 7, "velocity": 79}, {"time": 2214, "pitch": 36, "duration": 13, "velocity": 98}, {"time": 2226, "pitch": 60, "duration": 12, "velocity": 79}, {"time": 2226, "pitch": 64, "duration": 12, "velocity": 69}, {"time": 2226, "pitch": 67, "duration": 12, "velocity": 72}, {"time": 2226, "pitch": 72, "duration": 11, "velocity": 78}, {"time": 2232, "pitch": 36, "duration": 2, "velocity": 83}, {"time": 2238, "pitch": 36, "duration": 8, "velocity": 94}, {"time": 2244, "pitch": 60, "duration": 7, "velocity": 82}, {"time": 2244, "pitch": 64, "duration": 6, "velocity": 79}, {"time": 2244, "pitch": 67, "duration": 8, "velocity": 75}, {"time": 2244, "pitch": 72, "duration": 8, "velocity": 84}, {"time": 2250, "pitch": 40, "duration": 3, "velocity": 83}, {"time": 2256, "pitch": 60, "duration": 1, "velocity": 50}, {"time": 2262, "pitch": 41, "duration": 8, "velocity": 84}, {"time": 2262, "pitch": 60, "duration": 8, "velocity": 91}, {"time": 2262, "pitch": 65, "duration": 8, "velocity": 86}, {"time": 2262, "pitch": 69, "duration": 8, "velocity": 84}, {"time": 2280, "pitch": 36, "duration": 3, "velocity": 101}, {"time": 2280, "pitch": 48, "duration": 2, "velocity": 84}, {"time": 2280, "pitch": 60, "duration": 3, "velocity": 83}, {"time": 2280, "pitch": 64, "duration": 3, "velocity": 91}, {"time": 2286, "pitch": 41, "duration": 4, "velocity": 93}, {"time": 2286, "pitch": 60, "duration": 4, "velocity": 84}, {"time": 2286, "pitch": 65, "duration": 4, "velocity": 90}, {"time": 2286, "pitch": 69, "duration": 5, "velocity": 81}, {"time": 2310, "pitch": 41, "duration": 17, "velocity": 86}, {"time": 2310, "pitch": 53, "duration": 18, "velocity": 79}, {"time": 2322, "pitch": 60, "duration": 2, "velocity": 83}, {"time": 2322, "pitch": 65, "duration": 2, "velocity": 80}, {"time": 2322, "pitch": 69, "duration": 3, "velocity": 84}, {"time": 2328, "pitch": 60, "duration": 3, "velocity": 84}, {"time": 2328, "pitch": 65, "duration": 2, "velocity": 86}, {"time": 2328, "pitch": 69, "duration": 3, "velocity": 84}, {"time": 2334, "pitch": 48, "duration": 11, "velocity": 79}, {"time": 2346, "pitch": 60, "duration": 3, "velocity": 90}, {"time": 2346, "pitch": 65, "duration": 2, "velocity": 86}, {"time": 2346, "pitch": 69, "duration": 3, "velocity": 84}, {"time": 2358, "pitch": 46, "duration": 17, "velocity": 90}, {"time": 2358, "pitch": 58, "duration": 17, "velocity": 82}, {"time": 2370, "pitch": 62, "duration": 2, "velocity": 80}, {"time": 2370, "pitch": 65, "duration": 2, "velocity": 78}, {"time": 2370, "pitch": 70, "duration": 2, "velocity": 79}, {"time": 2376, "pitch": 62, "duration": 4, "velocity": 83}, {"time": 2376, "pitch": 65, "duration": 3, "velocity": 81}, {"time": 2376, "pitch": 70, "duration": 4, "velocity": 90}, {"time": 2382, "pitch": 48, "duration": 14, "velocity": 83}, {"time": 2394, "pitch": 60, "duration": 2, "velocity": 90}, {"time": 2394, "pitch": 64, "duration": 2, "velocity": 86}, {"time": 2394, "pitch": 67, "duration": 2, "velocity": 90}, {"time": 2406, "pitch": 41, "duration": 15, "velocity": 82}, {"time": 2406, "pitch": 53, "duration": 16, "velocity": 71}, {"time": 2418, "pitch": 60, "duration": 3, "velocity": 82}, {"time": 2418, "pitch": 65, "duration": 3, "velocity": 84}, {"time": 2418, "pitch": 69, "duration": 3, "velocity": 79}, {"time": 2424, "pitch": 41, "duration": 3, "velocity": 75}, {"time": 2424, "pitch": 53, "duration": 1, "velocity": 44}, {"time": 2424, "pitch": 60, "duration": 2, "velocity": 20}, {"time": 2424, "pitch": 69, "duration": 2, "velocity": 37}, {"time": 2430, "pitch": 48, "duration": 15, "velocity": 84}, {"time": 2442, "pitch": 60, "duration": 3, "velocity": 84}, {"time": 2442, "pitch": 65, "duration": 3, "velocity": 86}, {"time": 2442, "pitch": 69, "duration": 4, "velocity": 81}, {"time": 2454, "pitch": 46, "duration": 13, "velocity": 79}, {"time": 2466, "pitch": 62, "duration": 2, "velocity": 83}, {"time": 2466, "pitch": 65, "duration": 2, "velocity": 82}, {"time": 2466, "pitch": 70, "duration": 3, "velocity": 86}, {"time": 2472, "pitch": 46, "duration": 2, "velocity": 73}, {"time": 2472, "pitch": 62, "duration": 2, "velocity": 62}, {"time": 2472, "pitch": 65, "duration": 2, "velocity": 69}, {"time": 2472, "pitch": 70, "duration": 3, "velocity": 82}, {"time": 2478, "pitch": 48, "duration": 11, "velocity": 82}, {"time": 2490, "pitch": 60, "duration": 2, "velocity": 83}, {"time": 2490, "pitch": 64, "duration": 2, "velocity": 68}, {"time": 2490, "pitch": 67, "duration": 2, "velocity": 79}, {"time": 2502, "pitch": 41, "duration": 17, "velocity": 86}, {"time": 2502, "pitch": 53, "duration": 18, "velocity": 79}, {"time": 2514, "pitch": 60, "duration": 2, "velocity": 83}, {"time": 2514, "pitch": 65, "duration": 2, "velocity": 80}, {"time": 2514, "pitch": 69, "duration": 3, "velocity": 84}, {"time": 2520, "pitch": 60, "duration": 3, "velocity": 84}, {"time": 2520, "pitch": 65, "duration": 2, "velocity": 86}, {"time": 2520, "pitch": 69, "duration": 3, "velocity": 84}, {"time": 2526, "pitch": 48, "duration": 11, "velocity": 79}, {"time": 2538, "pitch": 60, "duration": 3, "velocity": 90}, {"time": 2538, "pitch": 65, "duration": 2, "velocity": 86}, {"time": 2538, "pitch": 69, "duration": 3, "velocity": 84}, {"time": 2550, "pitch": 46, "duration": 17, "velocity": 90}, {"time": 2550, "pitch": 58, "duration": 17, "velocity": 82}, {"time": 2562, "pitch": 62, "duration": 2, "velocity": 80}, {"time": 2562, "pitch": 65, "duration": 2, "velocity": 78}, {"time": 2562, "pitch": 70, "duration": 2, "velocity": 79}, {"time": 2568, "pitch": 62, "duration": 4, "velocity": 83}, {"time": 2568, "pitch": 65, "duration": 3, "velocity": 81}, {"time": 2568, "pitch": 70, "duration": 4, "velocity": 90}, {"time": 2574, "pitch": 48, "duration": 14, "velocity": 83}, {"time": 2586, "pitch": 60, "duration": 2, "velocity": 90}, {"time": 2586, "pitch": 64, "duration": 2, "velocity": 86}, {"time": 2586, "pitch": 67, "duration": 2, "velocity": 90}, {"time": 2598, "pitch": 41, "duration": 12, "velocity": 84}, {"time": 2598, "pitch": 53, "duration": 13, "velocity": 72}, {"time": 2598, "pitch": 60, "duration": 4, "velocity": 75}, {"time": 2598, "pitch": 65, "duration": 4, "velocity": 80}, {"time": 2598, "pitch": 69, "duration": 4, "velocity": 79}, {"time": 2610, "pitch": 60, "duration": 9, "velocity": 82}, {"time": 2610, "pitch": 65, "duration": 8, "velocity": 80}, {"time": 2610, "pitch": 69, "duration": 9, "velocity": 79}, {"time": 2613, "pitch": 41, "duration": 3, "velocity": 76}, {"time": 2616, "pitch": 53, "duration": 2, "velocity": 51}, {"time": 2622, "pitch": 48, "duration": 13, "velocity": 86}, {"time": 2634, "pitch": 60, "duration": 6, "velocity": 80}, {"time": 2634, "pitch": 64, "duration": 5, "velocity": 71}, {"time": 2634, "pitch": 67, "duration": 7, "velocity": 83}, {"time": 2640, "pitch": 48, "duration": 4, "velocity": 80}, {"time": 2646, "pitch": 46, "duration": 4, "velocity": 78}, {"time": 2646, "pitch": 62, "duration": 4, "velocity": 80}, {"time": 2646, "pitch": 65, "duration": 4, "velocity": 81}, {"time": 2646, "pitch": 70, "duration": 4, "velocity": 90}, {"time": 2658, "pitch": 36, "duration": 3, "velocity": 86}, {"time": 2658, "pitch": 48, "duration": 4, "velocity": 82}, {"time": 2658, "pitch": 60, "duration": 3, "velocity": 78}, {"time": 2658, "pitch": 64, "duration": 3, "velocity": 79}, {"time": 2658, "pitch": 67, "duration": 4, "velocity": 79}, {"time": 2670, "pitch": 41, "duration": 9, "velocity": 80}, {"time": 2670, "pitch": 53, "duration": 7, "velocity": 68}, {"time": 2670, "pitch": 60, "duration": 8, "velocity": 86}, {"time": 2670, "pitch": 65, "duration": 8, "velocity": 84}, {"time": 2670, "pitch": 69, "duration": 9, "velocity": 80}, {"time": 2694, "pitch": 41, "duration": 17, "velocity": 86}, {"time": 2694, "pitch": 53, "duration": 18, "velocity": 79}, {"time": 2706, "pitch": 60, "duration": 2, "velocity": 83}, {"time": 2706, "pitch": 65, "duration": 2, "velocity": 80}, {"time": 2706, "pitch": 69, "duration": 3, "velocity": 84}, {"time": 2712, "pitch": 60, "duration": 3, "velocity": 84}, {"time": 2712, "pitch": 65, "duration": 2, "velocity": 86}, {"time": 2712, "pitch": 69, "duration": 3, "velocity": 84}, {"time": 2718, "pitch": 48, "duration": 11, "velocity": 79}, {"time": 2730, "pitch": 60, "duration": 3, "velocity": 90}, {"time": 2730, "pitch": 65, "duration": 2, "velocity": 86}, {"time": 2730, "pitch": 69, "duration": 3, "velocity": 84}, {"time": 2742, "pitch": 46, "duration": 17, "velocity": 90}, {"time": 2742, "pitch": 58, "duration": 17, "velocity": 82}, {"time": 2754, "pitch": 62, "duration": 2, "velocity": 80}, {"time": 2754, "pitch": 65, "duration": 2, "velocity": 78}, {"time": 2754, "pitch": 70, "duration": 2, "velocity": 79}, {"time": 2760, "pitch": 62, "duration": 4, "velocity": 83}, {"time": 2760, "pitch": 65, "duration": 3, "velocity": 81}, {"time": 2760, "pitch": 70, "duration": 4, "velocity": 90}, {"time": 2766, "pitch": 48, "duration": 14, "velocity": 83}, {"time": 2778, "pitch": 60, "duration": 2, "velocity": 90}, {"time": 2778, "pitch": 64, "duration": 2, "velocity": 86}, {"time": 2778, "pitch": 67, "duration": 2, "velocity": 90}, {"time": 2790, "pitch": 41, "duration": 15, "velocity": 82}, {"time": 2790, "pitch": 53, "duration": 16, "velocity": 71}, {"time": 2802, "pitch": 60, "duration": 3, "velocity": 82}, {"time": 2802, "pitch": 65, "duration": 3, "velocity": 84}, {"time": 2802, "pitch": 69, "duration": 3, "velocity": 79}, {"time": 2808, "pitch": 41, "duration": 3, "velocity": 75}, {"time": 2808, "pitch": 53, "duration": 1, "velocity": 44}, {"time": 2808, "pitch": 60, "duration": 2, "velocity": 20}, {"time": 2808, "pitch": 69, "duration": 2, "velocity": 37}, {"time": 2814, "pitch": 48, "duration": 15, "velocity": 84}, {"time": 2826, "pitch": 60, "duration": 3, "velocity": 84}, {"time": 2826, "pitch": 65, "duration": 3, "velocity": 86}, {"time": 2826, "pitch": 69, "duration": 4, "velocity": 81}, {"time": 2838, "pitch": 46, "duration": 13, "velocity": 79}, {"time": 2850, "pitch": 62, "duration": 2, "velocity": 83}, {"time": 2850, "pitch": 65, "duration": 2, "velocity": 82}, {"time": 2850, "pitch": 70, "duration": 3, "velocity": 86}, {"time": 2856, "pitch": 46, "duration": 2, "velocity": 73}, {"time": 2856, "pitch": 62, "duration": 2, "velocity": 62}, {"time": 2856, "pitch": 65, "duration": 2, "velocity": 69}, {"time": 2856, "pitch": 70, "duration": 3, "velocity": 82}, {"time": 2862, "pitch": 48, "duration": 11, "velocity": 82}, {"time": 2874, "pitch": 60, "duration": 2, "velocity": 83}, {"time": 2874, "pitch": 64, "duration": 2, "velocity": 68}, {"time": 2874, "pitch": 67, "duration": 2, "velocity": 79}, {"time": 2886, "pitch": 41, "duration": 17, "velocity": 86}, {"time": 2886, "pitch": 53, "duration": 18, "velocity": 79}, {"time": 2898, "pitch": 60, "duration": 2, "velocity": 83}, {"time": 2898, "pitch": 65, "duration": 2, "velocity": 80}, {"time": 2898, "pitch": 69, "duration": 3, "velocity": 84}, {"time": 2904, "pitch": 60, "duration": 3, "velocity": 84}, {"time": 2904, "pitch": 65, "duration": 2, "velocity": 86}, {"time": 2904, "pitch": 69, "duration": 3, "velocity": 84}, {"time": 2910, "pitch": 48, "duration": 11, "velocity": 79}, {"time": 2922, "pitch": 60, "duration": 3, "velocity": 90}, {"time": 2922, "pitch": 65, "duration": 2, "velocity": 86}, {"time": 2922, "pitch": 69, "duration": 3, "velocity": 84}, {"time": 2934, "pitch": 46, "duration": 17, "velocity": 90}, {"time": 2934, "pitch": 58, "duration": 17, "velocity": 82}, {"time": 2946, "pitch": 62, "duration": 2, "velocity": 80}, {"time": 2946, "pitch": 65, "duration": 2, "velocity": 78}, {"time": 2946, "pitch": 70, "duration": 2, "velocity": 79}, {"time": 2952, "pitch": 62, "duration": 4, "velocity": 83}, {"time": 2952, "pitch": 65, "duration": 3, "velocity": 81}, {"time": 2952, "pitch": 70, "duration": 4, "velocity": 90}, {"time": 2958, "pitch": 48, "duration": 14, "velocity": 83}, {"time": 2970, "pitch": 60, "duration": 2, "velocity": 90}, {"time": 2970, "pitch": 64, "duration": 2, "velocity": 86}, {"time": 2970, "pitch": 67, "duration": 2, "velocity": 90}, {"time": 2982, "pitch": 41, "duration": 12, "velocity": 84}, {"time": 2982, "pitch": 53, "duration": 13, "velocity": 72}, {"time": 2982, "pitch": 60, "duration": 4, "velocity": 75}, {"time": 2982, "pitch": 65, "duration": 4, "velocity": 80}, {"time": 2982, "pitch": 69, "duration": 4, "velocity": 79}, {"time": 2994, "pitch": 60, "duration": 9, "velocity": 82}, {"time": 2994, "pitch": 65, "duration": 8, "velocity": 80}, {"time": 2994, "pitch": 69, "duration": 9, "velocity": 79}, {"time": 2997, "pitch": 41, "duration": 3, "velocity": 76}, {"time": 3000, "pitch": 53, "duration": 2, "velocity": 51}, {"time": 3006, "pitch": 48, "duration": 13, "velocity": 86}, {"time": 3018, "pitch": 60, "duration": 6, "velocity": 80}, {"time": 3018, "pitch": 64, "duration": 5, "velocity": 71}, {"time": 3018, "pitch": 67, "duration": 7, "velocity": 83}, {"time": 3024, "pitch": 48, "duration": 4, "velocity": 80}, {"time": 3030, "pitch": 46, "duration": 4, "velocity": 78}, {"time": 3030, "pitch": 62, "duration": 4, "velocity": 80}, {"time": 3030, "pitch": 65, "duration": 4, "velocity": 81}, {"time": 3030, "pitch": 70, "duration": 4, "velocity": 90}, {"time": 3042, "pitch": 36, "duration": 3, "velocity": 86}, {"time": 3042, "pitch": 48, "duration": 4, "velocity": 82}, {"time": 3042, "pitch": 60, "duration": 3, "velocity": 78}, {"time": 3042, "pitch": 64, "duration": 3, "velocity": 79}, {"time": 3042, "pitch": 67, "duration": 4, "velocity": 79}, {"time": 3054, "pitch": 36, "duration": 20, "velocity": 90}, {"time": 3054, "pitch": 48, "duration": 13, "velocity": 77}, {"time": 3054, "pitch": 60, "duration": 8, "velocity": 78}, {"time": 3054, "pitch": 64, "duration": 8, "velocity": 78}, {"time": 3054, "pitch": 67, "duration": 7, "velocity": 82}, {"time": 3054, "pitch": 72, "duration": 8, "velocity": 79}, {"time": 3066, "pitch": 60, "duration": 8, "velocity": 80}, {"time": 3066, "pitch": 64, "duration": 8, "velocity": 79}, {"time": 3066, "pitch": 67, "duration": 8, "velocity": 83}, {"time": 3066, "pitch": 72, "duration": 9, "velocity": 78}, {"time": 3072, "pitch": 48, "duration": 2, "velocity": 90}, {"time": 3078, "pitch": 46, "duration": 13, "velocity": 91}, {"time": 3078, "pitch": 58, "duration": 14, "velocity": 84}, {"time": 3078, "pitch": 62, "duration": 4, "velocity": 81}, {"time": 3078, "pitch": 65, "duration": 5, "velocity": 82}, {"time": 3078, "pitch": 70, "duration": 5, "velocity": 83}, {"time": 3090, "pitch": 62, "duration": 12, "velocity": 78}, {"time": 3090, "pitch": 65, "duration": 13, "velocity": 79}, {"time": 3090, "pitch": 70, "duration": 12, "velocity": 84}, {"time": 3096, "pitch": 46, "duration": 3, "velocity": 82}, {"time": 3096, "pitch": 58, "duration": 2, "velocity": 56}, {"time": 3102, "pitch": 53, "duration": 6, "velocity": 82}, {"time": 3108, "pitch": 62, "duration": 9, "velocity": 80}, {"time": 3108, "pitch": 65, "duration": 9, "velocity": 83}, {"time": 3108, "pitch": 70, "duration": 9, "velocity": 84}, {"time": 3114, "pitch": 53, "duration": 2, "velocity": 84}, {"time": 3120, "pitch": 67, "duration": 6, "velocity": 79}, {"time": 3126, "pitch": 41, "duration": 14, "velocity": 86}, {"time": 3126, "pitch": 53, "duration": 15, "velocity": 70}, {"time": 3126, "pitch": 60, "duration": 5, "velocity": 76}, {"time": 3126, "pitch": 65, "duration": 5, "velocity": 80}, {"time": 3126, "pitch": 69, "duration": 6, "velocity": 80}, {"time": 3138, "pitch": 60, "duration": 14, "velocity": 75}, {"time": 3138, "pitch": 65, "duration": 13, "velocity": 78}, {"time": 3138, "pitch": 69, "duration": 14, "velocity": 73}, {"time": 3144, "pitch": 41, "duration": 3, "velocity": 80}, {"time": 3144, "pitch": 53, "duration": 2, "velocity": 57}, {"time": 3150, "pitch": 48, "duration": 6, "velocity": 84}, {"time": 3156, "pitch": 60, "duration": 7, "velocity": 79}, {"time": 3156, "pitch": 65, "duration": 8, "velocity": 83}, {"time": 3156, "pitch": 69, "duration": 8, "velocity": 77}, {"time": 3162, "pitch": 48, "duration": 4, "velocity": 84}, {"time": 3168, "pitch": 60, "duration": 2, "velocity": 59}, {"time": 3168, "pitch": 67, "duration": 4, "velocity": 77}, {"time": 3174, "pitch": 62, "duration": 5, "velocity": 71}, {"time": 3174, "pitch": 65, "duration": 5, "velocity": 81}, {"time": 3174, "pitch": 70, "duration": 6, "velocity": 79}, {"time": 3177, "pitch": 45, "duration": 4, "velocity": 57}, {"time": 3177, "pitch": 46, "duration": 10, "velocity": 50}, {"time": 3186, "pitch": 62, "duration": 13, "velocity": 71}, {"time": 3186, "pitch": 65, "duration": 13, "velocity": 75}, {"time": 3186, "pitch": 70, "duration": 14, "velocity": 76}, {"time": 3192, "pitch": 46, "duration": 2, "velocity": 73}, {"time": 3198, "pitch": 36, "duration": 12, "velocity": 91}, {"time": 3210, "pitch": 60, "duration": 7, "velocity": 77}, {"time": 3210, "pitch": 64, "duration": 7, "velocity": 68}, {"time": 3210, "pitch": 65, "duration": 1, "velocity": 54}, {"time": 3210, "pitch": 67, "duration": 11, "velocity": 76}, {"time": 3222, "pitch": 41, "duration": 14, "velocity": 81}, {"time": 3222, "pitch": 53, "duration": 15, "velocity": 62}, {"time": 3222, "pitch": 60, "duration": 3, "velocity": 82}, {"time": 3222, "pitch": 65, "duration": 2, "velocity": 83}, {"time": 3222, "pitch": 69, "duration": 4, "velocity": 78}, {"time": 3234, "pitch": 60, "duration": 12, "velocity": 82}, {"time": 3234, "pitch": 65, "duration": 12, "velocity": 79}, {"time": 3234, "pitch": 69, "duration": 11, "velocity": 75}, {"time": 3240, "pitch": 41, "duration": 3, "velocity": 82}, {"time": 3240, "pitch": 53, "duration": 2, "velocity": 61}, {"time": 3246, "pitch": 41, "duration": 7, "velocity": 82}, {"time": 3246, "pitch": 53, "duration": 6, "velocity": 61}, {"time": 3252, "pitch": 60, "duration": 19, "velocity": 82}, {"time": 3252, "pitch": 65, "duration": 13, "velocity": 79}, {"time": 3252, "pitch": 69, "duration": 18, "velocity": 76}, {"time": 3258, "pitch": 43, "duration": 6, "velocity": 73}, {"time": 3264, "pitch": 45, "duration": 6, "velocity": 73}, {"time": 3270, "pitch": 46, "duration": 13, "velocity": 84}, {"time": 3282, "pitch": 62, "duration": 13, "velocity": 82}, {"time": 3282, "pitch": 65, "duration": 11, "velocity": 81}, {"time": 3282, "pitch": 70, "duration": 12, "velocity": 83}, {"time": 3288, "pitch": 46, "duration": 2, "velocity": 72}, {"time": 3294, "pitch": 46, "duration": 7, "velocity": 80}, {"time": 3300, "pitch": 62, "duration": 8, "velocity": 79}, {"time": 3300, "pitch": 65, "duration": 8, "velocity": 80}, {"time": 3300, "pitch": 70, "duration": 10, "velocity": 82}, {"time": 3306, "pitch": 46, "duration": 7, "velocity": 76}, {"time": 3312, "pitch": 67, "duration": 4, "velocity": 82}, {"time": 3318, "pitch": 41, "duration": 14, "velocity": 83}, {"time": 3318, "pitch": 53, "duration": 14, "velocity": 69}, {"time": 3318, "pitch": 60, "duration": 3, "velocity": 80}, {"time": 3318, "pitch": 65, "duration": 3, "velocity": 80}, {"time": 3318, "pitch": 69, "duration": 4, "velocity": 81}, {"time": 3330, "pitch": 60, "duration": 12, "velocity": 83}, {"time": 3330, "pitch": 65, "duration": 13, "velocity": 82}, {"time": 3330, "pitch": 69, "duration": 12, "velocity": 76}, {"time": 3336, "pitch": 41, "duration": 2, "velocity": 79}, {"time": 3336, "pitch": 53, "duration": 2, "velocity": 69}, {"time": 3342, "pitch": 41, "duration": 6, "velocity": 84}, {"time": 3342, "pitch": 53, "duration": 6, "velocity": 72}, {"time": 3348, "pitch": 60, "duration": 6, "velocity": 83}, {"time": 3348, "pitch": 65, "duration": 8, "velocity": 82}, {"time": 3348, "pitch": 69, "duration": 8, "velocity": 80}, {"time": 3354, "pitch": 42, "duration": 4, "velocity": 98}, {"time": 3354, "pitch": 54, "duration": 4, "velocity": 81}, {"time": 3360, "pitch": 65, "duration": 3, "velocity": 41}, {"time": 3360, "pitch": 69, "duration": 2, "velocity": 49}, {"time": 3366, "pitch": 43, "duration": 13, "velocity": 91}, {"time": 3366, "pitch": 55, "duration": 14, "velocity": 79}, {"time": 3366, "pitch": 62, "duration": 5, "velocity": 82}, {"time": 3366, "pitch": 67, "duration": 5, "velocity": 82}, {"time": 3366, "pitch": 71, "duration": 4, "velocity": 83}, {"time": 3378, "pitch": 62, "duration": 12, "velocity": 81}, {"time": 3378, "pitch": 67, "duration": 12, "velocity": 76}, {"time": 3378, "pitch": 71, "duration": 10, "velocity": 82}, {"time": 3384, "pitch": 43, "duration": 3, "velocity": 84}, {"time": 3384, "pitch": 55, "duration": 2, "velocity": 69}, {"time": 3390, "pitch": 48, "duration": 14, "velocity": 93}, {"time": 3402, "pitch": 60, "duration": 6, "velocity": 83}, {"time": 3402, "pitch": 64, "duration": 4, "velocity": 82}, {"time": 3402, "pitch": 67, "duration": 7, "velocity": 83}, {"time": 3414, "pitch": 36, "duration": 3, "velocity": 103}, {"time": 3414, "pitch": 48, "duration": 2, "velocity": 84}, {"time": 3414, "pitch": 60, "duration": 3, "velocity": 90}, {"time": 3414, "pitch": 64, "duration": 3, "velocity": 82}, {"time": 3414, "pitch": 67, "duration": 3, "velocity": 86}, {"time": 3426, "pitch": 36, "duration": 4, "velocity": 95}, {"time": 3426, "pitch": 48, "duration": 3, "velocity": 84}, {"time": 3426, "pitch": 60, "duration": 4, "velocity": 86}, {"time": 3426, "pitch": 64, "duration": 3, "velocity": 84}, {"time": 3426, "pitch": 67, "duration": 4, "velocity": 84}, {"time": 3438, "pitch": 38, "duration": 6, "velocity": 86}, {"time": 3438, "pitch": 60, "duration": 4, "velocity": 84}, {"time": 3438, "pitch": 65, "duration": 5, "velocity": 94}, {"time": 3450, "pitch": 40, "duration": 2, "velocity": 63}, {"time": 3450, "pitch": 41, "duration": 2, "velocity": 79}, {"time": 3450, "pitch": 60, "duration": 2, "velocity": 86}, {"time": 3450, "pitch": 67, "duration": 3, "velocity": 90}, {"time": 3462, "pitch": 46, "duration": 13, "velocity": 95}, {"time": 3462, "pitch": 58, "duration": 13, "velocity": 79}, {"time": 3462, "pitch": 62, "duration": 6, "velocity": 84}, {"time": 3462, "pitch": 65, "duration": 6, "velocity": 84}, {"time": 3462, "pitch": 70, "duration": 7, "velocity": 84}, {"time": 3474, "pitch": 62, "duration": 13, "velocity": 80}, {"time": 3474, "pitch": 65, "duration": 13, "velocity": 83}, {"time": 3474, "pitch": 70, "duration": 14, "velocity": 82}, {"time": 3480, "pitch": 46, "duration": 3, "velocity": 84}, {"time": 3480, "pitch": 58, "duration": 3, "velocity": 68}, {"time": 3486, "pitch": 53, "duration": 5, "velocity": 84}, {"time": 3492, "pitch": 62, "duration": 8, "velocity": 82}, {"time": 3492, "pitch": 65, "duration": 9, "velocity": 86}, {"time": 3492, "pitch": 70, "duration": 7, "velocity": 84}, {"time": 3498, "pitch": 53, "duration": 3, "velocity": 83}, {"time": 3504, "pitch": 67, "duration": 6, "velocity": 82}, {"time": 3510, "pitch": 41, "duration": 14, "velocity": 86}, {"time": 3510, "pitch": 53, "duration": 14, "velocity": 78}, {"time": 3510, "pitch": 60, "duration": 6, "velocity": 71}, {"time": 3510, "pitch": 65, "duration": 6, "velocity": 79}, {"time": 3510, "pitch": 69, "duration": 7, "velocity": 78}, {"time": 3522, "pitch": 60, "duration": 12, "velocity": 80}, {"time": 3522, "pitch": 65, "duration": 13, "velocity": 83}, {"time": 3522, "pitch": 69, "duration": 13, "velocity": 76}, {"time": 3528, "pitch": 41, "duration": 3, "velocity": 80}, {"time": 3528, "pitch": 53, "duration": 3, "velocity": 79}, {"time": 3534, "pitch": 48, "duration": 6, "velocity": 90}, {"time": 3540, "pitch": 60, "duration": 7, "velocity": 83}, {"time": 3540, "pitch": 65, "duration": 9, "velocity": 82}, {"time": 3540, "pitch": 69, "duration": 9, "velocity": 79}, {"time": 3546, "pitch": 48, "duration": 4, "velocity": 86}, {"time": 3552, "pitch": 67, "duration": 4, "velocity": 79}, {"time": 3558, "pitch": 43, "duration": 13, "velocity": 83}, {"time": 3558, "pitch": 55, "duration": 14, "velocity": 71}, {"time": 3558, "pitch": 62, "duration": 4, "velocity": 75}, {"time": 3558, "pitch": 65, "duration": 5, "velocity": 84}, {"time": 3558, "pitch": 70, "duration": 5, "velocity": 79}, {"time": 3570, "pitch": 62, "duration": 11, "velocity": 82}, {"time": 3570, "pitch": 65, "duration": 11, "velocity": 84}, {"time": 3570, "pitch": 70, "duration": 12, "velocity": 84}, {"time": 3576, "pitch": 43, "duration": 3, "velocity": 80}, {"time": 3576, "pitch": 55, "duration": 2, "velocity": 53}, {"time": 3582, "pitch": 48, "duration": 8, "velocity": 84}, {"time": 3588, "pitch": 60, "duration": 8, "velocity": 90}, {"time": 3588, "pitch": 64, "duration": 8, "velocity": 86}, {"time": 3588, "pitch": 67, "duration": 11, "velocity": 83}, {"time": 3594, "pitch": 48, "duration": 3, "velocity": 84}, {"time": 3600, "pitch": 65, "duration": 4, "velocity": 79}, {"time": 3606, "pitch": 41, "duration": 14, "velocity": 90}, {"time": 3606, "pitch": 53, "duration": 14, "velocity": 78}, {"time": 3606, "pitch": 60, "duration": 7, "velocity": 82}, {"time": 3606, "pitch": 65, "duration": 7, "velocity": 82}, {"time": 3606, "pitch": 69, "duration": 8, "velocity": 78}, {"time": 3618, "pitch": 60, "duration": 1, "velocity": 79}, {"time": 3618, "pitch": 65, "duration": 2, "velocity": 86}, {"time": 3618, "pitch": 69, "duration": 3, "velocity": 81}, {"time": 3624, "pitch": 41, "duration": 3, "velocity": 86}, {"time": 3624, "pitch": 53, "duration": 3, "velocity": 76}, {"time": 3630, "pitch": 41, "duration": 13, "velocity": 81}, {"time": 3630, "pitch": 53, "duration": 5, "velocity": 61}, {"time": 3636, "pitch": 69, "duration": 4, "velocity": 84}, {"time": 3636, "pitch": 72, "duration": 1, "velocity": 50}, {"time": 3636, "pitch": 77, "duration": 5, "velocity": 93}, {"time": 3642, "pitch": 53, "duration": 4, "velocity": 82}, {"time": 3642, "pitch": 67, "duration": 3, "velocity": 84}, {"time": 3642, "pitch": 76, "duration": 4, "velocity": 82}, {"time": 3642, "pitch": 77, "duration": 1, "velocity": 59}, {"time": 3648, "pitch": 72, "duration": 4, "velocity": 93}, {"time": 3654, "pitch": 46, "duration": 14, "velocity": 84}, {"time": 3654, "pitch": 58, "duration": 14, "velocity": 84}, {"time": 3654, "pitch": 70, "duration": 7, "velocity": 91}, {"time": 3654, "pitch": 74, "duration": 8, "velocity": 86}, {"time": 3666, "pitch": 70, "duration": 10, "velocity": 94}, {"time": 3666, "pitch": 74, "duration": 9, "velocity": 83}, {"time": 3672, "pitch": 46, "duration": 3, "velocity": 91}, {"time": 3672, "pitch": 58, "duration": 2, "velocity": 73}, {"time": 3678, "pitch": 53, "duration": 7, "velocity": 83}, {"time": 3684, "pitch": 62, "duration": 7, "velocity": 78}, {"time": 3684, "pitch": 65, "duration": 9, "velocity": 83}, {"time": 3684, "pitch": 70, "duration": 8, "velocity": 71}, {"time": 3690, "pitch": 46, "duration": 2, "velocity": 90}, {"time": 3690, "pitch": 53, "duration": 2, "velocity": 84}, {"time": 3696, "pitch": 67, "duration": 3, "velocity": 79}, {"time": 3702, "pitch": 48, "duration": 8, "velocity": 86}, {"time": 3702, "pitch": 60, "duration": 4, "velocity": 86}, {"time": 3702, "pitch": 65, "duration": 4, "velocity": 83}, {"time": 3702, "pitch": 69, "duration": 5, "velocity": 80}, {"time": 3714, "pitch": 60, "duration": 14, "velocity": 86}, {"time": 3714, "pitch": 65, "duration": 15, "velocity": 71}, {"time": 3714, "pitch": 69, "duration": 15, "velocity": 78}, {"time": 3720, "pitch": 41, "duration": 3, "velocity": 84}, {"time": 3726, "pitch": 41, "duration": 7, "velocity": 90}, {"time": 3732, "pitch": 60, "duration": 6, "velocity": 83}, {"time": 3732, "pitch": 65, "duration": 8, "velocity": 84}, {"time": 3732, "pitch": 69, "duration": 8, "velocity": 78}, {"time": 3738, "pitch": 41, "duration": 8, "velocity": 86}, {"time": 3744, "pitch": 65, "duration": 3, "velocity": 32}, {"time": 3744, "pitch": 67, "duration": 1, "velocity": 69}, {"time": 3750, "pitch": 43, "duration": 12, "velocity": 84}, {"time": 3750, "pitch": 55, "duration": 13, "velocity": 76}, {"time": 3750, "pitch": 62, "duration": 5, "velocity": 83}, {"time": 3750, "pitch": 67, "duration": 5, "velocity": 80}, {"time": 3750, "pitch": 70, "duration": 5, "velocity": 84}, {"time": 3762, "pitch": 62, "duration": 11, "velocity": 82}, {"time": 3762, "pitch": 67, "duration": 10, "velocity": 80}, {"time": 3762, "pitch": 70, "duration": 10, "velocity": 86}, {"time": 3765, "pitch": 43, "duration": 3, "velocity": 79}, {"time": 3765, "pitch": 55, "duration": 2, "velocity": 54}, {"time": 3771, "pitch": 48, "duration": 9, "velocity": 84}, {"time": 3777, "pitch": 60, "duration": 9, "velocity": 90}, {"time": 3777, "pitch": 64, "duration": 6, "velocity": 90}, {"time": 3777, "pitch": 67, "duration": 12, "velocity": 86}, {"time": 3783, "pitch": 48, "duration": 3, "velocity": 81}, {"time": 3792, "pitch": 65, "duration": 4, "velocity": 78}, {"time": 3798, "pitch": 41, "duration": 13, "velocity": 82}, {"time": 3798, "pitch": 52, "duration": 4, "velocity": 63}, {"time": 3798, "pitch": 53, "duration": 14, "velocity": 60}, {"time": 3798, "pitch": 60, "duration": 4, "velocity": 78}, {"time": 3798, "pitch": 65, "duration": 5, "velocity": 72}, {"time": 3798, "pitch": 69, "duration": 5, "velocity": 77}, {"time": 3810, "pitch": 60, "duration": 12, "velocity": 94}, {"time": 3810, "pitch": 65, "duration": 12, "velocity": 84}, {"time": 3810, "pitch": 69, "duration": 13, "velocity": 79}, {"time": 3816, "pitch": 41, "duration": 3, "velocity": 83}, {"time": 3816, "pitch": 53, "duration": 2, "velocity": 57}, {"time": 3822, "pitch": 48, "duration": 5, "velocity": 84}, {"time": 3828, "pitch": 60, "duration": 8, "velocity": 84}, {"time": 3828, "pitch": 65, "duration": 8, "velocity": 83}, {"time": 3828, "pitch": 69, "duration": 8, "velocity": 81}, {"time": 3834, "pitch": 48, "duration": 9, "velocity": 90}, {"time": 3840, "pitch": 67, "duration": 2, "velocity": 73}, {"time": 3846, "pitch": 46, "duration": 14, "velocity": 84}, {"time": 3846, "pitch": 58, "duration": 14, "velocity": 80}, {"time": 3846, "pitch": 62, "duration": 6, "velocity": 78}, {"time": 3846, "pitch": 65, "duration": 6, "velocity": 68}, {"time": 3846, "pitch": 70, "duration": 6, "velocity": 79}, {"time": 3858, "pitch": 62, "duration": 14, "velocity": 78}, {"time": 3858, "pitch": 65, "duration": 13, "velocity": 79}, {"time": 3858, "pitch": 70, "duration": 11, "velocity": 79}, {"time": 3864, "pitch": 46, "duration": 3, "velocity": 83}, {"time": 3864, "pitch": 58, "duration": 2, "velocity": 62}, {"time": 3870, "pitch": 53, "duration": 6, "velocity": 78}, {"time": 3876, "pitch": 62, "duration": 7, "velocity": 79}, {"time": 3876, "pitch": 65, "duration": 8, "velocity": 82}, {"time": 3876, "pitch": 70, "duration": 7, "velocity": 83}, {"time": 3882, "pitch": 53, "duration": 2, "velocity": 82}, {"time": 3888, "pitch": 67, "duration": 5, "velocity": 73}, {"time": 3894, "pitch": 41, "duration": 13, "velocity": 83}, {"time": 3894, "pitch": 53, "duration": 14, "velocity": 75}, {"time": 3894, "pitch": 60, "duration": 6, "velocity": 61}, {"time": 3894, "pitch": 65, "duration": 6, "velocity": 78}, {"time": 3894, "pitch": 69, "duration": 7, "velocity": 77}, {"time": 3906, "pitch": 60, "duration": 12, "velocity": 72}, {"time": 3906, "pitch": 65, "duration": 12, "velocity": 79}, {"time": 3906, "pitch": 69, "duration": 12, "velocity": 73}, {"time": 3912, "pitch": 41, "duration": 3, "velocity": 80}, {"time": 3912, "pitch": 53, "duration": 2, "velocity": 58}, {"time": 3918, "pitch": 48, "duration": 6, "velocity": 82}, {"time": 3924, "pitch": 60, "duration": 8, "velocity": 82}, {"time": 3924, "pitch": 65, "duration": 9, "velocity": 75}, {"time": 3924, "pitch": 69, "duration": 9, "velocity": 79}, {"time": 3930, "pitch": 48, "duration": 4, "velocity": 83}, {"time": 3930, "pitch": 53, "duration": 2, "velocity": 67}, {"time": 3936, "pitch": 67, "duration": 2, "velocity": 71}, {"time": 3942, "pitch": 43, "duration": 14, "velocity": 86}, {"time": 3942, "pitch": 55, "duration": 14, "velocity": 76}, {"time": 3942, "pitch": 62, "duration": 4, "velocity": 68}, {"time": 3942, "pitch": 65, "duration": 4, "velocity": 79}, {"time": 3942, "pitch": 70, "duration": 5, "velocity": 80}, {"time": 3954, "pitch": 62, "duration": 12, "velocity": 80}, {"time": 3954, "pitch": 65, "duration": 11, "velocity": 81}, {"time": 3954, "pitch": 70, "duration": 10, "velocity": 81}, {"time": 3960, "pitch": 43, "duration": 2, "velocity": 55}, {"time": 3960, "pitch": 55, "duration": 2, "velocity": 54}, {"time": 3966, "pitch": 48, "duration": 8, "velocity": 84}, {"time": 3972, "pitch": 60, "duration": 8, "velocity": 79}, {"time": 3972, "pitch": 64, "duration": 9, "velocity": 81}, {"time": 3972, "pitch": 67, "duration": 10, "velocity": 79}, {"time": 3972, "pitch": 72, "duration": 9, "velocity": 80}, {"time": 3978, "pitch": 48, "duration": 4, "velocity": 80}, {"time": 3984, "pitch": 60, "duration": 2, "velocity": 62}, {"time": 3990, "pitch": 41, "duration": 14, "velocity": 78}, {"time": 3990, "pitch": 53, "duration": 13, "velocity": 69}, {"time": 3990, "pitch": 60, "duration": 4, "velocity": 79}, {"time": 3990, "pitch": 65, "duration": 4, "velocity": 71}, {"time": 3990, "pitch": 69, "duration": 4, "velocity": 71}, {"time": 4002, "pitch": 60, "duration": 12, "velocity": 84}, {"time": 4002, "pitch": 65, "duration": 11, "velocity": 84}, {"time": 4002, "pitch": 69, "duration": 11, "velocity": 78}, {"time": 4008, "pitch": 41, "duration": 3, "velocity": 82}, {"time": 4008, "pitch": 53, "duration": 2, "velocity": 57}, {"time": 4014, "pitch": 48, "duration": 5, "velocity": 79}, {"time": 4020, "pitch": 60, "duration": 3, "velocity": 75}, {"time": 4020, "pitch": 65, "duration": 4, "velocity": 82}, {"time": 4020, "pitch": 69, "duration": 10, "velocity": 73}, {"time": 4026, "pitch": 43, "duration": 7, "velocity": 78}, {"time": 4032, "pitch": 45, "duration": 7, "velocity": 72}, {"time": 4038, "pitch": 46, "duration": 13, "velocity": 82}, {"time": 4038, "pitch": 62, "duration": 5, "velocity": 79}, {"time": 4038, "pitch": 65, "duration": 5, "velocity": 84}, {"time": 4038, "pitch": 70, "duration": 5, "velocity": 84}, {"time": 4050, "pitch": 62, "duration": 11, "velocity": 80}, {"time": 4050, "pitch": 65, "duration": 11, "velocity": 83}, {"time": 4050, "pitch": 70, "duration": 10, "velocity": 81}, {"time": 4056, "pitch": 46, "duration": 2, "velocity": 75}, {"time": 4062, "pitch": 46, "duration": 7, "velocity": 82}, {"time": 4068, "pitch": 62, "duration": 8, "velocity": 80}, {"time": 4068, "pitch": 65, "duration": 9, "velocity": 83}, {"time": 4068, "pitch": 70, "duration": 8, "velocity": 84}, {"time": 4074, "pitch": 46, "duration": 4, "velocity": 78}, {"time": 4080, "pitch": 67, "duration": 3, "velocity": 76}, {"time": 4086, "pitch": 41, "duration": 13, "velocity": 80}, {"time": 4086, "pitch": 60, "duration": 3, "velocity": 59}, {"time": 4086, "pitch": 65, "duration": 3, "velocity": 71}, {"time": 4086, "pitch": 67, "duration": 2, "velocity": 75}, {"time": 4086, "pitch": 69, "duration": 4, "velocity": 72}, {"time": 4098, "pitch": 60, "duration": 12, "velocity": 80}, {"time": 4098, "pitch": 65, "duration": 12, "velocity": 84}, {"time": 4098, "pitch": 69, "duration": 11, "velocity": 75}, {"time": 4104, "pitch": 41, "duration": 3, "velocity": 80}, {"time": 4110, "pitch": 48, "duration": 7, "velocity": 78}, {"time": 4116, "pitch": 60, "duration": 12, "velocity": 69}, {"time": 4116, "pitch": 65, "duration": 12, "velocity": 76}, {"time": 4116, "pitch": 69, "duration": 13, "velocity": 73}, {"time": 4122, "pitch": 41, "duration": 7, "velocity": 79}, {"time": 4134, "pitch": 36, "duration": 13, "velocity": 98}, {"time": 4146, "pitch": 60, "duration": 12, "velocity": 79}, {"time": 4146, "pitch": 64, "duration": 12, "velocity": 69}, {"time": 4146, "pitch": 67, "duration": 12, "velocity": 72}, {"time": 4146, "pitch": 72, "duration": 11, "velocity": 78}, {"time": 4152, "pitch": 36, "duration": 2, "velocity": 83}, {"time": 4158, "pitch": 36, "duration": 8, "velocity": 94}, {"time": 4164, "pitch": 60, "duration": 7, "velocity": 82}, {"time": 4164, "pitch": 64, "duration": 6, "velocity": 79}, {"time": 4164, "pitch": 67, "duration": 8, "velocity": 75}, {"time": 4164, "pitch": 72, "duration": 8, "velocity": 84}, {"time": 4170, "pitch": 40, "duration": 3, "velocity": 83}, {"time": 4176, "pitch": 60, "duration": 1, "velocity": 50}, {"time": 4182, "pitch": 41, "duration": 8, "velocity": 84}, {"time": 4182, "pitch": 60, "duration": 8, "velocity": 91}, {"time": 4182, "pitch": 65, "duration": 8, "velocity": 86}, {"time": 4182, "pitch": 69, "duration": 8, "velocity": 84}], "annotations": [{"time": 7, "annotation": {"number": 64, "value": 127}, "group": "control_change"}, {"time": 53, "annotation": {"number": 64, "value": 0}, "group": "control_change"}, {"time": 59, "annotation": {"number": 64, "value": 127}, "group": "control_change"}, {"time": 100, "annotation": {"number": 64, "value": 0}, "group": "control_change"}, {"time": 105, "annotation": {"number": 64, "value": 127}, "group": "control_change"}, {"time": 124, "annotation": {"number": 64, "value": 0}, "group": "control_change"}, {"time": 129, "annotation": {"number": 64, "value": 127}, "group": "control_change"}, {"time": 147, "annotation": {"number": 64, "value": 0}, "group": "control_change"}, {"time": 154, "annotation": {"number": 64, "value": 127}, "group": "control_change"}, {"time": 196, "annotation": {"number": 64, "value": 0}, "group": "control_change"}, {"time": 203, "annotation": {"number": 64, "value": 127}, "group": "control_change"}, {"time": 243, "annotation": {"number": 64, "value": 0}, "group": "control_change"}, {"time": 250, "annotation": {"number": 64, "value": 127}, "group": "control_change"}, {"time": 290, "annotation": {"number": 64, "value": 0}, "group": "control_change"}, {"time": 302, "annotation": {"number": 64, "value": 127}, "group": "control_change"}, {"time": 339, "annotation": {"number": 64, "value": 0}, "group": "control_change"}, {"time": 342, "annotation": {"number": 64, "value": 127}, "group": "control_change"}, {"time": 358, "annotation": {"number": 64, "value": 0}, "group": "control_change"}, {"time": 678, "annotation": {"number": 64, "value": 127}, "group": "control_change"}, {"time": 699, "annotation": {"number": 64, "value": 0}, "group": "control_change"}, {"time": 709, "annotation": {"number": 64, "value": 127}, "group": "control_change"}, {"time": 722, "annotation": {"number": 64, "value": 0}, "group": "control_change"}, {"time": 754, "annotation": {"number": 64, "value": 127}, "group": "control_change"}, {"time": 758, "annotation": {"number": 64, "value": 0}, "group": "control_change"}, {"time": 1062, "annotation": {"number": 64, "value": 127}, "group": "control_change"}, {"time": 1083, "annotation": {"number": 64, "value": 0}, "group": "control_change"}, {"time": 1093, "annotation": {"number": 64, "value": 127}, "group": "control_change"}, {"time": 1106, "annotation": {"number": 64, "value": 0}, "group": "control_change"}, {"time": 1136, "annotation": {"number": 64, "value": 127}, "group": "control_change"}, {"time": 1153, "annotation": {"number": 64, "value": 0}, "group": "control_change"}, {"time": 1159, "annotation": {"number": 64, "value": 127}, "group": "control_change"}, {"time": 1204, "annotation": {"number": 64, "value": 0}, "group": "control_change"}, {"time": 1211, "annotation": {"number": 64, "value": 127}, "group": "control_change"}, {"time": 1252, "annotation": {"number": 64, "value": 0}, "group": "control_change"}, {"time": 1261, "annotation": {"number": 64, "value": 127}, "group": "control_change"}, {"time": 1278, "annotation": {"number": 64, "value": 0}, "group": "control_change"}, {"time": 1287, "annotation": {"number": 64, "value": 127}, "group": "control_change"}, {"time": 1293, "annotation": {"number": 64, "value": 0}, "group": "control_change"}, {"time": 1312, "annotation": {"number": 64, "value": 127}, "group": "control_change"}, {"time": 1347, "annotation": {"number": 64, "value": 0}, "group": "control_change"}, {"time": 1358, "annotation": {"number": 64, "value": 127}, "group": "control_change"}, {"time": 1395, "annotation": {"number": 64, "value": 0}, "group": "control_change"}, {"time": 1405, "annotation": {"number": 64, "value": 127}, "group": "control_change"}, {"time": 1443, "annotation": {"number": 64, "value": 0}, "group": "control_change"}, {"time": 1451, "annotation": {"number": 64, "value": 127}, "group": "control_change"}, {"time": 1470, "annotation": {"number": 64, "value": 0}, "group": "control_change"}, {"time": 1478, "annotation": {"number": 64, "value": 127}, "group": "control_change"}, {"time": 1487, "annotation": {"number": 64, "value": 0}, "group": "control_change"}, {"time": 1546, "annotation": {"number": 64, "value": 127}, "group": "control_change"}, {"time": 1556, "annotation": {"number": 64, "value": 0}, "group": "control_change"}, {"time": 1596, "annotation": {"number": 64, "value": 127}, "group": "control_change"}, {"time": 1636, "annotation": {"number": 64, "value": 0}, "group": "control_change"}, {"time": 1647, "annotation": {"number": 64, "value": 127}, "group": "control_change"}, {"time": 1656, "annotation": {"number": 64, "value": 0}, "group": "control_change"}, {"time": 1666, "annotation": {"number": 64, "value": 127}, "group": "control_change"}, {"time": 1684, "annotation": {"number": 64, "value": 0}, "group": "control_change"}, {"time": 1689, "annotation": {"number": 64, "value": 127}, "group": "control_change"}, {"time": 1730, "annotation": {"number": 64, "value": 0}, "group": "control_change"}, {"time": 1736, "annotation": {"number": 64, "value": 127}, "group": "control_change"}, {"time": 1756, "annotation": {"number": 64, "value": 0}, "group": "control_change"}, {"time": 1762, "annotation": {"number": 64, "value": 127}, "group": "control_change"}, {"time": 1781, "annotation": {"number": 64, "value": 0}, "group": "control_change"}, {"time": 1788, "annotation": {"number": 64, "value": 127}, "group": "control_change"}, {"time": 1806, "annotation": {"number": 64, "value": 0}, "group": "control_change"}, {"time": 1814, "annotation": {"number": 64, "value": 127}, "group": "control_change"}, {"time": 1827, "annotation": {"number": 64, "value": 0}, "group": "control_change"}, {"time": 1834, "annotation": {"number": 64, "value": 127}, "group": "control_change"}, {"time": 1850, "annotation": {"number": 64, "value": 0}, "group": "control_change"}, {"time": 1861, "annotation": {"number": 64, "value": 127}, "group": "control_change"}, {"time": 1874, "annotation": {"number": 64, "value": 0}, "group": "control_change"}, {"time": 1890, "annotation": {"number": 64, "value": 127}, "group": "control_change"}, {"time": 1924, "annotation": {"number": 64, "value": 0}, "group": "control_change"}, {"time": 1927, "annotation": {"number": 64, "value": 127}, "group": "control_change"}, {"time": 1973, "annotation": {"number": 64, "value": 0}, "group": "control_change"}, {"time": 1979, "annotation": {"number": 64, "value": 127}, "group": "control_change"}, {"time": 2020, "annotation": {"number": 64, "value": 0}, "group": "control_change"}, {"time": 2025, "annotation": {"number": 64, "value": 127}, "group": "control_change"}, {"time": 2044, "annotation": {"number": 64, "value": 0}, "group": "control_change"}, {"time": 2049, "annotation": {"number": 64, "value": 127}, "group": "control_change"}, {"time": 2067, "annotation": {"number": 64, "value": 0}, "group": "control_change"}, {"time": 2074, "annotation": {"number": 64, "value": 127}, "group": "control_change"}, {"time": 2116, "annotation": {"number": 64, "value": 0}, "group": "control_change"}, {"time": 2123, "annotation": {"number": 64, "value": 127}, "group": "control_change"}, {"time": 2163, "annotation": {"number": 64, "value": 0}, "group": "control_change"}, {"time": 2170, "annotation": {"number": 64, "value": 127}, "group": "control_change"}, {"time": 2210, "annotation": {"number": 64, "value": 0}, "group": "control_change"}, {"time": 2222, "annotation": {"number": 64, "value": 127}, "group": "control_change"}, {"time": 2259, "annotation": {"number": 64, "value": 0}, "group": "control_change"}, {"time": 2262, "annotation": {"number": 64, "value": 127}, "group": "control_change"}, {"time": 2278, "annotation": {"number": 64, "value": 0}, "group": "control_change"}, {"time": 2598, "annotation": {"number": 64, "value": 127}, "group": "control_change"}, {"time": 2619, "annotation": {"number": 64, "value": 0}, "group": "control_change"}, {"time": 2629, "annotation": {"number": 64, "value": 127}, "group": "control_change"}, {"time": 2642, "annotation": {"number": 64, "value": 0}, "group": "control_change"}, {"time": 2674, "annotation": {"number": 64, "value": 127}, "group": "control_change"}, {"time": 2678, "annotation": {"number": 64, "value": 0}, "group": "control_change"}, {"time": 2982, "annotation": {"number": 64, "value": 127}, "group": "control_change"}, {"time": 3003, "annotation": {"number": 64, "value": 0}, "group": "control_change"}, {"time": 3013, "annotation": {"number": 64, "value": 127}, "group": "control_change"}, {"time": 3026, "annotation": {"number": 64, "value": 0}, "group": "control_change"}, {"time": 3056, "annotation": {"number": 64, "value": 127}, "group": "control_change"}, {"time": 3073, "annotation": {"number": 64, "value": 0}, "group": "control_change"}, {"time": 3079, "annotation": {"number": 64, "value": 127}, "group": "control_change"}, {"time": 3124, "annotation": {"number": 64, "value": 0}, "group": "control_change"}, {"time": 3131, "annotation": {"number": 64, "value": 127}, "group": "control_change"}, {"time": 3172, "annotation": {"number": 64, "value": 0}, "group": "control_change"}, {"time": 3181, "annotation": {"number": 64, "value": 127}, "group": "control_change"}, {"time": 3198, "annotation": {"number": 64, "value": 0}, "group": "control_change"}, {"time": 3207, "annotation": {"number": 64, "value": 127}, "group": "control_change"}, {"time": 3213, "annotation": {"number": 64, "value": 0}, "group": "control_change"}, {"time": 3232, "annotation": {"number": 64, "value": 127}, "group": "control_change"}, {"time": 3267, "annotation": {"number": 64, "value": 0}, "group": "control_change"}, {"time": 3278, "annotation": {"number": 64, "value": 127}, "group": "control_change"}, {"time": 3315, "annotation": {"number": 64, "value": 0}, "group": "control_change"}, {"time": 3325, "annotation": {"number": 64, "value": 127}, "group": "control_change"}, {"time": 3363, "annotation": {"number": 64, "value": 0}, "group": "control_change"}, {"time": 3371, "annotation": {"number": 64, "value": 127}, "group": "control_change"}, {"time": 3390, "annotation": {"number": 64, "value": 0}, "group": "control_change"}, {"time": 3398, "annotation": {"number": 64, "value": 127}, "group": "control_change"}, {"time": 3407, "annotation": {"number": 64, "value": 0}, "group": "control_change"}, {"time": 3466, "annotation": {"number": 64, "value": 127}, "group": "control_change"}, {"time": 3476, "annotation": {"number": 64, "value": 0}, "group": "control_change"}, {"time": 3516, "annotation": {"number": 64, "value": 127}, "group": "control_change"}, {"time": 3556, "annotation": {"number": 64, "value": 0}, "group": "control_change"}, {"time": 3567, "annotation": {"number": 64, "value": 127}, "group": "control_change"}, {"time": 3576, "annotation": {"number": 64, "value": 0}, "group": "control_change"}, {"time": 3586, "annotation": {"number": 64, "value": 127}, "group": "control_change"}, {"time": 3604, "annotation": {"number": 64, "value": 0}, "group": "control_change"}, {"time": 3609, "annotation": {"number": 64, "value": 127}, "group": "control_change"}, {"time": 3650, "annotation": {"number": 64, "value": 0}, "group": "control_change"}, {"time": 3656, "annotation": {"number": 64, "value": 127}, "group": "control_change"}, {"time": 3676, "annotation": {"number": 64, "value": 0}, "group": "control_change"}, {"time": 3682, "annotation": {"number": 64, "value": 127}, "group": "control_change"}, {"time": 3701, "annotation": {"number": 64, "value": 0}, "group": "control_change"}, {"time": 3708, "annotation": {"number": 64, "value": 127}, "group": "control_change"}, {"time": 3726, "annotation": {"number": 64, "value": 0}, "group": "control_change"}, {"time": 3734, "annotation": {"number": 64, "value": 127}, "group": "control_change"}, {"time": 3747, "annotation": {"number": 64, "value": 0}, "group": "control_change"}, {"time": 3754, "annotation": {"number": 64, "value": 127}, "group": "control_change"}, {"time": 3770, "annotation": {"number": 64, "value": 0}, "group": "control_change"}, {"time": 3781, "annotation": {"number": 64, "value": 127}, "group": "control_change"}, {"time": 3794, "annotation": {"number": 64, "value": 0}, "group": "control_change"}, {"time": 3810, "annotation": {"number": 64, "value": 127}, "group": "control_change"}, {"time": 3844, "annotation": {"number": 64, "value": 0}, "group": "control_change"}, {"time": 3847, "annotation": {"number": 64, "value": 127}, "group": "control_change"}, {"time": 3893, "annotation": {"number": 64, "value": 0}, "group": "control_change"}, {"time": 3899, "annotation": {"number": 64, "value": 127}, "group": "control_change"}, {"time": 3940, "annotation": {"number": 64, "value": 0}, "group": "control_change"}, {"time": 3945, "annotation": {"number": 64, "value": 127}, "group": "control_change"}, {"time": 3964, "annotation": {"number": 64, "value": 0}, "group": "control_change"}, {"time": 3969, "annotation": {"number": 64, "value": 127}, "group": "control_change"}, {"time": 3987, "annotation": {"number": 64, "value": 0}, "group": "control_change"}, {"time": 3994, "annotation": {"number": 64, "value": 127}, "group": "control_change"}, {"time": 4036, "annotation": {"number": 64, "value": 0}, "group": "control_change"}, {"time": 4043, "annotation": {"number": 64, "value": 127}, "group": "control_change"}, {"time": 4083, "annotation": {"number": 64, "value": 0}, "group": "control_change"}, {"time": 4090, "annotation": {"number": 64, "value": 127}, "group": "control_change"}, {"time": 4130, "annotation": {"number": 64, "value": 0}, "group": "control_change"}, {"time": 4142, "annotation": {"number": 64, "value": 127}, "group": "control_change"}, {"time": 4179, "annotation": {"number": 64, "value": 0}, "group": "control_change"}, {"time": 4182, "annotation": {"number": 64, "value": 127}, "group": "control_change"}]}]}