{"metadata": {"schema_version": "0.2", "title": "None", "source_filename": "249.mid", "source_format": "midi"}, "resolution": 12, "tempos": [{"time": 0, "qpm": 114.00038760131784}], "time_signatures": [{"time": 0, "numerator": 4, "denominator": 4}], "tracks": [{"program": 0, "is_drum": false, "name": "MELODY", "notes": [{"time": 435, "pitch": 72, "duration": 12, "velocity": 76}, {"time": 447, "pitch": 72, "duration": 9, "velocity": 72}, {"time": 456, "pitch": 70, "duration": 4, "velocity": 62}, {"time": 459, "pitch": 72, "duration": 6, "velocity": 76}, {"time": 465, "pitch": 72, "duration": 12, "velocity": 73}, {"time": 477, "pitch": 70, "duration": 6, "velocity": 63}, {"time": 483, "pitch": 67, "duration": 12, "velocity": 66}, {"time": 495, "pitch": 67, "duration": 7, "velocity": 57}, {"time": 501, "pitch": 75, "duration": 6, "velocity": 63}, {"time": 507, "pitch": 72, "duration": 24, "velocity": 56}, {"time": 531, "pitch": 75, "duration": 12, "velocity": 93}, {"time": 543, "pitch": 72, "duration": 9, "velocity": 90}, {"time": 552, "pitch": 75, "duration": 5, "velocity": 66}, {"time": 555, "pitch": 72, "duration": 6, "velocity": 79}, {"time": 561, "pitch": 70, "duration": 18, "velocity": 66}, {"time": 579, "pitch": 72, "duration": 6, "velocity": 85}, {"time": 585, "pitch": 70, "duration": 12, "velocity": 66}, {"time": 597, "pitch": 65, "duration": 7, "velocity": 56}, {"time": 603, "pitch": 67, "duration": 24, "velocity": 79}, {"time": 627, "pitch": 65, "duration": 6, "velocity": 92}, {"time": 633, "pitch": 65, "duration": 12, "velocity": 83}, {"time": 645, "pitch": 67, "duration": 6, "velocity": 87}, {"time": 651, "pitch": 65, "duration": 12, "velocity": 76}, {"time": 663, "pitch": 63, "duration": 6, "velocity": 75}, {"time": 669, "pitch": 60, "duration": 6, "velocity": 75}, {"time": 675, "pitch": 72, "duration": 9, "velocity": 77}, {"time": 684, "pitch": 70, "duration": 9, "velocity": 87}, {"time": 693, "pitch": 67, "duration": 6, "velocity": 68}, {"time": 699, "pitch": 70, "duration": 24, "velocity": 90}, {"time": 723, "pitch": 75, "duration": 6, "velocity": 97}, {"time": 729, "pitch": 72, "duration": 7, "velocity": 83}, {"time": 735, "pitch": 75, "duration": 6, "velocity": 93}, {"time": 741, "pitch": 75, "duration": 6, "velocity": 92}, {"time": 747, "pitch": 72, "duration": 6, "velocity": 71}, {"time": 753, "pitch": 77, "duration": 12, "velocity": 85}, {"time": 765, "pitch": 70, "duration": 6, "velocity": 90}, {"time": 771, "pitch": 70, "duration": 6, "velocity": 87}, {"time": 777, "pitch": 67, "duration": 6, "velocity": 74}, {"time": 783, "pitch": 70, "duration": 7, "velocity": 72}, {"time": 789, "pitch": 72, "duration": 6, "velocity": 76}, {"time": 795, "pitch": 72, "duration": 72, "velocity": 90}, {"time": 867, "pitch": 72, "duration": 12, "velocity": 92}, {"time": 879, "pitch": 72, "duration": 9, "velocity": 89}, {"time": 888, "pitch": 70, "duration": 4, "velocity": 71}, {"time": 891, "pitch": 72, "duration": 6, "velocity": 86}, {"time": 897, "pitch": 72, "duration": 12, "velocity": 90}, {"time": 909, "pitch": 70, "duration": 6, "velocity": 85}, {"time": 915, "pitch": 67, "duration": 12, "velocity": 69}, {"time": 927, "pitch": 67, "duration": 6, "velocity": 65}, {"time": 933, "pitch": 75, "duration": 7, "velocity": 66}, {"time": 939, "pitch": 72, "duration": 24, "velocity": 84}, {"time": 963, "pitch": 75, "duration": 6, "velocity": 99}, {"time": 969, "pitch": 75, "duration": 6, "velocity": 84}, {"time": 975, "pitch": 72, "duration": 6, "velocity": 87}, {"time": 981, "pitch": 75, "duration": 6, "velocity": 92}, {"time": 987, "pitch": 72, "duration": 6, "velocity": 84}, {"time": 993, "pitch": 75, "duration": 18, "velocity": 93}, {"time": 1011, "pitch": 72, "duration": 6, "velocity": 91}, {"time": 1017, "pitch": 70, "duration": 12, "velocity": 87}, {"time": 1029, "pitch": 65, "duration": 6, "velocity": 63}, {"time": 1035, "pitch": 70, "duration": 6, "velocity": 65}, {"time": 1041, "pitch": 67, "duration": 18, "velocity": 65}, {"time": 1059, "pitch": 65, "duration": 9, "velocity": 85}, {"time": 1068, "pitch": 63, "duration": 3, "velocity": 53}, {"time": 1071, "pitch": 65, "duration": 6, "velocity": 66}, {"time": 1077, "pitch": 63, "duration": 7, "velocity": 55}, {"time": 1083, "pitch": 65, "duration": 6, "velocity": 63}, {"time": 1089, "pitch": 65, "duration": 12, "velocity": 64}, {"time": 1101, "pitch": 67, "duration": 6, "velocity": 79}, {"time": 1107, "pitch": 72, "duration": 6, "velocity": 68}, {"time": 1113, "pitch": 70, "duration": 12, "velocity": 65}, {"time": 1125, "pitch": 67, "duration": 6, "velocity": 63}, {"time": 1131, "pitch": 72, "duration": 6, "velocity": 65}, {"time": 1137, "pitch": 70, "duration": 18, "velocity": 77}, {"time": 1155, "pitch": 75, "duration": 6, "velocity": 87}, {"time": 1161, "pitch": 75, "duration": 6, "velocity": 77}, {"time": 1167, "pitch": 75, "duration": 6, "velocity": 79}, {"time": 1173, "pitch": 72, "duration": 6, "velocity": 64}, {"time": 1179, "pitch": 77, "duration": 6, "velocity": 91}, {"time": 1185, "pitch": 77, "duration": 18, "velocity": 93}, {"time": 1203, "pitch": 70, "duration": 9, "velocity": 90}, {"time": 1212, "pitch": 67, "duration": 9, "velocity": 84}, {"time": 1221, "pitch": 75, "duration": 6, "velocity": 90}, {"time": 1227, "pitch": 72, "duration": 72, "velocity": 98}, {"time": 1299, "pitch": 75, "duration": 12, "velocity": 85}, {"time": 1311, "pitch": 72, "duration": 6, "velocity": 64}, {"time": 1317, "pitch": 75, "duration": 6, "velocity": 57}, {"time": 1323, "pitch": 72, "duration": 12, "velocity": 62}, {"time": 1335, "pitch": 75, "duration": 12, "velocity": 87}, {"time": 1347, "pitch": 75, "duration": 6, "velocity": 79}, {"time": 1353, "pitch": 67, "duration": 12, "velocity": 71}, {"time": 1365, "pitch": 75, "duration": 6, "velocity": 90}, {"time": 1371, "pitch": 72, "duration": 24, "velocity": 93}, {"time": 1395, "pitch": 75, "duration": 12, "velocity": 90}, {"time": 1407, "pitch": 75, "duration": 12, "velocity": 79}, {"time": 1419, "pitch": 75, "duration": 12, "velocity": 71}, {"time": 1431, "pitch": 72, "duration": 6, "velocity": 65}, {"time": 1437, "pitch": 70, "duration": 6, "velocity": 66}, {"time": 1443, "pitch": 72, "duration": 6, "velocity": 61}, {"time": 1449, "pitch": 70, "duration": 12, "velocity": 64}, {"time": 1461, "pitch": 65, "duration": 6, "velocity": 66}, {"time": 1467, "pitch": 67, "duration": 24, "velocity": 66}, {"time": 1491, "pitch": 77, "duration": 12, "velocity": 87}, {"time": 1503, "pitch": 77, "duration": 12, "velocity": 86}, {"time": 1515, "pitch": 72, "duration": 12, "velocity": 87}, {"time": 1527, "pitch": 77, "duration": 12, "velocity": 84}, {"time": 1539, "pitch": 77, "duration": 6, "velocity": 90}, {"time": 1545, "pitch": 77, "duration": 6, "velocity": 87}, {"time": 1551, "pitch": 72, "duration": 6, "velocity": 66}, {"time": 1557, "pitch": 79, "duration": 6, "velocity": 77}, {"time": 1563, "pitch": 77, "duration": 24, "velocity": 90}, {"time": 1587, "pitch": 70, "duration": 6, "velocity": 87}, {"time": 1593, "pitch": 70, "duration": 6, "velocity": 81}, {"time": 1599, "pitch": 70, "duration": 6, "velocity": 87}, {"time": 1605, "pitch": 72, "duration": 6, "velocity": 90}, {"time": 1611, "pitch": 74, "duration": 24, "velocity": 90}, {"time": 1635, "pitch": 70, "duration": 6, "velocity": 103}, {"time": 1641, "pitch": 67, "duration": 6, "velocity": 84}, {"time": 1647, "pitch": 70, "duration": 6, "velocity": 91}, {"time": 1653, "pitch": 72, "duration": 6, "velocity": 90}, {"time": 1659, "pitch": 72, "duration": 24, "velocity": 97}, {"time": 1683, "pitch": 75, "duration": 12, "velocity": 93}, {"time": 1695, "pitch": 72, "duration": 6, "velocity": 87}, {"time": 1701, "pitch": 75, "duration": 6, "velocity": 90}, {"time": 1707, "pitch": 72, "duration": 12, "velocity": 63}, {"time": 1719, "pitch": 75, "duration": 12, "velocity": 95}, {"time": 1731, "pitch": 75, "duration": 6, "velocity": 90}, {"time": 1737, "pitch": 67, "duration": 6, "velocity": 69}, {"time": 1743, "pitch": 67, "duration": 6, "velocity": 79}, {"time": 1749, "pitch": 75, "duration": 6, "velocity": 91}, {"time": 1755, "pitch": 72, "duration": 24, "velocity": 93}, {"time": 1779, "pitch": 75, "duration": 6, "velocity": 84}, {"time": 1785, "pitch": 75, "duration": 6, "velocity": 77}, {"time": 1791, "pitch": 75, "duration": 9, "velocity": 87}, {"time": 1797, "pitch": 72, "duration": 6, "velocity": 60}, {"time": 1803, "pitch": 75, "duration": 6, "velocity": 66}, {"time": 1809, "pitch": 75, "duration": 18, "velocity": 66}, {"time": 1827, "pitch": 72, "duration": 6, "velocity": 91}, {"time": 1833, "pitch": 70, "duration": 6, "velocity": 54}, {"time": 1839, "pitch": 65, "duration": 6, "velocity": 63}, {"time": 1845, "pitch": 70, "duration": 6, "velocity": 64}, {"time": 1851, "pitch": 67, "duration": 24, "velocity": 66}, {"time": 1875, "pitch": 77, "duration": 12, "velocity": 97}, {"time": 1887, "pitch": 77, "duration": 12, "velocity": 93}, {"time": 1899, "pitch": 72, "duration": 12, "velocity": 91}, {"time": 1911, "pitch": 77, "duration": 12, "velocity": 98}, {"time": 1923, "pitch": 77, "duration": 6, "velocity": 96}, {"time": 1929, "pitch": 77, "duration": 6, "velocity": 95}, {"time": 1935, "pitch": 72, "duration": 6, "velocity": 76}, {"time": 1941, "pitch": 79, "duration": 6, "velocity": 98}, {"time": 1947, "pitch": 77, "duration": 24, "velocity": 105}, {"time": 1971, "pitch": 70, "duration": 6, "velocity": 103}, {"time": 1977, "pitch": 70, "duration": 12, "velocity": 90}, {"time": 1989, "pitch": 72, "duration": 6, "velocity": 98}, {"time": 1995, "pitch": 74, "duration": 12, "velocity": 96}, {"time": 2007, "pitch": 74, "duration": 12, "velocity": 100}, {"time": 2019, "pitch": 70, "duration": 12, "velocity": 86}, {"time": 2031, "pitch": 67, "duration": 12, "velocity": 86}, {"time": 2043, "pitch": 72, "duration": 47, "velocity": 103}, {"time": 2835, "pitch": 72, "duration": 12, "velocity": 76}, {"time": 2847, "pitch": 72, "duration": 9, "velocity": 72}, {"time": 2856, "pitch": 70, "duration": 4, "velocity": 62}, {"time": 2859, "pitch": 72, "duration": 6, "velocity": 76}, {"time": 2865, "pitch": 72, "duration": 12, "velocity": 73}, {"time": 2877, "pitch": 70, "duration": 6, "velocity": 63}, {"time": 2883, "pitch": 67, "duration": 12, "velocity": 66}, {"time": 2895, "pitch": 67, "duration": 7, "velocity": 57}, {"time": 2901, "pitch": 75, "duration": 6, "velocity": 63}, {"time": 2907, "pitch": 72, "duration": 24, "velocity": 56}, {"time": 2931, "pitch": 75, "duration": 6, "velocity": 93}, {"time": 2937, "pitch": 75, "duration": 6, "velocity": 93}, {"time": 2943, "pitch": 72, "duration": 6, "velocity": 90}, {"time": 2949, "pitch": 75, "duration": 8, "velocity": 66}, {"time": 2955, "pitch": 72, "duration": 6, "velocity": 79}, {"time": 2961, "pitch": 75, "duration": 18, "velocity": 66}, {"time": 2979, "pitch": 72, "duration": 6, "velocity": 85}, {"time": 2985, "pitch": 70, "duration": 12, "velocity": 66}, {"time": 2997, "pitch": 65, "duration": 7, "velocity": 56}, {"time": 3003, "pitch": 70, "duration": 6, "velocity": 79}, {"time": 3009, "pitch": 67, "duration": 18, "velocity": 79}, {"time": 3027, "pitch": 65, "duration": 9, "velocity": 85}, {"time": 3036, "pitch": 63, "duration": 3, "velocity": 53}, {"time": 3039, "pitch": 65, "duration": 6, "velocity": 66}, {"time": 3045, "pitch": 63, "duration": 7, "velocity": 55}, {"time": 3051, "pitch": 65, "duration": 6, "velocity": 63}, {"time": 3057, "pitch": 65, "duration": 12, "velocity": 64}, {"time": 3069, "pitch": 67, "duration": 6, "velocity": 79}, {"time": 3075, "pitch": 72, "duration": 6, "velocity": 68}, {"time": 3081, "pitch": 70, "duration": 12, "velocity": 65}, {"time": 3093, "pitch": 67, "duration": 6, "velocity": 63}, {"time": 3099, "pitch": 72, "duration": 6, "velocity": 65}, {"time": 3105, "pitch": 70, "duration": 18, "velocity": 77}, {"time": 3123, "pitch": 75, "duration": 6, "velocity": 87}, {"time": 3129, "pitch": 75, "duration": 6, "velocity": 77}, {"time": 3135, "pitch": 75, "duration": 6, "velocity": 79}, {"time": 3141, "pitch": 72, "duration": 6, "velocity": 64}, {"time": 3147, "pitch": 77, "duration": 6, "velocity": 91}, {"time": 3153, "pitch": 77, "duration": 18, "velocity": 93}, {"time": 3171, "pitch": 70, "duration": 9, "velocity": 90}, {"time": 3180, "pitch": 67, "duration": 9, "velocity": 84}, {"time": 3189, "pitch": 75, "duration": 6, "velocity": 90}, {"time": 3195, "pitch": 72, "duration": 72, "velocity": 98}, {"time": 3267, "pitch": 75, "duration": 12, "velocity": 85}, {"time": 3279, "pitch": 72, "duration": 6, "velocity": 64}, {"time": 3285, "pitch": 75, "duration": 6, "velocity": 57}, {"time": 3291, "pitch": 72, "duration": 12, "velocity": 62}, {"time": 3303, "pitch": 75, "duration": 12, "velocity": 87}, {"time": 3315, "pitch": 75, "duration": 6, "velocity": 79}, {"time": 3321, "pitch": 67, "duration": 12, "velocity": 71}, {"time": 3333, "pitch": 75, "duration": 6, "velocity": 90}, {"time": 3339, "pitch": 72, "duration": 24, "velocity": 93}, {"time": 3363, "pitch": 75, "duration": 12, "velocity": 90}, {"time": 3375, "pitch": 75, "duration": 12, "velocity": 79}, {"time": 3387, "pitch": 75, "duration": 12, "velocity": 71}, {"time": 3399, "pitch": 72, "duration": 6, "velocity": 65}, {"time": 3405, "pitch": 70, "duration": 6, "velocity": 66}, {"time": 3411, "pitch": 72, "duration": 6, "velocity": 61}, {"time": 3417, "pitch": 70, "duration": 12, "velocity": 64}, {"time": 3429, "pitch": 65, "duration": 6, "velocity": 66}, {"time": 3435, "pitch": 67, "duration": 24, "velocity": 66}, {"time": 3459, "pitch": 77, "duration": 12, "velocity": 87}, {"time": 3471, "pitch": 77, "duration": 12, "velocity": 86}, {"time": 3483, "pitch": 72, "duration": 12, "velocity": 87}, {"time": 3495, "pitch": 77, "duration": 12, "velocity": 84}, {"time": 3507, "pitch": 77, "duration": 6, "velocity": 90}, {"time": 3513, "pitch": 77, "duration": 6, "velocity": 87}, {"time": 3519, "pitch": 72, "duration": 6, "velocity": 66}, {"time": 3525, "pitch": 79, "duration": 6, "velocity": 77}, {"time": 3531, "pitch": 77, "duration": 24, "velocity": 90}, {"time": 3555, "pitch": 70, "duration": 6, "velocity": 87}, {"time": 3561, "pitch": 70, "duration": 6, "velocity": 81}, {"time": 3567, "pitch": 70, "duration": 6, "velocity": 87}, {"time": 3573, "pitch": 72, "duration": 6, "velocity": 90}, {"time": 3579, "pitch": 74, "duration": 24, "velocity": 90}, {"time": 3603, "pitch": 70, "duration": 6, "velocity": 103}, {"time": 3609, "pitch": 67, "duration": 6, "velocity": 84}, {"time": 3615, "pitch": 70, "duration": 6, "velocity": 91}, {"time": 3621, "pitch": 72, "duration": 6, "velocity": 90}, {"time": 3627, "pitch": 72, "duration": 24, "velocity": 97}, {"time": 3651, "pitch": 75, "duration": 12, "velocity": 93}, {"time": 3663, "pitch": 72, "duration": 6, "velocity": 87}, {"time": 3669, "pitch": 75, "duration": 6, "velocity": 90}, {"time": 3675, "pitch": 72, "duration": 12, "velocity": 63}, {"time": 3687, "pitch": 75, "duration": 12, "velocity": 95}, {"time": 3699, "pitch": 75, "duration": 6, "velocity": 90}, {"time": 3705, "pitch": 67, "duration": 6, "velocity": 69}, {"time": 3711, "pitch": 67, "duration": 6, "velocity": 79}, {"time": 3717, "pitch": 75, "duration": 6, "velocity": 91}, {"time": 3723, "pitch": 72, "duration": 24, "velocity": 93}, {"time": 3747, "pitch": 75, "duration": 6, "velocity": 84}, {"time": 3753, "pitch": 75, "duration": 6, "velocity": 77}, {"time": 3759, "pitch": 75, "duration": 9, "velocity": 87}, {"time": 3765, "pitch": 72, "duration": 6, "velocity": 60}, {"time": 3771, "pitch": 75, "duration": 6, "velocity": 66}, {"time": 3777, "pitch": 75, "duration": 18, "velocity": 66}, {"time": 3795, "pitch": 72, "duration": 6, "velocity": 91}, {"time": 3801, "pitch": 70, "duration": 6, "velocity": 54}, {"time": 3807, "pitch": 65, "duration": 6, "velocity": 63}, {"time": 3813, "pitch": 70, "duration": 6, "velocity": 64}, {"time": 3819, "pitch": 67, "duration": 24, "velocity": 66}, {"time": 3843, "pitch": 77, "duration": 12, "velocity": 97}, {"time": 3855, "pitch": 77, "duration": 12, "velocity": 93}, {"time": 3867, "pitch": 72, "duration": 12, "velocity": 91}, {"time": 3879, "pitch": 77, "duration": 12, "velocity": 98}, {"time": 3891, "pitch": 77, "duration": 6, "velocity": 96}, {"time": 3897, "pitch": 77, "duration": 6, "velocity": 95}, {"time": 3903, "pitch": 72, "duration": 6, "velocity": 76}, {"time": 3909, "pitch": 79, "duration": 6, "velocity": 98}, {"time": 3915, "pitch": 77, "duration": 24, "velocity": 105}, {"time": 3939, "pitch": 70, "duration": 6, "velocity": 103}, {"time": 3945, "pitch": 70, "duration": 12, "velocity": 90}, {"time": 3957, "pitch": 72, "duration": 6, "velocity": 98}, {"time": 3963, "pitch": 74, "duration": 12, "velocity": 96}, {"time": 3975, "pitch": 74, "duration": 12, "velocity": 100}, {"time": 3987, "pitch": 70, "duration": 12, "velocity": 86}, {"time": 3999, "pitch": 67, "duration": 12, "velocity": 86}, {"time": 4011, "pitch": 72, "duration": 42, "velocity": 103}, {"time": 4035, "pitch": 75, "duration": 12, "velocity": 93}, {"time": 4047, "pitch": 72, "duration": 6, "velocity": 87}, {"time": 4053, "pitch": 75, "duration": 6, "velocity": 90}, {"time": 4059, "pitch": 72, "duration": 12, "velocity": 63}, {"time": 4071, "pitch": 75, "duration": 12, "velocity": 95}, {"time": 4083, "pitch": 75, "duration": 6, "velocity": 90}, {"time": 4089, "pitch": 67, "duration": 6, "velocity": 69}, {"time": 4095, "pitch": 67, "duration": 6, "velocity": 79}, {"time": 4101, "pitch": 75, "duration": 6, "velocity": 91}, {"time": 4107, "pitch": 72, "duration": 24, "velocity": 93}, {"time": 4131, "pitch": 75, "duration": 12, "velocity": 84}, {"time": 4143, "pitch": 75, "duration": 9, "velocity": 87}, {"time": 4155, "pitch": 75, "duration": 6, "velocity": 66}, {"time": 4161, "pitch": 75, "duration": 6, "velocity": 66}, {"time": 4167, "pitch": 72, "duration": 6, "velocity": 66}, {"time": 4173, "pitch": 70, "duration": 6, "velocity": 66}, {"time": 4179, "pitch": 72, "duration": 6, "velocity": 91}, {"time": 4185, "pitch": 70, "duration": 9, "velocity": 54}, {"time": 4197, "pitch": 65, "duration": 6, "velocity": 63}, {"time": 4203, "pitch": 67, "duration": 24, "velocity": 66}, {"time": 4227, "pitch": 77, "duration": 12, "velocity": 97}, {"time": 4239, "pitch": 77, "duration": 12, "velocity": 93}, {"time": 4251, "pitch": 72, "duration": 12, "velocity": 91}, {"time": 4263, "pitch": 77, "duration": 12, "velocity": 98}, {"time": 4275, "pitch": 77, "duration": 6, "velocity": 96}, {"time": 4281, "pitch": 77, "duration": 6, "velocity": 95}, {"time": 4287, "pitch": 72, "duration": 6, "velocity": 76}, {"time": 4293, "pitch": 79, "duration": 6, "velocity": 98}, {"time": 4299, "pitch": 77, "duration": 24, "velocity": 105}, {"time": 4323, "pitch": 70, "duration": 6, "velocity": 103}, {"time": 4329, "pitch": 70, "duration": 6, "velocity": 90}, {"time": 4335, "pitch": 70, "duration": 6, "velocity": 90}, {"time": 4341, "pitch": 72, "duration": 6, "velocity": 98}, {"time": 4347, "pitch": 74, "duration": 24, "velocity": 96}, {"time": 4371, "pitch": 70, "duration": 6, "velocity": 86}, {"time": 4377, "pitch": 67, "duration": 6, "velocity": 86}, {"time": 4383, "pitch": 70, "duration": 6, "velocity": 86}, {"time": 4389, "pitch": 72, "duration": 6, "velocity": 86}, {"time": 4395, "pitch": 72, "duration": 24, "velocity": 103}, {"time": 4419, "pitch": 75, "duration": 12, "velocity": 93}, {"time": 4431, "pitch": 72, "duration": 6, "velocity": 87}, {"time": 4437, "pitch": 75, "duration": 6, "velocity": 90}, {"time": 4443, "pitch": 72, "duration": 12, "velocity": 63}, {"time": 4455, "pitch": 75, "duration": 12, "velocity": 95}, {"time": 4467, "pitch": 75, "duration": 6, "velocity": 90}, {"time": 4473, "pitch": 67, "duration": 6, "velocity": 69}, {"time": 4479, "pitch": 67, "duration": 6, "velocity": 79}, {"time": 4485, "pitch": 75, "duration": 6, "velocity": 91}, {"time": 4491, "pitch": 72, "duration": 24, "velocity": 93}, {"time": 4515, "pitch": 75, "duration": 6, "velocity": 84}, {"time": 4521, "pitch": 75, "duration": 6, "velocity": 84}, {"time": 4527, "pitch": 75, "duration": 6, "velocity": 87}, {"time": 4533, "pitch": 72, "duration": 3, "velocity": 87}, {"time": 4539, "pitch": 75, "duration": 6, "velocity": 66}, {"time": 4545, "pitch": 75, "duration": 18, "velocity": 66}, {"time": 4563, "pitch": 72, "duration": 6, "velocity": 66}, {"time": 4569, "pitch": 70, "duration": 6, "velocity": 66}, {"time": 4575, "pitch": 65, "duration": 6, "velocity": 91}, {"time": 4581, "pitch": 70, "duration": 6, "velocity": 54}, {"time": 4587, "pitch": 70, "duration": 6, "velocity": 63}, {"time": 4593, "pitch": 67, "duration": 18, "velocity": 63}, {"time": 4611, "pitch": 77, "duration": 12, "velocity": 97}, {"time": 4623, "pitch": 77, "duration": 12, "velocity": 93}, {"time": 4635, "pitch": 72, "duration": 12, "velocity": 91}, {"time": 4647, "pitch": 77, "duration": 12, "velocity": 98}, {"time": 4659, "pitch": 77, "duration": 6, "velocity": 96}, {"time": 4665, "pitch": 77, "duration": 6, "velocity": 95}, {"time": 4671, "pitch": 72, "duration": 6, "velocity": 76}, {"time": 4677, "pitch": 79, "duration": 6, "velocity": 98}, {"time": 4683, "pitch": 77, "duration": 24, "velocity": 105}, {"time": 4707, "pitch": 70, "duration": 9, "velocity": 90}, {"time": 4716, "pitch": 70, "duration": 9, "velocity": 90}, {"time": 4725, "pitch": 72, "duration": 6, "velocity": 98}, {"time": 4731, "pitch": 74, "duration": 12, "velocity": 96}, {"time": 4743, "pitch": 74, "duration": 12, "velocity": 96}, {"time": 4755, "pitch": 70, "duration": 12, "velocity": 86}, {"time": 4767, "pitch": 67, "duration": 12, "velocity": 86}, {"time": 4779, "pitch": 72, "duration": 24, "velocity": 103}, {"time": 4803, "pitch": 70, "duration": 9, "velocity": 90}, {"time": 4812, "pitch": 70, "duration": 9, "velocity": 90}, {"time": 4821, "pitch": 72, "duration": 6, "velocity": 98}, {"time": 4827, "pitch": 74, "duration": 12, "velocity": 96}, {"time": 4839, "pitch": 74, "duration": 12, "velocity": 96}, {"time": 4851, "pitch": 70, "duration": 12, "velocity": 86}, {"time": 4863, "pitch": 67, "duration": 12, "velocity": 86}, {"time": 4875, "pitch": 72, "duration": 47, "velocity": 103}], "annotations": [{"time": 431, "annotation": {"number": 1, "value": 3}, "group": "control_change"}, {"time": 431, "annotation": {"number": 1, "value": 5}, "group": "control_change"}, {"time": 678, "annotation": {"number": 1, "value": 5}, "group": "control_change"}, {"time": 1753, "annotation": {"number": 1, "value": 3}, "group": "control_change"}, {"time": 1757, "annotation": {"number": 1, "value": 5}, "group": "control_change"}, {"time": 3722, "annotation": {"number": 1, "value": 3}, "group": "control_change"}, {"time": 3725, "annotation": {"number": 1, "value": 5}, "group": "control_change"}, {"time": 4106, "annotation": {"number": 1, "value": 3}, "group": "control_change"}, {"time": 4110, "annotation": {"number": 1, "value": 5}, "group": "control_change"}]}, {"program": 0, "is_drum": false, "name": "PIANO", "notes": [{"time": 51, "pitch": 48, "duration": 42, "velocity": 72}, {"time": 51, "pitch": 67, "duration": 13, "velocity": 82}, {"time": 57, "pitch": 55, "duration": 27, "velocity": 71}, {"time": 63, "pitch": 60, "duration": 30, "velocity": 71}, {"time": 81, "pitch": 63, "duration": 4, "velocity": 84}, {"time": 81, "pitch": 72, "duration": 7, "velocity": 86}, {"time": 87, "pitch": 55, "duration": 10, "velocity": 58}, {"time": 93, "pitch": 62, "duration": 18, "velocity": 79}, {"time": 93, "pitch": 70, "duration": 20, "velocity": 82}, {"time": 99, "pitch": 48, "duration": 36, "velocity": 73}, {"time": 105, "pitch": 55, "duration": 20, "velocity": 68}, {"time": 111, "pitch": 60, "duration": 22, "velocity": 52}, {"time": 117, "pitch": 63, "duration": 13, "velocity": 82}, {"time": 117, "pitch": 67, "duration": 14, "velocity": 77}, {"time": 129, "pitch": 55, "duration": 8, "velocity": 71}, {"time": 135, "pitch": 62, "duration": 7, "velocity": 80}, {"time": 135, "pitch": 70, "duration": 7, "velocity": 80}, {"time": 141, "pitch": 46, "duration": 3, "velocity": 79}, {"time": 147, "pitch": 44, "duration": 32, "velocity": 83}, {"time": 147, "pitch": 60, "duration": 14, "velocity": 76}, {"time": 147, "pitch": 63, "duration": 14, "velocity": 84}, {"time": 147, "pitch": 67, "duration": 16, "velocity": 80}, {"time": 153, "pitch": 51, "duration": 26, "velocity": 72}, {"time": 159, "pitch": 56, "duration": 10, "velocity": 63}, {"time": 165, "pitch": 60, "duration": 11, "velocity": 72}, {"time": 165, "pitch": 63, "duration": 10, "velocity": 80}, {"time": 165, "pitch": 68, "duration": 10, "velocity": 82}, {"time": 171, "pitch": 46, "duration": 11, "velocity": 82}, {"time": 183, "pitch": 62, "duration": 7, "velocity": 80}, {"time": 183, "pitch": 65, "duration": 8, "velocity": 82}, {"time": 183, "pitch": 70, "duration": 9, "velocity": 75}, {"time": 189, "pitch": 67, "duration": 3, "velocity": 58}, {"time": 195, "pitch": 51, "duration": 37, "velocity": 80}, {"time": 195, "pitch": 58, "duration": 10, "velocity": 75}, {"time": 195, "pitch": 63, "duration": 12, "velocity": 84}, {"time": 195, "pitch": 67, "duration": 12, "velocity": 78}, {"time": 207, "pitch": 58, "duration": 4, "velocity": 39}, {"time": 213, "pitch": 58, "duration": 9, "velocity": 62}, {"time": 213, "pitch": 65, "duration": 11, "velocity": 84}, {"time": 225, "pitch": 58, "duration": 8, "velocity": 73}, {"time": 225, "pitch": 67, "duration": 11, "velocity": 86}, {"time": 237, "pitch": 70, "duration": 3, "velocity": 73}, {"time": 243, "pitch": 53, "duration": 39, "velocity": 80}, {"time": 243, "pitch": 63, "duration": 6, "velocity": 84}, {"time": 243, "pitch": 68, "duration": 8, "velocity": 79}, {"time": 249, "pitch": 60, "duration": 24, "velocity": 61}, {"time": 255, "pitch": 65, "duration": 20, "velocity": 70}, {"time": 261, "pitch": 68, "duration": 9, "velocity": 75}, {"time": 261, "pitch": 77, "duration": 11, "velocity": 86}, {"time": 273, "pitch": 68, "duration": 8, "velocity": 78}, {"time": 273, "pitch": 75, "duration": 9, "velocity": 84}, {"time": 273, "pitch": 77, "duration": 2, "velocity": 42}, {"time": 279, "pitch": 60, "duration": 4, "velocity": 72}, {"time": 291, "pitch": 43, "duration": 6, "velocity": 84}, {"time": 291, "pitch": 67, "duration": 21, "velocity": 80}, {"time": 291, "pitch": 70, "duration": 21, "velocity": 82}, {"time": 291, "pitch": 74, "duration": 20, "velocity": 86}, {"time": 297, "pitch": 55, "duration": 7, "velocity": 69}, {"time": 303, "pitch": 58, "duration": 22, "velocity": 75}, {"time": 309, "pitch": 62, "duration": 13, "velocity": 83}, {"time": 315, "pitch": 67, "duration": 8, "velocity": 72}, {"time": 321, "pitch": 70, "duration": 9, "velocity": 84}, {"time": 327, "pitch": 72, "duration": 8, "velocity": 79}, {"time": 333, "pitch": 75, "duration": 8, "velocity": 84}, {"time": 339, "pitch": 44, "duration": 16, "velocity": 83}, {"time": 339, "pitch": 56, "duration": 7, "velocity": 78}, {"time": 339, "pitch": 63, "duration": 14, "velocity": 83}, {"time": 339, "pitch": 68, "duration": 15, "velocity": 83}, {"time": 339, "pitch": 72, "duration": 14, "velocity": 79}, {"time": 351, "pitch": 56, "duration": 3, "velocity": 79}, {"time": 357, "pitch": 63, "duration": 2, "velocity": 52}, {"time": 363, "pitch": 41, "duration": 19, "velocity": 86}, {"time": 363, "pitch": 53, "duration": 6, "velocity": 79}, {"time": 363, "pitch": 65, "duration": 15, "velocity": 80}, {"time": 363, "pitch": 68, "duration": 21, "velocity": 82}, {"time": 363, "pitch": 72, "duration": 17, "velocity": 82}, {"time": 375, "pitch": 53, "duration": 9, "velocity": 79}, {"time": 387, "pitch": 43, "duration": 5, "velocity": 93}, {"time": 387, "pitch": 55, "duration": 5, "velocity": 80}, {"time": 387, "pitch": 67, "duration": 5, "velocity": 83}, {"time": 387, "pitch": 71, "duration": 5, "velocity": 84}, {"time": 387, "pitch": 74, "duration": 5, "velocity": 94}, {"time": 399, "pitch": 43, "duration": 30, "velocity": 83}, {"time": 399, "pitch": 55, "duration": 29, "velocity": 86}, {"time": 399, "pitch": 67, "duration": 28, "velocity": 86}, {"time": 399, "pitch": 71, "duration": 29, "velocity": 84}, {"time": 399, "pitch": 74, "duration": 29, "velocity": 94}, {"time": 435, "pitch": 48, "duration": 40, "velocity": 79}, {"time": 435, "pitch": 60, "duration": 15, "velocity": 61}, {"time": 435, "pitch": 63, "duration": 9, "velocity": 82}, {"time": 435, "pitch": 67, "duration": 9, "velocity": 83}, {"time": 435, "pitch": 72, "duration": 10, "velocity": 82}, {"time": 447, "pitch": 62, "duration": 3, "velocity": 78}, {"time": 447, "pitch": 67, "duration": 5, "velocity": 73}, {"time": 447, "pitch": 70, "duration": 8, "velocity": 78}, {"time": 453, "pitch": 63, "duration": 12, "velocity": 82}, {"time": 453, "pitch": 67, "duration": 12, "velocity": 78}, {"time": 453, "pitch": 72, "duration": 12, "velocity": 77}, {"time": 465, "pitch": 60, "duration": 10, "velocity": 46}, {"time": 471, "pitch": 63, "duration": 7, "velocity": 75}, {"time": 471, "pitch": 67, "duration": 8, "velocity": 80}, {"time": 471, "pitch": 72, "duration": 8, "velocity": 80}, {"time": 477, "pitch": 55, "duration": 7, "velocity": 75}, {"time": 483, "pitch": 48, "duration": 39, "velocity": 76}, {"time": 483, "pitch": 60, "duration": 5, "velocity": 46}, {"time": 483, "pitch": 63, "duration": 9, "velocity": 82}, {"time": 483, "pitch": 67, "duration": 9, "velocity": 80}, {"time": 483, "pitch": 72, "duration": 9, "velocity": 81}, {"time": 489, "pitch": 60, "duration": 5, "velocity": 40}, {"time": 495, "pitch": 62, "duration": 4, "velocity": 75}, {"time": 495, "pitch": 67, "duration": 4, "velocity": 60}, {"time": 495, "pitch": 70, "duration": 6, "velocity": 82}, {"time": 498, "pitch": 60, "duration": 6, "velocity": 35}, {"time": 501, "pitch": 63, "duration": 12, "velocity": 80}, {"time": 501, "pitch": 67, "duration": 13, "velocity": 80}, {"time": 501, "pitch": 72, "duration": 12, "velocity": 82}, {"time": 513, "pitch": 60, "duration": 8, "velocity": 61}, {"time": 519, "pitch": 63, "duration": 5, "velocity": 84}, {"time": 522, "pitch": 67, "duration": 5, "velocity": 80}, {"time": 525, "pitch": 70, "duration": 4, "velocity": 79}, {"time": 531, "pitch": 44, "duration": 18, "velocity": 82}, {"time": 531, "pitch": 63, "duration": 8, "velocity": 82}, {"time": 531, "pitch": 68, "duration": 9, "velocity": 82}, {"time": 531, "pitch": 72, "duration": 9, "velocity": 83}, {"time": 537, "pitch": 56, "duration": 13, "velocity": 48}, {"time": 543, "pitch": 63, "duration": 7, "velocity": 72}, {"time": 549, "pitch": 72, "duration": 5, "velocity": 77}, {"time": 555, "pitch": 46, "duration": 19, "velocity": 83}, {"time": 555, "pitch": 65, "duration": 9, "velocity": 82}, {"time": 555, "pitch": 70, "duration": 9, "velocity": 79}, {"time": 555, "pitch": 74, "duration": 9, "velocity": 86}, {"time": 561, "pitch": 58, "duration": 16, "velocity": 69}, {"time": 567, "pitch": 65, "duration": 6, "velocity": 79}, {"time": 573, "pitch": 70, "duration": 5, "velocity": 82}, {"time": 579, "pitch": 51, "duration": 37, "velocity": 84}, {"time": 579, "pitch": 67, "duration": 12, "velocity": 78}, {"time": 579, "pitch": 70, "duration": 12, "velocity": 51}, {"time": 579, "pitch": 75, "duration": 13, "velocity": 83}, {"time": 585, "pitch": 58, "duration": 33, "velocity": 75}, {"time": 591, "pitch": 63, "duration": 19, "velocity": 79}, {"time": 597, "pitch": 65, "duration": 9, "velocity": 81}, {"time": 597, "pitch": 70, "duration": 10, "velocity": 77}, {"time": 609, "pitch": 67, "duration": 7, "velocity": 83}, {"time": 615, "pitch": 63, "duration": 5, "velocity": 77}, {"time": 615, "pitch": 70, "duration": 6, "velocity": 78}, {"time": 621, "pitch": 72, "duration": 7, "velocity": 73}, {"time": 627, "pitch": 53, "duration": 39, "velocity": 82}, {"time": 627, "pitch": 63, "duration": 7, "velocity": 73}, {"time": 627, "pitch": 68, "duration": 12, "velocity": 84}, {"time": 633, "pitch": 60, "duration": 14, "velocity": 69}, {"time": 639, "pitch": 65, "duration": 11, "velocity": 73}, {"time": 645, "pitch": 68, "duration": 12, "velocity": 79}, {"time": 645, "pitch": 72, "duration": 11, "velocity": 79}, {"time": 645, "pitch": 75, "duration": 11, "velocity": 81}, {"time": 657, "pitch": 60, "duration": 7, "velocity": 69}, {"time": 663, "pitch": 68, "duration": 4, "velocity": 84}, {"time": 663, "pitch": 72, "duration": 2, "velocity": 73}, {"time": 663, "pitch": 75, "duration": 5, "velocity": 84}, {"time": 675, "pitch": 43, "duration": 35, "velocity": 83}, {"time": 675, "pitch": 58, "duration": 8, "velocity": 80}, {"time": 675, "pitch": 62, "duration": 8, "velocity": 86}, {"time": 675, "pitch": 67, "duration": 8, "velocity": 84}, {"time": 681, "pitch": 55, "duration": 31, "velocity": 69}, {"time": 687, "pitch": 58, "duration": 6, "velocity": 73}, {"time": 693, "pitch": 62, "duration": 2, "velocity": 90}, {"time": 699, "pitch": 67, "duration": 8, "velocity": 79}, {"time": 705, "pitch": 70, "duration": 8, "velocity": 83}, {"time": 711, "pitch": 74, "duration": 7, "velocity": 81}, {"time": 717, "pitch": 75, "duration": 5, "velocity": 90}, {"time": 723, "pitch": 44, "duration": 7, "velocity": 79}, {"time": 723, "pitch": 63, "duration": 16, "velocity": 82}, {"time": 723, "pitch": 68, "duration": 16, "velocity": 84}, {"time": 723, "pitch": 72, "duration": 17, "velocity": 83}, {"time": 729, "pitch": 56, "duration": 9, "velocity": 62}, {"time": 738, "pitch": 60, "duration": 2, "velocity": 56}, {"time": 741, "pitch": 63, "duration": 5, "velocity": 79}, {"time": 747, "pitch": 68, "duration": 3, "velocity": 71}, {"time": 753, "pitch": 63, "duration": 8, "velocity": 82}, {"time": 753, "pitch": 68, "duration": 9, "velocity": 84}, {"time": 753, "pitch": 72, "duration": 8, "velocity": 80}, {"time": 759, "pitch": 44, "duration": 4, "velocity": 82}, {"time": 759, "pitch": 56, "duration": 3, "velocity": 70}, {"time": 765, "pitch": 63, "duration": 3, "velocity": 73}, {"time": 771, "pitch": 46, "duration": 15, "velocity": 69}, {"time": 771, "pitch": 58, "duration": 16, "velocity": 43}, {"time": 771, "pitch": 60, "duration": 3, "velocity": 48}, {"time": 771, "pitch": 65, "duration": 9, "velocity": 80}, {"time": 771, "pitch": 70, "duration": 9, "velocity": 81}, {"time": 771, "pitch": 74, "duration": 8, "velocity": 86}, {"time": 783, "pitch": 65, "duration": 6, "velocity": 76}, {"time": 789, "pitch": 70, "duration": 5, "velocity": 80}, {"time": 795, "pitch": 48, "duration": 20, "velocity": 84}, {"time": 795, "pitch": 60, "duration": 3, "velocity": 68}, {"time": 795, "pitch": 67, "duration": 9, "velocity": 84}, {"time": 795, "pitch": 72, "duration": 10, "velocity": 82}, {"time": 795, "pitch": 75, "duration": 9, "velocity": 84}, {"time": 801, "pitch": 60, "duration": 11, "velocity": 59}, {"time": 807, "pitch": 67, "duration": 8, "velocity": 75}, {"time": 807, "pitch": 75, "duration": 2, "velocity": 58}, {"time": 813, "pitch": 72, "duration": 2, "velocity": 48}, {"time": 813, "pitch": 75, "duration": 4, "velocity": 76}, {"time": 819, "pitch": 46, "duration": 3, "velocity": 82}, {"time": 819, "pitch": 58, "duration": 3, "velocity": 70}, {"time": 819, "pitch": 65, "duration": 3, "velocity": 75}, {"time": 819, "pitch": 70, "duration": 2, "velocity": 73}, {"time": 819, "pitch": 70, "duration": 2, "velocity": 95}, {"time": 819, "pitch": 74, "duration": 3, "velocity": 79}, {"time": 825, "pitch": 46, "duration": 13, "velocity": 84}, {"time": 825, "pitch": 58, "duration": 7, "velocity": 80}, {"time": 825, "pitch": 65, "duration": 13, "velocity": 79}, {"time": 825, "pitch": 70, "duration": 2, "velocity": 79}, {"time": 825, "pitch": 74, "duration": 13, "velocity": 80}, {"time": 825, "pitch": 77, "duration": 9, "velocity": 95}, {"time": 837, "pitch": 58, "duration": 3, "velocity": 62}, {"time": 837, "pitch": 75, "duration": 6, "velocity": 98}, {"time": 843, "pitch": 48, "duration": 19, "velocity": 80}, {"time": 843, "pitch": 60, "duration": 6, "velocity": 83}, {"time": 843, "pitch": 67, "duration": 13, "velocity": 77}, {"time": 843, "pitch": 72, "duration": 13, "velocity": 79}, {"time": 843, "pitch": 72, "duration": 13, "velocity": 93}, {"time": 843, "pitch": 75, "duration": 13, "velocity": 84}, {"time": 855, "pitch": 60, "duration": 8, "velocity": 68}, {"time": 858, "pitch": 67, "duration": 4, "velocity": 82}, {"time": 861, "pitch": 70, "duration": 5, "velocity": 62}, {"time": 864, "pitch": 72, "duration": 3, "velocity": 72}, {"time": 867, "pitch": 48, "duration": 41, "velocity": 79}, {"time": 867, "pitch": 63, "duration": 15, "velocity": 82}, {"time": 867, "pitch": 67, "duration": 15, "velocity": 84}, {"time": 867, "pitch": 72, "duration": 15, "velocity": 81}, {"time": 873, "pitch": 55, "duration": 41, "velocity": 73}, {"time": 879, "pitch": 60, "duration": 19, "velocity": 69}, {"time": 885, "pitch": 63, "duration": 13, "velocity": 71}, {"time": 897, "pitch": 67, "duration": 8, "velocity": 81}, {"time": 903, "pitch": 60, "duration": 7, "velocity": 40}, {"time": 909, "pitch": 67, "duration": 4, "velocity": 59}, {"time": 915, "pitch": 48, "duration": 38, "velocity": 73}, {"time": 915, "pitch": 67, "duration": 15, "velocity": 76}, {"time": 915, "pitch": 75, "duration": 20, "velocity": 86}, {"time": 921, "pitch": 55, "duration": 24, "velocity": 73}, {"time": 927, "pitch": 60, "duration": 20, "velocity": 58}, {"time": 933, "pitch": 65, "duration": 4, "velocity": 81}, {"time": 933, "pitch": 74, "duration": 3, "velocity": 86}, {"time": 945, "pitch": 63, "duration": 7, "velocity": 82}, {"time": 945, "pitch": 72, "duration": 9, "velocity": 83}, {"time": 951, "pitch": 55, "duration": 3, "velocity": 79}, {"time": 957, "pitch": 70, "duration": 5, "velocity": 80}, {"time": 963, "pitch": 44, "duration": 7, "velocity": 81}, {"time": 963, "pitch": 63, "duration": 15, "velocity": 78}, {"time": 963, "pitch": 68, "duration": 16, "velocity": 78}, {"time": 963, "pitch": 72, "duration": 16, "velocity": 74}, {"time": 969, "pitch": 56, "duration": 8, "velocity": 71}, {"time": 975, "pitch": 60, "duration": 10, "velocity": 57}, {"time": 981, "pitch": 63, "duration": 4, "velocity": 75}, {"time": 987, "pitch": 68, "duration": 6, "velocity": 79}, {"time": 993, "pitch": 72, "duration": 5, "velocity": 78}, {"time": 1005, "pitch": 75, "duration": 8, "velocity": 80}, {"time": 1011, "pitch": 51, "duration": 36, "velocity": 83}, {"time": 1011, "pitch": 67, "duration": 14, "velocity": 76}, {"time": 1011, "pitch": 70, "duration": 13, "velocity": 82}, {"time": 1011, "pitch": 75, "duration": 2, "velocity": 84}, {"time": 1017, "pitch": 58, "duration": 19, "velocity": 72}, {"time": 1023, "pitch": 63, "duration": 19, "velocity": 70}, {"time": 1029, "pitch": 65, "duration": 9, "velocity": 76}, {"time": 1029, "pitch": 70, "duration": 12, "velocity": 79}, {"time": 1041, "pitch": 67, "duration": 10, "velocity": 84}, {"time": 1047, "pitch": 58, "duration": 3, "velocity": 79}, {"time": 1059, "pitch": 53, "duration": 38, "velocity": 82}, {"time": 1059, "pitch": 63, "duration": 7, "velocity": 78}, {"time": 1059, "pitch": 68, "duration": 13, "velocity": 84}, {"time": 1065, "pitch": 60, "duration": 33, "velocity": 63}, {"time": 1071, "pitch": 65, "duration": 22, "velocity": 71}, {"time": 1077, "pitch": 68, "duration": 9, "velocity": 72}, {"time": 1089, "pitch": 72, "duration": 6, "velocity": 76}, {"time": 1095, "pitch": 75, "duration": 5, "velocity": 79}, {"time": 1101, "pitch": 79, "duration": 5, "velocity": 71}, {"time": 1107, "pitch": 43, "duration": 5, "velocity": 84}, {"time": 1107, "pitch": 62, "duration": 12, "velocity": 84}, {"time": 1107, "pitch": 67, "duration": 18, "velocity": 84}, {"time": 1107, "pitch": 70, "duration": 20, "velocity": 82}, {"time": 1113, "pitch": 55, "duration": 8, "velocity": 60}, {"time": 1119, "pitch": 58, "duration": 25, "velocity": 69}, {"time": 1125, "pitch": 62, "duration": 17, "velocity": 80}, {"time": 1137, "pitch": 67, "duration": 7, "velocity": 82}, {"time": 1143, "pitch": 70, "duration": 3, "velocity": 86}, {"time": 1155, "pitch": 44, "duration": 14, "velocity": 82}, {"time": 1155, "pitch": 63, "duration": 8, "velocity": 82}, {"time": 1155, "pitch": 68, "duration": 8, "velocity": 79}, {"time": 1155, "pitch": 72, "duration": 8, "velocity": 80}, {"time": 1161, "pitch": 56, "duration": 8, "velocity": 62}, {"time": 1167, "pitch": 63, "duration": 5, "velocity": 71}, {"time": 1173, "pitch": 72, "duration": 4, "velocity": 73}, {"time": 1179, "pitch": 41, "duration": 13, "velocity": 83}, {"time": 1179, "pitch": 65, "duration": 8, "velocity": 78}, {"time": 1179, "pitch": 68, "duration": 8, "velocity": 80}, {"time": 1179, "pitch": 72, "duration": 8, "velocity": 80}, {"time": 1185, "pitch": 53, "duration": 10, "velocity": 69}, {"time": 1191, "pitch": 65, "duration": 6, "velocity": 73}, {"time": 1197, "pitch": 68, "duration": 4, "velocity": 75}, {"time": 1203, "pitch": 46, "duration": 17, "velocity": 84}, {"time": 1203, "pitch": 65, "duration": 8, "velocity": 80}, {"time": 1203, "pitch": 70, "duration": 9, "velocity": 76}, {"time": 1203, "pitch": 74, "duration": 8, "velocity": 86}, {"time": 1209, "pitch": 58, "duration": 16, "velocity": 62}, {"time": 1215, "pitch": 65, "duration": 4, "velocity": 69}, {"time": 1221, "pitch": 72, "duration": 5, "velocity": 76}, {"time": 1227, "pitch": 48, "duration": 10, "velocity": 79}, {"time": 1227, "pitch": 67, "duration": 21, "velocity": 78}, {"time": 1227, "pitch": 75, "duration": 26, "velocity": 86}, {"time": 1233, "pitch": 55, "duration": 6, "velocity": 76}, {"time": 1239, "pitch": 60, "duration": 7, "velocity": 57}, {"time": 1245, "pitch": 62, "duration": 7, "velocity": 62}, {"time": 1251, "pitch": 46, "duration": 14, "velocity": 84}, {"time": 1251, "pitch": 58, "duration": 12, "velocity": 83}, {"time": 1251, "pitch": 65, "duration": 14, "velocity": 84}, {"time": 1251, "pitch": 70, "duration": 14, "velocity": 84}, {"time": 1251, "pitch": 74, "duration": 13, "velocity": 91}, {"time": 1269, "pitch": 43, "duration": 9, "velocity": 91}, {"time": 1269, "pitch": 55, "duration": 9, "velocity": 95}, {"time": 1269, "pitch": 65, "duration": 9, "velocity": 86}, {"time": 1269, "pitch": 70, "duration": 9, "velocity": 86}, {"time": 1269, "pitch": 74, "duration": 9, "velocity": 86}, {"time": 1281, "pitch": 43, "duration": 2, "velocity": 95}, {"time": 1281, "pitch": 55, "duration": 2, "velocity": 101}, {"time": 1281, "pitch": 65, "duration": 2, "velocity": 94}, {"time": 1281, "pitch": 70, "duration": 2, "velocity": 91}, {"time": 1281, "pitch": 74, "duration": 3, "velocity": 93}, {"time": 1287, "pitch": 48, "duration": 6, "velocity": 101}, {"time": 1287, "pitch": 67, "duration": 6, "velocity": 93}, {"time": 1287, "pitch": 72, "duration": 6, "velocity": 93}, {"time": 1287, "pitch": 75, "duration": 6, "velocity": 98}, {"time": 1299, "pitch": 48, "duration": 43, "velocity": 84}, {"time": 1299, "pitch": 67, "duration": 7, "velocity": 81}, {"time": 1299, "pitch": 72, "duration": 8, "velocity": 82}, {"time": 1299, "pitch": 75, "duration": 7, "velocity": 86}, {"time": 1305, "pitch": 60, "duration": 15, "velocity": 44}, {"time": 1311, "pitch": 67, "duration": 5, "velocity": 72}, {"time": 1317, "pitch": 67, "duration": 12, "velocity": 80}, {"time": 1317, "pitch": 72, "duration": 12, "velocity": 80}, {"time": 1317, "pitch": 75, "duration": 12, "velocity": 90}, {"time": 1329, "pitch": 60, "duration": 14, "velocity": 63}, {"time": 1335, "pitch": 67, "duration": 5, "velocity": 81}, {"time": 1335, "pitch": 75, "duration": 1, "velocity": 47}, {"time": 1341, "pitch": 72, "duration": 9, "velocity": 75}, {"time": 1347, "pitch": 48, "duration": 42, "velocity": 79}, {"time": 1347, "pitch": 67, "duration": 9, "velocity": 82}, {"time": 1347, "pitch": 75, "duration": 8, "velocity": 91}, {"time": 1353, "pitch": 60, "duration": 14, "velocity": 71}, {"time": 1359, "pitch": 67, "duration": 4, "velocity": 69}, {"time": 1365, "pitch": 67, "duration": 9, "velocity": 86}, {"time": 1365, "pitch": 75, "duration": 10, "velocity": 90}, {"time": 1371, "pitch": 60, "duration": 8, "velocity": 71}, {"time": 1377, "pitch": 65, "duration": 9, "velocity": 84}, {"time": 1377, "pitch": 74, "duration": 9, "velocity": 84}, {"time": 1383, "pitch": 60, "duration": 8, "velocity": 63}, {"time": 1389, "pitch": 70, "duration": 5, "velocity": 81}, {"time": 1395, "pitch": 48, "duration": 43, "velocity": 82}, {"time": 1395, "pitch": 67, "duration": 13, "velocity": 83}, {"time": 1395, "pitch": 72, "duration": 12, "velocity": 82}, {"time": 1395, "pitch": 75, "duration": 11, "velocity": 84}, {"time": 1401, "pitch": 55, "duration": 36, "velocity": 76}, {"time": 1407, "pitch": 60, "duration": 19, "velocity": 70}, {"time": 1413, "pitch": 67, "duration": 9, "velocity": 72}, {"time": 1425, "pitch": 67, "duration": 9, "velocity": 82}, {"time": 1425, "pitch": 72, "duration": 9, "velocity": 80}, {"time": 1425, "pitch": 75, "duration": 9, "velocity": 86}, {"time": 1431, "pitch": 60, "duration": 8, "velocity": 76}, {"time": 1437, "pitch": 67, "duration": 4, "velocity": 75}, {"time": 1437, "pitch": 75, "duration": 2, "velocity": 53}, {"time": 1443, "pitch": 51, "duration": 40, "velocity": 90}, {"time": 1443, "pitch": 67, "duration": 10, "velocity": 83}, {"time": 1443, "pitch": 70, "duration": 9, "velocity": 83}, {"time": 1443, "pitch": 75, "duration": 9, "velocity": 86}, {"time": 1449, "pitch": 63, "duration": 14, "velocity": 62}, {"time": 1452, "pitch": 67, "duration": 1, "velocity": 43}, {"time": 1461, "pitch": 67, "duration": 14, "velocity": 82}, {"time": 1461, "pitch": 70, "duration": 15, "velocity": 83}, {"time": 1461, "pitch": 75, "duration": 14, "velocity": 90}, {"time": 1473, "pitch": 63, "duration": 15, "velocity": 76}, {"time": 1479, "pitch": 67, "duration": 8, "velocity": 84}, {"time": 1479, "pitch": 75, "duration": 7, "velocity": 86}, {"time": 1485, "pitch": 70, "duration": 7, "velocity": 79}, {"time": 1491, "pitch": 53, "duration": 39, "velocity": 86}, {"time": 1491, "pitch": 68, "duration": 12, "velocity": 83}, {"time": 1491, "pitch": 72, "duration": 11, "velocity": 83}, {"time": 1491, "pitch": 77, "duration": 12, "velocity": 90}, {"time": 1497, "pitch": 60, "duration": 39, "velocity": 76}, {"time": 1503, "pitch": 65, "duration": 18, "velocity": 80}, {"time": 1509, "pitch": 68, "duration": 9, "velocity": 75}, {"time": 1515, "pitch": 72, "duration": 14, "velocity": 80}, {"time": 1521, "pitch": 68, "duration": 3, "velocity": 57}, {"time": 1521, "pitch": 77, "duration": 8, "velocity": 91}, {"time": 1527, "pitch": 65, "duration": 6, "velocity": 76}, {"time": 1533, "pitch": 68, "duration": 5, "velocity": 68}, {"time": 1539, "pitch": 53, "duration": 40, "velocity": 83}, {"time": 1539, "pitch": 68, "duration": 14, "velocity": 53}, {"time": 1539, "pitch": 77, "duration": 14, "velocity": 90}, {"time": 1545, "pitch": 60, "duration": 34, "velocity": 75}, {"time": 1551, "pitch": 65, "duration": 24, "velocity": 80}, {"time": 1557, "pitch": 68, "duration": 5, "velocity": 78}, {"time": 1563, "pitch": 68, "duration": 2, "velocity": 17}, {"time": 1563, "pitch": 72, "duration": 5, "velocity": 76}, {"time": 1569, "pitch": 75, "duration": 8, "velocity": 84}, {"time": 1575, "pitch": 77, "duration": 3, "velocity": 84}, {"time": 1581, "pitch": 79, "duration": 3, "velocity": 84}, {"time": 1587, "pitch": 46, "duration": 5, "velocity": 83}, {"time": 1587, "pitch": 65, "duration": 19, "velocity": 76}, {"time": 1587, "pitch": 70, "duration": 18, "velocity": 81}, {"time": 1587, "pitch": 77, "duration": 19, "velocity": 84}, {"time": 1593, "pitch": 58, "duration": 7, "velocity": 62}, {"time": 1599, "pitch": 60, "duration": 27, "velocity": 69}, {"time": 1605, "pitch": 62, "duration": 22, "velocity": 83}, {"time": 1611, "pitch": 65, "duration": 8, "velocity": 80}, {"time": 1617, "pitch": 70, "duration": 5, "velocity": 80}, {"time": 1623, "pitch": 70, "duration": 2, "velocity": 48}, {"time": 1623, "pitch": 72, "duration": 5, "velocity": 77}, {"time": 1629, "pitch": 77, "duration": 15, "velocity": 83}, {"time": 1635, "pitch": 55, "duration": 14, "velocity": 84}, {"time": 1635, "pitch": 65, "duration": 8, "velocity": 83}, {"time": 1635, "pitch": 70, "duration": 9, "velocity": 83}, {"time": 1641, "pitch": 62, "duration": 8, "velocity": 69}, {"time": 1647, "pitch": 65, "duration": 6, "velocity": 83}, {"time": 1653, "pitch": 70, "duration": 5, "velocity": 83}, {"time": 1659, "pitch": 48, "duration": 12, "velocity": 82}, {"time": 1659, "pitch": 67, "duration": 23, "velocity": 82}, {"time": 1659, "pitch": 72, "duration": 23, "velocity": 82}, {"time": 1665, "pitch": 55, "duration": 7, "velocity": 78}, {"time": 1671, "pitch": 60, "duration": 8, "velocity": 76}, {"time": 1677, "pitch": 62, "duration": 7, "velocity": 75}, {"time": 1683, "pitch": 48, "duration": 12, "velocity": 84}, {"time": 1683, "pitch": 63, "duration": 2, "velocity": 80}, {"time": 1683, "pitch": 63, "duration": 2, "velocity": 83}, {"time": 1683, "pitch": 67, "duration": 19, "velocity": 78}, {"time": 1683, "pitch": 72, "duration": 25, "velocity": 81}, {"time": 1689, "pitch": 55, "duration": 6, "velocity": 81}, {"time": 1695, "pitch": 60, "duration": 10, "velocity": 75}, {"time": 1701, "pitch": 62, "duration": 12, "velocity": 63}, {"time": 1707, "pitch": 63, "duration": 5, "velocity": 83}, {"time": 1713, "pitch": 67, "duration": 8, "velocity": 82}, {"time": 1719, "pitch": 70, "duration": 12, "velocity": 82}, {"time": 1725, "pitch": 72, "duration": 2, "velocity": 46}, {"time": 1731, "pitch": 48, "duration": 33, "velocity": 79}, {"time": 1731, "pitch": 63, "duration": 8, "velocity": 76}, {"time": 1731, "pitch": 67, "duration": 9, "velocity": 76}, {"time": 1731, "pitch": 72, "duration": 10, "velocity": 79}, {"time": 1737, "pitch": 55, "duration": 27, "velocity": 80}, {"time": 1743, "pitch": 63, "duration": 3, "velocity": 63}, {"time": 1743, "pitch": 70, "duration": 6, "velocity": 76}, {"time": 1749, "pitch": 63, "duration": 12, "velocity": 81}, {"time": 1749, "pitch": 67, "duration": 15, "velocity": 79}, {"time": 1749, "pitch": 72, "duration": 13, "velocity": 75}, {"time": 1761, "pitch": 60, "duration": 12, "velocity": 79}, {"time": 1767, "pitch": 63, "duration": 9, "velocity": 83}, {"time": 1767, "pitch": 67, "duration": 8, "velocity": 79}, {"time": 1767, "pitch": 72, "duration": 11, "velocity": 80}, {"time": 1773, "pitch": 55, "duration": 5, "velocity": 57}, {"time": 1776, "pitch": 51, "duration": 4, "velocity": 76}, {"time": 1779, "pitch": 48, "duration": 42, "velocity": 84}, {"time": 1779, "pitch": 63, "duration": 9, "velocity": 82}, {"time": 1779, "pitch": 67, "duration": 10, "velocity": 83}, {"time": 1779, "pitch": 72, "duration": 13, "velocity": 80}, {"time": 1785, "pitch": 55, "duration": 27, "velocity": 78}, {"time": 1791, "pitch": 60, "duration": 8, "velocity": 68}, {"time": 1797, "pitch": 63, "duration": 9, "velocity": 83}, {"time": 1797, "pitch": 72, "duration": 11, "velocity": 82}, {"time": 1809, "pitch": 60, "duration": 9, "velocity": 73}, {"time": 1815, "pitch": 62, "duration": 4, "velocity": 79}, {"time": 1815, "pitch": 70, "duration": 11, "velocity": 80}, {"time": 1821, "pitch": 55, "duration": 2, "velocity": 73}, {"time": 1827, "pitch": 51, "duration": 38, "velocity": 93}, {"time": 1827, "pitch": 67, "duration": 11, "velocity": 83}, {"time": 1827, "pitch": 72, "duration": 12, "velocity": 84}, {"time": 1833, "pitch": 58, "duration": 15, "velocity": 75}, {"time": 1839, "pitch": 63, "duration": 14, "velocity": 79}, {"time": 1845, "pitch": 65, "duration": 8, "velocity": 83}, {"time": 1845, "pitch": 70, "duration": 11, "velocity": 84}, {"time": 1857, "pitch": 58, "duration": 8, "velocity": 80}, {"time": 1863, "pitch": 67, "duration": 12, "velocity": 77}, {"time": 1869, "pitch": 70, "duration": 3, "velocity": 77}, {"time": 1875, "pitch": 41, "duration": 6, "velocity": 84}, {"time": 1875, "pitch": 60, "duration": 13, "velocity": 78}, {"time": 1875, "pitch": 63, "duration": 12, "velocity": 82}, {"time": 1875, "pitch": 68, "duration": 19, "velocity": 82}, {"time": 1881, "pitch": 53, "duration": 7, "velocity": 67}, {"time": 1887, "pitch": 56, "duration": 24, "velocity": 69}, {"time": 1893, "pitch": 60, "duration": 17, "velocity": 62}, {"time": 1899, "pitch": 63, "duration": 7, "velocity": 78}, {"time": 1905, "pitch": 68, "duration": 7, "velocity": 84}, {"time": 1911, "pitch": 72, "duration": 6, "velocity": 78}, {"time": 1917, "pitch": 65, "duration": 3, "velocity": 48}, {"time": 1923, "pitch": 41, "duration": 6, "velocity": 84}, {"time": 1923, "pitch": 65, "duration": 20, "velocity": 81}, {"time": 1923, "pitch": 68, "duration": 21, "velocity": 83}, {"time": 1923, "pitch": 72, "duration": 20, "velocity": 78}, {"time": 1929, "pitch": 53, "duration": 8, "velocity": 78}, {"time": 1935, "pitch": 56, "duration": 28, "velocity": 72}, {"time": 1941, "pitch": 60, "duration": 21, "velocity": 73}, {"time": 1947, "pitch": 65, "duration": 5, "velocity": 81}, {"time": 1953, "pitch": 65, "duration": 3, "velocity": 56}, {"time": 1953, "pitch": 68, "duration": 4, "velocity": 84}, {"time": 1953, "pitch": 75, "duration": 4, "velocity": 84}, {"time": 1959, "pitch": 65, "duration": 4, "velocity": 75}, {"time": 1959, "pitch": 68, "duration": 5, "velocity": 79}, {"time": 1959, "pitch": 75, "duration": 7, "velocity": 86}, {"time": 1965, "pitch": 70, "duration": 5, "velocity": 80}, {"time": 1971, "pitch": 46, "duration": 5, "velocity": 84}, {"time": 1971, "pitch": 65, "duration": 20, "velocity": 84}, {"time": 1971, "pitch": 70, "duration": 18, "velocity": 84}, {"time": 1971, "pitch": 74, "duration": 20, "velocity": 84}, {"time": 1971, "pitch": 77, "duration": 19, "velocity": 82}, {"time": 1977, "pitch": 58, "duration": 8, "velocity": 69}, {"time": 1983, "pitch": 60, "duration": 24, "velocity": 76}, {"time": 1989, "pitch": 62, "duration": 18, "velocity": 86}, {"time": 1995, "pitch": 65, "duration": 8, "velocity": 79}, {"time": 2001, "pitch": 72, "duration": 5, "velocity": 80}, {"time": 2007, "pitch": 74, "duration": 7, "velocity": 84}, {"time": 2013, "pitch": 77, "duration": 5, "velocity": 82}, {"time": 2019, "pitch": 41, "duration": 4, "velocity": 74}, {"time": 2019, "pitch": 43, "duration": 14, "velocity": 76}, {"time": 2019, "pitch": 55, "duration": 8, "velocity": 81}, {"time": 2019, "pitch": 67, "duration": 11, "velocity": 79}, {"time": 2019, "pitch": 70, "duration": 11, "velocity": 82}, {"time": 2019, "pitch": 74, "duration": 14, "velocity": 91}, {"time": 2031, "pitch": 55, "duration": 3, "velocity": 90}, {"time": 2043, "pitch": 48, "duration": 17, "velocity": 82}, {"time": 2043, "pitch": 63, "duration": 8, "velocity": 82}, {"time": 2043, "pitch": 67, "duration": 8, "velocity": 82}, {"time": 2043, "pitch": 72, "duration": 8, "velocity": 83}, {"time": 2049, "pitch": 60, "duration": 9, "velocity": 74}, {"time": 2055, "pitch": 63, "duration": 5, "velocity": 79}, {"time": 2055, "pitch": 70, "duration": 6, "velocity": 84}, {"time": 2067, "pitch": 48, "duration": 29, "velocity": 90}, {"time": 2067, "pitch": 63, "duration": 7, "velocity": 86}, {"time": 2067, "pitch": 67, "duration": 7, "velocity": 86}, {"time": 2067, "pitch": 72, "duration": 7, "velocity": 84}, {"time": 2076, "pitch": 63, "duration": 2, "velocity": 79}, {"time": 2076, "pitch": 67, "duration": 2, "velocity": 82}, {"time": 2076, "pitch": 72, "duration": 2, "velocity": 81}, {"time": 2082, "pitch": 60, "duration": 6, "velocity": 6}, {"time": 2085, "pitch": 63, "duration": 7, "velocity": 83}, {"time": 2085, "pitch": 67, "duration": 7, "velocity": 80}, {"time": 2085, "pitch": 70, "duration": 9, "velocity": 86}, {"time": 2097, "pitch": 63, "duration": 9, "velocity": 79}, {"time": 2097, "pitch": 67, "duration": 7, "velocity": 83}, {"time": 2097, "pitch": 72, "duration": 11, "velocity": 79}, {"time": 2103, "pitch": 48, "duration": 8, "velocity": 68}, {"time": 2103, "pitch": 60, "duration": 7, "velocity": 47}, {"time": 2109, "pitch": 63, "duration": 6, "velocity": 84}, {"time": 2109, "pitch": 70, "duration": 8, "velocity": 84}, {"time": 2115, "pitch": 48, "duration": 41, "velocity": 84}, {"time": 2115, "pitch": 60, "duration": 9, "velocity": 78}, {"time": 2115, "pitch": 63, "duration": 6, "velocity": 68}, {"time": 2115, "pitch": 67, "duration": 7, "velocity": 84}, {"time": 2115, "pitch": 72, "duration": 7, "velocity": 83}, {"time": 2124, "pitch": 63, "duration": 2, "velocity": 81}, {"time": 2124, "pitch": 67, "duration": 1, "velocity": 78}, {"time": 2124, "pitch": 70, "duration": 2, "velocity": 80}, {"time": 2124, "pitch": 72, "duration": 1, "velocity": 53}, {"time": 2127, "pitch": 60, "duration": 17, "velocity": 62}, {"time": 2133, "pitch": 63, "duration": 7, "velocity": 90}, {"time": 2133, "pitch": 67, "duration": 8, "velocity": 84}, {"time": 2133, "pitch": 72, "duration": 8, "velocity": 83}, {"time": 2145, "pitch": 63, "duration": 8, "velocity": 84}, {"time": 2145, "pitch": 67, "duration": 1, "velocity": 61}, {"time": 2145, "pitch": 70, "duration": 9, "velocity": 90}, {"time": 2151, "pitch": 60, "duration": 3, "velocity": 79}, {"time": 2157, "pitch": 67, "duration": 5, "velocity": 80}, {"time": 2160, "pitch": 70, "duration": 3, "velocity": 78}, {"time": 2163, "pitch": 48, "duration": 39, "velocity": 84}, {"time": 2163, "pitch": 60, "duration": 9, "velocity": 78}, {"time": 2163, "pitch": 63, "duration": 7, "velocity": 80}, {"time": 2163, "pitch": 67, "duration": 7, "velocity": 80}, {"time": 2163, "pitch": 72, "duration": 7, "velocity": 81}, {"time": 2172, "pitch": 63, "duration": 2, "velocity": 69}, {"time": 2172, "pitch": 67, "duration": 2, "velocity": 73}, {"time": 2172, "pitch": 72, "duration": 3, "velocity": 77}, {"time": 2175, "pitch": 60, "duration": 11, "velocity": 69}, {"time": 2181, "pitch": 63, "duration": 8, "velocity": 86}, {"time": 2181, "pitch": 67, "duration": 9, "velocity": 80}, {"time": 2181, "pitch": 70, "duration": 12, "velocity": 84}, {"time": 2190, "pitch": 60, "duration": 3, "velocity": 32}, {"time": 2193, "pitch": 63, "duration": 8, "velocity": 82}, {"time": 2193, "pitch": 67, "duration": 9, "velocity": 82}, {"time": 2193, "pitch": 70, "duration": 1, "velocity": 61}, {"time": 2193, "pitch": 72, "duration": 9, "velocity": 75}, {"time": 2199, "pitch": 60, "duration": 4, "velocity": 68}, {"time": 2205, "pitch": 63, "duration": 3, "velocity": 57}, {"time": 2205, "pitch": 72, "duration": 5, "velocity": 75}, {"time": 2211, "pitch": 51, "duration": 33, "velocity": 82}, {"time": 2211, "pitch": 58, "duration": 9, "velocity": 78}, {"time": 2211, "pitch": 63, "duration": 7, "velocity": 83}, {"time": 2211, "pitch": 67, "duration": 7, "velocity": 81}, {"time": 2211, "pitch": 70, "duration": 7, "velocity": 82}, {"time": 2220, "pitch": 63, "duration": 2, "velocity": 79}, {"time": 2220, "pitch": 67, "duration": 2, "velocity": 81}, {"time": 2220, "pitch": 70, "duration": 2, "velocity": 80}, {"time": 2229, "pitch": 58, "duration": 10, "velocity": 79}, {"time": 2229, "pitch": 63, "duration": 10, "velocity": 82}, {"time": 2229, "pitch": 67, "duration": 9, "velocity": 81}, {"time": 2241, "pitch": 58, "duration": 8, "velocity": 78}, {"time": 2241, "pitch": 63, "duration": 8, "velocity": 90}, {"time": 2241, "pitch": 70, "duration": 8, "velocity": 86}, {"time": 2247, "pitch": 51, "duration": 3, "velocity": 84}, {"time": 2253, "pitch": 65, "duration": 4, "velocity": 69}, {"time": 2256, "pitch": 67, "duration": 3, "velocity": 79}, {"time": 2259, "pitch": 41, "duration": 44, "velocity": 93}, {"time": 2259, "pitch": 53, "duration": 10, "velocity": 80}, {"time": 2259, "pitch": 60, "duration": 7, "velocity": 79}, {"time": 2259, "pitch": 63, "duration": 7, "velocity": 83}, {"time": 2259, "pitch": 68, "duration": 7, "velocity": 90}, {"time": 2268, "pitch": 60, "duration": 2, "velocity": 78}, {"time": 2268, "pitch": 63, "duration": 1, "velocity": 80}, {"time": 2268, "pitch": 68, "duration": 2, "velocity": 80}, {"time": 2271, "pitch": 53, "duration": 11, "velocity": 71}, {"time": 2277, "pitch": 60, "duration": 14, "velocity": 84}, {"time": 2277, "pitch": 65, "duration": 14, "velocity": 86}, {"time": 2277, "pitch": 68, "duration": 13, "velocity": 84}, {"time": 2289, "pitch": 53, "duration": 7, "velocity": 79}, {"time": 2295, "pitch": 60, "duration": 9, "velocity": 80}, {"time": 2295, "pitch": 65, "duration": 6, "velocity": 84}, {"time": 2295, "pitch": 68, "duration": 3, "velocity": 76}, {"time": 2301, "pitch": 53, "duration": 4, "velocity": 76}, {"time": 2307, "pitch": 41, "duration": 8, "velocity": 86}, {"time": 2307, "pitch": 53, "duration": 8, "velocity": 84}, {"time": 2307, "pitch": 60, "duration": 8, "velocity": 79}, {"time": 2307, "pitch": 65, "duration": 7, "velocity": 82}, {"time": 2307, "pitch": 68, "duration": 6, "velocity": 81}, {"time": 2316, "pitch": 60, "duration": 3, "velocity": 78}, {"time": 2316, "pitch": 63, "duration": 1, "velocity": 73}, {"time": 2316, "pitch": 65, "duration": 1, "velocity": 73}, {"time": 2316, "pitch": 68, "duration": 2, "velocity": 63}, {"time": 2319, "pitch": 41, "duration": 25, "velocity": 81}, {"time": 2322, "pitch": 53, "duration": 18, "velocity": 47}, {"time": 2325, "pitch": 60, "duration": 9, "velocity": 75}, {"time": 2325, "pitch": 63, "duration": 8, "velocity": 83}, {"time": 2325, "pitch": 65, "duration": 8, "velocity": 86}, {"time": 2325, "pitch": 68, "duration": 8, "velocity": 80}, {"time": 2337, "pitch": 60, "duration": 9, "velocity": 73}, {"time": 2337, "pitch": 63, "duration": 1, "velocity": 78}, {"time": 2337, "pitch": 65, "duration": 8, "velocity": 83}, {"time": 2337, "pitch": 68, "duration": 8, "velocity": 81}, {"time": 2343, "pitch": 53, "duration": 3, "velocity": 80}, {"time": 2355, "pitch": 46, "duration": 44, "velocity": 83}, {"time": 2355, "pitch": 62, "duration": 7, "velocity": 84}, {"time": 2355, "pitch": 65, "duration": 7, "velocity": 84}, {"time": 2355, "pitch": 70, "duration": 7, "velocity": 77}, {"time": 2358, "pitch": 60, "duration": 3, "velocity": 39}, {"time": 2364, "pitch": 60, "duration": 2, "velocity": 77}, {"time": 2364, "pitch": 62, "duration": 2, "velocity": 80}, {"time": 2364, "pitch": 65, "duration": 2, "velocity": 83}, {"time": 2364, "pitch": 70, "duration": 3, "velocity": 69}, {"time": 2367, "pitch": 58, "duration": 8, "velocity": 56}, {"time": 2373, "pitch": 60, "duration": 7, "velocity": 74}, {"time": 2373, "pitch": 62, "duration": 12, "velocity": 82}, {"time": 2373, "pitch": 65, "duration": 9, "velocity": 84}, {"time": 2373, "pitch": 70, "duration": 13, "velocity": 72}, {"time": 2385, "pitch": 58, "duration": 8, "velocity": 73}, {"time": 2391, "pitch": 62, "duration": 4, "velocity": 82}, {"time": 2391, "pitch": 65, "duration": 5, "velocity": 83}, {"time": 2391, "pitch": 70, "duration": 4, "velocity": 77}, {"time": 2397, "pitch": 58, "duration": 2, "velocity": 72}, {"time": 2403, "pitch": 43, "duration": 12, "velocity": 86}, {"time": 2403, "pitch": 55, "duration": 4, "velocity": 78}, {"time": 2403, "pitch": 58, "duration": 7, "velocity": 74}, {"time": 2403, "pitch": 62, "duration": 7, "velocity": 82}, {"time": 2403, "pitch": 65, "duration": 7, "velocity": 82}, {"time": 2403, "pitch": 70, "duration": 6, "velocity": 53}, {"time": 2409, "pitch": 55, "duration": 9, "velocity": 79}, {"time": 2415, "pitch": 58, "duration": 6, "velocity": 75}, {"time": 2415, "pitch": 65, "duration": 6, "velocity": 84}, {"time": 2421, "pitch": 70, "duration": 4, "velocity": 71}, {"time": 2427, "pitch": 48, "duration": 20, "velocity": 83}, {"time": 2427, "pitch": 63, "duration": 10, "velocity": 80}, {"time": 2427, "pitch": 67, "duration": 9, "velocity": 82}, {"time": 2433, "pitch": 55, "duration": 16, "velocity": 82}, {"time": 2439, "pitch": 60, "duration": 8, "velocity": 79}, {"time": 2445, "pitch": 62, "duration": 5, "velocity": 37}, {"time": 2451, "pitch": 48, "duration": 42, "velocity": 83}, {"time": 2451, "pitch": 60, "duration": 9, "velocity": 83}, {"time": 2451, "pitch": 62, "duration": 6, "velocity": 62}, {"time": 2451, "pitch": 63, "duration": 7, "velocity": 56}, {"time": 2451, "pitch": 67, "duration": 7, "velocity": 84}, {"time": 2460, "pitch": 60, "duration": 10, "velocity": 54}, {"time": 2460, "pitch": 62, "duration": 6, "velocity": 78}, {"time": 2460, "pitch": 63, "duration": 7, "velocity": 82}, {"time": 2460, "pitch": 67, "duration": 4, "velocity": 79}, {"time": 2469, "pitch": 62, "duration": 13, "velocity": 79}, {"time": 2469, "pitch": 63, "duration": 14, "velocity": 78}, {"time": 2469, "pitch": 67, "duration": 13, "velocity": 76}, {"time": 2481, "pitch": 60, "duration": 11, "velocity": 68}, {"time": 2487, "pitch": 62, "duration": 4, "velocity": 83}, {"time": 2487, "pitch": 63, "duration": 5, "velocity": 83}, {"time": 2487, "pitch": 67, "duration": 11, "velocity": 84}, {"time": 2493, "pitch": 55, "duration": 7, "velocity": 80}, {"time": 2499, "pitch": 48, "duration": 44, "velocity": 80}, {"time": 2499, "pitch": 60, "duration": 10, "velocity": 73}, {"time": 2499, "pitch": 62, "duration": 4, "velocity": 79}, {"time": 2499, "pitch": 63, "duration": 8, "velocity": 91}, {"time": 2499, "pitch": 70, "duration": 8, "velocity": 79}, {"time": 2508, "pitch": 62, "duration": 5, "velocity": 84}, {"time": 2508, "pitch": 67, "duration": 7, "velocity": 83}, {"time": 2511, "pitch": 60, "duration": 8, "velocity": 55}, {"time": 2517, "pitch": 62, "duration": 7, "velocity": 78}, {"time": 2517, "pitch": 63, "duration": 9, "velocity": 83}, {"time": 2517, "pitch": 67, "duration": 9, "velocity": 82}, {"time": 2526, "pitch": 60, "duration": 4, "velocity": 18}, {"time": 2529, "pitch": 62, "duration": 8, "velocity": 84}, {"time": 2529, "pitch": 65, "duration": 9, "velocity": 84}, {"time": 2535, "pitch": 60, "duration": 6, "velocity": 63}, {"time": 2541, "pitch": 63, "duration": 4, "velocity": 82}, {"time": 2541, "pitch": 67, "duration": 3, "velocity": 84}, {"time": 2547, "pitch": 48, "duration": 46, "velocity": 83}, {"time": 2547, "pitch": 60, "duration": 9, "velocity": 68}, {"time": 2547, "pitch": 63, "duration": 7, "velocity": 82}, {"time": 2547, "pitch": 67, "duration": 7, "velocity": 80}, {"time": 2547, "pitch": 72, "duration": 7, "velocity": 83}, {"time": 2556, "pitch": 63, "duration": 4, "velocity": 79}, {"time": 2556, "pitch": 67, "duration": 4, "velocity": 78}, {"time": 2556, "pitch": 72, "duration": 6, "velocity": 79}, {"time": 2559, "pitch": 60, "duration": 12, "velocity": 54}, {"time": 2565, "pitch": 63, "duration": 14, "velocity": 76}, {"time": 2565, "pitch": 67, "duration": 13, "velocity": 77}, {"time": 2565, "pitch": 72, "duration": 14, "velocity": 73}, {"time": 2577, "pitch": 60, "duration": 8, "velocity": 62}, {"time": 2583, "pitch": 63, "duration": 8, "velocity": 79}, {"time": 2583, "pitch": 67, "duration": 8, "velocity": 82}, {"time": 2583, "pitch": 72, "duration": 10, "velocity": 79}, {"time": 2589, "pitch": 60, "duration": 4, "velocity": 60}, {"time": 2595, "pitch": 51, "duration": 44, "velocity": 83}, {"time": 2595, "pitch": 63, "duration": 6, "velocity": 78}, {"time": 2595, "pitch": 67, "duration": 7, "velocity": 82}, {"time": 2595, "pitch": 70, "duration": 8, "velocity": 80}, {"time": 2604, "pitch": 63, "duration": 2, "velocity": 78}, {"time": 2604, "pitch": 67, "duration": 3, "velocity": 81}, {"time": 2604, "pitch": 70, "duration": 3, "velocity": 77}, {"time": 2607, "pitch": 58, "duration": 24, "velocity": 72}, {"time": 2613, "pitch": 63, "duration": 4, "velocity": 58}, {"time": 2613, "pitch": 67, "duration": 13, "velocity": 76}, {"time": 2613, "pitch": 70, "duration": 10, "velocity": 78}, {"time": 2613, "pitch": 75, "duration": 15, "velocity": 82}, {"time": 2625, "pitch": 63, "duration": 6, "velocity": 63}, {"time": 2631, "pitch": 65, "duration": 4, "velocity": 82}, {"time": 2631, "pitch": 67, "duration": 4, "velocity": 79}, {"time": 2631, "pitch": 70, "duration": 5, "velocity": 83}, {"time": 2631, "pitch": 75, "duration": 3, "velocity": 44}, {"time": 2637, "pitch": 58, "duration": 3, "velocity": 69}, {"time": 2643, "pitch": 53, "duration": 44, "velocity": 86}, {"time": 2643, "pitch": 63, "duration": 5, "velocity": 78}, {"time": 2643, "pitch": 68, "duration": 10, "velocity": 83}, {"time": 2643, "pitch": 72, "duration": 8, "velocity": 80}, {"time": 2652, "pitch": 60, "duration": 16, "velocity": 68}, {"time": 2652, "pitch": 65, "duration": 7, "velocity": 76}, {"time": 2661, "pitch": 68, "duration": 13, "velocity": 84}, {"time": 2661, "pitch": 72, "duration": 12, "velocity": 79}, {"time": 2673, "pitch": 60, "duration": 7, "velocity": 75}, {"time": 2679, "pitch": 65, "duration": 4, "velocity": 83}, {"time": 2679, "pitch": 68, "duration": 5, "velocity": 86}, {"time": 2679, "pitch": 72, "duration": 5, "velocity": 83}, {"time": 2685, "pitch": 60, "duration": 2, "velocity": 63}, {"time": 2691, "pitch": 65, "duration": 8, "velocity": 83}, {"time": 2691, "pitch": 68, "duration": 8, "velocity": 86}, {"time": 2691, "pitch": 72, "duration": 9, "velocity": 83}, {"time": 2700, "pitch": 53, "duration": 31, "velocity": 70}, {"time": 2703, "pitch": 65, "duration": 6, "velocity": 69}, {"time": 2703, "pitch": 68, "duration": 8, "velocity": 74}, {"time": 2703, "pitch": 72, "duration": 9, "velocity": 73}, {"time": 2709, "pitch": 60, "duration": 12, "velocity": 77}, {"time": 2721, "pitch": 65, "duration": 9, "velocity": 81}, {"time": 2721, "pitch": 68, "duration": 9, "velocity": 84}, {"time": 2721, "pitch": 72, "duration": 8, "velocity": 81}, {"time": 2727, "pitch": 60, "duration": 3, "velocity": 79}, {"time": 2733, "pitch": 68, "duration": 5, "velocity": 78}, {"time": 2733, "pitch": 72, "duration": 4, "velocity": 63}, {"time": 2739, "pitch": 46, "duration": 39, "velocity": 86}, {"time": 2739, "pitch": 58, "duration": 3, "velocity": 55}, {"time": 2739, "pitch": 65, "duration": 8, "velocity": 83}, {"time": 2739, "pitch": 70, "duration": 8, "velocity": 84}, {"time": 2739, "pitch": 74, "duration": 7, "velocity": 84}, {"time": 2745, "pitch": 58, "duration": 19, "velocity": 68}, {"time": 2751, "pitch": 65, "duration": 3, "velocity": 81}, {"time": 2751, "pitch": 70, "duration": 3, "velocity": 82}, {"time": 2757, "pitch": 65, "duration": 1, "velocity": 46}, {"time": 2757, "pitch": 70, "duration": 5, "velocity": 79}, {"time": 2763, "pitch": 65, "duration": 8, "velocity": 80}, {"time": 2763, "pitch": 70, "duration": 8, "velocity": 77}, {"time": 2763, "pitch": 77, "duration": 9, "velocity": 84}, {"time": 2769, "pitch": 58, "duration": 7, "velocity": 70}, {"time": 2775, "pitch": 65, "duration": 5, "velocity": 77}, {"time": 2775, "pitch": 70, "duration": 5, "velocity": 77}, {"time": 2775, "pitch": 74, "duration": 6, "velocity": 84}, {"time": 2781, "pitch": 46, "duration": 3, "velocity": 83}, {"time": 2787, "pitch": 43, "duration": 20, "velocity": 84}, {"time": 2787, "pitch": 55, "duration": 3, "velocity": 83}, {"time": 2787, "pitch": 67, "duration": 7, "velocity": 80}, {"time": 2787, "pitch": 70, "duration": 7, "velocity": 82}, {"time": 2787, "pitch": 74, "duration": 7, "velocity": 84}, {"time": 2793, "pitch": 55, "duration": 6, "velocity": 81}, {"time": 2799, "pitch": 67, "duration": 4, "velocity": 82}, {"time": 2799, "pitch": 70, "duration": 5, "velocity": 82}, {"time": 2799, "pitch": 74, "duration": 9, "velocity": 80}, {"time": 2805, "pitch": 55, "duration": 4, "velocity": 73}, {"time": 2811, "pitch": 48, "duration": 18, "velocity": 84}, {"time": 2811, "pitch": 67, "duration": 17, "velocity": 83}, {"time": 2811, "pitch": 72, "duration": 18, "velocity": 84}, {"time": 2811, "pitch": 75, "duration": 18, "velocity": 86}, {"time": 2835, "pitch": 48, "duration": 41, "velocity": 79}, {"time": 2835, "pitch": 63, "duration": 15, "velocity": 82}, {"time": 2835, "pitch": 67, "duration": 15, "velocity": 84}, {"time": 2835, "pitch": 72, "duration": 15, "velocity": 81}, {"time": 2841, "pitch": 55, "duration": 41, "velocity": 73}, {"time": 2847, "pitch": 60, "duration": 19, "velocity": 69}, {"time": 2853, "pitch": 63, "duration": 13, "velocity": 71}, {"time": 2865, "pitch": 67, "duration": 8, "velocity": 81}, {"time": 2871, "pitch": 60, "duration": 7, "velocity": 40}, {"time": 2877, "pitch": 67, "duration": 4, "velocity": 59}, {"time": 2883, "pitch": 48, "duration": 38, "velocity": 73}, {"time": 2883, "pitch": 67, "duration": 15, "velocity": 76}, {"time": 2883, "pitch": 75, "duration": 20, "velocity": 86}, {"time": 2889, "pitch": 55, "duration": 24, "velocity": 73}, {"time": 2895, "pitch": 60, "duration": 20, "velocity": 58}, {"time": 2901, "pitch": 65, "duration": 4, "velocity": 81}, {"time": 2901, "pitch": 74, "duration": 3, "velocity": 86}, {"time": 2913, "pitch": 63, "duration": 7, "velocity": 82}, {"time": 2913, "pitch": 72, "duration": 9, "velocity": 83}, {"time": 2919, "pitch": 55, "duration": 3, "velocity": 79}, {"time": 2925, "pitch": 70, "duration": 5, "velocity": 80}, {"time": 2931, "pitch": 44, "duration": 7, "velocity": 81}, {"time": 2931, "pitch": 63, "duration": 15, "velocity": 78}, {"time": 2931, "pitch": 68, "duration": 16, "velocity": 78}, {"time": 2931, "pitch": 72, "duration": 16, "velocity": 74}, {"time": 2937, "pitch": 56, "duration": 8, "velocity": 71}, {"time": 2943, "pitch": 60, "duration": 10, "velocity": 57}, {"time": 2949, "pitch": 63, "duration": 4, "velocity": 75}, {"time": 2955, "pitch": 68, "duration": 6, "velocity": 79}, {"time": 2961, "pitch": 72, "duration": 5, "velocity": 78}, {"time": 2973, "pitch": 75, "duration": 8, "velocity": 80}, {"time": 2979, "pitch": 51, "duration": 36, "velocity": 83}, {"time": 2979, "pitch": 67, "duration": 14, "velocity": 76}, {"time": 2979, "pitch": 70, "duration": 13, "velocity": 82}, {"time": 2979, "pitch": 75, "duration": 2, "velocity": 84}, {"time": 2985, "pitch": 58, "duration": 19, "velocity": 72}, {"time": 2991, "pitch": 63, "duration": 19, "velocity": 70}, {"time": 2997, "pitch": 65, "duration": 9, "velocity": 76}, {"time": 2997, "pitch": 70, "duration": 12, "velocity": 79}, {"time": 3009, "pitch": 67, "duration": 10, "velocity": 84}, {"time": 3015, "pitch": 58, "duration": 3, "velocity": 79}, {"time": 3027, "pitch": 53, "duration": 38, "velocity": 82}, {"time": 3027, "pitch": 63, "duration": 7, "velocity": 78}, {"time": 3027, "pitch": 68, "duration": 13, "velocity": 84}, {"time": 3033, "pitch": 60, "duration": 33, "velocity": 63}, {"time": 3039, "pitch": 65, "duration": 22, "velocity": 71}, {"time": 3045, "pitch": 68, "duration": 9, "velocity": 72}, {"time": 3057, "pitch": 72, "duration": 6, "velocity": 76}, {"time": 3063, "pitch": 75, "duration": 5, "velocity": 79}, {"time": 3069, "pitch": 79, "duration": 5, "velocity": 71}, {"time": 3075, "pitch": 43, "duration": 5, "velocity": 84}, {"time": 3075, "pitch": 62, "duration": 12, "velocity": 84}, {"time": 3075, "pitch": 67, "duration": 18, "velocity": 84}, {"time": 3075, "pitch": 70, "duration": 20, "velocity": 82}, {"time": 3081, "pitch": 55, "duration": 8, "velocity": 60}, {"time": 3087, "pitch": 58, "duration": 25, "velocity": 69}, {"time": 3093, "pitch": 62, "duration": 17, "velocity": 80}, {"time": 3105, "pitch": 67, "duration": 7, "velocity": 82}, {"time": 3111, "pitch": 70, "duration": 3, "velocity": 86}, {"time": 3123, "pitch": 44, "duration": 14, "velocity": 82}, {"time": 3123, "pitch": 63, "duration": 8, "velocity": 82}, {"time": 3123, "pitch": 68, "duration": 8, "velocity": 79}, {"time": 3123, "pitch": 72, "duration": 8, "velocity": 80}, {"time": 3129, "pitch": 56, "duration": 8, "velocity": 62}, {"time": 3135, "pitch": 63, "duration": 5, "velocity": 71}, {"time": 3141, "pitch": 72, "duration": 4, "velocity": 73}, {"time": 3147, "pitch": 41, "duration": 13, "velocity": 83}, {"time": 3147, "pitch": 65, "duration": 8, "velocity": 78}, {"time": 3147, "pitch": 68, "duration": 8, "velocity": 80}, {"time": 3147, "pitch": 72, "duration": 8, "velocity": 80}, {"time": 3153, "pitch": 53, "duration": 10, "velocity": 69}, {"time": 3159, "pitch": 65, "duration": 6, "velocity": 73}, {"time": 3165, "pitch": 68, "duration": 4, "velocity": 75}, {"time": 3171, "pitch": 46, "duration": 17, "velocity": 84}, {"time": 3171, "pitch": 65, "duration": 8, "velocity": 80}, {"time": 3171, "pitch": 70, "duration": 9, "velocity": 76}, {"time": 3171, "pitch": 74, "duration": 8, "velocity": 86}, {"time": 3177, "pitch": 58, "duration": 16, "velocity": 62}, {"time": 3183, "pitch": 65, "duration": 4, "velocity": 69}, {"time": 3189, "pitch": 72, "duration": 5, "velocity": 76}, {"time": 3195, "pitch": 48, "duration": 10, "velocity": 79}, {"time": 3195, "pitch": 67, "duration": 21, "velocity": 78}, {"time": 3195, "pitch": 75, "duration": 26, "velocity": 86}, {"time": 3201, "pitch": 55, "duration": 6, "velocity": 76}, {"time": 3207, "pitch": 60, "duration": 7, "velocity": 57}, {"time": 3213, "pitch": 62, "duration": 7, "velocity": 62}, {"time": 3219, "pitch": 46, "duration": 14, "velocity": 84}, {"time": 3219, "pitch": 58, "duration": 12, "velocity": 83}, {"time": 3219, "pitch": 65, "duration": 14, "velocity": 84}, {"time": 3219, "pitch": 70, "duration": 14, "velocity": 84}, {"time": 3219, "pitch": 74, "duration": 13, "velocity": 91}, {"time": 3237, "pitch": 43, "duration": 9, "velocity": 91}, {"time": 3237, "pitch": 55, "duration": 9, "velocity": 95}, {"time": 3237, "pitch": 65, "duration": 9, "velocity": 86}, {"time": 3237, "pitch": 70, "duration": 9, "velocity": 86}, {"time": 3237, "pitch": 74, "duration": 9, "velocity": 86}, {"time": 3249, "pitch": 43, "duration": 2, "velocity": 95}, {"time": 3249, "pitch": 55, "duration": 2, "velocity": 101}, {"time": 3249, "pitch": 65, "duration": 2, "velocity": 94}, {"time": 3249, "pitch": 70, "duration": 2, "velocity": 91}, {"time": 3249, "pitch": 74, "duration": 3, "velocity": 93}, {"time": 3255, "pitch": 48, "duration": 6, "velocity": 101}, {"time": 3255, "pitch": 67, "duration": 6, "velocity": 93}, {"time": 3255, "pitch": 72, "duration": 6, "velocity": 93}, {"time": 3255, "pitch": 75, "duration": 6, "velocity": 98}, {"time": 3267, "pitch": 48, "duration": 43, "velocity": 84}, {"time": 3267, "pitch": 67, "duration": 7, "velocity": 81}, {"time": 3267, "pitch": 72, "duration": 8, "velocity": 82}, {"time": 3267, "pitch": 75, "duration": 7, "velocity": 86}, {"time": 3273, "pitch": 60, "duration": 15, "velocity": 44}, {"time": 3279, "pitch": 67, "duration": 5, "velocity": 72}, {"time": 3285, "pitch": 67, "duration": 12, "velocity": 80}, {"time": 3285, "pitch": 72, "duration": 12, "velocity": 80}, {"time": 3285, "pitch": 75, "duration": 12, "velocity": 90}, {"time": 3297, "pitch": 60, "duration": 14, "velocity": 63}, {"time": 3303, "pitch": 67, "duration": 5, "velocity": 81}, {"time": 3303, "pitch": 75, "duration": 1, "velocity": 47}, {"time": 3309, "pitch": 72, "duration": 9, "velocity": 75}, {"time": 3315, "pitch": 48, "duration": 42, "velocity": 79}, {"time": 3315, "pitch": 67, "duration": 9, "velocity": 82}, {"time": 3315, "pitch": 75, "duration": 8, "velocity": 91}, {"time": 3321, "pitch": 60, "duration": 14, "velocity": 71}, {"time": 3327, "pitch": 67, "duration": 4, "velocity": 69}, {"time": 3333, "pitch": 67, "duration": 9, "velocity": 86}, {"time": 3333, "pitch": 75, "duration": 10, "velocity": 90}, {"time": 3339, "pitch": 60, "duration": 8, "velocity": 71}, {"time": 3345, "pitch": 65, "duration": 9, "velocity": 84}, {"time": 3345, "pitch": 74, "duration": 9, "velocity": 84}, {"time": 3345, "pitch": 75, "duration": 1, "velocity": 56}, {"time": 3351, "pitch": 60, "duration": 8, "velocity": 63}, {"time": 3357, "pitch": 70, "duration": 5, "velocity": 81}, {"time": 3363, "pitch": 48, "duration": 43, "velocity": 82}, {"time": 3363, "pitch": 67, "duration": 13, "velocity": 83}, {"time": 3363, "pitch": 72, "duration": 12, "velocity": 82}, {"time": 3363, "pitch": 75, "duration": 11, "velocity": 84}, {"time": 3369, "pitch": 55, "duration": 36, "velocity": 76}, {"time": 3375, "pitch": 60, "duration": 19, "velocity": 70}, {"time": 3381, "pitch": 67, "duration": 9, "velocity": 72}, {"time": 3393, "pitch": 67, "duration": 9, "velocity": 82}, {"time": 3393, "pitch": 72, "duration": 9, "velocity": 80}, {"time": 3393, "pitch": 75, "duration": 9, "velocity": 86}, {"time": 3399, "pitch": 60, "duration": 8, "velocity": 76}, {"time": 3405, "pitch": 67, "duration": 4, "velocity": 75}, {"time": 3405, "pitch": 75, "duration": 2, "velocity": 53}, {"time": 3411, "pitch": 51, "duration": 40, "velocity": 90}, {"time": 3411, "pitch": 67, "duration": 10, "velocity": 83}, {"time": 3411, "pitch": 70, "duration": 9, "velocity": 83}, {"time": 3411, "pitch": 75, "duration": 9, "velocity": 86}, {"time": 3417, "pitch": 63, "duration": 14, "velocity": 62}, {"time": 3420, "pitch": 67, "duration": 1, "velocity": 43}, {"time": 3429, "pitch": 67, "duration": 14, "velocity": 82}, {"time": 3429, "pitch": 70, "duration": 15, "velocity": 83}, {"time": 3429, "pitch": 75, "duration": 14, "velocity": 90}, {"time": 3441, "pitch": 63, "duration": 15, "velocity": 76}, {"time": 3447, "pitch": 67, "duration": 8, "velocity": 84}, {"time": 3447, "pitch": 75, "duration": 7, "velocity": 86}, {"time": 3453, "pitch": 70, "duration": 7, "velocity": 79}, {"time": 3459, "pitch": 53, "duration": 39, "velocity": 86}, {"time": 3459, "pitch": 68, "duration": 12, "velocity": 83}, {"time": 3459, "pitch": 72, "duration": 11, "velocity": 83}, {"time": 3459, "pitch": 77, "duration": 12, "velocity": 90}, {"time": 3465, "pitch": 60, "duration": 39, "velocity": 76}, {"time": 3471, "pitch": 65, "duration": 18, "velocity": 80}, {"time": 3477, "pitch": 68, "duration": 9, "velocity": 75}, {"time": 3483, "pitch": 72, "duration": 14, "velocity": 80}, {"time": 3489, "pitch": 68, "duration": 3, "velocity": 57}, {"time": 3489, "pitch": 77, "duration": 8, "velocity": 91}, {"time": 3495, "pitch": 65, "duration": 6, "velocity": 76}, {"time": 3501, "pitch": 68, "duration": 5, "velocity": 68}, {"time": 3507, "pitch": 53, "duration": 40, "velocity": 83}, {"time": 3507, "pitch": 68, "duration": 14, "velocity": 53}, {"time": 3507, "pitch": 77, "duration": 14, "velocity": 90}, {"time": 3513, "pitch": 60, "duration": 34, "velocity": 75}, {"time": 3519, "pitch": 65, "duration": 24, "velocity": 80}, {"time": 3525, "pitch": 68, "duration": 5, "velocity": 78}, {"time": 3531, "pitch": 68, "duration": 2, "velocity": 17}, {"time": 3531, "pitch": 72, "duration": 5, "velocity": 76}, {"time": 3537, "pitch": 75, "duration": 8, "velocity": 84}, {"time": 3543, "pitch": 77, "duration": 3, "velocity": 84}, {"time": 3549, "pitch": 79, "duration": 3, "velocity": 84}, {"time": 3555, "pitch": 46, "duration": 5, "velocity": 83}, {"time": 3555, "pitch": 65, "duration": 19, "velocity": 76}, {"time": 3555, "pitch": 70, "duration": 18, "velocity": 81}, {"time": 3555, "pitch": 77, "duration": 19, "velocity": 84}, {"time": 3561, "pitch": 58, "duration": 7, "velocity": 62}, {"time": 3567, "pitch": 60, "duration": 27, "velocity": 69}, {"time": 3573, "pitch": 62, "duration": 22, "velocity": 83}, {"time": 3579, "pitch": 65, "duration": 8, "velocity": 80}, {"time": 3585, "pitch": 70, "duration": 5, "velocity": 80}, {"time": 3591, "pitch": 70, "duration": 2, "velocity": 48}, {"time": 3591, "pitch": 72, "duration": 5, "velocity": 77}, {"time": 3597, "pitch": 77, "duration": 15, "velocity": 83}, {"time": 3603, "pitch": 55, "duration": 14, "velocity": 84}, {"time": 3603, "pitch": 65, "duration": 8, "velocity": 83}, {"time": 3603, "pitch": 70, "duration": 9, "velocity": 83}, {"time": 3609, "pitch": 62, "duration": 8, "velocity": 69}, {"time": 3615, "pitch": 65, "duration": 6, "velocity": 83}, {"time": 3621, "pitch": 70, "duration": 5, "velocity": 83}, {"time": 3627, "pitch": 48, "duration": 12, "velocity": 82}, {"time": 3627, "pitch": 67, "duration": 23, "velocity": 82}, {"time": 3627, "pitch": 72, "duration": 23, "velocity": 82}, {"time": 3633, "pitch": 55, "duration": 7, "velocity": 78}, {"time": 3639, "pitch": 60, "duration": 8, "velocity": 76}, {"time": 3645, "pitch": 62, "duration": 7, "velocity": 75}, {"time": 3651, "pitch": 48, "duration": 12, "velocity": 84}, {"time": 3651, "pitch": 63, "duration": 2, "velocity": 80}, {"time": 3651, "pitch": 63, "duration": 2, "velocity": 83}, {"time": 3651, "pitch": 67, "duration": 19, "velocity": 78}, {"time": 3651, "pitch": 72, "duration": 25, "velocity": 81}, {"time": 3657, "pitch": 55, "duration": 6, "velocity": 81}, {"time": 3663, "pitch": 60, "duration": 10, "velocity": 75}, {"time": 3669, "pitch": 62, "duration": 12, "velocity": 63}, {"time": 3675, "pitch": 63, "duration": 5, "velocity": 83}, {"time": 3681, "pitch": 67, "duration": 8, "velocity": 82}, {"time": 3687, "pitch": 70, "duration": 12, "velocity": 82}, {"time": 3693, "pitch": 72, "duration": 2, "velocity": 46}, {"time": 3699, "pitch": 48, "duration": 33, "velocity": 79}, {"time": 3699, "pitch": 63, "duration": 8, "velocity": 76}, {"time": 3699, "pitch": 67, "duration": 9, "velocity": 76}, {"time": 3699, "pitch": 72, "duration": 10, "velocity": 79}, {"time": 3705, "pitch": 55, "duration": 27, "velocity": 80}, {"time": 3711, "pitch": 63, "duration": 3, "velocity": 63}, {"time": 3711, "pitch": 70, "duration": 6, "velocity": 76}, {"time": 3717, "pitch": 63, "duration": 12, "velocity": 81}, {"time": 3717, "pitch": 67, "duration": 15, "velocity": 79}, {"time": 3717, "pitch": 72, "duration": 13, "velocity": 75}, {"time": 3729, "pitch": 60, "duration": 12, "velocity": 79}, {"time": 3735, "pitch": 63, "duration": 9, "velocity": 83}, {"time": 3735, "pitch": 67, "duration": 8, "velocity": 79}, {"time": 3735, "pitch": 72, "duration": 11, "velocity": 80}, {"time": 3741, "pitch": 55, "duration": 5, "velocity": 57}, {"time": 3744, "pitch": 51, "duration": 4, "velocity": 76}, {"time": 3747, "pitch": 48, "duration": 42, "velocity": 84}, {"time": 3747, "pitch": 63, "duration": 9, "velocity": 82}, {"time": 3747, "pitch": 67, "duration": 10, "velocity": 83}, {"time": 3747, "pitch": 72, "duration": 13, "velocity": 80}, {"time": 3753, "pitch": 55, "duration": 27, "velocity": 78}, {"time": 3759, "pitch": 60, "duration": 8, "velocity": 68}, {"time": 3765, "pitch": 63, "duration": 9, "velocity": 83}, {"time": 3765, "pitch": 72, "duration": 11, "velocity": 82}, {"time": 3777, "pitch": 60, "duration": 9, "velocity": 73}, {"time": 3783, "pitch": 62, "duration": 4, "velocity": 79}, {"time": 3783, "pitch": 70, "duration": 11, "velocity": 80}, {"time": 3789, "pitch": 55, "duration": 2, "velocity": 73}, {"time": 3795, "pitch": 51, "duration": 38, "velocity": 93}, {"time": 3795, "pitch": 67, "duration": 11, "velocity": 83}, {"time": 3795, "pitch": 72, "duration": 12, "velocity": 84}, {"time": 3801, "pitch": 58, "duration": 15, "velocity": 75}, {"time": 3807, "pitch": 63, "duration": 14, "velocity": 79}, {"time": 3813, "pitch": 65, "duration": 8, "velocity": 83}, {"time": 3813, "pitch": 70, "duration": 11, "velocity": 84}, {"time": 3825, "pitch": 58, "duration": 8, "velocity": 80}, {"time": 3831, "pitch": 67, "duration": 12, "velocity": 77}, {"time": 3837, "pitch": 70, "duration": 3, "velocity": 77}, {"time": 3843, "pitch": 41, "duration": 6, "velocity": 84}, {"time": 3843, "pitch": 60, "duration": 13, "velocity": 78}, {"time": 3843, "pitch": 63, "duration": 12, "velocity": 82}, {"time": 3843, "pitch": 68, "duration": 19, "velocity": 82}, {"time": 3849, "pitch": 53, "duration": 7, "velocity": 67}, {"time": 3855, "pitch": 56, "duration": 24, "velocity": 69}, {"time": 3861, "pitch": 60, "duration": 17, "velocity": 62}, {"time": 3867, "pitch": 63, "duration": 7, "velocity": 78}, {"time": 3873, "pitch": 68, "duration": 7, "velocity": 84}, {"time": 3879, "pitch": 72, "duration": 6, "velocity": 78}, {"time": 3885, "pitch": 65, "duration": 3, "velocity": 48}, {"time": 3891, "pitch": 41, "duration": 6, "velocity": 84}, {"time": 3891, "pitch": 65, "duration": 20, "velocity": 81}, {"time": 3891, "pitch": 68, "duration": 21, "velocity": 83}, {"time": 3891, "pitch": 72, "duration": 20, "velocity": 78}, {"time": 3897, "pitch": 53, "duration": 8, "velocity": 78}, {"time": 3903, "pitch": 56, "duration": 28, "velocity": 72}, {"time": 3909, "pitch": 60, "duration": 21, "velocity": 73}, {"time": 3915, "pitch": 65, "duration": 5, "velocity": 81}, {"time": 3921, "pitch": 65, "duration": 3, "velocity": 56}, {"time": 3921, "pitch": 68, "duration": 4, "velocity": 84}, {"time": 3921, "pitch": 75, "duration": 4, "velocity": 84}, {"time": 3927, "pitch": 65, "duration": 4, "velocity": 75}, {"time": 3927, "pitch": 68, "duration": 5, "velocity": 79}, {"time": 3927, "pitch": 75, "duration": 7, "velocity": 86}, {"time": 3933, "pitch": 70, "duration": 5, "velocity": 80}, {"time": 3939, "pitch": 46, "duration": 6, "velocity": 83}, {"time": 3939, "pitch": 65, "duration": 20, "velocity": 83}, {"time": 3939, "pitch": 70, "duration": 20, "velocity": 84}, {"time": 3939, "pitch": 74, "duration": 20, "velocity": 90}, {"time": 3945, "pitch": 58, "duration": 8, "velocity": 73}, {"time": 3951, "pitch": 60, "duration": 24, "velocity": 72}, {"time": 3957, "pitch": 62, "duration": 18, "velocity": 86}, {"time": 3963, "pitch": 65, "duration": 5, "velocity": 84}, {"time": 3969, "pitch": 65, "duration": 3, "velocity": 41}, {"time": 3969, "pitch": 72, "duration": 5, "velocity": 86}, {"time": 3975, "pitch": 72, "duration": 3, "velocity": 57}, {"time": 3975, "pitch": 74, "duration": 6, "velocity": 90}, {"time": 3981, "pitch": 77, "duration": 15, "velocity": 95}, {"time": 3987, "pitch": 55, "duration": 13, "velocity": 90}, {"time": 3987, "pitch": 65, "duration": 9, "velocity": 95}, {"time": 3987, "pitch": 70, "duration": 10, "velocity": 90}, {"time": 3993, "pitch": 62, "duration": 6, "velocity": 84}, {"time": 3999, "pitch": 72, "duration": 6, "velocity": 91}, {"time": 4005, "pitch": 75, "duration": 5, "velocity": 95}, {"time": 4011, "pitch": 48, "duration": 18, "velocity": 82}, {"time": 4011, "pitch": 60, "duration": 9, "velocity": 84}, {"time": 4011, "pitch": 67, "duration": 17, "velocity": 94}, {"time": 4011, "pitch": 72, "duration": 17, "velocity": 90}, {"time": 4011, "pitch": 75, "duration": 15, "velocity": 83}, {"time": 4023, "pitch": 60, "duration": 6, "velocity": 84}, {"time": 4035, "pitch": 48, "duration": 41, "velocity": 90}, {"time": 4035, "pitch": 60, "duration": 9, "velocity": 90}, {"time": 4035, "pitch": 67, "duration": 6, "velocity": 84}, {"time": 4035, "pitch": 72, "duration": 7, "velocity": 86}, {"time": 4035, "pitch": 75, "duration": 6, "velocity": 86}, {"time": 4044, "pitch": 67, "duration": 3, "velocity": 76}, {"time": 4044, "pitch": 72, "duration": 3, "velocity": 78}, {"time": 4044, "pitch": 75, "duration": 3, "velocity": 83}, {"time": 4047, "pitch": 60, "duration": 8, "velocity": 57}, {"time": 4053, "pitch": 65, "duration": 9, "velocity": 84}, {"time": 4053, "pitch": 70, "duration": 13, "velocity": 83}, {"time": 4053, "pitch": 74, "duration": 14, "velocity": 93}, {"time": 4065, "pitch": 60, "duration": 10, "velocity": 80}, {"time": 4071, "pitch": 67, "duration": 5, "velocity": 90}, {"time": 4071, "pitch": 72, "duration": 6, "velocity": 84}, {"time": 4077, "pitch": 55, "duration": 6, "velocity": 83}, {"time": 4077, "pitch": 70, "duration": 6, "velocity": 84}, {"time": 4083, "pitch": 48, "duration": 42, "velocity": 86}, {"time": 4083, "pitch": 67, "duration": 7, "velocity": 84}, {"time": 4083, "pitch": 72, "duration": 10, "velocity": 86}, {"time": 4089, "pitch": 55, "duration": 32, "velocity": 80}, {"time": 4092, "pitch": 67, "duration": 3, "velocity": 84}, {"time": 4092, "pitch": 75, "duration": 6, "velocity": 94}, {"time": 4095, "pitch": 60, "duration": 7, "velocity": 62}, {"time": 4101, "pitch": 67, "duration": 13, "velocity": 91}, {"time": 4101, "pitch": 72, "duration": 8, "velocity": 95}, {"time": 4113, "pitch": 60, "duration": 12, "velocity": 81}, {"time": 4119, "pitch": 65, "duration": 7, "velocity": 90}, {"time": 4119, "pitch": 70, "duration": 5, "velocity": 86}, {"time": 4125, "pitch": 55, "duration": 6, "velocity": 84}, {"time": 4125, "pitch": 67, "duration": 5, "velocity": 86}, {"time": 4131, "pitch": 48, "duration": 37, "velocity": 84}, {"time": 4131, "pitch": 65, "duration": 6, "velocity": 86}, {"time": 4131, "pitch": 72, "duration": 7, "velocity": 83}, {"time": 4137, "pitch": 55, "duration": 33, "velocity": 83}, {"time": 4140, "pitch": 63, "duration": 4, "velocity": 90}, {"time": 4140, "pitch": 70, "duration": 4, "velocity": 75}, {"time": 4143, "pitch": 60, "duration": 9, "velocity": 63}, {"time": 4149, "pitch": 67, "duration": 14, "velocity": 76}, {"time": 4149, "pitch": 72, "duration": 14, "velocity": 90}, {"time": 4161, "pitch": 60, "duration": 10, "velocity": 81}, {"time": 4167, "pitch": 65, "duration": 8, "velocity": 91}, {"time": 4167, "pitch": 70, "duration": 5, "velocity": 84}, {"time": 4173, "pitch": 72, "duration": 5, "velocity": 86}, {"time": 4179, "pitch": 51, "duration": 35, "velocity": 90}, {"time": 4179, "pitch": 67, "duration": 7, "velocity": 83}, {"time": 4179, "pitch": 70, "duration": 8, "velocity": 86}, {"time": 4179, "pitch": 75, "duration": 2, "velocity": 67}, {"time": 4185, "pitch": 58, "duration": 22, "velocity": 78}, {"time": 4188, "pitch": 67, "duration": 3, "velocity": 83}, {"time": 4188, "pitch": 75, "duration": 8, "velocity": 90}, {"time": 4191, "pitch": 63, "duration": 8, "velocity": 53}, {"time": 4197, "pitch": 67, "duration": 9, "velocity": 82}, {"time": 4197, "pitch": 72, "duration": 7, "velocity": 84}, {"time": 4203, "pitch": 63, "duration": 3, "velocity": 72}, {"time": 4209, "pitch": 58, "duration": 7, "velocity": 90}, {"time": 4209, "pitch": 63, "duration": 2, "velocity": 61}, {"time": 4215, "pitch": 65, "duration": 7, "velocity": 84}, {"time": 4215, "pitch": 70, "duration": 6, "velocity": 84}, {"time": 4221, "pitch": 67, "duration": 4, "velocity": 84}, {"time": 4227, "pitch": 53, "duration": 42, "velocity": 90}, {"time": 4227, "pitch": 68, "duration": 13, "velocity": 81}, {"time": 4227, "pitch": 72, "duration": 13, "velocity": 82}, {"time": 4227, "pitch": 77, "duration": 14, "velocity": 90}, {"time": 4233, "pitch": 60, "duration": 24, "velocity": 75}, {"time": 4239, "pitch": 65, "duration": 19, "velocity": 82}, {"time": 4245, "pitch": 68, "duration": 9, "velocity": 80}, {"time": 4251, "pitch": 77, "duration": 4, "velocity": 86}, {"time": 4257, "pitch": 68, "duration": 2, "velocity": 62}, {"time": 4257, "pitch": 75, "duration": 6, "velocity": 94}, {"time": 4257, "pitch": 77, "duration": 4, "velocity": 73}, {"time": 4263, "pitch": 60, "duration": 5, "velocity": 78}, {"time": 4263, "pitch": 72, "duration": 6, "velocity": 86}, {"time": 4269, "pitch": 68, "duration": 4, "velocity": 84}, {"time": 4275, "pitch": 53, "duration": 38, "velocity": 84}, {"time": 4275, "pitch": 68, "duration": 7, "velocity": 82}, {"time": 4275, "pitch": 72, "duration": 7, "velocity": 82}, {"time": 4275, "pitch": 77, "duration": 6, "velocity": 86}, {"time": 4281, "pitch": 60, "duration": 15, "velocity": 68}, {"time": 4287, "pitch": 65, "duration": 9, "velocity": 82}, {"time": 4293, "pitch": 68, "duration": 9, "velocity": 84}, {"time": 4299, "pitch": 60, "duration": 12, "velocity": 68}, {"time": 4305, "pitch": 63, "duration": 8, "velocity": 94}, {"time": 4311, "pitch": 68, "duration": 5, "velocity": 86}, {"time": 4317, "pitch": 75, "duration": 8, "velocity": 90}, {"time": 4323, "pitch": 46, "duration": 45, "velocity": 80}, {"time": 4323, "pitch": 65, "duration": 10, "velocity": 82}, {"time": 4323, "pitch": 70, "duration": 10, "velocity": 86}, {"time": 4323, "pitch": 74, "duration": 9, "velocity": 86}, {"time": 4329, "pitch": 53, "duration": 39, "velocity": 76}, {"time": 4335, "pitch": 58, "duration": 8, "velocity": 76}, {"time": 4341, "pitch": 62, "duration": 3, "velocity": 80}, {"time": 4341, "pitch": 72, "duration": 1, "velocity": 75}, {"time": 4341, "pitch": 74, "duration": 3, "velocity": 93}, {"time": 4347, "pitch": 63, "duration": 3, "velocity": 82}, {"time": 4347, "pitch": 74, "duration": 1, "velocity": 71}, {"time": 4347, "pitch": 75, "duration": 3, "velocity": 98}, {"time": 4350, "pitch": 58, "duration": 4, "velocity": 44}, {"time": 4353, "pitch": 65, "duration": 3, "velocity": 79}, {"time": 4353, "pitch": 77, "duration": 3, "velocity": 90}, {"time": 4359, "pitch": 58, "duration": 2, "velocity": 57}, {"time": 4359, "pitch": 67, "duration": 4, "velocity": 73}, {"time": 4359, "pitch": 77, "duration": 2, "velocity": 69}, {"time": 4359, "pitch": 79, "duration": 3, "velocity": 60}, {"time": 4365, "pitch": 58, "duration": 2, "velocity": 75}, {"time": 4371, "pitch": 43, "duration": 15, "velocity": 98}, {"time": 4371, "pitch": 65, "duration": 8, "velocity": 84}, {"time": 4371, "pitch": 72, "duration": 9, "velocity": 79}, {"time": 4377, "pitch": 55, "duration": 12, "velocity": 83}, {"time": 4383, "pitch": 70, "duration": 5, "velocity": 90}, {"time": 4389, "pitch": 74, "duration": 5, "velocity": 86}, {"time": 4395, "pitch": 48, "duration": 19, "velocity": 86}, {"time": 4395, "pitch": 67, "duration": 14, "velocity": 82}, {"time": 4395, "pitch": 72, "duration": 15, "velocity": 80}, {"time": 4395, "pitch": 75, "duration": 14, "velocity": 84}, {"time": 4401, "pitch": 55, "duration": 14, "velocity": 82}, {"time": 4407, "pitch": 60, "duration": 7, "velocity": 86}, {"time": 4413, "pitch": 67, "duration": 3, "velocity": 80}, {"time": 4419, "pitch": 48, "duration": 9, "velocity": 83}, {"time": 4419, "pitch": 60, "duration": 9, "velocity": 84}, {"time": 4419, "pitch": 67, "duration": 7, "velocity": 82}, {"time": 4419, "pitch": 72, "duration": 7, "velocity": 80}, {"time": 4419, "pitch": 75, "duration": 7, "velocity": 84}, {"time": 4428, "pitch": 67, "duration": 3, "velocity": 79}, {"time": 4428, "pitch": 72, "duration": 3, "velocity": 78}, {"time": 4428, "pitch": 75, "duration": 3, "velocity": 82}, {"time": 4431, "pitch": 48, "duration": 27, "velocity": 80}, {"time": 4431, "pitch": 60, "duration": 9, "velocity": 71}, {"time": 4437, "pitch": 65, "duration": 3, "velocity": 83}, {"time": 4437, "pitch": 70, "duration": 6, "velocity": 83}, {"time": 4443, "pitch": 67, "duration": 6, "velocity": 93}, {"time": 4443, "pitch": 72, "duration": 6, "velocity": 90}, {"time": 4449, "pitch": 60, "duration": 6, "velocity": 73}, {"time": 4452, "pitch": 65, "duration": 4, "velocity": 80}, {"time": 4452, "pitch": 70, "duration": 6, "velocity": 84}, {"time": 4455, "pitch": 55, "duration": 8, "velocity": 83}, {"time": 4461, "pitch": 63, "duration": 4, "velocity": 90}, {"time": 4467, "pitch": 48, "duration": 39, "velocity": 84}, {"time": 4467, "pitch": 63, "duration": 7, "velocity": 84}, {"time": 4467, "pitch": 67, "duration": 7, "velocity": 76}, {"time": 4467, "pitch": 72, "duration": 8, "velocity": 84}, {"time": 4473, "pitch": 55, "duration": 35, "velocity": 78}, {"time": 4479, "pitch": 63, "duration": 4, "velocity": 80}, {"time": 4479, "pitch": 70, "duration": 5, "velocity": 84}, {"time": 4485, "pitch": 63, "duration": 3, "velocity": 76}, {"time": 4485, "pitch": 67, "duration": 9, "velocity": 90}, {"time": 4485, "pitch": 72, "duration": 9, "velocity": 80}, {"time": 4491, "pitch": 60, "duration": 7, "velocity": 79}, {"time": 4497, "pitch": 63, "duration": 4, "velocity": 84}, {"time": 4497, "pitch": 70, "duration": 5, "velocity": 84}, {"time": 4503, "pitch": 60, "duration": 3, "velocity": 75}, {"time": 4503, "pitch": 63, "duration": 2, "velocity": 75}, {"time": 4503, "pitch": 72, "duration": 5, "velocity": 83}, {"time": 4509, "pitch": 55, "duration": 2, "velocity": 62}, {"time": 4509, "pitch": 70, "duration": 5, "velocity": 90}, {"time": 4509, "pitch": 72, "duration": 1, "velocity": 58}, {"time": 4515, "pitch": 48, "duration": 38, "velocity": 84}, {"time": 4515, "pitch": 63, "duration": 14, "velocity": 81}, {"time": 4515, "pitch": 67, "duration": 13, "velocity": 82}, {"time": 4515, "pitch": 72, "duration": 14, "velocity": 91}, {"time": 4521, "pitch": 55, "duration": 34, "velocity": 80}, {"time": 4527, "pitch": 60, "duration": 19, "velocity": 82}, {"time": 4533, "pitch": 63, "duration": 5, "velocity": 94}, {"time": 4539, "pitch": 67, "duration": 5, "velocity": 84}, {"time": 4545, "pitch": 70, "duration": 6, "velocity": 91}, {"time": 4551, "pitch": 60, "duration": 10, "velocity": 76}, {"time": 4551, "pitch": 72, "duration": 10, "velocity": 82}, {"time": 4557, "pitch": 63, "duration": 4, "velocity": 78}, {"time": 4563, "pitch": 51, "duration": 39, "velocity": 91}, {"time": 4563, "pitch": 67, "duration": 14, "velocity": 93}, {"time": 4563, "pitch": 70, "duration": 14, "velocity": 82}, {"time": 4569, "pitch": 58, "duration": 28, "velocity": 75}, {"time": 4575, "pitch": 63, "duration": 15, "velocity": 84}, {"time": 4581, "pitch": 65, "duration": 5, "velocity": 91}, {"time": 4581, "pitch": 70, "duration": 5, "velocity": 83}, {"time": 4587, "pitch": 65, "duration": 1, "velocity": 45}, {"time": 4587, "pitch": 67, "duration": 5, "velocity": 90}, {"time": 4593, "pitch": 65, "duration": 3, "velocity": 61}, {"time": 4593, "pitch": 70, "duration": 5, "velocity": 90}, {"time": 4599, "pitch": 72, "duration": 6, "velocity": 84}, {"time": 4605, "pitch": 75, "duration": 4, "velocity": 95}, {"time": 4611, "pitch": 53, "duration": 44, "velocity": 90}, {"time": 4611, "pitch": 65, "duration": 2, "velocity": 78}, {"time": 4611, "pitch": 68, "duration": 12, "velocity": 83}, {"time": 4611, "pitch": 72, "duration": 13, "velocity": 86}, {"time": 4617, "pitch": 60, "duration": 16, "velocity": 71}, {"time": 4623, "pitch": 65, "duration": 18, "velocity": 84}, {"time": 4629, "pitch": 68, "duration": 13, "velocity": 73}, {"time": 4635, "pitch": 77, "duration": 9, "velocity": 91}, {"time": 4641, "pitch": 60, "duration": 7, "velocity": 75}, {"time": 4647, "pitch": 68, "duration": 3, "velocity": 80}, {"time": 4647, "pitch": 75, "duration": 4, "velocity": 91}, {"time": 4647, "pitch": 77, "duration": 2, "velocity": 81}, {"time": 4653, "pitch": 60, "duration": 5, "velocity": 76}, {"time": 4653, "pitch": 72, "duration": 21, "velocity": 81}, {"time": 4659, "pitch": 53, "duration": 38, "velocity": 83}, {"time": 4659, "pitch": 68, "duration": 14, "velocity": 54}, {"time": 4659, "pitch": 77, "duration": 12, "velocity": 94}, {"time": 4665, "pitch": 60, "duration": 24, "velocity": 76}, {"time": 4671, "pitch": 65, "duration": 8, "velocity": 86}, {"time": 4677, "pitch": 67, "duration": 8, "velocity": 84}, {"time": 4677, "pitch": 72, "duration": 9, "velocity": 82}, {"time": 4683, "pitch": 65, "duration": 8, "velocity": 63}, {"time": 4689, "pitch": 67, "duration": 1, "velocity": 68}, {"time": 4689, "pitch": 68, "duration": 5, "velocity": 96}, {"time": 4695, "pitch": 60, "duration": 2, "velocity": 77}, {"time": 4695, "pitch": 72, "duration": 6, "velocity": 83}, {"time": 4701, "pitch": 75, "duration": 8, "velocity": 91}, {"time": 4707, "pitch": 46, "duration": 39, "velocity": 90}, {"time": 4707, "pitch": 65, "duration": 10, "velocity": 78}, {"time": 4707, "pitch": 70, "duration": 9, "velocity": 82}, {"time": 4707, "pitch": 74, "duration": 9, "velocity": 86}, {"time": 4713, "pitch": 53, "duration": 26, "velocity": 80}, {"time": 4719, "pitch": 58, "duration": 7, "velocity": 79}, {"time": 4725, "pitch": 62, "duration": 8, "velocity": 84}, {"time": 4725, "pitch": 65, "duration": 9, "velocity": 99}, {"time": 4725, "pitch": 70, "duration": 1, "velocity": 50}, {"time": 4731, "pitch": 58, "duration": 6, "velocity": 61}, {"time": 4737, "pitch": 62, "duration": 9, "velocity": 86}, {"time": 4737, "pitch": 65, "duration": 4, "velocity": 83}, {"time": 4737, "pitch": 70, "duration": 9, "velocity": 84}, {"time": 4743, "pitch": 53, "duration": 2, "velocity": 82}, {"time": 4743, "pitch": 58, "duration": 1, "velocity": 70}, {"time": 4749, "pitch": 65, "duration": 4, "velocity": 81}, {"time": 4755, "pitch": 43, "duration": 21, "velocity": 99}, {"time": 4755, "pitch": 55, "duration": 2, "velocity": 72}, {"time": 4755, "pitch": 62, "duration": 7, "velocity": 84}, {"time": 4755, "pitch": 65, "duration": 8, "velocity": 90}, {"time": 4755, "pitch": 70, "duration": 7, "velocity": 81}, {"time": 4761, "pitch": 55, "duration": 7, "velocity": 86}, {"time": 4767, "pitch": 62, "duration": 5, "velocity": 91}, {"time": 4767, "pitch": 65, "duration": 5, "velocity": 90}, {"time": 4767, "pitch": 70, "duration": 8, "velocity": 84}, {"time": 4773, "pitch": 55, "duration": 3, "velocity": 93}, {"time": 4779, "pitch": 48, "duration": 16, "velocity": 86}, {"time": 4779, "pitch": 60, "duration": 8, "velocity": 84}, {"time": 4779, "pitch": 63, "duration": 8, "velocity": 94}, {"time": 4779, "pitch": 67, "duration": 8, "velocity": 90}, {"time": 4791, "pitch": 60, "duration": 6, "velocity": 84}, {"time": 4791, "pitch": 63, "duration": 5, "velocity": 94}, {"time": 4791, "pitch": 67, "duration": 8, "velocity": 84}, {"time": 4797, "pitch": 48, "duration": 3, "velocity": 83}, {"time": 4797, "pitch": 63, "duration": 2, "velocity": 14}, {"time": 4803, "pitch": 46, "duration": 41, "velocity": 93}, {"time": 4803, "pitch": 62, "duration": 10, "velocity": 91}, {"time": 4803, "pitch": 65, "duration": 12, "velocity": 86}, {"time": 4803, "pitch": 70, "duration": 10, "velocity": 90}, {"time": 4809, "pitch": 53, "duration": 26, "velocity": 84}, {"time": 4815, "pitch": 58, "duration": 10, "velocity": 86}, {"time": 4821, "pitch": 62, "duration": 12, "velocity": 84}, {"time": 4821, "pitch": 65, "duration": 14, "velocity": 93}, {"time": 4821, "pitch": 70, "duration": 13, "velocity": 86}, {"time": 4833, "pitch": 58, "duration": 9, "velocity": 75}, {"time": 4839, "pitch": 62, "duration": 4, "velocity": 91}, {"time": 4839, "pitch": 65, "duration": 4, "velocity": 90}, {"time": 4839, "pitch": 70, "duration": 4, "velocity": 86}, {"time": 4842, "pitch": 53, "duration": 2, "velocity": 84}, {"time": 4851, "pitch": 43, "duration": 9, "velocity": 95}, {"time": 4851, "pitch": 55, "duration": 5, "velocity": 94}, {"time": 4851, "pitch": 58, "duration": 8, "velocity": 80}, {"time": 4851, "pitch": 62, "duration": 7, "velocity": 82}, {"time": 4851, "pitch": 65, "duration": 8, "velocity": 84}, {"time": 4851, "pitch": 70, "duration": 7, "velocity": 78}, {"time": 4863, "pitch": 43, "duration": 5, "velocity": 93}, {"time": 4863, "pitch": 55, "duration": 6, "velocity": 90}, {"time": 4863, "pitch": 58, "duration": 6, "velocity": 86}, {"time": 4863, "pitch": 62, "duration": 5, "velocity": 84}, {"time": 4863, "pitch": 65, "duration": 6, "velocity": 90}, {"time": 4863, "pitch": 70, "duration": 4, "velocity": 69}, {"time": 4875, "pitch": 48, "duration": 23, "velocity": 91}, {"time": 4875, "pitch": 60, "duration": 23, "velocity": 90}, {"time": 4875, "pitch": 63, "duration": 23, "velocity": 100}, {"time": 4875, "pitch": 67, "duration": 23, "velocity": 90}, {"time": 4899, "pitch": 48, "duration": 42, "velocity": 72}, {"time": 4899, "pitch": 67, "duration": 13, "velocity": 82}, {"time": 4905, "pitch": 55, "duration": 27, "velocity": 71}, {"time": 4911, "pitch": 60, "duration": 30, "velocity": 71}, {"time": 4929, "pitch": 63, "duration": 4, "velocity": 84}, {"time": 4929, "pitch": 72, "duration": 7, "velocity": 86}, {"time": 4935, "pitch": 55, "duration": 10, "velocity": 58}, {"time": 4941, "pitch": 62, "duration": 18, "velocity": 79}, {"time": 4941, "pitch": 70, "duration": 20, "velocity": 82}, {"time": 4947, "pitch": 48, "duration": 36, "velocity": 73}, {"time": 4953, "pitch": 55, "duration": 20, "velocity": 68}, {"time": 4959, "pitch": 60, "duration": 22, "velocity": 52}, {"time": 4965, "pitch": 63, "duration": 13, "velocity": 82}, {"time": 4965, "pitch": 67, "duration": 14, "velocity": 77}, {"time": 4977, "pitch": 55, "duration": 8, "velocity": 71}, {"time": 4983, "pitch": 62, "duration": 7, "velocity": 80}, {"time": 4983, "pitch": 70, "duration": 7, "velocity": 80}, {"time": 4989, "pitch": 46, "duration": 3, "velocity": 79}, {"time": 4995, "pitch": 44, "duration": 32, "velocity": 83}, {"time": 4995, "pitch": 60, "duration": 14, "velocity": 76}, {"time": 4995, "pitch": 63, "duration": 14, "velocity": 84}, {"time": 4995, "pitch": 67, "duration": 16, "velocity": 80}, {"time": 5001, "pitch": 51, "duration": 26, "velocity": 72}, {"time": 5007, "pitch": 56, "duration": 10, "velocity": 63}, {"time": 5013, "pitch": 60, "duration": 11, "velocity": 72}, {"time": 5013, "pitch": 63, "duration": 10, "velocity": 80}, {"time": 5013, "pitch": 68, "duration": 10, "velocity": 82}, {"time": 5019, "pitch": 46, "duration": 11, "velocity": 82}, {"time": 5031, "pitch": 62, "duration": 7, "velocity": 80}, {"time": 5031, "pitch": 65, "duration": 8, "velocity": 82}, {"time": 5031, "pitch": 70, "duration": 9, "velocity": 75}, {"time": 5037, "pitch": 67, "duration": 3, "velocity": 58}, {"time": 5043, "pitch": 51, "duration": 37, "velocity": 80}, {"time": 5043, "pitch": 58, "duration": 10, "velocity": 75}, {"time": 5043, "pitch": 63, "duration": 12, "velocity": 84}, {"time": 5043, "pitch": 67, "duration": 12, "velocity": 78}, {"time": 5055, "pitch": 58, "duration": 4, "velocity": 39}, {"time": 5061, "pitch": 58, "duration": 9, "velocity": 62}, {"time": 5061, "pitch": 65, "duration": 11, "velocity": 84}, {"time": 5073, "pitch": 58, "duration": 8, "velocity": 73}, {"time": 5073, "pitch": 67, "duration": 11, "velocity": 86}, {"time": 5085, "pitch": 70, "duration": 3, "velocity": 73}, {"time": 5091, "pitch": 53, "duration": 39, "velocity": 80}, {"time": 5091, "pitch": 63, "duration": 6, "velocity": 84}, {"time": 5091, "pitch": 68, "duration": 8, "velocity": 79}, {"time": 5097, "pitch": 60, "duration": 24, "velocity": 61}, {"time": 5103, "pitch": 65, "duration": 20, "velocity": 70}, {"time": 5109, "pitch": 68, "duration": 9, "velocity": 75}, {"time": 5109, "pitch": 77, "duration": 11, "velocity": 86}, {"time": 5121, "pitch": 68, "duration": 8, "velocity": 78}, {"time": 5121, "pitch": 75, "duration": 9, "velocity": 84}, {"time": 5121, "pitch": 77, "duration": 2, "velocity": 42}, {"time": 5127, "pitch": 60, "duration": 4, "velocity": 72}, {"time": 5139, "pitch": 43, "duration": 6, "velocity": 84}, {"time": 5139, "pitch": 67, "duration": 21, "velocity": 80}, {"time": 5139, "pitch": 70, "duration": 21, "velocity": 82}, {"time": 5139, "pitch": 74, "duration": 20, "velocity": 86}, {"time": 5145, "pitch": 55, "duration": 7, "velocity": 69}, {"time": 5151, "pitch": 58, "duration": 22, "velocity": 75}, {"time": 5157, "pitch": 62, "duration": 13, "velocity": 83}, {"time": 5163, "pitch": 67, "duration": 8, "velocity": 72}, {"time": 5169, "pitch": 70, "duration": 9, "velocity": 84}, {"time": 5175, "pitch": 72, "duration": 8, "velocity": 79}, {"time": 5181, "pitch": 75, "duration": 8, "velocity": 84}, {"time": 5187, "pitch": 44, "duration": 16, "velocity": 83}, {"time": 5187, "pitch": 56, "duration": 7, "velocity": 78}, {"time": 5187, "pitch": 63, "duration": 14, "velocity": 83}, {"time": 5187, "pitch": 68, "duration": 15, "velocity": 83}, {"time": 5187, "pitch": 72, "duration": 14, "velocity": 79}, {"time": 5199, "pitch": 56, "duration": 3, "velocity": 79}, {"time": 5205, "pitch": 63, "duration": 2, "velocity": 52}, {"time": 5211, "pitch": 41, "duration": 19, "velocity": 86}, {"time": 5211, "pitch": 53, "duration": 6, "velocity": 79}, {"time": 5211, "pitch": 65, "duration": 15, "velocity": 80}, {"time": 5211, "pitch": 68, "duration": 21, "velocity": 82}, {"time": 5211, "pitch": 72, "duration": 17, "velocity": 82}, {"time": 5223, "pitch": 53, "duration": 9, "velocity": 79}, {"time": 5235, "pitch": 43, "duration": 5, "velocity": 93}, {"time": 5235, "pitch": 55, "duration": 5, "velocity": 80}, {"time": 5235, "pitch": 67, "duration": 5, "velocity": 83}, {"time": 5235, "pitch": 71, "duration": 5, "velocity": 84}, {"time": 5235, "pitch": 74, "duration": 5, "velocity": 94}, {"time": 5247, "pitch": 43, "duration": 30, "velocity": 83}, {"time": 5247, "pitch": 55, "duration": 29, "velocity": 86}, {"time": 5247, "pitch": 67, "duration": 28, "velocity": 86}, {"time": 5247, "pitch": 71, "duration": 29, "velocity": 84}, {"time": 5247, "pitch": 74, "duration": 29, "velocity": 94}, {"time": 5283, "pitch": 48, "duration": 101, "velocity": 82}, {"time": 5283, "pitch": 60, "duration": 100, "velocity": 78}, {"time": 5283, "pitch": 63, "duration": 100, "velocity": 84}, {"time": 5283, "pitch": 67, "duration": 102, "velocity": 81}, {"time": 5283, "pitch": 72, "duration": 102, "velocity": 81}], "annotations": [{"time": 55, "annotation": {"number": 64, "value": 127}, "group": "control_change"}, {"time": 149, "annotation": {"number": 64, "value": 0}, "group": "control_change"}, {"time": 156, "annotation": {"number": 64, "value": 127}, "group": "control_change"}, {"time": 182, "annotation": {"number": 64, "value": 0}, "group": "control_change"}, {"time": 188, "annotation": {"number": 64, "value": 127}, "group": "control_change"}, {"time": 197, "annotation": {"number": 64, "value": 0}, "group": "control_change"}, {"time": 206, "annotation": {"number": 64, "value": 127}, "group": "control_change"}, {"time": 243, "annotation": {"number": 64, "value": 0}, "group": "control_change"}, {"time": 249, "annotation": {"number": 64, "value": 127}, "group": "control_change"}, {"time": 291, "annotation": {"number": 64, "value": 0}, "group": "control_change"}, {"time": 294, "annotation": {"number": 64, "value": 127}, "group": "control_change"}, {"time": 340, "annotation": {"number": 64, "value": 0}, "group": "control_change"}, {"time": 347, "annotation": {"number": 64, "value": 127}, "group": "control_change"}, {"time": 363, "annotation": {"number": 64, "value": 0}, "group": "control_change"}, {"time": 376, "annotation": {"number": 64, "value": 127}, "group": "control_change"}, {"time": 383, "annotation": {"number": 64, "value": 0}, "group": "control_change"}, {"time": 435, "annotation": {"number": 64, "value": 127}, "group": "control_change"}, {"time": 481, "annotation": {"number": 64, "value": 0}, "group": "control_change"}, {"time": 485, "annotation": {"number": 64, "value": 127}, "group": "control_change"}, {"time": 530, "annotation": {"number": 64, "value": 0}, "group": "control_change"}, {"time": 533, "annotation": {"number": 64, "value": 127}, "group": "control_change"}, {"time": 556, "annotation": {"number": 64, "value": 0}, "group": "control_change"}, {"time": 559, "annotation": {"number": 64, "value": 127}, "group": "control_change"}, {"time": 581, "annotation": {"number": 64, "value": 0}, "group": "control_change"}, {"time": 584, "annotation": {"number": 64, "value": 127}, "group": "control_change"}, {"time": 626, "annotation": {"number": 64, "value": 0}, "group": "control_change"}, {"time": 630, "annotation": {"number": 64, "value": 127}, "group": "control_change"}, {"time": 675, "annotation": {"number": 64, "value": 0}, "group": "control_change"}, {"time": 677, "annotation": {"number": 64, "value": 127}, "group": "control_change"}, {"time": 725, "annotation": {"number": 64, "value": 0}, "group": "control_change"}, {"time": 729, "annotation": {"number": 64, "value": 127}, "group": "control_change"}, {"time": 771, "annotation": {"number": 64, "value": 0}, "group": "control_change"}, {"time": 773, "annotation": {"number": 64, "value": 127}, "group": "control_change"}, {"time": 794, "annotation": {"number": 64, "value": 0}, "group": "control_change"}, {"time": 797, "annotation": {"number": 64, "value": 127}, "group": "control_change"}, {"time": 820, "annotation": {"number": 64, "value": 0}, "group": "control_change"}, {"time": 831, "annotation": {"number": 64, "value": 127}, "group": "control_change"}, {"time": 840, "annotation": {"number": 64, "value": 0}, "group": "control_change"}, {"time": 846, "annotation": {"number": 64, "value": 127}, "group": "control_change"}, {"time": 867, "annotation": {"number": 64, "value": 0}, "group": "control_change"}, {"time": 870, "annotation": {"number": 64, "value": 105}, "group": "control_change"}, {"time": 965, "annotation": {"number": 64, "value": 0}, "group": "control_change"}, {"time": 969, "annotation": {"number": 64, "value": 127}, "group": "control_change"}, {"time": 1010, "annotation": {"number": 64, "value": 0}, "group": "control_change"}, {"time": 1013, "annotation": {"number": 64, "value": 127}, "group": "control_change"}, {"time": 1061, "annotation": {"number": 64, "value": 0}, "group": "control_change"}, {"time": 1066, "annotation": {"number": 64, "value": 127}, "group": "control_change"}, {"time": 1107, "annotation": {"number": 64, "value": 0}, "group": "control_change"}, {"time": 1107, "annotation": {"number": 64, "value": 127}, "group": "control_change"}, {"time": 1155, "annotation": {"number": 64, "value": 0}, "group": "control_change"}, {"time": 1156, "annotation": {"number": 64, "value": 127}, "group": "control_change"}, {"time": 1181, "annotation": {"number": 64, "value": 0}, "group": "control_change"}, {"time": 1185, "annotation": {"number": 64, "value": 127}, "group": "control_change"}, {"time": 1204, "annotation": {"number": 64, "value": 0}, "group": "control_change"}, {"time": 1208, "annotation": {"number": 64, "value": 127}, "group": "control_change"}, {"time": 1228, "annotation": {"number": 64, "value": 0}, "group": "control_change"}, {"time": 1233, "annotation": {"number": 64, "value": 127}, "group": "control_change"}, {"time": 1252, "annotation": {"number": 64, "value": 127}, "group": "control_change"}, {"time": 1268, "annotation": {"number": 64, "value": 0}, "group": "control_change"}, {"time": 1273, "annotation": {"number": 64, "value": 0}, "group": "control_change"}, {"time": 1274, "annotation": {"number": 64, "value": 127}, "group": "control_change"}, {"time": 1278, "annotation": {"number": 64, "value": 0}, "group": "control_change"}, {"time": 1302, "annotation": {"number": 64, "value": 127}, "group": "control_change"}, {"time": 1350, "annotation": {"number": 64, "value": 0}, "group": "control_change"}, {"time": 1357, "annotation": {"number": 64, "value": 127}, "group": "control_change"}, {"time": 1395, "annotation": {"number": 64, "value": 0}, "group": "control_change"}, {"time": 1398, "annotation": {"number": 64, "value": 127}, "group": "control_change"}, {"time": 1443, "annotation": {"number": 64, "value": 0}, "group": "control_change"}, {"time": 1452, "annotation": {"number": 64, "value": 127}, "group": "control_change"}, {"time": 1491, "annotation": {"number": 64, "value": 0}, "group": "control_change"}, {"time": 1495, "annotation": {"number": 64, "value": 127}, "group": "control_change"}, {"time": 1542, "annotation": {"number": 64, "value": 0}, "group": "control_change"}, {"time": 1550, "annotation": {"number": 64, "value": 127}, "group": "control_change"}, {"time": 1585, "annotation": {"number": 64, "value": 0}, "group": "control_change"}, {"time": 1590, "annotation": {"number": 64, "value": 127}, "group": "control_change"}, {"time": 1636, "annotation": {"number": 64, "value": 0}, "group": "control_change"}, {"time": 1645, "annotation": {"number": 64, "value": 127}, "group": "control_change"}, {"time": 1659, "annotation": {"number": 64, "value": 0}, "group": "control_change"}, {"time": 1668, "annotation": {"number": 64, "value": 127}, "group": "control_change"}, {"time": 1684, "annotation": {"number": 64, "value": 0}, "group": "control_change"}, {"time": 1685, "annotation": {"number": 64, "value": 127}, "group": "control_change"}, {"time": 1733, "annotation": {"number": 64, "value": 0}, "group": "control_change"}, {"time": 1738, "annotation": {"number": 64, "value": 127}, "group": "control_change"}, {"time": 1778, "annotation": {"number": 64, "value": 0}, "group": "control_change"}, {"time": 1784, "annotation": {"number": 64, "value": 127}, "group": "control_change"}, {"time": 1829, "annotation": {"number": 64, "value": 0}, "group": "control_change"}, {"time": 1834, "annotation": {"number": 64, "value": 127}, "group": "control_change"}, {"time": 1878, "annotation": {"number": 64, "value": 0}, "group": "control_change"}, {"time": 1884, "annotation": {"number": 64, "value": 127}, "group": "control_change"}, {"time": 1927, "annotation": {"number": 64, "value": 0}, "group": "control_change"}, {"time": 1932, "annotation": {"number": 64, "value": 127}, "group": "control_change"}, {"time": 1971, "annotation": {"number": 64, "value": 0}, "group": "control_change"}, {"time": 1974, "annotation": {"number": 64, "value": 127}, "group": "control_change"}, {"time": 2018, "annotation": {"number": 64, "value": 0}, "group": "control_change"}, {"time": 2023, "annotation": {"number": 64, "value": 127}, "group": "control_change"}, {"time": 2041, "annotation": {"number": 64, "value": 0}, "group": "control_change"}, {"time": 2047, "annotation": {"number": 64, "value": 127}, "group": "control_change"}, {"time": 2062, "annotation": {"number": 64, "value": 0}, "group": "control_change"}, {"time": 2068, "annotation": {"number": 64, "value": 127}, "group": "control_change"}, {"time": 2084, "annotation": {"number": 64, "value": 0}, "group": "control_change"}, {"time": 2090, "annotation": {"number": 64, "value": 127}, "group": "control_change"}, {"time": 2115, "annotation": {"number": 64, "value": 0}, "group": "control_change"}, {"time": 2120, "annotation": {"number": 64, "value": 127}, "group": "control_change"}, {"time": 2163, "annotation": {"number": 64, "value": 0}, "group": "control_change"}, {"time": 2168, "annotation": {"number": 64, "value": 127}, "group": "control_change"}, {"time": 2210, "annotation": {"number": 64, "value": 0}, "group": "control_change"}, {"time": 2215, "annotation": {"number": 64, "value": 127}, "group": "control_change"}, {"time": 2258, "annotation": {"number": 64, "value": 0}, "group": "control_change"}, {"time": 2264, "annotation": {"number": 64, "value": 127}, "group": "control_change"}, {"time": 2354, "annotation": {"number": 64, "value": 0}, "group": "control_change"}, {"time": 2360, "annotation": {"number": 64, "value": 127}, "group": "control_change"}, {"time": 2403, "annotation": {"number": 64, "value": 0}, "group": "control_change"}, {"time": 2408, "annotation": {"number": 64, "value": 127}, "group": "control_change"}, {"time": 2427, "annotation": {"number": 64, "value": 0}, "group": "control_change"}, {"time": 2434, "annotation": {"number": 64, "value": 127}, "group": "control_change"}, {"time": 2500, "annotation": {"number": 64, "value": 0}, "group": "control_change"}, {"time": 2505, "annotation": {"number": 64, "value": 127}, "group": "control_change"}, {"time": 2547, "annotation": {"number": 64, "value": 0}, "group": "control_change"}, {"time": 2550, "annotation": {"number": 64, "value": 127}, "group": "control_change"}, {"time": 2594, "annotation": {"number": 64, "value": 0}, "group": "control_change"}, {"time": 2599, "annotation": {"number": 64, "value": 127}, "group": "control_change"}, {"time": 2644, "annotation": {"number": 64, "value": 0}, "group": "control_change"}, {"time": 2650, "annotation": {"number": 64, "value": 127}, "group": "control_change"}, {"time": 2740, "annotation": {"number": 64, "value": 0}, "group": "control_change"}, {"time": 2746, "annotation": {"number": 64, "value": 127}, "group": "control_change"}, {"time": 2789, "annotation": {"number": 64, "value": 0}, "group": "control_change"}, {"time": 2795, "annotation": {"number": 64, "value": 127}, "group": "control_change"}, {"time": 2806, "annotation": {"number": 64, "value": 0}, "group": "control_change"}, {"time": 2835, "annotation": {"number": 64, "value": 0}, "group": "control_change"}, {"time": 2838, "annotation": {"number": 64, "value": 111}, "group": "control_change"}, {"time": 2933, "annotation": {"number": 64, "value": 0}, "group": "control_change"}, {"time": 2937, "annotation": {"number": 64, "value": 127}, "group": "control_change"}, {"time": 2978, "annotation": {"number": 64, "value": 0}, "group": "control_change"}, {"time": 2981, "annotation": {"number": 64, "value": 127}, "group": "control_change"}, {"time": 3029, "annotation": {"number": 64, "value": 0}, "group": "control_change"}, {"time": 3034, "annotation": {"number": 64, "value": 127}, "group": "control_change"}, {"time": 3075, "annotation": {"number": 64, "value": 0}, "group": "control_change"}, {"time": 3075, "annotation": {"number": 64, "value": 127}, "group": "control_change"}, {"time": 3123, "annotation": {"number": 64, "value": 0}, "group": "control_change"}, {"time": 3124, "annotation": {"number": 64, "value": 127}, "group": "control_change"}, {"time": 3149, "annotation": {"number": 64, "value": 0}, "group": "control_change"}, {"time": 3153, "annotation": {"number": 64, "value": 127}, "group": "control_change"}, {"time": 3172, "annotation": {"number": 64, "value": 0}, "group": "control_change"}, {"time": 3176, "annotation": {"number": 64, "value": 127}, "group": "control_change"}, {"time": 3196, "annotation": {"number": 64, "value": 0}, "group": "control_change"}, {"time": 3201, "annotation": {"number": 64, "value": 127}, "group": "control_change"}, {"time": 3220, "annotation": {"number": 64, "value": 127}, "group": "control_change"}, {"time": 3236, "annotation": {"number": 64, "value": 0}, "group": "control_change"}, {"time": 3241, "annotation": {"number": 64, "value": 0}, "group": "control_change"}, {"time": 3242, "annotation": {"number": 64, "value": 127}, "group": "control_change"}, {"time": 3246, "annotation": {"number": 64, "value": 0}, "group": "control_change"}, {"time": 3270, "annotation": {"number": 64, "value": 127}, "group": "control_change"}, {"time": 3318, "annotation": {"number": 64, "value": 0}, "group": "control_change"}, {"time": 3325, "annotation": {"number": 64, "value": 127}, "group": "control_change"}, {"time": 3363, "annotation": {"number": 64, "value": 0}, "group": "control_change"}, {"time": 3366, "annotation": {"number": 64, "value": 127}, "group": "control_change"}, {"time": 3411, "annotation": {"number": 64, "value": 0}, "group": "control_change"}, {"time": 3420, "annotation": {"number": 64, "value": 127}, "group": "control_change"}, {"time": 3459, "annotation": {"number": 64, "value": 0}, "group": "control_change"}, {"time": 3463, "annotation": {"number": 64, "value": 127}, "group": "control_change"}, {"time": 3510, "annotation": {"number": 64, "value": 0}, "group": "control_change"}, {"time": 3518, "annotation": {"number": 64, "value": 127}, "group": "control_change"}, {"time": 3553, "annotation": {"number": 64, "value": 0}, "group": "control_change"}, {"time": 3558, "annotation": {"number": 64, "value": 127}, "group": "control_change"}, {"time": 3604, "annotation": {"number": 64, "value": 0}, "group": "control_change"}, {"time": 3613, "annotation": {"number": 64, "value": 127}, "group": "control_change"}, {"time": 3627, "annotation": {"number": 64, "value": 0}, "group": "control_change"}, {"time": 3636, "annotation": {"number": 64, "value": 127}, "group": "control_change"}, {"time": 3652, "annotation": {"number": 64, "value": 0}, "group": "control_change"}, {"time": 3653, "annotation": {"number": 64, "value": 127}, "group": "control_change"}, {"time": 3701, "annotation": {"number": 64, "value": 0}, "group": "control_change"}, {"time": 3706, "annotation": {"number": 64, "value": 127}, "group": "control_change"}, {"time": 3746, "annotation": {"number": 64, "value": 0}, "group": "control_change"}, {"time": 3752, "annotation": {"number": 64, "value": 127}, "group": "control_change"}, {"time": 3797, "annotation": {"number": 64, "value": 0}, "group": "control_change"}, {"time": 3802, "annotation": {"number": 64, "value": 127}, "group": "control_change"}, {"time": 3846, "annotation": {"number": 64, "value": 0}, "group": "control_change"}, {"time": 3852, "annotation": {"number": 64, "value": 127}, "group": "control_change"}, {"time": 3895, "annotation": {"number": 64, "value": 0}, "group": "control_change"}, {"time": 3900, "annotation": {"number": 64, "value": 127}, "group": "control_change"}, {"time": 3937, "annotation": {"number": 64, "value": 127}, "group": "control_change"}, {"time": 3939, "annotation": {"number": 64, "value": 0}, "group": "control_change"}, {"time": 3985, "annotation": {"number": 64, "value": 0}, "group": "control_change"}, {"time": 3990, "annotation": {"number": 64, "value": 127}, "group": "control_change"}, {"time": 4009, "annotation": {"number": 64, "value": 0}, "group": "control_change"}, {"time": 4014, "annotation": {"number": 64, "value": 127}, "group": "control_change"}, {"time": 4035, "annotation": {"number": 64, "value": 0}, "group": "control_change"}, {"time": 4039, "annotation": {"number": 64, "value": 127}, "group": "control_change"}, {"time": 4083, "annotation": {"number": 64, "value": 0}, "group": "control_change"}, {"time": 4087, "annotation": {"number": 64, "value": 127}, "group": "control_change"}, {"time": 4130, "annotation": {"number": 64, "value": 0}, "group": "control_change"}, {"time": 4135, "annotation": {"number": 64, "value": 127}, "group": "control_change"}, {"time": 4179, "annotation": {"number": 64, "value": 0}, "group": "control_change"}, {"time": 4184, "annotation": {"number": 64, "value": 127}, "group": "control_change"}, {"time": 4227, "annotation": {"number": 64, "value": 127}, "group": "control_change"}, {"time": 4275, "annotation": {"number": 64, "value": 0}, "group": "control_change"}, {"time": 4281, "annotation": {"number": 64, "value": 127}, "group": "control_change"}, {"time": 4323, "annotation": {"number": 64, "value": 0}, "group": "control_change"}, {"time": 4330, "annotation": {"number": 64, "value": 127}, "group": "control_change"}, {"time": 4372, "annotation": {"number": 64, "value": 0}, "group": "control_change"}, {"time": 4376, "annotation": {"number": 64, "value": 127}, "group": "control_change"}, {"time": 4394, "annotation": {"number": 64, "value": 0}, "group": "control_change"}, {"time": 4400, "annotation": {"number": 64, "value": 127}, "group": "control_change"}, {"time": 4418, "annotation": {"number": 64, "value": 0}, "group": "control_change"}, {"time": 4423, "annotation": {"number": 64, "value": 127}, "group": "control_change"}, {"time": 4515, "annotation": {"number": 64, "value": 0}, "group": "control_change"}, {"time": 4525, "annotation": {"number": 64, "value": 127}, "group": "control_change"}, {"time": 4564, "annotation": {"number": 64, "value": 0}, "group": "control_change"}, {"time": 4571, "annotation": {"number": 64, "value": 127}, "group": "control_change"}, {"time": 4613, "annotation": {"number": 64, "value": 0}, "group": "control_change"}, {"time": 4620, "annotation": {"number": 64, "value": 127}, "group": "control_change"}, {"time": 4661, "annotation": {"number": 64, "value": 0}, "group": "control_change"}, {"time": 4668, "annotation": {"number": 64, "value": 127}, "group": "control_change"}, {"time": 4708, "annotation": {"number": 64, "value": 0}, "group": "control_change"}, {"time": 4716, "annotation": {"number": 64, "value": 127}, "group": "control_change"}, {"time": 4753, "annotation": {"number": 64, "value": 0}, "group": "control_change"}, {"time": 4761, "annotation": {"number": 64, "value": 127}, "group": "control_change"}, {"time": 4775, "annotation": {"number": 64, "value": 0}, "group": "control_change"}, {"time": 4783, "annotation": {"number": 64, "value": 127}, "group": "control_change"}, {"time": 4802, "annotation": {"number": 64, "value": 0}, "group": "control_change"}, {"time": 4809, "annotation": {"number": 64, "value": 127}, "group": "control_change"}, {"time": 4849, "annotation": {"number": 64, "value": 0}, "group": "control_change"}, {"time": 4854, "annotation": {"number": 64, "value": 127}, "group": "control_change"}, {"time": 4873, "annotation": {"number": 64, "value": 0}, "group": "control_change"}, {"time": 4880, "annotation": {"number": 64, "value": 127}, "group": "control_change"}, {"time": 4899, "annotation": {"number": 64, "value": 0}, "group": "control_change"}, {"time": 4903, "annotation": {"number": 64, "value": 127}, "group": "control_change"}, {"time": 4997, "annotation": {"number": 64, "value": 0}, "group": "control_change"}, {"time": 5004, "annotation": {"number": 64, "value": 127}, "group": "control_change"}, {"time": 5030, "annotation": {"number": 64, "value": 0}, "group": "control_change"}, {"time": 5036, "annotation": {"number": 64, "value": 127}, "group": "control_change"}, {"time": 5045, "annotation": {"number": 64, "value": 0}, "group": "control_change"}, {"time": 5054, "annotation": {"number": 64, "value": 127}, "group": "control_change"}, {"time": 5091, "annotation": {"number": 64, "value": 0}, "group": "control_change"}, {"time": 5097, "annotation": {"number": 64, "value": 127}, "group": "control_change"}, {"time": 5139, "annotation": {"number": 64, "value": 0}, "group": "control_change"}, {"time": 5142, "annotation": {"number": 64, "value": 127}, "group": "control_change"}, {"time": 5188, "annotation": {"number": 64, "value": 0}, "group": "control_change"}, {"time": 5195, "annotation": {"number": 64, "value": 127}, "group": "control_change"}, {"time": 5211, "annotation": {"number": 64, "value": 0}, "group": "control_change"}, {"time": 5224, "annotation": {"number": 64, "value": 127}, "group": "control_change"}, {"time": 5231, "annotation": {"number": 64, "value": 0}, "group": "control_change"}, {"time": 5283, "annotation": {"number": 64, "value": 127}, "group": "control_change"}, {"time": 5384, "annotation": {"number": 64, "value": 0}, "group": "control_change"}]}]}