{"metadata": {"schema_version": "0.2", "title": "None", "source_filename": "250.mid", "source_format": "midi"}, "resolution": 12, "tempos": [{"time": 0, "qpm": 126.000126000126}], "time_signatures": [{"time": 0, "numerator": 4, "denominator": 4}], "tracks": [{"program": 0, "is_drum": false, "name": "MELODY", "notes": [{"time": 869, "pitch": 69, "duration": 12, "velocity": 39}, {"time": 881, "pitch": 69, "duration": 6, "velocity": 62}, {"time": 887, "pitch": 69, "duration": 18, "velocity": 55}, {"time": 905, "pitch": 69, "duration": 12, "velocity": 72}, {"time": 917, "pitch": 71, "duration": 18, "velocity": 90}, {"time": 935, "pitch": 69, "duration": 18, "velocity": 84}, {"time": 953, "pitch": 71, "duration": 12, "velocity": 93}, {"time": 965, "pitch": 74, "duration": 48, "velocity": 98}, {"time": 1013, "pitch": 78, "duration": 48, "velocity": 93}, {"time": 1061, "pitch": 76, "duration": 12, "velocity": 90}, {"time": 1073, "pitch": 76, "duration": 12, "velocity": 87}, {"time": 1085, "pitch": 76, "duration": 12, "velocity": 90}, {"time": 1097, "pitch": 76, "duration": 6, "velocity": 83}, {"time": 1103, "pitch": 74, "duration": 6, "velocity": 68}, {"time": 1109, "pitch": 78, "duration": 13, "velocity": 97}, {"time": 1121, "pitch": 74, "duration": 24, "velocity": 87}, {"time": 1145, "pitch": 71, "duration": 12, "velocity": 95}, {"time": 1157, "pitch": 69, "duration": 96, "velocity": 97}, {"time": 1253, "pitch": 71, "duration": 12, "velocity": 97}, {"time": 1265, "pitch": 71, "duration": 6, "velocity": 91}, {"time": 1271, "pitch": 71, "duration": 18, "velocity": 93}, {"time": 1289, "pitch": 69, "duration": 6, "velocity": 92}, {"time": 1295, "pitch": 71, "duration": 12, "velocity": 101}, {"time": 1307, "pitch": 74, "duration": 30, "velocity": 66}, {"time": 1337, "pitch": 83, "duration": 12, "velocity": 97}, {"time": 1349, "pitch": 81, "duration": 36, "velocity": 98}, {"time": 1385, "pitch": 83, "duration": 12, "velocity": 99}, {"time": 1397, "pitch": 78, "duration": 24, "velocity": 91}, {"time": 1421, "pitch": 78, "duration": 6, "velocity": 83}, {"time": 1427, "pitch": 78, "duration": 12, "velocity": 73}, {"time": 1439, "pitch": 74, "duration": 6, "velocity": 71}, {"time": 1445, "pitch": 76, "duration": 6, "velocity": 73}, {"time": 1451, "pitch": 71, "duration": 6, "velocity": 63}, {"time": 1457, "pitch": 71, "duration": 6, "velocity": 71}, {"time": 1463, "pitch": 71, "duration": 6, "velocity": 69}, {"time": 1469, "pitch": 71, "duration": 6, "velocity": 68}, {"time": 1475, "pitch": 74, "duration": 12, "velocity": 86}, {"time": 1487, "pitch": 74, "duration": 42, "velocity": 93}, {"time": 1529, "pitch": 71, "duration": 24, "velocity": 99}, {"time": 1553, "pitch": 76, "duration": 60, "velocity": 101}, {"time": 1613, "pitch": 78, "duration": 12, "velocity": 99}, {"time": 1625, "pitch": 76, "duration": 12, "velocity": 100}, {"time": 1637, "pitch": 74, "duration": 36, "velocity": 97}, {"time": 1673, "pitch": 81, "duration": 12, "velocity": 105}, {"time": 1685, "pitch": 81, "duration": 36, "velocity": 106}, {"time": 1721, "pitch": 74, "duration": 7, "velocity": 96}, {"time": 1727, "pitch": 76, "duration": 6, "velocity": 98}, {"time": 1733, "pitch": 78, "duration": 36, "velocity": 103}, {"time": 1769, "pitch": 83, "duration": 12, "velocity": 103}, {"time": 1781, "pitch": 83, "duration": 24, "velocity": 105}, {"time": 1805, "pitch": 78, "duration": 12, "velocity": 93}, {"time": 1817, "pitch": 78, "duration": 12, "velocity": 85}, {"time": 1829, "pitch": 76, "duration": 6, "velocity": 64}, {"time": 1835, "pitch": 74, "duration": 12, "velocity": 64}, {"time": 1847, "pitch": 74, "duration": 6, "velocity": 84}, {"time": 1853, "pitch": 74, "duration": 12, "velocity": 64}, {"time": 1865, "pitch": 71, "duration": 13, "velocity": 61}, {"time": 1877, "pitch": 76, "duration": 13, "velocity": 66}, {"time": 1889, "pitch": 74, "duration": 12, "velocity": 61}, {"time": 1901, "pitch": 74, "duration": 12, "velocity": 67}, {"time": 1913, "pitch": 71, "duration": 12, "velocity": 62}, {"time": 1925, "pitch": 69, "duration": 72, "velocity": 65}, {"time": 1997, "pitch": 78, "duration": 12, "velocity": 99}, {"time": 2009, "pitch": 76, "duration": 12, "velocity": 99}, {"time": 2021, "pitch": 74, "duration": 36, "velocity": 93}, {"time": 2057, "pitch": 81, "duration": 12, "velocity": 105}, {"time": 2069, "pitch": 81, "duration": 33, "velocity": 98}, {"time": 2102, "pitch": 74, "duration": 9, "velocity": 87}, {"time": 2111, "pitch": 76, "duration": 6, "velocity": 82}, {"time": 2117, "pitch": 78, "duration": 36, "velocity": 94}, {"time": 2153, "pitch": 83, "duration": 12, "velocity": 97}, {"time": 2165, "pitch": 83, "duration": 24, "velocity": 105}, {"time": 2189, "pitch": 78, "duration": 12, "velocity": 90}, {"time": 2201, "pitch": 78, "duration": 14, "velocity": 84}, {"time": 2213, "pitch": 76, "duration": 7, "velocity": 87}, {"time": 2219, "pitch": 74, "duration": 12, "velocity": 83}, {"time": 2231, "pitch": 74, "duration": 6, "velocity": 89}, {"time": 2237, "pitch": 74, "duration": 12, "velocity": 79}, {"time": 2249, "pitch": 71, "duration": 13, "velocity": 76}, {"time": 2261, "pitch": 76, "duration": 18, "velocity": 95}, {"time": 2279, "pitch": 74, "duration": 6, "velocity": 95}, {"time": 2285, "pitch": 74, "duration": 12, "velocity": 91}, {"time": 2297, "pitch": 71, "duration": 25, "velocity": 91}, {"time": 2321, "pitch": 74, "duration": 84, "velocity": 76}, {"time": 2405, "pitch": 69, "duration": 12, "velocity": 93}, {"time": 2417, "pitch": 69, "duration": 6, "velocity": 91}, {"time": 2423, "pitch": 69, "duration": 18, "velocity": 96}, {"time": 2441, "pitch": 69, "duration": 12, "velocity": 89}, {"time": 2453, "pitch": 71, "duration": 15, "velocity": 93}, {"time": 2471, "pitch": 69, "duration": 21, "velocity": 87}, {"time": 2489, "pitch": 71, "duration": 12, "velocity": 57}, {"time": 2501, "pitch": 74, "duration": 48, "velocity": 81}, {"time": 2549, "pitch": 78, "duration": 51, "velocity": 68}, {"time": 2597, "pitch": 76, "duration": 12, "velocity": 97}, {"time": 2609, "pitch": 76, "duration": 6, "velocity": 85}, {"time": 2615, "pitch": 76, "duration": 6, "velocity": 84}, {"time": 2621, "pitch": 76, "duration": 9, "velocity": 93}, {"time": 2633, "pitch": 74, "duration": 12, "velocity": 72}, {"time": 2645, "pitch": 78, "duration": 18, "velocity": 98}, {"time": 2663, "pitch": 74, "duration": 18, "velocity": 98}, {"time": 2681, "pitch": 71, "duration": 12, "velocity": 99}, {"time": 2693, "pitch": 69, "duration": 96, "velocity": 97}, {"time": 2789, "pitch": 71, "duration": 12, "velocity": 98}, {"time": 2801, "pitch": 71, "duration": 6, "velocity": 97}, {"time": 2807, "pitch": 71, "duration": 18, "velocity": 95}, {"time": 2825, "pitch": 69, "duration": 6, "velocity": 98}, {"time": 2831, "pitch": 71, "duration": 12, "velocity": 98}, {"time": 2843, "pitch": 74, "duration": 30, "velocity": 95}, {"time": 2873, "pitch": 83, "duration": 12, "velocity": 97}, {"time": 2885, "pitch": 81, "duration": 36, "velocity": 97}, {"time": 2921, "pitch": 83, "duration": 12, "velocity": 101}, {"time": 2933, "pitch": 78, "duration": 24, "velocity": 98}, {"time": 2957, "pitch": 78, "duration": 6, "velocity": 93}, {"time": 2963, "pitch": 78, "duration": 12, "velocity": 79}, {"time": 2975, "pitch": 74, "duration": 6, "velocity": 79}, {"time": 2981, "pitch": 76, "duration": 6, "velocity": 91}, {"time": 2987, "pitch": 71, "duration": 6, "velocity": 84}, {"time": 2993, "pitch": 71, "duration": 6, "velocity": 80}, {"time": 2999, "pitch": 71, "duration": 6, "velocity": 80}, {"time": 3005, "pitch": 71, "duration": 9, "velocity": 90}, {"time": 3014, "pitch": 74, "duration": 9, "velocity": 94}, {"time": 3023, "pitch": 74, "duration": 42, "velocity": 73}, {"time": 3065, "pitch": 78, "duration": 12, "velocity": 101}, {"time": 3077, "pitch": 76, "duration": 72, "velocity": 83}, {"time": 3149, "pitch": 78, "duration": 12, "velocity": 91}, {"time": 3161, "pitch": 76, "duration": 12, "velocity": 92}, {"time": 3173, "pitch": 74, "duration": 36, "velocity": 98}, {"time": 3209, "pitch": 81, "duration": 12, "velocity": 90}, {"time": 3221, "pitch": 81, "duration": 36, "velocity": 85}, {"time": 3257, "pitch": 74, "duration": 7, "velocity": 81}, {"time": 3263, "pitch": 76, "duration": 7, "velocity": 79}, {"time": 3269, "pitch": 78, "duration": 38, "velocity": 93}, {"time": 3305, "pitch": 83, "duration": 12, "velocity": 93}, {"time": 3317, "pitch": 83, "duration": 24, "velocity": 96}, {"time": 3341, "pitch": 78, "duration": 12, "velocity": 96}, {"time": 3353, "pitch": 78, "duration": 12, "velocity": 94}, {"time": 3365, "pitch": 76, "duration": 6, "velocity": 84}, {"time": 3371, "pitch": 74, "duration": 12, "velocity": 82}, {"time": 3383, "pitch": 74, "duration": 6, "velocity": 72}, {"time": 3389, "pitch": 74, "duration": 12, "velocity": 90}, {"time": 3401, "pitch": 71, "duration": 12, "velocity": 89}, {"time": 3413, "pitch": 76, "duration": 18, "velocity": 88}, {"time": 3431, "pitch": 74, "duration": 6, "velocity": 100}, {"time": 3437, "pitch": 74, "duration": 12, "velocity": 96}, {"time": 3449, "pitch": 71, "duration": 25, "velocity": 91}, {"time": 3473, "pitch": 74, "duration": 84, "velocity": 101}, {"time": 3557, "pitch": 78, "duration": 12, "velocity": 103}, {"time": 3569, "pitch": 69, "duration": 12, "velocity": 90}, {"time": 3581, "pitch": 74, "duration": 12, "velocity": 98}, {"time": 3593, "pitch": 78, "duration": 12, "velocity": 105}, {"time": 3605, "pitch": 76, "duration": 24, "velocity": 101}, {"time": 3629, "pitch": 81, "duration": 12, "velocity": 101}, {"time": 3641, "pitch": 76, "duration": 13, "velocity": 90}, {"time": 3653, "pitch": 74, "duration": 12, "velocity": 100}, {"time": 3665, "pitch": 66, "duration": 13, "velocity": 87}, {"time": 3677, "pitch": 71, "duration": 6, "velocity": 96}, {"time": 3683, "pitch": 74, "duration": 18, "velocity": 93}, {"time": 3701, "pitch": 73, "duration": 48, "velocity": 90}, {"time": 3749, "pitch": 71, "duration": 12, "velocity": 87}, {"time": 3761, "pitch": 74, "duration": 12, "velocity": 62}, {"time": 3773, "pitch": 74, "duration": 12, "velocity": 77}, {"time": 3785, "pitch": 83, "duration": 12, "velocity": 84}, {"time": 3797, "pitch": 81, "duration": 25, "velocity": 94}, {"time": 3821, "pitch": 83, "duration": 30, "velocity": 87}, {"time": 3845, "pitch": 74, "duration": 15, "velocity": 85}, {"time": 3863, "pitch": 78, "duration": 75, "velocity": 98}, {"time": 3941, "pitch": 78, "duration": 12, "velocity": 100}, {"time": 3953, "pitch": 69, "duration": 12, "velocity": 93}, {"time": 3965, "pitch": 74, "duration": 12, "velocity": 103}, {"time": 3977, "pitch": 78, "duration": 12, "velocity": 95}, {"time": 3989, "pitch": 76, "duration": 24, "velocity": 101}, {"time": 4013, "pitch": 81, "duration": 12, "velocity": 85}, {"time": 4025, "pitch": 81, "duration": 13, "velocity": 91}, {"time": 4037, "pitch": 83, "duration": 36, "velocity": 100}, {"time": 4073, "pitch": 78, "duration": 6, "velocity": 97}, {"time": 4079, "pitch": 76, "duration": 6, "velocity": 82}, {"time": 4085, "pitch": 78, "duration": 36, "velocity": 101}, {"time": 4121, "pitch": 78, "duration": 12, "velocity": 103}, {"time": 4133, "pitch": 76, "duration": 18, "velocity": 100}, {"time": 4151, "pitch": 76, "duration": 6, "velocity": 97}, {"time": 4157, "pitch": 76, "duration": 12, "velocity": 94}, {"time": 4169, "pitch": 76, "duration": 12, "velocity": 90}, {"time": 4181, "pitch": 78, "duration": 13, "velocity": 100}, {"time": 4193, "pitch": 76, "duration": 24, "velocity": 100}, {"time": 4217, "pitch": 74, "duration": 24, "velocity": 99}, {"time": 4241, "pitch": 76, "duration": 84, "velocity": 106}, {"time": 4325, "pitch": 78, "duration": 12, "velocity": 103}, {"time": 4337, "pitch": 69, "duration": 12, "velocity": 87}, {"time": 4349, "pitch": 74, "duration": 12, "velocity": 99}, {"time": 4361, "pitch": 78, "duration": 12, "velocity": 91}, {"time": 4373, "pitch": 76, "duration": 24, "velocity": 99}, {"time": 4397, "pitch": 81, "duration": 13, "velocity": 100}, {"time": 4409, "pitch": 76, "duration": 12, "velocity": 99}, {"time": 4421, "pitch": 74, "duration": 12, "velocity": 95}, {"time": 4433, "pitch": 66, "duration": 12, "velocity": 90}, {"time": 4445, "pitch": 71, "duration": 6, "velocity": 90}, {"time": 4451, "pitch": 74, "duration": 19, "velocity": 96}, {"time": 4469, "pitch": 73, "duration": 48, "velocity": 106}, {"time": 4517, "pitch": 71, "duration": 12, "velocity": 97}, {"time": 4529, "pitch": 74, "duration": 12, "velocity": 103}, {"time": 4541, "pitch": 74, "duration": 12, "velocity": 94}, {"time": 4553, "pitch": 83, "duration": 12, "velocity": 95}, {"time": 4565, "pitch": 81, "duration": 25, "velocity": 100}, {"time": 4589, "pitch": 83, "duration": 25, "velocity": 103}, {"time": 4613, "pitch": 74, "duration": 18, "velocity": 92}, {"time": 4631, "pitch": 78, "duration": 33, "velocity": 97}, {"time": 4667, "pitch": 76, "duration": 6, "velocity": 56}, {"time": 4673, "pitch": 74, "duration": 36, "velocity": 62}, {"time": 4709, "pitch": 78, "duration": 12, "velocity": 101}, {"time": 4721, "pitch": 69, "duration": 12, "velocity": 84}, {"time": 4733, "pitch": 74, "duration": 12, "velocity": 103}, {"time": 4745, "pitch": 78, "duration": 12, "velocity": 109}, {"time": 4757, "pitch": 76, "duration": 24, "velocity": 106}, {"time": 4781, "pitch": 81, "duration": 12, "velocity": 100}, {"time": 4793, "pitch": 81, "duration": 13, "velocity": 94}, {"time": 4805, "pitch": 83, "duration": 36, "velocity": 106}, {"time": 4841, "pitch": 78, "duration": 6, "velocity": 97}, {"time": 4847, "pitch": 76, "duration": 7, "velocity": 91}, {"time": 4853, "pitch": 78, "duration": 36, "velocity": 105}, {"time": 4889, "pitch": 78, "duration": 12, "velocity": 90}, {"time": 4901, "pitch": 76, "duration": 24, "velocity": 96}, {"time": 4925, "pitch": 76, "duration": 12, "velocity": 91}, {"time": 4937, "pitch": 76, "duration": 6, "velocity": 72}, {"time": 4943, "pitch": 78, "duration": 18, "velocity": 69}, {"time": 4961, "pitch": 74, "duration": 12, "velocity": 64}, {"time": 4973, "pitch": 74, "duration": 24, "velocity": 65}, {"time": 4997, "pitch": 71, "duration": 13, "velocity": 66}, {"time": 5009, "pitch": 74, "duration": 33, "velocity": 79}, {"time": 5213, "pitch": 81, "duration": 60, "velocity": 85}, {"time": 5273, "pitch": 79, "duration": 6, "velocity": 82}, {"time": 5279, "pitch": 79, "duration": 6, "velocity": 73}, {"time": 5285, "pitch": 79, "duration": 12, "velocity": 80}, {"time": 5297, "pitch": 78, "duration": 6, "velocity": 84}, {"time": 5303, "pitch": 78, "duration": 6, "velocity": 84}, {"time": 5309, "pitch": 78, "duration": 15, "velocity": 84}, {"time": 5324, "pitch": 76, "duration": 6, "velocity": 34}, {"time": 5330, "pitch": 74, "duration": 99, "velocity": 60}, {"time": 5573, "pitch": 86, "duration": 36, "velocity": 98}, {"time": 5609, "pitch": 85, "duration": 6, "velocity": 77}, {"time": 5615, "pitch": 86, "duration": 7, "velocity": 82}, {"time": 5621, "pitch": 83, "duration": 13, "velocity": 75}, {"time": 5633, "pitch": 81, "duration": 72, "velocity": 64}, {"time": 5705, "pitch": 78, "duration": 6, "velocity": 90}, {"time": 5711, "pitch": 78, "duration": 6, "velocity": 91}, {"time": 5717, "pitch": 78, "duration": 12, "velocity": 87}, {"time": 5729, "pitch": 76, "duration": 6, "velocity": 97}, {"time": 5735, "pitch": 76, "duration": 30, "velocity": 94}, {"time": 5765, "pitch": 74, "duration": 6, "velocity": 94}, {"time": 5771, "pitch": 76, "duration": 7, "velocity": 86}, {"time": 5777, "pitch": 78, "duration": 84, "velocity": 93}, {"time": 5951, "pitch": 78, "duration": 6, "velocity": 91}, {"time": 5957, "pitch": 78, "duration": 7, "velocity": 91}, {"time": 5963, "pitch": 76, "duration": 6, "velocity": 66}, {"time": 5969, "pitch": 76, "duration": 6, "velocity": 73}, {"time": 5975, "pitch": 76, "duration": 6, "velocity": 65}, {"time": 5981, "pitch": 76, "duration": 6, "velocity": 71}, {"time": 5987, "pitch": 74, "duration": 6, "velocity": 66}, {"time": 5993, "pitch": 74, "duration": 60, "velocity": 79}, {"time": 6101, "pitch": 69, "duration": 12, "velocity": 39}, {"time": 6113, "pitch": 69, "duration": 6, "velocity": 62}, {"time": 6119, "pitch": 69, "duration": 18, "velocity": 55}, {"time": 6137, "pitch": 69, "duration": 12, "velocity": 72}, {"time": 6149, "pitch": 71, "duration": 18, "velocity": 90}, {"time": 6167, "pitch": 69, "duration": 18, "velocity": 84}, {"time": 6185, "pitch": 71, "duration": 12, "velocity": 93}, {"time": 6197, "pitch": 74, "duration": 48, "velocity": 98}, {"time": 6245, "pitch": 78, "duration": 48, "velocity": 93}, {"time": 6293, "pitch": 76, "duration": 12, "velocity": 90}, {"time": 6305, "pitch": 76, "duration": 12, "velocity": 87}, {"time": 6317, "pitch": 76, "duration": 12, "velocity": 90}, {"time": 6329, "pitch": 76, "duration": 6, "velocity": 83}, {"time": 6335, "pitch": 74, "duration": 6, "velocity": 68}, {"time": 6341, "pitch": 78, "duration": 13, "velocity": 97}, {"time": 6353, "pitch": 74, "duration": 24, "velocity": 87}, {"time": 6377, "pitch": 71, "duration": 12, "velocity": 95}, {"time": 6389, "pitch": 69, "duration": 96, "velocity": 97}, {"time": 6485, "pitch": 71, "duration": 12, "velocity": 97}, {"time": 6497, "pitch": 71, "duration": 6, "velocity": 91}, {"time": 6503, "pitch": 71, "duration": 18, "velocity": 93}, {"time": 6521, "pitch": 69, "duration": 6, "velocity": 92}, {"time": 6527, "pitch": 71, "duration": 12, "velocity": 101}, {"time": 6539, "pitch": 74, "duration": 30, "velocity": 66}, {"time": 6569, "pitch": 83, "duration": 12, "velocity": 97}, {"time": 6581, "pitch": 81, "duration": 36, "velocity": 98}, {"time": 6617, "pitch": 83, "duration": 12, "velocity": 99}, {"time": 6629, "pitch": 78, "duration": 24, "velocity": 91}, {"time": 6653, "pitch": 78, "duration": 6, "velocity": 83}, {"time": 6659, "pitch": 78, "duration": 12, "velocity": 73}, {"time": 6671, "pitch": 74, "duration": 6, "velocity": 71}, {"time": 6677, "pitch": 76, "duration": 6, "velocity": 73}, {"time": 6683, "pitch": 71, "duration": 6, "velocity": 63}, {"time": 6689, "pitch": 71, "duration": 6, "velocity": 71}, {"time": 6695, "pitch": 71, "duration": 6, "velocity": 69}, {"time": 6701, "pitch": 71, "duration": 6, "velocity": 68}, {"time": 6707, "pitch": 74, "duration": 12, "velocity": 86}, {"time": 6719, "pitch": 74, "duration": 42, "velocity": 93}, {"time": 6761, "pitch": 71, "duration": 24, "velocity": 99}, {"time": 6785, "pitch": 76, "duration": 60, "velocity": 101}, {"time": 6845, "pitch": 78, "duration": 12, "velocity": 99}, {"time": 6857, "pitch": 76, "duration": 12, "velocity": 100}, {"time": 6869, "pitch": 74, "duration": 36, "velocity": 97}, {"time": 6905, "pitch": 81, "duration": 12, "velocity": 105}, {"time": 6917, "pitch": 81, "duration": 36, "velocity": 106}, {"time": 6953, "pitch": 74, "duration": 7, "velocity": 96}, {"time": 6959, "pitch": 76, "duration": 6, "velocity": 98}, {"time": 6965, "pitch": 78, "duration": 36, "velocity": 103}, {"time": 7001, "pitch": 83, "duration": 12, "velocity": 103}, {"time": 7013, "pitch": 83, "duration": 24, "velocity": 105}, {"time": 7037, "pitch": 78, "duration": 12, "velocity": 93}, {"time": 7049, "pitch": 78, "duration": 12, "velocity": 85}, {"time": 7061, "pitch": 76, "duration": 6, "velocity": 64}, {"time": 7067, "pitch": 74, "duration": 12, "velocity": 64}, {"time": 7079, "pitch": 74, "duration": 6, "velocity": 84}, {"time": 7085, "pitch": 74, "duration": 12, "velocity": 64}, {"time": 7097, "pitch": 71, "duration": 13, "velocity": 61}, {"time": 7109, "pitch": 76, "duration": 13, "velocity": 66}, {"time": 7121, "pitch": 74, "duration": 12, "velocity": 61}, {"time": 7133, "pitch": 74, "duration": 12, "velocity": 67}, {"time": 7145, "pitch": 71, "duration": 18, "velocity": 62}, {"time": 7163, "pitch": 74, "duration": 66, "velocity": 65}, {"time": 7253, "pitch": 78, "duration": 9, "velocity": 100}, {"time": 7265, "pitch": 69, "duration": 13, "velocity": 90}, {"time": 7277, "pitch": 74, "duration": 13, "velocity": 98}, {"time": 7289, "pitch": 78, "duration": 13, "velocity": 105}, {"time": 7301, "pitch": 76, "duration": 25, "velocity": 101}, {"time": 7325, "pitch": 81, "duration": 13, "velocity": 101}, {"time": 7337, "pitch": 76, "duration": 14, "velocity": 90}, {"time": 7349, "pitch": 74, "duration": 13, "velocity": 100}, {"time": 7361, "pitch": 66, "duration": 14, "velocity": 87}, {"time": 7373, "pitch": 71, "duration": 7, "velocity": 96}, {"time": 7379, "pitch": 74, "duration": 18, "velocity": 93}, {"time": 7397, "pitch": 73, "duration": 49, "velocity": 90}, {"time": 7445, "pitch": 71, "duration": 13, "velocity": 87}, {"time": 7457, "pitch": 74, "duration": 12, "velocity": 62}, {"time": 7469, "pitch": 74, "duration": 13, "velocity": 77}, {"time": 7481, "pitch": 83, "duration": 13, "velocity": 84}, {"time": 7493, "pitch": 81, "duration": 25, "velocity": 94}, {"time": 7517, "pitch": 83, "duration": 33, "velocity": 87}, {"time": 7550, "pitch": 74, "duration": 12, "velocity": 85}, {"time": 7562, "pitch": 78, "duration": 33, "velocity": 98}, {"time": 7595, "pitch": 76, "duration": 6, "velocity": 98}, {"time": 7601, "pitch": 74, "duration": 40, "velocity": 98}, {"time": 7637, "pitch": 78, "duration": 13, "velocity": 100}, {"time": 7649, "pitch": 69, "duration": 13, "velocity": 93}, {"time": 7661, "pitch": 74, "duration": 13, "velocity": 103}, {"time": 7673, "pitch": 78, "duration": 13, "velocity": 95}, {"time": 7685, "pitch": 76, "duration": 25, "velocity": 101}, {"time": 7709, "pitch": 81, "duration": 12, "velocity": 85}, {"time": 7721, "pitch": 81, "duration": 14, "velocity": 91}, {"time": 7733, "pitch": 83, "duration": 36, "velocity": 100}, {"time": 7769, "pitch": 78, "duration": 6, "velocity": 97}, {"time": 7775, "pitch": 76, "duration": 6, "velocity": 82}, {"time": 7781, "pitch": 78, "duration": 36, "velocity": 101}, {"time": 7817, "pitch": 78, "duration": 13, "velocity": 103}, {"time": 7829, "pitch": 76, "duration": 18, "velocity": 100}, {"time": 7847, "pitch": 76, "duration": 6, "velocity": 97}, {"time": 7853, "pitch": 76, "duration": 12, "velocity": 94}, {"time": 7865, "pitch": 76, "duration": 13, "velocity": 90}, {"time": 7877, "pitch": 78, "duration": 14, "velocity": 100}, {"time": 7889, "pitch": 76, "duration": 25, "velocity": 100}, {"time": 7913, "pitch": 74, "duration": 25, "velocity": 99}, {"time": 7937, "pitch": 76, "duration": 48, "velocity": 106}, {"time": 7985, "pitch": 81, "duration": 24, "velocity": 106}, {"time": 8009, "pitch": 79, "duration": 24, "velocity": 106}, {"time": 8033, "pitch": 78, "duration": 18, "velocity": 106}, {"time": 8051, "pitch": 76, "duration": 18, "velocity": 100}, {"time": 8078, "pitch": 74, "duration": 9, "velocity": 91}, {"time": 8087, "pitch": 76, "duration": 8, "velocity": 85}, {"time": 8093, "pitch": 78, "duration": 13, "velocity": 93}, {"time": 8105, "pitch": 76, "duration": 6, "velocity": 90}, {"time": 8111, "pitch": 74, "duration": 42, "velocity": 90}, {"time": 8153, "pitch": 73, "duration": 6, "velocity": 101}, {"time": 8159, "pitch": 71, "duration": 8, "velocity": 82}, {"time": 8165, "pitch": 73, "duration": 12, "velocity": 93}, {"time": 8177, "pitch": 71, "duration": 7, "velocity": 80}, {"time": 8183, "pitch": 69, "duration": 78, "velocity": 87}, {"time": 8261, "pitch": 83, "duration": 36, "velocity": 105}, {"time": 8297, "pitch": 81, "duration": 6, "velocity": 94}, {"time": 8303, "pitch": 81, "duration": 18, "velocity": 93}, {"time": 8321, "pitch": 78, "duration": 84, "velocity": 87}, {"time": 8405, "pitch": 78, "duration": 12, "velocity": 90}, {"time": 8417, "pitch": 69, "duration": 12, "velocity": 80}, {"time": 8429, "pitch": 74, "duration": 12, "velocity": 96}, {"time": 8441, "pitch": 78, "duration": 12, "velocity": 83}, {"time": 8453, "pitch": 76, "duration": 24, "velocity": 91}, {"time": 8477, "pitch": 81, "duration": 12, "velocity": 100}, {"time": 8489, "pitch": 81, "duration": 12, "velocity": 98}, {"time": 8501, "pitch": 83, "duration": 36, "velocity": 105}, {"time": 8537, "pitch": 78, "duration": 6, "velocity": 97}, {"time": 8543, "pitch": 76, "duration": 7, "velocity": 65}, {"time": 8549, "pitch": 78, "duration": 36, "velocity": 101}, {"time": 8585, "pitch": 78, "duration": 12, "velocity": 101}, {"time": 8597, "pitch": 76, "duration": 24, "velocity": 100}, {"time": 8621, "pitch": 76, "duration": 12, "velocity": 97}, {"time": 8633, "pitch": 76, "duration": 9, "velocity": 84}, {"time": 8642, "pitch": 78, "duration": 15, "velocity": 97}, {"time": 8657, "pitch": 74, "duration": 12, "velocity": 83}, {"time": 8669, "pitch": 74, "duration": 24, "velocity": 82}, {"time": 8693, "pitch": 71, "duration": 19, "velocity": 89}, {"time": 8711, "pitch": 74, "duration": 102, "velocity": 106}, {"time": 8813, "pitch": 78, "duration": 24, "velocity": 103}, {"time": 8837, "pitch": 81, "duration": 36, "velocity": 108}, {"time": 8873, "pitch": 78, "duration": 12, "velocity": 92}, {"time": 8885, "pitch": 76, "duration": 123, "velocity": 86}, {"time": 9008, "pitch": 74, "duration": 9, "velocity": 96}, {"time": 9017, "pitch": 71, "duration": 6, "velocity": 77}, {"time": 9023, "pitch": 69, "duration": 28, "velocity": 67}, {"time": 9050, "pitch": 74, "duration": 123, "velocity": 91}], "annotations": [{"time": 864, "annotation": {"number": 1, "value": 2}, "group": "control_change"}, {"time": 865, "annotation": {"number": 1, "value": 3}, "group": "control_change"}, {"time": 923, "annotation": {"number": 1, "value": 2}, "group": "control_change"}, {"time": 925, "annotation": {"number": 1, "value": 3}, "group": "control_change"}, {"time": 928, "annotation": {"number": 1, "value": 2}, "group": "control_change"}, {"time": 931, "annotation": {"number": 1, "value": 3}, "group": "control_change"}, {"time": 932, "annotation": {"number": 1, "value": 2}, "group": "control_change"}, {"time": 934, "annotation": {"number": 1, "value": 3}, "group": "control_change"}, {"time": 934, "annotation": {"number": 1, "value": 2}, "group": "control_change"}, {"time": 942, "annotation": {"number": 1, "value": 3}, "group": "control_change"}, {"time": 1347, "annotation": {"number": 1, "value": 2}, "group": "control_change"}, {"time": 1394, "annotation": {"number": 1, "value": 1}, "group": "control_change"}, {"time": 1580, "annotation": {"number": 1, "value": 1}, "group": "control_change"}, {"time": 1582, "annotation": {"number": 1, "value": 2}, "group": "control_change"}, {"time": 1625, "annotation": {"number": 1, "value": 1}, "group": "control_change"}, {"time": 1626, "annotation": {"number": 1, "value": 2}, "group": "control_change"}, {"time": 1637, "annotation": {"number": 1, "value": 3}, "group": "control_change"}, {"time": 1640, "annotation": {"number": 1, "value": 2}, "group": "control_change"}, {"time": 1695, "annotation": {"number": 1, "value": 3}, "group": "control_change"}, {"time": 1695, "annotation": {"number": 1, "value": 2}, "group": "control_change"}, {"time": 1725, "annotation": {"number": 1, "value": 3}, "group": "control_change"}, {"time": 1728, "annotation": {"number": 1, "value": 2}, "group": "control_change"}, {"time": 1728, "annotation": {"number": 1, "value": 3}, "group": "control_change"}, {"time": 1732, "annotation": {"number": 1, "value": 2}, "group": "control_change"}, {"time": 1733, "annotation": {"number": 1, "value": 3}, "group": "control_change"}, {"time": 1738, "annotation": {"number": 1, "value": 2}, "group": "control_change"}, {"time": 1741, "annotation": {"number": 1, "value": 3}, "group": "control_change"}, {"time": 1746, "annotation": {"number": 1, "value": 2}, "group": "control_change"}, {"time": 1746, "annotation": {"number": 1, "value": 3}, "group": "control_change"}, {"time": 1747, "annotation": {"number": 1, "value": 2}, "group": "control_change"}, {"time": 1793, "annotation": {"number": 1, "value": 1}, "group": "control_change"}, {"time": 2024, "annotation": {"number": 1, "value": 3}, "group": "control_change"}, {"time": 2035, "annotation": {"number": 1, "value": 5}, "group": "control_change"}, {"time": 2228, "annotation": {"number": 1, "value": 5}, "group": "control_change"}, {"time": 2248, "annotation": {"number": 1, "value": 3}, "group": "control_change"}, {"time": 2271, "annotation": {"number": 1, "value": 2}, "group": "control_change"}, {"time": 2302, "annotation": {"number": 1, "value": 1}, "group": "control_change"}, {"time": 2303, "annotation": {"number": 1, "value": 2}, "group": "control_change"}, {"time": 2410, "annotation": {"number": 1, "value": 1}, "group": "control_change"}, {"time": 2528, "annotation": {"number": 1, "value": 0}, "group": "control_change"}, {"time": 2528, "annotation": {"number": 1, "value": 1}, "group": "control_change"}, {"time": 2534, "annotation": {"number": 1, "value": 0}, "group": "control_change"}, {"time": 2534, "annotation": {"number": 1, "value": 1}, "group": "control_change"}, {"time": 2535, "annotation": {"number": 1, "value": 1}, "group": "control_change"}, {"time": 2535, "annotation": {"number": 1, "value": 0}, "group": "control_change"}, {"time": 2539, "annotation": {"number": 1, "value": 0}, "group": "control_change"}, {"time": 2539, "annotation": {"number": 1, "value": 1}, "group": "control_change"}, {"time": 2637, "annotation": {"number": 1, "value": 0}, "group": "control_change"}, {"time": 2637, "annotation": {"number": 1, "value": 1}, "group": "control_change"}, {"time": 2693, "annotation": {"number": 1, "value": 2}, "group": "control_change"}, {"time": 2702, "annotation": {"number": 1, "value": 1}, "group": "control_change"}, {"time": 2721, "annotation": {"number": 1, "value": 2}, "group": "control_change"}, {"time": 2820, "annotation": {"number": 1, "value": 1}, "group": "control_change"}, {"time": 2837, "annotation": {"number": 1, "value": 2}, "group": "control_change"}, {"time": 2842, "annotation": {"number": 1, "value": 1}, "group": "control_change"}, {"time": 2842, "annotation": {"number": 1, "value": 2}, "group": "control_change"}, {"time": 3149, "annotation": {"number": 1, "value": 0}, "group": "control_change"}, {"time": 3150, "annotation": {"number": 1, "value": 1}, "group": "control_change"}, {"time": 3150, "annotation": {"number": 1, "value": 0}, "group": "control_change"}, {"time": 3160, "annotation": {"number": 1, "value": 0}, "group": "control_change"}, {"time": 3160, "annotation": {"number": 1, "value": 1}, "group": "control_change"}, {"time": 3182, "annotation": {"number": 1, "value": 2}, "group": "control_change"}, {"time": 3196, "annotation": {"number": 1, "value": 1}, "group": "control_change"}, {"time": 3198, "annotation": {"number": 1, "value": 0}, "group": "control_change"}, {"time": 3198, "annotation": {"number": 1, "value": 1}, "group": "control_change"}, {"time": 3203, "annotation": {"number": 1, "value": 0}, "group": "control_change"}, {"time": 3203, "annotation": {"number": 1, "value": 1}, "group": "control_change"}, {"time": 3212, "annotation": {"number": 1, "value": 0}, "group": "control_change"}, {"time": 3213, "annotation": {"number": 1, "value": 1}, "group": "control_change"}, {"time": 3215, "annotation": {"number": 1, "value": 0}, "group": "control_change"}, {"time": 3216, "annotation": {"number": 1, "value": 1}, "group": "control_change"}, {"time": 3217, "annotation": {"number": 1, "value": 0}, "group": "control_change"}, {"time": 3217, "annotation": {"number": 1, "value": 1}, "group": "control_change"}, {"time": 3220, "annotation": {"number": 1, "value": 0}, "group": "control_change"}, {"time": 3220, "annotation": {"number": 1, "value": 1}, "group": "control_change"}, {"time": 3281, "annotation": {"number": 1, "value": 2}, "group": "control_change"}, {"time": 3281, "annotation": {"number": 1, "value": 3}, "group": "control_change"}, {"time": 3282, "annotation": {"number": 1, "value": 1}, "group": "control_change"}, {"time": 3282, "annotation": {"number": 1, "value": 3}, "group": "control_change"}, {"time": 3286, "annotation": {"number": 1, "value": 2}, "group": "control_change"}, {"time": 3286, "annotation": {"number": 1, "value": 3}, "group": "control_change"}, {"time": 3545, "annotation": {"number": 1, "value": 1}, "group": "control_change"}, {"time": 3546, "annotation": {"number": 1, "value": 3}, "group": "control_change"}, {"time": 3553, "annotation": {"number": 1, "value": 2}, "group": "control_change"}, {"time": 3554, "annotation": {"number": 1, "value": 3}, "group": "control_change"}, {"time": 3608, "annotation": {"number": 1, "value": 2}, "group": "control_change"}, {"time": 3608, "annotation": {"number": 1, "value": 3}, "group": "control_change"}, {"time": 3609, "annotation": {"number": 1, "value": 1}, "group": "control_change"}, {"time": 3609, "annotation": {"number": 1, "value": 3}, "group": "control_change"}, {"time": 3610, "annotation": {"number": 1, "value": 3}, "group": "control_change"}, {"time": 3610, "annotation": {"number": 1, "value": 2}, "group": "control_change"}, {"time": 3611, "annotation": {"number": 1, "value": 1}, "group": "control_change"}, {"time": 3612, "annotation": {"number": 1, "value": 3}, "group": "control_change"}, {"time": 3612, "annotation": {"number": 1, "value": 2}, "group": "control_change"}, {"time": 3613, "annotation": {"number": 1, "value": 2}, "group": "control_change"}, {"time": 3613, "annotation": {"number": 1, "value": 3}, "group": "control_change"}, {"time": 3614, "annotation": {"number": 1, "value": 3}, "group": "control_change"}, {"time": 3614, "annotation": {"number": 1, "value": 2}, "group": "control_change"}, {"time": 3615, "annotation": {"number": 1, "value": 1}, "group": "control_change"}, {"time": 3616, "annotation": {"number": 1, "value": 3}, "group": "control_change"}, {"time": 3616, "annotation": {"number": 1, "value": 2}, "group": "control_change"}, {"time": 3617, "annotation": {"number": 1, "value": 3}, "group": "control_change"}, {"time": 3617, "annotation": {"number": 1, "value": 2}, "group": "control_change"}, {"time": 3618, "annotation": {"number": 1, "value": 3}, "group": "control_change"}, {"time": 3619, "annotation": {"number": 1, "value": 2}, "group": "control_change"}, {"time": 3619, "annotation": {"number": 1, "value": 3}, "group": "control_change"}, {"time": 3620, "annotation": {"number": 1, "value": 3}, "group": "control_change"}, {"time": 3620, "annotation": {"number": 1, "value": 2}, "group": "control_change"}, {"time": 4235, "annotation": {"number": 1, "value": 2}, "group": "control_change"}, {"time": 4276, "annotation": {"number": 1, "value": 3}, "group": "control_change"}, {"time": 4276, "annotation": {"number": 1, "value": 1}, "group": "control_change"}, {"time": 4278, "annotation": {"number": 1, "value": 3}, "group": "control_change"}, {"time": 4279, "annotation": {"number": 1, "value": 1}, "group": "control_change"}, {"time": 4279, "annotation": {"number": 1, "value": 3}, "group": "control_change"}, {"time": 4280, "annotation": {"number": 1, "value": 1}, "group": "control_change"}, {"time": 4283, "annotation": {"number": 1, "value": 2}, "group": "control_change"}, {"time": 4283, "annotation": {"number": 1, "value": 1}, "group": "control_change"}, {"time": 4320, "annotation": {"number": 1, "value": 3}, "group": "control_change"}, {"time": 4320, "annotation": {"number": 1, "value": 2}, "group": "control_change"}, {"time": 4322, "annotation": {"number": 1, "value": 2}, "group": "control_change"}, {"time": 4322, "annotation": {"number": 1, "value": 3}, "group": "control_change"}, {"time": 4323, "annotation": {"number": 1, "value": 2}, "group": "control_change"}, {"time": 4323, "annotation": {"number": 1, "value": 3}, "group": "control_change"}, {"time": 4324, "annotation": {"number": 1, "value": 2}, "group": "control_change"}, {"time": 4325, "annotation": {"number": 1, "value": 3}, "group": "control_change"}, {"time": 4325, "annotation": {"number": 1, "value": 2}, "group": "control_change"}, {"time": 4326, "annotation": {"number": 1, "value": 3}, "group": "control_change"}, {"time": 4327, "annotation": {"number": 1, "value": 2}, "group": "control_change"}, {"time": 4327, "annotation": {"number": 1, "value": 3}, "group": "control_change"}, {"time": 4328, "annotation": {"number": 1, "value": 3}, "group": "control_change"}, {"time": 4328, "annotation": {"number": 1, "value": 2}, "group": "control_change"}, {"time": 4329, "annotation": {"number": 1, "value": 2}, "group": "control_change"}, {"time": 4329, "annotation": {"number": 1, "value": 3}, "group": "control_change"}, {"time": 4396, "annotation": {"number": 1, "value": 3}, "group": "control_change"}, {"time": 4396, "annotation": {"number": 1, "value": 2}, "group": "control_change"}, {"time": 4397, "annotation": {"number": 1, "value": 3}, "group": "control_change"}, {"time": 4398, "annotation": {"number": 1, "value": 2}, "group": "control_change"}, {"time": 4399, "annotation": {"number": 1, "value": 3}, "group": "control_change"}, {"time": 4399, "annotation": {"number": 1, "value": 2}, "group": "control_change"}, {"time": 4401, "annotation": {"number": 1, "value": 3}, "group": "control_change"}, {"time": 4401, "annotation": {"number": 1, "value": 2}, "group": "control_change"}, {"time": 4403, "annotation": {"number": 1, "value": 3}, "group": "control_change"}, {"time": 4403, "annotation": {"number": 1, "value": 2}, "group": "control_change"}, {"time": 4409, "annotation": {"number": 1, "value": 3}, "group": "control_change"}, {"time": 4409, "annotation": {"number": 1, "value": 2}, "group": "control_change"}, {"time": 5791, "annotation": {"number": 1, "value": 2}, "group": "control_change"}, {"time": 5820, "annotation": {"number": 1, "value": 3}, "group": "control_change"}, {"time": 5821, "annotation": {"number": 1, "value": 2}, "group": "control_change"}, {"time": 6155, "annotation": {"number": 1, "value": 2}, "group": "control_change"}, {"time": 6157, "annotation": {"number": 1, "value": 3}, "group": "control_change"}, {"time": 6160, "annotation": {"number": 1, "value": 2}, "group": "control_change"}, {"time": 6163, "annotation": {"number": 1, "value": 3}, "group": "control_change"}, {"time": 6163, "annotation": {"number": 1, "value": 2}, "group": "control_change"}, {"time": 6165, "annotation": {"number": 1, "value": 3}, "group": "control_change"}, {"time": 6165, "annotation": {"number": 1, "value": 2}, "group": "control_change"}, {"time": 6173, "annotation": {"number": 1, "value": 3}, "group": "control_change"}, {"time": 6578, "annotation": {"number": 1, "value": 2}, "group": "control_change"}, {"time": 6626, "annotation": {"number": 1, "value": 1}, "group": "control_change"}, {"time": 6812, "annotation": {"number": 1, "value": 1}, "group": "control_change"}, {"time": 6814, "annotation": {"number": 1, "value": 2}, "group": "control_change"}, {"time": 6857, "annotation": {"number": 1, "value": 1}, "group": "control_change"}, {"time": 6857, "annotation": {"number": 1, "value": 2}, "group": "control_change"}, {"time": 6869, "annotation": {"number": 1, "value": 3}, "group": "control_change"}, {"time": 6872, "annotation": {"number": 1, "value": 2}, "group": "control_change"}, {"time": 6926, "annotation": {"number": 1, "value": 3}, "group": "control_change"}, {"time": 6927, "annotation": {"number": 1, "value": 2}, "group": "control_change"}, {"time": 6957, "annotation": {"number": 1, "value": 3}, "group": "control_change"}, {"time": 6959, "annotation": {"number": 1, "value": 2}, "group": "control_change"}, {"time": 6960, "annotation": {"number": 1, "value": 3}, "group": "control_change"}, {"time": 6964, "annotation": {"number": 1, "value": 2}, "group": "control_change"}, {"time": 6964, "annotation": {"number": 1, "value": 3}, "group": "control_change"}, {"time": 6970, "annotation": {"number": 1, "value": 2}, "group": "control_change"}, {"time": 6973, "annotation": {"number": 1, "value": 3}, "group": "control_change"}, {"time": 6978, "annotation": {"number": 1, "value": 2}, "group": "control_change"}, {"time": 6978, "annotation": {"number": 1, "value": 3}, "group": "control_change"}, {"time": 7025, "annotation": {"number": 1, "value": 1}, "group": "control_change"}, {"time": 7305, "annotation": {"number": 1, "value": 2}, "group": "control_change"}, {"time": 7305, "annotation": {"number": 1, "value": 3}, "group": "control_change"}, {"time": 7306, "annotation": {"number": 1, "value": 1}, "group": "control_change"}, {"time": 7306, "annotation": {"number": 1, "value": 3}, "group": "control_change"}, {"time": 7307, "annotation": {"number": 1, "value": 3}, "group": "control_change"}, {"time": 7307, "annotation": {"number": 1, "value": 2}, "group": "control_change"}, {"time": 7308, "annotation": {"number": 1, "value": 1}, "group": "control_change"}, {"time": 7308, "annotation": {"number": 1, "value": 3}, "group": "control_change"}, {"time": 7309, "annotation": {"number": 1, "value": 2}, "group": "control_change"}, {"time": 7309, "annotation": {"number": 1, "value": 3}, "group": "control_change"}, {"time": 7310, "annotation": {"number": 1, "value": 2}, "group": "control_change"}, {"time": 7310, "annotation": {"number": 1, "value": 3}, "group": "control_change"}, {"time": 7311, "annotation": {"number": 1, "value": 2}, "group": "control_change"}, {"time": 7311, "annotation": {"number": 1, "value": 3}, "group": "control_change"}, {"time": 7312, "annotation": {"number": 1, "value": 1}, "group": "control_change"}, {"time": 7313, "annotation": {"number": 1, "value": 3}, "group": "control_change"}, {"time": 7313, "annotation": {"number": 1, "value": 2}, "group": "control_change"}, {"time": 7314, "annotation": {"number": 1, "value": 3}, "group": "control_change"}, {"time": 7314, "annotation": {"number": 1, "value": 2}, "group": "control_change"}, {"time": 7315, "annotation": {"number": 1, "value": 3}, "group": "control_change"}, {"time": 7316, "annotation": {"number": 1, "value": 2}, "group": "control_change"}, {"time": 7316, "annotation": {"number": 1, "value": 3}, "group": "control_change"}, {"time": 7317, "annotation": {"number": 1, "value": 2}, "group": "control_change"}, {"time": 7932, "annotation": {"number": 1, "value": 2}, "group": "control_change"}, {"time": 7973, "annotation": {"number": 1, "value": 3}, "group": "control_change"}, {"time": 7973, "annotation": {"number": 1, "value": 1}, "group": "control_change"}, {"time": 7975, "annotation": {"number": 1, "value": 3}, "group": "control_change"}, {"time": 7976, "annotation": {"number": 1, "value": 1}, "group": "control_change"}, {"time": 7976, "annotation": {"number": 1, "value": 3}, "group": "control_change"}, {"time": 7977, "annotation": {"number": 1, "value": 1}, "group": "control_change"}, {"time": 7980, "annotation": {"number": 1, "value": 2}, "group": "control_change"}, {"time": 7980, "annotation": {"number": 1, "value": 1}, "group": "control_change"}, {"time": 8017, "annotation": {"number": 1, "value": 3}, "group": "control_change"}, {"time": 8017, "annotation": {"number": 1, "value": 2}, "group": "control_change"}, {"time": 8019, "annotation": {"number": 1, "value": 2}, "group": "control_change"}, {"time": 8019, "annotation": {"number": 1, "value": 3}, "group": "control_change"}, {"time": 8020, "annotation": {"number": 1, "value": 2}, "group": "control_change"}, {"time": 8020, "annotation": {"number": 1, "value": 3}, "group": "control_change"}, {"time": 8021, "annotation": {"number": 1, "value": 2}, "group": "control_change"}, {"time": 8022, "annotation": {"number": 1, "value": 3}, "group": "control_change"}, {"time": 8022, "annotation": {"number": 1, "value": 2}, "group": "control_change"}, {"time": 8023, "annotation": {"number": 1, "value": 3}, "group": "control_change"}, {"time": 8024, "annotation": {"number": 1, "value": 2}, "group": "control_change"}, {"time": 8024, "annotation": {"number": 1, "value": 3}, "group": "control_change"}, {"time": 8025, "annotation": {"number": 1, "value": 3}, "group": "control_change"}, {"time": 8025, "annotation": {"number": 1, "value": 2}, "group": "control_change"}, {"time": 8026, "annotation": {"number": 1, "value": 2}, "group": "control_change"}, {"time": 8026, "annotation": {"number": 1, "value": 3}, "group": "control_change"}]}, {"program": 0, "is_drum": false, "name": "BRIDGE", "notes": [{"time": 89, "pitch": 78, "duration": 6, "velocity": 100}, {"time": 95, "pitch": 79, "duration": 6, "velocity": 96}, {"time": 101, "pitch": 81, "duration": 12, "velocity": 95}, {"time": 113, "pitch": 79, "duration": 6, "velocity": 94}, {"time": 119, "pitch": 79, "duration": 18, "velocity": 98}, {"time": 137, "pitch": 78, "duration": 12, "velocity": 106}, {"time": 149, "pitch": 76, "duration": 18, "velocity": 96}, {"time": 167, "pitch": 74, "duration": 18, "velocity": 100}, {"time": 185, "pitch": 71, "duration": 12, "velocity": 101}, {"time": 197, "pitch": 76, "duration": 84, "velocity": 99}, {"time": 281, "pitch": 78, "duration": 6, "velocity": 100}, {"time": 287, "pitch": 79, "duration": 6, "velocity": 95}, {"time": 293, "pitch": 81, "duration": 12, "velocity": 90}, {"time": 305, "pitch": 79, "duration": 6, "velocity": 91}, {"time": 311, "pitch": 79, "duration": 18, "velocity": 98}, {"time": 329, "pitch": 78, "duration": 12, "velocity": 106}, {"time": 341, "pitch": 83, "duration": 18, "velocity": 103}, {"time": 359, "pitch": 81, "duration": 6, "velocity": 84}, {"time": 365, "pitch": 81, "duration": 15, "velocity": 95}, {"time": 374, "pitch": 78, "duration": 12, "velocity": 94}, {"time": 386, "pitch": 76, "duration": 81, "velocity": 98}, {"time": 467, "pitch": 86, "duration": 6, "velocity": 90}, {"time": 473, "pitch": 85, "duration": 6, "velocity": 90}, {"time": 479, "pitch": 86, "duration": 6, "velocity": 84}, {"time": 485, "pitch": 88, "duration": 12, "velocity": 93}, {"time": 497, "pitch": 85, "duration": 6, "velocity": 90}, {"time": 503, "pitch": 81, "duration": 18, "velocity": 98}, {"time": 521, "pitch": 78, "duration": 12, "velocity": 98}, {"time": 533, "pitch": 83, "duration": 12, "velocity": 95}, {"time": 545, "pitch": 81, "duration": 6, "velocity": 86}, {"time": 551, "pitch": 81, "duration": 18, "velocity": 90}, {"time": 569, "pitch": 78, "duration": 12, "velocity": 90}, {"time": 581, "pitch": 76, "duration": 78, "velocity": 90}, {"time": 659, "pitch": 86, "duration": 6, "velocity": 90}, {"time": 665, "pitch": 85, "duration": 6, "velocity": 90}, {"time": 671, "pitch": 86, "duration": 6, "velocity": 86}, {"time": 677, "pitch": 88, "duration": 12, "velocity": 82}, {"time": 689, "pitch": 85, "duration": 6, "velocity": 82}, {"time": 695, "pitch": 81, "duration": 21, "velocity": 84}, {"time": 713, "pitch": 78, "duration": 12, "velocity": 60}, {"time": 725, "pitch": 83, "duration": 36, "velocity": 83}, {"time": 761, "pitch": 83, "duration": 6, "velocity": 93}, {"time": 767, "pitch": 85, "duration": 3, "velocity": 79}, {"time": 770, "pitch": 83, "duration": 3, "velocity": 76}, {"time": 773, "pitch": 81, "duration": 48, "velocity": 83}, {"time": 5087, "pitch": 69, "duration": 6, "velocity": 82}, {"time": 5093, "pitch": 78, "duration": 24, "velocity": 100}, {"time": 5117, "pitch": 78, "duration": 18, "velocity": 100}, {"time": 5135, "pitch": 74, "duration": 6, "velocity": 90}, {"time": 5141, "pitch": 76, "duration": 138, "velocity": 91}, {"time": 5279, "pitch": 69, "duration": 6, "velocity": 90}, {"time": 5285, "pitch": 78, "duration": 18, "velocity": 98}, {"time": 5303, "pitch": 78, "duration": 6, "velocity": 106}, {"time": 5309, "pitch": 78, "duration": 1, "velocity": 95}, {"time": 5318, "pitch": 79, "duration": 6, "velocity": 98}, {"time": 5324, "pitch": 81, "duration": 9, "velocity": 90}, {"time": 5333, "pitch": 76, "duration": 48, "velocity": 95}, {"time": 5381, "pitch": 79, "duration": 9, "velocity": 95}, {"time": 5390, "pitch": 79, "duration": 9, "velocity": 100}, {"time": 5399, "pitch": 79, "duration": 6, "velocity": 101}, {"time": 5405, "pitch": 79, "duration": 9, "velocity": 104}, {"time": 5414, "pitch": 81, "duration": 9, "velocity": 86}, {"time": 5423, "pitch": 83, "duration": 6, "velocity": 84}, {"time": 5429, "pitch": 81, "duration": 78, "velocity": 100}, {"time": 5507, "pitch": 86, "duration": 6, "velocity": 91}, {"time": 5513, "pitch": 85, "duration": 6, "velocity": 91}, {"time": 5519, "pitch": 86, "duration": 6, "velocity": 84}, {"time": 5525, "pitch": 88, "duration": 12, "velocity": 90}, {"time": 5537, "pitch": 85, "duration": 6, "velocity": 86}, {"time": 5543, "pitch": 81, "duration": 18, "velocity": 90}, {"time": 5561, "pitch": 78, "duration": 12, "velocity": 95}, {"time": 5573, "pitch": 83, "duration": 12, "velocity": 93}, {"time": 5585, "pitch": 81, "duration": 6, "velocity": 86}, {"time": 5591, "pitch": 81, "duration": 18, "velocity": 99}, {"time": 5609, "pitch": 78, "duration": 12, "velocity": 98}, {"time": 5621, "pitch": 76, "duration": 78, "velocity": 91}, {"time": 5699, "pitch": 86, "duration": 6, "velocity": 90}, {"time": 5705, "pitch": 85, "duration": 6, "velocity": 90}, {"time": 5711, "pitch": 86, "duration": 6, "velocity": 84}, {"time": 5717, "pitch": 88, "duration": 9, "velocity": 95}, {"time": 5726, "pitch": 85, "duration": 9, "velocity": 86}, {"time": 5735, "pitch": 81, "duration": 18, "velocity": 93}, {"time": 5753, "pitch": 78, "duration": 12, "velocity": 69}, {"time": 5765, "pitch": 83, "duration": 96, "velocity": 94}, {"time": 5861, "pitch": 83, "duration": 6, "velocity": 86}, {"time": 5867, "pitch": 81, "duration": 6, "velocity": 80}, {"time": 5873, "pitch": 81, "duration": 6, "velocity": 82}, {"time": 5879, "pitch": 81, "duration": 18, "velocity": 82}, {"time": 5897, "pitch": 74, "duration": 12, "velocity": 91}, {"time": 5909, "pitch": 78, "duration": 6, "velocity": 90}, {"time": 5915, "pitch": 76, "duration": 6, "velocity": 84}, {"time": 5921, "pitch": 76, "duration": 6, "velocity": 86}, {"time": 5927, "pitch": 76, "duration": 21, "velocity": 94}, {"time": 5945, "pitch": 74, "duration": 12, "velocity": 86}, {"time": 5957, "pitch": 78, "duration": 6, "velocity": 84}, {"time": 5963, "pitch": 76, "duration": 6, "velocity": 83}, {"time": 5969, "pitch": 76, "duration": 6, "velocity": 86}, {"time": 5975, "pitch": 74, "duration": 6, "velocity": 84}, {"time": 5981, "pitch": 74, "duration": 6, "velocity": 91}, {"time": 5987, "pitch": 71, "duration": 6, "velocity": 82}, {"time": 5993, "pitch": 71, "duration": 6, "velocity": 81}, {"time": 5999, "pitch": 69, "duration": 6, "velocity": 91}, {"time": 6005, "pitch": 76, "duration": 96, "velocity": 84}, {"time": 9053, "pitch": 81, "duration": 14, "velocity": 91}, {"time": 9068, "pitch": 79, "duration": 8, "velocity": 90}, {"time": 9074, "pitch": 78, "duration": 5, "velocity": 82}, {"time": 9080, "pitch": 76, "duration": 6, "velocity": 79}, {"time": 9086, "pitch": 74, "duration": 6, "velocity": 86}, {"time": 9092, "pitch": 73, "duration": 8, "velocity": 83}, {"time": 9098, "pitch": 71, "duration": 6, "velocity": 69}, {"time": 9104, "pitch": 69, "duration": 16, "velocity": 77}, {"time": 9119, "pitch": 67, "duration": 21, "velocity": 80}, {"time": 9140, "pitch": 64, "duration": 16, "velocity": 83}, {"time": 9158, "pitch": 69, "duration": 9, "velocity": 79}], "annotations": [{"time": 9068, "annotation": {"number": 64, "value": 127}, "group": "control_change"}, {"time": 9192, "annotation": {"number": 64, "value": 0}, "group": "control_change"}]}, {"program": 0, "is_drum": false, "name": "PIANO", "notes": [{"time": 53, "pitch": 50, "duration": 84, "velocity": 83}, {"time": 65, "pitch": 57, "duration": 15, "velocity": 73}, {"time": 77, "pitch": 66, "duration": 5, "velocity": 83}, {"time": 83, "pitch": 67, "duration": 4, "velocity": 79}, {"time": 86, "pitch": 66, "duration": 5, "velocity": 80}, {"time": 89, "pitch": 64, "duration": 10, "velocity": 78}, {"time": 101, "pitch": 62, "duration": 35, "velocity": 86}, {"time": 125, "pitch": 57, "duration": 12, "velocity": 60}, {"time": 149, "pitch": 45, "duration": 23, "velocity": 81}, {"time": 161, "pitch": 57, "duration": 79, "velocity": 71}, {"time": 173, "pitch": 61, "duration": 13, "velocity": 84}, {"time": 185, "pitch": 62, "duration": 13, "velocity": 91}, {"time": 197, "pitch": 64, "duration": 38, "velocity": 90}, {"time": 221, "pitch": 61, "duration": 13, "velocity": 80}, {"time": 233, "pitch": 57, "duration": 7, "velocity": 80}, {"time": 245, "pitch": 50, "duration": 90, "velocity": 95}, {"time": 257, "pitch": 57, "duration": 67, "velocity": 82}, {"time": 269, "pitch": 62, "duration": 10, "velocity": 80}, {"time": 269, "pitch": 66, "duration": 5, "velocity": 93}, {"time": 275, "pitch": 67, "duration": 4, "velocity": 75}, {"time": 278, "pitch": 66, "duration": 5, "velocity": 74}, {"time": 281, "pitch": 64, "duration": 11, "velocity": 71}, {"time": 293, "pitch": 62, "duration": 56, "velocity": 96}, {"time": 329, "pitch": 57, "duration": 7, "velocity": 83}, {"time": 341, "pitch": 45, "duration": 10, "velocity": 84}, {"time": 353, "pitch": 57, "duration": 13, "velocity": 73}, {"time": 365, "pitch": 61, "duration": 61, "velocity": 83}, {"time": 377, "pitch": 64, "duration": 19, "velocity": 86}, {"time": 389, "pitch": 69, "duration": 23, "velocity": 84}, {"time": 413, "pitch": 73, "duration": 19, "velocity": 72}, {"time": 437, "pitch": 47, "duration": 12, "velocity": 78}, {"time": 437, "pitch": 66, "duration": 36, "velocity": 76}, {"time": 437, "pitch": 74, "duration": 32, "velocity": 86}, {"time": 449, "pitch": 59, "duration": 13, "velocity": 62}, {"time": 461, "pitch": 61, "duration": 13, "velocity": 82}, {"time": 473, "pitch": 62, "duration": 12, "velocity": 84}, {"time": 485, "pitch": 54, "duration": 34, "velocity": 84}, {"time": 485, "pitch": 64, "duration": 19, "velocity": 78}, {"time": 485, "pitch": 69, "duration": 15, "velocity": 78}, {"time": 485, "pitch": 73, "duration": 17, "velocity": 84}, {"time": 497, "pitch": 61, "duration": 22, "velocity": 79}, {"time": 509, "pitch": 69, "duration": 23, "velocity": 82}, {"time": 533, "pitch": 43, "duration": 41, "velocity": 80}, {"time": 533, "pitch": 62, "duration": 14, "velocity": 79}, {"time": 533, "pitch": 67, "duration": 13, "velocity": 80}, {"time": 533, "pitch": 71, "duration": 14, "velocity": 79}, {"time": 545, "pitch": 55, "duration": 29, "velocity": 59}, {"time": 557, "pitch": 59, "duration": 14, "velocity": 76}, {"time": 569, "pitch": 67, "duration": 9, "velocity": 82}, {"time": 581, "pitch": 45, "duration": 36, "velocity": 79}, {"time": 581, "pitch": 61, "duration": 13, "velocity": 83}, {"time": 581, "pitch": 64, "duration": 16, "velocity": 83}, {"time": 593, "pitch": 57, "duration": 30, "velocity": 57}, {"time": 605, "pitch": 61, "duration": 7, "velocity": 80}, {"time": 611, "pitch": 64, "duration": 7, "velocity": 82}, {"time": 617, "pitch": 66, "duration": 5, "velocity": 80}, {"time": 623, "pitch": 69, "duration": 5, "velocity": 73}, {"time": 629, "pitch": 47, "duration": 35, "velocity": 78}, {"time": 629, "pitch": 71, "duration": 16, "velocity": 79}, {"time": 641, "pitch": 54, "duration": 25, "velocity": 59}, {"time": 653, "pitch": 59, "duration": 14, "velocity": 57}, {"time": 653, "pitch": 62, "duration": 14, "velocity": 71}, {"time": 653, "pitch": 66, "duration": 15, "velocity": 77}, {"time": 653, "pitch": 71, "duration": 16, "velocity": 74}, {"time": 677, "pitch": 54, "duration": 36, "velocity": 75}, {"time": 677, "pitch": 61, "duration": 13, "velocity": 75}, {"time": 677, "pitch": 66, "duration": 12, "velocity": 75}, {"time": 677, "pitch": 69, "duration": 14, "velocity": 76}, {"time": 689, "pitch": 57, "duration": 22, "velocity": 72}, {"time": 701, "pitch": 64, "duration": 4, "velocity": 79}, {"time": 707, "pitch": 66, "duration": 6, "velocity": 79}, {"time": 713, "pitch": 69, "duration": 3, "velocity": 80}, {"time": 725, "pitch": 43, "duration": 37, "velocity": 81}, {"time": 725, "pitch": 59, "duration": 14, "velocity": 74}, {"time": 725, "pitch": 62, "duration": 13, "velocity": 82}, {"time": 725, "pitch": 67, "duration": 12, "velocity": 80}, {"time": 749, "pitch": 59, "duration": 12, "velocity": 71}, {"time": 749, "pitch": 62, "duration": 10, "velocity": 81}, {"time": 749, "pitch": 67, "duration": 10, "velocity": 79}, {"time": 773, "pitch": 45, "duration": 86, "velocity": 78}, {"time": 773, "pitch": 62, "duration": 14, "velocity": 79}, {"time": 773, "pitch": 64, "duration": 14, "velocity": 71}, {"time": 773, "pitch": 69, "duration": 21, "velocity": 71}, {"time": 785, "pitch": 52, "duration": 73, "velocity": 68}, {"time": 797, "pitch": 57, "duration": 62, "velocity": 68}, {"time": 809, "pitch": 59, "duration": 14, "velocity": 78}, {"time": 821, "pitch": 61, "duration": 13, "velocity": 83}, {"time": 869, "pitch": 50, "duration": 86, "velocity": 83}, {"time": 881, "pitch": 57, "duration": 71, "velocity": 78}, {"time": 893, "pitch": 62, "duration": 13, "velocity": 90}, {"time": 905, "pitch": 64, "duration": 13, "velocity": 86}, {"time": 917, "pitch": 66, "duration": 26, "velocity": 83}, {"time": 941, "pitch": 62, "duration": 37, "velocity": 81}, {"time": 965, "pitch": 47, "duration": 84, "velocity": 79}, {"time": 977, "pitch": 54, "duration": 72, "velocity": 72}, {"time": 989, "pitch": 59, "duration": 55, "velocity": 67}, {"time": 989, "pitch": 62, "duration": 13, "velocity": 83}, {"time": 1001, "pitch": 64, "duration": 13, "velocity": 83}, {"time": 1013, "pitch": 66, "duration": 26, "velocity": 80}, {"time": 1037, "pitch": 62, "duration": 36, "velocity": 51}, {"time": 1061, "pitch": 44, "duration": 83, "velocity": 98}, {"time": 1073, "pitch": 47, "duration": 71, "velocity": 78}, {"time": 1085, "pitch": 52, "duration": 60, "velocity": 79}, {"time": 1097, "pitch": 59, "duration": 16, "velocity": 78}, {"time": 1109, "pitch": 64, "duration": 48, "velocity": 83}, {"time": 1157, "pitch": 45, "duration": 18, "velocity": 80}, {"time": 1157, "pitch": 62, "duration": 27, "velocity": 82}, {"time": 1169, "pitch": 52, "duration": 71, "velocity": 71}, {"time": 1181, "pitch": 57, "duration": 59, "velocity": 61}, {"time": 1193, "pitch": 62, "duration": 6, "velocity": 94}, {"time": 1199, "pitch": 64, "duration": 3, "velocity": 73}, {"time": 1202, "pitch": 62, "duration": 3, "velocity": 75}, {"time": 1205, "pitch": 61, "duration": 38, "velocity": 83}, {"time": 1253, "pitch": 47, "duration": 83, "velocity": 83}, {"time": 1265, "pitch": 54, "duration": 70, "velocity": 75}, {"time": 1277, "pitch": 59, "duration": 51, "velocity": 71}, {"time": 1289, "pitch": 62, "duration": 14, "velocity": 72}, {"time": 1301, "pitch": 66, "duration": 27, "velocity": 78}, {"time": 1325, "pitch": 62, "duration": 27, "velocity": 82}, {"time": 1349, "pitch": 42, "duration": 83, "velocity": 84}, {"time": 1361, "pitch": 54, "duration": 74, "velocity": 68}, {"time": 1373, "pitch": 57, "duration": 14, "velocity": 71}, {"time": 1385, "pitch": 61, "duration": 13, "velocity": 82}, {"time": 1397, "pitch": 64, "duration": 32, "velocity": 80}, {"time": 1421, "pitch": 61, "duration": 12, "velocity": 58}, {"time": 1445, "pitch": 43, "duration": 85, "velocity": 72}, {"time": 1445, "pitch": 66, "duration": 15, "velocity": 78}, {"time": 1457, "pitch": 55, "duration": 48, "velocity": 68}, {"time": 1469, "pitch": 59, "duration": 14, "velocity": 73}, {"time": 1481, "pitch": 62, "duration": 39, "velocity": 80}, {"time": 1517, "pitch": 69, "duration": 13, "velocity": 62}, {"time": 1529, "pitch": 66, "duration": 14, "velocity": 62}, {"time": 1541, "pitch": 45, "duration": 21, "velocity": 80}, {"time": 1553, "pitch": 52, "duration": 14, "velocity": 76}, {"time": 1559, "pitch": 57, "duration": 6, "velocity": 50}, {"time": 1565, "pitch": 45, "duration": 60, "velocity": 84}, {"time": 1571, "pitch": 52, "duration": 52, "velocity": 83}, {"time": 1577, "pitch": 57, "duration": 44, "velocity": 73}, {"time": 1583, "pitch": 61, "duration": 9, "velocity": 57}, {"time": 1589, "pitch": 69, "duration": 41, "velocity": 83}, {"time": 1637, "pitch": 50, "duration": 88, "velocity": 78}, {"time": 1637, "pitch": 66, "duration": 19, "velocity": 69}, {"time": 1637, "pitch": 74, "duration": 23, "velocity": 83}, {"time": 1649, "pitch": 57, "duration": 27, "velocity": 68}, {"time": 1661, "pitch": 62, "duration": 29, "velocity": 80}, {"time": 1673, "pitch": 64, "duration": 9, "velocity": 78}, {"time": 1673, "pitch": 69, "duration": 14, "velocity": 82}, {"time": 1679, "pitch": 57, "duration": 46, "velocity": 56}, {"time": 1685, "pitch": 64, "duration": 1, "velocity": 59}, {"time": 1685, "pitch": 66, "duration": 34, "velocity": 86}, {"time": 1721, "pitch": 69, "duration": 11, "velocity": 84}, {"time": 1733, "pitch": 47, "duration": 84, "velocity": 79}, {"time": 1733, "pitch": 62, "duration": 25, "velocity": 84}, {"time": 1733, "pitch": 66, "duration": 28, "velocity": 81}, {"time": 1745, "pitch": 54, "duration": 73, "velocity": 76}, {"time": 1757, "pitch": 59, "duration": 35, "velocity": 72}, {"time": 1769, "pitch": 61, "duration": 12, "velocity": 74}, {"time": 1769, "pitch": 64, "duration": 14, "velocity": 86}, {"time": 1781, "pitch": 62, "duration": 15, "velocity": 81}, {"time": 1781, "pitch": 66, "duration": 18, "velocity": 81}, {"time": 1796, "pitch": 59, "duration": 13, "velocity": 31}, {"time": 1805, "pitch": 62, "duration": 8, "velocity": 63}, {"time": 1805, "pitch": 69, "duration": 11, "velocity": 82}, {"time": 1817, "pitch": 66, "duration": 8, "velocity": 73}, {"time": 1829, "pitch": 44, "duration": 82, "velocity": 86}, {"time": 1829, "pitch": 62, "duration": 14, "velocity": 84}, {"time": 1829, "pitch": 66, "duration": 13, "velocity": 86}, {"time": 1841, "pitch": 56, "duration": 45, "velocity": 78}, {"time": 1853, "pitch": 59, "duration": 38, "velocity": 84}, {"time": 1865, "pitch": 64, "duration": 36, "velocity": 80}, {"time": 1889, "pitch": 56, "duration": 21, "velocity": 55}, {"time": 1901, "pitch": 59, "duration": 14, "velocity": 59}, {"time": 1913, "pitch": 62, "duration": 9, "velocity": 74}, {"time": 1925, "pitch": 45, "duration": 87, "velocity": 79}, {"time": 1925, "pitch": 69, "duration": 27, "velocity": 79}, {"time": 1937, "pitch": 52, "duration": 74, "velocity": 76}, {"time": 1949, "pitch": 57, "duration": 18, "velocity": 62}, {"time": 1961, "pitch": 59, "duration": 8, "velocity": 77}, {"time": 1961, "pitch": 64, "duration": 9, "velocity": 83}, {"time": 1973, "pitch": 57, "duration": 22, "velocity": 63}, {"time": 1973, "pitch": 61, "duration": 35, "velocity": 82}, {"time": 2009, "pitch": 57, "duration": 4, "velocity": 61}, {"time": 2021, "pitch": 50, "duration": 85, "velocity": 79}, {"time": 2021, "pitch": 66, "duration": 26, "velocity": 74}, {"time": 2021, "pitch": 69, "duration": 24, "velocity": 78}, {"time": 2033, "pitch": 57, "duration": 72, "velocity": 71}, {"time": 2045, "pitch": 62, "duration": 32, "velocity": 73}, {"time": 2057, "pitch": 64, "duration": 12, "velocity": 76}, {"time": 2069, "pitch": 66, "duration": 25, "velocity": 82}, {"time": 2093, "pitch": 69, "duration": 13, "velocity": 76}, {"time": 2105, "pitch": 64, "duration": 11, "velocity": 72}, {"time": 2117, "pitch": 47, "duration": 81, "velocity": 69}, {"time": 2117, "pitch": 62, "duration": 21, "velocity": 80}, {"time": 2117, "pitch": 69, "duration": 26, "velocity": 76}, {"time": 2129, "pitch": 54, "duration": 69, "velocity": 59}, {"time": 2141, "pitch": 59, "duration": 53, "velocity": 78}, {"time": 2153, "pitch": 66, "duration": 8, "velocity": 71}, {"time": 2165, "pitch": 71, "duration": 16, "velocity": 78}, {"time": 2189, "pitch": 62, "duration": 7, "velocity": 73}, {"time": 2189, "pitch": 66, "duration": 10, "velocity": 80}, {"time": 2213, "pitch": 43, "duration": 45, "velocity": 80}, {"time": 2213, "pitch": 59, "duration": 17, "velocity": 63}, {"time": 2213, "pitch": 62, "duration": 21, "velocity": 79}, {"time": 2213, "pitch": 66, "duration": 18, "velocity": 78}, {"time": 2225, "pitch": 50, "duration": 45, "velocity": 72}, {"time": 2237, "pitch": 55, "duration": 28, "velocity": 58}, {"time": 2249, "pitch": 59, "duration": 14, "velocity": 60}, {"time": 2261, "pitch": 45, "duration": 36, "velocity": 82}, {"time": 2273, "pitch": 57, "duration": 35, "velocity": 62}, {"time": 2285, "pitch": 61, "duration": 15, "velocity": 76}, {"time": 2297, "pitch": 69, "duration": 30, "velocity": 75}, {"time": 2309, "pitch": 50, "duration": 26, "velocity": 84}, {"time": 2321, "pitch": 57, "duration": 18, "velocity": 72}, {"time": 2327, "pitch": 62, "duration": 9, "velocity": 73}, {"time": 2333, "pitch": 64, "duration": 14, "velocity": 80}, {"time": 2339, "pitch": 50, "duration": 14, "velocity": 84}, {"time": 2345, "pitch": 57, "duration": 13, "velocity": 72}, {"time": 2351, "pitch": 62, "duration": 5, "velocity": 58}, {"time": 2357, "pitch": 50, "duration": 32, "velocity": 84}, {"time": 2357, "pitch": 64, "duration": 28, "velocity": 78}, {"time": 2357, "pitch": 69, "duration": 30, "velocity": 79}, {"time": 2405, "pitch": 50, "duration": 82, "velocity": 83}, {"time": 2417, "pitch": 57, "duration": 71, "velocity": 72}, {"time": 2429, "pitch": 62, "duration": 17, "velocity": 73}, {"time": 2441, "pitch": 64, "duration": 13, "velocity": 76}, {"time": 2453, "pitch": 66, "duration": 27, "velocity": 80}, {"time": 2477, "pitch": 62, "duration": 37, "velocity": 71}, {"time": 2501, "pitch": 47, "duration": 82, "velocity": 79}, {"time": 2513, "pitch": 54, "duration": 15, "velocity": 71}, {"time": 2525, "pitch": 64, "duration": 22, "velocity": 82}, {"time": 2537, "pitch": 54, "duration": 47, "velocity": 72}, {"time": 2549, "pitch": 62, "duration": 20, "velocity": 71}, {"time": 2549, "pitch": 66, "duration": 46, "velocity": 73}, {"time": 2597, "pitch": 44, "duration": 80, "velocity": 90}, {"time": 2609, "pitch": 50, "duration": 67, "velocity": 76}, {"time": 2621, "pitch": 52, "duration": 31, "velocity": 73}, {"time": 2633, "pitch": 59, "duration": 37, "velocity": 79}, {"time": 2645, "pitch": 64, "duration": 24, "velocity": 78}, {"time": 2669, "pitch": 66, "duration": 27, "velocity": 69}, {"time": 2693, "pitch": 45, "duration": 88, "velocity": 60}, {"time": 2693, "pitch": 64, "duration": 28, "velocity": 77}, {"time": 2705, "pitch": 52, "duration": 46, "velocity": 67}, {"time": 2717, "pitch": 57, "duration": 69, "velocity": 60}, {"time": 2729, "pitch": 62, "duration": 12, "velocity": 78}, {"time": 2741, "pitch": 61, "duration": 27, "velocity": 75}, {"time": 2765, "pitch": 69, "duration": 25, "velocity": 55}, {"time": 2789, "pitch": 47, "duration": 88, "velocity": 78}, {"time": 2801, "pitch": 59, "duration": 41, "velocity": 69}, {"time": 2813, "pitch": 62, "duration": 12, "velocity": 76}, {"time": 2825, "pitch": 64, "duration": 12, "velocity": 79}, {"time": 2837, "pitch": 62, "duration": 22, "velocity": 76}, {"time": 2837, "pitch": 66, "duration": 24, "velocity": 76}, {"time": 2861, "pitch": 61, "duration": 13, "velocity": 46}, {"time": 2861, "pitch": 64, "duration": 18, "velocity": 76}, {"time": 2885, "pitch": 42, "duration": 85, "velocity": 82}, {"time": 2885, "pitch": 59, "duration": 6, "velocity": 50}, {"time": 2885, "pitch": 66, "duration": 23, "velocity": 72}, {"time": 2897, "pitch": 54, "duration": 76, "velocity": 69}, {"time": 2909, "pitch": 57, "duration": 51, "velocity": 73}, {"time": 2921, "pitch": 64, "duration": 21, "velocity": 80}, {"time": 2933, "pitch": 69, "duration": 29, "velocity": 78}, {"time": 2957, "pitch": 64, "duration": 21, "velocity": 82}, {"time": 2981, "pitch": 43, "duration": 88, "velocity": 78}, {"time": 2981, "pitch": 59, "duration": 26, "velocity": 62}, {"time": 2981, "pitch": 66, "duration": 24, "velocity": 73}, {"time": 2993, "pitch": 50, "duration": 84, "velocity": 73}, {"time": 3005, "pitch": 55, "duration": 35, "velocity": 71}, {"time": 3017, "pitch": 59, "duration": 16, "velocity": 78}, {"time": 3029, "pitch": 62, "duration": 36, "velocity": 83}, {"time": 3053, "pitch": 55, "duration": 22, "velocity": 62}, {"time": 3065, "pitch": 59, "duration": 13, "velocity": 72}, {"time": 3077, "pitch": 45, "duration": 17, "velocity": 83}, {"time": 3089, "pitch": 57, "duration": 10, "velocity": 60}, {"time": 3095, "pitch": 62, "duration": 13, "velocity": 79}, {"time": 3101, "pitch": 45, "duration": 24, "velocity": 82}, {"time": 3107, "pitch": 57, "duration": 17, "velocity": 75}, {"time": 3113, "pitch": 62, "duration": 7, "velocity": 79}, {"time": 3119, "pitch": 64, "duration": 5, "velocity": 80}, {"time": 3125, "pitch": 45, "duration": 42, "velocity": 80}, {"time": 3125, "pitch": 69, "duration": 36, "velocity": 77}, {"time": 3149, "pitch": 57, "duration": 14, "velocity": 60}, {"time": 3155, "pitch": 61, "duration": 6, "velocity": 61}, {"time": 3161, "pitch": 62, "duration": 7, "velocity": 72}, {"time": 3167, "pitch": 64, "duration": 5, "velocity": 75}, {"time": 3173, "pitch": 50, "duration": 38, "velocity": 82}, {"time": 3173, "pitch": 66, "duration": 12, "velocity": 73}, {"time": 3173, "pitch": 74, "duration": 13, "velocity": 86}, {"time": 3185, "pitch": 57, "duration": 14, "velocity": 73}, {"time": 3197, "pitch": 62, "duration": 12, "velocity": 49}, {"time": 3197, "pitch": 64, "duration": 12, "velocity": 50}, {"time": 3197, "pitch": 66, "duration": 9, "velocity": 52}, {"time": 3197, "pitch": 69, "duration": 13, "velocity": 59}, {"time": 3209, "pitch": 57, "duration": 51, "velocity": 70}, {"time": 3215, "pitch": 64, "duration": 43, "velocity": 44}, {"time": 3218, "pitch": 66, "duration": 31, "velocity": 53}, {"time": 3221, "pitch": 69, "duration": 29, "velocity": 73}, {"time": 3257, "pitch": 69, "duration": 10, "velocity": 76}, {"time": 3269, "pitch": 47, "duration": 83, "velocity": 81}, {"time": 3269, "pitch": 62, "duration": 20, "velocity": 78}, {"time": 3269, "pitch": 66, "duration": 26, "velocity": 81}, {"time": 3281, "pitch": 54, "duration": 72, "velocity": 72}, {"time": 3293, "pitch": 59, "duration": 18, "velocity": 60}, {"time": 3305, "pitch": 64, "duration": 11, "velocity": 79}, {"time": 3317, "pitch": 59, "duration": 9, "velocity": 16}, {"time": 3317, "pitch": 62, "duration": 20, "velocity": 76}, {"time": 3317, "pitch": 66, "duration": 21, "velocity": 79}, {"time": 3341, "pitch": 59, "duration": 8, "velocity": 51}, {"time": 3353, "pitch": 64, "duration": 11, "velocity": 75}, {"time": 3365, "pitch": 43, "duration": 48, "velocity": 76}, {"time": 3365, "pitch": 59, "duration": 15, "velocity": 59}, {"time": 3365, "pitch": 62, "duration": 13, "velocity": 75}, {"time": 3365, "pitch": 66, "duration": 13, "velocity": 76}, {"time": 3377, "pitch": 50, "duration": 36, "velocity": 76}, {"time": 3389, "pitch": 55, "duration": 20, "velocity": 47}, {"time": 3389, "pitch": 62, "duration": 12, "velocity": 81}, {"time": 3401, "pitch": 59, "duration": 9, "velocity": 57}, {"time": 3413, "pitch": 45, "duration": 12, "velocity": 80}, {"time": 3413, "pitch": 64, "duration": 37, "velocity": 68}, {"time": 3413, "pitch": 69, "duration": 35, "velocity": 73}, {"time": 3413, "pitch": 73, "duration": 38, "velocity": 78}, {"time": 3425, "pitch": 57, "duration": 14, "velocity": 63}, {"time": 3437, "pitch": 59, "duration": 19, "velocity": 78}, {"time": 3449, "pitch": 61, "duration": 6, "velocity": 80}, {"time": 3449, "pitch": 71, "duration": 11, "velocity": 71}, {"time": 3461, "pitch": 50, "duration": 41, "velocity": 83}, {"time": 3461, "pitch": 66, "duration": 26, "velocity": 61}, {"time": 3461, "pitch": 69, "duration": 23, "velocity": 71}, {"time": 3461, "pitch": 74, "duration": 27, "velocity": 80}, {"time": 3473, "pitch": 57, "duration": 22, "velocity": 73}, {"time": 3485, "pitch": 62, "duration": 13, "velocity": 76}, {"time": 3497, "pitch": 67, "duration": 12, "velocity": 82}, {"time": 3503, "pitch": 57, "duration": 44, "velocity": 73}, {"time": 3509, "pitch": 50, "duration": 38, "velocity": 82}, {"time": 3509, "pitch": 64, "duration": 29, "velocity": 49}, {"time": 3509, "pitch": 66, "duration": 36, "velocity": 72}, {"time": 3509, "pitch": 69, "duration": 21, "velocity": 63}, {"time": 3533, "pitch": 69, "duration": 14, "velocity": 71}, {"time": 3557, "pitch": 50, "duration": 35, "velocity": 78}, {"time": 3557, "pitch": 66, "duration": 14, "velocity": 67}, {"time": 3557, "pitch": 74, "duration": 14, "velocity": 78}, {"time": 3569, "pitch": 57, "duration": 28, "velocity": 71}, {"time": 3581, "pitch": 62, "duration": 11, "velocity": 59}, {"time": 3581, "pitch": 69, "duration": 12, "velocity": 77}, {"time": 3581, "pitch": 74, "duration": 3, "velocity": 59}, {"time": 3593, "pitch": 74, "duration": 9, "velocity": 86}, {"time": 3605, "pitch": 49, "duration": 40, "velocity": 75}, {"time": 3605, "pitch": 64, "duration": 17, "velocity": 74}, {"time": 3605, "pitch": 73, "duration": 23, "velocity": 83}, {"time": 3617, "pitch": 57, "duration": 14, "velocity": 38}, {"time": 3629, "pitch": 61, "duration": 10, "velocity": 72}, {"time": 3629, "pitch": 64, "duration": 12, "velocity": 75}, {"time": 3629, "pitch": 69, "duration": 15, "velocity": 80}, {"time": 3641, "pitch": 57, "duration": 4, "velocity": 71}, {"time": 3653, "pitch": 47, "duration": 36, "velocity": 76}, {"time": 3653, "pitch": 66, "duration": 15, "velocity": 73}, {"time": 3653, "pitch": 74, "duration": 21, "velocity": 78}, {"time": 3665, "pitch": 54, "duration": 13, "velocity": 69}, {"time": 3677, "pitch": 59, "duration": 10, "velocity": 59}, {"time": 3677, "pitch": 62, "duration": 12, "velocity": 59}, {"time": 3677, "pitch": 71, "duration": 13, "velocity": 80}, {"time": 3689, "pitch": 54, "duration": 10, "velocity": 75}, {"time": 3701, "pitch": 42, "duration": 12, "velocity": 82}, {"time": 3713, "pitch": 54, "duration": 15, "velocity": 69}, {"time": 3713, "pitch": 69, "duration": 12, "velocity": 73}, {"time": 3725, "pitch": 57, "duration": 13, "velocity": 73}, {"time": 3725, "pitch": 66, "duration": 12, "velocity": 77}, {"time": 3737, "pitch": 62, "duration": 10, "velocity": 83}, {"time": 3749, "pitch": 43, "duration": 36, "velocity": 79}, {"time": 3749, "pitch": 59, "duration": 14, "velocity": 70}, {"time": 3749, "pitch": 62, "duration": 14, "velocity": 82}, {"time": 3749, "pitch": 67, "duration": 13, "velocity": 80}, {"time": 3761, "pitch": 55, "duration": 19, "velocity": 54}, {"time": 3773, "pitch": 59, "duration": 11, "velocity": 70}, {"time": 3773, "pitch": 62, "duration": 11, "velocity": 81}, {"time": 3773, "pitch": 67, "duration": 10, "velocity": 80}, {"time": 3785, "pitch": 55, "duration": 11, "velocity": 75}, {"time": 3797, "pitch": 45, "duration": 35, "velocity": 82}, {"time": 3797, "pitch": 61, "duration": 13, "velocity": 76}, {"time": 3797, "pitch": 64, "duration": 12, "velocity": 84}, {"time": 3797, "pitch": 69, "duration": 14, "velocity": 78}, {"time": 3809, "pitch": 52, "duration": 23, "velocity": 60}, {"time": 3821, "pitch": 57, "duration": 24, "velocity": 61}, {"time": 3821, "pitch": 61, "duration": 12, "velocity": 78}, {"time": 3821, "pitch": 64, "duration": 11, "velocity": 84}, {"time": 3833, "pitch": 69, "duration": 12, "velocity": 84}, {"time": 3845, "pitch": 50, "duration": 37, "velocity": 79}, {"time": 3845, "pitch": 62, "duration": 10, "velocity": 81}, {"time": 3845, "pitch": 66, "duration": 12, "velocity": 75}, {"time": 3857, "pitch": 57, "duration": 37, "velocity": 58}, {"time": 3869, "pitch": 62, "duration": 16, "velocity": 45}, {"time": 3869, "pitch": 64, "duration": 35, "velocity": 68}, {"time": 3869, "pitch": 69, "duration": 11, "velocity": 75}, {"time": 3881, "pitch": 66, "duration": 25, "velocity": 75}, {"time": 3893, "pitch": 50, "duration": 16, "velocity": 72}, {"time": 3899, "pitch": 57, "duration": 19, "velocity": 72}, {"time": 3905, "pitch": 62, "duration": 5, "velocity": 80}, {"time": 3911, "pitch": 64, "duration": 8, "velocity": 75}, {"time": 3917, "pitch": 49, "duration": 10, "velocity": 82}, {"time": 3917, "pitch": 69, "duration": 7, "velocity": 83}, {"time": 3923, "pitch": 64, "duration": 8, "velocity": 72}, {"time": 3929, "pitch": 66, "duration": 6, "velocity": 82}, {"time": 3935, "pitch": 69, "duration": 6, "velocity": 30}, {"time": 3941, "pitch": 50, "duration": 37, "velocity": 81}, {"time": 3941, "pitch": 62, "duration": 13, "velocity": 73}, {"time": 3941, "pitch": 66, "duration": 13, "velocity": 79}, {"time": 3953, "pitch": 57, "duration": 16, "velocity": 59}, {"time": 3965, "pitch": 62, "duration": 13, "velocity": 78}, {"time": 3965, "pitch": 69, "duration": 15, "velocity": 81}, {"time": 3977, "pitch": 57, "duration": 12, "velocity": 71}, {"time": 3989, "pitch": 49, "duration": 41, "velocity": 79}, {"time": 3989, "pitch": 61, "duration": 14, "velocity": 74}, {"time": 3989, "pitch": 64, "duration": 16, "velocity": 77}, {"time": 3989, "pitch": 69, "duration": 13, "velocity": 71}, {"time": 4001, "pitch": 57, "duration": 26, "velocity": 62}, {"time": 4013, "pitch": 69, "duration": 8, "velocity": 76}, {"time": 4019, "pitch": 71, "duration": 4, "velocity": 71}, {"time": 4025, "pitch": 73, "duration": 5, "velocity": 80}, {"time": 4031, "pitch": 76, "duration": 4, "velocity": 70}, {"time": 4034, "pitch": 73, "duration": 3, "velocity": 45}, {"time": 4037, "pitch": 47, "duration": 35, "velocity": 78}, {"time": 4037, "pitch": 62, "duration": 9, "velocity": 82}, {"time": 4037, "pitch": 66, "duration": 10, "velocity": 75}, {"time": 4049, "pitch": 54, "duration": 23, "velocity": 72}, {"time": 4061, "pitch": 59, "duration": 9, "velocity": 61}, {"time": 4061, "pitch": 66, "duration": 8, "velocity": 74}, {"time": 4061, "pitch": 74, "duration": 8, "velocity": 86}, {"time": 4073, "pitch": 71, "duration": 10, "velocity": 78}, {"time": 4085, "pitch": 42, "duration": 33, "velocity": 83}, {"time": 4085, "pitch": 64, "duration": 13, "velocity": 75}, {"time": 4085, "pitch": 69, "duration": 12, "velocity": 77}, {"time": 4085, "pitch": 73, "duration": 12, "velocity": 83}, {"time": 4097, "pitch": 54, "duration": 23, "velocity": 58}, {"time": 4109, "pitch": 61, "duration": 12, "velocity": 78}, {"time": 4121, "pitch": 66, "duration": 2, "velocity": 82}, {"time": 4133, "pitch": 52, "duration": 35, "velocity": 76}, {"time": 4133, "pitch": 59, "duration": 17, "velocity": 63}, {"time": 4133, "pitch": 62, "duration": 14, "velocity": 82}, {"time": 4133, "pitch": 67, "duration": 16, "velocity": 79}, {"time": 4157, "pitch": 59, "duration": 12, "velocity": 71}, {"time": 4157, "pitch": 62, "duration": 10, "velocity": 84}, {"time": 4157, "pitch": 67, "duration": 8, "velocity": 80}, {"time": 4181, "pitch": 40, "duration": 36, "velocity": 36}, {"time": 4181, "pitch": 52, "duration": 39, "velocity": 53}, {"time": 4181, "pitch": 54, "duration": 5, "velocity": 58}, {"time": 4181, "pitch": 59, "duration": 18, "velocity": 69}, {"time": 4181, "pitch": 62, "duration": 17, "velocity": 82}, {"time": 4181, "pitch": 64, "duration": 17, "velocity": 83}, {"time": 4181, "pitch": 68, "duration": 29, "velocity": 86}, {"time": 4205, "pitch": 59, "duration": 13, "velocity": 59}, {"time": 4211, "pitch": 62, "duration": 5, "velocity": 83}, {"time": 4217, "pitch": 64, "duration": 7, "velocity": 77}, {"time": 4223, "pitch": 68, "duration": 3, "velocity": 80}, {"time": 4229, "pitch": 45, "duration": 84, "velocity": 76}, {"time": 4229, "pitch": 57, "duration": 12, "velocity": 61}, {"time": 4229, "pitch": 62, "duration": 12, "velocity": 78}, {"time": 4229, "pitch": 64, "duration": 11, "velocity": 73}, {"time": 4229, "pitch": 69, "duration": 15, "velocity": 62}, {"time": 4241, "pitch": 52, "duration": 14, "velocity": 68}, {"time": 4253, "pitch": 57, "duration": 14, "velocity": 49}, {"time": 4253, "pitch": 62, "duration": 10, "velocity": 75}, {"time": 4253, "pitch": 67, "duration": 11, "velocity": 82}, {"time": 4265, "pitch": 52, "duration": 46, "velocity": 72}, {"time": 4265, "pitch": 69, "duration": 2, "velocity": 76}, {"time": 4277, "pitch": 57, "duration": 34, "velocity": 46}, {"time": 4277, "pitch": 64, "duration": 13, "velocity": 58}, {"time": 4277, "pitch": 76, "duration": 12, "velocity": 72}, {"time": 4301, "pitch": 66, "duration": 12, "velocity": 69}, {"time": 4301, "pitch": 74, "duration": 10, "velocity": 82}, {"time": 4313, "pitch": 71, "duration": 3, "velocity": 81}, {"time": 4325, "pitch": 50, "duration": 35, "velocity": 79}, {"time": 4325, "pitch": 66, "duration": 5, "velocity": 47}, {"time": 4325, "pitch": 69, "duration": 13, "velocity": 78}, {"time": 4325, "pitch": 74, "duration": 12, "velocity": 84}, {"time": 4337, "pitch": 57, "duration": 24, "velocity": 57}, {"time": 4337, "pitch": 66, "duration": 14, "velocity": 54}, {"time": 4349, "pitch": 62, "duration": 8, "velocity": 51}, {"time": 4349, "pitch": 69, "duration": 12, "velocity": 76}, {"time": 4349, "pitch": 74, "duration": 11, "velocity": 79}, {"time": 4361, "pitch": 66, "duration": 7, "velocity": 74}, {"time": 4373, "pitch": 49, "duration": 41, "velocity": 74}, {"time": 4373, "pitch": 64, "duration": 17, "velocity": 71}, {"time": 4373, "pitch": 69, "duration": 16, "velocity": 77}, {"time": 4373, "pitch": 73, "duration": 16, "velocity": 81}, {"time": 4385, "pitch": 57, "duration": 18, "velocity": 52}, {"time": 4397, "pitch": 61, "duration": 13, "velocity": 61}, {"time": 4397, "pitch": 69, "duration": 13, "velocity": 79}, {"time": 4409, "pitch": 57, "duration": 3, "velocity": 59}, {"time": 4409, "pitch": 73, "duration": 10, "velocity": 84}, {"time": 4421, "pitch": 47, "duration": 38, "velocity": 74}, {"time": 4421, "pitch": 66, "duration": 16, "velocity": 72}, {"time": 4421, "pitch": 71, "duration": 15, "velocity": 77}, {"time": 4421, "pitch": 74, "duration": 15, "velocity": 82}, {"time": 4433, "pitch": 54, "duration": 13, "velocity": 18}, {"time": 4445, "pitch": 59, "duration": 11, "velocity": 52}, {"time": 4445, "pitch": 66, "duration": 12, "velocity": 72}, {"time": 4445, "pitch": 71, "duration": 11, "velocity": 76}, {"time": 4445, "pitch": 74, "duration": 12, "velocity": 83}, {"time": 4457, "pitch": 54, "duration": 3, "velocity": 61}, {"time": 4469, "pitch": 54, "duration": 36, "velocity": 71}, {"time": 4469, "pitch": 64, "duration": 14, "velocity": 72}, {"time": 4469, "pitch": 69, "duration": 14, "velocity": 75}, {"time": 4469, "pitch": 73, "duration": 15, "velocity": 80}, {"time": 4481, "pitch": 57, "duration": 23, "velocity": 68}, {"time": 4493, "pitch": 66, "duration": 10, "velocity": 72}, {"time": 4493, "pitch": 69, "duration": 11, "velocity": 69}, {"time": 4505, "pitch": 71, "duration": 11, "velocity": 72}, {"time": 4517, "pitch": 43, "duration": 36, "velocity": 34}, {"time": 4517, "pitch": 62, "duration": 18, "velocity": 55}, {"time": 4517, "pitch": 67, "duration": 16, "velocity": 80}, {"time": 4517, "pitch": 71, "duration": 24, "velocity": 62}, {"time": 4517, "pitch": 74, "duration": 24, "velocity": 56}, {"time": 4529, "pitch": 50, "duration": 34, "velocity": 75}, {"time": 4541, "pitch": 55, "duration": 16, "velocity": 71}, {"time": 4547, "pitch": 62, "duration": 4, "velocity": 75}, {"time": 4553, "pitch": 67, "duration": 5, "velocity": 80}, {"time": 4559, "pitch": 74, "duration": 8, "velocity": 83}, {"time": 4565, "pitch": 45, "duration": 27, "velocity": 75}, {"time": 4565, "pitch": 64, "duration": 17, "velocity": 73}, {"time": 4565, "pitch": 69, "duration": 17, "velocity": 76}, {"time": 4565, "pitch": 73, "duration": 22, "velocity": 82}, {"time": 4577, "pitch": 52, "duration": 19, "velocity": 68}, {"time": 4589, "pitch": 57, "duration": 20, "velocity": 61}, {"time": 4589, "pitch": 64, "duration": 8, "velocity": 73}, {"time": 4589, "pitch": 71, "duration": 10, "velocity": 72}, {"time": 4601, "pitch": 69, "duration": 9, "velocity": 78}, {"time": 4613, "pitch": 50, "duration": 38, "velocity": 78}, {"time": 4613, "pitch": 66, "duration": 20, "velocity": 72}, {"time": 4613, "pitch": 69, "duration": 22, "velocity": 76}, {"time": 4613, "pitch": 74, "duration": 24, "velocity": 83}, {"time": 4625, "pitch": 57, "duration": 37, "velocity": 60}, {"time": 4637, "pitch": 62, "duration": 16, "velocity": 73}, {"time": 4643, "pitch": 64, "duration": 7, "velocity": 76}, {"time": 4649, "pitch": 66, "duration": 8, "velocity": 78}, {"time": 4655, "pitch": 69, "duration": 5, "velocity": 71}, {"time": 4661, "pitch": 50, "duration": 12, "velocity": 80}, {"time": 4661, "pitch": 64, "duration": 12, "velocity": 71}, {"time": 4661, "pitch": 66, "duration": 13, "velocity": 59}, {"time": 4661, "pitch": 74, "duration": 15, "velocity": 78}, {"time": 4673, "pitch": 57, "duration": 13, "velocity": 62}, {"time": 4685, "pitch": 49, "duration": 13, "velocity": 82}, {"time": 4685, "pitch": 64, "duration": 14, "velocity": 77}, {"time": 4685, "pitch": 69, "duration": 14, "velocity": 81}, {"time": 4697, "pitch": 57, "duration": 12, "velocity": 71}, {"time": 4709, "pitch": 50, "duration": 37, "velocity": 75}, {"time": 4709, "pitch": 62, "duration": 11, "velocity": 69}, {"time": 4709, "pitch": 66, "duration": 11, "velocity": 75}, {"time": 4709, "pitch": 69, "duration": 13, "velocity": 76}, {"time": 4721, "pitch": 57, "duration": 31, "velocity": 68}, {"time": 4733, "pitch": 62, "duration": 12, "velocity": 79}, {"time": 4739, "pitch": 69, "duration": 5, "velocity": 67}, {"time": 4745, "pitch": 74, "duration": 5, "velocity": 82}, {"time": 4751, "pitch": 78, "duration": 6, "velocity": 75}, {"time": 4757, "pitch": 49, "duration": 38, "velocity": 78}, {"time": 4757, "pitch": 69, "duration": 12, "velocity": 69}, {"time": 4757, "pitch": 73, "duration": 11, "velocity": 76}, {"time": 4757, "pitch": 76, "duration": 10, "velocity": 80}, {"time": 4769, "pitch": 57, "duration": 19, "velocity": 53}, {"time": 4781, "pitch": 61, "duration": 9, "velocity": 62}, {"time": 4781, "pitch": 64, "duration": 11, "velocity": 73}, {"time": 4781, "pitch": 69, "duration": 11, "velocity": 81}, {"time": 4793, "pitch": 57, "duration": 3, "velocity": 72}, {"time": 4805, "pitch": 47, "duration": 34, "velocity": 62}, {"time": 4805, "pitch": 66, "duration": 25, "velocity": 70}, {"time": 4805, "pitch": 71, "duration": 26, "velocity": 73}, {"time": 4805, "pitch": 74, "duration": 25, "velocity": 78}, {"time": 4817, "pitch": 54, "duration": 24, "velocity": 69}, {"time": 4829, "pitch": 59, "duration": 11, "velocity": 61}, {"time": 4835, "pitch": 66, "duration": 4, "velocity": 69}, {"time": 4841, "pitch": 66, "duration": 2, "velocity": 39}, {"time": 4841, "pitch": 71, "duration": 5, "velocity": 76}, {"time": 4853, "pitch": 54, "duration": 35, "velocity": 79}, {"time": 4853, "pitch": 64, "duration": 17, "velocity": 73}, {"time": 4853, "pitch": 69, "duration": 13, "velocity": 75}, {"time": 4853, "pitch": 73, "duration": 16, "velocity": 83}, {"time": 4865, "pitch": 61, "duration": 22, "velocity": 60}, {"time": 4877, "pitch": 69, "duration": 10, "velocity": 75}, {"time": 4889, "pitch": 66, "duration": 3, "velocity": 75}, {"time": 4901, "pitch": 43, "duration": 39, "velocity": 79}, {"time": 4901, "pitch": 59, "duration": 15, "velocity": 58}, {"time": 4901, "pitch": 62, "duration": 14, "velocity": 69}, {"time": 4901, "pitch": 67, "duration": 13, "velocity": 69}, {"time": 4913, "pitch": 55, "duration": 17, "velocity": 33}, {"time": 4925, "pitch": 59, "duration": 15, "velocity": 68}, {"time": 4925, "pitch": 62, "duration": 12, "velocity": 80}, {"time": 4925, "pitch": 67, "duration": 12, "velocity": 80}, {"time": 4937, "pitch": 55, "duration": 4, "velocity": 59}, {"time": 4947, "pitch": 64, "duration": 17, "velocity": 55}, {"time": 4948, "pitch": 69, "duration": 17, "velocity": 75}, {"time": 4949, "pitch": 45, "duration": 36, "velocity": 78}, {"time": 4949, "pitch": 76, "duration": 13, "velocity": 76}, {"time": 4961, "pitch": 52, "duration": 23, "velocity": 72}, {"time": 4973, "pitch": 57, "duration": 22, "velocity": 47}, {"time": 4973, "pitch": 66, "duration": 7, "velocity": 69}, {"time": 4973, "pitch": 74, "duration": 7, "velocity": 82}, {"time": 4985, "pitch": 76, "duration": 3, "velocity": 80}, {"time": 4997, "pitch": 50, "duration": 39, "velocity": 80}, {"time": 4997, "pitch": 78, "duration": 11, "velocity": 62}, {"time": 5009, "pitch": 57, "duration": 23, "velocity": 59}, {"time": 5021, "pitch": 62, "duration": 11, "velocity": 40}, {"time": 5021, "pitch": 67, "duration": 10, "velocity": 68}, {"time": 5033, "pitch": 69, "duration": 8, "velocity": 68}, {"time": 5039, "pitch": 57, "duration": 32, "velocity": 74}, {"time": 5043, "pitch": 64, "duration": 24, "velocity": 52}, {"time": 5044, "pitch": 66, "duration": 26, "velocity": 62}, {"time": 5044, "pitch": 69, "duration": 25, "velocity": 54}, {"time": 5045, "pitch": 50, "duration": 26, "velocity": 71}, {"time": 5045, "pitch": 74, "duration": 26, "velocity": 68}, {"time": 5093, "pitch": 50, "duration": 43, "velocity": 80}, {"time": 5105, "pitch": 57, "duration": 25, "velocity": 61}, {"time": 5117, "pitch": 62, "duration": 12, "velocity": 83}, {"time": 5129, "pitch": 66, "duration": 24, "velocity": 77}, {"time": 5141, "pitch": 45, "duration": 47, "velocity": 53}, {"time": 5153, "pitch": 57, "duration": 14, "velocity": 63}, {"time": 5165, "pitch": 64, "duration": 12, "velocity": 82}, {"time": 5177, "pitch": 61, "duration": 12, "velocity": 72}, {"time": 5189, "pitch": 50, "duration": 49, "velocity": 82}, {"time": 5201, "pitch": 57, "duration": 24, "velocity": 43}, {"time": 5213, "pitch": 62, "duration": 12, "velocity": 61}, {"time": 5225, "pitch": 66, "duration": 24, "velocity": 68}, {"time": 5237, "pitch": 47, "duration": 41, "velocity": 79}, {"time": 5249, "pitch": 59, "duration": 23, "velocity": 56}, {"time": 5261, "pitch": 62, "duration": 11, "velocity": 68}, {"time": 5273, "pitch": 66, "duration": 18, "velocity": 72}, {"time": 5297, "pitch": 57, "duration": 14, "velocity": 59}, {"time": 5309, "pitch": 64, "duration": 12, "velocity": 83}, {"time": 5321, "pitch": 66, "duration": 21, "velocity": 82}, {"time": 5333, "pitch": 45, "duration": 48, "velocity": 71}, {"time": 5345, "pitch": 57, "duration": 37, "velocity": 61}, {"time": 5357, "pitch": 61, "duration": 12, "velocity": 83}, {"time": 5369, "pitch": 64, "duration": 28, "velocity": 83}, {"time": 5381, "pitch": 43, "duration": 46, "velocity": 76}, {"time": 5393, "pitch": 59, "duration": 22, "velocity": 62}, {"time": 5405, "pitch": 66, "duration": 12, "velocity": 79}, {"time": 5417, "pitch": 62, "duration": 14, "velocity": 80}, {"time": 5429, "pitch": 45, "duration": 45, "velocity": 84}, {"time": 5441, "pitch": 57, "duration": 15, "velocity": 60}, {"time": 5453, "pitch": 62, "duration": 13, "velocity": 83}, {"time": 5465, "pitch": 64, "duration": 11, "velocity": 82}, {"time": 5477, "pitch": 47, "duration": 35, "velocity": 84}, {"time": 5489, "pitch": 54, "duration": 26, "velocity": 76}, {"time": 5501, "pitch": 66, "duration": 10, "velocity": 75}, {"time": 5507, "pitch": 59, "duration": 6, "velocity": 60}, {"time": 5513, "pitch": 62, "duration": 5, "velocity": 77}, {"time": 5519, "pitch": 64, "duration": 6, "velocity": 78}, {"time": 5525, "pitch": 42, "duration": 37, "velocity": 83}, {"time": 5525, "pitch": 61, "duration": 23, "velocity": 78}, {"time": 5537, "pitch": 54, "duration": 36, "velocity": 71}, {"time": 5549, "pitch": 57, "duration": 14, "velocity": 71}, {"time": 5561, "pitch": 64, "duration": 11, "velocity": 77}, {"time": 5573, "pitch": 43, "duration": 35, "velocity": 79}, {"time": 5573, "pitch": 59, "duration": 18, "velocity": 69}, {"time": 5573, "pitch": 62, "duration": 14, "velocity": 83}, {"time": 5573, "pitch": 66, "duration": 13, "velocity": 79}, {"time": 5585, "pitch": 50, "duration": 27, "velocity": 73}, {"time": 5597, "pitch": 55, "duration": 14, "velocity": 59}, {"time": 5597, "pitch": 59, "duration": 16, "velocity": 72}, {"time": 5597, "pitch": 62, "duration": 14, "velocity": 79}, {"time": 5597, "pitch": 67, "duration": 21, "velocity": 80}, {"time": 5621, "pitch": 45, "duration": 36, "velocity": 75}, {"time": 5621, "pitch": 57, "duration": 15, "velocity": 70}, {"time": 5621, "pitch": 64, "duration": 25, "velocity": 82}, {"time": 5633, "pitch": 52, "duration": 25, "velocity": 56}, {"time": 5645, "pitch": 57, "duration": 14, "velocity": 69}, {"time": 5651, "pitch": 62, "duration": 4, "velocity": 76}, {"time": 5657, "pitch": 64, "duration": 6, "velocity": 76}, {"time": 5663, "pitch": 69, "duration": 7, "velocity": 76}, {"time": 5669, "pitch": 47, "duration": 36, "velocity": 77}, {"time": 5669, "pitch": 66, "duration": 34, "velocity": 83}, {"time": 5681, "pitch": 54, "duration": 18, "velocity": 72}, {"time": 5693, "pitch": 59, "duration": 11, "velocity": 59}, {"time": 5693, "pitch": 62, "duration": 10, "velocity": 90}, {"time": 5705, "pitch": 61, "duration": 7, "velocity": 71}, {"time": 5705, "pitch": 64, "duration": 11, "velocity": 80}, {"time": 5717, "pitch": 42, "duration": 38, "velocity": 84}, {"time": 5717, "pitch": 57, "duration": 12, "velocity": 59}, {"time": 5717, "pitch": 61, "duration": 12, "velocity": 82}, {"time": 5729, "pitch": 54, "duration": 19, "velocity": 75}, {"time": 5741, "pitch": 57, "duration": 14, "velocity": 60}, {"time": 5741, "pitch": 61, "duration": 13, "velocity": 80}, {"time": 5753, "pitch": 54, "duration": 12, "velocity": 62}, {"time": 5765, "pitch": 43, "duration": 79, "velocity": 86}, {"time": 5765, "pitch": 55, "duration": 81, "velocity": 80}, {"time": 5765, "pitch": 59, "duration": 29, "velocity": 76}, {"time": 5765, "pitch": 62, "duration": 32, "velocity": 84}, {"time": 5765, "pitch": 66, "duration": 34, "velocity": 79}, {"time": 5861, "pitch": 50, "duration": 50, "velocity": 84}, {"time": 5873, "pitch": 57, "duration": 14, "velocity": 63}, {"time": 5885, "pitch": 62, "duration": 12, "velocity": 80}, {"time": 5885, "pitch": 66, "duration": 17, "velocity": 76}, {"time": 5897, "pitch": 64, "duration": 12, "velocity": 82}, {"time": 5909, "pitch": 45, "duration": 35, "velocity": 73}, {"time": 5909, "pitch": 57, "duration": 35, "velocity": 58}, {"time": 5909, "pitch": 61, "duration": 13, "velocity": 78}, {"time": 5933, "pitch": 61, "duration": 10, "velocity": 70}, {"time": 5933, "pitch": 69, "duration": 18, "velocity": 73}, {"time": 5957, "pitch": 43, "duration": 37, "velocity": 79}, {"time": 5957, "pitch": 59, "duration": 15, "velocity": 67}, {"time": 5957, "pitch": 62, "duration": 15, "velocity": 78}, {"time": 5957, "pitch": 66, "duration": 16, "velocity": 72}, {"time": 5969, "pitch": 55, "duration": 29, "velocity": 52}, {"time": 5981, "pitch": 59, "duration": 12, "velocity": 58}, {"time": 5993, "pitch": 62, "duration": 9, "velocity": 78}, {"time": 6005, "pitch": 45, "duration": 68, "velocity": 80}, {"time": 6005, "pitch": 57, "duration": 26, "velocity": 72}, {"time": 6005, "pitch": 61, "duration": 37, "velocity": 79}, {"time": 6005, "pitch": 64, "duration": 36, "velocity": 80}, {"time": 6005, "pitch": 69, "duration": 36, "velocity": 75}, {"time": 6041, "pitch": 57, "duration": 32, "velocity": 59}, {"time": 6050, "pitch": 73, "duration": 23, "velocity": 40}, {"time": 6053, "pitch": 76, "duration": 21, "velocity": 68}, {"time": 6056, "pitch": 81, "duration": 20, "velocity": 60}, {"time": 6101, "pitch": 50, "duration": 86, "velocity": 83}, {"time": 6113, "pitch": 57, "duration": 71, "velocity": 78}, {"time": 6125, "pitch": 62, "duration": 13, "velocity": 90}, {"time": 6137, "pitch": 64, "duration": 13, "velocity": 86}, {"time": 6149, "pitch": 66, "duration": 26, "velocity": 83}, {"time": 6173, "pitch": 62, "duration": 37, "velocity": 81}, {"time": 6197, "pitch": 47, "duration": 84, "velocity": 79}, {"time": 6209, "pitch": 54, "duration": 72, "velocity": 72}, {"time": 6221, "pitch": 59, "duration": 55, "velocity": 67}, {"time": 6221, "pitch": 62, "duration": 13, "velocity": 83}, {"time": 6233, "pitch": 64, "duration": 13, "velocity": 83}, {"time": 6245, "pitch": 66, "duration": 26, "velocity": 80}, {"time": 6269, "pitch": 62, "duration": 36, "velocity": 51}, {"time": 6293, "pitch": 44, "duration": 83, "velocity": 98}, {"time": 6305, "pitch": 47, "duration": 71, "velocity": 78}, {"time": 6317, "pitch": 52, "duration": 60, "velocity": 79}, {"time": 6329, "pitch": 59, "duration": 16, "velocity": 78}, {"time": 6341, "pitch": 64, "duration": 48, "velocity": 83}, {"time": 6389, "pitch": 45, "duration": 18, "velocity": 80}, {"time": 6389, "pitch": 62, "duration": 27, "velocity": 82}, {"time": 6401, "pitch": 52, "duration": 71, "velocity": 71}, {"time": 6413, "pitch": 57, "duration": 59, "velocity": 61}, {"time": 6425, "pitch": 62, "duration": 6, "velocity": 94}, {"time": 6431, "pitch": 64, "duration": 3, "velocity": 73}, {"time": 6434, "pitch": 62, "duration": 3, "velocity": 75}, {"time": 6437, "pitch": 61, "duration": 38, "velocity": 83}, {"time": 6485, "pitch": 47, "duration": 83, "velocity": 83}, {"time": 6497, "pitch": 54, "duration": 70, "velocity": 75}, {"time": 6509, "pitch": 59, "duration": 51, "velocity": 71}, {"time": 6521, "pitch": 62, "duration": 14, "velocity": 72}, {"time": 6533, "pitch": 66, "duration": 27, "velocity": 78}, {"time": 6557, "pitch": 62, "duration": 27, "velocity": 82}, {"time": 6581, "pitch": 42, "duration": 83, "velocity": 84}, {"time": 6593, "pitch": 54, "duration": 74, "velocity": 68}, {"time": 6605, "pitch": 57, "duration": 14, "velocity": 71}, {"time": 6617, "pitch": 61, "duration": 13, "velocity": 82}, {"time": 6629, "pitch": 64, "duration": 32, "velocity": 80}, {"time": 6653, "pitch": 61, "duration": 12, "velocity": 58}, {"time": 6677, "pitch": 43, "duration": 85, "velocity": 72}, {"time": 6677, "pitch": 66, "duration": 15, "velocity": 78}, {"time": 6689, "pitch": 55, "duration": 48, "velocity": 68}, {"time": 6701, "pitch": 59, "duration": 14, "velocity": 73}, {"time": 6713, "pitch": 62, "duration": 39, "velocity": 80}, {"time": 6749, "pitch": 69, "duration": 13, "velocity": 62}, {"time": 6761, "pitch": 66, "duration": 14, "velocity": 62}, {"time": 6773, "pitch": 45, "duration": 21, "velocity": 80}, {"time": 6785, "pitch": 52, "duration": 14, "velocity": 76}, {"time": 6791, "pitch": 57, "duration": 6, "velocity": 50}, {"time": 6797, "pitch": 45, "duration": 60, "velocity": 84}, {"time": 6803, "pitch": 52, "duration": 52, "velocity": 83}, {"time": 6809, "pitch": 57, "duration": 44, "velocity": 73}, {"time": 6815, "pitch": 61, "duration": 9, "velocity": 57}, {"time": 6821, "pitch": 69, "duration": 41, "velocity": 83}, {"time": 6869, "pitch": 50, "duration": 88, "velocity": 78}, {"time": 6869, "pitch": 66, "duration": 19, "velocity": 69}, {"time": 6869, "pitch": 74, "duration": 23, "velocity": 83}, {"time": 6881, "pitch": 57, "duration": 27, "velocity": 68}, {"time": 6893, "pitch": 62, "duration": 29, "velocity": 80}, {"time": 6905, "pitch": 64, "duration": 9, "velocity": 78}, {"time": 6905, "pitch": 69, "duration": 14, "velocity": 82}, {"time": 6911, "pitch": 57, "duration": 46, "velocity": 56}, {"time": 6917, "pitch": 64, "duration": 1, "velocity": 59}, {"time": 6917, "pitch": 66, "duration": 34, "velocity": 86}, {"time": 6953, "pitch": 69, "duration": 11, "velocity": 84}, {"time": 6965, "pitch": 47, "duration": 84, "velocity": 79}, {"time": 6965, "pitch": 62, "duration": 25, "velocity": 84}, {"time": 6965, "pitch": 66, "duration": 28, "velocity": 81}, {"time": 6977, "pitch": 54, "duration": 73, "velocity": 76}, {"time": 6989, "pitch": 59, "duration": 35, "velocity": 72}, {"time": 7001, "pitch": 61, "duration": 12, "velocity": 74}, {"time": 7001, "pitch": 64, "duration": 14, "velocity": 86}, {"time": 7013, "pitch": 62, "duration": 15, "velocity": 81}, {"time": 7013, "pitch": 66, "duration": 18, "velocity": 81}, {"time": 7028, "pitch": 59, "duration": 13, "velocity": 31}, {"time": 7037, "pitch": 62, "duration": 8, "velocity": 63}, {"time": 7037, "pitch": 69, "duration": 11, "velocity": 82}, {"time": 7049, "pitch": 66, "duration": 8, "velocity": 73}, {"time": 7061, "pitch": 43, "duration": 35, "velocity": 73}, {"time": 7061, "pitch": 67, "duration": 29, "velocity": 81}, {"time": 7073, "pitch": 50, "duration": 26, "velocity": 79}, {"time": 7085, "pitch": 55, "duration": 21, "velocity": 73}, {"time": 7097, "pitch": 59, "duration": 10, "velocity": 74}, {"time": 7109, "pitch": 45, "duration": 35, "velocity": 73}, {"time": 7109, "pitch": 64, "duration": 23, "velocity": 82}, {"time": 7109, "pitch": 69, "duration": 25, "velocity": 78}, {"time": 7121, "pitch": 52, "duration": 23, "velocity": 61}, {"time": 7133, "pitch": 57, "duration": 23, "velocity": 71}, {"time": 7133, "pitch": 62, "duration": 11, "velocity": 90}, {"time": 7145, "pitch": 64, "duration": 13, "velocity": 83}, {"time": 7157, "pitch": 50, "duration": 36, "velocity": 80}, {"time": 7157, "pitch": 62, "duration": 10, "velocity": 81}, {"time": 7157, "pitch": 66, "duration": 12, "velocity": 78}, {"time": 7169, "pitch": 57, "duration": 13, "velocity": 61}, {"time": 7181, "pitch": 62, "duration": 12, "velocity": 56}, {"time": 7181, "pitch": 64, "duration": 10, "velocity": 75}, {"time": 7181, "pitch": 69, "duration": 11, "velocity": 79}, {"time": 7193, "pitch": 57, "duration": 13, "velocity": 79}, {"time": 7199, "pitch": 66, "duration": 9, "velocity": 68}, {"time": 7205, "pitch": 50, "duration": 35, "velocity": 80}, {"time": 7205, "pitch": 69, "duration": 21, "velocity": 79}, {"time": 7229, "pitch": 57, "duration": 13, "velocity": 72}, {"time": 7229, "pitch": 64, "duration": 13, "velocity": 70}, {"time": 7241, "pitch": 69, "duration": 7, "velocity": 75}, {"time": 7253, "pitch": 50, "duration": 35, "velocity": 78}, {"time": 7253, "pitch": 66, "duration": 14, "velocity": 67}, {"time": 7253, "pitch": 74, "duration": 14, "velocity": 78}, {"time": 7265, "pitch": 57, "duration": 28, "velocity": 71}, {"time": 7277, "pitch": 62, "duration": 11, "velocity": 59}, {"time": 7277, "pitch": 69, "duration": 12, "velocity": 77}, {"time": 7277, "pitch": 74, "duration": 3, "velocity": 59}, {"time": 7289, "pitch": 74, "duration": 9, "velocity": 86}, {"time": 7301, "pitch": 49, "duration": 40, "velocity": 75}, {"time": 7301, "pitch": 64, "duration": 17, "velocity": 74}, {"time": 7301, "pitch": 73, "duration": 23, "velocity": 83}, {"time": 7313, "pitch": 57, "duration": 14, "velocity": 38}, {"time": 7325, "pitch": 61, "duration": 10, "velocity": 72}, {"time": 7325, "pitch": 64, "duration": 12, "velocity": 75}, {"time": 7325, "pitch": 69, "duration": 15, "velocity": 80}, {"time": 7337, "pitch": 57, "duration": 4, "velocity": 71}, {"time": 7349, "pitch": 47, "duration": 36, "velocity": 76}, {"time": 7349, "pitch": 66, "duration": 15, "velocity": 73}, {"time": 7349, "pitch": 74, "duration": 21, "velocity": 78}, {"time": 7361, "pitch": 54, "duration": 13, "velocity": 69}, {"time": 7373, "pitch": 59, "duration": 10, "velocity": 59}, {"time": 7373, "pitch": 62, "duration": 12, "velocity": 59}, {"time": 7373, "pitch": 71, "duration": 13, "velocity": 80}, {"time": 7385, "pitch": 54, "duration": 10, "velocity": 75}, {"time": 7397, "pitch": 42, "duration": 12, "velocity": 82}, {"time": 7409, "pitch": 54, "duration": 15, "velocity": 69}, {"time": 7409, "pitch": 69, "duration": 12, "velocity": 73}, {"time": 7421, "pitch": 57, "duration": 13, "velocity": 73}, {"time": 7421, "pitch": 66, "duration": 12, "velocity": 77}, {"time": 7433, "pitch": 62, "duration": 10, "velocity": 83}, {"time": 7445, "pitch": 43, "duration": 36, "velocity": 79}, {"time": 7445, "pitch": 59, "duration": 14, "velocity": 70}, {"time": 7445, "pitch": 62, "duration": 14, "velocity": 82}, {"time": 7445, "pitch": 67, "duration": 13, "velocity": 80}, {"time": 7457, "pitch": 55, "duration": 19, "velocity": 54}, {"time": 7469, "pitch": 59, "duration": 11, "velocity": 70}, {"time": 7469, "pitch": 62, "duration": 11, "velocity": 81}, {"time": 7469, "pitch": 67, "duration": 10, "velocity": 80}, {"time": 7481, "pitch": 55, "duration": 11, "velocity": 75}, {"time": 7493, "pitch": 45, "duration": 35, "velocity": 82}, {"time": 7493, "pitch": 61, "duration": 13, "velocity": 76}, {"time": 7493, "pitch": 64, "duration": 12, "velocity": 84}, {"time": 7493, "pitch": 69, "duration": 14, "velocity": 78}, {"time": 7505, "pitch": 52, "duration": 23, "velocity": 60}, {"time": 7517, "pitch": 57, "duration": 24, "velocity": 61}, {"time": 7517, "pitch": 61, "duration": 12, "velocity": 78}, {"time": 7517, "pitch": 64, "duration": 11, "velocity": 84}, {"time": 7529, "pitch": 69, "duration": 12, "velocity": 84}, {"time": 7541, "pitch": 50, "duration": 37, "velocity": 79}, {"time": 7541, "pitch": 62, "duration": 10, "velocity": 81}, {"time": 7541, "pitch": 66, "duration": 12, "velocity": 75}, {"time": 7553, "pitch": 57, "duration": 37, "velocity": 58}, {"time": 7565, "pitch": 62, "duration": 16, "velocity": 45}, {"time": 7565, "pitch": 64, "duration": 35, "velocity": 68}, {"time": 7565, "pitch": 69, "duration": 11, "velocity": 75}, {"time": 7577, "pitch": 66, "duration": 25, "velocity": 75}, {"time": 7589, "pitch": 50, "duration": 16, "velocity": 72}, {"time": 7595, "pitch": 57, "duration": 19, "velocity": 72}, {"time": 7601, "pitch": 62, "duration": 5, "velocity": 80}, {"time": 7607, "pitch": 64, "duration": 8, "velocity": 75}, {"time": 7613, "pitch": 49, "duration": 10, "velocity": 82}, {"time": 7613, "pitch": 69, "duration": 7, "velocity": 83}, {"time": 7619, "pitch": 64, "duration": 8, "velocity": 72}, {"time": 7625, "pitch": 66, "duration": 6, "velocity": 82}, {"time": 7631, "pitch": 69, "duration": 6, "velocity": 30}, {"time": 7637, "pitch": 50, "duration": 37, "velocity": 81}, {"time": 7637, "pitch": 62, "duration": 13, "velocity": 73}, {"time": 7637, "pitch": 66, "duration": 13, "velocity": 79}, {"time": 7649, "pitch": 57, "duration": 16, "velocity": 59}, {"time": 7661, "pitch": 62, "duration": 13, "velocity": 78}, {"time": 7661, "pitch": 69, "duration": 15, "velocity": 81}, {"time": 7673, "pitch": 57, "duration": 12, "velocity": 71}, {"time": 7685, "pitch": 49, "duration": 41, "velocity": 79}, {"time": 7685, "pitch": 61, "duration": 14, "velocity": 74}, {"time": 7685, "pitch": 64, "duration": 16, "velocity": 77}, {"time": 7685, "pitch": 69, "duration": 13, "velocity": 71}, {"time": 7697, "pitch": 57, "duration": 26, "velocity": 62}, {"time": 7709, "pitch": 69, "duration": 8, "velocity": 76}, {"time": 7715, "pitch": 71, "duration": 4, "velocity": 71}, {"time": 7721, "pitch": 73, "duration": 5, "velocity": 80}, {"time": 7727, "pitch": 76, "duration": 4, "velocity": 70}, {"time": 7730, "pitch": 73, "duration": 3, "velocity": 45}, {"time": 7733, "pitch": 47, "duration": 35, "velocity": 78}, {"time": 7733, "pitch": 62, "duration": 9, "velocity": 82}, {"time": 7733, "pitch": 66, "duration": 10, "velocity": 75}, {"time": 7745, "pitch": 54, "duration": 23, "velocity": 72}, {"time": 7757, "pitch": 59, "duration": 9, "velocity": 61}, {"time": 7757, "pitch": 66, "duration": 8, "velocity": 74}, {"time": 7757, "pitch": 74, "duration": 8, "velocity": 86}, {"time": 7769, "pitch": 71, "duration": 10, "velocity": 78}, {"time": 7781, "pitch": 42, "duration": 33, "velocity": 83}, {"time": 7781, "pitch": 64, "duration": 13, "velocity": 75}, {"time": 7781, "pitch": 69, "duration": 12, "velocity": 77}, {"time": 7781, "pitch": 73, "duration": 12, "velocity": 83}, {"time": 7793, "pitch": 54, "duration": 23, "velocity": 58}, {"time": 7805, "pitch": 61, "duration": 12, "velocity": 78}, {"time": 7817, "pitch": 66, "duration": 2, "velocity": 82}, {"time": 7829, "pitch": 52, "duration": 35, "velocity": 76}, {"time": 7829, "pitch": 59, "duration": 17, "velocity": 63}, {"time": 7829, "pitch": 62, "duration": 14, "velocity": 82}, {"time": 7829, "pitch": 67, "duration": 16, "velocity": 79}, {"time": 7853, "pitch": 59, "duration": 12, "velocity": 71}, {"time": 7853, "pitch": 62, "duration": 10, "velocity": 84}, {"time": 7853, "pitch": 67, "duration": 8, "velocity": 80}, {"time": 7877, "pitch": 40, "duration": 36, "velocity": 36}, {"time": 7877, "pitch": 52, "duration": 39, "velocity": 53}, {"time": 7877, "pitch": 54, "duration": 5, "velocity": 58}, {"time": 7877, "pitch": 59, "duration": 18, "velocity": 69}, {"time": 7877, "pitch": 62, "duration": 17, "velocity": 82}, {"time": 7877, "pitch": 64, "duration": 17, "velocity": 83}, {"time": 7877, "pitch": 68, "duration": 29, "velocity": 86}, {"time": 7901, "pitch": 59, "duration": 13, "velocity": 59}, {"time": 7907, "pitch": 62, "duration": 5, "velocity": 83}, {"time": 7913, "pitch": 64, "duration": 7, "velocity": 77}, {"time": 7919, "pitch": 68, "duration": 3, "velocity": 80}, {"time": 7925, "pitch": 45, "duration": 84, "velocity": 76}, {"time": 7925, "pitch": 57, "duration": 12, "velocity": 61}, {"time": 7925, "pitch": 62, "duration": 12, "velocity": 78}, {"time": 7925, "pitch": 64, "duration": 11, "velocity": 73}, {"time": 7925, "pitch": 69, "duration": 15, "velocity": 62}, {"time": 7937, "pitch": 52, "duration": 14, "velocity": 68}, {"time": 7949, "pitch": 57, "duration": 14, "velocity": 49}, {"time": 7949, "pitch": 62, "duration": 10, "velocity": 75}, {"time": 7949, "pitch": 67, "duration": 11, "velocity": 82}, {"time": 7961, "pitch": 52, "duration": 46, "velocity": 72}, {"time": 7961, "pitch": 69, "duration": 2, "velocity": 76}, {"time": 7973, "pitch": 57, "duration": 34, "velocity": 46}, {"time": 7973, "pitch": 64, "duration": 13, "velocity": 58}, {"time": 7973, "pitch": 76, "duration": 12, "velocity": 72}, {"time": 7997, "pitch": 66, "duration": 12, "velocity": 69}, {"time": 7997, "pitch": 74, "duration": 10, "velocity": 82}, {"time": 8009, "pitch": 71, "duration": 3, "velocity": 81}, {"time": 8021, "pitch": 50, "duration": 35, "velocity": 79}, {"time": 8021, "pitch": 66, "duration": 5, "velocity": 47}, {"time": 8021, "pitch": 69, "duration": 13, "velocity": 78}, {"time": 8021, "pitch": 74, "duration": 12, "velocity": 84}, {"time": 8033, "pitch": 57, "duration": 24, "velocity": 57}, {"time": 8033, "pitch": 66, "duration": 14, "velocity": 54}, {"time": 8045, "pitch": 62, "duration": 8, "velocity": 51}, {"time": 8045, "pitch": 69, "duration": 12, "velocity": 76}, {"time": 8045, "pitch": 74, "duration": 11, "velocity": 79}, {"time": 8057, "pitch": 66, "duration": 7, "velocity": 74}, {"time": 8069, "pitch": 49, "duration": 41, "velocity": 74}, {"time": 8069, "pitch": 64, "duration": 17, "velocity": 71}, {"time": 8069, "pitch": 69, "duration": 16, "velocity": 77}, {"time": 8069, "pitch": 73, "duration": 16, "velocity": 81}, {"time": 8081, "pitch": 57, "duration": 18, "velocity": 52}, {"time": 8093, "pitch": 61, "duration": 13, "velocity": 61}, {"time": 8093, "pitch": 69, "duration": 13, "velocity": 79}, {"time": 8105, "pitch": 57, "duration": 3, "velocity": 59}, {"time": 8105, "pitch": 73, "duration": 10, "velocity": 84}, {"time": 8117, "pitch": 47, "duration": 38, "velocity": 74}, {"time": 8117, "pitch": 66, "duration": 16, "velocity": 72}, {"time": 8117, "pitch": 71, "duration": 15, "velocity": 77}, {"time": 8117, "pitch": 74, "duration": 15, "velocity": 82}, {"time": 8129, "pitch": 54, "duration": 13, "velocity": 18}, {"time": 8141, "pitch": 59, "duration": 11, "velocity": 52}, {"time": 8141, "pitch": 66, "duration": 12, "velocity": 72}, {"time": 8141, "pitch": 71, "duration": 11, "velocity": 76}, {"time": 8141, "pitch": 74, "duration": 12, "velocity": 83}, {"time": 8153, "pitch": 54, "duration": 3, "velocity": 61}, {"time": 8165, "pitch": 54, "duration": 36, "velocity": 71}, {"time": 8165, "pitch": 64, "duration": 14, "velocity": 72}, {"time": 8165, "pitch": 69, "duration": 14, "velocity": 75}, {"time": 8165, "pitch": 73, "duration": 15, "velocity": 80}, {"time": 8177, "pitch": 57, "duration": 23, "velocity": 68}, {"time": 8189, "pitch": 66, "duration": 10, "velocity": 72}, {"time": 8189, "pitch": 69, "duration": 11, "velocity": 69}, {"time": 8201, "pitch": 71, "duration": 11, "velocity": 72}, {"time": 8213, "pitch": 43, "duration": 36, "velocity": 34}, {"time": 8213, "pitch": 62, "duration": 18, "velocity": 55}, {"time": 8213, "pitch": 67, "duration": 16, "velocity": 80}, {"time": 8213, "pitch": 71, "duration": 24, "velocity": 62}, {"time": 8213, "pitch": 74, "duration": 24, "velocity": 56}, {"time": 8225, "pitch": 50, "duration": 34, "velocity": 75}, {"time": 8237, "pitch": 55, "duration": 16, "velocity": 71}, {"time": 8243, "pitch": 62, "duration": 4, "velocity": 75}, {"time": 8249, "pitch": 67, "duration": 5, "velocity": 80}, {"time": 8255, "pitch": 74, "duration": 8, "velocity": 83}, {"time": 8261, "pitch": 45, "duration": 27, "velocity": 75}, {"time": 8261, "pitch": 64, "duration": 17, "velocity": 73}, {"time": 8261, "pitch": 69, "duration": 17, "velocity": 76}, {"time": 8261, "pitch": 73, "duration": 22, "velocity": 82}, {"time": 8273, "pitch": 52, "duration": 19, "velocity": 68}, {"time": 8285, "pitch": 57, "duration": 20, "velocity": 61}, {"time": 8285, "pitch": 64, "duration": 8, "velocity": 73}, {"time": 8285, "pitch": 71, "duration": 10, "velocity": 72}, {"time": 8297, "pitch": 69, "duration": 9, "velocity": 78}, {"time": 8309, "pitch": 50, "duration": 38, "velocity": 78}, {"time": 8309, "pitch": 66, "duration": 20, "velocity": 72}, {"time": 8309, "pitch": 69, "duration": 22, "velocity": 76}, {"time": 8309, "pitch": 74, "duration": 24, "velocity": 83}, {"time": 8321, "pitch": 57, "duration": 37, "velocity": 60}, {"time": 8333, "pitch": 62, "duration": 16, "velocity": 73}, {"time": 8339, "pitch": 64, "duration": 7, "velocity": 76}, {"time": 8345, "pitch": 66, "duration": 8, "velocity": 78}, {"time": 8351, "pitch": 69, "duration": 5, "velocity": 71}, {"time": 8357, "pitch": 50, "duration": 12, "velocity": 80}, {"time": 8357, "pitch": 64, "duration": 12, "velocity": 71}, {"time": 8357, "pitch": 66, "duration": 13, "velocity": 59}, {"time": 8357, "pitch": 74, "duration": 15, "velocity": 78}, {"time": 8369, "pitch": 57, "duration": 13, "velocity": 62}, {"time": 8381, "pitch": 49, "duration": 13, "velocity": 82}, {"time": 8381, "pitch": 64, "duration": 14, "velocity": 77}, {"time": 8381, "pitch": 69, "duration": 14, "velocity": 81}, {"time": 8393, "pitch": 57, "duration": 12, "velocity": 71}, {"time": 8405, "pitch": 50, "duration": 37, "velocity": 75}, {"time": 8405, "pitch": 62, "duration": 11, "velocity": 69}, {"time": 8405, "pitch": 66, "duration": 11, "velocity": 75}, {"time": 8405, "pitch": 69, "duration": 13, "velocity": 76}, {"time": 8417, "pitch": 57, "duration": 31, "velocity": 68}, {"time": 8429, "pitch": 62, "duration": 12, "velocity": 79}, {"time": 8435, "pitch": 69, "duration": 5, "velocity": 67}, {"time": 8441, "pitch": 74, "duration": 5, "velocity": 82}, {"time": 8447, "pitch": 78, "duration": 6, "velocity": 75}, {"time": 8453, "pitch": 49, "duration": 38, "velocity": 78}, {"time": 8453, "pitch": 69, "duration": 12, "velocity": 69}, {"time": 8453, "pitch": 73, "duration": 11, "velocity": 76}, {"time": 8453, "pitch": 76, "duration": 10, "velocity": 80}, {"time": 8465, "pitch": 57, "duration": 19, "velocity": 53}, {"time": 8477, "pitch": 61, "duration": 9, "velocity": 62}, {"time": 8477, "pitch": 64, "duration": 11, "velocity": 73}, {"time": 8477, "pitch": 69, "duration": 11, "velocity": 81}, {"time": 8489, "pitch": 57, "duration": 3, "velocity": 72}, {"time": 8501, "pitch": 47, "duration": 34, "velocity": 62}, {"time": 8501, "pitch": 66, "duration": 25, "velocity": 70}, {"time": 8501, "pitch": 71, "duration": 26, "velocity": 73}, {"time": 8501, "pitch": 74, "duration": 25, "velocity": 78}, {"time": 8513, "pitch": 54, "duration": 24, "velocity": 69}, {"time": 8525, "pitch": 59, "duration": 11, "velocity": 61}, {"time": 8531, "pitch": 66, "duration": 4, "velocity": 69}, {"time": 8537, "pitch": 66, "duration": 2, "velocity": 39}, {"time": 8537, "pitch": 71, "duration": 5, "velocity": 76}, {"time": 8543, "pitch": 74, "duration": 5, "velocity": 86}, {"time": 8549, "pitch": 54, "duration": 35, "velocity": 79}, {"time": 8549, "pitch": 64, "duration": 17, "velocity": 73}, {"time": 8549, "pitch": 69, "duration": 13, "velocity": 75}, {"time": 8549, "pitch": 73, "duration": 16, "velocity": 83}, {"time": 8561, "pitch": 61, "duration": 22, "velocity": 60}, {"time": 8573, "pitch": 69, "duration": 10, "velocity": 75}, {"time": 8585, "pitch": 66, "duration": 3, "velocity": 75}, {"time": 8597, "pitch": 43, "duration": 39, "velocity": 79}, {"time": 8597, "pitch": 59, "duration": 15, "velocity": 58}, {"time": 8597, "pitch": 62, "duration": 14, "velocity": 69}, {"time": 8597, "pitch": 67, "duration": 13, "velocity": 69}, {"time": 8609, "pitch": 55, "duration": 17, "velocity": 33}, {"time": 8621, "pitch": 59, "duration": 15, "velocity": 68}, {"time": 8621, "pitch": 62, "duration": 12, "velocity": 80}, {"time": 8621, "pitch": 67, "duration": 12, "velocity": 80}, {"time": 8633, "pitch": 55, "duration": 4, "velocity": 59}, {"time": 8642, "pitch": 64, "duration": 17, "velocity": 55}, {"time": 8642, "pitch": 69, "duration": 17, "velocity": 75}, {"time": 8645, "pitch": 45, "duration": 36, "velocity": 78}, {"time": 8645, "pitch": 76, "duration": 13, "velocity": 76}, {"time": 8657, "pitch": 52, "duration": 23, "velocity": 72}, {"time": 8669, "pitch": 57, "duration": 22, "velocity": 47}, {"time": 8669, "pitch": 66, "duration": 7, "velocity": 69}, {"time": 8669, "pitch": 74, "duration": 7, "velocity": 82}, {"time": 8681, "pitch": 76, "duration": 3, "velocity": 80}, {"time": 8693, "pitch": 50, "duration": 39, "velocity": 80}, {"time": 8693, "pitch": 78, "duration": 11, "velocity": 62}, {"time": 8705, "pitch": 57, "duration": 23, "velocity": 59}, {"time": 8717, "pitch": 62, "duration": 11, "velocity": 40}, {"time": 8717, "pitch": 67, "duration": 10, "velocity": 68}, {"time": 8729, "pitch": 69, "duration": 8, "velocity": 68}, {"time": 8735, "pitch": 57, "duration": 32, "velocity": 74}, {"time": 8738, "pitch": 50, "duration": 26, "velocity": 71}, {"time": 8738, "pitch": 64, "duration": 24, "velocity": 52}, {"time": 8738, "pitch": 66, "duration": 26, "velocity": 62}, {"time": 8738, "pitch": 69, "duration": 25, "velocity": 54}, {"time": 8738, "pitch": 74, "duration": 26, "velocity": 68}, {"time": 8786, "pitch": 55, "duration": 36, "velocity": 72}, {"time": 8786, "pitch": 62, "duration": 14, "velocity": 52}, {"time": 8786, "pitch": 67, "duration": 13, "velocity": 75}, {"time": 8786, "pitch": 71, "duration": 16, "velocity": 58}, {"time": 8801, "pitch": 59, "duration": 21, "velocity": 57}, {"time": 8813, "pitch": 62, "duration": 11, "velocity": 68}, {"time": 8825, "pitch": 67, "duration": 11, "velocity": 79}, {"time": 8837, "pitch": 45, "duration": 34, "velocity": 48}, {"time": 8837, "pitch": 64, "duration": 36, "velocity": 63}, {"time": 8837, "pitch": 69, "duration": 37, "velocity": 71}, {"time": 8837, "pitch": 73, "duration": 33, "velocity": 71}, {"time": 8885, "pitch": 50, "duration": 81, "velocity": 71}, {"time": 8885, "pitch": 66, "duration": 25, "velocity": 59}, {"time": 8885, "pitch": 74, "duration": 49, "velocity": 68}, {"time": 8897, "pitch": 57, "duration": 60, "velocity": 41}, {"time": 8909, "pitch": 62, "duration": 28, "velocity": 59}, {"time": 8921, "pitch": 64, "duration": 28, "velocity": 61}, {"time": 8933, "pitch": 69, "duration": 20, "velocity": 59}, {"time": 8945, "pitch": 62, "duration": 12, "velocity": 11}, {"time": 8951, "pitch": 64, "duration": 9, "velocity": 25}, {"time": 8957, "pitch": 69, "duration": 9, "velocity": 76}, {"time": 8963, "pitch": 57, "duration": 6, "velocity": 71}, {"time": 8969, "pitch": 64, "duration": 6, "velocity": 68}, {"time": 8975, "pitch": 74, "duration": 6, "velocity": 57}, {"time": 8981, "pitch": 45, "duration": 43, "velocity": 62}, {"time": 8981, "pitch": 64, "duration": 44, "velocity": 47}, {"time": 8981, "pitch": 69, "duration": 43, "velocity": 69}, {"time": 8981, "pitch": 76, "duration": 43, "velocity": 69}, {"time": 9198, "pitch": 64, "duration": 30, "velocity": 63}, {"time": 9198, "pitch": 66, "duration": 31, "velocity": 75}, {"time": 9198, "pitch": 38, "duration": 52, "velocity": 80}, {"time": 9199, "pitch": 50, "duration": 50, "velocity": 50}, {"time": 9200, "pitch": 69, "duration": 30, "velocity": 72}, {"time": 9202, "pitch": 73, "duration": 29, "velocity": 82}], "annotations": [{"time": 53, "annotation": {"number": 64, "value": 127}, "group": "control_change"}, {"time": 73, "annotation": {"number": 64, "value": 127}, "group": "control_change"}, {"time": 150, "annotation": {"number": 64, "value": 0}, "group": "control_change"}, {"time": 151, "annotation": {"number": 64, "value": 127}, "group": "control_change"}, {"time": 153, "annotation": {"number": 64, "value": 0}, "group": "control_change"}, {"time": 155, "annotation": {"number": 64, "value": 127}, "group": "control_change"}, {"time": 245, "annotation": {"number": 64, "value": 0}, "group": "control_change"}, {"time": 246, "annotation": {"number": 64, "value": 127}, "group": "control_change"}, {"time": 246, "annotation": {"number": 64, "value": 0}, "group": "control_change"}, {"time": 250, "annotation": {"number": 64, "value": 127}, "group": "control_change"}, {"time": 341, "annotation": {"number": 64, "value": 0}, "group": "control_change"}, {"time": 344, "annotation": {"number": 64, "value": 127}, "group": "control_change"}, {"time": 344, "annotation": {"number": 64, "value": 0}, "group": "control_change"}, {"time": 349, "annotation": {"number": 64, "value": 127}, "group": "control_change"}, {"time": 437, "annotation": {"number": 64, "value": 127}, "group": "control_change"}, {"time": 438, "annotation": {"number": 64, "value": 0}, "group": "control_change"}, {"time": 442, "annotation": {"number": 64, "value": 0}, "group": "control_change"}, {"time": 448, "annotation": {"number": 64, "value": 127}, "group": "control_change"}, {"time": 485, "annotation": {"number": 64, "value": 0}, "group": "control_change"}, {"time": 486, "annotation": {"number": 64, "value": 0}, "group": "control_change"}, {"time": 491, "annotation": {"number": 64, "value": 127}, "group": "control_change"}, {"time": 497, "annotation": {"number": 64, "value": 127}, "group": "control_change"}, {"time": 534, "annotation": {"number": 64, "value": 0}, "group": "control_change"}, {"time": 535, "annotation": {"number": 64, "value": 0}, "group": "control_change"}, {"time": 544, "annotation": {"number": 64, "value": 127}, "group": "control_change"}, {"time": 582, "annotation": {"number": 64, "value": 0}, "group": "control_change"}, {"time": 593, "annotation": {"number": 64, "value": 127}, "group": "control_change"}, {"time": 630, "annotation": {"number": 64, "value": 0}, "group": "control_change"}, {"time": 643, "annotation": {"number": 64, "value": 127}, "group": "control_change"}, {"time": 678, "annotation": {"number": 64, "value": 0}, "group": "control_change"}, {"time": 688, "annotation": {"number": 64, "value": 127}, "group": "control_change"}, {"time": 726, "annotation": {"number": 64, "value": 0}, "group": "control_change"}, {"time": 734, "annotation": {"number": 64, "value": 127}, "group": "control_change"}, {"time": 773, "annotation": {"number": 64, "value": 0}, "group": "control_change"}, {"time": 787, "annotation": {"number": 64, "value": 127}, "group": "control_change"}, {"time": 869, "annotation": {"number": 64, "value": 0}, "group": "control_change"}, {"time": 870, "annotation": {"number": 64, "value": 0}, "group": "control_change"}, {"time": 893, "annotation": {"number": 64, "value": 127}, "group": "control_change"}, {"time": 967, "annotation": {"number": 64, "value": 0}, "group": "control_change"}, {"time": 976, "annotation": {"number": 64, "value": 127}, "group": "control_change"}, {"time": 1061, "annotation": {"number": 64, "value": 0}, "group": "control_change"}, {"time": 1063, "annotation": {"number": 64, "value": 127}, "group": "control_change"}, {"time": 1157, "annotation": {"number": 64, "value": 0}, "group": "control_change"}, {"time": 1168, "annotation": {"number": 64, "value": 127}, "group": "control_change"}, {"time": 1253, "annotation": {"number": 64, "value": 0}, "group": "control_change"}, {"time": 1254, "annotation": {"number": 64, "value": 127}, "group": "control_change"}, {"time": 1349, "annotation": {"number": 64, "value": 0}, "group": "control_change"}, {"time": 1362, "annotation": {"number": 64, "value": 127}, "group": "control_change"}, {"time": 1447, "annotation": {"number": 64, "value": 0}, "group": "control_change"}, {"time": 1459, "annotation": {"number": 64, "value": 127}, "group": "control_change"}, {"time": 1541, "annotation": {"number": 64, "value": 127}, "group": "control_change"}, {"time": 1637, "annotation": {"number": 64, "value": 0}, "group": "control_change"}, {"time": 1640, "annotation": {"number": 64, "value": 127}, "group": "control_change"}, {"time": 1731, "annotation": {"number": 64, "value": 0}, "group": "control_change"}, {"time": 1752, "annotation": {"number": 64, "value": 127}, "group": "control_change"}, {"time": 1829, "annotation": {"number": 64, "value": 0}, "group": "control_change"}, {"time": 1841, "annotation": {"number": 64, "value": 127}, "group": "control_change"}, {"time": 1924, "annotation": {"number": 64, "value": 0}, "group": "control_change"}, {"time": 1939, "annotation": {"number": 64, "value": 127}, "group": "control_change"}, {"time": 2019, "annotation": {"number": 64, "value": 0}, "group": "control_change"}, {"time": 2024, "annotation": {"number": 64, "value": 127}, "group": "control_change"}, {"time": 2116, "annotation": {"number": 64, "value": 0}, "group": "control_change"}, {"time": 2131, "annotation": {"number": 64, "value": 127}, "group": "control_change"}, {"time": 2212, "annotation": {"number": 64, "value": 0}, "group": "control_change"}, {"time": 2229, "annotation": {"number": 64, "value": 127}, "group": "control_change"}, {"time": 2263, "annotation": {"number": 64, "value": 127}, "group": "control_change"}, {"time": 2280, "annotation": {"number": 64, "value": 0}, "group": "control_change"}, {"time": 2308, "annotation": {"number": 64, "value": 0}, "group": "control_change"}, {"time": 2315, "annotation": {"number": 64, "value": 127}, "group": "control_change"}, {"time": 2405, "annotation": {"number": 64, "value": 0}, "group": "control_change"}, {"time": 2409, "annotation": {"number": 64, "value": 127}, "group": "control_change"}, {"time": 2501, "annotation": {"number": 64, "value": 0}, "group": "control_change"}, {"time": 2514, "annotation": {"number": 64, "value": 127}, "group": "control_change"}, {"time": 2599, "annotation": {"number": 64, "value": 0}, "group": "control_change"}, {"time": 2611, "annotation": {"number": 64, "value": 127}, "group": "control_change"}, {"time": 2694, "annotation": {"number": 64, "value": 0}, "group": "control_change"}, {"time": 2706, "annotation": {"number": 64, "value": 127}, "group": "control_change"}, {"time": 2789, "annotation": {"number": 64, "value": 127}, "group": "control_change"}, {"time": 2791, "annotation": {"number": 64, "value": 0}, "group": "control_change"}, {"time": 2806, "annotation": {"number": 64, "value": 127}, "group": "control_change"}, {"time": 2816, "annotation": {"number": 64, "value": 0}, "group": "control_change"}, {"time": 2882, "annotation": {"number": 64, "value": 0}, "group": "control_change"}, {"time": 2897, "annotation": {"number": 64, "value": 127}, "group": "control_change"}, {"time": 2983, "annotation": {"number": 64, "value": 0}, "group": "control_change"}, {"time": 2992, "annotation": {"number": 64, "value": 127}, "group": "control_change"}, {"time": 3081, "annotation": {"number": 64, "value": 0}, "group": "control_change"}, {"time": 3091, "annotation": {"number": 64, "value": 127}, "group": "control_change"}, {"time": 3172, "annotation": {"number": 64, "value": 127}, "group": "control_change"}, {"time": 3269, "annotation": {"number": 64, "value": 0}, "group": "control_change"}, {"time": 3285, "annotation": {"number": 64, "value": 127}, "group": "control_change"}, {"time": 3364, "annotation": {"number": 64, "value": 0}, "group": "control_change"}, {"time": 3377, "annotation": {"number": 64, "value": 127}, "group": "control_change"}, {"time": 3412, "annotation": {"number": 64, "value": 127}, "group": "control_change"}, {"time": 3440, "annotation": {"number": 64, "value": 0}, "group": "control_change"}, {"time": 3461, "annotation": {"number": 64, "value": 0}, "group": "control_change"}, {"time": 3475, "annotation": {"number": 64, "value": 127}, "group": "control_change"}, {"time": 3557, "annotation": {"number": 64, "value": 0}, "group": "control_change"}, {"time": 3558, "annotation": {"number": 64, "value": 127}, "group": "control_change"}, {"time": 3604, "annotation": {"number": 64, "value": 0}, "group": "control_change"}, {"time": 3617, "annotation": {"number": 64, "value": 127}, "group": "control_change"}, {"time": 3654, "annotation": {"number": 64, "value": 0}, "group": "control_change"}, {"time": 3666, "annotation": {"number": 64, "value": 127}, "group": "control_change"}, {"time": 3699, "annotation": {"number": 64, "value": 0}, "group": "control_change"}, {"time": 3701, "annotation": {"number": 64, "value": 127}, "group": "control_change"}, {"time": 3749, "annotation": {"number": 64, "value": 0}, "group": "control_change"}, {"time": 3757, "annotation": {"number": 64, "value": 127}, "group": "control_change"}, {"time": 3798, "annotation": {"number": 64, "value": 0}, "group": "control_change"}, {"time": 3806, "annotation": {"number": 64, "value": 127}, "group": "control_change"}, {"time": 3845, "annotation": {"number": 64, "value": 0}, "group": "control_change"}, {"time": 3854, "annotation": {"number": 64, "value": 127}, "group": "control_change"}, {"time": 3939, "annotation": {"number": 64, "value": 0}, "group": "control_change"}, {"time": 3949, "annotation": {"number": 64, "value": 127}, "group": "control_change"}, {"time": 3989, "annotation": {"number": 64, "value": 0}, "group": "control_change"}, {"time": 3999, "annotation": {"number": 64, "value": 127}, "group": "control_change"}, {"time": 4037, "annotation": {"number": 64, "value": 0}, "group": "control_change"}, {"time": 4040, "annotation": {"number": 64, "value": 127}, "group": "control_change"}, {"time": 4085, "annotation": {"number": 64, "value": 0}, "group": "control_change"}, {"time": 4092, "annotation": {"number": 64, "value": 127}, "group": "control_change"}, {"time": 4131, "annotation": {"number": 64, "value": 0}, "group": "control_change"}, {"time": 4138, "annotation": {"number": 64, "value": 127}, "group": "control_change"}, {"time": 4180, "annotation": {"number": 64, "value": 0}, "group": "control_change"}, {"time": 4186, "annotation": {"number": 64, "value": 127}, "group": "control_change"}, {"time": 4228, "annotation": {"number": 64, "value": 0}, "group": "control_change"}, {"time": 4236, "annotation": {"number": 64, "value": 127}, "group": "control_change"}, {"time": 4324, "annotation": {"number": 64, "value": 0}, "group": "control_change"}, {"time": 4325, "annotation": {"number": 64, "value": 127}, "group": "control_change"}, {"time": 4374, "annotation": {"number": 64, "value": 0}, "group": "control_change"}, {"time": 4384, "annotation": {"number": 64, "value": 127}, "group": "control_change"}, {"time": 4422, "annotation": {"number": 64, "value": 0}, "group": "control_change"}, {"time": 4434, "annotation": {"number": 64, "value": 127}, "group": "control_change"}, {"time": 4468, "annotation": {"number": 64, "value": 0}, "group": "control_change"}, {"time": 4481, "annotation": {"number": 64, "value": 127}, "group": "control_change"}, {"time": 4517, "annotation": {"number": 64, "value": 0}, "group": "control_change"}, {"time": 4530, "annotation": {"number": 64, "value": 127}, "group": "control_change"}, {"time": 4564, "annotation": {"number": 64, "value": 0}, "group": "control_change"}, {"time": 4578, "annotation": {"number": 64, "value": 127}, "group": "control_change"}, {"time": 4614, "annotation": {"number": 64, "value": 0}, "group": "control_change"}, {"time": 4626, "annotation": {"number": 64, "value": 127}, "group": "control_change"}, {"time": 4687, "annotation": {"number": 64, "value": 0}, "group": "control_change"}, {"time": 4697, "annotation": {"number": 64, "value": 127}, "group": "control_change"}, {"time": 4709, "annotation": {"number": 64, "value": 0}, "group": "control_change"}, {"time": 4722, "annotation": {"number": 64, "value": 127}, "group": "control_change"}, {"time": 4758, "annotation": {"number": 64, "value": 0}, "group": "control_change"}, {"time": 4768, "annotation": {"number": 64, "value": 127}, "group": "control_change"}, {"time": 4805, "annotation": {"number": 64, "value": 0}, "group": "control_change"}, {"time": 4809, "annotation": {"number": 64, "value": 127}, "group": "control_change"}, {"time": 4853, "annotation": {"number": 64, "value": 0}, "group": "control_change"}, {"time": 4865, "annotation": {"number": 64, "value": 127}, "group": "control_change"}, {"time": 4901, "annotation": {"number": 64, "value": 0}, "group": "control_change"}, {"time": 4912, "annotation": {"number": 64, "value": 127}, "group": "control_change"}, {"time": 4949, "annotation": {"number": 64, "value": 0}, "group": "control_change"}, {"time": 4951, "annotation": {"number": 64, "value": 127}, "group": "control_change"}, {"time": 4999, "annotation": {"number": 64, "value": 0}, "group": "control_change"}, {"time": 5010, "annotation": {"number": 64, "value": 127}, "group": "control_change"}, {"time": 5091, "annotation": {"number": 64, "value": 0}, "group": "control_change"}, {"time": 5095, "annotation": {"number": 64, "value": 127}, "group": "control_change"}, {"time": 5144, "annotation": {"number": 64, "value": 0}, "group": "control_change"}, {"time": 5154, "annotation": {"number": 64, "value": 127}, "group": "control_change"}, {"time": 5191, "annotation": {"number": 64, "value": 0}, "group": "control_change"}, {"time": 5201, "annotation": {"number": 64, "value": 127}, "group": "control_change"}, {"time": 5237, "annotation": {"number": 64, "value": 0}, "group": "control_change"}, {"time": 5251, "annotation": {"number": 64, "value": 127}, "group": "control_change"}, {"time": 5286, "annotation": {"number": 64, "value": 0}, "group": "control_change"}, {"time": 5292, "annotation": {"number": 64, "value": 127}, "group": "control_change"}, {"time": 5333, "annotation": {"number": 64, "value": 0}, "group": "control_change"}, {"time": 5358, "annotation": {"number": 64, "value": 127}, "group": "control_change"}, {"time": 5381, "annotation": {"number": 64, "value": 0}, "group": "control_change"}, {"time": 5390, "annotation": {"number": 64, "value": 127}, "group": "control_change"}, {"time": 5428, "annotation": {"number": 64, "value": 0}, "group": "control_change"}, {"time": 5444, "annotation": {"number": 64, "value": 127}, "group": "control_change"}, {"time": 5480, "annotation": {"number": 64, "value": 127}, "group": "control_change"}, {"time": 5525, "annotation": {"number": 64, "value": 0}, "group": "control_change"}, {"time": 5528, "annotation": {"number": 64, "value": 110}, "group": "control_change"}, {"time": 5574, "annotation": {"number": 64, "value": 0}, "group": "control_change"}, {"time": 5587, "annotation": {"number": 64, "value": 127}, "group": "control_change"}, {"time": 5623, "annotation": {"number": 64, "value": 0}, "group": "control_change"}, {"time": 5633, "annotation": {"number": 64, "value": 127}, "group": "control_change"}, {"time": 5670, "annotation": {"number": 64, "value": 0}, "group": "control_change"}, {"time": 5683, "annotation": {"number": 64, "value": 127}, "group": "control_change"}, {"time": 5717, "annotation": {"number": 64, "value": 0}, "group": "control_change"}, {"time": 5728, "annotation": {"number": 64, "value": 127}, "group": "control_change"}, {"time": 5767, "annotation": {"number": 64, "value": 0}, "group": "control_change"}, {"time": 5768, "annotation": {"number": 64, "value": 127}, "group": "control_change"}, {"time": 5779, "annotation": {"number": 64, "value": 127}, "group": "control_change"}, {"time": 5862, "annotation": {"number": 64, "value": 0}, "group": "control_change"}, {"time": 5873, "annotation": {"number": 64, "value": 127}, "group": "control_change"}, {"time": 5911, "annotation": {"number": 64, "value": 0}, "group": "control_change"}, {"time": 5921, "annotation": {"number": 64, "value": 127}, "group": "control_change"}, {"time": 5955, "annotation": {"number": 64, "value": 0}, "group": "control_change"}, {"time": 5971, "annotation": {"number": 64, "value": 127}, "group": "control_change"}, {"time": 6005, "annotation": {"number": 64, "value": 0}, "group": "control_change"}, {"time": 6014, "annotation": {"number": 64, "value": 127}, "group": "control_change"}, {"time": 6101, "annotation": {"number": 64, "value": 0}, "group": "control_change"}, {"time": 6102, "annotation": {"number": 64, "value": 0}, "group": "control_change"}, {"time": 6125, "annotation": {"number": 64, "value": 127}, "group": "control_change"}, {"time": 6199, "annotation": {"number": 64, "value": 0}, "group": "control_change"}, {"time": 6208, "annotation": {"number": 64, "value": 127}, "group": "control_change"}, {"time": 6293, "annotation": {"number": 64, "value": 0}, "group": "control_change"}, {"time": 6295, "annotation": {"number": 64, "value": 127}, "group": "control_change"}, {"time": 6389, "annotation": {"number": 64, "value": 0}, "group": "control_change"}, {"time": 6400, "annotation": {"number": 64, "value": 127}, "group": "control_change"}, {"time": 6485, "annotation": {"number": 64, "value": 0}, "group": "control_change"}, {"time": 6486, "annotation": {"number": 64, "value": 127}, "group": "control_change"}, {"time": 6581, "annotation": {"number": 64, "value": 0}, "group": "control_change"}, {"time": 6594, "annotation": {"number": 64, "value": 127}, "group": "control_change"}, {"time": 6679, "annotation": {"number": 64, "value": 0}, "group": "control_change"}, {"time": 6691, "annotation": {"number": 64, "value": 127}, "group": "control_change"}, {"time": 6773, "annotation": {"number": 64, "value": 127}, "group": "control_change"}, {"time": 6869, "annotation": {"number": 64, "value": 0}, "group": "control_change"}, {"time": 6872, "annotation": {"number": 64, "value": 127}, "group": "control_change"}, {"time": 6963, "annotation": {"number": 64, "value": 0}, "group": "control_change"}, {"time": 6984, "annotation": {"number": 64, "value": 127}, "group": "control_change"}, {"time": 7061, "annotation": {"number": 64, "value": 0}, "group": "control_change"}, {"time": 7064, "annotation": {"number": 64, "value": 127}, "group": "control_change"}, {"time": 7109, "annotation": {"number": 64, "value": 0}, "group": "control_change"}, {"time": 7120, "annotation": {"number": 64, "value": 127}, "group": "control_change"}, {"time": 7156, "annotation": {"number": 64, "value": 0}, "group": "control_change"}, {"time": 7168, "annotation": {"number": 64, "value": 127}, "group": "control_change"}, {"time": 7252, "annotation": {"number": 64, "value": 0}, "group": "control_change"}, {"time": 7254, "annotation": {"number": 64, "value": 127}, "group": "control_change"}, {"time": 7300, "annotation": {"number": 64, "value": 0}, "group": "control_change"}, {"time": 7313, "annotation": {"number": 64, "value": 127}, "group": "control_change"}, {"time": 7350, "annotation": {"number": 64, "value": 0}, "group": "control_change"}, {"time": 7362, "annotation": {"number": 64, "value": 127}, "group": "control_change"}, {"time": 7395, "annotation": {"number": 64, "value": 0}, "group": "control_change"}, {"time": 7397, "annotation": {"number": 64, "value": 127}, "group": "control_change"}, {"time": 7445, "annotation": {"number": 64, "value": 0}, "group": "control_change"}, {"time": 7453, "annotation": {"number": 64, "value": 127}, "group": "control_change"}, {"time": 7494, "annotation": {"number": 64, "value": 0}, "group": "control_change"}, {"time": 7502, "annotation": {"number": 64, "value": 127}, "group": "control_change"}, {"time": 7541, "annotation": {"number": 64, "value": 0}, "group": "control_change"}, {"time": 7550, "annotation": {"number": 64, "value": 127}, "group": "control_change"}, {"time": 7635, "annotation": {"number": 64, "value": 0}, "group": "control_change"}, {"time": 7645, "annotation": {"number": 64, "value": 127}, "group": "control_change"}, {"time": 7685, "annotation": {"number": 64, "value": 0}, "group": "control_change"}, {"time": 7695, "annotation": {"number": 64, "value": 127}, "group": "control_change"}, {"time": 7733, "annotation": {"number": 64, "value": 0}, "group": "control_change"}, {"time": 7736, "annotation": {"number": 64, "value": 127}, "group": "control_change"}, {"time": 7781, "annotation": {"number": 64, "value": 0}, "group": "control_change"}, {"time": 7788, "annotation": {"number": 64, "value": 127}, "group": "control_change"}, {"time": 7827, "annotation": {"number": 64, "value": 0}, "group": "control_change"}, {"time": 7834, "annotation": {"number": 64, "value": 127}, "group": "control_change"}, {"time": 7876, "annotation": {"number": 64, "value": 0}, "group": "control_change"}, {"time": 7882, "annotation": {"number": 64, "value": 127}, "group": "control_change"}, {"time": 7924, "annotation": {"number": 64, "value": 0}, "group": "control_change"}, {"time": 7932, "annotation": {"number": 64, "value": 127}, "group": "control_change"}, {"time": 8020, "annotation": {"number": 64, "value": 0}, "group": "control_change"}, {"time": 8021, "annotation": {"number": 64, "value": 127}, "group": "control_change"}, {"time": 8070, "annotation": {"number": 64, "value": 0}, "group": "control_change"}, {"time": 8080, "annotation": {"number": 64, "value": 127}, "group": "control_change"}, {"time": 8118, "annotation": {"number": 64, "value": 0}, "group": "control_change"}, {"time": 8130, "annotation": {"number": 64, "value": 127}, "group": "control_change"}, {"time": 8164, "annotation": {"number": 64, "value": 0}, "group": "control_change"}, {"time": 8177, "annotation": {"number": 64, "value": 127}, "group": "control_change"}, {"time": 8213, "annotation": {"number": 64, "value": 0}, "group": "control_change"}, {"time": 8226, "annotation": {"number": 64, "value": 127}, "group": "control_change"}, {"time": 8260, "annotation": {"number": 64, "value": 0}, "group": "control_change"}, {"time": 8274, "annotation": {"number": 64, "value": 127}, "group": "control_change"}, {"time": 8310, "annotation": {"number": 64, "value": 0}, "group": "control_change"}, {"time": 8322, "annotation": {"number": 64, "value": 127}, "group": "control_change"}, {"time": 8383, "annotation": {"number": 64, "value": 0}, "group": "control_change"}, {"time": 8393, "annotation": {"number": 64, "value": 127}, "group": "control_change"}, {"time": 8405, "annotation": {"number": 64, "value": 0}, "group": "control_change"}, {"time": 8418, "annotation": {"number": 64, "value": 127}, "group": "control_change"}, {"time": 8454, "annotation": {"number": 64, "value": 0}, "group": "control_change"}, {"time": 8464, "annotation": {"number": 64, "value": 127}, "group": "control_change"}, {"time": 8501, "annotation": {"number": 64, "value": 0}, "group": "control_change"}, {"time": 8505, "annotation": {"number": 64, "value": 127}, "group": "control_change"}, {"time": 8549, "annotation": {"number": 64, "value": 0}, "group": "control_change"}, {"time": 8561, "annotation": {"number": 64, "value": 127}, "group": "control_change"}, {"time": 8597, "annotation": {"number": 64, "value": 0}, "group": "control_change"}, {"time": 8608, "annotation": {"number": 64, "value": 127}, "group": "control_change"}, {"time": 8645, "annotation": {"number": 64, "value": 0}, "group": "control_change"}, {"time": 8647, "annotation": {"number": 64, "value": 127}, "group": "control_change"}, {"time": 8695, "annotation": {"number": 64, "value": 0}, "group": "control_change"}, {"time": 8706, "annotation": {"number": 64, "value": 127}, "group": "control_change"}, {"time": 8787, "annotation": {"number": 64, "value": 0}, "group": "control_change"}, {"time": 8789, "annotation": {"number": 64, "value": 127}, "group": "control_change"}, {"time": 8837, "annotation": {"number": 64, "value": 0}, "group": "control_change"}, {"time": 8851, "annotation": {"number": 64, "value": 127}, "group": "control_change"}, {"time": 8886, "annotation": {"number": 64, "value": 0}, "group": "control_change"}, {"time": 8899, "annotation": {"number": 64, "value": 127}, "group": "control_change"}, {"time": 8981, "annotation": {"number": 64, "value": 0}, "group": "control_change"}, {"time": 8986, "annotation": {"number": 64, "value": 127}, "group": "control_change"}, {"time": 9053, "annotation": {"number": 64, "value": 0}, "group": "control_change"}, {"time": 9200, "annotation": {"number": 64, "value": 127}, "group": "control_change"}, {"time": 9320, "annotation": {"number": 64, "value": 0}, "group": "control_change"}]}]}