{"metadata": {"schema_version": "0.2", "title": "None", "source_filename": "251.mid", "source_format": "midi"}, "resolution": 12, "tempos": [{"time": 0, "qpm": 120.0}], "time_signatures": [{"time": 0, "numerator": 4, "denominator": 4}], "tracks": [{"program": 0, "is_drum": false, "name": "MELODY", "notes": [{"time": 690, "pitch": 67, "duration": 6, "velocity": 87}, {"time": 696, "pitch": 70, "duration": 6, "velocity": 96}, {"time": 702, "pitch": 74, "duration": 12, "velocity": 99}, {"time": 714, "pitch": 72, "duration": 7, "velocity": 89}, {"time": 720, "pitch": 70, "duration": 7, "velocity": 77}, {"time": 726, "pitch": 72, "duration": 12, "velocity": 83}, {"time": 738, "pitch": 70, "duration": 6, "velocity": 87}, {"time": 744, "pitch": 67, "duration": 7, "velocity": 76}, {"time": 750, "pitch": 70, "duration": 12, "velocity": 87}, {"time": 762, "pitch": 70, "duration": 6, "velocity": 65}, {"time": 768, "pitch": 67, "duration": 6, "velocity": 65}, {"time": 774, "pitch": 62, "duration": 24, "velocity": 72}, {"time": 798, "pitch": 67, "duration": 6, "velocity": 87}, {"time": 804, "pitch": 67, "duration": 6, "velocity": 75}, {"time": 810, "pitch": 67, "duration": 6, "velocity": 81}, {"time": 816, "pitch": 70, "duration": 6, "velocity": 68}, {"time": 822, "pitch": 69, "duration": 6, "velocity": 76}, {"time": 828, "pitch": 67, "duration": 6, "velocity": 72}, {"time": 834, "pitch": 65, "duration": 6, "velocity": 66}, {"time": 840, "pitch": 67, "duration": 12, "velocity": 81}, {"time": 852, "pitch": 65, "duration": 6, "velocity": 85}, {"time": 858, "pitch": 62, "duration": 24, "velocity": 66}, {"time": 882, "pitch": 67, "duration": 7, "velocity": 86}, {"time": 888, "pitch": 70, "duration": 6, "velocity": 86}, {"time": 894, "pitch": 74, "duration": 12, "velocity": 100}, {"time": 906, "pitch": 72, "duration": 7, "velocity": 89}, {"time": 912, "pitch": 70, "duration": 7, "velocity": 84}, {"time": 918, "pitch": 72, "duration": 13, "velocity": 90}, {"time": 930, "pitch": 70, "duration": 6, "velocity": 82}, {"time": 936, "pitch": 67, "duration": 6, "velocity": 68}, {"time": 942, "pitch": 70, "duration": 12, "velocity": 80}, {"time": 954, "pitch": 69, "duration": 6, "velocity": 82}, {"time": 960, "pitch": 67, "duration": 8, "velocity": 55}, {"time": 966, "pitch": 62, "duration": 24, "velocity": 65}, {"time": 990, "pitch": 67, "duration": 6, "velocity": 99}, {"time": 996, "pitch": 67, "duration": 6, "velocity": 90}, {"time": 1002, "pitch": 67, "duration": 6, "velocity": 87}, {"time": 1008, "pitch": 70, "duration": 6, "velocity": 98}, {"time": 1014, "pitch": 70, "duration": 6, "velocity": 93}, {"time": 1020, "pitch": 67, "duration": 6, "velocity": 77}, {"time": 1026, "pitch": 65, "duration": 12, "velocity": 87}, {"time": 1038, "pitch": 67, "duration": 36, "velocity": 103}, {"time": 1074, "pitch": 67, "duration": 6, "velocity": 90}, {"time": 1080, "pitch": 70, "duration": 6, "velocity": 93}, {"time": 1086, "pitch": 74, "duration": 12, "velocity": 99}, {"time": 1098, "pitch": 72, "duration": 6, "velocity": 90}, {"time": 1104, "pitch": 70, "duration": 6, "velocity": 90}, {"time": 1110, "pitch": 72, "duration": 12, "velocity": 92}, {"time": 1122, "pitch": 70, "duration": 6, "velocity": 86}, {"time": 1128, "pitch": 67, "duration": 6, "velocity": 75}, {"time": 1134, "pitch": 70, "duration": 12, "velocity": 90}, {"time": 1146, "pitch": 70, "duration": 6, "velocity": 79}, {"time": 1152, "pitch": 67, "duration": 8, "velocity": 79}, {"time": 1158, "pitch": 62, "duration": 24, "velocity": 91}, {"time": 1182, "pitch": 67, "duration": 6, "velocity": 97}, {"time": 1188, "pitch": 67, "duration": 6, "velocity": 87}, {"time": 1194, "pitch": 67, "duration": 6, "velocity": 91}, {"time": 1200, "pitch": 70, "duration": 6, "velocity": 99}, {"time": 1206, "pitch": 69, "duration": 6, "velocity": 82}, {"time": 1212, "pitch": 67, "duration": 6, "velocity": 84}, {"time": 1218, "pitch": 65, "duration": 6, "velocity": 68}, {"time": 1224, "pitch": 67, "duration": 12, "velocity": 87}, {"time": 1236, "pitch": 62, "duration": 12, "velocity": 80}, {"time": 1248, "pitch": 62, "duration": 18, "velocity": 67}, {"time": 1266, "pitch": 67, "duration": 6, "velocity": 90}, {"time": 1272, "pitch": 70, "duration": 6, "velocity": 91}, {"time": 1278, "pitch": 74, "duration": 12, "velocity": 86}, {"time": 1290, "pitch": 72, "duration": 6, "velocity": 93}, {"time": 1296, "pitch": 70, "duration": 6, "velocity": 87}, {"time": 1302, "pitch": 72, "duration": 12, "velocity": 96}, {"time": 1314, "pitch": 70, "duration": 6, "velocity": 84}, {"time": 1320, "pitch": 67, "duration": 6, "velocity": 68}, {"time": 1326, "pitch": 70, "duration": 12, "velocity": 87}, {"time": 1338, "pitch": 67, "duration": 6, "velocity": 84}, {"time": 1344, "pitch": 70, "duration": 6, "velocity": 84}, {"time": 1350, "pitch": 62, "duration": 18, "velocity": 72}, {"time": 1368, "pitch": 62, "duration": 6, "velocity": 79}, {"time": 1374, "pitch": 67, "duration": 6, "velocity": 77}, {"time": 1380, "pitch": 67, "duration": 6, "velocity": 81}, {"time": 1386, "pitch": 67, "duration": 6, "velocity": 81}, {"time": 1392, "pitch": 70, "duration": 6, "velocity": 66}, {"time": 1398, "pitch": 70, "duration": 6, "velocity": 61}, {"time": 1404, "pitch": 65, "duration": 6, "velocity": 89}, {"time": 1410, "pitch": 65, "duration": 6, "velocity": 68}, {"time": 1416, "pitch": 62, "duration": 6, "velocity": 66}, {"time": 1422, "pitch": 67, "duration": 33, "velocity": 87}, {"time": 1458, "pitch": 74, "duration": 6, "velocity": 66}, {"time": 1464, "pitch": 77, "duration": 4, "velocity": 91}, {"time": 1470, "pitch": 79, "duration": 6, "velocity": 100}, {"time": 1476, "pitch": 79, "duration": 6, "velocity": 97}, {"time": 1482, "pitch": 79, "duration": 6, "velocity": 99}, {"time": 1488, "pitch": 79, "duration": 6, "velocity": 98}, {"time": 1494, "pitch": 79, "duration": 6, "velocity": 97}, {"time": 1500, "pitch": 77, "duration": 6, "velocity": 66}, {"time": 1506, "pitch": 77, "duration": 6, "velocity": 90}, {"time": 1512, "pitch": 74, "duration": 6, "velocity": 87}, {"time": 1518, "pitch": 77, "duration": 6, "velocity": 98}, {"time": 1524, "pitch": 74, "duration": 6, "velocity": 91}, {"time": 1530, "pitch": 72, "duration": 13, "velocity": 95}, {"time": 1542, "pitch": 74, "duration": 12, "velocity": 106}, {"time": 1554, "pitch": 67, "duration": 6, "velocity": 90}, {"time": 1560, "pitch": 70, "duration": 6, "velocity": 94}, {"time": 1566, "pitch": 72, "duration": 7, "velocity": 94}, {"time": 1572, "pitch": 74, "duration": 7, "velocity": 93}, {"time": 1578, "pitch": 72, "duration": 8, "velocity": 97}, {"time": 1584, "pitch": 74, "duration": 6, "velocity": 93}, {"time": 1590, "pitch": 77, "duration": 12, "velocity": 90}, {"time": 1602, "pitch": 72, "duration": 12, "velocity": 103}, {"time": 1614, "pitch": 74, "duration": 36, "velocity": 105}, {"time": 1650, "pitch": 74, "duration": 6, "velocity": 89}, {"time": 1656, "pitch": 77, "duration": 6, "velocity": 99}, {"time": 1662, "pitch": 79, "duration": 6, "velocity": 99}, {"time": 1668, "pitch": 79, "duration": 6, "velocity": 95}, {"time": 1674, "pitch": 79, "duration": 6, "velocity": 93}, {"time": 1680, "pitch": 79, "duration": 6, "velocity": 97}, {"time": 1686, "pitch": 79, "duration": 6, "velocity": 95}, {"time": 1692, "pitch": 77, "duration": 6, "velocity": 83}, {"time": 1698, "pitch": 77, "duration": 6, "velocity": 92}, {"time": 1704, "pitch": 74, "duration": 6, "velocity": 87}, {"time": 1710, "pitch": 77, "duration": 6, "velocity": 93}, {"time": 1716, "pitch": 74, "duration": 6, "velocity": 96}, {"time": 1722, "pitch": 72, "duration": 12, "velocity": 94}, {"time": 1734, "pitch": 74, "duration": 12, "velocity": 108}, {"time": 1746, "pitch": 67, "duration": 7, "velocity": 87}, {"time": 1752, "pitch": 70, "duration": 6, "velocity": 87}, {"time": 1758, "pitch": 72, "duration": 7, "velocity": 90}, {"time": 1764, "pitch": 74, "duration": 8, "velocity": 81}, {"time": 1770, "pitch": 72, "duration": 7, "velocity": 86}, {"time": 1776, "pitch": 70, "duration": 7, "velocity": 66}, {"time": 1782, "pitch": 67, "duration": 7, "velocity": 72}, {"time": 1788, "pitch": 70, "duration": 3, "velocity": 61}, {"time": 1792, "pitch": 67, "duration": 4, "velocity": 64}, {"time": 1794, "pitch": 65, "duration": 12, "velocity": 79}, {"time": 1806, "pitch": 67, "duration": 36, "velocity": 91}, {"time": 1842, "pitch": 74, "duration": 6, "velocity": 100}, {"time": 1848, "pitch": 77, "duration": 6, "velocity": 95}, {"time": 1854, "pitch": 79, "duration": 6, "velocity": 99}, {"time": 1860, "pitch": 79, "duration": 6, "velocity": 97}, {"time": 1866, "pitch": 79, "duration": 6, "velocity": 93}, {"time": 1872, "pitch": 79, "duration": 6, "velocity": 97}, {"time": 1878, "pitch": 79, "duration": 7, "velocity": 95}, {"time": 1884, "pitch": 77, "duration": 6, "velocity": 87}, {"time": 1890, "pitch": 77, "duration": 6, "velocity": 87}, {"time": 1896, "pitch": 74, "duration": 6, "velocity": 80}, {"time": 1902, "pitch": 77, "duration": 6, "velocity": 95}, {"time": 1908, "pitch": 74, "duration": 6, "velocity": 86}, {"time": 1914, "pitch": 72, "duration": 12, "velocity": 97}, {"time": 1926, "pitch": 74, "duration": 12, "velocity": 103}, {"time": 1938, "pitch": 67, "duration": 6, "velocity": 91}, {"time": 1944, "pitch": 70, "duration": 6, "velocity": 95}, {"time": 1950, "pitch": 72, "duration": 6, "velocity": 98}, {"time": 1956, "pitch": 74, "duration": 6, "velocity": 93}, {"time": 1962, "pitch": 72, "duration": 8, "velocity": 92}, {"time": 1968, "pitch": 74, "duration": 6, "velocity": 87}, {"time": 1974, "pitch": 77, "duration": 12, "velocity": 83}, {"time": 1986, "pitch": 72, "duration": 12, "velocity": 87}, {"time": 1998, "pitch": 74, "duration": 36, "velocity": 94}, {"time": 2034, "pitch": 74, "duration": 6, "velocity": 99}, {"time": 2040, "pitch": 77, "duration": 6, "velocity": 95}, {"time": 2046, "pitch": 79, "duration": 12, "velocity": 101}, {"time": 2058, "pitch": 79, "duration": 12, "velocity": 103}, {"time": 2070, "pitch": 79, "duration": 6, "velocity": 100}, {"time": 2076, "pitch": 77, "duration": 6, "velocity": 90}, {"time": 2082, "pitch": 77, "duration": 6, "velocity": 85}, {"time": 2088, "pitch": 74, "duration": 6, "velocity": 86}, {"time": 2094, "pitch": 77, "duration": 6, "velocity": 92}, {"time": 2100, "pitch": 74, "duration": 6, "velocity": 87}, {"time": 2106, "pitch": 74, "duration": 6, "velocity": 87}, {"time": 2112, "pitch": 74, "duration": 6, "velocity": 91}, {"time": 2118, "pitch": 67, "duration": 12, "velocity": 92}, {"time": 2130, "pitch": 67, "duration": 6, "velocity": 91}, {"time": 2136, "pitch": 70, "duration": 6, "velocity": 91}, {"time": 2142, "pitch": 72, "duration": 7, "velocity": 93}, {"time": 2148, "pitch": 74, "duration": 8, "velocity": 92}, {"time": 2154, "pitch": 72, "duration": 6, "velocity": 86}, {"time": 2160, "pitch": 70, "duration": 6, "velocity": 81}, {"time": 2166, "pitch": 67, "duration": 6, "velocity": 74}, {"time": 2172, "pitch": 70, "duration": 4, "velocity": 56}, {"time": 2176, "pitch": 67, "duration": 4, "velocity": 67}, {"time": 2178, "pitch": 65, "duration": 12, "velocity": 79}, {"time": 2190, "pitch": 67, "duration": 32, "velocity": 98}, {"time": 2244, "pitch": 74, "duration": 3, "velocity": 75}, {"time": 2250, "pitch": 74, "duration": 4, "velocity": 79}, {"time": 2256, "pitch": 74, "duration": 4, "velocity": 84}, {"time": 2262, "pitch": 74, "duration": 5, "velocity": 90}, {"time": 2274, "pitch": 72, "duration": 5, "velocity": 83}, {"time": 2280, "pitch": 70, "duration": 5, "velocity": 95}, {"time": 2286, "pitch": 72, "duration": 5, "velocity": 86}, {"time": 2292, "pitch": 70, "duration": 6, "velocity": 83}, {"time": 2298, "pitch": 72, "duration": 5, "velocity": 84}, {"time": 2304, "pitch": 70, "duration": 6, "velocity": 84}, {"time": 2310, "pitch": 72, "duration": 5, "velocity": 93}, {"time": 2322, "pitch": 72, "duration": 3, "velocity": 84}, {"time": 2326, "pitch": 74, "duration": 7, "velocity": 83}, {"time": 2340, "pitch": 74, "duration": 3, "velocity": 90}, {"time": 2346, "pitch": 74, "duration": 3, "velocity": 93}, {"time": 2352, "pitch": 74, "duration": 4, "velocity": 90}, {"time": 2358, "pitch": 72, "duration": 5, "velocity": 98}, {"time": 2376, "pitch": 69, "duration": 7, "velocity": 91}, {"time": 2382, "pitch": 70, "duration": 5, "velocity": 84}, {"time": 2388, "pitch": 69, "duration": 5, "velocity": 83}, {"time": 2394, "pitch": 70, "duration": 6, "velocity": 84}, {"time": 2400, "pitch": 65, "duration": 7, "velocity": 83}, {"time": 2406, "pitch": 62, "duration": 8, "velocity": 86}, {"time": 2436, "pitch": 74, "duration": 3, "velocity": 86}, {"time": 2442, "pitch": 74, "duration": 3, "velocity": 83}, {"time": 2448, "pitch": 74, "duration": 4, "velocity": 84}, {"time": 2454, "pitch": 74, "duration": 4, "velocity": 83}, {"time": 2460, "pitch": 74, "duration": 4, "velocity": 84}, {"time": 2466, "pitch": 74, "duration": 4, "velocity": 84}, {"time": 2472, "pitch": 70, "duration": 4, "velocity": 82}, {"time": 2478, "pitch": 72, "duration": 6, "velocity": 84}, {"time": 2482, "pitch": 72, "duration": 2, "velocity": 91}, {"time": 2484, "pitch": 70, "duration": 4, "velocity": 83}, {"time": 2490, "pitch": 72, "duration": 5, "velocity": 84}, {"time": 2496, "pitch": 70, "duration": 5, "velocity": 95}, {"time": 2502, "pitch": 72, "duration": 4, "velocity": 95}, {"time": 2514, "pitch": 74, "duration": 4, "velocity": 91}, {"time": 2536, "pitch": 74, "duration": 2, "velocity": 82}, {"time": 2542, "pitch": 74, "duration": 2, "velocity": 86}, {"time": 2544, "pitch": 74, "duration": 4, "velocity": 86}, {"time": 2550, "pitch": 72, "duration": 4, "velocity": 95}, {"time": 2556, "pitch": 70, "duration": 5, "velocity": 90}, {"time": 2562, "pitch": 69, "duration": 11, "velocity": 98}, {"time": 2574, "pitch": 67, "duration": 21, "velocity": 100}, {"time": 2610, "pitch": 67, "duration": 6, "velocity": 87}, {"time": 2616, "pitch": 70, "duration": 6, "velocity": 96}, {"time": 2622, "pitch": 74, "duration": 12, "velocity": 99}, {"time": 2634, "pitch": 72, "duration": 7, "velocity": 89}, {"time": 2640, "pitch": 70, "duration": 7, "velocity": 77}, {"time": 2646, "pitch": 72, "duration": 12, "velocity": 83}, {"time": 2658, "pitch": 70, "duration": 6, "velocity": 87}, {"time": 2664, "pitch": 67, "duration": 7, "velocity": 76}, {"time": 2670, "pitch": 70, "duration": 12, "velocity": 87}, {"time": 2682, "pitch": 70, "duration": 6, "velocity": 65}, {"time": 2688, "pitch": 67, "duration": 6, "velocity": 65}, {"time": 2694, "pitch": 62, "duration": 24, "velocity": 72}, {"time": 2718, "pitch": 67, "duration": 6, "velocity": 87}, {"time": 2724, "pitch": 67, "duration": 6, "velocity": 75}, {"time": 2730, "pitch": 67, "duration": 6, "velocity": 81}, {"time": 2736, "pitch": 70, "duration": 6, "velocity": 68}, {"time": 2742, "pitch": 69, "duration": 6, "velocity": 76}, {"time": 2748, "pitch": 67, "duration": 6, "velocity": 72}, {"time": 2754, "pitch": 65, "duration": 6, "velocity": 66}, {"time": 2760, "pitch": 67, "duration": 12, "velocity": 81}, {"time": 2772, "pitch": 62, "duration": 12, "velocity": 85}, {"time": 2784, "pitch": 62, "duration": 18, "velocity": 66}, {"time": 2802, "pitch": 67, "duration": 7, "velocity": 86}, {"time": 2808, "pitch": 70, "duration": 6, "velocity": 86}, {"time": 2814, "pitch": 74, "duration": 12, "velocity": 100}, {"time": 2826, "pitch": 72, "duration": 7, "velocity": 89}, {"time": 2832, "pitch": 70, "duration": 7, "velocity": 84}, {"time": 2838, "pitch": 72, "duration": 13, "velocity": 90}, {"time": 2850, "pitch": 70, "duration": 6, "velocity": 82}, {"time": 2856, "pitch": 67, "duration": 8, "velocity": 68}, {"time": 2862, "pitch": 70, "duration": 12, "velocity": 80}, {"time": 2874, "pitch": 70, "duration": 6, "velocity": 82}, {"time": 2880, "pitch": 67, "duration": 8, "velocity": 55}, {"time": 2886, "pitch": 62, "duration": 18, "velocity": 65}, {"time": 2904, "pitch": 62, "duration": 6, "velocity": 65}, {"time": 2910, "pitch": 67, "duration": 6, "velocity": 99}, {"time": 2916, "pitch": 67, "duration": 6, "velocity": 90}, {"time": 2922, "pitch": 67, "duration": 6, "velocity": 87}, {"time": 2928, "pitch": 70, "duration": 6, "velocity": 98}, {"time": 2934, "pitch": 69, "duration": 3, "velocity": 93}, {"time": 2938, "pitch": 70, "duration": 2, "velocity": 93}, {"time": 2940, "pitch": 67, "duration": 6, "velocity": 77}, {"time": 2946, "pitch": 65, "duration": 6, "velocity": 87}, {"time": 2952, "pitch": 62, "duration": 12, "velocity": 87}, {"time": 2964, "pitch": 67, "duration": 30, "velocity": 103}, {"time": 2994, "pitch": 74, "duration": 6, "velocity": 66}, {"time": 3000, "pitch": 77, "duration": 4, "velocity": 91}, {"time": 3006, "pitch": 79, "duration": 6, "velocity": 100}, {"time": 3012, "pitch": 79, "duration": 6, "velocity": 97}, {"time": 3018, "pitch": 79, "duration": 6, "velocity": 99}, {"time": 3024, "pitch": 79, "duration": 6, "velocity": 98}, {"time": 3030, "pitch": 79, "duration": 6, "velocity": 97}, {"time": 3036, "pitch": 77, "duration": 6, "velocity": 66}, {"time": 3042, "pitch": 77, "duration": 6, "velocity": 90}, {"time": 3048, "pitch": 74, "duration": 6, "velocity": 87}, {"time": 3054, "pitch": 77, "duration": 6, "velocity": 98}, {"time": 3060, "pitch": 74, "duration": 6, "velocity": 91}, {"time": 3066, "pitch": 72, "duration": 13, "velocity": 95}, {"time": 3078, "pitch": 74, "duration": 12, "velocity": 106}, {"time": 3090, "pitch": 67, "duration": 6, "velocity": 90}, {"time": 3096, "pitch": 70, "duration": 6, "velocity": 94}, {"time": 3102, "pitch": 72, "duration": 7, "velocity": 94}, {"time": 3108, "pitch": 74, "duration": 7, "velocity": 93}, {"time": 3114, "pitch": 72, "duration": 8, "velocity": 97}, {"time": 3120, "pitch": 74, "duration": 6, "velocity": 93}, {"time": 3126, "pitch": 77, "duration": 12, "velocity": 90}, {"time": 3138, "pitch": 72, "duration": 14, "velocity": 103}, {"time": 3150, "pitch": 74, "duration": 36, "velocity": 105}, {"time": 3186, "pitch": 74, "duration": 6, "velocity": 89}, {"time": 3192, "pitch": 77, "duration": 6, "velocity": 99}, {"time": 3198, "pitch": 79, "duration": 6, "velocity": 99}, {"time": 3204, "pitch": 79, "duration": 6, "velocity": 95}, {"time": 3210, "pitch": 79, "duration": 6, "velocity": 93}, {"time": 3216, "pitch": 79, "duration": 6, "velocity": 97}, {"time": 3222, "pitch": 79, "duration": 6, "velocity": 95}, {"time": 3228, "pitch": 77, "duration": 6, "velocity": 83}, {"time": 3234, "pitch": 77, "duration": 6, "velocity": 92}, {"time": 3240, "pitch": 74, "duration": 6, "velocity": 87}, {"time": 3246, "pitch": 77, "duration": 6, "velocity": 93}, {"time": 3252, "pitch": 74, "duration": 6, "velocity": 96}, {"time": 3258, "pitch": 72, "duration": 12, "velocity": 94}, {"time": 3270, "pitch": 74, "duration": 12, "velocity": 108}, {"time": 3282, "pitch": 67, "duration": 7, "velocity": 87}, {"time": 3288, "pitch": 70, "duration": 6, "velocity": 87}, {"time": 3294, "pitch": 72, "duration": 7, "velocity": 90}, {"time": 3300, "pitch": 74, "duration": 8, "velocity": 81}, {"time": 3306, "pitch": 72, "duration": 7, "velocity": 86}, {"time": 3312, "pitch": 70, "duration": 7, "velocity": 66}, {"time": 3324, "pitch": 70, "duration": 3, "velocity": 61}, {"time": 3328, "pitch": 67, "duration": 4, "velocity": 64}, {"time": 3330, "pitch": 65, "duration": 12, "velocity": 79}, {"time": 3342, "pitch": 67, "duration": 36, "velocity": 91}, {"time": 3378, "pitch": 74, "duration": 6, "velocity": 100}, {"time": 3384, "pitch": 77, "duration": 6, "velocity": 95}, {"time": 3390, "pitch": 79, "duration": 6, "velocity": 99}, {"time": 3396, "pitch": 79, "duration": 6, "velocity": 97}, {"time": 3402, "pitch": 79, "duration": 6, "velocity": 93}, {"time": 3408, "pitch": 79, "duration": 6, "velocity": 97}, {"time": 3414, "pitch": 79, "duration": 7, "velocity": 95}, {"time": 3420, "pitch": 77, "duration": 6, "velocity": 87}, {"time": 3426, "pitch": 77, "duration": 6, "velocity": 87}, {"time": 3432, "pitch": 74, "duration": 6, "velocity": 80}, {"time": 3438, "pitch": 77, "duration": 6, "velocity": 95}, {"time": 3444, "pitch": 74, "duration": 6, "velocity": 86}, {"time": 3450, "pitch": 72, "duration": 12, "velocity": 97}, {"time": 3462, "pitch": 74, "duration": 12, "velocity": 103}, {"time": 3474, "pitch": 67, "duration": 6, "velocity": 91}, {"time": 3480, "pitch": 70, "duration": 6, "velocity": 95}, {"time": 3486, "pitch": 72, "duration": 6, "velocity": 98}, {"time": 3492, "pitch": 74, "duration": 6, "velocity": 93}, {"time": 3498, "pitch": 72, "duration": 8, "velocity": 92}, {"time": 3504, "pitch": 74, "duration": 6, "velocity": 87}, {"time": 3510, "pitch": 77, "duration": 18, "velocity": 83}, {"time": 3528, "pitch": 72, "duration": 12, "velocity": 87}, {"time": 3540, "pitch": 74, "duration": 30, "velocity": 94}, {"time": 3570, "pitch": 74, "duration": 6, "velocity": 99}, {"time": 3576, "pitch": 77, "duration": 6, "velocity": 95}, {"time": 3582, "pitch": 79, "duration": 12, "velocity": 101}, {"time": 3594, "pitch": 79, "duration": 12, "velocity": 103}, {"time": 3606, "pitch": 79, "duration": 6, "velocity": 100}, {"time": 3612, "pitch": 77, "duration": 6, "velocity": 90}, {"time": 3618, "pitch": 77, "duration": 6, "velocity": 85}, {"time": 3624, "pitch": 74, "duration": 6, "velocity": 86}, {"time": 3630, "pitch": 77, "duration": 6, "velocity": 92}, {"time": 3636, "pitch": 74, "duration": 6, "velocity": 87}, {"time": 3642, "pitch": 74, "duration": 6, "velocity": 87}, {"time": 3648, "pitch": 72, "duration": 3, "velocity": 91}, {"time": 3652, "pitch": 74, "duration": 2, "velocity": 91}, {"time": 3654, "pitch": 67, "duration": 12, "velocity": 92}, {"time": 3666, "pitch": 67, "duration": 6, "velocity": 91}, {"time": 3672, "pitch": 70, "duration": 6, "velocity": 91}, {"time": 3678, "pitch": 72, "duration": 7, "velocity": 93}, {"time": 3684, "pitch": 74, "duration": 8, "velocity": 92}, {"time": 3690, "pitch": 72, "duration": 6, "velocity": 86}, {"time": 3696, "pitch": 70, "duration": 6, "velocity": 81}, {"time": 3702, "pitch": 67, "duration": 18, "velocity": 74}, {"time": 3726, "pitch": 65, "duration": 9, "velocity": 79}, {"time": 3736, "pitch": 67, "duration": 34, "velocity": 98}, {"time": 3858, "pitch": 75, "duration": 6, "velocity": 66}, {"time": 3864, "pitch": 78, "duration": 4, "velocity": 91}, {"time": 3870, "pitch": 80, "duration": 6, "velocity": 100}, {"time": 3876, "pitch": 80, "duration": 6, "velocity": 97}, {"time": 3882, "pitch": 80, "duration": 6, "velocity": 99}, {"time": 3888, "pitch": 80, "duration": 6, "velocity": 98}, {"time": 3894, "pitch": 80, "duration": 6, "velocity": 97}, {"time": 3900, "pitch": 78, "duration": 6, "velocity": 66}, {"time": 3906, "pitch": 78, "duration": 6, "velocity": 90}, {"time": 3912, "pitch": 75, "duration": 6, "velocity": 87}, {"time": 3918, "pitch": 78, "duration": 6, "velocity": 98}, {"time": 3924, "pitch": 75, "duration": 6, "velocity": 91}, {"time": 3930, "pitch": 73, "duration": 13, "velocity": 95}, {"time": 3942, "pitch": 75, "duration": 12, "velocity": 106}, {"time": 3954, "pitch": 68, "duration": 6, "velocity": 90}, {"time": 3960, "pitch": 71, "duration": 6, "velocity": 94}, {"time": 3966, "pitch": 73, "duration": 7, "velocity": 94}, {"time": 3972, "pitch": 75, "duration": 7, "velocity": 93}, {"time": 3978, "pitch": 73, "duration": 8, "velocity": 97}, {"time": 3984, "pitch": 75, "duration": 6, "velocity": 93}, {"time": 3990, "pitch": 78, "duration": 12, "velocity": 90}, {"time": 4002, "pitch": 73, "duration": 14, "velocity": 103}, {"time": 4014, "pitch": 75, "duration": 36, "velocity": 105}, {"time": 4050, "pitch": 75, "duration": 6, "velocity": 89}, {"time": 4056, "pitch": 78, "duration": 6, "velocity": 99}, {"time": 4062, "pitch": 80, "duration": 6, "velocity": 99}, {"time": 4068, "pitch": 80, "duration": 6, "velocity": 95}, {"time": 4074, "pitch": 80, "duration": 6, "velocity": 93}, {"time": 4080, "pitch": 80, "duration": 6, "velocity": 97}, {"time": 4086, "pitch": 80, "duration": 6, "velocity": 95}, {"time": 4092, "pitch": 78, "duration": 6, "velocity": 83}, {"time": 4098, "pitch": 78, "duration": 6, "velocity": 92}, {"time": 4104, "pitch": 75, "duration": 6, "velocity": 87}, {"time": 4110, "pitch": 78, "duration": 6, "velocity": 93}, {"time": 4116, "pitch": 75, "duration": 6, "velocity": 96}, {"time": 4122, "pitch": 73, "duration": 12, "velocity": 94}, {"time": 4134, "pitch": 75, "duration": 12, "velocity": 108}, {"time": 4146, "pitch": 68, "duration": 7, "velocity": 87}, {"time": 4152, "pitch": 71, "duration": 6, "velocity": 87}, {"time": 4158, "pitch": 73, "duration": 7, "velocity": 90}, {"time": 4164, "pitch": 75, "duration": 8, "velocity": 81}, {"time": 4170, "pitch": 73, "duration": 7, "velocity": 86}, {"time": 4176, "pitch": 71, "duration": 7, "velocity": 66}, {"time": 4182, "pitch": 68, "duration": 7, "velocity": 72}, {"time": 4188, "pitch": 71, "duration": 3, "velocity": 61}, {"time": 4192, "pitch": 68, "duration": 4, "velocity": 64}, {"time": 4194, "pitch": 66, "duration": 12, "velocity": 79}, {"time": 4206, "pitch": 68, "duration": 36, "velocity": 91}, {"time": 4242, "pitch": 75, "duration": 6, "velocity": 100}, {"time": 4248, "pitch": 78, "duration": 6, "velocity": 95}, {"time": 4254, "pitch": 80, "duration": 6, "velocity": 99}, {"time": 4260, "pitch": 80, "duration": 6, "velocity": 97}, {"time": 4266, "pitch": 80, "duration": 6, "velocity": 93}, {"time": 4272, "pitch": 80, "duration": 6, "velocity": 97}, {"time": 4278, "pitch": 80, "duration": 7, "velocity": 95}, {"time": 4284, "pitch": 78, "duration": 6, "velocity": 87}, {"time": 4290, "pitch": 78, "duration": 6, "velocity": 87}, {"time": 4296, "pitch": 75, "duration": 6, "velocity": 80}, {"time": 4302, "pitch": 78, "duration": 6, "velocity": 95}, {"time": 4308, "pitch": 75, "duration": 6, "velocity": 86}, {"time": 4314, "pitch": 73, "duration": 12, "velocity": 97}, {"time": 4326, "pitch": 75, "duration": 12, "velocity": 103}, {"time": 4338, "pitch": 68, "duration": 6, "velocity": 91}, {"time": 4344, "pitch": 71, "duration": 6, "velocity": 95}, {"time": 4350, "pitch": 73, "duration": 6, "velocity": 98}, {"time": 4356, "pitch": 75, "duration": 6, "velocity": 93}, {"time": 4362, "pitch": 73, "duration": 8, "velocity": 92}, {"time": 4368, "pitch": 75, "duration": 6, "velocity": 87}, {"time": 4374, "pitch": 78, "duration": 12, "velocity": 83}, {"time": 4386, "pitch": 73, "duration": 12, "velocity": 87}, {"time": 4398, "pitch": 75, "duration": 36, "velocity": 94}, {"time": 4434, "pitch": 75, "duration": 6, "velocity": 99}, {"time": 4440, "pitch": 78, "duration": 6, "velocity": 95}, {"time": 4446, "pitch": 80, "duration": 12, "velocity": 101}, {"time": 4458, "pitch": 80, "duration": 12, "velocity": 103}, {"time": 4470, "pitch": 80, "duration": 6, "velocity": 100}, {"time": 4476, "pitch": 78, "duration": 6, "velocity": 90}, {"time": 4482, "pitch": 78, "duration": 6, "velocity": 85}, {"time": 4488, "pitch": 75, "duration": 6, "velocity": 86}, {"time": 4494, "pitch": 78, "duration": 6, "velocity": 92}, {"time": 4500, "pitch": 75, "duration": 6, "velocity": 87}, {"time": 4506, "pitch": 75, "duration": 6, "velocity": 87}, {"time": 4512, "pitch": 73, "duration": 3, "velocity": 91}, {"time": 4516, "pitch": 75, "duration": 2, "velocity": 91}, {"time": 4518, "pitch": 68, "duration": 12, "velocity": 92}, {"time": 4530, "pitch": 68, "duration": 6, "velocity": 91}, {"time": 4536, "pitch": 71, "duration": 6, "velocity": 91}, {"time": 4542, "pitch": 73, "duration": 7, "velocity": 93}, {"time": 4548, "pitch": 75, "duration": 8, "velocity": 92}, {"time": 4554, "pitch": 73, "duration": 6, "velocity": 86}, {"time": 4560, "pitch": 71, "duration": 6, "velocity": 81}, {"time": 4566, "pitch": 68, "duration": 6, "velocity": 74}, {"time": 4578, "pitch": 66, "duration": 12, "velocity": 79}, {"time": 4590, "pitch": 68, "duration": 35, "velocity": 98}, {"time": 4644, "pitch": 75, "duration": 3, "velocity": 75}, {"time": 4650, "pitch": 75, "duration": 4, "velocity": 79}, {"time": 4656, "pitch": 75, "duration": 4, "velocity": 84}, {"time": 4662, "pitch": 75, "duration": 5, "velocity": 90}, {"time": 4674, "pitch": 73, "duration": 5, "velocity": 83}, {"time": 4680, "pitch": 71, "duration": 5, "velocity": 95}, {"time": 4686, "pitch": 73, "duration": 5, "velocity": 86}, {"time": 4692, "pitch": 71, "duration": 6, "velocity": 83}, {"time": 4698, "pitch": 73, "duration": 5, "velocity": 84}, {"time": 4704, "pitch": 71, "duration": 6, "velocity": 84}, {"time": 4710, "pitch": 73, "duration": 5, "velocity": 93}, {"time": 4722, "pitch": 73, "duration": 3, "velocity": 84}, {"time": 4726, "pitch": 75, "duration": 7, "velocity": 83}, {"time": 4740, "pitch": 75, "duration": 3, "velocity": 90}, {"time": 4746, "pitch": 75, "duration": 3, "velocity": 93}, {"time": 4752, "pitch": 75, "duration": 4, "velocity": 90}, {"time": 4758, "pitch": 73, "duration": 5, "velocity": 98}, {"time": 4776, "pitch": 70, "duration": 7, "velocity": 91}, {"time": 4782, "pitch": 71, "duration": 5, "velocity": 84}, {"time": 4788, "pitch": 70, "duration": 5, "velocity": 83}, {"time": 4794, "pitch": 71, "duration": 6, "velocity": 84}, {"time": 4800, "pitch": 66, "duration": 7, "velocity": 83}, {"time": 4806, "pitch": 63, "duration": 8, "velocity": 86}, {"time": 4836, "pitch": 75, "duration": 3, "velocity": 86}, {"time": 4842, "pitch": 75, "duration": 3, "velocity": 83}, {"time": 4848, "pitch": 75, "duration": 4, "velocity": 84}, {"time": 4854, "pitch": 75, "duration": 4, "velocity": 83}, {"time": 4860, "pitch": 75, "duration": 4, "velocity": 84}, {"time": 4866, "pitch": 75, "duration": 4, "velocity": 84}, {"time": 4872, "pitch": 71, "duration": 4, "velocity": 82}, {"time": 4878, "pitch": 73, "duration": 6, "velocity": 84}, {"time": 4882, "pitch": 73, "duration": 2, "velocity": 91}, {"time": 4884, "pitch": 71, "duration": 4, "velocity": 83}, {"time": 4890, "pitch": 73, "duration": 5, "velocity": 84}, {"time": 4896, "pitch": 71, "duration": 5, "velocity": 95}, {"time": 4902, "pitch": 73, "duration": 4, "velocity": 95}, {"time": 4914, "pitch": 75, "duration": 4, "velocity": 91}, {"time": 4936, "pitch": 75, "duration": 2, "velocity": 82}, {"time": 4942, "pitch": 75, "duration": 2, "velocity": 86}, {"time": 4944, "pitch": 75, "duration": 4, "velocity": 86}, {"time": 4950, "pitch": 73, "duration": 4, "velocity": 95}, {"time": 4956, "pitch": 71, "duration": 5, "velocity": 90}, {"time": 4962, "pitch": 70, "duration": 11, "velocity": 98}, {"time": 4974, "pitch": 68, "duration": 21, "velocity": 100}, {"time": 5010, "pitch": 68, "duration": 6, "velocity": 87}, {"time": 5016, "pitch": 71, "duration": 6, "velocity": 96}, {"time": 5028, "pitch": 75, "duration": 3, "velocity": 75}, {"time": 5034, "pitch": 75, "duration": 4, "velocity": 79}, {"time": 5040, "pitch": 75, "duration": 4, "velocity": 84}, {"time": 5046, "pitch": 75, "duration": 5, "velocity": 90}, {"time": 5058, "pitch": 73, "duration": 5, "velocity": 83}, {"time": 5064, "pitch": 71, "duration": 5, "velocity": 95}, {"time": 5070, "pitch": 73, "duration": 5, "velocity": 86}, {"time": 5076, "pitch": 71, "duration": 6, "velocity": 83}, {"time": 5082, "pitch": 73, "duration": 5, "velocity": 84}, {"time": 5088, "pitch": 71, "duration": 6, "velocity": 84}, {"time": 5094, "pitch": 73, "duration": 5, "velocity": 93}, {"time": 5106, "pitch": 73, "duration": 3, "velocity": 84}, {"time": 5110, "pitch": 75, "duration": 7, "velocity": 83}, {"time": 5124, "pitch": 75, "duration": 3, "velocity": 90}, {"time": 5130, "pitch": 75, "duration": 3, "velocity": 93}, {"time": 5136, "pitch": 75, "duration": 4, "velocity": 90}, {"time": 5142, "pitch": 73, "duration": 5, "velocity": 98}, {"time": 5160, "pitch": 70, "duration": 7, "velocity": 91}, {"time": 5166, "pitch": 71, "duration": 5, "velocity": 84}, {"time": 5172, "pitch": 70, "duration": 5, "velocity": 83}, {"time": 5178, "pitch": 71, "duration": 6, "velocity": 84}, {"time": 5184, "pitch": 66, "duration": 7, "velocity": 83}, {"time": 5190, "pitch": 63, "duration": 8, "velocity": 86}, {"time": 5220, "pitch": 75, "duration": 3, "velocity": 86}, {"time": 5226, "pitch": 75, "duration": 3, "velocity": 83}, {"time": 5232, "pitch": 75, "duration": 4, "velocity": 84}, {"time": 5238, "pitch": 75, "duration": 4, "velocity": 83}, {"time": 5244, "pitch": 75, "duration": 4, "velocity": 84}, {"time": 5250, "pitch": 75, "duration": 4, "velocity": 84}, {"time": 5256, "pitch": 71, "duration": 4, "velocity": 82}, {"time": 5262, "pitch": 73, "duration": 6, "velocity": 84}, {"time": 5266, "pitch": 73, "duration": 2, "velocity": 91}, {"time": 5268, "pitch": 71, "duration": 4, "velocity": 83}, {"time": 5274, "pitch": 73, "duration": 5, "velocity": 84}, {"time": 5280, "pitch": 71, "duration": 5, "velocity": 95}, {"time": 5286, "pitch": 73, "duration": 4, "velocity": 95}, {"time": 5298, "pitch": 75, "duration": 4, "velocity": 91}, {"time": 5320, "pitch": 75, "duration": 2, "velocity": 82}, {"time": 5326, "pitch": 75, "duration": 2, "velocity": 86}, {"time": 5328, "pitch": 75, "duration": 4, "velocity": 86}, {"time": 5334, "pitch": 73, "duration": 4, "velocity": 95}, {"time": 5340, "pitch": 71, "duration": 5, "velocity": 90}, {"time": 5346, "pitch": 70, "duration": 11, "velocity": 98}, {"time": 5358, "pitch": 68, "duration": 21, "velocity": 100}, {"time": 5394, "pitch": 68, "duration": 6, "velocity": 87}, {"time": 5400, "pitch": 71, "duration": 6, "velocity": 96}]}, {"program": 0, "is_drum": false, "name": "BRIDGE", "notes": [{"time": 103, "pitch": 77, "duration": 12, "velocity": 84}, {"time": 114, "pitch": 72, "duration": 7, "velocity": 83}, {"time": 120, "pitch": 77, "duration": 7, "velocity": 83}, {"time": 127, "pitch": 72, "duration": 5, "velocity": 83}, {"time": 131, "pitch": 77, "duration": 5, "velocity": 83}, {"time": 135, "pitch": 72, "duration": 3, "velocity": 77}, {"time": 138, "pitch": 77, "duration": 3, "velocity": 73}, {"time": 141, "pitch": 72, "duration": 3, "velocity": 76}, {"time": 144, "pitch": 77, "duration": 2, "velocity": 76}, {"time": 146, "pitch": 72, "duration": 3, "velocity": 73}, {"time": 149, "pitch": 77, "duration": 2, "velocity": 72}, {"time": 150, "pitch": 72, "duration": 3, "velocity": 69}, {"time": 153, "pitch": 77, "duration": 3, "velocity": 75}, {"time": 155, "pitch": 72, "duration": 2, "velocity": 67}, {"time": 157, "pitch": 77, "duration": 3, "velocity": 54}, {"time": 159, "pitch": 72, "duration": 2, "velocity": 57}, {"time": 161, "pitch": 77, "duration": 3, "velocity": 58}, {"time": 163, "pitch": 72, "duration": 3, "velocity": 61}, {"time": 165, "pitch": 77, "duration": 7, "velocity": 54}, {"time": 167, "pitch": 72, "duration": 4, "velocity": 57}, {"time": 171, "pitch": 72, "duration": 2, "velocity": 68}, {"time": 173, "pitch": 77, "duration": 7, "velocity": 48}, {"time": 175, "pitch": 72, "duration": 4, "velocity": 63}, {"time": 179, "pitch": 72, "duration": 43, "velocity": 57}, {"time": 221, "pitch": 74, "duration": 3, "velocity": 79}, {"time": 223, "pitch": 72, "duration": 4, "velocity": 80}, {"time": 226, "pitch": 74, "duration": 32, "velocity": 79}, {"time": 258, "pitch": 74, "duration": 8, "velocity": 83}, {"time": 266, "pitch": 72, "duration": 3, "velocity": 49}, {"time": 268, "pitch": 74, "duration": 7, "velocity": 83}, {"time": 275, "pitch": 72, "duration": 4, "velocity": 40}, {"time": 278, "pitch": 74, "duration": 10, "velocity": 82}, {"time": 288, "pitch": 72, "duration": 2, "velocity": 38}, {"time": 289, "pitch": 74, "duration": 9, "velocity": 53}, {"time": 297, "pitch": 72, "duration": 4, "velocity": 63}, {"time": 299, "pitch": 74, "duration": 19, "velocity": 72}, {"time": 318, "pitch": 74, "duration": 36, "velocity": 86}, {"time": 354, "pitch": 70, "duration": 12, "velocity": 98}, {"time": 366, "pitch": 72, "duration": 36, "velocity": 100}, {"time": 402, "pitch": 70, "duration": 6, "velocity": 84}, {"time": 408, "pitch": 72, "duration": 6, "velocity": 84}, {"time": 414, "pitch": 74, "duration": 6, "velocity": 84}, {"time": 420, "pitch": 72, "duration": 4, "velocity": 75}, {"time": 424, "pitch": 70, "duration": 2, "velocity": 83}, {"time": 426, "pitch": 72, "duration": 6, "velocity": 83}, {"time": 426, "pitch": 72, "duration": 6, "velocity": 95}, {"time": 432, "pitch": 70, "duration": 4, "velocity": 84}, {"time": 436, "pitch": 69, "duration": 2, "velocity": 67}, {"time": 438, "pitch": 70, "duration": 6, "velocity": 86}, {"time": 444, "pitch": 69, "duration": 4, "velocity": 76}, {"time": 448, "pitch": 67, "duration": 2, "velocity": 76}, {"time": 450, "pitch": 69, "duration": 6, "velocity": 84}, {"time": 456, "pitch": 67, "duration": 4, "velocity": 72}, {"time": 460, "pitch": 65, "duration": 2, "velocity": 79}, {"time": 462, "pitch": 67, "duration": 4, "velocity": 86}, {"time": 466, "pitch": 65, "duration": 2, "velocity": 71}, {"time": 468, "pitch": 62, "duration": 30, "velocity": 76}, {"time": 498, "pitch": 65, "duration": 12, "velocity": 91}, {"time": 510, "pitch": 67, "duration": 36, "velocity": 101}, {"time": 546, "pitch": 65, "duration": 6, "velocity": 91}, {"time": 552, "pitch": 67, "duration": 6, "velocity": 90}, {"time": 558, "pitch": 70, "duration": 36, "velocity": 106}, {"time": 594, "pitch": 67, "duration": 6, "velocity": 90}, {"time": 600, "pitch": 74, "duration": 6, "velocity": 86}, {"time": 606, "pitch": 72, "duration": 4, "velocity": 86}, {"time": 610, "pitch": 74, "duration": 2, "velocity": 84}, {"time": 612, "pitch": 72, "duration": 18, "velocity": 90}, {"time": 630, "pitch": 70, "duration": 12, "velocity": 98}, {"time": 642, "pitch": 69, "duration": 12, "velocity": 98}, {"time": 654, "pitch": 67, "duration": 48, "velocity": 100}, {"time": 1086, "pitch": 74, "duration": 86, "velocity": 95}, {"time": 1242, "pitch": 62, "duration": 13, "velocity": 98}, {"time": 1254, "pitch": 65, "duration": 25, "velocity": 90}, {"time": 1278, "pitch": 67, "duration": 46, "velocity": 90}, {"time": 1374, "pitch": 70, "duration": 19, "velocity": 91}, {"time": 1398, "pitch": 69, "duration": 24, "velocity": 95}, {"time": 1422, "pitch": 67, "duration": 34, "velocity": 95}, {"time": 1470, "pitch": 74, "duration": 51, "velocity": 98}, {"time": 1566, "pitch": 70, "duration": 27, "velocity": 94}, {"time": 1632, "pitch": 77, "duration": 5, "velocity": 86}, {"time": 1636, "pitch": 79, "duration": 3, "velocity": 83}, {"time": 1638, "pitch": 82, "duration": 7, "velocity": 90}, {"time": 1644, "pitch": 81, "duration": 8, "velocity": 94}, {"time": 1650, "pitch": 79, "duration": 6, "velocity": 84}, {"time": 1656, "pitch": 77, "duration": 7, "velocity": 83}, {"time": 1662, "pitch": 74, "duration": 56, "velocity": 81}, {"time": 1806, "pitch": 67, "duration": 48, "velocity": 95}, {"time": 1903, "pitch": 74, "duration": 11, "velocity": 94}, {"time": 1915, "pitch": 72, "duration": 11, "velocity": 91}, {"time": 1927, "pitch": 74, "duration": 11, "velocity": 90}, {"time": 1938, "pitch": 77, "duration": 13, "velocity": 90}, {"time": 1950, "pitch": 70, "duration": 49, "velocity": 94}, {"time": 2142, "pitch": 70, "duration": 24, "velocity": 91}, {"time": 2166, "pitch": 74, "duration": 25, "velocity": 93}, {"time": 2190, "pitch": 70, "duration": 42, "velocity": 98}, {"time": 2238, "pitch": 74, "duration": 36, "velocity": 86}, {"time": 2274, "pitch": 70, "duration": 12, "velocity": 98}, {"time": 2286, "pitch": 72, "duration": 36, "velocity": 100}, {"time": 2322, "pitch": 70, "duration": 6, "velocity": 84}, {"time": 2328, "pitch": 72, "duration": 6, "velocity": 84}, {"time": 2334, "pitch": 74, "duration": 6, "velocity": 84}, {"time": 2340, "pitch": 72, "duration": 3, "velocity": 75}, {"time": 2344, "pitch": 70, "duration": 2, "velocity": 83}, {"time": 2346, "pitch": 72, "duration": 6, "velocity": 83}, {"time": 2346, "pitch": 72, "duration": 6, "velocity": 95}, {"time": 2352, "pitch": 70, "duration": 3, "velocity": 84}, {"time": 2356, "pitch": 69, "duration": 2, "velocity": 67}, {"time": 2358, "pitch": 70, "duration": 6, "velocity": 86}, {"time": 2364, "pitch": 69, "duration": 3, "velocity": 76}, {"time": 2368, "pitch": 67, "duration": 2, "velocity": 76}, {"time": 2370, "pitch": 69, "duration": 6, "velocity": 84}, {"time": 2376, "pitch": 67, "duration": 3, "velocity": 72}, {"time": 2380, "pitch": 65, "duration": 2, "velocity": 79}, {"time": 2382, "pitch": 67, "duration": 3, "velocity": 86}, {"time": 2386, "pitch": 65, "duration": 2, "velocity": 71}, {"time": 2388, "pitch": 62, "duration": 30, "velocity": 76}, {"time": 2418, "pitch": 65, "duration": 12, "velocity": 91}, {"time": 2430, "pitch": 67, "duration": 36, "velocity": 101}, {"time": 2466, "pitch": 65, "duration": 6, "velocity": 91}, {"time": 2472, "pitch": 67, "duration": 6, "velocity": 90}, {"time": 2478, "pitch": 70, "duration": 36, "velocity": 106}, {"time": 2514, "pitch": 67, "duration": 6, "velocity": 90}, {"time": 2520, "pitch": 74, "duration": 6, "velocity": 86}, {"time": 2526, "pitch": 72, "duration": 3, "velocity": 86}, {"time": 2530, "pitch": 74, "duration": 2, "velocity": 84}, {"time": 2532, "pitch": 72, "duration": 18, "velocity": 90}, {"time": 2550, "pitch": 70, "duration": 12, "velocity": 98}, {"time": 2562, "pitch": 69, "duration": 12, "velocity": 98}, {"time": 2562, "pitch": 72, "duration": 12, "velocity": 98}, {"time": 2574, "pitch": 67, "duration": 48, "velocity": 100}, {"time": 2574, "pitch": 70, "duration": 48, "velocity": 98}, {"time": 2694, "pitch": 62, "duration": 4, "velocity": 77}, {"time": 2700, "pitch": 62, "duration": 7, "velocity": 73}, {"time": 2706, "pitch": 65, "duration": 7, "velocity": 78}, {"time": 2712, "pitch": 62, "duration": 8, "velocity": 79}, {"time": 2718, "pitch": 67, "duration": 39, "velocity": 81}, {"time": 2742, "pitch": 65, "duration": 24, "velocity": 83}, {"time": 2766, "pitch": 62, "duration": 39, "velocity": 84}, {"time": 2892, "pitch": 62, "duration": 7, "velocity": 84}, {"time": 2898, "pitch": 65, "duration": 6, "velocity": 83}, {"time": 2904, "pitch": 62, "duration": 7, "velocity": 82}, {"time": 2910, "pitch": 67, "duration": 25, "velocity": 81}, {"time": 2934, "pitch": 70, "duration": 13, "velocity": 91}, {"time": 2946, "pitch": 69, "duration": 12, "velocity": 86}, {"time": 2958, "pitch": 67, "duration": 38, "velocity": 82}, {"time": 3006, "pitch": 74, "duration": 51, "velocity": 98}, {"time": 3102, "pitch": 70, "duration": 27, "velocity": 94}, {"time": 3168, "pitch": 77, "duration": 5, "velocity": 86}, {"time": 3172, "pitch": 79, "duration": 3, "velocity": 83}, {"time": 3174, "pitch": 82, "duration": 7, "velocity": 90}, {"time": 3180, "pitch": 81, "duration": 8, "velocity": 94}, {"time": 3186, "pitch": 79, "duration": 6, "velocity": 84}, {"time": 3192, "pitch": 77, "duration": 7, "velocity": 83}, {"time": 3198, "pitch": 74, "duration": 56, "velocity": 81}, {"time": 3439, "pitch": 74, "duration": 11, "velocity": 94}, {"time": 3451, "pitch": 72, "duration": 11, "velocity": 91}, {"time": 3463, "pitch": 74, "duration": 11, "velocity": 90}, {"time": 3474, "pitch": 77, "duration": 13, "velocity": 90}, {"time": 3486, "pitch": 70, "duration": 49, "velocity": 94}, {"time": 3678, "pitch": 70, "duration": 24, "velocity": 91}, {"time": 3702, "pitch": 74, "duration": 25, "velocity": 93}, {"time": 3726, "pitch": 70, "duration": 42, "velocity": 98}, {"time": 3822, "pitch": 80, "duration": 6, "velocity": 90}, {"time": 3828, "pitch": 75, "duration": 6, "velocity": 93}, {"time": 3834, "pitch": 78, "duration": 6, "velocity": 86}, {"time": 3840, "pitch": 73, "duration": 6, "velocity": 84}, {"time": 3846, "pitch": 75, "duration": 6, "velocity": 86}, {"time": 3852, "pitch": 71, "duration": 6, "velocity": 91}, {"time": 3858, "pitch": 73, "duration": 6, "velocity": 90}, {"time": 3864, "pitch": 66, "duration": 6, "velocity": 91}, {"time": 3870, "pitch": 68, "duration": 48, "velocity": 91}, {"time": 3918, "pitch": 78, "duration": 9, "velocity": 91}, {"time": 3966, "pitch": 75, "duration": 9, "velocity": 91}, {"time": 4032, "pitch": 78, "duration": 5, "velocity": 86}, {"time": 4036, "pitch": 80, "duration": 3, "velocity": 83}, {"time": 4038, "pitch": 83, "duration": 7, "velocity": 90}, {"time": 4044, "pitch": 82, "duration": 8, "velocity": 94}, {"time": 4050, "pitch": 80, "duration": 6, "velocity": 84}, {"time": 4056, "pitch": 78, "duration": 7, "velocity": 83}, {"time": 4062, "pitch": 75, "duration": 56, "velocity": 81}, {"time": 4158, "pitch": 71, "duration": 47, "velocity": 98}, {"time": 4206, "pitch": 68, "duration": 48, "velocity": 95}, {"time": 4303, "pitch": 75, "duration": 11, "velocity": 94}, {"time": 4315, "pitch": 73, "duration": 11, "velocity": 91}, {"time": 4327, "pitch": 75, "duration": 11, "velocity": 90}, {"time": 4338, "pitch": 78, "duration": 13, "velocity": 90}, {"time": 4350, "pitch": 71, "duration": 49, "velocity": 94}, {"time": 4542, "pitch": 71, "duration": 24, "velocity": 91}, {"time": 4566, "pitch": 75, "duration": 25, "velocity": 93}, {"time": 4590, "pitch": 71, "duration": 42, "velocity": 98}, {"time": 4638, "pitch": 75, "duration": 36, "velocity": 86}, {"time": 4674, "pitch": 71, "duration": 12, "velocity": 98}, {"time": 4686, "pitch": 73, "duration": 36, "velocity": 100}, {"time": 4722, "pitch": 71, "duration": 6, "velocity": 84}, {"time": 4728, "pitch": 73, "duration": 6, "velocity": 84}, {"time": 4734, "pitch": 75, "duration": 6, "velocity": 84}, {"time": 4740, "pitch": 73, "duration": 3, "velocity": 75}, {"time": 4744, "pitch": 71, "duration": 2, "velocity": 83}, {"time": 4746, "pitch": 73, "duration": 6, "velocity": 83}, {"time": 4746, "pitch": 73, "duration": 6, "velocity": 95}, {"time": 4752, "pitch": 71, "duration": 3, "velocity": 84}, {"time": 4756, "pitch": 70, "duration": 2, "velocity": 67}, {"time": 4758, "pitch": 71, "duration": 6, "velocity": 86}, {"time": 4764, "pitch": 70, "duration": 3, "velocity": 76}, {"time": 4768, "pitch": 68, "duration": 2, "velocity": 76}, {"time": 4770, "pitch": 70, "duration": 6, "velocity": 84}, {"time": 4776, "pitch": 68, "duration": 3, "velocity": 72}, {"time": 4780, "pitch": 66, "duration": 2, "velocity": 79}, {"time": 4782, "pitch": 68, "duration": 3, "velocity": 86}, {"time": 4786, "pitch": 66, "duration": 2, "velocity": 71}, {"time": 4788, "pitch": 63, "duration": 30, "velocity": 76}, {"time": 4818, "pitch": 66, "duration": 12, "velocity": 91}, {"time": 4830, "pitch": 68, "duration": 36, "velocity": 101}, {"time": 4866, "pitch": 66, "duration": 6, "velocity": 91}, {"time": 4872, "pitch": 68, "duration": 6, "velocity": 90}, {"time": 4878, "pitch": 71, "duration": 36, "velocity": 106}, {"time": 4914, "pitch": 68, "duration": 6, "velocity": 90}, {"time": 4920, "pitch": 75, "duration": 6, "velocity": 86}, {"time": 4926, "pitch": 73, "duration": 3, "velocity": 86}, {"time": 4930, "pitch": 75, "duration": 2, "velocity": 84}, {"time": 4932, "pitch": 73, "duration": 18, "velocity": 90}, {"time": 4950, "pitch": 71, "duration": 12, "velocity": 98}, {"time": 4962, "pitch": 70, "duration": 12, "velocity": 98}, {"time": 4962, "pitch": 73, "duration": 12, "velocity": 98}, {"time": 4974, "pitch": 68, "duration": 48, "velocity": 100}, {"time": 4974, "pitch": 71, "duration": 48, "velocity": 98}, {"time": 5022, "pitch": 75, "duration": 36, "velocity": 86}, {"time": 5058, "pitch": 71, "duration": 12, "velocity": 98}, {"time": 5070, "pitch": 73, "duration": 36, "velocity": 100}, {"time": 5106, "pitch": 71, "duration": 6, "velocity": 84}, {"time": 5112, "pitch": 73, "duration": 6, "velocity": 84}, {"time": 5118, "pitch": 75, "duration": 6, "velocity": 84}, {"time": 5124, "pitch": 73, "duration": 3, "velocity": 75}, {"time": 5128, "pitch": 71, "duration": 2, "velocity": 83}, {"time": 5130, "pitch": 73, "duration": 6, "velocity": 83}, {"time": 5130, "pitch": 73, "duration": 6, "velocity": 95}, {"time": 5136, "pitch": 71, "duration": 3, "velocity": 84}, {"time": 5140, "pitch": 70, "duration": 2, "velocity": 67}, {"time": 5142, "pitch": 71, "duration": 6, "velocity": 86}, {"time": 5148, "pitch": 70, "duration": 3, "velocity": 76}, {"time": 5152, "pitch": 68, "duration": 2, "velocity": 76}, {"time": 5154, "pitch": 70, "duration": 6, "velocity": 84}, {"time": 5160, "pitch": 68, "duration": 3, "velocity": 72}, {"time": 5164, "pitch": 66, "duration": 2, "velocity": 79}, {"time": 5166, "pitch": 68, "duration": 3, "velocity": 86}, {"time": 5170, "pitch": 66, "duration": 2, "velocity": 71}, {"time": 5172, "pitch": 63, "duration": 30, "velocity": 76}, {"time": 5202, "pitch": 66, "duration": 12, "velocity": 91}, {"time": 5214, "pitch": 68, "duration": 36, "velocity": 101}, {"time": 5250, "pitch": 66, "duration": 6, "velocity": 91}, {"time": 5256, "pitch": 68, "duration": 6, "velocity": 90}, {"time": 5262, "pitch": 71, "duration": 36, "velocity": 106}, {"time": 5298, "pitch": 68, "duration": 6, "velocity": 90}, {"time": 5304, "pitch": 75, "duration": 6, "velocity": 86}, {"time": 5310, "pitch": 73, "duration": 3, "velocity": 86}, {"time": 5314, "pitch": 75, "duration": 2, "velocity": 84}, {"time": 5316, "pitch": 73, "duration": 18, "velocity": 90}, {"time": 5334, "pitch": 71, "duration": 12, "velocity": 98}, {"time": 5346, "pitch": 70, "duration": 12, "velocity": 98}, {"time": 5346, "pitch": 73, "duration": 12, "velocity": 98}, {"time": 5358, "pitch": 68, "duration": 48, "velocity": 100}, {"time": 5358, "pitch": 71, "duration": 48, "velocity": 98}]}, {"program": 0, "is_drum": false, "name": "PIANO", "notes": [{"time": 318, "pitch": 55, "duration": 39, "velocity": 79}, {"time": 324, "pitch": 62, "duration": 33, "velocity": 78}, {"time": 330, "pitch": 65, "duration": 26, "velocity": 86}, {"time": 336, "pitch": 67, "duration": 9, "velocity": 86}, {"time": 342, "pitch": 70, "duration": 31, "velocity": 91}, {"time": 366, "pitch": 50, "duration": 41, "velocity": 84}, {"time": 372, "pitch": 57, "duration": 35, "velocity": 80}, {"time": 378, "pitch": 62, "duration": 29, "velocity": 82}, {"time": 384, "pitch": 67, "duration": 29, "velocity": 75}, {"time": 390, "pitch": 69, "duration": 27, "velocity": 84}, {"time": 414, "pitch": 51, "duration": 19, "velocity": 86}, {"time": 420, "pitch": 58, "duration": 16, "velocity": 82}, {"time": 426, "pitch": 63, "duration": 9, "velocity": 84}, {"time": 432, "pitch": 70, "duration": 11, "velocity": 84}, {"time": 438, "pitch": 53, "duration": 17, "velocity": 81}, {"time": 438, "pitch": 69, "duration": 9, "velocity": 50}, {"time": 444, "pitch": 60, "duration": 11, "velocity": 82}, {"time": 450, "pitch": 65, "duration": 6, "velocity": 82}, {"time": 456, "pitch": 67, "duration": 13, "velocity": 76}, {"time": 462, "pitch": 46, "duration": 39, "velocity": 86}, {"time": 468, "pitch": 53, "duration": 34, "velocity": 78}, {"time": 474, "pitch": 58, "duration": 30, "velocity": 83}, {"time": 480, "pitch": 62, "duration": 22, "velocity": 73}, {"time": 486, "pitch": 72, "duration": 10, "velocity": 79}, {"time": 498, "pitch": 72, "duration": 5, "velocity": 81}, {"time": 504, "pitch": 70, "duration": 10, "velocity": 69}, {"time": 510, "pitch": 55, "duration": 37, "velocity": 82}, {"time": 516, "pitch": 62, "duration": 30, "velocity": 76}, {"time": 522, "pitch": 65, "duration": 20, "velocity": 80}, {"time": 528, "pitch": 70, "duration": 8, "velocity": 79}, {"time": 534, "pitch": 74, "duration": 6, "velocity": 77}, {"time": 540, "pitch": 77, "duration": 8, "velocity": 80}, {"time": 546, "pitch": 74, "duration": 8, "velocity": 79}, {"time": 552, "pitch": 72, "duration": 10, "velocity": 80}, {"time": 558, "pitch": 50, "duration": 42, "velocity": 84}, {"time": 564, "pitch": 57, "duration": 34, "velocity": 78}, {"time": 570, "pitch": 62, "duration": 15, "velocity": 63}, {"time": 576, "pitch": 67, "duration": 24, "velocity": 80}, {"time": 582, "pitch": 69, "duration": 29, "velocity": 84}, {"time": 606, "pitch": 51, "duration": 26, "velocity": 80}, {"time": 612, "pitch": 55, "duration": 16, "velocity": 59}, {"time": 618, "pitch": 58, "duration": 8, "velocity": 53}, {"time": 624, "pitch": 63, "duration": 11, "velocity": 84}, {"time": 630, "pitch": 53, "duration": 16, "velocity": 84}, {"time": 636, "pitch": 60, "duration": 8, "velocity": 76}, {"time": 642, "pitch": 65, "duration": 8, "velocity": 76}, {"time": 648, "pitch": 67, "duration": 6, "velocity": 78}, {"time": 654, "pitch": 43, "duration": 35, "velocity": 80}, {"time": 654, "pitch": 62, "duration": 13, "velocity": 74}, {"time": 654, "pitch": 70, "duration": 12, "velocity": 83}, {"time": 660, "pitch": 50, "duration": 28, "velocity": 75}, {"time": 666, "pitch": 55, "duration": 22, "velocity": 73}, {"time": 672, "pitch": 57, "duration": 8, "velocity": 56}, {"time": 678, "pitch": 62, "duration": 11, "velocity": 79}, {"time": 702, "pitch": 55, "duration": 39, "velocity": 79}, {"time": 708, "pitch": 62, "duration": 33, "velocity": 78}, {"time": 714, "pitch": 65, "duration": 26, "velocity": 86}, {"time": 720, "pitch": 67, "duration": 9, "velocity": 86}, {"time": 726, "pitch": 70, "duration": 31, "velocity": 91}, {"time": 750, "pitch": 50, "duration": 41, "velocity": 84}, {"time": 756, "pitch": 57, "duration": 35, "velocity": 80}, {"time": 762, "pitch": 62, "duration": 29, "velocity": 82}, {"time": 768, "pitch": 67, "duration": 29, "velocity": 75}, {"time": 774, "pitch": 69, "duration": 27, "velocity": 84}, {"time": 798, "pitch": 51, "duration": 19, "velocity": 86}, {"time": 804, "pitch": 58, "duration": 16, "velocity": 82}, {"time": 810, "pitch": 63, "duration": 9, "velocity": 84}, {"time": 816, "pitch": 70, "duration": 11, "velocity": 84}, {"time": 822, "pitch": 53, "duration": 17, "velocity": 81}, {"time": 822, "pitch": 69, "duration": 9, "velocity": 50}, {"time": 828, "pitch": 60, "duration": 11, "velocity": 82}, {"time": 834, "pitch": 65, "duration": 6, "velocity": 82}, {"time": 840, "pitch": 67, "duration": 13, "velocity": 76}, {"time": 846, "pitch": 46, "duration": 39, "velocity": 86}, {"time": 852, "pitch": 53, "duration": 34, "velocity": 78}, {"time": 858, "pitch": 58, "duration": 30, "velocity": 83}, {"time": 864, "pitch": 62, "duration": 22, "velocity": 73}, {"time": 870, "pitch": 72, "duration": 10, "velocity": 79}, {"time": 894, "pitch": 55, "duration": 37, "velocity": 82}, {"time": 900, "pitch": 62, "duration": 30, "velocity": 76}, {"time": 906, "pitch": 65, "duration": 20, "velocity": 80}, {"time": 912, "pitch": 70, "duration": 8, "velocity": 79}, {"time": 942, "pitch": 50, "duration": 42, "velocity": 84}, {"time": 948, "pitch": 57, "duration": 34, "velocity": 78}, {"time": 954, "pitch": 62, "duration": 15, "velocity": 63}, {"time": 960, "pitch": 67, "duration": 24, "velocity": 80}, {"time": 966, "pitch": 69, "duration": 29, "velocity": 84}, {"time": 990, "pitch": 51, "duration": 26, "velocity": 80}, {"time": 996, "pitch": 55, "duration": 16, "velocity": 59}, {"time": 1002, "pitch": 58, "duration": 8, "velocity": 53}, {"time": 1008, "pitch": 63, "duration": 11, "velocity": 84}, {"time": 1014, "pitch": 53, "duration": 16, "velocity": 84}, {"time": 1020, "pitch": 60, "duration": 8, "velocity": 76}, {"time": 1026, "pitch": 65, "duration": 8, "velocity": 76}, {"time": 1032, "pitch": 67, "duration": 6, "velocity": 78}, {"time": 1038, "pitch": 43, "duration": 35, "velocity": 80}, {"time": 1038, "pitch": 62, "duration": 13, "velocity": 74}, {"time": 1038, "pitch": 70, "duration": 12, "velocity": 83}, {"time": 1044, "pitch": 50, "duration": 28, "velocity": 75}, {"time": 1050, "pitch": 55, "duration": 22, "velocity": 73}, {"time": 1056, "pitch": 57, "duration": 8, "velocity": 56}, {"time": 1062, "pitch": 62, "duration": 11, "velocity": 79}, {"time": 1086, "pitch": 55, "duration": 39, "velocity": 79}, {"time": 1092, "pitch": 62, "duration": 33, "velocity": 78}, {"time": 1098, "pitch": 65, "duration": 26, "velocity": 86}, {"time": 1110, "pitch": 70, "duration": 31, "velocity": 91}, {"time": 1134, "pitch": 50, "duration": 41, "velocity": 84}, {"time": 1140, "pitch": 57, "duration": 35, "velocity": 80}, {"time": 1146, "pitch": 62, "duration": 29, "velocity": 82}, {"time": 1152, "pitch": 67, "duration": 29, "velocity": 75}, {"time": 1158, "pitch": 69, "duration": 27, "velocity": 84}, {"time": 1182, "pitch": 51, "duration": 19, "velocity": 86}, {"time": 1188, "pitch": 58, "duration": 16, "velocity": 82}, {"time": 1194, "pitch": 63, "duration": 9, "velocity": 84}, {"time": 1200, "pitch": 70, "duration": 11, "velocity": 84}, {"time": 1206, "pitch": 53, "duration": 17, "velocity": 81}, {"time": 1206, "pitch": 69, "duration": 9, "velocity": 50}, {"time": 1212, "pitch": 60, "duration": 11, "velocity": 82}, {"time": 1218, "pitch": 65, "duration": 6, "velocity": 82}, {"time": 1224, "pitch": 67, "duration": 13, "velocity": 76}, {"time": 1230, "pitch": 46, "duration": 39, "velocity": 86}, {"time": 1236, "pitch": 53, "duration": 34, "velocity": 78}, {"time": 1242, "pitch": 58, "duration": 30, "velocity": 83}, {"time": 1248, "pitch": 62, "duration": 22, "velocity": 73}, {"time": 1254, "pitch": 72, "duration": 10, "velocity": 79}, {"time": 1278, "pitch": 55, "duration": 37, "velocity": 82}, {"time": 1284, "pitch": 62, "duration": 30, "velocity": 76}, {"time": 1290, "pitch": 65, "duration": 20, "velocity": 80}, {"time": 1296, "pitch": 70, "duration": 8, "velocity": 79}, {"time": 1326, "pitch": 50, "duration": 42, "velocity": 84}, {"time": 1332, "pitch": 57, "duration": 34, "velocity": 78}, {"time": 1338, "pitch": 62, "duration": 15, "velocity": 63}, {"time": 1344, "pitch": 67, "duration": 24, "velocity": 80}, {"time": 1350, "pitch": 69, "duration": 29, "velocity": 84}, {"time": 1374, "pitch": 51, "duration": 26, "velocity": 80}, {"time": 1380, "pitch": 55, "duration": 16, "velocity": 59}, {"time": 1386, "pitch": 58, "duration": 8, "velocity": 53}, {"time": 1392, "pitch": 63, "duration": 11, "velocity": 84}, {"time": 1398, "pitch": 53, "duration": 16, "velocity": 84}, {"time": 1404, "pitch": 60, "duration": 8, "velocity": 76}, {"time": 1410, "pitch": 65, "duration": 8, "velocity": 76}, {"time": 1416, "pitch": 67, "duration": 6, "velocity": 78}, {"time": 1422, "pitch": 43, "duration": 35, "velocity": 80}, {"time": 1422, "pitch": 62, "duration": 13, "velocity": 74}, {"time": 1422, "pitch": 70, "duration": 12, "velocity": 83}, {"time": 1428, "pitch": 50, "duration": 28, "velocity": 75}, {"time": 1434, "pitch": 55, "duration": 22, "velocity": 73}, {"time": 1440, "pitch": 57, "duration": 8, "velocity": 56}, {"time": 1446, "pitch": 58, "duration": 11, "velocity": 79}, {"time": 1470, "pitch": 43, "duration": 48, "velocity": 84}, {"time": 1470, "pitch": 70, "duration": 11, "velocity": 96}, {"time": 1476, "pitch": 50, "duration": 5, "velocity": 73}, {"time": 1476, "pitch": 62, "duration": 8, "velocity": 72}, {"time": 1482, "pitch": 55, "duration": 8, "velocity": 55}, {"time": 1482, "pitch": 69, "duration": 8, "velocity": 80}, {"time": 1488, "pitch": 57, "duration": 18, "velocity": 75}, {"time": 1488, "pitch": 70, "duration": 14, "velocity": 83}, {"time": 1494, "pitch": 58, "duration": 11, "velocity": 83}, {"time": 1500, "pitch": 62, "duration": 5, "velocity": 90}, {"time": 1506, "pitch": 67, "duration": 6, "velocity": 78}, {"time": 1512, "pitch": 70, "duration": 5, "velocity": 84}, {"time": 1518, "pitch": 38, "duration": 46, "velocity": 90}, {"time": 1518, "pitch": 60, "duration": 17, "velocity": 80}, {"time": 1518, "pitch": 65, "duration": 17, "velocity": 79}, {"time": 1518, "pitch": 69, "duration": 20, "velocity": 84}, {"time": 1524, "pitch": 50, "duration": 8, "velocity": 80}, {"time": 1530, "pitch": 53, "duration": 25, "velocity": 75}, {"time": 1536, "pitch": 57, "duration": 17, "velocity": 86}, {"time": 1542, "pitch": 60, "duration": 8, "velocity": 84}, {"time": 1548, "pitch": 65, "duration": 5, "velocity": 82}, {"time": 1566, "pitch": 39, "duration": 24, "velocity": 81}, {"time": 1566, "pitch": 63, "duration": 12, "velocity": 79}, {"time": 1566, "pitch": 67, "duration": 11, "velocity": 80}, {"time": 1572, "pitch": 46, "duration": 12, "velocity": 83}, {"time": 1578, "pitch": 51, "duration": 9, "velocity": 83}, {"time": 1590, "pitch": 41, "duration": 24, "velocity": 84}, {"time": 1590, "pitch": 57, "duration": 11, "velocity": 79}, {"time": 1590, "pitch": 60, "duration": 13, "velocity": 84}, {"time": 1590, "pitch": 65, "duration": 10, "velocity": 82}, {"time": 1596, "pitch": 48, "duration": 8, "velocity": 80}, {"time": 1602, "pitch": 53, "duration": 11, "velocity": 73}, {"time": 1608, "pitch": 57, "duration": 5, "velocity": 82}, {"time": 1614, "pitch": 46, "duration": 10, "velocity": 86}, {"time": 1614, "pitch": 58, "duration": 7, "velocity": 90}, {"time": 1614, "pitch": 62, "duration": 8, "velocity": 84}, {"time": 1620, "pitch": 53, "duration": 6, "velocity": 78}, {"time": 1626, "pitch": 58, "duration": 7, "velocity": 75}, {"time": 1632, "pitch": 60, "duration": 14, "velocity": 75}, {"time": 1632, "pitch": 65, "duration": 15, "velocity": 78}, {"time": 1632, "pitch": 74, "duration": 9, "velocity": 83}, {"time": 1638, "pitch": 62, "duration": 14, "velocity": 76}, {"time": 1638, "pitch": 72, "duration": 13, "velocity": 86}, {"time": 1650, "pitch": 60, "duration": 3, "velocity": 80}, {"time": 1650, "pitch": 65, "duration": 7, "velocity": 72}, {"time": 1650, "pitch": 70, "duration": 7, "velocity": 90}, {"time": 1656, "pitch": 69, "duration": 6, "velocity": 81}, {"time": 1662, "pitch": 43, "duration": 40, "velocity": 84}, {"time": 1662, "pitch": 67, "duration": 10, "velocity": 79}, {"time": 1662, "pitch": 70, "duration": 9, "velocity": 80}, {"time": 1668, "pitch": 50, "duration": 28, "velocity": 78}, {"time": 1674, "pitch": 55, "duration": 14, "velocity": 73}, {"time": 1680, "pitch": 58, "duration": 5, "velocity": 75}, {"time": 1686, "pitch": 58, "duration": 7, "velocity": 80}, {"time": 1686, "pitch": 62, "duration": 8, "velocity": 83}, {"time": 1686, "pitch": 67, "duration": 8, "velocity": 81}, {"time": 1692, "pitch": 55, "duration": 7, "velocity": 60}, {"time": 1698, "pitch": 58, "duration": 6, "velocity": 77}, {"time": 1698, "pitch": 62, "duration": 4, "velocity": 69}, {"time": 1698, "pitch": 67, "duration": 8, "velocity": 78}, {"time": 1704, "pitch": 50, "duration": 2, "velocity": 80}, {"time": 1710, "pitch": 38, "duration": 6, "velocity": 86}, {"time": 1710, "pitch": 57, "duration": 11, "velocity": 83}, {"time": 1710, "pitch": 62, "duration": 14, "velocity": 82}, {"time": 1710, "pitch": 65, "duration": 16, "velocity": 82}, {"time": 1716, "pitch": 50, "duration": 6, "velocity": 79}, {"time": 1722, "pitch": 53, "duration": 19, "velocity": 72}, {"time": 1728, "pitch": 57, "duration": 12, "velocity": 75}, {"time": 1734, "pitch": 65, "duration": 5, "velocity": 80}, {"time": 1752, "pitch": 70, "duration": 21, "velocity": 86}, {"time": 1758, "pitch": 39, "duration": 14, "velocity": 82}, {"time": 1758, "pitch": 58, "duration": 12, "velocity": 79}, {"time": 1758, "pitch": 63, "duration": 14, "velocity": 54}, {"time": 1758, "pitch": 67, "duration": 15, "velocity": 80}, {"time": 1764, "pitch": 46, "duration": 10, "velocity": 80}, {"time": 1770, "pitch": 51, "duration": 4, "velocity": 83}, {"time": 1782, "pitch": 41, "duration": 16, "velocity": 83}, {"time": 1782, "pitch": 60, "duration": 9, "velocity": 80}, {"time": 1782, "pitch": 65, "duration": 9, "velocity": 83}, {"time": 1788, "pitch": 53, "duration": 15, "velocity": 72}, {"time": 1800, "pitch": 69, "duration": 6, "velocity": 82}, {"time": 1806, "pitch": 43, "duration": 39, "velocity": 80}, {"time": 1806, "pitch": 62, "duration": 12, "velocity": 76}, {"time": 1806, "pitch": 67, "duration": 11, "velocity": 74}, {"time": 1806, "pitch": 70, "duration": 11, "velocity": 83}, {"time": 1812, "pitch": 50, "duration": 34, "velocity": 76}, {"time": 1818, "pitch": 55, "duration": 26, "velocity": 71}, {"time": 1824, "pitch": 57, "duration": 7, "velocity": 72}, {"time": 1830, "pitch": 58, "duration": 4, "velocity": 86}, {"time": 1842, "pitch": 62, "duration": 5, "velocity": 80}, {"time": 1854, "pitch": 43, "duration": 10, "velocity": 78}, {"time": 1854, "pitch": 62, "duration": 9, "velocity": 74}, {"time": 1854, "pitch": 67, "duration": 9, "velocity": 73}, {"time": 1854, "pitch": 70, "duration": 9, "velocity": 80}, {"time": 1860, "pitch": 50, "duration": 6, "velocity": 73}, {"time": 1866, "pitch": 55, "duration": 9, "velocity": 51}, {"time": 1866, "pitch": 62, "duration": 4, "velocity": 74}, {"time": 1866, "pitch": 70, "duration": 8, "velocity": 80}, {"time": 1872, "pitch": 57, "duration": 9, "velocity": 67}, {"time": 1878, "pitch": 58, "duration": 8, "velocity": 77}, {"time": 1878, "pitch": 60, "duration": 7, "velocity": 77}, {"time": 1878, "pitch": 69, "duration": 9, "velocity": 86}, {"time": 1884, "pitch": 57, "duration": 6, "velocity": 73}, {"time": 1890, "pitch": 62, "duration": 3, "velocity": 72}, {"time": 1890, "pitch": 67, "duration": 4, "velocity": 78}, {"time": 1896, "pitch": 69, "duration": 5, "velocity": 73}, {"time": 1902, "pitch": 38, "duration": 5, "velocity": 83}, {"time": 1902, "pitch": 60, "duration": 19, "velocity": 75}, {"time": 1902, "pitch": 65, "duration": 20, "velocity": 80}, {"time": 1908, "pitch": 50, "duration": 8, "velocity": 60}, {"time": 1914, "pitch": 53, "duration": 28, "velocity": 72}, {"time": 1920, "pitch": 57, "duration": 14, "velocity": 75}, {"time": 1926, "pitch": 60, "duration": 9, "velocity": 68}, {"time": 1932, "pitch": 72, "duration": 7, "velocity": 84}, {"time": 1938, "pitch": 57, "duration": 3, "velocity": 80}, {"time": 1944, "pitch": 67, "duration": 3, "velocity": 71}, {"time": 1950, "pitch": 39, "duration": 17, "velocity": 82}, {"time": 1950, "pitch": 58, "duration": 14, "velocity": 71}, {"time": 1950, "pitch": 63, "duration": 12, "velocity": 77}, {"time": 1950, "pitch": 67, "duration": 13, "velocity": 72}, {"time": 1956, "pitch": 46, "duration": 12, "velocity": 79}, {"time": 1962, "pitch": 51, "duration": 6, "velocity": 75}, {"time": 1968, "pitch": 58, "duration": 2, "velocity": 39}, {"time": 1974, "pitch": 41, "duration": 15, "velocity": 83}, {"time": 1974, "pitch": 60, "duration": 15, "velocity": 78}, {"time": 1974, "pitch": 65, "duration": 15, "velocity": 79}, {"time": 1974, "pitch": 69, "duration": 14, "velocity": 86}, {"time": 1980, "pitch": 48, "duration": 9, "velocity": 78}, {"time": 1986, "pitch": 53, "duration": 10, "velocity": 79}, {"time": 1992, "pitch": 60, "duration": 4, "velocity": 71}, {"time": 1998, "pitch": 46, "duration": 11, "velocity": 86}, {"time": 1998, "pitch": 62, "duration": 6, "velocity": 76}, {"time": 1998, "pitch": 65, "duration": 7, "velocity": 80}, {"time": 1998, "pitch": 70, "duration": 8, "velocity": 79}, {"time": 2004, "pitch": 53, "duration": 6, "velocity": 72}, {"time": 2010, "pitch": 58, "duration": 7, "velocity": 59}, {"time": 2016, "pitch": 60, "duration": 10, "velocity": 78}, {"time": 2016, "pitch": 65, "duration": 4, "velocity": 72}, {"time": 2016, "pitch": 70, "duration": 2, "velocity": 68}, {"time": 2016, "pitch": 74, "duration": 8, "velocity": 80}, {"time": 2022, "pitch": 62, "duration": 13, "velocity": 76}, {"time": 2022, "pitch": 65, "duration": 5, "velocity": 73}, {"time": 2022, "pitch": 72, "duration": 6, "velocity": 84}, {"time": 2028, "pitch": 70, "duration": 3, "velocity": 82}, {"time": 2034, "pitch": 60, "duration": 3, "velocity": 78}, {"time": 2034, "pitch": 69, "duration": 5, "velocity": 82}, {"time": 2040, "pitch": 67, "duration": 4, "velocity": 79}, {"time": 2046, "pitch": 43, "duration": 10, "velocity": 78}, {"time": 2046, "pitch": 67, "duration": 9, "velocity": 79}, {"time": 2046, "pitch": 70, "duration": 10, "velocity": 84}, {"time": 2052, "pitch": 50, "duration": 5, "velocity": 72}, {"time": 2058, "pitch": 55, "duration": 6, "velocity": 60}, {"time": 2064, "pitch": 57, "duration": 7, "velocity": 71}, {"time": 2064, "pitch": 70, "duration": 5, "velocity": 83}, {"time": 2064, "pitch": 74, "duration": 3, "velocity": 73}, {"time": 2070, "pitch": 58, "duration": 7, "velocity": 75}, {"time": 2070, "pitch": 70, "duration": 9, "velocity": 84}, {"time": 2070, "pitch": 74, "duration": 7, "velocity": 72}, {"time": 2076, "pitch": 57, "duration": 7, "velocity": 73}, {"time": 2082, "pitch": 55, "duration": 3, "velocity": 63}, {"time": 2082, "pitch": 69, "duration": 5, "velocity": 57}, {"time": 2082, "pitch": 72, "duration": 7, "velocity": 55}, {"time": 2088, "pitch": 67, "duration": 4, "velocity": 67}, {"time": 2088, "pitch": 70, "duration": 5, "velocity": 80}, {"time": 2094, "pitch": 38, "duration": 39, "velocity": 82}, {"time": 2094, "pitch": 65, "duration": 8, "velocity": 72}, {"time": 2094, "pitch": 69, "duration": 8, "velocity": 79}, {"time": 2100, "pitch": 45, "duration": 34, "velocity": 82}, {"time": 2106, "pitch": 50, "duration": 14, "velocity": 73}, {"time": 2112, "pitch": 53, "duration": 4, "velocity": 68}, {"time": 2112, "pitch": 57, "duration": 4, "velocity": 78}, {"time": 2118, "pitch": 53, "duration": 8, "velocity": 79}, {"time": 2118, "pitch": 60, "duration": 9, "velocity": 82}, {"time": 2124, "pitch": 50, "duration": 7, "velocity": 58}, {"time": 2130, "pitch": 53, "duration": 2, "velocity": 67}, {"time": 2130, "pitch": 57, "duration": 2, "velocity": 71}, {"time": 2142, "pitch": 39, "duration": 14, "velocity": 83}, {"time": 2142, "pitch": 51, "duration": 4, "velocity": 76}, {"time": 2142, "pitch": 55, "duration": 8, "velocity": 75}, {"time": 2142, "pitch": 58, "duration": 8, "velocity": 86}, {"time": 2142, "pitch": 63, "duration": 8, "velocity": 84}, {"time": 2148, "pitch": 51, "duration": 10, "velocity": 63}, {"time": 2154, "pitch": 55, "duration": 5, "velocity": 72}, {"time": 2160, "pitch": 58, "duration": 4, "velocity": 69}, {"time": 2166, "pitch": 41, "duration": 14, "velocity": 82}, {"time": 2166, "pitch": 53, "duration": 9, "velocity": 69}, {"time": 2166, "pitch": 57, "duration": 12, "velocity": 77}, {"time": 2166, "pitch": 60, "duration": 14, "velocity": 83}, {"time": 2166, "pitch": 65, "duration": 12, "velocity": 78}, {"time": 2178, "pitch": 53, "duration": 4, "velocity": 79}, {"time": 2184, "pitch": 57, "duration": 4, "velocity": 56}, {"time": 2190, "pitch": 43, "duration": 38, "velocity": 83}, {"time": 2190, "pitch": 58, "duration": 13, "velocity": 90}, {"time": 2190, "pitch": 62, "duration": 13, "velocity": 83}, {"time": 2202, "pitch": 55, "duration": 26, "velocity": 19}, {"time": 2208, "pitch": 57, "duration": 9, "velocity": 73}, {"time": 2214, "pitch": 58, "duration": 13, "velocity": 84}, {"time": 2214, "pitch": 62, "duration": 14, "velocity": 80}, {"time": 2238, "pitch": 55, "duration": 39, "velocity": 79}, {"time": 2244, "pitch": 62, "duration": 33, "velocity": 78}, {"time": 2250, "pitch": 65, "duration": 26, "velocity": 86}, {"time": 2256, "pitch": 67, "duration": 9, "velocity": 86}, {"time": 2262, "pitch": 70, "duration": 31, "velocity": 91}, {"time": 2286, "pitch": 50, "duration": 41, "velocity": 84}, {"time": 2292, "pitch": 57, "duration": 35, "velocity": 80}, {"time": 2298, "pitch": 62, "duration": 29, "velocity": 82}, {"time": 2304, "pitch": 67, "duration": 29, "velocity": 75}, {"time": 2310, "pitch": 69, "duration": 27, "velocity": 84}, {"time": 2334, "pitch": 51, "duration": 19, "velocity": 86}, {"time": 2340, "pitch": 58, "duration": 16, "velocity": 82}, {"time": 2346, "pitch": 63, "duration": 9, "velocity": 84}, {"time": 2352, "pitch": 70, "duration": 11, "velocity": 84}, {"time": 2358, "pitch": 53, "duration": 17, "velocity": 81}, {"time": 2358, "pitch": 69, "duration": 9, "velocity": 50}, {"time": 2364, "pitch": 60, "duration": 11, "velocity": 82}, {"time": 2370, "pitch": 65, "duration": 6, "velocity": 82}, {"time": 2376, "pitch": 67, "duration": 13, "velocity": 76}, {"time": 2382, "pitch": 46, "duration": 39, "velocity": 86}, {"time": 2388, "pitch": 53, "duration": 34, "velocity": 78}, {"time": 2394, "pitch": 58, "duration": 30, "velocity": 83}, {"time": 2400, "pitch": 62, "duration": 22, "velocity": 73}, {"time": 2406, "pitch": 72, "duration": 10, "velocity": 79}, {"time": 2418, "pitch": 72, "duration": 5, "velocity": 81}, {"time": 2424, "pitch": 70, "duration": 10, "velocity": 69}, {"time": 2430, "pitch": 55, "duration": 37, "velocity": 82}, {"time": 2436, "pitch": 62, "duration": 30, "velocity": 76}, {"time": 2442, "pitch": 65, "duration": 20, "velocity": 80}, {"time": 2448, "pitch": 70, "duration": 8, "velocity": 79}, {"time": 2454, "pitch": 74, "duration": 6, "velocity": 77}, {"time": 2460, "pitch": 77, "duration": 8, "velocity": 80}, {"time": 2466, "pitch": 74, "duration": 8, "velocity": 79}, {"time": 2472, "pitch": 72, "duration": 10, "velocity": 80}, {"time": 2478, "pitch": 50, "duration": 42, "velocity": 84}, {"time": 2484, "pitch": 57, "duration": 34, "velocity": 78}, {"time": 2490, "pitch": 62, "duration": 15, "velocity": 63}, {"time": 2496, "pitch": 67, "duration": 24, "velocity": 80}, {"time": 2502, "pitch": 69, "duration": 29, "velocity": 84}, {"time": 2526, "pitch": 51, "duration": 26, "velocity": 80}, {"time": 2532, "pitch": 55, "duration": 16, "velocity": 59}, {"time": 2538, "pitch": 58, "duration": 8, "velocity": 53}, {"time": 2544, "pitch": 63, "duration": 11, "velocity": 84}, {"time": 2550, "pitch": 53, "duration": 16, "velocity": 84}, {"time": 2556, "pitch": 60, "duration": 8, "velocity": 76}, {"time": 2562, "pitch": 65, "duration": 8, "velocity": 76}, {"time": 2568, "pitch": 67, "duration": 6, "velocity": 78}, {"time": 2574, "pitch": 43, "duration": 35, "velocity": 80}, {"time": 2574, "pitch": 62, "duration": 13, "velocity": 74}, {"time": 2574, "pitch": 70, "duration": 12, "velocity": 83}, {"time": 2580, "pitch": 50, "duration": 28, "velocity": 75}, {"time": 2586, "pitch": 55, "duration": 22, "velocity": 73}, {"time": 2592, "pitch": 57, "duration": 8, "velocity": 56}, {"time": 2598, "pitch": 62, "duration": 11, "velocity": 79}, {"time": 2622, "pitch": 55, "duration": 39, "velocity": 79}, {"time": 2628, "pitch": 62, "duration": 33, "velocity": 78}, {"time": 2634, "pitch": 65, "duration": 26, "velocity": 86}, {"time": 2640, "pitch": 67, "duration": 9, "velocity": 86}, {"time": 2646, "pitch": 70, "duration": 31, "velocity": 91}, {"time": 2670, "pitch": 50, "duration": 41, "velocity": 84}, {"time": 2676, "pitch": 57, "duration": 35, "velocity": 80}, {"time": 2682, "pitch": 62, "duration": 29, "velocity": 82}, {"time": 2688, "pitch": 67, "duration": 29, "velocity": 75}, {"time": 2694, "pitch": 69, "duration": 27, "velocity": 84}, {"time": 2718, "pitch": 51, "duration": 19, "velocity": 86}, {"time": 2724, "pitch": 58, "duration": 16, "velocity": 82}, {"time": 2730, "pitch": 63, "duration": 9, "velocity": 84}, {"time": 2736, "pitch": 70, "duration": 11, "velocity": 84}, {"time": 2742, "pitch": 53, "duration": 17, "velocity": 81}, {"time": 2742, "pitch": 69, "duration": 9, "velocity": 50}, {"time": 2748, "pitch": 60, "duration": 11, "velocity": 82}, {"time": 2754, "pitch": 65, "duration": 6, "velocity": 82}, {"time": 2760, "pitch": 67, "duration": 13, "velocity": 76}, {"time": 2766, "pitch": 46, "duration": 39, "velocity": 86}, {"time": 2772, "pitch": 53, "duration": 34, "velocity": 78}, {"time": 2778, "pitch": 58, "duration": 30, "velocity": 83}, {"time": 2784, "pitch": 62, "duration": 22, "velocity": 73}, {"time": 2790, "pitch": 72, "duration": 10, "velocity": 79}, {"time": 2814, "pitch": 55, "duration": 37, "velocity": 82}, {"time": 2820, "pitch": 62, "duration": 30, "velocity": 76}, {"time": 2826, "pitch": 65, "duration": 20, "velocity": 80}, {"time": 2832, "pitch": 70, "duration": 8, "velocity": 79}, {"time": 2838, "pitch": 74, "duration": 6, "velocity": 77}, {"time": 2862, "pitch": 50, "duration": 42, "velocity": 84}, {"time": 2868, "pitch": 57, "duration": 34, "velocity": 78}, {"time": 2874, "pitch": 62, "duration": 15, "velocity": 63}, {"time": 2880, "pitch": 67, "duration": 24, "velocity": 80}, {"time": 2886, "pitch": 69, "duration": 29, "velocity": 84}, {"time": 2910, "pitch": 51, "duration": 26, "velocity": 80}, {"time": 2916, "pitch": 55, "duration": 16, "velocity": 59}, {"time": 2922, "pitch": 58, "duration": 8, "velocity": 53}, {"time": 2928, "pitch": 63, "duration": 11, "velocity": 84}, {"time": 2934, "pitch": 53, "duration": 16, "velocity": 84}, {"time": 2940, "pitch": 60, "duration": 8, "velocity": 76}, {"time": 2946, "pitch": 65, "duration": 8, "velocity": 76}, {"time": 2952, "pitch": 67, "duration": 6, "velocity": 78}, {"time": 2958, "pitch": 43, "duration": 35, "velocity": 80}, {"time": 2958, "pitch": 62, "duration": 13, "velocity": 74}, {"time": 2958, "pitch": 70, "duration": 12, "velocity": 83}, {"time": 2964, "pitch": 50, "duration": 28, "velocity": 75}, {"time": 2970, "pitch": 55, "duration": 22, "velocity": 73}, {"time": 2976, "pitch": 57, "duration": 8, "velocity": 56}, {"time": 2982, "pitch": 58, "duration": 11, "velocity": 79}, {"time": 3006, "pitch": 43, "duration": 40, "velocity": 84}, {"time": 3006, "pitch": 70, "duration": 11, "velocity": 96}, {"time": 3012, "pitch": 50, "duration": 5, "velocity": 73}, {"time": 3012, "pitch": 62, "duration": 8, "velocity": 72}, {"time": 3018, "pitch": 55, "duration": 8, "velocity": 55}, {"time": 3018, "pitch": 69, "duration": 8, "velocity": 80}, {"time": 3024, "pitch": 57, "duration": 10, "velocity": 75}, {"time": 3024, "pitch": 70, "duration": 14, "velocity": 83}, {"time": 3030, "pitch": 58, "duration": 11, "velocity": 83}, {"time": 3036, "pitch": 62, "duration": 5, "velocity": 90}, {"time": 3042, "pitch": 67, "duration": 6, "velocity": 78}, {"time": 3048, "pitch": 70, "duration": 5, "velocity": 84}, {"time": 3054, "pitch": 38, "duration": 42, "velocity": 90}, {"time": 3054, "pitch": 60, "duration": 17, "velocity": 80}, {"time": 3054, "pitch": 65, "duration": 17, "velocity": 79}, {"time": 3054, "pitch": 69, "duration": 20, "velocity": 84}, {"time": 3060, "pitch": 50, "duration": 8, "velocity": 80}, {"time": 3066, "pitch": 53, "duration": 25, "velocity": 75}, {"time": 3072, "pitch": 57, "duration": 17, "velocity": 86}, {"time": 3078, "pitch": 60, "duration": 8, "velocity": 84}, {"time": 3084, "pitch": 65, "duration": 5, "velocity": 82}, {"time": 3090, "pitch": 67, "duration": 7, "velocity": 78}, {"time": 3096, "pitch": 69, "duration": 7, "velocity": 83}, {"time": 3102, "pitch": 39, "duration": 15, "velocity": 81}, {"time": 3102, "pitch": 63, "duration": 12, "velocity": 79}, {"time": 3102, "pitch": 67, "duration": 11, "velocity": 80}, {"time": 3108, "pitch": 46, "duration": 12, "velocity": 83}, {"time": 3114, "pitch": 51, "duration": 9, "velocity": 83}, {"time": 3126, "pitch": 41, "duration": 13, "velocity": 84}, {"time": 3126, "pitch": 57, "duration": 11, "velocity": 79}, {"time": 3126, "pitch": 60, "duration": 13, "velocity": 84}, {"time": 3126, "pitch": 65, "duration": 10, "velocity": 82}, {"time": 3132, "pitch": 48, "duration": 8, "velocity": 80}, {"time": 3138, "pitch": 53, "duration": 11, "velocity": 73}, {"time": 3144, "pitch": 57, "duration": 5, "velocity": 82}, {"time": 3150, "pitch": 46, "duration": 10, "velocity": 86}, {"time": 3150, "pitch": 58, "duration": 7, "velocity": 90}, {"time": 3150, "pitch": 62, "duration": 8, "velocity": 84}, {"time": 3156, "pitch": 53, "duration": 6, "velocity": 78}, {"time": 3162, "pitch": 58, "duration": 7, "velocity": 75}, {"time": 3168, "pitch": 60, "duration": 14, "velocity": 75}, {"time": 3168, "pitch": 65, "duration": 15, "velocity": 78}, {"time": 3168, "pitch": 74, "duration": 9, "velocity": 83}, {"time": 3174, "pitch": 62, "duration": 14, "velocity": 76}, {"time": 3174, "pitch": 72, "duration": 13, "velocity": 86}, {"time": 3186, "pitch": 60, "duration": 3, "velocity": 80}, {"time": 3186, "pitch": 65, "duration": 7, "velocity": 72}, {"time": 3186, "pitch": 70, "duration": 7, "velocity": 90}, {"time": 3192, "pitch": 69, "duration": 6, "velocity": 81}, {"time": 3198, "pitch": 43, "duration": 40, "velocity": 84}, {"time": 3198, "pitch": 67, "duration": 10, "velocity": 79}, {"time": 3198, "pitch": 70, "duration": 9, "velocity": 80}, {"time": 3204, "pitch": 50, "duration": 28, "velocity": 78}, {"time": 3210, "pitch": 55, "duration": 14, "velocity": 73}, {"time": 3216, "pitch": 58, "duration": 5, "velocity": 75}, {"time": 3222, "pitch": 58, "duration": 7, "velocity": 80}, {"time": 3222, "pitch": 62, "duration": 8, "velocity": 83}, {"time": 3222, "pitch": 67, "duration": 8, "velocity": 81}, {"time": 3228, "pitch": 55, "duration": 7, "velocity": 60}, {"time": 3234, "pitch": 58, "duration": 6, "velocity": 77}, {"time": 3234, "pitch": 62, "duration": 4, "velocity": 69}, {"time": 3234, "pitch": 67, "duration": 8, "velocity": 78}, {"time": 3240, "pitch": 50, "duration": 2, "velocity": 80}, {"time": 3246, "pitch": 38, "duration": 6, "velocity": 86}, {"time": 3246, "pitch": 57, "duration": 11, "velocity": 83}, {"time": 3246, "pitch": 62, "duration": 14, "velocity": 82}, {"time": 3246, "pitch": 65, "duration": 16, "velocity": 82}, {"time": 3252, "pitch": 50, "duration": 6, "velocity": 79}, {"time": 3258, "pitch": 53, "duration": 19, "velocity": 72}, {"time": 3264, "pitch": 57, "duration": 12, "velocity": 75}, {"time": 3270, "pitch": 65, "duration": 5, "velocity": 80}, {"time": 3288, "pitch": 70, "duration": 6, "velocity": 86}, {"time": 3294, "pitch": 39, "duration": 14, "velocity": 82}, {"time": 3294, "pitch": 58, "duration": 12, "velocity": 79}, {"time": 3294, "pitch": 63, "duration": 14, "velocity": 54}, {"time": 3294, "pitch": 67, "duration": 15, "velocity": 80}, {"time": 3300, "pitch": 46, "duration": 10, "velocity": 80}, {"time": 3306, "pitch": 51, "duration": 4, "velocity": 83}, {"time": 3318, "pitch": 41, "duration": 16, "velocity": 83}, {"time": 3318, "pitch": 60, "duration": 9, "velocity": 80}, {"time": 3318, "pitch": 65, "duration": 9, "velocity": 83}, {"time": 3318, "pitch": 69, "duration": 10, "velocity": 84}, {"time": 3324, "pitch": 53, "duration": 15, "velocity": 72}, {"time": 3336, "pitch": 69, "duration": 6, "velocity": 82}, {"time": 3342, "pitch": 43, "duration": 39, "velocity": 80}, {"time": 3342, "pitch": 62, "duration": 12, "velocity": 76}, {"time": 3342, "pitch": 67, "duration": 11, "velocity": 74}, {"time": 3342, "pitch": 70, "duration": 11, "velocity": 83}, {"time": 3348, "pitch": 50, "duration": 34, "velocity": 76}, {"time": 3354, "pitch": 55, "duration": 26, "velocity": 71}, {"time": 3360, "pitch": 57, "duration": 7, "velocity": 72}, {"time": 3366, "pitch": 58, "duration": 4, "velocity": 86}, {"time": 3378, "pitch": 62, "duration": 5, "velocity": 80}, {"time": 3390, "pitch": 43, "duration": 10, "velocity": 78}, {"time": 3390, "pitch": 62, "duration": 9, "velocity": 74}, {"time": 3390, "pitch": 67, "duration": 9, "velocity": 73}, {"time": 3390, "pitch": 70, "duration": 9, "velocity": 80}, {"time": 3396, "pitch": 50, "duration": 6, "velocity": 73}, {"time": 3402, "pitch": 55, "duration": 9, "velocity": 51}, {"time": 3402, "pitch": 62, "duration": 4, "velocity": 74}, {"time": 3402, "pitch": 70, "duration": 8, "velocity": 80}, {"time": 3408, "pitch": 57, "duration": 9, "velocity": 67}, {"time": 3414, "pitch": 58, "duration": 8, "velocity": 77}, {"time": 3414, "pitch": 60, "duration": 7, "velocity": 77}, {"time": 3414, "pitch": 69, "duration": 9, "velocity": 86}, {"time": 3420, "pitch": 57, "duration": 6, "velocity": 73}, {"time": 3426, "pitch": 62, "duration": 3, "velocity": 72}, {"time": 3426, "pitch": 67, "duration": 4, "velocity": 78}, {"time": 3432, "pitch": 69, "duration": 5, "velocity": 73}, {"time": 3438, "pitch": 38, "duration": 5, "velocity": 83}, {"time": 3438, "pitch": 60, "duration": 19, "velocity": 75}, {"time": 3438, "pitch": 65, "duration": 20, "velocity": 80}, {"time": 3444, "pitch": 50, "duration": 8, "velocity": 60}, {"time": 3450, "pitch": 53, "duration": 28, "velocity": 72}, {"time": 3456, "pitch": 57, "duration": 14, "velocity": 75}, {"time": 3462, "pitch": 60, "duration": 9, "velocity": 68}, {"time": 3474, "pitch": 57, "duration": 3, "velocity": 80}, {"time": 3486, "pitch": 39, "duration": 17, "velocity": 82}, {"time": 3486, "pitch": 58, "duration": 14, "velocity": 71}, {"time": 3486, "pitch": 63, "duration": 12, "velocity": 77}, {"time": 3486, "pitch": 67, "duration": 13, "velocity": 72}, {"time": 3492, "pitch": 46, "duration": 12, "velocity": 79}, {"time": 3498, "pitch": 51, "duration": 6, "velocity": 75}, {"time": 3504, "pitch": 58, "duration": 2, "velocity": 39}, {"time": 3510, "pitch": 41, "duration": 15, "velocity": 83}, {"time": 3510, "pitch": 60, "duration": 15, "velocity": 78}, {"time": 3510, "pitch": 65, "duration": 15, "velocity": 79}, {"time": 3510, "pitch": 69, "duration": 14, "velocity": 86}, {"time": 3516, "pitch": 48, "duration": 9, "velocity": 78}, {"time": 3522, "pitch": 53, "duration": 10, "velocity": 79}, {"time": 3528, "pitch": 60, "duration": 4, "velocity": 71}, {"time": 3534, "pitch": 46, "duration": 11, "velocity": 86}, {"time": 3534, "pitch": 62, "duration": 6, "velocity": 76}, {"time": 3534, "pitch": 65, "duration": 7, "velocity": 80}, {"time": 3534, "pitch": 70, "duration": 8, "velocity": 79}, {"time": 3540, "pitch": 53, "duration": 6, "velocity": 72}, {"time": 3546, "pitch": 58, "duration": 7, "velocity": 59}, {"time": 3552, "pitch": 60, "duration": 10, "velocity": 78}, {"time": 3552, "pitch": 65, "duration": 4, "velocity": 72}, {"time": 3552, "pitch": 70, "duration": 2, "velocity": 68}, {"time": 3552, "pitch": 74, "duration": 8, "velocity": 80}, {"time": 3558, "pitch": 62, "duration": 13, "velocity": 76}, {"time": 3558, "pitch": 65, "duration": 5, "velocity": 73}, {"time": 3558, "pitch": 72, "duration": 6, "velocity": 84}, {"time": 3564, "pitch": 70, "duration": 3, "velocity": 82}, {"time": 3570, "pitch": 60, "duration": 3, "velocity": 78}, {"time": 3570, "pitch": 69, "duration": 5, "velocity": 82}, {"time": 3576, "pitch": 67, "duration": 4, "velocity": 79}, {"time": 3582, "pitch": 43, "duration": 10, "velocity": 78}, {"time": 3582, "pitch": 67, "duration": 9, "velocity": 79}, {"time": 3582, "pitch": 70, "duration": 10, "velocity": 84}, {"time": 3588, "pitch": 50, "duration": 5, "velocity": 72}, {"time": 3594, "pitch": 55, "duration": 6, "velocity": 60}, {"time": 3600, "pitch": 57, "duration": 7, "velocity": 71}, {"time": 3600, "pitch": 70, "duration": 5, "velocity": 83}, {"time": 3600, "pitch": 74, "duration": 3, "velocity": 73}, {"time": 3606, "pitch": 58, "duration": 7, "velocity": 75}, {"time": 3606, "pitch": 70, "duration": 9, "velocity": 84}, {"time": 3606, "pitch": 74, "duration": 7, "velocity": 72}, {"time": 3612, "pitch": 57, "duration": 7, "velocity": 73}, {"time": 3618, "pitch": 55, "duration": 3, "velocity": 63}, {"time": 3618, "pitch": 69, "duration": 5, "velocity": 57}, {"time": 3618, "pitch": 72, "duration": 7, "velocity": 55}, {"time": 3624, "pitch": 67, "duration": 4, "velocity": 67}, {"time": 3624, "pitch": 70, "duration": 5, "velocity": 80}, {"time": 3630, "pitch": 38, "duration": 39, "velocity": 82}, {"time": 3630, "pitch": 65, "duration": 8, "velocity": 72}, {"time": 3630, "pitch": 69, "duration": 8, "velocity": 79}, {"time": 3636, "pitch": 45, "duration": 34, "velocity": 82}, {"time": 3642, "pitch": 50, "duration": 14, "velocity": 73}, {"time": 3648, "pitch": 53, "duration": 4, "velocity": 68}, {"time": 3648, "pitch": 57, "duration": 4, "velocity": 78}, {"time": 3654, "pitch": 53, "duration": 8, "velocity": 79}, {"time": 3654, "pitch": 60, "duration": 9, "velocity": 82}, {"time": 3660, "pitch": 50, "duration": 7, "velocity": 58}, {"time": 3666, "pitch": 53, "duration": 2, "velocity": 67}, {"time": 3666, "pitch": 57, "duration": 2, "velocity": 71}, {"time": 3678, "pitch": 39, "duration": 14, "velocity": 83}, {"time": 3678, "pitch": 51, "duration": 4, "velocity": 76}, {"time": 3678, "pitch": 55, "duration": 8, "velocity": 75}, {"time": 3678, "pitch": 58, "duration": 8, "velocity": 86}, {"time": 3678, "pitch": 63, "duration": 8, "velocity": 84}, {"time": 3684, "pitch": 51, "duration": 10, "velocity": 63}, {"time": 3690, "pitch": 55, "duration": 5, "velocity": 72}, {"time": 3696, "pitch": 58, "duration": 4, "velocity": 69}, {"time": 3702, "pitch": 41, "duration": 14, "velocity": 82}, {"time": 3702, "pitch": 53, "duration": 9, "velocity": 69}, {"time": 3702, "pitch": 57, "duration": 12, "velocity": 77}, {"time": 3702, "pitch": 60, "duration": 14, "velocity": 83}, {"time": 3714, "pitch": 53, "duration": 4, "velocity": 79}, {"time": 3720, "pitch": 57, "duration": 4, "velocity": 56}, {"time": 3726, "pitch": 43, "duration": 38, "velocity": 83}, {"time": 3726, "pitch": 58, "duration": 13, "velocity": 90}, {"time": 3726, "pitch": 62, "duration": 13, "velocity": 83}, {"time": 3738, "pitch": 55, "duration": 26, "velocity": 19}, {"time": 3744, "pitch": 57, "duration": 9, "velocity": 73}, {"time": 3750, "pitch": 58, "duration": 13, "velocity": 84}, {"time": 3750, "pitch": 62, "duration": 14, "velocity": 80}, {"time": 3774, "pitch": 43, "duration": 2, "velocity": 91}, {"time": 3774, "pitch": 55, "duration": 2, "velocity": 72}, {"time": 3774, "pitch": 58, "duration": 2, "velocity": 95}, {"time": 3774, "pitch": 62, "duration": 2, "velocity": 91}, {"time": 3774, "pitch": 67, "duration": 2, "velocity": 84}, {"time": 3778, "pitch": 43, "duration": 1, "velocity": 84}, {"time": 3778, "pitch": 55, "duration": 1, "velocity": 76}, {"time": 3778, "pitch": 58, "duration": 1, "velocity": 67}, {"time": 3778, "pitch": 62, "duration": 1, "velocity": 84}, {"time": 3778, "pitch": 67, "duration": 2, "velocity": 75}, {"time": 3780, "pitch": 43, "duration": 2, "velocity": 91}, {"time": 3780, "pitch": 55, "duration": 2, "velocity": 77}, {"time": 3780, "pitch": 58, "duration": 2, "velocity": 84}, {"time": 3780, "pitch": 62, "duration": 2, "velocity": 99}, {"time": 3780, "pitch": 67, "duration": 2, "velocity": 81}, {"time": 3792, "pitch": 43, "duration": 2, "velocity": 93}, {"time": 3792, "pitch": 55, "duration": 2, "velocity": 73}, {"time": 3792, "pitch": 58, "duration": 2, "velocity": 83}, {"time": 3792, "pitch": 62, "duration": 2, "velocity": 84}, {"time": 3792, "pitch": 67, "duration": 2, "velocity": 80}, {"time": 3798, "pitch": 43, "duration": 3, "velocity": 86}, {"time": 3798, "pitch": 55, "duration": 3, "velocity": 83}, {"time": 3798, "pitch": 58, "duration": 2, "velocity": 84}, {"time": 3798, "pitch": 62, "duration": 2, "velocity": 84}, {"time": 3798, "pitch": 67, "duration": 3, "velocity": 82}, {"time": 3804, "pitch": 43, "duration": 2, "velocity": 94}, {"time": 3804, "pitch": 55, "duration": 2, "velocity": 90}, {"time": 3804, "pitch": 58, "duration": 2, "velocity": 95}, {"time": 3804, "pitch": 62, "duration": 2, "velocity": 86}, {"time": 3804, "pitch": 67, "duration": 3, "velocity": 86}, {"time": 3870, "pitch": 44, "duration": 10, "velocity": 84}, {"time": 3870, "pitch": 71, "duration": 11, "velocity": 96}, {"time": 3876, "pitch": 51, "duration": 5, "velocity": 73}, {"time": 3876, "pitch": 63, "duration": 8, "velocity": 72}, {"time": 3882, "pitch": 56, "duration": 8, "velocity": 55}, {"time": 3882, "pitch": 70, "duration": 8, "velocity": 80}, {"time": 3888, "pitch": 58, "duration": 18, "velocity": 75}, {"time": 3888, "pitch": 71, "duration": 14, "velocity": 83}, {"time": 3894, "pitch": 59, "duration": 11, "velocity": 83}, {"time": 3900, "pitch": 63, "duration": 5, "velocity": 90}, {"time": 3906, "pitch": 68, "duration": 6, "velocity": 78}, {"time": 3912, "pitch": 71, "duration": 5, "velocity": 84}, {"time": 3918, "pitch": 39, "duration": 6, "velocity": 90}, {"time": 3918, "pitch": 61, "duration": 17, "velocity": 80}, {"time": 3918, "pitch": 66, "duration": 17, "velocity": 79}, {"time": 3918, "pitch": 70, "duration": 20, "velocity": 84}, {"time": 3924, "pitch": 51, "duration": 8, "velocity": 80}, {"time": 3930, "pitch": 54, "duration": 25, "velocity": 75}, {"time": 3936, "pitch": 58, "duration": 17, "velocity": 86}, {"time": 3942, "pitch": 61, "duration": 8, "velocity": 84}, {"time": 3948, "pitch": 66, "duration": 5, "velocity": 82}, {"time": 3954, "pitch": 68, "duration": 7, "velocity": 78}, {"time": 3966, "pitch": 40, "duration": 15, "velocity": 81}, {"time": 3966, "pitch": 64, "duration": 12, "velocity": 79}, {"time": 3966, "pitch": 68, "duration": 11, "velocity": 80}, {"time": 3972, "pitch": 47, "duration": 12, "velocity": 83}, {"time": 3978, "pitch": 52, "duration": 9, "velocity": 83}, {"time": 3990, "pitch": 42, "duration": 13, "velocity": 84}, {"time": 3990, "pitch": 58, "duration": 11, "velocity": 79}, {"time": 3990, "pitch": 61, "duration": 13, "velocity": 84}, {"time": 3990, "pitch": 66, "duration": 10, "velocity": 82}, {"time": 3996, "pitch": 49, "duration": 8, "velocity": 80}, {"time": 4002, "pitch": 54, "duration": 11, "velocity": 73}, {"time": 4008, "pitch": 58, "duration": 5, "velocity": 82}, {"time": 4014, "pitch": 47, "duration": 10, "velocity": 86}, {"time": 4014, "pitch": 59, "duration": 7, "velocity": 90}, {"time": 4014, "pitch": 63, "duration": 8, "velocity": 84}, {"time": 4020, "pitch": 54, "duration": 6, "velocity": 78}, {"time": 4026, "pitch": 59, "duration": 7, "velocity": 75}, {"time": 4032, "pitch": 61, "duration": 14, "velocity": 75}, {"time": 4032, "pitch": 66, "duration": 15, "velocity": 78}, {"time": 4032, "pitch": 75, "duration": 9, "velocity": 83}, {"time": 4038, "pitch": 63, "duration": 14, "velocity": 76}, {"time": 4038, "pitch": 73, "duration": 13, "velocity": 86}, {"time": 4050, "pitch": 61, "duration": 3, "velocity": 80}, {"time": 4050, "pitch": 66, "duration": 7, "velocity": 72}, {"time": 4050, "pitch": 71, "duration": 7, "velocity": 90}, {"time": 4056, "pitch": 70, "duration": 6, "velocity": 81}, {"time": 4062, "pitch": 44, "duration": 40, "velocity": 84}, {"time": 4062, "pitch": 68, "duration": 10, "velocity": 79}, {"time": 4062, "pitch": 71, "duration": 9, "velocity": 80}, {"time": 4068, "pitch": 51, "duration": 28, "velocity": 78}, {"time": 4074, "pitch": 56, "duration": 14, "velocity": 73}, {"time": 4080, "pitch": 59, "duration": 5, "velocity": 75}, {"time": 4086, "pitch": 59, "duration": 7, "velocity": 80}, {"time": 4086, "pitch": 63, "duration": 8, "velocity": 83}, {"time": 4086, "pitch": 68, "duration": 8, "velocity": 81}, {"time": 4092, "pitch": 56, "duration": 7, "velocity": 60}, {"time": 4098, "pitch": 59, "duration": 6, "velocity": 77}, {"time": 4098, "pitch": 63, "duration": 4, "velocity": 69}, {"time": 4098, "pitch": 68, "duration": 8, "velocity": 78}, {"time": 4104, "pitch": 51, "duration": 2, "velocity": 80}, {"time": 4110, "pitch": 39, "duration": 6, "velocity": 86}, {"time": 4110, "pitch": 58, "duration": 11, "velocity": 83}, {"time": 4110, "pitch": 63, "duration": 14, "velocity": 82}, {"time": 4110, "pitch": 66, "duration": 16, "velocity": 82}, {"time": 4116, "pitch": 51, "duration": 6, "velocity": 79}, {"time": 4122, "pitch": 54, "duration": 19, "velocity": 72}, {"time": 4128, "pitch": 58, "duration": 12, "velocity": 75}, {"time": 4134, "pitch": 66, "duration": 5, "velocity": 80}, {"time": 4152, "pitch": 71, "duration": 21, "velocity": 86}, {"time": 4158, "pitch": 40, "duration": 14, "velocity": 82}, {"time": 4158, "pitch": 59, "duration": 12, "velocity": 79}, {"time": 4158, "pitch": 64, "duration": 14, "velocity": 54}, {"time": 4158, "pitch": 68, "duration": 15, "velocity": 80}, {"time": 4164, "pitch": 47, "duration": 10, "velocity": 80}, {"time": 4170, "pitch": 52, "duration": 4, "velocity": 83}, {"time": 4182, "pitch": 42, "duration": 16, "velocity": 83}, {"time": 4182, "pitch": 61, "duration": 9, "velocity": 80}, {"time": 4182, "pitch": 66, "duration": 9, "velocity": 83}, {"time": 4182, "pitch": 70, "duration": 10, "velocity": 84}, {"time": 4188, "pitch": 54, "duration": 15, "velocity": 72}, {"time": 4200, "pitch": 70, "duration": 6, "velocity": 82}, {"time": 4206, "pitch": 44, "duration": 39, "velocity": 80}, {"time": 4206, "pitch": 63, "duration": 12, "velocity": 76}, {"time": 4206, "pitch": 68, "duration": 11, "velocity": 74}, {"time": 4206, "pitch": 71, "duration": 11, "velocity": 83}, {"time": 4212, "pitch": 51, "duration": 34, "velocity": 76}, {"time": 4218, "pitch": 56, "duration": 26, "velocity": 71}, {"time": 4224, "pitch": 58, "duration": 7, "velocity": 72}, {"time": 4230, "pitch": 59, "duration": 4, "velocity": 86}, {"time": 4242, "pitch": 63, "duration": 5, "velocity": 80}, {"time": 4254, "pitch": 44, "duration": 10, "velocity": 78}, {"time": 4254, "pitch": 63, "duration": 9, "velocity": 74}, {"time": 4254, "pitch": 68, "duration": 9, "velocity": 73}, {"time": 4254, "pitch": 71, "duration": 9, "velocity": 80}, {"time": 4260, "pitch": 51, "duration": 6, "velocity": 73}, {"time": 4266, "pitch": 56, "duration": 9, "velocity": 51}, {"time": 4266, "pitch": 63, "duration": 4, "velocity": 74}, {"time": 4266, "pitch": 71, "duration": 8, "velocity": 80}, {"time": 4272, "pitch": 58, "duration": 9, "velocity": 67}, {"time": 4278, "pitch": 59, "duration": 8, "velocity": 77}, {"time": 4278, "pitch": 61, "duration": 7, "velocity": 77}, {"time": 4278, "pitch": 70, "duration": 9, "velocity": 86}, {"time": 4284, "pitch": 58, "duration": 6, "velocity": 73}, {"time": 4290, "pitch": 63, "duration": 3, "velocity": 72}, {"time": 4290, "pitch": 68, "duration": 4, "velocity": 78}, {"time": 4296, "pitch": 70, "duration": 5, "velocity": 73}, {"time": 4302, "pitch": 39, "duration": 5, "velocity": 83}, {"time": 4302, "pitch": 61, "duration": 19, "velocity": 75}, {"time": 4302, "pitch": 66, "duration": 20, "velocity": 80}, {"time": 4308, "pitch": 51, "duration": 8, "velocity": 60}, {"time": 4314, "pitch": 54, "duration": 28, "velocity": 72}, {"time": 4320, "pitch": 58, "duration": 14, "velocity": 75}, {"time": 4326, "pitch": 61, "duration": 9, "velocity": 68}, {"time": 4338, "pitch": 58, "duration": 3, "velocity": 80}, {"time": 4350, "pitch": 40, "duration": 17, "velocity": 82}, {"time": 4350, "pitch": 59, "duration": 14, "velocity": 71}, {"time": 4350, "pitch": 64, "duration": 12, "velocity": 77}, {"time": 4350, "pitch": 68, "duration": 13, "velocity": 72}, {"time": 4356, "pitch": 47, "duration": 12, "velocity": 79}, {"time": 4362, "pitch": 52, "duration": 6, "velocity": 75}, {"time": 4368, "pitch": 59, "duration": 2, "velocity": 39}, {"time": 4374, "pitch": 42, "duration": 15, "velocity": 83}, {"time": 4374, "pitch": 61, "duration": 15, "velocity": 78}, {"time": 4374, "pitch": 66, "duration": 15, "velocity": 79}, {"time": 4374, "pitch": 70, "duration": 14, "velocity": 86}, {"time": 4380, "pitch": 49, "duration": 9, "velocity": 78}, {"time": 4386, "pitch": 54, "duration": 10, "velocity": 79}, {"time": 4392, "pitch": 61, "duration": 4, "velocity": 71}, {"time": 4398, "pitch": 47, "duration": 11, "velocity": 86}, {"time": 4398, "pitch": 63, "duration": 6, "velocity": 76}, {"time": 4398, "pitch": 66, "duration": 7, "velocity": 80}, {"time": 4398, "pitch": 71, "duration": 8, "velocity": 79}, {"time": 4404, "pitch": 54, "duration": 6, "velocity": 72}, {"time": 4410, "pitch": 59, "duration": 7, "velocity": 59}, {"time": 4416, "pitch": 61, "duration": 10, "velocity": 78}, {"time": 4416, "pitch": 66, "duration": 4, "velocity": 72}, {"time": 4416, "pitch": 71, "duration": 2, "velocity": 68}, {"time": 4416, "pitch": 75, "duration": 8, "velocity": 80}, {"time": 4422, "pitch": 63, "duration": 13, "velocity": 76}, {"time": 4422, "pitch": 66, "duration": 5, "velocity": 73}, {"time": 4422, "pitch": 73, "duration": 6, "velocity": 84}, {"time": 4428, "pitch": 71, "duration": 3, "velocity": 82}, {"time": 4434, "pitch": 61, "duration": 3, "velocity": 78}, {"time": 4434, "pitch": 70, "duration": 5, "velocity": 82}, {"time": 4440, "pitch": 68, "duration": 4, "velocity": 79}, {"time": 4446, "pitch": 44, "duration": 10, "velocity": 78}, {"time": 4446, "pitch": 68, "duration": 9, "velocity": 79}, {"time": 4446, "pitch": 71, "duration": 10, "velocity": 84}, {"time": 4452, "pitch": 51, "duration": 5, "velocity": 72}, {"time": 4458, "pitch": 56, "duration": 6, "velocity": 60}, {"time": 4464, "pitch": 58, "duration": 7, "velocity": 71}, {"time": 4464, "pitch": 71, "duration": 5, "velocity": 83}, {"time": 4464, "pitch": 75, "duration": 3, "velocity": 73}, {"time": 4470, "pitch": 59, "duration": 7, "velocity": 75}, {"time": 4470, "pitch": 71, "duration": 9, "velocity": 84}, {"time": 4470, "pitch": 75, "duration": 7, "velocity": 72}, {"time": 4476, "pitch": 58, "duration": 7, "velocity": 73}, {"time": 4482, "pitch": 56, "duration": 3, "velocity": 63}, {"time": 4482, "pitch": 70, "duration": 5, "velocity": 57}, {"time": 4482, "pitch": 73, "duration": 7, "velocity": 55}, {"time": 4488, "pitch": 68, "duration": 4, "velocity": 67}, {"time": 4488, "pitch": 71, "duration": 5, "velocity": 80}, {"time": 4494, "pitch": 39, "duration": 39, "velocity": 82}, {"time": 4494, "pitch": 66, "duration": 8, "velocity": 72}, {"time": 4494, "pitch": 70, "duration": 8, "velocity": 79}, {"time": 4500, "pitch": 46, "duration": 34, "velocity": 82}, {"time": 4506, "pitch": 51, "duration": 14, "velocity": 73}, {"time": 4512, "pitch": 54, "duration": 4, "velocity": 68}, {"time": 4512, "pitch": 58, "duration": 4, "velocity": 78}, {"time": 4518, "pitch": 54, "duration": 8, "velocity": 79}, {"time": 4518, "pitch": 61, "duration": 9, "velocity": 82}, {"time": 4524, "pitch": 51, "duration": 7, "velocity": 58}, {"time": 4530, "pitch": 54, "duration": 2, "velocity": 67}, {"time": 4530, "pitch": 58, "duration": 2, "velocity": 71}, {"time": 4542, "pitch": 40, "duration": 14, "velocity": 83}, {"time": 4542, "pitch": 52, "duration": 4, "velocity": 76}, {"time": 4542, "pitch": 56, "duration": 8, "velocity": 75}, {"time": 4542, "pitch": 59, "duration": 8, "velocity": 86}, {"time": 4542, "pitch": 64, "duration": 8, "velocity": 84}, {"time": 4548, "pitch": 52, "duration": 10, "velocity": 63}, {"time": 4554, "pitch": 56, "duration": 5, "velocity": 72}, {"time": 4560, "pitch": 59, "duration": 4, "velocity": 69}, {"time": 4566, "pitch": 42, "duration": 14, "velocity": 82}, {"time": 4566, "pitch": 54, "duration": 9, "velocity": 69}, {"time": 4566, "pitch": 58, "duration": 12, "velocity": 77}, {"time": 4566, "pitch": 61, "duration": 14, "velocity": 83}, {"time": 4566, "pitch": 66, "duration": 12, "velocity": 78}, {"time": 4578, "pitch": 54, "duration": 4, "velocity": 79}, {"time": 4584, "pitch": 58, "duration": 4, "velocity": 56}, {"time": 4590, "pitch": 44, "duration": 38, "velocity": 83}, {"time": 4590, "pitch": 59, "duration": 13, "velocity": 90}, {"time": 4590, "pitch": 63, "duration": 13, "velocity": 83}, {"time": 4602, "pitch": 56, "duration": 26, "velocity": 19}, {"time": 4608, "pitch": 58, "duration": 9, "velocity": 73}, {"time": 4614, "pitch": 59, "duration": 13, "velocity": 84}, {"time": 4614, "pitch": 63, "duration": 14, "velocity": 80}, {"time": 4638, "pitch": 56, "duration": 39, "velocity": 79}, {"time": 4644, "pitch": 63, "duration": 33, "velocity": 78}, {"time": 4650, "pitch": 66, "duration": 26, "velocity": 86}, {"time": 4656, "pitch": 68, "duration": 9, "velocity": 86}, {"time": 4662, "pitch": 71, "duration": 31, "velocity": 91}, {"time": 4686, "pitch": 51, "duration": 41, "velocity": 84}, {"time": 4692, "pitch": 58, "duration": 35, "velocity": 80}, {"time": 4698, "pitch": 63, "duration": 29, "velocity": 82}, {"time": 4704, "pitch": 68, "duration": 29, "velocity": 75}, {"time": 4710, "pitch": 70, "duration": 27, "velocity": 84}, {"time": 4734, "pitch": 52, "duration": 19, "velocity": 86}, {"time": 4740, "pitch": 59, "duration": 16, "velocity": 82}, {"time": 4746, "pitch": 64, "duration": 9, "velocity": 84}, {"time": 4752, "pitch": 71, "duration": 11, "velocity": 84}, {"time": 4758, "pitch": 54, "duration": 17, "velocity": 81}, {"time": 4758, "pitch": 70, "duration": 9, "velocity": 50}, {"time": 4764, "pitch": 61, "duration": 11, "velocity": 82}, {"time": 4770, "pitch": 66, "duration": 6, "velocity": 82}, {"time": 4776, "pitch": 68, "duration": 13, "velocity": 76}, {"time": 4782, "pitch": 47, "duration": 39, "velocity": 86}, {"time": 4788, "pitch": 54, "duration": 34, "velocity": 78}, {"time": 4794, "pitch": 59, "duration": 30, "velocity": 83}, {"time": 4800, "pitch": 63, "duration": 22, "velocity": 73}, {"time": 4806, "pitch": 73, "duration": 10, "velocity": 79}, {"time": 4818, "pitch": 73, "duration": 5, "velocity": 81}, {"time": 4824, "pitch": 71, "duration": 10, "velocity": 69}, {"time": 4830, "pitch": 56, "duration": 37, "velocity": 82}, {"time": 4836, "pitch": 63, "duration": 30, "velocity": 76}, {"time": 4842, "pitch": 66, "duration": 20, "velocity": 80}, {"time": 4848, "pitch": 71, "duration": 8, "velocity": 79}, {"time": 4854, "pitch": 75, "duration": 6, "velocity": 77}, {"time": 4860, "pitch": 78, "duration": 8, "velocity": 80}, {"time": 4866, "pitch": 75, "duration": 8, "velocity": 79}, {"time": 4872, "pitch": 73, "duration": 10, "velocity": 80}, {"time": 4878, "pitch": 51, "duration": 42, "velocity": 84}, {"time": 4884, "pitch": 58, "duration": 34, "velocity": 78}, {"time": 4890, "pitch": 63, "duration": 15, "velocity": 63}, {"time": 4896, "pitch": 68, "duration": 24, "velocity": 80}, {"time": 4902, "pitch": 70, "duration": 29, "velocity": 84}, {"time": 4926, "pitch": 52, "duration": 26, "velocity": 80}, {"time": 4932, "pitch": 56, "duration": 16, "velocity": 59}, {"time": 4938, "pitch": 59, "duration": 8, "velocity": 53}, {"time": 4944, "pitch": 64, "duration": 11, "velocity": 84}, {"time": 4950, "pitch": 54, "duration": 16, "velocity": 84}, {"time": 4956, "pitch": 61, "duration": 8, "velocity": 76}, {"time": 4962, "pitch": 66, "duration": 8, "velocity": 76}, {"time": 4968, "pitch": 68, "duration": 6, "velocity": 78}, {"time": 4974, "pitch": 44, "duration": 35, "velocity": 80}, {"time": 4974, "pitch": 63, "duration": 13, "velocity": 74}, {"time": 4974, "pitch": 71, "duration": 12, "velocity": 83}, {"time": 4980, "pitch": 51, "duration": 28, "velocity": 75}, {"time": 4986, "pitch": 56, "duration": 22, "velocity": 73}, {"time": 4992, "pitch": 58, "duration": 8, "velocity": 56}, {"time": 4998, "pitch": 63, "duration": 11, "velocity": 79}, {"time": 5022, "pitch": 56, "duration": 39, "velocity": 79}, {"time": 5028, "pitch": 63, "duration": 33, "velocity": 78}, {"time": 5034, "pitch": 66, "duration": 26, "velocity": 86}, {"time": 5040, "pitch": 68, "duration": 9, "velocity": 86}, {"time": 5046, "pitch": 71, "duration": 31, "velocity": 91}, {"time": 5070, "pitch": 51, "duration": 41, "velocity": 84}, {"time": 5076, "pitch": 58, "duration": 35, "velocity": 80}, {"time": 5082, "pitch": 63, "duration": 29, "velocity": 82}, {"time": 5088, "pitch": 68, "duration": 29, "velocity": 75}, {"time": 5094, "pitch": 70, "duration": 27, "velocity": 84}, {"time": 5118, "pitch": 52, "duration": 19, "velocity": 86}, {"time": 5124, "pitch": 59, "duration": 16, "velocity": 82}, {"time": 5130, "pitch": 64, "duration": 9, "velocity": 84}, {"time": 5136, "pitch": 71, "duration": 11, "velocity": 84}, {"time": 5142, "pitch": 54, "duration": 17, "velocity": 81}, {"time": 5142, "pitch": 70, "duration": 9, "velocity": 50}, {"time": 5148, "pitch": 61, "duration": 11, "velocity": 82}, {"time": 5154, "pitch": 66, "duration": 6, "velocity": 82}, {"time": 5160, "pitch": 68, "duration": 13, "velocity": 76}, {"time": 5166, "pitch": 47, "duration": 39, "velocity": 86}, {"time": 5172, "pitch": 54, "duration": 34, "velocity": 78}, {"time": 5178, "pitch": 59, "duration": 30, "velocity": 83}, {"time": 5184, "pitch": 63, "duration": 22, "velocity": 73}, {"time": 5190, "pitch": 73, "duration": 10, "velocity": 79}, {"time": 5202, "pitch": 73, "duration": 5, "velocity": 81}, {"time": 5208, "pitch": 71, "duration": 10, "velocity": 69}, {"time": 5214, "pitch": 56, "duration": 37, "velocity": 82}, {"time": 5220, "pitch": 63, "duration": 30, "velocity": 76}, {"time": 5226, "pitch": 66, "duration": 20, "velocity": 80}, {"time": 5232, "pitch": 71, "duration": 8, "velocity": 79}, {"time": 5238, "pitch": 75, "duration": 6, "velocity": 77}, {"time": 5244, "pitch": 78, "duration": 8, "velocity": 80}, {"time": 5250, "pitch": 75, "duration": 8, "velocity": 79}, {"time": 5256, "pitch": 73, "duration": 10, "velocity": 80}, {"time": 5262, "pitch": 51, "duration": 42, "velocity": 84}, {"time": 5268, "pitch": 58, "duration": 34, "velocity": 78}, {"time": 5274, "pitch": 63, "duration": 15, "velocity": 63}, {"time": 5280, "pitch": 68, "duration": 24, "velocity": 80}, {"time": 5286, "pitch": 70, "duration": 29, "velocity": 84}, {"time": 5310, "pitch": 52, "duration": 26, "velocity": 80}, {"time": 5316, "pitch": 56, "duration": 16, "velocity": 59}, {"time": 5322, "pitch": 59, "duration": 8, "velocity": 53}, {"time": 5328, "pitch": 64, "duration": 11, "velocity": 84}, {"time": 5334, "pitch": 54, "duration": 16, "velocity": 84}, {"time": 5340, "pitch": 61, "duration": 8, "velocity": 76}, {"time": 5346, "pitch": 66, "duration": 8, "velocity": 76}, {"time": 5352, "pitch": 68, "duration": 6, "velocity": 78}, {"time": 5358, "pitch": 44, "duration": 35, "velocity": 80}, {"time": 5358, "pitch": 63, "duration": 13, "velocity": 74}, {"time": 5358, "pitch": 71, "duration": 12, "velocity": 83}, {"time": 5364, "pitch": 51, "duration": 28, "velocity": 75}, {"time": 5370, "pitch": 56, "duration": 22, "velocity": 73}, {"time": 5376, "pitch": 58, "duration": 8, "velocity": 56}, {"time": 5382, "pitch": 63, "duration": 11, "velocity": 79}], "annotations": [{"time": 322, "annotation": {"number": 64, "value": 127}, "group": "control_change"}, {"time": 367, "annotation": {"number": 64, "value": 0}, "group": "control_change"}, {"time": 371, "annotation": {"number": 64, "value": 127}, "group": "control_change"}, {"time": 414, "annotation": {"number": 64, "value": 0}, "group": "control_change"}, {"time": 418, "annotation": {"number": 64, "value": 127}, "group": "control_change"}, {"time": 440, "annotation": {"number": 64, "value": 0}, "group": "control_change"}, {"time": 445, "annotation": {"number": 64, "value": 127}, "group": "control_change"}, {"time": 462, "annotation": {"number": 64, "value": 0}, "group": "control_change"}, {"time": 467, "annotation": {"number": 64, "value": 127}, "group": "control_change"}, {"time": 510, "annotation": {"number": 64, "value": 0}, "group": "control_change"}, {"time": 514, "annotation": {"number": 64, "value": 127}, "group": "control_change"}, {"time": 556, "annotation": {"number": 64, "value": 0}, "group": "control_change"}, {"time": 561, "annotation": {"number": 64, "value": 127}, "group": "control_change"}, {"time": 605, "annotation": {"number": 64, "value": 0}, "group": "control_change"}, {"time": 610, "annotation": {"number": 64, "value": 127}, "group": "control_change"}, {"time": 632, "annotation": {"number": 64, "value": 0}, "group": "control_change"}, {"time": 636, "annotation": {"number": 64, "value": 127}, "group": "control_change"}, {"time": 655, "annotation": {"number": 64, "value": 0}, "group": "control_change"}, {"time": 659, "annotation": {"number": 64, "value": 127}, "group": "control_change"}, {"time": 702, "annotation": {"number": 64, "value": 0}, "group": "control_change"}, {"time": 706, "annotation": {"number": 64, "value": 127}, "group": "control_change"}, {"time": 751, "annotation": {"number": 64, "value": 0}, "group": "control_change"}, {"time": 755, "annotation": {"number": 64, "value": 127}, "group": "control_change"}, {"time": 798, "annotation": {"number": 64, "value": 0}, "group": "control_change"}, {"time": 802, "annotation": {"number": 64, "value": 127}, "group": "control_change"}, {"time": 824, "annotation": {"number": 64, "value": 0}, "group": "control_change"}, {"time": 829, "annotation": {"number": 64, "value": 127}, "group": "control_change"}, {"time": 846, "annotation": {"number": 64, "value": 0}, "group": "control_change"}, {"time": 851, "annotation": {"number": 64, "value": 127}, "group": "control_change"}, {"time": 894, "annotation": {"number": 64, "value": 0}, "group": "control_change"}, {"time": 898, "annotation": {"number": 64, "value": 127}, "group": "control_change"}, {"time": 940, "annotation": {"number": 64, "value": 0}, "group": "control_change"}, {"time": 945, "annotation": {"number": 64, "value": 127}, "group": "control_change"}, {"time": 989, "annotation": {"number": 64, "value": 0}, "group": "control_change"}, {"time": 994, "annotation": {"number": 64, "value": 127}, "group": "control_change"}, {"time": 1016, "annotation": {"number": 64, "value": 0}, "group": "control_change"}, {"time": 1020, "annotation": {"number": 64, "value": 127}, "group": "control_change"}, {"time": 1039, "annotation": {"number": 64, "value": 0}, "group": "control_change"}, {"time": 1043, "annotation": {"number": 64, "value": 127}, "group": "control_change"}, {"time": 1086, "annotation": {"number": 64, "value": 0}, "group": "control_change"}, {"time": 1088, "annotation": {"number": 64, "value": 0}, "group": "control_change"}, {"time": 1090, "annotation": {"number": 64, "value": 127}, "group": "control_change"}, {"time": 1135, "annotation": {"number": 64, "value": 0}, "group": "control_change"}, {"time": 1139, "annotation": {"number": 64, "value": 127}, "group": "control_change"}, {"time": 1182, "annotation": {"number": 64, "value": 0}, "group": "control_change"}, {"time": 1186, "annotation": {"number": 64, "value": 127}, "group": "control_change"}, {"time": 1208, "annotation": {"number": 64, "value": 0}, "group": "control_change"}, {"time": 1213, "annotation": {"number": 64, "value": 127}, "group": "control_change"}, {"time": 1230, "annotation": {"number": 64, "value": 0}, "group": "control_change"}, {"time": 1235, "annotation": {"number": 64, "value": 127}, "group": "control_change"}, {"time": 1278, "annotation": {"number": 64, "value": 0}, "group": "control_change"}, {"time": 1282, "annotation": {"number": 64, "value": 127}, "group": "control_change"}, {"time": 1324, "annotation": {"number": 64, "value": 0}, "group": "control_change"}, {"time": 1329, "annotation": {"number": 64, "value": 127}, "group": "control_change"}, {"time": 1373, "annotation": {"number": 64, "value": 0}, "group": "control_change"}, {"time": 1378, "annotation": {"number": 64, "value": 127}, "group": "control_change"}, {"time": 1400, "annotation": {"number": 64, "value": 0}, "group": "control_change"}, {"time": 1404, "annotation": {"number": 64, "value": 127}, "group": "control_change"}, {"time": 1423, "annotation": {"number": 64, "value": 0}, "group": "control_change"}, {"time": 1427, "annotation": {"number": 64, "value": 127}, "group": "control_change"}, {"time": 1471, "annotation": {"number": 64, "value": 127}, "group": "control_change"}, {"time": 1472, "annotation": {"number": 64, "value": 0}, "group": "control_change"}, {"time": 1520, "annotation": {"number": 64, "value": 0}, "group": "control_change"}, {"time": 1525, "annotation": {"number": 64, "value": 127}, "group": "control_change"}, {"time": 1569, "annotation": {"number": 64, "value": 0}, "group": "control_change"}, {"time": 1572, "annotation": {"number": 64, "value": 127}, "group": "control_change"}, {"time": 1595, "annotation": {"number": 64, "value": 0}, "group": "control_change"}, {"time": 1599, "annotation": {"number": 64, "value": 127}, "group": "control_change"}, {"time": 1616, "annotation": {"number": 64, "value": 0}, "group": "control_change"}, {"time": 1620, "annotation": {"number": 64, "value": 127}, "group": "control_change"}, {"time": 1664, "annotation": {"number": 64, "value": 0}, "group": "control_change"}, {"time": 1668, "annotation": {"number": 64, "value": 127}, "group": "control_change"}, {"time": 1711, "annotation": {"number": 64, "value": 0}, "group": "control_change"}, {"time": 1715, "annotation": {"number": 64, "value": 127}, "group": "control_change"}, {"time": 1760, "annotation": {"number": 64, "value": 0}, "group": "control_change"}, {"time": 1764, "annotation": {"number": 64, "value": 127}, "group": "control_change"}, {"time": 1784, "annotation": {"number": 64, "value": 0}, "group": "control_change"}, {"time": 1788, "annotation": {"number": 64, "value": 127}, "group": "control_change"}, {"time": 1808, "annotation": {"number": 64, "value": 0}, "group": "control_change"}, {"time": 1812, "annotation": {"number": 64, "value": 127}, "group": "control_change"}, {"time": 1854, "annotation": {"number": 64, "value": 0}, "group": "control_change"}, {"time": 1858, "annotation": {"number": 64, "value": 127}, "group": "control_change"}, {"time": 1903, "annotation": {"number": 64, "value": 0}, "group": "control_change"}, {"time": 1907, "annotation": {"number": 64, "value": 127}, "group": "control_change"}, {"time": 1952, "annotation": {"number": 64, "value": 0}, "group": "control_change"}, {"time": 1955, "annotation": {"number": 64, "value": 127}, "group": "control_change"}, {"time": 1975, "annotation": {"number": 64, "value": 0}, "group": "control_change"}, {"time": 1979, "annotation": {"number": 64, "value": 127}, "group": "control_change"}, {"time": 1999, "annotation": {"number": 64, "value": 0}, "group": "control_change"}, {"time": 2002, "annotation": {"number": 64, "value": 127}, "group": "control_change"}, {"time": 2047, "annotation": {"number": 64, "value": 0}, "group": "control_change"}, {"time": 2051, "annotation": {"number": 64, "value": 127}, "group": "control_change"}, {"time": 2093, "annotation": {"number": 64, "value": 0}, "group": "control_change"}, {"time": 2096, "annotation": {"number": 64, "value": 127}, "group": "control_change"}, {"time": 2144, "annotation": {"number": 64, "value": 0}, "group": "control_change"}, {"time": 2147, "annotation": {"number": 64, "value": 127}, "group": "control_change"}, {"time": 2167, "annotation": {"number": 64, "value": 0}, "group": "control_change"}, {"time": 2171, "annotation": {"number": 64, "value": 127}, "group": "control_change"}, {"time": 2189, "annotation": {"number": 64, "value": 0}, "group": "control_change"}, {"time": 2192, "annotation": {"number": 64, "value": 127}, "group": "control_change"}, {"time": 2238, "annotation": {"number": 64, "value": 0}, "group": "control_change"}, {"time": 2242, "annotation": {"number": 64, "value": 127}, "group": "control_change"}, {"time": 2287, "annotation": {"number": 64, "value": 0}, "group": "control_change"}, {"time": 2291, "annotation": {"number": 64, "value": 127}, "group": "control_change"}, {"time": 2334, "annotation": {"number": 64, "value": 0}, "group": "control_change"}, {"time": 2338, "annotation": {"number": 64, "value": 127}, "group": "control_change"}, {"time": 2360, "annotation": {"number": 64, "value": 0}, "group": "control_change"}, {"time": 2365, "annotation": {"number": 64, "value": 127}, "group": "control_change"}, {"time": 2382, "annotation": {"number": 64, "value": 0}, "group": "control_change"}, {"time": 2387, "annotation": {"number": 64, "value": 127}, "group": "control_change"}, {"time": 2430, "annotation": {"number": 64, "value": 0}, "group": "control_change"}, {"time": 2434, "annotation": {"number": 64, "value": 127}, "group": "control_change"}, {"time": 2476, "annotation": {"number": 64, "value": 0}, "group": "control_change"}, {"time": 2481, "annotation": {"number": 64, "value": 127}, "group": "control_change"}, {"time": 2525, "annotation": {"number": 64, "value": 0}, "group": "control_change"}, {"time": 2530, "annotation": {"number": 64, "value": 127}, "group": "control_change"}, {"time": 2552, "annotation": {"number": 64, "value": 0}, "group": "control_change"}, {"time": 2556, "annotation": {"number": 64, "value": 127}, "group": "control_change"}, {"time": 2575, "annotation": {"number": 64, "value": 0}, "group": "control_change"}, {"time": 2579, "annotation": {"number": 64, "value": 127}, "group": "control_change"}, {"time": 2622, "annotation": {"number": 64, "value": 0}, "group": "control_change"}, {"time": 2624, "annotation": {"number": 64, "value": 0}, "group": "control_change"}, {"time": 2626, "annotation": {"number": 64, "value": 127}, "group": "control_change"}, {"time": 2671, "annotation": {"number": 64, "value": 0}, "group": "control_change"}, {"time": 2675, "annotation": {"number": 64, "value": 127}, "group": "control_change"}, {"time": 2718, "annotation": {"number": 64, "value": 0}, "group": "control_change"}, {"time": 2722, "annotation": {"number": 64, "value": 127}, "group": "control_change"}, {"time": 2744, "annotation": {"number": 64, "value": 0}, "group": "control_change"}, {"time": 2749, "annotation": {"number": 64, "value": 127}, "group": "control_change"}, {"time": 2766, "annotation": {"number": 64, "value": 0}, "group": "control_change"}, {"time": 2771, "annotation": {"number": 64, "value": 127}, "group": "control_change"}, {"time": 2814, "annotation": {"number": 64, "value": 0}, "group": "control_change"}, {"time": 2818, "annotation": {"number": 64, "value": 127}, "group": "control_change"}, {"time": 2860, "annotation": {"number": 64, "value": 0}, "group": "control_change"}, {"time": 2865, "annotation": {"number": 64, "value": 127}, "group": "control_change"}, {"time": 2909, "annotation": {"number": 64, "value": 0}, "group": "control_change"}, {"time": 2914, "annotation": {"number": 64, "value": 127}, "group": "control_change"}, {"time": 2936, "annotation": {"number": 64, "value": 0}, "group": "control_change"}, {"time": 2940, "annotation": {"number": 64, "value": 127}, "group": "control_change"}, {"time": 2959, "annotation": {"number": 64, "value": 0}, "group": "control_change"}, {"time": 2963, "annotation": {"number": 64, "value": 127}, "group": "control_change"}, {"time": 3006, "annotation": {"number": 64, "value": 0}, "group": "control_change"}, {"time": 3007, "annotation": {"number": 64, "value": 127}, "group": "control_change"}, {"time": 3008, "annotation": {"number": 64, "value": 0}, "group": "control_change"}, {"time": 3056, "annotation": {"number": 64, "value": 0}, "group": "control_change"}, {"time": 3061, "annotation": {"number": 64, "value": 127}, "group": "control_change"}, {"time": 3105, "annotation": {"number": 64, "value": 0}, "group": "control_change"}, {"time": 3108, "annotation": {"number": 64, "value": 127}, "group": "control_change"}, {"time": 3131, "annotation": {"number": 64, "value": 0}, "group": "control_change"}, {"time": 3135, "annotation": {"number": 64, "value": 127}, "group": "control_change"}, {"time": 3152, "annotation": {"number": 64, "value": 0}, "group": "control_change"}, {"time": 3156, "annotation": {"number": 64, "value": 127}, "group": "control_change"}, {"time": 3200, "annotation": {"number": 64, "value": 0}, "group": "control_change"}, {"time": 3204, "annotation": {"number": 64, "value": 127}, "group": "control_change"}, {"time": 3247, "annotation": {"number": 64, "value": 0}, "group": "control_change"}, {"time": 3251, "annotation": {"number": 64, "value": 127}, "group": "control_change"}, {"time": 3296, "annotation": {"number": 64, "value": 0}, "group": "control_change"}, {"time": 3300, "annotation": {"number": 64, "value": 127}, "group": "control_change"}, {"time": 3320, "annotation": {"number": 64, "value": 0}, "group": "control_change"}, {"time": 3324, "annotation": {"number": 64, "value": 127}, "group": "control_change"}, {"time": 3344, "annotation": {"number": 64, "value": 0}, "group": "control_change"}, {"time": 3348, "annotation": {"number": 64, "value": 127}, "group": "control_change"}, {"time": 3390, "annotation": {"number": 64, "value": 0}, "group": "control_change"}, {"time": 3394, "annotation": {"number": 64, "value": 127}, "group": "control_change"}, {"time": 3439, "annotation": {"number": 64, "value": 0}, "group": "control_change"}, {"time": 3443, "annotation": {"number": 64, "value": 127}, "group": "control_change"}, {"time": 3488, "annotation": {"number": 64, "value": 0}, "group": "control_change"}, {"time": 3491, "annotation": {"number": 64, "value": 127}, "group": "control_change"}, {"time": 3511, "annotation": {"number": 64, "value": 0}, "group": "control_change"}, {"time": 3515, "annotation": {"number": 64, "value": 127}, "group": "control_change"}, {"time": 3535, "annotation": {"number": 64, "value": 0}, "group": "control_change"}, {"time": 3538, "annotation": {"number": 64, "value": 127}, "group": "control_change"}, {"time": 3583, "annotation": {"number": 64, "value": 0}, "group": "control_change"}, {"time": 3587, "annotation": {"number": 64, "value": 127}, "group": "control_change"}, {"time": 3629, "annotation": {"number": 64, "value": 0}, "group": "control_change"}, {"time": 3632, "annotation": {"number": 64, "value": 127}, "group": "control_change"}, {"time": 3680, "annotation": {"number": 64, "value": 0}, "group": "control_change"}, {"time": 3683, "annotation": {"number": 64, "value": 127}, "group": "control_change"}, {"time": 3703, "annotation": {"number": 64, "value": 0}, "group": "control_change"}, {"time": 3707, "annotation": {"number": 64, "value": 127}, "group": "control_change"}, {"time": 3725, "annotation": {"number": 64, "value": 0}, "group": "control_change"}, {"time": 3728, "annotation": {"number": 64, "value": 127}, "group": "control_change"}, {"time": 3774, "annotation": {"number": 64, "value": 0}, "group": "control_change"}, {"time": 3871, "annotation": {"number": 64, "value": 127}, "group": "control_change"}, {"time": 3872, "annotation": {"number": 64, "value": 0}, "group": "control_change"}, {"time": 3920, "annotation": {"number": 64, "value": 0}, "group": "control_change"}, {"time": 3925, "annotation": {"number": 64, "value": 127}, "group": "control_change"}, {"time": 3969, "annotation": {"number": 64, "value": 0}, "group": "control_change"}, {"time": 3972, "annotation": {"number": 64, "value": 127}, "group": "control_change"}, {"time": 3995, "annotation": {"number": 64, "value": 0}, "group": "control_change"}, {"time": 3999, "annotation": {"number": 64, "value": 127}, "group": "control_change"}, {"time": 4016, "annotation": {"number": 64, "value": 0}, "group": "control_change"}, {"time": 4020, "annotation": {"number": 64, "value": 127}, "group": "control_change"}, {"time": 4064, "annotation": {"number": 64, "value": 0}, "group": "control_change"}, {"time": 4068, "annotation": {"number": 64, "value": 127}, "group": "control_change"}, {"time": 4111, "annotation": {"number": 64, "value": 0}, "group": "control_change"}, {"time": 4115, "annotation": {"number": 64, "value": 127}, "group": "control_change"}, {"time": 4160, "annotation": {"number": 64, "value": 0}, "group": "control_change"}, {"time": 4164, "annotation": {"number": 64, "value": 127}, "group": "control_change"}, {"time": 4184, "annotation": {"number": 64, "value": 0}, "group": "control_change"}, {"time": 4188, "annotation": {"number": 64, "value": 127}, "group": "control_change"}, {"time": 4208, "annotation": {"number": 64, "value": 0}, "group": "control_change"}, {"time": 4212, "annotation": {"number": 64, "value": 127}, "group": "control_change"}, {"time": 4254, "annotation": {"number": 64, "value": 0}, "group": "control_change"}, {"time": 4258, "annotation": {"number": 64, "value": 127}, "group": "control_change"}, {"time": 4303, "annotation": {"number": 64, "value": 0}, "group": "control_change"}, {"time": 4307, "annotation": {"number": 64, "value": 127}, "group": "control_change"}, {"time": 4352, "annotation": {"number": 64, "value": 0}, "group": "control_change"}, {"time": 4355, "annotation": {"number": 64, "value": 127}, "group": "control_change"}, {"time": 4375, "annotation": {"number": 64, "value": 0}, "group": "control_change"}, {"time": 4379, "annotation": {"number": 64, "value": 127}, "group": "control_change"}, {"time": 4399, "annotation": {"number": 64, "value": 0}, "group": "control_change"}, {"time": 4402, "annotation": {"number": 64, "value": 127}, "group": "control_change"}, {"time": 4447, "annotation": {"number": 64, "value": 0}, "group": "control_change"}, {"time": 4451, "annotation": {"number": 64, "value": 127}, "group": "control_change"}, {"time": 4493, "annotation": {"number": 64, "value": 0}, "group": "control_change"}, {"time": 4496, "annotation": {"number": 64, "value": 127}, "group": "control_change"}, {"time": 4544, "annotation": {"number": 64, "value": 0}, "group": "control_change"}, {"time": 4547, "annotation": {"number": 64, "value": 127}, "group": "control_change"}, {"time": 4567, "annotation": {"number": 64, "value": 0}, "group": "control_change"}, {"time": 4571, "annotation": {"number": 64, "value": 127}, "group": "control_change"}, {"time": 4589, "annotation": {"number": 64, "value": 0}, "group": "control_change"}, {"time": 4592, "annotation": {"number": 64, "value": 127}, "group": "control_change"}, {"time": 4638, "annotation": {"number": 64, "value": 0}, "group": "control_change"}, {"time": 4642, "annotation": {"number": 64, "value": 127}, "group": "control_change"}, {"time": 4687, "annotation": {"number": 64, "value": 0}, "group": "control_change"}, {"time": 4691, "annotation": {"number": 64, "value": 127}, "group": "control_change"}, {"time": 4734, "annotation": {"number": 64, "value": 0}, "group": "control_change"}, {"time": 4738, "annotation": {"number": 64, "value": 127}, "group": "control_change"}, {"time": 4760, "annotation": {"number": 64, "value": 0}, "group": "control_change"}, {"time": 4765, "annotation": {"number": 64, "value": 127}, "group": "control_change"}, {"time": 4782, "annotation": {"number": 64, "value": 0}, "group": "control_change"}, {"time": 4787, "annotation": {"number": 64, "value": 127}, "group": "control_change"}, {"time": 4830, "annotation": {"number": 64, "value": 0}, "group": "control_change"}, {"time": 4834, "annotation": {"number": 64, "value": 127}, "group": "control_change"}, {"time": 4876, "annotation": {"number": 64, "value": 0}, "group": "control_change"}, {"time": 4881, "annotation": {"number": 64, "value": 127}, "group": "control_change"}, {"time": 4925, "annotation": {"number": 64, "value": 0}, "group": "control_change"}, {"time": 4930, "annotation": {"number": 64, "value": 127}, "group": "control_change"}, {"time": 4952, "annotation": {"number": 64, "value": 0}, "group": "control_change"}, {"time": 4956, "annotation": {"number": 64, "value": 127}, "group": "control_change"}, {"time": 4975, "annotation": {"number": 64, "value": 0}, "group": "control_change"}, {"time": 4979, "annotation": {"number": 64, "value": 127}, "group": "control_change"}, {"time": 5022, "annotation": {"number": 64, "value": 0}, "group": "control_change"}, {"time": 5026, "annotation": {"number": 64, "value": 127}, "group": "control_change"}, {"time": 5071, "annotation": {"number": 64, "value": 0}, "group": "control_change"}, {"time": 5075, "annotation": {"number": 64, "value": 127}, "group": "control_change"}, {"time": 5118, "annotation": {"number": 64, "value": 0}, "group": "control_change"}, {"time": 5122, "annotation": {"number": 64, "value": 127}, "group": "control_change"}, {"time": 5144, "annotation": {"number": 64, "value": 0}, "group": "control_change"}, {"time": 5149, "annotation": {"number": 64, "value": 127}, "group": "control_change"}, {"time": 5166, "annotation": {"number": 64, "value": 0}, "group": "control_change"}, {"time": 5171, "annotation": {"number": 64, "value": 127}, "group": "control_change"}, {"time": 5214, "annotation": {"number": 64, "value": 0}, "group": "control_change"}, {"time": 5218, "annotation": {"number": 64, "value": 127}, "group": "control_change"}, {"time": 5260, "annotation": {"number": 64, "value": 0}, "group": "control_change"}, {"time": 5265, "annotation": {"number": 64, "value": 127}, "group": "control_change"}, {"time": 5309, "annotation": {"number": 64, "value": 0}, "group": "control_change"}, {"time": 5314, "annotation": {"number": 64, "value": 127}, "group": "control_change"}, {"time": 5336, "annotation": {"number": 64, "value": 0}, "group": "control_change"}, {"time": 5340, "annotation": {"number": 64, "value": 127}, "group": "control_change"}, {"time": 5359, "annotation": {"number": 64, "value": 0}, "group": "control_change"}, {"time": 5363, "annotation": {"number": 64, "value": 127}, "group": "control_change"}]}]}