{"metadata": {"schema_version": "0.2", "title": "None", "source_filename": "252.mid", "source_format": "midi"}, "resolution": 12, "tempos": [{"time": 0, "qpm": 125.94987195096351}, {"time": 2883, "qpm": 126.09015446043921}, {"time": 2895, "qpm": 126.37059440515254}, {"time": 2907, "qpm": 126.65121521841002}, {"time": 2919, "qpm": 126.93201098385002}, {"time": 2931, "qpm": 127.21270600507579}, {"time": 2943, "qpm": 127.4930197571683}, {"time": 2955, "qpm": 127.81676189015427}, {"time": 2971, "qpm": 126.9975658799873}, {"time": 2973, "qpm": 126.000126000126}, {"time": 3783, "qpm": 123.78612233782471}, {"time": 3786, "qpm": 119.41344117693887}, {"time": 3789, "qpm": 113.57462894222269}, {"time": 3794, "qpm": 109.13813613891102}, {"time": 3797, "qpm": 107.43254131676485}, {"time": 3800, "qpm": 105.71290137867243}, {"time": 3803, "qpm": 103.99334442595674}, {"time": 3806, "qpm": 101.55996100097498}, {"time": 3811, "qpm": 99.47345385094897}, {"time": 3814, "qpm": 98.42939495450922}, {"time": 3817, "qpm": 97.37793675627601}, {"time": 3820, "qpm": 96.32658565600813}, {"time": 3823, "qpm": 95.27514668402792}, {"time": 3826, "qpm": 94.2234729515817}, {"time": 3829, "qpm": 93.17204217587776}, {"time": 3832, "qpm": 91.82118131010462}, {"time": 3837, "qpm": 91.000091000091}, {"time": 3837, "qpm": 125.94987195096351}, {"time": 5127, "qpm": 124.19737446750376}, {"time": 5130, "qpm": 120.73066196621956}, {"time": 5133, "qpm": 117.2413119302805}, {"time": 5136, "qpm": 113.74386020121288}, {"time": 5139, "qpm": 106.40297644592778}, {"time": 5142, "qpm": 99.87864744335633}, {"time": 5145, "qpm": 99.63665831932884}, {"time": 5148, "qpm": 99.39402774418627}, {"time": 5151, "qpm": 99.15126517014357}, {"time": 5154, "qpm": 98.90838116652544}, {"time": 5157, "qpm": 98.6657107055585}, {"time": 5160, "qpm": 98.42293648111756}, {"time": 5163, "qpm": 98.18022944719621}, {"time": 5166, "qpm": 97.93743756488355}, {"time": 5169, "qpm": 97.69473002061359}, {"time": 5172, "qpm": 97.4519561856005}, {"time": 5175, "qpm": 97.165362491579}, {"time": 5180, "qpm": 97.00010993345792}, {"time": 5181, "qpm": 125.94987195096351}], "time_signatures": [{"time": 0, "numerator": 4, "denominator": 4}], "tracks": [{"program": 0, "is_drum": false, "name": "MELODY", "notes": [{"time": 249, "pitch": 72, "duration": 10, "velocity": 84}, {"time": 261, "pitch": 70, "duration": 6, "velocity": 79}, {"time": 273, "pitch": 67, "duration": 8, "velocity": 79}, {"time": 279, "pitch": 70, "duration": 6, "velocity": 84}, {"time": 285, "pitch": 72, "duration": 39, "velocity": 80}, {"time": 321, "pitch": 70, "duration": 9, "velocity": 90}, {"time": 333, "pitch": 70, "duration": 22, "velocity": 93}, {"time": 357, "pitch": 68, "duration": 18, "velocity": 90}, {"time": 381, "pitch": 63, "duration": 29, "velocity": 62}, {"time": 501, "pitch": 67, "duration": 12, "velocity": 56}, {"time": 513, "pitch": 70, "duration": 12, "velocity": 80}, {"time": 525, "pitch": 72, "duration": 12, "velocity": 98}, {"time": 537, "pitch": 70, "duration": 13, "velocity": 66}, {"time": 549, "pitch": 72, "duration": 12, "velocity": 93}, {"time": 561, "pitch": 74, "duration": 12, "velocity": 83}, {"time": 573, "pitch": 67, "duration": 12, "velocity": 84}, {"time": 585, "pitch": 67, "duration": 24, "velocity": 96}, {"time": 609, "pitch": 70, "duration": 36, "velocity": 103}, {"time": 645, "pitch": 70, "duration": 12, "velocity": 99}, {"time": 657, "pitch": 70, "duration": 12, "velocity": 99}, {"time": 669, "pitch": 70, "duration": 12, "velocity": 99}, {"time": 681, "pitch": 68, "duration": 12, "velocity": 96}, {"time": 693, "pitch": 68, "duration": 18, "velocity": 96}, {"time": 711, "pitch": 58, "duration": 6, "velocity": 75}, {"time": 717, "pitch": 68, "duration": 12, "velocity": 77}, {"time": 729, "pitch": 67, "duration": 12, "velocity": 66}, {"time": 741, "pitch": 65, "duration": 9, "velocity": 69}, {"time": 750, "pitch": 63, "duration": 15, "velocity": 43}, {"time": 765, "pitch": 67, "duration": 120, "velocity": 55}, {"time": 885, "pitch": 68, "duration": 12, "velocity": 96}, {"time": 897, "pitch": 68, "duration": 12, "velocity": 74}, {"time": 909, "pitch": 68, "duration": 12, "velocity": 80}, {"time": 921, "pitch": 67, "duration": 6, "velocity": 77}, {"time": 927, "pitch": 65, "duration": 19, "velocity": 77}, {"time": 945, "pitch": 63, "duration": 6, "velocity": 65}, {"time": 951, "pitch": 67, "duration": 54, "velocity": 80}, {"time": 1005, "pitch": 63, "duration": 12, "velocity": 99}, {"time": 1017, "pitch": 65, "duration": 12, "velocity": 93}, {"time": 1029, "pitch": 63, "duration": 12, "velocity": 69}, {"time": 1041, "pitch": 67, "duration": 22, "velocity": 99}, {"time": 1065, "pitch": 65, "duration": 39, "velocity": 89}, {"time": 1101, "pitch": 67, "duration": 13, "velocity": 94}, {"time": 1113, "pitch": 65, "duration": 12, "velocity": 96}, {"time": 1125, "pitch": 63, "duration": 13, "velocity": 75}, {"time": 1137, "pitch": 65, "duration": 132, "velocity": 94}, {"time": 1269, "pitch": 67, "duration": 7, "velocity": 90}, {"time": 1275, "pitch": 70, "duration": 18, "velocity": 97}, {"time": 1293, "pitch": 72, "duration": 12, "velocity": 105}, {"time": 1305, "pitch": 70, "duration": 12, "velocity": 86}, {"time": 1317, "pitch": 72, "duration": 13, "velocity": 100}, {"time": 1329, "pitch": 74, "duration": 13, "velocity": 99}, {"time": 1341, "pitch": 67, "duration": 12, "velocity": 84}, {"time": 1353, "pitch": 67, "duration": 24, "velocity": 93}, {"time": 1377, "pitch": 70, "duration": 36, "velocity": 98}, {"time": 1413, "pitch": 70, "duration": 12, "velocity": 108}, {"time": 1425, "pitch": 70, "duration": 12, "velocity": 105}, {"time": 1437, "pitch": 70, "duration": 13, "velocity": 106}, {"time": 1449, "pitch": 68, "duration": 12, "velocity": 91}, {"time": 1461, "pitch": 68, "duration": 21, "velocity": 95}, {"time": 1473, "pitch": 58, "duration": 6, "velocity": 83}, {"time": 1485, "pitch": 68, "duration": 12, "velocity": 76}, {"time": 1497, "pitch": 67, "duration": 11, "velocity": 86}, {"time": 1509, "pitch": 65, "duration": 12, "velocity": 87}, {"time": 1521, "pitch": 63, "duration": 12, "velocity": 66}, {"time": 1533, "pitch": 67, "duration": 7, "velocity": 66}, {"time": 1539, "pitch": 65, "duration": 6, "velocity": 55}, {"time": 1545, "pitch": 67, "duration": 108, "velocity": 65}, {"time": 1653, "pitch": 68, "duration": 12, "velocity": 96}, {"time": 1665, "pitch": 68, "duration": 12, "velocity": 80}, {"time": 1677, "pitch": 68, "duration": 12, "velocity": 86}, {"time": 1689, "pitch": 67, "duration": 12, "velocity": 82}, {"time": 1701, "pitch": 65, "duration": 12, "velocity": 89}, {"time": 1713, "pitch": 63, "duration": 12, "velocity": 67}, {"time": 1725, "pitch": 67, "duration": 12, "velocity": 87}, {"time": 1737, "pitch": 70, "duration": 24, "velocity": 81}, {"time": 1761, "pitch": 75, "duration": 24, "velocity": 108}, {"time": 1785, "pitch": 77, "duration": 12, "velocity": 106}, {"time": 1797, "pitch": 79, "duration": 13, "velocity": 92}, {"time": 1809, "pitch": 75, "duration": 12, "velocity": 106}, {"time": 1821, "pitch": 72, "duration": 48, "velocity": 98}, {"time": 1869, "pitch": 79, "duration": 14, "velocity": 111}, {"time": 1881, "pitch": 77, "duration": 12, "velocity": 106}, {"time": 1893, "pitch": 75, "duration": 6, "velocity": 101}, {"time": 1899, "pitch": 77, "duration": 4, "velocity": 101}, {"time": 1905, "pitch": 77, "duration": 24, "velocity": 93}, {"time": 1929, "pitch": 79, "duration": 36, "velocity": 98}, {"time": 1965, "pitch": 79, "duration": 24, "velocity": 101}, {"time": 1989, "pitch": 77, "duration": 24, "velocity": 106}, {"time": 2013, "pitch": 75, "duration": 12, "velocity": 105}, {"time": 2025, "pitch": 75, "duration": 12, "velocity": 99}, {"time": 2037, "pitch": 75, "duration": 12, "velocity": 99}, {"time": 2049, "pitch": 70, "duration": 12, "velocity": 93}, {"time": 2061, "pitch": 75, "duration": 12, "velocity": 100}, {"time": 2073, "pitch": 77, "duration": 6, "velocity": 101}, {"time": 2079, "pitch": 79, "duration": 30, "velocity": 108}, {"time": 2109, "pitch": 74, "duration": 12, "velocity": 111}, {"time": 2121, "pitch": 74, "duration": 12, "velocity": 92}, {"time": 2133, "pitch": 74, "duration": 12, "velocity": 96}, {"time": 2145, "pitch": 70, "duration": 12, "velocity": 101}, {"time": 2157, "pitch": 74, "duration": 12, "velocity": 108}, {"time": 2169, "pitch": 75, "duration": 6, "velocity": 103}, {"time": 2175, "pitch": 77, "duration": 54, "velocity": 108}, {"time": 2229, "pitch": 79, "duration": 12, "velocity": 114}, {"time": 2241, "pitch": 79, "duration": 12, "velocity": 100}, {"time": 2253, "pitch": 80, "duration": 12, "velocity": 98}, {"time": 2265, "pitch": 79, "duration": 12, "velocity": 91}, {"time": 2277, "pitch": 75, "duration": 12, "velocity": 87}, {"time": 2289, "pitch": 77, "duration": 24, "velocity": 99}, {"time": 2313, "pitch": 79, "duration": 36, "velocity": 106}, {"time": 2349, "pitch": 79, "duration": 24, "velocity": 98}, {"time": 2373, "pitch": 77, "duration": 24, "velocity": 99}, {"time": 2397, "pitch": 75, "duration": 12, "velocity": 109}, {"time": 2409, "pitch": 75, "duration": 12, "velocity": 95}, {"time": 2421, "pitch": 75, "duration": 12, "velocity": 99}, {"time": 2433, "pitch": 70, "duration": 12, "velocity": 96}, {"time": 2445, "pitch": 75, "duration": 13, "velocity": 103}, {"time": 2457, "pitch": 77, "duration": 6, "velocity": 108}, {"time": 2463, "pitch": 79, "duration": 30, "velocity": 109}, {"time": 2493, "pitch": 74, "duration": 12, "velocity": 101}, {"time": 2505, "pitch": 74, "duration": 12, "velocity": 103}, {"time": 2517, "pitch": 74, "duration": 12, "velocity": 98}, {"time": 2529, "pitch": 70, "duration": 12, "velocity": 93}, {"time": 2541, "pitch": 74, "duration": 12, "velocity": 101}, {"time": 2553, "pitch": 75, "duration": 12, "velocity": 101}, {"time": 2565, "pitch": 77, "duration": 6, "velocity": 90}, {"time": 2571, "pitch": 79, "duration": 18, "velocity": 79}, {"time": 2589, "pitch": 75, "duration": 12, "velocity": 97}, {"time": 2601, "pitch": 72, "duration": 30, "velocity": 90}, {"time": 2631, "pitch": 70, "duration": 6, "velocity": 98}, {"time": 2637, "pitch": 80, "duration": 12, "velocity": 95}, {"time": 2649, "pitch": 79, "duration": 12, "velocity": 96}, {"time": 2661, "pitch": 75, "duration": 12, "velocity": 96}, {"time": 2673, "pitch": 72, "duration": 12, "velocity": 98}, {"time": 2685, "pitch": 70, "duration": 48, "velocity": 93}, {"time": 2733, "pitch": 79, "duration": 24, "velocity": 108}, {"time": 2757, "pitch": 77, "duration": 24, "velocity": 109}, {"time": 2781, "pitch": 75, "duration": 12, "velocity": 108}, {"time": 2793, "pitch": 75, "duration": 12, "velocity": 99}, {"time": 2805, "pitch": 75, "duration": 12, "velocity": 98}, {"time": 2817, "pitch": 75, "duration": 12, "velocity": 97}, {"time": 2829, "pitch": 74, "duration": 13, "velocity": 100}, {"time": 2841, "pitch": 75, "duration": 6, "velocity": 97}, {"time": 2847, "pitch": 70, "duration": 30, "velocity": 90}, {"time": 2877, "pitch": 67, "duration": 13, "velocity": 90}, {"time": 2889, "pitch": 72, "duration": 108, "velocity": 103}, {"time": 2997, "pitch": 67, "duration": 7, "velocity": 90}, {"time": 3003, "pitch": 70, "duration": 18, "velocity": 97}, {"time": 3021, "pitch": 72, "duration": 12, "velocity": 105}, {"time": 3033, "pitch": 70, "duration": 12, "velocity": 86}, {"time": 3045, "pitch": 72, "duration": 13, "velocity": 100}, {"time": 3057, "pitch": 74, "duration": 13, "velocity": 99}, {"time": 3069, "pitch": 67, "duration": 12, "velocity": 84}, {"time": 3081, "pitch": 67, "duration": 24, "velocity": 93}, {"time": 3105, "pitch": 70, "duration": 36, "velocity": 98}, {"time": 3141, "pitch": 70, "duration": 12, "velocity": 108}, {"time": 3153, "pitch": 70, "duration": 6, "velocity": 105}, {"time": 3159, "pitch": 70, "duration": 18, "velocity": 106}, {"time": 3177, "pitch": 68, "duration": 6, "velocity": 91}, {"time": 3183, "pitch": 68, "duration": 24, "velocity": 95}, {"time": 3207, "pitch": 58, "duration": 6, "velocity": 83}, {"time": 3213, "pitch": 68, "duration": 12, "velocity": 76}, {"time": 3225, "pitch": 67, "duration": 12, "velocity": 86}, {"time": 3237, "pitch": 65, "duration": 12, "velocity": 87}, {"time": 3249, "pitch": 63, "duration": 12, "velocity": 66}, {"time": 3261, "pitch": 67, "duration": 7, "velocity": 66}, {"time": 3267, "pitch": 65, "duration": 6, "velocity": 55}, {"time": 3273, "pitch": 67, "duration": 108, "velocity": 65}, {"time": 3381, "pitch": 68, "duration": 12, "velocity": 104}, {"time": 3393, "pitch": 68, "duration": 12, "velocity": 96}, {"time": 3405, "pitch": 70, "duration": 24, "velocity": 100}, {"time": 3429, "pitch": 70, "duration": 12, "velocity": 93}, {"time": 3441, "pitch": 74, "duration": 12, "velocity": 101}, {"time": 3453, "pitch": 75, "duration": 12, "velocity": 105}, {"time": 3465, "pitch": 77, "duration": 24, "velocity": 98}, {"time": 3489, "pitch": 79, "duration": 23, "velocity": 106}, {"time": 3513, "pitch": 77, "duration": 12, "velocity": 97}, {"time": 3525, "pitch": 75, "duration": 15, "velocity": 97}, {"time": 3537, "pitch": 79, "duration": 13, "velocity": 108}, {"time": 3549, "pitch": 75, "duration": 6, "velocity": 108}, {"time": 3555, "pitch": 77, "duration": 42, "velocity": 108}, {"time": 3597, "pitch": 79, "duration": 12, "velocity": 94}, {"time": 3609, "pitch": 80, "duration": 12, "velocity": 96}, {"time": 3621, "pitch": 82, "duration": 12, "velocity": 97}, {"time": 3633, "pitch": 79, "duration": 6, "velocity": 90}, {"time": 3639, "pitch": 82, "duration": 78, "velocity": 105}, {"time": 3717, "pitch": 84, "duration": 24, "velocity": 108}, {"time": 3741, "pitch": 82, "duration": 48, "velocity": 108}, {"time": 3789, "pitch": 82, "duration": 9, "velocity": 101}, {"time": 3801, "pitch": 80, "duration": 9, "velocity": 100}, {"time": 3813, "pitch": 79, "duration": 9, "velocity": 90}, {"time": 3819, "pitch": 75, "duration": 12, "velocity": 74}, {"time": 3828, "pitch": 77, "duration": 21, "velocity": 95}, {"time": 3837, "pitch": 75, "duration": 12, "velocity": 109}, {"time": 3849, "pitch": 75, "duration": 12, "velocity": 95}, {"time": 3861, "pitch": 75, "duration": 12, "velocity": 99}, {"time": 3873, "pitch": 70, "duration": 12, "velocity": 96}, {"time": 3885, "pitch": 75, "duration": 12, "velocity": 103}, {"time": 3897, "pitch": 77, "duration": 6, "velocity": 108}, {"time": 3903, "pitch": 79, "duration": 30, "velocity": 109}, {"time": 3933, "pitch": 74, "duration": 12, "velocity": 101}, {"time": 3945, "pitch": 74, "duration": 12, "velocity": 103}, {"time": 3957, "pitch": 74, "duration": 12, "velocity": 98}, {"time": 3969, "pitch": 70, "duration": 12, "velocity": 93}, {"time": 3981, "pitch": 74, "duration": 12, "velocity": 101}, {"time": 3993, "pitch": 75, "duration": 6, "velocity": 101}, {"time": 3999, "pitch": 77, "duration": 54, "velocity": 90}, {"time": 4053, "pitch": 79, "duration": 12, "velocity": 97}, {"time": 4065, "pitch": 79, "duration": 12, "velocity": 99}, {"time": 4077, "pitch": 80, "duration": 12, "velocity": 98}, {"time": 4089, "pitch": 79, "duration": 12, "velocity": 99}, {"time": 4101, "pitch": 75, "duration": 12, "velocity": 97}, {"time": 4113, "pitch": 77, "duration": 24, "velocity": 108}, {"time": 4137, "pitch": 79, "duration": 36, "velocity": 63}, {"time": 4173, "pitch": 79, "duration": 25, "velocity": 96}, {"time": 4197, "pitch": 77, "duration": 24, "velocity": 96}, {"time": 4221, "pitch": 75, "duration": 12, "velocity": 105}, {"time": 4233, "pitch": 75, "duration": 12, "velocity": 94}, {"time": 4245, "pitch": 75, "duration": 12, "velocity": 99}, {"time": 4257, "pitch": 70, "duration": 12, "velocity": 87}, {"time": 4269, "pitch": 75, "duration": 12, "velocity": 103}, {"time": 4281, "pitch": 77, "duration": 6, "velocity": 105}, {"time": 4287, "pitch": 79, "duration": 30, "velocity": 105}, {"time": 4317, "pitch": 74, "duration": 12, "velocity": 103}, {"time": 4329, "pitch": 74, "duration": 12, "velocity": 97}, {"time": 4341, "pitch": 74, "duration": 12, "velocity": 99}, {"time": 4353, "pitch": 70, "duration": 12, "velocity": 99}, {"time": 4365, "pitch": 74, "duration": 12, "velocity": 103}, {"time": 4377, "pitch": 75, "duration": 12, "velocity": 99}, {"time": 4389, "pitch": 75, "duration": 6, "velocity": 97}, {"time": 4395, "pitch": 77, "duration": 18, "velocity": 100}, {"time": 4413, "pitch": 75, "duration": 12, "velocity": 93}, {"time": 4425, "pitch": 72, "duration": 6, "velocity": 91}, {"time": 4431, "pitch": 70, "duration": 6, "velocity": 91}, {"time": 4437, "pitch": 68, "duration": 18, "velocity": 91}, {"time": 4455, "pitch": 70, "duration": 6, "velocity": 66}, {"time": 4461, "pitch": 80, "duration": 12, "velocity": 87}, {"time": 4473, "pitch": 79, "duration": 11, "velocity": 91}, {"time": 4485, "pitch": 75, "duration": 12, "velocity": 90}, {"time": 4497, "pitch": 70, "duration": 60, "velocity": 91}, {"time": 4557, "pitch": 79, "duration": 24, "velocity": 109}, {"time": 4581, "pitch": 77, "duration": 24, "velocity": 100}, {"time": 4605, "pitch": 75, "duration": 12, "velocity": 100}, {"time": 4617, "pitch": 75, "duration": 12, "velocity": 98}, {"time": 4629, "pitch": 75, "duration": 12, "velocity": 96}, {"time": 4641, "pitch": 75, "duration": 12, "velocity": 96}, {"time": 4653, "pitch": 74, "duration": 12, "velocity": 98}, {"time": 4665, "pitch": 75, "duration": 12, "velocity": 97}, {"time": 4677, "pitch": 70, "duration": 24, "velocity": 75}, {"time": 4701, "pitch": 67, "duration": 8, "velocity": 96}, {"time": 4713, "pitch": 72, "duration": 42, "velocity": 101}, {"time": 4749, "pitch": 79, "duration": 26, "velocity": 106}, {"time": 4773, "pitch": 77, "duration": 24, "velocity": 97}, {"time": 4797, "pitch": 75, "duration": 12, "velocity": 97}, {"time": 4809, "pitch": 75, "duration": 12, "velocity": 97}, {"time": 4821, "pitch": 75, "duration": 12, "velocity": 90}, {"time": 4833, "pitch": 75, "duration": 12, "velocity": 91}, {"time": 4845, "pitch": 74, "duration": 12, "velocity": 90}, {"time": 4857, "pitch": 75, "duration": 12, "velocity": 66}, {"time": 4869, "pitch": 70, "duration": 24, "velocity": 61}, {"time": 4893, "pitch": 67, "duration": 15, "velocity": 96}, {"time": 4905, "pitch": 72, "duration": 75, "velocity": 105}, {"time": 5325, "pitch": 79, "duration": 24, "velocity": 99}, {"time": 5349, "pitch": 77, "duration": 24, "velocity": 106}, {"time": 5373, "pitch": 75, "duration": 12, "velocity": 109}, {"time": 5385, "pitch": 75, "duration": 12, "velocity": 95}, {"time": 5397, "pitch": 75, "duration": 12, "velocity": 99}, {"time": 5409, "pitch": 70, "duration": 12, "velocity": 96}, {"time": 5421, "pitch": 75, "duration": 12, "velocity": 103}, {"time": 5433, "pitch": 77, "duration": 12, "velocity": 108}, {"time": 5445, "pitch": 79, "duration": 24, "velocity": 109}, {"time": 5469, "pitch": 74, "duration": 12, "velocity": 101}, {"time": 5481, "pitch": 74, "duration": 12, "velocity": 103}, {"time": 5493, "pitch": 74, "duration": 12, "velocity": 98}, {"time": 5505, "pitch": 70, "duration": 12, "velocity": 93}, {"time": 5517, "pitch": 74, "duration": 12, "velocity": 101}, {"time": 5529, "pitch": 75, "duration": 6, "velocity": 101}, {"time": 5535, "pitch": 77, "duration": 54, "velocity": 90}, {"time": 5589, "pitch": 79, "duration": 12, "velocity": 105}, {"time": 5601, "pitch": 79, "duration": 12, "velocity": 99}, {"time": 5613, "pitch": 80, "duration": 12, "velocity": 97}, {"time": 5625, "pitch": 79, "duration": 12, "velocity": 100}, {"time": 5637, "pitch": 75, "duration": 12, "velocity": 103}, {"time": 5649, "pitch": 77, "duration": 18, "velocity": 109}, {"time": 5667, "pitch": 79, "duration": 42, "velocity": 100}, {"time": 5709, "pitch": 79, "duration": 24, "velocity": 109}, {"time": 5733, "pitch": 77, "duration": 24, "velocity": 109}, {"time": 5757, "pitch": 79, "duration": 12, "velocity": 106}, {"time": 5769, "pitch": 75, "duration": 12, "velocity": 93}, {"time": 5781, "pitch": 75, "duration": 12, "velocity": 89}, {"time": 5793, "pitch": 70, "duration": 12, "velocity": 101}, {"time": 5805, "pitch": 75, "duration": 12, "velocity": 109}, {"time": 5817, "pitch": 77, "duration": 12, "velocity": 103}, {"time": 5829, "pitch": 79, "duration": 24, "velocity": 98}, {"time": 5853, "pitch": 74, "duration": 9, "velocity": 109}, {"time": 5862, "pitch": 74, "duration": 15, "velocity": 98}, {"time": 5877, "pitch": 74, "duration": 12, "velocity": 100}, {"time": 5889, "pitch": 70, "duration": 12, "velocity": 100}, {"time": 5901, "pitch": 79, "duration": 12, "velocity": 103}, {"time": 5913, "pitch": 77, "duration": 12, "velocity": 99}, {"time": 5925, "pitch": 79, "duration": 12, "velocity": 106}, {"time": 5937, "pitch": 82, "duration": 12, "velocity": 97}, {"time": 5949, "pitch": 82, "duration": 18, "velocity": 97}, {"time": 5967, "pitch": 75, "duration": 26, "velocity": 90}, {"time": 5991, "pitch": 70, "duration": 6, "velocity": 84}, {"time": 5997, "pitch": 84, "duration": 12, "velocity": 92}, {"time": 6009, "pitch": 82, "duration": 12, "velocity": 93}, {"time": 6021, "pitch": 82, "duration": 12, "velocity": 97}, {"time": 6033, "pitch": 79, "duration": 12, "velocity": 93}, {"time": 6045, "pitch": 82, "duration": 48, "velocity": 106}, {"time": 6093, "pitch": 82, "duration": 51, "velocity": 111}, {"time": 6144, "pitch": 82, "duration": 11, "velocity": 96}, {"time": 6153, "pitch": 80, "duration": 12, "velocity": 86}, {"time": 6165, "pitch": 80, "duration": 12, "velocity": 79}, {"time": 6177, "pitch": 80, "duration": 12, "velocity": 69}, {"time": 6189, "pitch": 80, "duration": 12, "velocity": 78}, {"time": 6201, "pitch": 79, "duration": 12, "velocity": 77}, {"time": 6213, "pitch": 77, "duration": 15, "velocity": 66}, {"time": 6228, "pitch": 75, "duration": 33, "velocity": 57}, {"time": 6261, "pitch": 79, "duration": 7, "velocity": 79}, {"time": 6267, "pitch": 75, "duration": 9, "velocity": 53}, {"time": 6276, "pitch": 77, "duration": 92, "velocity": 63}], "annotations": [{"time": 620, "annotation": {"number": 1, "value": 2}, "group": "control_change"}, {"time": 623, "annotation": {"number": 1, "value": 0}, "group": "control_change"}, {"time": 623, "annotation": {"number": 1, "value": 2}, "group": "control_change"}, {"time": 887, "annotation": {"number": 1, "value": 0}, "group": "control_change"}, {"time": 938, "annotation": {"number": 1, "value": 1}, "group": "control_change"}, {"time": 1033, "annotation": {"number": 1, "value": 0}, "group": "control_change"}, {"time": 1034, "annotation": {"number": 1, "value": 1}, "group": "control_change"}, {"time": 1035, "annotation": {"number": 1, "value": 0}, "group": "control_change"}, {"time": 1036, "annotation": {"number": 1, "value": 1}, "group": "control_change"}, {"time": 1037, "annotation": {"number": 1, "value": 0}, "group": "control_change"}, {"time": 1038, "annotation": {"number": 1, "value": 2}, "group": "control_change"}, {"time": 1039, "annotation": {"number": 1, "value": 0}, "group": "control_change"}, {"time": 1040, "annotation": {"number": 1, "value": 2}, "group": "control_change"}, {"time": 1061, "annotation": {"number": 1, "value": 1}, "group": "control_change"}, {"time": 1061, "annotation": {"number": 1, "value": 2}, "group": "control_change"}, {"time": 1066, "annotation": {"number": 1, "value": 1}, "group": "control_change"}, {"time": 1066, "annotation": {"number": 1, "value": 0}, "group": "control_change"}, {"time": 1069, "annotation": {"number": 1, "value": 2}, "group": "control_change"}, {"time": 1077, "annotation": {"number": 1, "value": 0}, "group": "control_change"}, {"time": 1078, "annotation": {"number": 1, "value": 1}, "group": "control_change"}, {"time": 1079, "annotation": {"number": 1, "value": 2}, "group": "control_change"}, {"time": 1079, "annotation": {"number": 1, "value": 1}, "group": "control_change"}, {"time": 1085, "annotation": {"number": 1, "value": 2}, "group": "control_change"}, {"time": 1104, "annotation": {"number": 1, "value": 0}, "group": "control_change"}, {"time": 1104, "annotation": {"number": 1, "value": 1}, "group": "control_change"}, {"time": 1878, "annotation": {"number": 1, "value": 0}, "group": "control_change"}, {"time": 1905, "annotation": {"number": 1, "value": 1}, "group": "control_change"}, {"time": 1906, "annotation": {"number": 1, "value": 0}, "group": "control_change"}, {"time": 1908, "annotation": {"number": 1, "value": 1}, "group": "control_change"}, {"time": 1910, "annotation": {"number": 1, "value": 0}, "group": "control_change"}, {"time": 1911, "annotation": {"number": 1, "value": 1}, "group": "control_change"}, {"time": 1911, "annotation": {"number": 1, "value": 0}, "group": "control_change"}, {"time": 1913, "annotation": {"number": 1, "value": 0}, "group": "control_change"}, {"time": 1914, "annotation": {"number": 1, "value": 1}, "group": "control_change"}, {"time": 1921, "annotation": {"number": 1, "value": 0}, "group": "control_change"}, {"time": 1921, "annotation": {"number": 1, "value": 1}, "group": "control_change"}, {"time": 2057, "annotation": {"number": 1, "value": 0}, "group": "control_change"}, {"time": 2085, "annotation": {"number": 1, "value": 1}, "group": "control_change"}, {"time": 2086, "annotation": {"number": 1, "value": 0}, "group": "control_change"}, {"time": 2087, "annotation": {"number": 1, "value": 1}, "group": "control_change"}, {"time": 2252, "annotation": {"number": 1, "value": 0}, "group": "control_change"}, {"time": 2252, "annotation": {"number": 1, "value": 1}, "group": "control_change"}, {"time": 2255, "annotation": {"number": 1, "value": 0}, "group": "control_change"}, {"time": 2255, "annotation": {"number": 1, "value": 1}, "group": "control_change"}, {"time": 2256, "annotation": {"number": 1, "value": 0}, "group": "control_change"}, {"time": 2256, "annotation": {"number": 1, "value": 1}, "group": "control_change"}, {"time": 2258, "annotation": {"number": 1, "value": 0}, "group": "control_change"}, {"time": 2259, "annotation": {"number": 1, "value": 1}, "group": "control_change"}, {"time": 2271, "annotation": {"number": 1, "value": 0}, "group": "control_change"}, {"time": 2271, "annotation": {"number": 1, "value": 1}, "group": "control_change"}, {"time": 2320, "annotation": {"number": 1, "value": 0}, "group": "control_change"}, {"time": 2325, "annotation": {"number": 1, "value": 1}, "group": "control_change"}, {"time": 2367, "annotation": {"number": 1, "value": 2}, "group": "control_change"}, {"time": 2407, "annotation": {"number": 1, "value": 1}, "group": "control_change"}, {"time": 2409, "annotation": {"number": 1, "value": 3}, "group": "control_change"}, {"time": 2428, "annotation": {"number": 1, "value": 2}, "group": "control_change"}, {"time": 2429, "annotation": {"number": 1, "value": 3}, "group": "control_change"}, {"time": 2435, "annotation": {"number": 1, "value": 2}, "group": "control_change"}, {"time": 2436, "annotation": {"number": 1, "value": 2}, "group": "control_change"}, {"time": 2469, "annotation": {"number": 1, "value": 3}, "group": "control_change"}, {"time": 2470, "annotation": {"number": 1, "value": 2}, "group": "control_change"}, {"time": 2534, "annotation": {"number": 1, "value": 1}, "group": "control_change"}, {"time": 2701, "annotation": {"number": 1, "value": 0}, "group": "control_change"}, {"time": 2702, "annotation": {"number": 1, "value": 1}, "group": "control_change"}, {"time": 3848, "annotation": {"number": 1, "value": 1}, "group": "control_change"}, {"time": 3850, "annotation": {"number": 1, "value": 3}, "group": "control_change"}, {"time": 3869, "annotation": {"number": 1, "value": 2}, "group": "control_change"}, {"time": 3869, "annotation": {"number": 1, "value": 3}, "group": "control_change"}, {"time": 3876, "annotation": {"number": 1, "value": 2}, "group": "control_change"}, {"time": 3909, "annotation": {"number": 1, "value": 3}, "group": "control_change"}, {"time": 3910, "annotation": {"number": 1, "value": 2}, "group": "control_change"}, {"time": 3974, "annotation": {"number": 1, "value": 1}, "group": "control_change"}, {"time": 4078, "annotation": {"number": 1, "value": 0}, "group": "control_change"}, {"time": 4081, "annotation": {"number": 1, "value": 1}, "group": "control_change"}, {"time": 4081, "annotation": {"number": 1, "value": 0}, "group": "control_change"}, {"time": 4083, "annotation": {"number": 1, "value": 1}, "group": "control_change"}, {"time": 4097, "annotation": {"number": 1, "value": 0}, "group": "control_change"}, {"time": 4098, "annotation": {"number": 1, "value": 1}, "group": "control_change"}, {"time": 4101, "annotation": {"number": 1, "value": 0}, "group": "control_change"}, {"time": 4102, "annotation": {"number": 1, "value": 1}, "group": "control_change"}, {"time": 4102, "annotation": {"number": 1, "value": 0}, "group": "control_change"}, {"time": 4105, "annotation": {"number": 1, "value": 1}, "group": "control_change"}, {"time": 4108, "annotation": {"number": 1, "value": 0}, "group": "control_change"}, {"time": 4108, "annotation": {"number": 1, "value": 1}, "group": "control_change"}, {"time": 4109, "annotation": {"number": 1, "value": 1}, "group": "control_change"}, {"time": 4109, "annotation": {"number": 1, "value": 0}, "group": "control_change"}, {"time": 4110, "annotation": {"number": 1, "value": 1}, "group": "control_change"}, {"time": 4110, "annotation": {"number": 1, "value": 0}, "group": "control_change"}, {"time": 4111, "annotation": {"number": 1, "value": 0}, "group": "control_change"}, {"time": 4111, "annotation": {"number": 1, "value": 1}, "group": "control_change"}, {"time": 4112, "annotation": {"number": 1, "value": 0}, "group": "control_change"}, {"time": 4112, "annotation": {"number": 1, "value": 1}, "group": "control_change"}, {"time": 4115, "annotation": {"number": 1, "value": 0}, "group": "control_change"}, {"time": 4116, "annotation": {"number": 1, "value": 1}, "group": "control_change"}, {"time": 4116, "annotation": {"number": 1, "value": 0}, "group": "control_change"}, {"time": 4117, "annotation": {"number": 1, "value": 1}, "group": "control_change"}, {"time": 4118, "annotation": {"number": 1, "value": 0}, "group": "control_change"}, {"time": 4119, "annotation": {"number": 1, "value": 1}, "group": "control_change"}, {"time": 4119, "annotation": {"number": 1, "value": 0}, "group": "control_change"}, {"time": 4121, "annotation": {"number": 1, "value": 1}, "group": "control_change"}, {"time": 4127, "annotation": {"number": 1, "value": 0}, "group": "control_change"}, {"time": 4127, "annotation": {"number": 1, "value": 1}, "group": "control_change"}, {"time": 4128, "annotation": {"number": 1, "value": 0}, "group": "control_change"}, {"time": 4133, "annotation": {"number": 1, "value": 1}, "group": "control_change"}, {"time": 4133, "annotation": {"number": 1, "value": 0}, "group": "control_change"}, {"time": 4134, "annotation": {"number": 1, "value": 0}, "group": "control_change"}, {"time": 4134, "annotation": {"number": 1, "value": 1}, "group": "control_change"}, {"time": 4135, "annotation": {"number": 1, "value": 0}, "group": "control_change"}, {"time": 4179, "annotation": {"number": 1, "value": 1}, "group": "control_change"}, {"time": 4180, "annotation": {"number": 1, "value": 0}, "group": "control_change"}, {"time": 4251, "annotation": {"number": 1, "value": 1}, "group": "control_change"}, {"time": 4251, "annotation": {"number": 1, "value": 0}, "group": "control_change"}, {"time": 4253, "annotation": {"number": 1, "value": 1}, "group": "control_change"}, {"time": 4254, "annotation": {"number": 1, "value": 0}, "group": "control_change"}, {"time": 4260, "annotation": {"number": 1, "value": 1}, "group": "control_change"}, {"time": 4261, "annotation": {"number": 1, "value": 0}, "group": "control_change"}, {"time": 4264, "annotation": {"number": 1, "value": 1}, "group": "control_change"}, {"time": 4265, "annotation": {"number": 1, "value": 0}, "group": "control_change"}, {"time": 4276, "annotation": {"number": 1, "value": 1}, "group": "control_change"}, {"time": 4277, "annotation": {"number": 1, "value": 0}, "group": "control_change"}, {"time": 4277, "annotation": {"number": 1, "value": 1}, "group": "control_change"}, {"time": 4278, "annotation": {"number": 1, "value": 1}, "group": "control_change"}, {"time": 4279, "annotation": {"number": 1, "value": 0}, "group": "control_change"}, {"time": 4294, "annotation": {"number": 1, "value": 1}, "group": "control_change"}, {"time": 4294, "annotation": {"number": 1, "value": 0}, "group": "control_change"}, {"time": 4295, "annotation": {"number": 1, "value": 0}, "group": "control_change"}, {"time": 4296, "annotation": {"number": 1, "value": 1}, "group": "control_change"}, {"time": 5381, "annotation": {"number": 1, "value": 1}, "group": "control_change"}, {"time": 5384, "annotation": {"number": 1, "value": 3}, "group": "control_change"}, {"time": 5403, "annotation": {"number": 1, "value": 2}, "group": "control_change"}, {"time": 5403, "annotation": {"number": 1, "value": 3}, "group": "control_change"}, {"time": 5410, "annotation": {"number": 1, "value": 2}, "group": "control_change"}, {"time": 5443, "annotation": {"number": 1, "value": 3}, "group": "control_change"}, {"time": 5444, "annotation": {"number": 1, "value": 2}, "group": "control_change"}, {"time": 5508, "annotation": {"number": 1, "value": 1}, "group": "control_change"}, {"time": 5591, "annotation": {"number": 1, "value": 0}, "group": "control_change"}, {"time": 5621, "annotation": {"number": 1, "value": 1}, "group": "control_change"}, {"time": 5710, "annotation": {"number": 1, "value": 0}, "group": "control_change"}, {"time": 5710, "annotation": {"number": 1, "value": 1}, "group": "control_change"}, {"time": 5816, "annotation": {"number": 1, "value": 1}, "group": "control_change"}, {"time": 5993, "annotation": {"number": 1, "value": 0}, "group": "control_change"}, {"time": 5994, "annotation": {"number": 1, "value": 1}, "group": "control_change"}, {"time": 6263, "annotation": {"number": 1, "value": 0}, "group": "control_change"}, {"time": 6264, "annotation": {"number": 1, "value": 1}, "group": "control_change"}, {"time": 6277, "annotation": {"number": 1, "value": 0}, "group": "control_change"}, {"time": 6277, "annotation": {"number": 1, "value": 1}, "group": "control_change"}, {"time": 6278, "annotation": {"number": 1, "value": 0}, "group": "control_change"}, {"time": 6278, "annotation": {"number": 1, "value": 1}, "group": "control_change"}, {"time": 6279, "annotation": {"number": 1, "value": 1}, "group": "control_change"}, {"time": 6281, "annotation": {"number": 1, "value": 0}, "group": "control_change"}, {"time": 6282, "annotation": {"number": 1, "value": 1}, "group": "control_change"}, {"time": 6286, "annotation": {"number": 1, "value": 0}, "group": "control_change"}, {"time": 6287, "annotation": {"number": 1, "value": 1}, "group": "control_change"}, {"time": 6288, "annotation": {"number": 1, "value": 0}, "group": "control_change"}, {"time": 6288, "annotation": {"number": 1, "value": 1}, "group": "control_change"}, {"time": 6289, "annotation": {"number": 1, "value": 0}, "group": "control_change"}, {"time": 6289, "annotation": {"number": 1, "value": 1}, "group": "control_change"}, {"time": 6290, "annotation": {"number": 1, "value": 0}, "group": "control_change"}, {"time": 6291, "annotation": {"number": 1, "value": 1}, "group": "control_change"}, {"time": 6291, "annotation": {"number": 1, "value": 0}, "group": "control_change"}]}, {"program": 0, "is_drum": false, "name": "PIANO", "notes": [{"time": 41, "pitch": 70, "duration": 6, "velocity": 55}, {"time": 43, "pitch": 74, "duration": 20, "velocity": 37}, {"time": 45, "pitch": 56, "duration": 39, "velocity": 53}, {"time": 45, "pitch": 79, "duration": 24, "velocity": 69}, {"time": 69, "pitch": 77, "duration": 14, "velocity": 73}, {"time": 93, "pitch": 51, "duration": 22, "velocity": 68}, {"time": 93, "pitch": 75, "duration": 8, "velocity": 82}, {"time": 105, "pitch": 58, "duration": 11, "velocity": 59}, {"time": 105, "pitch": 75, "duration": 8, "velocity": 76}, {"time": 117, "pitch": 63, "duration": 15, "velocity": 43}, {"time": 117, "pitch": 75, "duration": 11, "velocity": 75}, {"time": 129, "pitch": 65, "duration": 41, "velocity": 60}, {"time": 129, "pitch": 70, "duration": 12, "velocity": 71}, {"time": 141, "pitch": 75, "duration": 13, "velocity": 80}, {"time": 153, "pitch": 77, "duration": 7, "velocity": 76}, {"time": 159, "pitch": 79, "duration": 16, "velocity": 74}, {"time": 165, "pitch": 67, "duration": 5, "velocity": 71}, {"time": 183, "pitch": 65, "duration": 5, "velocity": 63}, {"time": 186, "pitch": 70, "duration": 4, "velocity": 72}, {"time": 189, "pitch": 50, "duration": 38, "velocity": 73}, {"time": 189, "pitch": 74, "duration": 6, "velocity": 84}, {"time": 201, "pitch": 58, "duration": 26, "velocity": 56}, {"time": 201, "pitch": 74, "duration": 9, "velocity": 76}, {"time": 213, "pitch": 62, "duration": 30, "velocity": 58}, {"time": 213, "pitch": 74, "duration": 12, "velocity": 79}, {"time": 225, "pitch": 70, "duration": 13, "velocity": 62}, {"time": 237, "pitch": 65, "duration": 26, "velocity": 52}, {"time": 237, "pitch": 74, "duration": 12, "velocity": 82}, {"time": 249, "pitch": 75, "duration": 6, "velocity": 79}, {"time": 255, "pitch": 77, "duration": 20, "velocity": 82}, {"time": 261, "pitch": 58, "duration": 7, "velocity": 61}, {"time": 285, "pitch": 44, "duration": 11, "velocity": 68}, {"time": 285, "pitch": 68, "duration": 24, "velocity": 69}, {"time": 297, "pitch": 56, "duration": 14, "velocity": 59}, {"time": 309, "pitch": 60, "duration": 52, "velocity": 60}, {"time": 309, "pitch": 79, "duration": 16, "velocity": 76}, {"time": 321, "pitch": 63, "duration": 40, "velocity": 50}, {"time": 321, "pitch": 79, "duration": 4, "velocity": 80}, {"time": 333, "pitch": 80, "duration": 11, "velocity": 83}, {"time": 345, "pitch": 79, "duration": 10, "velocity": 75}, {"time": 357, "pitch": 67, "duration": 15, "velocity": 40}, {"time": 357, "pitch": 77, "duration": 12, "velocity": 79}, {"time": 381, "pitch": 51, "duration": 36, "velocity": 54}, {"time": 381, "pitch": 56, "duration": 35, "velocity": 58}, {"time": 381, "pitch": 60, "duration": 35, "velocity": 49}, {"time": 432, "pitch": 44, "duration": 4, "velocity": 5}, {"time": 477, "pitch": 51, "duration": 81, "velocity": 54}, {"time": 477, "pitch": 67, "duration": 13, "velocity": 26}, {"time": 477, "pitch": 70, "duration": 13, "velocity": 49}, {"time": 477, "pitch": 75, "duration": 13, "velocity": 39}, {"time": 501, "pitch": 67, "duration": 14, "velocity": 53}, {"time": 501, "pitch": 70, "duration": 14, "velocity": 62}, {"time": 501, "pitch": 75, "duration": 12, "velocity": 59}, {"time": 525, "pitch": 67, "duration": 16, "velocity": 57}, {"time": 525, "pitch": 70, "duration": 16, "velocity": 59}, {"time": 525, "pitch": 75, "duration": 17, "velocity": 62}, {"time": 549, "pitch": 67, "duration": 11, "velocity": 61}, {"time": 549, "pitch": 70, "duration": 10, "velocity": 71}, {"time": 549, "pitch": 75, "duration": 9, "velocity": 69}, {"time": 561, "pitch": 51, "duration": 3, "velocity": 71}, {"time": 573, "pitch": 50, "duration": 81, "velocity": 71}, {"time": 573, "pitch": 65, "duration": 13, "velocity": 58}, {"time": 573, "pitch": 70, "duration": 13, "velocity": 62}, {"time": 573, "pitch": 74, "duration": 11, "velocity": 75}, {"time": 597, "pitch": 65, "duration": 11, "velocity": 38}, {"time": 597, "pitch": 70, "duration": 11, "velocity": 52}, {"time": 597, "pitch": 74, "duration": 10, "velocity": 59}, {"time": 621, "pitch": 65, "duration": 33, "velocity": 28}, {"time": 621, "pitch": 70, "duration": 31, "velocity": 41}, {"time": 621, "pitch": 74, "duration": 30, "velocity": 51}, {"time": 669, "pitch": 56, "duration": 49, "velocity": 55}, {"time": 669, "pitch": 63, "duration": 13, "velocity": 48}, {"time": 669, "pitch": 68, "duration": 12, "velocity": 57}, {"time": 669, "pitch": 72, "duration": 13, "velocity": 58}, {"time": 693, "pitch": 63, "duration": 11, "velocity": 47}, {"time": 693, "pitch": 68, "duration": 10, "velocity": 71}, {"time": 693, "pitch": 72, "duration": 12, "velocity": 56}, {"time": 717, "pitch": 63, "duration": 14, "velocity": 32}, {"time": 717, "pitch": 68, "duration": 13, "velocity": 62}, {"time": 717, "pitch": 72, "duration": 13, "velocity": 42}, {"time": 741, "pitch": 63, "duration": 9, "velocity": 56}, {"time": 741, "pitch": 68, "duration": 9, "velocity": 75}, {"time": 741, "pitch": 72, "duration": 10, "velocity": 58}, {"time": 765, "pitch": 55, "duration": 26, "velocity": 58}, {"time": 765, "pitch": 67, "duration": 20, "velocity": 47}, {"time": 765, "pitch": 70, "duration": 26, "velocity": 62}, {"time": 765, "pitch": 74, "duration": 27, "velocity": 59}, {"time": 861, "pitch": 53, "duration": 44, "velocity": 68}, {"time": 861, "pitch": 65, "duration": 11, "velocity": 63}, {"time": 861, "pitch": 68, "duration": 11, "velocity": 76}, {"time": 861, "pitch": 72, "duration": 12, "velocity": 75}, {"time": 885, "pitch": 65, "duration": 11, "velocity": 53}, {"time": 885, "pitch": 68, "duration": 11, "velocity": 72}, {"time": 885, "pitch": 72, "duration": 13, "velocity": 60}, {"time": 909, "pitch": 58, "duration": 41, "velocity": 69}, {"time": 909, "pitch": 63, "duration": 14, "velocity": 63}, {"time": 909, "pitch": 70, "duration": 10, "velocity": 71}, {"time": 909, "pitch": 72, "duration": 14, "velocity": 52}, {"time": 918, "pitch": 68, "duration": 7, "velocity": 2}, {"time": 933, "pitch": 65, "duration": 12, "velocity": 62}, {"time": 933, "pitch": 70, "duration": 12, "velocity": 67}, {"time": 933, "pitch": 74, "duration": 10, "velocity": 72}, {"time": 957, "pitch": 51, "duration": 83, "velocity": 39}, {"time": 957, "pitch": 63, "duration": 30, "velocity": 37}, {"time": 957, "pitch": 67, "duration": 13, "velocity": 55}, {"time": 957, "pitch": 70, "duration": 13, "velocity": 55}, {"time": 957, "pitch": 75, "duration": 14, "velocity": 61}, {"time": 981, "pitch": 67, "duration": 12, "velocity": 58}, {"time": 981, "pitch": 70, "duration": 12, "velocity": 62}, {"time": 981, "pitch": 75, "duration": 14, "velocity": 51}, {"time": 993, "pitch": 63, "duration": 15, "velocity": 42}, {"time": 1005, "pitch": 65, "duration": 10, "velocity": 47}, {"time": 1005, "pitch": 67, "duration": 11, "velocity": 57}, {"time": 1005, "pitch": 70, "duration": 11, "velocity": 67}, {"time": 1005, "pitch": 75, "duration": 12, "velocity": 48}, {"time": 1029, "pitch": 65, "duration": 11, "velocity": 69}, {"time": 1029, "pitch": 67, "duration": 12, "velocity": 73}, {"time": 1029, "pitch": 70, "duration": 12, "velocity": 79}, {"time": 1029, "pitch": 72, "duration": 3, "velocity": 51}, {"time": 1029, "pitch": 75, "duration": 13, "velocity": 73}, {"time": 1041, "pitch": 63, "duration": 2, "velocity": 69}, {"time": 1053, "pitch": 49, "duration": 60, "velocity": 75}, {"time": 1053, "pitch": 61, "duration": 32, "velocity": 63}, {"time": 1053, "pitch": 65, "duration": 19, "velocity": 75}, {"time": 1053, "pitch": 68, "duration": 15, "velocity": 76}, {"time": 1053, "pitch": 73, "duration": 19, "velocity": 80}, {"time": 1077, "pitch": 65, "duration": 12, "velocity": 57}, {"time": 1077, "pitch": 68, "duration": 11, "velocity": 76}, {"time": 1077, "pitch": 73, "duration": 12, "velocity": 71}, {"time": 1089, "pitch": 61, "duration": 21, "velocity": 58}, {"time": 1101, "pitch": 65, "duration": 18, "velocity": 69}, {"time": 1101, "pitch": 68, "duration": 16, "velocity": 78}, {"time": 1101, "pitch": 73, "duration": 17, "velocity": 80}, {"time": 1125, "pitch": 49, "duration": 13, "velocity": 68}, {"time": 1125, "pitch": 61, "duration": 10, "velocity": 58}, {"time": 1125, "pitch": 65, "duration": 10, "velocity": 78}, {"time": 1125, "pitch": 68, "duration": 10, "velocity": 84}, {"time": 1125, "pitch": 73, "duration": 10, "velocity": 81}, {"time": 1137, "pitch": 49, "duration": 1, "velocity": 86}, {"time": 1149, "pitch": 46, "duration": 70, "velocity": 72}, {"time": 1149, "pitch": 74, "duration": 35, "velocity": 73}, {"time": 1149, "pitch": 65, "duration": 35, "velocity": 58}, {"time": 1149, "pitch": 70, "duration": 34, "velocity": 76}, {"time": 1149, "pitch": 58, "duration": 33, "velocity": 56}, {"time": 1149, "pitch": 77, "duration": 35, "velocity": 60}, {"time": 1191, "pitch": 65, "duration": 27, "velocity": 47}, {"time": 1192, "pitch": 70, "duration": 26, "velocity": 53}, {"time": 1195, "pitch": 74, "duration": 22, "velocity": 30}, {"time": 1196, "pitch": 77, "duration": 25, "velocity": 59}, {"time": 1245, "pitch": 39, "duration": 87, "velocity": 95}, {"time": 1245, "pitch": 51, "duration": 79, "velocity": 83}, {"time": 1245, "pitch": 67, "duration": 18, "velocity": 82}, {"time": 1245, "pitch": 70, "duration": 18, "velocity": 86}, {"time": 1245, "pitch": 75, "duration": 19, "velocity": 84}, {"time": 1269, "pitch": 67, "duration": 18, "velocity": 84}, {"time": 1269, "pitch": 70, "duration": 18, "velocity": 90}, {"time": 1269, "pitch": 75, "duration": 18, "velocity": 90}, {"time": 1293, "pitch": 67, "duration": 19, "velocity": 82}, {"time": 1293, "pitch": 70, "duration": 19, "velocity": 86}, {"time": 1293, "pitch": 75, "duration": 19, "velocity": 86}, {"time": 1317, "pitch": 67, "duration": 14, "velocity": 90}, {"time": 1317, "pitch": 70, "duration": 14, "velocity": 90}, {"time": 1317, "pitch": 75, "duration": 13, "velocity": 90}, {"time": 1329, "pitch": 51, "duration": 11, "velocity": 76}, {"time": 1341, "pitch": 50, "duration": 79, "velocity": 90}, {"time": 1341, "pitch": 65, "duration": 19, "velocity": 91}, {"time": 1341, "pitch": 70, "duration": 19, "velocity": 91}, {"time": 1341, "pitch": 74, "duration": 19, "velocity": 84}, {"time": 1341, "pitch": 77, "duration": 18, "velocity": 78}, {"time": 1365, "pitch": 65, "duration": 17, "velocity": 78}, {"time": 1365, "pitch": 70, "duration": 17, "velocity": 84}, {"time": 1365, "pitch": 74, "duration": 18, "velocity": 84}, {"time": 1389, "pitch": 65, "duration": 19, "velocity": 82}, {"time": 1389, "pitch": 70, "duration": 19, "velocity": 90}, {"time": 1389, "pitch": 74, "duration": 19, "velocity": 86}, {"time": 1413, "pitch": 65, "duration": 13, "velocity": 83}, {"time": 1413, "pitch": 70, "duration": 12, "velocity": 90}, {"time": 1413, "pitch": 74, "duration": 13, "velocity": 90}, {"time": 1425, "pitch": 50, "duration": 11, "velocity": 84}, {"time": 1437, "pitch": 44, "duration": 80, "velocity": 98}, {"time": 1437, "pitch": 63, "duration": 19, "velocity": 86}, {"time": 1437, "pitch": 68, "duration": 19, "velocity": 94}, {"time": 1437, "pitch": 72, "duration": 20, "velocity": 84}, {"time": 1461, "pitch": 63, "duration": 18, "velocity": 86}, {"time": 1461, "pitch": 68, "duration": 19, "velocity": 91}, {"time": 1461, "pitch": 72, "duration": 19, "velocity": 82}, {"time": 1485, "pitch": 63, "duration": 20, "velocity": 83}, {"time": 1485, "pitch": 68, "duration": 20, "velocity": 93}, {"time": 1485, "pitch": 72, "duration": 20, "velocity": 80}, {"time": 1509, "pitch": 63, "duration": 14, "velocity": 90}, {"time": 1509, "pitch": 68, "duration": 14, "velocity": 94}, {"time": 1509, "pitch": 72, "duration": 15, "velocity": 84}, {"time": 1521, "pitch": 44, "duration": 10, "velocity": 91}, {"time": 1533, "pitch": 43, "duration": 68, "velocity": 86}, {"time": 1533, "pitch": 65, "duration": 19, "velocity": 86}, {"time": 1533, "pitch": 70, "duration": 19, "velocity": 86}, {"time": 1533, "pitch": 74, "duration": 18, "velocity": 91}, {"time": 1557, "pitch": 65, "duration": 16, "velocity": 84}, {"time": 1557, "pitch": 70, "duration": 16, "velocity": 86}, {"time": 1557, "pitch": 74, "duration": 13, "velocity": 84}, {"time": 1581, "pitch": 65, "duration": 15, "velocity": 84}, {"time": 1581, "pitch": 70, "duration": 13, "velocity": 84}, {"time": 1581, "pitch": 74, "duration": 13, "velocity": 84}, {"time": 1605, "pitch": 42, "duration": 15, "velocity": 84}, {"time": 1605, "pitch": 64, "duration": 14, "velocity": 84}, {"time": 1605, "pitch": 69, "duration": 13, "velocity": 90}, {"time": 1605, "pitch": 73, "duration": 13, "velocity": 79}, {"time": 1629, "pitch": 41, "duration": 48, "velocity": 86}, {"time": 1629, "pitch": 65, "duration": 19, "velocity": 86}, {"time": 1629, "pitch": 68, "duration": 19, "velocity": 86}, {"time": 1629, "pitch": 72, "duration": 19, "velocity": 83}, {"time": 1629, "pitch": 75, "duration": 19, "velocity": 83}, {"time": 1653, "pitch": 65, "duration": 18, "velocity": 83}, {"time": 1653, "pitch": 68, "duration": 18, "velocity": 86}, {"time": 1653, "pitch": 72, "duration": 19, "velocity": 81}, {"time": 1653, "pitch": 75, "duration": 18, "velocity": 84}, {"time": 1677, "pitch": 46, "duration": 33, "velocity": 82}, {"time": 1677, "pitch": 65, "duration": 15, "velocity": 84}, {"time": 1677, "pitch": 68, "duration": 17, "velocity": 90}, {"time": 1677, "pitch": 72, "duration": 17, "velocity": 86}, {"time": 1701, "pitch": 63, "duration": 13, "velocity": 90}, {"time": 1701, "pitch": 68, "duration": 15, "velocity": 93}, {"time": 1701, "pitch": 72, "duration": 15, "velocity": 82}, {"time": 1713, "pitch": 46, "duration": 9, "velocity": 86}, {"time": 1725, "pitch": 39, "duration": 10, "velocity": 90}, {"time": 1725, "pitch": 51, "duration": 16, "velocity": 83}, {"time": 1725, "pitch": 67, "duration": 14, "velocity": 93}, {"time": 1725, "pitch": 70, "duration": 13, "velocity": 93}, {"time": 1725, "pitch": 75, "duration": 12, "velocity": 90}, {"time": 1749, "pitch": 50, "duration": 14, "velocity": 90}, {"time": 1749, "pitch": 65, "duration": 14, "velocity": 91}, {"time": 1749, "pitch": 70, "duration": 14, "velocity": 94}, {"time": 1749, "pitch": 74, "duration": 11, "velocity": 99}, {"time": 1773, "pitch": 48, "duration": 33, "velocity": 86}, {"time": 1773, "pitch": 60, "duration": 29, "velocity": 83}, {"time": 1773, "pitch": 67, "duration": 18, "velocity": 86}, {"time": 1773, "pitch": 72, "duration": 19, "velocity": 86}, {"time": 1773, "pitch": 75, "duration": 18, "velocity": 91}, {"time": 1797, "pitch": 67, "duration": 13, "velocity": 86}, {"time": 1797, "pitch": 72, "duration": 14, "velocity": 90}, {"time": 1797, "pitch": 75, "duration": 9, "velocity": 86}, {"time": 1809, "pitch": 48, "duration": 3, "velocity": 86}, {"time": 1809, "pitch": 60, "duration": 2, "velocity": 74}, {"time": 1821, "pitch": 45, "duration": 78, "velocity": 109}, {"time": 1821, "pitch": 57, "duration": 30, "velocity": 105}, {"time": 1821, "pitch": 65, "duration": 18, "velocity": 90}, {"time": 1821, "pitch": 69, "duration": 18, "velocity": 86}, {"time": 1821, "pitch": 72, "duration": 19, "velocity": 82}, {"time": 1821, "pitch": 75, "duration": 19, "velocity": 91}, {"time": 1845, "pitch": 65, "duration": 13, "velocity": 86}, {"time": 1845, "pitch": 69, "duration": 13, "velocity": 84}, {"time": 1845, "pitch": 72, "duration": 13, "velocity": 75}, {"time": 1845, "pitch": 75, "duration": 13, "velocity": 82}, {"time": 1857, "pitch": 57, "duration": 19, "velocity": 75}, {"time": 1869, "pitch": 65, "duration": 12, "velocity": 90}, {"time": 1869, "pitch": 69, "duration": 13, "velocity": 82}, {"time": 1869, "pitch": 72, "duration": 14, "velocity": 79}, {"time": 1869, "pitch": 75, "duration": 13, "velocity": 79}, {"time": 1881, "pitch": 57, "duration": 18, "velocity": 71}, {"time": 1893, "pitch": 67, "duration": 11, "velocity": 91}, {"time": 1893, "pitch": 69, "duration": 10, "velocity": 98}, {"time": 1893, "pitch": 72, "duration": 10, "velocity": 86}, {"time": 1893, "pitch": 75, "duration": 11, "velocity": 94}, {"time": 1905, "pitch": 45, "duration": 3, "velocity": 84}, {"time": 1917, "pitch": 46, "duration": 36, "velocity": 93}, {"time": 1917, "pitch": 58, "duration": 10, "velocity": 80}, {"time": 1917, "pitch": 63, "duration": 14, "velocity": 101}, {"time": 1917, "pitch": 68, "duration": 18, "velocity": 76}, {"time": 1917, "pitch": 72, "duration": 13, "velocity": 86}, {"time": 1917, "pitch": 75, "duration": 13, "velocity": 82}, {"time": 1932, "pitch": 58, "duration": 13, "velocity": 54}, {"time": 1941, "pitch": 63, "duration": 12, "velocity": 98}, {"time": 1941, "pitch": 68, "duration": 10, "velocity": 101}, {"time": 1941, "pitch": 72, "duration": 12, "velocity": 84}, {"time": 1941, "pitch": 75, "duration": 9, "velocity": 84}, {"time": 1953, "pitch": 58, "duration": 2, "velocity": 90}, {"time": 1965, "pitch": 46, "duration": 17, "velocity": 90}, {"time": 1965, "pitch": 58, "duration": 9, "velocity": 84}, {"time": 1965, "pitch": 65, "duration": 13, "velocity": 86}, {"time": 1965, "pitch": 70, "duration": 13, "velocity": 94}, {"time": 1965, "pitch": 74, "duration": 12, "velocity": 94}, {"time": 1977, "pitch": 58, "duration": 3, "velocity": 72}, {"time": 1989, "pitch": 48, "duration": 11, "velocity": 84}, {"time": 1989, "pitch": 63, "duration": 15, "velocity": 96}, {"time": 1989, "pitch": 68, "duration": 14, "velocity": 94}, {"time": 1989, "pitch": 72, "duration": 16, "velocity": 84}, {"time": 1989, "pitch": 75, "duration": 5, "velocity": 83}, {"time": 2001, "pitch": 50, "duration": 2, "velocity": 98}, {"time": 2013, "pitch": 51, "duration": 40, "velocity": 86}, {"time": 2013, "pitch": 67, "duration": 12, "velocity": 93}, {"time": 2013, "pitch": 70, "duration": 11, "velocity": 95}, {"time": 2013, "pitch": 75, "duration": 11, "velocity": 94}, {"time": 2019, "pitch": 58, "duration": 27, "velocity": 79}, {"time": 2025, "pitch": 63, "duration": 13, "velocity": 80}, {"time": 2031, "pitch": 67, "duration": 4, "velocity": 69}, {"time": 2037, "pitch": 67, "duration": 7, "velocity": 84}, {"time": 2037, "pitch": 70, "duration": 8, "velocity": 91}, {"time": 2037, "pitch": 75, "duration": 8, "velocity": 95}, {"time": 2043, "pitch": 63, "duration": 9, "velocity": 78}, {"time": 2049, "pitch": 67, "duration": 4, "velocity": 78}, {"time": 2049, "pitch": 74, "duration": 4, "velocity": 90}, {"time": 2055, "pitch": 58, "duration": 5, "velocity": 78}, {"time": 2055, "pitch": 67, "duration": 2, "velocity": 72}, {"time": 2055, "pitch": 70, "duration": 20, "velocity": 83}, {"time": 2055, "pitch": 75, "duration": 19, "velocity": 82}, {"time": 2061, "pitch": 51, "duration": 39, "velocity": 91}, {"time": 2067, "pitch": 58, "duration": 34, "velocity": 78}, {"time": 2070, "pitch": 67, "duration": 4, "velocity": 1}, {"time": 2073, "pitch": 63, "duration": 14, "velocity": 80}, {"time": 2079, "pitch": 67, "duration": 4, "velocity": 78}, {"time": 2085, "pitch": 67, "duration": 7, "velocity": 84}, {"time": 2085, "pitch": 70, "duration": 8, "velocity": 90}, {"time": 2085, "pitch": 75, "duration": 8, "velocity": 95}, {"time": 2091, "pitch": 63, "duration": 6, "velocity": 79}, {"time": 2097, "pitch": 67, "duration": 5, "velocity": 82}, {"time": 2097, "pitch": 70, "duration": 1, "velocity": 57}, {"time": 2103, "pitch": 75, "duration": 4, "velocity": 90}, {"time": 2109, "pitch": 50, "duration": 33, "velocity": 95}, {"time": 2109, "pitch": 65, "duration": 13, "velocity": 84}, {"time": 2109, "pitch": 70, "duration": 13, "velocity": 90}, {"time": 2109, "pitch": 74, "duration": 11, "velocity": 86}, {"time": 2115, "pitch": 58, "duration": 19, "velocity": 72}, {"time": 2121, "pitch": 62, "duration": 13, "velocity": 72}, {"time": 2127, "pitch": 65, "duration": 3, "velocity": 76}, {"time": 2133, "pitch": 65, "duration": 8, "velocity": 84}, {"time": 2133, "pitch": 70, "duration": 8, "velocity": 86}, {"time": 2133, "pitch": 74, "duration": 9, "velocity": 90}, {"time": 2139, "pitch": 58, "duration": 2, "velocity": 80}, {"time": 2145, "pitch": 65, "duration": 7, "velocity": 60}, {"time": 2145, "pitch": 72, "duration": 10, "velocity": 81}, {"time": 2151, "pitch": 48, "duration": 5, "velocity": 76}, {"time": 2157, "pitch": 46, "duration": 10, "velocity": 86}, {"time": 2157, "pitch": 65, "duration": 24, "velocity": 84}, {"time": 2157, "pitch": 70, "duration": 22, "velocity": 90}, {"time": 2157, "pitch": 74, "duration": 24, "velocity": 90}, {"time": 2163, "pitch": 53, "duration": 5, "velocity": 78}, {"time": 2169, "pitch": 58, "duration": 6, "velocity": 68}, {"time": 2175, "pitch": 60, "duration": 14, "velocity": 78}, {"time": 2181, "pitch": 62, "duration": 7, "velocity": 81}, {"time": 2187, "pitch": 65, "duration": 4, "velocity": 83}, {"time": 2193, "pitch": 70, "duration": 4, "velocity": 86}, {"time": 2199, "pitch": 70, "duration": 1, "velocity": 54}, {"time": 2199, "pitch": 72, "duration": 5, "velocity": 84}, {"time": 2205, "pitch": 44, "duration": 5, "velocity": 83}, {"time": 2205, "pitch": 63, "duration": 18, "velocity": 86}, {"time": 2205, "pitch": 68, "duration": 18, "velocity": 90}, {"time": 2205, "pitch": 72, "duration": 18, "velocity": 84}, {"time": 2205, "pitch": 75, "duration": 18, "velocity": 84}, {"time": 2211, "pitch": 56, "duration": 6, "velocity": 75}, {"time": 2217, "pitch": 58, "duration": 19, "velocity": 75}, {"time": 2223, "pitch": 60, "duration": 13, "velocity": 79}, {"time": 2229, "pitch": 63, "duration": 4, "velocity": 94}, {"time": 2229, "pitch": 75, "duration": 2, "velocity": 39}, {"time": 2235, "pitch": 63, "duration": 1, "velocity": 23}, {"time": 2235, "pitch": 68, "duration": 4, "velocity": 90}, {"time": 2241, "pitch": 68, "duration": 1, "velocity": 55}, {"time": 2241, "pitch": 70, "duration": 4, "velocity": 82}, {"time": 2247, "pitch": 70, "duration": 1, "velocity": 56}, {"time": 2247, "pitch": 72, "duration": 4, "velocity": 81}, {"time": 2253, "pitch": 44, "duration": 11, "velocity": 91}, {"time": 2253, "pitch": 63, "duration": 26, "velocity": 84}, {"time": 2253, "pitch": 68, "duration": 26, "velocity": 90}, {"time": 2253, "pitch": 75, "duration": 34, "velocity": 98}, {"time": 2259, "pitch": 51, "duration": 6, "velocity": 84}, {"time": 2265, "pitch": 56, "duration": 7, "velocity": 79}, {"time": 2271, "pitch": 58, "duration": 20, "velocity": 78}, {"time": 2277, "pitch": 60, "duration": 13, "velocity": 76}, {"time": 2283, "pitch": 63, "duration": 5, "velocity": 98}, {"time": 2289, "pitch": 63, "duration": 1, "velocity": 31}, {"time": 2289, "pitch": 68, "duration": 5, "velocity": 84}, {"time": 2295, "pitch": 75, "duration": 7, "velocity": 90}, {"time": 2301, "pitch": 46, "duration": 35, "velocity": 90}, {"time": 2301, "pitch": 65, "duration": 14, "velocity": 84}, {"time": 2301, "pitch": 70, "duration": 13, "velocity": 86}, {"time": 2301, "pitch": 74, "duration": 13, "velocity": 91}, {"time": 2313, "pitch": 53, "duration": 11, "velocity": 71}, {"time": 2325, "pitch": 58, "duration": 10, "velocity": 61}, {"time": 2325, "pitch": 63, "duration": 9, "velocity": 83}, {"time": 2325, "pitch": 68, "duration": 10, "velocity": 93}, {"time": 2325, "pitch": 72, "duration": 11, "velocity": 86}, {"time": 2337, "pitch": 53, "duration": 2, "velocity": 94}, {"time": 2343, "pitch": 65, "duration": 2, "velocity": 56}, {"time": 2343, "pitch": 70, "duration": 1, "velocity": 69}, {"time": 2349, "pitch": 46, "duration": 7, "velocity": 91}, {"time": 2349, "pitch": 58, "duration": 7, "velocity": 83}, {"time": 2349, "pitch": 65, "duration": 7, "velocity": 90}, {"time": 2349, "pitch": 70, "duration": 6, "velocity": 90}, {"time": 2349, "pitch": 74, "duration": 9, "velocity": 94}, {"time": 2361, "pitch": 70, "duration": 2, "velocity": 76}, {"time": 2367, "pitch": 48, "duration": 15, "velocity": 84}, {"time": 2367, "pitch": 60, "duration": 15, "velocity": 74}, {"time": 2367, "pitch": 67, "duration": 3, "velocity": 84}, {"time": 2367, "pitch": 70, "duration": 3, "velocity": 98}, {"time": 2367, "pitch": 75, "duration": 3, "velocity": 84}, {"time": 2379, "pitch": 67, "duration": 9, "velocity": 93}, {"time": 2379, "pitch": 70, "duration": 9, "velocity": 96}, {"time": 2379, "pitch": 77, "duration": 8, "velocity": 96}, {"time": 2385, "pitch": 50, "duration": 3, "velocity": 90}, {"time": 2391, "pitch": 74, "duration": 4, "velocity": 83}, {"time": 2397, "pitch": 51, "duration": 10, "velocity": 86}, {"time": 2397, "pitch": 67, "duration": 10, "velocity": 90}, {"time": 2397, "pitch": 70, "duration": 13, "velocity": 90}, {"time": 2397, "pitch": 75, "duration": 23, "velocity": 84}, {"time": 2403, "pitch": 58, "duration": 5, "velocity": 75}, {"time": 2409, "pitch": 63, "duration": 7, "velocity": 84}, {"time": 2415, "pitch": 65, "duration": 13, "velocity": 80}, {"time": 2421, "pitch": 67, "duration": 6, "velocity": 79}, {"time": 2427, "pitch": 70, "duration": 4, "velocity": 79}, {"time": 2433, "pitch": 79, "duration": 5, "velocity": 83}, {"time": 2439, "pitch": 70, "duration": 14, "velocity": 82}, {"time": 2439, "pitch": 77, "duration": 15, "velocity": 91}, {"time": 2439, "pitch": 79, "duration": 1, "velocity": 58}, {"time": 2445, "pitch": 51, "duration": 41, "velocity": 86}, {"time": 2451, "pitch": 58, "duration": 29, "velocity": 79}, {"time": 2457, "pitch": 63, "duration": 14, "velocity": 75}, {"time": 2463, "pitch": 67, "duration": 3, "velocity": 81}, {"time": 2463, "pitch": 70, "duration": 3, "velocity": 79}, {"time": 2463, "pitch": 75, "duration": 4, "velocity": 90}, {"time": 2469, "pitch": 67, "duration": 7, "velocity": 84}, {"time": 2469, "pitch": 70, "duration": 8, "velocity": 90}, {"time": 2469, "pitch": 75, "duration": 9, "velocity": 93}, {"time": 2475, "pitch": 63, "duration": 9, "velocity": 68}, {"time": 2481, "pitch": 65, "duration": 4, "velocity": 93}, {"time": 2481, "pitch": 70, "duration": 4, "velocity": 95}, {"time": 2484, "pitch": 58, "duration": 2, "velocity": 78}, {"time": 2493, "pitch": 46, "duration": 10, "velocity": 90}, {"time": 2493, "pitch": 65, "duration": 24, "velocity": 84}, {"time": 2493, "pitch": 70, "duration": 24, "velocity": 90}, {"time": 2493, "pitch": 74, "duration": 27, "velocity": 90}, {"time": 2499, "pitch": 53, "duration": 6, "velocity": 78}, {"time": 2505, "pitch": 58, "duration": 7, "velocity": 57}, {"time": 2511, "pitch": 60, "duration": 13, "velocity": 73}, {"time": 2517, "pitch": 62, "duration": 6, "velocity": 83}, {"time": 2523, "pitch": 65, "duration": 4, "velocity": 84}, {"time": 2529, "pitch": 70, "duration": 5, "velocity": 84}, {"time": 2535, "pitch": 48, "duration": 5, "velocity": 81}, {"time": 2535, "pitch": 70, "duration": 1, "velocity": 30}, {"time": 2535, "pitch": 72, "duration": 5, "velocity": 79}, {"time": 2541, "pitch": 46, "duration": 9, "velocity": 86}, {"time": 2541, "pitch": 65, "duration": 23, "velocity": 84}, {"time": 2541, "pitch": 70, "duration": 23, "velocity": 84}, {"time": 2541, "pitch": 74, "duration": 24, "velocity": 84}, {"time": 2547, "pitch": 53, "duration": 6, "velocity": 79}, {"time": 2553, "pitch": 58, "duration": 7, "velocity": 72}, {"time": 2559, "pitch": 60, "duration": 9, "velocity": 75}, {"time": 2565, "pitch": 62, "duration": 3, "velocity": 80}, {"time": 2571, "pitch": 65, "duration": 4, "velocity": 83}, {"time": 2577, "pitch": 70, "duration": 4, "velocity": 86}, {"time": 2583, "pitch": 72, "duration": 3, "velocity": 79}, {"time": 2589, "pitch": 44, "duration": 42, "velocity": 90}, {"time": 2589, "pitch": 63, "duration": 19, "velocity": 83}, {"time": 2589, "pitch": 68, "duration": 19, "velocity": 86}, {"time": 2589, "pitch": 75, "duration": 19, "velocity": 95}, {"time": 2601, "pitch": 51, "duration": 23, "velocity": 72}, {"time": 2613, "pitch": 56, "duration": 9, "velocity": 78}, {"time": 2613, "pitch": 63, "duration": 21, "velocity": 95}, {"time": 2613, "pitch": 68, "duration": 17, "velocity": 94}, {"time": 2613, "pitch": 72, "duration": 18, "velocity": 84}, {"time": 2613, "pitch": 75, "duration": 16, "velocity": 84}, {"time": 2625, "pitch": 56, "duration": 8, "velocity": 72}, {"time": 2631, "pitch": 51, "duration": 7, "velocity": 82}, {"time": 2637, "pitch": 44, "duration": 39, "velocity": 83}, {"time": 2637, "pitch": 56, "duration": 18, "velocity": 81}, {"time": 2637, "pitch": 63, "duration": 7, "velocity": 81}, {"time": 2637, "pitch": 68, "duration": 8, "velocity": 90}, {"time": 2637, "pitch": 72, "duration": 9, "velocity": 83}, {"time": 2649, "pitch": 63, "duration": 3, "velocity": 75}, {"time": 2649, "pitch": 70, "duration": 5, "velocity": 80}, {"time": 2655, "pitch": 51, "duration": 2, "velocity": 5}, {"time": 2655, "pitch": 63, "duration": 9, "velocity": 90}, {"time": 2655, "pitch": 68, "duration": 9, "velocity": 91}, {"time": 2655, "pitch": 72, "duration": 8, "velocity": 82}, {"time": 2661, "pitch": 56, "duration": 8, "velocity": 84}, {"time": 2667, "pitch": 63, "duration": 4, "velocity": 86}, {"time": 2673, "pitch": 56, "duration": 4, "velocity": 84}, {"time": 2673, "pitch": 63, "duration": 1, "velocity": 39}, {"time": 2673, "pitch": 68, "duration": 4, "velocity": 86}, {"time": 2679, "pitch": 70, "duration": 4, "velocity": 80}, {"time": 2685, "pitch": 46, "duration": 37, "velocity": 90}, {"time": 2685, "pitch": 65, "duration": 15, "velocity": 84}, {"time": 2685, "pitch": 70, "duration": 16, "velocity": 84}, {"time": 2685, "pitch": 74, "duration": 13, "velocity": 86}, {"time": 2697, "pitch": 53, "duration": 13, "velocity": 79}, {"time": 2709, "pitch": 58, "duration": 13, "velocity": 82}, {"time": 2709, "pitch": 65, "duration": 14, "velocity": 86}, {"time": 2709, "pitch": 70, "duration": 14, "velocity": 84}, {"time": 2709, "pitch": 74, "duration": 11, "velocity": 90}, {"time": 2721, "pitch": 53, "duration": 10, "velocity": 90}, {"time": 2733, "pitch": 46, "duration": 38, "velocity": 91}, {"time": 2733, "pitch": 58, "duration": 41, "velocity": 84}, {"time": 2733, "pitch": 65, "duration": 41, "velocity": 90}, {"time": 2733, "pitch": 70, "duration": 41, "velocity": 86}, {"time": 2733, "pitch": 74, "duration": 38, "velocity": 94}, {"time": 2781, "pitch": 44, "duration": 22, "velocity": 79}, {"time": 2781, "pitch": 56, "duration": 38, "velocity": 62}, {"time": 2781, "pitch": 63, "duration": 17, "velocity": 76}, {"time": 2781, "pitch": 68, "duration": 18, "velocity": 80}, {"time": 2781, "pitch": 72, "duration": 31, "velocity": 73}, {"time": 2781, "pitch": 75, "duration": 36, "velocity": 54}, {"time": 2805, "pitch": 63, "duration": 12, "velocity": 75}, {"time": 2817, "pitch": 68, "duration": 4, "velocity": 84}, {"time": 2829, "pitch": 55, "duration": 46, "velocity": 72}, {"time": 2829, "pitch": 67, "duration": 17, "velocity": 77}, {"time": 2829, "pitch": 70, "duration": 22, "velocity": 80}, {"time": 2829, "pitch": 75, "duration": 5, "velocity": 69}, {"time": 2853, "pitch": 67, "duration": 13, "velocity": 80}, {"time": 2865, "pitch": 70, "duration": 9, "velocity": 80}, {"time": 2877, "pitch": 53, "duration": 81, "velocity": 75}, {"time": 2877, "pitch": 65, "duration": 20, "velocity": 56}, {"time": 2877, "pitch": 68, "duration": 20, "velocity": 72}, {"time": 2877, "pitch": 72, "duration": 25, "velocity": 72}, {"time": 2922, "pitch": 75, "duration": 21, "velocity": 6}, {"time": 2946, "pitch": 75, "duration": 8, "velocity": 51}, {"time": 2970, "pitch": 39, "duration": 3, "velocity": 94}, {"time": 2973, "pitch": 67, "duration": 21, "velocity": 57}, {"time": 2973, "pitch": 70, "duration": 18, "velocity": 83}, {"time": 2973, "pitch": 75, "duration": 16, "velocity": 84}, {"time": 2985, "pitch": 51, "duration": 73, "velocity": 71}, {"time": 2997, "pitch": 58, "duration": 61, "velocity": 80}, {"time": 2997, "pitch": 67, "duration": 12, "velocity": 83}, {"time": 2997, "pitch": 70, "duration": 10, "velocity": 90}, {"time": 2997, "pitch": 75, "duration": 11, "velocity": 90}, {"time": 3009, "pitch": 63, "duration": 19, "velocity": 57}, {"time": 3015, "pitch": 67, "duration": 4, "velocity": 55}, {"time": 3021, "pitch": 67, "duration": 14, "velocity": 84}, {"time": 3021, "pitch": 70, "duration": 18, "velocity": 86}, {"time": 3021, "pitch": 75, "duration": 13, "velocity": 84}, {"time": 3033, "pitch": 63, "duration": 2, "velocity": 50}, {"time": 3039, "pitch": 63, "duration": 8, "velocity": 57}, {"time": 3045, "pitch": 67, "duration": 7, "velocity": 91}, {"time": 3045, "pitch": 70, "duration": 8, "velocity": 86}, {"time": 3045, "pitch": 75, "duration": 8, "velocity": 91}, {"time": 3051, "pitch": 63, "duration": 6, "velocity": 80}, {"time": 3057, "pitch": 67, "duration": 5, "velocity": 78}, {"time": 3057, "pitch": 70, "duration": 1, "velocity": 52}, {"time": 3069, "pitch": 50, "duration": 84, "velocity": 86}, {"time": 3069, "pitch": 62, "duration": 11, "velocity": 79}, {"time": 3069, "pitch": 65, "duration": 15, "velocity": 80}, {"time": 3069, "pitch": 70, "duration": 16, "velocity": 83}, {"time": 3069, "pitch": 74, "duration": 13, "velocity": 82}, {"time": 3081, "pitch": 62, "duration": 12, "velocity": 56}, {"time": 3093, "pitch": 65, "duration": 4, "velocity": 90}, {"time": 3093, "pitch": 70, "duration": 6, "velocity": 86}, {"time": 3093, "pitch": 74, "duration": 8, "velocity": 94}, {"time": 3105, "pitch": 62, "duration": 11, "velocity": 51}, {"time": 3111, "pitch": 74, "duration": 8, "velocity": 80}, {"time": 3111, "pitch": 77, "duration": 7, "velocity": 84}, {"time": 3111, "pitch": 82, "duration": 7, "velocity": 84}, {"time": 3123, "pitch": 62, "duration": 20, "velocity": 73}, {"time": 3129, "pitch": 65, "duration": 4, "velocity": 68}, {"time": 3135, "pitch": 65, "duration": 8, "velocity": 78}, {"time": 3135, "pitch": 70, "duration": 8, "velocity": 80}, {"time": 3135, "pitch": 74, "duration": 9, "velocity": 86}, {"time": 3141, "pitch": 62, "duration": 2, "velocity": 73}, {"time": 3147, "pitch": 65, "duration": 4, "velocity": 79}, {"time": 3153, "pitch": 70, "duration": 7, "velocity": 82}, {"time": 3165, "pitch": 44, "duration": 44, "velocity": 53}, {"time": 3165, "pitch": 56, "duration": 10, "velocity": 78}, {"time": 3165, "pitch": 63, "duration": 14, "velocity": 77}, {"time": 3165, "pitch": 68, "duration": 15, "velocity": 80}, {"time": 3165, "pitch": 72, "duration": 17, "velocity": 59}, {"time": 3165, "pitch": 75, "duration": 17, "velocity": 86}, {"time": 3177, "pitch": 56, "duration": 16, "velocity": 61}, {"time": 3189, "pitch": 63, "duration": 13, "velocity": 86}, {"time": 3189, "pitch": 68, "duration": 14, "velocity": 86}, {"time": 3189, "pitch": 72, "duration": 15, "velocity": 78}, {"time": 3189, "pitch": 75, "duration": 14, "velocity": 81}, {"time": 3201, "pitch": 56, "duration": 8, "velocity": 61}, {"time": 3207, "pitch": 63, "duration": 3, "velocity": 69}, {"time": 3213, "pitch": 44, "duration": 39, "velocity": 82}, {"time": 3213, "pitch": 56, "duration": 5, "velocity": 76}, {"time": 3213, "pitch": 63, "duration": 10, "velocity": 80}, {"time": 3213, "pitch": 68, "duration": 20, "velocity": 83}, {"time": 3213, "pitch": 72, "duration": 10, "velocity": 78}, {"time": 3231, "pitch": 56, "duration": 11, "velocity": 76}, {"time": 3237, "pitch": 63, "duration": 13, "velocity": 84}, {"time": 3237, "pitch": 68, "duration": 14, "velocity": 93}, {"time": 3237, "pitch": 72, "duration": 14, "velocity": 84}, {"time": 3249, "pitch": 56, "duration": 3, "velocity": 80}, {"time": 3261, "pitch": 46, "duration": 21, "velocity": 82}, {"time": 3261, "pitch": 58, "duration": 20, "velocity": 80}, {"time": 3261, "pitch": 65, "duration": 18, "velocity": 84}, {"time": 3261, "pitch": 70, "duration": 19, "velocity": 81}, {"time": 3261, "pitch": 74, "duration": 17, "velocity": 91}, {"time": 3285, "pitch": 65, "duration": 11, "velocity": 90}, {"time": 3285, "pitch": 70, "duration": 13, "velocity": 84}, {"time": 3285, "pitch": 74, "duration": 9, "velocity": 90}, {"time": 3303, "pitch": 43, "duration": 14, "velocity": 83}, {"time": 3303, "pitch": 55, "duration": 12, "velocity": 86}, {"time": 3309, "pitch": 65, "duration": 10, "velocity": 84}, {"time": 3309, "pitch": 70, "duration": 13, "velocity": 90}, {"time": 3309, "pitch": 74, "duration": 13, "velocity": 86}, {"time": 3321, "pitch": 43, "duration": 2, "velocity": 90}, {"time": 3321, "pitch": 55, "duration": 2, "velocity": 93}, {"time": 3333, "pitch": 42, "duration": 16, "velocity": 103}, {"time": 3333, "pitch": 54, "duration": 7, "velocity": 94}, {"time": 3333, "pitch": 64, "duration": 14, "velocity": 86}, {"time": 3333, "pitch": 69, "duration": 12, "velocity": 84}, {"time": 3333, "pitch": 73, "duration": 14, "velocity": 98}, {"time": 3345, "pitch": 54, "duration": 3, "velocity": 84}, {"time": 3357, "pitch": 41, "duration": 46, "velocity": 91}, {"time": 3357, "pitch": 53, "duration": 11, "velocity": 83}, {"time": 3357, "pitch": 63, "duration": 18, "velocity": 90}, {"time": 3357, "pitch": 68, "duration": 18, "velocity": 86}, {"time": 3357, "pitch": 72, "duration": 19, "velocity": 82}, {"time": 3357, "pitch": 75, "duration": 18, "velocity": 80}, {"time": 3375, "pitch": 53, "duration": 16, "velocity": 69}, {"time": 3381, "pitch": 63, "duration": 16, "velocity": 90}, {"time": 3381, "pitch": 68, "duration": 16, "velocity": 86}, {"time": 3381, "pitch": 72, "duration": 20, "velocity": 81}, {"time": 3381, "pitch": 75, "duration": 14, "velocity": 84}, {"time": 3393, "pitch": 53, "duration": 12, "velocity": 26}, {"time": 3405, "pitch": 46, "duration": 38, "velocity": 90}, {"time": 3405, "pitch": 63, "duration": 15, "velocity": 90}, {"time": 3405, "pitch": 68, "duration": 18, "velocity": 94}, {"time": 3405, "pitch": 72, "duration": 18, "velocity": 86}, {"time": 3417, "pitch": 58, "duration": 13, "velocity": 57}, {"time": 3429, "pitch": 65, "duration": 15, "velocity": 84}, {"time": 3429, "pitch": 68, "duration": 1, "velocity": 62}, {"time": 3429, "pitch": 70, "duration": 14, "velocity": 84}, {"time": 3429, "pitch": 74, "duration": 7, "velocity": 81}, {"time": 3441, "pitch": 58, "duration": 2, "velocity": 84}, {"time": 3453, "pitch": 51, "duration": 21, "velocity": 84}, {"time": 3453, "pitch": 67, "duration": 13, "velocity": 94}, {"time": 3453, "pitch": 70, "duration": 13, "velocity": 90}, {"time": 3453, "pitch": 75, "duration": 14, "velocity": 90}, {"time": 3477, "pitch": 50, "duration": 19, "velocity": 82}, {"time": 3477, "pitch": 65, "duration": 12, "velocity": 84}, {"time": 3477, "pitch": 70, "duration": 13, "velocity": 93}, {"time": 3477, "pitch": 74, "duration": 13, "velocity": 93}, {"time": 3489, "pitch": 72, "duration": 5, "velocity": 81}, {"time": 3495, "pitch": 74, "duration": 5, "velocity": 83}, {"time": 3501, "pitch": 48, "duration": 32, "velocity": 84}, {"time": 3501, "pitch": 60, "duration": 31, "velocity": 76}, {"time": 3501, "pitch": 67, "duration": 20, "velocity": 84}, {"time": 3501, "pitch": 70, "duration": 20, "velocity": 90}, {"time": 3501, "pitch": 75, "duration": 19, "velocity": 84}, {"time": 3525, "pitch": 67, "duration": 10, "velocity": 91}, {"time": 3525, "pitch": 70, "duration": 12, "velocity": 95}, {"time": 3525, "pitch": 75, "duration": 9, "velocity": 90}, {"time": 3537, "pitch": 48, "duration": 2, "velocity": 95}, {"time": 3537, "pitch": 60, "duration": 1, "velocity": 73}, {"time": 3549, "pitch": 45, "duration": 36, "velocity": 99}, {"time": 3549, "pitch": 57, "duration": 27, "velocity": 90}, {"time": 3549, "pitch": 65, "duration": 18, "velocity": 90}, {"time": 3549, "pitch": 69, "duration": 18, "velocity": 84}, {"time": 3549, "pitch": 72, "duration": 18, "velocity": 78}, {"time": 3549, "pitch": 75, "duration": 18, "velocity": 86}, {"time": 3573, "pitch": 65, "duration": 13, "velocity": 83}, {"time": 3573, "pitch": 69, "duration": 12, "velocity": 84}, {"time": 3573, "pitch": 72, "duration": 13, "velocity": 79}, {"time": 3573, "pitch": 75, "duration": 13, "velocity": 91}, {"time": 3585, "pitch": 57, "duration": 3, "velocity": 94}, {"time": 3591, "pitch": 65, "duration": 2, "velocity": 63}, {"time": 3597, "pitch": 45, "duration": 40, "velocity": 86}, {"time": 3597, "pitch": 57, "duration": 7, "velocity": 86}, {"time": 3597, "pitch": 65, "duration": 8, "velocity": 83}, {"time": 3597, "pitch": 69, "duration": 11, "velocity": 79}, {"time": 3597, "pitch": 72, "duration": 10, "velocity": 75}, {"time": 3597, "pitch": 75, "duration": 9, "velocity": 86}, {"time": 3609, "pitch": 57, "duration": 7, "velocity": 86}, {"time": 3615, "pitch": 65, "duration": 8, "velocity": 90}, {"time": 3615, "pitch": 75, "duration": 9, "velocity": 94}, {"time": 3621, "pitch": 57, "duration": 8, "velocity": 76}, {"time": 3627, "pitch": 65, "duration": 8, "velocity": 90}, {"time": 3627, "pitch": 72, "duration": 9, "velocity": 86}, {"time": 3627, "pitch": 75, "duration": 1, "velocity": 53}, {"time": 3633, "pitch": 57, "duration": 3, "velocity": 98}, {"time": 3645, "pitch": 46, "duration": 42, "velocity": 84}, {"time": 3645, "pitch": 58, "duration": 7, "velocity": 84}, {"time": 3645, "pitch": 63, "duration": 14, "velocity": 93}, {"time": 3645, "pitch": 68, "duration": 13, "velocity": 94}, {"time": 3645, "pitch": 72, "duration": 12, "velocity": 86}, {"time": 3645, "pitch": 75, "duration": 11, "velocity": 53}, {"time": 3657, "pitch": 58, "duration": 15, "velocity": 79}, {"time": 3663, "pitch": 63, "duration": 3, "velocity": 84}, {"time": 3669, "pitch": 63, "duration": 7, "velocity": 90}, {"time": 3669, "pitch": 68, "duration": 7, "velocity": 95}, {"time": 3669, "pitch": 72, "duration": 9, "velocity": 90}, {"time": 3675, "pitch": 58, "duration": 12, "velocity": 73}, {"time": 3681, "pitch": 63, "duration": 6, "velocity": 86}, {"time": 3687, "pitch": 53, "duration": 4, "velocity": 83}, {"time": 3687, "pitch": 68, "duration": 4, "velocity": 82}, {"time": 3693, "pitch": 46, "duration": 37, "velocity": 90}, {"time": 3693, "pitch": 65, "duration": 7, "velocity": 90}, {"time": 3693, "pitch": 70, "duration": 8, "velocity": 86}, {"time": 3693, "pitch": 74, "duration": 5, "velocity": 90}, {"time": 3699, "pitch": 58, "duration": 13, "velocity": 71}, {"time": 3705, "pitch": 65, "duration": 3, "velocity": 80}, {"time": 3711, "pitch": 67, "duration": 6, "velocity": 90}, {"time": 3711, "pitch": 70, "duration": 6, "velocity": 90}, {"time": 3711, "pitch": 75, "duration": 6, "velocity": 84}, {"time": 3717, "pitch": 58, "duration": 7, "velocity": 76}, {"time": 3723, "pitch": 68, "duration": 3, "velocity": 86}, {"time": 3723, "pitch": 77, "duration": 4, "velocity": 100}, {"time": 3729, "pitch": 58, "duration": 3, "velocity": 91}, {"time": 3741, "pitch": 46, "duration": 38, "velocity": 84}, {"time": 3741, "pitch": 58, "duration": 9, "velocity": 81}, {"time": 3741, "pitch": 65, "duration": 7, "velocity": 84}, {"time": 3741, "pitch": 70, "duration": 8, "velocity": 86}, {"time": 3741, "pitch": 74, "duration": 8, "velocity": 96}, {"time": 3753, "pitch": 58, "duration": 6, "velocity": 80}, {"time": 3753, "pitch": 65, "duration": 7, "velocity": 76}, {"time": 3753, "pitch": 72, "duration": 9, "velocity": 83}, {"time": 3765, "pitch": 58, "duration": 6, "velocity": 80}, {"time": 3765, "pitch": 65, "duration": 6, "velocity": 86}, {"time": 3765, "pitch": 70, "duration": 2, "velocity": 84}, {"time": 3765, "pitch": 74, "duration": 9, "velocity": 90}, {"time": 3777, "pitch": 58, "duration": 3, "velocity": 86}, {"time": 3777, "pitch": 65, "duration": 2, "velocity": 86}, {"time": 3777, "pitch": 70, "duration": 2, "velocity": 94}, {"time": 3777, "pitch": 75, "duration": 3, "velocity": 93}, {"time": 3783, "pitch": 58, "duration": 1, "velocity": 52}, {"time": 3789, "pitch": 46, "duration": 6, "velocity": 90}, {"time": 3789, "pitch": 58, "duration": 6, "velocity": 91}, {"time": 3789, "pitch": 65, "duration": 4, "velocity": 99}, {"time": 3789, "pitch": 77, "duration": 5, "velocity": 95}, {"time": 3801, "pitch": 46, "duration": 6, "velocity": 86}, {"time": 3801, "pitch": 58, "duration": 6, "velocity": 83}, {"time": 3801, "pitch": 67, "duration": 2, "velocity": 98}, {"time": 3813, "pitch": 46, "duration": 5, "velocity": 91}, {"time": 3813, "pitch": 58, "duration": 3, "velocity": 86}, {"time": 3813, "pitch": 68, "duration": 1, "velocity": 99}, {"time": 3813, "pitch": 80, "duration": 2, "velocity": 100}, {"time": 3819, "pitch": 34, "duration": 4, "velocity": 97}, {"time": 3825, "pitch": 46, "duration": 2, "velocity": 103}, {"time": 3825, "pitch": 58, "duration": 1, "velocity": 74}, {"time": 3825, "pitch": 70, "duration": 2, "velocity": 94}, {"time": 3825, "pitch": 82, "duration": 2, "velocity": 84}, {"time": 3831, "pitch": 34, "duration": 4, "velocity": 97}, {"time": 3837, "pitch": 39, "duration": 4, "velocity": 98}, {"time": 3837, "pitch": 70, "duration": 12, "velocity": 86}, {"time": 3837, "pitch": 75, "duration": 10, "velocity": 95}, {"time": 3837, "pitch": 79, "duration": 11, "velocity": 93}, {"time": 3849, "pitch": 51, "duration": 31, "velocity": 79}, {"time": 3855, "pitch": 58, "duration": 10, "velocity": 75}, {"time": 3861, "pitch": 63, "duration": 17, "velocity": 94}, {"time": 3861, "pitch": 67, "duration": 7, "velocity": 90}, {"time": 3861, "pitch": 70, "duration": 8, "velocity": 86}, {"time": 3861, "pitch": 75, "duration": 10, "velocity": 94}, {"time": 3873, "pitch": 65, "duration": 2, "velocity": 94}, {"time": 3873, "pitch": 74, "duration": 4, "velocity": 86}, {"time": 3879, "pitch": 58, "duration": 2, "velocity": 69}, {"time": 3879, "pitch": 67, "duration": 17, "velocity": 93}, {"time": 3879, "pitch": 70, "duration": 14, "velocity": 84}, {"time": 3879, "pitch": 75, "duration": 18, "velocity": 93}, {"time": 3885, "pitch": 51, "duration": 38, "velocity": 95}, {"time": 3891, "pitch": 58, "duration": 25, "velocity": 79}, {"time": 3897, "pitch": 63, "duration": 21, "velocity": 91}, {"time": 3903, "pitch": 65, "duration": 3, "velocity": 84}, {"time": 3903, "pitch": 70, "duration": 4, "velocity": 84}, {"time": 3909, "pitch": 67, "duration": 2, "velocity": 79}, {"time": 3909, "pitch": 72, "duration": 4, "velocity": 83}, {"time": 3915, "pitch": 67, "duration": 4, "velocity": 84}, {"time": 3915, "pitch": 74, "duration": 5, "velocity": 98}, {"time": 3921, "pitch": 58, "duration": 3, "velocity": 82}, {"time": 3921, "pitch": 67, "duration": 2, "velocity": 76}, {"time": 3921, "pitch": 70, "duration": 6, "velocity": 80}, {"time": 3921, "pitch": 75, "duration": 3, "velocity": 90}, {"time": 3927, "pitch": 77, "duration": 4, "velocity": 93}, {"time": 3933, "pitch": 46, "duration": 10, "velocity": 86}, {"time": 3933, "pitch": 65, "duration": 18, "velocity": 84}, {"time": 3933, "pitch": 70, "duration": 18, "velocity": 91}, {"time": 3933, "pitch": 74, "duration": 21, "velocity": 96}, {"time": 3933, "pitch": 77, "duration": 1, "velocity": 75}, {"time": 3939, "pitch": 53, "duration": 5, "velocity": 80}, {"time": 3945, "pitch": 58, "duration": 7, "velocity": 68}, {"time": 3951, "pitch": 60, "duration": 8, "velocity": 78}, {"time": 3957, "pitch": 62, "duration": 3, "velocity": 93}, {"time": 3963, "pitch": 65, "duration": 4, "velocity": 83}, {"time": 3969, "pitch": 70, "duration": 3, "velocity": 80}, {"time": 3975, "pitch": 65, "duration": 8, "velocity": 84}, {"time": 3975, "pitch": 70, "duration": 12, "velocity": 83}, {"time": 3975, "pitch": 77, "duration": 9, "velocity": 94}, {"time": 3981, "pitch": 46, "duration": 39, "velocity": 84}, {"time": 3987, "pitch": 53, "duration": 27, "velocity": 80}, {"time": 3993, "pitch": 58, "duration": 6, "velocity": 84}, {"time": 3999, "pitch": 67, "duration": 3, "velocity": 86}, {"time": 3999, "pitch": 75, "duration": 4, "velocity": 98}, {"time": 4005, "pitch": 58, "duration": 6, "velocity": 80}, {"time": 4011, "pitch": 65, "duration": 4, "velocity": 91}, {"time": 4011, "pitch": 74, "duration": 3, "velocity": 96}, {"time": 4017, "pitch": 53, "duration": 3, "velocity": 56}, {"time": 4017, "pitch": 58, "duration": 2, "velocity": 84}, {"time": 4017, "pitch": 65, "duration": 1, "velocity": 27}, {"time": 4023, "pitch": 70, "duration": 4, "velocity": 90}, {"time": 4029, "pitch": 44, "duration": 9, "velocity": 84}, {"time": 4029, "pitch": 70, "duration": 2, "velocity": 91}, {"time": 4032, "pitch": 72, "duration": 24, "velocity": 84}, {"time": 4035, "pitch": 51, "duration": 5, "velocity": 83}, {"time": 4041, "pitch": 56, "duration": 7, "velocity": 83}, {"time": 4047, "pitch": 58, "duration": 13, "velocity": 75}, {"time": 4053, "pitch": 60, "duration": 7, "velocity": 86}, {"time": 4059, "pitch": 63, "duration": 4, "velocity": 99}, {"time": 4065, "pitch": 68, "duration": 4, "velocity": 93}, {"time": 4071, "pitch": 70, "duration": 5, "velocity": 84}, {"time": 4077, "pitch": 44, "duration": 9, "velocity": 91}, {"time": 4077, "pitch": 63, "duration": 8, "velocity": 82}, {"time": 4077, "pitch": 68, "duration": 8, "velocity": 79}, {"time": 4077, "pitch": 72, "duration": 10, "velocity": 96}, {"time": 4083, "pitch": 51, "duration": 6, "velocity": 80}, {"time": 4089, "pitch": 56, "duration": 6, "velocity": 84}, {"time": 4095, "pitch": 58, "duration": 13, "velocity": 79}, {"time": 4101, "pitch": 60, "duration": 14, "velocity": 82}, {"time": 4107, "pitch": 72, "duration": 3, "velocity": 91}, {"time": 4107, "pitch": 80, "duration": 7, "velocity": 96}, {"time": 4113, "pitch": 58, "duration": 4, "velocity": 83}, {"time": 4113, "pitch": 70, "duration": 7, "velocity": 86}, {"time": 4113, "pitch": 79, "duration": 6, "velocity": 83}, {"time": 4119, "pitch": 75, "duration": 5, "velocity": 94}, {"time": 4125, "pitch": 46, "duration": 38, "velocity": 86}, {"time": 4125, "pitch": 70, "duration": 10, "velocity": 90}, {"time": 4125, "pitch": 77, "duration": 9, "velocity": 95}, {"time": 4131, "pitch": 53, "duration": 36, "velocity": 83}, {"time": 4137, "pitch": 58, "duration": 26, "velocity": 90}, {"time": 4173, "pitch": 44, "duration": 14, "velocity": 91}, {"time": 4173, "pitch": 63, "duration": 7, "velocity": 95}, {"time": 4173, "pitch": 68, "duration": 8, "velocity": 84}, {"time": 4173, "pitch": 72, "duration": 8, "velocity": 86}, {"time": 4179, "pitch": 56, "duration": 7, "velocity": 76}, {"time": 4185, "pitch": 63, "duration": 4, "velocity": 86}, {"time": 4191, "pitch": 68, "duration": 4, "velocity": 91}, {"time": 4197, "pitch": 43, "duration": 12, "velocity": 96}, {"time": 4197, "pitch": 65, "duration": 1, "velocity": 75}, {"time": 4197, "pitch": 67, "duration": 8, "velocity": 90}, {"time": 4197, "pitch": 71, "duration": 9, "velocity": 95}, {"time": 4197, "pitch": 74, "duration": 8, "velocity": 99}, {"time": 4203, "pitch": 55, "duration": 9, "velocity": 90}, {"time": 4209, "pitch": 67, "duration": 7, "velocity": 93}, {"time": 4215, "pitch": 72, "duration": 4, "velocity": 82}, {"time": 4221, "pitch": 48, "duration": 12, "velocity": 94}, {"time": 4221, "pitch": 67, "duration": 9, "velocity": 98}, {"time": 4221, "pitch": 75, "duration": 10, "velocity": 91}, {"time": 4227, "pitch": 55, "duration": 6, "velocity": 84}, {"time": 4233, "pitch": 60, "duration": 7, "velocity": 84}, {"time": 4233, "pitch": 67, "duration": 3, "velocity": 84}, {"time": 4233, "pitch": 74, "duration": 5, "velocity": 90}, {"time": 4239, "pitch": 62, "duration": 10, "velocity": 83}, {"time": 4239, "pitch": 67, "duration": 4, "velocity": 90}, {"time": 4239, "pitch": 75, "duration": 4, "velocity": 86}, {"time": 4245, "pitch": 63, "duration": 13, "velocity": 84}, {"time": 4245, "pitch": 67, "duration": 4, "velocity": 86}, {"time": 4245, "pitch": 75, "duration": 4, "velocity": 96}, {"time": 4251, "pitch": 67, "duration": 2, "velocity": 72}, {"time": 4251, "pitch": 75, "duration": 3, "velocity": 78}, {"time": 4257, "pitch": 62, "duration": 3, "velocity": 84}, {"time": 4257, "pitch": 67, "duration": 3, "velocity": 84}, {"time": 4257, "pitch": 74, "duration": 4, "velocity": 93}, {"time": 4263, "pitch": 67, "duration": 15, "velocity": 91}, {"time": 4263, "pitch": 75, "duration": 13, "velocity": 93}, {"time": 4269, "pitch": 48, "duration": 40, "velocity": 84}, {"time": 4275, "pitch": 55, "duration": 26, "velocity": 83}, {"time": 4281, "pitch": 60, "duration": 12, "velocity": 84}, {"time": 4287, "pitch": 63, "duration": 2, "velocity": 84}, {"time": 4287, "pitch": 67, "duration": 2, "velocity": 84}, {"time": 4287, "pitch": 72, "duration": 2, "velocity": 82}, {"time": 4293, "pitch": 63, "duration": 6, "velocity": 84}, {"time": 4293, "pitch": 67, "duration": 10, "velocity": 86}, {"time": 4293, "pitch": 72, "duration": 6, "velocity": 84}, {"time": 4296, "pitch": 60, "duration": 12, "velocity": 75}, {"time": 4305, "pitch": 62, "duration": 4, "velocity": 84}, {"time": 4305, "pitch": 70, "duration": 5, "velocity": 90}, {"time": 4311, "pitch": 55, "duration": 3, "velocity": 84}, {"time": 4311, "pitch": 67, "duration": 2, "velocity": 82}, {"time": 4311, "pitch": 72, "duration": 3, "velocity": 84}, {"time": 4317, "pitch": 43, "duration": 5, "velocity": 91}, {"time": 4317, "pitch": 67, "duration": 20, "velocity": 93}, {"time": 4317, "pitch": 70, "duration": 22, "velocity": 95}, {"time": 4323, "pitch": 55, "duration": 7, "velocity": 80}, {"time": 4329, "pitch": 58, "duration": 21, "velocity": 79}, {"time": 4335, "pitch": 62, "duration": 13, "velocity": 83}, {"time": 4341, "pitch": 65, "duration": 7, "velocity": 93}, {"time": 4347, "pitch": 67, "duration": 4, "velocity": 86}, {"time": 4353, "pitch": 70, "duration": 4, "velocity": 84}, {"time": 4359, "pitch": 72, "duration": 5, "velocity": 83}, {"time": 4365, "pitch": 43, "duration": 38, "velocity": 86}, {"time": 4365, "pitch": 65, "duration": 9, "velocity": 83}, {"time": 4365, "pitch": 70, "duration": 8, "velocity": 86}, {"time": 4365, "pitch": 74, "duration": 7, "velocity": 91}, {"time": 4371, "pitch": 50, "duration": 33, "velocity": 84}, {"time": 4377, "pitch": 55, "duration": 6, "velocity": 83}, {"time": 4383, "pitch": 62, "duration": 8, "velocity": 94}, {"time": 4383, "pitch": 65, "duration": 8, "velocity": 91}, {"time": 4383, "pitch": 70, "duration": 8, "velocity": 84}, {"time": 4389, "pitch": 55, "duration": 15, "velocity": 90}, {"time": 4395, "pitch": 62, "duration": 4, "velocity": 91}, {"time": 4401, "pitch": 65, "duration": 4, "velocity": 93}, {"time": 4407, "pitch": 67, "duration": 3, "velocity": 80}, {"time": 4413, "pitch": 44, "duration": 39, "velocity": 84}, {"time": 4413, "pitch": 56, "duration": 11, "velocity": 90}, {"time": 4413, "pitch": 60, "duration": 20, "velocity": 95}, {"time": 4413, "pitch": 63, "duration": 16, "velocity": 98}, {"time": 4413, "pitch": 68, "duration": 16, "velocity": 84}, {"time": 4425, "pitch": 56, "duration": 17, "velocity": 79}, {"time": 4437, "pitch": 60, "duration": 12, "velocity": 86}, {"time": 4437, "pitch": 63, "duration": 15, "velocity": 93}, {"time": 4437, "pitch": 68, "duration": 15, "velocity": 93}, {"time": 4443, "pitch": 51, "duration": 17, "velocity": 80}, {"time": 4449, "pitch": 56, "duration": 6, "velocity": 83}, {"time": 4455, "pitch": 60, "duration": 4, "velocity": 81}, {"time": 4461, "pitch": 44, "duration": 34, "velocity": 94}, {"time": 4461, "pitch": 60, "duration": 13, "velocity": 83}, {"time": 4461, "pitch": 63, "duration": 13, "velocity": 94}, {"time": 4461, "pitch": 68, "duration": 12, "velocity": 90}, {"time": 4467, "pitch": 51, "duration": 27, "velocity": 83}, {"time": 4473, "pitch": 56, "duration": 13, "velocity": 83}, {"time": 4479, "pitch": 60, "duration": 4, "velocity": 83}, {"time": 4485, "pitch": 60, "duration": 9, "velocity": 83}, {"time": 4485, "pitch": 63, "duration": 22, "velocity": 93}, {"time": 4485, "pitch": 68, "duration": 22, "velocity": 91}, {"time": 4491, "pitch": 56, "duration": 9, "velocity": 95}, {"time": 4497, "pitch": 51, "duration": 7, "velocity": 94}, {"time": 4503, "pitch": 47, "duration": 2, "velocity": 76}, {"time": 4509, "pitch": 46, "duration": 39, "velocity": 94}, {"time": 4515, "pitch": 53, "duration": 37, "velocity": 84}, {"time": 4521, "pitch": 58, "duration": 14, "velocity": 91}, {"time": 4527, "pitch": 63, "duration": 4, "velocity": 93}, {"time": 4533, "pitch": 65, "duration": 8, "velocity": 93}, {"time": 4539, "pitch": 58, "duration": 10, "velocity": 78}, {"time": 4545, "pitch": 63, "duration": 3, "velocity": 94}, {"time": 4551, "pitch": 60, "duration": 9, "velocity": 86}, {"time": 4551, "pitch": 63, "duration": 9, "velocity": 94}, {"time": 4551, "pitch": 68, "duration": 9, "velocity": 90}, {"time": 4557, "pitch": 46, "duration": 34, "velocity": 84}, {"time": 4563, "pitch": 62, "duration": 13, "velocity": 96}, {"time": 4563, "pitch": 70, "duration": 10, "velocity": 96}, {"time": 4569, "pitch": 53, "duration": 23, "velocity": 83}, {"time": 4575, "pitch": 58, "duration": 14, "velocity": 83}, {"time": 4581, "pitch": 60, "duration": 15, "velocity": 86}, {"time": 4581, "pitch": 63, "duration": 12, "velocity": 94}, {"time": 4581, "pitch": 68, "duration": 16, "velocity": 86}, {"time": 4593, "pitch": 50, "duration": 3, "velocity": 95}, {"time": 4605, "pitch": 56, "duration": 49, "velocity": 80}, {"time": 4605, "pitch": 63, "duration": 18, "velocity": 82}, {"time": 4605, "pitch": 68, "duration": 19, "velocity": 84}, {"time": 4605, "pitch": 72, "duration": 20, "velocity": 77}, {"time": 4629, "pitch": 63, "duration": 8, "velocity": 75}, {"time": 4635, "pitch": 68, "duration": 4, "velocity": 80}, {"time": 4641, "pitch": 70, "duration": 6, "velocity": 75}, {"time": 4647, "pitch": 72, "duration": 6, "velocity": 72}, {"time": 4653, "pitch": 55, "duration": 35, "velocity": 78}, {"time": 4653, "pitch": 65, "duration": 29, "velocity": 79}, {"time": 4653, "pitch": 70, "duration": 29, "velocity": 80}, {"time": 4701, "pitch": 53, "duration": 79, "velocity": 73}, {"time": 4701, "pitch": 65, "duration": 20, "velocity": 76}, {"time": 4701, "pitch": 69, "duration": 20, "velocity": 83}, {"time": 4701, "pitch": 72, "duration": 21, "velocity": 74}, {"time": 4749, "pitch": 77, "duration": 3, "velocity": 55}, {"time": 4749, "pitch": 89, "duration": 4, "velocity": 60}, {"time": 4797, "pitch": 56, "duration": 42, "velocity": 79}, {"time": 4803, "pitch": 63, "duration": 35, "velocity": 73}, {"time": 4809, "pitch": 68, "duration": 8, "velocity": 57}, {"time": 4815, "pitch": 72, "duration": 7, "velocity": 71}, {"time": 4821, "pitch": 80, "duration": 6, "velocity": 80}, {"time": 4827, "pitch": 75, "duration": 5, "velocity": 73}, {"time": 4833, "pitch": 72, "duration": 17, "velocity": 73}, {"time": 4839, "pitch": 68, "duration": 12, "velocity": 75}, {"time": 4845, "pitch": 55, "duration": 39, "velocity": 79}, {"time": 4851, "pitch": 62, "duration": 33, "velocity": 76}, {"time": 4857, "pitch": 65, "duration": 7, "velocity": 44}, {"time": 4863, "pitch": 70, "duration": 7, "velocity": 71}, {"time": 4869, "pitch": 77, "duration": 6, "velocity": 79}, {"time": 4875, "pitch": 74, "duration": 6, "velocity": 80}, {"time": 4881, "pitch": 70, "duration": 16, "velocity": 72}, {"time": 4887, "pitch": 65, "duration": 10, "velocity": 63}, {"time": 4893, "pitch": 41, "duration": 85, "velocity": 79}, {"time": 4893, "pitch": 53, "duration": 85, "velocity": 76}, {"time": 4893, "pitch": 65, "duration": 4, "velocity": 76}, {"time": 4893, "pitch": 69, "duration": 28, "velocity": 84}, {"time": 4893, "pitch": 72, "duration": 28, "velocity": 82}, {"time": 4893, "pitch": 77, "duration": 30, "velocity": 83}, {"time": 4938, "pitch": 77, "duration": 41, "velocity": 73}, {"time": 4941, "pitch": 81, "duration": 40, "velocity": 84}, {"time": 4941, "pitch": 89, "duration": 38, "velocity": 83}, {"time": 4989, "pitch": 39, "duration": 47, "velocity": 100}, {"time": 4989, "pitch": 51, "duration": 14, "velocity": 94}, {"time": 4989, "pitch": 67, "duration": 20, "velocity": 84}, {"time": 4989, "pitch": 70, "duration": 23, "velocity": 93}, {"time": 4989, "pitch": 75, "duration": 19, "velocity": 99}, {"time": 5001, "pitch": 51, "duration": 2, "velocity": 55}, {"time": 5013, "pitch": 67, "duration": 12, "velocity": 84}, {"time": 5013, "pitch": 70, "duration": 11, "velocity": 90}, {"time": 5013, "pitch": 75, "duration": 12, "velocity": 93}, {"time": 5025, "pitch": 51, "duration": 10, "velocity": 61}, {"time": 5031, "pitch": 67, "duration": 3, "velocity": 60}, {"time": 5037, "pitch": 39, "duration": 36, "velocity": 90}, {"time": 5037, "pitch": 67, "duration": 6, "velocity": 83}, {"time": 5037, "pitch": 70, "duration": 7, "velocity": 82}, {"time": 5037, "pitch": 75, "duration": 7, "velocity": 84}, {"time": 5043, "pitch": 51, "duration": 13, "velocity": 59}, {"time": 5049, "pitch": 65, "duration": 2, "velocity": 78}, {"time": 5049, "pitch": 74, "duration": 4, "velocity": 83}, {"time": 5055, "pitch": 67, "duration": 7, "velocity": 91}, {"time": 5055, "pitch": 70, "duration": 8, "velocity": 90}, {"time": 5055, "pitch": 75, "duration": 7, "velocity": 80}, {"time": 5061, "pitch": 51, "duration": 8, "velocity": 81}, {"time": 5067, "pitch": 67, "duration": 8, "velocity": 90}, {"time": 5067, "pitch": 74, "duration": 7, "velocity": 100}, {"time": 5073, "pitch": 51, "duration": 2, "velocity": 84}, {"time": 5079, "pitch": 77, "duration": 3, "velocity": 73}, {"time": 5085, "pitch": 50, "duration": 39, "velocity": 95}, {"time": 5085, "pitch": 65, "duration": 14, "velocity": 90}, {"time": 5085, "pitch": 70, "duration": 12, "velocity": 90}, {"time": 5085, "pitch": 77, "duration": 12, "velocity": 86}, {"time": 5091, "pitch": 58, "duration": 40, "velocity": 78}, {"time": 5097, "pitch": 62, "duration": 7, "velocity": 80}, {"time": 5103, "pitch": 65, "duration": 8, "velocity": 86}, {"time": 5103, "pitch": 70, "duration": 13, "velocity": 91}, {"time": 5115, "pitch": 62, "duration": 10, "velocity": 82}, {"time": 5121, "pitch": 65, "duration": 1, "velocity": 39}, {"time": 5121, "pitch": 72, "duration": 5, "velocity": 84}, {"time": 5127, "pitch": 65, "duration": 1, "velocity": 37}, {"time": 5127, "pitch": 74, "duration": 4, "velocity": 83}, {"time": 5133, "pitch": 50, "duration": 19, "velocity": 90}, {"time": 5133, "pitch": 65, "duration": 13, "velocity": 82}, {"time": 5133, "pitch": 70, "duration": 12, "velocity": 83}, {"time": 5133, "pitch": 77, "duration": 11, "velocity": 84}, {"time": 5142, "pitch": 58, "duration": 13, "velocity": 76}, {"time": 5154, "pitch": 50, "duration": 8, "velocity": 33}, {"time": 5154, "pitch": 62, "duration": 15, "velocity": 79}, {"time": 5154, "pitch": 67, "duration": 16, "velocity": 82}, {"time": 5154, "pitch": 70, "duration": 17, "velocity": 83}, {"time": 5154, "pitch": 75, "duration": 17, "velocity": 84}, {"time": 5169, "pitch": 58, "duration": 2, "velocity": 90}, {"time": 5181, "pitch": 48, "duration": 40, "velocity": 90}, {"time": 5181, "pitch": 67, "duration": 20, "velocity": 90}, {"time": 5181, "pitch": 70, "duration": 15, "velocity": 93}, {"time": 5181, "pitch": 75, "duration": 19, "velocity": 90}, {"time": 5193, "pitch": 55, "duration": 34, "velocity": 75}, {"time": 5199, "pitch": 60, "duration": 13, "velocity": 78}, {"time": 5205, "pitch": 67, "duration": 3, "velocity": 83}, {"time": 5205, "pitch": 75, "duration": 3, "velocity": 84}, {"time": 5211, "pitch": 65, "duration": 4, "velocity": 80}, {"time": 5211, "pitch": 74, "duration": 8, "velocity": 84}, {"time": 5217, "pitch": 60, "duration": 6, "velocity": 68}, {"time": 5223, "pitch": 67, "duration": 10, "velocity": 79}, {"time": 5223, "pitch": 70, "duration": 9, "velocity": 79}, {"time": 5229, "pitch": 48, "duration": 38, "velocity": 78}, {"time": 5235, "pitch": 55, "duration": 23, "velocity": 80}, {"time": 5241, "pitch": 60, "duration": 19, "velocity": 83}, {"time": 5247, "pitch": 62, "duration": 8, "velocity": 81}, {"time": 5247, "pitch": 67, "duration": 11, "velocity": 83}, {"time": 5253, "pitch": 63, "duration": 3, "velocity": 75}, {"time": 5259, "pitch": 62, "duration": 7, "velocity": 83}, {"time": 5259, "pitch": 63, "duration": 8, "velocity": 90}, {"time": 5259, "pitch": 70, "duration": 8, "velocity": 84}, {"time": 5265, "pitch": 55, "duration": 3, "velocity": 80}, {"time": 5277, "pitch": 46, "duration": 42, "velocity": 84}, {"time": 5277, "pitch": 60, "duration": 1, "velocity": 56}, {"time": 5277, "pitch": 62, "duration": 15, "velocity": 84}, {"time": 5277, "pitch": 65, "duration": 15, "velocity": 80}, {"time": 5277, "pitch": 70, "duration": 18, "velocity": 80}, {"time": 5289, "pitch": 53, "duration": 33, "velocity": 74}, {"time": 5295, "pitch": 58, "duration": 25, "velocity": 73}, {"time": 5301, "pitch": 60, "duration": 9, "velocity": 81}, {"time": 5301, "pitch": 62, "duration": 1, "velocity": 51}, {"time": 5301, "pitch": 65, "duration": 3, "velocity": 76}, {"time": 5307, "pitch": 62, "duration": 4, "velocity": 84}, {"time": 5313, "pitch": 65, "duration": 4, "velocity": 79}, {"time": 5319, "pitch": 60, "duration": 8, "velocity": 78}, {"time": 5319, "pitch": 62, "duration": 7, "velocity": 84}, {"time": 5319, "pitch": 65, "duration": 1, "velocity": 63}, {"time": 5319, "pitch": 70, "duration": 7, "velocity": 84}, {"time": 5325, "pitch": 46, "duration": 9, "velocity": 82}, {"time": 5331, "pitch": 53, "duration": 5, "velocity": 77}, {"time": 5331, "pitch": 60, "duration": 3, "velocity": 69}, {"time": 5337, "pitch": 63, "duration": 4, "velocity": 78}, {"time": 5343, "pitch": 65, "duration": 5, "velocity": 76}, {"time": 5349, "pitch": 46, "duration": 8, "velocity": 84}, {"time": 5349, "pitch": 60, "duration": 7, "velocity": 80}, {"time": 5349, "pitch": 63, "duration": 8, "velocity": 90}, {"time": 5349, "pitch": 68, "duration": 8, "velocity": 82}, {"time": 5355, "pitch": 50, "duration": 5, "velocity": 83}, {"time": 5361, "pitch": 58, "duration": 3, "velocity": 67}, {"time": 5361, "pitch": 67, "duration": 4, "velocity": 84}, {"time": 5373, "pitch": 39, "duration": 4, "velocity": 98}, {"time": 5373, "pitch": 70, "duration": 12, "velocity": 86}, {"time": 5373, "pitch": 75, "duration": 10, "velocity": 95}, {"time": 5373, "pitch": 79, "duration": 11, "velocity": 93}, {"time": 5385, "pitch": 51, "duration": 31, "velocity": 79}, {"time": 5391, "pitch": 58, "duration": 10, "velocity": 75}, {"time": 5397, "pitch": 63, "duration": 17, "velocity": 94}, {"time": 5397, "pitch": 67, "duration": 7, "velocity": 90}, {"time": 5397, "pitch": 70, "duration": 8, "velocity": 86}, {"time": 5397, "pitch": 75, "duration": 10, "velocity": 94}, {"time": 5409, "pitch": 65, "duration": 2, "velocity": 94}, {"time": 5409, "pitch": 74, "duration": 4, "velocity": 86}, {"time": 5415, "pitch": 58, "duration": 2, "velocity": 69}, {"time": 5415, "pitch": 67, "duration": 17, "velocity": 93}, {"time": 5415, "pitch": 70, "duration": 14, "velocity": 84}, {"time": 5415, "pitch": 75, "duration": 18, "velocity": 93}, {"time": 5421, "pitch": 51, "duration": 38, "velocity": 95}, {"time": 5427, "pitch": 58, "duration": 25, "velocity": 79}, {"time": 5433, "pitch": 63, "duration": 21, "velocity": 91}, {"time": 5439, "pitch": 65, "duration": 3, "velocity": 84}, {"time": 5439, "pitch": 70, "duration": 4, "velocity": 84}, {"time": 5445, "pitch": 67, "duration": 2, "velocity": 79}, {"time": 5445, "pitch": 72, "duration": 4, "velocity": 83}, {"time": 5451, "pitch": 67, "duration": 4, "velocity": 84}, {"time": 5451, "pitch": 74, "duration": 5, "velocity": 98}, {"time": 5457, "pitch": 58, "duration": 3, "velocity": 82}, {"time": 5457, "pitch": 67, "duration": 2, "velocity": 76}, {"time": 5457, "pitch": 70, "duration": 6, "velocity": 80}, {"time": 5457, "pitch": 75, "duration": 3, "velocity": 90}, {"time": 5463, "pitch": 77, "duration": 4, "velocity": 93}, {"time": 5469, "pitch": 46, "duration": 10, "velocity": 86}, {"time": 5469, "pitch": 65, "duration": 18, "velocity": 84}, {"time": 5469, "pitch": 70, "duration": 18, "velocity": 91}, {"time": 5469, "pitch": 74, "duration": 21, "velocity": 96}, {"time": 5469, "pitch": 77, "duration": 1, "velocity": 75}, {"time": 5475, "pitch": 53, "duration": 5, "velocity": 80}, {"time": 5481, "pitch": 58, "duration": 7, "velocity": 68}, {"time": 5487, "pitch": 60, "duration": 8, "velocity": 78}, {"time": 5493, "pitch": 62, "duration": 3, "velocity": 93}, {"time": 5499, "pitch": 65, "duration": 4, "velocity": 83}, {"time": 5505, "pitch": 70, "duration": 3, "velocity": 80}, {"time": 5511, "pitch": 65, "duration": 8, "velocity": 84}, {"time": 5511, "pitch": 70, "duration": 12, "velocity": 83}, {"time": 5511, "pitch": 77, "duration": 9, "velocity": 94}, {"time": 5517, "pitch": 46, "duration": 39, "velocity": 84}, {"time": 5523, "pitch": 53, "duration": 27, "velocity": 80}, {"time": 5529, "pitch": 58, "duration": 6, "velocity": 84}, {"time": 5535, "pitch": 67, "duration": 3, "velocity": 86}, {"time": 5535, "pitch": 75, "duration": 4, "velocity": 98}, {"time": 5541, "pitch": 58, "duration": 6, "velocity": 80}, {"time": 5547, "pitch": 65, "duration": 4, "velocity": 91}, {"time": 5547, "pitch": 74, "duration": 3, "velocity": 96}, {"time": 5553, "pitch": 53, "duration": 3, "velocity": 56}, {"time": 5553, "pitch": 58, "duration": 2, "velocity": 84}, {"time": 5553, "pitch": 65, "duration": 1, "velocity": 27}, {"time": 5559, "pitch": 70, "duration": 4, "velocity": 90}, {"time": 5565, "pitch": 44, "duration": 9, "velocity": 84}, {"time": 5565, "pitch": 70, "duration": 2, "velocity": 91}, {"time": 5568, "pitch": 72, "duration": 24, "velocity": 84}, {"time": 5571, "pitch": 51, "duration": 5, "velocity": 83}, {"time": 5577, "pitch": 56, "duration": 7, "velocity": 83}, {"time": 5583, "pitch": 58, "duration": 13, "velocity": 75}, {"time": 5589, "pitch": 60, "duration": 7, "velocity": 86}, {"time": 5595, "pitch": 63, "duration": 4, "velocity": 99}, {"time": 5601, "pitch": 68, "duration": 4, "velocity": 93}, {"time": 5607, "pitch": 70, "duration": 5, "velocity": 84}, {"time": 5613, "pitch": 44, "duration": 9, "velocity": 91}, {"time": 5613, "pitch": 63, "duration": 8, "velocity": 82}, {"time": 5613, "pitch": 68, "duration": 8, "velocity": 79}, {"time": 5613, "pitch": 72, "duration": 10, "velocity": 96}, {"time": 5619, "pitch": 51, "duration": 6, "velocity": 80}, {"time": 5625, "pitch": 56, "duration": 6, "velocity": 84}, {"time": 5631, "pitch": 58, "duration": 13, "velocity": 79}, {"time": 5637, "pitch": 60, "duration": 14, "velocity": 82}, {"time": 5643, "pitch": 72, "duration": 3, "velocity": 91}, {"time": 5643, "pitch": 80, "duration": 7, "velocity": 96}, {"time": 5649, "pitch": 58, "duration": 4, "velocity": 83}, {"time": 5649, "pitch": 70, "duration": 7, "velocity": 86}, {"time": 5649, "pitch": 79, "duration": 6, "velocity": 83}, {"time": 5655, "pitch": 75, "duration": 5, "velocity": 94}, {"time": 5661, "pitch": 46, "duration": 38, "velocity": 86}, {"time": 5661, "pitch": 70, "duration": 10, "velocity": 90}, {"time": 5661, "pitch": 77, "duration": 9, "velocity": 95}, {"time": 5667, "pitch": 53, "duration": 36, "velocity": 83}, {"time": 5673, "pitch": 58, "duration": 26, "velocity": 90}, {"time": 5709, "pitch": 44, "duration": 14, "velocity": 91}, {"time": 5709, "pitch": 63, "duration": 7, "velocity": 95}, {"time": 5709, "pitch": 68, "duration": 8, "velocity": 84}, {"time": 5709, "pitch": 72, "duration": 8, "velocity": 86}, {"time": 5715, "pitch": 56, "duration": 7, "velocity": 76}, {"time": 5721, "pitch": 63, "duration": 4, "velocity": 86}, {"time": 5727, "pitch": 68, "duration": 4, "velocity": 91}, {"time": 5733, "pitch": 43, "duration": 12, "velocity": 96}, {"time": 5733, "pitch": 65, "duration": 1, "velocity": 75}, {"time": 5733, "pitch": 67, "duration": 8, "velocity": 90}, {"time": 5733, "pitch": 71, "duration": 9, "velocity": 95}, {"time": 5733, "pitch": 74, "duration": 8, "velocity": 99}, {"time": 5739, "pitch": 55, "duration": 9, "velocity": 90}, {"time": 5745, "pitch": 67, "duration": 7, "velocity": 93}, {"time": 5751, "pitch": 72, "duration": 4, "velocity": 82}, {"time": 5757, "pitch": 48, "duration": 12, "velocity": 94}, {"time": 5757, "pitch": 67, "duration": 9, "velocity": 98}, {"time": 5757, "pitch": 75, "duration": 10, "velocity": 91}, {"time": 5763, "pitch": 55, "duration": 6, "velocity": 84}, {"time": 5769, "pitch": 60, "duration": 7, "velocity": 84}, {"time": 5769, "pitch": 67, "duration": 3, "velocity": 84}, {"time": 5769, "pitch": 74, "duration": 5, "velocity": 90}, {"time": 5775, "pitch": 62, "duration": 10, "velocity": 83}, {"time": 5775, "pitch": 67, "duration": 4, "velocity": 90}, {"time": 5775, "pitch": 75, "duration": 4, "velocity": 86}, {"time": 5781, "pitch": 63, "duration": 13, "velocity": 84}, {"time": 5781, "pitch": 67, "duration": 4, "velocity": 86}, {"time": 5781, "pitch": 75, "duration": 4, "velocity": 96}, {"time": 5787, "pitch": 67, "duration": 2, "velocity": 72}, {"time": 5787, "pitch": 75, "duration": 3, "velocity": 78}, {"time": 5793, "pitch": 62, "duration": 3, "velocity": 84}, {"time": 5793, "pitch": 67, "duration": 3, "velocity": 84}, {"time": 5793, "pitch": 74, "duration": 4, "velocity": 93}, {"time": 5799, "pitch": 67, "duration": 15, "velocity": 91}, {"time": 5799, "pitch": 75, "duration": 13, "velocity": 93}, {"time": 5805, "pitch": 48, "duration": 40, "velocity": 84}, {"time": 5811, "pitch": 55, "duration": 26, "velocity": 83}, {"time": 5817, "pitch": 60, "duration": 12, "velocity": 84}, {"time": 5823, "pitch": 63, "duration": 2, "velocity": 84}, {"time": 5823, "pitch": 67, "duration": 2, "velocity": 84}, {"time": 5823, "pitch": 72, "duration": 2, "velocity": 82}, {"time": 5829, "pitch": 63, "duration": 6, "velocity": 84}, {"time": 5829, "pitch": 67, "duration": 10, "velocity": 86}, {"time": 5829, "pitch": 72, "duration": 6, "velocity": 84}, {"time": 5832, "pitch": 60, "duration": 12, "velocity": 75}, {"time": 5841, "pitch": 62, "duration": 4, "velocity": 84}, {"time": 5841, "pitch": 70, "duration": 5, "velocity": 90}, {"time": 5847, "pitch": 55, "duration": 3, "velocity": 84}, {"time": 5847, "pitch": 67, "duration": 2, "velocity": 82}, {"time": 5847, "pitch": 72, "duration": 3, "velocity": 84}, {"time": 5853, "pitch": 43, "duration": 5, "velocity": 91}, {"time": 5853, "pitch": 67, "duration": 20, "velocity": 93}, {"time": 5853, "pitch": 70, "duration": 22, "velocity": 95}, {"time": 5859, "pitch": 55, "duration": 7, "velocity": 80}, {"time": 5865, "pitch": 58, "duration": 21, "velocity": 79}, {"time": 5871, "pitch": 62, "duration": 13, "velocity": 83}, {"time": 5877, "pitch": 65, "duration": 7, "velocity": 93}, {"time": 5883, "pitch": 67, "duration": 4, "velocity": 86}, {"time": 5889, "pitch": 70, "duration": 4, "velocity": 84}, {"time": 5895, "pitch": 72, "duration": 5, "velocity": 83}, {"time": 5901, "pitch": 43, "duration": 38, "velocity": 86}, {"time": 5901, "pitch": 65, "duration": 9, "velocity": 83}, {"time": 5901, "pitch": 70, "duration": 8, "velocity": 86}, {"time": 5901, "pitch": 74, "duration": 7, "velocity": 91}, {"time": 5907, "pitch": 50, "duration": 33, "velocity": 84}, {"time": 5913, "pitch": 55, "duration": 6, "velocity": 83}, {"time": 5919, "pitch": 62, "duration": 8, "velocity": 94}, {"time": 5919, "pitch": 65, "duration": 8, "velocity": 91}, {"time": 5919, "pitch": 70, "duration": 8, "velocity": 84}, {"time": 5925, "pitch": 55, "duration": 15, "velocity": 90}, {"time": 5931, "pitch": 62, "duration": 4, "velocity": 91}, {"time": 5937, "pitch": 65, "duration": 4, "velocity": 93}, {"time": 5943, "pitch": 67, "duration": 3, "velocity": 80}, {"time": 5949, "pitch": 44, "duration": 39, "velocity": 84}, {"time": 5949, "pitch": 56, "duration": 11, "velocity": 90}, {"time": 5949, "pitch": 60, "duration": 20, "velocity": 95}, {"time": 5949, "pitch": 63, "duration": 16, "velocity": 98}, {"time": 5949, "pitch": 68, "duration": 16, "velocity": 84}, {"time": 5961, "pitch": 56, "duration": 17, "velocity": 79}, {"time": 5973, "pitch": 60, "duration": 12, "velocity": 86}, {"time": 5973, "pitch": 63, "duration": 15, "velocity": 93}, {"time": 5973, "pitch": 68, "duration": 15, "velocity": 93}, {"time": 5979, "pitch": 51, "duration": 17, "velocity": 80}, {"time": 5985, "pitch": 56, "duration": 6, "velocity": 83}, {"time": 5991, "pitch": 60, "duration": 4, "velocity": 81}, {"time": 5997, "pitch": 44, "duration": 47, "velocity": 94}, {"time": 5997, "pitch": 60, "duration": 13, "velocity": 83}, {"time": 5997, "pitch": 63, "duration": 13, "velocity": 94}, {"time": 5997, "pitch": 68, "duration": 12, "velocity": 90}, {"time": 6003, "pitch": 51, "duration": 27, "velocity": 83}, {"time": 6009, "pitch": 56, "duration": 13, "velocity": 83}, {"time": 6015, "pitch": 60, "duration": 4, "velocity": 83}, {"time": 6021, "pitch": 60, "duration": 9, "velocity": 83}, {"time": 6021, "pitch": 63, "duration": 22, "velocity": 93}, {"time": 6021, "pitch": 68, "duration": 22, "velocity": 91}, {"time": 6027, "pitch": 56, "duration": 9, "velocity": 95}, {"time": 6033, "pitch": 51, "duration": 7, "velocity": 94}, {"time": 6045, "pitch": 46, "duration": 39, "velocity": 94}, {"time": 6051, "pitch": 53, "duration": 37, "velocity": 84}, {"time": 6057, "pitch": 58, "duration": 14, "velocity": 91}, {"time": 6063, "pitch": 63, "duration": 4, "velocity": 93}, {"time": 6069, "pitch": 65, "duration": 8, "velocity": 93}, {"time": 6075, "pitch": 58, "duration": 10, "velocity": 78}, {"time": 6081, "pitch": 63, "duration": 3, "velocity": 94}, {"time": 6087, "pitch": 60, "duration": 9, "velocity": 86}, {"time": 6087, "pitch": 63, "duration": 9, "velocity": 94}, {"time": 6087, "pitch": 68, "duration": 9, "velocity": 90}, {"time": 6093, "pitch": 46, "duration": 34, "velocity": 84}, {"time": 6099, "pitch": 62, "duration": 13, "velocity": 96}, {"time": 6099, "pitch": 70, "duration": 10, "velocity": 96}, {"time": 6105, "pitch": 53, "duration": 23, "velocity": 83}, {"time": 6111, "pitch": 58, "duration": 14, "velocity": 83}, {"time": 6117, "pitch": 60, "duration": 15, "velocity": 86}, {"time": 6117, "pitch": 63, "duration": 12, "velocity": 94}, {"time": 6117, "pitch": 68, "duration": 16, "velocity": 86}, {"time": 6129, "pitch": 50, "duration": 3, "velocity": 95}, {"time": 6141, "pitch": 56, "duration": 37, "velocity": 59}, {"time": 6141, "pitch": 63, "duration": 37, "velocity": 79}, {"time": 6141, "pitch": 68, "duration": 35, "velocity": 51}, {"time": 6141, "pitch": 72, "duration": 17, "velocity": 72}, {"time": 6141, "pitch": 75, "duration": 23, "velocity": 84}, {"time": 6141, "pitch": 80, "duration": 40, "velocity": 83}, {"time": 6189, "pitch": 55, "duration": 33, "velocity": 46}, {"time": 6189, "pitch": 62, "duration": 31, "velocity": 75}, {"time": 6189, "pitch": 67, "duration": 30, "velocity": 55}, {"time": 6189, "pitch": 70, "duration": 30, "velocity": 70}, {"time": 6189, "pitch": 74, "duration": 30, "velocity": 82}, {"time": 6189, "pitch": 77, "duration": 30, "velocity": 80}, {"time": 6243, "pitch": 53, "duration": 176, "velocity": 49}, {"time": 6243, "pitch": 60, "duration": 176, "velocity": 57}, {"time": 6243, "pitch": 65, "duration": 59, "velocity": 60}, {"time": 6243, "pitch": 69, "duration": 58, "velocity": 77}, {"time": 6243, "pitch": 72, "duration": 57, "velocity": 63}, {"time": 6249, "pitch": 75, "duration": 54, "velocity": 3}, {"time": 6309, "pitch": 77, "duration": 100, "velocity": 61}, {"time": 6312, "pitch": 81, "duration": 98, "velocity": 75}, {"time": 6315, "pitch": 84, "duration": 97, "velocity": 78}, {"time": 6315, "pitch": 89, "duration": 96, "velocity": 73}], "annotations": [{"time": 93, "annotation": {"number": 64, "value": 127}, "group": "control_change"}, {"time": 190, "annotation": {"number": 64, "value": 0}, "group": "control_change"}, {"time": 194, "annotation": {"number": 64, "value": 127}, "group": "control_change"}, {"time": 284, "annotation": {"number": 64, "value": 0}, "group": "control_change"}, {"time": 288, "annotation": {"number": 64, "value": 127}, "group": "control_change"}, {"time": 331, "annotation": {"number": 64, "value": 0}, "group": "control_change"}, {"time": 336, "annotation": {"number": 64, "value": 99}, "group": "control_change"}, {"time": 377, "annotation": {"number": 64, "value": 0}, "group": "control_change"}, {"time": 377, "annotation": {"number": 64, "value": 127}, "group": "control_change"}, {"time": 380, "annotation": {"number": 64, "value": 0}, "group": "control_change"}, {"time": 385, "annotation": {"number": 64, "value": 127}, "group": "control_change"}, {"time": 475, "annotation": {"number": 64, "value": 127}, "group": "control_change"}, {"time": 571, "annotation": {"number": 64, "value": 0}, "group": "control_change"}, {"time": 579, "annotation": {"number": 64, "value": 127}, "group": "control_change"}, {"time": 669, "annotation": {"number": 64, "value": 0}, "group": "control_change"}, {"time": 676, "annotation": {"number": 64, "value": 127}, "group": "control_change"}, {"time": 765, "annotation": {"number": 64, "value": 0}, "group": "control_change"}, {"time": 766, "annotation": {"number": 64, "value": 127}, "group": "control_change"}, {"time": 844, "annotation": {"number": 64, "value": 0}, "group": "control_change"}, {"time": 865, "annotation": {"number": 64, "value": 127}, "group": "control_change"}, {"time": 909, "annotation": {"number": 64, "value": 0}, "group": "control_change"}, {"time": 917, "annotation": {"number": 64, "value": 127}, "group": "control_change"}, {"time": 959, "annotation": {"number": 64, "value": 0}, "group": "control_change"}, {"time": 968, "annotation": {"number": 64, "value": 127}, "group": "control_change"}, {"time": 1052, "annotation": {"number": 64, "value": 0}, "group": "control_change"}, {"time": 1245, "annotation": {"number": 64, "value": 127}, "group": "control_change"}, {"time": 1342, "annotation": {"number": 64, "value": 0}, "group": "control_change"}, {"time": 1350, "annotation": {"number": 64, "value": 127}, "group": "control_change"}, {"time": 1438, "annotation": {"number": 64, "value": 0}, "group": "control_change"}, {"time": 1445, "annotation": {"number": 64, "value": 127}, "group": "control_change"}, {"time": 1533, "annotation": {"number": 64, "value": 0}, "group": "control_change"}, {"time": 1543, "annotation": {"number": 64, "value": 127}, "group": "control_change"}, {"time": 1605, "annotation": {"number": 64, "value": 0}, "group": "control_change"}, {"time": 1612, "annotation": {"number": 64, "value": 127}, "group": "control_change"}, {"time": 1630, "annotation": {"number": 64, "value": 0}, "group": "control_change"}, {"time": 1640, "annotation": {"number": 64, "value": 127}, "group": "control_change"}, {"time": 1678, "annotation": {"number": 64, "value": 0}, "group": "control_change"}, {"time": 1688, "annotation": {"number": 64, "value": 127}, "group": "control_change"}, {"time": 1726, "annotation": {"number": 64, "value": 0}, "group": "control_change"}, {"time": 1735, "annotation": {"number": 64, "value": 127}, "group": "control_change"}, {"time": 1747, "annotation": {"number": 64, "value": 0}, "group": "control_change"}, {"time": 1756, "annotation": {"number": 64, "value": 127}, "group": "control_change"}, {"time": 1774, "annotation": {"number": 64, "value": 0}, "group": "control_change"}, {"time": 1780, "annotation": {"number": 64, "value": 127}, "group": "control_change"}, {"time": 1820, "annotation": {"number": 64, "value": 0}, "group": "control_change"}, {"time": 1824, "annotation": {"number": 64, "value": 127}, "group": "control_change"}, {"time": 1917, "annotation": {"number": 64, "value": 0}, "group": "control_change"}, {"time": 1923, "annotation": {"number": 64, "value": 127}, "group": "control_change"}, {"time": 1965, "annotation": {"number": 64, "value": 0}, "group": "control_change"}, {"time": 1971, "annotation": {"number": 64, "value": 127}, "group": "control_change"}, {"time": 2013, "annotation": {"number": 64, "value": 0}, "group": "control_change"}, {"time": 2014, "annotation": {"number": 64, "value": 127}, "group": "control_change"}, {"time": 2060, "annotation": {"number": 64, "value": 0}, "group": "control_change"}, {"time": 2068, "annotation": {"number": 64, "value": 127}, "group": "control_change"}, {"time": 2086, "annotation": {"number": 64, "value": 0}, "group": "control_change"}, {"time": 2090, "annotation": {"number": 64, "value": 127}, "group": "control_change"}, {"time": 2109, "annotation": {"number": 64, "value": 0}, "group": "control_change"}, {"time": 2117, "annotation": {"number": 64, "value": 127}, "group": "control_change"}, {"time": 2154, "annotation": {"number": 64, "value": 0}, "group": "control_change"}, {"time": 2160, "annotation": {"number": 64, "value": 127}, "group": "control_change"}, {"time": 2205, "annotation": {"number": 64, "value": 0}, "group": "control_change"}, {"time": 2206, "annotation": {"number": 64, "value": 127}, "group": "control_change"}, {"time": 2253, "annotation": {"number": 64, "value": 0}, "group": "control_change"}, {"time": 2257, "annotation": {"number": 64, "value": 127}, "group": "control_change"}, {"time": 2299, "annotation": {"number": 64, "value": 0}, "group": "control_change"}, {"time": 2305, "annotation": {"number": 64, "value": 127}, "group": "control_change"}, {"time": 2345, "annotation": {"number": 64, "value": 0}, "group": "control_change"}, {"time": 2349, "annotation": {"number": 64, "value": 127}, "group": "control_change"}, {"time": 2367, "annotation": {"number": 64, "value": 0}, "group": "control_change"}, {"time": 2369, "annotation": {"number": 64, "value": 127}, "group": "control_change"}, {"time": 2395, "annotation": {"number": 64, "value": 0}, "group": "control_change"}, {"time": 2400, "annotation": {"number": 64, "value": 127}, "group": "control_change"}, {"time": 2492, "annotation": {"number": 64, "value": 0}, "group": "control_change"}, {"time": 2499, "annotation": {"number": 64, "value": 127}, "group": "control_change"}, {"time": 2539, "annotation": {"number": 64, "value": 0}, "group": "control_change"}, {"time": 2544, "annotation": {"number": 64, "value": 127}, "group": "control_change"}, {"time": 2586, "annotation": {"number": 64, "value": 0}, "group": "control_change"}, {"time": 2592, "annotation": {"number": 64, "value": 127}, "group": "control_change"}, {"time": 2636, "annotation": {"number": 64, "value": 0}, "group": "control_change"}, {"time": 2641, "annotation": {"number": 64, "value": 127}, "group": "control_change"}, {"time": 2684, "annotation": {"number": 64, "value": 0}, "group": "control_change"}, {"time": 2689, "annotation": {"number": 64, "value": 127}, "group": "control_change"}, {"time": 2731, "annotation": {"number": 64, "value": 0}, "group": "control_change"}, {"time": 2736, "annotation": {"number": 64, "value": 127}, "group": "control_change"}, {"time": 2781, "annotation": {"number": 64, "value": 0}, "group": "control_change"}, {"time": 2784, "annotation": {"number": 64, "value": 127}, "group": "control_change"}, {"time": 2828, "annotation": {"number": 64, "value": 0}, "group": "control_change"}, {"time": 2836, "annotation": {"number": 64, "value": 127}, "group": "control_change"}, {"time": 2874, "annotation": {"number": 64, "value": 0}, "group": "control_change"}, {"time": 2879, "annotation": {"number": 64, "value": 127}, "group": "control_change"}, {"time": 2965, "annotation": {"number": 64, "value": 0}, "group": "control_change"}, {"time": 2969, "annotation": {"number": 64, "value": 127}, "group": "control_change"}, {"time": 3069, "annotation": {"number": 64, "value": 0}, "group": "control_change"}, {"time": 3076, "annotation": {"number": 64, "value": 127}, "group": "control_change"}, {"time": 3160, "annotation": {"number": 64, "value": 0}, "group": "control_change"}, {"time": 3170, "annotation": {"number": 64, "value": 127}, "group": "control_change"}, {"time": 3261, "annotation": {"number": 64, "value": 0}, "group": "control_change"}, {"time": 3269, "annotation": {"number": 64, "value": 127}, "group": "control_change"}, {"time": 3332, "annotation": {"number": 64, "value": 0}, "group": "control_change"}, {"time": 3342, "annotation": {"number": 64, "value": 127}, "group": "control_change"}, {"time": 3356, "annotation": {"number": 64, "value": 0}, "group": "control_change"}, {"time": 3361, "annotation": {"number": 64, "value": 127}, "group": "control_change"}, {"time": 3409, "annotation": {"number": 64, "value": 0}, "group": "control_change"}, {"time": 3413, "annotation": {"number": 64, "value": 127}, "group": "control_change"}, {"time": 3453, "annotation": {"number": 64, "value": 0}, "group": "control_change"}, {"time": 3458, "annotation": {"number": 64, "value": 127}, "group": "control_change"}, {"time": 3475, "annotation": {"number": 64, "value": 0}, "group": "control_change"}, {"time": 3485, "annotation": {"number": 64, "value": 127}, "group": "control_change"}, {"time": 3502, "annotation": {"number": 64, "value": 0}, "group": "control_change"}, {"time": 3508, "annotation": {"number": 64, "value": 127}, "group": "control_change"}, {"time": 3547, "annotation": {"number": 64, "value": 0}, "group": "control_change"}, {"time": 3552, "annotation": {"number": 64, "value": 127}, "group": "control_change"}, {"time": 3642, "annotation": {"number": 64, "value": 0}, "group": "control_change"}, {"time": 3648, "annotation": {"number": 64, "value": 127}, "group": "control_change"}, {"time": 3691, "annotation": {"number": 64, "value": 0}, "group": "control_change"}, {"time": 3695, "annotation": {"number": 64, "value": 127}, "group": "control_change"}, {"time": 3740, "annotation": {"number": 64, "value": 127}, "group": "control_change"}, {"time": 3787, "annotation": {"number": 64, "value": 0}, "group": "control_change"}, {"time": 3789, "annotation": {"number": 64, "value": 127}, "group": "control_change"}, {"time": 3835, "annotation": {"number": 64, "value": 0}, "group": "control_change"}, {"time": 3838, "annotation": {"number": 64, "value": 127}, "group": "control_change"}, {"time": 3885, "annotation": {"number": 64, "value": 0}, "group": "control_change"}, {"time": 3889, "annotation": {"number": 64, "value": 127}, "group": "control_change"}, {"time": 3933, "annotation": {"number": 64, "value": 0}, "group": "control_change"}, {"time": 3937, "annotation": {"number": 64, "value": 127}, "group": "control_change"}, {"time": 4029, "annotation": {"number": 64, "value": 0}, "group": "control_change"}, {"time": 4034, "annotation": {"number": 64, "value": 127}, "group": "control_change"}, {"time": 4076, "annotation": {"number": 64, "value": 0}, "group": "control_change"}, {"time": 4080, "annotation": {"number": 64, "value": 127}, "group": "control_change"}, {"time": 4125, "annotation": {"number": 64, "value": 0}, "group": "control_change"}, {"time": 4129, "annotation": {"number": 64, "value": 127}, "group": "control_change"}, {"time": 4173, "annotation": {"number": 64, "value": 0}, "group": "control_change"}, {"time": 4174, "annotation": {"number": 64, "value": 127}, "group": "control_change"}, {"time": 4199, "annotation": {"number": 64, "value": 0}, "group": "control_change"}, {"time": 4202, "annotation": {"number": 64, "value": 127}, "group": "control_change"}, {"time": 4219, "annotation": {"number": 64, "value": 0}, "group": "control_change"}, {"time": 4223, "annotation": {"number": 64, "value": 127}, "group": "control_change"}, {"time": 4270, "annotation": {"number": 64, "value": 0}, "group": "control_change"}, {"time": 4274, "annotation": {"number": 64, "value": 127}, "group": "control_change"}, {"time": 4317, "annotation": {"number": 64, "value": 0}, "group": "control_change"}, {"time": 4322, "annotation": {"number": 64, "value": 127}, "group": "control_change"}, {"time": 4367, "annotation": {"number": 64, "value": 0}, "group": "control_change"}, {"time": 4367, "annotation": {"number": 64, "value": 127}, "group": "control_change"}, {"time": 4368, "annotation": {"number": 64, "value": 0}, "group": "control_change"}, {"time": 4371, "annotation": {"number": 64, "value": 127}, "group": "control_change"}, {"time": 4412, "annotation": {"number": 64, "value": 0}, "group": "control_change"}, {"time": 4416, "annotation": {"number": 64, "value": 127}, "group": "control_change"}, {"time": 4461, "annotation": {"number": 64, "value": 0}, "group": "control_change"}, {"time": 4466, "annotation": {"number": 64, "value": 127}, "group": "control_change"}, {"time": 4492, "annotation": {"number": 64, "value": 0}, "group": "control_change"}, {"time": 4497, "annotation": {"number": 64, "value": 127}, "group": "control_change"}, {"time": 4509, "annotation": {"number": 64, "value": 0}, "group": "control_change"}, {"time": 4513, "annotation": {"number": 64, "value": 127}, "group": "control_change"}, {"time": 4554, "annotation": {"number": 64, "value": 0}, "group": "control_change"}, {"time": 4558, "annotation": {"number": 64, "value": 127}, "group": "control_change"}, {"time": 4605, "annotation": {"number": 64, "value": 0}, "group": "control_change"}, {"time": 4606, "annotation": {"number": 64, "value": 127}, "group": "control_change"}, {"time": 4651, "annotation": {"number": 64, "value": 0}, "group": "control_change"}, {"time": 4656, "annotation": {"number": 64, "value": 127}, "group": "control_change"}, {"time": 4701, "annotation": {"number": 64, "value": 0}, "group": "control_change"}, {"time": 4701, "annotation": {"number": 64, "value": 127}, "group": "control_change"}, {"time": 4797, "annotation": {"number": 64, "value": 0}, "group": "control_change"}, {"time": 4799, "annotation": {"number": 64, "value": 127}, "group": "control_change"}, {"time": 4844, "annotation": {"number": 64, "value": 0}, "group": "control_change"}, {"time": 4852, "annotation": {"number": 64, "value": 127}, "group": "control_change"}, {"time": 4891, "annotation": {"number": 64, "value": 0}, "group": "control_change"}, {"time": 4897, "annotation": {"number": 64, "value": 127}, "group": "control_change"}, {"time": 4938, "annotation": {"number": 64, "value": 127}, "group": "control_change"}, {"time": 4982, "annotation": {"number": 64, "value": 0}, "group": "control_change"}, {"time": 4985, "annotation": {"number": 64, "value": 0}, "group": "control_change"}, {"time": 4990, "annotation": {"number": 64, "value": 127}, "group": "control_change"}, {"time": 4990, "annotation": {"number": 64, "value": 0}, "group": "control_change"}, {"time": 4991, "annotation": {"number": 64, "value": 127}, "group": "control_change"}, {"time": 5084, "annotation": {"number": 64, "value": 0}, "group": "control_change"}, {"time": 5088, "annotation": {"number": 64, "value": 127}, "group": "control_change"}, {"time": 5181, "annotation": {"number": 64, "value": 0}, "group": "control_change"}, {"time": 5192, "annotation": {"number": 64, "value": 127}, "group": "control_change"}, {"time": 5275, "annotation": {"number": 64, "value": 0}, "group": "control_change"}, {"time": 5279, "annotation": {"number": 64, "value": 127}, "group": "control_change"}, {"time": 5346, "annotation": {"number": 64, "value": 0}, "group": "control_change"}, {"time": 5351, "annotation": {"number": 64, "value": 127}, "group": "control_change"}, {"time": 5369, "annotation": {"number": 64, "value": 0}, "group": "control_change"}, {"time": 5374, "annotation": {"number": 64, "value": 127}, "group": "control_change"}, {"time": 5421, "annotation": {"number": 64, "value": 0}, "group": "control_change"}, {"time": 5425, "annotation": {"number": 64, "value": 127}, "group": "control_change"}, {"time": 5469, "annotation": {"number": 64, "value": 0}, "group": "control_change"}, {"time": 5473, "annotation": {"number": 64, "value": 127}, "group": "control_change"}, {"time": 5565, "annotation": {"number": 64, "value": 0}, "group": "control_change"}, {"time": 5570, "annotation": {"number": 64, "value": 127}, "group": "control_change"}, {"time": 5612, "annotation": {"number": 64, "value": 0}, "group": "control_change"}, {"time": 5616, "annotation": {"number": 64, "value": 127}, "group": "control_change"}, {"time": 5661, "annotation": {"number": 64, "value": 0}, "group": "control_change"}, {"time": 5665, "annotation": {"number": 64, "value": 127}, "group": "control_change"}, {"time": 5709, "annotation": {"number": 64, "value": 0}, "group": "control_change"}, {"time": 5710, "annotation": {"number": 64, "value": 127}, "group": "control_change"}, {"time": 5735, "annotation": {"number": 64, "value": 0}, "group": "control_change"}, {"time": 5738, "annotation": {"number": 64, "value": 127}, "group": "control_change"}, {"time": 5755, "annotation": {"number": 64, "value": 0}, "group": "control_change"}, {"time": 5759, "annotation": {"number": 64, "value": 127}, "group": "control_change"}, {"time": 5806, "annotation": {"number": 64, "value": 0}, "group": "control_change"}, {"time": 5810, "annotation": {"number": 64, "value": 127}, "group": "control_change"}, {"time": 5853, "annotation": {"number": 64, "value": 0}, "group": "control_change"}, {"time": 5858, "annotation": {"number": 64, "value": 127}, "group": "control_change"}, {"time": 5903, "annotation": {"number": 64, "value": 0}, "group": "control_change"}, {"time": 5903, "annotation": {"number": 64, "value": 127}, "group": "control_change"}, {"time": 5904, "annotation": {"number": 64, "value": 0}, "group": "control_change"}, {"time": 5907, "annotation": {"number": 64, "value": 127}, "group": "control_change"}, {"time": 5948, "annotation": {"number": 64, "value": 0}, "group": "control_change"}, {"time": 5952, "annotation": {"number": 64, "value": 127}, "group": "control_change"}, {"time": 5997, "annotation": {"number": 64, "value": 0}, "group": "control_change"}, {"time": 6002, "annotation": {"number": 64, "value": 127}, "group": "control_change"}, {"time": 6028, "annotation": {"number": 64, "value": 0}, "group": "control_change"}, {"time": 6033, "annotation": {"number": 64, "value": 127}, "group": "control_change"}, {"time": 6045, "annotation": {"number": 64, "value": 0}, "group": "control_change"}, {"time": 6049, "annotation": {"number": 64, "value": 127}, "group": "control_change"}, {"time": 6090, "annotation": {"number": 64, "value": 0}, "group": "control_change"}, {"time": 6094, "annotation": {"number": 64, "value": 127}, "group": "control_change"}, {"time": 6141, "annotation": {"number": 64, "value": 0}, "group": "control_change"}, {"time": 6144, "annotation": {"number": 64, "value": 127}, "group": "control_change"}, {"time": 6188, "annotation": {"number": 64, "value": 0}, "group": "control_change"}, {"time": 6196, "annotation": {"number": 64, "value": 127}, "group": "control_change"}, {"time": 6243, "annotation": {"number": 64, "value": 0}, "group": "control_change"}, {"time": 6250, "annotation": {"number": 64, "value": 127}, "group": "control_change"}, {"time": 6431, "annotation": {"number": 64, "value": 0}, "group": "control_change"}]}]}