{"metadata": {"schema_version": "0.2", "title": "None", "source_filename": "253.mid", "source_format": "midi"}, "resolution": 12, "tempos": [{"time": 0, "qpm": 66.000066000066}], "time_signatures": [{"time": 0, "numerator": 4, "denominator": 4}], "tracks": [{"program": 0, "is_drum": false, "name": "MELODY", "notes": [{"time": 229, "pitch": 64, "duration": 6, "velocity": 79}, {"time": 235, "pitch": 69, "duration": 6, "velocity": 80}, {"time": 241, "pitch": 72, "duration": 7, "velocity": 84}, {"time": 247, "pitch": 71, "duration": 6, "velocity": 86}, {"time": 253, "pitch": 67, "duration": 6, "velocity": 66}, {"time": 259, "pitch": 62, "duration": 7, "velocity": 57}, {"time": 265, "pitch": 64, "duration": 60, "velocity": 64}, {"time": 325, "pitch": 64, "duration": 6, "velocity": 72}, {"time": 331, "pitch": 69, "duration": 6, "velocity": 65}, {"time": 337, "pitch": 72, "duration": 7, "velocity": 77}, {"time": 343, "pitch": 71, "duration": 6, "velocity": 90}, {"time": 349, "pitch": 67, "duration": 6, "velocity": 80}, {"time": 355, "pitch": 64, "duration": 6, "velocity": 65}, {"time": 361, "pitch": 71, "duration": 9, "velocity": 86}, {"time": 370, "pitch": 69, "duration": 42, "velocity": 86}, {"time": 412, "pitch": 69, "duration": 4, "velocity": 58}, {"time": 415, "pitch": 74, "duration": 3, "velocity": 91}, {"time": 418, "pitch": 76, "duration": 6, "velocity": 87}, {"time": 424, "pitch": 69, "duration": 3, "velocity": 72}, {"time": 427, "pitch": 74, "duration": 3, "velocity": 86}, {"time": 430, "pitch": 76, "duration": 6, "velocity": 90}, {"time": 436, "pitch": 69, "duration": 3, "velocity": 79}, {"time": 439, "pitch": 74, "duration": 3, "velocity": 93}, {"time": 442, "pitch": 76, "duration": 6, "velocity": 92}, {"time": 448, "pitch": 69, "duration": 3, "velocity": 64}, {"time": 451, "pitch": 74, "duration": 12, "velocity": 90}, {"time": 463, "pitch": 72, "duration": 3, "velocity": 101}, {"time": 466, "pitch": 74, "duration": 6, "velocity": 93}, {"time": 472, "pitch": 64, "duration": 3, "velocity": 82}, {"time": 475, "pitch": 72, "duration": 5, "velocity": 89}, {"time": 478, "pitch": 74, "duration": 6, "velocity": 92}, {"time": 484, "pitch": 64, "duration": 3, "velocity": 74}, {"time": 487, "pitch": 72, "duration": 5, "velocity": 90}, {"time": 490, "pitch": 74, "duration": 6, "velocity": 93}, {"time": 496, "pitch": 64, "duration": 6, "velocity": 81}, {"time": 502, "pitch": 72, "duration": 15, "velocity": 96}, {"time": 517, "pitch": 64, "duration": 6, "velocity": 82}, {"time": 523, "pitch": 69, "duration": 6, "velocity": 84}, {"time": 529, "pitch": 72, "duration": 6, "velocity": 90}, {"time": 535, "pitch": 71, "duration": 6, "velocity": 94}, {"time": 541, "pitch": 67, "duration": 6, "velocity": 79}, {"time": 547, "pitch": 64, "duration": 6, "velocity": 79}, {"time": 553, "pitch": 71, "duration": 9, "velocity": 93}, {"time": 562, "pitch": 69, "duration": 51, "velocity": 93}, {"time": 613, "pitch": 64, "duration": 6, "velocity": 77}, {"time": 619, "pitch": 69, "duration": 6, "velocity": 86}, {"time": 625, "pitch": 72, "duration": 7, "velocity": 80}, {"time": 631, "pitch": 71, "duration": 6, "velocity": 91}, {"time": 637, "pitch": 67, "duration": 6, "velocity": 69}, {"time": 643, "pitch": 62, "duration": 6, "velocity": 62}, {"time": 649, "pitch": 64, "duration": 60, "velocity": 77}, {"time": 709, "pitch": 64, "duration": 6, "velocity": 81}, {"time": 715, "pitch": 69, "duration": 6, "velocity": 80}, {"time": 721, "pitch": 72, "duration": 6, "velocity": 87}, {"time": 727, "pitch": 71, "duration": 6, "velocity": 91}, {"time": 733, "pitch": 67, "duration": 6, "velocity": 82}, {"time": 739, "pitch": 64, "duration": 7, "velocity": 65}, {"time": 745, "pitch": 71, "duration": 9, "velocity": 89}, {"time": 754, "pitch": 69, "duration": 42, "velocity": 84}, {"time": 796, "pitch": 69, "duration": 3, "velocity": 75}, {"time": 799, "pitch": 74, "duration": 3, "velocity": 90}, {"time": 802, "pitch": 76, "duration": 6, "velocity": 91}, {"time": 808, "pitch": 69, "duration": 3, "velocity": 66}, {"time": 811, "pitch": 74, "duration": 3, "velocity": 90}, {"time": 814, "pitch": 76, "duration": 6, "velocity": 90}, {"time": 820, "pitch": 69, "duration": 4, "velocity": 77}, {"time": 823, "pitch": 74, "duration": 3, "velocity": 89}, {"time": 826, "pitch": 76, "duration": 6, "velocity": 97}, {"time": 832, "pitch": 69, "duration": 3, "velocity": 77}, {"time": 835, "pitch": 74, "duration": 12, "velocity": 86}, {"time": 847, "pitch": 72, "duration": 3, "velocity": 98}, {"time": 850, "pitch": 74, "duration": 6, "velocity": 91}, {"time": 856, "pitch": 64, "duration": 3, "velocity": 87}, {"time": 859, "pitch": 72, "duration": 3, "velocity": 90}, {"time": 862, "pitch": 74, "duration": 6, "velocity": 98}, {"time": 868, "pitch": 64, "duration": 3, "velocity": 85}, {"time": 871, "pitch": 72, "duration": 3, "velocity": 93}, {"time": 874, "pitch": 74, "duration": 6, "velocity": 98}, {"time": 880, "pitch": 64, "duration": 6, "velocity": 90}, {"time": 886, "pitch": 72, "duration": 15, "velocity": 99}, {"time": 901, "pitch": 65, "duration": 6, "velocity": 77}, {"time": 907, "pitch": 69, "duration": 6, "velocity": 68}, {"time": 913, "pitch": 76, "duration": 6, "velocity": 83}, {"time": 919, "pitch": 74, "duration": 6, "velocity": 90}, {"time": 925, "pitch": 71, "duration": 6, "velocity": 84}, {"time": 931, "pitch": 67, "duration": 6, "velocity": 81}, {"time": 937, "pitch": 71, "duration": 12, "velocity": 98}, {"time": 949, "pitch": 69, "duration": 75, "velocity": 94}, {"time": 1024, "pitch": 69, "duration": 3, "velocity": 82}, {"time": 1027, "pitch": 81, "duration": 6, "velocity": 90}, {"time": 1033, "pitch": 79, "duration": 6, "velocity": 99}, {"time": 1039, "pitch": 76, "duration": 4, "velocity": 93}, {"time": 1042, "pitch": 75, "duration": 3, "velocity": 59}, {"time": 1045, "pitch": 76, "duration": 4, "velocity": 65}, {"time": 1048, "pitch": 75, "duration": 3, "velocity": 52}, {"time": 1051, "pitch": 76, "duration": 6, "velocity": 73}, {"time": 1057, "pitch": 75, "duration": 3, "velocity": 89}, {"time": 1060, "pitch": 76, "duration": 6, "velocity": 84}, {"time": 1066, "pitch": 75, "duration": 3, "velocity": 54}, {"time": 1069, "pitch": 76, "duration": 6, "velocity": 66}, {"time": 1075, "pitch": 76, "duration": 9, "velocity": 71}, {"time": 1084, "pitch": 72, "duration": 3, "velocity": 90}, {"time": 1087, "pitch": 74, "duration": 5, "velocity": 79}, {"time": 1090, "pitch": 72, "duration": 3, "velocity": 66}, {"time": 1093, "pitch": 74, "duration": 4, "velocity": 84}, {"time": 1096, "pitch": 72, "duration": 3, "velocity": 66}, {"time": 1099, "pitch": 74, "duration": 6, "velocity": 87}, {"time": 1105, "pitch": 76, "duration": 3, "velocity": 98}, {"time": 1108, "pitch": 74, "duration": 6, "velocity": 94}, {"time": 1114, "pitch": 72, "duration": 3, "velocity": 91}, {"time": 1117, "pitch": 69, "duration": 6, "velocity": 91}, {"time": 1123, "pitch": 69, "duration": 9, "velocity": 94}, {"time": 1132, "pitch": 72, "duration": 3, "velocity": 90}, {"time": 1135, "pitch": 74, "duration": 4, "velocity": 98}, {"time": 1138, "pitch": 72, "duration": 3, "velocity": 89}, {"time": 1141, "pitch": 74, "duration": 6, "velocity": 94}, {"time": 1147, "pitch": 74, "duration": 9, "velocity": 105}, {"time": 1156, "pitch": 76, "duration": 3, "velocity": 91}, {"time": 1159, "pitch": 74, "duration": 4, "velocity": 97}, {"time": 1162, "pitch": 72, "duration": 3, "velocity": 90}, {"time": 1165, "pitch": 69, "duration": 6, "velocity": 94}, {"time": 1171, "pitch": 76, "duration": 9, "velocity": 94}, {"time": 1180, "pitch": 76, "duration": 3, "velocity": 101}, {"time": 1183, "pitch": 74, "duration": 6, "velocity": 98}, {"time": 1189, "pitch": 76, "duration": 4, "velocity": 77}, {"time": 1192, "pitch": 74, "duration": 6, "velocity": 90}, {"time": 1198, "pitch": 69, "duration": 6, "velocity": 89}, {"time": 1204, "pitch": 71, "duration": 15, "velocity": 96}, {"time": 1219, "pitch": 81, "duration": 7, "velocity": 109}, {"time": 1225, "pitch": 79, "duration": 6, "velocity": 101}, {"time": 1231, "pitch": 76, "duration": 4, "velocity": 93}, {"time": 1234, "pitch": 75, "duration": 3, "velocity": 59}, {"time": 1237, "pitch": 76, "duration": 4, "velocity": 65}, {"time": 1240, "pitch": 75, "duration": 3, "velocity": 52}, {"time": 1243, "pitch": 76, "duration": 6, "velocity": 73}, {"time": 1249, "pitch": 75, "duration": 3, "velocity": 89}, {"time": 1252, "pitch": 76, "duration": 6, "velocity": 84}, {"time": 1258, "pitch": 75, "duration": 3, "velocity": 54}, {"time": 1261, "pitch": 76, "duration": 6, "velocity": 66}, {"time": 1267, "pitch": 76, "duration": 9, "velocity": 71}, {"time": 1276, "pitch": 76, "duration": 3, "velocity": 54}, {"time": 1279, "pitch": 81, "duration": 4, "velocity": 87}, {"time": 1282, "pitch": 80, "duration": 3, "velocity": 54}, {"time": 1285, "pitch": 81, "duration": 5, "velocity": 66}, {"time": 1288, "pitch": 80, "duration": 3, "velocity": 59}, {"time": 1291, "pitch": 81, "duration": 6, "velocity": 66}, {"time": 1297, "pitch": 76, "duration": 4, "velocity": 58}, {"time": 1300, "pitch": 74, "duration": 6, "velocity": 74}, {"time": 1306, "pitch": 72, "duration": 3, "velocity": 65}, {"time": 1309, "pitch": 69, "duration": 6, "velocity": 64}, {"time": 1315, "pitch": 69, "duration": 9, "velocity": 93}, {"time": 1324, "pitch": 72, "duration": 3, "velocity": 91}, {"time": 1327, "pitch": 74, "duration": 4, "velocity": 89}, {"time": 1330, "pitch": 72, "duration": 3, "velocity": 66}, {"time": 1333, "pitch": 74, "duration": 6, "velocity": 87}, {"time": 1339, "pitch": 74, "duration": 9, "velocity": 93}, {"time": 1348, "pitch": 76, "duration": 3, "velocity": 89}, {"time": 1351, "pitch": 74, "duration": 4, "velocity": 79}, {"time": 1354, "pitch": 72, "duration": 3, "velocity": 81}, {"time": 1357, "pitch": 69, "duration": 6, "velocity": 80}, {"time": 1363, "pitch": 76, "duration": 9, "velocity": 87}, {"time": 1372, "pitch": 74, "duration": 3, "velocity": 98}, {"time": 1375, "pitch": 76, "duration": 6, "velocity": 97}, {"time": 1381, "pitch": 74, "duration": 6, "velocity": 98}, {"time": 1387, "pitch": 72, "duration": 7, "velocity": 98}, {"time": 1393, "pitch": 71, "duration": 12, "velocity": 91}, {"time": 1405, "pitch": 69, "duration": 96, "velocity": 96}, {"time": 1501, "pitch": 64, "duration": 6, "velocity": 79}, {"time": 1507, "pitch": 69, "duration": 6, "velocity": 80}, {"time": 1513, "pitch": 72, "duration": 7, "velocity": 84}, {"time": 1519, "pitch": 71, "duration": 6, "velocity": 86}, {"time": 1525, "pitch": 67, "duration": 6, "velocity": 66}, {"time": 1531, "pitch": 62, "duration": 7, "velocity": 57}, {"time": 1537, "pitch": 64, "duration": 60, "velocity": 64}, {"time": 1597, "pitch": 64, "duration": 6, "velocity": 72}, {"time": 1603, "pitch": 69, "duration": 6, "velocity": 65}, {"time": 1609, "pitch": 72, "duration": 7, "velocity": 77}, {"time": 1615, "pitch": 71, "duration": 6, "velocity": 90}, {"time": 1621, "pitch": 67, "duration": 6, "velocity": 80}, {"time": 1627, "pitch": 64, "duration": 6, "velocity": 65}, {"time": 1633, "pitch": 71, "duration": 9, "velocity": 86}, {"time": 1642, "pitch": 69, "duration": 42, "velocity": 86}, {"time": 1684, "pitch": 69, "duration": 4, "velocity": 58}, {"time": 1687, "pitch": 74, "duration": 3, "velocity": 91}, {"time": 1690, "pitch": 76, "duration": 6, "velocity": 87}, {"time": 1696, "pitch": 69, "duration": 3, "velocity": 72}, {"time": 1699, "pitch": 74, "duration": 3, "velocity": 86}, {"time": 1702, "pitch": 76, "duration": 6, "velocity": 90}, {"time": 1708, "pitch": 69, "duration": 3, "velocity": 79}, {"time": 1711, "pitch": 74, "duration": 3, "velocity": 93}, {"time": 1714, "pitch": 76, "duration": 6, "velocity": 92}, {"time": 1720, "pitch": 69, "duration": 3, "velocity": 64}, {"time": 1723, "pitch": 74, "duration": 12, "velocity": 90}, {"time": 1735, "pitch": 72, "duration": 3, "velocity": 101}, {"time": 1738, "pitch": 74, "duration": 6, "velocity": 93}, {"time": 1744, "pitch": 64, "duration": 3, "velocity": 82}, {"time": 1747, "pitch": 72, "duration": 5, "velocity": 89}, {"time": 1750, "pitch": 74, "duration": 6, "velocity": 92}, {"time": 1756, "pitch": 64, "duration": 3, "velocity": 74}, {"time": 1759, "pitch": 72, "duration": 5, "velocity": 90}, {"time": 1762, "pitch": 74, "duration": 6, "velocity": 93}, {"time": 1768, "pitch": 64, "duration": 6, "velocity": 81}, {"time": 1774, "pitch": 72, "duration": 15, "velocity": 96}, {"time": 1789, "pitch": 64, "duration": 6, "velocity": 82}, {"time": 1795, "pitch": 69, "duration": 6, "velocity": 84}, {"time": 1801, "pitch": 76, "duration": 6, "velocity": 90}, {"time": 1807, "pitch": 74, "duration": 6, "velocity": 94}, {"time": 1813, "pitch": 71, "duration": 6, "velocity": 79}, {"time": 1819, "pitch": 67, "duration": 6, "velocity": 79}, {"time": 1825, "pitch": 71, "duration": 9, "velocity": 93}, {"time": 1834, "pitch": 69, "duration": 78, "velocity": 93}, {"time": 1912, "pitch": 69, "duration": 3, "velocity": 82}, {"time": 1915, "pitch": 81, "duration": 6, "velocity": 90}, {"time": 1921, "pitch": 79, "duration": 6, "velocity": 99}, {"time": 1927, "pitch": 76, "duration": 4, "velocity": 93}, {"time": 1930, "pitch": 75, "duration": 3, "velocity": 59}, {"time": 1933, "pitch": 76, "duration": 4, "velocity": 65}, {"time": 1936, "pitch": 75, "duration": 3, "velocity": 52}, {"time": 1939, "pitch": 76, "duration": 6, "velocity": 73}, {"time": 1945, "pitch": 75, "duration": 3, "velocity": 89}, {"time": 1948, "pitch": 76, "duration": 6, "velocity": 84}, {"time": 1954, "pitch": 75, "duration": 3, "velocity": 54}, {"time": 1957, "pitch": 76, "duration": 6, "velocity": 66}, {"time": 1963, "pitch": 76, "duration": 9, "velocity": 71}, {"time": 1972, "pitch": 72, "duration": 3, "velocity": 90}, {"time": 1975, "pitch": 74, "duration": 5, "velocity": 79}, {"time": 1978, "pitch": 72, "duration": 3, "velocity": 66}, {"time": 1981, "pitch": 74, "duration": 4, "velocity": 84}, {"time": 1984, "pitch": 72, "duration": 3, "velocity": 66}, {"time": 1987, "pitch": 74, "duration": 6, "velocity": 87}, {"time": 1993, "pitch": 76, "duration": 3, "velocity": 98}, {"time": 1996, "pitch": 74, "duration": 6, "velocity": 94}, {"time": 2002, "pitch": 72, "duration": 3, "velocity": 91}, {"time": 2005, "pitch": 69, "duration": 6, "velocity": 91}, {"time": 2011, "pitch": 69, "duration": 9, "velocity": 94}, {"time": 2020, "pitch": 72, "duration": 3, "velocity": 90}, {"time": 2023, "pitch": 74, "duration": 4, "velocity": 98}, {"time": 2026, "pitch": 72, "duration": 3, "velocity": 89}, {"time": 2029, "pitch": 74, "duration": 6, "velocity": 94}, {"time": 2035, "pitch": 74, "duration": 9, "velocity": 105}, {"time": 2044, "pitch": 76, "duration": 3, "velocity": 91}, {"time": 2047, "pitch": 74, "duration": 4, "velocity": 97}, {"time": 2050, "pitch": 72, "duration": 3, "velocity": 90}, {"time": 2053, "pitch": 69, "duration": 6, "velocity": 94}, {"time": 2059, "pitch": 76, "duration": 9, "velocity": 94}, {"time": 2068, "pitch": 76, "duration": 3, "velocity": 101}, {"time": 2071, "pitch": 74, "duration": 6, "velocity": 98}, {"time": 2077, "pitch": 76, "duration": 4, "velocity": 77}, {"time": 2080, "pitch": 74, "duration": 6, "velocity": 90}, {"time": 2086, "pitch": 69, "duration": 6, "velocity": 89}, {"time": 2092, "pitch": 71, "duration": 15, "velocity": 96}, {"time": 2107, "pitch": 81, "duration": 7, "velocity": 109}, {"time": 2113, "pitch": 79, "duration": 6, "velocity": 101}, {"time": 2119, "pitch": 76, "duration": 4, "velocity": 93}, {"time": 2122, "pitch": 75, "duration": 3, "velocity": 59}, {"time": 2125, "pitch": 76, "duration": 4, "velocity": 65}, {"time": 2128, "pitch": 75, "duration": 3, "velocity": 52}, {"time": 2131, "pitch": 76, "duration": 6, "velocity": 73}, {"time": 2137, "pitch": 75, "duration": 3, "velocity": 89}, {"time": 2140, "pitch": 76, "duration": 6, "velocity": 84}, {"time": 2146, "pitch": 75, "duration": 3, "velocity": 54}, {"time": 2149, "pitch": 76, "duration": 6, "velocity": 66}, {"time": 2155, "pitch": 76, "duration": 9, "velocity": 71}, {"time": 2164, "pitch": 76, "duration": 3, "velocity": 54}, {"time": 2167, "pitch": 81, "duration": 4, "velocity": 87}, {"time": 2170, "pitch": 80, "duration": 3, "velocity": 54}, {"time": 2173, "pitch": 81, "duration": 3, "velocity": 66}, {"time": 2176, "pitch": 80, "duration": 3, "velocity": 59}, {"time": 2179, "pitch": 81, "duration": 6, "velocity": 66}, {"time": 2185, "pitch": 76, "duration": 4, "velocity": 58}, {"time": 2188, "pitch": 74, "duration": 6, "velocity": 74}, {"time": 2194, "pitch": 72, "duration": 3, "velocity": 65}, {"time": 2197, "pitch": 69, "duration": 6, "velocity": 64}, {"time": 2203, "pitch": 69, "duration": 9, "velocity": 93}, {"time": 2212, "pitch": 72, "duration": 3, "velocity": 91}, {"time": 2215, "pitch": 74, "duration": 4, "velocity": 89}, {"time": 2218, "pitch": 72, "duration": 3, "velocity": 66}, {"time": 2221, "pitch": 74, "duration": 6, "velocity": 87}, {"time": 2227, "pitch": 74, "duration": 9, "velocity": 93}, {"time": 2236, "pitch": 76, "duration": 3, "velocity": 89}, {"time": 2239, "pitch": 74, "duration": 4, "velocity": 79}, {"time": 2242, "pitch": 72, "duration": 3, "velocity": 81}, {"time": 2245, "pitch": 69, "duration": 6, "velocity": 80}, {"time": 2251, "pitch": 76, "duration": 9, "velocity": 87}, {"time": 2260, "pitch": 74, "duration": 3, "velocity": 98}, {"time": 2263, "pitch": 76, "duration": 6, "velocity": 97}, {"time": 2269, "pitch": 74, "duration": 6, "velocity": 98}, {"time": 2275, "pitch": 72, "duration": 7, "velocity": 98}, {"time": 2281, "pitch": 71, "duration": 12, "velocity": 91}, {"time": 2293, "pitch": 69, "duration": 39, "velocity": 96}, {"time": 2332, "pitch": 67, "duration": 3, "velocity": 96}, {"time": 2335, "pitch": 64, "duration": 246, "velocity": 96}, {"time": 2581, "pitch": 76, "duration": 6, "velocity": 64}, {"time": 2587, "pitch": 74, "duration": 7, "velocity": 77}, {"time": 2593, "pitch": 76, "duration": 6, "velocity": 89}, {"time": 2599, "pitch": 74, "duration": 7, "velocity": 65}, {"time": 2605, "pitch": 76, "duration": 5, "velocity": 84}, {"time": 2608, "pitch": 74, "duration": 6, "velocity": 79}, {"time": 2614, "pitch": 72, "duration": 3, "velocity": 77}, {"time": 2617, "pitch": 69, "duration": 3, "velocity": 72}, {"time": 2620, "pitch": 67, "duration": 3, "velocity": 62}, {"time": 2623, "pitch": 69, "duration": 6, "velocity": 79}, {"time": 2629, "pitch": 76, "duration": 7, "velocity": 86}, {"time": 2635, "pitch": 74, "duration": 6, "velocity": 93}, {"time": 2641, "pitch": 76, "duration": 6, "velocity": 91}, {"time": 2647, "pitch": 74, "duration": 6, "velocity": 80}, {"time": 2653, "pitch": 76, "duration": 3, "velocity": 69}, {"time": 2656, "pitch": 74, "duration": 6, "velocity": 77}, {"time": 2662, "pitch": 72, "duration": 3, "velocity": 66}, {"time": 2665, "pitch": 69, "duration": 4, "velocity": 65}, {"time": 2668, "pitch": 67, "duration": 3, "velocity": 63}, {"time": 2671, "pitch": 69, "duration": 6, "velocity": 65}, {"time": 2677, "pitch": 76, "duration": 6, "velocity": 64}, {"time": 2683, "pitch": 74, "duration": 7, "velocity": 77}, {"time": 2689, "pitch": 76, "duration": 6, "velocity": 89}, {"time": 2695, "pitch": 74, "duration": 7, "velocity": 65}, {"time": 2701, "pitch": 76, "duration": 6, "velocity": 84}, {"time": 2707, "pitch": 74, "duration": 5, "velocity": 79}, {"time": 2710, "pitch": 72, "duration": 3, "velocity": 77}, {"time": 2713, "pitch": 69, "duration": 3, "velocity": 72}, {"time": 2716, "pitch": 67, "duration": 3, "velocity": 62}, {"time": 2719, "pitch": 69, "duration": 6, "velocity": 79}, {"time": 2725, "pitch": 76, "duration": 7, "velocity": 86}, {"time": 2731, "pitch": 74, "duration": 6, "velocity": 93}, {"time": 2737, "pitch": 76, "duration": 6, "velocity": 91}, {"time": 2743, "pitch": 74, "duration": 6, "velocity": 80}, {"time": 2749, "pitch": 76, "duration": 3, "velocity": 69}, {"time": 2752, "pitch": 74, "duration": 6, "velocity": 77}, {"time": 2758, "pitch": 72, "duration": 3, "velocity": 66}, {"time": 2761, "pitch": 69, "duration": 4, "velocity": 65}, {"time": 2764, "pitch": 67, "duration": 3, "velocity": 63}, {"time": 2767, "pitch": 69, "duration": 6, "velocity": 65}, {"time": 2773, "pitch": 76, "duration": 6, "velocity": 85}, {"time": 2779, "pitch": 74, "duration": 6, "velocity": 96}, {"time": 2785, "pitch": 76, "duration": 6, "velocity": 97}, {"time": 2791, "pitch": 74, "duration": 6, "velocity": 83}, {"time": 2797, "pitch": 76, "duration": 3, "velocity": 90}, {"time": 2800, "pitch": 74, "duration": 6, "velocity": 85}, {"time": 2806, "pitch": 72, "duration": 3, "velocity": 64}, {"time": 2809, "pitch": 69, "duration": 6, "velocity": 79}, {"time": 2815, "pitch": 76, "duration": 6, "velocity": 116}, {"time": 2821, "pitch": 76, "duration": 6, "velocity": 98}, {"time": 2827, "pitch": 76, "duration": 6, "velocity": 101}, {"time": 2833, "pitch": 76, "duration": 6, "velocity": 109}, {"time": 2839, "pitch": 76, "duration": 24, "velocity": 109}, {"time": 2863, "pitch": 77, "duration": 6, "velocity": 98}, {"time": 2869, "pitch": 77, "duration": 6, "velocity": 97}, {"time": 2875, "pitch": 77, "duration": 6, "velocity": 108}, {"time": 2881, "pitch": 77, "duration": 6, "velocity": 103}, {"time": 2887, "pitch": 77, "duration": 10, "velocity": 108}, {"time": 2896, "pitch": 70, "duration": 3, "velocity": 82}, {"time": 2899, "pitch": 82, "duration": 6, "velocity": 90}, {"time": 2905, "pitch": 80, "duration": 6, "velocity": 99}, {"time": 2911, "pitch": 77, "duration": 4, "velocity": 93}, {"time": 2914, "pitch": 76, "duration": 3, "velocity": 59}, {"time": 2917, "pitch": 77, "duration": 4, "velocity": 65}, {"time": 2920, "pitch": 76, "duration": 3, "velocity": 52}, {"time": 2923, "pitch": 77, "duration": 6, "velocity": 73}, {"time": 2929, "pitch": 76, "duration": 3, "velocity": 89}, {"time": 2932, "pitch": 77, "duration": 6, "velocity": 84}, {"time": 2938, "pitch": 76, "duration": 3, "velocity": 54}, {"time": 2941, "pitch": 77, "duration": 6, "velocity": 66}, {"time": 2947, "pitch": 77, "duration": 9, "velocity": 71}, {"time": 2956, "pitch": 77, "duration": 3, "velocity": 90}, {"time": 2959, "pitch": 82, "duration": 3, "velocity": 79}, {"time": 2962, "pitch": 81, "duration": 3, "velocity": 66}, {"time": 2965, "pitch": 82, "duration": 3, "velocity": 84}, {"time": 2968, "pitch": 81, "duration": 3, "velocity": 66}, {"time": 2971, "pitch": 82, "duration": 6, "velocity": 87}, {"time": 2977, "pitch": 77, "duration": 3, "velocity": 98}, {"time": 2980, "pitch": 75, "duration": 6, "velocity": 94}, {"time": 2986, "pitch": 73, "duration": 3, "velocity": 91}, {"time": 2989, "pitch": 70, "duration": 6, "velocity": 91}, {"time": 2995, "pitch": 70, "duration": 9, "velocity": 94}, {"time": 3004, "pitch": 73, "duration": 3, "velocity": 90}, {"time": 3007, "pitch": 75, "duration": 4, "velocity": 98}, {"time": 3010, "pitch": 73, "duration": 3, "velocity": 89}, {"time": 3013, "pitch": 75, "duration": 6, "velocity": 94}, {"time": 3019, "pitch": 75, "duration": 9, "velocity": 105}, {"time": 3028, "pitch": 77, "duration": 3, "velocity": 91}, {"time": 3031, "pitch": 75, "duration": 4, "velocity": 97}, {"time": 3034, "pitch": 73, "duration": 3, "velocity": 90}, {"time": 3037, "pitch": 70, "duration": 6, "velocity": 94}, {"time": 3043, "pitch": 77, "duration": 9, "velocity": 94}, {"time": 3052, "pitch": 75, "duration": 3, "velocity": 97}, {"time": 3055, "pitch": 77, "duration": 12, "velocity": 99}, {"time": 3067, "pitch": 75, "duration": 12, "velocity": 110}, {"time": 3079, "pitch": 73, "duration": 12, "velocity": 105}, {"time": 3091, "pitch": 72, "duration": 12, "velocity": 108}, {"time": 3103, "pitch": 70, "duration": 49, "velocity": 107}], "annotations": [{"time": 329, "annotation": {"number": 1, "value": 1}, "group": "control_change"}, {"time": 343, "annotation": {"number": 1, "value": 0}, "group": "control_change"}, {"time": 343, "annotation": {"number": 1, "value": 1}, "group": "control_change"}, {"time": 344, "annotation": {"number": 1, "value": 0}, "group": "control_change"}, {"time": 344, "annotation": {"number": 1, "value": 1}, "group": "control_change"}, {"time": 352, "annotation": {"number": 1, "value": 0}, "group": "control_change"}, {"time": 360, "annotation": {"number": 1, "value": 1}, "group": "control_change"}, {"time": 367, "annotation": {"number": 1, "value": 0}, "group": "control_change"}, {"time": 367, "annotation": {"number": 1, "value": 1}, "group": "control_change"}, {"time": 368, "annotation": {"number": 1, "value": 1}, "group": "control_change"}, {"time": 368, "annotation": {"number": 1, "value": 0}, "group": "control_change"}, {"time": 1043, "annotation": {"number": 1, "value": 0}, "group": "control_change"}, {"time": 1051, "annotation": {"number": 1, "value": 1}, "group": "control_change"}, {"time": 1052, "annotation": {"number": 1, "value": 0}, "group": "control_change"}, {"time": 1054, "annotation": {"number": 1, "value": 1}, "group": "control_change"}, {"time": 1054, "annotation": {"number": 1, "value": 0}, "group": "control_change"}, {"time": 1235, "annotation": {"number": 1, "value": 0}, "group": "control_change"}, {"time": 1242, "annotation": {"number": 1, "value": 1}, "group": "control_change"}, {"time": 1243, "annotation": {"number": 1, "value": 0}, "group": "control_change"}, {"time": 1245, "annotation": {"number": 1, "value": 1}, "group": "control_change"}, {"time": 1245, "annotation": {"number": 1, "value": 0}, "group": "control_change"}, {"time": 1393, "annotation": {"number": 1, "value": 1}, "group": "control_change"}, {"time": 1601, "annotation": {"number": 1, "value": 1}, "group": "control_change"}, {"time": 1615, "annotation": {"number": 1, "value": 0}, "group": "control_change"}, {"time": 1615, "annotation": {"number": 1, "value": 1}, "group": "control_change"}, {"time": 1616, "annotation": {"number": 1, "value": 1}, "group": "control_change"}, {"time": 1616, "annotation": {"number": 1, "value": 0}, "group": "control_change"}, {"time": 1624, "annotation": {"number": 1, "value": 0}, "group": "control_change"}, {"time": 1633, "annotation": {"number": 1, "value": 1}, "group": "control_change"}, {"time": 1639, "annotation": {"number": 1, "value": 0}, "group": "control_change"}, {"time": 1639, "annotation": {"number": 1, "value": 1}, "group": "control_change"}, {"time": 1640, "annotation": {"number": 1, "value": 1}, "group": "control_change"}, {"time": 1640, "annotation": {"number": 1, "value": 0}, "group": "control_change"}, {"time": 1641, "annotation": {"number": 1, "value": 1}, "group": "control_change"}, {"time": 1931, "annotation": {"number": 1, "value": 0}, "group": "control_change"}, {"time": 1938, "annotation": {"number": 1, "value": 1}, "group": "control_change"}, {"time": 1939, "annotation": {"number": 1, "value": 0}, "group": "control_change"}, {"time": 1941, "annotation": {"number": 1, "value": 1}, "group": "control_change"}, {"time": 1941, "annotation": {"number": 1, "value": 0}, "group": "control_change"}, {"time": 2122, "annotation": {"number": 1, "value": 0}, "group": "control_change"}, {"time": 2129, "annotation": {"number": 1, "value": 1}, "group": "control_change"}, {"time": 2130, "annotation": {"number": 1, "value": 0}, "group": "control_change"}, {"time": 2132, "annotation": {"number": 1, "value": 1}, "group": "control_change"}, {"time": 2133, "annotation": {"number": 1, "value": 0}, "group": "control_change"}, {"time": 2280, "annotation": {"number": 1, "value": 1}, "group": "control_change"}, {"time": 2608, "annotation": {"number": 1, "value": 1}, "group": "control_change"}, {"time": 2704, "annotation": {"number": 1, "value": 1}, "group": "control_change"}, {"time": 2916, "annotation": {"number": 1, "value": 0}, "group": "control_change"}, {"time": 2924, "annotation": {"number": 1, "value": 1}, "group": "control_change"}, {"time": 2924, "annotation": {"number": 1, "value": 0}, "group": "control_change"}, {"time": 2926, "annotation": {"number": 1, "value": 1}, "group": "control_change"}, {"time": 2927, "annotation": {"number": 1, "value": 0}, "group": "control_change"}]}, {"program": 0, "is_drum": false, "name": "BRIDGE", "notes": [{"time": 37, "pitch": 76, "duration": 5, "velocity": 83}, {"time": 42, "pitch": 75, "duration": 1, "velocity": 78}, {"time": 43, "pitch": 76, "duration": 5, "velocity": 82}, {"time": 48, "pitch": 75, "duration": 2, "velocity": 75}, {"time": 49, "pitch": 76, "duration": 5, "velocity": 86}, {"time": 54, "pitch": 67, "duration": 1, "velocity": 76}, {"time": 55, "pitch": 74, "duration": 6, "velocity": 83}, {"time": 61, "pitch": 76, "duration": 5, "velocity": 83}, {"time": 66, "pitch": 74, "duration": 19, "velocity": 83}, {"time": 85, "pitch": 76, "duration": 5, "velocity": 84}, {"time": 90, "pitch": 75, "duration": 1, "velocity": 81}, {"time": 91, "pitch": 76, "duration": 5, "velocity": 83}, {"time": 96, "pitch": 75, "duration": 1, "velocity": 76}, {"time": 97, "pitch": 76, "duration": 5, "velocity": 90}, {"time": 102, "pitch": 67, "duration": 2, "velocity": 76}, {"time": 103, "pitch": 74, "duration": 6, "velocity": 84}, {"time": 109, "pitch": 76, "duration": 5, "velocity": 80}, {"time": 114, "pitch": 74, "duration": 19, "velocity": 83}, {"time": 133, "pitch": 76, "duration": 5, "velocity": 80}, {"time": 138, "pitch": 75, "duration": 1, "velocity": 72}, {"time": 139, "pitch": 76, "duration": 5, "velocity": 81}, {"time": 144, "pitch": 75, "duration": 2, "velocity": 59}, {"time": 145, "pitch": 76, "duration": 5, "velocity": 84}, {"time": 150, "pitch": 64, "duration": 2, "velocity": 83}, {"time": 151, "pitch": 74, "duration": 6, "velocity": 84}, {"time": 157, "pitch": 76, "duration": 5, "velocity": 84}, {"time": 162, "pitch": 74, "duration": 19, "velocity": 90}, {"time": 181, "pitch": 76, "duration": 18, "velocity": 90}, {"time": 199, "pitch": 74, "duration": 24, "velocity": 90}, {"time": 595, "pitch": 40, "duration": 3, "velocity": 84}, {"time": 600, "pitch": 40, "duration": 3, "velocity": 95}, {"time": 601, "pitch": 43, "duration": 6, "velocity": 91}, {"time": 607, "pitch": 45, "duration": 18, "velocity": 86}, {"time": 3109, "pitch": 77, "duration": 3, "velocity": 83}, {"time": 3114, "pitch": 76, "duration": 1, "velocity": 78}, {"time": 3115, "pitch": 77, "duration": 3, "velocity": 82}, {"time": 3120, "pitch": 76, "duration": 2, "velocity": 75}, {"time": 3121, "pitch": 77, "duration": 2, "velocity": 86}, {"time": 3126, "pitch": 68, "duration": 1, "velocity": 76}, {"time": 3127, "pitch": 75, "duration": 3, "velocity": 83}, {"time": 3133, "pitch": 77, "duration": 3, "velocity": 83}, {"time": 3138, "pitch": 75, "duration": 15, "velocity": 83}, {"time": 3157, "pitch": 77, "duration": 2, "velocity": 84}, {"time": 3162, "pitch": 76, "duration": 1, "velocity": 81}, {"time": 3163, "pitch": 77, "duration": 2, "velocity": 83}, {"time": 3168, "pitch": 76, "duration": 1, "velocity": 76}, {"time": 3169, "pitch": 77, "duration": 2, "velocity": 90}, {"time": 3174, "pitch": 68, "duration": 2, "velocity": 76}, {"time": 3175, "pitch": 75, "duration": 3, "velocity": 84}, {"time": 3181, "pitch": 77, "duration": 3, "velocity": 80}, {"time": 3186, "pitch": 75, "duration": 16, "velocity": 83}, {"time": 3205, "pitch": 77, "duration": 4, "velocity": 80}, {"time": 3210, "pitch": 76, "duration": 1, "velocity": 72}, {"time": 3211, "pitch": 77, "duration": 2, "velocity": 81}, {"time": 3216, "pitch": 76, "duration": 2, "velocity": 59}, {"time": 3217, "pitch": 77, "duration": 2, "velocity": 84}, {"time": 3222, "pitch": 65, "duration": 2, "velocity": 83}, {"time": 3223, "pitch": 75, "duration": 2, "velocity": 84}, {"time": 3229, "pitch": 77, "duration": 3, "velocity": 84}, {"time": 3234, "pitch": 75, "duration": 16, "velocity": 90}, {"time": 3253, "pitch": 77, "duration": 17, "velocity": 90}, {"time": 3271, "pitch": 75, "duration": 17, "velocity": 90}]}, {"program": 0, "is_drum": false, "name": "PIANO", "notes": [{"time": 31, "pitch": 45, "duration": 16, "velocity": 43}, {"time": 31, "pitch": 52, "duration": 10, "velocity": 70}, {"time": 31, "pitch": 57, "duration": 10, "velocity": 57}, {"time": 31, "pitch": 60, "duration": 10, "velocity": 61}, {"time": 31, "pitch": 64, "duration": 10, "velocity": 73}, {"time": 31, "pitch": 67, "duration": 10, "velocity": 69}, {"time": 31, "pitch": 69, "duration": 10, "velocity": 71}, {"time": 43, "pitch": 60, "duration": 10, "velocity": 61}, {"time": 43, "pitch": 64, "duration": 10, "velocity": 73}, {"time": 43, "pitch": 67, "duration": 10, "velocity": 69}, {"time": 43, "pitch": 69, "duration": 10, "velocity": 71}, {"time": 55, "pitch": 40, "duration": 5, "velocity": 49}, {"time": 55, "pitch": 47, "duration": 14, "velocity": 76}, {"time": 55, "pitch": 52, "duration": 14, "velocity": 57}, {"time": 55, "pitch": 59, "duration": 5, "velocity": 69}, {"time": 55, "pitch": 62, "duration": 5, "velocity": 67}, {"time": 55, "pitch": 67, "duration": 6, "velocity": 61}, {"time": 61, "pitch": 40, "duration": 5, "velocity": 70}, {"time": 67, "pitch": 59, "duration": 5, "velocity": 69}, {"time": 67, "pitch": 62, "duration": 5, "velocity": 67}, {"time": 67, "pitch": 67, "duration": 6, "velocity": 61}, {"time": 70, "pitch": 40, "duration": 2, "velocity": 57}, {"time": 73, "pitch": 59, "duration": 5, "velocity": 69}, {"time": 73, "pitch": 62, "duration": 5, "velocity": 67}, {"time": 73, "pitch": 67, "duration": 6, "velocity": 61}, {"time": 79, "pitch": 45, "duration": 14, "velocity": 24}, {"time": 79, "pitch": 52, "duration": 15, "velocity": 60}, {"time": 79, "pitch": 57, "duration": 11, "velocity": 49}, {"time": 79, "pitch": 59, "duration": 12, "velocity": 58}, {"time": 79, "pitch": 60, "duration": 11, "velocity": 59}, {"time": 79, "pitch": 64, "duration": 12, "velocity": 74}, {"time": 79, "pitch": 67, "duration": 11, "velocity": 48}, {"time": 91, "pitch": 57, "duration": 11, "velocity": 49}, {"time": 91, "pitch": 59, "duration": 12, "velocity": 58}, {"time": 91, "pitch": 60, "duration": 11, "velocity": 59}, {"time": 91, "pitch": 64, "duration": 12, "velocity": 74}, {"time": 91, "pitch": 67, "duration": 11, "velocity": 48}, {"time": 103, "pitch": 52, "duration": 6, "velocity": 72}, {"time": 103, "pitch": 55, "duration": 7, "velocity": 60}, {"time": 103, "pitch": 59, "duration": 7, "velocity": 75}, {"time": 103, "pitch": 62, "duration": 8, "velocity": 63}, {"time": 109, "pitch": 40, "duration": 5, "velocity": 81}, {"time": 115, "pitch": 52, "duration": 3, "velocity": 81}, {"time": 115, "pitch": 55, "duration": 3, "velocity": 81}, {"time": 115, "pitch": 59, "duration": 3, "velocity": 81}, {"time": 115, "pitch": 62, "duration": 3, "velocity": 81}, {"time": 118, "pitch": 40, "duration": 2, "velocity": 79}, {"time": 118, "pitch": 71, "duration": 1, "velocity": 76}, {"time": 121, "pitch": 55, "duration": 3, "velocity": 86}, {"time": 121, "pitch": 59, "duration": 3, "velocity": 86}, {"time": 121, "pitch": 62, "duration": 3, "velocity": 86}, {"time": 127, "pitch": 45, "duration": 18, "velocity": 49}, {"time": 127, "pitch": 52, "duration": 17, "velocity": 61}, {"time": 127, "pitch": 60, "duration": 7, "velocity": 56}, {"time": 127, "pitch": 64, "duration": 7, "velocity": 67}, {"time": 127, "pitch": 67, "duration": 8, "velocity": 71}, {"time": 139, "pitch": 57, "duration": 5, "velocity": 49}, {"time": 142, "pitch": 59, "duration": 2, "velocity": 59}, {"time": 145, "pitch": 62, "duration": 3, "velocity": 78}, {"time": 148, "pitch": 67, "duration": 16, "velocity": 43}, {"time": 151, "pitch": 52, "duration": 5, "velocity": 71}, {"time": 151, "pitch": 59, "duration": 15, "velocity": 67}, {"time": 151, "pitch": 62, "duration": 15, "velocity": 78}, {"time": 157, "pitch": 40, "duration": 3, "velocity": 64}, {"time": 163, "pitch": 52, "duration": 6, "velocity": 64}, {"time": 169, "pitch": 59, "duration": 4, "velocity": 67}, {"time": 169, "pitch": 62, "duration": 4, "velocity": 78}, {"time": 175, "pitch": 50, "duration": 9, "velocity": 71}, {"time": 175, "pitch": 57, "duration": 15, "velocity": 51}, {"time": 175, "pitch": 60, "duration": 14, "velocity": 76}, {"time": 175, "pitch": 65, "duration": 15, "velocity": 63}, {"time": 178, "pitch": 62, "duration": 13, "velocity": 3}, {"time": 187, "pitch": 50, "duration": 3, "velocity": 79}, {"time": 190, "pitch": 38, "duration": 2, "velocity": 62}, {"time": 193, "pitch": 50, "duration": 5, "velocity": 57}, {"time": 199, "pitch": 52, "duration": 19, "velocity": 57}, {"time": 199, "pitch": 55, "duration": 16, "velocity": 57}, {"time": 199, "pitch": 59, "duration": 15, "velocity": 57}, {"time": 199, "pitch": 62, "duration": 15, "velocity": 57}, {"time": 217, "pitch": 62, "duration": 5, "velocity": 68}, {"time": 223, "pitch": 45, "duration": 17, "velocity": 61}, {"time": 223, "pitch": 57, "duration": 17, "velocity": 48}, {"time": 223, "pitch": 60, "duration": 16, "velocity": 59}, {"time": 223, "pitch": 62, "duration": 17, "velocity": 35}, {"time": 223, "pitch": 64, "duration": 16, "velocity": 58}, {"time": 247, "pitch": 52, "duration": 18, "velocity": 53}, {"time": 247, "pitch": 59, "duration": 13, "velocity": 57}, {"time": 247, "pitch": 62, "duration": 15, "velocity": 61}, {"time": 247, "pitch": 67, "duration": 14, "velocity": 72}, {"time": 247, "pitch": 71, "duration": 15, "velocity": 75}, {"time": 262, "pitch": 59, "duration": 2, "velocity": 60}, {"time": 265, "pitch": 62, "duration": 2, "velocity": 69}, {"time": 265, "pitch": 67, "duration": 2, "velocity": 77}, {"time": 271, "pitch": 45, "duration": 30, "velocity": 50}, {"time": 271, "pitch": 57, "duration": 8, "velocity": 56}, {"time": 271, "pitch": 60, "duration": 19, "velocity": 58}, {"time": 271, "pitch": 64, "duration": 18, "velocity": 61}, {"time": 271, "pitch": 69, "duration": 19, "velocity": 58}, {"time": 292, "pitch": 57, "duration": 6, "velocity": 2}, {"time": 298, "pitch": 60, "duration": 5, "velocity": 63}, {"time": 298, "pitch": 64, "duration": 5, "velocity": 73}, {"time": 298, "pitch": 69, "duration": 6, "velocity": 62}, {"time": 304, "pitch": 45, "duration": 9, "velocity": 69}, {"time": 304, "pitch": 57, "duration": 4, "velocity": 52}, {"time": 307, "pitch": 59, "duration": 5, "velocity": 72}, {"time": 307, "pitch": 64, "duration": 6, "velocity": 67}, {"time": 307, "pitch": 67, "duration": 5, "velocity": 72}, {"time": 319, "pitch": 41, "duration": 19, "velocity": 62}, {"time": 319, "pitch": 53, "duration": 13, "velocity": 56}, {"time": 319, "pitch": 60, "duration": 15, "velocity": 59}, {"time": 319, "pitch": 65, "duration": 16, "velocity": 76}, {"time": 319, "pitch": 69, "duration": 16, "velocity": 69}, {"time": 337, "pitch": 53, "duration": 2, "velocity": 48}, {"time": 337, "pitch": 60, "duration": 2, "velocity": 62}, {"time": 343, "pitch": 40, "duration": 18, "velocity": 73}, {"time": 343, "pitch": 52, "duration": 11, "velocity": 53}, {"time": 343, "pitch": 62, "duration": 15, "velocity": 59}, {"time": 343, "pitch": 67, "duration": 13, "velocity": 68}, {"time": 343, "pitch": 71, "duration": 14, "velocity": 69}, {"time": 358, "pitch": 52, "duration": 3, "velocity": 39}, {"time": 361, "pitch": 62, "duration": 2, "velocity": 75}, {"time": 361, "pitch": 67, "duration": 3, "velocity": 72}, {"time": 361, "pitch": 71, "duration": 6, "velocity": 80}, {"time": 367, "pitch": 45, "duration": 44, "velocity": 69}, {"time": 367, "pitch": 57, "duration": 8, "velocity": 57}, {"time": 367, "pitch": 64, "duration": 12, "velocity": 68}, {"time": 367, "pitch": 67, "duration": 11, "velocity": 72}, {"time": 367, "pitch": 72, "duration": 14, "velocity": 76}, {"time": 379, "pitch": 57, "duration": 11, "velocity": 39}, {"time": 388, "pitch": 62, "duration": 5, "velocity": 71}, {"time": 388, "pitch": 67, "duration": 4, "velocity": 71}, {"time": 388, "pitch": 69, "duration": 4, "velocity": 69}, {"time": 388, "pitch": 71, "duration": 4, "velocity": 79}, {"time": 394, "pitch": 57, "duration": 15, "velocity": 41}, {"time": 400, "pitch": 59, "duration": 2, "velocity": 51}, {"time": 403, "pitch": 59, "duration": 2, "velocity": 34}, {"time": 403, "pitch": 60, "duration": 5, "velocity": 84}, {"time": 403, "pitch": 64, "duration": 6, "velocity": 81}, {"time": 403, "pitch": 67, "duration": 1, "velocity": 56}, {"time": 409, "pitch": 59, "duration": 2, "velocity": 44}, {"time": 409, "pitch": 67, "duration": 3, "velocity": 72}, {"time": 415, "pitch": 41, "duration": 19, "velocity": 73}, {"time": 415, "pitch": 53, "duration": 6, "velocity": 62}, {"time": 415, "pitch": 60, "duration": 9, "velocity": 68}, {"time": 415, "pitch": 65, "duration": 9, "velocity": 78}, {"time": 415, "pitch": 69, "duration": 9, "velocity": 63}, {"time": 415, "pitch": 72, "duration": 10, "velocity": 59}, {"time": 424, "pitch": 53, "duration": 4, "velocity": 47}, {"time": 427, "pitch": 60, "duration": 5, "velocity": 80}, {"time": 427, "pitch": 65, "duration": 6, "velocity": 78}, {"time": 427, "pitch": 69, "duration": 7, "velocity": 77}, {"time": 433, "pitch": 53, "duration": 1, "velocity": 50}, {"time": 439, "pitch": 40, "duration": 20, "velocity": 77}, {"time": 439, "pitch": 52, "duration": 8, "velocity": 69}, {"time": 439, "pitch": 62, "duration": 13, "velocity": 79}, {"time": 439, "pitch": 67, "duration": 12, "velocity": 79}, {"time": 439, "pitch": 71, "duration": 13, "velocity": 83}, {"time": 451, "pitch": 52, "duration": 4, "velocity": 15}, {"time": 454, "pitch": 62, "duration": 4, "velocity": 83}, {"time": 454, "pitch": 67, "duration": 5, "velocity": 83}, {"time": 454, "pitch": 69, "duration": 1, "velocity": 55}, {"time": 454, "pitch": 71, "duration": 2, "velocity": 78}, {"time": 463, "pitch": 38, "duration": 18, "velocity": 73}, {"time": 463, "pitch": 50, "duration": 7, "velocity": 57}, {"time": 463, "pitch": 60, "duration": 10, "velocity": 72}, {"time": 463, "pitch": 65, "duration": 9, "velocity": 80}, {"time": 463, "pitch": 69, "duration": 10, "velocity": 69}, {"time": 463, "pitch": 72, "duration": 11, "velocity": 59}, {"time": 475, "pitch": 50, "duration": 2, "velocity": 37}, {"time": 475, "pitch": 60, "duration": 6, "velocity": 73}, {"time": 475, "pitch": 65, "duration": 6, "velocity": 83}, {"time": 475, "pitch": 69, "duration": 8, "velocity": 73}, {"time": 481, "pitch": 50, "duration": 2, "velocity": 54}, {"time": 487, "pitch": 36, "duration": 13, "velocity": 79}, {"time": 487, "pitch": 48, "duration": 6, "velocity": 55}, {"time": 487, "pitch": 62, "duration": 9, "velocity": 68}, {"time": 487, "pitch": 64, "duration": 9, "velocity": 68}, {"time": 487, "pitch": 67, "duration": 9, "velocity": 72}, {"time": 487, "pitch": 71, "duration": 9, "velocity": 74}, {"time": 496, "pitch": 48, "duration": 3, "velocity": 52}, {"time": 499, "pitch": 62, "duration": 4, "velocity": 80}, {"time": 499, "pitch": 64, "duration": 5, "velocity": 78}, {"time": 499, "pitch": 67, "duration": 5, "velocity": 80}, {"time": 499, "pitch": 69, "duration": 4, "velocity": 62}, {"time": 499, "pitch": 71, "duration": 4, "velocity": 78}, {"time": 502, "pitch": 36, "duration": 3, "velocity": 84}, {"time": 505, "pitch": 62, "duration": 4, "velocity": 82}, {"time": 505, "pitch": 64, "duration": 4, "velocity": 79}, {"time": 505, "pitch": 67, "duration": 4, "velocity": 70}, {"time": 505, "pitch": 69, "duration": 3, "velocity": 72}, {"time": 505, "pitch": 71, "duration": 4, "velocity": 80}, {"time": 511, "pitch": 41, "duration": 18, "velocity": 55}, {"time": 511, "pitch": 53, "duration": 7, "velocity": 63}, {"time": 511, "pitch": 57, "duration": 10, "velocity": 58}, {"time": 511, "pitch": 60, "duration": 10, "velocity": 80}, {"time": 511, "pitch": 65, "duration": 13, "velocity": 75}, {"time": 520, "pitch": 53, "duration": 7, "velocity": 57}, {"time": 523, "pitch": 57, "duration": 5, "velocity": 63}, {"time": 526, "pitch": 60, "duration": 3, "velocity": 77}, {"time": 529, "pitch": 65, "duration": 2, "velocity": 81}, {"time": 535, "pitch": 40, "duration": 16, "velocity": 69}, {"time": 535, "pitch": 52, "duration": 6, "velocity": 50}, {"time": 535, "pitch": 59, "duration": 10, "velocity": 57}, {"time": 535, "pitch": 62, "duration": 10, "velocity": 78}, {"time": 535, "pitch": 67, "duration": 10, "velocity": 60}, {"time": 547, "pitch": 52, "duration": 6, "velocity": 58}, {"time": 547, "pitch": 59, "duration": 6, "velocity": 77}, {"time": 553, "pitch": 62, "duration": 1, "velocity": 76}, {"time": 553, "pitch": 67, "duration": 1, "velocity": 62}, {"time": 559, "pitch": 45, "duration": 42, "velocity": 73}, {"time": 559, "pitch": 62, "duration": 6, "velocity": 72}, {"time": 559, "pitch": 64, "duration": 6, "velocity": 76}, {"time": 559, "pitch": 69, "duration": 5, "velocity": 42}, {"time": 565, "pitch": 57, "duration": 6, "velocity": 62}, {"time": 568, "pitch": 64, "duration": 7, "velocity": 84}, {"time": 574, "pitch": 57, "duration": 8, "velocity": 53}, {"time": 577, "pitch": 62, "duration": 3, "velocity": 61}, {"time": 580, "pitch": 64, "duration": 7, "velocity": 77}, {"time": 580, "pitch": 69, "duration": 6, "velocity": 79}, {"time": 586, "pitch": 57, "duration": 6, "velocity": 31}, {"time": 589, "pitch": 60, "duration": 3, "velocity": 59}, {"time": 589, "pitch": 67, "duration": 4, "velocity": 60}, {"time": 592, "pitch": 60, "duration": 2, "velocity": 62}, {"time": 592, "pitch": 64, "duration": 2, "velocity": 80}, {"time": 598, "pitch": 52, "duration": 3, "velocity": 53}, {"time": 601, "pitch": 55, "duration": 2, "velocity": 69}, {"time": 601, "pitch": 60, "duration": 3, "velocity": 77}, {"time": 604, "pitch": 62, "duration": 2, "velocity": 78}, {"time": 607, "pitch": 45, "duration": 16, "velocity": 83}, {"time": 607, "pitch": 57, "duration": 8, "velocity": 68}, {"time": 607, "pitch": 60, "duration": 10, "velocity": 83}, {"time": 607, "pitch": 64, "duration": 10, "velocity": 83}, {"time": 607, "pitch": 69, "duration": 9, "velocity": 82}, {"time": 616, "pitch": 57, "duration": 5, "velocity": 17}, {"time": 619, "pitch": 60, "duration": 3, "velocity": 84}, {"time": 619, "pitch": 64, "duration": 4, "velocity": 90}, {"time": 619, "pitch": 69, "duration": 4, "velocity": 82}, {"time": 624, "pitch": 52, "duration": 5, "velocity": 78}, {"time": 625, "pitch": 57, "duration": 3, "velocity": 72}, {"time": 628, "pitch": 64, "duration": 1, "velocity": 55}, {"time": 628, "pitch": 67, "duration": 2, "velocity": 76}, {"time": 631, "pitch": 40, "duration": 2, "velocity": 86}, {"time": 631, "pitch": 52, "duration": 1, "velocity": 53}, {"time": 631, "pitch": 59, "duration": 1, "velocity": 75}, {"time": 631, "pitch": 64, "duration": 1, "velocity": 82}, {"time": 631, "pitch": 67, "duration": 1, "velocity": 79}, {"time": 637, "pitch": 40, "duration": 17, "velocity": 80}, {"time": 637, "pitch": 52, "duration": 4, "velocity": 78}, {"time": 637, "pitch": 59, "duration": 8, "velocity": 84}, {"time": 637, "pitch": 64, "duration": 8, "velocity": 90}, {"time": 637, "pitch": 67, "duration": 8, "velocity": 82}, {"time": 648, "pitch": 52, "duration": 3, "velocity": 62}, {"time": 649, "pitch": 59, "duration": 2, "velocity": 80}, {"time": 649, "pitch": 64, "duration": 2, "velocity": 80}, {"time": 649, "pitch": 67, "duration": 3, "velocity": 80}, {"time": 654, "pitch": 52, "duration": 2, "velocity": 72}, {"time": 655, "pitch": 45, "duration": 2, "velocity": 82}, {"time": 655, "pitch": 60, "duration": 1, "velocity": 84}, {"time": 655, "pitch": 64, "duration": 1, "velocity": 83}, {"time": 655, "pitch": 69, "duration": 2, "velocity": 82}, {"time": 661, "pitch": 45, "duration": 13, "velocity": 81}, {"time": 661, "pitch": 60, "duration": 9, "velocity": 81}, {"time": 661, "pitch": 64, "duration": 9, "velocity": 84}, {"time": 661, "pitch": 69, "duration": 9, "velocity": 82}, {"time": 673, "pitch": 60, "duration": 5, "velocity": 82}, {"time": 673, "pitch": 64, "duration": 5, "velocity": 82}, {"time": 673, "pitch": 69, "duration": 5, "velocity": 82}, {"time": 676, "pitch": 45, "duration": 1, "velocity": 76}, {"time": 682, "pitch": 60, "duration": 1, "velocity": 86}, {"time": 682, "pitch": 64, "duration": 1, "velocity": 86}, {"time": 682, "pitch": 69, "duration": 2, "velocity": 84}, {"time": 690, "pitch": 45, "duration": 3, "velocity": 75}, {"time": 691, "pitch": 60, "duration": 7, "velocity": 86}, {"time": 691, "pitch": 64, "duration": 8, "velocity": 86}, {"time": 691, "pitch": 69, "duration": 8, "velocity": 83}, {"time": 694, "pitch": 45, "duration": 4, "velocity": 78}, {"time": 697, "pitch": 43, "duration": 5, "velocity": 83}, {"time": 703, "pitch": 41, "duration": 13, "velocity": 91}, {"time": 703, "pitch": 60, "duration": 9, "velocity": 84}, {"time": 703, "pitch": 65, "duration": 9, "velocity": 84}, {"time": 703, "pitch": 69, "duration": 9, "velocity": 80}, {"time": 715, "pitch": 60, "duration": 2, "velocity": 82}, {"time": 715, "pitch": 65, "duration": 2, "velocity": 82}, {"time": 715, "pitch": 69, "duration": 3, "velocity": 83}, {"time": 720, "pitch": 41, "duration": 7, "velocity": 82}, {"time": 721, "pitch": 60, "duration": 2, "velocity": 81}, {"time": 721, "pitch": 65, "duration": 2, "velocity": 79}, {"time": 721, "pitch": 69, "duration": 2, "velocity": 82}, {"time": 727, "pitch": 40, "duration": 2, "velocity": 79}, {"time": 727, "pitch": 62, "duration": 1, "velocity": 78}, {"time": 727, "pitch": 67, "duration": 1, "velocity": 75}, {"time": 727, "pitch": 71, "duration": 1, "velocity": 84}, {"time": 733, "pitch": 40, "duration": 6, "velocity": 84}, {"time": 733, "pitch": 62, "duration": 8, "velocity": 75}, {"time": 733, "pitch": 67, "duration": 8, "velocity": 83}, {"time": 733, "pitch": 71, "duration": 8, "velocity": 81}, {"time": 744, "pitch": 40, "duration": 3, "velocity": 82}, {"time": 745, "pitch": 62, "duration": 3, "velocity": 83}, {"time": 745, "pitch": 67, "duration": 3, "velocity": 84}, {"time": 745, "pitch": 71, "duration": 4, "velocity": 86}, {"time": 750, "pitch": 43, "duration": 1, "velocity": 68}, {"time": 751, "pitch": 45, "duration": 12, "velocity": 84}, {"time": 757, "pitch": 64, "duration": 1, "velocity": 82}, {"time": 757, "pitch": 67, "duration": 1, "velocity": 80}, {"time": 757, "pitch": 69, "duration": 1, "velocity": 79}, {"time": 757, "pitch": 72, "duration": 2, "velocity": 84}, {"time": 763, "pitch": 64, "duration": 4, "velocity": 81}, {"time": 763, "pitch": 67, "duration": 4, "velocity": 75}, {"time": 763, "pitch": 69, "duration": 5, "velocity": 74}, {"time": 763, "pitch": 72, "duration": 5, "velocity": 84}, {"time": 769, "pitch": 45, "duration": 4, "velocity": 79}, {"time": 772, "pitch": 62, "duration": 1, "velocity": 80}, {"time": 772, "pitch": 67, "duration": 1, "velocity": 82}, {"time": 772, "pitch": 69, "duration": 1, "velocity": 78}, {"time": 778, "pitch": 62, "duration": 1, "velocity": 76}, {"time": 778, "pitch": 67, "duration": 1, "velocity": 78}, {"time": 778, "pitch": 69, "duration": 1, "velocity": 78}, {"time": 784, "pitch": 45, "duration": 4, "velocity": 71}, {"time": 787, "pitch": 62, "duration": 5, "velocity": 79}, {"time": 787, "pitch": 67, "duration": 5, "velocity": 74}, {"time": 787, "pitch": 69, "duration": 6, "velocity": 78}, {"time": 790, "pitch": 45, "duration": 3, "velocity": 76}, {"time": 793, "pitch": 43, "duration": 4, "velocity": 79}, {"time": 799, "pitch": 41, "duration": 20, "velocity": 82}, {"time": 799, "pitch": 53, "duration": 6, "velocity": 77}, {"time": 799, "pitch": 60, "duration": 10, "velocity": 84}, {"time": 799, "pitch": 65, "duration": 9, "velocity": 90}, {"time": 799, "pitch": 69, "duration": 8, "velocity": 83}, {"time": 808, "pitch": 53, "duration": 5, "velocity": 57}, {"time": 811, "pitch": 60, "duration": 8, "velocity": 86}, {"time": 811, "pitch": 65, "duration": 8, "velocity": 90}, {"time": 811, "pitch": 69, "duration": 8, "velocity": 83}, {"time": 817, "pitch": 53, "duration": 2, "velocity": 77}, {"time": 823, "pitch": 40, "duration": 14, "velocity": 86}, {"time": 823, "pitch": 52, "duration": 6, "velocity": 83}, {"time": 823, "pitch": 62, "duration": 9, "velocity": 86}, {"time": 823, "pitch": 67, "duration": 9, "velocity": 86}, {"time": 823, "pitch": 69, "duration": 2, "velocity": 60}, {"time": 823, "pitch": 71, "duration": 8, "velocity": 82}, {"time": 833, "pitch": 52, "duration": 4, "velocity": 73}, {"time": 835, "pitch": 62, "duration": 7, "velocity": 86}, {"time": 835, "pitch": 67, "duration": 7, "velocity": 93}, {"time": 835, "pitch": 69, "duration": 1, "velocity": 52}, {"time": 835, "pitch": 71, "duration": 6, "velocity": 94}, {"time": 841, "pitch": 40, "duration": 2, "velocity": 90}, {"time": 841, "pitch": 52, "duration": 1, "velocity": 80}, {"time": 847, "pitch": 38, "duration": 13, "velocity": 82}, {"time": 847, "pitch": 50, "duration": 7, "velocity": 78}, {"time": 847, "pitch": 60, "duration": 9, "velocity": 80}, {"time": 847, "pitch": 65, "duration": 8, "velocity": 84}, {"time": 847, "pitch": 69, "duration": 7, "velocity": 75}, {"time": 847, "pitch": 72, "duration": 6, "velocity": 82}, {"time": 858, "pitch": 50, "duration": 3, "velocity": 39}, {"time": 859, "pitch": 60, "duration": 7, "velocity": 93}, {"time": 859, "pitch": 65, "duration": 5, "velocity": 95}, {"time": 859, "pitch": 69, "duration": 9, "velocity": 86}, {"time": 859, "pitch": 72, "duration": 2, "velocity": 82}, {"time": 865, "pitch": 38, "duration": 2, "velocity": 82}, {"time": 865, "pitch": 50, "duration": 2, "velocity": 82}, {"time": 871, "pitch": 36, "duration": 19, "velocity": 86}, {"time": 871, "pitch": 48, "duration": 6, "velocity": 83}, {"time": 871, "pitch": 62, "duration": 9, "velocity": 84}, {"time": 871, "pitch": 67, "duration": 8, "velocity": 84}, {"time": 871, "pitch": 71, "duration": 1, "velocity": 80}, {"time": 882, "pitch": 48, "duration": 3, "velocity": 68}, {"time": 883, "pitch": 62, "duration": 8, "velocity": 83}, {"time": 883, "pitch": 64, "duration": 7, "velocity": 82}, {"time": 883, "pitch": 67, "duration": 8, "velocity": 84}, {"time": 883, "pitch": 71, "duration": 8, "velocity": 84}, {"time": 889, "pitch": 48, "duration": 2, "velocity": 76}, {"time": 895, "pitch": 50, "duration": 19, "velocity": 79}, {"time": 895, "pitch": 57, "duration": 5, "velocity": 82}, {"time": 895, "pitch": 60, "duration": 11, "velocity": 83}, {"time": 895, "pitch": 65, "duration": 11, "velocity": 90}, {"time": 895, "pitch": 69, "duration": 7, "velocity": 83}, {"time": 906, "pitch": 57, "duration": 3, "velocity": 77}, {"time": 907, "pitch": 60, "duration": 6, "velocity": 96}, {"time": 907, "pitch": 65, "duration": 6, "velocity": 96}, {"time": 907, "pitch": 69, "duration": 6, "velocity": 83}, {"time": 913, "pitch": 57, "duration": 1, "velocity": 79}, {"time": 919, "pitch": 40, "duration": 19, "velocity": 90}, {"time": 919, "pitch": 52, "duration": 6, "velocity": 84}, {"time": 919, "pitch": 62, "duration": 10, "velocity": 86}, {"time": 919, "pitch": 67, "duration": 10, "velocity": 84}, {"time": 919, "pitch": 71, "duration": 7, "velocity": 91}, {"time": 930, "pitch": 52, "duration": 2, "velocity": 84}, {"time": 931, "pitch": 62, "duration": 7, "velocity": 90}, {"time": 931, "pitch": 67, "duration": 6, "velocity": 86}, {"time": 931, "pitch": 71, "duration": 7, "velocity": 91}, {"time": 937, "pitch": 52, "duration": 2, "velocity": 93}, {"time": 943, "pitch": 45, "duration": 20, "velocity": 90}, {"time": 943, "pitch": 64, "duration": 7, "velocity": 83}, {"time": 943, "pitch": 72, "duration": 6, "velocity": 90}, {"time": 949, "pitch": 57, "duration": 14, "velocity": 83}, {"time": 954, "pitch": 62, "duration": 2, "velocity": 93}, {"time": 955, "pitch": 64, "duration": 2, "velocity": 91}, {"time": 960, "pitch": 69, "duration": 2, "velocity": 86}, {"time": 961, "pitch": 74, "duration": 3, "velocity": 91}, {"time": 964, "pitch": 45, "duration": 23, "velocity": 90}, {"time": 964, "pitch": 57, "duration": 3, "velocity": 51}, {"time": 964, "pitch": 69, "duration": 6, "velocity": 83}, {"time": 964, "pitch": 73, "duration": 6, "velocity": 98}, {"time": 972, "pitch": 69, "duration": 1, "velocity": 84}, {"time": 972, "pitch": 74, "duration": 2, "velocity": 94}, {"time": 973, "pitch": 76, "duration": 2, "velocity": 95}, {"time": 973, "pitch": 69, "duration": 3, "velocity": 68}, {"time": 978, "pitch": 57, "duration": 3, "velocity": 75}, {"time": 979, "pitch": 69, "duration": 7, "velocity": 95}, {"time": 979, "pitch": 73, "duration": 5, "velocity": 94}, {"time": 979, "pitch": 79, "duration": 7, "velocity": 86}, {"time": 979, "pitch": 81, "duration": 2, "velocity": 86}, {"time": 985, "pitch": 57, "duration": 2, "velocity": 84}, {"time": 991, "pitch": 45, "duration": 22, "velocity": 84}, {"time": 991, "pitch": 57, "duration": 6, "velocity": 84}, {"time": 991, "pitch": 69, "duration": 4, "velocity": 83}, {"time": 991, "pitch": 74, "duration": 5, "velocity": 91}, {"time": 997, "pitch": 69, "duration": 2, "velocity": 83}, {"time": 997, "pitch": 76, "duration": 3, "velocity": 84}, {"time": 1002, "pitch": 57, "duration": 2, "velocity": 84}, {"time": 1003, "pitch": 69, "duration": 3, "velocity": 84}, {"time": 1003, "pitch": 73, "duration": 3, "velocity": 98}, {"time": 1006, "pitch": 57, "duration": 6, "velocity": 50}, {"time": 1009, "pitch": 69, "duration": 1, "velocity": 70}, {"time": 1009, "pitch": 71, "duration": 2, "velocity": 98}, {"time": 1009, "pitch": 74, "duration": 2, "velocity": 84}, {"time": 1012, "pitch": 69, "duration": 5, "velocity": 95}, {"time": 1012, "pitch": 73, "duration": 5, "velocity": 84}, {"time": 1012, "pitch": 76, "duration": 5, "velocity": 86}, {"time": 1015, "pitch": 45, "duration": 8, "velocity": 84}, {"time": 1015, "pitch": 57, "duration": 7, "velocity": 79}, {"time": 1039, "pitch": 45, "duration": 16, "velocity": 84}, {"time": 1039, "pitch": 57, "duration": 15, "velocity": 78}, {"time": 1039, "pitch": 69, "duration": 4, "velocity": 86}, {"time": 1039, "pitch": 72, "duration": 2, "velocity": 84}, {"time": 1044, "pitch": 64, "duration": 2, "velocity": 82}, {"time": 1045, "pitch": 69, "duration": 4, "velocity": 79}, {"time": 1045, "pitch": 72, "duration": 3, "velocity": 95}, {"time": 1050, "pitch": 64, "duration": 2, "velocity": 82}, {"time": 1051, "pitch": 69, "duration": 4, "velocity": 80}, {"time": 1051, "pitch": 72, "duration": 3, "velocity": 94}, {"time": 1056, "pitch": 64, "duration": 3, "velocity": 78}, {"time": 1057, "pitch": 69, "duration": 3, "velocity": 82}, {"time": 1057, "pitch": 72, "duration": 3, "velocity": 90}, {"time": 1062, "pitch": 64, "duration": 2, "velocity": 75}, {"time": 1063, "pitch": 43, "duration": 19, "velocity": 82}, {"time": 1063, "pitch": 55, "duration": 19, "velocity": 75}, {"time": 1063, "pitch": 69, "duration": 4, "velocity": 80}, {"time": 1063, "pitch": 72, "duration": 3, "velocity": 86}, {"time": 1068, "pitch": 64, "duration": 2, "velocity": 73}, {"time": 1069, "pitch": 69, "duration": 4, "velocity": 82}, {"time": 1069, "pitch": 72, "duration": 3, "velocity": 86}, {"time": 1074, "pitch": 64, "duration": 3, "velocity": 68}, {"time": 1075, "pitch": 69, "duration": 4, "velocity": 83}, {"time": 1075, "pitch": 72, "duration": 3, "velocity": 91}, {"time": 1080, "pitch": 64, "duration": 2, "velocity": 73}, {"time": 1081, "pitch": 69, "duration": 3, "velocity": 80}, {"time": 1081, "pitch": 72, "duration": 3, "velocity": 90}, {"time": 1086, "pitch": 64, "duration": 1, "velocity": 69}, {"time": 1087, "pitch": 42, "duration": 18, "velocity": 86}, {"time": 1087, "pitch": 54, "duration": 17, "velocity": 83}, {"time": 1087, "pitch": 66, "duration": 1, "velocity": 75}, {"time": 1087, "pitch": 69, "duration": 4, "velocity": 77}, {"time": 1087, "pitch": 72, "duration": 5, "velocity": 91}, {"time": 1092, "pitch": 62, "duration": 2, "velocity": 78}, {"time": 1093, "pitch": 66, "duration": 2, "velocity": 78}, {"time": 1093, "pitch": 69, "duration": 4, "velocity": 73}, {"time": 1093, "pitch": 72, "duration": 4, "velocity": 79}, {"time": 1098, "pitch": 62, "duration": 2, "velocity": 61}, {"time": 1099, "pitch": 66, "duration": 2, "velocity": 75}, {"time": 1099, "pitch": 69, "duration": 4, "velocity": 76}, {"time": 1099, "pitch": 72, "duration": 4, "velocity": 83}, {"time": 1104, "pitch": 62, "duration": 2, "velocity": 69}, {"time": 1105, "pitch": 66, "duration": 1, "velocity": 69}, {"time": 1105, "pitch": 69, "duration": 3, "velocity": 69}, {"time": 1105, "pitch": 72, "duration": 6, "velocity": 83}, {"time": 1110, "pitch": 62, "duration": 2, "velocity": 80}, {"time": 1111, "pitch": 41, "duration": 19, "velocity": 84}, {"time": 1111, "pitch": 53, "duration": 18, "velocity": 78}, {"time": 1116, "pitch": 60, "duration": 3, "velocity": 83}, {"time": 1117, "pitch": 65, "duration": 3, "velocity": 83}, {"time": 1122, "pitch": 60, "duration": 3, "velocity": 73}, {"time": 1123, "pitch": 65, "duration": 4, "velocity": 84}, {"time": 1123, "pitch": 69, "duration": 4, "velocity": 84}, {"time": 1128, "pitch": 60, "duration": 2, "velocity": 68}, {"time": 1129, "pitch": 65, "duration": 3, "velocity": 79}, {"time": 1129, "pitch": 69, "duration": 4, "velocity": 80}, {"time": 1134, "pitch": 60, "duration": 1, "velocity": 69}, {"time": 1135, "pitch": 38, "duration": 16, "velocity": 80}, {"time": 1135, "pitch": 50, "duration": 17, "velocity": 79}, {"time": 1135, "pitch": 65, "duration": 3, "velocity": 79}, {"time": 1135, "pitch": 69, "duration": 3, "velocity": 71}, {"time": 1135, "pitch": 72, "duration": 3, "velocity": 80}, {"time": 1140, "pitch": 62, "duration": 2, "velocity": 46}, {"time": 1141, "pitch": 65, "duration": 3, "velocity": 83}, {"time": 1146, "pitch": 67, "duration": 3, "velocity": 73}, {"time": 1147, "pitch": 69, "duration": 4, "velocity": 80}, {"time": 1152, "pitch": 72, "duration": 3, "velocity": 86}, {"time": 1153, "pitch": 62, "duration": 3, "velocity": 59}, {"time": 1156, "pitch": 71, "duration": 2, "velocity": 78}, {"time": 1159, "pitch": 45, "duration": 20, "velocity": 83}, {"time": 1159, "pitch": 57, "duration": 4, "velocity": 76}, {"time": 1159, "pitch": 64, "duration": 3, "velocity": 83}, {"time": 1159, "pitch": 69, "duration": 4, "velocity": 83}, {"time": 1159, "pitch": 72, "duration": 3, "velocity": 83}, {"time": 1162, "pitch": 57, "duration": 1, "velocity": 63}, {"time": 1165, "pitch": 64, "duration": 3, "velocity": 80}, {"time": 1165, "pitch": 71, "duration": 4, "velocity": 79}, {"time": 1168, "pitch": 57, "duration": 3, "velocity": 57}, {"time": 1171, "pitch": 64, "duration": 6, "velocity": 83}, {"time": 1171, "pitch": 69, "duration": 6, "velocity": 86}, {"time": 1171, "pitch": 72, "duration": 5, "velocity": 86}, {"time": 1177, "pitch": 57, "duration": 2, "velocity": 77}, {"time": 1183, "pitch": 38, "duration": 20, "velocity": 84}, {"time": 1183, "pitch": 50, "duration": 2, "velocity": 78}, {"time": 1183, "pitch": 62, "duration": 3, "velocity": 80}, {"time": 1183, "pitch": 66, "duration": 3, "velocity": 74}, {"time": 1183, "pitch": 69, "duration": 4, "velocity": 78}, {"time": 1183, "pitch": 72, "duration": 3, "velocity": 84}, {"time": 1186, "pitch": 50, "duration": 6, "velocity": 75}, {"time": 1191, "pitch": 62, "duration": 2, "velocity": 78}, {"time": 1192, "pitch": 62, "duration": 1, "velocity": 57}, {"time": 1192, "pitch": 66, "duration": 5, "velocity": 91}, {"time": 1192, "pitch": 69, "duration": 6, "velocity": 86}, {"time": 1192, "pitch": 72, "duration": 5, "velocity": 96}, {"time": 1198, "pitch": 50, "duration": 4, "velocity": 80}, {"time": 1201, "pitch": 62, "duration": 3, "velocity": 84}, {"time": 1201, "pitch": 69, "duration": 2, "velocity": 59}, {"time": 1201, "pitch": 72, "duration": 2, "velocity": 79}, {"time": 1204, "pitch": 71, "duration": 4, "velocity": 79}, {"time": 1207, "pitch": 40, "duration": 3, "velocity": 84}, {"time": 1207, "pitch": 52, "duration": 3, "velocity": 93}, {"time": 1207, "pitch": 64, "duration": 2, "velocity": 78}, {"time": 1207, "pitch": 68, "duration": 2, "velocity": 72}, {"time": 1213, "pitch": 40, "duration": 3, "velocity": 86}, {"time": 1213, "pitch": 52, "duration": 3, "velocity": 84}, {"time": 1213, "pitch": 64, "duration": 2, "velocity": 80}, {"time": 1213, "pitch": 68, "duration": 3, "velocity": 80}, {"time": 1219, "pitch": 44, "duration": 3, "velocity": 81}, {"time": 1219, "pitch": 64, "duration": 3, "velocity": 79}, {"time": 1219, "pitch": 69, "duration": 4, "velocity": 91}, {"time": 1225, "pitch": 64, "duration": 3, "velocity": 79}, {"time": 1225, "pitch": 71, "duration": 4, "velocity": 95}, {"time": 1231, "pitch": 45, "duration": 7, "velocity": 84}, {"time": 1231, "pitch": 57, "duration": 7, "velocity": 79}, {"time": 1231, "pitch": 64, "duration": 2, "velocity": 83}, {"time": 1231, "pitch": 67, "duration": 3, "velocity": 83}, {"time": 1231, "pitch": 72, "duration": 3, "velocity": 80}, {"time": 1237, "pitch": 64, "duration": 7, "velocity": 90}, {"time": 1237, "pitch": 69, "duration": 7, "velocity": 82}, {"time": 1237, "pitch": 72, "duration": 6, "velocity": 86}, {"time": 1242, "pitch": 45, "duration": 1, "velocity": 73}, {"time": 1242, "pitch": 57, "duration": 1, "velocity": 57}, {"time": 1243, "pitch": 52, "duration": 4, "velocity": 91}, {"time": 1246, "pitch": 64, "duration": 2, "velocity": 83}, {"time": 1246, "pitch": 69, "duration": 3, "velocity": 84}, {"time": 1246, "pitch": 72, "duration": 2, "velocity": 86}, {"time": 1249, "pitch": 52, "duration": 1, "velocity": 67}, {"time": 1249, "pitch": 57, "duration": 1, "velocity": 77}, {"time": 1252, "pitch": 64, "duration": 6, "velocity": 79}, {"time": 1252, "pitch": 71, "duration": 5, "velocity": 82}, {"time": 1255, "pitch": 43, "duration": 21, "velocity": 90}, {"time": 1258, "pitch": 55, "duration": 9, "velocity": 79}, {"time": 1261, "pitch": 62, "duration": 3, "velocity": 83}, {"time": 1264, "pitch": 67, "duration": 1, "velocity": 75}, {"time": 1267, "pitch": 62, "duration": 3, "velocity": 83}, {"time": 1267, "pitch": 67, "duration": 3, "velocity": 83}, {"time": 1267, "pitch": 71, "duration": 4, "velocity": 90}, {"time": 1270, "pitch": 55, "duration": 3, "velocity": 72}, {"time": 1273, "pitch": 62, "duration": 3, "velocity": 84}, {"time": 1273, "pitch": 69, "duration": 4, "velocity": 93}, {"time": 1276, "pitch": 71, "duration": 1, "velocity": 79}, {"time": 1279, "pitch": 42, "duration": 15, "velocity": 86}, {"time": 1279, "pitch": 54, "duration": 2, "velocity": 76}, {"time": 1279, "pitch": 60, "duration": 6, "velocity": 78}, {"time": 1279, "pitch": 68, "duration": 3, "velocity": 43}, {"time": 1279, "pitch": 69, "duration": 3, "velocity": 48}, {"time": 1282, "pitch": 66, "duration": 4, "velocity": 18}, {"time": 1285, "pitch": 54, "duration": 7, "velocity": 76}, {"time": 1288, "pitch": 60, "duration": 2, "velocity": 78}, {"time": 1291, "pitch": 60, "duration": 3, "velocity": 38}, {"time": 1291, "pitch": 66, "duration": 4, "velocity": 80}, {"time": 1291, "pitch": 69, "duration": 5, "velocity": 86}, {"time": 1294, "pitch": 42, "duration": 1, "velocity": 53}, {"time": 1294, "pitch": 54, "duration": 2, "velocity": 90}, {"time": 1297, "pitch": 60, "duration": 2, "velocity": 84}, {"time": 1300, "pitch": 67, "duration": 2, "velocity": 75}, {"time": 1303, "pitch": 41, "duration": 19, "velocity": 90}, {"time": 1303, "pitch": 60, "duration": 2, "velocity": 84}, {"time": 1303, "pitch": 65, "duration": 3, "velocity": 82}, {"time": 1303, "pitch": 69, "duration": 2, "velocity": 82}, {"time": 1309, "pitch": 53, "duration": 3, "velocity": 75}, {"time": 1309, "pitch": 60, "duration": 4, "velocity": 83}, {"time": 1309, "pitch": 65, "duration": 4, "velocity": 83}, {"time": 1309, "pitch": 69, "duration": 5, "velocity": 78}, {"time": 1312, "pitch": 53, "duration": 3, "velocity": 75}, {"time": 1315, "pitch": 60, "duration": 4, "velocity": 83}, {"time": 1315, "pitch": 67, "duration": 5, "velocity": 82}, {"time": 1321, "pitch": 53, "duration": 1, "velocity": 80}, {"time": 1321, "pitch": 60, "duration": 1, "velocity": 82}, {"time": 1321, "pitch": 69, "duration": 2, "velocity": 81}, {"time": 1327, "pitch": 38, "duration": 19, "velocity": 90}, {"time": 1327, "pitch": 50, "duration": 3, "velocity": 83}, {"time": 1327, "pitch": 62, "duration": 3, "velocity": 63}, {"time": 1327, "pitch": 65, "duration": 6, "velocity": 84}, {"time": 1327, "pitch": 72, "duration": 3, "velocity": 86}, {"time": 1333, "pitch": 50, "duration": 8, "velocity": 75}, {"time": 1336, "pitch": 62, "duration": 1, "velocity": 75}, {"time": 1339, "pitch": 62, "duration": 5, "velocity": 84}, {"time": 1339, "pitch": 65, "duration": 6, "velocity": 86}, {"time": 1339, "pitch": 69, "duration": 6, "velocity": 86}, {"time": 1339, "pitch": 72, "duration": 3, "velocity": 84}, {"time": 1345, "pitch": 50, "duration": 2, "velocity": 80}, {"time": 1351, "pitch": 45, "duration": 15, "velocity": 86}, {"time": 1351, "pitch": 64, "duration": 4, "velocity": 81}, {"time": 1351, "pitch": 69, "duration": 4, "velocity": 81}, {"time": 1351, "pitch": 72, "duration": 4, "velocity": 86}, {"time": 1354, "pitch": 57, "duration": 2, "velocity": 59}, {"time": 1357, "pitch": 64, "duration": 3, "velocity": 83}, {"time": 1357, "pitch": 71, "duration": 5, "velocity": 84}, {"time": 1360, "pitch": 57, "duration": 4, "velocity": 57}, {"time": 1363, "pitch": 64, "duration": 5, "velocity": 83}, {"time": 1363, "pitch": 69, "duration": 6, "velocity": 79}, {"time": 1363, "pitch": 72, "duration": 6, "velocity": 91}, {"time": 1369, "pitch": 45, "duration": 1, "velocity": 95}, {"time": 1399, "pitch": 45, "duration": 21, "velocity": 82}, {"time": 1399, "pitch": 57, "duration": 7, "velocity": 80}, {"time": 1399, "pitch": 64, "duration": 4, "velocity": 83}, {"time": 1399, "pitch": 72, "duration": 6, "velocity": 96}, {"time": 1405, "pitch": 64, "duration": 2, "velocity": 82}, {"time": 1405, "pitch": 71, "duration": 5, "velocity": 91}, {"time": 1408, "pitch": 57, "duration": 3, "velocity": 56}, {"time": 1411, "pitch": 64, "duration": 2, "velocity": 82}, {"time": 1411, "pitch": 69, "duration": 2, "velocity": 81}, {"time": 1417, "pitch": 57, "duration": 4, "velocity": 60}, {"time": 1417, "pitch": 64, "duration": 1, "velocity": 45}, {"time": 1417, "pitch": 67, "duration": 3, "velocity": 86}, {"time": 1420, "pitch": 62, "duration": 1, "velocity": 83}, {"time": 1420, "pitch": 69, "duration": 2, "velocity": 84}, {"time": 1426, "pitch": 45, "duration": 2, "velocity": 83}, {"time": 1426, "pitch": 57, "duration": 3, "velocity": 72}, {"time": 1429, "pitch": 60, "duration": 4, "velocity": 79}, {"time": 1429, "pitch": 67, "duration": 4, "velocity": 86}, {"time": 1432, "pitch": 52, "duration": 11, "velocity": 80}, {"time": 1435, "pitch": 60, "duration": 3, "velocity": 78}, {"time": 1435, "pitch": 64, "duration": 4, "velocity": 84}, {"time": 1438, "pitch": 57, "duration": 3, "velocity": 58}, {"time": 1441, "pitch": 60, "duration": 2, "velocity": 81}, {"time": 1441, "pitch": 67, "duration": 4, "velocity": 84}, {"time": 1444, "pitch": 60, "duration": 1, "velocity": 82}, {"time": 1444, "pitch": 64, "duration": 1, "velocity": 78}, {"time": 1444, "pitch": 69, "duration": 2, "velocity": 79}, {"time": 1447, "pitch": 45, "duration": 1, "velocity": 80}, {"time": 1447, "pitch": 57, "duration": 1, "velocity": 47}, {"time": 1450, "pitch": 45, "duration": 1, "velocity": 83}, {"time": 1450, "pitch": 57, "duration": 2, "velocity": 83}, {"time": 1453, "pitch": 60, "duration": 2, "velocity": 90}, {"time": 1453, "pitch": 64, "duration": 1, "velocity": 78}, {"time": 1453, "pitch": 67, "duration": 2, "velocity": 93}, {"time": 1456, "pitch": 52, "duration": 4, "velocity": 82}, {"time": 1459, "pitch": 60, "duration": 4, "velocity": 63}, {"time": 1459, "pitch": 64, "duration": 4, "velocity": 73}, {"time": 1459, "pitch": 67, "duration": 4, "velocity": 82}, {"time": 1462, "pitch": 52, "duration": 2, "velocity": 79}, {"time": 1465, "pitch": 60, "duration": 2, "velocity": 79}, {"time": 1465, "pitch": 64, "duration": 3, "velocity": 76}, {"time": 1465, "pitch": 67, "duration": 3, "velocity": 83}, {"time": 1468, "pitch": 60, "duration": 1, "velocity": 81}, {"time": 1468, "pitch": 64, "duration": 1, "velocity": 73}, {"time": 1468, "pitch": 69, "duration": 2, "velocity": 84}, {"time": 1474, "pitch": 45, "duration": 2, "velocity": 84}, {"time": 1474, "pitch": 57, "duration": 3, "velocity": 75}, {"time": 1477, "pitch": 60, "duration": 1, "velocity": 82}, {"time": 1477, "pitch": 64, "duration": 1, "velocity": 75}, {"time": 1477, "pitch": 67, "duration": 2, "velocity": 81}, {"time": 1483, "pitch": 45, "duration": 1, "velocity": 76}, {"time": 1483, "pitch": 57, "duration": 1, "velocity": 81}, {"time": 1483, "pitch": 60, "duration": 1, "velocity": 84}, {"time": 1483, "pitch": 69, "duration": 1, "velocity": 84}, {"time": 1495, "pitch": 45, "duration": 15, "velocity": 59}, {"time": 1495, "pitch": 57, "duration": 16, "velocity": 54}, {"time": 1495, "pitch": 60, "duration": 14, "velocity": 57}, {"time": 1495, "pitch": 64, "duration": 14, "velocity": 75}, {"time": 1495, "pitch": 69, "duration": 15, "velocity": 69}, {"time": 1519, "pitch": 52, "duration": 17, "velocity": 61}, {"time": 1519, "pitch": 59, "duration": 16, "velocity": 74}, {"time": 1519, "pitch": 62, "duration": 10, "velocity": 31}, {"time": 1519, "pitch": 67, "duration": 9, "velocity": 59}, {"time": 1519, "pitch": 71, "duration": 13, "velocity": 75}, {"time": 1531, "pitch": 67, "duration": 4, "velocity": 82}, {"time": 1543, "pitch": 45, "duration": 42, "velocity": 79}, {"time": 1543, "pitch": 60, "duration": 13, "velocity": 71}, {"time": 1543, "pitch": 64, "duration": 12, "velocity": 69}, {"time": 1543, "pitch": 69, "duration": 13, "velocity": 73}, {"time": 1555, "pitch": 57, "duration": 17, "velocity": 32}, {"time": 1561, "pitch": 64, "duration": 2, "velocity": 46}, {"time": 1561, "pitch": 72, "duration": 5, "velocity": 62}, {"time": 1567, "pitch": 62, "duration": 6, "velocity": 63}, {"time": 1567, "pitch": 71, "duration": 5, "velocity": 78}, {"time": 1576, "pitch": 57, "duration": 10, "velocity": 22}, {"time": 1579, "pitch": 59, "duration": 6, "velocity": 61}, {"time": 1579, "pitch": 67, "duration": 7, "velocity": 75}, {"time": 1591, "pitch": 41, "duration": 19, "velocity": 63}, {"time": 1591, "pitch": 53, "duration": 7, "velocity": 51}, {"time": 1591, "pitch": 60, "duration": 12, "velocity": 62}, {"time": 1591, "pitch": 65, "duration": 12, "velocity": 75}, {"time": 1591, "pitch": 69, "duration": 11, "velocity": 71}, {"time": 1603, "pitch": 53, "duration": 7, "velocity": 54}, {"time": 1606, "pitch": 60, "duration": 3, "velocity": 61}, {"time": 1609, "pitch": 69, "duration": 6, "velocity": 79}, {"time": 1615, "pitch": 40, "duration": 17, "velocity": 70}, {"time": 1615, "pitch": 52, "duration": 16, "velocity": 72}, {"time": 1615, "pitch": 62, "duration": 9, "velocity": 73}, {"time": 1615, "pitch": 67, "duration": 9, "velocity": 79}, {"time": 1627, "pitch": 62, "duration": 6, "velocity": 73}, {"time": 1633, "pitch": 67, "duration": 4, "velocity": 73}, {"time": 1639, "pitch": 45, "duration": 43, "velocity": 77}, {"time": 1639, "pitch": 64, "duration": 8, "velocity": 68}, {"time": 1639, "pitch": 72, "duration": 12, "velocity": 80}, {"time": 1645, "pitch": 52, "duration": 12, "velocity": 53}, {"time": 1651, "pitch": 57, "duration": 13, "velocity": 38}, {"time": 1651, "pitch": 64, "duration": 2, "velocity": 63}, {"time": 1651, "pitch": 71, "duration": 2, "velocity": 86}, {"time": 1660, "pitch": 52, "duration": 3, "velocity": 55}, {"time": 1660, "pitch": 62, "duration": 4, "velocity": 75}, {"time": 1660, "pitch": 67, "duration": 6, "velocity": 77}, {"time": 1666, "pitch": 52, "duration": 18, "velocity": 70}, {"time": 1669, "pitch": 57, "duration": 7, "velocity": 59}, {"time": 1675, "pitch": 59, "duration": 1, "velocity": 61}, {"time": 1675, "pitch": 60, "duration": 5, "velocity": 80}, {"time": 1675, "pitch": 64, "duration": 6, "velocity": 77}, {"time": 1681, "pitch": 59, "duration": 3, "velocity": 63}, {"time": 1681, "pitch": 62, "duration": 4, "velocity": 80}, {"time": 1687, "pitch": 41, "duration": 10, "velocity": 75}, {"time": 1687, "pitch": 53, "duration": 3, "velocity": 63}, {"time": 1687, "pitch": 60, "duration": 8, "velocity": 68}, {"time": 1687, "pitch": 65, "duration": 6, "velocity": 75}, {"time": 1687, "pitch": 69, "duration": 6, "velocity": 69}, {"time": 1696, "pitch": 53, "duration": 3, "velocity": 32}, {"time": 1699, "pitch": 41, "duration": 2, "velocity": 68}, {"time": 1699, "pitch": 53, "duration": 2, "velocity": 23}, {"time": 1699, "pitch": 60, "duration": 3, "velocity": 59}, {"time": 1699, "pitch": 65, "duration": 1, "velocity": 41}, {"time": 1702, "pitch": 41, "duration": 2, "velocity": 68}, {"time": 1702, "pitch": 53, "duration": 2, "velocity": 61}, {"time": 1702, "pitch": 65, "duration": 3, "velocity": 63}, {"time": 1705, "pitch": 41, "duration": 2, "velocity": 70}, {"time": 1705, "pitch": 53, "duration": 2, "velocity": 62}, {"time": 1705, "pitch": 60, "duration": 2, "velocity": 58}, {"time": 1705, "pitch": 69, "duration": 3, "velocity": 68}, {"time": 1711, "pitch": 41, "duration": 2, "velocity": 73}, {"time": 1711, "pitch": 53, "duration": 2, "velocity": 61}, {"time": 1711, "pitch": 62, "duration": 2, "velocity": 72}, {"time": 1711, "pitch": 67, "duration": 3, "velocity": 76}, {"time": 1714, "pitch": 41, "duration": 2, "velocity": 72}, {"time": 1714, "pitch": 53, "duration": 2, "velocity": 53}, {"time": 1714, "pitch": 65, "duration": 3, "velocity": 77}, {"time": 1717, "pitch": 41, "duration": 2, "velocity": 75}, {"time": 1717, "pitch": 53, "duration": 1, "velocity": 48}, {"time": 1717, "pitch": 62, "duration": 2, "velocity": 68}, {"time": 1723, "pitch": 40, "duration": 11, "velocity": 78}, {"time": 1723, "pitch": 52, "duration": 2, "velocity": 74}, {"time": 1723, "pitch": 62, "duration": 5, "velocity": 75}, {"time": 1723, "pitch": 67, "duration": 4, "velocity": 76}, {"time": 1726, "pitch": 52, "duration": 7, "velocity": 71}, {"time": 1729, "pitch": 62, "duration": 3, "velocity": 75}, {"time": 1735, "pitch": 38, "duration": 18, "velocity": 73}, {"time": 1735, "pitch": 50, "duration": 7, "velocity": 57}, {"time": 1735, "pitch": 60, "duration": 10, "velocity": 72}, {"time": 1735, "pitch": 65, "duration": 9, "velocity": 80}, {"time": 1735, "pitch": 69, "duration": 10, "velocity": 69}, {"time": 1735, "pitch": 72, "duration": 11, "velocity": 59}, {"time": 1747, "pitch": 50, "duration": 2, "velocity": 37}, {"time": 1747, "pitch": 60, "duration": 6, "velocity": 73}, {"time": 1747, "pitch": 65, "duration": 6, "velocity": 83}, {"time": 1747, "pitch": 69, "duration": 8, "velocity": 73}, {"time": 1753, "pitch": 50, "duration": 2, "velocity": 54}, {"time": 1759, "pitch": 36, "duration": 13, "velocity": 79}, {"time": 1759, "pitch": 48, "duration": 6, "velocity": 55}, {"time": 1759, "pitch": 62, "duration": 9, "velocity": 68}, {"time": 1759, "pitch": 64, "duration": 9, "velocity": 68}, {"time": 1759, "pitch": 67, "duration": 9, "velocity": 72}, {"time": 1759, "pitch": 71, "duration": 9, "velocity": 74}, {"time": 1768, "pitch": 48, "duration": 3, "velocity": 52}, {"time": 1771, "pitch": 62, "duration": 4, "velocity": 80}, {"time": 1771, "pitch": 64, "duration": 5, "velocity": 78}, {"time": 1771, "pitch": 67, "duration": 5, "velocity": 80}, {"time": 1771, "pitch": 69, "duration": 4, "velocity": 62}, {"time": 1771, "pitch": 71, "duration": 4, "velocity": 78}, {"time": 1774, "pitch": 36, "duration": 3, "velocity": 84}, {"time": 1777, "pitch": 62, "duration": 4, "velocity": 82}, {"time": 1777, "pitch": 64, "duration": 4, "velocity": 79}, {"time": 1777, "pitch": 67, "duration": 4, "velocity": 70}, {"time": 1777, "pitch": 69, "duration": 3, "velocity": 72}, {"time": 1777, "pitch": 71, "duration": 4, "velocity": 80}, {"time": 1783, "pitch": 41, "duration": 18, "velocity": 55}, {"time": 1783, "pitch": 53, "duration": 7, "velocity": 63}, {"time": 1783, "pitch": 57, "duration": 10, "velocity": 58}, {"time": 1783, "pitch": 60, "duration": 10, "velocity": 80}, {"time": 1783, "pitch": 65, "duration": 13, "velocity": 75}, {"time": 1792, "pitch": 53, "duration": 7, "velocity": 57}, {"time": 1795, "pitch": 57, "duration": 5, "velocity": 63}, {"time": 1798, "pitch": 60, "duration": 3, "velocity": 77}, {"time": 1801, "pitch": 65, "duration": 2, "velocity": 81}, {"time": 1807, "pitch": 40, "duration": 16, "velocity": 69}, {"time": 1807, "pitch": 52, "duration": 6, "velocity": 50}, {"time": 1807, "pitch": 59, "duration": 10, "velocity": 57}, {"time": 1807, "pitch": 62, "duration": 10, "velocity": 78}, {"time": 1807, "pitch": 67, "duration": 10, "velocity": 60}, {"time": 1819, "pitch": 52, "duration": 6, "velocity": 58}, {"time": 1819, "pitch": 59, "duration": 6, "velocity": 77}, {"time": 1825, "pitch": 62, "duration": 1, "velocity": 76}, {"time": 1825, "pitch": 67, "duration": 1, "velocity": 62}, {"time": 1831, "pitch": 45, "duration": 17, "velocity": 79}, {"time": 1831, "pitch": 57, "duration": 13, "velocity": 52}, {"time": 1831, "pitch": 62, "duration": 4, "velocity": 82}, {"time": 1831, "pitch": 64, "duration": 5, "velocity": 80}, {"time": 1831, "pitch": 69, "duration": 4, "velocity": 82}, {"time": 1837, "pitch": 62, "duration": 5, "velocity": 83}, {"time": 1843, "pitch": 64, "duration": 4, "velocity": 99}, {"time": 1846, "pitch": 57, "duration": 3, "velocity": 54}, {"time": 1849, "pitch": 64, "duration": 2, "velocity": 61}, {"time": 1849, "pitch": 69, "duration": 2, "velocity": 79}, {"time": 1852, "pitch": 45, "duration": 24, "velocity": 84}, {"time": 1852, "pitch": 57, "duration": 3, "velocity": 80}, {"time": 1852, "pitch": 61, "duration": 6, "velocity": 82}, {"time": 1852, "pitch": 64, "duration": 7, "velocity": 81}, {"time": 1852, "pitch": 69, "duration": 6, "velocity": 75}, {"time": 1858, "pitch": 57, "duration": 10, "velocity": 78}, {"time": 1861, "pitch": 61, "duration": 4, "velocity": 106}, {"time": 1864, "pitch": 64, "duration": 4, "velocity": 90}, {"time": 1870, "pitch": 57, "duration": 7, "velocity": 32}, {"time": 1873, "pitch": 69, "duration": 5, "velocity": 84}, {"time": 1876, "pitch": 74, "duration": 3, "velocity": 71}, {"time": 1879, "pitch": 45, "duration": 7, "velocity": 80}, {"time": 1879, "pitch": 69, "duration": 4, "velocity": 78}, {"time": 1879, "pitch": 73, "duration": 5, "velocity": 75}, {"time": 1885, "pitch": 57, "duration": 2, "velocity": 68}, {"time": 1885, "pitch": 69, "duration": 2, "velocity": 78}, {"time": 1885, "pitch": 74, "duration": 2, "velocity": 84}, {"time": 1891, "pitch": 45, "duration": 2, "velocity": 82}, {"time": 1891, "pitch": 57, "duration": 2, "velocity": 72}, {"time": 1891, "pitch": 69, "duration": 2, "velocity": 82}, {"time": 1891, "pitch": 76, "duration": 2, "velocity": 82}, {"time": 1897, "pitch": 45, "duration": 2, "velocity": 80}, {"time": 1897, "pitch": 57, "duration": 2, "velocity": 62}, {"time": 1897, "pitch": 69, "duration": 2, "velocity": 77}, {"time": 1897, "pitch": 74, "duration": 2, "velocity": 80}, {"time": 1903, "pitch": 45, "duration": 2, "velocity": 83}, {"time": 1903, "pitch": 57, "duration": 1, "velocity": 84}, {"time": 1903, "pitch": 69, "duration": 1, "velocity": 82}, {"time": 1903, "pitch": 73, "duration": 1, "velocity": 86}, {"time": 1906, "pitch": 45, "duration": 2, "velocity": 90}, {"time": 1906, "pitch": 57, "duration": 1, "velocity": 93}, {"time": 1906, "pitch": 69, "duration": 1, "velocity": 82}, {"time": 1906, "pitch": 73, "duration": 1, "velocity": 84}, {"time": 1915, "pitch": 41, "duration": 2, "velocity": 82}, {"time": 1915, "pitch": 53, "duration": 2, "velocity": 75}, {"time": 1915, "pitch": 60, "duration": 2, "velocity": 86}, {"time": 1915, "pitch": 65, "duration": 1, "velocity": 83}, {"time": 1915, "pitch": 69, "duration": 2, "velocity": 84}, {"time": 1921, "pitch": 43, "duration": 2, "velocity": 84}, {"time": 1921, "pitch": 55, "duration": 3, "velocity": 60}, {"time": 1921, "pitch": 62, "duration": 2, "velocity": 84}, {"time": 1921, "pitch": 67, "duration": 2, "velocity": 84}, {"time": 1921, "pitch": 71, "duration": 2, "velocity": 90}, {"time": 1927, "pitch": 45, "duration": 15, "velocity": 83}, {"time": 1927, "pitch": 57, "duration": 6, "velocity": 77}, {"time": 1927, "pitch": 64, "duration": 9, "velocity": 84}, {"time": 1927, "pitch": 69, "duration": 9, "velocity": 84}, {"time": 1927, "pitch": 72, "duration": 9, "velocity": 86}, {"time": 1939, "pitch": 57, "duration": 4, "velocity": 71}, {"time": 1939, "pitch": 64, "duration": 4, "velocity": 84}, {"time": 1939, "pitch": 69, "duration": 6, "velocity": 84}, {"time": 1939, "pitch": 72, "duration": 5, "velocity": 91}, {"time": 1945, "pitch": 45, "duration": 3, "velocity": 72}, {"time": 1945, "pitch": 57, "duration": 2, "velocity": 59}, {"time": 1945, "pitch": 64, "duration": 2, "velocity": 78}, {"time": 1945, "pitch": 72, "duration": 1, "velocity": 44}, {"time": 1948, "pitch": 43, "duration": 22, "velocity": 84}, {"time": 1948, "pitch": 55, "duration": 3, "velocity": 82}, {"time": 1948, "pitch": 62, "duration": 6, "velocity": 76}, {"time": 1948, "pitch": 67, "duration": 6, "velocity": 84}, {"time": 1948, "pitch": 71, "duration": 5, "velocity": 83}, {"time": 1954, "pitch": 55, "duration": 11, "velocity": 76}, {"time": 1957, "pitch": 62, "duration": 4, "velocity": 76}, {"time": 1960, "pitch": 67, "duration": 2, "velocity": 84}, {"time": 1963, "pitch": 62, "duration": 6, "velocity": 84}, {"time": 1963, "pitch": 71, "duration": 6, "velocity": 91}, {"time": 1969, "pitch": 55, "duration": 1, "velocity": 81}, {"time": 1975, "pitch": 42, "duration": 14, "velocity": 91}, {"time": 1975, "pitch": 54, "duration": 4, "velocity": 82}, {"time": 1975, "pitch": 60, "duration": 5, "velocity": 82}, {"time": 1975, "pitch": 66, "duration": 6, "velocity": 86}, {"time": 1975, "pitch": 69, "duration": 6, "velocity": 79}, {"time": 1981, "pitch": 54, "duration": 7, "velocity": 69}, {"time": 1984, "pitch": 60, "duration": 1, "velocity": 62}, {"time": 1987, "pitch": 60, "duration": 5, "velocity": 86}, {"time": 1987, "pitch": 66, "duration": 4, "velocity": 82}, {"time": 1987, "pitch": 69, "duration": 5, "velocity": 86}, {"time": 1990, "pitch": 42, "duration": 3, "velocity": 83}, {"time": 1990, "pitch": 54, "duration": 2, "velocity": 75}, {"time": 1993, "pitch": 60, "duration": 2, "velocity": 80}, {"time": 1993, "pitch": 69, "duration": 2, "velocity": 71}, {"time": 1996, "pitch": 41, "duration": 17, "velocity": 86}, {"time": 1996, "pitch": 53, "duration": 3, "velocity": 75}, {"time": 1996, "pitch": 60, "duration": 6, "velocity": 82}, {"time": 1996, "pitch": 65, "duration": 6, "velocity": 84}, {"time": 1996, "pitch": 69, "duration": 5, "velocity": 81}, {"time": 2002, "pitch": 53, "duration": 10, "velocity": 76}, {"time": 2005, "pitch": 60, "duration": 4, "velocity": 77}, {"time": 2011, "pitch": 60, "duration": 8, "velocity": 81}, {"time": 2011, "pitch": 65, "duration": 7, "velocity": 84}, {"time": 2011, "pitch": 69, "duration": 7, "velocity": 83}, {"time": 2017, "pitch": 41, "duration": 2, "velocity": 91}, {"time": 2017, "pitch": 53, "duration": 1, "velocity": 79}, {"time": 2020, "pitch": 40, "duration": 1, "velocity": 84}, {"time": 2020, "pitch": 52, "duration": 1, "velocity": 78}, {"time": 2023, "pitch": 38, "duration": 19, "velocity": 86}, {"time": 2023, "pitch": 50, "duration": 5, "velocity": 77}, {"time": 2023, "pitch": 62, "duration": 9, "velocity": 83}, {"time": 2023, "pitch": 65, "duration": 6, "velocity": 84}, {"time": 2023, "pitch": 69, "duration": 7, "velocity": 78}, {"time": 2023, "pitch": 72, "duration": 6, "velocity": 82}, {"time": 2029, "pitch": 50, "duration": 7, "velocity": 73}, {"time": 2035, "pitch": 62, "duration": 6, "velocity": 84}, {"time": 2035, "pitch": 65, "duration": 6, "velocity": 84}, {"time": 2035, "pitch": 69, "duration": 6, "velocity": 81}, {"time": 2035, "pitch": 72, "duration": 6, "velocity": 86}, {"time": 2041, "pitch": 50, "duration": 2, "velocity": 80}, {"time": 2047, "pitch": 40, "duration": 14, "velocity": 90}, {"time": 2047, "pitch": 52, "duration": 3, "velocity": 82}, {"time": 2047, "pitch": 62, "duration": 4, "velocity": 83}, {"time": 2047, "pitch": 67, "duration": 5, "velocity": 82}, {"time": 2047, "pitch": 71, "duration": 5, "velocity": 84}, {"time": 2053, "pitch": 52, "duration": 8, "velocity": 72}, {"time": 2053, "pitch": 62, "duration": 2, "velocity": 72}, {"time": 2056, "pitch": 67, "duration": 2, "velocity": 78}, {"time": 2059, "pitch": 64, "duration": 6, "velocity": 84}, {"time": 2059, "pitch": 69, "duration": 6, "velocity": 79}, {"time": 2059, "pitch": 72, "duration": 6, "velocity": 90}, {"time": 2065, "pitch": 40, "duration": 2, "velocity": 59}, {"time": 2065, "pitch": 52, "duration": 2, "velocity": 76}, {"time": 2071, "pitch": 38, "duration": 19, "velocity": 90}, {"time": 2071, "pitch": 50, "duration": 2, "velocity": 82}, {"time": 2071, "pitch": 62, "duration": 6, "velocity": 81}, {"time": 2071, "pitch": 66, "duration": 6, "velocity": 79}, {"time": 2071, "pitch": 69, "duration": 6, "velocity": 49}, {"time": 2077, "pitch": 50, "duration": 10, "velocity": 73}, {"time": 2080, "pitch": 62, "duration": 5, "velocity": 80}, {"time": 2086, "pitch": 62, "duration": 2, "velocity": 86}, {"time": 2086, "pitch": 66, "duration": 3, "velocity": 98}, {"time": 2086, "pitch": 69, "duration": 4, "velocity": 90}, {"time": 2089, "pitch": 50, "duration": 2, "velocity": 68}, {"time": 2092, "pitch": 62, "duration": 2, "velocity": 62}, {"time": 2095, "pitch": 40, "duration": 10, "velocity": 84}, {"time": 2095, "pitch": 52, "duration": 3, "velocity": 81}, {"time": 2095, "pitch": 71, "duration": 5, "velocity": 90}, {"time": 2101, "pitch": 52, "duration": 4, "velocity": 80}, {"time": 2101, "pitch": 64, "duration": 4, "velocity": 86}, {"time": 2101, "pitch": 69, "duration": 5, "velocity": 83}, {"time": 2107, "pitch": 40, "duration": 3, "velocity": 84}, {"time": 2107, "pitch": 52, "duration": 2, "velocity": 79}, {"time": 2107, "pitch": 64, "duration": 3, "velocity": 82}, {"time": 2107, "pitch": 68, "duration": 4, "velocity": 82}, {"time": 2113, "pitch": 40, "duration": 1, "velocity": 78}, {"time": 2113, "pitch": 52, "duration": 2, "velocity": 98}, {"time": 2113, "pitch": 64, "duration": 1, "velocity": 79}, {"time": 2113, "pitch": 69, "duration": 1, "velocity": 82}, {"time": 2119, "pitch": 45, "duration": 8, "velocity": 86}, {"time": 2119, "pitch": 57, "duration": 8, "velocity": 83}, {"time": 2119, "pitch": 64, "duration": 4, "velocity": 80}, {"time": 2119, "pitch": 67, "duration": 4, "velocity": 74}, {"time": 2119, "pitch": 72, "duration": 4, "velocity": 86}, {"time": 2125, "pitch": 64, "duration": 7, "velocity": 83}, {"time": 2125, "pitch": 69, "duration": 4, "velocity": 68}, {"time": 2125, "pitch": 72, "duration": 6, "velocity": 86}, {"time": 2128, "pitch": 45, "duration": 2, "velocity": 73}, {"time": 2128, "pitch": 57, "duration": 3, "velocity": 62}, {"time": 2131, "pitch": 52, "duration": 4, "velocity": 86}, {"time": 2134, "pitch": 64, "duration": 3, "velocity": 83}, {"time": 2134, "pitch": 69, "duration": 3, "velocity": 83}, {"time": 2134, "pitch": 72, "duration": 4, "velocity": 90}, {"time": 2137, "pitch": 52, "duration": 2, "velocity": 82}, {"time": 2140, "pitch": 43, "duration": 22, "velocity": 90}, {"time": 2140, "pitch": 55, "duration": 3, "velocity": 81}, {"time": 2140, "pitch": 62, "duration": 7, "velocity": 76}, {"time": 2140, "pitch": 64, "duration": 1, "velocity": 72}, {"time": 2140, "pitch": 67, "duration": 6, "velocity": 78}, {"time": 2140, "pitch": 71, "duration": 5, "velocity": 84}, {"time": 2146, "pitch": 55, "duration": 10, "velocity": 77}, {"time": 2149, "pitch": 62, "duration": 5, "velocity": 82}, {"time": 2152, "pitch": 67, "duration": 2, "velocity": 79}, {"time": 2155, "pitch": 62, "duration": 5, "velocity": 90}, {"time": 2155, "pitch": 71, "duration": 5, "velocity": 96}, {"time": 2161, "pitch": 55, "duration": 2, "velocity": 73}, {"time": 2161, "pitch": 62, "duration": 2, "velocity": 86}, {"time": 2161, "pitch": 67, "duration": 2, "velocity": 84}, {"time": 2167, "pitch": 41, "duration": 14, "velocity": 83}, {"time": 2167, "pitch": 53, "duration": 3, "velocity": 82}, {"time": 2167, "pitch": 60, "duration": 6, "velocity": 83}, {"time": 2167, "pitch": 65, "duration": 7, "velocity": 77}, {"time": 2167, "pitch": 69, "duration": 5, "velocity": 80}, {"time": 2173, "pitch": 53, "duration": 7, "velocity": 76}, {"time": 2176, "pitch": 60, "duration": 1, "velocity": 57}, {"time": 2179, "pitch": 60, "duration": 4, "velocity": 86}, {"time": 2179, "pitch": 65, "duration": 4, "velocity": 86}, {"time": 2179, "pitch": 69, "duration": 4, "velocity": 83}, {"time": 2182, "pitch": 41, "duration": 3, "velocity": 79}, {"time": 2182, "pitch": 53, "duration": 2, "velocity": 78}, {"time": 2185, "pitch": 60, "duration": 2, "velocity": 77}, {"time": 2188, "pitch": 40, "duration": 9, "velocity": 84}, {"time": 2188, "pitch": 52, "duration": 3, "velocity": 75}, {"time": 2188, "pitch": 62, "duration": 7, "velocity": 84}, {"time": 2188, "pitch": 71, "duration": 6, "velocity": 86}, {"time": 2194, "pitch": 52, "duration": 2, "velocity": 90}, {"time": 2197, "pitch": 62, "duration": 5, "velocity": 91}, {"time": 2200, "pitch": 40, "duration": 5, "velocity": 83}, {"time": 2203, "pitch": 62, "duration": 9, "velocity": 84}, {"time": 2203, "pitch": 67, "duration": 9, "velocity": 84}, {"time": 2203, "pitch": 71, "duration": 8, "velocity": 86}, {"time": 2209, "pitch": 40, "duration": 1, "velocity": 83}, {"time": 2209, "pitch": 52, "duration": 1, "velocity": 51}, {"time": 2212, "pitch": 39, "duration": 2, "velocity": 98}, {"time": 2212, "pitch": 51, "duration": 1, "velocity": 52}, {"time": 2215, "pitch": 38, "duration": 19, "velocity": 86}, {"time": 2215, "pitch": 50, "duration": 3, "velocity": 83}, {"time": 2215, "pitch": 60, "duration": 3, "velocity": 63}, {"time": 2215, "pitch": 66, "duration": 2, "velocity": 83}, {"time": 2215, "pitch": 69, "duration": 7, "velocity": 82}, {"time": 2221, "pitch": 50, "duration": 7, "velocity": 84}, {"time": 2224, "pitch": 60, "duration": 1, "velocity": 42}, {"time": 2227, "pitch": 60, "duration": 6, "velocity": 82}, {"time": 2227, "pitch": 65, "duration": 6, "velocity": 83}, {"time": 2227, "pitch": 69, "duration": 6, "velocity": 83}, {"time": 2233, "pitch": 50, "duration": 2, "velocity": 72}, {"time": 2239, "pitch": 45, "duration": 15, "velocity": 86}, {"time": 2239, "pitch": 64, "duration": 4, "velocity": 90}, {"time": 2239, "pitch": 69, "duration": 3, "velocity": 69}, {"time": 2239, "pitch": 72, "duration": 4, "velocity": 91}, {"time": 2242, "pitch": 57, "duration": 2, "velocity": 41}, {"time": 2245, "pitch": 64, "duration": 3, "velocity": 80}, {"time": 2245, "pitch": 71, "duration": 5, "velocity": 90}, {"time": 2248, "pitch": 57, "duration": 5, "velocity": 42}, {"time": 2251, "pitch": 64, "duration": 5, "velocity": 83}, {"time": 2251, "pitch": 72, "duration": 7, "velocity": 91}, {"time": 2257, "pitch": 45, "duration": 2, "velocity": 83}, {"time": 2263, "pitch": 38, "duration": 8, "velocity": 83}, {"time": 2263, "pitch": 62, "duration": 5, "velocity": 80}, {"time": 2263, "pitch": 69, "duration": 7, "velocity": 82}, {"time": 2269, "pitch": 50, "duration": 3, "velocity": 76}, {"time": 2275, "pitch": 40, "duration": 7, "velocity": 86}, {"time": 2275, "pitch": 52, "duration": 3, "velocity": 83}, {"time": 2275, "pitch": 62, "duration": 8, "velocity": 79}, {"time": 2275, "pitch": 67, "duration": 7, "velocity": 84}, {"time": 2281, "pitch": 52, "duration": 3, "velocity": 84}, {"time": 2284, "pitch": 67, "duration": 1, "velocity": 38}, {"time": 2287, "pitch": 42, "duration": 41, "velocity": 84}, {"time": 2287, "pitch": 64, "duration": 16, "velocity": 79}, {"time": 2287, "pitch": 57, "duration": 15, "velocity": 70}, {"time": 2287, "pitch": 60, "duration": 15, "velocity": 81}, {"time": 2287, "pitch": 54, "duration": 27, "velocity": 71}, {"time": 2308, "pitch": 72, "duration": 16, "velocity": 76}, {"time": 2308, "pitch": 64, "duration": 11, "velocity": 61}, {"time": 2321, "pitch": 54, "duration": 7, "velocity": 20}, {"time": 2323, "pitch": 69, "duration": 5, "velocity": 82}, {"time": 2323, "pitch": 64, "duration": 5, "velocity": 73}, {"time": 2335, "pitch": 41, "duration": 45, "velocity": 73}, {"time": 2335, "pitch": 69, "duration": 13, "velocity": 71}, {"time": 2335, "pitch": 60, "duration": 13, "velocity": 69}, {"time": 2336, "pitch": 53, "duration": 7, "velocity": 57}, {"time": 2336, "pitch": 65, "duration": 12, "velocity": 84}, {"time": 2347, "pitch": 53, "duration": 25, "velocity": 38}, {"time": 2351, "pitch": 60, "duration": 2, "velocity": 51}, {"time": 2355, "pitch": 65, "duration": 2, "velocity": 11}, {"time": 2357, "pitch": 72, "duration": 1, "velocity": 79}, {"time": 2365, "pitch": 76, "duration": 2, "velocity": 68}, {"time": 2370, "pitch": 72, "duration": 1, "velocity": 78}, {"time": 2374, "pitch": 53, "duration": 4, "velocity": 34}, {"time": 2377, "pitch": 69, "duration": 1, "velocity": 76}, {"time": 2383, "pitch": 45, "duration": 40, "velocity": 79}, {"time": 2383, "pitch": 57, "duration": 5, "velocity": 57}, {"time": 2383, "pitch": 60, "duration": 9, "velocity": 76}, {"time": 2383, "pitch": 64, "duration": 9, "velocity": 78}, {"time": 2383, "pitch": 69, "duration": 10, "velocity": 78}, {"time": 2392, "pitch": 57, "duration": 18, "velocity": 32}, {"time": 2395, "pitch": 60, "duration": 9, "velocity": 63}, {"time": 2395, "pitch": 64, "duration": 7, "velocity": 68}, {"time": 2395, "pitch": 69, "duration": 10, "velocity": 63}, {"time": 2407, "pitch": 60, "duration": 9, "velocity": 41}, {"time": 2407, "pitch": 67, "duration": 11, "velocity": 53}, {"time": 2416, "pitch": 57, "duration": 5, "velocity": 36}, {"time": 2419, "pitch": 60, "duration": 7, "velocity": 73}, {"time": 2419, "pitch": 64, "duration": 6, "velocity": 76}, {"time": 2419, "pitch": 69, "duration": 7, "velocity": 76}, {"time": 2425, "pitch": 45, "duration": 2, "velocity": 67}, {"time": 2431, "pitch": 45, "duration": 34, "velocity": 78}, {"time": 2431, "pitch": 57, "duration": 8, "velocity": 53}, {"time": 2432, "pitch": 69, "duration": 2, "velocity": 71}, {"time": 2432, "pitch": 64, "duration": 1, "velocity": 71}, {"time": 2432, "pitch": 60, "duration": 1, "velocity": 59}, {"time": 2437, "pitch": 69, "duration": 8, "velocity": 72}, {"time": 2437, "pitch": 64, "duration": 8, "velocity": 72}, {"time": 2438, "pitch": 60, "duration": 6, "velocity": 71}, {"time": 2444, "pitch": 57, "duration": 13, "velocity": 40}, {"time": 2447, "pitch": 60, "duration": 5, "velocity": 53}, {"time": 2449, "pitch": 67, "duration": 4, "velocity": 70}, {"time": 2453, "pitch": 64, "duration": 7, "velocity": 61}, {"time": 2453, "pitch": 60, "duration": 6, "velocity": 37}, {"time": 2453, "pitch": 69, "duration": 7, "velocity": 74}, {"time": 2459, "pitch": 57, "duration": 6, "velocity": 38}, {"time": 2461, "pitch": 60, "duration": 2, "velocity": 47}, {"time": 2467, "pitch": 60, "duration": 7, "velocity": 72}, {"time": 2467, "pitch": 64, "duration": 6, "velocity": 71}, {"time": 2467, "pitch": 43, "duration": 7, "velocity": 77}, {"time": 2467, "pitch": 67, "duration": 6, "velocity": 71}, {"time": 2467, "pitch": 55, "duration": 2, "velocity": 55}, {"time": 2473, "pitch": 55, "duration": 1, "velocity": 63}, {"time": 2479, "pitch": 42, "duration": 38, "velocity": 90}, {"time": 2479, "pitch": 54, "duration": 5, "velocity": 79}, {"time": 2479, "pitch": 60, "duration": 8, "velocity": 78}, {"time": 2479, "pitch": 57, "duration": 8, "velocity": 61}, {"time": 2479, "pitch": 64, "duration": 7, "velocity": 59}, {"time": 2488, "pitch": 54, "duration": 6, "velocity": 44}, {"time": 2491, "pitch": 64, "duration": 9, "velocity": 76}, {"time": 2491, "pitch": 57, "duration": 8, "velocity": 62}, {"time": 2491, "pitch": 60, "duration": 7, "velocity": 79}, {"time": 2498, "pitch": 54, "duration": 9, "velocity": 25}, {"time": 2503, "pitch": 64, "duration": 9, "velocity": 75}, {"time": 2504, "pitch": 57, "duration": 7, "velocity": 69}, {"time": 2504, "pitch": 60, "duration": 8, "velocity": 82}, {"time": 2512, "pitch": 54, "duration": 12, "velocity": 53}, {"time": 2515, "pitch": 64, "duration": 12, "velocity": 81}, {"time": 2515, "pitch": 57, "duration": 8, "velocity": 76}, {"time": 2515, "pitch": 60, "duration": 7, "velocity": 83}, {"time": 2521, "pitch": 42, "duration": 3, "velocity": 94}, {"time": 2527, "pitch": 41, "duration": 45, "velocity": 80}, {"time": 2527, "pitch": 53, "duration": 6, "velocity": 77}, {"time": 2527, "pitch": 65, "duration": 9, "velocity": 82}, {"time": 2528, "pitch": 57, "duration": 9, "velocity": 73}, {"time": 2528, "pitch": 60, "duration": 9, "velocity": 83}, {"time": 2536, "pitch": 53, "duration": 6, "velocity": 34}, {"time": 2539, "pitch": 57, "duration": 10, "velocity": 80}, {"time": 2539, "pitch": 60, "duration": 10, "velocity": 82}, {"time": 2539, "pitch": 65, "duration": 9, "velocity": 83}, {"time": 2545, "pitch": 53, "duration": 10, "velocity": 57}, {"time": 2551, "pitch": 57, "duration": 10, "velocity": 75}, {"time": 2551, "pitch": 65, "duration": 10, "velocity": 81}, {"time": 2551, "pitch": 60, "duration": 10, "velocity": 84}, {"time": 2561, "pitch": 53, "duration": 5, "velocity": 71}, {"time": 2563, "pitch": 57, "duration": 8, "velocity": 79}, {"time": 2563, "pitch": 60, "duration": 8, "velocity": 84}, {"time": 2563, "pitch": 65, "duration": 8, "velocity": 83}, {"time": 2569, "pitch": 53, "duration": 3, "velocity": 72}, {"time": 2575, "pitch": 45, "duration": 40, "velocity": 63}, {"time": 2575, "pitch": 57, "duration": 7, "velocity": 73}, {"time": 2575, "pitch": 64, "duration": 3, "velocity": 76}, {"time": 2575, "pitch": 69, "duration": 3, "velocity": 78}, {"time": 2575, "pitch": 60, "duration": 3, "velocity": 79}, {"time": 2581, "pitch": 60, "duration": 1, "velocity": 75}, {"time": 2581, "pitch": 64, "duration": 1, "velocity": 76}, {"time": 2581, "pitch": 69, "duration": 1, "velocity": 76}, {"time": 2584, "pitch": 57, "duration": 4, "velocity": 16}, {"time": 2587, "pitch": 60, "duration": 1, "velocity": 82}, {"time": 2587, "pitch": 64, "duration": 1, "velocity": 84}, {"time": 2587, "pitch": 69, "duration": 1, "velocity": 81}, {"time": 2590, "pitch": 57, "duration": 16, "velocity": 33}, {"time": 2593, "pitch": 60, "duration": 1, "velocity": 79}, {"time": 2593, "pitch": 64, "duration": 1, "velocity": 78}, {"time": 2593, "pitch": 69, "duration": 2, "velocity": 82}, {"time": 2599, "pitch": 60, "duration": 1, "velocity": 79}, {"time": 2599, "pitch": 64, "duration": 1, "velocity": 79}, {"time": 2599, "pitch": 69, "duration": 2, "velocity": 75}, {"time": 2605, "pitch": 60, "duration": 1, "velocity": 83}, {"time": 2605, "pitch": 64, "duration": 1, "velocity": 76}, {"time": 2605, "pitch": 69, "duration": 3, "velocity": 79}, {"time": 2608, "pitch": 57, "duration": 3, "velocity": 33}, {"time": 2611, "pitch": 60, "duration": 2, "velocity": 83}, {"time": 2611, "pitch": 64, "duration": 3, "velocity": 82}, {"time": 2611, "pitch": 69, "duration": 4, "velocity": 82}, {"time": 2614, "pitch": 57, "duration": 1, "velocity": 59}, {"time": 2617, "pitch": 43, "duration": 4, "velocity": 84}, {"time": 2617, "pitch": 55, "duration": 2, "velocity": 67}, {"time": 2617, "pitch": 60, "duration": 4, "velocity": 76}, {"time": 2617, "pitch": 67, "duration": 5, "velocity": 77}, {"time": 2623, "pitch": 45, "duration": 17, "velocity": 78}, {"time": 2623, "pitch": 57, "duration": 7, "velocity": 70}, {"time": 2623, "pitch": 60, "duration": 2, "velocity": 71}, {"time": 2623, "pitch": 64, "duration": 2, "velocity": 73}, {"time": 2623, "pitch": 69, "duration": 3, "velocity": 78}, {"time": 2629, "pitch": 60, "duration": 1, "velocity": 82}, {"time": 2629, "pitch": 64, "duration": 1, "velocity": 79}, {"time": 2629, "pitch": 69, "duration": 2, "velocity": 79}, {"time": 2632, "pitch": 57, "duration": 4, "velocity": 44}, {"time": 2635, "pitch": 60, "duration": 2, "velocity": 82}, {"time": 2635, "pitch": 64, "duration": 1, "velocity": 81}, {"time": 2635, "pitch": 69, "duration": 4, "velocity": 82}, {"time": 2638, "pitch": 57, "duration": 1, "velocity": 54}, {"time": 2641, "pitch": 43, "duration": 1, "velocity": 82}, {"time": 2641, "pitch": 55, "duration": 2, "velocity": 59}, {"time": 2641, "pitch": 59, "duration": 2, "velocity": 75}, {"time": 2641, "pitch": 64, "duration": 2, "velocity": 60}, {"time": 2641, "pitch": 67, "duration": 4, "velocity": 72}, {"time": 2644, "pitch": 45, "duration": 6, "velocity": 78}, {"time": 2644, "pitch": 57, "duration": 6, "velocity": 75}, {"time": 2644, "pitch": 60, "duration": 3, "velocity": 78}, {"time": 2644, "pitch": 64, "duration": 3, "velocity": 73}, {"time": 2644, "pitch": 69, "duration": 4, "velocity": 79}, {"time": 2650, "pitch": 60, "duration": 2, "velocity": 82}, {"time": 2650, "pitch": 64, "duration": 2, "velocity": 76}, {"time": 2650, "pitch": 67, "duration": 4, "velocity": 83}, {"time": 2656, "pitch": 43, "duration": 3, "velocity": 81}, {"time": 2656, "pitch": 55, "duration": 3, "velocity": 62}, {"time": 2659, "pitch": 60, "duration": 4, "velocity": 82}, {"time": 2659, "pitch": 64, "duration": 4, "velocity": 80}, {"time": 2659, "pitch": 67, "duration": 6, "velocity": 84}, {"time": 2665, "pitch": 45, "duration": 1, "velocity": 70}, {"time": 2665, "pitch": 47, "duration": 1, "velocity": 78}, {"time": 2665, "pitch": 59, "duration": 1, "velocity": 48}, {"time": 2665, "pitch": 60, "duration": 1, "velocity": 82}, {"time": 2665, "pitch": 64, "duration": 1, "velocity": 59}, {"time": 2665, "pitch": 69, "duration": 2, "velocity": 83}, {"time": 2671, "pitch": 42, "duration": 45, "velocity": 90}, {"time": 2671, "pitch": 54, "duration": 2, "velocity": 78}, {"time": 2671, "pitch": 57, "duration": 2, "velocity": 78}, {"time": 2671, "pitch": 60, "duration": 1, "velocity": 80}, {"time": 2671, "pitch": 64, "duration": 2, "velocity": 83}, {"time": 2674, "pitch": 54, "duration": 2, "velocity": 61}, {"time": 2677, "pitch": 57, "duration": 2, "velocity": 79}, {"time": 2677, "pitch": 60, "duration": 1, "velocity": 83}, {"time": 2677, "pitch": 67, "duration": 4, "velocity": 81}, {"time": 2680, "pitch": 54, "duration": 4, "velocity": 30}, {"time": 2683, "pitch": 57, "duration": 1, "velocity": 78}, {"time": 2683, "pitch": 60, "duration": 1, "velocity": 83}, {"time": 2683, "pitch": 64, "duration": 2, "velocity": 83}, {"time": 2686, "pitch": 54, "duration": 2, "velocity": 56}, {"time": 2689, "pitch": 57, "duration": 1, "velocity": 74}, {"time": 2689, "pitch": 60, "duration": 2, "velocity": 83}, {"time": 2689, "pitch": 64, "duration": 1, "velocity": 57}, {"time": 2689, "pitch": 67, "duration": 2, "velocity": 68}, {"time": 2692, "pitch": 60, "duration": 1, "velocity": 61}, {"time": 2692, "pitch": 69, "duration": 2, "velocity": 81}, {"time": 2698, "pitch": 54, "duration": 2, "velocity": 57}, {"time": 2701, "pitch": 57, "duration": 2, "velocity": 68}, {"time": 2701, "pitch": 60, "duration": 3, "velocity": 78}, {"time": 2701, "pitch": 67, "duration": 2, "velocity": 77}, {"time": 2704, "pitch": 54, "duration": 2, "velocity": 52}, {"time": 2704, "pitch": 60, "duration": 4, "velocity": 53}, {"time": 2704, "pitch": 69, "duration": 3, "velocity": 83}, {"time": 2707, "pitch": 54, "duration": 4, "velocity": 55}, {"time": 2713, "pitch": 54, "duration": 1, "velocity": 47}, {"time": 2713, "pitch": 57, "duration": 2, "velocity": 77}, {"time": 2713, "pitch": 60, "duration": 1, "velocity": 80}, {"time": 2713, "pitch": 64, "duration": 2, "velocity": 81}, {"time": 2719, "pitch": 41, "duration": 42, "velocity": 78}, {"time": 2719, "pitch": 53, "duration": 7, "velocity": 70}, {"time": 2719, "pitch": 60, "duration": 2, "velocity": 76}, {"time": 2719, "pitch": 64, "duration": 2, "velocity": 71}, {"time": 2719, "pitch": 69, "duration": 2, "velocity": 79}, {"time": 2725, "pitch": 60, "duration": 2, "velocity": 73}, {"time": 2725, "pitch": 64, "duration": 2, "velocity": 73}, {"time": 2725, "pitch": 69, "duration": 3, "velocity": 79}, {"time": 2728, "pitch": 53, "duration": 4, "velocity": 54}, {"time": 2731, "pitch": 60, "duration": 4, "velocity": 76}, {"time": 2731, "pitch": 65, "duration": 5, "velocity": 83}, {"time": 2731, "pitch": 69, "duration": 4, "velocity": 79}, {"time": 2734, "pitch": 53, "duration": 7, "velocity": 54}, {"time": 2737, "pitch": 60, "duration": 2, "velocity": 68}, {"time": 2737, "pitch": 65, "duration": 3, "velocity": 70}, {"time": 2740, "pitch": 60, "duration": 5, "velocity": 82}, {"time": 2740, "pitch": 64, "duration": 5, "velocity": 76}, {"time": 2740, "pitch": 67, "duration": 6, "velocity": 82}, {"time": 2746, "pitch": 53, "duration": 3, "velocity": 69}, {"time": 2749, "pitch": 60, "duration": 2, "velocity": 79}, {"time": 2749, "pitch": 64, "duration": 3, "velocity": 80}, {"time": 2749, "pitch": 67, "duration": 4, "velocity": 79}, {"time": 2752, "pitch": 53, "duration": 2, "velocity": 58}, {"time": 2752, "pitch": 60, "duration": 4, "velocity": 82}, {"time": 2752, "pitch": 65, "duration": 4, "velocity": 77}, {"time": 2752, "pitch": 69, "duration": 5, "velocity": 84}, {"time": 2758, "pitch": 53, "duration": 3, "velocity": 78}, {"time": 2761, "pitch": 60, "duration": 3, "velocity": 83}, {"time": 2761, "pitch": 67, "duration": 5, "velocity": 84}, {"time": 2764, "pitch": 64, "duration": 6, "velocity": 72}, {"time": 2767, "pitch": 45, "duration": 28, "velocity": 80}, {"time": 2767, "pitch": 57, "duration": 7, "velocity": 74}, {"time": 2767, "pitch": 60, "duration": 3, "velocity": 83}, {"time": 2767, "pitch": 69, "duration": 4, "velocity": 15}, {"time": 2773, "pitch": 60, "duration": 3, "velocity": 80}, {"time": 2773, "pitch": 64, "duration": 3, "velocity": 82}, {"time": 2773, "pitch": 69, "duration": 4, "velocity": 81}, {"time": 2776, "pitch": 57, "duration": 3, "velocity": 37}, {"time": 2779, "pitch": 60, "duration": 4, "velocity": 83}, {"time": 2779, "pitch": 67, "duration": 4, "velocity": 79}, {"time": 2782, "pitch": 57, "duration": 2, "velocity": 69}, {"time": 2785, "pitch": 60, "duration": 2, "velocity": 79}, {"time": 2785, "pitch": 64, "duration": 3, "velocity": 75}, {"time": 2785, "pitch": 67, "duration": 4, "velocity": 79}, {"time": 2788, "pitch": 57, "duration": 2, "velocity": 57}, {"time": 2788, "pitch": 60, "duration": 2, "velocity": 80}, {"time": 2788, "pitch": 64, "duration": 1, "velocity": 51}, {"time": 2788, "pitch": 69, "duration": 3, "velocity": 83}, {"time": 2791, "pitch": 57, "duration": 2, "velocity": 57}, {"time": 2794, "pitch": 60, "duration": 5, "velocity": 79}, {"time": 2794, "pitch": 64, "duration": 6, "velocity": 80}, {"time": 2794, "pitch": 67, "duration": 6, "velocity": 78}, {"time": 2800, "pitch": 45, "duration": 4, "velocity": 82}, {"time": 2800, "pitch": 57, "duration": 4, "velocity": 74}, {"time": 2803, "pitch": 60, "duration": 4, "velocity": 80}, {"time": 2803, "pitch": 64, "duration": 5, "velocity": 77}, {"time": 2803, "pitch": 67, "duration": 5, "velocity": 83}, {"time": 2806, "pitch": 45, "duration": 3, "velocity": 82}, {"time": 2806, "pitch": 57, "duration": 2, "velocity": 72}, {"time": 2809, "pitch": 60, "duration": 3, "velocity": 83}, {"time": 2809, "pitch": 64, "duration": 1, "velocity": 59}, {"time": 2809, "pitch": 67, "duration": 4, "velocity": 82}, {"time": 2812, "pitch": 64, "duration": 2, "velocity": 77}, {"time": 2815, "pitch": 40, "duration": 5, "velocity": 80}, {"time": 2815, "pitch": 52, "duration": 5, "velocity": 58}, {"time": 2815, "pitch": 64, "duration": 4, "velocity": 82}, {"time": 2815, "pitch": 68, "duration": 4, "velocity": 79}, {"time": 2815, "pitch": 71, "duration": 4, "velocity": 86}, {"time": 2821, "pitch": 40, "duration": 5, "velocity": 84}, {"time": 2821, "pitch": 52, "duration": 5, "velocity": 78}, {"time": 2821, "pitch": 64, "duration": 4, "velocity": 80}, {"time": 2821, "pitch": 68, "duration": 5, "velocity": 68}, {"time": 2821, "pitch": 71, "duration": 5, "velocity": 82}, {"time": 2827, "pitch": 40, "duration": 5, "velocity": 90}, {"time": 2827, "pitch": 52, "duration": 5, "velocity": 81}, {"time": 2827, "pitch": 64, "duration": 5, "velocity": 81}, {"time": 2827, "pitch": 68, "duration": 5, "velocity": 71}, {"time": 2827, "pitch": 71, "duration": 5, "velocity": 94}, {"time": 2833, "pitch": 40, "duration": 5, "velocity": 86}, {"time": 2833, "pitch": 52, "duration": 5, "velocity": 82}, {"time": 2833, "pitch": 64, "duration": 5, "velocity": 80}, {"time": 2833, "pitch": 68, "duration": 5, "velocity": 78}, {"time": 2833, "pitch": 71, "duration": 5, "velocity": 83}, {"time": 2839, "pitch": 40, "duration": 5, "velocity": 84}, {"time": 2839, "pitch": 52, "duration": 5, "velocity": 77}, {"time": 2839, "pitch": 64, "duration": 5, "velocity": 79}, {"time": 2839, "pitch": 68, "duration": 5, "velocity": 73}, {"time": 2839, "pitch": 71, "duration": 5, "velocity": 82}, {"time": 2845, "pitch": 40, "duration": 5, "velocity": 83}, {"time": 2845, "pitch": 52, "duration": 5, "velocity": 76}, {"time": 2845, "pitch": 64, "duration": 4, "velocity": 76}, {"time": 2845, "pitch": 68, "duration": 4, "velocity": 75}, {"time": 2845, "pitch": 71, "duration": 4, "velocity": 79}, {"time": 2851, "pitch": 40, "duration": 5, "velocity": 83}, {"time": 2851, "pitch": 52, "duration": 4, "velocity": 84}, {"time": 2851, "pitch": 64, "duration": 4, "velocity": 79}, {"time": 2851, "pitch": 68, "duration": 4, "velocity": 75}, {"time": 2851, "pitch": 71, "duration": 4, "velocity": 83}, {"time": 2857, "pitch": 40, "duration": 4, "velocity": 84}, {"time": 2857, "pitch": 52, "duration": 4, "velocity": 86}, {"time": 2857, "pitch": 64, "duration": 2, "velocity": 79}, {"time": 2857, "pitch": 68, "duration": 2, "velocity": 77}, {"time": 2857, "pitch": 71, "duration": 2, "velocity": 83}, {"time": 2863, "pitch": 41, "duration": 5, "velocity": 84}, {"time": 2863, "pitch": 53, "duration": 4, "velocity": 86}, {"time": 2863, "pitch": 60, "duration": 4, "velocity": 83}, {"time": 2863, "pitch": 65, "duration": 4, "velocity": 86}, {"time": 2863, "pitch": 69, "duration": 4, "velocity": 84}, {"time": 2869, "pitch": 41, "duration": 4, "velocity": 86}, {"time": 2869, "pitch": 53, "duration": 4, "velocity": 86}, {"time": 2869, "pitch": 60, "duration": 4, "velocity": 84}, {"time": 2869, "pitch": 65, "duration": 4, "velocity": 84}, {"time": 2869, "pitch": 69, "duration": 4, "velocity": 83}, {"time": 2875, "pitch": 41, "duration": 4, "velocity": 86}, {"time": 2875, "pitch": 53, "duration": 4, "velocity": 84}, {"time": 2875, "pitch": 60, "duration": 4, "velocity": 84}, {"time": 2875, "pitch": 65, "duration": 4, "velocity": 86}, {"time": 2875, "pitch": 69, "duration": 4, "velocity": 82}, {"time": 2881, "pitch": 41, "duration": 4, "velocity": 83}, {"time": 2881, "pitch": 53, "duration": 4, "velocity": 86}, {"time": 2881, "pitch": 60, "duration": 4, "velocity": 80}, {"time": 2881, "pitch": 65, "duration": 4, "velocity": 86}, {"time": 2881, "pitch": 69, "duration": 4, "velocity": 80}, {"time": 2887, "pitch": 41, "duration": 6, "velocity": 90}, {"time": 2887, "pitch": 53, "duration": 4, "velocity": 91}, {"time": 2887, "pitch": 60, "duration": 9, "velocity": 79}, {"time": 2887, "pitch": 65, "duration": 10, "velocity": 84}, {"time": 2887, "pitch": 69, "duration": 6, "velocity": 80}, {"time": 2896, "pitch": 41, "duration": 6, "velocity": 84}, {"time": 2896, "pitch": 53, "duration": 5, "velocity": 80}, {"time": 2899, "pitch": 60, "duration": 7, "velocity": 90}, {"time": 2899, "pitch": 65, "duration": 7, "velocity": 91}, {"time": 2899, "pitch": 69, "duration": 7, "velocity": 83}, {"time": 2905, "pitch": 41, "duration": 2, "velocity": 104}, {"time": 2905, "pitch": 53, "duration": 1, "velocity": 104}, {"time": 2911, "pitch": 46, "duration": 4, "velocity": 83}, {"time": 2911, "pitch": 58, "duration": 4, "velocity": 83}, {"time": 2911, "pitch": 61, "duration": 4, "velocity": 91}, {"time": 2911, "pitch": 65, "duration": 4, "velocity": 96}, {"time": 2911, "pitch": 70, "duration": 4, "velocity": 86}, {"time": 2917, "pitch": 46, "duration": 4, "velocity": 91}, {"time": 2917, "pitch": 58, "duration": 4, "velocity": 94}, {"time": 2917, "pitch": 61, "duration": 4, "velocity": 90}, {"time": 2917, "pitch": 65, "duration": 4, "velocity": 90}, {"time": 2917, "pitch": 70, "duration": 4, "velocity": 84}, {"time": 2935, "pitch": 41, "duration": 4, "velocity": 90}, {"time": 2935, "pitch": 53, "duration": 4, "velocity": 90}, {"time": 2935, "pitch": 60, "duration": 4, "velocity": 86}, {"time": 2935, "pitch": 63, "duration": 4, "velocity": 95}, {"time": 2935, "pitch": 68, "duration": 4, "velocity": 86}, {"time": 2941, "pitch": 41, "duration": 3, "velocity": 91}, {"time": 2941, "pitch": 53, "duration": 3, "velocity": 95}, {"time": 2941, "pitch": 60, "duration": 3, "velocity": 84}, {"time": 2941, "pitch": 63, "duration": 3, "velocity": 86}, {"time": 2941, "pitch": 68, "duration": 3, "velocity": 93}, {"time": 2959, "pitch": 43, "duration": 19, "velocity": 99}, {"time": 2959, "pitch": 55, "duration": 5, "velocity": 86}, {"time": 2959, "pitch": 58, "duration": 9, "velocity": 78}, {"time": 2959, "pitch": 61, "duration": 10, "velocity": 95}, {"time": 2959, "pitch": 65, "duration": 7, "velocity": 83}, {"time": 2968, "pitch": 55, "duration": 3, "velocity": 79}, {"time": 2971, "pitch": 58, "duration": 4, "velocity": 80}, {"time": 2971, "pitch": 61, "duration": 4, "velocity": 93}, {"time": 2971, "pitch": 65, "duration": 4, "velocity": 90}, {"time": 2974, "pitch": 55, "duration": 3, "velocity": 73}, {"time": 2977, "pitch": 58, "duration": 10, "velocity": 71}, {"time": 2980, "pitch": 42, "duration": 15, "velocity": 84}, {"time": 2980, "pitch": 54, "duration": 3, "velocity": 74}, {"time": 2980, "pitch": 61, "duration": 6, "velocity": 79}, {"time": 2980, "pitch": 65, "duration": 3, "velocity": 84}, {"time": 2980, "pitch": 66, "duration": 6, "velocity": 94}, {"time": 2986, "pitch": 54, "duration": 2, "velocity": 84}, {"time": 2989, "pitch": 58, "duration": 5, "velocity": 78}, {"time": 2989, "pitch": 61, "duration": 5, "velocity": 83}, {"time": 2989, "pitch": 66, "duration": 5, "velocity": 84}, {"time": 2992, "pitch": 54, "duration": 2, "velocity": 86}, {"time": 2995, "pitch": 42, "duration": 2, "velocity": 84}, {"time": 2995, "pitch": 54, "duration": 2, "velocity": 91}, {"time": 2995, "pitch": 58, "duration": 2, "velocity": 86}, {"time": 2995, "pitch": 61, "duration": 2, "velocity": 94}, {"time": 2995, "pitch": 66, "duration": 2, "velocity": 93}, {"time": 2998, "pitch": 42, "duration": 7, "velocity": 86}, {"time": 2998, "pitch": 54, "duration": 4, "velocity": 81}, {"time": 2998, "pitch": 58, "duration": 6, "velocity": 80}, {"time": 2998, "pitch": 61, "duration": 6, "velocity": 94}, {"time": 2998, "pitch": 65, "duration": 6, "velocity": 90}, {"time": 3004, "pitch": 54, "duration": 1, "velocity": 75}, {"time": 3007, "pitch": 39, "duration": 19, "velocity": 95}, {"time": 3007, "pitch": 51, "duration": 5, "velocity": 79}, {"time": 3007, "pitch": 58, "duration": 5, "velocity": 78}, {"time": 3007, "pitch": 61, "duration": 6, "velocity": 94}, {"time": 3007, "pitch": 66, "duration": 5, "velocity": 83}, {"time": 3013, "pitch": 58, "duration": 4, "velocity": 44}, {"time": 3016, "pitch": 51, "duration": 4, "velocity": 84}, {"time": 3019, "pitch": 58, "duration": 9, "velocity": 76}, {"time": 3019, "pitch": 61, "duration": 8, "velocity": 84}, {"time": 3019, "pitch": 66, "duration": 7, "velocity": 83}, {"time": 3025, "pitch": 51, "duration": 2, "velocity": 78}, {"time": 3031, "pitch": 46, "duration": 19, "velocity": 90}, {"time": 3031, "pitch": 58, "duration": 3, "velocity": 79}, {"time": 3031, "pitch": 61, "duration": 4, "velocity": 90}, {"time": 3031, "pitch": 65, "duration": 4, "velocity": 86}, {"time": 3034, "pitch": 53, "duration": 8, "velocity": 82}, {"time": 3037, "pitch": 60, "duration": 4, "velocity": 84}, {"time": 3037, "pitch": 63, "duration": 4, "velocity": 84}, {"time": 3040, "pitch": 58, "duration": 5, "velocity": 49}, {"time": 3043, "pitch": 61, "duration": 6, "velocity": 94}, {"time": 3043, "pitch": 65, "duration": 6, "velocity": 84}, {"time": 3049, "pitch": 53, "duration": 1, "velocity": 90}, {"time": 3055, "pitch": 41, "duration": 8, "velocity": 86}, {"time": 3055, "pitch": 53, "duration": 9, "velocity": 86}, {"time": 3055, "pitch": 56, "duration": 8, "velocity": 78}, {"time": 3055, "pitch": 61, "duration": 9, "velocity": 91}, {"time": 3055, "pitch": 65, "duration": 9, "velocity": 84}, {"time": 3067, "pitch": 42, "duration": 8, "velocity": 86}, {"time": 3067, "pitch": 54, "duration": 8, "velocity": 80}, {"time": 3067, "pitch": 58, "duration": 7, "velocity": 82}, {"time": 3067, "pitch": 61, "duration": 7, "velocity": 91}, {"time": 3067, "pitch": 66, "duration": 7, "velocity": 94}, {"time": 3079, "pitch": 44, "duration": 6, "velocity": 86}, {"time": 3079, "pitch": 56, "duration": 5, "velocity": 78}, {"time": 3079, "pitch": 60, "duration": 6, "velocity": 84}, {"time": 3079, "pitch": 63, "duration": 6, "velocity": 95}, {"time": 3079, "pitch": 68, "duration": 6, "velocity": 84}, {"time": 3091, "pitch": 41, "duration": 7, "velocity": 84}, {"time": 3091, "pitch": 53, "duration": 8, "velocity": 84}, {"time": 3091, "pitch": 56, "duration": 8, "velocity": 77}, {"time": 3091, "pitch": 60, "duration": 7, "velocity": 84}, {"time": 3091, "pitch": 63, "duration": 8, "velocity": 84}, {"time": 3103, "pitch": 46, "duration": 16, "velocity": 43}, {"time": 3103, "pitch": 53, "duration": 16, "velocity": 70}, {"time": 3103, "pitch": 58, "duration": 16, "velocity": 57}, {"time": 3103, "pitch": 61, "duration": 16, "velocity": 61}, {"time": 3103, "pitch": 65, "duration": 16, "velocity": 73}, {"time": 3103, "pitch": 68, "duration": 16, "velocity": 69}, {"time": 3103, "pitch": 70, "duration": 16, "velocity": 71}, {"time": 3127, "pitch": 41, "duration": 14, "velocity": 49}, {"time": 3127, "pitch": 48, "duration": 14, "velocity": 76}, {"time": 3127, "pitch": 53, "duration": 14, "velocity": 57}, {"time": 3127, "pitch": 60, "duration": 14, "velocity": 69}, {"time": 3127, "pitch": 63, "duration": 13, "velocity": 67}, {"time": 3127, "pitch": 68, "duration": 15, "velocity": 61}, {"time": 3151, "pitch": 46, "duration": 14, "velocity": 24}, {"time": 3151, "pitch": 53, "duration": 15, "velocity": 60}, {"time": 3151, "pitch": 58, "duration": 15, "velocity": 49}, {"time": 3151, "pitch": 60, "duration": 15, "velocity": 58}, {"time": 3151, "pitch": 61, "duration": 15, "velocity": 59}, {"time": 3151, "pitch": 65, "duration": 16, "velocity": 74}, {"time": 3151, "pitch": 68, "duration": 15, "velocity": 48}, {"time": 3175, "pitch": 53, "duration": 18, "velocity": 72}, {"time": 3175, "pitch": 56, "duration": 7, "velocity": 60}, {"time": 3175, "pitch": 60, "duration": 7, "velocity": 75}, {"time": 3175, "pitch": 63, "duration": 8, "velocity": 63}, {"time": 3190, "pitch": 72, "duration": 1, "velocity": 76}, {"time": 3199, "pitch": 46, "duration": 18, "velocity": 49}, {"time": 3199, "pitch": 53, "duration": 17, "velocity": 61}, {"time": 3199, "pitch": 61, "duration": 7, "velocity": 56}, {"time": 3199, "pitch": 65, "duration": 7, "velocity": 67}, {"time": 3199, "pitch": 68, "duration": 8, "velocity": 71}, {"time": 3211, "pitch": 58, "duration": 5, "velocity": 49}, {"time": 3214, "pitch": 60, "duration": 2, "velocity": 59}, {"time": 3217, "pitch": 63, "duration": 3, "velocity": 78}, {"time": 3220, "pitch": 68, "duration": 16, "velocity": 43}, {"time": 3223, "pitch": 53, "duration": 16, "velocity": 71}, {"time": 3223, "pitch": 60, "duration": 15, "velocity": 67}, {"time": 3223, "pitch": 63, "duration": 15, "velocity": 78}, {"time": 3247, "pitch": 51, "duration": 17, "velocity": 71}, {"time": 3247, "pitch": 58, "duration": 15, "velocity": 51}, {"time": 3247, "pitch": 61, "duration": 14, "velocity": 76}, {"time": 3247, "pitch": 66, "duration": 15, "velocity": 63}, {"time": 3250, "pitch": 63, "duration": 13, "velocity": 3}, {"time": 3271, "pitch": 53, "duration": 19, "velocity": 55}, {"time": 3271, "pitch": 56, "duration": 16, "velocity": 44}, {"time": 3271, "pitch": 60, "duration": 15, "velocity": 70}, {"time": 3271, "pitch": 63, "duration": 15, "velocity": 59}, {"time": 3304, "pitch": 63, "duration": 41, "velocity": 54}, {"time": 3305, "pitch": 68, "duration": 40, "velocity": 62}, {"time": 3305, "pitch": 46, "duration": 41, "velocity": 55}, {"time": 3305, "pitch": 58, "duration": 40, "velocity": 36}, {"time": 3305, "pitch": 70, "duration": 40, "velocity": 62}, {"time": 3305, "pitch": 72, "duration": 22, "velocity": 72}, {"time": 3306, "pitch": 73, "duration": 40, "velocity": 61}], "annotations": [{"time": 33, "annotation": {"number": 64, "value": 127}, "group": "control_change"}, {"time": 33, "annotation": {"number": 64, "value": 0}, "group": "control_change"}, {"time": 57, "annotation": {"number": 64, "value": 0}, "group": "control_change"}, {"time": 60, "annotation": {"number": 64, "value": 127}, "group": "control_change"}, {"time": 80, "annotation": {"number": 64, "value": 0}, "group": "control_change"}, {"time": 83, "annotation": {"number": 64, "value": 127}, "group": "control_change"}, {"time": 84, "annotation": {"number": 64, "value": 0}, "group": "control_change"}, {"time": 84, "annotation": {"number": 64, "value": 127}, "group": "control_change"}, {"time": 104, "annotation": {"number": 64, "value": 0}, "group": "control_change"}, {"time": 107, "annotation": {"number": 64, "value": 127}, "group": "control_change"}, {"time": 107, "annotation": {"number": 64, "value": 0}, "group": "control_change"}, {"time": 129, "annotation": {"number": 64, "value": 0}, "group": "control_change"}, {"time": 132, "annotation": {"number": 64, "value": 127}, "group": "control_change"}, {"time": 151, "annotation": {"number": 64, "value": 0}, "group": "control_change"}, {"time": 154, "annotation": {"number": 64, "value": 127}, "group": "control_change"}, {"time": 175, "annotation": {"number": 64, "value": 0}, "group": "control_change"}, {"time": 180, "annotation": {"number": 64, "value": 127}, "group": "control_change"}, {"time": 199, "annotation": {"number": 64, "value": 0}, "group": "control_change"}, {"time": 204, "annotation": {"number": 64, "value": 127}, "group": "control_change"}, {"time": 223, "annotation": {"number": 64, "value": 0}, "group": "control_change"}, {"time": 228, "annotation": {"number": 64, "value": 127}, "group": "control_change"}, {"time": 247, "annotation": {"number": 64, "value": 0}, "group": "control_change"}, {"time": 247, "annotation": {"number": 64, "value": 127}, "group": "control_change"}, {"time": 254, "annotation": {"number": 64, "value": 127}, "group": "control_change"}, {"time": 254, "annotation": {"number": 64, "value": 0}, "group": "control_change"}, {"time": 255, "annotation": {"number": 64, "value": 127}, "group": "control_change"}, {"time": 271, "annotation": {"number": 64, "value": 0}, "group": "control_change"}, {"time": 275, "annotation": {"number": 64, "value": 127}, "group": "control_change"}, {"time": 318, "annotation": {"number": 64, "value": 0}, "group": "control_change"}, {"time": 321, "annotation": {"number": 64, "value": 127}, "group": "control_change"}, {"time": 343, "annotation": {"number": 64, "value": 0}, "group": "control_change"}, {"time": 347, "annotation": {"number": 64, "value": 127}, "group": "control_change"}, {"time": 367, "annotation": {"number": 64, "value": 0}, "group": "control_change"}, {"time": 370, "annotation": {"number": 64, "value": 127}, "group": "control_change"}, {"time": 413, "annotation": {"number": 64, "value": 127}, "group": "control_change"}, {"time": 413, "annotation": {"number": 64, "value": 0}, "group": "control_change"}, {"time": 414, "annotation": {"number": 64, "value": 127}, "group": "control_change"}, {"time": 415, "annotation": {"number": 64, "value": 0}, "group": "control_change"}, {"time": 439, "annotation": {"number": 64, "value": 0}, "group": "control_change"}, {"time": 443, "annotation": {"number": 64, "value": 127}, "group": "control_change"}, {"time": 462, "annotation": {"number": 64, "value": 0}, "group": "control_change"}, {"time": 470, "annotation": {"number": 64, "value": 127}, "group": "control_change"}, {"time": 470, "annotation": {"number": 64, "value": 0}, "group": "control_change"}, {"time": 486, "annotation": {"number": 64, "value": 0}, "group": "control_change"}, {"time": 489, "annotation": {"number": 64, "value": 127}, "group": "control_change"}, {"time": 500, "annotation": {"number": 64, "value": 0}, "group": "control_change"}, {"time": 504, "annotation": {"number": 64, "value": 127}, "group": "control_change"}, {"time": 508, "annotation": {"number": 64, "value": 0}, "group": "control_change"}, {"time": 513, "annotation": {"number": 64, "value": 127}, "group": "control_change"}, {"time": 536, "annotation": {"number": 64, "value": 0}, "group": "control_change"}, {"time": 538, "annotation": {"number": 64, "value": 127}, "group": "control_change"}, {"time": 559, "annotation": {"number": 64, "value": 0}, "group": "control_change"}, {"time": 561, "annotation": {"number": 64, "value": 127}, "group": "control_change"}, {"time": 608, "annotation": {"number": 64, "value": 127}, "group": "control_change"}, {"time": 610, "annotation": {"number": 64, "value": 0}, "group": "control_change"}, {"time": 629, "annotation": {"number": 64, "value": 0}, "group": "control_change"}, {"time": 643, "annotation": {"number": 64, "value": 127}, "group": "control_change"}, {"time": 654, "annotation": {"number": 64, "value": 0}, "group": "control_change"}, {"time": 663, "annotation": {"number": 64, "value": 127}, "group": "control_change"}, {"time": 664, "annotation": {"number": 64, "value": 0}, "group": "control_change"}, {"time": 664, "annotation": {"number": 64, "value": 127}, "group": "control_change"}, {"time": 677, "annotation": {"number": 64, "value": 0}, "group": "control_change"}, {"time": 691, "annotation": {"number": 64, "value": 127}, "group": "control_change"}, {"time": 702, "annotation": {"number": 64, "value": 0}, "group": "control_change"}, {"time": 708, "annotation": {"number": 64, "value": 127}, "group": "control_change"}, {"time": 717, "annotation": {"number": 64, "value": 0}, "group": "control_change"}, {"time": 720, "annotation": {"number": 64, "value": 127}, "group": "control_change"}, {"time": 725, "annotation": {"number": 64, "value": 0}, "group": "control_change"}, {"time": 735, "annotation": {"number": 64, "value": 127}, "group": "control_change"}, {"time": 742, "annotation": {"number": 64, "value": 0}, "group": "control_change"}, {"time": 746, "annotation": {"number": 64, "value": 127}, "group": "control_change"}, {"time": 748, "annotation": {"number": 64, "value": 0}, "group": "control_change"}, {"time": 759, "annotation": {"number": 64, "value": 127}, "group": "control_change"}, {"time": 761, "annotation": {"number": 64, "value": 0}, "group": "control_change"}, {"time": 788, "annotation": {"number": 64, "value": 127}, "group": "control_change"}, {"time": 799, "annotation": {"number": 64, "value": 0}, "group": "control_change"}, {"time": 801, "annotation": {"number": 64, "value": 127}, "group": "control_change"}, {"time": 819, "annotation": {"number": 64, "value": 0}, "group": "control_change"}, {"time": 822, "annotation": {"number": 64, "value": 127}, "group": "control_change"}, {"time": 822, "annotation": {"number": 64, "value": 0}, "group": "control_change"}, {"time": 827, "annotation": {"number": 64, "value": 127}, "group": "control_change"}, {"time": 827, "annotation": {"number": 64, "value": 0}, "group": "control_change"}, {"time": 847, "annotation": {"number": 64, "value": 0}, "group": "control_change"}, {"time": 852, "annotation": {"number": 64, "value": 127}, "group": "control_change"}, {"time": 859, "annotation": {"number": 64, "value": 0}, "group": "control_change"}, {"time": 859, "annotation": {"number": 64, "value": 127}, "group": "control_change"}, {"time": 860, "annotation": {"number": 64, "value": 0}, "group": "control_change"}, {"time": 876, "annotation": {"number": 64, "value": 127}, "group": "control_change"}, {"time": 881, "annotation": {"number": 64, "value": 0}, "group": "control_change"}, {"time": 890, "annotation": {"number": 64, "value": 127}, "group": "control_change"}, {"time": 895, "annotation": {"number": 64, "value": 0}, "group": "control_change"}, {"time": 897, "annotation": {"number": 64, "value": 127}, "group": "control_change"}, {"time": 919, "annotation": {"number": 64, "value": 0}, "group": "control_change"}, {"time": 923, "annotation": {"number": 64, "value": 127}, "group": "control_change"}, {"time": 942, "annotation": {"number": 64, "value": 0}, "group": "control_change"}, {"time": 942, "annotation": {"number": 64, "value": 127}, "group": "control_change"}, {"time": 949, "annotation": {"number": 64, "value": 127}, "group": "control_change"}, {"time": 972, "annotation": {"number": 64, "value": 0}, "group": "control_change"}, {"time": 977, "annotation": {"number": 64, "value": 127}, "group": "control_change"}, {"time": 992, "annotation": {"number": 64, "value": 0}, "group": "control_change"}, {"time": 997, "annotation": {"number": 64, "value": 127}, "group": "control_change"}, {"time": 1024, "annotation": {"number": 64, "value": 0}, "group": "control_change"}, {"time": 1038, "annotation": {"number": 64, "value": 127}, "group": "control_change"}, {"time": 1063, "annotation": {"number": 64, "value": 0}, "group": "control_change"}, {"time": 1067, "annotation": {"number": 64, "value": 127}, "group": "control_change"}, {"time": 1087, "annotation": {"number": 64, "value": 0}, "group": "control_change"}, {"time": 1091, "annotation": {"number": 64, "value": 127}, "group": "control_change"}, {"time": 1110, "annotation": {"number": 64, "value": 0}, "group": "control_change"}, {"time": 1113, "annotation": {"number": 64, "value": 127}, "group": "control_change"}, {"time": 1135, "annotation": {"number": 64, "value": 0}, "group": "control_change"}, {"time": 1139, "annotation": {"number": 64, "value": 127}, "group": "control_change"}, {"time": 1158, "annotation": {"number": 64, "value": 0}, "group": "control_change"}, {"time": 1162, "annotation": {"number": 64, "value": 127}, "group": "control_change"}, {"time": 1182, "annotation": {"number": 64, "value": 0}, "group": "control_change"}, {"time": 1186, "annotation": {"number": 64, "value": 127}, "group": "control_change"}, {"time": 1207, "annotation": {"number": 64, "value": 0}, "group": "control_change"}, {"time": 1233, "annotation": {"number": 64, "value": 127}, "group": "control_change"}, {"time": 1253, "annotation": {"number": 64, "value": 0}, "group": "control_change"}, {"time": 1257, "annotation": {"number": 64, "value": 127}, "group": "control_change"}, {"time": 1257, "annotation": {"number": 64, "value": 0}, "group": "control_change"}, {"time": 1280, "annotation": {"number": 64, "value": 0}, "group": "control_change"}, {"time": 1285, "annotation": {"number": 64, "value": 127}, "group": "control_change"}, {"time": 1302, "annotation": {"number": 64, "value": 0}, "group": "control_change"}, {"time": 1307, "annotation": {"number": 64, "value": 127}, "group": "control_change"}, {"time": 1326, "annotation": {"number": 64, "value": 0}, "group": "control_change"}, {"time": 1330, "annotation": {"number": 64, "value": 127}, "group": "control_change"}, {"time": 1351, "annotation": {"number": 64, "value": 0}, "group": "control_change"}, {"time": 1355, "annotation": {"number": 64, "value": 127}, "group": "control_change"}, {"time": 1371, "annotation": {"number": 64, "value": 0}, "group": "control_change"}, {"time": 1371, "annotation": {"number": 64, "value": 127}, "group": "control_change"}, {"time": 1404, "annotation": {"number": 64, "value": 127}, "group": "control_change"}, {"time": 1422, "annotation": {"number": 64, "value": 0}, "group": "control_change"}, {"time": 1497, "annotation": {"number": 64, "value": 127}, "group": "control_change"}, {"time": 1518, "annotation": {"number": 64, "value": 0}, "group": "control_change"}, {"time": 1521, "annotation": {"number": 64, "value": 127}, "group": "control_change"}, {"time": 1543, "annotation": {"number": 64, "value": 0}, "group": "control_change"}, {"time": 1544, "annotation": {"number": 64, "value": 127}, "group": "control_change"}, {"time": 1591, "annotation": {"number": 64, "value": 0}, "group": "control_change"}, {"time": 1593, "annotation": {"number": 64, "value": 127}, "group": "control_change"}, {"time": 1615, "annotation": {"number": 64, "value": 0}, "group": "control_change"}, {"time": 1621, "annotation": {"number": 64, "value": 127}, "group": "control_change"}, {"time": 1640, "annotation": {"number": 64, "value": 0}, "group": "control_change"}, {"time": 1645, "annotation": {"number": 64, "value": 127}, "group": "control_change"}, {"time": 1683, "annotation": {"number": 64, "value": 0}, "group": "control_change"}, {"time": 1683, "annotation": {"number": 64, "value": 127}, "group": "control_change"}, {"time": 1684, "annotation": {"number": 64, "value": 0}, "group": "control_change"}, {"time": 1688, "annotation": {"number": 64, "value": 127}, "group": "control_change"}, {"time": 1698, "annotation": {"number": 64, "value": 0}, "group": "control_change"}, {"time": 1742, "annotation": {"number": 64, "value": 127}, "group": "control_change"}, {"time": 1742, "annotation": {"number": 64, "value": 0}, "group": "control_change"}, {"time": 1758, "annotation": {"number": 64, "value": 0}, "group": "control_change"}, {"time": 1761, "annotation": {"number": 64, "value": 127}, "group": "control_change"}, {"time": 1772, "annotation": {"number": 64, "value": 0}, "group": "control_change"}, {"time": 1776, "annotation": {"number": 64, "value": 127}, "group": "control_change"}, {"time": 1780, "annotation": {"number": 64, "value": 0}, "group": "control_change"}, {"time": 1785, "annotation": {"number": 64, "value": 127}, "group": "control_change"}, {"time": 1808, "annotation": {"number": 64, "value": 0}, "group": "control_change"}, {"time": 1810, "annotation": {"number": 64, "value": 127}, "group": "control_change"}, {"time": 1831, "annotation": {"number": 64, "value": 0}, "group": "control_change"}, {"time": 1831, "annotation": {"number": 64, "value": 127}, "group": "control_change"}, {"time": 1854, "annotation": {"number": 64, "value": 0}, "group": "control_change"}, {"time": 1859, "annotation": {"number": 64, "value": 127}, "group": "control_change"}, {"time": 1883, "annotation": {"number": 64, "value": 0}, "group": "control_change"}, {"time": 1915, "annotation": {"number": 64, "value": 127}, "group": "control_change"}, {"time": 1921, "annotation": {"number": 64, "value": 0}, "group": "control_change"}, {"time": 1923, "annotation": {"number": 64, "value": 127}, "group": "control_change"}, {"time": 1927, "annotation": {"number": 64, "value": 0}, "group": "control_change"}, {"time": 1930, "annotation": {"number": 64, "value": 127}, "group": "control_change"}, {"time": 1949, "annotation": {"number": 64, "value": 0}, "group": "control_change"}, {"time": 1950, "annotation": {"number": 64, "value": 127}, "group": "control_change"}, {"time": 1950, "annotation": {"number": 64, "value": 0}, "group": "control_change"}, {"time": 1954, "annotation": {"number": 64, "value": 127}, "group": "control_change"}, {"time": 1974, "annotation": {"number": 64, "value": 0}, "group": "control_change"}, {"time": 1978, "annotation": {"number": 64, "value": 127}, "group": "control_change"}, {"time": 1997, "annotation": {"number": 64, "value": 0}, "group": "control_change"}, {"time": 2002, "annotation": {"number": 64, "value": 127}, "group": "control_change"}, {"time": 2022, "annotation": {"number": 64, "value": 0}, "group": "control_change"}, {"time": 2026, "annotation": {"number": 64, "value": 127}, "group": "control_change"}, {"time": 2048, "annotation": {"number": 64, "value": 0}, "group": "control_change"}, {"time": 2051, "annotation": {"number": 64, "value": 127}, "group": "control_change"}, {"time": 2072, "annotation": {"number": 64, "value": 0}, "group": "control_change"}, {"time": 2076, "annotation": {"number": 64, "value": 127}, "group": "control_change"}, {"time": 2094, "annotation": {"number": 64, "value": 0}, "group": "control_change"}, {"time": 2101, "annotation": {"number": 64, "value": 127}, "group": "control_change"}, {"time": 2118, "annotation": {"number": 64, "value": 0}, "group": "control_change"}, {"time": 2124, "annotation": {"number": 64, "value": 127}, "group": "control_change"}, {"time": 2142, "annotation": {"number": 64, "value": 0}, "group": "control_change"}, {"time": 2145, "annotation": {"number": 64, "value": 127}, "group": "control_change"}, {"time": 2165, "annotation": {"number": 64, "value": 0}, "group": "control_change"}, {"time": 2172, "annotation": {"number": 64, "value": 127}, "group": "control_change"}, {"time": 2187, "annotation": {"number": 64, "value": 0}, "group": "control_change"}, {"time": 2203, "annotation": {"number": 64, "value": 127}, "group": "control_change"}, {"time": 2214, "annotation": {"number": 64, "value": 0}, "group": "control_change"}, {"time": 2222, "annotation": {"number": 64, "value": 127}, "group": "control_change"}, {"time": 2239, "annotation": {"number": 64, "value": 0}, "group": "control_change"}, {"time": 2244, "annotation": {"number": 64, "value": 127}, "group": "control_change"}, {"time": 2245, "annotation": {"number": 64, "value": 0}, "group": "control_change"}, {"time": 2245, "annotation": {"number": 64, "value": 127}, "group": "control_change"}, {"time": 2263, "annotation": {"number": 64, "value": 0}, "group": "control_change"}, {"time": 2269, "annotation": {"number": 64, "value": 127}, "group": "control_change"}, {"time": 2276, "annotation": {"number": 64, "value": 0}, "group": "control_change"}, {"time": 2281, "annotation": {"number": 64, "value": 127}, "group": "control_change"}, {"time": 2287, "annotation": {"number": 64, "value": 0}, "group": "control_change"}, {"time": 2288, "annotation": {"number": 64, "value": 127}, "group": "control_change"}, {"time": 2335, "annotation": {"number": 64, "value": 0}, "group": "control_change"}, {"time": 2339, "annotation": {"number": 64, "value": 127}, "group": "control_change"}, {"time": 2362, "annotation": {"number": 64, "value": 0}, "group": "control_change"}, {"time": 2364, "annotation": {"number": 64, "value": 127}, "group": "control_change"}, {"time": 2383, "annotation": {"number": 64, "value": 0}, "group": "control_change"}, {"time": 2384, "annotation": {"number": 64, "value": 127}, "group": "control_change"}, {"time": 2431, "annotation": {"number": 64, "value": 0}, "group": "control_change"}, {"time": 2432, "annotation": {"number": 64, "value": 127}, "group": "control_change"}, {"time": 2477, "annotation": {"number": 64, "value": 0}, "group": "control_change"}, {"time": 2482, "annotation": {"number": 64, "value": 127}, "group": "control_change"}, {"time": 2525, "annotation": {"number": 64, "value": 0}, "group": "control_change"}, {"time": 2533, "annotation": {"number": 64, "value": 127}, "group": "control_change"}, {"time": 2553, "annotation": {"number": 64, "value": 0}, "group": "control_change"}, {"time": 2553, "annotation": {"number": 64, "value": 127}, "group": "control_change"}, {"time": 2577, "annotation": {"number": 64, "value": 127}, "group": "control_change"}, {"time": 2599, "annotation": {"number": 64, "value": 0}, "group": "control_change"}, {"time": 2602, "annotation": {"number": 64, "value": 127}, "group": "control_change"}, {"time": 2610, "annotation": {"number": 64, "value": 0}, "group": "control_change"}, {"time": 2625, "annotation": {"number": 64, "value": 127}, "group": "control_change"}, {"time": 2646, "annotation": {"number": 64, "value": 0}, "group": "control_change"}, {"time": 2648, "annotation": {"number": 64, "value": 127}, "group": "control_change"}, {"time": 2670, "annotation": {"number": 64, "value": 0}, "group": "control_change"}, {"time": 2673, "annotation": {"number": 64, "value": 127}, "group": "control_change"}, {"time": 2718, "annotation": {"number": 64, "value": 0}, "group": "control_change"}, {"time": 2720, "annotation": {"number": 64, "value": 127}, "group": "control_change"}, {"time": 2747, "annotation": {"number": 64, "value": 0}, "group": "control_change"}, {"time": 2750, "annotation": {"number": 64, "value": 127}, "group": "control_change"}, {"time": 2765, "annotation": {"number": 64, "value": 0}, "group": "control_change"}, {"time": 2769, "annotation": {"number": 64, "value": 127}, "group": "control_change"}, {"time": 2790, "annotation": {"number": 64, "value": 0}, "group": "control_change"}, {"time": 2792, "annotation": {"number": 64, "value": 127}, "group": "control_change"}, {"time": 2814, "annotation": {"number": 64, "value": 0}, "group": "control_change"}, {"time": 2816, "annotation": {"number": 64, "value": 127}, "group": "control_change"}, {"time": 2838, "annotation": {"number": 64, "value": 0}, "group": "control_change"}, {"time": 2841, "annotation": {"number": 64, "value": 127}, "group": "control_change"}, {"time": 2862, "annotation": {"number": 64, "value": 0}, "group": "control_change"}, {"time": 2865, "annotation": {"number": 64, "value": 127}, "group": "control_change"}, {"time": 2890, "annotation": {"number": 64, "value": 0}, "group": "control_change"}, {"time": 2893, "annotation": {"number": 64, "value": 127}, "group": "control_change"}, {"time": 2899, "annotation": {"number": 64, "value": 0}, "group": "control_change"}, {"time": 2905, "annotation": {"number": 64, "value": 127}, "group": "control_change"}, {"time": 2909, "annotation": {"number": 64, "value": 0}, "group": "control_change"}, {"time": 2960, "annotation": {"number": 64, "value": 127}, "group": "control_change"}, {"time": 2982, "annotation": {"number": 64, "value": 0}, "group": "control_change"}, {"time": 2986, "annotation": {"number": 64, "value": 127}, "group": "control_change"}, {"time": 2997, "annotation": {"number": 64, "value": 0}, "group": "control_change"}, {"time": 3002, "annotation": {"number": 64, "value": 127}, "group": "control_change"}, {"time": 3002, "annotation": {"number": 64, "value": 0}, "group": "control_change"}, {"time": 3008, "annotation": {"number": 64, "value": 0}, "group": "control_change"}, {"time": 3011, "annotation": {"number": 64, "value": 127}, "group": "control_change"}, {"time": 3031, "annotation": {"number": 64, "value": 0}, "group": "control_change"}, {"time": 3034, "annotation": {"number": 64, "value": 127}, "group": "control_change"}, {"time": 3053, "annotation": {"number": 64, "value": 0}, "group": "control_change"}, {"time": 3055, "annotation": {"number": 64, "value": 127}, "group": "control_change"}, {"time": 3056, "annotation": {"number": 64, "value": 0}, "group": "control_change"}, {"time": 3056, "annotation": {"number": 64, "value": 127}, "group": "control_change"}, {"time": 3067, "annotation": {"number": 64, "value": 0}, "group": "control_change"}, {"time": 3071, "annotation": {"number": 64, "value": 127}, "group": "control_change"}, {"time": 3079, "annotation": {"number": 64, "value": 0}, "group": "control_change"}, {"time": 3082, "annotation": {"number": 64, "value": 127}, "group": "control_change"}, {"time": 3091, "annotation": {"number": 64, "value": 0}, "group": "control_change"}, {"time": 3094, "annotation": {"number": 64, "value": 127}, "group": "control_change"}, {"time": 3102, "annotation": {"number": 64, "value": 0}, "group": "control_change"}, {"time": 3105, "annotation": {"number": 64, "value": 127}, "group": "control_change"}, {"time": 3105, "annotation": {"number": 64, "value": 0}, "group": "control_change"}, {"time": 3129, "annotation": {"number": 64, "value": 0}, "group": "control_change"}, {"time": 3132, "annotation": {"number": 64, "value": 127}, "group": "control_change"}, {"time": 3152, "annotation": {"number": 64, "value": 0}, "group": "control_change"}, {"time": 3155, "annotation": {"number": 64, "value": 127}, "group": "control_change"}, {"time": 3156, "annotation": {"number": 64, "value": 0}, "group": "control_change"}, {"time": 3156, "annotation": {"number": 64, "value": 127}, "group": "control_change"}, {"time": 3176, "annotation": {"number": 64, "value": 0}, "group": "control_change"}, {"time": 3179, "annotation": {"number": 64, "value": 127}, "group": "control_change"}, {"time": 3179, "annotation": {"number": 64, "value": 0}, "group": "control_change"}, {"time": 3201, "annotation": {"number": 64, "value": 0}, "group": "control_change"}, {"time": 3204, "annotation": {"number": 64, "value": 127}, "group": "control_change"}, {"time": 3223, "annotation": {"number": 64, "value": 0}, "group": "control_change"}, {"time": 3226, "annotation": {"number": 64, "value": 127}, "group": "control_change"}, {"time": 3247, "annotation": {"number": 64, "value": 0}, "group": "control_change"}, {"time": 3252, "annotation": {"number": 64, "value": 127}, "group": "control_change"}, {"time": 3271, "annotation": {"number": 64, "value": 0}, "group": "control_change"}, {"time": 3276, "annotation": {"number": 64, "value": 127}, "group": "control_change"}, {"time": 3295, "annotation": {"number": 64, "value": 0}, "group": "control_change"}, {"time": 3307, "annotation": {"number": 64, "value": 127}, "group": "control_change"}]}]}