{"metadata": {"schema_version": "0.2", "title": "None", "source_filename": "254.mid", "source_format": "midi"}, "resolution": 12, "tempos": [{"time": 0, "qpm": 108.99994368336243}, {"time": 66, "qpm": 112.00005973336519}, {"time": 102, "qpm": 108.99994368336243}, {"time": 174, "qpm": 110.9999056500802}, {"time": 210, "qpm": 110.00011000011}, {"time": 2370, "qpm": 110.9999056500802}, {"time": 2442, "qpm": 110.00011000011}, {"time": 2586, "qpm": 108.99994368336243}, {"time": 2622, "qpm": 110.00011000011}], "time_signatures": [{"time": 0, "numerator": 6, "denominator": 8}], "tracks": [{"program": 0, "is_drum": false, "name": "MELODY", "notes": [{"time": 372, "pitch": 70, "duration": 12, "velocity": 84}, {"time": 384, "pitch": 71, "duration": 6, "velocity": 90}, {"time": 390, "pitch": 73, "duration": 48, "velocity": 91}, {"time": 438, "pitch": 78, "duration": 6, "velocity": 80}, {"time": 444, "pitch": 77, "duration": 12, "velocity": 82}, {"time": 456, "pitch": 70, "duration": 6, "velocity": 84}, {"time": 462, "pitch": 75, "duration": 18, "velocity": 72}, {"time": 480, "pitch": 73, "duration": 18, "velocity": 83}, {"time": 498, "pitch": 70, "duration": 24, "velocity": 80}, {"time": 522, "pitch": 68, "duration": 6, "velocity": 73}, {"time": 528, "pitch": 70, "duration": 6, "velocity": 77}, {"time": 534, "pitch": 71, "duration": 48, "velocity": 83}, {"time": 582, "pitch": 71, "duration": 6, "velocity": 79}, {"time": 588, "pitch": 70, "duration": 12, "velocity": 80}, {"time": 600, "pitch": 66, "duration": 6, "velocity": 72}, {"time": 606, "pitch": 70, "duration": 30, "velocity": 78}, {"time": 636, "pitch": 68, "duration": 6, "velocity": 73}, {"time": 642, "pitch": 68, "duration": 24, "velocity": 78}, {"time": 666, "pitch": 70, "duration": 6, "velocity": 83}, {"time": 672, "pitch": 71, "duration": 6, "velocity": 82}, {"time": 678, "pitch": 73, "duration": 48, "velocity": 83}, {"time": 726, "pitch": 78, "duration": 6, "velocity": 83}, {"time": 732, "pitch": 77, "duration": 12, "velocity": 78}, {"time": 744, "pitch": 70, "duration": 6, "velocity": 73}, {"time": 750, "pitch": 73, "duration": 24, "velocity": 82}, {"time": 774, "pitch": 77, "duration": 12, "velocity": 78}, {"time": 786, "pitch": 75, "duration": 27, "velocity": 83}, {"time": 813, "pitch": 75, "duration": 3, "velocity": 69}, {"time": 816, "pitch": 77, "duration": 6, "velocity": 79}, {"time": 822, "pitch": 78, "duration": 30, "velocity": 82}, {"time": 852, "pitch": 70, "duration": 6, "velocity": 82}, {"time": 858, "pitch": 71, "duration": 12, "velocity": 90}, {"time": 870, "pitch": 78, "duration": 6, "velocity": 82}, {"time": 876, "pitch": 77, "duration": 18, "velocity": 80}, {"time": 894, "pitch": 75, "duration": 12, "velocity": 90}, {"time": 906, "pitch": 73, "duration": 42, "velocity": 90}, {"time": 948, "pitch": 70, "duration": 12, "velocity": 84}, {"time": 960, "pitch": 71, "duration": 6, "velocity": 73}, {"time": 966, "pitch": 73, "duration": 48, "velocity": 90}, {"time": 1014, "pitch": 78, "duration": 6, "velocity": 86}, {"time": 1020, "pitch": 77, "duration": 9, "velocity": 78}, {"time": 1029, "pitch": 70, "duration": 9, "velocity": 63}, {"time": 1038, "pitch": 75, "duration": 18, "velocity": 79}, {"time": 1056, "pitch": 73, "duration": 18, "velocity": 83}, {"time": 1074, "pitch": 70, "duration": 24, "velocity": 78}, {"time": 1098, "pitch": 68, "duration": 6, "velocity": 84}, {"time": 1104, "pitch": 70, "duration": 6, "velocity": 82}, {"time": 1110, "pitch": 71, "duration": 48, "velocity": 90}, {"time": 1158, "pitch": 71, "duration": 6, "velocity": 79}, {"time": 1164, "pitch": 70, "duration": 12, "velocity": 82}, {"time": 1176, "pitch": 66, "duration": 6, "velocity": 83}, {"time": 1182, "pitch": 70, "duration": 30, "velocity": 84}, {"time": 1212, "pitch": 71, "duration": 6, "velocity": 81}, {"time": 1218, "pitch": 68, "duration": 24, "velocity": 84}, {"time": 1242, "pitch": 70, "duration": 6, "velocity": 82}, {"time": 1248, "pitch": 71, "duration": 6, "velocity": 84}, {"time": 1254, "pitch": 73, "duration": 48, "velocity": 86}, {"time": 1302, "pitch": 78, "duration": 6, "velocity": 93}, {"time": 1308, "pitch": 77, "duration": 12, "velocity": 84}, {"time": 1320, "pitch": 70, "duration": 6, "velocity": 86}, {"time": 1326, "pitch": 73, "duration": 24, "velocity": 84}, {"time": 1350, "pitch": 77, "duration": 12, "velocity": 98}, {"time": 1362, "pitch": 75, "duration": 24, "velocity": 95}, {"time": 1386, "pitch": 75, "duration": 6, "velocity": 90}, {"time": 1392, "pitch": 77, "duration": 6, "velocity": 84}, {"time": 1398, "pitch": 78, "duration": 30, "velocity": 90}, {"time": 1428, "pitch": 70, "duration": 6, "velocity": 83}, {"time": 1434, "pitch": 71, "duration": 12, "velocity": 98}, {"time": 1446, "pitch": 78, "duration": 12, "velocity": 90}, {"time": 1458, "pitch": 75, "duration": 6, "velocity": 76}, {"time": 1464, "pitch": 77, "duration": 6, "velocity": 80}, {"time": 1470, "pitch": 78, "duration": 126, "velocity": 86}, {"time": 1596, "pitch": 73, "duration": 6, "velocity": 94}, {"time": 1602, "pitch": 78, "duration": 6, "velocity": 84}, {"time": 1608, "pitch": 80, "duration": 6, "velocity": 82}, {"time": 1614, "pitch": 82, "duration": 12, "velocity": 93}, {"time": 1626, "pitch": 75, "duration": 12, "velocity": 94}, {"time": 1638, "pitch": 82, "duration": 6, "velocity": 94}, {"time": 1644, "pitch": 75, "duration": 6, "velocity": 79}, {"time": 1650, "pitch": 80, "duration": 18, "velocity": 91}, {"time": 1668, "pitch": 77, "duration": 6, "velocity": 84}, {"time": 1674, "pitch": 78, "duration": 6, "velocity": 82}, {"time": 1680, "pitch": 80, "duration": 6, "velocity": 82}, {"time": 1686, "pitch": 80, "duration": 18, "velocity": 84}, {"time": 1704, "pitch": 73, "duration": 12, "velocity": 101}, {"time": 1716, "pitch": 73, "duration": 6, "velocity": 98}, {"time": 1722, "pitch": 80, "duration": 12, "velocity": 84}, {"time": 1734, "pitch": 78, "duration": 12, "velocity": 84}, {"time": 1746, "pitch": 77, "duration": 6, "velocity": 84}, {"time": 1752, "pitch": 78, "duration": 6, "velocity": 80}, {"time": 1758, "pitch": 71, "duration": 18, "velocity": 90}, {"time": 1776, "pitch": 78, "duration": 6, "velocity": 95}, {"time": 1782, "pitch": 77, "duration": 6, "velocity": 90}, {"time": 1788, "pitch": 78, "duration": 6, "velocity": 86}, {"time": 1794, "pitch": 80, "duration": 18, "velocity": 83}, {"time": 1812, "pitch": 73, "duration": 6, "velocity": 91}, {"time": 1818, "pitch": 78, "duration": 6, "velocity": 84}, {"time": 1824, "pitch": 80, "duration": 6, "velocity": 76}, {"time": 1830, "pitch": 83, "duration": 6, "velocity": 91}, {"time": 1836, "pitch": 82, "duration": 6, "velocity": 82}, {"time": 1842, "pitch": 80, "duration": 6, "velocity": 79}, {"time": 1848, "pitch": 83, "duration": 6, "velocity": 94}, {"time": 1854, "pitch": 82, "duration": 6, "velocity": 83}, {"time": 1860, "pitch": 80, "duration": 6, "velocity": 82}, {"time": 1866, "pitch": 82, "duration": 18, "velocity": 90}, {"time": 1884, "pitch": 82, "duration": 6, "velocity": 95}, {"time": 1890, "pitch": 80, "duration": 6, "velocity": 80}, {"time": 1896, "pitch": 78, "duration": 6, "velocity": 83}, {"time": 1902, "pitch": 82, "duration": 12, "velocity": 91}, {"time": 1914, "pitch": 87, "duration": 12, "velocity": 75}, {"time": 1926, "pitch": 82, "duration": 6, "velocity": 84}, {"time": 1932, "pitch": 78, "duration": 6, "velocity": 86}, {"time": 1938, "pitch": 80, "duration": 18, "velocity": 81}, {"time": 1956, "pitch": 77, "duration": 6, "velocity": 101}, {"time": 1962, "pitch": 78, "duration": 6, "velocity": 86}, {"time": 1968, "pitch": 80, "duration": 6, "velocity": 83}, {"time": 1974, "pitch": 80, "duration": 12, "velocity": 84}, {"time": 1986, "pitch": 85, "duration": 6, "velocity": 91}, {"time": 1992, "pitch": 83, "duration": 6, "velocity": 90}, {"time": 1998, "pitch": 82, "duration": 6, "velocity": 90}, {"time": 2004, "pitch": 80, "duration": 6, "velocity": 81}, {"time": 2010, "pitch": 78, "duration": 18, "velocity": 98}, {"time": 2028, "pitch": 75, "duration": 6, "velocity": 86}, {"time": 2034, "pitch": 77, "duration": 6, "velocity": 81}, {"time": 2040, "pitch": 78, "duration": 6, "velocity": 80}, {"time": 2046, "pitch": 71, "duration": 18, "velocity": 83}, {"time": 2064, "pitch": 77, "duration": 6, "velocity": 90}, {"time": 2070, "pitch": 78, "duration": 6, "velocity": 83}, {"time": 2076, "pitch": 80, "duration": 6, "velocity": 79}, {"time": 2082, "pitch": 82, "duration": 6, "velocity": 79}, {"time": 2088, "pitch": 80, "duration": 6, "velocity": 71}, {"time": 2094, "pitch": 78, "duration": 6, "velocity": 79}, {"time": 2100, "pitch": 77, "duration": 9, "velocity": 80}, {"time": 2109, "pitch": 78, "duration": 6, "velocity": 75}, {"time": 2115, "pitch": 80, "duration": 9, "velocity": 73}, {"time": 2124, "pitch": 78, "duration": 30, "velocity": 78}, {"time": 2460, "pitch": 70, "duration": 12, "velocity": 84}, {"time": 2472, "pitch": 71, "duration": 6, "velocity": 73}, {"time": 2478, "pitch": 73, "duration": 48, "velocity": 90}, {"time": 2526, "pitch": 78, "duration": 6, "velocity": 86}, {"time": 2532, "pitch": 77, "duration": 9, "velocity": 78}, {"time": 2541, "pitch": 70, "duration": 9, "velocity": 63}, {"time": 2550, "pitch": 75, "duration": 18, "velocity": 79}, {"time": 2568, "pitch": 73, "duration": 18, "velocity": 83}, {"time": 2586, "pitch": 70, "duration": 24, "velocity": 78}, {"time": 2610, "pitch": 68, "duration": 6, "velocity": 84}, {"time": 2616, "pitch": 70, "duration": 6, "velocity": 82}, {"time": 2622, "pitch": 71, "duration": 48, "velocity": 90}, {"time": 2670, "pitch": 71, "duration": 6, "velocity": 79}, {"time": 2676, "pitch": 70, "duration": 12, "velocity": 82}, {"time": 2688, "pitch": 66, "duration": 6, "velocity": 83}, {"time": 2694, "pitch": 70, "duration": 30, "velocity": 84}, {"time": 2724, "pitch": 71, "duration": 6, "velocity": 81}, {"time": 2730, "pitch": 68, "duration": 24, "velocity": 84}, {"time": 2754, "pitch": 70, "duration": 6, "velocity": 82}, {"time": 2760, "pitch": 71, "duration": 6, "velocity": 84}, {"time": 2766, "pitch": 73, "duration": 48, "velocity": 86}, {"time": 2814, "pitch": 78, "duration": 6, "velocity": 93}, {"time": 2820, "pitch": 77, "duration": 12, "velocity": 84}, {"time": 2832, "pitch": 70, "duration": 6, "velocity": 86}, {"time": 2838, "pitch": 73, "duration": 24, "velocity": 84}, {"time": 2862, "pitch": 77, "duration": 12, "velocity": 98}, {"time": 2874, "pitch": 78, "duration": 24, "velocity": 95}, {"time": 2898, "pitch": 75, "duration": 6, "velocity": 90}, {"time": 2904, "pitch": 77, "duration": 6, "velocity": 84}, {"time": 2910, "pitch": 78, "duration": 18, "velocity": 90}, {"time": 2928, "pitch": 82, "duration": 18, "velocity": 90}, {"time": 2946, "pitch": 78, "duration": 12, "velocity": 90}, {"time": 2958, "pitch": 75, "duration": 18, "velocity": 90}, {"time": 2976, "pitch": 77, "duration": 6, "velocity": 80}, {"time": 2982, "pitch": 78, "duration": 126, "velocity": 86}, {"time": 3252, "pitch": 73, "duration": 6, "velocity": 94}, {"time": 3258, "pitch": 78, "duration": 6, "velocity": 84}, {"time": 3264, "pitch": 80, "duration": 6, "velocity": 82}, {"time": 3270, "pitch": 82, "duration": 12, "velocity": 93}, {"time": 3282, "pitch": 75, "duration": 12, "velocity": 94}, {"time": 3294, "pitch": 82, "duration": 6, "velocity": 94}, {"time": 3300, "pitch": 78, "duration": 6, "velocity": 79}, {"time": 3306, "pitch": 80, "duration": 18, "velocity": 91}, {"time": 3324, "pitch": 77, "duration": 6, "velocity": 84}, {"time": 3330, "pitch": 78, "duration": 6, "velocity": 82}, {"time": 3336, "pitch": 80, "duration": 6, "velocity": 82}, {"time": 3342, "pitch": 80, "duration": 18, "velocity": 84}, {"time": 3354, "pitch": 73, "duration": 12, "velocity": 101}, {"time": 3372, "pitch": 73, "duration": 6, "velocity": 98}, {"time": 3378, "pitch": 80, "duration": 12, "velocity": 84}, {"time": 3390, "pitch": 78, "duration": 12, "velocity": 84}, {"time": 3402, "pitch": 77, "duration": 6, "velocity": 84}, {"time": 3408, "pitch": 78, "duration": 6, "velocity": 80}, {"time": 3414, "pitch": 71, "duration": 18, "velocity": 90}, {"time": 3432, "pitch": 78, "duration": 6, "velocity": 95}, {"time": 3438, "pitch": 77, "duration": 6, "velocity": 90}, {"time": 3444, "pitch": 78, "duration": 6, "velocity": 86}, {"time": 3450, "pitch": 80, "duration": 18, "velocity": 83}, {"time": 3468, "pitch": 73, "duration": 6, "velocity": 91}, {"time": 3474, "pitch": 78, "duration": 6, "velocity": 84}, {"time": 3480, "pitch": 80, "duration": 6, "velocity": 76}, {"time": 3486, "pitch": 83, "duration": 6, "velocity": 91}, {"time": 3492, "pitch": 82, "duration": 6, "velocity": 82}, {"time": 3498, "pitch": 80, "duration": 6, "velocity": 79}, {"time": 3504, "pitch": 83, "duration": 6, "velocity": 94}, {"time": 3510, "pitch": 82, "duration": 6, "velocity": 83}, {"time": 3516, "pitch": 80, "duration": 6, "velocity": 82}, {"time": 3522, "pitch": 82, "duration": 18, "velocity": 90}, {"time": 3540, "pitch": 82, "duration": 6, "velocity": 95}, {"time": 3546, "pitch": 80, "duration": 6, "velocity": 80}, {"time": 3552, "pitch": 78, "duration": 6, "velocity": 83}, {"time": 3558, "pitch": 82, "duration": 12, "velocity": 91}, {"time": 3570, "pitch": 87, "duration": 12, "velocity": 75}, {"time": 3582, "pitch": 82, "duration": 6, "velocity": 84}, {"time": 3588, "pitch": 78, "duration": 6, "velocity": 86}, {"time": 3594, "pitch": 80, "duration": 18, "velocity": 81}, {"time": 3612, "pitch": 77, "duration": 6, "velocity": 101}, {"time": 3618, "pitch": 78, "duration": 6, "velocity": 86}, {"time": 3624, "pitch": 80, "duration": 6, "velocity": 83}, {"time": 3630, "pitch": 80, "duration": 12, "velocity": 84}, {"time": 3642, "pitch": 85, "duration": 6, "velocity": 91}, {"time": 3648, "pitch": 83, "duration": 6, "velocity": 90}, {"time": 3654, "pitch": 82, "duration": 6, "velocity": 90}, {"time": 3660, "pitch": 80, "duration": 6, "velocity": 81}, {"time": 3666, "pitch": 78, "duration": 18, "velocity": 98}, {"time": 3684, "pitch": 75, "duration": 6, "velocity": 86}, {"time": 3690, "pitch": 77, "duration": 6, "velocity": 81}, {"time": 3696, "pitch": 78, "duration": 6, "velocity": 80}, {"time": 3702, "pitch": 71, "duration": 18, "velocity": 83}, {"time": 3720, "pitch": 77, "duration": 6, "velocity": 90}, {"time": 3726, "pitch": 78, "duration": 6, "velocity": 83}, {"time": 3732, "pitch": 80, "duration": 6, "velocity": 79}, {"time": 3738, "pitch": 82, "duration": 6, "velocity": 79}, {"time": 3744, "pitch": 80, "duration": 6, "velocity": 71}, {"time": 3750, "pitch": 78, "duration": 6, "velocity": 79}, {"time": 3756, "pitch": 77, "duration": 9, "velocity": 80}, {"time": 3765, "pitch": 78, "duration": 6, "velocity": 75}, {"time": 3771, "pitch": 80, "duration": 9, "velocity": 73}, {"time": 3780, "pitch": 78, "duration": 30, "velocity": 78}, {"time": 4062, "pitch": 83, "duration": 11, "velocity": 103}, {"time": 4077, "pitch": 82, "duration": 4, "velocity": 78}, {"time": 4080, "pitch": 83, "duration": 11, "velocity": 94}, {"time": 4095, "pitch": 82, "duration": 4, "velocity": 76}, {"time": 4098, "pitch": 83, "duration": 11, "velocity": 83}, {"time": 4113, "pitch": 82, "duration": 5, "velocity": 82}, {"time": 4116, "pitch": 83, "duration": 7, "velocity": 82}, {"time": 4122, "pitch": 85, "duration": 5, "velocity": 83}, {"time": 4128, "pitch": 80, "duration": 4, "velocity": 84}, {"time": 4134, "pitch": 82, "duration": 14, "velocity": 90}, {"time": 4157, "pitch": 85, "duration": 6, "velocity": 94}, {"time": 4163, "pitch": 89, "duration": 8, "velocity": 99}, {"time": 4170, "pitch": 87, "duration": 20, "velocity": 100}, {"time": 4188, "pitch": 82, "duration": 15, "velocity": 100}, {"time": 4332, "pitch": 74, "duration": 6, "velocity": 94}, {"time": 4338, "pitch": 79, "duration": 6, "velocity": 84}, {"time": 4344, "pitch": 81, "duration": 6, "velocity": 82}, {"time": 4368, "pitch": 83, "duration": 12, "velocity": 93}, {"time": 4374, "pitch": 76, "duration": 12, "velocity": 94}, {"time": 4392, "pitch": 83, "duration": 6, "velocity": 94}, {"time": 4398, "pitch": 79, "duration": 6, "velocity": 79}, {"time": 4404, "pitch": 81, "duration": 18, "velocity": 91}, {"time": 4422, "pitch": 78, "duration": 6, "velocity": 84}, {"time": 4428, "pitch": 79, "duration": 6, "velocity": 82}, {"time": 4434, "pitch": 81, "duration": 6, "velocity": 82}, {"time": 4440, "pitch": 81, "duration": 18, "velocity": 84}, {"time": 4452, "pitch": 74, "duration": 12, "velocity": 101}, {"time": 4470, "pitch": 74, "duration": 6, "velocity": 98}, {"time": 4476, "pitch": 84, "duration": 12, "velocity": 84}, {"time": 4488, "pitch": 83, "duration": 12, "velocity": 84}, {"time": 4500, "pitch": 78, "duration": 6, "velocity": 84}, {"time": 4506, "pitch": 79, "duration": 6, "velocity": 80}, {"time": 4512, "pitch": 72, "duration": 18, "velocity": 90}, {"time": 4530, "pitch": 79, "duration": 6, "velocity": 95}, {"time": 4536, "pitch": 78, "duration": 6, "velocity": 90}, {"time": 4542, "pitch": 79, "duration": 6, "velocity": 86}, {"time": 4548, "pitch": 81, "duration": 18, "velocity": 83}, {"time": 4566, "pitch": 74, "duration": 6, "velocity": 91}, {"time": 4572, "pitch": 79, "duration": 6, "velocity": 84}, {"time": 4578, "pitch": 81, "duration": 6, "velocity": 76}, {"time": 4584, "pitch": 84, "duration": 6, "velocity": 91}, {"time": 4590, "pitch": 83, "duration": 6, "velocity": 82}, {"time": 4596, "pitch": 82, "duration": 6, "velocity": 79}, {"time": 4602, "pitch": 83, "duration": 6, "velocity": 94}, {"time": 4608, "pitch": 86, "duration": 6, "velocity": 83}, {"time": 4614, "pitch": 81, "duration": 6, "velocity": 82}, {"time": 4620, "pitch": 83, "duration": 18, "velocity": 90}, {"time": 4638, "pitch": 83, "duration": 6, "velocity": 95}, {"time": 4644, "pitch": 81, "duration": 6, "velocity": 80}, {"time": 4650, "pitch": 79, "duration": 6, "velocity": 83}, {"time": 4656, "pitch": 83, "duration": 12, "velocity": 91}, {"time": 4668, "pitch": 88, "duration": 12, "velocity": 75}, {"time": 4680, "pitch": 83, "duration": 6, "velocity": 84}, {"time": 4686, "pitch": 79, "duration": 6, "velocity": 86}, {"time": 4692, "pitch": 81, "duration": 18, "velocity": 81}, {"time": 4710, "pitch": 81, "duration": 6, "velocity": 101}, {"time": 4716, "pitch": 83, "duration": 6, "velocity": 86}, {"time": 4722, "pitch": 84, "duration": 6, "velocity": 83}, {"time": 4728, "pitch": 83, "duration": 12, "velocity": 84}, {"time": 4740, "pitch": 86, "duration": 6, "velocity": 91}, {"time": 4746, "pitch": 86, "duration": 6, "velocity": 90}, {"time": 4752, "pitch": 78, "duration": 6, "velocity": 90}, {"time": 4758, "pitch": 81, "duration": 6, "velocity": 81}, {"time": 4770, "pitch": 79, "duration": 18, "velocity": 98}, {"time": 4782, "pitch": 78, "duration": 6, "velocity": 81}, {"time": 4794, "pitch": 79, "duration": 6, "velocity": 80}, {"time": 4800, "pitch": 72, "duration": 18, "velocity": 83}, {"time": 4818, "pitch": 78, "duration": 6, "velocity": 90}, {"time": 4824, "pitch": 79, "duration": 6, "velocity": 83}, {"time": 4830, "pitch": 81, "duration": 6, "velocity": 79}, {"time": 4836, "pitch": 84, "duration": 6, "velocity": 79}, {"time": 4842, "pitch": 83, "duration": 6, "velocity": 71}, {"time": 4848, "pitch": 79, "duration": 6, "velocity": 79}, {"time": 4854, "pitch": 78, "duration": 9, "velocity": 80}, {"time": 4860, "pitch": 79, "duration": 6, "velocity": 75}, {"time": 4866, "pitch": 81, "duration": 9, "velocity": 73}, {"time": 4878, "pitch": 83, "duration": 30, "velocity": 78}, {"time": 5001, "pitch": 78, "duration": 13, "velocity": 98}, {"time": 5022, "pitch": 79, "duration": 21, "velocity": 75}, {"time": 5034, "pitch": 72, "duration": 9, "velocity": 93}, {"time": 5079, "pitch": 78, "duration": 6, "velocity": 79}, {"time": 5085, "pitch": 79, "duration": 6, "velocity": 75}, {"time": 5091, "pitch": 81, "duration": 9, "velocity": 79}, {"time": 5100, "pitch": 83, "duration": 6, "velocity": 91}, {"time": 5106, "pitch": 81, "duration": 6, "velocity": 78}, {"time": 5112, "pitch": 79, "duration": 15, "velocity": 78}, {"time": 5127, "pitch": 78, "duration": 9, "velocity": 86}, {"time": 5136, "pitch": 79, "duration": 18, "velocity": 73}, {"time": 5154, "pitch": 81, "duration": 18, "velocity": 86}, {"time": 5172, "pitch": 79, "duration": 6, "velocity": 86}]}, {"program": 0, "is_drum": false, "name": "BRIDGE", "notes": [{"time": 48, "pitch": 78, "duration": 13, "velocity": 84}, {"time": 61, "pitch": 77, "duration": 2, "velocity": 76}, {"time": 63, "pitch": 76, "duration": 2, "velocity": 83}, {"time": 66, "pitch": 75, "duration": 54, "velocity": 72}, {"time": 120, "pitch": 77, "duration": 14, "velocity": 83}, {"time": 134, "pitch": 77, "duration": 1, "velocity": 57}, {"time": 135, "pitch": 76, "duration": 2, "velocity": 72}, {"time": 137, "pitch": 75, "duration": 1, "velocity": 81}, {"time": 138, "pitch": 73, "duration": 48, "velocity": 84}, {"time": 186, "pitch": 66, "duration": 6, "velocity": 68}, {"time": 192, "pitch": 71, "duration": 6, "velocity": 83}, {"time": 198, "pitch": 75, "duration": 6, "velocity": 81}, {"time": 204, "pitch": 78, "duration": 6, "velocity": 84}, {"time": 210, "pitch": 77, "duration": 12, "velocity": 84}, {"time": 222, "pitch": 73, "duration": 6, "velocity": 93}, {"time": 228, "pitch": 78, "duration": 6, "velocity": 82}, {"time": 234, "pitch": 80, "duration": 6, "velocity": 76}, {"time": 240, "pitch": 82, "duration": 6, "velocity": 82}, {"time": 246, "pitch": 83, "duration": 2, "velocity": 84}, {"time": 248, "pitch": 85, "duration": 2, "velocity": 39}, {"time": 250, "pitch": 83, "duration": 2, "velocity": 83}, {"time": 252, "pitch": 85, "duration": 2, "velocity": 80}, {"time": 254, "pitch": 83, "duration": 2, "velocity": 84}, {"time": 256, "pitch": 85, "duration": 1, "velocity": 78}, {"time": 257, "pitch": 83, "duration": 2, "velocity": 84}, {"time": 259, "pitch": 85, "duration": 2, "velocity": 80}, {"time": 261, "pitch": 83, "duration": 2, "velocity": 83}, {"time": 263, "pitch": 85, "duration": 1, "velocity": 68}, {"time": 265, "pitch": 83, "duration": 1, "velocity": 84}, {"time": 266, "pitch": 85, "duration": 2, "velocity": 75}, {"time": 268, "pitch": 83, "duration": 1, "velocity": 73}, {"time": 270, "pitch": 85, "duration": 1, "velocity": 78}, {"time": 271, "pitch": 83, "duration": 2, "velocity": 61}, {"time": 273, "pitch": 85, "duration": 4, "velocity": 80}, {"time": 277, "pitch": 85, "duration": 2, "velocity": 75}, {"time": 279, "pitch": 83, "duration": 75, "velocity": 84}, {"time": 894, "pitch": 85, "duration": 14, "velocity": 84}, {"time": 906, "pitch": 73, "duration": 7, "velocity": 57}, {"time": 912, "pitch": 83, "duration": 11, "velocity": 90}, {"time": 924, "pitch": 73, "duration": 7, "velocity": 71}, {"time": 930, "pitch": 82, "duration": 22, "velocity": 79}, {"time": 1578, "pitch": 63, "duration": 7, "velocity": 74}, {"time": 1578, "pitch": 75, "duration": 6, "velocity": 80}, {"time": 1584, "pitch": 65, "duration": 8, "velocity": 75}, {"time": 1584, "pitch": 77, "duration": 6, "velocity": 82}, {"time": 1590, "pitch": 66, "duration": 6, "velocity": 79}, {"time": 1590, "pitch": 78, "duration": 8, "velocity": 72}, {"time": 1596, "pitch": 68, "duration": 7, "velocity": 74}, {"time": 1596, "pitch": 80, "duration": 7, "velocity": 79}, {"time": 1602, "pitch": 70, "duration": 7, "velocity": 80}, {"time": 1602, "pitch": 82, "duration": 6, "velocity": 83}, {"time": 1608, "pitch": 71, "duration": 6, "velocity": 79}, {"time": 1608, "pitch": 83, "duration": 6, "velocity": 79}, {"time": 1614, "pitch": 73, "duration": 21, "velocity": 80}, {"time": 1614, "pitch": 85, "duration": 25, "velocity": 83}, {"time": 1902, "pitch": 75, "duration": 54, "velocity": 83}, {"time": 1956, "pitch": 77, "duration": 13, "velocity": 98}, {"time": 1969, "pitch": 75, "duration": 2, "velocity": 72}, {"time": 1971, "pitch": 74, "duration": 3, "velocity": 84}, {"time": 1974, "pitch": 73, "duration": 72, "velocity": 91}, {"time": 2433, "pitch": 68, "duration": 5, "velocity": 82}, {"time": 2436, "pitch": 70, "duration": 4, "velocity": 69}, {"time": 2439, "pitch": 72, "duration": 4, "velocity": 84}, {"time": 2442, "pitch": 73, "duration": 24, "velocity": 80}, {"time": 3054, "pitch": 73, "duration": 5, "velocity": 96}, {"time": 3054, "pitch": 85, "duration": 5, "velocity": 93}, {"time": 3066, "pitch": 71, "duration": 3, "velocity": 86}, {"time": 3066, "pitch": 83, "duration": 3, "velocity": 99}, {"time": 3084, "pitch": 85, "duration": 3, "velocity": 91}, {"time": 3087, "pitch": 66, "duration": 3, "velocity": 77}, {"time": 3087, "pitch": 78, "duration": 3, "velocity": 62}, {"time": 3090, "pitch": 87, "duration": 3, "velocity": 91}, {"time": 3093, "pitch": 68, "duration": 3, "velocity": 81}, {"time": 3093, "pitch": 80, "duration": 3, "velocity": 86}, {"time": 3096, "pitch": 85, "duration": 6, "velocity": 91}, {"time": 3102, "pitch": 66, "duration": 6, "velocity": 74}, {"time": 3102, "pitch": 78, "duration": 6, "velocity": 82}, {"time": 3102, "pitch": 83, "duration": 6, "velocity": 91}, {"time": 3108, "pitch": 78, "duration": 18, "velocity": 91}, {"time": 3120, "pitch": 75, "duration": 7, "velocity": 91}, {"time": 3126, "pitch": 85, "duration": 7, "velocity": 91}, {"time": 3132, "pitch": 86, "duration": 7, "velocity": 91}, {"time": 3138, "pitch": 85, "duration": 7, "velocity": 91}, {"time": 3144, "pitch": 83, "duration": 7, "velocity": 91}, {"time": 3150, "pitch": 78, "duration": 7, "velocity": 91}, {"time": 3156, "pitch": 74, "duration": 7, "velocity": 91}, {"time": 3162, "pitch": 71, "duration": 7, "velocity": 91}, {"time": 3777, "pitch": 83, "duration": 1, "velocity": 86}, {"time": 3783, "pitch": 83, "duration": 3, "velocity": 86}, {"time": 3786, "pitch": 82, "duration": 4, "velocity": 73}, {"time": 3789, "pitch": 83, "duration": 3, "velocity": 82}, {"time": 3792, "pitch": 82, "duration": 2, "velocity": 74}, {"time": 3795, "pitch": 83, "duration": 2, "velocity": 98}, {"time": 3798, "pitch": 83, "duration": 3, "velocity": 81}, {"time": 3801, "pitch": 82, "duration": 3, "velocity": 68}, {"time": 3804, "pitch": 83, "duration": 3, "velocity": 83}, {"time": 3807, "pitch": 82, "duration": 3, "velocity": 69}, {"time": 3810, "pitch": 83, "duration": 8, "velocity": 86}, {"time": 3822, "pitch": 82, "duration": 8, "velocity": 86}, {"time": 3828, "pitch": 83, "duration": 4, "velocity": 82}, {"time": 3834, "pitch": 85, "duration": 3, "velocity": 78}, {"time": 3840, "pitch": 80, "duration": 2, "velocity": 76}, {"time": 3846, "pitch": 82, "duration": 4, "velocity": 79}, {"time": 3852, "pitch": 82, "duration": 2, "velocity": 62}, {"time": 3855, "pitch": 80, "duration": 3, "velocity": 37}, {"time": 3858, "pitch": 82, "duration": 3, "velocity": 69}, {"time": 3861, "pitch": 80, "duration": 3, "velocity": 59}, {"time": 3864, "pitch": 82, "duration": 2, "velocity": 78}, {"time": 3870, "pitch": 82, "duration": 3, "velocity": 76}, {"time": 3873, "pitch": 81, "duration": 3, "velocity": 83}, {"time": 3876, "pitch": 82, "duration": 2, "velocity": 68}, {"time": 3879, "pitch": 81, "duration": 3, "velocity": 80}, {"time": 3882, "pitch": 82, "duration": 2, "velocity": 75}, {"time": 3888, "pitch": 82, "duration": 2, "velocity": 69}, {"time": 3894, "pitch": 82, "duration": 2, "velocity": 75}, {"time": 3900, "pitch": 82, "duration": 6, "velocity": 79}, {"time": 3906, "pitch": 85, "duration": 2, "velocity": 82}, {"time": 3912, "pitch": 78, "duration": 1, "velocity": 60}, {"time": 3918, "pitch": 80, "duration": 3, "velocity": 76}, {"time": 3924, "pitch": 80, "duration": 3, "velocity": 79}, {"time": 3927, "pitch": 79, "duration": 3, "velocity": 86}, {"time": 3930, "pitch": 80, "duration": 3, "velocity": 60}, {"time": 3933, "pitch": 79, "duration": 3, "velocity": 84}, {"time": 3936, "pitch": 80, "duration": 2, "velocity": 75}, {"time": 3942, "pitch": 80, "duration": 3, "velocity": 79}, {"time": 3945, "pitch": 79, "duration": 2, "velocity": 80}, {"time": 3948, "pitch": 80, "duration": 2, "velocity": 53}, {"time": 3948, "pitch": 80, "duration": 2, "velocity": 56}, {"time": 3951, "pitch": 78, "duration": 3, "velocity": 72}, {"time": 3954, "pitch": 80, "duration": 14, "velocity": 72}, {"time": 3972, "pitch": 78, "duration": 3, "velocity": 61}, {"time": 3973, "pitch": 80, "duration": 3, "velocity": 77}, {"time": 3978, "pitch": 82, "duration": 2, "velocity": 80}, {"time": 3984, "pitch": 77, "duration": 2, "velocity": 83}, {"time": 3990, "pitch": 78, "duration": 15, "velocity": 82}, {"time": 4008, "pitch": 80, "duration": 13, "velocity": 76}, {"time": 4020, "pitch": 78, "duration": 3, "velocity": 52}, {"time": 4023, "pitch": 80, "duration": 3, "velocity": 69}, {"time": 4026, "pitch": 82, "duration": 16, "velocity": 79}], "annotations": [{"time": 49, "annotation": {"number": 64, "value": 127}, "group": "control_change"}, {"time": 102, "annotation": {"number": 64, "value": 0}, "group": "control_change"}, {"time": 121, "annotation": {"number": 64, "value": 127}, "group": "control_change"}, {"time": 174, "annotation": {"number": 64, "value": 0}, "group": "control_change"}, {"time": 184, "annotation": {"number": 64, "value": 127}, "group": "control_change"}, {"time": 223, "annotation": {"number": 64, "value": 127}, "group": "control_change"}, {"time": 241, "annotation": {"number": 64, "value": 0}, "group": "control_change"}, {"time": 320, "annotation": {"number": 64, "value": 0}, "group": "control_change"}, {"time": 3053, "annotation": {"number": 64, "value": 127}, "group": "control_change"}, {"time": 3092, "annotation": {"number": 64, "value": 127}, "group": "control_change"}, {"time": 3125, "annotation": {"number": 64, "value": 0}, "group": "control_change"}]}, {"program": 0, "is_drum": false, "name": "PIANO", "notes": [{"time": 12, "pitch": 78, "duration": 7, "velocity": 82}, {"time": 18, "pitch": 80, "duration": 5, "velocity": 76}, {"time": 24, "pitch": 82, "duration": 7, "velocity": 75}, {"time": 30, "pitch": 59, "duration": 63, "velocity": 79}, {"time": 30, "pitch": 75, "duration": 14, "velocity": 74}, {"time": 36, "pitch": 66, "duration": 53, "velocity": 71}, {"time": 42, "pitch": 71, "duration": 15, "velocity": 60}, {"time": 48, "pitch": 73, "duration": 9, "velocity": 75}, {"time": 54, "pitch": 78, "duration": 7, "velocity": 77}, {"time": 60, "pitch": 68, "duration": 15, "velocity": 50}, {"time": 69, "pitch": 71, "duration": 7, "velocity": 1}, {"time": 84, "pitch": 73, "duration": 4, "velocity": 71}, {"time": 84, "pitch": 78, "duration": 6, "velocity": 76}, {"time": 90, "pitch": 80, "duration": 5, "velocity": 62}, {"time": 102, "pitch": 58, "duration": 57, "velocity": 73}, {"time": 102, "pitch": 68, "duration": 8, "velocity": 73}, {"time": 102, "pitch": 73, "duration": 8, "velocity": 78}, {"time": 108, "pitch": 65, "duration": 25, "velocity": 71}, {"time": 114, "pitch": 68, "duration": 7, "velocity": 58}, {"time": 120, "pitch": 80, "duration": 5, "velocity": 68}, {"time": 126, "pitch": 77, "duration": 7, "velocity": 76}, {"time": 132, "pitch": 75, "duration": 6, "velocity": 68}, {"time": 138, "pitch": 68, "duration": 8, "velocity": 62}, {"time": 138, "pitch": 73, "duration": 10, "velocity": 77}, {"time": 150, "pitch": 65, "duration": 9, "velocity": 71}, {"time": 156, "pitch": 78, "duration": 3, "velocity": 78}, {"time": 162, "pitch": 80, "duration": 4, "velocity": 57}, {"time": 168, "pitch": 82, "duration": 6, "velocity": 62}, {"time": 174, "pitch": 56, "duration": 25, "velocity": 75}, {"time": 174, "pitch": 75, "duration": 7, "velocity": 77}, {"time": 180, "pitch": 63, "duration": 20, "velocity": 72}, {"time": 180, "pitch": 77, "duration": 3, "velocity": 53}, {"time": 186, "pitch": 71, "duration": 8, "velocity": 78}, {"time": 186, "pitch": 78, "duration": 7, "velocity": 84}, {"time": 192, "pitch": 68, "duration": 6, "velocity": 73}, {"time": 198, "pitch": 77, "duration": 5, "velocity": 79}, {"time": 204, "pitch": 78, "duration": 6, "velocity": 79}, {"time": 210, "pitch": 46, "duration": 24, "velocity": 75}, {"time": 210, "pitch": 58, "duration": 24, "velocity": 75}, {"time": 210, "pitch": 68, "duration": 8, "velocity": 83}, {"time": 210, "pitch": 77, "duration": 8, "velocity": 84}, {"time": 216, "pitch": 65, "duration": 7, "velocity": 76}, {"time": 222, "pitch": 68, "duration": 6, "velocity": 82}, {"time": 222, "pitch": 73, "duration": 9, "velocity": 96}, {"time": 228, "pitch": 65, "duration": 4, "velocity": 71}, {"time": 234, "pitch": 68, "duration": 5, "velocity": 82}, {"time": 240, "pitch": 73, "duration": 3, "velocity": 83}, {"time": 246, "pitch": 40, "duration": 60, "velocity": 98}, {"time": 246, "pitch": 52, "duration": 60, "velocity": 98}, {"time": 246, "pitch": 66, "duration": 7, "velocity": 91}, {"time": 246, "pitch": 71, "duration": 8, "velocity": 94}, {"time": 252, "pitch": 64, "duration": 25, "velocity": 83}, {"time": 258, "pitch": 66, "duration": 7, "velocity": 79}, {"time": 264, "pitch": 71, "duration": 2, "velocity": 94}, {"time": 270, "pitch": 73, "duration": 5, "velocity": 80}, {"time": 276, "pitch": 78, "duration": 5, "velocity": 83}, {"time": 282, "pitch": 73, "duration": 6, "velocity": 78}, {"time": 282, "pitch": 78, "duration": 1, "velocity": 33}, {"time": 282, "pitch": 83, "duration": 7, "velocity": 84}, {"time": 288, "pitch": 64, "duration": 14, "velocity": 17}, {"time": 315, "pitch": 73, "duration": 8, "velocity": 57}, {"time": 315, "pitch": 78, "duration": 8, "velocity": 79}, {"time": 318, "pitch": 49, "duration": 54, "velocity": 79}, {"time": 318, "pitch": 85, "duration": 6, "velocity": 73}, {"time": 324, "pitch": 56, "duration": 45, "velocity": 60}, {"time": 330, "pitch": 61, "duration": 20, "velocity": 61}, {"time": 336, "pitch": 66, "duration": 8, "velocity": 69}, {"time": 342, "pitch": 71, "duration": 5, "velocity": 68}, {"time": 348, "pitch": 73, "duration": 22, "velocity": 61}, {"time": 354, "pitch": 61, "duration": 13, "velocity": 11}, {"time": 354, "pitch": 65, "duration": 16, "velocity": 68}, {"time": 354, "pitch": 68, "duration": 15, "velocity": 69}, {"time": 390, "pitch": 54, "duration": 60, "velocity": 62}, {"time": 390, "pitch": 78, "duration": 10, "velocity": 72}, {"time": 396, "pitch": 61, "duration": 56, "velocity": 58}, {"time": 402, "pitch": 66, "duration": 32, "velocity": 57}, {"time": 408, "pitch": 68, "duration": 4, "velocity": 54}, {"time": 414, "pitch": 70, "duration": 9, "velocity": 59}, {"time": 420, "pitch": 73, "duration": 5, "velocity": 63}, {"time": 426, "pitch": 78, "duration": 9, "velocity": 59}, {"time": 438, "pitch": 66, "duration": 9, "velocity": 19}, {"time": 444, "pitch": 78, "duration": 7, "velocity": 75}, {"time": 462, "pitch": 53, "duration": 18, "velocity": 71}, {"time": 462, "pitch": 68, "duration": 9, "velocity": 51}, {"time": 462, "pitch": 73, "duration": 10, "velocity": 76}, {"time": 468, "pitch": 61, "duration": 14, "velocity": 46}, {"time": 474, "pitch": 65, "duration": 7, "velocity": 68}, {"time": 480, "pitch": 68, "duration": 6, "velocity": 68}, {"time": 486, "pitch": 70, "duration": 6, "velocity": 69}, {"time": 492, "pitch": 73, "duration": 27, "velocity": 75}, {"time": 498, "pitch": 51, "duration": 22, "velocity": 60}, {"time": 498, "pitch": 63, "duration": 28, "velocity": 32}, {"time": 498, "pitch": 67, "duration": 26, "velocity": 32}, {"time": 528, "pitch": 73, "duration": 6, "velocity": 69}, {"time": 534, "pitch": 44, "duration": 4, "velocity": 42}, {"time": 534, "pitch": 63, "duration": 20, "velocity": 62}, {"time": 534, "pitch": 71, "duration": 18, "velocity": 76}, {"time": 540, "pitch": 56, "duration": 6, "velocity": 57}, {"time": 546, "pitch": 58, "duration": 9, "velocity": 57}, {"time": 552, "pitch": 59, "duration": 7, "velocity": 78}, {"time": 558, "pitch": 63, "duration": 5, "velocity": 60}, {"time": 564, "pitch": 66, "duration": 13, "velocity": 73}, {"time": 570, "pitch": 44, "duration": 26, "velocity": 30}, {"time": 570, "pitch": 56, "duration": 30, "velocity": 48}, {"time": 570, "pitch": 63, "duration": 8, "velocity": 55}, {"time": 570, "pitch": 66, "duration": 7, "velocity": 68}, {"time": 570, "pitch": 71, "duration": 8, "velocity": 73}, {"time": 582, "pitch": 73, "duration": 6, "velocity": 62}, {"time": 594, "pitch": 71, "duration": 2, "velocity": 74}, {"time": 600, "pitch": 70, "duration": 5, "velocity": 63}, {"time": 606, "pitch": 49, "duration": 59, "velocity": 23}, {"time": 606, "pitch": 61, "duration": 7, "velocity": 62}, {"time": 606, "pitch": 68, "duration": 10, "velocity": 72}, {"time": 612, "pitch": 56, "duration": 53, "velocity": 54}, {"time": 618, "pitch": 61, "duration": 48, "velocity": 58}, {"time": 624, "pitch": 66, "duration": 5, "velocity": 59}, {"time": 630, "pitch": 68, "duration": 2, "velocity": 60}, {"time": 636, "pitch": 73, "duration": 14, "velocity": 50}, {"time": 642, "pitch": 85, "duration": 8, "velocity": 75}, {"time": 660, "pitch": 83, "duration": 2, "velocity": 78}, {"time": 672, "pitch": 73, "duration": 7, "velocity": 69}, {"time": 678, "pitch": 54, "duration": 30, "velocity": 54}, {"time": 678, "pitch": 82, "duration": 8, "velocity": 62}, {"time": 684, "pitch": 61, "duration": 28, "velocity": 56}, {"time": 690, "pitch": 66, "duration": 16, "velocity": 59}, {"time": 696, "pitch": 70, "duration": 8, "velocity": 54}, {"time": 702, "pitch": 73, "duration": 4, "velocity": 54}, {"time": 708, "pitch": 77, "duration": 6, "velocity": 57}, {"time": 714, "pitch": 54, "duration": 28, "velocity": 62}, {"time": 714, "pitch": 70, "duration": 8, "velocity": 38}, {"time": 714, "pitch": 78, "duration": 9, "velocity": 72}, {"time": 720, "pitch": 61, "duration": 17, "velocity": 53}, {"time": 726, "pitch": 70, "duration": 4, "velocity": 67}, {"time": 726, "pitch": 77, "duration": 5, "velocity": 70}, {"time": 732, "pitch": 66, "duration": 7, "velocity": 48}, {"time": 738, "pitch": 68, "duration": 5, "velocity": 45}, {"time": 738, "pitch": 73, "duration": 6, "velocity": 75}, {"time": 744, "pitch": 61, "duration": 6, "velocity": 49}, {"time": 744, "pitch": 75, "duration": 5, "velocity": 68}, {"time": 750, "pitch": 53, "duration": 27, "velocity": 76}, {"time": 750, "pitch": 65, "duration": 12, "velocity": 68}, {"time": 750, "pitch": 73, "duration": 18, "velocity": 80}, {"time": 762, "pitch": 61, "duration": 14, "velocity": 12}, {"time": 768, "pitch": 65, "duration": 8, "velocity": 68}, {"time": 774, "pitch": 68, "duration": 5, "velocity": 61}, {"time": 780, "pitch": 73, "duration": 18, "velocity": 68}, {"time": 786, "pitch": 51, "duration": 26, "velocity": 51}, {"time": 786, "pitch": 58, "duration": 18, "velocity": 53}, {"time": 786, "pitch": 61, "duration": 11, "velocity": 62}, {"time": 786, "pitch": 66, "duration": 11, "velocity": 63}, {"time": 786, "pitch": 70, "duration": 12, "velocity": 63}, {"time": 804, "pitch": 61, "duration": 7, "velocity": 62}, {"time": 804, "pitch": 73, "duration": 8, "velocity": 67}, {"time": 810, "pitch": 58, "duration": 3, "velocity": 59}, {"time": 816, "pitch": 66, "duration": 25, "velocity": 76}, {"time": 822, "pitch": 44, "duration": 5, "velocity": 76}, {"time": 822, "pitch": 63, "duration": 19, "velocity": 62}, {"time": 822, "pitch": 66, "duration": 19, "velocity": 75}, {"time": 822, "pitch": 71, "duration": 20, "velocity": 73}, {"time": 828, "pitch": 56, "duration": 6, "velocity": 55}, {"time": 834, "pitch": 58, "duration": 11, "velocity": 58}, {"time": 840, "pitch": 59, "duration": 7, "velocity": 79}, {"time": 846, "pitch": 61, "duration": 13, "velocity": 71}, {"time": 852, "pitch": 66, "duration": 17, "velocity": 75}, {"time": 858, "pitch": 49, "duration": 31, "velocity": 79}, {"time": 858, "pitch": 73, "duration": 14, "velocity": 79}, {"time": 864, "pitch": 56, "duration": 24, "velocity": 50}, {"time": 870, "pitch": 61, "duration": 7, "velocity": 55}, {"time": 876, "pitch": 66, "duration": 6, "velocity": 77}, {"time": 876, "pitch": 71, "duration": 5, "velocity": 84}, {"time": 882, "pitch": 61, "duration": 3, "velocity": 52}, {"time": 894, "pitch": 54, "duration": 65, "velocity": 76}, {"time": 894, "pitch": 61, "duration": 8, "velocity": 69}, {"time": 894, "pitch": 68, "duration": 8, "velocity": 76}, {"time": 900, "pitch": 58, "duration": 49, "velocity": 69}, {"time": 906, "pitch": 61, "duration": 6, "velocity": 61}, {"time": 912, "pitch": 66, "duration": 7, "velocity": 82}, {"time": 918, "pitch": 68, "duration": 3, "velocity": 76}, {"time": 924, "pitch": 70, "duration": 10, "velocity": 72}, {"time": 930, "pitch": 78, "duration": 11, "velocity": 73}, {"time": 948, "pitch": 68, "duration": 4, "velocity": 62}, {"time": 948, "pitch": 73, "duration": 3, "velocity": 76}, {"time": 948, "pitch": 77, "duration": 4, "velocity": 72}, {"time": 954, "pitch": 58, "duration": 4, "velocity": 59}, {"time": 960, "pitch": 66, "duration": 2, "velocity": 43}, {"time": 960, "pitch": 73, "duration": 8, "velocity": 48}, {"time": 966, "pitch": 54, "duration": 31, "velocity": 73}, {"time": 966, "pitch": 70, "duration": 10, "velocity": 72}, {"time": 966, "pitch": 78, "duration": 12, "velocity": 82}, {"time": 972, "pitch": 61, "duration": 38, "velocity": 69}, {"time": 978, "pitch": 66, "duration": 7, "velocity": 58}, {"time": 984, "pitch": 68, "duration": 7, "velocity": 71}, {"time": 984, "pitch": 73, "duration": 8, "velocity": 76}, {"time": 990, "pitch": 66, "duration": 6, "velocity": 54}, {"time": 996, "pitch": 70, "duration": 6, "velocity": 63}, {"time": 1002, "pitch": 68, "duration": 3, "velocity": 62}, {"time": 1002, "pitch": 73, "duration": 3, "velocity": 80}, {"time": 1014, "pitch": 54, "duration": 17, "velocity": 63}, {"time": 1020, "pitch": 73, "duration": 7, "velocity": 81}, {"time": 1020, "pitch": 80, "duration": 7, "velocity": 78}, {"time": 1026, "pitch": 61, "duration": 8, "velocity": 61}, {"time": 1032, "pitch": 77, "duration": 6, "velocity": 78}, {"time": 1038, "pitch": 53, "duration": 10, "velocity": 78}, {"time": 1038, "pitch": 68, "duration": 12, "velocity": 72}, {"time": 1038, "pitch": 73, "duration": 12, "velocity": 80}, {"time": 1044, "pitch": 61, "duration": 17, "velocity": 52}, {"time": 1050, "pitch": 65, "duration": 10, "velocity": 75}, {"time": 1056, "pitch": 68, "duration": 4, "velocity": 75}, {"time": 1062, "pitch": 73, "duration": 5, "velocity": 73}, {"time": 1068, "pitch": 77, "duration": 5, "velocity": 62}, {"time": 1074, "pitch": 51, "duration": 27, "velocity": 71}, {"time": 1074, "pitch": 70, "duration": 6, "velocity": 69}, {"time": 1074, "pitch": 73, "duration": 6, "velocity": 62}, {"time": 1074, "pitch": 79, "duration": 6, "velocity": 83}, {"time": 1083, "pitch": 58, "duration": 16, "velocity": 46}, {"time": 1092, "pitch": 67, "duration": 5, "velocity": 80}, {"time": 1092, "pitch": 75, "duration": 4, "velocity": 82}, {"time": 1098, "pitch": 63, "duration": 4, "velocity": 72}, {"time": 1104, "pitch": 68, "duration": 5, "velocity": 59}, {"time": 1110, "pitch": 44, "duration": 5, "velocity": 78}, {"time": 1110, "pitch": 63, "duration": 13, "velocity": 73}, {"time": 1110, "pitch": 66, "duration": 15, "velocity": 76}, {"time": 1110, "pitch": 71, "duration": 21, "velocity": 82}, {"time": 1116, "pitch": 56, "duration": 6, "velocity": 55}, {"time": 1122, "pitch": 58, "duration": 12, "velocity": 63}, {"time": 1128, "pitch": 59, "duration": 8, "velocity": 75}, {"time": 1134, "pitch": 61, "duration": 32, "velocity": 73}, {"time": 1140, "pitch": 66, "duration": 18, "velocity": 73}, {"time": 1146, "pitch": 71, "duration": 9, "velocity": 84}, {"time": 1158, "pitch": 59, "duration": 14, "velocity": 54}, {"time": 1164, "pitch": 66, "duration": 7, "velocity": 76}, {"time": 1164, "pitch": 73, "duration": 8, "velocity": 80}, {"time": 1170, "pitch": 61, "duration": 4, "velocity": 68}, {"time": 1176, "pitch": 68, "duration": 3, "velocity": 72}, {"time": 1182, "pitch": 49, "duration": 29, "velocity": 55}, {"time": 1182, "pitch": 66, "duration": 12, "velocity": 79}, {"time": 1182, "pitch": 70, "duration": 9, "velocity": 75}, {"time": 1188, "pitch": 56, "duration": 28, "velocity": 68}, {"time": 1194, "pitch": 61, "duration": 16, "velocity": 73}, {"time": 1200, "pitch": 66, "duration": 7, "velocity": 78}, {"time": 1206, "pitch": 68, "duration": 2, "velocity": 75}, {"time": 1212, "pitch": 73, "duration": 4, "velocity": 78}, {"time": 1218, "pitch": 49, "duration": 28, "velocity": 78}, {"time": 1218, "pitch": 73, "duration": 8, "velocity": 56}, {"time": 1218, "pitch": 78, "duration": 7, "velocity": 55}, {"time": 1218, "pitch": 85, "duration": 8, "velocity": 75}, {"time": 1224, "pitch": 56, "duration": 22, "velocity": 59}, {"time": 1230, "pitch": 73, "duration": 6, "velocity": 74}, {"time": 1230, "pitch": 83, "duration": 5, "velocity": 83}, {"time": 1236, "pitch": 61, "duration": 6, "velocity": 58}, {"time": 1242, "pitch": 73, "duration": 8, "velocity": 71}, {"time": 1242, "pitch": 82, "duration": 6, "velocity": 75}, {"time": 1248, "pitch": 61, "duration": 7, "velocity": 50}, {"time": 1248, "pitch": 80, "duration": 8, "velocity": 73}, {"time": 1254, "pitch": 54, "duration": 29, "velocity": 78}, {"time": 1254, "pitch": 73, "duration": 12, "velocity": 73}, {"time": 1254, "pitch": 78, "duration": 10, "velocity": 81}, {"time": 1266, "pitch": 61, "duration": 17, "velocity": 62}, {"time": 1272, "pitch": 66, "duration": 10, "velocity": 59}, {"time": 1278, "pitch": 70, "duration": 2, "velocity": 70}, {"time": 1278, "pitch": 78, "duration": 3, "velocity": 81}, {"time": 1284, "pitch": 68, "duration": 3, "velocity": 59}, {"time": 1284, "pitch": 77, "duration": 6, "velocity": 71}, {"time": 1290, "pitch": 54, "duration": 25, "velocity": 76}, {"time": 1290, "pitch": 68, "duration": 9, "velocity": 70}, {"time": 1290, "pitch": 73, "duration": 13, "velocity": 79}, {"time": 1296, "pitch": 61, "duration": 12, "velocity": 60}, {"time": 1302, "pitch": 66, "duration": 9, "velocity": 69}, {"time": 1308, "pitch": 68, "duration": 7, "velocity": 58}, {"time": 1308, "pitch": 75, "duration": 6, "velocity": 79}, {"time": 1314, "pitch": 61, "duration": 3, "velocity": 75}, {"time": 1326, "pitch": 53, "duration": 25, "velocity": 84}, {"time": 1326, "pitch": 65, "duration": 8, "velocity": 82}, {"time": 1326, "pitch": 68, "duration": 8, "velocity": 82}, {"time": 1326, "pitch": 73, "duration": 12, "velocity": 84}, {"time": 1332, "pitch": 61, "duration": 18, "velocity": 72}, {"time": 1338, "pitch": 65, "duration": 10, "velocity": 75}, {"time": 1344, "pitch": 68, "duration": 7, "velocity": 82}, {"time": 1350, "pitch": 73, "duration": 3, "velocity": 90}, {"time": 1362, "pitch": 51, "duration": 25, "velocity": 79}, {"time": 1362, "pitch": 63, "duration": 7, "velocity": 77}, {"time": 1362, "pitch": 67, "duration": 8, "velocity": 79}, {"time": 1362, "pitch": 70, "duration": 7, "velocity": 72}, {"time": 1374, "pitch": 63, "duration": 2, "velocity": 79}, {"time": 1374, "pitch": 68, "duration": 3, "velocity": 71}, {"time": 1380, "pitch": 58, "duration": 8, "velocity": 75}, {"time": 1386, "pitch": 63, "duration": 3, "velocity": 82}, {"time": 1386, "pitch": 70, "duration": 3, "velocity": 84}, {"time": 1398, "pitch": 44, "duration": 4, "velocity": 79}, {"time": 1398, "pitch": 63, "duration": 14, "velocity": 73}, {"time": 1398, "pitch": 66, "duration": 19, "velocity": 82}, {"time": 1398, "pitch": 71, "duration": 22, "velocity": 83}, {"time": 1404, "pitch": 56, "duration": 8, "velocity": 43}, {"time": 1410, "pitch": 58, "duration": 18, "velocity": 72}, {"time": 1416, "pitch": 59, "duration": 12, "velocity": 82}, {"time": 1422, "pitch": 63, "duration": 6, "velocity": 83}, {"time": 1428, "pitch": 66, "duration": 4, "velocity": 78}, {"time": 1434, "pitch": 49, "duration": 27, "velocity": 84}, {"time": 1434, "pitch": 66, "duration": 8, "velocity": 82}, {"time": 1434, "pitch": 73, "duration": 9, "velocity": 86}, {"time": 1440, "pitch": 56, "duration": 23, "velocity": 78}, {"time": 1446, "pitch": 66, "duration": 6, "velocity": 82}, {"time": 1446, "pitch": 71, "duration": 7, "velocity": 86}, {"time": 1452, "pitch": 61, "duration": 6, "velocity": 68}, {"time": 1458, "pitch": 66, "duration": 2, "velocity": 84}, {"time": 1458, "pitch": 73, "duration": 3, "velocity": 86}, {"time": 1464, "pitch": 61, "duration": 6, "velocity": 57}, {"time": 1470, "pitch": 54, "duration": 31, "velocity": 83}, {"time": 1470, "pitch": 66, "duration": 6, "velocity": 82}, {"time": 1470, "pitch": 70, "duration": 7, "velocity": 80}, {"time": 1476, "pitch": 61, "duration": 20, "velocity": 72}, {"time": 1482, "pitch": 66, "duration": 6, "velocity": 71}, {"time": 1488, "pitch": 70, "duration": 3, "velocity": 75}, {"time": 1488, "pitch": 78, "duration": 7, "velocity": 84}, {"time": 1494, "pitch": 68, "duration": 3, "velocity": 75}, {"time": 1494, "pitch": 77, "duration": 5, "velocity": 79}, {"time": 1500, "pitch": 61, "duration": 6, "velocity": 68}, {"time": 1500, "pitch": 70, "duration": 2, "velocity": 60}, {"time": 1500, "pitch": 78, "duration": 7, "velocity": 74}, {"time": 1506, "pitch": 54, "duration": 26, "velocity": 78}, {"time": 1506, "pitch": 68, "duration": 11, "velocity": 71}, {"time": 1506, "pitch": 73, "duration": 11, "velocity": 80}, {"time": 1512, "pitch": 61, "duration": 12, "velocity": 71}, {"time": 1518, "pitch": 66, "duration": 5, "velocity": 79}, {"time": 1524, "pitch": 68, "duration": 7, "velocity": 78}, {"time": 1524, "pitch": 71, "duration": 7, "velocity": 90}, {"time": 1530, "pitch": 61, "duration": 8, "velocity": 74}, {"time": 1536, "pitch": 66, "duration": 3, "velocity": 79}, {"time": 1536, "pitch": 71, "duration": 3, "velocity": 78}, {"time": 1536, "pitch": 75, "duration": 4, "velocity": 84}, {"time": 1542, "pitch": 49, "duration": 30, "velocity": 80}, {"time": 1542, "pitch": 65, "duration": 12, "velocity": 76}, {"time": 1542, "pitch": 68, "duration": 10, "velocity": 75}, {"time": 1542, "pitch": 73, "duration": 13, "velocity": 81}, {"time": 1548, "pitch": 56, "duration": 30, "velocity": 72}, {"time": 1554, "pitch": 61, "duration": 8, "velocity": 75}, {"time": 1560, "pitch": 63, "duration": 12, "velocity": 76}, {"time": 1560, "pitch": 71, "duration": 12, "velocity": 84}, {"time": 1572, "pitch": 61, "duration": 3, "velocity": 62}, {"time": 1578, "pitch": 49, "duration": 30, "velocity": 84}, {"time": 1578, "pitch": 65, "duration": 13, "velocity": 79}, {"time": 1578, "pitch": 68, "duration": 14, "velocity": 81}, {"time": 1578, "pitch": 73, "duration": 12, "velocity": 83}, {"time": 1584, "pitch": 56, "duration": 22, "velocity": 76}, {"time": 1590, "pitch": 61, "duration": 6, "velocity": 91}, {"time": 1596, "pitch": 65, "duration": 11, "velocity": 82}, {"time": 1596, "pitch": 71, "duration": 9, "velocity": 91}, {"time": 1602, "pitch": 61, "duration": 3, "velocity": 82}, {"time": 1602, "pitch": 73, "duration": 5, "velocity": 82}, {"time": 1608, "pitch": 54, "duration": 2, "velocity": 84}, {"time": 1614, "pitch": 47, "duration": 9, "velocity": 86}, {"time": 1614, "pitch": 78, "duration": 9, "velocity": 80}, {"time": 1620, "pitch": 54, "duration": 5, "velocity": 79}, {"time": 1620, "pitch": 66, "duration": 14, "velocity": 60}, {"time": 1626, "pitch": 59, "duration": 7, "velocity": 69}, {"time": 1626, "pitch": 73, "duration": 7, "velocity": 82}, {"time": 1632, "pitch": 61, "duration": 9, "velocity": 79}, {"time": 1632, "pitch": 78, "duration": 9, "velocity": 80}, {"time": 1638, "pitch": 63, "duration": 3, "velocity": 83}, {"time": 1638, "pitch": 66, "duration": 7, "velocity": 71}, {"time": 1644, "pitch": 73, "duration": 8, "velocity": 82}, {"time": 1650, "pitch": 47, "duration": 27, "velocity": 83}, {"time": 1650, "pitch": 77, "duration": 8, "velocity": 84}, {"time": 1656, "pitch": 54, "duration": 23, "velocity": 74}, {"time": 1656, "pitch": 66, "duration": 7, "velocity": 70}, {"time": 1662, "pitch": 73, "duration": 7, "velocity": 83}, {"time": 1668, "pitch": 59, "duration": 8, "velocity": 78}, {"time": 1668, "pitch": 77, "duration": 9, "velocity": 86}, {"time": 1674, "pitch": 68, "duration": 7, "velocity": 59}, {"time": 1680, "pitch": 73, "duration": 8, "velocity": 83}, {"time": 1686, "pitch": 46, "duration": 26, "velocity": 83}, {"time": 1686, "pitch": 77, "duration": 12, "velocity": 95}, {"time": 1692, "pitch": 53, "duration": 20, "velocity": 83}, {"time": 1698, "pitch": 58, "duration": 7, "velocity": 79}, {"time": 1704, "pitch": 68, "duration": 7, "velocity": 75}, {"time": 1704, "pitch": 73, "duration": 9, "velocity": 84}, {"time": 1710, "pitch": 58, "duration": 10, "velocity": 60}, {"time": 1716, "pitch": 73, "duration": 2, "velocity": 34}, {"time": 1716, "pitch": 77, "duration": 2, "velocity": 79}, {"time": 1722, "pitch": 51, "duration": 27, "velocity": 79}, {"time": 1722, "pitch": 66, "duration": 8, "velocity": 72}, {"time": 1722, "pitch": 70, "duration": 8, "velocity": 83}, {"time": 1722, "pitch": 73, "duration": 10, "velocity": 84}, {"time": 1728, "pitch": 58, "duration": 20, "velocity": 75}, {"time": 1734, "pitch": 66, "duration": 8, "velocity": 74}, {"time": 1734, "pitch": 70, "duration": 3, "velocity": 73}, {"time": 1734, "pitch": 78, "duration": 7, "velocity": 81}, {"time": 1740, "pitch": 63, "duration": 7, "velocity": 62}, {"time": 1746, "pitch": 66, "duration": 3, "velocity": 76}, {"time": 1746, "pitch": 77, "duration": 2, "velocity": 84}, {"time": 1752, "pitch": 75, "duration": 5, "velocity": 78}, {"time": 1758, "pitch": 44, "duration": 27, "velocity": 82}, {"time": 1758, "pitch": 66, "duration": 8, "velocity": 56}, {"time": 1758, "pitch": 73, "duration": 7, "velocity": 81}, {"time": 1764, "pitch": 51, "duration": 20, "velocity": 78}, {"time": 1770, "pitch": 56, "duration": 7, "velocity": 73}, {"time": 1776, "pitch": 59, "duration": 7, "velocity": 80}, {"time": 1776, "pitch": 63, "duration": 7, "velocity": 79}, {"time": 1776, "pitch": 66, "duration": 7, "velocity": 83}, {"time": 1782, "pitch": 56, "duration": 10, "velocity": 74}, {"time": 1788, "pitch": 66, "duration": 5, "velocity": 78}, {"time": 1794, "pitch": 49, "duration": 27, "velocity": 80}, {"time": 1794, "pitch": 61, "duration": 8, "velocity": 79}, {"time": 1794, "pitch": 65, "duration": 10, "velocity": 84}, {"time": 1800, "pitch": 56, "duration": 19, "velocity": 71}, {"time": 1806, "pitch": 61, "duration": 1, "velocity": 75}, {"time": 1806, "pitch": 63, "duration": 1, "velocity": 78}, {"time": 1806, "pitch": 66, "duration": 1, "velocity": 77}, {"time": 1806, "pitch": 68, "duration": 2, "velocity": 81}, {"time": 1818, "pitch": 61, "duration": 7, "velocity": 78}, {"time": 1818, "pitch": 65, "duration": 4, "velocity": 76}, {"time": 1818, "pitch": 71, "duration": 6, "velocity": 90}, {"time": 1824, "pitch": 68, "duration": 5, "velocity": 77}, {"time": 1830, "pitch": 42, "duration": 11, "velocity": 80}, {"time": 1830, "pitch": 61, "duration": 24, "velocity": 78}, {"time": 1830, "pitch": 66, "duration": 22, "velocity": 80}, {"time": 1830, "pitch": 70, "duration": 22, "velocity": 83}, {"time": 1836, "pitch": 49, "duration": 6, "velocity": 80}, {"time": 1842, "pitch": 54, "duration": 8, "velocity": 76}, {"time": 1848, "pitch": 56, "duration": 8, "velocity": 78}, {"time": 1854, "pitch": 58, "duration": 3, "velocity": 91}, {"time": 1860, "pitch": 70, "duration": 4, "velocity": 83}, {"time": 1866, "pitch": 42, "duration": 11, "velocity": 81}, {"time": 1866, "pitch": 61, "duration": 9, "velocity": 82}, {"time": 1866, "pitch": 64, "duration": 10, "velocity": 90}, {"time": 1866, "pitch": 68, "duration": 10, "velocity": 82}, {"time": 1872, "pitch": 49, "duration": 6, "velocity": 78}, {"time": 1878, "pitch": 52, "duration": 7, "velocity": 69}, {"time": 1878, "pitch": 61, "duration": 6, "velocity": 83}, {"time": 1878, "pitch": 64, "duration": 1, "velocity": 59}, {"time": 1878, "pitch": 70, "duration": 6, "velocity": 90}, {"time": 1884, "pitch": 54, "duration": 13, "velocity": 75}, {"time": 1890, "pitch": 63, "duration": 3, "velocity": 80}, {"time": 1890, "pitch": 71, "duration": 3, "velocity": 90}, {"time": 1896, "pitch": 56, "duration": 2, "velocity": 78}, {"time": 1896, "pitch": 64, "duration": 2, "velocity": 72}, {"time": 1896, "pitch": 73, "duration": 3, "velocity": 83}, {"time": 1902, "pitch": 47, "duration": 30, "velocity": 82}, {"time": 1902, "pitch": 66, "duration": 13, "velocity": 74}, {"time": 1902, "pitch": 75, "duration": 9, "velocity": 83}, {"time": 1908, "pitch": 54, "duration": 21, "velocity": 78}, {"time": 1914, "pitch": 59, "duration": 7, "velocity": 81}, {"time": 1920, "pitch": 63, "duration": 7, "velocity": 72}, {"time": 1920, "pitch": 66, "duration": 8, "velocity": 73}, {"time": 1920, "pitch": 71, "duration": 8, "velocity": 83}, {"time": 1926, "pitch": 59, "duration": 6, "velocity": 78}, {"time": 1932, "pitch": 68, "duration": 3, "velocity": 79}, {"time": 1938, "pitch": 47, "duration": 27, "velocity": 80}, {"time": 1938, "pitch": 61, "duration": 12, "velocity": 75}, {"time": 1938, "pitch": 65, "duration": 12, "velocity": 79}, {"time": 1938, "pitch": 68, "duration": 12, "velocity": 79}, {"time": 1950, "pitch": 56, "duration": 15, "velocity": 78}, {"time": 1956, "pitch": 61, "duration": 6, "velocity": 82}, {"time": 1956, "pitch": 65, "duration": 5, "velocity": 84}, {"time": 1956, "pitch": 68, "duration": 7, "velocity": 82}, {"time": 1962, "pitch": 58, "duration": 3, "velocity": 76}, {"time": 1962, "pitch": 66, "duration": 5, "velocity": 58}, {"time": 1968, "pitch": 68, "duration": 5, "velocity": 78}, {"time": 1974, "pitch": 46, "duration": 25, "velocity": 84}, {"time": 1974, "pitch": 61, "duration": 8, "velocity": 78}, {"time": 1974, "pitch": 65, "duration": 8, "velocity": 94}, {"time": 1980, "pitch": 58, "duration": 7, "velocity": 68}, {"time": 1986, "pitch": 61, "duration": 8, "velocity": 83}, {"time": 1986, "pitch": 65, "duration": 7, "velocity": 75}, {"time": 1986, "pitch": 73, "duration": 9, "velocity": 90}, {"time": 1992, "pitch": 58, "duration": 9, "velocity": 69}, {"time": 1998, "pitch": 68, "duration": 5, "velocity": 78}, {"time": 2004, "pitch": 70, "duration": 5, "velocity": 82}, {"time": 2010, "pitch": 45, "duration": 30, "velocity": 81}, {"time": 2010, "pitch": 60, "duration": 12, "velocity": 82}, {"time": 2010, "pitch": 66, "duration": 12, "velocity": 75}, {"time": 2022, "pitch": 57, "duration": 13, "velocity": 71}, {"time": 2028, "pitch": 60, "duration": 10, "velocity": 81}, {"time": 2034, "pitch": 66, "duration": 6, "velocity": 81}, {"time": 2046, "pitch": 44, "duration": 26, "velocity": 76}, {"time": 2046, "pitch": 56, "duration": 8, "velocity": 69}, {"time": 2046, "pitch": 59, "duration": 12, "velocity": 80}, {"time": 2046, "pitch": 63, "duration": 12, "velocity": 81}, {"time": 2052, "pitch": 51, "duration": 19, "velocity": 78}, {"time": 2058, "pitch": 56, "duration": 22, "velocity": 68}, {"time": 2064, "pitch": 59, "duration": 8, "velocity": 76}, {"time": 2070, "pitch": 63, "duration": 9, "velocity": 75}, {"time": 2076, "pitch": 66, "duration": 6, "velocity": 75}, {"time": 2082, "pitch": 49, "duration": 26, "velocity": 75}, {"time": 2082, "pitch": 61, "duration": 7, "velocity": 70}, {"time": 2082, "pitch": 65, "duration": 10, "velocity": 83}, {"time": 2088, "pitch": 56, "duration": 8, "velocity": 53}, {"time": 2094, "pitch": 61, "duration": 3, "velocity": 75}, {"time": 2094, "pitch": 66, "duration": 3, "velocity": 80}, {"time": 2100, "pitch": 56, "duration": 7, "velocity": 61}, {"time": 2106, "pitch": 61, "duration": 5, "velocity": 71}, {"time": 2106, "pitch": 65, "duration": 2, "velocity": 75}, {"time": 2106, "pitch": 71, "duration": 7, "velocity": 82}, {"time": 2118, "pitch": 59, "duration": 26, "velocity": 80}, {"time": 2118, "pitch": 75, "duration": 13, "velocity": 90}, {"time": 2124, "pitch": 66, "duration": 22, "velocity": 68}, {"time": 2130, "pitch": 71, "duration": 13, "velocity": 75}, {"time": 2136, "pitch": 73, "duration": 4, "velocity": 73}, {"time": 2142, "pitch": 73, "duration": 2, "velocity": 23}, {"time": 2142, "pitch": 75, "duration": 5, "velocity": 75}, {"time": 2148, "pitch": 82, "duration": 7, "velocity": 82}, {"time": 2154, "pitch": 59, "duration": 12, "velocity": 71}, {"time": 2154, "pitch": 80, "duration": 14, "velocity": 79}, {"time": 2160, "pitch": 68, "duration": 20, "velocity": 60}, {"time": 2166, "pitch": 73, "duration": 8, "velocity": 56}, {"time": 2172, "pitch": 77, "duration": 6, "velocity": 74}, {"time": 2178, "pitch": 78, "duration": 6, "velocity": 75}, {"time": 2184, "pitch": 80, "duration": 3, "velocity": 69}, {"time": 2190, "pitch": 58, "duration": 24, "velocity": 82}, {"time": 2190, "pitch": 80, "duration": 13, "velocity": 83}, {"time": 2196, "pitch": 65, "duration": 19, "velocity": 71}, {"time": 2202, "pitch": 73, "duration": 10, "velocity": 76}, {"time": 2208, "pitch": 70, "duration": 5, "velocity": 83}, {"time": 2214, "pitch": 75, "duration": 4, "velocity": 82}, {"time": 2220, "pitch": 77, "duration": 5, "velocity": 78}, {"time": 2226, "pitch": 57, "duration": 30, "velocity": 80}, {"time": 2226, "pitch": 69, "duration": 7, "velocity": 81}, {"time": 2226, "pitch": 75, "duration": 10, "velocity": 80}, {"time": 2232, "pitch": 63, "duration": 23, "velocity": 76}, {"time": 2238, "pitch": 69, "duration": 13, "velocity": 72}, {"time": 2244, "pitch": 73, "duration": 7, "velocity": 84}, {"time": 2250, "pitch": 75, "duration": 6, "velocity": 76}, {"time": 2256, "pitch": 77, "duration": 5, "velocity": 80}, {"time": 2262, "pitch": 56, "duration": 29, "velocity": 78}, {"time": 2262, "pitch": 66, "duration": 9, "velocity": 80}, {"time": 2262, "pitch": 71, "duration": 10, "velocity": 86}, {"time": 2262, "pitch": 75, "duration": 11, "velocity": 84}, {"time": 2268, "pitch": 63, "duration": 18, "velocity": 76}, {"time": 2274, "pitch": 73, "duration": 10, "velocity": 84}, {"time": 2280, "pitch": 68, "duration": 7, "velocity": 78}, {"time": 2286, "pitch": 71, "duration": 3, "velocity": 84}, {"time": 2286, "pitch": 75, "duration": 3, "velocity": 84}, {"time": 2292, "pitch": 63, "duration": 6, "velocity": 80}, {"time": 2298, "pitch": 58, "duration": 25, "velocity": 84}, {"time": 2298, "pitch": 68, "duration": 8, "velocity": 80}, {"time": 2298, "pitch": 73, "duration": 8, "velocity": 94}, {"time": 2298, "pitch": 77, "duration": 8, "velocity": 91}, {"time": 2304, "pitch": 65, "duration": 14, "velocity": 81}, {"time": 2310, "pitch": 68, "duration": 6, "velocity": 50}, {"time": 2310, "pitch": 70, "duration": 7, "velocity": 59}, {"time": 2310, "pitch": 77, "duration": 4, "velocity": 58}, {"time": 2316, "pitch": 78, "duration": 7, "velocity": 82}, {"time": 2322, "pitch": 65, "duration": 1, "velocity": 80}, {"time": 2322, "pitch": 77, "duration": 2, "velocity": 86}, {"time": 2328, "pitch": 73, "duration": 4, "velocity": 86}, {"time": 2334, "pitch": 47, "duration": 34, "velocity": 93}, {"time": 2334, "pitch": 66, "duration": 7, "velocity": 94}, {"time": 2334, "pitch": 71, "duration": 7, "velocity": 93}, {"time": 2334, "pitch": 75, "duration": 7, "velocity": 86}, {"time": 2340, "pitch": 59, "duration": 21, "velocity": 79}, {"time": 2346, "pitch": 66, "duration": 8, "velocity": 90}, {"time": 2352, "pitch": 71, "duration": 4, "velocity": 84}, {"time": 2358, "pitch": 71, "duration": 1, "velocity": 56}, {"time": 2358, "pitch": 73, "duration": 4, "velocity": 83}, {"time": 2364, "pitch": 59, "duration": 1, "velocity": 59}, {"time": 2364, "pitch": 75, "duration": 3, "velocity": 82}, {"time": 2370, "pitch": 47, "duration": 3, "velocity": 94}, {"time": 2370, "pitch": 59, "duration": 2, "velocity": 103}, {"time": 2370, "pitch": 66, "duration": 3, "velocity": 80}, {"time": 2370, "pitch": 71, "duration": 3, "velocity": 93}, {"time": 2370, "pitch": 75, "duration": 3, "velocity": 86}, {"time": 2388, "pitch": 47, "duration": 14, "velocity": 94}, {"time": 2388, "pitch": 59, "duration": 3, "velocity": 86}, {"time": 2388, "pitch": 66, "duration": 7, "velocity": 90}, {"time": 2388, "pitch": 71, "duration": 8, "velocity": 86}, {"time": 2388, "pitch": 75, "duration": 8, "velocity": 86}, {"time": 2394, "pitch": 59, "duration": 3, "velocity": 79}, {"time": 2400, "pitch": 59, "duration": 2, "velocity": 68}, {"time": 2400, "pitch": 66, "duration": 2, "velocity": 91}, {"time": 2400, "pitch": 71, "duration": 2, "velocity": 91}, {"time": 2400, "pitch": 75, "duration": 2, "velocity": 84}, {"time": 2412, "pitch": 49, "duration": 7, "velocity": 95}, {"time": 2412, "pitch": 61, "duration": 7, "velocity": 94}, {"time": 2412, "pitch": 68, "duration": 6, "velocity": 86}, {"time": 2412, "pitch": 73, "duration": 6, "velocity": 99}, {"time": 2412, "pitch": 77, "duration": 5, "velocity": 90}, {"time": 2430, "pitch": 49, "duration": 7, "velocity": 94}, {"time": 2430, "pitch": 61, "duration": 7, "velocity": 96}, {"time": 2430, "pitch": 68, "duration": 7, "velocity": 95}, {"time": 2430, "pitch": 73, "duration": 6, "velocity": 94}, {"time": 2430, "pitch": 77, "duration": 6, "velocity": 103}, {"time": 2442, "pitch": 49, "duration": 33, "velocity": 95}, {"time": 2442, "pitch": 61, "duration": 32, "velocity": 106}, {"time": 2442, "pitch": 68, "duration": 32, "velocity": 86}, {"time": 2442, "pitch": 73, "duration": 32, "velocity": 95}, {"time": 2442, "pitch": 77, "duration": 33, "velocity": 94}, {"time": 2478, "pitch": 54, "duration": 31, "velocity": 73}, {"time": 2478, "pitch": 70, "duration": 10, "velocity": 72}, {"time": 2478, "pitch": 78, "duration": 12, "velocity": 82}, {"time": 2484, "pitch": 61, "duration": 38, "velocity": 69}, {"time": 2490, "pitch": 66, "duration": 7, "velocity": 58}, {"time": 2496, "pitch": 68, "duration": 7, "velocity": 71}, {"time": 2496, "pitch": 73, "duration": 8, "velocity": 76}, {"time": 2502, "pitch": 66, "duration": 6, "velocity": 54}, {"time": 2508, "pitch": 70, "duration": 6, "velocity": 63}, {"time": 2514, "pitch": 68, "duration": 3, "velocity": 62}, {"time": 2514, "pitch": 73, "duration": 3, "velocity": 80}, {"time": 2526, "pitch": 54, "duration": 17, "velocity": 63}, {"time": 2532, "pitch": 73, "duration": 7, "velocity": 81}, {"time": 2532, "pitch": 80, "duration": 7, "velocity": 78}, {"time": 2538, "pitch": 61, "duration": 8, "velocity": 61}, {"time": 2544, "pitch": 77, "duration": 6, "velocity": 78}, {"time": 2550, "pitch": 53, "duration": 10, "velocity": 78}, {"time": 2550, "pitch": 68, "duration": 12, "velocity": 72}, {"time": 2550, "pitch": 73, "duration": 12, "velocity": 80}, {"time": 2556, "pitch": 61, "duration": 17, "velocity": 52}, {"time": 2562, "pitch": 65, "duration": 10, "velocity": 75}, {"time": 2568, "pitch": 68, "duration": 4, "velocity": 75}, {"time": 2574, "pitch": 73, "duration": 5, "velocity": 73}, {"time": 2580, "pitch": 77, "duration": 5, "velocity": 62}, {"time": 2586, "pitch": 51, "duration": 27, "velocity": 71}, {"time": 2586, "pitch": 70, "duration": 6, "velocity": 69}, {"time": 2586, "pitch": 73, "duration": 6, "velocity": 62}, {"time": 2586, "pitch": 79, "duration": 6, "velocity": 83}, {"time": 2595, "pitch": 58, "duration": 16, "velocity": 46}, {"time": 2604, "pitch": 67, "duration": 5, "velocity": 80}, {"time": 2604, "pitch": 75, "duration": 4, "velocity": 82}, {"time": 2610, "pitch": 63, "duration": 4, "velocity": 72}, {"time": 2616, "pitch": 68, "duration": 5, "velocity": 59}, {"time": 2622, "pitch": 44, "duration": 5, "velocity": 78}, {"time": 2622, "pitch": 63, "duration": 13, "velocity": 73}, {"time": 2622, "pitch": 66, "duration": 15, "velocity": 76}, {"time": 2622, "pitch": 71, "duration": 21, "velocity": 82}, {"time": 2628, "pitch": 56, "duration": 6, "velocity": 55}, {"time": 2634, "pitch": 58, "duration": 12, "velocity": 63}, {"time": 2640, "pitch": 59, "duration": 8, "velocity": 75}, {"time": 2646, "pitch": 61, "duration": 32, "velocity": 73}, {"time": 2652, "pitch": 66, "duration": 18, "velocity": 73}, {"time": 2658, "pitch": 71, "duration": 9, "velocity": 84}, {"time": 2670, "pitch": 59, "duration": 14, "velocity": 54}, {"time": 2676, "pitch": 66, "duration": 7, "velocity": 76}, {"time": 2676, "pitch": 73, "duration": 8, "velocity": 80}, {"time": 2682, "pitch": 61, "duration": 4, "velocity": 68}, {"time": 2688, "pitch": 68, "duration": 3, "velocity": 72}, {"time": 2694, "pitch": 49, "duration": 29, "velocity": 55}, {"time": 2694, "pitch": 66, "duration": 12, "velocity": 79}, {"time": 2694, "pitch": 70, "duration": 9, "velocity": 75}, {"time": 2700, "pitch": 56, "duration": 28, "velocity": 68}, {"time": 2706, "pitch": 61, "duration": 16, "velocity": 73}, {"time": 2712, "pitch": 66, "duration": 7, "velocity": 78}, {"time": 2718, "pitch": 68, "duration": 2, "velocity": 75}, {"time": 2724, "pitch": 73, "duration": 4, "velocity": 78}, {"time": 2730, "pitch": 49, "duration": 28, "velocity": 78}, {"time": 2730, "pitch": 73, "duration": 8, "velocity": 56}, {"time": 2730, "pitch": 78, "duration": 7, "velocity": 55}, {"time": 2730, "pitch": 85, "duration": 8, "velocity": 75}, {"time": 2736, "pitch": 56, "duration": 22, "velocity": 59}, {"time": 2742, "pitch": 73, "duration": 6, "velocity": 74}, {"time": 2742, "pitch": 83, "duration": 5, "velocity": 83}, {"time": 2748, "pitch": 61, "duration": 6, "velocity": 58}, {"time": 2754, "pitch": 73, "duration": 8, "velocity": 71}, {"time": 2754, "pitch": 82, "duration": 6, "velocity": 75}, {"time": 2760, "pitch": 61, "duration": 7, "velocity": 50}, {"time": 2760, "pitch": 80, "duration": 8, "velocity": 73}, {"time": 2766, "pitch": 54, "duration": 29, "velocity": 78}, {"time": 2766, "pitch": 73, "duration": 12, "velocity": 73}, {"time": 2766, "pitch": 78, "duration": 10, "velocity": 81}, {"time": 2778, "pitch": 61, "duration": 17, "velocity": 62}, {"time": 2784, "pitch": 66, "duration": 10, "velocity": 59}, {"time": 2790, "pitch": 70, "duration": 2, "velocity": 70}, {"time": 2790, "pitch": 78, "duration": 3, "velocity": 81}, {"time": 2796, "pitch": 68, "duration": 3, "velocity": 59}, {"time": 2796, "pitch": 77, "duration": 6, "velocity": 71}, {"time": 2802, "pitch": 54, "duration": 25, "velocity": 76}, {"time": 2802, "pitch": 68, "duration": 9, "velocity": 70}, {"time": 2802, "pitch": 73, "duration": 13, "velocity": 79}, {"time": 2808, "pitch": 61, "duration": 12, "velocity": 60}, {"time": 2814, "pitch": 66, "duration": 9, "velocity": 69}, {"time": 2820, "pitch": 68, "duration": 7, "velocity": 58}, {"time": 2820, "pitch": 75, "duration": 6, "velocity": 79}, {"time": 2826, "pitch": 61, "duration": 3, "velocity": 75}, {"time": 2838, "pitch": 53, "duration": 25, "velocity": 84}, {"time": 2838, "pitch": 65, "duration": 8, "velocity": 82}, {"time": 2838, "pitch": 68, "duration": 8, "velocity": 82}, {"time": 2838, "pitch": 73, "duration": 12, "velocity": 84}, {"time": 2844, "pitch": 61, "duration": 18, "velocity": 72}, {"time": 2850, "pitch": 65, "duration": 10, "velocity": 75}, {"time": 2856, "pitch": 68, "duration": 7, "velocity": 82}, {"time": 2862, "pitch": 73, "duration": 3, "velocity": 90}, {"time": 2874, "pitch": 51, "duration": 25, "velocity": 79}, {"time": 2874, "pitch": 63, "duration": 7, "velocity": 77}, {"time": 2874, "pitch": 67, "duration": 8, "velocity": 79}, {"time": 2874, "pitch": 70, "duration": 7, "velocity": 72}, {"time": 2886, "pitch": 63, "duration": 2, "velocity": 79}, {"time": 2886, "pitch": 68, "duration": 3, "velocity": 71}, {"time": 2892, "pitch": 58, "duration": 8, "velocity": 75}, {"time": 2898, "pitch": 63, "duration": 3, "velocity": 82}, {"time": 2898, "pitch": 70, "duration": 3, "velocity": 84}, {"time": 2910, "pitch": 44, "duration": 4, "velocity": 79}, {"time": 2910, "pitch": 63, "duration": 14, "velocity": 73}, {"time": 2910, "pitch": 66, "duration": 19, "velocity": 82}, {"time": 2910, "pitch": 71, "duration": 22, "velocity": 83}, {"time": 2916, "pitch": 56, "duration": 8, "velocity": 43}, {"time": 2922, "pitch": 58, "duration": 18, "velocity": 72}, {"time": 2928, "pitch": 59, "duration": 12, "velocity": 82}, {"time": 2934, "pitch": 63, "duration": 6, "velocity": 83}, {"time": 2940, "pitch": 66, "duration": 4, "velocity": 78}, {"time": 2946, "pitch": 49, "duration": 27, "velocity": 84}, {"time": 2946, "pitch": 66, "duration": 8, "velocity": 82}, {"time": 2946, "pitch": 73, "duration": 9, "velocity": 86}, {"time": 2952, "pitch": 56, "duration": 23, "velocity": 78}, {"time": 2958, "pitch": 66, "duration": 6, "velocity": 82}, {"time": 2958, "pitch": 71, "duration": 7, "velocity": 86}, {"time": 2964, "pitch": 61, "duration": 6, "velocity": 68}, {"time": 2970, "pitch": 66, "duration": 2, "velocity": 84}, {"time": 2970, "pitch": 73, "duration": 3, "velocity": 86}, {"time": 2976, "pitch": 61, "duration": 6, "velocity": 57}, {"time": 2982, "pitch": 52, "duration": 35, "velocity": 83}, {"time": 2982, "pitch": 59, "duration": 17, "velocity": 84}, {"time": 2982, "pitch": 64, "duration": 3, "velocity": 79}, {"time": 2982, "pitch": 71, "duration": 4, "velocity": 84}, {"time": 2988, "pitch": 64, "duration": 9, "velocity": 71}, {"time": 2988, "pitch": 71, "duration": 4, "velocity": 83}, {"time": 2991, "pitch": 70, "duration": 4, "velocity": 72}, {"time": 2994, "pitch": 71, "duration": 3, "velocity": 84}, {"time": 3000, "pitch": 59, "duration": 15, "velocity": 81}, {"time": 3000, "pitch": 64, "duration": 3, "velocity": 84}, {"time": 3000, "pitch": 71, "duration": 3, "velocity": 91}, {"time": 3006, "pitch": 64, "duration": 4, "velocity": 78}, {"time": 3006, "pitch": 71, "duration": 4, "velocity": 83}, {"time": 3009, "pitch": 70, "duration": 4, "velocity": 76}, {"time": 3012, "pitch": 64, "duration": 3, "velocity": 61}, {"time": 3012, "pitch": 71, "duration": 3, "velocity": 84}, {"time": 3015, "pitch": 70, "duration": 3, "velocity": 76}, {"time": 3018, "pitch": 52, "duration": 32, "velocity": 79}, {"time": 3018, "pitch": 59, "duration": 17, "velocity": 79}, {"time": 3018, "pitch": 64, "duration": 3, "velocity": 76}, {"time": 3018, "pitch": 71, "duration": 3, "velocity": 86}, {"time": 3024, "pitch": 64, "duration": 11, "velocity": 72}, {"time": 3024, "pitch": 71, "duration": 4, "velocity": 83}, {"time": 3027, "pitch": 70, "duration": 4, "velocity": 75}, {"time": 3030, "pitch": 71, "duration": 3, "velocity": 84}, {"time": 3033, "pitch": 70, "duration": 3, "velocity": 75}, {"time": 3036, "pitch": 59, "duration": 3, "velocity": 54}, {"time": 3036, "pitch": 64, "duration": 3, "velocity": 53}, {"time": 3036, "pitch": 71, "duration": 3, "velocity": 94}, {"time": 3042, "pitch": 59, "duration": 5, "velocity": 81}, {"time": 3042, "pitch": 64, "duration": 4, "velocity": 76}, {"time": 3042, "pitch": 70, "duration": 5, "velocity": 79}, {"time": 3048, "pitch": 68, "duration": 3, "velocity": 83}, {"time": 3054, "pitch": 51, "duration": 34, "velocity": 84}, {"time": 3054, "pitch": 63, "duration": 2, "velocity": 78}, {"time": 3054, "pitch": 71, "duration": 2, "velocity": 83}, {"time": 3060, "pitch": 63, "duration": 4, "velocity": 58}, {"time": 3060, "pitch": 71, "duration": 4, "velocity": 71}, {"time": 3063, "pitch": 66, "duration": 3, "velocity": 73}, {"time": 3066, "pitch": 63, "duration": 2, "velocity": 59}, {"time": 3066, "pitch": 71, "duration": 3, "velocity": 78}, {"time": 3072, "pitch": 63, "duration": 3, "velocity": 82}, {"time": 3072, "pitch": 71, "duration": 3, "velocity": 84}, {"time": 3078, "pitch": 63, "duration": 11, "velocity": 75}, {"time": 3078, "pitch": 71, "duration": 2, "velocity": 78}, {"time": 3081, "pitch": 70, "duration": 3, "velocity": 79}, {"time": 3084, "pitch": 71, "duration": 3, "velocity": 79}, {"time": 3087, "pitch": 70, "duration": 3, "velocity": 79}, {"time": 3090, "pitch": 51, "duration": 21, "velocity": 86}, {"time": 3090, "pitch": 63, "duration": 3, "velocity": 82}, {"time": 3090, "pitch": 71, "duration": 3, "velocity": 98}, {"time": 3096, "pitch": 63, "duration": 10, "velocity": 73}, {"time": 3096, "pitch": 71, "duration": 3, "velocity": 86}, {"time": 3099, "pitch": 70, "duration": 4, "velocity": 41}, {"time": 3102, "pitch": 71, "duration": 4, "velocity": 91}, {"time": 3105, "pitch": 70, "duration": 3, "velocity": 72}, {"time": 3108, "pitch": 63, "duration": 3, "velocity": 81}, {"time": 3108, "pitch": 71, "duration": 4, "velocity": 98}, {"time": 3114, "pitch": 51, "duration": 4, "velocity": 94}, {"time": 3114, "pitch": 63, "duration": 4, "velocity": 80}, {"time": 3114, "pitch": 70, "duration": 5, "velocity": 75}, {"time": 3120, "pitch": 68, "duration": 3, "velocity": 71}, {"time": 3126, "pitch": 50, "duration": 32, "velocity": 99}, {"time": 3126, "pitch": 62, "duration": 5, "velocity": 91}, {"time": 3126, "pitch": 66, "duration": 7, "velocity": 80}, {"time": 3126, "pitch": 71, "duration": 9, "velocity": 94}, {"time": 3138, "pitch": 66, "duration": 8, "velocity": 78}, {"time": 3138, "pitch": 69, "duration": 9, "velocity": 74}, {"time": 3144, "pitch": 62, "duration": 8, "velocity": 98}, {"time": 3150, "pitch": 66, "duration": 2, "velocity": 84}, {"time": 3150, "pitch": 71, "duration": 3, "velocity": 98}, {"time": 3156, "pitch": 62, "duration": 2, "velocity": 81}, {"time": 3156, "pitch": 70, "duration": 4, "velocity": 68}, {"time": 3162, "pitch": 50, "duration": 33, "velocity": 99}, {"time": 3162, "pitch": 62, "duration": 12, "velocity": 84}, {"time": 3162, "pitch": 66, "duration": 3, "velocity": 82}, {"time": 3162, "pitch": 71, "duration": 2, "velocity": 90}, {"time": 3174, "pitch": 66, "duration": 5, "velocity": 82}, {"time": 3174, "pitch": 69, "duration": 9, "velocity": 83}, {"time": 3180, "pitch": 62, "duration": 9, "velocity": 91}, {"time": 3186, "pitch": 66, "duration": 7, "velocity": 84}, {"time": 3192, "pitch": 62, "duration": 2, "velocity": 86}, {"time": 3192, "pitch": 68, "duration": 2, "velocity": 83}, {"time": 3204, "pitch": 49, "duration": 4, "velocity": 84}, {"time": 3204, "pitch": 61, "duration": 4, "velocity": 77}, {"time": 3204, "pitch": 65, "duration": 3, "velocity": 84}, {"time": 3204, "pitch": 68, "duration": 4, "velocity": 86}, {"time": 3204, "pitch": 73, "duration": 4, "velocity": 86}, {"time": 3210, "pitch": 49, "duration": 3, "velocity": 86}, {"time": 3210, "pitch": 61, "duration": 3, "velocity": 83}, {"time": 3210, "pitch": 65, "duration": 3, "velocity": 78}, {"time": 3210, "pitch": 68, "duration": 3, "velocity": 82}, {"time": 3210, "pitch": 73, "duration": 3, "velocity": 76}, {"time": 3216, "pitch": 49, "duration": 3, "velocity": 93}, {"time": 3216, "pitch": 61, "duration": 3, "velocity": 86}, {"time": 3216, "pitch": 65, "duration": 2, "velocity": 83}, {"time": 3216, "pitch": 68, "duration": 3, "velocity": 84}, {"time": 3216, "pitch": 73, "duration": 3, "velocity": 91}, {"time": 3234, "pitch": 49, "duration": 31, "velocity": 90}, {"time": 3234, "pitch": 61, "duration": 6, "velocity": 86}, {"time": 3234, "pitch": 65, "duration": 10, "velocity": 84}, {"time": 3234, "pitch": 68, "duration": 10, "velocity": 84}, {"time": 3234, "pitch": 73, "duration": 10, "velocity": 86}, {"time": 3246, "pitch": 61, "duration": 7, "velocity": 91}, {"time": 3252, "pitch": 61, "duration": 1, "velocity": 98}, {"time": 3252, "pitch": 65, "duration": 7, "velocity": 82}, {"time": 3252, "pitch": 66, "duration": 8, "velocity": 84}, {"time": 3252, "pitch": 71, "duration": 8, "velocity": 98}, {"time": 3252, "pitch": 73, "duration": 6, "velocity": 80}, {"time": 3264, "pitch": 66, "duration": 4, "velocity": 94}, {"time": 3264, "pitch": 73, "duration": 4, "velocity": 90}, {"time": 3270, "pitch": 47, "duration": 9, "velocity": 86}, {"time": 3270, "pitch": 78, "duration": 9, "velocity": 80}, {"time": 3276, "pitch": 54, "duration": 5, "velocity": 79}, {"time": 3276, "pitch": 66, "duration": 14, "velocity": 60}, {"time": 3282, "pitch": 59, "duration": 7, "velocity": 69}, {"time": 3282, "pitch": 73, "duration": 7, "velocity": 82}, {"time": 3288, "pitch": 61, "duration": 9, "velocity": 79}, {"time": 3288, "pitch": 78, "duration": 9, "velocity": 80}, {"time": 3294, "pitch": 63, "duration": 3, "velocity": 83}, {"time": 3294, "pitch": 66, "duration": 7, "velocity": 71}, {"time": 3300, "pitch": 73, "duration": 8, "velocity": 82}, {"time": 3306, "pitch": 47, "duration": 27, "velocity": 83}, {"time": 3306, "pitch": 77, "duration": 8, "velocity": 84}, {"time": 3312, "pitch": 54, "duration": 23, "velocity": 74}, {"time": 3312, "pitch": 66, "duration": 7, "velocity": 70}, {"time": 3318, "pitch": 73, "duration": 7, "velocity": 83}, {"time": 3324, "pitch": 59, "duration": 8, "velocity": 78}, {"time": 3324, "pitch": 77, "duration": 9, "velocity": 86}, {"time": 3330, "pitch": 68, "duration": 7, "velocity": 59}, {"time": 3336, "pitch": 73, "duration": 8, "velocity": 83}, {"time": 3342, "pitch": 46, "duration": 26, "velocity": 83}, {"time": 3342, "pitch": 77, "duration": 12, "velocity": 95}, {"time": 3348, "pitch": 53, "duration": 20, "velocity": 83}, {"time": 3354, "pitch": 58, "duration": 7, "velocity": 79}, {"time": 3360, "pitch": 68, "duration": 7, "velocity": 75}, {"time": 3360, "pitch": 73, "duration": 9, "velocity": 84}, {"time": 3366, "pitch": 58, "duration": 10, "velocity": 60}, {"time": 3372, "pitch": 73, "duration": 2, "velocity": 34}, {"time": 3372, "pitch": 77, "duration": 2, "velocity": 79}, {"time": 3378, "pitch": 51, "duration": 27, "velocity": 79}, {"time": 3378, "pitch": 66, "duration": 8, "velocity": 72}, {"time": 3378, "pitch": 70, "duration": 8, "velocity": 83}, {"time": 3378, "pitch": 73, "duration": 10, "velocity": 84}, {"time": 3384, "pitch": 58, "duration": 20, "velocity": 75}, {"time": 3390, "pitch": 66, "duration": 8, "velocity": 74}, {"time": 3390, "pitch": 70, "duration": 3, "velocity": 73}, {"time": 3390, "pitch": 78, "duration": 7, "velocity": 81}, {"time": 3396, "pitch": 63, "duration": 7, "velocity": 62}, {"time": 3402, "pitch": 66, "duration": 3, "velocity": 76}, {"time": 3402, "pitch": 77, "duration": 2, "velocity": 84}, {"time": 3408, "pitch": 75, "duration": 5, "velocity": 78}, {"time": 3414, "pitch": 44, "duration": 27, "velocity": 82}, {"time": 3414, "pitch": 66, "duration": 8, "velocity": 56}, {"time": 3414, "pitch": 73, "duration": 7, "velocity": 81}, {"time": 3420, "pitch": 51, "duration": 20, "velocity": 78}, {"time": 3426, "pitch": 56, "duration": 7, "velocity": 73}, {"time": 3432, "pitch": 59, "duration": 7, "velocity": 80}, {"time": 3432, "pitch": 63, "duration": 7, "velocity": 79}, {"time": 3432, "pitch": 66, "duration": 7, "velocity": 83}, {"time": 3438, "pitch": 56, "duration": 10, "velocity": 74}, {"time": 3444, "pitch": 66, "duration": 5, "velocity": 78}, {"time": 3450, "pitch": 49, "duration": 27, "velocity": 80}, {"time": 3450, "pitch": 61, "duration": 8, "velocity": 79}, {"time": 3450, "pitch": 65, "duration": 10, "velocity": 84}, {"time": 3456, "pitch": 56, "duration": 19, "velocity": 71}, {"time": 3462, "pitch": 61, "duration": 1, "velocity": 75}, {"time": 3462, "pitch": 63, "duration": 1, "velocity": 78}, {"time": 3462, "pitch": 66, "duration": 1, "velocity": 77}, {"time": 3462, "pitch": 68, "duration": 2, "velocity": 81}, {"time": 3474, "pitch": 61, "duration": 7, "velocity": 78}, {"time": 3474, "pitch": 65, "duration": 4, "velocity": 76}, {"time": 3474, "pitch": 71, "duration": 6, "velocity": 90}, {"time": 3480, "pitch": 68, "duration": 5, "velocity": 77}, {"time": 3486, "pitch": 42, "duration": 11, "velocity": 80}, {"time": 3486, "pitch": 61, "duration": 24, "velocity": 78}, {"time": 3486, "pitch": 66, "duration": 22, "velocity": 80}, {"time": 3486, "pitch": 70, "duration": 22, "velocity": 83}, {"time": 3492, "pitch": 49, "duration": 6, "velocity": 80}, {"time": 3498, "pitch": 54, "duration": 8, "velocity": 76}, {"time": 3504, "pitch": 56, "duration": 8, "velocity": 78}, {"time": 3510, "pitch": 58, "duration": 3, "velocity": 91}, {"time": 3516, "pitch": 70, "duration": 4, "velocity": 83}, {"time": 3522, "pitch": 42, "duration": 11, "velocity": 81}, {"time": 3522, "pitch": 61, "duration": 9, "velocity": 82}, {"time": 3522, "pitch": 64, "duration": 10, "velocity": 90}, {"time": 3522, "pitch": 68, "duration": 10, "velocity": 82}, {"time": 3528, "pitch": 49, "duration": 6, "velocity": 78}, {"time": 3534, "pitch": 52, "duration": 7, "velocity": 69}, {"time": 3534, "pitch": 61, "duration": 6, "velocity": 83}, {"time": 3534, "pitch": 64, "duration": 1, "velocity": 59}, {"time": 3534, "pitch": 70, "duration": 6, "velocity": 90}, {"time": 3540, "pitch": 54, "duration": 13, "velocity": 75}, {"time": 3546, "pitch": 63, "duration": 3, "velocity": 80}, {"time": 3546, "pitch": 71, "duration": 3, "velocity": 90}, {"time": 3552, "pitch": 56, "duration": 2, "velocity": 78}, {"time": 3552, "pitch": 64, "duration": 2, "velocity": 72}, {"time": 3552, "pitch": 73, "duration": 3, "velocity": 83}, {"time": 3558, "pitch": 47, "duration": 30, "velocity": 82}, {"time": 3558, "pitch": 66, "duration": 13, "velocity": 74}, {"time": 3558, "pitch": 75, "duration": 9, "velocity": 83}, {"time": 3564, "pitch": 54, "duration": 21, "velocity": 78}, {"time": 3570, "pitch": 59, "duration": 7, "velocity": 81}, {"time": 3576, "pitch": 63, "duration": 7, "velocity": 72}, {"time": 3576, "pitch": 66, "duration": 8, "velocity": 73}, {"time": 3576, "pitch": 71, "duration": 8, "velocity": 83}, {"time": 3582, "pitch": 59, "duration": 6, "velocity": 78}, {"time": 3588, "pitch": 68, "duration": 3, "velocity": 79}, {"time": 3594, "pitch": 47, "duration": 27, "velocity": 80}, {"time": 3594, "pitch": 61, "duration": 12, "velocity": 75}, {"time": 3594, "pitch": 65, "duration": 12, "velocity": 79}, {"time": 3594, "pitch": 68, "duration": 12, "velocity": 79}, {"time": 3606, "pitch": 56, "duration": 15, "velocity": 78}, {"time": 3612, "pitch": 61, "duration": 6, "velocity": 82}, {"time": 3612, "pitch": 65, "duration": 5, "velocity": 84}, {"time": 3612, "pitch": 68, "duration": 7, "velocity": 82}, {"time": 3618, "pitch": 58, "duration": 3, "velocity": 76}, {"time": 3618, "pitch": 66, "duration": 5, "velocity": 58}, {"time": 3624, "pitch": 68, "duration": 5, "velocity": 78}, {"time": 3630, "pitch": 46, "duration": 25, "velocity": 84}, {"time": 3630, "pitch": 61, "duration": 8, "velocity": 78}, {"time": 3630, "pitch": 65, "duration": 8, "velocity": 94}, {"time": 3636, "pitch": 58, "duration": 7, "velocity": 68}, {"time": 3642, "pitch": 61, "duration": 8, "velocity": 83}, {"time": 3642, "pitch": 65, "duration": 7, "velocity": 75}, {"time": 3642, "pitch": 73, "duration": 9, "velocity": 90}, {"time": 3648, "pitch": 58, "duration": 9, "velocity": 69}, {"time": 3654, "pitch": 68, "duration": 5, "velocity": 78}, {"time": 3660, "pitch": 70, "duration": 5, "velocity": 82}, {"time": 3666, "pitch": 45, "duration": 30, "velocity": 81}, {"time": 3666, "pitch": 60, "duration": 12, "velocity": 82}, {"time": 3666, "pitch": 66, "duration": 12, "velocity": 75}, {"time": 3678, "pitch": 57, "duration": 13, "velocity": 71}, {"time": 3684, "pitch": 60, "duration": 10, "velocity": 81}, {"time": 3690, "pitch": 66, "duration": 6, "velocity": 81}, {"time": 3702, "pitch": 44, "duration": 26, "velocity": 76}, {"time": 3702, "pitch": 56, "duration": 8, "velocity": 69}, {"time": 3702, "pitch": 59, "duration": 12, "velocity": 80}, {"time": 3702, "pitch": 63, "duration": 12, "velocity": 81}, {"time": 3708, "pitch": 51, "duration": 19, "velocity": 78}, {"time": 3714, "pitch": 56, "duration": 22, "velocity": 68}, {"time": 3720, "pitch": 59, "duration": 8, "velocity": 76}, {"time": 3726, "pitch": 63, "duration": 9, "velocity": 75}, {"time": 3732, "pitch": 66, "duration": 6, "velocity": 75}, {"time": 3738, "pitch": 49, "duration": 4, "velocity": 90}, {"time": 3738, "pitch": 61, "duration": 3, "velocity": 86}, {"time": 3738, "pitch": 65, "duration": 4, "velocity": 90}, {"time": 3738, "pitch": 68, "duration": 4, "velocity": 90}, {"time": 3738, "pitch": 73, "duration": 3, "velocity": 94}, {"time": 3744, "pitch": 49, "duration": 4, "velocity": 90}, {"time": 3744, "pitch": 61, "duration": 4, "velocity": 84}, {"time": 3744, "pitch": 65, "duration": 3, "velocity": 82}, {"time": 3744, "pitch": 68, "duration": 4, "velocity": 84}, {"time": 3744, "pitch": 73, "duration": 4, "velocity": 84}, {"time": 3774, "pitch": 47, "duration": 14, "velocity": 76}, {"time": 3780, "pitch": 63, "duration": 2, "velocity": 53}, {"time": 3780, "pitch": 66, "duration": 2, "velocity": 69}, {"time": 3780, "pitch": 70, "duration": 3, "velocity": 62}, {"time": 3786, "pitch": 63, "duration": 6, "velocity": 57}, {"time": 3786, "pitch": 66, "duration": 6, "velocity": 73}, {"time": 3786, "pitch": 70, "duration": 6, "velocity": 57}, {"time": 3792, "pitch": 47, "duration": 15, "velocity": 76}, {"time": 3798, "pitch": 63, "duration": 2, "velocity": 55}, {"time": 3798, "pitch": 66, "duration": 2, "velocity": 69}, {"time": 3798, "pitch": 70, "duration": 3, "velocity": 59}, {"time": 3804, "pitch": 63, "duration": 7, "velocity": 63}, {"time": 3804, "pitch": 66, "duration": 6, "velocity": 70}, {"time": 3804, "pitch": 70, "duration": 8, "velocity": 69}, {"time": 3810, "pitch": 49, "duration": 14, "velocity": 83}, {"time": 3816, "pitch": 61, "duration": 2, "velocity": 58}, {"time": 3816, "pitch": 65, "duration": 2, "velocity": 60}, {"time": 3816, "pitch": 68, "duration": 3, "velocity": 71}, {"time": 3822, "pitch": 61, "duration": 6, "velocity": 63}, {"time": 3822, "pitch": 65, "duration": 7, "velocity": 74}, {"time": 3822, "pitch": 68, "duration": 7, "velocity": 76}, {"time": 3828, "pitch": 49, "duration": 12, "velocity": 79}, {"time": 3834, "pitch": 61, "duration": 2, "velocity": 62}, {"time": 3834, "pitch": 65, "duration": 2, "velocity": 71}, {"time": 3834, "pitch": 68, "duration": 3, "velocity": 75}, {"time": 3840, "pitch": 61, "duration": 3, "velocity": 59}, {"time": 3840, "pitch": 65, "duration": 3, "velocity": 75}, {"time": 3840, "pitch": 68, "duration": 4, "velocity": 68}, {"time": 3846, "pitch": 54, "duration": 15, "velocity": 78}, {"time": 3852, "pitch": 61, "duration": 2, "velocity": 58}, {"time": 3852, "pitch": 66, "duration": 2, "velocity": 69}, {"time": 3852, "pitch": 70, "duration": 3, "velocity": 69}, {"time": 3858, "pitch": 61, "duration": 7, "velocity": 58}, {"time": 3858, "pitch": 66, "duration": 7, "velocity": 75}, {"time": 3858, "pitch": 70, "duration": 7, "velocity": 63}, {"time": 3864, "pitch": 54, "duration": 14, "velocity": 71}, {"time": 3870, "pitch": 61, "duration": 2, "velocity": 53}, {"time": 3870, "pitch": 66, "duration": 2, "velocity": 63}, {"time": 3870, "pitch": 70, "duration": 2, "velocity": 55}, {"time": 3876, "pitch": 61, "duration": 2, "velocity": 69}, {"time": 3876, "pitch": 66, "duration": 3, "velocity": 76}, {"time": 3876, "pitch": 70, "duration": 3, "velocity": 71}, {"time": 3882, "pitch": 47, "duration": 15, "velocity": 81}, {"time": 3888, "pitch": 63, "duration": 2, "velocity": 59}, {"time": 3888, "pitch": 66, "duration": 2, "velocity": 73}, {"time": 3888, "pitch": 71, "duration": 2, "velocity": 75}, {"time": 3894, "pitch": 63, "duration": 6, "velocity": 61}, {"time": 3894, "pitch": 66, "duration": 6, "velocity": 77}, {"time": 3894, "pitch": 71, "duration": 6, "velocity": 78}, {"time": 3900, "pitch": 47, "duration": 13, "velocity": 76}, {"time": 3906, "pitch": 63, "duration": 2, "velocity": 56}, {"time": 3906, "pitch": 66, "duration": 2, "velocity": 73}, {"time": 3906, "pitch": 71, "duration": 2, "velocity": 77}, {"time": 3912, "pitch": 63, "duration": 3, "velocity": 58}, {"time": 3912, "pitch": 66, "duration": 2, "velocity": 76}, {"time": 3912, "pitch": 71, "duration": 3, "velocity": 74}, {"time": 3918, "pitch": 53, "duration": 15, "velocity": 76}, {"time": 3924, "pitch": 63, "duration": 2, "velocity": 59}, {"time": 3924, "pitch": 68, "duration": 3, "velocity": 63}, {"time": 3924, "pitch": 71, "duration": 2, "velocity": 72}, {"time": 3930, "pitch": 63, "duration": 6, "velocity": 71}, {"time": 3930, "pitch": 68, "duration": 6, "velocity": 75}, {"time": 3930, "pitch": 71, "duration": 6, "velocity": 77}, {"time": 3936, "pitch": 53, "duration": 13, "velocity": 76}, {"time": 3942, "pitch": 63, "duration": 2, "velocity": 61}, {"time": 3942, "pitch": 68, "duration": 3, "velocity": 54}, {"time": 3948, "pitch": 63, "duration": 5, "velocity": 70}, {"time": 3948, "pitch": 68, "duration": 5, "velocity": 76}, {"time": 3948, "pitch": 71, "duration": 2, "velocity": 71}, {"time": 3954, "pitch": 46, "duration": 13, "velocity": 59}, {"time": 3960, "pitch": 65, "duration": 3, "velocity": 69}, {"time": 3960, "pitch": 70, "duration": 2, "velocity": 72}, {"time": 3966, "pitch": 62, "duration": 6, "velocity": 77}, {"time": 3966, "pitch": 65, "duration": 6, "velocity": 79}, {"time": 3966, "pitch": 70, "duration": 7, "velocity": 74}, {"time": 3972, "pitch": 46, "duration": 13, "velocity": 73}, {"time": 3978, "pitch": 62, "duration": 3, "velocity": 69}, {"time": 3978, "pitch": 65, "duration": 3, "velocity": 58}, {"time": 3978, "pitch": 70, "duration": 4, "velocity": 52}, {"time": 3984, "pitch": 62, "duration": 2, "velocity": 76}, {"time": 3984, "pitch": 65, "duration": 3, "velocity": 77}, {"time": 3984, "pitch": 70, "duration": 3, "velocity": 78}, {"time": 3990, "pitch": 51, "duration": 13, "velocity": 78}, {"time": 3996, "pitch": 63, "duration": 2, "velocity": 70}, {"time": 3996, "pitch": 66, "duration": 2, "velocity": 76}, {"time": 3996, "pitch": 70, "duration": 2, "velocity": 61}, {"time": 4002, "pitch": 63, "duration": 5, "velocity": 76}, {"time": 4002, "pitch": 66, "duration": 6, "velocity": 82}, {"time": 4002, "pitch": 70, "duration": 6, "velocity": 75}, {"time": 4008, "pitch": 53, "duration": 15, "velocity": 79}, {"time": 4014, "pitch": 61, "duration": 2, "velocity": 62}, {"time": 4014, "pitch": 66, "duration": 3, "velocity": 76}, {"time": 4014, "pitch": 70, "duration": 2, "velocity": 71}, {"time": 4020, "pitch": 61, "duration": 6, "velocity": 78}, {"time": 4020, "pitch": 66, "duration": 5, "velocity": 80}, {"time": 4020, "pitch": 70, "duration": 7, "velocity": 78}, {"time": 4026, "pitch": 54, "duration": 9, "velocity": 81}, {"time": 4032, "pitch": 61, "duration": 2, "velocity": 69}, {"time": 4032, "pitch": 66, "duration": 2, "velocity": 69}, {"time": 4032, "pitch": 70, "duration": 3, "velocity": 68}, {"time": 4038, "pitch": 61, "duration": 8, "velocity": 74}, {"time": 4038, "pitch": 66, "duration": 5, "velocity": 75}, {"time": 4038, "pitch": 70, "duration": 8, "velocity": 77}, {"time": 4044, "pitch": 43, "duration": 3, "velocity": 81}, {"time": 4044, "pitch": 55, "duration": 3, "velocity": 81}, {"time": 4050, "pitch": 44, "duration": 3, "velocity": 81}, {"time": 4050, "pitch": 56, "duration": 3, "velocity": 81}, {"time": 4050, "pitch": 61, "duration": 2, "velocity": 77}, {"time": 4050, "pitch": 67, "duration": 3, "velocity": 69}, {"time": 4050, "pitch": 70, "duration": 3, "velocity": 73}, {"time": 4056, "pitch": 46, "duration": 3, "velocity": 81}, {"time": 4056, "pitch": 58, "duration": 3, "velocity": 81}, {"time": 4056, "pitch": 61, "duration": 2, "velocity": 72}, {"time": 4056, "pitch": 67, "duration": 2, "velocity": 78}, {"time": 4056, "pitch": 70, "duration": 3, "velocity": 72}, {"time": 4062, "pitch": 44, "duration": 3, "velocity": 81}, {"time": 4062, "pitch": 56, "duration": 3, "velocity": 81}, {"time": 4062, "pitch": 63, "duration": 5, "velocity": 71}, {"time": 4062, "pitch": 66, "duration": 5, "velocity": 83}, {"time": 4062, "pitch": 71, "duration": 5, "velocity": 84}, {"time": 4080, "pitch": 44, "duration": 3, "velocity": 83}, {"time": 4080, "pitch": 56, "duration": 4, "velocity": 79}, {"time": 4080, "pitch": 63, "duration": 3, "velocity": 78}, {"time": 4080, "pitch": 66, "duration": 3, "velocity": 83}, {"time": 4080, "pitch": 71, "duration": 3, "velocity": 86}, {"time": 4086, "pitch": 46, "duration": 2, "velocity": 90}, {"time": 4086, "pitch": 58, "duration": 3, "velocity": 86}, {"time": 4086, "pitch": 66, "duration": 2, "velocity": 86}, {"time": 4086, "pitch": 73, "duration": 3, "velocity": 99}, {"time": 4092, "pitch": 47, "duration": 3, "velocity": 94}, {"time": 4092, "pitch": 59, "duration": 2, "velocity": 75}, {"time": 4092, "pitch": 71, "duration": 1, "velocity": 57}, {"time": 4092, "pitch": 75, "duration": 3, "velocity": 93}, {"time": 4098, "pitch": 49, "duration": 8, "velocity": 98}, {"time": 4098, "pitch": 61, "duration": 8, "velocity": 84}, {"time": 4098, "pitch": 73, "duration": 8, "velocity": 90}, {"time": 4098, "pitch": 77, "duration": 9, "velocity": 86}, {"time": 4116, "pitch": 49, "duration": 3, "velocity": 90}, {"time": 4116, "pitch": 61, "duration": 3, "velocity": 86}, {"time": 4116, "pitch": 68, "duration": 3, "velocity": 83}, {"time": 4116, "pitch": 73, "duration": 1, "velocity": 72}, {"time": 4116, "pitch": 77, "duration": 4, "velocity": 90}, {"time": 4122, "pitch": 51, "duration": 3, "velocity": 82}, {"time": 4122, "pitch": 63, "duration": 2, "velocity": 76}, {"time": 4122, "pitch": 73, "duration": 3, "velocity": 82}, {"time": 4122, "pitch": 78, "duration": 3, "velocity": 90}, {"time": 4128, "pitch": 49, "duration": 2, "velocity": 95}, {"time": 4128, "pitch": 61, "duration": 1, "velocity": 52}, {"time": 4128, "pitch": 80, "duration": 4, "velocity": 86}, {"time": 4134, "pitch": 46, "duration": 28, "velocity": 93}, {"time": 4134, "pitch": 58, "duration": 6, "velocity": 94}, {"time": 4134, "pitch": 68, "duration": 12, "velocity": 93}, {"time": 4134, "pitch": 73, "duration": 13, "velocity": 94}, {"time": 4134, "pitch": 80, "duration": 7, "velocity": 54}, {"time": 4146, "pitch": 58, "duration": 7, "velocity": 76}, {"time": 4152, "pitch": 68, "duration": 8, "velocity": 86}, {"time": 4152, "pitch": 75, "duration": 10, "velocity": 90}, {"time": 4158, "pitch": 58, "duration": 11, "velocity": 78}, {"time": 4164, "pitch": 77, "duration": 5, "velocity": 83}, {"time": 4170, "pitch": 51, "duration": 31, "velocity": 90}, {"time": 4170, "pitch": 70, "duration": 6, "velocity": 82}, {"time": 4170, "pitch": 75, "duration": 5, "velocity": 93}, {"time": 4176, "pitch": 58, "duration": 20, "velocity": 76}, {"time": 4182, "pitch": 63, "duration": 7, "velocity": 90}, {"time": 4188, "pitch": 67, "duration": 9, "velocity": 101}, {"time": 4188, "pitch": 75, "duration": 8, "velocity": 98}, {"time": 4194, "pitch": 63, "duration": 5, "velocity": 93}, {"time": 4200, "pitch": 58, "duration": 1, "velocity": 79}, {"time": 4206, "pitch": 44, "duration": 32, "velocity": 96}, {"time": 4206, "pitch": 63, "duration": 8, "velocity": 84}, {"time": 4206, "pitch": 66, "duration": 7, "velocity": 90}, {"time": 4206, "pitch": 71, "duration": 6, "velocity": 98}, {"time": 4212, "pitch": 56, "duration": 13, "velocity": 81}, {"time": 4218, "pitch": 63, "duration": 3, "velocity": 79}, {"time": 4224, "pitch": 63, "duration": 2, "velocity": 84}, {"time": 4224, "pitch": 70, "duration": 3, "velocity": 86}, {"time": 4230, "pitch": 63, "duration": 4, "velocity": 76}, {"time": 4230, "pitch": 66, "duration": 3, "velocity": 78}, {"time": 4230, "pitch": 71, "duration": 4, "velocity": 86}, {"time": 4236, "pitch": 56, "duration": 5, "velocity": 90}, {"time": 4239, "pitch": 46, "duration": 4, "velocity": 83}, {"time": 4242, "pitch": 47, "duration": 25, "velocity": 94}, {"time": 4242, "pitch": 61, "duration": 8, "velocity": 84}, {"time": 4242, "pitch": 66, "duration": 11, "velocity": 84}, {"time": 4242, "pitch": 70, "duration": 7, "velocity": 84}, {"time": 4254, "pitch": 59, "duration": 7, "velocity": 84}, {"time": 4260, "pitch": 63, "duration": 11, "velocity": 90}, {"time": 4260, "pitch": 66, "duration": 11, "velocity": 94}, {"time": 4260, "pitch": 71, "duration": 10, "velocity": 98}, {"time": 4266, "pitch": 59, "duration": 2, "velocity": 98}, {"time": 4272, "pitch": 48, "duration": 3, "velocity": 101}, {"time": 4278, "pitch": 49, "duration": 4, "velocity": 90}, {"time": 4278, "pitch": 61, "duration": 4, "velocity": 84}, {"time": 4278, "pitch": 65, "duration": 3, "velocity": 78}, {"time": 4278, "pitch": 68, "duration": 3, "velocity": 84}, {"time": 4278, "pitch": 73, "duration": 3, "velocity": 90}, {"time": 4284, "pitch": 49, "duration": 3, "velocity": 86}, {"time": 4284, "pitch": 61, "duration": 3, "velocity": 78}, {"time": 4284, "pitch": 65, "duration": 3, "velocity": 79}, {"time": 4284, "pitch": 68, "duration": 3, "velocity": 82}, {"time": 4284, "pitch": 73, "duration": 3, "velocity": 82}, {"time": 4290, "pitch": 49, "duration": 3, "velocity": 84}, {"time": 4290, "pitch": 61, "duration": 3, "velocity": 84}, {"time": 4290, "pitch": 65, "duration": 3, "velocity": 81}, {"time": 4290, "pitch": 68, "duration": 3, "velocity": 83}, {"time": 4290, "pitch": 73, "duration": 3, "velocity": 84}, {"time": 4296, "pitch": 49, "duration": 2, "velocity": 96}, {"time": 4296, "pitch": 61, "duration": 2, "velocity": 94}, {"time": 4296, "pitch": 65, "duration": 3, "velocity": 82}, {"time": 4296, "pitch": 68, "duration": 3, "velocity": 84}, {"time": 4296, "pitch": 73, "duration": 3, "velocity": 90}, {"time": 4314, "pitch": 50, "duration": 14, "velocity": 86}, {"time": 4314, "pitch": 62, "duration": 14, "velocity": 95}, {"time": 4314, "pitch": 66, "duration": 14, "velocity": 90}, {"time": 4314, "pitch": 69, "duration": 14, "velocity": 94}, {"time": 4314, "pitch": 74, "duration": 13, "velocity": 96}, {"time": 4332, "pitch": 50, "duration": 4, "velocity": 84}, {"time": 4332, "pitch": 62, "duration": 3, "velocity": 90}, {"time": 4332, "pitch": 66, "duration": 2, "velocity": 86}, {"time": 4332, "pitch": 69, "duration": 3, "velocity": 94}, {"time": 4332, "pitch": 74, "duration": 3, "velocity": 93}, {"time": 4338, "pitch": 52, "duration": 5, "velocity": 84}, {"time": 4338, "pitch": 67, "duration": 3, "velocity": 79}, {"time": 4338, "pitch": 71, "duration": 4, "velocity": 84}, {"time": 4344, "pitch": 54, "duration": 2, "velocity": 98}, {"time": 4344, "pitch": 69, "duration": 2, "velocity": 94}, {"time": 4344, "pitch": 73, "duration": 2, "velocity": 95}, {"time": 4368, "pitch": 48, "duration": 5, "velocity": 98}, {"time": 4368, "pitch": 60, "duration": 4, "velocity": 86}, {"time": 4368, "pitch": 64, "duration": 4, "velocity": 83}, {"time": 4368, "pitch": 71, "duration": 5, "velocity": 84}, {"time": 4374, "pitch": 48, "duration": 6, "velocity": 98}, {"time": 4374, "pitch": 60, "duration": 6, "velocity": 94}, {"time": 4374, "pitch": 64, "duration": 6, "velocity": 84}, {"time": 4374, "pitch": 67, "duration": 6, "velocity": 93}, {"time": 4386, "pitch": 48, "duration": 13, "velocity": 99}, {"time": 4386, "pitch": 64, "duration": 8, "velocity": 80}, {"time": 4386, "pitch": 67, "duration": 8, "velocity": 82}, {"time": 4386, "pitch": 72, "duration": 7, "velocity": 86}, {"time": 4392, "pitch": 60, "duration": 7, "velocity": 94}, {"time": 4398, "pitch": 64, "duration": 2, "velocity": 84}, {"time": 4398, "pitch": 72, "duration": 2, "velocity": 84}, {"time": 4404, "pitch": 50, "duration": 35, "velocity": 99}, {"time": 4404, "pitch": 62, "duration": 14, "velocity": 90}, {"time": 4404, "pitch": 66, "duration": 13, "velocity": 86}, {"time": 4404, "pitch": 69, "duration": 14, "velocity": 83}, {"time": 4404, "pitch": 74, "duration": 13, "velocity": 79}, {"time": 4416, "pitch": 57, "duration": 8, "velocity": 82}, {"time": 4422, "pitch": 62, "duration": 7, "velocity": 100}, {"time": 4422, "pitch": 66, "duration": 7, "velocity": 86}, {"time": 4422, "pitch": 69, "duration": 7, "velocity": 90}, {"time": 4422, "pitch": 74, "duration": 7, "velocity": 84}, {"time": 4428, "pitch": 57, "duration": 11, "velocity": 83}, {"time": 4434, "pitch": 62, "duration": 4, "velocity": 96}, {"time": 4434, "pitch": 66, "duration": 4, "velocity": 83}, {"time": 4434, "pitch": 69, "duration": 5, "velocity": 90}, {"time": 4434, "pitch": 74, "duration": 4, "velocity": 90}, {"time": 4440, "pitch": 50, "duration": 3, "velocity": 86}, {"time": 4440, "pitch": 62, "duration": 2, "velocity": 80}, {"time": 4440, "pitch": 66, "duration": 3, "velocity": 83}, {"time": 4440, "pitch": 69, "duration": 3, "velocity": 84}, {"time": 4440, "pitch": 74, "duration": 3, "velocity": 90}, {"time": 4446, "pitch": 50, "duration": 3, "velocity": 96}, {"time": 4446, "pitch": 62, "duration": 3, "velocity": 96}, {"time": 4446, "pitch": 66, "duration": 3, "velocity": 83}, {"time": 4446, "pitch": 69, "duration": 3, "velocity": 84}, {"time": 4446, "pitch": 74, "duration": 4, "velocity": 90}, {"time": 4464, "pitch": 50, "duration": 7, "velocity": 86}, {"time": 4464, "pitch": 66, "duration": 9, "velocity": 84}, {"time": 4464, "pitch": 69, "duration": 8, "velocity": 90}, {"time": 4464, "pitch": 74, "duration": 9, "velocity": 86}, {"time": 4470, "pitch": 62, "duration": 2, "velocity": 94}, {"time": 4476, "pitch": 52, "duration": 26, "velocity": 86}, {"time": 4476, "pitch": 64, "duration": 13, "velocity": 80}, {"time": 4476, "pitch": 68, "duration": 10, "velocity": 86}, {"time": 4476, "pitch": 71, "duration": 10, "velocity": 82}, {"time": 4476, "pitch": 74, "duration": 12, "velocity": 86}, {"time": 4488, "pitch": 59, "duration": 8, "velocity": 79}, {"time": 4494, "pitch": 64, "duration": 8, "velocity": 84}, {"time": 4494, "pitch": 68, "duration": 7, "velocity": 84}, {"time": 4494, "pitch": 74, "duration": 9, "velocity": 91}, {"time": 4500, "pitch": 59, "duration": 3, "velocity": 77}, {"time": 4506, "pitch": 64, "duration": 3, "velocity": 78}, {"time": 4512, "pitch": 45, "duration": 34, "velocity": 90}, {"time": 4512, "pitch": 64, "duration": 9, "velocity": 83}, {"time": 4512, "pitch": 67, "duration": 8, "velocity": 90}, {"time": 4512, "pitch": 72, "duration": 7, "velocity": 91}, {"time": 4518, "pitch": 57, "duration": 9, "velocity": 78}, {"time": 4524, "pitch": 64, "duration": 3, "velocity": 78}, {"time": 4524, "pitch": 71, "duration": 4, "velocity": 80}, {"time": 4530, "pitch": 64, "duration": 7, "velocity": 80}, {"time": 4530, "pitch": 67, "duration": 7, "velocity": 84}, {"time": 4530, "pitch": 72, "duration": 7, "velocity": 84}, {"time": 4536, "pitch": 57, "duration": 10, "velocity": 79}, {"time": 4542, "pitch": 64, "duration": 3, "velocity": 91}, {"time": 4542, "pitch": 74, "duration": 3, "velocity": 84}, {"time": 4548, "pitch": 50, "duration": 6, "velocity": 96}, {"time": 4548, "pitch": 66, "duration": 6, "velocity": 94}, {"time": 4548, "pitch": 69, "duration": 6, "velocity": 86}, {"time": 4548, "pitch": 72, "duration": 5, "velocity": 72}, {"time": 4548, "pitch": 74, "duration": 6, "velocity": 93}, {"time": 4566, "pitch": 50, "duration": 8, "velocity": 86}, {"time": 4566, "pitch": 66, "duration": 7, "velocity": 84}, {"time": 4566, "pitch": 69, "duration": 7, "velocity": 86}, {"time": 4566, "pitch": 74, "duration": 6, "velocity": 83}, {"time": 4572, "pitch": 62, "duration": 3, "velocity": 90}, {"time": 4584, "pitch": 52, "duration": 11, "velocity": 90}, {"time": 4584, "pitch": 64, "duration": 10, "velocity": 84}, {"time": 4584, "pitch": 67, "duration": 11, "velocity": 91}, {"time": 4584, "pitch": 72, "duration": 9, "velocity": 84}, {"time": 4602, "pitch": 51, "duration": 9, "velocity": 99}, {"time": 4602, "pitch": 62, "duration": 9, "velocity": 84}, {"time": 4602, "pitch": 67, "duration": 11, "velocity": 96}, {"time": 4620, "pitch": 50, "duration": 8, "velocity": 96}, {"time": 4620, "pitch": 66, "duration": 8, "velocity": 91}, {"time": 4620, "pitch": 69, "duration": 8, "velocity": 93}, {"time": 4626, "pitch": 62, "duration": 3, "velocity": 76}, {"time": 4632, "pitch": 64, "duration": 3, "velocity": 73}, {"time": 4638, "pitch": 49, "duration": 8, "velocity": 100}, {"time": 4638, "pitch": 64, "duration": 7, "velocity": 86}, {"time": 4638, "pitch": 67, "duration": 7, "velocity": 95}, {"time": 4638, "pitch": 72, "duration": 5, "velocity": 91}, {"time": 4644, "pitch": 61, "duration": 2, "velocity": 90}, {"time": 4650, "pitch": 64, "duration": 3, "velocity": 83}, {"time": 4656, "pitch": 48, "duration": 28, "velocity": 95}, {"time": 4656, "pitch": 64, "duration": 11, "velocity": 86}, {"time": 4656, "pitch": 67, "duration": 12, "velocity": 91}, {"time": 4656, "pitch": 72, "duration": 9, "velocity": 83}, {"time": 4668, "pitch": 60, "duration": 7, "velocity": 84}, {"time": 4674, "pitch": 64, "duration": 8, "velocity": 82}, {"time": 4674, "pitch": 67, "duration": 8, "velocity": 86}, {"time": 4674, "pitch": 72, "duration": 7, "velocity": 77}, {"time": 4680, "pitch": 60, "duration": 3, "velocity": 86}, {"time": 4686, "pitch": 64, "duration": 2, "velocity": 75}, {"time": 4692, "pitch": 50, "duration": 27, "velocity": 86}, {"time": 4692, "pitch": 62, "duration": 7, "velocity": 95}, {"time": 4692, "pitch": 67, "duration": 9, "velocity": 82}, {"time": 4692, "pitch": 69, "duration": 12, "velocity": 83}, {"time": 4692, "pitch": 74, "duration": 10, "velocity": 80}, {"time": 4698, "pitch": 57, "duration": 17, "velocity": 80}, {"time": 4704, "pitch": 62, "duration": 5, "velocity": 86}, {"time": 4710, "pitch": 67, "duration": 8, "velocity": 93}, {"time": 4710, "pitch": 74, "duration": 7, "velocity": 90}, {"time": 4716, "pitch": 57, "duration": 3, "velocity": 49}, {"time": 4716, "pitch": 62, "duration": 2, "velocity": 93}, {"time": 4722, "pitch": 67, "duration": 1, "velocity": 69}, {"time": 4722, "pitch": 72, "duration": 2, "velocity": 84}, {"time": 4728, "pitch": 47, "duration": 32, "velocity": 84}, {"time": 4728, "pitch": 62, "duration": 7, "velocity": 81}, {"time": 4728, "pitch": 66, "duration": 7, "velocity": 83}, {"time": 4728, "pitch": 69, "duration": 7, "velocity": 81}, {"time": 4728, "pitch": 74, "duration": 6, "velocity": 71}, {"time": 4734, "pitch": 59, "duration": 13, "velocity": 71}, {"time": 4740, "pitch": 62, "duration": 3, "velocity": 77}, {"time": 4746, "pitch": 62, "duration": 8, "velocity": 81}, {"time": 4746, "pitch": 69, "duration": 10, "velocity": 84}, {"time": 4752, "pitch": 59, "duration": 7, "velocity": 86}, {"time": 4758, "pitch": 62, "duration": 4, "velocity": 84}, {"time": 4758, "pitch": 74, "duration": 4, "velocity": 84}, {"time": 4782, "pitch": 52, "duration": 12, "velocity": 90}, {"time": 4782, "pitch": 62, "duration": 10, "velocity": 90}, {"time": 4782, "pitch": 67, "duration": 10, "velocity": 86}, {"time": 4782, "pitch": 71, "duration": 9, "velocity": 82}, {"time": 4788, "pitch": 59, "duration": 5, "velocity": 80}, {"time": 4794, "pitch": 69, "duration": 3, "velocity": 79}, {"time": 4800, "pitch": 45, "duration": 8, "velocity": 90}, {"time": 4800, "pitch": 64, "duration": 7, "velocity": 84}, {"time": 4800, "pitch": 67, "duration": 7, "velocity": 86}, {"time": 4800, "pitch": 72, "duration": 7, "velocity": 91}, {"time": 4806, "pitch": 57, "duration": 12, "velocity": 79}, {"time": 4812, "pitch": 45, "duration": 12, "velocity": 18}, {"time": 4812, "pitch": 64, "duration": 4, "velocity": 78}, {"time": 4818, "pitch": 64, "duration": 7, "velocity": 74}, {"time": 4818, "pitch": 67, "duration": 8, "velocity": 90}, {"time": 4818, "pitch": 74, "duration": 7, "velocity": 103}, {"time": 4824, "pitch": 57, "duration": 8, "velocity": 83}, {"time": 4830, "pitch": 74, "duration": 3, "velocity": 80}, {"time": 4836, "pitch": 45, "duration": 8, "velocity": 84}, {"time": 4836, "pitch": 57, "duration": 9, "velocity": 76}, {"time": 4836, "pitch": 60, "duration": 8, "velocity": 83}, {"time": 4836, "pitch": 64, "duration": 8, "velocity": 84}, {"time": 4836, "pitch": 67, "duration": 7, "velocity": 81}, {"time": 4854, "pitch": 47, "duration": 8, "velocity": 82}, {"time": 4854, "pitch": 59, "duration": 9, "velocity": 75}, {"time": 4854, "pitch": 63, "duration": 8, "velocity": 86}, {"time": 4854, "pitch": 66, "duration": 8, "velocity": 83}, {"time": 4854, "pitch": 69, "duration": 8, "velocity": 84}, {"time": 4872, "pitch": 52, "duration": 26, "velocity": 90}, {"time": 4872, "pitch": 62, "duration": 13, "velocity": 84}, {"time": 4872, "pitch": 67, "duration": 12, "velocity": 83}, {"time": 4872, "pitch": 71, "duration": 14, "velocity": 79}, {"time": 4872, "pitch": 74, "duration": 13, "velocity": 79}, {"time": 4884, "pitch": 59, "duration": 7, "velocity": 76}, {"time": 4890, "pitch": 50, "duration": 9, "velocity": 84}, {"time": 4890, "pitch": 57, "duration": 10, "velocity": 81}, {"time": 4890, "pitch": 62, "duration": 10, "velocity": 82}, {"time": 4890, "pitch": 66, "duration": 9, "velocity": 84}, {"time": 4890, "pitch": 69, "duration": 12, "velocity": 83}, {"time": 4902, "pitch": 74, "duration": 27, "velocity": 72}, {"time": 4908, "pitch": 49, "duration": 69, "velocity": 84}, {"time": 4908, "pitch": 64, "duration": 15, "velocity": 80}, {"time": 4908, "pitch": 67, "duration": 15, "velocity": 86}, {"time": 4908, "pitch": 71, "duration": 21, "velocity": 81}, {"time": 4920, "pitch": 61, "duration": 53, "velocity": 43}, {"time": 4926, "pitch": 64, "duration": 9, "velocity": 59}, {"time": 4932, "pitch": 67, "duration": 5, "velocity": 73}, {"time": 4938, "pitch": 71, "duration": 2, "velocity": 75}, {"time": 4947, "pitch": 73, "duration": 28, "velocity": 39}, {"time": 4950, "pitch": 85, "duration": 25, "velocity": 68}, {"time": 5208, "pitch": 55, "duration": 47, "velocity": 71}, {"time": 5208, "pitch": 71, "duration": 17, "velocity": 57}, {"time": 5214, "pitch": 62, "duration": 24, "velocity": 59}, {"time": 5223, "pitch": 67, "duration": 10, "velocity": 42}, {"time": 5229, "pitch": 78, "duration": 16, "velocity": 69}, {"time": 5250, "pitch": 62, "duration": 5, "velocity": 14}, {"time": 5253, "pitch": 79, "duration": 3, "velocity": 77}, {"time": 5259, "pitch": 74, "duration": 5, "velocity": 77}, {"time": 5265, "pitch": 52, "duration": 63, "velocity": 73}, {"time": 5265, "pitch": 71, "duration": 19, "velocity": 56}, {"time": 5271, "pitch": 59, "duration": 57, "velocity": 37}, {"time": 5283, "pitch": 78, "duration": 8, "velocity": 76}, {"time": 5289, "pitch": 62, "duration": 13, "velocity": 22}, {"time": 5295, "pitch": 71, "duration": 8, "velocity": 39}, {"time": 5301, "pitch": 74, "duration": 11, "velocity": 54}, {"time": 5313, "pitch": 62, "duration": 13, "velocity": 24}, {"time": 5319, "pitch": 67, "duration": 4, "velocity": 63}, {"time": 5325, "pitch": 69, "duration": 6, "velocity": 71}, {"time": 5331, "pitch": 71, "duration": 5, "velocity": 73}, {"time": 5337, "pitch": 55, "duration": 14, "velocity": 59}, {"time": 5337, "pitch": 62, "duration": 7, "velocity": 61}, {"time": 5337, "pitch": 67, "duration": 7, "velocity": 75}, {"time": 5343, "pitch": 59, "duration": 23, "velocity": 22}, {"time": 5349, "pitch": 62, "duration": 12, "velocity": 59}, {"time": 5355, "pitch": 66, "duration": 6, "velocity": 76}, {"time": 5361, "pitch": 54, "duration": 41, "velocity": 52}, {"time": 5367, "pitch": 69, "duration": 5, "velocity": 61}, {"time": 5373, "pitch": 62, "duration": 13, "velocity": 58}, {"time": 5373, "pitch": 67, "duration": 10, "velocity": 75}, {"time": 5385, "pitch": 59, "duration": 14, "velocity": 34}, {"time": 5394, "pitch": 66, "duration": 3, "velocity": 50}, {"time": 5406, "pitch": 73, "duration": 9, "velocity": 75}, {"time": 5412, "pitch": 48, "duration": 48, "velocity": 60}, {"time": 5418, "pitch": 55, "duration": 41, "velocity": 46}, {"time": 5424, "pitch": 60, "duration": 7, "velocity": 44}, {"time": 5430, "pitch": 78, "duration": 6, "velocity": 76}, {"time": 5436, "pitch": 74, "duration": 5, "velocity": 73}, {"time": 5442, "pitch": 71, "duration": 5, "velocity": 59}, {"time": 5448, "pitch": 60, "duration": 10, "velocity": 39}, {"time": 5448, "pitch": 67, "duration": 11, "velocity": 60}, {"time": 5460, "pitch": 64, "duration": 3, "velocity": 68}, {"time": 5481, "pitch": 43, "duration": 44, "velocity": 62}, {"time": 5481, "pitch": 59, "duration": 13, "velocity": 41}, {"time": 5484, "pitch": 62, "duration": 10, "velocity": 13}, {"time": 5484, "pitch": 66, "duration": 9, "velocity": 53}, {"time": 5487, "pitch": 50, "duration": 35, "velocity": 57}, {"time": 5493, "pitch": 55, "duration": 30, "velocity": 57}, {"time": 5496, "pitch": 59, "duration": 4, "velocity": 53}, {"time": 5499, "pitch": 62, "duration": 4, "velocity": 58}, {"time": 5505, "pitch": 66, "duration": 2, "velocity": 70}, {"time": 5508, "pitch": 67, "duration": 5, "velocity": 62}, {"time": 5511, "pitch": 71, "duration": 9, "velocity": 60}, {"time": 5517, "pitch": 74, "duration": 6, "velocity": 62}, {"time": 5523, "pitch": 78, "duration": 3, "velocity": 57}], "annotations": [{"time": 29, "annotation": {"number": 64, "value": 127}, "group": "control_change"}, {"time": 104, "annotation": {"number": 64, "value": 0}, "group": "control_change"}, {"time": 107, "annotation": {"number": 64, "value": 127}, "group": "control_change"}, {"time": 174, "annotation": {"number": 64, "value": 0}, "group": "control_change"}, {"time": 178, "annotation": {"number": 64, "value": 127}, "group": "control_change"}, {"time": 211, "annotation": {"number": 64, "value": 0}, "group": "control_change"}, {"time": 214, "annotation": {"number": 64, "value": 127}, "group": "control_change"}, {"time": 246, "annotation": {"number": 64, "value": 0}, "group": "control_change"}, {"time": 249, "annotation": {"number": 64, "value": 127}, "group": "control_change"}, {"time": 316, "annotation": {"number": 64, "value": 0}, "group": "control_change"}, {"time": 319, "annotation": {"number": 64, "value": 127}, "group": "control_change"}, {"time": 389, "annotation": {"number": 64, "value": 0}, "group": "control_change"}, {"time": 390, "annotation": {"number": 64, "value": 127}, "group": "control_change"}, {"time": 461, "annotation": {"number": 64, "value": 0}, "group": "control_change"}, {"time": 466, "annotation": {"number": 64, "value": 127}, "group": "control_change"}, {"time": 498, "annotation": {"number": 64, "value": 0}, "group": "control_change"}, {"time": 503, "annotation": {"number": 64, "value": 127}, "group": "control_change"}, {"time": 533, "annotation": {"number": 64, "value": 0}, "group": "control_change"}, {"time": 537, "annotation": {"number": 64, "value": 127}, "group": "control_change"}, {"time": 569, "annotation": {"number": 64, "value": 127}, "group": "control_change"}, {"time": 606, "annotation": {"number": 64, "value": 0}, "group": "control_change"}, {"time": 612, "annotation": {"number": 64, "value": 127}, "group": "control_change"}, {"time": 612, "annotation": {"number": 64, "value": 0}, "group": "control_change"}, {"time": 676, "annotation": {"number": 64, "value": 0}, "group": "control_change"}, {"time": 682, "annotation": {"number": 64, "value": 127}, "group": "control_change"}, {"time": 749, "annotation": {"number": 64, "value": 0}, "group": "control_change"}, {"time": 751, "annotation": {"number": 64, "value": 127}, "group": "control_change"}, {"time": 786, "annotation": {"number": 64, "value": 0}, "group": "control_change"}, {"time": 792, "annotation": {"number": 64, "value": 127}, "group": "control_change"}, {"time": 821, "annotation": {"number": 64, "value": 0}, "group": "control_change"}, {"time": 824, "annotation": {"number": 64, "value": 127}, "group": "control_change"}, {"time": 854, "annotation": {"number": 64, "value": 0}, "group": "control_change"}, {"time": 861, "annotation": {"number": 64, "value": 127}, "group": "control_change"}, {"time": 895, "annotation": {"number": 64, "value": 0}, "group": "control_change"}, {"time": 902, "annotation": {"number": 64, "value": 127}, "group": "control_change"}, {"time": 966, "annotation": {"number": 64, "value": 0}, "group": "control_change"}, {"time": 967, "annotation": {"number": 64, "value": 127}, "group": "control_change"}, {"time": 1038, "annotation": {"number": 64, "value": 0}, "group": "control_change"}, {"time": 1042, "annotation": {"number": 64, "value": 127}, "group": "control_change"}, {"time": 1072, "annotation": {"number": 64, "value": 0}, "group": "control_change"}, {"time": 1076, "annotation": {"number": 64, "value": 127}, "group": "control_change"}, {"time": 1109, "annotation": {"number": 64, "value": 0}, "group": "control_change"}, {"time": 1114, "annotation": {"number": 64, "value": 127}, "group": "control_change"}, {"time": 1183, "annotation": {"number": 64, "value": 0}, "group": "control_change"}, {"time": 1187, "annotation": {"number": 64, "value": 127}, "group": "control_change"}, {"time": 1218, "annotation": {"number": 64, "value": 0}, "group": "control_change"}, {"time": 1224, "annotation": {"number": 64, "value": 127}, "group": "control_change"}, {"time": 1254, "annotation": {"number": 64, "value": 0}, "group": "control_change"}, {"time": 1260, "annotation": {"number": 64, "value": 127}, "group": "control_change"}, {"time": 1293, "annotation": {"number": 64, "value": 0}, "group": "control_change"}, {"time": 1297, "annotation": {"number": 64, "value": 127}, "group": "control_change"}, {"time": 1326, "annotation": {"number": 64, "value": 0}, "group": "control_change"}, {"time": 1327, "annotation": {"number": 64, "value": 127}, "group": "control_change"}, {"time": 1362, "annotation": {"number": 64, "value": 0}, "group": "control_change"}, {"time": 1366, "annotation": {"number": 64, "value": 127}, "group": "control_change"}, {"time": 1397, "annotation": {"number": 64, "value": 0}, "group": "control_change"}, {"time": 1399, "annotation": {"number": 64, "value": 127}, "group": "control_change"}, {"time": 1436, "annotation": {"number": 64, "value": 0}, "group": "control_change"}, {"time": 1441, "annotation": {"number": 64, "value": 127}, "group": "control_change"}, {"time": 1468, "annotation": {"number": 64, "value": 0}, "group": "control_change"}, {"time": 1474, "annotation": {"number": 64, "value": 127}, "group": "control_change"}, {"time": 1507, "annotation": {"number": 64, "value": 0}, "group": "control_change"}, {"time": 1512, "annotation": {"number": 64, "value": 127}, "group": "control_change"}, {"time": 1542, "annotation": {"number": 64, "value": 0}, "group": "control_change"}, {"time": 1545, "annotation": {"number": 64, "value": 127}, "group": "control_change"}, {"time": 1578, "annotation": {"number": 64, "value": 0}, "group": "control_change"}, {"time": 1585, "annotation": {"number": 64, "value": 127}, "group": "control_change"}, {"time": 1613, "annotation": {"number": 64, "value": 0}, "group": "control_change"}, {"time": 1616, "annotation": {"number": 64, "value": 127}, "group": "control_change"}, {"time": 1651, "annotation": {"number": 64, "value": 0}, "group": "control_change"}, {"time": 1656, "annotation": {"number": 64, "value": 127}, "group": "control_change"}, {"time": 1684, "annotation": {"number": 64, "value": 0}, "group": "control_change"}, {"time": 1689, "annotation": {"number": 64, "value": 127}, "group": "control_change"}, {"time": 1722, "annotation": {"number": 64, "value": 0}, "group": "control_change"}, {"time": 1727, "annotation": {"number": 64, "value": 127}, "group": "control_change"}, {"time": 1727, "annotation": {"number": 64, "value": 0}, "group": "control_change"}, {"time": 1759, "annotation": {"number": 64, "value": 0}, "group": "control_change"}, {"time": 1764, "annotation": {"number": 64, "value": 127}, "group": "control_change"}, {"time": 1794, "annotation": {"number": 64, "value": 0}, "group": "control_change"}, {"time": 1800, "annotation": {"number": 64, "value": 127}, "group": "control_change"}, {"time": 1830, "annotation": {"number": 64, "value": 0}, "group": "control_change"}, {"time": 1836, "annotation": {"number": 64, "value": 127}, "group": "control_change"}, {"time": 1868, "annotation": {"number": 64, "value": 0}, "group": "control_change"}, {"time": 1872, "annotation": {"number": 64, "value": 127}, "group": "control_change"}, {"time": 1905, "annotation": {"number": 64, "value": 0}, "group": "control_change"}, {"time": 1909, "annotation": {"number": 64, "value": 127}, "group": "control_change"}, {"time": 1940, "annotation": {"number": 64, "value": 0}, "group": "control_change"}, {"time": 1944, "annotation": {"number": 64, "value": 127}, "group": "control_change"}, {"time": 1976, "annotation": {"number": 64, "value": 0}, "group": "control_change"}, {"time": 1980, "annotation": {"number": 64, "value": 127}, "group": "control_change"}, {"time": 2010, "annotation": {"number": 64, "value": 0}, "group": "control_change"}, {"time": 2010, "annotation": {"number": 64, "value": 127}, "group": "control_change"}, {"time": 2046, "annotation": {"number": 64, "value": 0}, "group": "control_change"}, {"time": 2051, "annotation": {"number": 64, "value": 127}, "group": "control_change"}, {"time": 2081, "annotation": {"number": 64, "value": 0}, "group": "control_change"}, {"time": 2087, "annotation": {"number": 64, "value": 127}, "group": "control_change"}, {"time": 2117, "annotation": {"number": 64, "value": 0}, "group": "control_change"}, {"time": 2120, "annotation": {"number": 64, "value": 127}, "group": "control_change"}, {"time": 2155, "annotation": {"number": 64, "value": 0}, "group": "control_change"}, {"time": 2161, "annotation": {"number": 64, "value": 127}, "group": "control_change"}, {"time": 2191, "annotation": {"number": 64, "value": 0}, "group": "control_change"}, {"time": 2197, "annotation": {"number": 64, "value": 127}, "group": "control_change"}, {"time": 2225, "annotation": {"number": 64, "value": 0}, "group": "control_change"}, {"time": 2227, "annotation": {"number": 64, "value": 127}, "group": "control_change"}, {"time": 2261, "annotation": {"number": 64, "value": 0}, "group": "control_change"}, {"time": 2264, "annotation": {"number": 64, "value": 0}, "group": "control_change"}, {"time": 2269, "annotation": {"number": 64, "value": 127}, "group": "control_change"}, {"time": 2298, "annotation": {"number": 64, "value": 0}, "group": "control_change"}, {"time": 2303, "annotation": {"number": 64, "value": 127}, "group": "control_change"}, {"time": 2334, "annotation": {"number": 64, "value": 0}, "group": "control_change"}, {"time": 2340, "annotation": {"number": 64, "value": 127}, "group": "control_change"}, {"time": 2369, "annotation": {"number": 64, "value": 0}, "group": "control_change"}, {"time": 2391, "annotation": {"number": 64, "value": 127}, "group": "control_change"}, {"time": 2402, "annotation": {"number": 64, "value": 0}, "group": "control_change"}, {"time": 2414, "annotation": {"number": 64, "value": 127}, "group": "control_change"}, {"time": 2424, "annotation": {"number": 64, "value": 0}, "group": "control_change"}, {"time": 2442, "annotation": {"number": 64, "value": 127}, "group": "control_change"}, {"time": 2477, "annotation": {"number": 64, "value": 0}, "group": "control_change"}, {"time": 2479, "annotation": {"number": 64, "value": 127}, "group": "control_change"}, {"time": 2550, "annotation": {"number": 64, "value": 0}, "group": "control_change"}, {"time": 2554, "annotation": {"number": 64, "value": 127}, "group": "control_change"}, {"time": 2584, "annotation": {"number": 64, "value": 0}, "group": "control_change"}, {"time": 2588, "annotation": {"number": 64, "value": 127}, "group": "control_change"}, {"time": 2621, "annotation": {"number": 64, "value": 0}, "group": "control_change"}, {"time": 2626, "annotation": {"number": 64, "value": 127}, "group": "control_change"}, {"time": 2695, "annotation": {"number": 64, "value": 0}, "group": "control_change"}, {"time": 2699, "annotation": {"number": 64, "value": 127}, "group": "control_change"}, {"time": 2730, "annotation": {"number": 64, "value": 0}, "group": "control_change"}, {"time": 2736, "annotation": {"number": 64, "value": 127}, "group": "control_change"}, {"time": 2766, "annotation": {"number": 64, "value": 0}, "group": "control_change"}, {"time": 2772, "annotation": {"number": 64, "value": 127}, "group": "control_change"}, {"time": 2805, "annotation": {"number": 64, "value": 0}, "group": "control_change"}, {"time": 2809, "annotation": {"number": 64, "value": 127}, "group": "control_change"}, {"time": 2838, "annotation": {"number": 64, "value": 0}, "group": "control_change"}, {"time": 2839, "annotation": {"number": 64, "value": 127}, "group": "control_change"}, {"time": 2874, "annotation": {"number": 64, "value": 0}, "group": "control_change"}, {"time": 2878, "annotation": {"number": 64, "value": 127}, "group": "control_change"}, {"time": 2909, "annotation": {"number": 64, "value": 0}, "group": "control_change"}, {"time": 2911, "annotation": {"number": 64, "value": 127}, "group": "control_change"}, {"time": 2948, "annotation": {"number": 64, "value": 0}, "group": "control_change"}, {"time": 2953, "annotation": {"number": 64, "value": 127}, "group": "control_change"}, {"time": 2980, "annotation": {"number": 64, "value": 0}, "group": "control_change"}, {"time": 2983, "annotation": {"number": 64, "value": 127}, "group": "control_change"}, {"time": 3018, "annotation": {"number": 64, "value": 0}, "group": "control_change"}, {"time": 3022, "annotation": {"number": 64, "value": 127}, "group": "control_change"}, {"time": 3052, "annotation": {"number": 64, "value": 0}, "group": "control_change"}, {"time": 3057, "annotation": {"number": 64, "value": 127}, "group": "control_change"}, {"time": 3090, "annotation": {"number": 64, "value": 0}, "group": "control_change"}, {"time": 3094, "annotation": {"number": 64, "value": 127}, "group": "control_change"}, {"time": 3125, "annotation": {"number": 64, "value": 0}, "group": "control_change"}, {"time": 3129, "annotation": {"number": 64, "value": 127}, "group": "control_change"}, {"time": 3193, "annotation": {"number": 64, "value": 0}, "group": "control_change"}, {"time": 3207, "annotation": {"number": 64, "value": 127}, "group": "control_change"}, {"time": 3231, "annotation": {"number": 64, "value": 0}, "group": "control_change"}, {"time": 3236, "annotation": {"number": 64, "value": 127}, "group": "control_change"}, {"time": 3268, "annotation": {"number": 64, "value": 0}, "group": "control_change"}, {"time": 3272, "annotation": {"number": 64, "value": 127}, "group": "control_change"}, {"time": 3307, "annotation": {"number": 64, "value": 0}, "group": "control_change"}, {"time": 3312, "annotation": {"number": 64, "value": 127}, "group": "control_change"}, {"time": 3340, "annotation": {"number": 64, "value": 0}, "group": "control_change"}, {"time": 3345, "annotation": {"number": 64, "value": 127}, "group": "control_change"}, {"time": 3378, "annotation": {"number": 64, "value": 0}, "group": "control_change"}, {"time": 3383, "annotation": {"number": 64, "value": 127}, "group": "control_change"}, {"time": 3383, "annotation": {"number": 64, "value": 0}, "group": "control_change"}, {"time": 3415, "annotation": {"number": 64, "value": 0}, "group": "control_change"}, {"time": 3420, "annotation": {"number": 64, "value": 127}, "group": "control_change"}, {"time": 3450, "annotation": {"number": 64, "value": 0}, "group": "control_change"}, {"time": 3456, "annotation": {"number": 64, "value": 127}, "group": "control_change"}, {"time": 3486, "annotation": {"number": 64, "value": 0}, "group": "control_change"}, {"time": 3492, "annotation": {"number": 64, "value": 127}, "group": "control_change"}, {"time": 3524, "annotation": {"number": 64, "value": 0}, "group": "control_change"}, {"time": 3528, "annotation": {"number": 64, "value": 127}, "group": "control_change"}, {"time": 3561, "annotation": {"number": 64, "value": 0}, "group": "control_change"}, {"time": 3565, "annotation": {"number": 64, "value": 127}, "group": "control_change"}, {"time": 3596, "annotation": {"number": 64, "value": 0}, "group": "control_change"}, {"time": 3600, "annotation": {"number": 64, "value": 127}, "group": "control_change"}, {"time": 3632, "annotation": {"number": 64, "value": 0}, "group": "control_change"}, {"time": 3636, "annotation": {"number": 64, "value": 127}, "group": "control_change"}, {"time": 3666, "annotation": {"number": 64, "value": 0}, "group": "control_change"}, {"time": 3666, "annotation": {"number": 64, "value": 127}, "group": "control_change"}, {"time": 3702, "annotation": {"number": 64, "value": 0}, "group": "control_change"}, {"time": 3707, "annotation": {"number": 64, "value": 127}, "group": "control_change"}, {"time": 3737, "annotation": {"number": 64, "value": 0}, "group": "control_change"}, {"time": 3737, "annotation": {"number": 64, "value": 127}, "group": "control_change"}, {"time": 3740, "annotation": {"number": 64, "value": 0}, "group": "control_change"}, {"time": 3775, "annotation": {"number": 64, "value": 127}, "group": "control_change"}, {"time": 3809, "annotation": {"number": 64, "value": 0}, "group": "control_change"}, {"time": 3816, "annotation": {"number": 64, "value": 127}, "group": "control_change"}, {"time": 3842, "annotation": {"number": 64, "value": 0}, "group": "control_change"}, {"time": 3848, "annotation": {"number": 64, "value": 127}, "group": "control_change"}, {"time": 3881, "annotation": {"number": 64, "value": 0}, "group": "control_change"}, {"time": 3881, "annotation": {"number": 64, "value": 127}, "group": "control_change"}, {"time": 3883, "annotation": {"number": 64, "value": 127}, "group": "control_change"}, {"time": 3919, "annotation": {"number": 64, "value": 0}, "group": "control_change"}, {"time": 3919, "annotation": {"number": 64, "value": 127}, "group": "control_change"}, {"time": 3953, "annotation": {"number": 64, "value": 0}, "group": "control_change"}, {"time": 3976, "annotation": {"number": 64, "value": 127}, "group": "control_change"}, {"time": 3989, "annotation": {"number": 64, "value": 0}, "group": "control_change"}, {"time": 3996, "annotation": {"number": 64, "value": 127}, "group": "control_change"}, {"time": 4008, "annotation": {"number": 64, "value": 0}, "group": "control_change"}, {"time": 4014, "annotation": {"number": 64, "value": 127}, "group": "control_change"}, {"time": 4023, "annotation": {"number": 64, "value": 0}, "group": "control_change"}, {"time": 4029, "annotation": {"number": 64, "value": 127}, "group": "control_change"}, {"time": 4043, "annotation": {"number": 64, "value": 0}, "group": "control_change"}, {"time": 4049, "annotation": {"number": 64, "value": 127}, "group": "control_change"}, {"time": 4059, "annotation": {"number": 64, "value": 0}, "group": "control_change"}, {"time": 4117, "annotation": {"number": 64, "value": 127}, "group": "control_change"}, {"time": 4131, "annotation": {"number": 64, "value": 0}, "group": "control_change"}, {"time": 4138, "annotation": {"number": 64, "value": 127}, "group": "control_change"}, {"time": 4169, "annotation": {"number": 64, "value": 0}, "group": "control_change"}, {"time": 4176, "annotation": {"number": 64, "value": 127}, "group": "control_change"}, {"time": 4206, "annotation": {"number": 64, "value": 0}, "group": "control_change"}, {"time": 4212, "annotation": {"number": 64, "value": 127}, "group": "control_change"}, {"time": 4241, "annotation": {"number": 64, "value": 0}, "group": "control_change"}, {"time": 4246, "annotation": {"number": 64, "value": 127}, "group": "control_change"}, {"time": 4276, "annotation": {"number": 64, "value": 0}, "group": "control_change"}, {"time": 4279, "annotation": {"number": 64, "value": 127}, "group": "control_change"}, {"time": 4295, "annotation": {"number": 64, "value": 0}, "group": "control_change"}, {"time": 4314, "annotation": {"number": 64, "value": 127}, "group": "control_change"}, {"time": 4314, "annotation": {"number": 64, "value": 0}, "group": "control_change"}, {"time": 4331, "annotation": {"number": 64, "value": 0}, "group": "control_change"}, {"time": 4387, "annotation": {"number": 64, "value": 127}, "group": "control_change"}, {"time": 4403, "annotation": {"number": 64, "value": 0}, "group": "control_change"}, {"time": 4465, "annotation": {"number": 64, "value": 127}, "group": "control_change"}, {"time": 4476, "annotation": {"number": 64, "value": 127}, "group": "control_change"}, {"time": 4477, "annotation": {"number": 64, "value": 0}, "group": "control_change"}, {"time": 4477, "annotation": {"number": 64, "value": 127}, "group": "control_change"}, {"time": 4509, "annotation": {"number": 64, "value": 0}, "group": "control_change"}, {"time": 4512, "annotation": {"number": 64, "value": 127}, "group": "control_change"}, {"time": 4547, "annotation": {"number": 64, "value": 0}, "group": "control_change"}, {"time": 4567, "annotation": {"number": 64, "value": 127}, "group": "control_change"}, {"time": 4584, "annotation": {"number": 64, "value": 0}, "group": "control_change"}, {"time": 4588, "annotation": {"number": 64, "value": 127}, "group": "control_change"}, {"time": 4602, "annotation": {"number": 64, "value": 0}, "group": "control_change"}, {"time": 4607, "annotation": {"number": 64, "value": 127}, "group": "control_change"}, {"time": 4620, "annotation": {"number": 64, "value": 0}, "group": "control_change"}, {"time": 4624, "annotation": {"number": 64, "value": 127}, "group": "control_change"}, {"time": 4638, "annotation": {"number": 64, "value": 0}, "group": "control_change"}, {"time": 4643, "annotation": {"number": 64, "value": 127}, "group": "control_change"}, {"time": 4654, "annotation": {"number": 64, "value": 0}, "group": "control_change"}, {"time": 4663, "annotation": {"number": 64, "value": 127}, "group": "control_change"}, {"time": 4691, "annotation": {"number": 64, "value": 0}, "group": "control_change"}, {"time": 4698, "annotation": {"number": 64, "value": 127}, "group": "control_change"}, {"time": 4728, "annotation": {"number": 64, "value": 0}, "group": "control_change"}, {"time": 4730, "annotation": {"number": 64, "value": 127}, "group": "control_change"}, {"time": 4758, "annotation": {"number": 64, "value": 0}, "group": "control_change"}, {"time": 4783, "annotation": {"number": 64, "value": 127}, "group": "control_change"}, {"time": 4836, "annotation": {"number": 64, "value": 127}, "group": "control_change"}, {"time": 4836, "annotation": {"number": 64, "value": 0}, "group": "control_change"}, {"time": 4854, "annotation": {"number": 64, "value": 0}, "group": "control_change"}, {"time": 4857, "annotation": {"number": 64, "value": 127}, "group": "control_change"}, {"time": 4872, "annotation": {"number": 64, "value": 0}, "group": "control_change"}, {"time": 4875, "annotation": {"number": 64, "value": 127}, "group": "control_change"}, {"time": 4890, "annotation": {"number": 64, "value": 0}, "group": "control_change"}, {"time": 4891, "annotation": {"number": 64, "value": 127}, "group": "control_change"}, {"time": 4908, "annotation": {"number": 64, "value": 0}, "group": "control_change"}, {"time": 4911, "annotation": {"number": 64, "value": 127}, "group": "control_change"}, {"time": 5022, "annotation": {"number": 64, "value": 0}, "group": "control_change"}, {"time": 5210, "annotation": {"number": 64, "value": 127}, "group": "control_change"}, {"time": 5267, "annotation": {"number": 64, "value": 0}, "group": "control_change"}, {"time": 5273, "annotation": {"number": 64, "value": 127}, "group": "control_change"}, {"time": 5339, "annotation": {"number": 64, "value": 0}, "group": "control_change"}, {"time": 5344, "annotation": {"number": 64, "value": 127}, "group": "control_change"}, {"time": 5410, "annotation": {"number": 64, "value": 0}, "group": "control_change"}, {"time": 5414, "annotation": {"number": 64, "value": 127}, "group": "control_change"}, {"time": 5479, "annotation": {"number": 64, "value": 0}, "group": "control_change"}, {"time": 5485, "annotation": {"number": 64, "value": 127}, "group": "control_change"}, {"time": 5549, "annotation": {"number": 64, "value": 0}, "group": "control_change"}]}]}