{"metadata": {"schema_version": "0.2", "title": "None", "source_filename": "256.mid", "source_format": "midi"}, "resolution": 12, "tempos": [{"time": 0, "qpm": 50.99998215000625}, {"time": 17, "qpm": 48.9999918333347}, {"time": 41, "qpm": 44.000011733336464}, {"time": 53, "qpm": 40.99998975000256}, {"time": 65, "qpm": 48.9999918333347}, {"time": 77, "qpm": 50.0}, {"time": 89, "qpm": 46.99999060000188}, {"time": 125, "qpm": 50.0}, {"time": 149, "qpm": 53.000022083342536}, {"time": 161, "qpm": 50.99998215000625}, {"time": 173, "qpm": 48.0}, {"time": 185, "qpm": 53.000022083342536}, {"time": 197, "qpm": 48.9999918333347}, {"time": 209, "qpm": 52.000006933334255}, {"time": 221, "qpm": 45.000011250002814}, {"time": 245, "qpm": 50.0}, {"time": 353, "qpm": 48.0}, {"time": 377, "qpm": 54.00000540000054}, {"time": 389, "qpm": 48.9999918333347}, {"time": 401, "qpm": 53.000022083342536}, {"time": 449, "qpm": 50.99998215000625}, {"time": 473, "qpm": 52.000006933334255}, {"time": 929, "qpm": 50.99998215000625}, {"time": 1013, "qpm": 53.000022083342536}, {"time": 1049, "qpm": 52.000006933334255}, {"time": 1121, "qpm": 50.99998215000625}, {"time": 1145, "qpm": 50.0}, {"time": 1169, "qpm": 50.99998215000625}, {"time": 1217, "qpm": 52.000006933334255}, {"time": 1793, "qpm": 50.99998215000625}, {"time": 1841, "qpm": 52.000006933334255}, {"time": 2273, "qpm": 50.0}, {"time": 2321, "qpm": 52.000006933334255}, {"time": 2465, "qpm": 50.99998215000625}, {"time": 2513, "qpm": 52.000006933334255}], "time_signatures": [{"time": 0, "numerator": 4, "denominator": 4}], "tracks": [{"program": 0, "is_drum": false, "name": "MELODY", "notes": [{"time": 365, "pitch": 80, "duration": 2, "velocity": 83}, {"time": 368, "pitch": 82, "duration": 2, "velocity": 80}, {"time": 371, "pitch": 85, "duration": 2, "velocity": 90}, {"time": 374, "pitch": 82, "duration": 2, "velocity": 82}, {"time": 377, "pitch": 80, "duration": 2, "velocity": 82}, {"time": 380, "pitch": 82, "duration": 8, "velocity": 80}, {"time": 389, "pitch": 80, "duration": 5, "velocity": 82}, {"time": 395, "pitch": 77, "duration": 2, "velocity": 76}, {"time": 398, "pitch": 80, "duration": 14, "velocity": 81}, {"time": 413, "pitch": 75, "duration": 2, "velocity": 83}, {"time": 416, "pitch": 77, "duration": 2, "velocity": 80}, {"time": 419, "pitch": 80, "duration": 2, "velocity": 86}, {"time": 422, "pitch": 77, "duration": 2, "velocity": 90}, {"time": 425, "pitch": 75, "duration": 8, "velocity": 86}, {"time": 434, "pitch": 73, "duration": 8, "velocity": 86}, {"time": 443, "pitch": 70, "duration": 2, "velocity": 69}, {"time": 446, "pitch": 73, "duration": 14, "velocity": 81}, {"time": 461, "pitch": 75, "duration": 2, "velocity": 91}, {"time": 464, "pitch": 77, "duration": 2, "velocity": 90}, {"time": 467, "pitch": 80, "duration": 2, "velocity": 82}, {"time": 470, "pitch": 77, "duration": 2, "velocity": 90}, {"time": 473, "pitch": 75, "duration": 8, "velocity": 93}, {"time": 482, "pitch": 73, "duration": 8, "velocity": 94}, {"time": 491, "pitch": 75, "duration": 2, "velocity": 84}, {"time": 494, "pitch": 70, "duration": 2, "velocity": 90}, {"time": 497, "pitch": 68, "duration": 5, "velocity": 86}, {"time": 503, "pitch": 82, "duration": 5, "velocity": 84}, {"time": 509, "pitch": 80, "duration": 2, "velocity": 80}, {"time": 512, "pitch": 77, "duration": 8, "velocity": 83}, {"time": 521, "pitch": 75, "duration": 2, "velocity": 86}, {"time": 524, "pitch": 75, "duration": 2, "velocity": 86}, {"time": 527, "pitch": 75, "duration": 2, "velocity": 90}, {"time": 530, "pitch": 77, "duration": 2, "velocity": 90}, {"time": 533, "pitch": 75, "duration": 2, "velocity": 95}, {"time": 536, "pitch": 73, "duration": 5, "velocity": 90}, {"time": 542, "pitch": 70, "duration": 2, "velocity": 83}, {"time": 545, "pitch": 75, "duration": 11, "velocity": 84}, {"time": 557, "pitch": 80, "duration": 2, "velocity": 93}, {"time": 560, "pitch": 82, "duration": 2, "velocity": 82}, {"time": 563, "pitch": 85, "duration": 2, "velocity": 94}, {"time": 566, "pitch": 82, "duration": 2, "velocity": 93}, {"time": 569, "pitch": 80, "duration": 2, "velocity": 84}, {"time": 572, "pitch": 82, "duration": 5, "velocity": 83}, {"time": 578, "pitch": 80, "duration": 8, "velocity": 84}, {"time": 587, "pitch": 77, "duration": 2, "velocity": 86}, {"time": 590, "pitch": 80, "duration": 14, "velocity": 86}, {"time": 605, "pitch": 75, "duration": 2, "velocity": 84}, {"time": 608, "pitch": 77, "duration": 2, "velocity": 86}, {"time": 611, "pitch": 80, "duration": 2, "velocity": 90}, {"time": 614, "pitch": 77, "duration": 2, "velocity": 95}, {"time": 617, "pitch": 75, "duration": 8, "velocity": 93}, {"time": 626, "pitch": 73, "duration": 8, "velocity": 86}, {"time": 635, "pitch": 70, "duration": 2, "velocity": 94}, {"time": 638, "pitch": 73, "duration": 14, "velocity": 91}, {"time": 653, "pitch": 75, "duration": 2, "velocity": 91}, {"time": 656, "pitch": 77, "duration": 2, "velocity": 84}, {"time": 659, "pitch": 80, "duration": 2, "velocity": 86}, {"time": 662, "pitch": 77, "duration": 2, "velocity": 90}, {"time": 665, "pitch": 75, "duration": 8, "velocity": 84}, {"time": 674, "pitch": 73, "duration": 8, "velocity": 91}, {"time": 683, "pitch": 75, "duration": 2, "velocity": 98}, {"time": 686, "pitch": 70, "duration": 2, "velocity": 84}, {"time": 689, "pitch": 68, "duration": 5, "velocity": 90}, {"time": 695, "pitch": 80, "duration": 2, "velocity": 83}, {"time": 698, "pitch": 82, "duration": 2, "velocity": 80}, {"time": 701, "pitch": 80, "duration": 2, "velocity": 82}, {"time": 704, "pitch": 77, "duration": 5, "velocity": 86}, {"time": 710, "pitch": 77, "duration": 2, "velocity": 94}, {"time": 713, "pitch": 75, "duration": 2, "velocity": 84}, {"time": 716, "pitch": 75, "duration": 2, "velocity": 86}, {"time": 719, "pitch": 75, "duration": 2, "velocity": 90}, {"time": 722, "pitch": 77, "duration": 2, "velocity": 90}, {"time": 725, "pitch": 75, "duration": 2, "velocity": 91}, {"time": 728, "pitch": 73, "duration": 8, "velocity": 91}, {"time": 737, "pitch": 70, "duration": 5, "velocity": 86}, {"time": 743, "pitch": 73, "duration": 26, "velocity": 84}, {"time": 770, "pitch": 73, "duration": 2, "velocity": 94}, {"time": 773, "pitch": 73, "duration": 2, "velocity": 84}, {"time": 776, "pitch": 73, "duration": 2, "velocity": 95}, {"time": 779, "pitch": 85, "duration": 2, "velocity": 98}, {"time": 782, "pitch": 84, "duration": 2, "velocity": 95}, {"time": 785, "pitch": 84, "duration": 2, "velocity": 86}, {"time": 788, "pitch": 82, "duration": 5, "velocity": 86}, {"time": 794, "pitch": 82, "duration": 2, "velocity": 95}, {"time": 797, "pitch": 82, "duration": 2, "velocity": 93}, {"time": 800, "pitch": 80, "duration": 2, "velocity": 90}, {"time": 803, "pitch": 82, "duration": 2, "velocity": 91}, {"time": 806, "pitch": 84, "duration": 5, "velocity": 100}, {"time": 812, "pitch": 77, "duration": 11, "velocity": 104}, {"time": 824, "pitch": 77, "duration": 2, "velocity": 90}, {"time": 827, "pitch": 77, "duration": 2, "velocity": 84}, {"time": 830, "pitch": 80, "duration": 2, "velocity": 90}, {"time": 833, "pitch": 82, "duration": 5, "velocity": 86}, {"time": 839, "pitch": 82, "duration": 2, "velocity": 81}, {"time": 842, "pitch": 82, "duration": 2, "velocity": 84}, {"time": 845, "pitch": 82, "duration": 2, "velocity": 91}, {"time": 848, "pitch": 80, "duration": 2, "velocity": 90}, {"time": 851, "pitch": 77, "duration": 2, "velocity": 91}, {"time": 854, "pitch": 75, "duration": 2, "velocity": 86}, {"time": 857, "pitch": 77, "duration": 8, "velocity": 91}, {"time": 866, "pitch": 77, "duration": 2, "velocity": 84}, {"time": 869, "pitch": 75, "duration": 2, "velocity": 84}, {"time": 872, "pitch": 77, "duration": 2, "velocity": 80}, {"time": 875, "pitch": 75, "duration": 2, "velocity": 84}, {"time": 878, "pitch": 70, "duration": 2, "velocity": 86}, {"time": 881, "pitch": 73, "duration": 8, "velocity": 93}, {"time": 890, "pitch": 77, "duration": 2, "velocity": 98}, {"time": 893, "pitch": 75, "duration": 2, "velocity": 91}, {"time": 896, "pitch": 77, "duration": 2, "velocity": 84}, {"time": 899, "pitch": 75, "duration": 2, "velocity": 94}, {"time": 902, "pitch": 70, "duration": 2, "velocity": 94}, {"time": 905, "pitch": 73, "duration": 8, "velocity": 94}, {"time": 914, "pitch": 77, "duration": 2, "velocity": 93}, {"time": 917, "pitch": 75, "duration": 2, "velocity": 84}, {"time": 920, "pitch": 77, "duration": 2, "velocity": 84}, {"time": 923, "pitch": 75, "duration": 2, "velocity": 84}, {"time": 926, "pitch": 70, "duration": 2, "velocity": 82}, {"time": 929, "pitch": 82, "duration": 2, "velocity": 83}, {"time": 932, "pitch": 80, "duration": 2, "velocity": 90}, {"time": 935, "pitch": 80, "duration": 2, "velocity": 93}, {"time": 938, "pitch": 80, "duration": 2, "velocity": 90}, {"time": 941, "pitch": 82, "duration": 2, "velocity": 93}, {"time": 944, "pitch": 80, "duration": 2, "velocity": 86}, {"time": 947, "pitch": 80, "duration": 2, "velocity": 90}, {"time": 950, "pitch": 77, "duration": 5, "velocity": 86}, {"time": 956, "pitch": 75, "duration": 5, "velocity": 86}, {"time": 962, "pitch": 80, "duration": 2, "velocity": 93}, {"time": 965, "pitch": 80, "duration": 2, "velocity": 90}, {"time": 968, "pitch": 80, "duration": 2, "velocity": 84}, {"time": 971, "pitch": 85, "duration": 2, "velocity": 94}, {"time": 974, "pitch": 84, "duration": 2, "velocity": 98}, {"time": 977, "pitch": 84, "duration": 2, "velocity": 95}, {"time": 980, "pitch": 82, "duration": 5, "velocity": 93}, {"time": 986, "pitch": 82, "duration": 2, "velocity": 86}, {"time": 989, "pitch": 82, "duration": 2, "velocity": 98}, {"time": 992, "pitch": 80, "duration": 2, "velocity": 83}, {"time": 995, "pitch": 82, "duration": 2, "velocity": 90}, {"time": 998, "pitch": 84, "duration": 5, "velocity": 80}, {"time": 1004, "pitch": 77, "duration": 11, "velocity": 98}, {"time": 1016, "pitch": 77, "duration": 2, "velocity": 93}, {"time": 1019, "pitch": 77, "duration": 2, "velocity": 84}, {"time": 1022, "pitch": 80, "duration": 2, "velocity": 84}, {"time": 1025, "pitch": 82, "duration": 2, "velocity": 84}, {"time": 1028, "pitch": 82, "duration": 5, "velocity": 90}, {"time": 1034, "pitch": 82, "duration": 2, "velocity": 84}, {"time": 1037, "pitch": 82, "duration": 2, "velocity": 93}, {"time": 1040, "pitch": 80, "duration": 2, "velocity": 84}, {"time": 1043, "pitch": 77, "duration": 2, "velocity": 90}, {"time": 1046, "pitch": 75, "duration": 2, "velocity": 84}, {"time": 1049, "pitch": 77, "duration": 8, "velocity": 98}, {"time": 1058, "pitch": 77, "duration": 2, "velocity": 84}, {"time": 1061, "pitch": 75, "duration": 2, "velocity": 82}, {"time": 1064, "pitch": 77, "duration": 2, "velocity": 76}, {"time": 1067, "pitch": 75, "duration": 2, "velocity": 81}, {"time": 1070, "pitch": 70, "duration": 2, "velocity": 83}, {"time": 1073, "pitch": 73, "duration": 8, "velocity": 90}, {"time": 1082, "pitch": 77, "duration": 2, "velocity": 93}, {"time": 1085, "pitch": 75, "duration": 2, "velocity": 86}, {"time": 1088, "pitch": 77, "duration": 2, "velocity": 80}, {"time": 1091, "pitch": 80, "duration": 2, "velocity": 79}, {"time": 1094, "pitch": 77, "duration": 2, "velocity": 86}, {"time": 1097, "pitch": 75, "duration": 2, "velocity": 83}, {"time": 1100, "pitch": 73, "duration": 2, "velocity": 98}, {"time": 1103, "pitch": 70, "duration": 23, "velocity": 83}, {"time": 1127, "pitch": 82, "duration": 5, "velocity": 93}, {"time": 1133, "pitch": 80, "duration": 8, "velocity": 84}, {"time": 1142, "pitch": 77, "duration": 2, "velocity": 86}, {"time": 1145, "pitch": 77, "duration": 5, "velocity": 82}, {"time": 1151, "pitch": 75, "duration": 5, "velocity": 83}, {"time": 1157, "pitch": 75, "duration": 2, "velocity": 86}, {"time": 1160, "pitch": 77, "duration": 8, "velocity": 86}, {"time": 1169, "pitch": 73, "duration": 20, "velocity": 76}, {"time": 1421, "pitch": 80, "duration": 2, "velocity": 93}, {"time": 1424, "pitch": 82, "duration": 2, "velocity": 82}, {"time": 1427, "pitch": 85, "duration": 2, "velocity": 94}, {"time": 1430, "pitch": 82, "duration": 2, "velocity": 93}, {"time": 1433, "pitch": 80, "duration": 2, "velocity": 84}, {"time": 1436, "pitch": 82, "duration": 5, "velocity": 83}, {"time": 1442, "pitch": 80, "duration": 8, "velocity": 84}, {"time": 1451, "pitch": 77, "duration": 2, "velocity": 86}, {"time": 1454, "pitch": 80, "duration": 14, "velocity": 86}, {"time": 1469, "pitch": 75, "duration": 2, "velocity": 84}, {"time": 1472, "pitch": 77, "duration": 2, "velocity": 86}, {"time": 1475, "pitch": 80, "duration": 2, "velocity": 90}, {"time": 1478, "pitch": 77, "duration": 2, "velocity": 95}, {"time": 1481, "pitch": 75, "duration": 8, "velocity": 93}, {"time": 1490, "pitch": 73, "duration": 8, "velocity": 86}, {"time": 1499, "pitch": 70, "duration": 2, "velocity": 94}, {"time": 1502, "pitch": 73, "duration": 14, "velocity": 91}, {"time": 1517, "pitch": 75, "duration": 2, "velocity": 91}, {"time": 1520, "pitch": 77, "duration": 2, "velocity": 84}, {"time": 1523, "pitch": 80, "duration": 2, "velocity": 86}, {"time": 1526, "pitch": 77, "duration": 2, "velocity": 90}, {"time": 1529, "pitch": 75, "duration": 8, "velocity": 84}, {"time": 1538, "pitch": 73, "duration": 8, "velocity": 91}, {"time": 1547, "pitch": 75, "duration": 2, "velocity": 98}, {"time": 1550, "pitch": 70, "duration": 2, "velocity": 84}, {"time": 1553, "pitch": 68, "duration": 5, "velocity": 90}, {"time": 1559, "pitch": 80, "duration": 2, "velocity": 83}, {"time": 1562, "pitch": 82, "duration": 2, "velocity": 80}, {"time": 1565, "pitch": 80, "duration": 2, "velocity": 82}, {"time": 1568, "pitch": 77, "duration": 5, "velocity": 86}, {"time": 1577, "pitch": 75, "duration": 2, "velocity": 84}, {"time": 1580, "pitch": 75, "duration": 2, "velocity": 86}, {"time": 1583, "pitch": 75, "duration": 2, "velocity": 90}, {"time": 1586, "pitch": 77, "duration": 2, "velocity": 90}, {"time": 1589, "pitch": 75, "duration": 2, "velocity": 91}, {"time": 1595, "pitch": 73, "duration": 8, "velocity": 91}, {"time": 1598, "pitch": 70, "duration": 5, "velocity": 86}, {"time": 1601, "pitch": 73, "duration": 2, "velocity": 84}, {"time": 1634, "pitch": 73, "duration": 2, "velocity": 94}, {"time": 1637, "pitch": 73, "duration": 2, "velocity": 84}, {"time": 1640, "pitch": 73, "duration": 2, "velocity": 95}, {"time": 1643, "pitch": 85, "duration": 2, "velocity": 98}, {"time": 1646, "pitch": 84, "duration": 2, "velocity": 95}, {"time": 1649, "pitch": 84, "duration": 2, "velocity": 86}, {"time": 1652, "pitch": 82, "duration": 5, "velocity": 86}, {"time": 1658, "pitch": 82, "duration": 2, "velocity": 95}, {"time": 1661, "pitch": 82, "duration": 2, "velocity": 93}, {"time": 1664, "pitch": 80, "duration": 2, "velocity": 90}, {"time": 1667, "pitch": 82, "duration": 2, "velocity": 91}, {"time": 1670, "pitch": 84, "duration": 5, "velocity": 100}, {"time": 1676, "pitch": 77, "duration": 11, "velocity": 104}, {"time": 1688, "pitch": 77, "duration": 2, "velocity": 90}, {"time": 1691, "pitch": 77, "duration": 2, "velocity": 84}, {"time": 1694, "pitch": 80, "duration": 2, "velocity": 90}, {"time": 1697, "pitch": 82, "duration": 5, "velocity": 86}, {"time": 1703, "pitch": 82, "duration": 2, "velocity": 81}, {"time": 1706, "pitch": 82, "duration": 2, "velocity": 84}, {"time": 1709, "pitch": 82, "duration": 2, "velocity": 91}, {"time": 1712, "pitch": 80, "duration": 2, "velocity": 90}, {"time": 1715, "pitch": 77, "duration": 2, "velocity": 91}, {"time": 1718, "pitch": 75, "duration": 2, "velocity": 86}, {"time": 1721, "pitch": 77, "duration": 8, "velocity": 91}, {"time": 1730, "pitch": 77, "duration": 2, "velocity": 84}, {"time": 1733, "pitch": 75, "duration": 2, "velocity": 84}, {"time": 1736, "pitch": 77, "duration": 2, "velocity": 80}, {"time": 1739, "pitch": 75, "duration": 2, "velocity": 84}, {"time": 1742, "pitch": 70, "duration": 2, "velocity": 86}, {"time": 1745, "pitch": 73, "duration": 8, "velocity": 93}, {"time": 1754, "pitch": 77, "duration": 2, "velocity": 98}, {"time": 1757, "pitch": 75, "duration": 2, "velocity": 91}, {"time": 1760, "pitch": 77, "duration": 2, "velocity": 84}, {"time": 1763, "pitch": 75, "duration": 2, "velocity": 94}, {"time": 1766, "pitch": 70, "duration": 2, "velocity": 94}, {"time": 1769, "pitch": 73, "duration": 8, "velocity": 94}, {"time": 1778, "pitch": 77, "duration": 2, "velocity": 93}, {"time": 1781, "pitch": 75, "duration": 2, "velocity": 84}, {"time": 1784, "pitch": 77, "duration": 2, "velocity": 84}, {"time": 1787, "pitch": 75, "duration": 2, "velocity": 84}, {"time": 1790, "pitch": 70, "duration": 2, "velocity": 82}, {"time": 1793, "pitch": 82, "duration": 2, "velocity": 83}, {"time": 1796, "pitch": 80, "duration": 2, "velocity": 90}, {"time": 1799, "pitch": 80, "duration": 2, "velocity": 93}, {"time": 1802, "pitch": 80, "duration": 2, "velocity": 90}, {"time": 1805, "pitch": 82, "duration": 2, "velocity": 93}, {"time": 1808, "pitch": 80, "duration": 2, "velocity": 86}, {"time": 1811, "pitch": 80, "duration": 2, "velocity": 90}, {"time": 1814, "pitch": 77, "duration": 5, "velocity": 86}, {"time": 1820, "pitch": 75, "duration": 5, "velocity": 86}, {"time": 1826, "pitch": 80, "duration": 2, "velocity": 93}, {"time": 1829, "pitch": 80, "duration": 2, "velocity": 90}, {"time": 1832, "pitch": 80, "duration": 2, "velocity": 84}, {"time": 1835, "pitch": 85, "duration": 2, "velocity": 94}, {"time": 1838, "pitch": 84, "duration": 2, "velocity": 98}, {"time": 1841, "pitch": 84, "duration": 2, "velocity": 95}, {"time": 1844, "pitch": 82, "duration": 5, "velocity": 93}, {"time": 1850, "pitch": 82, "duration": 2, "velocity": 86}, {"time": 1853, "pitch": 82, "duration": 2, "velocity": 98}, {"time": 1856, "pitch": 80, "duration": 2, "velocity": 83}, {"time": 1859, "pitch": 82, "duration": 2, "velocity": 90}, {"time": 1862, "pitch": 84, "duration": 5, "velocity": 80}, {"time": 1868, "pitch": 77, "duration": 11, "velocity": 98}, {"time": 1880, "pitch": 77, "duration": 2, "velocity": 93}, {"time": 1883, "pitch": 77, "duration": 2, "velocity": 84}, {"time": 1886, "pitch": 80, "duration": 2, "velocity": 84}, {"time": 1889, "pitch": 82, "duration": 2, "velocity": 84}, {"time": 1892, "pitch": 82, "duration": 5, "velocity": 90}, {"time": 1898, "pitch": 82, "duration": 2, "velocity": 84}, {"time": 1901, "pitch": 82, "duration": 2, "velocity": 93}, {"time": 1904, "pitch": 80, "duration": 2, "velocity": 84}, {"time": 1907, "pitch": 77, "duration": 2, "velocity": 90}, {"time": 1910, "pitch": 75, "duration": 2, "velocity": 84}, {"time": 1913, "pitch": 77, "duration": 8, "velocity": 98}, {"time": 1922, "pitch": 77, "duration": 2, "velocity": 84}, {"time": 1925, "pitch": 75, "duration": 2, "velocity": 82}, {"time": 1928, "pitch": 77, "duration": 2, "velocity": 76}, {"time": 1931, "pitch": 75, "duration": 2, "velocity": 81}, {"time": 1934, "pitch": 70, "duration": 2, "velocity": 83}, {"time": 1937, "pitch": 73, "duration": 8, "velocity": 90}, {"time": 1946, "pitch": 77, "duration": 2, "velocity": 93}, {"time": 1949, "pitch": 75, "duration": 2, "velocity": 86}, {"time": 1952, "pitch": 77, "duration": 2, "velocity": 80}, {"time": 1955, "pitch": 80, "duration": 2, "velocity": 79}, {"time": 1958, "pitch": 77, "duration": 2, "velocity": 86}, {"time": 1961, "pitch": 75, "duration": 2, "velocity": 83}, {"time": 1964, "pitch": 73, "duration": 2, "velocity": 98}, {"time": 1967, "pitch": 70, "duration": 23, "velocity": 83}, {"time": 1991, "pitch": 82, "duration": 5, "velocity": 93}, {"time": 1997, "pitch": 80, "duration": 8, "velocity": 84}, {"time": 2006, "pitch": 77, "duration": 2, "velocity": 86}, {"time": 2009, "pitch": 77, "duration": 5, "velocity": 82}, {"time": 2015, "pitch": 75, "duration": 5, "velocity": 83}, {"time": 2021, "pitch": 75, "duration": 2, "velocity": 86}, {"time": 2024, "pitch": 77, "duration": 8, "velocity": 86}, {"time": 2033, "pitch": 73, "duration": 20, "velocity": 76}, {"time": 2306, "pitch": 86, "duration": 2, "velocity": 94}, {"time": 2309, "pitch": 86, "duration": 2, "velocity": 94}, {"time": 2312, "pitch": 85, "duration": 2, "velocity": 90}, {"time": 2315, "pitch": 86, "duration": 2, "velocity": 84}, {"time": 2318, "pitch": 85, "duration": 2, "velocity": 93}, {"time": 2321, "pitch": 85, "duration": 2, "velocity": 86}, {"time": 2324, "pitch": 83, "duration": 5, "velocity": 86}, {"time": 2330, "pitch": 83, "duration": 2, "velocity": 95}, {"time": 2333, "pitch": 83, "duration": 2, "velocity": 93}, {"time": 2336, "pitch": 81, "duration": 2, "velocity": 90}, {"time": 2339, "pitch": 83, "duration": 2, "velocity": 91}, {"time": 2342, "pitch": 85, "duration": 5, "velocity": 100}, {"time": 2348, "pitch": 78, "duration": 11, "velocity": 104}, {"time": 2360, "pitch": 78, "duration": 2, "velocity": 90}, {"time": 2363, "pitch": 78, "duration": 2, "velocity": 84}, {"time": 2366, "pitch": 81, "duration": 2, "velocity": 90}, {"time": 2369, "pitch": 83, "duration": 5, "velocity": 86}, {"time": 2375, "pitch": 83, "duration": 2, "velocity": 81}, {"time": 2378, "pitch": 83, "duration": 2, "velocity": 84}, {"time": 2381, "pitch": 83, "duration": 2, "velocity": 91}, {"time": 2384, "pitch": 81, "duration": 2, "velocity": 90}, {"time": 2387, "pitch": 78, "duration": 2, "velocity": 91}, {"time": 2390, "pitch": 76, "duration": 2, "velocity": 86}, {"time": 2393, "pitch": 78, "duration": 8, "velocity": 91}, {"time": 2402, "pitch": 78, "duration": 2, "velocity": 84}, {"time": 2405, "pitch": 76, "duration": 2, "velocity": 84}, {"time": 2408, "pitch": 78, "duration": 2, "velocity": 80}, {"time": 2411, "pitch": 76, "duration": 2, "velocity": 84}, {"time": 2414, "pitch": 71, "duration": 2, "velocity": 86}, {"time": 2417, "pitch": 74, "duration": 8, "velocity": 93}, {"time": 2426, "pitch": 78, "duration": 2, "velocity": 98}, {"time": 2429, "pitch": 76, "duration": 2, "velocity": 91}, {"time": 2432, "pitch": 78, "duration": 2, "velocity": 84}, {"time": 2435, "pitch": 76, "duration": 2, "velocity": 94}, {"time": 2438, "pitch": 71, "duration": 2, "velocity": 94}, {"time": 2441, "pitch": 74, "duration": 8, "velocity": 94}, {"time": 2450, "pitch": 78, "duration": 2, "velocity": 93}, {"time": 2453, "pitch": 76, "duration": 2, "velocity": 84}, {"time": 2456, "pitch": 78, "duration": 2, "velocity": 84}, {"time": 2459, "pitch": 76, "duration": 2, "velocity": 84}, {"time": 2462, "pitch": 71, "duration": 2, "velocity": 82}, {"time": 2465, "pitch": 83, "duration": 2, "velocity": 83}, {"time": 2468, "pitch": 81, "duration": 2, "velocity": 90}, {"time": 2471, "pitch": 81, "duration": 2, "velocity": 93}, {"time": 2474, "pitch": 81, "duration": 2, "velocity": 90}, {"time": 2477, "pitch": 83, "duration": 2, "velocity": 93}, {"time": 2480, "pitch": 81, "duration": 2, "velocity": 86}, {"time": 2483, "pitch": 81, "duration": 2, "velocity": 90}, {"time": 2486, "pitch": 78, "duration": 5, "velocity": 86}, {"time": 2492, "pitch": 76, "duration": 5, "velocity": 86}, {"time": 2498, "pitch": 86, "duration": 2, "velocity": 93}, {"time": 2501, "pitch": 86, "duration": 2, "velocity": 90}, {"time": 2504, "pitch": 85, "duration": 2, "velocity": 84}, {"time": 2507, "pitch": 86, "duration": 2, "velocity": 94}, {"time": 2510, "pitch": 85, "duration": 2, "velocity": 98}, {"time": 2513, "pitch": 85, "duration": 2, "velocity": 95}, {"time": 2516, "pitch": 83, "duration": 5, "velocity": 93}, {"time": 2522, "pitch": 83, "duration": 2, "velocity": 86}, {"time": 2525, "pitch": 83, "duration": 2, "velocity": 98}, {"time": 2528, "pitch": 81, "duration": 2, "velocity": 83}, {"time": 2531, "pitch": 83, "duration": 2, "velocity": 90}, {"time": 2534, "pitch": 85, "duration": 5, "velocity": 80}, {"time": 2540, "pitch": 78, "duration": 11, "velocity": 98}, {"time": 2552, "pitch": 78, "duration": 2, "velocity": 93}, {"time": 2555, "pitch": 78, "duration": 2, "velocity": 84}, {"time": 2558, "pitch": 81, "duration": 2, "velocity": 84}, {"time": 2561, "pitch": 83, "duration": 2, "velocity": 84}, {"time": 2564, "pitch": 83, "duration": 5, "velocity": 90}, {"time": 2570, "pitch": 83, "duration": 2, "velocity": 84}, {"time": 2573, "pitch": 83, "duration": 2, "velocity": 93}, {"time": 2576, "pitch": 81, "duration": 2, "velocity": 84}, {"time": 2579, "pitch": 78, "duration": 2, "velocity": 90}, {"time": 2582, "pitch": 76, "duration": 2, "velocity": 84}, {"time": 2585, "pitch": 78, "duration": 8, "velocity": 98}, {"time": 2594, "pitch": 78, "duration": 2, "velocity": 84}, {"time": 2597, "pitch": 76, "duration": 2, "velocity": 82}, {"time": 2600, "pitch": 78, "duration": 2, "velocity": 76}, {"time": 2603, "pitch": 76, "duration": 2, "velocity": 81}, {"time": 2606, "pitch": 71, "duration": 2, "velocity": 83}, {"time": 2609, "pitch": 74, "duration": 8, "velocity": 90}, {"time": 2618, "pitch": 78, "duration": 2, "velocity": 93}, {"time": 2621, "pitch": 76, "duration": 2, "velocity": 86}, {"time": 2624, "pitch": 78, "duration": 2, "velocity": 80}, {"time": 2627, "pitch": 81, "duration": 2, "velocity": 79}, {"time": 2630, "pitch": 78, "duration": 2, "velocity": 86}, {"time": 2633, "pitch": 76, "duration": 2, "velocity": 83}, {"time": 2636, "pitch": 74, "duration": 2, "velocity": 98}, {"time": 2639, "pitch": 71, "duration": 23, "velocity": 83}, {"time": 2678, "pitch": 71, "duration": 2, "velocity": 84}, {"time": 2681, "pitch": 69, "duration": 7, "velocity": 73}, {"time": 2687, "pitch": 81, "duration": 2, "velocity": 48}, {"time": 2690, "pitch": 83, "duration": 3, "velocity": 84}, {"time": 2693, "pitch": 81, "duration": 9, "velocity": 84}, {"time": 2702, "pitch": 78, "duration": 5, "velocity": 84}, {"time": 2705, "pitch": 78, "duration": 2, "velocity": 84}, {"time": 2711, "pitch": 76, "duration": 8, "velocity": 84}, {"time": 2717, "pitch": 76, "duration": 2, "velocity": 83}, {"time": 2720, "pitch": 78, "duration": 2, "velocity": 83}, {"time": 2729, "pitch": 74, "duration": 2, "velocity": 83}, {"time": 2732, "pitch": 74, "duration": 2, "velocity": 83}]}, {"program": 0, "is_drum": false, "name": "BRIDGE", "notes": [{"time": 128, "pitch": 73, "duration": 2, "velocity": 86}, {"time": 131, "pitch": 85, "duration": 2, "velocity": 95}, {"time": 134, "pitch": 84, "duration": 5, "velocity": 91}, {"time": 140, "pitch": 73, "duration": 2, "velocity": 78}, {"time": 143, "pitch": 84, "duration": 2, "velocity": 98}, {"time": 146, "pitch": 82, "duration": 8, "velocity": 95}, {"time": 155, "pitch": 82, "duration": 2, "velocity": 98}, {"time": 158, "pitch": 80, "duration": 17, "velocity": 86}, {"time": 176, "pitch": 73, "duration": 2, "velocity": 82}, {"time": 179, "pitch": 85, "duration": 2, "velocity": 90}, {"time": 182, "pitch": 84, "duration": 5, "velocity": 90}, {"time": 188, "pitch": 85, "duration": 2, "velocity": 74}, {"time": 191, "pitch": 84, "duration": 2, "velocity": 95}, {"time": 194, "pitch": 82, "duration": 5, "velocity": 90}, {"time": 200, "pitch": 84, "duration": 2, "velocity": 75}, {"time": 203, "pitch": 82, "duration": 2, "velocity": 91}, {"time": 206, "pitch": 80, "duration": 2, "velocity": 75}, {"time": 209, "pitch": 77, "duration": 32, "velocity": 74}, {"time": 242, "pitch": 77, "duration": 2, "velocity": 84}, {"time": 242, "pitch": 89, "duration": 2, "velocity": 84}, {"time": 245, "pitch": 75, "duration": 2, "velocity": 84}, {"time": 245, "pitch": 87, "duration": 2, "velocity": 84}, {"time": 248, "pitch": 77, "duration": 2, "velocity": 86}, {"time": 248, "pitch": 89, "duration": 2, "velocity": 86}, {"time": 251, "pitch": 75, "duration": 2, "velocity": 93}, {"time": 251, "pitch": 87, "duration": 2, "velocity": 93}, {"time": 254, "pitch": 70, "duration": 2, "velocity": 86}, {"time": 254, "pitch": 82, "duration": 2, "velocity": 86}, {"time": 257, "pitch": 73, "duration": 8, "velocity": 86}, {"time": 257, "pitch": 85, "duration": 8, "velocity": 86}, {"time": 266, "pitch": 77, "duration": 2, "velocity": 82}, {"time": 266, "pitch": 89, "duration": 2, "velocity": 82}, {"time": 269, "pitch": 75, "duration": 2, "velocity": 80}, {"time": 269, "pitch": 87, "duration": 2, "velocity": 80}, {"time": 272, "pitch": 77, "duration": 2, "velocity": 78}, {"time": 272, "pitch": 89, "duration": 2, "velocity": 78}, {"time": 275, "pitch": 80, "duration": 2, "velocity": 90}, {"time": 275, "pitch": 92, "duration": 2, "velocity": 90}, {"time": 278, "pitch": 77, "duration": 2, "velocity": 90}, {"time": 278, "pitch": 89, "duration": 2, "velocity": 90}, {"time": 281, "pitch": 75, "duration": 23, "velocity": 90}, {"time": 281, "pitch": 87, "duration": 23, "velocity": 90}, {"time": 1316, "pitch": 78, "duration": 2, "velocity": 58}, {"time": 1316, "pitch": 90, "duration": 2, "velocity": 58}, {"time": 1319, "pitch": 77, "duration": 2, "velocity": 82}, {"time": 1319, "pitch": 89, "duration": 2, "velocity": 82}, {"time": 1322, "pitch": 70, "duration": 2, "velocity": 78}, {"time": 1322, "pitch": 82, "duration": 2, "velocity": 78}, {"time": 1325, "pitch": 73, "duration": 5, "velocity": 84}, {"time": 1325, "pitch": 85, "duration": 5, "velocity": 84}, {"time": 1331, "pitch": 82, "duration": 5, "velocity": 83}, {"time": 1331, "pitch": 94, "duration": 5, "velocity": 83}, {"time": 1337, "pitch": 82, "duration": 2, "velocity": 83}, {"time": 1337, "pitch": 94, "duration": 2, "velocity": 83}, {"time": 1340, "pitch": 84, "duration": 2, "velocity": 82}, {"time": 1340, "pitch": 96, "duration": 2, "velocity": 82}, {"time": 1343, "pitch": 82, "duration": 2, "velocity": 80}, {"time": 1343, "pitch": 94, "duration": 2, "velocity": 80}, {"time": 1346, "pitch": 80, "duration": 2, "velocity": 78}, {"time": 1346, "pitch": 92, "duration": 2, "velocity": 78}, {"time": 1349, "pitch": 77, "duration": 5, "velocity": 86}, {"time": 1349, "pitch": 89, "duration": 5, "velocity": 86}, {"time": 1355, "pitch": 70, "duration": 5, "velocity": 84}, {"time": 1355, "pitch": 82, "duration": 5, "velocity": 84}, {"time": 1361, "pitch": 73, "duration": 17, "velocity": 91}, {"time": 1361, "pitch": 85, "duration": 17, "velocity": 91}, {"time": 1379, "pitch": 70, "duration": 5, "velocity": 91}, {"time": 1379, "pitch": 82, "duration": 5, "velocity": 91}, {"time": 1385, "pitch": 68, "duration": 39, "velocity": 91}, {"time": 1385, "pitch": 80, "duration": 39, "velocity": 91}, {"time": 2081, "pitch": 77, "duration": 14, "velocity": 98}, {"time": 2081, "pitch": 89, "duration": 14, "velocity": 98}, {"time": 2096, "pitch": 82, "duration": 2, "velocity": 90}, {"time": 2096, "pitch": 94, "duration": 2, "velocity": 90}, {"time": 2099, "pitch": 77, "duration": 2, "velocity": 84}, {"time": 2099, "pitch": 89, "duration": 2, "velocity": 84}, {"time": 2102, "pitch": 75, "duration": 2, "velocity": 90}, {"time": 2102, "pitch": 87, "duration": 2, "velocity": 90}, {"time": 2105, "pitch": 77, "duration": 17, "velocity": 84}, {"time": 2105, "pitch": 89, "duration": 17, "velocity": 84}, {"time": 2123, "pitch": 70, "duration": 5, "velocity": 93}, {"time": 2123, "pitch": 82, "duration": 5, "velocity": 93}, {"time": 2129, "pitch": 68, "duration": 14, "velocity": 93}, {"time": 2129, "pitch": 80, "duration": 14, "velocity": 93}, {"time": 2144, "pitch": 65, "duration": 2, "velocity": 83}, {"time": 2144, "pitch": 77, "duration": 2, "velocity": 83}, {"time": 2147, "pitch": 68, "duration": 2, "velocity": 82}, {"time": 2147, "pitch": 80, "duration": 2, "velocity": 82}, {"time": 2150, "pitch": 65, "duration": 2, "velocity": 83}, {"time": 2150, "pitch": 77, "duration": 2, "velocity": 83}, {"time": 2153, "pitch": 72, "duration": 5, "velocity": 94}, {"time": 2153, "pitch": 84, "duration": 5, "velocity": 94}, {"time": 2159, "pitch": 70, "duration": 5, "velocity": 86}, {"time": 2159, "pitch": 82, "duration": 5, "velocity": 86}, {"time": 2165, "pitch": 68, "duration": 5, "velocity": 86}, {"time": 2165, "pitch": 80, "duration": 5, "velocity": 86}, {"time": 2171, "pitch": 65, "duration": 5, "velocity": 91}, {"time": 2171, "pitch": 77, "duration": 5, "velocity": 91}, {"time": 2177, "pitch": 65, "duration": 2, "velocity": 84}, {"time": 2177, "pitch": 77, "duration": 2, "velocity": 84}, {"time": 2180, "pitch": 66, "duration": 2, "velocity": 83}, {"time": 2180, "pitch": 78, "duration": 2, "velocity": 83}, {"time": 2183, "pitch": 65, "duration": 2, "velocity": 79}, {"time": 2183, "pitch": 77, "duration": 2, "velocity": 79}, {"time": 2186, "pitch": 58, "duration": 2, "velocity": 84}, {"time": 2186, "pitch": 70, "duration": 2, "velocity": 84}, {"time": 2189, "pitch": 61, "duration": 5, "velocity": 90}, {"time": 2189, "pitch": 73, "duration": 5, "velocity": 90}, {"time": 2195, "pitch": 63, "duration": 2, "velocity": 84}, {"time": 2195, "pitch": 75, "duration": 2, "velocity": 84}, {"time": 2198, "pitch": 65, "duration": 14, "velocity": 84}, {"time": 2198, "pitch": 77, "duration": 14, "velocity": 84}, {"time": 2213, "pitch": 70, "duration": 2, "velocity": 95}, {"time": 2213, "pitch": 82, "duration": 2, "velocity": 95}, {"time": 2216, "pitch": 72, "duration": 5, "velocity": 91}, {"time": 2216, "pitch": 84, "duration": 5, "velocity": 91}, {"time": 2222, "pitch": 73, "duration": 2, "velocity": 91}, {"time": 2222, "pitch": 85, "duration": 2, "velocity": 91}, {"time": 2225, "pitch": 77, "duration": 14, "velocity": 94}, {"time": 2225, "pitch": 89, "duration": 14, "velocity": 94}, {"time": 2240, "pitch": 68, "duration": 2, "velocity": 86}, {"time": 2240, "pitch": 80, "duration": 2, "velocity": 86}, {"time": 2243, "pitch": 78, "duration": 2, "velocity": 95}, {"time": 2243, "pitch": 90, "duration": 2, "velocity": 95}, {"time": 2246, "pitch": 77, "duration": 2, "velocity": 90}, {"time": 2246, "pitch": 89, "duration": 2, "velocity": 90}, {"time": 2249, "pitch": 75, "duration": 35, "velocity": 86}, {"time": 2249, "pitch": 87, "duration": 35, "velocity": 86}, {"time": 2285, "pitch": 74, "duration": 5, "velocity": 90}, {"time": 2285, "pitch": 86, "duration": 5, "velocity": 93}, {"time": 2291, "pitch": 74, "duration": 5, "velocity": 81}, {"time": 2291, "pitch": 86, "duration": 5, "velocity": 90}, {"time": 2297, "pitch": 76, "duration": 11, "velocity": 81}, {"time": 2297, "pitch": 88, "duration": 11, "velocity": 93}, {"time": 2309, "pitch": 78, "duration": 5, "velocity": 82}, {"time": 2309, "pitch": 90, "duration": 5, "velocity": 93}, {"time": 2315, "pitch": 79, "duration": 5, "velocity": 77}, {"time": 2315, "pitch": 91, "duration": 5, "velocity": 93}], "annotations": [{"time": 179, "annotation": {"number": 64, "value": 127}, "group": "control_change"}, {"time": 180, "annotation": {"number": 64, "value": 0}, "group": "control_change"}, {"time": 207, "annotation": {"number": 64, "value": 0}, "group": "control_change"}, {"time": 209, "annotation": {"number": 64, "value": 127}, "group": "control_change"}, {"time": 243, "annotation": {"number": 64, "value": 127}, "group": "control_change"}, {"time": 243, "annotation": {"number": 64, "value": 0}, "group": "control_change"}, {"time": 255, "annotation": {"number": 64, "value": 0}, "group": "control_change"}, {"time": 257, "annotation": {"number": 64, "value": 0}, "group": "control_change"}, {"time": 258, "annotation": {"number": 64, "value": 127}, "group": "control_change"}, {"time": 277, "annotation": {"number": 64, "value": 0}, "group": "control_change"}]}, {"program": 0, "is_drum": false, "name": "PIANO", "notes": [{"time": 17, "pitch": 37, "duration": 2, "velocity": 84}, {"time": 20, "pitch": 49, "duration": 3, "velocity": 75}, {"time": 23, "pitch": 53, "duration": 13, "velocity": 72}, {"time": 23, "pitch": 77, "duration": 1, "velocity": 77}, {"time": 23, "pitch": 85, "duration": 1, "velocity": 84}, {"time": 26, "pitch": 56, "duration": 10, "velocity": 73}, {"time": 26, "pitch": 75, "duration": 1, "velocity": 78}, {"time": 26, "pitch": 84, "duration": 1, "velocity": 86}, {"time": 32, "pitch": 72, "duration": 1, "velocity": 74}, {"time": 32, "pitch": 80, "duration": 1, "velocity": 82}, {"time": 38, "pitch": 68, "duration": 22, "velocity": 63}, {"time": 38, "pitch": 73, "duration": 22, "velocity": 76}, {"time": 38, "pitch": 77, "duration": 30, "velocity": 76}, {"time": 41, "pitch": 42, "duration": 3, "velocity": 80}, {"time": 44, "pitch": 49, "duration": 2, "velocity": 79}, {"time": 47, "pitch": 56, "duration": 2, "velocity": 72}, {"time": 50, "pitch": 58, "duration": 12, "velocity": 47}, {"time": 53, "pitch": 61, "duration": 9, "velocity": 73}, {"time": 65, "pitch": 37, "duration": 4, "velocity": 94}, {"time": 68, "pitch": 44, "duration": 2, "velocity": 81}, {"time": 68, "pitch": 77, "duration": 1, "velocity": 83}, {"time": 71, "pitch": 49, "duration": 1, "velocity": 79}, {"time": 71, "pitch": 77, "duration": 2, "velocity": 57}, {"time": 71, "pitch": 85, "duration": 2, "velocity": 86}, {"time": 74, "pitch": 53, "duration": 8, "velocity": 57}, {"time": 74, "pitch": 75, "duration": 5, "velocity": 90}, {"time": 74, "pitch": 84, "duration": 5, "velocity": 94}, {"time": 80, "pitch": 56, "duration": 3, "velocity": 76}, {"time": 80, "pitch": 77, "duration": 5, "velocity": 95}, {"time": 80, "pitch": 85, "duration": 5, "velocity": 96}, {"time": 83, "pitch": 61, "duration": 1, "velocity": 80}, {"time": 86, "pitch": 75, "duration": 8, "velocity": 82}, {"time": 86, "pitch": 84, "duration": 8, "velocity": 86}, {"time": 89, "pitch": 42, "duration": 5, "velocity": 83}, {"time": 92, "pitch": 49, "duration": 2, "velocity": 82}, {"time": 95, "pitch": 54, "duration": 3, "velocity": 71}, {"time": 95, "pitch": 73, "duration": 2, "velocity": 69}, {"time": 95, "pitch": 80, "duration": 2, "velocity": 71}, {"time": 98, "pitch": 80, "duration": 29, "velocity": 80}, {"time": 101, "pitch": 61, "duration": 2, "velocity": 73}, {"time": 104, "pitch": 66, "duration": 2, "velocity": 73}, {"time": 107, "pitch": 70, "duration": 2, "velocity": 73}, {"time": 110, "pitch": 77, "duration": 2, "velocity": 73}, {"time": 113, "pitch": 73, "duration": 14, "velocity": 73}, {"time": 137, "pitch": 42, "duration": 2, "velocity": 82}, {"time": 137, "pitch": 61, "duration": 6, "velocity": 83}, {"time": 137, "pitch": 66, "duration": 8, "velocity": 83}, {"time": 137, "pitch": 70, "duration": 8, "velocity": 84}, {"time": 140, "pitch": 54, "duration": 3, "velocity": 82}, {"time": 143, "pitch": 56, "duration": 3, "velocity": 81}, {"time": 146, "pitch": 58, "duration": 8, "velocity": 90}, {"time": 149, "pitch": 61, "duration": 1, "velocity": 95}, {"time": 152, "pitch": 66, "duration": 2, "velocity": 90}, {"time": 155, "pitch": 68, "duration": 2, "velocity": 86}, {"time": 158, "pitch": 73, "duration": 9, "velocity": 86}, {"time": 161, "pitch": 49, "duration": 19, "velocity": 77}, {"time": 161, "pitch": 65, "duration": 5, "velocity": 59}, {"time": 161, "pitch": 68, "duration": 6, "velocity": 84}, {"time": 164, "pitch": 56, "duration": 17, "velocity": 79}, {"time": 167, "pitch": 61, "duration": 3, "velocity": 96}, {"time": 170, "pitch": 63, "duration": 1, "velocity": 91}, {"time": 170, "pitch": 68, "duration": 2, "velocity": 86}, {"time": 173, "pitch": 65, "duration": 1, "velocity": 82}, {"time": 173, "pitch": 68, "duration": 2, "velocity": 80}, {"time": 176, "pitch": 65, "duration": 1, "velocity": 83}, {"time": 176, "pitch": 73, "duration": 2, "velocity": 86}, {"time": 179, "pitch": 61, "duration": 1, "velocity": 78}, {"time": 179, "pitch": 65, "duration": 1, "velocity": 82}, {"time": 179, "pitch": 72, "duration": 2, "velocity": 84}, {"time": 182, "pitch": 65, "duration": 1, "velocity": 79}, {"time": 182, "pitch": 73, "duration": 10, "velocity": 91}, {"time": 185, "pitch": 42, "duration": 2, "velocity": 91}, {"time": 185, "pitch": 61, "duration": 7, "velocity": 90}, {"time": 185, "pitch": 66, "duration": 7, "velocity": 84}, {"time": 185, "pitch": 70, "duration": 8, "velocity": 83}, {"time": 188, "pitch": 54, "duration": 3, "velocity": 75}, {"time": 191, "pitch": 56, "duration": 10, "velocity": 75}, {"time": 194, "pitch": 58, "duration": 8, "velocity": 83}, {"time": 197, "pitch": 61, "duration": 1, "velocity": 93}, {"time": 200, "pitch": 66, "duration": 2, "velocity": 90}, {"time": 203, "pitch": 68, "duration": 1, "velocity": 80}, {"time": 206, "pitch": 70, "duration": 2, "velocity": 78}, {"time": 209, "pitch": 46, "duration": 5, "velocity": 83}, {"time": 209, "pitch": 65, "duration": 4, "velocity": 82}, {"time": 209, "pitch": 73, "duration": 5, "velocity": 90}, {"time": 212, "pitch": 53, "duration": 3, "velocity": 76}, {"time": 215, "pitch": 58, "duration": 3, "velocity": 55}, {"time": 215, "pitch": 65, "duration": 1, "velocity": 81}, {"time": 215, "pitch": 72, "duration": 1, "velocity": 84}, {"time": 218, "pitch": 60, "duration": 6, "velocity": 78}, {"time": 221, "pitch": 61, "duration": 5, "velocity": 79}, {"time": 221, "pitch": 65, "duration": 1, "velocity": 83}, {"time": 221, "pitch": 73, "duration": 1, "velocity": 94}, {"time": 227, "pitch": 65, "duration": 1, "velocity": 81}, {"time": 227, "pitch": 70, "duration": 1, "velocity": 82}, {"time": 230, "pitch": 65, "duration": 1, "velocity": 45}, {"time": 230, "pitch": 73, "duration": 1, "velocity": 82}, {"time": 233, "pitch": 46, "duration": 4, "velocity": 75}, {"time": 233, "pitch": 65, "duration": 3, "velocity": 72}, {"time": 233, "pitch": 72, "duration": 2, "velocity": 81}, {"time": 236, "pitch": 53, "duration": 2, "velocity": 75}, {"time": 236, "pitch": 58, "duration": 3, "velocity": 63}, {"time": 236, "pitch": 72, "duration": 4, "velocity": 79}, {"time": 239, "pitch": 60, "duration": 9, "velocity": 44}, {"time": 242, "pitch": 61, "duration": 6, "velocity": 79}, {"time": 245, "pitch": 65, "duration": 1, "velocity": 68}, {"time": 248, "pitch": 70, "duration": 2, "velocity": 79}, {"time": 251, "pitch": 73, "duration": 1, "velocity": 83}, {"time": 254, "pitch": 68, "duration": 2, "velocity": 80}, {"time": 257, "pitch": 42, "duration": 5, "velocity": 83}, {"time": 257, "pitch": 61, "duration": 13, "velocity": 84}, {"time": 257, "pitch": 66, "duration": 13, "velocity": 79}, {"time": 257, "pitch": 70, "duration": 12, "velocity": 79}, {"time": 260, "pitch": 49, "duration": 3, "velocity": 80}, {"time": 263, "pitch": 54, "duration": 3, "velocity": 83}, {"time": 266, "pitch": 56, "duration": 6, "velocity": 78}, {"time": 269, "pitch": 58, "duration": 4, "velocity": 83}, {"time": 272, "pitch": 61, "duration": 2, "velocity": 90}, {"time": 275, "pitch": 66, "duration": 2, "velocity": 84}, {"time": 278, "pitch": 68, "duration": 1, "velocity": 78}, {"time": 281, "pitch": 44, "duration": 4, "velocity": 84}, {"time": 281, "pitch": 63, "duration": 13, "velocity": 83}, {"time": 281, "pitch": 68, "duration": 12, "velocity": 79}, {"time": 281, "pitch": 72, "duration": 11, "velocity": 90}, {"time": 284, "pitch": 51, "duration": 2, "velocity": 80}, {"time": 287, "pitch": 56, "duration": 3, "velocity": 84}, {"time": 290, "pitch": 58, "duration": 55, "velocity": 76}, {"time": 293, "pitch": 60, "duration": 52, "velocity": 84}, {"time": 296, "pitch": 63, "duration": 3, "velocity": 75}, {"time": 299, "pitch": 68, "duration": 3, "velocity": 78}, {"time": 302, "pitch": 72, "duration": 3, "velocity": 78}, {"time": 305, "pitch": 75, "duration": 17, "velocity": 81}, {"time": 377, "pitch": 49, "duration": 21, "velocity": 75}, {"time": 377, "pitch": 63, "duration": 6, "velocity": 68}, {"time": 377, "pitch": 65, "duration": 6, "velocity": 68}, {"time": 377, "pitch": 68, "duration": 6, "velocity": 69}, {"time": 377, "pitch": 73, "duration": 6, "velocity": 71}, {"time": 380, "pitch": 56, "duration": 21, "velocity": 57}, {"time": 383, "pitch": 61, "duration": 7, "velocity": 50}, {"time": 386, "pitch": 63, "duration": 9, "velocity": 69}, {"time": 389, "pitch": 68, "duration": 8, "velocity": 79}, {"time": 401, "pitch": 49, "duration": 6, "velocity": 70}, {"time": 401, "pitch": 63, "duration": 5, "velocity": 59}, {"time": 401, "pitch": 65, "duration": 4, "velocity": 71}, {"time": 401, "pitch": 68, "duration": 4, "velocity": 71}, {"time": 404, "pitch": 56, "duration": 4, "velocity": 72}, {"time": 407, "pitch": 61, "duration": 1, "velocity": 67}, {"time": 410, "pitch": 73, "duration": 3, "velocity": 80}, {"time": 413, "pitch": 48, "duration": 11, "velocity": 84}, {"time": 413, "pitch": 63, "duration": 3, "velocity": 75}, {"time": 413, "pitch": 68, "duration": 3, "velocity": 78}, {"time": 416, "pitch": 60, "duration": 3, "velocity": 62}, {"time": 419, "pitch": 63, "duration": 2, "velocity": 76}, {"time": 422, "pitch": 68, "duration": 2, "velocity": 73}, {"time": 425, "pitch": 46, "duration": 5, "velocity": 75}, {"time": 425, "pitch": 61, "duration": 5, "velocity": 69}, {"time": 425, "pitch": 65, "duration": 8, "velocity": 74}, {"time": 425, "pitch": 68, "duration": 11, "velocity": 53}, {"time": 428, "pitch": 53, "duration": 2, "velocity": 73}, {"time": 431, "pitch": 56, "duration": 3, "velocity": 57}, {"time": 434, "pitch": 58, "duration": 7, "velocity": 63}, {"time": 437, "pitch": 61, "duration": 3, "velocity": 72}, {"time": 440, "pitch": 65, "duration": 3, "velocity": 62}, {"time": 443, "pitch": 68, "duration": 2, "velocity": 69}, {"time": 446, "pitch": 72, "duration": 2, "velocity": 62}, {"time": 449, "pitch": 46, "duration": 8, "velocity": 72}, {"time": 449, "pitch": 65, "duration": 7, "velocity": 59}, {"time": 449, "pitch": 68, "duration": 6, "velocity": 58}, {"time": 449, "pitch": 73, "duration": 6, "velocity": 73}, {"time": 461, "pitch": 44, "duration": 11, "velocity": 79}, {"time": 461, "pitch": 63, "duration": 3, "velocity": 76}, {"time": 461, "pitch": 68, "duration": 3, "velocity": 75}, {"time": 461, "pitch": 72, "duration": 3, "velocity": 79}, {"time": 464, "pitch": 56, "duration": 3, "velocity": 59}, {"time": 467, "pitch": 68, "duration": 3, "velocity": 76}, {"time": 470, "pitch": 73, "duration": 10, "velocity": 81}, {"time": 473, "pitch": 42, "duration": 5, "velocity": 79}, {"time": 473, "pitch": 61, "duration": 7, "velocity": 73}, {"time": 473, "pitch": 66, "duration": 7, "velocity": 76}, {"time": 473, "pitch": 70, "duration": 7, "velocity": 71}, {"time": 479, "pitch": 54, "duration": 3, "velocity": 51}, {"time": 482, "pitch": 56, "duration": 10, "velocity": 68}, {"time": 485, "pitch": 61, "duration": 6, "velocity": 72}, {"time": 485, "pitch": 66, "duration": 6, "velocity": 79}, {"time": 485, "pitch": 70, "duration": 6, "velocity": 72}, {"time": 491, "pitch": 58, "duration": 1, "velocity": 57}, {"time": 497, "pitch": 53, "duration": 19, "velocity": 76}, {"time": 497, "pitch": 63, "duration": 4, "velocity": 76}, {"time": 497, "pitch": 68, "duration": 4, "velocity": 79}, {"time": 500, "pitch": 60, "duration": 12, "velocity": 79}, {"time": 503, "pitch": 63, "duration": 3, "velocity": 69}, {"time": 506, "pitch": 68, "duration": 9, "velocity": 72}, {"time": 509, "pitch": 63, "duration": 5, "velocity": 7}, {"time": 515, "pitch": 60, "duration": 6, "velocity": 77}, {"time": 521, "pitch": 51, "duration": 19, "velocity": 80}, {"time": 521, "pitch": 61, "duration": 4, "velocity": 78}, {"time": 521, "pitch": 66, "duration": 4, "velocity": 78}, {"time": 521, "pitch": 70, "duration": 4, "velocity": 75}, {"time": 521, "pitch": 73, "duration": 4, "velocity": 60}, {"time": 524, "pitch": 58, "duration": 9, "velocity": 72}, {"time": 527, "pitch": 61, "duration": 3, "velocity": 68}, {"time": 530, "pitch": 70, "duration": 7, "velocity": 68}, {"time": 533, "pitch": 61, "duration": 4, "velocity": 77}, {"time": 533, "pitch": 66, "duration": 4, "velocity": 79}, {"time": 533, "pitch": 73, "duration": 4, "velocity": 73}, {"time": 536, "pitch": 58, "duration": 3, "velocity": 72}, {"time": 539, "pitch": 61, "duration": 3, "velocity": 61}, {"time": 542, "pitch": 66, "duration": 2, "velocity": 75}, {"time": 545, "pitch": 44, "duration": 18, "velocity": 73}, {"time": 545, "pitch": 61, "duration": 5, "velocity": 76}, {"time": 545, "pitch": 66, "duration": 4, "velocity": 62}, {"time": 545, "pitch": 70, "duration": 5, "velocity": 73}, {"time": 557, "pitch": 56, "duration": 1, "velocity": 60}, {"time": 557, "pitch": 58, "duration": 3, "velocity": 69}, {"time": 557, "pitch": 61, "duration": 3, "velocity": 77}, {"time": 557, "pitch": 66, "duration": 3, "velocity": 79}, {"time": 560, "pitch": 56, "duration": 2, "velocity": 57}, {"time": 563, "pitch": 58, "duration": 2, "velocity": 76}, {"time": 566, "pitch": 48, "duration": 3, "velocity": 82}, {"time": 569, "pitch": 49, "duration": 21, "velocity": 84}, {"time": 569, "pitch": 61, "duration": 4, "velocity": 77}, {"time": 569, "pitch": 63, "duration": 4, "velocity": 81}, {"time": 569, "pitch": 65, "duration": 4, "velocity": 76}, {"time": 578, "pitch": 61, "duration": 5, "velocity": 56}, {"time": 581, "pitch": 63, "duration": 7, "velocity": 62}, {"time": 581, "pitch": 65, "duration": 6, "velocity": 67}, {"time": 581, "pitch": 68, "duration": 7, "velocity": 73}, {"time": 587, "pitch": 61, "duration": 3, "velocity": 35}, {"time": 590, "pitch": 56, "duration": 2, "velocity": 55}, {"time": 593, "pitch": 49, "duration": 7, "velocity": 73}, {"time": 593, "pitch": 63, "duration": 5, "velocity": 69}, {"time": 593, "pitch": 68, "duration": 4, "velocity": 77}, {"time": 596, "pitch": 56, "duration": 8, "velocity": 75}, {"time": 599, "pitch": 61, "duration": 1, "velocity": 84}, {"time": 602, "pitch": 68, "duration": 2, "velocity": 82}, {"time": 605, "pitch": 48, "duration": 11, "velocity": 81}, {"time": 605, "pitch": 63, "duration": 7, "velocity": 81}, {"time": 605, "pitch": 72, "duration": 4, "velocity": 86}, {"time": 608, "pitch": 56, "duration": 2, "velocity": 71}, {"time": 611, "pitch": 60, "duration": 1, "velocity": 61}, {"time": 611, "pitch": 75, "duration": 2, "velocity": 80}, {"time": 614, "pitch": 72, "duration": 2, "velocity": 79}, {"time": 617, "pitch": 46, "duration": 5, "velocity": 77}, {"time": 617, "pitch": 65, "duration": 12, "velocity": 74}, {"time": 617, "pitch": 68, "duration": 12, "velocity": 50}, {"time": 617, "pitch": 73, "duration": 13, "velocity": 84}, {"time": 620, "pitch": 53, "duration": 2, "velocity": 75}, {"time": 623, "pitch": 58, "duration": 3, "velocity": 53}, {"time": 626, "pitch": 60, "duration": 8, "velocity": 73}, {"time": 629, "pitch": 61, "duration": 5, "velocity": 76}, {"time": 632, "pitch": 65, "duration": 3, "velocity": 54}, {"time": 635, "pitch": 70, "duration": 2, "velocity": 72}, {"time": 641, "pitch": 65, "duration": 6, "velocity": 52}, {"time": 641, "pitch": 73, "duration": 4, "velocity": 68}, {"time": 650, "pitch": 63, "duration": 3, "velocity": 50}, {"time": 650, "pitch": 68, "duration": 3, "velocity": 72}, {"time": 653, "pitch": 44, "duration": 7, "velocity": 78}, {"time": 653, "pitch": 75, "duration": 3, "velocity": 79}, {"time": 656, "pitch": 56, "duration": 4, "velocity": 62}, {"time": 659, "pitch": 63, "duration": 2, "velocity": 78}, {"time": 662, "pitch": 68, "duration": 2, "velocity": 75}, {"time": 665, "pitch": 42, "duration": 17, "velocity": 73}, {"time": 665, "pitch": 54, "duration": 12, "velocity": 58}, {"time": 665, "pitch": 61, "duration": 7, "velocity": 78}, {"time": 665, "pitch": 66, "duration": 7, "velocity": 76}, {"time": 665, "pitch": 70, "duration": 7, "velocity": 75}, {"time": 665, "pitch": 73, "duration": 7, "velocity": 58}, {"time": 677, "pitch": 61, "duration": 3, "velocity": 68}, {"time": 677, "pitch": 66, "duration": 3, "velocity": 75}, {"time": 677, "pitch": 70, "duration": 3, "velocity": 59}, {"time": 677, "pitch": 73, "duration": 3, "velocity": 38}, {"time": 680, "pitch": 54, "duration": 9, "velocity": 63}, {"time": 683, "pitch": 61, "duration": 2, "velocity": 72}, {"time": 686, "pitch": 73, "duration": 1, "velocity": 78}, {"time": 689, "pitch": 53, "duration": 7, "velocity": 83}, {"time": 689, "pitch": 63, "duration": 7, "velocity": 75}, {"time": 689, "pitch": 68, "duration": 7, "velocity": 74}, {"time": 689, "pitch": 72, "duration": 5, "velocity": 80}, {"time": 704, "pitch": 72, "duration": 3, "velocity": 79}, {"time": 713, "pitch": 51, "duration": 9, "velocity": 72}, {"time": 713, "pitch": 61, "duration": 3, "velocity": 68}, {"time": 713, "pitch": 66, "duration": 3, "velocity": 67}, {"time": 713, "pitch": 70, "duration": 3, "velocity": 63}, {"time": 716, "pitch": 58, "duration": 7, "velocity": 69}, {"time": 719, "pitch": 61, "duration": 2, "velocity": 82}, {"time": 722, "pitch": 66, "duration": 1, "velocity": 82}, {"time": 725, "pitch": 56, "duration": 7, "velocity": 79}, {"time": 725, "pitch": 61, "duration": 4, "velocity": 75}, {"time": 725, "pitch": 70, "duration": 6, "velocity": 78}, {"time": 734, "pitch": 68, "duration": 2, "velocity": 58}, {"time": 737, "pitch": 49, "duration": 17, "velocity": 78}, {"time": 737, "pitch": 66, "duration": 5, "velocity": 80}, {"time": 740, "pitch": 56, "duration": 18, "velocity": 68}, {"time": 743, "pitch": 61, "duration": 4, "velocity": 56}, {"time": 746, "pitch": 63, "duration": 3, "velocity": 69}, {"time": 746, "pitch": 68, "duration": 5, "velocity": 76}, {"time": 752, "pitch": 61, "duration": 3, "velocity": 55}, {"time": 755, "pitch": 63, "duration": 3, "velocity": 75}, {"time": 758, "pitch": 65, "duration": 3, "velocity": 73}, {"time": 761, "pitch": 49, "duration": 8, "velocity": 75}, {"time": 761, "pitch": 63, "duration": 3, "velocity": 75}, {"time": 761, "pitch": 68, "duration": 4, "velocity": 75}, {"time": 764, "pitch": 56, "duration": 7, "velocity": 68}, {"time": 767, "pitch": 61, "duration": 1, "velocity": 68}, {"time": 770, "pitch": 63, "duration": 1, "velocity": 68}, {"time": 773, "pitch": 48, "duration": 6, "velocity": 79}, {"time": 773, "pitch": 63, "duration": 4, "velocity": 73}, {"time": 773, "pitch": 68, "duration": 4, "velocity": 71}, {"time": 776, "pitch": 56, "duration": 4, "velocity": 75}, {"time": 779, "pitch": 60, "duration": 1, "velocity": 72}, {"time": 785, "pitch": 46, "duration": 4, "velocity": 77}, {"time": 785, "pitch": 65, "duration": 4, "velocity": 76}, {"time": 785, "pitch": 73, "duration": 3, "velocity": 90}, {"time": 788, "pitch": 53, "duration": 2, "velocity": 76}, {"time": 788, "pitch": 72, "duration": 2, "velocity": 80}, {"time": 791, "pitch": 58, "duration": 3, "velocity": 53}, {"time": 791, "pitch": 65, "duration": 6, "velocity": 74}, {"time": 791, "pitch": 73, "duration": 5, "velocity": 82}, {"time": 794, "pitch": 60, "duration": 4, "velocity": 78}, {"time": 797, "pitch": 61, "duration": 5, "velocity": 82}, {"time": 800, "pitch": 65, "duration": 2, "velocity": 69}, {"time": 803, "pitch": 60, "duration": 2, "velocity": 70}, {"time": 803, "pitch": 65, "duration": 2, "velocity": 25}, {"time": 803, "pitch": 72, "duration": 2, "velocity": 79}, {"time": 806, "pitch": 58, "duration": 1, "velocity": 70}, {"time": 806, "pitch": 73, "duration": 2, "velocity": 80}, {"time": 809, "pitch": 44, "duration": 4, "velocity": 76}, {"time": 809, "pitch": 63, "duration": 7, "velocity": 72}, {"time": 809, "pitch": 68, "duration": 8, "velocity": 71}, {"time": 809, "pitch": 72, "duration": 11, "velocity": 83}, {"time": 812, "pitch": 53, "duration": 2, "velocity": 55}, {"time": 815, "pitch": 56, "duration": 3, "velocity": 57}, {"time": 818, "pitch": 60, "duration": 8, "velocity": 75}, {"time": 821, "pitch": 63, "duration": 4, "velocity": 78}, {"time": 824, "pitch": 72, "duration": 3, "velocity": 83}, {"time": 827, "pitch": 73, "duration": 2, "velocity": 83}, {"time": 830, "pitch": 68, "duration": 2, "velocity": 77}, {"time": 833, "pitch": 42, "duration": 4, "velocity": 79}, {"time": 833, "pitch": 61, "duration": 8, "velocity": 72}, {"time": 833, "pitch": 66, "duration": 8, "velocity": 77}, {"time": 833, "pitch": 70, "duration": 8, "velocity": 71}, {"time": 836, "pitch": 49, "duration": 3, "velocity": 77}, {"time": 839, "pitch": 54, "duration": 5, "velocity": 57}, {"time": 842, "pitch": 51, "duration": 1, "velocity": 17}, {"time": 845, "pitch": 44, "duration": 4, "velocity": 76}, {"time": 845, "pitch": 63, "duration": 3, "velocity": 76}, {"time": 845, "pitch": 68, "duration": 5, "velocity": 81}, {"time": 848, "pitch": 51, "duration": 2, "velocity": 78}, {"time": 851, "pitch": 56, "duration": 4, "velocity": 63}, {"time": 851, "pitch": 61, "duration": 2, "velocity": 76}, {"time": 851, "pitch": 66, "duration": 3, "velocity": 84}, {"time": 854, "pitch": 58, "duration": 2, "velocity": 69}, {"time": 857, "pitch": 49, "duration": 9, "velocity": 82}, {"time": 857, "pitch": 63, "duration": 3, "velocity": 75}, {"time": 857, "pitch": 65, "duration": 6, "velocity": 80}, {"time": 857, "pitch": 68, "duration": 3, "velocity": 76}, {"time": 860, "pitch": 56, "duration": 8, "velocity": 76}, {"time": 863, "pitch": 61, "duration": 2, "velocity": 71}, {"time": 866, "pitch": 63, "duration": 1, "velocity": 47}, {"time": 866, "pitch": 65, "duration": 3, "velocity": 80}, {"time": 869, "pitch": 48, "duration": 8, "velocity": 76}, {"time": 869, "pitch": 63, "duration": 5, "velocity": 78}, {"time": 869, "pitch": 68, "duration": 5, "velocity": 80}, {"time": 872, "pitch": 56, "duration": 5, "velocity": 75}, {"time": 875, "pitch": 60, "duration": 2, "velocity": 80}, {"time": 878, "pitch": 68, "duration": 2, "velocity": 76}, {"time": 881, "pitch": 46, "duration": 5, "velocity": 80}, {"time": 881, "pitch": 61, "duration": 1, "velocity": 83}, {"time": 884, "pitch": 53, "duration": 2, "velocity": 76}, {"time": 887, "pitch": 58, "duration": 3, "velocity": 46}, {"time": 890, "pitch": 60, "duration": 3, "velocity": 71}, {"time": 890, "pitch": 65, "duration": 1, "velocity": 74}, {"time": 890, "pitch": 73, "duration": 2, "velocity": 84}, {"time": 893, "pitch": 61, "duration": 2, "velocity": 57}, {"time": 893, "pitch": 63, "duration": 1, "velocity": 76}, {"time": 893, "pitch": 72, "duration": 1, "velocity": 81}, {"time": 896, "pitch": 60, "duration": 2, "velocity": 59}, {"time": 896, "pitch": 65, "duration": 1, "velocity": 72}, {"time": 896, "pitch": 73, "duration": 1, "velocity": 82}, {"time": 899, "pitch": 58, "duration": 2, "velocity": 54}, {"time": 899, "pitch": 72, "duration": 1, "velocity": 78}, {"time": 902, "pitch": 53, "duration": 1, "velocity": 79}, {"time": 902, "pitch": 68, "duration": 2, "velocity": 76}, {"time": 905, "pitch": 42, "duration": 3, "velocity": 77}, {"time": 905, "pitch": 61, "duration": 4, "velocity": 71}, {"time": 905, "pitch": 66, "duration": 10, "velocity": 73}, {"time": 905, "pitch": 70, "duration": 10, "velocity": 77}, {"time": 908, "pitch": 49, "duration": 2, "velocity": 73}, {"time": 911, "pitch": 54, "duration": 3, "velocity": 60}, {"time": 914, "pitch": 56, "duration": 4, "velocity": 75}, {"time": 917, "pitch": 58, "duration": 7, "velocity": 79}, {"time": 920, "pitch": 61, "duration": 2, "velocity": 79}, {"time": 923, "pitch": 56, "duration": 5, "velocity": 75}, {"time": 923, "pitch": 66, "duration": 2, "velocity": 77}, {"time": 926, "pitch": 54, "duration": 2, "velocity": 73}, {"time": 926, "pitch": 68, "duration": 2, "velocity": 72}, {"time": 929, "pitch": 51, "duration": 5, "velocity": 80}, {"time": 929, "pitch": 61, "duration": 2, "velocity": 80}, {"time": 929, "pitch": 66, "duration": 3, "velocity": 82}, {"time": 929, "pitch": 73, "duration": 4, "velocity": 82}, {"time": 932, "pitch": 58, "duration": 2, "velocity": 73}, {"time": 935, "pitch": 63, "duration": 3, "velocity": 76}, {"time": 938, "pitch": 65, "duration": 3, "velocity": 72}, {"time": 938, "pitch": 70, "duration": 1, "velocity": 73}, {"time": 938, "pitch": 78, "duration": 1, "velocity": 86}, {"time": 941, "pitch": 66, "duration": 2, "velocity": 74}, {"time": 941, "pitch": 70, "duration": 1, "velocity": 76}, {"time": 941, "pitch": 78, "duration": 1, "velocity": 84}, {"time": 944, "pitch": 65, "duration": 2, "velocity": 71}, {"time": 944, "pitch": 68, "duration": 1, "velocity": 78}, {"time": 944, "pitch": 77, "duration": 2, "velocity": 78}, {"time": 947, "pitch": 63, "duration": 2, "velocity": 61}, {"time": 947, "pitch": 68, "duration": 1, "velocity": 35}, {"time": 947, "pitch": 75, "duration": 2, "velocity": 80}, {"time": 950, "pitch": 60, "duration": 1, "velocity": 59}, {"time": 950, "pitch": 73, "duration": 2, "velocity": 83}, {"time": 953, "pitch": 44, "duration": 8, "velocity": 84}, {"time": 953, "pitch": 68, "duration": 2, "velocity": 72}, {"time": 953, "pitch": 75, "duration": 2, "velocity": 86}, {"time": 956, "pitch": 51, "duration": 8, "velocity": 79}, {"time": 959, "pitch": 56, "duration": 4, "velocity": 80}, {"time": 962, "pitch": 61, "duration": 3, "velocity": 90}, {"time": 965, "pitch": 44, "duration": 3, "velocity": 84}, {"time": 965, "pitch": 63, "duration": 1, "velocity": 86}, {"time": 968, "pitch": 46, "duration": 3, "velocity": 79}, {"time": 968, "pitch": 66, "duration": 1, "velocity": 43}, {"time": 968, "pitch": 68, "duration": 1, "velocity": 53}, {"time": 971, "pitch": 48, "duration": 3, "velocity": 79}, {"time": 971, "pitch": 70, "duration": 3, "velocity": 79}, {"time": 974, "pitch": 75, "duration": 1, "velocity": 86}, {"time": 977, "pitch": 54, "duration": 19, "velocity": 86}, {"time": 977, "pitch": 66, "duration": 3, "velocity": 81}, {"time": 977, "pitch": 70, "duration": 3, "velocity": 78}, {"time": 980, "pitch": 61, "duration": 12, "velocity": 82}, {"time": 983, "pitch": 66, "duration": 4, "velocity": 72}, {"time": 986, "pitch": 70, "duration": 1, "velocity": 72}, {"time": 986, "pitch": 73, "duration": 1, "velocity": 75}, {"time": 986, "pitch": 78, "duration": 1, "velocity": 83}, {"time": 989, "pitch": 66, "duration": 4, "velocity": 76}, {"time": 989, "pitch": 70, "duration": 2, "velocity": 76}, {"time": 989, "pitch": 73, "duration": 2, "velocity": 75}, {"time": 989, "pitch": 78, "duration": 3, "velocity": 84}, {"time": 992, "pitch": 68, "duration": 2, "velocity": 73}, {"time": 992, "pitch": 77, "duration": 3, "velocity": 79}, {"time": 995, "pitch": 61, "duration": 2, "velocity": 79}, {"time": 998, "pitch": 68, "duration": 1, "velocity": 54}, {"time": 998, "pitch": 75, "duration": 1, "velocity": 78}, {"time": 1001, "pitch": 53, "duration": 18, "velocity": 80}, {"time": 1001, "pitch": 68, "duration": 5, "velocity": 68}, {"time": 1001, "pitch": 72, "duration": 4, "velocity": 82}, {"time": 1001, "pitch": 75, "duration": 4, "velocity": 80}, {"time": 1004, "pitch": 60, "duration": 4, "velocity": 78}, {"time": 1007, "pitch": 65, "duration": 2, "velocity": 79}, {"time": 1010, "pitch": 68, "duration": 3, "velocity": 79}, {"time": 1010, "pitch": 72, "duration": 3, "velocity": 78}, {"time": 1013, "pitch": 60, "duration": 6, "velocity": 80}, {"time": 1013, "pitch": 63, "duration": 4, "velocity": 70}, {"time": 1013, "pitch": 75, "duration": 1, "velocity": 38}, {"time": 1016, "pitch": 68, "duration": 3, "velocity": 79}, {"time": 1019, "pitch": 72, "duration": 3, "velocity": 83}, {"time": 1022, "pitch": 73, "duration": 4, "velocity": 77}, {"time": 1025, "pitch": 42, "duration": 5, "velocity": 81}, {"time": 1025, "pitch": 61, "duration": 8, "velocity": 79}, {"time": 1025, "pitch": 66, "duration": 8, "velocity": 61}, {"time": 1025, "pitch": 70, "duration": 11, "velocity": 78}, {"time": 1028, "pitch": 49, "duration": 2, "velocity": 79}, {"time": 1031, "pitch": 54, "duration": 3, "velocity": 71}, {"time": 1034, "pitch": 58, "duration": 1, "velocity": 76}, {"time": 1037, "pitch": 44, "duration": 3, "velocity": 77}, {"time": 1037, "pitch": 63, "duration": 7, "velocity": 78}, {"time": 1037, "pitch": 68, "duration": 3, "velocity": 75}, {"time": 1037, "pitch": 72, "duration": 3, "velocity": 83}, {"time": 1040, "pitch": 51, "duration": 2, "velocity": 79}, {"time": 1040, "pitch": 70, "duration": 4, "velocity": 78}, {"time": 1043, "pitch": 56, "duration": 4, "velocity": 69}, {"time": 1043, "pitch": 68, "duration": 2, "velocity": 80}, {"time": 1046, "pitch": 58, "duration": 3, "velocity": 71}, {"time": 1046, "pitch": 66, "duration": 2, "velocity": 75}, {"time": 1049, "pitch": 49, "duration": 12, "velocity": 79}, {"time": 1049, "pitch": 65, "duration": 7, "velocity": 79}, {"time": 1049, "pitch": 68, "duration": 5, "velocity": 84}, {"time": 1052, "pitch": 56, "duration": 4, "velocity": 75}, {"time": 1055, "pitch": 61, "duration": 4, "velocity": 71}, {"time": 1058, "pitch": 65, "duration": 2, "velocity": 78}, {"time": 1058, "pitch": 68, "duration": 3, "velocity": 68}, {"time": 1061, "pitch": 56, "duration": 5, "velocity": 78}, {"time": 1061, "pitch": 63, "duration": 2, "velocity": 78}, {"time": 1061, "pitch": 66, "duration": 2, "velocity": 83}, {"time": 1064, "pitch": 63, "duration": 1, "velocity": 16}, {"time": 1064, "pitch": 68, "duration": 2, "velocity": 72}, {"time": 1067, "pitch": 48, "duration": 5, "velocity": 86}, {"time": 1067, "pitch": 63, "duration": 2, "velocity": 56}, {"time": 1067, "pitch": 68, "duration": 2, "velocity": 71}, {"time": 1070, "pitch": 61, "duration": 2, "velocity": 78}, {"time": 1073, "pitch": 46, "duration": 10, "velocity": 75}, {"time": 1073, "pitch": 56, "duration": 3, "velocity": 75}, {"time": 1073, "pitch": 61, "duration": 6, "velocity": 78}, {"time": 1073, "pitch": 65, "duration": 5, "velocity": 79}, {"time": 1073, "pitch": 68, "duration": 5, "velocity": 72}, {"time": 1076, "pitch": 53, "duration": 9, "velocity": 79}, {"time": 1079, "pitch": 58, "duration": 3, "velocity": 59}, {"time": 1082, "pitch": 60, "duration": 2, "velocity": 74}, {"time": 1082, "pitch": 68, "duration": 2, "velocity": 79}, {"time": 1085, "pitch": 44, "duration": 7, "velocity": 78}, {"time": 1085, "pitch": 61, "duration": 2, "velocity": 83}, {"time": 1085, "pitch": 65, "duration": 4, "velocity": 79}, {"time": 1088, "pitch": 53, "duration": 4, "velocity": 78}, {"time": 1091, "pitch": 56, "duration": 1, "velocity": 73}, {"time": 1097, "pitch": 43, "duration": 4, "velocity": 83}, {"time": 1097, "pitch": 58, "duration": 3, "velocity": 68}, {"time": 1097, "pitch": 61, "duration": 3, "velocity": 82}, {"time": 1097, "pitch": 65, "duration": 3, "velocity": 78}, {"time": 1121, "pitch": 42, "duration": 19, "velocity": 81}, {"time": 1121, "pitch": 58, "duration": 4, "velocity": 67}, {"time": 1121, "pitch": 61, "duration": 4, "velocity": 80}, {"time": 1121, "pitch": 66, "duration": 3, "velocity": 75}, {"time": 1124, "pitch": 54, "duration": 17, "velocity": 75}, {"time": 1127, "pitch": 58, "duration": 3, "velocity": 75}, {"time": 1130, "pitch": 61, "duration": 1, "velocity": 83}, {"time": 1133, "pitch": 61, "duration": 1, "velocity": 62}, {"time": 1136, "pitch": 66, "duration": 2, "velocity": 84}, {"time": 1139, "pitch": 70, "duration": 2, "velocity": 75}, {"time": 1142, "pitch": 73, "duration": 1, "velocity": 79}, {"time": 1145, "pitch": 44, "duration": 18, "velocity": 78}, {"time": 1145, "pitch": 61, "duration": 4, "velocity": 76}, {"time": 1145, "pitch": 66, "duration": 5, "velocity": 79}, {"time": 1145, "pitch": 70, "duration": 5, "velocity": 75}, {"time": 1151, "pitch": 56, "duration": 16, "velocity": 51}, {"time": 1154, "pitch": 63, "duration": 2, "velocity": 76}, {"time": 1154, "pitch": 68, "duration": 2, "velocity": 76}, {"time": 1154, "pitch": 72, "duration": 2, "velocity": 80}, {"time": 1163, "pitch": 66, "duration": 2, "velocity": 78}, {"time": 1163, "pitch": 73, "duration": 2, "velocity": 76}, {"time": 1169, "pitch": 49, "duration": 37, "velocity": 81}, {"time": 1169, "pitch": 65, "duration": 6, "velocity": 76}, {"time": 1169, "pitch": 68, "duration": 6, "velocity": 76}, {"time": 1169, "pitch": 73, "duration": 6, "velocity": 82}, {"time": 1172, "pitch": 56, "duration": 34, "velocity": 78}, {"time": 1175, "pitch": 61, "duration": 7, "velocity": 78}, {"time": 1178, "pitch": 66, "duration": 1, "velocity": 80}, {"time": 1178, "pitch": 70, "duration": 2, "velocity": 74}, {"time": 1184, "pitch": 61, "duration": 4, "velocity": 35}, {"time": 1211, "pitch": 73, "duration": 3, "velocity": 79}, {"time": 1214, "pitch": 75, "duration": 3, "velocity": 80}, {"time": 1217, "pitch": 54, "duration": 4, "velocity": 72}, {"time": 1217, "pitch": 77, "duration": 3, "velocity": 79}, {"time": 1220, "pitch": 61, "duration": 2, "velocity": 75}, {"time": 1220, "pitch": 78, "duration": 2, "velocity": 80}, {"time": 1223, "pitch": 66, "duration": 8, "velocity": 56}, {"time": 1223, "pitch": 77, "duration": 2, "velocity": 72}, {"time": 1226, "pitch": 70, "duration": 3, "velocity": 72}, {"time": 1229, "pitch": 73, "duration": 8, "velocity": 79}, {"time": 1238, "pitch": 77, "duration": 2, "velocity": 63}, {"time": 1241, "pitch": 53, "duration": 4, "velocity": 75}, {"time": 1241, "pitch": 68, "duration": 3, "velocity": 56}, {"time": 1241, "pitch": 75, "duration": 2, "velocity": 78}, {"time": 1244, "pitch": 60, "duration": 2, "velocity": 63}, {"time": 1244, "pitch": 77, "duration": 2, "velocity": 75}, {"time": 1247, "pitch": 63, "duration": 3, "velocity": 55}, {"time": 1247, "pitch": 75, "duration": 5, "velocity": 75}, {"time": 1250, "pitch": 65, "duration": 9, "velocity": 48}, {"time": 1253, "pitch": 68, "duration": 5, "velocity": 75}, {"time": 1256, "pitch": 72, "duration": 3, "velocity": 58}, {"time": 1259, "pitch": 75, "duration": 3, "velocity": 72}, {"time": 1262, "pitch": 77, "duration": 1, "velocity": 63}, {"time": 1265, "pitch": 51, "duration": 3, "velocity": 76}, {"time": 1265, "pitch": 75, "duration": 2, "velocity": 81}, {"time": 1268, "pitch": 58, "duration": 2, "velocity": 68}, {"time": 1268, "pitch": 77, "duration": 2, "velocity": 76}, {"time": 1271, "pitch": 63, "duration": 4, "velocity": 58}, {"time": 1271, "pitch": 75, "duration": 2, "velocity": 78}, {"time": 1274, "pitch": 65, "duration": 2, "velocity": 68}, {"time": 1274, "pitch": 73, "duration": 1, "velocity": 60}, {"time": 1277, "pitch": 56, "duration": 6, "velocity": 73}, {"time": 1277, "pitch": 73, "duration": 3, "velocity": 80}, {"time": 1280, "pitch": 63, "duration": 3, "velocity": 50}, {"time": 1283, "pitch": 75, "duration": 1, "velocity": 79}, {"time": 1289, "pitch": 49, "duration": 18, "velocity": 69}, {"time": 1289, "pitch": 68, "duration": 4, "velocity": 38}, {"time": 1289, "pitch": 72, "duration": 4, "velocity": 69}, {"time": 1289, "pitch": 77, "duration": 3, "velocity": 62}, {"time": 1292, "pitch": 56, "duration": 8, "velocity": 59}, {"time": 1295, "pitch": 61, "duration": 8, "velocity": 72}, {"time": 1298, "pitch": 63, "duration": 2, "velocity": 72}, {"time": 1301, "pitch": 65, "duration": 2, "velocity": 80}, {"time": 1304, "pitch": 68, "duration": 2, "velocity": 78}, {"time": 1307, "pitch": 56, "duration": 1, "velocity": 73}, {"time": 1307, "pitch": 72, "duration": 1, "velocity": 86}, {"time": 1313, "pitch": 42, "duration": 2, "velocity": 81}, {"time": 1313, "pitch": 58, "duration": 4, "velocity": 69}, {"time": 1313, "pitch": 61, "duration": 5, "velocity": 82}, {"time": 1313, "pitch": 65, "duration": 5, "velocity": 84}, {"time": 1316, "pitch": 54, "duration": 4, "velocity": 70}, {"time": 1319, "pitch": 56, "duration": 12, "velocity": 74}, {"time": 1322, "pitch": 58, "duration": 9, "velocity": 80}, {"time": 1325, "pitch": 61, "duration": 4, "velocity": 82}, {"time": 1328, "pitch": 66, "duration": 3, "velocity": 78}, {"time": 1331, "pitch": 70, "duration": 3, "velocity": 77}, {"time": 1334, "pitch": 73, "duration": 3, "velocity": 84}, {"time": 1337, "pitch": 41, "duration": 2, "velocity": 83}, {"time": 1337, "pitch": 63, "duration": 9, "velocity": 76}, {"time": 1337, "pitch": 68, "duration": 9, "velocity": 80}, {"time": 1337, "pitch": 72, "duration": 9, "velocity": 82}, {"time": 1340, "pitch": 53, "duration": 3, "velocity": 59}, {"time": 1343, "pitch": 56, "duration": 6, "velocity": 72}, {"time": 1346, "pitch": 60, "duration": 3, "velocity": 82}, {"time": 1349, "pitch": 58, "duration": 7, "velocity": 58}, {"time": 1349, "pitch": 61, "duration": 7, "velocity": 82}, {"time": 1349, "pitch": 65, "duration": 6, "velocity": 74}, {"time": 1352, "pitch": 68, "duration": 2, "velocity": 80}, {"time": 1355, "pitch": 70, "duration": 2, "velocity": 72}, {"time": 1358, "pitch": 73, "duration": 1, "velocity": 76}, {"time": 1361, "pitch": 51, "duration": 20, "velocity": 79}, {"time": 1361, "pitch": 61, "duration": 3, "velocity": 78}, {"time": 1361, "pitch": 66, "duration": 3, "velocity": 81}, {"time": 1361, "pitch": 70, "duration": 4, "velocity": 82}, {"time": 1361, "pitch": 73, "duration": 3, "velocity": 5}, {"time": 1364, "pitch": 58, "duration": 10, "velocity": 73}, {"time": 1367, "pitch": 61, "duration": 3, "velocity": 61}, {"time": 1370, "pitch": 66, "duration": 6, "velocity": 80}, {"time": 1373, "pitch": 61, "duration": 3, "velocity": 76}, {"time": 1373, "pitch": 70, "duration": 4, "velocity": 80}, {"time": 1376, "pitch": 58, "duration": 4, "velocity": 62}, {"time": 1379, "pitch": 61, "duration": 3, "velocity": 78}, {"time": 1379, "pitch": 73, "duration": 4, "velocity": 83}, {"time": 1385, "pitch": 44, "duration": 33, "velocity": 76}, {"time": 1385, "pitch": 61, "duration": 4, "velocity": 76}, {"time": 1385, "pitch": 66, "duration": 5, "velocity": 80}, {"time": 1385, "pitch": 70, "duration": 4, "velocity": 71}, {"time": 1385, "pitch": 73, "duration": 6, "velocity": 84}, {"time": 1388, "pitch": 51, "duration": 15, "velocity": 76}, {"time": 1391, "pitch": 56, "duration": 9, "velocity": 76}, {"time": 1394, "pitch": 61, "duration": 4, "velocity": 77}, {"time": 1400, "pitch": 66, "duration": 3, "velocity": 80}, {"time": 1403, "pitch": 56, "duration": 14, "velocity": 75}, {"time": 1406, "pitch": 51, "duration": 12, "velocity": 68}, {"time": 1409, "pitch": 68, "duration": 9, "velocity": 58}, {"time": 1409, "pitch": 73, "duration": 9, "velocity": 43}, {"time": 1409, "pitch": 80, "duration": 9, "velocity": 57}, {"time": 1433, "pitch": 49, "duration": 21, "velocity": 84}, {"time": 1433, "pitch": 61, "duration": 4, "velocity": 77}, {"time": 1433, "pitch": 63, "duration": 4, "velocity": 81}, {"time": 1433, "pitch": 65, "duration": 4, "velocity": 76}, {"time": 1442, "pitch": 61, "duration": 5, "velocity": 56}, {"time": 1445, "pitch": 63, "duration": 7, "velocity": 62}, {"time": 1445, "pitch": 65, "duration": 6, "velocity": 67}, {"time": 1445, "pitch": 68, "duration": 7, "velocity": 73}, {"time": 1451, "pitch": 61, "duration": 3, "velocity": 35}, {"time": 1454, "pitch": 56, "duration": 2, "velocity": 55}, {"time": 1457, "pitch": 49, "duration": 7, "velocity": 73}, {"time": 1457, "pitch": 63, "duration": 5, "velocity": 69}, {"time": 1457, "pitch": 68, "duration": 4, "velocity": 77}, {"time": 1460, "pitch": 56, "duration": 8, "velocity": 75}, {"time": 1463, "pitch": 61, "duration": 1, "velocity": 84}, {"time": 1466, "pitch": 68, "duration": 2, "velocity": 82}, {"time": 1469, "pitch": 48, "duration": 11, "velocity": 81}, {"time": 1469, "pitch": 63, "duration": 7, "velocity": 81}, {"time": 1469, "pitch": 72, "duration": 4, "velocity": 86}, {"time": 1472, "pitch": 56, "duration": 2, "velocity": 71}, {"time": 1475, "pitch": 60, "duration": 1, "velocity": 61}, {"time": 1475, "pitch": 75, "duration": 2, "velocity": 80}, {"time": 1478, "pitch": 72, "duration": 2, "velocity": 79}, {"time": 1481, "pitch": 46, "duration": 5, "velocity": 77}, {"time": 1481, "pitch": 65, "duration": 12, "velocity": 74}, {"time": 1481, "pitch": 68, "duration": 12, "velocity": 50}, {"time": 1481, "pitch": 73, "duration": 13, "velocity": 84}, {"time": 1484, "pitch": 53, "duration": 2, "velocity": 75}, {"time": 1487, "pitch": 58, "duration": 3, "velocity": 53}, {"time": 1490, "pitch": 60, "duration": 8, "velocity": 73}, {"time": 1493, "pitch": 61, "duration": 5, "velocity": 76}, {"time": 1496, "pitch": 65, "duration": 3, "velocity": 54}, {"time": 1499, "pitch": 70, "duration": 2, "velocity": 72}, {"time": 1502, "pitch": 72, "duration": 2, "velocity": 72}, {"time": 1505, "pitch": 65, "duration": 6, "velocity": 52}, {"time": 1505, "pitch": 73, "duration": 4, "velocity": 68}, {"time": 1514, "pitch": 63, "duration": 3, "velocity": 50}, {"time": 1514, "pitch": 68, "duration": 3, "velocity": 72}, {"time": 1517, "pitch": 44, "duration": 7, "velocity": 78}, {"time": 1517, "pitch": 75, "duration": 3, "velocity": 79}, {"time": 1520, "pitch": 56, "duration": 4, "velocity": 62}, {"time": 1523, "pitch": 63, "duration": 2, "velocity": 78}, {"time": 1526, "pitch": 68, "duration": 2, "velocity": 75}, {"time": 1529, "pitch": 42, "duration": 17, "velocity": 73}, {"time": 1529, "pitch": 54, "duration": 12, "velocity": 58}, {"time": 1529, "pitch": 61, "duration": 7, "velocity": 78}, {"time": 1529, "pitch": 66, "duration": 7, "velocity": 76}, {"time": 1529, "pitch": 70, "duration": 7, "velocity": 75}, {"time": 1529, "pitch": 73, "duration": 7, "velocity": 58}, {"time": 1541, "pitch": 61, "duration": 3, "velocity": 68}, {"time": 1541, "pitch": 66, "duration": 3, "velocity": 75}, {"time": 1541, "pitch": 70, "duration": 3, "velocity": 59}, {"time": 1541, "pitch": 73, "duration": 3, "velocity": 38}, {"time": 1544, "pitch": 54, "duration": 9, "velocity": 63}, {"time": 1547, "pitch": 61, "duration": 2, "velocity": 72}, {"time": 1550, "pitch": 73, "duration": 1, "velocity": 78}, {"time": 1553, "pitch": 53, "duration": 7, "velocity": 83}, {"time": 1553, "pitch": 63, "duration": 7, "velocity": 75}, {"time": 1553, "pitch": 68, "duration": 7, "velocity": 74}, {"time": 1553, "pitch": 72, "duration": 5, "velocity": 80}, {"time": 1568, "pitch": 72, "duration": 3, "velocity": 79}, {"time": 1577, "pitch": 51, "duration": 9, "velocity": 72}, {"time": 1577, "pitch": 61, "duration": 3, "velocity": 68}, {"time": 1577, "pitch": 66, "duration": 3, "velocity": 67}, {"time": 1577, "pitch": 70, "duration": 3, "velocity": 63}, {"time": 1580, "pitch": 58, "duration": 7, "velocity": 69}, {"time": 1583, "pitch": 61, "duration": 2, "velocity": 82}, {"time": 1586, "pitch": 66, "duration": 1, "velocity": 82}, {"time": 1589, "pitch": 56, "duration": 7, "velocity": 79}, {"time": 1589, "pitch": 61, "duration": 4, "velocity": 75}, {"time": 1589, "pitch": 70, "duration": 6, "velocity": 78}, {"time": 1598, "pitch": 68, "duration": 2, "velocity": 58}, {"time": 1601, "pitch": 49, "duration": 17, "velocity": 78}, {"time": 1601, "pitch": 66, "duration": 5, "velocity": 80}, {"time": 1604, "pitch": 56, "duration": 18, "velocity": 68}, {"time": 1607, "pitch": 61, "duration": 4, "velocity": 56}, {"time": 1610, "pitch": 63, "duration": 3, "velocity": 69}, {"time": 1610, "pitch": 68, "duration": 5, "velocity": 76}, {"time": 1616, "pitch": 61, "duration": 3, "velocity": 55}, {"time": 1619, "pitch": 63, "duration": 3, "velocity": 75}, {"time": 1622, "pitch": 65, "duration": 3, "velocity": 73}, {"time": 1625, "pitch": 49, "duration": 8, "velocity": 75}, {"time": 1625, "pitch": 63, "duration": 3, "velocity": 75}, {"time": 1625, "pitch": 68, "duration": 4, "velocity": 75}, {"time": 1628, "pitch": 56, "duration": 7, "velocity": 68}, {"time": 1631, "pitch": 61, "duration": 1, "velocity": 68}, {"time": 1634, "pitch": 63, "duration": 1, "velocity": 68}, {"time": 1637, "pitch": 48, "duration": 6, "velocity": 79}, {"time": 1637, "pitch": 63, "duration": 4, "velocity": 73}, {"time": 1637, "pitch": 68, "duration": 4, "velocity": 71}, {"time": 1637, "pitch": 72, "duration": 5, "velocity": 79}, {"time": 1640, "pitch": 56, "duration": 4, "velocity": 75}, {"time": 1643, "pitch": 60, "duration": 1, "velocity": 72}, {"time": 1649, "pitch": 46, "duration": 6, "velocity": 79}, {"time": 1649, "pitch": 65, "duration": 13, "velocity": 80}, {"time": 1649, "pitch": 70, "duration": 13, "velocity": 83}, {"time": 1649, "pitch": 73, "duration": 13, "velocity": 84}, {"time": 1652, "pitch": 53, "duration": 3, "velocity": 73}, {"time": 1655, "pitch": 58, "duration": 3, "velocity": 62}, {"time": 1658, "pitch": 60, "duration": 9, "velocity": 84}, {"time": 1661, "pitch": 61, "duration": 6, "velocity": 90}, {"time": 1664, "pitch": 65, "duration": 4, "velocity": 86}, {"time": 1667, "pitch": 70, "duration": 3, "velocity": 86}, {"time": 1670, "pitch": 73, "duration": 3, "velocity": 90}, {"time": 1673, "pitch": 44, "duration": 5, "velocity": 80}, {"time": 1673, "pitch": 63, "duration": 9, "velocity": 84}, {"time": 1673, "pitch": 68, "duration": 10, "velocity": 82}, {"time": 1673, "pitch": 72, "duration": 10, "velocity": 90}, {"time": 1676, "pitch": 53, "duration": 3, "velocity": 79}, {"time": 1679, "pitch": 56, "duration": 3, "velocity": 73}, {"time": 1682, "pitch": 60, "duration": 11, "velocity": 84}, {"time": 1685, "pitch": 68, "duration": 3, "velocity": 84}, {"time": 1685, "pitch": 72, "duration": 3, "velocity": 93}, {"time": 1688, "pitch": 63, "duration": 2, "velocity": 82}, {"time": 1691, "pitch": 63, "duration": 1, "velocity": 83}, {"time": 1691, "pitch": 68, "duration": 2, "velocity": 78}, {"time": 1691, "pitch": 73, "duration": 3, "velocity": 86}, {"time": 1694, "pitch": 68, "duration": 1, "velocity": 59}, {"time": 1694, "pitch": 70, "duration": 1, "velocity": 55}, {"time": 1697, "pitch": 42, "duration": 9, "velocity": 86}, {"time": 1697, "pitch": 61, "duration": 7, "velocity": 60}, {"time": 1697, "pitch": 66, "duration": 6, "velocity": 80}, {"time": 1697, "pitch": 70, "duration": 6, "velocity": 78}, {"time": 1700, "pitch": 49, "duration": 9, "velocity": 81}, {"time": 1703, "pitch": 54, "duration": 5, "velocity": 76}, {"time": 1706, "pitch": 61, "duration": 1, "velocity": 77}, {"time": 1709, "pitch": 44, "duration": 8, "velocity": 82}, {"time": 1709, "pitch": 61, "duration": 4, "velocity": 81}, {"time": 1709, "pitch": 66, "duration": 5, "velocity": 83}, {"time": 1709, "pitch": 72, "duration": 4, "velocity": 91}, {"time": 1712, "pitch": 51, "duration": 5, "velocity": 82}, {"time": 1715, "pitch": 63, "duration": 3, "velocity": 80}, {"time": 1715, "pitch": 70, "duration": 3, "velocity": 80}, {"time": 1718, "pitch": 56, "duration": 3, "velocity": 73}, {"time": 1718, "pitch": 68, "duration": 2, "velocity": 82}, {"time": 1721, "pitch": 49, "duration": 11, "velocity": 86}, {"time": 1721, "pitch": 63, "duration": 5, "velocity": 80}, {"time": 1721, "pitch": 65, "duration": 7, "velocity": 82}, {"time": 1721, "pitch": 68, "duration": 5, "velocity": 76}, {"time": 1724, "pitch": 56, "duration": 6, "velocity": 80}, {"time": 1727, "pitch": 61, "duration": 4, "velocity": 86}, {"time": 1730, "pitch": 63, "duration": 5, "velocity": 82}, {"time": 1730, "pitch": 68, "duration": 5, "velocity": 82}, {"time": 1733, "pitch": 48, "duration": 6, "velocity": 84}, {"time": 1733, "pitch": 56, "duration": 1, "velocity": 80}, {"time": 1736, "pitch": 56, "duration": 3, "velocity": 81}, {"time": 1739, "pitch": 63, "duration": 3, "velocity": 83}, {"time": 1742, "pitch": 68, "duration": 2, "velocity": 75}, {"time": 1745, "pitch": 46, "duration": 16, "velocity": 86}, {"time": 1745, "pitch": 61, "duration": 6, "velocity": 82}, {"time": 1745, "pitch": 65, "duration": 6, "velocity": 83}, {"time": 1745, "pitch": 68, "duration": 1, "velocity": 36}, {"time": 1748, "pitch": 53, "duration": 15, "velocity": 82}, {"time": 1751, "pitch": 58, "duration": 7, "velocity": 74}, {"time": 1754, "pitch": 60, "duration": 2, "velocity": 76}, {"time": 1757, "pitch": 61, "duration": 4, "velocity": 90}, {"time": 1757, "pitch": 65, "duration": 3, "velocity": 86}, {"time": 1760, "pitch": 58, "duration": 1, "velocity": 72}, {"time": 1763, "pitch": 44, "duration": 5, "velocity": 90}, {"time": 1763, "pitch": 60, "duration": 2, "velocity": 81}, {"time": 1766, "pitch": 61, "duration": 2, "velocity": 84}, {"time": 1769, "pitch": 42, "duration": 18, "velocity": 82}, {"time": 1769, "pitch": 58, "duration": 6, "velocity": 79}, {"time": 1769, "pitch": 61, "duration": 6, "velocity": 84}, {"time": 1769, "pitch": 65, "duration": 5, "velocity": 84}, {"time": 1772, "pitch": 49, "duration": 15, "velocity": 90}, {"time": 1775, "pitch": 54, "duration": 6, "velocity": 82}, {"time": 1778, "pitch": 58, "duration": 2, "velocity": 71}, {"time": 1781, "pitch": 58, "duration": 3, "velocity": 79}, {"time": 1781, "pitch": 61, "duration": 3, "velocity": 90}, {"time": 1781, "pitch": 66, "duration": 3, "velocity": 84}, {"time": 1784, "pitch": 54, "duration": 2, "velocity": 83}, {"time": 1787, "pitch": 58, "duration": 4, "velocity": 80}, {"time": 1787, "pitch": 66, "duration": 1, "velocity": 75}, {"time": 1790, "pitch": 41, "duration": 1, "velocity": 90}, {"time": 1793, "pitch": 39, "duration": 17, "velocity": 86}, {"time": 1793, "pitch": 58, "duration": 6, "velocity": 82}, {"time": 1793, "pitch": 63, "duration": 5, "velocity": 90}, {"time": 1793, "pitch": 66, "duration": 5, "velocity": 86}, {"time": 1796, "pitch": 46, "duration": 14, "velocity": 80}, {"time": 1799, "pitch": 51, "duration": 6, "velocity": 79}, {"time": 1802, "pitch": 58, "duration": 1, "velocity": 76}, {"time": 1805, "pitch": 58, "duration": 3, "velocity": 81}, {"time": 1805, "pitch": 61, "duration": 3, "velocity": 90}, {"time": 1805, "pitch": 66, "duration": 3, "velocity": 90}, {"time": 1808, "pitch": 51, "duration": 7, "velocity": 80}, {"time": 1811, "pitch": 58, "duration": 3, "velocity": 83}, {"time": 1814, "pitch": 61, "duration": 2, "velocity": 86}, {"time": 1817, "pitch": 44, "duration": 10, "velocity": 78}, {"time": 1817, "pitch": 60, "duration": 4, "velocity": 83}, {"time": 1817, "pitch": 63, "duration": 5, "velocity": 86}, {"time": 1820, "pitch": 51, "duration": 10, "velocity": 83}, {"time": 1823, "pitch": 56, "duration": 3, "velocity": 77}, {"time": 1826, "pitch": 61, "duration": 3, "velocity": 95}, {"time": 1829, "pitch": 44, "duration": 2, "velocity": 83}, {"time": 1829, "pitch": 63, "duration": 2, "velocity": 84}, {"time": 1832, "pitch": 56, "duration": 3, "velocity": 79}, {"time": 1832, "pitch": 65, "duration": 2, "velocity": 90}, {"time": 1835, "pitch": 58, "duration": 3, "velocity": 75}, {"time": 1835, "pitch": 68, "duration": 2, "velocity": 84}, {"time": 1838, "pitch": 60, "duration": 3, "velocity": 82}, {"time": 1838, "pitch": 73, "duration": 3, "velocity": 90}, {"time": 1841, "pitch": 54, "duration": 21, "velocity": 82}, {"time": 1841, "pitch": 70, "duration": 3, "velocity": 91}, {"time": 1844, "pitch": 61, "duration": 20, "velocity": 79}, {"time": 1847, "pitch": 66, "duration": 3, "velocity": 84}, {"time": 1850, "pitch": 70, "duration": 1, "velocity": 79}, {"time": 1850, "pitch": 78, "duration": 2, "velocity": 95}, {"time": 1853, "pitch": 70, "duration": 2, "velocity": 84}, {"time": 1853, "pitch": 78, "duration": 3, "velocity": 94}, {"time": 1856, "pitch": 66, "duration": 1, "velocity": 69}, {"time": 1859, "pitch": 66, "duration": 1, "velocity": 72}, {"time": 1859, "pitch": 68, "duration": 2, "velocity": 84}, {"time": 1859, "pitch": 77, "duration": 3, "velocity": 84}, {"time": 1862, "pitch": 78, "duration": 2, "velocity": 86}, {"time": 1865, "pitch": 53, "duration": 19, "velocity": 82}, {"time": 1865, "pitch": 68, "duration": 5, "velocity": 81}, {"time": 1865, "pitch": 75, "duration": 6, "velocity": 94}, {"time": 1868, "pitch": 61, "duration": 8, "velocity": 77}, {"time": 1871, "pitch": 65, "duration": 3, "velocity": 81}, {"time": 1874, "pitch": 68, "duration": 3, "velocity": 84}, {"time": 1874, "pitch": 73, "duration": 4, "velocity": 96}, {"time": 1877, "pitch": 65, "duration": 2, "velocity": 82}, {"time": 1880, "pitch": 68, "duration": 3, "velocity": 90}, {"time": 1880, "pitch": 72, "duration": 2, "velocity": 90}, {"time": 1883, "pitch": 63, "duration": 2, "velocity": 80}, {"time": 1886, "pitch": 68, "duration": 2, "velocity": 82}, {"time": 1889, "pitch": 51, "duration": 7, "velocity": 84}, {"time": 1889, "pitch": 61, "duration": 4, "velocity": 84}, {"time": 1889, "pitch": 66, "duration": 4, "velocity": 82}, {"time": 1889, "pitch": 70, "duration": 3, "velocity": 82}, {"time": 1892, "pitch": 58, "duration": 4, "velocity": 75}, {"time": 1895, "pitch": 61, "duration": 2, "velocity": 90}, {"time": 1898, "pitch": 66, "duration": 2, "velocity": 84}, {"time": 1901, "pitch": 44, "duration": 5, "velocity": 83}, {"time": 1901, "pitch": 63, "duration": 6, "velocity": 81}, {"time": 1901, "pitch": 68, "duration": 7, "velocity": 84}, {"time": 1904, "pitch": 51, "duration": 3, "velocity": 79}, {"time": 1907, "pitch": 56, "duration": 3, "velocity": 80}, {"time": 1910, "pitch": 58, "duration": 3, "velocity": 75}, {"time": 1913, "pitch": 49, "duration": 8, "velocity": 86}, {"time": 1913, "pitch": 65, "duration": 5, "velocity": 83}, {"time": 1913, "pitch": 68, "duration": 5, "velocity": 82}, {"time": 1916, "pitch": 56, "duration": 9, "velocity": 75}, {"time": 1919, "pitch": 61, "duration": 2, "velocity": 83}, {"time": 1922, "pitch": 65, "duration": 1, "velocity": 78}, {"time": 1922, "pitch": 73, "duration": 3, "velocity": 91}, {"time": 1925, "pitch": 48, "duration": 11, "velocity": 86}, {"time": 1925, "pitch": 63, "duration": 3, "velocity": 81}, {"time": 1925, "pitch": 68, "duration": 4, "velocity": 76}, {"time": 1925, "pitch": 72, "duration": 4, "velocity": 86}, {"time": 1928, "pitch": 56, "duration": 3, "velocity": 71}, {"time": 1931, "pitch": 60, "duration": 1, "velocity": 79}, {"time": 1931, "pitch": 65, "duration": 1, "velocity": 80}, {"time": 1931, "pitch": 73, "duration": 1, "velocity": 84}, {"time": 1937, "pitch": 46, "duration": 9, "velocity": 79}, {"time": 1937, "pitch": 65, "duration": 4, "velocity": 83}, {"time": 1937, "pitch": 70, "duration": 3, "velocity": 83}, {"time": 1937, "pitch": 73, "duration": 3, "velocity": 90}, {"time": 1940, "pitch": 53, "duration": 9, "velocity": 72}, {"time": 1943, "pitch": 58, "duration": 3, "velocity": 75}, {"time": 1946, "pitch": 61, "duration": 1, "velocity": 79}, {"time": 1946, "pitch": 68, "duration": 1, "velocity": 71}, {"time": 1946, "pitch": 70, "duration": 1, "velocity": 71}, {"time": 1949, "pitch": 44, "duration": 8, "velocity": 83}, {"time": 1949, "pitch": 61, "duration": 2, "velocity": 83}, {"time": 1949, "pitch": 68, "duration": 5, "velocity": 83}, {"time": 1952, "pitch": 53, "duration": 5, "velocity": 81}, {"time": 1955, "pitch": 56, "duration": 2, "velocity": 83}, {"time": 1961, "pitch": 43, "duration": 3, "velocity": 83}, {"time": 1961, "pitch": 55, "duration": 4, "velocity": 73}, {"time": 1961, "pitch": 58, "duration": 3, "velocity": 73}, {"time": 1961, "pitch": 61, "duration": 4, "velocity": 79}, {"time": 1961, "pitch": 65, "duration": 4, "velocity": 78}, {"time": 1970, "pitch": 70, "duration": 7, "velocity": 52}, {"time": 1971, "pitch": 73, "duration": 6, "velocity": 68}, {"time": 1971, "pitch": 77, "duration": 6, "velocity": 55}, {"time": 1972, "pitch": 67, "duration": 5, "velocity": 70}, {"time": 1973, "pitch": 82, "duration": 4, "velocity": 68}, {"time": 1985, "pitch": 51, "duration": 18, "velocity": 79}, {"time": 1985, "pitch": 61, "duration": 4, "velocity": 76}, {"time": 1985, "pitch": 66, "duration": 4, "velocity": 78}, {"time": 1985, "pitch": 70, "duration": 4, "velocity": 72}, {"time": 1988, "pitch": 58, "duration": 9, "velocity": 69}, {"time": 1991, "pitch": 61, "duration": 3, "velocity": 79}, {"time": 1994, "pitch": 66, "duration": 3, "velocity": 83}, {"time": 1997, "pitch": 61, "duration": 3, "velocity": 71}, {"time": 1997, "pitch": 73, "duration": 7, "velocity": 90}, {"time": 2000, "pitch": 58, "duration": 3, "velocity": 76}, {"time": 2003, "pitch": 61, "duration": 2, "velocity": 74}, {"time": 2006, "pitch": 73, "duration": 3, "velocity": 83}, {"time": 2009, "pitch": 44, "duration": 19, "velocity": 71}, {"time": 2009, "pitch": 56, "duration": 18, "velocity": 58}, {"time": 2009, "pitch": 63, "duration": 3, "velocity": 79}, {"time": 2009, "pitch": 68, "duration": 2, "velocity": 74}, {"time": 2009, "pitch": 72, "duration": 2, "velocity": 86}, {"time": 2015, "pitch": 61, "duration": 3, "velocity": 79}, {"time": 2015, "pitch": 66, "duration": 3, "velocity": 73}, {"time": 2015, "pitch": 70, "duration": 3, "velocity": 76}, {"time": 2021, "pitch": 60, "duration": 7, "velocity": 61}, {"time": 2021, "pitch": 63, "duration": 7, "velocity": 54}, {"time": 2021, "pitch": 68, "duration": 8, "velocity": 77}, {"time": 2033, "pitch": 49, "duration": 37, "velocity": 75}, {"time": 2033, "pitch": 63, "duration": 6, "velocity": 58}, {"time": 2033, "pitch": 65, "duration": 5, "velocity": 53}, {"time": 2033, "pitch": 68, "duration": 5, "velocity": 68}, {"time": 2036, "pitch": 56, "duration": 13, "velocity": 63}, {"time": 2039, "pitch": 61, "duration": 11, "velocity": 69}, {"time": 2042, "pitch": 63, "duration": 5, "velocity": 76}, {"time": 2048, "pitch": 66, "duration": 8, "velocity": 83}, {"time": 2054, "pitch": 56, "duration": 16, "velocity": 53}, {"time": 2057, "pitch": 61, "duration": 9, "velocity": 56}, {"time": 2057, "pitch": 65, "duration": 12, "velocity": 70}, {"time": 2057, "pitch": 68, "duration": 13, "velocity": 60}, {"time": 2066, "pitch": 68, "duration": 4, "velocity": 47}, {"time": 2069, "pitch": 73, "duration": 3, "velocity": 79}, {"time": 2072, "pitch": 75, "duration": 2, "velocity": 82}, {"time": 2075, "pitch": 77, "duration": 2, "velocity": 75}, {"time": 2078, "pitch": 78, "duration": 2, "velocity": 78}, {"time": 2081, "pitch": 54, "duration": 18, "velocity": 59}, {"time": 2081, "pitch": 77, "duration": 19, "velocity": 73}, {"time": 2084, "pitch": 61, "duration": 15, "velocity": 55}, {"time": 2087, "pitch": 66, "duration": 12, "velocity": 59}, {"time": 2090, "pitch": 70, "duration": 10, "velocity": 56}, {"time": 2105, "pitch": 54, "duration": 19, "velocity": 56}, {"time": 2105, "pitch": 66, "duration": 1, "velocity": 42}, {"time": 2105, "pitch": 73, "duration": 7, "velocity": 74}, {"time": 2108, "pitch": 61, "duration": 10, "velocity": 71}, {"time": 2111, "pitch": 66, "duration": 8, "velocity": 67}, {"time": 2114, "pitch": 68, "duration": 4, "velocity": 75}, {"time": 2123, "pitch": 61, "duration": 1, "velocity": 73}, {"time": 2129, "pitch": 53, "duration": 19, "velocity": 80}, {"time": 2129, "pitch": 65, "duration": 4, "velocity": 80}, {"time": 2132, "pitch": 60, "duration": 7, "velocity": 76}, {"time": 2135, "pitch": 65, "duration": 6, "velocity": 63}, {"time": 2138, "pitch": 72, "duration": 4, "velocity": 84}, {"time": 2144, "pitch": 60, "duration": 4, "velocity": 79}, {"time": 2147, "pitch": 68, "duration": 3, "velocity": 81}, {"time": 2150, "pitch": 65, "duration": 10, "velocity": 71}, {"time": 2153, "pitch": 46, "duration": 17, "velocity": 74}, {"time": 2153, "pitch": 62, "duration": 6, "velocity": 76}, {"time": 2156, "pitch": 53, "duration": 15, "velocity": 73}, {"time": 2159, "pitch": 58, "duration": 11, "velocity": 75}, {"time": 2162, "pitch": 62, "duration": 3, "velocity": 73}, {"time": 2165, "pitch": 65, "duration": 3, "velocity": 77}, {"time": 2168, "pitch": 68, "duration": 3, "velocity": 75}, {"time": 2171, "pitch": 50, "duration": 7, "velocity": 84}, {"time": 2171, "pitch": 70, "duration": 3, "velocity": 79}, {"time": 2177, "pitch": 51, "duration": 3, "velocity": 79}, {"time": 2177, "pitch": 61, "duration": 6, "velocity": 76}, {"time": 2177, "pitch": 66, "duration": 9, "velocity": 82}, {"time": 2177, "pitch": 70, "duration": 9, "velocity": 73}, {"time": 2180, "pitch": 54, "duration": 3, "velocity": 68}, {"time": 2183, "pitch": 56, "duration": 3, "velocity": 55}, {"time": 2183, "pitch": 58, "duration": 1, "velocity": 58}, {"time": 2186, "pitch": 58, "duration": 7, "velocity": 79}, {"time": 2189, "pitch": 61, "duration": 3, "velocity": 76}, {"time": 2192, "pitch": 66, "duration": 3, "velocity": 76}, {"time": 2195, "pitch": 70, "duration": 5, "velocity": 73}, {"time": 2198, "pitch": 73, "duration": 2, "velocity": 80}, {"time": 2201, "pitch": 51, "duration": 20, "velocity": 75}, {"time": 2201, "pitch": 66, "duration": 2, "velocity": 80}, {"time": 2201, "pitch": 73, "duration": 2, "velocity": 72}, {"time": 2204, "pitch": 58, "duration": 13, "velocity": 71}, {"time": 2207, "pitch": 63, "duration": 5, "velocity": 58}, {"time": 2210, "pitch": 70, "duration": 1, "velocity": 71}, {"time": 2210, "pitch": 78, "duration": 1, "velocity": 81}, {"time": 2213, "pitch": 70, "duration": 3, "velocity": 77}, {"time": 2213, "pitch": 78, "duration": 3, "velocity": 84}, {"time": 2216, "pitch": 63, "duration": 2, "velocity": 53}, {"time": 2219, "pitch": 58, "duration": 2, "velocity": 73}, {"time": 2219, "pitch": 68, "duration": 1, "velocity": 59}, {"time": 2219, "pitch": 70, "duration": 1, "velocity": 59}, {"time": 2219, "pitch": 77, "duration": 4, "velocity": 79}, {"time": 2222, "pitch": 73, "duration": 2, "velocity": 80}, {"time": 2225, "pitch": 44, "duration": 20, "velocity": 82}, {"time": 2225, "pitch": 66, "duration": 3, "velocity": 73}, {"time": 2225, "pitch": 73, "duration": 3, "velocity": 84}, {"time": 2228, "pitch": 51, "duration": 13, "velocity": 79}, {"time": 2231, "pitch": 56, "duration": 4, "velocity": 78}, {"time": 2234, "pitch": 61, "duration": 4, "velocity": 84}, {"time": 2237, "pitch": 56, "duration": 3, "velocity": 43}, {"time": 2240, "pitch": 60, "duration": 3, "velocity": 80}, {"time": 2240, "pitch": 63, "duration": 3, "velocity": 84}, {"time": 2243, "pitch": 56, "duration": 2, "velocity": 57}, {"time": 2246, "pitch": 51, "duration": 2, "velocity": 80}, {"time": 2249, "pitch": 44, "duration": 21, "velocity": 76}, {"time": 2249, "pitch": 60, "duration": 5, "velocity": 79}, {"time": 2249, "pitch": 63, "duration": 5, "velocity": 80}, {"time": 2249, "pitch": 68, "duration": 5, "velocity": 80}, {"time": 2252, "pitch": 51, "duration": 13, "velocity": 77}, {"time": 2255, "pitch": 56, "duration": 14, "velocity": 60}, {"time": 2258, "pitch": 61, "duration": 3, "velocity": 84}, {"time": 2261, "pitch": 63, "duration": 3, "velocity": 80}, {"time": 2264, "pitch": 65, "duration": 3, "velocity": 80}, {"time": 2267, "pitch": 68, "duration": 2, "velocity": 79}, {"time": 2270, "pitch": 51, "duration": 10, "velocity": 80}, {"time": 2273, "pitch": 45, "duration": 5, "velocity": 83}, {"time": 2273, "pitch": 62, "duration": 12, "velocity": 79}, {"time": 2273, "pitch": 67, "duration": 12, "velocity": 82}, {"time": 2273, "pitch": 71, "duration": 13, "velocity": 78}, {"time": 2273, "pitch": 74, "duration": 15, "velocity": 77}, {"time": 2276, "pitch": 52, "duration": 3, "velocity": 78}, {"time": 2279, "pitch": 57, "duration": 3, "velocity": 68}, {"time": 2282, "pitch": 59, "duration": 9, "velocity": 78}, {"time": 2285, "pitch": 61, "duration": 6, "velocity": 86}, {"time": 2288, "pitch": 62, "duration": 4, "velocity": 81}, {"time": 2291, "pitch": 67, "duration": 2, "velocity": 75}, {"time": 2294, "pitch": 74, "duration": 3, "velocity": 83}, {"time": 2297, "pitch": 45, "duration": 6, "velocity": 83}, {"time": 2297, "pitch": 64, "duration": 2, "velocity": 81}, {"time": 2297, "pitch": 69, "duration": 2, "velocity": 79}, {"time": 2297, "pitch": 73, "duration": 4, "velocity": 93}, {"time": 2300, "pitch": 52, "duration": 3, "velocity": 74}, {"time": 2303, "pitch": 57, "duration": 3, "velocity": 77}, {"time": 2303, "pitch": 66, "duration": 1, "velocity": 81}, {"time": 2303, "pitch": 69, "duration": 1, "velocity": 83}, {"time": 2303, "pitch": 74, "duration": 1, "velocity": 90}, {"time": 2306, "pitch": 59, "duration": 3, "velocity": 69}, {"time": 2309, "pitch": 61, "duration": 3, "velocity": 83}, {"time": 2309, "pitch": 66, "duration": 1, "velocity": 75}, {"time": 2309, "pitch": 69, "duration": 1, "velocity": 83}, {"time": 2309, "pitch": 76, "duration": 1, "velocity": 94}, {"time": 2312, "pitch": 59, "duration": 3, "velocity": 69}, {"time": 2315, "pitch": 57, "duration": 3, "velocity": 59}, {"time": 2315, "pitch": 69, "duration": 3, "velocity": 82}, {"time": 2315, "pitch": 78, "duration": 3, "velocity": 94}, {"time": 2318, "pitch": 55, "duration": 1, "velocity": 84}, {"time": 2321, "pitch": 47, "duration": 4, "velocity": 77}, {"time": 2321, "pitch": 66, "duration": 4, "velocity": 76}, {"time": 2321, "pitch": 74, "duration": 3, "velocity": 90}, {"time": 2324, "pitch": 54, "duration": 2, "velocity": 76}, {"time": 2324, "pitch": 73, "duration": 2, "velocity": 80}, {"time": 2327, "pitch": 59, "duration": 3, "velocity": 53}, {"time": 2327, "pitch": 66, "duration": 6, "velocity": 74}, {"time": 2327, "pitch": 74, "duration": 5, "velocity": 82}, {"time": 2330, "pitch": 61, "duration": 4, "velocity": 78}, {"time": 2333, "pitch": 62, "duration": 5, "velocity": 82}, {"time": 2336, "pitch": 66, "duration": 2, "velocity": 69}, {"time": 2339, "pitch": 61, "duration": 2, "velocity": 70}, {"time": 2339, "pitch": 66, "duration": 2, "velocity": 25}, {"time": 2339, "pitch": 73, "duration": 2, "velocity": 79}, {"time": 2342, "pitch": 59, "duration": 1, "velocity": 70}, {"time": 2342, "pitch": 74, "duration": 2, "velocity": 80}, {"time": 2345, "pitch": 45, "duration": 4, "velocity": 76}, {"time": 2345, "pitch": 64, "duration": 7, "velocity": 72}, {"time": 2345, "pitch": 69, "duration": 8, "velocity": 71}, {"time": 2345, "pitch": 73, "duration": 11, "velocity": 83}, {"time": 2348, "pitch": 54, "duration": 2, "velocity": 55}, {"time": 2351, "pitch": 57, "duration": 3, "velocity": 57}, {"time": 2354, "pitch": 61, "duration": 8, "velocity": 75}, {"time": 2357, "pitch": 64, "duration": 4, "velocity": 78}, {"time": 2360, "pitch": 73, "duration": 3, "velocity": 83}, {"time": 2363, "pitch": 74, "duration": 2, "velocity": 83}, {"time": 2366, "pitch": 69, "duration": 2, "velocity": 77}, {"time": 2369, "pitch": 43, "duration": 4, "velocity": 79}, {"time": 2369, "pitch": 62, "duration": 8, "velocity": 72}, {"time": 2369, "pitch": 67, "duration": 8, "velocity": 77}, {"time": 2369, "pitch": 71, "duration": 8, "velocity": 71}, {"time": 2372, "pitch": 50, "duration": 3, "velocity": 77}, {"time": 2375, "pitch": 55, "duration": 5, "velocity": 57}, {"time": 2378, "pitch": 52, "duration": 1, "velocity": 17}, {"time": 2381, "pitch": 45, "duration": 4, "velocity": 76}, {"time": 2381, "pitch": 64, "duration": 3, "velocity": 76}, {"time": 2381, "pitch": 69, "duration": 5, "velocity": 81}, {"time": 2384, "pitch": 52, "duration": 2, "velocity": 78}, {"time": 2387, "pitch": 57, "duration": 4, "velocity": 63}, {"time": 2387, "pitch": 62, "duration": 2, "velocity": 76}, {"time": 2387, "pitch": 67, "duration": 3, "velocity": 84}, {"time": 2390, "pitch": 59, "duration": 2, "velocity": 69}, {"time": 2393, "pitch": 50, "duration": 9, "velocity": 82}, {"time": 2393, "pitch": 64, "duration": 3, "velocity": 75}, {"time": 2393, "pitch": 66, "duration": 6, "velocity": 80}, {"time": 2393, "pitch": 69, "duration": 3, "velocity": 76}, {"time": 2396, "pitch": 57, "duration": 8, "velocity": 76}, {"time": 2399, "pitch": 62, "duration": 2, "velocity": 71}, {"time": 2402, "pitch": 64, "duration": 1, "velocity": 47}, {"time": 2402, "pitch": 66, "duration": 3, "velocity": 80}, {"time": 2405, "pitch": 49, "duration": 8, "velocity": 76}, {"time": 2405, "pitch": 64, "duration": 5, "velocity": 78}, {"time": 2405, "pitch": 69, "duration": 5, "velocity": 80}, {"time": 2408, "pitch": 57, "duration": 5, "velocity": 75}, {"time": 2411, "pitch": 61, "duration": 2, "velocity": 80}, {"time": 2414, "pitch": 69, "duration": 2, "velocity": 76}, {"time": 2417, "pitch": 47, "duration": 5, "velocity": 80}, {"time": 2417, "pitch": 62, "duration": 1, "velocity": 83}, {"time": 2420, "pitch": 54, "duration": 2, "velocity": 76}, {"time": 2423, "pitch": 59, "duration": 3, "velocity": 46}, {"time": 2426, "pitch": 61, "duration": 3, "velocity": 71}, {"time": 2426, "pitch": 66, "duration": 1, "velocity": 74}, {"time": 2426, "pitch": 74, "duration": 2, "velocity": 84}, {"time": 2429, "pitch": 62, "duration": 2, "velocity": 57}, {"time": 2429, "pitch": 64, "duration": 1, "velocity": 76}, {"time": 2429, "pitch": 73, "duration": 1, "velocity": 81}, {"time": 2432, "pitch": 61, "duration": 2, "velocity": 59}, {"time": 2432, "pitch": 66, "duration": 1, "velocity": 72}, {"time": 2432, "pitch": 74, "duration": 1, "velocity": 82}, {"time": 2435, "pitch": 59, "duration": 2, "velocity": 54}, {"time": 2435, "pitch": 73, "duration": 1, "velocity": 78}, {"time": 2438, "pitch": 54, "duration": 1, "velocity": 79}, {"time": 2438, "pitch": 69, "duration": 2, "velocity": 76}, {"time": 2441, "pitch": 43, "duration": 3, "velocity": 77}, {"time": 2441, "pitch": 62, "duration": 4, "velocity": 71}, {"time": 2441, "pitch": 67, "duration": 10, "velocity": 73}, {"time": 2441, "pitch": 71, "duration": 10, "velocity": 77}, {"time": 2444, "pitch": 50, "duration": 2, "velocity": 73}, {"time": 2447, "pitch": 55, "duration": 3, "velocity": 60}, {"time": 2450, "pitch": 57, "duration": 4, "velocity": 75}, {"time": 2453, "pitch": 59, "duration": 7, "velocity": 79}, {"time": 2456, "pitch": 62, "duration": 2, "velocity": 79}, {"time": 2459, "pitch": 57, "duration": 5, "velocity": 75}, {"time": 2459, "pitch": 67, "duration": 2, "velocity": 77}, {"time": 2462, "pitch": 55, "duration": 2, "velocity": 73}, {"time": 2462, "pitch": 69, "duration": 2, "velocity": 72}, {"time": 2465, "pitch": 52, "duration": 5, "velocity": 80}, {"time": 2465, "pitch": 62, "duration": 2, "velocity": 80}, {"time": 2465, "pitch": 67, "duration": 3, "velocity": 82}, {"time": 2465, "pitch": 74, "duration": 4, "velocity": 82}, {"time": 2468, "pitch": 59, "duration": 2, "velocity": 73}, {"time": 2471, "pitch": 64, "duration": 3, "velocity": 76}, {"time": 2474, "pitch": 66, "duration": 3, "velocity": 72}, {"time": 2474, "pitch": 71, "duration": 1, "velocity": 73}, {"time": 2474, "pitch": 79, "duration": 1, "velocity": 86}, {"time": 2477, "pitch": 67, "duration": 2, "velocity": 74}, {"time": 2477, "pitch": 71, "duration": 1, "velocity": 76}, {"time": 2477, "pitch": 79, "duration": 1, "velocity": 84}, {"time": 2480, "pitch": 66, "duration": 2, "velocity": 71}, {"time": 2480, "pitch": 69, "duration": 1, "velocity": 78}, {"time": 2480, "pitch": 78, "duration": 2, "velocity": 78}, {"time": 2483, "pitch": 64, "duration": 2, "velocity": 61}, {"time": 2483, "pitch": 69, "duration": 1, "velocity": 35}, {"time": 2483, "pitch": 76, "duration": 2, "velocity": 80}, {"time": 2486, "pitch": 61, "duration": 1, "velocity": 59}, {"time": 2486, "pitch": 74, "duration": 2, "velocity": 83}, {"time": 2489, "pitch": 45, "duration": 8, "velocity": 84}, {"time": 2489, "pitch": 69, "duration": 2, "velocity": 72}, {"time": 2489, "pitch": 76, "duration": 2, "velocity": 86}, {"time": 2492, "pitch": 52, "duration": 8, "velocity": 79}, {"time": 2495, "pitch": 57, "duration": 4, "velocity": 80}, {"time": 2498, "pitch": 62, "duration": 3, "velocity": 90}, {"time": 2501, "pitch": 45, "duration": 3, "velocity": 84}, {"time": 2501, "pitch": 64, "duration": 1, "velocity": 86}, {"time": 2504, "pitch": 47, "duration": 3, "velocity": 79}, {"time": 2504, "pitch": 67, "duration": 1, "velocity": 43}, {"time": 2504, "pitch": 69, "duration": 1, "velocity": 53}, {"time": 2507, "pitch": 49, "duration": 3, "velocity": 79}, {"time": 2507, "pitch": 71, "duration": 3, "velocity": 79}, {"time": 2510, "pitch": 76, "duration": 1, "velocity": 86}, {"time": 2513, "pitch": 55, "duration": 19, "velocity": 86}, {"time": 2513, "pitch": 67, "duration": 3, "velocity": 81}, {"time": 2513, "pitch": 71, "duration": 3, "velocity": 78}, {"time": 2516, "pitch": 62, "duration": 12, "velocity": 82}, {"time": 2519, "pitch": 67, "duration": 4, "velocity": 72}, {"time": 2522, "pitch": 71, "duration": 1, "velocity": 72}, {"time": 2522, "pitch": 74, "duration": 1, "velocity": 75}, {"time": 2522, "pitch": 79, "duration": 1, "velocity": 83}, {"time": 2525, "pitch": 67, "duration": 4, "velocity": 76}, {"time": 2525, "pitch": 71, "duration": 2, "velocity": 76}, {"time": 2525, "pitch": 74, "duration": 2, "velocity": 75}, {"time": 2525, "pitch": 79, "duration": 3, "velocity": 84}, {"time": 2528, "pitch": 69, "duration": 2, "velocity": 73}, {"time": 2528, "pitch": 78, "duration": 3, "velocity": 79}, {"time": 2531, "pitch": 62, "duration": 2, "velocity": 79}, {"time": 2534, "pitch": 69, "duration": 1, "velocity": 54}, {"time": 2534, "pitch": 76, "duration": 1, "velocity": 78}, {"time": 2537, "pitch": 54, "duration": 18, "velocity": 80}, {"time": 2537, "pitch": 69, "duration": 5, "velocity": 68}, {"time": 2537, "pitch": 73, "duration": 4, "velocity": 82}, {"time": 2537, "pitch": 76, "duration": 4, "velocity": 80}, {"time": 2540, "pitch": 61, "duration": 4, "velocity": 78}, {"time": 2543, "pitch": 66, "duration": 2, "velocity": 79}, {"time": 2546, "pitch": 69, "duration": 3, "velocity": 79}, {"time": 2546, "pitch": 73, "duration": 3, "velocity": 78}, {"time": 2549, "pitch": 61, "duration": 6, "velocity": 80}, {"time": 2549, "pitch": 64, "duration": 4, "velocity": 70}, {"time": 2549, "pitch": 76, "duration": 1, "velocity": 38}, {"time": 2552, "pitch": 69, "duration": 3, "velocity": 79}, {"time": 2555, "pitch": 73, "duration": 3, "velocity": 83}, {"time": 2558, "pitch": 74, "duration": 4, "velocity": 77}, {"time": 2561, "pitch": 43, "duration": 5, "velocity": 81}, {"time": 2561, "pitch": 62, "duration": 8, "velocity": 79}, {"time": 2561, "pitch": 67, "duration": 8, "velocity": 61}, {"time": 2561, "pitch": 71, "duration": 11, "velocity": 78}, {"time": 2564, "pitch": 50, "duration": 2, "velocity": 79}, {"time": 2567, "pitch": 55, "duration": 3, "velocity": 71}, {"time": 2570, "pitch": 59, "duration": 1, "velocity": 76}, {"time": 2573, "pitch": 45, "duration": 3, "velocity": 77}, {"time": 2573, "pitch": 64, "duration": 7, "velocity": 78}, {"time": 2573, "pitch": 69, "duration": 3, "velocity": 75}, {"time": 2573, "pitch": 73, "duration": 3, "velocity": 83}, {"time": 2576, "pitch": 52, "duration": 2, "velocity": 79}, {"time": 2576, "pitch": 71, "duration": 4, "velocity": 78}, {"time": 2579, "pitch": 57, "duration": 4, "velocity": 69}, {"time": 2579, "pitch": 69, "duration": 2, "velocity": 80}, {"time": 2582, "pitch": 59, "duration": 3, "velocity": 71}, {"time": 2582, "pitch": 67, "duration": 2, "velocity": 75}, {"time": 2585, "pitch": 50, "duration": 12, "velocity": 79}, {"time": 2585, "pitch": 66, "duration": 7, "velocity": 79}, {"time": 2585, "pitch": 69, "duration": 5, "velocity": 84}, {"time": 2588, "pitch": 57, "duration": 4, "velocity": 75}, {"time": 2591, "pitch": 62, "duration": 4, "velocity": 71}, {"time": 2594, "pitch": 66, "duration": 2, "velocity": 78}, {"time": 2594, "pitch": 69, "duration": 3, "velocity": 68}, {"time": 2597, "pitch": 57, "duration": 5, "velocity": 78}, {"time": 2597, "pitch": 64, "duration": 2, "velocity": 78}, {"time": 2597, "pitch": 67, "duration": 2, "velocity": 83}, {"time": 2600, "pitch": 64, "duration": 1, "velocity": 16}, {"time": 2600, "pitch": 69, "duration": 2, "velocity": 72}, {"time": 2603, "pitch": 49, "duration": 5, "velocity": 86}, {"time": 2603, "pitch": 64, "duration": 2, "velocity": 56}, {"time": 2603, "pitch": 69, "duration": 2, "velocity": 71}, {"time": 2606, "pitch": 62, "duration": 2, "velocity": 78}, {"time": 2609, "pitch": 47, "duration": 10, "velocity": 75}, {"time": 2609, "pitch": 57, "duration": 3, "velocity": 75}, {"time": 2609, "pitch": 62, "duration": 6, "velocity": 78}, {"time": 2609, "pitch": 66, "duration": 5, "velocity": 79}, {"time": 2609, "pitch": 69, "duration": 5, "velocity": 72}, {"time": 2612, "pitch": 54, "duration": 9, "velocity": 79}, {"time": 2615, "pitch": 59, "duration": 3, "velocity": 59}, {"time": 2618, "pitch": 61, "duration": 2, "velocity": 74}, {"time": 2618, "pitch": 69, "duration": 2, "velocity": 79}, {"time": 2621, "pitch": 45, "duration": 7, "velocity": 78}, {"time": 2621, "pitch": 62, "duration": 2, "velocity": 83}, {"time": 2621, "pitch": 66, "duration": 4, "velocity": 79}, {"time": 2624, "pitch": 54, "duration": 4, "velocity": 78}, {"time": 2627, "pitch": 57, "duration": 1, "velocity": 73}, {"time": 2633, "pitch": 44, "duration": 4, "velocity": 83}, {"time": 2633, "pitch": 59, "duration": 3, "velocity": 68}, {"time": 2633, "pitch": 62, "duration": 3, "velocity": 82}, {"time": 2633, "pitch": 66, "duration": 3, "velocity": 78}, {"time": 2682, "pitch": 45, "duration": 41, "velocity": 71}, {"time": 2682, "pitch": 62, "duration": 5, "velocity": 60}, {"time": 2682, "pitch": 67, "duration": 5, "velocity": 68}, {"time": 2682, "pitch": 71, "duration": 6, "velocity": 61}, {"time": 2688, "pitch": 57, "duration": 10, "velocity": 42}, {"time": 2691, "pitch": 62, "duration": 7, "velocity": 52}, {"time": 2697, "pitch": 74, "duration": 3, "velocity": 77}, {"time": 2703, "pitch": 57, "duration": 18, "velocity": 49}, {"time": 2724, "pitch": 57, "duration": 4, "velocity": 44}, {"time": 2730, "pitch": 50, "duration": 18, "velocity": 74}, {"time": 2730, "pitch": 74, "duration": 6, "velocity": 72}, {"time": 2733, "pitch": 57, "duration": 8, "velocity": 62}, {"time": 2736, "pitch": 62, "duration": 11, "velocity": 72}, {"time": 2739, "pitch": 67, "duration": 7, "velocity": 82}, {"time": 2745, "pitch": 57, "duration": 5, "velocity": 68}, {"time": 2748, "pitch": 69, "duration": 2, "velocity": 76}, {"time": 2751, "pitch": 74, "duration": 13, "velocity": 73}, {"time": 2754, "pitch": 50, "duration": 20, "velocity": 71}, {"time": 2754, "pitch": 62, "duration": 6, "velocity": 49}, {"time": 2754, "pitch": 67, "duration": 6, "velocity": 71}, {"time": 2754, "pitch": 71, "duration": 6, "velocity": 63}, {"time": 2757, "pitch": 55, "duration": 17, "velocity": 67}, {"time": 2760, "pitch": 59, "duration": 10, "velocity": 72}, {"time": 2763, "pitch": 62, "duration": 4, "velocity": 54}, {"time": 2766, "pitch": 67, "duration": 3, "velocity": 76}, {"time": 2769, "pitch": 69, "duration": 2, "velocity": 73}, {"time": 2772, "pitch": 71, "duration": 5, "velocity": 73}, {"time": 2775, "pitch": 74, "duration": 10, "velocity": 73}, {"time": 2778, "pitch": 50, "duration": 21, "velocity": 78}, {"time": 2778, "pitch": 64, "duration": 7, "velocity": 55}, {"time": 2778, "pitch": 66, "duration": 7, "velocity": 69}, {"time": 2778, "pitch": 69, "duration": 7, "velocity": 71}, {"time": 2784, "pitch": 57, "duration": 9, "velocity": 54}, {"time": 2787, "pitch": 62, "duration": 8, "velocity": 63}, {"time": 2790, "pitch": 64, "duration": 4, "velocity": 73}, {"time": 2793, "pitch": 66, "duration": 2, "velocity": 75}, {"time": 2796, "pitch": 57, "duration": 3, "velocity": 71}, {"time": 2796, "pitch": 67, "duration": 2, "velocity": 77}, {"time": 2799, "pitch": 69, "duration": 2, "velocity": 73}, {"time": 2802, "pitch": 55, "duration": 8, "velocity": 79}, {"time": 2802, "pitch": 62, "duration": 3, "velocity": 71}, {"time": 2802, "pitch": 67, "duration": 3, "velocity": 81}, {"time": 2805, "pitch": 59, "duration": 4, "velocity": 62}, {"time": 2807, "pitch": 62, "duration": 6, "velocity": 59}, {"time": 2811, "pitch": 74, "duration": 2, "velocity": 78}, {"time": 2815, "pitch": 45, "duration": 12, "velocity": 79}, {"time": 2815, "pitch": 62, "duration": 1, "velocity": 75}, {"time": 2815, "pitch": 73, "duration": 1, "velocity": 83}, {"time": 2818, "pitch": 74, "duration": 2, "velocity": 77}, {"time": 2818, "pitch": 64, "duration": 1, "velocity": 45}, {"time": 2822, "pitch": 67, "duration": 1, "velocity": 63}, {"time": 2822, "pitch": 76, "duration": 1, "velocity": 82}, {"time": 2822, "pitch": 52, "duration": 5, "velocity": 76}, {"time": 2826, "pitch": 71, "duration": 1, "velocity": 68}, {"time": 2826, "pitch": 79, "duration": 1, "velocity": 83}, {"time": 2826, "pitch": 57, "duration": 1, "velocity": 78}, {"time": 2830, "pitch": 69, "duration": 5, "velocity": 60}, {"time": 2831, "pitch": 74, "duration": 4, "velocity": 76}, {"time": 2831, "pitch": 38, "duration": 2, "velocity": 78}, {"time": 2832, "pitch": 78, "duration": 3, "velocity": 78}, {"time": 2836, "pitch": 50, "duration": 4, "velocity": 60}, {"time": 2838, "pitch": 57, "duration": 2, "velocity": 71}, {"time": 2840, "pitch": 62, "duration": 1, "velocity": 83}, {"time": 2842, "pitch": 64, "duration": 1, "velocity": 69}, {"time": 2843, "pitch": 66, "duration": 3, "velocity": 73}, {"time": 2845, "pitch": 69, "duration": 2, "velocity": 76}, {"time": 2846, "pitch": 74, "duration": 2, "velocity": 76}, {"time": 2849, "pitch": 78, "duration": 4, "velocity": 63}, {"time": 2849, "pitch": 76, "duration": 2, "velocity": 57}, {"time": 2852, "pitch": 81, "duration": 2, "velocity": 73}, {"time": 2855, "pitch": 86, "duration": 2, "velocity": 57}, {"time": 2857, "pitch": 88, "duration": 3, "velocity": 73}, {"time": 2859, "pitch": 90, "duration": 2, "velocity": 77}, {"time": 2862, "pitch": 93, "duration": 1, "velocity": 55}, {"time": 2865, "pitch": 98, "duration": 1, "velocity": 73}], "annotations": [{"time": 18, "annotation": {"number": 64, "value": 127}, "group": "control_change"}, {"time": 41, "annotation": {"number": 64, "value": 0}, "group": "control_change"}, {"time": 43, "annotation": {"number": 64, "value": 127}, "group": "control_change"}, {"time": 65, "annotation": {"number": 64, "value": 0}, "group": "control_change"}, {"time": 66, "annotation": {"number": 64, "value": 127}, "group": "control_change"}, {"time": 89, "annotation": {"number": 64, "value": 0}, "group": "control_change"}, {"time": 92, "annotation": {"number": 64, "value": 127}, "group": "control_change"}, {"time": 121, "annotation": {"number": 64, "value": 0}, "group": "control_change"}, {"time": 121, "annotation": {"number": 64, "value": 127}, "group": "control_change"}, {"time": 125, "annotation": {"number": 64, "value": 127}, "group": "control_change"}, {"time": 131, "annotation": {"number": 64, "value": 0}, "group": "control_change"}, {"time": 138, "annotation": {"number": 64, "value": 127}, "group": "control_change"}, {"time": 160, "annotation": {"number": 64, "value": 0}, "group": "control_change"}, {"time": 160, "annotation": {"number": 64, "value": 127}, "group": "control_change"}, {"time": 164, "annotation": {"number": 64, "value": 127}, "group": "control_change"}, {"time": 184, "annotation": {"number": 64, "value": 0}, "group": "control_change"}, {"time": 187, "annotation": {"number": 64, "value": 127}, "group": "control_change"}, {"time": 208, "annotation": {"number": 64, "value": 0}, "group": "control_change"}, {"time": 210, "annotation": {"number": 64, "value": 127}, "group": "control_change"}, {"time": 210, "annotation": {"number": 64, "value": 0}, "group": "control_change"}, {"time": 232, "annotation": {"number": 64, "value": 0}, "group": "control_change"}, {"time": 234, "annotation": {"number": 64, "value": 127}, "group": "control_change"}, {"time": 254, "annotation": {"number": 64, "value": 0}, "group": "control_change"}, {"time": 254, "annotation": {"number": 64, "value": 127}, "group": "control_change"}, {"time": 261, "annotation": {"number": 64, "value": 127}, "group": "control_change"}, {"time": 281, "annotation": {"number": 64, "value": 0}, "group": "control_change"}, {"time": 285, "annotation": {"number": 64, "value": 127}, "group": "control_change"}, {"time": 353, "annotation": {"number": 64, "value": 0}, "group": "control_change"}, {"time": 376, "annotation": {"number": 64, "value": 127}, "group": "control_change"}, {"time": 401, "annotation": {"number": 64, "value": 0}, "group": "control_change"}, {"time": 404, "annotation": {"number": 64, "value": 127}, "group": "control_change"}, {"time": 413, "annotation": {"number": 64, "value": 0}, "group": "control_change"}, {"time": 416, "annotation": {"number": 64, "value": 127}, "group": "control_change"}, {"time": 425, "annotation": {"number": 64, "value": 0}, "group": "control_change"}, {"time": 428, "annotation": {"number": 64, "value": 127}, "group": "control_change"}, {"time": 447, "annotation": {"number": 64, "value": 0}, "group": "control_change"}, {"time": 449, "annotation": {"number": 64, "value": 127}, "group": "control_change"}, {"time": 459, "annotation": {"number": 64, "value": 0}, "group": "control_change"}, {"time": 461, "annotation": {"number": 64, "value": 127}, "group": "control_change"}, {"time": 471, "annotation": {"number": 64, "value": 0}, "group": "control_change"}, {"time": 474, "annotation": {"number": 64, "value": 127}, "group": "control_change"}, {"time": 497, "annotation": {"number": 64, "value": 127}, "group": "control_change"}, {"time": 500, "annotation": {"number": 64, "value": 0}, "group": "control_change"}, {"time": 520, "annotation": {"number": 64, "value": 0}, "group": "control_change"}, {"time": 520, "annotation": {"number": 64, "value": 127}, "group": "control_change"}, {"time": 521, "annotation": {"number": 64, "value": 0}, "group": "control_change"}, {"time": 523, "annotation": {"number": 64, "value": 127}, "group": "control_change"}, {"time": 545, "annotation": {"number": 64, "value": 0}, "group": "control_change"}, {"time": 547, "annotation": {"number": 64, "value": 127}, "group": "control_change"}, {"time": 568, "annotation": {"number": 64, "value": 0}, "group": "control_change"}, {"time": 570, "annotation": {"number": 64, "value": 127}, "group": "control_change"}, {"time": 593, "annotation": {"number": 64, "value": 0}, "group": "control_change"}, {"time": 594, "annotation": {"number": 64, "value": 127}, "group": "control_change"}, {"time": 605, "annotation": {"number": 64, "value": 0}, "group": "control_change"}, {"time": 607, "annotation": {"number": 64, "value": 127}, "group": "control_change"}, {"time": 616, "annotation": {"number": 64, "value": 0}, "group": "control_change"}, {"time": 618, "annotation": {"number": 64, "value": 127}, "group": "control_change"}, {"time": 652, "annotation": {"number": 64, "value": 0}, "group": "control_change"}, {"time": 654, "annotation": {"number": 64, "value": 127}, "group": "control_change"}, {"time": 664, "annotation": {"number": 64, "value": 0}, "group": "control_change"}, {"time": 666, "annotation": {"number": 64, "value": 127}, "group": "control_change"}, {"time": 689, "annotation": {"number": 64, "value": 0}, "group": "control_change"}, {"time": 689, "annotation": {"number": 64, "value": 127}, "group": "control_change"}, {"time": 691, "annotation": {"number": 64, "value": 127}, "group": "control_change"}, {"time": 714, "annotation": {"number": 64, "value": 0}, "group": "control_change"}, {"time": 716, "annotation": {"number": 64, "value": 127}, "group": "control_change"}, {"time": 725, "annotation": {"number": 64, "value": 0}, "group": "control_change"}, {"time": 727, "annotation": {"number": 64, "value": 127}, "group": "control_change"}, {"time": 738, "annotation": {"number": 64, "value": 0}, "group": "control_change"}, {"time": 740, "annotation": {"number": 64, "value": 127}, "group": "control_change"}, {"time": 772, "annotation": {"number": 64, "value": 0}, "group": "control_change"}, {"time": 775, "annotation": {"number": 64, "value": 127}, "group": "control_change"}, {"time": 784, "annotation": {"number": 64, "value": 0}, "group": "control_change"}, {"time": 787, "annotation": {"number": 64, "value": 127}, "group": "control_change"}, {"time": 809, "annotation": {"number": 64, "value": 0}, "group": "control_change"}, {"time": 812, "annotation": {"number": 64, "value": 127}, "group": "control_change"}, {"time": 832, "annotation": {"number": 64, "value": 0}, "group": "control_change"}, {"time": 835, "annotation": {"number": 64, "value": 127}, "group": "control_change"}, {"time": 845, "annotation": {"number": 64, "value": 0}, "group": "control_change"}, {"time": 847, "annotation": {"number": 64, "value": 127}, "group": "control_change"}, {"time": 856, "annotation": {"number": 64, "value": 0}, "group": "control_change"}, {"time": 859, "annotation": {"number": 64, "value": 127}, "group": "control_change"}, {"time": 868, "annotation": {"number": 64, "value": 0}, "group": "control_change"}, {"time": 871, "annotation": {"number": 64, "value": 127}, "group": "control_change"}, {"time": 880, "annotation": {"number": 64, "value": 0}, "group": "control_change"}, {"time": 882, "annotation": {"number": 64, "value": 127}, "group": "control_change"}, {"time": 905, "annotation": {"number": 64, "value": 0}, "group": "control_change"}, {"time": 907, "annotation": {"number": 64, "value": 127}, "group": "control_change"}, {"time": 928, "annotation": {"number": 64, "value": 0}, "group": "control_change"}, {"time": 931, "annotation": {"number": 64, "value": 127}, "group": "control_change"}, {"time": 952, "annotation": {"number": 64, "value": 0}, "group": "control_change"}, {"time": 952, "annotation": {"number": 64, "value": 127}, "group": "control_change"}, {"time": 954, "annotation": {"number": 64, "value": 127}, "group": "control_change"}, {"time": 977, "annotation": {"number": 64, "value": 0}, "group": "control_change"}, {"time": 979, "annotation": {"number": 64, "value": 127}, "group": "control_change"}, {"time": 1000, "annotation": {"number": 64, "value": 0}, "group": "control_change"}, {"time": 1002, "annotation": {"number": 64, "value": 127}, "group": "control_change"}, {"time": 1026, "annotation": {"number": 64, "value": 0}, "group": "control_change"}, {"time": 1027, "annotation": {"number": 64, "value": 127}, "group": "control_change"}, {"time": 1037, "annotation": {"number": 64, "value": 0}, "group": "control_change"}, {"time": 1039, "annotation": {"number": 64, "value": 127}, "group": "control_change"}, {"time": 1049, "annotation": {"number": 64, "value": 0}, "group": "control_change"}, {"time": 1049, "annotation": {"number": 64, "value": 127}, "group": "control_change"}, {"time": 1050, "annotation": {"number": 64, "value": 0}, "group": "control_change"}, {"time": 1052, "annotation": {"number": 64, "value": 127}, "group": "control_change"}, {"time": 1073, "annotation": {"number": 64, "value": 0}, "group": "control_change"}, {"time": 1075, "annotation": {"number": 64, "value": 127}, "group": "control_change"}, {"time": 1085, "annotation": {"number": 64, "value": 0}, "group": "control_change"}, {"time": 1087, "annotation": {"number": 64, "value": 127}, "group": "control_change"}, {"time": 1097, "annotation": {"number": 64, "value": 0}, "group": "control_change"}, {"time": 1099, "annotation": {"number": 64, "value": 127}, "group": "control_change"}, {"time": 1120, "annotation": {"number": 64, "value": 127}, "group": "control_change"}, {"time": 1129, "annotation": {"number": 64, "value": 0}, "group": "control_change"}, {"time": 1146, "annotation": {"number": 64, "value": 0}, "group": "control_change"}, {"time": 1148, "annotation": {"number": 64, "value": 127}, "group": "control_change"}, {"time": 1148, "annotation": {"number": 64, "value": 0}, "group": "control_change"}, {"time": 1169, "annotation": {"number": 64, "value": 0}, "group": "control_change"}, {"time": 1171, "annotation": {"number": 64, "value": 127}, "group": "control_change"}, {"time": 1216, "annotation": {"number": 64, "value": 0}, "group": "control_change"}, {"time": 1216, "annotation": {"number": 64, "value": 127}, "group": "control_change"}, {"time": 1217, "annotation": {"number": 64, "value": 0}, "group": "control_change"}, {"time": 1217, "annotation": {"number": 64, "value": 127}, "group": "control_change"}, {"time": 1241, "annotation": {"number": 64, "value": 0}, "group": "control_change"}, {"time": 1243, "annotation": {"number": 64, "value": 127}, "group": "control_change"}, {"time": 1265, "annotation": {"number": 64, "value": 0}, "group": "control_change"}, {"time": 1267, "annotation": {"number": 64, "value": 127}, "group": "control_change"}, {"time": 1277, "annotation": {"number": 64, "value": 0}, "group": "control_change"}, {"time": 1279, "annotation": {"number": 64, "value": 127}, "group": "control_change"}, {"time": 1288, "annotation": {"number": 64, "value": 0}, "group": "control_change"}, {"time": 1290, "annotation": {"number": 64, "value": 127}, "group": "control_change"}, {"time": 1313, "annotation": {"number": 64, "value": 0}, "group": "control_change"}, {"time": 1315, "annotation": {"number": 64, "value": 127}, "group": "control_change"}, {"time": 1337, "annotation": {"number": 64, "value": 0}, "group": "control_change"}, {"time": 1339, "annotation": {"number": 64, "value": 127}, "group": "control_change"}, {"time": 1350, "annotation": {"number": 64, "value": 127}, "group": "control_change"}, {"time": 1360, "annotation": {"number": 64, "value": 0}, "group": "control_change"}, {"time": 1361, "annotation": {"number": 64, "value": 0}, "group": "control_change"}, {"time": 1364, "annotation": {"number": 64, "value": 127}, "group": "control_change"}, {"time": 1386, "annotation": {"number": 64, "value": 0}, "group": "control_change"}, {"time": 1388, "annotation": {"number": 64, "value": 127}, "group": "control_change"}, {"time": 1429, "annotation": {"number": 64, "value": 0}, "group": "control_change"}, {"time": 1434, "annotation": {"number": 64, "value": 127}, "group": "control_change"}, {"time": 1457, "annotation": {"number": 64, "value": 0}, "group": "control_change"}, {"time": 1458, "annotation": {"number": 64, "value": 127}, "group": "control_change"}, {"time": 1469, "annotation": {"number": 64, "value": 0}, "group": "control_change"}, {"time": 1471, "annotation": {"number": 64, "value": 127}, "group": "control_change"}, {"time": 1480, "annotation": {"number": 64, "value": 0}, "group": "control_change"}, {"time": 1482, "annotation": {"number": 64, "value": 127}, "group": "control_change"}, {"time": 1516, "annotation": {"number": 64, "value": 0}, "group": "control_change"}, {"time": 1518, "annotation": {"number": 64, "value": 127}, "group": "control_change"}, {"time": 1528, "annotation": {"number": 64, "value": 0}, "group": "control_change"}, {"time": 1530, "annotation": {"number": 64, "value": 127}, "group": "control_change"}, {"time": 1553, "annotation": {"number": 64, "value": 0}, "group": "control_change"}, {"time": 1553, "annotation": {"number": 64, "value": 127}, "group": "control_change"}, {"time": 1555, "annotation": {"number": 64, "value": 127}, "group": "control_change"}, {"time": 1578, "annotation": {"number": 64, "value": 0}, "group": "control_change"}, {"time": 1580, "annotation": {"number": 64, "value": 127}, "group": "control_change"}, {"time": 1589, "annotation": {"number": 64, "value": 0}, "group": "control_change"}, {"time": 1591, "annotation": {"number": 64, "value": 127}, "group": "control_change"}, {"time": 1602, "annotation": {"number": 64, "value": 0}, "group": "control_change"}, {"time": 1604, "annotation": {"number": 64, "value": 127}, "group": "control_change"}, {"time": 1636, "annotation": {"number": 64, "value": 0}, "group": "control_change"}, {"time": 1639, "annotation": {"number": 64, "value": 127}, "group": "control_change"}, {"time": 1648, "annotation": {"number": 64, "value": 0}, "group": "control_change"}, {"time": 1649, "annotation": {"number": 64, "value": 127}, "group": "control_change"}, {"time": 1673, "annotation": {"number": 64, "value": 0}, "group": "control_change"}, {"time": 1675, "annotation": {"number": 64, "value": 127}, "group": "control_change"}, {"time": 1698, "annotation": {"number": 64, "value": 0}, "group": "control_change"}, {"time": 1701, "annotation": {"number": 64, "value": 127}, "group": "control_change"}, {"time": 1709, "annotation": {"number": 64, "value": 0}, "group": "control_change"}, {"time": 1712, "annotation": {"number": 64, "value": 127}, "group": "control_change"}, {"time": 1721, "annotation": {"number": 64, "value": 0}, "group": "control_change"}, {"time": 1724, "annotation": {"number": 64, "value": 127}, "group": "control_change"}, {"time": 1732, "annotation": {"number": 64, "value": 0}, "group": "control_change"}, {"time": 1734, "annotation": {"number": 64, "value": 127}, "group": "control_change"}, {"time": 1734, "annotation": {"number": 64, "value": 0}, "group": "control_change"}, {"time": 1744, "annotation": {"number": 64, "value": 0}, "group": "control_change"}, {"time": 1748, "annotation": {"number": 64, "value": 127}, "group": "control_change"}, {"time": 1763, "annotation": {"number": 64, "value": 0}, "group": "control_change"}, {"time": 1764, "annotation": {"number": 64, "value": 127}, "group": "control_change"}, {"time": 1769, "annotation": {"number": 64, "value": 0}, "group": "control_change"}, {"time": 1772, "annotation": {"number": 64, "value": 127}, "group": "control_change"}, {"time": 1792, "annotation": {"number": 64, "value": 0}, "group": "control_change"}, {"time": 1796, "annotation": {"number": 64, "value": 127}, "group": "control_change"}, {"time": 1796, "annotation": {"number": 64, "value": 0}, "group": "control_change"}, {"time": 1816, "annotation": {"number": 64, "value": 0}, "group": "control_change"}, {"time": 1820, "annotation": {"number": 64, "value": 127}, "group": "control_change"}, {"time": 1840, "annotation": {"number": 64, "value": 0}, "group": "control_change"}, {"time": 1842, "annotation": {"number": 64, "value": 127}, "group": "control_change"}, {"time": 1865, "annotation": {"number": 64, "value": 0}, "group": "control_change"}, {"time": 1868, "annotation": {"number": 64, "value": 127}, "group": "control_change"}, {"time": 1889, "annotation": {"number": 64, "value": 0}, "group": "control_change"}, {"time": 1892, "annotation": {"number": 64, "value": 127}, "group": "control_change"}, {"time": 1902, "annotation": {"number": 64, "value": 0}, "group": "control_change"}, {"time": 1904, "annotation": {"number": 64, "value": 127}, "group": "control_change"}, {"time": 1912, "annotation": {"number": 64, "value": 0}, "group": "control_change"}, {"time": 1916, "annotation": {"number": 64, "value": 127}, "group": "control_change"}, {"time": 1925, "annotation": {"number": 64, "value": 0}, "group": "control_change"}, {"time": 1928, "annotation": {"number": 64, "value": 127}, "group": "control_change"}, {"time": 1928, "annotation": {"number": 64, "value": 0}, "group": "control_change"}, {"time": 1929, "annotation": {"number": 64, "value": 127}, "group": "control_change"}, {"time": 1937, "annotation": {"number": 64, "value": 0}, "group": "control_change"}, {"time": 1939, "annotation": {"number": 64, "value": 127}, "group": "control_change"}, {"time": 1950, "annotation": {"number": 64, "value": 0}, "group": "control_change"}, {"time": 1952, "annotation": {"number": 64, "value": 127}, "group": "control_change"}, {"time": 1961, "annotation": {"number": 64, "value": 0}, "group": "control_change"}, {"time": 1962, "annotation": {"number": 64, "value": 127}, "group": "control_change"}, {"time": 1985, "annotation": {"number": 64, "value": 0}, "group": "control_change"}, {"time": 1988, "annotation": {"number": 64, "value": 127}, "group": "control_change"}, {"time": 2009, "annotation": {"number": 64, "value": 0}, "group": "control_change"}, {"time": 2012, "annotation": {"number": 64, "value": 127}, "group": "control_change"}, {"time": 2032, "annotation": {"number": 64, "value": 0}, "group": "control_change"}, {"time": 2032, "annotation": {"number": 64, "value": 127}, "group": "control_change"}, {"time": 2055, "annotation": {"number": 64, "value": 0}, "group": "control_change"}, {"time": 2058, "annotation": {"number": 64, "value": 127}, "group": "control_change"}, {"time": 2070, "annotation": {"number": 64, "value": 127}, "group": "control_change"}, {"time": 2072, "annotation": {"number": 64, "value": 0}, "group": "control_change"}, {"time": 2080, "annotation": {"number": 64, "value": 0}, "group": "control_change"}, {"time": 2096, "annotation": {"number": 64, "value": 127}, "group": "control_change"}, {"time": 2096, "annotation": {"number": 64, "value": 0}, "group": "control_change"}, {"time": 2105, "annotation": {"number": 64, "value": 0}, "group": "control_change"}, {"time": 2105, "annotation": {"number": 64, "value": 127}, "group": "control_change"}, {"time": 2128, "annotation": {"number": 64, "value": 0}, "group": "control_change"}, {"time": 2129, "annotation": {"number": 64, "value": 127}, "group": "control_change"}, {"time": 2152, "annotation": {"number": 64, "value": 0}, "group": "control_change"}, {"time": 2155, "annotation": {"number": 64, "value": 127}, "group": "control_change"}, {"time": 2176, "annotation": {"number": 64, "value": 0}, "group": "control_change"}, {"time": 2179, "annotation": {"number": 64, "value": 127}, "group": "control_change"}, {"time": 2200, "annotation": {"number": 64, "value": 0}, "group": "control_change"}, {"time": 2200, "annotation": {"number": 64, "value": 127}, "group": "control_change"}, {"time": 2201, "annotation": {"number": 64, "value": 0}, "group": "control_change"}, {"time": 2202, "annotation": {"number": 64, "value": 127}, "group": "control_change"}, {"time": 2223, "annotation": {"number": 64, "value": 0}, "group": "control_change"}, {"time": 2225, "annotation": {"number": 64, "value": 127}, "group": "control_change"}, {"time": 2248, "annotation": {"number": 64, "value": 0}, "group": "control_change"}, {"time": 2248, "annotation": {"number": 64, "value": 127}, "group": "control_change"}, {"time": 2249, "annotation": {"number": 64, "value": 127}, "group": "control_change"}, {"time": 2272, "annotation": {"number": 64, "value": 0}, "group": "control_change"}, {"time": 2273, "annotation": {"number": 64, "value": 127}, "group": "control_change"}, {"time": 2321, "annotation": {"number": 64, "value": 0}, "group": "control_change"}, {"time": 2323, "annotation": {"number": 64, "value": 127}, "group": "control_change"}, {"time": 2345, "annotation": {"number": 64, "value": 0}, "group": "control_change"}, {"time": 2348, "annotation": {"number": 64, "value": 127}, "group": "control_change"}, {"time": 2368, "annotation": {"number": 64, "value": 0}, "group": "control_change"}, {"time": 2371, "annotation": {"number": 64, "value": 127}, "group": "control_change"}, {"time": 2381, "annotation": {"number": 64, "value": 0}, "group": "control_change"}, {"time": 2383, "annotation": {"number": 64, "value": 127}, "group": "control_change"}, {"time": 2392, "annotation": {"number": 64, "value": 0}, "group": "control_change"}, {"time": 2395, "annotation": {"number": 64, "value": 127}, "group": "control_change"}, {"time": 2404, "annotation": {"number": 64, "value": 0}, "group": "control_change"}, {"time": 2407, "annotation": {"number": 64, "value": 127}, "group": "control_change"}, {"time": 2416, "annotation": {"number": 64, "value": 0}, "group": "control_change"}, {"time": 2418, "annotation": {"number": 64, "value": 127}, "group": "control_change"}, {"time": 2441, "annotation": {"number": 64, "value": 0}, "group": "control_change"}, {"time": 2443, "annotation": {"number": 64, "value": 127}, "group": "control_change"}, {"time": 2464, "annotation": {"number": 64, "value": 0}, "group": "control_change"}, {"time": 2467, "annotation": {"number": 64, "value": 127}, "group": "control_change"}, {"time": 2488, "annotation": {"number": 64, "value": 0}, "group": "control_change"}, {"time": 2488, "annotation": {"number": 64, "value": 127}, "group": "control_change"}, {"time": 2490, "annotation": {"number": 64, "value": 127}, "group": "control_change"}, {"time": 2513, "annotation": {"number": 64, "value": 0}, "group": "control_change"}, {"time": 2515, "annotation": {"number": 64, "value": 127}, "group": "control_change"}, {"time": 2536, "annotation": {"number": 64, "value": 0}, "group": "control_change"}, {"time": 2538, "annotation": {"number": 64, "value": 127}, "group": "control_change"}, {"time": 2562, "annotation": {"number": 64, "value": 0}, "group": "control_change"}, {"time": 2563, "annotation": {"number": 64, "value": 127}, "group": "control_change"}, {"time": 2573, "annotation": {"number": 64, "value": 0}, "group": "control_change"}, {"time": 2575, "annotation": {"number": 64, "value": 127}, "group": "control_change"}, {"time": 2585, "annotation": {"number": 64, "value": 0}, "group": "control_change"}, {"time": 2585, "annotation": {"number": 64, "value": 127}, "group": "control_change"}, {"time": 2586, "annotation": {"number": 64, "value": 0}, "group": "control_change"}, {"time": 2588, "annotation": {"number": 64, "value": 127}, "group": "control_change"}, {"time": 2609, "annotation": {"number": 64, "value": 0}, "group": "control_change"}, {"time": 2611, "annotation": {"number": 64, "value": 127}, "group": "control_change"}, {"time": 2621, "annotation": {"number": 64, "value": 0}, "group": "control_change"}, {"time": 2623, "annotation": {"number": 64, "value": 127}, "group": "control_change"}, {"time": 2633, "annotation": {"number": 64, "value": 0}, "group": "control_change"}, {"time": 2635, "annotation": {"number": 64, "value": 127}, "group": "control_change"}, {"time": 2656, "annotation": {"number": 64, "value": 127}, "group": "control_change"}, {"time": 2657, "annotation": {"number": 64, "value": 0}, "group": "control_change"}, {"time": 2682, "annotation": {"number": 64, "value": 127}, "group": "control_change"}, {"time": 2729, "annotation": {"number": 64, "value": 0}, "group": "control_change"}, {"time": 2733, "annotation": {"number": 64, "value": 127}, "group": "control_change"}, {"time": 2753, "annotation": {"number": 64, "value": 0}, "group": "control_change"}, {"time": 2753, "annotation": {"number": 64, "value": 127}, "group": "control_change"}, {"time": 2759, "annotation": {"number": 64, "value": 127}, "group": "control_change"}, {"time": 2759, "annotation": {"number": 64, "value": 0}, "group": "control_change"}, {"time": 2778, "annotation": {"number": 64, "value": 0}, "group": "control_change"}, {"time": 2782, "annotation": {"number": 64, "value": 127}, "group": "control_change"}, {"time": 2782, "annotation": {"number": 64, "value": 0}, "group": "control_change"}, {"time": 2803, "annotation": {"number": 64, "value": 0}, "group": "control_change"}, {"time": 2804, "annotation": {"number": 64, "value": 127}, "group": "control_change"}, {"time": 2855, "annotation": {"number": 64, "value": 0}, "group": "control_change"}, {"time": 2857, "annotation": {"number": 64, "value": 127}, "group": "control_change"}, {"time": 2857, "annotation": {"number": 64, "value": 0}, "group": "control_change"}, {"time": 2862, "annotation": {"number": 64, "value": 127}, "group": "control_change"}, {"time": 2870, "annotation": {"number": 64, "value": 0}, "group": "control_change"}, {"time": 2871, "annotation": {"number": 64, "value": 127}, "group": "control_change"}, {"time": 2871, "annotation": {"number": 64, "value": 0}, "group": "control_change"}, {"time": 2873, "annotation": {"number": 64, "value": 127}, "group": "control_change"}, {"time": 2876, "annotation": {"number": 64, "value": 0}, "group": "control_change"}, {"time": 2877, "annotation": {"number": 64, "value": 127}, "group": "control_change"}, {"time": 2884, "annotation": {"number": 64, "value": 0}, "group": "control_change"}]}]}