{"metadata": {"schema_version": "0.2", "title": "None", "source_filename": "257.mid", "source_format": "midi"}, "resolution": 12, "tempos": [{"time": 0, "qpm": 126.99998518333506}, {"time": 14, "qpm": 122.0000691333725}, {"time": 26, "qpm": 126.000126000126}, {"time": 62, "qpm": 129.00035475097556}, {"time": 170, "qpm": 134.00005806669182}, {"time": 206, "qpm": 130.00041166797027}, {"time": 350, "qpm": 132.000132000132}, {"time": 422, "qpm": 129.00035475097556}, {"time": 542, "qpm": 130.00041166797027}, {"time": 566, "qpm": 126.99998518333506}, {"time": 782, "qpm": 130.00041166797027}, {"time": 878, "qpm": 126.99998518333506}, {"time": 1982, "qpm": 125.0}, {"time": 2078, "qpm": 123.99999173333389}, {"time": 2126, "qpm": 126.99998518333506}, {"time": 2174, "qpm": 122.99996925000768}, {"time": 2222, "qpm": 126.99998518333506}, {"time": 2270, "qpm": 122.99996925000768}, {"time": 2318, "qpm": 125.0}, {"time": 2510, "qpm": 126.99998518333506}, {"time": 2630, "qpm": 125.0}, {"time": 2726, "qpm": 122.99996925000768}, {"time": 2774, "qpm": 126.99998518333506}, {"time": 2810, "qpm": 125.0}, {"time": 2846, "qpm": 122.99996925000768}, {"time": 2894, "qpm": 125.0}, {"time": 2918, "qpm": 123.99999173333389}, {"time": 2942, "qpm": 125.0}, {"time": 2966, "qpm": 126.000126000126}, {"time": 2990, "qpm": 125.0}, {"time": 3014, "qpm": 126.99998518333506}, {"time": 3074, "qpm": 125.0}, {"time": 3098, "qpm": 123.99999173333389}, {"time": 3134, "qpm": 126.99998518333506}, {"time": 3230, "qpm": 123.99999173333389}, {"time": 3254, "qpm": 126.99998518333506}, {"time": 3278, "qpm": 125.0}, {"time": 3326, "qpm": 120.99994353335968}, {"time": 3374, "qpm": 91.99998773333498}, {"time": 3398, "qpm": 60.0}, {"time": 3422, "qpm": 45.99999386666749}, {"time": 3446, "qpm": 72.00011520018433}, {"time": 3470, "qpm": 75.0}], "time_signatures": [{"time": 0, "numerator": 4, "denominator": 4}], "tracks": [{"program": 4, "is_drum": false, "name": "MELODY", "notes": [{"time": 374, "pitch": 81, "duration": 12, "velocity": 79}, {"time": 386, "pitch": 79, "duration": 12, "velocity": 76}, {"time": 398, "pitch": 81, "duration": 12, "velocity": 84}, {"time": 410, "pitch": 84, "duration": 12, "velocity": 86}, {"time": 422, "pitch": 77, "duration": 18, "velocity": 83}, {"time": 440, "pitch": 74, "duration": 6, "velocity": 79}, {"time": 446, "pitch": 84, "duration": 12, "velocity": 94}, {"time": 458, "pitch": 81, "duration": 12, "velocity": 84}, {"time": 470, "pitch": 81, "duration": 12, "velocity": 82}, {"time": 482, "pitch": 79, "duration": 36, "velocity": 61}, {"time": 518, "pitch": 77, "duration": 12, "velocity": 93}, {"time": 530, "pitch": 77, "duration": 6, "velocity": 93}, {"time": 536, "pitch": 74, "duration": 6, "velocity": 95}, {"time": 542, "pitch": 77, "duration": 12, "velocity": 84}, {"time": 554, "pitch": 79, "duration": 6, "velocity": 83}, {"time": 560, "pitch": 81, "duration": 6, "velocity": 73}, {"time": 566, "pitch": 77, "duration": 18, "velocity": 83}, {"time": 584, "pitch": 74, "duration": 6, "velocity": 82}, {"time": 590, "pitch": 72, "duration": 12, "velocity": 82}, {"time": 602, "pitch": 69, "duration": 12, "velocity": 83}, {"time": 614, "pitch": 72, "duration": 48, "velocity": 93}, {"time": 662, "pitch": 74, "duration": 24, "velocity": 93}, {"time": 686, "pitch": 74, "duration": 6, "velocity": 86}, {"time": 692, "pitch": 77, "duration": 6, "velocity": 95}, {"time": 698, "pitch": 72, "duration": 12, "velocity": 90}, {"time": 710, "pitch": 74, "duration": 18, "velocity": 90}, {"time": 728, "pitch": 77, "duration": 6, "velocity": 80}, {"time": 734, "pitch": 79, "duration": 12, "velocity": 80}, {"time": 746, "pitch": 81, "duration": 12, "velocity": 90}, {"time": 758, "pitch": 79, "duration": 12, "velocity": 82}, {"time": 770, "pitch": 77, "duration": 12, "velocity": 86}, {"time": 782, "pitch": 74, "duration": 12, "velocity": 84}, {"time": 794, "pitch": 72, "duration": 12, "velocity": 95}, {"time": 806, "pitch": 74, "duration": 48, "velocity": 86}, {"time": 854, "pitch": 74, "duration": 18, "velocity": 91}, {"time": 872, "pitch": 77, "duration": 6, "velocity": 86}, {"time": 878, "pitch": 79, "duration": 12, "velocity": 82}, {"time": 890, "pitch": 81, "duration": 12, "velocity": 86}, {"time": 902, "pitch": 79, "duration": 18, "velocity": 82}, {"time": 920, "pitch": 77, "duration": 6, "velocity": 86}, {"time": 926, "pitch": 74, "duration": 12, "velocity": 83}, {"time": 938, "pitch": 72, "duration": 12, "velocity": 91}, {"time": 950, "pitch": 69, "duration": 18, "velocity": 90}, {"time": 968, "pitch": 72, "duration": 6, "velocity": 84}, {"time": 974, "pitch": 79, "duration": 12, "velocity": 56}, {"time": 986, "pitch": 74, "duration": 12, "velocity": 82}, {"time": 998, "pitch": 72, "duration": 24, "velocity": 90}, {"time": 1190, "pitch": 81, "duration": 12, "velocity": 79}, {"time": 1202, "pitch": 79, "duration": 12, "velocity": 76}, {"time": 1214, "pitch": 81, "duration": 12, "velocity": 84}, {"time": 1226, "pitch": 84, "duration": 12, "velocity": 86}, {"time": 1238, "pitch": 77, "duration": 18, "velocity": 83}, {"time": 1256, "pitch": 74, "duration": 6, "velocity": 79}, {"time": 1262, "pitch": 84, "duration": 12, "velocity": 94}, {"time": 1274, "pitch": 81, "duration": 12, "velocity": 84}, {"time": 1286, "pitch": 81, "duration": 12, "velocity": 82}, {"time": 1298, "pitch": 79, "duration": 36, "velocity": 61}, {"time": 1334, "pitch": 77, "duration": 12, "velocity": 93}, {"time": 1346, "pitch": 77, "duration": 6, "velocity": 93}, {"time": 1352, "pitch": 74, "duration": 6, "velocity": 95}, {"time": 1358, "pitch": 77, "duration": 12, "velocity": 84}, {"time": 1370, "pitch": 79, "duration": 6, "velocity": 83}, {"time": 1376, "pitch": 81, "duration": 6, "velocity": 73}, {"time": 1382, "pitch": 77, "duration": 18, "velocity": 83}, {"time": 1400, "pitch": 74, "duration": 6, "velocity": 82}, {"time": 1406, "pitch": 72, "duration": 12, "velocity": 82}, {"time": 1418, "pitch": 69, "duration": 12, "velocity": 83}, {"time": 1430, "pitch": 72, "duration": 48, "velocity": 93}, {"time": 1478, "pitch": 74, "duration": 24, "velocity": 93}, {"time": 1502, "pitch": 74, "duration": 6, "velocity": 86}, {"time": 1508, "pitch": 77, "duration": 6, "velocity": 95}, {"time": 1514, "pitch": 72, "duration": 12, "velocity": 90}, {"time": 1526, "pitch": 74, "duration": 18, "velocity": 90}, {"time": 1544, "pitch": 77, "duration": 6, "velocity": 80}, {"time": 1550, "pitch": 79, "duration": 12, "velocity": 80}, {"time": 1562, "pitch": 81, "duration": 12, "velocity": 90}, {"time": 1574, "pitch": 79, "duration": 12, "velocity": 82}, {"time": 1586, "pitch": 77, "duration": 12, "velocity": 86}, {"time": 1598, "pitch": 74, "duration": 12, "velocity": 84}, {"time": 1610, "pitch": 72, "duration": 12, "velocity": 95}, {"time": 1622, "pitch": 74, "duration": 48, "velocity": 86}, {"time": 1670, "pitch": 74, "duration": 18, "velocity": 91}, {"time": 1688, "pitch": 77, "duration": 6, "velocity": 86}, {"time": 1694, "pitch": 79, "duration": 12, "velocity": 82}, {"time": 1706, "pitch": 81, "duration": 12, "velocity": 86}, {"time": 1718, "pitch": 79, "duration": 18, "velocity": 82}, {"time": 1736, "pitch": 77, "duration": 6, "velocity": 86}, {"time": 1742, "pitch": 74, "duration": 12, "velocity": 83}, {"time": 1754, "pitch": 72, "duration": 12, "velocity": 91}, {"time": 1766, "pitch": 69, "duration": 18, "velocity": 90}, {"time": 1784, "pitch": 72, "duration": 6, "velocity": 84}, {"time": 1790, "pitch": 79, "duration": 12, "velocity": 56}, {"time": 1802, "pitch": 74, "duration": 12, "velocity": 82}, {"time": 1814, "pitch": 72, "duration": 24, "velocity": 90}, {"time": 2006, "pitch": 81, "duration": 12, "velocity": 79}, {"time": 2018, "pitch": 79, "duration": 12, "velocity": 76}, {"time": 2030, "pitch": 81, "duration": 12, "velocity": 84}, {"time": 2042, "pitch": 84, "duration": 12, "velocity": 86}, {"time": 2054, "pitch": 77, "duration": 18, "velocity": 83}, {"time": 2072, "pitch": 74, "duration": 6, "velocity": 79}, {"time": 2078, "pitch": 84, "duration": 12, "velocity": 94}, {"time": 2090, "pitch": 81, "duration": 12, "velocity": 84}, {"time": 2102, "pitch": 81, "duration": 12, "velocity": 82}, {"time": 2114, "pitch": 79, "duration": 36, "velocity": 61}, {"time": 2150, "pitch": 77, "duration": 12, "velocity": 93}, {"time": 2162, "pitch": 77, "duration": 6, "velocity": 93}, {"time": 2168, "pitch": 74, "duration": 6, "velocity": 95}, {"time": 2174, "pitch": 77, "duration": 12, "velocity": 84}, {"time": 2186, "pitch": 79, "duration": 6, "velocity": 83}, {"time": 2192, "pitch": 81, "duration": 6, "velocity": 73}, {"time": 2198, "pitch": 77, "duration": 18, "velocity": 83}, {"time": 2216, "pitch": 74, "duration": 6, "velocity": 82}, {"time": 2222, "pitch": 72, "duration": 12, "velocity": 82}, {"time": 2234, "pitch": 69, "duration": 12, "velocity": 83}, {"time": 2246, "pitch": 72, "duration": 48, "velocity": 93}, {"time": 2294, "pitch": 74, "duration": 24, "velocity": 93}, {"time": 2318, "pitch": 74, "duration": 6, "velocity": 86}, {"time": 2324, "pitch": 77, "duration": 6, "velocity": 95}, {"time": 2330, "pitch": 72, "duration": 12, "velocity": 90}, {"time": 2342, "pitch": 74, "duration": 18, "velocity": 90}, {"time": 2360, "pitch": 77, "duration": 6, "velocity": 80}, {"time": 2366, "pitch": 79, "duration": 12, "velocity": 80}, {"time": 2378, "pitch": 81, "duration": 12, "velocity": 90}, {"time": 2390, "pitch": 79, "duration": 12, "velocity": 82}, {"time": 2402, "pitch": 77, "duration": 12, "velocity": 86}, {"time": 2414, "pitch": 74, "duration": 12, "velocity": 84}, {"time": 2426, "pitch": 72, "duration": 12, "velocity": 95}, {"time": 2438, "pitch": 74, "duration": 48, "velocity": 86}, {"time": 2486, "pitch": 74, "duration": 18, "velocity": 91}, {"time": 2504, "pitch": 77, "duration": 6, "velocity": 86}, {"time": 2510, "pitch": 79, "duration": 12, "velocity": 82}, {"time": 2522, "pitch": 81, "duration": 12, "velocity": 86}, {"time": 2534, "pitch": 79, "duration": 18, "velocity": 82}, {"time": 2552, "pitch": 77, "duration": 6, "velocity": 86}, {"time": 2558, "pitch": 74, "duration": 12, "velocity": 83}, {"time": 2570, "pitch": 72, "duration": 12, "velocity": 91}, {"time": 2582, "pitch": 69, "duration": 18, "velocity": 90}, {"time": 2600, "pitch": 72, "duration": 6, "velocity": 84}, {"time": 2606, "pitch": 79, "duration": 12, "velocity": 56}, {"time": 2618, "pitch": 74, "duration": 12, "velocity": 82}, {"time": 2630, "pitch": 72, "duration": 24, "velocity": 90}, {"time": 2822, "pitch": 81, "duration": 12, "velocity": 79}, {"time": 2834, "pitch": 79, "duration": 12, "velocity": 76}, {"time": 2846, "pitch": 81, "duration": 12, "velocity": 84}, {"time": 2858, "pitch": 84, "duration": 12, "velocity": 86}, {"time": 2870, "pitch": 77, "duration": 18, "velocity": 83}, {"time": 2888, "pitch": 74, "duration": 6, "velocity": 79}, {"time": 2894, "pitch": 84, "duration": 12, "velocity": 94}, {"time": 2906, "pitch": 81, "duration": 12, "velocity": 84}, {"time": 2918, "pitch": 81, "duration": 12, "velocity": 82}, {"time": 2930, "pitch": 79, "duration": 36, "velocity": 61}, {"time": 2966, "pitch": 77, "duration": 12, "velocity": 93}, {"time": 2978, "pitch": 77, "duration": 6, "velocity": 93}, {"time": 2984, "pitch": 74, "duration": 6, "velocity": 95}, {"time": 2990, "pitch": 77, "duration": 12, "velocity": 84}, {"time": 3002, "pitch": 79, "duration": 6, "velocity": 83}, {"time": 3008, "pitch": 81, "duration": 6, "velocity": 73}, {"time": 3014, "pitch": 77, "duration": 18, "velocity": 83}, {"time": 3032, "pitch": 74, "duration": 6, "velocity": 82}, {"time": 3038, "pitch": 72, "duration": 12, "velocity": 82}, {"time": 3050, "pitch": 69, "duration": 12, "velocity": 83}, {"time": 3062, "pitch": 72, "duration": 48, "velocity": 93}, {"time": 3110, "pitch": 74, "duration": 24, "velocity": 93}, {"time": 3134, "pitch": 74, "duration": 6, "velocity": 86}, {"time": 3140, "pitch": 77, "duration": 6, "velocity": 95}, {"time": 3146, "pitch": 72, "duration": 12, "velocity": 90}, {"time": 3158, "pitch": 74, "duration": 18, "velocity": 90}, {"time": 3176, "pitch": 77, "duration": 6, "velocity": 80}, {"time": 3182, "pitch": 79, "duration": 12, "velocity": 80}, {"time": 3194, "pitch": 81, "duration": 12, "velocity": 90}, {"time": 3206, "pitch": 79, "duration": 12, "velocity": 82}, {"time": 3218, "pitch": 77, "duration": 12, "velocity": 86}, {"time": 3230, "pitch": 74, "duration": 12, "velocity": 84}, {"time": 3242, "pitch": 72, "duration": 12, "velocity": 95}, {"time": 3254, "pitch": 74, "duration": 48, "velocity": 86}, {"time": 3302, "pitch": 74, "duration": 18, "velocity": 91}, {"time": 3320, "pitch": 77, "duration": 6, "velocity": 86}, {"time": 3326, "pitch": 79, "duration": 12, "velocity": 82}, {"time": 3338, "pitch": 81, "duration": 12, "velocity": 86}, {"time": 3350, "pitch": 79, "duration": 18, "velocity": 82}, {"time": 3368, "pitch": 77, "duration": 6, "velocity": 86}, {"time": 3374, "pitch": 74, "duration": 12, "velocity": 83}, {"time": 3386, "pitch": 72, "duration": 12, "velocity": 91}, {"time": 3398, "pitch": 69, "duration": 18, "velocity": 90}, {"time": 3416, "pitch": 72, "duration": 6, "velocity": 84}, {"time": 3422, "pitch": 79, "duration": 12, "velocity": 56}, {"time": 3434, "pitch": 74, "duration": 12, "velocity": 82}, {"time": 3446, "pitch": 72, "duration": 24, "velocity": 90}]}, {"program": 0, "is_drum": false, "name": "PIANO", "notes": [{"time": 2, "pitch": 41, "duration": 3, "velocity": 90}, {"time": 2, "pitch": 53, "duration": 4, "velocity": 75}, {"time": 2, "pitch": 60, "duration": 5, "velocity": 81}, {"time": 2, "pitch": 65, "duration": 5, "velocity": 83}, {"time": 2, "pitch": 69, "duration": 5, "velocity": 82}, {"time": 14, "pitch": 46, "duration": 11, "velocity": 90}, {"time": 14, "pitch": 58, "duration": 10, "velocity": 77}, {"time": 14, "pitch": 62, "duration": 11, "velocity": 78}, {"time": 14, "pitch": 65, "duration": 11, "velocity": 83}, {"time": 14, "pitch": 70, "duration": 11, "velocity": 86}, {"time": 38, "pitch": 41, "duration": 62, "velocity": 84}, {"time": 38, "pitch": 53, "duration": 41, "velocity": 78}, {"time": 38, "pitch": 60, "duration": 15, "velocity": 82}, {"time": 38, "pitch": 65, "duration": 13, "velocity": 83}, {"time": 38, "pitch": 69, "duration": 14, "velocity": 82}, {"time": 86, "pitch": 53, "duration": 7, "velocity": 68}, {"time": 86, "pitch": 60, "duration": 14, "velocity": 77}, {"time": 86, "pitch": 65, "duration": 14, "velocity": 81}, {"time": 86, "pitch": 69, "duration": 13, "velocity": 82}, {"time": 98, "pitch": 53, "duration": 3, "velocity": 84}, {"time": 110, "pitch": 46, "duration": 15, "velocity": 90}, {"time": 110, "pitch": 58, "duration": 6, "velocity": 77}, {"time": 110, "pitch": 62, "duration": 14, "velocity": 84}, {"time": 110, "pitch": 65, "duration": 11, "velocity": 86}, {"time": 110, "pitch": 70, "duration": 14, "velocity": 86}, {"time": 122, "pitch": 58, "duration": 2, "velocity": 91}, {"time": 134, "pitch": 41, "duration": 44, "velocity": 83}, {"time": 134, "pitch": 53, "duration": 10, "velocity": 83}, {"time": 134, "pitch": 60, "duration": 31, "velocity": 79}, {"time": 134, "pitch": 65, "duration": 16, "velocity": 82}, {"time": 134, "pitch": 69, "duration": 20, "velocity": 81}, {"time": 146, "pitch": 53, "duration": 4, "velocity": 54}, {"time": 158, "pitch": 67, "duration": 8, "velocity": 76}, {"time": 164, "pitch": 53, "duration": 8, "velocity": 67}, {"time": 170, "pitch": 60, "duration": 4, "velocity": 77}, {"time": 170, "pitch": 65, "duration": 4, "velocity": 83}, {"time": 176, "pitch": 53, "duration": 3, "velocity": 55}, {"time": 182, "pitch": 41, "duration": 10, "velocity": 82}, {"time": 182, "pitch": 53, "duration": 10, "velocity": 73}, {"time": 182, "pitch": 60, "duration": 19, "velocity": 82}, {"time": 182, "pitch": 65, "duration": 18, "velocity": 84}, {"time": 182, "pitch": 69, "duration": 20, "velocity": 82}, {"time": 194, "pitch": 43, "duration": 7, "velocity": 95}, {"time": 200, "pitch": 44, "duration": 3, "velocity": 79}, {"time": 206, "pitch": 45, "duration": 29, "velocity": 94}, {"time": 206, "pitch": 60, "duration": 24, "velocity": 84}, {"time": 206, "pitch": 64, "duration": 18, "velocity": 86}, {"time": 206, "pitch": 67, "duration": 19, "velocity": 84}, {"time": 230, "pitch": 50, "duration": 30, "velocity": 74}, {"time": 230, "pitch": 67, "duration": 18, "velocity": 84}, {"time": 230, "pitch": 62, "duration": 17, "velocity": 82}, {"time": 230, "pitch": 70, "duration": 17, "velocity": 86}, {"time": 230, "pitch": 38, "duration": 40, "velocity": 72}, {"time": 254, "pitch": 67, "duration": 18, "velocity": 75}, {"time": 254, "pitch": 62, "duration": 19, "velocity": 60}, {"time": 254, "pitch": 70, "duration": 15, "velocity": 62}, {"time": 266, "pitch": 50, "duration": 4, "velocity": 71}, {"time": 278, "pitch": 67, "duration": 14, "velocity": 86}, {"time": 278, "pitch": 43, "duration": 14, "velocity": 90}, {"time": 278, "pitch": 43, "duration": 14, "velocity": 84}, {"time": 278, "pitch": 58, "duration": 16, "velocity": 81}, {"time": 278, "pitch": 62, "duration": 14, "velocity": 83}, {"time": 278, "pitch": 62, "duration": 14, "velocity": 90}, {"time": 278, "pitch": 65, "duration": 17, "velocity": 70}, {"time": 278, "pitch": 70, "duration": 14, "velocity": 84}, {"time": 302, "pitch": 47, "duration": 13, "velocity": 86}, {"time": 302, "pitch": 59, "duration": 11, "velocity": 82}, {"time": 302, "pitch": 62, "duration": 10, "velocity": 84}, {"time": 302, "pitch": 65, "duration": 13, "velocity": 83}, {"time": 326, "pitch": 36, "duration": 44, "velocity": 86}, {"time": 326, "pitch": 48, "duration": 9, "velocity": 80}, {"time": 326, "pitch": 55, "duration": 20, "velocity": 80}, {"time": 326, "pitch": 60, "duration": 19, "velocity": 84}, {"time": 326, "pitch": 64, "duration": 20, "velocity": 61}, {"time": 326, "pitch": 67, "duration": 22, "velocity": 83}, {"time": 344, "pitch": 48, "duration": 18, "velocity": 69}, {"time": 350, "pitch": 55, "duration": 8, "velocity": 69}, {"time": 356, "pitch": 60, "duration": 7, "velocity": 83}, {"time": 362, "pitch": 62, "duration": 7, "velocity": 83}, {"time": 374, "pitch": 53, "duration": 20, "velocity": 84}, {"time": 380, "pitch": 60, "duration": 4, "velocity": 78}, {"time": 386, "pitch": 60, "duration": 3, "velocity": 75}, {"time": 386, "pitch": 65, "duration": 3, "velocity": 79}, {"time": 386, "pitch": 69, "duration": 3, "velocity": 72}, {"time": 392, "pitch": 60, "duration": 7, "velocity": 77}, {"time": 392, "pitch": 65, "duration": 8, "velocity": 79}, {"time": 392, "pitch": 69, "duration": 8, "velocity": 75}, {"time": 398, "pitch": 53, "duration": 14, "velocity": 80}, {"time": 404, "pitch": 60, "duration": 3, "velocity": 71}, {"time": 410, "pitch": 60, "duration": 10, "velocity": 82}, {"time": 410, "pitch": 65, "duration": 9, "velocity": 69}, {"time": 410, "pitch": 69, "duration": 10, "velocity": 76}, {"time": 416, "pitch": 53, "duration": 4, "velocity": 77}, {"time": 422, "pitch": 50, "duration": 20, "velocity": 84}, {"time": 434, "pitch": 60, "duration": 3, "velocity": 79}, {"time": 434, "pitch": 65, "duration": 3, "velocity": 76}, {"time": 434, "pitch": 69, "duration": 3, "velocity": 75}, {"time": 440, "pitch": 60, "duration": 9, "velocity": 80}, {"time": 440, "pitch": 65, "duration": 9, "velocity": 73}, {"time": 440, "pitch": 69, "duration": 10, "velocity": 76}, {"time": 443, "pitch": 72, "duration": 10, "velocity": 3}, {"time": 446, "pitch": 50, "duration": 18, "velocity": 80}, {"time": 452, "pitch": 60, "duration": 3, "velocity": 76}, {"time": 458, "pitch": 60, "duration": 4, "velocity": 81}, {"time": 458, "pitch": 65, "duration": 4, "velocity": 82}, {"time": 458, "pitch": 69, "duration": 10, "velocity": 80}, {"time": 464, "pitch": 60, "duration": 4, "velocity": 63}, {"time": 464, "pitch": 65, "duration": 7, "velocity": 54}, {"time": 470, "pitch": 43, "duration": 21, "velocity": 81}, {"time": 470, "pitch": 55, "duration": 19, "velocity": 75}, {"time": 482, "pitch": 62, "duration": 3, "velocity": 78}, {"time": 482, "pitch": 65, "duration": 3, "velocity": 79}, {"time": 482, "pitch": 70, "duration": 4, "velocity": 83}, {"time": 488, "pitch": 62, "duration": 4, "velocity": 78}, {"time": 488, "pitch": 65, "duration": 4, "velocity": 79}, {"time": 494, "pitch": 48, "duration": 16, "velocity": 84}, {"time": 506, "pitch": 60, "duration": 3, "velocity": 68}, {"time": 506, "pitch": 67, "duration": 3, "velocity": 76}, {"time": 512, "pitch": 48, "duration": 6, "velocity": 83}, {"time": 512, "pitch": 60, "duration": 8, "velocity": 72}, {"time": 512, "pitch": 67, "duration": 9, "velocity": 80}, {"time": 518, "pitch": 53, "duration": 20, "velocity": 83}, {"time": 530, "pitch": 60, "duration": 3, "velocity": 78}, {"time": 530, "pitch": 65, "duration": 3, "velocity": 82}, {"time": 530, "pitch": 69, "duration": 3, "velocity": 79}, {"time": 536, "pitch": 60, "duration": 9, "velocity": 78}, {"time": 536, "pitch": 65, "duration": 9, "velocity": 79}, {"time": 536, "pitch": 69, "duration": 10, "velocity": 76}, {"time": 542, "pitch": 48, "duration": 22, "velocity": 83}, {"time": 554, "pitch": 60, "duration": 3, "velocity": 79}, {"time": 554, "pitch": 65, "duration": 3, "velocity": 80}, {"time": 554, "pitch": 69, "duration": 4, "velocity": 76}, {"time": 560, "pitch": 60, "duration": 9, "velocity": 79}, {"time": 560, "pitch": 65, "duration": 9, "velocity": 81}, {"time": 560, "pitch": 69, "duration": 10, "velocity": 72}, {"time": 566, "pitch": 53, "duration": 22, "velocity": 80}, {"time": 578, "pitch": 60, "duration": 2, "velocity": 79}, {"time": 578, "pitch": 65, "duration": 2, "velocity": 80}, {"time": 578, "pitch": 69, "duration": 3, "velocity": 76}, {"time": 584, "pitch": 60, "duration": 8, "velocity": 76}, {"time": 584, "pitch": 65, "duration": 8, "velocity": 77}, {"time": 584, "pitch": 69, "duration": 9, "velocity": 78}, {"time": 590, "pitch": 48, "duration": 21, "velocity": 80}, {"time": 602, "pitch": 60, "duration": 3, "velocity": 80}, {"time": 602, "pitch": 65, "duration": 3, "velocity": 75}, {"time": 602, "pitch": 69, "duration": 3, "velocity": 73}, {"time": 608, "pitch": 60, "duration": 10, "velocity": 80}, {"time": 608, "pitch": 65, "duration": 6, "velocity": 80}, {"time": 608, "pitch": 69, "duration": 7, "velocity": 80}, {"time": 614, "pitch": 53, "duration": 20, "velocity": 82}, {"time": 626, "pitch": 60, "duration": 2, "velocity": 83}, {"time": 626, "pitch": 65, "duration": 2, "velocity": 79}, {"time": 626, "pitch": 69, "duration": 3, "velocity": 76}, {"time": 632, "pitch": 60, "duration": 8, "velocity": 82}, {"time": 632, "pitch": 65, "duration": 7, "velocity": 76}, {"time": 632, "pitch": 69, "duration": 8, "velocity": 79}, {"time": 638, "pitch": 53, "duration": 13, "velocity": 86}, {"time": 650, "pitch": 52, "duration": 11, "velocity": 83}, {"time": 650, "pitch": 60, "duration": 12, "velocity": 80}, {"time": 650, "pitch": 64, "duration": 13, "velocity": 82}, {"time": 650, "pitch": 67, "duration": 13, "velocity": 82}, {"time": 662, "pitch": 50, "duration": 21, "velocity": 83}, {"time": 674, "pitch": 60, "duration": 2, "velocity": 79}, {"time": 674, "pitch": 65, "duration": 2, "velocity": 75}, {"time": 674, "pitch": 69, "duration": 3, "velocity": 76}, {"time": 680, "pitch": 60, "duration": 7, "velocity": 83}, {"time": 680, "pitch": 65, "duration": 7, "velocity": 84}, {"time": 680, "pitch": 69, "duration": 7, "velocity": 79}, {"time": 686, "pitch": 57, "duration": 19, "velocity": 81}, {"time": 698, "pitch": 60, "duration": 2, "velocity": 79}, {"time": 698, "pitch": 65, "duration": 2, "velocity": 79}, {"time": 698, "pitch": 69, "duration": 3, "velocity": 73}, {"time": 704, "pitch": 60, "duration": 7, "velocity": 84}, {"time": 704, "pitch": 65, "duration": 6, "velocity": 83}, {"time": 704, "pitch": 69, "duration": 6, "velocity": 80}, {"time": 710, "pitch": 50, "duration": 20, "velocity": 80}, {"time": 722, "pitch": 60, "duration": 2, "velocity": 82}, {"time": 722, "pitch": 65, "duration": 2, "velocity": 79}, {"time": 722, "pitch": 69, "duration": 3, "velocity": 77}, {"time": 728, "pitch": 60, "duration": 7, "velocity": 82}, {"time": 728, "pitch": 65, "duration": 7, "velocity": 83}, {"time": 728, "pitch": 69, "duration": 7, "velocity": 83}, {"time": 734, "pitch": 50, "duration": 13, "velocity": 90}, {"time": 746, "pitch": 60, "duration": 8, "velocity": 84}, {"time": 746, "pitch": 65, "duration": 4, "velocity": 84}, {"time": 746, "pitch": 69, "duration": 10, "velocity": 81}, {"time": 752, "pitch": 65, "duration": 6, "velocity": 86}, {"time": 758, "pitch": 43, "duration": 20, "velocity": 86}, {"time": 758, "pitch": 55, "duration": 21, "velocity": 84}, {"time": 770, "pitch": 62, "duration": 3, "velocity": 78}, {"time": 770, "pitch": 65, "duration": 3, "velocity": 81}, {"time": 770, "pitch": 70, "duration": 3, "velocity": 82}, {"time": 776, "pitch": 62, "duration": 8, "velocity": 82}, {"time": 776, "pitch": 65, "duration": 6, "velocity": 82}, {"time": 776, "pitch": 70, "duration": 7, "velocity": 84}, {"time": 782, "pitch": 55, "duration": 15, "velocity": 75}, {"time": 794, "pitch": 62, "duration": 3, "velocity": 80}, {"time": 794, "pitch": 67, "duration": 3, "velocity": 79}, {"time": 794, "pitch": 70, "duration": 3, "velocity": 82}, {"time": 800, "pitch": 62, "duration": 8, "velocity": 82}, {"time": 800, "pitch": 67, "duration": 8, "velocity": 79}, {"time": 800, "pitch": 70, "duration": 5, "velocity": 82}, {"time": 806, "pitch": 50, "duration": 20, "velocity": 90}, {"time": 818, "pitch": 62, "duration": 3, "velocity": 81}, {"time": 818, "pitch": 65, "duration": 2, "velocity": 78}, {"time": 818, "pitch": 69, "duration": 3, "velocity": 84}, {"time": 824, "pitch": 62, "duration": 7, "velocity": 83}, {"time": 824, "pitch": 65, "duration": 7, "velocity": 84}, {"time": 824, "pitch": 69, "duration": 7, "velocity": 79}, {"time": 830, "pitch": 57, "duration": 16, "velocity": 79}, {"time": 842, "pitch": 62, "duration": 3, "velocity": 78}, {"time": 842, "pitch": 65, "duration": 2, "velocity": 75}, {"time": 842, "pitch": 69, "duration": 3, "velocity": 75}, {"time": 848, "pitch": 62, "duration": 7, "velocity": 80}, {"time": 848, "pitch": 65, "duration": 7, "velocity": 82}, {"time": 848, "pitch": 69, "duration": 5, "velocity": 78}, {"time": 854, "pitch": 50, "duration": 19, "velocity": 93}, {"time": 866, "pitch": 62, "duration": 3, "velocity": 78}, {"time": 866, "pitch": 65, "duration": 3, "velocity": 79}, {"time": 866, "pitch": 69, "duration": 3, "velocity": 82}, {"time": 872, "pitch": 62, "duration": 9, "velocity": 84}, {"time": 872, "pitch": 65, "duration": 9, "velocity": 84}, {"time": 872, "pitch": 69, "duration": 9, "velocity": 82}, {"time": 878, "pitch": 57, "duration": 12, "velocity": 79}, {"time": 890, "pitch": 62, "duration": 3, "velocity": 79}, {"time": 890, "pitch": 65, "duration": 3, "velocity": 79}, {"time": 890, "pitch": 69, "duration": 3, "velocity": 75}, {"time": 896, "pitch": 62, "duration": 5, "velocity": 79}, {"time": 896, "pitch": 65, "duration": 5, "velocity": 83}, {"time": 896, "pitch": 69, "duration": 5, "velocity": 79}, {"time": 902, "pitch": 43, "duration": 20, "velocity": 81}, {"time": 902, "pitch": 55, "duration": 21, "velocity": 76}, {"time": 914, "pitch": 62, "duration": 3, "velocity": 79}, {"time": 914, "pitch": 67, "duration": 4, "velocity": 79}, {"time": 914, "pitch": 70, "duration": 3, "velocity": 83}, {"time": 920, "pitch": 62, "duration": 8, "velocity": 80}, {"time": 920, "pitch": 67, "duration": 10, "velocity": 84}, {"time": 920, "pitch": 70, "duration": 7, "velocity": 81}, {"time": 926, "pitch": 50, "duration": 19, "velocity": 90}, {"time": 938, "pitch": 62, "duration": 3, "velocity": 84}, {"time": 938, "pitch": 67, "duration": 3, "velocity": 74}, {"time": 938, "pitch": 70, "duration": 3, "velocity": 73}, {"time": 944, "pitch": 62, "duration": 7, "velocity": 82}, {"time": 944, "pitch": 67, "duration": 7, "velocity": 80}, {"time": 944, "pitch": 70, "duration": 3, "velocity": 79}, {"time": 950, "pitch": 45, "duration": 20, "velocity": 90}, {"time": 962, "pitch": 60, "duration": 3, "velocity": 75}, {"time": 962, "pitch": 64, "duration": 3, "velocity": 79}, {"time": 962, "pitch": 67, "duration": 3, "velocity": 81}, {"time": 968, "pitch": 60, "duration": 8, "velocity": 80}, {"time": 968, "pitch": 64, "duration": 7, "velocity": 82}, {"time": 968, "pitch": 67, "duration": 8, "velocity": 81}, {"time": 974, "pitch": 46, "duration": 20, "velocity": 98}, {"time": 986, "pitch": 62, "duration": 3, "velocity": 84}, {"time": 986, "pitch": 65, "duration": 3, "velocity": 86}, {"time": 986, "pitch": 70, "duration": 3, "velocity": 86}, {"time": 992, "pitch": 62, "duration": 8, "velocity": 79}, {"time": 992, "pitch": 65, "duration": 7, "velocity": 83}, {"time": 992, "pitch": 70, "duration": 7, "velocity": 86}, {"time": 998, "pitch": 48, "duration": 17, "velocity": 86}, {"time": 1010, "pitch": 60, "duration": 3, "velocity": 79}, {"time": 1010, "pitch": 64, "duration": 3, "velocity": 79}, {"time": 1010, "pitch": 67, "duration": 3, "velocity": 75}, {"time": 1010, "pitch": 72, "duration": 2, "velocity": 71}, {"time": 1016, "pitch": 60, "duration": 7, "velocity": 84}, {"time": 1016, "pitch": 64, "duration": 8, "velocity": 83}, {"time": 1016, "pitch": 67, "duration": 8, "velocity": 74}, {"time": 1016, "pitch": 72, "duration": 11, "velocity": 86}, {"time": 1022, "pitch": 55, "duration": 16, "velocity": 81}, {"time": 1034, "pitch": 60, "duration": 12, "velocity": 91}, {"time": 1034, "pitch": 64, "duration": 12, "velocity": 84}, {"time": 1034, "pitch": 67, "duration": 12, "velocity": 83}, {"time": 1034, "pitch": 72, "duration": 12, "velocity": 82}, {"time": 1046, "pitch": 41, "duration": 16, "velocity": 84}, {"time": 1046, "pitch": 53, "duration": 15, "velocity": 78}, {"time": 1046, "pitch": 60, "duration": 8, "velocity": 75}, {"time": 1046, "pitch": 65, "duration": 8, "velocity": 83}, {"time": 1046, "pitch": 69, "duration": 8, "velocity": 78}, {"time": 1058, "pitch": 60, "duration": 11, "velocity": 77}, {"time": 1058, "pitch": 65, "duration": 15, "velocity": 82}, {"time": 1058, "pitch": 69, "duration": 11, "velocity": 77}, {"time": 1064, "pitch": 41, "duration": 4, "velocity": 78}, {"time": 1064, "pitch": 53, "duration": 3, "velocity": 75}, {"time": 1070, "pitch": 46, "duration": 15, "velocity": 79}, {"time": 1082, "pitch": 62, "duration": 19, "velocity": 75}, {"time": 1082, "pitch": 65, "duration": 20, "velocity": 84}, {"time": 1082, "pitch": 70, "duration": 19, "velocity": 86}, {"time": 1088, "pitch": 46, "duration": 4, "velocity": 81}, {"time": 1094, "pitch": 41, "duration": 3, "velocity": 86}, {"time": 1094, "pitch": 53, "duration": 3, "velocity": 84}, {"time": 1100, "pitch": 41, "duration": 15, "velocity": 86}, {"time": 1100, "pitch": 53, "duration": 9, "velocity": 86}, {"time": 1106, "pitch": 60, "duration": 11, "velocity": 86}, {"time": 1106, "pitch": 65, "duration": 14, "velocity": 84}, {"time": 1106, "pitch": 69, "duration": 12, "velocity": 80}, {"time": 1112, "pitch": 53, "duration": 3, "velocity": 82}, {"time": 1118, "pitch": 46, "duration": 10, "velocity": 84}, {"time": 1124, "pitch": 62, "duration": 12, "velocity": 75}, {"time": 1124, "pitch": 65, "duration": 10, "velocity": 78}, {"time": 1124, "pitch": 70, "duration": 9, "velocity": 82}, {"time": 1130, "pitch": 46, "duration": 9, "velocity": 84}, {"time": 1136, "pitch": 67, "duration": 4, "velocity": 84}, {"time": 1142, "pitch": 48, "duration": 15, "velocity": 90}, {"time": 1142, "pitch": 60, "duration": 6, "velocity": 80}, {"time": 1142, "pitch": 64, "duration": 6, "velocity": 82}, {"time": 1142, "pitch": 67, "duration": 6, "velocity": 82}, {"time": 1142, "pitch": 72, "duration": 6, "velocity": 79}, {"time": 1154, "pitch": 60, "duration": 14, "velocity": 86}, {"time": 1154, "pitch": 64, "duration": 13, "velocity": 80}, {"time": 1154, "pitch": 67, "duration": 14, "velocity": 76}, {"time": 1154, "pitch": 72, "duration": 13, "velocity": 84}, {"time": 1160, "pitch": 48, "duration": 2, "velocity": 80}, {"time": 1166, "pitch": 48, "duration": 8, "velocity": 93}, {"time": 1172, "pitch": 60, "duration": 9, "velocity": 84}, {"time": 1172, "pitch": 64, "duration": 8, "velocity": 82}, {"time": 1172, "pitch": 67, "duration": 9, "velocity": 81}, {"time": 1172, "pitch": 72, "duration": 10, "velocity": 80}, {"time": 1178, "pitch": 48, "duration": 8, "velocity": 90}, {"time": 1184, "pitch": 60, "duration": 4, "velocity": 82}, {"time": 1184, "pitch": 67, "duration": 5, "velocity": 83}, {"time": 1190, "pitch": 53, "duration": 20, "velocity": 84}, {"time": 1196, "pitch": 60, "duration": 4, "velocity": 78}, {"time": 1202, "pitch": 60, "duration": 3, "velocity": 75}, {"time": 1202, "pitch": 65, "duration": 3, "velocity": 79}, {"time": 1202, "pitch": 69, "duration": 3, "velocity": 72}, {"time": 1208, "pitch": 60, "duration": 7, "velocity": 77}, {"time": 1208, "pitch": 65, "duration": 8, "velocity": 79}, {"time": 1208, "pitch": 69, "duration": 8, "velocity": 75}, {"time": 1214, "pitch": 53, "duration": 14, "velocity": 80}, {"time": 1220, "pitch": 60, "duration": 3, "velocity": 71}, {"time": 1226, "pitch": 60, "duration": 10, "velocity": 82}, {"time": 1226, "pitch": 65, "duration": 9, "velocity": 69}, {"time": 1226, "pitch": 69, "duration": 10, "velocity": 76}, {"time": 1232, "pitch": 53, "duration": 4, "velocity": 77}, {"time": 1238, "pitch": 50, "duration": 20, "velocity": 84}, {"time": 1250, "pitch": 60, "duration": 3, "velocity": 79}, {"time": 1250, "pitch": 65, "duration": 3, "velocity": 76}, {"time": 1250, "pitch": 69, "duration": 3, "velocity": 75}, {"time": 1256, "pitch": 60, "duration": 9, "velocity": 80}, {"time": 1256, "pitch": 65, "duration": 9, "velocity": 73}, {"time": 1256, "pitch": 69, "duration": 10, "velocity": 76}, {"time": 1262, "pitch": 50, "duration": 18, "velocity": 80}, {"time": 1268, "pitch": 60, "duration": 3, "velocity": 76}, {"time": 1274, "pitch": 60, "duration": 4, "velocity": 81}, {"time": 1274, "pitch": 65, "duration": 4, "velocity": 82}, {"time": 1274, "pitch": 69, "duration": 10, "velocity": 80}, {"time": 1280, "pitch": 60, "duration": 4, "velocity": 63}, {"time": 1280, "pitch": 65, "duration": 7, "velocity": 54}, {"time": 1286, "pitch": 43, "duration": 21, "velocity": 81}, {"time": 1286, "pitch": 55, "duration": 19, "velocity": 75}, {"time": 1298, "pitch": 62, "duration": 3, "velocity": 78}, {"time": 1298, "pitch": 65, "duration": 3, "velocity": 79}, {"time": 1298, "pitch": 70, "duration": 4, "velocity": 83}, {"time": 1304, "pitch": 62, "duration": 4, "velocity": 78}, {"time": 1304, "pitch": 65, "duration": 4, "velocity": 79}, {"time": 1310, "pitch": 48, "duration": 16, "velocity": 84}, {"time": 1322, "pitch": 60, "duration": 3, "velocity": 68}, {"time": 1322, "pitch": 67, "duration": 3, "velocity": 76}, {"time": 1328, "pitch": 48, "duration": 6, "velocity": 83}, {"time": 1328, "pitch": 60, "duration": 8, "velocity": 72}, {"time": 1328, "pitch": 67, "duration": 9, "velocity": 80}, {"time": 1334, "pitch": 53, "duration": 20, "velocity": 83}, {"time": 1346, "pitch": 60, "duration": 3, "velocity": 78}, {"time": 1346, "pitch": 65, "duration": 3, "velocity": 82}, {"time": 1346, "pitch": 69, "duration": 3, "velocity": 79}, {"time": 1352, "pitch": 60, "duration": 9, "velocity": 78}, {"time": 1352, "pitch": 65, "duration": 9, "velocity": 79}, {"time": 1352, "pitch": 69, "duration": 10, "velocity": 76}, {"time": 1358, "pitch": 48, "duration": 22, "velocity": 83}, {"time": 1370, "pitch": 60, "duration": 3, "velocity": 79}, {"time": 1370, "pitch": 65, "duration": 3, "velocity": 80}, {"time": 1370, "pitch": 69, "duration": 4, "velocity": 76}, {"time": 1376, "pitch": 60, "duration": 9, "velocity": 79}, {"time": 1376, "pitch": 65, "duration": 9, "velocity": 81}, {"time": 1376, "pitch": 69, "duration": 10, "velocity": 72}, {"time": 1382, "pitch": 53, "duration": 22, "velocity": 80}, {"time": 1394, "pitch": 60, "duration": 2, "velocity": 79}, {"time": 1394, "pitch": 65, "duration": 2, "velocity": 80}, {"time": 1394, "pitch": 69, "duration": 3, "velocity": 76}, {"time": 1400, "pitch": 60, "duration": 8, "velocity": 76}, {"time": 1400, "pitch": 65, "duration": 8, "velocity": 77}, {"time": 1400, "pitch": 69, "duration": 9, "velocity": 78}, {"time": 1406, "pitch": 48, "duration": 21, "velocity": 80}, {"time": 1418, "pitch": 60, "duration": 3, "velocity": 80}, {"time": 1418, "pitch": 65, "duration": 3, "velocity": 75}, {"time": 1418, "pitch": 69, "duration": 3, "velocity": 73}, {"time": 1424, "pitch": 60, "duration": 10, "velocity": 80}, {"time": 1424, "pitch": 65, "duration": 6, "velocity": 80}, {"time": 1424, "pitch": 69, "duration": 7, "velocity": 80}, {"time": 1430, "pitch": 53, "duration": 20, "velocity": 82}, {"time": 1442, "pitch": 60, "duration": 2, "velocity": 83}, {"time": 1442, "pitch": 65, "duration": 2, "velocity": 79}, {"time": 1442, "pitch": 69, "duration": 3, "velocity": 76}, {"time": 1448, "pitch": 60, "duration": 8, "velocity": 82}, {"time": 1448, "pitch": 65, "duration": 7, "velocity": 76}, {"time": 1448, "pitch": 69, "duration": 8, "velocity": 79}, {"time": 1454, "pitch": 53, "duration": 13, "velocity": 86}, {"time": 1466, "pitch": 52, "duration": 11, "velocity": 83}, {"time": 1466, "pitch": 60, "duration": 12, "velocity": 80}, {"time": 1466, "pitch": 64, "duration": 13, "velocity": 82}, {"time": 1466, "pitch": 67, "duration": 13, "velocity": 82}, {"time": 1478, "pitch": 50, "duration": 21, "velocity": 83}, {"time": 1490, "pitch": 60, "duration": 2, "velocity": 79}, {"time": 1490, "pitch": 65, "duration": 2, "velocity": 75}, {"time": 1490, "pitch": 69, "duration": 3, "velocity": 76}, {"time": 1496, "pitch": 60, "duration": 7, "velocity": 83}, {"time": 1496, "pitch": 65, "duration": 7, "velocity": 84}, {"time": 1496, "pitch": 69, "duration": 7, "velocity": 79}, {"time": 1502, "pitch": 57, "duration": 19, "velocity": 81}, {"time": 1514, "pitch": 60, "duration": 2, "velocity": 79}, {"time": 1514, "pitch": 65, "duration": 2, "velocity": 79}, {"time": 1514, "pitch": 69, "duration": 3, "velocity": 73}, {"time": 1520, "pitch": 60, "duration": 7, "velocity": 84}, {"time": 1520, "pitch": 65, "duration": 6, "velocity": 83}, {"time": 1520, "pitch": 69, "duration": 6, "velocity": 80}, {"time": 1526, "pitch": 50, "duration": 20, "velocity": 80}, {"time": 1538, "pitch": 60, "duration": 2, "velocity": 82}, {"time": 1538, "pitch": 65, "duration": 2, "velocity": 79}, {"time": 1538, "pitch": 69, "duration": 3, "velocity": 77}, {"time": 1544, "pitch": 60, "duration": 7, "velocity": 82}, {"time": 1544, "pitch": 65, "duration": 7, "velocity": 83}, {"time": 1544, "pitch": 69, "duration": 7, "velocity": 83}, {"time": 1550, "pitch": 50, "duration": 13, "velocity": 90}, {"time": 1562, "pitch": 60, "duration": 8, "velocity": 84}, {"time": 1562, "pitch": 65, "duration": 4, "velocity": 84}, {"time": 1562, "pitch": 69, "duration": 10, "velocity": 81}, {"time": 1568, "pitch": 65, "duration": 6, "velocity": 86}, {"time": 1574, "pitch": 43, "duration": 20, "velocity": 86}, {"time": 1574, "pitch": 55, "duration": 21, "velocity": 84}, {"time": 1586, "pitch": 62, "duration": 3, "velocity": 78}, {"time": 1586, "pitch": 65, "duration": 3, "velocity": 81}, {"time": 1586, "pitch": 70, "duration": 3, "velocity": 82}, {"time": 1592, "pitch": 62, "duration": 8, "velocity": 82}, {"time": 1592, "pitch": 65, "duration": 6, "velocity": 82}, {"time": 1592, "pitch": 70, "duration": 7, "velocity": 84}, {"time": 1598, "pitch": 55, "duration": 15, "velocity": 75}, {"time": 1610, "pitch": 62, "duration": 3, "velocity": 80}, {"time": 1610, "pitch": 67, "duration": 3, "velocity": 79}, {"time": 1610, "pitch": 70, "duration": 3, "velocity": 82}, {"time": 1616, "pitch": 62, "duration": 8, "velocity": 82}, {"time": 1616, "pitch": 67, "duration": 8, "velocity": 79}, {"time": 1616, "pitch": 70, "duration": 5, "velocity": 82}, {"time": 1622, "pitch": 50, "duration": 20, "velocity": 90}, {"time": 1634, "pitch": 62, "duration": 3, "velocity": 81}, {"time": 1634, "pitch": 65, "duration": 2, "velocity": 78}, {"time": 1634, "pitch": 69, "duration": 3, "velocity": 84}, {"time": 1640, "pitch": 62, "duration": 7, "velocity": 83}, {"time": 1640, "pitch": 65, "duration": 7, "velocity": 84}, {"time": 1640, "pitch": 69, "duration": 7, "velocity": 79}, {"time": 1646, "pitch": 57, "duration": 16, "velocity": 79}, {"time": 1658, "pitch": 62, "duration": 3, "velocity": 78}, {"time": 1658, "pitch": 65, "duration": 2, "velocity": 75}, {"time": 1658, "pitch": 69, "duration": 3, "velocity": 75}, {"time": 1664, "pitch": 62, "duration": 7, "velocity": 80}, {"time": 1664, "pitch": 65, "duration": 7, "velocity": 82}, {"time": 1664, "pitch": 69, "duration": 5, "velocity": 78}, {"time": 1670, "pitch": 50, "duration": 19, "velocity": 93}, {"time": 1682, "pitch": 62, "duration": 3, "velocity": 78}, {"time": 1682, "pitch": 65, "duration": 3, "velocity": 79}, {"time": 1682, "pitch": 69, "duration": 3, "velocity": 82}, {"time": 1688, "pitch": 62, "duration": 9, "velocity": 84}, {"time": 1688, "pitch": 65, "duration": 9, "velocity": 84}, {"time": 1688, "pitch": 69, "duration": 9, "velocity": 82}, {"time": 1694, "pitch": 57, "duration": 12, "velocity": 79}, {"time": 1706, "pitch": 62, "duration": 3, "velocity": 79}, {"time": 1706, "pitch": 65, "duration": 3, "velocity": 79}, {"time": 1706, "pitch": 69, "duration": 3, "velocity": 75}, {"time": 1712, "pitch": 62, "duration": 5, "velocity": 79}, {"time": 1712, "pitch": 65, "duration": 5, "velocity": 83}, {"time": 1712, "pitch": 69, "duration": 5, "velocity": 79}, {"time": 1718, "pitch": 43, "duration": 20, "velocity": 81}, {"time": 1718, "pitch": 55, "duration": 21, "velocity": 76}, {"time": 1730, "pitch": 62, "duration": 3, "velocity": 79}, {"time": 1730, "pitch": 67, "duration": 4, "velocity": 79}, {"time": 1730, "pitch": 70, "duration": 3, "velocity": 83}, {"time": 1736, "pitch": 62, "duration": 8, "velocity": 80}, {"time": 1736, "pitch": 67, "duration": 10, "velocity": 84}, {"time": 1736, "pitch": 70, "duration": 7, "velocity": 81}, {"time": 1742, "pitch": 50, "duration": 19, "velocity": 90}, {"time": 1754, "pitch": 62, "duration": 3, "velocity": 84}, {"time": 1754, "pitch": 67, "duration": 3, "velocity": 74}, {"time": 1754, "pitch": 70, "duration": 3, "velocity": 73}, {"time": 1760, "pitch": 62, "duration": 7, "velocity": 82}, {"time": 1760, "pitch": 67, "duration": 7, "velocity": 80}, {"time": 1760, "pitch": 70, "duration": 3, "velocity": 79}, {"time": 1766, "pitch": 45, "duration": 20, "velocity": 90}, {"time": 1778, "pitch": 60, "duration": 3, "velocity": 75}, {"time": 1778, "pitch": 64, "duration": 3, "velocity": 79}, {"time": 1778, "pitch": 67, "duration": 3, "velocity": 81}, {"time": 1784, "pitch": 60, "duration": 8, "velocity": 80}, {"time": 1784, "pitch": 64, "duration": 7, "velocity": 82}, {"time": 1784, "pitch": 67, "duration": 8, "velocity": 81}, {"time": 1790, "pitch": 46, "duration": 20, "velocity": 98}, {"time": 1802, "pitch": 62, "duration": 3, "velocity": 84}, {"time": 1802, "pitch": 65, "duration": 3, "velocity": 86}, {"time": 1802, "pitch": 70, "duration": 3, "velocity": 86}, {"time": 1808, "pitch": 62, "duration": 8, "velocity": 79}, {"time": 1808, "pitch": 65, "duration": 7, "velocity": 83}, {"time": 1808, "pitch": 70, "duration": 7, "velocity": 86}, {"time": 1814, "pitch": 48, "duration": 17, "velocity": 86}, {"time": 1826, "pitch": 60, "duration": 3, "velocity": 79}, {"time": 1826, "pitch": 64, "duration": 3, "velocity": 79}, {"time": 1826, "pitch": 67, "duration": 3, "velocity": 75}, {"time": 1826, "pitch": 72, "duration": 2, "velocity": 71}, {"time": 1832, "pitch": 60, "duration": 7, "velocity": 84}, {"time": 1832, "pitch": 64, "duration": 8, "velocity": 83}, {"time": 1832, "pitch": 67, "duration": 8, "velocity": 74}, {"time": 1832, "pitch": 72, "duration": 11, "velocity": 86}, {"time": 1838, "pitch": 55, "duration": 16, "velocity": 81}, {"time": 1850, "pitch": 60, "duration": 12, "velocity": 91}, {"time": 1850, "pitch": 64, "duration": 12, "velocity": 84}, {"time": 1850, "pitch": 67, "duration": 12, "velocity": 83}, {"time": 1850, "pitch": 72, "duration": 12, "velocity": 82}, {"time": 1862, "pitch": 41, "duration": 16, "velocity": 84}, {"time": 1862, "pitch": 53, "duration": 15, "velocity": 78}, {"time": 1862, "pitch": 60, "duration": 8, "velocity": 75}, {"time": 1862, "pitch": 65, "duration": 8, "velocity": 83}, {"time": 1862, "pitch": 69, "duration": 8, "velocity": 78}, {"time": 1874, "pitch": 60, "duration": 11, "velocity": 77}, {"time": 1874, "pitch": 65, "duration": 15, "velocity": 82}, {"time": 1874, "pitch": 69, "duration": 11, "velocity": 77}, {"time": 1880, "pitch": 41, "duration": 4, "velocity": 78}, {"time": 1880, "pitch": 53, "duration": 3, "velocity": 75}, {"time": 1886, "pitch": 46, "duration": 15, "velocity": 79}, {"time": 1898, "pitch": 62, "duration": 19, "velocity": 75}, {"time": 1898, "pitch": 65, "duration": 20, "velocity": 84}, {"time": 1898, "pitch": 70, "duration": 19, "velocity": 86}, {"time": 1904, "pitch": 46, "duration": 4, "velocity": 81}, {"time": 1910, "pitch": 41, "duration": 3, "velocity": 86}, {"time": 1910, "pitch": 53, "duration": 3, "velocity": 84}, {"time": 1916, "pitch": 41, "duration": 15, "velocity": 86}, {"time": 1916, "pitch": 53, "duration": 9, "velocity": 86}, {"time": 1922, "pitch": 60, "duration": 11, "velocity": 86}, {"time": 1922, "pitch": 65, "duration": 14, "velocity": 84}, {"time": 1922, "pitch": 69, "duration": 12, "velocity": 80}, {"time": 1928, "pitch": 53, "duration": 3, "velocity": 82}, {"time": 1934, "pitch": 46, "duration": 10, "velocity": 84}, {"time": 1940, "pitch": 62, "duration": 12, "velocity": 75}, {"time": 1940, "pitch": 65, "duration": 10, "velocity": 78}, {"time": 1940, "pitch": 70, "duration": 9, "velocity": 82}, {"time": 1946, "pitch": 46, "duration": 9, "velocity": 84}, {"time": 1952, "pitch": 67, "duration": 4, "velocity": 84}, {"time": 1958, "pitch": 48, "duration": 15, "velocity": 90}, {"time": 1958, "pitch": 60, "duration": 6, "velocity": 80}, {"time": 1958, "pitch": 64, "duration": 6, "velocity": 82}, {"time": 1958, "pitch": 67, "duration": 6, "velocity": 82}, {"time": 1958, "pitch": 72, "duration": 6, "velocity": 79}, {"time": 1970, "pitch": 60, "duration": 14, "velocity": 86}, {"time": 1970, "pitch": 64, "duration": 13, "velocity": 80}, {"time": 1970, "pitch": 67, "duration": 14, "velocity": 76}, {"time": 1970, "pitch": 72, "duration": 13, "velocity": 84}, {"time": 1976, "pitch": 48, "duration": 2, "velocity": 80}, {"time": 1982, "pitch": 48, "duration": 8, "velocity": 93}, {"time": 1988, "pitch": 60, "duration": 9, "velocity": 84}, {"time": 1988, "pitch": 64, "duration": 8, "velocity": 82}, {"time": 1988, "pitch": 67, "duration": 9, "velocity": 81}, {"time": 1988, "pitch": 72, "duration": 10, "velocity": 80}, {"time": 1994, "pitch": 48, "duration": 8, "velocity": 90}, {"time": 2000, "pitch": 60, "duration": 4, "velocity": 82}, {"time": 2000, "pitch": 67, "duration": 5, "velocity": 83}, {"time": 2006, "pitch": 53, "duration": 20, "velocity": 84}, {"time": 2012, "pitch": 60, "duration": 4, "velocity": 78}, {"time": 2018, "pitch": 60, "duration": 3, "velocity": 75}, {"time": 2018, "pitch": 65, "duration": 3, "velocity": 79}, {"time": 2018, "pitch": 69, "duration": 3, "velocity": 72}, {"time": 2024, "pitch": 60, "duration": 7, "velocity": 77}, {"time": 2024, "pitch": 65, "duration": 8, "velocity": 79}, {"time": 2024, "pitch": 69, "duration": 8, "velocity": 75}, {"time": 2030, "pitch": 53, "duration": 14, "velocity": 80}, {"time": 2036, "pitch": 60, "duration": 3, "velocity": 71}, {"time": 2042, "pitch": 60, "duration": 10, "velocity": 82}, {"time": 2042, "pitch": 65, "duration": 9, "velocity": 69}, {"time": 2042, "pitch": 69, "duration": 10, "velocity": 76}, {"time": 2048, "pitch": 53, "duration": 4, "velocity": 77}, {"time": 2054, "pitch": 50, "duration": 20, "velocity": 84}, {"time": 2066, "pitch": 60, "duration": 3, "velocity": 79}, {"time": 2066, "pitch": 65, "duration": 3, "velocity": 76}, {"time": 2066, "pitch": 69, "duration": 3, "velocity": 75}, {"time": 2072, "pitch": 60, "duration": 9, "velocity": 80}, {"time": 2072, "pitch": 65, "duration": 9, "velocity": 73}, {"time": 2072, "pitch": 69, "duration": 10, "velocity": 76}, {"time": 2078, "pitch": 50, "duration": 18, "velocity": 80}, {"time": 2084, "pitch": 60, "duration": 3, "velocity": 76}, {"time": 2090, "pitch": 60, "duration": 4, "velocity": 81}, {"time": 2090, "pitch": 65, "duration": 4, "velocity": 82}, {"time": 2090, "pitch": 69, "duration": 10, "velocity": 80}, {"time": 2096, "pitch": 60, "duration": 4, "velocity": 63}, {"time": 2096, "pitch": 65, "duration": 7, "velocity": 54}, {"time": 2102, "pitch": 43, "duration": 21, "velocity": 81}, {"time": 2102, "pitch": 55, "duration": 19, "velocity": 75}, {"time": 2114, "pitch": 62, "duration": 3, "velocity": 78}, {"time": 2114, "pitch": 65, "duration": 3, "velocity": 79}, {"time": 2114, "pitch": 70, "duration": 4, "velocity": 83}, {"time": 2120, "pitch": 62, "duration": 4, "velocity": 78}, {"time": 2120, "pitch": 65, "duration": 4, "velocity": 79}, {"time": 2126, "pitch": 48, "duration": 16, "velocity": 84}, {"time": 2138, "pitch": 60, "duration": 3, "velocity": 68}, {"time": 2138, "pitch": 67, "duration": 3, "velocity": 76}, {"time": 2144, "pitch": 48, "duration": 6, "velocity": 83}, {"time": 2144, "pitch": 60, "duration": 8, "velocity": 72}, {"time": 2144, "pitch": 67, "duration": 9, "velocity": 80}, {"time": 2150, "pitch": 53, "duration": 20, "velocity": 83}, {"time": 2162, "pitch": 60, "duration": 3, "velocity": 78}, {"time": 2162, "pitch": 65, "duration": 3, "velocity": 82}, {"time": 2162, "pitch": 69, "duration": 3, "velocity": 79}, {"time": 2168, "pitch": 60, "duration": 9, "velocity": 78}, {"time": 2168, "pitch": 65, "duration": 9, "velocity": 79}, {"time": 2168, "pitch": 69, "duration": 10, "velocity": 76}, {"time": 2174, "pitch": 48, "duration": 22, "velocity": 83}, {"time": 2186, "pitch": 60, "duration": 3, "velocity": 79}, {"time": 2186, "pitch": 65, "duration": 3, "velocity": 80}, {"time": 2186, "pitch": 69, "duration": 4, "velocity": 76}, {"time": 2192, "pitch": 60, "duration": 9, "velocity": 79}, {"time": 2192, "pitch": 65, "duration": 9, "velocity": 81}, {"time": 2192, "pitch": 69, "duration": 10, "velocity": 72}, {"time": 2198, "pitch": 53, "duration": 22, "velocity": 80}, {"time": 2210, "pitch": 60, "duration": 2, "velocity": 79}, {"time": 2210, "pitch": 65, "duration": 2, "velocity": 80}, {"time": 2210, "pitch": 69, "duration": 3, "velocity": 76}, {"time": 2216, "pitch": 60, "duration": 8, "velocity": 76}, {"time": 2216, "pitch": 65, "duration": 8, "velocity": 77}, {"time": 2216, "pitch": 69, "duration": 9, "velocity": 78}, {"time": 2222, "pitch": 48, "duration": 21, "velocity": 80}, {"time": 2234, "pitch": 60, "duration": 3, "velocity": 80}, {"time": 2234, "pitch": 65, "duration": 3, "velocity": 75}, {"time": 2234, "pitch": 69, "duration": 3, "velocity": 73}, {"time": 2240, "pitch": 60, "duration": 10, "velocity": 80}, {"time": 2240, "pitch": 65, "duration": 6, "velocity": 80}, {"time": 2240, "pitch": 69, "duration": 7, "velocity": 80}, {"time": 2246, "pitch": 53, "duration": 20, "velocity": 82}, {"time": 2258, "pitch": 60, "duration": 2, "velocity": 83}, {"time": 2258, "pitch": 65, "duration": 2, "velocity": 79}, {"time": 2258, "pitch": 69, "duration": 3, "velocity": 76}, {"time": 2264, "pitch": 60, "duration": 8, "velocity": 82}, {"time": 2264, "pitch": 65, "duration": 7, "velocity": 76}, {"time": 2264, "pitch": 69, "duration": 8, "velocity": 79}, {"time": 2270, "pitch": 53, "duration": 13, "velocity": 86}, {"time": 2282, "pitch": 52, "duration": 11, "velocity": 83}, {"time": 2282, "pitch": 60, "duration": 12, "velocity": 80}, {"time": 2282, "pitch": 64, "duration": 13, "velocity": 82}, {"time": 2282, "pitch": 67, "duration": 13, "velocity": 82}, {"time": 2294, "pitch": 50, "duration": 21, "velocity": 83}, {"time": 2306, "pitch": 60, "duration": 2, "velocity": 79}, {"time": 2306, "pitch": 65, "duration": 2, "velocity": 75}, {"time": 2306, "pitch": 69, "duration": 3, "velocity": 76}, {"time": 2312, "pitch": 60, "duration": 7, "velocity": 83}, {"time": 2312, "pitch": 65, "duration": 7, "velocity": 84}, {"time": 2312, "pitch": 69, "duration": 7, "velocity": 79}, {"time": 2318, "pitch": 57, "duration": 19, "velocity": 81}, {"time": 2330, "pitch": 60, "duration": 2, "velocity": 79}, {"time": 2330, "pitch": 65, "duration": 2, "velocity": 79}, {"time": 2330, "pitch": 69, "duration": 3, "velocity": 73}, {"time": 2336, "pitch": 60, "duration": 7, "velocity": 84}, {"time": 2336, "pitch": 65, "duration": 6, "velocity": 83}, {"time": 2336, "pitch": 69, "duration": 6, "velocity": 80}, {"time": 2342, "pitch": 50, "duration": 20, "velocity": 80}, {"time": 2354, "pitch": 60, "duration": 2, "velocity": 82}, {"time": 2354, "pitch": 65, "duration": 2, "velocity": 79}, {"time": 2354, "pitch": 69, "duration": 3, "velocity": 77}, {"time": 2360, "pitch": 60, "duration": 7, "velocity": 82}, {"time": 2360, "pitch": 65, "duration": 7, "velocity": 83}, {"time": 2360, "pitch": 69, "duration": 7, "velocity": 83}, {"time": 2366, "pitch": 50, "duration": 13, "velocity": 90}, {"time": 2378, "pitch": 60, "duration": 8, "velocity": 84}, {"time": 2378, "pitch": 65, "duration": 4, "velocity": 84}, {"time": 2378, "pitch": 69, "duration": 10, "velocity": 81}, {"time": 2384, "pitch": 65, "duration": 6, "velocity": 86}, {"time": 2390, "pitch": 43, "duration": 20, "velocity": 86}, {"time": 2390, "pitch": 55, "duration": 21, "velocity": 84}, {"time": 2402, "pitch": 62, "duration": 3, "velocity": 78}, {"time": 2402, "pitch": 65, "duration": 3, "velocity": 81}, {"time": 2402, "pitch": 70, "duration": 3, "velocity": 82}, {"time": 2408, "pitch": 62, "duration": 8, "velocity": 82}, {"time": 2408, "pitch": 65, "duration": 6, "velocity": 82}, {"time": 2408, "pitch": 70, "duration": 7, "velocity": 84}, {"time": 2414, "pitch": 55, "duration": 15, "velocity": 75}, {"time": 2426, "pitch": 62, "duration": 3, "velocity": 80}, {"time": 2426, "pitch": 67, "duration": 3, "velocity": 79}, {"time": 2426, "pitch": 70, "duration": 3, "velocity": 82}, {"time": 2432, "pitch": 62, "duration": 8, "velocity": 82}, {"time": 2432, "pitch": 67, "duration": 8, "velocity": 79}, {"time": 2432, "pitch": 70, "duration": 5, "velocity": 82}, {"time": 2438, "pitch": 50, "duration": 20, "velocity": 90}, {"time": 2450, "pitch": 62, "duration": 3, "velocity": 81}, {"time": 2450, "pitch": 65, "duration": 2, "velocity": 78}, {"time": 2450, "pitch": 69, "duration": 3, "velocity": 84}, {"time": 2456, "pitch": 62, "duration": 7, "velocity": 83}, {"time": 2456, "pitch": 65, "duration": 7, "velocity": 84}, {"time": 2456, "pitch": 69, "duration": 7, "velocity": 79}, {"time": 2462, "pitch": 57, "duration": 16, "velocity": 79}, {"time": 2474, "pitch": 62, "duration": 3, "velocity": 78}, {"time": 2474, "pitch": 65, "duration": 2, "velocity": 75}, {"time": 2474, "pitch": 69, "duration": 3, "velocity": 75}, {"time": 2480, "pitch": 62, "duration": 7, "velocity": 80}, {"time": 2480, "pitch": 65, "duration": 7, "velocity": 82}, {"time": 2480, "pitch": 69, "duration": 5, "velocity": 78}, {"time": 2486, "pitch": 50, "duration": 19, "velocity": 93}, {"time": 2498, "pitch": 62, "duration": 3, "velocity": 78}, {"time": 2498, "pitch": 65, "duration": 3, "velocity": 79}, {"time": 2498, "pitch": 69, "duration": 3, "velocity": 82}, {"time": 2504, "pitch": 62, "duration": 9, "velocity": 84}, {"time": 2504, "pitch": 65, "duration": 9, "velocity": 84}, {"time": 2504, "pitch": 69, "duration": 9, "velocity": 82}, {"time": 2510, "pitch": 57, "duration": 12, "velocity": 79}, {"time": 2522, "pitch": 62, "duration": 3, "velocity": 79}, {"time": 2522, "pitch": 65, "duration": 3, "velocity": 79}, {"time": 2522, "pitch": 69, "duration": 3, "velocity": 75}, {"time": 2528, "pitch": 62, "duration": 5, "velocity": 79}, {"time": 2528, "pitch": 65, "duration": 5, "velocity": 83}, {"time": 2528, "pitch": 69, "duration": 5, "velocity": 79}, {"time": 2534, "pitch": 43, "duration": 20, "velocity": 81}, {"time": 2534, "pitch": 55, "duration": 21, "velocity": 76}, {"time": 2546, "pitch": 62, "duration": 3, "velocity": 79}, {"time": 2546, "pitch": 67, "duration": 4, "velocity": 79}, {"time": 2546, "pitch": 70, "duration": 3, "velocity": 83}, {"time": 2552, "pitch": 62, "duration": 8, "velocity": 80}, {"time": 2552, "pitch": 67, "duration": 10, "velocity": 84}, {"time": 2552, "pitch": 70, "duration": 7, "velocity": 81}, {"time": 2558, "pitch": 50, "duration": 19, "velocity": 90}, {"time": 2570, "pitch": 62, "duration": 3, "velocity": 84}, {"time": 2570, "pitch": 67, "duration": 3, "velocity": 74}, {"time": 2570, "pitch": 70, "duration": 3, "velocity": 73}, {"time": 2576, "pitch": 62, "duration": 7, "velocity": 82}, {"time": 2576, "pitch": 67, "duration": 7, "velocity": 80}, {"time": 2576, "pitch": 70, "duration": 3, "velocity": 79}, {"time": 2582, "pitch": 45, "duration": 20, "velocity": 90}, {"time": 2594, "pitch": 60, "duration": 3, "velocity": 75}, {"time": 2594, "pitch": 64, "duration": 3, "velocity": 79}, {"time": 2594, "pitch": 67, "duration": 3, "velocity": 81}, {"time": 2600, "pitch": 60, "duration": 8, "velocity": 80}, {"time": 2600, "pitch": 64, "duration": 7, "velocity": 82}, {"time": 2600, "pitch": 67, "duration": 8, "velocity": 81}, {"time": 2606, "pitch": 46, "duration": 20, "velocity": 98}, {"time": 2618, "pitch": 62, "duration": 3, "velocity": 84}, {"time": 2618, "pitch": 65, "duration": 3, "velocity": 86}, {"time": 2618, "pitch": 70, "duration": 3, "velocity": 86}, {"time": 2624, "pitch": 62, "duration": 8, "velocity": 79}, {"time": 2624, "pitch": 65, "duration": 7, "velocity": 83}, {"time": 2624, "pitch": 70, "duration": 7, "velocity": 86}, {"time": 2630, "pitch": 48, "duration": 17, "velocity": 86}, {"time": 2642, "pitch": 60, "duration": 3, "velocity": 79}, {"time": 2642, "pitch": 64, "duration": 3, "velocity": 79}, {"time": 2642, "pitch": 67, "duration": 3, "velocity": 75}, {"time": 2642, "pitch": 72, "duration": 2, "velocity": 71}, {"time": 2648, "pitch": 60, "duration": 7, "velocity": 84}, {"time": 2648, "pitch": 64, "duration": 8, "velocity": 83}, {"time": 2648, "pitch": 67, "duration": 8, "velocity": 74}, {"time": 2648, "pitch": 72, "duration": 11, "velocity": 86}, {"time": 2654, "pitch": 55, "duration": 16, "velocity": 81}, {"time": 2666, "pitch": 60, "duration": 12, "velocity": 91}, {"time": 2666, "pitch": 64, "duration": 12, "velocity": 84}, {"time": 2666, "pitch": 67, "duration": 12, "velocity": 83}, {"time": 2666, "pitch": 72, "duration": 12, "velocity": 82}, {"time": 2678, "pitch": 41, "duration": 16, "velocity": 84}, {"time": 2678, "pitch": 53, "duration": 15, "velocity": 78}, {"time": 2678, "pitch": 60, "duration": 8, "velocity": 75}, {"time": 2678, "pitch": 65, "duration": 8, "velocity": 83}, {"time": 2678, "pitch": 69, "duration": 8, "velocity": 78}, {"time": 2690, "pitch": 60, "duration": 11, "velocity": 77}, {"time": 2690, "pitch": 65, "duration": 15, "velocity": 82}, {"time": 2690, "pitch": 69, "duration": 11, "velocity": 77}, {"time": 2696, "pitch": 41, "duration": 4, "velocity": 78}, {"time": 2696, "pitch": 53, "duration": 3, "velocity": 75}, {"time": 2702, "pitch": 46, "duration": 15, "velocity": 79}, {"time": 2714, "pitch": 62, "duration": 19, "velocity": 75}, {"time": 2714, "pitch": 65, "duration": 20, "velocity": 84}, {"time": 2714, "pitch": 70, "duration": 19, "velocity": 86}, {"time": 2720, "pitch": 46, "duration": 4, "velocity": 81}, {"time": 2726, "pitch": 41, "duration": 3, "velocity": 86}, {"time": 2726, "pitch": 53, "duration": 3, "velocity": 84}, {"time": 2732, "pitch": 41, "duration": 15, "velocity": 86}, {"time": 2732, "pitch": 53, "duration": 9, "velocity": 86}, {"time": 2738, "pitch": 60, "duration": 11, "velocity": 86}, {"time": 2738, "pitch": 65, "duration": 14, "velocity": 84}, {"time": 2738, "pitch": 69, "duration": 12, "velocity": 80}, {"time": 2744, "pitch": 53, "duration": 3, "velocity": 82}, {"time": 2750, "pitch": 46, "duration": 10, "velocity": 84}, {"time": 2756, "pitch": 62, "duration": 12, "velocity": 75}, {"time": 2756, "pitch": 65, "duration": 10, "velocity": 78}, {"time": 2756, "pitch": 70, "duration": 9, "velocity": 82}, {"time": 2762, "pitch": 46, "duration": 9, "velocity": 84}, {"time": 2768, "pitch": 67, "duration": 4, "velocity": 84}, {"time": 2774, "pitch": 48, "duration": 15, "velocity": 90}, {"time": 2774, "pitch": 60, "duration": 6, "velocity": 80}, {"time": 2774, "pitch": 64, "duration": 6, "velocity": 82}, {"time": 2774, "pitch": 67, "duration": 6, "velocity": 82}, {"time": 2774, "pitch": 72, "duration": 6, "velocity": 79}, {"time": 2786, "pitch": 60, "duration": 14, "velocity": 86}, {"time": 2786, "pitch": 64, "duration": 13, "velocity": 80}, {"time": 2786, "pitch": 67, "duration": 14, "velocity": 76}, {"time": 2786, "pitch": 72, "duration": 13, "velocity": 84}, {"time": 2792, "pitch": 48, "duration": 2, "velocity": 80}, {"time": 2798, "pitch": 48, "duration": 8, "velocity": 93}, {"time": 2804, "pitch": 60, "duration": 9, "velocity": 84}, {"time": 2804, "pitch": 64, "duration": 8, "velocity": 82}, {"time": 2804, "pitch": 67, "duration": 9, "velocity": 81}, {"time": 2804, "pitch": 72, "duration": 10, "velocity": 80}, {"time": 2810, "pitch": 48, "duration": 8, "velocity": 90}, {"time": 2816, "pitch": 60, "duration": 4, "velocity": 82}, {"time": 2816, "pitch": 67, "duration": 5, "velocity": 83}, {"time": 2822, "pitch": 53, "duration": 20, "velocity": 84}, {"time": 2828, "pitch": 60, "duration": 4, "velocity": 78}, {"time": 2834, "pitch": 60, "duration": 3, "velocity": 75}, {"time": 2834, "pitch": 65, "duration": 3, "velocity": 79}, {"time": 2834, "pitch": 69, "duration": 3, "velocity": 72}, {"time": 2840, "pitch": 60, "duration": 7, "velocity": 77}, {"time": 2840, "pitch": 65, "duration": 8, "velocity": 79}, {"time": 2840, "pitch": 69, "duration": 8, "velocity": 75}, {"time": 2846, "pitch": 53, "duration": 14, "velocity": 80}, {"time": 2852, "pitch": 60, "duration": 3, "velocity": 71}, {"time": 2858, "pitch": 60, "duration": 10, "velocity": 82}, {"time": 2858, "pitch": 65, "duration": 9, "velocity": 69}, {"time": 2858, "pitch": 69, "duration": 10, "velocity": 76}, {"time": 2864, "pitch": 53, "duration": 4, "velocity": 77}, {"time": 2870, "pitch": 50, "duration": 20, "velocity": 84}, {"time": 2882, "pitch": 60, "duration": 3, "velocity": 79}, {"time": 2882, "pitch": 65, "duration": 3, "velocity": 76}, {"time": 2882, "pitch": 69, "duration": 3, "velocity": 75}, {"time": 2888, "pitch": 60, "duration": 9, "velocity": 80}, {"time": 2888, "pitch": 65, "duration": 9, "velocity": 73}, {"time": 2888, "pitch": 69, "duration": 10, "velocity": 76}, {"time": 2894, "pitch": 50, "duration": 18, "velocity": 80}, {"time": 2900, "pitch": 60, "duration": 3, "velocity": 76}, {"time": 2906, "pitch": 60, "duration": 4, "velocity": 81}, {"time": 2906, "pitch": 65, "duration": 4, "velocity": 82}, {"time": 2906, "pitch": 69, "duration": 10, "velocity": 80}, {"time": 2912, "pitch": 60, "duration": 4, "velocity": 63}, {"time": 2912, "pitch": 65, "duration": 7, "velocity": 54}, {"time": 2918, "pitch": 43, "duration": 21, "velocity": 81}, {"time": 2918, "pitch": 55, "duration": 19, "velocity": 75}, {"time": 2930, "pitch": 62, "duration": 3, "velocity": 78}, {"time": 2930, "pitch": 65, "duration": 3, "velocity": 79}, {"time": 2930, "pitch": 70, "duration": 4, "velocity": 83}, {"time": 2936, "pitch": 62, "duration": 4, "velocity": 78}, {"time": 2936, "pitch": 65, "duration": 4, "velocity": 79}, {"time": 2942, "pitch": 48, "duration": 16, "velocity": 84}, {"time": 2954, "pitch": 60, "duration": 3, "velocity": 68}, {"time": 2954, "pitch": 67, "duration": 3, "velocity": 76}, {"time": 2960, "pitch": 48, "duration": 6, "velocity": 83}, {"time": 2960, "pitch": 60, "duration": 8, "velocity": 72}, {"time": 2960, "pitch": 67, "duration": 9, "velocity": 80}, {"time": 2966, "pitch": 53, "duration": 20, "velocity": 83}, {"time": 2978, "pitch": 60, "duration": 3, "velocity": 78}, {"time": 2978, "pitch": 65, "duration": 3, "velocity": 82}, {"time": 2978, "pitch": 69, "duration": 3, "velocity": 79}, {"time": 2984, "pitch": 60, "duration": 9, "velocity": 78}, {"time": 2984, "pitch": 65, "duration": 9, "velocity": 79}, {"time": 2984, "pitch": 69, "duration": 10, "velocity": 76}, {"time": 2990, "pitch": 48, "duration": 22, "velocity": 83}, {"time": 3002, "pitch": 60, "duration": 3, "velocity": 79}, {"time": 3002, "pitch": 65, "duration": 3, "velocity": 80}, {"time": 3002, "pitch": 69, "duration": 4, "velocity": 76}, {"time": 3008, "pitch": 60, "duration": 9, "velocity": 79}, {"time": 3008, "pitch": 65, "duration": 9, "velocity": 81}, {"time": 3008, "pitch": 69, "duration": 10, "velocity": 72}, {"time": 3014, "pitch": 53, "duration": 22, "velocity": 80}, {"time": 3026, "pitch": 60, "duration": 2, "velocity": 79}, {"time": 3026, "pitch": 65, "duration": 2, "velocity": 80}, {"time": 3026, "pitch": 69, "duration": 3, "velocity": 76}, {"time": 3032, "pitch": 60, "duration": 8, "velocity": 76}, {"time": 3032, "pitch": 65, "duration": 8, "velocity": 77}, {"time": 3032, "pitch": 69, "duration": 9, "velocity": 78}, {"time": 3038, "pitch": 48, "duration": 21, "velocity": 80}, {"time": 3050, "pitch": 60, "duration": 3, "velocity": 80}, {"time": 3050, "pitch": 65, "duration": 3, "velocity": 75}, {"time": 3050, "pitch": 69, "duration": 3, "velocity": 73}, {"time": 3056, "pitch": 60, "duration": 10, "velocity": 80}, {"time": 3056, "pitch": 65, "duration": 6, "velocity": 80}, {"time": 3056, "pitch": 69, "duration": 7, "velocity": 80}, {"time": 3062, "pitch": 53, "duration": 20, "velocity": 82}, {"time": 3074, "pitch": 60, "duration": 2, "velocity": 83}, {"time": 3074, "pitch": 65, "duration": 2, "velocity": 79}, {"time": 3074, "pitch": 69, "duration": 3, "velocity": 76}, {"time": 3080, "pitch": 60, "duration": 8, "velocity": 82}, {"time": 3080, "pitch": 65, "duration": 7, "velocity": 76}, {"time": 3080, "pitch": 69, "duration": 8, "velocity": 79}, {"time": 3086, "pitch": 53, "duration": 13, "velocity": 86}, {"time": 3098, "pitch": 52, "duration": 11, "velocity": 83}, {"time": 3098, "pitch": 60, "duration": 12, "velocity": 80}, {"time": 3098, "pitch": 64, "duration": 13, "velocity": 82}, {"time": 3098, "pitch": 67, "duration": 13, "velocity": 82}, {"time": 3110, "pitch": 50, "duration": 21, "velocity": 83}, {"time": 3122, "pitch": 60, "duration": 2, "velocity": 79}, {"time": 3122, "pitch": 65, "duration": 2, "velocity": 75}, {"time": 3122, "pitch": 69, "duration": 3, "velocity": 76}, {"time": 3128, "pitch": 60, "duration": 7, "velocity": 83}, {"time": 3128, "pitch": 65, "duration": 7, "velocity": 84}, {"time": 3128, "pitch": 69, "duration": 7, "velocity": 79}, {"time": 3134, "pitch": 57, "duration": 19, "velocity": 81}, {"time": 3146, "pitch": 60, "duration": 2, "velocity": 79}, {"time": 3146, "pitch": 65, "duration": 2, "velocity": 79}, {"time": 3146, "pitch": 69, "duration": 3, "velocity": 73}, {"time": 3152, "pitch": 60, "duration": 7, "velocity": 84}, {"time": 3152, "pitch": 65, "duration": 6, "velocity": 83}, {"time": 3152, "pitch": 69, "duration": 6, "velocity": 80}, {"time": 3158, "pitch": 50, "duration": 20, "velocity": 80}, {"time": 3170, "pitch": 60, "duration": 2, "velocity": 82}, {"time": 3170, "pitch": 65, "duration": 2, "velocity": 79}, {"time": 3170, "pitch": 69, "duration": 3, "velocity": 77}, {"time": 3176, "pitch": 60, "duration": 7, "velocity": 82}, {"time": 3176, "pitch": 65, "duration": 7, "velocity": 83}, {"time": 3176, "pitch": 69, "duration": 7, "velocity": 83}, {"time": 3182, "pitch": 50, "duration": 13, "velocity": 90}, {"time": 3194, "pitch": 60, "duration": 8, "velocity": 84}, {"time": 3194, "pitch": 65, "duration": 4, "velocity": 84}, {"time": 3194, "pitch": 69, "duration": 10, "velocity": 81}, {"time": 3200, "pitch": 65, "duration": 6, "velocity": 86}, {"time": 3206, "pitch": 43, "duration": 20, "velocity": 86}, {"time": 3206, "pitch": 55, "duration": 21, "velocity": 84}, {"time": 3218, "pitch": 62, "duration": 3, "velocity": 78}, {"time": 3218, "pitch": 65, "duration": 3, "velocity": 81}, {"time": 3218, "pitch": 70, "duration": 3, "velocity": 82}, {"time": 3224, "pitch": 62, "duration": 8, "velocity": 82}, {"time": 3224, "pitch": 65, "duration": 6, "velocity": 82}, {"time": 3224, "pitch": 70, "duration": 7, "velocity": 84}, {"time": 3230, "pitch": 55, "duration": 15, "velocity": 75}, {"time": 3242, "pitch": 62, "duration": 3, "velocity": 80}, {"time": 3242, "pitch": 67, "duration": 3, "velocity": 79}, {"time": 3242, "pitch": 70, "duration": 3, "velocity": 82}, {"time": 3248, "pitch": 62, "duration": 8, "velocity": 82}, {"time": 3248, "pitch": 67, "duration": 8, "velocity": 79}, {"time": 3248, "pitch": 70, "duration": 5, "velocity": 82}, {"time": 3254, "pitch": 50, "duration": 20, "velocity": 90}, {"time": 3266, "pitch": 62, "duration": 3, "velocity": 81}, {"time": 3266, "pitch": 65, "duration": 2, "velocity": 78}, {"time": 3266, "pitch": 69, "duration": 3, "velocity": 84}, {"time": 3272, "pitch": 62, "duration": 7, "velocity": 83}, {"time": 3272, "pitch": 65, "duration": 7, "velocity": 84}, {"time": 3272, "pitch": 69, "duration": 7, "velocity": 79}, {"time": 3278, "pitch": 57, "duration": 16, "velocity": 79}, {"time": 3290, "pitch": 62, "duration": 3, "velocity": 78}, {"time": 3290, "pitch": 65, "duration": 2, "velocity": 75}, {"time": 3290, "pitch": 69, "duration": 3, "velocity": 75}, {"time": 3296, "pitch": 62, "duration": 7, "velocity": 80}, {"time": 3296, "pitch": 65, "duration": 7, "velocity": 82}, {"time": 3296, "pitch": 69, "duration": 5, "velocity": 78}, {"time": 3302, "pitch": 50, "duration": 19, "velocity": 93}, {"time": 3314, "pitch": 62, "duration": 3, "velocity": 78}, {"time": 3314, "pitch": 65, "duration": 3, "velocity": 79}, {"time": 3314, "pitch": 69, "duration": 3, "velocity": 82}, {"time": 3320, "pitch": 62, "duration": 9, "velocity": 84}, {"time": 3320, "pitch": 65, "duration": 9, "velocity": 84}, {"time": 3320, "pitch": 69, "duration": 9, "velocity": 82}, {"time": 3326, "pitch": 57, "duration": 12, "velocity": 79}, {"time": 3338, "pitch": 62, "duration": 3, "velocity": 79}, {"time": 3338, "pitch": 65, "duration": 3, "velocity": 79}, {"time": 3338, "pitch": 69, "duration": 3, "velocity": 75}, {"time": 3344, "pitch": 62, "duration": 5, "velocity": 79}, {"time": 3344, "pitch": 65, "duration": 5, "velocity": 83}, {"time": 3344, "pitch": 69, "duration": 5, "velocity": 79}, {"time": 3350, "pitch": 43, "duration": 20, "velocity": 81}, {"time": 3350, "pitch": 55, "duration": 21, "velocity": 76}, {"time": 3362, "pitch": 62, "duration": 3, "velocity": 79}, {"time": 3362, "pitch": 67, "duration": 4, "velocity": 79}, {"time": 3362, "pitch": 70, "duration": 3, "velocity": 83}, {"time": 3368, "pitch": 62, "duration": 8, "velocity": 80}, {"time": 3368, "pitch": 67, "duration": 10, "velocity": 84}, {"time": 3368, "pitch": 70, "duration": 7, "velocity": 81}, {"time": 3374, "pitch": 50, "duration": 19, "velocity": 90}, {"time": 3386, "pitch": 62, "duration": 3, "velocity": 84}, {"time": 3386, "pitch": 67, "duration": 3, "velocity": 74}, {"time": 3386, "pitch": 70, "duration": 3, "velocity": 73}, {"time": 3392, "pitch": 62, "duration": 7, "velocity": 82}, {"time": 3392, "pitch": 67, "duration": 7, "velocity": 80}, {"time": 3392, "pitch": 70, "duration": 3, "velocity": 79}, {"time": 3398, "pitch": 45, "duration": 20, "velocity": 90}, {"time": 3398, "pitch": 60, "duration": 5, "velocity": 80}, {"time": 3398, "pitch": 64, "duration": 5, "velocity": 81}, {"time": 3407, "pitch": 60, "duration": 7, "velocity": 68}, {"time": 3407, "pitch": 64, "duration": 6, "velocity": 80}, {"time": 3407, "pitch": 72, "duration": 11, "velocity": 86}, {"time": 3413, "pitch": 57, "duration": 6, "velocity": 72}, {"time": 3422, "pitch": 46, "duration": 16, "velocity": 79}, {"time": 3422, "pitch": 58, "duration": 15, "velocity": 71}, {"time": 3422, "pitch": 62, "duration": 16, "velocity": 80}, {"time": 3422, "pitch": 65, "duration": 15, "velocity": 83}, {"time": 3422, "pitch": 70, "duration": 13, "velocity": 84}, {"time": 3446, "pitch": 48, "duration": 44, "velocity": 90}, {"time": 3446, "pitch": 64, "duration": 8, "velocity": 86}, {"time": 3446, "pitch": 67, "duration": 7, "velocity": 91}, {"time": 3446, "pitch": 72, "duration": 8, "velocity": 93}, {"time": 3452, "pitch": 55, "duration": 21, "velocity": 57}, {"time": 3458, "pitch": 64, "duration": 5, "velocity": 90}, {"time": 3458, "pitch": 60, "duration": 7, "velocity": 75}, {"time": 3464, "pitch": 67, "duration": 5, "velocity": 95}, {"time": 3470, "pitch": 64, "duration": 4, "velocity": 84}, {"time": 3470, "pitch": 69, "duration": 4, "velocity": 84}, {"time": 3470, "pitch": 60, "duration": 12, "velocity": 76}, {"time": 3476, "pitch": 72, "duration": 2, "velocity": 95}, {"time": 3481, "pitch": 74, "duration": 5, "velocity": 94}, {"time": 3482, "pitch": 55, "duration": 9, "velocity": 75}, {"time": 3487, "pitch": 76, "duration": 7, "velocity": 84}, {"time": 3487, "pitch": 60, "duration": 3, "velocity": 71}, {"time": 3497, "pitch": 67, "duration": 6, "velocity": 81}, {"time": 3498, "pitch": 72, "duration": 5, "velocity": 86}, {"time": 3498, "pitch": 48, "duration": 41, "velocity": 82}, {"time": 3502, "pitch": 55, "duration": 36, "velocity": 72}, {"time": 3505, "pitch": 60, "duration": 32, "velocity": 84}, {"time": 3508, "pitch": 62, "duration": 2, "velocity": 80}, {"time": 3510, "pitch": 64, "duration": 2, "velocity": 82}, {"time": 3512, "pitch": 67, "duration": 2, "velocity": 76}, {"time": 3514, "pitch": 72, "duration": 1, "velocity": 83}, {"time": 3517, "pitch": 72, "duration": 1, "velocity": 81}, {"time": 3517, "pitch": 74, "duration": 3, "velocity": 78}, {"time": 3518, "pitch": 76, "duration": 3, "velocity": 72}, {"time": 3521, "pitch": 79, "duration": 3, "velocity": 63}, {"time": 3523, "pitch": 84, "duration": 2, "velocity": 75}, {"time": 3526, "pitch": 86, "duration": 2, "velocity": 80}, {"time": 3528, "pitch": 88, "duration": 2, "velocity": 80}, {"time": 3531, "pitch": 91, "duration": 3, "velocity": 75}, {"time": 3535, "pitch": 96, "duration": 2, "velocity": 82}], "annotations": [{"time": 4, "annotation": {"number": 64, "value": 127}, "group": "control_change"}, {"time": 18, "annotation": {"number": 64, "value": 0}, "group": "control_change"}, {"time": 23, "annotation": {"number": 64, "value": 127}, "group": "control_change"}, {"time": 37, "annotation": {"number": 64, "value": 0}, "group": "control_change"}, {"time": 40, "annotation": {"number": 64, "value": 127}, "group": "control_change"}, {"time": 92, "annotation": {"number": 64, "value": 0}, "group": "control_change"}, {"time": 97, "annotation": {"number": 64, "value": 127}, "group": "control_change"}, {"time": 109, "annotation": {"number": 64, "value": 0}, "group": "control_change"}, {"time": 114, "annotation": {"number": 64, "value": 127}, "group": "control_change"}, {"time": 136, "annotation": {"number": 64, "value": 0}, "group": "control_change"}, {"time": 141, "annotation": {"number": 64, "value": 127}, "group": "control_change"}, {"time": 182, "annotation": {"number": 64, "value": 0}, "group": "control_change"}, {"time": 183, "annotation": {"number": 64, "value": 127}, "group": "control_change"}, {"time": 205, "annotation": {"number": 64, "value": 0}, "group": "control_change"}, {"time": 210, "annotation": {"number": 64, "value": 127}, "group": "control_change"}, {"time": 232, "annotation": {"number": 64, "value": 127}, "group": "control_change"}, {"time": 238, "annotation": {"number": 64, "value": 0}, "group": "control_change"}, {"time": 278, "annotation": {"number": 64, "value": 0}, "group": "control_change"}, {"time": 281, "annotation": {"number": 64, "value": 127}, "group": "control_change"}, {"time": 282, "annotation": {"number": 64, "value": 127}, "group": "control_change"}, {"time": 299, "annotation": {"number": 64, "value": 0}, "group": "control_change"}, {"time": 303, "annotation": {"number": 64, "value": 0}, "group": "control_change"}, {"time": 306, "annotation": {"number": 64, "value": 127}, "group": "control_change"}, {"time": 325, "annotation": {"number": 64, "value": 0}, "group": "control_change"}, {"time": 328, "annotation": {"number": 64, "value": 127}, "group": "control_change"}, {"time": 368, "annotation": {"number": 64, "value": 0}, "group": "control_change"}, {"time": 375, "annotation": {"number": 64, "value": 127}, "group": "control_change"}, {"time": 418, "annotation": {"number": 64, "value": 0}, "group": "control_change"}, {"time": 436, "annotation": {"number": 64, "value": 127}, "group": "control_change"}, {"time": 469, "annotation": {"number": 64, "value": 0}, "group": "control_change"}, {"time": 477, "annotation": {"number": 64, "value": 127}, "group": "control_change"}, {"time": 491, "annotation": {"number": 64, "value": 0}, "group": "control_change"}, {"time": 495, "annotation": {"number": 64, "value": 127}, "group": "control_change"}, {"time": 516, "annotation": {"number": 64, "value": 0}, "group": "control_change"}, {"time": 522, "annotation": {"number": 64, "value": 127}, "group": "control_change"}, {"time": 540, "annotation": {"number": 64, "value": 0}, "group": "control_change"}, {"time": 546, "annotation": {"number": 64, "value": 127}, "group": "control_change"}, {"time": 564, "annotation": {"number": 64, "value": 0}, "group": "control_change"}, {"time": 569, "annotation": {"number": 64, "value": 127}, "group": "control_change"}, {"time": 592, "annotation": {"number": 64, "value": 0}, "group": "control_change"}, {"time": 604, "annotation": {"number": 64, "value": 127}, "group": "control_change"}, {"time": 613, "annotation": {"number": 64, "value": 0}, "group": "control_change"}, {"time": 618, "annotation": {"number": 64, "value": 127}, "group": "control_change"}, {"time": 638, "annotation": {"number": 64, "value": 0}, "group": "control_change"}, {"time": 642, "annotation": {"number": 64, "value": 127}, "group": "control_change"}, {"time": 648, "annotation": {"number": 64, "value": 0}, "group": "control_change"}, {"time": 662, "annotation": {"number": 64, "value": 127}, "group": "control_change"}, {"time": 676, "annotation": {"number": 64, "value": 0}, "group": "control_change"}, {"time": 683, "annotation": {"number": 64, "value": 127}, "group": "control_change"}, {"time": 701, "annotation": {"number": 64, "value": 0}, "group": "control_change"}, {"time": 710, "annotation": {"number": 64, "value": 127}, "group": "control_change"}, {"time": 725, "annotation": {"number": 64, "value": 0}, "group": "control_change"}, {"time": 733, "annotation": {"number": 64, "value": 127}, "group": "control_change"}, {"time": 751, "annotation": {"number": 64, "value": 0}, "group": "control_change"}, {"time": 751, "annotation": {"number": 64, "value": 127}, "group": "control_change"}, {"time": 757, "annotation": {"number": 64, "value": 127}, "group": "control_change"}, {"time": 774, "annotation": {"number": 64, "value": 0}, "group": "control_change"}, {"time": 780, "annotation": {"number": 64, "value": 127}, "group": "control_change"}, {"time": 782, "annotation": {"number": 64, "value": 0}, "group": "control_change"}, {"time": 783, "annotation": {"number": 64, "value": 127}, "group": "control_change"}, {"time": 805, "annotation": {"number": 64, "value": 0}, "group": "control_change"}, {"time": 830, "annotation": {"number": 64, "value": 127}, "group": "control_change"}, {"time": 852, "annotation": {"number": 64, "value": 0}, "group": "control_change"}, {"time": 856, "annotation": {"number": 64, "value": 127}, "group": "control_change"}, {"time": 876, "annotation": {"number": 64, "value": 0}, "group": "control_change"}, {"time": 881, "annotation": {"number": 64, "value": 127}, "group": "control_change"}, {"time": 899, "annotation": {"number": 64, "value": 0}, "group": "control_change"}, {"time": 905, "annotation": {"number": 64, "value": 127}, "group": "control_change"}, {"time": 923, "annotation": {"number": 64, "value": 0}, "group": "control_change"}, {"time": 927, "annotation": {"number": 64, "value": 127}, "group": "control_change"}, {"time": 950, "annotation": {"number": 64, "value": 0}, "group": "control_change"}, {"time": 952, "annotation": {"number": 64, "value": 127}, "group": "control_change"}, {"time": 973, "annotation": {"number": 64, "value": 0}, "group": "control_change"}, {"time": 978, "annotation": {"number": 64, "value": 127}, "group": "control_change"}, {"time": 996, "annotation": {"number": 64, "value": 0}, "group": "control_change"}, {"time": 1000, "annotation": {"number": 64, "value": 127}, "group": "control_change"}, {"time": 1042, "annotation": {"number": 64, "value": 0}, "group": "control_change"}, {"time": 1047, "annotation": {"number": 64, "value": 127}, "group": "control_change"}, {"time": 1067, "annotation": {"number": 64, "value": 0}, "group": "control_change"}, {"time": 1071, "annotation": {"number": 64, "value": 127}, "group": "control_change"}, {"time": 1100, "annotation": {"number": 64, "value": 0}, "group": "control_change"}, {"time": 1107, "annotation": {"number": 64, "value": 127}, "group": "control_change"}, {"time": 1115, "annotation": {"number": 64, "value": 0}, "group": "control_change"}, {"time": 1123, "annotation": {"number": 64, "value": 127}, "group": "control_change"}, {"time": 1139, "annotation": {"number": 64, "value": 0}, "group": "control_change"}, {"time": 1144, "annotation": {"number": 64, "value": 127}, "group": "control_change"}, {"time": 1148, "annotation": {"number": 64, "value": 0}, "group": "control_change"}, {"time": 1155, "annotation": {"number": 64, "value": 127}, "group": "control_change"}, {"time": 1187, "annotation": {"number": 64, "value": 0}, "group": "control_change"}, {"time": 1191, "annotation": {"number": 64, "value": 127}, "group": "control_change"}, {"time": 1234, "annotation": {"number": 64, "value": 0}, "group": "control_change"}, {"time": 1252, "annotation": {"number": 64, "value": 127}, "group": "control_change"}, {"time": 1285, "annotation": {"number": 64, "value": 0}, "group": "control_change"}, {"time": 1293, "annotation": {"number": 64, "value": 127}, "group": "control_change"}, {"time": 1307, "annotation": {"number": 64, "value": 0}, "group": "control_change"}, {"time": 1311, "annotation": {"number": 64, "value": 127}, "group": "control_change"}, {"time": 1332, "annotation": {"number": 64, "value": 0}, "group": "control_change"}, {"time": 1338, "annotation": {"number": 64, "value": 127}, "group": "control_change"}, {"time": 1356, "annotation": {"number": 64, "value": 0}, "group": "control_change"}, {"time": 1362, "annotation": {"number": 64, "value": 127}, "group": "control_change"}, {"time": 1380, "annotation": {"number": 64, "value": 0}, "group": "control_change"}, {"time": 1385, "annotation": {"number": 64, "value": 127}, "group": "control_change"}, {"time": 1408, "annotation": {"number": 64, "value": 0}, "group": "control_change"}, {"time": 1420, "annotation": {"number": 64, "value": 127}, "group": "control_change"}, {"time": 1429, "annotation": {"number": 64, "value": 0}, "group": "control_change"}, {"time": 1434, "annotation": {"number": 64, "value": 127}, "group": "control_change"}, {"time": 1454, "annotation": {"number": 64, "value": 0}, "group": "control_change"}, {"time": 1458, "annotation": {"number": 64, "value": 127}, "group": "control_change"}, {"time": 1464, "annotation": {"number": 64, "value": 0}, "group": "control_change"}, {"time": 1478, "annotation": {"number": 64, "value": 127}, "group": "control_change"}, {"time": 1492, "annotation": {"number": 64, "value": 0}, "group": "control_change"}, {"time": 1499, "annotation": {"number": 64, "value": 127}, "group": "control_change"}, {"time": 1517, "annotation": {"number": 64, "value": 0}, "group": "control_change"}, {"time": 1526, "annotation": {"number": 64, "value": 127}, "group": "control_change"}, {"time": 1541, "annotation": {"number": 64, "value": 0}, "group": "control_change"}, {"time": 1549, "annotation": {"number": 64, "value": 127}, "group": "control_change"}, {"time": 1567, "annotation": {"number": 64, "value": 0}, "group": "control_change"}, {"time": 1567, "annotation": {"number": 64, "value": 127}, "group": "control_change"}, {"time": 1573, "annotation": {"number": 64, "value": 127}, "group": "control_change"}, {"time": 1590, "annotation": {"number": 64, "value": 0}, "group": "control_change"}, {"time": 1596, "annotation": {"number": 64, "value": 127}, "group": "control_change"}, {"time": 1598, "annotation": {"number": 64, "value": 0}, "group": "control_change"}, {"time": 1599, "annotation": {"number": 64, "value": 127}, "group": "control_change"}, {"time": 1621, "annotation": {"number": 64, "value": 0}, "group": "control_change"}, {"time": 1646, "annotation": {"number": 64, "value": 127}, "group": "control_change"}, {"time": 1668, "annotation": {"number": 64, "value": 0}, "group": "control_change"}, {"time": 1672, "annotation": {"number": 64, "value": 127}, "group": "control_change"}, {"time": 1692, "annotation": {"number": 64, "value": 0}, "group": "control_change"}, {"time": 1697, "annotation": {"number": 64, "value": 127}, "group": "control_change"}, {"time": 1715, "annotation": {"number": 64, "value": 0}, "group": "control_change"}, {"time": 1721, "annotation": {"number": 64, "value": 127}, "group": "control_change"}, {"time": 1739, "annotation": {"number": 64, "value": 0}, "group": "control_change"}, {"time": 1743, "annotation": {"number": 64, "value": 127}, "group": "control_change"}, {"time": 1766, "annotation": {"number": 64, "value": 0}, "group": "control_change"}, {"time": 1768, "annotation": {"number": 64, "value": 127}, "group": "control_change"}, {"time": 1789, "annotation": {"number": 64, "value": 0}, "group": "control_change"}, {"time": 1794, "annotation": {"number": 64, "value": 127}, "group": "control_change"}, {"time": 1812, "annotation": {"number": 64, "value": 0}, "group": "control_change"}, {"time": 1816, "annotation": {"number": 64, "value": 127}, "group": "control_change"}, {"time": 1858, "annotation": {"number": 64, "value": 0}, "group": "control_change"}, {"time": 1863, "annotation": {"number": 64, "value": 127}, "group": "control_change"}, {"time": 1883, "annotation": {"number": 64, "value": 0}, "group": "control_change"}, {"time": 1887, "annotation": {"number": 64, "value": 127}, "group": "control_change"}, {"time": 1916, "annotation": {"number": 64, "value": 0}, "group": "control_change"}, {"time": 1923, "annotation": {"number": 64, "value": 127}, "group": "control_change"}, {"time": 1931, "annotation": {"number": 64, "value": 0}, "group": "control_change"}, {"time": 1939, "annotation": {"number": 64, "value": 127}, "group": "control_change"}, {"time": 1955, "annotation": {"number": 64, "value": 0}, "group": "control_change"}, {"time": 1960, "annotation": {"number": 64, "value": 127}, "group": "control_change"}, {"time": 1964, "annotation": {"number": 64, "value": 0}, "group": "control_change"}, {"time": 1971, "annotation": {"number": 64, "value": 127}, "group": "control_change"}, {"time": 2003, "annotation": {"number": 64, "value": 0}, "group": "control_change"}, {"time": 2007, "annotation": {"number": 64, "value": 127}, "group": "control_change"}, {"time": 2050, "annotation": {"number": 64, "value": 0}, "group": "control_change"}, {"time": 2068, "annotation": {"number": 64, "value": 127}, "group": "control_change"}, {"time": 2101, "annotation": {"number": 64, "value": 0}, "group": "control_change"}, {"time": 2109, "annotation": {"number": 64, "value": 127}, "group": "control_change"}, {"time": 2123, "annotation": {"number": 64, "value": 0}, "group": "control_change"}, {"time": 2127, "annotation": {"number": 64, "value": 127}, "group": "control_change"}, {"time": 2148, "annotation": {"number": 64, "value": 0}, "group": "control_change"}, {"time": 2154, "annotation": {"number": 64, "value": 127}, "group": "control_change"}, {"time": 2172, "annotation": {"number": 64, "value": 0}, "group": "control_change"}, {"time": 2178, "annotation": {"number": 64, "value": 127}, "group": "control_change"}, {"time": 2196, "annotation": {"number": 64, "value": 0}, "group": "control_change"}, {"time": 2201, "annotation": {"number": 64, "value": 127}, "group": "control_change"}, {"time": 2224, "annotation": {"number": 64, "value": 0}, "group": "control_change"}, {"time": 2236, "annotation": {"number": 64, "value": 127}, "group": "control_change"}, {"time": 2245, "annotation": {"number": 64, "value": 0}, "group": "control_change"}, {"time": 2250, "annotation": {"number": 64, "value": 127}, "group": "control_change"}, {"time": 2270, "annotation": {"number": 64, "value": 0}, "group": "control_change"}, {"time": 2274, "annotation": {"number": 64, "value": 127}, "group": "control_change"}, {"time": 2280, "annotation": {"number": 64, "value": 0}, "group": "control_change"}, {"time": 2294, "annotation": {"number": 64, "value": 127}, "group": "control_change"}, {"time": 2308, "annotation": {"number": 64, "value": 0}, "group": "control_change"}, {"time": 2315, "annotation": {"number": 64, "value": 127}, "group": "control_change"}, {"time": 2333, "annotation": {"number": 64, "value": 0}, "group": "control_change"}, {"time": 2342, "annotation": {"number": 64, "value": 127}, "group": "control_change"}, {"time": 2357, "annotation": {"number": 64, "value": 0}, "group": "control_change"}, {"time": 2365, "annotation": {"number": 64, "value": 127}, "group": "control_change"}, {"time": 2383, "annotation": {"number": 64, "value": 0}, "group": "control_change"}, {"time": 2383, "annotation": {"number": 64, "value": 127}, "group": "control_change"}, {"time": 2389, "annotation": {"number": 64, "value": 127}, "group": "control_change"}, {"time": 2406, "annotation": {"number": 64, "value": 0}, "group": "control_change"}, {"time": 2412, "annotation": {"number": 64, "value": 127}, "group": "control_change"}, {"time": 2414, "annotation": {"number": 64, "value": 0}, "group": "control_change"}, {"time": 2415, "annotation": {"number": 64, "value": 127}, "group": "control_change"}, {"time": 2437, "annotation": {"number": 64, "value": 0}, "group": "control_change"}, {"time": 2462, "annotation": {"number": 64, "value": 127}, "group": "control_change"}, {"time": 2484, "annotation": {"number": 64, "value": 0}, "group": "control_change"}, {"time": 2488, "annotation": {"number": 64, "value": 127}, "group": "control_change"}, {"time": 2508, "annotation": {"number": 64, "value": 0}, "group": "control_change"}, {"time": 2513, "annotation": {"number": 64, "value": 127}, "group": "control_change"}, {"time": 2531, "annotation": {"number": 64, "value": 0}, "group": "control_change"}, {"time": 2537, "annotation": {"number": 64, "value": 127}, "group": "control_change"}, {"time": 2555, "annotation": {"number": 64, "value": 0}, "group": "control_change"}, {"time": 2559, "annotation": {"number": 64, "value": 127}, "group": "control_change"}, {"time": 2582, "annotation": {"number": 64, "value": 0}, "group": "control_change"}, {"time": 2584, "annotation": {"number": 64, "value": 127}, "group": "control_change"}, {"time": 2605, "annotation": {"number": 64, "value": 0}, "group": "control_change"}, {"time": 2610, "annotation": {"number": 64, "value": 127}, "group": "control_change"}, {"time": 2628, "annotation": {"number": 64, "value": 0}, "group": "control_change"}, {"time": 2632, "annotation": {"number": 64, "value": 127}, "group": "control_change"}, {"time": 2674, "annotation": {"number": 64, "value": 0}, "group": "control_change"}, {"time": 2679, "annotation": {"number": 64, "value": 127}, "group": "control_change"}, {"time": 2699, "annotation": {"number": 64, "value": 0}, "group": "control_change"}, {"time": 2703, "annotation": {"number": 64, "value": 127}, "group": "control_change"}, {"time": 2732, "annotation": {"number": 64, "value": 0}, "group": "control_change"}, {"time": 2739, "annotation": {"number": 64, "value": 127}, "group": "control_change"}, {"time": 2747, "annotation": {"number": 64, "value": 0}, "group": "control_change"}, {"time": 2755, "annotation": {"number": 64, "value": 127}, "group": "control_change"}, {"time": 2771, "annotation": {"number": 64, "value": 0}, "group": "control_change"}, {"time": 2776, "annotation": {"number": 64, "value": 127}, "group": "control_change"}, {"time": 2780, "annotation": {"number": 64, "value": 0}, "group": "control_change"}, {"time": 2787, "annotation": {"number": 64, "value": 127}, "group": "control_change"}, {"time": 2819, "annotation": {"number": 64, "value": 0}, "group": "control_change"}, {"time": 2823, "annotation": {"number": 64, "value": 127}, "group": "control_change"}, {"time": 2866, "annotation": {"number": 64, "value": 0}, "group": "control_change"}, {"time": 2884, "annotation": {"number": 64, "value": 127}, "group": "control_change"}, {"time": 2917, "annotation": {"number": 64, "value": 0}, "group": "control_change"}, {"time": 2925, "annotation": {"number": 64, "value": 127}, "group": "control_change"}, {"time": 2939, "annotation": {"number": 64, "value": 0}, "group": "control_change"}, {"time": 2943, "annotation": {"number": 64, "value": 127}, "group": "control_change"}, {"time": 2964, "annotation": {"number": 64, "value": 0}, "group": "control_change"}, {"time": 2970, "annotation": {"number": 64, "value": 127}, "group": "control_change"}, {"time": 2988, "annotation": {"number": 64, "value": 0}, "group": "control_change"}, {"time": 2994, "annotation": {"number": 64, "value": 127}, "group": "control_change"}, {"time": 3012, "annotation": {"number": 64, "value": 0}, "group": "control_change"}, {"time": 3017, "annotation": {"number": 64, "value": 127}, "group": "control_change"}, {"time": 3040, "annotation": {"number": 64, "value": 0}, "group": "control_change"}, {"time": 3052, "annotation": {"number": 64, "value": 127}, "group": "control_change"}, {"time": 3061, "annotation": {"number": 64, "value": 0}, "group": "control_change"}, {"time": 3066, "annotation": {"number": 64, "value": 127}, "group": "control_change"}, {"time": 3086, "annotation": {"number": 64, "value": 0}, "group": "control_change"}, {"time": 3090, "annotation": {"number": 64, "value": 127}, "group": "control_change"}, {"time": 3096, "annotation": {"number": 64, "value": 0}, "group": "control_change"}, {"time": 3110, "annotation": {"number": 64, "value": 127}, "group": "control_change"}, {"time": 3124, "annotation": {"number": 64, "value": 0}, "group": "control_change"}, {"time": 3131, "annotation": {"number": 64, "value": 127}, "group": "control_change"}, {"time": 3149, "annotation": {"number": 64, "value": 0}, "group": "control_change"}, {"time": 3158, "annotation": {"number": 64, "value": 127}, "group": "control_change"}, {"time": 3173, "annotation": {"number": 64, "value": 0}, "group": "control_change"}, {"time": 3181, "annotation": {"number": 64, "value": 127}, "group": "control_change"}, {"time": 3199, "annotation": {"number": 64, "value": 0}, "group": "control_change"}, {"time": 3199, "annotation": {"number": 64, "value": 127}, "group": "control_change"}, {"time": 3205, "annotation": {"number": 64, "value": 127}, "group": "control_change"}, {"time": 3222, "annotation": {"number": 64, "value": 0}, "group": "control_change"}, {"time": 3228, "annotation": {"number": 64, "value": 127}, "group": "control_change"}, {"time": 3230, "annotation": {"number": 64, "value": 0}, "group": "control_change"}, {"time": 3231, "annotation": {"number": 64, "value": 127}, "group": "control_change"}, {"time": 3253, "annotation": {"number": 64, "value": 0}, "group": "control_change"}, {"time": 3278, "annotation": {"number": 64, "value": 127}, "group": "control_change"}, {"time": 3300, "annotation": {"number": 64, "value": 0}, "group": "control_change"}, {"time": 3304, "annotation": {"number": 64, "value": 127}, "group": "control_change"}, {"time": 3324, "annotation": {"number": 64, "value": 0}, "group": "control_change"}, {"time": 3329, "annotation": {"number": 64, "value": 127}, "group": "control_change"}, {"time": 3347, "annotation": {"number": 64, "value": 0}, "group": "control_change"}, {"time": 3353, "annotation": {"number": 64, "value": 127}, "group": "control_change"}, {"time": 3371, "annotation": {"number": 64, "value": 0}, "group": "control_change"}, {"time": 3375, "annotation": {"number": 64, "value": 127}, "group": "control_change"}, {"time": 3398, "annotation": {"number": 64, "value": 0}, "group": "control_change"}, {"time": 3399, "annotation": {"number": 64, "value": 127}, "group": "control_change"}, {"time": 3423, "annotation": {"number": 64, "value": 0}, "group": "control_change"}, {"time": 3424, "annotation": {"number": 64, "value": 127}, "group": "control_change"}, {"time": 3446, "annotation": {"number": 64, "value": 127}, "group": "control_change"}, {"time": 3449, "annotation": {"number": 64, "value": 0}, "group": "control_change"}, {"time": 3499, "annotation": {"number": 64, "value": 0}, "group": "control_change"}, {"time": 3500, "annotation": {"number": 64, "value": 127}, "group": "control_change"}, {"time": 3560, "annotation": {"number": 64, "value": 0}, "group": "control_change"}]}]}