{"metadata": {"schema_version": "0.2", "title": "None", "source_filename": "258.mid", "source_format": "midi"}, "resolution": 12, "tempos": [{"time": 0, "qpm": 108.00030240084672}], "time_signatures": [{"time": 0, "numerator": 4, "denominator": 4}], "tracks": [{"program": 4, "is_drum": false, "name": "MELODY", "notes": [{"time": 198, "pitch": 70, "duration": 6, "velocity": 48}, {"time": 204, "pitch": 72, "duration": 6, "velocity": 62}, {"time": 210, "pitch": 68, "duration": 12, "velocity": 59}, {"time": 222, "pitch": 65, "duration": 6, "velocity": 61}, {"time": 228, "pitch": 68, "duration": 18, "velocity": 52}, {"time": 246, "pitch": 70, "duration": 6, "velocity": 72}, {"time": 252, "pitch": 70, "duration": 42, "velocity": 74}, {"time": 294, "pitch": 70, "duration": 6, "velocity": 91}, {"time": 300, "pitch": 72, "duration": 6, "velocity": 66}, {"time": 306, "pitch": 68, "duration": 12, "velocity": 69}, {"time": 318, "pitch": 65, "duration": 6, "velocity": 61}, {"time": 324, "pitch": 68, "duration": 18, "velocity": 69}, {"time": 342, "pitch": 72, "duration": 6, "velocity": 86}, {"time": 348, "pitch": 72, "duration": 42, "velocity": 87}, {"time": 390, "pitch": 70, "duration": 6, "velocity": 83}, {"time": 396, "pitch": 72, "duration": 7, "velocity": 62}, {"time": 402, "pitch": 70, "duration": 6, "velocity": 82}, {"time": 408, "pitch": 68, "duration": 6, "velocity": 61}, {"time": 414, "pitch": 68, "duration": 12, "velocity": 61}, {"time": 426, "pitch": 68, "duration": 12, "velocity": 65}, {"time": 438, "pitch": 65, "duration": 12, "velocity": 56}, {"time": 450, "pitch": 63, "duration": 6, "velocity": 54}, {"time": 456, "pitch": 68, "duration": 12, "velocity": 74}, {"time": 468, "pitch": 68, "duration": 30, "velocity": 71}, {"time": 498, "pitch": 72, "duration": 12, "velocity": 89}, {"time": 510, "pitch": 70, "duration": 6, "velocity": 66}, {"time": 516, "pitch": 70, "duration": 18, "velocity": 85}, {"time": 534, "pitch": 68, "duration": 6, "velocity": 85}, {"time": 540, "pitch": 70, "duration": 27, "velocity": 94}, {"time": 582, "pitch": 70, "duration": 6, "velocity": 48}, {"time": 588, "pitch": 72, "duration": 6, "velocity": 62}, {"time": 594, "pitch": 68, "duration": 12, "velocity": 59}, {"time": 606, "pitch": 65, "duration": 6, "velocity": 61}, {"time": 612, "pitch": 68, "duration": 15, "velocity": 52}, {"time": 630, "pitch": 70, "duration": 6, "velocity": 72}, {"time": 636, "pitch": 70, "duration": 18, "velocity": 74}, {"time": 678, "pitch": 70, "duration": 6, "velocity": 91}, {"time": 684, "pitch": 72, "duration": 6, "velocity": 66}, {"time": 690, "pitch": 68, "duration": 12, "velocity": 69}, {"time": 702, "pitch": 65, "duration": 6, "velocity": 61}, {"time": 708, "pitch": 68, "duration": 18, "velocity": 69}, {"time": 726, "pitch": 72, "duration": 6, "velocity": 86}, {"time": 732, "pitch": 72, "duration": 18, "velocity": 87}, {"time": 774, "pitch": 70, "duration": 6, "velocity": 97}, {"time": 780, "pitch": 72, "duration": 6, "velocity": 84}, {"time": 786, "pitch": 70, "duration": 12, "velocity": 82}, {"time": 798, "pitch": 68, "duration": 6, "velocity": 66}, {"time": 804, "pitch": 68, "duration": 12, "velocity": 67}, {"time": 816, "pitch": 75, "duration": 12, "velocity": 89}, {"time": 828, "pitch": 75, "duration": 12, "velocity": 77}, {"time": 840, "pitch": 67, "duration": 12, "velocity": 81}, {"time": 852, "pitch": 68, "duration": 24, "velocity": 79}, {"time": 876, "pitch": 63, "duration": 6, "velocity": 67}, {"time": 882, "pitch": 72, "duration": 12, "velocity": 72}, {"time": 894, "pitch": 70, "duration": 6, "velocity": 87}, {"time": 900, "pitch": 70, "duration": 18, "velocity": 94}, {"time": 918, "pitch": 68, "duration": 7, "velocity": 90}, {"time": 924, "pitch": 70, "duration": 30, "velocity": 98}, {"time": 996, "pitch": 75, "duration": 6, "velocity": 91}, {"time": 1002, "pitch": 77, "duration": 7, "velocity": 87}, {"time": 1008, "pitch": 75, "duration": 6, "velocity": 83}, {"time": 1014, "pitch": 72, "duration": 6, "velocity": 74}, {"time": 1020, "pitch": 70, "duration": 6, "velocity": 68}, {"time": 1026, "pitch": 72, "duration": 18, "velocity": 87}, {"time": 1044, "pitch": 75, "duration": 6, "velocity": 92}, {"time": 1050, "pitch": 77, "duration": 7, "velocity": 80}, {"time": 1056, "pitch": 75, "duration": 6, "velocity": 91}, {"time": 1062, "pitch": 72, "duration": 6, "velocity": 71}, {"time": 1068, "pitch": 68, "duration": 6, "velocity": 66}, {"time": 1074, "pitch": 70, "duration": 18, "velocity": 97}, {"time": 1092, "pitch": 75, "duration": 6, "velocity": 76}, {"time": 1098, "pitch": 77, "duration": 9, "velocity": 81}, {"time": 1104, "pitch": 75, "duration": 7, "velocity": 76}, {"time": 1110, "pitch": 70, "duration": 6, "velocity": 66}, {"time": 1116, "pitch": 67, "duration": 6, "velocity": 62}, {"time": 1122, "pitch": 68, "duration": 6, "velocity": 63}, {"time": 1128, "pitch": 67, "duration": 6, "velocity": 49}, {"time": 1134, "pitch": 68, "duration": 6, "velocity": 63}, {"time": 1140, "pitch": 70, "duration": 6, "velocity": 65}, {"time": 1146, "pitch": 72, "duration": 6, "velocity": 80}, {"time": 1152, "pitch": 70, "duration": 6, "velocity": 66}, {"time": 1158, "pitch": 72, "duration": 6, "velocity": 76}, {"time": 1164, "pitch": 73, "duration": 6, "velocity": 74}, {"time": 1170, "pitch": 75, "duration": 18, "velocity": 93}, {"time": 1188, "pitch": 75, "duration": 6, "velocity": 90}, {"time": 1194, "pitch": 75, "duration": 6, "velocity": 84}, {"time": 1200, "pitch": 77, "duration": 6, "velocity": 85}, {"time": 1206, "pitch": 70, "duration": 6, "velocity": 84}, {"time": 1212, "pitch": 72, "duration": 6, "velocity": 79}, {"time": 1218, "pitch": 68, "duration": 18, "velocity": 82}, {"time": 1236, "pitch": 75, "duration": 6, "velocity": 95}, {"time": 1242, "pitch": 75, "duration": 6, "velocity": 95}, {"time": 1248, "pitch": 77, "duration": 6, "velocity": 89}, {"time": 1254, "pitch": 70, "duration": 6, "velocity": 75}, {"time": 1260, "pitch": 72, "duration": 6, "velocity": 89}, {"time": 1266, "pitch": 68, "duration": 18, "velocity": 96}, {"time": 1284, "pitch": 72, "duration": 6, "velocity": 90}, {"time": 1290, "pitch": 72, "duration": 6, "velocity": 84}, {"time": 1296, "pitch": 72, "duration": 6, "velocity": 87}, {"time": 1302, "pitch": 70, "duration": 6, "velocity": 75}, {"time": 1308, "pitch": 68, "duration": 6, "velocity": 64}, {"time": 1314, "pitch": 70, "duration": 6, "velocity": 77}, {"time": 1320, "pitch": 70, "duration": 6, "velocity": 83}, {"time": 1326, "pitch": 70, "duration": 6, "velocity": 86}, {"time": 1332, "pitch": 72, "duration": 6, "velocity": 64}, {"time": 1338, "pitch": 73, "duration": 6, "velocity": 69}, {"time": 1344, "pitch": 72, "duration": 6, "velocity": 77}, {"time": 1350, "pitch": 70, "duration": 6, "velocity": 77}, {"time": 1356, "pitch": 68, "duration": 6, "velocity": 66}, {"time": 1362, "pitch": 70, "duration": 18, "velocity": 87}, {"time": 1380, "pitch": 75, "duration": 6, "velocity": 96}, {"time": 1386, "pitch": 77, "duration": 6, "velocity": 94}, {"time": 1392, "pitch": 75, "duration": 6, "velocity": 100}, {"time": 1398, "pitch": 72, "duration": 6, "velocity": 90}, {"time": 1404, "pitch": 70, "duration": 6, "velocity": 91}, {"time": 1410, "pitch": 72, "duration": 18, "velocity": 91}, {"time": 1428, "pitch": 75, "duration": 6, "velocity": 97}, {"time": 1434, "pitch": 77, "duration": 6, "velocity": 93}, {"time": 1440, "pitch": 75, "duration": 6, "velocity": 93}, {"time": 1446, "pitch": 72, "duration": 6, "velocity": 68}, {"time": 1452, "pitch": 68, "duration": 6, "velocity": 62}, {"time": 1458, "pitch": 70, "duration": 18, "velocity": 96}, {"time": 1476, "pitch": 75, "duration": 6, "velocity": 97}, {"time": 1482, "pitch": 77, "duration": 6, "velocity": 91}, {"time": 1488, "pitch": 75, "duration": 6, "velocity": 80}, {"time": 1494, "pitch": 70, "duration": 6, "velocity": 66}, {"time": 1500, "pitch": 67, "duration": 6, "velocity": 62}, {"time": 1506, "pitch": 68, "duration": 6, "velocity": 63}, {"time": 1512, "pitch": 67, "duration": 6, "velocity": 62}, {"time": 1518, "pitch": 68, "duration": 6, "velocity": 68}, {"time": 1524, "pitch": 70, "duration": 6, "velocity": 83}, {"time": 1530, "pitch": 72, "duration": 6, "velocity": 79}, {"time": 1536, "pitch": 70, "duration": 7, "velocity": 67}, {"time": 1542, "pitch": 72, "duration": 6, "velocity": 74}, {"time": 1548, "pitch": 79, "duration": 12, "velocity": 66}, {"time": 1560, "pitch": 75, "duration": 12, "velocity": 90}, {"time": 1572, "pitch": 75, "duration": 6, "velocity": 100}, {"time": 1578, "pitch": 75, "duration": 6, "velocity": 91}, {"time": 1584, "pitch": 77, "duration": 6, "velocity": 95}, {"time": 1590, "pitch": 70, "duration": 6, "velocity": 87}, {"time": 1596, "pitch": 72, "duration": 6, "velocity": 85}, {"time": 1602, "pitch": 68, "duration": 18, "velocity": 94}, {"time": 1620, "pitch": 75, "duration": 6, "velocity": 90}, {"time": 1626, "pitch": 75, "duration": 6, "velocity": 89}, {"time": 1632, "pitch": 75, "duration": 6, "velocity": 86}, {"time": 1638, "pitch": 70, "duration": 6, "velocity": 84}, {"time": 1644, "pitch": 72, "duration": 6, "velocity": 93}, {"time": 1650, "pitch": 68, "duration": 18, "velocity": 93}, {"time": 1668, "pitch": 72, "duration": 6, "velocity": 73}, {"time": 1674, "pitch": 72, "duration": 6, "velocity": 56}, {"time": 1680, "pitch": 72, "duration": 6, "velocity": 84}, {"time": 1686, "pitch": 70, "duration": 6, "velocity": 73}, {"time": 1692, "pitch": 68, "duration": 6, "velocity": 66}, {"time": 1698, "pitch": 70, "duration": 12, "velocity": 81}, {"time": 1710, "pitch": 70, "duration": 6, "velocity": 91}, {"time": 1716, "pitch": 72, "duration": 6, "velocity": 79}, {"time": 1722, "pitch": 73, "duration": 6, "velocity": 80}, {"time": 1728, "pitch": 72, "duration": 6, "velocity": 74}, {"time": 1734, "pitch": 70, "duration": 6, "velocity": 69}, {"time": 1740, "pitch": 68, "duration": 6, "velocity": 66}, {"time": 1746, "pitch": 70, "duration": 18, "velocity": 90}, {"time": 1764, "pitch": 63, "duration": 6, "velocity": 66}, {"time": 1770, "pitch": 72, "duration": 24, "velocity": 91}, {"time": 1794, "pitch": 70, "duration": 12, "velocity": 97}, {"time": 1806, "pitch": 68, "duration": 42, "velocity": 93}, {"time": 2262, "pitch": 70, "duration": 6, "velocity": 48}, {"time": 2268, "pitch": 72, "duration": 6, "velocity": 62}, {"time": 2274, "pitch": 68, "duration": 12, "velocity": 59}, {"time": 2286, "pitch": 65, "duration": 6, "velocity": 61}, {"time": 2292, "pitch": 68, "duration": 18, "velocity": 52}, {"time": 2310, "pitch": 70, "duration": 6, "velocity": 72}, {"time": 2316, "pitch": 70, "duration": 42, "velocity": 74}, {"time": 2358, "pitch": 70, "duration": 6, "velocity": 91}, {"time": 2364, "pitch": 72, "duration": 6, "velocity": 66}, {"time": 2370, "pitch": 68, "duration": 12, "velocity": 69}, {"time": 2382, "pitch": 65, "duration": 6, "velocity": 61}, {"time": 2388, "pitch": 68, "duration": 18, "velocity": 69}, {"time": 2406, "pitch": 72, "duration": 6, "velocity": 86}, {"time": 2412, "pitch": 72, "duration": 42, "velocity": 87}, {"time": 2454, "pitch": 70, "duration": 6, "velocity": 83}, {"time": 2460, "pitch": 72, "duration": 7, "velocity": 62}, {"time": 2466, "pitch": 70, "duration": 12, "velocity": 82}, {"time": 2478, "pitch": 68, "duration": 6, "velocity": 61}, {"time": 2484, "pitch": 68, "duration": 12, "velocity": 61}, {"time": 2496, "pitch": 75, "duration": 12, "velocity": 65}, {"time": 2508, "pitch": 75, "duration": 6, "velocity": 56}, {"time": 2514, "pitch": 63, "duration": 6, "velocity": 54}, {"time": 2520, "pitch": 72, "duration": 6, "velocity": 74}, {"time": 2526, "pitch": 70, "duration": 6, "velocity": 74}, {"time": 2532, "pitch": 68, "duration": 24, "velocity": 71}, {"time": 2556, "pitch": 63, "duration": 6, "velocity": 71}, {"time": 2562, "pitch": 72, "duration": 12, "velocity": 89}, {"time": 2574, "pitch": 70, "duration": 6, "velocity": 66}, {"time": 2580, "pitch": 70, "duration": 18, "velocity": 85}, {"time": 2598, "pitch": 68, "duration": 6, "velocity": 85}, {"time": 2604, "pitch": 70, "duration": 24, "velocity": 94}, {"time": 2628, "pitch": 75, "duration": 6, "velocity": 96}, {"time": 2634, "pitch": 77, "duration": 6, "velocity": 94}, {"time": 2640, "pitch": 75, "duration": 6, "velocity": 100}, {"time": 2646, "pitch": 72, "duration": 6, "velocity": 90}, {"time": 2652, "pitch": 70, "duration": 6, "velocity": 91}, {"time": 2658, "pitch": 72, "duration": 18, "velocity": 91}, {"time": 2676, "pitch": 75, "duration": 6, "velocity": 97}, {"time": 2682, "pitch": 77, "duration": 6, "velocity": 93}, {"time": 2688, "pitch": 75, "duration": 6, "velocity": 93}, {"time": 2694, "pitch": 72, "duration": 6, "velocity": 68}, {"time": 2700, "pitch": 68, "duration": 6, "velocity": 62}, {"time": 2706, "pitch": 70, "duration": 18, "velocity": 96}, {"time": 2724, "pitch": 75, "duration": 6, "velocity": 97}, {"time": 2730, "pitch": 77, "duration": 6, "velocity": 91}, {"time": 2736, "pitch": 75, "duration": 6, "velocity": 80}, {"time": 2742, "pitch": 70, "duration": 6, "velocity": 66}, {"time": 2748, "pitch": 67, "duration": 6, "velocity": 62}, {"time": 2754, "pitch": 68, "duration": 6, "velocity": 63}, {"time": 2760, "pitch": 67, "duration": 6, "velocity": 62}, {"time": 2766, "pitch": 68, "duration": 6, "velocity": 68}, {"time": 2772, "pitch": 70, "duration": 6, "velocity": 83}, {"time": 2778, "pitch": 72, "duration": 6, "velocity": 79}, {"time": 2784, "pitch": 70, "duration": 7, "velocity": 67}, {"time": 2790, "pitch": 72, "duration": 6, "velocity": 74}, {"time": 2796, "pitch": 73, "duration": 6, "velocity": 66}, {"time": 2802, "pitch": 75, "duration": 18, "velocity": 90}, {"time": 2820, "pitch": 75, "duration": 6, "velocity": 100}, {"time": 2826, "pitch": 75, "duration": 6, "velocity": 91}, {"time": 2832, "pitch": 77, "duration": 6, "velocity": 95}, {"time": 2838, "pitch": 70, "duration": 6, "velocity": 87}, {"time": 2844, "pitch": 72, "duration": 6, "velocity": 85}, {"time": 2850, "pitch": 68, "duration": 18, "velocity": 94}, {"time": 2868, "pitch": 75, "duration": 6, "velocity": 90}, {"time": 2874, "pitch": 75, "duration": 6, "velocity": 89}, {"time": 2880, "pitch": 75, "duration": 6, "velocity": 86}, {"time": 2886, "pitch": 70, "duration": 6, "velocity": 84}, {"time": 2892, "pitch": 72, "duration": 6, "velocity": 93}, {"time": 2898, "pitch": 68, "duration": 18, "velocity": 93}, {"time": 2916, "pitch": 72, "duration": 6, "velocity": 73}, {"time": 2922, "pitch": 72, "duration": 6, "velocity": 56}, {"time": 2928, "pitch": 72, "duration": 6, "velocity": 84}, {"time": 2934, "pitch": 70, "duration": 6, "velocity": 73}, {"time": 2940, "pitch": 68, "duration": 6, "velocity": 66}, {"time": 2946, "pitch": 70, "duration": 6, "velocity": 81}, {"time": 2952, "pitch": 70, "duration": 6, "velocity": 81}, {"time": 2958, "pitch": 70, "duration": 6, "velocity": 91}, {"time": 2964, "pitch": 72, "duration": 6, "velocity": 79}, {"time": 2970, "pitch": 73, "duration": 6, "velocity": 80}, {"time": 2976, "pitch": 72, "duration": 6, "velocity": 74}, {"time": 2982, "pitch": 70, "duration": 6, "velocity": 69}, {"time": 2988, "pitch": 68, "duration": 6, "velocity": 66}, {"time": 2994, "pitch": 70, "duration": 18, "velocity": 90}, {"time": 3012, "pitch": 75, "duration": 6, "velocity": 96}, {"time": 3018, "pitch": 77, "duration": 6, "velocity": 94}, {"time": 3024, "pitch": 75, "duration": 6, "velocity": 100}, {"time": 3030, "pitch": 72, "duration": 6, "velocity": 90}, {"time": 3036, "pitch": 70, "duration": 6, "velocity": 91}, {"time": 3042, "pitch": 72, "duration": 18, "velocity": 91}, {"time": 3060, "pitch": 75, "duration": 6, "velocity": 97}, {"time": 3066, "pitch": 77, "duration": 6, "velocity": 93}, {"time": 3072, "pitch": 75, "duration": 6, "velocity": 93}, {"time": 3078, "pitch": 72, "duration": 6, "velocity": 68}, {"time": 3084, "pitch": 68, "duration": 6, "velocity": 62}, {"time": 3090, "pitch": 70, "duration": 18, "velocity": 96}, {"time": 3108, "pitch": 75, "duration": 6, "velocity": 97}, {"time": 3114, "pitch": 77, "duration": 6, "velocity": 91}, {"time": 3120, "pitch": 75, "duration": 6, "velocity": 80}, {"time": 3126, "pitch": 70, "duration": 6, "velocity": 66}, {"time": 3132, "pitch": 67, "duration": 6, "velocity": 62}, {"time": 3138, "pitch": 68, "duration": 6, "velocity": 63}, {"time": 3144, "pitch": 67, "duration": 6, "velocity": 62}, {"time": 3150, "pitch": 68, "duration": 6, "velocity": 68}, {"time": 3156, "pitch": 70, "duration": 6, "velocity": 83}, {"time": 3162, "pitch": 72, "duration": 6, "velocity": 79}, {"time": 3168, "pitch": 70, "duration": 7, "velocity": 67}, {"time": 3174, "pitch": 72, "duration": 6, "velocity": 74}, {"time": 3180, "pitch": 79, "duration": 12, "velocity": 66}, {"time": 3192, "pitch": 75, "duration": 12, "velocity": 90}, {"time": 3204, "pitch": 75, "duration": 6, "velocity": 100}, {"time": 3210, "pitch": 75, "duration": 6, "velocity": 91}, {"time": 3216, "pitch": 77, "duration": 6, "velocity": 95}, {"time": 3222, "pitch": 70, "duration": 6, "velocity": 87}, {"time": 3228, "pitch": 72, "duration": 6, "velocity": 85}, {"time": 3234, "pitch": 68, "duration": 18, "velocity": 94}, {"time": 3252, "pitch": 75, "duration": 6, "velocity": 90}, {"time": 3258, "pitch": 75, "duration": 6, "velocity": 89}, {"time": 3264, "pitch": 75, "duration": 6, "velocity": 86}, {"time": 3270, "pitch": 70, "duration": 6, "velocity": 84}, {"time": 3276, "pitch": 72, "duration": 6, "velocity": 93}, {"time": 3282, "pitch": 68, "duration": 18, "velocity": 93}, {"time": 3300, "pitch": 72, "duration": 6, "velocity": 73}, {"time": 3306, "pitch": 72, "duration": 6, "velocity": 56}, {"time": 3312, "pitch": 72, "duration": 6, "velocity": 84}, {"time": 3318, "pitch": 70, "duration": 6, "velocity": 73}, {"time": 3324, "pitch": 68, "duration": 6, "velocity": 66}, {"time": 3330, "pitch": 70, "duration": 12, "velocity": 81}, {"time": 3342, "pitch": 70, "duration": 6, "velocity": 91}, {"time": 3348, "pitch": 72, "duration": 6, "velocity": 79}, {"time": 3354, "pitch": 73, "duration": 6, "velocity": 80}, {"time": 3360, "pitch": 72, "duration": 6, "velocity": 74}, {"time": 3366, "pitch": 70, "duration": 6, "velocity": 69}, {"time": 3372, "pitch": 68, "duration": 6, "velocity": 66}, {"time": 3378, "pitch": 70, "duration": 18, "velocity": 90}, {"time": 3396, "pitch": 63, "duration": 6, "velocity": 66}, {"time": 3402, "pitch": 72, "duration": 18, "velocity": 91}, {"time": 3420, "pitch": 70, "duration": 12, "velocity": 97}, {"time": 3432, "pitch": 68, "duration": 42, "velocity": 93}, {"time": 3780, "pitch": 75, "duration": 6, "velocity": 96}, {"time": 3786, "pitch": 77, "duration": 6, "velocity": 94}, {"time": 3792, "pitch": 75, "duration": 6, "velocity": 100}, {"time": 3798, "pitch": 72, "duration": 6, "velocity": 90}, {"time": 3804, "pitch": 70, "duration": 6, "velocity": 91}, {"time": 3810, "pitch": 72, "duration": 18, "velocity": 91}, {"time": 3828, "pitch": 75, "duration": 6, "velocity": 97}, {"time": 3834, "pitch": 77, "duration": 6, "velocity": 93}, {"time": 3840, "pitch": 75, "duration": 6, "velocity": 93}, {"time": 3846, "pitch": 72, "duration": 6, "velocity": 68}, {"time": 3852, "pitch": 68, "duration": 6, "velocity": 62}, {"time": 3858, "pitch": 70, "duration": 18, "velocity": 96}, {"time": 3876, "pitch": 75, "duration": 6, "velocity": 97}, {"time": 3882, "pitch": 77, "duration": 6, "velocity": 91}, {"time": 3888, "pitch": 75, "duration": 6, "velocity": 80}, {"time": 3894, "pitch": 70, "duration": 6, "velocity": 66}, {"time": 3900, "pitch": 67, "duration": 6, "velocity": 62}, {"time": 3906, "pitch": 68, "duration": 6, "velocity": 63}, {"time": 3912, "pitch": 67, "duration": 6, "velocity": 62}, {"time": 3918, "pitch": 68, "duration": 6, "velocity": 68}, {"time": 3924, "pitch": 70, "duration": 6, "velocity": 83}, {"time": 3930, "pitch": 72, "duration": 6, "velocity": 79}, {"time": 3936, "pitch": 70, "duration": 6, "velocity": 67}, {"time": 3942, "pitch": 72, "duration": 6, "velocity": 74}, {"time": 3948, "pitch": 73, "duration": 6, "velocity": 66}, {"time": 3954, "pitch": 75, "duration": 18, "velocity": 90}, {"time": 3972, "pitch": 75, "duration": 6, "velocity": 100}, {"time": 3978, "pitch": 75, "duration": 6, "velocity": 91}, {"time": 3984, "pitch": 77, "duration": 6, "velocity": 95}, {"time": 3990, "pitch": 70, "duration": 6, "velocity": 87}, {"time": 3996, "pitch": 72, "duration": 6, "velocity": 85}, {"time": 4002, "pitch": 68, "duration": 18, "velocity": 94}, {"time": 4020, "pitch": 75, "duration": 6, "velocity": 90}, {"time": 4026, "pitch": 75, "duration": 6, "velocity": 89}, {"time": 4032, "pitch": 75, "duration": 6, "velocity": 86}, {"time": 4038, "pitch": 70, "duration": 6, "velocity": 84}, {"time": 4044, "pitch": 72, "duration": 6, "velocity": 93}, {"time": 4050, "pitch": 68, "duration": 18, "velocity": 93}, {"time": 4068, "pitch": 72, "duration": 6, "velocity": 73}, {"time": 4074, "pitch": 72, "duration": 6, "velocity": 56}, {"time": 4080, "pitch": 72, "duration": 6, "velocity": 84}, {"time": 4086, "pitch": 70, "duration": 6, "velocity": 73}, {"time": 4092, "pitch": 68, "duration": 6, "velocity": 66}, {"time": 4098, "pitch": 70, "duration": 6, "velocity": 81}, {"time": 4104, "pitch": 70, "duration": 6, "velocity": 81}, {"time": 4110, "pitch": 70, "duration": 6, "velocity": 91}, {"time": 4116, "pitch": 72, "duration": 6, "velocity": 79}, {"time": 4122, "pitch": 73, "duration": 6, "velocity": 80}, {"time": 4128, "pitch": 75, "duration": 6, "velocity": 74}, {"time": 4134, "pitch": 72, "duration": 6, "velocity": 69}, {"time": 4140, "pitch": 68, "duration": 6, "velocity": 66}, {"time": 4146, "pitch": 70, "duration": 18, "velocity": 90}, {"time": 4164, "pitch": 75, "duration": 6, "velocity": 96}, {"time": 4170, "pitch": 77, "duration": 6, "velocity": 94}, {"time": 4176, "pitch": 75, "duration": 6, "velocity": 100}, {"time": 4182, "pitch": 72, "duration": 6, "velocity": 90}, {"time": 4188, "pitch": 70, "duration": 6, "velocity": 91}, {"time": 4194, "pitch": 72, "duration": 18, "velocity": 91}, {"time": 4212, "pitch": 75, "duration": 6, "velocity": 97}, {"time": 4218, "pitch": 77, "duration": 6, "velocity": 93}, {"time": 4224, "pitch": 75, "duration": 6, "velocity": 93}, {"time": 4230, "pitch": 72, "duration": 6, "velocity": 68}, {"time": 4236, "pitch": 68, "duration": 6, "velocity": 62}, {"time": 4242, "pitch": 70, "duration": 18, "velocity": 96}, {"time": 4260, "pitch": 75, "duration": 6, "velocity": 97}, {"time": 4266, "pitch": 77, "duration": 6, "velocity": 91}, {"time": 4272, "pitch": 75, "duration": 6, "velocity": 80}, {"time": 4278, "pitch": 70, "duration": 6, "velocity": 66}, {"time": 4284, "pitch": 67, "duration": 6, "velocity": 62}, {"time": 4290, "pitch": 68, "duration": 6, "velocity": 63}, {"time": 4296, "pitch": 67, "duration": 6, "velocity": 62}, {"time": 4302, "pitch": 68, "duration": 6, "velocity": 68}, {"time": 4308, "pitch": 70, "duration": 6, "velocity": 83}, {"time": 4314, "pitch": 72, "duration": 6, "velocity": 79}, {"time": 4320, "pitch": 70, "duration": 7, "velocity": 67}, {"time": 4326, "pitch": 72, "duration": 6, "velocity": 74}, {"time": 4332, "pitch": 79, "duration": 12, "velocity": 66}, {"time": 4344, "pitch": 75, "duration": 12, "velocity": 90}, {"time": 4356, "pitch": 75, "duration": 6, "velocity": 100}, {"time": 4362, "pitch": 75, "duration": 6, "velocity": 91}, {"time": 4368, "pitch": 75, "duration": 6, "velocity": 95}, {"time": 4374, "pitch": 70, "duration": 6, "velocity": 87}, {"time": 4380, "pitch": 72, "duration": 6, "velocity": 85}, {"time": 4386, "pitch": 68, "duration": 18, "velocity": 94}, {"time": 4404, "pitch": 75, "duration": 6, "velocity": 90}, {"time": 4410, "pitch": 75, "duration": 6, "velocity": 89}, {"time": 4416, "pitch": 75, "duration": 6, "velocity": 86}, {"time": 4422, "pitch": 70, "duration": 6, "velocity": 84}, {"time": 4428, "pitch": 72, "duration": 6, "velocity": 93}, {"time": 4434, "pitch": 68, "duration": 18, "velocity": 93}, {"time": 4452, "pitch": 72, "duration": 6, "velocity": 73}, {"time": 4458, "pitch": 72, "duration": 6, "velocity": 56}, {"time": 4464, "pitch": 72, "duration": 6, "velocity": 84}, {"time": 4470, "pitch": 70, "duration": 6, "velocity": 73}, {"time": 4476, "pitch": 68, "duration": 6, "velocity": 66}, {"time": 4482, "pitch": 70, "duration": 12, "velocity": 81}, {"time": 4494, "pitch": 70, "duration": 6, "velocity": 91}, {"time": 4500, "pitch": 72, "duration": 6, "velocity": 79}, {"time": 4506, "pitch": 73, "duration": 6, "velocity": 80}, {"time": 4512, "pitch": 72, "duration": 6, "velocity": 74}, {"time": 4518, "pitch": 70, "duration": 6, "velocity": 69}, {"time": 4524, "pitch": 68, "duration": 6, "velocity": 66}, {"time": 4530, "pitch": 70, "duration": 18, "velocity": 90}, {"time": 4548, "pitch": 63, "duration": 6, "velocity": 66}, {"time": 4554, "pitch": 72, "duration": 24, "velocity": 91}, {"time": 4578, "pitch": 70, "duration": 12, "velocity": 97}, {"time": 4590, "pitch": 68, "duration": 45, "velocity": 93}], "annotations": [{"time": 1266, "annotation": {"number": 1, "value": 98}, "group": "control_change"}]}, {"program": 0, "is_drum": false, "name": "PIANO", "notes": [{"time": 18, "pitch": 44, "duration": 39, "velocity": 71}, {"time": 18, "pitch": 56, "duration": 12, "velocity": 68}, {"time": 18, "pitch": 60, "duration": 12, "velocity": 79}, {"time": 18, "pitch": 63, "duration": 13, "velocity": 76}, {"time": 30, "pitch": 51, "duration": 12, "velocity": 58}, {"time": 42, "pitch": 56, "duration": 13, "velocity": 34}, {"time": 42, "pitch": 60, "duration": 11, "velocity": 71}, {"time": 42, "pitch": 63, "duration": 13, "velocity": 73}, {"time": 54, "pitch": 51, "duration": 12, "velocity": 63}, {"time": 66, "pitch": 44, "duration": 38, "velocity": 68}, {"time": 66, "pitch": 56, "duration": 13, "velocity": 57}, {"time": 66, "pitch": 61, "duration": 13, "velocity": 75}, {"time": 66, "pitch": 65, "duration": 13, "velocity": 70}, {"time": 78, "pitch": 53, "duration": 35, "velocity": 56}, {"time": 90, "pitch": 56, "duration": 15, "velocity": 45}, {"time": 90, "pitch": 61, "duration": 13, "velocity": 61}, {"time": 90, "pitch": 65, "duration": 15, "velocity": 58}, {"time": 114, "pitch": 44, "duration": 42, "velocity": 67}, {"time": 114, "pitch": 56, "duration": 11, "velocity": 56}, {"time": 114, "pitch": 60, "duration": 11, "velocity": 75}, {"time": 114, "pitch": 63, "duration": 12, "velocity": 75}, {"time": 126, "pitch": 51, "duration": 13, "velocity": 56}, {"time": 138, "pitch": 56, "duration": 12, "velocity": 33}, {"time": 138, "pitch": 60, "duration": 13, "velocity": 58}, {"time": 138, "pitch": 63, "duration": 14, "velocity": 73}, {"time": 150, "pitch": 51, "duration": 13, "velocity": 58}, {"time": 159, "pitch": 55, "duration": 34, "velocity": 60}, {"time": 159, "pitch": 58, "duration": 32, "velocity": 75}, {"time": 162, "pitch": 63, "duration": 31, "velocity": 80}, {"time": 210, "pitch": 56, "duration": 31, "velocity": 55}, {"time": 210, "pitch": 63, "duration": 15, "velocity": 72}, {"time": 210, "pitch": 68, "duration": 13, "velocity": 76}, {"time": 210, "pitch": 72, "duration": 12, "velocity": 78}, {"time": 234, "pitch": 63, "duration": 13, "velocity": 72}, {"time": 234, "pitch": 68, "duration": 11, "velocity": 75}, {"time": 234, "pitch": 72, "duration": 13, "velocity": 80}, {"time": 246, "pitch": 56, "duration": 2, "velocity": 54}, {"time": 258, "pitch": 43, "duration": 40, "velocity": 69}, {"time": 258, "pitch": 55, "duration": 33, "velocity": 77}, {"time": 258, "pitch": 63, "duration": 18, "velocity": 63}, {"time": 258, "pitch": 67, "duration": 19, "velocity": 79}, {"time": 258, "pitch": 70, "duration": 19, "velocity": 76}, {"time": 282, "pitch": 63, "duration": 14, "velocity": 62}, {"time": 282, "pitch": 67, "duration": 13, "velocity": 76}, {"time": 282, "pitch": 70, "duration": 14, "velocity": 73}, {"time": 294, "pitch": 55, "duration": 2, "velocity": 72}, {"time": 306, "pitch": 41, "duration": 34, "velocity": 78}, {"time": 306, "pitch": 53, "duration": 11, "velocity": 78}, {"time": 306, "pitch": 63, "duration": 15, "velocity": 79}, {"time": 306, "pitch": 68, "duration": 13, "velocity": 79}, {"time": 306, "pitch": 72, "duration": 11, "velocity": 82}, {"time": 324, "pitch": 53, "duration": 12, "velocity": 56}, {"time": 330, "pitch": 63, "duration": 13, "velocity": 80}, {"time": 330, "pitch": 68, "duration": 13, "velocity": 79}, {"time": 330, "pitch": 72, "duration": 11, "velocity": 80}, {"time": 342, "pitch": 53, "duration": 2, "velocity": 71}, {"time": 354, "pitch": 51, "duration": 38, "velocity": 72}, {"time": 354, "pitch": 63, "duration": 15, "velocity": 72}, {"time": 354, "pitch": 67, "duration": 15, "velocity": 83}, {"time": 354, "pitch": 72, "duration": 13, "velocity": 82}, {"time": 366, "pitch": 60, "duration": 13, "velocity": 30}, {"time": 378, "pitch": 63, "duration": 13, "velocity": 69}, {"time": 378, "pitch": 67, "duration": 13, "velocity": 81}, {"time": 378, "pitch": 72, "duration": 13, "velocity": 76}, {"time": 390, "pitch": 60, "duration": 3, "velocity": 73}, {"time": 396, "pitch": 68, "duration": 4, "velocity": 79}, {"time": 402, "pitch": 49, "duration": 36, "velocity": 80}, {"time": 402, "pitch": 63, "duration": 14, "velocity": 72}, {"time": 402, "pitch": 65, "duration": 14, "velocity": 76}, {"time": 402, "pitch": 68, "duration": 14, "velocity": 71}, {"time": 414, "pitch": 56, "duration": 14, "velocity": 37}, {"time": 426, "pitch": 61, "duration": 10, "velocity": 49}, {"time": 426, "pitch": 63, "duration": 13, "velocity": 75}, {"time": 426, "pitch": 65, "duration": 13, "velocity": 76}, {"time": 426, "pitch": 68, "duration": 13, "velocity": 79}, {"time": 438, "pitch": 56, "duration": 4, "velocity": 50}, {"time": 450, "pitch": 44, "duration": 32, "velocity": 73}, {"time": 450, "pitch": 56, "duration": 35, "velocity": 60}, {"time": 450, "pitch": 63, "duration": 20, "velocity": 73}, {"time": 450, "pitch": 68, "duration": 20, "velocity": 76}, {"time": 450, "pitch": 72, "duration": 19, "velocity": 79}, {"time": 474, "pitch": 63, "duration": 12, "velocity": 78}, {"time": 474, "pitch": 68, "duration": 11, "velocity": 80}, {"time": 474, "pitch": 72, "duration": 10, "velocity": 83}, {"time": 498, "pitch": 49, "duration": 35, "velocity": 58}, {"time": 498, "pitch": 56, "duration": 34, "velocity": 63}, {"time": 498, "pitch": 61, "duration": 32, "velocity": 57}, {"time": 498, "pitch": 63, "duration": 17, "velocity": 68}, {"time": 498, "pitch": 65, "duration": 20, "velocity": 71}, {"time": 498, "pitch": 68, "duration": 20, "velocity": 75}, {"time": 498, "pitch": 73, "duration": 20, "velocity": 73}, {"time": 522, "pitch": 65, "duration": 13, "velocity": 77}, {"time": 522, "pitch": 68, "duration": 13, "velocity": 75}, {"time": 522, "pitch": 73, "duration": 10, "velocity": 68}, {"time": 546, "pitch": 39, "duration": 36, "velocity": 76}, {"time": 546, "pitch": 51, "duration": 11, "velocity": 68}, {"time": 546, "pitch": 61, "duration": 11, "velocity": 75}, {"time": 546, "pitch": 65, "duration": 15, "velocity": 80}, {"time": 546, "pitch": 68, "duration": 12, "velocity": 77}, {"time": 564, "pitch": 51, "duration": 9, "velocity": 53}, {"time": 570, "pitch": 63, "duration": 11, "velocity": 79}, {"time": 570, "pitch": 67, "duration": 12, "velocity": 84}, {"time": 570, "pitch": 70, "duration": 12, "velocity": 80}, {"time": 582, "pitch": 51, "duration": 2, "velocity": 72}, {"time": 594, "pitch": 44, "duration": 42, "velocity": 84}, {"time": 594, "pitch": 63, "duration": 10, "velocity": 75}, {"time": 594, "pitch": 68, "duration": 12, "velocity": 80}, {"time": 594, "pitch": 72, "duration": 15, "velocity": 86}, {"time": 600, "pitch": 56, "duration": 21, "velocity": 57}, {"time": 606, "pitch": 63, "duration": 7, "velocity": 59}, {"time": 612, "pitch": 68, "duration": 6, "velocity": 71}, {"time": 618, "pitch": 63, "duration": 9, "velocity": 79}, {"time": 618, "pitch": 68, "duration": 10, "velocity": 58}, {"time": 618, "pitch": 72, "duration": 10, "velocity": 80}, {"time": 624, "pitch": 56, "duration": 10, "velocity": 51}, {"time": 630, "pitch": 63, "duration": 5, "velocity": 58}, {"time": 636, "pitch": 72, "duration": 4, "velocity": 84}, {"time": 642, "pitch": 43, "duration": 45, "velocity": 47}, {"time": 642, "pitch": 63, "duration": 14, "velocity": 77}, {"time": 642, "pitch": 67, "duration": 11, "velocity": 84}, {"time": 642, "pitch": 70, "duration": 12, "velocity": 77}, {"time": 654, "pitch": 55, "duration": 14, "velocity": 57}, {"time": 660, "pitch": 63, "duration": 4, "velocity": 71}, {"time": 666, "pitch": 63, "duration": 8, "velocity": 80}, {"time": 666, "pitch": 70, "duration": 10, "velocity": 81}, {"time": 672, "pitch": 55, "duration": 6, "velocity": 63}, {"time": 678, "pitch": 67, "duration": 5, "velocity": 75}, {"time": 684, "pitch": 72, "duration": 4, "velocity": 80}, {"time": 690, "pitch": 41, "duration": 35, "velocity": 83}, {"time": 690, "pitch": 63, "duration": 9, "velocity": 75}, {"time": 690, "pitch": 68, "duration": 9, "velocity": 81}, {"time": 690, "pitch": 72, "duration": 10, "velocity": 62}, {"time": 696, "pitch": 53, "duration": 19, "velocity": 56}, {"time": 702, "pitch": 63, "duration": 4, "velocity": 69}, {"time": 708, "pitch": 63, "duration": 14, "velocity": 76}, {"time": 708, "pitch": 68, "duration": 13, "velocity": 79}, {"time": 720, "pitch": 53, "duration": 8, "velocity": 63}, {"time": 726, "pitch": 63, "duration": 5, "velocity": 78}, {"time": 726, "pitch": 68, "duration": 6, "velocity": 80}, {"time": 732, "pitch": 70, "duration": 4, "velocity": 72}, {"time": 738, "pitch": 51, "duration": 41, "velocity": 76}, {"time": 738, "pitch": 63, "duration": 8, "velocity": 78}, {"time": 738, "pitch": 67, "duration": 8, "velocity": 83}, {"time": 738, "pitch": 70, "duration": 8, "velocity": 76}, {"time": 744, "pitch": 60, "duration": 17, "velocity": 39}, {"time": 750, "pitch": 63, "duration": 20, "velocity": 69}, {"time": 756, "pitch": 67, "duration": 12, "velocity": 79}, {"time": 756, "pitch": 75, "duration": 12, "velocity": 82}, {"time": 768, "pitch": 60, "duration": 9, "velocity": 79}, {"time": 774, "pitch": 63, "duration": 6, "velocity": 75}, {"time": 774, "pitch": 68, "duration": 5, "velocity": 75}, {"time": 780, "pitch": 67, "duration": 4, "velocity": 79}, {"time": 786, "pitch": 49, "duration": 37, "velocity": 82}, {"time": 786, "pitch": 65, "duration": 12, "velocity": 79}, {"time": 786, "pitch": 68, "duration": 13, "velocity": 82}, {"time": 792, "pitch": 56, "duration": 31, "velocity": 75}, {"time": 798, "pitch": 61, "duration": 11, "velocity": 63}, {"time": 804, "pitch": 63, "duration": 11, "velocity": 78}, {"time": 804, "pitch": 65, "duration": 12, "velocity": 78}, {"time": 804, "pitch": 68, "duration": 11, "velocity": 75}, {"time": 816, "pitch": 61, "duration": 5, "velocity": 60}, {"time": 822, "pitch": 63, "duration": 5, "velocity": 76}, {"time": 828, "pitch": 67, "duration": 5, "velocity": 63}, {"time": 834, "pitch": 48, "duration": 11, "velocity": 86}, {"time": 834, "pitch": 63, "duration": 8, "velocity": 76}, {"time": 834, "pitch": 67, "duration": 8, "velocity": 83}, {"time": 834, "pitch": 70, "duration": 8, "velocity": 80}, {"time": 840, "pitch": 60, "duration": 12, "velocity": 69}, {"time": 846, "pitch": 63, "duration": 6, "velocity": 80}, {"time": 852, "pitch": 72, "duration": 13, "velocity": 84}, {"time": 858, "pitch": 53, "duration": 15, "velocity": 81}, {"time": 858, "pitch": 63, "duration": 10, "velocity": 79}, {"time": 858, "pitch": 68, "duration": 9, "velocity": 82}, {"time": 864, "pitch": 60, "duration": 8, "velocity": 78}, {"time": 870, "pitch": 68, "duration": 7, "velocity": 79}, {"time": 876, "pitch": 70, "duration": 3, "velocity": 78}, {"time": 882, "pitch": 46, "duration": 39, "velocity": 80}, {"time": 882, "pitch": 61, "duration": 9, "velocity": 78}, {"time": 882, "pitch": 65, "duration": 10, "velocity": 79}, {"time": 882, "pitch": 70, "duration": 8, "velocity": 79}, {"time": 888, "pitch": 58, "duration": 15, "velocity": 62}, {"time": 894, "pitch": 61, "duration": 5, "velocity": 83}, {"time": 900, "pitch": 61, "duration": 14, "velocity": 54}, {"time": 900, "pitch": 65, "duration": 14, "velocity": 84}, {"time": 900, "pitch": 70, "duration": 14, "velocity": 83}, {"time": 912, "pitch": 58, "duration": 8, "velocity": 69}, {"time": 918, "pitch": 61, "duration": 7, "velocity": 82}, {"time": 918, "pitch": 70, "duration": 2, "velocity": 69}, {"time": 924, "pitch": 70, "duration": 4, "velocity": 78}, {"time": 930, "pitch": 39, "duration": 41, "velocity": 84}, {"time": 930, "pitch": 61, "duration": 8, "velocity": 79}, {"time": 930, "pitch": 65, "duration": 9, "velocity": 84}, {"time": 930, "pitch": 68, "duration": 9, "velocity": 78}, {"time": 930, "pitch": 70, "duration": 1, "velocity": 46}, {"time": 936, "pitch": 51, "duration": 26, "velocity": 68}, {"time": 942, "pitch": 61, "duration": 6, "velocity": 83}, {"time": 948, "pitch": 65, "duration": 5, "velocity": 82}, {"time": 954, "pitch": 63, "duration": 9, "velocity": 79}, {"time": 954, "pitch": 67, "duration": 13, "velocity": 82}, {"time": 966, "pitch": 51, "duration": 7, "velocity": 61}, {"time": 966, "pitch": 63, "duration": 8, "velocity": 80}, {"time": 966, "pitch": 68, "duration": 7, "velocity": 81}, {"time": 972, "pitch": 70, "duration": 3, "velocity": 80}, {"time": 975, "pitch": 75, "duration": 15, "velocity": 69}, {"time": 975, "pitch": 79, "duration": 14, "velocity": 82}, {"time": 978, "pitch": 87, "duration": 13, "velocity": 75}, {"time": 1026, "pitch": 44, "duration": 8, "velocity": 76}, {"time": 1026, "pitch": 63, "duration": 25, "velocity": 80}, {"time": 1026, "pitch": 68, "duration": 24, "velocity": 82}, {"time": 1026, "pitch": 72, "duration": 24, "velocity": 86}, {"time": 1032, "pitch": 51, "duration": 5, "velocity": 75}, {"time": 1038, "pitch": 56, "duration": 8, "velocity": 58}, {"time": 1044, "pitch": 58, "duration": 16, "velocity": 75}, {"time": 1050, "pitch": 60, "duration": 9, "velocity": 84}, {"time": 1056, "pitch": 63, "duration": 4, "velocity": 84}, {"time": 1062, "pitch": 63, "duration": 2, "velocity": 53}, {"time": 1062, "pitch": 68, "duration": 9, "velocity": 80}, {"time": 1068, "pitch": 72, "duration": 4, "velocity": 90}, {"time": 1074, "pitch": 43, "duration": 40, "velocity": 86}, {"time": 1074, "pitch": 63, "duration": 7, "velocity": 80}, {"time": 1074, "pitch": 67, "duration": 7, "velocity": 90}, {"time": 1074, "pitch": 70, "duration": 8, "velocity": 82}, {"time": 1080, "pitch": 55, "duration": 18, "velocity": 75}, {"time": 1086, "pitch": 63, "duration": 2, "velocity": 75}, {"time": 1092, "pitch": 63, "duration": 12, "velocity": 86}, {"time": 1092, "pitch": 75, "duration": 10, "velocity": 90}, {"time": 1104, "pitch": 55, "duration": 8, "velocity": 83}, {"time": 1110, "pitch": 63, "duration": 8, "velocity": 84}, {"time": 1110, "pitch": 70, "duration": 5, "velocity": 84}, {"time": 1116, "pitch": 67, "duration": 3, "velocity": 84}, {"time": 1122, "pitch": 41, "duration": 5, "velocity": 84}, {"time": 1122, "pitch": 63, "duration": 20, "velocity": 86}, {"time": 1122, "pitch": 68, "duration": 20, "velocity": 90}, {"time": 1122, "pitch": 72, "duration": 18, "velocity": 86}, {"time": 1128, "pitch": 53, "duration": 8, "velocity": 76}, {"time": 1134, "pitch": 56, "duration": 33, "velocity": 80}, {"time": 1140, "pitch": 58, "duration": 17, "velocity": 76}, {"time": 1146, "pitch": 63, "duration": 4, "velocity": 84}, {"time": 1152, "pitch": 63, "duration": 2, "velocity": 73}, {"time": 1152, "pitch": 68, "duration": 6, "velocity": 90}, {"time": 1158, "pitch": 63, "duration": 4, "velocity": 83}, {"time": 1158, "pitch": 70, "duration": 10, "velocity": 86}, {"time": 1164, "pitch": 58, "duration": 5, "velocity": 72}, {"time": 1170, "pitch": 51, "duration": 39, "velocity": 83}, {"time": 1170, "pitch": 63, "duration": 9, "velocity": 86}, {"time": 1170, "pitch": 67, "duration": 9, "velocity": 91}, {"time": 1176, "pitch": 60, "duration": 18, "velocity": 84}, {"time": 1182, "pitch": 63, "duration": 3, "velocity": 83}, {"time": 1188, "pitch": 63, "duration": 13, "velocity": 86}, {"time": 1188, "pitch": 67, "duration": 10, "velocity": 81}, {"time": 1188, "pitch": 75, "duration": 11, "velocity": 94}, {"time": 1200, "pitch": 60, "duration": 9, "velocity": 80}, {"time": 1206, "pitch": 63, "duration": 4, "velocity": 84}, {"time": 1206, "pitch": 68, "duration": 2, "velocity": 90}, {"time": 1212, "pitch": 67, "duration": 3, "velocity": 84}, {"time": 1218, "pitch": 49, "duration": 38, "velocity": 90}, {"time": 1218, "pitch": 61, "duration": 7, "velocity": 83}, {"time": 1218, "pitch": 65, "duration": 10, "velocity": 91}, {"time": 1218, "pitch": 68, "duration": 9, "velocity": 82}, {"time": 1224, "pitch": 56, "duration": 33, "velocity": 76}, {"time": 1230, "pitch": 61, "duration": 18, "velocity": 76}, {"time": 1236, "pitch": 63, "duration": 3, "velocity": 82}, {"time": 1236, "pitch": 67, "duration": 4, "velocity": 83}, {"time": 1248, "pitch": 63, "duration": 1, "velocity": 68}, {"time": 1248, "pitch": 65, "duration": 9, "velocity": 94}, {"time": 1248, "pitch": 68, "duration": 8, "velocity": 86}, {"time": 1254, "pitch": 61, "duration": 2, "velocity": 83}, {"time": 1260, "pitch": 63, "duration": 2, "velocity": 71}, {"time": 1266, "pitch": 44, "duration": 38, "velocity": 86}, {"time": 1266, "pitch": 63, "duration": 8, "velocity": 84}, {"time": 1266, "pitch": 68, "duration": 8, "velocity": 86}, {"time": 1272, "pitch": 51, "duration": 32, "velocity": 82}, {"time": 1278, "pitch": 56, "duration": 11, "velocity": 80}, {"time": 1284, "pitch": 58, "duration": 14, "velocity": 86}, {"time": 1284, "pitch": 63, "duration": 14, "velocity": 86}, {"time": 1296, "pitch": 56, "duration": 7, "velocity": 78}, {"time": 1302, "pitch": 60, "duration": 4, "velocity": 94}, {"time": 1302, "pitch": 63, "duration": 1, "velocity": 54}, {"time": 1302, "pitch": 68, "duration": 9, "velocity": 86}, {"time": 1314, "pitch": 37, "duration": 6, "velocity": 99}, {"time": 1314, "pitch": 56, "duration": 12, "velocity": 91}, {"time": 1314, "pitch": 61, "duration": 17, "velocity": 90}, {"time": 1314, "pitch": 65, "duration": 18, "velocity": 84}, {"time": 1320, "pitch": 49, "duration": 7, "velocity": 74}, {"time": 1326, "pitch": 53, "duration": 23, "velocity": 81}, {"time": 1332, "pitch": 56, "duration": 16, "velocity": 79}, {"time": 1338, "pitch": 61, "duration": 7, "velocity": 90}, {"time": 1344, "pitch": 65, "duration": 7, "velocity": 84}, {"time": 1350, "pitch": 66, "duration": 6, "velocity": 76}, {"time": 1356, "pitch": 68, "duration": 4, "velocity": 73}, {"time": 1362, "pitch": 39, "duration": 35, "velocity": 84}, {"time": 1362, "pitch": 58, "duration": 13, "velocity": 82}, {"time": 1362, "pitch": 63, "duration": 10, "velocity": 86}, {"time": 1362, "pitch": 67, "duration": 10, "velocity": 86}, {"time": 1368, "pitch": 46, "duration": 32, "velocity": 82}, {"time": 1374, "pitch": 51, "duration": 13, "velocity": 73}, {"time": 1380, "pitch": 58, "duration": 4, "velocity": 80}, {"time": 1386, "pitch": 58, "duration": 7, "velocity": 78}, {"time": 1386, "pitch": 63, "duration": 6, "velocity": 83}, {"time": 1386, "pitch": 67, "duration": 7, "velocity": 84}, {"time": 1392, "pitch": 51, "duration": 5, "velocity": 60}, {"time": 1398, "pitch": 58, "duration": 5, "velocity": 75}, {"time": 1398, "pitch": 63, "duration": 5, "velocity": 84}, {"time": 1398, "pitch": 68, "duration": 6, "velocity": 84}, {"time": 1404, "pitch": 43, "duration": 2, "velocity": 84}, {"time": 1410, "pitch": 44, "duration": 36, "velocity": 86}, {"time": 1410, "pitch": 60, "duration": 10, "velocity": 84}, {"time": 1410, "pitch": 63, "duration": 12, "velocity": 86}, {"time": 1410, "pitch": 68, "duration": 9, "velocity": 84}, {"time": 1416, "pitch": 51, "duration": 29, "velocity": 80}, {"time": 1422, "pitch": 56, "duration": 9, "velocity": 78}, {"time": 1422, "pitch": 58, "duration": 3, "velocity": 78}, {"time": 1422, "pitch": 67, "duration": 3, "velocity": 83}, {"time": 1428, "pitch": 60, "duration": 13, "velocity": 86}, {"time": 1428, "pitch": 63, "duration": 14, "velocity": 84}, {"time": 1428, "pitch": 68, "duration": 11, "velocity": 84}, {"time": 1440, "pitch": 56, "duration": 4, "velocity": 83}, {"time": 1446, "pitch": 60, "duration": 5, "velocity": 80}, {"time": 1446, "pitch": 67, "duration": 5, "velocity": 91}, {"time": 1452, "pitch": 68, "duration": 4, "velocity": 83}, {"time": 1458, "pitch": 43, "duration": 40, "velocity": 98}, {"time": 1458, "pitch": 58, "duration": 20, "velocity": 84}, {"time": 1458, "pitch": 63, "duration": 19, "velocity": 91}, {"time": 1458, "pitch": 67, "duration": 16, "velocity": 78}, {"time": 1470, "pitch": 51, "duration": 27, "velocity": 80}, {"time": 1476, "pitch": 55, "duration": 18, "velocity": 84}, {"time": 1482, "pitch": 58, "duration": 8, "velocity": 83}, {"time": 1488, "pitch": 67, "duration": 3, "velocity": 98}, {"time": 1494, "pitch": 68, "duration": 5, "velocity": 91}, {"time": 1500, "pitch": 70, "duration": 4, "velocity": 83}, {"time": 1506, "pitch": 41, "duration": 5, "velocity": 86}, {"time": 1506, "pitch": 63, "duration": 20, "velocity": 84}, {"time": 1506, "pitch": 68, "duration": 20, "velocity": 84}, {"time": 1506, "pitch": 72, "duration": 19, "velocity": 93}, {"time": 1512, "pitch": 53, "duration": 7, "velocity": 69}, {"time": 1518, "pitch": 56, "duration": 23, "velocity": 78}, {"time": 1524, "pitch": 60, "duration": 15, "velocity": 82}, {"time": 1530, "pitch": 63, "duration": 3, "velocity": 83}, {"time": 1536, "pitch": 63, "duration": 1, "velocity": 43}, {"time": 1536, "pitch": 68, "duration": 4, "velocity": 81}, {"time": 1542, "pitch": 68, "duration": 1, "velocity": 57}, {"time": 1542, "pitch": 70, "duration": 6, "velocity": 79}, {"time": 1548, "pitch": 72, "duration": 2, "velocity": 81}, {"time": 1554, "pitch": 48, "duration": 15, "velocity": 91}, {"time": 1554, "pitch": 63, "duration": 8, "velocity": 84}, {"time": 1554, "pitch": 67, "duration": 8, "velocity": 86}, {"time": 1554, "pitch": 72, "duration": 7, "velocity": 95}, {"time": 1560, "pitch": 60, "duration": 6, "velocity": 76}, {"time": 1566, "pitch": 63, "duration": 4, "velocity": 83}, {"time": 1572, "pitch": 67, "duration": 3, "velocity": 86}, {"time": 1578, "pitch": 63, "duration": 1, "velocity": 40}, {"time": 1584, "pitch": 63, "duration": 7, "velocity": 90}, {"time": 1584, "pitch": 70, "duration": 8, "velocity": 96}, {"time": 1596, "pitch": 68, "duration": 3, "velocity": 84}, {"time": 1602, "pitch": 49, "duration": 41, "velocity": 84}, {"time": 1602, "pitch": 61, "duration": 8, "velocity": 86}, {"time": 1602, "pitch": 65, "duration": 14, "velocity": 86}, {"time": 1602, "pitch": 68, "duration": 10, "velocity": 90}, {"time": 1608, "pitch": 56, "duration": 36, "velocity": 75}, {"time": 1614, "pitch": 61, "duration": 14, "velocity": 68}, {"time": 1620, "pitch": 63, "duration": 10, "velocity": 83}, {"time": 1620, "pitch": 68, "duration": 13, "velocity": 86}, {"time": 1632, "pitch": 61, "duration": 7, "velocity": 90}, {"time": 1638, "pitch": 63, "duration": 5, "velocity": 95}, {"time": 1641, "pitch": 67, "duration": 7, "velocity": 71}, {"time": 1644, "pitch": 68, "duration": 3, "velocity": 79}, {"time": 1650, "pitch": 48, "duration": 12, "velocity": 91}, {"time": 1650, "pitch": 63, "duration": 7, "velocity": 83}, {"time": 1650, "pitch": 67, "duration": 7, "velocity": 81}, {"time": 1650, "pitch": 70, "duration": 7, "velocity": 76}, {"time": 1656, "pitch": 60, "duration": 11, "velocity": 75}, {"time": 1662, "pitch": 63, "duration": 4, "velocity": 84}, {"time": 1668, "pitch": 72, "duration": 4, "velocity": 94}, {"time": 1674, "pitch": 53, "duration": 12, "velocity": 84}, {"time": 1674, "pitch": 63, "duration": 7, "velocity": 86}, {"time": 1674, "pitch": 68, "duration": 8, "velocity": 90}, {"time": 1680, "pitch": 60, "duration": 5, "velocity": 83}, {"time": 1686, "pitch": 70, "duration": 7, "velocity": 86}, {"time": 1692, "pitch": 72, "duration": 5, "velocity": 86}, {"time": 1698, "pitch": 49, "duration": 40, "velocity": 84}, {"time": 1698, "pitch": 63, "duration": 9, "velocity": 79}, {"time": 1698, "pitch": 65, "duration": 9, "velocity": 82}, {"time": 1698, "pitch": 68, "duration": 10, "velocity": 83}, {"time": 1704, "pitch": 56, "duration": 34, "velocity": 75}, {"time": 1710, "pitch": 61, "duration": 20, "velocity": 79}, {"time": 1716, "pitch": 63, "duration": 4, "velocity": 80}, {"time": 1722, "pitch": 65, "duration": 5, "velocity": 83}, {"time": 1728, "pitch": 63, "duration": 8, "velocity": 84}, {"time": 1728, "pitch": 68, "duration": 9, "velocity": 84}, {"time": 1734, "pitch": 61, "duration": 2, "velocity": 84}, {"time": 1740, "pitch": 65, "duration": 4, "velocity": 84}, {"time": 1746, "pitch": 39, "duration": 5, "velocity": 83}, {"time": 1746, "pitch": 61, "duration": 18, "velocity": 84}, {"time": 1746, "pitch": 65, "duration": 18, "velocity": 80}, {"time": 1746, "pitch": 68, "duration": 19, "velocity": 80}, {"time": 1752, "pitch": 51, "duration": 8, "velocity": 69}, {"time": 1758, "pitch": 56, "duration": 17, "velocity": 79}, {"time": 1764, "pitch": 58, "duration": 12, "velocity": 72}, {"time": 1770, "pitch": 61, "duration": 4, "velocity": 90}, {"time": 1776, "pitch": 65, "duration": 4, "velocity": 84}, {"time": 1782, "pitch": 68, "duration": 4, "velocity": 84}, {"time": 1788, "pitch": 67, "duration": 4, "velocity": 79}, {"time": 1794, "pitch": 44, "duration": 40, "velocity": 79}, {"time": 1794, "pitch": 63, "duration": 10, "velocity": 84}, {"time": 1794, "pitch": 68, "duration": 10, "velocity": 86}, {"time": 1800, "pitch": 51, "duration": 41, "velocity": 79}, {"time": 1806, "pitch": 56, "duration": 20, "velocity": 72}, {"time": 1812, "pitch": 61, "duration": 9, "velocity": 84}, {"time": 1824, "pitch": 63, "duration": 10, "velocity": 84}, {"time": 1830, "pitch": 56, "duration": 6, "velocity": 68}, {"time": 1836, "pitch": 58, "duration": 32, "velocity": 57}, {"time": 1842, "pitch": 44, "duration": 27, "velocity": 73}, {"time": 1842, "pitch": 51, "duration": 27, "velocity": 44}, {"time": 1842, "pitch": 56, "duration": 27, "velocity": 63}, {"time": 1842, "pitch": 60, "duration": 26, "velocity": 79}, {"time": 1842, "pitch": 63, "duration": 26, "velocity": 80}, {"time": 1842, "pitch": 68, "duration": 27, "velocity": 76}, {"time": 1890, "pitch": 56, "duration": 39, "velocity": 72}, {"time": 1896, "pitch": 63, "duration": 32, "velocity": 77}, {"time": 1902, "pitch": 68, "duration": 6, "velocity": 59}, {"time": 1908, "pitch": 70, "duration": 19, "velocity": 69}, {"time": 1926, "pitch": 72, "duration": 6, "velocity": 57}, {"time": 1932, "pitch": 70, "duration": 14, "velocity": 69}, {"time": 1938, "pitch": 55, "duration": 37, "velocity": 74}, {"time": 1944, "pitch": 63, "duration": 32, "velocity": 56}, {"time": 1950, "pitch": 67, "duration": 15, "velocity": 70}, {"time": 1956, "pitch": 70, "duration": 25, "velocity": 71}, {"time": 1980, "pitch": 68, "duration": 4, "velocity": 62}, {"time": 1986, "pitch": 53, "duration": 37, "velocity": 77}, {"time": 1986, "pitch": 68, "duration": 9, "velocity": 78}, {"time": 1992, "pitch": 60, "duration": 31, "velocity": 75}, {"time": 1998, "pitch": 63, "duration": 25, "velocity": 68}, {"time": 2004, "pitch": 68, "duration": 18, "velocity": 76}, {"time": 2034, "pitch": 51, "duration": 37, "velocity": 73}, {"time": 2034, "pitch": 63, "duration": 8, "velocity": 68}, {"time": 2034, "pitch": 67, "duration": 8, "velocity": 82}, {"time": 2040, "pitch": 60, "duration": 31, "velocity": 62}, {"time": 2046, "pitch": 63, "duration": 19, "velocity": 61}, {"time": 2052, "pitch": 70, "duration": 13, "velocity": 62}, {"time": 2064, "pitch": 67, "duration": 8, "velocity": 81}, {"time": 2082, "pitch": 49, "duration": 36, "velocity": 79}, {"time": 2088, "pitch": 56, "duration": 32, "velocity": 61}, {"time": 2094, "pitch": 61, "duration": 23, "velocity": 72}, {"time": 2100, "pitch": 65, "duration": 18, "velocity": 75}, {"time": 2130, "pitch": 48, "duration": 21, "velocity": 73}, {"time": 2130, "pitch": 58, "duration": 14, "velocity": 71}, {"time": 2130, "pitch": 63, "duration": 16, "velocity": 82}, {"time": 2130, "pitch": 67, "duration": 15, "velocity": 75}, {"time": 2154, "pitch": 53, "duration": 15, "velocity": 76}, {"time": 2154, "pitch": 60, "duration": 14, "velocity": 75}, {"time": 2154, "pitch": 65, "duration": 15, "velocity": 78}, {"time": 2154, "pitch": 68, "duration": 15, "velocity": 75}, {"time": 2169, "pitch": 63, "duration": 2, "velocity": 71}, {"time": 2178, "pitch": 46, "duration": 38, "velocity": 55}, {"time": 2178, "pitch": 53, "duration": 23, "velocity": 59}, {"time": 2178, "pitch": 56, "duration": 10, "velocity": 71}, {"time": 2178, "pitch": 61, "duration": 11, "velocity": 80}, {"time": 2178, "pitch": 65, "duration": 11, "velocity": 74}, {"time": 2190, "pitch": 56, "duration": 20, "velocity": 37}, {"time": 2196, "pitch": 61, "duration": 15, "velocity": 82}, {"time": 2208, "pitch": 53, "duration": 10, "velocity": 78}, {"time": 2214, "pitch": 56, "duration": 6, "velocity": 62}, {"time": 2226, "pitch": 51, "duration": 32, "velocity": 73}, {"time": 2226, "pitch": 56, "duration": 7, "velocity": 73}, {"time": 2226, "pitch": 61, "duration": 15, "velocity": 80}, {"time": 2226, "pitch": 65, "duration": 15, "velocity": 76}, {"time": 2250, "pitch": 63, "duration": 9, "velocity": 68}, {"time": 2250, "pitch": 67, "duration": 9, "velocity": 72}, {"time": 2250, "pitch": 70, "duration": 10, "velocity": 71}, {"time": 2274, "pitch": 44, "duration": 42, "velocity": 84}, {"time": 2274, "pitch": 63, "duration": 10, "velocity": 75}, {"time": 2274, "pitch": 68, "duration": 12, "velocity": 80}, {"time": 2274, "pitch": 72, "duration": 15, "velocity": 86}, {"time": 2280, "pitch": 56, "duration": 21, "velocity": 57}, {"time": 2286, "pitch": 63, "duration": 7, "velocity": 59}, {"time": 2292, "pitch": 68, "duration": 6, "velocity": 71}, {"time": 2298, "pitch": 63, "duration": 9, "velocity": 79}, {"time": 2298, "pitch": 68, "duration": 10, "velocity": 58}, {"time": 2298, "pitch": 72, "duration": 10, "velocity": 80}, {"time": 2304, "pitch": 56, "duration": 10, "velocity": 51}, {"time": 2310, "pitch": 63, "duration": 5, "velocity": 58}, {"time": 2316, "pitch": 72, "duration": 4, "velocity": 84}, {"time": 2322, "pitch": 43, "duration": 45, "velocity": 47}, {"time": 2322, "pitch": 63, "duration": 14, "velocity": 77}, {"time": 2322, "pitch": 67, "duration": 11, "velocity": 84}, {"time": 2322, "pitch": 70, "duration": 12, "velocity": 77}, {"time": 2334, "pitch": 55, "duration": 14, "velocity": 57}, {"time": 2340, "pitch": 63, "duration": 4, "velocity": 71}, {"time": 2346, "pitch": 63, "duration": 8, "velocity": 80}, {"time": 2346, "pitch": 70, "duration": 10, "velocity": 81}, {"time": 2352, "pitch": 55, "duration": 6, "velocity": 63}, {"time": 2358, "pitch": 67, "duration": 5, "velocity": 75}, {"time": 2364, "pitch": 72, "duration": 4, "velocity": 80}, {"time": 2370, "pitch": 41, "duration": 35, "velocity": 83}, {"time": 2370, "pitch": 63, "duration": 9, "velocity": 75}, {"time": 2370, "pitch": 68, "duration": 9, "velocity": 81}, {"time": 2370, "pitch": 72, "duration": 10, "velocity": 62}, {"time": 2376, "pitch": 53, "duration": 19, "velocity": 56}, {"time": 2382, "pitch": 63, "duration": 4, "velocity": 69}, {"time": 2388, "pitch": 63, "duration": 14, "velocity": 76}, {"time": 2388, "pitch": 68, "duration": 13, "velocity": 79}, {"time": 2400, "pitch": 53, "duration": 8, "velocity": 63}, {"time": 2406, "pitch": 63, "duration": 5, "velocity": 78}, {"time": 2406, "pitch": 68, "duration": 6, "velocity": 80}, {"time": 2412, "pitch": 70, "duration": 4, "velocity": 72}, {"time": 2418, "pitch": 51, "duration": 41, "velocity": 76}, {"time": 2418, "pitch": 63, "duration": 8, "velocity": 78}, {"time": 2418, "pitch": 67, "duration": 8, "velocity": 83}, {"time": 2418, "pitch": 70, "duration": 8, "velocity": 76}, {"time": 2424, "pitch": 60, "duration": 17, "velocity": 39}, {"time": 2430, "pitch": 63, "duration": 20, "velocity": 69}, {"time": 2436, "pitch": 67, "duration": 12, "velocity": 79}, {"time": 2436, "pitch": 75, "duration": 12, "velocity": 82}, {"time": 2448, "pitch": 60, "duration": 9, "velocity": 79}, {"time": 2454, "pitch": 63, "duration": 6, "velocity": 75}, {"time": 2454, "pitch": 68, "duration": 5, "velocity": 75}, {"time": 2460, "pitch": 67, "duration": 4, "velocity": 79}, {"time": 2466, "pitch": 49, "duration": 37, "velocity": 82}, {"time": 2466, "pitch": 65, "duration": 12, "velocity": 79}, {"time": 2466, "pitch": 68, "duration": 13, "velocity": 82}, {"time": 2472, "pitch": 56, "duration": 31, "velocity": 75}, {"time": 2478, "pitch": 61, "duration": 11, "velocity": 63}, {"time": 2484, "pitch": 63, "duration": 11, "velocity": 78}, {"time": 2484, "pitch": 65, "duration": 12, "velocity": 78}, {"time": 2484, "pitch": 68, "duration": 11, "velocity": 75}, {"time": 2496, "pitch": 61, "duration": 5, "velocity": 60}, {"time": 2502, "pitch": 63, "duration": 5, "velocity": 76}, {"time": 2508, "pitch": 67, "duration": 5, "velocity": 63}, {"time": 2514, "pitch": 48, "duration": 11, "velocity": 86}, {"time": 2514, "pitch": 63, "duration": 8, "velocity": 76}, {"time": 2514, "pitch": 67, "duration": 8, "velocity": 83}, {"time": 2514, "pitch": 70, "duration": 8, "velocity": 80}, {"time": 2520, "pitch": 60, "duration": 12, "velocity": 69}, {"time": 2526, "pitch": 63, "duration": 6, "velocity": 80}, {"time": 2532, "pitch": 72, "duration": 13, "velocity": 84}, {"time": 2538, "pitch": 53, "duration": 15, "velocity": 81}, {"time": 2538, "pitch": 63, "duration": 10, "velocity": 79}, {"time": 2538, "pitch": 68, "duration": 9, "velocity": 82}, {"time": 2544, "pitch": 60, "duration": 8, "velocity": 78}, {"time": 2550, "pitch": 68, "duration": 7, "velocity": 79}, {"time": 2556, "pitch": 70, "duration": 3, "velocity": 78}, {"time": 2562, "pitch": 46, "duration": 39, "velocity": 80}, {"time": 2562, "pitch": 61, "duration": 9, "velocity": 78}, {"time": 2562, "pitch": 65, "duration": 10, "velocity": 79}, {"time": 2562, "pitch": 70, "duration": 8, "velocity": 79}, {"time": 2568, "pitch": 58, "duration": 15, "velocity": 62}, {"time": 2574, "pitch": 61, "duration": 5, "velocity": 83}, {"time": 2580, "pitch": 61, "duration": 14, "velocity": 54}, {"time": 2580, "pitch": 65, "duration": 14, "velocity": 84}, {"time": 2580, "pitch": 70, "duration": 14, "velocity": 83}, {"time": 2592, "pitch": 58, "duration": 8, "velocity": 69}, {"time": 2598, "pitch": 61, "duration": 7, "velocity": 82}, {"time": 2598, "pitch": 70, "duration": 2, "velocity": 69}, {"time": 2604, "pitch": 70, "duration": 4, "velocity": 78}, {"time": 2610, "pitch": 39, "duration": 41, "velocity": 84}, {"time": 2610, "pitch": 61, "duration": 8, "velocity": 79}, {"time": 2610, "pitch": 65, "duration": 9, "velocity": 84}, {"time": 2610, "pitch": 68, "duration": 9, "velocity": 78}, {"time": 2610, "pitch": 70, "duration": 1, "velocity": 46}, {"time": 2616, "pitch": 51, "duration": 26, "velocity": 68}, {"time": 2622, "pitch": 61, "duration": 6, "velocity": 83}, {"time": 2628, "pitch": 65, "duration": 5, "velocity": 82}, {"time": 2634, "pitch": 63, "duration": 9, "velocity": 79}, {"time": 2634, "pitch": 67, "duration": 13, "velocity": 82}, {"time": 2646, "pitch": 51, "duration": 7, "velocity": 61}, {"time": 2646, "pitch": 63, "duration": 8, "velocity": 80}, {"time": 2646, "pitch": 68, "duration": 7, "velocity": 81}, {"time": 2652, "pitch": 70, "duration": 3, "velocity": 80}, {"time": 2658, "pitch": 44, "duration": 8, "velocity": 76}, {"time": 2658, "pitch": 63, "duration": 25, "velocity": 80}, {"time": 2658, "pitch": 68, "duration": 24, "velocity": 82}, {"time": 2658, "pitch": 72, "duration": 24, "velocity": 86}, {"time": 2664, "pitch": 51, "duration": 5, "velocity": 75}, {"time": 2670, "pitch": 56, "duration": 8, "velocity": 58}, {"time": 2676, "pitch": 58, "duration": 16, "velocity": 75}, {"time": 2682, "pitch": 60, "duration": 9, "velocity": 84}, {"time": 2688, "pitch": 63, "duration": 4, "velocity": 84}, {"time": 2694, "pitch": 63, "duration": 2, "velocity": 53}, {"time": 2694, "pitch": 68, "duration": 9, "velocity": 80}, {"time": 2700, "pitch": 72, "duration": 4, "velocity": 90}, {"time": 2706, "pitch": 43, "duration": 40, "velocity": 86}, {"time": 2706, "pitch": 63, "duration": 7, "velocity": 80}, {"time": 2706, "pitch": 67, "duration": 7, "velocity": 90}, {"time": 2706, "pitch": 70, "duration": 8, "velocity": 82}, {"time": 2712, "pitch": 55, "duration": 18, "velocity": 75}, {"time": 2718, "pitch": 63, "duration": 2, "velocity": 75}, {"time": 2724, "pitch": 63, "duration": 12, "velocity": 86}, {"time": 2724, "pitch": 75, "duration": 10, "velocity": 90}, {"time": 2736, "pitch": 55, "duration": 8, "velocity": 83}, {"time": 2742, "pitch": 63, "duration": 8, "velocity": 84}, {"time": 2742, "pitch": 70, "duration": 5, "velocity": 84}, {"time": 2748, "pitch": 67, "duration": 3, "velocity": 84}, {"time": 2754, "pitch": 41, "duration": 5, "velocity": 84}, {"time": 2754, "pitch": 63, "duration": 20, "velocity": 86}, {"time": 2754, "pitch": 68, "duration": 20, "velocity": 90}, {"time": 2754, "pitch": 72, "duration": 18, "velocity": 86}, {"time": 2760, "pitch": 53, "duration": 8, "velocity": 76}, {"time": 2766, "pitch": 56, "duration": 33, "velocity": 80}, {"time": 2772, "pitch": 58, "duration": 17, "velocity": 76}, {"time": 2778, "pitch": 63, "duration": 4, "velocity": 84}, {"time": 2784, "pitch": 63, "duration": 2, "velocity": 73}, {"time": 2784, "pitch": 68, "duration": 6, "velocity": 90}, {"time": 2790, "pitch": 63, "duration": 4, "velocity": 83}, {"time": 2790, "pitch": 70, "duration": 10, "velocity": 86}, {"time": 2796, "pitch": 58, "duration": 5, "velocity": 72}, {"time": 2802, "pitch": 51, "duration": 39, "velocity": 83}, {"time": 2802, "pitch": 63, "duration": 9, "velocity": 86}, {"time": 2802, "pitch": 67, "duration": 9, "velocity": 91}, {"time": 2808, "pitch": 60, "duration": 18, "velocity": 84}, {"time": 2814, "pitch": 63, "duration": 3, "velocity": 83}, {"time": 2820, "pitch": 63, "duration": 13, "velocity": 86}, {"time": 2820, "pitch": 67, "duration": 10, "velocity": 81}, {"time": 2820, "pitch": 75, "duration": 11, "velocity": 94}, {"time": 2832, "pitch": 60, "duration": 9, "velocity": 80}, {"time": 2838, "pitch": 63, "duration": 4, "velocity": 84}, {"time": 2838, "pitch": 68, "duration": 2, "velocity": 90}, {"time": 2844, "pitch": 67, "duration": 3, "velocity": 84}, {"time": 2850, "pitch": 49, "duration": 38, "velocity": 90}, {"time": 2850, "pitch": 61, "duration": 7, "velocity": 83}, {"time": 2850, "pitch": 65, "duration": 10, "velocity": 91}, {"time": 2850, "pitch": 68, "duration": 9, "velocity": 82}, {"time": 2856, "pitch": 56, "duration": 33, "velocity": 76}, {"time": 2862, "pitch": 61, "duration": 18, "velocity": 76}, {"time": 2868, "pitch": 63, "duration": 3, "velocity": 82}, {"time": 2868, "pitch": 67, "duration": 4, "velocity": 83}, {"time": 2880, "pitch": 63, "duration": 1, "velocity": 68}, {"time": 2880, "pitch": 65, "duration": 9, "velocity": 94}, {"time": 2880, "pitch": 68, "duration": 8, "velocity": 86}, {"time": 2886, "pitch": 61, "duration": 2, "velocity": 83}, {"time": 2892, "pitch": 63, "duration": 2, "velocity": 71}, {"time": 2898, "pitch": 44, "duration": 38, "velocity": 86}, {"time": 2898, "pitch": 63, "duration": 8, "velocity": 84}, {"time": 2898, "pitch": 68, "duration": 8, "velocity": 86}, {"time": 2904, "pitch": 51, "duration": 32, "velocity": 82}, {"time": 2910, "pitch": 56, "duration": 11, "velocity": 80}, {"time": 2916, "pitch": 58, "duration": 14, "velocity": 86}, {"time": 2916, "pitch": 63, "duration": 14, "velocity": 86}, {"time": 2928, "pitch": 56, "duration": 7, "velocity": 78}, {"time": 2934, "pitch": 60, "duration": 4, "velocity": 94}, {"time": 2934, "pitch": 63, "duration": 1, "velocity": 54}, {"time": 2934, "pitch": 68, "duration": 9, "velocity": 86}, {"time": 2946, "pitch": 37, "duration": 6, "velocity": 99}, {"time": 2946, "pitch": 56, "duration": 12, "velocity": 91}, {"time": 2946, "pitch": 61, "duration": 17, "velocity": 90}, {"time": 2946, "pitch": 65, "duration": 18, "velocity": 84}, {"time": 2952, "pitch": 49, "duration": 7, "velocity": 74}, {"time": 2958, "pitch": 53, "duration": 23, "velocity": 81}, {"time": 2964, "pitch": 56, "duration": 16, "velocity": 79}, {"time": 2970, "pitch": 61, "duration": 7, "velocity": 90}, {"time": 2976, "pitch": 65, "duration": 7, "velocity": 84}, {"time": 2982, "pitch": 66, "duration": 6, "velocity": 76}, {"time": 2988, "pitch": 68, "duration": 4, "velocity": 73}, {"time": 2994, "pitch": 39, "duration": 35, "velocity": 84}, {"time": 2994, "pitch": 58, "duration": 13, "velocity": 82}, {"time": 2994, "pitch": 63, "duration": 10, "velocity": 86}, {"time": 2994, "pitch": 67, "duration": 10, "velocity": 86}, {"time": 3000, "pitch": 46, "duration": 32, "velocity": 82}, {"time": 3006, "pitch": 51, "duration": 13, "velocity": 73}, {"time": 3012, "pitch": 58, "duration": 4, "velocity": 80}, {"time": 3018, "pitch": 58, "duration": 7, "velocity": 78}, {"time": 3018, "pitch": 63, "duration": 6, "velocity": 83}, {"time": 3018, "pitch": 67, "duration": 7, "velocity": 84}, {"time": 3024, "pitch": 51, "duration": 5, "velocity": 60}, {"time": 3030, "pitch": 58, "duration": 5, "velocity": 75}, {"time": 3030, "pitch": 63, "duration": 5, "velocity": 84}, {"time": 3030, "pitch": 68, "duration": 6, "velocity": 84}, {"time": 3036, "pitch": 43, "duration": 2, "velocity": 84}, {"time": 3042, "pitch": 44, "duration": 36, "velocity": 86}, {"time": 3042, "pitch": 60, "duration": 10, "velocity": 84}, {"time": 3042, "pitch": 63, "duration": 12, "velocity": 86}, {"time": 3042, "pitch": 68, "duration": 9, "velocity": 84}, {"time": 3048, "pitch": 51, "duration": 29, "velocity": 80}, {"time": 3054, "pitch": 56, "duration": 9, "velocity": 78}, {"time": 3054, "pitch": 58, "duration": 3, "velocity": 78}, {"time": 3054, "pitch": 67, "duration": 3, "velocity": 83}, {"time": 3060, "pitch": 60, "duration": 13, "velocity": 86}, {"time": 3060, "pitch": 63, "duration": 14, "velocity": 84}, {"time": 3060, "pitch": 68, "duration": 11, "velocity": 84}, {"time": 3072, "pitch": 56, "duration": 4, "velocity": 83}, {"time": 3078, "pitch": 60, "duration": 5, "velocity": 80}, {"time": 3078, "pitch": 67, "duration": 5, "velocity": 91}, {"time": 3084, "pitch": 68, "duration": 4, "velocity": 83}, {"time": 3090, "pitch": 43, "duration": 40, "velocity": 98}, {"time": 3090, "pitch": 58, "duration": 20, "velocity": 84}, {"time": 3090, "pitch": 63, "duration": 19, "velocity": 91}, {"time": 3090, "pitch": 67, "duration": 16, "velocity": 78}, {"time": 3102, "pitch": 51, "duration": 27, "velocity": 80}, {"time": 3108, "pitch": 55, "duration": 18, "velocity": 84}, {"time": 3114, "pitch": 58, "duration": 8, "velocity": 83}, {"time": 3120, "pitch": 67, "duration": 3, "velocity": 98}, {"time": 3126, "pitch": 68, "duration": 5, "velocity": 91}, {"time": 3132, "pitch": 70, "duration": 4, "velocity": 83}, {"time": 3138, "pitch": 41, "duration": 5, "velocity": 86}, {"time": 3138, "pitch": 63, "duration": 20, "velocity": 84}, {"time": 3138, "pitch": 68, "duration": 20, "velocity": 84}, {"time": 3138, "pitch": 72, "duration": 19, "velocity": 93}, {"time": 3144, "pitch": 53, "duration": 7, "velocity": 69}, {"time": 3150, "pitch": 56, "duration": 23, "velocity": 78}, {"time": 3156, "pitch": 60, "duration": 15, "velocity": 82}, {"time": 3162, "pitch": 63, "duration": 3, "velocity": 83}, {"time": 3168, "pitch": 63, "duration": 1, "velocity": 43}, {"time": 3168, "pitch": 68, "duration": 4, "velocity": 81}, {"time": 3174, "pitch": 68, "duration": 1, "velocity": 57}, {"time": 3174, "pitch": 70, "duration": 6, "velocity": 79}, {"time": 3180, "pitch": 72, "duration": 2, "velocity": 81}, {"time": 3186, "pitch": 48, "duration": 15, "velocity": 91}, {"time": 3186, "pitch": 63, "duration": 8, "velocity": 84}, {"time": 3186, "pitch": 67, "duration": 8, "velocity": 86}, {"time": 3186, "pitch": 72, "duration": 7, "velocity": 95}, {"time": 3192, "pitch": 60, "duration": 6, "velocity": 76}, {"time": 3198, "pitch": 63, "duration": 4, "velocity": 83}, {"time": 3204, "pitch": 67, "duration": 3, "velocity": 86}, {"time": 3210, "pitch": 63, "duration": 1, "velocity": 40}, {"time": 3216, "pitch": 63, "duration": 7, "velocity": 90}, {"time": 3216, "pitch": 70, "duration": 8, "velocity": 96}, {"time": 3228, "pitch": 68, "duration": 3, "velocity": 84}, {"time": 3234, "pitch": 49, "duration": 41, "velocity": 84}, {"time": 3234, "pitch": 61, "duration": 8, "velocity": 86}, {"time": 3234, "pitch": 65, "duration": 14, "velocity": 86}, {"time": 3234, "pitch": 68, "duration": 10, "velocity": 90}, {"time": 3240, "pitch": 56, "duration": 36, "velocity": 75}, {"time": 3246, "pitch": 61, "duration": 14, "velocity": 68}, {"time": 3252, "pitch": 63, "duration": 10, "velocity": 83}, {"time": 3252, "pitch": 68, "duration": 13, "velocity": 86}, {"time": 3264, "pitch": 61, "duration": 7, "velocity": 90}, {"time": 3270, "pitch": 63, "duration": 5, "velocity": 95}, {"time": 3273, "pitch": 67, "duration": 7, "velocity": 71}, {"time": 3276, "pitch": 68, "duration": 3, "velocity": 79}, {"time": 3282, "pitch": 48, "duration": 12, "velocity": 91}, {"time": 3282, "pitch": 63, "duration": 7, "velocity": 83}, {"time": 3282, "pitch": 67, "duration": 7, "velocity": 81}, {"time": 3282, "pitch": 70, "duration": 7, "velocity": 76}, {"time": 3288, "pitch": 60, "duration": 11, "velocity": 75}, {"time": 3294, "pitch": 63, "duration": 4, "velocity": 84}, {"time": 3300, "pitch": 72, "duration": 4, "velocity": 94}, {"time": 3306, "pitch": 53, "duration": 12, "velocity": 84}, {"time": 3306, "pitch": 63, "duration": 7, "velocity": 86}, {"time": 3306, "pitch": 68, "duration": 8, "velocity": 90}, {"time": 3312, "pitch": 60, "duration": 5, "velocity": 83}, {"time": 3318, "pitch": 70, "duration": 7, "velocity": 86}, {"time": 3324, "pitch": 72, "duration": 5, "velocity": 86}, {"time": 3330, "pitch": 49, "duration": 40, "velocity": 84}, {"time": 3330, "pitch": 63, "duration": 9, "velocity": 79}, {"time": 3330, "pitch": 65, "duration": 9, "velocity": 82}, {"time": 3330, "pitch": 68, "duration": 10, "velocity": 83}, {"time": 3336, "pitch": 56, "duration": 34, "velocity": 75}, {"time": 3342, "pitch": 61, "duration": 20, "velocity": 79}, {"time": 3348, "pitch": 63, "duration": 4, "velocity": 80}, {"time": 3354, "pitch": 65, "duration": 5, "velocity": 83}, {"time": 3360, "pitch": 63, "duration": 8, "velocity": 84}, {"time": 3360, "pitch": 68, "duration": 9, "velocity": 84}, {"time": 3366, "pitch": 61, "duration": 2, "velocity": 84}, {"time": 3372, "pitch": 65, "duration": 4, "velocity": 84}, {"time": 3378, "pitch": 39, "duration": 5, "velocity": 83}, {"time": 3378, "pitch": 61, "duration": 18, "velocity": 84}, {"time": 3378, "pitch": 65, "duration": 18, "velocity": 80}, {"time": 3378, "pitch": 68, "duration": 19, "velocity": 80}, {"time": 3384, "pitch": 51, "duration": 8, "velocity": 69}, {"time": 3390, "pitch": 56, "duration": 17, "velocity": 79}, {"time": 3396, "pitch": 58, "duration": 12, "velocity": 72}, {"time": 3402, "pitch": 61, "duration": 4, "velocity": 90}, {"time": 3408, "pitch": 65, "duration": 4, "velocity": 84}, {"time": 3414, "pitch": 68, "duration": 4, "velocity": 84}, {"time": 3420, "pitch": 67, "duration": 4, "velocity": 79}, {"time": 3426, "pitch": 44, "duration": 39, "velocity": 78}, {"time": 3426, "pitch": 68, "duration": 15, "velocity": 83}, {"time": 3432, "pitch": 51, "duration": 33, "velocity": 79}, {"time": 3438, "pitch": 56, "duration": 14, "velocity": 63}, {"time": 3444, "pitch": 60, "duration": 14, "velocity": 71}, {"time": 3450, "pitch": 63, "duration": 9, "velocity": 90}, {"time": 3456, "pitch": 56, "duration": 7, "velocity": 62}, {"time": 3462, "pitch": 60, "duration": 5, "velocity": 77}, {"time": 3468, "pitch": 68, "duration": 4, "velocity": 80}, {"time": 3474, "pitch": 43, "duration": 40, "velocity": 90}, {"time": 3474, "pitch": 58, "duration": 14, "velocity": 77}, {"time": 3474, "pitch": 63, "duration": 14, "velocity": 84}, {"time": 3474, "pitch": 67, "duration": 12, "velocity": 86}, {"time": 3480, "pitch": 51, "duration": 28, "velocity": 82}, {"time": 3486, "pitch": 55, "duration": 13, "velocity": 71}, {"time": 3492, "pitch": 58, "duration": 4, "velocity": 75}, {"time": 3498, "pitch": 58, "duration": 6, "velocity": 83}, {"time": 3498, "pitch": 67, "duration": 7, "velocity": 84}, {"time": 3504, "pitch": 55, "duration": 3, "velocity": 71}, {"time": 3507, "pitch": 58, "duration": 11, "velocity": 76}, {"time": 3507, "pitch": 68, "duration": 6, "velocity": 86}, {"time": 3510, "pitch": 51, "duration": 2, "velocity": 82}, {"time": 3516, "pitch": 67, "duration": 2, "velocity": 83}, {"time": 3516, "pitch": 68, "duration": 1, "velocity": 57}, {"time": 3522, "pitch": 41, "duration": 7, "velocity": 86}, {"time": 3522, "pitch": 60, "duration": 14, "velocity": 82}, {"time": 3522, "pitch": 65, "duration": 13, "velocity": 81}, {"time": 3522, "pitch": 68, "duration": 13, "velocity": 86}, {"time": 3528, "pitch": 53, "duration": 8, "velocity": 73}, {"time": 3534, "pitch": 55, "duration": 26, "velocity": 63}, {"time": 3540, "pitch": 60, "duration": 8, "velocity": 81}, {"time": 3540, "pitch": 67, "duration": 8, "velocity": 86}, {"time": 3546, "pitch": 56, "duration": 8, "velocity": 75}, {"time": 3552, "pitch": 60, "duration": 8, "velocity": 81}, {"time": 3552, "pitch": 68, "duration": 8, "velocity": 83}, {"time": 3558, "pitch": 56, "duration": 2, "velocity": 78}, {"time": 3564, "pitch": 68, "duration": 2, "velocity": 63}, {"time": 3570, "pitch": 48, "duration": 36, "velocity": 84}, {"time": 3570, "pitch": 58, "duration": 8, "velocity": 78}, {"time": 3570, "pitch": 63, "duration": 11, "velocity": 84}, {"time": 3570, "pitch": 67, "duration": 10, "velocity": 84}, {"time": 3576, "pitch": 55, "duration": 32, "velocity": 76}, {"time": 3582, "pitch": 60, "duration": 18, "velocity": 76}, {"time": 3588, "pitch": 63, "duration": 4, "velocity": 73}, {"time": 3594, "pitch": 63, "duration": 2, "velocity": 18}, {"time": 3594, "pitch": 67, "duration": 5, "velocity": 84}, {"time": 3600, "pitch": 63, "duration": 1, "velocity": 62}, {"time": 3600, "pitch": 68, "duration": 5, "velocity": 80}, {"time": 3606, "pitch": 60, "duration": 3, "velocity": 68}, {"time": 3606, "pitch": 67, "duration": 4, "velocity": 84}, {"time": 3612, "pitch": 63, "duration": 4, "velocity": 80}, {"time": 3618, "pitch": 49, "duration": 36, "velocity": 84}, {"time": 3618, "pitch": 65, "duration": 14, "velocity": 83}, {"time": 3624, "pitch": 56, "duration": 31, "velocity": 75}, {"time": 3630, "pitch": 61, "duration": 11, "velocity": 73}, {"time": 3636, "pitch": 63, "duration": 10, "velocity": 83}, {"time": 3636, "pitch": 65, "duration": 12, "velocity": 83}, {"time": 3636, "pitch": 68, "duration": 12, "velocity": 86}, {"time": 3648, "pitch": 61, "duration": 6, "velocity": 68}, {"time": 3654, "pitch": 63, "duration": 2, "velocity": 80}, {"time": 3654, "pitch": 65, "duration": 1, "velocity": 69}, {"time": 3654, "pitch": 68, "duration": 2, "velocity": 80}, {"time": 3666, "pitch": 48, "duration": 13, "velocity": 84}, {"time": 3666, "pitch": 63, "duration": 7, "velocity": 83}, {"time": 3666, "pitch": 67, "duration": 7, "velocity": 84}, {"time": 3666, "pitch": 70, "duration": 5, "velocity": 78}, {"time": 3672, "pitch": 60, "duration": 4, "velocity": 73}, {"time": 3678, "pitch": 63, "duration": 5, "velocity": 80}, {"time": 3684, "pitch": 67, "duration": 2, "velocity": 73}, {"time": 3687, "pitch": 66, "duration": 1, "velocity": 59}, {"time": 3690, "pitch": 41, "duration": 15, "velocity": 82}, {"time": 3690, "pitch": 60, "duration": 7, "velocity": 80}, {"time": 3690, "pitch": 63, "duration": 8, "velocity": 82}, {"time": 3690, "pitch": 68, "duration": 7, "velocity": 77}, {"time": 3696, "pitch": 53, "duration": 10, "velocity": 74}, {"time": 3702, "pitch": 60, "duration": 4, "velocity": 86}, {"time": 3702, "pitch": 68, "duration": 1, "velocity": 73}, {"time": 3708, "pitch": 68, "duration": 4, "velocity": 76}, {"time": 3714, "pitch": 46, "duration": 32, "velocity": 81}, {"time": 3714, "pitch": 56, "duration": 8, "velocity": 80}, {"time": 3714, "pitch": 61, "duration": 8, "velocity": 86}, {"time": 3714, "pitch": 65, "duration": 8, "velocity": 79}, {"time": 3720, "pitch": 53, "duration": 14, "velocity": 75}, {"time": 3726, "pitch": 56, "duration": 4, "velocity": 55}, {"time": 3732, "pitch": 56, "duration": 13, "velocity": 80}, {"time": 3732, "pitch": 61, "duration": 12, "velocity": 90}, {"time": 3732, "pitch": 65, "duration": 10, "velocity": 90}, {"time": 3744, "pitch": 53, "duration": 4, "velocity": 84}, {"time": 3750, "pitch": 56, "duration": 4, "velocity": 83}, {"time": 3756, "pitch": 61, "duration": 3, "velocity": 79}, {"time": 3762, "pitch": 39, "duration": 20, "velocity": 83}, {"time": 3762, "pitch": 56, "duration": 8, "velocity": 79}, {"time": 3762, "pitch": 61, "duration": 9, "velocity": 84}, {"time": 3762, "pitch": 65, "duration": 9, "velocity": 82}, {"time": 3768, "pitch": 51, "duration": 14, "velocity": 79}, {"time": 3774, "pitch": 56, "duration": 6, "velocity": 83}, {"time": 3780, "pitch": 65, "duration": 3, "velocity": 82}, {"time": 3786, "pitch": 39, "duration": 14, "velocity": 90}, {"time": 3786, "pitch": 51, "duration": 1, "velocity": 33}, {"time": 3786, "pitch": 58, "duration": 9, "velocity": 75}, {"time": 3786, "pitch": 63, "duration": 9, "velocity": 86}, {"time": 3786, "pitch": 67, "duration": 9, "velocity": 86}, {"time": 3792, "pitch": 51, "duration": 8, "velocity": 80}, {"time": 3798, "pitch": 58, "duration": 6, "velocity": 82}, {"time": 3798, "pitch": 68, "duration": 6, "velocity": 75}, {"time": 3804, "pitch": 43, "duration": 2, "velocity": 94}, {"time": 3810, "pitch": 44, "duration": 38, "velocity": 86}, {"time": 3810, "pitch": 60, "duration": 8, "velocity": 86}, {"time": 3810, "pitch": 63, "duration": 8, "velocity": 80}, {"time": 3810, "pitch": 68, "duration": 8, "velocity": 84}, {"time": 3816, "pitch": 56, "duration": 15, "velocity": 61}, {"time": 3822, "pitch": 60, "duration": 3, "velocity": 79}, {"time": 3828, "pitch": 60, "duration": 4, "velocity": 82}, {"time": 3828, "pitch": 67, "duration": 5, "velocity": 91}, {"time": 3834, "pitch": 56, "duration": 3, "velocity": 12}, {"time": 3834, "pitch": 60, "duration": 6, "velocity": 83}, {"time": 3834, "pitch": 63, "duration": 7, "velocity": 54}, {"time": 3834, "pitch": 68, "duration": 6, "velocity": 86}, {"time": 3840, "pitch": 56, "duration": 4, "velocity": 60}, {"time": 3843, "pitch": 60, "duration": 6, "velocity": 90}, {"time": 3843, "pitch": 67, "duration": 7, "velocity": 82}, {"time": 3846, "pitch": 51, "duration": 8, "velocity": 84}, {"time": 3846, "pitch": 56, "duration": 2, "velocity": 60}, {"time": 3852, "pitch": 68, "duration": 4, "velocity": 91}, {"time": 3858, "pitch": 43, "duration": 41, "velocity": 98}, {"time": 3858, "pitch": 58, "duration": 7, "velocity": 84}, {"time": 3858, "pitch": 63, "duration": 7, "velocity": 78}, {"time": 3858, "pitch": 67, "duration": 9, "velocity": 79}, {"time": 3864, "pitch": 51, "duration": 33, "velocity": 83}, {"time": 3870, "pitch": 55, "duration": 6, "velocity": 79}, {"time": 3882, "pitch": 55, "duration": 3, "velocity": 71}, {"time": 3894, "pitch": 55, "duration": 2, "velocity": 75}, {"time": 3906, "pitch": 41, "duration": 40, "velocity": 83}, {"time": 3912, "pitch": 53, "duration": 25, "velocity": 78}, {"time": 3924, "pitch": 60, "duration": 4, "velocity": 84}, {"time": 3930, "pitch": 63, "duration": 6, "velocity": 90}, {"time": 3939, "pitch": 58, "duration": 6, "velocity": 84}, {"time": 3939, "pitch": 67, "duration": 7, "velocity": 83}, {"time": 3942, "pitch": 53, "duration": 4, "velocity": 80}, {"time": 3948, "pitch": 68, "duration": 4, "velocity": 84}, {"time": 3954, "pitch": 48, "duration": 5, "velocity": 84}, {"time": 3954, "pitch": 58, "duration": 12, "velocity": 83}, {"time": 3954, "pitch": 63, "duration": 12, "velocity": 84}, {"time": 3954, "pitch": 67, "duration": 10, "velocity": 75}, {"time": 3960, "pitch": 48, "duration": 32, "velocity": 57}, {"time": 3966, "pitch": 55, "duration": 20, "velocity": 78}, {"time": 3972, "pitch": 58, "duration": 4, "velocity": 77}, {"time": 3972, "pitch": 67, "duration": 8, "velocity": 78}, {"time": 3978, "pitch": 58, "duration": 4, "velocity": 75}, {"time": 3978, "pitch": 68, "duration": 5, "velocity": 82}, {"time": 3984, "pitch": 58, "duration": 8, "velocity": 41}, {"time": 3984, "pitch": 67, "duration": 4, "velocity": 81}, {"time": 3984, "pitch": 68, "duration": 4, "velocity": 43}, {"time": 3990, "pitch": 55, "duration": 2, "velocity": 79}, {"time": 3990, "pitch": 63, "duration": 4, "velocity": 84}, {"time": 3996, "pitch": 56, "duration": 2, "velocity": 38}, {"time": 3996, "pitch": 58, "duration": 2, "velocity": 38}, {"time": 4002, "pitch": 37, "duration": 41, "velocity": 100}, {"time": 4002, "pitch": 56, "duration": 9, "velocity": 80}, {"time": 4002, "pitch": 61, "duration": 9, "velocity": 84}, {"time": 4002, "pitch": 65, "duration": 9, "velocity": 84}, {"time": 4008, "pitch": 49, "duration": 19, "velocity": 75}, {"time": 4014, "pitch": 56, "duration": 4, "velocity": 71}, {"time": 4020, "pitch": 56, "duration": 14, "velocity": 82}, {"time": 4020, "pitch": 61, "duration": 14, "velocity": 93}, {"time": 4020, "pitch": 65, "duration": 10, "velocity": 86}, {"time": 4032, "pitch": 49, "duration": 6, "velocity": 76}, {"time": 4038, "pitch": 56, "duration": 4, "velocity": 82}, {"time": 4038, "pitch": 61, "duration": 5, "velocity": 86}, {"time": 4038, "pitch": 65, "duration": 4, "velocity": 82}, {"time": 4044, "pitch": 49, "duration": 4, "velocity": 73}, {"time": 4050, "pitch": 48, "duration": 22, "velocity": 81}, {"time": 4050, "pitch": 58, "duration": 13, "velocity": 78}, {"time": 4050, "pitch": 63, "duration": 7, "velocity": 91}, {"time": 4050, "pitch": 67, "duration": 8, "velocity": 86}, {"time": 4062, "pitch": 63, "duration": 11, "velocity": 84}, {"time": 4068, "pitch": 58, "duration": 6, "velocity": 79}, {"time": 4068, "pitch": 67, "duration": 5, "velocity": 91}, {"time": 4074, "pitch": 41, "duration": 15, "velocity": 86}, {"time": 4080, "pitch": 53, "duration": 12, "velocity": 84}, {"time": 4086, "pitch": 60, "duration": 7, "velocity": 83}, {"time": 4086, "pitch": 63, "duration": 7, "velocity": 84}, {"time": 4086, "pitch": 68, "duration": 1, "velocity": 58}, {"time": 4092, "pitch": 68, "duration": 4, "velocity": 82}, {"time": 4098, "pitch": 46, "duration": 37, "velocity": 83}, {"time": 4098, "pitch": 58, "duration": 9, "velocity": 78}, {"time": 4098, "pitch": 61, "duration": 10, "velocity": 86}, {"time": 4098, "pitch": 65, "duration": 9, "velocity": 81}, {"time": 4104, "pitch": 53, "duration": 14, "velocity": 81}, {"time": 4110, "pitch": 58, "duration": 4, "velocity": 71}, {"time": 4116, "pitch": 58, "duration": 14, "velocity": 81}, {"time": 4116, "pitch": 61, "duration": 14, "velocity": 90}, {"time": 4116, "pitch": 65, "duration": 14, "velocity": 86}, {"time": 4128, "pitch": 53, "duration": 6, "velocity": 83}, {"time": 4134, "pitch": 58, "duration": 4, "velocity": 79}, {"time": 4134, "pitch": 63, "duration": 9, "velocity": 84}, {"time": 4140, "pitch": 65, "duration": 3, "velocity": 80}, {"time": 4146, "pitch": 39, "duration": 20, "velocity": 84}, {"time": 4146, "pitch": 56, "duration": 9, "velocity": 84}, {"time": 4146, "pitch": 61, "duration": 9, "velocity": 84}, {"time": 4146, "pitch": 65, "duration": 8, "velocity": 82}, {"time": 4152, "pitch": 51, "duration": 15, "velocity": 80}, {"time": 4158, "pitch": 56, "duration": 4, "velocity": 90}, {"time": 4164, "pitch": 61, "duration": 4, "velocity": 90}, {"time": 4170, "pitch": 41, "duration": 12, "velocity": 90}, {"time": 4170, "pitch": 58, "duration": 4, "velocity": 83}, {"time": 4170, "pitch": 63, "duration": 9, "velocity": 86}, {"time": 4176, "pitch": 65, "duration": 1, "velocity": 54}, {"time": 4182, "pitch": 43, "duration": 3, "velocity": 94}, {"time": 4182, "pitch": 58, "duration": 3, "velocity": 80}, {"time": 4182, "pitch": 67, "duration": 3, "velocity": 86}, {"time": 4194, "pitch": 44, "duration": 39, "velocity": 86}, {"time": 4194, "pitch": 61, "duration": 12, "velocity": 90}, {"time": 4194, "pitch": 68, "duration": 12, "velocity": 82}, {"time": 4200, "pitch": 51, "duration": 28, "velocity": 80}, {"time": 4206, "pitch": 56, "duration": 12, "velocity": 75}, {"time": 4212, "pitch": 60, "duration": 3, "velocity": 77}, {"time": 4212, "pitch": 63, "duration": 3, "velocity": 82}, {"time": 4212, "pitch": 68, "duration": 2, "velocity": 76}, {"time": 4218, "pitch": 60, "duration": 7, "velocity": 83}, {"time": 4218, "pitch": 63, "duration": 7, "velocity": 84}, {"time": 4218, "pitch": 68, "duration": 7, "velocity": 79}, {"time": 4224, "pitch": 56, "duration": 6, "velocity": 61}, {"time": 4230, "pitch": 60, "duration": 3, "velocity": 82}, {"time": 4230, "pitch": 63, "duration": 3, "velocity": 82}, {"time": 4230, "pitch": 68, "duration": 2, "velocity": 72}, {"time": 4236, "pitch": 51, "duration": 5, "velocity": 72}, {"time": 4236, "pitch": 68, "duration": 4, "velocity": 80}, {"time": 4242, "pitch": 43, "duration": 40, "velocity": 94}, {"time": 4242, "pitch": 58, "duration": 14, "velocity": 82}, {"time": 4242, "pitch": 63, "duration": 14, "velocity": 82}, {"time": 4242, "pitch": 67, "duration": 10, "velocity": 79}, {"time": 4248, "pitch": 51, "duration": 32, "velocity": 75}, {"time": 4254, "pitch": 55, "duration": 13, "velocity": 61}, {"time": 4260, "pitch": 58, "duration": 5, "velocity": 71}, {"time": 4266, "pitch": 58, "duration": 9, "velocity": 51}, {"time": 4266, "pitch": 63, "duration": 9, "velocity": 93}, {"time": 4266, "pitch": 67, "duration": 7, "velocity": 75}, {"time": 4272, "pitch": 55, "duration": 6, "velocity": 83}, {"time": 4278, "pitch": 58, "duration": 7, "velocity": 81}, {"time": 4284, "pitch": 67, "duration": 4, "velocity": 76}, {"time": 4290, "pitch": 41, "duration": 9, "velocity": 84}, {"time": 4290, "pitch": 60, "duration": 17, "velocity": 82}, {"time": 4290, "pitch": 63, "duration": 16, "velocity": 86}, {"time": 4290, "pitch": 68, "duration": 14, "velocity": 84}, {"time": 4296, "pitch": 48, "duration": 4, "velocity": 80}, {"time": 4302, "pitch": 53, "duration": 6, "velocity": 62}, {"time": 4308, "pitch": 55, "duration": 22, "velocity": 71}, {"time": 4314, "pitch": 56, "duration": 8, "velocity": 80}, {"time": 4317, "pitch": 60, "duration": 4, "velocity": 80}, {"time": 4317, "pitch": 67, "duration": 4, "velocity": 94}, {"time": 4320, "pitch": 60, "duration": 1, "velocity": 61}, {"time": 4320, "pitch": 67, "duration": 1, "velocity": 33}, {"time": 4320, "pitch": 68, "duration": 4, "velocity": 86}, {"time": 4326, "pitch": 56, "duration": 2, "velocity": 79}, {"time": 4326, "pitch": 60, "duration": 3, "velocity": 39}, {"time": 4326, "pitch": 67, "duration": 4, "velocity": 86}, {"time": 4326, "pitch": 68, "duration": 1, "velocity": 58}, {"time": 4332, "pitch": 63, "duration": 3, "velocity": 82}, {"time": 4338, "pitch": 48, "duration": 37, "velocity": 93}, {"time": 4338, "pitch": 58, "duration": 8, "velocity": 80}, {"time": 4338, "pitch": 63, "duration": 9, "velocity": 90}, {"time": 4338, "pitch": 67, "duration": 8, "velocity": 82}, {"time": 4344, "pitch": 55, "duration": 32, "velocity": 81}, {"time": 4350, "pitch": 58, "duration": 19, "velocity": 72}, {"time": 4356, "pitch": 63, "duration": 8, "velocity": 90}, {"time": 4356, "pitch": 67, "duration": 8, "velocity": 90}, {"time": 4368, "pitch": 63, "duration": 6, "velocity": 84}, {"time": 4368, "pitch": 68, "duration": 4, "velocity": 84}, {"time": 4374, "pitch": 58, "duration": 1, "velocity": 63}, {"time": 4374, "pitch": 67, "duration": 2, "velocity": 82}, {"time": 4374, "pitch": 68, "duration": 2, "velocity": 79}, {"time": 4380, "pitch": 63, "duration": 4, "velocity": 82}, {"time": 4386, "pitch": 37, "duration": 44, "velocity": 95}, {"time": 4386, "pitch": 56, "duration": 9, "velocity": 75}, {"time": 4386, "pitch": 61, "duration": 10, "velocity": 80}, {"time": 4386, "pitch": 65, "duration": 8, "velocity": 80}, {"time": 4392, "pitch": 49, "duration": 20, "velocity": 75}, {"time": 4398, "pitch": 56, "duration": 4, "velocity": 61}, {"time": 4404, "pitch": 56, "duration": 13, "velocity": 80}, {"time": 4404, "pitch": 61, "duration": 12, "velocity": 84}, {"time": 4404, "pitch": 65, "duration": 9, "velocity": 84}, {"time": 4416, "pitch": 49, "duration": 8, "velocity": 80}, {"time": 4422, "pitch": 56, "duration": 4, "velocity": 84}, {"time": 4422, "pitch": 61, "duration": 8, "velocity": 84}, {"time": 4422, "pitch": 65, "duration": 4, "velocity": 84}, {"time": 4428, "pitch": 49, "duration": 9, "velocity": 72}, {"time": 4434, "pitch": 48, "duration": 23, "velocity": 73}, {"time": 4434, "pitch": 58, "duration": 14, "velocity": 80}, {"time": 4434, "pitch": 63, "duration": 8, "velocity": 90}, {"time": 4434, "pitch": 67, "duration": 9, "velocity": 90}, {"time": 4446, "pitch": 63, "duration": 7, "velocity": 80}, {"time": 4452, "pitch": 67, "duration": 3, "velocity": 84}, {"time": 4458, "pitch": 41, "duration": 14, "velocity": 84}, {"time": 4458, "pitch": 60, "duration": 8, "velocity": 84}, {"time": 4458, "pitch": 63, "duration": 8, "velocity": 86}, {"time": 4458, "pitch": 68, "duration": 8, "velocity": 86}, {"time": 4464, "pitch": 53, "duration": 11, "velocity": 76}, {"time": 4470, "pitch": 60, "duration": 5, "velocity": 79}, {"time": 4470, "pitch": 63, "duration": 9, "velocity": 84}, {"time": 4476, "pitch": 68, "duration": 4, "velocity": 78}, {"time": 4482, "pitch": 46, "duration": 37, "velocity": 84}, {"time": 4482, "pitch": 58, "duration": 8, "velocity": 76}, {"time": 4482, "pitch": 61, "duration": 8, "velocity": 86}, {"time": 4482, "pitch": 65, "duration": 7, "velocity": 82}, {"time": 4482, "pitch": 68, "duration": 2, "velocity": 61}, {"time": 4488, "pitch": 53, "duration": 20, "velocity": 59}, {"time": 4494, "pitch": 58, "duration": 4, "velocity": 73}, {"time": 4500, "pitch": 58, "duration": 13, "velocity": 80}, {"time": 4500, "pitch": 61, "duration": 12, "velocity": 86}, {"time": 4500, "pitch": 65, "duration": 11, "velocity": 84}, {"time": 4512, "pitch": 53, "duration": 7, "velocity": 83}, {"time": 4518, "pitch": 58, "duration": 4, "velocity": 78}, {"time": 4518, "pitch": 61, "duration": 4, "velocity": 84}, {"time": 4518, "pitch": 65, "duration": 4, "velocity": 78}, {"time": 4524, "pitch": 63, "duration": 4, "velocity": 79}, {"time": 4530, "pitch": 39, "duration": 35, "velocity": 84}, {"time": 4530, "pitch": 56, "duration": 8, "velocity": 84}, {"time": 4530, "pitch": 61, "duration": 9, "velocity": 90}, {"time": 4530, "pitch": 65, "duration": 8, "velocity": 83}, {"time": 4536, "pitch": 51, "duration": 20, "velocity": 75}, {"time": 4542, "pitch": 56, "duration": 4, "velocity": 78}, {"time": 4548, "pitch": 56, "duration": 1, "velocity": 30}, {"time": 4548, "pitch": 61, "duration": 4, "velocity": 81}, {"time": 4554, "pitch": 56, "duration": 8, "velocity": 79}, {"time": 4554, "pitch": 65, "duration": 8, "velocity": 82}, {"time": 4560, "pitch": 51, "duration": 13, "velocity": 60}, {"time": 4566, "pitch": 56, "duration": 6, "velocity": 73}, {"time": 4572, "pitch": 61, "duration": 4, "velocity": 79}, {"time": 4578, "pitch": 44, "duration": 76, "velocity": 77}, {"time": 4578, "pitch": 61, "duration": 9, "velocity": 78}, {"time": 4578, "pitch": 68, "duration": 14, "velocity": 80}, {"time": 4584, "pitch": 51, "duration": 68, "velocity": 75}, {"time": 4590, "pitch": 56, "duration": 63, "velocity": 67}, {"time": 4596, "pitch": 61, "duration": 4, "velocity": 75}, {"time": 4602, "pitch": 63, "duration": 5, "velocity": 75}, {"time": 4608, "pitch": 68, "duration": 2, "velocity": 62}, {"time": 4614, "pitch": 70, "duration": 4, "velocity": 63}, {"time": 4620, "pitch": 72, "duration": 4, "velocity": 58}, {"time": 4626, "pitch": 63, "duration": 25, "velocity": 52}, {"time": 4626, "pitch": 75, "duration": 24, "velocity": 58}, {"time": 4644, "pitch": 75, "duration": 6, "velocity": 79}, {"time": 4674, "pitch": 44, "duration": 8, "velocity": 57}, {"time": 4680, "pitch": 51, "duration": 4, "velocity": 69}, {"time": 4686, "pitch": 56, "duration": 7, "velocity": 57}, {"time": 4692, "pitch": 58, "duration": 14, "velocity": 57}, {"time": 4698, "pitch": 60, "duration": 7, "velocity": 69}, {"time": 4722, "pitch": 55, "duration": 38, "velocity": 75}, {"time": 4728, "pitch": 63, "duration": 29, "velocity": 69}, {"time": 4734, "pitch": 67, "duration": 21, "velocity": 58}, {"time": 4770, "pitch": 53, "duration": 38, "velocity": 72}, {"time": 4770, "pitch": 63, "duration": 7, "velocity": 55}, {"time": 4776, "pitch": 60, "duration": 16, "velocity": 69}, {"time": 4800, "pitch": 60, "duration": 11, "velocity": 73}, {"time": 4818, "pitch": 51, "duration": 37, "velocity": 75}, {"time": 4824, "pitch": 60, "duration": 32, "velocity": 68}, {"time": 4830, "pitch": 63, "duration": 10, "velocity": 51}, {"time": 4848, "pitch": 63, "duration": 5, "velocity": 53}, {"time": 4866, "pitch": 49, "duration": 35, "velocity": 76}, {"time": 4872, "pitch": 56, "duration": 31, "velocity": 68}, {"time": 4878, "pitch": 61, "duration": 12, "velocity": 39}, {"time": 4896, "pitch": 61, "duration": 3, "velocity": 56}, {"time": 4914, "pitch": 48, "duration": 8, "velocity": 80}, {"time": 4914, "pitch": 63, "duration": 8, "velocity": 75}, {"time": 4920, "pitch": 60, "duration": 7, "velocity": 56}, {"time": 4932, "pitch": 63, "duration": 13, "velocity": 69}, {"time": 4938, "pitch": 53, "duration": 15, "velocity": 82}, {"time": 4944, "pitch": 60, "duration": 9, "velocity": 73}, {"time": 4962, "pitch": 46, "duration": 35, "velocity": 79}, {"time": 4962, "pitch": 65, "duration": 12, "velocity": 63}, {"time": 4968, "pitch": 53, "duration": 30, "velocity": 75}, {"time": 4974, "pitch": 58, "duration": 23, "velocity": 55}, {"time": 4980, "pitch": 63, "duration": 8, "velocity": 68}, {"time": 4992, "pitch": 63, "duration": 3, "velocity": 58}, {"time": 5010, "pitch": 51, "duration": 53, "velocity": 68}, {"time": 5010, "pitch": 63, "duration": 12, "velocity": 59}], "annotations": [{"time": 21, "annotation": {"number": 64, "value": 127}, "group": "control_change"}, {"time": 66, "annotation": {"number": 64, "value": 0}, "group": "control_change"}, {"time": 76, "annotation": {"number": 64, "value": 127}, "group": "control_change"}, {"time": 115, "annotation": {"number": 64, "value": 0}, "group": "control_change"}, {"time": 126, "annotation": {"number": 64, "value": 127}, "group": "control_change"}, {"time": 161, "annotation": {"number": 64, "value": 127}, "group": "control_change"}, {"time": 162, "annotation": {"number": 64, "value": 0}, "group": "control_change"}, {"time": 216, "annotation": {"number": 64, "value": 127}, "group": "control_change"}, {"time": 258, "annotation": {"number": 64, "value": 0}, "group": "control_change"}, {"time": 268, "annotation": {"number": 64, "value": 127}, "group": "control_change"}, {"time": 308, "annotation": {"number": 64, "value": 0}, "group": "control_change"}, {"time": 316, "annotation": {"number": 64, "value": 127}, "group": "control_change"}, {"time": 354, "annotation": {"number": 64, "value": 0}, "group": "control_change"}, {"time": 363, "annotation": {"number": 64, "value": 127}, "group": "control_change"}, {"time": 403, "annotation": {"number": 64, "value": 0}, "group": "control_change"}, {"time": 412, "annotation": {"number": 64, "value": 127}, "group": "control_change"}, {"time": 450, "annotation": {"number": 64, "value": 0}, "group": "control_change"}, {"time": 451, "annotation": {"number": 64, "value": 127}, "group": "control_change"}, {"time": 497, "annotation": {"number": 64, "value": 0}, "group": "control_change"}, {"time": 509, "annotation": {"number": 64, "value": 127}, "group": "control_change"}, {"time": 545, "annotation": {"number": 64, "value": 0}, "group": "control_change"}, {"time": 552, "annotation": {"number": 64, "value": 127}, "group": "control_change"}, {"time": 592, "annotation": {"number": 64, "value": 0}, "group": "control_change"}, {"time": 599, "annotation": {"number": 64, "value": 127}, "group": "control_change"}, {"time": 644, "annotation": {"number": 64, "value": 0}, "group": "control_change"}, {"time": 654, "annotation": {"number": 64, "value": 127}, "group": "control_change"}, {"time": 690, "annotation": {"number": 64, "value": 0}, "group": "control_change"}, {"time": 698, "annotation": {"number": 64, "value": 127}, "group": "control_change"}, {"time": 737, "annotation": {"number": 64, "value": 0}, "group": "control_change"}, {"time": 746, "annotation": {"number": 64, "value": 127}, "group": "control_change"}, {"time": 788, "annotation": {"number": 64, "value": 0}, "group": "control_change"}, {"time": 795, "annotation": {"number": 64, "value": 127}, "group": "control_change"}, {"time": 833, "annotation": {"number": 64, "value": 0}, "group": "control_change"}, {"time": 836, "annotation": {"number": 64, "value": 127}, "group": "control_change"}, {"time": 858, "annotation": {"number": 64, "value": 0}, "group": "control_change"}, {"time": 866, "annotation": {"number": 64, "value": 127}, "group": "control_change"}, {"time": 884, "annotation": {"number": 64, "value": 0}, "group": "control_change"}, {"time": 893, "annotation": {"number": 64, "value": 127}, "group": "control_change"}, {"time": 931, "annotation": {"number": 64, "value": 0}, "group": "control_change"}, {"time": 939, "annotation": {"number": 64, "value": 127}, "group": "control_change"}, {"time": 978, "annotation": {"number": 64, "value": 0}, "group": "control_change"}, {"time": 978, "annotation": {"number": 64, "value": 127}, "group": "control_change"}, {"time": 1024, "annotation": {"number": 64, "value": 0}, "group": "control_change"}, {"time": 1026, "annotation": {"number": 64, "value": 127}, "group": "control_change"}, {"time": 1071, "annotation": {"number": 64, "value": 0}, "group": "control_change"}, {"time": 1077, "annotation": {"number": 64, "value": 127}, "group": "control_change"}, {"time": 1121, "annotation": {"number": 64, "value": 0}, "group": "control_change"}, {"time": 1129, "annotation": {"number": 64, "value": 127}, "group": "control_change"}, {"time": 1171, "annotation": {"number": 64, "value": 0}, "group": "control_change"}, {"time": 1184, "annotation": {"number": 64, "value": 127}, "group": "control_change"}, {"time": 1218, "annotation": {"number": 64, "value": 0}, "group": "control_change"}, {"time": 1228, "annotation": {"number": 64, "value": 127}, "group": "control_change"}, {"time": 1264, "annotation": {"number": 64, "value": 0}, "group": "control_change"}, {"time": 1275, "annotation": {"number": 64, "value": 127}, "group": "control_change"}, {"time": 1314, "annotation": {"number": 64, "value": 0}, "group": "control_change"}, {"time": 1320, "annotation": {"number": 64, "value": 127}, "group": "control_change"}, {"time": 1361, "annotation": {"number": 64, "value": 0}, "group": "control_change"}, {"time": 1366, "annotation": {"number": 64, "value": 127}, "group": "control_change"}, {"time": 1409, "annotation": {"number": 64, "value": 0}, "group": "control_change"}, {"time": 1422, "annotation": {"number": 64, "value": 127}, "group": "control_change"}, {"time": 1458, "annotation": {"number": 64, "value": 0}, "group": "control_change"}, {"time": 1463, "annotation": {"number": 64, "value": 127}, "group": "control_change"}, {"time": 1506, "annotation": {"number": 64, "value": 0}, "group": "control_change"}, {"time": 1512, "annotation": {"number": 64, "value": 127}, "group": "control_change"}, {"time": 1552, "annotation": {"number": 64, "value": 0}, "group": "control_change"}, {"time": 1558, "annotation": {"number": 64, "value": 127}, "group": "control_change"}, {"time": 1602, "annotation": {"number": 64, "value": 0}, "group": "control_change"}, {"time": 1612, "annotation": {"number": 64, "value": 127}, "group": "control_change"}, {"time": 1649, "annotation": {"number": 64, "value": 0}, "group": "control_change"}, {"time": 1652, "annotation": {"number": 64, "value": 127}, "group": "control_change"}, {"time": 1673, "annotation": {"number": 64, "value": 0}, "group": "control_change"}, {"time": 1679, "annotation": {"number": 64, "value": 127}, "group": "control_change"}, {"time": 1698, "annotation": {"number": 64, "value": 0}, "group": "control_change"}, {"time": 1700, "annotation": {"number": 64, "value": 127}, "group": "control_change"}, {"time": 1745, "annotation": {"number": 64, "value": 0}, "group": "control_change"}, {"time": 1751, "annotation": {"number": 64, "value": 127}, "group": "control_change"}, {"time": 1792, "annotation": {"number": 64, "value": 0}, "group": "control_change"}, {"time": 1798, "annotation": {"number": 64, "value": 127}, "group": "control_change"}, {"time": 1842, "annotation": {"number": 64, "value": 0}, "group": "control_change"}, {"time": 1845, "annotation": {"number": 64, "value": 127}, "group": "control_change"}, {"time": 1890, "annotation": {"number": 64, "value": 0}, "group": "control_change"}, {"time": 1891, "annotation": {"number": 64, "value": 0}, "group": "control_change"}, {"time": 1893, "annotation": {"number": 64, "value": 127}, "group": "control_change"}, {"time": 1941, "annotation": {"number": 64, "value": 0}, "group": "control_change"}, {"time": 1946, "annotation": {"number": 64, "value": 127}, "group": "control_change"}, {"time": 1988, "annotation": {"number": 64, "value": 0}, "group": "control_change"}, {"time": 1993, "annotation": {"number": 64, "value": 127}, "group": "control_change"}, {"time": 2034, "annotation": {"number": 64, "value": 0}, "group": "control_change"}, {"time": 2039, "annotation": {"number": 64, "value": 127}, "group": "control_change"}, {"time": 2082, "annotation": {"number": 64, "value": 0}, "group": "control_change"}, {"time": 2088, "annotation": {"number": 64, "value": 127}, "group": "control_change"}, {"time": 2130, "annotation": {"number": 64, "value": 0}, "group": "control_change"}, {"time": 2134, "annotation": {"number": 64, "value": 127}, "group": "control_change"}, {"time": 2136, "annotation": {"number": 64, "value": 127}, "group": "control_change"}, {"time": 2151, "annotation": {"number": 64, "value": 0}, "group": "control_change"}, {"time": 2152, "annotation": {"number": 64, "value": 0}, "group": "control_change"}, {"time": 2163, "annotation": {"number": 64, "value": 127}, "group": "control_change"}, {"time": 2177, "annotation": {"number": 64, "value": 0}, "group": "control_change"}, {"time": 2186, "annotation": {"number": 64, "value": 127}, "group": "control_change"}, {"time": 2224, "annotation": {"number": 64, "value": 0}, "group": "control_change"}, {"time": 2230, "annotation": {"number": 64, "value": 127}, "group": "control_change"}, {"time": 2273, "annotation": {"number": 64, "value": 0}, "group": "control_change"}, {"time": 2279, "annotation": {"number": 64, "value": 127}, "group": "control_change"}, {"time": 2324, "annotation": {"number": 64, "value": 0}, "group": "control_change"}, {"time": 2334, "annotation": {"number": 64, "value": 127}, "group": "control_change"}, {"time": 2370, "annotation": {"number": 64, "value": 0}, "group": "control_change"}, {"time": 2378, "annotation": {"number": 64, "value": 127}, "group": "control_change"}, {"time": 2417, "annotation": {"number": 64, "value": 0}, "group": "control_change"}, {"time": 2426, "annotation": {"number": 64, "value": 127}, "group": "control_change"}, {"time": 2468, "annotation": {"number": 64, "value": 0}, "group": "control_change"}, {"time": 2475, "annotation": {"number": 64, "value": 127}, "group": "control_change"}, {"time": 2513, "annotation": {"number": 64, "value": 0}, "group": "control_change"}, {"time": 2516, "annotation": {"number": 64, "value": 127}, "group": "control_change"}, {"time": 2538, "annotation": {"number": 64, "value": 0}, "group": "control_change"}, {"time": 2546, "annotation": {"number": 64, "value": 127}, "group": "control_change"}, {"time": 2564, "annotation": {"number": 64, "value": 0}, "group": "control_change"}, {"time": 2573, "annotation": {"number": 64, "value": 127}, "group": "control_change"}, {"time": 2611, "annotation": {"number": 64, "value": 0}, "group": "control_change"}, {"time": 2619, "annotation": {"number": 64, "value": 127}, "group": "control_change"}, {"time": 2658, "annotation": {"number": 64, "value": 0}, "group": "control_change"}, {"time": 2658, "annotation": {"number": 64, "value": 127}, "group": "control_change"}, {"time": 2703, "annotation": {"number": 64, "value": 0}, "group": "control_change"}, {"time": 2704, "annotation": {"number": 64, "value": 0}, "group": "control_change"}, {"time": 2706, "annotation": {"number": 64, "value": 127}, "group": "control_change"}, {"time": 2706, "annotation": {"number": 64, "value": 0}, "group": "control_change"}, {"time": 2709, "annotation": {"number": 64, "value": 127}, "group": "control_change"}, {"time": 2753, "annotation": {"number": 64, "value": 0}, "group": "control_change"}, {"time": 2761, "annotation": {"number": 64, "value": 127}, "group": "control_change"}, {"time": 2803, "annotation": {"number": 64, "value": 0}, "group": "control_change"}, {"time": 2816, "annotation": {"number": 64, "value": 127}, "group": "control_change"}, {"time": 2850, "annotation": {"number": 64, "value": 0}, "group": "control_change"}, {"time": 2860, "annotation": {"number": 64, "value": 127}, "group": "control_change"}, {"time": 2896, "annotation": {"number": 64, "value": 0}, "group": "control_change"}, {"time": 2907, "annotation": {"number": 64, "value": 127}, "group": "control_change"}, {"time": 2946, "annotation": {"number": 64, "value": 0}, "group": "control_change"}, {"time": 2952, "annotation": {"number": 64, "value": 127}, "group": "control_change"}, {"time": 2993, "annotation": {"number": 64, "value": 0}, "group": "control_change"}, {"time": 2998, "annotation": {"number": 64, "value": 127}, "group": "control_change"}, {"time": 3041, "annotation": {"number": 64, "value": 0}, "group": "control_change"}, {"time": 3054, "annotation": {"number": 64, "value": 127}, "group": "control_change"}, {"time": 3090, "annotation": {"number": 64, "value": 0}, "group": "control_change"}, {"time": 3095, "annotation": {"number": 64, "value": 127}, "group": "control_change"}, {"time": 3138, "annotation": {"number": 64, "value": 0}, "group": "control_change"}, {"time": 3144, "annotation": {"number": 64, "value": 127}, "group": "control_change"}, {"time": 3184, "annotation": {"number": 64, "value": 0}, "group": "control_change"}, {"time": 3190, "annotation": {"number": 64, "value": 127}, "group": "control_change"}, {"time": 3234, "annotation": {"number": 64, "value": 0}, "group": "control_change"}, {"time": 3244, "annotation": {"number": 64, "value": 127}, "group": "control_change"}, {"time": 3281, "annotation": {"number": 64, "value": 0}, "group": "control_change"}, {"time": 3284, "annotation": {"number": 64, "value": 127}, "group": "control_change"}, {"time": 3305, "annotation": {"number": 64, "value": 0}, "group": "control_change"}, {"time": 3311, "annotation": {"number": 64, "value": 127}, "group": "control_change"}, {"time": 3330, "annotation": {"number": 64, "value": 0}, "group": "control_change"}, {"time": 3332, "annotation": {"number": 64, "value": 127}, "group": "control_change"}, {"time": 3377, "annotation": {"number": 64, "value": 0}, "group": "control_change"}, {"time": 3383, "annotation": {"number": 64, "value": 127}, "group": "control_change"}, {"time": 3424, "annotation": {"number": 64, "value": 0}, "group": "control_change"}, {"time": 3427, "annotation": {"number": 64, "value": 127}, "group": "control_change"}, {"time": 3476, "annotation": {"number": 64, "value": 0}, "group": "control_change"}, {"time": 3483, "annotation": {"number": 64, "value": 127}, "group": "control_change"}, {"time": 3523, "annotation": {"number": 64, "value": 0}, "group": "control_change"}, {"time": 3529, "annotation": {"number": 64, "value": 127}, "group": "control_change"}, {"time": 3570, "annotation": {"number": 64, "value": 0}, "group": "control_change"}, {"time": 3577, "annotation": {"number": 64, "value": 127}, "group": "control_change"}, {"time": 3619, "annotation": {"number": 64, "value": 0}, "group": "control_change"}, {"time": 3625, "annotation": {"number": 64, "value": 127}, "group": "control_change"}, {"time": 3664, "annotation": {"number": 64, "value": 0}, "group": "control_change"}, {"time": 3670, "annotation": {"number": 64, "value": 127}, "group": "control_change"}, {"time": 3691, "annotation": {"number": 64, "value": 0}, "group": "control_change"}, {"time": 3697, "annotation": {"number": 64, "value": 127}, "group": "control_change"}, {"time": 3714, "annotation": {"number": 64, "value": 0}, "group": "control_change"}, {"time": 3721, "annotation": {"number": 64, "value": 127}, "group": "control_change"}, {"time": 3763, "annotation": {"number": 64, "value": 0}, "group": "control_change"}, {"time": 3770, "annotation": {"number": 64, "value": 127}, "group": "control_change"}, {"time": 3786, "annotation": {"number": 64, "value": 0}, "group": "control_change"}, {"time": 3792, "annotation": {"number": 64, "value": 127}, "group": "control_change"}, {"time": 3809, "annotation": {"number": 64, "value": 0}, "group": "control_change"}, {"time": 3815, "annotation": {"number": 64, "value": 127}, "group": "control_change"}, {"time": 3858, "annotation": {"number": 64, "value": 0}, "group": "control_change"}, {"time": 3864, "annotation": {"number": 64, "value": 127}, "group": "control_change"}, {"time": 3906, "annotation": {"number": 64, "value": 0}, "group": "control_change"}, {"time": 3911, "annotation": {"number": 64, "value": 127}, "group": "control_change"}, {"time": 3955, "annotation": {"number": 64, "value": 0}, "group": "control_change"}, {"time": 3961, "annotation": {"number": 64, "value": 127}, "group": "control_change"}, {"time": 4004, "annotation": {"number": 64, "value": 0}, "group": "control_change"}, {"time": 4011, "annotation": {"number": 64, "value": 127}, "group": "control_change"}, {"time": 4050, "annotation": {"number": 64, "value": 0}, "group": "control_change"}, {"time": 4056, "annotation": {"number": 64, "value": 127}, "group": "control_change"}, {"time": 4073, "annotation": {"number": 64, "value": 0}, "group": "control_change"}, {"time": 4079, "annotation": {"number": 64, "value": 127}, "group": "control_change"}, {"time": 4098, "annotation": {"number": 64, "value": 0}, "group": "control_change"}, {"time": 4106, "annotation": {"number": 64, "value": 127}, "group": "control_change"}, {"time": 4148, "annotation": {"number": 64, "value": 0}, "group": "control_change"}, {"time": 4156, "annotation": {"number": 64, "value": 127}, "group": "control_change"}, {"time": 4179, "annotation": {"number": 64, "value": 0}, "group": "control_change"}, {"time": 4184, "annotation": {"number": 64, "value": 127}, "group": "control_change"}, {"time": 4195, "annotation": {"number": 64, "value": 0}, "group": "control_change"}, {"time": 4202, "annotation": {"number": 64, "value": 127}, "group": "control_change"}, {"time": 4243, "annotation": {"number": 64, "value": 0}, "group": "control_change"}, {"time": 4251, "annotation": {"number": 64, "value": 127}, "group": "control_change"}, {"time": 4290, "annotation": {"number": 64, "value": 0}, "group": "control_change"}, {"time": 4298, "annotation": {"number": 64, "value": 127}, "group": "control_change"}, {"time": 4341, "annotation": {"number": 64, "value": 0}, "group": "control_change"}, {"time": 4347, "annotation": {"number": 64, "value": 127}, "group": "control_change"}, {"time": 4387, "annotation": {"number": 64, "value": 0}, "group": "control_change"}, {"time": 4393, "annotation": {"number": 64, "value": 127}, "group": "control_change"}, {"time": 4434, "annotation": {"number": 64, "value": 0}, "group": "control_change"}, {"time": 4441, "annotation": {"number": 64, "value": 127}, "group": "control_change"}, {"time": 4461, "annotation": {"number": 64, "value": 0}, "group": "control_change"}, {"time": 4467, "annotation": {"number": 64, "value": 127}, "group": "control_change"}, {"time": 4484, "annotation": {"number": 64, "value": 0}, "group": "control_change"}, {"time": 4491, "annotation": {"number": 64, "value": 127}, "group": "control_change"}, {"time": 4531, "annotation": {"number": 64, "value": 0}, "group": "control_change"}, {"time": 4538, "annotation": {"number": 64, "value": 127}, "group": "control_change"}, {"time": 4579, "annotation": {"number": 64, "value": 0}, "group": "control_change"}, {"time": 4587, "annotation": {"number": 64, "value": 127}, "group": "control_change"}, {"time": 4645, "annotation": {"number": 64, "value": 127}, "group": "control_change"}, {"time": 4674, "annotation": {"number": 64, "value": 0}, "group": "control_change"}, {"time": 4681, "annotation": {"number": 64, "value": 127}, "group": "control_change"}, {"time": 4724, "annotation": {"number": 64, "value": 0}, "group": "control_change"}, {"time": 4731, "annotation": {"number": 64, "value": 127}, "group": "control_change"}, {"time": 4772, "annotation": {"number": 64, "value": 0}, "group": "control_change"}, {"time": 4778, "annotation": {"number": 64, "value": 127}, "group": "control_change"}, {"time": 4820, "annotation": {"number": 64, "value": 0}, "group": "control_change"}, {"time": 4825, "annotation": {"number": 64, "value": 127}, "group": "control_change"}, {"time": 4866, "annotation": {"number": 64, "value": 0}, "group": "control_change"}, {"time": 4872, "annotation": {"number": 64, "value": 127}, "group": "control_change"}, {"time": 4914, "annotation": {"number": 64, "value": 0}, "group": "control_change"}, {"time": 4919, "annotation": {"number": 64, "value": 127}, "group": "control_change"}, {"time": 4938, "annotation": {"number": 64, "value": 0}, "group": "control_change"}, {"time": 4944, "annotation": {"number": 64, "value": 127}, "group": "control_change"}, {"time": 4964, "annotation": {"number": 64, "value": 0}, "group": "control_change"}, {"time": 4970, "annotation": {"number": 64, "value": 127}, "group": "control_change"}, {"time": 5011, "annotation": {"number": 64, "value": 0}, "group": "control_change"}, {"time": 5016, "annotation": {"number": 64, "value": 127}, "group": "control_change"}, {"time": 5105, "annotation": {"number": 64, "value": 0}, "group": "control_change"}]}]}