{"metadata": {"schema_version": "0.2", "title": "None", "source_filename": "259.mid", "source_format": "midi"}, "resolution": 12, "tempos": [{"time": 0, "qpm": 120.0}], "time_signatures": [{"time": 0, "numerator": 4, "denominator": 4}], "tracks": [{"program": 0, "is_drum": false, "name": "MELODY", "notes": [{"time": 489, "pitch": 72, "duration": 6, "velocity": 77}, {"time": 495, "pitch": 74, "duration": 6, "velocity": 64}, {"time": 501, "pitch": 77, "duration": 6, "velocity": 79}, {"time": 507, "pitch": 74, "duration": 7, "velocity": 62}, {"time": 513, "pitch": 79, "duration": 6, "velocity": 92}, {"time": 519, "pitch": 81, "duration": 60, "velocity": 97}, {"time": 579, "pitch": 72, "duration": 6, "velocity": 47}, {"time": 585, "pitch": 81, "duration": 6, "velocity": 66}, {"time": 591, "pitch": 79, "duration": 6, "velocity": 62}, {"time": 597, "pitch": 79, "duration": 6, "velocity": 76}, {"time": 603, "pitch": 77, "duration": 6, "velocity": 54}, {"time": 609, "pitch": 77, "duration": 12, "velocity": 79}, {"time": 621, "pitch": 74, "duration": 7, "velocity": 50}, {"time": 627, "pitch": 77, "duration": 54, "velocity": 66}, {"time": 681, "pitch": 72, "duration": 6, "velocity": 66}, {"time": 687, "pitch": 74, "duration": 6, "velocity": 52}, {"time": 693, "pitch": 77, "duration": 6, "velocity": 65}, {"time": 699, "pitch": 74, "duration": 19, "velocity": 58}, {"time": 717, "pitch": 77, "duration": 6, "velocity": 56}, {"time": 723, "pitch": 79, "duration": 54, "velocity": 66}, {"time": 777, "pitch": 72, "duration": 6, "velocity": 71}, {"time": 783, "pitch": 74, "duration": 6, "velocity": 61}, {"time": 789, "pitch": 77, "duration": 6, "velocity": 79}, {"time": 795, "pitch": 79, "duration": 6, "velocity": 77}, {"time": 801, "pitch": 81, "duration": 36, "velocity": 77}, {"time": 837, "pitch": 81, "duration": 12, "velocity": 93}, {"time": 849, "pitch": 79, "duration": 24, "velocity": 86}, {"time": 873, "pitch": 72, "duration": 7, "velocity": 65}, {"time": 879, "pitch": 74, "duration": 6, "velocity": 66}, {"time": 885, "pitch": 77, "duration": 6, "velocity": 90}, {"time": 891, "pitch": 74, "duration": 6, "velocity": 65}, {"time": 897, "pitch": 79, "duration": 13, "velocity": 90}, {"time": 909, "pitch": 81, "duration": 54, "velocity": 91}, {"time": 963, "pitch": 72, "duration": 6, "velocity": 62}, {"time": 969, "pitch": 81, "duration": 6, "velocity": 66}, {"time": 975, "pitch": 79, "duration": 6, "velocity": 63}, {"time": 981, "pitch": 79, "duration": 6, "velocity": 66}, {"time": 987, "pitch": 77, "duration": 6, "velocity": 54}, {"time": 993, "pitch": 77, "duration": 12, "velocity": 68}, {"time": 1005, "pitch": 74, "duration": 6, "velocity": 54}, {"time": 1011, "pitch": 77, "duration": 54, "velocity": 67}, {"time": 1065, "pitch": 72, "duration": 6, "velocity": 92}, {"time": 1071, "pitch": 74, "duration": 6, "velocity": 65}, {"time": 1077, "pitch": 77, "duration": 6, "velocity": 92}, {"time": 1083, "pitch": 74, "duration": 18, "velocity": 86}, {"time": 1101, "pitch": 77, "duration": 12, "velocity": 69}, {"time": 1113, "pitch": 79, "duration": 48, "velocity": 90}, {"time": 1161, "pitch": 72, "duration": 6, "velocity": 66}, {"time": 1167, "pitch": 74, "duration": 6, "velocity": 56}, {"time": 1173, "pitch": 77, "duration": 6, "velocity": 65}, {"time": 1179, "pitch": 79, "duration": 6, "velocity": 73}, {"time": 1185, "pitch": 81, "duration": 36, "velocity": 81}, {"time": 1221, "pitch": 81, "duration": 12, "velocity": 80}, {"time": 1233, "pitch": 79, "duration": 24, "velocity": 87}, {"time": 1257, "pitch": 72, "duration": 7, "velocity": 77}, {"time": 1263, "pitch": 74, "duration": 6, "velocity": 66}, {"time": 1269, "pitch": 77, "duration": 12, "velocity": 95}, {"time": 1281, "pitch": 79, "duration": 12, "velocity": 89}, {"time": 1293, "pitch": 81, "duration": 6, "velocity": 90}, {"time": 1299, "pitch": 81, "duration": 24, "velocity": 92}, {"time": 1323, "pitch": 81, "duration": 6, "velocity": 100}, {"time": 1329, "pitch": 84, "duration": 12, "velocity": 93}, {"time": 1341, "pitch": 86, "duration": 6, "velocity": 96}, {"time": 1347, "pitch": 81, "duration": 18, "velocity": 94}, {"time": 1365, "pitch": 81, "duration": 6, "velocity": 92}, {"time": 1371, "pitch": 84, "duration": 6, "velocity": 80}, {"time": 1377, "pitch": 86, "duration": 6, "velocity": 90}, {"time": 1383, "pitch": 88, "duration": 6, "velocity": 92}, {"time": 1389, "pitch": 86, "duration": 6, "velocity": 90}, {"time": 1395, "pitch": 88, "duration": 7, "velocity": 90}, {"time": 1401, "pitch": 86, "duration": 9, "velocity": 91}, {"time": 1410, "pitch": 84, "duration": 9, "velocity": 94}, {"time": 1419, "pitch": 84, "duration": 6, "velocity": 89}, {"time": 1425, "pitch": 81, "duration": 36, "velocity": 95}, {"time": 1461, "pitch": 81, "duration": 6, "velocity": 100}, {"time": 1467, "pitch": 79, "duration": 7, "velocity": 79}, {"time": 1473, "pitch": 81, "duration": 12, "velocity": 92}, {"time": 1485, "pitch": 84, "duration": 18, "velocity": 87}, {"time": 1503, "pitch": 81, "duration": 12, "velocity": 97}, {"time": 1515, "pitch": 79, "duration": 6, "velocity": 91}, {"time": 1521, "pitch": 74, "duration": 9, "velocity": 92}, {"time": 1530, "pitch": 77, "duration": 27, "velocity": 91}, {"time": 1557, "pitch": 77, "duration": 6, "velocity": 84}, {"time": 1563, "pitch": 79, "duration": 6, "velocity": 61}, {"time": 1569, "pitch": 81, "duration": 6, "velocity": 66}, {"time": 1575, "pitch": 79, "duration": 6, "velocity": 50}, {"time": 1581, "pitch": 79, "duration": 6, "velocity": 55}, {"time": 1587, "pitch": 77, "duration": 6, "velocity": 56}, {"time": 1593, "pitch": 77, "duration": 9, "velocity": 60}, {"time": 1602, "pitch": 77, "duration": 9, "velocity": 55}, {"time": 1611, "pitch": 74, "duration": 6, "velocity": 57}, {"time": 1617, "pitch": 79, "duration": 24, "velocity": 52}, {"time": 1641, "pitch": 72, "duration": 6, "velocity": 90}, {"time": 1647, "pitch": 74, "duration": 6, "velocity": 89}, {"time": 1653, "pitch": 77, "duration": 12, "velocity": 100}, {"time": 1665, "pitch": 79, "duration": 12, "velocity": 91}, {"time": 1677, "pitch": 81, "duration": 6, "velocity": 93}, {"time": 1683, "pitch": 81, "duration": 24, "velocity": 100}, {"time": 1707, "pitch": 81, "duration": 6, "velocity": 98}, {"time": 1713, "pitch": 84, "duration": 12, "velocity": 99}, {"time": 1725, "pitch": 86, "duration": 7, "velocity": 90}, {"time": 1731, "pitch": 81, "duration": 18, "velocity": 100}, {"time": 1749, "pitch": 81, "duration": 6, "velocity": 97}, {"time": 1755, "pitch": 84, "duration": 6, "velocity": 86}, {"time": 1761, "pitch": 86, "duration": 6, "velocity": 84}, {"time": 1767, "pitch": 88, "duration": 7, "velocity": 79}, {"time": 1773, "pitch": 86, "duration": 6, "velocity": 84}, {"time": 1779, "pitch": 88, "duration": 13, "velocity": 82}, {"time": 1785, "pitch": 86, "duration": 8, "velocity": 87}, {"time": 1791, "pitch": 84, "duration": 12, "velocity": 87}, {"time": 1803, "pitch": 84, "duration": 6, "velocity": 90}, {"time": 1809, "pitch": 81, "duration": 36, "velocity": 90}, {"time": 1845, "pitch": 81, "duration": 6, "velocity": 106}, {"time": 1851, "pitch": 79, "duration": 6, "velocity": 92}, {"time": 1857, "pitch": 81, "duration": 12, "velocity": 95}, {"time": 1869, "pitch": 84, "duration": 18, "velocity": 90}, {"time": 1887, "pitch": 81, "duration": 12, "velocity": 100}, {"time": 1899, "pitch": 79, "duration": 6, "velocity": 96}, {"time": 1905, "pitch": 74, "duration": 9, "velocity": 87}, {"time": 1914, "pitch": 77, "duration": 27, "velocity": 96}, {"time": 1941, "pitch": 74, "duration": 6, "velocity": 99}, {"time": 1947, "pitch": 72, "duration": 7, "velocity": 77}, {"time": 1953, "pitch": 74, "duration": 12, "velocity": 89}, {"time": 1965, "pitch": 77, "duration": 12, "velocity": 84}, {"time": 1977, "pitch": 77, "duration": 9, "velocity": 90}, {"time": 1986, "pitch": 77, "duration": 9, "velocity": 91}, {"time": 1995, "pitch": 81, "duration": 6, "velocity": 91}, {"time": 2001, "pitch": 79, "duration": 18, "velocity": 93}, {"time": 2019, "pitch": 74, "duration": 6, "velocity": 64}, {"time": 2025, "pitch": 74, "duration": 9, "velocity": 87}, {"time": 2034, "pitch": 77, "duration": 9, "velocity": 98}, {"time": 2043, "pitch": 79, "duration": 12, "velocity": 99}, {"time": 2055, "pitch": 77, "duration": 42, "velocity": 103}, {"time": 2505, "pitch": 72, "duration": 6, "velocity": 89}, {"time": 2511, "pitch": 74, "duration": 6, "velocity": 64}, {"time": 2517, "pitch": 77, "duration": 6, "velocity": 79}, {"time": 2523, "pitch": 74, "duration": 7, "velocity": 62}, {"time": 2529, "pitch": 79, "duration": 9, "velocity": 92}, {"time": 2538, "pitch": 81, "duration": 57, "velocity": 97}, {"time": 2595, "pitch": 72, "duration": 6, "velocity": 47}, {"time": 2601, "pitch": 81, "duration": 9, "velocity": 66}, {"time": 2607, "pitch": 79, "duration": 6, "velocity": 62}, {"time": 2613, "pitch": 79, "duration": 6, "velocity": 76}, {"time": 2619, "pitch": 77, "duration": 6, "velocity": 54}, {"time": 2625, "pitch": 77, "duration": 12, "velocity": 79}, {"time": 2637, "pitch": 74, "duration": 6, "velocity": 50}, {"time": 2643, "pitch": 77, "duration": 54, "velocity": 66}, {"time": 2697, "pitch": 72, "duration": 6, "velocity": 66}, {"time": 2703, "pitch": 74, "duration": 6, "velocity": 52}, {"time": 2709, "pitch": 77, "duration": 6, "velocity": 65}, {"time": 2715, "pitch": 74, "duration": 19, "velocity": 58}, {"time": 2733, "pitch": 77, "duration": 6, "velocity": 56}, {"time": 2739, "pitch": 79, "duration": 57, "velocity": 66}, {"time": 2796, "pitch": 72, "duration": 6, "velocity": 71}, {"time": 2799, "pitch": 74, "duration": 6, "velocity": 61}, {"time": 2805, "pitch": 77, "duration": 6, "velocity": 79}, {"time": 2811, "pitch": 79, "duration": 6, "velocity": 77}, {"time": 2817, "pitch": 81, "duration": 36, "velocity": 77}, {"time": 2853, "pitch": 81, "duration": 12, "velocity": 93}, {"time": 2865, "pitch": 79, "duration": 24, "velocity": 86}, {"time": 2889, "pitch": 72, "duration": 7, "velocity": 65}, {"time": 2895, "pitch": 74, "duration": 6, "velocity": 66}, {"time": 2901, "pitch": 77, "duration": 6, "velocity": 90}, {"time": 2907, "pitch": 74, "duration": 6, "velocity": 65}, {"time": 2913, "pitch": 79, "duration": 13, "velocity": 90}, {"time": 2925, "pitch": 81, "duration": 54, "velocity": 91}, {"time": 2979, "pitch": 72, "duration": 6, "velocity": 62}, {"time": 2985, "pitch": 81, "duration": 6, "velocity": 66}, {"time": 2991, "pitch": 79, "duration": 6, "velocity": 63}, {"time": 2997, "pitch": 79, "duration": 6, "velocity": 66}, {"time": 3003, "pitch": 77, "duration": 6, "velocity": 54}, {"time": 3009, "pitch": 77, "duration": 12, "velocity": 68}, {"time": 3021, "pitch": 74, "duration": 6, "velocity": 54}, {"time": 3027, "pitch": 77, "duration": 54, "velocity": 67}, {"time": 3081, "pitch": 72, "duration": 6, "velocity": 92}, {"time": 3087, "pitch": 74, "duration": 6, "velocity": 65}, {"time": 3093, "pitch": 77, "duration": 6, "velocity": 92}, {"time": 3099, "pitch": 74, "duration": 18, "velocity": 86}, {"time": 3117, "pitch": 77, "duration": 12, "velocity": 69}, {"time": 3129, "pitch": 79, "duration": 48, "velocity": 90}, {"time": 3177, "pitch": 72, "duration": 6, "velocity": 66}, {"time": 3183, "pitch": 74, "duration": 6, "velocity": 56}, {"time": 3189, "pitch": 77, "duration": 6, "velocity": 65}, {"time": 3195, "pitch": 79, "duration": 6, "velocity": 73}, {"time": 3201, "pitch": 81, "duration": 36, "velocity": 81}, {"time": 3237, "pitch": 81, "duration": 12, "velocity": 80}, {"time": 3249, "pitch": 79, "duration": 24, "velocity": 87}, {"time": 3273, "pitch": 72, "duration": 7, "velocity": 77}, {"time": 3279, "pitch": 74, "duration": 6, "velocity": 66}, {"time": 3285, "pitch": 77, "duration": 12, "velocity": 95}, {"time": 3297, "pitch": 79, "duration": 12, "velocity": 89}, {"time": 3309, "pitch": 81, "duration": 6, "velocity": 90}, {"time": 3315, "pitch": 81, "duration": 24, "velocity": 92}, {"time": 3339, "pitch": 81, "duration": 6, "velocity": 100}, {"time": 3345, "pitch": 84, "duration": 12, "velocity": 93}, {"time": 3357, "pitch": 86, "duration": 6, "velocity": 96}, {"time": 3363, "pitch": 81, "duration": 18, "velocity": 94}, {"time": 3381, "pitch": 81, "duration": 6, "velocity": 92}, {"time": 3387, "pitch": 84, "duration": 6, "velocity": 80}, {"time": 3393, "pitch": 86, "duration": 6, "velocity": 90}, {"time": 3399, "pitch": 88, "duration": 6, "velocity": 92}, {"time": 3405, "pitch": 86, "duration": 6, "velocity": 90}, {"time": 3411, "pitch": 88, "duration": 7, "velocity": 90}, {"time": 3417, "pitch": 86, "duration": 9, "velocity": 91}, {"time": 3426, "pitch": 84, "duration": 9, "velocity": 94}, {"time": 3435, "pitch": 84, "duration": 6, "velocity": 89}, {"time": 3441, "pitch": 81, "duration": 36, "velocity": 95}, {"time": 3477, "pitch": 81, "duration": 6, "velocity": 100}, {"time": 3483, "pitch": 79, "duration": 6, "velocity": 79}, {"time": 3489, "pitch": 81, "duration": 12, "velocity": 92}, {"time": 3501, "pitch": 84, "duration": 18, "velocity": 87}, {"time": 3519, "pitch": 81, "duration": 15, "velocity": 97}, {"time": 3531, "pitch": 79, "duration": 6, "velocity": 91}, {"time": 3537, "pitch": 74, "duration": 12, "velocity": 92}, {"time": 3549, "pitch": 77, "duration": 24, "velocity": 91}, {"time": 3576, "pitch": 77, "duration": 6, "velocity": 84}, {"time": 3582, "pitch": 79, "duration": 6, "velocity": 61}, {"time": 3588, "pitch": 81, "duration": 3, "velocity": 66}, {"time": 3591, "pitch": 79, "duration": 6, "velocity": 50}, {"time": 3597, "pitch": 79, "duration": 6, "velocity": 55}, {"time": 3603, "pitch": 77, "duration": 6, "velocity": 56}, {"time": 3609, "pitch": 77, "duration": 9, "velocity": 60}, {"time": 3618, "pitch": 77, "duration": 12, "velocity": 55}, {"time": 3627, "pitch": 74, "duration": 6, "velocity": 57}, {"time": 3633, "pitch": 79, "duration": 24, "velocity": 52}, {"time": 3657, "pitch": 72, "duration": 6, "velocity": 90}, {"time": 3663, "pitch": 74, "duration": 6, "velocity": 89}, {"time": 3669, "pitch": 77, "duration": 12, "velocity": 100}, {"time": 3681, "pitch": 79, "duration": 12, "velocity": 91}, {"time": 3693, "pitch": 81, "duration": 6, "velocity": 93}, {"time": 3699, "pitch": 81, "duration": 24, "velocity": 100}, {"time": 3723, "pitch": 81, "duration": 6, "velocity": 98}, {"time": 3729, "pitch": 84, "duration": 12, "velocity": 99}, {"time": 3741, "pitch": 86, "duration": 6, "velocity": 90}, {"time": 3747, "pitch": 81, "duration": 18, "velocity": 100}, {"time": 3765, "pitch": 81, "duration": 6, "velocity": 97}, {"time": 3771, "pitch": 84, "duration": 6, "velocity": 86}, {"time": 3777, "pitch": 86, "duration": 6, "velocity": 84}, {"time": 3783, "pitch": 88, "duration": 6, "velocity": 79}, {"time": 3789, "pitch": 86, "duration": 6, "velocity": 84}, {"time": 3795, "pitch": 88, "duration": 6, "velocity": 82}, {"time": 3801, "pitch": 86, "duration": 8, "velocity": 87}, {"time": 3810, "pitch": 84, "duration": 12, "velocity": 87}, {"time": 3819, "pitch": 84, "duration": 3, "velocity": 90}, {"time": 3825, "pitch": 81, "duration": 36, "velocity": 90}, {"time": 3861, "pitch": 81, "duration": 6, "velocity": 106}, {"time": 3867, "pitch": 79, "duration": 6, "velocity": 92}, {"time": 3873, "pitch": 81, "duration": 12, "velocity": 95}, {"time": 3885, "pitch": 84, "duration": 18, "velocity": 90}, {"time": 3903, "pitch": 81, "duration": 12, "velocity": 100}, {"time": 3915, "pitch": 79, "duration": 6, "velocity": 96}, {"time": 3921, "pitch": 74, "duration": 12, "velocity": 87}, {"time": 3933, "pitch": 77, "duration": 24, "velocity": 96}, {"time": 3957, "pitch": 74, "duration": 6, "velocity": 99}, {"time": 3963, "pitch": 72, "duration": 6, "velocity": 77}, {"time": 3969, "pitch": 74, "duration": 15, "velocity": 89}, {"time": 3984, "pitch": 77, "duration": 12, "velocity": 84}, {"time": 3993, "pitch": 77, "duration": 3, "velocity": 90}, {"time": 4002, "pitch": 77, "duration": 9, "velocity": 91}, {"time": 4011, "pitch": 81, "duration": 6, "velocity": 91}, {"time": 4017, "pitch": 79, "duration": 18, "velocity": 93}, {"time": 4035, "pitch": 74, "duration": 6, "velocity": 64}, {"time": 4044, "pitch": 74, "duration": 9, "velocity": 87}, {"time": 4053, "pitch": 77, "duration": 6, "velocity": 98}, {"time": 4059, "pitch": 79, "duration": 12, "velocity": 99}, {"time": 4071, "pitch": 77, "duration": 12, "velocity": 103}, {"time": 4083, "pitch": 79, "duration": 6, "velocity": 103}, {"time": 4089, "pitch": 77, "duration": 24, "velocity": 103}, {"time": 4137, "pitch": 73, "duration": 6, "velocity": 90}, {"time": 4143, "pitch": 75, "duration": 6, "velocity": 89}, {"time": 4149, "pitch": 78, "duration": 12, "velocity": 100}, {"time": 4161, "pitch": 80, "duration": 12, "velocity": 91}, {"time": 4173, "pitch": 82, "duration": 6, "velocity": 93}, {"time": 4179, "pitch": 82, "duration": 24, "velocity": 100}, {"time": 4203, "pitch": 82, "duration": 6, "velocity": 98}, {"time": 4209, "pitch": 85, "duration": 12, "velocity": 99}, {"time": 4221, "pitch": 87, "duration": 6, "velocity": 90}, {"time": 4227, "pitch": 82, "duration": 18, "velocity": 100}, {"time": 4245, "pitch": 82, "duration": 6, "velocity": 97}, {"time": 4251, "pitch": 85, "duration": 6, "velocity": 86}, {"time": 4257, "pitch": 87, "duration": 6, "velocity": 84}, {"time": 4263, "pitch": 89, "duration": 6, "velocity": 79}, {"time": 4269, "pitch": 87, "duration": 6, "velocity": 84}, {"time": 4275, "pitch": 89, "duration": 6, "velocity": 82}, {"time": 4281, "pitch": 87, "duration": 8, "velocity": 87}, {"time": 4290, "pitch": 85, "duration": 12, "velocity": 87}, {"time": 4299, "pitch": 85, "duration": 3, "velocity": 90}, {"time": 4305, "pitch": 82, "duration": 30, "velocity": 90}, {"time": 4335, "pitch": 82, "duration": 12, "velocity": 106}, {"time": 4347, "pitch": 80, "duration": 6, "velocity": 92}, {"time": 4353, "pitch": 82, "duration": 12, "velocity": 95}, {"time": 4365, "pitch": 85, "duration": 18, "velocity": 90}, {"time": 4383, "pitch": 82, "duration": 12, "velocity": 100}, {"time": 4395, "pitch": 80, "duration": 6, "velocity": 96}, {"time": 4401, "pitch": 75, "duration": 12, "velocity": 87}, {"time": 4413, "pitch": 78, "duration": 24, "velocity": 96}, {"time": 4437, "pitch": 78, "duration": 6, "velocity": 99}, {"time": 4443, "pitch": 80, "duration": 6, "velocity": 77}, {"time": 4449, "pitch": 82, "duration": 6, "velocity": 89}, {"time": 4455, "pitch": 80, "duration": 6, "velocity": 89}, {"time": 4461, "pitch": 80, "duration": 6, "velocity": 89}, {"time": 4467, "pitch": 78, "duration": 6, "velocity": 84}, {"time": 4473, "pitch": 87, "duration": 9, "velocity": 90}, {"time": 4482, "pitch": 85, "duration": 9, "velocity": 91}, {"time": 4491, "pitch": 78, "duration": 6, "velocity": 91}, {"time": 4497, "pitch": 80, "duration": 18, "velocity": 93}, {"time": 4521, "pitch": 73, "duration": 6, "velocity": 90}, {"time": 4527, "pitch": 75, "duration": 6, "velocity": 89}, {"time": 4533, "pitch": 78, "duration": 12, "velocity": 100}, {"time": 4545, "pitch": 80, "duration": 12, "velocity": 91}, {"time": 4557, "pitch": 82, "duration": 6, "velocity": 93}, {"time": 4563, "pitch": 82, "duration": 24, "velocity": 100}, {"time": 4587, "pitch": 82, "duration": 6, "velocity": 98}, {"time": 4593, "pitch": 85, "duration": 12, "velocity": 99}, {"time": 4605, "pitch": 87, "duration": 6, "velocity": 90}, {"time": 4611, "pitch": 82, "duration": 18, "velocity": 100}, {"time": 4629, "pitch": 82, "duration": 6, "velocity": 97}, {"time": 4635, "pitch": 85, "duration": 6, "velocity": 86}, {"time": 4641, "pitch": 87, "duration": 6, "velocity": 84}, {"time": 4647, "pitch": 89, "duration": 6, "velocity": 79}, {"time": 4653, "pitch": 87, "duration": 6, "velocity": 84}, {"time": 4659, "pitch": 89, "duration": 6, "velocity": 82}, {"time": 4665, "pitch": 87, "duration": 8, "velocity": 87}, {"time": 4674, "pitch": 85, "duration": 12, "velocity": 87}, {"time": 4683, "pitch": 85, "duration": 3, "velocity": 90}, {"time": 4689, "pitch": 82, "duration": 36, "velocity": 90}, {"time": 4725, "pitch": 82, "duration": 6, "velocity": 106}, {"time": 4731, "pitch": 80, "duration": 6, "velocity": 92}, {"time": 4737, "pitch": 82, "duration": 12, "velocity": 95}, {"time": 4749, "pitch": 85, "duration": 18, "velocity": 90}, {"time": 4767, "pitch": 82, "duration": 12, "velocity": 100}, {"time": 4779, "pitch": 80, "duration": 6, "velocity": 96}, {"time": 4785, "pitch": 75, "duration": 6, "velocity": 87}, {"time": 4791, "pitch": 78, "duration": 30, "velocity": 96}, {"time": 4821, "pitch": 75, "duration": 6, "velocity": 99}, {"time": 4827, "pitch": 73, "duration": 6, "velocity": 77}, {"time": 4833, "pitch": 75, "duration": 9, "velocity": 89}, {"time": 4845, "pitch": 78, "duration": 12, "velocity": 89}, {"time": 4857, "pitch": 78, "duration": 9, "velocity": 89}, {"time": 4866, "pitch": 78, "duration": 9, "velocity": 100}, {"time": 4875, "pitch": 82, "duration": 6, "velocity": 100}, {"time": 4881, "pitch": 80, "duration": 6, "velocity": 100}, {"time": 4899, "pitch": 75, "duration": 6, "velocity": 100}, {"time": 4905, "pitch": 75, "duration": 12, "velocity": 100}, {"time": 4917, "pitch": 78, "duration": 12, "velocity": 100}, {"time": 4929, "pitch": 80, "duration": 12, "velocity": 100}, {"time": 4941, "pitch": 78, "duration": 18, "velocity": 100}, {"time": 5013, "pitch": 75, "duration": 6, "velocity": 84}, {"time": 5019, "pitch": 73, "duration": 6, "velocity": 79}, {"time": 5025, "pitch": 75, "duration": 12, "velocity": 89}, {"time": 5037, "pitch": 78, "duration": 12, "velocity": 89}, {"time": 5049, "pitch": 78, "duration": 9, "velocity": 80}, {"time": 5058, "pitch": 78, "duration": 9, "velocity": 80}, {"time": 5067, "pitch": 82, "duration": 12, "velocity": 77}, {"time": 5079, "pitch": 80, "duration": 66, "velocity": 89}, {"time": 5172, "pitch": 75, "duration": 9, "velocity": 91}, {"time": 5181, "pitch": 75, "duration": 9, "velocity": 97}, {"time": 5190, "pitch": 78, "duration": 21, "velocity": 104}, {"time": 5211, "pitch": 80, "duration": 12, "velocity": 95}, {"time": 5223, "pitch": 78, "duration": 90, "velocity": 91}], "annotations": [{"time": 497, "annotation": {"number": 1, "value": 50}, "group": "control_change"}, {"time": 498, "annotation": {"number": 1, "value": 51}, "group": "control_change"}, {"time": 499, "annotation": {"number": 1, "value": 50}, "group": "control_change"}, {"time": 501, "annotation": {"number": 1, "value": 51}, "group": "control_change"}, {"time": 502, "annotation": {"number": 1, "value": 50}, "group": "control_change"}, {"time": 506, "annotation": {"number": 1, "value": 51}, "group": "control_change"}, {"time": 511, "annotation": {"number": 1, "value": 50}, "group": "control_change"}, {"time": 514, "annotation": {"number": 1, "value": 51}, "group": "control_change"}, {"time": 522, "annotation": {"number": 1, "value": 50}, "group": "control_change"}, {"time": 526, "annotation": {"number": 1, "value": 51}, "group": "control_change"}, {"time": 526, "annotation": {"number": 1, "value": 56}, "group": "control_change"}, {"time": 526, "annotation": {"number": 1, "value": 58}, "group": "control_change"}, {"time": 527, "annotation": {"number": 1, "value": 56}, "group": "control_change"}, {"time": 527, "annotation": {"number": 1, "value": 55}, "group": "control_change"}, {"time": 531, "annotation": {"number": 1, "value": 53}, "group": "control_change"}, {"time": 538, "annotation": {"number": 1, "value": 51}, "group": "control_change"}, {"time": 546, "annotation": {"number": 1, "value": 53}, "group": "control_change"}, {"time": 707, "annotation": {"number": 1, "value": 43}, "group": "control_change"}, {"time": 729, "annotation": {"number": 1, "value": 45}, "group": "control_change"}, {"time": 787, "annotation": {"number": 1, "value": 42}, "group": "control_change"}, {"time": 787, "annotation": {"number": 1, "value": 43}, "group": "control_change"}, {"time": 1059, "annotation": {"number": 1, "value": 43}, "group": "control_change"}, {"time": 1065, "annotation": {"number": 1, "value": 45}, "group": "control_change"}, {"time": 1066, "annotation": {"number": 1, "value": 43}, "group": "control_change"}, {"time": 1109, "annotation": {"number": 1, "value": 45}, "group": "control_change"}, {"time": 1275, "annotation": {"number": 1, "value": 42}, "group": "control_change"}, {"time": 1330, "annotation": {"number": 1, "value": 45}, "group": "control_change"}, {"time": 1330, "annotation": {"number": 1, "value": 43}, "group": "control_change"}, {"time": 1334, "annotation": {"number": 1, "value": 43}, "group": "control_change"}, {"time": 1341, "annotation": {"number": 1, "value": 47}, "group": "control_change"}, {"time": 1341, "annotation": {"number": 1, "value": 45}, "group": "control_change"}, {"time": 1342, "annotation": {"number": 1, "value": 48}, "group": "control_change"}, {"time": 1342, "annotation": {"number": 1, "value": 47}, "group": "control_change"}, {"time": 1348, "annotation": {"number": 1, "value": 45}, "group": "control_change"}, {"time": 1368, "annotation": {"number": 1, "value": 45}, "group": "control_change"}, {"time": 1374, "annotation": {"number": 1, "value": 43}, "group": "control_change"}, {"time": 1378, "annotation": {"number": 1, "value": 45}, "group": "control_change"}, {"time": 1379, "annotation": {"number": 1, "value": 43}, "group": "control_change"}, {"time": 1383, "annotation": {"number": 1, "value": 45}, "group": "control_change"}, {"time": 1417, "annotation": {"number": 1, "value": 43}, "group": "control_change"}, {"time": 1425, "annotation": {"number": 1, "value": 45}, "group": "control_change"}, {"time": 1426, "annotation": {"number": 1, "value": 43}, "group": "control_change"}, {"time": 1501, "annotation": {"number": 1, "value": 45}, "group": "control_change"}, {"time": 1521, "annotation": {"number": 1, "value": 47}, "group": "control_change"}, {"time": 1522, "annotation": {"number": 1, "value": 45}, "group": "control_change"}, {"time": 1522, "annotation": {"number": 1, "value": 47}, "group": "control_change"}, {"time": 1526, "annotation": {"number": 1, "value": 45}, "group": "control_change"}, {"time": 1642, "annotation": {"number": 1, "value": 45}, "group": "control_change"}, {"time": 1642, "annotation": {"number": 1, "value": 50}, "group": "control_change"}, {"time": 1644, "annotation": {"number": 1, "value": 48}, "group": "control_change"}, {"time": 1647, "annotation": {"number": 1, "value": 47}, "group": "control_change"}, {"time": 1647, "annotation": {"number": 1, "value": 48}, "group": "control_change"}, {"time": 1648, "annotation": {"number": 1, "value": 47}, "group": "control_change"}, {"time": 1651, "annotation": {"number": 1, "value": 48}, "group": "control_change"}, {"time": 1656, "annotation": {"number": 1, "value": 47}, "group": "control_change"}, {"time": 1659, "annotation": {"number": 1, "value": 48}, "group": "control_change"}, {"time": 1682, "annotation": {"number": 1, "value": 47}, "group": "control_change"}, {"time": 1683, "annotation": {"number": 1, "value": 47}, "group": "control_change"}, {"time": 1706, "annotation": {"number": 1, "value": 47}, "group": "control_change"}, {"time": 1709, "annotation": {"number": 1, "value": 48}, "group": "control_change"}, {"time": 1709, "annotation": {"number": 1, "value": 47}, "group": "control_change"}, {"time": 1714, "annotation": {"number": 1, "value": 48}, "group": "control_change"}, {"time": 1714, "annotation": {"number": 1, "value": 51}, "group": "control_change"}, {"time": 1715, "annotation": {"number": 1, "value": 50}, "group": "control_change"}, {"time": 1725, "annotation": {"number": 1, "value": 48}, "group": "control_change"}, {"time": 1726, "annotation": {"number": 1, "value": 47}, "group": "control_change"}, {"time": 1730, "annotation": {"number": 1, "value": 48}, "group": "control_change"}, {"time": 1735, "annotation": {"number": 1, "value": 47}, "group": "control_change"}, {"time": 1738, "annotation": {"number": 1, "value": 48}, "group": "control_change"}, {"time": 1743, "annotation": {"number": 1, "value": 47}, "group": "control_change"}, {"time": 1771, "annotation": {"number": 1, "value": 43}, "group": "control_change"}, {"time": 1802, "annotation": {"number": 1, "value": 45}, "group": "control_change"}, {"time": 1803, "annotation": {"number": 1, "value": 43}, "group": "control_change"}, {"time": 1858, "annotation": {"number": 1, "value": 45}, "group": "control_change"}, {"time": 1866, "annotation": {"number": 1, "value": 43}, "group": "control_change"}, {"time": 1869, "annotation": {"number": 1, "value": 45}, "group": "control_change"}, {"time": 1869, "annotation": {"number": 1, "value": 43}, "group": "control_change"}, {"time": 2053, "annotation": {"number": 1, "value": 42}, "group": "control_change"}, {"time": 2058, "annotation": {"number": 1, "value": 43}, "group": "control_change"}, {"time": 2068, "annotation": {"number": 1, "value": 42}, "group": "control_change"}, {"time": 2511, "annotation": {"number": 1, "value": 50}, "group": "control_change"}, {"time": 2513, "annotation": {"number": 1, "value": 51}, "group": "control_change"}, {"time": 2513, "annotation": {"number": 1, "value": 50}, "group": "control_change"}, {"time": 2515, "annotation": {"number": 1, "value": 51}, "group": "control_change"}, {"time": 2516, "annotation": {"number": 1, "value": 50}, "group": "control_change"}, {"time": 2521, "annotation": {"number": 1, "value": 51}, "group": "control_change"}, {"time": 2525, "annotation": {"number": 1, "value": 50}, "group": "control_change"}, {"time": 2528, "annotation": {"number": 1, "value": 51}, "group": "control_change"}, {"time": 2537, "annotation": {"number": 1, "value": 50}, "group": "control_change"}, {"time": 2540, "annotation": {"number": 1, "value": 51}, "group": "control_change"}, {"time": 2540, "annotation": {"number": 1, "value": 56}, "group": "control_change"}, {"time": 2541, "annotation": {"number": 1, "value": 58}, "group": "control_change"}, {"time": 2541, "annotation": {"number": 1, "value": 56}, "group": "control_change"}, {"time": 2541, "annotation": {"number": 1, "value": 55}, "group": "control_change"}, {"time": 2546, "annotation": {"number": 1, "value": 53}, "group": "control_change"}, {"time": 2552, "annotation": {"number": 1, "value": 51}, "group": "control_change"}, {"time": 2560, "annotation": {"number": 1, "value": 53}, "group": "control_change"}, {"time": 2722, "annotation": {"number": 1, "value": 43}, "group": "control_change"}, {"time": 2743, "annotation": {"number": 1, "value": 45}, "group": "control_change"}, {"time": 2801, "annotation": {"number": 1, "value": 42}, "group": "control_change"}, {"time": 2802, "annotation": {"number": 1, "value": 43}, "group": "control_change"}, {"time": 3073, "annotation": {"number": 1, "value": 43}, "group": "control_change"}, {"time": 3079, "annotation": {"number": 1, "value": 45}, "group": "control_change"}, {"time": 3080, "annotation": {"number": 1, "value": 43}, "group": "control_change"}, {"time": 3123, "annotation": {"number": 1, "value": 45}, "group": "control_change"}, {"time": 3289, "annotation": {"number": 1, "value": 42}, "group": "control_change"}, {"time": 3344, "annotation": {"number": 1, "value": 45}, "group": "control_change"}, {"time": 3344, "annotation": {"number": 1, "value": 43}, "group": "control_change"}, {"time": 3345, "annotation": {"number": 1, "value": 45}, "group": "control_change"}, {"time": 3348, "annotation": {"number": 1, "value": 43}, "group": "control_change"}, {"time": 3356, "annotation": {"number": 1, "value": 47}, "group": "control_change"}, {"time": 3356, "annotation": {"number": 1, "value": 45}, "group": "control_change"}, {"time": 3356, "annotation": {"number": 1, "value": 48}, "group": "control_change"}, {"time": 3357, "annotation": {"number": 1, "value": 47}, "group": "control_change"}, {"time": 3362, "annotation": {"number": 1, "value": 45}, "group": "control_change"}, {"time": 3382, "annotation": {"number": 1, "value": 45}, "group": "control_change"}, {"time": 3388, "annotation": {"number": 1, "value": 43}, "group": "control_change"}, {"time": 3392, "annotation": {"number": 1, "value": 45}, "group": "control_change"}, {"time": 3393, "annotation": {"number": 1, "value": 43}, "group": "control_change"}, {"time": 3397, "annotation": {"number": 1, "value": 45}, "group": "control_change"}, {"time": 3432, "annotation": {"number": 1, "value": 43}, "group": "control_change"}, {"time": 3440, "annotation": {"number": 1, "value": 45}, "group": "control_change"}, {"time": 3441, "annotation": {"number": 1, "value": 43}, "group": "control_change"}, {"time": 3515, "annotation": {"number": 1, "value": 45}, "group": "control_change"}, {"time": 3536, "annotation": {"number": 1, "value": 47}, "group": "control_change"}, {"time": 3536, "annotation": {"number": 1, "value": 45}, "group": "control_change"}, {"time": 3540, "annotation": {"number": 1, "value": 45}, "group": "control_change"}, {"time": 3656, "annotation": {"number": 1, "value": 45}, "group": "control_change"}, {"time": 3657, "annotation": {"number": 1, "value": 50}, "group": "control_change"}, {"time": 3658, "annotation": {"number": 1, "value": 48}, "group": "control_change"}, {"time": 3661, "annotation": {"number": 1, "value": 47}, "group": "control_change"}, {"time": 3662, "annotation": {"number": 1, "value": 48}, "group": "control_change"}, {"time": 3663, "annotation": {"number": 1, "value": 47}, "group": "control_change"}, {"time": 3665, "annotation": {"number": 1, "value": 48}, "group": "control_change"}, {"time": 3670, "annotation": {"number": 1, "value": 47}, "group": "control_change"}, {"time": 3673, "annotation": {"number": 1, "value": 48}, "group": "control_change"}, {"time": 3697, "annotation": {"number": 1, "value": 47}, "group": "control_change"}, {"time": 3720, "annotation": {"number": 1, "value": 47}, "group": "control_change"}, {"time": 3723, "annotation": {"number": 1, "value": 48}, "group": "control_change"}, {"time": 3723, "annotation": {"number": 1, "value": 47}, "group": "control_change"}, {"time": 3728, "annotation": {"number": 1, "value": 48}, "group": "control_change"}, {"time": 3728, "annotation": {"number": 1, "value": 51}, "group": "control_change"}, {"time": 3729, "annotation": {"number": 1, "value": 50}, "group": "control_change"}, {"time": 3739, "annotation": {"number": 1, "value": 48}, "group": "control_change"}, {"time": 3740, "annotation": {"number": 1, "value": 47}, "group": "control_change"}, {"time": 3744, "annotation": {"number": 1, "value": 48}, "group": "control_change"}, {"time": 3749, "annotation": {"number": 1, "value": 47}, "group": "control_change"}, {"time": 3752, "annotation": {"number": 1, "value": 48}, "group": "control_change"}, {"time": 3757, "annotation": {"number": 1, "value": 47}, "group": "control_change"}, {"time": 3786, "annotation": {"number": 1, "value": 43}, "group": "control_change"}, {"time": 3817, "annotation": {"number": 1, "value": 45}, "group": "control_change"}, {"time": 3817, "annotation": {"number": 1, "value": 43}, "group": "control_change"}, {"time": 3872, "annotation": {"number": 1, "value": 45}, "group": "control_change"}, {"time": 3881, "annotation": {"number": 1, "value": 43}, "group": "control_change"}, {"time": 3884, "annotation": {"number": 1, "value": 45}, "group": "control_change"}, {"time": 3884, "annotation": {"number": 1, "value": 43}, "group": "control_change"}, {"time": 4067, "annotation": {"number": 1, "value": 42}, "group": "control_change"}, {"time": 4073, "annotation": {"number": 1, "value": 43}, "group": "control_change"}, {"time": 4083, "annotation": {"number": 1, "value": 42}, "group": "control_change"}, {"time": 4134, "annotation": {"number": 1, "value": 45}, "group": "control_change"}, {"time": 4135, "annotation": {"number": 1, "value": 50}, "group": "control_change"}, {"time": 4136, "annotation": {"number": 1, "value": 48}, "group": "control_change"}, {"time": 4139, "annotation": {"number": 1, "value": 47}, "group": "control_change"}, {"time": 4139, "annotation": {"number": 1, "value": 48}, "group": "control_change"}, {"time": 4140, "annotation": {"number": 1, "value": 47}, "group": "control_change"}, {"time": 4143, "annotation": {"number": 1, "value": 48}, "group": "control_change"}, {"time": 4148, "annotation": {"number": 1, "value": 47}, "group": "control_change"}, {"time": 4151, "annotation": {"number": 1, "value": 48}, "group": "control_change"}, {"time": 4175, "annotation": {"number": 1, "value": 47}, "group": "control_change"}, {"time": 4198, "annotation": {"number": 1, "value": 47}, "group": "control_change"}, {"time": 4201, "annotation": {"number": 1, "value": 48}, "group": "control_change"}, {"time": 4201, "annotation": {"number": 1, "value": 47}, "group": "control_change"}, {"time": 4206, "annotation": {"number": 1, "value": 48}, "group": "control_change"}, {"time": 4206, "annotation": {"number": 1, "value": 51}, "group": "control_change"}, {"time": 4207, "annotation": {"number": 1, "value": 50}, "group": "control_change"}, {"time": 4217, "annotation": {"number": 1, "value": 48}, "group": "control_change"}, {"time": 4218, "annotation": {"number": 1, "value": 47}, "group": "control_change"}, {"time": 4222, "annotation": {"number": 1, "value": 48}, "group": "control_change"}, {"time": 4227, "annotation": {"number": 1, "value": 47}, "group": "control_change"}, {"time": 4230, "annotation": {"number": 1, "value": 48}, "group": "control_change"}, {"time": 4235, "annotation": {"number": 1, "value": 47}, "group": "control_change"}, {"time": 4264, "annotation": {"number": 1, "value": 43}, "group": "control_change"}, {"time": 4295, "annotation": {"number": 1, "value": 45}, "group": "control_change"}, {"time": 4295, "annotation": {"number": 1, "value": 43}, "group": "control_change"}, {"time": 4350, "annotation": {"number": 1, "value": 45}, "group": "control_change"}, {"time": 4359, "annotation": {"number": 1, "value": 43}, "group": "control_change"}, {"time": 4361, "annotation": {"number": 1, "value": 45}, "group": "control_change"}, {"time": 4362, "annotation": {"number": 1, "value": 43}, "group": "control_change"}, {"time": 4545, "annotation": {"number": 1, "value": 42}, "group": "control_change"}, {"time": 4551, "annotation": {"number": 1, "value": 43}, "group": "control_change"}, {"time": 4560, "annotation": {"number": 1, "value": 42}, "group": "control_change"}, {"time": 5190, "annotation": {"number": 1, "value": 43}, "group": "control_change"}, {"time": 5191, "annotation": {"number": 1, "value": 42}, "group": "control_change"}, {"time": 5191, "annotation": {"number": 1, "value": 43}, "group": "control_change"}, {"time": 5196, "annotation": {"number": 1, "value": 42}, "group": "control_change"}, {"time": 5215, "annotation": {"number": 1, "value": 43}, "group": "control_change"}, {"time": 5216, "annotation": {"number": 1, "value": 42}, "group": "control_change"}]}, {"program": 0, "is_drum": false, "name": "BRIDGE", "notes": [{"time": 9, "pitch": 60, "duration": 6, "velocity": 85}, {"time": 15, "pitch": 62, "duration": 6, "velocity": 69}, {"time": 21, "pitch": 65, "duration": 12, "velocity": 78}, {"time": 33, "pitch": 67, "duration": 12, "velocity": 103}, {"time": 33, "pitch": 84, "duration": 127, "velocity": 127}, {"time": 45, "pitch": 69, "duration": 6, "velocity": 81}, {"time": 51, "pitch": 69, "duration": 24, "velocity": 82}, {"time": 75, "pitch": 69, "duration": 6, "velocity": 82}, {"time": 81, "pitch": 72, "duration": 12, "velocity": 86}, {"time": 93, "pitch": 74, "duration": 6, "velocity": 76}, {"time": 99, "pitch": 69, "duration": 18, "velocity": 96}, {"time": 117, "pitch": 69, "duration": 6, "velocity": 78}, {"time": 123, "pitch": 72, "duration": 6, "velocity": 66}, {"time": 129, "pitch": 74, "duration": 6, "velocity": 68}, {"time": 135, "pitch": 76, "duration": 6, "velocity": 79}, {"time": 141, "pitch": 74, "duration": 6, "velocity": 59}, {"time": 147, "pitch": 76, "duration": 6, "velocity": 90}, {"time": 153, "pitch": 74, "duration": 9, "velocity": 68}, {"time": 162, "pitch": 72, "duration": 9, "velocity": 68}, {"time": 171, "pitch": 72, "duration": 6, "velocity": 68}, {"time": 177, "pitch": 69, "duration": 30, "velocity": 78}, {"time": 188, "pitch": 72, "duration": 10, "velocity": 127}, {"time": 201, "pitch": 79, "duration": 12, "velocity": 127}, {"time": 207, "pitch": 60, "duration": 6, "velocity": 92}, {"time": 213, "pitch": 65, "duration": 6, "velocity": 97}, {"time": 213, "pitch": 77, "duration": 11, "velocity": 127}, {"time": 219, "pitch": 67, "duration": 6, "velocity": 90}, {"time": 225, "pitch": 67, "duration": 12, "velocity": 90}, {"time": 225, "pitch": 81, "duration": 35, "velocity": 127}, {"time": 237, "pitch": 72, "duration": 6, "velocity": 88}, {"time": 243, "pitch": 72, "duration": 12, "velocity": 97}, {"time": 255, "pitch": 67, "duration": 3, "velocity": 72}, {"time": 258, "pitch": 69, "duration": 9, "velocity": 56}, {"time": 261, "pitch": 79, "duration": 11, "velocity": 125}, {"time": 267, "pitch": 67, "duration": 3, "velocity": 70}, {"time": 270, "pitch": 65, "duration": 3, "velocity": 63}, {"time": 273, "pitch": 62, "duration": 12, "velocity": 79}, {"time": 273, "pitch": 84, "duration": 76, "velocity": 127}, {"time": 285, "pitch": 65, "duration": 24, "velocity": 92}, {"time": 309, "pitch": 62, "duration": 6, "velocity": 92}, {"time": 315, "pitch": 65, "duration": 6, "velocity": 107}, {"time": 321, "pitch": 67, "duration": 9, "velocity": 70}, {"time": 330, "pitch": 67, "duration": 9, "velocity": 97}, {"time": 339, "pitch": 67, "duration": 6, "velocity": 99}, {"time": 345, "pitch": 67, "duration": 9, "velocity": 94}, {"time": 354, "pitch": 65, "duration": 9, "velocity": 88}, {"time": 357, "pitch": 77, "duration": 12, "velocity": 127}, {"time": 363, "pitch": 62, "duration": 6, "velocity": 111}, {"time": 369, "pitch": 67, "duration": 30, "velocity": 93}, {"time": 369, "pitch": 79, "duration": 89, "velocity": 127}, {"time": 399, "pitch": 65, "duration": 12, "velocity": 96}, {"time": 411, "pitch": 65, "duration": 6, "velocity": 106}, {"time": 417, "pitch": 64, "duration": 48, "velocity": 91}, {"time": 2121, "pitch": 77, "duration": 9, "velocity": 95}, {"time": 2129, "pitch": 76, "duration": 7, "velocity": 93}, {"time": 2136, "pitch": 72, "duration": 9, "velocity": 82}, {"time": 2144, "pitch": 74, "duration": 24, "velocity": 90}, {"time": 2215, "pitch": 77, "duration": 10, "velocity": 84}, {"time": 2224, "pitch": 76, "duration": 8, "velocity": 76}, {"time": 2232, "pitch": 77, "duration": 9, "velocity": 83}, {"time": 2240, "pitch": 72, "duration": 46, "velocity": 77}, {"time": 2312, "pitch": 77, "duration": 6, "velocity": 80}, {"time": 2320, "pitch": 76, "duration": 9, "velocity": 69}, {"time": 2328, "pitch": 77, "duration": 36, "velocity": 78}, {"time": 2336, "pitch": 70, "duration": 45, "velocity": 70}, {"time": 2372, "pitch": 72, "duration": 3, "velocity": 84}, {"time": 2377, "pitch": 72, "duration": 4, "velocity": 86}, {"time": 2379, "pitch": 74, "duration": 21, "velocity": 79}, {"time": 2439, "pitch": 72, "duration": 10, "velocity": 75}, {"time": 2445, "pitch": 74, "duration": 5, "velocity": 78}, {"time": 2451, "pitch": 77, "duration": 10, "velocity": 79}, {"time": 2461, "pitch": 79, "duration": 2, "velocity": 45}, {"time": 2463, "pitch": 81, "duration": 14, "velocity": 75}, {"time": 2475, "pitch": 79, "duration": 16, "velocity": 63}, {"time": 2553, "pitch": 76, "duration": 20, "velocity": 78}, {"time": 2577, "pitch": 77, "duration": 19, "velocity": 78}, {"time": 2601, "pitch": 84, "duration": 21, "velocity": 78}, {"time": 2625, "pitch": 76, "duration": 46, "velocity": 78}, {"time": 2673, "pitch": 77, "duration": 40, "velocity": 78}, {"time": 2745, "pitch": 69, "duration": 23, "velocity": 78}, {"time": 2769, "pitch": 70, "duration": 31, "velocity": 78}, {"time": 2793, "pitch": 77, "duration": 18, "velocity": 78}, {"time": 2817, "pitch": 77, "duration": 49, "velocity": 78}, {"time": 2865, "pitch": 76, "duration": 21, "velocity": 78}, {"time": 2934, "pitch": 79, "duration": 24, "velocity": 78}, {"time": 2961, "pitch": 81, "duration": 30, "velocity": 78}, {"time": 2985, "pitch": 84, "duration": 21, "velocity": 78}, {"time": 3009, "pitch": 76, "duration": 25, "velocity": 78}, {"time": 3033, "pitch": 77, "duration": 27, "velocity": 78}, {"time": 3057, "pitch": 81, "duration": 21, "velocity": 78}, {"time": 3081, "pitch": 84, "duration": 19, "velocity": 78}, {"time": 3105, "pitch": 77, "duration": 46, "velocity": 78}, {"time": 3189, "pitch": 74, "duration": 11, "velocity": 78}, {"time": 3201, "pitch": 84, "duration": 53, "velocity": 78}, {"time": 3297, "pitch": 81, "duration": 46, "velocity": 78}, {"time": 3345, "pitch": 79, "duration": 45, "velocity": 78}, {"time": 3393, "pitch": 77, "duration": 44, "velocity": 78}, {"time": 3441, "pitch": 74, "duration": 26, "velocity": 78}, {"time": 3465, "pitch": 79, "duration": 11, "velocity": 78}, {"time": 3477, "pitch": 81, "duration": 12, "velocity": 78}, {"time": 3489, "pitch": 74, "duration": 44, "velocity": 78}, {"time": 3525, "pitch": 77, "duration": 11, "velocity": 78}, {"time": 3537, "pitch": 79, "duration": 30, "velocity": 78}, {"time": 3558, "pitch": 77, "duration": 20, "velocity": 78}, {"time": 3585, "pitch": 84, "duration": 40, "velocity": 78}, {"time": 3645, "pitch": 77, "duration": 10, "velocity": 78}, {"time": 3657, "pitch": 76, "duration": 12, "velocity": 78}, {"time": 3669, "pitch": 77, "duration": 9, "velocity": 78}, {"time": 3681, "pitch": 81, "duration": 47, "velocity": 78}, {"time": 3729, "pitch": 79, "duration": 44, "velocity": 78}, {"time": 3777, "pitch": 77, "duration": 56, "velocity": 78}, {"time": 3825, "pitch": 74, "duration": 12, "velocity": 78}, {"time": 3837, "pitch": 79, "duration": 12, "velocity": 78}, {"time": 3849, "pitch": 81, "duration": 11, "velocity": 78}, {"time": 3861, "pitch": 84, "duration": 55, "velocity": 78}, {"time": 3981, "pitch": 82, "duration": 11, "velocity": 78}, {"time": 3993, "pitch": 81, "duration": 10, "velocity": 78}, {"time": 4005, "pitch": 77, "duration": 10, "velocity": 78}, {"time": 4017, "pitch": 79, "duration": 33, "velocity": 78}, {"time": 4065, "pitch": 84, "duration": 30, "velocity": 78}, {"time": 4329, "pitch": 78, "duration": 5, "velocity": 78}, {"time": 4338, "pitch": 77, "duration": 4, "velocity": 78}, {"time": 4347, "pitch": 73, "duration": 3, "velocity": 78}, {"time": 4353, "pitch": 70, "duration": 23, "velocity": 78}, {"time": 4353, "pitch": 75, "duration": 33, "velocity": 78}, {"time": 4383, "pitch": 70, "duration": 11, "velocity": 78}, {"time": 4401, "pitch": 68, "duration": 22, "velocity": 78}, {"time": 4423, "pitch": 66, "duration": 21, "velocity": 78}, {"time": 4497, "pitch": 61, "duration": 7, "velocity": 78}, {"time": 4503, "pitch": 63, "duration": 6, "velocity": 78}, {"time": 4509, "pitch": 66, "duration": 7, "velocity": 78}, {"time": 4521, "pitch": 66, "duration": 6, "velocity": 78}, {"time": 4527, "pitch": 68, "duration": 7, "velocity": 78}, {"time": 4533, "pitch": 70, "duration": 9, "velocity": 78}, {"time": 4548, "pitch": 70, "duration": 25, "velocity": 78}, {"time": 4604, "pitch": 73, "duration": 3, "velocity": 78}, {"time": 4610, "pitch": 75, "duration": 4, "velocity": 78}, {"time": 4623, "pitch": 77, "duration": 6, "velocity": 78}, {"time": 4640, "pitch": 75, "duration": 31, "velocity": 78}, {"time": 4785, "pitch": 85, "duration": 22, "velocity": 78}, {"time": 4809, "pitch": 82, "duration": 40, "velocity": 78}, {"time": 4881, "pitch": 80, "duration": 51, "velocity": 79}, {"time": 4929, "pitch": 78, "duration": 39, "velocity": 90}], "annotations": [{"time": 78, "annotation": {"number": 64, "value": 0}, "group": "control_change"}, {"time": 83, "annotation": {"number": 64, "value": 127}, "group": "control_change"}, {"time": 115, "annotation": {"number": 64, "value": 127}, "group": "control_change"}, {"time": 132, "annotation": {"number": 64, "value": 0}, "group": "control_change"}, {"time": 200, "annotation": {"number": 64, "value": 0}, "group": "control_change"}, {"time": 202, "annotation": {"number": 64, "value": 127}, "group": "control_change"}, {"time": 271, "annotation": {"number": 64, "value": 0}, "group": "control_change"}, {"time": 274, "annotation": {"number": 64, "value": 127}, "group": "control_change"}, {"time": 291, "annotation": {"number": 64, "value": 0}, "group": "control_change"}]}, {"program": 0, "is_drum": false, "name": "PIANO", "notes": [{"time": 33, "pitch": 41, "duration": 34, "velocity": 45}, {"time": 33, "pitch": 53, "duration": 37, "velocity": 53}, {"time": 33, "pitch": 57, "duration": 38, "velocity": 56}, {"time": 33, "pitch": 60, "duration": 35, "velocity": 85}, {"time": 33, "pitch": 65, "duration": 36, "velocity": 88}, {"time": 81, "pitch": 52, "duration": 33, "velocity": 69}, {"time": 81, "pitch": 55, "duration": 30, "velocity": 57}, {"time": 81, "pitch": 60, "duration": 29, "velocity": 81}, {"time": 81, "pitch": 64, "duration": 31, "velocity": 84}, {"time": 81, "pitch": 67, "duration": 30, "velocity": 45}, {"time": 129, "pitch": 43, "duration": 13, "velocity": 57}, {"time": 129, "pitch": 58, "duration": 13, "velocity": 48}, {"time": 129, "pitch": 62, "duration": 12, "velocity": 60}, {"time": 129, "pitch": 65, "duration": 11, "velocity": 74}, {"time": 129, "pitch": 69, "duration": 12, "velocity": 72}, {"time": 153, "pitch": 48, "duration": 13, "velocity": 60}, {"time": 153, "pitch": 60, "duration": 10, "velocity": 57}, {"time": 153, "pitch": 64, "duration": 9, "velocity": 72}, {"time": 153, "pitch": 67, "duration": 9, "velocity": 84}, {"time": 177, "pitch": 41, "duration": 32, "velocity": 48}, {"time": 177, "pitch": 53, "duration": 23, "velocity": 50}, {"time": 177, "pitch": 57, "duration": 28, "velocity": 47}, {"time": 177, "pitch": 60, "duration": 27, "velocity": 63}, {"time": 177, "pitch": 65, "duration": 29, "velocity": 56}, {"time": 201, "pitch": 53, "duration": 11, "velocity": 29}, {"time": 213, "pitch": 57, "duration": 2, "velocity": 60}, {"time": 225, "pitch": 46, "duration": 39, "velocity": 62}, {"time": 225, "pitch": 53, "duration": 37, "velocity": 97}, {"time": 225, "pitch": 58, "duration": 13, "velocity": 54}, {"time": 225, "pitch": 62, "duration": 18, "velocity": 91}, {"time": 225, "pitch": 65, "duration": 19, "velocity": 69}, {"time": 225, "pitch": 70, "duration": 19, "velocity": 72}, {"time": 243, "pitch": 58, "duration": 9, "velocity": 78}, {"time": 249, "pitch": 62, "duration": 8, "velocity": 70}, {"time": 249, "pitch": 65, "duration": 8, "velocity": 91}, {"time": 249, "pitch": 70, "duration": 9, "velocity": 82}, {"time": 255, "pitch": 58, "duration": 8, "velocity": 93}, {"time": 261, "pitch": 62, "duration": 4, "velocity": 82}, {"time": 267, "pitch": 67, "duration": 4, "velocity": 90}, {"time": 273, "pitch": 45, "duration": 39, "velocity": 78}, {"time": 273, "pitch": 57, "duration": 10, "velocity": 74}, {"time": 273, "pitch": 60, "duration": 15, "velocity": 96}, {"time": 273, "pitch": 65, "duration": 15, "velocity": 101}, {"time": 273, "pitch": 69, "duration": 14, "velocity": 84}, {"time": 285, "pitch": 57, "duration": 9, "velocity": 88}, {"time": 291, "pitch": 60, "duration": 8, "velocity": 99}, {"time": 291, "pitch": 65, "duration": 8, "velocity": 101}, {"time": 291, "pitch": 72, "duration": 8, "velocity": 101}, {"time": 297, "pitch": 57, "duration": 6, "velocity": 57}, {"time": 303, "pitch": 60, "duration": 7, "velocity": 94}, {"time": 303, "pitch": 65, "duration": 7, "velocity": 107}, {"time": 303, "pitch": 70, "duration": 7, "velocity": 91}, {"time": 306, "pitch": 57, "duration": 3, "velocity": 63}, {"time": 309, "pitch": 67, "duration": 4, "velocity": 88}, {"time": 315, "pitch": 69, "duration": 2, "velocity": 86}, {"time": 321, "pitch": 43, "duration": 38, "velocity": 96}, {"time": 321, "pitch": 62, "duration": 9, "velocity": 65}, {"time": 321, "pitch": 65, "duration": 9, "velocity": 84}, {"time": 321, "pitch": 70, "duration": 8, "velocity": 93}, {"time": 327, "pitch": 50, "duration": 31, "velocity": 86}, {"time": 333, "pitch": 55, "duration": 18, "velocity": 101}, {"time": 339, "pitch": 58, "duration": 7, "velocity": 93}, {"time": 345, "pitch": 62, "duration": 7, "velocity": 101}, {"time": 351, "pitch": 65, "duration": 7, "velocity": 99}, {"time": 357, "pitch": 55, "duration": 1, "velocity": 92}, {"time": 369, "pitch": 36, "duration": 39, "velocity": 94}, {"time": 369, "pitch": 55, "duration": 20, "velocity": 74}, {"time": 369, "pitch": 60, "duration": 19, "velocity": 69}, {"time": 369, "pitch": 65, "duration": 17, "velocity": 90}, {"time": 387, "pitch": 48, "duration": 14, "velocity": 51}, {"time": 393, "pitch": 55, "duration": 5, "velocity": 94}, {"time": 393, "pitch": 60, "duration": 8, "velocity": 97}, {"time": 393, "pitch": 65, "duration": 9, "velocity": 86}, {"time": 405, "pitch": 48, "duration": 3, "velocity": 86}, {"time": 417, "pitch": 36, "duration": 1, "velocity": 91}, {"time": 417, "pitch": 48, "duration": 72, "velocity": 82}, {"time": 459, "pitch": 72, "duration": 5, "velocity": 65}, {"time": 462, "pitch": 77, "duration": 7, "velocity": 76}, {"time": 465, "pitch": 79, "duration": 21, "velocity": 84}, {"time": 465, "pitch": 84, "duration": 20, "velocity": 63}, {"time": 513, "pitch": 41, "duration": 69, "velocity": 41}, {"time": 513, "pitch": 53, "duration": 68, "velocity": 57}, {"time": 513, "pitch": 57, "duration": 12, "velocity": 45}, {"time": 513, "pitch": 60, "duration": 12, "velocity": 68}, {"time": 513, "pitch": 65, "duration": 13, "velocity": 50}, {"time": 537, "pitch": 60, "duration": 13, "velocity": 44}, {"time": 537, "pitch": 65, "duration": 12, "velocity": 53}, {"time": 537, "pitch": 69, "duration": 11, "velocity": 53}, {"time": 561, "pitch": 60, "duration": 14, "velocity": 38}, {"time": 561, "pitch": 65, "duration": 13, "velocity": 47}, {"time": 561, "pitch": 69, "duration": 12, "velocity": 56}, {"time": 585, "pitch": 40, "duration": 10, "velocity": 59}, {"time": 585, "pitch": 52, "duration": 12, "velocity": 59}, {"time": 585, "pitch": 60, "duration": 12, "velocity": 54}, {"time": 585, "pitch": 64, "duration": 12, "velocity": 60}, {"time": 585, "pitch": 67, "duration": 13, "velocity": 85}, {"time": 609, "pitch": 50, "duration": 59, "velocity": 31}, {"time": 609, "pitch": 57, "duration": 32, "velocity": 42}, {"time": 609, "pitch": 60, "duration": 13, "velocity": 50}, {"time": 609, "pitch": 65, "duration": 12, "velocity": 60}, {"time": 609, "pitch": 69, "duration": 13, "velocity": 62}, {"time": 633, "pitch": 60, "duration": 15, "velocity": 44}, {"time": 633, "pitch": 65, "duration": 14, "velocity": 54}, {"time": 633, "pitch": 69, "duration": 13, "velocity": 56}, {"time": 651, "pitch": 57, "duration": 13, "velocity": 33}, {"time": 657, "pitch": 60, "duration": 25, "velocity": 59}, {"time": 657, "pitch": 65, "duration": 25, "velocity": 76}, {"time": 675, "pitch": 50, "duration": 18, "velocity": 63}, {"time": 681, "pitch": 57, "duration": 10, "velocity": 57}, {"time": 687, "pitch": 60, "duration": 3, "velocity": 79}, {"time": 693, "pitch": 65, "duration": 6, "velocity": 88}, {"time": 699, "pitch": 70, "duration": 4, "velocity": 60}, {"time": 705, "pitch": 43, "duration": 64, "velocity": 79}, {"time": 711, "pitch": 57, "duration": 13, "velocity": 55}, {"time": 717, "pitch": 58, "duration": 8, "velocity": 75}, {"time": 723, "pitch": 65, "duration": 11, "velocity": 86}, {"time": 729, "pitch": 57, "duration": 13, "velocity": 44}, {"time": 735, "pitch": 58, "duration": 8, "velocity": 77}, {"time": 741, "pitch": 67, "duration": 6, "velocity": 69}, {"time": 747, "pitch": 57, "duration": 26, "velocity": 38}, {"time": 753, "pitch": 58, "duration": 17, "velocity": 60}, {"time": 759, "pitch": 65, "duration": 13, "velocity": 58}, {"time": 771, "pitch": 43, "duration": 19, "velocity": 53}, {"time": 777, "pitch": 57, "duration": 16, "velocity": 55}, {"time": 777, "pitch": 65, "duration": 15, "velocity": 70}, {"time": 801, "pitch": 46, "duration": 37, "velocity": 76}, {"time": 801, "pitch": 62, "duration": 13, "velocity": 67}, {"time": 801, "pitch": 70, "duration": 15, "velocity": 72}, {"time": 807, "pitch": 53, "duration": 30, "velocity": 62}, {"time": 813, "pitch": 58, "duration": 26, "velocity": 54}, {"time": 819, "pitch": 62, "duration": 7, "velocity": 57}, {"time": 825, "pitch": 65, "duration": 7, "velocity": 46}, {"time": 831, "pitch": 70, "duration": 10, "velocity": 79}, {"time": 849, "pitch": 48, "duration": 41, "velocity": 81}, {"time": 849, "pitch": 65, "duration": 12, "velocity": 78}, {"time": 849, "pitch": 72, "duration": 12, "velocity": 79}, {"time": 855, "pitch": 55, "duration": 34, "velocity": 69}, {"time": 861, "pitch": 60, "duration": 27, "velocity": 73}, {"time": 867, "pitch": 65, "duration": 9, "velocity": 75}, {"time": 873, "pitch": 67, "duration": 6, "velocity": 71}, {"time": 879, "pitch": 72, "duration": 3, "velocity": 78}, {"time": 894, "pitch": 77, "duration": 1, "velocity": 15}, {"time": 897, "pitch": 53, "duration": 42, "velocity": 79}, {"time": 897, "pitch": 60, "duration": 26, "velocity": 68}, {"time": 897, "pitch": 65, "duration": 16, "velocity": 72}, {"time": 897, "pitch": 69, "duration": 26, "velocity": 78}, {"time": 921, "pitch": 41, "duration": 44, "velocity": 31}, {"time": 927, "pitch": 60, "duration": 4, "velocity": 77}, {"time": 933, "pitch": 65, "duration": 3, "velocity": 66}, {"time": 939, "pitch": 60, "duration": 7, "velocity": 74}, {"time": 939, "pitch": 69, "duration": 9, "velocity": 76}, {"time": 945, "pitch": 53, "duration": 4, "velocity": 42}, {"time": 951, "pitch": 60, "duration": 9, "velocity": 78}, {"time": 951, "pitch": 67, "duration": 6, "velocity": 70}, {"time": 963, "pitch": 53, "duration": 2, "velocity": 57}, {"time": 969, "pitch": 40, "duration": 10, "velocity": 86}, {"time": 969, "pitch": 60, "duration": 8, "velocity": 68}, {"time": 969, "pitch": 64, "duration": 8, "velocity": 81}, {"time": 969, "pitch": 67, "duration": 9, "velocity": 96}, {"time": 975, "pitch": 52, "duration": 7, "velocity": 74}, {"time": 981, "pitch": 60, "duration": 7, "velocity": 60}, {"time": 987, "pitch": 72, "duration": 9, "velocity": 72}, {"time": 993, "pitch": 50, "duration": 83, "velocity": 81}, {"time": 993, "pitch": 60, "duration": 6, "velocity": 72}, {"time": 993, "pitch": 65, "duration": 7, "velocity": 90}, {"time": 993, "pitch": 69, "duration": 10, "velocity": 90}, {"time": 999, "pitch": 57, "duration": 27, "velocity": 60}, {"time": 1005, "pitch": 62, "duration": 7, "velocity": 60}, {"time": 1011, "pitch": 69, "duration": 3, "velocity": 69}, {"time": 1011, "pitch": 77, "duration": 4, "velocity": 99}, {"time": 1014, "pitch": 62, "duration": 9, "velocity": 42}, {"time": 1023, "pitch": 67, "duration": 3, "velocity": 60}, {"time": 1023, "pitch": 76, "duration": 3, "velocity": 70}, {"time": 1035, "pitch": 57, "duration": 14, "velocity": 79}, {"time": 1041, "pitch": 60, "duration": 3, "velocity": 51}, {"time": 1041, "pitch": 60, "duration": 3, "velocity": 78}, {"time": 1041, "pitch": 65, "duration": 10, "velocity": 77}, {"time": 1041, "pitch": 69, "duration": 15, "velocity": 90}, {"time": 1059, "pitch": 57, "duration": 7, "velocity": 62}, {"time": 1065, "pitch": 60, "duration": 9, "velocity": 94}, {"time": 1065, "pitch": 67, "duration": 4, "velocity": 97}, {"time": 1071, "pitch": 57, "duration": 3, "velocity": 54}, {"time": 1077, "pitch": 64, "duration": 3, "velocity": 72}, {"time": 1083, "pitch": 65, "duration": 1, "velocity": 33}, {"time": 1089, "pitch": 46, "duration": 81, "velocity": 69}, {"time": 1089, "pitch": 62, "duration": 20, "velocity": 47}, {"time": 1089, "pitch": 65, "duration": 20, "velocity": 72}, {"time": 1089, "pitch": 70, "duration": 20, "velocity": 85}, {"time": 1101, "pitch": 53, "duration": 68, "velocity": 69}, {"time": 1107, "pitch": 58, "duration": 14, "velocity": 63}, {"time": 1113, "pitch": 62, "duration": 4, "velocity": 74}, {"time": 1119, "pitch": 65, "duration": 8, "velocity": 94}, {"time": 1125, "pitch": 58, "duration": 9, "velocity": 62}, {"time": 1131, "pitch": 60, "duration": 9, "velocity": 76}, {"time": 1131, "pitch": 70, "duration": 8, "velocity": 74}, {"time": 1137, "pitch": 58, "duration": 7, "velocity": 45}, {"time": 1143, "pitch": 60, "duration": 10, "velocity": 63}, {"time": 1143, "pitch": 69, "duration": 10, "velocity": 69}, {"time": 1155, "pitch": 58, "duration": 8, "velocity": 63}, {"time": 1161, "pitch": 60, "duration": 8, "velocity": 96}, {"time": 1167, "pitch": 58, "duration": 4, "velocity": 78}, {"time": 1167, "pitch": 65, "duration": 4, "velocity": 65}, {"time": 1173, "pitch": 67, "duration": 7, "velocity": 82}, {"time": 1179, "pitch": 72, "duration": 21, "velocity": 86}, {"time": 1185, "pitch": 48, "duration": 39, "velocity": 81}, {"time": 1185, "pitch": 60, "duration": 7, "velocity": 74}, {"time": 1185, "pitch": 65, "duration": 10, "velocity": 84}, {"time": 1191, "pitch": 55, "duration": 20, "velocity": 41}, {"time": 1197, "pitch": 60, "duration": 19, "velocity": 62}, {"time": 1203, "pitch": 65, "duration": 7, "velocity": 91}, {"time": 1209, "pitch": 67, "duration": 4, "velocity": 84}, {"time": 1215, "pitch": 69, "duration": 10, "velocity": 77}, {"time": 1221, "pitch": 55, "duration": 2, "velocity": 96}, {"time": 1233, "pitch": 36, "duration": 33, "velocity": 96}, {"time": 1233, "pitch": 60, "duration": 8, "velocity": 76}, {"time": 1233, "pitch": 64, "duration": 8, "velocity": 81}, {"time": 1233, "pitch": 67, "duration": 9, "velocity": 74}, {"time": 1233, "pitch": 72, "duration": 8, "velocity": 76}, {"time": 1239, "pitch": 48, "duration": 15, "velocity": 66}, {"time": 1245, "pitch": 60, "duration": 4, "velocity": 60}, {"time": 1251, "pitch": 65, "duration": 3, "velocity": 53}, {"time": 1257, "pitch": 48, "duration": 9, "velocity": 74}, {"time": 1257, "pitch": 60, "duration": 9, "velocity": 81}, {"time": 1257, "pitch": 67, "duration": 8, "velocity": 91}, {"time": 1269, "pitch": 38, "duration": 7, "velocity": 81}, {"time": 1269, "pitch": 60, "duration": 5, "velocity": 82}, {"time": 1269, "pitch": 65, "duration": 6, "velocity": 72}, {"time": 1275, "pitch": 40, "duration": 3, "velocity": 74}, {"time": 1275, "pitch": 67, "duration": 3, "velocity": 78}, {"time": 1281, "pitch": 41, "duration": 39, "velocity": 88}, {"time": 1281, "pitch": 60, "duration": 12, "velocity": 94}, {"time": 1281, "pitch": 65, "duration": 14, "velocity": 97}, {"time": 1281, "pitch": 69, "duration": 14, "velocity": 77}, {"time": 1293, "pitch": 53, "duration": 15, "velocity": 63}, {"time": 1299, "pitch": 60, "duration": 3, "velocity": 33}, {"time": 1305, "pitch": 60, "duration": 8, "velocity": 78}, {"time": 1305, "pitch": 65, "duration": 8, "velocity": 96}, {"time": 1305, "pitch": 69, "duration": 8, "velocity": 86}, {"time": 1311, "pitch": 53, "duration": 8, "velocity": 62}, {"time": 1317, "pitch": 60, "duration": 4, "velocity": 77}, {"time": 1323, "pitch": 69, "duration": 5, "velocity": 72}, {"time": 1329, "pitch": 40, "duration": 5, "velocity": 88}, {"time": 1329, "pitch": 52, "duration": 7, "velocity": 82}, {"time": 1329, "pitch": 60, "duration": 25, "velocity": 77}, {"time": 1329, "pitch": 64, "duration": 13, "velocity": 81}, {"time": 1329, "pitch": 67, "duration": 18, "velocity": 86}, {"time": 1347, "pitch": 52, "duration": 22, "velocity": 84}, {"time": 1353, "pitch": 57, "duration": 9, "velocity": 72}, {"time": 1359, "pitch": 60, "duration": 8, "velocity": 106}, {"time": 1359, "pitch": 67, "duration": 8, "velocity": 89}, {"time": 1365, "pitch": 57, "duration": 3, "velocity": 72}, {"time": 1371, "pitch": 72, "duration": 5, "velocity": 96}, {"time": 1377, "pitch": 50, "duration": 38, "velocity": 88}, {"time": 1377, "pitch": 60, "duration": 7, "velocity": 86}, {"time": 1377, "pitch": 65, "duration": 9, "velocity": 88}, {"time": 1377, "pitch": 69, "duration": 10, "velocity": 92}, {"time": 1377, "pitch": 72, "duration": 2, "velocity": 60}, {"time": 1383, "pitch": 57, "duration": 25, "velocity": 60}, {"time": 1389, "pitch": 62, "duration": 19, "velocity": 77}, {"time": 1395, "pitch": 64, "duration": 8, "velocity": 94}, {"time": 1395, "pitch": 69, "duration": 7, "velocity": 82}, {"time": 1407, "pitch": 65, "duration": 8, "velocity": 106}, {"time": 1407, "pitch": 69, "duration": 8, "velocity": 92}, {"time": 1413, "pitch": 57, "duration": 3, "velocity": 82}, {"time": 1419, "pitch": 67, "duration": 4, "velocity": 99}, {"time": 1425, "pitch": 48, "duration": 40, "velocity": 84}, {"time": 1425, "pitch": 64, "duration": 9, "velocity": 88}, {"time": 1425, "pitch": 67, "duration": 12, "velocity": 103}, {"time": 1425, "pitch": 72, "duration": 12, "velocity": 101}, {"time": 1431, "pitch": 57, "duration": 34, "velocity": 68}, {"time": 1437, "pitch": 60, "duration": 12, "velocity": 86}, {"time": 1443, "pitch": 67, "duration": 3, "velocity": 47}, {"time": 1449, "pitch": 77, "duration": 4, "velocity": 82}, {"time": 1452, "pitch": 60, "duration": 3, "velocity": 57}, {"time": 1455, "pitch": 76, "duration": 7, "velocity": 107}, {"time": 1461, "pitch": 72, "duration": 5, "velocity": 96}, {"time": 1464, "pitch": 60, "duration": 1, "velocity": 50}, {"time": 1467, "pitch": 69, "duration": 3, "velocity": 62}, {"time": 1473, "pitch": 46, "duration": 40, "velocity": 66}, {"time": 1473, "pitch": 69, "duration": 6, "velocity": 94}, {"time": 1473, "pitch": 74, "duration": 6, "velocity": 90}, {"time": 1479, "pitch": 53, "duration": 33, "velocity": 92}, {"time": 1485, "pitch": 58, "duration": 9, "velocity": 92}, {"time": 1491, "pitch": 62, "duration": 11, "velocity": 91}, {"time": 1491, "pitch": 65, "duration": 11, "velocity": 95}, {"time": 1491, "pitch": 70, "duration": 12, "velocity": 109}, {"time": 1497, "pitch": 58, "duration": 8, "velocity": 76}, {"time": 1503, "pitch": 62, "duration": 4, "velocity": 72}, {"time": 1509, "pitch": 58, "duration": 2, "velocity": 31}, {"time": 1509, "pitch": 65, "duration": 4, "velocity": 92}, {"time": 1515, "pitch": 67, "duration": 3, "velocity": 77}, {"time": 1521, "pitch": 45, "duration": 39, "velocity": 60}, {"time": 1521, "pitch": 57, "duration": 8, "velocity": 50}, {"time": 1521, "pitch": 60, "duration": 13, "velocity": 72}, {"time": 1521, "pitch": 65, "duration": 13, "velocity": 60}, {"time": 1521, "pitch": 69, "duration": 13, "velocity": 85}, {"time": 1533, "pitch": 57, "duration": 14, "velocity": 47}, {"time": 1539, "pitch": 60, "duration": 3, "velocity": 60}, {"time": 1545, "pitch": 60, "duration": 8, "velocity": 97}, {"time": 1545, "pitch": 65, "duration": 9, "velocity": 96}, {"time": 1545, "pitch": 69, "duration": 8, "velocity": 85}, {"time": 1551, "pitch": 57, "duration": 8, "velocity": 72}, {"time": 1557, "pitch": 60, "duration": 4, "velocity": 97}, {"time": 1563, "pitch": 72, "duration": 4, "velocity": 103}, {"time": 1569, "pitch": 43, "duration": 6, "velocity": 91}, {"time": 1569, "pitch": 62, "duration": 19, "velocity": 97}, {"time": 1569, "pitch": 65, "duration": 19, "velocity": 101}, {"time": 1569, "pitch": 70, "duration": 19, "velocity": 105}, {"time": 1569, "pitch": 72, "duration": 1, "velocity": 48}, {"time": 1575, "pitch": 55, "duration": 7, "velocity": 78}, {"time": 1581, "pitch": 57, "duration": 19, "velocity": 60}, {"time": 1587, "pitch": 58, "duration": 16, "velocity": 93}, {"time": 1593, "pitch": 62, "duration": 4, "velocity": 99}, {"time": 1599, "pitch": 65, "duration": 7, "velocity": 92}, {"time": 1605, "pitch": 70, "duration": 6, "velocity": 112}, {"time": 1611, "pitch": 72, "duration": 4, "velocity": 96}, {"time": 1617, "pitch": 48, "duration": 11, "velocity": 81}, {"time": 1617, "pitch": 65, "duration": 7, "velocity": 97}, {"time": 1617, "pitch": 72, "duration": 9, "velocity": 35}, {"time": 1623, "pitch": 55, "duration": 5, "velocity": 85}, {"time": 1629, "pitch": 60, "duration": 7, "velocity": 72}, {"time": 1635, "pitch": 62, "duration": 12, "velocity": 65}, {"time": 1635, "pitch": 69, "duration": 3, "velocity": 72}, {"time": 1635, "pitch": 77, "duration": 3, "velocity": 96}, {"time": 1641, "pitch": 64, "duration": 12, "velocity": 77}, {"time": 1641, "pitch": 69, "duration": 5, "velocity": 96}, {"time": 1641, "pitch": 77, "duration": 6, "velocity": 101}, {"time": 1650, "pitch": 67, "duration": 6, "velocity": 92}, {"time": 1650, "pitch": 76, "duration": 7, "velocity": 103}, {"time": 1653, "pitch": 62, "duration": 2, "velocity": 88}, {"time": 1659, "pitch": 67, "duration": 2, "velocity": 54}, {"time": 1659, "pitch": 74, "duration": 5, "velocity": 96}, {"time": 1665, "pitch": 41, "duration": 10, "velocity": 91}, {"time": 1665, "pitch": 67, "duration": 6, "velocity": 106}, {"time": 1665, "pitch": 72, "duration": 5, "velocity": 117}, {"time": 1671, "pitch": 48, "duration": 5, "velocity": 70}, {"time": 1677, "pitch": 53, "duration": 8, "velocity": 76}, {"time": 1683, "pitch": 57, "duration": 18, "velocity": 82}, {"time": 1689, "pitch": 60, "duration": 11, "velocity": 81}, {"time": 1695, "pitch": 65, "duration": 4, "velocity": 107}, {"time": 1701, "pitch": 67, "duration": 6, "velocity": 103}, {"time": 1707, "pitch": 69, "duration": 7, "velocity": 77}, {"time": 1713, "pitch": 52, "duration": 39, "velocity": 62}, {"time": 1713, "pitch": 60, "duration": 9, "velocity": 86}, {"time": 1713, "pitch": 67, "duration": 9, "velocity": 99}, {"time": 1719, "pitch": 55, "duration": 15, "velocity": 72}, {"time": 1725, "pitch": 60, "duration": 2, "velocity": 65}, {"time": 1731, "pitch": 60, "duration": 9, "velocity": 101}, {"time": 1731, "pitch": 72, "duration": 9, "velocity": 97}, {"time": 1737, "pitch": 55, "duration": 13, "velocity": 88}, {"time": 1743, "pitch": 60, "duration": 3, "velocity": 85}, {"time": 1743, "pitch": 67, "duration": 3, "velocity": 91}, {"time": 1749, "pitch": 67, "duration": 6, "velocity": 94}, {"time": 1755, "pitch": 72, "duration": 4, "velocity": 92}, {"time": 1761, "pitch": 50, "duration": 40, "velocity": 81}, {"time": 1761, "pitch": 60, "duration": 4, "velocity": 82}, {"time": 1761, "pitch": 65, "duration": 12, "velocity": 60}, {"time": 1761, "pitch": 69, "duration": 11, "velocity": 79}, {"time": 1761, "pitch": 72, "duration": 3, "velocity": 63}, {"time": 1767, "pitch": 57, "duration": 26, "velocity": 60}, {"time": 1773, "pitch": 62, "duration": 13, "velocity": 88}, {"time": 1779, "pitch": 64, "duration": 4, "velocity": 78}, {"time": 1779, "pitch": 67, "duration": 4, "velocity": 78}, {"time": 1785, "pitch": 65, "duration": 6, "velocity": 88}, {"time": 1785, "pitch": 69, "duration": 7, "velocity": 103}, {"time": 1788, "pitch": 62, "duration": 5, "velocity": 63}, {"time": 1794, "pitch": 65, "duration": 7, "velocity": 96}, {"time": 1794, "pitch": 72, "duration": 6, "velocity": 96}, {"time": 1797, "pitch": 57, "duration": 3, "velocity": 81}, {"time": 1803, "pitch": 65, "duration": 3, "velocity": 50}, {"time": 1803, "pitch": 69, "duration": 5, "velocity": 72}, {"time": 1809, "pitch": 48, "duration": 16, "velocity": 62}, {"time": 1809, "pitch": 63, "duration": 10, "velocity": 68}, {"time": 1809, "pitch": 67, "duration": 9, "velocity": 111}, {"time": 1809, "pitch": 72, "duration": 10, "velocity": 96}, {"time": 1815, "pitch": 55, "duration": 10, "velocity": 84}, {"time": 1821, "pitch": 60, "duration": 3, "velocity": 79}, {"time": 1827, "pitch": 69, "duration": 15, "velocity": 81}, {"time": 1833, "pitch": 41, "duration": 11, "velocity": 92}, {"time": 1833, "pitch": 60, "duration": 9, "velocity": 70}, {"time": 1833, "pitch": 63, "duration": 9, "velocity": 62}, {"time": 1833, "pitch": 67, "duration": 8, "velocity": 56}, {"time": 1839, "pitch": 53, "duration": 8, "velocity": 72}, {"time": 1845, "pitch": 60, "duration": 5, "velocity": 78}, {"time": 1851, "pitch": 69, "duration": 5, "velocity": 78}, {"time": 1857, "pitch": 46, "duration": 38, "velocity": 68}, {"time": 1857, "pitch": 62, "duration": 12, "velocity": 68}, {"time": 1857, "pitch": 65, "duration": 13, "velocity": 81}, {"time": 1857, "pitch": 69, "duration": 13, "velocity": 54}, {"time": 1863, "pitch": 53, "duration": 32, "velocity": 82}, {"time": 1869, "pitch": 58, "duration": 7, "velocity": 74}, {"time": 1875, "pitch": 60, "duration": 9, "velocity": 76}, {"time": 1875, "pitch": 67, "duration": 9, "velocity": 86}, {"time": 1881, "pitch": 58, "duration": 7, "velocity": 39}, {"time": 1887, "pitch": 60, "duration": 9, "velocity": 78}, {"time": 1887, "pitch": 65, "duration": 8, "velocity": 99}, {"time": 1893, "pitch": 58, "duration": 2, "velocity": 74}, {"time": 1905, "pitch": 45, "duration": 15, "velocity": 77}, {"time": 1905, "pitch": 60, "duration": 9, "velocity": 76}, {"time": 1905, "pitch": 64, "duration": 9, "velocity": 85}, {"time": 1905, "pitch": 69, "duration": 8, "velocity": 88}, {"time": 1911, "pitch": 57, "duration": 14, "velocity": 54}, {"time": 1917, "pitch": 60, "duration": 4, "velocity": 72}, {"time": 1923, "pitch": 69, "duration": 4, "velocity": 84}, {"time": 1935, "pitch": 60, "duration": 7, "velocity": 86}, {"time": 1935, "pitch": 67, "duration": 5, "velocity": 103}, {"time": 1947, "pitch": 65, "duration": 5, "velocity": 91}, {"time": 1953, "pitch": 43, "duration": 37, "velocity": 92}, {"time": 1953, "pitch": 62, "duration": 11, "velocity": 57}, {"time": 1953, "pitch": 65, "duration": 12, "velocity": 66}, {"time": 1953, "pitch": 70, "duration": 11, "velocity": 83}, {"time": 1959, "pitch": 50, "duration": 31, "velocity": 72}, {"time": 1965, "pitch": 53, "duration": 17, "velocity": 84}, {"time": 1971, "pitch": 57, "duration": 14, "velocity": 77}, {"time": 1983, "pitch": 58, "duration": 10, "velocity": 112}, {"time": 1986, "pitch": 53, "duration": 4, "velocity": 68}, {"time": 1992, "pitch": 65, "duration": 4, "velocity": 76}, {"time": 2001, "pitch": 48, "duration": 34, "velocity": 84}, {"time": 2001, "pitch": 55, "duration": 7, "velocity": 81}, {"time": 2001, "pitch": 60, "duration": 8, "velocity": 97}, {"time": 2001, "pitch": 64, "duration": 10, "velocity": 84}, {"time": 2025, "pitch": 65, "duration": 10, "velocity": 72}, {"time": 2025, "pitch": 72, "duration": 10, "velocity": 60}, {"time": 2049, "pitch": 41, "duration": 38, "velocity": 76}, {"time": 2049, "pitch": 60, "duration": 10, "velocity": 63}, {"time": 2049, "pitch": 65, "duration": 9, "velocity": 72}, {"time": 2049, "pitch": 69, "duration": 8, "velocity": 74}, {"time": 2067, "pitch": 53, "duration": 13, "velocity": 65}, {"time": 2079, "pitch": 57, "duration": 10, "velocity": 82}, {"time": 2085, "pitch": 53, "duration": 8, "velocity": 53}, {"time": 2091, "pitch": 60, "duration": 27, "velocity": 82}, {"time": 2097, "pitch": 41, "duration": 27, "velocity": 57}, {"time": 2097, "pitch": 53, "duration": 26, "velocity": 65}, {"time": 2097, "pitch": 57, "duration": 22, "velocity": 56}, {"time": 2097, "pitch": 65, "duration": 23, "velocity": 74}, {"time": 2145, "pitch": 46, "duration": 85, "velocity": 51}, {"time": 2145, "pitch": 60, "duration": 12, "velocity": 69}, {"time": 2145, "pitch": 62, "duration": 12, "velocity": 86}, {"time": 2145, "pitch": 65, "duration": 14, "velocity": 53}, {"time": 2169, "pitch": 58, "duration": 25, "velocity": 47}, {"time": 2175, "pitch": 65, "duration": 8, "velocity": 65}, {"time": 2181, "pitch": 70, "duration": 6, "velocity": 82}, {"time": 2187, "pitch": 74, "duration": 2, "velocity": 84}, {"time": 2196, "pitch": 58, "duration": 4, "velocity": 18}, {"time": 2199, "pitch": 62, "duration": 3, "velocity": 72}, {"time": 2199, "pitch": 70, "duration": 3, "velocity": 60}, {"time": 2211, "pitch": 58, "duration": 17, "velocity": 45}, {"time": 2217, "pitch": 60, "duration": 9, "velocity": 71}, {"time": 2217, "pitch": 65, "duration": 7, "velocity": 84}, {"time": 2241, "pitch": 45, "duration": 81, "velocity": 42}, {"time": 2241, "pitch": 52, "duration": 68, "velocity": 72}, {"time": 2241, "pitch": 55, "duration": 10, "velocity": 68}, {"time": 2241, "pitch": 60, "duration": 15, "velocity": 72}, {"time": 2241, "pitch": 64, "duration": 17, "velocity": 82}, {"time": 2265, "pitch": 57, "duration": 24, "velocity": 42}, {"time": 2271, "pitch": 64, "duration": 8, "velocity": 69}, {"time": 2277, "pitch": 67, "duration": 6, "velocity": 66}, {"time": 2283, "pitch": 72, "duration": 3, "velocity": 100}, {"time": 2295, "pitch": 57, "duration": 9, "velocity": 43}, {"time": 2301, "pitch": 60, "duration": 13, "velocity": 60}, {"time": 2307, "pitch": 67, "duration": 12, "velocity": 82}, {"time": 2313, "pitch": 52, "duration": 9, "velocity": 72}, {"time": 2319, "pitch": 55, "duration": 5, "velocity": 65}, {"time": 2325, "pitch": 60, "duration": 4, "velocity": 68}, {"time": 2331, "pitch": 62, "duration": 21, "velocity": 75}, {"time": 2337, "pitch": 43, "duration": 83, "velocity": 82}, {"time": 2337, "pitch": 58, "duration": 12, "velocity": 59}, {"time": 2337, "pitch": 65, "duration": 18, "velocity": 81}, {"time": 2355, "pitch": 50, "duration": 65, "velocity": 69}, {"time": 2367, "pitch": 55, "duration": 17, "velocity": 69}, {"time": 2373, "pitch": 65, "duration": 7, "velocity": 59}, {"time": 2379, "pitch": 72, "duration": 5, "velocity": 84}, {"time": 2391, "pitch": 55, "duration": 14, "velocity": 60}, {"time": 2397, "pitch": 60, "duration": 4, "velocity": 54}, {"time": 2403, "pitch": 67, "duration": 7, "velocity": 97}, {"time": 2415, "pitch": 55, "duration": 5, "velocity": 66}, {"time": 2421, "pitch": 65, "duration": 8, "velocity": 84}, {"time": 2433, "pitch": 36, "duration": 73, "velocity": 91}, {"time": 2433, "pitch": 55, "duration": 12, "velocity": 62}, {"time": 2433, "pitch": 60, "duration": 13, "velocity": 77}, {"time": 2433, "pitch": 62, "duration": 13, "velocity": 74}, {"time": 2433, "pitch": 64, "duration": 12, "velocity": 59}, {"time": 2448, "pitch": 48, "duration": 55, "velocity": 41}, {"time": 2457, "pitch": 55, "duration": 4, "velocity": 68}, {"time": 2463, "pitch": 60, "duration": 5, "velocity": 59}, {"time": 2469, "pitch": 65, "duration": 2, "velocity": 49}, {"time": 2475, "pitch": 67, "duration": 5, "velocity": 33}, {"time": 2481, "pitch": 72, "duration": 12, "velocity": 72}, {"time": 2529, "pitch": 41, "duration": 69, "velocity": 41}, {"time": 2529, "pitch": 53, "duration": 68, "velocity": 57}, {"time": 2529, "pitch": 57, "duration": 12, "velocity": 45}, {"time": 2529, "pitch": 60, "duration": 12, "velocity": 68}, {"time": 2529, "pitch": 65, "duration": 13, "velocity": 50}, {"time": 2553, "pitch": 60, "duration": 13, "velocity": 44}, {"time": 2553, "pitch": 65, "duration": 12, "velocity": 53}, {"time": 2553, "pitch": 69, "duration": 11, "velocity": 53}, {"time": 2577, "pitch": 60, "duration": 14, "velocity": 38}, {"time": 2577, "pitch": 65, "duration": 13, "velocity": 47}, {"time": 2577, "pitch": 69, "duration": 12, "velocity": 56}, {"time": 2601, "pitch": 40, "duration": 10, "velocity": 59}, {"time": 2601, "pitch": 52, "duration": 12, "velocity": 59}, {"time": 2601, "pitch": 60, "duration": 12, "velocity": 54}, {"time": 2601, "pitch": 64, "duration": 12, "velocity": 60}, {"time": 2601, "pitch": 67, "duration": 13, "velocity": 85}, {"time": 2625, "pitch": 50, "duration": 59, "velocity": 31}, {"time": 2625, "pitch": 57, "duration": 32, "velocity": 42}, {"time": 2625, "pitch": 60, "duration": 13, "velocity": 50}, {"time": 2625, "pitch": 65, "duration": 12, "velocity": 60}, {"time": 2625, "pitch": 69, "duration": 13, "velocity": 62}, {"time": 2649, "pitch": 60, "duration": 15, "velocity": 44}, {"time": 2649, "pitch": 65, "duration": 14, "velocity": 54}, {"time": 2649, "pitch": 69, "duration": 13, "velocity": 56}, {"time": 2667, "pitch": 57, "duration": 13, "velocity": 33}, {"time": 2673, "pitch": 60, "duration": 25, "velocity": 59}, {"time": 2673, "pitch": 65, "duration": 25, "velocity": 76}, {"time": 2691, "pitch": 50, "duration": 18, "velocity": 63}, {"time": 2697, "pitch": 57, "duration": 10, "velocity": 57}, {"time": 2703, "pitch": 60, "duration": 3, "velocity": 79}, {"time": 2709, "pitch": 65, "duration": 6, "velocity": 88}, {"time": 2715, "pitch": 70, "duration": 4, "velocity": 60}, {"time": 2721, "pitch": 43, "duration": 76, "velocity": 74}, {"time": 2721, "pitch": 58, "duration": 20, "velocity": 77}, {"time": 2721, "pitch": 65, "duration": 20, "velocity": 81}, {"time": 2739, "pitch": 55, "duration": 35, "velocity": 62}, {"time": 2745, "pitch": 58, "duration": 6, "velocity": 78}, {"time": 2751, "pitch": 62, "duration": 6, "velocity": 84}, {"time": 2757, "pitch": 64, "duration": 7, "velocity": 78}, {"time": 2763, "pitch": 65, "duration": 35, "velocity": 75}, {"time": 2775, "pitch": 70, "duration": 17, "velocity": 84}, {"time": 2787, "pitch": 55, "duration": 9, "velocity": 69}, {"time": 2793, "pitch": 72, "duration": 7, "velocity": 91}, {"time": 2817, "pitch": 48, "duration": 81, "velocity": 72}, {"time": 2817, "pitch": 60, "duration": 11, "velocity": 65}, {"time": 2817, "pitch": 65, "duration": 11, "velocity": 66}, {"time": 2829, "pitch": 55, "duration": 20, "velocity": 77}, {"time": 2835, "pitch": 60, "duration": 15, "velocity": 66}, {"time": 2841, "pitch": 65, "duration": 4, "velocity": 78}, {"time": 2847, "pitch": 67, "duration": 4, "velocity": 70}, {"time": 2856, "pitch": 55, "duration": 41, "velocity": 54}, {"time": 2865, "pitch": 84, "duration": 7, "velocity": 91}, {"time": 2889, "pitch": 72, "duration": 4, "velocity": 48}, {"time": 2889, "pitch": 82, "duration": 4, "velocity": 47}, {"time": 2913, "pitch": 53, "duration": 42, "velocity": 79}, {"time": 2913, "pitch": 60, "duration": 26, "velocity": 68}, {"time": 2913, "pitch": 65, "duration": 16, "velocity": 72}, {"time": 2913, "pitch": 69, "duration": 26, "velocity": 78}, {"time": 2937, "pitch": 41, "duration": 44, "velocity": 31}, {"time": 2943, "pitch": 60, "duration": 4, "velocity": 77}, {"time": 2949, "pitch": 65, "duration": 3, "velocity": 66}, {"time": 2955, "pitch": 60, "duration": 7, "velocity": 74}, {"time": 2955, "pitch": 69, "duration": 9, "velocity": 76}, {"time": 2961, "pitch": 53, "duration": 4, "velocity": 42}, {"time": 2967, "pitch": 60, "duration": 9, "velocity": 78}, {"time": 2967, "pitch": 67, "duration": 6, "velocity": 70}, {"time": 2979, "pitch": 53, "duration": 2, "velocity": 57}, {"time": 2985, "pitch": 40, "duration": 10, "velocity": 86}, {"time": 2985, "pitch": 60, "duration": 8, "velocity": 68}, {"time": 2985, "pitch": 64, "duration": 8, "velocity": 81}, {"time": 2985, "pitch": 67, "duration": 9, "velocity": 96}, {"time": 2991, "pitch": 52, "duration": 7, "velocity": 74}, {"time": 2997, "pitch": 60, "duration": 7, "velocity": 60}, {"time": 3003, "pitch": 72, "duration": 9, "velocity": 72}, {"time": 3009, "pitch": 50, "duration": 83, "velocity": 81}, {"time": 3009, "pitch": 60, "duration": 6, "velocity": 72}, {"time": 3009, "pitch": 65, "duration": 7, "velocity": 90}, {"time": 3009, "pitch": 69, "duration": 10, "velocity": 90}, {"time": 3015, "pitch": 57, "duration": 27, "velocity": 60}, {"time": 3021, "pitch": 62, "duration": 7, "velocity": 60}, {"time": 3027, "pitch": 69, "duration": 3, "velocity": 69}, {"time": 3027, "pitch": 77, "duration": 4, "velocity": 99}, {"time": 3030, "pitch": 62, "duration": 9, "velocity": 42}, {"time": 3039, "pitch": 67, "duration": 3, "velocity": 60}, {"time": 3039, "pitch": 76, "duration": 3, "velocity": 70}, {"time": 3051, "pitch": 57, "duration": 14, "velocity": 79}, {"time": 3057, "pitch": 60, "duration": 3, "velocity": 51}, {"time": 3057, "pitch": 60, "duration": 3, "velocity": 78}, {"time": 3057, "pitch": 65, "duration": 10, "velocity": 77}, {"time": 3057, "pitch": 69, "duration": 15, "velocity": 90}, {"time": 3075, "pitch": 57, "duration": 7, "velocity": 62}, {"time": 3081, "pitch": 60, "duration": 9, "velocity": 94}, {"time": 3081, "pitch": 67, "duration": 4, "velocity": 97}, {"time": 3087, "pitch": 57, "duration": 3, "velocity": 54}, {"time": 3093, "pitch": 64, "duration": 3, "velocity": 72}, {"time": 3099, "pitch": 65, "duration": 1, "velocity": 33}, {"time": 3105, "pitch": 46, "duration": 81, "velocity": 69}, {"time": 3105, "pitch": 62, "duration": 20, "velocity": 47}, {"time": 3105, "pitch": 65, "duration": 20, "velocity": 72}, {"time": 3105, "pitch": 70, "duration": 20, "velocity": 85}, {"time": 3117, "pitch": 53, "duration": 68, "velocity": 69}, {"time": 3123, "pitch": 58, "duration": 14, "velocity": 63}, {"time": 3129, "pitch": 62, "duration": 4, "velocity": 74}, {"time": 3135, "pitch": 65, "duration": 8, "velocity": 94}, {"time": 3141, "pitch": 58, "duration": 9, "velocity": 62}, {"time": 3147, "pitch": 60, "duration": 9, "velocity": 76}, {"time": 3147, "pitch": 70, "duration": 8, "velocity": 74}, {"time": 3153, "pitch": 58, "duration": 7, "velocity": 45}, {"time": 3159, "pitch": 60, "duration": 10, "velocity": 63}, {"time": 3159, "pitch": 69, "duration": 10, "velocity": 69}, {"time": 3171, "pitch": 58, "duration": 8, "velocity": 63}, {"time": 3177, "pitch": 60, "duration": 8, "velocity": 96}, {"time": 3183, "pitch": 58, "duration": 4, "velocity": 78}, {"time": 3183, "pitch": 65, "duration": 4, "velocity": 65}, {"time": 3189, "pitch": 67, "duration": 7, "velocity": 82}, {"time": 3195, "pitch": 72, "duration": 21, "velocity": 86}, {"time": 3201, "pitch": 48, "duration": 39, "velocity": 81}, {"time": 3201, "pitch": 60, "duration": 7, "velocity": 74}, {"time": 3201, "pitch": 65, "duration": 10, "velocity": 84}, {"time": 3207, "pitch": 55, "duration": 20, "velocity": 41}, {"time": 3213, "pitch": 60, "duration": 19, "velocity": 62}, {"time": 3219, "pitch": 65, "duration": 7, "velocity": 91}, {"time": 3225, "pitch": 67, "duration": 4, "velocity": 84}, {"time": 3231, "pitch": 69, "duration": 10, "velocity": 77}, {"time": 3237, "pitch": 55, "duration": 2, "velocity": 96}, {"time": 3249, "pitch": 36, "duration": 33, "velocity": 96}, {"time": 3249, "pitch": 60, "duration": 8, "velocity": 76}, {"time": 3249, "pitch": 64, "duration": 8, "velocity": 81}, {"time": 3249, "pitch": 67, "duration": 9, "velocity": 74}, {"time": 3249, "pitch": 72, "duration": 8, "velocity": 76}, {"time": 3255, "pitch": 48, "duration": 15, "velocity": 66}, {"time": 3261, "pitch": 60, "duration": 4, "velocity": 60}, {"time": 3267, "pitch": 65, "duration": 3, "velocity": 53}, {"time": 3273, "pitch": 48, "duration": 9, "velocity": 74}, {"time": 3273, "pitch": 60, "duration": 9, "velocity": 81}, {"time": 3273, "pitch": 67, "duration": 8, "velocity": 91}, {"time": 3285, "pitch": 38, "duration": 7, "velocity": 81}, {"time": 3285, "pitch": 60, "duration": 5, "velocity": 82}, {"time": 3285, "pitch": 65, "duration": 6, "velocity": 72}, {"time": 3291, "pitch": 40, "duration": 3, "velocity": 74}, {"time": 3291, "pitch": 67, "duration": 3, "velocity": 78}, {"time": 3297, "pitch": 41, "duration": 39, "velocity": 88}, {"time": 3297, "pitch": 60, "duration": 12, "velocity": 94}, {"time": 3297, "pitch": 65, "duration": 14, "velocity": 97}, {"time": 3297, "pitch": 69, "duration": 14, "velocity": 77}, {"time": 3309, "pitch": 53, "duration": 15, "velocity": 63}, {"time": 3315, "pitch": 60, "duration": 3, "velocity": 33}, {"time": 3321, "pitch": 60, "duration": 8, "velocity": 78}, {"time": 3321, "pitch": 65, "duration": 8, "velocity": 96}, {"time": 3321, "pitch": 69, "duration": 8, "velocity": 86}, {"time": 3327, "pitch": 53, "duration": 8, "velocity": 62}, {"time": 3333, "pitch": 60, "duration": 4, "velocity": 77}, {"time": 3339, "pitch": 69, "duration": 5, "velocity": 72}, {"time": 3345, "pitch": 40, "duration": 5, "velocity": 88}, {"time": 3345, "pitch": 52, "duration": 7, "velocity": 82}, {"time": 3345, "pitch": 60, "duration": 25, "velocity": 77}, {"time": 3345, "pitch": 64, "duration": 13, "velocity": 81}, {"time": 3345, "pitch": 67, "duration": 18, "velocity": 86}, {"time": 3345, "pitch": 69, "duration": 1, "velocity": 50}, {"time": 3363, "pitch": 52, "duration": 22, "velocity": 84}, {"time": 3369, "pitch": 59, "duration": 9, "velocity": 72}, {"time": 3375, "pitch": 60, "duration": 8, "velocity": 106}, {"time": 3375, "pitch": 67, "duration": 8, "velocity": 89}, {"time": 3381, "pitch": 59, "duration": 3, "velocity": 72}, {"time": 3387, "pitch": 72, "duration": 5, "velocity": 96}, {"time": 3393, "pitch": 50, "duration": 38, "velocity": 88}, {"time": 3393, "pitch": 60, "duration": 7, "velocity": 86}, {"time": 3393, "pitch": 65, "duration": 9, "velocity": 88}, {"time": 3393, "pitch": 69, "duration": 10, "velocity": 92}, {"time": 3393, "pitch": 72, "duration": 2, "velocity": 60}, {"time": 3399, "pitch": 57, "duration": 25, "velocity": 60}, {"time": 3405, "pitch": 62, "duration": 19, "velocity": 77}, {"time": 3411, "pitch": 64, "duration": 8, "velocity": 94}, {"time": 3411, "pitch": 69, "duration": 7, "velocity": 82}, {"time": 3423, "pitch": 65, "duration": 8, "velocity": 106}, {"time": 3423, "pitch": 69, "duration": 8, "velocity": 92}, {"time": 3429, "pitch": 57, "duration": 3, "velocity": 82}, {"time": 3435, "pitch": 67, "duration": 4, "velocity": 99}, {"time": 3441, "pitch": 48, "duration": 40, "velocity": 84}, {"time": 3441, "pitch": 64, "duration": 9, "velocity": 88}, {"time": 3441, "pitch": 67, "duration": 12, "velocity": 103}, {"time": 3441, "pitch": 72, "duration": 12, "velocity": 101}, {"time": 3447, "pitch": 57, "duration": 34, "velocity": 68}, {"time": 3453, "pitch": 60, "duration": 12, "velocity": 86}, {"time": 3459, "pitch": 67, "duration": 3, "velocity": 47}, {"time": 3465, "pitch": 77, "duration": 4, "velocity": 82}, {"time": 3468, "pitch": 60, "duration": 3, "velocity": 57}, {"time": 3471, "pitch": 76, "duration": 7, "velocity": 107}, {"time": 3477, "pitch": 72, "duration": 5, "velocity": 96}, {"time": 3480, "pitch": 60, "duration": 1, "velocity": 50}, {"time": 3483, "pitch": 69, "duration": 3, "velocity": 62}, {"time": 3489, "pitch": 46, "duration": 40, "velocity": 66}, {"time": 3489, "pitch": 69, "duration": 6, "velocity": 94}, {"time": 3489, "pitch": 74, "duration": 6, "velocity": 90}, {"time": 3495, "pitch": 53, "duration": 33, "velocity": 92}, {"time": 3501, "pitch": 58, "duration": 9, "velocity": 92}, {"time": 3507, "pitch": 62, "duration": 11, "velocity": 91}, {"time": 3507, "pitch": 65, "duration": 11, "velocity": 95}, {"time": 3507, "pitch": 70, "duration": 12, "velocity": 109}, {"time": 3513, "pitch": 58, "duration": 8, "velocity": 76}, {"time": 3519, "pitch": 62, "duration": 4, "velocity": 72}, {"time": 3525, "pitch": 58, "duration": 2, "velocity": 31}, {"time": 3525, "pitch": 65, "duration": 4, "velocity": 92}, {"time": 3531, "pitch": 67, "duration": 3, "velocity": 77}, {"time": 3537, "pitch": 45, "duration": 39, "velocity": 60}, {"time": 3537, "pitch": 57, "duration": 8, "velocity": 50}, {"time": 3537, "pitch": 60, "duration": 13, "velocity": 72}, {"time": 3537, "pitch": 65, "duration": 13, "velocity": 60}, {"time": 3537, "pitch": 69, "duration": 13, "velocity": 85}, {"time": 3549, "pitch": 57, "duration": 14, "velocity": 47}, {"time": 3555, "pitch": 60, "duration": 3, "velocity": 60}, {"time": 3561, "pitch": 60, "duration": 8, "velocity": 97}, {"time": 3561, "pitch": 65, "duration": 9, "velocity": 96}, {"time": 3561, "pitch": 69, "duration": 8, "velocity": 85}, {"time": 3567, "pitch": 57, "duration": 8, "velocity": 72}, {"time": 3573, "pitch": 60, "duration": 4, "velocity": 97}, {"time": 3579, "pitch": 72, "duration": 4, "velocity": 103}, {"time": 3585, "pitch": 43, "duration": 6, "velocity": 91}, {"time": 3585, "pitch": 62, "duration": 19, "velocity": 97}, {"time": 3585, "pitch": 65, "duration": 19, "velocity": 101}, {"time": 3585, "pitch": 70, "duration": 19, "velocity": 105}, {"time": 3585, "pitch": 72, "duration": 1, "velocity": 48}, {"time": 3591, "pitch": 55, "duration": 7, "velocity": 78}, {"time": 3597, "pitch": 57, "duration": 19, "velocity": 60}, {"time": 3603, "pitch": 58, "duration": 16, "velocity": 93}, {"time": 3609, "pitch": 62, "duration": 4, "velocity": 99}, {"time": 3615, "pitch": 65, "duration": 7, "velocity": 92}, {"time": 3621, "pitch": 70, "duration": 6, "velocity": 112}, {"time": 3627, "pitch": 72, "duration": 4, "velocity": 96}, {"time": 3633, "pitch": 48, "duration": 11, "velocity": 81}, {"time": 3633, "pitch": 65, "duration": 7, "velocity": 97}, {"time": 3633, "pitch": 72, "duration": 9, "velocity": 35}, {"time": 3639, "pitch": 55, "duration": 5, "velocity": 85}, {"time": 3645, "pitch": 60, "duration": 7, "velocity": 72}, {"time": 3651, "pitch": 62, "duration": 12, "velocity": 65}, {"time": 3651, "pitch": 69, "duration": 3, "velocity": 72}, {"time": 3651, "pitch": 77, "duration": 3, "velocity": 96}, {"time": 3657, "pitch": 64, "duration": 12, "velocity": 77}, {"time": 3657, "pitch": 69, "duration": 5, "velocity": 96}, {"time": 3657, "pitch": 77, "duration": 6, "velocity": 101}, {"time": 3666, "pitch": 67, "duration": 6, "velocity": 92}, {"time": 3666, "pitch": 76, "duration": 7, "velocity": 103}, {"time": 3669, "pitch": 62, "duration": 2, "velocity": 88}, {"time": 3675, "pitch": 67, "duration": 2, "velocity": 54}, {"time": 3675, "pitch": 74, "duration": 5, "velocity": 96}, {"time": 3681, "pitch": 41, "duration": 10, "velocity": 91}, {"time": 3681, "pitch": 67, "duration": 6, "velocity": 106}, {"time": 3681, "pitch": 72, "duration": 5, "velocity": 117}, {"time": 3687, "pitch": 48, "duration": 5, "velocity": 70}, {"time": 3693, "pitch": 53, "duration": 8, "velocity": 76}, {"time": 3699, "pitch": 57, "duration": 18, "velocity": 82}, {"time": 3705, "pitch": 60, "duration": 11, "velocity": 81}, {"time": 3711, "pitch": 65, "duration": 4, "velocity": 107}, {"time": 3717, "pitch": 67, "duration": 6, "velocity": 103}, {"time": 3723, "pitch": 69, "duration": 7, "velocity": 77}, {"time": 3729, "pitch": 52, "duration": 39, "velocity": 62}, {"time": 3729, "pitch": 60, "duration": 9, "velocity": 86}, {"time": 3729, "pitch": 67, "duration": 9, "velocity": 99}, {"time": 3735, "pitch": 55, "duration": 15, "velocity": 72}, {"time": 3741, "pitch": 60, "duration": 2, "velocity": 65}, {"time": 3747, "pitch": 60, "duration": 9, "velocity": 101}, {"time": 3747, "pitch": 72, "duration": 9, "velocity": 97}, {"time": 3753, "pitch": 55, "duration": 13, "velocity": 88}, {"time": 3759, "pitch": 60, "duration": 3, "velocity": 85}, {"time": 3759, "pitch": 67, "duration": 3, "velocity": 91}, {"time": 3765, "pitch": 67, "duration": 6, "velocity": 94}, {"time": 3771, "pitch": 72, "duration": 4, "velocity": 92}, {"time": 3777, "pitch": 50, "duration": 40, "velocity": 81}, {"time": 3777, "pitch": 60, "duration": 4, "velocity": 82}, {"time": 3777, "pitch": 65, "duration": 12, "velocity": 60}, {"time": 3777, "pitch": 69, "duration": 11, "velocity": 79}, {"time": 3777, "pitch": 72, "duration": 3, "velocity": 63}, {"time": 3783, "pitch": 57, "duration": 26, "velocity": 60}, {"time": 3789, "pitch": 62, "duration": 13, "velocity": 88}, {"time": 3795, "pitch": 64, "duration": 4, "velocity": 78}, {"time": 3795, "pitch": 67, "duration": 4, "velocity": 78}, {"time": 3801, "pitch": 65, "duration": 6, "velocity": 88}, {"time": 3801, "pitch": 69, "duration": 7, "velocity": 103}, {"time": 3804, "pitch": 62, "duration": 5, "velocity": 63}, {"time": 3810, "pitch": 65, "duration": 7, "velocity": 96}, {"time": 3810, "pitch": 72, "duration": 6, "velocity": 96}, {"time": 3813, "pitch": 57, "duration": 3, "velocity": 81}, {"time": 3819, "pitch": 65, "duration": 3, "velocity": 50}, {"time": 3819, "pitch": 69, "duration": 5, "velocity": 72}, {"time": 3825, "pitch": 48, "duration": 16, "velocity": 62}, {"time": 3825, "pitch": 63, "duration": 10, "velocity": 68}, {"time": 3825, "pitch": 67, "duration": 9, "velocity": 111}, {"time": 3825, "pitch": 72, "duration": 10, "velocity": 96}, {"time": 3831, "pitch": 55, "duration": 10, "velocity": 84}, {"time": 3837, "pitch": 60, "duration": 3, "velocity": 79}, {"time": 3843, "pitch": 69, "duration": 15, "velocity": 81}, {"time": 3849, "pitch": 41, "duration": 11, "velocity": 92}, {"time": 3849, "pitch": 60, "duration": 9, "velocity": 70}, {"time": 3849, "pitch": 63, "duration": 9, "velocity": 62}, {"time": 3849, "pitch": 67, "duration": 8, "velocity": 56}, {"time": 3855, "pitch": 53, "duration": 8, "velocity": 72}, {"time": 3861, "pitch": 60, "duration": 5, "velocity": 78}, {"time": 3867, "pitch": 69, "duration": 5, "velocity": 78}, {"time": 3873, "pitch": 46, "duration": 38, "velocity": 68}, {"time": 3873, "pitch": 62, "duration": 12, "velocity": 68}, {"time": 3873, "pitch": 65, "duration": 13, "velocity": 81}, {"time": 3873, "pitch": 69, "duration": 13, "velocity": 54}, {"time": 3879, "pitch": 53, "duration": 32, "velocity": 82}, {"time": 3885, "pitch": 58, "duration": 7, "velocity": 74}, {"time": 3891, "pitch": 60, "duration": 9, "velocity": 76}, {"time": 3891, "pitch": 67, "duration": 9, "velocity": 86}, {"time": 3897, "pitch": 58, "duration": 7, "velocity": 39}, {"time": 3903, "pitch": 60, "duration": 9, "velocity": 78}, {"time": 3903, "pitch": 65, "duration": 8, "velocity": 99}, {"time": 3909, "pitch": 58, "duration": 2, "velocity": 74}, {"time": 3921, "pitch": 45, "duration": 15, "velocity": 77}, {"time": 3921, "pitch": 60, "duration": 9, "velocity": 76}, {"time": 3921, "pitch": 64, "duration": 9, "velocity": 85}, {"time": 3921, "pitch": 69, "duration": 8, "velocity": 88}, {"time": 3927, "pitch": 57, "duration": 14, "velocity": 54}, {"time": 3933, "pitch": 60, "duration": 4, "velocity": 72}, {"time": 3939, "pitch": 69, "duration": 4, "velocity": 84}, {"time": 3951, "pitch": 60, "duration": 7, "velocity": 86}, {"time": 3951, "pitch": 67, "duration": 5, "velocity": 103}, {"time": 3963, "pitch": 65, "duration": 5, "velocity": 91}, {"time": 3969, "pitch": 43, "duration": 37, "velocity": 92}, {"time": 3969, "pitch": 62, "duration": 11, "velocity": 57}, {"time": 3969, "pitch": 65, "duration": 12, "velocity": 66}, {"time": 3969, "pitch": 70, "duration": 11, "velocity": 83}, {"time": 3975, "pitch": 50, "duration": 31, "velocity": 72}, {"time": 3981, "pitch": 53, "duration": 17, "velocity": 84}, {"time": 3987, "pitch": 57, "duration": 14, "velocity": 77}, {"time": 3999, "pitch": 58, "duration": 10, "velocity": 112}, {"time": 4002, "pitch": 53, "duration": 4, "velocity": 68}, {"time": 4008, "pitch": 65, "duration": 4, "velocity": 76}, {"time": 4014, "pitch": 36, "duration": 35, "velocity": 63}, {"time": 4014, "pitch": 48, "duration": 27, "velocity": 53}, {"time": 4014, "pitch": 55, "duration": 10, "velocity": 65}, {"time": 4014, "pitch": 60, "duration": 11, "velocity": 81}, {"time": 4014, "pitch": 62, "duration": 14, "velocity": 70}, {"time": 4014, "pitch": 64, "duration": 13, "velocity": 74}, {"time": 4017, "pitch": 48, "duration": 24, "velocity": 84}, {"time": 4017, "pitch": 55, "duration": 7, "velocity": 81}, {"time": 4017, "pitch": 60, "duration": 8, "velocity": 97}, {"time": 4017, "pitch": 64, "duration": 10, "velocity": 84}, {"time": 4041, "pitch": 55, "duration": 12, "velocity": 65}, {"time": 4041, "pitch": 60, "duration": 13, "velocity": 85}, {"time": 4041, "pitch": 62, "duration": 9, "velocity": 60}, {"time": 4041, "pitch": 64, "duration": 13, "velocity": 79}, {"time": 4041, "pitch": 65, "duration": 10, "velocity": 72}, {"time": 4041, "pitch": 72, "duration": 10, "velocity": 60}, {"time": 4050, "pitch": 48, "duration": 1, "velocity": 60}, {"time": 4062, "pitch": 41, "duration": 8, "velocity": 78}, {"time": 4062, "pitch": 53, "duration": 8, "velocity": 33}, {"time": 4062, "pitch": 57, "duration": 8, "velocity": 54}, {"time": 4062, "pitch": 60, "duration": 8, "velocity": 85}, {"time": 4062, "pitch": 65, "duration": 7, "velocity": 92}, {"time": 4065, "pitch": 41, "duration": 5, "velocity": 76}, {"time": 4065, "pitch": 60, "duration": 5, "velocity": 63}, {"time": 4065, "pitch": 65, "duration": 4, "velocity": 72}, {"time": 4065, "pitch": 69, "duration": 8, "velocity": 74}, {"time": 4074, "pitch": 41, "duration": 7, "velocity": 72}, {"time": 4074, "pitch": 53, "duration": 7, "velocity": 66}, {"time": 4074, "pitch": 57, "duration": 8, "velocity": 78}, {"time": 4074, "pitch": 60, "duration": 1, "velocity": 65}, {"time": 4074, "pitch": 65, "duration": 1, "velocity": 99}, {"time": 4083, "pitch": 53, "duration": 10, "velocity": 65}, {"time": 4086, "pitch": 41, "duration": 7, "velocity": 94}, {"time": 4086, "pitch": 53, "duration": 7, "velocity": 81}, {"time": 4086, "pitch": 57, "duration": 7, "velocity": 69}, {"time": 4086, "pitch": 60, "duration": 7, "velocity": 77}, {"time": 4086, "pitch": 65, "duration": 6, "velocity": 96}, {"time": 4095, "pitch": 57, "duration": 9, "velocity": 82}, {"time": 4098, "pitch": 41, "duration": 5, "velocity": 96}, {"time": 4098, "pitch": 53, "duration": 7, "velocity": 74}, {"time": 4098, "pitch": 57, "duration": 6, "velocity": 92}, {"time": 4098, "pitch": 60, "duration": 5, "velocity": 97}, {"time": 4098, "pitch": 65, "duration": 5, "velocity": 101}, {"time": 4101, "pitch": 53, "duration": 4, "velocity": 53}, {"time": 4107, "pitch": 60, "duration": 27, "velocity": 82}, {"time": 4113, "pitch": 41, "duration": 27, "velocity": 57}, {"time": 4113, "pitch": 53, "duration": 26, "velocity": 65}, {"time": 4113, "pitch": 57, "duration": 22, "velocity": 56}, {"time": 4113, "pitch": 65, "duration": 23, "velocity": 74}, {"time": 4116, "pitch": 42, "duration": 24, "velocity": 92}, {"time": 4116, "pitch": 54, "duration": 8, "velocity": 96}, {"time": 4116, "pitch": 58, "duration": 14, "velocity": 59}, {"time": 4116, "pitch": 61, "duration": 14, "velocity": 90}, {"time": 4116, "pitch": 66, "duration": 14, "velocity": 76}, {"time": 4128, "pitch": 54, "duration": 14, "velocity": 60}, {"time": 4134, "pitch": 58, "duration": 4, "velocity": 63}, {"time": 4140, "pitch": 61, "duration": 2, "velocity": 68}, {"time": 4161, "pitch": 54, "duration": 37, "velocity": 56}, {"time": 4161, "pitch": 78, "duration": 26, "velocity": 72}, {"time": 4167, "pitch": 61, "duration": 26, "velocity": 65}, {"time": 4173, "pitch": 66, "duration": 12, "velocity": 53}, {"time": 4179, "pitch": 68, "duration": 9, "velocity": 65}, {"time": 4179, "pitch": 77, "duration": 11, "velocity": 85}, {"time": 4191, "pitch": 68, "duration": 6, "velocity": 63}, {"time": 4191, "pitch": 73, "duration": 8, "velocity": 86}, {"time": 4209, "pitch": 53, "duration": 21, "velocity": 60}, {"time": 4209, "pitch": 68, "duration": 11, "velocity": 70}, {"time": 4209, "pitch": 75, "duration": 11, "velocity": 91}, {"time": 4215, "pitch": 61, "duration": 13, "velocity": 37}, {"time": 4221, "pitch": 65, "duration": 6, "velocity": 62}, {"time": 4227, "pitch": 68, "duration": 4, "velocity": 65}, {"time": 4227, "pitch": 73, "duration": 13, "velocity": 90}, {"time": 4245, "pitch": 75, "duration": 5, "velocity": 65}, {"time": 4251, "pitch": 77, "duration": 5, "velocity": 72}, {"time": 4257, "pitch": 51, "duration": 37, "velocity": 82}, {"time": 4257, "pitch": 70, "duration": 10, "velocity": 63}, {"time": 4257, "pitch": 78, "duration": 8, "velocity": 92}, {"time": 4263, "pitch": 58, "duration": 31, "velocity": 54}, {"time": 4269, "pitch": 63, "duration": 22, "velocity": 53}, {"time": 4275, "pitch": 65, "duration": 4, "velocity": 70}, {"time": 4281, "pitch": 66, "duration": 2, "velocity": 63}, {"time": 4287, "pitch": 70, "duration": 4, "velocity": 68}, {"time": 4293, "pitch": 73, "duration": 4, "velocity": 70}, {"time": 4299, "pitch": 78, "duration": 5, "velocity": 78}, {"time": 4305, "pitch": 49, "duration": 33, "velocity": 79}, {"time": 4305, "pitch": 68, "duration": 7, "velocity": 72}, {"time": 4305, "pitch": 77, "duration": 6, "velocity": 90}, {"time": 4305, "pitch": 78, "duration": 3, "velocity": 39}, {"time": 4311, "pitch": 56, "duration": 21, "velocity": 68}, {"time": 4317, "pitch": 61, "duration": 9, "velocity": 70}, {"time": 4323, "pitch": 63, "duration": 4, "velocity": 68}, {"time": 4329, "pitch": 61, "duration": 4, "velocity": 88}, {"time": 4329, "pitch": 65, "duration": 3, "velocity": 91}, {"time": 4335, "pitch": 56, "duration": 2, "velocity": 91}, {"time": 4335, "pitch": 66, "duration": 4, "velocity": 99}, {"time": 4341, "pitch": 49, "duration": 2, "velocity": 69}, {"time": 4341, "pitch": 56, "duration": 2, "velocity": 99}, {"time": 4341, "pitch": 68, "duration": 3, "velocity": 97}, {"time": 4347, "pitch": 73, "duration": 3, "velocity": 63}, {"time": 4353, "pitch": 47, "duration": 10, "velocity": 78}, {"time": 4353, "pitch": 54, "duration": 9, "velocity": 94}, {"time": 4353, "pitch": 59, "duration": 10, "velocity": 85}, {"time": 4353, "pitch": 63, "duration": 6, "velocity": 79}, {"time": 4353, "pitch": 66, "duration": 6, "velocity": 85}, {"time": 4353, "pitch": 71, "duration": 7, "velocity": 81}, {"time": 4362, "pitch": 61, "duration": 1, "velocity": 74}, {"time": 4362, "pitch": 66, "duration": 1, "velocity": 60}, {"time": 4362, "pitch": 70, "duration": 2, "velocity": 68}, {"time": 4371, "pitch": 47, "duration": 22, "velocity": 53}, {"time": 4371, "pitch": 54, "duration": 21, "velocity": 97}, {"time": 4371, "pitch": 59, "duration": 8, "velocity": 50}, {"time": 4371, "pitch": 63, "duration": 12, "velocity": 86}, {"time": 4371, "pitch": 66, "duration": 13, "velocity": 84}, {"time": 4371, "pitch": 71, "duration": 11, "velocity": 74}, {"time": 4383, "pitch": 59, "duration": 9, "velocity": 85}, {"time": 4395, "pitch": 68, "duration": 3, "velocity": 70}, {"time": 4401, "pitch": 46, "duration": 21, "velocity": 91}, {"time": 4401, "pitch": 58, "duration": 5, "velocity": 56}, {"time": 4401, "pitch": 61, "duration": 11, "velocity": 76}, {"time": 4401, "pitch": 65, "duration": 12, "velocity": 88}, {"time": 4401, "pitch": 70, "duration": 11, "velocity": 86}, {"time": 4413, "pitch": 58, "duration": 9, "velocity": 63}, {"time": 4419, "pitch": 61, "duration": 3, "velocity": 50}, {"time": 4425, "pitch": 46, "duration": 7, "velocity": 86}, {"time": 4425, "pitch": 58, "duration": 5, "velocity": 90}, {"time": 4425, "pitch": 61, "duration": 7, "velocity": 78}, {"time": 4425, "pitch": 65, "duration": 7, "velocity": 91}, {"time": 4425, "pitch": 70, "duration": 7, "velocity": 77}, {"time": 4434, "pitch": 46, "duration": 2, "velocity": 54}, {"time": 4434, "pitch": 58, "duration": 1, "velocity": 82}, {"time": 4434, "pitch": 61, "duration": 2, "velocity": 76}, {"time": 4434, "pitch": 68, "duration": 2, "velocity": 72}, {"time": 4443, "pitch": 45, "duration": 5, "velocity": 76}, {"time": 4443, "pitch": 71, "duration": 4, "velocity": 68}, {"time": 4449, "pitch": 44, "duration": 35, "velocity": 94}, {"time": 4449, "pitch": 63, "duration": 6, "velocity": 79}, {"time": 4449, "pitch": 66, "duration": 6, "velocity": 96}, {"time": 4449, "pitch": 71, "duration": 6, "velocity": 69}, {"time": 4455, "pitch": 51, "duration": 20, "velocity": 47}, {"time": 4461, "pitch": 56, "duration": 14, "velocity": 76}, {"time": 4467, "pitch": 59, "duration": 5, "velocity": 74}, {"time": 4473, "pitch": 59, "duration": 8, "velocity": 42}, {"time": 4473, "pitch": 61, "duration": 7, "velocity": 101}, {"time": 4479, "pitch": 51, "duration": 4, "velocity": 91}, {"time": 4479, "pitch": 63, "duration": 4, "velocity": 106}, {"time": 4485, "pitch": 59, "duration": 1, "velocity": 23}, {"time": 4485, "pitch": 65, "duration": 5, "velocity": 94}, {"time": 4491, "pitch": 66, "duration": 4, "velocity": 86}, {"time": 4497, "pitch": 37, "duration": 7, "velocity": 84}, {"time": 4497, "pitch": 49, "duration": 4, "velocity": 65}, {"time": 4497, "pitch": 56, "duration": 5, "velocity": 84}, {"time": 4497, "pitch": 61, "duration": 6, "velocity": 90}, {"time": 4497, "pitch": 65, "duration": 7, "velocity": 86}, {"time": 4506, "pitch": 39, "duration": 8, "velocity": 92}, {"time": 4506, "pitch": 58, "duration": 2, "velocity": 57}, {"time": 4506, "pitch": 61, "duration": 2, "velocity": 77}, {"time": 4506, "pitch": 66, "duration": 3, "velocity": 84}, {"time": 4515, "pitch": 41, "duration": 21, "velocity": 96}, {"time": 4515, "pitch": 56, "duration": 3, "velocity": 97}, {"time": 4515, "pitch": 61, "duration": 3, "velocity": 94}, {"time": 4515, "pitch": 68, "duration": 6, "velocity": 96}, {"time": 4527, "pitch": 53, "duration": 11, "velocity": 92}, {"time": 4533, "pitch": 61, "duration": 3, "velocity": 79}, {"time": 4533, "pitch": 66, "duration": 4, "velocity": 85}, {"time": 4539, "pitch": 68, "duration": 4, "velocity": 86}, {"time": 4545, "pitch": 42, "duration": 37, "velocity": 88}, {"time": 4545, "pitch": 58, "duration": 7, "velocity": 66}, {"time": 4545, "pitch": 61, "duration": 7, "velocity": 85}, {"time": 4545, "pitch": 66, "duration": 8, "velocity": 91}, {"time": 4551, "pitch": 54, "duration": 13, "velocity": 63}, {"time": 4557, "pitch": 61, "duration": 4, "velocity": 68}, {"time": 4563, "pitch": 61, "duration": 8, "velocity": 60}, {"time": 4563, "pitch": 68, "duration": 10, "velocity": 86}, {"time": 4569, "pitch": 54, "duration": 5, "velocity": 63}, {"time": 4575, "pitch": 61, "duration": 4, "velocity": 97}, {"time": 4575, "pitch": 70, "duration": 4, "velocity": 84}, {"time": 4581, "pitch": 54, "duration": 2, "velocity": 82}, {"time": 4593, "pitch": 41, "duration": 6, "velocity": 92}, {"time": 4593, "pitch": 58, "duration": 8, "velocity": 70}, {"time": 4593, "pitch": 62, "duration": 8, "velocity": 70}, {"time": 4593, "pitch": 65, "duration": 9, "velocity": 97}, {"time": 4599, "pitch": 53, "duration": 22, "velocity": 69}, {"time": 4605, "pitch": 58, "duration": 4, "velocity": 65}, {"time": 4611, "pitch": 58, "duration": 8, "velocity": 68}, {"time": 4611, "pitch": 68, "duration": 8, "velocity": 106}, {"time": 4623, "pitch": 63, "duration": 5, "velocity": 91}, {"time": 4629, "pitch": 65, "duration": 5, "velocity": 78}, {"time": 4635, "pitch": 40, "duration": 5, "velocity": 57}, {"time": 4635, "pitch": 65, "duration": 3, "velocity": 22}, {"time": 4635, "pitch": 68, "duration": 3, "velocity": 85}, {"time": 4641, "pitch": 39, "duration": 5, "velocity": 92}, {"time": 4641, "pitch": 58, "duration": 13, "velocity": 72}, {"time": 4641, "pitch": 61, "duration": 11, "velocity": 86}, {"time": 4641, "pitch": 66, "duration": 16, "velocity": 86}, {"time": 4647, "pitch": 51, "duration": 7, "velocity": 53}, {"time": 4653, "pitch": 53, "duration": 25, "velocity": 69}, {"time": 4659, "pitch": 54, "duration": 18, "velocity": 72}, {"time": 4665, "pitch": 61, "duration": 4, "velocity": 72}, {"time": 4671, "pitch": 66, "duration": 4, "velocity": 72}, {"time": 4677, "pitch": 68, "duration": 4, "velocity": 85}, {"time": 4683, "pitch": 70, "duration": 4, "velocity": 82}, {"time": 4689, "pitch": 49, "duration": 15, "velocity": 79}, {"time": 4689, "pitch": 64, "duration": 11, "velocity": 105}, {"time": 4689, "pitch": 68, "duration": 8, "velocity": 106}, {"time": 4695, "pitch": 56, "duration": 9, "velocity": 94}, {"time": 4701, "pitch": 61, "duration": 3, "velocity": 68}, {"time": 4707, "pitch": 64, "duration": 4, "velocity": 57}, {"time": 4710, "pitch": 66, "duration": 4, "velocity": 68}, {"time": 4713, "pitch": 42, "duration": 13, "velocity": 84}, {"time": 4713, "pitch": 61, "duration": 13, "velocity": 82}, {"time": 4713, "pitch": 64, "duration": 13, "velocity": 85}, {"time": 4713, "pitch": 68, "duration": 1, "velocity": 77}, {"time": 4713, "pitch": 70, "duration": 13, "velocity": 90}, {"time": 4719, "pitch": 49, "duration": 8, "velocity": 85}, {"time": 4725, "pitch": 54, "duration": 3, "velocity": 77}, {"time": 4731, "pitch": 61, "duration": 3, "velocity": 79}, {"time": 4734, "pitch": 73, "duration": 2, "velocity": 56}, {"time": 4737, "pitch": 47, "duration": 39, "velocity": 56}, {"time": 4737, "pitch": 63, "duration": 12, "velocity": 79}, {"time": 4737, "pitch": 66, "duration": 12, "velocity": 91}, {"time": 4737, "pitch": 71, "duration": 13, "velocity": 93}, {"time": 4737, "pitch": 73, "duration": 11, "velocity": 91}, {"time": 4743, "pitch": 54, "duration": 29, "velocity": 84}, {"time": 4749, "pitch": 59, "duration": 8, "velocity": 88}, {"time": 4755, "pitch": 63, "duration": 9, "velocity": 88}, {"time": 4755, "pitch": 66, "duration": 9, "velocity": 74}, {"time": 4755, "pitch": 73, "duration": 9, "velocity": 103}, {"time": 4761, "pitch": 59, "duration": 9, "velocity": 63}, {"time": 4767, "pitch": 63, "duration": 8, "velocity": 66}, {"time": 4767, "pitch": 71, "duration": 7, "velocity": 102}, {"time": 4773, "pitch": 54, "duration": 2, "velocity": 42}, {"time": 4773, "pitch": 59, "duration": 2, "velocity": 86}, {"time": 4779, "pitch": 68, "duration": 3, "velocity": 62}, {"time": 4782, "pitch": 70, "duration": 2, "velocity": 63}, {"time": 4785, "pitch": 46, "duration": 25, "velocity": 74}, {"time": 4785, "pitch": 61, "duration": 8, "velocity": 72}, {"time": 4785, "pitch": 65, "duration": 9, "velocity": 88}, {"time": 4785, "pitch": 68, "duration": 8, "velocity": 79}, {"time": 4791, "pitch": 58, "duration": 13, "velocity": 57}, {"time": 4797, "pitch": 61, "duration": 3, "velocity": 59}, {"time": 4803, "pitch": 61, "duration": 7, "velocity": 54}, {"time": 4803, "pitch": 68, "duration": 7, "velocity": 84}, {"time": 4809, "pitch": 58, "duration": 3, "velocity": 53}, {"time": 4815, "pitch": 51, "duration": 11, "velocity": 79}, {"time": 4815, "pitch": 61, "duration": 4, "velocity": 84}, {"time": 4815, "pitch": 73, "duration": 8, "velocity": 88}, {"time": 4821, "pitch": 54, "duration": 5, "velocity": 65}, {"time": 4821, "pitch": 61, "duration": 4, "velocity": 45}, {"time": 4827, "pitch": 66, "duration": 4, "velocity": 72}, {"time": 4833, "pitch": 44, "duration": 9, "velocity": 90}, {"time": 4833, "pitch": 63, "duration": 25, "velocity": 68}, {"time": 4833, "pitch": 66, "duration": 23, "velocity": 91}, {"time": 4833, "pitch": 71, "duration": 25, "velocity": 115}, {"time": 4839, "pitch": 51, "duration": 6, "velocity": 72}, {"time": 4845, "pitch": 56, "duration": 7, "velocity": 68}, {"time": 4851, "pitch": 58, "duration": 9, "velocity": 50}, {"time": 4857, "pitch": 59, "duration": 7, "velocity": 81}, {"time": 4863, "pitch": 63, "duration": 4, "velocity": 74}, {"time": 4869, "pitch": 66, "duration": 4, "velocity": 65}, {"time": 4875, "pitch": 68, "duration": 6, "velocity": 66}, {"time": 4881, "pitch": 49, "duration": 30, "velocity": 57}, {"time": 4881, "pitch": 54, "duration": 31, "velocity": 79}, {"time": 4881, "pitch": 56, "duration": 10, "velocity": 82}, {"time": 4881, "pitch": 61, "duration": 12, "velocity": 77}, {"time": 4881, "pitch": 66, "duration": 16, "velocity": 72}, {"time": 4881, "pitch": 73, "duration": 14, "velocity": 59}, {"time": 4899, "pitch": 56, "duration": 15, "velocity": 77}, {"time": 4905, "pitch": 61, "duration": 10, "velocity": 47}, {"time": 4911, "pitch": 73, "duration": 4, "velocity": 91}, {"time": 4917, "pitch": 78, "duration": 4, "velocity": 68}, {"time": 4923, "pitch": 80, "duration": 5, "velocity": 65}, {"time": 4929, "pitch": 54, "duration": 38, "velocity": 66}, {"time": 4929, "pitch": 73, "duration": 8, "velocity": 53}, {"time": 4929, "pitch": 82, "duration": 7, "velocity": 66}, {"time": 4935, "pitch": 61, "duration": 14, "velocity": 72}, {"time": 4941, "pitch": 66, "duration": 8, "velocity": 54}, {"time": 4947, "pitch": 70, "duration": 8, "velocity": 35}, {"time": 4959, "pitch": 71, "duration": 3, "velocity": 119}, {"time": 4965, "pitch": 61, "duration": 2, "velocity": 63}, {"time": 4971, "pitch": 68, "duration": 3, "velocity": 68}, {"time": 4971, "pitch": 70, "duration": 9, "velocity": 76}, {"time": 4983, "pitch": 61, "duration": 5, "velocity": 50}, {"time": 4989, "pitch": 66, "duration": 4, "velocity": 70}, {"time": 4995, "pitch": 68, "duration": 5, "velocity": 70}, {"time": 5001, "pitch": 61, "duration": 12, "velocity": 50}, {"time": 5001, "pitch": 70, "duration": 10, "velocity": 57}, {"time": 5025, "pitch": 47, "duration": 39, "velocity": 30}, {"time": 5025, "pitch": 54, "duration": 33, "velocity": 77}, {"time": 5025, "pitch": 59, "duration": 37, "velocity": 34}, {"time": 5025, "pitch": 63, "duration": 37, "velocity": 50}, {"time": 5025, "pitch": 66, "duration": 33, "velocity": 50}, {"time": 5025, "pitch": 71, "duration": 36, "velocity": 45}, {"time": 5079, "pitch": 49, "duration": 128, "velocity": 63}, {"time": 5079, "pitch": 61, "duration": 12, "velocity": 50}, {"time": 5079, "pitch": 66, "duration": 12, "velocity": 60}, {"time": 5079, "pitch": 68, "duration": 13, "velocity": 70}, {"time": 5118, "pitch": 61, "duration": 35, "velocity": 34}, {"time": 5121, "pitch": 73, "duration": 7, "velocity": 39}, {"time": 5124, "pitch": 78, "duration": 6, "velocity": 37}, {"time": 5130, "pitch": 80, "duration": 8, "velocity": 17}, {"time": 5136, "pitch": 85, "duration": 8, "velocity": 30}, {"time": 5226, "pitch": 42, "duration": 142, "velocity": 81}, {"time": 5226, "pitch": 58, "duration": 14, "velocity": 27}, {"time": 5226, "pitch": 61, "duration": 14, "velocity": 63}, {"time": 5229, "pitch": 66, "duration": 12, "velocity": 62}, {"time": 5238, "pitch": 49, "duration": 130, "velocity": 42}, {"time": 5244, "pitch": 54, "duration": 124, "velocity": 53}, {"time": 5250, "pitch": 56, "duration": 3, "velocity": 54}, {"time": 5256, "pitch": 61, "duration": 3, "velocity": 63}, {"time": 5262, "pitch": 63, "duration": 4, "velocity": 57}, {"time": 5265, "pitch": 65, "duration": 3, "velocity": 57}, {"time": 5271, "pitch": 68, "duration": 3, "velocity": 86}, {"time": 5277, "pitch": 65, "duration": 5, "velocity": 38}, {"time": 5280, "pitch": 68, "duration": 3, "velocity": 68}, {"time": 5286, "pitch": 70, "duration": 2, "velocity": 47}, {"time": 5292, "pitch": 73, "duration": 3, "velocity": 66}, {"time": 5295, "pitch": 70, "duration": 5, "velocity": 54}, {"time": 5301, "pitch": 75, "duration": 5, "velocity": 44}, {"time": 5307, "pitch": 77, "duration": 3, "velocity": 62}, {"time": 5316, "pitch": 78, "duration": 3, "velocity": 39}, {"time": 5322, "pitch": 80, "duration": 4, "velocity": 60}, {"time": 5331, "pitch": 82, "duration": 4, "velocity": 31}, {"time": 5343, "pitch": 85, "duration": 4, "velocity": 29}, {"time": 5358, "pitch": 90, "duration": 4, "velocity": 29}], "annotations": [{"time": 32, "annotation": {"number": 64, "value": 127}, "group": "control_change"}, {"time": 81, "annotation": {"number": 64, "value": 0}, "group": "control_change"}, {"time": 86, "annotation": {"number": 64, "value": 127}, "group": "control_change"}, {"time": 128, "annotation": {"number": 64, "value": 0}, "group": "control_change"}, {"time": 132, "annotation": {"number": 64, "value": 127}, "group": "control_change"}, {"time": 152, "annotation": {"number": 64, "value": 0}, "group": "control_change"}, {"time": 156, "annotation": {"number": 64, "value": 127}, "group": "control_change"}, {"time": 175, "annotation": {"number": 64, "value": 0}, "group": "control_change"}, {"time": 179, "annotation": {"number": 64, "value": 127}, "group": "control_change"}, {"time": 222, "annotation": {"number": 64, "value": 0}, "group": "control_change"}, {"time": 223, "annotation": {"number": 64, "value": 0}, "group": "control_change"}, {"time": 231, "annotation": {"number": 64, "value": 127}, "group": "control_change"}, {"time": 272, "annotation": {"number": 64, "value": 0}, "group": "control_change"}, {"time": 277, "annotation": {"number": 64, "value": 127}, "group": "control_change"}, {"time": 318, "annotation": {"number": 64, "value": 0}, "group": "control_change"}, {"time": 322, "annotation": {"number": 64, "value": 127}, "group": "control_change"}, {"time": 367, "annotation": {"number": 64, "value": 0}, "group": "control_change"}, {"time": 370, "annotation": {"number": 64, "value": 127}, "group": "control_change"}, {"time": 513, "annotation": {"number": 64, "value": 0}, "group": "control_change"}, {"time": 513, "annotation": {"number": 64, "value": 127}, "group": "control_change"}, {"time": 587, "annotation": {"number": 64, "value": 0}, "group": "control_change"}, {"time": 590, "annotation": {"number": 64, "value": 127}, "group": "control_change"}, {"time": 609, "annotation": {"number": 64, "value": 0}, "group": "control_change"}, {"time": 614, "annotation": {"number": 64, "value": 127}, "group": "control_change"}, {"time": 706, "annotation": {"number": 64, "value": 0}, "group": "control_change"}, {"time": 707, "annotation": {"number": 64, "value": 127}, "group": "control_change"}, {"time": 711, "annotation": {"number": 64, "value": 127}, "group": "control_change"}, {"time": 802, "annotation": {"number": 64, "value": 0}, "group": "control_change"}, {"time": 804, "annotation": {"number": 64, "value": 127}, "group": "control_change"}, {"time": 804, "annotation": {"number": 64, "value": 0}, "group": "control_change"}, {"time": 807, "annotation": {"number": 64, "value": 127}, "group": "control_change"}, {"time": 822, "annotation": {"number": 64, "value": 0}, "group": "control_change"}, {"time": 849, "annotation": {"number": 64, "value": 0}, "group": "control_change"}, {"time": 855, "annotation": {"number": 64, "value": 127}, "group": "control_change"}, {"time": 896, "annotation": {"number": 64, "value": 0}, "group": "control_change"}, {"time": 898, "annotation": {"number": 64, "value": 0}, "group": "control_change"}, {"time": 904, "annotation": {"number": 64, "value": 127}, "group": "control_change"}, {"time": 970, "annotation": {"number": 64, "value": 0}, "group": "control_change"}, {"time": 976, "annotation": {"number": 64, "value": 127}, "group": "control_change"}, {"time": 992, "annotation": {"number": 64, "value": 0}, "group": "control_change"}, {"time": 996, "annotation": {"number": 64, "value": 127}, "group": "control_change"}, {"time": 1089, "annotation": {"number": 64, "value": 0}, "group": "control_change"}, {"time": 1105, "annotation": {"number": 64, "value": 127}, "group": "control_change"}, {"time": 1184, "annotation": {"number": 64, "value": 0}, "group": "control_change"}, {"time": 1189, "annotation": {"number": 64, "value": 127}, "group": "control_change"}, {"time": 1232, "annotation": {"number": 64, "value": 0}, "group": "control_change"}, {"time": 1236, "annotation": {"number": 64, "value": 127}, "group": "control_change"}, {"time": 1256, "annotation": {"number": 64, "value": 0}, "group": "control_change"}, {"time": 1259, "annotation": {"number": 64, "value": 127}, "group": "control_change"}, {"time": 1278, "annotation": {"number": 64, "value": 0}, "group": "control_change"}, {"time": 1282, "annotation": {"number": 64, "value": 127}, "group": "control_change"}, {"time": 1328, "annotation": {"number": 64, "value": 0}, "group": "control_change"}, {"time": 1332, "annotation": {"number": 64, "value": 127}, "group": "control_change"}, {"time": 1376, "annotation": {"number": 64, "value": 0}, "group": "control_change"}, {"time": 1382, "annotation": {"number": 64, "value": 127}, "group": "control_change"}, {"time": 1424, "annotation": {"number": 64, "value": 0}, "group": "control_change"}, {"time": 1428, "annotation": {"number": 64, "value": 127}, "group": "control_change"}, {"time": 1471, "annotation": {"number": 64, "value": 0}, "group": "control_change"}, {"time": 1475, "annotation": {"number": 64, "value": 127}, "group": "control_change"}, {"time": 1521, "annotation": {"number": 64, "value": 0}, "group": "control_change"}, {"time": 1532, "annotation": {"number": 64, "value": 127}, "group": "control_change"}, {"time": 1568, "annotation": {"number": 64, "value": 0}, "group": "control_change"}, {"time": 1573, "annotation": {"number": 64, "value": 127}, "group": "control_change"}, {"time": 1615, "annotation": {"number": 64, "value": 0}, "group": "control_change"}, {"time": 1619, "annotation": {"number": 64, "value": 127}, "group": "control_change"}, {"time": 1662, "annotation": {"number": 64, "value": 0}, "group": "control_change"}, {"time": 1666, "annotation": {"number": 64, "value": 127}, "group": "control_change"}, {"time": 1712, "annotation": {"number": 64, "value": 0}, "group": "control_change"}, {"time": 1717, "annotation": {"number": 64, "value": 127}, "group": "control_change"}, {"time": 1759, "annotation": {"number": 64, "value": 0}, "group": "control_change"}, {"time": 1764, "annotation": {"number": 64, "value": 127}, "group": "control_change"}, {"time": 1808, "annotation": {"number": 64, "value": 0}, "group": "control_change"}, {"time": 1808, "annotation": {"number": 64, "value": 127}, "group": "control_change"}, {"time": 1812, "annotation": {"number": 64, "value": 127}, "group": "control_change"}, {"time": 1831, "annotation": {"number": 64, "value": 0}, "group": "control_change"}, {"time": 1833, "annotation": {"number": 64, "value": 0}, "group": "control_change"}, {"time": 1837, "annotation": {"number": 64, "value": 127}, "group": "control_change"}, {"time": 1857, "annotation": {"number": 64, "value": 0}, "group": "control_change"}, {"time": 1862, "annotation": {"number": 64, "value": 127}, "group": "control_change"}, {"time": 1903, "annotation": {"number": 64, "value": 0}, "group": "control_change"}, {"time": 1907, "annotation": {"number": 64, "value": 127}, "group": "control_change"}, {"time": 1953, "annotation": {"number": 64, "value": 0}, "group": "control_change"}, {"time": 1957, "annotation": {"number": 64, "value": 127}, "group": "control_change"}, {"time": 1999, "annotation": {"number": 64, "value": 0}, "group": "control_change"}, {"time": 2002, "annotation": {"number": 64, "value": 127}, "group": "control_change"}, {"time": 2047, "annotation": {"number": 64, "value": 0}, "group": "control_change"}, {"time": 2050, "annotation": {"number": 64, "value": 127}, "group": "control_change"}, {"time": 2103, "annotation": {"number": 64, "value": 127}, "group": "control_change"}, {"time": 2111, "annotation": {"number": 64, "value": 0}, "group": "control_change"}, {"time": 2143, "annotation": {"number": 64, "value": 0}, "group": "control_change"}, {"time": 2148, "annotation": {"number": 64, "value": 127}, "group": "control_change"}, {"time": 2237, "annotation": {"number": 64, "value": 0}, "group": "control_change"}, {"time": 2241, "annotation": {"number": 64, "value": 127}, "group": "control_change"}, {"time": 2335, "annotation": {"number": 64, "value": 0}, "group": "control_change"}, {"time": 2338, "annotation": {"number": 64, "value": 127}, "group": "control_change"}, {"time": 2432, "annotation": {"number": 64, "value": 0}, "group": "control_change"}, {"time": 2435, "annotation": {"number": 64, "value": 127}, "group": "control_change"}, {"time": 2523, "annotation": {"number": 64, "value": 0}, "group": "control_change"}, {"time": 2529, "annotation": {"number": 64, "value": 127}, "group": "control_change"}, {"time": 2529, "annotation": {"number": 64, "value": 0}, "group": "control_change"}, {"time": 2603, "annotation": {"number": 64, "value": 0}, "group": "control_change"}, {"time": 2606, "annotation": {"number": 64, "value": 127}, "group": "control_change"}, {"time": 2625, "annotation": {"number": 64, "value": 0}, "group": "control_change"}, {"time": 2630, "annotation": {"number": 64, "value": 127}, "group": "control_change"}, {"time": 2722, "annotation": {"number": 64, "value": 0}, "group": "control_change"}, {"time": 2727, "annotation": {"number": 64, "value": 127}, "group": "control_change"}, {"time": 2818, "annotation": {"number": 64, "value": 0}, "group": "control_change"}, {"time": 2823, "annotation": {"number": 64, "value": 127}, "group": "control_change"}, {"time": 2914, "annotation": {"number": 64, "value": 0}, "group": "control_change"}, {"time": 2920, "annotation": {"number": 64, "value": 127}, "group": "control_change"}, {"time": 2986, "annotation": {"number": 64, "value": 0}, "group": "control_change"}, {"time": 2992, "annotation": {"number": 64, "value": 127}, "group": "control_change"}, {"time": 3008, "annotation": {"number": 64, "value": 0}, "group": "control_change"}, {"time": 3012, "annotation": {"number": 64, "value": 127}, "group": "control_change"}, {"time": 3105, "annotation": {"number": 64, "value": 0}, "group": "control_change"}, {"time": 3121, "annotation": {"number": 64, "value": 127}, "group": "control_change"}, {"time": 3200, "annotation": {"number": 64, "value": 0}, "group": "control_change"}, {"time": 3205, "annotation": {"number": 64, "value": 127}, "group": "control_change"}, {"time": 3248, "annotation": {"number": 64, "value": 0}, "group": "control_change"}, {"time": 3252, "annotation": {"number": 64, "value": 127}, "group": "control_change"}, {"time": 3272, "annotation": {"number": 64, "value": 0}, "group": "control_change"}, {"time": 3275, "annotation": {"number": 64, "value": 127}, "group": "control_change"}, {"time": 3294, "annotation": {"number": 64, "value": 0}, "group": "control_change"}, {"time": 3298, "annotation": {"number": 64, "value": 127}, "group": "control_change"}, {"time": 3344, "annotation": {"number": 64, "value": 0}, "group": "control_change"}, {"time": 3348, "annotation": {"number": 64, "value": 127}, "group": "control_change"}, {"time": 3392, "annotation": {"number": 64, "value": 0}, "group": "control_change"}, {"time": 3398, "annotation": {"number": 64, "value": 127}, "group": "control_change"}, {"time": 3440, "annotation": {"number": 64, "value": 0}, "group": "control_change"}, {"time": 3444, "annotation": {"number": 64, "value": 127}, "group": "control_change"}, {"time": 3487, "annotation": {"number": 64, "value": 0}, "group": "control_change"}, {"time": 3491, "annotation": {"number": 64, "value": 127}, "group": "control_change"}, {"time": 3537, "annotation": {"number": 64, "value": 0}, "group": "control_change"}, {"time": 3548, "annotation": {"number": 64, "value": 127}, "group": "control_change"}, {"time": 3584, "annotation": {"number": 64, "value": 0}, "group": "control_change"}, {"time": 3589, "annotation": {"number": 64, "value": 127}, "group": "control_change"}, {"time": 3631, "annotation": {"number": 64, "value": 0}, "group": "control_change"}, {"time": 3635, "annotation": {"number": 64, "value": 127}, "group": "control_change"}, {"time": 3678, "annotation": {"number": 64, "value": 0}, "group": "control_change"}, {"time": 3682, "annotation": {"number": 64, "value": 127}, "group": "control_change"}, {"time": 3728, "annotation": {"number": 64, "value": 0}, "group": "control_change"}, {"time": 3733, "annotation": {"number": 64, "value": 127}, "group": "control_change"}, {"time": 3775, "annotation": {"number": 64, "value": 0}, "group": "control_change"}, {"time": 3780, "annotation": {"number": 64, "value": 127}, "group": "control_change"}, {"time": 3824, "annotation": {"number": 64, "value": 0}, "group": "control_change"}, {"time": 3824, "annotation": {"number": 64, "value": 127}, "group": "control_change"}, {"time": 3828, "annotation": {"number": 64, "value": 127}, "group": "control_change"}, {"time": 3847, "annotation": {"number": 64, "value": 0}, "group": "control_change"}, {"time": 3849, "annotation": {"number": 64, "value": 0}, "group": "control_change"}, {"time": 3853, "annotation": {"number": 64, "value": 127}, "group": "control_change"}, {"time": 3873, "annotation": {"number": 64, "value": 0}, "group": "control_change"}, {"time": 3878, "annotation": {"number": 64, "value": 127}, "group": "control_change"}, {"time": 3919, "annotation": {"number": 64, "value": 0}, "group": "control_change"}, {"time": 3923, "annotation": {"number": 64, "value": 127}, "group": "control_change"}, {"time": 3969, "annotation": {"number": 64, "value": 0}, "group": "control_change"}, {"time": 3973, "annotation": {"number": 64, "value": 127}, "group": "control_change"}, {"time": 4015, "annotation": {"number": 64, "value": 0}, "group": "control_change"}, {"time": 4018, "annotation": {"number": 64, "value": 127}, "group": "control_change"}, {"time": 4063, "annotation": {"number": 64, "value": 127}, "group": "control_change"}, {"time": 4063, "annotation": {"number": 64, "value": 0}, "group": "control_change"}, {"time": 4064, "annotation": {"number": 64, "value": 0}, "group": "control_change"}, {"time": 4066, "annotation": {"number": 64, "value": 127}, "group": "control_change"}, {"time": 4069, "annotation": {"number": 64, "value": 127}, "group": "control_change"}, {"time": 4101, "annotation": {"number": 64, "value": 0}, "group": "control_change"}, {"time": 4119, "annotation": {"number": 64, "value": 127}, "group": "control_change"}, {"time": 4120, "annotation": {"number": 64, "value": 0}, "group": "control_change"}, {"time": 4160, "annotation": {"number": 64, "value": 0}, "group": "control_change"}, {"time": 4165, "annotation": {"number": 64, "value": 127}, "group": "control_change"}, {"time": 4207, "annotation": {"number": 64, "value": 0}, "group": "control_change"}, {"time": 4212, "annotation": {"number": 64, "value": 127}, "group": "control_change"}, {"time": 4255, "annotation": {"number": 64, "value": 0}, "group": "control_change"}, {"time": 4260, "annotation": {"number": 64, "value": 127}, "group": "control_change"}, {"time": 4302, "annotation": {"number": 64, "value": 0}, "group": "control_change"}, {"time": 4305, "annotation": {"number": 64, "value": 127}, "group": "control_change"}, {"time": 4351, "annotation": {"number": 64, "value": 0}, "group": "control_change"}, {"time": 4356, "annotation": {"number": 64, "value": 127}, "group": "control_change"}, {"time": 4369, "annotation": {"number": 64, "value": 0}, "group": "control_change"}, {"time": 4373, "annotation": {"number": 64, "value": 127}, "group": "control_change"}, {"time": 4399, "annotation": {"number": 64, "value": 0}, "group": "control_change"}, {"time": 4403, "annotation": {"number": 64, "value": 127}, "group": "control_change"}, {"time": 4425, "annotation": {"number": 64, "value": 0}, "group": "control_change"}, {"time": 4432, "annotation": {"number": 64, "value": 127}, "group": "control_change"}, {"time": 4445, "annotation": {"number": 64, "value": 0}, "group": "control_change"}, {"time": 4451, "annotation": {"number": 64, "value": 127}, "group": "control_change"}, {"time": 4494, "annotation": {"number": 64, "value": 0}, "group": "control_change"}, {"time": 4497, "annotation": {"number": 64, "value": 127}, "group": "control_change"}, {"time": 4512, "annotation": {"number": 64, "value": 0}, "group": "control_change"}, {"time": 4514, "annotation": {"number": 64, "value": 127}, "group": "control_change"}, {"time": 4543, "annotation": {"number": 64, "value": 127}, "group": "control_change"}, {"time": 4544, "annotation": {"number": 64, "value": 0}, "group": "control_change"}, {"time": 4547, "annotation": {"number": 64, "value": 127}, "group": "control_change"}, {"time": 4590, "annotation": {"number": 64, "value": 0}, "group": "control_change"}, {"time": 4592, "annotation": {"number": 64, "value": 0}, "group": "control_change"}, {"time": 4594, "annotation": {"number": 64, "value": 127}, "group": "control_change"}, {"time": 4597, "annotation": {"number": 64, "value": 127}, "group": "control_change"}, {"time": 4637, "annotation": {"number": 64, "value": 0}, "group": "control_change"}, {"time": 4638, "annotation": {"number": 64, "value": 0}, "group": "control_change"}, {"time": 4641, "annotation": {"number": 64, "value": 127}, "group": "control_change"}, {"time": 4644, "annotation": {"number": 64, "value": 127}, "group": "control_change"}, {"time": 4654, "annotation": {"number": 64, "value": 0}, "group": "control_change"}, {"time": 4687, "annotation": {"number": 64, "value": 0}, "group": "control_change"}, {"time": 4691, "annotation": {"number": 64, "value": 127}, "group": "control_change"}, {"time": 4710, "annotation": {"number": 64, "value": 0}, "group": "control_change"}, {"time": 4722, "annotation": {"number": 64, "value": 127}, "group": "control_change"}, {"time": 4736, "annotation": {"number": 64, "value": 0}, "group": "control_change"}, {"time": 4741, "annotation": {"number": 64, "value": 127}, "group": "control_change"}, {"time": 4782, "annotation": {"number": 64, "value": 0}, "group": "control_change"}, {"time": 4788, "annotation": {"number": 64, "value": 127}, "group": "control_change"}, {"time": 4815, "annotation": {"number": 64, "value": 0}, "group": "control_change"}, {"time": 4818, "annotation": {"number": 64, "value": 127}, "group": "control_change"}, {"time": 4832, "annotation": {"number": 64, "value": 0}, "group": "control_change"}, {"time": 4836, "annotation": {"number": 64, "value": 127}, "group": "control_change"}, {"time": 4877, "annotation": {"number": 64, "value": 0}, "group": "control_change"}, {"time": 4881, "annotation": {"number": 64, "value": 127}, "group": "control_change"}, {"time": 4927, "annotation": {"number": 64, "value": 0}, "group": "control_change"}, {"time": 4930, "annotation": {"number": 64, "value": 127}, "group": "control_change"}, {"time": 5025, "annotation": {"number": 64, "value": 0}, "group": "control_change"}, {"time": 5031, "annotation": {"number": 64, "value": 127}, "group": "control_change"}, {"time": 5076, "annotation": {"number": 64, "value": 0}, "group": "control_change"}, {"time": 5079, "annotation": {"number": 64, "value": 0}, "group": "control_change"}, {"time": 5083, "annotation": {"number": 64, "value": 127}, "group": "control_change"}, {"time": 5226, "annotation": {"number": 64, "value": 0}, "group": "control_change"}, {"time": 5226, "annotation": {"number": 64, "value": 127}, "group": "control_change"}, {"time": 5400, "annotation": {"number": 64, "value": 0}, "group": "control_change"}]}]}