{"metadata": {"schema_version": "0.2", "title": "None", "source_filename": "260.mid", "source_format": "midi"}, "resolution": 12, "tempos": [{"time": 0, "qpm": 120.0}], "time_signatures": [{"time": 0, "numerator": 4, "denominator": 4}], "tracks": [{"program": 4, "is_drum": false, "name": "MELODY", "notes": [{"time": 860, "pitch": 68, "duration": 6, "velocity": 73}, {"time": 866, "pitch": 66, "duration": 6, "velocity": 64}, {"time": 872, "pitch": 68, "duration": 12, "velocity": 66}, {"time": 884, "pitch": 75, "duration": 12, "velocity": 66}, {"time": 896, "pitch": 75, "duration": 6, "velocity": 64}, {"time": 902, "pitch": 75, "duration": 6, "velocity": 72}, {"time": 908, "pitch": 73, "duration": 6, "velocity": 75}, {"time": 914, "pitch": 71, "duration": 6, "velocity": 68}, {"time": 920, "pitch": 73, "duration": 6, "velocity": 84}, {"time": 926, "pitch": 75, "duration": 18, "velocity": 64}, {"time": 944, "pitch": 73, "duration": 12, "velocity": 85}, {"time": 956, "pitch": 66, "duration": 6, "velocity": 66}, {"time": 962, "pitch": 66, "duration": 6, "velocity": 64}, {"time": 968, "pitch": 78, "duration": 6, "velocity": 66}, {"time": 974, "pitch": 78, "duration": 6, "velocity": 66}, {"time": 980, "pitch": 78, "duration": 6, "velocity": 57}, {"time": 986, "pitch": 78, "duration": 6, "velocity": 59}, {"time": 992, "pitch": 78, "duration": 6, "velocity": 63}, {"time": 998, "pitch": 78, "duration": 6, "velocity": 54}, {"time": 1004, "pitch": 73, "duration": 12, "velocity": 74}, {"time": 1016, "pitch": 75, "duration": 36, "velocity": 93}, {"time": 1052, "pitch": 73, "duration": 6, "velocity": 84}, {"time": 1058, "pitch": 75, "duration": 6, "velocity": 95}, {"time": 1064, "pitch": 76, "duration": 6, "velocity": 94}, {"time": 1070, "pitch": 76, "duration": 6, "velocity": 94}, {"time": 1076, "pitch": 76, "duration": 6, "velocity": 93}, {"time": 1082, "pitch": 75, "duration": 6, "velocity": 83}, {"time": 1088, "pitch": 76, "duration": 12, "velocity": 90}, {"time": 1100, "pitch": 73, "duration": 6, "velocity": 81}, {"time": 1106, "pitch": 73, "duration": 6, "velocity": 63}, {"time": 1112, "pitch": 75, "duration": 12, "velocity": 87}, {"time": 1124, "pitch": 75, "duration": 6, "velocity": 89}, {"time": 1130, "pitch": 73, "duration": 6, "velocity": 69}, {"time": 1136, "pitch": 71, "duration": 12, "velocity": 92}, {"time": 1148, "pitch": 68, "duration": 6, "velocity": 81}, {"time": 1154, "pitch": 70, "duration": 6, "velocity": 57}, {"time": 1160, "pitch": 71, "duration": 6, "velocity": 66}, {"time": 1166, "pitch": 71, "duration": 6, "velocity": 69}, {"time": 1172, "pitch": 71, "duration": 6, "velocity": 64}, {"time": 1178, "pitch": 71, "duration": 6, "velocity": 66}, {"time": 1184, "pitch": 71, "duration": 12, "velocity": 86}, {"time": 1196, "pitch": 73, "duration": 12, "velocity": 90}, {"time": 1208, "pitch": 70, "duration": 36, "velocity": 82}, {"time": 1244, "pitch": 66, "duration": 6, "velocity": 72}, {"time": 1250, "pitch": 66, "duration": 6, "velocity": 76}, {"time": 1256, "pitch": 68, "duration": 12, "velocity": 69}, {"time": 1268, "pitch": 75, "duration": 12, "velocity": 90}, {"time": 1280, "pitch": 75, "duration": 6, "velocity": 92}, {"time": 1286, "pitch": 75, "duration": 6, "velocity": 90}, {"time": 1292, "pitch": 73, "duration": 6, "velocity": 87}, {"time": 1298, "pitch": 71, "duration": 6, "velocity": 84}, {"time": 1304, "pitch": 73, "duration": 6, "velocity": 87}, {"time": 1310, "pitch": 75, "duration": 18, "velocity": 89}, {"time": 1328, "pitch": 73, "duration": 12, "velocity": 87}, {"time": 1340, "pitch": 66, "duration": 6, "velocity": 75}, {"time": 1346, "pitch": 66, "duration": 6, "velocity": 65}, {"time": 1352, "pitch": 78, "duration": 6, "velocity": 75}, {"time": 1358, "pitch": 78, "duration": 6, "velocity": 68}, {"time": 1364, "pitch": 78, "duration": 6, "velocity": 68}, {"time": 1370, "pitch": 78, "duration": 6, "velocity": 64}, {"time": 1376, "pitch": 78, "duration": 12, "velocity": 76}, {"time": 1388, "pitch": 80, "duration": 12, "velocity": 77}, {"time": 1400, "pitch": 73, "duration": 6, "velocity": 62}, {"time": 1406, "pitch": 75, "duration": 30, "velocity": 64}, {"time": 1436, "pitch": 73, "duration": 6, "velocity": 99}, {"time": 1442, "pitch": 75, "duration": 6, "velocity": 74}, {"time": 1448, "pitch": 76, "duration": 6, "velocity": 93}, {"time": 1454, "pitch": 76, "duration": 6, "velocity": 92}, {"time": 1460, "pitch": 76, "duration": 6, "velocity": 87}, {"time": 1466, "pitch": 76, "duration": 6, "velocity": 91}, {"time": 1472, "pitch": 76, "duration": 12, "velocity": 84}, {"time": 1484, "pitch": 80, "duration": 12, "velocity": 77}, {"time": 1496, "pitch": 75, "duration": 9, "velocity": 90}, {"time": 1505, "pitch": 75, "duration": 9, "velocity": 93}, {"time": 1514, "pitch": 73, "duration": 6, "velocity": 89}, {"time": 1520, "pitch": 71, "duration": 12, "velocity": 96}, {"time": 1532, "pitch": 68, "duration": 6, "velocity": 96}, {"time": 1538, "pitch": 70, "duration": 6, "velocity": 85}, {"time": 1544, "pitch": 71, "duration": 9, "velocity": 87}, {"time": 1553, "pitch": 71, "duration": 9, "velocity": 85}, {"time": 1562, "pitch": 71, "duration": 6, "velocity": 93}, {"time": 1568, "pitch": 73, "duration": 12, "velocity": 95}, {"time": 1580, "pitch": 66, "duration": 12, "velocity": 72}, {"time": 1592, "pitch": 68, "duration": 36, "velocity": 96}, {"time": 1628, "pitch": 66, "duration": 6, "velocity": 90}, {"time": 1634, "pitch": 66, "duration": 6, "velocity": 80}, {"time": 1640, "pitch": 68, "duration": 12, "velocity": 81}, {"time": 1652, "pitch": 75, "duration": 12, "velocity": 86}, {"time": 1664, "pitch": 75, "duration": 12, "velocity": 80}, {"time": 1676, "pitch": 70, "duration": 6, "velocity": 77}, {"time": 1682, "pitch": 68, "duration": 6, "velocity": 65}, {"time": 1688, "pitch": 66, "duration": 12, "velocity": 71}, {"time": 1700, "pitch": 70, "duration": 12, "velocity": 94}, {"time": 1712, "pitch": 68, "duration": 12, "velocity": 91}, {"time": 1724, "pitch": 68, "duration": 6, "velocity": 91}, {"time": 1730, "pitch": 70, "duration": 6, "velocity": 67}, {"time": 1736, "pitch": 71, "duration": 6, "velocity": 87}, {"time": 1742, "pitch": 71, "duration": 6, "velocity": 94}, {"time": 1748, "pitch": 71, "duration": 6, "velocity": 95}, {"time": 1754, "pitch": 71, "duration": 6, "velocity": 93}, {"time": 1760, "pitch": 71, "duration": 12, "velocity": 97}, {"time": 1772, "pitch": 73, "duration": 12, "velocity": 97}, {"time": 1784, "pitch": 75, "duration": 36, "velocity": 93}, {"time": 1820, "pitch": 73, "duration": 6, "velocity": 87}, {"time": 1826, "pitch": 75, "duration": 6, "velocity": 82}, {"time": 1832, "pitch": 76, "duration": 12, "velocity": 94}, {"time": 1844, "pitch": 76, "duration": 6, "velocity": 96}, {"time": 1850, "pitch": 75, "duration": 6, "velocity": 91}, {"time": 1856, "pitch": 76, "duration": 12, "velocity": 90}, {"time": 1868, "pitch": 76, "duration": 6, "velocity": 95}, {"time": 1874, "pitch": 73, "duration": 6, "velocity": 79}, {"time": 1880, "pitch": 75, "duration": 12, "velocity": 87}, {"time": 1892, "pitch": 75, "duration": 6, "velocity": 87}, {"time": 1898, "pitch": 73, "duration": 6, "velocity": 82}, {"time": 1904, "pitch": 71, "duration": 12, "velocity": 83}, {"time": 1916, "pitch": 68, "duration": 6, "velocity": 93}, {"time": 1922, "pitch": 70, "duration": 6, "velocity": 77}, {"time": 1928, "pitch": 71, "duration": 6, "velocity": 91}, {"time": 1934, "pitch": 71, "duration": 6, "velocity": 91}, {"time": 1940, "pitch": 71, "duration": 6, "velocity": 87}, {"time": 1946, "pitch": 71, "duration": 6, "velocity": 91}, {"time": 1952, "pitch": 71, "duration": 12, "velocity": 93}, {"time": 1964, "pitch": 71, "duration": 12, "velocity": 97}, {"time": 1976, "pitch": 68, "duration": 18, "velocity": 91}, {"time": 1994, "pitch": 68, "duration": 6, "velocity": 65}, {"time": 2000, "pitch": 68, "duration": 12, "velocity": 90}, {"time": 2012, "pitch": 80, "duration": 12, "velocity": 79}, {"time": 2024, "pitch": 78, "duration": 84, "velocity": 95}, {"time": 2108, "pitch": 71, "duration": 6, "velocity": 90}, {"time": 2114, "pitch": 73, "duration": 6, "velocity": 75}, {"time": 2120, "pitch": 75, "duration": 12, "velocity": 91}, {"time": 2132, "pitch": 78, "duration": 12, "velocity": 89}, {"time": 2144, "pitch": 78, "duration": 6, "velocity": 84}, {"time": 2150, "pitch": 75, "duration": 6, "velocity": 83}, {"time": 2156, "pitch": 78, "duration": 6, "velocity": 84}, {"time": 2162, "pitch": 75, "duration": 6, "velocity": 84}, {"time": 2168, "pitch": 75, "duration": 6, "velocity": 83}, {"time": 2174, "pitch": 80, "duration": 12, "velocity": 87}, {"time": 2186, "pitch": 78, "duration": 12, "velocity": 89}, {"time": 2198, "pitch": 75, "duration": 6, "velocity": 87}, {"time": 2204, "pitch": 75, "duration": 6, "velocity": 77}, {"time": 2210, "pitch": 78, "duration": 6, "velocity": 75}, {"time": 2216, "pitch": 83, "duration": 6, "velocity": 87}, {"time": 2222, "pitch": 83, "duration": 6, "velocity": 83}, {"time": 2228, "pitch": 83, "duration": 6, "velocity": 77}, {"time": 2234, "pitch": 83, "duration": 6, "velocity": 74}, {"time": 2240, "pitch": 83, "duration": 12, "velocity": 90}, {"time": 2252, "pitch": 75, "duration": 12, "velocity": 87}, {"time": 2264, "pitch": 78, "duration": 30, "velocity": 100}, {"time": 2294, "pitch": 78, "duration": 6, "velocity": 85}, {"time": 2300, "pitch": 80, "duration": 6, "velocity": 90}, {"time": 2306, "pitch": 78, "duration": 6, "velocity": 64}, {"time": 2312, "pitch": 80, "duration": 12, "velocity": 91}, {"time": 2324, "pitch": 83, "duration": 6, "velocity": 83}, {"time": 2330, "pitch": 83, "duration": 12, "velocity": 85}, {"time": 2342, "pitch": 78, "duration": 6, "velocity": 87}, {"time": 2348, "pitch": 80, "duration": 6, "velocity": 69}, {"time": 2354, "pitch": 78, "duration": 6, "velocity": 61}, {"time": 2360, "pitch": 78, "duration": 12, "velocity": 66}, {"time": 2372, "pitch": 80, "duration": 6, "velocity": 66}, {"time": 2378, "pitch": 75, "duration": 12, "velocity": 75}, {"time": 2390, "pitch": 68, "duration": 6, "velocity": 80}, {"time": 2396, "pitch": 68, "duration": 6, "velocity": 66}, {"time": 2402, "pitch": 71, "duration": 6, "velocity": 63}, {"time": 2408, "pitch": 75, "duration": 6, "velocity": 82}, {"time": 2414, "pitch": 73, "duration": 6, "velocity": 77}, {"time": 2420, "pitch": 73, "duration": 6, "velocity": 87}, {"time": 2426, "pitch": 73, "duration": 6, "velocity": 84}, {"time": 2432, "pitch": 73, "duration": 12, "velocity": 81}, {"time": 2444, "pitch": 71, "duration": 12, "velocity": 92}, {"time": 2456, "pitch": 73, "duration": 36, "velocity": 96}, {"time": 2492, "pitch": 71, "duration": 6, "velocity": 90}, {"time": 2498, "pitch": 73, "duration": 6, "velocity": 66}, {"time": 2504, "pitch": 75, "duration": 12, "velocity": 93}, {"time": 2516, "pitch": 78, "duration": 12, "velocity": 90}, {"time": 2528, "pitch": 78, "duration": 6, "velocity": 91}, {"time": 2534, "pitch": 75, "duration": 6, "velocity": 86}, {"time": 2540, "pitch": 78, "duration": 6, "velocity": 92}, {"time": 2546, "pitch": 75, "duration": 6, "velocity": 90}, {"time": 2552, "pitch": 75, "duration": 6, "velocity": 72}, {"time": 2558, "pitch": 80, "duration": 12, "velocity": 90}, {"time": 2570, "pitch": 78, "duration": 12, "velocity": 97}, {"time": 2582, "pitch": 75, "duration": 6, "velocity": 67}, {"time": 2588, "pitch": 75, "duration": 6, "velocity": 69}, {"time": 2594, "pitch": 78, "duration": 6, "velocity": 72}, {"time": 2600, "pitch": 83, "duration": 6, "velocity": 90}, {"time": 2606, "pitch": 83, "duration": 12, "velocity": 94}, {"time": 2618, "pitch": 83, "duration": 6, "velocity": 93}, {"time": 2624, "pitch": 83, "duration": 12, "velocity": 93}, {"time": 2636, "pitch": 85, "duration": 12, "velocity": 87}, {"time": 2648, "pitch": 78, "duration": 30, "velocity": 93}, {"time": 2678, "pitch": 78, "duration": 6, "velocity": 93}, {"time": 2684, "pitch": 80, "duration": 6, "velocity": 86}, {"time": 2690, "pitch": 78, "duration": 6, "velocity": 72}, {"time": 2696, "pitch": 80, "duration": 12, "velocity": 97}, {"time": 2708, "pitch": 83, "duration": 6, "velocity": 93}, {"time": 2714, "pitch": 83, "duration": 12, "velocity": 98}, {"time": 2726, "pitch": 78, "duration": 6, "velocity": 91}, {"time": 2732, "pitch": 80, "duration": 6, "velocity": 93}, {"time": 2738, "pitch": 78, "duration": 6, "velocity": 80}, {"time": 2744, "pitch": 78, "duration": 12, "velocity": 93}, {"time": 2756, "pitch": 80, "duration": 6, "velocity": 91}, {"time": 2762, "pitch": 75, "duration": 12, "velocity": 84}, {"time": 2774, "pitch": 68, "duration": 6, "velocity": 84}, {"time": 2780, "pitch": 68, "duration": 6, "velocity": 77}, {"time": 2786, "pitch": 71, "duration": 6, "velocity": 84}, {"time": 2792, "pitch": 75, "duration": 12, "velocity": 96}, {"time": 2804, "pitch": 73, "duration": 6, "velocity": 84}, {"time": 2810, "pitch": 73, "duration": 6, "velocity": 94}, {"time": 2816, "pitch": 73, "duration": 12, "velocity": 82}, {"time": 2828, "pitch": 75, "duration": 12, "velocity": 86}, {"time": 2840, "pitch": 78, "duration": 24, "velocity": 90}, {"time": 2864, "pitch": 80, "duration": 24, "velocity": 99}, {"time": 2888, "pitch": 71, "duration": 96, "velocity": 95}, {"time": 3356, "pitch": 68, "duration": 6, "velocity": 73}, {"time": 3362, "pitch": 68, "duration": 6, "velocity": 64}, {"time": 3368, "pitch": 68, "duration": 12, "velocity": 66}, {"time": 3380, "pitch": 75, "duration": 12, "velocity": 66}, {"time": 3392, "pitch": 75, "duration": 6, "velocity": 64}, {"time": 3398, "pitch": 75, "duration": 6, "velocity": 72}, {"time": 3404, "pitch": 73, "duration": 6, "velocity": 75}, {"time": 3410, "pitch": 71, "duration": 6, "velocity": 68}, {"time": 3416, "pitch": 73, "duration": 6, "velocity": 84}, {"time": 3422, "pitch": 75, "duration": 18, "velocity": 64}, {"time": 3440, "pitch": 73, "duration": 12, "velocity": 85}, {"time": 3452, "pitch": 66, "duration": 6, "velocity": 66}, {"time": 3458, "pitch": 66, "duration": 6, "velocity": 64}, {"time": 3464, "pitch": 78, "duration": 6, "velocity": 66}, {"time": 3470, "pitch": 78, "duration": 6, "velocity": 66}, {"time": 3476, "pitch": 78, "duration": 6, "velocity": 57}, {"time": 3482, "pitch": 78, "duration": 6, "velocity": 59}, {"time": 3488, "pitch": 78, "duration": 6, "velocity": 63}, {"time": 3494, "pitch": 78, "duration": 6, "velocity": 54}, {"time": 3500, "pitch": 73, "duration": 12, "velocity": 74}, {"time": 3512, "pitch": 75, "duration": 36, "velocity": 93}, {"time": 3548, "pitch": 73, "duration": 6, "velocity": 84}, {"time": 3554, "pitch": 75, "duration": 6, "velocity": 95}, {"time": 3560, "pitch": 76, "duration": 6, "velocity": 94}, {"time": 3566, "pitch": 76, "duration": 6, "velocity": 94}, {"time": 3572, "pitch": 76, "duration": 6, "velocity": 93}, {"time": 3578, "pitch": 75, "duration": 6, "velocity": 83}, {"time": 3584, "pitch": 76, "duration": 12, "velocity": 90}, {"time": 3596, "pitch": 73, "duration": 6, "velocity": 81}, {"time": 3602, "pitch": 73, "duration": 6, "velocity": 63}, {"time": 3608, "pitch": 75, "duration": 12, "velocity": 87}, {"time": 3620, "pitch": 75, "duration": 6, "velocity": 89}, {"time": 3626, "pitch": 73, "duration": 6, "velocity": 69}, {"time": 3632, "pitch": 71, "duration": 12, "velocity": 92}, {"time": 3644, "pitch": 68, "duration": 6, "velocity": 81}, {"time": 3650, "pitch": 70, "duration": 6, "velocity": 57}, {"time": 3656, "pitch": 71, "duration": 6, "velocity": 66}, {"time": 3662, "pitch": 71, "duration": 6, "velocity": 69}, {"time": 3668, "pitch": 71, "duration": 6, "velocity": 64}, {"time": 3674, "pitch": 71, "duration": 6, "velocity": 66}, {"time": 3680, "pitch": 71, "duration": 12, "velocity": 86}, {"time": 3692, "pitch": 73, "duration": 12, "velocity": 90}, {"time": 3704, "pitch": 70, "duration": 36, "velocity": 82}, {"time": 3740, "pitch": 66, "duration": 6, "velocity": 72}, {"time": 3746, "pitch": 66, "duration": 6, "velocity": 76}, {"time": 3752, "pitch": 68, "duration": 12, "velocity": 69}, {"time": 3764, "pitch": 75, "duration": 12, "velocity": 90}, {"time": 3776, "pitch": 75, "duration": 6, "velocity": 92}, {"time": 3782, "pitch": 75, "duration": 6, "velocity": 90}, {"time": 3788, "pitch": 73, "duration": 6, "velocity": 87}, {"time": 3794, "pitch": 71, "duration": 6, "velocity": 84}, {"time": 3800, "pitch": 73, "duration": 6, "velocity": 87}, {"time": 3806, "pitch": 75, "duration": 18, "velocity": 89}, {"time": 3824, "pitch": 73, "duration": 12, "velocity": 87}, {"time": 3836, "pitch": 66, "duration": 6, "velocity": 75}, {"time": 3842, "pitch": 66, "duration": 6, "velocity": 65}, {"time": 3848, "pitch": 78, "duration": 6, "velocity": 75}, {"time": 3854, "pitch": 78, "duration": 6, "velocity": 68}, {"time": 3860, "pitch": 78, "duration": 6, "velocity": 68}, {"time": 3866, "pitch": 78, "duration": 6, "velocity": 64}, {"time": 3872, "pitch": 78, "duration": 12, "velocity": 76}, {"time": 3884, "pitch": 80, "duration": 12, "velocity": 77}, {"time": 3896, "pitch": 73, "duration": 6, "velocity": 62}, {"time": 3902, "pitch": 75, "duration": 30, "velocity": 64}, {"time": 3932, "pitch": 73, "duration": 6, "velocity": 99}, {"time": 3938, "pitch": 75, "duration": 6, "velocity": 74}, {"time": 3944, "pitch": 76, "duration": 6, "velocity": 93}, {"time": 3950, "pitch": 76, "duration": 6, "velocity": 92}, {"time": 3956, "pitch": 76, "duration": 6, "velocity": 87}, {"time": 3962, "pitch": 76, "duration": 6, "velocity": 91}, {"time": 3968, "pitch": 76, "duration": 12, "velocity": 84}, {"time": 3980, "pitch": 80, "duration": 12, "velocity": 77}, {"time": 3992, "pitch": 75, "duration": 9, "velocity": 90}, {"time": 4001, "pitch": 75, "duration": 9, "velocity": 93}, {"time": 4010, "pitch": 73, "duration": 6, "velocity": 89}, {"time": 4016, "pitch": 71, "duration": 12, "velocity": 96}, {"time": 4028, "pitch": 68, "duration": 6, "velocity": 96}, {"time": 4034, "pitch": 70, "duration": 6, "velocity": 85}, {"time": 4040, "pitch": 71, "duration": 9, "velocity": 87}, {"time": 4049, "pitch": 71, "duration": 9, "velocity": 85}, {"time": 4058, "pitch": 71, "duration": 6, "velocity": 93}, {"time": 4064, "pitch": 73, "duration": 12, "velocity": 95}, {"time": 4076, "pitch": 66, "duration": 12, "velocity": 72}, {"time": 4088, "pitch": 68, "duration": 36, "velocity": 96}, {"time": 4124, "pitch": 66, "duration": 6, "velocity": 90}, {"time": 4130, "pitch": 66, "duration": 6, "velocity": 80}, {"time": 4136, "pitch": 68, "duration": 12, "velocity": 81}, {"time": 4148, "pitch": 75, "duration": 12, "velocity": 86}, {"time": 4160, "pitch": 75, "duration": 12, "velocity": 80}, {"time": 4172, "pitch": 70, "duration": 6, "velocity": 77}, {"time": 4178, "pitch": 68, "duration": 6, "velocity": 65}, {"time": 4184, "pitch": 66, "duration": 12, "velocity": 71}, {"time": 4196, "pitch": 70, "duration": 12, "velocity": 94}, {"time": 4208, "pitch": 68, "duration": 12, "velocity": 91}, {"time": 4220, "pitch": 68, "duration": 6, "velocity": 91}, {"time": 4226, "pitch": 70, "duration": 6, "velocity": 67}, {"time": 4232, "pitch": 71, "duration": 6, "velocity": 87}, {"time": 4238, "pitch": 71, "duration": 6, "velocity": 94}, {"time": 4244, "pitch": 71, "duration": 6, "velocity": 95}, {"time": 4250, "pitch": 71, "duration": 6, "velocity": 93}, {"time": 4256, "pitch": 71, "duration": 12, "velocity": 97}, {"time": 4268, "pitch": 73, "duration": 12, "velocity": 97}, {"time": 4280, "pitch": 75, "duration": 36, "velocity": 93}, {"time": 4316, "pitch": 73, "duration": 6, "velocity": 87}, {"time": 4322, "pitch": 75, "duration": 6, "velocity": 82}, {"time": 4328, "pitch": 76, "duration": 12, "velocity": 94}, {"time": 4340, "pitch": 76, "duration": 6, "velocity": 96}, {"time": 4346, "pitch": 75, "duration": 6, "velocity": 91}, {"time": 4352, "pitch": 76, "duration": 12, "velocity": 90}, {"time": 4364, "pitch": 76, "duration": 6, "velocity": 95}, {"time": 4370, "pitch": 73, "duration": 6, "velocity": 79}, {"time": 4376, "pitch": 75, "duration": 12, "velocity": 87}, {"time": 4388, "pitch": 75, "duration": 6, "velocity": 87}, {"time": 4394, "pitch": 73, "duration": 6, "velocity": 82}, {"time": 4400, "pitch": 71, "duration": 12, "velocity": 83}, {"time": 4412, "pitch": 68, "duration": 6, "velocity": 93}, {"time": 4418, "pitch": 70, "duration": 6, "velocity": 77}, {"time": 4424, "pitch": 71, "duration": 6, "velocity": 91}, {"time": 4430, "pitch": 71, "duration": 6, "velocity": 91}, {"time": 4436, "pitch": 71, "duration": 6, "velocity": 87}, {"time": 4442, "pitch": 71, "duration": 6, "velocity": 91}, {"time": 4448, "pitch": 71, "duration": 12, "velocity": 93}, {"time": 4460, "pitch": 71, "duration": 12, "velocity": 97}, {"time": 4472, "pitch": 68, "duration": 18, "velocity": 91}, {"time": 4490, "pitch": 68, "duration": 6, "velocity": 65}, {"time": 4496, "pitch": 68, "duration": 12, "velocity": 90}, {"time": 4508, "pitch": 80, "duration": 12, "velocity": 79}, {"time": 4520, "pitch": 78, "duration": 84, "velocity": 95}, {"time": 4604, "pitch": 71, "duration": 6, "velocity": 90}, {"time": 4610, "pitch": 73, "duration": 6, "velocity": 75}, {"time": 4616, "pitch": 75, "duration": 12, "velocity": 91}, {"time": 4628, "pitch": 78, "duration": 12, "velocity": 89}, {"time": 4640, "pitch": 78, "duration": 6, "velocity": 84}, {"time": 4646, "pitch": 75, "duration": 6, "velocity": 83}, {"time": 4652, "pitch": 78, "duration": 6, "velocity": 84}, {"time": 4658, "pitch": 75, "duration": 6, "velocity": 84}, {"time": 4664, "pitch": 75, "duration": 6, "velocity": 83}, {"time": 4670, "pitch": 80, "duration": 12, "velocity": 87}, {"time": 4682, "pitch": 78, "duration": 12, "velocity": 89}, {"time": 4694, "pitch": 75, "duration": 6, "velocity": 87}, {"time": 4700, "pitch": 75, "duration": 6, "velocity": 77}, {"time": 4706, "pitch": 78, "duration": 6, "velocity": 75}, {"time": 4712, "pitch": 83, "duration": 6, "velocity": 87}, {"time": 4718, "pitch": 83, "duration": 6, "velocity": 83}, {"time": 4724, "pitch": 83, "duration": 6, "velocity": 77}, {"time": 4730, "pitch": 83, "duration": 6, "velocity": 74}, {"time": 4736, "pitch": 83, "duration": 12, "velocity": 90}, {"time": 4748, "pitch": 75, "duration": 12, "velocity": 87}, {"time": 4760, "pitch": 78, "duration": 30, "velocity": 100}, {"time": 4790, "pitch": 78, "duration": 6, "velocity": 85}, {"time": 4796, "pitch": 80, "duration": 6, "velocity": 90}, {"time": 4802, "pitch": 78, "duration": 6, "velocity": 64}, {"time": 4808, "pitch": 80, "duration": 12, "velocity": 91}, {"time": 4820, "pitch": 83, "duration": 6, "velocity": 83}, {"time": 4826, "pitch": 83, "duration": 12, "velocity": 85}, {"time": 4838, "pitch": 78, "duration": 6, "velocity": 87}, {"time": 4844, "pitch": 80, "duration": 6, "velocity": 69}, {"time": 4850, "pitch": 78, "duration": 6, "velocity": 61}, {"time": 4856, "pitch": 78, "duration": 12, "velocity": 66}, {"time": 4868, "pitch": 80, "duration": 6, "velocity": 66}, {"time": 4874, "pitch": 75, "duration": 12, "velocity": 75}, {"time": 4886, "pitch": 68, "duration": 6, "velocity": 80}, {"time": 4892, "pitch": 68, "duration": 6, "velocity": 66}, {"time": 4898, "pitch": 71, "duration": 6, "velocity": 63}, {"time": 4904, "pitch": 75, "duration": 6, "velocity": 82}, {"time": 4910, "pitch": 73, "duration": 6, "velocity": 77}, {"time": 4916, "pitch": 73, "duration": 6, "velocity": 87}, {"time": 4922, "pitch": 73, "duration": 6, "velocity": 84}, {"time": 4928, "pitch": 73, "duration": 12, "velocity": 81}, {"time": 4940, "pitch": 71, "duration": 12, "velocity": 92}, {"time": 4952, "pitch": 73, "duration": 36, "velocity": 96}, {"time": 4988, "pitch": 71, "duration": 6, "velocity": 90}, {"time": 4994, "pitch": 73, "duration": 6, "velocity": 66}, {"time": 5000, "pitch": 75, "duration": 12, "velocity": 93}, {"time": 5012, "pitch": 78, "duration": 12, "velocity": 90}, {"time": 5024, "pitch": 78, "duration": 6, "velocity": 91}, {"time": 5030, "pitch": 75, "duration": 6, "velocity": 86}, {"time": 5036, "pitch": 78, "duration": 6, "velocity": 92}, {"time": 5042, "pitch": 75, "duration": 6, "velocity": 90}, {"time": 5048, "pitch": 75, "duration": 6, "velocity": 72}, {"time": 5054, "pitch": 80, "duration": 12, "velocity": 90}, {"time": 5066, "pitch": 78, "duration": 12, "velocity": 97}, {"time": 5078, "pitch": 75, "duration": 6, "velocity": 67}, {"time": 5084, "pitch": 75, "duration": 6, "velocity": 69}, {"time": 5090, "pitch": 78, "duration": 6, "velocity": 72}, {"time": 5096, "pitch": 83, "duration": 6, "velocity": 90}, {"time": 5102, "pitch": 83, "duration": 12, "velocity": 94}, {"time": 5114, "pitch": 83, "duration": 6, "velocity": 93}, {"time": 5120, "pitch": 83, "duration": 12, "velocity": 93}, {"time": 5132, "pitch": 85, "duration": 12, "velocity": 87}, {"time": 5144, "pitch": 78, "duration": 30, "velocity": 93}, {"time": 5174, "pitch": 78, "duration": 6, "velocity": 93}, {"time": 5180, "pitch": 80, "duration": 6, "velocity": 86}, {"time": 5186, "pitch": 78, "duration": 6, "velocity": 72}, {"time": 5192, "pitch": 80, "duration": 12, "velocity": 97}, {"time": 5204, "pitch": 83, "duration": 6, "velocity": 93}, {"time": 5210, "pitch": 83, "duration": 12, "velocity": 98}, {"time": 5222, "pitch": 78, "duration": 6, "velocity": 91}, {"time": 5228, "pitch": 80, "duration": 6, "velocity": 93}, {"time": 5234, "pitch": 78, "duration": 6, "velocity": 80}, {"time": 5240, "pitch": 78, "duration": 12, "velocity": 93}, {"time": 5252, "pitch": 80, "duration": 6, "velocity": 91}, {"time": 5258, "pitch": 75, "duration": 12, "velocity": 84}, {"time": 5270, "pitch": 68, "duration": 6, "velocity": 84}, {"time": 5276, "pitch": 68, "duration": 6, "velocity": 77}, {"time": 5282, "pitch": 71, "duration": 6, "velocity": 84}, {"time": 5288, "pitch": 75, "duration": 12, "velocity": 96}, {"time": 5300, "pitch": 73, "duration": 6, "velocity": 84}, {"time": 5306, "pitch": 73, "duration": 6, "velocity": 94}, {"time": 5312, "pitch": 73, "duration": 12, "velocity": 82}, {"time": 5324, "pitch": 75, "duration": 12, "velocity": 86}, {"time": 5336, "pitch": 78, "duration": 24, "velocity": 90}, {"time": 5360, "pitch": 80, "duration": 24, "velocity": 99}, {"time": 5384, "pitch": 71, "duration": 84, "velocity": 95}, {"time": 5468, "pitch": 71, "duration": 6, "velocity": 90}, {"time": 5474, "pitch": 73, "duration": 6, "velocity": 75}, {"time": 5480, "pitch": 75, "duration": 12, "velocity": 91}, {"time": 5492, "pitch": 78, "duration": 12, "velocity": 89}, {"time": 5504, "pitch": 78, "duration": 6, "velocity": 84}, {"time": 5510, "pitch": 75, "duration": 6, "velocity": 83}, {"time": 5516, "pitch": 78, "duration": 6, "velocity": 84}, {"time": 5522, "pitch": 75, "duration": 6, "velocity": 84}, {"time": 5528, "pitch": 75, "duration": 6, "velocity": 83}, {"time": 5534, "pitch": 80, "duration": 12, "velocity": 87}, {"time": 5546, "pitch": 78, "duration": 12, "velocity": 89}, {"time": 5558, "pitch": 75, "duration": 6, "velocity": 87}, {"time": 5564, "pitch": 75, "duration": 6, "velocity": 77}, {"time": 5570, "pitch": 78, "duration": 6, "velocity": 75}, {"time": 5576, "pitch": 83, "duration": 6, "velocity": 87}, {"time": 5582, "pitch": 83, "duration": 6, "velocity": 83}, {"time": 5588, "pitch": 83, "duration": 6, "velocity": 77}, {"time": 5594, "pitch": 83, "duration": 6, "velocity": 74}, {"time": 5600, "pitch": 83, "duration": 12, "velocity": 90}, {"time": 5612, "pitch": 75, "duration": 12, "velocity": 87}, {"time": 5624, "pitch": 78, "duration": 6, "velocity": 100}, {"time": 5630, "pitch": 80, "duration": 6, "velocity": 100}, {"time": 5636, "pitch": 78, "duration": 18, "velocity": 100}, {"time": 5654, "pitch": 78, "duration": 6, "velocity": 85}, {"time": 5660, "pitch": 80, "duration": 6, "velocity": 90}, {"time": 5666, "pitch": 78, "duration": 6, "velocity": 64}, {"time": 5672, "pitch": 80, "duration": 12, "velocity": 91}, {"time": 5684, "pitch": 83, "duration": 6, "velocity": 83}, {"time": 5690, "pitch": 83, "duration": 12, "velocity": 85}, {"time": 5702, "pitch": 78, "duration": 6, "velocity": 87}, {"time": 5708, "pitch": 80, "duration": 6, "velocity": 69}, {"time": 5714, "pitch": 78, "duration": 6, "velocity": 61}, {"time": 5720, "pitch": 78, "duration": 12, "velocity": 66}, {"time": 5732, "pitch": 80, "duration": 6, "velocity": 66}, {"time": 5738, "pitch": 75, "duration": 12, "velocity": 75}, {"time": 5750, "pitch": 68, "duration": 6, "velocity": 80}, {"time": 5756, "pitch": 68, "duration": 6, "velocity": 66}, {"time": 5762, "pitch": 71, "duration": 6, "velocity": 63}, {"time": 5768, "pitch": 75, "duration": 6, "velocity": 82}, {"time": 5774, "pitch": 73, "duration": 6, "velocity": 77}, {"time": 5780, "pitch": 73, "duration": 6, "velocity": 87}, {"time": 5786, "pitch": 73, "duration": 6, "velocity": 84}, {"time": 5792, "pitch": 73, "duration": 12, "velocity": 81}, {"time": 5804, "pitch": 71, "duration": 12, "velocity": 92}, {"time": 5816, "pitch": 78, "duration": 36, "velocity": 96}, {"time": 5852, "pitch": 71, "duration": 6, "velocity": 90}, {"time": 5858, "pitch": 73, "duration": 6, "velocity": 66}, {"time": 5864, "pitch": 75, "duration": 12, "velocity": 93}, {"time": 5876, "pitch": 78, "duration": 12, "velocity": 90}, {"time": 5888, "pitch": 78, "duration": 6, "velocity": 91}, {"time": 5894, "pitch": 75, "duration": 6, "velocity": 86}, {"time": 5900, "pitch": 78, "duration": 6, "velocity": 92}, {"time": 5906, "pitch": 75, "duration": 6, "velocity": 90}, {"time": 5912, "pitch": 75, "duration": 6, "velocity": 72}, {"time": 5918, "pitch": 80, "duration": 12, "velocity": 90}, {"time": 5930, "pitch": 78, "duration": 12, "velocity": 97}, {"time": 5942, "pitch": 75, "duration": 6, "velocity": 67}, {"time": 5948, "pitch": 75, "duration": 6, "velocity": 69}, {"time": 5954, "pitch": 78, "duration": 6, "velocity": 72}, {"time": 5960, "pitch": 83, "duration": 6, "velocity": 90}, {"time": 5966, "pitch": 83, "duration": 12, "velocity": 94}, {"time": 5978, "pitch": 83, "duration": 6, "velocity": 93}, {"time": 5984, "pitch": 83, "duration": 12, "velocity": 93}, {"time": 5996, "pitch": 85, "duration": 12, "velocity": 87}, {"time": 6008, "pitch": 78, "duration": 30, "velocity": 93}, {"time": 6038, "pitch": 78, "duration": 6, "velocity": 93}, {"time": 6044, "pitch": 80, "duration": 6, "velocity": 86}, {"time": 6050, "pitch": 78, "duration": 6, "velocity": 72}, {"time": 6056, "pitch": 80, "duration": 12, "velocity": 97}, {"time": 6068, "pitch": 83, "duration": 6, "velocity": 93}, {"time": 6074, "pitch": 83, "duration": 12, "velocity": 98}, {"time": 6086, "pitch": 78, "duration": 6, "velocity": 91}, {"time": 6092, "pitch": 80, "duration": 6, "velocity": 93}, {"time": 6098, "pitch": 78, "duration": 6, "velocity": 80}, {"time": 6104, "pitch": 78, "duration": 12, "velocity": 93}, {"time": 6116, "pitch": 80, "duration": 6, "velocity": 91}, {"time": 6122, "pitch": 75, "duration": 12, "velocity": 84}, {"time": 6134, "pitch": 68, "duration": 6, "velocity": 84}, {"time": 6140, "pitch": 68, "duration": 6, "velocity": 77}, {"time": 6146, "pitch": 71, "duration": 6, "velocity": 84}, {"time": 6152, "pitch": 75, "duration": 12, "velocity": 96}, {"time": 6164, "pitch": 73, "duration": 6, "velocity": 84}, {"time": 6170, "pitch": 73, "duration": 6, "velocity": 94}, {"time": 6176, "pitch": 73, "duration": 12, "velocity": 82}, {"time": 6188, "pitch": 75, "duration": 12, "velocity": 86}, {"time": 6200, "pitch": 78, "duration": 24, "velocity": 90}, {"time": 6224, "pitch": 80, "duration": 24, "velocity": 99}, {"time": 6248, "pitch": 71, "duration": 72, "velocity": 95}, {"time": 6326, "pitch": 78, "duration": 6, "velocity": 93}, {"time": 6332, "pitch": 80, "duration": 6, "velocity": 86}, {"time": 6338, "pitch": 78, "duration": 6, "velocity": 72}, {"time": 6344, "pitch": 80, "duration": 12, "velocity": 97}, {"time": 6356, "pitch": 83, "duration": 6, "velocity": 93}, {"time": 6362, "pitch": 83, "duration": 12, "velocity": 98}, {"time": 6374, "pitch": 78, "duration": 6, "velocity": 91}, {"time": 6380, "pitch": 80, "duration": 6, "velocity": 93}, {"time": 6386, "pitch": 78, "duration": 6, "velocity": 80}, {"time": 6392, "pitch": 78, "duration": 12, "velocity": 93}, {"time": 6404, "pitch": 80, "duration": 6, "velocity": 91}, {"time": 6410, "pitch": 75, "duration": 12, "velocity": 84}, {"time": 6440, "pitch": 68, "duration": 6, "velocity": 54}, {"time": 6446, "pitch": 68, "duration": 6, "velocity": 68}, {"time": 6452, "pitch": 71, "duration": 6, "velocity": 57}, {"time": 6458, "pitch": 75, "duration": 9, "velocity": 56}, {"time": 6467, "pitch": 73, "duration": 9, "velocity": 52}, {"time": 6476, "pitch": 73, "duration": 12, "velocity": 53}, {"time": 6488, "pitch": 75, "duration": 12, "velocity": 56}, {"time": 6500, "pitch": 78, "duration": 48, "velocity": 63}, {"time": 6548, "pitch": 68, "duration": 30, "velocity": 64}, {"time": 6578, "pitch": 71, "duration": 54, "velocity": 64}], "annotations": [{"time": 900, "annotation": {"number": 1, "value": 1}, "group": "control_change"}, {"time": 900, "annotation": {"number": 1, "value": 2}, "group": "control_change"}, {"time": 1018, "annotation": {"number": 1, "value": 2}, "group": "control_change"}, {"time": 1237, "annotation": {"number": 1, "value": 2}, "group": "control_change"}, {"time": 1282, "annotation": {"number": 1, "value": 1}, "group": "control_change"}, {"time": 1287, "annotation": {"number": 1, "value": 2}, "group": "control_change"}, {"time": 1293, "annotation": {"number": 1, "value": 1}, "group": "control_change"}, {"time": 1301, "annotation": {"number": 1, "value": 2}, "group": "control_change"}, {"time": 1325, "annotation": {"number": 1, "value": 1}, "group": "control_change"}, {"time": 1423, "annotation": {"number": 1, "value": 1}, "group": "control_change"}, {"time": 2228, "annotation": {"number": 1, "value": 1}, "group": "control_change"}, {"time": 2228, "annotation": {"number": 1, "value": 2}, "group": "control_change"}, {"time": 2232, "annotation": {"number": 1, "value": 1}, "group": "control_change"}, {"time": 2232, "annotation": {"number": 1, "value": 2}, "group": "control_change"}, {"time": 2233, "annotation": {"number": 1, "value": 1}, "group": "control_change"}, {"time": 2233, "annotation": {"number": 1, "value": 2}, "group": "control_change"}, {"time": 2715, "annotation": {"number": 1, "value": 2}, "group": "control_change"}, {"time": 2717, "annotation": {"number": 1, "value": 1}, "group": "control_change"}, {"time": 2751, "annotation": {"number": 1, "value": 2}, "group": "control_change"}, {"time": 2754, "annotation": {"number": 1, "value": 1}, "group": "control_change"}, {"time": 2786, "annotation": {"number": 1, "value": 1}, "group": "control_change"}, {"time": 2791, "annotation": {"number": 1, "value": 2}, "group": "control_change"}, {"time": 2797, "annotation": {"number": 1, "value": 1}, "group": "control_change"}, {"time": 2823, "annotation": {"number": 1, "value": 2}, "group": "control_change"}, {"time": 3391, "annotation": {"number": 1, "value": 1}, "group": "control_change"}, {"time": 3391, "annotation": {"number": 1, "value": 2}, "group": "control_change"}, {"time": 3509, "annotation": {"number": 1, "value": 2}, "group": "control_change"}, {"time": 3728, "annotation": {"number": 1, "value": 2}, "group": "control_change"}, {"time": 3773, "annotation": {"number": 1, "value": 1}, "group": "control_change"}, {"time": 3778, "annotation": {"number": 1, "value": 2}, "group": "control_change"}, {"time": 3785, "annotation": {"number": 1, "value": 1}, "group": "control_change"}, {"time": 3793, "annotation": {"number": 1, "value": 2}, "group": "control_change"}, {"time": 3816, "annotation": {"number": 1, "value": 1}, "group": "control_change"}, {"time": 3915, "annotation": {"number": 1, "value": 1}, "group": "control_change"}, {"time": 4719, "annotation": {"number": 1, "value": 1}, "group": "control_change"}, {"time": 4719, "annotation": {"number": 1, "value": 2}, "group": "control_change"}, {"time": 4723, "annotation": {"number": 1, "value": 1}, "group": "control_change"}, {"time": 4723, "annotation": {"number": 1, "value": 2}, "group": "control_change"}, {"time": 4724, "annotation": {"number": 1, "value": 1}, "group": "control_change"}, {"time": 4724, "annotation": {"number": 1, "value": 2}, "group": "control_change"}, {"time": 5207, "annotation": {"number": 1, "value": 2}, "group": "control_change"}, {"time": 5208, "annotation": {"number": 1, "value": 1}, "group": "control_change"}, {"time": 5242, "annotation": {"number": 1, "value": 2}, "group": "control_change"}, {"time": 5246, "annotation": {"number": 1, "value": 1}, "group": "control_change"}, {"time": 5277, "annotation": {"number": 1, "value": 1}, "group": "control_change"}, {"time": 5282, "annotation": {"number": 1, "value": 2}, "group": "control_change"}, {"time": 5288, "annotation": {"number": 1, "value": 1}, "group": "control_change"}, {"time": 5314, "annotation": {"number": 1, "value": 2}, "group": "control_change"}]}, {"program": 0, "is_drum": false, "name": "PIANO", "notes": [{"time": 104, "pitch": 40, "duration": 37, "velocity": 63}, {"time": 104, "pitch": 56, "duration": 12, "velocity": 51}, {"time": 104, "pitch": 59, "duration": 10, "velocity": 72}, {"time": 104, "pitch": 63, "duration": 10, "velocity": 72}, {"time": 110, "pitch": 47, "duration": 31, "velocity": 56}, {"time": 116, "pitch": 52, "duration": 24, "velocity": 47}, {"time": 122, "pitch": 56, "duration": 19, "velocity": 54}, {"time": 122, "pitch": 63, "duration": 18, "velocity": 77}, {"time": 152, "pitch": 51, "duration": 35, "velocity": 57}, {"time": 152, "pitch": 54, "duration": 5, "velocity": 57}, {"time": 152, "pitch": 58, "duration": 6, "velocity": 79}, {"time": 152, "pitch": 61, "duration": 7, "velocity": 84}, {"time": 158, "pitch": 54, "duration": 9, "velocity": 53}, {"time": 164, "pitch": 61, "duration": 22, "velocity": 84}, {"time": 170, "pitch": 66, "duration": 18, "velocity": 78}, {"time": 200, "pitch": 44, "duration": 84, "velocity": 54}, {"time": 200, "pitch": 59, "duration": 12, "velocity": 60}, {"time": 200, "pitch": 63, "duration": 12, "velocity": 65}, {"time": 206, "pitch": 51, "duration": 77, "velocity": 60}, {"time": 212, "pitch": 56, "duration": 38, "velocity": 33}, {"time": 218, "pitch": 58, "duration": 37, "velocity": 45}, {"time": 218, "pitch": 61, "duration": 15, "velocity": 57}, {"time": 242, "pitch": 59, "duration": 14, "velocity": 45}, {"time": 254, "pitch": 56, "duration": 20, "velocity": 25}, {"time": 260, "pitch": 58, "duration": 9, "velocity": 41}, {"time": 266, "pitch": 66, "duration": 14, "velocity": 88}, {"time": 278, "pitch": 56, "duration": 4, "velocity": 42}, {"time": 284, "pitch": 58, "duration": 3, "velocity": 50}, {"time": 284, "pitch": 61, "duration": 8, "velocity": 90}, {"time": 284, "pitch": 66, "duration": 1, "velocity": 38}, {"time": 290, "pitch": 63, "duration": 4, "velocity": 86}, {"time": 296, "pitch": 40, "duration": 40, "velocity": 77}, {"time": 296, "pitch": 56, "duration": 12, "velocity": 63}, {"time": 296, "pitch": 59, "duration": 10, "velocity": 82}, {"time": 296, "pitch": 63, "duration": 10, "velocity": 85}, {"time": 302, "pitch": 47, "duration": 35, "velocity": 54}, {"time": 308, "pitch": 52, "duration": 19, "velocity": 48}, {"time": 314, "pitch": 56, "duration": 20, "velocity": 42}, {"time": 314, "pitch": 66, "duration": 21, "velocity": 53}, {"time": 332, "pitch": 52, "duration": 3, "velocity": 47}, {"time": 344, "pitch": 39, "duration": 31, "velocity": 68}, {"time": 344, "pitch": 58, "duration": 8, "velocity": 62}, {"time": 344, "pitch": 61, "duration": 7, "velocity": 86}, {"time": 344, "pitch": 66, "duration": 6, "velocity": 72}, {"time": 350, "pitch": 51, "duration": 21, "velocity": 56}, {"time": 356, "pitch": 58, "duration": 20, "velocity": 59}, {"time": 362, "pitch": 66, "duration": 16, "velocity": 82}, {"time": 371, "pitch": 51, "duration": 1, "velocity": 30}, {"time": 380, "pitch": 58, "duration": 9, "velocity": 48}, {"time": 392, "pitch": 44, "duration": 86, "velocity": 60}, {"time": 392, "pitch": 61, "duration": 12, "velocity": 76}, {"time": 392, "pitch": 63, "duration": 12, "velocity": 78}, {"time": 398, "pitch": 51, "duration": 79, "velocity": 65}, {"time": 404, "pitch": 56, "duration": 11, "velocity": 42}, {"time": 410, "pitch": 58, "duration": 12, "velocity": 54}, {"time": 410, "pitch": 61, "duration": 10, "velocity": 91}, {"time": 422, "pitch": 59, "duration": 4, "velocity": 65}, {"time": 422, "pitch": 63, "duration": 9, "velocity": 70}, {"time": 431, "pitch": 56, "duration": 15, "velocity": 14}, {"time": 440, "pitch": 58, "duration": 16, "velocity": 47}, {"time": 440, "pitch": 59, "duration": 14, "velocity": 60}, {"time": 440, "pitch": 66, "duration": 17, "velocity": 56}, {"time": 458, "pitch": 56, "duration": 18, "velocity": 27}, {"time": 464, "pitch": 58, "duration": 14, "velocity": 70}, {"time": 464, "pitch": 59, "duration": 13, "velocity": 81}, {"time": 464, "pitch": 63, "duration": 12, "velocity": 88}, {"time": 464, "pitch": 66, "duration": 12, "velocity": 42}, {"time": 488, "pitch": 44, "duration": 35, "velocity": 84}, {"time": 488, "pitch": 56, "duration": 7, "velocity": 68}, {"time": 488, "pitch": 59, "duration": 13, "velocity": 88}, {"time": 488, "pitch": 63, "duration": 9, "velocity": 91}, {"time": 494, "pitch": 51, "duration": 30, "velocity": 70}, {"time": 500, "pitch": 56, "duration": 10, "velocity": 53}, {"time": 506, "pitch": 58, "duration": 10, "velocity": 81}, {"time": 506, "pitch": 61, "duration": 10, "velocity": 101}, {"time": 512, "pitch": 56, "duration": 6, "velocity": 31}, {"time": 518, "pitch": 59, "duration": 3, "velocity": 94}, {"time": 518, "pitch": 63, "duration": 4, "velocity": 96}, {"time": 524, "pitch": 56, "duration": 3, "velocity": 47}, {"time": 536, "pitch": 49, "duration": 10, "velocity": 86}, {"time": 536, "pitch": 64, "duration": 14, "velocity": 86}, {"time": 536, "pitch": 68, "duration": 10, "velocity": 84}, {"time": 542, "pitch": 56, "duration": 5, "velocity": 54}, {"time": 548, "pitch": 63, "duration": 7, "velocity": 69}, {"time": 554, "pitch": 64, "duration": 8, "velocity": 82}, {"time": 566, "pitch": 71, "duration": 6, "velocity": 82}, {"time": 584, "pitch": 42, "duration": 35, "velocity": 91}, {"time": 584, "pitch": 61, "duration": 10, "velocity": 70}, {"time": 584, "pitch": 66, "duration": 10, "velocity": 82}, {"time": 584, "pitch": 70, "duration": 10, "velocity": 91}, {"time": 590, "pitch": 49, "duration": 31, "velocity": 63}, {"time": 596, "pitch": 54, "duration": 19, "velocity": 54}, {"time": 602, "pitch": 63, "duration": 2, "velocity": 77}, {"time": 602, "pitch": 71, "duration": 3, "velocity": 91}, {"time": 614, "pitch": 64, "duration": 2, "velocity": 72}, {"time": 614, "pitch": 73, "duration": 3, "velocity": 91}, {"time": 620, "pitch": 54, "duration": 9, "velocity": 51}, {"time": 626, "pitch": 66, "duration": 3, "velocity": 39}, {"time": 632, "pitch": 47, "duration": 29, "velocity": 74}, {"time": 632, "pitch": 66, "duration": 9, "velocity": 74}, {"time": 632, "pitch": 70, "duration": 8, "velocity": 76}, {"time": 632, "pitch": 75, "duration": 8, "velocity": 91}, {"time": 638, "pitch": 54, "duration": 26, "velocity": 81}, {"time": 644, "pitch": 59, "duration": 7, "velocity": 54}, {"time": 650, "pitch": 61, "duration": 4, "velocity": 78}, {"time": 650, "pitch": 66, "duration": 3, "velocity": 76}, {"time": 650, "pitch": 70, "duration": 6, "velocity": 92}, {"time": 656, "pitch": 59, "duration": 2, "velocity": 39}, {"time": 662, "pitch": 63, "duration": 3, "velocity": 47}, {"time": 662, "pitch": 68, "duration": 5, "velocity": 76}, {"time": 668, "pitch": 46, "duration": 11, "velocity": 82}, {"time": 668, "pitch": 63, "duration": 8, "velocity": 65}, {"time": 668, "pitch": 70, "duration": 6, "velocity": 72}, {"time": 674, "pitch": 71, "duration": 3, "velocity": 65}, {"time": 680, "pitch": 44, "duration": 36, "velocity": 74}, {"time": 680, "pitch": 63, "duration": 10, "velocity": 72}, {"time": 680, "pitch": 71, "duration": 14, "velocity": 77}, {"time": 686, "pitch": 51, "duration": 30, "velocity": 72}, {"time": 692, "pitch": 56, "duration": 7, "velocity": 54}, {"time": 698, "pitch": 61, "duration": 4, "velocity": 72}, {"time": 698, "pitch": 70, "duration": 4, "velocity": 92}, {"time": 704, "pitch": 56, "duration": 7, "velocity": 35}, {"time": 710, "pitch": 59, "duration": 8, "velocity": 76}, {"time": 710, "pitch": 66, "duration": 7, "velocity": 88}, {"time": 716, "pitch": 56, "duration": 4, "velocity": 57}, {"time": 728, "pitch": 49, "duration": 39, "velocity": 82}, {"time": 728, "pitch": 61, "duration": 8, "velocity": 76}, {"time": 728, "pitch": 64, "duration": 13, "velocity": 84}, {"time": 728, "pitch": 68, "duration": 9, "velocity": 79}, {"time": 728, "pitch": 71, "duration": 13, "velocity": 66}, {"time": 734, "pitch": 56, "duration": 15, "velocity": 54}, {"time": 740, "pitch": 61, "duration": 16, "velocity": 41}, {"time": 746, "pitch": 63, "duration": 9, "velocity": 78}, {"time": 746, "pitch": 68, "duration": 10, "velocity": 84}, {"time": 758, "pitch": 64, "duration": 4, "velocity": 84}, {"time": 758, "pitch": 68, "duration": 4, "velocity": 81}, {"time": 764, "pitch": 56, "duration": 2, "velocity": 81}, {"time": 776, "pitch": 39, "duration": 42, "velocity": 86}, {"time": 776, "pitch": 56, "duration": 9, "velocity": 68}, {"time": 776, "pitch": 58, "duration": 9, "velocity": 86}, {"time": 776, "pitch": 63, "duration": 8, "velocity": 94}, {"time": 782, "pitch": 51, "duration": 18, "velocity": 57}, {"time": 788, "pitch": 56, "duration": 5, "velocity": 60}, {"time": 794, "pitch": 58, "duration": 3, "velocity": 85}, {"time": 806, "pitch": 51, "duration": 13, "velocity": 62}, {"time": 812, "pitch": 63, "duration": 7, "velocity": 88}, {"time": 818, "pitch": 68, "duration": 5, "velocity": 74}, {"time": 824, "pitch": 39, "duration": 30, "velocity": 78}, {"time": 824, "pitch": 51, "duration": 31, "velocity": 65}, {"time": 824, "pitch": 63, "duration": 30, "velocity": 68}, {"time": 824, "pitch": 67, "duration": 31, "velocity": 54}, {"time": 824, "pitch": 70, "duration": 30, "velocity": 88}, {"time": 872, "pitch": 56, "duration": 38, "velocity": 72}, {"time": 872, "pitch": 63, "duration": 11, "velocity": 70}, {"time": 872, "pitch": 71, "duration": 20, "velocity": 80}, {"time": 884, "pitch": 59, "duration": 23, "velocity": 60}, {"time": 890, "pitch": 61, "duration": 18, "velocity": 72}, {"time": 890, "pitch": 70, "duration": 16, "velocity": 84}, {"time": 908, "pitch": 66, "duration": 11, "velocity": 75}, {"time": 920, "pitch": 49, "duration": 35, "velocity": 74}, {"time": 920, "pitch": 64, "duration": 16, "velocity": 74}, {"time": 920, "pitch": 68, "duration": 19, "velocity": 75}, {"time": 926, "pitch": 56, "duration": 32, "velocity": 52}, {"time": 932, "pitch": 61, "duration": 24, "velocity": 58}, {"time": 938, "pitch": 63, "duration": 14, "velocity": 59}, {"time": 950, "pitch": 64, "duration": 15, "velocity": 78}, {"time": 968, "pitch": 54, "duration": 34, "velocity": 67}, {"time": 968, "pitch": 66, "duration": 10, "velocity": 73}, {"time": 968, "pitch": 70, "duration": 11, "velocity": 77}, {"time": 974, "pitch": 58, "duration": 26, "velocity": 76}, {"time": 980, "pitch": 61, "duration": 8, "velocity": 58}, {"time": 986, "pitch": 66, "duration": 13, "velocity": 75}, {"time": 998, "pitch": 68, "duration": 8, "velocity": 73}, {"time": 1016, "pitch": 47, "duration": 35, "velocity": 78}, {"time": 1016, "pitch": 63, "duration": 12, "velocity": 57}, {"time": 1016, "pitch": 66, "duration": 2, "velocity": 53}, {"time": 1016, "pitch": 71, "duration": 12, "velocity": 67}, {"time": 1022, "pitch": 54, "duration": 29, "velocity": 55}, {"time": 1028, "pitch": 59, "duration": 21, "velocity": 56}, {"time": 1034, "pitch": 61, "duration": 13, "velocity": 67}, {"time": 1034, "pitch": 66, "duration": 14, "velocity": 61}, {"time": 1046, "pitch": 63, "duration": 7, "velocity": 78}, {"time": 1064, "pitch": 49, "duration": 36, "velocity": 82}, {"time": 1064, "pitch": 64, "duration": 12, "velocity": 76}, {"time": 1064, "pitch": 71, "duration": 22, "velocity": 80}, {"time": 1070, "pitch": 56, "duration": 31, "velocity": 53}, {"time": 1076, "pitch": 61, "duration": 23, "velocity": 59}, {"time": 1082, "pitch": 63, "duration": 14, "velocity": 68}, {"time": 1094, "pitch": 64, "duration": 8, "velocity": 80}, {"time": 1112, "pitch": 56, "duration": 34, "velocity": 73}, {"time": 1112, "pitch": 70, "duration": 10, "velocity": 84}, {"time": 1118, "pitch": 63, "duration": 17, "velocity": 57}, {"time": 1124, "pitch": 68, "duration": 15, "velocity": 53}, {"time": 1130, "pitch": 71, "duration": 14, "velocity": 79}, {"time": 1142, "pitch": 63, "duration": 5, "velocity": 62}, {"time": 1148, "pitch": 75, "duration": 9, "velocity": 76}, {"time": 1160, "pitch": 49, "duration": 24, "velocity": 76}, {"time": 1160, "pitch": 73, "duration": 7, "velocity": 82}, {"time": 1166, "pitch": 56, "duration": 18, "velocity": 59}, {"time": 1172, "pitch": 61, "duration": 11, "velocity": 61}, {"time": 1178, "pitch": 64, "duration": 6, "velocity": 71}, {"time": 1208, "pitch": 51, "duration": 46, "velocity": 79}, {"time": 1208, "pitch": 63, "duration": 8, "velocity": 68}, {"time": 1208, "pitch": 70, "duration": 11, "velocity": 79}, {"time": 1214, "pitch": 58, "duration": 14, "velocity": 70}, {"time": 1220, "pitch": 63, "duration": 11, "velocity": 38}, {"time": 1226, "pitch": 68, "duration": 7, "velocity": 69}, {"time": 1232, "pitch": 67, "duration": 22, "velocity": 79}, {"time": 1244, "pitch": 58, "duration": 9, "velocity": 68}, {"time": 1256, "pitch": 56, "duration": 36, "velocity": 62}, {"time": 1256, "pitch": 63, "duration": 16, "velocity": 61}, {"time": 1256, "pitch": 71, "duration": 14, "velocity": 76}, {"time": 1268, "pitch": 59, "duration": 13, "velocity": 63}, {"time": 1280, "pitch": 63, "duration": 8, "velocity": 73}, {"time": 1280, "pitch": 71, "duration": 9, "velocity": 82}, {"time": 1286, "pitch": 59, "duration": 4, "velocity": 73}, {"time": 1292, "pitch": 63, "duration": 4, "velocity": 68}, {"time": 1292, "pitch": 70, "duration": 6, "velocity": 83}, {"time": 1298, "pitch": 70, "duration": 2, "velocity": 46}, {"time": 1298, "pitch": 71, "duration": 9, "velocity": 60}, {"time": 1304, "pitch": 49, "duration": 36, "velocity": 72}, {"time": 1304, "pitch": 61, "duration": 13, "velocity": 73}, {"time": 1304, "pitch": 64, "duration": 12, "velocity": 75}, {"time": 1304, "pitch": 68, "duration": 15, "velocity": 79}, {"time": 1313, "pitch": 56, "duration": 16, "velocity": 40}, {"time": 1328, "pitch": 61, "duration": 13, "velocity": 75}, {"time": 1328, "pitch": 64, "duration": 11, "velocity": 83}, {"time": 1328, "pitch": 68, "duration": 13, "velocity": 78}, {"time": 1340, "pitch": 52, "duration": 1, "velocity": 61}, {"time": 1340, "pitch": 56, "duration": 2, "velocity": 73}, {"time": 1352, "pitch": 42, "duration": 36, "velocity": 80}, {"time": 1352, "pitch": 61, "duration": 14, "velocity": 68}, {"time": 1352, "pitch": 66, "duration": 14, "velocity": 78}, {"time": 1352, "pitch": 70, "duration": 13, "velocity": 75}, {"time": 1364, "pitch": 54, "duration": 14, "velocity": 6}, {"time": 1370, "pitch": 61, "duration": 4, "velocity": 35}, {"time": 1376, "pitch": 61, "duration": 13, "velocity": 56}, {"time": 1376, "pitch": 64, "duration": 11, "velocity": 81}, {"time": 1376, "pitch": 66, "duration": 11, "velocity": 77}, {"time": 1376, "pitch": 70, "duration": 11, "velocity": 77}, {"time": 1388, "pitch": 54, "duration": 3, "velocity": 53}, {"time": 1400, "pitch": 47, "duration": 39, "velocity": 82}, {"time": 1400, "pitch": 63, "duration": 13, "velocity": 73}, {"time": 1400, "pitch": 66, "duration": 13, "velocity": 74}, {"time": 1400, "pitch": 70, "duration": 11, "velocity": 75}, {"time": 1412, "pitch": 59, "duration": 19, "velocity": 44}, {"time": 1418, "pitch": 61, "duration": 9, "velocity": 68}, {"time": 1424, "pitch": 63, "duration": 5, "velocity": 75}, {"time": 1430, "pitch": 61, "duration": 1, "velocity": 44}, {"time": 1430, "pitch": 63, "duration": 2, "velocity": 19}, {"time": 1430, "pitch": 66, "duration": 9, "velocity": 80}, {"time": 1436, "pitch": 59, "duration": 3, "velocity": 51}, {"time": 1448, "pitch": 49, "duration": 38, "velocity": 76}, {"time": 1448, "pitch": 56, "duration": 9, "velocity": 72}, {"time": 1448, "pitch": 59, "duration": 15, "velocity": 74}, {"time": 1448, "pitch": 64, "duration": 17, "velocity": 79}, {"time": 1448, "pitch": 68, "duration": 14, "velocity": 77}, {"time": 1460, "pitch": 56, "duration": 12, "velocity": 61}, {"time": 1466, "pitch": 59, "duration": 8, "velocity": 61}, {"time": 1472, "pitch": 64, "duration": 7, "velocity": 82}, {"time": 1478, "pitch": 68, "duration": 9, "velocity": 79}, {"time": 1484, "pitch": 56, "duration": 3, "velocity": 68}, {"time": 1484, "pitch": 70, "duration": 3, "velocity": 80}, {"time": 1490, "pitch": 71, "duration": 1, "velocity": 63}, {"time": 1490, "pitch": 73, "duration": 2, "velocity": 59}, {"time": 1496, "pitch": 44, "duration": 35, "velocity": 79}, {"time": 1496, "pitch": 63, "duration": 12, "velocity": 72}, {"time": 1496, "pitch": 71, "duration": 10, "velocity": 84}, {"time": 1502, "pitch": 51, "duration": 30, "velocity": 72}, {"time": 1508, "pitch": 56, "duration": 7, "velocity": 53}, {"time": 1514, "pitch": 61, "duration": 3, "velocity": 77}, {"time": 1514, "pitch": 70, "duration": 3, "velocity": 84}, {"time": 1517, "pitch": 56, "duration": 8, "velocity": 16}, {"time": 1526, "pitch": 59, "duration": 4, "velocity": 75}, {"time": 1526, "pitch": 68, "duration": 4, "velocity": 80}, {"time": 1532, "pitch": 56, "duration": 4, "velocity": 49}, {"time": 1544, "pitch": 40, "duration": 14, "velocity": 72}, {"time": 1544, "pitch": 59, "duration": 7, "velocity": 83}, {"time": 1544, "pitch": 64, "duration": 9, "velocity": 82}, {"time": 1544, "pitch": 68, "duration": 9, "velocity": 77}, {"time": 1550, "pitch": 52, "duration": 8, "velocity": 61}, {"time": 1556, "pitch": 59, "duration": 6, "velocity": 73}, {"time": 1562, "pitch": 64, "duration": 4, "velocity": 76}, {"time": 1568, "pitch": 42, "duration": 14, "velocity": 72}, {"time": 1568, "pitch": 54, "duration": 16, "velocity": 48}, {"time": 1568, "pitch": 61, "duration": 14, "velocity": 80}, {"time": 1568, "pitch": 66, "duration": 14, "velocity": 80}, {"time": 1568, "pitch": 70, "duration": 14, "velocity": 82}, {"time": 1592, "pitch": 44, "duration": 41, "velocity": 40}, {"time": 1592, "pitch": 63, "duration": 20, "velocity": 75}, {"time": 1592, "pitch": 71, "duration": 27, "velocity": 82}, {"time": 1604, "pitch": 51, "duration": 31, "velocity": 19}, {"time": 1610, "pitch": 56, "duration": 21, "velocity": 38}, {"time": 1616, "pitch": 63, "duration": 7, "velocity": 71}, {"time": 1622, "pitch": 68, "duration": 5, "velocity": 75}, {"time": 1628, "pitch": 70, "duration": 7, "velocity": 83}, {"time": 1634, "pitch": 71, "duration": 3, "velocity": 82}, {"time": 1640, "pitch": 44, "duration": 39, "velocity": 79}, {"time": 1640, "pitch": 56, "duration": 30, "velocity": 60}, {"time": 1640, "pitch": 63, "duration": 16, "velocity": 77}, {"time": 1640, "pitch": 68, "duration": 18, "velocity": 78}, {"time": 1640, "pitch": 71, "duration": 17, "velocity": 83}, {"time": 1664, "pitch": 63, "duration": 12, "velocity": 78}, {"time": 1664, "pitch": 68, "duration": 12, "velocity": 79}, {"time": 1664, "pitch": 71, "duration": 11, "velocity": 83}, {"time": 1676, "pitch": 56, "duration": 4, "velocity": 69}, {"time": 1688, "pitch": 42, "duration": 40, "velocity": 83}, {"time": 1688, "pitch": 54, "duration": 31, "velocity": 70}, {"time": 1688, "pitch": 61, "duration": 16, "velocity": 76}, {"time": 1688, "pitch": 66, "duration": 16, "velocity": 78}, {"time": 1688, "pitch": 70, "duration": 17, "velocity": 82}, {"time": 1712, "pitch": 61, "duration": 13, "velocity": 76}, {"time": 1712, "pitch": 66, "duration": 11, "velocity": 76}, {"time": 1712, "pitch": 70, "duration": 12, "velocity": 82}, {"time": 1724, "pitch": 54, "duration": 3, "velocity": 74}, {"time": 1736, "pitch": 40, "duration": 14, "velocity": 72}, {"time": 1736, "pitch": 52, "duration": 14, "velocity": 58}, {"time": 1736, "pitch": 59, "duration": 12, "velocity": 46}, {"time": 1736, "pitch": 64, "duration": 12, "velocity": 79}, {"time": 1736, "pitch": 68, "duration": 14, "velocity": 72}, {"time": 1736, "pitch": 71, "duration": 13, "velocity": 69}, {"time": 1760, "pitch": 59, "duration": 8, "velocity": 75}, {"time": 1760, "pitch": 64, "duration": 7, "velocity": 42}, {"time": 1760, "pitch": 68, "duration": 8, "velocity": 58}, {"time": 1766, "pitch": 40, "duration": 3, "velocity": 79}, {"time": 1766, "pitch": 52, "duration": 6, "velocity": 71}, {"time": 1772, "pitch": 59, "duration": 4, "velocity": 72}, {"time": 1778, "pitch": 66, "duration": 5, "velocity": 79}, {"time": 1784, "pitch": 47, "duration": 38, "velocity": 78}, {"time": 1784, "pitch": 63, "duration": 16, "velocity": 79}, {"time": 1784, "pitch": 66, "duration": 16, "velocity": 52}, {"time": 1784, "pitch": 71, "duration": 17, "velocity": 80}, {"time": 1796, "pitch": 54, "duration": 28, "velocity": 35}, {"time": 1808, "pitch": 59, "duration": 13, "velocity": 59}, {"time": 1808, "pitch": 61, "duration": 7, "velocity": 76}, {"time": 1808, "pitch": 66, "duration": 6, "velocity": 83}, {"time": 1814, "pitch": 63, "duration": 4, "velocity": 76}, {"time": 1820, "pitch": 66, "duration": 5, "velocity": 76}, {"time": 1826, "pitch": 71, "duration": 8, "velocity": 77}, {"time": 1832, "pitch": 49, "duration": 38, "velocity": 78}, {"time": 1832, "pitch": 64, "duration": 14, "velocity": 83}, {"time": 1832, "pitch": 68, "duration": 14, "velocity": 78}, {"time": 1844, "pitch": 56, "duration": 12, "velocity": 9}, {"time": 1856, "pitch": 61, "duration": 8, "velocity": 76}, {"time": 1856, "pitch": 64, "duration": 10, "velocity": 82}, {"time": 1856, "pitch": 68, "duration": 12, "velocity": 78}, {"time": 1868, "pitch": 56, "duration": 3, "velocity": 73}, {"time": 1880, "pitch": 44, "duration": 34, "velocity": 79}, {"time": 1880, "pitch": 63, "duration": 13, "velocity": 76}, {"time": 1880, "pitch": 66, "duration": 12, "velocity": 82}, {"time": 1880, "pitch": 71, "duration": 19, "velocity": 81}, {"time": 1892, "pitch": 51, "duration": 24, "velocity": 69}, {"time": 1898, "pitch": 56, "duration": 15, "velocity": 59}, {"time": 1904, "pitch": 63, "duration": 8, "velocity": 73}, {"time": 1904, "pitch": 71, "duration": 4, "velocity": 77}, {"time": 1910, "pitch": 68, "duration": 5, "velocity": 76}, {"time": 1916, "pitch": 70, "duration": 6, "velocity": 83}, {"time": 1922, "pitch": 71, "duration": 20, "velocity": 82}, {"time": 1928, "pitch": 40, "duration": 15, "velocity": 78}, {"time": 1928, "pitch": 52, "duration": 15, "velocity": 53}, {"time": 1928, "pitch": 59, "duration": 11, "velocity": 78}, {"time": 1928, "pitch": 64, "duration": 18, "velocity": 55}, {"time": 1928, "pitch": 68, "duration": 18, "velocity": 81}, {"time": 1952, "pitch": 61, "duration": 3, "velocity": 57}, {"time": 1955, "pitch": 68, "duration": 3, "velocity": 56}, {"time": 1964, "pitch": 64, "duration": 5, "velocity": 80}, {"time": 1970, "pitch": 68, "duration": 4, "velocity": 76}, {"time": 1976, "pitch": 40, "duration": 38, "velocity": 78}, {"time": 1976, "pitch": 68, "duration": 10, "velocity": 70}, {"time": 1976, "pitch": 76, "duration": 8, "velocity": 80}, {"time": 1982, "pitch": 47, "duration": 33, "velocity": 71}, {"time": 1988, "pitch": 52, "duration": 30, "velocity": 58}, {"time": 1997, "pitch": 59, "duration": 8, "velocity": 54}, {"time": 2000, "pitch": 64, "duration": 7, "velocity": 86}, {"time": 2006, "pitch": 68, "duration": 7, "velocity": 78}, {"time": 2012, "pitch": 71, "duration": 12, "velocity": 84}, {"time": 2024, "pitch": 42, "duration": 10, "velocity": 78}, {"time": 2024, "pitch": 61, "duration": 25, "velocity": 72}, {"time": 2024, "pitch": 66, "duration": 22, "velocity": 79}, {"time": 2024, "pitch": 70, "duration": 25, "velocity": 84}, {"time": 2030, "pitch": 49, "duration": 5, "velocity": 75}, {"time": 2036, "pitch": 54, "duration": 7, "velocity": 60}, {"time": 2042, "pitch": 56, "duration": 12, "velocity": 63}, {"time": 2048, "pitch": 58, "duration": 6, "velocity": 82}, {"time": 2054, "pitch": 61, "duration": 5, "velocity": 69}, {"time": 2060, "pitch": 66, "duration": 7, "velocity": 77}, {"time": 2066, "pitch": 68, "duration": 5, "velocity": 75}, {"time": 2072, "pitch": 42, "duration": 39, "velocity": 82}, {"time": 2072, "pitch": 61, "duration": 12, "velocity": 75}, {"time": 2072, "pitch": 66, "duration": 11, "velocity": 61}, {"time": 2072, "pitch": 70, "duration": 12, "velocity": 90}, {"time": 2084, "pitch": 54, "duration": 18, "velocity": 57}, {"time": 2090, "pitch": 61, "duration": 3, "velocity": 44}, {"time": 2096, "pitch": 61, "duration": 13, "velocity": 79}, {"time": 2096, "pitch": 66, "duration": 13, "velocity": 77}, {"time": 2096, "pitch": 73, "duration": 15, "velocity": 83}, {"time": 2108, "pitch": 54, "duration": 3, "velocity": 74}, {"time": 2120, "pitch": 47, "duration": 10, "velocity": 79}, {"time": 2120, "pitch": 66, "duration": 3, "velocity": 58}, {"time": 2120, "pitch": 75, "duration": 26, "velocity": 73}, {"time": 2126, "pitch": 54, "duration": 6, "velocity": 69}, {"time": 2132, "pitch": 59, "duration": 8, "velocity": 42}, {"time": 2138, "pitch": 61, "duration": 13, "velocity": 72}, {"time": 2144, "pitch": 63, "duration": 7, "velocity": 79}, {"time": 2150, "pitch": 66, "duration": 4, "velocity": 72}, {"time": 2156, "pitch": 71, "duration": 5, "velocity": 83}, {"time": 2162, "pitch": 75, "duration": 7, "velocity": 76}, {"time": 2168, "pitch": 46, "duration": 40, "velocity": 84}, {"time": 2168, "pitch": 73, "duration": 10, "velocity": 83}, {"time": 2174, "pitch": 54, "duration": 26, "velocity": 68}, {"time": 2180, "pitch": 58, "duration": 16, "velocity": 73}, {"time": 2186, "pitch": 61, "duration": 7, "velocity": 80}, {"time": 2192, "pitch": 66, "duration": 7, "velocity": 84}, {"time": 2198, "pitch": 68, "duration": 5, "velocity": 78}, {"time": 2204, "pitch": 54, "duration": 4, "velocity": 79}, {"time": 2204, "pitch": 70, "duration": 13, "velocity": 84}, {"time": 2210, "pitch": 73, "duration": 3, "velocity": 79}, {"time": 2216, "pitch": 44, "duration": 11, "velocity": 83}, {"time": 2216, "pitch": 63, "duration": 7, "velocity": 75}, {"time": 2216, "pitch": 66, "duration": 6, "velocity": 73}, {"time": 2216, "pitch": 71, "duration": 9, "velocity": 91}, {"time": 2222, "pitch": 51, "duration": 7, "velocity": 76}, {"time": 2228, "pitch": 56, "duration": 9, "velocity": 70}, {"time": 2228, "pitch": 61, "duration": 2, "velocity": 69}, {"time": 2228, "pitch": 70, "duration": 5, "velocity": 83}, {"time": 2234, "pitch": 58, "duration": 9, "velocity": 76}, {"time": 2234, "pitch": 63, "duration": 7, "velocity": 81}, {"time": 2234, "pitch": 71, "duration": 10, "velocity": 84}, {"time": 2240, "pitch": 59, "duration": 8, "velocity": 76}, {"time": 2246, "pitch": 58, "duration": 4, "velocity": 69}, {"time": 2246, "pitch": 61, "duration": 7, "velocity": 81}, {"time": 2246, "pitch": 70, "duration": 12, "velocity": 83}, {"time": 2252, "pitch": 56, "duration": 6, "velocity": 43}, {"time": 2258, "pitch": 68, "duration": 5, "velocity": 80}, {"time": 2264, "pitch": 42, "duration": 38, "velocity": 82}, {"time": 2264, "pitch": 61, "duration": 13, "velocity": 75}, {"time": 2264, "pitch": 66, "duration": 13, "velocity": 79}, {"time": 2270, "pitch": 51, "duration": 25, "velocity": 73}, {"time": 2276, "pitch": 54, "duration": 10, "velocity": 68}, {"time": 2282, "pitch": 61, "duration": 9, "velocity": 76}, {"time": 2288, "pitch": 54, "duration": 6, "velocity": 72}, {"time": 2294, "pitch": 61, "duration": 7, "velocity": 80}, {"time": 2294, "pitch": 70, "duration": 9, "velocity": 95}, {"time": 2300, "pitch": 51, "duration": 3, "velocity": 80}, {"time": 2300, "pitch": 54, "duration": 3, "velocity": 61}, {"time": 2306, "pitch": 66, "duration": 5, "velocity": 79}, {"time": 2312, "pitch": 40, "duration": 40, "velocity": 83}, {"time": 2312, "pitch": 59, "duration": 14, "velocity": 76}, {"time": 2312, "pitch": 64, "duration": 11, "velocity": 79}, {"time": 2312, "pitch": 68, "duration": 12, "velocity": 82}, {"time": 2318, "pitch": 47, "duration": 34, "velocity": 82}, {"time": 2324, "pitch": 52, "duration": 12, "velocity": 72}, {"time": 2330, "pitch": 59, "duration": 9, "velocity": 78}, {"time": 2339, "pitch": 52, "duration": 5, "velocity": 73}, {"time": 2342, "pitch": 59, "duration": 9, "velocity": 86}, {"time": 2342, "pitch": 64, "duration": 9, "velocity": 93}, {"time": 2348, "pitch": 52, "duration": 3, "velocity": 73}, {"time": 2354, "pitch": 66, "duration": 4, "velocity": 79}, {"time": 2360, "pitch": 39, "duration": 12, "velocity": 82}, {"time": 2360, "pitch": 61, "duration": 26, "velocity": 83}, {"time": 2360, "pitch": 66, "duration": 25, "velocity": 80}, {"time": 2360, "pitch": 70, "duration": 24, "velocity": 90}, {"time": 2366, "pitch": 46, "duration": 6, "velocity": 73}, {"time": 2372, "pitch": 49, "duration": 7, "velocity": 75}, {"time": 2378, "pitch": 51, "duration": 20, "velocity": 78}, {"time": 2384, "pitch": 54, "duration": 13, "velocity": 76}, {"time": 2390, "pitch": 61, "duration": 7, "velocity": 82}, {"time": 2396, "pitch": 66, "duration": 5, "velocity": 83}, {"time": 2408, "pitch": 37, "duration": 5, "velocity": 84}, {"time": 2408, "pitch": 64, "duration": 20, "velocity": 81}, {"time": 2408, "pitch": 68, "duration": 19, "velocity": 80}, {"time": 2414, "pitch": 49, "duration": 8, "velocity": 71}, {"time": 2420, "pitch": 52, "duration": 21, "velocity": 80}, {"time": 2426, "pitch": 56, "duration": 14, "velocity": 73}, {"time": 2432, "pitch": 59, "duration": 7, "velocity": 83}, {"time": 2438, "pitch": 64, "duration": 4, "velocity": 83}, {"time": 2444, "pitch": 66, "duration": 4, "velocity": 76}, {"time": 2450, "pitch": 71, "duration": 3, "velocity": 90}, {"time": 2456, "pitch": 42, "duration": 19, "velocity": 83}, {"time": 2456, "pitch": 70, "duration": 11, "velocity": 86}, {"time": 2462, "pitch": 49, "duration": 18, "velocity": 79}, {"time": 2468, "pitch": 54, "duration": 7, "velocity": 78}, {"time": 2474, "pitch": 59, "duration": 8, "velocity": 83}, {"time": 2474, "pitch": 64, "duration": 8, "velocity": 84}, {"time": 2474, "pitch": 68, "duration": 9, "velocity": 83}, {"time": 2480, "pitch": 42, "duration": 9, "velocity": 80}, {"time": 2486, "pitch": 59, "duration": 7, "velocity": 84}, {"time": 2486, "pitch": 64, "duration": 15, "velocity": 84}, {"time": 2486, "pitch": 71, "duration": 15, "velocity": 91}, {"time": 2492, "pitch": 44, "duration": 7, "velocity": 76}, {"time": 2498, "pitch": 46, "duration": 2, "velocity": 84}, {"time": 2504, "pitch": 47, "duration": 38, "velocity": 90}, {"time": 2507, "pitch": 70, "duration": 1, "velocity": 56}, {"time": 2510, "pitch": 54, "duration": 25, "velocity": 75}, {"time": 2516, "pitch": 59, "duration": 11, "velocity": 68}, {"time": 2522, "pitch": 63, "duration": 3, "velocity": 80}, {"time": 2522, "pitch": 71, "duration": 3, "velocity": 86}, {"time": 2528, "pitch": 63, "duration": 4, "velocity": 81}, {"time": 2528, "pitch": 71, "duration": 5, "velocity": 95}, {"time": 2531, "pitch": 59, "duration": 6, "velocity": 59}, {"time": 2537, "pitch": 64, "duration": 4, "velocity": 79}, {"time": 2537, "pitch": 73, "duration": 5, "velocity": 86}, {"time": 2540, "pitch": 54, "duration": 9, "velocity": 70}, {"time": 2546, "pitch": 66, "duration": 4, "velocity": 74}, {"time": 2546, "pitch": 75, "duration": 4, "velocity": 81}, {"time": 2552, "pitch": 51, "duration": 38, "velocity": 82}, {"time": 2552, "pitch": 64, "duration": 12, "velocity": 82}, {"time": 2552, "pitch": 73, "duration": 9, "velocity": 91}, {"time": 2558, "pitch": 54, "duration": 22, "velocity": 63}, {"time": 2564, "pitch": 58, "duration": 23, "velocity": 71}, {"time": 2570, "pitch": 61, "duration": 7, "velocity": 63}, {"time": 2570, "pitch": 63, "duration": 1, "velocity": 59}, {"time": 2576, "pitch": 66, "duration": 4, "velocity": 82}, {"time": 2582, "pitch": 66, "duration": 1, "velocity": 33}, {"time": 2582, "pitch": 68, "duration": 5, "velocity": 79}, {"time": 2588, "pitch": 54, "duration": 3, "velocity": 78}, {"time": 2588, "pitch": 70, "duration": 5, "velocity": 81}, {"time": 2594, "pitch": 73, "duration": 3, "velocity": 80}, {"time": 2600, "pitch": 44, "duration": 39, "velocity": 74}, {"time": 2600, "pitch": 63, "duration": 8, "velocity": 79}, {"time": 2600, "pitch": 66, "duration": 1, "velocity": 56}, {"time": 2600, "pitch": 71, "duration": 10, "velocity": 86}, {"time": 2606, "pitch": 51, "duration": 20, "velocity": 53}, {"time": 2612, "pitch": 61, "duration": 2, "velocity": 69}, {"time": 2612, "pitch": 70, "duration": 4, "velocity": 82}, {"time": 2618, "pitch": 56, "duration": 14, "velocity": 47}, {"time": 2618, "pitch": 63, "duration": 2, "velocity": 80}, {"time": 2618, "pitch": 71, "duration": 3, "velocity": 90}, {"time": 2630, "pitch": 64, "duration": 2, "velocity": 84}, {"time": 2630, "pitch": 73, "duration": 2, "velocity": 90}, {"time": 2636, "pitch": 51, "duration": 10, "velocity": 79}, {"time": 2642, "pitch": 66, "duration": 9, "velocity": 77}, {"time": 2642, "pitch": 75, "duration": 8, "velocity": 84}, {"time": 2648, "pitch": 42, "duration": 16, "velocity": 80}, {"time": 2654, "pitch": 51, "duration": 11, "velocity": 75}, {"time": 2660, "pitch": 54, "duration": 4, "velocity": 71}, {"time": 2666, "pitch": 58, "duration": 3, "velocity": 55}, {"time": 2672, "pitch": 41, "duration": 11, "velocity": 67}, {"time": 2672, "pitch": 53, "duration": 9, "velocity": 53}, {"time": 2672, "pitch": 60, "duration": 7, "velocity": 51}, {"time": 2672, "pitch": 65, "duration": 5, "velocity": 48}, {"time": 2672, "pitch": 69, "duration": 9, "velocity": 63}, {"time": 2690, "pitch": 64, "duration": 5, "velocity": 76}, {"time": 2696, "pitch": 40, "duration": 41, "velocity": 82}, {"time": 2696, "pitch": 59, "duration": 11, "velocity": 76}, {"time": 2696, "pitch": 64, "duration": 12, "velocity": 57}, {"time": 2696, "pitch": 68, "duration": 11, "velocity": 82}, {"time": 2702, "pitch": 47, "duration": 27, "velocity": 79}, {"time": 2708, "pitch": 52, "duration": 13, "velocity": 69}, {"time": 2714, "pitch": 59, "duration": 4, "velocity": 80}, {"time": 2720, "pitch": 59, "duration": 8, "velocity": 84}, {"time": 2720, "pitch": 64, "duration": 9, "velocity": 84}, {"time": 2720, "pitch": 68, "duration": 8, "velocity": 83}, {"time": 2726, "pitch": 52, "duration": 8, "velocity": 63}, {"time": 2732, "pitch": 59, "duration": 6, "velocity": 81}, {"time": 2738, "pitch": 47, "duration": 3, "velocity": 84}, {"time": 2738, "pitch": 66, "duration": 4, "velocity": 79}, {"time": 2744, "pitch": 39, "duration": 6, "velocity": 60}, {"time": 2744, "pitch": 61, "duration": 20, "velocity": 72}, {"time": 2744, "pitch": 66, "duration": 20, "velocity": 80}, {"time": 2744, "pitch": 70, "duration": 22, "velocity": 80}, {"time": 2750, "pitch": 51, "duration": 7, "velocity": 72}, {"time": 2756, "pitch": 54, "duration": 25, "velocity": 71}, {"time": 2762, "pitch": 58, "duration": 19, "velocity": 84}, {"time": 2768, "pitch": 61, "duration": 14, "velocity": 80}, {"time": 2774, "pitch": 66, "duration": 12, "velocity": 82}, {"time": 2780, "pitch": 70, "duration": 9, "velocity": 90}, {"time": 2786, "pitch": 73, "duration": 7, "velocity": 84}, {"time": 2792, "pitch": 49, "duration": 37, "velocity": 80}, {"time": 2792, "pitch": 64, "duration": 13, "velocity": 84}, {"time": 2792, "pitch": 68, "duration": 12, "velocity": 79}, {"time": 2798, "pitch": 56, "duration": 31, "velocity": 56}, {"time": 2804, "pitch": 61, "duration": 14, "velocity": 68}, {"time": 2810, "pitch": 63, "duration": 7, "velocity": 82}, {"time": 2816, "pitch": 64, "duration": 2, "velocity": 86}, {"time": 2822, "pitch": 61, "duration": 5, "velocity": 79}, {"time": 2828, "pitch": 68, "duration": 6, "velocity": 48}, {"time": 2834, "pitch": 75, "duration": 5, "velocity": 80}, {"time": 2840, "pitch": 42, "duration": 10, "velocity": 59}, {"time": 2840, "pitch": 71, "duration": 21, "velocity": 68}, {"time": 2840, "pitch": 76, "duration": 21, "velocity": 93}, {"time": 2846, "pitch": 49, "duration": 6, "velocity": 72}, {"time": 2852, "pitch": 54, "duration": 8, "velocity": 59}, {"time": 2858, "pitch": 56, "duration": 19, "velocity": 76}, {"time": 2864, "pitch": 59, "duration": 11, "velocity": 79}, {"time": 2876, "pitch": 64, "duration": 5, "velocity": 83}, {"time": 2882, "pitch": 66, "duration": 4, "velocity": 78}, {"time": 2888, "pitch": 47, "duration": 43, "velocity": 82}, {"time": 2888, "pitch": 63, "duration": 14, "velocity": 78}, {"time": 2888, "pitch": 66, "duration": 13, "velocity": 69}, {"time": 2888, "pitch": 71, "duration": 17, "velocity": 82}, {"time": 2900, "pitch": 54, "duration": 62, "velocity": 52}, {"time": 2915, "pitch": 64, "duration": 1, "velocity": 50}, {"time": 2915, "pitch": 68, "duration": 2, "velocity": 60}, {"time": 2918, "pitch": 64, "duration": 11, "velocity": 86}, {"time": 2918, "pitch": 68, "duration": 15, "velocity": 83}, {"time": 2930, "pitch": 59, "duration": 32, "velocity": 40}, {"time": 2936, "pitch": 47, "duration": 28, "velocity": 82}, {"time": 2936, "pitch": 63, "duration": 26, "velocity": 78}, {"time": 2936, "pitch": 66, "duration": 25, "velocity": 80}, {"time": 2984, "pitch": 52, "duration": 40, "velocity": 74}, {"time": 2984, "pitch": 68, "duration": 13, "velocity": 58}, {"time": 2984, "pitch": 71, "duration": 12, "velocity": 70}, {"time": 2984, "pitch": 75, "duration": 15, "velocity": 74}, {"time": 2996, "pitch": 59, "duration": 28, "velocity": 43}, {"time": 3008, "pitch": 63, "duration": 14, "velocity": 50}, {"time": 3008, "pitch": 68, "duration": 14, "velocity": 58}, {"time": 3008, "pitch": 71, "duration": 14, "velocity": 72}, {"time": 3032, "pitch": 51, "duration": 40, "velocity": 80}, {"time": 3032, "pitch": 66, "duration": 12, "velocity": 56}, {"time": 3032, "pitch": 70, "duration": 11, "velocity": 78}, {"time": 3032, "pitch": 73, "duration": 17, "velocity": 79}, {"time": 3044, "pitch": 58, "duration": 26, "velocity": 45}, {"time": 3050, "pitch": 66, "duration": 12, "velocity": 55}, {"time": 3056, "pitch": 78, "duration": 10, "velocity": 71}, {"time": 3062, "pitch": 61, "duration": 7, "velocity": 69}, {"time": 3068, "pitch": 73, "duration": 6, "velocity": 80}, {"time": 3074, "pitch": 75, "duration": 5, "velocity": 72}, {"time": 3080, "pitch": 49, "duration": 36, "velocity": 75}, {"time": 3080, "pitch": 66, "duration": 9, "velocity": 59}, {"time": 3080, "pitch": 71, "duration": 10, "velocity": 75}, {"time": 3092, "pitch": 56, "duration": 23, "velocity": 45}, {"time": 3104, "pitch": 61, "duration": 8, "velocity": 50}, {"time": 3128, "pitch": 47, "duration": 36, "velocity": 76}, {"time": 3128, "pitch": 66, "duration": 10, "velocity": 59}, {"time": 3128, "pitch": 73, "duration": 9, "velocity": 78}, {"time": 3140, "pitch": 54, "duration": 13, "velocity": 36}, {"time": 3152, "pitch": 59, "duration": 8, "velocity": 47}, {"time": 3152, "pitch": 63, "duration": 11, "velocity": 75}, {"time": 3152, "pitch": 71, "duration": 10, "velocity": 86}, {"time": 3164, "pitch": 54, "duration": 2, "velocity": 83}, {"time": 3176, "pitch": 45, "duration": 44, "velocity": 84}, {"time": 3176, "pitch": 61, "duration": 14, "velocity": 76}, {"time": 3176, "pitch": 64, "duration": 13, "velocity": 82}, {"time": 3176, "pitch": 69, "duration": 13, "velocity": 83}, {"time": 3188, "pitch": 52, "duration": 73, "velocity": 73}, {"time": 3194, "pitch": 57, "duration": 14, "velocity": 76}, {"time": 3200, "pitch": 59, "duration": 8, "velocity": 62}, {"time": 3206, "pitch": 64, "duration": 9, "velocity": 84}, {"time": 3212, "pitch": 57, "duration": 9, "velocity": 39}, {"time": 3218, "pitch": 59, "duration": 2, "velocity": 76}, {"time": 3218, "pitch": 64, "duration": 2, "velocity": 72}, {"time": 3218, "pitch": 66, "duration": 10, "velocity": 86}, {"time": 3224, "pitch": 45, "duration": 40, "velocity": 76}, {"time": 3230, "pitch": 61, "duration": 3, "velocity": 83}, {"time": 3230, "pitch": 64, "duration": 2, "velocity": 63}, {"time": 3230, "pitch": 69, "duration": 3, "velocity": 94}, {"time": 3242, "pitch": 57, "duration": 7, "velocity": 73}, {"time": 3248, "pitch": 59, "duration": 8, "velocity": 80}, {"time": 3248, "pitch": 64, "duration": 7, "velocity": 79}, {"time": 3248, "pitch": 68, "duration": 10, "velocity": 83}, {"time": 3254, "pitch": 57, "duration": 5, "velocity": 75}, {"time": 3260, "pitch": 66, "duration": 8, "velocity": 79}, {"time": 3266, "pitch": 68, "duration": 5, "velocity": 76}, {"time": 3272, "pitch": 42, "duration": 62, "velocity": 75}, {"time": 3272, "pitch": 59, "duration": 15, "velocity": 79}, {"time": 3272, "pitch": 64, "duration": 14, "velocity": 80}, {"time": 3272, "pitch": 71, "duration": 15, "velocity": 82}, {"time": 3278, "pitch": 49, "duration": 53, "velocity": 71}, {"time": 3284, "pitch": 54, "duration": 48, "velocity": 68}, {"time": 3290, "pitch": 59, "duration": 7, "velocity": 75}, {"time": 3296, "pitch": 64, "duration": 6, "velocity": 80}, {"time": 3302, "pitch": 66, "duration": 6, "velocity": 75}, {"time": 3308, "pitch": 71, "duration": 2, "velocity": 75}, {"time": 3314, "pitch": 73, "duration": 8, "velocity": 61}, {"time": 3320, "pitch": 78, "duration": 12, "velocity": 80}, {"time": 3368, "pitch": 56, "duration": 38, "velocity": 72}, {"time": 3368, "pitch": 63, "duration": 11, "velocity": 70}, {"time": 3368, "pitch": 71, "duration": 20, "velocity": 80}, {"time": 3380, "pitch": 59, "duration": 23, "velocity": 60}, {"time": 3386, "pitch": 61, "duration": 18, "velocity": 72}, {"time": 3386, "pitch": 70, "duration": 16, "velocity": 84}, {"time": 3404, "pitch": 66, "duration": 11, "velocity": 75}, {"time": 3416, "pitch": 49, "duration": 35, "velocity": 74}, {"time": 3416, "pitch": 64, "duration": 16, "velocity": 74}, {"time": 3416, "pitch": 68, "duration": 19, "velocity": 75}, {"time": 3422, "pitch": 56, "duration": 32, "velocity": 52}, {"time": 3428, "pitch": 61, "duration": 24, "velocity": 58}, {"time": 3434, "pitch": 63, "duration": 14, "velocity": 59}, {"time": 3446, "pitch": 64, "duration": 15, "velocity": 78}, {"time": 3464, "pitch": 54, "duration": 34, "velocity": 67}, {"time": 3464, "pitch": 66, "duration": 10, "velocity": 73}, {"time": 3464, "pitch": 70, "duration": 11, "velocity": 77}, {"time": 3470, "pitch": 58, "duration": 26, "velocity": 76}, {"time": 3476, "pitch": 61, "duration": 8, "velocity": 58}, {"time": 3482, "pitch": 66, "duration": 13, "velocity": 75}, {"time": 3494, "pitch": 68, "duration": 8, "velocity": 73}, {"time": 3512, "pitch": 47, "duration": 35, "velocity": 78}, {"time": 3512, "pitch": 63, "duration": 12, "velocity": 57}, {"time": 3512, "pitch": 66, "duration": 2, "velocity": 53}, {"time": 3512, "pitch": 71, "duration": 12, "velocity": 67}, {"time": 3518, "pitch": 54, "duration": 29, "velocity": 55}, {"time": 3524, "pitch": 59, "duration": 21, "velocity": 56}, {"time": 3530, "pitch": 61, "duration": 13, "velocity": 67}, {"time": 3530, "pitch": 66, "duration": 14, "velocity": 61}, {"time": 3542, "pitch": 63, "duration": 7, "velocity": 78}, {"time": 3560, "pitch": 49, "duration": 36, "velocity": 82}, {"time": 3560, "pitch": 64, "duration": 12, "velocity": 76}, {"time": 3560, "pitch": 71, "duration": 22, "velocity": 80}, {"time": 3566, "pitch": 56, "duration": 31, "velocity": 53}, {"time": 3572, "pitch": 61, "duration": 23, "velocity": 59}, {"time": 3578, "pitch": 63, "duration": 14, "velocity": 68}, {"time": 3590, "pitch": 64, "duration": 8, "velocity": 80}, {"time": 3608, "pitch": 56, "duration": 34, "velocity": 73}, {"time": 3608, "pitch": 70, "duration": 10, "velocity": 84}, {"time": 3614, "pitch": 63, "duration": 17, "velocity": 57}, {"time": 3620, "pitch": 68, "duration": 15, "velocity": 53}, {"time": 3626, "pitch": 71, "duration": 14, "velocity": 79}, {"time": 3638, "pitch": 63, "duration": 5, "velocity": 62}, {"time": 3644, "pitch": 75, "duration": 9, "velocity": 76}, {"time": 3656, "pitch": 52, "duration": 37, "velocity": 79}, {"time": 3656, "pitch": 64, "duration": 8, "velocity": 81}, {"time": 3656, "pitch": 68, "duration": 10, "velocity": 79}, {"time": 3662, "pitch": 59, "duration": 31, "velocity": 71}, {"time": 3668, "pitch": 64, "duration": 23, "velocity": 71}, {"time": 3674, "pitch": 71, "duration": 18, "velocity": 80}, {"time": 3680, "pitch": 76, "duration": 13, "velocity": 84}, {"time": 3692, "pitch": 63, "duration": 8, "velocity": 61}, {"time": 3692, "pitch": 71, "duration": 1, "velocity": 73}, {"time": 3704, "pitch": 51, "duration": 46, "velocity": 79}, {"time": 3704, "pitch": 63, "duration": 8, "velocity": 68}, {"time": 3704, "pitch": 70, "duration": 11, "velocity": 79}, {"time": 3710, "pitch": 58, "duration": 14, "velocity": 70}, {"time": 3716, "pitch": 63, "duration": 11, "velocity": 38}, {"time": 3722, "pitch": 68, "duration": 7, "velocity": 69}, {"time": 3728, "pitch": 67, "duration": 22, "velocity": 79}, {"time": 3740, "pitch": 58, "duration": 9, "velocity": 68}, {"time": 3752, "pitch": 56, "duration": 36, "velocity": 62}, {"time": 3752, "pitch": 63, "duration": 16, "velocity": 61}, {"time": 3752, "pitch": 71, "duration": 14, "velocity": 76}, {"time": 3764, "pitch": 59, "duration": 13, "velocity": 63}, {"time": 3776, "pitch": 63, "duration": 8, "velocity": 73}, {"time": 3776, "pitch": 71, "duration": 9, "velocity": 82}, {"time": 3782, "pitch": 59, "duration": 4, "velocity": 73}, {"time": 3788, "pitch": 63, "duration": 4, "velocity": 68}, {"time": 3788, "pitch": 70, "duration": 6, "velocity": 83}, {"time": 3794, "pitch": 70, "duration": 2, "velocity": 46}, {"time": 3794, "pitch": 71, "duration": 9, "velocity": 60}, {"time": 3800, "pitch": 49, "duration": 36, "velocity": 72}, {"time": 3800, "pitch": 61, "duration": 13, "velocity": 73}, {"time": 3800, "pitch": 64, "duration": 12, "velocity": 75}, {"time": 3800, "pitch": 68, "duration": 15, "velocity": 79}, {"time": 3809, "pitch": 56, "duration": 16, "velocity": 40}, {"time": 3824, "pitch": 61, "duration": 13, "velocity": 75}, {"time": 3824, "pitch": 64, "duration": 11, "velocity": 83}, {"time": 3824, "pitch": 68, "duration": 13, "velocity": 78}, {"time": 3836, "pitch": 52, "duration": 1, "velocity": 61}, {"time": 3836, "pitch": 56, "duration": 2, "velocity": 73}, {"time": 3848, "pitch": 42, "duration": 36, "velocity": 80}, {"time": 3848, "pitch": 61, "duration": 14, "velocity": 68}, {"time": 3848, "pitch": 66, "duration": 14, "velocity": 78}, {"time": 3848, "pitch": 70, "duration": 13, "velocity": 75}, {"time": 3860, "pitch": 54, "duration": 14, "velocity": 6}, {"time": 3866, "pitch": 61, "duration": 4, "velocity": 35}, {"time": 3872, "pitch": 61, "duration": 13, "velocity": 56}, {"time": 3872, "pitch": 64, "duration": 11, "velocity": 81}, {"time": 3872, "pitch": 66, "duration": 11, "velocity": 77}, {"time": 3872, "pitch": 70, "duration": 11, "velocity": 77}, {"time": 3884, "pitch": 54, "duration": 3, "velocity": 53}, {"time": 3896, "pitch": 47, "duration": 39, "velocity": 82}, {"time": 3896, "pitch": 63, "duration": 13, "velocity": 73}, {"time": 3896, "pitch": 66, "duration": 13, "velocity": 74}, {"time": 3896, "pitch": 70, "duration": 11, "velocity": 75}, {"time": 3908, "pitch": 59, "duration": 19, "velocity": 44}, {"time": 3914, "pitch": 61, "duration": 9, "velocity": 68}, {"time": 3920, "pitch": 63, "duration": 5, "velocity": 75}, {"time": 3926, "pitch": 61, "duration": 1, "velocity": 44}, {"time": 3926, "pitch": 63, "duration": 2, "velocity": 19}, {"time": 3926, "pitch": 66, "duration": 9, "velocity": 80}, {"time": 3932, "pitch": 59, "duration": 3, "velocity": 51}, {"time": 3944, "pitch": 49, "duration": 38, "velocity": 76}, {"time": 3944, "pitch": 56, "duration": 9, "velocity": 72}, {"time": 3944, "pitch": 59, "duration": 15, "velocity": 74}, {"time": 3944, "pitch": 64, "duration": 17, "velocity": 79}, {"time": 3944, "pitch": 68, "duration": 14, "velocity": 77}, {"time": 3956, "pitch": 56, "duration": 12, "velocity": 61}, {"time": 3962, "pitch": 59, "duration": 8, "velocity": 61}, {"time": 3968, "pitch": 64, "duration": 7, "velocity": 82}, {"time": 3974, "pitch": 68, "duration": 9, "velocity": 79}, {"time": 3980, "pitch": 56, "duration": 3, "velocity": 68}, {"time": 3980, "pitch": 70, "duration": 3, "velocity": 80}, {"time": 3986, "pitch": 71, "duration": 1, "velocity": 63}, {"time": 3986, "pitch": 73, "duration": 2, "velocity": 59}, {"time": 3992, "pitch": 44, "duration": 35, "velocity": 79}, {"time": 3992, "pitch": 63, "duration": 12, "velocity": 72}, {"time": 3992, "pitch": 71, "duration": 10, "velocity": 84}, {"time": 3998, "pitch": 51, "duration": 30, "velocity": 72}, {"time": 4004, "pitch": 56, "duration": 7, "velocity": 53}, {"time": 4010, "pitch": 61, "duration": 3, "velocity": 77}, {"time": 4010, "pitch": 70, "duration": 3, "velocity": 84}, {"time": 4013, "pitch": 56, "duration": 8, "velocity": 16}, {"time": 4022, "pitch": 59, "duration": 4, "velocity": 75}, {"time": 4022, "pitch": 68, "duration": 4, "velocity": 80}, {"time": 4028, "pitch": 56, "duration": 4, "velocity": 49}, {"time": 4040, "pitch": 40, "duration": 14, "velocity": 72}, {"time": 4040, "pitch": 59, "duration": 7, "velocity": 83}, {"time": 4040, "pitch": 64, "duration": 9, "velocity": 82}, {"time": 4040, "pitch": 68, "duration": 9, "velocity": 77}, {"time": 4046, "pitch": 52, "duration": 8, "velocity": 61}, {"time": 4052, "pitch": 59, "duration": 6, "velocity": 73}, {"time": 4058, "pitch": 64, "duration": 4, "velocity": 76}, {"time": 4064, "pitch": 42, "duration": 14, "velocity": 72}, {"time": 4064, "pitch": 54, "duration": 16, "velocity": 48}, {"time": 4064, "pitch": 61, "duration": 14, "velocity": 80}, {"time": 4064, "pitch": 66, "duration": 14, "velocity": 80}, {"time": 4064, "pitch": 70, "duration": 14, "velocity": 82}, {"time": 4088, "pitch": 44, "duration": 41, "velocity": 40}, {"time": 4088, "pitch": 63, "duration": 20, "velocity": 75}, {"time": 4088, "pitch": 71, "duration": 27, "velocity": 82}, {"time": 4100, "pitch": 51, "duration": 31, "velocity": 19}, {"time": 4106, "pitch": 56, "duration": 21, "velocity": 38}, {"time": 4112, "pitch": 63, "duration": 7, "velocity": 71}, {"time": 4118, "pitch": 68, "duration": 5, "velocity": 75}, {"time": 4124, "pitch": 70, "duration": 7, "velocity": 83}, {"time": 4130, "pitch": 71, "duration": 3, "velocity": 82}, {"time": 4136, "pitch": 44, "duration": 39, "velocity": 79}, {"time": 4136, "pitch": 56, "duration": 30, "velocity": 60}, {"time": 4136, "pitch": 63, "duration": 16, "velocity": 77}, {"time": 4136, "pitch": 68, "duration": 18, "velocity": 78}, {"time": 4136, "pitch": 71, "duration": 17, "velocity": 83}, {"time": 4160, "pitch": 63, "duration": 12, "velocity": 78}, {"time": 4160, "pitch": 68, "duration": 12, "velocity": 79}, {"time": 4160, "pitch": 71, "duration": 11, "velocity": 83}, {"time": 4172, "pitch": 56, "duration": 4, "velocity": 69}, {"time": 4184, "pitch": 42, "duration": 40, "velocity": 83}, {"time": 4184, "pitch": 54, "duration": 31, "velocity": 70}, {"time": 4184, "pitch": 61, "duration": 16, "velocity": 76}, {"time": 4184, "pitch": 66, "duration": 16, "velocity": 78}, {"time": 4184, "pitch": 70, "duration": 17, "velocity": 82}, {"time": 4208, "pitch": 61, "duration": 13, "velocity": 76}, {"time": 4208, "pitch": 66, "duration": 11, "velocity": 76}, {"time": 4208, "pitch": 70, "duration": 12, "velocity": 82}, {"time": 4220, "pitch": 54, "duration": 3, "velocity": 74}, {"time": 4232, "pitch": 40, "duration": 14, "velocity": 72}, {"time": 4232, "pitch": 52, "duration": 14, "velocity": 58}, {"time": 4232, "pitch": 59, "duration": 12, "velocity": 46}, {"time": 4232, "pitch": 64, "duration": 12, "velocity": 79}, {"time": 4232, "pitch": 68, "duration": 14, "velocity": 72}, {"time": 4232, "pitch": 71, "duration": 13, "velocity": 69}, {"time": 4256, "pitch": 59, "duration": 8, "velocity": 75}, {"time": 4256, "pitch": 64, "duration": 7, "velocity": 42}, {"time": 4256, "pitch": 68, "duration": 8, "velocity": 58}, {"time": 4262, "pitch": 40, "duration": 3, "velocity": 79}, {"time": 4262, "pitch": 52, "duration": 6, "velocity": 71}, {"time": 4268, "pitch": 59, "duration": 4, "velocity": 72}, {"time": 4274, "pitch": 66, "duration": 5, "velocity": 79}, {"time": 4280, "pitch": 47, "duration": 38, "velocity": 78}, {"time": 4280, "pitch": 63, "duration": 16, "velocity": 79}, {"time": 4280, "pitch": 66, "duration": 16, "velocity": 52}, {"time": 4280, "pitch": 71, "duration": 17, "velocity": 80}, {"time": 4292, "pitch": 54, "duration": 28, "velocity": 35}, {"time": 4304, "pitch": 59, "duration": 13, "velocity": 59}, {"time": 4304, "pitch": 61, "duration": 7, "velocity": 76}, {"time": 4304, "pitch": 66, "duration": 6, "velocity": 83}, {"time": 4310, "pitch": 63, "duration": 4, "velocity": 76}, {"time": 4316, "pitch": 66, "duration": 5, "velocity": 76}, {"time": 4322, "pitch": 71, "duration": 8, "velocity": 77}, {"time": 4328, "pitch": 49, "duration": 38, "velocity": 78}, {"time": 4328, "pitch": 64, "duration": 14, "velocity": 83}, {"time": 4328, "pitch": 68, "duration": 14, "velocity": 78}, {"time": 4340, "pitch": 56, "duration": 12, "velocity": 9}, {"time": 4352, "pitch": 61, "duration": 8, "velocity": 76}, {"time": 4352, "pitch": 64, "duration": 10, "velocity": 82}, {"time": 4352, "pitch": 68, "duration": 12, "velocity": 78}, {"time": 4364, "pitch": 56, "duration": 3, "velocity": 73}, {"time": 4376, "pitch": 44, "duration": 34, "velocity": 79}, {"time": 4376, "pitch": 63, "duration": 13, "velocity": 76}, {"time": 4376, "pitch": 66, "duration": 12, "velocity": 82}, {"time": 4376, "pitch": 71, "duration": 19, "velocity": 81}, {"time": 4388, "pitch": 51, "duration": 24, "velocity": 69}, {"time": 4394, "pitch": 56, "duration": 15, "velocity": 59}, {"time": 4400, "pitch": 63, "duration": 8, "velocity": 73}, {"time": 4400, "pitch": 71, "duration": 4, "velocity": 77}, {"time": 4406, "pitch": 68, "duration": 5, "velocity": 76}, {"time": 4412, "pitch": 70, "duration": 6, "velocity": 83}, {"time": 4418, "pitch": 71, "duration": 20, "velocity": 82}, {"time": 4424, "pitch": 40, "duration": 15, "velocity": 78}, {"time": 4424, "pitch": 52, "duration": 15, "velocity": 53}, {"time": 4424, "pitch": 59, "duration": 11, "velocity": 78}, {"time": 4424, "pitch": 64, "duration": 18, "velocity": 55}, {"time": 4424, "pitch": 68, "duration": 18, "velocity": 81}, {"time": 4448, "pitch": 61, "duration": 3, "velocity": 57}, {"time": 4451, "pitch": 68, "duration": 3, "velocity": 56}, {"time": 4460, "pitch": 64, "duration": 5, "velocity": 80}, {"time": 4466, "pitch": 68, "duration": 4, "velocity": 76}, {"time": 4472, "pitch": 40, "duration": 38, "velocity": 78}, {"time": 4472, "pitch": 68, "duration": 10, "velocity": 70}, {"time": 4472, "pitch": 76, "duration": 8, "velocity": 80}, {"time": 4478, "pitch": 47, "duration": 33, "velocity": 71}, {"time": 4484, "pitch": 52, "duration": 30, "velocity": 58}, {"time": 4493, "pitch": 59, "duration": 8, "velocity": 54}, {"time": 4496, "pitch": 64, "duration": 7, "velocity": 86}, {"time": 4502, "pitch": 68, "duration": 7, "velocity": 78}, {"time": 4508, "pitch": 71, "duration": 12, "velocity": 84}, {"time": 4520, "pitch": 42, "duration": 10, "velocity": 78}, {"time": 4520, "pitch": 61, "duration": 25, "velocity": 72}, {"time": 4520, "pitch": 66, "duration": 22, "velocity": 79}, {"time": 4520, "pitch": 70, "duration": 25, "velocity": 84}, {"time": 4526, "pitch": 49, "duration": 5, "velocity": 75}, {"time": 4532, "pitch": 54, "duration": 7, "velocity": 60}, {"time": 4538, "pitch": 56, "duration": 12, "velocity": 63}, {"time": 4544, "pitch": 58, "duration": 6, "velocity": 82}, {"time": 4550, "pitch": 61, "duration": 5, "velocity": 69}, {"time": 4556, "pitch": 66, "duration": 7, "velocity": 77}, {"time": 4562, "pitch": 68, "duration": 5, "velocity": 75}, {"time": 4568, "pitch": 42, "duration": 39, "velocity": 82}, {"time": 4568, "pitch": 61, "duration": 12, "velocity": 75}, {"time": 4568, "pitch": 66, "duration": 11, "velocity": 61}, {"time": 4568, "pitch": 70, "duration": 12, "velocity": 90}, {"time": 4580, "pitch": 54, "duration": 18, "velocity": 57}, {"time": 4586, "pitch": 61, "duration": 3, "velocity": 44}, {"time": 4592, "pitch": 61, "duration": 13, "velocity": 79}, {"time": 4592, "pitch": 66, "duration": 13, "velocity": 77}, {"time": 4592, "pitch": 73, "duration": 15, "velocity": 83}, {"time": 4604, "pitch": 54, "duration": 3, "velocity": 74}, {"time": 4616, "pitch": 47, "duration": 10, "velocity": 79}, {"time": 4616, "pitch": 66, "duration": 3, "velocity": 58}, {"time": 4616, "pitch": 75, "duration": 26, "velocity": 73}, {"time": 4622, "pitch": 54, "duration": 6, "velocity": 69}, {"time": 4628, "pitch": 59, "duration": 8, "velocity": 42}, {"time": 4634, "pitch": 61, "duration": 13, "velocity": 72}, {"time": 4640, "pitch": 63, "duration": 7, "velocity": 79}, {"time": 4646, "pitch": 66, "duration": 4, "velocity": 72}, {"time": 4652, "pitch": 71, "duration": 5, "velocity": 83}, {"time": 4658, "pitch": 75, "duration": 7, "velocity": 76}, {"time": 4664, "pitch": 46, "duration": 40, "velocity": 84}, {"time": 4664, "pitch": 73, "duration": 10, "velocity": 83}, {"time": 4670, "pitch": 54, "duration": 26, "velocity": 68}, {"time": 4676, "pitch": 58, "duration": 16, "velocity": 73}, {"time": 4682, "pitch": 61, "duration": 7, "velocity": 80}, {"time": 4688, "pitch": 66, "duration": 7, "velocity": 84}, {"time": 4694, "pitch": 68, "duration": 5, "velocity": 78}, {"time": 4700, "pitch": 54, "duration": 4, "velocity": 79}, {"time": 4700, "pitch": 70, "duration": 13, "velocity": 84}, {"time": 4706, "pitch": 73, "duration": 3, "velocity": 79}, {"time": 4712, "pitch": 44, "duration": 11, "velocity": 83}, {"time": 4712, "pitch": 63, "duration": 7, "velocity": 75}, {"time": 4712, "pitch": 66, "duration": 6, "velocity": 73}, {"time": 4712, "pitch": 71, "duration": 9, "velocity": 91}, {"time": 4718, "pitch": 51, "duration": 7, "velocity": 76}, {"time": 4724, "pitch": 56, "duration": 9, "velocity": 70}, {"time": 4724, "pitch": 61, "duration": 2, "velocity": 69}, {"time": 4724, "pitch": 70, "duration": 5, "velocity": 83}, {"time": 4730, "pitch": 58, "duration": 9, "velocity": 76}, {"time": 4730, "pitch": 63, "duration": 7, "velocity": 81}, {"time": 4730, "pitch": 71, "duration": 10, "velocity": 84}, {"time": 4736, "pitch": 59, "duration": 8, "velocity": 76}, {"time": 4742, "pitch": 58, "duration": 4, "velocity": 69}, {"time": 4742, "pitch": 61, "duration": 7, "velocity": 81}, {"time": 4742, "pitch": 70, "duration": 12, "velocity": 83}, {"time": 4748, "pitch": 56, "duration": 6, "velocity": 43}, {"time": 4754, "pitch": 52, "duration": 2, "velocity": 80}, {"time": 4754, "pitch": 68, "duration": 5, "velocity": 80}, {"time": 4760, "pitch": 42, "duration": 10, "velocity": 78}, {"time": 4760, "pitch": 61, "duration": 16, "velocity": 75}, {"time": 4760, "pitch": 70, "duration": 24, "velocity": 86}, {"time": 4766, "pitch": 51, "duration": 6, "velocity": 63}, {"time": 4772, "pitch": 54, "duration": 7, "velocity": 63}, {"time": 4778, "pitch": 58, "duration": 18, "velocity": 80}, {"time": 4784, "pitch": 61, "duration": 12, "velocity": 82}, {"time": 4790, "pitch": 66, "duration": 7, "velocity": 81}, {"time": 4796, "pitch": 70, "duration": 5, "velocity": 84}, {"time": 4802, "pitch": 71, "duration": 1, "velocity": 71}, {"time": 4808, "pitch": 40, "duration": 40, "velocity": 83}, {"time": 4808, "pitch": 59, "duration": 14, "velocity": 76}, {"time": 4808, "pitch": 64, "duration": 11, "velocity": 79}, {"time": 4808, "pitch": 68, "duration": 12, "velocity": 82}, {"time": 4814, "pitch": 47, "duration": 34, "velocity": 82}, {"time": 4820, "pitch": 52, "duration": 12, "velocity": 72}, {"time": 4826, "pitch": 59, "duration": 9, "velocity": 78}, {"time": 4835, "pitch": 52, "duration": 5, "velocity": 73}, {"time": 4838, "pitch": 59, "duration": 9, "velocity": 86}, {"time": 4838, "pitch": 64, "duration": 9, "velocity": 93}, {"time": 4844, "pitch": 52, "duration": 3, "velocity": 73}, {"time": 4850, "pitch": 66, "duration": 4, "velocity": 79}, {"time": 4856, "pitch": 39, "duration": 12, "velocity": 82}, {"time": 4856, "pitch": 61, "duration": 26, "velocity": 83}, {"time": 4856, "pitch": 66, "duration": 25, "velocity": 80}, {"time": 4856, "pitch": 70, "duration": 24, "velocity": 90}, {"time": 4862, "pitch": 46, "duration": 6, "velocity": 73}, {"time": 4868, "pitch": 49, "duration": 7, "velocity": 75}, {"time": 4874, "pitch": 51, "duration": 20, "velocity": 78}, {"time": 4880, "pitch": 54, "duration": 13, "velocity": 76}, {"time": 4886, "pitch": 61, "duration": 7, "velocity": 82}, {"time": 4892, "pitch": 66, "duration": 5, "velocity": 83}, {"time": 4898, "pitch": 70, "duration": 3, "velocity": 82}, {"time": 4904, "pitch": 37, "duration": 5, "velocity": 84}, {"time": 4904, "pitch": 64, "duration": 20, "velocity": 81}, {"time": 4904, "pitch": 68, "duration": 19, "velocity": 80}, {"time": 4910, "pitch": 49, "duration": 8, "velocity": 71}, {"time": 4916, "pitch": 52, "duration": 21, "velocity": 80}, {"time": 4922, "pitch": 56, "duration": 14, "velocity": 73}, {"time": 4928, "pitch": 59, "duration": 7, "velocity": 83}, {"time": 4934, "pitch": 64, "duration": 4, "velocity": 83}, {"time": 4940, "pitch": 66, "duration": 4, "velocity": 76}, {"time": 4946, "pitch": 71, "duration": 3, "velocity": 90}, {"time": 4952, "pitch": 42, "duration": 19, "velocity": 83}, {"time": 4952, "pitch": 70, "duration": 11, "velocity": 86}, {"time": 4958, "pitch": 49, "duration": 18, "velocity": 79}, {"time": 4964, "pitch": 54, "duration": 7, "velocity": 78}, {"time": 4970, "pitch": 59, "duration": 8, "velocity": 83}, {"time": 4970, "pitch": 64, "duration": 8, "velocity": 84}, {"time": 4970, "pitch": 68, "duration": 9, "velocity": 83}, {"time": 4976, "pitch": 42, "duration": 9, "velocity": 80}, {"time": 4982, "pitch": 59, "duration": 7, "velocity": 84}, {"time": 4982, "pitch": 64, "duration": 15, "velocity": 84}, {"time": 4982, "pitch": 71, "duration": 15, "velocity": 91}, {"time": 4988, "pitch": 44, "duration": 7, "velocity": 76}, {"time": 4994, "pitch": 46, "duration": 2, "velocity": 84}, {"time": 5000, "pitch": 47, "duration": 38, "velocity": 90}, {"time": 5003, "pitch": 70, "duration": 1, "velocity": 56}, {"time": 5006, "pitch": 54, "duration": 25, "velocity": 75}, {"time": 5012, "pitch": 59, "duration": 11, "velocity": 68}, {"time": 5018, "pitch": 63, "duration": 3, "velocity": 80}, {"time": 5018, "pitch": 71, "duration": 3, "velocity": 86}, {"time": 5024, "pitch": 63, "duration": 4, "velocity": 81}, {"time": 5024, "pitch": 71, "duration": 5, "velocity": 95}, {"time": 5027, "pitch": 59, "duration": 6, "velocity": 59}, {"time": 5033, "pitch": 64, "duration": 4, "velocity": 79}, {"time": 5033, "pitch": 73, "duration": 5, "velocity": 86}, {"time": 5036, "pitch": 54, "duration": 9, "velocity": 70}, {"time": 5042, "pitch": 66, "duration": 4, "velocity": 74}, {"time": 5042, "pitch": 75, "duration": 4, "velocity": 81}, {"time": 5048, "pitch": 46, "duration": 38, "velocity": 82}, {"time": 5048, "pitch": 66, "duration": 12, "velocity": 82}, {"time": 5048, "pitch": 73, "duration": 9, "velocity": 91}, {"time": 5054, "pitch": 54, "duration": 22, "velocity": 63}, {"time": 5060, "pitch": 58, "duration": 23, "velocity": 71}, {"time": 5066, "pitch": 61, "duration": 7, "velocity": 63}, {"time": 5072, "pitch": 66, "duration": 4, "velocity": 82}, {"time": 5078, "pitch": 66, "duration": 1, "velocity": 33}, {"time": 5078, "pitch": 68, "duration": 5, "velocity": 79}, {"time": 5084, "pitch": 54, "duration": 3, "velocity": 78}, {"time": 5084, "pitch": 70, "duration": 5, "velocity": 81}, {"time": 5090, "pitch": 73, "duration": 3, "velocity": 80}, {"time": 5096, "pitch": 44, "duration": 39, "velocity": 74}, {"time": 5096, "pitch": 63, "duration": 8, "velocity": 79}, {"time": 5096, "pitch": 71, "duration": 10, "velocity": 86}, {"time": 5102, "pitch": 51, "duration": 20, "velocity": 53}, {"time": 5108, "pitch": 61, "duration": 2, "velocity": 69}, {"time": 5108, "pitch": 70, "duration": 4, "velocity": 82}, {"time": 5114, "pitch": 56, "duration": 14, "velocity": 47}, {"time": 5114, "pitch": 63, "duration": 2, "velocity": 80}, {"time": 5114, "pitch": 71, "duration": 3, "velocity": 90}, {"time": 5126, "pitch": 64, "duration": 2, "velocity": 84}, {"time": 5126, "pitch": 73, "duration": 2, "velocity": 90}, {"time": 5132, "pitch": 51, "duration": 10, "velocity": 79}, {"time": 5138, "pitch": 66, "duration": 9, "velocity": 77}, {"time": 5138, "pitch": 75, "duration": 8, "velocity": 84}, {"time": 5144, "pitch": 42, "duration": 16, "velocity": 80}, {"time": 5150, "pitch": 51, "duration": 11, "velocity": 75}, {"time": 5156, "pitch": 54, "duration": 4, "velocity": 71}, {"time": 5162, "pitch": 58, "duration": 3, "velocity": 55}, {"time": 5168, "pitch": 41, "duration": 20, "velocity": 75}, {"time": 5168, "pitch": 53, "duration": 17, "velocity": 61}, {"time": 5168, "pitch": 60, "duration": 16, "velocity": 59}, {"time": 5168, "pitch": 65, "duration": 13, "velocity": 56}, {"time": 5168, "pitch": 69, "duration": 17, "velocity": 71}, {"time": 5186, "pitch": 64, "duration": 5, "velocity": 76}, {"time": 5192, "pitch": 40, "duration": 41, "velocity": 82}, {"time": 5192, "pitch": 59, "duration": 11, "velocity": 76}, {"time": 5192, "pitch": 64, "duration": 12, "velocity": 57}, {"time": 5192, "pitch": 68, "duration": 11, "velocity": 82}, {"time": 5198, "pitch": 47, "duration": 27, "velocity": 79}, {"time": 5204, "pitch": 52, "duration": 13, "velocity": 69}, {"time": 5210, "pitch": 59, "duration": 4, "velocity": 80}, {"time": 5216, "pitch": 59, "duration": 8, "velocity": 84}, {"time": 5216, "pitch": 64, "duration": 9, "velocity": 84}, {"time": 5216, "pitch": 68, "duration": 8, "velocity": 83}, {"time": 5222, "pitch": 52, "duration": 8, "velocity": 63}, {"time": 5228, "pitch": 59, "duration": 6, "velocity": 81}, {"time": 5234, "pitch": 47, "duration": 3, "velocity": 84}, {"time": 5234, "pitch": 66, "duration": 4, "velocity": 79}, {"time": 5240, "pitch": 39, "duration": 13, "velocity": 91}, {"time": 5240, "pitch": 61, "duration": 8, "velocity": 84}, {"time": 5240, "pitch": 66, "duration": 7, "velocity": 79}, {"time": 5240, "pitch": 70, "duration": 8, "velocity": 90}, {"time": 5246, "pitch": 51, "duration": 13, "velocity": 75}, {"time": 5252, "pitch": 61, "duration": 5, "velocity": 72}, {"time": 5258, "pitch": 70, "duration": 4, "velocity": 80}, {"time": 5264, "pitch": 44, "duration": 12, "velocity": 82}, {"time": 5264, "pitch": 63, "duration": 14, "velocity": 56}, {"time": 5264, "pitch": 71, "duration": 13, "velocity": 84}, {"time": 5270, "pitch": 51, "duration": 7, "velocity": 79}, {"time": 5276, "pitch": 56, "duration": 5, "velocity": 75}, {"time": 5282, "pitch": 63, "duration": 4, "velocity": 69}, {"time": 5288, "pitch": 49, "duration": 37, "velocity": 80}, {"time": 5288, "pitch": 64, "duration": 13, "velocity": 84}, {"time": 5288, "pitch": 68, "duration": 12, "velocity": 79}, {"time": 5294, "pitch": 56, "duration": 31, "velocity": 56}, {"time": 5300, "pitch": 61, "duration": 14, "velocity": 68}, {"time": 5306, "pitch": 63, "duration": 7, "velocity": 82}, {"time": 5312, "pitch": 64, "duration": 2, "velocity": 86}, {"time": 5318, "pitch": 61, "duration": 5, "velocity": 79}, {"time": 5324, "pitch": 68, "duration": 6, "velocity": 48}, {"time": 5330, "pitch": 75, "duration": 5, "velocity": 80}, {"time": 5336, "pitch": 42, "duration": 10, "velocity": 59}, {"time": 5336, "pitch": 71, "duration": 21, "velocity": 68}, {"time": 5342, "pitch": 49, "duration": 6, "velocity": 72}, {"time": 5348, "pitch": 54, "duration": 8, "velocity": 59}, {"time": 5354, "pitch": 56, "duration": 19, "velocity": 76}, {"time": 5360, "pitch": 59, "duration": 11, "velocity": 79}, {"time": 5372, "pitch": 64, "duration": 5, "velocity": 83}, {"time": 5378, "pitch": 66, "duration": 4, "velocity": 78}, {"time": 5384, "pitch": 47, "duration": 43, "velocity": 82}, {"time": 5384, "pitch": 63, "duration": 14, "velocity": 78}, {"time": 5384, "pitch": 66, "duration": 13, "velocity": 69}, {"time": 5384, "pitch": 71, "duration": 17, "velocity": 82}, {"time": 5396, "pitch": 54, "duration": 62, "velocity": 52}, {"time": 5408, "pitch": 64, "duration": 1, "velocity": 50}, {"time": 5408, "pitch": 68, "duration": 2, "velocity": 60}, {"time": 5414, "pitch": 64, "duration": 11, "velocity": 86}, {"time": 5414, "pitch": 68, "duration": 15, "velocity": 83}, {"time": 5426, "pitch": 59, "duration": 32, "velocity": 40}, {"time": 5432, "pitch": 47, "duration": 28, "velocity": 82}, {"time": 5432, "pitch": 63, "duration": 26, "velocity": 78}, {"time": 5432, "pitch": 66, "duration": 25, "velocity": 80}, {"time": 5480, "pitch": 75, "duration": 8, "velocity": 74}, {"time": 5480, "pitch": 66, "duration": 8, "velocity": 61}, {"time": 5480, "pitch": 59, "duration": 46, "velocity": 77}, {"time": 5486, "pitch": 63, "duration": 18, "velocity": 79}, {"time": 5492, "pitch": 66, "duration": 8, "velocity": 68}, {"time": 5498, "pitch": 73, "duration": 12, "velocity": 84}, {"time": 5509, "pitch": 63, "duration": 15, "velocity": 75}, {"time": 5515, "pitch": 66, "duration": 9, "velocity": 71}, {"time": 5522, "pitch": 75, "duration": 7, "velocity": 76}, {"time": 5527, "pitch": 58, "duration": 44, "velocity": 73}, {"time": 5528, "pitch": 73, "duration": 9, "velocity": 86}, {"time": 5533, "pitch": 61, "duration": 19, "velocity": 75}, {"time": 5540, "pitch": 66, "duration": 19, "velocity": 62}, {"time": 5546, "pitch": 78, "duration": 13, "velocity": 79}, {"time": 5558, "pitch": 61, "duration": 10, "velocity": 78}, {"time": 5564, "pitch": 73, "duration": 5, "velocity": 82}, {"time": 5570, "pitch": 75, "duration": 5, "velocity": 78}, {"time": 5575, "pitch": 56, "duration": 38, "velocity": 79}, {"time": 5576, "pitch": 71, "duration": 14, "velocity": 90}, {"time": 5581, "pitch": 63, "duration": 32, "velocity": 69}, {"time": 5587, "pitch": 66, "duration": 24, "velocity": 75}, {"time": 5593, "pitch": 70, "duration": 7, "velocity": 86}, {"time": 5599, "pitch": 71, "duration": 4, "velocity": 82}, {"time": 5605, "pitch": 75, "duration": 8, "velocity": 80}, {"time": 5612, "pitch": 80, "duration": 4, "velocity": 76}, {"time": 5617, "pitch": 83, "duration": 7, "velocity": 83}, {"time": 5624, "pitch": 51, "duration": 14, "velocity": 90}, {"time": 5624, "pitch": 66, "duration": 8, "velocity": 78}, {"time": 5624, "pitch": 70, "duration": 9, "velocity": 83}, {"time": 5630, "pitch": 58, "duration": 9, "velocity": 76}, {"time": 5636, "pitch": 63, "duration": 3, "velocity": 78}, {"time": 5648, "pitch": 53, "duration": 13, "velocity": 79}, {"time": 5648, "pitch": 62, "duration": 8, "velocity": 77}, {"time": 5648, "pitch": 67, "duration": 11, "velocity": 79}, {"time": 5648, "pitch": 72, "duration": 11, "velocity": 82}, {"time": 5660, "pitch": 62, "duration": 3, "velocity": 72}, {"time": 5666, "pitch": 67, "duration": 2, "velocity": 72}, {"time": 5672, "pitch": 52, "duration": 39, "velocity": 78}, {"time": 5672, "pitch": 59, "duration": 7, "velocity": 79}, {"time": 5672, "pitch": 64, "duration": 8, "velocity": 79}, {"time": 5672, "pitch": 68, "duration": 8, "velocity": 71}, {"time": 5678, "pitch": 56, "duration": 15, "velocity": 75}, {"time": 5684, "pitch": 59, "duration": 15, "velocity": 72}, {"time": 5690, "pitch": 71, "duration": 20, "velocity": 86}, {"time": 5696, "pitch": 56, "duration": 14, "velocity": 76}, {"time": 5702, "pitch": 59, "duration": 7, "velocity": 73}, {"time": 5708, "pitch": 68, "duration": 5, "velocity": 78}, {"time": 5714, "pitch": 71, "duration": 7, "velocity": 83}, {"time": 5720, "pitch": 51, "duration": 15, "velocity": 84}, {"time": 5720, "pitch": 61, "duration": 11, "velocity": 77}, {"time": 5720, "pitch": 66, "duration": 10, "velocity": 76}, {"time": 5720, "pitch": 70, "duration": 11, "velocity": 83}, {"time": 5726, "pitch": 58, "duration": 9, "velocity": 80}, {"time": 5732, "pitch": 68, "duration": 5, "velocity": 79}, {"time": 5738, "pitch": 70, "duration": 5, "velocity": 86}, {"time": 5744, "pitch": 44, "duration": 14, "velocity": 82}, {"time": 5744, "pitch": 63, "duration": 11, "velocity": 75}, {"time": 5744, "pitch": 66, "duration": 14, "velocity": 74}, {"time": 5744, "pitch": 71, "duration": 14, "velocity": 84}, {"time": 5750, "pitch": 51, "duration": 9, "velocity": 82}, {"time": 5756, "pitch": 56, "duration": 10, "velocity": 56}, {"time": 5762, "pitch": 63, "duration": 4, "velocity": 79}, {"time": 5762, "pitch": 71, "duration": 2, "velocity": 16}, {"time": 5768, "pitch": 49, "duration": 36, "velocity": 86}, {"time": 5768, "pitch": 64, "duration": 13, "velocity": 82}, {"time": 5768, "pitch": 68, "duration": 11, "velocity": 75}, {"time": 5774, "pitch": 56, "duration": 31, "velocity": 72}, {"time": 5780, "pitch": 61, "duration": 22, "velocity": 79}, {"time": 5786, "pitch": 63, "duration": 4, "velocity": 76}, {"time": 5792, "pitch": 64, "duration": 3, "velocity": 82}, {"time": 5798, "pitch": 68, "duration": 4, "velocity": 79}, {"time": 5804, "pitch": 71, "duration": 5, "velocity": 86}, {"time": 5810, "pitch": 76, "duration": 5, "velocity": 84}, {"time": 5816, "pitch": 42, "duration": 10, "velocity": 83}, {"time": 5816, "pitch": 66, "duration": 7, "velocity": 73}, {"time": 5816, "pitch": 75, "duration": 10, "velocity": 84}, {"time": 5822, "pitch": 49, "duration": 6, "velocity": 82}, {"time": 5828, "pitch": 54, "duration": 7, "velocity": 68}, {"time": 5828, "pitch": 68, "duration": 2, "velocity": 75}, {"time": 5828, "pitch": 76, "duration": 2, "velocity": 90}, {"time": 5834, "pitch": 56, "duration": 9, "velocity": 55}, {"time": 5840, "pitch": 58, "duration": 5, "velocity": 73}, {"time": 5840, "pitch": 70, "duration": 2, "velocity": 83}, {"time": 5840, "pitch": 78, "duration": 3, "velocity": 86}, {"time": 5846, "pitch": 59, "duration": 8, "velocity": 80}, {"time": 5852, "pitch": 61, "duration": 2, "velocity": 86}, {"time": 5852, "pitch": 73, "duration": 2, "velocity": 78}, {"time": 5852, "pitch": 82, "duration": 3, "velocity": 84}, {"time": 5864, "pitch": 47, "duration": 40, "velocity": 90}, {"time": 5864, "pitch": 75, "duration": 4, "velocity": 81}, {"time": 5864, "pitch": 83, "duration": 3, "velocity": 90}, {"time": 5870, "pitch": 54, "duration": 26, "velocity": 76}, {"time": 5876, "pitch": 59, "duration": 11, "velocity": 62}, {"time": 5882, "pitch": 63, "duration": 3, "velocity": 78}, {"time": 5882, "pitch": 71, "duration": 3, "velocity": 86}, {"time": 5888, "pitch": 63, "duration": 6, "velocity": 81}, {"time": 5888, "pitch": 71, "duration": 6, "velocity": 90}, {"time": 5891, "pitch": 59, "duration": 6, "velocity": 67}, {"time": 5897, "pitch": 61, "duration": 6, "velocity": 80}, {"time": 5897, "pitch": 70, "duration": 7, "velocity": 90}, {"time": 5900, "pitch": 54, "duration": 7, "velocity": 78}, {"time": 5906, "pitch": 61, "duration": 2, "velocity": 71}, {"time": 5906, "pitch": 70, "duration": 3, "velocity": 76}, {"time": 5906, "pitch": 71, "duration": 3, "velocity": 82}, {"time": 5912, "pitch": 46, "duration": 41, "velocity": 91}, {"time": 5912, "pitch": 61, "duration": 11, "velocity": 78}, {"time": 5912, "pitch": 66, "duration": 12, "velocity": 80}, {"time": 5912, "pitch": 73, "duration": 11, "velocity": 86}, {"time": 5918, "pitch": 54, "duration": 23, "velocity": 78}, {"time": 5924, "pitch": 58, "duration": 26, "velocity": 79}, {"time": 5927, "pitch": 61, "duration": 3, "velocity": 84}, {"time": 5930, "pitch": 66, "duration": 3, "velocity": 80}, {"time": 5933, "pitch": 68, "duration": 2, "velocity": 83}, {"time": 5936, "pitch": 70, "duration": 4, "velocity": 83}, {"time": 5939, "pitch": 71, "duration": 3, "velocity": 80}, {"time": 5942, "pitch": 73, "duration": 2, "velocity": 84}, {"time": 5945, "pitch": 75, "duration": 5, "velocity": 80}, {"time": 5948, "pitch": 54, "duration": 4, "velocity": 76}, {"time": 5948, "pitch": 76, "duration": 5, "velocity": 83}, {"time": 5951, "pitch": 78, "duration": 5, "velocity": 72}, {"time": 5954, "pitch": 80, "duration": 6, "velocity": 78}, {"time": 5960, "pitch": 44, "duration": 44, "velocity": 82}, {"time": 5960, "pitch": 83, "duration": 8, "velocity": 79}, {"time": 5966, "pitch": 51, "duration": 28, "velocity": 79}, {"time": 5972, "pitch": 56, "duration": 12, "velocity": 73}, {"time": 5978, "pitch": 63, "duration": 13, "velocity": 81}, {"time": 5984, "pitch": 71, "duration": 9, "velocity": 84}, {"time": 5990, "pitch": 70, "duration": 8, "velocity": 86}, {"time": 5996, "pitch": 56, "duration": 5, "velocity": 69}, {"time": 5996, "pitch": 68, "duration": 5, "velocity": 77}, {"time": 6002, "pitch": 51, "duration": 7, "velocity": 84}, {"time": 6002, "pitch": 66, "duration": 4, "velocity": 79}, {"time": 6008, "pitch": 42, "duration": 13, "velocity": 59}, {"time": 6008, "pitch": 61, "duration": 12, "velocity": 78}, {"time": 6008, "pitch": 66, "duration": 11, "velocity": 82}, {"time": 6008, "pitch": 70, "duration": 11, "velocity": 86}, {"time": 6014, "pitch": 51, "duration": 9, "velocity": 80}, {"time": 6020, "pitch": 54, "duration": 2, "velocity": 80}, {"time": 6032, "pitch": 41, "duration": 17, "velocity": 94}, {"time": 6032, "pitch": 60, "duration": 8, "velocity": 84}, {"time": 6032, "pitch": 65, "duration": 7, "velocity": 94}, {"time": 6032, "pitch": 69, "duration": 7, "velocity": 86}, {"time": 6038, "pitch": 53, "duration": 9, "velocity": 75}, {"time": 6044, "pitch": 60, "duration": 4, "velocity": 84}, {"time": 6050, "pitch": 66, "duration": 4, "velocity": 81}, {"time": 6056, "pitch": 40, "duration": 11, "velocity": 84}, {"time": 6056, "pitch": 59, "duration": 26, "velocity": 81}, {"time": 6056, "pitch": 64, "duration": 26, "velocity": 83}, {"time": 6056, "pitch": 68, "duration": 26, "velocity": 82}, {"time": 6062, "pitch": 47, "duration": 6, "velocity": 80}, {"time": 6068, "pitch": 52, "duration": 7, "velocity": 75}, {"time": 6074, "pitch": 54, "duration": 14, "velocity": 75}, {"time": 6080, "pitch": 56, "duration": 8, "velocity": 80}, {"time": 6086, "pitch": 59, "duration": 4, "velocity": 82}, {"time": 6092, "pitch": 64, "duration": 5, "velocity": 83}, {"time": 6098, "pitch": 71, "duration": 7, "velocity": 84}, {"time": 6104, "pitch": 39, "duration": 10, "velocity": 86}, {"time": 6104, "pitch": 61, "duration": 8, "velocity": 80}, {"time": 6104, "pitch": 66, "duration": 9, "velocity": 79}, {"time": 6104, "pitch": 70, "duration": 10, "velocity": 84}, {"time": 6110, "pitch": 51, "duration": 8, "velocity": 76}, {"time": 6116, "pitch": 68, "duration": 5, "velocity": 76}, {"time": 6122, "pitch": 70, "duration": 5, "velocity": 82}, {"time": 6128, "pitch": 44, "duration": 13, "velocity": 80}, {"time": 6128, "pitch": 63, "duration": 8, "velocity": 75}, {"time": 6128, "pitch": 66, "duration": 9, "velocity": 78}, {"time": 6128, "pitch": 71, "duration": 10, "velocity": 82}, {"time": 6134, "pitch": 51, "duration": 8, "velocity": 80}, {"time": 6140, "pitch": 56, "duration": 4, "velocity": 67}, {"time": 6140, "pitch": 63, "duration": 3, "velocity": 76}, {"time": 6140, "pitch": 66, "duration": 3, "velocity": 80}, {"time": 6140, "pitch": 71, "duration": 2, "velocity": 37}, {"time": 6146, "pitch": 66, "duration": 3, "velocity": 60}, {"time": 6152, "pitch": 49, "duration": 33, "velocity": 84}, {"time": 6152, "pitch": 59, "duration": 6, "velocity": 79}, {"time": 6152, "pitch": 64, "duration": 8, "velocity": 76}, {"time": 6152, "pitch": 68, "duration": 7, "velocity": 82}, {"time": 6158, "pitch": 56, "duration": 13, "velocity": 71}, {"time": 6164, "pitch": 59, "duration": 5, "velocity": 72}, {"time": 6170, "pitch": 59, "duration": 9, "velocity": 81}, {"time": 6170, "pitch": 64, "duration": 10, "velocity": 84}, {"time": 6170, "pitch": 68, "duration": 9, "velocity": 82}, {"time": 6176, "pitch": 56, "duration": 10, "velocity": 76}, {"time": 6182, "pitch": 59, "duration": 4, "velocity": 84}, {"time": 6188, "pitch": 64, "duration": 5, "velocity": 83}, {"time": 6194, "pitch": 66, "duration": 4, "velocity": 76}, {"time": 6200, "pitch": 42, "duration": 38, "velocity": 83}, {"time": 6200, "pitch": 59, "duration": 12, "velocity": 76}, {"time": 6200, "pitch": 64, "duration": 12, "velocity": 79}, {"time": 6200, "pitch": 71, "duration": 12, "velocity": 62}, {"time": 6206, "pitch": 49, "duration": 25, "velocity": 82}, {"time": 6212, "pitch": 54, "duration": 12, "velocity": 75}, {"time": 6218, "pitch": 59, "duration": 3, "velocity": 62}, {"time": 6224, "pitch": 59, "duration": 5, "velocity": 70}, {"time": 6224, "pitch": 64, "duration": 13, "velocity": 79}, {"time": 6224, "pitch": 71, "duration": 5, "velocity": 93}, {"time": 6227, "pitch": 54, "duration": 6, "velocity": 61}, {"time": 6233, "pitch": 71, "duration": 1, "velocity": 59}, {"time": 6233, "pitch": 73, "duration": 5, "velocity": 58}, {"time": 6236, "pitch": 49, "duration": 3, "velocity": 84}, {"time": 6242, "pitch": 73, "duration": 3, "velocity": 83}, {"time": 6248, "pitch": 35, "duration": 2, "velocity": 98}, {"time": 6248, "pitch": 75, "duration": 9, "velocity": 80}, {"time": 6260, "pitch": 47, "duration": 72, "velocity": 81}, {"time": 6266, "pitch": 54, "duration": 64, "velocity": 73}, {"time": 6272, "pitch": 59, "duration": 16, "velocity": 81}, {"time": 6278, "pitch": 64, "duration": 4, "velocity": 82}, {"time": 6284, "pitch": 66, "duration": 5, "velocity": 73}, {"time": 6290, "pitch": 71, "duration": 9, "velocity": 83}, {"time": 6296, "pitch": 59, "duration": 32, "velocity": 67}, {"time": 6296, "pitch": 61, "duration": 17, "velocity": 78}, {"time": 6296, "pitch": 63, "duration": 19, "velocity": 78}, {"time": 6296, "pitch": 66, "duration": 18, "velocity": 77}, {"time": 6320, "pitch": 61, "duration": 9, "velocity": 70}, {"time": 6320, "pitch": 63, "duration": 9, "velocity": 71}, {"time": 6320, "pitch": 66, "duration": 11, "velocity": 74}, {"time": 6344, "pitch": 40, "duration": 36, "velocity": 62}, {"time": 6344, "pitch": 59, "duration": 14, "velocity": 76}, {"time": 6344, "pitch": 64, "duration": 13, "velocity": 79}, {"time": 6344, "pitch": 68, "duration": 13, "velocity": 74}, {"time": 6353, "pitch": 52, "duration": 27, "velocity": 8}, {"time": 6368, "pitch": 59, "duration": 11, "velocity": 72}, {"time": 6368, "pitch": 64, "duration": 12, "velocity": 75}, {"time": 6368, "pitch": 68, "duration": 11, "velocity": 73}, {"time": 6392, "pitch": 39, "duration": 10, "velocity": 76}, {"time": 6392, "pitch": 51, "duration": 12, "velocity": 53}, {"time": 6392, "pitch": 61, "duration": 11, "velocity": 75}, {"time": 6392, "pitch": 66, "duration": 10, "velocity": 75}, {"time": 6392, "pitch": 70, "duration": 10, "velocity": 81}, {"time": 6416, "pitch": 44, "duration": 10, "velocity": 71}, {"time": 6416, "pitch": 56, "duration": 12, "velocity": 54}, {"time": 6416, "pitch": 63, "duration": 10, "velocity": 69}, {"time": 6416, "pitch": 66, "duration": 9, "velocity": 76}, {"time": 6416, "pitch": 71, "duration": 10, "velocity": 71}, {"time": 6440, "pitch": 49, "duration": 38, "velocity": 60}, {"time": 6440, "pitch": 56, "duration": 38, "velocity": 59}, {"time": 6440, "pitch": 59, "duration": 46, "velocity": 75}, {"time": 6440, "pitch": 64, "duration": 45, "velocity": 78}, {"time": 6440, "pitch": 68, "duration": 44, "velocity": 72}, {"time": 6500, "pitch": 42, "duration": 67, "velocity": 73}, {"time": 6500, "pitch": 59, "duration": 66, "velocity": 52}, {"time": 6500, "pitch": 64, "duration": 65, "velocity": 71}, {"time": 6500, "pitch": 68, "duration": 63, "velocity": 71}, {"time": 6608, "pitch": 40, "duration": 34, "velocity": 76}, {"time": 6608, "pitch": 52, "duration": 33, "velocity": 73}, {"time": 6608, "pitch": 59, "duration": 15, "velocity": 57}, {"time": 6608, "pitch": 64, "duration": 13, "velocity": 75}, {"time": 6608, "pitch": 68, "duration": 13, "velocity": 68}, {"time": 6632, "pitch": 59, "duration": 10, "velocity": 63}, {"time": 6632, "pitch": 64, "duration": 11, "velocity": 75}, {"time": 6632, "pitch": 68, "duration": 10, "velocity": 73}, {"time": 6656, "pitch": 39, "duration": 39, "velocity": 69}, {"time": 6656, "pitch": 51, "duration": 32, "velocity": 58}, {"time": 6656, "pitch": 61, "duration": 16, "velocity": 61}, {"time": 6656, "pitch": 66, "duration": 16, "velocity": 73}, {"time": 6656, "pitch": 70, "duration": 15, "velocity": 67}, {"time": 6680, "pitch": 61, "duration": 14, "velocity": 62}, {"time": 6680, "pitch": 66, "duration": 14, "velocity": 69}, {"time": 6680, "pitch": 70, "duration": 12, "velocity": 69}, {"time": 6692, "pitch": 51, "duration": 3, "velocity": 60}, {"time": 6704, "pitch": 37, "duration": 35, "velocity": 72}, {"time": 6704, "pitch": 49, "duration": 35, "velocity": 50}, {"time": 6704, "pitch": 59, "duration": 33, "velocity": 58}, {"time": 6704, "pitch": 64, "duration": 34, "velocity": 77}, {"time": 6704, "pitch": 68, "duration": 34, "velocity": 67}, {"time": 6704, "pitch": 71, "duration": 35, "velocity": 54}, {"time": 6752, "pitch": 40, "duration": 86, "velocity": 69}, {"time": 6752, "pitch": 52, "duration": 87, "velocity": 42}, {"time": 6752, "pitch": 59, "duration": 15, "velocity": 59}, {"time": 6752, "pitch": 64, "duration": 28, "velocity": 68}, {"time": 6752, "pitch": 67, "duration": 70, "velocity": 68}, {"time": 6872, "pitch": 47, "duration": 93, "velocity": 69}, {"time": 6872, "pitch": 61, "duration": 10, "velocity": 29}, {"time": 6872, "pitch": 63, "duration": 14, "velocity": 63}, {"time": 6875, "pitch": 66, "duration": 14, "velocity": 69}, {"time": 6875, "pitch": 70, "duration": 15, "velocity": 72}, {"time": 6887, "pitch": 54, "duration": 80, "velocity": 53}, {"time": 6893, "pitch": 59, "duration": 72, "velocity": 55}, {"time": 6899, "pitch": 61, "duration": 5, "velocity": 53}, {"time": 6905, "pitch": 63, "duration": 5, "velocity": 74}, {"time": 6911, "pitch": 66, "duration": 2, "velocity": 72}, {"time": 6914, "pitch": 68, "duration": 4, "velocity": 60}, {"time": 6920, "pitch": 70, "duration": 6, "velocity": 69}, {"time": 6926, "pitch": 71, "duration": 3, "velocity": 60}, {"time": 6935, "pitch": 75, "duration": 8, "velocity": 18}, {"time": 6941, "pitch": 78, "duration": 7, "velocity": 57}, {"time": 6950, "pitch": 82, "duration": 8, "velocity": 42}, {"time": 6959, "pitch": 78, "duration": 7, "velocity": 35}], "annotations": [{"time": 104, "annotation": {"number": 64, "value": 127}, "group": "control_change"}, {"time": 151, "annotation": {"number": 64, "value": 0}, "group": "control_change"}, {"time": 155, "annotation": {"number": 64, "value": 127}, "group": "control_change"}, {"time": 199, "annotation": {"number": 64, "value": 0}, "group": "control_change"}, {"time": 203, "annotation": {"number": 64, "value": 127}, "group": "control_change"}, {"time": 294, "annotation": {"number": 64, "value": 0}, "group": "control_change"}, {"time": 299, "annotation": {"number": 64, "value": 127}, "group": "control_change"}, {"time": 345, "annotation": {"number": 64, "value": 0}, "group": "control_change"}, {"time": 350, "annotation": {"number": 64, "value": 127}, "group": "control_change"}, {"time": 392, "annotation": {"number": 64, "value": 0}, "group": "control_change"}, {"time": 396, "annotation": {"number": 64, "value": 127}, "group": "control_change"}, {"time": 487, "annotation": {"number": 64, "value": 0}, "group": "control_change"}, {"time": 489, "annotation": {"number": 64, "value": 127}, "group": "control_change"}, {"time": 537, "annotation": {"number": 64, "value": 0}, "group": "control_change"}, {"time": 541, "annotation": {"number": 64, "value": 127}, "group": "control_change"}, {"time": 584, "annotation": {"number": 64, "value": 0}, "group": "control_change"}, {"time": 589, "annotation": {"number": 64, "value": 127}, "group": "control_change"}, {"time": 632, "annotation": {"number": 64, "value": 0}, "group": "control_change"}, {"time": 636, "annotation": {"number": 64, "value": 127}, "group": "control_change"}, {"time": 680, "annotation": {"number": 64, "value": 0}, "group": "control_change"}, {"time": 685, "annotation": {"number": 64, "value": 127}, "group": "control_change"}, {"time": 728, "annotation": {"number": 64, "value": 0}, "group": "control_change"}, {"time": 733, "annotation": {"number": 64, "value": 127}, "group": "control_change"}, {"time": 778, "annotation": {"number": 64, "value": 0}, "group": "control_change"}, {"time": 782, "annotation": {"number": 64, "value": 127}, "group": "control_change"}, {"time": 826, "annotation": {"number": 64, "value": 0}, "group": "control_change"}, {"time": 830, "annotation": {"number": 64, "value": 127}, "group": "control_change"}, {"time": 869, "annotation": {"number": 64, "value": 0}, "group": "control_change"}, {"time": 878, "annotation": {"number": 64, "value": 127}, "group": "control_change"}, {"time": 921, "annotation": {"number": 64, "value": 0}, "group": "control_change"}, {"time": 928, "annotation": {"number": 64, "value": 127}, "group": "control_change"}, {"time": 970, "annotation": {"number": 64, "value": 0}, "group": "control_change"}, {"time": 979, "annotation": {"number": 64, "value": 127}, "group": "control_change"}, {"time": 1018, "annotation": {"number": 64, "value": 0}, "group": "control_change"}, {"time": 1026, "annotation": {"number": 64, "value": 127}, "group": "control_change"}, {"time": 1063, "annotation": {"number": 64, "value": 0}, "group": "control_change"}, {"time": 1071, "annotation": {"number": 64, "value": 127}, "group": "control_change"}, {"time": 1112, "annotation": {"number": 64, "value": 0}, "group": "control_change"}, {"time": 1119, "annotation": {"number": 64, "value": 127}, "group": "control_change"}, {"time": 1160, "annotation": {"number": 64, "value": 0}, "group": "control_change"}, {"time": 1168, "annotation": {"number": 64, "value": 127}, "group": "control_change"}, {"time": 1196, "annotation": {"number": 64, "value": 0}, "group": "control_change"}, {"time": 1213, "annotation": {"number": 64, "value": 127}, "group": "control_change"}, {"time": 1259, "annotation": {"number": 64, "value": 0}, "group": "control_change"}, {"time": 1268, "annotation": {"number": 64, "value": 127}, "group": "control_change"}, {"time": 1306, "annotation": {"number": 64, "value": 0}, "group": "control_change"}, {"time": 1316, "annotation": {"number": 64, "value": 127}, "group": "control_change"}, {"time": 1353, "annotation": {"number": 64, "value": 0}, "group": "control_change"}, {"time": 1363, "annotation": {"number": 64, "value": 127}, "group": "control_change"}, {"time": 1400, "annotation": {"number": 64, "value": 0}, "group": "control_change"}, {"time": 1410, "annotation": {"number": 64, "value": 127}, "group": "control_change"}, {"time": 1448, "annotation": {"number": 64, "value": 0}, "group": "control_change"}, {"time": 1456, "annotation": {"number": 64, "value": 127}, "group": "control_change"}, {"time": 1498, "annotation": {"number": 64, "value": 0}, "group": "control_change"}, {"time": 1505, "annotation": {"number": 64, "value": 127}, "group": "control_change"}, {"time": 1542, "annotation": {"number": 64, "value": 0}, "group": "control_change"}, {"time": 1549, "annotation": {"number": 64, "value": 127}, "group": "control_change"}, {"time": 1570, "annotation": {"number": 64, "value": 0}, "group": "control_change"}, {"time": 1578, "annotation": {"number": 64, "value": 127}, "group": "control_change"}, {"time": 1593, "annotation": {"number": 64, "value": 0}, "group": "control_change"}, {"time": 1603, "annotation": {"number": 64, "value": 127}, "group": "control_change"}, {"time": 1640, "annotation": {"number": 64, "value": 0}, "group": "control_change"}, {"time": 1644, "annotation": {"number": 64, "value": 127}, "group": "control_change"}, {"time": 1687, "annotation": {"number": 64, "value": 0}, "group": "control_change"}, {"time": 1696, "annotation": {"number": 64, "value": 127}, "group": "control_change"}, {"time": 1696, "annotation": {"number": 64, "value": 0}, "group": "control_change"}, {"time": 1736, "annotation": {"number": 64, "value": 0}, "group": "control_change"}, {"time": 1742, "annotation": {"number": 64, "value": 127}, "group": "control_change"}, {"time": 1784, "annotation": {"number": 64, "value": 0}, "group": "control_change"}, {"time": 1793, "annotation": {"number": 64, "value": 127}, "group": "control_change"}, {"time": 1832, "annotation": {"number": 64, "value": 0}, "group": "control_change"}, {"time": 1842, "annotation": {"number": 64, "value": 127}, "group": "control_change"}, {"time": 1867, "annotation": {"number": 64, "value": 0}, "group": "control_change"}, {"time": 1893, "annotation": {"number": 64, "value": 127}, "group": "control_change"}, {"time": 1928, "annotation": {"number": 64, "value": 0}, "group": "control_change"}, {"time": 1939, "annotation": {"number": 64, "value": 127}, "group": "control_change"}, {"time": 1976, "annotation": {"number": 64, "value": 0}, "group": "control_change"}, {"time": 1980, "annotation": {"number": 64, "value": 127}, "group": "control_change"}, {"time": 2026, "annotation": {"number": 64, "value": 0}, "group": "control_change"}, {"time": 2034, "annotation": {"number": 64, "value": 127}, "group": "control_change"}, {"time": 2117, "annotation": {"number": 64, "value": 0}, "group": "control_change"}, {"time": 2122, "annotation": {"number": 64, "value": 127}, "group": "control_change"}, {"time": 2170, "annotation": {"number": 64, "value": 0}, "group": "control_change"}, {"time": 2174, "annotation": {"number": 64, "value": 127}, "group": "control_change"}, {"time": 2217, "annotation": {"number": 64, "value": 0}, "group": "control_change"}, {"time": 2222, "annotation": {"number": 64, "value": 127}, "group": "control_change"}, {"time": 2266, "annotation": {"number": 64, "value": 0}, "group": "control_change"}, {"time": 2271, "annotation": {"number": 64, "value": 127}, "group": "control_change"}, {"time": 2313, "annotation": {"number": 64, "value": 0}, "group": "control_change"}, {"time": 2319, "annotation": {"number": 64, "value": 127}, "group": "control_change"}, {"time": 2360, "annotation": {"number": 64, "value": 0}, "group": "control_change"}, {"time": 2364, "annotation": {"number": 64, "value": 127}, "group": "control_change"}, {"time": 2412, "annotation": {"number": 64, "value": 0}, "group": "control_change"}, {"time": 2416, "annotation": {"number": 64, "value": 127}, "group": "control_change"}, {"time": 2458, "annotation": {"number": 64, "value": 0}, "group": "control_change"}, {"time": 2462, "annotation": {"number": 64, "value": 127}, "group": "control_change"}, {"time": 2506, "annotation": {"number": 64, "value": 0}, "group": "control_change"}, {"time": 2510, "annotation": {"number": 64, "value": 127}, "group": "control_change"}, {"time": 2552, "annotation": {"number": 64, "value": 0}, "group": "control_change"}, {"time": 2556, "annotation": {"number": 64, "value": 127}, "group": "control_change"}, {"time": 2602, "annotation": {"number": 64, "value": 0}, "group": "control_change"}, {"time": 2607, "annotation": {"number": 64, "value": 127}, "group": "control_change"}, {"time": 2646, "annotation": {"number": 64, "value": 0}, "group": "control_change"}, {"time": 2650, "annotation": {"number": 64, "value": 127}, "group": "control_change"}, {"time": 2679, "annotation": {"number": 64, "value": 0}, "group": "control_change"}, {"time": 2683, "annotation": {"number": 64, "value": 127}, "group": "control_change"}, {"time": 2698, "annotation": {"number": 64, "value": 0}, "group": "control_change"}, {"time": 2703, "annotation": {"number": 64, "value": 127}, "group": "control_change"}, {"time": 2744, "annotation": {"number": 64, "value": 0}, "group": "control_change"}, {"time": 2744, "annotation": {"number": 64, "value": 127}, "group": "control_change"}, {"time": 2748, "annotation": {"number": 64, "value": 127}, "group": "control_change"}, {"time": 2771, "annotation": {"number": 64, "value": 0}, "group": "control_change"}, {"time": 2775, "annotation": {"number": 64, "value": 127}, "group": "control_change"}, {"time": 2793, "annotation": {"number": 64, "value": 0}, "group": "control_change"}, {"time": 2795, "annotation": {"number": 64, "value": 0}, "group": "control_change"}, {"time": 2800, "annotation": {"number": 64, "value": 127}, "group": "control_change"}, {"time": 2839, "annotation": {"number": 64, "value": 0}, "group": "control_change"}, {"time": 2844, "annotation": {"number": 64, "value": 127}, "group": "control_change"}, {"time": 2890, "annotation": {"number": 64, "value": 0}, "group": "control_change"}, {"time": 2894, "annotation": {"number": 64, "value": 127}, "group": "control_change"}, {"time": 2936, "annotation": {"number": 64, "value": 0}, "group": "control_change"}, {"time": 2940, "annotation": {"number": 64, "value": 127}, "group": "control_change"}, {"time": 2983, "annotation": {"number": 64, "value": 0}, "group": "control_change"}, {"time": 2984, "annotation": {"number": 64, "value": 127}, "group": "control_change"}, {"time": 3034, "annotation": {"number": 64, "value": 0}, "group": "control_change"}, {"time": 3042, "annotation": {"number": 64, "value": 127}, "group": "control_change"}, {"time": 3178, "annotation": {"number": 64, "value": 0}, "group": "control_change"}, {"time": 3182, "annotation": {"number": 64, "value": 127}, "group": "control_change"}, {"time": 3271, "annotation": {"number": 64, "value": 0}, "group": "control_change"}, {"time": 3275, "annotation": {"number": 64, "value": 127}, "group": "control_change"}, {"time": 3369, "annotation": {"number": 64, "value": 0}, "group": "control_change"}, {"time": 3374, "annotation": {"number": 64, "value": 127}, "group": "control_change"}, {"time": 3417, "annotation": {"number": 64, "value": 0}, "group": "control_change"}, {"time": 3424, "annotation": {"number": 64, "value": 127}, "group": "control_change"}, {"time": 3466, "annotation": {"number": 64, "value": 0}, "group": "control_change"}, {"time": 3475, "annotation": {"number": 64, "value": 127}, "group": "control_change"}, {"time": 3514, "annotation": {"number": 64, "value": 0}, "group": "control_change"}, {"time": 3522, "annotation": {"number": 64, "value": 127}, "group": "control_change"}, {"time": 3559, "annotation": {"number": 64, "value": 0}, "group": "control_change"}, {"time": 3567, "annotation": {"number": 64, "value": 127}, "group": "control_change"}, {"time": 3608, "annotation": {"number": 64, "value": 0}, "group": "control_change"}, {"time": 3615, "annotation": {"number": 64, "value": 127}, "group": "control_change"}, {"time": 3656, "annotation": {"number": 64, "value": 0}, "group": "control_change"}, {"time": 3658, "annotation": {"number": 64, "value": 127}, "group": "control_change"}, {"time": 3664, "annotation": {"number": 64, "value": 127}, "group": "control_change"}, {"time": 3692, "annotation": {"number": 64, "value": 0}, "group": "control_change"}, {"time": 3703, "annotation": {"number": 64, "value": 0}, "group": "control_change"}, {"time": 3709, "annotation": {"number": 64, "value": 127}, "group": "control_change"}, {"time": 3755, "annotation": {"number": 64, "value": 0}, "group": "control_change"}, {"time": 3764, "annotation": {"number": 64, "value": 127}, "group": "control_change"}, {"time": 3802, "annotation": {"number": 64, "value": 0}, "group": "control_change"}, {"time": 3812, "annotation": {"number": 64, "value": 127}, "group": "control_change"}, {"time": 3849, "annotation": {"number": 64, "value": 0}, "group": "control_change"}, {"time": 3859, "annotation": {"number": 64, "value": 127}, "group": "control_change"}, {"time": 3896, "annotation": {"number": 64, "value": 0}, "group": "control_change"}, {"time": 3906, "annotation": {"number": 64, "value": 127}, "group": "control_change"}, {"time": 3944, "annotation": {"number": 64, "value": 0}, "group": "control_change"}, {"time": 3952, "annotation": {"number": 64, "value": 127}, "group": "control_change"}, {"time": 3994, "annotation": {"number": 64, "value": 0}, "group": "control_change"}, {"time": 4001, "annotation": {"number": 64, "value": 127}, "group": "control_change"}, {"time": 4038, "annotation": {"number": 64, "value": 0}, "group": "control_change"}, {"time": 4045, "annotation": {"number": 64, "value": 127}, "group": "control_change"}, {"time": 4066, "annotation": {"number": 64, "value": 0}, "group": "control_change"}, {"time": 4074, "annotation": {"number": 64, "value": 127}, "group": "control_change"}, {"time": 4089, "annotation": {"number": 64, "value": 0}, "group": "control_change"}, {"time": 4099, "annotation": {"number": 64, "value": 127}, "group": "control_change"}, {"time": 4136, "annotation": {"number": 64, "value": 0}, "group": "control_change"}, {"time": 4140, "annotation": {"number": 64, "value": 127}, "group": "control_change"}, {"time": 4183, "annotation": {"number": 64, "value": 0}, "group": "control_change"}, {"time": 4192, "annotation": {"number": 64, "value": 127}, "group": "control_change"}, {"time": 4192, "annotation": {"number": 64, "value": 0}, "group": "control_change"}, {"time": 4232, "annotation": {"number": 64, "value": 0}, "group": "control_change"}, {"time": 4238, "annotation": {"number": 64, "value": 127}, "group": "control_change"}, {"time": 4280, "annotation": {"number": 64, "value": 0}, "group": "control_change"}, {"time": 4289, "annotation": {"number": 64, "value": 127}, "group": "control_change"}, {"time": 4328, "annotation": {"number": 64, "value": 0}, "group": "control_change"}, {"time": 4338, "annotation": {"number": 64, "value": 127}, "group": "control_change"}, {"time": 4363, "annotation": {"number": 64, "value": 0}, "group": "control_change"}, {"time": 4389, "annotation": {"number": 64, "value": 127}, "group": "control_change"}, {"time": 4424, "annotation": {"number": 64, "value": 0}, "group": "control_change"}, {"time": 4435, "annotation": {"number": 64, "value": 127}, "group": "control_change"}, {"time": 4472, "annotation": {"number": 64, "value": 0}, "group": "control_change"}, {"time": 4476, "annotation": {"number": 64, "value": 127}, "group": "control_change"}, {"time": 4522, "annotation": {"number": 64, "value": 0}, "group": "control_change"}, {"time": 4530, "annotation": {"number": 64, "value": 127}, "group": "control_change"}, {"time": 4613, "annotation": {"number": 64, "value": 0}, "group": "control_change"}, {"time": 4618, "annotation": {"number": 64, "value": 127}, "group": "control_change"}, {"time": 4666, "annotation": {"number": 64, "value": 0}, "group": "control_change"}, {"time": 4670, "annotation": {"number": 64, "value": 127}, "group": "control_change"}, {"time": 4713, "annotation": {"number": 64, "value": 0}, "group": "control_change"}, {"time": 4718, "annotation": {"number": 64, "value": 127}, "group": "control_change"}, {"time": 4762, "annotation": {"number": 64, "value": 0}, "group": "control_change"}, {"time": 4762, "annotation": {"number": 64, "value": 127}, "group": "control_change"}, {"time": 4767, "annotation": {"number": 64, "value": 127}, "group": "control_change"}, {"time": 4805, "annotation": {"number": 64, "value": 0}, "group": "control_change"}, {"time": 4809, "annotation": {"number": 64, "value": 0}, "group": "control_change"}, {"time": 4815, "annotation": {"number": 64, "value": 127}, "group": "control_change"}, {"time": 4856, "annotation": {"number": 64, "value": 0}, "group": "control_change"}, {"time": 4860, "annotation": {"number": 64, "value": 127}, "group": "control_change"}, {"time": 4908, "annotation": {"number": 64, "value": 0}, "group": "control_change"}, {"time": 4912, "annotation": {"number": 64, "value": 127}, "group": "control_change"}, {"time": 4954, "annotation": {"number": 64, "value": 0}, "group": "control_change"}, {"time": 4958, "annotation": {"number": 64, "value": 127}, "group": "control_change"}, {"time": 5002, "annotation": {"number": 64, "value": 0}, "group": "control_change"}, {"time": 5006, "annotation": {"number": 64, "value": 127}, "group": "control_change"}, {"time": 5048, "annotation": {"number": 64, "value": 0}, "group": "control_change"}, {"time": 5052, "annotation": {"number": 64, "value": 127}, "group": "control_change"}, {"time": 5098, "annotation": {"number": 64, "value": 0}, "group": "control_change"}, {"time": 5103, "annotation": {"number": 64, "value": 127}, "group": "control_change"}, {"time": 5142, "annotation": {"number": 64, "value": 0}, "group": "control_change"}, {"time": 5146, "annotation": {"number": 64, "value": 127}, "group": "control_change"}, {"time": 5175, "annotation": {"number": 64, "value": 0}, "group": "control_change"}, {"time": 5179, "annotation": {"number": 64, "value": 127}, "group": "control_change"}, {"time": 5194, "annotation": {"number": 64, "value": 0}, "group": "control_change"}, {"time": 5199, "annotation": {"number": 64, "value": 127}, "group": "control_change"}, {"time": 5240, "annotation": {"number": 64, "value": 0}, "group": "control_change"}, {"time": 5244, "annotation": {"number": 64, "value": 127}, "group": "control_change"}, {"time": 5267, "annotation": {"number": 64, "value": 0}, "group": "control_change"}, {"time": 5271, "annotation": {"number": 64, "value": 127}, "group": "control_change"}, {"time": 5291, "annotation": {"number": 64, "value": 0}, "group": "control_change"}, {"time": 5296, "annotation": {"number": 64, "value": 127}, "group": "control_change"}, {"time": 5335, "annotation": {"number": 64, "value": 0}, "group": "control_change"}, {"time": 5340, "annotation": {"number": 64, "value": 127}, "group": "control_change"}, {"time": 5386, "annotation": {"number": 64, "value": 0}, "group": "control_change"}, {"time": 5390, "annotation": {"number": 64, "value": 127}, "group": "control_change"}, {"time": 5432, "annotation": {"number": 64, "value": 0}, "group": "control_change"}, {"time": 5436, "annotation": {"number": 64, "value": 127}, "group": "control_change"}, {"time": 5479, "annotation": {"number": 64, "value": 0}, "group": "control_change"}, {"time": 5480, "annotation": {"number": 64, "value": 127}, "group": "control_change"}, {"time": 5529, "annotation": {"number": 64, "value": 0}, "group": "control_change"}, {"time": 5535, "annotation": {"number": 64, "value": 127}, "group": "control_change"}, {"time": 5578, "annotation": {"number": 64, "value": 0}, "group": "control_change"}, {"time": 5581, "annotation": {"number": 64, "value": 127}, "group": "control_change"}, {"time": 5624, "annotation": {"number": 64, "value": 0}, "group": "control_change"}, {"time": 5625, "annotation": {"number": 64, "value": 127}, "group": "control_change"}, {"time": 5650, "annotation": {"number": 64, "value": 0}, "group": "control_change"}, {"time": 5654, "annotation": {"number": 64, "value": 127}, "group": "control_change"}, {"time": 5674, "annotation": {"number": 64, "value": 0}, "group": "control_change"}, {"time": 5678, "annotation": {"number": 64, "value": 127}, "group": "control_change"}, {"time": 5721, "annotation": {"number": 64, "value": 0}, "group": "control_change"}, {"time": 5725, "annotation": {"number": 64, "value": 127}, "group": "control_change"}, {"time": 5746, "annotation": {"number": 64, "value": 0}, "group": "control_change"}, {"time": 5750, "annotation": {"number": 64, "value": 127}, "group": "control_change"}, {"time": 5771, "annotation": {"number": 64, "value": 0}, "group": "control_change"}, {"time": 5774, "annotation": {"number": 64, "value": 127}, "group": "control_change"}, {"time": 5817, "annotation": {"number": 64, "value": 0}, "group": "control_change"}, {"time": 5820, "annotation": {"number": 64, "value": 127}, "group": "control_change"}, {"time": 5863, "annotation": {"number": 64, "value": 0}, "group": "control_change"}, {"time": 5866, "annotation": {"number": 64, "value": 127}, "group": "control_change"}, {"time": 5912, "annotation": {"number": 64, "value": 0}, "group": "control_change"}, {"time": 5917, "annotation": {"number": 64, "value": 127}, "group": "control_change"}, {"time": 5960, "annotation": {"number": 64, "value": 0}, "group": "control_change"}, {"time": 5963, "annotation": {"number": 64, "value": 127}, "group": "control_change"}, {"time": 6008, "annotation": {"number": 64, "value": 0}, "group": "control_change"}, {"time": 6012, "annotation": {"number": 64, "value": 127}, "group": "control_change"}, {"time": 6034, "annotation": {"number": 64, "value": 0}, "group": "control_change"}, {"time": 6038, "annotation": {"number": 64, "value": 127}, "group": "control_change"}, {"time": 6057, "annotation": {"number": 64, "value": 0}, "group": "control_change"}, {"time": 6061, "annotation": {"number": 64, "value": 127}, "group": "control_change"}, {"time": 6105, "annotation": {"number": 64, "value": 0}, "group": "control_change"}, {"time": 6109, "annotation": {"number": 64, "value": 127}, "group": "control_change"}, {"time": 6129, "annotation": {"number": 64, "value": 0}, "group": "control_change"}, {"time": 6133, "annotation": {"number": 64, "value": 127}, "group": "control_change"}, {"time": 6154, "annotation": {"number": 64, "value": 0}, "group": "control_change"}, {"time": 6158, "annotation": {"number": 64, "value": 127}, "group": "control_change"}, {"time": 6203, "annotation": {"number": 64, "value": 0}, "group": "control_change"}, {"time": 6208, "annotation": {"number": 64, "value": 127}, "group": "control_change"}, {"time": 6298, "annotation": {"number": 64, "value": 0}, "group": "control_change"}, {"time": 6302, "annotation": {"number": 64, "value": 127}, "group": "control_change"}, {"time": 6347, "annotation": {"number": 64, "value": 0}, "group": "control_change"}, {"time": 6350, "annotation": {"number": 64, "value": 127}, "group": "control_change"}, {"time": 6392, "annotation": {"number": 64, "value": 0}, "group": "control_change"}, {"time": 6395, "annotation": {"number": 64, "value": 127}, "group": "control_change"}, {"time": 6417, "annotation": {"number": 64, "value": 0}, "group": "control_change"}, {"time": 6420, "annotation": {"number": 64, "value": 127}, "group": "control_change"}, {"time": 6440, "annotation": {"number": 64, "value": 0}, "group": "control_change"}, {"time": 6444, "annotation": {"number": 64, "value": 127}, "group": "control_change"}, {"time": 6509, "annotation": {"number": 64, "value": 0}, "group": "control_change"}, {"time": 6511, "annotation": {"number": 64, "value": 127}, "group": "control_change"}, {"time": 6582, "annotation": {"number": 64, "value": 0}, "group": "control_change"}, {"time": 6608, "annotation": {"number": 64, "value": 127}, "group": "control_change"}, {"time": 6657, "annotation": {"number": 64, "value": 0}, "group": "control_change"}, {"time": 6661, "annotation": {"number": 64, "value": 127}, "group": "control_change"}, {"time": 6704, "annotation": {"number": 64, "value": 0}, "group": "control_change"}, {"time": 6707, "annotation": {"number": 64, "value": 127}, "group": "control_change"}, {"time": 6753, "annotation": {"number": 64, "value": 0}, "group": "control_change"}, {"time": 6756, "annotation": {"number": 64, "value": 127}, "group": "control_change"}, {"time": 6874, "annotation": {"number": 64, "value": 0}, "group": "control_change"}, {"time": 6876, "annotation": {"number": 64, "value": 127}, "group": "control_change"}]}]}