{"metadata": {"schema_version": "0.2", "title": "None", "source_filename": "261.mid", "source_format": "midi"}, "resolution": 12, "tempos": [{"time": 0, "qpm": 134.00065660321735}], "time_signatures": [{"time": 0, "numerator": 4, "denominator": 4}], "tracks": [{"program": 4, "is_drum": false, "name": "MELODY", "notes": [{"time": 426, "pitch": 74, "duration": 6, "velocity": 76}, {"time": 432, "pitch": 76, "duration": 6, "velocity": 79}, {"time": 438, "pitch": 78, "duration": 12, "velocity": 90}, {"time": 450, "pitch": 69, "duration": 12, "velocity": 68}, {"time": 462, "pitch": 74, "duration": 12, "velocity": 64}, {"time": 474, "pitch": 78, "duration": 7, "velocity": 92}, {"time": 480, "pitch": 76, "duration": 14, "velocity": 87}, {"time": 492, "pitch": 78, "duration": 30, "velocity": 91}, {"time": 522, "pitch": 74, "duration": 6, "velocity": 82}, {"time": 528, "pitch": 73, "duration": 7, "velocity": 87}, {"time": 534, "pitch": 74, "duration": 12, "velocity": 95}, {"time": 546, "pitch": 71, "duration": 6, "velocity": 85}, {"time": 552, "pitch": 71, "duration": 66, "velocity": 90}, {"time": 618, "pitch": 74, "duration": 6, "velocity": 90}, {"time": 624, "pitch": 76, "duration": 7, "velocity": 87}, {"time": 630, "pitch": 78, "duration": 12, "velocity": 93}, {"time": 642, "pitch": 69, "duration": 12, "velocity": 74}, {"time": 654, "pitch": 74, "duration": 12, "velocity": 82}, {"time": 666, "pitch": 78, "duration": 6, "velocity": 58}, {"time": 672, "pitch": 76, "duration": 12, "velocity": 69}, {"time": 684, "pitch": 78, "duration": 30, "velocity": 87}, {"time": 714, "pitch": 74, "duration": 6, "velocity": 98}, {"time": 720, "pitch": 73, "duration": 6, "velocity": 72}, {"time": 726, "pitch": 74, "duration": 12, "velocity": 90}, {"time": 738, "pitch": 78, "duration": 72, "velocity": 101}, {"time": 810, "pitch": 81, "duration": 6, "velocity": 103}, {"time": 816, "pitch": 78, "duration": 6, "velocity": 97}, {"time": 822, "pitch": 79, "duration": 12, "velocity": 101}, {"time": 834, "pitch": 79, "duration": 12, "velocity": 89}, {"time": 846, "pitch": 79, "duration": 12, "velocity": 97}, {"time": 858, "pitch": 78, "duration": 6, "velocity": 101}, {"time": 864, "pitch": 74, "duration": 42, "velocity": 87}, {"time": 906, "pitch": 74, "duration": 12, "velocity": 95}, {"time": 918, "pitch": 79, "duration": 12, "velocity": 105}, {"time": 930, "pitch": 79, "duration": 12, "velocity": 95}, {"time": 942, "pitch": 79, "duration": 12, "velocity": 99}, {"time": 954, "pitch": 78, "duration": 7, "velocity": 91}, {"time": 960, "pitch": 79, "duration": 12, "velocity": 93}, {"time": 972, "pitch": 81, "duration": 30, "velocity": 99}, {"time": 1002, "pitch": 83, "duration": 12, "velocity": 103}, {"time": 1014, "pitch": 81, "duration": 96, "velocity": 114}, {"time": 1194, "pitch": 74, "duration": 6, "velocity": 76}, {"time": 1200, "pitch": 76, "duration": 6, "velocity": 79}, {"time": 1206, "pitch": 78, "duration": 12, "velocity": 90}, {"time": 1218, "pitch": 69, "duration": 12, "velocity": 68}, {"time": 1230, "pitch": 74, "duration": 12, "velocity": 64}, {"time": 1242, "pitch": 78, "duration": 7, "velocity": 92}, {"time": 1248, "pitch": 76, "duration": 14, "velocity": 87}, {"time": 1260, "pitch": 78, "duration": 30, "velocity": 91}, {"time": 1290, "pitch": 74, "duration": 6, "velocity": 82}, {"time": 1296, "pitch": 73, "duration": 7, "velocity": 87}, {"time": 1302, "pitch": 74, "duration": 12, "velocity": 95}, {"time": 1314, "pitch": 71, "duration": 6, "velocity": 85}, {"time": 1320, "pitch": 71, "duration": 66, "velocity": 90}, {"time": 1386, "pitch": 74, "duration": 6, "velocity": 90}, {"time": 1392, "pitch": 76, "duration": 7, "velocity": 87}, {"time": 1398, "pitch": 78, "duration": 12, "velocity": 93}, {"time": 1410, "pitch": 69, "duration": 12, "velocity": 74}, {"time": 1422, "pitch": 74, "duration": 12, "velocity": 82}, {"time": 1434, "pitch": 78, "duration": 6, "velocity": 58}, {"time": 1440, "pitch": 76, "duration": 12, "velocity": 69}, {"time": 1452, "pitch": 78, "duration": 30, "velocity": 87}, {"time": 1482, "pitch": 74, "duration": 6, "velocity": 98}, {"time": 1488, "pitch": 73, "duration": 6, "velocity": 72}, {"time": 1494, "pitch": 74, "duration": 12, "velocity": 90}, {"time": 1506, "pitch": 78, "duration": 72, "velocity": 101}, {"time": 1578, "pitch": 81, "duration": 6, "velocity": 103}, {"time": 1584, "pitch": 78, "duration": 6, "velocity": 97}, {"time": 1590, "pitch": 79, "duration": 12, "velocity": 101}, {"time": 1602, "pitch": 79, "duration": 12, "velocity": 89}, {"time": 1614, "pitch": 79, "duration": 12, "velocity": 97}, {"time": 1626, "pitch": 78, "duration": 6, "velocity": 101}, {"time": 1632, "pitch": 74, "duration": 42, "velocity": 87}, {"time": 1674, "pitch": 74, "duration": 12, "velocity": 95}, {"time": 1686, "pitch": 79, "duration": 12, "velocity": 105}, {"time": 1698, "pitch": 79, "duration": 12, "velocity": 95}, {"time": 1710, "pitch": 79, "duration": 12, "velocity": 99}, {"time": 1722, "pitch": 78, "duration": 7, "velocity": 91}, {"time": 1728, "pitch": 79, "duration": 18, "velocity": 93}, {"time": 1746, "pitch": 81, "duration": 24, "velocity": 99}, {"time": 1770, "pitch": 83, "duration": 12, "velocity": 103}, {"time": 1782, "pitch": 81, "duration": 96, "velocity": 114}, {"time": 1950, "pitch": 90, "duration": 12, "velocity": 87}, {"time": 1962, "pitch": 88, "duration": 12, "velocity": 100}, {"time": 1974, "pitch": 90, "duration": 24, "velocity": 105}, {"time": 1998, "pitch": 88, "duration": 12, "velocity": 106}, {"time": 2010, "pitch": 86, "duration": 6, "velocity": 91}, {"time": 2016, "pitch": 88, "duration": 30, "velocity": 106}, {"time": 2046, "pitch": 86, "duration": 12, "velocity": 103}, {"time": 2058, "pitch": 85, "duration": 12, "velocity": 97}, {"time": 2070, "pitch": 86, "duration": 12, "velocity": 93}, {"time": 2082, "pitch": 85, "duration": 12, "velocity": 91}, {"time": 2094, "pitch": 83, "duration": 12, "velocity": 90}, {"time": 2106, "pitch": 85, "duration": 6, "velocity": 75}, {"time": 2112, "pitch": 78, "duration": 42, "velocity": 77}, {"time": 2154, "pitch": 83, "duration": 6, "velocity": 99}, {"time": 2160, "pitch": 85, "duration": 7, "velocity": 90}, {"time": 2166, "pitch": 86, "duration": 12, "velocity": 99}, {"time": 2178, "pitch": 86, "duration": 6, "velocity": 101}, {"time": 2184, "pitch": 86, "duration": 18, "velocity": 101}, {"time": 2202, "pitch": 85, "duration": 6, "velocity": 93}, {"time": 2208, "pitch": 86, "duration": 7, "velocity": 90}, {"time": 2214, "pitch": 88, "duration": 12, "velocity": 103}, {"time": 2226, "pitch": 88, "duration": 12, "velocity": 93}, {"time": 2238, "pitch": 88, "duration": 9, "velocity": 100}, {"time": 2247, "pitch": 86, "duration": 9, "velocity": 92}, {"time": 2256, "pitch": 88, "duration": 7, "velocity": 98}, {"time": 2262, "pitch": 90, "duration": 72, "velocity": 105}, {"time": 2334, "pitch": 90, "duration": 14, "velocity": 94}, {"time": 2346, "pitch": 88, "duration": 12, "velocity": 99}, {"time": 2358, "pitch": 90, "duration": 24, "velocity": 103}, {"time": 2382, "pitch": 88, "duration": 12, "velocity": 99}, {"time": 2394, "pitch": 86, "duration": 6, "velocity": 84}, {"time": 2400, "pitch": 88, "duration": 30, "velocity": 99}, {"time": 2430, "pitch": 88, "duration": 12, "velocity": 100}, {"time": 2442, "pitch": 90, "duration": 12, "velocity": 99}, {"time": 2454, "pitch": 91, "duration": 12, "velocity": 93}, {"time": 2466, "pitch": 90, "duration": 12, "velocity": 97}, {"time": 2478, "pitch": 88, "duration": 12, "velocity": 98}, {"time": 2490, "pitch": 91, "duration": 6, "velocity": 90}, {"time": 2496, "pitch": 90, "duration": 12, "velocity": 90}, {"time": 2508, "pitch": 83, "duration": 30, "velocity": 93}, {"time": 2538, "pitch": 83, "duration": 6, "velocity": 89}, {"time": 2544, "pitch": 85, "duration": 6, "velocity": 66}, {"time": 2550, "pitch": 86, "duration": 7, "velocity": 68}, {"time": 2556, "pitch": 85, "duration": 6, "velocity": 66}, {"time": 2562, "pitch": 83, "duration": 6, "velocity": 62}, {"time": 2568, "pitch": 86, "duration": 13, "velocity": 81}, {"time": 2580, "pitch": 85, "duration": 6, "velocity": 53}, {"time": 2586, "pitch": 86, "duration": 12, "velocity": 63}, {"time": 2598, "pitch": 88, "duration": 7, "velocity": 92}, {"time": 2604, "pitch": 86, "duration": 6, "velocity": 68}, {"time": 2610, "pitch": 85, "duration": 6, "velocity": 62}, {"time": 2616, "pitch": 88, "duration": 13, "velocity": 84}, {"time": 2628, "pitch": 86, "duration": 6, "velocity": 92}, {"time": 2634, "pitch": 88, "duration": 12, "velocity": 77}, {"time": 2646, "pitch": 86, "duration": 12, "velocity": 95}, {"time": 2658, "pitch": 83, "duration": 6, "velocity": 99}, {"time": 2664, "pitch": 83, "duration": 36, "velocity": 91}, {"time": 2826, "pitch": 74, "duration": 5, "velocity": 76}, {"time": 2832, "pitch": 76, "duration": 5, "velocity": 79}, {"time": 2838, "pitch": 78, "duration": 11, "velocity": 90}, {"time": 2850, "pitch": 69, "duration": 11, "velocity": 68}, {"time": 2862, "pitch": 74, "duration": 11, "velocity": 64}, {"time": 2874, "pitch": 78, "duration": 6, "velocity": 92}, {"time": 2880, "pitch": 76, "duration": 13, "velocity": 87}, {"time": 2892, "pitch": 78, "duration": 29, "velocity": 91}, {"time": 2922, "pitch": 74, "duration": 5, "velocity": 82}, {"time": 2928, "pitch": 73, "duration": 6, "velocity": 87}, {"time": 2934, "pitch": 74, "duration": 11, "velocity": 95}, {"time": 2946, "pitch": 71, "duration": 5, "velocity": 85}, {"time": 2952, "pitch": 71, "duration": 65, "velocity": 90}, {"time": 3018, "pitch": 74, "duration": 5, "velocity": 90}, {"time": 3024, "pitch": 76, "duration": 6, "velocity": 87}, {"time": 3030, "pitch": 78, "duration": 11, "velocity": 93}, {"time": 3042, "pitch": 69, "duration": 12, "velocity": 74}, {"time": 3054, "pitch": 74, "duration": 11, "velocity": 82}, {"time": 3066, "pitch": 81, "duration": 5, "velocity": 58}, {"time": 3072, "pitch": 81, "duration": 11, "velocity": 69}, {"time": 3084, "pitch": 78, "duration": 29, "velocity": 87}, {"time": 3114, "pitch": 74, "duration": 5, "velocity": 98}, {"time": 3120, "pitch": 73, "duration": 5, "velocity": 72}, {"time": 3126, "pitch": 74, "duration": 11, "velocity": 90}, {"time": 3138, "pitch": 78, "duration": 71, "velocity": 101}, {"time": 3210, "pitch": 81, "duration": 5, "velocity": 103}, {"time": 3216, "pitch": 78, "duration": 5, "velocity": 97}, {"time": 3222, "pitch": 79, "duration": 11, "velocity": 101}, {"time": 3234, "pitch": 79, "duration": 11, "velocity": 89}, {"time": 3246, "pitch": 79, "duration": 11, "velocity": 97}, {"time": 3258, "pitch": 78, "duration": 5, "velocity": 101}, {"time": 3264, "pitch": 74, "duration": 41, "velocity": 87}, {"time": 3306, "pitch": 74, "duration": 11, "velocity": 95}, {"time": 3318, "pitch": 79, "duration": 11, "velocity": 105}, {"time": 3330, "pitch": 79, "duration": 11, "velocity": 95}, {"time": 3342, "pitch": 79, "duration": 11, "velocity": 99}, {"time": 3354, "pitch": 78, "duration": 6, "velocity": 91}, {"time": 3360, "pitch": 79, "duration": 11, "velocity": 93}, {"time": 3372, "pitch": 81, "duration": 29, "velocity": 99}, {"time": 3402, "pitch": 83, "duration": 11, "velocity": 103}, {"time": 3414, "pitch": 81, "duration": 95, "velocity": 114}, {"time": 3582, "pitch": 90, "duration": 11, "velocity": 87}, {"time": 3594, "pitch": 88, "duration": 11, "velocity": 100}, {"time": 3606, "pitch": 90, "duration": 23, "velocity": 105}, {"time": 3630, "pitch": 88, "duration": 11, "velocity": 106}, {"time": 3642, "pitch": 86, "duration": 5, "velocity": 91}, {"time": 3648, "pitch": 88, "duration": 29, "velocity": 106}, {"time": 3678, "pitch": 86, "duration": 11, "velocity": 103}, {"time": 3690, "pitch": 85, "duration": 11, "velocity": 97}, {"time": 3702, "pitch": 86, "duration": 12, "velocity": 93}, {"time": 3714, "pitch": 85, "duration": 11, "velocity": 91}, {"time": 3726, "pitch": 83, "duration": 12, "velocity": 90}, {"time": 3738, "pitch": 85, "duration": 5, "velocity": 75}, {"time": 3744, "pitch": 78, "duration": 41, "velocity": 77}, {"time": 3786, "pitch": 83, "duration": 5, "velocity": 99}, {"time": 3792, "pitch": 85, "duration": 6, "velocity": 90}, {"time": 3798, "pitch": 86, "duration": 11, "velocity": 99}, {"time": 3810, "pitch": 86, "duration": 5, "velocity": 101}, {"time": 3816, "pitch": 86, "duration": 17, "velocity": 101}, {"time": 3834, "pitch": 85, "duration": 5, "velocity": 93}, {"time": 3840, "pitch": 86, "duration": 6, "velocity": 90}, {"time": 3846, "pitch": 88, "duration": 11, "velocity": 103}, {"time": 3858, "pitch": 88, "duration": 11, "velocity": 93}, {"time": 3870, "pitch": 88, "duration": 8, "velocity": 100}, {"time": 3879, "pitch": 86, "duration": 8, "velocity": 92}, {"time": 3888, "pitch": 88, "duration": 6, "velocity": 98}, {"time": 3894, "pitch": 90, "duration": 48, "velocity": 105}, {"time": 3966, "pitch": 90, "duration": 13, "velocity": 94}, {"time": 3978, "pitch": 88, "duration": 11, "velocity": 99}, {"time": 3990, "pitch": 90, "duration": 23, "velocity": 103}, {"time": 4014, "pitch": 88, "duration": 11, "velocity": 99}, {"time": 4026, "pitch": 86, "duration": 5, "velocity": 84}, {"time": 4032, "pitch": 88, "duration": 29, "velocity": 99}, {"time": 4062, "pitch": 88, "duration": 11, "velocity": 100}, {"time": 4074, "pitch": 90, "duration": 11, "velocity": 99}, {"time": 4086, "pitch": 91, "duration": 11, "velocity": 93}, {"time": 4098, "pitch": 90, "duration": 11, "velocity": 97}, {"time": 4110, "pitch": 88, "duration": 11, "velocity": 98}, {"time": 4122, "pitch": 91, "duration": 5, "velocity": 90}, {"time": 4128, "pitch": 90, "duration": 11, "velocity": 90}, {"time": 4140, "pitch": 83, "duration": 29, "velocity": 93}, {"time": 4170, "pitch": 83, "duration": 5, "velocity": 89}, {"time": 4176, "pitch": 85, "duration": 5, "velocity": 66}, {"time": 4182, "pitch": 86, "duration": 6, "velocity": 68}, {"time": 4188, "pitch": 85, "duration": 6, "velocity": 66}, {"time": 4194, "pitch": 83, "duration": 6, "velocity": 62}, {"time": 4200, "pitch": 86, "duration": 12, "velocity": 81}, {"time": 4212, "pitch": 85, "duration": 6, "velocity": 53}, {"time": 4218, "pitch": 86, "duration": 11, "velocity": 63}, {"time": 4230, "pitch": 88, "duration": 6, "velocity": 92}, {"time": 4236, "pitch": 86, "duration": 6, "velocity": 68}, {"time": 4242, "pitch": 85, "duration": 5, "velocity": 62}, {"time": 4248, "pitch": 88, "duration": 12, "velocity": 84}, {"time": 4260, "pitch": 86, "duration": 5, "velocity": 92}, {"time": 4266, "pitch": 88, "duration": 11, "velocity": 77}, {"time": 4278, "pitch": 86, "duration": 11, "velocity": 95}, {"time": 4290, "pitch": 83, "duration": 5, "velocity": 99}, {"time": 4296, "pitch": 83, "duration": 66, "velocity": 91}, {"time": 5070, "pitch": 90, "duration": 11, "velocity": 87}, {"time": 5082, "pitch": 88, "duration": 11, "velocity": 100}, {"time": 5094, "pitch": 90, "duration": 23, "velocity": 105}, {"time": 5118, "pitch": 88, "duration": 11, "velocity": 106}, {"time": 5130, "pitch": 86, "duration": 6, "velocity": 91}, {"time": 5136, "pitch": 88, "duration": 29, "velocity": 106}, {"time": 5166, "pitch": 86, "duration": 11, "velocity": 103}, {"time": 5178, "pitch": 85, "duration": 11, "velocity": 97}, {"time": 5190, "pitch": 86, "duration": 12, "velocity": 93}, {"time": 5202, "pitch": 85, "duration": 11, "velocity": 91}, {"time": 5214, "pitch": 83, "duration": 12, "velocity": 90}, {"time": 5226, "pitch": 85, "duration": 5, "velocity": 75}, {"time": 5232, "pitch": 78, "duration": 41, "velocity": 77}, {"time": 5274, "pitch": 83, "duration": 5, "velocity": 99}, {"time": 5280, "pitch": 85, "duration": 6, "velocity": 90}, {"time": 5286, "pitch": 86, "duration": 11, "velocity": 99}, {"time": 5298, "pitch": 86, "duration": 5, "velocity": 101}, {"time": 5304, "pitch": 86, "duration": 17, "velocity": 101}, {"time": 5322, "pitch": 85, "duration": 5, "velocity": 93}, {"time": 5328, "pitch": 86, "duration": 6, "velocity": 90}, {"time": 5334, "pitch": 88, "duration": 11, "velocity": 103}, {"time": 5346, "pitch": 88, "duration": 11, "velocity": 93}, {"time": 5358, "pitch": 88, "duration": 8, "velocity": 100}, {"time": 5367, "pitch": 86, "duration": 8, "velocity": 92}, {"time": 5376, "pitch": 88, "duration": 6, "velocity": 98}, {"time": 5382, "pitch": 90, "duration": 48, "velocity": 105}, {"time": 5454, "pitch": 90, "duration": 13, "velocity": 94}, {"time": 5466, "pitch": 88, "duration": 11, "velocity": 99}, {"time": 5478, "pitch": 90, "duration": 23, "velocity": 103}, {"time": 5502, "pitch": 88, "duration": 11, "velocity": 99}, {"time": 5514, "pitch": 86, "duration": 5, "velocity": 84}, {"time": 5520, "pitch": 88, "duration": 29, "velocity": 99}, {"time": 5550, "pitch": 88, "duration": 11, "velocity": 100}, {"time": 5562, "pitch": 90, "duration": 11, "velocity": 99}, {"time": 5574, "pitch": 91, "duration": 11, "velocity": 93}, {"time": 5586, "pitch": 90, "duration": 11, "velocity": 97}, {"time": 5598, "pitch": 88, "duration": 11, "velocity": 98}, {"time": 5610, "pitch": 91, "duration": 5, "velocity": 90}, {"time": 5616, "pitch": 90, "duration": 11, "velocity": 90}, {"time": 5628, "pitch": 83, "duration": 29, "velocity": 93}, {"time": 5658, "pitch": 83, "duration": 5, "velocity": 89}, {"time": 5664, "pitch": 85, "duration": 5, "velocity": 66}, {"time": 5670, "pitch": 86, "duration": 6, "velocity": 68}, {"time": 5676, "pitch": 85, "duration": 6, "velocity": 66}, {"time": 5682, "pitch": 83, "duration": 6, "velocity": 62}, {"time": 5688, "pitch": 86, "duration": 12, "velocity": 81}, {"time": 5700, "pitch": 85, "duration": 6, "velocity": 53}, {"time": 5706, "pitch": 86, "duration": 11, "velocity": 63}, {"time": 5718, "pitch": 88, "duration": 6, "velocity": 92}, {"time": 5724, "pitch": 86, "duration": 6, "velocity": 68}, {"time": 5730, "pitch": 85, "duration": 5, "velocity": 62}, {"time": 5736, "pitch": 88, "duration": 12, "velocity": 84}, {"time": 5748, "pitch": 86, "duration": 5, "velocity": 92}, {"time": 5754, "pitch": 88, "duration": 11, "velocity": 77}, {"time": 5766, "pitch": 86, "duration": 11, "velocity": 95}, {"time": 5778, "pitch": 83, "duration": 5, "velocity": 99}, {"time": 5784, "pitch": 83, "duration": 51, "velocity": 91}, {"time": 5838, "pitch": 90, "duration": 13, "velocity": 94}, {"time": 5850, "pitch": 88, "duration": 12, "velocity": 99}, {"time": 5862, "pitch": 90, "duration": 23, "velocity": 103}, {"time": 5886, "pitch": 88, "duration": 11, "velocity": 99}, {"time": 5898, "pitch": 86, "duration": 5, "velocity": 84}, {"time": 5904, "pitch": 88, "duration": 29, "velocity": 99}, {"time": 5934, "pitch": 88, "duration": 11, "velocity": 100}, {"time": 5946, "pitch": 90, "duration": 11, "velocity": 99}, {"time": 5958, "pitch": 91, "duration": 11, "velocity": 93}, {"time": 5970, "pitch": 90, "duration": 11, "velocity": 97}, {"time": 5982, "pitch": 88, "duration": 11, "velocity": 98}, {"time": 5994, "pitch": 91, "duration": 5, "velocity": 90}, {"time": 6000, "pitch": 90, "duration": 11, "velocity": 90}, {"time": 6012, "pitch": 83, "duration": 29, "velocity": 93}, {"time": 6042, "pitch": 83, "duration": 5, "velocity": 89}, {"time": 6048, "pitch": 85, "duration": 5, "velocity": 66}, {"time": 6054, "pitch": 86, "duration": 6, "velocity": 68}, {"time": 6060, "pitch": 85, "duration": 6, "velocity": 66}, {"time": 6066, "pitch": 83, "duration": 6, "velocity": 62}, {"time": 6072, "pitch": 86, "duration": 12, "velocity": 81}, {"time": 6084, "pitch": 85, "duration": 6, "velocity": 53}, {"time": 6090, "pitch": 86, "duration": 11, "velocity": 63}, {"time": 6102, "pitch": 88, "duration": 6, "velocity": 92}, {"time": 6108, "pitch": 86, "duration": 6, "velocity": 68}, {"time": 6114, "pitch": 85, "duration": 5, "velocity": 62}, {"time": 6120, "pitch": 88, "duration": 12, "velocity": 84}, {"time": 6132, "pitch": 86, "duration": 5, "velocity": 92}, {"time": 6138, "pitch": 88, "duration": 11, "velocity": 77}, {"time": 6150, "pitch": 86, "duration": 11, "velocity": 95}, {"time": 6162, "pitch": 83, "duration": 5, "velocity": 99}, {"time": 6168, "pitch": 83, "duration": 66, "velocity": 91}, {"time": 6234, "pitch": 83, "duration": 5, "velocity": 89}, {"time": 6240, "pitch": 85, "duration": 5, "velocity": 66}, {"time": 6246, "pitch": 86, "duration": 6, "velocity": 68}, {"time": 6252, "pitch": 85, "duration": 6, "velocity": 66}, {"time": 6258, "pitch": 83, "duration": 6, "velocity": 62}, {"time": 6264, "pitch": 86, "duration": 12, "velocity": 81}, {"time": 6276, "pitch": 85, "duration": 6, "velocity": 53}, {"time": 6282, "pitch": 86, "duration": 11, "velocity": 63}, {"time": 6294, "pitch": 88, "duration": 6, "velocity": 92}, {"time": 6300, "pitch": 86, "duration": 6, "velocity": 68}, {"time": 6306, "pitch": 85, "duration": 5, "velocity": 62}, {"time": 6312, "pitch": 88, "duration": 12, "velocity": 84}, {"time": 6324, "pitch": 86, "duration": 5, "velocity": 92}, {"time": 6330, "pitch": 88, "duration": 11, "velocity": 77}, {"time": 6342, "pitch": 90, "duration": 24, "velocity": 95}, {"time": 6366, "pitch": 81, "duration": 12, "velocity": 99}, {"time": 6378, "pitch": 83, "duration": 78, "velocity": 91}]}, {"program": 0, "is_drum": false, "name": "PIANO", "notes": [{"time": 54, "pitch": 47, "duration": 88, "velocity": 80}, {"time": 54, "pitch": 59, "duration": 53, "velocity": 73}, {"time": 54, "pitch": 62, "duration": 15, "velocity": 82}, {"time": 54, "pitch": 66, "duration": 16, "velocity": 83}, {"time": 54, "pitch": 71, "duration": 15, "velocity": 79}, {"time": 75, "pitch": 62, "duration": 17, "velocity": 76}, {"time": 75, "pitch": 66, "duration": 17, "velocity": 77}, {"time": 75, "pitch": 71, "duration": 17, "velocity": 75}, {"time": 99, "pitch": 62, "duration": 19, "velocity": 58}, {"time": 99, "pitch": 66, "duration": 17, "velocity": 69}, {"time": 99, "pitch": 71, "duration": 18, "velocity": 62}, {"time": 117, "pitch": 59, "duration": 12, "velocity": 45}, {"time": 126, "pitch": 62, "duration": 13, "velocity": 69}, {"time": 126, "pitch": 66, "duration": 12, "velocity": 79}, {"time": 126, "pitch": 71, "duration": 13, "velocity": 75}, {"time": 138, "pitch": 59, "duration": 3, "velocity": 54}, {"time": 150, "pitch": 45, "duration": 85, "velocity": 77}, {"time": 150, "pitch": 57, "duration": 54, "velocity": 56}, {"time": 150, "pitch": 61, "duration": 17, "velocity": 77}, {"time": 150, "pitch": 64, "duration": 18, "velocity": 81}, {"time": 150, "pitch": 69, "duration": 17, "velocity": 79}, {"time": 174, "pitch": 61, "duration": 17, "velocity": 71}, {"time": 174, "pitch": 64, "duration": 18, "velocity": 60}, {"time": 174, "pitch": 69, "duration": 17, "velocity": 68}, {"time": 198, "pitch": 61, "duration": 16, "velocity": 69}, {"time": 198, "pitch": 64, "duration": 17, "velocity": 58}, {"time": 198, "pitch": 69, "duration": 16, "velocity": 62}, {"time": 213, "pitch": 57, "duration": 16, "velocity": 28}, {"time": 222, "pitch": 61, "duration": 12, "velocity": 75}, {"time": 222, "pitch": 64, "duration": 11, "velocity": 82}, {"time": 222, "pitch": 69, "duration": 11, "velocity": 76}, {"time": 234, "pitch": 57, "duration": 4, "velocity": 67}, {"time": 246, "pitch": 47, "duration": 84, "velocity": 79}, {"time": 246, "pitch": 59, "duration": 54, "velocity": 61}, {"time": 246, "pitch": 62, "duration": 16, "velocity": 77}, {"time": 246, "pitch": 66, "duration": 17, "velocity": 78}, {"time": 246, "pitch": 71, "duration": 16, "velocity": 76}, {"time": 267, "pitch": 62, "duration": 17, "velocity": 76}, {"time": 267, "pitch": 66, "duration": 18, "velocity": 73}, {"time": 267, "pitch": 71, "duration": 17, "velocity": 72}, {"time": 294, "pitch": 62, "duration": 19, "velocity": 56}, {"time": 294, "pitch": 66, "duration": 19, "velocity": 68}, {"time": 294, "pitch": 71, "duration": 19, "velocity": 59}, {"time": 312, "pitch": 59, "duration": 17, "velocity": 48}, {"time": 318, "pitch": 62, "duration": 14, "velocity": 79}, {"time": 318, "pitch": 66, "duration": 15, "velocity": 79}, {"time": 318, "pitch": 71, "duration": 14, "velocity": 78}, {"time": 330, "pitch": 54, "duration": 5, "velocity": 62}, {"time": 342, "pitch": 45, "duration": 79, "velocity": 46}, {"time": 342, "pitch": 57, "duration": 31, "velocity": 37}, {"time": 342, "pitch": 61, "duration": 18, "velocity": 75}, {"time": 342, "pitch": 64, "duration": 19, "velocity": 79}, {"time": 342, "pitch": 69, "duration": 16, "velocity": 33}, {"time": 366, "pitch": 61, "duration": 16, "velocity": 68}, {"time": 366, "pitch": 64, "duration": 17, "velocity": 69}, {"time": 366, "pitch": 69, "duration": 17, "velocity": 73}, {"time": 378, "pitch": 57, "duration": 42, "velocity": 10}, {"time": 390, "pitch": 61, "duration": 30, "velocity": 61}, {"time": 390, "pitch": 64, "duration": 30, "velocity": 61}, {"time": 390, "pitch": 69, "duration": 31, "velocity": 59}, {"time": 438, "pitch": 50, "duration": 37, "velocity": 61}, {"time": 438, "pitch": 57, "duration": 31, "velocity": 72}, {"time": 438, "pitch": 62, "duration": 36, "velocity": 58}, {"time": 438, "pitch": 66, "duration": 16, "velocity": 72}, {"time": 438, "pitch": 69, "duration": 16, "velocity": 78}, {"time": 438, "pitch": 74, "duration": 16, "velocity": 79}, {"time": 462, "pitch": 66, "duration": 13, "velocity": 74}, {"time": 462, "pitch": 69, "duration": 13, "velocity": 76}, {"time": 462, "pitch": 74, "duration": 11, "velocity": 83}, {"time": 474, "pitch": 57, "duration": 3, "velocity": 78}, {"time": 486, "pitch": 49, "duration": 38, "velocity": 79}, {"time": 486, "pitch": 61, "duration": 29, "velocity": 60}, {"time": 486, "pitch": 64, "duration": 16, "velocity": 74}, {"time": 486, "pitch": 69, "duration": 16, "velocity": 80}, {"time": 486, "pitch": 73, "duration": 12, "velocity": 80}, {"time": 510, "pitch": 64, "duration": 12, "velocity": 80}, {"time": 510, "pitch": 69, "duration": 11, "velocity": 81}, {"time": 510, "pitch": 73, "duration": 9, "velocity": 82}, {"time": 522, "pitch": 61, "duration": 3, "velocity": 68}, {"time": 534, "pitch": 47, "duration": 73, "velocity": 80}, {"time": 534, "pitch": 59, "duration": 30, "velocity": 56}, {"time": 534, "pitch": 62, "duration": 16, "velocity": 72}, {"time": 534, "pitch": 66, "duration": 17, "velocity": 76}, {"time": 534, "pitch": 71, "duration": 14, "velocity": 75}, {"time": 558, "pitch": 62, "duration": 15, "velocity": 54}, {"time": 558, "pitch": 66, "duration": 15, "velocity": 63}, {"time": 558, "pitch": 71, "duration": 14, "velocity": 53}, {"time": 570, "pitch": 59, "duration": 21, "velocity": 29}, {"time": 582, "pitch": 62, "duration": 17, "velocity": 69}, {"time": 582, "pitch": 66, "duration": 18, "velocity": 74}, {"time": 582, "pitch": 71, "duration": 16, "velocity": 72}, {"time": 600, "pitch": 59, "duration": 10, "velocity": 50}, {"time": 606, "pitch": 62, "duration": 12, "velocity": 71}, {"time": 606, "pitch": 66, "duration": 12, "velocity": 73}, {"time": 606, "pitch": 71, "duration": 14, "velocity": 68}, {"time": 612, "pitch": 47, "duration": 8, "velocity": 76}, {"time": 618, "pitch": 49, "duration": 6, "velocity": 81}, {"time": 630, "pitch": 50, "duration": 38, "velocity": 83}, {"time": 630, "pitch": 66, "duration": 17, "velocity": 76}, {"time": 630, "pitch": 69, "duration": 15, "velocity": 75}, {"time": 630, "pitch": 74, "duration": 13, "velocity": 73}, {"time": 642, "pitch": 62, "duration": 15, "velocity": 21}, {"time": 654, "pitch": 66, "duration": 12, "velocity": 77}, {"time": 654, "pitch": 69, "duration": 10, "velocity": 80}, {"time": 654, "pitch": 74, "duration": 9, "velocity": 82}, {"time": 666, "pitch": 62, "duration": 3, "velocity": 58}, {"time": 678, "pitch": 49, "duration": 39, "velocity": 84}, {"time": 678, "pitch": 61, "duration": 12, "velocity": 60}, {"time": 678, "pitch": 64, "duration": 17, "velocity": 60}, {"time": 678, "pitch": 69, "duration": 17, "velocity": 73}, {"time": 678, "pitch": 73, "duration": 15, "velocity": 76}, {"time": 678, "pitch": 76, "duration": 18, "velocity": 68}, {"time": 693, "pitch": 61, "duration": 12, "velocity": 22}, {"time": 702, "pitch": 64, "duration": 12, "velocity": 72}, {"time": 702, "pitch": 69, "duration": 10, "velocity": 73}, {"time": 702, "pitch": 73, "duration": 11, "velocity": 80}, {"time": 702, "pitch": 76, "duration": 3, "velocity": 31}, {"time": 714, "pitch": 61, "duration": 2, "velocity": 53}, {"time": 726, "pitch": 47, "duration": 78, "velocity": 80}, {"time": 726, "pitch": 59, "duration": 31, "velocity": 45}, {"time": 726, "pitch": 62, "duration": 18, "velocity": 71}, {"time": 726, "pitch": 66, "duration": 19, "velocity": 79}, {"time": 726, "pitch": 71, "duration": 15, "velocity": 76}, {"time": 750, "pitch": 62, "duration": 14, "velocity": 73}, {"time": 750, "pitch": 66, "duration": 14, "velocity": 76}, {"time": 750, "pitch": 71, "duration": 14, "velocity": 72}, {"time": 768, "pitch": 59, "duration": 9, "velocity": 1}, {"time": 774, "pitch": 62, "duration": 14, "velocity": 58}, {"time": 774, "pitch": 66, "duration": 16, "velocity": 68}, {"time": 774, "pitch": 71, "duration": 15, "velocity": 57}, {"time": 792, "pitch": 59, "duration": 11, "velocity": 25}, {"time": 798, "pitch": 62, "duration": 7, "velocity": 77}, {"time": 798, "pitch": 66, "duration": 9, "velocity": 79}, {"time": 798, "pitch": 71, "duration": 10, "velocity": 76}, {"time": 810, "pitch": 47, "duration": 3, "velocity": 80}, {"time": 822, "pitch": 43, "duration": 36, "velocity": 78}, {"time": 822, "pitch": 55, "duration": 29, "velocity": 38}, {"time": 822, "pitch": 59, "duration": 16, "velocity": 46}, {"time": 822, "pitch": 62, "duration": 15, "velocity": 72}, {"time": 822, "pitch": 67, "duration": 15, "velocity": 82}, {"time": 846, "pitch": 59, "duration": 16, "velocity": 75}, {"time": 846, "pitch": 62, "duration": 14, "velocity": 84}, {"time": 846, "pitch": 67, "duration": 13, "velocity": 84}, {"time": 858, "pitch": 55, "duration": 41, "velocity": 44}, {"time": 870, "pitch": 43, "duration": 39, "velocity": 75}, {"time": 870, "pitch": 59, "duration": 19, "velocity": 62}, {"time": 870, "pitch": 62, "duration": 19, "velocity": 83}, {"time": 870, "pitch": 67, "duration": 19, "velocity": 79}, {"time": 894, "pitch": 59, "duration": 12, "velocity": 73}, {"time": 894, "pitch": 62, "duration": 12, "velocity": 83}, {"time": 894, "pitch": 67, "duration": 12, "velocity": 78}, {"time": 906, "pitch": 55, "duration": 4, "velocity": 57}, {"time": 918, "pitch": 43, "duration": 89, "velocity": 80}, {"time": 918, "pitch": 55, "duration": 29, "velocity": 69}, {"time": 918, "pitch": 58, "duration": 16, "velocity": 78}, {"time": 918, "pitch": 62, "duration": 16, "velocity": 84}, {"time": 918, "pitch": 67, "duration": 17, "velocity": 71}, {"time": 942, "pitch": 58, "duration": 14, "velocity": 75}, {"time": 942, "pitch": 62, "duration": 16, "velocity": 81}, {"time": 942, "pitch": 67, "duration": 12, "velocity": 71}, {"time": 954, "pitch": 55, "duration": 43, "velocity": 31}, {"time": 966, "pitch": 58, "duration": 17, "velocity": 77}, {"time": 966, "pitch": 62, "duration": 14, "velocity": 81}, {"time": 966, "pitch": 67, "duration": 14, "velocity": 77}, {"time": 990, "pitch": 58, "duration": 15, "velocity": 78}, {"time": 990, "pitch": 62, "duration": 14, "velocity": 83}, {"time": 990, "pitch": 67, "duration": 14, "velocity": 78}, {"time": 1002, "pitch": 55, "duration": 4, "velocity": 72}, {"time": 1014, "pitch": 45, "duration": 85, "velocity": 79}, {"time": 1014, "pitch": 57, "duration": 58, "velocity": 68}, {"time": 1014, "pitch": 61, "duration": 16, "velocity": 78}, {"time": 1014, "pitch": 64, "duration": 16, "velocity": 82}, {"time": 1014, "pitch": 69, "duration": 18, "velocity": 81}, {"time": 1038, "pitch": 61, "duration": 16, "velocity": 76}, {"time": 1038, "pitch": 64, "duration": 15, "velocity": 83}, {"time": 1038, "pitch": 69, "duration": 16, "velocity": 80}, {"time": 1062, "pitch": 61, "duration": 13, "velocity": 72}, {"time": 1062, "pitch": 64, "duration": 11, "velocity": 82}, {"time": 1062, "pitch": 69, "duration": 14, "velocity": 72}, {"time": 1074, "pitch": 52, "duration": 20, "velocity": 72}, {"time": 1086, "pitch": 61, "duration": 14, "velocity": 76}, {"time": 1086, "pitch": 64, "duration": 11, "velocity": 83}, {"time": 1086, "pitch": 69, "duration": 12, "velocity": 79}, {"time": 1098, "pitch": 52, "duration": 12, "velocity": 75}, {"time": 1098, "pitch": 57, "duration": 4, "velocity": 59}, {"time": 1110, "pitch": 45, "duration": 68, "velocity": 78}, {"time": 1110, "pitch": 57, "duration": 56, "velocity": 71}, {"time": 1110, "pitch": 61, "duration": 60, "velocity": 78}, {"time": 1110, "pitch": 64, "duration": 59, "velocity": 82}, {"time": 1110, "pitch": 69, "duration": 59, "velocity": 80}, {"time": 1206, "pitch": 50, "duration": 38, "velocity": 63}, {"time": 1206, "pitch": 57, "duration": 33, "velocity": 77}, {"time": 1206, "pitch": 62, "duration": 30, "velocity": 68}, {"time": 1206, "pitch": 66, "duration": 16, "velocity": 75}, {"time": 1206, "pitch": 69, "duration": 16, "velocity": 81}, {"time": 1206, "pitch": 74, "duration": 18, "velocity": 83}, {"time": 1230, "pitch": 66, "duration": 14, "velocity": 71}, {"time": 1230, "pitch": 69, "duration": 12, "velocity": 79}, {"time": 1230, "pitch": 74, "duration": 14, "velocity": 78}, {"time": 1242, "pitch": 57, "duration": 4, "velocity": 45}, {"time": 1242, "pitch": 62, "duration": 2, "velocity": 69}, {"time": 1254, "pitch": 49, "duration": 34, "velocity": 82}, {"time": 1254, "pitch": 61, "duration": 10, "velocity": 62}, {"time": 1254, "pitch": 64, "duration": 16, "velocity": 72}, {"time": 1254, "pitch": 69, "duration": 17, "velocity": 78}, {"time": 1254, "pitch": 73, "duration": 16, "velocity": 80}, {"time": 1254, "pitch": 76, "duration": 18, "velocity": 71}, {"time": 1272, "pitch": 61, "duration": 10, "velocity": 18}, {"time": 1278, "pitch": 64, "duration": 8, "velocity": 82}, {"time": 1278, "pitch": 69, "duration": 8, "velocity": 80}, {"time": 1278, "pitch": 73, "duration": 9, "velocity": 82}, {"time": 1284, "pitch": 55, "duration": 7, "velocity": 77}, {"time": 1290, "pitch": 71, "duration": 5, "velocity": 77}, {"time": 1296, "pitch": 73, "duration": 6, "velocity": 82}, {"time": 1302, "pitch": 47, "duration": 41, "velocity": 80}, {"time": 1302, "pitch": 66, "duration": 19, "velocity": 76}, {"time": 1302, "pitch": 69, "duration": 19, "velocity": 76}, {"time": 1302, "pitch": 74, "duration": 17, "velocity": 83}, {"time": 1314, "pitch": 54, "duration": 14, "velocity": 62}, {"time": 1320, "pitch": 59, "duration": 8, "velocity": 57}, {"time": 1326, "pitch": 66, "duration": 8, "velocity": 82}, {"time": 1326, "pitch": 69, "duration": 11, "velocity": 82}, {"time": 1326, "pitch": 74, "duration": 7, "velocity": 84}, {"time": 1332, "pitch": 54, "duration": 16, "velocity": 76}, {"time": 1332, "pitch": 59, "duration": 9, "velocity": 20}, {"time": 1338, "pitch": 66, "duration": 14, "velocity": 68}, {"time": 1344, "pitch": 74, "duration": 10, "velocity": 83}, {"time": 1350, "pitch": 47, "duration": 37, "velocity": 75}, {"time": 1356, "pitch": 64, "duration": 4, "velocity": 76}, {"time": 1356, "pitch": 73, "duration": 4, "velocity": 84}, {"time": 1362, "pitch": 54, "duration": 27, "velocity": 72}, {"time": 1368, "pitch": 62, "duration": 8, "velocity": 79}, {"time": 1368, "pitch": 69, "duration": 9, "velocity": 75}, {"time": 1374, "pitch": 59, "duration": 14, "velocity": 62}, {"time": 1380, "pitch": 62, "duration": 8, "velocity": 76}, {"time": 1380, "pitch": 69, "duration": 1, "velocity": 46}, {"time": 1386, "pitch": 64, "duration": 8, "velocity": 79}, {"time": 1392, "pitch": 66, "duration": 4, "velocity": 80}, {"time": 1398, "pitch": 50, "duration": 38, "velocity": 83}, {"time": 1398, "pitch": 62, "duration": 8, "velocity": 82}, {"time": 1398, "pitch": 66, "duration": 9, "velocity": 82}, {"time": 1410, "pitch": 57, "duration": 20, "velocity": 67}, {"time": 1422, "pitch": 64, "duration": 7, "velocity": 72}, {"time": 1422, "pitch": 66, "duration": 9, "velocity": 78}, {"time": 1422, "pitch": 69, "duration": 8, "velocity": 75}, {"time": 1428, "pitch": 62, "duration": 8, "velocity": 68}, {"time": 1434, "pitch": 57, "duration": 14, "velocity": 73}, {"time": 1440, "pitch": 71, "duration": 8, "velocity": 76}, {"time": 1446, "pitch": 49, "duration": 40, "velocity": 84}, {"time": 1446, "pitch": 64, "duration": 11, "velocity": 77}, {"time": 1446, "pitch": 69, "duration": 10, "velocity": 82}, {"time": 1452, "pitch": 57, "duration": 34, "velocity": 72}, {"time": 1458, "pitch": 61, "duration": 12, "velocity": 62}, {"time": 1464, "pitch": 64, "duration": 8, "velocity": 71}, {"time": 1470, "pitch": 69, "duration": 9, "velocity": 83}, {"time": 1479, "pitch": 73, "duration": 7, "velocity": 90}, {"time": 1482, "pitch": 61, "duration": 3, "velocity": 62}, {"time": 1488, "pitch": 74, "duration": 4, "velocity": 80}, {"time": 1494, "pitch": 47, "duration": 82, "velocity": 82}, {"time": 1494, "pitch": 66, "duration": 12, "velocity": 74}, {"time": 1494, "pitch": 71, "duration": 11, "velocity": 79}, {"time": 1494, "pitch": 74, "duration": 11, "velocity": 76}, {"time": 1506, "pitch": 54, "duration": 14, "velocity": 63}, {"time": 1518, "pitch": 59, "duration": 11, "velocity": 51}, {"time": 1518, "pitch": 62, "duration": 14, "velocity": 79}, {"time": 1518, "pitch": 66, "duration": 13, "velocity": 75}, {"time": 1530, "pitch": 54, "duration": 46, "velocity": 34}, {"time": 1542, "pitch": 61, "duration": 14, "velocity": 75}, {"time": 1542, "pitch": 62, "duration": 18, "velocity": 77}, {"time": 1542, "pitch": 66, "duration": 14, "velocity": 74}, {"time": 1560, "pitch": 59, "duration": 7, "velocity": 58}, {"time": 1566, "pitch": 61, "duration": 7, "velocity": 75}, {"time": 1566, "pitch": 62, "duration": 8, "velocity": 80}, {"time": 1566, "pitch": 66, "duration": 9, "velocity": 84}, {"time": 1569, "pitch": 59, "duration": 4, "velocity": 62}, {"time": 1578, "pitch": 64, "duration": 5, "velocity": 78}, {"time": 1584, "pitch": 66, "duration": 5, "velocity": 76}, {"time": 1590, "pitch": 43, "duration": 4, "velocity": 86}, {"time": 1590, "pitch": 62, "duration": 13, "velocity": 80}, {"time": 1590, "pitch": 67, "duration": 14, "velocity": 80}, {"time": 1590, "pitch": 71, "duration": 15, "velocity": 78}, {"time": 1590, "pitch": 74, "duration": 14, "velocity": 43}, {"time": 1602, "pitch": 55, "duration": 20, "velocity": 68}, {"time": 1614, "pitch": 62, "duration": 9, "velocity": 78}, {"time": 1614, "pitch": 67, "duration": 10, "velocity": 71}, {"time": 1614, "pitch": 71, "duration": 11, "velocity": 78}, {"time": 1614, "pitch": 74, "duration": 10, "velocity": 39}, {"time": 1626, "pitch": 55, "duration": 27, "velocity": 75}, {"time": 1638, "pitch": 71, "duration": 6, "velocity": 77}, {"time": 1638, "pitch": 74, "duration": 8, "velocity": 83}, {"time": 1638, "pitch": 79, "duration": 8, "velocity": 90}, {"time": 1650, "pitch": 69, "duration": 4, "velocity": 69}, {"time": 1650, "pitch": 78, "duration": 10, "velocity": 72}, {"time": 1656, "pitch": 55, "duration": 16, "velocity": 69}, {"time": 1662, "pitch": 71, "duration": 4, "velocity": 63}, {"time": 1662, "pitch": 79, "duration": 5, "velocity": 84}, {"time": 1674, "pitch": 55, "duration": 2, "velocity": 80}, {"time": 1674, "pitch": 78, "duration": 3, "velocity": 78}, {"time": 1686, "pitch": 43, "duration": 37, "velocity": 82}, {"time": 1686, "pitch": 55, "duration": 10, "velocity": 63}, {"time": 1686, "pitch": 70, "duration": 7, "velocity": 76}, {"time": 1686, "pitch": 74, "duration": 6, "velocity": 83}, {"time": 1686, "pitch": 76, "duration": 6, "velocity": 83}, {"time": 1698, "pitch": 55, "duration": 14, "velocity": 40}, {"time": 1710, "pitch": 58, "duration": 13, "velocity": 81}, {"time": 1710, "pitch": 62, "duration": 10, "velocity": 82}, {"time": 1710, "pitch": 67, "duration": 14, "velocity": 80}, {"time": 1722, "pitch": 55, "duration": 8, "velocity": 49}, {"time": 1728, "pitch": 50, "duration": 5, "velocity": 72}, {"time": 1731, "pitch": 43, "duration": 40, "velocity": 69}, {"time": 1734, "pitch": 58, "duration": 10, "velocity": 80}, {"time": 1734, "pitch": 62, "duration": 10, "velocity": 82}, {"time": 1734, "pitch": 67, "duration": 9, "velocity": 79}, {"time": 1737, "pitch": 50, "duration": 35, "velocity": 80}, {"time": 1743, "pitch": 55, "duration": 14, "velocity": 69}, {"time": 1749, "pitch": 58, "duration": 5, "velocity": 75}, {"time": 1755, "pitch": 62, "duration": 9, "velocity": 93}, {"time": 1761, "pitch": 55, "duration": 10, "velocity": 71}, {"time": 1767, "pitch": 62, "duration": 3, "velocity": 78}, {"time": 1767, "pitch": 67, "duration": 5, "velocity": 84}, {"time": 1779, "pitch": 45, "duration": 37, "velocity": 82}, {"time": 1779, "pitch": 61, "duration": 12, "velocity": 80}, {"time": 1779, "pitch": 64, "duration": 13, "velocity": 82}, {"time": 1779, "pitch": 69, "duration": 13, "velocity": 84}, {"time": 1791, "pitch": 52, "duration": 14, "velocity": 81}, {"time": 1806, "pitch": 57, "duration": 14, "velocity": 74}, {"time": 1806, "pitch": 59, "duration": 9, "velocity": 74}, {"time": 1806, "pitch": 62, "duration": 10, "velocity": 80}, {"time": 1806, "pitch": 67, "duration": 10, "velocity": 86}, {"time": 1818, "pitch": 52, "duration": 9, "velocity": 82}, {"time": 1818, "pitch": 59, "duration": 4, "velocity": 62}, {"time": 1824, "pitch": 62, "duration": 4, "velocity": 80}, {"time": 1830, "pitch": 45, "duration": 40, "velocity": 79}, {"time": 1830, "pitch": 57, "duration": 18, "velocity": 59}, {"time": 1830, "pitch": 64, "duration": 9, "velocity": 79}, {"time": 1830, "pitch": 69, "duration": 10, "velocity": 83}, {"time": 1830, "pitch": 73, "duration": 10, "velocity": 84}, {"time": 1848, "pitch": 64, "duration": 8, "velocity": 79}, {"time": 1848, "pitch": 71, "duration": 9, "velocity": 83}, {"time": 1854, "pitch": 57, "duration": 18, "velocity": 61}, {"time": 1860, "pitch": 64, "duration": 14, "velocity": 82}, {"time": 1860, "pitch": 73, "duration": 14, "velocity": 93}, {"time": 1872, "pitch": 52, "duration": 6, "velocity": 79}, {"time": 1878, "pitch": 45, "duration": 42, "velocity": 83}, {"time": 1878, "pitch": 57, "duration": 28, "velocity": 79}, {"time": 1878, "pitch": 64, "duration": 16, "velocity": 83}, {"time": 1878, "pitch": 69, "duration": 19, "velocity": 81}, {"time": 1878, "pitch": 76, "duration": 17, "velocity": 90}, {"time": 1902, "pitch": 66, "duration": 15, "velocity": 80}, {"time": 1902, "pitch": 69, "duration": 14, "velocity": 82}, {"time": 1902, "pitch": 74, "duration": 21, "velocity": 84}, {"time": 1914, "pitch": 57, "duration": 8, "velocity": 60}, {"time": 1926, "pitch": 45, "duration": 31, "velocity": 84}, {"time": 1926, "pitch": 57, "duration": 8, "velocity": 82}, {"time": 1926, "pitch": 64, "duration": 17, "velocity": 80}, {"time": 1926, "pitch": 69, "duration": 16, "velocity": 78}, {"time": 1926, "pitch": 73, "duration": 16, "velocity": 83}, {"time": 1938, "pitch": 57, "duration": 18, "velocity": 22}, {"time": 1950, "pitch": 64, "duration": 14, "velocity": 80}, {"time": 1950, "pitch": 69, "duration": 14, "velocity": 84}, {"time": 1950, "pitch": 73, "duration": 14, "velocity": 90}, {"time": 1962, "pitch": 52, "duration": 3, "velocity": 95}, {"time": 1974, "pitch": 50, "duration": 39, "velocity": 90}, {"time": 1974, "pitch": 62, "duration": 30, "velocity": 81}, {"time": 1974, "pitch": 66, "duration": 19, "velocity": 83}, {"time": 1974, "pitch": 69, "duration": 19, "velocity": 86}, {"time": 1974, "pitch": 74, "duration": 18, "velocity": 90}, {"time": 1998, "pitch": 66, "duration": 15, "velocity": 81}, {"time": 1998, "pitch": 69, "duration": 14, "velocity": 84}, {"time": 1998, "pitch": 74, "duration": 14, "velocity": 86}, {"time": 2010, "pitch": 62, "duration": 3, "velocity": 75}, {"time": 2022, "pitch": 49, "duration": 31, "velocity": 86}, {"time": 2022, "pitch": 61, "duration": 11, "velocity": 74}, {"time": 2022, "pitch": 64, "duration": 19, "velocity": 77}, {"time": 2022, "pitch": 69, "duration": 19, "velocity": 76}, {"time": 2022, "pitch": 73, "duration": 19, "velocity": 83}, {"time": 2022, "pitch": 76, "duration": 19, "velocity": 76}, {"time": 2034, "pitch": 61, "duration": 11, "velocity": 57}, {"time": 2046, "pitch": 64, "duration": 14, "velocity": 83}, {"time": 2046, "pitch": 69, "duration": 14, "velocity": 80}, {"time": 2046, "pitch": 73, "duration": 15, "velocity": 86}, {"time": 2058, "pitch": 49, "duration": 4, "velocity": 72}, {"time": 2058, "pitch": 61, "duration": 2, "velocity": 72}, {"time": 2070, "pitch": 47, "duration": 36, "velocity": 84}, {"time": 2070, "pitch": 59, "duration": 10, "velocity": 75}, {"time": 2070, "pitch": 66, "duration": 19, "velocity": 77}, {"time": 2070, "pitch": 69, "duration": 19, "velocity": 79}, {"time": 2070, "pitch": 74, "duration": 19, "velocity": 84}, {"time": 2088, "pitch": 59, "duration": 10, "velocity": 59}, {"time": 2094, "pitch": 66, "duration": 13, "velocity": 83}, {"time": 2094, "pitch": 69, "duration": 13, "velocity": 84}, {"time": 2094, "pitch": 74, "duration": 12, "velocity": 90}, {"time": 2106, "pitch": 47, "duration": 2, "velocity": 79}, {"time": 2106, "pitch": 59, "duration": 2, "velocity": 73}, {"time": 2118, "pitch": 42, "duration": 44, "velocity": 86}, {"time": 2118, "pitch": 54, "duration": 10, "velocity": 79}, {"time": 2118, "pitch": 64, "duration": 14, "velocity": 79}, {"time": 2118, "pitch": 69, "duration": 19, "velocity": 78}, {"time": 2118, "pitch": 73, "duration": 13, "velocity": 83}, {"time": 2136, "pitch": 54, "duration": 15, "velocity": 84}, {"time": 2142, "pitch": 66, "duration": 9, "velocity": 81}, {"time": 2142, "pitch": 73, "duration": 6, "velocity": 84}, {"time": 2148, "pitch": 74, "duration": 8, "velocity": 86}, {"time": 2154, "pitch": 73, "duration": 4, "velocity": 82}, {"time": 2160, "pitch": 54, "duration": 3, "velocity": 79}, {"time": 2160, "pitch": 69, "duration": 5, "velocity": 80}, {"time": 2166, "pitch": 43, "duration": 38, "velocity": 77}, {"time": 2166, "pitch": 55, "duration": 11, "velocity": 79}, {"time": 2166, "pitch": 62, "duration": 19, "velocity": 82}, {"time": 2166, "pitch": 67, "duration": 19, "velocity": 79}, {"time": 2166, "pitch": 71, "duration": 19, "velocity": 76}, {"time": 2184, "pitch": 55, "duration": 14, "velocity": 75}, {"time": 2190, "pitch": 62, "duration": 14, "velocity": 78}, {"time": 2190, "pitch": 67, "duration": 14, "velocity": 83}, {"time": 2190, "pitch": 71, "duration": 12, "velocity": 76}, {"time": 2196, "pitch": 50, "duration": 17, "velocity": 83}, {"time": 2202, "pitch": 55, "duration": 6, "velocity": 73}, {"time": 2208, "pitch": 67, "duration": 4, "velocity": 73}, {"time": 2208, "pitch": 71, "duration": 4, "velocity": 69}, {"time": 2214, "pitch": 45, "duration": 15, "velocity": 84}, {"time": 2214, "pitch": 64, "duration": 31, "velocity": 82}, {"time": 2214, "pitch": 69, "duration": 31, "velocity": 80}, {"time": 2214, "pitch": 73, "duration": 31, "velocity": 80}, {"time": 2226, "pitch": 52, "duration": 5, "velocity": 79}, {"time": 2232, "pitch": 57, "duration": 9, "velocity": 58}, {"time": 2238, "pitch": 59, "duration": 12, "velocity": 73}, {"time": 2244, "pitch": 61, "duration": 7, "velocity": 84}, {"time": 2250, "pitch": 64, "duration": 8, "velocity": 78}, {"time": 2256, "pitch": 69, "duration": 4, "velocity": 82}, {"time": 2262, "pitch": 47, "duration": 8, "velocity": 82}, {"time": 2262, "pitch": 66, "duration": 25, "velocity": 84}, {"time": 2262, "pitch": 74, "duration": 26, "velocity": 91}, {"time": 2268, "pitch": 54, "duration": 5, "velocity": 79}, {"time": 2274, "pitch": 59, "duration": 8, "velocity": 58}, {"time": 2280, "pitch": 61, "duration": 15, "velocity": 78}, {"time": 2286, "pitch": 62, "duration": 8, "velocity": 86}, {"time": 2292, "pitch": 66, "duration": 4, "velocity": 79}, {"time": 2298, "pitch": 73, "duration": 7, "velocity": 83}, {"time": 2304, "pitch": 66, "duration": 1, "velocity": 53}, {"time": 2304, "pitch": 74, "duration": 9, "velocity": 91}, {"time": 2310, "pitch": 47, "duration": 36, "velocity": 78}, {"time": 2310, "pitch": 73, "duration": 6, "velocity": 84}, {"time": 2316, "pitch": 54, "duration": 32, "velocity": 78}, {"time": 2316, "pitch": 71, "duration": 6, "velocity": 75}, {"time": 2322, "pitch": 66, "duration": 6, "velocity": 75}, {"time": 2328, "pitch": 64, "duration": 5, "velocity": 68}, {"time": 2334, "pitch": 62, "duration": 10, "velocity": 76}, {"time": 2340, "pitch": 59, "duration": 6, "velocity": 76}, {"time": 2346, "pitch": 59, "duration": 1, "velocity": 62}, {"time": 2346, "pitch": 61, "duration": 3, "velocity": 69}, {"time": 2352, "pitch": 62, "duration": 4, "velocity": 80}, {"time": 2358, "pitch": 50, "duration": 26, "velocity": 82}, {"time": 2358, "pitch": 57, "duration": 21, "velocity": 78}, {"time": 2358, "pitch": 62, "duration": 10, "velocity": 82}, {"time": 2358, "pitch": 66, "duration": 9, "velocity": 81}, {"time": 2376, "pitch": 38, "duration": 15, "velocity": 50}, {"time": 2382, "pitch": 57, "duration": 8, "velocity": 82}, {"time": 2382, "pitch": 62, "duration": 9, "velocity": 86}, {"time": 2382, "pitch": 69, "duration": 10, "velocity": 86}, {"time": 2388, "pitch": 50, "duration": 7, "velocity": 78}, {"time": 2394, "pitch": 57, "duration": 5, "velocity": 61}, {"time": 2400, "pitch": 69, "duration": 4, "velocity": 80}, {"time": 2406, "pitch": 49, "duration": 39, "velocity": 90}, {"time": 2406, "pitch": 61, "duration": 7, "velocity": 82}, {"time": 2406, "pitch": 64, "duration": 8, "velocity": 84}, {"time": 2406, "pitch": 69, "duration": 9, "velocity": 71}, {"time": 2418, "pitch": 55, "duration": 28, "velocity": 72}, {"time": 2424, "pitch": 64, "duration": 4, "velocity": 58}, {"time": 2424, "pitch": 69, "duration": 2, "velocity": 68}, {"time": 2424, "pitch": 74, "duration": 7, "velocity": 84}, {"time": 2430, "pitch": 61, "duration": 6, "velocity": 54}, {"time": 2436, "pitch": 66, "duration": 7, "velocity": 70}, {"time": 2436, "pitch": 73, "duration": 8, "velocity": 81}, {"time": 2442, "pitch": 61, "duration": 2, "velocity": 68}, {"time": 2448, "pitch": 71, "duration": 5, "velocity": 75}, {"time": 2454, "pitch": 43, "duration": 5, "velocity": 84}, {"time": 2454, "pitch": 62, "duration": 20, "velocity": 79}, {"time": 2454, "pitch": 67, "duration": 20, "velocity": 57}, {"time": 2454, "pitch": 71, "duration": 20, "velocity": 80}, {"time": 2460, "pitch": 55, "duration": 8, "velocity": 47}, {"time": 2466, "pitch": 57, "duration": 21, "velocity": 76}, {"time": 2472, "pitch": 59, "duration": 15, "velocity": 80}, {"time": 2478, "pitch": 62, "duration": 4, "velocity": 81}, {"time": 2484, "pitch": 67, "duration": 4, "velocity": 83}, {"time": 2490, "pitch": 69, "duration": 4, "velocity": 79}, {"time": 2496, "pitch": 71, "duration": 5, "velocity": 77}, {"time": 2502, "pitch": 47, "duration": 39, "velocity": 81}, {"time": 2502, "pitch": 66, "duration": 9, "velocity": 59}, {"time": 2502, "pitch": 74, "duration": 13, "velocity": 91}, {"time": 2508, "pitch": 54, "duration": 34, "velocity": 78}, {"time": 2514, "pitch": 59, "duration": 6, "velocity": 53}, {"time": 2520, "pitch": 64, "duration": 3, "velocity": 75}, {"time": 2520, "pitch": 73, "duration": 4, "velocity": 84}, {"time": 2526, "pitch": 59, "duration": 6, "velocity": 43}, {"time": 2526, "pitch": 73, "duration": 2, "velocity": 49}, {"time": 2532, "pitch": 66, "duration": 8, "velocity": 76}, {"time": 2532, "pitch": 74, "duration": 9, "velocity": 86}, {"time": 2538, "pitch": 59, "duration": 3, "velocity": 62}, {"time": 2544, "pitch": 69, "duration": 4, "velocity": 82}, {"time": 2550, "pitch": 43, "duration": 38, "velocity": 82}, {"time": 2550, "pitch": 62, "duration": 18, "velocity": 84}, {"time": 2550, "pitch": 67, "duration": 19, "velocity": 80}, {"time": 2550, "pitch": 71, "duration": 13, "velocity": 78}, {"time": 2568, "pitch": 55, "duration": 7, "velocity": 61}, {"time": 2574, "pitch": 62, "duration": 9, "velocity": 83}, {"time": 2574, "pitch": 67, "duration": 9, "velocity": 84}, {"time": 2574, "pitch": 71, "duration": 8, "velocity": 77}, {"time": 2580, "pitch": 55, "duration": 9, "velocity": 78}, {"time": 2586, "pitch": 62, "duration": 5, "velocity": 72}, {"time": 2592, "pitch": 67, "duration": 2, "velocity": 68}, {"time": 2592, "pitch": 71, "duration": 5, "velocity": 78}, {"time": 2598, "pitch": 45, "duration": 11, "velocity": 90}, {"time": 2598, "pitch": 64, "duration": 26, "velocity": 84}, {"time": 2598, "pitch": 69, "duration": 25, "velocity": 80}, {"time": 2598, "pitch": 73, "duration": 26, "velocity": 90}, {"time": 2604, "pitch": 52, "duration": 6, "velocity": 80}, {"time": 2610, "pitch": 57, "duration": 8, "velocity": 54}, {"time": 2616, "pitch": 59, "duration": 14, "velocity": 73}, {"time": 2622, "pitch": 61, "duration": 8, "velocity": 80}, {"time": 2628, "pitch": 64, "duration": 4, "velocity": 72}, {"time": 2634, "pitch": 71, "duration": 10, "velocity": 78}, {"time": 2640, "pitch": 73, "duration": 5, "velocity": 82}, {"time": 2646, "pitch": 47, "duration": 13, "velocity": 79}, {"time": 2646, "pitch": 66, "duration": 32, "velocity": 74}, {"time": 2646, "pitch": 74, "duration": 31, "velocity": 79}, {"time": 2652, "pitch": 54, "duration": 9, "velocity": 71}, {"time": 2664, "pitch": 59, "duration": 8, "velocity": 72}, {"time": 2670, "pitch": 61, "duration": 63, "velocity": 67}, {"time": 2676, "pitch": 62, "duration": 18, "velocity": 76}, {"time": 2682, "pitch": 66, "duration": 5, "velocity": 63}, {"time": 2688, "pitch": 73, "duration": 5, "velocity": 72}, {"time": 2694, "pitch": 74, "duration": 7, "velocity": 80}, {"time": 2700, "pitch": 73, "duration": 4, "velocity": 79}, {"time": 2706, "pitch": 71, "duration": 4, "velocity": 71}, {"time": 2712, "pitch": 66, "duration": 5, "velocity": 75}, {"time": 2718, "pitch": 62, "duration": 14, "velocity": 75}, {"time": 2718, "pitch": 71, "duration": 7, "velocity": 73}, {"time": 2724, "pitch": 73, "duration": 4, "velocity": 78}, {"time": 2730, "pitch": 76, "duration": 3, "velocity": 80}, {"time": 2742, "pitch": 43, "duration": 26, "velocity": 81}, {"time": 2742, "pitch": 55, "duration": 18, "velocity": 84}, {"time": 2742, "pitch": 62, "duration": 25, "velocity": 84}, {"time": 2742, "pitch": 67, "duration": 25, "velocity": 90}, {"time": 2742, "pitch": 71, "duration": 25, "velocity": 86}, {"time": 2766, "pitch": 55, "duration": 2, "velocity": 78}, {"time": 2778, "pitch": 45, "duration": 45, "velocity": 91}, {"time": 2778, "pitch": 57, "duration": 17, "velocity": 84}, {"time": 2778, "pitch": 64, "duration": 31, "velocity": 83}, {"time": 2778, "pitch": 69, "duration": 31, "velocity": 84}, {"time": 2778, "pitch": 73, "duration": 30, "velocity": 93}, {"time": 2808, "pitch": 57, "duration": 6, "velocity": 79}, {"time": 2814, "pitch": 64, "duration": 8, "velocity": 86}, {"time": 2814, "pitch": 69, "duration": 10, "velocity": 90}, {"time": 2814, "pitch": 73, "duration": 9, "velocity": 96}, {"time": 2820, "pitch": 57, "duration": 5, "velocity": 93}, {"time": 2826, "pitch": 64, "duration": 7, "velocity": 76}, {"time": 2832, "pitch": 69, "duration": 6, "velocity": 79}, {"time": 2838, "pitch": 50, "duration": 38, "velocity": 72}, {"time": 2838, "pitch": 57, "duration": 39, "velocity": 72}, {"time": 2838, "pitch": 62, "duration": 27, "velocity": 60}, {"time": 2838, "pitch": 64, "duration": 17, "velocity": 61}, {"time": 2838, "pitch": 66, "duration": 15, "velocity": 53}, {"time": 2838, "pitch": 69, "duration": 16, "velocity": 57}, {"time": 2838, "pitch": 74, "duration": 17, "velocity": 72}, {"time": 2862, "pitch": 64, "duration": 13, "velocity": 59}, {"time": 2862, "pitch": 66, "duration": 13, "velocity": 71}, {"time": 2862, "pitch": 69, "duration": 12, "velocity": 72}, {"time": 2862, "pitch": 74, "duration": 11, "velocity": 54}, {"time": 2874, "pitch": 62, "duration": 3, "velocity": 59}, {"time": 2886, "pitch": 49, "duration": 36, "velocity": 72}, {"time": 2886, "pitch": 61, "duration": 10, "velocity": 50}, {"time": 2886, "pitch": 64, "duration": 18, "velocity": 69}, {"time": 2886, "pitch": 69, "duration": 18, "velocity": 73}, {"time": 2886, "pitch": 73, "duration": 17, "velocity": 76}, {"time": 2904, "pitch": 61, "duration": 9, "velocity": 25}, {"time": 2910, "pitch": 64, "duration": 12, "velocity": 75}, {"time": 2910, "pitch": 69, "duration": 11, "velocity": 76}, {"time": 2910, "pitch": 73, "duration": 9, "velocity": 79}, {"time": 2922, "pitch": 55, "duration": 11, "velocity": 50}, {"time": 2934, "pitch": 47, "duration": 24, "velocity": 79}, {"time": 2934, "pitch": 62, "duration": 13, "velocity": 72}, {"time": 2934, "pitch": 66, "duration": 12, "velocity": 76}, {"time": 2934, "pitch": 69, "duration": 10, "velocity": 75}, {"time": 2946, "pitch": 54, "duration": 12, "velocity": 68}, {"time": 2958, "pitch": 59, "duration": 13, "velocity": 47}, {"time": 2958, "pitch": 62, "duration": 5, "velocity": 62}, {"time": 2958, "pitch": 66, "duration": 8, "velocity": 71}, {"time": 2958, "pitch": 69, "duration": 10, "velocity": 71}, {"time": 2970, "pitch": 61, "duration": 42, "velocity": 61}, {"time": 2982, "pitch": 62, "duration": 28, "velocity": 68}, {"time": 2994, "pitch": 74, "duration": 15, "velocity": 76}, {"time": 3006, "pitch": 64, "duration": 10, "velocity": 73}, {"time": 3006, "pitch": 73, "duration": 12, "velocity": 84}, {"time": 3018, "pitch": 69, "duration": 24, "velocity": 82}, {"time": 3030, "pitch": 50, "duration": 36, "velocity": 78}, {"time": 3030, "pitch": 66, "duration": 12, "velocity": 73}, {"time": 3042, "pitch": 57, "duration": 14, "velocity": 54}, {"time": 3054, "pitch": 62, "duration": 11, "velocity": 67}, {"time": 3054, "pitch": 64, "duration": 13, "velocity": 70}, {"time": 3054, "pitch": 66, "duration": 11, "velocity": 74}, {"time": 3054, "pitch": 69, "duration": 13, "velocity": 72}, {"time": 3066, "pitch": 57, "duration": 12, "velocity": 54}, {"time": 3078, "pitch": 49, "duration": 37, "velocity": 80}, {"time": 3078, "pitch": 64, "duration": 14, "velocity": 78}, {"time": 3078, "pitch": 69, "duration": 12, "velocity": 75}, {"time": 3090, "pitch": 57, "duration": 14, "velocity": 56}, {"time": 3102, "pitch": 64, "duration": 7, "velocity": 83}, {"time": 3102, "pitch": 69, "duration": 7, "velocity": 83}, {"time": 3108, "pitch": 57, "duration": 7, "velocity": 76}, {"time": 3114, "pitch": 64, "duration": 5, "velocity": 73}, {"time": 3120, "pitch": 66, "duration": 4, "velocity": 76}, {"time": 3126, "pitch": 47, "duration": 72, "velocity": 74}, {"time": 3126, "pitch": 62, "duration": 14, "velocity": 79}, {"time": 3126, "pitch": 66, "duration": 12, "velocity": 73}, {"time": 3138, "pitch": 54, "duration": 14, "velocity": 59}, {"time": 3150, "pitch": 59, "duration": 31, "velocity": 55}, {"time": 3150, "pitch": 61, "duration": 13, "velocity": 63}, {"time": 3150, "pitch": 62, "duration": 12, "velocity": 74}, {"time": 3150, "pitch": 66, "duration": 11, "velocity": 72}, {"time": 3162, "pitch": 54, "duration": 39, "velocity": 42}, {"time": 3174, "pitch": 61, "duration": 13, "velocity": 56}, {"time": 3174, "pitch": 62, "duration": 16, "velocity": 74}, {"time": 3174, "pitch": 66, "duration": 9, "velocity": 73}, {"time": 3192, "pitch": 59, "duration": 7, "velocity": 46}, {"time": 3198, "pitch": 61, "duration": 9, "velocity": 72}, {"time": 3198, "pitch": 62, "duration": 10, "velocity": 80}, {"time": 3198, "pitch": 66, "duration": 10, "velocity": 76}, {"time": 3204, "pitch": 47, "duration": 6, "velocity": 75}, {"time": 3210, "pitch": 54, "duration": 4, "velocity": 75}, {"time": 3216, "pitch": 64, "duration": 4, "velocity": 76}, {"time": 3222, "pitch": 43, "duration": 40, "velocity": 83}, {"time": 3222, "pitch": 59, "duration": 15, "velocity": 75}, {"time": 3222, "pitch": 62, "duration": 15, "velocity": 80}, {"time": 3222, "pitch": 67, "duration": 13, "velocity": 84}, {"time": 3234, "pitch": 55, "duration": 17, "velocity": 53}, {"time": 3246, "pitch": 59, "duration": 15, "velocity": 73}, {"time": 3246, "pitch": 62, "duration": 14, "velocity": 83}, {"time": 3246, "pitch": 67, "duration": 14, "velocity": 83}, {"time": 3258, "pitch": 55, "duration": 8, "velocity": 63}, {"time": 3270, "pitch": 43, "duration": 39, "velocity": 74}, {"time": 3270, "pitch": 59, "duration": 16, "velocity": 68}, {"time": 3270, "pitch": 62, "duration": 17, "velocity": 79}, {"time": 3270, "pitch": 67, "duration": 15, "velocity": 72}, {"time": 3282, "pitch": 55, "duration": 11, "velocity": 55}, {"time": 3294, "pitch": 59, "duration": 12, "velocity": 75}, {"time": 3294, "pitch": 62, "duration": 13, "velocity": 82}, {"time": 3294, "pitch": 67, "duration": 12, "velocity": 81}, {"time": 3306, "pitch": 55, "duration": 7, "velocity": 73}, {"time": 3318, "pitch": 43, "duration": 37, "velocity": 78}, {"time": 3318, "pitch": 55, "duration": 27, "velocity": 67}, {"time": 3318, "pitch": 58, "duration": 17, "velocity": 79}, {"time": 3318, "pitch": 62, "duration": 16, "velocity": 82}, {"time": 3318, "pitch": 67, "duration": 17, "velocity": 83}, {"time": 3342, "pitch": 58, "duration": 14, "velocity": 76}, {"time": 3342, "pitch": 62, "duration": 14, "velocity": 82}, {"time": 3342, "pitch": 67, "duration": 14, "velocity": 71}, {"time": 3354, "pitch": 55, "duration": 10, "velocity": 62}, {"time": 3366, "pitch": 43, "duration": 36, "velocity": 53}, {"time": 3366, "pitch": 58, "duration": 15, "velocity": 76}, {"time": 3366, "pitch": 62, "duration": 16, "velocity": 79}, {"time": 3366, "pitch": 67, "duration": 14, "velocity": 76}, {"time": 3378, "pitch": 55, "duration": 13, "velocity": 51}, {"time": 3390, "pitch": 58, "duration": 13, "velocity": 77}, {"time": 3390, "pitch": 62, "duration": 13, "velocity": 86}, {"time": 3390, "pitch": 67, "duration": 13, "velocity": 83}, {"time": 3402, "pitch": 55, "duration": 3, "velocity": 71}, {"time": 3414, "pitch": 45, "duration": 5, "velocity": 83}, {"time": 3414, "pitch": 81, "duration": 13, "velocity": 86}, {"time": 3420, "pitch": 57, "duration": 9, "velocity": 68}, {"time": 3426, "pitch": 59, "duration": 21, "velocity": 76}, {"time": 3432, "pitch": 61, "duration": 15, "velocity": 86}, {"time": 3438, "pitch": 64, "duration": 8, "velocity": 76}, {"time": 3444, "pitch": 69, "duration": 8, "velocity": 83}, {"time": 3450, "pitch": 74, "duration": 8, "velocity": 86}, {"time": 3456, "pitch": 64, "duration": 8, "velocity": 82}, {"time": 3456, "pitch": 73, "duration": 14, "velocity": 90}, {"time": 3462, "pitch": 45, "duration": 10, "velocity": 80}, {"time": 3468, "pitch": 52, "duration": 6, "velocity": 80}, {"time": 3468, "pitch": 66, "duration": 3, "velocity": 78}, {"time": 3468, "pitch": 74, "duration": 4, "velocity": 90}, {"time": 3474, "pitch": 57, "duration": 15, "velocity": 63}, {"time": 3474, "pitch": 69, "duration": 2, "velocity": 47}, {"time": 3480, "pitch": 66, "duration": 1, "velocity": 43}, {"time": 3480, "pitch": 69, "duration": 3, "velocity": 83}, {"time": 3480, "pitch": 76, "duration": 4, "velocity": 91}, {"time": 3486, "pitch": 59, "duration": 12, "velocity": 49}, {"time": 3492, "pitch": 61, "duration": 9, "velocity": 83}, {"time": 3498, "pitch": 76, "duration": 4, "velocity": 90}, {"time": 3504, "pitch": 78, "duration": 5, "velocity": 78}, {"time": 3510, "pitch": 45, "duration": 42, "velocity": 84}, {"time": 3510, "pitch": 71, "duration": 8, "velocity": 75}, {"time": 3510, "pitch": 74, "duration": 8, "velocity": 82}, {"time": 3510, "pitch": 79, "duration": 8, "velocity": 90}, {"time": 3522, "pitch": 52, "duration": 34, "velocity": 79}, {"time": 3522, "pitch": 69, "duration": 2, "velocity": 50}, {"time": 3522, "pitch": 78, "duration": 5, "velocity": 76}, {"time": 3528, "pitch": 69, "duration": 3, "velocity": 80}, {"time": 3528, "pitch": 74, "duration": 3, "velocity": 80}, {"time": 3528, "pitch": 78, "duration": 1, "velocity": 62}, {"time": 3528, "pitch": 79, "duration": 4, "velocity": 86}, {"time": 3534, "pitch": 57, "duration": 7, "velocity": 69}, {"time": 3540, "pitch": 69, "duration": 3, "velocity": 75}, {"time": 3540, "pitch": 74, "duration": 3, "velocity": 84}, {"time": 3540, "pitch": 81, "duration": 5, "velocity": 83}, {"time": 3546, "pitch": 57, "duration": 8, "velocity": 63}, {"time": 3552, "pitch": 69, "duration": 3, "velocity": 55}, {"time": 3558, "pitch": 45, "duration": 22, "velocity": 90}, {"time": 3558, "pitch": 69, "duration": 6, "velocity": 77}, {"time": 3558, "pitch": 74, "duration": 6, "velocity": 81}, {"time": 3558, "pitch": 81, "duration": 5, "velocity": 90}, {"time": 3564, "pitch": 52, "duration": 28, "velocity": 81}, {"time": 3570, "pitch": 57, "duration": 10, "velocity": 80}, {"time": 3576, "pitch": 62, "duration": 5, "velocity": 83}, {"time": 3582, "pitch": 45, "duration": 8, "velocity": 57}, {"time": 3582, "pitch": 57, "duration": 7, "velocity": 79}, {"time": 3582, "pitch": 61, "duration": 7, "velocity": 82}, {"time": 3582, "pitch": 62, "duration": 2, "velocity": 34}, {"time": 3582, "pitch": 64, "duration": 10, "velocity": 93}, {"time": 3594, "pitch": 47, "duration": 6, "velocity": 82}, {"time": 3594, "pitch": 61, "duration": 3, "velocity": 82}, {"time": 3594, "pitch": 64, "duration": 3, "velocity": 86}, {"time": 3594, "pitch": 67, "duration": 4, "velocity": 84}, {"time": 3606, "pitch": 50, "duration": 39, "velocity": 90}, {"time": 3606, "pitch": 62, "duration": 30, "velocity": 81}, {"time": 3606, "pitch": 66, "duration": 19, "velocity": 83}, {"time": 3606, "pitch": 69, "duration": 19, "velocity": 86}, {"time": 3606, "pitch": 74, "duration": 18, "velocity": 90}, {"time": 3630, "pitch": 66, "duration": 15, "velocity": 81}, {"time": 3630, "pitch": 69, "duration": 14, "velocity": 84}, {"time": 3630, "pitch": 74, "duration": 14, "velocity": 86}, {"time": 3642, "pitch": 62, "duration": 3, "velocity": 75}, {"time": 3654, "pitch": 49, "duration": 31, "velocity": 86}, {"time": 3654, "pitch": 61, "duration": 11, "velocity": 74}, {"time": 3654, "pitch": 64, "duration": 19, "velocity": 77}, {"time": 3654, "pitch": 69, "duration": 19, "velocity": 76}, {"time": 3654, "pitch": 73, "duration": 19, "velocity": 83}, {"time": 3654, "pitch": 76, "duration": 19, "velocity": 76}, {"time": 3666, "pitch": 61, "duration": 11, "velocity": 57}, {"time": 3678, "pitch": 64, "duration": 14, "velocity": 83}, {"time": 3678, "pitch": 69, "duration": 14, "velocity": 80}, {"time": 3678, "pitch": 73, "duration": 15, "velocity": 86}, {"time": 3690, "pitch": 49, "duration": 4, "velocity": 72}, {"time": 3690, "pitch": 61, "duration": 2, "velocity": 72}, {"time": 3702, "pitch": 47, "duration": 36, "velocity": 84}, {"time": 3702, "pitch": 59, "duration": 10, "velocity": 75}, {"time": 3702, "pitch": 66, "duration": 19, "velocity": 77}, {"time": 3702, "pitch": 69, "duration": 19, "velocity": 79}, {"time": 3702, "pitch": 74, "duration": 19, "velocity": 84}, {"time": 3720, "pitch": 59, "duration": 10, "velocity": 59}, {"time": 3726, "pitch": 66, "duration": 13, "velocity": 83}, {"time": 3726, "pitch": 69, "duration": 13, "velocity": 84}, {"time": 3726, "pitch": 74, "duration": 12, "velocity": 90}, {"time": 3738, "pitch": 47, "duration": 2, "velocity": 79}, {"time": 3738, "pitch": 59, "duration": 2, "velocity": 73}, {"time": 3750, "pitch": 42, "duration": 44, "velocity": 86}, {"time": 3750, "pitch": 54, "duration": 10, "velocity": 79}, {"time": 3750, "pitch": 64, "duration": 14, "velocity": 79}, {"time": 3750, "pitch": 69, "duration": 19, "velocity": 78}, {"time": 3750, "pitch": 73, "duration": 13, "velocity": 83}, {"time": 3768, "pitch": 54, "duration": 15, "velocity": 84}, {"time": 3774, "pitch": 66, "duration": 9, "velocity": 81}, {"time": 3774, "pitch": 73, "duration": 6, "velocity": 84}, {"time": 3780, "pitch": 74, "duration": 8, "velocity": 86}, {"time": 3786, "pitch": 73, "duration": 4, "velocity": 82}, {"time": 3792, "pitch": 54, "duration": 3, "velocity": 79}, {"time": 3792, "pitch": 69, "duration": 5, "velocity": 80}, {"time": 3798, "pitch": 43, "duration": 38, "velocity": 77}, {"time": 3798, "pitch": 55, "duration": 11, "velocity": 79}, {"time": 3798, "pitch": 62, "duration": 19, "velocity": 82}, {"time": 3798, "pitch": 67, "duration": 19, "velocity": 79}, {"time": 3798, "pitch": 71, "duration": 19, "velocity": 76}, {"time": 3816, "pitch": 55, "duration": 14, "velocity": 75}, {"time": 3822, "pitch": 62, "duration": 14, "velocity": 78}, {"time": 3822, "pitch": 67, "duration": 14, "velocity": 83}, {"time": 3822, "pitch": 71, "duration": 12, "velocity": 76}, {"time": 3828, "pitch": 50, "duration": 17, "velocity": 83}, {"time": 3834, "pitch": 55, "duration": 6, "velocity": 73}, {"time": 3840, "pitch": 67, "duration": 4, "velocity": 73}, {"time": 3840, "pitch": 71, "duration": 4, "velocity": 69}, {"time": 3846, "pitch": 45, "duration": 15, "velocity": 84}, {"time": 3846, "pitch": 64, "duration": 31, "velocity": 82}, {"time": 3846, "pitch": 69, "duration": 31, "velocity": 80}, {"time": 3846, "pitch": 73, "duration": 31, "velocity": 80}, {"time": 3858, "pitch": 52, "duration": 5, "velocity": 79}, {"time": 3864, "pitch": 57, "duration": 9, "velocity": 58}, {"time": 3870, "pitch": 59, "duration": 12, "velocity": 73}, {"time": 3876, "pitch": 61, "duration": 7, "velocity": 84}, {"time": 3882, "pitch": 64, "duration": 8, "velocity": 78}, {"time": 3888, "pitch": 69, "duration": 4, "velocity": 82}, {"time": 3894, "pitch": 47, "duration": 8, "velocity": 82}, {"time": 3894, "pitch": 66, "duration": 25, "velocity": 84}, {"time": 3894, "pitch": 74, "duration": 26, "velocity": 91}, {"time": 3900, "pitch": 54, "duration": 5, "velocity": 79}, {"time": 3906, "pitch": 59, "duration": 8, "velocity": 58}, {"time": 3912, "pitch": 61, "duration": 15, "velocity": 78}, {"time": 3918, "pitch": 62, "duration": 8, "velocity": 86}, {"time": 3924, "pitch": 66, "duration": 4, "velocity": 79}, {"time": 3930, "pitch": 73, "duration": 7, "velocity": 83}, {"time": 3936, "pitch": 66, "duration": 1, "velocity": 53}, {"time": 3936, "pitch": 74, "duration": 9, "velocity": 91}, {"time": 3942, "pitch": 47, "duration": 36, "velocity": 78}, {"time": 3942, "pitch": 73, "duration": 6, "velocity": 84}, {"time": 3948, "pitch": 54, "duration": 32, "velocity": 78}, {"time": 3948, "pitch": 71, "duration": 6, "velocity": 75}, {"time": 3954, "pitch": 66, "duration": 6, "velocity": 75}, {"time": 3960, "pitch": 64, "duration": 5, "velocity": 68}, {"time": 3966, "pitch": 62, "duration": 10, "velocity": 76}, {"time": 3972, "pitch": 59, "duration": 6, "velocity": 76}, {"time": 3978, "pitch": 59, "duration": 1, "velocity": 62}, {"time": 3978, "pitch": 61, "duration": 3, "velocity": 69}, {"time": 3984, "pitch": 62, "duration": 4, "velocity": 80}, {"time": 3990, "pitch": 50, "duration": 26, "velocity": 82}, {"time": 3990, "pitch": 57, "duration": 21, "velocity": 78}, {"time": 3990, "pitch": 62, "duration": 10, "velocity": 82}, {"time": 3990, "pitch": 66, "duration": 9, "velocity": 81}, {"time": 4008, "pitch": 38, "duration": 15, "velocity": 50}, {"time": 4014, "pitch": 57, "duration": 8, "velocity": 82}, {"time": 4014, "pitch": 62, "duration": 9, "velocity": 86}, {"time": 4014, "pitch": 69, "duration": 10, "velocity": 86}, {"time": 4020, "pitch": 50, "duration": 7, "velocity": 78}, {"time": 4026, "pitch": 57, "duration": 5, "velocity": 61}, {"time": 4032, "pitch": 69, "duration": 4, "velocity": 80}, {"time": 4038, "pitch": 49, "duration": 39, "velocity": 90}, {"time": 4038, "pitch": 61, "duration": 7, "velocity": 82}, {"time": 4038, "pitch": 64, "duration": 8, "velocity": 84}, {"time": 4038, "pitch": 69, "duration": 9, "velocity": 71}, {"time": 4050, "pitch": 57, "duration": 28, "velocity": 72}, {"time": 4056, "pitch": 64, "duration": 4, "velocity": 58}, {"time": 4056, "pitch": 69, "duration": 2, "velocity": 68}, {"time": 4056, "pitch": 74, "duration": 7, "velocity": 84}, {"time": 4062, "pitch": 61, "duration": 6, "velocity": 54}, {"time": 4068, "pitch": 66, "duration": 7, "velocity": 70}, {"time": 4068, "pitch": 73, "duration": 8, "velocity": 81}, {"time": 4074, "pitch": 61, "duration": 2, "velocity": 68}, {"time": 4080, "pitch": 71, "duration": 5, "velocity": 75}, {"time": 4086, "pitch": 43, "duration": 5, "velocity": 84}, {"time": 4086, "pitch": 62, "duration": 20, "velocity": 79}, {"time": 4086, "pitch": 67, "duration": 20, "velocity": 57}, {"time": 4086, "pitch": 71, "duration": 20, "velocity": 80}, {"time": 4092, "pitch": 55, "duration": 8, "velocity": 47}, {"time": 4098, "pitch": 57, "duration": 21, "velocity": 76}, {"time": 4104, "pitch": 59, "duration": 15, "velocity": 80}, {"time": 4110, "pitch": 62, "duration": 4, "velocity": 81}, {"time": 4116, "pitch": 67, "duration": 4, "velocity": 83}, {"time": 4122, "pitch": 69, "duration": 4, "velocity": 79}, {"time": 4128, "pitch": 71, "duration": 5, "velocity": 77}, {"time": 4134, "pitch": 47, "duration": 39, "velocity": 81}, {"time": 4134, "pitch": 66, "duration": 9, "velocity": 59}, {"time": 4134, "pitch": 74, "duration": 13, "velocity": 91}, {"time": 4140, "pitch": 54, "duration": 34, "velocity": 78}, {"time": 4146, "pitch": 59, "duration": 6, "velocity": 53}, {"time": 4152, "pitch": 64, "duration": 3, "velocity": 75}, {"time": 4152, "pitch": 73, "duration": 4, "velocity": 84}, {"time": 4158, "pitch": 59, "duration": 6, "velocity": 43}, {"time": 4158, "pitch": 73, "duration": 2, "velocity": 49}, {"time": 4164, "pitch": 66, "duration": 8, "velocity": 76}, {"time": 4164, "pitch": 74, "duration": 9, "velocity": 86}, {"time": 4170, "pitch": 59, "duration": 3, "velocity": 62}, {"time": 4176, "pitch": 69, "duration": 4, "velocity": 82}, {"time": 4182, "pitch": 43, "duration": 38, "velocity": 82}, {"time": 4182, "pitch": 62, "duration": 18, "velocity": 84}, {"time": 4182, "pitch": 67, "duration": 19, "velocity": 80}, {"time": 4182, "pitch": 71, "duration": 13, "velocity": 78}, {"time": 4200, "pitch": 55, "duration": 7, "velocity": 61}, {"time": 4206, "pitch": 62, "duration": 9, "velocity": 83}, {"time": 4206, "pitch": 67, "duration": 9, "velocity": 84}, {"time": 4206, "pitch": 71, "duration": 8, "velocity": 77}, {"time": 4212, "pitch": 55, "duration": 9, "velocity": 78}, {"time": 4218, "pitch": 62, "duration": 5, "velocity": 72}, {"time": 4224, "pitch": 67, "duration": 2, "velocity": 68}, {"time": 4224, "pitch": 71, "duration": 5, "velocity": 78}, {"time": 4230, "pitch": 45, "duration": 11, "velocity": 90}, {"time": 4230, "pitch": 64, "duration": 26, "velocity": 84}, {"time": 4230, "pitch": 69, "duration": 25, "velocity": 80}, {"time": 4230, "pitch": 73, "duration": 26, "velocity": 90}, {"time": 4236, "pitch": 52, "duration": 6, "velocity": 80}, {"time": 4242, "pitch": 57, "duration": 8, "velocity": 54}, {"time": 4248, "pitch": 59, "duration": 14, "velocity": 73}, {"time": 4254, "pitch": 61, "duration": 8, "velocity": 80}, {"time": 4260, "pitch": 64, "duration": 4, "velocity": 72}, {"time": 4266, "pitch": 71, "duration": 10, "velocity": 78}, {"time": 4272, "pitch": 73, "duration": 5, "velocity": 82}, {"time": 4278, "pitch": 43, "duration": 41, "velocity": 80}, {"time": 4278, "pitch": 59, "duration": 8, "velocity": 75}, {"time": 4278, "pitch": 62, "duration": 8, "velocity": 83}, {"time": 4278, "pitch": 66, "duration": 8, "velocity": 82}, {"time": 4284, "pitch": 55, "duration": 15, "velocity": 57}, {"time": 4290, "pitch": 59, "duration": 19, "velocity": 71}, {"time": 4296, "pitch": 62, "duration": 14, "velocity": 91}, {"time": 4308, "pitch": 55, "duration": 15, "velocity": 69}, {"time": 4314, "pitch": 59, "duration": 5, "velocity": 68}, {"time": 4320, "pitch": 59, "duration": 19, "velocity": 71}, {"time": 4320, "pitch": 62, "duration": 18, "velocity": 84}, {"time": 4320, "pitch": 66, "duration": 18, "velocity": 83}, {"time": 4326, "pitch": 43, "duration": 36, "velocity": 72}, {"time": 4332, "pitch": 50, "duration": 31, "velocity": 75}, {"time": 4338, "pitch": 55, "duration": 20, "velocity": 62}, {"time": 4344, "pitch": 59, "duration": 9, "velocity": 75}, {"time": 4344, "pitch": 62, "duration": 9, "velocity": 83}, {"time": 4344, "pitch": 69, "duration": 9, "velocity": 79}, {"time": 4356, "pitch": 59, "duration": 9, "velocity": 74}, {"time": 4356, "pitch": 62, "duration": 9, "velocity": 79}, {"time": 4356, "pitch": 66, "duration": 10, "velocity": 84}, {"time": 4362, "pitch": 55, "duration": 10, "velocity": 71}, {"time": 4368, "pitch": 64, "duration": 5, "velocity": 83}, {"time": 4374, "pitch": 50, "duration": 39, "velocity": 81}, {"time": 4374, "pitch": 62, "duration": 9, "velocity": 82}, {"time": 4374, "pitch": 66, "duration": 11, "velocity": 83}, {"time": 4386, "pitch": 57, "duration": 33, "velocity": 63}, {"time": 4392, "pitch": 62, "duration": 7, "velocity": 63}, {"time": 4398, "pitch": 64, "duration": 4, "velocity": 76}, {"time": 4398, "pitch": 69, "duration": 4, "velocity": 63}, {"time": 4398, "pitch": 73, "duration": 9, "velocity": 83}, {"time": 4404, "pitch": 62, "duration": 12, "velocity": 47}, {"time": 4410, "pitch": 66, "duration": 3, "velocity": 62}, {"time": 4410, "pitch": 69, "duration": 4, "velocity": 69}, {"time": 4410, "pitch": 74, "duration": 5, "velocity": 78}, {"time": 4416, "pitch": 64, "duration": 8, "velocity": 76}, {"time": 4416, "pitch": 73, "duration": 13, "velocity": 84}, {"time": 4422, "pitch": 50, "duration": 35, "velocity": 83}, {"time": 4428, "pitch": 57, "duration": 17, "velocity": 76}, {"time": 4428, "pitch": 64, "duration": 13, "velocity": 76}, {"time": 4428, "pitch": 69, "duration": 14, "velocity": 82}, {"time": 4440, "pitch": 62, "duration": 8, "velocity": 69}, {"time": 4446, "pitch": 64, "duration": 5, "velocity": 82}, {"time": 4446, "pitch": 69, "duration": 9, "velocity": 84}, {"time": 4452, "pitch": 57, "duration": 5, "velocity": 76}, {"time": 4458, "pitch": 64, "duration": 6, "velocity": 71}, {"time": 4464, "pitch": 66, "duration": 32, "velocity": 78}, {"time": 4470, "pitch": 43, "duration": 11, "velocity": 80}, {"time": 4470, "pitch": 59, "duration": 16, "velocity": 63}, {"time": 4470, "pitch": 62, "duration": 18, "velocity": 72}, {"time": 4470, "pitch": 69, "duration": 26, "velocity": 71}, {"time": 4476, "pitch": 50, "duration": 6, "velocity": 72}, {"time": 4482, "pitch": 54, "duration": 8, "velocity": 62}, {"time": 4488, "pitch": 55, "duration": 14, "velocity": 80}, {"time": 4494, "pitch": 59, "duration": 7, "velocity": 73}, {"time": 4500, "pitch": 62, "duration": 6, "velocity": 83}, {"time": 4506, "pitch": 69, "duration": 4, "velocity": 76}, {"time": 4512, "pitch": 43, "duration": 43, "velocity": 83}, {"time": 4512, "pitch": 59, "duration": 13, "velocity": 63}, {"time": 4512, "pitch": 62, "duration": 13, "velocity": 74}, {"time": 4512, "pitch": 66, "duration": 12, "velocity": 79}, {"time": 4512, "pitch": 69, "duration": 12, "velocity": 29}, {"time": 4524, "pitch": 55, "duration": 15, "velocity": 60}, {"time": 4530, "pitch": 59, "duration": 4, "velocity": 57}, {"time": 4536, "pitch": 59, "duration": 14, "velocity": 75}, {"time": 4536, "pitch": 62, "duration": 14, "velocity": 83}, {"time": 4536, "pitch": 66, "duration": 14, "velocity": 81}, {"time": 4548, "pitch": 55, "duration": 6, "velocity": 70}, {"time": 4554, "pitch": 59, "duration": 3, "velocity": 74}, {"time": 4554, "pitch": 62, "duration": 1, "velocity": 44}, {"time": 4554, "pitch": 66, "duration": 2, "velocity": 74}, {"time": 4566, "pitch": 38, "duration": 84, "velocity": 83}, {"time": 4566, "pitch": 57, "duration": 8, "velocity": 72}, {"time": 4566, "pitch": 61, "duration": 8, "velocity": 80}, {"time": 4566, "pitch": 66, "duration": 8, "velocity": 80}, {"time": 4572, "pitch": 50, "duration": 19, "velocity": 68}, {"time": 4578, "pitch": 57, "duration": 4, "velocity": 57}, {"time": 4584, "pitch": 57, "duration": 10, "velocity": 78}, {"time": 4584, "pitch": 61, "duration": 12, "velocity": 81}, {"time": 4584, "pitch": 64, "duration": 13, "velocity": 84}, {"time": 4596, "pitch": 50, "duration": 19, "velocity": 63}, {"time": 4602, "pitch": 57, "duration": 4, "velocity": 38}, {"time": 4608, "pitch": 57, "duration": 12, "velocity": 69}, {"time": 4608, "pitch": 61, "duration": 12, "velocity": 79}, {"time": 4608, "pitch": 64, "duration": 11, "velocity": 75}, {"time": 4608, "pitch": 66, "duration": 11, "velocity": 78}, {"time": 4620, "pitch": 50, "duration": 14, "velocity": 55}, {"time": 4626, "pitch": 57, "duration": 4, "velocity": 59}, {"time": 4632, "pitch": 57, "duration": 9, "velocity": 63}, {"time": 4632, "pitch": 61, "duration": 9, "velocity": 84}, {"time": 4632, "pitch": 66, "duration": 8, "velocity": 83}, {"time": 4638, "pitch": 50, "duration": 9, "velocity": 72}, {"time": 4644, "pitch": 57, "duration": 5, "velocity": 78}, {"time": 4644, "pitch": 61, "duration": 1, "velocity": 53}, {"time": 4644, "pitch": 66, "duration": 3, "velocity": 77}, {"time": 4650, "pitch": 50, "duration": 3, "velocity": 75}, {"time": 4662, "pitch": 43, "duration": 87, "velocity": 82}, {"time": 4662, "pitch": 55, "duration": 14, "velocity": 71}, {"time": 4662, "pitch": 59, "duration": 7, "velocity": 75}, {"time": 4662, "pitch": 62, "duration": 7, "velocity": 82}, {"time": 4662, "pitch": 66, "duration": 8, "velocity": 76}, {"time": 4674, "pitch": 59, "duration": 15, "velocity": 55}, {"time": 4674, "pitch": 62, "duration": 13, "velocity": 75}, {"time": 4674, "pitch": 66, "duration": 13, "velocity": 63}, {"time": 4686, "pitch": 55, "duration": 25, "velocity": 62}, {"time": 4692, "pitch": 59, "duration": 6, "velocity": 49}, {"time": 4698, "pitch": 66, "duration": 19, "velocity": 63}, {"time": 4704, "pitch": 59, "duration": 13, "velocity": 75}, {"time": 4704, "pitch": 62, "duration": 13, "velocity": 72}, {"time": 4704, "pitch": 69, "duration": 13, "velocity": 75}, {"time": 4716, "pitch": 55, "duration": 14, "velocity": 60}, {"time": 4722, "pitch": 59, "duration": 4, "velocity": 61}, {"time": 4728, "pitch": 59, "duration": 8, "velocity": 73}, {"time": 4728, "pitch": 62, "duration": 8, "velocity": 83}, {"time": 4728, "pitch": 66, "duration": 9, "velocity": 82}, {"time": 4734, "pitch": 55, "duration": 7, "velocity": 63}, {"time": 4740, "pitch": 59, "duration": 8, "velocity": 75}, {"time": 4740, "pitch": 62, "duration": 2, "velocity": 68}, {"time": 4746, "pitch": 55, "duration": 3, "velocity": 69}, {"time": 4746, "pitch": 62, "duration": 2, "velocity": 78}, {"time": 4746, "pitch": 66, "duration": 3, "velocity": 80}, {"time": 4758, "pitch": 42, "duration": 10, "velocity": 84}, {"time": 4758, "pitch": 54, "duration": 10, "velocity": 78}, {"time": 4758, "pitch": 57, "duration": 7, "velocity": 76}, {"time": 4758, "pitch": 61, "duration": 6, "velocity": 83}, {"time": 4758, "pitch": 64, "duration": 7, "velocity": 79}, {"time": 4770, "pitch": 42, "duration": 57, "velocity": 84}, {"time": 4770, "pitch": 54, "duration": 7, "velocity": 82}, {"time": 4770, "pitch": 57, "duration": 13, "velocity": 75}, {"time": 4770, "pitch": 61, "duration": 13, "velocity": 80}, {"time": 4770, "pitch": 64, "duration": 13, "velocity": 79}, {"time": 4782, "pitch": 54, "duration": 11, "velocity": 63}, {"time": 4788, "pitch": 57, "duration": 4, "velocity": 57}, {"time": 4794, "pitch": 64, "duration": 5, "velocity": 76}, {"time": 4800, "pitch": 57, "duration": 13, "velocity": 79}, {"time": 4800, "pitch": 69, "duration": 13, "velocity": 82}, {"time": 4812, "pitch": 54, "duration": 14, "velocity": 61}, {"time": 4818, "pitch": 57, "duration": 4, "velocity": 54}, {"time": 4824, "pitch": 57, "duration": 9, "velocity": 80}, {"time": 4824, "pitch": 64, "duration": 10, "velocity": 86}, {"time": 4830, "pitch": 42, "duration": 3, "velocity": 84}, {"time": 4830, "pitch": 54, "duration": 2, "velocity": 68}, {"time": 4836, "pitch": 57, "duration": 4, "velocity": 75}, {"time": 4842, "pitch": 41, "duration": 11, "velocity": 83}, {"time": 4842, "pitch": 53, "duration": 2, "velocity": 58}, {"time": 4842, "pitch": 62, "duration": 4, "velocity": 84}, {"time": 4848, "pitch": 64, "duration": 4, "velocity": 46}, {"time": 4854, "pitch": 40, "duration": 4, "velocity": 83}, {"time": 4854, "pitch": 52, "duration": 4, "velocity": 73}, {"time": 4854, "pitch": 59, "duration": 3, "velocity": 79}, {"time": 4854, "pitch": 62, "duration": 3, "velocity": 82}, {"time": 4854, "pitch": 67, "duration": 3, "velocity": 82}, {"time": 4866, "pitch": 40, "duration": 71, "velocity": 83}, {"time": 4866, "pitch": 52, "duration": 6, "velocity": 75}, {"time": 4866, "pitch": 59, "duration": 14, "velocity": 78}, {"time": 4866, "pitch": 62, "duration": 13, "velocity": 79}, {"time": 4866, "pitch": 67, "duration": 11, "velocity": 81}, {"time": 4878, "pitch": 52, "duration": 12, "velocity": 57}, {"time": 4884, "pitch": 59, "duration": 8, "velocity": 59}, {"time": 4890, "pitch": 62, "duration": 4, "velocity": 76}, {"time": 4896, "pitch": 59, "duration": 13, "velocity": 76}, {"time": 4896, "pitch": 62, "duration": 12, "velocity": 82}, {"time": 4896, "pitch": 67, "duration": 11, "velocity": 84}, {"time": 4908, "pitch": 52, "duration": 13, "velocity": 78}, {"time": 4914, "pitch": 59, "duration": 5, "velocity": 63}, {"time": 4920, "pitch": 59, "duration": 9, "velocity": 68}, {"time": 4920, "pitch": 62, "duration": 9, "velocity": 86}, {"time": 4920, "pitch": 67, "duration": 9, "velocity": 86}, {"time": 4926, "pitch": 52, "duration": 7, "velocity": 72}, {"time": 4932, "pitch": 59, "duration": 8, "velocity": 77}, {"time": 4932, "pitch": 66, "duration": 11, "velocity": 84}, {"time": 4938, "pitch": 52, "duration": 3, "velocity": 71}, {"time": 4944, "pitch": 62, "duration": 4, "velocity": 73}, {"time": 4950, "pitch": 45, "duration": 42, "velocity": 82}, {"time": 4950, "pitch": 59, "duration": 14, "velocity": 75}, {"time": 4950, "pitch": 62, "duration": 13, "velocity": 82}, {"time": 4950, "pitch": 67, "duration": 11, "velocity": 83}, {"time": 4956, "pitch": 52, "duration": 40, "velocity": 72}, {"time": 4962, "pitch": 57, "duration": 18, "velocity": 62}, {"time": 4968, "pitch": 59, "duration": 9, "velocity": 63}, {"time": 4980, "pitch": 59, "duration": 7, "velocity": 77}, {"time": 4980, "pitch": 62, "duration": 8, "velocity": 90}, {"time": 4980, "pitch": 67, "duration": 7, "velocity": 83}, {"time": 4992, "pitch": 57, "duration": 3, "velocity": 54}, {"time": 4998, "pitch": 45, "duration": 38, "velocity": 78}, {"time": 4998, "pitch": 61, "duration": 13, "velocity": 79}, {"time": 4998, "pitch": 64, "duration": 12, "velocity": 78}, {"time": 4998, "pitch": 69, "duration": 12, "velocity": 82}, {"time": 5010, "pitch": 52, "duration": 14, "velocity": 69}, {"time": 5022, "pitch": 57, "duration": 7, "velocity": 69}, {"time": 5022, "pitch": 59, "duration": 3, "velocity": 78}, {"time": 5022, "pitch": 62, "duration": 3, "velocity": 82}, {"time": 5022, "pitch": 67, "duration": 4, "velocity": 86}, {"time": 5034, "pitch": 52, "duration": 8, "velocity": 83}, {"time": 5034, "pitch": 61, "duration": 2, "velocity": 76}, {"time": 5034, "pitch": 62, "duration": 2, "velocity": 84}, {"time": 5034, "pitch": 69, "duration": 4, "velocity": 83}, {"time": 5046, "pitch": 45, "duration": 9, "velocity": 80}, {"time": 5046, "pitch": 59, "duration": 10, "velocity": 76}, {"time": 5046, "pitch": 62, "duration": 9, "velocity": 82}, {"time": 5046, "pitch": 67, "duration": 10, "velocity": 82}, {"time": 5094, "pitch": 50, "duration": 39, "velocity": 90}, {"time": 5094, "pitch": 62, "duration": 30, "velocity": 81}, {"time": 5094, "pitch": 66, "duration": 19, "velocity": 83}, {"time": 5094, "pitch": 69, "duration": 19, "velocity": 86}, {"time": 5094, "pitch": 74, "duration": 18, "velocity": 90}, {"time": 5118, "pitch": 66, "duration": 15, "velocity": 81}, {"time": 5118, "pitch": 69, "duration": 14, "velocity": 84}, {"time": 5118, "pitch": 74, "duration": 14, "velocity": 86}, {"time": 5130, "pitch": 62, "duration": 3, "velocity": 75}, {"time": 5142, "pitch": 49, "duration": 31, "velocity": 86}, {"time": 5142, "pitch": 61, "duration": 11, "velocity": 74}, {"time": 5142, "pitch": 64, "duration": 19, "velocity": 77}, {"time": 5142, "pitch": 69, "duration": 19, "velocity": 76}, {"time": 5142, "pitch": 73, "duration": 19, "velocity": 83}, {"time": 5142, "pitch": 76, "duration": 19, "velocity": 76}, {"time": 5154, "pitch": 61, "duration": 11, "velocity": 57}, {"time": 5166, "pitch": 64, "duration": 14, "velocity": 83}, {"time": 5166, "pitch": 69, "duration": 14, "velocity": 80}, {"time": 5166, "pitch": 73, "duration": 15, "velocity": 86}, {"time": 5178, "pitch": 49, "duration": 4, "velocity": 72}, {"time": 5178, "pitch": 61, "duration": 2, "velocity": 72}, {"time": 5190, "pitch": 47, "duration": 36, "velocity": 84}, {"time": 5190, "pitch": 59, "duration": 10, "velocity": 75}, {"time": 5190, "pitch": 66, "duration": 19, "velocity": 77}, {"time": 5190, "pitch": 69, "duration": 19, "velocity": 79}, {"time": 5190, "pitch": 74, "duration": 19, "velocity": 84}, {"time": 5208, "pitch": 59, "duration": 10, "velocity": 59}, {"time": 5214, "pitch": 66, "duration": 13, "velocity": 83}, {"time": 5214, "pitch": 69, "duration": 13, "velocity": 84}, {"time": 5214, "pitch": 74, "duration": 12, "velocity": 90}, {"time": 5226, "pitch": 47, "duration": 2, "velocity": 79}, {"time": 5226, "pitch": 59, "duration": 2, "velocity": 73}, {"time": 5238, "pitch": 42, "duration": 44, "velocity": 86}, {"time": 5238, "pitch": 54, "duration": 10, "velocity": 79}, {"time": 5238, "pitch": 64, "duration": 14, "velocity": 79}, {"time": 5238, "pitch": 69, "duration": 19, "velocity": 78}, {"time": 5238, "pitch": 73, "duration": 13, "velocity": 83}, {"time": 5256, "pitch": 54, "duration": 15, "velocity": 84}, {"time": 5262, "pitch": 66, "duration": 9, "velocity": 81}, {"time": 5262, "pitch": 73, "duration": 6, "velocity": 84}, {"time": 5268, "pitch": 74, "duration": 8, "velocity": 86}, {"time": 5274, "pitch": 73, "duration": 4, "velocity": 82}, {"time": 5280, "pitch": 54, "duration": 3, "velocity": 79}, {"time": 5280, "pitch": 69, "duration": 5, "velocity": 80}, {"time": 5286, "pitch": 43, "duration": 38, "velocity": 77}, {"time": 5286, "pitch": 55, "duration": 11, "velocity": 79}, {"time": 5286, "pitch": 62, "duration": 19, "velocity": 82}, {"time": 5286, "pitch": 67, "duration": 19, "velocity": 79}, {"time": 5286, "pitch": 71, "duration": 19, "velocity": 76}, {"time": 5304, "pitch": 55, "duration": 14, "velocity": 75}, {"time": 5310, "pitch": 62, "duration": 14, "velocity": 78}, {"time": 5310, "pitch": 67, "duration": 14, "velocity": 83}, {"time": 5310, "pitch": 71, "duration": 12, "velocity": 76}, {"time": 5316, "pitch": 50, "duration": 17, "velocity": 83}, {"time": 5322, "pitch": 55, "duration": 6, "velocity": 73}, {"time": 5328, "pitch": 67, "duration": 4, "velocity": 73}, {"time": 5328, "pitch": 71, "duration": 4, "velocity": 69}, {"time": 5334, "pitch": 45, "duration": 15, "velocity": 84}, {"time": 5334, "pitch": 64, "duration": 31, "velocity": 82}, {"time": 5334, "pitch": 69, "duration": 31, "velocity": 80}, {"time": 5334, "pitch": 73, "duration": 31, "velocity": 80}, {"time": 5346, "pitch": 52, "duration": 5, "velocity": 79}, {"time": 5352, "pitch": 57, "duration": 9, "velocity": 58}, {"time": 5358, "pitch": 59, "duration": 12, "velocity": 73}, {"time": 5364, "pitch": 61, "duration": 7, "velocity": 84}, {"time": 5370, "pitch": 64, "duration": 8, "velocity": 78}, {"time": 5376, "pitch": 69, "duration": 4, "velocity": 82}, {"time": 5382, "pitch": 47, "duration": 8, "velocity": 82}, {"time": 5382, "pitch": 66, "duration": 25, "velocity": 84}, {"time": 5382, "pitch": 74, "duration": 26, "velocity": 91}, {"time": 5388, "pitch": 54, "duration": 5, "velocity": 79}, {"time": 5394, "pitch": 59, "duration": 8, "velocity": 58}, {"time": 5400, "pitch": 61, "duration": 15, "velocity": 78}, {"time": 5406, "pitch": 62, "duration": 8, "velocity": 86}, {"time": 5412, "pitch": 66, "duration": 4, "velocity": 79}, {"time": 5418, "pitch": 73, "duration": 7, "velocity": 83}, {"time": 5424, "pitch": 66, "duration": 1, "velocity": 53}, {"time": 5424, "pitch": 74, "duration": 9, "velocity": 91}, {"time": 5430, "pitch": 47, "duration": 36, "velocity": 78}, {"time": 5430, "pitch": 73, "duration": 6, "velocity": 84}, {"time": 5436, "pitch": 54, "duration": 32, "velocity": 78}, {"time": 5436, "pitch": 71, "duration": 6, "velocity": 75}, {"time": 5442, "pitch": 66, "duration": 6, "velocity": 75}, {"time": 5448, "pitch": 64, "duration": 5, "velocity": 68}, {"time": 5454, "pitch": 62, "duration": 10, "velocity": 76}, {"time": 5460, "pitch": 59, "duration": 6, "velocity": 76}, {"time": 5466, "pitch": 59, "duration": 1, "velocity": 62}, {"time": 5466, "pitch": 61, "duration": 3, "velocity": 69}, {"time": 5472, "pitch": 62, "duration": 4, "velocity": 80}, {"time": 5478, "pitch": 50, "duration": 26, "velocity": 82}, {"time": 5478, "pitch": 57, "duration": 21, "velocity": 78}, {"time": 5478, "pitch": 62, "duration": 10, "velocity": 82}, {"time": 5478, "pitch": 66, "duration": 9, "velocity": 81}, {"time": 5496, "pitch": 38, "duration": 15, "velocity": 50}, {"time": 5502, "pitch": 57, "duration": 8, "velocity": 82}, {"time": 5502, "pitch": 62, "duration": 9, "velocity": 86}, {"time": 5502, "pitch": 69, "duration": 10, "velocity": 86}, {"time": 5508, "pitch": 50, "duration": 7, "velocity": 78}, {"time": 5514, "pitch": 57, "duration": 5, "velocity": 61}, {"time": 5520, "pitch": 69, "duration": 4, "velocity": 80}, {"time": 5526, "pitch": 49, "duration": 39, "velocity": 90}, {"time": 5526, "pitch": 61, "duration": 7, "velocity": 82}, {"time": 5526, "pitch": 64, "duration": 8, "velocity": 84}, {"time": 5526, "pitch": 69, "duration": 9, "velocity": 71}, {"time": 5538, "pitch": 57, "duration": 28, "velocity": 72}, {"time": 5544, "pitch": 64, "duration": 4, "velocity": 58}, {"time": 5544, "pitch": 69, "duration": 2, "velocity": 68}, {"time": 5544, "pitch": 74, "duration": 7, "velocity": 84}, {"time": 5550, "pitch": 61, "duration": 6, "velocity": 54}, {"time": 5556, "pitch": 66, "duration": 7, "velocity": 70}, {"time": 5556, "pitch": 73, "duration": 8, "velocity": 81}, {"time": 5562, "pitch": 61, "duration": 2, "velocity": 68}, {"time": 5568, "pitch": 71, "duration": 5, "velocity": 75}, {"time": 5574, "pitch": 43, "duration": 5, "velocity": 84}, {"time": 5574, "pitch": 62, "duration": 20, "velocity": 79}, {"time": 5574, "pitch": 67, "duration": 20, "velocity": 57}, {"time": 5574, "pitch": 71, "duration": 20, "velocity": 80}, {"time": 5580, "pitch": 55, "duration": 8, "velocity": 47}, {"time": 5586, "pitch": 57, "duration": 21, "velocity": 76}, {"time": 5592, "pitch": 59, "duration": 15, "velocity": 80}, {"time": 5598, "pitch": 62, "duration": 4, "velocity": 81}, {"time": 5604, "pitch": 67, "duration": 4, "velocity": 83}, {"time": 5610, "pitch": 69, "duration": 4, "velocity": 79}, {"time": 5616, "pitch": 71, "duration": 5, "velocity": 77}, {"time": 5622, "pitch": 47, "duration": 39, "velocity": 81}, {"time": 5622, "pitch": 66, "duration": 9, "velocity": 59}, {"time": 5622, "pitch": 74, "duration": 13, "velocity": 91}, {"time": 5628, "pitch": 54, "duration": 34, "velocity": 78}, {"time": 5634, "pitch": 59, "duration": 6, "velocity": 53}, {"time": 5640, "pitch": 64, "duration": 3, "velocity": 75}, {"time": 5640, "pitch": 73, "duration": 4, "velocity": 84}, {"time": 5646, "pitch": 59, "duration": 6, "velocity": 43}, {"time": 5646, "pitch": 73, "duration": 2, "velocity": 49}, {"time": 5652, "pitch": 66, "duration": 8, "velocity": 76}, {"time": 5652, "pitch": 74, "duration": 9, "velocity": 86}, {"time": 5658, "pitch": 59, "duration": 3, "velocity": 62}, {"time": 5664, "pitch": 69, "duration": 4, "velocity": 82}, {"time": 5670, "pitch": 43, "duration": 38, "velocity": 82}, {"time": 5670, "pitch": 62, "duration": 18, "velocity": 84}, {"time": 5670, "pitch": 67, "duration": 19, "velocity": 80}, {"time": 5670, "pitch": 71, "duration": 13, "velocity": 78}, {"time": 5688, "pitch": 55, "duration": 7, "velocity": 61}, {"time": 5694, "pitch": 62, "duration": 9, "velocity": 83}, {"time": 5694, "pitch": 67, "duration": 9, "velocity": 84}, {"time": 5694, "pitch": 71, "duration": 8, "velocity": 77}, {"time": 5700, "pitch": 55, "duration": 9, "velocity": 78}, {"time": 5706, "pitch": 62, "duration": 5, "velocity": 72}, {"time": 5712, "pitch": 67, "duration": 2, "velocity": 68}, {"time": 5712, "pitch": 71, "duration": 5, "velocity": 78}, {"time": 5718, "pitch": 45, "duration": 11, "velocity": 90}, {"time": 5718, "pitch": 64, "duration": 26, "velocity": 84}, {"time": 5718, "pitch": 69, "duration": 25, "velocity": 80}, {"time": 5718, "pitch": 73, "duration": 26, "velocity": 90}, {"time": 5724, "pitch": 52, "duration": 6, "velocity": 80}, {"time": 5730, "pitch": 57, "duration": 8, "velocity": 54}, {"time": 5736, "pitch": 59, "duration": 14, "velocity": 73}, {"time": 5742, "pitch": 61, "duration": 8, "velocity": 80}, {"time": 5748, "pitch": 64, "duration": 4, "velocity": 72}, {"time": 5754, "pitch": 71, "duration": 10, "velocity": 78}, {"time": 5760, "pitch": 73, "duration": 5, "velocity": 82}, {"time": 5766, "pitch": 47, "duration": 40, "velocity": 81}, {"time": 5766, "pitch": 62, "duration": 13, "velocity": 82}, {"time": 5766, "pitch": 66, "duration": 11, "velocity": 80}, {"time": 5766, "pitch": 71, "duration": 13, "velocity": 83}, {"time": 5772, "pitch": 54, "duration": 39, "velocity": 76}, {"time": 5778, "pitch": 59, "duration": 30, "velocity": 69}, {"time": 5784, "pitch": 61, "duration": 6, "velocity": 79}, {"time": 5790, "pitch": 62, "duration": 3, "velocity": 80}, {"time": 5796, "pitch": 66, "duration": 7, "velocity": 81}, {"time": 5802, "pitch": 71, "duration": 6, "velocity": 80}, {"time": 5808, "pitch": 66, "duration": 7, "velocity": 71}, {"time": 5808, "pitch": 74, "duration": 10, "velocity": 91}, {"time": 5814, "pitch": 47, "duration": 37, "velocity": 72}, {"time": 5820, "pitch": 64, "duration": 4, "velocity": 81}, {"time": 5820, "pitch": 73, "duration": 5, "velocity": 84}, {"time": 5826, "pitch": 54, "duration": 13, "velocity": 76}, {"time": 5832, "pitch": 62, "duration": 7, "velocity": 84}, {"time": 5832, "pitch": 69, "duration": 8, "velocity": 90}, {"time": 5838, "pitch": 59, "duration": 9, "velocity": 73}, {"time": 5844, "pitch": 62, "duration": 6, "velocity": 83}, {"time": 5844, "pitch": 69, "duration": 1, "velocity": 49}, {"time": 5850, "pitch": 54, "duration": 3, "velocity": 83}, {"time": 5850, "pitch": 64, "duration": 4, "velocity": 80}, {"time": 5856, "pitch": 66, "duration": 3, "velocity": 69}, {"time": 5862, "pitch": 38, "duration": 38, "velocity": 101}, {"time": 5862, "pitch": 57, "duration": 19, "velocity": 90}, {"time": 5862, "pitch": 62, "duration": 20, "velocity": 86}, {"time": 5862, "pitch": 66, "duration": 13, "velocity": 82}, {"time": 5880, "pitch": 50, "duration": 8, "velocity": 60}, {"time": 5886, "pitch": 57, "duration": 14, "velocity": 84}, {"time": 5886, "pitch": 62, "duration": 14, "velocity": 86}, {"time": 5886, "pitch": 66, "duration": 13, "velocity": 86}, {"time": 5898, "pitch": 50, "duration": 12, "velocity": 75}, {"time": 5904, "pitch": 57, "duration": 4, "velocity": 75}, {"time": 5910, "pitch": 49, "duration": 42, "velocity": 84}, {"time": 5910, "pitch": 57, "duration": 2, "velocity": 63}, {"time": 5910, "pitch": 61, "duration": 10, "velocity": 83}, {"time": 5910, "pitch": 64, "duration": 11, "velocity": 86}, {"time": 5928, "pitch": 64, "duration": 8, "velocity": 83}, {"time": 5928, "pitch": 69, "duration": 8, "velocity": 84}, {"time": 5934, "pitch": 61, "duration": 15, "velocity": 73}, {"time": 5940, "pitch": 64, "duration": 5, "velocity": 80}, {"time": 5946, "pitch": 69, "duration": 7, "velocity": 80}, {"time": 5952, "pitch": 73, "duration": 3, "velocity": 82}, {"time": 5958, "pitch": 43, "duration": 40, "velocity": 83}, {"time": 5958, "pitch": 62, "duration": 19, "velocity": 83}, {"time": 5958, "pitch": 67, "duration": 19, "velocity": 83}, {"time": 5958, "pitch": 71, "duration": 15, "velocity": 84}, {"time": 5970, "pitch": 50, "duration": 32, "velocity": 76}, {"time": 5976, "pitch": 55, "duration": 28, "velocity": 75}, {"time": 5982, "pitch": 62, "duration": 4, "velocity": 80}, {"time": 5988, "pitch": 67, "duration": 4, "velocity": 83}, {"time": 5994, "pitch": 69, "duration": 5, "velocity": 81}, {"time": 6000, "pitch": 71, "duration": 6, "velocity": 78}, {"time": 6006, "pitch": 47, "duration": 9, "velocity": 82}, {"time": 6006, "pitch": 66, "duration": 8, "velocity": 79}, {"time": 6006, "pitch": 74, "duration": 12, "velocity": 84}, {"time": 6012, "pitch": 54, "duration": 5, "velocity": 73}, {"time": 6018, "pitch": 59, "duration": 8, "velocity": 57}, {"time": 6018, "pitch": 66, "duration": 3, "velocity": 75}, {"time": 6018, "pitch": 73, "duration": 12, "velocity": 91}, {"time": 6024, "pitch": 61, "duration": 17, "velocity": 72}, {"time": 6030, "pitch": 66, "duration": 3, "velocity": 79}, {"time": 6030, "pitch": 74, "duration": 8, "velocity": 84}, {"time": 6036, "pitch": 62, "duration": 5, "velocity": 83}, {"time": 6042, "pitch": 66, "duration": 3, "velocity": 80}, {"time": 6042, "pitch": 69, "duration": 3, "velocity": 81}, {"time": 6054, "pitch": 43, "duration": 10, "velocity": 83}, {"time": 6054, "pitch": 62, "duration": 25, "velocity": 81}, {"time": 6054, "pitch": 67, "duration": 24, "velocity": 74}, {"time": 6054, "pitch": 71, "duration": 22, "velocity": 81}, {"time": 6060, "pitch": 50, "duration": 6, "velocity": 79}, {"time": 6066, "pitch": 55, "duration": 8, "velocity": 69}, {"time": 6072, "pitch": 57, "duration": 14, "velocity": 54}, {"time": 6078, "pitch": 59, "duration": 8, "velocity": 76}, {"time": 6084, "pitch": 62, "duration": 4, "velocity": 72}, {"time": 6090, "pitch": 67, "duration": 5, "velocity": 79}, {"time": 6096, "pitch": 71, "duration": 5, "velocity": 75}, {"time": 6102, "pitch": 45, "duration": 38, "velocity": 82}, {"time": 6102, "pitch": 64, "duration": 16, "velocity": 82}, {"time": 6102, "pitch": 69, "duration": 14, "velocity": 83}, {"time": 6102, "pitch": 73, "duration": 13, "velocity": 82}, {"time": 6114, "pitch": 52, "duration": 12, "velocity": 69}, {"time": 6126, "pitch": 57, "duration": 14, "velocity": 62}, {"time": 6126, "pitch": 64, "duration": 14, "velocity": 79}, {"time": 6126, "pitch": 69, "duration": 13, "velocity": 82}, {"time": 6126, "pitch": 73, "duration": 13, "velocity": 86}, {"time": 6138, "pitch": 52, "duration": 7, "velocity": 81}, {"time": 6150, "pitch": 47, "duration": 85, "velocity": 79}, {"time": 6150, "pitch": 64, "duration": 3, "velocity": 63}, {"time": 6150, "pitch": 66, "duration": 2, "velocity": 69}, {"time": 6150, "pitch": 71, "duration": 14, "velocity": 67}, {"time": 6156, "pitch": 54, "duration": 68, "velocity": 78}, {"time": 6162, "pitch": 59, "duration": 18, "velocity": 78}, {"time": 6168, "pitch": 64, "duration": 9, "velocity": 76}, {"time": 6180, "pitch": 64, "duration": 4, "velocity": 80}, {"time": 6180, "pitch": 69, "duration": 5, "velocity": 84}, {"time": 6192, "pitch": 59, "duration": 9, "velocity": 45}, {"time": 6198, "pitch": 62, "duration": 10, "velocity": 82}, {"time": 6198, "pitch": 66, "duration": 11, "velocity": 80}, {"time": 6204, "pitch": 59, "duration": 12, "velocity": 43}, {"time": 6210, "pitch": 61, "duration": 4, "velocity": 70}, {"time": 6210, "pitch": 64, "duration": 5, "velocity": 78}, {"time": 6216, "pitch": 62, "duration": 7, "velocity": 80}, {"time": 6216, "pitch": 66, "duration": 11, "velocity": 81}, {"time": 6222, "pitch": 59, "duration": 8, "velocity": 54}, {"time": 6228, "pitch": 62, "duration": 8, "velocity": 81}, {"time": 6228, "pitch": 69, "duration": 13, "velocity": 80}, {"time": 6234, "pitch": 54, "duration": 3, "velocity": 84}, {"time": 6246, "pitch": 43, "duration": 38, "velocity": 84}, {"time": 6246, "pitch": 55, "duration": 30, "velocity": 72}, {"time": 6246, "pitch": 59, "duration": 20, "velocity": 76}, {"time": 6246, "pitch": 62, "duration": 20, "velocity": 80}, {"time": 6246, "pitch": 66, "duration": 16, "velocity": 79}, {"time": 6270, "pitch": 59, "duration": 15, "velocity": 76}, {"time": 6270, "pitch": 62, "duration": 14, "velocity": 84}, {"time": 6270, "pitch": 66, "duration": 13, "velocity": 80}, {"time": 6282, "pitch": 55, "duration": 5, "velocity": 75}, {"time": 6288, "pitch": 55, "duration": 2, "velocity": 39}, {"time": 6288, "pitch": 59, "duration": 3, "velocity": 51}, {"time": 6288, "pitch": 62, "duration": 2, "velocity": 69}, {"time": 6294, "pitch": 45, "duration": 41, "velocity": 83}, {"time": 6294, "pitch": 61, "duration": 14, "velocity": 82}, {"time": 6294, "pitch": 64, "duration": 12, "velocity": 82}, {"time": 6294, "pitch": 66, "duration": 3, "velocity": 35}, {"time": 6294, "pitch": 69, "duration": 14, "velocity": 77}, {"time": 6306, "pitch": 52, "duration": 31, "velocity": 48}, {"time": 6318, "pitch": 61, "duration": 6, "velocity": 75}, {"time": 6318, "pitch": 64, "duration": 8, "velocity": 82}, {"time": 6318, "pitch": 69, "duration": 9, "velocity": 73}, {"time": 6330, "pitch": 57, "duration": 9, "velocity": 56}, {"time": 6342, "pitch": 47, "duration": 22, "velocity": 75}, {"time": 6342, "pitch": 74, "duration": 6, "velocity": 54}, {"time": 6353, "pitch": 54, "duration": 11, "velocity": 76}, {"time": 6366, "pitch": 59, "duration": 13, "velocity": 57}, {"time": 6366, "pitch": 66, "duration": 10, "velocity": 67}, {"time": 6366, "pitch": 73, "duration": 10, "velocity": 77}, {"time": 6378, "pitch": 61, "duration": 13, "velocity": 49}, {"time": 6390, "pitch": 62, "duration": 2, "velocity": 71}, {"time": 6390, "pitch": 66, "duration": 17, "velocity": 70}, {"time": 6390, "pitch": 74, "duration": 16, "velocity": 82}, {"time": 6414, "pitch": 66, "duration": 9, "velocity": 75}, {"time": 6414, "pitch": 74, "duration": 9, "velocity": 81}, {"time": 6426, "pitch": 71, "duration": 3, "velocity": 79}, {"time": 6438, "pitch": 43, "duration": 85, "velocity": 76}, {"time": 6438, "pitch": 55, "duration": 30, "velocity": 53}, {"time": 6438, "pitch": 62, "duration": 14, "velocity": 72}, {"time": 6438, "pitch": 67, "duration": 12, "velocity": 73}, {"time": 6438, "pitch": 71, "duration": 11, "velocity": 68}, {"time": 6462, "pitch": 62, "duration": 13, "velocity": 60}, {"time": 6462, "pitch": 67, "duration": 12, "velocity": 75}, {"time": 6462, "pitch": 71, "duration": 14, "velocity": 61}, {"time": 6474, "pitch": 55, "duration": 19, "velocity": 50}, {"time": 6480, "pitch": 62, "duration": 8, "velocity": 63}, {"time": 6480, "pitch": 69, "duration": 10, "velocity": 69}, {"time": 6492, "pitch": 62, "duration": 11, "velocity": 70}, {"time": 6492, "pitch": 67, "duration": 12, "velocity": 76}, {"time": 6492, "pitch": 71, "duration": 11, "velocity": 70}, {"time": 6504, "pitch": 55, "duration": 10, "velocity": 51}, {"time": 6510, "pitch": 62, "duration": 12, "velocity": 75}, {"time": 6510, "pitch": 67, "duration": 8, "velocity": 79}, {"time": 6510, "pitch": 71, "duration": 9, "velocity": 72}, {"time": 6522, "pitch": 55, "duration": 4, "velocity": 60}, {"time": 6534, "pitch": 47, "duration": 84, "velocity": 68}, {"time": 6534, "pitch": 59, "duration": 18, "velocity": 63}, {"time": 6534, "pitch": 62, "duration": 18, "velocity": 75}, {"time": 6534, "pitch": 66, "duration": 14, "velocity": 75}, {"time": 6558, "pitch": 59, "duration": 5, "velocity": 61}, {"time": 6558, "pitch": 62, "duration": 11, "velocity": 78}, {"time": 6558, "pitch": 66, "duration": 12, "velocity": 73}, {"time": 6570, "pitch": 59, "duration": 19, "velocity": 27}, {"time": 6576, "pitch": 61, "duration": 7, "velocity": 62}, {"time": 6576, "pitch": 64, "duration": 10, "velocity": 76}, {"time": 6588, "pitch": 62, "duration": 12, "velocity": 75}, {"time": 6588, "pitch": 66, "duration": 11, "velocity": 72}, {"time": 6600, "pitch": 59, "duration": 8, "velocity": 36}, {"time": 6606, "pitch": 61, "duration": 6, "velocity": 61}, {"time": 6606, "pitch": 62, "duration": 7, "velocity": 73}, {"time": 6606, "pitch": 66, "duration": 7, "velocity": 74}, {"time": 6612, "pitch": 59, "duration": 6, "velocity": 36}, {"time": 6618, "pitch": 61, "duration": 5, "velocity": 41}, {"time": 6618, "pitch": 64, "duration": 4, "velocity": 62}, {"time": 6624, "pitch": 66, "duration": 4, "velocity": 61}, {"time": 6630, "pitch": 45, "duration": 83, "velocity": 76}, {"time": 6630, "pitch": 57, "duration": 11, "velocity": 44}, {"time": 6630, "pitch": 61, "duration": 17, "velocity": 72}, {"time": 6630, "pitch": 64, "duration": 16, "velocity": 73}, {"time": 6630, "pitch": 69, "duration": 17, "velocity": 68}, {"time": 6645, "pitch": 57, "duration": 14, "velocity": 7}, {"time": 6654, "pitch": 61, "duration": 12, "velocity": 63}, {"time": 6654, "pitch": 64, "duration": 11, "velocity": 72}, {"time": 6654, "pitch": 69, "duration": 11, "velocity": 59}, {"time": 6666, "pitch": 57, "duration": 20, "velocity": 38}, {"time": 6672, "pitch": 61, "duration": 6, "velocity": 59}, {"time": 6672, "pitch": 64, "duration": 6, "velocity": 76}, {"time": 6672, "pitch": 69, "duration": 6, "velocity": 52}, {"time": 6684, "pitch": 61, "duration": 10, "velocity": 49}, {"time": 6684, "pitch": 64, "duration": 10, "velocity": 69}, {"time": 6684, "pitch": 69, "duration": 10, "velocity": 40}, {"time": 6696, "pitch": 57, "duration": 9, "velocity": 49}, {"time": 6702, "pitch": 61, "duration": 10, "velocity": 52}, {"time": 6702, "pitch": 64, "duration": 12, "velocity": 71}, {"time": 6702, "pitch": 69, "duration": 15, "velocity": 39}, {"time": 6714, "pitch": 57, "duration": 12, "velocity": 58}, {"time": 6726, "pitch": 47, "duration": 78, "velocity": 58}, {"time": 6726, "pitch": 59, "duration": 36, "velocity": 44}, {"time": 6726, "pitch": 62, "duration": 42, "velocity": 61}, {"time": 6726, "pitch": 66, "duration": 41, "velocity": 56}, {"time": 6732, "pitch": 69, "duration": 40, "velocity": 3}, {"time": 6789, "pitch": 83, "duration": 11, "velocity": 46}, {"time": 6795, "pitch": 95, "duration": 11, "velocity": 62}], "annotations": [{"time": 55, "annotation": {"number": 64, "value": 127}, "group": "control_change"}, {"time": 149, "annotation": {"number": 64, "value": 0}, "group": "control_change"}, {"time": 155, "annotation": {"number": 64, "value": 127}, "group": "control_change"}, {"time": 244, "annotation": {"number": 64, "value": 0}, "group": "control_change"}, {"time": 250, "annotation": {"number": 64, "value": 127}, "group": "control_change"}, {"time": 343, "annotation": {"number": 64, "value": 0}, "group": "control_change"}, {"time": 348, "annotation": {"number": 64, "value": 127}, "group": "control_change"}, {"time": 431, "annotation": {"number": 64, "value": 0}, "group": "control_change"}, {"time": 441, "annotation": {"number": 64, "value": 127}, "group": "control_change"}, {"time": 485, "annotation": {"number": 64, "value": 0}, "group": "control_change"}, {"time": 493, "annotation": {"number": 64, "value": 127}, "group": "control_change"}, {"time": 532, "annotation": {"number": 64, "value": 0}, "group": "control_change"}, {"time": 539, "annotation": {"number": 64, "value": 127}, "group": "control_change"}, {"time": 629, "annotation": {"number": 64, "value": 0}, "group": "control_change"}, {"time": 635, "annotation": {"number": 64, "value": 127}, "group": "control_change"}, {"time": 676, "annotation": {"number": 64, "value": 0}, "group": "control_change"}, {"time": 688, "annotation": {"number": 64, "value": 127}, "group": "control_change"}, {"time": 723, "annotation": {"number": 64, "value": 0}, "group": "control_change"}, {"time": 740, "annotation": {"number": 64, "value": 127}, "group": "control_change"}, {"time": 816, "annotation": {"number": 64, "value": 0}, "group": "control_change"}, {"time": 827, "annotation": {"number": 64, "value": 127}, "group": "control_change"}, {"time": 871, "annotation": {"number": 64, "value": 0}, "group": "control_change"}, {"time": 876, "annotation": {"number": 64, "value": 127}, "group": "control_change"}, {"time": 917, "annotation": {"number": 64, "value": 0}, "group": "control_change"}, {"time": 923, "annotation": {"number": 64, "value": 127}, "group": "control_change"}, {"time": 1013, "annotation": {"number": 64, "value": 0}, "group": "control_change"}, {"time": 1015, "annotation": {"number": 64, "value": 127}, "group": "control_change"}, {"time": 1108, "annotation": {"number": 64, "value": 0}, "group": "control_change"}, {"time": 1113, "annotation": {"number": 64, "value": 127}, "group": "control_change"}, {"time": 1205, "annotation": {"number": 64, "value": 0}, "group": "control_change"}, {"time": 1208, "annotation": {"number": 64, "value": 127}, "group": "control_change"}, {"time": 1253, "annotation": {"number": 64, "value": 0}, "group": "control_change"}, {"time": 1262, "annotation": {"number": 64, "value": 127}, "group": "control_change"}, {"time": 1296, "annotation": {"number": 64, "value": 0}, "group": "control_change"}, {"time": 1309, "annotation": {"number": 64, "value": 127}, "group": "control_change"}, {"time": 1395, "annotation": {"number": 64, "value": 0}, "group": "control_change"}, {"time": 1400, "annotation": {"number": 64, "value": 127}, "group": "control_change"}, {"time": 1444, "annotation": {"number": 64, "value": 0}, "group": "control_change"}, {"time": 1449, "annotation": {"number": 64, "value": 127}, "group": "control_change"}, {"time": 1492, "annotation": {"number": 64, "value": 0}, "group": "control_change"}, {"time": 1496, "annotation": {"number": 64, "value": 127}, "group": "control_change"}, {"time": 1588, "annotation": {"number": 64, "value": 0}, "group": "control_change"}, {"time": 1590, "annotation": {"number": 64, "value": 127}, "group": "control_change"}, {"time": 1685, "annotation": {"number": 64, "value": 0}, "group": "control_change"}, {"time": 1688, "annotation": {"number": 64, "value": 127}, "group": "control_change"}, {"time": 1780, "annotation": {"number": 64, "value": 0}, "group": "control_change"}, {"time": 1784, "annotation": {"number": 64, "value": 127}, "group": "control_change"}, {"time": 1830, "annotation": {"number": 64, "value": 127}, "group": "control_change"}, {"time": 1973, "annotation": {"number": 64, "value": 127}, "group": "control_change"}, {"time": 1974, "annotation": {"number": 64, "value": 0}, "group": "control_change"}, {"time": 1976, "annotation": {"number": 64, "value": 0}, "group": "control_change"}, {"time": 2021, "annotation": {"number": 64, "value": 0}, "group": "control_change"}, {"time": 2031, "annotation": {"number": 64, "value": 127}, "group": "control_change"}, {"time": 2070, "annotation": {"number": 64, "value": 0}, "group": "control_change"}, {"time": 2077, "annotation": {"number": 64, "value": 127}, "group": "control_change"}, {"time": 2116, "annotation": {"number": 64, "value": 0}, "group": "control_change"}, {"time": 2123, "annotation": {"number": 64, "value": 127}, "group": "control_change"}, {"time": 2163, "annotation": {"number": 64, "value": 0}, "group": "control_change"}, {"time": 2169, "annotation": {"number": 64, "value": 127}, "group": "control_change"}, {"time": 2210, "annotation": {"number": 64, "value": 0}, "group": "control_change"}, {"time": 2216, "annotation": {"number": 64, "value": 127}, "group": "control_change"}, {"time": 2260, "annotation": {"number": 64, "value": 0}, "group": "control_change"}, {"time": 2263, "annotation": {"number": 64, "value": 127}, "group": "control_change"}, {"time": 2355, "annotation": {"number": 64, "value": 0}, "group": "control_change"}, {"time": 2360, "annotation": {"number": 64, "value": 127}, "group": "control_change"}, {"time": 2404, "annotation": {"number": 64, "value": 0}, "group": "control_change"}, {"time": 2409, "annotation": {"number": 64, "value": 127}, "group": "control_change"}, {"time": 2454, "annotation": {"number": 64, "value": 127}, "group": "control_change"}, {"time": 2500, "annotation": {"number": 64, "value": 0}, "group": "control_change"}, {"time": 2505, "annotation": {"number": 64, "value": 127}, "group": "control_change"}, {"time": 2550, "annotation": {"number": 64, "value": 0}, "group": "control_change"}, {"time": 2555, "annotation": {"number": 64, "value": 127}, "group": "control_change"}, {"time": 2595, "annotation": {"number": 64, "value": 0}, "group": "control_change"}, {"time": 2600, "annotation": {"number": 64, "value": 127}, "group": "control_change"}, {"time": 2644, "annotation": {"number": 64, "value": 0}, "group": "control_change"}, {"time": 2650, "annotation": {"number": 64, "value": 127}, "group": "control_change"}, {"time": 2744, "annotation": {"number": 64, "value": 127}, "group": "control_change"}, {"time": 2744, "annotation": {"number": 64, "value": 0}, "group": "control_change"}, {"time": 2769, "annotation": {"number": 64, "value": 0}, "group": "control_change"}, {"time": 2782, "annotation": {"number": 64, "value": 127}, "group": "control_change"}, {"time": 2834, "annotation": {"number": 64, "value": 0}, "group": "control_change"}, {"time": 2845, "annotation": {"number": 64, "value": 127}, "group": "control_change"}, {"time": 2886, "annotation": {"number": 64, "value": 0}, "group": "control_change"}, {"time": 2892, "annotation": {"number": 64, "value": 127}, "group": "control_change"}, {"time": 2933, "annotation": {"number": 64, "value": 0}, "group": "control_change"}, {"time": 2938, "annotation": {"number": 64, "value": 127}, "group": "control_change"}, {"time": 3030, "annotation": {"number": 64, "value": 0}, "group": "control_change"}, {"time": 3037, "annotation": {"number": 64, "value": 127}, "group": "control_change"}, {"time": 3077, "annotation": {"number": 64, "value": 0}, "group": "control_change"}, {"time": 3085, "annotation": {"number": 64, "value": 127}, "group": "control_change"}, {"time": 3124, "annotation": {"number": 64, "value": 0}, "group": "control_change"}, {"time": 3129, "annotation": {"number": 64, "value": 127}, "group": "control_change"}, {"time": 3220, "annotation": {"number": 64, "value": 0}, "group": "control_change"}, {"time": 3228, "annotation": {"number": 64, "value": 127}, "group": "control_change"}, {"time": 3317, "annotation": {"number": 64, "value": 0}, "group": "control_change"}, {"time": 3323, "annotation": {"number": 64, "value": 127}, "group": "control_change"}, {"time": 3410, "annotation": {"number": 64, "value": 0}, "group": "control_change"}, {"time": 3413, "annotation": {"number": 64, "value": 127}, "group": "control_change"}, {"time": 3495, "annotation": {"number": 64, "value": 0}, "group": "control_change"}, {"time": 3498, "annotation": {"number": 64, "value": 127}, "group": "control_change"}, {"time": 3606, "annotation": {"number": 64, "value": 0}, "group": "control_change"}, {"time": 3608, "annotation": {"number": 64, "value": 0}, "group": "control_change"}, {"time": 3653, "annotation": {"number": 64, "value": 0}, "group": "control_change"}, {"time": 3663, "annotation": {"number": 64, "value": 127}, "group": "control_change"}, {"time": 3702, "annotation": {"number": 64, "value": 0}, "group": "control_change"}, {"time": 3709, "annotation": {"number": 64, "value": 127}, "group": "control_change"}, {"time": 3748, "annotation": {"number": 64, "value": 0}, "group": "control_change"}, {"time": 3755, "annotation": {"number": 64, "value": 127}, "group": "control_change"}, {"time": 3795, "annotation": {"number": 64, "value": 0}, "group": "control_change"}, {"time": 3801, "annotation": {"number": 64, "value": 127}, "group": "control_change"}, {"time": 3842, "annotation": {"number": 64, "value": 0}, "group": "control_change"}, {"time": 3848, "annotation": {"number": 64, "value": 127}, "group": "control_change"}, {"time": 3892, "annotation": {"number": 64, "value": 0}, "group": "control_change"}, {"time": 3895, "annotation": {"number": 64, "value": 127}, "group": "control_change"}, {"time": 3987, "annotation": {"number": 64, "value": 0}, "group": "control_change"}, {"time": 3992, "annotation": {"number": 64, "value": 127}, "group": "control_change"}, {"time": 4036, "annotation": {"number": 64, "value": 0}, "group": "control_change"}, {"time": 4041, "annotation": {"number": 64, "value": 127}, "group": "control_change"}, {"time": 4086, "annotation": {"number": 64, "value": 127}, "group": "control_change"}, {"time": 4132, "annotation": {"number": 64, "value": 0}, "group": "control_change"}, {"time": 4137, "annotation": {"number": 64, "value": 127}, "group": "control_change"}, {"time": 4182, "annotation": {"number": 64, "value": 0}, "group": "control_change"}, {"time": 4187, "annotation": {"number": 64, "value": 127}, "group": "control_change"}, {"time": 4227, "annotation": {"number": 64, "value": 0}, "group": "control_change"}, {"time": 4232, "annotation": {"number": 64, "value": 127}, "group": "control_change"}, {"time": 4276, "annotation": {"number": 64, "value": 0}, "group": "control_change"}, {"time": 4278, "annotation": {"number": 64, "value": 127}, "group": "control_change"}, {"time": 4372, "annotation": {"number": 64, "value": 0}, "group": "control_change"}, {"time": 4376, "annotation": {"number": 64, "value": 127}, "group": "control_change"}, {"time": 4433, "annotation": {"number": 64, "value": 0}, "group": "control_change"}, {"time": 4440, "annotation": {"number": 64, "value": 127}, "group": "control_change"}, {"time": 4470, "annotation": {"number": 64, "value": 0}, "group": "control_change"}, {"time": 4474, "annotation": {"number": 64, "value": 127}, "group": "control_change"}, {"time": 4566, "annotation": {"number": 64, "value": 0}, "group": "control_change"}, {"time": 4570, "annotation": {"number": 64, "value": 127}, "group": "control_change"}, {"time": 4660, "annotation": {"number": 64, "value": 0}, "group": "control_change"}, {"time": 4664, "annotation": {"number": 64, "value": 127}, "group": "control_change"}, {"time": 4758, "annotation": {"number": 64, "value": 0}, "group": "control_change"}, {"time": 4762, "annotation": {"number": 64, "value": 127}, "group": "control_change"}, {"time": 4771, "annotation": {"number": 64, "value": 0}, "group": "control_change"}, {"time": 4775, "annotation": {"number": 64, "value": 127}, "group": "control_change"}, {"time": 4855, "annotation": {"number": 64, "value": 0}, "group": "control_change"}, {"time": 4868, "annotation": {"number": 64, "value": 127}, "group": "control_change"}, {"time": 4949, "annotation": {"number": 64, "value": 0}, "group": "control_change"}, {"time": 4953, "annotation": {"number": 64, "value": 127}, "group": "control_change"}, {"time": 5076, "annotation": {"number": 64, "value": 0}, "group": "control_change"}, {"time": 5096, "annotation": {"number": 64, "value": 0}, "group": "control_change"}, {"time": 5141, "annotation": {"number": 64, "value": 0}, "group": "control_change"}, {"time": 5151, "annotation": {"number": 64, "value": 127}, "group": "control_change"}, {"time": 5190, "annotation": {"number": 64, "value": 0}, "group": "control_change"}, {"time": 5197, "annotation": {"number": 64, "value": 127}, "group": "control_change"}, {"time": 5236, "annotation": {"number": 64, "value": 0}, "group": "control_change"}, {"time": 5243, "annotation": {"number": 64, "value": 127}, "group": "control_change"}, {"time": 5283, "annotation": {"number": 64, "value": 0}, "group": "control_change"}, {"time": 5289, "annotation": {"number": 64, "value": 127}, "group": "control_change"}, {"time": 5330, "annotation": {"number": 64, "value": 0}, "group": "control_change"}, {"time": 5336, "annotation": {"number": 64, "value": 127}, "group": "control_change"}, {"time": 5380, "annotation": {"number": 64, "value": 0}, "group": "control_change"}, {"time": 5383, "annotation": {"number": 64, "value": 127}, "group": "control_change"}, {"time": 5475, "annotation": {"number": 64, "value": 0}, "group": "control_change"}, {"time": 5480, "annotation": {"number": 64, "value": 127}, "group": "control_change"}, {"time": 5524, "annotation": {"number": 64, "value": 0}, "group": "control_change"}, {"time": 5529, "annotation": {"number": 64, "value": 127}, "group": "control_change"}, {"time": 5574, "annotation": {"number": 64, "value": 127}, "group": "control_change"}, {"time": 5620, "annotation": {"number": 64, "value": 0}, "group": "control_change"}, {"time": 5625, "annotation": {"number": 64, "value": 127}, "group": "control_change"}, {"time": 5670, "annotation": {"number": 64, "value": 0}, "group": "control_change"}, {"time": 5675, "annotation": {"number": 64, "value": 127}, "group": "control_change"}, {"time": 5715, "annotation": {"number": 64, "value": 0}, "group": "control_change"}, {"time": 5720, "annotation": {"number": 64, "value": 127}, "group": "control_change"}, {"time": 5764, "annotation": {"number": 64, "value": 0}, "group": "control_change"}, {"time": 5768, "annotation": {"number": 64, "value": 127}, "group": "control_change"}, {"time": 5865, "annotation": {"number": 64, "value": 0}, "group": "control_change"}, {"time": 5871, "annotation": {"number": 64, "value": 127}, "group": "control_change"}, {"time": 5909, "annotation": {"number": 64, "value": 0}, "group": "control_change"}, {"time": 5914, "annotation": {"number": 64, "value": 127}, "group": "control_change"}, {"time": 5963, "annotation": {"number": 64, "value": 0}, "group": "control_change"}, {"time": 5967, "annotation": {"number": 64, "value": 127}, "group": "control_change"}, {"time": 6008, "annotation": {"number": 64, "value": 0}, "group": "control_change"}, {"time": 6012, "annotation": {"number": 64, "value": 127}, "group": "control_change"}, {"time": 6056, "annotation": {"number": 64, "value": 0}, "group": "control_change"}, {"time": 6060, "annotation": {"number": 64, "value": 127}, "group": "control_change"}, {"time": 6063, "annotation": {"number": 64, "value": 0}, "group": "control_change"}, {"time": 6067, "annotation": {"number": 64, "value": 127}, "group": "control_change"}, {"time": 6102, "annotation": {"number": 64, "value": 0}, "group": "control_change"}, {"time": 6107, "annotation": {"number": 64, "value": 127}, "group": "control_change"}, {"time": 6152, "annotation": {"number": 64, "value": 0}, "group": "control_change"}, {"time": 6156, "annotation": {"number": 64, "value": 127}, "group": "control_change"}, {"time": 6246, "annotation": {"number": 64, "value": 0}, "group": "control_change"}, {"time": 6250, "annotation": {"number": 64, "value": 127}, "group": "control_change"}, {"time": 6294, "annotation": {"number": 64, "value": 0}, "group": "control_change"}, {"time": 6298, "annotation": {"number": 64, "value": 127}, "group": "control_change"}, {"time": 6346, "annotation": {"number": 64, "value": 0}, "group": "control_change"}, {"time": 6350, "annotation": {"number": 64, "value": 127}, "group": "control_change"}, {"time": 6439, "annotation": {"number": 64, "value": 0}, "group": "control_change"}, {"time": 6443, "annotation": {"number": 64, "value": 127}, "group": "control_change"}, {"time": 6537, "annotation": {"number": 64, "value": 0}, "group": "control_change"}, {"time": 6541, "annotation": {"number": 64, "value": 127}, "group": "control_change"}, {"time": 6631, "annotation": {"number": 64, "value": 0}, "group": "control_change"}, {"time": 6635, "annotation": {"number": 64, "value": 127}, "group": "control_change"}, {"time": 6727, "annotation": {"number": 64, "value": 0}, "group": "control_change"}, {"time": 6732, "annotation": {"number": 64, "value": 127}, "group": "control_change"}, {"time": 6821, "annotation": {"number": 64, "value": 0}, "group": "control_change"}]}]}