{"metadata": {"schema_version": "0.2", "title": "None", "source_filename": "262.mid", "source_format": "midi"}, "resolution": 12, "tempos": [{"time": 0, "qpm": 87.91015582075119}], "time_signatures": [{"time": 0, "numerator": 4, "denominator": 4}], "tracks": [{"program": 0, "is_drum": false, "name": "MELODY", "notes": [{"time": 452, "pitch": 63, "duration": 6, "velocity": 90}, {"time": 458, "pitch": 65, "duration": 7, "velocity": 84}, {"time": 464, "pitch": 67, "duration": 18, "velocity": 84}, {"time": 482, "pitch": 70, "duration": 6, "velocity": 77}, {"time": 488, "pitch": 67, "duration": 6, "velocity": 87}, {"time": 494, "pitch": 65, "duration": 6, "velocity": 72}, {"time": 500, "pitch": 63, "duration": 6, "velocity": 76}, {"time": 506, "pitch": 58, "duration": 6, "velocity": 66}, {"time": 512, "pitch": 60, "duration": 36, "velocity": 90}, {"time": 548, "pitch": 63, "duration": 6, "velocity": 84}, {"time": 554, "pitch": 65, "duration": 7, "velocity": 67}, {"time": 560, "pitch": 67, "duration": 12, "velocity": 73}, {"time": 572, "pitch": 67, "duration": 6, "velocity": 84}, {"time": 578, "pitch": 70, "duration": 7, "velocity": 66}, {"time": 584, "pitch": 67, "duration": 6, "velocity": 80}, {"time": 590, "pitch": 65, "duration": 6, "velocity": 66}, {"time": 596, "pitch": 65, "duration": 6, "velocity": 77}, {"time": 602, "pitch": 63, "duration": 6, "velocity": 66}, {"time": 608, "pitch": 65, "duration": 36, "velocity": 87}, {"time": 644, "pitch": 65, "duration": 6, "velocity": 83}, {"time": 650, "pitch": 67, "duration": 6, "velocity": 79}, {"time": 656, "pitch": 63, "duration": 12, "velocity": 79}, {"time": 668, "pitch": 65, "duration": 6, "velocity": 66}, {"time": 674, "pitch": 63, "duration": 6, "velocity": 66}, {"time": 680, "pitch": 60, "duration": 12, "velocity": 60}, {"time": 692, "pitch": 60, "duration": 6, "velocity": 87}, {"time": 698, "pitch": 58, "duration": 6, "velocity": 66}, {"time": 704, "pitch": 67, "duration": 6, "velocity": 84}, {"time": 710, "pitch": 70, "duration": 6, "velocity": 59}, {"time": 716, "pitch": 72, "duration": 6, "velocity": 75}, {"time": 722, "pitch": 70, "duration": 6, "velocity": 74}, {"time": 728, "pitch": 67, "duration": 12, "velocity": 85}, {"time": 740, "pitch": 60, "duration": 6, "velocity": 85}, {"time": 746, "pitch": 67, "duration": 6, "velocity": 91}, {"time": 752, "pitch": 65, "duration": 12, "velocity": 91}, {"time": 764, "pitch": 65, "duration": 6, "velocity": 87}, {"time": 770, "pitch": 63, "duration": 6, "velocity": 79}, {"time": 776, "pitch": 65, "duration": 12, "velocity": 91}, {"time": 788, "pitch": 63, "duration": 6, "velocity": 87}, {"time": 794, "pitch": 67, "duration": 7, "velocity": 97}, {"time": 800, "pitch": 65, "duration": 36, "velocity": 97}, {"time": 836, "pitch": 63, "duration": 6, "velocity": 63}, {"time": 842, "pitch": 65, "duration": 6, "velocity": 72}, {"time": 848, "pitch": 67, "duration": 12, "velocity": 86}, {"time": 860, "pitch": 67, "duration": 6, "velocity": 93}, {"time": 866, "pitch": 70, "duration": 6, "velocity": 85}, {"time": 872, "pitch": 67, "duration": 6, "velocity": 81}, {"time": 878, "pitch": 65, "duration": 6, "velocity": 84}, {"time": 884, "pitch": 63, "duration": 6, "velocity": 82}, {"time": 890, "pitch": 58, "duration": 6, "velocity": 72}, {"time": 896, "pitch": 60, "duration": 36, "velocity": 95}, {"time": 932, "pitch": 63, "duration": 6, "velocity": 90}, {"time": 938, "pitch": 65, "duration": 6, "velocity": 84}, {"time": 944, "pitch": 67, "duration": 18, "velocity": 93}, {"time": 962, "pitch": 70, "duration": 6, "velocity": 93}, {"time": 968, "pitch": 67, "duration": 6, "velocity": 93}, {"time": 974, "pitch": 65, "duration": 6, "velocity": 90}, {"time": 980, "pitch": 65, "duration": 6, "velocity": 92}, {"time": 986, "pitch": 63, "duration": 6, "velocity": 89}, {"time": 992, "pitch": 65, "duration": 36, "velocity": 97}, {"time": 1028, "pitch": 65, "duration": 6, "velocity": 79}, {"time": 1034, "pitch": 67, "duration": 6, "velocity": 73}, {"time": 1040, "pitch": 63, "duration": 12, "velocity": 73}, {"time": 1052, "pitch": 65, "duration": 6, "velocity": 87}, {"time": 1058, "pitch": 63, "duration": 7, "velocity": 66}, {"time": 1064, "pitch": 60, "duration": 12, "velocity": 68}, {"time": 1076, "pitch": 60, "duration": 6, "velocity": 74}, {"time": 1082, "pitch": 58, "duration": 6, "velocity": 66}, {"time": 1088, "pitch": 67, "duration": 6, "velocity": 67}, {"time": 1094, "pitch": 70, "duration": 6, "velocity": 57}, {"time": 1100, "pitch": 72, "duration": 7, "velocity": 64}, {"time": 1106, "pitch": 70, "duration": 6, "velocity": 73}, {"time": 1112, "pitch": 67, "duration": 12, "velocity": 84}, {"time": 1124, "pitch": 60, "duration": 6, "velocity": 73}, {"time": 1130, "pitch": 67, "duration": 6, "velocity": 62}, {"time": 1136, "pitch": 65, "duration": 12, "velocity": 72}, {"time": 1148, "pitch": 65, "duration": 6, "velocity": 83}, {"time": 1154, "pitch": 63, "duration": 6, "velocity": 56}, {"time": 1160, "pitch": 60, "duration": 6, "velocity": 52}, {"time": 1166, "pitch": 60, "duration": 6, "velocity": 52}, {"time": 1172, "pitch": 58, "duration": 6, "velocity": 54}, {"time": 1178, "pitch": 60, "duration": 6, "velocity": 52}, {"time": 1184, "pitch": 63, "duration": 36, "velocity": 60}, {"time": 1220, "pitch": 67, "duration": 6, "velocity": 87}, {"time": 1226, "pitch": 70, "duration": 6, "velocity": 84}, {"time": 1232, "pitch": 72, "duration": 6, "velocity": 97}, {"time": 1238, "pitch": 72, "duration": 6, "velocity": 94}, {"time": 1244, "pitch": 72, "duration": 6, "velocity": 92}, {"time": 1250, "pitch": 70, "duration": 6, "velocity": 77}, {"time": 1256, "pitch": 72, "duration": 12, "velocity": 87}, {"time": 1268, "pitch": 72, "duration": 6, "velocity": 93}, {"time": 1274, "pitch": 67, "duration": 6, "velocity": 80}, {"time": 1280, "pitch": 70, "duration": 6, "velocity": 85}, {"time": 1286, "pitch": 70, "duration": 6, "velocity": 84}, {"time": 1292, "pitch": 72, "duration": 6, "velocity": 96}, {"time": 1298, "pitch": 70, "duration": 6, "velocity": 87}, {"time": 1304, "pitch": 67, "duration": 12, "velocity": 95}, {"time": 1316, "pitch": 67, "duration": 6, "velocity": 83}, {"time": 1322, "pitch": 70, "duration": 6, "velocity": 72}, {"time": 1328, "pitch": 72, "duration": 6, "velocity": 87}, {"time": 1334, "pitch": 72, "duration": 6, "velocity": 93}, {"time": 1340, "pitch": 72, "duration": 6, "velocity": 95}, {"time": 1346, "pitch": 70, "duration": 7, "velocity": 90}, {"time": 1352, "pitch": 72, "duration": 12, "velocity": 99}, {"time": 1364, "pitch": 72, "duration": 6, "velocity": 91}, {"time": 1370, "pitch": 67, "duration": 6, "velocity": 82}, {"time": 1376, "pitch": 70, "duration": 36, "velocity": 95}, {"time": 1412, "pitch": 67, "duration": 6, "velocity": 85}, {"time": 1418, "pitch": 70, "duration": 6, "velocity": 79}, {"time": 1424, "pitch": 72, "duration": 6, "velocity": 85}, {"time": 1430, "pitch": 72, "duration": 6, "velocity": 87}, {"time": 1436, "pitch": 72, "duration": 6, "velocity": 93}, {"time": 1442, "pitch": 70, "duration": 7, "velocity": 90}, {"time": 1448, "pitch": 72, "duration": 12, "velocity": 91}, {"time": 1460, "pitch": 72, "duration": 6, "velocity": 96}, {"time": 1466, "pitch": 67, "duration": 6, "velocity": 66}, {"time": 1472, "pitch": 70, "duration": 6, "velocity": 86}, {"time": 1478, "pitch": 70, "duration": 6, "velocity": 90}, {"time": 1484, "pitch": 72, "duration": 6, "velocity": 95}, {"time": 1490, "pitch": 70, "duration": 6, "velocity": 93}, {"time": 1496, "pitch": 67, "duration": 12, "velocity": 95}, {"time": 1508, "pitch": 60, "duration": 6, "velocity": 66}, {"time": 1514, "pitch": 67, "duration": 6, "velocity": 72}, {"time": 1520, "pitch": 65, "duration": 12, "velocity": 82}, {"time": 1532, "pitch": 65, "duration": 6, "velocity": 86}, {"time": 1538, "pitch": 63, "duration": 6, "velocity": 63}, {"time": 1544, "pitch": 60, "duration": 6, "velocity": 64}, {"time": 1550, "pitch": 60, "duration": 6, "velocity": 64}, {"time": 1556, "pitch": 58, "duration": 6, "velocity": 66}, {"time": 1562, "pitch": 58, "duration": 6, "velocity": 56}, {"time": 1568, "pitch": 60, "duration": 31, "velocity": 68}, {"time": 1604, "pitch": 63, "duration": 6, "velocity": 90}, {"time": 1610, "pitch": 65, "duration": 6, "velocity": 84}, {"time": 1616, "pitch": 67, "duration": 17, "velocity": 84}, {"time": 1634, "pitch": 70, "duration": 5, "velocity": 77}, {"time": 1640, "pitch": 67, "duration": 5, "velocity": 87}, {"time": 1646, "pitch": 65, "duration": 6, "velocity": 72}, {"time": 1652, "pitch": 63, "duration": 5, "velocity": 76}, {"time": 1658, "pitch": 58, "duration": 5, "velocity": 66}, {"time": 1664, "pitch": 60, "duration": 35, "velocity": 90}, {"time": 1700, "pitch": 63, "duration": 5, "velocity": 84}, {"time": 1706, "pitch": 65, "duration": 6, "velocity": 67}, {"time": 1712, "pitch": 67, "duration": 11, "velocity": 73}, {"time": 1724, "pitch": 67, "duration": 5, "velocity": 84}, {"time": 1730, "pitch": 70, "duration": 6, "velocity": 66}, {"time": 1736, "pitch": 67, "duration": 5, "velocity": 80}, {"time": 1742, "pitch": 65, "duration": 5, "velocity": 66}, {"time": 1748, "pitch": 65, "duration": 5, "velocity": 77}, {"time": 1754, "pitch": 63, "duration": 5, "velocity": 66}, {"time": 1760, "pitch": 65, "duration": 35, "velocity": 87}, {"time": 1796, "pitch": 65, "duration": 5, "velocity": 83}, {"time": 1802, "pitch": 67, "duration": 5, "velocity": 79}, {"time": 1808, "pitch": 63, "duration": 11, "velocity": 79}, {"time": 1820, "pitch": 65, "duration": 5, "velocity": 66}, {"time": 1826, "pitch": 63, "duration": 5, "velocity": 66}, {"time": 1832, "pitch": 60, "duration": 11, "velocity": 60}, {"time": 1844, "pitch": 60, "duration": 5, "velocity": 87}, {"time": 1850, "pitch": 58, "duration": 5, "velocity": 66}, {"time": 1856, "pitch": 67, "duration": 5, "velocity": 84}, {"time": 1862, "pitch": 70, "duration": 5, "velocity": 59}, {"time": 1868, "pitch": 72, "duration": 5, "velocity": 75}, {"time": 1874, "pitch": 70, "duration": 5, "velocity": 74}, {"time": 1880, "pitch": 67, "duration": 11, "velocity": 85}, {"time": 1892, "pitch": 60, "duration": 5, "velocity": 85}, {"time": 1898, "pitch": 67, "duration": 5, "velocity": 91}, {"time": 1904, "pitch": 65, "duration": 11, "velocity": 91}, {"time": 1916, "pitch": 65, "duration": 5, "velocity": 87}, {"time": 1922, "pitch": 63, "duration": 5, "velocity": 79}, {"time": 1928, "pitch": 60, "duration": 11, "velocity": 91}, {"time": 1940, "pitch": 58, "duration": 5, "velocity": 87}, {"time": 1946, "pitch": 60, "duration": 6, "velocity": 97}, {"time": 1952, "pitch": 63, "duration": 35, "velocity": 97}, {"time": 2372, "pitch": 63, "duration": 6, "velocity": 90}, {"time": 2378, "pitch": 65, "duration": 6, "velocity": 84}, {"time": 2384, "pitch": 67, "duration": 17, "velocity": 84}, {"time": 2402, "pitch": 70, "duration": 5, "velocity": 77}, {"time": 2408, "pitch": 67, "duration": 5, "velocity": 87}, {"time": 2414, "pitch": 65, "duration": 6, "velocity": 72}, {"time": 2420, "pitch": 63, "duration": 5, "velocity": 76}, {"time": 2426, "pitch": 58, "duration": 5, "velocity": 66}, {"time": 2432, "pitch": 60, "duration": 35, "velocity": 90}, {"time": 2468, "pitch": 63, "duration": 5, "velocity": 84}, {"time": 2474, "pitch": 65, "duration": 6, "velocity": 67}, {"time": 2480, "pitch": 67, "duration": 11, "velocity": 73}, {"time": 2492, "pitch": 67, "duration": 5, "velocity": 84}, {"time": 2498, "pitch": 70, "duration": 6, "velocity": 66}, {"time": 2504, "pitch": 67, "duration": 5, "velocity": 80}, {"time": 2510, "pitch": 65, "duration": 5, "velocity": 66}, {"time": 2516, "pitch": 65, "duration": 5, "velocity": 77}, {"time": 2522, "pitch": 63, "duration": 5, "velocity": 66}, {"time": 2528, "pitch": 65, "duration": 35, "velocity": 87}, {"time": 2564, "pitch": 65, "duration": 5, "velocity": 83}, {"time": 2570, "pitch": 67, "duration": 5, "velocity": 79}, {"time": 2576, "pitch": 63, "duration": 11, "velocity": 79}, {"time": 2588, "pitch": 65, "duration": 5, "velocity": 66}, {"time": 2594, "pitch": 63, "duration": 5, "velocity": 66}, {"time": 2600, "pitch": 60, "duration": 11, "velocity": 60}, {"time": 2612, "pitch": 60, "duration": 5, "velocity": 87}, {"time": 2618, "pitch": 58, "duration": 5, "velocity": 66}, {"time": 2624, "pitch": 67, "duration": 5, "velocity": 84}, {"time": 2630, "pitch": 70, "duration": 5, "velocity": 59}, {"time": 2636, "pitch": 72, "duration": 5, "velocity": 75}, {"time": 2642, "pitch": 70, "duration": 5, "velocity": 74}, {"time": 2648, "pitch": 67, "duration": 11, "velocity": 85}, {"time": 2660, "pitch": 60, "duration": 5, "velocity": 85}, {"time": 2666, "pitch": 67, "duration": 5, "velocity": 91}, {"time": 2672, "pitch": 65, "duration": 11, "velocity": 91}, {"time": 2684, "pitch": 65, "duration": 5, "velocity": 87}, {"time": 2690, "pitch": 63, "duration": 5, "velocity": 79}, {"time": 2696, "pitch": 60, "duration": 11, "velocity": 91}, {"time": 2708, "pitch": 58, "duration": 5, "velocity": 87}, {"time": 2714, "pitch": 60, "duration": 6, "velocity": 97}, {"time": 2720, "pitch": 63, "duration": 35, "velocity": 97}, {"time": 2756, "pitch": 67, "duration": 6, "velocity": 87}, {"time": 2762, "pitch": 70, "duration": 6, "velocity": 84}, {"time": 2768, "pitch": 72, "duration": 6, "velocity": 97}, {"time": 2774, "pitch": 72, "duration": 6, "velocity": 94}, {"time": 2780, "pitch": 72, "duration": 6, "velocity": 92}, {"time": 2786, "pitch": 70, "duration": 6, "velocity": 77}, {"time": 2792, "pitch": 72, "duration": 12, "velocity": 87}, {"time": 2804, "pitch": 72, "duration": 6, "velocity": 93}, {"time": 2810, "pitch": 67, "duration": 6, "velocity": 80}, {"time": 2816, "pitch": 70, "duration": 6, "velocity": 85}, {"time": 2822, "pitch": 70, "duration": 6, "velocity": 84}, {"time": 2828, "pitch": 72, "duration": 6, "velocity": 96}, {"time": 2834, "pitch": 70, "duration": 6, "velocity": 87}, {"time": 2840, "pitch": 67, "duration": 12, "velocity": 95}, {"time": 2852, "pitch": 67, "duration": 6, "velocity": 83}, {"time": 2858, "pitch": 70, "duration": 6, "velocity": 72}, {"time": 2864, "pitch": 72, "duration": 6, "velocity": 87}, {"time": 2870, "pitch": 72, "duration": 6, "velocity": 93}, {"time": 2876, "pitch": 72, "duration": 6, "velocity": 95}, {"time": 2882, "pitch": 70, "duration": 7, "velocity": 90}, {"time": 2888, "pitch": 72, "duration": 12, "velocity": 99}, {"time": 2900, "pitch": 72, "duration": 6, "velocity": 91}, {"time": 2906, "pitch": 67, "duration": 6, "velocity": 82}, {"time": 2912, "pitch": 70, "duration": 36, "velocity": 95}, {"time": 2948, "pitch": 67, "duration": 6, "velocity": 85}, {"time": 2954, "pitch": 70, "duration": 6, "velocity": 79}, {"time": 2960, "pitch": 72, "duration": 6, "velocity": 85}, {"time": 2966, "pitch": 72, "duration": 6, "velocity": 87}, {"time": 2972, "pitch": 72, "duration": 6, "velocity": 93}, {"time": 2978, "pitch": 70, "duration": 7, "velocity": 90}, {"time": 2984, "pitch": 72, "duration": 12, "velocity": 91}, {"time": 2996, "pitch": 72, "duration": 6, "velocity": 96}, {"time": 3002, "pitch": 67, "duration": 6, "velocity": 66}, {"time": 3008, "pitch": 70, "duration": 6, "velocity": 86}, {"time": 3014, "pitch": 70, "duration": 6, "velocity": 90}, {"time": 3020, "pitch": 72, "duration": 6, "velocity": 95}, {"time": 3026, "pitch": 70, "duration": 6, "velocity": 93}, {"time": 3032, "pitch": 67, "duration": 12, "velocity": 95}, {"time": 3044, "pitch": 60, "duration": 6, "velocity": 66}, {"time": 3050, "pitch": 67, "duration": 6, "velocity": 72}, {"time": 3056, "pitch": 65, "duration": 12, "velocity": 82}, {"time": 3068, "pitch": 65, "duration": 6, "velocity": 86}, {"time": 3074, "pitch": 63, "duration": 6, "velocity": 63}, {"time": 3080, "pitch": 60, "duration": 6, "velocity": 64}, {"time": 3086, "pitch": 60, "duration": 6, "velocity": 64}, {"time": 3092, "pitch": 58, "duration": 6, "velocity": 66}, {"time": 3098, "pitch": 58, "duration": 6, "velocity": 56}, {"time": 3104, "pitch": 60, "duration": 31, "velocity": 68}, {"time": 3140, "pitch": 63, "duration": 6, "velocity": 63}, {"time": 3146, "pitch": 65, "duration": 6, "velocity": 72}, {"time": 3152, "pitch": 67, "duration": 15, "velocity": 86}, {"time": 3170, "pitch": 70, "duration": 6, "velocity": 85}, {"time": 3176, "pitch": 67, "duration": 6, "velocity": 81}, {"time": 3182, "pitch": 65, "duration": 6, "velocity": 84}, {"time": 3188, "pitch": 63, "duration": 6, "velocity": 82}, {"time": 3194, "pitch": 58, "duration": 6, "velocity": 72}, {"time": 3200, "pitch": 60, "duration": 36, "velocity": 95}, {"time": 3236, "pitch": 63, "duration": 6, "velocity": 90}, {"time": 3242, "pitch": 65, "duration": 6, "velocity": 84}, {"time": 3248, "pitch": 67, "duration": 12, "velocity": 93}, {"time": 3260, "pitch": 67, "duration": 6, "velocity": 93}, {"time": 3266, "pitch": 70, "duration": 6, "velocity": 93}, {"time": 3272, "pitch": 67, "duration": 6, "velocity": 93}, {"time": 3278, "pitch": 65, "duration": 6, "velocity": 90}, {"time": 3284, "pitch": 65, "duration": 6, "velocity": 92}, {"time": 3290, "pitch": 63, "duration": 6, "velocity": 89}, {"time": 3296, "pitch": 65, "duration": 36, "velocity": 97}, {"time": 3332, "pitch": 65, "duration": 6, "velocity": 79}, {"time": 3338, "pitch": 67, "duration": 6, "velocity": 73}, {"time": 3344, "pitch": 63, "duration": 12, "velocity": 73}, {"time": 3356, "pitch": 65, "duration": 6, "velocity": 87}, {"time": 3362, "pitch": 63, "duration": 7, "velocity": 66}, {"time": 3368, "pitch": 60, "duration": 12, "velocity": 68}, {"time": 3380, "pitch": 60, "duration": 6, "velocity": 74}, {"time": 3386, "pitch": 58, "duration": 6, "velocity": 66}, {"time": 3392, "pitch": 67, "duration": 6, "velocity": 67}, {"time": 3398, "pitch": 70, "duration": 6, "velocity": 57}, {"time": 3404, "pitch": 72, "duration": 7, "velocity": 64}, {"time": 3410, "pitch": 70, "duration": 6, "velocity": 73}, {"time": 3416, "pitch": 67, "duration": 12, "velocity": 84}, {"time": 3428, "pitch": 60, "duration": 6, "velocity": 73}, {"time": 3434, "pitch": 67, "duration": 6, "velocity": 62}, {"time": 3440, "pitch": 65, "duration": 12, "velocity": 72}, {"time": 3452, "pitch": 65, "duration": 6, "velocity": 83}, {"time": 3458, "pitch": 63, "duration": 6, "velocity": 56}, {"time": 3464, "pitch": 60, "duration": 12, "velocity": 52}, {"time": 3476, "pitch": 58, "duration": 6, "velocity": 54}, {"time": 3482, "pitch": 60, "duration": 6, "velocity": 52}, {"time": 3488, "pitch": 63, "duration": 36, "velocity": 60}, {"time": 3524, "pitch": 67, "duration": 6, "velocity": 87}, {"time": 3530, "pitch": 70, "duration": 6, "velocity": 84}, {"time": 3536, "pitch": 72, "duration": 6, "velocity": 97}, {"time": 3542, "pitch": 72, "duration": 6, "velocity": 94}, {"time": 3548, "pitch": 72, "duration": 6, "velocity": 92}, {"time": 3554, "pitch": 70, "duration": 6, "velocity": 77}, {"time": 3560, "pitch": 72, "duration": 12, "velocity": 87}, {"time": 3572, "pitch": 72, "duration": 6, "velocity": 93}, {"time": 3578, "pitch": 67, "duration": 6, "velocity": 80}, {"time": 3584, "pitch": 70, "duration": 6, "velocity": 85}, {"time": 3590, "pitch": 70, "duration": 6, "velocity": 84}, {"time": 3596, "pitch": 72, "duration": 6, "velocity": 96}, {"time": 3602, "pitch": 70, "duration": 6, "velocity": 87}, {"time": 3608, "pitch": 67, "duration": 12, "velocity": 95}, {"time": 3620, "pitch": 67, "duration": 6, "velocity": 83}, {"time": 3626, "pitch": 70, "duration": 6, "velocity": 72}, {"time": 3632, "pitch": 72, "duration": 6, "velocity": 87}, {"time": 3638, "pitch": 72, "duration": 6, "velocity": 93}, {"time": 3644, "pitch": 72, "duration": 6, "velocity": 95}, {"time": 3650, "pitch": 70, "duration": 7, "velocity": 90}, {"time": 3656, "pitch": 72, "duration": 12, "velocity": 99}, {"time": 3668, "pitch": 72, "duration": 1, "velocity": 91}, {"time": 3674, "pitch": 67, "duration": 6, "velocity": 82}, {"time": 3680, "pitch": 70, "duration": 36, "velocity": 95}, {"time": 3716, "pitch": 67, "duration": 6, "velocity": 85}, {"time": 3722, "pitch": 70, "duration": 6, "velocity": 79}, {"time": 3728, "pitch": 72, "duration": 6, "velocity": 85}, {"time": 3734, "pitch": 72, "duration": 6, "velocity": 87}, {"time": 3740, "pitch": 72, "duration": 1, "velocity": 93}, {"time": 3746, "pitch": 70, "duration": 7, "velocity": 90}, {"time": 3752, "pitch": 72, "duration": 12, "velocity": 91}, {"time": 3764, "pitch": 72, "duration": 6, "velocity": 96}, {"time": 3770, "pitch": 67, "duration": 6, "velocity": 66}, {"time": 3776, "pitch": 70, "duration": 6, "velocity": 86}, {"time": 3782, "pitch": 70, "duration": 6, "velocity": 90}, {"time": 3788, "pitch": 72, "duration": 6, "velocity": 95}, {"time": 3794, "pitch": 70, "duration": 6, "velocity": 93}, {"time": 3800, "pitch": 67, "duration": 12, "velocity": 95}, {"time": 3812, "pitch": 60, "duration": 7, "velocity": 66}, {"time": 3818, "pitch": 67, "duration": 6, "velocity": 72}, {"time": 3824, "pitch": 65, "duration": 12, "velocity": 82}, {"time": 3836, "pitch": 65, "duration": 6, "velocity": 86}, {"time": 3842, "pitch": 63, "duration": 6, "velocity": 63}, {"time": 3848, "pitch": 60, "duration": 6, "velocity": 64}, {"time": 3854, "pitch": 60, "duration": 1, "velocity": 64}, {"time": 3860, "pitch": 58, "duration": 6, "velocity": 66}, {"time": 3866, "pitch": 58, "duration": 6, "velocity": 56}, {"time": 3872, "pitch": 60, "duration": 32, "velocity": 68}, {"time": 3908, "pitch": 63, "duration": 7, "velocity": 63}, {"time": 3914, "pitch": 65, "duration": 6, "velocity": 72}, {"time": 3920, "pitch": 67, "duration": 18, "velocity": 86}, {"time": 3938, "pitch": 70, "duration": 7, "velocity": 85}, {"time": 3944, "pitch": 67, "duration": 7, "velocity": 81}, {"time": 3950, "pitch": 65, "duration": 7, "velocity": 84}, {"time": 3956, "pitch": 63, "duration": 7, "velocity": 82}, {"time": 3962, "pitch": 58, "duration": 6, "velocity": 72}, {"time": 3968, "pitch": 60, "duration": 37, "velocity": 95}, {"time": 4004, "pitch": 63, "duration": 7, "velocity": 90}, {"time": 4010, "pitch": 65, "duration": 6, "velocity": 84}, {"time": 4016, "pitch": 67, "duration": 12, "velocity": 93}, {"time": 4028, "pitch": 67, "duration": 7, "velocity": 93}, {"time": 4034, "pitch": 70, "duration": 7, "velocity": 93}, {"time": 4040, "pitch": 67, "duration": 7, "velocity": 93}, {"time": 4046, "pitch": 65, "duration": 6, "velocity": 90}, {"time": 4052, "pitch": 65, "duration": 7, "velocity": 92}, {"time": 4058, "pitch": 63, "duration": 7, "velocity": 89}, {"time": 4064, "pitch": 65, "duration": 36, "velocity": 97}, {"time": 4100, "pitch": 65, "duration": 7, "velocity": 79}, {"time": 4106, "pitch": 67, "duration": 7, "velocity": 73}, {"time": 4112, "pitch": 63, "duration": 13, "velocity": 73}, {"time": 4124, "pitch": 65, "duration": 7, "velocity": 87}, {"time": 4130, "pitch": 63, "duration": 8, "velocity": 66}, {"time": 4136, "pitch": 60, "duration": 12, "velocity": 68}, {"time": 4148, "pitch": 60, "duration": 7, "velocity": 74}, {"time": 4154, "pitch": 58, "duration": 7, "velocity": 66}, {"time": 4160, "pitch": 67, "duration": 7, "velocity": 67}, {"time": 4166, "pitch": 70, "duration": 7, "velocity": 96}, {"time": 4172, "pitch": 72, "duration": 8, "velocity": 64}, {"time": 4178, "pitch": 70, "duration": 7, "velocity": 73}, {"time": 4184, "pitch": 67, "duration": 13, "velocity": 84}, {"time": 4196, "pitch": 60, "duration": 7, "velocity": 73}, {"time": 4202, "pitch": 67, "duration": 7, "velocity": 62}, {"time": 4208, "pitch": 65, "duration": 12, "velocity": 72}, {"time": 4220, "pitch": 65, "duration": 7, "velocity": 83}, {"time": 4226, "pitch": 63, "duration": 7, "velocity": 56}, {"time": 4232, "pitch": 60, "duration": 6, "velocity": 52}, {"time": 4238, "pitch": 60, "duration": 7, "velocity": 52}, {"time": 4244, "pitch": 58, "duration": 7, "velocity": 54}, {"time": 4250, "pitch": 60, "duration": 7, "velocity": 52}, {"time": 4256, "pitch": 63, "duration": 37, "velocity": 60}], "annotations": [{"time": 584, "annotation": {"number": 1, "value": 2}, "group": "control_change"}, {"time": 975, "annotation": {"number": 1, "value": 2}, "group": "control_change"}, {"time": 986, "annotation": {"number": 1, "value": 3}, "group": "control_change"}, {"time": 1238, "annotation": {"number": 1, "value": 3}, "group": "control_change"}, {"time": 1735, "annotation": {"number": 1, "value": 2}, "group": "control_change"}, {"time": 2504, "annotation": {"number": 1, "value": 2}, "group": "control_change"}, {"time": 2774, "annotation": {"number": 1, "value": 3}, "group": "control_change"}, {"time": 3271, "annotation": {"number": 1, "value": 2}, "group": "control_change"}, {"time": 3542, "annotation": {"number": 1, "value": 3}, "group": "control_change"}, {"time": 4041, "annotation": {"number": 1, "value": 2}, "group": "control_change"}]}, {"program": 0, "is_drum": false, "name": "PIANO", "notes": [{"time": 32, "pitch": 51, "duration": 47, "velocity": 81}, {"time": 32, "pitch": 67, "duration": 11, "velocity": 75}, {"time": 32, "pitch": 70, "duration": 11, "velocity": 81}, {"time": 32, "pitch": 75, "duration": 14, "velocity": 82}, {"time": 38, "pitch": 58, "duration": 32, "velocity": 68}, {"time": 44, "pitch": 63, "duration": 13, "velocity": 62}, {"time": 50, "pitch": 65, "duration": 7, "velocity": 72}, {"time": 50, "pitch": 70, "duration": 6, "velocity": 76}, {"time": 56, "pitch": 67, "duration": 11, "velocity": 81}, {"time": 62, "pitch": 63, "duration": 5, "velocity": 57}, {"time": 68, "pitch": 70, "duration": 7, "velocity": 83}, {"time": 74, "pitch": 65, "duration": 6, "velocity": 74}, {"time": 80, "pitch": 48, "duration": 38, "velocity": 77}, {"time": 80, "pitch": 63, "duration": 8, "velocity": 86}, {"time": 86, "pitch": 55, "duration": 20, "velocity": 68}, {"time": 92, "pitch": 58, "duration": 7, "velocity": 58}, {"time": 98, "pitch": 63, "duration": 14, "velocity": 80}, {"time": 104, "pitch": 60, "duration": 8, "velocity": 75}, {"time": 110, "pitch": 55, "duration": 7, "velocity": 73}, {"time": 116, "pitch": 50, "duration": 9, "velocity": 80}, {"time": 116, "pitch": 58, "duration": 9, "velocity": 74}, {"time": 116, "pitch": 65, "duration": 11, "velocity": 83}, {"time": 128, "pitch": 39, "duration": 6, "velocity": 52}, {"time": 128, "pitch": 58, "duration": 15, "velocity": 77}, {"time": 128, "pitch": 63, "duration": 17, "velocity": 82}, {"time": 128, "pitch": 67, "duration": 18, "velocity": 78}, {"time": 134, "pitch": 51, "duration": 7, "velocity": 71}, {"time": 140, "pitch": 55, "duration": 28, "velocity": 77}, {"time": 146, "pitch": 58, "duration": 16, "velocity": 55}, {"time": 152, "pitch": 63, "duration": 7, "velocity": 80}, {"time": 158, "pitch": 65, "duration": 5, "velocity": 83}, {"time": 164, "pitch": 58, "duration": 3, "velocity": 77}, {"time": 164, "pitch": 67, "duration": 6, "velocity": 80}, {"time": 170, "pitch": 70, "duration": 5, "velocity": 82}, {"time": 176, "pitch": 46, "duration": 39, "velocity": 79}, {"time": 176, "pitch": 62, "duration": 10, "velocity": 77}, {"time": 176, "pitch": 65, "duration": 11, "velocity": 84}, {"time": 176, "pitch": 70, "duration": 2, "velocity": 19}, {"time": 182, "pitch": 53, "duration": 33, "velocity": 79}, {"time": 188, "pitch": 58, "duration": 21, "velocity": 60}, {"time": 194, "pitch": 60, "duration": 2, "velocity": 82}, {"time": 200, "pitch": 62, "duration": 2, "velocity": 76}, {"time": 200, "pitch": 74, "duration": 2, "velocity": 84}, {"time": 206, "pitch": 63, "duration": 2, "velocity": 69}, {"time": 206, "pitch": 75, "duration": 2, "velocity": 84}, {"time": 212, "pitch": 58, "duration": 8, "velocity": 55}, {"time": 212, "pitch": 63, "duration": 2, "velocity": 78}, {"time": 212, "pitch": 75, "duration": 2, "velocity": 90}, {"time": 218, "pitch": 65, "duration": 2, "velocity": 56}, {"time": 218, "pitch": 77, "duration": 2, "velocity": 76}, {"time": 224, "pitch": 51, "duration": 22, "velocity": 78}, {"time": 224, "pitch": 67, "duration": 7, "velocity": 68}, {"time": 224, "pitch": 79, "duration": 5, "velocity": 79}, {"time": 230, "pitch": 58, "duration": 30, "velocity": 72}, {"time": 236, "pitch": 63, "duration": 6, "velocity": 71}, {"time": 242, "pitch": 65, "duration": 6, "velocity": 73}, {"time": 242, "pitch": 70, "duration": 6, "velocity": 75}, {"time": 248, "pitch": 67, "duration": 11, "velocity": 55}, {"time": 260, "pitch": 50, "duration": 12, "velocity": 81}, {"time": 260, "pitch": 65, "duration": 5, "velocity": 76}, {"time": 260, "pitch": 70, "duration": 12, "velocity": 79}, {"time": 272, "pitch": 48, "duration": 44, "velocity": 80}, {"time": 272, "pitch": 63, "duration": 11, "velocity": 82}, {"time": 272, "pitch": 67, "duration": 10, "velocity": 82}, {"time": 278, "pitch": 55, "duration": 33, "velocity": 69}, {"time": 284, "pitch": 60, "duration": 6, "velocity": 58}, {"time": 290, "pitch": 63, "duration": 10, "velocity": 82}, {"time": 290, "pitch": 67, "duration": 9, "velocity": 80}, {"time": 296, "pitch": 60, "duration": 16, "velocity": 45}, {"time": 302, "pitch": 62, "duration": 6, "velocity": 62}, {"time": 302, "pitch": 65, "duration": 8, "velocity": 69}, {"time": 308, "pitch": 63, "duration": 6, "velocity": 83}, {"time": 308, "pitch": 67, "duration": 7, "velocity": 81}, {"time": 314, "pitch": 55, "duration": 6, "velocity": 77}, {"time": 320, "pitch": 53, "duration": 16, "velocity": 83}, {"time": 320, "pitch": 60, "duration": 10, "velocity": 75}, {"time": 320, "pitch": 65, "duration": 11, "velocity": 82}, {"time": 320, "pitch": 68, "duration": 10, "velocity": 83}, {"time": 332, "pitch": 60, "duration": 4, "velocity": 71}, {"time": 332, "pitch": 65, "duration": 5, "velocity": 80}, {"time": 332, "pitch": 68, "duration": 2, "velocity": 50}, {"time": 344, "pitch": 46, "duration": 14, "velocity": 82}, {"time": 344, "pitch": 58, "duration": 4, "velocity": 62}, {"time": 344, "pitch": 62, "duration": 7, "velocity": 79}, {"time": 344, "pitch": 65, "duration": 7, "velocity": 84}, {"time": 344, "pitch": 70, "duration": 7, "velocity": 80}, {"time": 350, "pitch": 58, "duration": 6, "velocity": 25}, {"time": 356, "pitch": 62, "duration": 4, "velocity": 78}, {"time": 356, "pitch": 65, "duration": 6, "velocity": 80}, {"time": 356, "pitch": 70, "duration": 5, "velocity": 77}, {"time": 368, "pitch": 39, "duration": 43, "velocity": 90}, {"time": 368, "pitch": 58, "duration": 8, "velocity": 75}, {"time": 368, "pitch": 63, "duration": 7, "velocity": 84}, {"time": 374, "pitch": 51, "duration": 13, "velocity": 62}, {"time": 380, "pitch": 58, "duration": 15, "velocity": 57}, {"time": 380, "pitch": 65, "duration": 8, "velocity": 73}, {"time": 386, "pitch": 67, "duration": 9, "velocity": 73}, {"time": 392, "pitch": 51, "duration": 19, "velocity": 55}, {"time": 398, "pitch": 58, "duration": 12, "velocity": 57}, {"time": 404, "pitch": 65, "duration": 6, "velocity": 79}, {"time": 410, "pitch": 46, "duration": 7, "velocity": 60}, {"time": 410, "pitch": 67, "duration": 6, "velocity": 69}, {"time": 416, "pitch": 39, "duration": 36, "velocity": 86}, {"time": 416, "pitch": 58, "duration": 8, "velocity": 72}, {"time": 416, "pitch": 63, "duration": 7, "velocity": 81}, {"time": 422, "pitch": 51, "duration": 13, "velocity": 59}, {"time": 428, "pitch": 58, "duration": 7, "velocity": 62}, {"time": 434, "pitch": 65, "duration": 6, "velocity": 76}, {"time": 437, "pitch": 58, "duration": 13, "velocity": 52}, {"time": 440, "pitch": 51, "duration": 12, "velocity": 54}, {"time": 440, "pitch": 63, "duration": 12, "velocity": 73}, {"time": 440, "pitch": 70, "duration": 13, "velocity": 69}, {"time": 464, "pitch": 51, "duration": 41, "velocity": 73}, {"time": 464, "pitch": 67, "duration": 13, "velocity": 58}, {"time": 464, "pitch": 70, "duration": 13, "velocity": 75}, {"time": 464, "pitch": 75, "duration": 14, "velocity": 70}, {"time": 470, "pitch": 58, "duration": 32, "velocity": 59}, {"time": 476, "pitch": 63, "duration": 16, "velocity": 68}, {"time": 482, "pitch": 65, "duration": 18, "velocity": 63}, {"time": 488, "pitch": 67, "duration": 13, "velocity": 83}, {"time": 500, "pitch": 70, "duration": 15, "velocity": 76}, {"time": 512, "pitch": 48, "duration": 38, "velocity": 76}, {"time": 512, "pitch": 63, "duration": 14, "velocity": 82}, {"time": 518, "pitch": 55, "duration": 32, "velocity": 75}, {"time": 524, "pitch": 60, "duration": 14, "velocity": 71}, {"time": 530, "pitch": 62, "duration": 8, "velocity": 58}, {"time": 536, "pitch": 63, "duration": 11, "velocity": 79}, {"time": 542, "pitch": 60, "duration": 5, "velocity": 37}, {"time": 548, "pitch": 62, "duration": 10, "velocity": 73}, {"time": 548, "pitch": 65, "duration": 13, "velocity": 82}, {"time": 560, "pitch": 51, "duration": 41, "velocity": 54}, {"time": 560, "pitch": 63, "duration": 5, "velocity": 78}, {"time": 560, "pitch": 67, "duration": 6, "velocity": 77}, {"time": 566, "pitch": 58, "duration": 35, "velocity": 59}, {"time": 572, "pitch": 65, "duration": 6, "velocity": 68}, {"time": 572, "pitch": 70, "duration": 12, "velocity": 73}, {"time": 578, "pitch": 63, "duration": 7, "velocity": 58}, {"time": 584, "pitch": 67, "duration": 9, "velocity": 58}, {"time": 590, "pitch": 63, "duration": 6, "velocity": 56}, {"time": 596, "pitch": 70, "duration": 12, "velocity": 60}, {"time": 608, "pitch": 46, "duration": 40, "velocity": 72}, {"time": 608, "pitch": 65, "duration": 12, "velocity": 82}, {"time": 614, "pitch": 53, "duration": 35, "velocity": 73}, {"time": 620, "pitch": 58, "duration": 28, "velocity": 57}, {"time": 626, "pitch": 60, "duration": 8, "velocity": 68}, {"time": 632, "pitch": 62, "duration": 2, "velocity": 83}, {"time": 638, "pitch": 62, "duration": 2, "velocity": 51}, {"time": 644, "pitch": 63, "duration": 4, "velocity": 82}, {"time": 650, "pitch": 65, "duration": 5, "velocity": 75}, {"time": 656, "pitch": 48, "duration": 42, "velocity": 75}, {"time": 656, "pitch": 63, "duration": 15, "velocity": 77}, {"time": 656, "pitch": 67, "duration": 14, "velocity": 77}, {"time": 662, "pitch": 55, "duration": 20, "velocity": 72}, {"time": 668, "pitch": 60, "duration": 6, "velocity": 53}, {"time": 674, "pitch": 62, "duration": 3, "velocity": 63}, {"time": 674, "pitch": 65, "duration": 5, "velocity": 71}, {"time": 680, "pitch": 63, "duration": 5, "velocity": 77}, {"time": 680, "pitch": 67, "duration": 7, "velocity": 78}, {"time": 686, "pitch": 55, "duration": 9, "velocity": 69}, {"time": 692, "pitch": 63, "duration": 5, "velocity": 80}, {"time": 692, "pitch": 70, "duration": 4, "velocity": 77}, {"time": 704, "pitch": 51, "duration": 15, "velocity": 84}, {"time": 704, "pitch": 67, "duration": 14, "velocity": 72}, {"time": 704, "pitch": 70, "duration": 14, "velocity": 76}, {"time": 710, "pitch": 58, "duration": 10, "velocity": 71}, {"time": 716, "pitch": 63, "duration": 3, "velocity": 75}, {"time": 722, "pitch": 50, "duration": 3, "velocity": 86}, {"time": 722, "pitch": 70, "duration": 5, "velocity": 76}, {"time": 728, "pitch": 48, "duration": 17, "velocity": 79}, {"time": 728, "pitch": 63, "duration": 14, "velocity": 75}, {"time": 728, "pitch": 70, "duration": 14, "velocity": 54}, {"time": 734, "pitch": 55, "duration": 11, "velocity": 72}, {"time": 740, "pitch": 60, "duration": 6, "velocity": 60}, {"time": 752, "pitch": 53, "duration": 39, "velocity": 71}, {"time": 752, "pitch": 65, "duration": 8, "velocity": 71}, {"time": 752, "pitch": 68, "duration": 13, "velocity": 75}, {"time": 752, "pitch": 72, "duration": 10, "velocity": 72}, {"time": 758, "pitch": 60, "duration": 19, "velocity": 50}, {"time": 764, "pitch": 65, "duration": 19, "velocity": 69}, {"time": 770, "pitch": 67, "duration": 11, "velocity": 68}, {"time": 776, "pitch": 68, "duration": 8, "velocity": 80}, {"time": 782, "pitch": 60, "duration": 9, "velocity": 53}, {"time": 788, "pitch": 72, "duration": 6, "velocity": 74}, {"time": 794, "pitch": 75, "duration": 3, "velocity": 78}, {"time": 800, "pitch": 46, "duration": 36, "velocity": 71}, {"time": 800, "pitch": 65, "duration": 12, "velocity": 70}, {"time": 800, "pitch": 70, "duration": 11, "velocity": 72}, {"time": 800, "pitch": 74, "duration": 11, "velocity": 82}, {"time": 806, "pitch": 53, "duration": 25, "velocity": 62}, {"time": 812, "pitch": 58, "duration": 9, "velocity": 60}, {"time": 818, "pitch": 60, "duration": 9, "velocity": 71}, {"time": 824, "pitch": 58, "duration": 6, "velocity": 57}, {"time": 824, "pitch": 62, "duration": 5, "velocity": 83}, {"time": 836, "pitch": 48, "duration": 8, "velocity": 72}, {"time": 836, "pitch": 60, "duration": 5, "velocity": 67}, {"time": 836, "pitch": 65, "duration": 6, "velocity": 78}, {"time": 842, "pitch": 50, "duration": 7, "velocity": 78}, {"time": 848, "pitch": 51, "duration": 16, "velocity": 78}, {"time": 848, "pitch": 58, "duration": 9, "velocity": 60}, {"time": 848, "pitch": 63, "duration": 8, "velocity": 77}, {"time": 848, "pitch": 67, "duration": 8, "velocity": 74}, {"time": 854, "pitch": 39, "duration": 30, "velocity": 81}, {"time": 860, "pitch": 58, "duration": 7, "velocity": 57}, {"time": 866, "pitch": 51, "duration": 7, "velocity": 62}, {"time": 872, "pitch": 58, "duration": 7, "velocity": 73}, {"time": 872, "pitch": 65, "duration": 10, "velocity": 80}, {"time": 878, "pitch": 51, "duration": 10, "velocity": 60}, {"time": 884, "pitch": 58, "duration": 7, "velocity": 73}, {"time": 884, "pitch": 67, "duration": 7, "velocity": 83}, {"time": 890, "pitch": 70, "duration": 7, "velocity": 72}, {"time": 896, "pitch": 48, "duration": 43, "velocity": 73}, {"time": 896, "pitch": 60, "duration": 7, "velocity": 58}, {"time": 896, "pitch": 63, "duration": 9, "velocity": 76}, {"time": 896, "pitch": 67, "duration": 12, "velocity": 68}, {"time": 902, "pitch": 55, "duration": 37, "velocity": 72}, {"time": 908, "pitch": 60, "duration": 14, "velocity": 63}, {"time": 914, "pitch": 62, "duration": 7, "velocity": 73}, {"time": 914, "pitch": 65, "duration": 7, "velocity": 76}, {"time": 920, "pitch": 63, "duration": 1, "velocity": 82}, {"time": 920, "pitch": 67, "duration": 2, "velocity": 80}, {"time": 926, "pitch": 60, "duration": 7, "velocity": 37}, {"time": 932, "pitch": 67, "duration": 5, "velocity": 72}, {"time": 932, "pitch": 75, "duration": 9, "velocity": 83}, {"time": 938, "pitch": 60, "duration": 6, "velocity": 53}, {"time": 944, "pitch": 51, "duration": 41, "velocity": 82}, {"time": 944, "pitch": 65, "duration": 2, "velocity": 48}, {"time": 944, "pitch": 67, "duration": 13, "velocity": 57}, {"time": 944, "pitch": 70, "duration": 14, "velocity": 72}, {"time": 950, "pitch": 58, "duration": 18, "velocity": 72}, {"time": 956, "pitch": 63, "duration": 13, "velocity": 68}, {"time": 962, "pitch": 65, "duration": 8, "velocity": 70}, {"time": 962, "pitch": 70, "duration": 5, "velocity": 70}, {"time": 968, "pitch": 67, "duration": 12, "velocity": 78}, {"time": 974, "pitch": 58, "duration": 10, "velocity": 69}, {"time": 980, "pitch": 70, "duration": 8, "velocity": 78}, {"time": 986, "pitch": 65, "duration": 16, "velocity": 72}, {"time": 992, "pitch": 46, "duration": 44, "velocity": 74}, {"time": 992, "pitch": 62, "duration": 9, "velocity": 71}, {"time": 995, "pitch": 70, "duration": 7, "velocity": 4}, {"time": 998, "pitch": 53, "duration": 14, "velocity": 75}, {"time": 1004, "pitch": 58, "duration": 24, "velocity": 56}, {"time": 1010, "pitch": 60, "duration": 3, "velocity": 59}, {"time": 1010, "pitch": 72, "duration": 3, "velocity": 52}, {"time": 1016, "pitch": 62, "duration": 5, "velocity": 78}, {"time": 1016, "pitch": 74, "duration": 6, "velocity": 82}, {"time": 1022, "pitch": 53, "duration": 10, "velocity": 40}, {"time": 1028, "pitch": 63, "duration": 4, "velocity": 78}, {"time": 1028, "pitch": 75, "duration": 3, "velocity": 84}, {"time": 1034, "pitch": 58, "duration": 2, "velocity": 59}, {"time": 1040, "pitch": 48, "duration": 16, "velocity": 75}, {"time": 1040, "pitch": 60, "duration": 9, "velocity": 72}, {"time": 1040, "pitch": 63, "duration": 8, "velocity": 82}, {"time": 1040, "pitch": 67, "duration": 8, "velocity": 76}, {"time": 1052, "pitch": 60, "duration": 6, "velocity": 74}, {"time": 1052, "pitch": 63, "duration": 5, "velocity": 80}, {"time": 1052, "pitch": 67, "duration": 8, "velocity": 79}, {"time": 1058, "pitch": 48, "duration": 4, "velocity": 71}, {"time": 1064, "pitch": 48, "duration": 15, "velocity": 38}, {"time": 1064, "pitch": 60, "duration": 8, "velocity": 58}, {"time": 1064, "pitch": 63, "duration": 7, "velocity": 76}, {"time": 1064, "pitch": 67, "duration": 8, "velocity": 63}, {"time": 1076, "pitch": 60, "duration": 5, "velocity": 72}, {"time": 1076, "pitch": 63, "duration": 5, "velocity": 82}, {"time": 1076, "pitch": 67, "duration": 5, "velocity": 76}, {"time": 1082, "pitch": 48, "duration": 5, "velocity": 73}, {"time": 1088, "pitch": 51, "duration": 14, "velocity": 79}, {"time": 1088, "pitch": 67, "duration": 12, "velocity": 68}, {"time": 1088, "pitch": 70, "duration": 11, "velocity": 79}, {"time": 1088, "pitch": 75, "duration": 14, "velocity": 83}, {"time": 1094, "pitch": 58, "duration": 9, "velocity": 73}, {"time": 1100, "pitch": 63, "duration": 3, "velocity": 72}, {"time": 1106, "pitch": 50, "duration": 2, "velocity": 81}, {"time": 1106, "pitch": 65, "duration": 2, "velocity": 61}, {"time": 1106, "pitch": 70, "duration": 2, "velocity": 69}, {"time": 1112, "pitch": 48, "duration": 15, "velocity": 81}, {"time": 1112, "pitch": 63, "duration": 12, "velocity": 72}, {"time": 1112, "pitch": 67, "duration": 13, "velocity": 75}, {"time": 1118, "pitch": 55, "duration": 10, "velocity": 75}, {"time": 1124, "pitch": 60, "duration": 4, "velocity": 72}, {"time": 1130, "pitch": 63, "duration": 5, "velocity": 37}, {"time": 1130, "pitch": 67, "duration": 4, "velocity": 32}, {"time": 1136, "pitch": 41, "duration": 5, "velocity": 80}, {"time": 1136, "pitch": 60, "duration": 19, "velocity": 69}, {"time": 1136, "pitch": 65, "duration": 19, "velocity": 78}, {"time": 1136, "pitch": 68, "duration": 14, "velocity": 80}, {"time": 1142, "pitch": 53, "duration": 7, "velocity": 63}, {"time": 1148, "pitch": 55, "duration": 8, "velocity": 68}, {"time": 1154, "pitch": 56, "duration": 3, "velocity": 79}, {"time": 1160, "pitch": 46, "duration": 18, "velocity": 79}, {"time": 1160, "pitch": 62, "duration": 8, "velocity": 76}, {"time": 1160, "pitch": 65, "duration": 9, "velocity": 77}, {"time": 1160, "pitch": 70, "duration": 6, "velocity": 78}, {"time": 1166, "pitch": 53, "duration": 12, "velocity": 77}, {"time": 1172, "pitch": 58, "duration": 6, "velocity": 67}, {"time": 1172, "pitch": 60, "duration": 7, "velocity": 73}, {"time": 1172, "pitch": 63, "duration": 6, "velocity": 83}, {"time": 1172, "pitch": 68, "duration": 4, "velocity": 84}, {"time": 1184, "pitch": 39, "duration": 6, "velocity": 90}, {"time": 1184, "pitch": 58, "duration": 20, "velocity": 53}, {"time": 1184, "pitch": 63, "duration": 15, "velocity": 80}, {"time": 1184, "pitch": 67, "duration": 16, "velocity": 81}, {"time": 1190, "pitch": 51, "duration": 7, "velocity": 63}, {"time": 1196, "pitch": 53, "duration": 7, "velocity": 79}, {"time": 1202, "pitch": 55, "duration": 2, "velocity": 90}, {"time": 1208, "pitch": 51, "duration": 13, "velocity": 83}, {"time": 1208, "pitch": 58, "duration": 3, "velocity": 73}, {"time": 1211, "pitch": 63, "duration": 4, "velocity": 80}, {"time": 1214, "pitch": 65, "duration": 3, "velocity": 75}, {"time": 1217, "pitch": 67, "duration": 4, "velocity": 81}, {"time": 1220, "pitch": 53, "duration": 7, "velocity": 75}, {"time": 1220, "pitch": 70, "duration": 4, "velocity": 77}, {"time": 1223, "pitch": 72, "duration": 3, "velocity": 76}, {"time": 1226, "pitch": 74, "duration": 4, "velocity": 79}, {"time": 1229, "pitch": 77, "duration": 1, "velocity": 68}, {"time": 1232, "pitch": 48, "duration": 11, "velocity": 74}, {"time": 1232, "pitch": 67, "duration": 8, "velocity": 83}, {"time": 1232, "pitch": 75, "duration": 9, "velocity": 71}, {"time": 1238, "pitch": 55, "duration": 5, "velocity": 76}, {"time": 1244, "pitch": 60, "duration": 8, "velocity": 60}, {"time": 1244, "pitch": 67, "duration": 4, "velocity": 75}, {"time": 1244, "pitch": 75, "duration": 5, "velocity": 86}, {"time": 1250, "pitch": 62, "duration": 20, "velocity": 75}, {"time": 1250, "pitch": 65, "duration": 3, "velocity": 72}, {"time": 1250, "pitch": 74, "duration": 6, "velocity": 83}, {"time": 1256, "pitch": 67, "duration": 7, "velocity": 78}, {"time": 1256, "pitch": 75, "duration": 6, "velocity": 86}, {"time": 1262, "pitch": 63, "duration": 7, "velocity": 82}, {"time": 1268, "pitch": 67, "duration": 5, "velocity": 80}, {"time": 1274, "pitch": 75, "duration": 4, "velocity": 82}, {"time": 1280, "pitch": 50, "duration": 45, "velocity": 82}, {"time": 1280, "pitch": 65, "duration": 10, "velocity": 76}, {"time": 1280, "pitch": 70, "duration": 10, "velocity": 73}, {"time": 1280, "pitch": 74, "duration": 9, "velocity": 86}, {"time": 1286, "pitch": 58, "duration": 34, "velocity": 72}, {"time": 1289, "pitch": 62, "duration": 10, "velocity": 78}, {"time": 1292, "pitch": 65, "duration": 3, "velocity": 71}, {"time": 1295, "pitch": 70, "duration": 4, "velocity": 79}, {"time": 1298, "pitch": 72, "duration": 4, "velocity": 75}, {"time": 1301, "pitch": 74, "duration": 2, "velocity": 83}, {"time": 1304, "pitch": 62, "duration": 6, "velocity": 52}, {"time": 1304, "pitch": 75, "duration": 7, "velocity": 80}, {"time": 1310, "pitch": 74, "duration": 6, "velocity": 82}, {"time": 1316, "pitch": 70, "duration": 11, "velocity": 80}, {"time": 1322, "pitch": 58, "duration": 2, "velocity": 69}, {"time": 1328, "pitch": 48, "duration": 43, "velocity": 79}, {"time": 1328, "pitch": 63, "duration": 11, "velocity": 79}, {"time": 1328, "pitch": 67, "duration": 14, "velocity": 73}, {"time": 1328, "pitch": 72, "duration": 13, "velocity": 79}, {"time": 1334, "pitch": 55, "duration": 29, "velocity": 78}, {"time": 1340, "pitch": 60, "duration": 12, "velocity": 73}, {"time": 1346, "pitch": 63, "duration": 4, "velocity": 72}, {"time": 1352, "pitch": 63, "duration": 7, "velocity": 82}, {"time": 1352, "pitch": 67, "duration": 3, "velocity": 51}, {"time": 1352, "pitch": 72, "duration": 10, "velocity": 83}, {"time": 1358, "pitch": 60, "duration": 8, "velocity": 63}, {"time": 1364, "pitch": 63, "duration": 3, "velocity": 82}, {"time": 1364, "pitch": 70, "duration": 5, "velocity": 82}, {"time": 1364, "pitch": 72, "duration": 1, "velocity": 56}, {"time": 1370, "pitch": 55, "duration": 2, "velocity": 84}, {"time": 1376, "pitch": 43, "duration": 6, "velocity": 81}, {"time": 1376, "pitch": 62, "duration": 14, "velocity": 77}, {"time": 1376, "pitch": 67, "duration": 19, "velocity": 79}, {"time": 1376, "pitch": 70, "duration": 19, "velocity": 80}, {"time": 1382, "pitch": 55, "duration": 8, "velocity": 68}, {"time": 1388, "pitch": 58, "duration": 27, "velocity": 80}, {"time": 1394, "pitch": 62, "duration": 9, "velocity": 80}, {"time": 1400, "pitch": 67, "duration": 6, "velocity": 80}, {"time": 1406, "pitch": 74, "duration": 6, "velocity": 83}, {"time": 1412, "pitch": 62, "duration": 2, "velocity": 80}, {"time": 1412, "pitch": 75, "duration": 8, "velocity": 86}, {"time": 1418, "pitch": 74, "duration": 3, "velocity": 80}, {"time": 1424, "pitch": 48, "duration": 38, "velocity": 80}, {"time": 1424, "pitch": 67, "duration": 8, "velocity": 76}, {"time": 1424, "pitch": 72, "duration": 8, "velocity": 76}, {"time": 1424, "pitch": 75, "duration": 8, "velocity": 90}, {"time": 1430, "pitch": 55, "duration": 33, "velocity": 79}, {"time": 1436, "pitch": 60, "duration": 20, "velocity": 81}, {"time": 1442, "pitch": 62, "duration": 7, "velocity": 83}, {"time": 1448, "pitch": 63, "duration": 2, "velocity": 84}, {"time": 1454, "pitch": 67, "duration": 4, "velocity": 75}, {"time": 1460, "pitch": 60, "duration": 4, "velocity": 68}, {"time": 1460, "pitch": 67, "duration": 1, "velocity": 32}, {"time": 1460, "pitch": 70, "duration": 6, "velocity": 82}, {"time": 1466, "pitch": 50, "duration": 2, "velocity": 80}, {"time": 1472, "pitch": 51, "duration": 14, "velocity": 82}, {"time": 1472, "pitch": 67, "duration": 14, "velocity": 71}, {"time": 1472, "pitch": 70, "duration": 14, "velocity": 76}, {"time": 1472, "pitch": 75, "duration": 13, "velocity": 78}, {"time": 1478, "pitch": 58, "duration": 8, "velocity": 73}, {"time": 1490, "pitch": 50, "duration": 4, "velocity": 86}, {"time": 1490, "pitch": 67, "duration": 3, "velocity": 58}, {"time": 1490, "pitch": 74, "duration": 6, "velocity": 82}, {"time": 1496, "pitch": 48, "duration": 14, "velocity": 82}, {"time": 1496, "pitch": 67, "duration": 7, "velocity": 74}, {"time": 1496, "pitch": 75, "duration": 7, "velocity": 86}, {"time": 1502, "pitch": 55, "duration": 9, "velocity": 79}, {"time": 1508, "pitch": 60, "duration": 3, "velocity": 77}, {"time": 1511, "pitch": 63, "duration": 2, "velocity": 73}, {"time": 1514, "pitch": 65, "duration": 4, "velocity": 73}, {"time": 1517, "pitch": 67, "duration": 2, "velocity": 80}, {"time": 1520, "pitch": 41, "duration": 15, "velocity": 79}, {"time": 1520, "pitch": 65, "duration": 7, "velocity": 72}, {"time": 1520, "pitch": 68, "duration": 8, "velocity": 80}, {"time": 1520, "pitch": 72, "duration": 8, "velocity": 76}, {"time": 1526, "pitch": 53, "duration": 11, "velocity": 68}, {"time": 1532, "pitch": 65, "duration": 6, "velocity": 76}, {"time": 1538, "pitch": 70, "duration": 6, "velocity": 79}, {"time": 1544, "pitch": 44, "duration": 5, "velocity": 81}, {"time": 1544, "pitch": 56, "duration": 6, "velocity": 58}, {"time": 1544, "pitch": 63, "duration": 5, "velocity": 76}, {"time": 1544, "pitch": 68, "duration": 10, "velocity": 75}, {"time": 1544, "pitch": 72, "duration": 11, "velocity": 76}, {"time": 1556, "pitch": 46, "duration": 5, "velocity": 74}, {"time": 1556, "pitch": 58, "duration": 8, "velocity": 71}, {"time": 1556, "pitch": 65, "duration": 6, "velocity": 82}, {"time": 1556, "pitch": 70, "duration": 6, "velocity": 82}, {"time": 1556, "pitch": 74, "duration": 5, "velocity": 90}, {"time": 1568, "pitch": 48, "duration": 42, "velocity": 80}, {"time": 1568, "pitch": 67, "duration": 10, "velocity": 78}, {"time": 1568, "pitch": 75, "duration": 9, "velocity": 84}, {"time": 1574, "pitch": 55, "duration": 38, "velocity": 82}, {"time": 1580, "pitch": 60, "duration": 9, "velocity": 69}, {"time": 1586, "pitch": 62, "duration": 6, "velocity": 76}, {"time": 1592, "pitch": 60, "duration": 9, "velocity": 53}, {"time": 1592, "pitch": 63, "duration": 3, "velocity": 81}, {"time": 1598, "pitch": 67, "duration": 9, "velocity": 61}, {"time": 1604, "pitch": 74, "duration": 6, "velocity": 80}, {"time": 1610, "pitch": 75, "duration": 4, "velocity": 80}, {"time": 1616, "pitch": 51, "duration": 41, "velocity": 73}, {"time": 1616, "pitch": 67, "duration": 13, "velocity": 58}, {"time": 1616, "pitch": 70, "duration": 13, "velocity": 75}, {"time": 1616, "pitch": 75, "duration": 14, "velocity": 70}, {"time": 1622, "pitch": 58, "duration": 32, "velocity": 59}, {"time": 1628, "pitch": 63, "duration": 16, "velocity": 68}, {"time": 1634, "pitch": 65, "duration": 18, "velocity": 63}, {"time": 1640, "pitch": 67, "duration": 13, "velocity": 83}, {"time": 1652, "pitch": 70, "duration": 15, "velocity": 76}, {"time": 1664, "pitch": 48, "duration": 38, "velocity": 76}, {"time": 1664, "pitch": 63, "duration": 14, "velocity": 82}, {"time": 1670, "pitch": 55, "duration": 32, "velocity": 75}, {"time": 1676, "pitch": 60, "duration": 14, "velocity": 71}, {"time": 1682, "pitch": 62, "duration": 8, "velocity": 58}, {"time": 1688, "pitch": 63, "duration": 11, "velocity": 79}, {"time": 1694, "pitch": 60, "duration": 5, "velocity": 37}, {"time": 1700, "pitch": 62, "duration": 10, "velocity": 73}, {"time": 1700, "pitch": 65, "duration": 13, "velocity": 82}, {"time": 1712, "pitch": 51, "duration": 41, "velocity": 54}, {"time": 1712, "pitch": 63, "duration": 5, "velocity": 78}, {"time": 1712, "pitch": 67, "duration": 6, "velocity": 77}, {"time": 1718, "pitch": 58, "duration": 35, "velocity": 59}, {"time": 1724, "pitch": 65, "duration": 6, "velocity": 68}, {"time": 1724, "pitch": 70, "duration": 12, "velocity": 73}, {"time": 1730, "pitch": 63, "duration": 7, "velocity": 58}, {"time": 1736, "pitch": 67, "duration": 9, "velocity": 58}, {"time": 1742, "pitch": 63, "duration": 6, "velocity": 56}, {"time": 1748, "pitch": 70, "duration": 12, "velocity": 60}, {"time": 1760, "pitch": 46, "duration": 40, "velocity": 72}, {"time": 1760, "pitch": 65, "duration": 12, "velocity": 82}, {"time": 1766, "pitch": 53, "duration": 35, "velocity": 73}, {"time": 1772, "pitch": 58, "duration": 28, "velocity": 57}, {"time": 1778, "pitch": 60, "duration": 8, "velocity": 68}, {"time": 1784, "pitch": 62, "duration": 2, "velocity": 83}, {"time": 1790, "pitch": 62, "duration": 2, "velocity": 51}, {"time": 1790, "pitch": 63, "duration": 2, "velocity": 43}, {"time": 1796, "pitch": 63, "duration": 4, "velocity": 82}, {"time": 1802, "pitch": 65, "duration": 5, "velocity": 75}, {"time": 1808, "pitch": 48, "duration": 42, "velocity": 75}, {"time": 1808, "pitch": 63, "duration": 15, "velocity": 77}, {"time": 1808, "pitch": 67, "duration": 14, "velocity": 77}, {"time": 1814, "pitch": 55, "duration": 20, "velocity": 72}, {"time": 1820, "pitch": 60, "duration": 6, "velocity": 53}, {"time": 1826, "pitch": 62, "duration": 3, "velocity": 63}, {"time": 1826, "pitch": 65, "duration": 5, "velocity": 71}, {"time": 1832, "pitch": 63, "duration": 5, "velocity": 77}, {"time": 1832, "pitch": 67, "duration": 7, "velocity": 78}, {"time": 1838, "pitch": 55, "duration": 9, "velocity": 69}, {"time": 1844, "pitch": 63, "duration": 5, "velocity": 80}, {"time": 1844, "pitch": 70, "duration": 4, "velocity": 77}, {"time": 1856, "pitch": 51, "duration": 15, "velocity": 84}, {"time": 1856, "pitch": 67, "duration": 14, "velocity": 72}, {"time": 1856, "pitch": 70, "duration": 14, "velocity": 76}, {"time": 1862, "pitch": 58, "duration": 10, "velocity": 71}, {"time": 1868, "pitch": 63, "duration": 3, "velocity": 75}, {"time": 1874, "pitch": 50, "duration": 3, "velocity": 86}, {"time": 1874, "pitch": 70, "duration": 5, "velocity": 76}, {"time": 1880, "pitch": 48, "duration": 17, "velocity": 79}, {"time": 1880, "pitch": 63, "duration": 14, "velocity": 75}, {"time": 1880, "pitch": 70, "duration": 14, "velocity": 54}, {"time": 1886, "pitch": 55, "duration": 11, "velocity": 72}, {"time": 1892, "pitch": 60, "duration": 6, "velocity": 60}, {"time": 1904, "pitch": 53, "duration": 39, "velocity": 71}, {"time": 1904, "pitch": 65, "duration": 8, "velocity": 71}, {"time": 1904, "pitch": 68, "duration": 13, "velocity": 75}, {"time": 1904, "pitch": 72, "duration": 10, "velocity": 72}, {"time": 1910, "pitch": 60, "duration": 19, "velocity": 50}, {"time": 1916, "pitch": 65, "duration": 19, "velocity": 69}, {"time": 1922, "pitch": 67, "duration": 11, "velocity": 68}, {"time": 1928, "pitch": 68, "duration": 8, "velocity": 80}, {"time": 1934, "pitch": 60, "duration": 9, "velocity": 53}, {"time": 1940, "pitch": 72, "duration": 6, "velocity": 74}, {"time": 1946, "pitch": 75, "duration": 3, "velocity": 78}, {"time": 1952, "pitch": 51, "duration": 42, "velocity": 79}, {"time": 1952, "pitch": 67, "duration": 13, "velocity": 69}, {"time": 1952, "pitch": 70, "duration": 13, "velocity": 80}, {"time": 1952, "pitch": 75, "duration": 13, "velocity": 82}, {"time": 1958, "pitch": 58, "duration": 31, "velocity": 71}, {"time": 1964, "pitch": 63, "duration": 9, "velocity": 80}, {"time": 1970, "pitch": 65, "duration": 3, "velocity": 74}, {"time": 1970, "pitch": 77, "duration": 4, "velocity": 82}, {"time": 1976, "pitch": 67, "duration": 4, "velocity": 71}, {"time": 1976, "pitch": 79, "duration": 4, "velocity": 78}, {"time": 1982, "pitch": 63, "duration": 9, "velocity": 52}, {"time": 1988, "pitch": 70, "duration": 2, "velocity": 73}, {"time": 1988, "pitch": 82, "duration": 3, "velocity": 79}, {"time": 1994, "pitch": 58, "duration": 2, "velocity": 68}, {"time": 2000, "pitch": 51, "duration": 47, "velocity": 81}, {"time": 2000, "pitch": 67, "duration": 11, "velocity": 75}, {"time": 2000, "pitch": 70, "duration": 11, "velocity": 81}, {"time": 2000, "pitch": 75, "duration": 14, "velocity": 82}, {"time": 2006, "pitch": 58, "duration": 32, "velocity": 68}, {"time": 2012, "pitch": 63, "duration": 13, "velocity": 62}, {"time": 2018, "pitch": 65, "duration": 7, "velocity": 72}, {"time": 2018, "pitch": 70, "duration": 6, "velocity": 76}, {"time": 2024, "pitch": 67, "duration": 11, "velocity": 81}, {"time": 2030, "pitch": 63, "duration": 5, "velocity": 57}, {"time": 2036, "pitch": 70, "duration": 7, "velocity": 83}, {"time": 2042, "pitch": 65, "duration": 6, "velocity": 74}, {"time": 2048, "pitch": 48, "duration": 38, "velocity": 77}, {"time": 2048, "pitch": 63, "duration": 8, "velocity": 86}, {"time": 2054, "pitch": 55, "duration": 20, "velocity": 68}, {"time": 2060, "pitch": 58, "duration": 7, "velocity": 58}, {"time": 2066, "pitch": 63, "duration": 14, "velocity": 80}, {"time": 2072, "pitch": 60, "duration": 8, "velocity": 75}, {"time": 2078, "pitch": 55, "duration": 7, "velocity": 73}, {"time": 2084, "pitch": 50, "duration": 9, "velocity": 80}, {"time": 2084, "pitch": 58, "duration": 9, "velocity": 74}, {"time": 2084, "pitch": 65, "duration": 11, "velocity": 83}, {"time": 2096, "pitch": 39, "duration": 6, "velocity": 52}, {"time": 2096, "pitch": 58, "duration": 15, "velocity": 77}, {"time": 2096, "pitch": 63, "duration": 17, "velocity": 82}, {"time": 2096, "pitch": 67, "duration": 18, "velocity": 78}, {"time": 2102, "pitch": 51, "duration": 7, "velocity": 71}, {"time": 2108, "pitch": 55, "duration": 28, "velocity": 77}, {"time": 2114, "pitch": 58, "duration": 16, "velocity": 55}, {"time": 2120, "pitch": 63, "duration": 7, "velocity": 80}, {"time": 2126, "pitch": 65, "duration": 5, "velocity": 83}, {"time": 2132, "pitch": 58, "duration": 3, "velocity": 77}, {"time": 2132, "pitch": 67, "duration": 6, "velocity": 80}, {"time": 2138, "pitch": 70, "duration": 5, "velocity": 82}, {"time": 2144, "pitch": 46, "duration": 39, "velocity": 79}, {"time": 2144, "pitch": 62, "duration": 10, "velocity": 77}, {"time": 2144, "pitch": 65, "duration": 11, "velocity": 84}, {"time": 2144, "pitch": 70, "duration": 2, "velocity": 19}, {"time": 2150, "pitch": 53, "duration": 33, "velocity": 79}, {"time": 2156, "pitch": 58, "duration": 21, "velocity": 60}, {"time": 2162, "pitch": 60, "duration": 2, "velocity": 82}, {"time": 2168, "pitch": 62, "duration": 2, "velocity": 76}, {"time": 2168, "pitch": 74, "duration": 2, "velocity": 84}, {"time": 2174, "pitch": 63, "duration": 2, "velocity": 69}, {"time": 2174, "pitch": 75, "duration": 2, "velocity": 84}, {"time": 2180, "pitch": 58, "duration": 8, "velocity": 55}, {"time": 2180, "pitch": 65, "duration": 2, "velocity": 78}, {"time": 2180, "pitch": 77, "duration": 2, "velocity": 90}, {"time": 2186, "pitch": 67, "duration": 2, "velocity": 56}, {"time": 2186, "pitch": 79, "duration": 2, "velocity": 76}, {"time": 2192, "pitch": 51, "duration": 22, "velocity": 78}, {"time": 2192, "pitch": 70, "duration": 7, "velocity": 68}, {"time": 2192, "pitch": 82, "duration": 5, "velocity": 79}, {"time": 2198, "pitch": 58, "duration": 30, "velocity": 72}, {"time": 2204, "pitch": 63, "duration": 6, "velocity": 71}, {"time": 2210, "pitch": 65, "duration": 6, "velocity": 73}, {"time": 2210, "pitch": 70, "duration": 6, "velocity": 75}, {"time": 2216, "pitch": 67, "duration": 11, "velocity": 55}, {"time": 2228, "pitch": 50, "duration": 12, "velocity": 81}, {"time": 2228, "pitch": 65, "duration": 5, "velocity": 76}, {"time": 2228, "pitch": 70, "duration": 12, "velocity": 79}, {"time": 2240, "pitch": 48, "duration": 44, "velocity": 80}, {"time": 2240, "pitch": 63, "duration": 11, "velocity": 82}, {"time": 2240, "pitch": 67, "duration": 10, "velocity": 82}, {"time": 2246, "pitch": 55, "duration": 33, "velocity": 69}, {"time": 2252, "pitch": 60, "duration": 6, "velocity": 58}, {"time": 2258, "pitch": 62, "duration": 4, "velocity": 72}, {"time": 2258, "pitch": 63, "duration": 10, "velocity": 82}, {"time": 2258, "pitch": 67, "duration": 9, "velocity": 80}, {"time": 2264, "pitch": 60, "duration": 16, "velocity": 45}, {"time": 2270, "pitch": 62, "duration": 6, "velocity": 62}, {"time": 2270, "pitch": 65, "duration": 8, "velocity": 69}, {"time": 2276, "pitch": 63, "duration": 6, "velocity": 83}, {"time": 2276, "pitch": 67, "duration": 7, "velocity": 81}, {"time": 2282, "pitch": 55, "duration": 6, "velocity": 77}, {"time": 2288, "pitch": 53, "duration": 16, "velocity": 83}, {"time": 2288, "pitch": 60, "duration": 10, "velocity": 75}, {"time": 2288, "pitch": 65, "duration": 11, "velocity": 82}, {"time": 2288, "pitch": 68, "duration": 10, "velocity": 83}, {"time": 2300, "pitch": 60, "duration": 4, "velocity": 71}, {"time": 2300, "pitch": 65, "duration": 5, "velocity": 80}, {"time": 2300, "pitch": 68, "duration": 2, "velocity": 50}, {"time": 2312, "pitch": 46, "duration": 14, "velocity": 82}, {"time": 2312, "pitch": 58, "duration": 4, "velocity": 62}, {"time": 2312, "pitch": 62, "duration": 7, "velocity": 79}, {"time": 2312, "pitch": 65, "duration": 7, "velocity": 84}, {"time": 2312, "pitch": 70, "duration": 7, "velocity": 80}, {"time": 2318, "pitch": 58, "duration": 6, "velocity": 25}, {"time": 2324, "pitch": 62, "duration": 4, "velocity": 78}, {"time": 2324, "pitch": 65, "duration": 6, "velocity": 80}, {"time": 2324, "pitch": 70, "duration": 5, "velocity": 77}, {"time": 2336, "pitch": 39, "duration": 43, "velocity": 90}, {"time": 2336, "pitch": 58, "duration": 8, "velocity": 75}, {"time": 2336, "pitch": 63, "duration": 7, "velocity": 84}, {"time": 2342, "pitch": 51, "duration": 13, "velocity": 62}, {"time": 2348, "pitch": 58, "duration": 15, "velocity": 57}, {"time": 2348, "pitch": 65, "duration": 8, "velocity": 73}, {"time": 2354, "pitch": 67, "duration": 9, "velocity": 73}, {"time": 2360, "pitch": 51, "duration": 19, "velocity": 55}, {"time": 2366, "pitch": 58, "duration": 12, "velocity": 57}, {"time": 2372, "pitch": 65, "duration": 6, "velocity": 79}, {"time": 2378, "pitch": 46, "duration": 7, "velocity": 60}, {"time": 2378, "pitch": 67, "duration": 6, "velocity": 69}, {"time": 2384, "pitch": 51, "duration": 41, "velocity": 73}, {"time": 2384, "pitch": 67, "duration": 13, "velocity": 58}, {"time": 2384, "pitch": 70, "duration": 13, "velocity": 75}, {"time": 2384, "pitch": 75, "duration": 14, "velocity": 70}, {"time": 2390, "pitch": 58, "duration": 32, "velocity": 59}, {"time": 2396, "pitch": 63, "duration": 16, "velocity": 68}, {"time": 2402, "pitch": 65, "duration": 18, "velocity": 63}, {"time": 2408, "pitch": 67, "duration": 13, "velocity": 83}, {"time": 2420, "pitch": 70, "duration": 15, "velocity": 76}, {"time": 2432, "pitch": 48, "duration": 38, "velocity": 76}, {"time": 2432, "pitch": 63, "duration": 14, "velocity": 82}, {"time": 2438, "pitch": 55, "duration": 32, "velocity": 75}, {"time": 2444, "pitch": 60, "duration": 14, "velocity": 71}, {"time": 2450, "pitch": 62, "duration": 8, "velocity": 58}, {"time": 2456, "pitch": 63, "duration": 11, "velocity": 79}, {"time": 2462, "pitch": 60, "duration": 5, "velocity": 37}, {"time": 2468, "pitch": 62, "duration": 10, "velocity": 73}, {"time": 2468, "pitch": 65, "duration": 13, "velocity": 82}, {"time": 2480, "pitch": 51, "duration": 41, "velocity": 54}, {"time": 2480, "pitch": 63, "duration": 5, "velocity": 78}, {"time": 2480, "pitch": 67, "duration": 6, "velocity": 77}, {"time": 2486, "pitch": 58, "duration": 35, "velocity": 59}, {"time": 2492, "pitch": 65, "duration": 6, "velocity": 68}, {"time": 2492, "pitch": 70, "duration": 12, "velocity": 73}, {"time": 2498, "pitch": 63, "duration": 7, "velocity": 58}, {"time": 2504, "pitch": 67, "duration": 9, "velocity": 58}, {"time": 2510, "pitch": 63, "duration": 6, "velocity": 56}, {"time": 2516, "pitch": 70, "duration": 12, "velocity": 60}, {"time": 2528, "pitch": 46, "duration": 40, "velocity": 72}, {"time": 2528, "pitch": 65, "duration": 12, "velocity": 82}, {"time": 2534, "pitch": 53, "duration": 35, "velocity": 73}, {"time": 2540, "pitch": 58, "duration": 28, "velocity": 57}, {"time": 2546, "pitch": 60, "duration": 8, "velocity": 68}, {"time": 2552, "pitch": 62, "duration": 2, "velocity": 83}, {"time": 2558, "pitch": 62, "duration": 2, "velocity": 51}, {"time": 2564, "pitch": 63, "duration": 4, "velocity": 82}, {"time": 2570, "pitch": 65, "duration": 5, "velocity": 75}, {"time": 2576, "pitch": 48, "duration": 42, "velocity": 75}, {"time": 2576, "pitch": 63, "duration": 15, "velocity": 77}, {"time": 2576, "pitch": 67, "duration": 14, "velocity": 77}, {"time": 2582, "pitch": 55, "duration": 20, "velocity": 72}, {"time": 2588, "pitch": 60, "duration": 6, "velocity": 53}, {"time": 2594, "pitch": 65, "duration": 5, "velocity": 71}, {"time": 2600, "pitch": 63, "duration": 5, "velocity": 77}, {"time": 2600, "pitch": 67, "duration": 7, "velocity": 78}, {"time": 2606, "pitch": 55, "duration": 9, "velocity": 69}, {"time": 2612, "pitch": 63, "duration": 5, "velocity": 80}, {"time": 2612, "pitch": 70, "duration": 4, "velocity": 77}, {"time": 2624, "pitch": 51, "duration": 15, "velocity": 84}, {"time": 2624, "pitch": 67, "duration": 14, "velocity": 72}, {"time": 2624, "pitch": 70, "duration": 14, "velocity": 76}, {"time": 2630, "pitch": 58, "duration": 10, "velocity": 71}, {"time": 2636, "pitch": 63, "duration": 3, "velocity": 75}, {"time": 2642, "pitch": 50, "duration": 3, "velocity": 86}, {"time": 2642, "pitch": 70, "duration": 5, "velocity": 76}, {"time": 2648, "pitch": 48, "duration": 17, "velocity": 79}, {"time": 2648, "pitch": 63, "duration": 14, "velocity": 75}, {"time": 2648, "pitch": 70, "duration": 14, "velocity": 54}, {"time": 2654, "pitch": 55, "duration": 11, "velocity": 72}, {"time": 2660, "pitch": 60, "duration": 6, "velocity": 60}, {"time": 2672, "pitch": 53, "duration": 39, "velocity": 71}, {"time": 2672, "pitch": 65, "duration": 8, "velocity": 71}, {"time": 2672, "pitch": 68, "duration": 13, "velocity": 75}, {"time": 2672, "pitch": 72, "duration": 10, "velocity": 72}, {"time": 2678, "pitch": 60, "duration": 19, "velocity": 50}, {"time": 2684, "pitch": 65, "duration": 19, "velocity": 69}, {"time": 2690, "pitch": 67, "duration": 11, "velocity": 68}, {"time": 2696, "pitch": 68, "duration": 8, "velocity": 80}, {"time": 2702, "pitch": 60, "duration": 9, "velocity": 53}, {"time": 2708, "pitch": 72, "duration": 6, "velocity": 74}, {"time": 2714, "pitch": 75, "duration": 3, "velocity": 78}, {"time": 2720, "pitch": 39, "duration": 6, "velocity": 80}, {"time": 2720, "pitch": 58, "duration": 14, "velocity": 78}, {"time": 2720, "pitch": 67, "duration": 16, "velocity": 79}, {"time": 2726, "pitch": 51, "duration": 7, "velocity": 72}, {"time": 2732, "pitch": 53, "duration": 27, "velocity": 79}, {"time": 2738, "pitch": 55, "duration": 13, "velocity": 80}, {"time": 2744, "pitch": 58, "duration": 5, "velocity": 81}, {"time": 2750, "pitch": 58, "duration": 1, "velocity": 38}, {"time": 2750, "pitch": 60, "duration": 5, "velocity": 84}, {"time": 2756, "pitch": 55, "duration": 4, "velocity": 77}, {"time": 2756, "pitch": 63, "duration": 5, "velocity": 84}, {"time": 2762, "pitch": 65, "duration": 2, "velocity": 82}, {"time": 2768, "pitch": 48, "duration": 42, "velocity": 86}, {"time": 2768, "pitch": 63, "duration": 13, "velocity": 83}, {"time": 2768, "pitch": 67, "duration": 12, "velocity": 82}, {"time": 2774, "pitch": 55, "duration": 33, "velocity": 72}, {"time": 2780, "pitch": 60, "duration": 13, "velocity": 80}, {"time": 2786, "pitch": 62, "duration": 7, "velocity": 80}, {"time": 2786, "pitch": 65, "duration": 8, "velocity": 83}, {"time": 2792, "pitch": 63, "duration": 2, "velocity": 84}, {"time": 2792, "pitch": 67, "duration": 2, "velocity": 91}, {"time": 2798, "pitch": 60, "duration": 8, "velocity": 62}, {"time": 2804, "pitch": 67, "duration": 6, "velocity": 79}, {"time": 2804, "pitch": 75, "duration": 8, "velocity": 94}, {"time": 2810, "pitch": 55, "duration": 2, "velocity": 78}, {"time": 2816, "pitch": 43, "duration": 24, "velocity": 86}, {"time": 2816, "pitch": 65, "duration": 6, "velocity": 79}, {"time": 2816, "pitch": 70, "duration": 5, "velocity": 86}, {"time": 2816, "pitch": 74, "duration": 5, "velocity": 80}, {"time": 2822, "pitch": 50, "duration": 38, "velocity": 78}, {"time": 2828, "pitch": 55, "duration": 14, "velocity": 83}, {"time": 2834, "pitch": 58, "duration": 2, "velocity": 73}, {"time": 2834, "pitch": 62, "duration": 5, "velocity": 75}, {"time": 2834, "pitch": 65, "duration": 5, "velocity": 80}, {"time": 2840, "pitch": 58, "duration": 6, "velocity": 80}, {"time": 2840, "pitch": 62, "duration": 5, "velocity": 74}, {"time": 2840, "pitch": 65, "duration": 4, "velocity": 82}, {"time": 2846, "pitch": 43, "duration": 13, "velocity": 82}, {"time": 2852, "pitch": 58, "duration": 5, "velocity": 80}, {"time": 2852, "pitch": 62, "duration": 5, "velocity": 78}, {"time": 2852, "pitch": 65, "duration": 5, "velocity": 82}, {"time": 2852, "pitch": 70, "duration": 5, "velocity": 84}, {"time": 2858, "pitch": 55, "duration": 6, "velocity": 84}, {"time": 2864, "pitch": 48, "duration": 40, "velocity": 90}, {"time": 2864, "pitch": 63, "duration": 14, "velocity": 84}, {"time": 2864, "pitch": 67, "duration": 13, "velocity": 84}, {"time": 2870, "pitch": 55, "duration": 31, "velocity": 76}, {"time": 2876, "pitch": 60, "duration": 9, "velocity": 80}, {"time": 2882, "pitch": 62, "duration": 4, "velocity": 78}, {"time": 2882, "pitch": 65, "duration": 5, "velocity": 83}, {"time": 2888, "pitch": 62, "duration": 1, "velocity": 72}, {"time": 2888, "pitch": 63, "duration": 4, "velocity": 86}, {"time": 2888, "pitch": 67, "duration": 5, "velocity": 86}, {"time": 2894, "pitch": 60, "duration": 8, "velocity": 79}, {"time": 2900, "pitch": 63, "duration": 4, "velocity": 93}, {"time": 2900, "pitch": 67, "duration": 6, "velocity": 84}, {"time": 2906, "pitch": 55, "duration": 2, "velocity": 79}, {"time": 2912, "pitch": 43, "duration": 44, "velocity": 84}, {"time": 2912, "pitch": 58, "duration": 9, "velocity": 82}, {"time": 2912, "pitch": 62, "duration": 11, "velocity": 84}, {"time": 2912, "pitch": 65, "duration": 11, "velocity": 84}, {"time": 2918, "pitch": 50, "duration": 35, "velocity": 82}, {"time": 2924, "pitch": 55, "duration": 14, "velocity": 83}, {"time": 2930, "pitch": 58, "duration": 5, "velocity": 82}, {"time": 2930, "pitch": 70, "duration": 5, "velocity": 86}, {"time": 2936, "pitch": 58, "duration": 7, "velocity": 86}, {"time": 2936, "pitch": 67, "duration": 8, "velocity": 78}, {"time": 2942, "pitch": 55, "duration": 8, "velocity": 79}, {"time": 2948, "pitch": 58, "duration": 7, "velocity": 90}, {"time": 2948, "pitch": 65, "duration": 7, "velocity": 83}, {"time": 2954, "pitch": 55, "duration": 2, "velocity": 91}, {"time": 2960, "pitch": 48, "duration": 16, "velocity": 75}, {"time": 2960, "pitch": 60, "duration": 9, "velocity": 72}, {"time": 2960, "pitch": 63, "duration": 8, "velocity": 82}, {"time": 2960, "pitch": 67, "duration": 8, "velocity": 76}, {"time": 2972, "pitch": 60, "duration": 6, "velocity": 74}, {"time": 2972, "pitch": 63, "duration": 5, "velocity": 80}, {"time": 2972, "pitch": 67, "duration": 8, "velocity": 79}, {"time": 2978, "pitch": 48, "duration": 4, "velocity": 71}, {"time": 2984, "pitch": 48, "duration": 15, "velocity": 38}, {"time": 2984, "pitch": 60, "duration": 8, "velocity": 58}, {"time": 2984, "pitch": 63, "duration": 7, "velocity": 76}, {"time": 2984, "pitch": 67, "duration": 8, "velocity": 63}, {"time": 2996, "pitch": 60, "duration": 5, "velocity": 72}, {"time": 2996, "pitch": 63, "duration": 5, "velocity": 82}, {"time": 2996, "pitch": 67, "duration": 5, "velocity": 76}, {"time": 3002, "pitch": 48, "duration": 5, "velocity": 73}, {"time": 3008, "pitch": 51, "duration": 14, "velocity": 79}, {"time": 3008, "pitch": 67, "duration": 12, "velocity": 68}, {"time": 3008, "pitch": 70, "duration": 11, "velocity": 79}, {"time": 3008, "pitch": 75, "duration": 14, "velocity": 83}, {"time": 3014, "pitch": 58, "duration": 9, "velocity": 73}, {"time": 3020, "pitch": 63, "duration": 3, "velocity": 72}, {"time": 3026, "pitch": 50, "duration": 2, "velocity": 81}, {"time": 3026, "pitch": 65, "duration": 2, "velocity": 61}, {"time": 3026, "pitch": 70, "duration": 2, "velocity": 69}, {"time": 3032, "pitch": 48, "duration": 15, "velocity": 81}, {"time": 3032, "pitch": 63, "duration": 12, "velocity": 72}, {"time": 3032, "pitch": 67, "duration": 13, "velocity": 75}, {"time": 3038, "pitch": 55, "duration": 10, "velocity": 75}, {"time": 3044, "pitch": 60, "duration": 4, "velocity": 72}, {"time": 3050, "pitch": 63, "duration": 5, "velocity": 37}, {"time": 3050, "pitch": 67, "duration": 4, "velocity": 32}, {"time": 3056, "pitch": 41, "duration": 13, "velocity": 83}, {"time": 3056, "pitch": 60, "duration": 8, "velocity": 78}, {"time": 3056, "pitch": 63, "duration": 7, "velocity": 84}, {"time": 3056, "pitch": 68, "duration": 7, "velocity": 83}, {"time": 3062, "pitch": 53, "duration": 11, "velocity": 71}, {"time": 3068, "pitch": 60, "duration": 7, "velocity": 81}, {"time": 3074, "pitch": 70, "duration": 6, "velocity": 90}, {"time": 3080, "pitch": 44, "duration": 4, "velocity": 86}, {"time": 3080, "pitch": 56, "duration": 5, "velocity": 79}, {"time": 3080, "pitch": 60, "duration": 4, "velocity": 78}, {"time": 3080, "pitch": 63, "duration": 4, "velocity": 83}, {"time": 3080, "pitch": 68, "duration": 4, "velocity": 86}, {"time": 3092, "pitch": 46, "duration": 5, "velocity": 77}, {"time": 3092, "pitch": 58, "duration": 7, "velocity": 63}, {"time": 3092, "pitch": 62, "duration": 8, "velocity": 81}, {"time": 3092, "pitch": 65, "duration": 7, "velocity": 82}, {"time": 3092, "pitch": 70, "duration": 8, "velocity": 83}, {"time": 3104, "pitch": 39, "duration": 6, "velocity": 90}, {"time": 3104, "pitch": 58, "duration": 20, "velocity": 53}, {"time": 3104, "pitch": 63, "duration": 15, "velocity": 80}, {"time": 3104, "pitch": 67, "duration": 16, "velocity": 81}, {"time": 3110, "pitch": 51, "duration": 7, "velocity": 63}, {"time": 3116, "pitch": 53, "duration": 7, "velocity": 79}, {"time": 3122, "pitch": 55, "duration": 2, "velocity": 90}, {"time": 3128, "pitch": 51, "duration": 13, "velocity": 83}, {"time": 3128, "pitch": 58, "duration": 3, "velocity": 73}, {"time": 3131, "pitch": 63, "duration": 4, "velocity": 80}, {"time": 3134, "pitch": 65, "duration": 3, "velocity": 75}, {"time": 3137, "pitch": 67, "duration": 4, "velocity": 81}, {"time": 3140, "pitch": 53, "duration": 7, "velocity": 75}, {"time": 3140, "pitch": 70, "duration": 4, "velocity": 77}, {"time": 3143, "pitch": 72, "duration": 3, "velocity": 76}, {"time": 3146, "pitch": 74, "duration": 4, "velocity": 79}, {"time": 3149, "pitch": 77, "duration": 1, "velocity": 68}, {"time": 3152, "pitch": 51, "duration": 45, "velocity": 79}, {"time": 3152, "pitch": 67, "duration": 12, "velocity": 75}, {"time": 3152, "pitch": 75, "duration": 13, "velocity": 86}, {"time": 3158, "pitch": 58, "duration": 28, "velocity": 60}, {"time": 3164, "pitch": 63, "duration": 12, "velocity": 71}, {"time": 3170, "pitch": 67, "duration": 4, "velocity": 73}, {"time": 3170, "pitch": 74, "duration": 6, "velocity": 84}, {"time": 3176, "pitch": 67, "duration": 6, "velocity": 78}, {"time": 3176, "pitch": 75, "duration": 8, "velocity": 86}, {"time": 3182, "pitch": 63, "duration": 6, "velocity": 68}, {"time": 3188, "pitch": 65, "duration": 6, "velocity": 80}, {"time": 3188, "pitch": 70, "duration": 11, "velocity": 94}, {"time": 3194, "pitch": 58, "duration": 2, "velocity": 75}, {"time": 3200, "pitch": 48, "duration": 39, "velocity": 84}, {"time": 3200, "pitch": 63, "duration": 12, "velocity": 82}, {"time": 3200, "pitch": 67, "duration": 11, "velocity": 80}, {"time": 3206, "pitch": 55, "duration": 35, "velocity": 72}, {"time": 3212, "pitch": 60, "duration": 14, "velocity": 77}, {"time": 3218, "pitch": 62, "duration": 8, "velocity": 79}, {"time": 3224, "pitch": 63, "duration": 12, "velocity": 84}, {"time": 3230, "pitch": 60, "duration": 8, "velocity": 55}, {"time": 3236, "pitch": 62, "duration": 6, "velocity": 80}, {"time": 3236, "pitch": 65, "duration": 11, "velocity": 83}, {"time": 3242, "pitch": 50, "duration": 7, "velocity": 79}, {"time": 3248, "pitch": 51, "duration": 40, "velocity": 81}, {"time": 3248, "pitch": 58, "duration": 7, "velocity": 80}, {"time": 3248, "pitch": 63, "duration": 6, "velocity": 80}, {"time": 3248, "pitch": 67, "duration": 6, "velocity": 80}, {"time": 3254, "pitch": 55, "duration": 14, "velocity": 72}, {"time": 3260, "pitch": 58, "duration": 4, "velocity": 77}, {"time": 3260, "pitch": 65, "duration": 6, "velocity": 80}, {"time": 3266, "pitch": 58, "duration": 7, "velocity": 73}, {"time": 3266, "pitch": 67, "duration": 8, "velocity": 83}, {"time": 3272, "pitch": 55, "duration": 8, "velocity": 62}, {"time": 3278, "pitch": 58, "duration": 8, "velocity": 81}, {"time": 3278, "pitch": 67, "duration": 3, "velocity": 76}, {"time": 3284, "pitch": 55, "duration": 4, "velocity": 75}, {"time": 3290, "pitch": 63, "duration": 4, "velocity": 80}, {"time": 3296, "pitch": 46, "duration": 41, "velocity": 84}, {"time": 3296, "pitch": 60, "duration": 9, "velocity": 73}, {"time": 3296, "pitch": 65, "duration": 11, "velocity": 81}, {"time": 3302, "pitch": 53, "duration": 36, "velocity": 79}, {"time": 3308, "pitch": 58, "duration": 13, "velocity": 95}, {"time": 3314, "pitch": 63, "duration": 6, "velocity": 84}, {"time": 3320, "pitch": 62, "duration": 7, "velocity": 75}, {"time": 3320, "pitch": 65, "duration": 12, "velocity": 80}, {"time": 3332, "pitch": 58, "duration": 4, "velocity": 79}, {"time": 3332, "pitch": 62, "duration": 5, "velocity": 79}, {"time": 3332, "pitch": 70, "duration": 5, "velocity": 84}, {"time": 3344, "pitch": 48, "duration": 10, "velocity": 84}, {"time": 3344, "pitch": 63, "duration": 3, "velocity": 84}, {"time": 3344, "pitch": 67, "duration": 5, "velocity": 79}, {"time": 3350, "pitch": 55, "duration": 6, "velocity": 71}, {"time": 3356, "pitch": 60, "duration": 7, "velocity": 58}, {"time": 3356, "pitch": 67, "duration": 3, "velocity": 79}, {"time": 3356, "pitch": 75, "duration": 4, "velocity": 90}, {"time": 3362, "pitch": 62, "duration": 8, "velocity": 70}, {"time": 3362, "pitch": 65, "duration": 4, "velocity": 79}, {"time": 3362, "pitch": 74, "duration": 6, "velocity": 80}, {"time": 3368, "pitch": 63, "duration": 13, "velocity": 79}, {"time": 3368, "pitch": 67, "duration": 12, "velocity": 76}, {"time": 3368, "pitch": 72, "duration": 9, "velocity": 84}, {"time": 3380, "pitch": 62, "duration": 3, "velocity": 78}, {"time": 3392, "pitch": 51, "duration": 18, "velocity": 80}, {"time": 3392, "pitch": 67, "duration": 7, "velocity": 80}, {"time": 3392, "pitch": 75, "duration": 5, "velocity": 90}, {"time": 3398, "pitch": 58, "duration": 12, "velocity": 79}, {"time": 3398, "pitch": 70, "duration": 10, "velocity": 91}, {"time": 3404, "pitch": 63, "duration": 4, "velocity": 76}, {"time": 3410, "pitch": 65, "duration": 6, "velocity": 76}, {"time": 3416, "pitch": 48, "duration": 18, "velocity": 82}, {"time": 3416, "pitch": 58, "duration": 5, "velocity": 82}, {"time": 3416, "pitch": 63, "duration": 11, "velocity": 78}, {"time": 3416, "pitch": 67, "duration": 9, "velocity": 76}, {"time": 3422, "pitch": 55, "duration": 12, "velocity": 69}, {"time": 3428, "pitch": 60, "duration": 5, "velocity": 82}, {"time": 3434, "pitch": 63, "duration": 6, "velocity": 83}, {"time": 3440, "pitch": 41, "duration": 17, "velocity": 82}, {"time": 3440, "pitch": 60, "duration": 13, "velocity": 73}, {"time": 3440, "pitch": 65, "duration": 12, "velocity": 84}, {"time": 3446, "pitch": 48, "duration": 12, "velocity": 80}, {"time": 3452, "pitch": 53, "duration": 11, "velocity": 81}, {"time": 3458, "pitch": 60, "duration": 3, "velocity": 76}, {"time": 3464, "pitch": 48, "duration": 9, "velocity": 83}, {"time": 3464, "pitch": 56, "duration": 12, "velocity": 86}, {"time": 3464, "pitch": 60, "duration": 13, "velocity": 91}, {"time": 3464, "pitch": 63, "duration": 12, "velocity": 82}, {"time": 3476, "pitch": 48, "duration": 6, "velocity": 80}, {"time": 3482, "pitch": 56, "duration": 3, "velocity": 81}, {"time": 3488, "pitch": 39, "duration": 42, "velocity": 86}, {"time": 3488, "pitch": 55, "duration": 9, "velocity": 81}, {"time": 3488, "pitch": 58, "duration": 8, "velocity": 90}, {"time": 3488, "pitch": 63, "duration": 8, "velocity": 84}, {"time": 3494, "pitch": 51, "duration": 14, "velocity": 80}, {"time": 3500, "pitch": 58, "duration": 6, "velocity": 90}, {"time": 3506, "pitch": 60, "duration": 6, "velocity": 84}, {"time": 3512, "pitch": 51, "duration": 3, "velocity": 79}, {"time": 3512, "pitch": 55, "duration": 3, "velocity": 80}, {"time": 3512, "pitch": 58, "duration": 1, "velocity": 72}, {"time": 3512, "pitch": 63, "duration": 3, "velocity": 84}, {"time": 3518, "pitch": 51, "duration": 7, "velocity": 71}, {"time": 3524, "pitch": 58, "duration": 4, "velocity": 86}, {"time": 3524, "pitch": 65, "duration": 4, "velocity": 84}, {"time": 3530, "pitch": 51, "duration": 1, "velocity": 83}, {"time": 3530, "pitch": 63, "duration": 2, "velocity": 86}, {"time": 3530, "pitch": 67, "duration": 2, "velocity": 80}, {"time": 3536, "pitch": 48, "duration": 19, "velocity": 82}, {"time": 3536, "pitch": 55, "duration": 19, "velocity": 80}, {"time": 3536, "pitch": 60, "duration": 7, "velocity": 82}, {"time": 3536, "pitch": 63, "duration": 8, "velocity": 83}, {"time": 3536, "pitch": 67, "duration": 8, "velocity": 84}, {"time": 3548, "pitch": 60, "duration": 14, "velocity": 86}, {"time": 3548, "pitch": 63, "duration": 14, "velocity": 91}, {"time": 3548, "pitch": 67, "duration": 14, "velocity": 84}, {"time": 3548, "pitch": 70, "duration": 14, "velocity": 86}, {"time": 3557, "pitch": 48, "duration": 2, "velocity": 84}, {"time": 3560, "pitch": 48, "duration": 2, "velocity": 86}, {"time": 3566, "pitch": 48, "duration": 9, "velocity": 99}, {"time": 3572, "pitch": 60, "duration": 7, "velocity": 83}, {"time": 3572, "pitch": 63, "duration": 6, "velocity": 90}, {"time": 3572, "pitch": 67, "duration": 6, "velocity": 82}, {"time": 3578, "pitch": 48, "duration": 5, "velocity": 84}, {"time": 3584, "pitch": 43, "duration": 16, "velocity": 90}, {"time": 3584, "pitch": 58, "duration": 8, "velocity": 82}, {"time": 3584, "pitch": 62, "duration": 8, "velocity": 83}, {"time": 3584, "pitch": 65, "duration": 7, "velocity": 82}, {"time": 3584, "pitch": 70, "duration": 8, "velocity": 73}, {"time": 3587, "pitch": 55, "duration": 10, "velocity": 73}, {"time": 3596, "pitch": 58, "duration": 19, "velocity": 84}, {"time": 3596, "pitch": 62, "duration": 19, "velocity": 82}, {"time": 3596, "pitch": 65, "duration": 20, "velocity": 84}, {"time": 3596, "pitch": 70, "duration": 19, "velocity": 84}, {"time": 3602, "pitch": 43, "duration": 2, "velocity": 72}, {"time": 3608, "pitch": 50, "duration": 2, "velocity": 86}, {"time": 3614, "pitch": 50, "duration": 10, "velocity": 95}, {"time": 3620, "pitch": 58, "duration": 5, "velocity": 90}, {"time": 3620, "pitch": 62, "duration": 5, "velocity": 86}, {"time": 3620, "pitch": 65, "duration": 6, "velocity": 84}, {"time": 3620, "pitch": 70, "duration": 5, "velocity": 86}, {"time": 3626, "pitch": 43, "duration": 2, "velocity": 84}, {"time": 3626, "pitch": 55, "duration": 2, "velocity": 82}, {"time": 3632, "pitch": 48, "duration": 17, "velocity": 90}, {"time": 3632, "pitch": 60, "duration": 7, "velocity": 84}, {"time": 3632, "pitch": 63, "duration": 7, "velocity": 86}, {"time": 3632, "pitch": 67, "duration": 7, "velocity": 84}, {"time": 3632, "pitch": 70, "duration": 5, "velocity": 68}, {"time": 3638, "pitch": 55, "duration": 10, "velocity": 49}, {"time": 3644, "pitch": 60, "duration": 13, "velocity": 84}, {"time": 3644, "pitch": 63, "duration": 13, "velocity": 90}, {"time": 3644, "pitch": 67, "duration": 14, "velocity": 84}, {"time": 3653, "pitch": 43, "duration": 3, "velocity": 81}, {"time": 3656, "pitch": 48, "duration": 9, "velocity": 95}, {"time": 3662, "pitch": 60, "duration": 8, "velocity": 94}, {"time": 3662, "pitch": 63, "duration": 8, "velocity": 98}, {"time": 3662, "pitch": 67, "duration": 8, "velocity": 93}, {"time": 3668, "pitch": 48, "duration": 8, "velocity": 95}, {"time": 3674, "pitch": 60, "duration": 3, "velocity": 83}, {"time": 3680, "pitch": 43, "duration": 17, "velocity": 86}, {"time": 3680, "pitch": 55, "duration": 17, "velocity": 86}, {"time": 3680, "pitch": 58, "duration": 7, "velocity": 83}, {"time": 3680, "pitch": 62, "duration": 7, "velocity": 82}, {"time": 3680, "pitch": 65, "duration": 7, "velocity": 82}, {"time": 3680, "pitch": 70, "duration": 7, "velocity": 75}, {"time": 3692, "pitch": 58, "duration": 18, "velocity": 90}, {"time": 3692, "pitch": 62, "duration": 17, "velocity": 84}, {"time": 3692, "pitch": 65, "duration": 17, "velocity": 83}, {"time": 3692, "pitch": 70, "duration": 19, "velocity": 86}, {"time": 3701, "pitch": 43, "duration": 2, "velocity": 82}, {"time": 3701, "pitch": 55, "duration": 2, "velocity": 77}, {"time": 3704, "pitch": 50, "duration": 2, "velocity": 78}, {"time": 3710, "pitch": 50, "duration": 9, "velocity": 95}, {"time": 3716, "pitch": 58, "duration": 3, "velocity": 86}, {"time": 3716, "pitch": 62, "duration": 6, "velocity": 91}, {"time": 3716, "pitch": 65, "duration": 7, "velocity": 86}, {"time": 3716, "pitch": 70, "duration": 5, "velocity": 78}, {"time": 3722, "pitch": 43, "duration": 2, "velocity": 86}, {"time": 3722, "pitch": 55, "duration": 2, "velocity": 91}, {"time": 3728, "pitch": 48, "duration": 14, "velocity": 91}, {"time": 3728, "pitch": 60, "duration": 5, "velocity": 84}, {"time": 3728, "pitch": 63, "duration": 7, "velocity": 83}, {"time": 3728, "pitch": 67, "duration": 6, "velocity": 83}, {"time": 3734, "pitch": 55, "duration": 9, "velocity": 75}, {"time": 3737, "pitch": 60, "duration": 4, "velocity": 83}, {"time": 3740, "pitch": 62, "duration": 13, "velocity": 90}, {"time": 3740, "pitch": 63, "duration": 13, "velocity": 90}, {"time": 3740, "pitch": 67, "duration": 13, "velocity": 90}, {"time": 3740, "pitch": 70, "duration": 1, "velocity": 72}, {"time": 3746, "pitch": 48, "duration": 2, "velocity": 91}, {"time": 3752, "pitch": 48, "duration": 9, "velocity": 99}, {"time": 3758, "pitch": 60, "duration": 8, "velocity": 84}, {"time": 3758, "pitch": 63, "duration": 8, "velocity": 86}, {"time": 3758, "pitch": 67, "duration": 9, "velocity": 83}, {"time": 3758, "pitch": 70, "duration": 2, "velocity": 58}, {"time": 3764, "pitch": 48, "duration": 5, "velocity": 90}, {"time": 3770, "pitch": 60, "duration": 3, "velocity": 84}, {"time": 3770, "pitch": 70, "duration": 2, "velocity": 54}, {"time": 3776, "pitch": 39, "duration": 15, "velocity": 83}, {"time": 3776, "pitch": 51, "duration": 4, "velocity": 82}, {"time": 3776, "pitch": 55, "duration": 8, "velocity": 81}, {"time": 3776, "pitch": 58, "duration": 8, "velocity": 86}, {"time": 3776, "pitch": 63, "duration": 6, "velocity": 86}, {"time": 3782, "pitch": 51, "duration": 7, "velocity": 57}, {"time": 3788, "pitch": 55, "duration": 8, "velocity": 84}, {"time": 3788, "pitch": 58, "duration": 9, "velocity": 90}, {"time": 3788, "pitch": 63, "duration": 11, "velocity": 93}, {"time": 3794, "pitch": 38, "duration": 3, "velocity": 94}, {"time": 3794, "pitch": 50, "duration": 2, "velocity": 83}, {"time": 3800, "pitch": 36, "duration": 18, "velocity": 90}, {"time": 3800, "pitch": 48, "duration": 5, "velocity": 80}, {"time": 3800, "pitch": 55, "duration": 9, "velocity": 72}, {"time": 3800, "pitch": 60, "duration": 8, "velocity": 93}, {"time": 3800, "pitch": 63, "duration": 8, "velocity": 56}, {"time": 3809, "pitch": 48, "duration": 4, "velocity": 68}, {"time": 3812, "pitch": 55, "duration": 6, "velocity": 94}, {"time": 3812, "pitch": 60, "duration": 6, "velocity": 91}, {"time": 3812, "pitch": 63, "duration": 8, "velocity": 93}, {"time": 3818, "pitch": 48, "duration": 2, "velocity": 84}, {"time": 3824, "pitch": 41, "duration": 15, "velocity": 84}, {"time": 3824, "pitch": 53, "duration": 15, "velocity": 84}, {"time": 3824, "pitch": 56, "duration": 8, "velocity": 78}, {"time": 3824, "pitch": 60, "duration": 8, "velocity": 86}, {"time": 3824, "pitch": 63, "duration": 7, "velocity": 73}, {"time": 3836, "pitch": 56, "duration": 9, "velocity": 84}, {"time": 3836, "pitch": 60, "duration": 10, "velocity": 84}, {"time": 3836, "pitch": 63, "duration": 8, "velocity": 81}, {"time": 3842, "pitch": 41, "duration": 4, "velocity": 78}, {"time": 3842, "pitch": 53, "duration": 6, "velocity": 83}, {"time": 3848, "pitch": 44, "duration": 6, "velocity": 94}, {"time": 3848, "pitch": 56, "duration": 7, "velocity": 84}, {"time": 3848, "pitch": 60, "duration": 5, "velocity": 90}, {"time": 3848, "pitch": 63, "duration": 4, "velocity": 84}, {"time": 3860, "pitch": 34, "duration": 7, "velocity": 99}, {"time": 3860, "pitch": 46, "duration": 4, "velocity": 84}, {"time": 3860, "pitch": 53, "duration": 7, "velocity": 84}, {"time": 3860, "pitch": 58, "duration": 9, "velocity": 90}, {"time": 3860, "pitch": 62, "duration": 9, "velocity": 91}, {"time": 3866, "pitch": 46, "duration": 5, "velocity": 78}, {"time": 3872, "pitch": 36, "duration": 38, "velocity": 94}, {"time": 3872, "pitch": 55, "duration": 7, "velocity": 83}, {"time": 3872, "pitch": 60, "duration": 7, "velocity": 90}, {"time": 3872, "pitch": 63, "duration": 6, "velocity": 91}, {"time": 3878, "pitch": 48, "duration": 15, "velocity": 72}, {"time": 3884, "pitch": 55, "duration": 5, "velocity": 80}, {"time": 3884, "pitch": 63, "duration": 1, "velocity": 50}, {"time": 3890, "pitch": 60, "duration": 5, "velocity": 91}, {"time": 3893, "pitch": 62, "duration": 5, "velocity": 86}, {"time": 3896, "pitch": 48, "duration": 14, "velocity": 75}, {"time": 3896, "pitch": 55, "duration": 10, "velocity": 81}, {"time": 3896, "pitch": 63, "duration": 12, "velocity": 93}, {"time": 3920, "pitch": 51, "duration": 40, "velocity": 82}, {"time": 3920, "pitch": 67, "duration": 13, "velocity": 68}, {"time": 3920, "pitch": 70, "duration": 10, "velocity": 76}, {"time": 3920, "pitch": 75, "duration": 15, "velocity": 79}, {"time": 3926, "pitch": 58, "duration": 34, "velocity": 68}, {"time": 3932, "pitch": 63, "duration": 9, "velocity": 69}, {"time": 3938, "pitch": 70, "duration": 11, "velocity": 79}, {"time": 3944, "pitch": 65, "duration": 8, "velocity": 71}, {"time": 3950, "pitch": 63, "duration": 5, "velocity": 59}, {"time": 3956, "pitch": 70, "duration": 5, "velocity": 75}, {"time": 3962, "pitch": 72, "duration": 6, "velocity": 69}, {"time": 3965, "pitch": 74, "duration": 3, "velocity": 79}, {"time": 3968, "pitch": 48, "duration": 11, "velocity": 73}, {"time": 3968, "pitch": 67, "duration": 14, "velocity": 72}, {"time": 3968, "pitch": 75, "duration": 21, "velocity": 79}, {"time": 3974, "pitch": 55, "duration": 6, "velocity": 72}, {"time": 3980, "pitch": 60, "duration": 8, "velocity": 55}, {"time": 3986, "pitch": 62, "duration": 16, "velocity": 69}, {"time": 3986, "pitch": 67, "duration": 5, "velocity": 62}, {"time": 3986, "pitch": 74, "duration": 5, "velocity": 82}, {"time": 3992, "pitch": 67, "duration": 7, "velocity": 32}, {"time": 3992, "pitch": 72, "duration": 6, "velocity": 78}, {"time": 3998, "pitch": 63, "duration": 4, "velocity": 76}, {"time": 4004, "pitch": 70, "duration": 6, "velocity": 75}, {"time": 4010, "pitch": 72, "duration": 5, "velocity": 71}, {"time": 4016, "pitch": 51, "duration": 41, "velocity": 79}, {"time": 4016, "pitch": 67, "duration": 13, "velocity": 73}, {"time": 4016, "pitch": 70, "duration": 10, "velocity": 76}, {"time": 4016, "pitch": 75, "duration": 14, "velocity": 79}, {"time": 4022, "pitch": 58, "duration": 35, "velocity": 58}, {"time": 4028, "pitch": 63, "duration": 7, "velocity": 62}, {"time": 4034, "pitch": 65, "duration": 8, "velocity": 69}, {"time": 4034, "pitch": 70, "duration": 9, "velocity": 70}, {"time": 4040, "pitch": 63, "duration": 6, "velocity": 58}, {"time": 4046, "pitch": 67, "duration": 9, "velocity": 68}, {"time": 4046, "pitch": 75, "duration": 6, "velocity": 82}, {"time": 4052, "pitch": 74, "duration": 6, "velocity": 83}, {"time": 4058, "pitch": 70, "duration": 4, "velocity": 73}, {"time": 4064, "pitch": 46, "duration": 10, "velocity": 76}, {"time": 4064, "pitch": 65, "duration": 25, "velocity": 68}, {"time": 4064, "pitch": 72, "duration": 2, "velocity": 72}, {"time": 4064, "pitch": 74, "duration": 24, "velocity": 82}, {"time": 4070, "pitch": 53, "duration": 5, "velocity": 62}, {"time": 4076, "pitch": 58, "duration": 7, "velocity": 43}, {"time": 4082, "pitch": 60, "duration": 21, "velocity": 72}, {"time": 4088, "pitch": 62, "duration": 14, "velocity": 80}, {"time": 4094, "pitch": 65, "duration": 5, "velocity": 68}, {"time": 4100, "pitch": 70, "duration": 5, "velocity": 75}, {"time": 4106, "pitch": 72, "duration": 5, "velocity": 75}, {"time": 4112, "pitch": 48, "duration": 43, "velocity": 79}, {"time": 4112, "pitch": 63, "duration": 7, "velocity": 75}, {"time": 4112, "pitch": 67, "duration": 7, "velocity": 80}, {"time": 4112, "pitch": 72, "duration": 7, "velocity": 78}, {"time": 4118, "pitch": 60, "duration": 9, "velocity": 22}, {"time": 4124, "pitch": 63, "duration": 6, "velocity": 71}, {"time": 4124, "pitch": 67, "duration": 6, "velocity": 79}, {"time": 4124, "pitch": 72, "duration": 7, "velocity": 75}, {"time": 4130, "pitch": 60, "duration": 8, "velocity": 12}, {"time": 4136, "pitch": 63, "duration": 6, "velocity": 46}, {"time": 4136, "pitch": 67, "duration": 5, "velocity": 67}, {"time": 4136, "pitch": 72, "duration": 6, "velocity": 50}, {"time": 4142, "pitch": 60, "duration": 8, "velocity": 40}, {"time": 4148, "pitch": 63, "duration": 5, "velocity": 80}, {"time": 4148, "pitch": 67, "duration": 6, "velocity": 80}, {"time": 4148, "pitch": 72, "duration": 4, "velocity": 79}, {"time": 4154, "pitch": 60, "duration": 7, "velocity": 46}, {"time": 4160, "pitch": 51, "duration": 15, "velocity": 77}, {"time": 4160, "pitch": 67, "duration": 14, "velocity": 73}, {"time": 4160, "pitch": 70, "duration": 13, "velocity": 82}, {"time": 4160, "pitch": 75, "duration": 14, "velocity": 83}, {"time": 4166, "pitch": 58, "duration": 9, "velocity": 75}, {"time": 4172, "pitch": 63, "duration": 2, "velocity": 57}, {"time": 4178, "pitch": 74, "duration": 6, "velocity": 86}, {"time": 4184, "pitch": 48, "duration": 16, "velocity": 67}, {"time": 4184, "pitch": 67, "duration": 8, "velocity": 68}, {"time": 4184, "pitch": 75, "duration": 9, "velocity": 82}, {"time": 4190, "pitch": 55, "duration": 11, "velocity": 71}, {"time": 4196, "pitch": 60, "duration": 7, "velocity": 63}, {"time": 4196, "pitch": 67, "duration": 7, "velocity": 76}, {"time": 4196, "pitch": 74, "duration": 4, "velocity": 82}, {"time": 4202, "pitch": 70, "duration": 5, "velocity": 76}, {"time": 4208, "pitch": 41, "duration": 12, "velocity": 82}, {"time": 4208, "pitch": 60, "duration": 9, "velocity": 72}, {"time": 4208, "pitch": 65, "duration": 8, "velocity": 83}, {"time": 4208, "pitch": 68, "duration": 8, "velocity": 80}, {"time": 4214, "pitch": 53, "duration": 9, "velocity": 37}, {"time": 4220, "pitch": 60, "duration": 6, "velocity": 72}, {"time": 4226, "pitch": 65, "duration": 5, "velocity": 82}, {"time": 4232, "pitch": 46, "duration": 15, "velocity": 78}, {"time": 4232, "pitch": 62, "duration": 7, "velocity": 80}, {"time": 4232, "pitch": 65, "duration": 9, "velocity": 80}, {"time": 4232, "pitch": 70, "duration": 6, "velocity": 83}, {"time": 4238, "pitch": 53, "duration": 11, "velocity": 70}, {"time": 4244, "pitch": 60, "duration": 8, "velocity": 79}, {"time": 4244, "pitch": 63, "duration": 5, "velocity": 79}, {"time": 4244, "pitch": 68, "duration": 5, "velocity": 83}, {"time": 4256, "pitch": 51, "duration": 43, "velocity": 82}, {"time": 4256, "pitch": 67, "duration": 14, "velocity": 76}, {"time": 4256, "pitch": 75, "duration": 15, "velocity": 84}, {"time": 4262, "pitch": 58, "duration": 18, "velocity": 72}, {"time": 4268, "pitch": 63, "duration": 12, "velocity": 72}, {"time": 4274, "pitch": 65, "duration": 8, "velocity": 75}, {"time": 4280, "pitch": 67, "duration": 5, "velocity": 76}, {"time": 4286, "pitch": 70, "duration": 6, "velocity": 79}, {"time": 4292, "pitch": 58, "duration": 9, "velocity": 56}, {"time": 4292, "pitch": 75, "duration": 2, "velocity": 84}, {"time": 4298, "pitch": 77, "duration": 5, "velocity": 78}, {"time": 4304, "pitch": 51, "duration": 41, "velocity": 82}, {"time": 4304, "pitch": 67, "duration": 14, "velocity": 80}, {"time": 4304, "pitch": 70, "duration": 11, "velocity": 86}, {"time": 4304, "pitch": 75, "duration": 14, "velocity": 86}, {"time": 4310, "pitch": 58, "duration": 35, "velocity": 72}, {"time": 4316, "pitch": 63, "duration": 10, "velocity": 90}, {"time": 4322, "pitch": 67, "duration": 4, "velocity": 72}, {"time": 4325, "pitch": 70, "duration": 4, "velocity": 79}, {"time": 4328, "pitch": 72, "duration": 4, "velocity": 79}, {"time": 4331, "pitch": 74, "duration": 4, "velocity": 84}, {"time": 4334, "pitch": 75, "duration": 2, "velocity": 79}, {"time": 4337, "pitch": 77, "duration": 3, "velocity": 73}, {"time": 4340, "pitch": 75, "duration": 5, "velocity": 82}, {"time": 4343, "pitch": 74, "duration": 3, "velocity": 80}, {"time": 4346, "pitch": 72, "duration": 4, "velocity": 73}, {"time": 4352, "pitch": 48, "duration": 11, "velocity": 76}, {"time": 4352, "pitch": 67, "duration": 7, "velocity": 52}, {"time": 4352, "pitch": 74, "duration": 6, "velocity": 79}, {"time": 4358, "pitch": 55, "duration": 5, "velocity": 79}, {"time": 4364, "pitch": 60, "duration": 7, "velocity": 68}, {"time": 4370, "pitch": 62, "duration": 20, "velocity": 78}, {"time": 4370, "pitch": 67, "duration": 3, "velocity": 68}, {"time": 4370, "pitch": 75, "duration": 5, "velocity": 84}, {"time": 4376, "pitch": 63, "duration": 12, "velocity": 79}, {"time": 4376, "pitch": 67, "duration": 2, "velocity": 38}, {"time": 4376, "pitch": 72, "duration": 2, "velocity": 84}, {"time": 4382, "pitch": 65, "duration": 4, "velocity": 72}, {"time": 4382, "pitch": 79, "duration": 2, "velocity": 18}, {"time": 4382, "pitch": 87, "duration": 2, "velocity": 83}, {"time": 4388, "pitch": 77, "duration": 3, "velocity": 73}, {"time": 4388, "pitch": 86, "duration": 4, "velocity": 73}, {"time": 4394, "pitch": 82, "duration": 2, "velocity": 76}, {"time": 4400, "pitch": 51, "duration": 30, "velocity": 72}, {"time": 4400, "pitch": 75, "duration": 5, "velocity": 77}, {"time": 4400, "pitch": 79, "duration": 5, "velocity": 83}, {"time": 4406, "pitch": 58, "duration": 34, "velocity": 58}, {"time": 4409, "pitch": 63, "duration": 10, "velocity": 63}, {"time": 4415, "pitch": 67, "duration": 3, "velocity": 59}, {"time": 4418, "pitch": 70, "duration": 4, "velocity": 73}, {"time": 4421, "pitch": 72, "duration": 2, "velocity": 79}, {"time": 4424, "pitch": 63, "duration": 4, "velocity": 61}, {"time": 4424, "pitch": 67, "duration": 2, "velocity": 58}, {"time": 4424, "pitch": 68, "duration": 2, "velocity": 50}, {"time": 4424, "pitch": 75, "duration": 4, "velocity": 79}, {"time": 4430, "pitch": 65, "duration": 2, "velocity": 59}, {"time": 4430, "pitch": 67, "duration": 2, "velocity": 69}, {"time": 4430, "pitch": 74, "duration": 5, "velocity": 83}, {"time": 4436, "pitch": 65, "duration": 5, "velocity": 73}, {"time": 4436, "pitch": 74, "duration": 5, "velocity": 75}, {"time": 4442, "pitch": 70, "duration": 4, "velocity": 76}, {"time": 4448, "pitch": 46, "duration": 43, "velocity": 79}, {"time": 4448, "pitch": 65, "duration": 8, "velocity": 73}, {"time": 4448, "pitch": 70, "duration": 8, "velocity": 75}, {"time": 4448, "pitch": 74, "duration": 7, "velocity": 82}, {"time": 4454, "pitch": 53, "duration": 34, "velocity": 76}, {"time": 4460, "pitch": 58, "duration": 8, "velocity": 53}, {"time": 4466, "pitch": 62, "duration": 2, "velocity": 80}, {"time": 4466, "pitch": 74, "duration": 2, "velocity": 86}, {"time": 4472, "pitch": 58, "duration": 5, "velocity": 55}, {"time": 4472, "pitch": 63, "duration": 2, "velocity": 83}, {"time": 4472, "pitch": 75, "duration": 2, "velocity": 84}, {"time": 4478, "pitch": 65, "duration": 2, "velocity": 72}, {"time": 4478, "pitch": 77, "duration": 2, "velocity": 75}, {"time": 4484, "pitch": 58, "duration": 3, "velocity": 54}, {"time": 4484, "pitch": 67, "duration": 2, "velocity": 74}, {"time": 4484, "pitch": 79, "duration": 3, "velocity": 82}, {"time": 4490, "pitch": 70, "duration": 2, "velocity": 61}, {"time": 4490, "pitch": 82, "duration": 2, "velocity": 80}, {"time": 4496, "pitch": 39, "duration": 2, "velocity": 98}, {"time": 4496, "pitch": 70, "duration": 8, "velocity": 51}, {"time": 4496, "pitch": 82, "duration": 6, "velocity": 75}, {"time": 4505, "pitch": 51, "duration": 32, "velocity": 80}, {"time": 4508, "pitch": 58, "duration": 28, "velocity": 75}, {"time": 4511, "pitch": 63, "duration": 18, "velocity": 78}, {"time": 4514, "pitch": 65, "duration": 4, "velocity": 71}, {"time": 4517, "pitch": 67, "duration": 4, "velocity": 71}, {"time": 4520, "pitch": 70, "duration": 3, "velocity": 72}, {"time": 4523, "pitch": 75, "duration": 1, "velocity": 79}, {"time": 4526, "pitch": 77, "duration": 3, "velocity": 82}, {"time": 4529, "pitch": 79, "duration": 3, "velocity": 71}, {"time": 4532, "pitch": 82, "duration": 3, "velocity": 59}, {"time": 4538, "pitch": 87, "duration": 2, "velocity": 63}, {"time": 4544, "pitch": 94, "duration": 4, "velocity": 78}, {"time": 4547, "pitch": 99, "duration": 2, "velocity": 84}], "annotations": [{"time": 33, "annotation": {"number": 64, "value": 127}, "group": "control_change"}, {"time": 79, "annotation": {"number": 64, "value": 0}, "group": "control_change"}, {"time": 84, "annotation": {"number": 64, "value": 127}, "group": "control_change"}, {"time": 128, "annotation": {"number": 64, "value": 0}, "group": "control_change"}, {"time": 131, "annotation": {"number": 64, "value": 127}, "group": "control_change"}, {"time": 177, "annotation": {"number": 64, "value": 0}, "group": "control_change"}, {"time": 180, "annotation": {"number": 64, "value": 127}, "group": "control_change"}, {"time": 225, "annotation": {"number": 64, "value": 0}, "group": "control_change"}, {"time": 228, "annotation": {"number": 64, "value": 127}, "group": "control_change"}, {"time": 270, "annotation": {"number": 64, "value": 0}, "group": "control_change"}, {"time": 274, "annotation": {"number": 64, "value": 127}, "group": "control_change"}, {"time": 319, "annotation": {"number": 64, "value": 0}, "group": "control_change"}, {"time": 322, "annotation": {"number": 64, "value": 127}, "group": "control_change"}, {"time": 342, "annotation": {"number": 64, "value": 0}, "group": "control_change"}, {"time": 344, "annotation": {"number": 64, "value": 127}, "group": "control_change"}, {"time": 367, "annotation": {"number": 64, "value": 0}, "group": "control_change"}, {"time": 369, "annotation": {"number": 64, "value": 127}, "group": "control_change"}, {"time": 416, "annotation": {"number": 64, "value": 0}, "group": "control_change"}, {"time": 418, "annotation": {"number": 64, "value": 127}, "group": "control_change"}, {"time": 460, "annotation": {"number": 64, "value": 0}, "group": "control_change"}, {"time": 465, "annotation": {"number": 64, "value": 127}, "group": "control_change"}, {"time": 512, "annotation": {"number": 64, "value": 0}, "group": "control_change"}, {"time": 516, "annotation": {"number": 64, "value": 127}, "group": "control_change"}, {"time": 560, "annotation": {"number": 64, "value": 0}, "group": "control_change"}, {"time": 563, "annotation": {"number": 64, "value": 127}, "group": "control_change"}, {"time": 608, "annotation": {"number": 64, "value": 0}, "group": "control_change"}, {"time": 612, "annotation": {"number": 64, "value": 127}, "group": "control_change"}, {"time": 655, "annotation": {"number": 64, "value": 0}, "group": "control_change"}, {"time": 658, "annotation": {"number": 64, "value": 127}, "group": "control_change"}, {"time": 704, "annotation": {"number": 64, "value": 0}, "group": "control_change"}, {"time": 707, "annotation": {"number": 64, "value": 127}, "group": "control_change"}, {"time": 729, "annotation": {"number": 64, "value": 0}, "group": "control_change"}, {"time": 736, "annotation": {"number": 64, "value": 127}, "group": "control_change"}, {"time": 752, "annotation": {"number": 64, "value": 0}, "group": "control_change"}, {"time": 754, "annotation": {"number": 64, "value": 127}, "group": "control_change"}, {"time": 802, "annotation": {"number": 64, "value": 0}, "group": "control_change"}, {"time": 807, "annotation": {"number": 64, "value": 127}, "group": "control_change"}, {"time": 847, "annotation": {"number": 64, "value": 0}, "group": "control_change"}, {"time": 850, "annotation": {"number": 64, "value": 127}, "group": "control_change"}, {"time": 896, "annotation": {"number": 64, "value": 127}, "group": "control_change"}, {"time": 946, "annotation": {"number": 64, "value": 0}, "group": "control_change"}, {"time": 949, "annotation": {"number": 64, "value": 127}, "group": "control_change"}, {"time": 993, "annotation": {"number": 64, "value": 0}, "group": "control_change"}, {"time": 997, "annotation": {"number": 64, "value": 127}, "group": "control_change"}, {"time": 1042, "annotation": {"number": 64, "value": 0}, "group": "control_change"}, {"time": 1045, "annotation": {"number": 64, "value": 127}, "group": "control_change"}, {"time": 1088, "annotation": {"number": 64, "value": 0}, "group": "control_change"}, {"time": 1091, "annotation": {"number": 64, "value": 127}, "group": "control_change"}, {"time": 1112, "annotation": {"number": 64, "value": 0}, "group": "control_change"}, {"time": 1116, "annotation": {"number": 64, "value": 127}, "group": "control_change"}, {"time": 1137, "annotation": {"number": 64, "value": 0}, "group": "control_change"}, {"time": 1140, "annotation": {"number": 64, "value": 127}, "group": "control_change"}, {"time": 1160, "annotation": {"number": 64, "value": 0}, "group": "control_change"}, {"time": 1164, "annotation": {"number": 64, "value": 127}, "group": "control_change"}, {"time": 1185, "annotation": {"number": 64, "value": 0}, "group": "control_change"}, {"time": 1188, "annotation": {"number": 64, "value": 127}, "group": "control_change"}, {"time": 1230, "annotation": {"number": 64, "value": 0}, "group": "control_change"}, {"time": 1239, "annotation": {"number": 64, "value": 127}, "group": "control_change"}, {"time": 1278, "annotation": {"number": 64, "value": 0}, "group": "control_change"}, {"time": 1282, "annotation": {"number": 64, "value": 127}, "group": "control_change"}, {"time": 1330, "annotation": {"number": 64, "value": 0}, "group": "control_change"}, {"time": 1334, "annotation": {"number": 64, "value": 127}, "group": "control_change"}, {"time": 1336, "annotation": {"number": 64, "value": 0}, "group": "control_change"}, {"time": 1338, "annotation": {"number": 64, "value": 127}, "group": "control_change"}, {"time": 1376, "annotation": {"number": 64, "value": 0}, "group": "control_change"}, {"time": 1379, "annotation": {"number": 64, "value": 127}, "group": "control_change"}, {"time": 1424, "annotation": {"number": 64, "value": 0}, "group": "control_change"}, {"time": 1428, "annotation": {"number": 64, "value": 127}, "group": "control_change"}, {"time": 1472, "annotation": {"number": 64, "value": 0}, "group": "control_change"}, {"time": 1476, "annotation": {"number": 64, "value": 127}, "group": "control_change"}, {"time": 1496, "annotation": {"number": 64, "value": 0}, "group": "control_change"}, {"time": 1500, "annotation": {"number": 64, "value": 127}, "group": "control_change"}, {"time": 1519, "annotation": {"number": 64, "value": 0}, "group": "control_change"}, {"time": 1520, "annotation": {"number": 64, "value": 127}, "group": "control_change"}, {"time": 1542, "annotation": {"number": 64, "value": 0}, "group": "control_change"}, {"time": 1545, "annotation": {"number": 64, "value": 127}, "group": "control_change"}, {"time": 1556, "annotation": {"number": 64, "value": 0}, "group": "control_change"}, {"time": 1559, "annotation": {"number": 64, "value": 127}, "group": "control_change"}, {"time": 1568, "annotation": {"number": 64, "value": 0}, "group": "control_change"}, {"time": 1574, "annotation": {"number": 64, "value": 127}, "group": "control_change"}, {"time": 1616, "annotation": {"number": 64, "value": 0}, "group": "control_change"}, {"time": 1617, "annotation": {"number": 64, "value": 127}, "group": "control_change"}, {"time": 1664, "annotation": {"number": 64, "value": 0}, "group": "control_change"}, {"time": 1668, "annotation": {"number": 64, "value": 127}, "group": "control_change"}, {"time": 1712, "annotation": {"number": 64, "value": 0}, "group": "control_change"}, {"time": 1715, "annotation": {"number": 64, "value": 127}, "group": "control_change"}, {"time": 1760, "annotation": {"number": 64, "value": 0}, "group": "control_change"}, {"time": 1764, "annotation": {"number": 64, "value": 127}, "group": "control_change"}, {"time": 1807, "annotation": {"number": 64, "value": 0}, "group": "control_change"}, {"time": 1810, "annotation": {"number": 64, "value": 127}, "group": "control_change"}, {"time": 1856, "annotation": {"number": 64, "value": 0}, "group": "control_change"}, {"time": 1859, "annotation": {"number": 64, "value": 127}, "group": "control_change"}, {"time": 1881, "annotation": {"number": 64, "value": 0}, "group": "control_change"}, {"time": 1888, "annotation": {"number": 64, "value": 127}, "group": "control_change"}, {"time": 1904, "annotation": {"number": 64, "value": 0}, "group": "control_change"}, {"time": 1906, "annotation": {"number": 64, "value": 127}, "group": "control_change"}, {"time": 1952, "annotation": {"number": 64, "value": 0}, "group": "control_change"}, {"time": 1952, "annotation": {"number": 64, "value": 127}, "group": "control_change"}, {"time": 1999, "annotation": {"number": 64, "value": 0}, "group": "control_change"}, {"time": 2001, "annotation": {"number": 64, "value": 127}, "group": "control_change"}, {"time": 2047, "annotation": {"number": 64, "value": 0}, "group": "control_change"}, {"time": 2052, "annotation": {"number": 64, "value": 127}, "group": "control_change"}, {"time": 2096, "annotation": {"number": 64, "value": 0}, "group": "control_change"}, {"time": 2099, "annotation": {"number": 64, "value": 127}, "group": "control_change"}, {"time": 2145, "annotation": {"number": 64, "value": 0}, "group": "control_change"}, {"time": 2148, "annotation": {"number": 64, "value": 127}, "group": "control_change"}, {"time": 2193, "annotation": {"number": 64, "value": 0}, "group": "control_change"}, {"time": 2196, "annotation": {"number": 64, "value": 127}, "group": "control_change"}, {"time": 2238, "annotation": {"number": 64, "value": 0}, "group": "control_change"}, {"time": 2242, "annotation": {"number": 64, "value": 127}, "group": "control_change"}, {"time": 2287, "annotation": {"number": 64, "value": 0}, "group": "control_change"}, {"time": 2290, "annotation": {"number": 64, "value": 127}, "group": "control_change"}, {"time": 2310, "annotation": {"number": 64, "value": 0}, "group": "control_change"}, {"time": 2312, "annotation": {"number": 64, "value": 127}, "group": "control_change"}, {"time": 2335, "annotation": {"number": 64, "value": 0}, "group": "control_change"}, {"time": 2337, "annotation": {"number": 64, "value": 127}, "group": "control_change"}, {"time": 2384, "annotation": {"number": 64, "value": 0}, "group": "control_change"}, {"time": 2385, "annotation": {"number": 64, "value": 127}, "group": "control_change"}, {"time": 2432, "annotation": {"number": 64, "value": 0}, "group": "control_change"}, {"time": 2436, "annotation": {"number": 64, "value": 127}, "group": "control_change"}, {"time": 2480, "annotation": {"number": 64, "value": 0}, "group": "control_change"}, {"time": 2483, "annotation": {"number": 64, "value": 127}, "group": "control_change"}, {"time": 2528, "annotation": {"number": 64, "value": 0}, "group": "control_change"}, {"time": 2532, "annotation": {"number": 64, "value": 127}, "group": "control_change"}, {"time": 2575, "annotation": {"number": 64, "value": 0}, "group": "control_change"}, {"time": 2578, "annotation": {"number": 64, "value": 127}, "group": "control_change"}, {"time": 2624, "annotation": {"number": 64, "value": 0}, "group": "control_change"}, {"time": 2627, "annotation": {"number": 64, "value": 127}, "group": "control_change"}, {"time": 2649, "annotation": {"number": 64, "value": 0}, "group": "control_change"}, {"time": 2656, "annotation": {"number": 64, "value": 127}, "group": "control_change"}, {"time": 2672, "annotation": {"number": 64, "value": 0}, "group": "control_change"}, {"time": 2674, "annotation": {"number": 64, "value": 127}, "group": "control_change"}, {"time": 2720, "annotation": {"number": 64, "value": 127}, "group": "control_change"}, {"time": 2721, "annotation": {"number": 64, "value": 0}, "group": "control_change"}, {"time": 2721, "annotation": {"number": 64, "value": 127}, "group": "control_change"}, {"time": 2722, "annotation": {"number": 64, "value": 0}, "group": "control_change"}, {"time": 2727, "annotation": {"number": 64, "value": 127}, "group": "control_change"}, {"time": 2767, "annotation": {"number": 64, "value": 0}, "group": "control_change"}, {"time": 2768, "annotation": {"number": 64, "value": 127}, "group": "control_change"}, {"time": 2815, "annotation": {"number": 64, "value": 0}, "group": "control_change"}, {"time": 2819, "annotation": {"number": 64, "value": 127}, "group": "control_change"}, {"time": 2819, "annotation": {"number": 64, "value": 0}, "group": "control_change"}, {"time": 2820, "annotation": {"number": 64, "value": 127}, "group": "control_change"}, {"time": 2864, "annotation": {"number": 64, "value": 0}, "group": "control_change"}, {"time": 2865, "annotation": {"number": 64, "value": 127}, "group": "control_change"}, {"time": 2869, "annotation": {"number": 64, "value": 127}, "group": "control_change"}, {"time": 2875, "annotation": {"number": 64, "value": 0}, "group": "control_change"}, {"time": 2912, "annotation": {"number": 64, "value": 0}, "group": "control_change"}, {"time": 2917, "annotation": {"number": 64, "value": 127}, "group": "control_change"}, {"time": 2958, "annotation": {"number": 64, "value": 0}, "group": "control_change"}, {"time": 2962, "annotation": {"number": 64, "value": 0}, "group": "control_change"}, {"time": 2965, "annotation": {"number": 64, "value": 127}, "group": "control_change"}, {"time": 3008, "annotation": {"number": 64, "value": 0}, "group": "control_change"}, {"time": 3011, "annotation": {"number": 64, "value": 127}, "group": "control_change"}, {"time": 3032, "annotation": {"number": 64, "value": 0}, "group": "control_change"}, {"time": 3036, "annotation": {"number": 64, "value": 127}, "group": "control_change"}, {"time": 3056, "annotation": {"number": 64, "value": 127}, "group": "control_change"}, {"time": 3057, "annotation": {"number": 64, "value": 0}, "group": "control_change"}, {"time": 3060, "annotation": {"number": 64, "value": 127}, "group": "control_change"}, {"time": 3078, "annotation": {"number": 64, "value": 0}, "group": "control_change"}, {"time": 3080, "annotation": {"number": 64, "value": 0}, "group": "control_change"}, {"time": 3082, "annotation": {"number": 64, "value": 127}, "group": "control_change"}, {"time": 3084, "annotation": {"number": 64, "value": 127}, "group": "control_change"}, {"time": 3091, "annotation": {"number": 64, "value": 0}, "group": "control_change"}, {"time": 3094, "annotation": {"number": 64, "value": 127}, "group": "control_change"}, {"time": 3104, "annotation": {"number": 64, "value": 0}, "group": "control_change"}, {"time": 3105, "annotation": {"number": 64, "value": 0}, "group": "control_change"}, {"time": 3108, "annotation": {"number": 64, "value": 127}, "group": "control_change"}, {"time": 3150, "annotation": {"number": 64, "value": 0}, "group": "control_change"}, {"time": 3153, "annotation": {"number": 64, "value": 127}, "group": "control_change"}, {"time": 3154, "annotation": {"number": 64, "value": 0}, "group": "control_change"}, {"time": 3154, "annotation": {"number": 64, "value": 127}, "group": "control_change"}, {"time": 3201, "annotation": {"number": 64, "value": 0}, "group": "control_change"}, {"time": 3206, "annotation": {"number": 64, "value": 127}, "group": "control_change"}, {"time": 3246, "annotation": {"number": 64, "value": 0}, "group": "control_change"}, {"time": 3250, "annotation": {"number": 64, "value": 127}, "group": "control_change"}, {"time": 3296, "annotation": {"number": 64, "value": 0}, "group": "control_change"}, {"time": 3301, "annotation": {"number": 64, "value": 127}, "group": "control_change"}, {"time": 3343, "annotation": {"number": 64, "value": 0}, "group": "control_change"}, {"time": 3347, "annotation": {"number": 64, "value": 127}, "group": "control_change"}, {"time": 3392, "annotation": {"number": 64, "value": 0}, "group": "control_change"}, {"time": 3397, "annotation": {"number": 64, "value": 127}, "group": "control_change"}, {"time": 3416, "annotation": {"number": 64, "value": 0}, "group": "control_change"}, {"time": 3421, "annotation": {"number": 64, "value": 127}, "group": "control_change"}, {"time": 3440, "annotation": {"number": 64, "value": 0}, "group": "control_change"}, {"time": 3446, "annotation": {"number": 64, "value": 127}, "group": "control_change"}, {"time": 3464, "annotation": {"number": 64, "value": 0}, "group": "control_change"}, {"time": 3466, "annotation": {"number": 64, "value": 127}, "group": "control_change"}, {"time": 3468, "annotation": {"number": 64, "value": 127}, "group": "control_change"}, {"time": 3477, "annotation": {"number": 64, "value": 0}, "group": "control_change"}, {"time": 3481, "annotation": {"number": 64, "value": 127}, "group": "control_change"}, {"time": 3487, "annotation": {"number": 64, "value": 0}, "group": "control_change"}, {"time": 3488, "annotation": {"number": 64, "value": 0}, "group": "control_change"}, {"time": 3494, "annotation": {"number": 64, "value": 127}, "group": "control_change"}, {"time": 3532, "annotation": {"number": 64, "value": 0}, "group": "control_change"}, {"time": 3536, "annotation": {"number": 64, "value": 127}, "group": "control_change"}, {"time": 3584, "annotation": {"number": 64, "value": 0}, "group": "control_change"}, {"time": 3588, "annotation": {"number": 64, "value": 127}, "group": "control_change"}, {"time": 3632, "annotation": {"number": 64, "value": 0}, "group": "control_change"}, {"time": 3633, "annotation": {"number": 64, "value": 127}, "group": "control_change"}, {"time": 3636, "annotation": {"number": 64, "value": 127}, "group": "control_change"}, {"time": 3645, "annotation": {"number": 64, "value": 0}, "group": "control_change"}, {"time": 3660, "annotation": {"number": 64, "value": 0}, "group": "control_change"}, {"time": 3667, "annotation": {"number": 64, "value": 127}, "group": "control_change"}, {"time": 3667, "annotation": {"number": 64, "value": 0}, "group": "control_change"}, {"time": 3680, "annotation": {"number": 64, "value": 0}, "group": "control_change"}, {"time": 3685, "annotation": {"number": 64, "value": 127}, "group": "control_change"}, {"time": 3728, "annotation": {"number": 64, "value": 0}, "group": "control_change"}, {"time": 3732, "annotation": {"number": 64, "value": 127}, "group": "control_change"}, {"time": 3776, "annotation": {"number": 64, "value": 0}, "group": "control_change"}, {"time": 3777, "annotation": {"number": 64, "value": 127}, "group": "control_change"}, {"time": 3777, "annotation": {"number": 64, "value": 0}, "group": "control_change"}, {"time": 3781, "annotation": {"number": 64, "value": 127}, "group": "control_change"}, {"time": 3788, "annotation": {"number": 64, "value": 0}, "group": "control_change"}, {"time": 3794, "annotation": {"number": 64, "value": 0}, "group": "control_change"}, {"time": 3802, "annotation": {"number": 64, "value": 127}, "group": "control_change"}, {"time": 3824, "annotation": {"number": 64, "value": 0}, "group": "control_change"}, {"time": 3829, "annotation": {"number": 64, "value": 127}, "group": "control_change"}, {"time": 3847, "annotation": {"number": 64, "value": 0}, "group": "control_change"}, {"time": 3851, "annotation": {"number": 64, "value": 127}, "group": "control_change"}, {"time": 3860, "annotation": {"number": 64, "value": 0}, "group": "control_change"}, {"time": 3864, "annotation": {"number": 64, "value": 127}, "group": "control_change"}, {"time": 3872, "annotation": {"number": 64, "value": 0}, "group": "control_change"}, {"time": 3878, "annotation": {"number": 64, "value": 127}, "group": "control_change"}, {"time": 3878, "annotation": {"number": 64, "value": 0}, "group": "control_change"}, {"time": 3918, "annotation": {"number": 64, "value": 0}, "group": "control_change"}, {"time": 3925, "annotation": {"number": 64, "value": 127}, "group": "control_change"}, {"time": 3967, "annotation": {"number": 64, "value": 0}, "group": "control_change"}, {"time": 3970, "annotation": {"number": 64, "value": 127}, "group": "control_change"}, {"time": 4016, "annotation": {"number": 64, "value": 127}, "group": "control_change"}, {"time": 4066, "annotation": {"number": 64, "value": 0}, "group": "control_change"}, {"time": 4070, "annotation": {"number": 64, "value": 127}, "group": "control_change"}, {"time": 4110, "annotation": {"number": 64, "value": 127}, "group": "control_change"}, {"time": 4112, "annotation": {"number": 64, "value": 0}, "group": "control_change"}, {"time": 4159, "annotation": {"number": 64, "value": 0}, "group": "control_change"}, {"time": 4164, "annotation": {"number": 64, "value": 127}, "group": "control_change"}, {"time": 4186, "annotation": {"number": 64, "value": 0}, "group": "control_change"}, {"time": 4191, "annotation": {"number": 64, "value": 127}, "group": "control_change"}, {"time": 4208, "annotation": {"number": 64, "value": 0}, "group": "control_change"}, {"time": 4209, "annotation": {"number": 64, "value": 127}, "group": "control_change"}, {"time": 4232, "annotation": {"number": 64, "value": 0}, "group": "control_change"}, {"time": 4238, "annotation": {"number": 64, "value": 127}, "group": "control_change"}, {"time": 4255, "annotation": {"number": 64, "value": 127}, "group": "control_change"}, {"time": 4304, "annotation": {"number": 64, "value": 0}, "group": "control_change"}, {"time": 4308, "annotation": {"number": 64, "value": 127}, "group": "control_change"}, {"time": 4350, "annotation": {"number": 64, "value": 0}, "group": "control_change"}, {"time": 4354, "annotation": {"number": 64, "value": 127}, "group": "control_change"}, {"time": 4401, "annotation": {"number": 64, "value": 0}, "group": "control_change"}, {"time": 4404, "annotation": {"number": 64, "value": 127}, "group": "control_change"}, {"time": 4435, "annotation": {"number": 64, "value": 0}, "group": "control_change"}, {"time": 4437, "annotation": {"number": 64, "value": 127}, "group": "control_change"}, {"time": 4446, "annotation": {"number": 64, "value": 0}, "group": "control_change"}, {"time": 4450, "annotation": {"number": 64, "value": 127}, "group": "control_change"}, {"time": 4550, "annotation": {"number": 64, "value": 0}, "group": "control_change"}]}]}