{"metadata": {"schema_version": "0.2", "title": "None", "source_filename": "263.mid", "source_format": "midi"}, "resolution": 12, "tempos": [{"time": 0, "qpm": 90.00009000009}], "time_signatures": [{"time": 0, "numerator": 4, "denominator": 4}], "tracks": [{"program": 0, "is_drum": false, "name": "MELODY", "notes": [{"time": 441, "pitch": 72, "duration": 6, "velocity": 50}, {"time": 447, "pitch": 72, "duration": 6, "velocity": 71}, {"time": 453, "pitch": 74, "duration": 6, "velocity": 63}, {"time": 459, "pitch": 75, "duration": 6, "velocity": 63}, {"time": 465, "pitch": 75, "duration": 6, "velocity": 66}, {"time": 471, "pitch": 75, "duration": 6, "velocity": 66}, {"time": 477, "pitch": 72, "duration": 7, "velocity": 64}, {"time": 483, "pitch": 79, "duration": 12, "velocity": 65}, {"time": 495, "pitch": 77, "duration": 6, "velocity": 67}, {"time": 501, "pitch": 75, "duration": 12, "velocity": 67}, {"time": 513, "pitch": 77, "duration": 24, "velocity": 79}, {"time": 537, "pitch": 70, "duration": 6, "velocity": 64}, {"time": 543, "pitch": 70, "duration": 6, "velocity": 66}, {"time": 549, "pitch": 72, "duration": 6, "velocity": 65}, {"time": 555, "pitch": 74, "duration": 6, "velocity": 75}, {"time": 561, "pitch": 74, "duration": 6, "velocity": 62}, {"time": 567, "pitch": 74, "duration": 6, "velocity": 65}, {"time": 573, "pitch": 70, "duration": 7, "velocity": 61}, {"time": 579, "pitch": 80, "duration": 12, "velocity": 68}, {"time": 591, "pitch": 79, "duration": 6, "velocity": 69}, {"time": 597, "pitch": 77, "duration": 12, "velocity": 64}, {"time": 609, "pitch": 79, "duration": 24, "velocity": 77}, {"time": 633, "pitch": 77, "duration": 6, "velocity": 64}, {"time": 639, "pitch": 77, "duration": 6, "velocity": 58}, {"time": 645, "pitch": 79, "duration": 6, "velocity": 66}, {"time": 651, "pitch": 80, "duration": 6, "velocity": 67}, {"time": 657, "pitch": 80, "duration": 6, "velocity": 66}, {"time": 663, "pitch": 80, "duration": 6, "velocity": 71}, {"time": 669, "pitch": 77, "duration": 6, "velocity": 65}, {"time": 675, "pitch": 79, "duration": 12, "velocity": 66}, {"time": 687, "pitch": 77, "duration": 6, "velocity": 66}, {"time": 693, "pitch": 77, "duration": 12, "velocity": 63}, {"time": 705, "pitch": 75, "duration": 30, "velocity": 65}, {"time": 735, "pitch": 72, "duration": 6, "velocity": 86}, {"time": 741, "pitch": 72, "duration": 6, "velocity": 71}, {"time": 747, "pitch": 72, "duration": 12, "velocity": 80}, {"time": 759, "pitch": 70, "duration": 6, "velocity": 65}, {"time": 765, "pitch": 72, "duration": 54, "velocity": 81}, {"time": 825, "pitch": 72, "duration": 6, "velocity": 87}, {"time": 831, "pitch": 72, "duration": 6, "velocity": 74}, {"time": 837, "pitch": 74, "duration": 6, "velocity": 82}, {"time": 843, "pitch": 75, "duration": 6, "velocity": 80}, {"time": 849, "pitch": 75, "duration": 6, "velocity": 79}, {"time": 855, "pitch": 75, "duration": 6, "velocity": 79}, {"time": 861, "pitch": 72, "duration": 6, "velocity": 66}, {"time": 867, "pitch": 79, "duration": 12, "velocity": 72}, {"time": 879, "pitch": 77, "duration": 6, "velocity": 68}, {"time": 885, "pitch": 75, "duration": 12, "velocity": 72}, {"time": 897, "pitch": 77, "duration": 24, "velocity": 84}, {"time": 921, "pitch": 70, "duration": 6, "velocity": 61}, {"time": 927, "pitch": 70, "duration": 6, "velocity": 66}, {"time": 933, "pitch": 72, "duration": 6, "velocity": 65}, {"time": 939, "pitch": 74, "duration": 6, "velocity": 75}, {"time": 945, "pitch": 74, "duration": 6, "velocity": 68}, {"time": 951, "pitch": 74, "duration": 6, "velocity": 67}, {"time": 957, "pitch": 70, "duration": 6, "velocity": 77}, {"time": 963, "pitch": 80, "duration": 12, "velocity": 80}, {"time": 975, "pitch": 79, "duration": 6, "velocity": 86}, {"time": 981, "pitch": 77, "duration": 12, "velocity": 86}, {"time": 993, "pitch": 79, "duration": 18, "velocity": 91}, {"time": 1017, "pitch": 77, "duration": 6, "velocity": 63}, {"time": 1023, "pitch": 77, "duration": 6, "velocity": 61}, {"time": 1029, "pitch": 79, "duration": 7, "velocity": 66}, {"time": 1035, "pitch": 80, "duration": 6, "velocity": 64}, {"time": 1041, "pitch": 80, "duration": 6, "velocity": 60}, {"time": 1047, "pitch": 80, "duration": 6, "velocity": 73}, {"time": 1053, "pitch": 77, "duration": 6, "velocity": 63}, {"time": 1059, "pitch": 79, "duration": 12, "velocity": 66}, {"time": 1071, "pitch": 77, "duration": 6, "velocity": 73}, {"time": 1077, "pitch": 77, "duration": 12, "velocity": 64}, {"time": 1089, "pitch": 75, "duration": 18, "velocity": 65}, {"time": 1119, "pitch": 72, "duration": 6, "velocity": 74}, {"time": 1125, "pitch": 72, "duration": 6, "velocity": 82}, {"time": 1131, "pitch": 72, "duration": 12, "velocity": 84}, {"time": 1143, "pitch": 70, "duration": 6, "velocity": 76}, {"time": 1149, "pitch": 72, "duration": 42, "velocity": 80}, {"time": 1209, "pitch": 84, "duration": 6, "velocity": 90}, {"time": 1215, "pitch": 84, "duration": 6, "velocity": 68}, {"time": 1221, "pitch": 82, "duration": 6, "velocity": 64}, {"time": 1227, "pitch": 82, "duration": 6, "velocity": 64}, {"time": 1233, "pitch": 82, "duration": 6, "velocity": 64}, {"time": 1239, "pitch": 82, "duration": 6, "velocity": 89}, {"time": 1245, "pitch": 79, "duration": 6, "velocity": 66}, {"time": 1251, "pitch": 77, "duration": 6, "velocity": 61}, {"time": 1257, "pitch": 79, "duration": 12, "velocity": 73}, {"time": 1269, "pitch": 77, "duration": 30, "velocity": 57}, {"time": 1299, "pitch": 84, "duration": 9, "velocity": 98}, {"time": 1308, "pitch": 82, "duration": 9, "velocity": 91}, {"time": 1317, "pitch": 79, "duration": 6, "velocity": 77}, {"time": 1323, "pitch": 77, "duration": 9, "velocity": 72}, {"time": 1332, "pitch": 82, "duration": 9, "velocity": 89}, {"time": 1341, "pitch": 79, "duration": 42, "velocity": 87}, {"time": 1383, "pitch": 79, "duration": 7, "velocity": 97}, {"time": 1389, "pitch": 77, "duration": 12, "velocity": 90}, {"time": 1401, "pitch": 75, "duration": 18, "velocity": 90}, {"time": 1419, "pitch": 75, "duration": 12, "velocity": 91}, {"time": 1431, "pitch": 72, "duration": 6, "velocity": 66}, {"time": 1437, "pitch": 77, "duration": 48, "velocity": 90}, {"time": 1485, "pitch": 72, "duration": 6, "velocity": 73}, {"time": 1491, "pitch": 75, "duration": 12, "velocity": 90}, {"time": 1503, "pitch": 75, "duration": 6, "velocity": 76}, {"time": 1509, "pitch": 75, "duration": 12, "velocity": 76}, {"time": 1521, "pitch": 79, "duration": 12, "velocity": 93}, {"time": 1533, "pitch": 79, "duration": 54, "velocity": 92}, {"time": 1593, "pitch": 84, "duration": 6, "velocity": 92}, {"time": 1599, "pitch": 84, "duration": 6, "velocity": 90}, {"time": 1605, "pitch": 82, "duration": 6, "velocity": 89}, {"time": 1611, "pitch": 82, "duration": 6, "velocity": 79}, {"time": 1617, "pitch": 82, "duration": 6, "velocity": 79}, {"time": 1623, "pitch": 82, "duration": 6, "velocity": 84}, {"time": 1629, "pitch": 79, "duration": 6, "velocity": 65}, {"time": 1635, "pitch": 77, "duration": 6, "velocity": 76}, {"time": 1641, "pitch": 79, "duration": 12, "velocity": 83}, {"time": 1653, "pitch": 77, "duration": 30, "velocity": 77}, {"time": 1683, "pitch": 84, "duration": 6, "velocity": 100}, {"time": 1689, "pitch": 82, "duration": 12, "velocity": 93}, {"time": 1701, "pitch": 79, "duration": 6, "velocity": 66}, {"time": 1707, "pitch": 82, "duration": 9, "velocity": 68}, {"time": 1716, "pitch": 84, "duration": 9, "velocity": 84}, {"time": 1725, "pitch": 79, "duration": 42, "velocity": 91}, {"time": 1767, "pitch": 79, "duration": 6, "velocity": 96}, {"time": 1773, "pitch": 77, "duration": 12, "velocity": 90}, {"time": 1785, "pitch": 75, "duration": 18, "velocity": 90}, {"time": 1803, "pitch": 75, "duration": 12, "velocity": 101}, {"time": 1815, "pitch": 72, "duration": 6, "velocity": 81}, {"time": 1821, "pitch": 77, "duration": 48, "velocity": 100}, {"time": 1869, "pitch": 75, "duration": 6, "velocity": 91}, {"time": 1875, "pitch": 77, "duration": 12, "velocity": 91}, {"time": 1887, "pitch": 75, "duration": 6, "velocity": 97}, {"time": 1893, "pitch": 77, "duration": 12, "velocity": 90}, {"time": 1905, "pitch": 75, "duration": 12, "velocity": 97}, {"time": 1917, "pitch": 72, "duration": 54, "velocity": 87}, {"time": 2361, "pitch": 72, "duration": 6, "velocity": 50}, {"time": 2367, "pitch": 72, "duration": 6, "velocity": 71}, {"time": 2373, "pitch": 74, "duration": 6, "velocity": 63}, {"time": 2379, "pitch": 75, "duration": 6, "velocity": 63}, {"time": 2385, "pitch": 75, "duration": 6, "velocity": 66}, {"time": 2391, "pitch": 75, "duration": 6, "velocity": 66}, {"time": 2397, "pitch": 72, "duration": 7, "velocity": 64}, {"time": 2403, "pitch": 79, "duration": 12, "velocity": 65}, {"time": 2415, "pitch": 77, "duration": 6, "velocity": 67}, {"time": 2421, "pitch": 75, "duration": 12, "velocity": 67}, {"time": 2433, "pitch": 77, "duration": 24, "velocity": 79}, {"time": 2457, "pitch": 70, "duration": 6, "velocity": 64}, {"time": 2463, "pitch": 70, "duration": 6, "velocity": 66}, {"time": 2469, "pitch": 72, "duration": 6, "velocity": 65}, {"time": 2475, "pitch": 74, "duration": 6, "velocity": 75}, {"time": 2481, "pitch": 74, "duration": 6, "velocity": 62}, {"time": 2487, "pitch": 74, "duration": 6, "velocity": 65}, {"time": 2493, "pitch": 70, "duration": 6, "velocity": 61}, {"time": 2499, "pitch": 80, "duration": 12, "velocity": 68}, {"time": 2511, "pitch": 79, "duration": 6, "velocity": 69}, {"time": 2517, "pitch": 77, "duration": 12, "velocity": 64}, {"time": 2529, "pitch": 79, "duration": 24, "velocity": 77}, {"time": 2553, "pitch": 77, "duration": 6, "velocity": 64}, {"time": 2559, "pitch": 77, "duration": 6, "velocity": 58}, {"time": 2565, "pitch": 79, "duration": 6, "velocity": 66}, {"time": 2571, "pitch": 80, "duration": 6, "velocity": 67}, {"time": 2577, "pitch": 80, "duration": 6, "velocity": 66}, {"time": 2583, "pitch": 80, "duration": 6, "velocity": 71}, {"time": 2589, "pitch": 77, "duration": 6, "velocity": 65}, {"time": 2595, "pitch": 79, "duration": 12, "velocity": 66}, {"time": 2607, "pitch": 77, "duration": 6, "velocity": 66}, {"time": 2613, "pitch": 77, "duration": 12, "velocity": 63}, {"time": 2625, "pitch": 75, "duration": 30, "velocity": 65}, {"time": 2655, "pitch": 72, "duration": 6, "velocity": 86}, {"time": 2661, "pitch": 72, "duration": 6, "velocity": 71}, {"time": 2667, "pitch": 72, "duration": 12, "velocity": 80}, {"time": 2679, "pitch": 70, "duration": 6, "velocity": 65}, {"time": 2685, "pitch": 72, "duration": 54, "velocity": 81}, {"time": 2745, "pitch": 72, "duration": 6, "velocity": 87}, {"time": 2751, "pitch": 72, "duration": 6, "velocity": 74}, {"time": 2757, "pitch": 74, "duration": 6, "velocity": 82}, {"time": 2763, "pitch": 75, "duration": 6, "velocity": 80}, {"time": 2769, "pitch": 75, "duration": 6, "velocity": 79}, {"time": 2775, "pitch": 75, "duration": 6, "velocity": 79}, {"time": 2781, "pitch": 72, "duration": 6, "velocity": 66}, {"time": 2787, "pitch": 79, "duration": 12, "velocity": 72}, {"time": 2799, "pitch": 77, "duration": 6, "velocity": 68}, {"time": 2805, "pitch": 75, "duration": 12, "velocity": 72}, {"time": 2817, "pitch": 77, "duration": 24, "velocity": 84}, {"time": 2841, "pitch": 70, "duration": 6, "velocity": 61}, {"time": 2847, "pitch": 70, "duration": 6, "velocity": 66}, {"time": 2853, "pitch": 72, "duration": 6, "velocity": 65}, {"time": 2859, "pitch": 74, "duration": 6, "velocity": 75}, {"time": 2865, "pitch": 74, "duration": 6, "velocity": 68}, {"time": 2871, "pitch": 74, "duration": 6, "velocity": 67}, {"time": 2877, "pitch": 70, "duration": 6, "velocity": 77}, {"time": 2883, "pitch": 80, "duration": 12, "velocity": 80}, {"time": 2895, "pitch": 79, "duration": 6, "velocity": 86}, {"time": 2901, "pitch": 77, "duration": 12, "velocity": 86}, {"time": 2913, "pitch": 79, "duration": 18, "velocity": 91}, {"time": 2937, "pitch": 77, "duration": 6, "velocity": 63}, {"time": 2943, "pitch": 77, "duration": 6, "velocity": 61}, {"time": 2949, "pitch": 79, "duration": 7, "velocity": 66}, {"time": 2955, "pitch": 80, "duration": 6, "velocity": 64}, {"time": 2961, "pitch": 80, "duration": 6, "velocity": 60}, {"time": 2967, "pitch": 80, "duration": 6, "velocity": 73}, {"time": 2973, "pitch": 77, "duration": 6, "velocity": 63}, {"time": 2979, "pitch": 79, "duration": 12, "velocity": 66}, {"time": 2991, "pitch": 77, "duration": 6, "velocity": 73}, {"time": 2997, "pitch": 77, "duration": 12, "velocity": 64}, {"time": 3009, "pitch": 75, "duration": 18, "velocity": 65}, {"time": 3039, "pitch": 72, "duration": 6, "velocity": 74}, {"time": 3045, "pitch": 72, "duration": 6, "velocity": 82}, {"time": 3051, "pitch": 72, "duration": 12, "velocity": 84}, {"time": 3063, "pitch": 70, "duration": 6, "velocity": 76}, {"time": 3069, "pitch": 72, "duration": 42, "velocity": 80}, {"time": 3129, "pitch": 84, "duration": 6, "velocity": 90}, {"time": 3135, "pitch": 84, "duration": 6, "velocity": 68}, {"time": 3141, "pitch": 82, "duration": 6, "velocity": 64}, {"time": 3147, "pitch": 82, "duration": 6, "velocity": 64}, {"time": 3153, "pitch": 82, "duration": 6, "velocity": 64}, {"time": 3159, "pitch": 82, "duration": 6, "velocity": 89}, {"time": 3165, "pitch": 79, "duration": 6, "velocity": 66}, {"time": 3171, "pitch": 77, "duration": 6, "velocity": 61}, {"time": 3177, "pitch": 79, "duration": 12, "velocity": 73}, {"time": 3189, "pitch": 77, "duration": 30, "velocity": 57}, {"time": 3219, "pitch": 84, "duration": 8, "velocity": 98}, {"time": 3228, "pitch": 82, "duration": 9, "velocity": 91}, {"time": 3237, "pitch": 79, "duration": 6, "velocity": 77}, {"time": 3243, "pitch": 77, "duration": 9, "velocity": 72}, {"time": 3252, "pitch": 82, "duration": 9, "velocity": 89}, {"time": 3261, "pitch": 79, "duration": 42, "velocity": 87}, {"time": 3303, "pitch": 79, "duration": 7, "velocity": 97}, {"time": 3309, "pitch": 77, "duration": 12, "velocity": 90}, {"time": 3321, "pitch": 75, "duration": 18, "velocity": 90}, {"time": 3339, "pitch": 75, "duration": 12, "velocity": 91}, {"time": 3351, "pitch": 72, "duration": 6, "velocity": 66}, {"time": 3357, "pitch": 77, "duration": 48, "velocity": 90}, {"time": 3405, "pitch": 72, "duration": 6, "velocity": 73}, {"time": 3411, "pitch": 75, "duration": 12, "velocity": 90}, {"time": 3423, "pitch": 75, "duration": 6, "velocity": 76}, {"time": 3429, "pitch": 75, "duration": 12, "velocity": 76}, {"time": 3441, "pitch": 79, "duration": 12, "velocity": 93}, {"time": 3453, "pitch": 79, "duration": 54, "velocity": 92}, {"time": 3513, "pitch": 84, "duration": 6, "velocity": 92}, {"time": 3519, "pitch": 84, "duration": 6, "velocity": 90}, {"time": 3525, "pitch": 82, "duration": 6, "velocity": 89}, {"time": 3531, "pitch": 82, "duration": 6, "velocity": 79}, {"time": 3537, "pitch": 82, "duration": 6, "velocity": 79}, {"time": 3543, "pitch": 82, "duration": 6, "velocity": 84}, {"time": 3549, "pitch": 79, "duration": 6, "velocity": 65}, {"time": 3555, "pitch": 77, "duration": 6, "velocity": 76}, {"time": 3561, "pitch": 79, "duration": 12, "velocity": 83}, {"time": 3573, "pitch": 77, "duration": 30, "velocity": 77}, {"time": 3603, "pitch": 84, "duration": 6, "velocity": 100}, {"time": 3609, "pitch": 82, "duration": 12, "velocity": 93}, {"time": 3621, "pitch": 79, "duration": 6, "velocity": 66}, {"time": 3627, "pitch": 82, "duration": 9, "velocity": 68}, {"time": 3636, "pitch": 84, "duration": 9, "velocity": 84}, {"time": 3645, "pitch": 79, "duration": 42, "velocity": 91}, {"time": 3687, "pitch": 79, "duration": 6, "velocity": 96}, {"time": 3693, "pitch": 77, "duration": 12, "velocity": 90}, {"time": 3705, "pitch": 75, "duration": 18, "velocity": 90}, {"time": 3723, "pitch": 75, "duration": 12, "velocity": 101}, {"time": 3735, "pitch": 72, "duration": 6, "velocity": 81}, {"time": 3741, "pitch": 77, "duration": 48, "velocity": 100}, {"time": 3789, "pitch": 75, "duration": 6, "velocity": 91}, {"time": 3795, "pitch": 77, "duration": 12, "velocity": 91}, {"time": 3807, "pitch": 75, "duration": 6, "velocity": 97}, {"time": 3813, "pitch": 77, "duration": 12, "velocity": 90}, {"time": 3825, "pitch": 75, "duration": 12, "velocity": 97}, {"time": 3837, "pitch": 72, "duration": 54, "velocity": 87}, {"time": 3897, "pitch": 84, "duration": 6, "velocity": 92}, {"time": 3903, "pitch": 84, "duration": 6, "velocity": 90}, {"time": 3909, "pitch": 82, "duration": 6, "velocity": 89}, {"time": 3915, "pitch": 82, "duration": 6, "velocity": 79}, {"time": 3921, "pitch": 82, "duration": 6, "velocity": 79}, {"time": 3927, "pitch": 82, "duration": 6, "velocity": 84}, {"time": 3933, "pitch": 79, "duration": 6, "velocity": 65}, {"time": 3939, "pitch": 77, "duration": 6, "velocity": 76}, {"time": 3945, "pitch": 79, "duration": 12, "velocity": 83}, {"time": 3957, "pitch": 77, "duration": 30, "velocity": 77}, {"time": 3987, "pitch": 84, "duration": 6, "velocity": 100}, {"time": 3993, "pitch": 82, "duration": 12, "velocity": 93}, {"time": 4005, "pitch": 79, "duration": 6, "velocity": 66}, {"time": 4011, "pitch": 82, "duration": 9, "velocity": 68}, {"time": 4020, "pitch": 84, "duration": 9, "velocity": 84}, {"time": 4029, "pitch": 79, "duration": 42, "velocity": 91}, {"time": 4071, "pitch": 79, "duration": 6, "velocity": 96}, {"time": 4077, "pitch": 77, "duration": 12, "velocity": 90}, {"time": 4089, "pitch": 75, "duration": 18, "velocity": 90}, {"time": 4107, "pitch": 75, "duration": 12, "velocity": 101}, {"time": 4119, "pitch": 72, "duration": 6, "velocity": 81}, {"time": 4125, "pitch": 77, "duration": 48, "velocity": 100}, {"time": 4173, "pitch": 72, "duration": 6, "velocity": 91}, {"time": 4179, "pitch": 75, "duration": 12, "velocity": 91}, {"time": 4191, "pitch": 75, "duration": 6, "velocity": 97}, {"time": 4197, "pitch": 75, "duration": 12, "velocity": 90}, {"time": 4209, "pitch": 79, "duration": 12, "velocity": 97}, {"time": 4221, "pitch": 79, "duration": 54, "velocity": 87}, {"time": 4281, "pitch": 84, "duration": 6, "velocity": 92}, {"time": 4287, "pitch": 84, "duration": 6, "velocity": 90}, {"time": 4293, "pitch": 82, "duration": 6, "velocity": 89}, {"time": 4299, "pitch": 82, "duration": 6, "velocity": 79}, {"time": 4305, "pitch": 82, "duration": 6, "velocity": 79}, {"time": 4311, "pitch": 82, "duration": 6, "velocity": 84}, {"time": 4317, "pitch": 79, "duration": 6, "velocity": 65}, {"time": 4323, "pitch": 77, "duration": 6, "velocity": 76}, {"time": 4329, "pitch": 79, "duration": 12, "velocity": 83}, {"time": 4341, "pitch": 77, "duration": 30, "velocity": 77}, {"time": 4371, "pitch": 84, "duration": 6, "velocity": 100}, {"time": 4377, "pitch": 82, "duration": 12, "velocity": 93}, {"time": 4389, "pitch": 79, "duration": 6, "velocity": 66}, {"time": 4395, "pitch": 82, "duration": 9, "velocity": 68}, {"time": 4404, "pitch": 84, "duration": 9, "velocity": 84}, {"time": 4413, "pitch": 79, "duration": 42, "velocity": 91}, {"time": 4455, "pitch": 79, "duration": 6, "velocity": 96}, {"time": 4461, "pitch": 77, "duration": 12, "velocity": 90}, {"time": 4473, "pitch": 75, "duration": 18, "velocity": 90}, {"time": 4491, "pitch": 75, "duration": 12, "velocity": 101}, {"time": 4503, "pitch": 72, "duration": 6, "velocity": 81}, {"time": 4509, "pitch": 77, "duration": 48, "velocity": 100}, {"time": 4557, "pitch": 75, "duration": 6, "velocity": 91}, {"time": 4563, "pitch": 77, "duration": 12, "velocity": 91}, {"time": 4575, "pitch": 75, "duration": 6, "velocity": 97}, {"time": 4581, "pitch": 77, "duration": 12, "velocity": 90}, {"time": 4593, "pitch": 75, "duration": 12, "velocity": 97}, {"time": 4605, "pitch": 72, "duration": 54, "velocity": 87}], "annotations": [{"time": 884, "annotation": {"number": 1, "value": 2}, "group": "control_change"}, {"time": 885, "annotation": {"number": 1, "value": 3}, "group": "control_change"}, {"time": 886, "annotation": {"number": 1, "value": 2}, "group": "control_change"}, {"time": 887, "annotation": {"number": 1, "value": 3}, "group": "control_change"}, {"time": 888, "annotation": {"number": 1, "value": 2}, "group": "control_change"}, {"time": 907, "annotation": {"number": 1, "value": 3}, "group": "control_change"}, {"time": 909, "annotation": {"number": 1, "value": 2}, "group": "control_change"}, {"time": 1414, "annotation": {"number": 1, "value": 2}, "group": "control_change"}, {"time": 2804, "annotation": {"number": 1, "value": 2}, "group": "control_change"}, {"time": 2805, "annotation": {"number": 1, "value": 3}, "group": "control_change"}, {"time": 2806, "annotation": {"number": 1, "value": 2}, "group": "control_change"}, {"time": 2806, "annotation": {"number": 1, "value": 3}, "group": "control_change"}, {"time": 2808, "annotation": {"number": 1, "value": 2}, "group": "control_change"}, {"time": 2827, "annotation": {"number": 1, "value": 3}, "group": "control_change"}, {"time": 2829, "annotation": {"number": 1, "value": 2}, "group": "control_change"}, {"time": 3334, "annotation": {"number": 1, "value": 2}, "group": "control_change"}]}, {"program": 0, "is_drum": false, "name": "BRIDGE", "notes": [{"time": 1971, "pitch": 79, "duration": 36, "velocity": 95}, {"time": 1971, "pitch": 91, "duration": 36, "velocity": 95}, {"time": 2007, "pitch": 72, "duration": 12, "velocity": 95}, {"time": 2007, "pitch": 84, "duration": 12, "velocity": 95}, {"time": 2019, "pitch": 82, "duration": 24, "velocity": 98}, {"time": 2019, "pitch": 94, "duration": 24, "velocity": 98}, {"time": 2043, "pitch": 77, "duration": 24, "velocity": 93}, {"time": 2043, "pitch": 89, "duration": 24, "velocity": 93}, {"time": 2067, "pitch": 75, "duration": 24, "velocity": 104}, {"time": 2067, "pitch": 87, "duration": 24, "velocity": 104}, {"time": 2091, "pitch": 77, "duration": 12, "velocity": 101}, {"time": 2091, "pitch": 89, "duration": 12, "velocity": 101}, {"time": 2103, "pitch": 79, "duration": 12, "velocity": 94}, {"time": 2103, "pitch": 91, "duration": 12, "velocity": 94}, {"time": 2115, "pitch": 74, "duration": 48, "velocity": 94}, {"time": 2115, "pitch": 86, "duration": 48, "velocity": 94}, {"time": 2163, "pitch": 79, "duration": 36, "velocity": 98}, {"time": 2163, "pitch": 91, "duration": 36, "velocity": 98}, {"time": 2199, "pitch": 72, "duration": 12, "velocity": 90}, {"time": 2199, "pitch": 84, "duration": 12, "velocity": 90}, {"time": 2211, "pitch": 82, "duration": 24, "velocity": 93}, {"time": 2211, "pitch": 94, "duration": 24, "velocity": 93}, {"time": 2235, "pitch": 77, "duration": 24, "velocity": 90}, {"time": 2235, "pitch": 89, "duration": 24, "velocity": 90}, {"time": 2259, "pitch": 75, "duration": 24, "velocity": 104}, {"time": 2259, "pitch": 87, "duration": 24, "velocity": 104}, {"time": 2283, "pitch": 77, "duration": 12, "velocity": 98}, {"time": 2283, "pitch": 89, "duration": 12, "velocity": 98}, {"time": 2295, "pitch": 79, "duration": 12, "velocity": 95}, {"time": 2295, "pitch": 91, "duration": 12, "velocity": 95}, {"time": 2307, "pitch": 74, "duration": 48, "velocity": 93}, {"time": 2307, "pitch": 86, "duration": 48, "velocity": 93}, {"time": 4629, "pitch": 67, "duration": 6, "velocity": 98}, {"time": 4629, "pitch": 79, "duration": 6, "velocity": 98}, {"time": 4635, "pitch": 65, "duration": 6, "velocity": 95}, {"time": 4635, "pitch": 77, "duration": 6, "velocity": 95}, {"time": 4641, "pitch": 63, "duration": 6, "velocity": 100}, {"time": 4641, "pitch": 75, "duration": 6, "velocity": 100}, {"time": 4647, "pitch": 67, "duration": 6, "velocity": 91}, {"time": 4647, "pitch": 79, "duration": 6, "velocity": 91}, {"time": 4653, "pitch": 70, "duration": 6, "velocity": 94}, {"time": 4653, "pitch": 82, "duration": 6, "velocity": 94}, {"time": 4659, "pitch": 72, "duration": 48, "velocity": 98}, {"time": 4659, "pitch": 84, "duration": 48, "velocity": 98}, {"time": 4707, "pitch": 70, "duration": 24, "velocity": 95}, {"time": 4707, "pitch": 82, "duration": 24, "velocity": 95}, {"time": 4731, "pitch": 67, "duration": 18, "velocity": 95}, {"time": 4731, "pitch": 79, "duration": 18, "velocity": 95}, {"time": 4749, "pitch": 65, "duration": 6, "velocity": 95}, {"time": 4749, "pitch": 77, "duration": 6, "velocity": 95}, {"time": 4755, "pitch": 67, "duration": 18, "velocity": 95}, {"time": 4755, "pitch": 79, "duration": 18, "velocity": 95}, {"time": 4773, "pitch": 70, "duration": 6, "velocity": 95}, {"time": 4773, "pitch": 82, "duration": 6, "velocity": 95}, {"time": 4779, "pitch": 72, "duration": 12, "velocity": 95}, {"time": 4779, "pitch": 84, "duration": 12, "velocity": 95}, {"time": 4791, "pitch": 70, "duration": 12, "velocity": 95}, {"time": 4791, "pitch": 82, "duration": 12, "velocity": 95}, {"time": 4803, "pitch": 67, "duration": 30, "velocity": 95}, {"time": 4803, "pitch": 79, "duration": 30, "velocity": 95}, {"time": 4833, "pitch": 65, "duration": 6, "velocity": 100}, {"time": 4833, "pitch": 77, "duration": 6, "velocity": 100}, {"time": 4839, "pitch": 67, "duration": 6, "velocity": 91}, {"time": 4839, "pitch": 79, "duration": 6, "velocity": 91}, {"time": 4845, "pitch": 70, "duration": 6, "velocity": 94}, {"time": 4845, "pitch": 82, "duration": 6, "velocity": 94}, {"time": 4851, "pitch": 72, "duration": 36, "velocity": 98}, {"time": 4851, "pitch": 84, "duration": 36, "velocity": 98}, {"time": 4887, "pitch": 70, "duration": 12, "velocity": 95}, {"time": 4887, "pitch": 82, "duration": 12, "velocity": 95}, {"time": 4899, "pitch": 67, "duration": 36, "velocity": 98}, {"time": 4899, "pitch": 79, "duration": 36, "velocity": 98}, {"time": 4935, "pitch": 63, "duration": 12, "velocity": 95}, {"time": 4935, "pitch": 75, "duration": 12, "velocity": 95}, {"time": 4947, "pitch": 65, "duration": 18, "velocity": 101}, {"time": 4947, "pitch": 77, "duration": 18, "velocity": 101}, {"time": 4965, "pitch": 67, "duration": 6, "velocity": 82}, {"time": 4965, "pitch": 79, "duration": 6, "velocity": 82}, {"time": 4971, "pitch": 70, "duration": 12, "velocity": 95}, {"time": 4971, "pitch": 82, "duration": 12, "velocity": 95}, {"time": 4983, "pitch": 67, "duration": 12, "velocity": 101}, {"time": 4983, "pitch": 79, "duration": 12, "velocity": 101}, {"time": 4995, "pitch": 72, "duration": 96, "velocity": 99}, {"time": 4995, "pitch": 84, "duration": 96, "velocity": 99}]}, {"program": 0, "is_drum": false, "name": "PIANO", "notes": [{"time": 51, "pitch": 48, "duration": 11, "velocity": 82}, {"time": 57, "pitch": 55, "duration": 6, "velocity": 78}, {"time": 63, "pitch": 60, "duration": 7, "velocity": 76}, {"time": 69, "pitch": 62, "duration": 20, "velocity": 79}, {"time": 69, "pitch": 67, "duration": 14, "velocity": 79}, {"time": 75, "pitch": 75, "duration": 9, "velocity": 98}, {"time": 81, "pitch": 63, "duration": 13, "velocity": 80}, {"time": 87, "pitch": 74, "duration": 6, "velocity": 90}, {"time": 93, "pitch": 67, "duration": 21, "velocity": 83}, {"time": 99, "pitch": 46, "duration": 11, "velocity": 86}, {"time": 105, "pitch": 55, "duration": 5, "velocity": 60}, {"time": 111, "pitch": 58, "duration": 7, "velocity": 71}, {"time": 117, "pitch": 60, "duration": 13, "velocity": 68}, {"time": 117, "pitch": 67, "duration": 14, "velocity": 70}, {"time": 123, "pitch": 75, "duration": 11, "velocity": 93}, {"time": 129, "pitch": 63, "duration": 7, "velocity": 71}, {"time": 135, "pitch": 60, "duration": 7, "velocity": 41}, {"time": 135, "pitch": 74, "duration": 5, "velocity": 83}, {"time": 141, "pitch": 58, "duration": 1, "velocity": 68}, {"time": 141, "pitch": 67, "duration": 19, "velocity": 84}, {"time": 147, "pitch": 44, "duration": 11, "velocity": 83}, {"time": 153, "pitch": 55, "duration": 6, "velocity": 79}, {"time": 159, "pitch": 56, "duration": 7, "velocity": 75}, {"time": 165, "pitch": 58, "duration": 14, "velocity": 72}, {"time": 165, "pitch": 67, "duration": 14, "velocity": 76}, {"time": 171, "pitch": 75, "duration": 9, "velocity": 90}, {"time": 177, "pitch": 60, "duration": 12, "velocity": 71}, {"time": 183, "pitch": 74, "duration": 6, "velocity": 84}, {"time": 189, "pitch": 67, "duration": 17, "velocity": 82}, {"time": 195, "pitch": 43, "duration": 6, "velocity": 93}, {"time": 201, "pitch": 55, "duration": 7, "velocity": 82}, {"time": 207, "pitch": 60, "duration": 30, "velocity": 83}, {"time": 213, "pitch": 62, "duration": 23, "velocity": 84}, {"time": 219, "pitch": 67, "duration": 9, "velocity": 78}, {"time": 225, "pitch": 72, "duration": 6, "velocity": 79}, {"time": 231, "pitch": 74, "duration": 6, "velocity": 79}, {"time": 237, "pitch": 75, "duration": 6, "velocity": 79}, {"time": 243, "pitch": 48, "duration": 11, "velocity": 86}, {"time": 249, "pitch": 55, "duration": 6, "velocity": 82}, {"time": 255, "pitch": 60, "duration": 8, "velocity": 79}, {"time": 261, "pitch": 62, "duration": 12, "velocity": 74}, {"time": 261, "pitch": 67, "duration": 14, "velocity": 76}, {"time": 267, "pitch": 75, "duration": 8, "velocity": 90}, {"time": 273, "pitch": 63, "duration": 6, "velocity": 68}, {"time": 279, "pitch": 62, "duration": 5, "velocity": 76}, {"time": 279, "pitch": 74, "duration": 5, "velocity": 84}, {"time": 285, "pitch": 60, "duration": 3, "velocity": 75}, {"time": 285, "pitch": 67, "duration": 16, "velocity": 74}, {"time": 291, "pitch": 46, "duration": 14, "velocity": 79}, {"time": 297, "pitch": 55, "duration": 8, "velocity": 75}, {"time": 303, "pitch": 58, "duration": 6, "velocity": 51}, {"time": 303, "pitch": 67, "duration": 9, "velocity": 67}, {"time": 309, "pitch": 55, "duration": 7, "velocity": 78}, {"time": 315, "pitch": 60, "duration": 6, "velocity": 56}, {"time": 315, "pitch": 67, "duration": 7, "velocity": 80}, {"time": 315, "pitch": 75, "duration": 7, "velocity": 84}, {"time": 321, "pitch": 55, "duration": 6, "velocity": 78}, {"time": 327, "pitch": 62, "duration": 4, "velocity": 69}, {"time": 327, "pitch": 67, "duration": 2, "velocity": 57}, {"time": 327, "pitch": 74, "duration": 6, "velocity": 80}, {"time": 333, "pitch": 55, "duration": 2, "velocity": 82}, {"time": 333, "pitch": 67, "duration": 21, "velocity": 79}, {"time": 339, "pitch": 44, "duration": 9, "velocity": 83}, {"time": 345, "pitch": 55, "duration": 7, "velocity": 79}, {"time": 351, "pitch": 56, "duration": 6, "velocity": 75}, {"time": 357, "pitch": 55, "duration": 6, "velocity": 79}, {"time": 357, "pitch": 67, "duration": 14, "velocity": 74}, {"time": 363, "pitch": 60, "duration": 6, "velocity": 58}, {"time": 363, "pitch": 75, "duration": 9, "velocity": 86}, {"time": 369, "pitch": 55, "duration": 6, "velocity": 76}, {"time": 375, "pitch": 62, "duration": 5, "velocity": 68}, {"time": 375, "pitch": 74, "duration": 5, "velocity": 76}, {"time": 381, "pitch": 55, "duration": 1, "velocity": 52}, {"time": 381, "pitch": 67, "duration": 7, "velocity": 78}, {"time": 387, "pitch": 43, "duration": 40, "velocity": 83}, {"time": 393, "pitch": 55, "duration": 15, "velocity": 80}, {"time": 399, "pitch": 59, "duration": 5, "velocity": 63}, {"time": 405, "pitch": 60, "duration": 7, "velocity": 80}, {"time": 411, "pitch": 55, "duration": 7, "velocity": 30}, {"time": 411, "pitch": 62, "duration": 2, "velocity": 84}, {"time": 417, "pitch": 67, "duration": 7, "velocity": 80}, {"time": 423, "pitch": 71, "duration": 4, "velocity": 63}, {"time": 429, "pitch": 74, "duration": 5, "velocity": 82}, {"time": 435, "pitch": 48, "duration": 41, "velocity": 78}, {"time": 435, "pitch": 63, "duration": 13, "velocity": 70}, {"time": 435, "pitch": 72, "duration": 12, "velocity": 80}, {"time": 441, "pitch": 55, "duration": 36, "velocity": 77}, {"time": 447, "pitch": 60, "duration": 24, "velocity": 78}, {"time": 453, "pitch": 62, "duration": 7, "velocity": 78}, {"time": 459, "pitch": 63, "duration": 11, "velocity": 84}, {"time": 471, "pitch": 67, "duration": 7, "velocity": 82}, {"time": 477, "pitch": 60, "duration": 6, "velocity": 57}, {"time": 483, "pitch": 53, "duration": 42, "velocity": 82}, {"time": 483, "pitch": 68, "duration": 12, "velocity": 80}, {"time": 489, "pitch": 60, "duration": 29, "velocity": 63}, {"time": 495, "pitch": 65, "duration": 13, "velocity": 73}, {"time": 501, "pitch": 68, "duration": 14, "velocity": 68}, {"time": 507, "pitch": 75, "duration": 10, "velocity": 84}, {"time": 513, "pitch": 65, "duration": 6, "velocity": 47}, {"time": 519, "pitch": 72, "duration": 11, "velocity": 81}, {"time": 531, "pitch": 46, "duration": 11, "velocity": 78}, {"time": 531, "pitch": 65, "duration": 25, "velocity": 72}, {"time": 531, "pitch": 74, "duration": 25, "velocity": 83}, {"time": 537, "pitch": 53, "duration": 5, "velocity": 61}, {"time": 543, "pitch": 58, "duration": 7, "velocity": 51}, {"time": 549, "pitch": 60, "duration": 21, "velocity": 56}, {"time": 555, "pitch": 62, "duration": 13, "velocity": 82}, {"time": 561, "pitch": 65, "duration": 4, "velocity": 69}, {"time": 567, "pitch": 70, "duration": 6, "velocity": 82}, {"time": 573, "pitch": 75, "duration": 10, "velocity": 86}, {"time": 579, "pitch": 51, "duration": 39, "velocity": 79}, {"time": 579, "pitch": 70, "duration": 13, "velocity": 78}, {"time": 585, "pitch": 58, "duration": 38, "velocity": 72}, {"time": 591, "pitch": 63, "duration": 9, "velocity": 71}, {"time": 597, "pitch": 65, "duration": 11, "velocity": 77}, {"time": 609, "pitch": 67, "duration": 7, "velocity": 83}, {"time": 615, "pitch": 63, "duration": 7, "velocity": 72}, {"time": 621, "pitch": 70, "duration": 5, "velocity": 78}, {"time": 627, "pitch": 53, "duration": 38, "velocity": 76}, {"time": 627, "pitch": 68, "duration": 14, "velocity": 73}, {"time": 627, "pitch": 72, "duration": 11, "velocity": 78}, {"time": 633, "pitch": 60, "duration": 26, "velocity": 68}, {"time": 639, "pitch": 65, "duration": 22, "velocity": 78}, {"time": 645, "pitch": 67, "duration": 6, "velocity": 72}, {"time": 651, "pitch": 68, "duration": 2, "velocity": 80}, {"time": 657, "pitch": 72, "duration": 4, "velocity": 72}, {"time": 663, "pitch": 60, "duration": 1, "velocity": 55}, {"time": 663, "pitch": 75, "duration": 5, "velocity": 79}, {"time": 669, "pitch": 77, "duration": 6, "velocity": 79}, {"time": 675, "pitch": 48, "duration": 39, "velocity": 82}, {"time": 675, "pitch": 79, "duration": 6, "velocity": 79}, {"time": 681, "pitch": 55, "duration": 33, "velocity": 80}, {"time": 687, "pitch": 60, "duration": 25, "velocity": 68}, {"time": 693, "pitch": 62, "duration": 5, "velocity": 68}, {"time": 699, "pitch": 63, "duration": 1, "velocity": 77}, {"time": 705, "pitch": 67, "duration": 4, "velocity": 71}, {"time": 711, "pitch": 74, "duration": 5, "velocity": 72}, {"time": 717, "pitch": 75, "duration": 5, "velocity": 79}, {"time": 723, "pitch": 44, "duration": 5, "velocity": 77}, {"time": 723, "pitch": 68, "duration": 14, "velocity": 79}, {"time": 723, "pitch": 72, "duration": 16, "velocity": 72}, {"time": 729, "pitch": 56, "duration": 7, "velocity": 73}, {"time": 735, "pitch": 60, "duration": 2, "velocity": 73}, {"time": 741, "pitch": 65, "duration": 5, "velocity": 69}, {"time": 747, "pitch": 46, "duration": 11, "velocity": 78}, {"time": 747, "pitch": 65, "duration": 13, "velocity": 34}, {"time": 747, "pitch": 70, "duration": 13, "velocity": 78}, {"time": 753, "pitch": 53, "duration": 6, "velocity": 79}, {"time": 759, "pitch": 58, "duration": 7, "velocity": 62}, {"time": 765, "pitch": 60, "duration": 3, "velocity": 76}, {"time": 771, "pitch": 48, "duration": 11, "velocity": 80}, {"time": 771, "pitch": 67, "duration": 7, "velocity": 75}, {"time": 771, "pitch": 75, "duration": 10, "velocity": 83}, {"time": 777, "pitch": 55, "duration": 6, "velocity": 78}, {"time": 783, "pitch": 60, "duration": 7, "velocity": 62}, {"time": 783, "pitch": 67, "duration": 2, "velocity": 76}, {"time": 783, "pitch": 74, "duration": 5, "velocity": 84}, {"time": 789, "pitch": 62, "duration": 18, "velocity": 75}, {"time": 789, "pitch": 72, "duration": 5, "velocity": 80}, {"time": 795, "pitch": 63, "duration": 12, "velocity": 71}, {"time": 801, "pitch": 65, "duration": 5, "velocity": 80}, {"time": 807, "pitch": 74, "duration": 3, "velocity": 78}, {"time": 810, "pitch": 75, "duration": 4, "velocity": 74}, {"time": 813, "pitch": 77, "duration": 2, "velocity": 76}, {"time": 816, "pitch": 82, "duration": 4, "velocity": 61}, {"time": 819, "pitch": 48, "duration": 9, "velocity": 76}, {"time": 819, "pitch": 79, "duration": 10, "velocity": 76}, {"time": 825, "pitch": 55, "duration": 5, "velocity": 76}, {"time": 831, "pitch": 60, "duration": 7, "velocity": 57}, {"time": 837, "pitch": 62, "duration": 20, "velocity": 76}, {"time": 843, "pitch": 63, "duration": 13, "velocity": 80}, {"time": 849, "pitch": 67, "duration": 5, "velocity": 76}, {"time": 855, "pitch": 70, "duration": 5, "velocity": 78}, {"time": 861, "pitch": 75, "duration": 6, "velocity": 77}, {"time": 867, "pitch": 53, "duration": 36, "velocity": 75}, {"time": 867, "pitch": 68, "duration": 14, "velocity": 79}, {"time": 873, "pitch": 60, "duration": 17, "velocity": 67}, {"time": 879, "pitch": 65, "duration": 15, "velocity": 75}, {"time": 885, "pitch": 67, "duration": 7, "velocity": 75}, {"time": 891, "pitch": 68, "duration": 7, "velocity": 79}, {"time": 897, "pitch": 60, "duration": 8, "velocity": 58}, {"time": 903, "pitch": 53, "duration": 7, "velocity": 25}, {"time": 903, "pitch": 68, "duration": 5, "velocity": 74}, {"time": 903, "pitch": 75, "duration": 8, "velocity": 57}, {"time": 909, "pitch": 60, "duration": 1, "velocity": 69}, {"time": 915, "pitch": 46, "duration": 9, "velocity": 50}, {"time": 915, "pitch": 67, "duration": 8, "velocity": 63}, {"time": 915, "pitch": 70, "duration": 9, "velocity": 71}, {"time": 915, "pitch": 74, "duration": 13, "velocity": 80}, {"time": 921, "pitch": 53, "duration": 4, "velocity": 75}, {"time": 927, "pitch": 58, "duration": 8, "velocity": 43}, {"time": 927, "pitch": 65, "duration": 9, "velocity": 73}, {"time": 927, "pitch": 72, "duration": 13, "velocity": 79}, {"time": 933, "pitch": 60, "duration": 14, "velocity": 48}, {"time": 939, "pitch": 65, "duration": 7, "velocity": 79}, {"time": 939, "pitch": 70, "duration": 7, "velocity": 78}, {"time": 945, "pitch": 62, "duration": 10, "velocity": 80}, {"time": 951, "pitch": 65, "duration": 8, "velocity": 75}, {"time": 957, "pitch": 70, "duration": 7, "velocity": 60}, {"time": 963, "pitch": 51, "duration": 38, "velocity": 76}, {"time": 963, "pitch": 67, "duration": 14, "velocity": 80}, {"time": 969, "pitch": 58, "duration": 16, "velocity": 73}, {"time": 975, "pitch": 63, "duration": 14, "velocity": 68}, {"time": 981, "pitch": 65, "duration": 7, "velocity": 76}, {"time": 987, "pitch": 67, "duration": 5, "velocity": 80}, {"time": 993, "pitch": 70, "duration": 7, "velocity": 75}, {"time": 999, "pitch": 58, "duration": 2, "velocity": 76}, {"time": 999, "pitch": 63, "duration": 5, "velocity": 76}, {"time": 1005, "pitch": 67, "duration": 7, "velocity": 78}, {"time": 1011, "pitch": 41, "duration": 9, "velocity": 82}, {"time": 1011, "pitch": 60, "duration": 23, "velocity": 52}, {"time": 1011, "pitch": 63, "duration": 21, "velocity": 58}, {"time": 1011, "pitch": 68, "duration": 23, "velocity": 86}, {"time": 1017, "pitch": 48, "duration": 5, "velocity": 63}, {"time": 1023, "pitch": 53, "duration": 7, "velocity": 69}, {"time": 1029, "pitch": 55, "duration": 22, "velocity": 80}, {"time": 1035, "pitch": 56, "duration": 15, "velocity": 80}, {"time": 1041, "pitch": 60, "duration": 8, "velocity": 71}, {"time": 1047, "pitch": 68, "duration": 10, "velocity": 84}, {"time": 1053, "pitch": 60, "duration": 6, "velocity": 56}, {"time": 1059, "pitch": 48, "duration": 37, "velocity": 77}, {"time": 1059, "pitch": 63, "duration": 9, "velocity": 80}, {"time": 1059, "pitch": 67, "duration": 10, "velocity": 76}, {"time": 1065, "pitch": 55, "duration": 27, "velocity": 69}, {"time": 1071, "pitch": 62, "duration": 3, "velocity": 71}, {"time": 1071, "pitch": 65, "duration": 5, "velocity": 78}, {"time": 1077, "pitch": 63, "duration": 8, "velocity": 83}, {"time": 1077, "pitch": 67, "duration": 8, "velocity": 78}, {"time": 1083, "pitch": 60, "duration": 13, "velocity": 59}, {"time": 1089, "pitch": 62, "duration": 4, "velocity": 78}, {"time": 1089, "pitch": 65, "duration": 4, "velocity": 80}, {"time": 1095, "pitch": 63, "duration": 5, "velocity": 82}, {"time": 1095, "pitch": 67, "duration": 5, "velocity": 80}, {"time": 1101, "pitch": 70, "duration": 3, "velocity": 77}, {"time": 1107, "pitch": 44, "duration": 15, "velocity": 78}, {"time": 1107, "pitch": 60, "duration": 13, "velocity": 68}, {"time": 1107, "pitch": 63, "duration": 13, "velocity": 80}, {"time": 1107, "pitch": 67, "duration": 12, "velocity": 79}, {"time": 1113, "pitch": 51, "duration": 10, "velocity": 79}, {"time": 1119, "pitch": 56, "duration": 4, "velocity": 72}, {"time": 1125, "pitch": 60, "duration": 2, "velocity": 58}, {"time": 1125, "pitch": 70, "duration": 2, "velocity": 52}, {"time": 1131, "pitch": 46, "duration": 14, "velocity": 80}, {"time": 1131, "pitch": 62, "duration": 11, "velocity": 75}, {"time": 1131, "pitch": 65, "duration": 13, "velocity": 82}, {"time": 1131, "pitch": 70, "duration": 13, "velocity": 78}, {"time": 1137, "pitch": 53, "duration": 8, "velocity": 78}, {"time": 1143, "pitch": 58, "duration": 7, "velocity": 59}, {"time": 1149, "pitch": 62, "duration": 4, "velocity": 68}, {"time": 1155, "pitch": 48, "duration": 11, "velocity": 81}, {"time": 1155, "pitch": 63, "duration": 4, "velocity": 82}, {"time": 1155, "pitch": 67, "duration": 6, "velocity": 79}, {"time": 1161, "pitch": 55, "duration": 5, "velocity": 73}, {"time": 1167, "pitch": 60, "duration": 7, "velocity": 40}, {"time": 1167, "pitch": 67, "duration": 3, "velocity": 38}, {"time": 1167, "pitch": 75, "duration": 3, "velocity": 58}, {"time": 1173, "pitch": 62, "duration": 11, "velocity": 71}, {"time": 1173, "pitch": 65, "duration": 4, "velocity": 56}, {"time": 1173, "pitch": 74, "duration": 7, "velocity": 82}, {"time": 1179, "pitch": 63, "duration": 10, "velocity": 62}, {"time": 1185, "pitch": 67, "duration": 7, "velocity": 68}, {"time": 1185, "pitch": 72, "duration": 7, "velocity": 75}, {"time": 1191, "pitch": 62, "duration": 2, "velocity": 80}, {"time": 1197, "pitch": 70, "duration": 4, "velocity": 73}, {"time": 1203, "pitch": 44, "duration": 41, "velocity": 79}, {"time": 1203, "pitch": 60, "duration": 7, "velocity": 70}, {"time": 1203, "pitch": 63, "duration": 6, "velocity": 83}, {"time": 1203, "pitch": 68, "duration": 6, "velocity": 81}, {"time": 1209, "pitch": 56, "duration": 20, "velocity": 50}, {"time": 1215, "pitch": 60, "duration": 7, "velocity": 71}, {"time": 1215, "pitch": 63, "duration": 7, "velocity": 84}, {"time": 1215, "pitch": 68, "duration": 6, "velocity": 80}, {"time": 1227, "pitch": 60, "duration": 7, "velocity": 63}, {"time": 1227, "pitch": 63, "duration": 6, "velocity": 78}, {"time": 1227, "pitch": 68, "duration": 5, "velocity": 75}, {"time": 1233, "pitch": 56, "duration": 7, "velocity": 50}, {"time": 1239, "pitch": 60, "duration": 6, "velocity": 71}, {"time": 1239, "pitch": 63, "duration": 8, "velocity": 83}, {"time": 1239, "pitch": 68, "duration": 4, "velocity": 78}, {"time": 1245, "pitch": 56, "duration": 6, "velocity": 71}, {"time": 1251, "pitch": 46, "duration": 42, "velocity": 78}, {"time": 1251, "pitch": 62, "duration": 7, "velocity": 76}, {"time": 1251, "pitch": 65, "duration": 6, "velocity": 82}, {"time": 1251, "pitch": 70, "duration": 8, "velocity": 81}, {"time": 1257, "pitch": 53, "duration": 35, "velocity": 62}, {"time": 1263, "pitch": 62, "duration": 6, "velocity": 73}, {"time": 1263, "pitch": 65, "duration": 6, "velocity": 80}, {"time": 1263, "pitch": 70, "duration": 6, "velocity": 75}, {"time": 1269, "pitch": 58, "duration": 7, "velocity": 60}, {"time": 1275, "pitch": 62, "duration": 6, "velocity": 80}, {"time": 1275, "pitch": 65, "duration": 5, "velocity": 84}, {"time": 1275, "pitch": 70, "duration": 5, "velocity": 79}, {"time": 1281, "pitch": 58, "duration": 6, "velocity": 62}, {"time": 1287, "pitch": 62, "duration": 4, "velocity": 78}, {"time": 1287, "pitch": 70, "duration": 2, "velocity": 52}, {"time": 1290, "pitch": 58, "duration": 2, "velocity": 63}, {"time": 1293, "pitch": 65, "duration": 3, "velocity": 83}, {"time": 1296, "pitch": 70, "duration": 10, "velocity": 79}, {"time": 1299, "pitch": 43, "duration": 41, "velocity": 84}, {"time": 1299, "pitch": 62, "duration": 7, "velocity": 78}, {"time": 1299, "pitch": 65, "duration": 6, "velocity": 84}, {"time": 1305, "pitch": 55, "duration": 8, "velocity": 71}, {"time": 1311, "pitch": 62, "duration": 6, "velocity": 76}, {"time": 1311, "pitch": 65, "duration": 6, "velocity": 81}, {"time": 1311, "pitch": 70, "duration": 6, "velocity": 79}, {"time": 1317, "pitch": 55, "duration": 13, "velocity": 60}, {"time": 1323, "pitch": 62, "duration": 8, "velocity": 73}, {"time": 1329, "pitch": 65, "duration": 6, "velocity": 84}, {"time": 1335, "pitch": 62, "duration": 2, "velocity": 83}, {"time": 1335, "pitch": 70, "duration": 2, "velocity": 84}, {"time": 1341, "pitch": 55, "duration": 5, "velocity": 75}, {"time": 1341, "pitch": 72, "duration": 4, "velocity": 61}, {"time": 1347, "pitch": 48, "duration": 10, "velocity": 79}, {"time": 1347, "pitch": 67, "duration": 7, "velocity": 76}, {"time": 1347, "pitch": 75, "duration": 2, "velocity": 77}, {"time": 1353, "pitch": 55, "duration": 5, "velocity": 60}, {"time": 1359, "pitch": 60, "duration": 10, "velocity": 58}, {"time": 1359, "pitch": 67, "duration": 7, "velocity": 68}, {"time": 1359, "pitch": 75, "duration": 11, "velocity": 83}, {"time": 1365, "pitch": 62, "duration": 19, "velocity": 72}, {"time": 1371, "pitch": 67, "duration": 3, "velocity": 77}, {"time": 1371, "pitch": 74, "duration": 5, "velocity": 90}, {"time": 1377, "pitch": 67, "duration": 4, "velocity": 76}, {"time": 1377, "pitch": 75, "duration": 7, "velocity": 83}, {"time": 1383, "pitch": 63, "duration": 2, "velocity": 84}, {"time": 1383, "pitch": 70, "duration": 4, "velocity": 78}, {"time": 1389, "pitch": 67, "duration": 3, "velocity": 71}, {"time": 1395, "pitch": 44, "duration": 11, "velocity": 82}, {"time": 1395, "pitch": 63, "duration": 9, "velocity": 78}, {"time": 1395, "pitch": 68, "duration": 9, "velocity": 79}, {"time": 1395, "pitch": 72, "duration": 7, "velocity": 77}, {"time": 1401, "pitch": 51, "duration": 6, "velocity": 80}, {"time": 1407, "pitch": 56, "duration": 7, "velocity": 57}, {"time": 1407, "pitch": 63, "duration": 13, "velocity": 81}, {"time": 1407, "pitch": 68, "duration": 11, "velocity": 80}, {"time": 1407, "pitch": 72, "duration": 11, "velocity": 78}, {"time": 1413, "pitch": 58, "duration": 16, "velocity": 69}, {"time": 1419, "pitch": 60, "duration": 19, "velocity": 74}, {"time": 1425, "pitch": 63, "duration": 5, "velocity": 78}, {"time": 1431, "pitch": 68, "duration": 5, "velocity": 79}, {"time": 1437, "pitch": 72, "duration": 4, "velocity": 79}, {"time": 1443, "pitch": 46, "duration": 8, "velocity": 80}, {"time": 1443, "pitch": 65, "duration": 3, "velocity": 78}, {"time": 1443, "pitch": 70, "duration": 15, "velocity": 79}, {"time": 1443, "pitch": 74, "duration": 11, "velocity": 84}, {"time": 1449, "pitch": 53, "duration": 5, "velocity": 80}, {"time": 1449, "pitch": 65, "duration": 7, "velocity": 5}, {"time": 1455, "pitch": 58, "duration": 7, "velocity": 72}, {"time": 1461, "pitch": 60, "duration": 22, "velocity": 73}, {"time": 1467, "pitch": 62, "duration": 16, "velocity": 76}, {"time": 1473, "pitch": 74, "duration": 3, "velocity": 58}, {"time": 1473, "pitch": 82, "duration": 3, "velocity": 71}, {"time": 1479, "pitch": 63, "duration": 2, "velocity": 59}, {"time": 1479, "pitch": 74, "duration": 5, "velocity": 81}, {"time": 1479, "pitch": 82, "duration": 6, "velocity": 79}, {"time": 1485, "pitch": 77, "duration": 3, "velocity": 82}, {"time": 1491, "pitch": 44, "duration": 5, "velocity": 80}, {"time": 1491, "pitch": 63, "duration": 13, "velocity": 75}, {"time": 1491, "pitch": 68, "duration": 13, "velocity": 83}, {"time": 1491, "pitch": 72, "duration": 14, "velocity": 80}, {"time": 1497, "pitch": 56, "duration": 7, "velocity": 61}, {"time": 1503, "pitch": 58, "duration": 28, "velocity": 76}, {"time": 1509, "pitch": 60, "duration": 9, "velocity": 73}, {"time": 1515, "pitch": 63, "duration": 5, "velocity": 80}, {"time": 1521, "pitch": 72, "duration": 5, "velocity": 75}, {"time": 1527, "pitch": 60, "duration": 2, "velocity": 80}, {"time": 1533, "pitch": 75, "duration": 5, "velocity": 84}, {"time": 1539, "pitch": 43, "duration": 5, "velocity": 83}, {"time": 1539, "pitch": 74, "duration": 18, "velocity": 84}, {"time": 1545, "pitch": 55, "duration": 7, "velocity": 75}, {"time": 1551, "pitch": 60, "duration": 7, "velocity": 79}, {"time": 1557, "pitch": 62, "duration": 1, "velocity": 84}, {"time": 1563, "pitch": 43, "duration": 18, "velocity": 84}, {"time": 1563, "pitch": 67, "duration": 3, "velocity": 71}, {"time": 1563, "pitch": 71, "duration": 6, "velocity": 71}, {"time": 1569, "pitch": 55, "duration": 7, "velocity": 78}, {"time": 1569, "pitch": 67, "duration": 3, "velocity": 77}, {"time": 1569, "pitch": 72, "duration": 5, "velocity": 81}, {"time": 1575, "pitch": 47, "duration": 6, "velocity": 79}, {"time": 1575, "pitch": 67, "duration": 3, "velocity": 75}, {"time": 1575, "pitch": 74, "duration": 5, "velocity": 86}, {"time": 1581, "pitch": 55, "duration": 3, "velocity": 84}, {"time": 1581, "pitch": 77, "duration": 2, "velocity": 81}, {"time": 1587, "pitch": 44, "duration": 41, "velocity": 57}, {"time": 1587, "pitch": 68, "duration": 7, "velocity": 75}, {"time": 1587, "pitch": 75, "duration": 8, "velocity": 83}, {"time": 1593, "pitch": 56, "duration": 8, "velocity": 69}, {"time": 1599, "pitch": 63, "duration": 7, "velocity": 77}, {"time": 1599, "pitch": 68, "duration": 6, "velocity": 82}, {"time": 1599, "pitch": 72, "duration": 7, "velocity": 78}, {"time": 1599, "pitch": 75, "duration": 8, "velocity": 67}, {"time": 1605, "pitch": 56, "duration": 8, "velocity": 57}, {"time": 1611, "pitch": 63, "duration": 7, "velocity": 75}, {"time": 1611, "pitch": 68, "duration": 6, "velocity": 82}, {"time": 1611, "pitch": 72, "duration": 7, "velocity": 75}, {"time": 1611, "pitch": 75, "duration": 7, "velocity": 67}, {"time": 1617, "pitch": 56, "duration": 8, "velocity": 58}, {"time": 1623, "pitch": 63, "duration": 5, "velocity": 75}, {"time": 1623, "pitch": 68, "duration": 9, "velocity": 82}, {"time": 1623, "pitch": 72, "duration": 9, "velocity": 82}, {"time": 1623, "pitch": 75, "duration": 2, "velocity": 59}, {"time": 1629, "pitch": 56, "duration": 6, "velocity": 79}, {"time": 1635, "pitch": 46, "duration": 20, "velocity": 81}, {"time": 1635, "pitch": 65, "duration": 7, "velocity": 78}, {"time": 1635, "pitch": 70, "duration": 8, "velocity": 78}, {"time": 1635, "pitch": 74, "duration": 6, "velocity": 82}, {"time": 1641, "pitch": 58, "duration": 7, "velocity": 54}, {"time": 1647, "pitch": 65, "duration": 6, "velocity": 79}, {"time": 1647, "pitch": 70, "duration": 5, "velocity": 74}, {"time": 1647, "pitch": 74, "duration": 4, "velocity": 80}, {"time": 1653, "pitch": 58, "duration": 5, "velocity": 67}, {"time": 1659, "pitch": 46, "duration": 5, "velocity": 75}, {"time": 1659, "pitch": 65, "duration": 2, "velocity": 78}, {"time": 1659, "pitch": 77, "duration": 3, "velocity": 69}, {"time": 1665, "pitch": 58, "duration": 7, "velocity": 69}, {"time": 1665, "pitch": 67, "duration": 2, "velocity": 69}, {"time": 1665, "pitch": 79, "duration": 2, "velocity": 82}, {"time": 1671, "pitch": 60, "duration": 7, "velocity": 68}, {"time": 1671, "pitch": 70, "duration": 2, "velocity": 71}, {"time": 1671, "pitch": 82, "duration": 2, "velocity": 83}, {"time": 1677, "pitch": 62, "duration": 1, "velocity": 82}, {"time": 1677, "pitch": 72, "duration": 2, "velocity": 69}, {"time": 1677, "pitch": 84, "duration": 2, "velocity": 82}, {"time": 1683, "pitch": 43, "duration": 5, "velocity": 83}, {"time": 1683, "pitch": 74, "duration": 15, "velocity": 80}, {"time": 1683, "pitch": 86, "duration": 12, "velocity": 84}, {"time": 1689, "pitch": 55, "duration": 6, "velocity": 75}, {"time": 1695, "pitch": 58, "duration": 27, "velocity": 76}, {"time": 1701, "pitch": 62, "duration": 5, "velocity": 80}, {"time": 1704, "pitch": 65, "duration": 2, "velocity": 73}, {"time": 1707, "pitch": 70, "duration": 4, "velocity": 69}, {"time": 1710, "pitch": 72, "duration": 3, "velocity": 73}, {"time": 1713, "pitch": 74, "duration": 2, "velocity": 75}, {"time": 1716, "pitch": 75, "duration": 3, "velocity": 80}, {"time": 1719, "pitch": 62, "duration": 2, "velocity": 79}, {"time": 1719, "pitch": 74, "duration": 4, "velocity": 78}, {"time": 1722, "pitch": 70, "duration": 2, "velocity": 28}, {"time": 1725, "pitch": 67, "duration": 3, "velocity": 63}, {"time": 1728, "pitch": 72, "duration": 3, "velocity": 71}, {"time": 1731, "pitch": 48, "duration": 10, "velocity": 80}, {"time": 1731, "pitch": 67, "duration": 9, "velocity": 78}, {"time": 1731, "pitch": 75, "duration": 6, "velocity": 83}, {"time": 1737, "pitch": 55, "duration": 5, "velocity": 79}, {"time": 1737, "pitch": 74, "duration": 6, "velocity": 83}, {"time": 1743, "pitch": 60, "duration": 7, "velocity": 57}, {"time": 1743, "pitch": 67, "duration": 4, "velocity": 72}, {"time": 1743, "pitch": 75, "duration": 4, "velocity": 80}, {"time": 1749, "pitch": 62, "duration": 19, "velocity": 72}, {"time": 1749, "pitch": 67, "duration": 3, "velocity": 62}, {"time": 1749, "pitch": 74, "duration": 7, "velocity": 84}, {"time": 1755, "pitch": 67, "duration": 7, "velocity": 76}, {"time": 1755, "pitch": 72, "duration": 6, "velocity": 79}, {"time": 1761, "pitch": 63, "duration": 6, "velocity": 84}, {"time": 1767, "pitch": 67, "duration": 4, "velocity": 82}, {"time": 1767, "pitch": 70, "duration": 4, "velocity": 83}, {"time": 1779, "pitch": 44, "duration": 39, "velocity": 84}, {"time": 1779, "pitch": 63, "duration": 7, "velocity": 80}, {"time": 1779, "pitch": 68, "duration": 7, "velocity": 82}, {"time": 1779, "pitch": 72, "duration": 7, "velocity": 79}, {"time": 1785, "pitch": 56, "duration": 8, "velocity": 63}, {"time": 1791, "pitch": 63, "duration": 7, "velocity": 76}, {"time": 1791, "pitch": 68, "duration": 7, "velocity": 79}, {"time": 1791, "pitch": 72, "duration": 7, "velocity": 78}, {"time": 1797, "pitch": 56, "duration": 9, "velocity": 59}, {"time": 1803, "pitch": 63, "duration": 8, "velocity": 75}, {"time": 1803, "pitch": 68, "duration": 7, "velocity": 76}, {"time": 1803, "pitch": 72, "duration": 7, "velocity": 73}, {"time": 1809, "pitch": 56, "duration": 8, "velocity": 58}, {"time": 1815, "pitch": 63, "duration": 3, "velocity": 80}, {"time": 1815, "pitch": 68, "duration": 9, "velocity": 83}, {"time": 1815, "pitch": 72, "duration": 6, "velocity": 78}, {"time": 1821, "pitch": 56, "duration": 6, "velocity": 72}, {"time": 1827, "pitch": 46, "duration": 11, "velocity": 83}, {"time": 1827, "pitch": 65, "duration": 14, "velocity": 80}, {"time": 1827, "pitch": 70, "duration": 24, "velocity": 79}, {"time": 1827, "pitch": 74, "duration": 8, "velocity": 86}, {"time": 1833, "pitch": 53, "duration": 6, "velocity": 77}, {"time": 1839, "pitch": 58, "duration": 7, "velocity": 72}, {"time": 1845, "pitch": 60, "duration": 22, "velocity": 72}, {"time": 1851, "pitch": 62, "duration": 16, "velocity": 80}, {"time": 1857, "pitch": 65, "duration": 7, "velocity": 79}, {"time": 1863, "pitch": 70, "duration": 5, "velocity": 80}, {"time": 1869, "pitch": 72, "duration": 3, "velocity": 90}, {"time": 1875, "pitch": 43, "duration": 5, "velocity": 83}, {"time": 1875, "pitch": 65, "duration": 16, "velocity": 77}, {"time": 1875, "pitch": 70, "duration": 17, "velocity": 79}, {"time": 1875, "pitch": 74, "duration": 15, "velocity": 84}, {"time": 1881, "pitch": 55, "duration": 6, "velocity": 73}, {"time": 1887, "pitch": 58, "duration": 27, "velocity": 78}, {"time": 1893, "pitch": 62, "duration": 10, "velocity": 80}, {"time": 1899, "pitch": 65, "duration": 5, "velocity": 75}, {"time": 1905, "pitch": 70, "duration": 4, "velocity": 83}, {"time": 1911, "pitch": 62, "duration": 2, "velocity": 80}, {"time": 1911, "pitch": 74, "duration": 5, "velocity": 83}, {"time": 1917, "pitch": 77, "duration": 2, "velocity": 79}, {"time": 1923, "pitch": 48, "duration": 11, "velocity": 78}, {"time": 1923, "pitch": 67, "duration": 8, "velocity": 79}, {"time": 1923, "pitch": 75, "duration": 11, "velocity": 82}, {"time": 1929, "pitch": 55, "duration": 6, "velocity": 62}, {"time": 1935, "pitch": 60, "duration": 7, "velocity": 58}, {"time": 1935, "pitch": 67, "duration": 3, "velocity": 75}, {"time": 1935, "pitch": 74, "duration": 5, "velocity": 84}, {"time": 1935, "pitch": 75, "duration": 2, "velocity": 39}, {"time": 1941, "pitch": 62, "duration": 21, "velocity": 79}, {"time": 1941, "pitch": 67, "duration": 5, "velocity": 79}, {"time": 1941, "pitch": 72, "duration": 7, "velocity": 79}, {"time": 1947, "pitch": 63, "duration": 14, "velocity": 78}, {"time": 1953, "pitch": 65, "duration": 7, "velocity": 76}, {"time": 1959, "pitch": 72, "duration": 2, "velocity": 63}, {"time": 1959, "pitch": 84, "duration": 3, "velocity": 78}, {"time": 1965, "pitch": 74, "duration": 2, "velocity": 69}, {"time": 1965, "pitch": 86, "duration": 2, "velocity": 48}, {"time": 1971, "pitch": 48, "duration": 9, "velocity": 76}, {"time": 1971, "pitch": 67, "duration": 9, "velocity": 73}, {"time": 1971, "pitch": 75, "duration": 6, "velocity": 84}, {"time": 1977, "pitch": 55, "duration": 6, "velocity": 69}, {"time": 1977, "pitch": 74, "duration": 6, "velocity": 77}, {"time": 1983, "pitch": 60, "duration": 6, "velocity": 51}, {"time": 1983, "pitch": 67, "duration": 6, "velocity": 52}, {"time": 1983, "pitch": 75, "duration": 5, "velocity": 81}, {"time": 1989, "pitch": 62, "duration": 19, "velocity": 73}, {"time": 1989, "pitch": 74, "duration": 6, "velocity": 70}, {"time": 1995, "pitch": 67, "duration": 5, "velocity": 58}, {"time": 1995, "pitch": 75, "duration": 5, "velocity": 80}, {"time": 2001, "pitch": 63, "duration": 6, "velocity": 76}, {"time": 2007, "pitch": 67, "duration": 5, "velocity": 69}, {"time": 2007, "pitch": 74, "duration": 5, "velocity": 79}, {"time": 2013, "pitch": 75, "duration": 3, "velocity": 80}, {"time": 2019, "pitch": 46, "duration": 44, "velocity": 38}, {"time": 2019, "pitch": 65, "duration": 8, "velocity": 69}, {"time": 2019, "pitch": 70, "duration": 7, "velocity": 69}, {"time": 2019, "pitch": 74, "duration": 8, "velocity": 82}, {"time": 2025, "pitch": 55, "duration": 12, "velocity": 55}, {"time": 2031, "pitch": 58, "duration": 18, "velocity": 69}, {"time": 2037, "pitch": 62, "duration": 12, "velocity": 71}, {"time": 2043, "pitch": 65, "duration": 7, "velocity": 84}, {"time": 2049, "pitch": 53, "duration": 11, "velocity": 76}, {"time": 2055, "pitch": 62, "duration": 6, "velocity": 78}, {"time": 2055, "pitch": 70, "duration": 8, "velocity": 84}, {"time": 2061, "pitch": 53, "duration": 2, "velocity": 68}, {"time": 2061, "pitch": 58, "duration": 1, "velocity": 52}, {"time": 2067, "pitch": 44, "duration": 10, "velocity": 82}, {"time": 2067, "pitch": 60, "duration": 13, "velocity": 71}, {"time": 2067, "pitch": 63, "duration": 13, "velocity": 82}, {"time": 2067, "pitch": 68, "duration": 11, "velocity": 82}, {"time": 2073, "pitch": 51, "duration": 6, "velocity": 80}, {"time": 2079, "pitch": 56, "duration": 7, "velocity": 72}, {"time": 2085, "pitch": 58, "duration": 19, "velocity": 73}, {"time": 2091, "pitch": 60, "duration": 14, "velocity": 79}, {"time": 2097, "pitch": 63, "duration": 4, "velocity": 79}, {"time": 2103, "pitch": 68, "duration": 6, "velocity": 80}, {"time": 2109, "pitch": 72, "duration": 6, "velocity": 71}, {"time": 2115, "pitch": 43, "duration": 6, "velocity": 80}, {"time": 2115, "pitch": 65, "duration": 17, "velocity": 78}, {"time": 2115, "pitch": 70, "duration": 20, "velocity": 77}, {"time": 2121, "pitch": 55, "duration": 7, "velocity": 68}, {"time": 2127, "pitch": 58, "duration": 27, "velocity": 76}, {"time": 2133, "pitch": 62, "duration": 11, "velocity": 82}, {"time": 2139, "pitch": 67, "duration": 7, "velocity": 79}, {"time": 2145, "pitch": 70, "duration": 3, "velocity": 78}, {"time": 2148, "pitch": 72, "duration": 4, "velocity": 73}, {"time": 2151, "pitch": 62, "duration": 2, "velocity": 77}, {"time": 2151, "pitch": 74, "duration": 3, "velocity": 82}, {"time": 2154, "pitch": 75, "duration": 4, "velocity": 82}, {"time": 2157, "pitch": 74, "duration": 2, "velocity": 76}, {"time": 2160, "pitch": 70, "duration": 3, "velocity": 68}, {"time": 2163, "pitch": 48, "duration": 43, "velocity": 79}, {"time": 2163, "pitch": 67, "duration": 7, "velocity": 75}, {"time": 2163, "pitch": 72, "duration": 7, "velocity": 77}, {"time": 2169, "pitch": 55, "duration": 33, "velocity": 78}, {"time": 2175, "pitch": 60, "duration": 17, "velocity": 68}, {"time": 2181, "pitch": 62, "duration": 6, "velocity": 83}, {"time": 2187, "pitch": 63, "duration": 1, "velocity": 83}, {"time": 2193, "pitch": 67, "duration": 4, "velocity": 78}, {"time": 2199, "pitch": 67, "duration": 4, "velocity": 68}, {"time": 2199, "pitch": 75, "duration": 9, "velocity": 90}, {"time": 2205, "pitch": 55, "duration": 5, "velocity": 82}, {"time": 2211, "pitch": 46, "duration": 9, "velocity": 76}, {"time": 2211, "pitch": 65, "duration": 18, "velocity": 75}, {"time": 2211, "pitch": 70, "duration": 19, "velocity": 76}, {"time": 2211, "pitch": 74, "duration": 21, "velocity": 83}, {"time": 2217, "pitch": 53, "duration": 5, "velocity": 73}, {"time": 2223, "pitch": 58, "duration": 7, "velocity": 57}, {"time": 2229, "pitch": 60, "duration": 9, "velocity": 71}, {"time": 2235, "pitch": 62, "duration": 12, "velocity": 72}, {"time": 2241, "pitch": 70, "duration": 2, "velocity": 71}, {"time": 2241, "pitch": 82, "duration": 3, "velocity": 78}, {"time": 2247, "pitch": 60, "duration": 2, "velocity": 63}, {"time": 2247, "pitch": 72, "duration": 2, "velocity": 63}, {"time": 2247, "pitch": 84, "duration": 3, "velocity": 77}, {"time": 2253, "pitch": 74, "duration": 2, "velocity": 59}, {"time": 2253, "pitch": 86, "duration": 3, "velocity": 80}, {"time": 2259, "pitch": 44, "duration": 31, "velocity": 83}, {"time": 2259, "pitch": 75, "duration": 5, "velocity": 76}, {"time": 2259, "pitch": 87, "duration": 4, "velocity": 84}, {"time": 2265, "pitch": 51, "duration": 29, "velocity": 78}, {"time": 2271, "pitch": 56, "duration": 7, "velocity": 75}, {"time": 2277, "pitch": 68, "duration": 3, "velocity": 83}, {"time": 2286, "pitch": 56, "duration": 4, "velocity": 53}, {"time": 2289, "pitch": 60, "duration": 6, "velocity": 49}, {"time": 2289, "pitch": 63, "duration": 7, "velocity": 61}, {"time": 2289, "pitch": 68, "duration": 5, "velocity": 79}, {"time": 2295, "pitch": 44, "duration": 3, "velocity": 55}, {"time": 2295, "pitch": 56, "duration": 4, "velocity": 76}, {"time": 2307, "pitch": 43, "duration": 32, "velocity": 84}, {"time": 2307, "pitch": 62, "duration": 8, "velocity": 79}, {"time": 2307, "pitch": 67, "duration": 8, "velocity": 82}, {"time": 2313, "pitch": 55, "duration": 25, "velocity": 69}, {"time": 2319, "pitch": 58, "duration": 5, "velocity": 69}, {"time": 2325, "pitch": 65, "duration": 3, "velocity": 78}, {"time": 2331, "pitch": 67, "duration": 3, "velocity": 76}, {"time": 2337, "pitch": 70, "duration": 4, "velocity": 72}, {"time": 2343, "pitch": 74, "duration": 3, "velocity": 81}, {"time": 2355, "pitch": 48, "duration": 41, "velocity": 78}, {"time": 2355, "pitch": 63, "duration": 13, "velocity": 70}, {"time": 2355, "pitch": 72, "duration": 12, "velocity": 80}, {"time": 2361, "pitch": 55, "duration": 36, "velocity": 77}, {"time": 2367, "pitch": 60, "duration": 24, "velocity": 78}, {"time": 2373, "pitch": 62, "duration": 7, "velocity": 78}, {"time": 2379, "pitch": 63, "duration": 11, "velocity": 84}, {"time": 2391, "pitch": 67, "duration": 7, "velocity": 82}, {"time": 2397, "pitch": 60, "duration": 6, "velocity": 57}, {"time": 2403, "pitch": 53, "duration": 42, "velocity": 82}, {"time": 2403, "pitch": 68, "duration": 12, "velocity": 80}, {"time": 2409, "pitch": 60, "duration": 29, "velocity": 63}, {"time": 2415, "pitch": 65, "duration": 13, "velocity": 73}, {"time": 2421, "pitch": 68, "duration": 14, "velocity": 68}, {"time": 2427, "pitch": 75, "duration": 10, "velocity": 84}, {"time": 2433, "pitch": 65, "duration": 6, "velocity": 47}, {"time": 2439, "pitch": 72, "duration": 11, "velocity": 81}, {"time": 2451, "pitch": 46, "duration": 11, "velocity": 78}, {"time": 2451, "pitch": 65, "duration": 25, "velocity": 72}, {"time": 2451, "pitch": 74, "duration": 25, "velocity": 83}, {"time": 2457, "pitch": 53, "duration": 5, "velocity": 61}, {"time": 2463, "pitch": 58, "duration": 7, "velocity": 51}, {"time": 2469, "pitch": 60, "duration": 21, "velocity": 56}, {"time": 2475, "pitch": 62, "duration": 13, "velocity": 82}, {"time": 2481, "pitch": 65, "duration": 4, "velocity": 69}, {"time": 2487, "pitch": 70, "duration": 6, "velocity": 82}, {"time": 2493, "pitch": 75, "duration": 10, "velocity": 86}, {"time": 2499, "pitch": 51, "duration": 39, "velocity": 79}, {"time": 2499, "pitch": 70, "duration": 13, "velocity": 78}, {"time": 2505, "pitch": 58, "duration": 38, "velocity": 72}, {"time": 2511, "pitch": 63, "duration": 9, "velocity": 71}, {"time": 2517, "pitch": 65, "duration": 11, "velocity": 77}, {"time": 2529, "pitch": 67, "duration": 7, "velocity": 83}, {"time": 2535, "pitch": 63, "duration": 7, "velocity": 72}, {"time": 2541, "pitch": 70, "duration": 5, "velocity": 78}, {"time": 2547, "pitch": 53, "duration": 38, "velocity": 76}, {"time": 2547, "pitch": 68, "duration": 14, "velocity": 73}, {"time": 2547, "pitch": 72, "duration": 11, "velocity": 78}, {"time": 2553, "pitch": 60, "duration": 26, "velocity": 68}, {"time": 2559, "pitch": 65, "duration": 22, "velocity": 78}, {"time": 2565, "pitch": 67, "duration": 6, "velocity": 72}, {"time": 2571, "pitch": 68, "duration": 2, "velocity": 80}, {"time": 2577, "pitch": 72, "duration": 4, "velocity": 72}, {"time": 2583, "pitch": 60, "duration": 1, "velocity": 55}, {"time": 2583, "pitch": 75, "duration": 5, "velocity": 79}, {"time": 2589, "pitch": 77, "duration": 6, "velocity": 79}, {"time": 2595, "pitch": 48, "duration": 39, "velocity": 82}, {"time": 2595, "pitch": 79, "duration": 6, "velocity": 79}, {"time": 2601, "pitch": 55, "duration": 33, "velocity": 80}, {"time": 2607, "pitch": 60, "duration": 25, "velocity": 68}, {"time": 2613, "pitch": 62, "duration": 5, "velocity": 68}, {"time": 2619, "pitch": 63, "duration": 1, "velocity": 77}, {"time": 2625, "pitch": 67, "duration": 4, "velocity": 71}, {"time": 2631, "pitch": 74, "duration": 5, "velocity": 72}, {"time": 2637, "pitch": 75, "duration": 5, "velocity": 79}, {"time": 2643, "pitch": 44, "duration": 5, "velocity": 77}, {"time": 2643, "pitch": 68, "duration": 14, "velocity": 79}, {"time": 2643, "pitch": 72, "duration": 16, "velocity": 72}, {"time": 2649, "pitch": 56, "duration": 7, "velocity": 73}, {"time": 2655, "pitch": 60, "duration": 2, "velocity": 73}, {"time": 2661, "pitch": 65, "duration": 5, "velocity": 69}, {"time": 2667, "pitch": 46, "duration": 11, "velocity": 78}, {"time": 2667, "pitch": 65, "duration": 13, "velocity": 34}, {"time": 2667, "pitch": 70, "duration": 13, "velocity": 78}, {"time": 2667, "pitch": 74, "duration": 13, "velocity": 82}, {"time": 2673, "pitch": 53, "duration": 6, "velocity": 79}, {"time": 2679, "pitch": 58, "duration": 7, "velocity": 62}, {"time": 2685, "pitch": 60, "duration": 3, "velocity": 76}, {"time": 2691, "pitch": 48, "duration": 11, "velocity": 80}, {"time": 2691, "pitch": 67, "duration": 7, "velocity": 75}, {"time": 2691, "pitch": 75, "duration": 10, "velocity": 83}, {"time": 2697, "pitch": 55, "duration": 6, "velocity": 78}, {"time": 2703, "pitch": 60, "duration": 7, "velocity": 62}, {"time": 2703, "pitch": 67, "duration": 2, "velocity": 76}, {"time": 2703, "pitch": 74, "duration": 5, "velocity": 84}, {"time": 2709, "pitch": 62, "duration": 18, "velocity": 75}, {"time": 2709, "pitch": 72, "duration": 5, "velocity": 80}, {"time": 2715, "pitch": 63, "duration": 12, "velocity": 71}, {"time": 2721, "pitch": 65, "duration": 5, "velocity": 80}, {"time": 2727, "pitch": 74, "duration": 3, "velocity": 78}, {"time": 2730, "pitch": 75, "duration": 4, "velocity": 74}, {"time": 2733, "pitch": 77, "duration": 2, "velocity": 76}, {"time": 2736, "pitch": 82, "duration": 4, "velocity": 61}, {"time": 2739, "pitch": 48, "duration": 9, "velocity": 76}, {"time": 2739, "pitch": 79, "duration": 10, "velocity": 76}, {"time": 2745, "pitch": 55, "duration": 5, "velocity": 76}, {"time": 2751, "pitch": 60, "duration": 7, "velocity": 57}, {"time": 2757, "pitch": 62, "duration": 20, "velocity": 76}, {"time": 2763, "pitch": 63, "duration": 13, "velocity": 80}, {"time": 2769, "pitch": 67, "duration": 5, "velocity": 76}, {"time": 2775, "pitch": 70, "duration": 5, "velocity": 78}, {"time": 2781, "pitch": 75, "duration": 6, "velocity": 77}, {"time": 2787, "pitch": 53, "duration": 36, "velocity": 75}, {"time": 2787, "pitch": 68, "duration": 14, "velocity": 79}, {"time": 2793, "pitch": 60, "duration": 17, "velocity": 67}, {"time": 2799, "pitch": 65, "duration": 15, "velocity": 75}, {"time": 2805, "pitch": 67, "duration": 7, "velocity": 75}, {"time": 2811, "pitch": 68, "duration": 7, "velocity": 79}, {"time": 2817, "pitch": 60, "duration": 8, "velocity": 58}, {"time": 2823, "pitch": 53, "duration": 7, "velocity": 25}, {"time": 2823, "pitch": 68, "duration": 5, "velocity": 74}, {"time": 2823, "pitch": 75, "duration": 8, "velocity": 57}, {"time": 2829, "pitch": 60, "duration": 1, "velocity": 69}, {"time": 2835, "pitch": 46, "duration": 9, "velocity": 50}, {"time": 2835, "pitch": 67, "duration": 8, "velocity": 63}, {"time": 2835, "pitch": 70, "duration": 9, "velocity": 71}, {"time": 2835, "pitch": 74, "duration": 13, "velocity": 80}, {"time": 2841, "pitch": 53, "duration": 4, "velocity": 75}, {"time": 2847, "pitch": 58, "duration": 8, "velocity": 43}, {"time": 2847, "pitch": 65, "duration": 9, "velocity": 73}, {"time": 2847, "pitch": 72, "duration": 13, "velocity": 79}, {"time": 2853, "pitch": 60, "duration": 14, "velocity": 48}, {"time": 2859, "pitch": 65, "duration": 7, "velocity": 79}, {"time": 2859, "pitch": 70, "duration": 7, "velocity": 78}, {"time": 2865, "pitch": 62, "duration": 10, "velocity": 80}, {"time": 2871, "pitch": 65, "duration": 8, "velocity": 75}, {"time": 2877, "pitch": 70, "duration": 7, "velocity": 60}, {"time": 2883, "pitch": 51, "duration": 38, "velocity": 76}, {"time": 2883, "pitch": 67, "duration": 14, "velocity": 80}, {"time": 2889, "pitch": 58, "duration": 16, "velocity": 73}, {"time": 2895, "pitch": 63, "duration": 14, "velocity": 68}, {"time": 2901, "pitch": 65, "duration": 7, "velocity": 76}, {"time": 2907, "pitch": 67, "duration": 5, "velocity": 80}, {"time": 2913, "pitch": 70, "duration": 7, "velocity": 75}, {"time": 2919, "pitch": 58, "duration": 2, "velocity": 76}, {"time": 2919, "pitch": 63, "duration": 5, "velocity": 76}, {"time": 2925, "pitch": 67, "duration": 7, "velocity": 78}, {"time": 2931, "pitch": 41, "duration": 9, "velocity": 82}, {"time": 2931, "pitch": 60, "duration": 23, "velocity": 52}, {"time": 2931, "pitch": 63, "duration": 21, "velocity": 58}, {"time": 2931, "pitch": 68, "duration": 23, "velocity": 86}, {"time": 2937, "pitch": 48, "duration": 5, "velocity": 63}, {"time": 2943, "pitch": 53, "duration": 7, "velocity": 69}, {"time": 2949, "pitch": 55, "duration": 22, "velocity": 80}, {"time": 2955, "pitch": 56, "duration": 15, "velocity": 80}, {"time": 2961, "pitch": 60, "duration": 8, "velocity": 71}, {"time": 2967, "pitch": 68, "duration": 10, "velocity": 84}, {"time": 2973, "pitch": 60, "duration": 6, "velocity": 56}, {"time": 2979, "pitch": 48, "duration": 37, "velocity": 77}, {"time": 2979, "pitch": 63, "duration": 9, "velocity": 80}, {"time": 2979, "pitch": 67, "duration": 10, "velocity": 76}, {"time": 2985, "pitch": 55, "duration": 27, "velocity": 69}, {"time": 2991, "pitch": 62, "duration": 3, "velocity": 71}, {"time": 2991, "pitch": 65, "duration": 5, "velocity": 78}, {"time": 2997, "pitch": 63, "duration": 8, "velocity": 83}, {"time": 2997, "pitch": 67, "duration": 8, "velocity": 78}, {"time": 3003, "pitch": 60, "duration": 13, "velocity": 59}, {"time": 3009, "pitch": 62, "duration": 4, "velocity": 78}, {"time": 3009, "pitch": 65, "duration": 4, "velocity": 80}, {"time": 3015, "pitch": 63, "duration": 5, "velocity": 82}, {"time": 3015, "pitch": 67, "duration": 5, "velocity": 80}, {"time": 3021, "pitch": 70, "duration": 3, "velocity": 77}, {"time": 3027, "pitch": 44, "duration": 15, "velocity": 78}, {"time": 3027, "pitch": 60, "duration": 13, "velocity": 68}, {"time": 3027, "pitch": 63, "duration": 13, "velocity": 80}, {"time": 3027, "pitch": 67, "duration": 12, "velocity": 79}, {"time": 3033, "pitch": 51, "duration": 10, "velocity": 79}, {"time": 3039, "pitch": 56, "duration": 4, "velocity": 72}, {"time": 3045, "pitch": 60, "duration": 2, "velocity": 58}, {"time": 3045, "pitch": 70, "duration": 2, "velocity": 52}, {"time": 3051, "pitch": 46, "duration": 14, "velocity": 80}, {"time": 3051, "pitch": 62, "duration": 11, "velocity": 75}, {"time": 3051, "pitch": 65, "duration": 13, "velocity": 82}, {"time": 3051, "pitch": 70, "duration": 13, "velocity": 78}, {"time": 3057, "pitch": 53, "duration": 8, "velocity": 78}, {"time": 3063, "pitch": 58, "duration": 7, "velocity": 59}, {"time": 3069, "pitch": 62, "duration": 4, "velocity": 68}, {"time": 3075, "pitch": 48, "duration": 11, "velocity": 81}, {"time": 3075, "pitch": 63, "duration": 4, "velocity": 82}, {"time": 3075, "pitch": 67, "duration": 6, "velocity": 79}, {"time": 3081, "pitch": 55, "duration": 5, "velocity": 73}, {"time": 3087, "pitch": 60, "duration": 7, "velocity": 40}, {"time": 3087, "pitch": 67, "duration": 3, "velocity": 38}, {"time": 3087, "pitch": 75, "duration": 3, "velocity": 58}, {"time": 3093, "pitch": 62, "duration": 11, "velocity": 71}, {"time": 3093, "pitch": 65, "duration": 4, "velocity": 56}, {"time": 3093, "pitch": 74, "duration": 7, "velocity": 82}, {"time": 3099, "pitch": 63, "duration": 10, "velocity": 62}, {"time": 3105, "pitch": 67, "duration": 7, "velocity": 68}, {"time": 3105, "pitch": 72, "duration": 7, "velocity": 75}, {"time": 3111, "pitch": 62, "duration": 2, "velocity": 80}, {"time": 3117, "pitch": 70, "duration": 4, "velocity": 73}, {"time": 3123, "pitch": 44, "duration": 41, "velocity": 79}, {"time": 3123, "pitch": 60, "duration": 7, "velocity": 70}, {"time": 3123, "pitch": 63, "duration": 6, "velocity": 83}, {"time": 3123, "pitch": 68, "duration": 6, "velocity": 81}, {"time": 3129, "pitch": 56, "duration": 20, "velocity": 50}, {"time": 3135, "pitch": 60, "duration": 7, "velocity": 71}, {"time": 3135, "pitch": 63, "duration": 7, "velocity": 84}, {"time": 3135, "pitch": 68, "duration": 6, "velocity": 80}, {"time": 3147, "pitch": 60, "duration": 7, "velocity": 63}, {"time": 3147, "pitch": 63, "duration": 6, "velocity": 78}, {"time": 3147, "pitch": 68, "duration": 5, "velocity": 75}, {"time": 3153, "pitch": 56, "duration": 7, "velocity": 50}, {"time": 3159, "pitch": 60, "duration": 6, "velocity": 71}, {"time": 3159, "pitch": 63, "duration": 8, "velocity": 83}, {"time": 3159, "pitch": 68, "duration": 4, "velocity": 78}, {"time": 3165, "pitch": 56, "duration": 6, "velocity": 71}, {"time": 3171, "pitch": 46, "duration": 42, "velocity": 78}, {"time": 3171, "pitch": 62, "duration": 7, "velocity": 76}, {"time": 3171, "pitch": 65, "duration": 6, "velocity": 82}, {"time": 3171, "pitch": 70, "duration": 8, "velocity": 81}, {"time": 3177, "pitch": 53, "duration": 35, "velocity": 62}, {"time": 3183, "pitch": 62, "duration": 6, "velocity": 73}, {"time": 3183, "pitch": 65, "duration": 6, "velocity": 80}, {"time": 3183, "pitch": 70, "duration": 6, "velocity": 75}, {"time": 3189, "pitch": 58, "duration": 7, "velocity": 60}, {"time": 3195, "pitch": 62, "duration": 6, "velocity": 80}, {"time": 3195, "pitch": 65, "duration": 5, "velocity": 84}, {"time": 3195, "pitch": 70, "duration": 5, "velocity": 79}, {"time": 3201, "pitch": 58, "duration": 6, "velocity": 62}, {"time": 3207, "pitch": 62, "duration": 4, "velocity": 78}, {"time": 3207, "pitch": 70, "duration": 2, "velocity": 52}, {"time": 3210, "pitch": 58, "duration": 2, "velocity": 63}, {"time": 3213, "pitch": 65, "duration": 3, "velocity": 83}, {"time": 3216, "pitch": 70, "duration": 10, "velocity": 79}, {"time": 3219, "pitch": 43, "duration": 41, "velocity": 84}, {"time": 3219, "pitch": 62, "duration": 7, "velocity": 78}, {"time": 3219, "pitch": 65, "duration": 6, "velocity": 84}, {"time": 3225, "pitch": 55, "duration": 8, "velocity": 71}, {"time": 3231, "pitch": 62, "duration": 6, "velocity": 76}, {"time": 3231, "pitch": 65, "duration": 6, "velocity": 81}, {"time": 3231, "pitch": 70, "duration": 6, "velocity": 79}, {"time": 3237, "pitch": 55, "duration": 13, "velocity": 60}, {"time": 3243, "pitch": 62, "duration": 8, "velocity": 73}, {"time": 3249, "pitch": 65, "duration": 6, "velocity": 84}, {"time": 3255, "pitch": 62, "duration": 2, "velocity": 83}, {"time": 3255, "pitch": 70, "duration": 2, "velocity": 84}, {"time": 3261, "pitch": 55, "duration": 5, "velocity": 75}, {"time": 3261, "pitch": 72, "duration": 4, "velocity": 61}, {"time": 3261, "pitch": 74, "duration": 1, "velocity": 67}, {"time": 3267, "pitch": 48, "duration": 10, "velocity": 79}, {"time": 3267, "pitch": 67, "duration": 7, "velocity": 76}, {"time": 3267, "pitch": 74, "duration": 2, "velocity": 75}, {"time": 3267, "pitch": 75, "duration": 2, "velocity": 77}, {"time": 3273, "pitch": 55, "duration": 5, "velocity": 60}, {"time": 3279, "pitch": 60, "duration": 10, "velocity": 58}, {"time": 3279, "pitch": 67, "duration": 7, "velocity": 68}, {"time": 3279, "pitch": 75, "duration": 11, "velocity": 83}, {"time": 3285, "pitch": 62, "duration": 19, "velocity": 72}, {"time": 3291, "pitch": 67, "duration": 3, "velocity": 77}, {"time": 3291, "pitch": 74, "duration": 5, "velocity": 90}, {"time": 3297, "pitch": 67, "duration": 4, "velocity": 76}, {"time": 3297, "pitch": 75, "duration": 7, "velocity": 83}, {"time": 3303, "pitch": 63, "duration": 2, "velocity": 84}, {"time": 3303, "pitch": 70, "duration": 4, "velocity": 78}, {"time": 3309, "pitch": 67, "duration": 3, "velocity": 71}, {"time": 3315, "pitch": 44, "duration": 11, "velocity": 82}, {"time": 3315, "pitch": 63, "duration": 9, "velocity": 78}, {"time": 3315, "pitch": 68, "duration": 9, "velocity": 79}, {"time": 3315, "pitch": 72, "duration": 7, "velocity": 77}, {"time": 3321, "pitch": 51, "duration": 6, "velocity": 80}, {"time": 3327, "pitch": 56, "duration": 7, "velocity": 57}, {"time": 3327, "pitch": 63, "duration": 13, "velocity": 81}, {"time": 3327, "pitch": 68, "duration": 11, "velocity": 80}, {"time": 3327, "pitch": 72, "duration": 11, "velocity": 78}, {"time": 3333, "pitch": 58, "duration": 16, "velocity": 69}, {"time": 3339, "pitch": 60, "duration": 19, "velocity": 74}, {"time": 3345, "pitch": 63, "duration": 5, "velocity": 78}, {"time": 3351, "pitch": 68, "duration": 5, "velocity": 79}, {"time": 3357, "pitch": 72, "duration": 4, "velocity": 79}, {"time": 3363, "pitch": 46, "duration": 8, "velocity": 80}, {"time": 3363, "pitch": 65, "duration": 3, "velocity": 78}, {"time": 3363, "pitch": 70, "duration": 15, "velocity": 79}, {"time": 3363, "pitch": 74, "duration": 11, "velocity": 84}, {"time": 3369, "pitch": 53, "duration": 5, "velocity": 80}, {"time": 3369, "pitch": 65, "duration": 7, "velocity": 5}, {"time": 3375, "pitch": 58, "duration": 7, "velocity": 72}, {"time": 3381, "pitch": 60, "duration": 22, "velocity": 73}, {"time": 3387, "pitch": 62, "duration": 16, "velocity": 76}, {"time": 3393, "pitch": 74, "duration": 3, "velocity": 58}, {"time": 3393, "pitch": 82, "duration": 3, "velocity": 71}, {"time": 3399, "pitch": 63, "duration": 2, "velocity": 59}, {"time": 3399, "pitch": 65, "duration": 2, "velocity": 55}, {"time": 3399, "pitch": 74, "duration": 5, "velocity": 81}, {"time": 3399, "pitch": 82, "duration": 6, "velocity": 79}, {"time": 3405, "pitch": 77, "duration": 3, "velocity": 82}, {"time": 3411, "pitch": 44, "duration": 5, "velocity": 80}, {"time": 3411, "pitch": 63, "duration": 13, "velocity": 75}, {"time": 3411, "pitch": 68, "duration": 13, "velocity": 83}, {"time": 3411, "pitch": 72, "duration": 14, "velocity": 80}, {"time": 3417, "pitch": 56, "duration": 7, "velocity": 61}, {"time": 3423, "pitch": 58, "duration": 28, "velocity": 76}, {"time": 3429, "pitch": 60, "duration": 9, "velocity": 73}, {"time": 3435, "pitch": 63, "duration": 5, "velocity": 80}, {"time": 3441, "pitch": 72, "duration": 5, "velocity": 75}, {"time": 3447, "pitch": 60, "duration": 2, "velocity": 80}, {"time": 3453, "pitch": 75, "duration": 5, "velocity": 84}, {"time": 3459, "pitch": 43, "duration": 5, "velocity": 83}, {"time": 3459, "pitch": 74, "duration": 18, "velocity": 84}, {"time": 3465, "pitch": 55, "duration": 7, "velocity": 75}, {"time": 3471, "pitch": 60, "duration": 7, "velocity": 79}, {"time": 3477, "pitch": 62, "duration": 1, "velocity": 84}, {"time": 3483, "pitch": 43, "duration": 18, "velocity": 84}, {"time": 3483, "pitch": 67, "duration": 3, "velocity": 71}, {"time": 3483, "pitch": 71, "duration": 6, "velocity": 71}, {"time": 3489, "pitch": 55, "duration": 7, "velocity": 78}, {"time": 3489, "pitch": 67, "duration": 3, "velocity": 77}, {"time": 3489, "pitch": 72, "duration": 5, "velocity": 81}, {"time": 3495, "pitch": 47, "duration": 6, "velocity": 79}, {"time": 3495, "pitch": 67, "duration": 3, "velocity": 75}, {"time": 3495, "pitch": 74, "duration": 5, "velocity": 86}, {"time": 3501, "pitch": 55, "duration": 3, "velocity": 84}, {"time": 3501, "pitch": 77, "duration": 2, "velocity": 81}, {"time": 3507, "pitch": 43, "duration": 2, "velocity": 63}, {"time": 3507, "pitch": 44, "duration": 41, "velocity": 57}, {"time": 3507, "pitch": 68, "duration": 7, "velocity": 75}, {"time": 3507, "pitch": 75, "duration": 8, "velocity": 83}, {"time": 3513, "pitch": 56, "duration": 8, "velocity": 69}, {"time": 3519, "pitch": 63, "duration": 7, "velocity": 77}, {"time": 3519, "pitch": 68, "duration": 6, "velocity": 82}, {"time": 3519, "pitch": 72, "duration": 7, "velocity": 78}, {"time": 3519, "pitch": 75, "duration": 8, "velocity": 67}, {"time": 3525, "pitch": 56, "duration": 8, "velocity": 57}, {"time": 3531, "pitch": 63, "duration": 7, "velocity": 75}, {"time": 3531, "pitch": 68, "duration": 6, "velocity": 82}, {"time": 3531, "pitch": 72, "duration": 7, "velocity": 75}, {"time": 3531, "pitch": 75, "duration": 7, "velocity": 67}, {"time": 3537, "pitch": 56, "duration": 8, "velocity": 58}, {"time": 3543, "pitch": 63, "duration": 5, "velocity": 75}, {"time": 3543, "pitch": 68, "duration": 9, "velocity": 82}, {"time": 3543, "pitch": 72, "duration": 9, "velocity": 82}, {"time": 3543, "pitch": 75, "duration": 2, "velocity": 59}, {"time": 3549, "pitch": 56, "duration": 6, "velocity": 79}, {"time": 3555, "pitch": 46, "duration": 20, "velocity": 81}, {"time": 3555, "pitch": 65, "duration": 7, "velocity": 78}, {"time": 3555, "pitch": 70, "duration": 8, "velocity": 78}, {"time": 3555, "pitch": 74, "duration": 6, "velocity": 82}, {"time": 3561, "pitch": 58, "duration": 7, "velocity": 54}, {"time": 3567, "pitch": 65, "duration": 6, "velocity": 79}, {"time": 3567, "pitch": 70, "duration": 5, "velocity": 74}, {"time": 3567, "pitch": 74, "duration": 4, "velocity": 80}, {"time": 3573, "pitch": 58, "duration": 5, "velocity": 67}, {"time": 3579, "pitch": 46, "duration": 5, "velocity": 75}, {"time": 3579, "pitch": 65, "duration": 2, "velocity": 78}, {"time": 3579, "pitch": 77, "duration": 3, "velocity": 69}, {"time": 3585, "pitch": 58, "duration": 7, "velocity": 69}, {"time": 3585, "pitch": 67, "duration": 2, "velocity": 69}, {"time": 3585, "pitch": 79, "duration": 2, "velocity": 82}, {"time": 3591, "pitch": 60, "duration": 7, "velocity": 68}, {"time": 3591, "pitch": 70, "duration": 2, "velocity": 71}, {"time": 3591, "pitch": 82, "duration": 2, "velocity": 83}, {"time": 3597, "pitch": 62, "duration": 1, "velocity": 82}, {"time": 3597, "pitch": 72, "duration": 2, "velocity": 69}, {"time": 3597, "pitch": 84, "duration": 2, "velocity": 82}, {"time": 3603, "pitch": 43, "duration": 5, "velocity": 83}, {"time": 3603, "pitch": 74, "duration": 15, "velocity": 80}, {"time": 3603, "pitch": 86, "duration": 12, "velocity": 84}, {"time": 3609, "pitch": 55, "duration": 6, "velocity": 75}, {"time": 3615, "pitch": 58, "duration": 27, "velocity": 76}, {"time": 3621, "pitch": 62, "duration": 5, "velocity": 80}, {"time": 3624, "pitch": 65, "duration": 2, "velocity": 73}, {"time": 3627, "pitch": 70, "duration": 4, "velocity": 69}, {"time": 3630, "pitch": 72, "duration": 3, "velocity": 73}, {"time": 3633, "pitch": 74, "duration": 2, "velocity": 75}, {"time": 3636, "pitch": 75, "duration": 3, "velocity": 80}, {"time": 3639, "pitch": 62, "duration": 2, "velocity": 79}, {"time": 3639, "pitch": 74, "duration": 4, "velocity": 78}, {"time": 3642, "pitch": 70, "duration": 2, "velocity": 28}, {"time": 3645, "pitch": 67, "duration": 3, "velocity": 63}, {"time": 3648, "pitch": 72, "duration": 3, "velocity": 71}, {"time": 3651, "pitch": 48, "duration": 10, "velocity": 80}, {"time": 3651, "pitch": 67, "duration": 9, "velocity": 78}, {"time": 3651, "pitch": 75, "duration": 6, "velocity": 83}, {"time": 3657, "pitch": 55, "duration": 5, "velocity": 79}, {"time": 3657, "pitch": 74, "duration": 6, "velocity": 83}, {"time": 3663, "pitch": 60, "duration": 7, "velocity": 57}, {"time": 3663, "pitch": 67, "duration": 4, "velocity": 72}, {"time": 3663, "pitch": 75, "duration": 4, "velocity": 80}, {"time": 3669, "pitch": 62, "duration": 19, "velocity": 72}, {"time": 3669, "pitch": 67, "duration": 3, "velocity": 62}, {"time": 3669, "pitch": 74, "duration": 7, "velocity": 84}, {"time": 3675, "pitch": 67, "duration": 7, "velocity": 76}, {"time": 3675, "pitch": 72, "duration": 6, "velocity": 79}, {"time": 3681, "pitch": 63, "duration": 6, "velocity": 84}, {"time": 3687, "pitch": 67, "duration": 4, "velocity": 82}, {"time": 3687, "pitch": 70, "duration": 4, "velocity": 83}, {"time": 3699, "pitch": 44, "duration": 39, "velocity": 84}, {"time": 3699, "pitch": 63, "duration": 7, "velocity": 80}, {"time": 3699, "pitch": 68, "duration": 7, "velocity": 82}, {"time": 3699, "pitch": 72, "duration": 7, "velocity": 79}, {"time": 3705, "pitch": 56, "duration": 8, "velocity": 63}, {"time": 3711, "pitch": 63, "duration": 7, "velocity": 76}, {"time": 3711, "pitch": 68, "duration": 7, "velocity": 79}, {"time": 3711, "pitch": 72, "duration": 7, "velocity": 78}, {"time": 3717, "pitch": 56, "duration": 9, "velocity": 59}, {"time": 3723, "pitch": 63, "duration": 8, "velocity": 75}, {"time": 3723, "pitch": 68, "duration": 7, "velocity": 76}, {"time": 3723, "pitch": 72, "duration": 7, "velocity": 73}, {"time": 3729, "pitch": 56, "duration": 8, "velocity": 58}, {"time": 3735, "pitch": 63, "duration": 3, "velocity": 80}, {"time": 3735, "pitch": 68, "duration": 9, "velocity": 83}, {"time": 3735, "pitch": 72, "duration": 6, "velocity": 78}, {"time": 3741, "pitch": 56, "duration": 6, "velocity": 72}, {"time": 3747, "pitch": 46, "duration": 11, "velocity": 83}, {"time": 3747, "pitch": 65, "duration": 14, "velocity": 80}, {"time": 3747, "pitch": 70, "duration": 24, "velocity": 79}, {"time": 3747, "pitch": 74, "duration": 8, "velocity": 86}, {"time": 3753, "pitch": 53, "duration": 6, "velocity": 77}, {"time": 3759, "pitch": 58, "duration": 7, "velocity": 72}, {"time": 3765, "pitch": 60, "duration": 22, "velocity": 72}, {"time": 3771, "pitch": 62, "duration": 16, "velocity": 80}, {"time": 3777, "pitch": 65, "duration": 7, "velocity": 79}, {"time": 3783, "pitch": 70, "duration": 5, "velocity": 80}, {"time": 3789, "pitch": 74, "duration": 3, "velocity": 90}, {"time": 3795, "pitch": 43, "duration": 5, "velocity": 83}, {"time": 3795, "pitch": 65, "duration": 16, "velocity": 77}, {"time": 3795, "pitch": 70, "duration": 17, "velocity": 79}, {"time": 3795, "pitch": 74, "duration": 15, "velocity": 84}, {"time": 3801, "pitch": 55, "duration": 6, "velocity": 73}, {"time": 3807, "pitch": 58, "duration": 27, "velocity": 78}, {"time": 3813, "pitch": 62, "duration": 10, "velocity": 80}, {"time": 3819, "pitch": 65, "duration": 5, "velocity": 75}, {"time": 3825, "pitch": 70, "duration": 4, "velocity": 83}, {"time": 3831, "pitch": 62, "duration": 2, "velocity": 80}, {"time": 3831, "pitch": 74, "duration": 5, "velocity": 83}, {"time": 3837, "pitch": 77, "duration": 2, "velocity": 79}, {"time": 3843, "pitch": 48, "duration": 11, "velocity": 78}, {"time": 3843, "pitch": 67, "duration": 8, "velocity": 79}, {"time": 3843, "pitch": 75, "duration": 11, "velocity": 82}, {"time": 3849, "pitch": 55, "duration": 6, "velocity": 62}, {"time": 3855, "pitch": 60, "duration": 7, "velocity": 58}, {"time": 3855, "pitch": 67, "duration": 3, "velocity": 75}, {"time": 3855, "pitch": 74, "duration": 5, "velocity": 84}, {"time": 3855, "pitch": 75, "duration": 2, "velocity": 39}, {"time": 3861, "pitch": 62, "duration": 21, "velocity": 79}, {"time": 3861, "pitch": 67, "duration": 5, "velocity": 79}, {"time": 3861, "pitch": 72, "duration": 7, "velocity": 79}, {"time": 3867, "pitch": 63, "duration": 14, "velocity": 78}, {"time": 3873, "pitch": 65, "duration": 7, "velocity": 76}, {"time": 3879, "pitch": 72, "duration": 2, "velocity": 63}, {"time": 3879, "pitch": 84, "duration": 3, "velocity": 78}, {"time": 3885, "pitch": 74, "duration": 2, "velocity": 69}, {"time": 3885, "pitch": 86, "duration": 2, "velocity": 48}, {"time": 3891, "pitch": 43, "duration": 2, "velocity": 63}, {"time": 3891, "pitch": 44, "duration": 41, "velocity": 57}, {"time": 3891, "pitch": 68, "duration": 7, "velocity": 75}, {"time": 3891, "pitch": 75, "duration": 8, "velocity": 83}, {"time": 3897, "pitch": 56, "duration": 8, "velocity": 69}, {"time": 3903, "pitch": 63, "duration": 7, "velocity": 77}, {"time": 3903, "pitch": 68, "duration": 6, "velocity": 82}, {"time": 3903, "pitch": 72, "duration": 7, "velocity": 78}, {"time": 3903, "pitch": 75, "duration": 8, "velocity": 67}, {"time": 3909, "pitch": 56, "duration": 8, "velocity": 57}, {"time": 3915, "pitch": 63, "duration": 7, "velocity": 75}, {"time": 3915, "pitch": 68, "duration": 6, "velocity": 82}, {"time": 3915, "pitch": 72, "duration": 7, "velocity": 75}, {"time": 3915, "pitch": 75, "duration": 7, "velocity": 67}, {"time": 3921, "pitch": 56, "duration": 8, "velocity": 58}, {"time": 3927, "pitch": 63, "duration": 5, "velocity": 75}, {"time": 3927, "pitch": 68, "duration": 9, "velocity": 82}, {"time": 3927, "pitch": 72, "duration": 9, "velocity": 82}, {"time": 3927, "pitch": 75, "duration": 2, "velocity": 59}, {"time": 3933, "pitch": 56, "duration": 6, "velocity": 79}, {"time": 3939, "pitch": 46, "duration": 20, "velocity": 81}, {"time": 3939, "pitch": 65, "duration": 7, "velocity": 78}, {"time": 3939, "pitch": 70, "duration": 8, "velocity": 78}, {"time": 3939, "pitch": 74, "duration": 6, "velocity": 82}, {"time": 3945, "pitch": 58, "duration": 7, "velocity": 54}, {"time": 3951, "pitch": 65, "duration": 6, "velocity": 79}, {"time": 3951, "pitch": 70, "duration": 5, "velocity": 74}, {"time": 3951, "pitch": 74, "duration": 4, "velocity": 80}, {"time": 3957, "pitch": 58, "duration": 5, "velocity": 67}, {"time": 3963, "pitch": 46, "duration": 5, "velocity": 75}, {"time": 3963, "pitch": 65, "duration": 2, "velocity": 78}, {"time": 3963, "pitch": 77, "duration": 3, "velocity": 69}, {"time": 3969, "pitch": 58, "duration": 7, "velocity": 69}, {"time": 3969, "pitch": 67, "duration": 2, "velocity": 69}, {"time": 3969, "pitch": 79, "duration": 2, "velocity": 82}, {"time": 3975, "pitch": 60, "duration": 7, "velocity": 68}, {"time": 3975, "pitch": 70, "duration": 2, "velocity": 71}, {"time": 3975, "pitch": 82, "duration": 2, "velocity": 83}, {"time": 3981, "pitch": 62, "duration": 1, "velocity": 82}, {"time": 3981, "pitch": 72, "duration": 2, "velocity": 69}, {"time": 3981, "pitch": 84, "duration": 2, "velocity": 82}, {"time": 3987, "pitch": 43, "duration": 5, "velocity": 83}, {"time": 3987, "pitch": 74, "duration": 15, "velocity": 80}, {"time": 3987, "pitch": 86, "duration": 12, "velocity": 84}, {"time": 3993, "pitch": 55, "duration": 6, "velocity": 75}, {"time": 3999, "pitch": 58, "duration": 27, "velocity": 76}, {"time": 4005, "pitch": 62, "duration": 5, "velocity": 80}, {"time": 4008, "pitch": 65, "duration": 2, "velocity": 73}, {"time": 4011, "pitch": 70, "duration": 4, "velocity": 69}, {"time": 4014, "pitch": 72, "duration": 3, "velocity": 73}, {"time": 4017, "pitch": 74, "duration": 2, "velocity": 75}, {"time": 4020, "pitch": 75, "duration": 3, "velocity": 80}, {"time": 4023, "pitch": 62, "duration": 2, "velocity": 79}, {"time": 4023, "pitch": 74, "duration": 4, "velocity": 78}, {"time": 4026, "pitch": 70, "duration": 2, "velocity": 28}, {"time": 4029, "pitch": 67, "duration": 3, "velocity": 63}, {"time": 4032, "pitch": 72, "duration": 3, "velocity": 71}, {"time": 4035, "pitch": 48, "duration": 10, "velocity": 80}, {"time": 4035, "pitch": 67, "duration": 9, "velocity": 78}, {"time": 4035, "pitch": 75, "duration": 6, "velocity": 83}, {"time": 4041, "pitch": 55, "duration": 5, "velocity": 79}, {"time": 4041, "pitch": 74, "duration": 6, "velocity": 83}, {"time": 4047, "pitch": 60, "duration": 7, "velocity": 57}, {"time": 4047, "pitch": 67, "duration": 4, "velocity": 72}, {"time": 4047, "pitch": 75, "duration": 4, "velocity": 80}, {"time": 4053, "pitch": 62, "duration": 19, "velocity": 72}, {"time": 4053, "pitch": 67, "duration": 3, "velocity": 62}, {"time": 4053, "pitch": 74, "duration": 7, "velocity": 84}, {"time": 4059, "pitch": 67, "duration": 7, "velocity": 76}, {"time": 4059, "pitch": 72, "duration": 6, "velocity": 79}, {"time": 4065, "pitch": 63, "duration": 6, "velocity": 84}, {"time": 4071, "pitch": 67, "duration": 4, "velocity": 82}, {"time": 4071, "pitch": 70, "duration": 4, "velocity": 83}, {"time": 4083, "pitch": 44, "duration": 39, "velocity": 84}, {"time": 4083, "pitch": 63, "duration": 7, "velocity": 80}, {"time": 4083, "pitch": 68, "duration": 7, "velocity": 82}, {"time": 4083, "pitch": 72, "duration": 7, "velocity": 79}, {"time": 4089, "pitch": 56, "duration": 8, "velocity": 63}, {"time": 4095, "pitch": 63, "duration": 7, "velocity": 76}, {"time": 4095, "pitch": 68, "duration": 7, "velocity": 79}, {"time": 4095, "pitch": 72, "duration": 7, "velocity": 78}, {"time": 4101, "pitch": 56, "duration": 9, "velocity": 59}, {"time": 4107, "pitch": 63, "duration": 8, "velocity": 75}, {"time": 4107, "pitch": 68, "duration": 7, "velocity": 76}, {"time": 4107, "pitch": 72, "duration": 7, "velocity": 73}, {"time": 4113, "pitch": 56, "duration": 8, "velocity": 58}, {"time": 4119, "pitch": 63, "duration": 3, "velocity": 80}, {"time": 4119, "pitch": 68, "duration": 9, "velocity": 83}, {"time": 4119, "pitch": 72, "duration": 6, "velocity": 78}, {"time": 4125, "pitch": 56, "duration": 6, "velocity": 72}, {"time": 4131, "pitch": 46, "duration": 11, "velocity": 83}, {"time": 4131, "pitch": 65, "duration": 14, "velocity": 80}, {"time": 4131, "pitch": 70, "duration": 24, "velocity": 79}, {"time": 4131, "pitch": 74, "duration": 8, "velocity": 86}, {"time": 4137, "pitch": 53, "duration": 6, "velocity": 77}, {"time": 4143, "pitch": 58, "duration": 7, "velocity": 72}, {"time": 4149, "pitch": 60, "duration": 22, "velocity": 72}, {"time": 4155, "pitch": 62, "duration": 16, "velocity": 80}, {"time": 4161, "pitch": 65, "duration": 7, "velocity": 79}, {"time": 4167, "pitch": 70, "duration": 5, "velocity": 80}, {"time": 4173, "pitch": 74, "duration": 3, "velocity": 90}, {"time": 4179, "pitch": 43, "duration": 5, "velocity": 83}, {"time": 4179, "pitch": 65, "duration": 16, "velocity": 77}, {"time": 4179, "pitch": 70, "duration": 17, "velocity": 79}, {"time": 4179, "pitch": 74, "duration": 15, "velocity": 84}, {"time": 4185, "pitch": 55, "duration": 6, "velocity": 73}, {"time": 4191, "pitch": 58, "duration": 27, "velocity": 78}, {"time": 4197, "pitch": 62, "duration": 10, "velocity": 80}, {"time": 4203, "pitch": 65, "duration": 5, "velocity": 75}, {"time": 4209, "pitch": 70, "duration": 4, "velocity": 83}, {"time": 4215, "pitch": 62, "duration": 2, "velocity": 80}, {"time": 4215, "pitch": 74, "duration": 5, "velocity": 83}, {"time": 4221, "pitch": 77, "duration": 2, "velocity": 79}, {"time": 4227, "pitch": 48, "duration": 11, "velocity": 78}, {"time": 4227, "pitch": 67, "duration": 8, "velocity": 79}, {"time": 4227, "pitch": 75, "duration": 11, "velocity": 82}, {"time": 4233, "pitch": 55, "duration": 6, "velocity": 62}, {"time": 4239, "pitch": 60, "duration": 7, "velocity": 58}, {"time": 4239, "pitch": 67, "duration": 3, "velocity": 75}, {"time": 4239, "pitch": 74, "duration": 5, "velocity": 84}, {"time": 4239, "pitch": 75, "duration": 2, "velocity": 39}, {"time": 4245, "pitch": 62, "duration": 21, "velocity": 79}, {"time": 4245, "pitch": 67, "duration": 5, "velocity": 79}, {"time": 4245, "pitch": 72, "duration": 7, "velocity": 79}, {"time": 4251, "pitch": 63, "duration": 14, "velocity": 78}, {"time": 4257, "pitch": 65, "duration": 7, "velocity": 76}, {"time": 4263, "pitch": 72, "duration": 2, "velocity": 63}, {"time": 4263, "pitch": 84, "duration": 3, "velocity": 78}, {"time": 4269, "pitch": 74, "duration": 2, "velocity": 69}, {"time": 4269, "pitch": 86, "duration": 2, "velocity": 48}, {"time": 4275, "pitch": 44, "duration": 10, "velocity": 78}, {"time": 4275, "pitch": 72, "duration": 7, "velocity": 80}, {"time": 4275, "pitch": 80, "duration": 8, "velocity": 90}, {"time": 4281, "pitch": 51, "duration": 5, "velocity": 78}, {"time": 4287, "pitch": 56, "duration": 7, "velocity": 72}, {"time": 4287, "pitch": 72, "duration": 3, "velocity": 80}, {"time": 4287, "pitch": 79, "duration": 3, "velocity": 84}, {"time": 4293, "pitch": 58, "duration": 23, "velocity": 71}, {"time": 4299, "pitch": 67, "duration": 6, "velocity": 78}, {"time": 4299, "pitch": 75, "duration": 6, "velocity": 86}, {"time": 4305, "pitch": 60, "duration": 10, "velocity": 63}, {"time": 4311, "pitch": 63, "duration": 5, "velocity": 78}, {"time": 4311, "pitch": 68, "duration": 6, "velocity": 81}, {"time": 4317, "pitch": 75, "duration": 6, "velocity": 83}, {"time": 4323, "pitch": 46, "duration": 10, "velocity": 78}, {"time": 4323, "pitch": 65, "duration": 23, "velocity": 75}, {"time": 4323, "pitch": 70, "duration": 25, "velocity": 75}, {"time": 4323, "pitch": 74, "duration": 26, "velocity": 84}, {"time": 4329, "pitch": 53, "duration": 6, "velocity": 75}, {"time": 4335, "pitch": 58, "duration": 7, "velocity": 69}, {"time": 4341, "pitch": 60, "duration": 14, "velocity": 75}, {"time": 4347, "pitch": 62, "duration": 13, "velocity": 82}, {"time": 4353, "pitch": 65, "duration": 5, "velocity": 72}, {"time": 4359, "pitch": 60, "duration": 3, "velocity": 73}, {"time": 4359, "pitch": 72, "duration": 6, "velocity": 78}, {"time": 4365, "pitch": 77, "duration": 6, "velocity": 83}, {"time": 4371, "pitch": 43, "duration": 6, "velocity": 82}, {"time": 4371, "pitch": 70, "duration": 18, "velocity": 81}, {"time": 4371, "pitch": 74, "duration": 18, "velocity": 83}, {"time": 4377, "pitch": 55, "duration": 7, "velocity": 78}, {"time": 4383, "pitch": 58, "duration": 28, "velocity": 76}, {"time": 4389, "pitch": 62, "duration": 6, "velocity": 80}, {"time": 4395, "pitch": 65, "duration": 7, "velocity": 76}, {"time": 4401, "pitch": 62, "duration": 8, "velocity": 76}, {"time": 4407, "pitch": 70, "duration": 6, "velocity": 78}, {"time": 4413, "pitch": 72, "duration": 4, "velocity": 79}, {"time": 4416, "pitch": 74, "duration": 3, "velocity": 82}, {"time": 4419, "pitch": 48, "duration": 11, "velocity": 79}, {"time": 4419, "pitch": 67, "duration": 9, "velocity": 76}, {"time": 4419, "pitch": 75, "duration": 11, "velocity": 82}, {"time": 4425, "pitch": 55, "duration": 5, "velocity": 78}, {"time": 4431, "pitch": 60, "duration": 7, "velocity": 71}, {"time": 4431, "pitch": 67, "duration": 3, "velocity": 72}, {"time": 4431, "pitch": 74, "duration": 6, "velocity": 84}, {"time": 4437, "pitch": 62, "duration": 8, "velocity": 79}, {"time": 4437, "pitch": 67, "duration": 7, "velocity": 57}, {"time": 4437, "pitch": 75, "duration": 8, "velocity": 80}, {"time": 4443, "pitch": 63, "duration": 7, "velocity": 79}, {"time": 4449, "pitch": 62, "duration": 9, "velocity": 69}, {"time": 4449, "pitch": 67, "duration": 3, "velocity": 81}, {"time": 4449, "pitch": 74, "duration": 3, "velocity": 84}, {"time": 4449, "pitch": 75, "duration": 1, "velocity": 55}, {"time": 4455, "pitch": 70, "duration": 5, "velocity": 79}, {"time": 4461, "pitch": 67, "duration": 4, "velocity": 78}, {"time": 4467, "pitch": 44, "duration": 44, "velocity": 78}, {"time": 4467, "pitch": 63, "duration": 8, "velocity": 72}, {"time": 4467, "pitch": 68, "duration": 7, "velocity": 73}, {"time": 4467, "pitch": 72, "duration": 8, "velocity": 76}, {"time": 4473, "pitch": 51, "duration": 32, "velocity": 79}, {"time": 4479, "pitch": 56, "duration": 8, "velocity": 75}, {"time": 4485, "pitch": 60, "duration": 14, "velocity": 70}, {"time": 4485, "pitch": 63, "duration": 14, "velocity": 82}, {"time": 4485, "pitch": 68, "duration": 7, "velocity": 86}, {"time": 4497, "pitch": 56, "duration": 5, "velocity": 79}, {"time": 4503, "pitch": 60, "duration": 5, "velocity": 76}, {"time": 4503, "pitch": 63, "duration": 10, "velocity": 80}, {"time": 4503, "pitch": 68, "duration": 7, "velocity": 82}, {"time": 4509, "pitch": 51, "duration": 7, "velocity": 5}, {"time": 4509, "pitch": 56, "duration": 5, "velocity": 71}, {"time": 4515, "pitch": 46, "duration": 42, "velocity": 82}, {"time": 4515, "pitch": 62, "duration": 13, "velocity": 84}, {"time": 4515, "pitch": 65, "duration": 12, "velocity": 82}, {"time": 4515, "pitch": 70, "duration": 14, "velocity": 83}, {"time": 4521, "pitch": 53, "duration": 28, "velocity": 78}, {"time": 4527, "pitch": 58, "duration": 7, "velocity": 79}, {"time": 4533, "pitch": 62, "duration": 7, "velocity": 81}, {"time": 4533, "pitch": 65, "duration": 11, "velocity": 84}, {"time": 4539, "pitch": 58, "duration": 14, "velocity": 55}, {"time": 4545, "pitch": 62, "duration": 9, "velocity": 74}, {"time": 4545, "pitch": 70, "duration": 6, "velocity": 84}, {"time": 4551, "pitch": 65, "duration": 5, "velocity": 84}, {"time": 4557, "pitch": 53, "duration": 2, "velocity": 80}, {"time": 4557, "pitch": 70, "duration": 4, "velocity": 71}, {"time": 4563, "pitch": 43, "duration": 5, "velocity": 83}, {"time": 4563, "pitch": 62, "duration": 11, "velocity": 73}, {"time": 4563, "pitch": 65, "duration": 14, "velocity": 84}, {"time": 4569, "pitch": 55, "duration": 7, "velocity": 77}, {"time": 4575, "pitch": 58, "duration": 27, "velocity": 76}, {"time": 4581, "pitch": 62, "duration": 9, "velocity": 78}, {"time": 4587, "pitch": 65, "duration": 7, "velocity": 77}, {"time": 4593, "pitch": 70, "duration": 5, "velocity": 77}, {"time": 4599, "pitch": 62, "duration": 2, "velocity": 82}, {"time": 4599, "pitch": 72, "duration": 5, "velocity": 78}, {"time": 4605, "pitch": 74, "duration": 6, "velocity": 84}, {"time": 4611, "pitch": 48, "duration": 40, "velocity": 79}, {"time": 4611, "pitch": 67, "duration": 8, "velocity": 70}, {"time": 4611, "pitch": 75, "duration": 6, "velocity": 83}, {"time": 4617, "pitch": 55, "duration": 34, "velocity": 76}, {"time": 4623, "pitch": 60, "duration": 7, "velocity": 63}, {"time": 4629, "pitch": 63, "duration": 5, "velocity": 80}, {"time": 4629, "pitch": 67, "duration": 5, "velocity": 78}, {"time": 4635, "pitch": 62, "duration": 5, "velocity": 61}, {"time": 4635, "pitch": 65, "duration": 5, "velocity": 78}, {"time": 4641, "pitch": 63, "duration": 3, "velocity": 74}, {"time": 4641, "pitch": 67, "duration": 5, "velocity": 70}, {"time": 4647, "pitch": 60, "duration": 3, "velocity": 59}, {"time": 4647, "pitch": 63, "duration": 1, "velocity": 27}, {"time": 4647, "pitch": 70, "duration": 3, "velocity": 82}, {"time": 4659, "pitch": 48, "duration": 11, "velocity": 76}, {"time": 4659, "pitch": 75, "duration": 5, "velocity": 73}, {"time": 4659, "pitch": 79, "duration": 6, "velocity": 69}, {"time": 4665, "pitch": 55, "duration": 5, "velocity": 73}, {"time": 4665, "pitch": 74, "duration": 5, "velocity": 62}, {"time": 4665, "pitch": 77, "duration": 5, "velocity": 76}, {"time": 4671, "pitch": 60, "duration": 7, "velocity": 54}, {"time": 4671, "pitch": 75, "duration": 10, "velocity": 73}, {"time": 4671, "pitch": 79, "duration": 8, "velocity": 74}, {"time": 4677, "pitch": 62, "duration": 14, "velocity": 76}, {"time": 4683, "pitch": 63, "duration": 13, "velocity": 76}, {"time": 4689, "pitch": 67, "duration": 4, "velocity": 78}, {"time": 4695, "pitch": 62, "duration": 2, "velocity": 79}, {"time": 4695, "pitch": 72, "duration": 5, "velocity": 79}, {"time": 4701, "pitch": 75, "duration": 5, "velocity": 90}, {"time": 4707, "pitch": 46, "duration": 7, "velocity": 77}, {"time": 4707, "pitch": 74, "duration": 5, "velocity": 82}, {"time": 4713, "pitch": 58, "duration": 6, "velocity": 60}, {"time": 4713, "pitch": 72, "duration": 5, "velocity": 78}, {"time": 4719, "pitch": 60, "duration": 12, "velocity": 68}, {"time": 4719, "pitch": 74, "duration": 7, "velocity": 83}, {"time": 4725, "pitch": 62, "duration": 18, "velocity": 82}, {"time": 4731, "pitch": 65, "duration": 5, "velocity": 75}, {"time": 4737, "pitch": 72, "duration": 5, "velocity": 77}, {"time": 4743, "pitch": 60, "duration": 3, "velocity": 70}, {"time": 4743, "pitch": 74, "duration": 4, "velocity": 75}, {"time": 4749, "pitch": 70, "duration": 5, "velocity": 75}, {"time": 4755, "pitch": 44, "duration": 7, "velocity": 77}, {"time": 4755, "pitch": 63, "duration": 21, "velocity": 70}, {"time": 4755, "pitch": 68, "duration": 25, "velocity": 68}, {"time": 4755, "pitch": 72, "duration": 29, "velocity": 79}, {"time": 4761, "pitch": 51, "duration": 6, "velocity": 76}, {"time": 4767, "pitch": 56, "duration": 6, "velocity": 71}, {"time": 4773, "pitch": 58, "duration": 21, "velocity": 73}, {"time": 4779, "pitch": 60, "duration": 14, "velocity": 75}, {"time": 4785, "pitch": 63, "duration": 6, "velocity": 79}, {"time": 4791, "pitch": 68, "duration": 5, "velocity": 80}, {"time": 4797, "pitch": 72, "duration": 6, "velocity": 72}, {"time": 4803, "pitch": 43, "duration": 5, "velocity": 84}, {"time": 4803, "pitch": 67, "duration": 19, "velocity": 62}, {"time": 4803, "pitch": 74, "duration": 18, "velocity": 86}, {"time": 4809, "pitch": 55, "duration": 7, "velocity": 71}, {"time": 4815, "pitch": 60, "duration": 28, "velocity": 75}, {"time": 4821, "pitch": 62, "duration": 14, "velocity": 82}, {"time": 4827, "pitch": 71, "duration": 7, "velocity": 79}, {"time": 4833, "pitch": 72, "duration": 5, "velocity": 78}, {"time": 4839, "pitch": 62, "duration": 3, "velocity": 81}, {"time": 4839, "pitch": 74, "duration": 5, "velocity": 84}, {"time": 4845, "pitch": 75, "duration": 6, "velocity": 86}, {"time": 4851, "pitch": 48, "duration": 43, "velocity": 82}, {"time": 4851, "pitch": 79, "duration": 6, "velocity": 83}, {"time": 4857, "pitch": 55, "duration": 31, "velocity": 76}, {"time": 4863, "pitch": 60, "duration": 8, "velocity": 76}, {"time": 4869, "pitch": 62, "duration": 6, "velocity": 77}, {"time": 4875, "pitch": 63, "duration": 2, "velocity": 84}, {"time": 4881, "pitch": 67, "duration": 4, "velocity": 84}, {"time": 4887, "pitch": 60, "duration": 4, "velocity": 71}, {"time": 4887, "pitch": 67, "duration": 1, "velocity": 33}, {"time": 4887, "pitch": 75, "duration": 5, "velocity": 84}, {"time": 4893, "pitch": 55, "duration": 5, "velocity": 80}, {"time": 4893, "pitch": 74, "duration": 5, "velocity": 79}, {"time": 4899, "pitch": 46, "duration": 10, "velocity": 75}, {"time": 4899, "pitch": 70, "duration": 22, "velocity": 78}, {"time": 4905, "pitch": 53, "duration": 6, "velocity": 63}, {"time": 4911, "pitch": 58, "duration": 7, "velocity": 72}, {"time": 4917, "pitch": 60, "duration": 14, "velocity": 61}, {"time": 4923, "pitch": 62, "duration": 13, "velocity": 79}, {"time": 4929, "pitch": 65, "duration": 9, "velocity": 79}, {"time": 4935, "pitch": 60, "duration": 6, "velocity": 75}, {"time": 4941, "pitch": 72, "duration": 3, "velocity": 68}, {"time": 4944, "pitch": 74, "duration": 2, "velocity": 86}, {"time": 4947, "pitch": 75, "duration": 14, "velocity": 84}, {"time": 4947, "pitch": 44, "duration": 18, "velocity": 83}, {"time": 4952, "pitch": 51, "duration": 19, "velocity": 76}, {"time": 4959, "pitch": 56, "duration": 11, "velocity": 83}, {"time": 4965, "pitch": 63, "duration": 6, "velocity": 38}, {"time": 4971, "pitch": 74, "duration": 13, "velocity": 82}, {"time": 4971, "pitch": 46, "duration": 13, "velocity": 82}, {"time": 4971, "pitch": 70, "duration": 11, "velocity": 76}, {"time": 4977, "pitch": 53, "duration": 17, "velocity": 79}, {"time": 4983, "pitch": 72, "duration": 5, "velocity": 78}, {"time": 4983, "pitch": 58, "duration": 8, "velocity": 67}, {"time": 4989, "pitch": 74, "duration": 5, "velocity": 83}, {"time": 4995, "pitch": 48, "duration": 10, "velocity": 82}, {"time": 4995, "pitch": 67, "duration": 26, "velocity": 75}, {"time": 4995, "pitch": 75, "duration": 26, "velocity": 80}, {"time": 5000, "pitch": 55, "duration": 7, "velocity": 78}, {"time": 5007, "pitch": 60, "duration": 7, "velocity": 59}, {"time": 5013, "pitch": 62, "duration": 18, "velocity": 80}, {"time": 5019, "pitch": 63, "duration": 11, "velocity": 80}, {"time": 5025, "pitch": 67, "duration": 5, "velocity": 76}, {"time": 5031, "pitch": 72, "duration": 6, "velocity": 76}, {"time": 5037, "pitch": 74, "duration": 5, "velocity": 84}, {"time": 5042, "pitch": 72, "duration": 18, "velocity": 6}, {"time": 5043, "pitch": 75, "duration": 18, "velocity": 83}, {"time": 5043, "pitch": 48, "duration": 18, "velocity": 77}, {"time": 5043, "pitch": 67, "duration": 17, "velocity": 71}, {"time": 5043, "pitch": 60, "duration": 17, "velocity": 52}], "annotations": [{"time": 50, "annotation": {"number": 64, "value": 127}, "group": "control_change"}, {"time": 100, "annotation": {"number": 64, "value": 0}, "group": "control_change"}, {"time": 103, "annotation": {"number": 64, "value": 127}, "group": "control_change"}, {"time": 148, "annotation": {"number": 64, "value": 0}, "group": "control_change"}, {"time": 151, "annotation": {"number": 64, "value": 127}, "group": "control_change"}, {"time": 193, "annotation": {"number": 64, "value": 0}, "group": "control_change"}, {"time": 196, "annotation": {"number": 64, "value": 127}, "group": "control_change"}, {"time": 242, "annotation": {"number": 64, "value": 0}, "group": "control_change"}, {"time": 245, "annotation": {"number": 64, "value": 127}, "group": "control_change"}, {"time": 294, "annotation": {"number": 64, "value": 0}, "group": "control_change"}, {"time": 297, "annotation": {"number": 64, "value": 127}, "group": "control_change"}, {"time": 340, "annotation": {"number": 64, "value": 0}, "group": "control_change"}, {"time": 343, "annotation": {"number": 64, "value": 127}, "group": "control_change"}, {"time": 385, "annotation": {"number": 64, "value": 0}, "group": "control_change"}, {"time": 389, "annotation": {"number": 64, "value": 127}, "group": "control_change"}, {"time": 434, "annotation": {"number": 64, "value": 0}, "group": "control_change"}, {"time": 440, "annotation": {"number": 64, "value": 127}, "group": "control_change"}, {"time": 484, "annotation": {"number": 64, "value": 0}, "group": "control_change"}, {"time": 488, "annotation": {"number": 64, "value": 127}, "group": "control_change"}, {"time": 531, "annotation": {"number": 64, "value": 0}, "group": "control_change"}, {"time": 536, "annotation": {"number": 64, "value": 127}, "group": "control_change"}, {"time": 580, "annotation": {"number": 64, "value": 0}, "group": "control_change"}, {"time": 584, "annotation": {"number": 64, "value": 127}, "group": "control_change"}, {"time": 627, "annotation": {"number": 64, "value": 0}, "group": "control_change"}, {"time": 631, "annotation": {"number": 64, "value": 127}, "group": "control_change"}, {"time": 675, "annotation": {"number": 64, "value": 0}, "group": "control_change"}, {"time": 679, "annotation": {"number": 64, "value": 127}, "group": "control_change"}, {"time": 724, "annotation": {"number": 64, "value": 0}, "group": "control_change"}, {"time": 728, "annotation": {"number": 64, "value": 127}, "group": "control_change"}, {"time": 748, "annotation": {"number": 64, "value": 0}, "group": "control_change"}, {"time": 752, "annotation": {"number": 64, "value": 127}, "group": "control_change"}, {"time": 771, "annotation": {"number": 64, "value": 0}, "group": "control_change"}, {"time": 775, "annotation": {"number": 64, "value": 127}, "group": "control_change"}, {"time": 818, "annotation": {"number": 64, "value": 0}, "group": "control_change"}, {"time": 821, "annotation": {"number": 64, "value": 127}, "group": "control_change"}, {"time": 868, "annotation": {"number": 64, "value": 0}, "group": "control_change"}, {"time": 872, "annotation": {"number": 64, "value": 127}, "group": "control_change"}, {"time": 916, "annotation": {"number": 64, "value": 0}, "group": "control_change"}, {"time": 919, "annotation": {"number": 64, "value": 127}, "group": "control_change"}, {"time": 965, "annotation": {"number": 64, "value": 0}, "group": "control_change"}, {"time": 968, "annotation": {"number": 64, "value": 127}, "group": "control_change"}, {"time": 1013, "annotation": {"number": 64, "value": 0}, "group": "control_change"}, {"time": 1016, "annotation": {"number": 64, "value": 127}, "group": "control_change"}, {"time": 1060, "annotation": {"number": 64, "value": 0}, "group": "control_change"}, {"time": 1064, "annotation": {"number": 64, "value": 127}, "group": "control_change"}, {"time": 1110, "annotation": {"number": 64, "value": 0}, "group": "control_change"}, {"time": 1113, "annotation": {"number": 64, "value": 127}, "group": "control_change"}, {"time": 1132, "annotation": {"number": 64, "value": 0}, "group": "control_change"}, {"time": 1136, "annotation": {"number": 64, "value": 127}, "group": "control_change"}, {"time": 1154, "annotation": {"number": 64, "value": 0}, "group": "control_change"}, {"time": 1157, "annotation": {"number": 64, "value": 127}, "group": "control_change"}, {"time": 1250, "annotation": {"number": 64, "value": 0}, "group": "control_change"}, {"time": 1254, "annotation": {"number": 64, "value": 127}, "group": "control_change"}, {"time": 1298, "annotation": {"number": 64, "value": 0}, "group": "control_change"}, {"time": 1301, "annotation": {"number": 64, "value": 127}, "group": "control_change"}, {"time": 1347, "annotation": {"number": 64, "value": 0}, "group": "control_change"}, {"time": 1350, "annotation": {"number": 64, "value": 127}, "group": "control_change"}, {"time": 1395, "annotation": {"number": 64, "value": 0}, "group": "control_change"}, {"time": 1399, "annotation": {"number": 64, "value": 127}, "group": "control_change"}, {"time": 1445, "annotation": {"number": 64, "value": 0}, "group": "control_change"}, {"time": 1448, "annotation": {"number": 64, "value": 127}, "group": "control_change"}, {"time": 1491, "annotation": {"number": 64, "value": 0}, "group": "control_change"}, {"time": 1491, "annotation": {"number": 64, "value": 127}, "group": "control_change"}, {"time": 1540, "annotation": {"number": 64, "value": 0}, "group": "control_change"}, {"time": 1543, "annotation": {"number": 64, "value": 127}, "group": "control_change"}, {"time": 1565, "annotation": {"number": 64, "value": 0}, "group": "control_change"}, {"time": 1568, "annotation": {"number": 64, "value": 127}, "group": "control_change"}, {"time": 1588, "annotation": {"number": 64, "value": 0}, "group": "control_change"}, {"time": 1591, "annotation": {"number": 64, "value": 127}, "group": "control_change"}, {"time": 1634, "annotation": {"number": 64, "value": 0}, "group": "control_change"}, {"time": 1637, "annotation": {"number": 64, "value": 127}, "group": "control_change"}, {"time": 1684, "annotation": {"number": 64, "value": 0}, "group": "control_change"}, {"time": 1687, "annotation": {"number": 64, "value": 127}, "group": "control_change"}, {"time": 1731, "annotation": {"number": 64, "value": 0}, "group": "control_change"}, {"time": 1733, "annotation": {"number": 64, "value": 127}, "group": "control_change"}, {"time": 1780, "annotation": {"number": 64, "value": 0}, "group": "control_change"}, {"time": 1782, "annotation": {"number": 64, "value": 127}, "group": "control_change"}, {"time": 1783, "annotation": {"number": 64, "value": 127}, "group": "control_change"}, {"time": 1804, "annotation": {"number": 64, "value": 0}, "group": "control_change"}, {"time": 1827, "annotation": {"number": 64, "value": 0}, "group": "control_change"}, {"time": 1831, "annotation": {"number": 64, "value": 127}, "group": "control_change"}, {"time": 1877, "annotation": {"number": 64, "value": 0}, "group": "control_change"}, {"time": 1880, "annotation": {"number": 64, "value": 127}, "group": "control_change"}, {"time": 1924, "annotation": {"number": 64, "value": 0}, "group": "control_change"}, {"time": 1927, "annotation": {"number": 64, "value": 127}, "group": "control_change"}, {"time": 1971, "annotation": {"number": 64, "value": 0}, "group": "control_change"}, {"time": 1972, "annotation": {"number": 64, "value": 127}, "group": "control_change"}, {"time": 2019, "annotation": {"number": 64, "value": 0}, "group": "control_change"}, {"time": 2025, "annotation": {"number": 64, "value": 127}, "group": "control_change"}, {"time": 2068, "annotation": {"number": 64, "value": 0}, "group": "control_change"}, {"time": 2076, "annotation": {"number": 64, "value": 127}, "group": "control_change"}, {"time": 2114, "annotation": {"number": 64, "value": 0}, "group": "control_change"}, {"time": 2120, "annotation": {"number": 64, "value": 127}, "group": "control_change"}, {"time": 2164, "annotation": {"number": 64, "value": 0}, "group": "control_change"}, {"time": 2169, "annotation": {"number": 64, "value": 127}, "group": "control_change"}, {"time": 2213, "annotation": {"number": 64, "value": 0}, "group": "control_change"}, {"time": 2217, "annotation": {"number": 64, "value": 127}, "group": "control_change"}, {"time": 2259, "annotation": {"number": 64, "value": 0}, "group": "control_change"}, {"time": 2262, "annotation": {"number": 64, "value": 127}, "group": "control_change"}, {"time": 2308, "annotation": {"number": 64, "value": 0}, "group": "control_change"}, {"time": 2311, "annotation": {"number": 64, "value": 127}, "group": "control_change"}, {"time": 2354, "annotation": {"number": 64, "value": 0}, "group": "control_change"}, {"time": 2360, "annotation": {"number": 64, "value": 127}, "group": "control_change"}, {"time": 2404, "annotation": {"number": 64, "value": 0}, "group": "control_change"}, {"time": 2408, "annotation": {"number": 64, "value": 127}, "group": "control_change"}, {"time": 2451, "annotation": {"number": 64, "value": 0}, "group": "control_change"}, {"time": 2456, "annotation": {"number": 64, "value": 127}, "group": "control_change"}, {"time": 2500, "annotation": {"number": 64, "value": 0}, "group": "control_change"}, {"time": 2504, "annotation": {"number": 64, "value": 127}, "group": "control_change"}, {"time": 2547, "annotation": {"number": 64, "value": 0}, "group": "control_change"}, {"time": 2551, "annotation": {"number": 64, "value": 127}, "group": "control_change"}, {"time": 2595, "annotation": {"number": 64, "value": 0}, "group": "control_change"}, {"time": 2599, "annotation": {"number": 64, "value": 127}, "group": "control_change"}, {"time": 2644, "annotation": {"number": 64, "value": 0}, "group": "control_change"}, {"time": 2648, "annotation": {"number": 64, "value": 127}, "group": "control_change"}, {"time": 2668, "annotation": {"number": 64, "value": 0}, "group": "control_change"}, {"time": 2672, "annotation": {"number": 64, "value": 127}, "group": "control_change"}, {"time": 2691, "annotation": {"number": 64, "value": 0}, "group": "control_change"}, {"time": 2695, "annotation": {"number": 64, "value": 127}, "group": "control_change"}, {"time": 2738, "annotation": {"number": 64, "value": 0}, "group": "control_change"}, {"time": 2741, "annotation": {"number": 64, "value": 127}, "group": "control_change"}, {"time": 2788, "annotation": {"number": 64, "value": 0}, "group": "control_change"}, {"time": 2792, "annotation": {"number": 64, "value": 127}, "group": "control_change"}, {"time": 2836, "annotation": {"number": 64, "value": 0}, "group": "control_change"}, {"time": 2839, "annotation": {"number": 64, "value": 127}, "group": "control_change"}, {"time": 2885, "annotation": {"number": 64, "value": 0}, "group": "control_change"}, {"time": 2888, "annotation": {"number": 64, "value": 127}, "group": "control_change"}, {"time": 2933, "annotation": {"number": 64, "value": 0}, "group": "control_change"}, {"time": 2936, "annotation": {"number": 64, "value": 127}, "group": "control_change"}, {"time": 2980, "annotation": {"number": 64, "value": 0}, "group": "control_change"}, {"time": 2984, "annotation": {"number": 64, "value": 127}, "group": "control_change"}, {"time": 3030, "annotation": {"number": 64, "value": 0}, "group": "control_change"}, {"time": 3033, "annotation": {"number": 64, "value": 127}, "group": "control_change"}, {"time": 3052, "annotation": {"number": 64, "value": 0}, "group": "control_change"}, {"time": 3056, "annotation": {"number": 64, "value": 127}, "group": "control_change"}, {"time": 3074, "annotation": {"number": 64, "value": 0}, "group": "control_change"}, {"time": 3077, "annotation": {"number": 64, "value": 127}, "group": "control_change"}, {"time": 3121, "annotation": {"number": 64, "value": 127}, "group": "control_change"}, {"time": 3122, "annotation": {"number": 64, "value": 0}, "group": "control_change"}, {"time": 3170, "annotation": {"number": 64, "value": 0}, "group": "control_change"}, {"time": 3174, "annotation": {"number": 64, "value": 127}, "group": "control_change"}, {"time": 3218, "annotation": {"number": 64, "value": 0}, "group": "control_change"}, {"time": 3221, "annotation": {"number": 64, "value": 127}, "group": "control_change"}, {"time": 3267, "annotation": {"number": 64, "value": 0}, "group": "control_change"}, {"time": 3270, "annotation": {"number": 64, "value": 127}, "group": "control_change"}, {"time": 3315, "annotation": {"number": 64, "value": 0}, "group": "control_change"}, {"time": 3319, "annotation": {"number": 64, "value": 127}, "group": "control_change"}, {"time": 3365, "annotation": {"number": 64, "value": 0}, "group": "control_change"}, {"time": 3368, "annotation": {"number": 64, "value": 127}, "group": "control_change"}, {"time": 3411, "annotation": {"number": 64, "value": 0}, "group": "control_change"}, {"time": 3411, "annotation": {"number": 64, "value": 127}, "group": "control_change"}, {"time": 3460, "annotation": {"number": 64, "value": 0}, "group": "control_change"}, {"time": 3463, "annotation": {"number": 64, "value": 127}, "group": "control_change"}, {"time": 3485, "annotation": {"number": 64, "value": 0}, "group": "control_change"}, {"time": 3488, "annotation": {"number": 64, "value": 127}, "group": "control_change"}, {"time": 3507, "annotation": {"number": 64, "value": 0}, "group": "control_change"}, {"time": 3508, "annotation": {"number": 64, "value": 0}, "group": "control_change"}, {"time": 3511, "annotation": {"number": 64, "value": 127}, "group": "control_change"}, {"time": 3554, "annotation": {"number": 64, "value": 0}, "group": "control_change"}, {"time": 3557, "annotation": {"number": 64, "value": 127}, "group": "control_change"}, {"time": 3604, "annotation": {"number": 64, "value": 0}, "group": "control_change"}, {"time": 3607, "annotation": {"number": 64, "value": 127}, "group": "control_change"}, {"time": 3651, "annotation": {"number": 64, "value": 0}, "group": "control_change"}, {"time": 3653, "annotation": {"number": 64, "value": 127}, "group": "control_change"}, {"time": 3700, "annotation": {"number": 64, "value": 0}, "group": "control_change"}, {"time": 3702, "annotation": {"number": 64, "value": 127}, "group": "control_change"}, {"time": 3703, "annotation": {"number": 64, "value": 127}, "group": "control_change"}, {"time": 3724, "annotation": {"number": 64, "value": 0}, "group": "control_change"}, {"time": 3747, "annotation": {"number": 64, "value": 0}, "group": "control_change"}, {"time": 3751, "annotation": {"number": 64, "value": 127}, "group": "control_change"}, {"time": 3797, "annotation": {"number": 64, "value": 0}, "group": "control_change"}, {"time": 3800, "annotation": {"number": 64, "value": 127}, "group": "control_change"}, {"time": 3844, "annotation": {"number": 64, "value": 0}, "group": "control_change"}, {"time": 3847, "annotation": {"number": 64, "value": 127}, "group": "control_change"}, {"time": 3891, "annotation": {"number": 64, "value": 0}, "group": "control_change"}, {"time": 3892, "annotation": {"number": 64, "value": 0}, "group": "control_change"}, {"time": 3895, "annotation": {"number": 64, "value": 127}, "group": "control_change"}, {"time": 3938, "annotation": {"number": 64, "value": 0}, "group": "control_change"}, {"time": 3941, "annotation": {"number": 64, "value": 127}, "group": "control_change"}, {"time": 3988, "annotation": {"number": 64, "value": 0}, "group": "control_change"}, {"time": 3991, "annotation": {"number": 64, "value": 127}, "group": "control_change"}, {"time": 4035, "annotation": {"number": 64, "value": 0}, "group": "control_change"}, {"time": 4037, "annotation": {"number": 64, "value": 127}, "group": "control_change"}, {"time": 4084, "annotation": {"number": 64, "value": 0}, "group": "control_change"}, {"time": 4086, "annotation": {"number": 64, "value": 127}, "group": "control_change"}, {"time": 4087, "annotation": {"number": 64, "value": 127}, "group": "control_change"}, {"time": 4108, "annotation": {"number": 64, "value": 0}, "group": "control_change"}, {"time": 4131, "annotation": {"number": 64, "value": 0}, "group": "control_change"}, {"time": 4135, "annotation": {"number": 64, "value": 127}, "group": "control_change"}, {"time": 4181, "annotation": {"number": 64, "value": 0}, "group": "control_change"}, {"time": 4184, "annotation": {"number": 64, "value": 127}, "group": "control_change"}, {"time": 4228, "annotation": {"number": 64, "value": 0}, "group": "control_change"}, {"time": 4231, "annotation": {"number": 64, "value": 127}, "group": "control_change"}, {"time": 4275, "annotation": {"number": 64, "value": 0}, "group": "control_change"}, {"time": 4275, "annotation": {"number": 64, "value": 127}, "group": "control_change"}, {"time": 4323, "annotation": {"number": 64, "value": 0}, "group": "control_change"}, {"time": 4328, "annotation": {"number": 64, "value": 127}, "group": "control_change"}, {"time": 4372, "annotation": {"number": 64, "value": 0}, "group": "control_change"}, {"time": 4375, "annotation": {"number": 64, "value": 127}, "group": "control_change"}, {"time": 4418, "annotation": {"number": 64, "value": 0}, "group": "control_change"}, {"time": 4422, "annotation": {"number": 64, "value": 127}, "group": "control_change"}, {"time": 4468, "annotation": {"number": 64, "value": 0}, "group": "control_change"}, {"time": 4471, "annotation": {"number": 64, "value": 127}, "group": "control_change"}, {"time": 4516, "annotation": {"number": 64, "value": 0}, "group": "control_change"}, {"time": 4520, "annotation": {"number": 64, "value": 127}, "group": "control_change"}, {"time": 4564, "annotation": {"number": 64, "value": 0}, "group": "control_change"}, {"time": 4567, "annotation": {"number": 64, "value": 127}, "group": "control_change"}, {"time": 4611, "annotation": {"number": 64, "value": 0}, "group": "control_change"}, {"time": 4615, "annotation": {"number": 64, "value": 127}, "group": "control_change"}, {"time": 4659, "annotation": {"number": 64, "value": 0}, "group": "control_change"}, {"time": 4660, "annotation": {"number": 64, "value": 127}, "group": "control_change"}, {"time": 4706, "annotation": {"number": 64, "value": 0}, "group": "control_change"}, {"time": 4710, "annotation": {"number": 64, "value": 127}, "group": "control_change"}, {"time": 4757, "annotation": {"number": 64, "value": 0}, "group": "control_change"}, {"time": 4761, "annotation": {"number": 64, "value": 127}, "group": "control_change"}, {"time": 4804, "annotation": {"number": 64, "value": 0}, "group": "control_change"}, {"time": 4807, "annotation": {"number": 64, "value": 127}, "group": "control_change"}, {"time": 4852, "annotation": {"number": 64, "value": 0}, "group": "control_change"}, {"time": 4855, "annotation": {"number": 64, "value": 127}, "group": "control_change"}, {"time": 4900, "annotation": {"number": 64, "value": 0}, "group": "control_change"}, {"time": 4903, "annotation": {"number": 64, "value": 127}, "group": "control_change"}, {"time": 4947, "annotation": {"number": 64, "value": 0}, "group": "control_change"}, {"time": 4955, "annotation": {"number": 64, "value": 127}, "group": "control_change"}, {"time": 4972, "annotation": {"number": 64, "value": 0}, "group": "control_change"}, {"time": 4976, "annotation": {"number": 64, "value": 127}, "group": "control_change"}, {"time": 4994, "annotation": {"number": 64, "value": 0}, "group": "control_change"}, {"time": 4998, "annotation": {"number": 64, "value": 127}, "group": "control_change"}, {"time": 5042, "annotation": {"number": 64, "value": 0}, "group": "control_change"}, {"time": 5046, "annotation": {"number": 64, "value": 127}, "group": "control_change"}, {"time": 5092, "annotation": {"number": 64, "value": 0}, "group": "control_change"}]}]}