{"metadata": {"schema_version": "0.2", "title": "None", "source_filename": "264.mid", "source_format": "midi"}, "resolution": 12, "tempos": [{"time": 0, "qpm": 120.0}, {"time": 55, "qpm": 80.99997165000993}, {"time": 67, "qpm": 85.00004250002125}, {"time": 79, "qpm": 90.99995298335763}, {"time": 91, "qpm": 83.0000650167176}, {"time": 103, "qpm": 80.99997165000993}, {"time": 151, "qpm": 80.0}, {"time": 235, "qpm": 88.00002346667293}, {"time": 247, "qpm": 83.0000650167176}, {"time": 271, "qpm": 86.00005160003096}, {"time": 295, "qpm": 78.9999657666815}, {"time": 319, "qpm": 84.000084000084}, {"time": 403, "qpm": 80.99997165000993}, {"time": 427, "qpm": 78.000078000078}, {"time": 463, "qpm": 80.0}, {"time": 475, "qpm": 87.00002175000543}, {"time": 487, "qpm": 78.9999657666815}, {"time": 499, "qpm": 82.00014760026568}, {"time": 571, "qpm": 89.00004005001803}, {"time": 577, "qpm": 84.000084000084}, {"time": 583, "qpm": 82.00014760026568}, {"time": 607, "qpm": 78.9999657666815}, {"time": 631, "qpm": 83.0000650167176}, {"time": 679, "qpm": 80.99997165000993}, {"time": 715, "qpm": 83.0000650167176}, {"time": 763, "qpm": 80.99997165000993}, {"time": 799, "qpm": 84.000084000084}, {"time": 823, "qpm": 75.0}, {"time": 835, "qpm": 84.000084000084}, {"time": 883, "qpm": 80.99997165000993}, {"time": 943, "qpm": 82.00014760026568}, {"time": 1087, "qpm": 84.000084000084}, {"time": 1111, "qpm": 82.00014760026568}, {"time": 1543, "qpm": 78.000078000078}, {"time": 1567, "qpm": 61.99999586666694}, {"time": 1591, "qpm": 82.00014760026568}, {"time": 3127, "qpm": 78.000078000078}, {"time": 3151, "qpm": 97.9999836666694}, {"time": 3175, "qpm": 82.00014760026568}], "time_signatures": [{"time": 0, "numerator": 4, "denominator": 4}], "tracks": [{"program": 4, "is_drum": false, "name": "MELODY", "notes": [{"time": 403, "pitch": 74, "duration": 11, "velocity": 90}, {"time": 415, "pitch": 76, "duration": 18, "velocity": 86}, {"time": 433, "pitch": 69, "duration": 12, "velocity": 78}, {"time": 445, "pitch": 71, "duration": 40, "velocity": 83}, {"time": 493, "pitch": 71, "duration": 4, "velocity": 76}, {"time": 499, "pitch": 71, "duration": 7, "velocity": 83}, {"time": 505, "pitch": 72, "duration": 6, "velocity": 83}, {"time": 511, "pitch": 74, "duration": 7, "velocity": 84}, {"time": 517, "pitch": 71, "duration": 6, "velocity": 84}, {"time": 523, "pitch": 69, "duration": 3, "velocity": 76}, {"time": 529, "pitch": 67, "duration": 10, "velocity": 86}, {"time": 535, "pitch": 69, "duration": 5, "velocity": 90}, {"time": 541, "pitch": 71, "duration": 3, "velocity": 80}, {"time": 544, "pitch": 69, "duration": 19, "velocity": 83}, {"time": 589, "pitch": 69, "duration": 4, "velocity": 94}, {"time": 595, "pitch": 69, "duration": 7, "velocity": 86}, {"time": 601, "pitch": 71, "duration": 6, "velocity": 86}, {"time": 607, "pitch": 74, "duration": 5, "velocity": 94}, {"time": 613, "pitch": 71, "duration": 6, "velocity": 83}, {"time": 619, "pitch": 69, "duration": 6, "velocity": 83}, {"time": 625, "pitch": 67, "duration": 12, "velocity": 76}, {"time": 637, "pitch": 69, "duration": 45, "velocity": 82}, {"time": 685, "pitch": 69, "duration": 4, "velocity": 84}, {"time": 691, "pitch": 69, "duration": 5, "velocity": 83}, {"time": 697, "pitch": 71, "duration": 6, "velocity": 83}, {"time": 703, "pitch": 74, "duration": 6, "velocity": 84}, {"time": 709, "pitch": 76, "duration": 6, "velocity": 83}, {"time": 715, "pitch": 74, "duration": 5, "velocity": 90}, {"time": 721, "pitch": 71, "duration": 5, "velocity": 82}, {"time": 727, "pitch": 69, "duration": 14, "velocity": 82}, {"time": 745, "pitch": 71, "duration": 12, "velocity": 84}, {"time": 757, "pitch": 64, "duration": 7, "velocity": 83}, {"time": 763, "pitch": 67, "duration": 5, "velocity": 83}, {"time": 769, "pitch": 64, "duration": 12, "velocity": 81}, {"time": 781, "pitch": 62, "duration": 20, "velocity": 86}, {"time": 835, "pitch": 74, "duration": 13, "velocity": 90}, {"time": 847, "pitch": 76, "duration": 24, "velocity": 91}, {"time": 871, "pitch": 69, "duration": 8, "velocity": 101}, {"time": 880, "pitch": 71, "duration": 17, "velocity": 82}, {"time": 925, "pitch": 71, "duration": 4, "velocity": 83}, {"time": 931, "pitch": 71, "duration": 7, "velocity": 82}, {"time": 937, "pitch": 72, "duration": 6, "velocity": 81}, {"time": 943, "pitch": 74, "duration": 5, "velocity": 78}, {"time": 949, "pitch": 71, "duration": 2, "velocity": 82}, {"time": 949, "pitch": 72, "duration": 2, "velocity": 81}, {"time": 952, "pitch": 71, "duration": 3, "velocity": 46}, {"time": 955, "pitch": 69, "duration": 7, "velocity": 90}, {"time": 961, "pitch": 67, "duration": 6, "velocity": 93}, {"time": 967, "pitch": 69, "duration": 6, "velocity": 82}, {"time": 973, "pitch": 71, "duration": 5, "velocity": 80}, {"time": 976, "pitch": 69, "duration": 24, "velocity": 80}, {"time": 1021, "pitch": 69, "duration": 4, "velocity": 90}, {"time": 1027, "pitch": 69, "duration": 6, "velocity": 83}, {"time": 1033, "pitch": 71, "duration": 6, "velocity": 90}, {"time": 1039, "pitch": 74, "duration": 5, "velocity": 93}, {"time": 1045, "pitch": 71, "duration": 5, "velocity": 86}, {"time": 1051, "pitch": 69, "duration": 6, "velocity": 81}, {"time": 1057, "pitch": 67, "duration": 7, "velocity": 84}, {"time": 1063, "pitch": 69, "duration": 5, "velocity": 84}, {"time": 1069, "pitch": 71, "duration": 4, "velocity": 82}, {"time": 1072, "pitch": 69, "duration": 28, "velocity": 80}, {"time": 1117, "pitch": 69, "duration": 4, "velocity": 76}, {"time": 1123, "pitch": 69, "duration": 7, "velocity": 82}, {"time": 1129, "pitch": 71, "duration": 6, "velocity": 86}, {"time": 1135, "pitch": 74, "duration": 5, "velocity": 83}, {"time": 1141, "pitch": 76, "duration": 4, "velocity": 83}, {"time": 1147, "pitch": 74, "duration": 4, "velocity": 95}, {"time": 1153, "pitch": 71, "duration": 6, "velocity": 84}, {"time": 1159, "pitch": 69, "duration": 6, "velocity": 86}, {"time": 1177, "pitch": 71, "duration": 6, "velocity": 83}, {"time": 1183, "pitch": 69, "duration": 8, "velocity": 86}, {"time": 1192, "pitch": 67, "duration": 8, "velocity": 84}, {"time": 1201, "pitch": 76, "duration": 11, "velocity": 90}, {"time": 1213, "pitch": 74, "duration": 48, "velocity": 95}, {"time": 1267, "pitch": 74, "duration": 13, "velocity": 99}, {"time": 1279, "pitch": 76, "duration": 12, "velocity": 100}, {"time": 1291, "pitch": 78, "duration": 8, "velocity": 98}, {"time": 1300, "pitch": 79, "duration": 23, "velocity": 96}, {"time": 1321, "pitch": 79, "duration": 2, "velocity": 98}, {"time": 1327, "pitch": 79, "duration": 7, "velocity": 99}, {"time": 1336, "pitch": 78, "duration": 9, "velocity": 98}, {"time": 1345, "pitch": 71, "duration": 8, "velocity": 98}, {"time": 1351, "pitch": 74, "duration": 25, "velocity": 100}, {"time": 1399, "pitch": 76, "duration": 9, "velocity": 93}, {"time": 1408, "pitch": 74, "duration": 8, "velocity": 94}, {"time": 1417, "pitch": 72, "duration": 6, "velocity": 98}, {"time": 1423, "pitch": 69, "duration": 10, "velocity": 90}, {"time": 1441, "pitch": 71, "duration": 4, "velocity": 91}, {"time": 1444, "pitch": 72, "duration": 3, "velocity": 91}, {"time": 1447, "pitch": 74, "duration": 8, "velocity": 86}, {"time": 1456, "pitch": 71, "duration": 8, "velocity": 96}, {"time": 1465, "pitch": 69, "duration": 7, "velocity": 80}, {"time": 1471, "pitch": 67, "duration": 12, "velocity": 91}, {"time": 1483, "pitch": 67, "duration": 1, "velocity": 98}, {"time": 1486, "pitch": 79, "duration": 9, "velocity": 100}, {"time": 1495, "pitch": 76, "duration": 7, "velocity": 95}, {"time": 1531, "pitch": 79, "duration": 3, "velocity": 98}, {"time": 1534, "pitch": 81, "duration": 8, "velocity": 95}, {"time": 1543, "pitch": 74, "duration": 30, "velocity": 104}, {"time": 1573, "pitch": 74, "duration": 1, "velocity": 101}, {"time": 1579, "pitch": 76, "duration": 6, "velocity": 98}, {"time": 1585, "pitch": 78, "duration": 5, "velocity": 100}, {"time": 1591, "pitch": 79, "duration": 2, "velocity": 95}, {"time": 1594, "pitch": 79, "duration": 16, "velocity": 98}, {"time": 1594, "pitch": 81, "duration": 3, "velocity": 90}, {"time": 1609, "pitch": 79, "duration": 1, "velocity": 98}, {"time": 1615, "pitch": 79, "duration": 8, "velocity": 98}, {"time": 1624, "pitch": 78, "duration": 8, "velocity": 91}, {"time": 1633, "pitch": 71, "duration": 8, "velocity": 100}, {"time": 1639, "pitch": 74, "duration": 21, "velocity": 98}, {"time": 1687, "pitch": 76, "duration": 8, "velocity": 90}, {"time": 1696, "pitch": 74, "duration": 9, "velocity": 84}, {"time": 1705, "pitch": 72, "duration": 6, "velocity": 106}, {"time": 1711, "pitch": 69, "duration": 10, "velocity": 98}, {"time": 1729, "pitch": 71, "duration": 4, "velocity": 90}, {"time": 1732, "pitch": 72, "duration": 4, "velocity": 90}, {"time": 1735, "pitch": 74, "duration": 8, "velocity": 86}, {"time": 1744, "pitch": 71, "duration": 10, "velocity": 84}, {"time": 1753, "pitch": 78, "duration": 8, "velocity": 95}, {"time": 1759, "pitch": 76, "duration": 11, "velocity": 98}, {"time": 1771, "pitch": 76, "duration": 7, "velocity": 95}, {"time": 1777, "pitch": 78, "duration": 6, "velocity": 99}, {"time": 1783, "pitch": 79, "duration": 32, "velocity": 101}, {"time": 1819, "pitch": 79, "duration": 3, "velocity": 101}, {"time": 1822, "pitch": 81, "duration": 9, "velocity": 93}, {"time": 1831, "pitch": 76, "duration": 1, "velocity": 80}, {"time": 1834, "pitch": 74, "duration": 45, "velocity": 83}, {"time": 1909, "pitch": 74, "duration": 8, "velocity": 90}, {"time": 1918, "pitch": 72, "duration": 12, "velocity": 98}, {"time": 1930, "pitch": 71, "duration": 15, "velocity": 93}, {"time": 1963, "pitch": 71, "duration": 6, "velocity": 83}, {"time": 1969, "pitch": 72, "duration": 4, "velocity": 84}, {"time": 1972, "pitch": 71, "duration": 60, "velocity": 80}, {"time": 2407, "pitch": 74, "duration": 13, "velocity": 90}, {"time": 2419, "pitch": 76, "duration": 24, "velocity": 91}, {"time": 2443, "pitch": 69, "duration": 8, "velocity": 101}, {"time": 2452, "pitch": 71, "duration": 17, "velocity": 82}, {"time": 2497, "pitch": 71, "duration": 4, "velocity": 83}, {"time": 2503, "pitch": 71, "duration": 7, "velocity": 82}, {"time": 2509, "pitch": 72, "duration": 6, "velocity": 81}, {"time": 2515, "pitch": 74, "duration": 5, "velocity": 78}, {"time": 2521, "pitch": 72, "duration": 2, "velocity": 81}, {"time": 2524, "pitch": 71, "duration": 3, "velocity": 46}, {"time": 2527, "pitch": 69, "duration": 7, "velocity": 90}, {"time": 2533, "pitch": 67, "duration": 6, "velocity": 93}, {"time": 2539, "pitch": 69, "duration": 6, "velocity": 82}, {"time": 2545, "pitch": 71, "duration": 5, "velocity": 80}, {"time": 2548, "pitch": 69, "duration": 24, "velocity": 80}, {"time": 2593, "pitch": 69, "duration": 4, "velocity": 90}, {"time": 2599, "pitch": 69, "duration": 6, "velocity": 83}, {"time": 2605, "pitch": 71, "duration": 6, "velocity": 90}, {"time": 2611, "pitch": 74, "duration": 5, "velocity": 93}, {"time": 2617, "pitch": 71, "duration": 5, "velocity": 86}, {"time": 2623, "pitch": 69, "duration": 6, "velocity": 81}, {"time": 2629, "pitch": 67, "duration": 7, "velocity": 84}, {"time": 2635, "pitch": 69, "duration": 5, "velocity": 84}, {"time": 2641, "pitch": 71, "duration": 4, "velocity": 82}, {"time": 2644, "pitch": 69, "duration": 28, "velocity": 80}, {"time": 2689, "pitch": 69, "duration": 4, "velocity": 76}, {"time": 2695, "pitch": 69, "duration": 7, "velocity": 82}, {"time": 2701, "pitch": 71, "duration": 6, "velocity": 86}, {"time": 2707, "pitch": 74, "duration": 5, "velocity": 83}, {"time": 2713, "pitch": 76, "duration": 4, "velocity": 83}, {"time": 2719, "pitch": 74, "duration": 4, "velocity": 95}, {"time": 2725, "pitch": 71, "duration": 6, "velocity": 84}, {"time": 2731, "pitch": 69, "duration": 6, "velocity": 86}, {"time": 2749, "pitch": 71, "duration": 6, "velocity": 83}, {"time": 2755, "pitch": 69, "duration": 8, "velocity": 86}, {"time": 2764, "pitch": 67, "duration": 8, "velocity": 84}, {"time": 2773, "pitch": 76, "duration": 11, "velocity": 90}, {"time": 2785, "pitch": 74, "duration": 48, "velocity": 95}, {"time": 2839, "pitch": 74, "duration": 13, "velocity": 99}, {"time": 2851, "pitch": 76, "duration": 12, "velocity": 100}, {"time": 2863, "pitch": 78, "duration": 8, "velocity": 98}, {"time": 2872, "pitch": 79, "duration": 23, "velocity": 96}, {"time": 2893, "pitch": 79, "duration": 2, "velocity": 98}, {"time": 2899, "pitch": 79, "duration": 7, "velocity": 99}, {"time": 2908, "pitch": 78, "duration": 9, "velocity": 98}, {"time": 2917, "pitch": 71, "duration": 8, "velocity": 98}, {"time": 2923, "pitch": 74, "duration": 25, "velocity": 100}, {"time": 2971, "pitch": 76, "duration": 9, "velocity": 93}, {"time": 2980, "pitch": 74, "duration": 8, "velocity": 94}, {"time": 2989, "pitch": 72, "duration": 6, "velocity": 98}, {"time": 2995, "pitch": 69, "duration": 10, "velocity": 90}, {"time": 3013, "pitch": 71, "duration": 4, "velocity": 91}, {"time": 3016, "pitch": 72, "duration": 3, "velocity": 91}, {"time": 3019, "pitch": 74, "duration": 8, "velocity": 86}, {"time": 3028, "pitch": 71, "duration": 8, "velocity": 96}, {"time": 3037, "pitch": 69, "duration": 7, "velocity": 80}, {"time": 3043, "pitch": 67, "duration": 12, "velocity": 91}, {"time": 3055, "pitch": 67, "duration": 1, "velocity": 98}, {"time": 3058, "pitch": 79, "duration": 9, "velocity": 100}, {"time": 3067, "pitch": 76, "duration": 7, "velocity": 95}, {"time": 3103, "pitch": 79, "duration": 3, "velocity": 98}, {"time": 3106, "pitch": 81, "duration": 8, "velocity": 95}, {"time": 3115, "pitch": 74, "duration": 30, "velocity": 104}, {"time": 3145, "pitch": 74, "duration": 1, "velocity": 101}, {"time": 3154, "pitch": 76, "duration": 6, "velocity": 98}, {"time": 3166, "pitch": 78, "duration": 5, "velocity": 100}, {"time": 3172, "pitch": 79, "duration": 2, "velocity": 95}, {"time": 3172, "pitch": 81, "duration": 3, "velocity": 90}, {"time": 3175, "pitch": 79, "duration": 16, "velocity": 98}, {"time": 3193, "pitch": 79, "duration": 3, "velocity": 98}, {"time": 3199, "pitch": 79, "duration": 8, "velocity": 98}, {"time": 3208, "pitch": 78, "duration": 8, "velocity": 91}, {"time": 3217, "pitch": 71, "duration": 8, "velocity": 100}, {"time": 3223, "pitch": 74, "duration": 21, "velocity": 98}, {"time": 3271, "pitch": 76, "duration": 8, "velocity": 90}, {"time": 3280, "pitch": 74, "duration": 9, "velocity": 84}, {"time": 3289, "pitch": 72, "duration": 6, "velocity": 106}, {"time": 3295, "pitch": 69, "duration": 10, "velocity": 98}, {"time": 3313, "pitch": 71, "duration": 4, "velocity": 90}, {"time": 3316, "pitch": 72, "duration": 4, "velocity": 90}, {"time": 3319, "pitch": 74, "duration": 8, "velocity": 86}, {"time": 3328, "pitch": 71, "duration": 10, "velocity": 84}, {"time": 3337, "pitch": 78, "duration": 8, "velocity": 95}, {"time": 3343, "pitch": 76, "duration": 11, "velocity": 98}, {"time": 3355, "pitch": 76, "duration": 7, "velocity": 95}, {"time": 3361, "pitch": 78, "duration": 6, "velocity": 99}, {"time": 3367, "pitch": 79, "duration": 32, "velocity": 101}, {"time": 3403, "pitch": 79, "duration": 3, "velocity": 101}, {"time": 3406, "pitch": 81, "duration": 9, "velocity": 93}, {"time": 3415, "pitch": 74, "duration": 48, "velocity": 83}, {"time": 3487, "pitch": 76, "duration": 13, "velocity": 95}, {"time": 3499, "pitch": 78, "duration": 11, "velocity": 98}, {"time": 3511, "pitch": 79, "duration": 65, "velocity": 104}]}, {"program": 0, "is_drum": false, "name": "PIANO", "notes": [{"time": 55, "pitch": 55, "duration": 45, "velocity": 68}, {"time": 55, "pitch": 62, "duration": 11, "velocity": 74}, {"time": 55, "pitch": 67, "duration": 11, "velocity": 76}, {"time": 55, "pitch": 71, "duration": 11, "velocity": 78}, {"time": 85, "pitch": 62, "duration": 7, "velocity": 75}, {"time": 85, "pitch": 72, "duration": 7, "velocity": 86}, {"time": 91, "pitch": 71, "duration": 4, "velocity": 82}, {"time": 97, "pitch": 67, "duration": 4, "velocity": 80}, {"time": 103, "pitch": 53, "duration": 41, "velocity": 79}, {"time": 103, "pitch": 62, "duration": 9, "velocity": 78}, {"time": 103, "pitch": 67, "duration": 10, "velocity": 73}, {"time": 103, "pitch": 71, "duration": 11, "velocity": 84}, {"time": 115, "pitch": 62, "duration": 26, "velocity": 55}, {"time": 121, "pitch": 67, "duration": 19, "velocity": 78}, {"time": 127, "pitch": 71, "duration": 16, "velocity": 76}, {"time": 139, "pitch": 74, "duration": 4, "velocity": 72}, {"time": 151, "pitch": 48, "duration": 40, "velocity": 74}, {"time": 151, "pitch": 64, "duration": 11, "velocity": 75}, {"time": 151, "pitch": 67, "duration": 12, "velocity": 76}, {"time": 157, "pitch": 55, "duration": 34, "velocity": 60}, {"time": 163, "pitch": 60, "duration": 26, "velocity": 83}, {"time": 169, "pitch": 62, "duration": 9, "velocity": 69}, {"time": 175, "pitch": 67, "duration": 16, "velocity": 75}, {"time": 199, "pitch": 50, "duration": 39, "velocity": 58}, {"time": 199, "pitch": 62, "duration": 7, "velocity": 51}, {"time": 199, "pitch": 66, "duration": 6, "velocity": 70}, {"time": 199, "pitch": 69, "duration": 7, "velocity": 61}, {"time": 205, "pitch": 57, "duration": 34, "velocity": 46}, {"time": 211, "pitch": 62, "duration": 27, "velocity": 68}, {"time": 217, "pitch": 74, "duration": 19, "velocity": 78}, {"time": 247, "pitch": 48, "duration": 43, "velocity": 84}, {"time": 247, "pitch": 64, "duration": 14, "velocity": 61}, {"time": 247, "pitch": 67, "duration": 10, "velocity": 73}, {"time": 247, "pitch": 72, "duration": 14, "velocity": 50}, {"time": 253, "pitch": 55, "duration": 36, "velocity": 68}, {"time": 259, "pitch": 60, "duration": 29, "velocity": 62}, {"time": 265, "pitch": 62, "duration": 21, "velocity": 71}, {"time": 265, "pitch": 67, "duration": 21, "velocity": 78}, {"time": 283, "pitch": 64, "duration": 7, "velocity": 81}, {"time": 295, "pitch": 45, "duration": 39, "velocity": 79}, {"time": 295, "pitch": 61, "duration": 7, "velocity": 80}, {"time": 295, "pitch": 64, "duration": 8, "velocity": 67}, {"time": 295, "pitch": 69, "duration": 9, "velocity": 80}, {"time": 301, "pitch": 57, "duration": 40, "velocity": 55}, {"time": 307, "pitch": 61, "duration": 9, "velocity": 79}, {"time": 313, "pitch": 67, "duration": 8, "velocity": 77}, {"time": 319, "pitch": 69, "duration": 3, "velocity": 75}, {"time": 331, "pitch": 73, "duration": 1, "velocity": 77}, {"time": 331, "pitch": 85, "duration": 2, "velocity": 78}, {"time": 343, "pitch": 50, "duration": 51, "velocity": 57}, {"time": 343, "pitch": 74, "duration": 9, "velocity": 61}, {"time": 343, "pitch": 86, "duration": 7, "velocity": 69}, {"time": 349, "pitch": 57, "duration": 46, "velocity": 59}, {"time": 355, "pitch": 62, "duration": 41, "velocity": 57}, {"time": 361, "pitch": 67, "duration": 6, "velocity": 69}, {"time": 367, "pitch": 69, "duration": 2, "velocity": 75}, {"time": 373, "pitch": 74, "duration": 24, "velocity": 57}, {"time": 379, "pitch": 81, "duration": 6, "velocity": 69}, {"time": 385, "pitch": 79, "duration": 12, "velocity": 57}, {"time": 391, "pitch": 86, "duration": 7, "velocity": 48}, {"time": 439, "pitch": 55, "duration": 42, "velocity": 62}, {"time": 439, "pitch": 62, "duration": 6, "velocity": 53}, {"time": 439, "pitch": 67, "duration": 6, "velocity": 65}, {"time": 439, "pitch": 71, "duration": 7, "velocity": 70}, {"time": 445, "pitch": 59, "duration": 15, "velocity": 38}, {"time": 451, "pitch": 69, "duration": 7, "velocity": 56}, {"time": 457, "pitch": 62, "duration": 8, "velocity": 54}, {"time": 457, "pitch": 67, "duration": 2, "velocity": 57}, {"time": 457, "pitch": 71, "duration": 8, "velocity": 85}, {"time": 481, "pitch": 64, "duration": 4, "velocity": 54}, {"time": 481, "pitch": 72, "duration": 5, "velocity": 63}, {"time": 487, "pitch": 55, "duration": 28, "velocity": 78}, {"time": 487, "pitch": 62, "duration": 7, "velocity": 57}, {"time": 487, "pitch": 71, "duration": 7, "velocity": 79}, {"time": 493, "pitch": 59, "duration": 19, "velocity": 60}, {"time": 499, "pitch": 62, "duration": 9, "velocity": 53}, {"time": 505, "pitch": 67, "duration": 6, "velocity": 74}, {"time": 511, "pitch": 62, "duration": 4, "velocity": 50}, {"time": 511, "pitch": 69, "duration": 4, "velocity": 66}, {"time": 523, "pitch": 64, "duration": 6, "velocity": 63}, {"time": 523, "pitch": 67, "duration": 9, "velocity": 81}, {"time": 535, "pitch": 45, "duration": 40, "velocity": 66}, {"time": 535, "pitch": 60, "duration": 7, "velocity": 60}, {"time": 535, "pitch": 69, "duration": 13, "velocity": 51}, {"time": 541, "pitch": 52, "duration": 34, "velocity": 57}, {"time": 547, "pitch": 57, "duration": 10, "velocity": 50}, {"time": 553, "pitch": 60, "duration": 6, "velocity": 47}, {"time": 553, "pitch": 67, "duration": 9, "velocity": 63}, {"time": 562, "pitch": 64, "duration": 1, "velocity": 18}, {"time": 565, "pitch": 57, "duration": 19, "velocity": 31}, {"time": 571, "pitch": 60, "duration": 7, "velocity": 72}, {"time": 577, "pitch": 67, "duration": 6, "velocity": 81}, {"time": 583, "pitch": 50, "duration": 40, "velocity": 79}, {"time": 583, "pitch": 64, "duration": 3, "velocity": 60}, {"time": 586, "pitch": 66, "duration": 12, "velocity": 54}, {"time": 589, "pitch": 57, "duration": 12, "velocity": 45}, {"time": 595, "pitch": 62, "duration": 7, "velocity": 60}, {"time": 601, "pitch": 64, "duration": 12, "velocity": 59}, {"time": 601, "pitch": 69, "duration": 13, "velocity": 53}, {"time": 613, "pitch": 57, "duration": 11, "velocity": 47}, {"time": 619, "pitch": 60, "duration": 6, "velocity": 39}, {"time": 619, "pitch": 67, "duration": 10, "velocity": 85}, {"time": 625, "pitch": 64, "duration": 6, "velocity": 70}, {"time": 631, "pitch": 45, "duration": 42, "velocity": 60}, {"time": 631, "pitch": 60, "duration": 12, "velocity": 63}, {"time": 631, "pitch": 67, "duration": 14, "velocity": 72}, {"time": 637, "pitch": 52, "duration": 14, "velocity": 57}, {"time": 643, "pitch": 57, "duration": 9, "velocity": 47}, {"time": 649, "pitch": 60, "duration": 10, "velocity": 60}, {"time": 649, "pitch": 64, "duration": 7, "velocity": 63}, {"time": 661, "pitch": 52, "duration": 10, "velocity": 21}, {"time": 667, "pitch": 55, "duration": 5, "velocity": 66}, {"time": 667, "pitch": 60, "duration": 8, "velocity": 79}, {"time": 673, "pitch": 64, "duration": 6, "velocity": 68}, {"time": 679, "pitch": 50, "duration": 38, "velocity": 68}, {"time": 679, "pitch": 62, "duration": 7, "velocity": 60}, {"time": 679, "pitch": 66, "duration": 8, "velocity": 53}, {"time": 685, "pitch": 57, "duration": 21, "velocity": 31}, {"time": 685, "pitch": 64, "duration": 7, "velocity": 76}, {"time": 685, "pitch": 67, "duration": 6, "velocity": 79}, {"time": 691, "pitch": 69, "duration": 2, "velocity": 77}, {"time": 697, "pitch": 62, "duration": 9, "velocity": 50}, {"time": 703, "pitch": 69, "duration": 5, "velocity": 57}, {"time": 703, "pitch": 74, "duration": 4, "velocity": 74}, {"time": 703, "pitch": 78, "duration": 6, "velocity": 74}, {"time": 709, "pitch": 57, "duration": 7, "velocity": 41}, {"time": 715, "pitch": 69, "duration": 1, "velocity": 39}, {"time": 715, "pitch": 74, "duration": 1, "velocity": 66}, {"time": 715, "pitch": 79, "duration": 2, "velocity": 101}, {"time": 727, "pitch": 45, "duration": 39, "velocity": 70}, {"time": 727, "pitch": 60, "duration": 6, "velocity": 79}, {"time": 727, "pitch": 64, "duration": 7, "velocity": 69}, {"time": 733, "pitch": 52, "duration": 25, "velocity": 60}, {"time": 739, "pitch": 57, "duration": 10, "velocity": 38}, {"time": 745, "pitch": 64, "duration": 3, "velocity": 21}, {"time": 745, "pitch": 72, "duration": 7, "velocity": 68}, {"time": 757, "pitch": 60, "duration": 7, "velocity": 63}, {"time": 757, "pitch": 67, "duration": 8, "velocity": 77}, {"time": 763, "pitch": 52, "duration": 3, "velocity": 85}, {"time": 775, "pitch": 38, "duration": 6, "velocity": 82}, {"time": 775, "pitch": 57, "duration": 12, "velocity": 62}, {"time": 775, "pitch": 62, "duration": 13, "velocity": 86}, {"time": 775, "pitch": 66, "duration": 15, "velocity": 63}, {"time": 781, "pitch": 50, "duration": 7, "velocity": 47}, {"time": 787, "pitch": 52, "duration": 54, "velocity": 86}, {"time": 793, "pitch": 57, "duration": 41, "velocity": 57}, {"time": 799, "pitch": 60, "duration": 18, "velocity": 47}, {"time": 805, "pitch": 62, "duration": 8, "velocity": 91}, {"time": 811, "pitch": 64, "duration": 6, "velocity": 81}, {"time": 817, "pitch": 69, "duration": 3, "velocity": 70}, {"time": 820, "pitch": 62, "duration": 17, "velocity": 44}, {"time": 823, "pitch": 74, "duration": 10, "velocity": 77}, {"time": 874, "pitch": 55, "duration": 42, "velocity": 72}, {"time": 874, "pitch": 71, "duration": 7, "velocity": 91}, {"time": 880, "pitch": 62, "duration": 7, "velocity": 56}, {"time": 886, "pitch": 67, "duration": 6, "velocity": 85}, {"time": 889, "pitch": 69, "duration": 12, "velocity": 76}, {"time": 901, "pitch": 62, "duration": 9, "velocity": 69}, {"time": 907, "pitch": 74, "duration": 5, "velocity": 72}, {"time": 913, "pitch": 69, "duration": 2, "velocity": 41}, {"time": 913, "pitch": 71, "duration": 13, "velocity": 92}, {"time": 919, "pitch": 55, "duration": 41, "velocity": 94}, {"time": 925, "pitch": 62, "duration": 7, "velocity": 63}, {"time": 931, "pitch": 69, "duration": 7, "velocity": 68}, {"time": 937, "pitch": 67, "duration": 8, "velocity": 96}, {"time": 943, "pitch": 62, "duration": 4, "velocity": 68}, {"time": 949, "pitch": 62, "duration": 8, "velocity": 69}, {"time": 955, "pitch": 67, "duration": 6, "velocity": 96}, {"time": 961, "pitch": 71, "duration": 6, "velocity": 84}, {"time": 967, "pitch": 45, "duration": 44, "velocity": 81}, {"time": 967, "pitch": 64, "duration": 9, "velocity": 45}, {"time": 967, "pitch": 72, "duration": 8, "velocity": 97}, {"time": 973, "pitch": 52, "duration": 25, "velocity": 77}, {"time": 979, "pitch": 57, "duration": 7, "velocity": 47}, {"time": 985, "pitch": 60, "duration": 3, "velocity": 72}, {"time": 985, "pitch": 64, "duration": 4, "velocity": 90}, {"time": 991, "pitch": 57, "duration": 7, "velocity": 39}, {"time": 997, "pitch": 64, "duration": 5, "velocity": 70}, {"time": 997, "pitch": 72, "duration": 5, "velocity": 94}, {"time": 1003, "pitch": 52, "duration": 4, "velocity": 84}, {"time": 1006, "pitch": 62, "duration": 2, "velocity": 68}, {"time": 1006, "pitch": 71, "duration": 2, "velocity": 99}, {"time": 1009, "pitch": 52, "duration": 2, "velocity": 79}, {"time": 1015, "pitch": 38, "duration": 7, "velocity": 88}, {"time": 1015, "pitch": 60, "duration": 18, "velocity": 74}, {"time": 1015, "pitch": 69, "duration": 19, "velocity": 53}, {"time": 1021, "pitch": 50, "duration": 7, "velocity": 60}, {"time": 1027, "pitch": 52, "duration": 20, "velocity": 81}, {"time": 1033, "pitch": 55, "duration": 7, "velocity": 79}, {"time": 1039, "pitch": 62, "duration": 5, "velocity": 72}, {"time": 1039, "pitch": 67, "duration": 5, "velocity": 91}, {"time": 1045, "pitch": 55, "duration": 2, "velocity": 79}, {"time": 1045, "pitch": 62, "duration": 3, "velocity": 60}, {"time": 1045, "pitch": 66, "duration": 4, "velocity": 68}, {"time": 1045, "pitch": 69, "duration": 5, "velocity": 68}, {"time": 1051, "pitch": 62, "duration": 3, "velocity": 78}, {"time": 1051, "pitch": 66, "duration": 1, "velocity": 41}, {"time": 1051, "pitch": 71, "duration": 3, "velocity": 96}, {"time": 1057, "pitch": 72, "duration": 2, "velocity": 50}, {"time": 1057, "pitch": 74, "duration": 2, "velocity": 56}, {"time": 1063, "pitch": 45, "duration": 40, "velocity": 68}, {"time": 1063, "pitch": 64, "duration": 10, "velocity": 72}, {"time": 1063, "pitch": 72, "duration": 9, "velocity": 72}, {"time": 1069, "pitch": 52, "duration": 26, "velocity": 82}, {"time": 1075, "pitch": 57, "duration": 7, "velocity": 44}, {"time": 1081, "pitch": 60, "duration": 8, "velocity": 77}, {"time": 1081, "pitch": 64, "duration": 5, "velocity": 88}, {"time": 1081, "pitch": 67, "duration": 9, "velocity": 92}, {"time": 1093, "pitch": 57, "duration": 6, "velocity": 48}, {"time": 1093, "pitch": 59, "duration": 7, "velocity": 65}, {"time": 1093, "pitch": 64, "duration": 5, "velocity": 85}, {"time": 1099, "pitch": 52, "duration": 3, "velocity": 94}, {"time": 1099, "pitch": 60, "duration": 2, "velocity": 88}, {"time": 1099, "pitch": 67, "duration": 2, "velocity": 85}, {"time": 1105, "pitch": 67, "duration": 6, "velocity": 88}, {"time": 1111, "pitch": 38, "duration": 6, "velocity": 72}, {"time": 1111, "pitch": 62, "duration": 19, "velocity": 72}, {"time": 1111, "pitch": 66, "duration": 18, "velocity": 63}, {"time": 1117, "pitch": 50, "duration": 7, "velocity": 65}, {"time": 1123, "pitch": 52, "duration": 28, "velocity": 85}, {"time": 1129, "pitch": 54, "duration": 24, "velocity": 56}, {"time": 1135, "pitch": 57, "duration": 7, "velocity": 59}, {"time": 1135, "pitch": 62, "duration": 2, "velocity": 77}, {"time": 1135, "pitch": 69, "duration": 3, "velocity": 96}, {"time": 1141, "pitch": 62, "duration": 6, "velocity": 63}, {"time": 1141, "pitch": 72, "duration": 7, "velocity": 86}, {"time": 1147, "pitch": 57, "duration": 4, "velocity": 60}, {"time": 1147, "pitch": 71, "duration": 6, "velocity": 91}, {"time": 1153, "pitch": 67, "duration": 6, "velocity": 69}, {"time": 1159, "pitch": 45, "duration": 20, "velocity": 88}, {"time": 1159, "pitch": 64, "duration": 4, "velocity": 86}, {"time": 1159, "pitch": 72, "duration": 5, "velocity": 97}, {"time": 1165, "pitch": 52, "duration": 19, "velocity": 50}, {"time": 1165, "pitch": 64, "duration": 2, "velocity": 60}, {"time": 1165, "pitch": 71, "duration": 3, "velocity": 84}, {"time": 1168, "pitch": 64, "duration": 5, "velocity": 82}, {"time": 1168, "pitch": 72, "duration": 7, "velocity": 91}, {"time": 1171, "pitch": 57, "duration": 5, "velocity": 47}, {"time": 1177, "pitch": 57, "duration": 3, "velocity": 45}, {"time": 1177, "pitch": 67, "duration": 3, "velocity": 96}, {"time": 1183, "pitch": 45, "duration": 8, "velocity": 72}, {"time": 1183, "pitch": 61, "duration": 8, "velocity": 81}, {"time": 1183, "pitch": 64, "duration": 7, "velocity": 86}, {"time": 1183, "pitch": 69, "duration": 7, "velocity": 90}, {"time": 1189, "pitch": 57, "duration": 9, "velocity": 45}, {"time": 1192, "pitch": 61, "duration": 4, "velocity": 90}, {"time": 1192, "pitch": 67, "duration": 5, "velocity": 97}, {"time": 1195, "pitch": 49, "duration": 6, "velocity": 53}, {"time": 1201, "pitch": 64, "duration": 1, "velocity": 79}, {"time": 1201, "pitch": 69, "duration": 2, "velocity": 81}, {"time": 1207, "pitch": 50, "duration": 20, "velocity": 90}, {"time": 1207, "pitch": 62, "duration": 4, "velocity": 81}, {"time": 1207, "pitch": 66, "duration": 5, "velocity": 99}, {"time": 1213, "pitch": 57, "duration": 8, "velocity": 47}, {"time": 1213, "pitch": 64, "duration": 4, "velocity": 82}, {"time": 1213, "pitch": 67, "duration": 5, "velocity": 85}, {"time": 1219, "pitch": 62, "duration": 4, "velocity": 66}, {"time": 1219, "pitch": 64, "duration": 2, "velocity": 88}, {"time": 1219, "pitch": 69, "duration": 3, "velocity": 69}, {"time": 1225, "pitch": 57, "duration": 4, "velocity": 53}, {"time": 1228, "pitch": 62, "duration": 3, "velocity": 92}, {"time": 1231, "pitch": 50, "duration": 19, "velocity": 84}, {"time": 1231, "pitch": 64, "duration": 4, "velocity": 68}, {"time": 1234, "pitch": 66, "duration": 2, "velocity": 90}, {"time": 1237, "pitch": 57, "duration": 7, "velocity": 60}, {"time": 1237, "pitch": 69, "duration": 3, "velocity": 82}, {"time": 1240, "pitch": 74, "duration": 3, "velocity": 68}, {"time": 1243, "pitch": 62, "duration": 4, "velocity": 78}, {"time": 1243, "pitch": 76, "duration": 4, "velocity": 90}, {"time": 1246, "pitch": 78, "duration": 2, "velocity": 63}, {"time": 1249, "pitch": 57, "duration": 2, "velocity": 70}, {"time": 1249, "pitch": 74, "duration": 5, "velocity": 62}, {"time": 1252, "pitch": 78, "duration": 2, "velocity": 63}, {"time": 1255, "pitch": 38, "duration": 32, "velocity": 85}, {"time": 1255, "pitch": 50, "duration": 5, "velocity": 90}, {"time": 1255, "pitch": 69, "duration": 5, "velocity": 72}, {"time": 1255, "pitch": 74, "duration": 5, "velocity": 86}, {"time": 1255, "pitch": 81, "duration": 6, "velocity": 92}, {"time": 1267, "pitch": 50, "duration": 3, "velocity": 113}, {"time": 1267, "pitch": 74, "duration": 2, "velocity": 65}, {"time": 1267, "pitch": 86, "duration": 2, "velocity": 81}, {"time": 1267, "pitch": 88, "duration": 2, "velocity": 84}, {"time": 1273, "pitch": 50, "duration": 3, "velocity": 79}, {"time": 1273, "pitch": 76, "duration": 2, "velocity": 84}, {"time": 1273, "pitch": 88, "duration": 2, "velocity": 96}, {"time": 1279, "pitch": 50, "duration": 3, "velocity": 107}, {"time": 1279, "pitch": 78, "duration": 2, "velocity": 77}, {"time": 1279, "pitch": 90, "duration": 3, "velocity": 78}, {"time": 1285, "pitch": 50, "duration": 2, "velocity": 106}, {"time": 1285, "pitch": 79, "duration": 2, "velocity": 88}, {"time": 1285, "pitch": 91, "duration": 2, "velocity": 82}, {"time": 1291, "pitch": 39, "duration": 8, "velocity": 78}, {"time": 1291, "pitch": 51, "duration": 1, "velocity": 63}, {"time": 1291, "pitch": 81, "duration": 2, "velocity": 84}, {"time": 1291, "pitch": 93, "duration": 3, "velocity": 99}, {"time": 1297, "pitch": 51, "duration": 3, "velocity": 109}, {"time": 1297, "pitch": 84, "duration": 2, "velocity": 63}, {"time": 1297, "pitch": 96, "duration": 2, "velocity": 77}, {"time": 1303, "pitch": 40, "duration": 41, "velocity": 106}, {"time": 1303, "pitch": 83, "duration": 1, "velocity": 86}, {"time": 1303, "pitch": 95, "duration": 2, "velocity": 90}, {"time": 1309, "pitch": 52, "duration": 8, "velocity": 79}, {"time": 1315, "pitch": 59, "duration": 4, "velocity": 82}, {"time": 1315, "pitch": 64, "duration": 5, "velocity": 88}, {"time": 1315, "pitch": 67, "duration": 4, "velocity": 97}, {"time": 1321, "pitch": 52, "duration": 7, "velocity": 57}, {"time": 1321, "pitch": 59, "duration": 4, "velocity": 63}, {"time": 1321, "pitch": 66, "duration": 5, "velocity": 105}, {"time": 1327, "pitch": 59, "duration": 2, "velocity": 94}, {"time": 1327, "pitch": 64, "duration": 1, "velocity": 90}, {"time": 1327, "pitch": 67, "duration": 3, "velocity": 107}, {"time": 1333, "pitch": 52, "duration": 5, "velocity": 60}, {"time": 1336, "pitch": 62, "duration": 3, "velocity": 96}, {"time": 1336, "pitch": 67, "duration": 2, "velocity": 96}, {"time": 1336, "pitch": 71, "duration": 8, "velocity": 107}, {"time": 1339, "pitch": 52, "duration": 6, "velocity": 88}, {"time": 1345, "pitch": 62, "duration": 2, "velocity": 79}, {"time": 1345, "pitch": 69, "duration": 2, "velocity": 103}, {"time": 1351, "pitch": 47, "duration": 41, "velocity": 86}, {"time": 1351, "pitch": 62, "duration": 6, "velocity": 91}, {"time": 1351, "pitch": 66, "duration": 6, "velocity": 86}, {"time": 1351, "pitch": 69, "duration": 6, "velocity": 90}, {"time": 1357, "pitch": 59, "duration": 8, "velocity": 42}, {"time": 1363, "pitch": 62, "duration": 3, "velocity": 85}, {"time": 1363, "pitch": 66, "duration": 4, "velocity": 70}, {"time": 1363, "pitch": 69, "duration": 5, "velocity": 92}, {"time": 1369, "pitch": 59, "duration": 2, "velocity": 38}, {"time": 1369, "pitch": 62, "duration": 5, "velocity": 81}, {"time": 1369, "pitch": 71, "duration": 5, "velocity": 101}, {"time": 1372, "pitch": 59, "duration": 3, "velocity": 54}, {"time": 1375, "pitch": 62, "duration": 7, "velocity": 92}, {"time": 1375, "pitch": 69, "duration": 3, "velocity": 101}, {"time": 1381, "pitch": 59, "duration": 3, "velocity": 50}, {"time": 1384, "pitch": 62, "duration": 3, "velocity": 103}, {"time": 1384, "pitch": 66, "duration": 4, "velocity": 103}, {"time": 1387, "pitch": 59, "duration": 4, "velocity": 91}, {"time": 1390, "pitch": 62, "duration": 3, "velocity": 106}, {"time": 1393, "pitch": 66, "duration": 4, "velocity": 99}, {"time": 1396, "pitch": 67, "duration": 2, "velocity": 107}, {"time": 1399, "pitch": 48, "duration": 20, "velocity": 85}, {"time": 1399, "pitch": 64, "duration": 7, "velocity": 99}, {"time": 1399, "pitch": 67, "duration": 7, "velocity": 101}, {"time": 1405, "pitch": 55, "duration": 7, "velocity": 85}, {"time": 1411, "pitch": 60, "duration": 4, "velocity": 84}, {"time": 1411, "pitch": 62, "duration": 5, "velocity": 84}, {"time": 1411, "pitch": 64, "duration": 6, "velocity": 79}, {"time": 1411, "pitch": 67, "duration": 6, "velocity": 99}, {"time": 1417, "pitch": 55, "duration": 1, "velocity": 97}, {"time": 1423, "pitch": 38, "duration": 16, "velocity": 97}, {"time": 1423, "pitch": 62, "duration": 7, "velocity": 96}, {"time": 1423, "pitch": 66, "duration": 11, "velocity": 94}, {"time": 1423, "pitch": 69, "duration": 7, "velocity": 96}, {"time": 1429, "pitch": 50, "duration": 7, "velocity": 53}, {"time": 1435, "pitch": 62, "duration": 5, "velocity": 81}, {"time": 1435, "pitch": 69, "duration": 2, "velocity": 92}, {"time": 1438, "pitch": 50, "duration": 4, "velocity": 76}, {"time": 1441, "pitch": 72, "duration": 4, "velocity": 88}, {"time": 1447, "pitch": 47, "duration": 17, "velocity": 74}, {"time": 1447, "pitch": 59, "duration": 10, "velocity": 62}, {"time": 1447, "pitch": 62, "duration": 4, "velocity": 92}, {"time": 1447, "pitch": 66, "duration": 4, "velocity": 74}, {"time": 1447, "pitch": 69, "duration": 4, "velocity": 94}, {"time": 1453, "pitch": 66, "duration": 1, "velocity": 19}, {"time": 1456, "pitch": 62, "duration": 7, "velocity": 91}, {"time": 1456, "pitch": 66, "duration": 7, "velocity": 88}, {"time": 1456, "pitch": 74, "duration": 8, "velocity": 101}, {"time": 1459, "pitch": 59, "duration": 9, "velocity": 63}, {"time": 1465, "pitch": 69, "duration": 4, "velocity": 82}, {"time": 1468, "pitch": 71, "duration": 5, "velocity": 86}, {"time": 1471, "pitch": 52, "duration": 18, "velocity": 90}, {"time": 1471, "pitch": 62, "duration": 5, "velocity": 84}, {"time": 1471, "pitch": 67, "duration": 7, "velocity": 91}, {"time": 1477, "pitch": 59, "duration": 12, "velocity": 69}, {"time": 1480, "pitch": 64, "duration": 5, "velocity": 72}, {"time": 1483, "pitch": 67, "duration": 5, "velocity": 101}, {"time": 1486, "pitch": 54, "duration": 3, "velocity": 2}, {"time": 1486, "pitch": 69, "duration": 4, "velocity": 65}, {"time": 1489, "pitch": 71, "duration": 6, "velocity": 79}, {"time": 1492, "pitch": 74, "duration": 2, "velocity": 77}, {"time": 1495, "pitch": 45, "duration": 19, "velocity": 63}, {"time": 1495, "pitch": 57, "duration": 14, "velocity": 70}, {"time": 1495, "pitch": 64, "duration": 9, "velocity": 79}, {"time": 1495, "pitch": 67, "duration": 7, "velocity": 86}, {"time": 1495, "pitch": 72, "duration": 8, "velocity": 90}, {"time": 1507, "pitch": 64, "duration": 7, "velocity": 84}, {"time": 1507, "pitch": 67, "duration": 5, "velocity": 99}, {"time": 1507, "pitch": 72, "duration": 5, "velocity": 91}, {"time": 1513, "pitch": 57, "duration": 7, "velocity": 79}, {"time": 1519, "pitch": 49, "duration": 21, "velocity": 56}, {"time": 1519, "pitch": 61, "duration": 7, "velocity": 66}, {"time": 1519, "pitch": 64, "duration": 7, "velocity": 74}, {"time": 1519, "pitch": 67, "duration": 6, "velocity": 96}, {"time": 1519, "pitch": 69, "duration": 8, "velocity": 85}, {"time": 1531, "pitch": 61, "duration": 7, "velocity": 63}, {"time": 1531, "pitch": 64, "duration": 7, "velocity": 86}, {"time": 1531, "pitch": 67, "duration": 7, "velocity": 88}, {"time": 1531, "pitch": 69, "duration": 7, "velocity": 72}, {"time": 1537, "pitch": 37, "duration": 3, "velocity": 56}, {"time": 1543, "pitch": 38, "duration": 20, "velocity": 78}, {"time": 1543, "pitch": 50, "duration": 3, "velocity": 65}, {"time": 1543, "pitch": 62, "duration": 4, "velocity": 77}, {"time": 1543, "pitch": 66, "duration": 8, "velocity": 57}, {"time": 1549, "pitch": 50, "duration": 2, "velocity": 31}, {"time": 1549, "pitch": 62, "duration": 4, "velocity": 62}, {"time": 1549, "pitch": 67, "duration": 6, "velocity": 99}, {"time": 1555, "pitch": 50, "duration": 4, "velocity": 60}, {"time": 1555, "pitch": 62, "duration": 2, "velocity": 84}, {"time": 1555, "pitch": 69, "duration": 2, "velocity": 81}, {"time": 1561, "pitch": 50, "duration": 4, "velocity": 76}, {"time": 1561, "pitch": 62, "duration": 2, "velocity": 79}, {"time": 1561, "pitch": 66, "duration": 1, "velocity": 39}, {"time": 1561, "pitch": 74, "duration": 4, "velocity": 84}, {"time": 1567, "pitch": 38, "duration": 8, "velocity": 96}, {"time": 1567, "pitch": 50, "duration": 4, "velocity": 65}, {"time": 1567, "pitch": 64, "duration": 2, "velocity": 72}, {"time": 1567, "pitch": 76, "duration": 1, "velocity": 77}, {"time": 1570, "pitch": 66, "duration": 1, "velocity": 78}, {"time": 1570, "pitch": 78, "duration": 1, "velocity": 76}, {"time": 1573, "pitch": 50, "duration": 2, "velocity": 76}, {"time": 1573, "pitch": 67, "duration": 1, "velocity": 70}, {"time": 1573, "pitch": 79, "duration": 1, "velocity": 82}, {"time": 1576, "pitch": 38, "duration": 2, "velocity": 78}, {"time": 1576, "pitch": 50, "duration": 2, "velocity": 59}, {"time": 1576, "pitch": 69, "duration": 1, "velocity": 60}, {"time": 1576, "pitch": 81, "duration": 1, "velocity": 91}, {"time": 1579, "pitch": 38, "duration": 4, "velocity": 79}, {"time": 1579, "pitch": 50, "duration": 4, "velocity": 76}, {"time": 1579, "pitch": 71, "duration": 1, "velocity": 63}, {"time": 1579, "pitch": 83, "duration": 1, "velocity": 103}, {"time": 1582, "pitch": 72, "duration": 1, "velocity": 60}, {"time": 1582, "pitch": 84, "duration": 2, "velocity": 94}, {"time": 1585, "pitch": 38, "duration": 4, "velocity": 82}, {"time": 1585, "pitch": 50, "duration": 2, "velocity": 86}, {"time": 1585, "pitch": 74, "duration": 2, "velocity": 62}, {"time": 1585, "pitch": 86, "duration": 2, "velocity": 99}, {"time": 1588, "pitch": 50, "duration": 2, "velocity": 90}, {"time": 1588, "pitch": 75, "duration": 2, "velocity": 41}, {"time": 1591, "pitch": 40, "duration": 41, "velocity": 107}, {"time": 1591, "pitch": 76, "duration": 3, "velocity": 81}, {"time": 1591, "pitch": 88, "duration": 3, "velocity": 106}, {"time": 1597, "pitch": 52, "duration": 8, "velocity": 63}, {"time": 1603, "pitch": 55, "duration": 5, "velocity": 82}, {"time": 1603, "pitch": 59, "duration": 5, "velocity": 81}, {"time": 1603, "pitch": 64, "duration": 7, "velocity": 99}, {"time": 1609, "pitch": 52, "duration": 6, "velocity": 63}, {"time": 1615, "pitch": 55, "duration": 5, "velocity": 77}, {"time": 1615, "pitch": 62, "duration": 8, "velocity": 92}, {"time": 1621, "pitch": 52, "duration": 4, "velocity": 57}, {"time": 1624, "pitch": 55, "duration": 3, "velocity": 86}, {"time": 1624, "pitch": 59, "duration": 3, "velocity": 86}, {"time": 1624, "pitch": 64, "duration": 3, "velocity": 96}, {"time": 1627, "pitch": 52, "duration": 4, "velocity": 65}, {"time": 1633, "pitch": 66, "duration": 5, "velocity": 90}, {"time": 1639, "pitch": 47, "duration": 44, "velocity": 91}, {"time": 1639, "pitch": 62, "duration": 3, "velocity": 84}, {"time": 1639, "pitch": 66, "duration": 1, "velocity": 30}, {"time": 1639, "pitch": 67, "duration": 3, "velocity": 85}, {"time": 1645, "pitch": 59, "duration": 4, "velocity": 45}, {"time": 1648, "pitch": 62, "duration": 7, "velocity": 79}, {"time": 1648, "pitch": 66, "duration": 5, "velocity": 62}, {"time": 1648, "pitch": 74, "duration": 7, "velocity": 90}, {"time": 1657, "pitch": 62, "duration": 6, "velocity": 78}, {"time": 1657, "pitch": 69, "duration": 4, "velocity": 85}, {"time": 1663, "pitch": 59, "duration": 10, "velocity": 54}, {"time": 1666, "pitch": 62, "duration": 4, "velocity": 70}, {"time": 1669, "pitch": 64, "duration": 3, "velocity": 72}, {"time": 1672, "pitch": 66, "duration": 5, "velocity": 68}, {"time": 1675, "pitch": 59, "duration": 2, "velocity": 60}, {"time": 1675, "pitch": 62, "duration": 2, "velocity": 50}, {"time": 1675, "pitch": 67, "duration": 5, "velocity": 54}, {"time": 1675, "pitch": 69, "duration": 4, "velocity": 56}, {"time": 1678, "pitch": 59, "duration": 3, "velocity": 59}, {"time": 1678, "pitch": 62, "duration": 3, "velocity": 50}, {"time": 1678, "pitch": 69, "duration": 1, "velocity": 57}, {"time": 1678, "pitch": 71, "duration": 3, "velocity": 68}, {"time": 1684, "pitch": 67, "duration": 3, "velocity": 82}, {"time": 1687, "pitch": 48, "duration": 18, "velocity": 70}, {"time": 1687, "pitch": 55, "duration": 13, "velocity": 91}, {"time": 1687, "pitch": 62, "duration": 7, "velocity": 74}, {"time": 1687, "pitch": 64, "duration": 6, "velocity": 82}, {"time": 1687, "pitch": 67, "duration": 5, "velocity": 68}, {"time": 1687, "pitch": 69, "duration": 6, "velocity": 69}, {"time": 1693, "pitch": 60, "duration": 7, "velocity": 42}, {"time": 1699, "pitch": 62, "duration": 6, "velocity": 68}, {"time": 1699, "pitch": 64, "duration": 6, "velocity": 76}, {"time": 1699, "pitch": 67, "duration": 5, "velocity": 94}, {"time": 1699, "pitch": 69, "duration": 3, "velocity": 72}, {"time": 1705, "pitch": 48, "duration": 1, "velocity": 27}, {"time": 1705, "pitch": 55, "duration": 1, "velocity": 99}, {"time": 1711, "pitch": 38, "duration": 19, "velocity": 69}, {"time": 1711, "pitch": 50, "duration": 14, "velocity": 60}, {"time": 1711, "pitch": 60, "duration": 4, "velocity": 77}, {"time": 1711, "pitch": 64, "duration": 8, "velocity": 91}, {"time": 1711, "pitch": 67, "duration": 5, "velocity": 96}, {"time": 1723, "pitch": 62, "duration": 7, "velocity": 81}, {"time": 1723, "pitch": 66, "duration": 6, "velocity": 57}, {"time": 1723, "pitch": 69, "duration": 6, "velocity": 91}, {"time": 1729, "pitch": 50, "duration": 3, "velocity": 81}, {"time": 1735, "pitch": 47, "duration": 15, "velocity": 77}, {"time": 1735, "pitch": 59, "duration": 10, "velocity": 54}, {"time": 1735, "pitch": 62, "duration": 7, "velocity": 53}, {"time": 1735, "pitch": 66, "duration": 8, "velocity": 56}, {"time": 1735, "pitch": 74, "duration": 7, "velocity": 68}, {"time": 1744, "pitch": 62, "duration": 7, "velocity": 97}, {"time": 1744, "pitch": 71, "duration": 8, "velocity": 90}, {"time": 1747, "pitch": 59, "duration": 6, "velocity": 54}, {"time": 1753, "pitch": 69, "duration": 5, "velocity": 84}, {"time": 1759, "pitch": 52, "duration": 18, "velocity": 82}, {"time": 1759, "pitch": 59, "duration": 17, "velocity": 68}, {"time": 1759, "pitch": 62, "duration": 5, "velocity": 90}, {"time": 1759, "pitch": 67, "duration": 8, "velocity": 94}, {"time": 1771, "pitch": 64, "duration": 4, "velocity": 66}, {"time": 1771, "pitch": 67, "duration": 4, "velocity": 79}, {"time": 1774, "pitch": 69, "duration": 4, "velocity": 66}, {"time": 1777, "pitch": 71, "duration": 4, "velocity": 78}, {"time": 1780, "pitch": 74, "duration": 2, "velocity": 86}, {"time": 1783, "pitch": 45, "duration": 17, "velocity": 63}, {"time": 1783, "pitch": 57, "duration": 15, "velocity": 65}, {"time": 1783, "pitch": 60, "duration": 10, "velocity": 82}, {"time": 1783, "pitch": 64, "duration": 9, "velocity": 91}, {"time": 1783, "pitch": 69, "duration": 10, "velocity": 88}, {"time": 1795, "pitch": 60, "duration": 7, "velocity": 78}, {"time": 1795, "pitch": 64, "duration": 7, "velocity": 92}, {"time": 1795, "pitch": 69, "duration": 8, "velocity": 91}, {"time": 1801, "pitch": 45, "duration": 2, "velocity": 39}, {"time": 1801, "pitch": 57, "duration": 2, "velocity": 54}, {"time": 1807, "pitch": 37, "duration": 20, "velocity": 81}, {"time": 1807, "pitch": 49, "duration": 16, "velocity": 50}, {"time": 1807, "pitch": 61, "duration": 10, "velocity": 69}, {"time": 1807, "pitch": 64, "duration": 10, "velocity": 101}, {"time": 1807, "pitch": 67, "duration": 6, "velocity": 69}, {"time": 1807, "pitch": 69, "duration": 10, "velocity": 91}, {"time": 1819, "pitch": 61, "duration": 7, "velocity": 57}, {"time": 1819, "pitch": 64, "duration": 7, "velocity": 103}, {"time": 1819, "pitch": 69, "duration": 8, "velocity": 85}, {"time": 1825, "pitch": 49, "duration": 2, "velocity": 69}, {"time": 1831, "pitch": 38, "duration": 44, "velocity": 84}, {"time": 1831, "pitch": 50, "duration": 7, "velocity": 59}, {"time": 1831, "pitch": 62, "duration": 4, "velocity": 82}, {"time": 1831, "pitch": 66, "duration": 6, "velocity": 72}, {"time": 1831, "pitch": 69, "duration": 3, "velocity": 81}, {"time": 1837, "pitch": 64, "duration": 7, "velocity": 70}, {"time": 1837, "pitch": 67, "duration": 6, "velocity": 85}, {"time": 1840, "pitch": 50, "duration": 5, "velocity": 60}, {"time": 1843, "pitch": 62, "duration": 1, "velocity": 82}, {"time": 1843, "pitch": 67, "duration": 1, "velocity": 63}, {"time": 1843, "pitch": 69, "duration": 2, "velocity": 68}, {"time": 1846, "pitch": 50, "duration": 6, "velocity": 23}, {"time": 1849, "pitch": 71, "duration": 2, "velocity": 47}, {"time": 1849, "pitch": 83, "duration": 2, "velocity": 56}, {"time": 1855, "pitch": 50, "duration": 10, "velocity": 42}, {"time": 1855, "pitch": 73, "duration": 2, "velocity": 47}, {"time": 1855, "pitch": 85, "duration": 3, "velocity": 68}, {"time": 1861, "pitch": 74, "duration": 2, "velocity": 79}, {"time": 1861, "pitch": 86, "duration": 3, "velocity": 65}, {"time": 1867, "pitch": 50, "duration": 4, "velocity": 47}, {"time": 1867, "pitch": 76, "duration": 1, "velocity": 79}, {"time": 1867, "pitch": 88, "duration": 2, "velocity": 99}, {"time": 1873, "pitch": 50, "duration": 3, "velocity": 53}, {"time": 1873, "pitch": 78, "duration": 1, "velocity": 56}, {"time": 1873, "pitch": 90, "duration": 2, "velocity": 68}, {"time": 1879, "pitch": 38, "duration": 2, "velocity": 79}, {"time": 1879, "pitch": 50, "duration": 2, "velocity": 92}, {"time": 1879, "pitch": 81, "duration": 1, "velocity": 68}, {"time": 1879, "pitch": 93, "duration": 2, "velocity": 82}, {"time": 2011, "pitch": 43, "duration": 41, "velocity": 74}, {"time": 2011, "pitch": 59, "duration": 42, "velocity": 59}, {"time": 2011, "pitch": 62, "duration": 22, "velocity": 77}, {"time": 2011, "pitch": 66, "duration": 31, "velocity": 48}, {"time": 2011, "pitch": 67, "duration": 11, "velocity": 79}, {"time": 2017, "pitch": 50, "duration": 35, "velocity": 70}, {"time": 2023, "pitch": 55, "duration": 15, "velocity": 53}, {"time": 2029, "pitch": 67, "duration": 17, "velocity": 84}, {"time": 2035, "pitch": 62, "duration": 18, "velocity": 72}, {"time": 2041, "pitch": 55, "duration": 11, "velocity": 57}, {"time": 2047, "pitch": 66, "duration": 6, "velocity": 77}, {"time": 2053, "pitch": 67, "duration": 14, "velocity": 94}, {"time": 2059, "pitch": 48, "duration": 41, "velocity": 66}, {"time": 2059, "pitch": 55, "duration": 5, "velocity": 63}, {"time": 2059, "pitch": 60, "duration": 7, "velocity": 70}, {"time": 2059, "pitch": 64, "duration": 8, "velocity": 77}, {"time": 2065, "pitch": 55, "duration": 16, "velocity": 60}, {"time": 2071, "pitch": 60, "duration": 10, "velocity": 41}, {"time": 2077, "pitch": 62, "duration": 6, "velocity": 63}, {"time": 2077, "pitch": 67, "duration": 15, "velocity": 88}, {"time": 2089, "pitch": 55, "duration": 11, "velocity": 59}, {"time": 2095, "pitch": 60, "duration": 8, "velocity": 69}, {"time": 2095, "pitch": 67, "duration": 10, "velocity": 90}, {"time": 2107, "pitch": 45, "duration": 42, "velocity": 74}, {"time": 2107, "pitch": 55, "duration": 8, "velocity": 65}, {"time": 2107, "pitch": 60, "duration": 12, "velocity": 70}, {"time": 2107, "pitch": 64, "duration": 6, "velocity": 60}, {"time": 2107, "pitch": 67, "duration": 13, "velocity": 74}, {"time": 2113, "pitch": 52, "duration": 21, "velocity": 60}, {"time": 2119, "pitch": 57, "duration": 22, "velocity": 34}, {"time": 2125, "pitch": 60, "duration": 15, "velocity": 72}, {"time": 2125, "pitch": 67, "duration": 15, "velocity": 74}, {"time": 2137, "pitch": 52, "duration": 12, "velocity": 63}, {"time": 2143, "pitch": 60, "duration": 1, "velocity": 38}, {"time": 2143, "pitch": 64, "duration": 3, "velocity": 82}, {"time": 2149, "pitch": 66, "duration": 2, "velocity": 47}, {"time": 2155, "pitch": 43, "duration": 40, "velocity": 63}, {"time": 2155, "pitch": 59, "duration": 9, "velocity": 56}, {"time": 2155, "pitch": 62, "duration": 8, "velocity": 68}, {"time": 2155, "pitch": 66, "duration": 4, "velocity": 45}, {"time": 2155, "pitch": 67, "duration": 8, "velocity": 88}, {"time": 2161, "pitch": 50, "duration": 13, "velocity": 45}, {"time": 2161, "pitch": 66, "duration": 7, "velocity": 56}, {"time": 2167, "pitch": 67, "duration": 4, "velocity": 81}, {"time": 2173, "pitch": 55, "duration": 4, "velocity": 63}, {"time": 2173, "pitch": 57, "duration": 7, "velocity": 50}, {"time": 2173, "pitch": 62, "duration": 8, "velocity": 60}, {"time": 2179, "pitch": 50, "duration": 17, "velocity": 68}, {"time": 2182, "pitch": 55, "duration": 4, "velocity": 53}, {"time": 2185, "pitch": 58, "duration": 1, "velocity": 48}, {"time": 2185, "pitch": 59, "duration": 4, "velocity": 56}, {"time": 2188, "pitch": 62, "duration": 4, "velocity": 84}, {"time": 2191, "pitch": 55, "duration": 5, "velocity": 66}, {"time": 2191, "pitch": 67, "duration": 4, "velocity": 96}, {"time": 2194, "pitch": 66, "duration": 2, "velocity": 34}, {"time": 2197, "pitch": 66, "duration": 5, "velocity": 72}, {"time": 2203, "pitch": 47, "duration": 43, "velocity": 81}, {"time": 2203, "pitch": 62, "duration": 7, "velocity": 69}, {"time": 2203, "pitch": 66, "duration": 8, "velocity": 48}, {"time": 2203, "pitch": 69, "duration": 7, "velocity": 76}, {"time": 2209, "pitch": 59, "duration": 8, "velocity": 65}, {"time": 2215, "pitch": 62, "duration": 3, "velocity": 74}, {"time": 2215, "pitch": 66, "duration": 3, "velocity": 60}, {"time": 2215, "pitch": 74, "duration": 4, "velocity": 90}, {"time": 2221, "pitch": 59, "duration": 4, "velocity": 42}, {"time": 2227, "pitch": 59, "duration": 3, "velocity": 44}, {"time": 2227, "pitch": 78, "duration": 2, "velocity": 48}, {"time": 2227, "pitch": 90, "duration": 2, "velocity": 70}, {"time": 2233, "pitch": 59, "duration": 6, "velocity": 42}, {"time": 2233, "pitch": 74, "duration": 2, "velocity": 72}, {"time": 2233, "pitch": 86, "duration": 1, "velocity": 91}, {"time": 2239, "pitch": 71, "duration": 2, "velocity": 81}, {"time": 2239, "pitch": 83, "duration": 2, "velocity": 101}, {"time": 2245, "pitch": 59, "duration": 2, "velocity": 54}, {"time": 2251, "pitch": 52, "duration": 40, "velocity": 91}, {"time": 2251, "pitch": 62, "duration": 9, "velocity": 79}, {"time": 2251, "pitch": 67, "duration": 9, "velocity": 86}, {"time": 2251, "pitch": 71, "duration": 9, "velocity": 96}, {"time": 2257, "pitch": 59, "duration": 13, "velocity": 65}, {"time": 2263, "pitch": 62, "duration": 5, "velocity": 78}, {"time": 2263, "pitch": 69, "duration": 7, "velocity": 91}, {"time": 2269, "pitch": 62, "duration": 8, "velocity": 53}, {"time": 2269, "pitch": 67, "duration": 10, "velocity": 82}, {"time": 2275, "pitch": 59, "duration": 5, "velocity": 82}, {"time": 2278, "pitch": 66, "duration": 4, "velocity": 69}, {"time": 2281, "pitch": 67, "duration": 5, "velocity": 79}, {"time": 2284, "pitch": 62, "duration": 3, "velocity": 60}, {"time": 2287, "pitch": 59, "duration": 4, "velocity": 60}, {"time": 2290, "pitch": 55, "duration": 2, "velocity": 63}, {"time": 2290, "pitch": 57, "duration": 2, "velocity": 41}, {"time": 2299, "pitch": 45, "duration": 25, "velocity": 72}, {"time": 2299, "pitch": 52, "duration": 2, "velocity": 54}, {"time": 2299, "pitch": 55, "duration": 6, "velocity": 47}, {"time": 2299, "pitch": 61, "duration": 6, "velocity": 31}, {"time": 2299, "pitch": 67, "duration": 9, "velocity": 72}, {"time": 2305, "pitch": 52, "duration": 10, "velocity": 53}, {"time": 2311, "pitch": 55, "duration": 7, "velocity": 90}, {"time": 2311, "pitch": 61, "duration": 7, "velocity": 88}, {"time": 2311, "pitch": 67, "duration": 10, "velocity": 91}, {"time": 2317, "pitch": 52, "duration": 6, "velocity": 85}, {"time": 2323, "pitch": 55, "duration": 13, "velocity": 82}, {"time": 2323, "pitch": 64, "duration": 7, "velocity": 88}, {"time": 2329, "pitch": 61, "duration": 11, "velocity": 57}, {"time": 2329, "pitch": 67, "duration": 3, "velocity": 69}, {"time": 2335, "pitch": 37, "duration": 6, "velocity": 42}, {"time": 2335, "pitch": 49, "duration": 6, "velocity": 39}, {"time": 2335, "pitch": 67, "duration": 6, "velocity": 94}, {"time": 2347, "pitch": 38, "duration": 2, "velocity": 51}, {"time": 2347, "pitch": 50, "duration": 2, "velocity": 57}, {"time": 2347, "pitch": 62, "duration": 16, "velocity": 63}, {"time": 2347, "pitch": 66, "duration": 18, "velocity": 35}, {"time": 2347, "pitch": 69, "duration": 18, "velocity": 77}, {"time": 2353, "pitch": 50, "duration": 10, "velocity": 3}, {"time": 2359, "pitch": 57, "duration": 49, "velocity": 42}, {"time": 2362, "pitch": 59, "duration": 46, "velocity": 56}, {"time": 2365, "pitch": 62, "duration": 19, "velocity": 70}, {"time": 2368, "pitch": 64, "duration": 4, "velocity": 60}, {"time": 2371, "pitch": 66, "duration": 2, "velocity": 72}, {"time": 2374, "pitch": 69, "duration": 4, "velocity": 68}, {"time": 2377, "pitch": 74, "duration": 4, "velocity": 60}, {"time": 2380, "pitch": 76, "duration": 4, "velocity": 86}, {"time": 2383, "pitch": 78, "duration": 1, "velocity": 45}, {"time": 2386, "pitch": 81, "duration": 2, "velocity": 44}, {"time": 2389, "pitch": 86, "duration": 5, "velocity": 53}, {"time": 2392, "pitch": 90, "duration": 4, "velocity": 34}, {"time": 2395, "pitch": 93, "duration": 2, "velocity": 70}, {"time": 2443, "pitch": 55, "duration": 42, "velocity": 72}, {"time": 2443, "pitch": 71, "duration": 7, "velocity": 91}, {"time": 2449, "pitch": 62, "duration": 7, "velocity": 56}, {"time": 2455, "pitch": 67, "duration": 6, "velocity": 85}, {"time": 2461, "pitch": 69, "duration": 12, "velocity": 76}, {"time": 2473, "pitch": 62, "duration": 9, "velocity": 69}, {"time": 2479, "pitch": 74, "duration": 5, "velocity": 72}, {"time": 2485, "pitch": 69, "duration": 2, "velocity": 41}, {"time": 2485, "pitch": 71, "duration": 13, "velocity": 92}, {"time": 2491, "pitch": 55, "duration": 41, "velocity": 94}, {"time": 2497, "pitch": 62, "duration": 7, "velocity": 63}, {"time": 2503, "pitch": 69, "duration": 7, "velocity": 68}, {"time": 2509, "pitch": 67, "duration": 8, "velocity": 96}, {"time": 2515, "pitch": 62, "duration": 4, "velocity": 68}, {"time": 2521, "pitch": 62, "duration": 8, "velocity": 69}, {"time": 2527, "pitch": 67, "duration": 6, "velocity": 96}, {"time": 2533, "pitch": 71, "duration": 6, "velocity": 84}, {"time": 2539, "pitch": 45, "duration": 44, "velocity": 81}, {"time": 2539, "pitch": 64, "duration": 9, "velocity": 45}, {"time": 2539, "pitch": 72, "duration": 8, "velocity": 97}, {"time": 2545, "pitch": 52, "duration": 25, "velocity": 77}, {"time": 2551, "pitch": 57, "duration": 7, "velocity": 47}, {"time": 2557, "pitch": 60, "duration": 3, "velocity": 72}, {"time": 2557, "pitch": 64, "duration": 4, "velocity": 90}, {"time": 2563, "pitch": 57, "duration": 7, "velocity": 39}, {"time": 2569, "pitch": 64, "duration": 5, "velocity": 70}, {"time": 2569, "pitch": 72, "duration": 5, "velocity": 94}, {"time": 2575, "pitch": 52, "duration": 4, "velocity": 84}, {"time": 2578, "pitch": 62, "duration": 2, "velocity": 68}, {"time": 2578, "pitch": 71, "duration": 2, "velocity": 99}, {"time": 2581, "pitch": 52, "duration": 2, "velocity": 79}, {"time": 2587, "pitch": 38, "duration": 7, "velocity": 88}, {"time": 2587, "pitch": 60, "duration": 18, "velocity": 74}, {"time": 2587, "pitch": 69, "duration": 19, "velocity": 53}, {"time": 2593, "pitch": 50, "duration": 7, "velocity": 60}, {"time": 2599, "pitch": 52, "duration": 20, "velocity": 81}, {"time": 2605, "pitch": 55, "duration": 7, "velocity": 79}, {"time": 2611, "pitch": 62, "duration": 5, "velocity": 72}, {"time": 2611, "pitch": 67, "duration": 5, "velocity": 91}, {"time": 2617, "pitch": 55, "duration": 2, "velocity": 79}, {"time": 2617, "pitch": 62, "duration": 3, "velocity": 60}, {"time": 2617, "pitch": 66, "duration": 4, "velocity": 68}, {"time": 2617, "pitch": 69, "duration": 5, "velocity": 68}, {"time": 2623, "pitch": 62, "duration": 3, "velocity": 78}, {"time": 2623, "pitch": 66, "duration": 1, "velocity": 41}, {"time": 2623, "pitch": 71, "duration": 3, "velocity": 96}, {"time": 2629, "pitch": 72, "duration": 2, "velocity": 50}, {"time": 2629, "pitch": 74, "duration": 2, "velocity": 56}, {"time": 2635, "pitch": 45, "duration": 40, "velocity": 68}, {"time": 2635, "pitch": 64, "duration": 10, "velocity": 72}, {"time": 2635, "pitch": 72, "duration": 9, "velocity": 72}, {"time": 2641, "pitch": 52, "duration": 26, "velocity": 82}, {"time": 2647, "pitch": 57, "duration": 7, "velocity": 44}, {"time": 2653, "pitch": 60, "duration": 8, "velocity": 77}, {"time": 2653, "pitch": 64, "duration": 5, "velocity": 88}, {"time": 2653, "pitch": 67, "duration": 9, "velocity": 92}, {"time": 2665, "pitch": 57, "duration": 6, "velocity": 48}, {"time": 2665, "pitch": 59, "duration": 7, "velocity": 65}, {"time": 2665, "pitch": 64, "duration": 5, "velocity": 85}, {"time": 2671, "pitch": 52, "duration": 3, "velocity": 94}, {"time": 2671, "pitch": 60, "duration": 2, "velocity": 88}, {"time": 2671, "pitch": 67, "duration": 2, "velocity": 85}, {"time": 2677, "pitch": 67, "duration": 6, "velocity": 88}, {"time": 2683, "pitch": 38, "duration": 6, "velocity": 72}, {"time": 2683, "pitch": 62, "duration": 19, "velocity": 72}, {"time": 2683, "pitch": 66, "duration": 18, "velocity": 63}, {"time": 2689, "pitch": 50, "duration": 7, "velocity": 65}, {"time": 2695, "pitch": 52, "duration": 28, "velocity": 85}, {"time": 2701, "pitch": 54, "duration": 24, "velocity": 56}, {"time": 2707, "pitch": 57, "duration": 7, "velocity": 59}, {"time": 2707, "pitch": 62, "duration": 2, "velocity": 77}, {"time": 2707, "pitch": 69, "duration": 3, "velocity": 96}, {"time": 2713, "pitch": 62, "duration": 6, "velocity": 63}, {"time": 2713, "pitch": 72, "duration": 7, "velocity": 86}, {"time": 2719, "pitch": 57, "duration": 4, "velocity": 60}, {"time": 2719, "pitch": 71, "duration": 6, "velocity": 91}, {"time": 2725, "pitch": 67, "duration": 6, "velocity": 69}, {"time": 2731, "pitch": 45, "duration": 20, "velocity": 88}, {"time": 2731, "pitch": 64, "duration": 4, "velocity": 86}, {"time": 2731, "pitch": 72, "duration": 5, "velocity": 97}, {"time": 2737, "pitch": 52, "duration": 19, "velocity": 50}, {"time": 2737, "pitch": 64, "duration": 2, "velocity": 60}, {"time": 2737, "pitch": 71, "duration": 3, "velocity": 84}, {"time": 2740, "pitch": 64, "duration": 5, "velocity": 82}, {"time": 2740, "pitch": 72, "duration": 7, "velocity": 91}, {"time": 2743, "pitch": 57, "duration": 5, "velocity": 47}, {"time": 2749, "pitch": 57, "duration": 3, "velocity": 45}, {"time": 2749, "pitch": 67, "duration": 3, "velocity": 96}, {"time": 2755, "pitch": 45, "duration": 8, "velocity": 72}, {"time": 2755, "pitch": 61, "duration": 8, "velocity": 81}, {"time": 2755, "pitch": 64, "duration": 7, "velocity": 86}, {"time": 2755, "pitch": 69, "duration": 7, "velocity": 90}, {"time": 2761, "pitch": 57, "duration": 9, "velocity": 45}, {"time": 2764, "pitch": 61, "duration": 4, "velocity": 90}, {"time": 2764, "pitch": 67, "duration": 5, "velocity": 97}, {"time": 2767, "pitch": 49, "duration": 6, "velocity": 53}, {"time": 2773, "pitch": 64, "duration": 1, "velocity": 79}, {"time": 2773, "pitch": 69, "duration": 2, "velocity": 81}, {"time": 2779, "pitch": 50, "duration": 20, "velocity": 90}, {"time": 2779, "pitch": 62, "duration": 4, "velocity": 81}, {"time": 2779, "pitch": 66, "duration": 5, "velocity": 99}, {"time": 2785, "pitch": 57, "duration": 8, "velocity": 47}, {"time": 2785, "pitch": 64, "duration": 4, "velocity": 82}, {"time": 2785, "pitch": 67, "duration": 5, "velocity": 85}, {"time": 2791, "pitch": 62, "duration": 4, "velocity": 66}, {"time": 2791, "pitch": 64, "duration": 2, "velocity": 88}, {"time": 2791, "pitch": 69, "duration": 3, "velocity": 69}, {"time": 2797, "pitch": 57, "duration": 4, "velocity": 53}, {"time": 2800, "pitch": 62, "duration": 3, "velocity": 92}, {"time": 2803, "pitch": 50, "duration": 19, "velocity": 84}, {"time": 2803, "pitch": 64, "duration": 4, "velocity": 68}, {"time": 2806, "pitch": 66, "duration": 2, "velocity": 90}, {"time": 2809, "pitch": 57, "duration": 7, "velocity": 60}, {"time": 2809, "pitch": 69, "duration": 3, "velocity": 82}, {"time": 2812, "pitch": 74, "duration": 3, "velocity": 68}, {"time": 2815, "pitch": 62, "duration": 4, "velocity": 78}, {"time": 2815, "pitch": 76, "duration": 4, "velocity": 90}, {"time": 2818, "pitch": 78, "duration": 2, "velocity": 63}, {"time": 2821, "pitch": 57, "duration": 2, "velocity": 70}, {"time": 2821, "pitch": 74, "duration": 5, "velocity": 62}, {"time": 2824, "pitch": 78, "duration": 2, "velocity": 63}, {"time": 2827, "pitch": 38, "duration": 32, "velocity": 85}, {"time": 2827, "pitch": 50, "duration": 5, "velocity": 90}, {"time": 2827, "pitch": 69, "duration": 5, "velocity": 72}, {"time": 2827, "pitch": 74, "duration": 5, "velocity": 86}, {"time": 2827, "pitch": 81, "duration": 6, "velocity": 92}, {"time": 2839, "pitch": 50, "duration": 3, "velocity": 113}, {"time": 2839, "pitch": 74, "duration": 2, "velocity": 65}, {"time": 2839, "pitch": 86, "duration": 2, "velocity": 81}, {"time": 2839, "pitch": 88, "duration": 2, "velocity": 84}, {"time": 2845, "pitch": 50, "duration": 3, "velocity": 79}, {"time": 2845, "pitch": 76, "duration": 2, "velocity": 84}, {"time": 2845, "pitch": 88, "duration": 2, "velocity": 96}, {"time": 2851, "pitch": 50, "duration": 3, "velocity": 107}, {"time": 2851, "pitch": 78, "duration": 2, "velocity": 77}, {"time": 2851, "pitch": 90, "duration": 3, "velocity": 78}, {"time": 2857, "pitch": 50, "duration": 2, "velocity": 106}, {"time": 2857, "pitch": 79, "duration": 2, "velocity": 88}, {"time": 2857, "pitch": 91, "duration": 2, "velocity": 82}, {"time": 2863, "pitch": 39, "duration": 8, "velocity": 78}, {"time": 2863, "pitch": 51, "duration": 1, "velocity": 63}, {"time": 2863, "pitch": 81, "duration": 2, "velocity": 84}, {"time": 2863, "pitch": 93, "duration": 3, "velocity": 99}, {"time": 2869, "pitch": 51, "duration": 3, "velocity": 109}, {"time": 2869, "pitch": 84, "duration": 2, "velocity": 63}, {"time": 2869, "pitch": 96, "duration": 2, "velocity": 77}, {"time": 2875, "pitch": 40, "duration": 41, "velocity": 106}, {"time": 2875, "pitch": 83, "duration": 1, "velocity": 86}, {"time": 2875, "pitch": 95, "duration": 2, "velocity": 90}, {"time": 2881, "pitch": 52, "duration": 8, "velocity": 79}, {"time": 2887, "pitch": 59, "duration": 4, "velocity": 82}, {"time": 2887, "pitch": 64, "duration": 5, "velocity": 88}, {"time": 2887, "pitch": 67, "duration": 4, "velocity": 97}, {"time": 2893, "pitch": 52, "duration": 7, "velocity": 57}, {"time": 2893, "pitch": 59, "duration": 4, "velocity": 63}, {"time": 2893, "pitch": 66, "duration": 5, "velocity": 105}, {"time": 2899, "pitch": 59, "duration": 2, "velocity": 94}, {"time": 2899, "pitch": 64, "duration": 1, "velocity": 90}, {"time": 2899, "pitch": 67, "duration": 3, "velocity": 107}, {"time": 2905, "pitch": 52, "duration": 5, "velocity": 60}, {"time": 2908, "pitch": 62, "duration": 3, "velocity": 96}, {"time": 2908, "pitch": 67, "duration": 2, "velocity": 96}, {"time": 2908, "pitch": 71, "duration": 8, "velocity": 107}, {"time": 2911, "pitch": 52, "duration": 6, "velocity": 88}, {"time": 2917, "pitch": 62, "duration": 2, "velocity": 79}, {"time": 2917, "pitch": 69, "duration": 2, "velocity": 103}, {"time": 2923, "pitch": 47, "duration": 41, "velocity": 86}, {"time": 2923, "pitch": 62, "duration": 6, "velocity": 91}, {"time": 2923, "pitch": 66, "duration": 6, "velocity": 86}, {"time": 2923, "pitch": 69, "duration": 6, "velocity": 90}, {"time": 2929, "pitch": 59, "duration": 8, "velocity": 42}, {"time": 2935, "pitch": 62, "duration": 3, "velocity": 85}, {"time": 2935, "pitch": 66, "duration": 4, "velocity": 70}, {"time": 2935, "pitch": 69, "duration": 5, "velocity": 92}, {"time": 2941, "pitch": 59, "duration": 2, "velocity": 38}, {"time": 2941, "pitch": 62, "duration": 5, "velocity": 81}, {"time": 2941, "pitch": 71, "duration": 5, "velocity": 101}, {"time": 2944, "pitch": 59, "duration": 3, "velocity": 54}, {"time": 2947, "pitch": 62, "duration": 7, "velocity": 92}, {"time": 2947, "pitch": 69, "duration": 3, "velocity": 101}, {"time": 2953, "pitch": 59, "duration": 3, "velocity": 50}, {"time": 2956, "pitch": 62, "duration": 3, "velocity": 103}, {"time": 2956, "pitch": 66, "duration": 4, "velocity": 103}, {"time": 2959, "pitch": 59, "duration": 4, "velocity": 91}, {"time": 2962, "pitch": 62, "duration": 3, "velocity": 106}, {"time": 2965, "pitch": 66, "duration": 4, "velocity": 99}, {"time": 2968, "pitch": 67, "duration": 2, "velocity": 107}, {"time": 2971, "pitch": 48, "duration": 20, "velocity": 85}, {"time": 2971, "pitch": 64, "duration": 7, "velocity": 99}, {"time": 2971, "pitch": 67, "duration": 7, "velocity": 101}, {"time": 2977, "pitch": 55, "duration": 7, "velocity": 85}, {"time": 2983, "pitch": 60, "duration": 4, "velocity": 84}, {"time": 2983, "pitch": 62, "duration": 5, "velocity": 84}, {"time": 2983, "pitch": 64, "duration": 6, "velocity": 79}, {"time": 2983, "pitch": 67, "duration": 6, "velocity": 99}, {"time": 2989, "pitch": 55, "duration": 1, "velocity": 97}, {"time": 2995, "pitch": 38, "duration": 16, "velocity": 97}, {"time": 2995, "pitch": 62, "duration": 7, "velocity": 96}, {"time": 2995, "pitch": 66, "duration": 11, "velocity": 94}, {"time": 2995, "pitch": 69, "duration": 7, "velocity": 96}, {"time": 3001, "pitch": 50, "duration": 7, "velocity": 53}, {"time": 3007, "pitch": 62, "duration": 5, "velocity": 81}, {"time": 3007, "pitch": 69, "duration": 2, "velocity": 92}, {"time": 3010, "pitch": 50, "duration": 4, "velocity": 76}, {"time": 3013, "pitch": 72, "duration": 4, "velocity": 88}, {"time": 3019, "pitch": 47, "duration": 17, "velocity": 74}, {"time": 3019, "pitch": 59, "duration": 10, "velocity": 62}, {"time": 3019, "pitch": 62, "duration": 4, "velocity": 92}, {"time": 3019, "pitch": 66, "duration": 4, "velocity": 74}, {"time": 3019, "pitch": 69, "duration": 4, "velocity": 94}, {"time": 3025, "pitch": 66, "duration": 1, "velocity": 19}, {"time": 3028, "pitch": 62, "duration": 7, "velocity": 91}, {"time": 3028, "pitch": 66, "duration": 7, "velocity": 88}, {"time": 3028, "pitch": 74, "duration": 8, "velocity": 101}, {"time": 3031, "pitch": 59, "duration": 9, "velocity": 63}, {"time": 3037, "pitch": 69, "duration": 4, "velocity": 82}, {"time": 3040, "pitch": 71, "duration": 5, "velocity": 86}, {"time": 3043, "pitch": 52, "duration": 18, "velocity": 90}, {"time": 3043, "pitch": 62, "duration": 5, "velocity": 84}, {"time": 3043, "pitch": 67, "duration": 7, "velocity": 91}, {"time": 3049, "pitch": 59, "duration": 12, "velocity": 69}, {"time": 3052, "pitch": 64, "duration": 5, "velocity": 72}, {"time": 3055, "pitch": 67, "duration": 5, "velocity": 101}, {"time": 3058, "pitch": 54, "duration": 3, "velocity": 2}, {"time": 3058, "pitch": 69, "duration": 4, "velocity": 65}, {"time": 3061, "pitch": 71, "duration": 6, "velocity": 79}, {"time": 3064, "pitch": 74, "duration": 2, "velocity": 77}, {"time": 3067, "pitch": 45, "duration": 19, "velocity": 63}, {"time": 3067, "pitch": 57, "duration": 14, "velocity": 70}, {"time": 3067, "pitch": 64, "duration": 9, "velocity": 79}, {"time": 3067, "pitch": 67, "duration": 7, "velocity": 86}, {"time": 3067, "pitch": 72, "duration": 8, "velocity": 90}, {"time": 3079, "pitch": 64, "duration": 7, "velocity": 84}, {"time": 3079, "pitch": 67, "duration": 5, "velocity": 99}, {"time": 3079, "pitch": 72, "duration": 5, "velocity": 91}, {"time": 3085, "pitch": 57, "duration": 7, "velocity": 79}, {"time": 3091, "pitch": 49, "duration": 21, "velocity": 56}, {"time": 3091, "pitch": 61, "duration": 7, "velocity": 66}, {"time": 3091, "pitch": 64, "duration": 7, "velocity": 74}, {"time": 3091, "pitch": 67, "duration": 6, "velocity": 96}, {"time": 3091, "pitch": 69, "duration": 8, "velocity": 85}, {"time": 3103, "pitch": 61, "duration": 7, "velocity": 63}, {"time": 3103, "pitch": 64, "duration": 7, "velocity": 86}, {"time": 3103, "pitch": 67, "duration": 7, "velocity": 88}, {"time": 3103, "pitch": 69, "duration": 7, "velocity": 72}, {"time": 3109, "pitch": 37, "duration": 3, "velocity": 56}, {"time": 3115, "pitch": 38, "duration": 51, "velocity": 90}, {"time": 3115, "pitch": 50, "duration": 7, "velocity": 90}, {"time": 3115, "pitch": 62, "duration": 4, "velocity": 83}, {"time": 3115, "pitch": 66, "duration": 5, "velocity": 84}, {"time": 3115, "pitch": 69, "duration": 3, "velocity": 79}, {"time": 3121, "pitch": 64, "duration": 7, "velocity": 84}, {"time": 3121, "pitch": 67, "duration": 6, "velocity": 81}, {"time": 3124, "pitch": 50, "duration": 3, "velocity": 68}, {"time": 3127, "pitch": 62, "duration": 1, "velocity": 90}, {"time": 3127, "pitch": 69, "duration": 2, "velocity": 93}, {"time": 3130, "pitch": 50, "duration": 4, "velocity": 61}, {"time": 3133, "pitch": 71, "duration": 2, "velocity": 81}, {"time": 3133, "pitch": 83, "duration": 2, "velocity": 73}, {"time": 3139, "pitch": 50, "duration": 3, "velocity": 72}, {"time": 3139, "pitch": 74, "duration": 2, "velocity": 77}, {"time": 3139, "pitch": 86, "duration": 2, "velocity": 93}, {"time": 3145, "pitch": 50, "duration": 3, "velocity": 78}, {"time": 3145, "pitch": 76, "duration": 1, "velocity": 72}, {"time": 3145, "pitch": 88, "duration": 1, "velocity": 95}, {"time": 3154, "pitch": 50, "duration": 4, "velocity": 86}, {"time": 3154, "pitch": 76, "duration": 2, "velocity": 84}, {"time": 3154, "pitch": 88, "duration": 2, "velocity": 96}, {"time": 3163, "pitch": 50, "duration": 2, "velocity": 98}, {"time": 3163, "pitch": 78, "duration": 2, "velocity": 94}, {"time": 3163, "pitch": 90, "duration": 2, "velocity": 94}, {"time": 3175, "pitch": 40, "duration": 41, "velocity": 107}, {"time": 3175, "pitch": 76, "duration": 3, "velocity": 81}, {"time": 3175, "pitch": 91, "duration": 3, "velocity": 106}, {"time": 3181, "pitch": 52, "duration": 8, "velocity": 63}, {"time": 3187, "pitch": 55, "duration": 5, "velocity": 82}, {"time": 3187, "pitch": 59, "duration": 5, "velocity": 81}, {"time": 3187, "pitch": 64, "duration": 7, "velocity": 99}, {"time": 3193, "pitch": 52, "duration": 6, "velocity": 63}, {"time": 3199, "pitch": 55, "duration": 5, "velocity": 77}, {"time": 3199, "pitch": 62, "duration": 8, "velocity": 92}, {"time": 3205, "pitch": 52, "duration": 4, "velocity": 57}, {"time": 3208, "pitch": 55, "duration": 3, "velocity": 86}, {"time": 3208, "pitch": 59, "duration": 3, "velocity": 86}, {"time": 3208, "pitch": 64, "duration": 3, "velocity": 96}, {"time": 3211, "pitch": 52, "duration": 4, "velocity": 65}, {"time": 3217, "pitch": 66, "duration": 5, "velocity": 90}, {"time": 3223, "pitch": 47, "duration": 44, "velocity": 91}, {"time": 3223, "pitch": 62, "duration": 3, "velocity": 84}, {"time": 3223, "pitch": 67, "duration": 3, "velocity": 85}, {"time": 3229, "pitch": 59, "duration": 4, "velocity": 45}, {"time": 3232, "pitch": 62, "duration": 7, "velocity": 79}, {"time": 3232, "pitch": 66, "duration": 5, "velocity": 62}, {"time": 3232, "pitch": 74, "duration": 7, "velocity": 90}, {"time": 3241, "pitch": 62, "duration": 6, "velocity": 78}, {"time": 3241, "pitch": 69, "duration": 4, "velocity": 85}, {"time": 3247, "pitch": 59, "duration": 10, "velocity": 54}, {"time": 3250, "pitch": 62, "duration": 4, "velocity": 70}, {"time": 3253, "pitch": 64, "duration": 3, "velocity": 72}, {"time": 3256, "pitch": 66, "duration": 5, "velocity": 68}, {"time": 3259, "pitch": 59, "duration": 2, "velocity": 60}, {"time": 3259, "pitch": 62, "duration": 2, "velocity": 50}, {"time": 3259, "pitch": 67, "duration": 5, "velocity": 54}, {"time": 3259, "pitch": 69, "duration": 4, "velocity": 56}, {"time": 3262, "pitch": 59, "duration": 3, "velocity": 59}, {"time": 3262, "pitch": 62, "duration": 3, "velocity": 50}, {"time": 3262, "pitch": 69, "duration": 1, "velocity": 57}, {"time": 3262, "pitch": 71, "duration": 3, "velocity": 68}, {"time": 3268, "pitch": 67, "duration": 3, "velocity": 82}, {"time": 3271, "pitch": 48, "duration": 18, "velocity": 70}, {"time": 3271, "pitch": 55, "duration": 13, "velocity": 91}, {"time": 3271, "pitch": 62, "duration": 7, "velocity": 74}, {"time": 3271, "pitch": 64, "duration": 6, "velocity": 82}, {"time": 3271, "pitch": 67, "duration": 5, "velocity": 68}, {"time": 3271, "pitch": 69, "duration": 6, "velocity": 69}, {"time": 3277, "pitch": 60, "duration": 7, "velocity": 42}, {"time": 3283, "pitch": 62, "duration": 6, "velocity": 68}, {"time": 3283, "pitch": 64, "duration": 6, "velocity": 76}, {"time": 3283, "pitch": 67, "duration": 5, "velocity": 94}, {"time": 3283, "pitch": 69, "duration": 3, "velocity": 72}, {"time": 3289, "pitch": 48, "duration": 1, "velocity": 27}, {"time": 3289, "pitch": 55, "duration": 1, "velocity": 99}, {"time": 3295, "pitch": 38, "duration": 19, "velocity": 69}, {"time": 3295, "pitch": 50, "duration": 14, "velocity": 60}, {"time": 3295, "pitch": 60, "duration": 4, "velocity": 77}, {"time": 3295, "pitch": 64, "duration": 8, "velocity": 91}, {"time": 3295, "pitch": 67, "duration": 5, "velocity": 96}, {"time": 3307, "pitch": 62, "duration": 7, "velocity": 81}, {"time": 3307, "pitch": 66, "duration": 6, "velocity": 57}, {"time": 3307, "pitch": 69, "duration": 6, "velocity": 91}, {"time": 3313, "pitch": 50, "duration": 3, "velocity": 81}, {"time": 3319, "pitch": 47, "duration": 15, "velocity": 77}, {"time": 3319, "pitch": 59, "duration": 10, "velocity": 54}, {"time": 3319, "pitch": 62, "duration": 7, "velocity": 53}, {"time": 3319, "pitch": 66, "duration": 8, "velocity": 56}, {"time": 3319, "pitch": 74, "duration": 7, "velocity": 68}, {"time": 3328, "pitch": 62, "duration": 7, "velocity": 97}, {"time": 3328, "pitch": 71, "duration": 8, "velocity": 90}, {"time": 3331, "pitch": 59, "duration": 6, "velocity": 54}, {"time": 3337, "pitch": 69, "duration": 5, "velocity": 84}, {"time": 3343, "pitch": 52, "duration": 18, "velocity": 82}, {"time": 3343, "pitch": 59, "duration": 17, "velocity": 68}, {"time": 3343, "pitch": 62, "duration": 5, "velocity": 90}, {"time": 3343, "pitch": 67, "duration": 8, "velocity": 94}, {"time": 3355, "pitch": 64, "duration": 4, "velocity": 66}, {"time": 3355, "pitch": 67, "duration": 4, "velocity": 79}, {"time": 3358, "pitch": 69, "duration": 4, "velocity": 66}, {"time": 3361, "pitch": 71, "duration": 4, "velocity": 78}, {"time": 3364, "pitch": 74, "duration": 2, "velocity": 86}, {"time": 3367, "pitch": 45, "duration": 17, "velocity": 63}, {"time": 3367, "pitch": 57, "duration": 15, "velocity": 65}, {"time": 3367, "pitch": 60, "duration": 10, "velocity": 82}, {"time": 3367, "pitch": 64, "duration": 9, "velocity": 91}, {"time": 3367, "pitch": 69, "duration": 10, "velocity": 88}, {"time": 3379, "pitch": 60, "duration": 7, "velocity": 78}, {"time": 3379, "pitch": 64, "duration": 7, "velocity": 92}, {"time": 3379, "pitch": 69, "duration": 8, "velocity": 91}, {"time": 3385, "pitch": 45, "duration": 2, "velocity": 39}, {"time": 3385, "pitch": 57, "duration": 2, "velocity": 54}, {"time": 3391, "pitch": 37, "duration": 20, "velocity": 81}, {"time": 3391, "pitch": 49, "duration": 16, "velocity": 50}, {"time": 3391, "pitch": 61, "duration": 10, "velocity": 69}, {"time": 3391, "pitch": 64, "duration": 10, "velocity": 101}, {"time": 3391, "pitch": 67, "duration": 6, "velocity": 69}, {"time": 3391, "pitch": 69, "duration": 10, "velocity": 91}, {"time": 3403, "pitch": 61, "duration": 7, "velocity": 57}, {"time": 3403, "pitch": 64, "duration": 7, "velocity": 103}, {"time": 3403, "pitch": 69, "duration": 8, "velocity": 85}, {"time": 3409, "pitch": 49, "duration": 2, "velocity": 69}, {"time": 3415, "pitch": 38, "duration": 44, "velocity": 84}, {"time": 3415, "pitch": 50, "duration": 7, "velocity": 59}, {"time": 3415, "pitch": 62, "duration": 4, "velocity": 82}, {"time": 3415, "pitch": 66, "duration": 6, "velocity": 72}, {"time": 3415, "pitch": 69, "duration": 3, "velocity": 81}, {"time": 3421, "pitch": 64, "duration": 7, "velocity": 70}, {"time": 3421, "pitch": 67, "duration": 6, "velocity": 85}, {"time": 3424, "pitch": 50, "duration": 5, "velocity": 60}, {"time": 3427, "pitch": 62, "duration": 1, "velocity": 82}, {"time": 3427, "pitch": 67, "duration": 1, "velocity": 63}, {"time": 3427, "pitch": 69, "duration": 2, "velocity": 68}, {"time": 3430, "pitch": 50, "duration": 6, "velocity": 23}, {"time": 3433, "pitch": 71, "duration": 2, "velocity": 47}, {"time": 3433, "pitch": 83, "duration": 2, "velocity": 56}, {"time": 3439, "pitch": 50, "duration": 10, "velocity": 42}, {"time": 3439, "pitch": 73, "duration": 2, "velocity": 47}, {"time": 3439, "pitch": 85, "duration": 3, "velocity": 68}, {"time": 3445, "pitch": 74, "duration": 2, "velocity": 79}, {"time": 3445, "pitch": 86, "duration": 3, "velocity": 65}, {"time": 3451, "pitch": 50, "duration": 4, "velocity": 47}, {"time": 3451, "pitch": 76, "duration": 1, "velocity": 79}, {"time": 3451, "pitch": 88, "duration": 2, "velocity": 99}, {"time": 3457, "pitch": 50, "duration": 3, "velocity": 53}, {"time": 3457, "pitch": 78, "duration": 1, "velocity": 56}, {"time": 3457, "pitch": 90, "duration": 2, "velocity": 68}, {"time": 3463, "pitch": 38, "duration": 2, "velocity": 79}, {"time": 3463, "pitch": 50, "duration": 2, "velocity": 92}, {"time": 3463, "pitch": 81, "duration": 1, "velocity": 68}, {"time": 3463, "pitch": 93, "duration": 2, "velocity": 82}, {"time": 3499, "pitch": 42, "duration": 5, "velocity": 81}, {"time": 3499, "pitch": 62, "duration": 5, "velocity": 78}, {"time": 3499, "pitch": 66, "duration": 4, "velocity": 84}, {"time": 3499, "pitch": 69, "duration": 5, "velocity": 83}, {"time": 3511, "pitch": 43, "duration": 110, "velocity": 86}, {"time": 3511, "pitch": 55, "duration": 42, "velocity": 81}, {"time": 3511, "pitch": 62, "duration": 7, "velocity": 84}, {"time": 3511, "pitch": 67, "duration": 7, "velocity": 84}, {"time": 3511, "pitch": 71, "duration": 7, "velocity": 94}, {"time": 3520, "pitch": 62, "duration": 5, "velocity": 78}, {"time": 3520, "pitch": 69, "duration": 9, "velocity": 82}, {"time": 3529, "pitch": 62, "duration": 4, "velocity": 78}, {"time": 3529, "pitch": 71, "duration": 5, "velocity": 86}, {"time": 3535, "pitch": 62, "duration": 1, "velocity": 54}, {"time": 3535, "pitch": 67, "duration": 2, "velocity": 79}, {"time": 3535, "pitch": 74, "duration": 3, "velocity": 84}, {"time": 3541, "pitch": 76, "duration": 2, "velocity": 69}, {"time": 3541, "pitch": 88, "duration": 2, "velocity": 90}, {"time": 3550, "pitch": 78, "duration": 2, "velocity": 75}, {"time": 3550, "pitch": 90, "duration": 2, "velocity": 94}, {"time": 3559, "pitch": 55, "duration": 5, "velocity": 77}, {"time": 3559, "pitch": 79, "duration": 2, "velocity": 76}, {"time": 3559, "pitch": 91, "duration": 2, "velocity": 90}, {"time": 3568, "pitch": 55, "duration": 3, "velocity": 71}, {"time": 3568, "pitch": 81, "duration": 2, "velocity": 79}, {"time": 3568, "pitch": 93, "duration": 3, "velocity": 94}, {"time": 3586, "pitch": 55, "duration": 22, "velocity": 84}, {"time": 3586, "pitch": 83, "duration": 9, "velocity": 59}, {"time": 3586, "pitch": 95, "duration": 21, "velocity": 82}], "annotations": [{"time": 59, "annotation": {"number": 64, "value": 127}, "group": "control_change"}, {"time": 102, "annotation": {"number": 64, "value": 0}, "group": "control_change"}, {"time": 107, "annotation": {"number": 64, "value": 127}, "group": "control_change"}, {"time": 152, "annotation": {"number": 64, "value": 0}, "group": "control_change"}, {"time": 157, "annotation": {"number": 64, "value": 127}, "group": "control_change"}, {"time": 200, "annotation": {"number": 64, "value": 127}, "group": "control_change"}, {"time": 209, "annotation": {"number": 64, "value": 0}, "group": "control_change"}, {"time": 249, "annotation": {"number": 64, "value": 0}, "group": "control_change"}, {"time": 250, "annotation": {"number": 64, "value": 127}, "group": "control_change"}, {"time": 296, "annotation": {"number": 64, "value": 0}, "group": "control_change"}, {"time": 296, "annotation": {"number": 64, "value": 127}, "group": "control_change"}, {"time": 344, "annotation": {"number": 64, "value": 0}, "group": "control_change"}, {"time": 349, "annotation": {"number": 64, "value": 127}, "group": "control_change"}, {"time": 439, "annotation": {"number": 64, "value": 0}, "group": "control_change"}, {"time": 441, "annotation": {"number": 64, "value": 127}, "group": "control_change"}, {"time": 489, "annotation": {"number": 64, "value": 0}, "group": "control_change"}, {"time": 492, "annotation": {"number": 64, "value": 127}, "group": "control_change"}, {"time": 536, "annotation": {"number": 64, "value": 0}, "group": "control_change"}, {"time": 540, "annotation": {"number": 64, "value": 127}, "group": "control_change"}, {"time": 585, "annotation": {"number": 64, "value": 0}, "group": "control_change"}, {"time": 590, "annotation": {"number": 64, "value": 127}, "group": "control_change"}, {"time": 630, "annotation": {"number": 64, "value": 0}, "group": "control_change"}, {"time": 637, "annotation": {"number": 64, "value": 127}, "group": "control_change"}, {"time": 678, "annotation": {"number": 64, "value": 0}, "group": "control_change"}, {"time": 679, "annotation": {"number": 64, "value": 127}, "group": "control_change"}, {"time": 728, "annotation": {"number": 64, "value": 0}, "group": "control_change"}, {"time": 732, "annotation": {"number": 64, "value": 127}, "group": "control_change"}, {"time": 775, "annotation": {"number": 64, "value": 0}, "group": "control_change"}, {"time": 779, "annotation": {"number": 64, "value": 127}, "group": "control_change"}, {"time": 861, "annotation": {"number": 64, "value": 0}, "group": "control_change"}, {"time": 873, "annotation": {"number": 64, "value": 127}, "group": "control_change"}, {"time": 919, "annotation": {"number": 64, "value": 0}, "group": "control_change"}, {"time": 923, "annotation": {"number": 64, "value": 127}, "group": "control_change"}, {"time": 967, "annotation": {"number": 64, "value": 0}, "group": "control_change"}, {"time": 970, "annotation": {"number": 64, "value": 127}, "group": "control_change"}, {"time": 1015, "annotation": {"number": 64, "value": 0}, "group": "control_change"}, {"time": 1018, "annotation": {"number": 64, "value": 127}, "group": "control_change"}, {"time": 1064, "annotation": {"number": 64, "value": 0}, "group": "control_change"}, {"time": 1067, "annotation": {"number": 64, "value": 127}, "group": "control_change"}, {"time": 1112, "annotation": {"number": 64, "value": 0}, "group": "control_change"}, {"time": 1115, "annotation": {"number": 64, "value": 127}, "group": "control_change"}, {"time": 1159, "annotation": {"number": 64, "value": 0}, "group": "control_change"}, {"time": 1160, "annotation": {"number": 64, "value": 127}, "group": "control_change"}, {"time": 1185, "annotation": {"number": 64, "value": 0}, "group": "control_change"}, {"time": 1188, "annotation": {"number": 64, "value": 127}, "group": "control_change"}, {"time": 1207, "annotation": {"number": 64, "value": 0}, "group": "control_change"}, {"time": 1210, "annotation": {"number": 64, "value": 127}, "group": "control_change"}, {"time": 1303, "annotation": {"number": 64, "value": 0}, "group": "control_change"}, {"time": 1304, "annotation": {"number": 64, "value": 127}, "group": "control_change"}, {"time": 1351, "annotation": {"number": 64, "value": 0}, "group": "control_change"}, {"time": 1353, "annotation": {"number": 64, "value": 127}, "group": "control_change"}, {"time": 1398, "annotation": {"number": 64, "value": 0}, "group": "control_change"}, {"time": 1400, "annotation": {"number": 64, "value": 127}, "group": "control_change"}, {"time": 1425, "annotation": {"number": 64, "value": 0}, "group": "control_change"}, {"time": 1429, "annotation": {"number": 64, "value": 127}, "group": "control_change"}, {"time": 1447, "annotation": {"number": 64, "value": 0}, "group": "control_change"}, {"time": 1448, "annotation": {"number": 64, "value": 127}, "group": "control_change"}, {"time": 1470, "annotation": {"number": 64, "value": 0}, "group": "control_change"}, {"time": 1472, "annotation": {"number": 64, "value": 127}, "group": "control_change"}, {"time": 1495, "annotation": {"number": 64, "value": 0}, "group": "control_change"}, {"time": 1497, "annotation": {"number": 64, "value": 127}, "group": "control_change"}, {"time": 1519, "annotation": {"number": 64, "value": 0}, "group": "control_change"}, {"time": 1522, "annotation": {"number": 64, "value": 127}, "group": "control_change"}, {"time": 1543, "annotation": {"number": 64, "value": 0}, "group": "control_change"}, {"time": 1545, "annotation": {"number": 64, "value": 127}, "group": "control_change"}, {"time": 1591, "annotation": {"number": 64, "value": 0}, "group": "control_change"}, {"time": 1594, "annotation": {"number": 64, "value": 127}, "group": "control_change"}, {"time": 1639, "annotation": {"number": 64, "value": 0}, "group": "control_change"}, {"time": 1641, "annotation": {"number": 64, "value": 127}, "group": "control_change"}, {"time": 1687, "annotation": {"number": 64, "value": 0}, "group": "control_change"}, {"time": 1691, "annotation": {"number": 64, "value": 127}, "group": "control_change"}, {"time": 1712, "annotation": {"number": 64, "value": 0}, "group": "control_change"}, {"time": 1716, "annotation": {"number": 64, "value": 127}, "group": "control_change"}, {"time": 1735, "annotation": {"number": 64, "value": 0}, "group": "control_change"}, {"time": 1736, "annotation": {"number": 64, "value": 127}, "group": "control_change"}, {"time": 1758, "annotation": {"number": 64, "value": 0}, "group": "control_change"}, {"time": 1761, "annotation": {"number": 64, "value": 127}, "group": "control_change"}, {"time": 1780, "annotation": {"number": 64, "value": 0}, "group": "control_change"}, {"time": 1782, "annotation": {"number": 64, "value": 0}, "group": "control_change"}, {"time": 1785, "annotation": {"number": 64, "value": 127}, "group": "control_change"}, {"time": 1811, "annotation": {"number": 64, "value": 0}, "group": "control_change"}, {"time": 1814, "annotation": {"number": 64, "value": 127}, "group": "control_change"}, {"time": 1831, "annotation": {"number": 64, "value": 0}, "group": "control_change"}, {"time": 1834, "annotation": {"number": 64, "value": 127}, "group": "control_change"}, {"time": 1879, "annotation": {"number": 64, "value": 0}, "group": "control_change"}, {"time": 2013, "annotation": {"number": 64, "value": 127}, "group": "control_change"}, {"time": 2030, "annotation": {"number": 64, "value": 0}, "group": "control_change"}, {"time": 2033, "annotation": {"number": 64, "value": 127}, "group": "control_change"}, {"time": 2059, "annotation": {"number": 64, "value": 0}, "group": "control_change"}, {"time": 2062, "annotation": {"number": 64, "value": 127}, "group": "control_change"}, {"time": 2107, "annotation": {"number": 64, "value": 0}, "group": "control_change"}, {"time": 2111, "annotation": {"number": 64, "value": 127}, "group": "control_change"}, {"time": 2156, "annotation": {"number": 64, "value": 0}, "group": "control_change"}, {"time": 2160, "annotation": {"number": 64, "value": 127}, "group": "control_change"}, {"time": 2203, "annotation": {"number": 64, "value": 0}, "group": "control_change"}, {"time": 2205, "annotation": {"number": 64, "value": 127}, "group": "control_change"}, {"time": 2252, "annotation": {"number": 64, "value": 0}, "group": "control_change"}, {"time": 2255, "annotation": {"number": 64, "value": 127}, "group": "control_change"}, {"time": 2300, "annotation": {"number": 64, "value": 0}, "group": "control_change"}, {"time": 2303, "annotation": {"number": 64, "value": 127}, "group": "control_change"}, {"time": 2347, "annotation": {"number": 64, "value": 0}, "group": "control_change"}, {"time": 2350, "annotation": {"number": 64, "value": 127}, "group": "control_change"}, {"time": 2419, "annotation": {"number": 64, "value": 0}, "group": "control_change"}, {"time": 2442, "annotation": {"number": 64, "value": 127}, "group": "control_change"}, {"time": 2488, "annotation": {"number": 64, "value": 0}, "group": "control_change"}, {"time": 2492, "annotation": {"number": 64, "value": 127}, "group": "control_change"}, {"time": 2536, "annotation": {"number": 64, "value": 0}, "group": "control_change"}, {"time": 2539, "annotation": {"number": 64, "value": 127}, "group": "control_change"}, {"time": 2584, "annotation": {"number": 64, "value": 0}, "group": "control_change"}, {"time": 2587, "annotation": {"number": 64, "value": 127}, "group": "control_change"}, {"time": 2633, "annotation": {"number": 64, "value": 0}, "group": "control_change"}, {"time": 2636, "annotation": {"number": 64, "value": 127}, "group": "control_change"}, {"time": 2680, "annotation": {"number": 64, "value": 0}, "group": "control_change"}, {"time": 2684, "annotation": {"number": 64, "value": 127}, "group": "control_change"}, {"time": 2728, "annotation": {"number": 64, "value": 0}, "group": "control_change"}, {"time": 2728, "annotation": {"number": 64, "value": 127}, "group": "control_change"}, {"time": 2754, "annotation": {"number": 64, "value": 0}, "group": "control_change"}, {"time": 2757, "annotation": {"number": 64, "value": 127}, "group": "control_change"}, {"time": 2776, "annotation": {"number": 64, "value": 0}, "group": "control_change"}, {"time": 2779, "annotation": {"number": 64, "value": 127}, "group": "control_change"}, {"time": 2872, "annotation": {"number": 64, "value": 0}, "group": "control_change"}, {"time": 2873, "annotation": {"number": 64, "value": 127}, "group": "control_change"}, {"time": 2920, "annotation": {"number": 64, "value": 0}, "group": "control_change"}, {"time": 2922, "annotation": {"number": 64, "value": 127}, "group": "control_change"}, {"time": 2967, "annotation": {"number": 64, "value": 0}, "group": "control_change"}, {"time": 2969, "annotation": {"number": 64, "value": 127}, "group": "control_change"}, {"time": 2994, "annotation": {"number": 64, "value": 0}, "group": "control_change"}, {"time": 2998, "annotation": {"number": 64, "value": 127}, "group": "control_change"}, {"time": 3016, "annotation": {"number": 64, "value": 0}, "group": "control_change"}, {"time": 3017, "annotation": {"number": 64, "value": 127}, "group": "control_change"}, {"time": 3039, "annotation": {"number": 64, "value": 0}, "group": "control_change"}, {"time": 3041, "annotation": {"number": 64, "value": 127}, "group": "control_change"}, {"time": 3064, "annotation": {"number": 64, "value": 0}, "group": "control_change"}, {"time": 3066, "annotation": {"number": 64, "value": 127}, "group": "control_change"}, {"time": 3088, "annotation": {"number": 64, "value": 0}, "group": "control_change"}, {"time": 3091, "annotation": {"number": 64, "value": 127}, "group": "control_change"}, {"time": 3112, "annotation": {"number": 64, "value": 0}, "group": "control_change"}, {"time": 3114, "annotation": {"number": 64, "value": 127}, "group": "control_change"}, {"time": 3115, "annotation": {"number": 64, "value": 0}, "group": "control_change"}, {"time": 3116, "annotation": {"number": 64, "value": 127}, "group": "control_change"}, {"time": 3175, "annotation": {"number": 64, "value": 0}, "group": "control_change"}, {"time": 3220, "annotation": {"number": 64, "value": 0}, "group": "control_change"}, {"time": 3222, "annotation": {"number": 64, "value": 127}, "group": "control_change"}, {"time": 3268, "annotation": {"number": 64, "value": 0}, "group": "control_change"}, {"time": 3272, "annotation": {"number": 64, "value": 127}, "group": "control_change"}, {"time": 3293, "annotation": {"number": 64, "value": 0}, "group": "control_change"}, {"time": 3297, "annotation": {"number": 64, "value": 127}, "group": "control_change"}, {"time": 3316, "annotation": {"number": 64, "value": 0}, "group": "control_change"}, {"time": 3317, "annotation": {"number": 64, "value": 127}, "group": "control_change"}, {"time": 3339, "annotation": {"number": 64, "value": 0}, "group": "control_change"}, {"time": 3342, "annotation": {"number": 64, "value": 127}, "group": "control_change"}, {"time": 3361, "annotation": {"number": 64, "value": 0}, "group": "control_change"}, {"time": 3363, "annotation": {"number": 64, "value": 0}, "group": "control_change"}, {"time": 3366, "annotation": {"number": 64, "value": 127}, "group": "control_change"}, {"time": 3392, "annotation": {"number": 64, "value": 0}, "group": "control_change"}, {"time": 3395, "annotation": {"number": 64, "value": 127}, "group": "control_change"}, {"time": 3412, "annotation": {"number": 64, "value": 0}, "group": "control_change"}, {"time": 3416, "annotation": {"number": 64, "value": 127}, "group": "control_change"}, {"time": 3460, "annotation": {"number": 64, "value": 0}, "group": "control_change"}, {"time": 3501, "annotation": {"number": 64, "value": 127}, "group": "control_change"}, {"time": 3511, "annotation": {"number": 64, "value": 0}, "group": "control_change"}, {"time": 3514, "annotation": {"number": 64, "value": 127}, "group": "control_change"}, {"time": 3656, "annotation": {"number": 64, "value": 0}, "group": "control_change"}]}]}