{"metadata": {"schema_version": "0.2", "title": "None", "source_filename": "265.mid", "source_format": "midi"}, "resolution": 12, "tempos": [{"time": 0, "qpm": 97.00010993345792}], "time_signatures": [{"time": 0, "numerator": 4, "denominator": 4}], "tracks": [{"program": 4, "is_drum": false, "name": "MELODY", "notes": [{"time": 375, "pitch": 73, "duration": 6, "velocity": 84}, {"time": 381, "pitch": 73, "duration": 6, "velocity": 74}, {"time": 387, "pitch": 75, "duration": 7, "velocity": 62}, {"time": 393, "pitch": 77, "duration": 12, "velocity": 77}, {"time": 405, "pitch": 77, "duration": 6, "velocity": 90}, {"time": 411, "pitch": 75, "duration": 7, "velocity": 63}, {"time": 417, "pitch": 77, "duration": 6, "velocity": 79}, {"time": 423, "pitch": 82, "duration": 12, "velocity": 79}, {"time": 435, "pitch": 75, "duration": 36, "velocity": 96}, {"time": 471, "pitch": 73, "duration": 6, "velocity": 80}, {"time": 477, "pitch": 72, "duration": 6, "velocity": 74}, {"time": 483, "pitch": 73, "duration": 6, "velocity": 87}, {"time": 489, "pitch": 75, "duration": 12, "velocity": 93}, {"time": 501, "pitch": 75, "duration": 6, "velocity": 95}, {"time": 507, "pitch": 73, "duration": 7, "velocity": 66}, {"time": 513, "pitch": 75, "duration": 6, "velocity": 87}, {"time": 519, "pitch": 80, "duration": 12, "velocity": 86}, {"time": 531, "pitch": 73, "duration": 36, "velocity": 96}, {"time": 567, "pitch": 73, "duration": 6, "velocity": 90}, {"time": 573, "pitch": 73, "duration": 6, "velocity": 87}, {"time": 579, "pitch": 75, "duration": 6, "velocity": 84}, {"time": 585, "pitch": 77, "duration": 12, "velocity": 97}, {"time": 597, "pitch": 77, "duration": 6, "velocity": 96}, {"time": 603, "pitch": 75, "duration": 6, "velocity": 73}, {"time": 609, "pitch": 77, "duration": 6, "velocity": 84}, {"time": 615, "pitch": 82, "duration": 12, "velocity": 85}, {"time": 627, "pitch": 75, "duration": 36, "velocity": 100}, {"time": 663, "pitch": 72, "duration": 6, "velocity": 90}, {"time": 669, "pitch": 72, "duration": 6, "velocity": 87}, {"time": 675, "pitch": 73, "duration": 6, "velocity": 86}, {"time": 681, "pitch": 75, "duration": 12, "velocity": 90}, {"time": 693, "pitch": 75, "duration": 6, "velocity": 98}, {"time": 699, "pitch": 73, "duration": 7, "velocity": 76}, {"time": 705, "pitch": 75, "duration": 6, "velocity": 79}, {"time": 711, "pitch": 80, "duration": 12, "velocity": 89}, {"time": 723, "pitch": 73, "duration": 54, "velocity": 85}, {"time": 777, "pitch": 77, "duration": 6, "velocity": 90}, {"time": 783, "pitch": 77, "duration": 6, "velocity": 89}, {"time": 789, "pitch": 77, "duration": 6, "velocity": 87}, {"time": 795, "pitch": 77, "duration": 6, "velocity": 87}, {"time": 801, "pitch": 77, "duration": 6, "velocity": 90}, {"time": 807, "pitch": 73, "duration": 12, "velocity": 85}, {"time": 819, "pitch": 75, "duration": 36, "velocity": 97}, {"time": 855, "pitch": 72, "duration": 6, "velocity": 84}, {"time": 861, "pitch": 72, "duration": 6, "velocity": 86}, {"time": 867, "pitch": 73, "duration": 6, "velocity": 66}, {"time": 873, "pitch": 75, "duration": 6, "velocity": 84}, {"time": 879, "pitch": 75, "duration": 6, "velocity": 84}, {"time": 885, "pitch": 75, "duration": 6, "velocity": 72}, {"time": 891, "pitch": 75, "duration": 6, "velocity": 66}, {"time": 897, "pitch": 75, "duration": 6, "velocity": 82}, {"time": 903, "pitch": 72, "duration": 12, "velocity": 72}, {"time": 915, "pitch": 73, "duration": 54, "velocity": 92}, {"time": 969, "pitch": 77, "duration": 6, "velocity": 94}, {"time": 975, "pitch": 77, "duration": 6, "velocity": 89}, {"time": 981, "pitch": 77, "duration": 6, "velocity": 86}, {"time": 987, "pitch": 77, "duration": 6, "velocity": 84}, {"time": 993, "pitch": 77, "duration": 6, "velocity": 85}, {"time": 999, "pitch": 73, "duration": 12, "velocity": 90}, {"time": 1011, "pitch": 75, "duration": 36, "velocity": 100}, {"time": 1047, "pitch": 72, "duration": 6, "velocity": 97}, {"time": 1053, "pitch": 72, "duration": 6, "velocity": 93}, {"time": 1059, "pitch": 73, "duration": 6, "velocity": 93}, {"time": 1065, "pitch": 75, "duration": 6, "velocity": 99}, {"time": 1071, "pitch": 75, "duration": 6, "velocity": 91}, {"time": 1077, "pitch": 75, "duration": 6, "velocity": 90}, {"time": 1083, "pitch": 75, "duration": 6, "velocity": 90}, {"time": 1089, "pitch": 75, "duration": 6, "velocity": 93}, {"time": 1095, "pitch": 72, "duration": 12, "velocity": 92}, {"time": 1107, "pitch": 73, "duration": 42, "velocity": 105}, {"time": 1149, "pitch": 73, "duration": 6, "velocity": 98}, {"time": 1155, "pitch": 75, "duration": 6, "velocity": 87}, {"time": 1161, "pitch": 77, "duration": 12, "velocity": 94}, {"time": 1173, "pitch": 73, "duration": 12, "velocity": 98}, {"time": 1185, "pitch": 70, "duration": 12, "velocity": 86}, {"time": 1197, "pitch": 77, "duration": 6, "velocity": 100}, {"time": 1203, "pitch": 77, "duration": 12, "velocity": 97}, {"time": 1215, "pitch": 75, "duration": 30, "velocity": 101}, {"time": 1245, "pitch": 72, "duration": 6, "velocity": 93}, {"time": 1251, "pitch": 73, "duration": 6, "velocity": 73}, {"time": 1257, "pitch": 75, "duration": 12, "velocity": 94}, {"time": 1269, "pitch": 75, "duration": 12, "velocity": 93}, {"time": 1281, "pitch": 75, "duration": 12, "velocity": 83}, {"time": 1293, "pitch": 72, "duration": 6, "velocity": 87}, {"time": 1299, "pitch": 75, "duration": 12, "velocity": 99}, {"time": 1311, "pitch": 73, "duration": 30, "velocity": 95}, {"time": 1341, "pitch": 73, "duration": 6, "velocity": 94}, {"time": 1347, "pitch": 75, "duration": 6, "velocity": 79}, {"time": 1353, "pitch": 77, "duration": 12, "velocity": 93}, {"time": 1365, "pitch": 73, "duration": 12, "velocity": 96}, {"time": 1377, "pitch": 70, "duration": 12, "velocity": 84}, {"time": 1389, "pitch": 77, "duration": 6, "velocity": 105}, {"time": 1395, "pitch": 77, "duration": 12, "velocity": 101}, {"time": 1407, "pitch": 75, "duration": 30, "velocity": 100}, {"time": 1437, "pitch": 72, "duration": 6, "velocity": 94}, {"time": 1443, "pitch": 73, "duration": 6, "velocity": 77}, {"time": 1449, "pitch": 75, "duration": 6, "velocity": 76}, {"time": 1455, "pitch": 75, "duration": 6, "velocity": 73}, {"time": 1461, "pitch": 75, "duration": 6, "velocity": 81}, {"time": 1467, "pitch": 75, "duration": 6, "velocity": 86}, {"time": 1473, "pitch": 75, "duration": 12, "velocity": 79}, {"time": 1485, "pitch": 80, "duration": 6, "velocity": 87}, {"time": 1491, "pitch": 78, "duration": 18, "velocity": 91}, {"time": 1509, "pitch": 77, "duration": 6, "velocity": 96}, {"time": 1515, "pitch": 77, "duration": 15, "velocity": 97}, {"time": 1527, "pitch": 73, "duration": 6, "velocity": 89}, {"time": 1533, "pitch": 73, "duration": 6, "velocity": 87}, {"time": 1539, "pitch": 75, "duration": 6, "velocity": 80}, {"time": 1545, "pitch": 77, "duration": 12, "velocity": 90}, {"time": 1557, "pitch": 77, "duration": 6, "velocity": 92}, {"time": 1563, "pitch": 75, "duration": 6, "velocity": 71}, {"time": 1569, "pitch": 77, "duration": 6, "velocity": 80}, {"time": 1575, "pitch": 82, "duration": 12, "velocity": 90}, {"time": 1587, "pitch": 75, "duration": 36, "velocity": 90}, {"time": 1623, "pitch": 73, "duration": 6, "velocity": 93}, {"time": 1629, "pitch": 72, "duration": 6, "velocity": 84}, {"time": 1635, "pitch": 73, "duration": 7, "velocity": 89}, {"time": 1641, "pitch": 75, "duration": 12, "velocity": 92}, {"time": 1653, "pitch": 75, "duration": 6, "velocity": 97}, {"time": 1659, "pitch": 73, "duration": 6, "velocity": 71}, {"time": 1665, "pitch": 75, "duration": 6, "velocity": 76}, {"time": 1671, "pitch": 80, "duration": 12, "velocity": 86}, {"time": 1683, "pitch": 73, "duration": 36, "velocity": 100}, {"time": 1719, "pitch": 73, "duration": 6, "velocity": 99}, {"time": 1725, "pitch": 73, "duration": 6, "velocity": 93}, {"time": 1731, "pitch": 75, "duration": 6, "velocity": 87}, {"time": 1737, "pitch": 77, "duration": 12, "velocity": 98}, {"time": 1749, "pitch": 77, "duration": 6, "velocity": 99}, {"time": 1755, "pitch": 75, "duration": 6, "velocity": 87}, {"time": 1761, "pitch": 77, "duration": 6, "velocity": 92}, {"time": 1767, "pitch": 82, "duration": 12, "velocity": 90}, {"time": 1779, "pitch": 75, "duration": 36, "velocity": 97}, {"time": 1815, "pitch": 73, "duration": 6, "velocity": 95}, {"time": 1821, "pitch": 72, "duration": 6, "velocity": 64}, {"time": 1827, "pitch": 73, "duration": 6, "velocity": 84}, {"time": 1833, "pitch": 75, "duration": 12, "velocity": 90}, {"time": 1845, "pitch": 75, "duration": 6, "velocity": 93}, {"time": 1851, "pitch": 73, "duration": 7, "velocity": 66}, {"time": 1857, "pitch": 75, "duration": 6, "velocity": 90}, {"time": 1863, "pitch": 80, "duration": 12, "velocity": 79}, {"time": 1875, "pitch": 73, "duration": 27, "velocity": 91}, {"time": 2319, "pitch": 77, "duration": 6, "velocity": 89}, {"time": 2325, "pitch": 77, "duration": 6, "velocity": 87}, {"time": 2331, "pitch": 77, "duration": 6, "velocity": 87}, {"time": 2337, "pitch": 77, "duration": 6, "velocity": 90}, {"time": 2343, "pitch": 73, "duration": 12, "velocity": 85}, {"time": 2355, "pitch": 75, "duration": 36, "velocity": 97}, {"time": 2391, "pitch": 72, "duration": 6, "velocity": 84}, {"time": 2397, "pitch": 72, "duration": 6, "velocity": 86}, {"time": 2403, "pitch": 73, "duration": 6, "velocity": 66}, {"time": 2409, "pitch": 75, "duration": 6, "velocity": 84}, {"time": 2415, "pitch": 75, "duration": 6, "velocity": 84}, {"time": 2421, "pitch": 75, "duration": 6, "velocity": 72}, {"time": 2427, "pitch": 75, "duration": 6, "velocity": 66}, {"time": 2433, "pitch": 75, "duration": 6, "velocity": 82}, {"time": 2439, "pitch": 72, "duration": 12, "velocity": 72}, {"time": 2451, "pitch": 73, "duration": 31, "velocity": 92}, {"time": 2505, "pitch": 77, "duration": 6, "velocity": 94}, {"time": 2511, "pitch": 77, "duration": 6, "velocity": 89}, {"time": 2517, "pitch": 77, "duration": 6, "velocity": 86}, {"time": 2523, "pitch": 77, "duration": 6, "velocity": 84}, {"time": 2529, "pitch": 77, "duration": 6, "velocity": 85}, {"time": 2535, "pitch": 73, "duration": 12, "velocity": 90}, {"time": 2547, "pitch": 75, "duration": 17, "velocity": 100}, {"time": 2583, "pitch": 72, "duration": 6, "velocity": 97}, {"time": 2589, "pitch": 72, "duration": 6, "velocity": 93}, {"time": 2595, "pitch": 73, "duration": 6, "velocity": 93}, {"time": 2601, "pitch": 75, "duration": 6, "velocity": 99}, {"time": 2607, "pitch": 75, "duration": 6, "velocity": 91}, {"time": 2613, "pitch": 75, "duration": 6, "velocity": 90}, {"time": 2619, "pitch": 75, "duration": 6, "velocity": 90}, {"time": 2625, "pitch": 75, "duration": 6, "velocity": 93}, {"time": 2631, "pitch": 72, "duration": 12, "velocity": 92}, {"time": 2643, "pitch": 73, "duration": 19, "velocity": 105}, {"time": 2685, "pitch": 73, "duration": 6, "velocity": 98}, {"time": 2691, "pitch": 75, "duration": 6, "velocity": 87}, {"time": 2697, "pitch": 77, "duration": 12, "velocity": 94}, {"time": 2709, "pitch": 73, "duration": 12, "velocity": 98}, {"time": 2721, "pitch": 70, "duration": 12, "velocity": 86}, {"time": 2733, "pitch": 77, "duration": 6, "velocity": 100}, {"time": 2739, "pitch": 77, "duration": 12, "velocity": 97}, {"time": 2751, "pitch": 75, "duration": 17, "velocity": 101}, {"time": 2781, "pitch": 72, "duration": 6, "velocity": 93}, {"time": 2787, "pitch": 73, "duration": 6, "velocity": 73}, {"time": 2793, "pitch": 75, "duration": 12, "velocity": 94}, {"time": 2805, "pitch": 75, "duration": 12, "velocity": 93}, {"time": 2817, "pitch": 75, "duration": 12, "velocity": 83}, {"time": 2829, "pitch": 72, "duration": 6, "velocity": 87}, {"time": 2835, "pitch": 75, "duration": 12, "velocity": 99}, {"time": 2847, "pitch": 73, "duration": 30, "velocity": 95}, {"time": 2877, "pitch": 73, "duration": 6, "velocity": 94}, {"time": 2883, "pitch": 75, "duration": 6, "velocity": 79}, {"time": 2889, "pitch": 77, "duration": 12, "velocity": 93}, {"time": 2901, "pitch": 73, "duration": 12, "velocity": 96}, {"time": 2913, "pitch": 70, "duration": 12, "velocity": 84}, {"time": 2925, "pitch": 77, "duration": 6, "velocity": 105}, {"time": 2931, "pitch": 77, "duration": 6, "velocity": 101}, {"time": 2937, "pitch": 75, "duration": 36, "velocity": 100}, {"time": 2973, "pitch": 72, "duration": 6, "velocity": 94}, {"time": 2979, "pitch": 73, "duration": 6, "velocity": 77}, {"time": 2985, "pitch": 75, "duration": 6, "velocity": 76}, {"time": 2991, "pitch": 75, "duration": 6, "velocity": 73}, {"time": 2997, "pitch": 75, "duration": 6, "velocity": 81}, {"time": 3003, "pitch": 75, "duration": 6, "velocity": 86}, {"time": 3009, "pitch": 75, "duration": 12, "velocity": 79}, {"time": 3021, "pitch": 80, "duration": 6, "velocity": 87}, {"time": 3027, "pitch": 78, "duration": 18, "velocity": 91}, {"time": 3045, "pitch": 77, "duration": 6, "velocity": 96}, {"time": 3051, "pitch": 77, "duration": 42, "velocity": 97}, {"time": 3111, "pitch": 73, "duration": 6, "velocity": 89}, {"time": 3117, "pitch": 73, "duration": 6, "velocity": 87}, {"time": 3123, "pitch": 75, "duration": 6, "velocity": 80}, {"time": 3129, "pitch": 77, "duration": 12, "velocity": 90}, {"time": 3141, "pitch": 77, "duration": 6, "velocity": 92}, {"time": 3147, "pitch": 75, "duration": 6, "velocity": 71}, {"time": 3153, "pitch": 77, "duration": 6, "velocity": 80}, {"time": 3159, "pitch": 82, "duration": 12, "velocity": 90}, {"time": 3171, "pitch": 75, "duration": 36, "velocity": 90}, {"time": 3207, "pitch": 73, "duration": 6, "velocity": 93}, {"time": 3213, "pitch": 72, "duration": 6, "velocity": 84}, {"time": 3219, "pitch": 73, "duration": 7, "velocity": 89}, {"time": 3225, "pitch": 75, "duration": 12, "velocity": 92}, {"time": 3237, "pitch": 75, "duration": 6, "velocity": 97}, {"time": 3243, "pitch": 73, "duration": 6, "velocity": 71}, {"time": 3249, "pitch": 75, "duration": 6, "velocity": 76}, {"time": 3255, "pitch": 80, "duration": 12, "velocity": 86}, {"time": 3267, "pitch": 73, "duration": 36, "velocity": 100}, {"time": 3303, "pitch": 73, "duration": 6, "velocity": 99}, {"time": 3309, "pitch": 73, "duration": 6, "velocity": 93}, {"time": 3315, "pitch": 75, "duration": 6, "velocity": 87}, {"time": 3321, "pitch": 77, "duration": 12, "velocity": 98}, {"time": 3333, "pitch": 77, "duration": 6, "velocity": 99}, {"time": 3339, "pitch": 75, "duration": 6, "velocity": 87}, {"time": 3345, "pitch": 77, "duration": 6, "velocity": 92}, {"time": 3351, "pitch": 82, "duration": 12, "velocity": 90}, {"time": 3363, "pitch": 75, "duration": 36, "velocity": 97}, {"time": 3399, "pitch": 73, "duration": 6, "velocity": 95}, {"time": 3405, "pitch": 72, "duration": 6, "velocity": 64}, {"time": 3411, "pitch": 73, "duration": 6, "velocity": 84}, {"time": 3417, "pitch": 75, "duration": 12, "velocity": 90}, {"time": 3429, "pitch": 75, "duration": 6, "velocity": 93}, {"time": 3435, "pitch": 73, "duration": 7, "velocity": 66}, {"time": 3441, "pitch": 75, "duration": 6, "velocity": 90}, {"time": 3447, "pitch": 80, "duration": 12, "velocity": 79}, {"time": 3459, "pitch": 73, "duration": 27, "velocity": 91}, {"time": 3879, "pitch": 73, "duration": 6, "velocity": 89}, {"time": 3885, "pitch": 73, "duration": 6, "velocity": 87}, {"time": 3891, "pitch": 75, "duration": 6, "velocity": 80}, {"time": 3897, "pitch": 77, "duration": 12, "velocity": 90}, {"time": 3909, "pitch": 77, "duration": 6, "velocity": 92}, {"time": 3915, "pitch": 75, "duration": 6, "velocity": 71}, {"time": 3921, "pitch": 77, "duration": 6, "velocity": 80}, {"time": 3927, "pitch": 82, "duration": 12, "velocity": 90}, {"time": 3939, "pitch": 75, "duration": 36, "velocity": 90}, {"time": 3975, "pitch": 73, "duration": 6, "velocity": 93}, {"time": 3981, "pitch": 72, "duration": 6, "velocity": 84}, {"time": 3987, "pitch": 73, "duration": 7, "velocity": 89}, {"time": 3993, "pitch": 75, "duration": 12, "velocity": 92}, {"time": 4005, "pitch": 75, "duration": 6, "velocity": 97}, {"time": 4011, "pitch": 73, "duration": 6, "velocity": 71}, {"time": 4017, "pitch": 75, "duration": 6, "velocity": 76}, {"time": 4023, "pitch": 80, "duration": 12, "velocity": 86}, {"time": 4035, "pitch": 73, "duration": 36, "velocity": 100}, {"time": 4071, "pitch": 73, "duration": 6, "velocity": 99}, {"time": 4077, "pitch": 73, "duration": 6, "velocity": 93}, {"time": 4083, "pitch": 75, "duration": 6, "velocity": 87}, {"time": 4089, "pitch": 77, "duration": 12, "velocity": 98}, {"time": 4101, "pitch": 77, "duration": 6, "velocity": 99}, {"time": 4107, "pitch": 75, "duration": 6, "velocity": 87}, {"time": 4113, "pitch": 77, "duration": 6, "velocity": 92}, {"time": 4119, "pitch": 82, "duration": 12, "velocity": 90}, {"time": 4131, "pitch": 75, "duration": 36, "velocity": 97}, {"time": 4167, "pitch": 73, "duration": 6, "velocity": 95}, {"time": 4173, "pitch": 72, "duration": 6, "velocity": 64}, {"time": 4179, "pitch": 73, "duration": 6, "velocity": 84}, {"time": 4185, "pitch": 75, "duration": 12, "velocity": 90}, {"time": 4197, "pitch": 75, "duration": 6, "velocity": 93}, {"time": 4203, "pitch": 73, "duration": 7, "velocity": 66}, {"time": 4209, "pitch": 75, "duration": 6, "velocity": 90}, {"time": 4215, "pitch": 80, "duration": 12, "velocity": 79}, {"time": 4227, "pitch": 73, "duration": 27, "velocity": 91}, {"time": 4263, "pitch": 73, "duration": 6, "velocity": 89}, {"time": 4269, "pitch": 73, "duration": 6, "velocity": 87}, {"time": 4275, "pitch": 75, "duration": 6, "velocity": 80}, {"time": 4281, "pitch": 77, "duration": 12, "velocity": 90}, {"time": 4293, "pitch": 77, "duration": 6, "velocity": 92}, {"time": 4299, "pitch": 75, "duration": 6, "velocity": 71}, {"time": 4305, "pitch": 77, "duration": 6, "velocity": 80}, {"time": 4311, "pitch": 82, "duration": 12, "velocity": 90}, {"time": 4323, "pitch": 75, "duration": 36, "velocity": 90}, {"time": 4359, "pitch": 73, "duration": 6, "velocity": 93}, {"time": 4365, "pitch": 72, "duration": 6, "velocity": 84}, {"time": 4371, "pitch": 73, "duration": 7, "velocity": 89}, {"time": 4377, "pitch": 75, "duration": 12, "velocity": 92}, {"time": 4389, "pitch": 75, "duration": 6, "velocity": 97}, {"time": 4395, "pitch": 73, "duration": 6, "velocity": 71}, {"time": 4401, "pitch": 75, "duration": 6, "velocity": 76}, {"time": 4407, "pitch": 80, "duration": 12, "velocity": 86}, {"time": 4419, "pitch": 73, "duration": 36, "velocity": 100}, {"time": 4455, "pitch": 73, "duration": 6, "velocity": 99}, {"time": 4461, "pitch": 73, "duration": 6, "velocity": 93}, {"time": 4467, "pitch": 75, "duration": 6, "velocity": 87}, {"time": 4473, "pitch": 77, "duration": 12, "velocity": 98}, {"time": 4485, "pitch": 77, "duration": 6, "velocity": 99}, {"time": 4491, "pitch": 75, "duration": 6, "velocity": 87}, {"time": 4497, "pitch": 77, "duration": 6, "velocity": 92}, {"time": 4503, "pitch": 82, "duration": 12, "velocity": 90}, {"time": 4515, "pitch": 75, "duration": 36, "velocity": 97}, {"time": 4551, "pitch": 73, "duration": 6, "velocity": 95}, {"time": 4557, "pitch": 72, "duration": 6, "velocity": 64}, {"time": 4563, "pitch": 73, "duration": 6, "velocity": 84}, {"time": 4569, "pitch": 75, "duration": 12, "velocity": 90}, {"time": 4581, "pitch": 75, "duration": 6, "velocity": 93}, {"time": 4587, "pitch": 73, "duration": 7, "velocity": 66}, {"time": 4593, "pitch": 75, "duration": 6, "velocity": 90}, {"time": 4599, "pitch": 80, "duration": 12, "velocity": 79}, {"time": 4611, "pitch": 73, "duration": 27, "velocity": 91}, {"time": 4647, "pitch": 73, "duration": 6, "velocity": 89}, {"time": 4653, "pitch": 73, "duration": 6, "velocity": 87}, {"time": 4659, "pitch": 75, "duration": 6, "velocity": 80}, {"time": 4665, "pitch": 77, "duration": 12, "velocity": 90}, {"time": 4677, "pitch": 77, "duration": 6, "velocity": 92}, {"time": 4683, "pitch": 75, "duration": 6, "velocity": 71}, {"time": 4689, "pitch": 77, "duration": 6, "velocity": 80}, {"time": 4695, "pitch": 82, "duration": 12, "velocity": 90}, {"time": 4707, "pitch": 75, "duration": 36, "velocity": 90}, {"time": 4743, "pitch": 73, "duration": 6, "velocity": 93}, {"time": 4749, "pitch": 72, "duration": 6, "velocity": 84}, {"time": 4755, "pitch": 73, "duration": 7, "velocity": 89}, {"time": 4761, "pitch": 75, "duration": 12, "velocity": 92}, {"time": 4773, "pitch": 75, "duration": 6, "velocity": 97}, {"time": 4779, "pitch": 73, "duration": 6, "velocity": 71}, {"time": 4785, "pitch": 75, "duration": 6, "velocity": 76}, {"time": 4791, "pitch": 80, "duration": 12, "velocity": 86}, {"time": 4803, "pitch": 73, "duration": 36, "velocity": 100}, {"time": 4839, "pitch": 73, "duration": 6, "velocity": 99}, {"time": 4845, "pitch": 73, "duration": 6, "velocity": 93}, {"time": 4851, "pitch": 75, "duration": 6, "velocity": 87}, {"time": 4857, "pitch": 77, "duration": 12, "velocity": 98}, {"time": 4869, "pitch": 77, "duration": 6, "velocity": 99}, {"time": 4875, "pitch": 75, "duration": 6, "velocity": 87}, {"time": 4881, "pitch": 77, "duration": 6, "velocity": 92}, {"time": 4887, "pitch": 82, "duration": 12, "velocity": 90}, {"time": 4899, "pitch": 75, "duration": 36, "velocity": 97}, {"time": 4935, "pitch": 73, "duration": 6, "velocity": 95}, {"time": 4941, "pitch": 72, "duration": 6, "velocity": 64}, {"time": 4947, "pitch": 73, "duration": 6, "velocity": 84}, {"time": 4953, "pitch": 75, "duration": 12, "velocity": 90}, {"time": 4965, "pitch": 75, "duration": 6, "velocity": 93}, {"time": 4971, "pitch": 73, "duration": 7, "velocity": 66}, {"time": 4977, "pitch": 75, "duration": 6, "velocity": 90}, {"time": 4983, "pitch": 80, "duration": 12, "velocity": 79}, {"time": 4995, "pitch": 73, "duration": 27, "velocity": 91}], "annotations": [{"time": 631, "annotation": {"number": 1, "value": 7}, "group": "control_change"}, {"time": 632, "annotation": {"number": 1, "value": 9}, "group": "control_change"}, {"time": 736, "annotation": {"number": 1, "value": 1}, "group": "control_change"}, {"time": 736, "annotation": {"number": 1, "value": 2}, "group": "control_change"}, {"time": 1026, "annotation": {"number": 1, "value": 0}, "group": "control_change"}, {"time": 1026, "annotation": {"number": 1, "value": 1}, "group": "control_change"}, {"time": 1030, "annotation": {"number": 1, "value": 0}, "group": "control_change"}, {"time": 1030, "annotation": {"number": 1, "value": 1}, "group": "control_change"}, {"time": 1031, "annotation": {"number": 1, "value": 0}, "group": "control_change"}, {"time": 1035, "annotation": {"number": 1, "value": 1}, "group": "control_change"}, {"time": 1098, "annotation": {"number": 1, "value": 1}, "group": "control_change"}, {"time": 1098, "annotation": {"number": 1, "value": 0}, "group": "control_change"}, {"time": 1101, "annotation": {"number": 1, "value": 1}, "group": "control_change"}, {"time": 2563, "annotation": {"number": 1, "value": 0}, "group": "control_change"}, {"time": 2563, "annotation": {"number": 1, "value": 1}, "group": "control_change"}, {"time": 2566, "annotation": {"number": 1, "value": 0}, "group": "control_change"}, {"time": 2567, "annotation": {"number": 1, "value": 1}, "group": "control_change"}, {"time": 2567, "annotation": {"number": 1, "value": 0}, "group": "control_change"}, {"time": 2572, "annotation": {"number": 1, "value": 1}, "group": "control_change"}, {"time": 2634, "annotation": {"number": 1, "value": 1}, "group": "control_change"}, {"time": 2635, "annotation": {"number": 1, "value": 0}, "group": "control_change"}, {"time": 2637, "annotation": {"number": 1, "value": 1}, "group": "control_change"}]}, {"program": 0, "is_drum": false, "name": "PIANO", "notes": [{"time": 9, "pitch": 42, "duration": 34, "velocity": 77}, {"time": 9, "pitch": 54, "duration": 35, "velocity": 69}, {"time": 9, "pitch": 58, "duration": 34, "velocity": 74}, {"time": 9, "pitch": 61, "duration": 34, "velocity": 84}, {"time": 9, "pitch": 65, "duration": 35, "velocity": 80}, {"time": 57, "pitch": 42, "duration": 38, "velocity": 78}, {"time": 57, "pitch": 54, "duration": 37, "velocity": 58}, {"time": 57, "pitch": 60, "duration": 37, "velocity": 80}, {"time": 57, "pitch": 63, "duration": 37, "velocity": 83}, {"time": 57, "pitch": 68, "duration": 35, "velocity": 79}, {"time": 105, "pitch": 41, "duration": 37, "velocity": 80}, {"time": 105, "pitch": 53, "duration": 36, "velocity": 71}, {"time": 105, "pitch": 56, "duration": 37, "velocity": 74}, {"time": 105, "pitch": 60, "duration": 37, "velocity": 84}, {"time": 105, "pitch": 63, "duration": 37, "velocity": 80}, {"time": 153, "pitch": 42, "duration": 42, "velocity": 76}, {"time": 153, "pitch": 54, "duration": 42, "velocity": 61}, {"time": 153, "pitch": 58, "duration": 42, "velocity": 67}, {"time": 153, "pitch": 61, "duration": 41, "velocity": 78}, {"time": 153, "pitch": 66, "duration": 41, "velocity": 78}, {"time": 201, "pitch": 42, "duration": 41, "velocity": 79}, {"time": 201, "pitch": 54, "duration": 39, "velocity": 69}, {"time": 201, "pitch": 58, "duration": 41, "velocity": 72}, {"time": 201, "pitch": 61, "duration": 40, "velocity": 83}, {"time": 201, "pitch": 66, "duration": 39, "velocity": 82}, {"time": 249, "pitch": 42, "duration": 41, "velocity": 78}, {"time": 249, "pitch": 54, "duration": 40, "velocity": 57}, {"time": 249, "pitch": 60, "duration": 40, "velocity": 80}, {"time": 249, "pitch": 63, "duration": 41, "velocity": 83}, {"time": 249, "pitch": 68, "duration": 39, "velocity": 78}, {"time": 297, "pitch": 41, "duration": 38, "velocity": 79}, {"time": 297, "pitch": 53, "duration": 39, "velocity": 57}, {"time": 297, "pitch": 56, "duration": 39, "velocity": 62}, {"time": 297, "pitch": 60, "duration": 37, "velocity": 81}, {"time": 297, "pitch": 63, "duration": 40, "velocity": 79}, {"time": 345, "pitch": 46, "duration": 40, "velocity": 80}, {"time": 345, "pitch": 58, "duration": 17, "velocity": 76}, {"time": 345, "pitch": 63, "duration": 17, "velocity": 82}, {"time": 345, "pitch": 65, "duration": 32, "velocity": 73}, {"time": 363, "pitch": 58, "duration": 10, "velocity": 51}, {"time": 363, "pitch": 61, "duration": 14, "velocity": 84}, {"time": 375, "pitch": 58, "duration": 9, "velocity": 41}, {"time": 381, "pitch": 60, "duration": 4, "velocity": 80}, {"time": 381, "pitch": 61, "duration": 4, "velocity": 80}, {"time": 381, "pitch": 65, "duration": 4, "velocity": 79}, {"time": 393, "pitch": 42, "duration": 34, "velocity": 77}, {"time": 393, "pitch": 54, "duration": 35, "velocity": 69}, {"time": 393, "pitch": 58, "duration": 34, "velocity": 74}, {"time": 393, "pitch": 61, "duration": 34, "velocity": 84}, {"time": 393, "pitch": 65, "duration": 35, "velocity": 80}, {"time": 441, "pitch": 42, "duration": 38, "velocity": 78}, {"time": 441, "pitch": 54, "duration": 37, "velocity": 58}, {"time": 441, "pitch": 60, "duration": 37, "velocity": 80}, {"time": 441, "pitch": 63, "duration": 37, "velocity": 83}, {"time": 441, "pitch": 68, "duration": 35, "velocity": 79}, {"time": 489, "pitch": 41, "duration": 37, "velocity": 80}, {"time": 489, "pitch": 53, "duration": 36, "velocity": 71}, {"time": 489, "pitch": 56, "duration": 37, "velocity": 74}, {"time": 489, "pitch": 60, "duration": 37, "velocity": 84}, {"time": 489, "pitch": 63, "duration": 37, "velocity": 80}, {"time": 537, "pitch": 42, "duration": 42, "velocity": 76}, {"time": 537, "pitch": 54, "duration": 42, "velocity": 61}, {"time": 537, "pitch": 58, "duration": 42, "velocity": 67}, {"time": 537, "pitch": 61, "duration": 41, "velocity": 78}, {"time": 537, "pitch": 66, "duration": 41, "velocity": 78}, {"time": 585, "pitch": 42, "duration": 41, "velocity": 79}, {"time": 585, "pitch": 54, "duration": 39, "velocity": 69}, {"time": 585, "pitch": 58, "duration": 41, "velocity": 72}, {"time": 585, "pitch": 61, "duration": 40, "velocity": 83}, {"time": 585, "pitch": 66, "duration": 39, "velocity": 82}, {"time": 633, "pitch": 42, "duration": 41, "velocity": 78}, {"time": 633, "pitch": 54, "duration": 40, "velocity": 57}, {"time": 633, "pitch": 60, "duration": 40, "velocity": 80}, {"time": 633, "pitch": 63, "duration": 41, "velocity": 83}, {"time": 633, "pitch": 68, "duration": 39, "velocity": 78}, {"time": 681, "pitch": 41, "duration": 38, "velocity": 79}, {"time": 681, "pitch": 53, "duration": 39, "velocity": 57}, {"time": 681, "pitch": 56, "duration": 39, "velocity": 62}, {"time": 681, "pitch": 60, "duration": 37, "velocity": 81}, {"time": 681, "pitch": 63, "duration": 40, "velocity": 79}, {"time": 729, "pitch": 46, "duration": 40, "velocity": 80}, {"time": 729, "pitch": 58, "duration": 17, "velocity": 76}, {"time": 729, "pitch": 63, "duration": 17, "velocity": 82}, {"time": 729, "pitch": 65, "duration": 32, "velocity": 73}, {"time": 747, "pitch": 58, "duration": 10, "velocity": 51}, {"time": 747, "pitch": 61, "duration": 14, "velocity": 84}, {"time": 759, "pitch": 58, "duration": 9, "velocity": 41}, {"time": 765, "pitch": 60, "duration": 4, "velocity": 80}, {"time": 765, "pitch": 61, "duration": 4, "velocity": 80}, {"time": 765, "pitch": 65, "duration": 4, "velocity": 79}, {"time": 777, "pitch": 42, "duration": 40, "velocity": 79}, {"time": 777, "pitch": 54, "duration": 40, "velocity": 69}, {"time": 777, "pitch": 58, "duration": 40, "velocity": 75}, {"time": 777, "pitch": 61, "duration": 40, "velocity": 90}, {"time": 777, "pitch": 66, "duration": 39, "velocity": 86}, {"time": 825, "pitch": 42, "duration": 42, "velocity": 78}, {"time": 825, "pitch": 54, "duration": 41, "velocity": 58}, {"time": 825, "pitch": 60, "duration": 38, "velocity": 73}, {"time": 825, "pitch": 63, "duration": 33, "velocity": 83}, {"time": 825, "pitch": 68, "duration": 38, "velocity": 75}, {"time": 861, "pitch": 63, "duration": 5, "velocity": 86}, {"time": 873, "pitch": 41, "duration": 9, "velocity": 80}, {"time": 873, "pitch": 53, "duration": 9, "velocity": 62}, {"time": 873, "pitch": 60, "duration": 9, "velocity": 76}, {"time": 873, "pitch": 63, "duration": 10, "velocity": 83}, {"time": 873, "pitch": 68, "duration": 9, "velocity": 78}, {"time": 921, "pitch": 42, "duration": 45, "velocity": 71}, {"time": 921, "pitch": 54, "duration": 39, "velocity": 58}, {"time": 921, "pitch": 58, "duration": 29, "velocity": 68}, {"time": 921, "pitch": 61, "duration": 30, "velocity": 79}, {"time": 921, "pitch": 66, "duration": 28, "velocity": 75}, {"time": 957, "pitch": 60, "duration": 7, "velocity": 72}, {"time": 957, "pitch": 63, "duration": 7, "velocity": 78}, {"time": 957, "pitch": 68, "duration": 8, "velocity": 73}, {"time": 963, "pitch": 54, "duration": 4, "velocity": 63}, {"time": 969, "pitch": 42, "duration": 38, "velocity": 75}, {"time": 969, "pitch": 54, "duration": 29, "velocity": 71}, {"time": 969, "pitch": 58, "duration": 40, "velocity": 67}, {"time": 969, "pitch": 61, "duration": 39, "velocity": 82}, {"time": 969, "pitch": 66, "duration": 39, "velocity": 73}, {"time": 1005, "pitch": 54, "duration": 3, "velocity": 75}, {"time": 1017, "pitch": 42, "duration": 41, "velocity": 78}, {"time": 1017, "pitch": 54, "duration": 20, "velocity": 69}, {"time": 1017, "pitch": 60, "duration": 31, "velocity": 72}, {"time": 1017, "pitch": 63, "duration": 30, "velocity": 79}, {"time": 1017, "pitch": 68, "duration": 30, "velocity": 73}, {"time": 1047, "pitch": 54, "duration": 10, "velocity": 56}, {"time": 1053, "pitch": 60, "duration": 7, "velocity": 78}, {"time": 1053, "pitch": 68, "duration": 7, "velocity": 83}, {"time": 1059, "pitch": 63, "duration": 23, "velocity": 80}, {"time": 1065, "pitch": 41, "duration": 7, "velocity": 75}, {"time": 1065, "pitch": 53, "duration": 7, "velocity": 70}, {"time": 1065, "pitch": 60, "duration": 16, "velocity": 78}, {"time": 1065, "pitch": 68, "duration": 16, "velocity": 76}, {"time": 1113, "pitch": 46, "duration": 40, "velocity": 70}, {"time": 1113, "pitch": 58, "duration": 27, "velocity": 53}, {"time": 1113, "pitch": 61, "duration": 12, "velocity": 73}, {"time": 1113, "pitch": 65, "duration": 12, "velocity": 79}, {"time": 1113, "pitch": 70, "duration": 12, "velocity": 78}, {"time": 1131, "pitch": 65, "duration": 3, "velocity": 33}, {"time": 1131, "pitch": 73, "duration": 4, "velocity": 76}, {"time": 1137, "pitch": 65, "duration": 4, "velocity": 69}, {"time": 1137, "pitch": 72, "duration": 4, "velocity": 86}, {"time": 1143, "pitch": 58, "duration": 5, "velocity": 6}, {"time": 1146, "pitch": 60, "duration": 5, "velocity": 39}, {"time": 1146, "pitch": 68, "duration": 6, "velocity": 78}, {"time": 1149, "pitch": 58, "duration": 3, "velocity": 61}, {"time": 1155, "pitch": 63, "duration": 5, "velocity": 75}, {"time": 1161, "pitch": 42, "duration": 44, "velocity": 75}, {"time": 1161, "pitch": 54, "duration": 14, "velocity": 53}, {"time": 1161, "pitch": 58, "duration": 4, "velocity": 63}, {"time": 1161, "pitch": 61, "duration": 6, "velocity": 74}, {"time": 1161, "pitch": 65, "duration": 6, "velocity": 75}, {"time": 1167, "pitch": 58, "duration": 3, "velocity": 45}, {"time": 1173, "pitch": 58, "duration": 6, "velocity": 63}, {"time": 1173, "pitch": 61, "duration": 6, "velocity": 77}, {"time": 1173, "pitch": 65, "duration": 5, "velocity": 72}, {"time": 1179, "pitch": 54, "duration": 7, "velocity": 39}, {"time": 1185, "pitch": 58, "duration": 7, "velocity": 61}, {"time": 1185, "pitch": 61, "duration": 6, "velocity": 78}, {"time": 1185, "pitch": 65, "duration": 6, "velocity": 73}, {"time": 1191, "pitch": 54, "duration": 7, "velocity": 23}, {"time": 1197, "pitch": 58, "duration": 5, "velocity": 74}, {"time": 1197, "pitch": 61, "duration": 5, "velocity": 82}, {"time": 1197, "pitch": 65, "duration": 6, "velocity": 79}, {"time": 1203, "pitch": 54, "duration": 3, "velocity": 72}, {"time": 1209, "pitch": 42, "duration": 39, "velocity": 75}, {"time": 1209, "pitch": 54, "duration": 3, "velocity": 69}, {"time": 1209, "pitch": 60, "duration": 7, "velocity": 76}, {"time": 1209, "pitch": 63, "duration": 7, "velocity": 80}, {"time": 1209, "pitch": 68, "duration": 7, "velocity": 76}, {"time": 1215, "pitch": 54, "duration": 6, "velocity": 38}, {"time": 1221, "pitch": 60, "duration": 6, "velocity": 57}, {"time": 1221, "pitch": 63, "duration": 6, "velocity": 76}, {"time": 1221, "pitch": 68, "duration": 7, "velocity": 60}, {"time": 1227, "pitch": 54, "duration": 8, "velocity": 56}, {"time": 1233, "pitch": 60, "duration": 7, "velocity": 76}, {"time": 1233, "pitch": 63, "duration": 5, "velocity": 80}, {"time": 1233, "pitch": 68, "duration": 4, "velocity": 43}, {"time": 1239, "pitch": 54, "duration": 6, "velocity": 53}, {"time": 1245, "pitch": 60, "duration": 8, "velocity": 84}, {"time": 1245, "pitch": 68, "duration": 8, "velocity": 84}, {"time": 1251, "pitch": 42, "duration": 3, "velocity": 50}, {"time": 1251, "pitch": 49, "duration": 1, "velocity": 53}, {"time": 1251, "pitch": 54, "duration": 1, "velocity": 57}, {"time": 1257, "pitch": 41, "duration": 42, "velocity": 82}, {"time": 1257, "pitch": 60, "duration": 6, "velocity": 76}, {"time": 1257, "pitch": 63, "duration": 5, "velocity": 81}, {"time": 1263, "pitch": 53, "duration": 7, "velocity": 55}, {"time": 1269, "pitch": 60, "duration": 3, "velocity": 72}, {"time": 1269, "pitch": 63, "duration": 6, "velocity": 84}, {"time": 1275, "pitch": 60, "duration": 10, "velocity": 82}, {"time": 1275, "pitch": 68, "duration": 10, "velocity": 84}, {"time": 1287, "pitch": 53, "duration": 6, "velocity": 67}, {"time": 1293, "pitch": 60, "duration": 4, "velocity": 67}, {"time": 1293, "pitch": 63, "duration": 9, "velocity": 59}, {"time": 1299, "pitch": 53, "duration": 4, "velocity": 63}, {"time": 1305, "pitch": 42, "duration": 43, "velocity": 79}, {"time": 1305, "pitch": 58, "duration": 8, "velocity": 74}, {"time": 1305, "pitch": 61, "duration": 8, "velocity": 79}, {"time": 1305, "pitch": 65, "duration": 7, "velocity": 80}, {"time": 1311, "pitch": 54, "duration": 11, "velocity": 48}, {"time": 1317, "pitch": 58, "duration": 5, "velocity": 73}, {"time": 1323, "pitch": 58, "duration": 11, "velocity": 59}, {"time": 1323, "pitch": 61, "duration": 11, "velocity": 84}, {"time": 1323, "pitch": 66, "duration": 7, "velocity": 84}, {"time": 1335, "pitch": 54, "duration": 8, "velocity": 57}, {"time": 1341, "pitch": 58, "duration": 7, "velocity": 76}, {"time": 1341, "pitch": 61, "duration": 7, "velocity": 72}, {"time": 1341, "pitch": 66, "duration": 4, "velocity": 84}, {"time": 1347, "pitch": 54, "duration": 3, "velocity": 71}, {"time": 1353, "pitch": 42, "duration": 42, "velocity": 82}, {"time": 1353, "pitch": 58, "duration": 7, "velocity": 73}, {"time": 1353, "pitch": 61, "duration": 4, "velocity": 73}, {"time": 1353, "pitch": 65, "duration": 6, "velocity": 82}, {"time": 1359, "pitch": 54, "duration": 7, "velocity": 58}, {"time": 1365, "pitch": 58, "duration": 3, "velocity": 73}, {"time": 1365, "pitch": 61, "duration": 3, "velocity": 82}, {"time": 1365, "pitch": 66, "duration": 3, "velocity": 83}, {"time": 1371, "pitch": 54, "duration": 13, "velocity": 59}, {"time": 1383, "pitch": 61, "duration": 8, "velocity": 52}, {"time": 1383, "pitch": 66, "duration": 7, "velocity": 63}, {"time": 1383, "pitch": 70, "duration": 9, "velocity": 75}, {"time": 1389, "pitch": 54, "duration": 7, "velocity": 71}, {"time": 1395, "pitch": 72, "duration": 4, "velocity": 83}, {"time": 1401, "pitch": 42, "duration": 44, "velocity": 80}, {"time": 1401, "pitch": 63, "duration": 6, "velocity": 76}, {"time": 1401, "pitch": 68, "duration": 6, "velocity": 78}, {"time": 1401, "pitch": 72, "duration": 1, "velocity": 71}, {"time": 1407, "pitch": 54, "duration": 2, "velocity": 62}, {"time": 1410, "pitch": 63, "duration": 1, "velocity": 60}, {"time": 1410, "pitch": 68, "duration": 2, "velocity": 79}, {"time": 1413, "pitch": 54, "duration": 12, "velocity": 50}, {"time": 1419, "pitch": 63, "duration": 8, "velocity": 73}, {"time": 1419, "pitch": 68, "duration": 7, "velocity": 75}, {"time": 1419, "pitch": 75, "duration": 6, "velocity": 84}, {"time": 1431, "pitch": 54, "duration": 8, "velocity": 54}, {"time": 1437, "pitch": 60, "duration": 7, "velocity": 81}, {"time": 1437, "pitch": 68, "duration": 7, "velocity": 84}, {"time": 1443, "pitch": 54, "duration": 2, "velocity": 62}, {"time": 1449, "pitch": 41, "duration": 15, "velocity": 80}, {"time": 1449, "pitch": 53, "duration": 13, "velocity": 73}, {"time": 1449, "pitch": 60, "duration": 7, "velocity": 78}, {"time": 1449, "pitch": 63, "duration": 7, "velocity": 81}, {"time": 1449, "pitch": 68, "duration": 6, "velocity": 82}, {"time": 1461, "pitch": 60, "duration": 13, "velocity": 76}, {"time": 1461, "pitch": 63, "duration": 13, "velocity": 82}, {"time": 1467, "pitch": 41, "duration": 3, "velocity": 62}, {"time": 1467, "pitch": 53, "duration": 2, "velocity": 55}, {"time": 1473, "pitch": 41, "duration": 13, "velocity": 82}, {"time": 1473, "pitch": 53, "duration": 8, "velocity": 73}, {"time": 1479, "pitch": 60, "duration": 9, "velocity": 83}, {"time": 1479, "pitch": 63, "duration": 8, "velocity": 86}, {"time": 1479, "pitch": 68, "duration": 9, "velocity": 90}, {"time": 1485, "pitch": 53, "duration": 2, "velocity": 62}, {"time": 1497, "pitch": 46, "duration": 18, "velocity": 81}, {"time": 1497, "pitch": 60, "duration": 7, "velocity": 75}, {"time": 1497, "pitch": 63, "duration": 8, "velocity": 84}, {"time": 1497, "pitch": 65, "duration": 8, "velocity": 81}, {"time": 1503, "pitch": 53, "duration": 6, "velocity": 77}, {"time": 1509, "pitch": 58, "duration": 4, "velocity": 77}, {"time": 1509, "pitch": 63, "duration": 5, "velocity": 83}, {"time": 1515, "pitch": 53, "duration": 7, "velocity": 79}, {"time": 1515, "pitch": 58, "duration": 13, "velocity": 72}, {"time": 1515, "pitch": 62, "duration": 13, "velocity": 94}, {"time": 1515, "pitch": 65, "duration": 13, "velocity": 82}, {"time": 1521, "pitch": 46, "duration": 19, "velocity": 82}, {"time": 1527, "pitch": 53, "duration": 7, "velocity": 77}, {"time": 1533, "pitch": 58, "duration": 9, "velocity": 71}, {"time": 1533, "pitch": 62, "duration": 4, "velocity": 75}, {"time": 1533, "pitch": 68, "duration": 6, "velocity": 79}, {"time": 1539, "pitch": 53, "duration": 2, "velocity": 83}, {"time": 1545, "pitch": 42, "duration": 43, "velocity": 84}, {"time": 1545, "pitch": 58, "duration": 7, "velocity": 77}, {"time": 1545, "pitch": 61, "duration": 7, "velocity": 84}, {"time": 1545, "pitch": 66, "duration": 7, "velocity": 86}, {"time": 1551, "pitch": 54, "duration": 7, "velocity": 57}, {"time": 1557, "pitch": 58, "duration": 7, "velocity": 74}, {"time": 1557, "pitch": 65, "duration": 9, "velocity": 75}, {"time": 1563, "pitch": 54, "duration": 7, "velocity": 69}, {"time": 1569, "pitch": 58, "duration": 8, "velocity": 75}, {"time": 1569, "pitch": 61, "duration": 8, "velocity": 81}, {"time": 1569, "pitch": 66, "duration": 7, "velocity": 81}, {"time": 1575, "pitch": 54, "duration": 7, "velocity": 69}, {"time": 1581, "pitch": 58, "duration": 6, "velocity": 77}, {"time": 1581, "pitch": 61, "duration": 5, "velocity": 73}, {"time": 1581, "pitch": 65, "duration": 5, "velocity": 86}, {"time": 1587, "pitch": 54, "duration": 3, "velocity": 76}, {"time": 1593, "pitch": 42, "duration": 43, "velocity": 82}, {"time": 1593, "pitch": 60, "duration": 7, "velocity": 83}, {"time": 1593, "pitch": 63, "duration": 7, "velocity": 83}, {"time": 1593, "pitch": 68, "duration": 7, "velocity": 78}, {"time": 1599, "pitch": 54, "duration": 7, "velocity": 72}, {"time": 1605, "pitch": 60, "duration": 1, "velocity": 84}, {"time": 1605, "pitch": 63, "duration": 1, "velocity": 86}, {"time": 1605, "pitch": 65, "duration": 1, "velocity": 72}, {"time": 1605, "pitch": 68, "duration": 2, "velocity": 84}, {"time": 1611, "pitch": 54, "duration": 13, "velocity": 69}, {"time": 1617, "pitch": 63, "duration": 1, "velocity": 49}, {"time": 1617, "pitch": 65, "duration": 1, "velocity": 45}, {"time": 1617, "pitch": 68, "duration": 2, "velocity": 67}, {"time": 1617, "pitch": 75, "duration": 2, "velocity": 84}, {"time": 1623, "pitch": 63, "duration": 4, "velocity": 84}, {"time": 1623, "pitch": 68, "duration": 4, "velocity": 81}, {"time": 1623, "pitch": 75, "duration": 4, "velocity": 86}, {"time": 1629, "pitch": 54, "duration": 5, "velocity": 60}, {"time": 1629, "pitch": 65, "duration": 6, "velocity": 81}, {"time": 1629, "pitch": 68, "duration": 3, "velocity": 69}, {"time": 1629, "pitch": 73, "duration": 5, "velocity": 93}, {"time": 1635, "pitch": 49, "duration": 4, "velocity": 77}, {"time": 1635, "pitch": 70, "duration": 5, "velocity": 75}, {"time": 1641, "pitch": 41, "duration": 2, "velocity": 84}, {"time": 1641, "pitch": 63, "duration": 8, "velocity": 80}, {"time": 1641, "pitch": 68, "duration": 9, "velocity": 78}, {"time": 1641, "pitch": 72, "duration": 9, "velocity": 84}, {"time": 1647, "pitch": 53, "duration": 33, "velocity": 82}, {"time": 1653, "pitch": 63, "duration": 9, "velocity": 80}, {"time": 1653, "pitch": 70, "duration": 5, "velocity": 80}, {"time": 1659, "pitch": 60, "duration": 13, "velocity": 80}, {"time": 1659, "pitch": 68, "duration": 5, "velocity": 81}, {"time": 1665, "pitch": 63, "duration": 2, "velocity": 35}, {"time": 1671, "pitch": 63, "duration": 7, "velocity": 82}, {"time": 1671, "pitch": 68, "duration": 4, "velocity": 67}, {"time": 1671, "pitch": 72, "duration": 8, "velocity": 94}, {"time": 1677, "pitch": 60, "duration": 3, "velocity": 84}, {"time": 1683, "pitch": 70, "duration": 5, "velocity": 73}, {"time": 1686, "pitch": 72, "duration": 3, "velocity": 79}, {"time": 1688, "pitch": 42, "duration": 42, "velocity": 80}, {"time": 1689, "pitch": 58, "duration": 5, "velocity": 78}, {"time": 1689, "pitch": 61, "duration": 5, "velocity": 84}, {"time": 1689, "pitch": 66, "duration": 6, "velocity": 90}, {"time": 1695, "pitch": 54, "duration": 7, "velocity": 57}, {"time": 1701, "pitch": 61, "duration": 3, "velocity": 77}, {"time": 1701, "pitch": 66, "duration": 3, "velocity": 76}, {"time": 1701, "pitch": 70, "duration": 4, "velocity": 82}, {"time": 1707, "pitch": 61, "duration": 4, "velocity": 78}, {"time": 1707, "pitch": 68, "duration": 7, "velocity": 79}, {"time": 1713, "pitch": 61, "duration": 3, "velocity": 40}, {"time": 1713, "pitch": 70, "duration": 5, "velocity": 78}, {"time": 1719, "pitch": 61, "duration": 8, "velocity": 80}, {"time": 1719, "pitch": 73, "duration": 5, "velocity": 83}, {"time": 1725, "pitch": 54, "duration": 7, "velocity": 68}, {"time": 1731, "pitch": 68, "duration": 5, "velocity": 79}, {"time": 1737, "pitch": 42, "duration": 4, "velocity": 80}, {"time": 1737, "pitch": 70, "duration": 6, "velocity": 78}, {"time": 1737, "pitch": 66, "duration": 6, "velocity": 78}, {"time": 1737, "pitch": 61, "duration": 5, "velocity": 78}, {"time": 1743, "pitch": 54, "duration": 2, "velocity": 54}, {"time": 1749, "pitch": 61, "duration": 6, "velocity": 79}, {"time": 1749, "pitch": 66, "duration": 6, "velocity": 81}, {"time": 1749, "pitch": 70, "duration": 5, "velocity": 77}, {"time": 1755, "pitch": 56, "duration": 13, "velocity": 74}, {"time": 1761, "pitch": 66, "duration": 7, "velocity": 83}, {"time": 1761, "pitch": 70, "duration": 7, "velocity": 79}, {"time": 1761, "pitch": 61, "duration": 7, "velocity": 80}, {"time": 1767, "pitch": 58, "duration": 6, "velocity": 77}, {"time": 1773, "pitch": 61, "duration": 3, "velocity": 80}, {"time": 1773, "pitch": 70, "duration": 5, "velocity": 83}, {"time": 1773, "pitch": 66, "duration": 4, "velocity": 81}, {"time": 1785, "pitch": 68, "duration": 6, "velocity": 84}, {"time": 1785, "pitch": 72, "duration": 5, "velocity": 90}, {"time": 1785, "pitch": 63, "duration": 6, "velocity": 82}, {"time": 1785, "pitch": 42, "duration": 5, "velocity": 78}, {"time": 1791, "pitch": 54, "duration": 5, "velocity": 52}, {"time": 1797, "pitch": 68, "duration": 12, "velocity": 84}, {"time": 1797, "pitch": 63, "duration": 12, "velocity": 83}, {"time": 1797, "pitch": 72, "duration": 9, "velocity": 84}, {"time": 1803, "pitch": 56, "duration": 5, "velocity": 78}, {"time": 1809, "pitch": 60, "duration": 7, "velocity": 82}, {"time": 1814, "pitch": 68, "duration": 10, "velocity": 86}, {"time": 1814, "pitch": 63, "duration": 8, "velocity": 84}, {"time": 1820, "pitch": 60, "duration": 2, "velocity": 82}, {"time": 1826, "pitch": 70, "duration": 5, "velocity": 78}, {"time": 1832, "pitch": 68, "duration": 17, "velocity": 82}, {"time": 1832, "pitch": 63, "duration": 17, "velocity": 79}, {"time": 1832, "pitch": 72, "duration": 17, "velocity": 86}, {"time": 1832, "pitch": 41, "duration": 5, "velocity": 81}, {"time": 1838, "pitch": 53, "duration": 2, "velocity": 78}, {"time": 1845, "pitch": 56, "duration": 31, "velocity": 75}, {"time": 1851, "pitch": 60, "duration": 5, "velocity": 80}, {"time": 1856, "pitch": 72, "duration": 4, "velocity": 84}, {"time": 1856, "pitch": 63, "duration": 7, "velocity": 79}, {"time": 1856, "pitch": 68, "duration": 6, "velocity": 81}, {"time": 1862, "pitch": 60, "duration": 5, "velocity": 79}, {"time": 1868, "pitch": 75, "duration": 6, "velocity": 86}, {"time": 1868, "pitch": 63, "duration": 5, "velocity": 71}, {"time": 1874, "pitch": 60, "duration": 1, "velocity": 78}, {"time": 1880, "pitch": 65, "duration": 4, "velocity": 78}, {"time": 1880, "pitch": 73, "duration": 4, "velocity": 90}, {"time": 1881, "pitch": 46, "duration": 10, "velocity": 84}, {"time": 1886, "pitch": 65, "duration": 3, "velocity": 75}, {"time": 1886, "pitch": 72, "duration": 5, "velocity": 82}, {"time": 1886, "pitch": 53, "duration": 6, "velocity": 77}, {"time": 1892, "pitch": 58, "duration": 8, "velocity": 62}, {"time": 1892, "pitch": 65, "duration": 3, "velocity": 78}, {"time": 1892, "pitch": 73, "duration": 4, "velocity": 80}, {"time": 1898, "pitch": 65, "duration": 3, "velocity": 78}, {"time": 1899, "pitch": 60, "duration": 15, "velocity": 79}, {"time": 1899, "pitch": 72, "duration": 4, "velocity": 86}, {"time": 1904, "pitch": 65, "duration": 7, "velocity": 78}, {"time": 1904, "pitch": 70, "duration": 7, "velocity": 82}, {"time": 1904, "pitch": 61, "duration": 9, "velocity": 79}, {"time": 1917, "pitch": 68, "duration": 5, "velocity": 86}, {"time": 1929, "pitch": 42, "duration": 34, "velocity": 77}, {"time": 1929, "pitch": 54, "duration": 35, "velocity": 69}, {"time": 1929, "pitch": 58, "duration": 34, "velocity": 74}, {"time": 1929, "pitch": 61, "duration": 34, "velocity": 84}, {"time": 1929, "pitch": 65, "duration": 35, "velocity": 80}, {"time": 1977, "pitch": 42, "duration": 38, "velocity": 78}, {"time": 1977, "pitch": 54, "duration": 37, "velocity": 58}, {"time": 1977, "pitch": 60, "duration": 37, "velocity": 80}, {"time": 1977, "pitch": 63, "duration": 37, "velocity": 83}, {"time": 1977, "pitch": 68, "duration": 35, "velocity": 79}, {"time": 2025, "pitch": 41, "duration": 37, "velocity": 80}, {"time": 2025, "pitch": 53, "duration": 36, "velocity": 71}, {"time": 2025, "pitch": 56, "duration": 37, "velocity": 74}, {"time": 2025, "pitch": 60, "duration": 37, "velocity": 84}, {"time": 2025, "pitch": 63, "duration": 37, "velocity": 80}, {"time": 2073, "pitch": 42, "duration": 42, "velocity": 76}, {"time": 2073, "pitch": 54, "duration": 42, "velocity": 61}, {"time": 2073, "pitch": 58, "duration": 42, "velocity": 67}, {"time": 2073, "pitch": 61, "duration": 41, "velocity": 78}, {"time": 2073, "pitch": 66, "duration": 41, "velocity": 78}, {"time": 2121, "pitch": 42, "duration": 41, "velocity": 79}, {"time": 2121, "pitch": 54, "duration": 39, "velocity": 69}, {"time": 2121, "pitch": 58, "duration": 41, "velocity": 72}, {"time": 2121, "pitch": 61, "duration": 40, "velocity": 83}, {"time": 2121, "pitch": 66, "duration": 39, "velocity": 82}, {"time": 2169, "pitch": 42, "duration": 41, "velocity": 78}, {"time": 2169, "pitch": 54, "duration": 40, "velocity": 57}, {"time": 2169, "pitch": 60, "duration": 40, "velocity": 80}, {"time": 2169, "pitch": 63, "duration": 41, "velocity": 83}, {"time": 2169, "pitch": 68, "duration": 39, "velocity": 78}, {"time": 2217, "pitch": 41, "duration": 38, "velocity": 79}, {"time": 2217, "pitch": 53, "duration": 39, "velocity": 57}, {"time": 2217, "pitch": 56, "duration": 39, "velocity": 62}, {"time": 2217, "pitch": 60, "duration": 37, "velocity": 81}, {"time": 2217, "pitch": 63, "duration": 40, "velocity": 79}, {"time": 2265, "pitch": 46, "duration": 40, "velocity": 80}, {"time": 2265, "pitch": 58, "duration": 17, "velocity": 76}, {"time": 2265, "pitch": 63, "duration": 17, "velocity": 82}, {"time": 2265, "pitch": 65, "duration": 32, "velocity": 73}, {"time": 2283, "pitch": 58, "duration": 10, "velocity": 51}, {"time": 2283, "pitch": 61, "duration": 14, "velocity": 84}, {"time": 2295, "pitch": 58, "duration": 9, "velocity": 41}, {"time": 2301, "pitch": 60, "duration": 4, "velocity": 80}, {"time": 2301, "pitch": 61, "duration": 4, "velocity": 80}, {"time": 2301, "pitch": 65, "duration": 4, "velocity": 79}, {"time": 2313, "pitch": 42, "duration": 40, "velocity": 79}, {"time": 2313, "pitch": 54, "duration": 40, "velocity": 69}, {"time": 2313, "pitch": 58, "duration": 40, "velocity": 75}, {"time": 2313, "pitch": 61, "duration": 40, "velocity": 90}, {"time": 2313, "pitch": 66, "duration": 39, "velocity": 86}, {"time": 2361, "pitch": 42, "duration": 42, "velocity": 78}, {"time": 2361, "pitch": 54, "duration": 41, "velocity": 58}, {"time": 2361, "pitch": 60, "duration": 38, "velocity": 73}, {"time": 2361, "pitch": 63, "duration": 33, "velocity": 83}, {"time": 2361, "pitch": 68, "duration": 38, "velocity": 75}, {"time": 2397, "pitch": 63, "duration": 5, "velocity": 86}, {"time": 2409, "pitch": 41, "duration": 9, "velocity": 80}, {"time": 2409, "pitch": 53, "duration": 9, "velocity": 62}, {"time": 2409, "pitch": 60, "duration": 9, "velocity": 76}, {"time": 2409, "pitch": 63, "duration": 10, "velocity": 83}, {"time": 2409, "pitch": 68, "duration": 9, "velocity": 78}, {"time": 2457, "pitch": 42, "duration": 45, "velocity": 71}, {"time": 2457, "pitch": 54, "duration": 39, "velocity": 58}, {"time": 2457, "pitch": 58, "duration": 29, "velocity": 68}, {"time": 2457, "pitch": 61, "duration": 30, "velocity": 79}, {"time": 2457, "pitch": 66, "duration": 28, "velocity": 75}, {"time": 2493, "pitch": 60, "duration": 7, "velocity": 72}, {"time": 2493, "pitch": 63, "duration": 7, "velocity": 78}, {"time": 2493, "pitch": 68, "duration": 8, "velocity": 73}, {"time": 2499, "pitch": 54, "duration": 4, "velocity": 63}, {"time": 2505, "pitch": 42, "duration": 38, "velocity": 75}, {"time": 2505, "pitch": 54, "duration": 29, "velocity": 71}, {"time": 2505, "pitch": 58, "duration": 40, "velocity": 67}, {"time": 2505, "pitch": 61, "duration": 39, "velocity": 82}, {"time": 2505, "pitch": 66, "duration": 39, "velocity": 73}, {"time": 2541, "pitch": 54, "duration": 3, "velocity": 75}, {"time": 2553, "pitch": 42, "duration": 41, "velocity": 78}, {"time": 2553, "pitch": 54, "duration": 20, "velocity": 69}, {"time": 2553, "pitch": 60, "duration": 31, "velocity": 72}, {"time": 2553, "pitch": 63, "duration": 30, "velocity": 79}, {"time": 2553, "pitch": 68, "duration": 30, "velocity": 73}, {"time": 2583, "pitch": 54, "duration": 10, "velocity": 56}, {"time": 2589, "pitch": 60, "duration": 7, "velocity": 78}, {"time": 2589, "pitch": 68, "duration": 7, "velocity": 83}, {"time": 2595, "pitch": 63, "duration": 23, "velocity": 80}, {"time": 2601, "pitch": 41, "duration": 7, "velocity": 75}, {"time": 2601, "pitch": 53, "duration": 7, "velocity": 70}, {"time": 2601, "pitch": 60, "duration": 16, "velocity": 78}, {"time": 2601, "pitch": 68, "duration": 16, "velocity": 76}, {"time": 2649, "pitch": 46, "duration": 40, "velocity": 70}, {"time": 2649, "pitch": 58, "duration": 27, "velocity": 53}, {"time": 2649, "pitch": 61, "duration": 12, "velocity": 73}, {"time": 2649, "pitch": 65, "duration": 12, "velocity": 79}, {"time": 2649, "pitch": 70, "duration": 12, "velocity": 78}, {"time": 2667, "pitch": 65, "duration": 3, "velocity": 33}, {"time": 2667, "pitch": 73, "duration": 4, "velocity": 76}, {"time": 2673, "pitch": 65, "duration": 4, "velocity": 69}, {"time": 2673, "pitch": 72, "duration": 4, "velocity": 86}, {"time": 2679, "pitch": 58, "duration": 5, "velocity": 6}, {"time": 2682, "pitch": 60, "duration": 5, "velocity": 39}, {"time": 2682, "pitch": 68, "duration": 6, "velocity": 78}, {"time": 2685, "pitch": 58, "duration": 3, "velocity": 61}, {"time": 2691, "pitch": 63, "duration": 5, "velocity": 75}, {"time": 2697, "pitch": 42, "duration": 44, "velocity": 75}, {"time": 2697, "pitch": 54, "duration": 14, "velocity": 53}, {"time": 2697, "pitch": 58, "duration": 4, "velocity": 63}, {"time": 2697, "pitch": 61, "duration": 6, "velocity": 74}, {"time": 2697, "pitch": 65, "duration": 6, "velocity": 75}, {"time": 2703, "pitch": 58, "duration": 3, "velocity": 45}, {"time": 2709, "pitch": 58, "duration": 6, "velocity": 63}, {"time": 2709, "pitch": 61, "duration": 6, "velocity": 77}, {"time": 2709, "pitch": 65, "duration": 5, "velocity": 72}, {"time": 2715, "pitch": 54, "duration": 7, "velocity": 39}, {"time": 2721, "pitch": 58, "duration": 7, "velocity": 61}, {"time": 2721, "pitch": 61, "duration": 6, "velocity": 78}, {"time": 2721, "pitch": 65, "duration": 6, "velocity": 73}, {"time": 2727, "pitch": 54, "duration": 7, "velocity": 23}, {"time": 2733, "pitch": 58, "duration": 5, "velocity": 74}, {"time": 2733, "pitch": 61, "duration": 5, "velocity": 82}, {"time": 2733, "pitch": 65, "duration": 6, "velocity": 79}, {"time": 2739, "pitch": 54, "duration": 3, "velocity": 72}, {"time": 2745, "pitch": 42, "duration": 39, "velocity": 75}, {"time": 2745, "pitch": 54, "duration": 3, "velocity": 69}, {"time": 2745, "pitch": 60, "duration": 7, "velocity": 76}, {"time": 2745, "pitch": 63, "duration": 7, "velocity": 80}, {"time": 2745, "pitch": 68, "duration": 7, "velocity": 76}, {"time": 2751, "pitch": 54, "duration": 6, "velocity": 38}, {"time": 2757, "pitch": 60, "duration": 6, "velocity": 57}, {"time": 2757, "pitch": 63, "duration": 6, "velocity": 76}, {"time": 2757, "pitch": 68, "duration": 7, "velocity": 60}, {"time": 2763, "pitch": 54, "duration": 8, "velocity": 56}, {"time": 2769, "pitch": 60, "duration": 7, "velocity": 76}, {"time": 2769, "pitch": 63, "duration": 5, "velocity": 80}, {"time": 2769, "pitch": 68, "duration": 4, "velocity": 43}, {"time": 2775, "pitch": 54, "duration": 6, "velocity": 53}, {"time": 2781, "pitch": 60, "duration": 8, "velocity": 84}, {"time": 2781, "pitch": 68, "duration": 8, "velocity": 84}, {"time": 2787, "pitch": 42, "duration": 3, "velocity": 50}, {"time": 2787, "pitch": 49, "duration": 1, "velocity": 53}, {"time": 2787, "pitch": 54, "duration": 1, "velocity": 57}, {"time": 2793, "pitch": 41, "duration": 42, "velocity": 82}, {"time": 2793, "pitch": 60, "duration": 6, "velocity": 76}, {"time": 2793, "pitch": 63, "duration": 5, "velocity": 81}, {"time": 2799, "pitch": 53, "duration": 7, "velocity": 55}, {"time": 2805, "pitch": 60, "duration": 3, "velocity": 72}, {"time": 2805, "pitch": 63, "duration": 6, "velocity": 84}, {"time": 2811, "pitch": 60, "duration": 10, "velocity": 82}, {"time": 2811, "pitch": 68, "duration": 10, "velocity": 84}, {"time": 2823, "pitch": 53, "duration": 6, "velocity": 67}, {"time": 2829, "pitch": 60, "duration": 4, "velocity": 67}, {"time": 2829, "pitch": 63, "duration": 9, "velocity": 59}, {"time": 2835, "pitch": 53, "duration": 4, "velocity": 63}, {"time": 2841, "pitch": 42, "duration": 43, "velocity": 79}, {"time": 2841, "pitch": 58, "duration": 8, "velocity": 74}, {"time": 2841, "pitch": 61, "duration": 8, "velocity": 79}, {"time": 2841, "pitch": 65, "duration": 7, "velocity": 80}, {"time": 2847, "pitch": 54, "duration": 11, "velocity": 48}, {"time": 2853, "pitch": 58, "duration": 5, "velocity": 73}, {"time": 2859, "pitch": 58, "duration": 11, "velocity": 59}, {"time": 2859, "pitch": 61, "duration": 11, "velocity": 84}, {"time": 2859, "pitch": 66, "duration": 7, "velocity": 84}, {"time": 2871, "pitch": 54, "duration": 8, "velocity": 57}, {"time": 2877, "pitch": 58, "duration": 7, "velocity": 76}, {"time": 2877, "pitch": 61, "duration": 7, "velocity": 72}, {"time": 2877, "pitch": 66, "duration": 4, "velocity": 84}, {"time": 2883, "pitch": 54, "duration": 3, "velocity": 71}, {"time": 2889, "pitch": 42, "duration": 42, "velocity": 82}, {"time": 2889, "pitch": 58, "duration": 7, "velocity": 73}, {"time": 2889, "pitch": 61, "duration": 4, "velocity": 73}, {"time": 2889, "pitch": 65, "duration": 6, "velocity": 82}, {"time": 2895, "pitch": 54, "duration": 7, "velocity": 58}, {"time": 2901, "pitch": 58, "duration": 3, "velocity": 73}, {"time": 2901, "pitch": 61, "duration": 3, "velocity": 82}, {"time": 2901, "pitch": 66, "duration": 3, "velocity": 83}, {"time": 2907, "pitch": 54, "duration": 13, "velocity": 59}, {"time": 2919, "pitch": 61, "duration": 8, "velocity": 52}, {"time": 2919, "pitch": 66, "duration": 7, "velocity": 63}, {"time": 2919, "pitch": 70, "duration": 9, "velocity": 75}, {"time": 2925, "pitch": 54, "duration": 7, "velocity": 71}, {"time": 2931, "pitch": 72, "duration": 4, "velocity": 83}, {"time": 2937, "pitch": 42, "duration": 44, "velocity": 80}, {"time": 2937, "pitch": 63, "duration": 6, "velocity": 76}, {"time": 2937, "pitch": 68, "duration": 6, "velocity": 78}, {"time": 2937, "pitch": 72, "duration": 1, "velocity": 71}, {"time": 2943, "pitch": 54, "duration": 2, "velocity": 62}, {"time": 2946, "pitch": 63, "duration": 1, "velocity": 60}, {"time": 2946, "pitch": 68, "duration": 2, "velocity": 79}, {"time": 2949, "pitch": 54, "duration": 12, "velocity": 50}, {"time": 2955, "pitch": 63, "duration": 8, "velocity": 73}, {"time": 2955, "pitch": 68, "duration": 7, "velocity": 75}, {"time": 2955, "pitch": 75, "duration": 6, "velocity": 84}, {"time": 2967, "pitch": 54, "duration": 8, "velocity": 54}, {"time": 2973, "pitch": 60, "duration": 7, "velocity": 81}, {"time": 2973, "pitch": 68, "duration": 7, "velocity": 84}, {"time": 2979, "pitch": 54, "duration": 2, "velocity": 62}, {"time": 2985, "pitch": 41, "duration": 15, "velocity": 80}, {"time": 2985, "pitch": 53, "duration": 13, "velocity": 73}, {"time": 2985, "pitch": 60, "duration": 7, "velocity": 78}, {"time": 2985, "pitch": 63, "duration": 7, "velocity": 81}, {"time": 2985, "pitch": 68, "duration": 6, "velocity": 82}, {"time": 2997, "pitch": 60, "duration": 13, "velocity": 76}, {"time": 2997, "pitch": 63, "duration": 13, "velocity": 82}, {"time": 3003, "pitch": 41, "duration": 3, "velocity": 62}, {"time": 3003, "pitch": 53, "duration": 2, "velocity": 55}, {"time": 3009, "pitch": 41, "duration": 13, "velocity": 82}, {"time": 3009, "pitch": 53, "duration": 8, "velocity": 73}, {"time": 3015, "pitch": 60, "duration": 9, "velocity": 83}, {"time": 3015, "pitch": 63, "duration": 8, "velocity": 86}, {"time": 3015, "pitch": 68, "duration": 9, "velocity": 90}, {"time": 3021, "pitch": 53, "duration": 2, "velocity": 62}, {"time": 3033, "pitch": 46, "duration": 18, "velocity": 81}, {"time": 3033, "pitch": 60, "duration": 7, "velocity": 75}, {"time": 3033, "pitch": 63, "duration": 8, "velocity": 84}, {"time": 3033, "pitch": 65, "duration": 8, "velocity": 81}, {"time": 3039, "pitch": 53, "duration": 6, "velocity": 77}, {"time": 3045, "pitch": 58, "duration": 4, "velocity": 77}, {"time": 3045, "pitch": 63, "duration": 5, "velocity": 83}, {"time": 3051, "pitch": 53, "duration": 7, "velocity": 79}, {"time": 3051, "pitch": 58, "duration": 13, "velocity": 72}, {"time": 3051, "pitch": 62, "duration": 13, "velocity": 94}, {"time": 3051, "pitch": 65, "duration": 13, "velocity": 82}, {"time": 3057, "pitch": 46, "duration": 19, "velocity": 82}, {"time": 3063, "pitch": 53, "duration": 7, "velocity": 77}, {"time": 3069, "pitch": 58, "duration": 9, "velocity": 71}, {"time": 3069, "pitch": 62, "duration": 4, "velocity": 75}, {"time": 3069, "pitch": 68, "duration": 6, "velocity": 79}, {"time": 3075, "pitch": 53, "duration": 2, "velocity": 83}, {"time": 3081, "pitch": 42, "duration": 43, "velocity": 84}, {"time": 3081, "pitch": 58, "duration": 7, "velocity": 77}, {"time": 3081, "pitch": 61, "duration": 7, "velocity": 84}, {"time": 3081, "pitch": 66, "duration": 7, "velocity": 86}, {"time": 3087, "pitch": 54, "duration": 7, "velocity": 57}, {"time": 3093, "pitch": 58, "duration": 7, "velocity": 74}, {"time": 3093, "pitch": 65, "duration": 9, "velocity": 75}, {"time": 3099, "pitch": 54, "duration": 7, "velocity": 69}, {"time": 3105, "pitch": 58, "duration": 8, "velocity": 75}, {"time": 3105, "pitch": 61, "duration": 8, "velocity": 81}, {"time": 3105, "pitch": 66, "duration": 7, "velocity": 81}, {"time": 3111, "pitch": 54, "duration": 7, "velocity": 69}, {"time": 3117, "pitch": 58, "duration": 6, "velocity": 77}, {"time": 3117, "pitch": 61, "duration": 5, "velocity": 73}, {"time": 3117, "pitch": 65, "duration": 5, "velocity": 86}, {"time": 3123, "pitch": 54, "duration": 3, "velocity": 76}, {"time": 3129, "pitch": 42, "duration": 43, "velocity": 82}, {"time": 3129, "pitch": 60, "duration": 7, "velocity": 83}, {"time": 3129, "pitch": 63, "duration": 7, "velocity": 83}, {"time": 3129, "pitch": 68, "duration": 7, "velocity": 78}, {"time": 3135, "pitch": 54, "duration": 7, "velocity": 72}, {"time": 3141, "pitch": 60, "duration": 1, "velocity": 84}, {"time": 3141, "pitch": 63, "duration": 1, "velocity": 86}, {"time": 3141, "pitch": 65, "duration": 1, "velocity": 72}, {"time": 3141, "pitch": 68, "duration": 2, "velocity": 84}, {"time": 3147, "pitch": 54, "duration": 13, "velocity": 69}, {"time": 3153, "pitch": 63, "duration": 1, "velocity": 49}, {"time": 3153, "pitch": 65, "duration": 1, "velocity": 45}, {"time": 3153, "pitch": 68, "duration": 2, "velocity": 67}, {"time": 3153, "pitch": 75, "duration": 2, "velocity": 84}, {"time": 3159, "pitch": 63, "duration": 4, "velocity": 84}, {"time": 3159, "pitch": 68, "duration": 4, "velocity": 81}, {"time": 3159, "pitch": 75, "duration": 4, "velocity": 86}, {"time": 3165, "pitch": 54, "duration": 5, "velocity": 60}, {"time": 3165, "pitch": 65, "duration": 6, "velocity": 81}, {"time": 3165, "pitch": 68, "duration": 3, "velocity": 69}, {"time": 3165, "pitch": 73, "duration": 5, "velocity": 93}, {"time": 3171, "pitch": 49, "duration": 4, "velocity": 77}, {"time": 3171, "pitch": 70, "duration": 5, "velocity": 75}, {"time": 3177, "pitch": 41, "duration": 2, "velocity": 84}, {"time": 3177, "pitch": 63, "duration": 8, "velocity": 80}, {"time": 3177, "pitch": 68, "duration": 9, "velocity": 78}, {"time": 3177, "pitch": 72, "duration": 9, "velocity": 84}, {"time": 3183, "pitch": 53, "duration": 33, "velocity": 82}, {"time": 3189, "pitch": 63, "duration": 9, "velocity": 80}, {"time": 3189, "pitch": 70, "duration": 5, "velocity": 80}, {"time": 3195, "pitch": 60, "duration": 13, "velocity": 80}, {"time": 3195, "pitch": 68, "duration": 5, "velocity": 81}, {"time": 3201, "pitch": 63, "duration": 2, "velocity": 35}, {"time": 3207, "pitch": 63, "duration": 7, "velocity": 82}, {"time": 3207, "pitch": 68, "duration": 4, "velocity": 67}, {"time": 3207, "pitch": 72, "duration": 8, "velocity": 94}, {"time": 3213, "pitch": 60, "duration": 3, "velocity": 84}, {"time": 3219, "pitch": 70, "duration": 5, "velocity": 73}, {"time": 3222, "pitch": 72, "duration": 3, "velocity": 79}, {"time": 3224, "pitch": 66, "duration": 6, "velocity": 90}, {"time": 3224, "pitch": 58, "duration": 5, "velocity": 78}, {"time": 3224, "pitch": 61, "duration": 6, "velocity": 84}, {"time": 3224, "pitch": 42, "duration": 42, "velocity": 80}, {"time": 3230, "pitch": 54, "duration": 8, "velocity": 57}, {"time": 3236, "pitch": 70, "duration": 5, "velocity": 82}, {"time": 3237, "pitch": 66, "duration": 3, "velocity": 76}, {"time": 3237, "pitch": 61, "duration": 3, "velocity": 77}, {"time": 3242, "pitch": 68, "duration": 7, "velocity": 79}, {"time": 3242, "pitch": 61, "duration": 5, "velocity": 78}, {"time": 3248, "pitch": 61, "duration": 3, "velocity": 40}, {"time": 3248, "pitch": 70, "duration": 5, "velocity": 78}, {"time": 3254, "pitch": 73, "duration": 5, "velocity": 83}, {"time": 3254, "pitch": 61, "duration": 8, "velocity": 80}, {"time": 3260, "pitch": 54, "duration": 7, "velocity": 68}, {"time": 3266, "pitch": 68, "duration": 5, "velocity": 79}, {"time": 3273, "pitch": 70, "duration": 5, "velocity": 78}, {"time": 3273, "pitch": 66, "duration": 5, "velocity": 78}, {"time": 3273, "pitch": 42, "duration": 4, "velocity": 80}, {"time": 3273, "pitch": 61, "duration": 4, "velocity": 78}, {"time": 3279, "pitch": 54, "duration": 2, "velocity": 54}, {"time": 3285, "pitch": 61, "duration": 6, "velocity": 79}, {"time": 3285, "pitch": 66, "duration": 6, "velocity": 81}, {"time": 3285, "pitch": 70, "duration": 5, "velocity": 77}, {"time": 3291, "pitch": 56, "duration": 13, "velocity": 74}, {"time": 3297, "pitch": 66, "duration": 7, "velocity": 83}, {"time": 3297, "pitch": 70, "duration": 7, "velocity": 79}, {"time": 3297, "pitch": 61, "duration": 7, "velocity": 80}, {"time": 3303, "pitch": 58, "duration": 6, "velocity": 77}, {"time": 3309, "pitch": 61, "duration": 3, "velocity": 80}, {"time": 3309, "pitch": 70, "duration": 5, "velocity": 83}, {"time": 3309, "pitch": 66, "duration": 4, "velocity": 81}, {"time": 3321, "pitch": 68, "duration": 6, "velocity": 84}, {"time": 3321, "pitch": 72, "duration": 5, "velocity": 90}, {"time": 3321, "pitch": 63, "duration": 6, "velocity": 82}, {"time": 3321, "pitch": 42, "duration": 5, "velocity": 78}, {"time": 3327, "pitch": 54, "duration": 5, "velocity": 52}, {"time": 3333, "pitch": 68, "duration": 12, "velocity": 84}, {"time": 3333, "pitch": 63, "duration": 12, "velocity": 83}, {"time": 3333, "pitch": 72, "duration": 9, "velocity": 84}, {"time": 3339, "pitch": 56, "duration": 5, "velocity": 78}, {"time": 3345, "pitch": 60, "duration": 7, "velocity": 82}, {"time": 3350, "pitch": 68, "duration": 10, "velocity": 86}, {"time": 3350, "pitch": 63, "duration": 8, "velocity": 84}, {"time": 3356, "pitch": 60, "duration": 2, "velocity": 82}, {"time": 3362, "pitch": 70, "duration": 5, "velocity": 78}, {"time": 3368, "pitch": 68, "duration": 17, "velocity": 82}, {"time": 3368, "pitch": 63, "duration": 17, "velocity": 79}, {"time": 3368, "pitch": 72, "duration": 17, "velocity": 86}, {"time": 3368, "pitch": 41, "duration": 5, "velocity": 81}, {"time": 3374, "pitch": 53, "duration": 2, "velocity": 78}, {"time": 3381, "pitch": 56, "duration": 31, "velocity": 75}, {"time": 3387, "pitch": 60, "duration": 5, "velocity": 80}, {"time": 3392, "pitch": 72, "duration": 4, "velocity": 84}, {"time": 3392, "pitch": 63, "duration": 7, "velocity": 79}, {"time": 3392, "pitch": 68, "duration": 6, "velocity": 81}, {"time": 3398, "pitch": 60, "duration": 5, "velocity": 79}, {"time": 3404, "pitch": 75, "duration": 6, "velocity": 86}, {"time": 3404, "pitch": 63, "duration": 5, "velocity": 71}, {"time": 3410, "pitch": 60, "duration": 1, "velocity": 78}, {"time": 3416, "pitch": 65, "duration": 4, "velocity": 78}, {"time": 3416, "pitch": 73, "duration": 4, "velocity": 90}, {"time": 3417, "pitch": 46, "duration": 10, "velocity": 84}, {"time": 3422, "pitch": 65, "duration": 3, "velocity": 75}, {"time": 3422, "pitch": 72, "duration": 5, "velocity": 82}, {"time": 3422, "pitch": 53, "duration": 6, "velocity": 77}, {"time": 3428, "pitch": 58, "duration": 8, "velocity": 62}, {"time": 3428, "pitch": 65, "duration": 3, "velocity": 78}, {"time": 3428, "pitch": 73, "duration": 4, "velocity": 80}, {"time": 3434, "pitch": 65, "duration": 3, "velocity": 78}, {"time": 3435, "pitch": 60, "duration": 15, "velocity": 79}, {"time": 3435, "pitch": 72, "duration": 4, "velocity": 86}, {"time": 3440, "pitch": 65, "duration": 7, "velocity": 78}, {"time": 3440, "pitch": 70, "duration": 7, "velocity": 82}, {"time": 3440, "pitch": 61, "duration": 9, "velocity": 79}, {"time": 3453, "pitch": 68, "duration": 5, "velocity": 86}, {"time": 3465, "pitch": 46, "duration": 38, "velocity": 81}, {"time": 3465, "pitch": 61, "duration": 13, "velocity": 79}, {"time": 3465, "pitch": 65, "duration": 11, "velocity": 81}, {"time": 3465, "pitch": 70, "duration": 13, "velocity": 84}, {"time": 3471, "pitch": 53, "duration": 31, "velocity": 80}, {"time": 3477, "pitch": 58, "duration": 25, "velocity": 79}, {"time": 3483, "pitch": 60, "duration": 6, "velocity": 83}, {"time": 3489, "pitch": 61, "duration": 2, "velocity": 84}, {"time": 3495, "pitch": 65, "duration": 4, "velocity": 82}, {"time": 3501, "pitch": 70, "duration": 5, "velocity": 80}, {"time": 3507, "pitch": 72, "duration": 5, "velocity": 83}, {"time": 3513, "pitch": 42, "duration": 34, "velocity": 77}, {"time": 3513, "pitch": 54, "duration": 35, "velocity": 69}, {"time": 3513, "pitch": 58, "duration": 34, "velocity": 74}, {"time": 3513, "pitch": 61, "duration": 34, "velocity": 84}, {"time": 3513, "pitch": 65, "duration": 35, "velocity": 80}, {"time": 3561, "pitch": 42, "duration": 38, "velocity": 78}, {"time": 3561, "pitch": 54, "duration": 37, "velocity": 58}, {"time": 3561, "pitch": 60, "duration": 37, "velocity": 80}, {"time": 3561, "pitch": 63, "duration": 37, "velocity": 83}, {"time": 3561, "pitch": 68, "duration": 35, "velocity": 79}, {"time": 3609, "pitch": 41, "duration": 37, "velocity": 80}, {"time": 3609, "pitch": 53, "duration": 36, "velocity": 71}, {"time": 3609, "pitch": 56, "duration": 37, "velocity": 74}, {"time": 3609, "pitch": 60, "duration": 37, "velocity": 84}, {"time": 3609, "pitch": 63, "duration": 37, "velocity": 80}, {"time": 3657, "pitch": 42, "duration": 42, "velocity": 76}, {"time": 3657, "pitch": 54, "duration": 42, "velocity": 61}, {"time": 3657, "pitch": 58, "duration": 42, "velocity": 67}, {"time": 3657, "pitch": 61, "duration": 41, "velocity": 78}, {"time": 3657, "pitch": 66, "duration": 41, "velocity": 78}, {"time": 3705, "pitch": 42, "duration": 41, "velocity": 79}, {"time": 3705, "pitch": 54, "duration": 39, "velocity": 69}, {"time": 3705, "pitch": 58, "duration": 41, "velocity": 72}, {"time": 3705, "pitch": 61, "duration": 40, "velocity": 83}, {"time": 3705, "pitch": 66, "duration": 39, "velocity": 82}, {"time": 3753, "pitch": 42, "duration": 41, "velocity": 78}, {"time": 3753, "pitch": 54, "duration": 40, "velocity": 57}, {"time": 3753, "pitch": 60, "duration": 40, "velocity": 80}, {"time": 3753, "pitch": 63, "duration": 41, "velocity": 83}, {"time": 3753, "pitch": 68, "duration": 39, "velocity": 78}, {"time": 3801, "pitch": 41, "duration": 38, "velocity": 79}, {"time": 3801, "pitch": 53, "duration": 39, "velocity": 57}, {"time": 3801, "pitch": 56, "duration": 39, "velocity": 62}, {"time": 3801, "pitch": 60, "duration": 37, "velocity": 81}, {"time": 3801, "pitch": 63, "duration": 40, "velocity": 79}, {"time": 3849, "pitch": 46, "duration": 40, "velocity": 80}, {"time": 3849, "pitch": 58, "duration": 17, "velocity": 76}, {"time": 3849, "pitch": 63, "duration": 17, "velocity": 82}, {"time": 3849, "pitch": 65, "duration": 32, "velocity": 73}, {"time": 3867, "pitch": 58, "duration": 10, "velocity": 51}, {"time": 3867, "pitch": 61, "duration": 14, "velocity": 84}, {"time": 3879, "pitch": 58, "duration": 9, "velocity": 41}, {"time": 3885, "pitch": 60, "duration": 4, "velocity": 80}, {"time": 3885, "pitch": 61, "duration": 4, "velocity": 80}, {"time": 3885, "pitch": 65, "duration": 4, "velocity": 79}, {"time": 3897, "pitch": 42, "duration": 36, "velocity": 36}, {"time": 3897, "pitch": 54, "duration": 36, "velocity": 62}, {"time": 3897, "pitch": 61, "duration": 36, "velocity": 71}, {"time": 3897, "pitch": 66, "duration": 36, "velocity": 78}, {"time": 3897, "pitch": 70, "duration": 35, "velocity": 71}, {"time": 3942, "pitch": 42, "duration": 32, "velocity": 68}, {"time": 3942, "pitch": 54, "duration": 33, "velocity": 55}, {"time": 3942, "pitch": 60, "duration": 9, "velocity": 62}, {"time": 3942, "pitch": 63, "duration": 10, "velocity": 78}, {"time": 3942, "pitch": 68, "duration": 10, "velocity": 72}, {"time": 3966, "pitch": 72, "duration": 8, "velocity": 63}, {"time": 3966, "pitch": 75, "duration": 8, "velocity": 79}, {"time": 3966, "pitch": 80, "duration": 7, "velocity": 71}, {"time": 3993, "pitch": 53, "duration": 31, "velocity": 62}, {"time": 3993, "pitch": 60, "duration": 31, "velocity": 71}, {"time": 3993, "pitch": 63, "duration": 31, "velocity": 71}, {"time": 3993, "pitch": 68, "duration": 28, "velocity": 75}, {"time": 3993, "pitch": 72, "duration": 26, "velocity": 79}, {"time": 4041, "pitch": 42, "duration": 42, "velocity": 76}, {"time": 4041, "pitch": 58, "duration": 26, "velocity": 55}, {"time": 4041, "pitch": 61, "duration": 25, "velocity": 79}, {"time": 4041, "pitch": 66, "duration": 25, "velocity": 78}, {"time": 4077, "pitch": 60, "duration": 7, "velocity": 63}, {"time": 4077, "pitch": 63, "duration": 8, "velocity": 75}, {"time": 4077, "pitch": 68, "duration": 6, "velocity": 62}, {"time": 4089, "pitch": 42, "duration": 41, "velocity": 78}, {"time": 4089, "pitch": 54, "duration": 40, "velocity": 60}, {"time": 4089, "pitch": 58, "duration": 8, "velocity": 69}, {"time": 4089, "pitch": 61, "duration": 8, "velocity": 79}, {"time": 4089, "pitch": 66, "duration": 9, "velocity": 81}, {"time": 4125, "pitch": 66, "duration": 3, "velocity": 77}, {"time": 4125, "pitch": 73, "duration": 3, "velocity": 83}, {"time": 4137, "pitch": 42, "duration": 33, "velocity": 80}, {"time": 4137, "pitch": 54, "duration": 30, "velocity": 61}, {"time": 4137, "pitch": 63, "duration": 14, "velocity": 76}, {"time": 4137, "pitch": 68, "duration": 12, "velocity": 75}, {"time": 4137, "pitch": 72, "duration": 13, "velocity": 83}, {"time": 4161, "pitch": 75, "duration": 17, "velocity": 67}, {"time": 4185, "pitch": 41, "duration": 33, "velocity": 70}, {"time": 4185, "pitch": 53, "duration": 33, "velocity": 53}, {"time": 4185, "pitch": 63, "duration": 27, "velocity": 71}, {"time": 4185, "pitch": 68, "duration": 27, "velocity": 70}, {"time": 4185, "pitch": 72, "duration": 26, "velocity": 78}, {"time": 4233, "pitch": 46, "duration": 39, "velocity": 82}, {"time": 4233, "pitch": 61, "duration": 7, "velocity": 63}, {"time": 4233, "pitch": 65, "duration": 7, "velocity": 73}, {"time": 4233, "pitch": 70, "duration": 7, "velocity": 79}, {"time": 4239, "pitch": 58, "duration": 13, "velocity": 68}, {"time": 4245, "pitch": 60, "duration": 7, "velocity": 82}, {"time": 4251, "pitch": 61, "duration": 2, "velocity": 83}, {"time": 4257, "pitch": 58, "duration": 5, "velocity": 68}, {"time": 4257, "pitch": 65, "duration": 3, "velocity": 83}, {"time": 4263, "pitch": 70, "duration": 3, "velocity": 82}, {"time": 4269, "pitch": 58, "duration": 4, "velocity": 71}, {"time": 4269, "pitch": 72, "duration": 5, "velocity": 83}, {"time": 4275, "pitch": 73, "duration": 2, "velocity": 90}, {"time": 4281, "pitch": 42, "duration": 34, "velocity": 77}, {"time": 4281, "pitch": 54, "duration": 35, "velocity": 69}, {"time": 4281, "pitch": 58, "duration": 34, "velocity": 74}, {"time": 4281, "pitch": 61, "duration": 34, "velocity": 84}, {"time": 4281, "pitch": 65, "duration": 35, "velocity": 80}, {"time": 4329, "pitch": 42, "duration": 38, "velocity": 78}, {"time": 4329, "pitch": 54, "duration": 37, "velocity": 58}, {"time": 4329, "pitch": 60, "duration": 37, "velocity": 80}, {"time": 4329, "pitch": 63, "duration": 37, "velocity": 83}, {"time": 4329, "pitch": 68, "duration": 35, "velocity": 79}, {"time": 4377, "pitch": 41, "duration": 37, "velocity": 80}, {"time": 4377, "pitch": 53, "duration": 36, "velocity": 71}, {"time": 4377, "pitch": 56, "duration": 37, "velocity": 74}, {"time": 4377, "pitch": 60, "duration": 37, "velocity": 84}, {"time": 4377, "pitch": 63, "duration": 37, "velocity": 80}, {"time": 4425, "pitch": 42, "duration": 42, "velocity": 76}, {"time": 4425, "pitch": 54, "duration": 42, "velocity": 61}, {"time": 4425, "pitch": 58, "duration": 42, "velocity": 67}, {"time": 4425, "pitch": 61, "duration": 41, "velocity": 78}, {"time": 4425, "pitch": 66, "duration": 41, "velocity": 78}, {"time": 4473, "pitch": 42, "duration": 41, "velocity": 79}, {"time": 4473, "pitch": 54, "duration": 39, "velocity": 69}, {"time": 4473, "pitch": 58, "duration": 41, "velocity": 72}, {"time": 4473, "pitch": 61, "duration": 40, "velocity": 83}, {"time": 4473, "pitch": 66, "duration": 39, "velocity": 82}, {"time": 4521, "pitch": 42, "duration": 41, "velocity": 78}, {"time": 4521, "pitch": 54, "duration": 40, "velocity": 57}, {"time": 4521, "pitch": 60, "duration": 40, "velocity": 80}, {"time": 4521, "pitch": 63, "duration": 41, "velocity": 83}, {"time": 4521, "pitch": 68, "duration": 39, "velocity": 78}, {"time": 4569, "pitch": 41, "duration": 38, "velocity": 79}, {"time": 4569, "pitch": 53, "duration": 39, "velocity": 57}, {"time": 4569, "pitch": 56, "duration": 39, "velocity": 62}, {"time": 4569, "pitch": 60, "duration": 37, "velocity": 81}, {"time": 4569, "pitch": 63, "duration": 40, "velocity": 79}, {"time": 4617, "pitch": 46, "duration": 40, "velocity": 80}, {"time": 4617, "pitch": 58, "duration": 17, "velocity": 76}, {"time": 4617, "pitch": 63, "duration": 17, "velocity": 82}, {"time": 4617, "pitch": 65, "duration": 32, "velocity": 73}, {"time": 4635, "pitch": 58, "duration": 10, "velocity": 51}, {"time": 4635, "pitch": 61, "duration": 14, "velocity": 84}, {"time": 4647, "pitch": 58, "duration": 9, "velocity": 41}, {"time": 4653, "pitch": 60, "duration": 4, "velocity": 80}, {"time": 4653, "pitch": 61, "duration": 4, "velocity": 80}, {"time": 4653, "pitch": 65, "duration": 4, "velocity": 79}, {"time": 4665, "pitch": 42, "duration": 34, "velocity": 77}, {"time": 4665, "pitch": 54, "duration": 35, "velocity": 69}, {"time": 4665, "pitch": 58, "duration": 34, "velocity": 74}, {"time": 4665, "pitch": 61, "duration": 34, "velocity": 84}, {"time": 4665, "pitch": 65, "duration": 35, "velocity": 80}, {"time": 4713, "pitch": 42, "duration": 38, "velocity": 78}, {"time": 4713, "pitch": 54, "duration": 37, "velocity": 58}, {"time": 4713, "pitch": 60, "duration": 37, "velocity": 80}, {"time": 4713, "pitch": 63, "duration": 37, "velocity": 83}, {"time": 4713, "pitch": 68, "duration": 35, "velocity": 79}, {"time": 4761, "pitch": 41, "duration": 37, "velocity": 80}, {"time": 4761, "pitch": 53, "duration": 36, "velocity": 71}, {"time": 4761, "pitch": 56, "duration": 37, "velocity": 74}, {"time": 4761, "pitch": 60, "duration": 37, "velocity": 84}, {"time": 4761, "pitch": 63, "duration": 37, "velocity": 80}, {"time": 4809, "pitch": 42, "duration": 42, "velocity": 76}, {"time": 4809, "pitch": 54, "duration": 42, "velocity": 61}, {"time": 4809, "pitch": 58, "duration": 42, "velocity": 67}, {"time": 4809, "pitch": 61, "duration": 41, "velocity": 78}, {"time": 4809, "pitch": 66, "duration": 41, "velocity": 78}, {"time": 4857, "pitch": 42, "duration": 41, "velocity": 79}, {"time": 4857, "pitch": 54, "duration": 39, "velocity": 69}, {"time": 4857, "pitch": 58, "duration": 41, "velocity": 72}, {"time": 4857, "pitch": 61, "duration": 40, "velocity": 83}, {"time": 4857, "pitch": 66, "duration": 39, "velocity": 82}, {"time": 4905, "pitch": 42, "duration": 41, "velocity": 78}, {"time": 4905, "pitch": 54, "duration": 40, "velocity": 57}, {"time": 4905, "pitch": 60, "duration": 40, "velocity": 80}, {"time": 4905, "pitch": 63, "duration": 41, "velocity": 83}, {"time": 4905, "pitch": 68, "duration": 39, "velocity": 78}, {"time": 4953, "pitch": 41, "duration": 38, "velocity": 79}, {"time": 4953, "pitch": 53, "duration": 39, "velocity": 57}, {"time": 4953, "pitch": 56, "duration": 39, "velocity": 62}, {"time": 4953, "pitch": 60, "duration": 37, "velocity": 81}, {"time": 4953, "pitch": 63, "duration": 40, "velocity": 79}, {"time": 5001, "pitch": 46, "duration": 40, "velocity": 80}, {"time": 5001, "pitch": 58, "duration": 17, "velocity": 76}, {"time": 5001, "pitch": 63, "duration": 17, "velocity": 82}, {"time": 5001, "pitch": 65, "duration": 32, "velocity": 73}, {"time": 5019, "pitch": 58, "duration": 10, "velocity": 51}, {"time": 5019, "pitch": 61, "duration": 14, "velocity": 84}, {"time": 5031, "pitch": 58, "duration": 9, "velocity": 41}, {"time": 5037, "pitch": 60, "duration": 4, "velocity": 80}, {"time": 5037, "pitch": 61, "duration": 4, "velocity": 80}, {"time": 5037, "pitch": 65, "duration": 4, "velocity": 79}, {"time": 5049, "pitch": 42, "duration": 34, "velocity": 77}, {"time": 5049, "pitch": 54, "duration": 35, "velocity": 69}, {"time": 5049, "pitch": 58, "duration": 34, "velocity": 74}, {"time": 5049, "pitch": 61, "duration": 34, "velocity": 84}, {"time": 5049, "pitch": 65, "duration": 35, "velocity": 80}, {"time": 5097, "pitch": 42, "duration": 38, "velocity": 78}, {"time": 5097, "pitch": 54, "duration": 37, "velocity": 58}, {"time": 5097, "pitch": 60, "duration": 37, "velocity": 80}, {"time": 5097, "pitch": 63, "duration": 37, "velocity": 83}, {"time": 5097, "pitch": 68, "duration": 35, "velocity": 79}, {"time": 5145, "pitch": 41, "duration": 37, "velocity": 80}, {"time": 5145, "pitch": 53, "duration": 36, "velocity": 71}, {"time": 5145, "pitch": 56, "duration": 37, "velocity": 74}, {"time": 5145, "pitch": 60, "duration": 37, "velocity": 84}, {"time": 5145, "pitch": 63, "duration": 37, "velocity": 80}, {"time": 5193, "pitch": 42, "duration": 42, "velocity": 76}, {"time": 5193, "pitch": 54, "duration": 42, "velocity": 61}, {"time": 5193, "pitch": 58, "duration": 42, "velocity": 67}, {"time": 5193, "pitch": 61, "duration": 41, "velocity": 78}, {"time": 5193, "pitch": 66, "duration": 41, "velocity": 78}, {"time": 5241, "pitch": 42, "duration": 41, "velocity": 79}, {"time": 5241, "pitch": 54, "duration": 39, "velocity": 69}, {"time": 5241, "pitch": 58, "duration": 41, "velocity": 72}, {"time": 5241, "pitch": 61, "duration": 40, "velocity": 83}, {"time": 5241, "pitch": 66, "duration": 39, "velocity": 82}, {"time": 5289, "pitch": 42, "duration": 41, "velocity": 78}, {"time": 5289, "pitch": 54, "duration": 40, "velocity": 57}, {"time": 5289, "pitch": 60, "duration": 40, "velocity": 80}, {"time": 5289, "pitch": 63, "duration": 41, "velocity": 83}, {"time": 5289, "pitch": 68, "duration": 39, "velocity": 78}, {"time": 5337, "pitch": 41, "duration": 38, "velocity": 79}, {"time": 5337, "pitch": 53, "duration": 39, "velocity": 57}, {"time": 5337, "pitch": 56, "duration": 39, "velocity": 62}, {"time": 5337, "pitch": 60, "duration": 37, "velocity": 81}, {"time": 5337, "pitch": 63, "duration": 40, "velocity": 79}, {"time": 5385, "pitch": 46, "duration": 40, "velocity": 80}, {"time": 5385, "pitch": 58, "duration": 17, "velocity": 76}, {"time": 5385, "pitch": 63, "duration": 17, "velocity": 82}, {"time": 5385, "pitch": 65, "duration": 32, "velocity": 73}, {"time": 5403, "pitch": 58, "duration": 10, "velocity": 51}, {"time": 5403, "pitch": 61, "duration": 14, "velocity": 84}, {"time": 5415, "pitch": 58, "duration": 9, "velocity": 41}, {"time": 5421, "pitch": 60, "duration": 4, "velocity": 80}, {"time": 5421, "pitch": 61, "duration": 4, "velocity": 80}, {"time": 5421, "pitch": 65, "duration": 4, "velocity": 79}, {"time": 5433, "pitch": 42, "duration": 34, "velocity": 77}, {"time": 5433, "pitch": 54, "duration": 35, "velocity": 69}, {"time": 5433, "pitch": 58, "duration": 34, "velocity": 74}, {"time": 5433, "pitch": 61, "duration": 34, "velocity": 84}, {"time": 5433, "pitch": 65, "duration": 35, "velocity": 80}, {"time": 5481, "pitch": 42, "duration": 38, "velocity": 78}, {"time": 5481, "pitch": 54, "duration": 37, "velocity": 58}, {"time": 5481, "pitch": 60, "duration": 37, "velocity": 80}, {"time": 5481, "pitch": 63, "duration": 37, "velocity": 83}, {"time": 5481, "pitch": 68, "duration": 35, "velocity": 79}, {"time": 5529, "pitch": 41, "duration": 37, "velocity": 80}, {"time": 5529, "pitch": 53, "duration": 36, "velocity": 71}, {"time": 5529, "pitch": 56, "duration": 37, "velocity": 74}, {"time": 5529, "pitch": 60, "duration": 37, "velocity": 84}, {"time": 5529, "pitch": 63, "duration": 37, "velocity": 80}, {"time": 5577, "pitch": 42, "duration": 42, "velocity": 76}, {"time": 5577, "pitch": 54, "duration": 42, "velocity": 61}, {"time": 5577, "pitch": 58, "duration": 42, "velocity": 67}, {"time": 5577, "pitch": 61, "duration": 41, "velocity": 78}, {"time": 5577, "pitch": 66, "duration": 41, "velocity": 78}], "annotations": [{"time": 23, "annotation": {"number": 64, "value": 127}, "group": "control_change"}, {"time": 57, "annotation": {"number": 64, "value": 0}, "group": "control_change"}, {"time": 64, "annotation": {"number": 64, "value": 127}, "group": "control_change"}, {"time": 105, "annotation": {"number": 64, "value": 0}, "group": "control_change"}, {"time": 115, "annotation": {"number": 64, "value": 127}, "group": "control_change"}, {"time": 149, "annotation": {"number": 64, "value": 0}, "group": "control_change"}, {"time": 162, "annotation": {"number": 64, "value": 127}, "group": "control_change"}, {"time": 199, "annotation": {"number": 64, "value": 0}, "group": "control_change"}, {"time": 203, "annotation": {"number": 64, "value": 127}, "group": "control_change"}, {"time": 248, "annotation": {"number": 64, "value": 0}, "group": "control_change"}, {"time": 254, "annotation": {"number": 64, "value": 127}, "group": "control_change"}, {"time": 297, "annotation": {"number": 64, "value": 0}, "group": "control_change"}, {"time": 304, "annotation": {"number": 64, "value": 127}, "group": "control_change"}, {"time": 345, "annotation": {"number": 64, "value": 0}, "group": "control_change"}, {"time": 350, "annotation": {"number": 64, "value": 127}, "group": "control_change"}, {"time": 392, "annotation": {"number": 64, "value": 0}, "group": "control_change"}, {"time": 407, "annotation": {"number": 64, "value": 127}, "group": "control_change"}, {"time": 441, "annotation": {"number": 64, "value": 0}, "group": "control_change"}, {"time": 448, "annotation": {"number": 64, "value": 127}, "group": "control_change"}, {"time": 489, "annotation": {"number": 64, "value": 0}, "group": "control_change"}, {"time": 499, "annotation": {"number": 64, "value": 127}, "group": "control_change"}, {"time": 533, "annotation": {"number": 64, "value": 0}, "group": "control_change"}, {"time": 546, "annotation": {"number": 64, "value": 127}, "group": "control_change"}, {"time": 583, "annotation": {"number": 64, "value": 0}, "group": "control_change"}, {"time": 587, "annotation": {"number": 64, "value": 127}, "group": "control_change"}, {"time": 632, "annotation": {"number": 64, "value": 0}, "group": "control_change"}, {"time": 638, "annotation": {"number": 64, "value": 127}, "group": "control_change"}, {"time": 681, "annotation": {"number": 64, "value": 0}, "group": "control_change"}, {"time": 688, "annotation": {"number": 64, "value": 127}, "group": "control_change"}, {"time": 729, "annotation": {"number": 64, "value": 0}, "group": "control_change"}, {"time": 734, "annotation": {"number": 64, "value": 127}, "group": "control_change"}, {"time": 776, "annotation": {"number": 64, "value": 0}, "group": "control_change"}, {"time": 777, "annotation": {"number": 64, "value": 127}, "group": "control_change"}, {"time": 825, "annotation": {"number": 64, "value": 0}, "group": "control_change"}, {"time": 828, "annotation": {"number": 64, "value": 127}, "group": "control_change"}, {"time": 873, "annotation": {"number": 64, "value": 0}, "group": "control_change"}, {"time": 876, "annotation": {"number": 64, "value": 127}, "group": "control_change"}, {"time": 919, "annotation": {"number": 64, "value": 0}, "group": "control_change"}, {"time": 922, "annotation": {"number": 64, "value": 127}, "group": "control_change"}, {"time": 969, "annotation": {"number": 64, "value": 0}, "group": "control_change"}, {"time": 972, "annotation": {"number": 64, "value": 127}, "group": "control_change"}, {"time": 1016, "annotation": {"number": 64, "value": 0}, "group": "control_change"}, {"time": 1020, "annotation": {"number": 64, "value": 127}, "group": "control_change"}, {"time": 1065, "annotation": {"number": 64, "value": 0}, "group": "control_change"}, {"time": 1068, "annotation": {"number": 64, "value": 127}, "group": "control_change"}, {"time": 1112, "annotation": {"number": 64, "value": 0}, "group": "control_change"}, {"time": 1115, "annotation": {"number": 64, "value": 127}, "group": "control_change"}, {"time": 1160, "annotation": {"number": 64, "value": 0}, "group": "control_change"}, {"time": 1162, "annotation": {"number": 64, "value": 127}, "group": "control_change"}, {"time": 1208, "annotation": {"number": 64, "value": 0}, "group": "control_change"}, {"time": 1210, "annotation": {"number": 64, "value": 127}, "group": "control_change"}, {"time": 1255, "annotation": {"number": 64, "value": 0}, "group": "control_change"}, {"time": 1257, "annotation": {"number": 64, "value": 127}, "group": "control_change"}, {"time": 1304, "annotation": {"number": 64, "value": 0}, "group": "control_change"}, {"time": 1307, "annotation": {"number": 64, "value": 127}, "group": "control_change"}, {"time": 1353, "annotation": {"number": 64, "value": 0}, "group": "control_change"}, {"time": 1356, "annotation": {"number": 64, "value": 127}, "group": "control_change"}, {"time": 1398, "annotation": {"number": 64, "value": 0}, "group": "control_change"}, {"time": 1401, "annotation": {"number": 64, "value": 127}, "group": "control_change"}, {"time": 1447, "annotation": {"number": 64, "value": 0}, "group": "control_change"}, {"time": 1449, "annotation": {"number": 64, "value": 127}, "group": "control_change"}, {"time": 1494, "annotation": {"number": 64, "value": 0}, "group": "control_change"}, {"time": 1496, "annotation": {"number": 64, "value": 127}, "group": "control_change"}, {"time": 1517, "annotation": {"number": 64, "value": 0}, "group": "control_change"}, {"time": 1519, "annotation": {"number": 64, "value": 127}, "group": "control_change"}, {"time": 1541, "annotation": {"number": 64, "value": 0}, "group": "control_change"}, {"time": 1545, "annotation": {"number": 64, "value": 127}, "group": "control_change"}, {"time": 1591, "annotation": {"number": 64, "value": 0}, "group": "control_change"}, {"time": 1593, "annotation": {"number": 64, "value": 127}, "group": "control_change"}, {"time": 1638, "annotation": {"number": 64, "value": 0}, "group": "control_change"}, {"time": 1641, "annotation": {"number": 64, "value": 127}, "group": "control_change"}, {"time": 1687, "annotation": {"number": 64, "value": 0}, "group": "control_change"}, {"time": 1689, "annotation": {"number": 64, "value": 127}, "group": "control_change"}, {"time": 1734, "annotation": {"number": 64, "value": 0}, "group": "control_change"}, {"time": 1737, "annotation": {"number": 64, "value": 127}, "group": "control_change"}, {"time": 1785, "annotation": {"number": 64, "value": 0}, "group": "control_change"}, {"time": 1788, "annotation": {"number": 64, "value": 127}, "group": "control_change"}, {"time": 1832, "annotation": {"number": 64, "value": 0}, "group": "control_change"}, {"time": 1834, "annotation": {"number": 64, "value": 127}, "group": "control_change"}, {"time": 1878, "annotation": {"number": 64, "value": 0}, "group": "control_change"}, {"time": 1881, "annotation": {"number": 64, "value": 127}, "group": "control_change"}, {"time": 1927, "annotation": {"number": 64, "value": 0}, "group": "control_change"}, {"time": 1943, "annotation": {"number": 64, "value": 127}, "group": "control_change"}, {"time": 1977, "annotation": {"number": 64, "value": 0}, "group": "control_change"}, {"time": 1984, "annotation": {"number": 64, "value": 127}, "group": "control_change"}, {"time": 2025, "annotation": {"number": 64, "value": 0}, "group": "control_change"}, {"time": 2035, "annotation": {"number": 64, "value": 127}, "group": "control_change"}, {"time": 2069, "annotation": {"number": 64, "value": 0}, "group": "control_change"}, {"time": 2082, "annotation": {"number": 64, "value": 127}, "group": "control_change"}, {"time": 2119, "annotation": {"number": 64, "value": 0}, "group": "control_change"}, {"time": 2123, "annotation": {"number": 64, "value": 127}, "group": "control_change"}, {"time": 2168, "annotation": {"number": 64, "value": 0}, "group": "control_change"}, {"time": 2174, "annotation": {"number": 64, "value": 127}, "group": "control_change"}, {"time": 2217, "annotation": {"number": 64, "value": 0}, "group": "control_change"}, {"time": 2224, "annotation": {"number": 64, "value": 127}, "group": "control_change"}, {"time": 2265, "annotation": {"number": 64, "value": 0}, "group": "control_change"}, {"time": 2270, "annotation": {"number": 64, "value": 127}, "group": "control_change"}, {"time": 2312, "annotation": {"number": 64, "value": 0}, "group": "control_change"}, {"time": 2313, "annotation": {"number": 64, "value": 127}, "group": "control_change"}, {"time": 2361, "annotation": {"number": 64, "value": 0}, "group": "control_change"}, {"time": 2364, "annotation": {"number": 64, "value": 127}, "group": "control_change"}, {"time": 2409, "annotation": {"number": 64, "value": 0}, "group": "control_change"}, {"time": 2412, "annotation": {"number": 64, "value": 127}, "group": "control_change"}, {"time": 2455, "annotation": {"number": 64, "value": 0}, "group": "control_change"}, {"time": 2458, "annotation": {"number": 64, "value": 127}, "group": "control_change"}, {"time": 2505, "annotation": {"number": 64, "value": 0}, "group": "control_change"}, {"time": 2508, "annotation": {"number": 64, "value": 127}, "group": "control_change"}, {"time": 2552, "annotation": {"number": 64, "value": 0}, "group": "control_change"}, {"time": 2556, "annotation": {"number": 64, "value": 127}, "group": "control_change"}, {"time": 2601, "annotation": {"number": 64, "value": 0}, "group": "control_change"}, {"time": 2604, "annotation": {"number": 64, "value": 127}, "group": "control_change"}, {"time": 2648, "annotation": {"number": 64, "value": 0}, "group": "control_change"}, {"time": 2651, "annotation": {"number": 64, "value": 127}, "group": "control_change"}, {"time": 2696, "annotation": {"number": 64, "value": 0}, "group": "control_change"}, {"time": 2698, "annotation": {"number": 64, "value": 127}, "group": "control_change"}, {"time": 2744, "annotation": {"number": 64, "value": 0}, "group": "control_change"}, {"time": 2746, "annotation": {"number": 64, "value": 127}, "group": "control_change"}, {"time": 2791, "annotation": {"number": 64, "value": 0}, "group": "control_change"}, {"time": 2793, "annotation": {"number": 64, "value": 127}, "group": "control_change"}, {"time": 2840, "annotation": {"number": 64, "value": 0}, "group": "control_change"}, {"time": 2843, "annotation": {"number": 64, "value": 127}, "group": "control_change"}, {"time": 2889, "annotation": {"number": 64, "value": 0}, "group": "control_change"}, {"time": 2892, "annotation": {"number": 64, "value": 127}, "group": "control_change"}, {"time": 2934, "annotation": {"number": 64, "value": 0}, "group": "control_change"}, {"time": 2937, "annotation": {"number": 64, "value": 127}, "group": "control_change"}, {"time": 2983, "annotation": {"number": 64, "value": 0}, "group": "control_change"}, {"time": 2985, "annotation": {"number": 64, "value": 127}, "group": "control_change"}, {"time": 3030, "annotation": {"number": 64, "value": 0}, "group": "control_change"}, {"time": 3032, "annotation": {"number": 64, "value": 127}, "group": "control_change"}, {"time": 3053, "annotation": {"number": 64, "value": 0}, "group": "control_change"}, {"time": 3055, "annotation": {"number": 64, "value": 127}, "group": "control_change"}, {"time": 3077, "annotation": {"number": 64, "value": 0}, "group": "control_change"}, {"time": 3081, "annotation": {"number": 64, "value": 127}, "group": "control_change"}, {"time": 3127, "annotation": {"number": 64, "value": 0}, "group": "control_change"}, {"time": 3129, "annotation": {"number": 64, "value": 127}, "group": "control_change"}, {"time": 3174, "annotation": {"number": 64, "value": 0}, "group": "control_change"}, {"time": 3177, "annotation": {"number": 64, "value": 127}, "group": "control_change"}, {"time": 3223, "annotation": {"number": 64, "value": 0}, "group": "control_change"}, {"time": 3225, "annotation": {"number": 64, "value": 127}, "group": "control_change"}, {"time": 3270, "annotation": {"number": 64, "value": 0}, "group": "control_change"}, {"time": 3273, "annotation": {"number": 64, "value": 127}, "group": "control_change"}, {"time": 3321, "annotation": {"number": 64, "value": 0}, "group": "control_change"}, {"time": 3324, "annotation": {"number": 64, "value": 127}, "group": "control_change"}, {"time": 3368, "annotation": {"number": 64, "value": 0}, "group": "control_change"}, {"time": 3370, "annotation": {"number": 64, "value": 127}, "group": "control_change"}, {"time": 3414, "annotation": {"number": 64, "value": 0}, "group": "control_change"}, {"time": 3417, "annotation": {"number": 64, "value": 127}, "group": "control_change"}, {"time": 3463, "annotation": {"number": 64, "value": 0}, "group": "control_change"}, {"time": 3466, "annotation": {"number": 64, "value": 127}, "group": "control_change"}, {"time": 3509, "annotation": {"number": 64, "value": 0}, "group": "control_change"}, {"time": 3527, "annotation": {"number": 64, "value": 127}, "group": "control_change"}, {"time": 3561, "annotation": {"number": 64, "value": 0}, "group": "control_change"}, {"time": 3568, "annotation": {"number": 64, "value": 127}, "group": "control_change"}, {"time": 3609, "annotation": {"number": 64, "value": 0}, "group": "control_change"}, {"time": 3619, "annotation": {"number": 64, "value": 127}, "group": "control_change"}, {"time": 3653, "annotation": {"number": 64, "value": 0}, "group": "control_change"}, {"time": 3666, "annotation": {"number": 64, "value": 127}, "group": "control_change"}, {"time": 3703, "annotation": {"number": 64, "value": 0}, "group": "control_change"}, {"time": 3707, "annotation": {"number": 64, "value": 127}, "group": "control_change"}, {"time": 3752, "annotation": {"number": 64, "value": 0}, "group": "control_change"}, {"time": 3758, "annotation": {"number": 64, "value": 127}, "group": "control_change"}, {"time": 3801, "annotation": {"number": 64, "value": 0}, "group": "control_change"}, {"time": 3808, "annotation": {"number": 64, "value": 127}, "group": "control_change"}, {"time": 3849, "annotation": {"number": 64, "value": 0}, "group": "control_change"}, {"time": 3854, "annotation": {"number": 64, "value": 127}, "group": "control_change"}, {"time": 3896, "annotation": {"number": 64, "value": 0}, "group": "control_change"}, {"time": 3899, "annotation": {"number": 64, "value": 127}, "group": "control_change"}, {"time": 3943, "annotation": {"number": 64, "value": 0}, "group": "control_change"}, {"time": 3946, "annotation": {"number": 64, "value": 127}, "group": "control_change"}, {"time": 3992, "annotation": {"number": 64, "value": 0}, "group": "control_change"}, {"time": 3995, "annotation": {"number": 64, "value": 127}, "group": "control_change"}, {"time": 4040, "annotation": {"number": 64, "value": 127}, "group": "control_change"}, {"time": 4041, "annotation": {"number": 64, "value": 0}, "group": "control_change"}, {"time": 4088, "annotation": {"number": 64, "value": 0}, "group": "control_change"}, {"time": 4091, "annotation": {"number": 64, "value": 127}, "group": "control_change"}, {"time": 4138, "annotation": {"number": 64, "value": 0}, "group": "control_change"}, {"time": 4141, "annotation": {"number": 64, "value": 127}, "group": "control_change"}, {"time": 4185, "annotation": {"number": 64, "value": 0}, "group": "control_change"}, {"time": 4187, "annotation": {"number": 64, "value": 127}, "group": "control_change"}, {"time": 4232, "annotation": {"number": 64, "value": 0}, "group": "control_change"}, {"time": 4235, "annotation": {"number": 64, "value": 127}, "group": "control_change"}, {"time": 4278, "annotation": {"number": 64, "value": 0}, "group": "control_change"}, {"time": 4295, "annotation": {"number": 64, "value": 127}, "group": "control_change"}, {"time": 4329, "annotation": {"number": 64, "value": 0}, "group": "control_change"}, {"time": 4336, "annotation": {"number": 64, "value": 127}, "group": "control_change"}, {"time": 4377, "annotation": {"number": 64, "value": 0}, "group": "control_change"}, {"time": 4387, "annotation": {"number": 64, "value": 127}, "group": "control_change"}, {"time": 4421, "annotation": {"number": 64, "value": 0}, "group": "control_change"}, {"time": 4434, "annotation": {"number": 64, "value": 127}, "group": "control_change"}, {"time": 4471, "annotation": {"number": 64, "value": 0}, "group": "control_change"}, {"time": 4475, "annotation": {"number": 64, "value": 127}, "group": "control_change"}, {"time": 4520, "annotation": {"number": 64, "value": 0}, "group": "control_change"}, {"time": 4526, "annotation": {"number": 64, "value": 127}, "group": "control_change"}, {"time": 4569, "annotation": {"number": 64, "value": 0}, "group": "control_change"}, {"time": 4576, "annotation": {"number": 64, "value": 127}, "group": "control_change"}, {"time": 4617, "annotation": {"number": 64, "value": 0}, "group": "control_change"}, {"time": 4622, "annotation": {"number": 64, "value": 127}, "group": "control_change"}, {"time": 4664, "annotation": {"number": 64, "value": 0}, "group": "control_change"}, {"time": 4679, "annotation": {"number": 64, "value": 127}, "group": "control_change"}, {"time": 4713, "annotation": {"number": 64, "value": 0}, "group": "control_change"}, {"time": 4720, "annotation": {"number": 64, "value": 127}, "group": "control_change"}, {"time": 4761, "annotation": {"number": 64, "value": 0}, "group": "control_change"}, {"time": 4771, "annotation": {"number": 64, "value": 127}, "group": "control_change"}, {"time": 4805, "annotation": {"number": 64, "value": 0}, "group": "control_change"}, {"time": 4818, "annotation": {"number": 64, "value": 127}, "group": "control_change"}, {"time": 4855, "annotation": {"number": 64, "value": 0}, "group": "control_change"}, {"time": 4859, "annotation": {"number": 64, "value": 127}, "group": "control_change"}, {"time": 4904, "annotation": {"number": 64, "value": 0}, "group": "control_change"}, {"time": 4910, "annotation": {"number": 64, "value": 127}, "group": "control_change"}, {"time": 4953, "annotation": {"number": 64, "value": 0}, "group": "control_change"}, {"time": 4960, "annotation": {"number": 64, "value": 127}, "group": "control_change"}, {"time": 5001, "annotation": {"number": 64, "value": 0}, "group": "control_change"}, {"time": 5006, "annotation": {"number": 64, "value": 127}, "group": "control_change"}, {"time": 5048, "annotation": {"number": 64, "value": 0}, "group": "control_change"}, {"time": 5063, "annotation": {"number": 64, "value": 127}, "group": "control_change"}, {"time": 5097, "annotation": {"number": 64, "value": 0}, "group": "control_change"}, {"time": 5104, "annotation": {"number": 64, "value": 127}, "group": "control_change"}, {"time": 5145, "annotation": {"number": 64, "value": 0}, "group": "control_change"}, {"time": 5155, "annotation": {"number": 64, "value": 127}, "group": "control_change"}, {"time": 5189, "annotation": {"number": 64, "value": 0}, "group": "control_change"}, {"time": 5202, "annotation": {"number": 64, "value": 127}, "group": "control_change"}, {"time": 5239, "annotation": {"number": 64, "value": 0}, "group": "control_change"}, {"time": 5243, "annotation": {"number": 64, "value": 127}, "group": "control_change"}, {"time": 5288, "annotation": {"number": 64, "value": 0}, "group": "control_change"}, {"time": 5294, "annotation": {"number": 64, "value": 127}, "group": "control_change"}, {"time": 5337, "annotation": {"number": 64, "value": 0}, "group": "control_change"}, {"time": 5344, "annotation": {"number": 64, "value": 127}, "group": "control_change"}, {"time": 5385, "annotation": {"number": 64, "value": 0}, "group": "control_change"}, {"time": 5390, "annotation": {"number": 64, "value": 127}, "group": "control_change"}, {"time": 5432, "annotation": {"number": 64, "value": 0}, "group": "control_change"}, {"time": 5447, "annotation": {"number": 64, "value": 127}, "group": "control_change"}, {"time": 5481, "annotation": {"number": 64, "value": 0}, "group": "control_change"}, {"time": 5488, "annotation": {"number": 64, "value": 127}, "group": "control_change"}, {"time": 5529, "annotation": {"number": 64, "value": 0}, "group": "control_change"}, {"time": 5539, "annotation": {"number": 64, "value": 127}, "group": "control_change"}, {"time": 5573, "annotation": {"number": 64, "value": 0}, "group": "control_change"}, {"time": 5586, "annotation": {"number": 64, "value": 127}, "group": "control_change"}, {"time": 5623, "annotation": {"number": 64, "value": 0}, "group": "control_change"}]}]}