{"metadata": {"schema_version": "0.2", "title": "None", "source_filename": "266.mid", "source_format": "midi"}, "resolution": 12, "tempos": [{"time": 0, "qpm": 93.99998120000376}, {"time": 96, "qpm": 93.000186000372}, {"time": 120, "qpm": 98.99993565004183}, {"time": 132, "qpm": 93.99998120000376}, {"time": 144, "qpm": 93.000186000372}, {"time": 192, "qpm": 94.99999208333399}, {"time": 204, "qpm": 93.99998120000376}, {"time": 1392, "qpm": 94.99999208333399}, {"time": 1584, "qpm": 91.99998773333498}, {"time": 1680, "qpm": 93.99998120000376}, {"time": 1692, "qpm": 94.99999208333399}, {"time": 1716, "qpm": 96.0}, {"time": 1728, "qpm": 93.99998120000376}, {"time": 2736, "qpm": 97.9999836666694}, {"time": 2748, "qpm": 93.99998120000376}, {"time": 3288, "qpm": 94.99999208333399}, {"time": 3312, "qpm": 93.99998120000376}, {"time": 3612, "qpm": 96.0}, {"time": 3648, "qpm": 93.99998120000376}], "key_signatures": [{"time": 0, "root": 0, "mode": "major"}], "time_signatures": [{"time": 0, "numerator": 4, "denominator": 4}], "tracks": [{"program": 0, "is_drum": false, "name": "MELODY", "notes": [{"time": 509, "pitch": 66, "duration": 13, "velocity": 93}, {"time": 521, "pitch": 69, "duration": 11, "velocity": 84}, {"time": 533, "pitch": 71, "duration": 11, "velocity": 86}, {"time": 545, "pitch": 69, "duration": 6, "velocity": 95}, {"time": 551, "pitch": 68, "duration": 6, "velocity": 90}, {"time": 557, "pitch": 66, "duration": 9, "velocity": 84}, {"time": 569, "pitch": 69, "duration": 10, "velocity": 93}, {"time": 581, "pitch": 71, "duration": 35, "velocity": 90}, {"time": 617, "pitch": 69, "duration": 5, "velocity": 84}, {"time": 623, "pitch": 68, "duration": 6, "velocity": 81}, {"time": 629, "pitch": 66, "duration": 9, "velocity": 84}, {"time": 641, "pitch": 69, "duration": 2, "velocity": 73}, {"time": 653, "pitch": 69, "duration": 10, "velocity": 83}, {"time": 665, "pitch": 68, "duration": 6, "velocity": 79}, {"time": 677, "pitch": 66, "duration": 10, "velocity": 84}, {"time": 725, "pitch": 66, "duration": 8, "velocity": 106}, {"time": 737, "pitch": 69, "duration": 9, "velocity": 98}, {"time": 749, "pitch": 71, "duration": 8, "velocity": 91}, {"time": 761, "pitch": 69, "duration": 5, "velocity": 83}, {"time": 767, "pitch": 66, "duration": 4, "velocity": 98}, {"time": 773, "pitch": 64, "duration": 7, "velocity": 90}, {"time": 785, "pitch": 66, "duration": 11, "velocity": 95}, {"time": 797, "pitch": 62, "duration": 9, "velocity": 94}, {"time": 809, "pitch": 64, "duration": 9, "velocity": 90}, {"time": 821, "pitch": 66, "duration": 11, "velocity": 86}, {"time": 833, "pitch": 69, "duration": 13, "velocity": 90}, {"time": 845, "pitch": 62, "duration": 13, "velocity": 98}, {"time": 857, "pitch": 64, "duration": 13, "velocity": 90}, {"time": 869, "pitch": 66, "duration": 11, "velocity": 90}, {"time": 881, "pitch": 64, "duration": 5, "velocity": 84}, {"time": 887, "pitch": 62, "duration": 6, "velocity": 84}, {"time": 893, "pitch": 61, "duration": 11, "velocity": 90}, {"time": 917, "pitch": 59, "duration": 6, "velocity": 90}, {"time": 989, "pitch": 66, "duration": 12, "velocity": 93}, {"time": 1001, "pitch": 69, "duration": 12, "velocity": 84}, {"time": 1013, "pitch": 71, "duration": 12, "velocity": 86}, {"time": 1025, "pitch": 69, "duration": 6, "velocity": 95}, {"time": 1031, "pitch": 68, "duration": 6, "velocity": 90}, {"time": 1037, "pitch": 66, "duration": 12, "velocity": 84}, {"time": 1049, "pitch": 69, "duration": 12, "velocity": 93}, {"time": 1061, "pitch": 71, "duration": 36, "velocity": 90}, {"time": 1097, "pitch": 69, "duration": 6, "velocity": 84}, {"time": 1103, "pitch": 68, "duration": 6, "velocity": 81}, {"time": 1109, "pitch": 66, "duration": 12, "velocity": 84}, {"time": 1121, "pitch": 69, "duration": 12, "velocity": 73}, {"time": 1133, "pitch": 69, "duration": 12, "velocity": 83}, {"time": 1145, "pitch": 68, "duration": 12, "velocity": 79}, {"time": 1157, "pitch": 66, "duration": 48, "velocity": 84}, {"time": 1205, "pitch": 66, "duration": 12, "velocity": 106}, {"time": 1217, "pitch": 69, "duration": 12, "velocity": 98}, {"time": 1229, "pitch": 71, "duration": 12, "velocity": 91}, {"time": 1241, "pitch": 69, "duration": 6, "velocity": 83}, {"time": 1247, "pitch": 66, "duration": 6, "velocity": 98}, {"time": 1253, "pitch": 64, "duration": 12, "velocity": 90}, {"time": 1265, "pitch": 66, "duration": 12, "velocity": 95}, {"time": 1277, "pitch": 62, "duration": 12, "velocity": 94}, {"time": 1289, "pitch": 64, "duration": 12, "velocity": 90}, {"time": 1301, "pitch": 66, "duration": 12, "velocity": 86}, {"time": 1313, "pitch": 69, "duration": 12, "velocity": 90}, {"time": 1325, "pitch": 62, "duration": 12, "velocity": 98}, {"time": 1337, "pitch": 64, "duration": 12, "velocity": 90}, {"time": 1349, "pitch": 66, "duration": 12, "velocity": 90}, {"time": 1361, "pitch": 64, "duration": 6, "velocity": 84}, {"time": 1367, "pitch": 62, "duration": 6, "velocity": 84}, {"time": 1373, "pitch": 61, "duration": 24, "velocity": 90}, {"time": 1397, "pitch": 59, "duration": 71, "velocity": 90}, {"time": 1901, "pitch": 66, "duration": 13, "velocity": 93}, {"time": 1913, "pitch": 69, "duration": 11, "velocity": 84}, {"time": 1925, "pitch": 71, "duration": 11, "velocity": 86}, {"time": 1937, "pitch": 69, "duration": 6, "velocity": 95}, {"time": 1943, "pitch": 68, "duration": 6, "velocity": 90}, {"time": 1949, "pitch": 66, "duration": 9, "velocity": 84}, {"time": 1961, "pitch": 69, "duration": 10, "velocity": 93}, {"time": 1973, "pitch": 71, "duration": 35, "velocity": 90}, {"time": 2009, "pitch": 69, "duration": 5, "velocity": 84}, {"time": 2015, "pitch": 68, "duration": 6, "velocity": 81}, {"time": 2021, "pitch": 66, "duration": 9, "velocity": 84}, {"time": 2033, "pitch": 69, "duration": 2, "velocity": 73}, {"time": 2045, "pitch": 69, "duration": 10, "velocity": 83}, {"time": 2057, "pitch": 68, "duration": 6, "velocity": 79}, {"time": 2069, "pitch": 66, "duration": 10, "velocity": 84}, {"time": 2117, "pitch": 66, "duration": 8, "velocity": 106}, {"time": 2129, "pitch": 69, "duration": 9, "velocity": 98}, {"time": 2141, "pitch": 71, "duration": 8, "velocity": 91}, {"time": 2153, "pitch": 69, "duration": 5, "velocity": 83}, {"time": 2159, "pitch": 66, "duration": 4, "velocity": 98}, {"time": 2165, "pitch": 64, "duration": 7, "velocity": 90}, {"time": 2177, "pitch": 66, "duration": 11, "velocity": 95}, {"time": 2189, "pitch": 62, "duration": 9, "velocity": 94}, {"time": 2201, "pitch": 64, "duration": 9, "velocity": 90}, {"time": 2213, "pitch": 66, "duration": 11, "velocity": 86}, {"time": 2225, "pitch": 69, "duration": 13, "velocity": 90}, {"time": 2237, "pitch": 62, "duration": 13, "velocity": 98}, {"time": 2249, "pitch": 64, "duration": 13, "velocity": 90}, {"time": 2261, "pitch": 66, "duration": 11, "velocity": 90}, {"time": 2273, "pitch": 64, "duration": 5, "velocity": 84}, {"time": 2279, "pitch": 62, "duration": 6, "velocity": 84}, {"time": 2285, "pitch": 61, "duration": 11, "velocity": 90}, {"time": 2309, "pitch": 59, "duration": 6, "velocity": 90}, {"time": 2381, "pitch": 66, "duration": 12, "velocity": 93}, {"time": 2393, "pitch": 69, "duration": 12, "velocity": 84}, {"time": 2405, "pitch": 71, "duration": 12, "velocity": 86}, {"time": 2417, "pitch": 69, "duration": 6, "velocity": 95}, {"time": 2423, "pitch": 68, "duration": 6, "velocity": 90}, {"time": 2429, "pitch": 66, "duration": 12, "velocity": 84}, {"time": 2441, "pitch": 69, "duration": 12, "velocity": 93}, {"time": 2453, "pitch": 71, "duration": 36, "velocity": 90}, {"time": 2489, "pitch": 69, "duration": 6, "velocity": 84}, {"time": 2495, "pitch": 68, "duration": 6, "velocity": 81}, {"time": 2501, "pitch": 66, "duration": 12, "velocity": 84}, {"time": 2513, "pitch": 69, "duration": 12, "velocity": 73}, {"time": 2525, "pitch": 69, "duration": 12, "velocity": 83}, {"time": 2537, "pitch": 68, "duration": 12, "velocity": 79}, {"time": 2549, "pitch": 66, "duration": 48, "velocity": 84}, {"time": 2597, "pitch": 66, "duration": 12, "velocity": 106}, {"time": 2609, "pitch": 69, "duration": 12, "velocity": 98}, {"time": 2621, "pitch": 71, "duration": 12, "velocity": 91}, {"time": 2633, "pitch": 69, "duration": 6, "velocity": 83}, {"time": 2639, "pitch": 66, "duration": 6, "velocity": 98}, {"time": 2645, "pitch": 64, "duration": 12, "velocity": 90}, {"time": 2657, "pitch": 66, "duration": 12, "velocity": 95}, {"time": 2669, "pitch": 62, "duration": 12, "velocity": 94}, {"time": 2681, "pitch": 64, "duration": 12, "velocity": 90}, {"time": 2693, "pitch": 66, "duration": 12, "velocity": 86}, {"time": 2705, "pitch": 69, "duration": 12, "velocity": 90}, {"time": 2717, "pitch": 62, "duration": 12, "velocity": 98}, {"time": 2729, "pitch": 64, "duration": 12, "velocity": 90}, {"time": 2741, "pitch": 66, "duration": 12, "velocity": 90}, {"time": 2753, "pitch": 64, "duration": 6, "velocity": 84}, {"time": 2759, "pitch": 62, "duration": 6, "velocity": 84}, {"time": 2765, "pitch": 61, "duration": 24, "velocity": 90}, {"time": 2789, "pitch": 59, "duration": 71, "velocity": 90}, {"time": 3341, "pitch": 66, "duration": 12, "velocity": 93}, {"time": 3353, "pitch": 69, "duration": 12, "velocity": 84}, {"time": 3365, "pitch": 71, "duration": 12, "velocity": 86}, {"time": 3377, "pitch": 69, "duration": 6, "velocity": 95}, {"time": 3383, "pitch": 68, "duration": 6, "velocity": 90}, {"time": 3389, "pitch": 66, "duration": 12, "velocity": 84}, {"time": 3401, "pitch": 69, "duration": 12, "velocity": 93}, {"time": 3413, "pitch": 71, "duration": 36, "velocity": 90}, {"time": 3449, "pitch": 69, "duration": 6, "velocity": 84}, {"time": 3455, "pitch": 68, "duration": 6, "velocity": 81}, {"time": 3461, "pitch": 66, "duration": 12, "velocity": 84}, {"time": 3473, "pitch": 69, "duration": 12, "velocity": 73}, {"time": 3485, "pitch": 69, "duration": 12, "velocity": 83}, {"time": 3497, "pitch": 68, "duration": 12, "velocity": 79}, {"time": 3509, "pitch": 66, "duration": 48, "velocity": 84}, {"time": 3557, "pitch": 66, "duration": 12, "velocity": 106}, {"time": 3569, "pitch": 69, "duration": 12, "velocity": 98}, {"time": 3581, "pitch": 71, "duration": 12, "velocity": 91}, {"time": 3593, "pitch": 69, "duration": 6, "velocity": 83}, {"time": 3599, "pitch": 66, "duration": 6, "velocity": 98}, {"time": 3605, "pitch": 64, "duration": 12, "velocity": 90}, {"time": 3617, "pitch": 66, "duration": 12, "velocity": 95}, {"time": 3629, "pitch": 62, "duration": 12, "velocity": 94}, {"time": 3641, "pitch": 64, "duration": 12, "velocity": 90}, {"time": 3653, "pitch": 66, "duration": 12, "velocity": 86}, {"time": 3665, "pitch": 69, "duration": 12, "velocity": 90}, {"time": 3677, "pitch": 62, "duration": 12, "velocity": 98}, {"time": 3689, "pitch": 64, "duration": 12, "velocity": 90}, {"time": 3701, "pitch": 66, "duration": 12, "velocity": 90}, {"time": 3713, "pitch": 64, "duration": 6, "velocity": 84}, {"time": 3719, "pitch": 62, "duration": 6, "velocity": 84}, {"time": 3725, "pitch": 61, "duration": 24, "velocity": 90}, {"time": 3749, "pitch": 59, "duration": 71, "velocity": 90}, {"time": 3845, "pitch": 66, "duration": 12, "velocity": 106}, {"time": 3857, "pitch": 69, "duration": 12, "velocity": 98}, {"time": 3869, "pitch": 71, "duration": 12, "velocity": 91}, {"time": 3881, "pitch": 69, "duration": 6, "velocity": 83}, {"time": 3887, "pitch": 66, "duration": 6, "velocity": 98}, {"time": 3893, "pitch": 64, "duration": 12, "velocity": 90}, {"time": 3905, "pitch": 66, "duration": 12, "velocity": 95}, {"time": 3917, "pitch": 62, "duration": 12, "velocity": 94}, {"time": 3929, "pitch": 64, "duration": 12, "velocity": 90}, {"time": 3941, "pitch": 66, "duration": 12, "velocity": 86}, {"time": 3953, "pitch": 69, "duration": 12, "velocity": 90}, {"time": 3965, "pitch": 62, "duration": 12, "velocity": 98}, {"time": 3977, "pitch": 64, "duration": 12, "velocity": 90}, {"time": 3989, "pitch": 66, "duration": 12, "velocity": 90}, {"time": 4001, "pitch": 64, "duration": 6, "velocity": 84}, {"time": 4007, "pitch": 62, "duration": 6, "velocity": 84}, {"time": 4013, "pitch": 61, "duration": 24, "velocity": 90}, {"time": 4037, "pitch": 59, "duration": 71, "velocity": 90}, {"time": 4133, "pitch": 66, "duration": 12, "velocity": 106}, {"time": 4145, "pitch": 69, "duration": 12, "velocity": 98}, {"time": 4157, "pitch": 71, "duration": 12, "velocity": 91}, {"time": 4169, "pitch": 69, "duration": 6, "velocity": 83}, {"time": 4175, "pitch": 66, "duration": 6, "velocity": 98}, {"time": 4181, "pitch": 64, "duration": 12, "velocity": 90}, {"time": 4193, "pitch": 66, "duration": 12, "velocity": 95}, {"time": 4205, "pitch": 62, "duration": 12, "velocity": 94}, {"time": 4217, "pitch": 64, "duration": 12, "velocity": 90}, {"time": 4229, "pitch": 66, "duration": 12, "velocity": 86}, {"time": 4241, "pitch": 69, "duration": 12, "velocity": 90}, {"time": 4253, "pitch": 62, "duration": 12, "velocity": 98}, {"time": 4265, "pitch": 64, "duration": 12, "velocity": 90}, {"time": 4277, "pitch": 66, "duration": 12, "velocity": 90}, {"time": 4289, "pitch": 64, "duration": 6, "velocity": 84}, {"time": 4295, "pitch": 62, "duration": 6, "velocity": 84}, {"time": 4301, "pitch": 61, "duration": 24, "velocity": 90}, {"time": 4325, "pitch": 59, "duration": 71, "velocity": 90}, {"time": 4421, "pitch": 66, "duration": 12, "velocity": 106}, {"time": 4433, "pitch": 69, "duration": 12, "velocity": 98}, {"time": 4445, "pitch": 71, "duration": 12, "velocity": 91}, {"time": 4457, "pitch": 69, "duration": 6, "velocity": 83}, {"time": 4463, "pitch": 66, "duration": 6, "velocity": 98}, {"time": 4469, "pitch": 64, "duration": 12, "velocity": 90}, {"time": 4481, "pitch": 66, "duration": 12, "velocity": 95}, {"time": 4493, "pitch": 62, "duration": 12, "velocity": 94}, {"time": 4505, "pitch": 64, "duration": 12, "velocity": 90}, {"time": 4517, "pitch": 66, "duration": 12, "velocity": 86}, {"time": 4529, "pitch": 69, "duration": 12, "velocity": 90}, {"time": 4541, "pitch": 62, "duration": 12, "velocity": 98}, {"time": 4553, "pitch": 64, "duration": 12, "velocity": 90}, {"time": 4565, "pitch": 66, "duration": 12, "velocity": 90}, {"time": 4577, "pitch": 64, "duration": 6, "velocity": 84}, {"time": 4583, "pitch": 62, "duration": 6, "velocity": 84}, {"time": 4589, "pitch": 61, "duration": 24, "velocity": 90}, {"time": 4613, "pitch": 59, "duration": 71, "velocity": 90}]}, {"program": 0, "is_drum": false, "name": "BRIDGE", "notes": [{"time": 101, "pitch": 66, "duration": 12, "velocity": 100}, {"time": 101, "pitch": 78, "duration": 12, "velocity": 100}, {"time": 113, "pitch": 69, "duration": 12, "velocity": 96}, {"time": 113, "pitch": 81, "duration": 12, "velocity": 96}, {"time": 125, "pitch": 71, "duration": 12, "velocity": 98}, {"time": 125, "pitch": 83, "duration": 12, "velocity": 98}, {"time": 137, "pitch": 73, "duration": 6, "velocity": 94}, {"time": 137, "pitch": 85, "duration": 6, "velocity": 94}, {"time": 143, "pitch": 69, "duration": 6, "velocity": 86}, {"time": 143, "pitch": 81, "duration": 6, "velocity": 86}, {"time": 149, "pitch": 71, "duration": 48, "velocity": 98}, {"time": 149, "pitch": 83, "duration": 48, "velocity": 98}, {"time": 197, "pitch": 66, "duration": 12, "velocity": 98}, {"time": 197, "pitch": 78, "duration": 12, "velocity": 98}, {"time": 209, "pitch": 69, "duration": 12, "velocity": 91}, {"time": 209, "pitch": 81, "duration": 12, "velocity": 91}, {"time": 221, "pitch": 71, "duration": 12, "velocity": 91}, {"time": 221, "pitch": 83, "duration": 12, "velocity": 91}, {"time": 233, "pitch": 69, "duration": 6, "velocity": 84}, {"time": 233, "pitch": 81, "duration": 6, "velocity": 84}, {"time": 239, "pitch": 66, "duration": 6, "velocity": 95}, {"time": 239, "pitch": 78, "duration": 6, "velocity": 95}, {"time": 245, "pitch": 76, "duration": 2, "velocity": 101}, {"time": 245, "pitch": 64, "duration": 36, "velocity": 93}, {"time": 247, "pitch": 78, "duration": 2, "velocity": 93}, {"time": 249, "pitch": 76, "duration": 2, "velocity": 90}, {"time": 251, "pitch": 78, "duration": 2, "velocity": 85}, {"time": 252, "pitch": 76, "duration": 2, "velocity": 86}, {"time": 255, "pitch": 78, "duration": 1, "velocity": 83}, {"time": 256, "pitch": 76, "duration": 2, "velocity": 83}, {"time": 258, "pitch": 78, "duration": 2, "velocity": 83}, {"time": 260, "pitch": 76, "duration": 2, "velocity": 83}, {"time": 262, "pitch": 78, "duration": 1, "velocity": 83}, {"time": 263, "pitch": 76, "duration": 2, "velocity": 83}, {"time": 265, "pitch": 78, "duration": 2, "velocity": 83}, {"time": 266, "pitch": 76, "duration": 2, "velocity": 83}, {"time": 268, "pitch": 78, "duration": 2, "velocity": 85}, {"time": 270, "pitch": 76, "duration": 14, "velocity": 86}, {"time": 281, "pitch": 78, "duration": 3, "velocity": 101}, {"time": 284, "pitch": 81, "duration": 3, "velocity": 101}, {"time": 287, "pitch": 83, "duration": 3, "velocity": 98}, {"time": 290, "pitch": 85, "duration": 3, "velocity": 84}, {"time": 293, "pitch": 74, "duration": 6, "velocity": 95}, {"time": 293, "pitch": 86, "duration": 6, "velocity": 95}, {"time": 299, "pitch": 76, "duration": 6, "velocity": 86}, {"time": 299, "pitch": 88, "duration": 6, "velocity": 86}, {"time": 305, "pitch": 74, "duration": 6, "velocity": 84}, {"time": 305, "pitch": 86, "duration": 6, "velocity": 84}, {"time": 311, "pitch": 76, "duration": 6, "velocity": 84}, {"time": 311, "pitch": 88, "duration": 6, "velocity": 84}, {"time": 317, "pitch": 78, "duration": 6, "velocity": 90}, {"time": 317, "pitch": 90, "duration": 6, "velocity": 90}, {"time": 323, "pitch": 81, "duration": 6, "velocity": 91}, {"time": 323, "pitch": 93, "duration": 6, "velocity": 91}, {"time": 329, "pitch": 78, "duration": 6, "velocity": 94}, {"time": 329, "pitch": 90, "duration": 6, "velocity": 94}, {"time": 335, "pitch": 81, "duration": 6, "velocity": 90}, {"time": 335, "pitch": 93, "duration": 6, "velocity": 90}, {"time": 341, "pitch": 83, "duration": 12, "velocity": 100}, {"time": 341, "pitch": 95, "duration": 12, "velocity": 100}, {"time": 353, "pitch": 81, "duration": 6, "velocity": 83}, {"time": 353, "pitch": 93, "duration": 6, "velocity": 83}, {"time": 359, "pitch": 78, "duration": 6, "velocity": 90}, {"time": 359, "pitch": 90, "duration": 6, "velocity": 90}, {"time": 365, "pitch": 76, "duration": 12, "velocity": 90}, {"time": 365, "pitch": 88, "duration": 12, "velocity": 90}, {"time": 377, "pitch": 78, "duration": 6, "velocity": 90}, {"time": 377, "pitch": 90, "duration": 6, "velocity": 90}, {"time": 383, "pitch": 76, "duration": 6, "velocity": 83}, {"time": 383, "pitch": 88, "duration": 6, "velocity": 83}, {"time": 389, "pitch": 74, "duration": 12, "velocity": 93}, {"time": 389, "pitch": 86, "duration": 12, "velocity": 93}, {"time": 401, "pitch": 76, "duration": 6, "velocity": 86}, {"time": 401, "pitch": 88, "duration": 6, "velocity": 86}, {"time": 407, "pitch": 74, "duration": 6, "velocity": 83}, {"time": 407, "pitch": 86, "duration": 6, "velocity": 83}, {"time": 413, "pitch": 73, "duration": 24, "velocity": 93}, {"time": 413, "pitch": 85, "duration": 24, "velocity": 93}, {"time": 437, "pitch": 71, "duration": 12, "velocity": 98}, {"time": 437, "pitch": 83, "duration": 12, "velocity": 98}, {"time": 449, "pitch": 78, "duration": 6, "velocity": 93}, {"time": 449, "pitch": 90, "duration": 6, "velocity": 93}, {"time": 455, "pitch": 78, "duration": 6, "velocity": 95}, {"time": 455, "pitch": 90, "duration": 6, "velocity": 95}, {"time": 461, "pitch": 71, "duration": 6, "velocity": 98}, {"time": 461, "pitch": 83, "duration": 6, "velocity": 98}, {"time": 467, "pitch": 78, "duration": 6, "velocity": 82}, {"time": 467, "pitch": 90, "duration": 6, "velocity": 82}, {"time": 473, "pitch": 78, "duration": 12, "velocity": 91}, {"time": 473, "pitch": 90, "duration": 12, "velocity": 91}, {"time": 485, "pitch": 71, "duration": 12, "velocity": 93}, {"time": 485, "pitch": 83, "duration": 12, "velocity": 93}, {"time": 497, "pitch": 71, "duration": 36, "velocity": 86}, {"time": 497, "pitch": 83, "duration": 36, "velocity": 86}, {"time": 689, "pitch": 66, "duration": 4, "velocity": 93}, {"time": 695, "pitch": 69, "duration": 2, "velocity": 90}, {"time": 701, "pitch": 69, "duration": 3, "velocity": 91}, {"time": 707, "pitch": 68, "duration": 2, "velocity": 90}, {"time": 713, "pitch": 66, "duration": 7, "velocity": 94}, {"time": 917, "pitch": 59, "duration": 12, "velocity": 100}, {"time": 917, "pitch": 71, "duration": 12, "velocity": 100}, {"time": 929, "pitch": 66, "duration": 12, "velocity": 90}, {"time": 929, "pitch": 78, "duration": 12, "velocity": 90}, {"time": 941, "pitch": 59, "duration": 6, "velocity": 104}, {"time": 941, "pitch": 71, "duration": 6, "velocity": 104}, {"time": 947, "pitch": 66, "duration": 6, "velocity": 90}, {"time": 947, "pitch": 78, "duration": 6, "velocity": 90}, {"time": 953, "pitch": 66, "duration": 12, "velocity": 95}, {"time": 953, "pitch": 78, "duration": 12, "velocity": 95}, {"time": 965, "pitch": 59, "duration": 6, "velocity": 104}, {"time": 965, "pitch": 71, "duration": 6, "velocity": 104}, {"time": 977, "pitch": 59, "duration": 5, "velocity": 101}, {"time": 977, "pitch": 71, "duration": 5, "velocity": 101}, {"time": 1169, "pitch": 66, "duration": 6, "velocity": 100}, {"time": 1175, "pitch": 69, "duration": 6, "velocity": 90}, {"time": 1181, "pitch": 71, "duration": 6, "velocity": 93}, {"time": 1187, "pitch": 71, "duration": 6, "velocity": 82}, {"time": 1193, "pitch": 73, "duration": 6, "velocity": 95}, {"time": 1199, "pitch": 76, "duration": 6, "velocity": 93}, {"time": 1205, "pitch": 78, "duration": 36, "velocity": 93}, {"time": 1241, "pitch": 78, "duration": 6, "velocity": 86}, {"time": 1247, "pitch": 74, "duration": 6, "velocity": 95}, {"time": 1253, "pitch": 76, "duration": 36, "velocity": 100}, {"time": 1289, "pitch": 76, "duration": 6, "velocity": 91}, {"time": 1295, "pitch": 73, "duration": 6, "velocity": 94}, {"time": 1301, "pitch": 74, "duration": 48, "velocity": 98}, {"time": 1349, "pitch": 73, "duration": 48, "velocity": 101}, {"time": 1433, "pitch": 78, "duration": 4, "velocity": 90}, {"time": 1436, "pitch": 76, "duration": 4, "velocity": 83}, {"time": 1439, "pitch": 74, "duration": 3, "velocity": 79}, {"time": 1442, "pitch": 73, "duration": 3, "velocity": 83}, {"time": 1445, "pitch": 71, "duration": 34, "velocity": 84}, {"time": 1493, "pitch": 66, "duration": 12, "velocity": 100}, {"time": 1493, "pitch": 78, "duration": 12, "velocity": 100}, {"time": 1505, "pitch": 69, "duration": 12, "velocity": 96}, {"time": 1505, "pitch": 81, "duration": 12, "velocity": 96}, {"time": 1517, "pitch": 71, "duration": 12, "velocity": 98}, {"time": 1517, "pitch": 83, "duration": 12, "velocity": 98}, {"time": 1529, "pitch": 73, "duration": 6, "velocity": 94}, {"time": 1529, "pitch": 85, "duration": 6, "velocity": 94}, {"time": 1535, "pitch": 69, "duration": 6, "velocity": 86}, {"time": 1535, "pitch": 81, "duration": 6, "velocity": 86}, {"time": 1541, "pitch": 71, "duration": 48, "velocity": 98}, {"time": 1541, "pitch": 83, "duration": 48, "velocity": 98}, {"time": 1589, "pitch": 66, "duration": 12, "velocity": 98}, {"time": 1589, "pitch": 78, "duration": 12, "velocity": 98}, {"time": 1601, "pitch": 69, "duration": 12, "velocity": 91}, {"time": 1601, "pitch": 81, "duration": 12, "velocity": 91}, {"time": 1613, "pitch": 71, "duration": 12, "velocity": 91}, {"time": 1613, "pitch": 83, "duration": 12, "velocity": 91}, {"time": 1625, "pitch": 69, "duration": 6, "velocity": 84}, {"time": 1625, "pitch": 81, "duration": 6, "velocity": 84}, {"time": 1631, "pitch": 66, "duration": 6, "velocity": 95}, {"time": 1631, "pitch": 78, "duration": 6, "velocity": 95}, {"time": 1637, "pitch": 64, "duration": 36, "velocity": 99}, {"time": 1637, "pitch": 76, "duration": 36, "velocity": 99}, {"time": 1673, "pitch": 78, "duration": 3, "velocity": 95}, {"time": 1676, "pitch": 81, "duration": 3, "velocity": 76}, {"time": 1679, "pitch": 83, "duration": 3, "velocity": 77}, {"time": 1682, "pitch": 85, "duration": 3, "velocity": 84}, {"time": 1685, "pitch": 74, "duration": 6, "velocity": 95}, {"time": 1685, "pitch": 86, "duration": 6, "velocity": 95}, {"time": 1691, "pitch": 76, "duration": 6, "velocity": 86}, {"time": 1691, "pitch": 88, "duration": 6, "velocity": 86}, {"time": 1697, "pitch": 74, "duration": 6, "velocity": 84}, {"time": 1697, "pitch": 86, "duration": 6, "velocity": 84}, {"time": 1703, "pitch": 76, "duration": 6, "velocity": 84}, {"time": 1703, "pitch": 88, "duration": 6, "velocity": 84}, {"time": 1709, "pitch": 78, "duration": 6, "velocity": 90}, {"time": 1709, "pitch": 90, "duration": 6, "velocity": 90}, {"time": 1715, "pitch": 81, "duration": 6, "velocity": 91}, {"time": 1715, "pitch": 93, "duration": 6, "velocity": 91}, {"time": 1721, "pitch": 78, "duration": 6, "velocity": 94}, {"time": 1721, "pitch": 90, "duration": 6, "velocity": 94}, {"time": 1727, "pitch": 81, "duration": 6, "velocity": 90}, {"time": 1727, "pitch": 93, "duration": 6, "velocity": 90}, {"time": 1733, "pitch": 83, "duration": 12, "velocity": 100}, {"time": 1733, "pitch": 95, "duration": 12, "velocity": 100}, {"time": 1745, "pitch": 81, "duration": 6, "velocity": 83}, {"time": 1745, "pitch": 93, "duration": 6, "velocity": 83}, {"time": 1751, "pitch": 78, "duration": 6, "velocity": 90}, {"time": 1751, "pitch": 90, "duration": 6, "velocity": 90}, {"time": 1757, "pitch": 76, "duration": 12, "velocity": 90}, {"time": 1757, "pitch": 88, "duration": 12, "velocity": 90}, {"time": 1769, "pitch": 78, "duration": 6, "velocity": 90}, {"time": 1769, "pitch": 90, "duration": 6, "velocity": 90}, {"time": 1775, "pitch": 76, "duration": 6, "velocity": 83}, {"time": 1775, "pitch": 88, "duration": 6, "velocity": 83}, {"time": 1781, "pitch": 74, "duration": 12, "velocity": 93}, {"time": 1781, "pitch": 86, "duration": 12, "velocity": 93}, {"time": 1793, "pitch": 76, "duration": 6, "velocity": 86}, {"time": 1793, "pitch": 88, "duration": 6, "velocity": 86}, {"time": 1799, "pitch": 74, "duration": 6, "velocity": 83}, {"time": 1799, "pitch": 86, "duration": 6, "velocity": 83}, {"time": 1805, "pitch": 73, "duration": 24, "velocity": 93}, {"time": 1805, "pitch": 85, "duration": 24, "velocity": 93}, {"time": 1829, "pitch": 71, "duration": 12, "velocity": 98}, {"time": 1829, "pitch": 83, "duration": 12, "velocity": 98}, {"time": 1841, "pitch": 78, "duration": 6, "velocity": 93}, {"time": 1841, "pitch": 90, "duration": 6, "velocity": 93}, {"time": 1847, "pitch": 78, "duration": 6, "velocity": 95}, {"time": 1847, "pitch": 90, "duration": 6, "velocity": 95}, {"time": 1853, "pitch": 71, "duration": 6, "velocity": 98}, {"time": 1853, "pitch": 83, "duration": 6, "velocity": 98}, {"time": 1859, "pitch": 78, "duration": 6, "velocity": 82}, {"time": 1859, "pitch": 90, "duration": 6, "velocity": 82}, {"time": 1865, "pitch": 78, "duration": 12, "velocity": 91}, {"time": 1865, "pitch": 90, "duration": 12, "velocity": 91}, {"time": 1877, "pitch": 71, "duration": 12, "velocity": 93}, {"time": 1877, "pitch": 83, "duration": 12, "velocity": 93}, {"time": 1889, "pitch": 71, "duration": 36, "velocity": 86}, {"time": 1889, "pitch": 83, "duration": 36, "velocity": 86}, {"time": 2081, "pitch": 66, "duration": 4, "velocity": 93}, {"time": 2087, "pitch": 69, "duration": 2, "velocity": 90}, {"time": 2093, "pitch": 69, "duration": 3, "velocity": 91}, {"time": 2099, "pitch": 68, "duration": 2, "velocity": 90}, {"time": 2105, "pitch": 66, "duration": 7, "velocity": 94}, {"time": 2309, "pitch": 59, "duration": 12, "velocity": 100}, {"time": 2309, "pitch": 71, "duration": 12, "velocity": 100}, {"time": 2321, "pitch": 66, "duration": 12, "velocity": 90}, {"time": 2321, "pitch": 78, "duration": 12, "velocity": 90}, {"time": 2333, "pitch": 59, "duration": 6, "velocity": 104}, {"time": 2333, "pitch": 71, "duration": 6, "velocity": 104}, {"time": 2339, "pitch": 66, "duration": 6, "velocity": 90}, {"time": 2339, "pitch": 78, "duration": 6, "velocity": 90}, {"time": 2345, "pitch": 66, "duration": 12, "velocity": 95}, {"time": 2345, "pitch": 78, "duration": 12, "velocity": 95}, {"time": 2357, "pitch": 59, "duration": 6, "velocity": 104}, {"time": 2357, "pitch": 71, "duration": 6, "velocity": 104}, {"time": 2369, "pitch": 59, "duration": 5, "velocity": 101}, {"time": 2369, "pitch": 71, "duration": 5, "velocity": 101}, {"time": 2561, "pitch": 66, "duration": 6, "velocity": 100}, {"time": 2567, "pitch": 69, "duration": 6, "velocity": 90}, {"time": 2573, "pitch": 71, "duration": 6, "velocity": 93}, {"time": 2579, "pitch": 71, "duration": 6, "velocity": 82}, {"time": 2585, "pitch": 73, "duration": 6, "velocity": 95}, {"time": 2591, "pitch": 76, "duration": 6, "velocity": 93}, {"time": 2597, "pitch": 78, "duration": 36, "velocity": 93}, {"time": 2633, "pitch": 78, "duration": 6, "velocity": 86}, {"time": 2639, "pitch": 74, "duration": 6, "velocity": 95}, {"time": 2645, "pitch": 76, "duration": 36, "velocity": 100}, {"time": 2681, "pitch": 76, "duration": 6, "velocity": 91}, {"time": 2687, "pitch": 73, "duration": 6, "velocity": 94}, {"time": 2693, "pitch": 74, "duration": 48, "velocity": 98}, {"time": 2741, "pitch": 73, "duration": 48, "velocity": 101}, {"time": 2789, "pitch": 71, "duration": 7, "velocity": 100}, {"time": 2801, "pitch": 78, "duration": 9, "velocity": 84}, {"time": 2813, "pitch": 71, "duration": 5, "velocity": 86}, {"time": 2819, "pitch": 78, "duration": 2, "velocity": 90}, {"time": 2825, "pitch": 78, "duration": 3, "velocity": 98}, {"time": 2837, "pitch": 71, "duration": 5, "velocity": 104}, {"time": 2849, "pitch": 71, "duration": 4, "velocity": 104}, {"time": 2861, "pitch": 66, "duration": 13, "velocity": 93}, {"time": 2873, "pitch": 69, "duration": 11, "velocity": 84}, {"time": 2885, "pitch": 71, "duration": 11, "velocity": 86}, {"time": 2897, "pitch": 69, "duration": 6, "velocity": 95}, {"time": 2903, "pitch": 68, "duration": 6, "velocity": 90}, {"time": 2909, "pitch": 66, "duration": 9, "velocity": 84}, {"time": 2921, "pitch": 69, "duration": 10, "velocity": 93}, {"time": 2933, "pitch": 71, "duration": 35, "velocity": 90}, {"time": 2969, "pitch": 69, "duration": 5, "velocity": 84}, {"time": 2975, "pitch": 68, "duration": 6, "velocity": 81}, {"time": 2981, "pitch": 66, "duration": 9, "velocity": 84}, {"time": 2993, "pitch": 69, "duration": 2, "velocity": 73}, {"time": 3005, "pitch": 69, "duration": 10, "velocity": 83}, {"time": 3017, "pitch": 68, "duration": 6, "velocity": 79}, {"time": 3029, "pitch": 66, "duration": 10, "velocity": 84}, {"time": 3041, "pitch": 66, "duration": 4, "velocity": 93}, {"time": 3047, "pitch": 69, "duration": 2, "velocity": 90}, {"time": 3053, "pitch": 66, "duration": 3, "velocity": 69}, {"time": 3053, "pitch": 69, "duration": 3, "velocity": 91}, {"time": 3056, "pitch": 68, "duration": 2, "velocity": 73}, {"time": 3059, "pitch": 68, "duration": 2, "velocity": 87}, {"time": 3059, "pitch": 69, "duration": 2, "velocity": 80}, {"time": 3062, "pitch": 71, "duration": 2, "velocity": 87}, {"time": 3065, "pitch": 66, "duration": 7, "velocity": 87}, {"time": 3065, "pitch": 73, "duration": 2, "velocity": 87}, {"time": 3068, "pitch": 75, "duration": 3, "velocity": 87}, {"time": 3071, "pitch": 76, "duration": 1, "velocity": 87}, {"time": 3074, "pitch": 77, "duration": 2, "velocity": 87}, {"time": 3077, "pitch": 66, "duration": 8, "velocity": 87}, {"time": 3077, "pitch": 78, "duration": 10, "velocity": 87}, {"time": 3089, "pitch": 69, "duration": 9, "velocity": 98}, {"time": 3101, "pitch": 71, "duration": 8, "velocity": 91}, {"time": 3113, "pitch": 69, "duration": 5, "velocity": 83}, {"time": 3119, "pitch": 66, "duration": 4, "velocity": 98}, {"time": 3125, "pitch": 64, "duration": 7, "velocity": 90}, {"time": 3137, "pitch": 66, "duration": 11, "velocity": 95}, {"time": 3149, "pitch": 62, "duration": 9, "velocity": 94}, {"time": 3161, "pitch": 64, "duration": 9, "velocity": 90}, {"time": 3173, "pitch": 66, "duration": 11, "velocity": 86}, {"time": 3185, "pitch": 69, "duration": 13, "velocity": 90}, {"time": 3197, "pitch": 62, "duration": 13, "velocity": 98}, {"time": 3209, "pitch": 64, "duration": 13, "velocity": 90}, {"time": 3221, "pitch": 66, "duration": 11, "velocity": 90}, {"time": 3233, "pitch": 64, "duration": 5, "velocity": 84}, {"time": 3239, "pitch": 62, "duration": 6, "velocity": 84}, {"time": 3245, "pitch": 61, "duration": 11, "velocity": 90}, {"time": 3269, "pitch": 59, "duration": 6, "velocity": 90}, {"time": 3269, "pitch": 59, "duration": 6, "velocity": 100}, {"time": 3269, "pitch": 71, "duration": 12, "velocity": 100}, {"time": 3281, "pitch": 66, "duration": 12, "velocity": 90}, {"time": 3281, "pitch": 78, "duration": 12, "velocity": 90}, {"time": 3293, "pitch": 59, "duration": 6, "velocity": 104}, {"time": 3293, "pitch": 71, "duration": 6, "velocity": 104}, {"time": 3299, "pitch": 66, "duration": 6, "velocity": 90}, {"time": 3299, "pitch": 78, "duration": 6, "velocity": 90}, {"time": 3305, "pitch": 66, "duration": 12, "velocity": 95}, {"time": 3305, "pitch": 78, "duration": 12, "velocity": 95}, {"time": 3317, "pitch": 59, "duration": 6, "velocity": 104}, {"time": 3317, "pitch": 71, "duration": 6, "velocity": 104}, {"time": 3329, "pitch": 59, "duration": 5, "velocity": 101}, {"time": 3329, "pitch": 71, "duration": 5, "velocity": 101}, {"time": 3521, "pitch": 66, "duration": 6, "velocity": 100}, {"time": 3527, "pitch": 69, "duration": 6, "velocity": 90}, {"time": 3533, "pitch": 71, "duration": 6, "velocity": 93}, {"time": 3539, "pitch": 71, "duration": 6, "velocity": 82}, {"time": 3545, "pitch": 73, "duration": 6, "velocity": 95}, {"time": 3551, "pitch": 76, "duration": 6, "velocity": 93}, {"time": 3557, "pitch": 78, "duration": 36, "velocity": 93}, {"time": 3593, "pitch": 78, "duration": 6, "velocity": 86}, {"time": 3599, "pitch": 74, "duration": 6, "velocity": 95}, {"time": 3605, "pitch": 76, "duration": 36, "velocity": 100}, {"time": 3641, "pitch": 76, "duration": 6, "velocity": 91}, {"time": 3647, "pitch": 73, "duration": 6, "velocity": 94}, {"time": 3653, "pitch": 74, "duration": 48, "velocity": 98}, {"time": 3701, "pitch": 73, "duration": 48, "velocity": 101}, {"time": 3749, "pitch": 71, "duration": 6, "velocity": 95}, {"time": 3761, "pitch": 78, "duration": 7, "velocity": 98}, {"time": 3773, "pitch": 71, "duration": 3, "velocity": 98}, {"time": 3779, "pitch": 78, "duration": 2, "velocity": 86}, {"time": 3785, "pitch": 66, "duration": 3, "velocity": 86}, {"time": 3785, "pitch": 78, "duration": 3, "velocity": 86}, {"time": 3788, "pitch": 64, "duration": 3, "velocity": 79}, {"time": 3791, "pitch": 62, "duration": 2, "velocity": 79}, {"time": 3794, "pitch": 61, "duration": 4, "velocity": 66}, {"time": 3797, "pitch": 59, "duration": 17, "velocity": 68}, {"time": 3797, "pitch": 71, "duration": 4, "velocity": 68}, {"time": 3809, "pitch": 78, "duration": 2, "velocity": 90}, {"time": 3815, "pitch": 78, "duration": 2, "velocity": 91}, {"time": 3821, "pitch": 71, "duration": 2, "velocity": 93}, {"time": 3827, "pitch": 59, "duration": 2, "velocity": 67}, {"time": 3827, "pitch": 78, "duration": 2, "velocity": 91}, {"time": 3830, "pitch": 61, "duration": 3, "velocity": 74}, {"time": 3833, "pitch": 62, "duration": 3, "velocity": 82}, {"time": 3833, "pitch": 78, "duration": 2, "velocity": 82}, {"time": 3836, "pitch": 61, "duration": 3, "velocity": 86}, {"time": 3839, "pitch": 62, "duration": 3, "velocity": 91}, {"time": 3842, "pitch": 64, "duration": 1, "velocity": 95}, {"time": 3845, "pitch": 66, "duration": 18, "velocity": 109}, {"time": 3845, "pitch": 90, "duration": 48, "velocity": 77}, {"time": 3893, "pitch": 88, "duration": 49, "velocity": 77}, {"time": 3941, "pitch": 86, "duration": 51, "velocity": 82}, {"time": 3989, "pitch": 90, "duration": 48, "velocity": 74}, {"time": 4037, "pitch": 95, "duration": 90, "velocity": 74}, {"time": 4049, "pitch": 78, "duration": 7, "velocity": 98}, {"time": 4061, "pitch": 71, "duration": 3, "velocity": 98}, {"time": 4067, "pitch": 78, "duration": 2, "velocity": 86}, {"time": 4073, "pitch": 66, "duration": 3, "velocity": 86}, {"time": 4073, "pitch": 78, "duration": 3, "velocity": 91}, {"time": 4076, "pitch": 64, "duration": 3, "velocity": 79}, {"time": 4079, "pitch": 62, "duration": 2, "velocity": 79}, {"time": 4082, "pitch": 61, "duration": 4, "velocity": 66}, {"time": 4085, "pitch": 59, "duration": 17, "velocity": 68}, {"time": 4085, "pitch": 71, "duration": 4, "velocity": 93}, {"time": 4097, "pitch": 78, "duration": 2, "velocity": 90}, {"time": 4103, "pitch": 78, "duration": 2, "velocity": 91}, {"time": 4109, "pitch": 71, "duration": 2, "velocity": 93}, {"time": 4115, "pitch": 59, "duration": 2, "velocity": 67}, {"time": 4115, "pitch": 78, "duration": 2, "velocity": 91}, {"time": 4118, "pitch": 61, "duration": 3, "velocity": 74}, {"time": 4121, "pitch": 62, "duration": 3, "velocity": 82}, {"time": 4121, "pitch": 78, "duration": 2, "velocity": 98}, {"time": 4124, "pitch": 61, "duration": 3, "velocity": 86}, {"time": 4127, "pitch": 62, "duration": 3, "velocity": 91}, {"time": 4130, "pitch": 64, "duration": 1, "velocity": 95}, {"time": 4133, "pitch": 66, "duration": 18, "velocity": 109}, {"time": 4133, "pitch": 90, "duration": 48, "velocity": 77}, {"time": 4181, "pitch": 88, "duration": 49, "velocity": 77}, {"time": 4229, "pitch": 93, "duration": 48, "velocity": 82}, {"time": 4277, "pitch": 90, "duration": 48, "velocity": 74}, {"time": 4325, "pitch": 95, "duration": 90, "velocity": 74}, {"time": 4337, "pitch": 78, "duration": 7, "velocity": 98}, {"time": 4349, "pitch": 71, "duration": 3, "velocity": 98}, {"time": 4355, "pitch": 78, "duration": 2, "velocity": 86}, {"time": 4361, "pitch": 66, "duration": 3, "velocity": 86}, {"time": 4361, "pitch": 78, "duration": 3, "velocity": 91}, {"time": 4364, "pitch": 64, "duration": 3, "velocity": 79}, {"time": 4367, "pitch": 62, "duration": 2, "velocity": 79}, {"time": 4370, "pitch": 61, "duration": 4, "velocity": 66}, {"time": 4373, "pitch": 59, "duration": 17, "velocity": 68}, {"time": 4373, "pitch": 71, "duration": 4, "velocity": 93}, {"time": 4385, "pitch": 78, "duration": 2, "velocity": 90}, {"time": 4391, "pitch": 78, "duration": 2, "velocity": 91}, {"time": 4397, "pitch": 71, "duration": 2, "velocity": 93}, {"time": 4403, "pitch": 59, "duration": 2, "velocity": 67}, {"time": 4403, "pitch": 78, "duration": 2, "velocity": 91}, {"time": 4406, "pitch": 61, "duration": 3, "velocity": 74}, {"time": 4409, "pitch": 62, "duration": 3, "velocity": 82}, {"time": 4409, "pitch": 78, "duration": 2, "velocity": 98}, {"time": 4412, "pitch": 61, "duration": 3, "velocity": 86}, {"time": 4415, "pitch": 62, "duration": 3, "velocity": 91}, {"time": 4418, "pitch": 64, "duration": 1, "velocity": 95}, {"time": 4421, "pitch": 66, "duration": 18, "velocity": 109}, {"time": 4421, "pitch": 90, "duration": 48, "velocity": 77}, {"time": 4469, "pitch": 88, "duration": 49, "velocity": 77}, {"time": 4517, "pitch": 93, "duration": 48, "velocity": 82}, {"time": 4565, "pitch": 90, "duration": 48, "velocity": 74}, {"time": 4613, "pitch": 95, "duration": 90, "velocity": 74}, {"time": 4625, "pitch": 78, "duration": 7, "velocity": 98}, {"time": 4637, "pitch": 71, "duration": 3, "velocity": 98}, {"time": 4643, "pitch": 78, "duration": 2, "velocity": 86}, {"time": 4649, "pitch": 66, "duration": 3, "velocity": 59}, {"time": 4649, "pitch": 78, "duration": 3, "velocity": 91}, {"time": 4652, "pitch": 64, "duration": 3, "velocity": 60}, {"time": 4655, "pitch": 62, "duration": 2, "velocity": 56}, {"time": 4658, "pitch": 61, "duration": 4, "velocity": 43}, {"time": 4661, "pitch": 59, "duration": 17, "velocity": 40}, {"time": 4661, "pitch": 71, "duration": 4, "velocity": 93}, {"time": 4673, "pitch": 78, "duration": 2, "velocity": 90}, {"time": 4679, "pitch": 78, "duration": 2, "velocity": 91}, {"time": 4685, "pitch": 71, "duration": 2, "velocity": 93}, {"time": 4691, "pitch": 59, "duration": 2, "velocity": 67}, {"time": 4691, "pitch": 78, "duration": 2, "velocity": 91}, {"time": 4694, "pitch": 61, "duration": 3, "velocity": 44}, {"time": 4697, "pitch": 62, "duration": 3, "velocity": 45}, {"time": 4697, "pitch": 78, "duration": 2, "velocity": 98}, {"time": 4700, "pitch": 61, "duration": 3, "velocity": 49}, {"time": 4703, "pitch": 62, "duration": 3, "velocity": 52}, {"time": 4706, "pitch": 64, "duration": 1, "velocity": 55}, {"time": 4709, "pitch": 47, "duration": 31, "velocity": 80}, {"time": 4709, "pitch": 59, "duration": 30, "velocity": 68}, {"time": 4709, "pitch": 62, "duration": 30, "velocity": 76}, {"time": 4709, "pitch": 66, "duration": 18, "velocity": 68}, {"time": 4709, "pitch": 66, "duration": 18, "velocity": 84}, {"time": 4709, "pitch": 71, "duration": 33, "velocity": 76}, {"time": 4709, "pitch": 90, "duration": 48, "velocity": 69}, {"time": 4757, "pitch": 88, "duration": 47, "velocity": 45}], "annotations": [{"time": 281, "annotation": {"number": 64, "value": 127}, "group": "control_change"}, {"time": 305, "annotation": {"number": 64, "value": 127}, "group": "control_change"}, {"time": 311, "annotation": {"number": 64, "value": 0}, "group": "control_change"}, {"time": 319, "annotation": {"number": 64, "value": 127}, "group": "control_change"}, {"time": 331, "annotation": {"number": 64, "value": 0}, "group": "control_change"}, {"time": 332, "annotation": {"number": 64, "value": 127}, "group": "control_change"}, {"time": 332, "annotation": {"number": 64, "value": 0}, "group": "control_change"}, {"time": 345, "annotation": {"number": 64, "value": 0}, "group": "control_change"}, {"time": 378, "annotation": {"number": 64, "value": 127}, "group": "control_change"}, {"time": 378, "annotation": {"number": 64, "value": 0}, "group": "control_change"}, {"time": 391, "annotation": {"number": 64, "value": 0}, "group": "control_change"}, {"time": 401, "annotation": {"number": 64, "value": 127}, "group": "control_change"}, {"time": 401, "annotation": {"number": 64, "value": 0}, "group": "control_change"}, {"time": 402, "annotation": {"number": 64, "value": 127}, "group": "control_change"}, {"time": 437, "annotation": {"number": 64, "value": 127}, "group": "control_change"}, {"time": 437, "annotation": {"number": 64, "value": 0}, "group": "control_change"}, {"time": 461, "annotation": {"number": 64, "value": 0}, "group": "control_change"}, {"time": 1673, "annotation": {"number": 64, "value": 127}, "group": "control_change"}, {"time": 1697, "annotation": {"number": 64, "value": 127}, "group": "control_change"}, {"time": 1703, "annotation": {"number": 64, "value": 0}, "group": "control_change"}, {"time": 1711, "annotation": {"number": 64, "value": 127}, "group": "control_change"}, {"time": 1723, "annotation": {"number": 64, "value": 0}, "group": "control_change"}, {"time": 1724, "annotation": {"number": 64, "value": 127}, "group": "control_change"}, {"time": 1724, "annotation": {"number": 64, "value": 0}, "group": "control_change"}, {"time": 1737, "annotation": {"number": 64, "value": 0}, "group": "control_change"}, {"time": 1770, "annotation": {"number": 64, "value": 127}, "group": "control_change"}, {"time": 1770, "annotation": {"number": 64, "value": 0}, "group": "control_change"}, {"time": 1783, "annotation": {"number": 64, "value": 0}, "group": "control_change"}, {"time": 1793, "annotation": {"number": 64, "value": 127}, "group": "control_change"}, {"time": 1793, "annotation": {"number": 64, "value": 0}, "group": "control_change"}, {"time": 1794, "annotation": {"number": 64, "value": 127}, "group": "control_change"}, {"time": 1829, "annotation": {"number": 64, "value": 127}, "group": "control_change"}, {"time": 1829, "annotation": {"number": 64, "value": 0}, "group": "control_change"}, {"time": 1853, "annotation": {"number": 64, "value": 0}, "group": "control_change"}, {"time": 2788, "annotation": {"number": 64, "value": 127}, "group": "control_change"}, {"time": 2814, "annotation": {"number": 64, "value": 0}, "group": "control_change"}, {"time": 2818, "annotation": {"number": 64, "value": 127}, "group": "control_change"}, {"time": 2838, "annotation": {"number": 64, "value": 0}, "group": "control_change"}, {"time": 2848, "annotation": {"number": 64, "value": 127}, "group": "control_change"}, {"time": 2856, "annotation": {"number": 64, "value": 0}, "group": "control_change"}, {"time": 4710, "annotation": {"number": 64, "value": 127}, "group": "control_change"}]}, {"program": 0, "is_drum": false, "name": "PIANO", "notes": [{"time": 101, "pitch": 47, "duration": 18, "velocity": 80}, {"time": 101, "pitch": 59, "duration": 19, "velocity": 81}, {"time": 113, "pitch": 62, "duration": 2, "velocity": 79}, {"time": 113, "pitch": 66, "duration": 2, "velocity": 78}, {"time": 113, "pitch": 71, "duration": 3, "velocity": 82}, {"time": 125, "pitch": 47, "duration": 15, "velocity": 83}, {"time": 125, "pitch": 59, "duration": 17, "velocity": 82}, {"time": 137, "pitch": 62, "duration": 14, "velocity": 84}, {"time": 137, "pitch": 66, "duration": 14, "velocity": 84}, {"time": 137, "pitch": 71, "duration": 14, "velocity": 80}, {"time": 149, "pitch": 47, "duration": 19, "velocity": 84}, {"time": 149, "pitch": 59, "duration": 19, "velocity": 90}, {"time": 161, "pitch": 62, "duration": 2, "velocity": 84}, {"time": 161, "pitch": 66, "duration": 2, "velocity": 84}, {"time": 161, "pitch": 71, "duration": 2, "velocity": 80}, {"time": 167, "pitch": 62, "duration": 7, "velocity": 84}, {"time": 167, "pitch": 66, "duration": 8, "velocity": 84}, {"time": 167, "pitch": 71, "duration": 8, "velocity": 80}, {"time": 173, "pitch": 47, "duration": 14, "velocity": 90}, {"time": 173, "pitch": 59, "duration": 15, "velocity": 84}, {"time": 179, "pitch": 62, "duration": 2, "velocity": 83}, {"time": 179, "pitch": 66, "duration": 2, "velocity": 82}, {"time": 179, "pitch": 71, "duration": 2, "velocity": 79}, {"time": 185, "pitch": 62, "duration": 15, "velocity": 84}, {"time": 185, "pitch": 66, "duration": 15, "velocity": 84}, {"time": 185, "pitch": 71, "duration": 14, "velocity": 83}, {"time": 191, "pitch": 54, "duration": 6, "velocity": 84}, {"time": 197, "pitch": 47, "duration": 14, "velocity": 91}, {"time": 197, "pitch": 59, "duration": 15, "velocity": 84}, {"time": 209, "pitch": 62, "duration": 14, "velocity": 84}, {"time": 209, "pitch": 66, "duration": 14, "velocity": 82}, {"time": 209, "pitch": 71, "duration": 14, "velocity": 82}, {"time": 221, "pitch": 47, "duration": 15, "velocity": 84}, {"time": 221, "pitch": 59, "duration": 15, "velocity": 86}, {"time": 233, "pitch": 62, "duration": 14, "velocity": 83}, {"time": 233, "pitch": 66, "duration": 14, "velocity": 80}, {"time": 233, "pitch": 71, "duration": 14, "velocity": 82}, {"time": 239, "pitch": 47, "duration": 2, "velocity": 84}, {"time": 239, "pitch": 59, "duration": 1, "velocity": 67}, {"time": 245, "pitch": 45, "duration": 19, "velocity": 93}, {"time": 245, "pitch": 57, "duration": 19, "velocity": 83}, {"time": 257, "pitch": 61, "duration": 2, "velocity": 84}, {"time": 257, "pitch": 64, "duration": 2, "velocity": 84}, {"time": 257, "pitch": 69, "duration": 2, "velocity": 83}, {"time": 263, "pitch": 61, "duration": 8, "velocity": 82}, {"time": 263, "pitch": 64, "duration": 7, "velocity": 83}, {"time": 263, "pitch": 69, "duration": 7, "velocity": 83}, {"time": 269, "pitch": 45, "duration": 14, "velocity": 86}, {"time": 269, "pitch": 57, "duration": 15, "velocity": 83}, {"time": 275, "pitch": 61, "duration": 2, "velocity": 81}, {"time": 275, "pitch": 64, "duration": 2, "velocity": 83}, {"time": 275, "pitch": 69, "duration": 2, "velocity": 83}, {"time": 281, "pitch": 61, "duration": 6, "velocity": 86}, {"time": 281, "pitch": 64, "duration": 5, "velocity": 84}, {"time": 281, "pitch": 69, "duration": 6, "velocity": 86}, {"time": 293, "pitch": 38, "duration": 37, "velocity": 101}, {"time": 293, "pitch": 50, "duration": 43, "velocity": 86}, {"time": 293, "pitch": 57, "duration": 41, "velocity": 86}, {"time": 293, "pitch": 62, "duration": 40, "velocity": 90}, {"time": 293, "pitch": 66, "duration": 41, "velocity": 84}, {"time": 335, "pitch": 49, "duration": 7, "velocity": 86}, {"time": 335, "pitch": 57, "duration": 4, "velocity": 43}, {"time": 335, "pitch": 64, "duration": 5, "velocity": 84}, {"time": 341, "pitch": 47, "duration": 19, "velocity": 93}, {"time": 341, "pitch": 57, "duration": 20, "velocity": 82}, {"time": 341, "pitch": 62, "duration": 18, "velocity": 84}, {"time": 341, "pitch": 66, "duration": 23, "velocity": 83}, {"time": 341, "pitch": 69, "duration": 17, "velocity": 78}, {"time": 365, "pitch": 45, "duration": 15, "velocity": 86}, {"time": 365, "pitch": 57, "duration": 15, "velocity": 79}, {"time": 365, "pitch": 61, "duration": 15, "velocity": 84}, {"time": 365, "pitch": 64, "duration": 15, "velocity": 91}, {"time": 365, "pitch": 69, "duration": 15, "velocity": 84}, {"time": 389, "pitch": 50, "duration": 19, "velocity": 78}, {"time": 389, "pitch": 57, "duration": 17, "velocity": 82}, {"time": 389, "pitch": 62, "duration": 17, "velocity": 84}, {"time": 389, "pitch": 66, "duration": 18, "velocity": 86}, {"time": 389, "pitch": 69, "duration": 17, "velocity": 76}, {"time": 413, "pitch": 49, "duration": 15, "velocity": 86}, {"time": 413, "pitch": 61, "duration": 15, "velocity": 90}, {"time": 413, "pitch": 64, "duration": 15, "velocity": 91}, {"time": 413, "pitch": 69, "duration": 15, "velocity": 91}, {"time": 437, "pitch": 47, "duration": 19, "velocity": 84}, {"time": 437, "pitch": 59, "duration": 19, "velocity": 84}, {"time": 449, "pitch": 62, "duration": 2, "velocity": 83}, {"time": 449, "pitch": 66, "duration": 2, "velocity": 79}, {"time": 449, "pitch": 71, "duration": 2, "velocity": 82}, {"time": 455, "pitch": 62, "duration": 8, "velocity": 86}, {"time": 455, "pitch": 66, "duration": 8, "velocity": 86}, {"time": 455, "pitch": 71, "duration": 8, "velocity": 82}, {"time": 461, "pitch": 54, "duration": 16, "velocity": 90}, {"time": 467, "pitch": 62, "duration": 2, "velocity": 86}, {"time": 467, "pitch": 66, "duration": 2, "velocity": 84}, {"time": 467, "pitch": 71, "duration": 2, "velocity": 82}, {"time": 473, "pitch": 62, "duration": 4, "velocity": 90}, {"time": 473, "pitch": 66, "duration": 4, "velocity": 90}, {"time": 473, "pitch": 71, "duration": 4, "velocity": 83}, {"time": 485, "pitch": 47, "duration": 7, "velocity": 98}, {"time": 485, "pitch": 59, "duration": 7, "velocity": 90}, {"time": 485, "pitch": 62, "duration": 6, "velocity": 95}, {"time": 485, "pitch": 66, "duration": 6, "velocity": 93}, {"time": 485, "pitch": 71, "duration": 6, "velocity": 91}, {"time": 497, "pitch": 47, "duration": 7, "velocity": 90}, {"time": 497, "pitch": 59, "duration": 7, "velocity": 91}, {"time": 497, "pitch": 62, "duration": 7, "velocity": 96}, {"time": 497, "pitch": 66, "duration": 6, "velocity": 94}, {"time": 497, "pitch": 71, "duration": 7, "velocity": 86}, {"time": 533, "pitch": 47, "duration": 19, "velocity": 78}, {"time": 533, "pitch": 59, "duration": 19, "velocity": 86}, {"time": 545, "pitch": 62, "duration": 2, "velocity": 84}, {"time": 545, "pitch": 66, "duration": 2, "velocity": 78}, {"time": 545, "pitch": 71, "duration": 2, "velocity": 80}, {"time": 551, "pitch": 62, "duration": 8, "velocity": 84}, {"time": 551, "pitch": 66, "duration": 8, "velocity": 84}, {"time": 551, "pitch": 71, "duration": 9, "velocity": 83}, {"time": 557, "pitch": 54, "duration": 15, "velocity": 83}, {"time": 569, "pitch": 62, "duration": 13, "velocity": 80}, {"time": 569, "pitch": 66, "duration": 13, "velocity": 82}, {"time": 569, "pitch": 71, "duration": 12, "velocity": 82}, {"time": 575, "pitch": 54, "duration": 6, "velocity": 78}, {"time": 581, "pitch": 47, "duration": 21, "velocity": 86}, {"time": 581, "pitch": 59, "duration": 21, "velocity": 83}, {"time": 593, "pitch": 62, "duration": 2, "velocity": 78}, {"time": 593, "pitch": 66, "duration": 2, "velocity": 75}, {"time": 593, "pitch": 71, "duration": 2, "velocity": 77}, {"time": 599, "pitch": 62, "duration": 9, "velocity": 83}, {"time": 599, "pitch": 66, "duration": 9, "velocity": 80}, {"time": 599, "pitch": 71, "duration": 9, "velocity": 80}, {"time": 605, "pitch": 54, "duration": 16, "velocity": 90}, {"time": 611, "pitch": 62, "duration": 2, "velocity": 78}, {"time": 611, "pitch": 66, "duration": 2, "velocity": 76}, {"time": 611, "pitch": 71, "duration": 2, "velocity": 80}, {"time": 617, "pitch": 62, "duration": 15, "velocity": 82}, {"time": 617, "pitch": 66, "duration": 14, "velocity": 80}, {"time": 617, "pitch": 71, "duration": 14, "velocity": 80}, {"time": 629, "pitch": 42, "duration": 20, "velocity": 84}, {"time": 629, "pitch": 54, "duration": 21, "velocity": 83}, {"time": 641, "pitch": 66, "duration": 2, "velocity": 81}, {"time": 641, "pitch": 69, "duration": 2, "velocity": 81}, {"time": 641, "pitch": 73, "duration": 2, "velocity": 84}, {"time": 647, "pitch": 66, "duration": 11, "velocity": 82}, {"time": 647, "pitch": 69, "duration": 12, "velocity": 83}, {"time": 647, "pitch": 73, "duration": 9, "velocity": 84}, {"time": 653, "pitch": 49, "duration": 24, "velocity": 90}, {"time": 665, "pitch": 66, "duration": 2, "velocity": 81}, {"time": 665, "pitch": 69, "duration": 2, "velocity": 78}, {"time": 665, "pitch": 73, "duration": 2, "velocity": 80}, {"time": 671, "pitch": 66, "duration": 10, "velocity": 78}, {"time": 671, "pitch": 69, "duration": 11, "velocity": 80}, {"time": 671, "pitch": 73, "duration": 9, "velocity": 82}, {"time": 677, "pitch": 42, "duration": 21, "velocity": 84}, {"time": 677, "pitch": 54, "duration": 22, "velocity": 83}, {"time": 689, "pitch": 64, "duration": 3, "velocity": 57}, {"time": 689, "pitch": 69, "duration": 3, "velocity": 68}, {"time": 689, "pitch": 73, "duration": 2, "velocity": 61}, {"time": 695, "pitch": 64, "duration": 8, "velocity": 63}, {"time": 695, "pitch": 69, "duration": 8, "velocity": 69}, {"time": 695, "pitch": 73, "duration": 7, "velocity": 75}, {"time": 701, "pitch": 49, "duration": 16, "velocity": 90}, {"time": 707, "pitch": 64, "duration": 2, "velocity": 80}, {"time": 707, "pitch": 69, "duration": 2, "velocity": 79}, {"time": 707, "pitch": 73, "duration": 2, "velocity": 82}, {"time": 713, "pitch": 64, "duration": 13, "velocity": 80}, {"time": 713, "pitch": 69, "duration": 14, "velocity": 82}, {"time": 713, "pitch": 73, "duration": 12, "velocity": 81}, {"time": 719, "pitch": 54, "duration": 3, "velocity": 84}, {"time": 725, "pitch": 47, "duration": 21, "velocity": 84}, {"time": 737, "pitch": 62, "duration": 2, "velocity": 82}, {"time": 737, "pitch": 66, "duration": 2, "velocity": 75}, {"time": 737, "pitch": 71, "duration": 2, "velocity": 78}, {"time": 743, "pitch": 62, "duration": 8, "velocity": 82}, {"time": 743, "pitch": 66, "duration": 7, "velocity": 78}, {"time": 743, "pitch": 71, "duration": 7, "velocity": 80}, {"time": 749, "pitch": 54, "duration": 16, "velocity": 84}, {"time": 761, "pitch": 62, "duration": 15, "velocity": 83}, {"time": 761, "pitch": 66, "duration": 15, "velocity": 84}, {"time": 761, "pitch": 71, "duration": 14, "velocity": 80}, {"time": 767, "pitch": 54, "duration": 4, "velocity": 80}, {"time": 773, "pitch": 45, "duration": 20, "velocity": 86}, {"time": 773, "pitch": 57, "duration": 20, "velocity": 84}, {"time": 785, "pitch": 64, "duration": 2, "velocity": 83}, {"time": 785, "pitch": 69, "duration": 2, "velocity": 82}, {"time": 785, "pitch": 73, "duration": 2, "velocity": 82}, {"time": 791, "pitch": 64, "duration": 14, "velocity": 84}, {"time": 791, "pitch": 69, "duration": 14, "velocity": 83}, {"time": 791, "pitch": 73, "duration": 13, "velocity": 86}, {"time": 797, "pitch": 52, "duration": 15, "velocity": 91}, {"time": 809, "pitch": 64, "duration": 9, "velocity": 84}, {"time": 809, "pitch": 69, "duration": 9, "velocity": 83}, {"time": 809, "pitch": 73, "duration": 8, "velocity": 83}, {"time": 821, "pitch": 50, "duration": 22, "velocity": 84}, {"time": 821, "pitch": 62, "duration": 19, "velocity": 84}, {"time": 833, "pitch": 66, "duration": 2, "velocity": 84}, {"time": 833, "pitch": 69, "duration": 2, "velocity": 82}, {"time": 833, "pitch": 74, "duration": 2, "velocity": 84}, {"time": 839, "pitch": 66, "duration": 7, "velocity": 90}, {"time": 839, "pitch": 69, "duration": 7, "velocity": 86}, {"time": 839, "pitch": 74, "duration": 7, "velocity": 86}, {"time": 845, "pitch": 57, "duration": 13, "velocity": 84}, {"time": 857, "pitch": 66, "duration": 14, "velocity": 86}, {"time": 857, "pitch": 69, "duration": 14, "velocity": 84}, {"time": 857, "pitch": 74, "duration": 14, "velocity": 86}, {"time": 869, "pitch": 42, "duration": 21, "velocity": 90}, {"time": 869, "pitch": 54, "duration": 21, "velocity": 96}, {"time": 881, "pitch": 66, "duration": 2, "velocity": 80}, {"time": 881, "pitch": 69, "duration": 2, "velocity": 77}, {"time": 881, "pitch": 73, "duration": 2, "velocity": 75}, {"time": 887, "pitch": 66, "duration": 14, "velocity": 84}, {"time": 887, "pitch": 69, "duration": 13, "velocity": 80}, {"time": 887, "pitch": 73, "duration": 10, "velocity": 80}, {"time": 893, "pitch": 49, "duration": 14, "velocity": 90}, {"time": 905, "pitch": 66, "duration": 6, "velocity": 83}, {"time": 905, "pitch": 69, "duration": 6, "velocity": 84}, {"time": 905, "pitch": 73, "duration": 6, "velocity": 81}, {"time": 917, "pitch": 47, "duration": 19, "velocity": 83}, {"time": 917, "pitch": 59, "duration": 19, "velocity": 83}, {"time": 929, "pitch": 62, "duration": 2, "velocity": 84}, {"time": 929, "pitch": 66, "duration": 2, "velocity": 80}, {"time": 929, "pitch": 71, "duration": 2, "velocity": 79}, {"time": 935, "pitch": 62, "duration": 3, "velocity": 86}, {"time": 935, "pitch": 66, "duration": 3, "velocity": 86}, {"time": 935, "pitch": 71, "duration": 3, "velocity": 82}, {"time": 941, "pitch": 54, "duration": 16, "velocity": 90}, {"time": 947, "pitch": 62, "duration": 2, "velocity": 93}, {"time": 947, "pitch": 66, "duration": 2, "velocity": 86}, {"time": 947, "pitch": 71, "duration": 2, "velocity": 84}, {"time": 953, "pitch": 62, "duration": 13, "velocity": 98}, {"time": 953, "pitch": 66, "duration": 13, "velocity": 90}, {"time": 953, "pitch": 71, "duration": 13, "velocity": 84}, {"time": 965, "pitch": 47, "duration": 7, "velocity": 95}, {"time": 965, "pitch": 59, "duration": 8, "velocity": 90}, {"time": 977, "pitch": 47, "duration": 5, "velocity": 93}, {"time": 977, "pitch": 59, "duration": 6, "velocity": 90}, {"time": 977, "pitch": 62, "duration": 5, "velocity": 96}, {"time": 977, "pitch": 66, "duration": 5, "velocity": 91}, {"time": 977, "pitch": 71, "duration": 6, "velocity": 86}, {"time": 1013, "pitch": 47, "duration": 19, "velocity": 86}, {"time": 1013, "pitch": 59, "duration": 19, "velocity": 82}, {"time": 1025, "pitch": 62, "duration": 2, "velocity": 91}, {"time": 1025, "pitch": 66, "duration": 2, "velocity": 82}, {"time": 1025, "pitch": 71, "duration": 2, "velocity": 82}, {"time": 1031, "pitch": 62, "duration": 6, "velocity": 86}, {"time": 1031, "pitch": 66, "duration": 6, "velocity": 86}, {"time": 1031, "pitch": 71, "duration": 6, "velocity": 82}, {"time": 1037, "pitch": 54, "duration": 17, "velocity": 90}, {"time": 1049, "pitch": 62, "duration": 12, "velocity": 84}, {"time": 1049, "pitch": 66, "duration": 13, "velocity": 82}, {"time": 1049, "pitch": 71, "duration": 14, "velocity": 83}, {"time": 1061, "pitch": 47, "duration": 15, "velocity": 86}, {"time": 1061, "pitch": 59, "duration": 17, "velocity": 78}, {"time": 1073, "pitch": 62, "duration": 2, "velocity": 78}, {"time": 1073, "pitch": 66, "duration": 2, "velocity": 73}, {"time": 1073, "pitch": 71, "duration": 2, "velocity": 78}, {"time": 1079, "pitch": 62, "duration": 8, "velocity": 84}, {"time": 1079, "pitch": 66, "duration": 7, "velocity": 84}, {"time": 1079, "pitch": 71, "duration": 7, "velocity": 83}, {"time": 1085, "pitch": 47, "duration": 16, "velocity": 93}, {"time": 1085, "pitch": 59, "duration": 15, "velocity": 90}, {"time": 1097, "pitch": 62, "duration": 15, "velocity": 86}, {"time": 1097, "pitch": 66, "duration": 14, "velocity": 84}, {"time": 1097, "pitch": 71, "duration": 14, "velocity": 84}, {"time": 1109, "pitch": 42, "duration": 20, "velocity": 86}, {"time": 1109, "pitch": 54, "duration": 21, "velocity": 84}, {"time": 1121, "pitch": 61, "duration": 2, "velocity": 84}, {"time": 1121, "pitch": 66, "duration": 2, "velocity": 81}, {"time": 1121, "pitch": 69, "duration": 2, "velocity": 82}, {"time": 1127, "pitch": 61, "duration": 9, "velocity": 86}, {"time": 1127, "pitch": 66, "duration": 9, "velocity": 84}, {"time": 1127, "pitch": 69, "duration": 9, "velocity": 80}, {"time": 1133, "pitch": 49, "duration": 17, "velocity": 91}, {"time": 1145, "pitch": 61, "duration": 14, "velocity": 84}, {"time": 1145, "pitch": 66, "duration": 16, "velocity": 93}, {"time": 1145, "pitch": 69, "duration": 12, "velocity": 81}, {"time": 1157, "pitch": 42, "duration": 20, "velocity": 84}, {"time": 1157, "pitch": 54, "duration": 20, "velocity": 95}, {"time": 1169, "pitch": 61, "duration": 2, "velocity": 78}, {"time": 1169, "pitch": 66, "duration": 2, "velocity": 84}, {"time": 1169, "pitch": 69, "duration": 2, "velocity": 73}, {"time": 1175, "pitch": 61, "duration": 8, "velocity": 84}, {"time": 1175, "pitch": 66, "duration": 8, "velocity": 86}, {"time": 1175, "pitch": 69, "duration": 8, "velocity": 81}, {"time": 1181, "pitch": 49, "duration": 16, "velocity": 93}, {"time": 1187, "pitch": 61, "duration": 2, "velocity": 75}, {"time": 1187, "pitch": 66, "duration": 2, "velocity": 80}, {"time": 1187, "pitch": 69, "duration": 2, "velocity": 73}, {"time": 1193, "pitch": 61, "duration": 12, "velocity": 81}, {"time": 1193, "pitch": 66, "duration": 13, "velocity": 84}, {"time": 1193, "pitch": 69, "duration": 14, "velocity": 76}, {"time": 1205, "pitch": 47, "duration": 20, "velocity": 62}, {"time": 1205, "pitch": 59, "duration": 20, "velocity": 91}, {"time": 1217, "pitch": 62, "duration": 2, "velocity": 86}, {"time": 1217, "pitch": 66, "duration": 2, "velocity": 83}, {"time": 1217, "pitch": 71, "duration": 2, "velocity": 82}, {"time": 1223, "pitch": 62, "duration": 8, "velocity": 86}, {"time": 1223, "pitch": 66, "duration": 9, "velocity": 83}, {"time": 1223, "pitch": 71, "duration": 9, "velocity": 82}, {"time": 1229, "pitch": 54, "duration": 20, "velocity": 86}, {"time": 1241, "pitch": 62, "duration": 12, "velocity": 90}, {"time": 1241, "pitch": 66, "duration": 13, "velocity": 86}, {"time": 1241, "pitch": 71, "duration": 13, "velocity": 82}, {"time": 1253, "pitch": 45, "duration": 21, "velocity": 83}, {"time": 1253, "pitch": 57, "duration": 21, "velocity": 90}, {"time": 1265, "pitch": 64, "duration": 2, "velocity": 78}, {"time": 1265, "pitch": 69, "duration": 2, "velocity": 73}, {"time": 1265, "pitch": 73, "duration": 2, "velocity": 83}, {"time": 1271, "pitch": 64, "duration": 11, "velocity": 79}, {"time": 1271, "pitch": 69, "duration": 14, "velocity": 78}, {"time": 1271, "pitch": 73, "duration": 13, "velocity": 82}, {"time": 1277, "pitch": 52, "duration": 14, "velocity": 86}, {"time": 1289, "pitch": 64, "duration": 10, "velocity": 83}, {"time": 1289, "pitch": 69, "duration": 13, "velocity": 86}, {"time": 1289, "pitch": 73, "duration": 11, "velocity": 84}, {"time": 1301, "pitch": 50, "duration": 20, "velocity": 84}, {"time": 1301, "pitch": 62, "duration": 20, "velocity": 96}, {"time": 1313, "pitch": 66, "duration": 2, "velocity": 81}, {"time": 1313, "pitch": 69, "duration": 2, "velocity": 72}, {"time": 1313, "pitch": 74, "duration": 2, "velocity": 86}, {"time": 1319, "pitch": 66, "duration": 10, "velocity": 83}, {"time": 1319, "pitch": 69, "duration": 10, "velocity": 79}, {"time": 1319, "pitch": 74, "duration": 10, "velocity": 86}, {"time": 1325, "pitch": 57, "duration": 15, "velocity": 86}, {"time": 1337, "pitch": 64, "duration": 13, "velocity": 84}, {"time": 1337, "pitch": 69, "duration": 13, "velocity": 86}, {"time": 1337, "pitch": 73, "duration": 12, "velocity": 83}, {"time": 1349, "pitch": 42, "duration": 19, "velocity": 90}, {"time": 1349, "pitch": 54, "duration": 19, "velocity": 96}, {"time": 1361, "pitch": 66, "duration": 2, "velocity": 83}, {"time": 1361, "pitch": 69, "duration": 2, "velocity": 78}, {"time": 1361, "pitch": 73, "duration": 2, "velocity": 76}, {"time": 1367, "pitch": 66, "duration": 14, "velocity": 83}, {"time": 1367, "pitch": 69, "duration": 13, "velocity": 82}, {"time": 1367, "pitch": 73, "duration": 13, "velocity": 81}, {"time": 1373, "pitch": 49, "duration": 14, "velocity": 93}, {"time": 1385, "pitch": 66, "duration": 12, "velocity": 84}, {"time": 1385, "pitch": 69, "duration": 11, "velocity": 90}, {"time": 1385, "pitch": 73, "duration": 12, "velocity": 84}, {"time": 1397, "pitch": 47, "duration": 20, "velocity": 86}, {"time": 1397, "pitch": 59, "duration": 20, "velocity": 90}, {"time": 1409, "pitch": 62, "duration": 2, "velocity": 84}, {"time": 1409, "pitch": 66, "duration": 2, "velocity": 84}, {"time": 1409, "pitch": 71, "duration": 2, "velocity": 82}, {"time": 1415, "pitch": 62, "duration": 8, "velocity": 91}, {"time": 1415, "pitch": 66, "duration": 8, "velocity": 86}, {"time": 1415, "pitch": 71, "duration": 7, "velocity": 83}, {"time": 1421, "pitch": 54, "duration": 17, "velocity": 91}, {"time": 1433, "pitch": 62, "duration": 7, "velocity": 99}, {"time": 1433, "pitch": 66, "duration": 7, "velocity": 91}, {"time": 1433, "pitch": 71, "duration": 7, "velocity": 86}, {"time": 1445, "pitch": 47, "duration": 5, "velocity": 86}, {"time": 1445, "pitch": 59, "duration": 5, "velocity": 86}, {"time": 1457, "pitch": 47, "duration": 7, "velocity": 86}, {"time": 1457, "pitch": 59, "duration": 7, "velocity": 86}, {"time": 1457, "pitch": 62, "duration": 1, "velocity": 78}, {"time": 1457, "pitch": 66, "duration": 1, "velocity": 62}, {"time": 1457, "pitch": 71, "duration": 2, "velocity": 75}, {"time": 1463, "pitch": 62, "duration": 8, "velocity": 84}, {"time": 1463, "pitch": 66, "duration": 7, "velocity": 79}, {"time": 1463, "pitch": 71, "duration": 7, "velocity": 83}, {"time": 1469, "pitch": 54, "duration": 16, "velocity": 91}, {"time": 1475, "pitch": 62, "duration": 2, "velocity": 83}, {"time": 1475, "pitch": 66, "duration": 2, "velocity": 82}, {"time": 1475, "pitch": 71, "duration": 2, "velocity": 79}, {"time": 1481, "pitch": 62, "duration": 3, "velocity": 96}, {"time": 1481, "pitch": 66, "duration": 3, "velocity": 86}, {"time": 1481, "pitch": 71, "duration": 4, "velocity": 86}, {"time": 1493, "pitch": 47, "duration": 18, "velocity": 80}, {"time": 1493, "pitch": 59, "duration": 19, "velocity": 81}, {"time": 1505, "pitch": 62, "duration": 2, "velocity": 79}, {"time": 1505, "pitch": 66, "duration": 2, "velocity": 78}, {"time": 1505, "pitch": 71, "duration": 3, "velocity": 82}, {"time": 1517, "pitch": 47, "duration": 15, "velocity": 83}, {"time": 1517, "pitch": 59, "duration": 17, "velocity": 82}, {"time": 1529, "pitch": 62, "duration": 14, "velocity": 84}, {"time": 1529, "pitch": 66, "duration": 14, "velocity": 84}, {"time": 1529, "pitch": 71, "duration": 14, "velocity": 80}, {"time": 1541, "pitch": 47, "duration": 19, "velocity": 84}, {"time": 1541, "pitch": 59, "duration": 19, "velocity": 90}, {"time": 1553, "pitch": 62, "duration": 2, "velocity": 84}, {"time": 1553, "pitch": 66, "duration": 2, "velocity": 84}, {"time": 1553, "pitch": 71, "duration": 2, "velocity": 80}, {"time": 1559, "pitch": 62, "duration": 7, "velocity": 84}, {"time": 1559, "pitch": 66, "duration": 8, "velocity": 84}, {"time": 1559, "pitch": 71, "duration": 8, "velocity": 80}, {"time": 1565, "pitch": 47, "duration": 14, "velocity": 90}, {"time": 1565, "pitch": 59, "duration": 15, "velocity": 84}, {"time": 1571, "pitch": 62, "duration": 2, "velocity": 83}, {"time": 1571, "pitch": 66, "duration": 2, "velocity": 82}, {"time": 1571, "pitch": 71, "duration": 2, "velocity": 79}, {"time": 1577, "pitch": 62, "duration": 15, "velocity": 84}, {"time": 1577, "pitch": 66, "duration": 15, "velocity": 84}, {"time": 1577, "pitch": 71, "duration": 14, "velocity": 83}, {"time": 1583, "pitch": 54, "duration": 6, "velocity": 84}, {"time": 1589, "pitch": 47, "duration": 14, "velocity": 91}, {"time": 1589, "pitch": 59, "duration": 15, "velocity": 84}, {"time": 1601, "pitch": 62, "duration": 14, "velocity": 84}, {"time": 1601, "pitch": 66, "duration": 14, "velocity": 82}, {"time": 1601, "pitch": 71, "duration": 14, "velocity": 82}, {"time": 1613, "pitch": 47, "duration": 15, "velocity": 84}, {"time": 1613, "pitch": 59, "duration": 15, "velocity": 86}, {"time": 1625, "pitch": 62, "duration": 14, "velocity": 83}, {"time": 1625, "pitch": 66, "duration": 14, "velocity": 80}, {"time": 1625, "pitch": 71, "duration": 14, "velocity": 82}, {"time": 1631, "pitch": 47, "duration": 2, "velocity": 84}, {"time": 1631, "pitch": 59, "duration": 1, "velocity": 67}, {"time": 1637, "pitch": 45, "duration": 19, "velocity": 93}, {"time": 1637, "pitch": 57, "duration": 19, "velocity": 83}, {"time": 1649, "pitch": 61, "duration": 2, "velocity": 84}, {"time": 1649, "pitch": 64, "duration": 2, "velocity": 84}, {"time": 1649, "pitch": 69, "duration": 2, "velocity": 83}, {"time": 1655, "pitch": 61, "duration": 8, "velocity": 82}, {"time": 1655, "pitch": 64, "duration": 7, "velocity": 83}, {"time": 1655, "pitch": 69, "duration": 7, "velocity": 83}, {"time": 1661, "pitch": 45, "duration": 14, "velocity": 86}, {"time": 1661, "pitch": 57, "duration": 15, "velocity": 83}, {"time": 1667, "pitch": 61, "duration": 2, "velocity": 81}, {"time": 1667, "pitch": 64, "duration": 2, "velocity": 83}, {"time": 1667, "pitch": 69, "duration": 2, "velocity": 83}, {"time": 1673, "pitch": 61, "duration": 6, "velocity": 86}, {"time": 1673, "pitch": 64, "duration": 5, "velocity": 84}, {"time": 1673, "pitch": 69, "duration": 6, "velocity": 86}, {"time": 1685, "pitch": 38, "duration": 37, "velocity": 101}, {"time": 1685, "pitch": 50, "duration": 43, "velocity": 86}, {"time": 1685, "pitch": 57, "duration": 41, "velocity": 86}, {"time": 1685, "pitch": 62, "duration": 40, "velocity": 90}, {"time": 1685, "pitch": 66, "duration": 41, "velocity": 84}, {"time": 1727, "pitch": 49, "duration": 7, "velocity": 86}, {"time": 1727, "pitch": 57, "duration": 4, "velocity": 43}, {"time": 1727, "pitch": 64, "duration": 5, "velocity": 84}, {"time": 1733, "pitch": 47, "duration": 19, "velocity": 93}, {"time": 1733, "pitch": 57, "duration": 20, "velocity": 82}, {"time": 1733, "pitch": 62, "duration": 18, "velocity": 84}, {"time": 1733, "pitch": 66, "duration": 23, "velocity": 83}, {"time": 1733, "pitch": 69, "duration": 17, "velocity": 78}, {"time": 1757, "pitch": 45, "duration": 15, "velocity": 86}, {"time": 1757, "pitch": 57, "duration": 15, "velocity": 79}, {"time": 1757, "pitch": 61, "duration": 15, "velocity": 84}, {"time": 1757, "pitch": 64, "duration": 15, "velocity": 91}, {"time": 1757, "pitch": 69, "duration": 15, "velocity": 84}, {"time": 1781, "pitch": 50, "duration": 19, "velocity": 78}, {"time": 1781, "pitch": 57, "duration": 17, "velocity": 82}, {"time": 1781, "pitch": 62, "duration": 17, "velocity": 84}, {"time": 1781, "pitch": 66, "duration": 18, "velocity": 86}, {"time": 1781, "pitch": 69, "duration": 17, "velocity": 76}, {"time": 1805, "pitch": 49, "duration": 15, "velocity": 86}, {"time": 1805, "pitch": 61, "duration": 15, "velocity": 90}, {"time": 1805, "pitch": 64, "duration": 15, "velocity": 91}, {"time": 1805, "pitch": 69, "duration": 15, "velocity": 91}, {"time": 1829, "pitch": 47, "duration": 19, "velocity": 84}, {"time": 1829, "pitch": 59, "duration": 19, "velocity": 84}, {"time": 1841, "pitch": 62, "duration": 2, "velocity": 83}, {"time": 1841, "pitch": 66, "duration": 2, "velocity": 79}, {"time": 1841, "pitch": 71, "duration": 2, "velocity": 82}, {"time": 1847, "pitch": 62, "duration": 8, "velocity": 86}, {"time": 1847, "pitch": 66, "duration": 8, "velocity": 86}, {"time": 1847, "pitch": 71, "duration": 8, "velocity": 82}, {"time": 1853, "pitch": 54, "duration": 16, "velocity": 90}, {"time": 1859, "pitch": 62, "duration": 2, "velocity": 86}, {"time": 1859, "pitch": 66, "duration": 2, "velocity": 84}, {"time": 1859, "pitch": 71, "duration": 2, "velocity": 82}, {"time": 1865, "pitch": 62, "duration": 4, "velocity": 90}, {"time": 1865, "pitch": 66, "duration": 4, "velocity": 90}, {"time": 1865, "pitch": 71, "duration": 4, "velocity": 83}, {"time": 1877, "pitch": 47, "duration": 7, "velocity": 98}, {"time": 1877, "pitch": 59, "duration": 7, "velocity": 90}, {"time": 1877, "pitch": 62, "duration": 6, "velocity": 95}, {"time": 1877, "pitch": 66, "duration": 6, "velocity": 93}, {"time": 1877, "pitch": 71, "duration": 6, "velocity": 91}, {"time": 1889, "pitch": 47, "duration": 7, "velocity": 90}, {"time": 1889, "pitch": 59, "duration": 7, "velocity": 91}, {"time": 1889, "pitch": 62, "duration": 7, "velocity": 96}, {"time": 1889, "pitch": 66, "duration": 6, "velocity": 94}, {"time": 1889, "pitch": 71, "duration": 7, "velocity": 86}, {"time": 1925, "pitch": 47, "duration": 19, "velocity": 78}, {"time": 1925, "pitch": 59, "duration": 19, "velocity": 86}, {"time": 1937, "pitch": 62, "duration": 2, "velocity": 84}, {"time": 1937, "pitch": 66, "duration": 2, "velocity": 78}, {"time": 1937, "pitch": 71, "duration": 2, "velocity": 80}, {"time": 1943, "pitch": 62, "duration": 8, "velocity": 84}, {"time": 1943, "pitch": 66, "duration": 8, "velocity": 84}, {"time": 1943, "pitch": 71, "duration": 9, "velocity": 83}, {"time": 1949, "pitch": 54, "duration": 15, "velocity": 83}, {"time": 1961, "pitch": 62, "duration": 13, "velocity": 80}, {"time": 1961, "pitch": 66, "duration": 13, "velocity": 82}, {"time": 1961, "pitch": 71, "duration": 12, "velocity": 82}, {"time": 1967, "pitch": 54, "duration": 6, "velocity": 78}, {"time": 1973, "pitch": 47, "duration": 21, "velocity": 86}, {"time": 1973, "pitch": 59, "duration": 21, "velocity": 83}, {"time": 1985, "pitch": 62, "duration": 2, "velocity": 78}, {"time": 1985, "pitch": 66, "duration": 2, "velocity": 75}, {"time": 1985, "pitch": 71, "duration": 2, "velocity": 77}, {"time": 1991, "pitch": 62, "duration": 9, "velocity": 83}, {"time": 1991, "pitch": 66, "duration": 9, "velocity": 80}, {"time": 1991, "pitch": 71, "duration": 9, "velocity": 80}, {"time": 1997, "pitch": 54, "duration": 16, "velocity": 90}, {"time": 2003, "pitch": 62, "duration": 2, "velocity": 78}, {"time": 2003, "pitch": 66, "duration": 2, "velocity": 76}, {"time": 2003, "pitch": 71, "duration": 2, "velocity": 80}, {"time": 2009, "pitch": 62, "duration": 15, "velocity": 82}, {"time": 2009, "pitch": 66, "duration": 14, "velocity": 80}, {"time": 2009, "pitch": 71, "duration": 14, "velocity": 80}, {"time": 2021, "pitch": 42, "duration": 20, "velocity": 84}, {"time": 2021, "pitch": 54, "duration": 21, "velocity": 83}, {"time": 2033, "pitch": 66, "duration": 2, "velocity": 81}, {"time": 2033, "pitch": 69, "duration": 2, "velocity": 81}, {"time": 2033, "pitch": 73, "duration": 2, "velocity": 84}, {"time": 2039, "pitch": 66, "duration": 11, "velocity": 82}, {"time": 2039, "pitch": 69, "duration": 12, "velocity": 83}, {"time": 2039, "pitch": 73, "duration": 9, "velocity": 84}, {"time": 2045, "pitch": 49, "duration": 24, "velocity": 90}, {"time": 2057, "pitch": 66, "duration": 2, "velocity": 81}, {"time": 2057, "pitch": 69, "duration": 2, "velocity": 78}, {"time": 2057, "pitch": 73, "duration": 2, "velocity": 80}, {"time": 2063, "pitch": 66, "duration": 10, "velocity": 78}, {"time": 2063, "pitch": 69, "duration": 11, "velocity": 80}, {"time": 2063, "pitch": 73, "duration": 9, "velocity": 82}, {"time": 2069, "pitch": 42, "duration": 21, "velocity": 84}, {"time": 2069, "pitch": 54, "duration": 22, "velocity": 83}, {"time": 2081, "pitch": 64, "duration": 3, "velocity": 57}, {"time": 2081, "pitch": 69, "duration": 3, "velocity": 68}, {"time": 2081, "pitch": 73, "duration": 2, "velocity": 61}, {"time": 2087, "pitch": 64, "duration": 8, "velocity": 63}, {"time": 2087, "pitch": 69, "duration": 8, "velocity": 69}, {"time": 2087, "pitch": 73, "duration": 7, "velocity": 75}, {"time": 2093, "pitch": 49, "duration": 16, "velocity": 90}, {"time": 2099, "pitch": 64, "duration": 2, "velocity": 80}, {"time": 2099, "pitch": 69, "duration": 2, "velocity": 79}, {"time": 2099, "pitch": 73, "duration": 2, "velocity": 82}, {"time": 2105, "pitch": 64, "duration": 13, "velocity": 80}, {"time": 2105, "pitch": 69, "duration": 14, "velocity": 82}, {"time": 2105, "pitch": 73, "duration": 12, "velocity": 81}, {"time": 2111, "pitch": 54, "duration": 3, "velocity": 84}, {"time": 2117, "pitch": 47, "duration": 21, "velocity": 84}, {"time": 2129, "pitch": 62, "duration": 2, "velocity": 82}, {"time": 2129, "pitch": 66, "duration": 2, "velocity": 75}, {"time": 2129, "pitch": 71, "duration": 2, "velocity": 78}, {"time": 2135, "pitch": 62, "duration": 8, "velocity": 82}, {"time": 2135, "pitch": 66, "duration": 7, "velocity": 78}, {"time": 2135, "pitch": 71, "duration": 7, "velocity": 80}, {"time": 2141, "pitch": 54, "duration": 16, "velocity": 84}, {"time": 2153, "pitch": 62, "duration": 15, "velocity": 83}, {"time": 2153, "pitch": 66, "duration": 15, "velocity": 84}, {"time": 2153, "pitch": 71, "duration": 14, "velocity": 80}, {"time": 2159, "pitch": 54, "duration": 4, "velocity": 80}, {"time": 2165, "pitch": 45, "duration": 20, "velocity": 86}, {"time": 2165, "pitch": 57, "duration": 20, "velocity": 84}, {"time": 2177, "pitch": 64, "duration": 2, "velocity": 83}, {"time": 2177, "pitch": 69, "duration": 2, "velocity": 82}, {"time": 2177, "pitch": 73, "duration": 2, "velocity": 82}, {"time": 2183, "pitch": 64, "duration": 14, "velocity": 84}, {"time": 2183, "pitch": 69, "duration": 14, "velocity": 83}, {"time": 2183, "pitch": 73, "duration": 13, "velocity": 86}, {"time": 2189, "pitch": 52, "duration": 15, "velocity": 91}, {"time": 2201, "pitch": 64, "duration": 9, "velocity": 84}, {"time": 2201, "pitch": 69, "duration": 9, "velocity": 83}, {"time": 2201, "pitch": 73, "duration": 8, "velocity": 83}, {"time": 2213, "pitch": 50, "duration": 22, "velocity": 84}, {"time": 2213, "pitch": 62, "duration": 19, "velocity": 84}, {"time": 2225, "pitch": 66, "duration": 2, "velocity": 84}, {"time": 2225, "pitch": 69, "duration": 2, "velocity": 82}, {"time": 2225, "pitch": 74, "duration": 2, "velocity": 84}, {"time": 2231, "pitch": 66, "duration": 7, "velocity": 90}, {"time": 2231, "pitch": 69, "duration": 7, "velocity": 86}, {"time": 2231, "pitch": 74, "duration": 7, "velocity": 86}, {"time": 2237, "pitch": 57, "duration": 13, "velocity": 84}, {"time": 2249, "pitch": 66, "duration": 14, "velocity": 86}, {"time": 2249, "pitch": 69, "duration": 14, "velocity": 84}, {"time": 2249, "pitch": 74, "duration": 14, "velocity": 86}, {"time": 2261, "pitch": 42, "duration": 21, "velocity": 90}, {"time": 2261, "pitch": 54, "duration": 21, "velocity": 96}, {"time": 2273, "pitch": 66, "duration": 2, "velocity": 80}, {"time": 2273, "pitch": 69, "duration": 2, "velocity": 77}, {"time": 2273, "pitch": 73, "duration": 2, "velocity": 75}, {"time": 2279, "pitch": 66, "duration": 14, "velocity": 84}, {"time": 2279, "pitch": 69, "duration": 13, "velocity": 80}, {"time": 2279, "pitch": 73, "duration": 10, "velocity": 80}, {"time": 2285, "pitch": 49, "duration": 14, "velocity": 90}, {"time": 2297, "pitch": 66, "duration": 6, "velocity": 83}, {"time": 2297, "pitch": 69, "duration": 6, "velocity": 84}, {"time": 2297, "pitch": 73, "duration": 6, "velocity": 81}, {"time": 2309, "pitch": 47, "duration": 19, "velocity": 83}, {"time": 2309, "pitch": 59, "duration": 19, "velocity": 83}, {"time": 2321, "pitch": 62, "duration": 2, "velocity": 84}, {"time": 2321, "pitch": 66, "duration": 2, "velocity": 80}, {"time": 2321, "pitch": 71, "duration": 2, "velocity": 79}, {"time": 2327, "pitch": 62, "duration": 3, "velocity": 86}, {"time": 2327, "pitch": 66, "duration": 3, "velocity": 86}, {"time": 2327, "pitch": 71, "duration": 3, "velocity": 82}, {"time": 2333, "pitch": 54, "duration": 16, "velocity": 90}, {"time": 2339, "pitch": 62, "duration": 2, "velocity": 93}, {"time": 2339, "pitch": 66, "duration": 2, "velocity": 86}, {"time": 2339, "pitch": 71, "duration": 2, "velocity": 84}, {"time": 2345, "pitch": 62, "duration": 13, "velocity": 98}, {"time": 2345, "pitch": 66, "duration": 13, "velocity": 90}, {"time": 2345, "pitch": 71, "duration": 13, "velocity": 84}, {"time": 2357, "pitch": 47, "duration": 7, "velocity": 95}, {"time": 2357, "pitch": 59, "duration": 8, "velocity": 90}, {"time": 2369, "pitch": 47, "duration": 5, "velocity": 93}, {"time": 2369, "pitch": 59, "duration": 6, "velocity": 90}, {"time": 2369, "pitch": 62, "duration": 5, "velocity": 96}, {"time": 2369, "pitch": 66, "duration": 5, "velocity": 91}, {"time": 2369, "pitch": 71, "duration": 6, "velocity": 86}, {"time": 2405, "pitch": 47, "duration": 19, "velocity": 86}, {"time": 2405, "pitch": 59, "duration": 19, "velocity": 82}, {"time": 2417, "pitch": 62, "duration": 2, "velocity": 91}, {"time": 2417, "pitch": 66, "duration": 2, "velocity": 82}, {"time": 2417, "pitch": 71, "duration": 2, "velocity": 82}, {"time": 2423, "pitch": 62, "duration": 6, "velocity": 86}, {"time": 2423, "pitch": 66, "duration": 6, "velocity": 86}, {"time": 2423, "pitch": 71, "duration": 6, "velocity": 82}, {"time": 2429, "pitch": 54, "duration": 17, "velocity": 90}, {"time": 2441, "pitch": 62, "duration": 12, "velocity": 84}, {"time": 2441, "pitch": 66, "duration": 13, "velocity": 82}, {"time": 2441, "pitch": 71, "duration": 14, "velocity": 83}, {"time": 2453, "pitch": 47, "duration": 15, "velocity": 86}, {"time": 2453, "pitch": 59, "duration": 17, "velocity": 78}, {"time": 2465, "pitch": 62, "duration": 2, "velocity": 78}, {"time": 2465, "pitch": 66, "duration": 2, "velocity": 73}, {"time": 2465, "pitch": 71, "duration": 2, "velocity": 78}, {"time": 2471, "pitch": 62, "duration": 8, "velocity": 84}, {"time": 2471, "pitch": 66, "duration": 7, "velocity": 84}, {"time": 2471, "pitch": 71, "duration": 7, "velocity": 83}, {"time": 2477, "pitch": 47, "duration": 16, "velocity": 93}, {"time": 2477, "pitch": 59, "duration": 15, "velocity": 90}, {"time": 2489, "pitch": 62, "duration": 15, "velocity": 86}, {"time": 2489, "pitch": 66, "duration": 14, "velocity": 84}, {"time": 2489, "pitch": 71, "duration": 14, "velocity": 84}, {"time": 2501, "pitch": 42, "duration": 20, "velocity": 86}, {"time": 2501, "pitch": 54, "duration": 21, "velocity": 84}, {"time": 2513, "pitch": 61, "duration": 2, "velocity": 84}, {"time": 2513, "pitch": 66, "duration": 2, "velocity": 81}, {"time": 2513, "pitch": 69, "duration": 2, "velocity": 82}, {"time": 2519, "pitch": 61, "duration": 9, "velocity": 86}, {"time": 2519, "pitch": 66, "duration": 9, "velocity": 84}, {"time": 2519, "pitch": 69, "duration": 9, "velocity": 80}, {"time": 2525, "pitch": 49, "duration": 17, "velocity": 91}, {"time": 2537, "pitch": 61, "duration": 14, "velocity": 84}, {"time": 2537, "pitch": 66, "duration": 16, "velocity": 93}, {"time": 2537, "pitch": 69, "duration": 12, "velocity": 81}, {"time": 2549, "pitch": 42, "duration": 20, "velocity": 84}, {"time": 2549, "pitch": 54, "duration": 20, "velocity": 95}, {"time": 2561, "pitch": 61, "duration": 2, "velocity": 78}, {"time": 2561, "pitch": 66, "duration": 2, "velocity": 84}, {"time": 2561, "pitch": 69, "duration": 2, "velocity": 73}, {"time": 2567, "pitch": 61, "duration": 8, "velocity": 84}, {"time": 2567, "pitch": 66, "duration": 8, "velocity": 86}, {"time": 2567, "pitch": 69, "duration": 8, "velocity": 81}, {"time": 2573, "pitch": 49, "duration": 16, "velocity": 93}, {"time": 2579, "pitch": 61, "duration": 2, "velocity": 75}, {"time": 2579, "pitch": 66, "duration": 2, "velocity": 80}, {"time": 2579, "pitch": 69, "duration": 2, "velocity": 73}, {"time": 2585, "pitch": 61, "duration": 12, "velocity": 81}, {"time": 2585, "pitch": 66, "duration": 13, "velocity": 84}, {"time": 2585, "pitch": 69, "duration": 14, "velocity": 76}, {"time": 2597, "pitch": 47, "duration": 20, "velocity": 62}, {"time": 2597, "pitch": 59, "duration": 20, "velocity": 91}, {"time": 2609, "pitch": 62, "duration": 2, "velocity": 86}, {"time": 2609, "pitch": 66, "duration": 2, "velocity": 83}, {"time": 2609, "pitch": 71, "duration": 2, "velocity": 82}, {"time": 2615, "pitch": 62, "duration": 8, "velocity": 86}, {"time": 2615, "pitch": 66, "duration": 9, "velocity": 83}, {"time": 2615, "pitch": 71, "duration": 9, "velocity": 82}, {"time": 2621, "pitch": 54, "duration": 20, "velocity": 86}, {"time": 2633, "pitch": 62, "duration": 12, "velocity": 90}, {"time": 2633, "pitch": 66, "duration": 13, "velocity": 86}, {"time": 2633, "pitch": 71, "duration": 13, "velocity": 82}, {"time": 2645, "pitch": 45, "duration": 21, "velocity": 83}, {"time": 2645, "pitch": 57, "duration": 21, "velocity": 90}, {"time": 2657, "pitch": 64, "duration": 2, "velocity": 78}, {"time": 2657, "pitch": 69, "duration": 2, "velocity": 73}, {"time": 2657, "pitch": 73, "duration": 2, "velocity": 83}, {"time": 2663, "pitch": 64, "duration": 11, "velocity": 79}, {"time": 2663, "pitch": 69, "duration": 14, "velocity": 78}, {"time": 2663, "pitch": 73, "duration": 13, "velocity": 82}, {"time": 2669, "pitch": 52, "duration": 14, "velocity": 86}, {"time": 2681, "pitch": 64, "duration": 10, "velocity": 83}, {"time": 2681, "pitch": 69, "duration": 13, "velocity": 86}, {"time": 2681, "pitch": 73, "duration": 11, "velocity": 84}, {"time": 2693, "pitch": 50, "duration": 20, "velocity": 84}, {"time": 2693, "pitch": 62, "duration": 20, "velocity": 96}, {"time": 2705, "pitch": 66, "duration": 2, "velocity": 81}, {"time": 2705, "pitch": 69, "duration": 2, "velocity": 72}, {"time": 2705, "pitch": 74, "duration": 2, "velocity": 86}, {"time": 2711, "pitch": 66, "duration": 10, "velocity": 83}, {"time": 2711, "pitch": 69, "duration": 10, "velocity": 79}, {"time": 2711, "pitch": 74, "duration": 10, "velocity": 86}, {"time": 2717, "pitch": 57, "duration": 15, "velocity": 86}, {"time": 2729, "pitch": 64, "duration": 13, "velocity": 84}, {"time": 2729, "pitch": 69, "duration": 13, "velocity": 86}, {"time": 2729, "pitch": 73, "duration": 12, "velocity": 83}, {"time": 2741, "pitch": 42, "duration": 19, "velocity": 90}, {"time": 2741, "pitch": 54, "duration": 19, "velocity": 96}, {"time": 2753, "pitch": 66, "duration": 2, "velocity": 83}, {"time": 2753, "pitch": 69, "duration": 2, "velocity": 78}, {"time": 2753, "pitch": 73, "duration": 2, "velocity": 76}, {"time": 2759, "pitch": 66, "duration": 14, "velocity": 83}, {"time": 2759, "pitch": 69, "duration": 13, "velocity": 82}, {"time": 2759, "pitch": 73, "duration": 13, "velocity": 81}, {"time": 2765, "pitch": 49, "duration": 14, "velocity": 93}, {"time": 2777, "pitch": 66, "duration": 12, "velocity": 84}, {"time": 2777, "pitch": 69, "duration": 11, "velocity": 90}, {"time": 2777, "pitch": 73, "duration": 12, "velocity": 84}, {"time": 2789, "pitch": 47, "duration": 20, "velocity": 86}, {"time": 2789, "pitch": 59, "duration": 20, "velocity": 90}, {"time": 2801, "pitch": 62, "duration": 2, "velocity": 84}, {"time": 2801, "pitch": 66, "duration": 2, "velocity": 84}, {"time": 2801, "pitch": 71, "duration": 2, "velocity": 82}, {"time": 2807, "pitch": 62, "duration": 8, "velocity": 91}, {"time": 2807, "pitch": 66, "duration": 8, "velocity": 86}, {"time": 2807, "pitch": 71, "duration": 7, "velocity": 83}, {"time": 2813, "pitch": 54, "duration": 17, "velocity": 91}, {"time": 2825, "pitch": 62, "duration": 7, "velocity": 99}, {"time": 2825, "pitch": 66, "duration": 7, "velocity": 91}, {"time": 2825, "pitch": 71, "duration": 7, "velocity": 86}, {"time": 2885, "pitch": 47, "duration": 20, "velocity": 60}, {"time": 2885, "pitch": 49, "duration": 1, "velocity": 72}, {"time": 2885, "pitch": 59, "duration": 20, "velocity": 81}, {"time": 2897, "pitch": 62, "duration": 2, "velocity": 82}, {"time": 2897, "pitch": 66, "duration": 2, "velocity": 79}, {"time": 2897, "pitch": 71, "duration": 2, "velocity": 80}, {"time": 2903, "pitch": 62, "duration": 11, "velocity": 84}, {"time": 2903, "pitch": 66, "duration": 12, "velocity": 83}, {"time": 2903, "pitch": 71, "duration": 12, "velocity": 82}, {"time": 2909, "pitch": 54, "duration": 16, "velocity": 84}, {"time": 2921, "pitch": 62, "duration": 16, "velocity": 86}, {"time": 2921, "pitch": 66, "duration": 15, "velocity": 83}, {"time": 2921, "pitch": 71, "duration": 16, "velocity": 83}, {"time": 2933, "pitch": 47, "duration": 19, "velocity": 90}, {"time": 2933, "pitch": 59, "duration": 19, "velocity": 84}, {"time": 2945, "pitch": 62, "duration": 2, "velocity": 82}, {"time": 2945, "pitch": 66, "duration": 2, "velocity": 79}, {"time": 2945, "pitch": 71, "duration": 2, "velocity": 79}, {"time": 2951, "pitch": 62, "duration": 11, "velocity": 82}, {"time": 2951, "pitch": 66, "duration": 9, "velocity": 80}, {"time": 2951, "pitch": 71, "duration": 9, "velocity": 80}, {"time": 2957, "pitch": 54, "duration": 15, "velocity": 84}, {"time": 2969, "pitch": 62, "duration": 17, "velocity": 91}, {"time": 2969, "pitch": 66, "duration": 16, "velocity": 83}, {"time": 2969, "pitch": 71, "duration": 17, "velocity": 84}, {"time": 2981, "pitch": 42, "duration": 20, "velocity": 84}, {"time": 2981, "pitch": 54, "duration": 20, "velocity": 84}, {"time": 2993, "pitch": 61, "duration": 2, "velocity": 82}, {"time": 2993, "pitch": 66, "duration": 2, "velocity": 83}, {"time": 2993, "pitch": 69, "duration": 2, "velocity": 78}, {"time": 2999, "pitch": 61, "duration": 10, "velocity": 78}, {"time": 2999, "pitch": 66, "duration": 11, "velocity": 81}, {"time": 2999, "pitch": 69, "duration": 10, "velocity": 76}, {"time": 3005, "pitch": 49, "duration": 15, "velocity": 86}, {"time": 3017, "pitch": 61, "duration": 16, "velocity": 80}, {"time": 3017, "pitch": 66, "duration": 16, "velocity": 81}, {"time": 3017, "pitch": 69, "duration": 15, "velocity": 75}, {"time": 3029, "pitch": 42, "duration": 19, "velocity": 90}, {"time": 3029, "pitch": 54, "duration": 20, "velocity": 90}, {"time": 3041, "pitch": 61, "duration": 2, "velocity": 80}, {"time": 3041, "pitch": 66, "duration": 2, "velocity": 82}, {"time": 3041, "pitch": 69, "duration": 2, "velocity": 75}, {"time": 3047, "pitch": 61, "duration": 8, "velocity": 82}, {"time": 3047, "pitch": 66, "duration": 8, "velocity": 84}, {"time": 3047, "pitch": 69, "duration": 8, "velocity": 77}, {"time": 3053, "pitch": 42, "duration": 14, "velocity": 86}, {"time": 3053, "pitch": 54, "duration": 14, "velocity": 84}, {"time": 3059, "pitch": 61, "duration": 2, "velocity": 80}, {"time": 3059, "pitch": 66, "duration": 2, "velocity": 82}, {"time": 3059, "pitch": 69, "duration": 2, "velocity": 75}, {"time": 3065, "pitch": 61, "duration": 14, "velocity": 83}, {"time": 3065, "pitch": 66, "duration": 14, "velocity": 83}, {"time": 3065, "pitch": 69, "duration": 16, "velocity": 78}, {"time": 3071, "pitch": 49, "duration": 2, "velocity": 90}, {"time": 3077, "pitch": 47, "duration": 21, "velocity": 93}, {"time": 3089, "pitch": 62, "duration": 2, "velocity": 82}, {"time": 3089, "pitch": 66, "duration": 2, "velocity": 80}, {"time": 3089, "pitch": 71, "duration": 2, "velocity": 79}, {"time": 3095, "pitch": 62, "duration": 10, "velocity": 82}, {"time": 3095, "pitch": 66, "duration": 10, "velocity": 78}, {"time": 3095, "pitch": 71, "duration": 9, "velocity": 82}, {"time": 3101, "pitch": 54, "duration": 16, "velocity": 91}, {"time": 3113, "pitch": 62, "duration": 14, "velocity": 86}, {"time": 3113, "pitch": 66, "duration": 14, "velocity": 83}, {"time": 3113, "pitch": 71, "duration": 14, "velocity": 82}, {"time": 3125, "pitch": 45, "duration": 18, "velocity": 94}, {"time": 3137, "pitch": 61, "duration": 2, "velocity": 82}, {"time": 3137, "pitch": 64, "duration": 2, "velocity": 79}, {"time": 3137, "pitch": 69, "duration": 2, "velocity": 82}, {"time": 3143, "pitch": 61, "duration": 9, "velocity": 79}, {"time": 3143, "pitch": 64, "duration": 9, "velocity": 80}, {"time": 3143, "pitch": 69, "duration": 8, "velocity": 80}, {"time": 3149, "pitch": 52, "duration": 13, "velocity": 90}, {"time": 3161, "pitch": 61, "duration": 2, "velocity": 82}, {"time": 3161, "pitch": 64, "duration": 2, "velocity": 83}, {"time": 3161, "pitch": 69, "duration": 3, "velocity": 83}, {"time": 3173, "pitch": 50, "duration": 20, "velocity": 95}, {"time": 3185, "pitch": 66, "duration": 2, "velocity": 84}, {"time": 3185, "pitch": 69, "duration": 2, "velocity": 82}, {"time": 3185, "pitch": 74, "duration": 2, "velocity": 84}, {"time": 3191, "pitch": 66, "duration": 13, "velocity": 83}, {"time": 3191, "pitch": 69, "duration": 12, "velocity": 81}, {"time": 3191, "pitch": 74, "duration": 13, "velocity": 84}, {"time": 3197, "pitch": 50, "duration": 11, "velocity": 90}, {"time": 3209, "pitch": 49, "duration": 7, "velocity": 84}, {"time": 3209, "pitch": 64, "duration": 13, "velocity": 83}, {"time": 3209, "pitch": 69, "duration": 13, "velocity": 81}, {"time": 3209, "pitch": 73, "duration": 13, "velocity": 82}, {"time": 3221, "pitch": 42, "duration": 20, "velocity": 84}, {"time": 3233, "pitch": 61, "duration": 2, "velocity": 83}, {"time": 3233, "pitch": 66, "duration": 2, "velocity": 82}, {"time": 3233, "pitch": 69, "duration": 2, "velocity": 77}, {"time": 3239, "pitch": 61, "duration": 10, "velocity": 83}, {"time": 3239, "pitch": 66, "duration": 12, "velocity": 84}, {"time": 3239, "pitch": 69, "duration": 8, "velocity": 80}, {"time": 3245, "pitch": 49, "duration": 13, "velocity": 86}, {"time": 3257, "pitch": 61, "duration": 7, "velocity": 81}, {"time": 3257, "pitch": 66, "duration": 7, "velocity": 82}, {"time": 3257, "pitch": 69, "duration": 8, "velocity": 78}, {"time": 3269, "pitch": 47, "duration": 7, "velocity": 90}, {"time": 3269, "pitch": 59, "duration": 8, "velocity": 83}, {"time": 3269, "pitch": 62, "duration": 7, "velocity": 86}, {"time": 3269, "pitch": 66, "duration": 7, "velocity": 83}, {"time": 3269, "pitch": 71, "duration": 6, "velocity": 82}, {"time": 3281, "pitch": 47, "duration": 2, "velocity": 84}, {"time": 3281, "pitch": 59, "duration": 2, "velocity": 77}, {"time": 3281, "pitch": 62, "duration": 2, "velocity": 76}, {"time": 3281, "pitch": 66, "duration": 2, "velocity": 76}, {"time": 3281, "pitch": 71, "duration": 2, "velocity": 77}, {"time": 3287, "pitch": 47, "duration": 2, "velocity": 83}, {"time": 3287, "pitch": 59, "duration": 2, "velocity": 76}, {"time": 3287, "pitch": 62, "duration": 5, "velocity": 80}, {"time": 3287, "pitch": 66, "duration": 5, "velocity": 78}, {"time": 3287, "pitch": 71, "duration": 5, "velocity": 80}, {"time": 3293, "pitch": 47, "duration": 13, "velocity": 86}, {"time": 3293, "pitch": 59, "duration": 13, "velocity": 84}, {"time": 3299, "pitch": 62, "duration": 2, "velocity": 84}, {"time": 3299, "pitch": 66, "duration": 2, "velocity": 83}, {"time": 3299, "pitch": 71, "duration": 2, "velocity": 83}, {"time": 3305, "pitch": 62, "duration": 12, "velocity": 90}, {"time": 3305, "pitch": 66, "duration": 14, "velocity": 90}, {"time": 3305, "pitch": 71, "duration": 14, "velocity": 84}, {"time": 3311, "pitch": 54, "duration": 6, "velocity": 86}, {"time": 3317, "pitch": 47, "duration": 3, "velocity": 93}, {"time": 3317, "pitch": 59, "duration": 4, "velocity": 80}, {"time": 3329, "pitch": 47, "duration": 5, "velocity": 93}, {"time": 3329, "pitch": 59, "duration": 5, "velocity": 84}, {"time": 3329, "pitch": 62, "duration": 5, "velocity": 91}, {"time": 3329, "pitch": 66, "duration": 5, "velocity": 86}, {"time": 3329, "pitch": 71, "duration": 6, "velocity": 84}, {"time": 3365, "pitch": 47, "duration": 19, "velocity": 86}, {"time": 3365, "pitch": 59, "duration": 19, "velocity": 82}, {"time": 3377, "pitch": 62, "duration": 2, "velocity": 91}, {"time": 3377, "pitch": 66, "duration": 2, "velocity": 82}, {"time": 3377, "pitch": 71, "duration": 2, "velocity": 82}, {"time": 3383, "pitch": 62, "duration": 6, "velocity": 86}, {"time": 3383, "pitch": 66, "duration": 6, "velocity": 86}, {"time": 3383, "pitch": 71, "duration": 6, "velocity": 82}, {"time": 3389, "pitch": 54, "duration": 17, "velocity": 90}, {"time": 3401, "pitch": 62, "duration": 12, "velocity": 84}, {"time": 3401, "pitch": 66, "duration": 13, "velocity": 82}, {"time": 3401, "pitch": 71, "duration": 14, "velocity": 83}, {"time": 3413, "pitch": 47, "duration": 15, "velocity": 86}, {"time": 3413, "pitch": 59, "duration": 17, "velocity": 78}, {"time": 3425, "pitch": 62, "duration": 2, "velocity": 78}, {"time": 3425, "pitch": 66, "duration": 2, "velocity": 73}, {"time": 3425, "pitch": 71, "duration": 2, "velocity": 78}, {"time": 3431, "pitch": 62, "duration": 8, "velocity": 84}, {"time": 3431, "pitch": 66, "duration": 7, "velocity": 84}, {"time": 3431, "pitch": 71, "duration": 7, "velocity": 83}, {"time": 3437, "pitch": 47, "duration": 16, "velocity": 93}, {"time": 3437, "pitch": 59, "duration": 15, "velocity": 90}, {"time": 3449, "pitch": 62, "duration": 15, "velocity": 86}, {"time": 3449, "pitch": 66, "duration": 14, "velocity": 84}, {"time": 3449, "pitch": 71, "duration": 14, "velocity": 84}, {"time": 3461, "pitch": 42, "duration": 20, "velocity": 86}, {"time": 3461, "pitch": 54, "duration": 21, "velocity": 84}, {"time": 3473, "pitch": 61, "duration": 2, "velocity": 84}, {"time": 3473, "pitch": 66, "duration": 2, "velocity": 81}, {"time": 3473, "pitch": 69, "duration": 2, "velocity": 82}, {"time": 3479, "pitch": 61, "duration": 9, "velocity": 86}, {"time": 3479, "pitch": 66, "duration": 9, "velocity": 84}, {"time": 3479, "pitch": 69, "duration": 9, "velocity": 80}, {"time": 3485, "pitch": 49, "duration": 17, "velocity": 91}, {"time": 3497, "pitch": 61, "duration": 14, "velocity": 84}, {"time": 3497, "pitch": 66, "duration": 16, "velocity": 93}, {"time": 3497, "pitch": 69, "duration": 12, "velocity": 81}, {"time": 3509, "pitch": 42, "duration": 20, "velocity": 84}, {"time": 3509, "pitch": 54, "duration": 20, "velocity": 95}, {"time": 3521, "pitch": 61, "duration": 2, "velocity": 78}, {"time": 3521, "pitch": 66, "duration": 2, "velocity": 84}, {"time": 3521, "pitch": 69, "duration": 2, "velocity": 73}, {"time": 3527, "pitch": 61, "duration": 8, "velocity": 84}, {"time": 3527, "pitch": 66, "duration": 8, "velocity": 86}, {"time": 3527, "pitch": 69, "duration": 8, "velocity": 81}, {"time": 3533, "pitch": 49, "duration": 16, "velocity": 93}, {"time": 3539, "pitch": 61, "duration": 2, "velocity": 75}, {"time": 3539, "pitch": 66, "duration": 2, "velocity": 80}, {"time": 3539, "pitch": 69, "duration": 2, "velocity": 73}, {"time": 3545, "pitch": 61, "duration": 12, "velocity": 81}, {"time": 3545, "pitch": 66, "duration": 13, "velocity": 84}, {"time": 3545, "pitch": 69, "duration": 14, "velocity": 76}, {"time": 3557, "pitch": 47, "duration": 20, "velocity": 62}, {"time": 3557, "pitch": 59, "duration": 20, "velocity": 91}, {"time": 3569, "pitch": 62, "duration": 2, "velocity": 86}, {"time": 3569, "pitch": 66, "duration": 2, "velocity": 83}, {"time": 3569, "pitch": 71, "duration": 2, "velocity": 82}, {"time": 3575, "pitch": 62, "duration": 8, "velocity": 86}, {"time": 3575, "pitch": 66, "duration": 9, "velocity": 83}, {"time": 3575, "pitch": 71, "duration": 9, "velocity": 82}, {"time": 3581, "pitch": 54, "duration": 20, "velocity": 86}, {"time": 3593, "pitch": 62, "duration": 12, "velocity": 90}, {"time": 3593, "pitch": 66, "duration": 13, "velocity": 86}, {"time": 3593, "pitch": 71, "duration": 13, "velocity": 82}, {"time": 3605, "pitch": 45, "duration": 21, "velocity": 83}, {"time": 3605, "pitch": 57, "duration": 21, "velocity": 90}, {"time": 3617, "pitch": 64, "duration": 2, "velocity": 78}, {"time": 3617, "pitch": 69, "duration": 2, "velocity": 73}, {"time": 3617, "pitch": 73, "duration": 2, "velocity": 83}, {"time": 3623, "pitch": 64, "duration": 11, "velocity": 79}, {"time": 3623, "pitch": 69, "duration": 14, "velocity": 78}, {"time": 3623, "pitch": 73, "duration": 13, "velocity": 82}, {"time": 3629, "pitch": 52, "duration": 14, "velocity": 86}, {"time": 3641, "pitch": 64, "duration": 10, "velocity": 83}, {"time": 3641, "pitch": 69, "duration": 13, "velocity": 86}, {"time": 3641, "pitch": 73, "duration": 11, "velocity": 84}, {"time": 3653, "pitch": 50, "duration": 20, "velocity": 84}, {"time": 3653, "pitch": 62, "duration": 20, "velocity": 96}, {"time": 3665, "pitch": 66, "duration": 2, "velocity": 81}, {"time": 3665, "pitch": 69, "duration": 2, "velocity": 72}, {"time": 3665, "pitch": 74, "duration": 2, "velocity": 86}, {"time": 3671, "pitch": 66, "duration": 10, "velocity": 83}, {"time": 3671, "pitch": 69, "duration": 10, "velocity": 79}, {"time": 3671, "pitch": 74, "duration": 10, "velocity": 86}, {"time": 3677, "pitch": 57, "duration": 15, "velocity": 86}, {"time": 3689, "pitch": 64, "duration": 13, "velocity": 84}, {"time": 3689, "pitch": 69, "duration": 13, "velocity": 86}, {"time": 3689, "pitch": 73, "duration": 12, "velocity": 83}, {"time": 3701, "pitch": 42, "duration": 19, "velocity": 90}, {"time": 3701, "pitch": 54, "duration": 19, "velocity": 96}, {"time": 3713, "pitch": 66, "duration": 2, "velocity": 83}, {"time": 3713, "pitch": 69, "duration": 2, "velocity": 78}, {"time": 3713, "pitch": 73, "duration": 2, "velocity": 76}, {"time": 3719, "pitch": 66, "duration": 14, "velocity": 83}, {"time": 3719, "pitch": 69, "duration": 13, "velocity": 82}, {"time": 3719, "pitch": 73, "duration": 13, "velocity": 81}, {"time": 3725, "pitch": 49, "duration": 14, "velocity": 93}, {"time": 3737, "pitch": 66, "duration": 12, "velocity": 84}, {"time": 3737, "pitch": 69, "duration": 11, "velocity": 90}, {"time": 3737, "pitch": 73, "duration": 12, "velocity": 84}, {"time": 3749, "pitch": 47, "duration": 20, "velocity": 86}, {"time": 3749, "pitch": 59, "duration": 20, "velocity": 90}, {"time": 3761, "pitch": 62, "duration": 2, "velocity": 84}, {"time": 3761, "pitch": 66, "duration": 2, "velocity": 84}, {"time": 3761, "pitch": 71, "duration": 2, "velocity": 82}, {"time": 3767, "pitch": 62, "duration": 8, "velocity": 91}, {"time": 3767, "pitch": 66, "duration": 8, "velocity": 86}, {"time": 3767, "pitch": 71, "duration": 7, "velocity": 83}, {"time": 3773, "pitch": 54, "duration": 17, "velocity": 91}, {"time": 3785, "pitch": 62, "duration": 7, "velocity": 99}, {"time": 3785, "pitch": 66, "duration": 7, "velocity": 91}, {"time": 3785, "pitch": 71, "duration": 7, "velocity": 86}, {"time": 3797, "pitch": 47, "duration": 5, "velocity": 86}, {"time": 3797, "pitch": 59, "duration": 5, "velocity": 86}, {"time": 3809, "pitch": 47, "duration": 7, "velocity": 86}, {"time": 3809, "pitch": 59, "duration": 7, "velocity": 86}, {"time": 3809, "pitch": 62, "duration": 1, "velocity": 78}, {"time": 3809, "pitch": 66, "duration": 1, "velocity": 62}, {"time": 3809, "pitch": 71, "duration": 2, "velocity": 75}, {"time": 3815, "pitch": 62, "duration": 8, "velocity": 84}, {"time": 3815, "pitch": 66, "duration": 7, "velocity": 79}, {"time": 3815, "pitch": 71, "duration": 7, "velocity": 83}, {"time": 3821, "pitch": 54, "duration": 16, "velocity": 91}, {"time": 3827, "pitch": 62, "duration": 2, "velocity": 83}, {"time": 3827, "pitch": 66, "duration": 2, "velocity": 82}, {"time": 3827, "pitch": 71, "duration": 2, "velocity": 79}, {"time": 3833, "pitch": 62, "duration": 3, "velocity": 96}, {"time": 3833, "pitch": 66, "duration": 3, "velocity": 86}, {"time": 3833, "pitch": 71, "duration": 4, "velocity": 86}, {"time": 3845, "pitch": 47, "duration": 20, "velocity": 62}, {"time": 3845, "pitch": 59, "duration": 20, "velocity": 91}, {"time": 3857, "pitch": 62, "duration": 2, "velocity": 86}, {"time": 3857, "pitch": 66, "duration": 2, "velocity": 83}, {"time": 3857, "pitch": 71, "duration": 2, "velocity": 82}, {"time": 3863, "pitch": 62, "duration": 8, "velocity": 86}, {"time": 3863, "pitch": 66, "duration": 9, "velocity": 83}, {"time": 3863, "pitch": 71, "duration": 9, "velocity": 82}, {"time": 3869, "pitch": 54, "duration": 20, "velocity": 86}, {"time": 3881, "pitch": 62, "duration": 12, "velocity": 90}, {"time": 3881, "pitch": 66, "duration": 13, "velocity": 86}, {"time": 3881, "pitch": 71, "duration": 13, "velocity": 82}, {"time": 3893, "pitch": 45, "duration": 21, "velocity": 83}, {"time": 3893, "pitch": 57, "duration": 21, "velocity": 90}, {"time": 3905, "pitch": 64, "duration": 2, "velocity": 78}, {"time": 3905, "pitch": 69, "duration": 2, "velocity": 73}, {"time": 3905, "pitch": 73, "duration": 2, "velocity": 83}, {"time": 3911, "pitch": 64, "duration": 11, "velocity": 79}, {"time": 3911, "pitch": 69, "duration": 14, "velocity": 78}, {"time": 3911, "pitch": 73, "duration": 13, "velocity": 82}, {"time": 3917, "pitch": 52, "duration": 14, "velocity": 86}, {"time": 3929, "pitch": 64, "duration": 10, "velocity": 83}, {"time": 3929, "pitch": 69, "duration": 13, "velocity": 86}, {"time": 3929, "pitch": 73, "duration": 11, "velocity": 84}, {"time": 3941, "pitch": 50, "duration": 20, "velocity": 84}, {"time": 3941, "pitch": 62, "duration": 20, "velocity": 96}, {"time": 3953, "pitch": 66, "duration": 2, "velocity": 81}, {"time": 3953, "pitch": 69, "duration": 2, "velocity": 72}, {"time": 3953, "pitch": 74, "duration": 2, "velocity": 86}, {"time": 3959, "pitch": 66, "duration": 10, "velocity": 83}, {"time": 3959, "pitch": 69, "duration": 10, "velocity": 79}, {"time": 3959, "pitch": 74, "duration": 10, "velocity": 86}, {"time": 3965, "pitch": 57, "duration": 15, "velocity": 86}, {"time": 3977, "pitch": 64, "duration": 13, "velocity": 84}, {"time": 3977, "pitch": 69, "duration": 13, "velocity": 86}, {"time": 3977, "pitch": 73, "duration": 12, "velocity": 83}, {"time": 3989, "pitch": 42, "duration": 19, "velocity": 90}, {"time": 3989, "pitch": 54, "duration": 19, "velocity": 96}, {"time": 4001, "pitch": 66, "duration": 2, "velocity": 83}, {"time": 4001, "pitch": 69, "duration": 2, "velocity": 78}, {"time": 4001, "pitch": 73, "duration": 2, "velocity": 76}, {"time": 4007, "pitch": 66, "duration": 14, "velocity": 83}, {"time": 4007, "pitch": 69, "duration": 13, "velocity": 82}, {"time": 4007, "pitch": 73, "duration": 13, "velocity": 81}, {"time": 4013, "pitch": 49, "duration": 14, "velocity": 93}, {"time": 4025, "pitch": 66, "duration": 12, "velocity": 84}, {"time": 4025, "pitch": 69, "duration": 11, "velocity": 90}, {"time": 4025, "pitch": 73, "duration": 12, "velocity": 84}, {"time": 4037, "pitch": 47, "duration": 20, "velocity": 86}, {"time": 4037, "pitch": 59, "duration": 20, "velocity": 90}, {"time": 4049, "pitch": 62, "duration": 2, "velocity": 84}, {"time": 4049, "pitch": 66, "duration": 2, "velocity": 84}, {"time": 4049, "pitch": 71, "duration": 2, "velocity": 82}, {"time": 4055, "pitch": 62, "duration": 8, "velocity": 91}, {"time": 4055, "pitch": 66, "duration": 8, "velocity": 86}, {"time": 4055, "pitch": 71, "duration": 7, "velocity": 83}, {"time": 4061, "pitch": 54, "duration": 17, "velocity": 91}, {"time": 4073, "pitch": 62, "duration": 7, "velocity": 99}, {"time": 4073, "pitch": 66, "duration": 7, "velocity": 91}, {"time": 4073, "pitch": 71, "duration": 7, "velocity": 86}, {"time": 4085, "pitch": 47, "duration": 5, "velocity": 86}, {"time": 4085, "pitch": 59, "duration": 5, "velocity": 86}, {"time": 4097, "pitch": 47, "duration": 7, "velocity": 86}, {"time": 4097, "pitch": 59, "duration": 7, "velocity": 86}, {"time": 4097, "pitch": 62, "duration": 1, "velocity": 78}, {"time": 4097, "pitch": 66, "duration": 1, "velocity": 62}, {"time": 4097, "pitch": 71, "duration": 2, "velocity": 75}, {"time": 4103, "pitch": 62, "duration": 8, "velocity": 84}, {"time": 4103, "pitch": 66, "duration": 7, "velocity": 79}, {"time": 4103, "pitch": 71, "duration": 7, "velocity": 83}, {"time": 4109, "pitch": 54, "duration": 16, "velocity": 91}, {"time": 4115, "pitch": 62, "duration": 2, "velocity": 83}, {"time": 4115, "pitch": 66, "duration": 2, "velocity": 82}, {"time": 4115, "pitch": 71, "duration": 2, "velocity": 79}, {"time": 4121, "pitch": 62, "duration": 3, "velocity": 96}, {"time": 4121, "pitch": 66, "duration": 3, "velocity": 86}, {"time": 4121, "pitch": 71, "duration": 4, "velocity": 86}, {"time": 4133, "pitch": 47, "duration": 20, "velocity": 62}, {"time": 4133, "pitch": 59, "duration": 20, "velocity": 91}, {"time": 4145, "pitch": 62, "duration": 2, "velocity": 86}, {"time": 4145, "pitch": 66, "duration": 2, "velocity": 83}, {"time": 4145, "pitch": 71, "duration": 2, "velocity": 82}, {"time": 4151, "pitch": 62, "duration": 8, "velocity": 86}, {"time": 4151, "pitch": 66, "duration": 9, "velocity": 83}, {"time": 4151, "pitch": 71, "duration": 9, "velocity": 82}, {"time": 4157, "pitch": 54, "duration": 20, "velocity": 86}, {"time": 4169, "pitch": 62, "duration": 12, "velocity": 90}, {"time": 4169, "pitch": 66, "duration": 13, "velocity": 86}, {"time": 4169, "pitch": 71, "duration": 13, "velocity": 82}, {"time": 4181, "pitch": 45, "duration": 21, "velocity": 83}, {"time": 4181, "pitch": 57, "duration": 21, "velocity": 90}, {"time": 4193, "pitch": 64, "duration": 2, "velocity": 78}, {"time": 4193, "pitch": 69, "duration": 2, "velocity": 73}, {"time": 4193, "pitch": 73, "duration": 2, "velocity": 83}, {"time": 4199, "pitch": 64, "duration": 11, "velocity": 79}, {"time": 4199, "pitch": 69, "duration": 14, "velocity": 78}, {"time": 4199, "pitch": 73, "duration": 13, "velocity": 82}, {"time": 4205, "pitch": 52, "duration": 14, "velocity": 86}, {"time": 4217, "pitch": 64, "duration": 10, "velocity": 83}, {"time": 4217, "pitch": 69, "duration": 13, "velocity": 86}, {"time": 4217, "pitch": 73, "duration": 11, "velocity": 84}, {"time": 4229, "pitch": 50, "duration": 20, "velocity": 84}, {"time": 4229, "pitch": 62, "duration": 20, "velocity": 96}, {"time": 4241, "pitch": 66, "duration": 2, "velocity": 81}, {"time": 4241, "pitch": 69, "duration": 2, "velocity": 72}, {"time": 4241, "pitch": 74, "duration": 2, "velocity": 86}, {"time": 4247, "pitch": 66, "duration": 10, "velocity": 83}, {"time": 4247, "pitch": 69, "duration": 10, "velocity": 79}, {"time": 4247, "pitch": 74, "duration": 10, "velocity": 86}, {"time": 4253, "pitch": 57, "duration": 15, "velocity": 86}, {"time": 4265, "pitch": 64, "duration": 13, "velocity": 84}, {"time": 4265, "pitch": 69, "duration": 13, "velocity": 86}, {"time": 4265, "pitch": 73, "duration": 12, "velocity": 83}, {"time": 4277, "pitch": 42, "duration": 19, "velocity": 90}, {"time": 4277, "pitch": 54, "duration": 19, "velocity": 96}, {"time": 4289, "pitch": 66, "duration": 2, "velocity": 83}, {"time": 4289, "pitch": 69, "duration": 2, "velocity": 78}, {"time": 4289, "pitch": 73, "duration": 2, "velocity": 76}, {"time": 4295, "pitch": 66, "duration": 14, "velocity": 83}, {"time": 4295, "pitch": 69, "duration": 13, "velocity": 82}, {"time": 4295, "pitch": 73, "duration": 13, "velocity": 81}, {"time": 4301, "pitch": 49, "duration": 14, "velocity": 93}, {"time": 4313, "pitch": 66, "duration": 12, "velocity": 84}, {"time": 4313, "pitch": 69, "duration": 11, "velocity": 90}, {"time": 4313, "pitch": 73, "duration": 12, "velocity": 84}, {"time": 4325, "pitch": 47, "duration": 20, "velocity": 86}, {"time": 4325, "pitch": 59, "duration": 20, "velocity": 90}, {"time": 4337, "pitch": 62, "duration": 2, "velocity": 84}, {"time": 4337, "pitch": 66, "duration": 2, "velocity": 84}, {"time": 4337, "pitch": 71, "duration": 2, "velocity": 82}, {"time": 4343, "pitch": 62, "duration": 8, "velocity": 91}, {"time": 4343, "pitch": 66, "duration": 8, "velocity": 86}, {"time": 4343, "pitch": 71, "duration": 7, "velocity": 83}, {"time": 4349, "pitch": 54, "duration": 17, "velocity": 91}, {"time": 4361, "pitch": 62, "duration": 7, "velocity": 99}, {"time": 4361, "pitch": 66, "duration": 7, "velocity": 91}, {"time": 4361, "pitch": 71, "duration": 7, "velocity": 86}, {"time": 4373, "pitch": 47, "duration": 5, "velocity": 86}, {"time": 4373, "pitch": 59, "duration": 5, "velocity": 86}, {"time": 4385, "pitch": 47, "duration": 7, "velocity": 86}, {"time": 4385, "pitch": 59, "duration": 7, "velocity": 86}, {"time": 4385, "pitch": 62, "duration": 1, "velocity": 78}, {"time": 4385, "pitch": 66, "duration": 1, "velocity": 62}, {"time": 4385, "pitch": 71, "duration": 2, "velocity": 75}, {"time": 4391, "pitch": 62, "duration": 8, "velocity": 84}, {"time": 4391, "pitch": 66, "duration": 7, "velocity": 79}, {"time": 4391, "pitch": 71, "duration": 7, "velocity": 83}, {"time": 4397, "pitch": 54, "duration": 16, "velocity": 91}, {"time": 4403, "pitch": 62, "duration": 2, "velocity": 83}, {"time": 4403, "pitch": 66, "duration": 2, "velocity": 82}, {"time": 4403, "pitch": 71, "duration": 2, "velocity": 79}, {"time": 4409, "pitch": 62, "duration": 3, "velocity": 96}, {"time": 4409, "pitch": 66, "duration": 3, "velocity": 86}, {"time": 4409, "pitch": 71, "duration": 4, "velocity": 86}, {"time": 4421, "pitch": 47, "duration": 20, "velocity": 62}, {"time": 4421, "pitch": 59, "duration": 20, "velocity": 91}, {"time": 4433, "pitch": 62, "duration": 2, "velocity": 86}, {"time": 4433, "pitch": 66, "duration": 2, "velocity": 83}, {"time": 4433, "pitch": 71, "duration": 2, "velocity": 82}, {"time": 4439, "pitch": 62, "duration": 8, "velocity": 86}, {"time": 4439, "pitch": 66, "duration": 9, "velocity": 83}, {"time": 4439, "pitch": 71, "duration": 9, "velocity": 82}, {"time": 4445, "pitch": 54, "duration": 20, "velocity": 86}, {"time": 4457, "pitch": 62, "duration": 12, "velocity": 90}, {"time": 4457, "pitch": 66, "duration": 13, "velocity": 86}, {"time": 4457, "pitch": 71, "duration": 13, "velocity": 82}, {"time": 4469, "pitch": 45, "duration": 21, "velocity": 83}, {"time": 4469, "pitch": 57, "duration": 21, "velocity": 90}, {"time": 4481, "pitch": 64, "duration": 2, "velocity": 78}, {"time": 4481, "pitch": 69, "duration": 2, "velocity": 73}, {"time": 4481, "pitch": 73, "duration": 2, "velocity": 83}, {"time": 4487, "pitch": 64, "duration": 11, "velocity": 79}, {"time": 4487, "pitch": 69, "duration": 14, "velocity": 78}, {"time": 4487, "pitch": 73, "duration": 13, "velocity": 82}, {"time": 4493, "pitch": 52, "duration": 14, "velocity": 86}, {"time": 4505, "pitch": 64, "duration": 10, "velocity": 83}, {"time": 4505, "pitch": 69, "duration": 13, "velocity": 86}, {"time": 4505, "pitch": 73, "duration": 11, "velocity": 84}, {"time": 4517, "pitch": 50, "duration": 20, "velocity": 84}, {"time": 4517, "pitch": 62, "duration": 20, "velocity": 96}, {"time": 4529, "pitch": 66, "duration": 2, "velocity": 81}, {"time": 4529, "pitch": 69, "duration": 2, "velocity": 72}, {"time": 4529, "pitch": 74, "duration": 2, "velocity": 86}, {"time": 4535, "pitch": 66, "duration": 10, "velocity": 83}, {"time": 4535, "pitch": 69, "duration": 10, "velocity": 79}, {"time": 4535, "pitch": 74, "duration": 10, "velocity": 86}, {"time": 4541, "pitch": 57, "duration": 15, "velocity": 86}, {"time": 4553, "pitch": 64, "duration": 13, "velocity": 84}, {"time": 4553, "pitch": 69, "duration": 13, "velocity": 86}, {"time": 4553, "pitch": 73, "duration": 12, "velocity": 83}, {"time": 4565, "pitch": 42, "duration": 19, "velocity": 90}, {"time": 4565, "pitch": 54, "duration": 19, "velocity": 96}, {"time": 4577, "pitch": 66, "duration": 2, "velocity": 83}, {"time": 4577, "pitch": 69, "duration": 2, "velocity": 78}, {"time": 4577, "pitch": 73, "duration": 2, "velocity": 76}, {"time": 4583, "pitch": 66, "duration": 14, "velocity": 83}, {"time": 4583, "pitch": 69, "duration": 13, "velocity": 82}, {"time": 4583, "pitch": 73, "duration": 13, "velocity": 81}, {"time": 4589, "pitch": 49, "duration": 14, "velocity": 93}, {"time": 4601, "pitch": 66, "duration": 12, "velocity": 84}, {"time": 4601, "pitch": 69, "duration": 11, "velocity": 90}, {"time": 4601, "pitch": 73, "duration": 12, "velocity": 84}, {"time": 4613, "pitch": 47, "duration": 20, "velocity": 86}, {"time": 4613, "pitch": 59, "duration": 20, "velocity": 90}, {"time": 4625, "pitch": 62, "duration": 2, "velocity": 84}, {"time": 4625, "pitch": 66, "duration": 2, "velocity": 84}, {"time": 4625, "pitch": 71, "duration": 2, "velocity": 82}, {"time": 4631, "pitch": 62, "duration": 8, "velocity": 91}, {"time": 4631, "pitch": 66, "duration": 8, "velocity": 86}, {"time": 4631, "pitch": 71, "duration": 7, "velocity": 83}, {"time": 4637, "pitch": 54, "duration": 17, "velocity": 91}, {"time": 4649, "pitch": 62, "duration": 7, "velocity": 99}, {"time": 4649, "pitch": 66, "duration": 7, "velocity": 91}, {"time": 4649, "pitch": 71, "duration": 7, "velocity": 86}, {"time": 4661, "pitch": 47, "duration": 5, "velocity": 86}, {"time": 4661, "pitch": 59, "duration": 5, "velocity": 86}, {"time": 4673, "pitch": 47, "duration": 7, "velocity": 86}, {"time": 4673, "pitch": 59, "duration": 7, "velocity": 86}, {"time": 4673, "pitch": 62, "duration": 1, "velocity": 78}, {"time": 4673, "pitch": 66, "duration": 1, "velocity": 62}, {"time": 4673, "pitch": 71, "duration": 2, "velocity": 75}, {"time": 4679, "pitch": 62, "duration": 8, "velocity": 84}, {"time": 4679, "pitch": 66, "duration": 7, "velocity": 79}, {"time": 4679, "pitch": 71, "duration": 7, "velocity": 83}, {"time": 4685, "pitch": 54, "duration": 16, "velocity": 91}, {"time": 4691, "pitch": 62, "duration": 2, "velocity": 83}, {"time": 4691, "pitch": 66, "duration": 2, "velocity": 82}, {"time": 4691, "pitch": 71, "duration": 2, "velocity": 79}, {"time": 4697, "pitch": 62, "duration": 3, "velocity": 96}, {"time": 4697, "pitch": 66, "duration": 3, "velocity": 86}, {"time": 4697, "pitch": 71, "duration": 4, "velocity": 86}], "annotations": [{"time": 101, "annotation": {"number": 64, "value": 127}, "group": "control_change"}, {"time": 126, "annotation": {"number": 64, "value": 0}, "group": "control_change"}, {"time": 130, "annotation": {"number": 64, "value": 127}, "group": "control_change"}, {"time": 149, "annotation": {"number": 64, "value": 0}, "group": "control_change"}, {"time": 153, "annotation": {"number": 64, "value": 127}, "group": "control_change"}, {"time": 171, "annotation": {"number": 64, "value": 0}, "group": "control_change"}, {"time": 176, "annotation": {"number": 64, "value": 127}, "group": "control_change"}, {"time": 195, "annotation": {"number": 64, "value": 0}, "group": "control_change"}, {"time": 200, "annotation": {"number": 64, "value": 127}, "group": "control_change"}, {"time": 220, "annotation": {"number": 64, "value": 0}, "group": "control_change"}, {"time": 220, "annotation": {"number": 64, "value": 127}, "group": "control_change"}, {"time": 226, "annotation": {"number": 64, "value": 127}, "group": "control_change"}, {"time": 227, "annotation": {"number": 64, "value": 0}, "group": "control_change"}, {"time": 227, "annotation": {"number": 64, "value": 127}, "group": "control_change"}, {"time": 244, "annotation": {"number": 64, "value": 0}, "group": "control_change"}, {"time": 254, "annotation": {"number": 64, "value": 127}, "group": "control_change"}, {"time": 254, "annotation": {"number": 64, "value": 0}, "group": "control_change"}, {"time": 292, "annotation": {"number": 64, "value": 0}, "group": "control_change"}, {"time": 296, "annotation": {"number": 64, "value": 127}, "group": "control_change"}, {"time": 340, "annotation": {"number": 64, "value": 0}, "group": "control_change"}, {"time": 340, "annotation": {"number": 64, "value": 127}, "group": "control_change"}, {"time": 344, "annotation": {"number": 64, "value": 127}, "group": "control_change"}, {"time": 365, "annotation": {"number": 64, "value": 0}, "group": "control_change"}, {"time": 366, "annotation": {"number": 64, "value": 127}, "group": "control_change"}, {"time": 391, "annotation": {"number": 64, "value": 127}, "group": "control_change"}, {"time": 394, "annotation": {"number": 64, "value": 0}, "group": "control_change"}, {"time": 412, "annotation": {"number": 64, "value": 0}, "group": "control_change"}, {"time": 413, "annotation": {"number": 64, "value": 127}, "group": "control_change"}, {"time": 413, "annotation": {"number": 64, "value": 0}, "group": "control_change"}, {"time": 414, "annotation": {"number": 64, "value": 127}, "group": "control_change"}, {"time": 437, "annotation": {"number": 64, "value": 0}, "group": "control_change"}, {"time": 438, "annotation": {"number": 64, "value": 127}, "group": "control_change"}, {"time": 458, "annotation": {"number": 64, "value": 0}, "group": "control_change"}, {"time": 462, "annotation": {"number": 64, "value": 127}, "group": "control_change"}, {"time": 481, "annotation": {"number": 64, "value": 0}, "group": "control_change"}, {"time": 534, "annotation": {"number": 64, "value": 127}, "group": "control_change"}, {"time": 555, "annotation": {"number": 64, "value": 0}, "group": "control_change"}, {"time": 560, "annotation": {"number": 64, "value": 127}, "group": "control_change"}, {"time": 560, "annotation": {"number": 64, "value": 0}, "group": "control_change"}, {"time": 579, "annotation": {"number": 64, "value": 0}, "group": "control_change"}, {"time": 585, "annotation": {"number": 64, "value": 127}, "group": "control_change"}, {"time": 602, "annotation": {"number": 64, "value": 0}, "group": "control_change"}, {"time": 608, "annotation": {"number": 64, "value": 127}, "group": "control_change"}, {"time": 628, "annotation": {"number": 64, "value": 0}, "group": "control_change"}, {"time": 631, "annotation": {"number": 64, "value": 127}, "group": "control_change"}, {"time": 675, "annotation": {"number": 64, "value": 0}, "group": "control_change"}, {"time": 675, "annotation": {"number": 64, "value": 127}, "group": "control_change"}, {"time": 676, "annotation": {"number": 64, "value": 0}, "group": "control_change"}, {"time": 680, "annotation": {"number": 64, "value": 127}, "group": "control_change"}, {"time": 721, "annotation": {"number": 64, "value": 0}, "group": "control_change"}, {"time": 727, "annotation": {"number": 64, "value": 127}, "group": "control_change"}, {"time": 774, "annotation": {"number": 64, "value": 0}, "group": "control_change"}, {"time": 775, "annotation": {"number": 64, "value": 127}, "group": "control_change"}, {"time": 779, "annotation": {"number": 64, "value": 127}, "group": "control_change"}, {"time": 785, "annotation": {"number": 64, "value": 0}, "group": "control_change"}, {"time": 795, "annotation": {"number": 64, "value": 0}, "group": "control_change"}, {"time": 800, "annotation": {"number": 64, "value": 127}, "group": "control_change"}, {"time": 820, "annotation": {"number": 64, "value": 0}, "group": "control_change"}, {"time": 823, "annotation": {"number": 64, "value": 127}, "group": "control_change"}, {"time": 827, "annotation": {"number": 64, "value": 127}, "group": "control_change"}, {"time": 837, "annotation": {"number": 64, "value": 0}, "group": "control_change"}, {"time": 867, "annotation": {"number": 64, "value": 0}, "group": "control_change"}, {"time": 873, "annotation": {"number": 64, "value": 127}, "group": "control_change"}, {"time": 873, "annotation": {"number": 64, "value": 0}, "group": "control_change"}, {"time": 892, "annotation": {"number": 64, "value": 0}, "group": "control_change"}, {"time": 897, "annotation": {"number": 64, "value": 127}, "group": "control_change"}, {"time": 915, "annotation": {"number": 64, "value": 0}, "group": "control_change"}, {"time": 1045, "annotation": {"number": 64, "value": 127}, "group": "control_change"}, {"time": 1061, "annotation": {"number": 64, "value": 0}, "group": "control_change"}, {"time": 1066, "annotation": {"number": 64, "value": 127}, "group": "control_change"}, {"time": 1066, "annotation": {"number": 64, "value": 0}, "group": "control_change"}, {"time": 1083, "annotation": {"number": 64, "value": 0}, "group": "control_change"}, {"time": 1096, "annotation": {"number": 64, "value": 127}, "group": "control_change"}, {"time": 1109, "annotation": {"number": 64, "value": 127}, "group": "control_change"}, {"time": 1109, "annotation": {"number": 64, "value": 0}, "group": "control_change"}, {"time": 1131, "annotation": {"number": 64, "value": 0}, "group": "control_change"}, {"time": 1135, "annotation": {"number": 64, "value": 127}, "group": "control_change"}, {"time": 1155, "annotation": {"number": 64, "value": 0}, "group": "control_change"}, {"time": 1161, "annotation": {"number": 64, "value": 127}, "group": "control_change"}, {"time": 1178, "annotation": {"number": 64, "value": 0}, "group": "control_change"}, {"time": 1183, "annotation": {"number": 64, "value": 127}, "group": "control_change"}, {"time": 1204, "annotation": {"number": 64, "value": 0}, "group": "control_change"}, {"time": 1211, "annotation": {"number": 64, "value": 127}, "group": "control_change"}, {"time": 1228, "annotation": {"number": 64, "value": 0}, "group": "control_change"}, {"time": 1232, "annotation": {"number": 64, "value": 127}, "group": "control_change"}, {"time": 1252, "annotation": {"number": 64, "value": 0}, "group": "control_change"}, {"time": 1254, "annotation": {"number": 64, "value": 127}, "group": "control_change"}, {"time": 1276, "annotation": {"number": 64, "value": 0}, "group": "control_change"}, {"time": 1281, "annotation": {"number": 64, "value": 127}, "group": "control_change"}, {"time": 1299, "annotation": {"number": 64, "value": 0}, "group": "control_change"}, {"time": 1305, "annotation": {"number": 64, "value": 127}, "group": "control_change"}, {"time": 1322, "annotation": {"number": 64, "value": 0}, "group": "control_change"}, {"time": 1327, "annotation": {"number": 64, "value": 127}, "group": "control_change"}, {"time": 1327, "annotation": {"number": 64, "value": 0}, "group": "control_change"}, {"time": 1337, "annotation": {"number": 64, "value": 0}, "group": "control_change"}, {"time": 1340, "annotation": {"number": 64, "value": 127}, "group": "control_change"}, {"time": 1348, "annotation": {"number": 64, "value": 0}, "group": "control_change"}, {"time": 1356, "annotation": {"number": 64, "value": 127}, "group": "control_change"}, {"time": 1373, "annotation": {"number": 64, "value": 0}, "group": "control_change"}, {"time": 1378, "annotation": {"number": 64, "value": 127}, "group": "control_change"}, {"time": 1395, "annotation": {"number": 64, "value": 0}, "group": "control_change"}, {"time": 1400, "annotation": {"number": 64, "value": 127}, "group": "control_change"}, {"time": 1418, "annotation": {"number": 64, "value": 0}, "group": "control_change"}, {"time": 1423, "annotation": {"number": 64, "value": 127}, "group": "control_change"}, {"time": 1443, "annotation": {"number": 64, "value": 0}, "group": "control_change"}, {"time": 1470, "annotation": {"number": 64, "value": 127}, "group": "control_change"}, {"time": 1492, "annotation": {"number": 64, "value": 0}, "group": "control_change"}, {"time": 1493, "annotation": {"number": 64, "value": 127}, "group": "control_change"}, {"time": 1518, "annotation": {"number": 64, "value": 0}, "group": "control_change"}, {"time": 1522, "annotation": {"number": 64, "value": 127}, "group": "control_change"}, {"time": 1541, "annotation": {"number": 64, "value": 0}, "group": "control_change"}, {"time": 1545, "annotation": {"number": 64, "value": 127}, "group": "control_change"}, {"time": 1563, "annotation": {"number": 64, "value": 0}, "group": "control_change"}, {"time": 1568, "annotation": {"number": 64, "value": 127}, "group": "control_change"}, {"time": 1587, "annotation": {"number": 64, "value": 0}, "group": "control_change"}, {"time": 1592, "annotation": {"number": 64, "value": 127}, "group": "control_change"}, {"time": 1612, "annotation": {"number": 64, "value": 0}, "group": "control_change"}, {"time": 1612, "annotation": {"number": 64, "value": 127}, "group": "control_change"}, {"time": 1618, "annotation": {"number": 64, "value": 127}, "group": "control_change"}, {"time": 1619, "annotation": {"number": 64, "value": 0}, "group": "control_change"}, {"time": 1619, "annotation": {"number": 64, "value": 127}, "group": "control_change"}, {"time": 1636, "annotation": {"number": 64, "value": 0}, "group": "control_change"}, {"time": 1646, "annotation": {"number": 64, "value": 127}, "group": "control_change"}, {"time": 1646, "annotation": {"number": 64, "value": 0}, "group": "control_change"}, {"time": 1684, "annotation": {"number": 64, "value": 0}, "group": "control_change"}, {"time": 1688, "annotation": {"number": 64, "value": 127}, "group": "control_change"}, {"time": 1732, "annotation": {"number": 64, "value": 0}, "group": "control_change"}, {"time": 1732, "annotation": {"number": 64, "value": 127}, "group": "control_change"}, {"time": 1736, "annotation": {"number": 64, "value": 127}, "group": "control_change"}, {"time": 1757, "annotation": {"number": 64, "value": 0}, "group": "control_change"}, {"time": 1758, "annotation": {"number": 64, "value": 127}, "group": "control_change"}, {"time": 1783, "annotation": {"number": 64, "value": 127}, "group": "control_change"}, {"time": 1786, "annotation": {"number": 64, "value": 0}, "group": "control_change"}, {"time": 1804, "annotation": {"number": 64, "value": 0}, "group": "control_change"}, {"time": 1805, "annotation": {"number": 64, "value": 127}, "group": "control_change"}, {"time": 1805, "annotation": {"number": 64, "value": 0}, "group": "control_change"}, {"time": 1806, "annotation": {"number": 64, "value": 127}, "group": "control_change"}, {"time": 1829, "annotation": {"number": 64, "value": 0}, "group": "control_change"}, {"time": 1830, "annotation": {"number": 64, "value": 127}, "group": "control_change"}, {"time": 1850, "annotation": {"number": 64, "value": 0}, "group": "control_change"}, {"time": 1854, "annotation": {"number": 64, "value": 127}, "group": "control_change"}, {"time": 1873, "annotation": {"number": 64, "value": 0}, "group": "control_change"}, {"time": 1926, "annotation": {"number": 64, "value": 127}, "group": "control_change"}, {"time": 1947, "annotation": {"number": 64, "value": 0}, "group": "control_change"}, {"time": 1952, "annotation": {"number": 64, "value": 127}, "group": "control_change"}, {"time": 1952, "annotation": {"number": 64, "value": 0}, "group": "control_change"}, {"time": 1971, "annotation": {"number": 64, "value": 0}, "group": "control_change"}, {"time": 1977, "annotation": {"number": 64, "value": 127}, "group": "control_change"}, {"time": 1994, "annotation": {"number": 64, "value": 0}, "group": "control_change"}, {"time": 2000, "annotation": {"number": 64, "value": 127}, "group": "control_change"}, {"time": 2020, "annotation": {"number": 64, "value": 0}, "group": "control_change"}, {"time": 2023, "annotation": {"number": 64, "value": 127}, "group": "control_change"}, {"time": 2067, "annotation": {"number": 64, "value": 0}, "group": "control_change"}, {"time": 2067, "annotation": {"number": 64, "value": 127}, "group": "control_change"}, {"time": 2068, "annotation": {"number": 64, "value": 0}, "group": "control_change"}, {"time": 2072, "annotation": {"number": 64, "value": 127}, "group": "control_change"}, {"time": 2113, "annotation": {"number": 64, "value": 0}, "group": "control_change"}, {"time": 2119, "annotation": {"number": 64, "value": 127}, "group": "control_change"}, {"time": 2166, "annotation": {"number": 64, "value": 0}, "group": "control_change"}, {"time": 2167, "annotation": {"number": 64, "value": 127}, "group": "control_change"}, {"time": 2171, "annotation": {"number": 64, "value": 127}, "group": "control_change"}, {"time": 2177, "annotation": {"number": 64, "value": 0}, "group": "control_change"}, {"time": 2187, "annotation": {"number": 64, "value": 0}, "group": "control_change"}, {"time": 2192, "annotation": {"number": 64, "value": 127}, "group": "control_change"}, {"time": 2212, "annotation": {"number": 64, "value": 0}, "group": "control_change"}, {"time": 2215, "annotation": {"number": 64, "value": 127}, "group": "control_change"}, {"time": 2219, "annotation": {"number": 64, "value": 127}, "group": "control_change"}, {"time": 2229, "annotation": {"number": 64, "value": 0}, "group": "control_change"}, {"time": 2259, "annotation": {"number": 64, "value": 0}, "group": "control_change"}, {"time": 2265, "annotation": {"number": 64, "value": 127}, "group": "control_change"}, {"time": 2265, "annotation": {"number": 64, "value": 0}, "group": "control_change"}, {"time": 2284, "annotation": {"number": 64, "value": 0}, "group": "control_change"}, {"time": 2289, "annotation": {"number": 64, "value": 127}, "group": "control_change"}, {"time": 2307, "annotation": {"number": 64, "value": 0}, "group": "control_change"}, {"time": 2437, "annotation": {"number": 64, "value": 127}, "group": "control_change"}, {"time": 2453, "annotation": {"number": 64, "value": 0}, "group": "control_change"}, {"time": 2458, "annotation": {"number": 64, "value": 127}, "group": "control_change"}, {"time": 2458, "annotation": {"number": 64, "value": 0}, "group": "control_change"}, {"time": 2475, "annotation": {"number": 64, "value": 0}, "group": "control_change"}, {"time": 2488, "annotation": {"number": 64, "value": 127}, "group": "control_change"}, {"time": 2501, "annotation": {"number": 64, "value": 127}, "group": "control_change"}, {"time": 2501, "annotation": {"number": 64, "value": 0}, "group": "control_change"}, {"time": 2523, "annotation": {"number": 64, "value": 0}, "group": "control_change"}, {"time": 2527, "annotation": {"number": 64, "value": 127}, "group": "control_change"}, {"time": 2547, "annotation": {"number": 64, "value": 0}, "group": "control_change"}, {"time": 2553, "annotation": {"number": 64, "value": 127}, "group": "control_change"}, {"time": 2570, "annotation": {"number": 64, "value": 0}, "group": "control_change"}, {"time": 2575, "annotation": {"number": 64, "value": 127}, "group": "control_change"}, {"time": 2596, "annotation": {"number": 64, "value": 0}, "group": "control_change"}, {"time": 2603, "annotation": {"number": 64, "value": 127}, "group": "control_change"}, {"time": 2620, "annotation": {"number": 64, "value": 0}, "group": "control_change"}, {"time": 2624, "annotation": {"number": 64, "value": 127}, "group": "control_change"}, {"time": 2644, "annotation": {"number": 64, "value": 0}, "group": "control_change"}, {"time": 2646, "annotation": {"number": 64, "value": 127}, "group": "control_change"}, {"time": 2668, "annotation": {"number": 64, "value": 0}, "group": "control_change"}, {"time": 2673, "annotation": {"number": 64, "value": 127}, "group": "control_change"}, {"time": 2691, "annotation": {"number": 64, "value": 0}, "group": "control_change"}, {"time": 2697, "annotation": {"number": 64, "value": 127}, "group": "control_change"}, {"time": 2714, "annotation": {"number": 64, "value": 0}, "group": "control_change"}, {"time": 2719, "annotation": {"number": 64, "value": 127}, "group": "control_change"}, {"time": 2719, "annotation": {"number": 64, "value": 0}, "group": "control_change"}, {"time": 2729, "annotation": {"number": 64, "value": 0}, "group": "control_change"}, {"time": 2732, "annotation": {"number": 64, "value": 127}, "group": "control_change"}, {"time": 2740, "annotation": {"number": 64, "value": 0}, "group": "control_change"}, {"time": 2748, "annotation": {"number": 64, "value": 127}, "group": "control_change"}, {"time": 2765, "annotation": {"number": 64, "value": 0}, "group": "control_change"}, {"time": 2770, "annotation": {"number": 64, "value": 127}, "group": "control_change"}, {"time": 2787, "annotation": {"number": 64, "value": 0}, "group": "control_change"}, {"time": 2792, "annotation": {"number": 64, "value": 127}, "group": "control_change"}, {"time": 2810, "annotation": {"number": 64, "value": 0}, "group": "control_change"}, {"time": 2815, "annotation": {"number": 64, "value": 127}, "group": "control_change"}, {"time": 2835, "annotation": {"number": 64, "value": 0}, "group": "control_change"}, {"time": 2884, "annotation": {"number": 64, "value": 127}, "group": "control_change"}, {"time": 2906, "annotation": {"number": 64, "value": 0}, "group": "control_change"}, {"time": 2910, "annotation": {"number": 64, "value": 127}, "group": "control_change"}, {"time": 2930, "annotation": {"number": 64, "value": 0}, "group": "control_change"}, {"time": 2934, "annotation": {"number": 64, "value": 127}, "group": "control_change"}, {"time": 2953, "annotation": {"number": 64, "value": 0}, "group": "control_change"}, {"time": 2957, "annotation": {"number": 64, "value": 127}, "group": "control_change"}, {"time": 2980, "annotation": {"number": 64, "value": 0}, "group": "control_change"}, {"time": 2982, "annotation": {"number": 64, "value": 127}, "group": "control_change"}, {"time": 3003, "annotation": {"number": 64, "value": 0}, "group": "control_change"}, {"time": 3007, "annotation": {"number": 64, "value": 127}, "group": "control_change"}, {"time": 3027, "annotation": {"number": 64, "value": 0}, "group": "control_change"}, {"time": 3031, "annotation": {"number": 64, "value": 127}, "group": "control_change"}, {"time": 3049, "annotation": {"number": 64, "value": 0}, "group": "control_change"}, {"time": 3054, "annotation": {"number": 64, "value": 127}, "group": "control_change"}, {"time": 3075, "annotation": {"number": 64, "value": 0}, "group": "control_change"}, {"time": 3080, "annotation": {"number": 64, "value": 127}, "group": "control_change"}, {"time": 3080, "annotation": {"number": 64, "value": 0}, "group": "control_change"}, {"time": 3098, "annotation": {"number": 64, "value": 0}, "group": "control_change"}, {"time": 3102, "annotation": {"number": 64, "value": 127}, "group": "control_change"}, {"time": 3123, "annotation": {"number": 64, "value": 0}, "group": "control_change"}, {"time": 3134, "annotation": {"number": 64, "value": 127}, "group": "control_change"}, {"time": 3172, "annotation": {"number": 64, "value": 0}, "group": "control_change"}, {"time": 3176, "annotation": {"number": 64, "value": 127}, "group": "control_change"}, {"time": 3195, "annotation": {"number": 64, "value": 0}, "group": "control_change"}, {"time": 3200, "annotation": {"number": 64, "value": 127}, "group": "control_change"}, {"time": 3207, "annotation": {"number": 64, "value": 0}, "group": "control_change"}, {"time": 3211, "annotation": {"number": 64, "value": 127}, "group": "control_change"}, {"time": 3218, "annotation": {"number": 64, "value": 0}, "group": "control_change"}, {"time": 3246, "annotation": {"number": 64, "value": 127}, "group": "control_change"}, {"time": 3266, "annotation": {"number": 64, "value": 0}, "group": "control_change"}, {"time": 3296, "annotation": {"number": 64, "value": 127}, "group": "control_change"}, {"time": 3308, "annotation": {"number": 64, "value": 0}, "group": "control_change"}, {"time": 3318, "annotation": {"number": 64, "value": 127}, "group": "control_change"}, {"time": 3322, "annotation": {"number": 64, "value": 0}, "group": "control_change"}, {"time": 3397, "annotation": {"number": 64, "value": 127}, "group": "control_change"}, {"time": 3413, "annotation": {"number": 64, "value": 0}, "group": "control_change"}, {"time": 3418, "annotation": {"number": 64, "value": 127}, "group": "control_change"}, {"time": 3418, "annotation": {"number": 64, "value": 0}, "group": "control_change"}, {"time": 3435, "annotation": {"number": 64, "value": 0}, "group": "control_change"}, {"time": 3448, "annotation": {"number": 64, "value": 127}, "group": "control_change"}, {"time": 3461, "annotation": {"number": 64, "value": 127}, "group": "control_change"}, {"time": 3461, "annotation": {"number": 64, "value": 0}, "group": "control_change"}, {"time": 3483, "annotation": {"number": 64, "value": 0}, "group": "control_change"}, {"time": 3487, "annotation": {"number": 64, "value": 127}, "group": "control_change"}, {"time": 3507, "annotation": {"number": 64, "value": 0}, "group": "control_change"}, {"time": 3513, "annotation": {"number": 64, "value": 127}, "group": "control_change"}, {"time": 3530, "annotation": {"number": 64, "value": 0}, "group": "control_change"}, {"time": 3535, "annotation": {"number": 64, "value": 127}, "group": "control_change"}, {"time": 3556, "annotation": {"number": 64, "value": 0}, "group": "control_change"}, {"time": 3563, "annotation": {"number": 64, "value": 127}, "group": "control_change"}, {"time": 3580, "annotation": {"number": 64, "value": 0}, "group": "control_change"}, {"time": 3584, "annotation": {"number": 64, "value": 127}, "group": "control_change"}, {"time": 3604, "annotation": {"number": 64, "value": 0}, "group": "control_change"}, {"time": 3606, "annotation": {"number": 64, "value": 127}, "group": "control_change"}, {"time": 3628, "annotation": {"number": 64, "value": 0}, "group": "control_change"}, {"time": 3633, "annotation": {"number": 64, "value": 127}, "group": "control_change"}, {"time": 3651, "annotation": {"number": 64, "value": 0}, "group": "control_change"}, {"time": 3657, "annotation": {"number": 64, "value": 127}, "group": "control_change"}, {"time": 3674, "annotation": {"number": 64, "value": 0}, "group": "control_change"}, {"time": 3679, "annotation": {"number": 64, "value": 127}, "group": "control_change"}, {"time": 3679, "annotation": {"number": 64, "value": 0}, "group": "control_change"}, {"time": 3689, "annotation": {"number": 64, "value": 0}, "group": "control_change"}, {"time": 3692, "annotation": {"number": 64, "value": 127}, "group": "control_change"}, {"time": 3700, "annotation": {"number": 64, "value": 0}, "group": "control_change"}, {"time": 3708, "annotation": {"number": 64, "value": 127}, "group": "control_change"}, {"time": 3725, "annotation": {"number": 64, "value": 0}, "group": "control_change"}, {"time": 3730, "annotation": {"number": 64, "value": 127}, "group": "control_change"}, {"time": 3747, "annotation": {"number": 64, "value": 0}, "group": "control_change"}, {"time": 3752, "annotation": {"number": 64, "value": 127}, "group": "control_change"}, {"time": 3770, "annotation": {"number": 64, "value": 0}, "group": "control_change"}, {"time": 3775, "annotation": {"number": 64, "value": 127}, "group": "control_change"}, {"time": 3795, "annotation": {"number": 64, "value": 0}, "group": "control_change"}, {"time": 3822, "annotation": {"number": 64, "value": 127}, "group": "control_change"}, {"time": 3844, "annotation": {"number": 64, "value": 0}, "group": "control_change"}, {"time": 3851, "annotation": {"number": 64, "value": 127}, "group": "control_change"}, {"time": 3868, "annotation": {"number": 64, "value": 0}, "group": "control_change"}, {"time": 3872, "annotation": {"number": 64, "value": 127}, "group": "control_change"}, {"time": 3892, "annotation": {"number": 64, "value": 0}, "group": "control_change"}, {"time": 3894, "annotation": {"number": 64, "value": 127}, "group": "control_change"}, {"time": 3916, "annotation": {"number": 64, "value": 0}, "group": "control_change"}, {"time": 3921, "annotation": {"number": 64, "value": 127}, "group": "control_change"}, {"time": 3939, "annotation": {"number": 64, "value": 0}, "group": "control_change"}, {"time": 3945, "annotation": {"number": 64, "value": 127}, "group": "control_change"}, {"time": 3962, "annotation": {"number": 64, "value": 0}, "group": "control_change"}, {"time": 3967, "annotation": {"number": 64, "value": 127}, "group": "control_change"}, {"time": 3967, "annotation": {"number": 64, "value": 0}, "group": "control_change"}, {"time": 3977, "annotation": {"number": 64, "value": 0}, "group": "control_change"}, {"time": 3980, "annotation": {"number": 64, "value": 127}, "group": "control_change"}, {"time": 3988, "annotation": {"number": 64, "value": 0}, "group": "control_change"}, {"time": 3996, "annotation": {"number": 64, "value": 127}, "group": "control_change"}, {"time": 4013, "annotation": {"number": 64, "value": 0}, "group": "control_change"}, {"time": 4018, "annotation": {"number": 64, "value": 127}, "group": "control_change"}, {"time": 4035, "annotation": {"number": 64, "value": 0}, "group": "control_change"}, {"time": 4040, "annotation": {"number": 64, "value": 127}, "group": "control_change"}, {"time": 4058, "annotation": {"number": 64, "value": 0}, "group": "control_change"}, {"time": 4063, "annotation": {"number": 64, "value": 127}, "group": "control_change"}, {"time": 4083, "annotation": {"number": 64, "value": 0}, "group": "control_change"}, {"time": 4110, "annotation": {"number": 64, "value": 127}, "group": "control_change"}, {"time": 4132, "annotation": {"number": 64, "value": 0}, "group": "control_change"}, {"time": 4139, "annotation": {"number": 64, "value": 127}, "group": "control_change"}, {"time": 4156, "annotation": {"number": 64, "value": 0}, "group": "control_change"}, {"time": 4160, "annotation": {"number": 64, "value": 127}, "group": "control_change"}, {"time": 4180, "annotation": {"number": 64, "value": 0}, "group": "control_change"}, {"time": 4182, "annotation": {"number": 64, "value": 127}, "group": "control_change"}, {"time": 4204, "annotation": {"number": 64, "value": 0}, "group": "control_change"}, {"time": 4209, "annotation": {"number": 64, "value": 127}, "group": "control_change"}, {"time": 4227, "annotation": {"number": 64, "value": 0}, "group": "control_change"}, {"time": 4233, "annotation": {"number": 64, "value": 127}, "group": "control_change"}, {"time": 4250, "annotation": {"number": 64, "value": 0}, "group": "control_change"}, {"time": 4255, "annotation": {"number": 64, "value": 127}, "group": "control_change"}, {"time": 4255, "annotation": {"number": 64, "value": 0}, "group": "control_change"}, {"time": 4265, "annotation": {"number": 64, "value": 0}, "group": "control_change"}, {"time": 4268, "annotation": {"number": 64, "value": 127}, "group": "control_change"}, {"time": 4276, "annotation": {"number": 64, "value": 0}, "group": "control_change"}, {"time": 4284, "annotation": {"number": 64, "value": 127}, "group": "control_change"}, {"time": 4301, "annotation": {"number": 64, "value": 0}, "group": "control_change"}, {"time": 4306, "annotation": {"number": 64, "value": 127}, "group": "control_change"}, {"time": 4323, "annotation": {"number": 64, "value": 0}, "group": "control_change"}, {"time": 4328, "annotation": {"number": 64, "value": 127}, "group": "control_change"}, {"time": 4346, "annotation": {"number": 64, "value": 0}, "group": "control_change"}, {"time": 4351, "annotation": {"number": 64, "value": 127}, "group": "control_change"}, {"time": 4371, "annotation": {"number": 64, "value": 0}, "group": "control_change"}, {"time": 4398, "annotation": {"number": 64, "value": 127}, "group": "control_change"}, {"time": 4420, "annotation": {"number": 64, "value": 0}, "group": "control_change"}, {"time": 4427, "annotation": {"number": 64, "value": 127}, "group": "control_change"}, {"time": 4444, "annotation": {"number": 64, "value": 0}, "group": "control_change"}, {"time": 4448, "annotation": {"number": 64, "value": 127}, "group": "control_change"}, {"time": 4468, "annotation": {"number": 64, "value": 0}, "group": "control_change"}, {"time": 4470, "annotation": {"number": 64, "value": 127}, "group": "control_change"}, {"time": 4492, "annotation": {"number": 64, "value": 0}, "group": "control_change"}, {"time": 4497, "annotation": {"number": 64, "value": 127}, "group": "control_change"}, {"time": 4515, "annotation": {"number": 64, "value": 0}, "group": "control_change"}, {"time": 4521, "annotation": {"number": 64, "value": 127}, "group": "control_change"}, {"time": 4538, "annotation": {"number": 64, "value": 0}, "group": "control_change"}, {"time": 4543, "annotation": {"number": 64, "value": 127}, "group": "control_change"}, {"time": 4543, "annotation": {"number": 64, "value": 0}, "group": "control_change"}, {"time": 4553, "annotation": {"number": 64, "value": 0}, "group": "control_change"}, {"time": 4556, "annotation": {"number": 64, "value": 127}, "group": "control_change"}, {"time": 4564, "annotation": {"number": 64, "value": 0}, "group": "control_change"}, {"time": 4572, "annotation": {"number": 64, "value": 127}, "group": "control_change"}, {"time": 4589, "annotation": {"number": 64, "value": 0}, "group": "control_change"}, {"time": 4594, "annotation": {"number": 64, "value": 127}, "group": "control_change"}, {"time": 4611, "annotation": {"number": 64, "value": 0}, "group": "control_change"}, {"time": 4616, "annotation": {"number": 64, "value": 127}, "group": "control_change"}, {"time": 4634, "annotation": {"number": 64, "value": 0}, "group": "control_change"}, {"time": 4639, "annotation": {"number": 64, "value": 127}, "group": "control_change"}, {"time": 4659, "annotation": {"number": 64, "value": 0}, "group": "control_change"}, {"time": 4686, "annotation": {"number": 64, "value": 127}, "group": "control_change"}, {"time": 4708, "annotation": {"number": 64, "value": 0}, "group": "control_change"}]}]}