{"metadata": {"schema_version": "0.2", "title": "None", "source_filename": "267.mid", "source_format": "midi"}, "resolution": 12, "tempos": [{"time": 0, "qpm": 55.00000458333371}], "time_signatures": [{"time": 0, "numerator": 4, "denominator": 4}], "tracks": [{"program": 0, "is_drum": false, "name": "MELODY", "notes": [{"time": 236, "pitch": 64, "duration": 11, "velocity": 110}, {"time": 247, "pitch": 69, "duration": 10, "velocity": 113}, {"time": 257, "pitch": 71, "duration": 6, "velocity": 114}, {"time": 263, "pitch": 69, "duration": 4, "velocity": 88}, {"time": 266, "pitch": 71, "duration": 7, "velocity": 110}, {"time": 272, "pitch": 73, "duration": 9, "velocity": 91}, {"time": 281, "pitch": 71, "duration": 6, "velocity": 104}, {"time": 287, "pitch": 69, "duration": 3, "velocity": 84}, {"time": 290, "pitch": 73, "duration": 15, "velocity": 109}, {"time": 305, "pitch": 68, "duration": 6, "velocity": 113}, {"time": 311, "pitch": 66, "duration": 3, "velocity": 97}, {"time": 314, "pitch": 68, "duration": 6, "velocity": 106}, {"time": 320, "pitch": 69, "duration": 6, "velocity": 96}, {"time": 326, "pitch": 66, "duration": 15, "velocity": 100}, {"time": 341, "pitch": 66, "duration": 7, "velocity": 113}, {"time": 347, "pitch": 71, "duration": 6, "velocity": 102}, {"time": 353, "pitch": 73, "duration": 6, "velocity": 106}, {"time": 359, "pitch": 71, "duration": 3, "velocity": 91}, {"time": 362, "pitch": 73, "duration": 6, "velocity": 103}, {"time": 368, "pitch": 74, "duration": 9, "velocity": 100}, {"time": 377, "pitch": 73, "duration": 6, "velocity": 116}, {"time": 383, "pitch": 71, "duration": 3, "velocity": 91}, {"time": 386, "pitch": 74, "duration": 15, "velocity": 107}, {"time": 401, "pitch": 69, "duration": 6, "velocity": 110}, {"time": 407, "pitch": 68, "duration": 3, "velocity": 93}, {"time": 410, "pitch": 69, "duration": 6, "velocity": 113}, {"time": 416, "pitch": 71, "duration": 6, "velocity": 94}, {"time": 422, "pitch": 68, "duration": 15, "velocity": 97}, {"time": 437, "pitch": 64, "duration": 7, "velocity": 102}, {"time": 443, "pitch": 69, "duration": 7, "velocity": 89}, {"time": 449, "pitch": 71, "duration": 6, "velocity": 92}, {"time": 455, "pitch": 69, "duration": 4, "velocity": 85}, {"time": 458, "pitch": 71, "duration": 6, "velocity": 94}, {"time": 464, "pitch": 73, "duration": 9, "velocity": 97}, {"time": 473, "pitch": 71, "duration": 6, "velocity": 98}, {"time": 479, "pitch": 69, "duration": 3, "velocity": 87}, {"time": 482, "pitch": 73, "duration": 15, "velocity": 100}, {"time": 497, "pitch": 68, "duration": 6, "velocity": 113}, {"time": 503, "pitch": 66, "duration": 3, "velocity": 100}, {"time": 506, "pitch": 68, "duration": 6, "velocity": 113}, {"time": 512, "pitch": 69, "duration": 6, "velocity": 114}, {"time": 518, "pitch": 66, "duration": 15, "velocity": 109}, {"time": 533, "pitch": 66, "duration": 6, "velocity": 91}, {"time": 539, "pitch": 71, "duration": 6, "velocity": 89}, {"time": 545, "pitch": 73, "duration": 6, "velocity": 95}, {"time": 551, "pitch": 71, "duration": 3, "velocity": 89}, {"time": 554, "pitch": 73, "duration": 6, "velocity": 95}, {"time": 560, "pitch": 74, "duration": 9, "velocity": 104}, {"time": 569, "pitch": 73, "duration": 6, "velocity": 103}, {"time": 575, "pitch": 71, "duration": 3, "velocity": 94}, {"time": 578, "pitch": 74, "duration": 15, "velocity": 108}, {"time": 593, "pitch": 69, "duration": 6, "velocity": 107}, {"time": 599, "pitch": 68, "duration": 3, "velocity": 93}, {"time": 602, "pitch": 69, "duration": 6, "velocity": 107}, {"time": 608, "pitch": 71, "duration": 6, "velocity": 107}, {"time": 614, "pitch": 68, "duration": 15, "velocity": 106}, {"time": 629, "pitch": 73, "duration": 6, "velocity": 116}, {"time": 635, "pitch": 74, "duration": 6, "velocity": 108}, {"time": 641, "pitch": 76, "duration": 36, "velocity": 113}, {"time": 677, "pitch": 76, "duration": 6, "velocity": 107}, {"time": 683, "pitch": 68, "duration": 6, "velocity": 103}, {"time": 689, "pitch": 69, "duration": 36, "velocity": 98}, {"time": 725, "pitch": 71, "duration": 7, "velocity": 108}, {"time": 731, "pitch": 73, "duration": 7, "velocity": 106}, {"time": 737, "pitch": 74, "duration": 3, "velocity": 110}, {"time": 740, "pitch": 71, "duration": 3, "velocity": 91}, {"time": 743, "pitch": 66, "duration": 4, "velocity": 97}, {"time": 746, "pitch": 74, "duration": 6, "velocity": 93}, {"time": 752, "pitch": 71, "duration": 6, "velocity": 93}, {"time": 758, "pitch": 71, "duration": 3, "velocity": 91}, {"time": 761, "pitch": 74, "duration": 3, "velocity": 90}, {"time": 764, "pitch": 71, "duration": 3, "velocity": 88}, {"time": 767, "pitch": 66, "duration": 4, "velocity": 87}, {"time": 770, "pitch": 74, "duration": 6, "velocity": 91}, {"time": 776, "pitch": 73, "duration": 3, "velocity": 113}, {"time": 779, "pitch": 73, "duration": 3, "velocity": 109}, {"time": 782, "pitch": 74, "duration": 3, "velocity": 107}, {"time": 785, "pitch": 73, "duration": 3, "velocity": 106}, {"time": 788, "pitch": 71, "duration": 3, "velocity": 100}, {"time": 791, "pitch": 71, "duration": 3, "velocity": 107}, {"time": 794, "pitch": 71, "duration": 3, "velocity": 88}, {"time": 797, "pitch": 71, "duration": 3, "velocity": 92}, {"time": 800, "pitch": 69, "duration": 6, "velocity": 92}, {"time": 806, "pitch": 71, "duration": 15, "velocity": 94}, {"time": 821, "pitch": 73, "duration": 6, "velocity": 116}, {"time": 827, "pitch": 74, "duration": 6, "velocity": 108}, {"time": 833, "pitch": 76, "duration": 36, "velocity": 113}, {"time": 869, "pitch": 76, "duration": 6, "velocity": 108}, {"time": 875, "pitch": 68, "duration": 6, "velocity": 109}, {"time": 881, "pitch": 69, "duration": 18, "velocity": 110}, {"time": 899, "pitch": 71, "duration": 7, "velocity": 107}, {"time": 905, "pitch": 73, "duration": 18, "velocity": 97}, {"time": 923, "pitch": 71, "duration": 3, "velocity": 110}, {"time": 926, "pitch": 73, "duration": 3, "velocity": 93}, {"time": 929, "pitch": 74, "duration": 3, "velocity": 113}, {"time": 932, "pitch": 71, "duration": 4, "velocity": 91}, {"time": 935, "pitch": 66, "duration": 3, "velocity": 91}, {"time": 938, "pitch": 74, "duration": 6, "velocity": 91}, {"time": 944, "pitch": 71, "duration": 6, "velocity": 96}, {"time": 950, "pitch": 71, "duration": 3, "velocity": 88}, {"time": 953, "pitch": 74, "duration": 4, "velocity": 91}, {"time": 956, "pitch": 71, "duration": 4, "velocity": 87}, {"time": 959, "pitch": 66, "duration": 4, "velocity": 87}, {"time": 962, "pitch": 74, "duration": 6, "velocity": 88}, {"time": 968, "pitch": 73, "duration": 3, "velocity": 86}, {"time": 971, "pitch": 73, "duration": 3, "velocity": 93}, {"time": 974, "pitch": 74, "duration": 3, "velocity": 93}, {"time": 977, "pitch": 76, "duration": 3, "velocity": 104}, {"time": 980, "pitch": 76, "duration": 3, "velocity": 88}, {"time": 983, "pitch": 76, "duration": 3, "velocity": 91}, {"time": 986, "pitch": 76, "duration": 3, "velocity": 90}, {"time": 989, "pitch": 76, "duration": 3, "velocity": 98}, {"time": 992, "pitch": 78, "duration": 9, "velocity": 109}, {"time": 1001, "pitch": 76, "duration": 12, "velocity": 107}, {"time": 1013, "pitch": 76, "duration": 6, "velocity": 114}, {"time": 1019, "pitch": 81, "duration": 6, "velocity": 114}, {"time": 1025, "pitch": 78, "duration": 9, "velocity": 109}, {"time": 1034, "pitch": 76, "duration": 24, "velocity": 107}, {"time": 1058, "pitch": 76, "duration": 6, "velocity": 104}, {"time": 1064, "pitch": 73, "duration": 3, "velocity": 116}, {"time": 1067, "pitch": 71, "duration": 3, "velocity": 104}, {"time": 1070, "pitch": 69, "duration": 3, "velocity": 92}, {"time": 1073, "pitch": 71, "duration": 4, "velocity": 114}, {"time": 1076, "pitch": 69, "duration": 4, "velocity": 96}, {"time": 1079, "pitch": 68, "duration": 3, "velocity": 109}, {"time": 1082, "pitch": 69, "duration": 3, "velocity": 110}, {"time": 1085, "pitch": 68, "duration": 3, "velocity": 97}, {"time": 1088, "pitch": 69, "duration": 4, "velocity": 102}, {"time": 1091, "pitch": 68, "duration": 3, "velocity": 100}, {"time": 1094, "pitch": 69, "duration": 3, "velocity": 110}, {"time": 1097, "pitch": 73, "duration": 4, "velocity": 97}, {"time": 1100, "pitch": 68, "duration": 6, "velocity": 93}, {"time": 1106, "pitch": 69, "duration": 9, "velocity": 102}, {"time": 1115, "pitch": 81, "duration": 6, "velocity": 110}, {"time": 1121, "pitch": 81, "duration": 9, "velocity": 113}, {"time": 1130, "pitch": 78, "duration": 24, "velocity": 113}, {"time": 1154, "pitch": 78, "duration": 6, "velocity": 109}, {"time": 1160, "pitch": 73, "duration": 3, "velocity": 113}, {"time": 1163, "pitch": 71, "duration": 4, "velocity": 113}, {"time": 1166, "pitch": 69, "duration": 4, "velocity": 94}, {"time": 1169, "pitch": 71, "duration": 3, "velocity": 110}, {"time": 1172, "pitch": 73, "duration": 3, "velocity": 100}, {"time": 1175, "pitch": 71, "duration": 4, "velocity": 110}, {"time": 1178, "pitch": 73, "duration": 4, "velocity": 100}, {"time": 1181, "pitch": 71, "duration": 3, "velocity": 93}, {"time": 1184, "pitch": 73, "duration": 4, "velocity": 103}, {"time": 1187, "pitch": 71, "duration": 3, "velocity": 107}, {"time": 1190, "pitch": 73, "duration": 3, "velocity": 100}, {"time": 1193, "pitch": 76, "duration": 4, "velocity": 113}, {"time": 1196, "pitch": 78, "duration": 6, "velocity": 109}, {"time": 1202, "pitch": 76, "duration": 9, "velocity": 114}, {"time": 1211, "pitch": 81, "duration": 6, "velocity": 114}, {"time": 1217, "pitch": 78, "duration": 9, "velocity": 109}, {"time": 1226, "pitch": 76, "duration": 24, "velocity": 107}, {"time": 1250, "pitch": 76, "duration": 6, "velocity": 104}, {"time": 1256, "pitch": 73, "duration": 3, "velocity": 116}, {"time": 1259, "pitch": 71, "duration": 3, "velocity": 104}, {"time": 1262, "pitch": 69, "duration": 3, "velocity": 92}, {"time": 1265, "pitch": 71, "duration": 4, "velocity": 114}, {"time": 1268, "pitch": 69, "duration": 4, "velocity": 96}, {"time": 1271, "pitch": 68, "duration": 3, "velocity": 109}, {"time": 1274, "pitch": 69, "duration": 3, "velocity": 110}, {"time": 1277, "pitch": 68, "duration": 3, "velocity": 97}, {"time": 1280, "pitch": 69, "duration": 4, "velocity": 102}, {"time": 1283, "pitch": 68, "duration": 3, "velocity": 100}, {"time": 1286, "pitch": 69, "duration": 3, "velocity": 110}, {"time": 1289, "pitch": 73, "duration": 4, "velocity": 97}, {"time": 1292, "pitch": 68, "duration": 6, "velocity": 93}, {"time": 1298, "pitch": 69, "duration": 9, "velocity": 102}, {"time": 1307, "pitch": 81, "duration": 6, "velocity": 110}, {"time": 1313, "pitch": 81, "duration": 9, "velocity": 113}, {"time": 1322, "pitch": 78, "duration": 27, "velocity": 113}, {"time": 1349, "pitch": 78, "duration": 6, "velocity": 119}, {"time": 1355, "pitch": 81, "duration": 6, "velocity": 114}, {"time": 1361, "pitch": 78, "duration": 10, "velocity": 116}, {"time": 1370, "pitch": 76, "duration": 15, "velocity": 113}, {"time": 1385, "pitch": 78, "duration": 12, "velocity": 119}, {"time": 1397, "pitch": 78, "duration": 6, "velocity": 119}, {"time": 1403, "pitch": 83, "duration": 6, "velocity": 114}, {"time": 1409, "pitch": 82, "duration": 9, "velocity": 123}, {"time": 1418, "pitch": 78, "duration": 24, "velocity": 119}, {"time": 1442, "pitch": 78, "duration": 6, "velocity": 119}, {"time": 1448, "pitch": 75, "duration": 3, "velocity": 119}, {"time": 1451, "pitch": 73, "duration": 3, "velocity": 116}, {"time": 1454, "pitch": 71, "duration": 3, "velocity": 98}, {"time": 1457, "pitch": 70, "duration": 3, "velocity": 106}, {"time": 1460, "pitch": 71, "duration": 4, "velocity": 91}, {"time": 1463, "pitch": 70, "duration": 4, "velocity": 103}, {"time": 1466, "pitch": 71, "duration": 4, "velocity": 108}, {"time": 1469, "pitch": 70, "duration": 4, "velocity": 106}, {"time": 1472, "pitch": 71, "duration": 3, "velocity": 96}, {"time": 1475, "pitch": 70, "duration": 3, "velocity": 103}, {"time": 1478, "pitch": 71, "duration": 3, "velocity": 94}, {"time": 1481, "pitch": 75, "duration": 3, "velocity": 119}, {"time": 1484, "pitch": 70, "duration": 6, "velocity": 91}, {"time": 1490, "pitch": 71, "duration": 9, "velocity": 100}, {"time": 1499, "pitch": 83, "duration": 6, "velocity": 98}, {"time": 1505, "pitch": 83, "duration": 9, "velocity": 116}, {"time": 1514, "pitch": 80, "duration": 6, "velocity": 116}, {"time": 1520, "pitch": 78, "duration": 3, "velocity": 97}, {"time": 1523, "pitch": 76, "duration": 15, "velocity": 107}, {"time": 1538, "pitch": 80, "duration": 6, "velocity": 119}, {"time": 1544, "pitch": 75, "duration": 3, "velocity": 116}, {"time": 1547, "pitch": 73, "duration": 3, "velocity": 119}, {"time": 1550, "pitch": 71, "duration": 3, "velocity": 113}, {"time": 1553, "pitch": 73, "duration": 3, "velocity": 116}, {"time": 1556, "pitch": 75, "duration": 4, "velocity": 116}, {"time": 1559, "pitch": 73, "duration": 3, "velocity": 113}, {"time": 1562, "pitch": 75, "duration": 3, "velocity": 109}, {"time": 1565, "pitch": 73, "duration": 3, "velocity": 113}, {"time": 1568, "pitch": 75, "duration": 3, "velocity": 91}, {"time": 1571, "pitch": 73, "duration": 3, "velocity": 106}, {"time": 1574, "pitch": 75, "duration": 3, "velocity": 116}, {"time": 1577, "pitch": 76, "duration": 3, "velocity": 117}, {"time": 1580, "pitch": 78, "duration": 3, "velocity": 116}, {"time": 1583, "pitch": 76, "duration": 3, "velocity": 116}, {"time": 1586, "pitch": 78, "duration": 3, "velocity": 116}, {"time": 1589, "pitch": 76, "duration": 3, "velocity": 113}, {"time": 1592, "pitch": 78, "duration": 3, "velocity": 116}, {"time": 1595, "pitch": 76, "duration": 3, "velocity": 117}, {"time": 1598, "pitch": 78, "duration": 3, "velocity": 97}, {"time": 1601, "pitch": 78, "duration": 33, "velocity": 113}, {"time": 1634, "pitch": 78, "duration": 6, "velocity": 119}, {"time": 1640, "pitch": 75, "duration": 3, "velocity": 116}, {"time": 1643, "pitch": 73, "duration": 3, "velocity": 119}, {"time": 1646, "pitch": 71, "duration": 3, "velocity": 114}, {"time": 1649, "pitch": 70, "duration": 3, "velocity": 113}, {"time": 1652, "pitch": 71, "duration": 4, "velocity": 104}, {"time": 1655, "pitch": 70, "duration": 4, "velocity": 113}, {"time": 1658, "pitch": 71, "duration": 4, "velocity": 107}, {"time": 1661, "pitch": 70, "duration": 4, "velocity": 113}, {"time": 1664, "pitch": 71, "duration": 3, "velocity": 104}, {"time": 1667, "pitch": 70, "duration": 3, "velocity": 113}, {"time": 1670, "pitch": 71, "duration": 3, "velocity": 91}, {"time": 1673, "pitch": 75, "duration": 3, "velocity": 119}, {"time": 1676, "pitch": 70, "duration": 6, "velocity": 119}, {"time": 1682, "pitch": 71, "duration": 15, "velocity": 114}, {"time": 1697, "pitch": 83, "duration": 18, "velocity": 116}, {"time": 1715, "pitch": 86, "duration": 3, "velocity": 116}, {"time": 1718, "pitch": 85, "duration": 6, "velocity": 113}, {"time": 1724, "pitch": 83, "duration": 12, "velocity": 117}, {"time": 1736, "pitch": 80, "duration": 3, "velocity": 97}, {"time": 1739, "pitch": 78, "duration": 12, "velocity": 109}, {"time": 1751, "pitch": 80, "duration": 3, "velocity": 103}, {"time": 1754, "pitch": 78, "duration": 9, "velocity": 95}, {"time": 1763, "pitch": 75, "duration": 3, "velocity": 116}, {"time": 1766, "pitch": 73, "duration": 34, "velocity": 116}, {"time": 1841, "pitch": 78, "duration": 12, "velocity": 100}, {"time": 1853, "pitch": 83, "duration": 12, "velocity": 94}, {"time": 1865, "pitch": 85, "duration": 6, "velocity": 103}, {"time": 1871, "pitch": 83, "duration": 4, "velocity": 88}, {"time": 1874, "pitch": 85, "duration": 6, "velocity": 97}, {"time": 1880, "pitch": 87, "duration": 9, "velocity": 103}, {"time": 1889, "pitch": 85, "duration": 6, "velocity": 106}, {"time": 1895, "pitch": 83, "duration": 3, "velocity": 88}, {"time": 1898, "pitch": 87, "duration": 15, "velocity": 97}, {"time": 1913, "pitch": 82, "duration": 6, "velocity": 116}, {"time": 1919, "pitch": 80, "duration": 3, "velocity": 95}, {"time": 1922, "pitch": 82, "duration": 6, "velocity": 97}, {"time": 1928, "pitch": 83, "duration": 6, "velocity": 107}, {"time": 1934, "pitch": 80, "duration": 15, "velocity": 106}, {"time": 1949, "pitch": 80, "duration": 6, "velocity": 116}, {"time": 1955, "pitch": 85, "duration": 6, "velocity": 109}, {"time": 1961, "pitch": 87, "duration": 6, "velocity": 116}, {"time": 1967, "pitch": 85, "duration": 3, "velocity": 100}, {"time": 1970, "pitch": 87, "duration": 6, "velocity": 109}, {"time": 1976, "pitch": 88, "duration": 9, "velocity": 110}, {"time": 1985, "pitch": 87, "duration": 6, "velocity": 116}, {"time": 1991, "pitch": 85, "duration": 3, "velocity": 103}, {"time": 1994, "pitch": 88, "duration": 15, "velocity": 114}, {"time": 2009, "pitch": 83, "duration": 7, "velocity": 98}, {"time": 2015, "pitch": 82, "duration": 6, "velocity": 106}, {"time": 2021, "pitch": 83, "duration": 6, "velocity": 104}, {"time": 2027, "pitch": 85, "duration": 6, "velocity": 103}, {"time": 2033, "pitch": 82, "duration": 31, "velocity": 109}]}, {"program": 0, "is_drum": false, "name": "PIANO", "notes": [{"time": 257, "pitch": 45, "duration": 39, "velocity": 77}, {"time": 263, "pitch": 52, "duration": 33, "velocity": 68}, {"time": 269, "pitch": 57, "duration": 26, "velocity": 65}, {"time": 275, "pitch": 64, "duration": 30, "velocity": 71}, {"time": 305, "pitch": 42, "duration": 38, "velocity": 78}, {"time": 311, "pitch": 49, "duration": 32, "velocity": 67}, {"time": 317, "pitch": 57, "duration": 6, "velocity": 78}, {"time": 323, "pitch": 54, "duration": 19, "velocity": 81}, {"time": 353, "pitch": 47, "duration": 39, "velocity": 75}, {"time": 359, "pitch": 54, "duration": 34, "velocity": 73}, {"time": 365, "pitch": 59, "duration": 27, "velocity": 70}, {"time": 371, "pitch": 62, "duration": 31, "velocity": 80}, {"time": 401, "pitch": 52, "duration": 40, "velocity": 83}, {"time": 407, "pitch": 59, "duration": 33, "velocity": 74}, {"time": 413, "pitch": 64, "duration": 25, "velocity": 78}, {"time": 419, "pitch": 68, "duration": 31, "velocity": 84}, {"time": 449, "pitch": 45, "duration": 42, "velocity": 80}, {"time": 455, "pitch": 52, "duration": 36, "velocity": 70}, {"time": 461, "pitch": 61, "duration": 6, "velocity": 82}, {"time": 467, "pitch": 57, "duration": 6, "velocity": 40}, {"time": 473, "pitch": 64, "duration": 6, "velocity": 84}, {"time": 479, "pitch": 57, "duration": 10, "velocity": 40}, {"time": 485, "pitch": 61, "duration": 6, "velocity": 80}, {"time": 491, "pitch": 59, "duration": 7, "velocity": 70}, {"time": 497, "pitch": 42, "duration": 41, "velocity": 82}, {"time": 503, "pitch": 49, "duration": 36, "velocity": 70}, {"time": 509, "pitch": 57, "duration": 6, "velocity": 82}, {"time": 515, "pitch": 54, "duration": 6, "velocity": 34}, {"time": 521, "pitch": 61, "duration": 6, "velocity": 82}, {"time": 527, "pitch": 54, "duration": 12, "velocity": 71}, {"time": 533, "pitch": 57, "duration": 7, "velocity": 83}, {"time": 539, "pitch": 59, "duration": 7, "velocity": 86}, {"time": 545, "pitch": 47, "duration": 41, "velocity": 81}, {"time": 551, "pitch": 54, "duration": 8, "velocity": 78}, {"time": 557, "pitch": 62, "duration": 6, "velocity": 88}, {"time": 563, "pitch": 54, "duration": 7, "velocity": 34}, {"time": 569, "pitch": 59, "duration": 7, "velocity": 78}, {"time": 575, "pitch": 54, "duration": 12, "velocity": 65}, {"time": 581, "pitch": 62, "duration": 6, "velocity": 87}, {"time": 587, "pitch": 59, "duration": 6, "velocity": 76}, {"time": 593, "pitch": 52, "duration": 7, "velocity": 89}, {"time": 599, "pitch": 59, "duration": 35, "velocity": 66}, {"time": 605, "pitch": 69, "duration": 6, "velocity": 79}, {"time": 611, "pitch": 64, "duration": 5, "velocity": 61}, {"time": 617, "pitch": 68, "duration": 12, "velocity": 83}, {"time": 629, "pitch": 64, "duration": 11, "velocity": 69}, {"time": 635, "pitch": 50, "duration": 4, "velocity": 86}, {"time": 641, "pitch": 49, "duration": 20, "velocity": 86}, {"time": 644, "pitch": 56, "duration": 17, "velocity": 72}, {"time": 647, "pitch": 61, "duration": 14, "velocity": 84}, {"time": 650, "pitch": 68, "duration": 11, "velocity": 89}, {"time": 665, "pitch": 49, "duration": 18, "velocity": 84}, {"time": 668, "pitch": 56, "duration": 14, "velocity": 72}, {"time": 671, "pitch": 61, "duration": 10, "velocity": 79}, {"time": 674, "pitch": 68, "duration": 13, "velocity": 93}, {"time": 683, "pitch": 64, "duration": 7, "velocity": 83}, {"time": 689, "pitch": 42, "duration": 21, "velocity": 82}, {"time": 692, "pitch": 49, "duration": 19, "velocity": 72}, {"time": 695, "pitch": 54, "duration": 17, "velocity": 81}, {"time": 698, "pitch": 66, "duration": 8, "velocity": 86}, {"time": 704, "pitch": 61, "duration": 18, "velocity": 80}, {"time": 710, "pitch": 57, "duration": 9, "velocity": 79}, {"time": 713, "pitch": 42, "duration": 18, "velocity": 78}, {"time": 716, "pitch": 49, "duration": 15, "velocity": 76}, {"time": 719, "pitch": 54, "duration": 12, "velocity": 83}, {"time": 722, "pitch": 57, "duration": 4, "velocity": 74}, {"time": 725, "pitch": 66, "duration": 12, "velocity": 86}, {"time": 731, "pitch": 57, "duration": 5, "velocity": 69}, {"time": 737, "pitch": 47, "duration": 21, "velocity": 85}, {"time": 740, "pitch": 54, "duration": 19, "velocity": 82}, {"time": 743, "pitch": 59, "duration": 16, "velocity": 82}, {"time": 743, "pitch": 71, "duration": 6, "velocity": 89}, {"time": 749, "pitch": 66, "duration": 16, "velocity": 84}, {"time": 755, "pitch": 62, "duration": 9, "velocity": 77}, {"time": 761, "pitch": 47, "duration": 19, "velocity": 81}, {"time": 764, "pitch": 54, "duration": 17, "velocity": 78}, {"time": 767, "pitch": 59, "duration": 14, "velocity": 81}, {"time": 770, "pitch": 71, "duration": 11, "velocity": 86}, {"time": 779, "pitch": 66, "duration": 7, "velocity": 81}, {"time": 782, "pitch": 62, "duration": 3, "velocity": 81}, {"time": 785, "pitch": 52, "duration": 22, "velocity": 81}, {"time": 788, "pitch": 59, "duration": 22, "velocity": 83}, {"time": 791, "pitch": 64, "duration": 8, "velocity": 86}, {"time": 794, "pitch": 69, "duration": 7, "velocity": 88}, {"time": 800, "pitch": 64, "duration": 6, "velocity": 84}, {"time": 803, "pitch": 69, "duration": 3, "velocity": 89}, {"time": 806, "pitch": 71, "duration": 4, "velocity": 84}, {"time": 809, "pitch": 52, "duration": 19, "velocity": 81}, {"time": 809, "pitch": 68, "duration": 11, "velocity": 87}, {"time": 818, "pitch": 59, "duration": 9, "velocity": 75}, {"time": 821, "pitch": 64, "duration": 9, "velocity": 81}, {"time": 827, "pitch": 68, "duration": 5, "velocity": 83}, {"time": 833, "pitch": 49, "duration": 22, "velocity": 95}, {"time": 836, "pitch": 56, "duration": 22, "velocity": 68}, {"time": 839, "pitch": 61, "duration": 6, "velocity": 83}, {"time": 842, "pitch": 68, "duration": 11, "velocity": 106}, {"time": 848, "pitch": 61, "duration": 7, "velocity": 83}, {"time": 854, "pitch": 64, "duration": 11, "velocity": 89}, {"time": 857, "pitch": 49, "duration": 18, "velocity": 83}, {"time": 860, "pitch": 56, "duration": 14, "velocity": 73}, {"time": 863, "pitch": 61, "duration": 10, "velocity": 86}, {"time": 866, "pitch": 68, "duration": 8, "velocity": 113}, {"time": 872, "pitch": 62, "duration": 5, "velocity": 83}, {"time": 875, "pitch": 64, "duration": 3, "velocity": 82}, {"time": 878, "pitch": 68, "duration": 4, "velocity": 86}, {"time": 881, "pitch": 42, "duration": 22, "velocity": 85}, {"time": 884, "pitch": 49, "duration": 22, "velocity": 77}, {"time": 887, "pitch": 54, "duration": 17, "velocity": 82}, {"time": 890, "pitch": 66, "duration": 7, "velocity": 93}, {"time": 896, "pitch": 61, "duration": 8, "velocity": 84}, {"time": 902, "pitch": 57, "duration": 11, "velocity": 86}, {"time": 905, "pitch": 42, "duration": 17, "velocity": 80}, {"time": 908, "pitch": 49, "duration": 15, "velocity": 74}, {"time": 911, "pitch": 54, "duration": 13, "velocity": 84}, {"time": 914, "pitch": 66, "duration": 5, "velocity": 95}, {"time": 917, "pitch": 61, "duration": 4, "velocity": 86}, {"time": 920, "pitch": 57, "duration": 6, "velocity": 86}, {"time": 923, "pitch": 61, "duration": 4, "velocity": 85}, {"time": 926, "pitch": 66, "duration": 4, "velocity": 87}, {"time": 929, "pitch": 47, "duration": 21, "velocity": 87}, {"time": 932, "pitch": 54, "duration": 19, "velocity": 82}, {"time": 935, "pitch": 59, "duration": 6, "velocity": 82}, {"time": 938, "pitch": 66, "duration": 9, "velocity": 83}, {"time": 944, "pitch": 59, "duration": 7, "velocity": 79}, {"time": 947, "pitch": 62, "duration": 2, "velocity": 74}, {"time": 950, "pitch": 66, "duration": 12, "velocity": 88}, {"time": 953, "pitch": 47, "duration": 20, "velocity": 82}, {"time": 956, "pitch": 54, "duration": 18, "velocity": 84}, {"time": 959, "pitch": 59, "duration": 9, "velocity": 81}, {"time": 962, "pitch": 62, "duration": 6, "velocity": 85}, {"time": 968, "pitch": 69, "duration": 7, "velocity": 85}, {"time": 971, "pitch": 59, "duration": 4, "velocity": 81}, {"time": 974, "pitch": 62, "duration": 4, "velocity": 80}, {"time": 977, "pitch": 52, "duration": 21, "velocity": 86}, {"time": 980, "pitch": 59, "duration": 19, "velocity": 82}, {"time": 983, "pitch": 64, "duration": 6, "velocity": 86}, {"time": 986, "pitch": 69, "duration": 7, "velocity": 104}, {"time": 992, "pitch": 64, "duration": 5, "velocity": 84}, {"time": 995, "pitch": 69, "duration": 4, "velocity": 91}, {"time": 998, "pitch": 71, "duration": 24, "velocity": 87}, {"time": 1001, "pitch": 52, "duration": 19, "velocity": 87}, {"time": 1001, "pitch": 64, "duration": 21, "velocity": 86}, {"time": 1001, "pitch": 68, "duration": 21, "velocity": 88}, {"time": 1025, "pitch": 45, "duration": 37, "velocity": 86}, {"time": 1025, "pitch": 61, "duration": 8, "velocity": 90}, {"time": 1025, "pitch": 64, "duration": 8, "velocity": 98}, {"time": 1025, "pitch": 69, "duration": 8, "velocity": 102}, {"time": 1031, "pitch": 52, "duration": 31, "velocity": 38}, {"time": 1037, "pitch": 61, "duration": 7, "velocity": 95}, {"time": 1037, "pitch": 64, "duration": 8, "velocity": 100}, {"time": 1037, "pitch": 69, "duration": 7, "velocity": 104}, {"time": 1043, "pitch": 57, "duration": 6, "velocity": 69}, {"time": 1046, "pitch": 61, "duration": 5, "velocity": 83}, {"time": 1046, "pitch": 64, "duration": 6, "velocity": 87}, {"time": 1046, "pitch": 69, "duration": 6, "velocity": 89}, {"time": 1052, "pitch": 61, "duration": 4, "velocity": 86}, {"time": 1052, "pitch": 64, "duration": 7, "velocity": 88}, {"time": 1052, "pitch": 69, "duration": 6, "velocity": 90}, {"time": 1058, "pitch": 57, "duration": 4, "velocity": 82}, {"time": 1061, "pitch": 61, "duration": 7, "velocity": 106}, {"time": 1061, "pitch": 64, "duration": 11, "velocity": 107}, {"time": 1061, "pitch": 69, "duration": 7, "velocity": 108}, {"time": 1067, "pitch": 44, "duration": 7, "velocity": 79}, {"time": 1073, "pitch": 42, "duration": 42, "velocity": 89}, {"time": 1073, "pitch": 61, "duration": 8, "velocity": 89}, {"time": 1073, "pitch": 66, "duration": 10, "velocity": 89}, {"time": 1073, "pitch": 69, "duration": 9, "velocity": 100}, {"time": 1082, "pitch": 49, "duration": 33, "velocity": 66}, {"time": 1085, "pitch": 61, "duration": 8, "velocity": 95}, {"time": 1085, "pitch": 66, "duration": 8, "velocity": 93}, {"time": 1085, "pitch": 69, "duration": 7, "velocity": 104}, {"time": 1091, "pitch": 54, "duration": 9, "velocity": 75}, {"time": 1094, "pitch": 61, "duration": 5, "velocity": 87}, {"time": 1094, "pitch": 66, "duration": 5, "velocity": 88}, {"time": 1094, "pitch": 69, "duration": 5, "velocity": 93}, {"time": 1100, "pitch": 61, "duration": 7, "velocity": 86}, {"time": 1100, "pitch": 66, "duration": 7, "velocity": 84}, {"time": 1100, "pitch": 69, "duration": 7, "velocity": 87}, {"time": 1106, "pitch": 54, "duration": 4, "velocity": 84}, {"time": 1109, "pitch": 61, "duration": 4, "velocity": 100}, {"time": 1109, "pitch": 66, "duration": 5, "velocity": 93}, {"time": 1109, "pitch": 69, "duration": 4, "velocity": 107}, {"time": 1112, "pitch": 54, "duration": 4, "velocity": 80}, {"time": 1115, "pitch": 61, "duration": 2, "velocity": 84}, {"time": 1115, "pitch": 66, "duration": 3, "velocity": 84}, {"time": 1115, "pitch": 69, "duration": 4, "velocity": 92}, {"time": 1121, "pitch": 47, "duration": 43, "velocity": 85}, {"time": 1121, "pitch": 62, "duration": 10, "velocity": 89}, {"time": 1121, "pitch": 66, "duration": 10, "velocity": 91}, {"time": 1121, "pitch": 69, "duration": 10, "velocity": 94}, {"time": 1130, "pitch": 54, "duration": 34, "velocity": 81}, {"time": 1133, "pitch": 62, "duration": 8, "velocity": 94}, {"time": 1133, "pitch": 66, "duration": 8, "velocity": 90}, {"time": 1133, "pitch": 69, "duration": 7, "velocity": 96}, {"time": 1139, "pitch": 59, "duration": 6, "velocity": 65}, {"time": 1142, "pitch": 62, "duration": 6, "velocity": 92}, {"time": 1142, "pitch": 66, "duration": 6, "velocity": 90}, {"time": 1142, "pitch": 69, "duration": 13, "velocity": 98}, {"time": 1148, "pitch": 62, "duration": 7, "velocity": 78}, {"time": 1148, "pitch": 66, "duration": 7, "velocity": 77}, {"time": 1154, "pitch": 59, "duration": 4, "velocity": 81}, {"time": 1157, "pitch": 62, "duration": 7, "velocity": 96}, {"time": 1157, "pitch": 66, "duration": 7, "velocity": 93}, {"time": 1157, "pitch": 69, "duration": 9, "velocity": 93}, {"time": 1163, "pitch": 59, "duration": 1, "velocity": 87}, {"time": 1169, "pitch": 40, "duration": 23, "velocity": 87}, {"time": 1169, "pitch": 59, "duration": 8, "velocity": 89}, {"time": 1169, "pitch": 64, "duration": 8, "velocity": 94}, {"time": 1169, "pitch": 68, "duration": 8, "velocity": 86}, {"time": 1172, "pitch": 47, "duration": 20, "velocity": 71}, {"time": 1175, "pitch": 52, "duration": 5, "velocity": 85}, {"time": 1178, "pitch": 59, "duration": 8, "velocity": 91}, {"time": 1178, "pitch": 64, "duration": 8, "velocity": 100}, {"time": 1178, "pitch": 68, "duration": 7, "velocity": 87}, {"time": 1184, "pitch": 52, "duration": 4, "velocity": 84}, {"time": 1187, "pitch": 59, "duration": 5, "velocity": 92}, {"time": 1187, "pitch": 64, "duration": 5, "velocity": 104}, {"time": 1187, "pitch": 68, "duration": 4, "velocity": 89}, {"time": 1190, "pitch": 52, "duration": 3, "velocity": 85}, {"time": 1193, "pitch": 40, "duration": 21, "velocity": 93}, {"time": 1193, "pitch": 59, "duration": 8, "velocity": 93}, {"time": 1193, "pitch": 64, "duration": 8, "velocity": 100}, {"time": 1193, "pitch": 68, "duration": 7, "velocity": 90}, {"time": 1199, "pitch": 52, "duration": 5, "velocity": 90}, {"time": 1202, "pitch": 59, "duration": 7, "velocity": 107}, {"time": 1202, "pitch": 64, "duration": 7, "velocity": 116}, {"time": 1202, "pitch": 68, "duration": 6, "velocity": 103}, {"time": 1208, "pitch": 52, "duration": 4, "velocity": 89}, {"time": 1211, "pitch": 59, "duration": 2, "velocity": 107}, {"time": 1211, "pitch": 64, "duration": 5, "velocity": 116}, {"time": 1211, "pitch": 68, "duration": 3, "velocity": 109}, {"time": 1214, "pitch": 52, "duration": 3, "velocity": 88}, {"time": 1217, "pitch": 45, "duration": 22, "velocity": 83}, {"time": 1217, "pitch": 61, "duration": 7, "velocity": 90}, {"time": 1217, "pitch": 64, "duration": 8, "velocity": 98}, {"time": 1217, "pitch": 69, "duration": 7, "velocity": 96}, {"time": 1223, "pitch": 52, "duration": 19, "velocity": 81}, {"time": 1226, "pitch": 61, "duration": 8, "velocity": 95}, {"time": 1226, "pitch": 64, "duration": 7, "velocity": 102}, {"time": 1226, "pitch": 68, "duration": 2, "velocity": 87}, {"time": 1226, "pitch": 69, "duration": 6, "velocity": 108}, {"time": 1232, "pitch": 57, "duration": 4, "velocity": 86}, {"time": 1235, "pitch": 61, "duration": 5, "velocity": 83}, {"time": 1235, "pitch": 69, "duration": 4, "velocity": 87}, {"time": 1238, "pitch": 57, "duration": 4, "velocity": 86}, {"time": 1241, "pitch": 45, "duration": 12, "velocity": 87}, {"time": 1241, "pitch": 61, "duration": 7, "velocity": 95}, {"time": 1241, "pitch": 64, "duration": 7, "velocity": 100}, {"time": 1241, "pitch": 69, "duration": 6, "velocity": 108}, {"time": 1244, "pitch": 52, "duration": 8, "velocity": 84}, {"time": 1247, "pitch": 57, "duration": 5, "velocity": 92}, {"time": 1250, "pitch": 61, "duration": 6, "velocity": 91}, {"time": 1250, "pitch": 64, "duration": 7, "velocity": 100}, {"time": 1250, "pitch": 69, "duration": 7, "velocity": 96}, {"time": 1259, "pitch": 44, "duration": 7, "velocity": 77}, {"time": 1259, "pitch": 61, "duration": 3, "velocity": 91}, {"time": 1259, "pitch": 64, "duration": 5, "velocity": 93}, {"time": 1259, "pitch": 69, "duration": 4, "velocity": 98}, {"time": 1265, "pitch": 42, "duration": 21, "velocity": 87}, {"time": 1265, "pitch": 61, "duration": 7, "velocity": 88}, {"time": 1265, "pitch": 66, "duration": 7, "velocity": 90}, {"time": 1265, "pitch": 69, "duration": 7, "velocity": 104}, {"time": 1271, "pitch": 49, "duration": 13, "velocity": 74}, {"time": 1274, "pitch": 61, "duration": 6, "velocity": 95}, {"time": 1274, "pitch": 66, "duration": 6, "velocity": 93}, {"time": 1274, "pitch": 69, "duration": 6, "velocity": 104}, {"time": 1280, "pitch": 54, "duration": 7, "velocity": 81}, {"time": 1283, "pitch": 61, "duration": 5, "velocity": 90}, {"time": 1283, "pitch": 66, "duration": 5, "velocity": 90}, {"time": 1283, "pitch": 69, "duration": 4, "velocity": 98}, {"time": 1286, "pitch": 49, "duration": 4, "velocity": 78}, {"time": 1289, "pitch": 42, "duration": 21, "velocity": 90}, {"time": 1289, "pitch": 61, "duration": 7, "velocity": 93}, {"time": 1289, "pitch": 66, "duration": 8, "velocity": 91}, {"time": 1289, "pitch": 69, "duration": 7, "velocity": 104}, {"time": 1292, "pitch": 49, "duration": 18, "velocity": 73}, {"time": 1295, "pitch": 54, "duration": 5, "velocity": 83}, {"time": 1298, "pitch": 61, "duration": 7, "velocity": 100}, {"time": 1298, "pitch": 66, "duration": 7, "velocity": 97}, {"time": 1298, "pitch": 69, "duration": 7, "velocity": 104}, {"time": 1304, "pitch": 54, "duration": 4, "velocity": 84}, {"time": 1307, "pitch": 61, "duration": 2, "velocity": 95}, {"time": 1307, "pitch": 66, "duration": 5, "velocity": 97}, {"time": 1307, "pitch": 69, "duration": 4, "velocity": 110}, {"time": 1310, "pitch": 54, "duration": 2, "velocity": 88}, {"time": 1313, "pitch": 47, "duration": 22, "velocity": 88}, {"time": 1313, "pitch": 62, "duration": 8, "velocity": 93}, {"time": 1313, "pitch": 66, "duration": 8, "velocity": 100}, {"time": 1313, "pitch": 69, "duration": 7, "velocity": 96}, {"time": 1316, "pitch": 54, "duration": 16, "velocity": 78}, {"time": 1319, "pitch": 59, "duration": 7, "velocity": 81}, {"time": 1322, "pitch": 62, "duration": 8, "velocity": 96}, {"time": 1322, "pitch": 66, "duration": 7, "velocity": 93}, {"time": 1322, "pitch": 69, "duration": 7, "velocity": 94}, {"time": 1328, "pitch": 59, "duration": 7, "velocity": 81}, {"time": 1331, "pitch": 62, "duration": 14, "velocity": 89}, {"time": 1331, "pitch": 66, "duration": 14, "velocity": 86}, {"time": 1331, "pitch": 69, "duration": 13, "velocity": 91}, {"time": 1334, "pitch": 54, "duration": 4, "velocity": 83}, {"time": 1337, "pitch": 47, "duration": 19, "velocity": 87}, {"time": 1340, "pitch": 54, "duration": 16, "velocity": 81}, {"time": 1343, "pitch": 59, "duration": 7, "velocity": 84}, {"time": 1346, "pitch": 62, "duration": 8, "velocity": 94}, {"time": 1346, "pitch": 66, "duration": 8, "velocity": 91}, {"time": 1346, "pitch": 69, "duration": 7, "velocity": 100}, {"time": 1352, "pitch": 59, "duration": 3, "velocity": 86}, {"time": 1355, "pitch": 62, "duration": 2, "velocity": 94}, {"time": 1355, "pitch": 66, "duration": 6, "velocity": 93}, {"time": 1355, "pitch": 69, "duration": 3, "velocity": 92}, {"time": 1361, "pitch": 40, "duration": 22, "velocity": 88}, {"time": 1361, "pitch": 59, "duration": 8, "velocity": 88}, {"time": 1361, "pitch": 64, "duration": 8, "velocity": 96}, {"time": 1361, "pitch": 68, "duration": 7, "velocity": 89}, {"time": 1364, "pitch": 47, "duration": 21, "velocity": 81}, {"time": 1367, "pitch": 52, "duration": 7, "velocity": 85}, {"time": 1370, "pitch": 59, "duration": 8, "velocity": 89}, {"time": 1370, "pitch": 64, "duration": 8, "velocity": 104}, {"time": 1370, "pitch": 68, "duration": 7, "velocity": 97}, {"time": 1376, "pitch": 52, "duration": 4, "velocity": 82}, {"time": 1379, "pitch": 59, "duration": 5, "velocity": 90}, {"time": 1379, "pitch": 64, "duration": 5, "velocity": 88}, {"time": 1379, "pitch": 68, "duration": 4, "velocity": 86}, {"time": 1382, "pitch": 52, "duration": 2, "velocity": 81}, {"time": 1385, "pitch": 42, "duration": 11, "velocity": 100}, {"time": 1385, "pitch": 54, "duration": 12, "velocity": 113}, {"time": 1385, "pitch": 66, "duration": 12, "velocity": 98}, {"time": 1385, "pitch": 70, "duration": 12, "velocity": 106}, {"time": 1385, "pitch": 73, "duration": 12, "velocity": 113}, {"time": 1385, "pitch": 76, "duration": 12, "velocity": 104}, {"time": 1397, "pitch": 42, "duration": 5, "velocity": 100}, {"time": 1397, "pitch": 54, "duration": 12, "velocity": 113}, {"time": 1400, "pitch": 66, "duration": 9, "velocity": 98}, {"time": 1403, "pitch": 42, "duration": 3, "velocity": 100}, {"time": 1403, "pitch": 73, "duration": 6, "velocity": 106}, {"time": 1406, "pitch": 76, "duration": 3, "velocity": 104}, {"time": 1406, "pitch": 47, "duration": 3, "velocity": 100}, {"time": 1409, "pitch": 35, "duration": 18, "velocity": 100}, {"time": 1409, "pitch": 47, "duration": 18, "velocity": 91}, {"time": 1409, "pitch": 63, "duration": 8, "velocity": 98}, {"time": 1409, "pitch": 66, "duration": 8, "velocity": 108}, {"time": 1409, "pitch": 71, "duration": 7, "velocity": 98}, {"time": 1415, "pitch": 54, "duration": 10, "velocity": 70}, {"time": 1421, "pitch": 63, "duration": 5, "velocity": 100}, {"time": 1421, "pitch": 66, "duration": 6, "velocity": 110}, {"time": 1421, "pitch": 71, "duration": 5, "velocity": 102}, {"time": 1430, "pitch": 35, "duration": 3, "velocity": 100}, {"time": 1431, "pitch": 63, "duration": 1, "velocity": 88}, {"time": 1431, "pitch": 66, "duration": 1, "velocity": 96}, {"time": 1431, "pitch": 71, "duration": 1, "velocity": 88}, {"time": 1436, "pitch": 47, "duration": 3, "velocity": 100}, {"time": 1436, "pitch": 63, "duration": 1, "velocity": 88}, {"time": 1436, "pitch": 66, "duration": 1, "velocity": 96}, {"time": 1436, "pitch": 71, "duration": 2, "velocity": 88}, {"time": 1439, "pitch": 35, "duration": 3, "velocity": 100}, {"time": 1442, "pitch": 54, "duration": 4, "velocity": 86}, {"time": 1445, "pitch": 63, "duration": 5, "velocity": 113}, {"time": 1445, "pitch": 66, "duration": 5, "velocity": 117}, {"time": 1445, "pitch": 71, "duration": 5, "velocity": 108}, {"time": 1448, "pitch": 47, "duration": 2, "velocity": 62}, {"time": 1454, "pitch": 46, "duration": 3, "velocity": 81}, {"time": 1457, "pitch": 32, "duration": 18, "velocity": 100}, {"time": 1457, "pitch": 44, "duration": 44, "velocity": 91}, {"time": 1457, "pitch": 63, "duration": 10, "velocity": 108}, {"time": 1457, "pitch": 68, "duration": 10, "velocity": 113}, {"time": 1457, "pitch": 71, "duration": 10, "velocity": 92}, {"time": 1463, "pitch": 51, "duration": 32, "velocity": 52}, {"time": 1466, "pitch": 56, "duration": 5, "velocity": 86}, {"time": 1469, "pitch": 63, "duration": 8, "velocity": 108}, {"time": 1469, "pitch": 68, "duration": 8, "velocity": 116}, {"time": 1469, "pitch": 71, "duration": 7, "velocity": 102}, {"time": 1475, "pitch": 56, "duration": 10, "velocity": 79}, {"time": 1478, "pitch": 32, "duration": 4, "velocity": 100}, {"time": 1478, "pitch": 63, "duration": 1, "velocity": 91}, {"time": 1478, "pitch": 68, "duration": 1, "velocity": 104}, {"time": 1478, "pitch": 71, "duration": 1, "velocity": 92}, {"time": 1484, "pitch": 32, "duration": 5, "velocity": 100}, {"time": 1484, "pitch": 63, "duration": 7, "velocity": 104}, {"time": 1484, "pitch": 68, "duration": 7, "velocity": 113}, {"time": 1484, "pitch": 71, "duration": 7, "velocity": 104}, {"time": 1490, "pitch": 56, "duration": 5, "velocity": 85}, {"time": 1493, "pitch": 63, "duration": 4, "velocity": 116}, {"time": 1493, "pitch": 68, "duration": 4, "velocity": 117}, {"time": 1493, "pitch": 71, "duration": 4, "velocity": 108}, {"time": 1496, "pitch": 51, "duration": 5, "velocity": 87}, {"time": 1496, "pitch": 56, "duration": 5, "velocity": 64}, {"time": 1497, "pitch": 32, "duration": 2, "velocity": 100}, {"time": 1499, "pitch": 34, "duration": 3, "velocity": 100}, {"time": 1499, "pitch": 63, "duration": 7, "velocity": 110}, {"time": 1499, "pitch": 68, "duration": 7, "velocity": 113}, {"time": 1499, "pitch": 71, "duration": 7, "velocity": 98}, {"time": 1503, "pitch": 35, "duration": 3, "velocity": 100}, {"time": 1505, "pitch": 49, "duration": 18, "velocity": 107}, {"time": 1506, "pitch": 37, "duration": 11, "velocity": 100}, {"time": 1511, "pitch": 56, "duration": 8, "velocity": 84}, {"time": 1517, "pitch": 61, "duration": 8, "velocity": 116}, {"time": 1517, "pitch": 64, "duration": 8, "velocity": 117}, {"time": 1517, "pitch": 68, "duration": 8, "velocity": 108}, {"time": 1523, "pitch": 56, "duration": 13, "velocity": 83}, {"time": 1526, "pitch": 49, "duration": 3, "velocity": 100}, {"time": 1526, "pitch": 61, "duration": 1, "velocity": 98}, {"time": 1526, "pitch": 64, "duration": 1, "velocity": 102}, {"time": 1526, "pitch": 68, "duration": 1, "velocity": 91}, {"time": 1532, "pitch": 37, "duration": 7, "velocity": 100}, {"time": 1532, "pitch": 49, "duration": 3, "velocity": 100}, {"time": 1535, "pitch": 49, "duration": 3, "velocity": 100}, {"time": 1535, "pitch": 61, "duration": 7, "velocity": 108}, {"time": 1535, "pitch": 64, "duration": 7, "velocity": 113}, {"time": 1535, "pitch": 68, "duration": 6, "velocity": 107}, {"time": 1538, "pitch": 56, "duration": 5, "velocity": 89}, {"time": 1541, "pitch": 61, "duration": 1, "velocity": 113}, {"time": 1541, "pitch": 64, "duration": 1, "velocity": 117}, {"time": 1541, "pitch": 68, "duration": 4, "velocity": 110}, {"time": 1544, "pitch": 37, "duration": 4, "velocity": 100}, {"time": 1544, "pitch": 49, "duration": 5, "velocity": 102}, {"time": 1553, "pitch": 42, "duration": 18, "velocity": 107}, {"time": 1556, "pitch": 49, "duration": 18, "velocity": 81}, {"time": 1565, "pitch": 54, "duration": 6, "velocity": 94}, {"time": 1565, "pitch": 58, "duration": 7, "velocity": 104}, {"time": 1565, "pitch": 61, "duration": 7, "velocity": 116}, {"time": 1565, "pitch": 66, "duration": 7, "velocity": 107}, {"time": 1574, "pitch": 42, "duration": 3, "velocity": 100}, {"time": 1574, "pitch": 54, "duration": 8, "velocity": 58}, {"time": 1574, "pitch": 58, "duration": 13, "velocity": 58}, {"time": 1574, "pitch": 61, "duration": 13, "velocity": 58}, {"time": 1574, "pitch": 66, "duration": 13, "velocity": 58}, {"time": 1580, "pitch": 42, "duration": 3, "velocity": 98}, {"time": 1580, "pitch": 49, "duration": 17, "velocity": 87}, {"time": 1583, "pitch": 42, "duration": 12, "velocity": 100}, {"time": 1589, "pitch": 54, "duration": 6, "velocity": 104}, {"time": 1589, "pitch": 58, "duration": 7, "velocity": 110}, {"time": 1589, "pitch": 61, "duration": 7, "velocity": 119}, {"time": 1589, "pitch": 66, "duration": 7, "velocity": 113}, {"time": 1595, "pitch": 54, "duration": 4, "velocity": 104}, {"time": 1595, "pitch": 58, "duration": 1, "velocity": 116}, {"time": 1595, "pitch": 61, "duration": 1, "velocity": 119}, {"time": 1595, "pitch": 66, "duration": 1, "velocity": 113}, {"time": 1598, "pitch": 42, "duration": 4, "velocity": 110}, {"time": 1601, "pitch": 38, "duration": 42, "velocity": 109}, {"time": 1601, "pitch": 62, "duration": 10, "velocity": 109}, {"time": 1601, "pitch": 66, "duration": 9, "velocity": 114}, {"time": 1601, "pitch": 69, "duration": 9, "velocity": 113}, {"time": 1610, "pitch": 50, "duration": 6, "velocity": 103}, {"time": 1613, "pitch": 62, "duration": 8, "velocity": 109}, {"time": 1613, "pitch": 66, "duration": 7, "velocity": 120}, {"time": 1613, "pitch": 69, "duration": 7, "velocity": 116}, {"time": 1619, "pitch": 50, "duration": 11, "velocity": 86}, {"time": 1622, "pitch": 62, "duration": 1, "velocity": 100}, {"time": 1622, "pitch": 66, "duration": 1, "velocity": 116}, {"time": 1622, "pitch": 69, "duration": 1, "velocity": 100}, {"time": 1628, "pitch": 62, "duration": 6, "velocity": 109}, {"time": 1628, "pitch": 66, "duration": 6, "velocity": 119}, {"time": 1628, "pitch": 69, "duration": 6, "velocity": 119}, {"time": 1634, "pitch": 50, "duration": 4, "velocity": 103}, {"time": 1637, "pitch": 62, "duration": 4, "velocity": 113}, {"time": 1637, "pitch": 66, "duration": 4, "velocity": 119}, {"time": 1637, "pitch": 69, "duration": 4, "velocity": 123}, {"time": 1640, "pitch": 50, "duration": 4, "velocity": 113}, {"time": 1643, "pitch": 62, "duration": 3, "velocity": 109}, {"time": 1643, "pitch": 66, "duration": 5, "velocity": 117}, {"time": 1643, "pitch": 69, "duration": 5, "velocity": 116}, {"time": 1649, "pitch": 35, "duration": 17, "velocity": 100}, {"time": 1649, "pitch": 47, "duration": 42, "velocity": 93}, {"time": 1649, "pitch": 63, "duration": 10, "velocity": 96}, {"time": 1649, "pitch": 66, "duration": 10, "velocity": 110}, {"time": 1655, "pitch": 54, "duration": 37, "velocity": 70}, {"time": 1658, "pitch": 59, "duration": 5, "velocity": 88}, {"time": 1661, "pitch": 63, "duration": 8, "velocity": 108}, {"time": 1661, "pitch": 66, "duration": 8, "velocity": 114}, {"time": 1667, "pitch": 59, "duration": 6, "velocity": 88}, {"time": 1670, "pitch": 63, "duration": 1, "velocity": 104}, {"time": 1670, "pitch": 66, "duration": 1, "velocity": 113}, {"time": 1670, "pitch": 71, "duration": 1, "velocity": 96}, {"time": 1671, "pitch": 35, "duration": 8, "velocity": 100}, {"time": 1676, "pitch": 63, "duration": 7, "velocity": 104}, {"time": 1676, "pitch": 66, "duration": 6, "velocity": 114}, {"time": 1682, "pitch": 35, "duration": 10, "velocity": 100}, {"time": 1682, "pitch": 59, "duration": 8, "velocity": 107}, {"time": 1685, "pitch": 63, "duration": 5, "velocity": 113}, {"time": 1685, "pitch": 66, "duration": 5, "velocity": 119}, {"time": 1685, "pitch": 71, "duration": 4, "velocity": 107}, {"time": 1691, "pitch": 63, "duration": 7, "velocity": 104}, {"time": 1691, "pitch": 66, "duration": 7, "velocity": 110}, {"time": 1691, "pitch": 71, "duration": 7, "velocity": 88}, {"time": 1694, "pitch": 45, "duration": 3, "velocity": 77}, {"time": 1697, "pitch": 43, "duration": 18, "velocity": 93}, {"time": 1697, "pitch": 55, "duration": 8, "velocity": 109}, {"time": 1706, "pitch": 55, "duration": 7, "velocity": 86}, {"time": 1709, "pitch": 59, "duration": 7, "velocity": 108}, {"time": 1709, "pitch": 62, "duration": 8, "velocity": 119}, {"time": 1709, "pitch": 67, "duration": 7, "velocity": 106}, {"time": 1715, "pitch": 55, "duration": 5, "velocity": 89}, {"time": 1718, "pitch": 59, "duration": 6, "velocity": 100}, {"time": 1718, "pitch": 62, "duration": 8, "velocity": 113}, {"time": 1718, "pitch": 67, "duration": 8, "velocity": 97}, {"time": 1721, "pitch": 45, "duration": 9, "velocity": 109}, {"time": 1727, "pitch": 57, "duration": 1, "velocity": 66}, {"time": 1730, "pitch": 45, "duration": 3, "velocity": 100}, {"time": 1733, "pitch": 57, "duration": 7, "velocity": 97}, {"time": 1733, "pitch": 61, "duration": 7, "velocity": 114}, {"time": 1733, "pitch": 64, "duration": 7, "velocity": 113}, {"time": 1736, "pitch": 45, "duration": 5, "velocity": 100}, {"time": 1739, "pitch": 57, "duration": 1, "velocity": 106}, {"time": 1739, "pitch": 61, "duration": 1, "velocity": 119}, {"time": 1739, "pitch": 64, "duration": 1, "velocity": 113}, {"time": 1745, "pitch": 42, "duration": 23, "velocity": 98}, {"time": 1748, "pitch": 49, "duration": 17, "velocity": 85}, {"time": 1751, "pitch": 54, "duration": 11, "velocity": 102}, {"time": 1754, "pitch": 58, "duration": 4, "velocity": 89}, {"time": 1757, "pitch": 61, "duration": 11, "velocity": 91}, {"time": 1760, "pitch": 58, "duration": 4, "velocity": 82}, {"time": 1760, "pitch": 66, "duration": 6, "velocity": 110}, {"time": 1763, "pitch": 54, "duration": 4, "velocity": 89}, {"time": 1766, "pitch": 49, "duration": 4, "velocity": 86}, {"time": 1769, "pitch": 42, "duration": 31, "velocity": 90}, {"time": 1769, "pitch": 54, "duration": 9, "velocity": 94}, {"time": 1769, "pitch": 58, "duration": 14, "velocity": 107}, {"time": 1769, "pitch": 61, "duration": 15, "velocity": 114}, {"time": 1769, "pitch": 66, "duration": 15, "velocity": 108}, {"time": 1778, "pitch": 49, "duration": 23, "velocity": 83}, {"time": 1781, "pitch": 54, "duration": 10, "velocity": 102}, {"time": 1784, "pitch": 58, "duration": 5, "velocity": 83}, {"time": 1787, "pitch": 61, "duration": 4, "velocity": 87}, {"time": 1790, "pitch": 58, "duration": 9, "velocity": 80}, {"time": 1793, "pitch": 54, "duration": 6, "velocity": 82}, {"time": 1793, "pitch": 61, "duration": 8, "velocity": 84}, {"time": 1793, "pitch": 66, "duration": 7, "velocity": 92}, {"time": 1865, "pitch": 47, "duration": 22, "velocity": 86}, {"time": 1868, "pitch": 54, "duration": 19, "velocity": 84}, {"time": 1871, "pitch": 59, "duration": 16, "velocity": 81}, {"time": 1874, "pitch": 63, "duration": 7, "velocity": 85}, {"time": 1880, "pitch": 71, "duration": 6, "velocity": 88}, {"time": 1883, "pitch": 63, "duration": 3, "velocity": 34}, {"time": 1886, "pitch": 66, "duration": 10, "velocity": 86}, {"time": 1889, "pitch": 47, "duration": 18, "velocity": 83}, {"time": 1892, "pitch": 54, "duration": 15, "velocity": 82}, {"time": 1895, "pitch": 59, "duration": 12, "velocity": 85}, {"time": 1898, "pitch": 71, "duration": 15, "velocity": 96}, {"time": 1913, "pitch": 44, "duration": 23, "velocity": 85}, {"time": 1916, "pitch": 51, "duration": 20, "velocity": 70}, {"time": 1919, "pitch": 56, "duration": 17, "velocity": 82}, {"time": 1922, "pitch": 68, "duration": 10, "velocity": 106}, {"time": 1928, "pitch": 63, "duration": 18, "velocity": 81}, {"time": 1934, "pitch": 59, "duration": 11, "velocity": 78}, {"time": 1937, "pitch": 44, "duration": 18, "velocity": 82}, {"time": 1940, "pitch": 51, "duration": 15, "velocity": 81}, {"time": 1943, "pitch": 56, "duration": 12, "velocity": 83}, {"time": 1946, "pitch": 68, "duration": 15, "velocity": 93}, {"time": 1961, "pitch": 49, "duration": 22, "velocity": 88}, {"time": 1964, "pitch": 56, "duration": 22, "velocity": 82}, {"time": 1967, "pitch": 61, "duration": 15, "velocity": 85}, {"time": 1970, "pitch": 71, "duration": 7, "velocity": 94}, {"time": 1976, "pitch": 68, "duration": 16, "velocity": 81}, {"time": 1982, "pitch": 64, "duration": 13, "velocity": 83}, {"time": 1985, "pitch": 49, "duration": 18, "velocity": 80}, {"time": 1988, "pitch": 56, "duration": 15, "velocity": 79}, {"time": 1991, "pitch": 61, "duration": 11, "velocity": 81}, {"time": 1994, "pitch": 71, "duration": 14, "velocity": 91}, {"time": 2009, "pitch": 42, "duration": 50, "velocity": 83}, {"time": 2015, "pitch": 49, "duration": 43, "velocity": 68}, {"time": 2021, "pitch": 54, "duration": 37, "velocity": 70}, {"time": 2027, "pitch": 59, "duration": 8, "velocity": 68}, {"time": 2033, "pitch": 58, "duration": 24, "velocity": 78}], "annotations": [{"time": 257, "annotation": {"number": 64, "value": 127}, "group": "control_change"}, {"time": 303, "annotation": {"number": 64, "value": 38}, "group": "control_change"}, {"time": 303, "annotation": {"number": 64, "value": 0}, "group": "control_change"}, {"time": 305, "annotation": {"number": 64, "value": 127}, "group": "control_change"}, {"time": 350, "annotation": {"number": 64, "value": 74}, "group": "control_change"}, {"time": 350, "annotation": {"number": 64, "value": 0}, "group": "control_change"}, {"time": 353, "annotation": {"number": 64, "value": 127}, "group": "control_change"}, {"time": 399, "annotation": {"number": 64, "value": 74}, "group": "control_change"}, {"time": 399, "annotation": {"number": 64, "value": 0}, "group": "control_change"}, {"time": 402, "annotation": {"number": 64, "value": 127}, "group": "control_change"}, {"time": 447, "annotation": {"number": 64, "value": 38}, "group": "control_change"}, {"time": 447, "annotation": {"number": 64, "value": 0}, "group": "control_change"}, {"time": 450, "annotation": {"number": 64, "value": 127}, "group": "control_change"}, {"time": 495, "annotation": {"number": 64, "value": 0}, "group": "control_change"}, {"time": 497, "annotation": {"number": 64, "value": 127}, "group": "control_change"}, {"time": 544, "annotation": {"number": 64, "value": 0}, "group": "control_change"}, {"time": 545, "annotation": {"number": 64, "value": 127}, "group": "control_change"}, {"time": 591, "annotation": {"number": 64, "value": 38}, "group": "control_change"}, {"time": 591, "annotation": {"number": 64, "value": 0}, "group": "control_change"}, {"time": 593, "annotation": {"number": 64, "value": 127}, "group": "control_change"}, {"time": 662, "annotation": {"number": 64, "value": 0}, "group": "control_change"}, {"time": 670, "annotation": {"number": 64, "value": 74}, "group": "control_change"}, {"time": 670, "annotation": {"number": 64, "value": 127}, "group": "control_change"}, {"time": 688, "annotation": {"number": 64, "value": 74}, "group": "control_change"}, {"time": 688, "annotation": {"number": 64, "value": 0}, "group": "control_change"}, {"time": 689, "annotation": {"number": 64, "value": 127}, "group": "control_change"}, {"time": 713, "annotation": {"number": 64, "value": 38}, "group": "control_change"}, {"time": 713, "annotation": {"number": 64, "value": 0}, "group": "control_change"}, {"time": 714, "annotation": {"number": 64, "value": 74}, "group": "control_change"}, {"time": 714, "annotation": {"number": 64, "value": 127}, "group": "control_change"}, {"time": 736, "annotation": {"number": 64, "value": 0}, "group": "control_change"}, {"time": 738, "annotation": {"number": 64, "value": 127}, "group": "control_change"}, {"time": 760, "annotation": {"number": 64, "value": 38}, "group": "control_change"}, {"time": 760, "annotation": {"number": 64, "value": 0}, "group": "control_change"}, {"time": 761, "annotation": {"number": 64, "value": 127}, "group": "control_change"}, {"time": 784, "annotation": {"number": 64, "value": 74}, "group": "control_change"}, {"time": 784, "annotation": {"number": 64, "value": 0}, "group": "control_change"}, {"time": 785, "annotation": {"number": 64, "value": 127}, "group": "control_change"}, {"time": 832, "annotation": {"number": 64, "value": 38}, "group": "control_change"}, {"time": 832, "annotation": {"number": 64, "value": 0}, "group": "control_change"}, {"time": 834, "annotation": {"number": 64, "value": 127}, "group": "control_change"}, {"time": 856, "annotation": {"number": 64, "value": 38}, "group": "control_change"}, {"time": 856, "annotation": {"number": 64, "value": 0}, "group": "control_change"}, {"time": 857, "annotation": {"number": 64, "value": 127}, "group": "control_change"}, {"time": 880, "annotation": {"number": 64, "value": 74}, "group": "control_change"}, {"time": 880, "annotation": {"number": 64, "value": 0}, "group": "control_change"}, {"time": 882, "annotation": {"number": 64, "value": 38}, "group": "control_change"}, {"time": 882, "annotation": {"number": 64, "value": 127}, "group": "control_change"}, {"time": 904, "annotation": {"number": 64, "value": 0}, "group": "control_change"}, {"time": 905, "annotation": {"number": 64, "value": 127}, "group": "control_change"}, {"time": 928, "annotation": {"number": 64, "value": 38}, "group": "control_change"}, {"time": 928, "annotation": {"number": 64, "value": 0}, "group": "control_change"}, {"time": 930, "annotation": {"number": 64, "value": 127}, "group": "control_change"}, {"time": 951, "annotation": {"number": 64, "value": 0}, "group": "control_change"}, {"time": 954, "annotation": {"number": 64, "value": 127}, "group": "control_change"}, {"time": 976, "annotation": {"number": 64, "value": 0}, "group": "control_change"}, {"time": 977, "annotation": {"number": 64, "value": 127}, "group": "control_change"}, {"time": 1001, "annotation": {"number": 64, "value": 38}, "group": "control_change"}, {"time": 1001, "annotation": {"number": 64, "value": 0}, "group": "control_change"}, {"time": 1001, "annotation": {"number": 64, "value": 127}, "group": "control_change"}, {"time": 1023, "annotation": {"number": 64, "value": 74}, "group": "control_change"}, {"time": 1023, "annotation": {"number": 64, "value": 0}, "group": "control_change"}, {"time": 1026, "annotation": {"number": 64, "value": 127}, "group": "control_change"}, {"time": 1071, "annotation": {"number": 64, "value": 0}, "group": "control_change"}, {"time": 1073, "annotation": {"number": 64, "value": 127}, "group": "control_change"}, {"time": 1094, "annotation": {"number": 64, "value": 38}, "group": "control_change"}, {"time": 1094, "annotation": {"number": 64, "value": 127}, "group": "control_change"}, {"time": 1120, "annotation": {"number": 64, "value": 38}, "group": "control_change"}, {"time": 1120, "annotation": {"number": 64, "value": 0}, "group": "control_change"}, {"time": 1121, "annotation": {"number": 64, "value": 127}, "group": "control_change"}, {"time": 1167, "annotation": {"number": 64, "value": 38}, "group": "control_change"}, {"time": 1167, "annotation": {"number": 64, "value": 0}, "group": "control_change"}, {"time": 1169, "annotation": {"number": 64, "value": 127}, "group": "control_change"}, {"time": 1193, "annotation": {"number": 64, "value": 38}, "group": "control_change"}, {"time": 1193, "annotation": {"number": 64, "value": 0}, "group": "control_change"}, {"time": 1194, "annotation": {"number": 64, "value": 127}, "group": "control_change"}, {"time": 1216, "annotation": {"number": 64, "value": 38}, "group": "control_change"}, {"time": 1216, "annotation": {"number": 64, "value": 0}, "group": "control_change"}, {"time": 1217, "annotation": {"number": 64, "value": 127}, "group": "control_change"}, {"time": 1240, "annotation": {"number": 64, "value": 38}, "group": "control_change"}, {"time": 1240, "annotation": {"number": 64, "value": 0}, "group": "control_change"}, {"time": 1241, "annotation": {"number": 64, "value": 127}, "group": "control_change"}, {"time": 1258, "annotation": {"number": 64, "value": 38}, "group": "control_change"}, {"time": 1258, "annotation": {"number": 64, "value": 0}, "group": "control_change"}, {"time": 1259, "annotation": {"number": 64, "value": 127}, "group": "control_change"}, {"time": 1264, "annotation": {"number": 64, "value": 74}, "group": "control_change"}, {"time": 1264, "annotation": {"number": 64, "value": 0}, "group": "control_change"}, {"time": 1265, "annotation": {"number": 64, "value": 74}, "group": "control_change"}, {"time": 1265, "annotation": {"number": 64, "value": 127}, "group": "control_change"}, {"time": 1273, "annotation": {"number": 64, "value": 0}, "group": "control_change"}, {"time": 1274, "annotation": {"number": 64, "value": 127}, "group": "control_change"}, {"time": 1288, "annotation": {"number": 64, "value": 38}, "group": "control_change"}, {"time": 1288, "annotation": {"number": 64, "value": 0}, "group": "control_change"}, {"time": 1289, "annotation": {"number": 64, "value": 127}, "group": "control_change"}, {"time": 1312, "annotation": {"number": 64, "value": 38}, "group": "control_change"}, {"time": 1312, "annotation": {"number": 64, "value": 0}, "group": "control_change"}, {"time": 1313, "annotation": {"number": 64, "value": 127}, "group": "control_change"}, {"time": 1336, "annotation": {"number": 64, "value": 74}, "group": "control_change"}, {"time": 1336, "annotation": {"number": 64, "value": 0}, "group": "control_change"}, {"time": 1337, "annotation": {"number": 64, "value": 74}, "group": "control_change"}, {"time": 1338, "annotation": {"number": 64, "value": 127}, "group": "control_change"}, {"time": 1360, "annotation": {"number": 64, "value": 0}, "group": "control_change"}, {"time": 1361, "annotation": {"number": 64, "value": 127}, "group": "control_change"}, {"time": 1384, "annotation": {"number": 64, "value": 38}, "group": "control_change"}, {"time": 1384, "annotation": {"number": 64, "value": 0}, "group": "control_change"}, {"time": 1385, "annotation": {"number": 64, "value": 127}, "group": "control_change"}, {"time": 1385, "annotation": {"number": 64, "value": 74}, "group": "control_change"}, {"time": 1388, "annotation": {"number": 64, "value": 0}, "group": "control_change"}, {"time": 1407, "annotation": {"number": 64, "value": 0}, "group": "control_change"}, {"time": 1409, "annotation": {"number": 64, "value": 127}, "group": "control_change"}, {"time": 1432, "annotation": {"number": 64, "value": 0}, "group": "control_change"}, {"time": 1433, "annotation": {"number": 64, "value": 127}, "group": "control_change"}, {"time": 1455, "annotation": {"number": 64, "value": 74}, "group": "control_change"}, {"time": 1455, "annotation": {"number": 64, "value": 0}, "group": "control_change"}, {"time": 1457, "annotation": {"number": 64, "value": 38}, "group": "control_change"}, {"time": 1457, "annotation": {"number": 64, "value": 127}, "group": "control_change"}, {"time": 1479, "annotation": {"number": 64, "value": 38}, "group": "control_change"}, {"time": 1480, "annotation": {"number": 64, "value": 0}, "group": "control_change"}, {"time": 1481, "annotation": {"number": 64, "value": 127}, "group": "control_change"}, {"time": 1504, "annotation": {"number": 64, "value": 38}, "group": "control_change"}, {"time": 1504, "annotation": {"number": 64, "value": 0}, "group": "control_change"}, {"time": 1505, "annotation": {"number": 64, "value": 127}, "group": "control_change"}, {"time": 1505, "annotation": {"number": 64, "value": 74}, "group": "control_change"}, {"time": 1528, "annotation": {"number": 64, "value": 38}, "group": "control_change"}, {"time": 1528, "annotation": {"number": 64, "value": 0}, "group": "control_change"}, {"time": 1529, "annotation": {"number": 64, "value": 127}, "group": "control_change"}, {"time": 1552, "annotation": {"number": 64, "value": 74}, "group": "control_change"}, {"time": 1552, "annotation": {"number": 64, "value": 0}, "group": "control_change"}, {"time": 1553, "annotation": {"number": 64, "value": 127}, "group": "control_change"}, {"time": 1576, "annotation": {"number": 64, "value": 0}, "group": "control_change"}, {"time": 1577, "annotation": {"number": 64, "value": 127}, "group": "control_change"}, {"time": 1600, "annotation": {"number": 64, "value": 0}, "group": "control_change"}, {"time": 1601, "annotation": {"number": 64, "value": 127}, "group": "control_change"}, {"time": 1648, "annotation": {"number": 64, "value": 74}, "group": "control_change"}, {"time": 1648, "annotation": {"number": 64, "value": 0}, "group": "control_change"}, {"time": 1649, "annotation": {"number": 64, "value": 127}, "group": "control_change"}, {"time": 1672, "annotation": {"number": 64, "value": 0}, "group": "control_change"}, {"time": 1673, "annotation": {"number": 64, "value": 127}, "group": "control_change"}, {"time": 1696, "annotation": {"number": 64, "value": 38}, "group": "control_change"}, {"time": 1696, "annotation": {"number": 64, "value": 0}, "group": "control_change"}, {"time": 1698, "annotation": {"number": 64, "value": 127}, "group": "control_change"}, {"time": 1720, "annotation": {"number": 64, "value": 38}, "group": "control_change"}, {"time": 1720, "annotation": {"number": 64, "value": 0}, "group": "control_change"}, {"time": 1721, "annotation": {"number": 64, "value": 127}, "group": "control_change"}, {"time": 1744, "annotation": {"number": 64, "value": 38}, "group": "control_change"}, {"time": 1744, "annotation": {"number": 64, "value": 0}, "group": "control_change"}, {"time": 1745, "annotation": {"number": 64, "value": 74}, "group": "control_change"}, {"time": 1745, "annotation": {"number": 64, "value": 127}, "group": "control_change"}, {"time": 1882, "annotation": {"number": 64, "value": 127}, "group": "control_change"}, {"time": 1911, "annotation": {"number": 64, "value": 74}, "group": "control_change"}, {"time": 1911, "annotation": {"number": 64, "value": 0}, "group": "control_change"}, {"time": 1913, "annotation": {"number": 64, "value": 127}, "group": "control_change"}, {"time": 1961, "annotation": {"number": 64, "value": 74}, "group": "control_change"}, {"time": 1961, "annotation": {"number": 64, "value": 0}, "group": "control_change"}, {"time": 1962, "annotation": {"number": 64, "value": 127}, "group": "control_change"}, {"time": 1985, "annotation": {"number": 64, "value": 38}, "group": "control_change"}, {"time": 1985, "annotation": {"number": 64, "value": 0}, "group": "control_change"}, {"time": 1986, "annotation": {"number": 64, "value": 74}, "group": "control_change"}, {"time": 1986, "annotation": {"number": 64, "value": 127}, "group": "control_change"}, {"time": 2070, "annotation": {"number": 64, "value": 74}, "group": "control_change"}, {"time": 2070, "annotation": {"number": 64, "value": 0}, "group": "control_change"}]}]}