{"metadata": {"schema_version": "0.2", "title": "None", "source_filename": "268.mid", "source_format": "midi"}, "resolution": 12, "tempos": [{"time": 0, "qpm": 60.0}], "time_signatures": [{"time": 0, "numerator": 4, "denominator": 4}], "tracks": [{"program": 0, "is_drum": false, "name": "MELODY", "notes": [{"time": 205, "pitch": 63, "duration": 3, "velocity": 88}, {"time": 208, "pitch": 63, "duration": 3, "velocity": 87}, {"time": 211, "pitch": 63, "duration": 3, "velocity": 87}, {"time": 214, "pitch": 63, "duration": 3, "velocity": 85}, {"time": 217, "pitch": 63, "duration": 3, "velocity": 87}, {"time": 220, "pitch": 65, "duration": 3, "velocity": 91}, {"time": 223, "pitch": 63, "duration": 6, "velocity": 89}, {"time": 229, "pitch": 62, "duration": 3, "velocity": 87}, {"time": 232, "pitch": 62, "duration": 21, "velocity": 88}, {"time": 253, "pitch": 62, "duration": 3, "velocity": 88}, {"time": 256, "pitch": 62, "duration": 6, "velocity": 93}, {"time": 262, "pitch": 62, "duration": 3, "velocity": 88}, {"time": 265, "pitch": 62, "duration": 3, "velocity": 88}, {"time": 268, "pitch": 63, "duration": 3, "velocity": 88}, {"time": 271, "pitch": 62, "duration": 3, "velocity": 89}, {"time": 274, "pitch": 60, "duration": 6, "velocity": 86}, {"time": 280, "pitch": 60, "duration": 21, "velocity": 92}, {"time": 301, "pitch": 60, "duration": 3, "velocity": 93}, {"time": 304, "pitch": 60, "duration": 3, "velocity": 88}, {"time": 307, "pitch": 60, "duration": 3, "velocity": 93}, {"time": 310, "pitch": 60, "duration": 6, "velocity": 100}, {"time": 316, "pitch": 59, "duration": 9, "velocity": 100}, {"time": 325, "pitch": 60, "duration": 3, "velocity": 104}, {"time": 328, "pitch": 59, "duration": 3, "velocity": 90}, {"time": 331, "pitch": 60, "duration": 3, "velocity": 94}, {"time": 334, "pitch": 55, "duration": 6, "velocity": 96}, {"time": 340, "pitch": 55, "duration": 57, "velocity": 102}, {"time": 397, "pitch": 63, "duration": 3, "velocity": 87}, {"time": 400, "pitch": 63, "duration": 3, "velocity": 86}, {"time": 403, "pitch": 63, "duration": 3, "velocity": 91}, {"time": 406, "pitch": 63, "duration": 6, "velocity": 92}, {"time": 412, "pitch": 65, "duration": 3, "velocity": 100}, {"time": 415, "pitch": 63, "duration": 3, "velocity": 88}, {"time": 418, "pitch": 62, "duration": 3, "velocity": 88}, {"time": 421, "pitch": 62, "duration": 3, "velocity": 89}, {"time": 424, "pitch": 62, "duration": 21, "velocity": 98}, {"time": 445, "pitch": 62, "duration": 3, "velocity": 90}, {"time": 448, "pitch": 62, "duration": 3, "velocity": 88}, {"time": 451, "pitch": 62, "duration": 3, "velocity": 87}, {"time": 454, "pitch": 62, "duration": 6, "velocity": 89}, {"time": 460, "pitch": 63, "duration": 3, "velocity": 88}, {"time": 463, "pitch": 67, "duration": 3, "velocity": 86}, {"time": 466, "pitch": 60, "duration": 3, "velocity": 91}, {"time": 469, "pitch": 60, "duration": 3, "velocity": 88}, {"time": 472, "pitch": 60, "duration": 21, "velocity": 98}, {"time": 493, "pitch": 60, "duration": 3, "velocity": 104}, {"time": 496, "pitch": 60, "duration": 3, "velocity": 96}, {"time": 499, "pitch": 60, "duration": 3, "velocity": 96}, {"time": 502, "pitch": 60, "duration": 6, "velocity": 110}, {"time": 508, "pitch": 60, "duration": 3, "velocity": 88}, {"time": 511, "pitch": 59, "duration": 9, "velocity": 91}, {"time": 520, "pitch": 59, "duration": 3, "velocity": 93}, {"time": 523, "pitch": 59, "duration": 3, "velocity": 95}, {"time": 526, "pitch": 60, "duration": 6, "velocity": 104}, {"time": 532, "pitch": 60, "duration": 39, "velocity": 110}, {"time": 571, "pitch": 70, "duration": 3, "velocity": 119}, {"time": 574, "pitch": 68, "duration": 3, "velocity": 106}, {"time": 577, "pitch": 67, "duration": 3, "velocity": 104}, {"time": 580, "pitch": 65, "duration": 3, "velocity": 102}, {"time": 583, "pitch": 67, "duration": 6, "velocity": 114}, {"time": 589, "pitch": 60, "duration": 6, "velocity": 93}, {"time": 595, "pitch": 67, "duration": 6, "velocity": 114}, {"time": 601, "pitch": 68, "duration": 3, "velocity": 109}, {"time": 604, "pitch": 67, "duration": 6, "velocity": 113}, {"time": 610, "pitch": 65, "duration": 9, "velocity": 108}, {"time": 619, "pitch": 70, "duration": 4, "velocity": 113}, {"time": 622, "pitch": 68, "duration": 3, "velocity": 109}, {"time": 625, "pitch": 67, "duration": 3, "velocity": 107}, {"time": 628, "pitch": 65, "duration": 3, "velocity": 107}, {"time": 631, "pitch": 67, "duration": 6, "velocity": 113}, {"time": 637, "pitch": 58, "duration": 6, "velocity": 107}, {"time": 643, "pitch": 65, "duration": 6, "velocity": 117}, {"time": 649, "pitch": 67, "duration": 3, "velocity": 110}, {"time": 652, "pitch": 65, "duration": 6, "velocity": 114}, {"time": 658, "pitch": 63, "duration": 12, "velocity": 119}, {"time": 670, "pitch": 63, "duration": 3, "velocity": 90}, {"time": 673, "pitch": 63, "duration": 3, "velocity": 94}, {"time": 676, "pitch": 65, "duration": 9, "velocity": 114}, {"time": 685, "pitch": 63, "duration": 3, "velocity": 104}, {"time": 688, "pitch": 63, "duration": 9, "velocity": 116}, {"time": 697, "pitch": 62, "duration": 3, "velocity": 114}, {"time": 700, "pitch": 60, "duration": 6, "velocity": 104}, {"time": 706, "pitch": 59, "duration": 6, "velocity": 113}, {"time": 712, "pitch": 60, "duration": 6, "velocity": 83}, {"time": 718, "pitch": 62, "duration": 6, "velocity": 110}, {"time": 724, "pitch": 63, "duration": 6, "velocity": 94}, {"time": 730, "pitch": 63, "duration": 3, "velocity": 91}, {"time": 733, "pitch": 63, "duration": 3, "velocity": 98}, {"time": 736, "pitch": 63, "duration": 3, "velocity": 104}, {"time": 739, "pitch": 63, "duration": 3, "velocity": 102}, {"time": 742, "pitch": 65, "duration": 6, "velocity": 114}, {"time": 748, "pitch": 67, "duration": 15, "velocity": 117}, {"time": 763, "pitch": 70, "duration": 3, "velocity": 117}, {"time": 766, "pitch": 68, "duration": 3, "velocity": 113}, {"time": 769, "pitch": 67, "duration": 3, "velocity": 114}, {"time": 772, "pitch": 65, "duration": 3, "velocity": 104}, {"time": 775, "pitch": 67, "duration": 6, "velocity": 119}, {"time": 781, "pitch": 60, "duration": 6, "velocity": 119}, {"time": 787, "pitch": 67, "duration": 6, "velocity": 117}, {"time": 793, "pitch": 68, "duration": 3, "velocity": 113}, {"time": 796, "pitch": 67, "duration": 6, "velocity": 110}, {"time": 802, "pitch": 65, "duration": 9, "velocity": 108}, {"time": 811, "pitch": 70, "duration": 3, "velocity": 116}, {"time": 814, "pitch": 68, "duration": 4, "velocity": 113}, {"time": 817, "pitch": 67, "duration": 3, "velocity": 110}, {"time": 820, "pitch": 65, "duration": 3, "velocity": 98}, {"time": 823, "pitch": 67, "duration": 6, "velocity": 108}, {"time": 829, "pitch": 58, "duration": 6, "velocity": 114}, {"time": 835, "pitch": 65, "duration": 6, "velocity": 117}, {"time": 841, "pitch": 67, "duration": 3, "velocity": 114}, {"time": 844, "pitch": 65, "duration": 6, "velocity": 114}, {"time": 850, "pitch": 63, "duration": 15, "velocity": 113}, {"time": 865, "pitch": 63, "duration": 3, "velocity": 110}, {"time": 868, "pitch": 63, "duration": 3, "velocity": 100}, {"time": 871, "pitch": 65, "duration": 6, "velocity": 114}, {"time": 877, "pitch": 63, "duration": 3, "velocity": 96}, {"time": 880, "pitch": 63, "duration": 9, "velocity": 100}, {"time": 889, "pitch": 62, "duration": 3, "velocity": 110}, {"time": 892, "pitch": 60, "duration": 6, "velocity": 107}, {"time": 898, "pitch": 59, "duration": 3, "velocity": 113}, {"time": 901, "pitch": 59, "duration": 3, "velocity": 113}, {"time": 904, "pitch": 60, "duration": 6, "velocity": 108}, {"time": 910, "pitch": 62, "duration": 9, "velocity": 110}, {"time": 919, "pitch": 62, "duration": 25, "velocity": 119}, {"time": 943, "pitch": 60, "duration": 24, "velocity": 114}, {"time": 1165, "pitch": 63, "duration": 1, "velocity": 87}, {"time": 1168, "pitch": 63, "duration": 1, "velocity": 86}, {"time": 1171, "pitch": 63, "duration": 1, "velocity": 91}, {"time": 1174, "pitch": 63, "duration": 1, "velocity": 92}, {"time": 1180, "pitch": 65, "duration": 3, "velocity": 100}, {"time": 1183, "pitch": 63, "duration": 3, "velocity": 88}, {"time": 1186, "pitch": 62, "duration": 2, "velocity": 88}, {"time": 1189, "pitch": 62, "duration": 1, "velocity": 89}, {"time": 1192, "pitch": 62, "duration": 4, "velocity": 98}, {"time": 1213, "pitch": 62, "duration": 2, "velocity": 90}, {"time": 1216, "pitch": 62, "duration": 2, "velocity": 88}, {"time": 1219, "pitch": 62, "duration": 2, "velocity": 87}, {"time": 1222, "pitch": 62, "duration": 3, "velocity": 89}, {"time": 1228, "pitch": 63, "duration": 3, "velocity": 88}, {"time": 1231, "pitch": 67, "duration": 2, "velocity": 86}, {"time": 1234, "pitch": 60, "duration": 2, "velocity": 91}, {"time": 1237, "pitch": 60, "duration": 1, "velocity": 88}, {"time": 1240, "pitch": 60, "duration": 3, "velocity": 98}, {"time": 1261, "pitch": 60, "duration": 1, "velocity": 104}, {"time": 1264, "pitch": 60, "duration": 1, "velocity": 96}, {"time": 1267, "pitch": 60, "duration": 1, "velocity": 96}, {"time": 1270, "pitch": 60, "duration": 3, "velocity": 110}, {"time": 1276, "pitch": 60, "duration": 3, "velocity": 88}, {"time": 1279, "pitch": 59, "duration": 4, "velocity": 91}, {"time": 1288, "pitch": 59, "duration": 1, "velocity": 93}, {"time": 1291, "pitch": 59, "duration": 2, "velocity": 95}, {"time": 1294, "pitch": 60, "duration": 3, "velocity": 104}, {"time": 1300, "pitch": 60, "duration": 4, "velocity": 110}, {"time": 1339, "pitch": 70, "duration": 2, "velocity": 119}, {"time": 1342, "pitch": 68, "duration": 3, "velocity": 106}, {"time": 1345, "pitch": 67, "duration": 3, "velocity": 104}, {"time": 1348, "pitch": 65, "duration": 3, "velocity": 102}, {"time": 1351, "pitch": 67, "duration": 3, "velocity": 114}, {"time": 1357, "pitch": 60, "duration": 4, "velocity": 93}, {"time": 1363, "pitch": 67, "duration": 4, "velocity": 114}, {"time": 1369, "pitch": 68, "duration": 2, "velocity": 109}, {"time": 1372, "pitch": 67, "duration": 3, "velocity": 113}, {"time": 1378, "pitch": 65, "duration": 3, "velocity": 108}, {"time": 1387, "pitch": 70, "duration": 4, "velocity": 113}, {"time": 1390, "pitch": 68, "duration": 3, "velocity": 109}, {"time": 1393, "pitch": 67, "duration": 3, "velocity": 107}, {"time": 1396, "pitch": 65, "duration": 3, "velocity": 107}, {"time": 1399, "pitch": 67, "duration": 3, "velocity": 113}, {"time": 1405, "pitch": 58, "duration": 4, "velocity": 107}, {"time": 1411, "pitch": 65, "duration": 4, "velocity": 117}, {"time": 1417, "pitch": 67, "duration": 2, "velocity": 110}, {"time": 1420, "pitch": 65, "duration": 4, "velocity": 114}, {"time": 1426, "pitch": 63, "duration": 4, "velocity": 119}, {"time": 1438, "pitch": 63, "duration": 2, "velocity": 90}, {"time": 1441, "pitch": 63, "duration": 1, "velocity": 94}, {"time": 1444, "pitch": 65, "duration": 4, "velocity": 114}, {"time": 1453, "pitch": 63, "duration": 1, "velocity": 104}, {"time": 1456, "pitch": 63, "duration": 3, "velocity": 116}, {"time": 1465, "pitch": 62, "duration": 3, "velocity": 114}, {"time": 1468, "pitch": 60, "duration": 5, "velocity": 104}, {"time": 1474, "pitch": 59, "duration": 3, "velocity": 113}, {"time": 1480, "pitch": 60, "duration": 5, "velocity": 83}, {"time": 1486, "pitch": 62, "duration": 3, "velocity": 110}, {"time": 1492, "pitch": 63, "duration": 4, "velocity": 94}, {"time": 1498, "pitch": 63, "duration": 1, "velocity": 91}, {"time": 1501, "pitch": 63, "duration": 1, "velocity": 98}, {"time": 1504, "pitch": 63, "duration": 1, "velocity": 104}, {"time": 1507, "pitch": 63, "duration": 1, "velocity": 102}, {"time": 1510, "pitch": 65, "duration": 4, "velocity": 114}, {"time": 1516, "pitch": 67, "duration": 4, "velocity": 117}, {"time": 1531, "pitch": 70, "duration": 3, "velocity": 117}, {"time": 1534, "pitch": 68, "duration": 3, "velocity": 113}, {"time": 1537, "pitch": 67, "duration": 3, "velocity": 114}, {"time": 1540, "pitch": 65, "duration": 3, "velocity": 104}, {"time": 1543, "pitch": 67, "duration": 3, "velocity": 119}, {"time": 1549, "pitch": 60, "duration": 4, "velocity": 119}, {"time": 1555, "pitch": 67, "duration": 5, "velocity": 117}, {"time": 1561, "pitch": 68, "duration": 3, "velocity": 113}, {"time": 1564, "pitch": 67, "duration": 6, "velocity": 110}, {"time": 1570, "pitch": 65, "duration": 4, "velocity": 108}, {"time": 1579, "pitch": 70, "duration": 3, "velocity": 116}, {"time": 1582, "pitch": 68, "duration": 4, "velocity": 113}, {"time": 1585, "pitch": 67, "duration": 3, "velocity": 110}, {"time": 1588, "pitch": 65, "duration": 3, "velocity": 98}, {"time": 1591, "pitch": 67, "duration": 3, "velocity": 108}, {"time": 1597, "pitch": 58, "duration": 4, "velocity": 114}, {"time": 1603, "pitch": 65, "duration": 5, "velocity": 117}, {"time": 1609, "pitch": 67, "duration": 3, "velocity": 114}, {"time": 1612, "pitch": 65, "duration": 6, "velocity": 114}, {"time": 1618, "pitch": 63, "duration": 4, "velocity": 113}, {"time": 1633, "pitch": 63, "duration": 1, "velocity": 110}, {"time": 1636, "pitch": 63, "duration": 1, "velocity": 100}, {"time": 1639, "pitch": 65, "duration": 4, "velocity": 114}, {"time": 1645, "pitch": 63, "duration": 1, "velocity": 96}, {"time": 1648, "pitch": 63, "duration": 2, "velocity": 100}, {"time": 1657, "pitch": 62, "duration": 3, "velocity": 110}, {"time": 1660, "pitch": 60, "duration": 6, "velocity": 107}, {"time": 1666, "pitch": 59, "duration": 2, "velocity": 113}, {"time": 1669, "pitch": 59, "duration": 2, "velocity": 113}, {"time": 1672, "pitch": 60, "duration": 6, "velocity": 108}, {"time": 1678, "pitch": 62, "duration": 3, "velocity": 110}, {"time": 1687, "pitch": 62, "duration": 25, "velocity": 119}, {"time": 1711, "pitch": 60, "duration": 5, "velocity": 114}, {"time": 1723, "pitch": 70, "duration": 2, "velocity": 119}, {"time": 1726, "pitch": 68, "duration": 3, "velocity": 106}, {"time": 1729, "pitch": 67, "duration": 3, "velocity": 104}, {"time": 1732, "pitch": 65, "duration": 3, "velocity": 102}, {"time": 1735, "pitch": 67, "duration": 3, "velocity": 114}, {"time": 1741, "pitch": 60, "duration": 4, "velocity": 93}, {"time": 1747, "pitch": 67, "duration": 4, "velocity": 114}, {"time": 1753, "pitch": 68, "duration": 2, "velocity": 109}, {"time": 1756, "pitch": 67, "duration": 3, "velocity": 113}, {"time": 1762, "pitch": 65, "duration": 3, "velocity": 108}, {"time": 1771, "pitch": 70, "duration": 4, "velocity": 113}, {"time": 1774, "pitch": 68, "duration": 3, "velocity": 109}, {"time": 1777, "pitch": 67, "duration": 3, "velocity": 107}, {"time": 1780, "pitch": 65, "duration": 3, "velocity": 107}, {"time": 1783, "pitch": 67, "duration": 3, "velocity": 113}, {"time": 1789, "pitch": 58, "duration": 4, "velocity": 107}, {"time": 1795, "pitch": 65, "duration": 4, "velocity": 117}, {"time": 1801, "pitch": 67, "duration": 2, "velocity": 110}, {"time": 1804, "pitch": 65, "duration": 4, "velocity": 114}, {"time": 1810, "pitch": 63, "duration": 4, "velocity": 119}, {"time": 1822, "pitch": 63, "duration": 2, "velocity": 90}, {"time": 1825, "pitch": 63, "duration": 1, "velocity": 94}, {"time": 1828, "pitch": 65, "duration": 4, "velocity": 114}, {"time": 1837, "pitch": 63, "duration": 1, "velocity": 104}, {"time": 1840, "pitch": 63, "duration": 3, "velocity": 116}, {"time": 1849, "pitch": 62, "duration": 3, "velocity": 114}, {"time": 1852, "pitch": 60, "duration": 5, "velocity": 104}, {"time": 1858, "pitch": 59, "duration": 3, "velocity": 113}, {"time": 1864, "pitch": 60, "duration": 5, "velocity": 83}, {"time": 1870, "pitch": 62, "duration": 3, "velocity": 110}, {"time": 1879, "pitch": 63, "duration": 2, "velocity": 94}, {"time": 1883, "pitch": 63, "duration": 3, "velocity": 102}, {"time": 1887, "pitch": 63, "duration": 2, "velocity": 104}, {"time": 1891, "pitch": 63, "duration": 3, "velocity": 113}, {"time": 1895, "pitch": 65, "duration": 3, "velocity": 113}, {"time": 1899, "pitch": 63, "duration": 2, "velocity": 108}, {"time": 1903, "pitch": 67, "duration": 4, "velocity": 117}, {"time": 1915, "pitch": 70, "duration": 3, "velocity": 117}, {"time": 1918, "pitch": 68, "duration": 3, "velocity": 113}, {"time": 1921, "pitch": 67, "duration": 3, "velocity": 114}, {"time": 1924, "pitch": 65, "duration": 3, "velocity": 104}, {"time": 1927, "pitch": 67, "duration": 3, "velocity": 119}, {"time": 1933, "pitch": 60, "duration": 4, "velocity": 119}, {"time": 1939, "pitch": 67, "duration": 5, "velocity": 117}, {"time": 1945, "pitch": 68, "duration": 3, "velocity": 113}, {"time": 1948, "pitch": 67, "duration": 6, "velocity": 110}, {"time": 1954, "pitch": 65, "duration": 4, "velocity": 108}, {"time": 1963, "pitch": 70, "duration": 3, "velocity": 116}, {"time": 1966, "pitch": 68, "duration": 4, "velocity": 113}, {"time": 1969, "pitch": 67, "duration": 3, "velocity": 110}, {"time": 1972, "pitch": 65, "duration": 3, "velocity": 98}, {"time": 1975, "pitch": 67, "duration": 3, "velocity": 108}, {"time": 1981, "pitch": 58, "duration": 4, "velocity": 114}, {"time": 1987, "pitch": 65, "duration": 5, "velocity": 117}, {"time": 1993, "pitch": 67, "duration": 3, "velocity": 114}, {"time": 1996, "pitch": 65, "duration": 6, "velocity": 114}, {"time": 2002, "pitch": 63, "duration": 4, "velocity": 113}, {"time": 2017, "pitch": 63, "duration": 1, "velocity": 110}, {"time": 2020, "pitch": 63, "duration": 1, "velocity": 100}, {"time": 2023, "pitch": 65, "duration": 4, "velocity": 114}, {"time": 2029, "pitch": 63, "duration": 1, "velocity": 96}, {"time": 2032, "pitch": 63, "duration": 2, "velocity": 100}, {"time": 2041, "pitch": 62, "duration": 3, "velocity": 110}, {"time": 2044, "pitch": 60, "duration": 6, "velocity": 107}, {"time": 2050, "pitch": 59, "duration": 2, "velocity": 113}, {"time": 2053, "pitch": 59, "duration": 2, "velocity": 113}, {"time": 2056, "pitch": 60, "duration": 6, "velocity": 108}, {"time": 2062, "pitch": 62, "duration": 3, "velocity": 110}, {"time": 2071, "pitch": 62, "duration": 25, "velocity": 119}, {"time": 2095, "pitch": 60, "duration": 5, "velocity": 114}]}, {"program": 0, "is_drum": false, "name": "BRIDGE", "notes": [{"time": 7, "pitch": 55, "duration": 9, "velocity": 81}, {"time": 7, "pitch": 63, "duration": 9, "velocity": 84}, {"time": 16, "pitch": 55, "duration": 3, "velocity": 100}, {"time": 19, "pitch": 70, "duration": 3, "velocity": 94}, {"time": 22, "pitch": 68, "duration": 3, "velocity": 81}, {"time": 25, "pitch": 67, "duration": 3, "velocity": 86}, {"time": 28, "pitch": 65, "duration": 3, "velocity": 86}, {"time": 31, "pitch": 63, "duration": 9, "velocity": 88}, {"time": 40, "pitch": 60, "duration": 3, "velocity": 86}, {"time": 43, "pitch": 70, "duration": 3, "velocity": 84}, {"time": 46, "pitch": 68, "duration": 4, "velocity": 84}, {"time": 49, "pitch": 67, "duration": 3, "velocity": 85}, {"time": 52, "pitch": 65, "duration": 4, "velocity": 80}, {"time": 55, "pitch": 67, "duration": 12, "velocity": 88}, {"time": 67, "pitch": 70, "duration": 3, "velocity": 94}, {"time": 70, "pitch": 68, "duration": 3, "velocity": 86}, {"time": 73, "pitch": 67, "duration": 6, "velocity": 89}, {"time": 79, "pitch": 67, "duration": 9, "velocity": 89}, {"time": 88, "pitch": 67, "duration": 3, "velocity": 88}, {"time": 91, "pitch": 68, "duration": 6, "velocity": 91}, {"time": 97, "pitch": 70, "duration": 6, "velocity": 91}, {"time": 103, "pitch": 67, "duration": 9, "velocity": 88}, {"time": 112, "pitch": 63, "duration": 3, "velocity": 86}, {"time": 115, "pitch": 70, "duration": 3, "velocity": 100}, {"time": 118, "pitch": 68, "duration": 3, "velocity": 100}, {"time": 121, "pitch": 67, "duration": 3, "velocity": 84}, {"time": 124, "pitch": 65, "duration": 3, "velocity": 81}, {"time": 127, "pitch": 63, "duration": 9, "velocity": 82}, {"time": 136, "pitch": 63, "duration": 3, "velocity": 85}, {"time": 139, "pitch": 70, "duration": 3, "velocity": 92}, {"time": 142, "pitch": 68, "duration": 3, "velocity": 95}, {"time": 145, "pitch": 67, "duration": 3, "velocity": 84}, {"time": 148, "pitch": 65, "duration": 4, "velocity": 75}, {"time": 151, "pitch": 67, "duration": 9, "velocity": 88}, {"time": 160, "pitch": 63, "duration": 3, "velocity": 86}, {"time": 163, "pitch": 70, "duration": 3, "velocity": 87}, {"time": 166, "pitch": 68, "duration": 4, "velocity": 80}, {"time": 169, "pitch": 67, "duration": 6, "velocity": 87}, {"time": 175, "pitch": 67, "duration": 24, "velocity": 87}, {"time": 280, "pitch": 60, "duration": 3, "velocity": 83}, {"time": 283, "pitch": 63, "duration": 12, "velocity": 84}, {"time": 295, "pitch": 67, "duration": 21, "velocity": 81}, {"time": 319, "pitch": 62, "duration": 23, "velocity": 85}, {"time": 343, "pitch": 58, "duration": 29, "velocity": 75}, {"time": 439, "pitch": 62, "duration": 31, "velocity": 87}, {"time": 469, "pitch": 79, "duration": 6, "velocity": 88}, {"time": 475, "pitch": 87, "duration": 13, "velocity": 91}, {"time": 487, "pitch": 84, "duration": 26, "velocity": 89}, {"time": 511, "pitch": 89, "duration": 13, "velocity": 102}, {"time": 523, "pitch": 83, "duration": 12, "velocity": 97}, {"time": 535, "pitch": 86, "duration": 26, "velocity": 94}, {"time": 739, "pitch": 74, "duration": 4, "velocity": 86}, {"time": 742, "pitch": 75, "duration": 3, "velocity": 88}, {"time": 745, "pitch": 77, "duration": 3, "velocity": 85}, {"time": 748, "pitch": 79, "duration": 14, "velocity": 91}, {"time": 775, "pitch": 72, "duration": 18, "velocity": 100}, {"time": 793, "pitch": 71, "duration": 6, "velocity": 100}, {"time": 799, "pitch": 70, "duration": 14, "velocity": 90}, {"time": 811, "pitch": 75, "duration": 6, "velocity": 102}, {"time": 817, "pitch": 77, "duration": 7, "velocity": 90}, {"time": 823, "pitch": 86, "duration": 9, "velocity": 88}, {"time": 853, "pitch": 87, "duration": 2, "velocity": 92}, {"time": 855, "pitch": 86, "duration": 1, "velocity": 75}, {"time": 856, "pitch": 82, "duration": 1, "velocity": 98}, {"time": 858, "pitch": 79, "duration": 1, "velocity": 93}, {"time": 859, "pitch": 86, "duration": 2, "velocity": 93}, {"time": 861, "pitch": 82, "duration": 1, "velocity": 87}, {"time": 862, "pitch": 79, "duration": 1, "velocity": 90}, {"time": 864, "pitch": 77, "duration": 1, "velocity": 88}, {"time": 865, "pitch": 79, "duration": 2, "velocity": 88}, {"time": 877, "pitch": 72, "duration": 6, "velocity": 87}, {"time": 883, "pitch": 74, "duration": 6, "velocity": 87}, {"time": 889, "pitch": 79, "duration": 7, "velocity": 90}, {"time": 895, "pitch": 77, "duration": 8, "velocity": 87}, {"time": 904, "pitch": 77, "duration": 1, "velocity": 81}, {"time": 906, "pitch": 76, "duration": 1, "velocity": 85}, {"time": 907, "pitch": 74, "duration": 18, "velocity": 86}, {"time": 943, "pitch": 72, "duration": 11, "velocity": 88}, {"time": 946, "pitch": 60, "duration": 3, "velocity": 102}, {"time": 949, "pitch": 62, "duration": 3, "velocity": 98}, {"time": 952, "pitch": 63, "duration": 2, "velocity": 94}, {"time": 954, "pitch": 66, "duration": 1, "velocity": 95}, {"time": 955, "pitch": 67, "duration": 5, "velocity": 94}, {"time": 960, "pitch": 65, "duration": 4, "velocity": 84}, {"time": 964, "pitch": 63, "duration": 3, "velocity": 87}, {"time": 966, "pitch": 66, "duration": 1, "velocity": 86}, {"time": 967, "pitch": 67, "duration": 6, "velocity": 91}, {"time": 973, "pitch": 60, "duration": 4, "velocity": 83}, {"time": 976, "pitch": 63, "duration": 5, "velocity": 87}, {"time": 981, "pitch": 66, "duration": 1, "velocity": 83}, {"time": 982, "pitch": 67, "duration": 6, "velocity": 83}, {"time": 988, "pitch": 65, "duration": 6, "velocity": 84}, {"time": 994, "pitch": 65, "duration": 2, "velocity": 87}, {"time": 996, "pitch": 63, "duration": 1, "velocity": 85}, {"time": 997, "pitch": 62, "duration": 3, "velocity": 87}, {"time": 1000, "pitch": 62, "duration": 2, "velocity": 88}, {"time": 1002, "pitch": 63, "duration": 1, "velocity": 88}, {"time": 1003, "pitch": 65, "duration": 3, "velocity": 87}, {"time": 1006, "pitch": 63, "duration": 3, "velocity": 89}, {"time": 1009, "pitch": 62, "duration": 3, "velocity": 88}, {"time": 1012, "pitch": 63, "duration": 3, "velocity": 87}, {"time": 1015, "pitch": 65, "duration": 5, "velocity": 86}, {"time": 1020, "pitch": 58, "duration": 4, "velocity": 63}, {"time": 1024, "pitch": 62, "duration": 6, "velocity": 86}, {"time": 1030, "pitch": 65, "duration": 6, "velocity": 78}, {"time": 1036, "pitch": 63, "duration": 6, "velocity": 86}, {"time": 1042, "pitch": 62, "duration": 3, "velocity": 86}, {"time": 1045, "pitch": 60, "duration": 3, "velocity": 87}, {"time": 1048, "pitch": 58, "duration": 4, "velocity": 82}, {"time": 1051, "pitch": 60, "duration": 9, "velocity": 89}, {"time": 1060, "pitch": 68, "duration": 3, "velocity": 100}, {"time": 1063, "pitch": 68, "duration": 5, "velocity": 106}, {"time": 1068, "pitch": 67, "duration": 4, "velocity": 96}, {"time": 1072, "pitch": 65, "duration": 3, "velocity": 92}, {"time": 1075, "pitch": 67, "duration": 5, "velocity": 94}, {"time": 1080, "pitch": 65, "duration": 4, "velocity": 91}, {"time": 1084, "pitch": 63, "duration": 3, "velocity": 88}, {"time": 1087, "pitch": 59, "duration": 5, "velocity": 97}, {"time": 1092, "pitch": 60, "duration": 4, "velocity": 90}, {"time": 1096, "pitch": 62, "duration": 3, "velocity": 89}, {"time": 1099, "pitch": 60, "duration": 5, "velocity": 92}, {"time": 1104, "pitch": 58, "duration": 7, "velocity": 91}, {"time": 1111, "pitch": 56, "duration": 9, "velocity": 93}, {"time": 1120, "pitch": 53, "duration": 3, "velocity": 87}, {"time": 1123, "pitch": 56, "duration": 3, "velocity": 100}, {"time": 1126, "pitch": 58, "duration": 12, "velocity": 89}, {"time": 1138, "pitch": 60, "duration": 3, "velocity": 108}, {"time": 1138, "pitch": 72, "duration": 3, "velocity": 104}, {"time": 1141, "pitch": 60, "duration": 3, "velocity": 100}, {"time": 1141, "pitch": 72, "duration": 3, "velocity": 102}, {"time": 1144, "pitch": 60, "duration": 3, "velocity": 100}, {"time": 1144, "pitch": 72, "duration": 3, "velocity": 104}, {"time": 1147, "pitch": 60, "duration": 12, "velocity": 104}, {"time": 1147, "pitch": 72, "duration": 12, "velocity": 110}, {"time": 1255, "pitch": 72, "duration": 23, "velocity": 87}, {"time": 1279, "pitch": 77, "duration": 13, "velocity": 85}, {"time": 1303, "pitch": 77, "duration": 25, "velocity": 87}, {"time": 1330, "pitch": 72, "duration": 1, "velocity": 89}, {"time": 1333, "pitch": 74, "duration": 1, "velocity": 92}, {"time": 1336, "pitch": 75, "duration": 1, "velocity": 88}, {"time": 1339, "pitch": 75, "duration": 1, "velocity": 89}, {"time": 1342, "pitch": 77, "duration": 1, "velocity": 91}, {"time": 1345, "pitch": 79, "duration": 1, "velocity": 104}, {"time": 1348, "pitch": 82, "duration": 1, "velocity": 104}, {"time": 1351, "pitch": 80, "duration": 14, "velocity": 116}, {"time": 1375, "pitch": 77, "duration": 8, "velocity": 96}, {"time": 1384, "pitch": 77, "duration": 1, "velocity": 82}, {"time": 1386, "pitch": 75, "duration": 1, "velocity": 82}, {"time": 1387, "pitch": 74, "duration": 4, "velocity": 88}, {"time": 1459, "pitch": 77, "duration": 20, "velocity": 89}, {"time": 1480, "pitch": 77, "duration": 1, "velocity": 80}, {"time": 1482, "pitch": 75, "duration": 1, "velocity": 83}, {"time": 1483, "pitch": 74, "duration": 5, "velocity": 82}, {"time": 1495, "pitch": 75, "duration": 13, "velocity": 94}, {"time": 1507, "pitch": 77, "duration": 12, "velocity": 88}, {"time": 1519, "pitch": 79, "duration": 17, "velocity": 91}, {"time": 1531, "pitch": 82, "duration": 11, "velocity": 90}, {"time": 1543, "pitch": 84, "duration": 24, "velocity": 93}, {"time": 1567, "pitch": 82, "duration": 6, "velocity": 93}, {"time": 1573, "pitch": 77, "duration": 7, "velocity": 89}, {"time": 1579, "pitch": 79, "duration": 6, "velocity": 88}, {"time": 1585, "pitch": 82, "duration": 6, "velocity": 89}, {"time": 1591, "pitch": 79, "duration": 4, "velocity": 91}, {"time": 1597, "pitch": 74, "duration": 2, "velocity": 87}, {"time": 1600, "pitch": 75, "duration": 2, "velocity": 86}, {"time": 1603, "pitch": 77, "duration": 14, "velocity": 96}, {"time": 1621, "pitch": 82, "duration": 7, "velocity": 93}, {"time": 1627, "pitch": 79, "duration": 6, "velocity": 96}, {"time": 1633, "pitch": 75, "duration": 7, "velocity": 87}, {"time": 1639, "pitch": 77, "duration": 14, "velocity": 92}, {"time": 1657, "pitch": 75, "duration": 6, "velocity": 85}, {"time": 1663, "pitch": 77, "duration": 8, "velocity": 86}, {"time": 1672, "pitch": 77, "duration": 1, "velocity": 81}, {"time": 1674, "pitch": 75, "duration": 1, "velocity": 84}, {"time": 1675, "pitch": 74, "duration": 8, "velocity": 84}, {"time": 1687, "pitch": 75, "duration": 17, "velocity": 104}, {"time": 1705, "pitch": 82, "duration": 6, "velocity": 102}, {"time": 1711, "pitch": 79, "duration": 24, "velocity": 93}, {"time": 1831, "pitch": 82, "duration": 13, "velocity": 92}, {"time": 1843, "pitch": 80, "duration": 13, "velocity": 84}, {"time": 1855, "pitch": 79, "duration": 12, "velocity": 89}, {"time": 1867, "pitch": 77, "duration": 9, "velocity": 85}, {"time": 1927, "pitch": 84, "duration": 25, "velocity": 96}, {"time": 1951, "pitch": 82, "duration": 23, "velocity": 93}, {"time": 1975, "pitch": 86, "duration": 24, "velocity": 107}, {"time": 1999, "pitch": 80, "duration": 12, "velocity": 95}, {"time": 2011, "pitch": 82, "duration": 13, "velocity": 93}, {"time": 2023, "pitch": 80, "duration": 15, "velocity": 103}, {"time": 2041, "pitch": 79, "duration": 6, "velocity": 91}, {"time": 2047, "pitch": 77, "duration": 6, "velocity": 88}, {"time": 2056, "pitch": 77, "duration": 1, "velocity": 84}, {"time": 2058, "pitch": 75, "duration": 1, "velocity": 83}, {"time": 2059, "pitch": 74, "duration": 6, "velocity": 84}, {"time": 2071, "pitch": 77, "duration": 24, "velocity": 93}, {"time": 2095, "pitch": 79, "duration": 21, "velocity": 89}, {"time": 2110, "pitch": 72, "duration": 1, "velocity": 108}, {"time": 2113, "pitch": 75, "duration": 1, "velocity": 108}, {"time": 2116, "pitch": 77, "duration": 1, "velocity": 104}, {"time": 2119, "pitch": 79, "duration": 2, "velocity": 116}, {"time": 2122, "pitch": 72, "duration": 1, "velocity": 93}, {"time": 2125, "pitch": 75, "duration": 2, "velocity": 91}, {"time": 2128, "pitch": 72, "duration": 2, "velocity": 88}, {"time": 2131, "pitch": 79, "duration": 2, "velocity": 104}, {"time": 2134, "pitch": 72, "duration": 1, "velocity": 87}, {"time": 2137, "pitch": 75, "duration": 1, "velocity": 89}, {"time": 2140, "pitch": 79, "duration": 2, "velocity": 104}, {"time": 2146, "pitch": 70, "duration": 1, "velocity": 86}, {"time": 2149, "pitch": 74, "duration": 1, "velocity": 93}, {"time": 2152, "pitch": 70, "duration": 1, "velocity": 89}, {"time": 2155, "pitch": 77, "duration": 2, "velocity": 107}, {"time": 2158, "pitch": 70, "duration": 1, "velocity": 86}, {"time": 2161, "pitch": 77, "duration": 1, "velocity": 88}, {"time": 2164, "pitch": 82, "duration": 2, "velocity": 96}, {"time": 2170, "pitch": 70, "duration": 1, "velocity": 91}, {"time": 2173, "pitch": 77, "duration": 1, "velocity": 90}, {"time": 2176, "pitch": 82, "duration": 2, "velocity": 102}, {"time": 2179, "pitch": 74, "duration": 1, "velocity": 88}, {"time": 2182, "pitch": 75, "duration": 1, "velocity": 88}, {"time": 2185, "pitch": 74, "duration": 1, "velocity": 90}, {"time": 2188, "pitch": 70, "duration": 2, "velocity": 91}, {"time": 2194, "pitch": 80, "duration": 1, "velocity": 109}, {"time": 2197, "pitch": 79, "duration": 1, "velocity": 98}, {"time": 2200, "pitch": 75, "duration": 1, "velocity": 93}, {"time": 2203, "pitch": 74, "duration": 2, "velocity": 104}, {"time": 2206, "pitch": 72, "duration": 3, "velocity": 92}, {"time": 2209, "pitch": 70, "duration": 1, "velocity": 89}, {"time": 2212, "pitch": 70, "duration": 3, "velocity": 96}, {"time": 2215, "pitch": 82, "duration": 27, "velocity": 114}, {"time": 2218, "pitch": 68, "duration": 1, "velocity": 109}, {"time": 2221, "pitch": 67, "duration": 1, "velocity": 88}, {"time": 2224, "pitch": 68, "duration": 2, "velocity": 116}, {"time": 2227, "pitch": 74, "duration": 3, "velocity": 89}, {"time": 2230, "pitch": 75, "duration": 3, "velocity": 87}, {"time": 2233, "pitch": 79, "duration": 3, "velocity": 94}, {"time": 2236, "pitch": 74, "duration": 2, "velocity": 89}, {"time": 2242, "pitch": 70, "duration": 2, "velocity": 102}, {"time": 2245, "pitch": 77, "duration": 2, "velocity": 89}, {"time": 2248, "pitch": 82, "duration": 3, "velocity": 93}, {"time": 2251, "pitch": 79, "duration": 2, "velocity": 91}, {"time": 2251, "pitch": 80, "duration": 12, "velocity": 113}, {"time": 2254, "pitch": 74, "duration": 2, "velocity": 93}, {"time": 2257, "pitch": 77, "duration": 1, "velocity": 102}, {"time": 2260, "pitch": 71, "duration": 3, "velocity": 100}, {"time": 2263, "pitch": 72, "duration": 3, "velocity": 104}, {"time": 2263, "pitch": 79, "duration": 27, "velocity": 113}, {"time": 2266, "pitch": 71, "duration": 2, "velocity": 90}, {"time": 2269, "pitch": 72, "duration": 2, "velocity": 93}, {"time": 2272, "pitch": 74, "duration": 3, "velocity": 89}, {"time": 2275, "pitch": 75, "duration": 2, "velocity": 98}, {"time": 2278, "pitch": 74, "duration": 2, "velocity": 88}, {"time": 2281, "pitch": 75, "duration": 2, "velocity": 91}, {"time": 2284, "pitch": 77, "duration": 2, "velocity": 108}, {"time": 2290, "pitch": 72, "duration": 4, "velocity": 90}, {"time": 2293, "pitch": 74, "duration": 3, "velocity": 91}, {"time": 2296, "pitch": 75, "duration": 3, "velocity": 91}, {"time": 2299, "pitch": 77, "duration": 3, "velocity": 98}, {"time": 2305, "pitch": 82, "duration": 7, "velocity": 110}, {"time": 2311, "pitch": 75, "duration": 2, "velocity": 108}, {"time": 2311, "pitch": 80, "duration": 10, "velocity": 113}, {"time": 2314, "pitch": 68, "duration": 1, "velocity": 90}, {"time": 2317, "pitch": 75, "duration": 2, "velocity": 98}, {"time": 2320, "pitch": 68, "duration": 1, "velocity": 89}, {"time": 2323, "pitch": 75, "duration": 1, "velocity": 94}, {"time": 2326, "pitch": 68, "duration": 1, "velocity": 84}, {"time": 2329, "pitch": 75, "duration": 2, "velocity": 93}, {"time": 2329, "pitch": 87, "duration": 7, "velocity": 113}, {"time": 2332, "pitch": 68, "duration": 1, "velocity": 95}, {"time": 2335, "pitch": 74, "duration": 2, "velocity": 96}, {"time": 2335, "pitch": 86, "duration": 12, "velocity": 113}, {"time": 2338, "pitch": 67, "duration": 2, "velocity": 85}, {"time": 2341, "pitch": 74, "duration": 2, "velocity": 88}, {"time": 2344, "pitch": 67, "duration": 1, "velocity": 85}, {"time": 2347, "pitch": 74, "duration": 2, "velocity": 94}, {"time": 2350, "pitch": 67, "duration": 1, "velocity": 87}, {"time": 2350, "pitch": 82, "duration": 3, "velocity": 91}, {"time": 2353, "pitch": 74, "duration": 2, "velocity": 92}, {"time": 2353, "pitch": 77, "duration": 3, "velocity": 88}, {"time": 2356, "pitch": 67, "duration": 2, "velocity": 87}, {"time": 2356, "pitch": 78, "duration": 3, "velocity": 97}, {"time": 2359, "pitch": 74, "duration": 2, "velocity": 91}, {"time": 2359, "pitch": 79, "duration": 19, "velocity": 92}, {"time": 2362, "pitch": 67, "duration": 1, "velocity": 78}, {"time": 2365, "pitch": 74, "duration": 3, "velocity": 84}, {"time": 2368, "pitch": 67, "duration": 2, "velocity": 79}, {"time": 2371, "pitch": 74, "duration": 2, "velocity": 90}, {"time": 2374, "pitch": 67, "duration": 2, "velocity": 86}, {"time": 2377, "pitch": 74, "duration": 2, "velocity": 91}, {"time": 2377, "pitch": 80, "duration": 6, "velocity": 96}, {"time": 2380, "pitch": 67, "duration": 2, "velocity": 88}, {"time": 2383, "pitch": 72, "duration": 2, "velocity": 96}, {"time": 2383, "pitch": 82, "duration": 8, "velocity": 110}, {"time": 2386, "pitch": 67, "duration": 1, "velocity": 86}, {"time": 2389, "pitch": 72, "duration": 2, "velocity": 93}, {"time": 2392, "pitch": 67, "duration": 1, "velocity": 87}, {"time": 2392, "pitch": 81, "duration": 1, "velocity": 88}, {"time": 2394, "pitch": 80, "duration": 1, "velocity": 95}, {"time": 2395, "pitch": 72, "duration": 2, "velocity": 96}, {"time": 2395, "pitch": 79, "duration": 4, "velocity": 93}, {"time": 2398, "pitch": 67, "duration": 1, "velocity": 85}, {"time": 2401, "pitch": 72, "duration": 2, "velocity": 93}, {"time": 2404, "pitch": 67, "duration": 1, "velocity": 91}, {"time": 2413, "pitch": 87, "duration": 3, "velocity": 108}, {"time": 2416, "pitch": 86, "duration": 3, "velocity": 91}, {"time": 2419, "pitch": 82, "duration": 3, "velocity": 96}, {"time": 2422, "pitch": 79, "duration": 2, "velocity": 98}, {"time": 2425, "pitch": 74, "duration": 2, "velocity": 86}, {"time": 2428, "pitch": 70, "duration": 2, "velocity": 87}, {"time": 2431, "pitch": 67, "duration": 11, "velocity": 89}, {"time": 2443, "pitch": 77, "duration": 4, "velocity": 96}, {"time": 2446, "pitch": 76, "duration": 1, "velocity": 81}, {"time": 2448, "pitch": 75, "duration": 1, "velocity": 92}, {"time": 2449, "pitch": 74, "duration": 5, "velocity": 90}, {"time": 2452, "pitch": 75, "duration": 3, "velocity": 78}, {"time": 2455, "pitch": 74, "duration": 23, "velocity": 88}, {"time": 2479, "pitch": 72, "duration": 27, "velocity": 88}]}, {"program": 0, "is_drum": false, "name": "PIANO", "notes": [{"time": 7, "pitch": 48, "duration": 16, "velocity": 58}, {"time": 7, "pitch": 60, "duration": 22, "velocity": 66}, {"time": 7, "pitch": 63, "duration": 47, "velocity": 62}, {"time": 7, "pitch": 67, "duration": 21, "velocity": 65}, {"time": 31, "pitch": 44, "duration": 17, "velocity": 53}, {"time": 31, "pitch": 56, "duration": 17, "velocity": 60}, {"time": 31, "pitch": 60, "duration": 21, "velocity": 61}, {"time": 31, "pitch": 68, "duration": 19, "velocity": 65}, {"time": 55, "pitch": 48, "duration": 22, "velocity": 58}, {"time": 55, "pitch": 60, "duration": 18, "velocity": 62}, {"time": 55, "pitch": 63, "duration": 19, "velocity": 57}, {"time": 55, "pitch": 67, "duration": 19, "velocity": 68}, {"time": 79, "pitch": 43, "duration": 10, "velocity": 48}, {"time": 79, "pitch": 55, "duration": 10, "velocity": 62}, {"time": 79, "pitch": 59, "duration": 8, "velocity": 63}, {"time": 79, "pitch": 62, "duration": 9, "velocity": 65}, {"time": 79, "pitch": 67, "duration": 8, "velocity": 67}, {"time": 91, "pitch": 47, "duration": 12, "velocity": 64}, {"time": 91, "pitch": 61, "duration": 9, "velocity": 63}, {"time": 91, "pitch": 65, "duration": 12, "velocity": 66}, {"time": 91, "pitch": 68, "duration": 9, "velocity": 65}, {"time": 103, "pitch": 48, "duration": 21, "velocity": 63}, {"time": 103, "pitch": 60, "duration": 22, "velocity": 64}, {"time": 103, "pitch": 63, "duration": 22, "velocity": 63}, {"time": 103, "pitch": 67, "duration": 22, "velocity": 66}, {"time": 127, "pitch": 44, "duration": 23, "velocity": 59}, {"time": 127, "pitch": 56, "duration": 23, "velocity": 62}, {"time": 127, "pitch": 60, "duration": 22, "velocity": 65}, {"time": 127, "pitch": 63, "duration": 22, "velocity": 60}, {"time": 127, "pitch": 67, "duration": 22, "velocity": 67}, {"time": 151, "pitch": 48, "duration": 24, "velocity": 66}, {"time": 151, "pitch": 60, "duration": 19, "velocity": 63}, {"time": 151, "pitch": 63, "duration": 19, "velocity": 65}, {"time": 151, "pitch": 67, "duration": 20, "velocity": 68}, {"time": 175, "pitch": 43, "duration": 12, "velocity": 51}, {"time": 175, "pitch": 55, "duration": 12, "velocity": 56}, {"time": 175, "pitch": 59, "duration": 9, "velocity": 65}, {"time": 175, "pitch": 62, "duration": 10, "velocity": 63}, {"time": 175, "pitch": 67, "duration": 8, "velocity": 68}, {"time": 187, "pitch": 47, "duration": 11, "velocity": 66}, {"time": 187, "pitch": 61, "duration": 10, "velocity": 65}, {"time": 187, "pitch": 65, "duration": 10, "velocity": 65}, {"time": 187, "pitch": 68, "duration": 10, "velocity": 66}, {"time": 199, "pitch": 48, "duration": 13, "velocity": 72}, {"time": 199, "pitch": 55, "duration": 13, "velocity": 58}, {"time": 199, "pitch": 63, "duration": 9, "velocity": 72}, {"time": 199, "pitch": 67, "duration": 12, "velocity": 76}, {"time": 199, "pitch": 72, "duration": 12, "velocity": 77}, {"time": 214, "pitch": 67, "duration": 4, "velocity": 70}, {"time": 217, "pitch": 72, "duration": 3, "velocity": 83}, {"time": 220, "pitch": 75, "duration": 4, "velocity": 84}, {"time": 223, "pitch": 47, "duration": 17, "velocity": 79}, {"time": 223, "pitch": 67, "duration": 19, "velocity": 83}, {"time": 223, "pitch": 74, "duration": 17, "velocity": 84}, {"time": 229, "pitch": 55, "duration": 11, "velocity": 67}, {"time": 235, "pitch": 59, "duration": 4, "velocity": 73}, {"time": 247, "pitch": 46, "duration": 17, "velocity": 81}, {"time": 247, "pitch": 65, "duration": 14, "velocity": 83}, {"time": 247, "pitch": 74, "duration": 14, "velocity": 86}, {"time": 253, "pitch": 55, "duration": 11, "velocity": 38}, {"time": 259, "pitch": 58, "duration": 2, "velocity": 42}, {"time": 262, "pitch": 65, "duration": 2, "velocity": 80}, {"time": 265, "pitch": 74, "duration": 5, "velocity": 88}, {"time": 271, "pitch": 45, "duration": 15, "velocity": 79}, {"time": 271, "pitch": 65, "duration": 9, "velocity": 83}, {"time": 271, "pitch": 72, "duration": 8, "velocity": 76}, {"time": 283, "pitch": 65, "duration": 6, "velocity": 81}, {"time": 283, "pitch": 72, "duration": 5, "velocity": 83}, {"time": 295, "pitch": 44, "duration": 16, "velocity": 66}, {"time": 295, "pitch": 56, "duration": 15, "velocity": 72}, {"time": 295, "pitch": 60, "duration": 8, "velocity": 71}, {"time": 295, "pitch": 63, "duration": 8, "velocity": 78}, {"time": 295, "pitch": 68, "duration": 7, "velocity": 71}, {"time": 307, "pitch": 60, "duration": 4, "velocity": 75}, {"time": 307, "pitch": 63, "duration": 3, "velocity": 72}, {"time": 307, "pitch": 68, "duration": 2, "velocity": 67}, {"time": 319, "pitch": 43, "duration": 17, "velocity": 69}, {"time": 319, "pitch": 55, "duration": 22, "velocity": 73}, {"time": 319, "pitch": 59, "duration": 8, "velocity": 74}, {"time": 319, "pitch": 62, "duration": 6, "velocity": 78}, {"time": 319, "pitch": 67, "duration": 6, "velocity": 80}, {"time": 331, "pitch": 59, "duration": 4, "velocity": 74}, {"time": 331, "pitch": 62, "duration": 5, "velocity": 77}, {"time": 331, "pitch": 67, "duration": 5, "velocity": 80}, {"time": 343, "pitch": 48, "duration": 14, "velocity": 71}, {"time": 343, "pitch": 60, "duration": 7, "velocity": 65}, {"time": 343, "pitch": 63, "duration": 7, "velocity": 66}, {"time": 343, "pitch": 67, "duration": 7, "velocity": 71}, {"time": 355, "pitch": 60, "duration": 2, "velocity": 77}, {"time": 355, "pitch": 63, "duration": 1, "velocity": 77}, {"time": 355, "pitch": 67, "duration": 2, "velocity": 73}, {"time": 370, "pitch": 43, "duration": 7, "velocity": 67}, {"time": 370, "pitch": 55, "duration": 7, "velocity": 68}, {"time": 370, "pitch": 59, "duration": 6, "velocity": 75}, {"time": 370, "pitch": 63, "duration": 7, "velocity": 79}, {"time": 379, "pitch": 65, "duration": 5, "velocity": 87}, {"time": 385, "pitch": 70, "duration": 5, "velocity": 85}, {"time": 391, "pitch": 48, "duration": 15, "velocity": 87}, {"time": 391, "pitch": 63, "duration": 8, "velocity": 81}, {"time": 391, "pitch": 67, "duration": 8, "velocity": 84}, {"time": 391, "pitch": 72, "duration": 7, "velocity": 83}, {"time": 403, "pitch": 63, "duration": 5, "velocity": 83}, {"time": 403, "pitch": 67, "duration": 9, "velocity": 81}, {"time": 403, "pitch": 72, "duration": 11, "velocity": 86}, {"time": 415, "pitch": 47, "duration": 19, "velocity": 78}, {"time": 415, "pitch": 59, "duration": 12, "velocity": 80}, {"time": 415, "pitch": 67, "duration": 8, "velocity": 84}, {"time": 415, "pitch": 71, "duration": 7, "velocity": 83}, {"time": 415, "pitch": 74, "duration": 7, "velocity": 83}, {"time": 427, "pitch": 74, "duration": 6, "velocity": 88}, {"time": 430, "pitch": 59, "duration": 3, "velocity": 83}, {"time": 433, "pitch": 67, "duration": 3, "velocity": 81}, {"time": 436, "pitch": 74, "duration": 11, "velocity": 86}, {"time": 439, "pitch": 46, "duration": 18, "velocity": 84}, {"time": 439, "pitch": 65, "duration": 8, "velocity": 86}, {"time": 439, "pitch": 70, "duration": 7, "velocity": 88}, {"time": 451, "pitch": 65, "duration": 5, "velocity": 87}, {"time": 451, "pitch": 70, "duration": 3, "velocity": 82}, {"time": 451, "pitch": 74, "duration": 2, "velocity": 78}, {"time": 460, "pitch": 60, "duration": 10, "velocity": 65}, {"time": 460, "pitch": 63, "duration": 8, "velocity": 76}, {"time": 463, "pitch": 45, "duration": 15, "velocity": 77}, {"time": 463, "pitch": 69, "duration": 7, "velocity": 91}, {"time": 475, "pitch": 69, "duration": 6, "velocity": 90}, {"time": 478, "pitch": 60, "duration": 5, "velocity": 83}, {"time": 481, "pitch": 63, "duration": 3, "velocity": 81}, {"time": 484, "pitch": 69, "duration": 3, "velocity": 86}, {"time": 487, "pitch": 44, "duration": 16, "velocity": 76}, {"time": 487, "pitch": 56, "duration": 16, "velocity": 81}, {"time": 487, "pitch": 60, "duration": 8, "velocity": 82}, {"time": 487, "pitch": 63, "duration": 7, "velocity": 78}, {"time": 487, "pitch": 67, "duration": 7, "velocity": 83}, {"time": 499, "pitch": 60, "duration": 6, "velocity": 88}, {"time": 499, "pitch": 63, "duration": 3, "velocity": 88}, {"time": 499, "pitch": 67, "duration": 7, "velocity": 87}, {"time": 511, "pitch": 43, "duration": 17, "velocity": 75}, {"time": 511, "pitch": 59, "duration": 7, "velocity": 83}, {"time": 511, "pitch": 62, "duration": 7, "velocity": 87}, {"time": 511, "pitch": 67, "duration": 7, "velocity": 86}, {"time": 523, "pitch": 59, "duration": 6, "velocity": 86}, {"time": 523, "pitch": 62, "duration": 10, "velocity": 86}, {"time": 523, "pitch": 67, "duration": 8, "velocity": 87}, {"time": 535, "pitch": 48, "duration": 20, "velocity": 83}, {"time": 535, "pitch": 60, "duration": 4, "velocity": 84}, {"time": 535, "pitch": 63, "duration": 8, "velocity": 87}, {"time": 535, "pitch": 67, "duration": 10, "velocity": 87}, {"time": 541, "pitch": 55, "duration": 12, "velocity": 65}, {"time": 544, "pitch": 60, "duration": 7, "velocity": 83}, {"time": 547, "pitch": 62, "duration": 3, "velocity": 94}, {"time": 550, "pitch": 63, "duration": 5, "velocity": 110}, {"time": 556, "pitch": 62, "duration": 3, "velocity": 83}, {"time": 559, "pitch": 48, "duration": 14, "velocity": 86}, {"time": 559, "pitch": 60, "duration": 4, "velocity": 87}, {"time": 559, "pitch": 63, "duration": 5, "velocity": 87}, {"time": 559, "pitch": 67, "duration": 5, "velocity": 89}, {"time": 571, "pitch": 60, "duration": 4, "velocity": 102}, {"time": 571, "pitch": 67, "duration": 3, "velocity": 98}, {"time": 574, "pitch": 62, "duration": 4, "velocity": 89}, {"time": 577, "pitch": 63, "duration": 3, "velocity": 86}, {"time": 580, "pitch": 62, "duration": 3, "velocity": 86}, {"time": 583, "pitch": 48, "duration": 14, "velocity": 91}, {"time": 583, "pitch": 60, "duration": 9, "velocity": 96}, {"time": 583, "pitch": 63, "duration": 9, "velocity": 104}, {"time": 583, "pitch": 67, "duration": 9, "velocity": 98}, {"time": 595, "pitch": 60, "duration": 6, "velocity": 93}, {"time": 595, "pitch": 63, "duration": 6, "velocity": 107}, {"time": 595, "pitch": 67, "duration": 6, "velocity": 100}, {"time": 604, "pitch": 48, "duration": 1, "velocity": 91}, {"time": 604, "pitch": 60, "duration": 1, "velocity": 88}, {"time": 604, "pitch": 63, "duration": 1, "velocity": 92}, {"time": 604, "pitch": 67, "duration": 1, "velocity": 89}, {"time": 607, "pitch": 46, "duration": 6, "velocity": 90}, {"time": 610, "pitch": 58, "duration": 7, "velocity": 89}, {"time": 610, "pitch": 62, "duration": 7, "velocity": 100}, {"time": 610, "pitch": 65, "duration": 7, "velocity": 100}, {"time": 616, "pitch": 46, "duration": 5, "velocity": 92}, {"time": 619, "pitch": 58, "duration": 7, "velocity": 110}, {"time": 619, "pitch": 62, "duration": 9, "velocity": 114}, {"time": 619, "pitch": 65, "duration": 7, "velocity": 108}, {"time": 625, "pitch": 46, "duration": 5, "velocity": 89}, {"time": 631, "pitch": 43, "duration": 15, "velocity": 89}, {"time": 631, "pitch": 58, "duration": 9, "velocity": 102}, {"time": 631, "pitch": 62, "duration": 9, "velocity": 108}, {"time": 631, "pitch": 67, "duration": 9, "velocity": 90}, {"time": 640, "pitch": 55, "duration": 3, "velocity": 81}, {"time": 643, "pitch": 58, "duration": 7, "velocity": 107}, {"time": 643, "pitch": 62, "duration": 7, "velocity": 117}, {"time": 643, "pitch": 67, "duration": 7, "velocity": 110}, {"time": 649, "pitch": 43, "duration": 2, "velocity": 91}, {"time": 652, "pitch": 48, "duration": 1, "velocity": 104}, {"time": 652, "pitch": 60, "duration": 1, "velocity": 104}, {"time": 652, "pitch": 63, "duration": 1, "velocity": 108}, {"time": 652, "pitch": 67, "duration": 1, "velocity": 94}, {"time": 658, "pitch": 48, "duration": 6, "velocity": 100}, {"time": 658, "pitch": 60, "duration": 7, "velocity": 108}, {"time": 658, "pitch": 63, "duration": 7, "velocity": 114}, {"time": 658, "pitch": 67, "duration": 7, "velocity": 108}, {"time": 664, "pitch": 48, "duration": 3, "velocity": 92}, {"time": 667, "pitch": 60, "duration": 8, "velocity": 116}, {"time": 667, "pitch": 63, "duration": 7, "velocity": 117}, {"time": 667, "pitch": 67, "duration": 7, "velocity": 108}, {"time": 673, "pitch": 48, "duration": 5, "velocity": 91}, {"time": 679, "pitch": 41, "duration": 20, "velocity": 87}, {"time": 679, "pitch": 53, "duration": 5, "velocity": 96}, {"time": 679, "pitch": 56, "duration": 10, "velocity": 97}, {"time": 679, "pitch": 60, "duration": 7, "velocity": 107}, {"time": 679, "pitch": 65, "duration": 8, "velocity": 104}, {"time": 688, "pitch": 53, "duration": 4, "velocity": 86}, {"time": 691, "pitch": 56, "duration": 6, "velocity": 109}, {"time": 691, "pitch": 60, "duration": 6, "velocity": 119}, {"time": 691, "pitch": 65, "duration": 6, "velocity": 110}, {"time": 697, "pitch": 53, "duration": 1, "velocity": 81}, {"time": 700, "pitch": 43, "duration": 1, "velocity": 91}, {"time": 700, "pitch": 55, "duration": 1, "velocity": 90}, {"time": 700, "pitch": 59, "duration": 1, "velocity": 90}, {"time": 700, "pitch": 62, "duration": 1, "velocity": 87}, {"time": 703, "pitch": 43, "duration": 5, "velocity": 89}, {"time": 706, "pitch": 55, "duration": 8, "velocity": 104}, {"time": 706, "pitch": 59, "duration": 8, "velocity": 109}, {"time": 706, "pitch": 62, "duration": 7, "velocity": 110}, {"time": 712, "pitch": 43, "duration": 4, "velocity": 89}, {"time": 715, "pitch": 55, "duration": 7, "velocity": 108}, {"time": 715, "pitch": 59, "duration": 8, "velocity": 119}, {"time": 715, "pitch": 62, "duration": 7, "velocity": 116}, {"time": 721, "pitch": 43, "duration": 4, "velocity": 108}, {"time": 727, "pitch": 48, "duration": 20, "velocity": 91}, {"time": 727, "pitch": 60, "duration": 9, "velocity": 91}, {"time": 727, "pitch": 63, "duration": 9, "velocity": 100}, {"time": 727, "pitch": 67, "duration": 9, "velocity": 94}, {"time": 736, "pitch": 55, "duration": 5, "velocity": 83}, {"time": 739, "pitch": 62, "duration": 8, "velocity": 107}, {"time": 739, "pitch": 67, "duration": 7, "velocity": 100}, {"time": 745, "pitch": 55, "duration": 7, "velocity": 74}, {"time": 748, "pitch": 60, "duration": 7, "velocity": 104}, {"time": 748, "pitch": 63, "duration": 7, "velocity": 113}, {"time": 748, "pitch": 67, "duration": 7, "velocity": 108}, {"time": 751, "pitch": 48, "duration": 19, "velocity": 92}, {"time": 754, "pitch": 55, "duration": 7, "velocity": 83}, {"time": 757, "pitch": 62, "duration": 2, "velocity": 104}, {"time": 757, "pitch": 67, "duration": 2, "velocity": 100}, {"time": 760, "pitch": 62, "duration": 6, "velocity": 114}, {"time": 760, "pitch": 67, "duration": 6, "velocity": 104}, {"time": 763, "pitch": 55, "duration": 7, "velocity": 108}, {"time": 766, "pitch": 60, "duration": 4, "velocity": 94}, {"time": 769, "pitch": 62, "duration": 5, "velocity": 102}, {"time": 772, "pitch": 63, "duration": 5, "velocity": 89}, {"time": 775, "pitch": 48, "duration": 19, "velocity": 91}, {"time": 775, "pitch": 60, "duration": 4, "velocity": 98}, {"time": 775, "pitch": 67, "duration": 5, "velocity": 108}, {"time": 784, "pitch": 55, "duration": 4, "velocity": 87}, {"time": 787, "pitch": 63, "duration": 7, "velocity": 117}, {"time": 787, "pitch": 72, "duration": 6, "velocity": 113}, {"time": 793, "pitch": 55, "duration": 6, "velocity": 70}, {"time": 793, "pitch": 67, "duration": 2, "velocity": 77}, {"time": 796, "pitch": 62, "duration": 9, "velocity": 91}, {"time": 796, "pitch": 65, "duration": 6, "velocity": 98}, {"time": 796, "pitch": 70, "duration": 7, "velocity": 93}, {"time": 799, "pitch": 46, "duration": 16, "velocity": 88}, {"time": 802, "pitch": 55, "duration": 12, "velocity": 81}, {"time": 805, "pitch": 58, "duration": 2, "velocity": 83}, {"time": 808, "pitch": 62, "duration": 6, "velocity": 104}, {"time": 808, "pitch": 65, "duration": 6, "velocity": 108}, {"time": 808, "pitch": 70, "duration": 10, "velocity": 104}, {"time": 814, "pitch": 62, "duration": 4, "velocity": 89}, {"time": 817, "pitch": 65, "duration": 6, "velocity": 87}, {"time": 820, "pitch": 67, "duration": 2, "velocity": 80}, {"time": 823, "pitch": 39, "duration": 18, "velocity": 89}, {"time": 823, "pitch": 51, "duration": 6, "velocity": 89}, {"time": 823, "pitch": 58, "duration": 9, "velocity": 94}, {"time": 823, "pitch": 63, "duration": 9, "velocity": 104}, {"time": 823, "pitch": 67, "duration": 9, "velocity": 91}, {"time": 832, "pitch": 51, "duration": 5, "velocity": 91}, {"time": 835, "pitch": 58, "duration": 8, "velocity": 116}, {"time": 835, "pitch": 67, "duration": 11, "velocity": 108}, {"time": 841, "pitch": 51, "duration": 6, "velocity": 88}, {"time": 841, "pitch": 62, "duration": 5, "velocity": 86}, {"time": 847, "pitch": 44, "duration": 14, "velocity": 86}, {"time": 847, "pitch": 60, "duration": 10, "velocity": 96}, {"time": 847, "pitch": 63, "duration": 9, "velocity": 107}, {"time": 847, "pitch": 67, "duration": 9, "velocity": 93}, {"time": 853, "pitch": 51, "duration": 10, "velocity": 68}, {"time": 856, "pitch": 56, "duration": 5, "velocity": 86}, {"time": 859, "pitch": 60, "duration": 8, "velocity": 114}, {"time": 859, "pitch": 63, "duration": 5, "velocity": 116}, {"time": 859, "pitch": 67, "duration": 5, "velocity": 108}, {"time": 865, "pitch": 45, "duration": 1, "velocity": 76}, {"time": 871, "pitch": 41, "duration": 19, "velocity": 93}, {"time": 871, "pitch": 56, "duration": 7, "velocity": 95}, {"time": 871, "pitch": 60, "duration": 10, "velocity": 107}, {"time": 871, "pitch": 65, "duration": 9, "velocity": 107}, {"time": 880, "pitch": 53, "duration": 4, "velocity": 100}, {"time": 883, "pitch": 56, "duration": 5, "velocity": 97}, {"time": 883, "pitch": 60, "duration": 5, "velocity": 102}, {"time": 883, "pitch": 65, "duration": 8, "velocity": 104}, {"time": 889, "pitch": 53, "duration": 4, "velocity": 83}, {"time": 895, "pitch": 43, "duration": 5, "velocity": 88}, {"time": 895, "pitch": 55, "duration": 8, "velocity": 90}, {"time": 895, "pitch": 59, "duration": 8, "velocity": 97}, {"time": 895, "pitch": 62, "duration": 7, "velocity": 96}, {"time": 895, "pitch": 65, "duration": 7, "velocity": 96}, {"time": 904, "pitch": 55, "duration": 7, "velocity": 91}, {"time": 904, "pitch": 59, "duration": 7, "velocity": 97}, {"time": 904, "pitch": 62, "duration": 6, "velocity": 91}, {"time": 904, "pitch": 65, "duration": 7, "velocity": 93}, {"time": 910, "pitch": 43, "duration": 4, "velocity": 83}, {"time": 913, "pitch": 55, "duration": 3, "velocity": 88}, {"time": 913, "pitch": 59, "duration": 3, "velocity": 103}, {"time": 913, "pitch": 62, "duration": 3, "velocity": 93}, {"time": 913, "pitch": 65, "duration": 2, "velocity": 91}, {"time": 919, "pitch": 48, "duration": 23, "velocity": 90}, {"time": 919, "pitch": 55, "duration": 2, "velocity": 88}, {"time": 919, "pitch": 60, "duration": 4, "velocity": 98}, {"time": 919, "pitch": 63, "duration": 4, "velocity": 94}, {"time": 925, "pitch": 55, "duration": 16, "velocity": 76}, {"time": 928, "pitch": 60, "duration": 5, "velocity": 91}, {"time": 931, "pitch": 67, "duration": 7, "velocity": 113}, {"time": 937, "pitch": 60, "duration": 2, "velocity": 82}, {"time": 937, "pitch": 65, "duration": 6, "velocity": 84}, {"time": 943, "pitch": 48, "duration": 14, "velocity": 80}, {"time": 943, "pitch": 55, "duration": 14, "velocity": 82}, {"time": 943, "pitch": 60, "duration": 13, "velocity": 90}, {"time": 943, "pitch": 63, "duration": 13, "velocity": 98}, {"time": 943, "pitch": 67, "duration": 14, "velocity": 88}, {"time": 967, "pitch": 48, "duration": 23, "velocity": 79}, {"time": 967, "pitch": 55, "duration": 19, "velocity": 80}, {"time": 967, "pitch": 58, "duration": 17, "velocity": 78}, {"time": 967, "pitch": 60, "duration": 19, "velocity": 79}, {"time": 967, "pitch": 63, "duration": 17, "velocity": 80}, {"time": 991, "pitch": 46, "duration": 23, "velocity": 77}, {"time": 991, "pitch": 53, "duration": 18, "velocity": 77}, {"time": 991, "pitch": 56, "duration": 18, "velocity": 73}, {"time": 991, "pitch": 58, "duration": 18, "velocity": 72}, {"time": 991, "pitch": 62, "duration": 18, "velocity": 76}, {"time": 1015, "pitch": 39, "duration": 19, "velocity": 74}, {"time": 1015, "pitch": 51, "duration": 18, "velocity": 76}, {"time": 1015, "pitch": 55, "duration": 18, "velocity": 75}, {"time": 1015, "pitch": 58, "duration": 16, "velocity": 78}, {"time": 1015, "pitch": 63, "duration": 18, "velocity": 81}, {"time": 1039, "pitch": 44, "duration": 20, "velocity": 73}, {"time": 1039, "pitch": 55, "duration": 18, "velocity": 80}, {"time": 1039, "pitch": 56, "duration": 18, "velocity": 81}, {"time": 1039, "pitch": 60, "duration": 18, "velocity": 83}, {"time": 1039, "pitch": 63, "duration": 18, "velocity": 81}, {"time": 1063, "pitch": 41, "duration": 22, "velocity": 79}, {"time": 1063, "pitch": 53, "duration": 20, "velocity": 74}, {"time": 1063, "pitch": 56, "duration": 20, "velocity": 78}, {"time": 1063, "pitch": 60, "duration": 20, "velocity": 82}, {"time": 1087, "pitch": 43, "duration": 22, "velocity": 78}, {"time": 1087, "pitch": 55, "duration": 19, "velocity": 77}, {"time": 1087, "pitch": 59, "duration": 18, "velocity": 83}, {"time": 1087, "pitch": 60, "duration": 17, "velocity": 30}, {"time": 1087, "pitch": 62, "duration": 18, "velocity": 82}, {"time": 1111, "pitch": 49, "duration": 23, "velocity": 79}, {"time": 1111, "pitch": 61, "duration": 24, "velocity": 69}, {"time": 1111, "pitch": 65, "duration": 22, "velocity": 71}, {"time": 1111, "pitch": 68, "duration": 22, "velocity": 84}, {"time": 1138, "pitch": 48, "duration": 2, "velocity": 91}, {"time": 1138, "pitch": 64, "duration": 2, "velocity": 86}, {"time": 1138, "pitch": 67, "duration": 2, "velocity": 88}, {"time": 1138, "pitch": 72, "duration": 2, "velocity": 87}, {"time": 1141, "pitch": 48, "duration": 2, "velocity": 98}, {"time": 1141, "pitch": 64, "duration": 2, "velocity": 88}, {"time": 1141, "pitch": 67, "duration": 2, "velocity": 92}, {"time": 1141, "pitch": 72, "duration": 2, "velocity": 93}, {"time": 1144, "pitch": 48, "duration": 2, "velocity": 100}, {"time": 1144, "pitch": 64, "duration": 2, "velocity": 89}, {"time": 1144, "pitch": 67, "duration": 2, "velocity": 100}, {"time": 1144, "pitch": 72, "duration": 2, "velocity": 92}, {"time": 1147, "pitch": 48, "duration": 3, "velocity": 107}, {"time": 1147, "pitch": 64, "duration": 3, "velocity": 103}, {"time": 1147, "pitch": 67, "duration": 3, "velocity": 114}, {"time": 1147, "pitch": 72, "duration": 3, "velocity": 104}, {"time": 1159, "pitch": 48, "duration": 15, "velocity": 87}, {"time": 1159, "pitch": 63, "duration": 8, "velocity": 81}, {"time": 1159, "pitch": 67, "duration": 8, "velocity": 84}, {"time": 1159, "pitch": 72, "duration": 7, "velocity": 83}, {"time": 1171, "pitch": 63, "duration": 5, "velocity": 83}, {"time": 1171, "pitch": 67, "duration": 8, "velocity": 81}, {"time": 1171, "pitch": 72, "duration": 11, "velocity": 86}, {"time": 1183, "pitch": 47, "duration": 19, "velocity": 78}, {"time": 1183, "pitch": 59, "duration": 12, "velocity": 80}, {"time": 1183, "pitch": 67, "duration": 8, "velocity": 84}, {"time": 1183, "pitch": 71, "duration": 7, "velocity": 83}, {"time": 1183, "pitch": 74, "duration": 6, "velocity": 83}, {"time": 1195, "pitch": 74, "duration": 6, "velocity": 88}, {"time": 1198, "pitch": 59, "duration": 3, "velocity": 83}, {"time": 1201, "pitch": 67, "duration": 3, "velocity": 81}, {"time": 1204, "pitch": 74, "duration": 10, "velocity": 86}, {"time": 1207, "pitch": 46, "duration": 18, "velocity": 84}, {"time": 1207, "pitch": 65, "duration": 8, "velocity": 86}, {"time": 1207, "pitch": 70, "duration": 7, "velocity": 88}, {"time": 1219, "pitch": 65, "duration": 5, "velocity": 87}, {"time": 1219, "pitch": 70, "duration": 3, "velocity": 82}, {"time": 1219, "pitch": 74, "duration": 2, "velocity": 78}, {"time": 1228, "pitch": 60, "duration": 10, "velocity": 65}, {"time": 1228, "pitch": 63, "duration": 8, "velocity": 76}, {"time": 1231, "pitch": 45, "duration": 15, "velocity": 77}, {"time": 1231, "pitch": 69, "duration": 7, "velocity": 91}, {"time": 1243, "pitch": 69, "duration": 6, "velocity": 90}, {"time": 1246, "pitch": 60, "duration": 4, "velocity": 83}, {"time": 1249, "pitch": 63, "duration": 3, "velocity": 81}, {"time": 1252, "pitch": 69, "duration": 3, "velocity": 86}, {"time": 1255, "pitch": 44, "duration": 16, "velocity": 76}, {"time": 1255, "pitch": 56, "duration": 16, "velocity": 81}, {"time": 1255, "pitch": 60, "duration": 8, "velocity": 82}, {"time": 1255, "pitch": 63, "duration": 7, "velocity": 78}, {"time": 1255, "pitch": 67, "duration": 7, "velocity": 83}, {"time": 1267, "pitch": 60, "duration": 6, "velocity": 88}, {"time": 1267, "pitch": 63, "duration": 3, "velocity": 88}, {"time": 1267, "pitch": 67, "duration": 7, "velocity": 87}, {"time": 1279, "pitch": 43, "duration": 17, "velocity": 75}, {"time": 1279, "pitch": 59, "duration": 7, "velocity": 83}, {"time": 1279, "pitch": 62, "duration": 7, "velocity": 87}, {"time": 1279, "pitch": 67, "duration": 7, "velocity": 86}, {"time": 1291, "pitch": 59, "duration": 6, "velocity": 86}, {"time": 1291, "pitch": 62, "duration": 10, "velocity": 86}, {"time": 1291, "pitch": 67, "duration": 8, "velocity": 87}, {"time": 1303, "pitch": 48, "duration": 20, "velocity": 83}, {"time": 1303, "pitch": 60, "duration": 4, "velocity": 84}, {"time": 1303, "pitch": 63, "duration": 8, "velocity": 87}, {"time": 1303, "pitch": 67, "duration": 10, "velocity": 87}, {"time": 1309, "pitch": 55, "duration": 12, "velocity": 65}, {"time": 1312, "pitch": 60, "duration": 7, "velocity": 83}, {"time": 1315, "pitch": 62, "duration": 2, "velocity": 94}, {"time": 1318, "pitch": 63, "duration": 5, "velocity": 110}, {"time": 1324, "pitch": 62, "duration": 3, "velocity": 83}, {"time": 1327, "pitch": 48, "duration": 14, "velocity": 86}, {"time": 1327, "pitch": 60, "duration": 4, "velocity": 87}, {"time": 1327, "pitch": 63, "duration": 5, "velocity": 87}, {"time": 1327, "pitch": 67, "duration": 5, "velocity": 89}, {"time": 1339, "pitch": 60, "duration": 4, "velocity": 102}, {"time": 1339, "pitch": 67, "duration": 3, "velocity": 98}, {"time": 1342, "pitch": 62, "duration": 4, "velocity": 89}, {"time": 1345, "pitch": 63, "duration": 3, "velocity": 86}, {"time": 1348, "pitch": 62, "duration": 3, "velocity": 86}, {"time": 1351, "pitch": 48, "duration": 17, "velocity": 89}, {"time": 1351, "pitch": 60, "duration": 9, "velocity": 89}, {"time": 1351, "pitch": 63, "duration": 9, "velocity": 92}, {"time": 1351, "pitch": 67, "duration": 8, "velocity": 90}, {"time": 1363, "pitch": 60, "duration": 9, "velocity": 98}, {"time": 1363, "pitch": 63, "duration": 11, "velocity": 96}, {"time": 1363, "pitch": 67, "duration": 10, "velocity": 98}, {"time": 1372, "pitch": 48, "duration": 3, "velocity": 86}, {"time": 1375, "pitch": 46, "duration": 6, "velocity": 81}, {"time": 1375, "pitch": 58, "duration": 10, "velocity": 88}, {"time": 1375, "pitch": 62, "duration": 11, "velocity": 91}, {"time": 1375, "pitch": 65, "duration": 10, "velocity": 88}, {"time": 1384, "pitch": 46, "duration": 6, "velocity": 87}, {"time": 1387, "pitch": 58, "duration": 9, "velocity": 91}, {"time": 1387, "pitch": 62, "duration": 11, "velocity": 102}, {"time": 1387, "pitch": 65, "duration": 11, "velocity": 96}, {"time": 1393, "pitch": 46, "duration": 4, "velocity": 80}, {"time": 1399, "pitch": 39, "duration": 17, "velocity": 100}, {"time": 1399, "pitch": 58, "duration": 9, "velocity": 98}, {"time": 1399, "pitch": 63, "duration": 9, "velocity": 100}, {"time": 1399, "pitch": 67, "duration": 9, "velocity": 94}, {"time": 1408, "pitch": 51, "duration": 5, "velocity": 82}, {"time": 1411, "pitch": 58, "duration": 7, "velocity": 94}, {"time": 1411, "pitch": 63, "duration": 11, "velocity": 98}, {"time": 1411, "pitch": 67, "duration": 10, "velocity": 98}, {"time": 1417, "pitch": 51, "duration": 6, "velocity": 82}, {"time": 1423, "pitch": 44, "duration": 15, "velocity": 80}, {"time": 1423, "pitch": 60, "duration": 10, "velocity": 88}, {"time": 1423, "pitch": 63, "duration": 10, "velocity": 96}, {"time": 1423, "pitch": 67, "duration": 9, "velocity": 90}, {"time": 1432, "pitch": 56, "duration": 4, "velocity": 82}, {"time": 1435, "pitch": 60, "duration": 8, "velocity": 107}, {"time": 1435, "pitch": 63, "duration": 5, "velocity": 104}, {"time": 1435, "pitch": 67, "duration": 5, "velocity": 93}, {"time": 1447, "pitch": 41, "duration": 19, "velocity": 87}, {"time": 1447, "pitch": 53, "duration": 6, "velocity": 84}, {"time": 1447, "pitch": 56, "duration": 9, "velocity": 87}, {"time": 1447, "pitch": 60, "duration": 9, "velocity": 96}, {"time": 1447, "pitch": 65, "duration": 9, "velocity": 100}, {"time": 1456, "pitch": 53, "duration": 5, "velocity": 86}, {"time": 1459, "pitch": 56, "duration": 5, "velocity": 93}, {"time": 1459, "pitch": 60, "duration": 5, "velocity": 100}, {"time": 1459, "pitch": 65, "duration": 7, "velocity": 102}, {"time": 1465, "pitch": 53, "duration": 4, "velocity": 87}, {"time": 1471, "pitch": 43, "duration": 19, "velocity": 87}, {"time": 1471, "pitch": 55, "duration": 5, "velocity": 89}, {"time": 1471, "pitch": 59, "duration": 5, "velocity": 93}, {"time": 1471, "pitch": 62, "duration": 5, "velocity": 90}, {"time": 1471, "pitch": 65, "duration": 6, "velocity": 92}, {"time": 1477, "pitch": 50, "duration": 13, "velocity": 81}, {"time": 1480, "pitch": 55, "duration": 15, "velocity": 93}, {"time": 1483, "pitch": 59, "duration": 4, "velocity": 88}, {"time": 1486, "pitch": 62, "duration": 3, "velocity": 98}, {"time": 1489, "pitch": 67, "duration": 4, "velocity": 96}, {"time": 1492, "pitch": 62, "duration": 2, "velocity": 38}, {"time": 1495, "pitch": 48, "duration": 20, "velocity": 91}, {"time": 1495, "pitch": 60, "duration": 9, "velocity": 91}, {"time": 1495, "pitch": 63, "duration": 9, "velocity": 100}, {"time": 1495, "pitch": 67, "duration": 9, "velocity": 94}, {"time": 1504, "pitch": 55, "duration": 5, "velocity": 83}, {"time": 1507, "pitch": 62, "duration": 8, "velocity": 107}, {"time": 1507, "pitch": 67, "duration": 7, "velocity": 100}, {"time": 1513, "pitch": 55, "duration": 7, "velocity": 74}, {"time": 1516, "pitch": 60, "duration": 7, "velocity": 104}, {"time": 1516, "pitch": 63, "duration": 7, "velocity": 113}, {"time": 1516, "pitch": 67, "duration": 7, "velocity": 108}, {"time": 1519, "pitch": 48, "duration": 19, "velocity": 92}, {"time": 1522, "pitch": 55, "duration": 7, "velocity": 83}, {"time": 1525, "pitch": 62, "duration": 2, "velocity": 104}, {"time": 1525, "pitch": 67, "duration": 2, "velocity": 100}, {"time": 1528, "pitch": 62, "duration": 6, "velocity": 114}, {"time": 1528, "pitch": 67, "duration": 6, "velocity": 104}, {"time": 1531, "pitch": 55, "duration": 7, "velocity": 108}, {"time": 1534, "pitch": 60, "duration": 4, "velocity": 94}, {"time": 1537, "pitch": 62, "duration": 5, "velocity": 102}, {"time": 1540, "pitch": 63, "duration": 5, "velocity": 89}, {"time": 1543, "pitch": 48, "duration": 19, "velocity": 91}, {"time": 1543, "pitch": 60, "duration": 4, "velocity": 98}, {"time": 1543, "pitch": 67, "duration": 5, "velocity": 108}, {"time": 1552, "pitch": 55, "duration": 4, "velocity": 87}, {"time": 1555, "pitch": 63, "duration": 7, "velocity": 117}, {"time": 1555, "pitch": 72, "duration": 6, "velocity": 113}, {"time": 1561, "pitch": 55, "duration": 6, "velocity": 70}, {"time": 1561, "pitch": 67, "duration": 2, "velocity": 77}, {"time": 1564, "pitch": 62, "duration": 9, "velocity": 91}, {"time": 1564, "pitch": 65, "duration": 6, "velocity": 98}, {"time": 1564, "pitch": 70, "duration": 7, "velocity": 93}, {"time": 1567, "pitch": 46, "duration": 16, "velocity": 88}, {"time": 1570, "pitch": 55, "duration": 12, "velocity": 81}, {"time": 1573, "pitch": 58, "duration": 2, "velocity": 83}, {"time": 1576, "pitch": 62, "duration": 6, "velocity": 104}, {"time": 1576, "pitch": 65, "duration": 6, "velocity": 108}, {"time": 1576, "pitch": 70, "duration": 10, "velocity": 104}, {"time": 1582, "pitch": 62, "duration": 4, "velocity": 89}, {"time": 1585, "pitch": 65, "duration": 5, "velocity": 87}, {"time": 1588, "pitch": 67, "duration": 2, "velocity": 80}, {"time": 1591, "pitch": 39, "duration": 18, "velocity": 89}, {"time": 1591, "pitch": 51, "duration": 6, "velocity": 89}, {"time": 1591, "pitch": 58, "duration": 9, "velocity": 94}, {"time": 1591, "pitch": 63, "duration": 9, "velocity": 104}, {"time": 1591, "pitch": 67, "duration": 9, "velocity": 91}, {"time": 1600, "pitch": 51, "duration": 5, "velocity": 91}, {"time": 1603, "pitch": 58, "duration": 8, "velocity": 116}, {"time": 1603, "pitch": 67, "duration": 11, "velocity": 108}, {"time": 1609, "pitch": 51, "duration": 6, "velocity": 88}, {"time": 1609, "pitch": 62, "duration": 5, "velocity": 86}, {"time": 1615, "pitch": 44, "duration": 14, "velocity": 86}, {"time": 1615, "pitch": 60, "duration": 10, "velocity": 96}, {"time": 1615, "pitch": 63, "duration": 9, "velocity": 107}, {"time": 1615, "pitch": 67, "duration": 9, "velocity": 93}, {"time": 1621, "pitch": 51, "duration": 10, "velocity": 68}, {"time": 1624, "pitch": 56, "duration": 5, "velocity": 86}, {"time": 1627, "pitch": 60, "duration": 7, "velocity": 114}, {"time": 1627, "pitch": 63, "duration": 5, "velocity": 116}, {"time": 1627, "pitch": 67, "duration": 5, "velocity": 108}, {"time": 1633, "pitch": 45, "duration": 1, "velocity": 76}, {"time": 1639, "pitch": 41, "duration": 19, "velocity": 93}, {"time": 1639, "pitch": 56, "duration": 7, "velocity": 95}, {"time": 1639, "pitch": 60, "duration": 10, "velocity": 107}, {"time": 1639, "pitch": 65, "duration": 9, "velocity": 107}, {"time": 1648, "pitch": 53, "duration": 4, "velocity": 100}, {"time": 1651, "pitch": 56, "duration": 5, "velocity": 97}, {"time": 1651, "pitch": 60, "duration": 5, "velocity": 102}, {"time": 1651, "pitch": 65, "duration": 8, "velocity": 104}, {"time": 1657, "pitch": 53, "duration": 4, "velocity": 83}, {"time": 1663, "pitch": 43, "duration": 5, "velocity": 88}, {"time": 1663, "pitch": 55, "duration": 8, "velocity": 90}, {"time": 1663, "pitch": 59, "duration": 8, "velocity": 97}, {"time": 1663, "pitch": 62, "duration": 7, "velocity": 96}, {"time": 1663, "pitch": 65, "duration": 7, "velocity": 96}, {"time": 1672, "pitch": 55, "duration": 7, "velocity": 91}, {"time": 1672, "pitch": 59, "duration": 7, "velocity": 97}, {"time": 1672, "pitch": 62, "duration": 6, "velocity": 91}, {"time": 1672, "pitch": 65, "duration": 7, "velocity": 93}, {"time": 1678, "pitch": 43, "duration": 4, "velocity": 83}, {"time": 1681, "pitch": 55, "duration": 3, "velocity": 88}, {"time": 1681, "pitch": 59, "duration": 3, "velocity": 103}, {"time": 1681, "pitch": 62, "duration": 3, "velocity": 93}, {"time": 1681, "pitch": 65, "duration": 2, "velocity": 91}, {"time": 1687, "pitch": 48, "duration": 23, "velocity": 90}, {"time": 1687, "pitch": 55, "duration": 2, "velocity": 88}, {"time": 1687, "pitch": 60, "duration": 4, "velocity": 98}, {"time": 1687, "pitch": 63, "duration": 4, "velocity": 94}, {"time": 1693, "pitch": 55, "duration": 16, "velocity": 76}, {"time": 1696, "pitch": 60, "duration": 5, "velocity": 91}, {"time": 1699, "pitch": 67, "duration": 7, "velocity": 113}, {"time": 1705, "pitch": 60, "duration": 2, "velocity": 82}, {"time": 1705, "pitch": 65, "duration": 6, "velocity": 84}, {"time": 1711, "pitch": 48, "duration": 14, "velocity": 80}, {"time": 1711, "pitch": 55, "duration": 14, "velocity": 82}, {"time": 1711, "pitch": 60, "duration": 13, "velocity": 90}, {"time": 1711, "pitch": 63, "duration": 13, "velocity": 98}, {"time": 1711, "pitch": 67, "duration": 14, "velocity": 88}, {"time": 1732, "pitch": 60, "duration": 20, "velocity": 70}, {"time": 1734, "pitch": 63, "duration": 19, "velocity": 71}, {"time": 1735, "pitch": 48, "duration": 19, "velocity": 70}, {"time": 1735, "pitch": 67, "duration": 19, "velocity": 74}, {"time": 1756, "pitch": 58, "duration": 20, "velocity": 69}, {"time": 1758, "pitch": 62, "duration": 19, "velocity": 66}, {"time": 1759, "pitch": 46, "duration": 14, "velocity": 71}, {"time": 1759, "pitch": 65, "duration": 18, "velocity": 79}, {"time": 1780, "pitch": 58, "duration": 20, "velocity": 65}, {"time": 1782, "pitch": 63, "duration": 18, "velocity": 74}, {"time": 1783, "pitch": 39, "duration": 15, "velocity": 63}, {"time": 1783, "pitch": 51, "duration": 16, "velocity": 62}, {"time": 1783, "pitch": 67, "duration": 17, "velocity": 69}, {"time": 1806, "pitch": 60, "duration": 16, "velocity": 70}, {"time": 1807, "pitch": 44, "duration": 14, "velocity": 56}, {"time": 1807, "pitch": 56, "duration": 14, "velocity": 65}, {"time": 1807, "pitch": 67, "duration": 15, "velocity": 75}, {"time": 1831, "pitch": 65, "duration": 7, "velocity": 84}, {"time": 1831, "pitch": 41, "duration": 19, "velocity": 67}, {"time": 1831, "pitch": 53, "duration": 18, "velocity": 68}, {"time": 1831, "pitch": 56, "duration": 8, "velocity": 77}, {"time": 1831, "pitch": 60, "duration": 7, "velocity": 82}, {"time": 1843, "pitch": 56, "duration": 5, "velocity": 76}, {"time": 1843, "pitch": 60, "duration": 5, "velocity": 81}, {"time": 1844, "pitch": 65, "duration": 6, "velocity": 80}, {"time": 1855, "pitch": 43, "duration": 16, "velocity": 77}, {"time": 1855, "pitch": 55, "duration": 8, "velocity": 77}, {"time": 1855, "pitch": 59, "duration": 8, "velocity": 78}, {"time": 1855, "pitch": 62, "duration": 7, "velocity": 73}, {"time": 1855, "pitch": 65, "duration": 9, "velocity": 78}, {"time": 1867, "pitch": 55, "duration": 4, "velocity": 73}, {"time": 1867, "pitch": 59, "duration": 5, "velocity": 70}, {"time": 1867, "pitch": 62, "duration": 4, "velocity": 70}, {"time": 1867, "pitch": 65, "duration": 5, "velocity": 72}, {"time": 1879, "pitch": 48, "duration": 3, "velocity": 87}, {"time": 1879, "pitch": 60, "duration": 3, "velocity": 84}, {"time": 1879, "pitch": 63, "duration": 3, "velocity": 86}, {"time": 1879, "pitch": 67, "duration": 3, "velocity": 86}, {"time": 1883, "pitch": 48, "duration": 2, "velocity": 84}, {"time": 1883, "pitch": 60, "duration": 2, "velocity": 81}, {"time": 1883, "pitch": 63, "duration": 2, "velocity": 83}, {"time": 1883, "pitch": 67, "duration": 2, "velocity": 83}, {"time": 1887, "pitch": 48, "duration": 2, "velocity": 85}, {"time": 1887, "pitch": 60, "duration": 2, "velocity": 77}, {"time": 1887, "pitch": 63, "duration": 2, "velocity": 79}, {"time": 1887, "pitch": 67, "duration": 1, "velocity": 80}, {"time": 1891, "pitch": 48, "duration": 3, "velocity": 87}, {"time": 1891, "pitch": 60, "duration": 3, "velocity": 83}, {"time": 1891, "pitch": 63, "duration": 3, "velocity": 82}, {"time": 1891, "pitch": 67, "duration": 3, "velocity": 84}, {"time": 1895, "pitch": 48, "duration": 2, "velocity": 88}, {"time": 1895, "pitch": 60, "duration": 2, "velocity": 83}, {"time": 1895, "pitch": 63, "duration": 2, "velocity": 83}, {"time": 1895, "pitch": 67, "duration": 2, "velocity": 80}, {"time": 1899, "pitch": 48, "duration": 1, "velocity": 88}, {"time": 1899, "pitch": 60, "duration": 1, "velocity": 83}, {"time": 1899, "pitch": 63, "duration": 1, "velocity": 85}, {"time": 1899, "pitch": 67, "duration": 1, "velocity": 82}, {"time": 1903, "pitch": 48, "duration": 8, "velocity": 88}, {"time": 1903, "pitch": 60, "duration": 8, "velocity": 84}, {"time": 1903, "pitch": 63, "duration": 8, "velocity": 88}, {"time": 1903, "pitch": 67, "duration": 8, "velocity": 87}, {"time": 1927, "pitch": 48, "duration": 5, "velocity": 93}, {"time": 1933, "pitch": 58, "duration": 7, "velocity": 88}, {"time": 1933, "pitch": 60, "duration": 7, "velocity": 91}, {"time": 1933, "pitch": 63, "duration": 7, "velocity": 92}, {"time": 1933, "pitch": 67, "duration": 7, "velocity": 89}, {"time": 1936, "pitch": 55, "duration": 1, "velocity": 96}, {"time": 1939, "pitch": 55, "duration": 3, "velocity": 107}, {"time": 1942, "pitch": 58, "duration": 4, "velocity": 89}, {"time": 1942, "pitch": 60, "duration": 4, "velocity": 96}, {"time": 1942, "pitch": 63, "duration": 4, "velocity": 96}, {"time": 1942, "pitch": 67, "duration": 4, "velocity": 88}, {"time": 1945, "pitch": 48, "duration": 5, "velocity": 102}, {"time": 1948, "pitch": 58, "duration": 1, "velocity": 87}, {"time": 1948, "pitch": 60, "duration": 2, "velocity": 91}, {"time": 1948, "pitch": 63, "duration": 2, "velocity": 91}, {"time": 1948, "pitch": 67, "duration": 2, "velocity": 87}, {"time": 1951, "pitch": 46, "duration": 6, "velocity": 89}, {"time": 1957, "pitch": 58, "duration": 7, "velocity": 86}, {"time": 1957, "pitch": 62, "duration": 7, "velocity": 91}, {"time": 1957, "pitch": 65, "duration": 7, "velocity": 90}, {"time": 1957, "pitch": 68, "duration": 6, "velocity": 85}, {"time": 1960, "pitch": 53, "duration": 1, "velocity": 93}, {"time": 1963, "pitch": 53, "duration": 4, "velocity": 92}, {"time": 1966, "pitch": 58, "duration": 4, "velocity": 92}, {"time": 1966, "pitch": 62, "duration": 4, "velocity": 102}, {"time": 1966, "pitch": 65, "duration": 4, "velocity": 96}, {"time": 1966, "pitch": 68, "duration": 4, "velocity": 88}, {"time": 1969, "pitch": 46, "duration": 1, "velocity": 87}, {"time": 1972, "pitch": 58, "duration": 3, "velocity": 86}, {"time": 1972, "pitch": 62, "duration": 3, "velocity": 88}, {"time": 1972, "pitch": 65, "duration": 3, "velocity": 83}, {"time": 1972, "pitch": 68, "duration": 2, "velocity": 81}, {"time": 1975, "pitch": 39, "duration": 6, "velocity": 100}, {"time": 1981, "pitch": 58, "duration": 6, "velocity": 85}, {"time": 1981, "pitch": 62, "duration": 6, "velocity": 90}, {"time": 1981, "pitch": 63, "duration": 7, "velocity": 90}, {"time": 1981, "pitch": 67, "duration": 6, "velocity": 87}, {"time": 1984, "pitch": 46, "duration": 1, "velocity": 96}, {"time": 1987, "pitch": 46, "duration": 4, "velocity": 89}, {"time": 1990, "pitch": 58, "duration": 4, "velocity": 87}, {"time": 1990, "pitch": 62, "duration": 4, "velocity": 89}, {"time": 1990, "pitch": 63, "duration": 4, "velocity": 90}, {"time": 1990, "pitch": 67, "duration": 4, "velocity": 87}, {"time": 1993, "pitch": 39, "duration": 2, "velocity": 91}, {"time": 1996, "pitch": 58, "duration": 3, "velocity": 81}, {"time": 1996, "pitch": 62, "duration": 4, "velocity": 87}, {"time": 1996, "pitch": 63, "duration": 4, "velocity": 87}, {"time": 1996, "pitch": 67, "duration": 4, "velocity": 87}, {"time": 1999, "pitch": 44, "duration": 6, "velocity": 89}, {"time": 2005, "pitch": 60, "duration": 7, "velocity": 88}, {"time": 2005, "pitch": 63, "duration": 7, "velocity": 93}, {"time": 2005, "pitch": 67, "duration": 7, "velocity": 90}, {"time": 2008, "pitch": 56, "duration": 1, "velocity": 87}, {"time": 2011, "pitch": 56, "duration": 5, "velocity": 95}, {"time": 2014, "pitch": 60, "duration": 4, "velocity": 92}, {"time": 2014, "pitch": 63, "duration": 4, "velocity": 94}, {"time": 2014, "pitch": 67, "duration": 4, "velocity": 89}, {"time": 2017, "pitch": 44, "duration": 5, "velocity": 87}, {"time": 2020, "pitch": 60, "duration": 3, "velocity": 91}, {"time": 2020, "pitch": 63, "duration": 3, "velocity": 93}, {"time": 2020, "pitch": 67, "duration": 3, "velocity": 88}, {"time": 2023, "pitch": 41, "duration": 7, "velocity": 96}, {"time": 2029, "pitch": 56, "duration": 7, "velocity": 85}, {"time": 2029, "pitch": 60, "duration": 7, "velocity": 91}, {"time": 2029, "pitch": 63, "duration": 6, "velocity": 89}, {"time": 2032, "pitch": 48, "duration": 1, "velocity": 87}, {"time": 2035, "pitch": 48, "duration": 4, "velocity": 89}, {"time": 2038, "pitch": 56, "duration": 6, "velocity": 88}, {"time": 2038, "pitch": 60, "duration": 6, "velocity": 100}, {"time": 2038, "pitch": 63, "duration": 6, "velocity": 92}, {"time": 2041, "pitch": 41, "duration": 3, "velocity": 91}, {"time": 2047, "pitch": 43, "duration": 6, "velocity": 88}, {"time": 2053, "pitch": 55, "duration": 7, "velocity": 86}, {"time": 2053, "pitch": 59, "duration": 7, "velocity": 86}, {"time": 2053, "pitch": 62, "duration": 6, "velocity": 87}, {"time": 2053, "pitch": 65, "duration": 7, "velocity": 87}, {"time": 2056, "pitch": 50, "duration": 1, "velocity": 93}, {"time": 2059, "pitch": 50, "duration": 4, "velocity": 100}, {"time": 2062, "pitch": 55, "duration": 5, "velocity": 91}, {"time": 2062, "pitch": 59, "duration": 5, "velocity": 100}, {"time": 2062, "pitch": 62, "duration": 4, "velocity": 89}, {"time": 2062, "pitch": 65, "duration": 4, "velocity": 91}, {"time": 2065, "pitch": 43, "duration": 5, "velocity": 88}, {"time": 2068, "pitch": 55, "duration": 2, "velocity": 86}, {"time": 2068, "pitch": 59, "duration": 2, "velocity": 87}, {"time": 2068, "pitch": 62, "duration": 2, "velocity": 87}, {"time": 2068, "pitch": 65, "duration": 3, "velocity": 87}, {"time": 2071, "pitch": 48, "duration": 6, "velocity": 110}, {"time": 2077, "pitch": 60, "duration": 7, "velocity": 88}, {"time": 2077, "pitch": 63, "duration": 7, "velocity": 94}, {"time": 2077, "pitch": 67, "duration": 7, "velocity": 88}, {"time": 2080, "pitch": 55, "duration": 1, "velocity": 88}, {"time": 2083, "pitch": 55, "duration": 3, "velocity": 96}, {"time": 2086, "pitch": 60, "duration": 9, "velocity": 100}, {"time": 2086, "pitch": 63, "duration": 9, "velocity": 108}, {"time": 2086, "pitch": 67, "duration": 9, "velocity": 98}, {"time": 2092, "pitch": 55, "duration": 3, "velocity": 90}, {"time": 2095, "pitch": 48, "duration": 2, "velocity": 93}, {"time": 2095, "pitch": 60, "duration": 2, "velocity": 89}, {"time": 2095, "pitch": 63, "duration": 1, "velocity": 93}, {"time": 2095, "pitch": 67, "duration": 1, "velocity": 91}, {"time": 2101, "pitch": 48, "duration": 4, "velocity": 102}, {"time": 2101, "pitch": 60, "duration": 3, "velocity": 96}, {"time": 2101, "pitch": 63, "duration": 4, "velocity": 102}, {"time": 2101, "pitch": 67, "duration": 3, "velocity": 96}, {"time": 2119, "pitch": 48, "duration": 5, "velocity": 93}, {"time": 2125, "pitch": 58, "duration": 7, "velocity": 88}, {"time": 2125, "pitch": 60, "duration": 7, "velocity": 91}, {"time": 2125, "pitch": 63, "duration": 7, "velocity": 92}, {"time": 2125, "pitch": 67, "duration": 7, "velocity": 89}, {"time": 2128, "pitch": 55, "duration": 1, "velocity": 96}, {"time": 2131, "pitch": 55, "duration": 3, "velocity": 107}, {"time": 2134, "pitch": 58, "duration": 4, "velocity": 89}, {"time": 2134, "pitch": 60, "duration": 4, "velocity": 96}, {"time": 2134, "pitch": 63, "duration": 4, "velocity": 96}, {"time": 2134, "pitch": 67, "duration": 4, "velocity": 88}, {"time": 2137, "pitch": 48, "duration": 5, "velocity": 102}, {"time": 2140, "pitch": 58, "duration": 1, "velocity": 87}, {"time": 2140, "pitch": 60, "duration": 2, "velocity": 91}, {"time": 2140, "pitch": 63, "duration": 2, "velocity": 91}, {"time": 2140, "pitch": 67, "duration": 2, "velocity": 87}, {"time": 2143, "pitch": 46, "duration": 6, "velocity": 89}, {"time": 2149, "pitch": 58, "duration": 7, "velocity": 86}, {"time": 2149, "pitch": 62, "duration": 7, "velocity": 91}, {"time": 2149, "pitch": 65, "duration": 7, "velocity": 90}, {"time": 2149, "pitch": 68, "duration": 6, "velocity": 85}, {"time": 2152, "pitch": 53, "duration": 1, "velocity": 93}, {"time": 2155, "pitch": 53, "duration": 4, "velocity": 92}, {"time": 2158, "pitch": 58, "duration": 4, "velocity": 92}, {"time": 2158, "pitch": 62, "duration": 4, "velocity": 102}, {"time": 2158, "pitch": 65, "duration": 4, "velocity": 96}, {"time": 2158, "pitch": 68, "duration": 4, "velocity": 88}, {"time": 2161, "pitch": 46, "duration": 1, "velocity": 87}, {"time": 2164, "pitch": 58, "duration": 3, "velocity": 86}, {"time": 2164, "pitch": 62, "duration": 3, "velocity": 88}, {"time": 2164, "pitch": 65, "duration": 3, "velocity": 83}, {"time": 2164, "pitch": 68, "duration": 2, "velocity": 81}, {"time": 2167, "pitch": 39, "duration": 6, "velocity": 100}, {"time": 2173, "pitch": 58, "duration": 6, "velocity": 85}, {"time": 2173, "pitch": 62, "duration": 6, "velocity": 90}, {"time": 2173, "pitch": 63, "duration": 7, "velocity": 90}, {"time": 2173, "pitch": 67, "duration": 6, "velocity": 87}, {"time": 2176, "pitch": 46, "duration": 1, "velocity": 96}, {"time": 2179, "pitch": 46, "duration": 4, "velocity": 89}, {"time": 2182, "pitch": 58, "duration": 4, "velocity": 87}, {"time": 2182, "pitch": 62, "duration": 4, "velocity": 89}, {"time": 2182, "pitch": 63, "duration": 4, "velocity": 90}, {"time": 2182, "pitch": 67, "duration": 4, "velocity": 87}, {"time": 2185, "pitch": 39, "duration": 2, "velocity": 91}, {"time": 2188, "pitch": 58, "duration": 3, "velocity": 81}, {"time": 2188, "pitch": 62, "duration": 4, "velocity": 87}, {"time": 2188, "pitch": 63, "duration": 4, "velocity": 87}, {"time": 2188, "pitch": 67, "duration": 4, "velocity": 87}, {"time": 2191, "pitch": 44, "duration": 6, "velocity": 89}, {"time": 2197, "pitch": 60, "duration": 7, "velocity": 88}, {"time": 2197, "pitch": 63, "duration": 7, "velocity": 93}, {"time": 2197, "pitch": 67, "duration": 7, "velocity": 90}, {"time": 2200, "pitch": 56, "duration": 1, "velocity": 87}, {"time": 2203, "pitch": 56, "duration": 5, "velocity": 95}, {"time": 2206, "pitch": 60, "duration": 4, "velocity": 92}, {"time": 2206, "pitch": 63, "duration": 4, "velocity": 94}, {"time": 2206, "pitch": 67, "duration": 4, "velocity": 89}, {"time": 2209, "pitch": 44, "duration": 5, "velocity": 87}, {"time": 2212, "pitch": 60, "duration": 3, "velocity": 91}, {"time": 2212, "pitch": 63, "duration": 3, "velocity": 93}, {"time": 2212, "pitch": 67, "duration": 3, "velocity": 88}, {"time": 2215, "pitch": 41, "duration": 7, "velocity": 96}, {"time": 2221, "pitch": 56, "duration": 7, "velocity": 85}, {"time": 2221, "pitch": 60, "duration": 7, "velocity": 91}, {"time": 2221, "pitch": 63, "duration": 6, "velocity": 89}, {"time": 2224, "pitch": 48, "duration": 1, "velocity": 87}, {"time": 2227, "pitch": 48, "duration": 4, "velocity": 89}, {"time": 2230, "pitch": 56, "duration": 6, "velocity": 88}, {"time": 2230, "pitch": 60, "duration": 6, "velocity": 100}, {"time": 2230, "pitch": 63, "duration": 6, "velocity": 92}, {"time": 2233, "pitch": 41, "duration": 3, "velocity": 91}, {"time": 2239, "pitch": 43, "duration": 6, "velocity": 88}, {"time": 2245, "pitch": 55, "duration": 7, "velocity": 86}, {"time": 2245, "pitch": 59, "duration": 7, "velocity": 86}, {"time": 2245, "pitch": 62, "duration": 6, "velocity": 87}, {"time": 2245, "pitch": 65, "duration": 7, "velocity": 87}, {"time": 2248, "pitch": 50, "duration": 1, "velocity": 93}, {"time": 2251, "pitch": 50, "duration": 4, "velocity": 100}, {"time": 2254, "pitch": 55, "duration": 5, "velocity": 91}, {"time": 2254, "pitch": 59, "duration": 5, "velocity": 100}, {"time": 2254, "pitch": 62, "duration": 4, "velocity": 89}, {"time": 2254, "pitch": 65, "duration": 4, "velocity": 91}, {"time": 2257, "pitch": 43, "duration": 5, "velocity": 88}, {"time": 2260, "pitch": 55, "duration": 2, "velocity": 86}, {"time": 2260, "pitch": 59, "duration": 2, "velocity": 87}, {"time": 2260, "pitch": 62, "duration": 2, "velocity": 87}, {"time": 2260, "pitch": 65, "duration": 3, "velocity": 87}, {"time": 2263, "pitch": 48, "duration": 6, "velocity": 110}, {"time": 2269, "pitch": 60, "duration": 7, "velocity": 88}, {"time": 2269, "pitch": 63, "duration": 7, "velocity": 94}, {"time": 2269, "pitch": 67, "duration": 7, "velocity": 88}, {"time": 2272, "pitch": 55, "duration": 1, "velocity": 88}, {"time": 2275, "pitch": 55, "duration": 3, "velocity": 96}, {"time": 2278, "pitch": 60, "duration": 9, "velocity": 100}, {"time": 2278, "pitch": 63, "duration": 9, "velocity": 108}, {"time": 2278, "pitch": 67, "duration": 9, "velocity": 98}, {"time": 2284, "pitch": 55, "duration": 3, "velocity": 90}, {"time": 2287, "pitch": 48, "duration": 6, "velocity": 91}, {"time": 2293, "pitch": 60, "duration": 10, "velocity": 90}, {"time": 2293, "pitch": 63, "duration": 9, "velocity": 93}, {"time": 2293, "pitch": 67, "duration": 9, "velocity": 91}, {"time": 2296, "pitch": 48, "duration": 2, "velocity": 88}, {"time": 2299, "pitch": 48, "duration": 1, "velocity": 88}, {"time": 2302, "pitch": 48, "duration": 4, "velocity": 98}, {"time": 2305, "pitch": 60, "duration": 4, "velocity": 89}, {"time": 2305, "pitch": 63, "duration": 6, "velocity": 92}, {"time": 2305, "pitch": 67, "duration": 6, "velocity": 91}, {"time": 2308, "pitch": 48, "duration": 3, "velocity": 102}, {"time": 2311, "pitch": 48, "duration": 1, "velocity": 93}, {"time": 2317, "pitch": 58, "duration": 7, "velocity": 88}, {"time": 2317, "pitch": 60, "duration": 7, "velocity": 91}, {"time": 2317, "pitch": 63, "duration": 7, "velocity": 92}, {"time": 2317, "pitch": 67, "duration": 7, "velocity": 89}, {"time": 2320, "pitch": 55, "duration": 1, "velocity": 96}, {"time": 2323, "pitch": 55, "duration": 3, "velocity": 107}, {"time": 2326, "pitch": 58, "duration": 4, "velocity": 89}, {"time": 2326, "pitch": 60, "duration": 4, "velocity": 96}, {"time": 2326, "pitch": 63, "duration": 4, "velocity": 96}, {"time": 2326, "pitch": 67, "duration": 4, "velocity": 88}, {"time": 2329, "pitch": 48, "duration": 5, "velocity": 102}, {"time": 2332, "pitch": 58, "duration": 1, "velocity": 87}, {"time": 2332, "pitch": 60, "duration": 2, "velocity": 91}, {"time": 2332, "pitch": 63, "duration": 2, "velocity": 91}, {"time": 2332, "pitch": 67, "duration": 2, "velocity": 87}, {"time": 2335, "pitch": 46, "duration": 6, "velocity": 89}, {"time": 2341, "pitch": 58, "duration": 7, "velocity": 86}, {"time": 2341, "pitch": 62, "duration": 7, "velocity": 91}, {"time": 2341, "pitch": 65, "duration": 7, "velocity": 90}, {"time": 2341, "pitch": 68, "duration": 6, "velocity": 85}, {"time": 2344, "pitch": 53, "duration": 1, "velocity": 93}, {"time": 2347, "pitch": 53, "duration": 4, "velocity": 92}, {"time": 2350, "pitch": 58, "duration": 4, "velocity": 92}, {"time": 2350, "pitch": 62, "duration": 4, "velocity": 102}, {"time": 2350, "pitch": 65, "duration": 4, "velocity": 96}, {"time": 2350, "pitch": 68, "duration": 4, "velocity": 88}, {"time": 2353, "pitch": 46, "duration": 1, "velocity": 87}, {"time": 2356, "pitch": 58, "duration": 3, "velocity": 86}, {"time": 2356, "pitch": 62, "duration": 3, "velocity": 88}, {"time": 2356, "pitch": 65, "duration": 3, "velocity": 83}, {"time": 2356, "pitch": 68, "duration": 2, "velocity": 81}, {"time": 2359, "pitch": 39, "duration": 6, "velocity": 100}, {"time": 2365, "pitch": 58, "duration": 6, "velocity": 85}, {"time": 2365, "pitch": 62, "duration": 6, "velocity": 90}, {"time": 2365, "pitch": 63, "duration": 7, "velocity": 90}, {"time": 2365, "pitch": 67, "duration": 6, "velocity": 87}, {"time": 2368, "pitch": 46, "duration": 1, "velocity": 96}, {"time": 2371, "pitch": 46, "duration": 4, "velocity": 89}, {"time": 2374, "pitch": 58, "duration": 4, "velocity": 87}, {"time": 2374, "pitch": 62, "duration": 4, "velocity": 89}, {"time": 2374, "pitch": 63, "duration": 4, "velocity": 90}, {"time": 2374, "pitch": 67, "duration": 4, "velocity": 87}, {"time": 2377, "pitch": 39, "duration": 2, "velocity": 91}, {"time": 2380, "pitch": 58, "duration": 3, "velocity": 81}, {"time": 2380, "pitch": 62, "duration": 4, "velocity": 87}, {"time": 2380, "pitch": 63, "duration": 4, "velocity": 87}, {"time": 2380, "pitch": 67, "duration": 4, "velocity": 87}, {"time": 2383, "pitch": 44, "duration": 6, "velocity": 89}, {"time": 2389, "pitch": 60, "duration": 7, "velocity": 88}, {"time": 2389, "pitch": 63, "duration": 7, "velocity": 93}, {"time": 2389, "pitch": 67, "duration": 7, "velocity": 90}, {"time": 2392, "pitch": 56, "duration": 1, "velocity": 87}, {"time": 2395, "pitch": 56, "duration": 5, "velocity": 95}, {"time": 2398, "pitch": 60, "duration": 4, "velocity": 92}, {"time": 2398, "pitch": 63, "duration": 4, "velocity": 94}, {"time": 2398, "pitch": 67, "duration": 4, "velocity": 89}, {"time": 2401, "pitch": 44, "duration": 5, "velocity": 87}, {"time": 2404, "pitch": 60, "duration": 3, "velocity": 91}, {"time": 2404, "pitch": 63, "duration": 3, "velocity": 93}, {"time": 2404, "pitch": 67, "duration": 3, "velocity": 88}, {"time": 2407, "pitch": 41, "duration": 7, "velocity": 96}, {"time": 2413, "pitch": 56, "duration": 7, "velocity": 85}, {"time": 2413, "pitch": 60, "duration": 7, "velocity": 91}, {"time": 2413, "pitch": 63, "duration": 6, "velocity": 89}, {"time": 2416, "pitch": 48, "duration": 1, "velocity": 87}, {"time": 2419, "pitch": 48, "duration": 4, "velocity": 89}, {"time": 2422, "pitch": 56, "duration": 6, "velocity": 88}, {"time": 2422, "pitch": 60, "duration": 6, "velocity": 100}, {"time": 2422, "pitch": 63, "duration": 6, "velocity": 92}, {"time": 2425, "pitch": 41, "duration": 3, "velocity": 91}, {"time": 2431, "pitch": 43, "duration": 2, "velocity": 96}, {"time": 2431, "pitch": 55, "duration": 3, "velocity": 88}, {"time": 2431, "pitch": 59, "duration": 3, "velocity": 90}, {"time": 2431, "pitch": 63, "duration": 2, "velocity": 96}, {"time": 2437, "pitch": 43, "duration": 13, "velocity": 108}, {"time": 2437, "pitch": 55, "duration": 12, "velocity": 98}, {"time": 2437, "pitch": 59, "duration": 12, "velocity": 106}, {"time": 2437, "pitch": 63, "duration": 12, "velocity": 108}, {"time": 2455, "pitch": 48, "duration": 6, "velocity": 110}, {"time": 2461, "pitch": 60, "duration": 7, "velocity": 88}, {"time": 2461, "pitch": 63, "duration": 7, "velocity": 94}, {"time": 2461, "pitch": 67, "duration": 7, "velocity": 88}, {"time": 2464, "pitch": 55, "duration": 1, "velocity": 88}, {"time": 2467, "pitch": 55, "duration": 3, "velocity": 96}, {"time": 2470, "pitch": 60, "duration": 9, "velocity": 100}, {"time": 2470, "pitch": 63, "duration": 9, "velocity": 108}, {"time": 2470, "pitch": 67, "duration": 9, "velocity": 98}, {"time": 2476, "pitch": 55, "duration": 3, "velocity": 90}, {"time": 2479, "pitch": 48, "duration": 6, "velocity": 91}, {"time": 2485, "pitch": 60, "duration": 10, "velocity": 90}, {"time": 2485, "pitch": 63, "duration": 9, "velocity": 93}, {"time": 2485, "pitch": 67, "duration": 9, "velocity": 91}, {"time": 2488, "pitch": 48, "duration": 2, "velocity": 88}, {"time": 2491, "pitch": 48, "duration": 1, "velocity": 88}, {"time": 2494, "pitch": 48, "duration": 4, "velocity": 98}, {"time": 2497, "pitch": 60, "duration": 4, "velocity": 89}, {"time": 2497, "pitch": 63, "duration": 6, "velocity": 92}, {"time": 2497, "pitch": 67, "duration": 6, "velocity": 91}, {"time": 2500, "pitch": 48, "duration": 3, "velocity": 102}], "annotations": [{"time": 5, "annotation": {"number": 64, "value": 38}, "group": "control_change"}, {"time": 5, "annotation": {"number": 64, "value": 127}, "group": "control_change"}, {"time": 29, "annotation": {"number": 64, "value": 0}, "group": "control_change"}, {"time": 31, "annotation": {"number": 64, "value": 127}, "group": "control_change"}, {"time": 53, "annotation": {"number": 64, "value": 74}, "group": "control_change"}, {"time": 53, "annotation": {"number": 64, "value": 38}, "group": "control_change"}, {"time": 53, "annotation": {"number": 64, "value": 0}, "group": "control_change"}, {"time": 55, "annotation": {"number": 64, "value": 127}, "group": "control_change"}, {"time": 89, "annotation": {"number": 64, "value": 74}, "group": "control_change"}, {"time": 89, "annotation": {"number": 64, "value": 0}, "group": "control_change"}, {"time": 91, "annotation": {"number": 64, "value": 127}, "group": "control_change"}, {"time": 101, "annotation": {"number": 64, "value": 74}, "group": "control_change"}, {"time": 101, "annotation": {"number": 64, "value": 38}, "group": "control_change"}, {"time": 101, "annotation": {"number": 64, "value": 0}, "group": "control_change"}, {"time": 103, "annotation": {"number": 64, "value": 127}, "group": "control_change"}, {"time": 195, "annotation": {"number": 64, "value": 74}, "group": "control_change"}, {"time": 195, "annotation": {"number": 64, "value": 127}, "group": "control_change"}, {"time": 197, "annotation": {"number": 64, "value": 0}, "group": "control_change"}, {"time": 199, "annotation": {"number": 64, "value": 127}, "group": "control_change"}, {"time": 220, "annotation": {"number": 64, "value": 0}, "group": "control_change"}, {"time": 223, "annotation": {"number": 64, "value": 127}, "group": "control_change"}, {"time": 244, "annotation": {"number": 64, "value": 74}, "group": "control_change"}, {"time": 244, "annotation": {"number": 64, "value": 0}, "group": "control_change"}, {"time": 247, "annotation": {"number": 64, "value": 127}, "group": "control_change"}, {"time": 269, "annotation": {"number": 64, "value": 0}, "group": "control_change"}, {"time": 271, "annotation": {"number": 64, "value": 127}, "group": "control_change"}, {"time": 317, "annotation": {"number": 64, "value": 38}, "group": "control_change"}, {"time": 317, "annotation": {"number": 64, "value": 0}, "group": "control_change"}, {"time": 318, "annotation": {"number": 64, "value": 127}, "group": "control_change"}, {"time": 378, "annotation": {"number": 64, "value": 0}, "group": "control_change"}, {"time": 391, "annotation": {"number": 64, "value": 127}, "group": "control_change"}, {"time": 412, "annotation": {"number": 64, "value": 0}, "group": "control_change"}, {"time": 414, "annotation": {"number": 64, "value": 127}, "group": "control_change"}, {"time": 437, "annotation": {"number": 64, "value": 74}, "group": "control_change"}, {"time": 437, "annotation": {"number": 64, "value": 0}, "group": "control_change"}, {"time": 439, "annotation": {"number": 64, "value": 38}, "group": "control_change"}, {"time": 439, "annotation": {"number": 64, "value": 127}, "group": "control_change"}, {"time": 484, "annotation": {"number": 64, "value": 0}, "group": "control_change"}, {"time": 487, "annotation": {"number": 64, "value": 127}, "group": "control_change"}, {"time": 508, "annotation": {"number": 64, "value": 38}, "group": "control_change"}, {"time": 508, "annotation": {"number": 64, "value": 0}, "group": "control_change"}, {"time": 511, "annotation": {"number": 64, "value": 127}, "group": "control_change"}, {"time": 533, "annotation": {"number": 64, "value": 38}, "group": "control_change"}, {"time": 533, "annotation": {"number": 64, "value": 0}, "group": "control_change"}, {"time": 534, "annotation": {"number": 64, "value": 127}, "group": "control_change"}, {"time": 557, "annotation": {"number": 64, "value": 74}, "group": "control_change"}, {"time": 557, "annotation": {"number": 64, "value": 38}, "group": "control_change"}, {"time": 557, "annotation": {"number": 64, "value": 0}, "group": "control_change"}, {"time": 558, "annotation": {"number": 64, "value": 127}, "group": "control_change"}, {"time": 560, "annotation": {"number": 64, "value": 127}, "group": "control_change"}, {"time": 580, "annotation": {"number": 64, "value": 0}, "group": "control_change"}, {"time": 581, "annotation": {"number": 64, "value": 0}, "group": "control_change"}, {"time": 583, "annotation": {"number": 64, "value": 127}, "group": "control_change"}, {"time": 605, "annotation": {"number": 64, "value": 38}, "group": "control_change"}, {"time": 605, "annotation": {"number": 64, "value": 0}, "group": "control_change"}, {"time": 606, "annotation": {"number": 64, "value": 74}, "group": "control_change"}, {"time": 606, "annotation": {"number": 64, "value": 127}, "group": "control_change"}, {"time": 630, "annotation": {"number": 64, "value": 38}, "group": "control_change"}, {"time": 630, "annotation": {"number": 64, "value": 0}, "group": "control_change"}, {"time": 631, "annotation": {"number": 64, "value": 127}, "group": "control_change"}, {"time": 653, "annotation": {"number": 64, "value": 38}, "group": "control_change"}, {"time": 653, "annotation": {"number": 64, "value": 0}, "group": "control_change"}, {"time": 654, "annotation": {"number": 64, "value": 127}, "group": "control_change"}, {"time": 677, "annotation": {"number": 64, "value": 74}, "group": "control_change"}, {"time": 677, "annotation": {"number": 64, "value": 0}, "group": "control_change"}, {"time": 678, "annotation": {"number": 64, "value": 127}, "group": "control_change"}, {"time": 701, "annotation": {"number": 64, "value": 38}, "group": "control_change"}, {"time": 701, "annotation": {"number": 64, "value": 0}, "group": "control_change"}, {"time": 702, "annotation": {"number": 64, "value": 127}, "group": "control_change"}, {"time": 724, "annotation": {"number": 64, "value": 38}, "group": "control_change"}, {"time": 724, "annotation": {"number": 64, "value": 0}, "group": "control_change"}, {"time": 726, "annotation": {"number": 64, "value": 127}, "group": "control_change"}, {"time": 748, "annotation": {"number": 64, "value": 38}, "group": "control_change"}, {"time": 748, "annotation": {"number": 64, "value": 0}, "group": "control_change"}, {"time": 749, "annotation": {"number": 64, "value": 127}, "group": "control_change"}, {"time": 773, "annotation": {"number": 64, "value": 38}, "group": "control_change"}, {"time": 773, "annotation": {"number": 64, "value": 0}, "group": "control_change"}, {"time": 775, "annotation": {"number": 64, "value": 127}, "group": "control_change"}, {"time": 797, "annotation": {"number": 64, "value": 38}, "group": "control_change"}, {"time": 797, "annotation": {"number": 64, "value": 0}, "group": "control_change"}, {"time": 799, "annotation": {"number": 64, "value": 38}, "group": "control_change"}, {"time": 799, "annotation": {"number": 64, "value": 127}, "group": "control_change"}, {"time": 821, "annotation": {"number": 64, "value": 74}, "group": "control_change"}, {"time": 821, "annotation": {"number": 64, "value": 0}, "group": "control_change"}, {"time": 823, "annotation": {"number": 64, "value": 127}, "group": "control_change"}, {"time": 845, "annotation": {"number": 64, "value": 38}, "group": "control_change"}, {"time": 845, "annotation": {"number": 64, "value": 0}, "group": "control_change"}, {"time": 847, "annotation": {"number": 64, "value": 127}, "group": "control_change"}, {"time": 869, "annotation": {"number": 64, "value": 38}, "group": "control_change"}, {"time": 869, "annotation": {"number": 64, "value": 0}, "group": "control_change"}, {"time": 870, "annotation": {"number": 64, "value": 127}, "group": "control_change"}, {"time": 893, "annotation": {"number": 64, "value": 38}, "group": "control_change"}, {"time": 893, "annotation": {"number": 64, "value": 0}, "group": "control_change"}, {"time": 895, "annotation": {"number": 64, "value": 127}, "group": "control_change"}, {"time": 917, "annotation": {"number": 64, "value": 74}, "group": "control_change"}, {"time": 917, "annotation": {"number": 64, "value": 0}, "group": "control_change"}, {"time": 919, "annotation": {"number": 64, "value": 127}, "group": "control_change"}, {"time": 941, "annotation": {"number": 64, "value": 74}, "group": "control_change"}, {"time": 941, "annotation": {"number": 64, "value": 0}, "group": "control_change"}, {"time": 942, "annotation": {"number": 64, "value": 127}, "group": "control_change"}, {"time": 963, "annotation": {"number": 64, "value": 38}, "group": "control_change"}, {"time": 963, "annotation": {"number": 64, "value": 0}, "group": "control_change"}, {"time": 1159, "annotation": {"number": 64, "value": 127}, "group": "control_change"}, {"time": 1180, "annotation": {"number": 64, "value": 0}, "group": "control_change"}, {"time": 1182, "annotation": {"number": 64, "value": 127}, "group": "control_change"}, {"time": 1205, "annotation": {"number": 64, "value": 74}, "group": "control_change"}, {"time": 1205, "annotation": {"number": 64, "value": 0}, "group": "control_change"}, {"time": 1207, "annotation": {"number": 64, "value": 38}, "group": "control_change"}, {"time": 1207, "annotation": {"number": 64, "value": 127}, "group": "control_change"}, {"time": 1252, "annotation": {"number": 64, "value": 0}, "group": "control_change"}, {"time": 1255, "annotation": {"number": 64, "value": 127}, "group": "control_change"}, {"time": 1276, "annotation": {"number": 64, "value": 38}, "group": "control_change"}, {"time": 1276, "annotation": {"number": 64, "value": 0}, "group": "control_change"}, {"time": 1279, "annotation": {"number": 64, "value": 127}, "group": "control_change"}, {"time": 1301, "annotation": {"number": 64, "value": 38}, "group": "control_change"}, {"time": 1301, "annotation": {"number": 64, "value": 0}, "group": "control_change"}, {"time": 1302, "annotation": {"number": 64, "value": 127}, "group": "control_change"}, {"time": 1325, "annotation": {"number": 64, "value": 74}, "group": "control_change"}, {"time": 1325, "annotation": {"number": 64, "value": 38}, "group": "control_change"}, {"time": 1325, "annotation": {"number": 64, "value": 0}, "group": "control_change"}, {"time": 1326, "annotation": {"number": 64, "value": 127}, "group": "control_change"}, {"time": 1328, "annotation": {"number": 64, "value": 127}, "group": "control_change"}, {"time": 1348, "annotation": {"number": 64, "value": 0}, "group": "control_change"}, {"time": 1349, "annotation": {"number": 64, "value": 0}, "group": "control_change"}, {"time": 1351, "annotation": {"number": 64, "value": 127}, "group": "control_change"}, {"time": 1373, "annotation": {"number": 64, "value": 38}, "group": "control_change"}, {"time": 1373, "annotation": {"number": 64, "value": 0}, "group": "control_change"}, {"time": 1374, "annotation": {"number": 64, "value": 74}, "group": "control_change"}, {"time": 1374, "annotation": {"number": 64, "value": 127}, "group": "control_change"}, {"time": 1398, "annotation": {"number": 64, "value": 38}, "group": "control_change"}, {"time": 1398, "annotation": {"number": 64, "value": 0}, "group": "control_change"}, {"time": 1399, "annotation": {"number": 64, "value": 127}, "group": "control_change"}, {"time": 1421, "annotation": {"number": 64, "value": 38}, "group": "control_change"}, {"time": 1421, "annotation": {"number": 64, "value": 0}, "group": "control_change"}, {"time": 1422, "annotation": {"number": 64, "value": 127}, "group": "control_change"}, {"time": 1445, "annotation": {"number": 64, "value": 74}, "group": "control_change"}, {"time": 1445, "annotation": {"number": 64, "value": 0}, "group": "control_change"}, {"time": 1446, "annotation": {"number": 64, "value": 127}, "group": "control_change"}, {"time": 1469, "annotation": {"number": 64, "value": 38}, "group": "control_change"}, {"time": 1469, "annotation": {"number": 64, "value": 0}, "group": "control_change"}, {"time": 1470, "annotation": {"number": 64, "value": 127}, "group": "control_change"}, {"time": 1492, "annotation": {"number": 64, "value": 38}, "group": "control_change"}, {"time": 1492, "annotation": {"number": 64, "value": 0}, "group": "control_change"}, {"time": 1494, "annotation": {"number": 64, "value": 127}, "group": "control_change"}, {"time": 1516, "annotation": {"number": 64, "value": 38}, "group": "control_change"}, {"time": 1516, "annotation": {"number": 64, "value": 0}, "group": "control_change"}, {"time": 1517, "annotation": {"number": 64, "value": 127}, "group": "control_change"}, {"time": 1541, "annotation": {"number": 64, "value": 38}, "group": "control_change"}, {"time": 1541, "annotation": {"number": 64, "value": 0}, "group": "control_change"}, {"time": 1543, "annotation": {"number": 64, "value": 127}, "group": "control_change"}, {"time": 1565, "annotation": {"number": 64, "value": 38}, "group": "control_change"}, {"time": 1565, "annotation": {"number": 64, "value": 0}, "group": "control_change"}, {"time": 1567, "annotation": {"number": 64, "value": 38}, "group": "control_change"}, {"time": 1567, "annotation": {"number": 64, "value": 127}, "group": "control_change"}, {"time": 1589, "annotation": {"number": 64, "value": 74}, "group": "control_change"}, {"time": 1589, "annotation": {"number": 64, "value": 0}, "group": "control_change"}, {"time": 1591, "annotation": {"number": 64, "value": 127}, "group": "control_change"}, {"time": 1613, "annotation": {"number": 64, "value": 38}, "group": "control_change"}, {"time": 1613, "annotation": {"number": 64, "value": 0}, "group": "control_change"}, {"time": 1615, "annotation": {"number": 64, "value": 127}, "group": "control_change"}, {"time": 1637, "annotation": {"number": 64, "value": 38}, "group": "control_change"}, {"time": 1637, "annotation": {"number": 64, "value": 0}, "group": "control_change"}, {"time": 1638, "annotation": {"number": 64, "value": 127}, "group": "control_change"}, {"time": 1661, "annotation": {"number": 64, "value": 38}, "group": "control_change"}, {"time": 1661, "annotation": {"number": 64, "value": 0}, "group": "control_change"}, {"time": 1663, "annotation": {"number": 64, "value": 127}, "group": "control_change"}, {"time": 1685, "annotation": {"number": 64, "value": 74}, "group": "control_change"}, {"time": 1685, "annotation": {"number": 64, "value": 0}, "group": "control_change"}, {"time": 1687, "annotation": {"number": 64, "value": 127}, "group": "control_change"}, {"time": 1709, "annotation": {"number": 64, "value": 74}, "group": "control_change"}, {"time": 1709, "annotation": {"number": 64, "value": 0}, "group": "control_change"}, {"time": 1710, "annotation": {"number": 64, "value": 127}, "group": "control_change"}, {"time": 1731, "annotation": {"number": 64, "value": 38}, "group": "control_change"}, {"time": 1731, "annotation": {"number": 64, "value": 0}, "group": "control_change"}, {"time": 1734, "annotation": {"number": 64, "value": 127}, "group": "control_change"}, {"time": 1756, "annotation": {"number": 64, "value": 74}, "group": "control_change"}, {"time": 1756, "annotation": {"number": 64, "value": 0}, "group": "control_change"}, {"time": 1758, "annotation": {"number": 64, "value": 127}, "group": "control_change"}, {"time": 1780, "annotation": {"number": 64, "value": 74}, "group": "control_change"}, {"time": 1780, "annotation": {"number": 64, "value": 0}, "group": "control_change"}, {"time": 1783, "annotation": {"number": 64, "value": 127}, "group": "control_change"}, {"time": 1805, "annotation": {"number": 64, "value": 38}, "group": "control_change"}, {"time": 1805, "annotation": {"number": 64, "value": 0}, "group": "control_change"}, {"time": 1807, "annotation": {"number": 64, "value": 127}, "group": "control_change"}, {"time": 1854, "annotation": {"number": 64, "value": 74}, "group": "control_change"}, {"time": 1854, "annotation": {"number": 64, "value": 38}, "group": "control_change"}, {"time": 1854, "annotation": {"number": 64, "value": 0}, "group": "control_change"}, {"time": 1856, "annotation": {"number": 64, "value": 127}, "group": "control_change"}, {"time": 1877, "annotation": {"number": 64, "value": 38}, "group": "control_change"}, {"time": 1877, "annotation": {"number": 64, "value": 0}, "group": "control_change"}, {"time": 1879, "annotation": {"number": 64, "value": 127}, "group": "control_change"}, {"time": 1900, "annotation": {"number": 64, "value": 0}, "group": "control_change"}, {"time": 1902, "annotation": {"number": 64, "value": 127}, "group": "control_change"}, {"time": 1911, "annotation": {"number": 64, "value": 38}, "group": "control_change"}, {"time": 1911, "annotation": {"number": 64, "value": 0}, "group": "control_change"}, {"time": 1928, "annotation": {"number": 64, "value": 127}, "group": "control_change"}, {"time": 1933, "annotation": {"number": 64, "value": 38}, "group": "control_change"}, {"time": 1933, "annotation": {"number": 64, "value": 0}, "group": "control_change"}, {"time": 1938, "annotation": {"number": 64, "value": 127}, "group": "control_change"}, {"time": 1945, "annotation": {"number": 64, "value": 0}, "group": "control_change"}, {"time": 1951, "annotation": {"number": 64, "value": 38}, "group": "control_change"}, {"time": 1951, "annotation": {"number": 64, "value": 127}, "group": "control_change"}, {"time": 1953, "annotation": {"number": 64, "value": 38}, "group": "control_change"}, {"time": 1953, "annotation": {"number": 64, "value": 0}, "group": "control_change"}, {"time": 1958, "annotation": {"number": 64, "value": 127}, "group": "control_change"}, {"time": 1960, "annotation": {"number": 64, "value": 38}, "group": "control_change"}, {"time": 1960, "annotation": {"number": 64, "value": 0}, "group": "control_change"}, {"time": 1962, "annotation": {"number": 64, "value": 127}, "group": "control_change"}, {"time": 1962, "annotation": {"number": 64, "value": 74}, "group": "control_change"}, {"time": 1962, "annotation": {"number": 64, "value": 0}, "group": "control_change"}, {"time": 1964, "annotation": {"number": 64, "value": 127}, "group": "control_change"}, {"time": 1969, "annotation": {"number": 64, "value": 38}, "group": "control_change"}, {"time": 1969, "annotation": {"number": 64, "value": 0}, "group": "control_change"}, {"time": 1971, "annotation": {"number": 64, "value": 127}, "group": "control_change"}, {"time": 1978, "annotation": {"number": 64, "value": 38}, "group": "control_change"}, {"time": 1978, "annotation": {"number": 64, "value": 0}, "group": "control_change"}, {"time": 1983, "annotation": {"number": 64, "value": 127}, "group": "control_change"}, {"time": 1983, "annotation": {"number": 64, "value": 0}, "group": "control_change"}, {"time": 1986, "annotation": {"number": 64, "value": 127}, "group": "control_change"}, {"time": 1987, "annotation": {"number": 64, "value": 74}, "group": "control_change"}, {"time": 1987, "annotation": {"number": 64, "value": 0}, "group": "control_change"}, {"time": 1988, "annotation": {"number": 64, "value": 127}, "group": "control_change"}, {"time": 1993, "annotation": {"number": 64, "value": 0}, "group": "control_change"}, {"time": 1995, "annotation": {"number": 64, "value": 127}, "group": "control_change"}, {"time": 1996, "annotation": {"number": 64, "value": 74}, "group": "control_change"}, {"time": 1996, "annotation": {"number": 64, "value": 0}, "group": "control_change"}, {"time": 1999, "annotation": {"number": 64, "value": 127}, "group": "control_change"}, {"time": 2002, "annotation": {"number": 64, "value": 0}, "group": "control_change"}, {"time": 2007, "annotation": {"number": 64, "value": 127}, "group": "control_change"}, {"time": 2007, "annotation": {"number": 64, "value": 74}, "group": "control_change"}, {"time": 2008, "annotation": {"number": 64, "value": 0}, "group": "control_change"}, {"time": 2012, "annotation": {"number": 64, "value": 127}, "group": "control_change"}, {"time": 2017, "annotation": {"number": 64, "value": 38}, "group": "control_change"}, {"time": 2017, "annotation": {"number": 64, "value": 0}, "group": "control_change"}, {"time": 2019, "annotation": {"number": 64, "value": 127}, "group": "control_change"}, {"time": 2020, "annotation": {"number": 64, "value": 38}, "group": "control_change"}, {"time": 2020, "annotation": {"number": 64, "value": 0}, "group": "control_change"}, {"time": 2023, "annotation": {"number": 64, "value": 127}, "group": "control_change"}, {"time": 2026, "annotation": {"number": 64, "value": 0}, "group": "control_change"}, {"time": 2034, "annotation": {"number": 64, "value": 127}, "group": "control_change"}, {"time": 2038, "annotation": {"number": 64, "value": 74}, "group": "control_change"}, {"time": 2038, "annotation": {"number": 64, "value": 0}, "group": "control_change"}, {"time": 2040, "annotation": {"number": 64, "value": 38}, "group": "control_change"}, {"time": 2040, "annotation": {"number": 64, "value": 127}, "group": "control_change"}, {"time": 2040, "annotation": {"number": 64, "value": 74}, "group": "control_change"}, {"time": 2041, "annotation": {"number": 64, "value": 0}, "group": "control_change"}, {"time": 2043, "annotation": {"number": 64, "value": 127}, "group": "control_change"}, {"time": 2045, "annotation": {"number": 64, "value": 0}, "group": "control_change"}, {"time": 2046, "annotation": {"number": 64, "value": 127}, "group": "control_change"}, {"time": 2050, "annotation": {"number": 64, "value": 38}, "group": "control_change"}, {"time": 2050, "annotation": {"number": 64, "value": 0}, "group": "control_change"}, {"time": 2054, "annotation": {"number": 64, "value": 127}, "group": "control_change"}, {"time": 2056, "annotation": {"number": 64, "value": 38}, "group": "control_change"}, {"time": 2056, "annotation": {"number": 64, "value": 0}, "group": "control_change"}, {"time": 2060, "annotation": {"number": 64, "value": 127}, "group": "control_change"}, {"time": 2065, "annotation": {"number": 64, "value": 0}, "group": "control_change"}, {"time": 2067, "annotation": {"number": 64, "value": 38}, "group": "control_change"}, {"time": 2067, "annotation": {"number": 64, "value": 127}, "group": "control_change"}, {"time": 2069, "annotation": {"number": 64, "value": 38}, "group": "control_change"}, {"time": 2069, "annotation": {"number": 64, "value": 0}, "group": "control_change"}, {"time": 2071, "annotation": {"number": 64, "value": 127}, "group": "control_change"}, {"time": 2074, "annotation": {"number": 64, "value": 0}, "group": "control_change"}, {"time": 2076, "annotation": {"number": 64, "value": 127}, "group": "control_change"}, {"time": 2077, "annotation": {"number": 64, "value": 38}, "group": "control_change"}, {"time": 2077, "annotation": {"number": 64, "value": 0}, "group": "control_change"}, {"time": 2078, "annotation": {"number": 64, "value": 127}, "group": "control_change"}, {"time": 2080, "annotation": {"number": 64, "value": 74}, "group": "control_change"}, {"time": 2080, "annotation": {"number": 64, "value": 0}, "group": "control_change"}, {"time": 2082, "annotation": {"number": 64, "value": 127}, "group": "control_change"}, {"time": 2085, "annotation": {"number": 64, "value": 38}, "group": "control_change"}, {"time": 2086, "annotation": {"number": 64, "value": 0}, "group": "control_change"}, {"time": 2088, "annotation": {"number": 64, "value": 127}, "group": "control_change"}, {"time": 2092, "annotation": {"number": 64, "value": 0}, "group": "control_change"}, {"time": 2120, "annotation": {"number": 64, "value": 127}, "group": "control_change"}, {"time": 2125, "annotation": {"number": 64, "value": 38}, "group": "control_change"}, {"time": 2125, "annotation": {"number": 64, "value": 0}, "group": "control_change"}, {"time": 2130, "annotation": {"number": 64, "value": 127}, "group": "control_change"}, {"time": 2137, "annotation": {"number": 64, "value": 0}, "group": "control_change"}, {"time": 2143, "annotation": {"number": 64, "value": 38}, "group": "control_change"}, {"time": 2143, "annotation": {"number": 64, "value": 127}, "group": "control_change"}, {"time": 2145, "annotation": {"number": 64, "value": 38}, "group": "control_change"}, {"time": 2145, "annotation": {"number": 64, "value": 0}, "group": "control_change"}, {"time": 2150, "annotation": {"number": 64, "value": 127}, "group": "control_change"}, {"time": 2152, "annotation": {"number": 64, "value": 38}, "group": "control_change"}, {"time": 2152, "annotation": {"number": 64, "value": 0}, "group": "control_change"}, {"time": 2154, "annotation": {"number": 64, "value": 127}, "group": "control_change"}, {"time": 2154, "annotation": {"number": 64, "value": 74}, "group": "control_change"}, {"time": 2154, "annotation": {"number": 64, "value": 0}, "group": "control_change"}, {"time": 2156, "annotation": {"number": 64, "value": 127}, "group": "control_change"}, {"time": 2161, "annotation": {"number": 64, "value": 38}, "group": "control_change"}, {"time": 2161, "annotation": {"number": 64, "value": 0}, "group": "control_change"}, {"time": 2163, "annotation": {"number": 64, "value": 127}, "group": "control_change"}, {"time": 2170, "annotation": {"number": 64, "value": 38}, "group": "control_change"}, {"time": 2170, "annotation": {"number": 64, "value": 0}, "group": "control_change"}, {"time": 2175, "annotation": {"number": 64, "value": 127}, "group": "control_change"}, {"time": 2175, "annotation": {"number": 64, "value": 0}, "group": "control_change"}, {"time": 2178, "annotation": {"number": 64, "value": 127}, "group": "control_change"}, {"time": 2179, "annotation": {"number": 64, "value": 74}, "group": "control_change"}, {"time": 2179, "annotation": {"number": 64, "value": 0}, "group": "control_change"}, {"time": 2180, "annotation": {"number": 64, "value": 127}, "group": "control_change"}, {"time": 2185, "annotation": {"number": 64, "value": 0}, "group": "control_change"}, {"time": 2187, "annotation": {"number": 64, "value": 127}, "group": "control_change"}, {"time": 2188, "annotation": {"number": 64, "value": 74}, "group": "control_change"}, {"time": 2188, "annotation": {"number": 64, "value": 0}, "group": "control_change"}, {"time": 2191, "annotation": {"number": 64, "value": 127}, "group": "control_change"}, {"time": 2194, "annotation": {"number": 64, "value": 0}, "group": "control_change"}, {"time": 2199, "annotation": {"number": 64, "value": 127}, "group": "control_change"}, {"time": 2199, "annotation": {"number": 64, "value": 74}, "group": "control_change"}, {"time": 2200, "annotation": {"number": 64, "value": 0}, "group": "control_change"}, {"time": 2204, "annotation": {"number": 64, "value": 127}, "group": "control_change"}, {"time": 2209, "annotation": {"number": 64, "value": 38}, "group": "control_change"}, {"time": 2209, "annotation": {"number": 64, "value": 0}, "group": "control_change"}, {"time": 2211, "annotation": {"number": 64, "value": 127}, "group": "control_change"}, {"time": 2212, "annotation": {"number": 64, "value": 38}, "group": "control_change"}, {"time": 2212, "annotation": {"number": 64, "value": 0}, "group": "control_change"}, {"time": 2215, "annotation": {"number": 64, "value": 127}, "group": "control_change"}, {"time": 2218, "annotation": {"number": 64, "value": 0}, "group": "control_change"}, {"time": 2226, "annotation": {"number": 64, "value": 127}, "group": "control_change"}, {"time": 2230, "annotation": {"number": 64, "value": 74}, "group": "control_change"}, {"time": 2230, "annotation": {"number": 64, "value": 0}, "group": "control_change"}, {"time": 2232, "annotation": {"number": 64, "value": 38}, "group": "control_change"}, {"time": 2232, "annotation": {"number": 64, "value": 127}, "group": "control_change"}, {"time": 2232, "annotation": {"number": 64, "value": 74}, "group": "control_change"}, {"time": 2233, "annotation": {"number": 64, "value": 0}, "group": "control_change"}, {"time": 2235, "annotation": {"number": 64, "value": 127}, "group": "control_change"}, {"time": 2237, "annotation": {"number": 64, "value": 0}, "group": "control_change"}, {"time": 2238, "annotation": {"number": 64, "value": 127}, "group": "control_change"}, {"time": 2242, "annotation": {"number": 64, "value": 38}, "group": "control_change"}, {"time": 2242, "annotation": {"number": 64, "value": 0}, "group": "control_change"}, {"time": 2246, "annotation": {"number": 64, "value": 127}, "group": "control_change"}, {"time": 2248, "annotation": {"number": 64, "value": 38}, "group": "control_change"}, {"time": 2248, "annotation": {"number": 64, "value": 0}, "group": "control_change"}, {"time": 2252, "annotation": {"number": 64, "value": 127}, "group": "control_change"}, {"time": 2257, "annotation": {"number": 64, "value": 0}, "group": "control_change"}, {"time": 2259, "annotation": {"number": 64, "value": 38}, "group": "control_change"}, {"time": 2259, "annotation": {"number": 64, "value": 127}, "group": "control_change"}, {"time": 2261, "annotation": {"number": 64, "value": 38}, "group": "control_change"}, {"time": 2261, "annotation": {"number": 64, "value": 0}, "group": "control_change"}, {"time": 2263, "annotation": {"number": 64, "value": 127}, "group": "control_change"}, {"time": 2266, "annotation": {"number": 64, "value": 0}, "group": "control_change"}, {"time": 2268, "annotation": {"number": 64, "value": 127}, "group": "control_change"}, {"time": 2269, "annotation": {"number": 64, "value": 38}, "group": "control_change"}, {"time": 2269, "annotation": {"number": 64, "value": 0}, "group": "control_change"}, {"time": 2270, "annotation": {"number": 64, "value": 127}, "group": "control_change"}, {"time": 2272, "annotation": {"number": 64, "value": 74}, "group": "control_change"}, {"time": 2272, "annotation": {"number": 64, "value": 0}, "group": "control_change"}, {"time": 2274, "annotation": {"number": 64, "value": 127}, "group": "control_change"}, {"time": 2277, "annotation": {"number": 64, "value": 38}, "group": "control_change"}, {"time": 2278, "annotation": {"number": 64, "value": 0}, "group": "control_change"}, {"time": 2280, "annotation": {"number": 64, "value": 127}, "group": "control_change"}, {"time": 2284, "annotation": {"number": 64, "value": 0}, "group": "control_change"}, {"time": 2312, "annotation": {"number": 64, "value": 127}, "group": "control_change"}, {"time": 2317, "annotation": {"number": 64, "value": 38}, "group": "control_change"}, {"time": 2317, "annotation": {"number": 64, "value": 0}, "group": "control_change"}, {"time": 2322, "annotation": {"number": 64, "value": 127}, "group": "control_change"}, {"time": 2329, "annotation": {"number": 64, "value": 0}, "group": "control_change"}, {"time": 2335, "annotation": {"number": 64, "value": 38}, "group": "control_change"}, {"time": 2335, "annotation": {"number": 64, "value": 127}, "group": "control_change"}, {"time": 2337, "annotation": {"number": 64, "value": 38}, "group": "control_change"}, {"time": 2337, "annotation": {"number": 64, "value": 0}, "group": "control_change"}, {"time": 2342, "annotation": {"number": 64, "value": 127}, "group": "control_change"}, {"time": 2344, "annotation": {"number": 64, "value": 38}, "group": "control_change"}, {"time": 2344, "annotation": {"number": 64, "value": 0}, "group": "control_change"}, {"time": 2346, "annotation": {"number": 64, "value": 127}, "group": "control_change"}, {"time": 2346, "annotation": {"number": 64, "value": 74}, "group": "control_change"}, {"time": 2346, "annotation": {"number": 64, "value": 0}, "group": "control_change"}, {"time": 2348, "annotation": {"number": 64, "value": 127}, "group": "control_change"}, {"time": 2353, "annotation": {"number": 64, "value": 38}, "group": "control_change"}, {"time": 2353, "annotation": {"number": 64, "value": 0}, "group": "control_change"}, {"time": 2355, "annotation": {"number": 64, "value": 127}, "group": "control_change"}, {"time": 2362, "annotation": {"number": 64, "value": 38}, "group": "control_change"}, {"time": 2362, "annotation": {"number": 64, "value": 0}, "group": "control_change"}, {"time": 2367, "annotation": {"number": 64, "value": 127}, "group": "control_change"}, {"time": 2367, "annotation": {"number": 64, "value": 0}, "group": "control_change"}, {"time": 2370, "annotation": {"number": 64, "value": 127}, "group": "control_change"}, {"time": 2371, "annotation": {"number": 64, "value": 74}, "group": "control_change"}, {"time": 2371, "annotation": {"number": 64, "value": 0}, "group": "control_change"}, {"time": 2372, "annotation": {"number": 64, "value": 127}, "group": "control_change"}, {"time": 2377, "annotation": {"number": 64, "value": 0}, "group": "control_change"}, {"time": 2379, "annotation": {"number": 64, "value": 127}, "group": "control_change"}, {"time": 2380, "annotation": {"number": 64, "value": 74}, "group": "control_change"}, {"time": 2380, "annotation": {"number": 64, "value": 0}, "group": "control_change"}, {"time": 2383, "annotation": {"number": 64, "value": 127}, "group": "control_change"}, {"time": 2386, "annotation": {"number": 64, "value": 0}, "group": "control_change"}, {"time": 2391, "annotation": {"number": 64, "value": 127}, "group": "control_change"}, {"time": 2391, "annotation": {"number": 64, "value": 74}, "group": "control_change"}, {"time": 2392, "annotation": {"number": 64, "value": 0}, "group": "control_change"}, {"time": 2396, "annotation": {"number": 64, "value": 127}, "group": "control_change"}, {"time": 2401, "annotation": {"number": 64, "value": 38}, "group": "control_change"}, {"time": 2401, "annotation": {"number": 64, "value": 0}, "group": "control_change"}, {"time": 2403, "annotation": {"number": 64, "value": 127}, "group": "control_change"}, {"time": 2404, "annotation": {"number": 64, "value": 38}, "group": "control_change"}, {"time": 2404, "annotation": {"number": 64, "value": 0}, "group": "control_change"}, {"time": 2407, "annotation": {"number": 64, "value": 127}, "group": "control_change"}, {"time": 2410, "annotation": {"number": 64, "value": 0}, "group": "control_change"}, {"time": 2418, "annotation": {"number": 64, "value": 127}, "group": "control_change"}, {"time": 2422, "annotation": {"number": 64, "value": 74}, "group": "control_change"}, {"time": 2422, "annotation": {"number": 64, "value": 0}, "group": "control_change"}, {"time": 2424, "annotation": {"number": 64, "value": 38}, "group": "control_change"}, {"time": 2424, "annotation": {"number": 64, "value": 127}, "group": "control_change"}, {"time": 2424, "annotation": {"number": 64, "value": 74}, "group": "control_change"}, {"time": 2425, "annotation": {"number": 64, "value": 0}, "group": "control_change"}, {"time": 2427, "annotation": {"number": 64, "value": 127}, "group": "control_change"}, {"time": 2429, "annotation": {"number": 64, "value": 0}, "group": "control_change"}, {"time": 2430, "annotation": {"number": 64, "value": 127}, "group": "control_change"}, {"time": 2434, "annotation": {"number": 64, "value": 38}, "group": "control_change"}, {"time": 2434, "annotation": {"number": 64, "value": 0}, "group": "control_change"}, {"time": 2438, "annotation": {"number": 64, "value": 127}, "group": "control_change"}, {"time": 2440, "annotation": {"number": 64, "value": 38}, "group": "control_change"}, {"time": 2440, "annotation": {"number": 64, "value": 0}, "group": "control_change"}, {"time": 2444, "annotation": {"number": 64, "value": 127}, "group": "control_change"}, {"time": 2449, "annotation": {"number": 64, "value": 0}, "group": "control_change"}, {"time": 2451, "annotation": {"number": 64, "value": 38}, "group": "control_change"}, {"time": 2451, "annotation": {"number": 64, "value": 127}, "group": "control_change"}, {"time": 2453, "annotation": {"number": 64, "value": 38}, "group": "control_change"}, {"time": 2453, "annotation": {"number": 64, "value": 0}, "group": "control_change"}, {"time": 2455, "annotation": {"number": 64, "value": 127}, "group": "control_change"}, {"time": 2458, "annotation": {"number": 64, "value": 0}, "group": "control_change"}, {"time": 2460, "annotation": {"number": 64, "value": 127}, "group": "control_change"}, {"time": 2461, "annotation": {"number": 64, "value": 38}, "group": "control_change"}, {"time": 2461, "annotation": {"number": 64, "value": 0}, "group": "control_change"}, {"time": 2462, "annotation": {"number": 64, "value": 127}, "group": "control_change"}, {"time": 2464, "annotation": {"number": 64, "value": 74}, "group": "control_change"}, {"time": 2464, "annotation": {"number": 64, "value": 0}, "group": "control_change"}, {"time": 2466, "annotation": {"number": 64, "value": 127}, "group": "control_change"}, {"time": 2469, "annotation": {"number": 64, "value": 38}, "group": "control_change"}, {"time": 2470, "annotation": {"number": 64, "value": 0}, "group": "control_change"}, {"time": 2472, "annotation": {"number": 64, "value": 127}, "group": "control_change"}, {"time": 2476, "annotation": {"number": 64, "value": 0}, "group": "control_change"}]}]}