{"metadata": {"schema_version": "0.2", "title": "None", "source_filename": "269.mid", "source_format": "midi"}, "resolution": 12, "tempos": [{"time": 0, "qpm": 72.00002880001152}], "time_signatures": [{"time": 0, "numerator": 4, "denominator": 4}], "tracks": [{"program": 0, "is_drum": false, "name": "MELODY", "notes": [{"time": 400, "pitch": 71, "duration": 6, "velocity": 100}, {"time": 406, "pitch": 71, "duration": 6, "velocity": 102}, {"time": 412, "pitch": 71, "duration": 6, "velocity": 94}, {"time": 418, "pitch": 74, "duration": 9, "velocity": 96}, {"time": 427, "pitch": 74, "duration": 9, "velocity": 96}, {"time": 436, "pitch": 72, "duration": 6, "velocity": 104}, {"time": 442, "pitch": 71, "duration": 30, "velocity": 94}, {"time": 472, "pitch": 71, "duration": 6, "velocity": 100}, {"time": 478, "pitch": 71, "duration": 6, "velocity": 98}, {"time": 484, "pitch": 69, "duration": 6, "velocity": 98}, {"time": 490, "pitch": 67, "duration": 30, "velocity": 98}, {"time": 520, "pitch": 69, "duration": 6, "velocity": 87}, {"time": 526, "pitch": 69, "duration": 6, "velocity": 88}, {"time": 532, "pitch": 67, "duration": 6, "velocity": 87}, {"time": 538, "pitch": 71, "duration": 54, "velocity": 89}, {"time": 592, "pitch": 71, "duration": 6, "velocity": 92}, {"time": 598, "pitch": 71, "duration": 6, "velocity": 94}, {"time": 604, "pitch": 71, "duration": 6, "velocity": 102}, {"time": 610, "pitch": 74, "duration": 9, "velocity": 102}, {"time": 619, "pitch": 74, "duration": 9, "velocity": 96}, {"time": 628, "pitch": 76, "duration": 6, "velocity": 96}, {"time": 634, "pitch": 76, "duration": 30, "velocity": 107}, {"time": 664, "pitch": 71, "duration": 6, "velocity": 93}, {"time": 670, "pitch": 71, "duration": 6, "velocity": 96}, {"time": 676, "pitch": 69, "duration": 3, "velocity": 91}, {"time": 679, "pitch": 67, "duration": 24, "velocity": 89}, {"time": 703, "pitch": 67, "duration": 3, "velocity": 87}, {"time": 706, "pitch": 69, "duration": 6, "velocity": 90}, {"time": 712, "pitch": 74, "duration": 6, "velocity": 98}, {"time": 718, "pitch": 71, "duration": 6, "velocity": 91}, {"time": 724, "pitch": 69, "duration": 3, "velocity": 83}, {"time": 727, "pitch": 67, "duration": 57, "velocity": 85}, {"time": 784, "pitch": 72, "duration": 6, "velocity": 102}, {"time": 790, "pitch": 72, "duration": 6, "velocity": 100}, {"time": 796, "pitch": 72, "duration": 3, "velocity": 87}, {"time": 799, "pitch": 74, "duration": 9, "velocity": 107}, {"time": 808, "pitch": 74, "duration": 6, "velocity": 107}, {"time": 814, "pitch": 74, "duration": 3, "velocity": 94}, {"time": 817, "pitch": 76, "duration": 9, "velocity": 96}, {"time": 826, "pitch": 74, "duration": 54, "velocity": 102}, {"time": 880, "pitch": 72, "duration": 6, "velocity": 89}, {"time": 886, "pitch": 72, "duration": 6, "velocity": 94}, {"time": 892, "pitch": 72, "duration": 3, "velocity": 88}, {"time": 895, "pitch": 74, "duration": 9, "velocity": 93}, {"time": 904, "pitch": 74, "duration": 6, "velocity": 90}, {"time": 910, "pitch": 74, "duration": 3, "velocity": 92}, {"time": 913, "pitch": 69, "duration": 9, "velocity": 98}, {"time": 922, "pitch": 71, "duration": 54, "velocity": 89}, {"time": 976, "pitch": 72, "duration": 3, "velocity": 88}, {"time": 979, "pitch": 72, "duration": 3, "velocity": 88}, {"time": 982, "pitch": 72, "duration": 6, "velocity": 88}, {"time": 988, "pitch": 72, "duration": 6, "velocity": 87}, {"time": 994, "pitch": 74, "duration": 6, "velocity": 102}, {"time": 1000, "pitch": 74, "duration": 6, "velocity": 96}, {"time": 1006, "pitch": 74, "duration": 6, "velocity": 108}, {"time": 1012, "pitch": 76, "duration": 6, "velocity": 107}, {"time": 1018, "pitch": 74, "duration": 12, "velocity": 108}, {"time": 1030, "pitch": 76, "duration": 12, "velocity": 114}, {"time": 1042, "pitch": 71, "duration": 18, "velocity": 102}, {"time": 1060, "pitch": 71, "duration": 6, "velocity": 104}, {"time": 1066, "pitch": 69, "duration": 6, "velocity": 96}, {"time": 1072, "pitch": 69, "duration": 6, "velocity": 102}, {"time": 1078, "pitch": 69, "duration": 6, "velocity": 104}, {"time": 1084, "pitch": 67, "duration": 6, "velocity": 102}, {"time": 1090, "pitch": 69, "duration": 6, "velocity": 102}, {"time": 1096, "pitch": 69, "duration": 3, "velocity": 87}, {"time": 1099, "pitch": 69, "duration": 3, "velocity": 88}, {"time": 1102, "pitch": 71, "duration": 6, "velocity": 92}, {"time": 1108, "pitch": 71, "duration": 6, "velocity": 94}, {"time": 1114, "pitch": 69, "duration": 54, "velocity": 91}, {"time": 1168, "pitch": 71, "duration": 3, "velocity": 88}, {"time": 1171, "pitch": 71, "duration": 3, "velocity": 88}, {"time": 1174, "pitch": 71, "duration": 6, "velocity": 91}, {"time": 1180, "pitch": 71, "duration": 6, "velocity": 89}, {"time": 1186, "pitch": 74, "duration": 6, "velocity": 104}, {"time": 1192, "pitch": 74, "duration": 6, "velocity": 93}, {"time": 1198, "pitch": 74, "duration": 3, "velocity": 104}, {"time": 1201, "pitch": 72, "duration": 6, "velocity": 100}, {"time": 1207, "pitch": 71, "duration": 39, "velocity": 110}, {"time": 1246, "pitch": 71, "duration": 6, "velocity": 107}, {"time": 1252, "pitch": 69, "duration": 6, "velocity": 92}, {"time": 1258, "pitch": 67, "duration": 18, "velocity": 98}, {"time": 1276, "pitch": 67, "duration": 6, "velocity": 94}, {"time": 1282, "pitch": 69, "duration": 6, "velocity": 88}, {"time": 1288, "pitch": 69, "duration": 3, "velocity": 88}, {"time": 1291, "pitch": 69, "duration": 9, "velocity": 89}, {"time": 1300, "pitch": 67, "duration": 6, "velocity": 87}, {"time": 1306, "pitch": 71, "duration": 54, "velocity": 93}, {"time": 1360, "pitch": 71, "duration": 6, "velocity": 94}, {"time": 1366, "pitch": 71, "duration": 6, "velocity": 98}, {"time": 1372, "pitch": 71, "duration": 6, "velocity": 93}, {"time": 1378, "pitch": 74, "duration": 6, "velocity": 100}, {"time": 1384, "pitch": 74, "duration": 6, "velocity": 93}, {"time": 1390, "pitch": 74, "duration": 6, "velocity": 93}, {"time": 1396, "pitch": 76, "duration": 3, "velocity": 88}, {"time": 1399, "pitch": 76, "duration": 39, "velocity": 92}, {"time": 1438, "pitch": 71, "duration": 6, "velocity": 100}, {"time": 1444, "pitch": 69, "duration": 6, "velocity": 93}, {"time": 1450, "pitch": 67, "duration": 18, "velocity": 98}, {"time": 1468, "pitch": 67, "duration": 3, "velocity": 91}, {"time": 1471, "pitch": 67, "duration": 3, "velocity": 89}, {"time": 1474, "pitch": 69, "duration": 6, "velocity": 102}, {"time": 1480, "pitch": 74, "duration": 6, "velocity": 108}, {"time": 1486, "pitch": 71, "duration": 6, "velocity": 91}, {"time": 1492, "pitch": 69, "duration": 6, "velocity": 86}, {"time": 1498, "pitch": 67, "duration": 45, "velocity": 88}, {"time": 1936, "pitch": 71, "duration": 6, "velocity": 100}, {"time": 1942, "pitch": 71, "duration": 6, "velocity": 102}, {"time": 1948, "pitch": 71, "duration": 6, "velocity": 94}, {"time": 1954, "pitch": 74, "duration": 9, "velocity": 96}, {"time": 1963, "pitch": 74, "duration": 9, "velocity": 96}, {"time": 1972, "pitch": 72, "duration": 6, "velocity": 104}, {"time": 1978, "pitch": 71, "duration": 30, "velocity": 94}, {"time": 2008, "pitch": 71, "duration": 6, "velocity": 100}, {"time": 2014, "pitch": 71, "duration": 6, "velocity": 98}, {"time": 2020, "pitch": 69, "duration": 6, "velocity": 98}, {"time": 2026, "pitch": 67, "duration": 30, "velocity": 98}, {"time": 2056, "pitch": 69, "duration": 6, "velocity": 87}, {"time": 2062, "pitch": 69, "duration": 6, "velocity": 88}, {"time": 2068, "pitch": 67, "duration": 6, "velocity": 87}, {"time": 2074, "pitch": 71, "duration": 54, "velocity": 89}, {"time": 2128, "pitch": 71, "duration": 6, "velocity": 92}, {"time": 2134, "pitch": 71, "duration": 6, "velocity": 94}, {"time": 2140, "pitch": 71, "duration": 6, "velocity": 102}, {"time": 2146, "pitch": 74, "duration": 9, "velocity": 102}, {"time": 2155, "pitch": 74, "duration": 9, "velocity": 96}, {"time": 2164, "pitch": 76, "duration": 6, "velocity": 96}, {"time": 2170, "pitch": 76, "duration": 30, "velocity": 107}, {"time": 2200, "pitch": 71, "duration": 6, "velocity": 93}, {"time": 2206, "pitch": 71, "duration": 6, "velocity": 96}, {"time": 2212, "pitch": 69, "duration": 3, "velocity": 91}, {"time": 2215, "pitch": 67, "duration": 24, "velocity": 89}, {"time": 2239, "pitch": 67, "duration": 3, "velocity": 87}, {"time": 2242, "pitch": 69, "duration": 6, "velocity": 90}, {"time": 2248, "pitch": 74, "duration": 6, "velocity": 98}, {"time": 2254, "pitch": 71, "duration": 6, "velocity": 91}, {"time": 2260, "pitch": 69, "duration": 3, "velocity": 83}, {"time": 2263, "pitch": 67, "duration": 51, "velocity": 85}, {"time": 2320, "pitch": 72, "duration": 6, "velocity": 102}, {"time": 2326, "pitch": 72, "duration": 6, "velocity": 100}, {"time": 2332, "pitch": 72, "duration": 3, "velocity": 87}, {"time": 2335, "pitch": 74, "duration": 9, "velocity": 107}, {"time": 2344, "pitch": 74, "duration": 6, "velocity": 107}, {"time": 2350, "pitch": 74, "duration": 3, "velocity": 94}, {"time": 2353, "pitch": 76, "duration": 9, "velocity": 96}, {"time": 2362, "pitch": 74, "duration": 54, "velocity": 102}, {"time": 2416, "pitch": 72, "duration": 6, "velocity": 89}, {"time": 2422, "pitch": 72, "duration": 6, "velocity": 94}, {"time": 2428, "pitch": 72, "duration": 3, "velocity": 88}, {"time": 2431, "pitch": 74, "duration": 9, "velocity": 93}, {"time": 2440, "pitch": 74, "duration": 6, "velocity": 90}, {"time": 2446, "pitch": 74, "duration": 3, "velocity": 92}, {"time": 2449, "pitch": 69, "duration": 9, "velocity": 98}, {"time": 2458, "pitch": 71, "duration": 54, "velocity": 89}, {"time": 2512, "pitch": 72, "duration": 3, "velocity": 88}, {"time": 2515, "pitch": 72, "duration": 3, "velocity": 88}, {"time": 2518, "pitch": 72, "duration": 6, "velocity": 88}, {"time": 2524, "pitch": 72, "duration": 6, "velocity": 87}, {"time": 2530, "pitch": 74, "duration": 6, "velocity": 102}, {"time": 2536, "pitch": 74, "duration": 6, "velocity": 96}, {"time": 2542, "pitch": 74, "duration": 6, "velocity": 108}, {"time": 2548, "pitch": 76, "duration": 6, "velocity": 107}, {"time": 2554, "pitch": 74, "duration": 12, "velocity": 108}, {"time": 2566, "pitch": 76, "duration": 12, "velocity": 114}, {"time": 2578, "pitch": 71, "duration": 18, "velocity": 102}, {"time": 2596, "pitch": 71, "duration": 6, "velocity": 104}, {"time": 2602, "pitch": 69, "duration": 6, "velocity": 96}, {"time": 2608, "pitch": 69, "duration": 6, "velocity": 102}, {"time": 2614, "pitch": 69, "duration": 6, "velocity": 104}, {"time": 2620, "pitch": 67, "duration": 6, "velocity": 102}, {"time": 2626, "pitch": 69, "duration": 6, "velocity": 102}, {"time": 2632, "pitch": 69, "duration": 3, "velocity": 87}, {"time": 2635, "pitch": 69, "duration": 3, "velocity": 88}, {"time": 2638, "pitch": 71, "duration": 6, "velocity": 92}, {"time": 2644, "pitch": 71, "duration": 6, "velocity": 94}, {"time": 2650, "pitch": 69, "duration": 54, "velocity": 91}, {"time": 2704, "pitch": 71, "duration": 3, "velocity": 88}, {"time": 2707, "pitch": 71, "duration": 3, "velocity": 88}, {"time": 2710, "pitch": 71, "duration": 6, "velocity": 91}, {"time": 2716, "pitch": 71, "duration": 6, "velocity": 89}, {"time": 2722, "pitch": 74, "duration": 6, "velocity": 104}, {"time": 2728, "pitch": 74, "duration": 6, "velocity": 93}, {"time": 2734, "pitch": 74, "duration": 3, "velocity": 104}, {"time": 2737, "pitch": 72, "duration": 6, "velocity": 100}, {"time": 2743, "pitch": 71, "duration": 39, "velocity": 110}, {"time": 2782, "pitch": 71, "duration": 6, "velocity": 107}, {"time": 2788, "pitch": 69, "duration": 6, "velocity": 92}, {"time": 2794, "pitch": 67, "duration": 18, "velocity": 98}, {"time": 2812, "pitch": 67, "duration": 6, "velocity": 94}, {"time": 2818, "pitch": 69, "duration": 6, "velocity": 88}, {"time": 2824, "pitch": 69, "duration": 3, "velocity": 88}, {"time": 2827, "pitch": 69, "duration": 9, "velocity": 89}, {"time": 2836, "pitch": 67, "duration": 6, "velocity": 87}, {"time": 2842, "pitch": 71, "duration": 54, "velocity": 93}, {"time": 2896, "pitch": 71, "duration": 6, "velocity": 94}, {"time": 2902, "pitch": 71, "duration": 6, "velocity": 98}, {"time": 2908, "pitch": 71, "duration": 6, "velocity": 93}, {"time": 2914, "pitch": 74, "duration": 6, "velocity": 100}, {"time": 2920, "pitch": 74, "duration": 6, "velocity": 93}, {"time": 2926, "pitch": 74, "duration": 6, "velocity": 93}, {"time": 2932, "pitch": 76, "duration": 3, "velocity": 88}, {"time": 2935, "pitch": 76, "duration": 39, "velocity": 92}, {"time": 2974, "pitch": 71, "duration": 6, "velocity": 100}, {"time": 2980, "pitch": 69, "duration": 6, "velocity": 93}, {"time": 2986, "pitch": 67, "duration": 18, "velocity": 98}, {"time": 3004, "pitch": 67, "duration": 3, "velocity": 91}, {"time": 3007, "pitch": 67, "duration": 3, "velocity": 89}, {"time": 3010, "pitch": 69, "duration": 6, "velocity": 102}, {"time": 3016, "pitch": 74, "duration": 6, "velocity": 108}, {"time": 3022, "pitch": 71, "duration": 6, "velocity": 91}, {"time": 3028, "pitch": 69, "duration": 6, "velocity": 86}, {"time": 3034, "pitch": 67, "duration": 48, "velocity": 88}, {"time": 3473, "pitch": 72, "duration": 4, "velocity": 102}, {"time": 3479, "pitch": 72, "duration": 4, "velocity": 100}, {"time": 3485, "pitch": 72, "duration": 2, "velocity": 87}, {"time": 3488, "pitch": 74, "duration": 4, "velocity": 107}, {"time": 3497, "pitch": 74, "duration": 4, "velocity": 107}, {"time": 3503, "pitch": 74, "duration": 3, "velocity": 94}, {"time": 3506, "pitch": 76, "duration": 6, "velocity": 96}, {"time": 3515, "pitch": 74, "duration": 5, "velocity": 102}, {"time": 3569, "pitch": 72, "duration": 4, "velocity": 89}, {"time": 3575, "pitch": 72, "duration": 4, "velocity": 94}, {"time": 3581, "pitch": 72, "duration": 2, "velocity": 88}, {"time": 3584, "pitch": 74, "duration": 6, "velocity": 93}, {"time": 3593, "pitch": 74, "duration": 4, "velocity": 90}, {"time": 3599, "pitch": 74, "duration": 3, "velocity": 92}, {"time": 3602, "pitch": 69, "duration": 5, "velocity": 98}, {"time": 3611, "pitch": 71, "duration": 4, "velocity": 89}, {"time": 3665, "pitch": 72, "duration": 1, "velocity": 88}, {"time": 3668, "pitch": 72, "duration": 1, "velocity": 88}, {"time": 3671, "pitch": 72, "duration": 4, "velocity": 88}, {"time": 3677, "pitch": 72, "duration": 2, "velocity": 87}, {"time": 3683, "pitch": 74, "duration": 6, "velocity": 102}, {"time": 3689, "pitch": 74, "duration": 4, "velocity": 96}, {"time": 3695, "pitch": 74, "duration": 4, "velocity": 108}, {"time": 3701, "pitch": 76, "duration": 5, "velocity": 107}, {"time": 3707, "pitch": 74, "duration": 4, "velocity": 108}, {"time": 3719, "pitch": 76, "duration": 9, "velocity": 114}, {"time": 3731, "pitch": 71, "duration": 6, "velocity": 102}, {"time": 3749, "pitch": 71, "duration": 6, "velocity": 104}, {"time": 3755, "pitch": 69, "duration": 5, "velocity": 96}, {"time": 3761, "pitch": 69, "duration": 4, "velocity": 102}, {"time": 3767, "pitch": 69, "duration": 5, "velocity": 104}, {"time": 3773, "pitch": 67, "duration": 4, "velocity": 102}, {"time": 3779, "pitch": 69, "duration": 4, "velocity": 102}, {"time": 3785, "pitch": 69, "duration": 1, "velocity": 87}, {"time": 3788, "pitch": 69, "duration": 2, "velocity": 88}, {"time": 3791, "pitch": 71, "duration": 3, "velocity": 92}, {"time": 3797, "pitch": 71, "duration": 6, "velocity": 94}, {"time": 3803, "pitch": 69, "duration": 5, "velocity": 91}, {"time": 3860, "pitch": 71, "duration": 2, "velocity": 88}, {"time": 3863, "pitch": 71, "duration": 2, "velocity": 88}, {"time": 3866, "pitch": 71, "duration": 4, "velocity": 91}, {"time": 3872, "pitch": 71, "duration": 4, "velocity": 89}, {"time": 3878, "pitch": 74, "duration": 4, "velocity": 104}, {"time": 3884, "pitch": 74, "duration": 2, "velocity": 93}, {"time": 3890, "pitch": 74, "duration": 3, "velocity": 104}, {"time": 3893, "pitch": 72, "duration": 5, "velocity": 100}, {"time": 3899, "pitch": 71, "duration": 4, "velocity": 110}, {"time": 3938, "pitch": 71, "duration": 5, "velocity": 107}, {"time": 3944, "pitch": 69, "duration": 6, "velocity": 92}, {"time": 3950, "pitch": 67, "duration": 5, "velocity": 98}, {"time": 3968, "pitch": 67, "duration": 4, "velocity": 94}, {"time": 3974, "pitch": 69, "duration": 4, "velocity": 88}, {"time": 3980, "pitch": 69, "duration": 1, "velocity": 88}, {"time": 3983, "pitch": 69, "duration": 8, "velocity": 89}, {"time": 3992, "pitch": 67, "duration": 4, "velocity": 87}, {"time": 3998, "pitch": 71, "duration": 5, "velocity": 93}, {"time": 4052, "pitch": 71, "duration": 2, "velocity": 94}, {"time": 4058, "pitch": 71, "duration": 3, "velocity": 98}, {"time": 4064, "pitch": 71, "duration": 3, "velocity": 93}, {"time": 4070, "pitch": 74, "duration": 4, "velocity": 100}, {"time": 4076, "pitch": 74, "duration": 3, "velocity": 93}, {"time": 4082, "pitch": 74, "duration": 4, "velocity": 93}, {"time": 4088, "pitch": 76, "duration": 2, "velocity": 88}, {"time": 4091, "pitch": 76, "duration": 4, "velocity": 92}, {"time": 4129, "pitch": 71, "duration": 5, "velocity": 100}, {"time": 4135, "pitch": 69, "duration": 5, "velocity": 93}, {"time": 4141, "pitch": 67, "duration": 5, "velocity": 98}, {"time": 4159, "pitch": 67, "duration": 1, "velocity": 91}, {"time": 4162, "pitch": 67, "duration": 1, "velocity": 89}, {"time": 4165, "pitch": 69, "duration": 3, "velocity": 102}, {"time": 4171, "pitch": 74, "duration": 5, "velocity": 108}, {"time": 4177, "pitch": 71, "duration": 6, "velocity": 91}, {"time": 4183, "pitch": 69, "duration": 5, "velocity": 86}, {"time": 4189, "pitch": 67, "duration": 4, "velocity": 88}, {"time": 4225, "pitch": 71, "duration": 5, "velocity": 100}, {"time": 4231, "pitch": 69, "duration": 5, "velocity": 93}, {"time": 4237, "pitch": 67, "duration": 5, "velocity": 98}, {"time": 4255, "pitch": 67, "duration": 1, "velocity": 91}, {"time": 4258, "pitch": 67, "duration": 1, "velocity": 89}, {"time": 4261, "pitch": 69, "duration": 3, "velocity": 102}, {"time": 4267, "pitch": 74, "duration": 5, "velocity": 108}, {"time": 4273, "pitch": 71, "duration": 6, "velocity": 91}, {"time": 4279, "pitch": 69, "duration": 5, "velocity": 86}, {"time": 4285, "pitch": 67, "duration": 4, "velocity": 88}]}, {"program": 0, "is_drum": false, "name": "PIANO", "notes": [{"time": 10, "pitch": 55, "duration": 23, "velocity": 92}, {"time": 16, "pitch": 62, "duration": 4, "velocity": 77}, {"time": 19, "pitch": 67, "duration": 6, "velocity": 87}, {"time": 25, "pitch": 79, "duration": 8, "velocity": 88}, {"time": 31, "pitch": 62, "duration": 3, "velocity": 82}, {"time": 34, "pitch": 50, "duration": 22, "velocity": 94}, {"time": 40, "pitch": 62, "duration": 4, "velocity": 79}, {"time": 43, "pitch": 66, "duration": 6, "velocity": 87}, {"time": 49, "pitch": 78, "duration": 6, "velocity": 88}, {"time": 55, "pitch": 62, "duration": 3, "velocity": 86}, {"time": 58, "pitch": 52, "duration": 8, "velocity": 104}, {"time": 64, "pitch": 59, "duration": 8, "velocity": 79}, {"time": 67, "pitch": 47, "duration": 6, "velocity": 97}, {"time": 67, "pitch": 64, "duration": 5, "velocity": 88}, {"time": 73, "pitch": 76, "duration": 5, "velocity": 74}, {"time": 76, "pitch": 50, "duration": 4, "velocity": 97}, {"time": 79, "pitch": 59, "duration": 7, "velocity": 86}, {"time": 82, "pitch": 52, "duration": 12, "velocity": 96}, {"time": 88, "pitch": 59, "duration": 3, "velocity": 81}, {"time": 91, "pitch": 62, "duration": 6, "velocity": 90}, {"time": 94, "pitch": 50, "duration": 11, "velocity": 97}, {"time": 97, "pitch": 67, "duration": 8, "velocity": 88}, {"time": 103, "pitch": 59, "duration": 2, "velocity": 84}, {"time": 106, "pitch": 55, "duration": 23, "velocity": 94}, {"time": 112, "pitch": 62, "duration": 3, "velocity": 83}, {"time": 115, "pitch": 67, "duration": 6, "velocity": 88}, {"time": 121, "pitch": 79, "duration": 9, "velocity": 90}, {"time": 127, "pitch": 62, "duration": 4, "velocity": 84}, {"time": 130, "pitch": 50, "duration": 21, "velocity": 92}, {"time": 136, "pitch": 62, "duration": 9, "velocity": 82}, {"time": 139, "pitch": 66, "duration": 6, "velocity": 87}, {"time": 145, "pitch": 78, "duration": 8, "velocity": 87}, {"time": 151, "pitch": 62, "duration": 3, "velocity": 77}, {"time": 154, "pitch": 52, "duration": 8, "velocity": 88}, {"time": 160, "pitch": 59, "duration": 8, "velocity": 74}, {"time": 163, "pitch": 47, "duration": 7, "velocity": 97}, {"time": 163, "pitch": 64, "duration": 6, "velocity": 87}, {"time": 169, "pitch": 76, "duration": 12, "velocity": 82}, {"time": 172, "pitch": 50, "duration": 5, "velocity": 97}, {"time": 175, "pitch": 59, "duration": 5, "velocity": 73}, {"time": 178, "pitch": 52, "duration": 12, "velocity": 89}, {"time": 184, "pitch": 59, "duration": 6, "velocity": 75}, {"time": 187, "pitch": 67, "duration": 3, "velocity": 81}, {"time": 190, "pitch": 50, "duration": 12, "velocity": 93}, {"time": 193, "pitch": 59, "duration": 3, "velocity": 81}, {"time": 196, "pitch": 62, "duration": 2, "velocity": 77}, {"time": 199, "pitch": 67, "duration": 3, "velocity": 88}, {"time": 202, "pitch": 48, "duration": 22, "velocity": 92}, {"time": 208, "pitch": 60, "duration": 3, "velocity": 74}, {"time": 211, "pitch": 67, "duration": 8, "velocity": 87}, {"time": 217, "pitch": 76, "duration": 4, "velocity": 81}, {"time": 220, "pitch": 64, "duration": 6, "velocity": 81}, {"time": 223, "pitch": 67, "duration": 6, "velocity": 88}, {"time": 226, "pitch": 50, "duration": 23, "velocity": 100}, {"time": 232, "pitch": 57, "duration": 7, "velocity": 78}, {"time": 235, "pitch": 62, "duration": 6, "velocity": 91}, {"time": 241, "pitch": 78, "duration": 7, "velocity": 85}, {"time": 244, "pitch": 57, "duration": 2, "velocity": 71}, {"time": 250, "pitch": 55, "duration": 11, "velocity": 98}, {"time": 250, "pitch": 79, "duration": 3, "velocity": 100}, {"time": 253, "pitch": 59, "duration": 3, "velocity": 84}, {"time": 256, "pitch": 64, "duration": 3, "velocity": 83}, {"time": 259, "pitch": 67, "duration": 4, "velocity": 88}, {"time": 262, "pitch": 54, "duration": 12, "velocity": 88}, {"time": 262, "pitch": 78, "duration": 3, "velocity": 93}, {"time": 265, "pitch": 59, "duration": 2, "velocity": 80}, {"time": 268, "pitch": 66, "duration": 3, "velocity": 83}, {"time": 271, "pitch": 67, "duration": 3, "velocity": 87}, {"time": 274, "pitch": 52, "duration": 12, "velocity": 88}, {"time": 274, "pitch": 76, "duration": 10, "velocity": 90}, {"time": 277, "pitch": 59, "duration": 1, "velocity": 97}, {"time": 280, "pitch": 64, "duration": 3, "velocity": 97}, {"time": 283, "pitch": 67, "duration": 1, "velocity": 97}, {"time": 286, "pitch": 50, "duration": 11, "velocity": 97}, {"time": 286, "pitch": 74, "duration": 6, "velocity": 86}, {"time": 289, "pitch": 57, "duration": 1, "velocity": 97}, {"time": 292, "pitch": 62, "duration": 2, "velocity": 97}, {"time": 295, "pitch": 66, "duration": 1, "velocity": 97}, {"time": 298, "pitch": 48, "duration": 21, "velocity": 96}, {"time": 298, "pitch": 72, "duration": 5, "velocity": 86}, {"time": 304, "pitch": 60, "duration": 3, "velocity": 71}, {"time": 307, "pitch": 67, "duration": 5, "velocity": 88}, {"time": 313, "pitch": 60, "duration": 4, "velocity": 78}, {"time": 316, "pitch": 64, "duration": 5, "velocity": 83}, {"time": 319, "pitch": 67, "duration": 4, "velocity": 86}, {"time": 322, "pitch": 50, "duration": 23, "velocity": 93}, {"time": 328, "pitch": 57, "duration": 4, "velocity": 78}, {"time": 331, "pitch": 66, "duration": 6, "velocity": 85}, {"time": 337, "pitch": 64, "duration": 7, "velocity": 82}, {"time": 346, "pitch": 55, "duration": 35, "velocity": 90}, {"time": 352, "pitch": 62, "duration": 2, "velocity": 72}, {"time": 355, "pitch": 71, "duration": 5, "velocity": 98}, {"time": 361, "pitch": 72, "duration": 7, "velocity": 96}, {"time": 370, "pitch": 62, "duration": 11, "velocity": 70}, {"time": 370, "pitch": 67, "duration": 2, "velocity": 79}, {"time": 370, "pitch": 71, "duration": 11, "velocity": 87}, {"time": 394, "pitch": 55, "duration": 25, "velocity": 88}, {"time": 400, "pitch": 62, "duration": 4, "velocity": 80}, {"time": 403, "pitch": 71, "duration": 13, "velocity": 90}, {"time": 412, "pitch": 62, "duration": 4, "velocity": 86}, {"time": 415, "pitch": 67, "duration": 3, "velocity": 81}, {"time": 418, "pitch": 50, "duration": 20, "velocity": 98}, {"time": 424, "pitch": 62, "duration": 4, "velocity": 79}, {"time": 427, "pitch": 69, "duration": 6, "velocity": 94}, {"time": 433, "pitch": 62, "duration": 6, "velocity": 78}, {"time": 436, "pitch": 66, "duration": 5, "velocity": 84}, {"time": 439, "pitch": 69, "duration": 3, "velocity": 84}, {"time": 442, "pitch": 52, "duration": 20, "velocity": 93}, {"time": 448, "pitch": 64, "duration": 2, "velocity": 76}, {"time": 451, "pitch": 71, "duration": 7, "velocity": 90}, {"time": 457, "pitch": 67, "duration": 9, "velocity": 82}, {"time": 460, "pitch": 64, "duration": 6, "velocity": 82}, {"time": 466, "pitch": 52, "duration": 24, "velocity": 91}, {"time": 472, "pitch": 64, "duration": 3, "velocity": 64}, {"time": 475, "pitch": 71, "duration": 8, "velocity": 93}, {"time": 481, "pitch": 67, "duration": 4, "velocity": 80}, {"time": 484, "pitch": 64, "duration": 4, "velocity": 65}, {"time": 490, "pitch": 48, "duration": 19, "velocity": 96}, {"time": 496, "pitch": 60, "duration": 3, "velocity": 70}, {"time": 499, "pitch": 67, "duration": 6, "velocity": 94}, {"time": 505, "pitch": 60, "duration": 4, "velocity": 77}, {"time": 508, "pitch": 64, "duration": 3, "velocity": 87}, {"time": 511, "pitch": 67, "duration": 3, "velocity": 86}, {"time": 514, "pitch": 50, "duration": 23, "velocity": 98}, {"time": 520, "pitch": 62, "duration": 4, "velocity": 75}, {"time": 523, "pitch": 69, "duration": 9, "velocity": 89}, {"time": 529, "pitch": 62, "duration": 4, "velocity": 82}, {"time": 532, "pitch": 66, "duration": 3, "velocity": 79}, {"time": 535, "pitch": 67, "duration": 2, "velocity": 65}, {"time": 538, "pitch": 55, "duration": 22, "velocity": 91}, {"time": 544, "pitch": 62, "duration": 2, "velocity": 74}, {"time": 547, "pitch": 69, "duration": 6, "velocity": 104}, {"time": 553, "pitch": 71, "duration": 11, "velocity": 90}, {"time": 562, "pitch": 55, "duration": 21, "velocity": 89}, {"time": 568, "pitch": 62, "duration": 2, "velocity": 78}, {"time": 571, "pitch": 69, "duration": 5, "velocity": 93}, {"time": 577, "pitch": 71, "duration": 9, "velocity": 88}, {"time": 583, "pitch": 62, "duration": 3, "velocity": 82}, {"time": 586, "pitch": 55, "duration": 24, "velocity": 100}, {"time": 592, "pitch": 62, "duration": 6, "velocity": 77}, {"time": 598, "pitch": 69, "duration": 5, "velocity": 90}, {"time": 604, "pitch": 62, "duration": 6, "velocity": 84}, {"time": 604, "pitch": 71, "duration": 1, "velocity": 77}, {"time": 607, "pitch": 71, "duration": 4, "velocity": 93}, {"time": 610, "pitch": 50, "duration": 22, "velocity": 102}, {"time": 616, "pitch": 62, "duration": 3, "velocity": 74}, {"time": 619, "pitch": 69, "duration": 6, "velocity": 102}, {"time": 625, "pitch": 62, "duration": 3, "velocity": 79}, {"time": 628, "pitch": 69, "duration": 5, "velocity": 83}, {"time": 631, "pitch": 62, "duration": 3, "velocity": 78}, {"time": 634, "pitch": 52, "duration": 22, "velocity": 94}, {"time": 640, "pitch": 67, "duration": 2, "velocity": 67}, {"time": 643, "pitch": 76, "duration": 11, "velocity": 96}, {"time": 649, "pitch": 67, "duration": 7, "velocity": 81}, {"time": 655, "pitch": 71, "duration": 3, "velocity": 83}, {"time": 658, "pitch": 52, "duration": 24, "velocity": 94}, {"time": 664, "pitch": 64, "duration": 2, "velocity": 72}, {"time": 667, "pitch": 71, "duration": 6, "velocity": 100}, {"time": 673, "pitch": 64, "duration": 3, "velocity": 77}, {"time": 676, "pitch": 67, "duration": 6, "velocity": 84}, {"time": 679, "pitch": 64, "duration": 2, "velocity": 79}, {"time": 682, "pitch": 48, "duration": 22, "velocity": 96}, {"time": 688, "pitch": 60, "duration": 3, "velocity": 75}, {"time": 691, "pitch": 67, "duration": 5, "velocity": 94}, {"time": 697, "pitch": 60, "duration": 4, "velocity": 79}, {"time": 700, "pitch": 64, "duration": 2, "velocity": 84}, {"time": 703, "pitch": 67, "duration": 3, "velocity": 85}, {"time": 706, "pitch": 50, "duration": 24, "velocity": 100}, {"time": 712, "pitch": 62, "duration": 3, "velocity": 75}, {"time": 715, "pitch": 69, "duration": 8, "velocity": 89}, {"time": 721, "pitch": 62, "duration": 4, "velocity": 80}, {"time": 724, "pitch": 66, "duration": 5, "velocity": 83}, {"time": 727, "pitch": 62, "duration": 3, "velocity": 84}, {"time": 730, "pitch": 55, "duration": 20, "velocity": 89}, {"time": 736, "pitch": 62, "duration": 2, "velocity": 84}, {"time": 739, "pitch": 69, "duration": 5, "velocity": 100}, {"time": 745, "pitch": 71, "duration": 8, "velocity": 93}, {"time": 754, "pitch": 55, "duration": 22, "velocity": 88}, {"time": 760, "pitch": 62, "duration": 2, "velocity": 73}, {"time": 763, "pitch": 69, "duration": 6, "velocity": 91}, {"time": 769, "pitch": 71, "duration": 3, "velocity": 88}, {"time": 772, "pitch": 67, "duration": 6, "velocity": 81}, {"time": 775, "pitch": 62, "duration": 3, "velocity": 77}, {"time": 778, "pitch": 48, "duration": 22, "velocity": 104}, {"time": 784, "pitch": 64, "duration": 5, "velocity": 72}, {"time": 787, "pitch": 67, "duration": 4, "velocity": 76}, {"time": 790, "pitch": 72, "duration": 11, "velocity": 96}, {"time": 796, "pitch": 64, "duration": 3, "velocity": 80}, {"time": 799, "pitch": 67, "duration": 3, "velocity": 87}, {"time": 802, "pitch": 50, "duration": 22, "velocity": 94}, {"time": 808, "pitch": 62, "duration": 4, "velocity": 77}, {"time": 811, "pitch": 69, "duration": 7, "velocity": 100}, {"time": 817, "pitch": 62, "duration": 6, "velocity": 78}, {"time": 820, "pitch": 66, "duration": 3, "velocity": 82}, {"time": 823, "pitch": 69, "duration": 3, "velocity": 86}, {"time": 826, "pitch": 55, "duration": 20, "velocity": 104}, {"time": 832, "pitch": 62, "duration": 5, "velocity": 80}, {"time": 838, "pitch": 71, "duration": 7, "velocity": 100}, {"time": 844, "pitch": 62, "duration": 2, "velocity": 83}, {"time": 847, "pitch": 67, "duration": 5, "velocity": 89}, {"time": 850, "pitch": 55, "duration": 23, "velocity": 96}, {"time": 853, "pitch": 62, "duration": 2, "velocity": 80}, {"time": 856, "pitch": 67, "duration": 3, "velocity": 81}, {"time": 859, "pitch": 71, "duration": 7, "velocity": 96}, {"time": 865, "pitch": 62, "duration": 3, "velocity": 81}, {"time": 868, "pitch": 67, "duration": 6, "velocity": 86}, {"time": 871, "pitch": 71, "duration": 3, "velocity": 90}, {"time": 874, "pitch": 48, "duration": 23, "velocity": 92}, {"time": 880, "pitch": 64, "duration": 4, "velocity": 82}, {"time": 883, "pitch": 67, "duration": 4, "velocity": 87}, {"time": 886, "pitch": 72, "duration": 8, "velocity": 100}, {"time": 892, "pitch": 64, "duration": 4, "velocity": 81}, {"time": 895, "pitch": 67, "duration": 6, "velocity": 92}, {"time": 898, "pitch": 50, "duration": 23, "velocity": 93}, {"time": 901, "pitch": 62, "duration": 5, "velocity": 81}, {"time": 904, "pitch": 66, "duration": 3, "velocity": 84}, {"time": 907, "pitch": 69, "duration": 7, "velocity": 96}, {"time": 913, "pitch": 62, "duration": 4, "velocity": 79}, {"time": 916, "pitch": 66, "duration": 5, "velocity": 84}, {"time": 919, "pitch": 69, "duration": 3, "velocity": 87}, {"time": 922, "pitch": 55, "duration": 22, "velocity": 104}, {"time": 928, "pitch": 62, "duration": 7, "velocity": 74}, {"time": 931, "pitch": 71, "duration": 6, "velocity": 90}, {"time": 937, "pitch": 62, "duration": 4, "velocity": 76}, {"time": 937, "pitch": 69, "duration": 5, "velocity": 76}, {"time": 943, "pitch": 62, "duration": 4, "velocity": 79}, {"time": 943, "pitch": 67, "duration": 6, "velocity": 87}, {"time": 946, "pitch": 55, "duration": 12, "velocity": 96}, {"time": 952, "pitch": 62, "duration": 9, "velocity": 82}, {"time": 955, "pitch": 67, "duration": 4, "velocity": 83}, {"time": 958, "pitch": 57, "duration": 6, "velocity": 107}, {"time": 964, "pitch": 59, "duration": 6, "velocity": 100}, {"time": 970, "pitch": 48, "duration": 22, "velocity": 102}, {"time": 976, "pitch": 60, "duration": 7, "velocity": 80}, {"time": 979, "pitch": 64, "duration": 3, "velocity": 78}, {"time": 982, "pitch": 67, "duration": 12, "velocity": 94}, {"time": 988, "pitch": 60, "duration": 4, "velocity": 77}, {"time": 991, "pitch": 64, "duration": 7, "velocity": 87}, {"time": 994, "pitch": 50, "duration": 24, "velocity": 96}, {"time": 1000, "pitch": 62, "duration": 3, "velocity": 79}, {"time": 1003, "pitch": 69, "duration": 9, "velocity": 100}, {"time": 1009, "pitch": 62, "duration": 4, "velocity": 83}, {"time": 1012, "pitch": 66, "duration": 5, "velocity": 80}, {"time": 1015, "pitch": 62, "duration": 3, "velocity": 84}, {"time": 1018, "pitch": 55, "duration": 11, "velocity": 104}, {"time": 1024, "pitch": 62, "duration": 3, "velocity": 83}, {"time": 1027, "pitch": 67, "duration": 8, "velocity": 87}, {"time": 1030, "pitch": 54, "duration": 13, "velocity": 103}, {"time": 1036, "pitch": 62, "duration": 3, "velocity": 84}, {"time": 1039, "pitch": 69, "duration": 4, "velocity": 87}, {"time": 1042, "pitch": 52, "duration": 23, "velocity": 94}, {"time": 1048, "pitch": 64, "duration": 3, "velocity": 76}, {"time": 1051, "pitch": 71, "duration": 11, "velocity": 85}, {"time": 1057, "pitch": 64, "duration": 4, "velocity": 78}, {"time": 1060, "pitch": 67, "duration": 5, "velocity": 83}, {"time": 1063, "pitch": 64, "duration": 3, "velocity": 80}, {"time": 1066, "pitch": 48, "duration": 18, "velocity": 91}, {"time": 1072, "pitch": 60, "duration": 3, "velocity": 77}, {"time": 1075, "pitch": 64, "duration": 6, "velocity": 87}, {"time": 1081, "pitch": 67, "duration": 9, "velocity": 85}, {"time": 1090, "pitch": 49, "duration": 21, "velocity": 109}, {"time": 1096, "pitch": 61, "duration": 4, "velocity": 81}, {"time": 1099, "pitch": 69, "duration": 9, "velocity": 91}, {"time": 1105, "pitch": 61, "duration": 3, "velocity": 81}, {"time": 1108, "pitch": 64, "duration": 2, "velocity": 86}, {"time": 1111, "pitch": 69, "duration": 5, "velocity": 91}, {"time": 1114, "pitch": 50, "duration": 20, "velocity": 108}, {"time": 1120, "pitch": 62, "duration": 3, "velocity": 81}, {"time": 1123, "pitch": 67, "duration": 5, "velocity": 107}, {"time": 1129, "pitch": 69, "duration": 27, "velocity": 96}, {"time": 1138, "pitch": 50, "duration": 19, "velocity": 83}, {"time": 1138, "pitch": 62, "duration": 19, "velocity": 77}, {"time": 1138, "pitch": 66, "duration": 19, "velocity": 85}, {"time": 1162, "pitch": 55, "duration": 24, "velocity": 100}, {"time": 1168, "pitch": 62, "duration": 3, "velocity": 77}, {"time": 1171, "pitch": 71, "duration": 9, "velocity": 88}, {"time": 1177, "pitch": 62, "duration": 3, "velocity": 81}, {"time": 1180, "pitch": 67, "duration": 6, "velocity": 84}, {"time": 1183, "pitch": 71, "duration": 4, "velocity": 87}, {"time": 1186, "pitch": 50, "duration": 22, "velocity": 102}, {"time": 1192, "pitch": 62, "duration": 3, "velocity": 84}, {"time": 1195, "pitch": 69, "duration": 5, "velocity": 100}, {"time": 1201, "pitch": 62, "duration": 6, "velocity": 81}, {"time": 1204, "pitch": 66, "duration": 5, "velocity": 84}, {"time": 1207, "pitch": 69, "duration": 4, "velocity": 83}, {"time": 1210, "pitch": 52, "duration": 22, "velocity": 100}, {"time": 1216, "pitch": 64, "duration": 2, "velocity": 81}, {"time": 1219, "pitch": 71, "duration": 6, "velocity": 102}, {"time": 1225, "pitch": 64, "duration": 4, "velocity": 84}, {"time": 1225, "pitch": 69, "duration": 6, "velocity": 87}, {"time": 1231, "pitch": 64, "duration": 5, "velocity": 88}, {"time": 1231, "pitch": 67, "duration": 8, "velocity": 91}, {"time": 1234, "pitch": 52, "duration": 24, "velocity": 98}, {"time": 1240, "pitch": 64, "duration": 2, "velocity": 81}, {"time": 1243, "pitch": 69, "duration": 6, "velocity": 110}, {"time": 1249, "pitch": 71, "duration": 7, "velocity": 94}, {"time": 1252, "pitch": 69, "duration": 6, "velocity": 87}, {"time": 1258, "pitch": 48, "duration": 21, "velocity": 100}, {"time": 1264, "pitch": 60, "duration": 3, "velocity": 84}, {"time": 1267, "pitch": 67, "duration": 5, "velocity": 88}, {"time": 1273, "pitch": 60, "duration": 3, "velocity": 84}, {"time": 1276, "pitch": 64, "duration": 2, "velocity": 87}, {"time": 1279, "pitch": 67, "duration": 6, "velocity": 89}, {"time": 1282, "pitch": 50, "duration": 24, "velocity": 94}, {"time": 1288, "pitch": 62, "duration": 3, "velocity": 81}, {"time": 1291, "pitch": 69, "duration": 9, "velocity": 98}, {"time": 1297, "pitch": 62, "duration": 4, "velocity": 76}, {"time": 1300, "pitch": 66, "duration": 3, "velocity": 84}, {"time": 1303, "pitch": 67, "duration": 3, "velocity": 86}, {"time": 1306, "pitch": 55, "duration": 21, "velocity": 90}, {"time": 1312, "pitch": 62, "duration": 5, "velocity": 80}, {"time": 1318, "pitch": 69, "duration": 5, "velocity": 107}, {"time": 1324, "pitch": 62, "duration": 2, "velocity": 80}, {"time": 1327, "pitch": 62, "duration": 7, "velocity": 91}, {"time": 1327, "pitch": 71, "duration": 8, "velocity": 100}, {"time": 1330, "pitch": 55, "duration": 14, "velocity": 93}, {"time": 1336, "pitch": 62, "duration": 1, "velocity": 82}, {"time": 1336, "pitch": 69, "duration": 1, "velocity": 80}, {"time": 1339, "pitch": 62, "duration": 7, "velocity": 104}, {"time": 1339, "pitch": 71, "duration": 7, "velocity": 108}, {"time": 1345, "pitch": 55, "duration": 7, "velocity": 84}, {"time": 1348, "pitch": 62, "duration": 7, "velocity": 85}, {"time": 1348, "pitch": 69, "duration": 3, "velocity": 87}, {"time": 1351, "pitch": 67, "duration": 4, "velocity": 84}, {"time": 1354, "pitch": 55, "duration": 23, "velocity": 108}, {"time": 1360, "pitch": 62, "duration": 5, "velocity": 84}, {"time": 1363, "pitch": 67, "duration": 3, "velocity": 81}, {"time": 1366, "pitch": 71, "duration": 6, "velocity": 107}, {"time": 1369, "pitch": 62, "duration": 3, "velocity": 75}, {"time": 1372, "pitch": 67, "duration": 9, "velocity": 84}, {"time": 1375, "pitch": 71, "duration": 6, "velocity": 89}, {"time": 1378, "pitch": 50, "duration": 22, "velocity": 92}, {"time": 1384, "pitch": 62, "duration": 3, "velocity": 81}, {"time": 1387, "pitch": 69, "duration": 6, "velocity": 102}, {"time": 1393, "pitch": 62, "duration": 4, "velocity": 80}, {"time": 1396, "pitch": 66, "duration": 5, "velocity": 85}, {"time": 1399, "pitch": 69, "duration": 4, "velocity": 86}, {"time": 1402, "pitch": 52, "duration": 22, "velocity": 98}, {"time": 1408, "pitch": 64, "duration": 2, "velocity": 79}, {"time": 1411, "pitch": 71, "duration": 5, "velocity": 108}, {"time": 1417, "pitch": 64, "duration": 4, "velocity": 86}, {"time": 1417, "pitch": 69, "duration": 5, "velocity": 91}, {"time": 1423, "pitch": 64, "duration": 6, "velocity": 91}, {"time": 1423, "pitch": 71, "duration": 6, "velocity": 92}, {"time": 1426, "pitch": 52, "duration": 24, "velocity": 102}, {"time": 1435, "pitch": 64, "duration": 5, "velocity": 104}, {"time": 1435, "pitch": 71, "duration": 5, "velocity": 107}, {"time": 1441, "pitch": 64, "duration": 4, "velocity": 88}, {"time": 1441, "pitch": 69, "duration": 5, "velocity": 92}, {"time": 1447, "pitch": 64, "duration": 3, "velocity": 86}, {"time": 1447, "pitch": 67, "duration": 3, "velocity": 89}, {"time": 1450, "pitch": 48, "duration": 22, "velocity": 102}, {"time": 1456, "pitch": 64, "duration": 4, "velocity": 84}, {"time": 1459, "pitch": 72, "duration": 8, "velocity": 107}, {"time": 1465, "pitch": 64, "duration": 4, "velocity": 81}, {"time": 1468, "pitch": 67, "duration": 7, "velocity": 89}, {"time": 1471, "pitch": 64, "duration": 3, "velocity": 86}, {"time": 1474, "pitch": 50, "duration": 14, "velocity": 92}, {"time": 1483, "pitch": 62, "duration": 7, "velocity": 88}, {"time": 1483, "pitch": 66, "duration": 7, "velocity": 93}, {"time": 1483, "pitch": 69, "duration": 7, "velocity": 94}, {"time": 1489, "pitch": 50, "duration": 8, "velocity": 85}, {"time": 1492, "pitch": 62, "duration": 6, "velocity": 86}, {"time": 1492, "pitch": 66, "duration": 6, "velocity": 88}, {"time": 1495, "pitch": 69, "duration": 2, "velocity": 46}, {"time": 1498, "pitch": 55, "duration": 22, "velocity": 93}, {"time": 1504, "pitch": 62, "duration": 2, "velocity": 79}, {"time": 1507, "pitch": 69, "duration": 5, "velocity": 107}, {"time": 1513, "pitch": 71, "duration": 8, "velocity": 90}, {"time": 1519, "pitch": 67, "duration": 5, "velocity": 84}, {"time": 1522, "pitch": 55, "duration": 19, "velocity": 94}, {"time": 1528, "pitch": 62, "duration": 3, "velocity": 81}, {"time": 1531, "pitch": 71, "duration": 5, "velocity": 87}, {"time": 1534, "pitch": 57, "duration": 5, "velocity": 102}, {"time": 1540, "pitch": 59, "duration": 6, "velocity": 100}, {"time": 1546, "pitch": 60, "duration": 21, "velocity": 108}, {"time": 1552, "pitch": 64, "duration": 4, "velocity": 79}, {"time": 1555, "pitch": 72, "duration": 13, "velocity": 96}, {"time": 1561, "pitch": 64, "duration": 4, "velocity": 81}, {"time": 1564, "pitch": 67, "duration": 6, "velocity": 84}, {"time": 1567, "pitch": 64, "duration": 4, "velocity": 80}, {"time": 1570, "pitch": 48, "duration": 21, "velocity": 91}, {"time": 1576, "pitch": 60, "duration": 15, "velocity": 81}, {"time": 1579, "pitch": 64, "duration": 7, "velocity": 78}, {"time": 1579, "pitch": 72, "duration": 12, "velocity": 100}, {"time": 1585, "pitch": 67, "duration": 4, "velocity": 80}, {"time": 1588, "pitch": 64, "duration": 3, "velocity": 83}, {"time": 1591, "pitch": 67, "duration": 3, "velocity": 85}, {"time": 1594, "pitch": 55, "duration": 22, "velocity": 94}, {"time": 1600, "pitch": 62, "duration": 3, "velocity": 79}, {"time": 1603, "pitch": 71, "duration": 5, "velocity": 102}, {"time": 1609, "pitch": 62, "duration": 5, "velocity": 82}, {"time": 1609, "pitch": 69, "duration": 5, "velocity": 82}, {"time": 1615, "pitch": 62, "duration": 7, "velocity": 87}, {"time": 1615, "pitch": 71, "duration": 7, "velocity": 91}, {"time": 1618, "pitch": 55, "duration": 24, "velocity": 98}, {"time": 1624, "pitch": 62, "duration": 2, "velocity": 81}, {"time": 1627, "pitch": 62, "duration": 6, "velocity": 100}, {"time": 1627, "pitch": 69, "duration": 5, "velocity": 113}, {"time": 1633, "pitch": 71, "duration": 4, "velocity": 88}, {"time": 1636, "pitch": 62, "duration": 1, "velocity": 77}, {"time": 1636, "pitch": 67, "duration": 6, "velocity": 86}, {"time": 1639, "pitch": 62, "duration": 1, "velocity": 74}, {"time": 1642, "pitch": 57, "duration": 24, "velocity": 108}, {"time": 1648, "pitch": 60, "duration": 2, "velocity": 81}, {"time": 1651, "pitch": 60, "duration": 6, "velocity": 88}, {"time": 1651, "pitch": 69, "duration": 6, "velocity": 92}, {"time": 1657, "pitch": 64, "duration": 15, "velocity": 91}, {"time": 1663, "pitch": 60, "duration": 6, "velocity": 87}, {"time": 1663, "pitch": 69, "duration": 7, "velocity": 89}, {"time": 1666, "pitch": 45, "duration": 19, "velocity": 89}, {"time": 1669, "pitch": 57, "duration": 20, "velocity": 87}, {"time": 1672, "pitch": 60, "duration": 2, "velocity": 81}, {"time": 1675, "pitch": 69, "duration": 8, "velocity": 104}, {"time": 1681, "pitch": 60, "duration": 4, "velocity": 80}, {"time": 1684, "pitch": 64, "duration": 6, "velocity": 78}, {"time": 1687, "pitch": 69, "duration": 7, "velocity": 88}, {"time": 1690, "pitch": 50, "duration": 21, "velocity": 107}, {"time": 1693, "pitch": 57, "duration": 8, "velocity": 84}, {"time": 1696, "pitch": 62, "duration": 2, "velocity": 81}, {"time": 1699, "pitch": 67, "duration": 7, "velocity": 117}, {"time": 1705, "pitch": 57, "duration": 9, "velocity": 90}, {"time": 1708, "pitch": 62, "duration": 4, "velocity": 86}, {"time": 1708, "pitch": 67, "duration": 3, "velocity": 98}, {"time": 1711, "pitch": 69, "duration": 10, "velocity": 91}, {"time": 1714, "pitch": 50, "duration": 22, "velocity": 96}, {"time": 1714, "pitch": 62, "duration": 7, "velocity": 96}, {"time": 1714, "pitch": 66, "duration": 8, "velocity": 100}, {"time": 1720, "pitch": 57, "duration": 6, "velocity": 87}, {"time": 1723, "pitch": 62, "duration": 7, "velocity": 100}, {"time": 1723, "pitch": 66, "duration": 7, "velocity": 106}, {"time": 1723, "pitch": 69, "duration": 6, "velocity": 102}, {"time": 1729, "pitch": 57, "duration": 8, "velocity": 90}, {"time": 1732, "pitch": 62, "duration": 5, "velocity": 88}, {"time": 1732, "pitch": 66, "duration": 6, "velocity": 91}, {"time": 1732, "pitch": 69, "duration": 6, "velocity": 89}, {"time": 1738, "pitch": 48, "duration": 22, "velocity": 110}, {"time": 1741, "pitch": 55, "duration": 10, "velocity": 87}, {"time": 1744, "pitch": 60, "duration": 2, "velocity": 81}, {"time": 1747, "pitch": 60, "duration": 9, "velocity": 89}, {"time": 1747, "pitch": 67, "duration": 9, "velocity": 107}, {"time": 1753, "pitch": 55, "duration": 10, "velocity": 88}, {"time": 1756, "pitch": 64, "duration": 3, "velocity": 74}, {"time": 1759, "pitch": 60, "duration": 7, "velocity": 83}, {"time": 1759, "pitch": 67, "duration": 8, "velocity": 82}, {"time": 1762, "pitch": 48, "duration": 21, "velocity": 92}, {"time": 1765, "pitch": 55, "duration": 11, "velocity": 87}, {"time": 1768, "pitch": 64, "duration": 12, "velocity": 78}, {"time": 1771, "pitch": 72, "duration": 10, "velocity": 100}, {"time": 1777, "pitch": 55, "duration": 7, "velocity": 86}, {"time": 1780, "pitch": 67, "duration": 6, "velocity": 83}, {"time": 1783, "pitch": 64, "duration": 3, "velocity": 86}, {"time": 1783, "pitch": 72, "duration": 3, "velocity": 82}, {"time": 1786, "pitch": 55, "duration": 12, "velocity": 107}, {"time": 1789, "pitch": 62, "duration": 4, "velocity": 84}, {"time": 1792, "pitch": 67, "duration": 8, "velocity": 84}, {"time": 1795, "pitch": 71, "duration": 5, "velocity": 98}, {"time": 1798, "pitch": 54, "duration": 13, "velocity": 95}, {"time": 1801, "pitch": 62, "duration": 6, "velocity": 83}, {"time": 1804, "pitch": 66, "duration": 7, "velocity": 87}, {"time": 1807, "pitch": 69, "duration": 4, "velocity": 91}, {"time": 1810, "pitch": 52, "duration": 24, "velocity": 104}, {"time": 1813, "pitch": 64, "duration": 4, "velocity": 86}, {"time": 1816, "pitch": 67, "duration": 3, "velocity": 87}, {"time": 1819, "pitch": 64, "duration": 8, "velocity": 90}, {"time": 1819, "pitch": 71, "duration": 7, "velocity": 104}, {"time": 1825, "pitch": 67, "duration": 5, "velocity": 83}, {"time": 1828, "pitch": 71, "duration": 6, "velocity": 88}, {"time": 1831, "pitch": 50, "duration": 3, "velocity": 90}, {"time": 1831, "pitch": 64, "duration": 2, "velocity": 75}, {"time": 1834, "pitch": 48, "duration": 20, "velocity": 104}, {"time": 1837, "pitch": 55, "duration": 10, "velocity": 86}, {"time": 1840, "pitch": 60, "duration": 2, "velocity": 78}, {"time": 1843, "pitch": 60, "duration": 11, "velocity": 88}, {"time": 1843, "pitch": 67, "duration": 9, "velocity": 96}, {"time": 1849, "pitch": 55, "duration": 9, "velocity": 86}, {"time": 1852, "pitch": 64, "duration": 9, "velocity": 80}, {"time": 1855, "pitch": 67, "duration": 6, "velocity": 83}, {"time": 1858, "pitch": 50, "duration": 19, "velocity": 96}, {"time": 1861, "pitch": 57, "duration": 10, "velocity": 84}, {"time": 1864, "pitch": 62, "duration": 2, "velocity": 83}, {"time": 1867, "pitch": 62, "duration": 6, "velocity": 88}, {"time": 1867, "pitch": 66, "duration": 7, "velocity": 95}, {"time": 1867, "pitch": 69, "duration": 6, "velocity": 93}, {"time": 1873, "pitch": 57, "duration": 4, "velocity": 87}, {"time": 1876, "pitch": 62, "duration": 7, "velocity": 88}, {"time": 1876, "pitch": 69, "duration": 6, "velocity": 89}, {"time": 1882, "pitch": 43, "duration": 20, "velocity": 92}, {"time": 1885, "pitch": 50, "duration": 22, "velocity": 84}, {"time": 1888, "pitch": 55, "duration": 6, "velocity": 84}, {"time": 1891, "pitch": 59, "duration": 10, "velocity": 89}, {"time": 1891, "pitch": 67, "duration": 8, "velocity": 89}, {"time": 1897, "pitch": 55, "duration": 5, "velocity": 86}, {"time": 1900, "pitch": 62, "duration": 6, "velocity": 82}, {"time": 1903, "pitch": 59, "duration": 1, "velocity": 74}, {"time": 1906, "pitch": 43, "duration": 16, "velocity": 87}, {"time": 1906, "pitch": 55, "duration": 16, "velocity": 88}, {"time": 1906, "pitch": 59, "duration": 15, "velocity": 86}, {"time": 1906, "pitch": 67, "duration": 16, "velocity": 88}, {"time": 1930, "pitch": 55, "duration": 25, "velocity": 88}, {"time": 1936, "pitch": 62, "duration": 4, "velocity": 80}, {"time": 1939, "pitch": 71, "duration": 13, "velocity": 90}, {"time": 1948, "pitch": 62, "duration": 4, "velocity": 86}, {"time": 1951, "pitch": 67, "duration": 3, "velocity": 81}, {"time": 1954, "pitch": 50, "duration": 20, "velocity": 98}, {"time": 1960, "pitch": 62, "duration": 4, "velocity": 79}, {"time": 1963, "pitch": 69, "duration": 6, "velocity": 94}, {"time": 1969, "pitch": 62, "duration": 6, "velocity": 78}, {"time": 1972, "pitch": 66, "duration": 5, "velocity": 84}, {"time": 1975, "pitch": 69, "duration": 3, "velocity": 84}, {"time": 1978, "pitch": 52, "duration": 20, "velocity": 93}, {"time": 1984, "pitch": 64, "duration": 2, "velocity": 76}, {"time": 1987, "pitch": 71, "duration": 7, "velocity": 90}, {"time": 1993, "pitch": 67, "duration": 9, "velocity": 82}, {"time": 1996, "pitch": 64, "duration": 6, "velocity": 82}, {"time": 2002, "pitch": 52, "duration": 24, "velocity": 91}, {"time": 2008, "pitch": 64, "duration": 3, "velocity": 64}, {"time": 2011, "pitch": 71, "duration": 8, "velocity": 93}, {"time": 2017, "pitch": 67, "duration": 4, "velocity": 80}, {"time": 2020, "pitch": 64, "duration": 4, "velocity": 65}, {"time": 2026, "pitch": 48, "duration": 19, "velocity": 96}, {"time": 2032, "pitch": 60, "duration": 3, "velocity": 70}, {"time": 2035, "pitch": 67, "duration": 6, "velocity": 94}, {"time": 2041, "pitch": 60, "duration": 4, "velocity": 77}, {"time": 2044, "pitch": 64, "duration": 3, "velocity": 87}, {"time": 2047, "pitch": 67, "duration": 3, "velocity": 86}, {"time": 2050, "pitch": 50, "duration": 23, "velocity": 98}, {"time": 2056, "pitch": 62, "duration": 4, "velocity": 75}, {"time": 2059, "pitch": 69, "duration": 9, "velocity": 89}, {"time": 2065, "pitch": 62, "duration": 4, "velocity": 82}, {"time": 2068, "pitch": 66, "duration": 3, "velocity": 79}, {"time": 2071, "pitch": 67, "duration": 2, "velocity": 65}, {"time": 2074, "pitch": 55, "duration": 22, "velocity": 91}, {"time": 2080, "pitch": 62, "duration": 2, "velocity": 74}, {"time": 2083, "pitch": 69, "duration": 6, "velocity": 104}, {"time": 2089, "pitch": 71, "duration": 11, "velocity": 90}, {"time": 2098, "pitch": 55, "duration": 21, "velocity": 89}, {"time": 2104, "pitch": 62, "duration": 2, "velocity": 78}, {"time": 2107, "pitch": 69, "duration": 5, "velocity": 93}, {"time": 2113, "pitch": 71, "duration": 9, "velocity": 88}, {"time": 2119, "pitch": 62, "duration": 3, "velocity": 82}, {"time": 2122, "pitch": 55, "duration": 24, "velocity": 100}, {"time": 2128, "pitch": 62, "duration": 6, "velocity": 77}, {"time": 2134, "pitch": 69, "duration": 5, "velocity": 90}, {"time": 2140, "pitch": 62, "duration": 6, "velocity": 84}, {"time": 2140, "pitch": 71, "duration": 1, "velocity": 77}, {"time": 2143, "pitch": 71, "duration": 4, "velocity": 93}, {"time": 2146, "pitch": 50, "duration": 22, "velocity": 102}, {"time": 2152, "pitch": 62, "duration": 3, "velocity": 74}, {"time": 2155, "pitch": 69, "duration": 6, "velocity": 102}, {"time": 2161, "pitch": 62, "duration": 3, "velocity": 79}, {"time": 2164, "pitch": 69, "duration": 5, "velocity": 83}, {"time": 2167, "pitch": 62, "duration": 3, "velocity": 78}, {"time": 2170, "pitch": 52, "duration": 22, "velocity": 94}, {"time": 2176, "pitch": 67, "duration": 2, "velocity": 67}, {"time": 2179, "pitch": 76, "duration": 11, "velocity": 96}, {"time": 2185, "pitch": 67, "duration": 7, "velocity": 81}, {"time": 2191, "pitch": 71, "duration": 3, "velocity": 83}, {"time": 2194, "pitch": 52, "duration": 24, "velocity": 94}, {"time": 2200, "pitch": 64, "duration": 2, "velocity": 72}, {"time": 2203, "pitch": 71, "duration": 6, "velocity": 100}, {"time": 2209, "pitch": 64, "duration": 3, "velocity": 77}, {"time": 2212, "pitch": 67, "duration": 6, "velocity": 84}, {"time": 2215, "pitch": 64, "duration": 2, "velocity": 79}, {"time": 2218, "pitch": 48, "duration": 22, "velocity": 96}, {"time": 2224, "pitch": 60, "duration": 3, "velocity": 75}, {"time": 2227, "pitch": 67, "duration": 5, "velocity": 94}, {"time": 2233, "pitch": 60, "duration": 4, "velocity": 79}, {"time": 2236, "pitch": 64, "duration": 2, "velocity": 84}, {"time": 2239, "pitch": 67, "duration": 3, "velocity": 85}, {"time": 2242, "pitch": 50, "duration": 24, "velocity": 100}, {"time": 2248, "pitch": 62, "duration": 3, "velocity": 75}, {"time": 2251, "pitch": 69, "duration": 8, "velocity": 89}, {"time": 2257, "pitch": 62, "duration": 4, "velocity": 80}, {"time": 2260, "pitch": 66, "duration": 5, "velocity": 83}, {"time": 2263, "pitch": 62, "duration": 3, "velocity": 84}, {"time": 2266, "pitch": 55, "duration": 20, "velocity": 89}, {"time": 2272, "pitch": 62, "duration": 2, "velocity": 84}, {"time": 2275, "pitch": 69, "duration": 5, "velocity": 100}, {"time": 2281, "pitch": 71, "duration": 8, "velocity": 93}, {"time": 2290, "pitch": 55, "duration": 22, "velocity": 88}, {"time": 2296, "pitch": 62, "duration": 2, "velocity": 73}, {"time": 2299, "pitch": 43, "duration": 3, "velocity": 100}, {"time": 2299, "pitch": 69, "duration": 6, "velocity": 91}, {"time": 2302, "pitch": 45, "duration": 6, "velocity": 98}, {"time": 2305, "pitch": 71, "duration": 3, "velocity": 88}, {"time": 2308, "pitch": 47, "duration": 6, "velocity": 98}, {"time": 2308, "pitch": 67, "duration": 6, "velocity": 81}, {"time": 2311, "pitch": 62, "duration": 3, "velocity": 77}, {"time": 2314, "pitch": 48, "duration": 10, "velocity": 88}, {"time": 2320, "pitch": 64, "duration": 1, "velocity": 84}, {"time": 2320, "pitch": 67, "duration": 1, "velocity": 88}, {"time": 2320, "pitch": 72, "duration": 1, "velocity": 86}, {"time": 2323, "pitch": 64, "duration": 4, "velocity": 91}, {"time": 2323, "pitch": 67, "duration": 4, "velocity": 100}, {"time": 2323, "pitch": 72, "duration": 4, "velocity": 89}, {"time": 2326, "pitch": 48, "duration": 7, "velocity": 93}, {"time": 2332, "pitch": 64, "duration": 5, "velocity": 100}, {"time": 2332, "pitch": 67, "duration": 5, "velocity": 107}, {"time": 2332, "pitch": 72, "duration": 5, "velocity": 91}, {"time": 2338, "pitch": 50, "duration": 10, "velocity": 89}, {"time": 2344, "pitch": 62, "duration": 1, "velocity": 92}, {"time": 2344, "pitch": 66, "duration": 1, "velocity": 95}, {"time": 2344, "pitch": 69, "duration": 1, "velocity": 92}, {"time": 2347, "pitch": 62, "duration": 5, "velocity": 102}, {"time": 2347, "pitch": 66, "duration": 5, "velocity": 106}, {"time": 2347, "pitch": 69, "duration": 5, "velocity": 100}, {"time": 2350, "pitch": 50, "duration": 11, "velocity": 91}, {"time": 2356, "pitch": 62, "duration": 6, "velocity": 92}, {"time": 2356, "pitch": 66, "duration": 6, "velocity": 103}, {"time": 2356, "pitch": 69, "duration": 6, "velocity": 100}, {"time": 2362, "pitch": 43, "duration": 10, "velocity": 86}, {"time": 2368, "pitch": 62, "duration": 1, "velocity": 93}, {"time": 2368, "pitch": 67, "duration": 1, "velocity": 94}, {"time": 2368, "pitch": 71, "duration": 1, "velocity": 88}, {"time": 2371, "pitch": 62, "duration": 4, "velocity": 104}, {"time": 2371, "pitch": 67, "duration": 4, "velocity": 107}, {"time": 2371, "pitch": 71, "duration": 4, "velocity": 94}, {"time": 2374, "pitch": 50, "duration": 11, "velocity": 93}, {"time": 2380, "pitch": 62, "duration": 1, "velocity": 94}, {"time": 2380, "pitch": 67, "duration": 1, "velocity": 96}, {"time": 2380, "pitch": 71, "duration": 1, "velocity": 91}, {"time": 2383, "pitch": 62, "duration": 5, "velocity": 98}, {"time": 2383, "pitch": 67, "duration": 5, "velocity": 107}, {"time": 2383, "pitch": 71, "duration": 5, "velocity": 96}, {"time": 2386, "pitch": 43, "duration": 8, "velocity": 94}, {"time": 2392, "pitch": 62, "duration": 1, "velocity": 91}, {"time": 2392, "pitch": 67, "duration": 1, "velocity": 91}, {"time": 2392, "pitch": 71, "duration": 1, "velocity": 87}, {"time": 2395, "pitch": 62, "duration": 6, "velocity": 94}, {"time": 2395, "pitch": 67, "duration": 7, "velocity": 100}, {"time": 2395, "pitch": 71, "duration": 7, "velocity": 91}, {"time": 2398, "pitch": 43, "duration": 2, "velocity": 102}, {"time": 2401, "pitch": 45, "duration": 4, "velocity": 83}, {"time": 2404, "pitch": 47, "duration": 5, "velocity": 110}, {"time": 2410, "pitch": 48, "duration": 11, "velocity": 108}, {"time": 2416, "pitch": 64, "duration": 1, "velocity": 94}, {"time": 2416, "pitch": 67, "duration": 1, "velocity": 98}, {"time": 2416, "pitch": 72, "duration": 1, "velocity": 89}, {"time": 2419, "pitch": 64, "duration": 1, "velocity": 94}, {"time": 2419, "pitch": 67, "duration": 1, "velocity": 107}, {"time": 2419, "pitch": 72, "duration": 1, "velocity": 90}, {"time": 2422, "pitch": 55, "duration": 9, "velocity": 100}, {"time": 2428, "pitch": 64, "duration": 1, "velocity": 96}, {"time": 2428, "pitch": 67, "duration": 1, "velocity": 107}, {"time": 2428, "pitch": 72, "duration": 1, "velocity": 91}, {"time": 2431, "pitch": 48, "duration": 2, "velocity": 91}, {"time": 2431, "pitch": 64, "duration": 1, "velocity": 98}, {"time": 2431, "pitch": 67, "duration": 1, "velocity": 108}, {"time": 2431, "pitch": 72, "duration": 1, "velocity": 89}, {"time": 2434, "pitch": 50, "duration": 7, "velocity": 117}, {"time": 2440, "pitch": 62, "duration": 1, "velocity": 90}, {"time": 2440, "pitch": 66, "duration": 1, "velocity": 89}, {"time": 2440, "pitch": 69, "duration": 1, "velocity": 90}, {"time": 2443, "pitch": 50, "duration": 2, "velocity": 92}, {"time": 2443, "pitch": 62, "duration": 3, "velocity": 92}, {"time": 2443, "pitch": 66, "duration": 3, "velocity": 95}, {"time": 2443, "pitch": 69, "duration": 3, "velocity": 93}, {"time": 2446, "pitch": 57, "duration": 8, "velocity": 113}, {"time": 2452, "pitch": 62, "duration": 4, "velocity": 100}, {"time": 2452, "pitch": 66, "duration": 4, "velocity": 106}, {"time": 2452, "pitch": 69, "duration": 4, "velocity": 107}, {"time": 2455, "pitch": 50, "duration": 3, "velocity": 91}, {"time": 2458, "pitch": 43, "duration": 9, "velocity": 102}, {"time": 2464, "pitch": 62, "duration": 1, "velocity": 89}, {"time": 2464, "pitch": 67, "duration": 1, "velocity": 92}, {"time": 2464, "pitch": 71, "duration": 1, "velocity": 89}, {"time": 2467, "pitch": 62, "duration": 1, "velocity": 102}, {"time": 2467, "pitch": 67, "duration": 3, "velocity": 108}, {"time": 2467, "pitch": 71, "duration": 2, "velocity": 94}, {"time": 2470, "pitch": 50, "duration": 7, "velocity": 94}, {"time": 2476, "pitch": 62, "duration": 1, "velocity": 96}, {"time": 2476, "pitch": 67, "duration": 1, "velocity": 98}, {"time": 2476, "pitch": 71, "duration": 2, "velocity": 92}, {"time": 2482, "pitch": 43, "duration": 6, "velocity": 96}, {"time": 2488, "pitch": 62, "duration": 1, "velocity": 89}, {"time": 2488, "pitch": 67, "duration": 4, "velocity": 91}, {"time": 2488, "pitch": 71, "duration": 4, "velocity": 89}, {"time": 2491, "pitch": 43, "duration": 2, "velocity": 92}, {"time": 2494, "pitch": 45, "duration": 6, "velocity": 107}, {"time": 2500, "pitch": 47, "duration": 6, "velocity": 100}, {"time": 2506, "pitch": 48, "duration": 11, "velocity": 96}, {"time": 2512, "pitch": 64, "duration": 1, "velocity": 92}, {"time": 2512, "pitch": 67, "duration": 1, "velocity": 107}, {"time": 2512, "pitch": 72, "duration": 1, "velocity": 90}, {"time": 2515, "pitch": 64, "duration": 1, "velocity": 108}, {"time": 2515, "pitch": 67, "duration": 1, "velocity": 114}, {"time": 2515, "pitch": 72, "duration": 2, "velocity": 93}, {"time": 2518, "pitch": 55, "duration": 11, "velocity": 100}, {"time": 2524, "pitch": 64, "duration": 1, "velocity": 98}, {"time": 2524, "pitch": 67, "duration": 1, "velocity": 94}, {"time": 2524, "pitch": 72, "duration": 1, "velocity": 91}, {"time": 2527, "pitch": 64, "duration": 2, "velocity": 98}, {"time": 2527, "pitch": 67, "duration": 2, "velocity": 113}, {"time": 2527, "pitch": 72, "duration": 3, "velocity": 91}, {"time": 2530, "pitch": 50, "duration": 7, "velocity": 98}, {"time": 2536, "pitch": 62, "duration": 1, "velocity": 98}, {"time": 2536, "pitch": 66, "duration": 1, "velocity": 97}, {"time": 2536, "pitch": 69, "duration": 1, "velocity": 91}, {"time": 2539, "pitch": 62, "duration": 3, "velocity": 102}, {"time": 2539, "pitch": 66, "duration": 3, "velocity": 109}, {"time": 2539, "pitch": 69, "duration": 3, "velocity": 104}, {"time": 2542, "pitch": 55, "duration": 7, "velocity": 104}, {"time": 2548, "pitch": 62, "duration": 4, "velocity": 96}, {"time": 2548, "pitch": 66, "duration": 4, "velocity": 103}, {"time": 2548, "pitch": 69, "duration": 4, "velocity": 100}, {"time": 2554, "pitch": 43, "duration": 10, "velocity": 92}, {"time": 2560, "pitch": 62, "duration": 1, "velocity": 89}, {"time": 2560, "pitch": 67, "duration": 1, "velocity": 98}, {"time": 2563, "pitch": 62, "duration": 3, "velocity": 93}, {"time": 2563, "pitch": 67, "duration": 4, "velocity": 102}, {"time": 2563, "pitch": 71, "duration": 3, "velocity": 94}, {"time": 2566, "pitch": 42, "duration": 12, "velocity": 90}, {"time": 2572, "pitch": 62, "duration": 1, "velocity": 87}, {"time": 2572, "pitch": 66, "duration": 1, "velocity": 86}, {"time": 2572, "pitch": 69, "duration": 1, "velocity": 88}, {"time": 2575, "pitch": 62, "duration": 3, "velocity": 87}, {"time": 2575, "pitch": 66, "duration": 4, "velocity": 89}, {"time": 2575, "pitch": 69, "duration": 4, "velocity": 88}, {"time": 2578, "pitch": 41, "duration": 10, "velocity": 86}, {"time": 2584, "pitch": 64, "duration": 1, "velocity": 84}, {"time": 2584, "pitch": 67, "duration": 1, "velocity": 85}, {"time": 2584, "pitch": 71, "duration": 1, "velocity": 86}, {"time": 2587, "pitch": 64, "duration": 4, "velocity": 88}, {"time": 2587, "pitch": 67, "duration": 6, "velocity": 92}, {"time": 2587, "pitch": 71, "duration": 4, "velocity": 89}, {"time": 2590, "pitch": 41, "duration": 7, "velocity": 88}, {"time": 2596, "pitch": 64, "duration": 5, "velocity": 88}, {"time": 2596, "pitch": 67, "duration": 6, "velocity": 94}, {"time": 2596, "pitch": 71, "duration": 5, "velocity": 88}, {"time": 2599, "pitch": 41, "duration": 2, "velocity": 91}, {"time": 2602, "pitch": 45, "duration": 10, "velocity": 96}, {"time": 2608, "pitch": 61, "duration": 1, "velocity": 86}, {"time": 2608, "pitch": 64, "duration": 1, "velocity": 88}, {"time": 2608, "pitch": 69, "duration": 1, "velocity": 89}, {"time": 2611, "pitch": 61, "duration": 3, "velocity": 86}, {"time": 2611, "pitch": 64, "duration": 4, "velocity": 96}, {"time": 2611, "pitch": 69, "duration": 3, "velocity": 98}, {"time": 2614, "pitch": 45, "duration": 6, "velocity": 91}, {"time": 2620, "pitch": 61, "duration": 3, "velocity": 95}, {"time": 2620, "pitch": 64, "duration": 4, "velocity": 98}, {"time": 2620, "pitch": 69, "duration": 4, "velocity": 96}, {"time": 2626, "pitch": 49, "duration": 9, "velocity": 106}, {"time": 2632, "pitch": 61, "duration": 1, "velocity": 84}, {"time": 2632, "pitch": 64, "duration": 1, "velocity": 86}, {"time": 2632, "pitch": 69, "duration": 1, "velocity": 86}, {"time": 2635, "pitch": 61, "duration": 3, "velocity": 86}, {"time": 2635, "pitch": 64, "duration": 4, "velocity": 94}, {"time": 2635, "pitch": 69, "duration": 3, "velocity": 89}, {"time": 2638, "pitch": 49, "duration": 8, "velocity": 106}, {"time": 2644, "pitch": 61, "duration": 3, "velocity": 103}, {"time": 2644, "pitch": 64, "duration": 8, "velocity": 91}, {"time": 2644, "pitch": 69, "duration": 3, "velocity": 94}, {"time": 2650, "pitch": 50, "duration": 9, "velocity": 88}, {"time": 2656, "pitch": 62, "duration": 1, "velocity": 92}, {"time": 2656, "pitch": 66, "duration": 1, "velocity": 103}, {"time": 2656, "pitch": 69, "duration": 1, "velocity": 93}, {"time": 2659, "pitch": 62, "duration": 6, "velocity": 91}, {"time": 2659, "pitch": 66, "duration": 6, "velocity": 95}, {"time": 2659, "pitch": 69, "duration": 5, "velocity": 93}, {"time": 2662, "pitch": 50, "duration": 7, "velocity": 89}, {"time": 2668, "pitch": 62, "duration": 5, "velocity": 102}, {"time": 2668, "pitch": 66, "duration": 5, "velocity": 103}, {"time": 2668, "pitch": 69, "duration": 5, "velocity": 94}, {"time": 2674, "pitch": 50, "duration": 19, "velocity": 77}, {"time": 2674, "pitch": 62, "duration": 18, "velocity": 77}, {"time": 2674, "pitch": 66, "duration": 19, "velocity": 77}, {"time": 2674, "pitch": 69, "duration": 19, "velocity": 81}, {"time": 2698, "pitch": 43, "duration": 6, "velocity": 96}, {"time": 2704, "pitch": 62, "duration": 4, "velocity": 92}, {"time": 2704, "pitch": 67, "duration": 6, "velocity": 100}, {"time": 2704, "pitch": 71, "duration": 5, "velocity": 98}, {"time": 2707, "pitch": 43, "duration": 1, "velocity": 96}, {"time": 2710, "pitch": 43, "duration": 6, "velocity": 98}, {"time": 2716, "pitch": 62, "duration": 6, "velocity": 90}, {"time": 2716, "pitch": 67, "duration": 6, "velocity": 96}, {"time": 2716, "pitch": 71, "duration": 6, "velocity": 91}, {"time": 2722, "pitch": 38, "duration": 7, "velocity": 94}, {"time": 2728, "pitch": 62, "duration": 8, "velocity": 88}, {"time": 2728, "pitch": 66, "duration": 9, "velocity": 88}, {"time": 2728, "pitch": 69, "duration": 9, "velocity": 87}, {"time": 2731, "pitch": 38, "duration": 1, "velocity": 107}, {"time": 2734, "pitch": 38, "duration": 3, "velocity": 110}, {"time": 2740, "pitch": 62, "duration": 6, "velocity": 94}, {"time": 2740, "pitch": 66, "duration": 7, "velocity": 91}, {"time": 2740, "pitch": 69, "duration": 9, "velocity": 104}, {"time": 2743, "pitch": 38, "duration": 3, "velocity": 98}, {"time": 2746, "pitch": 40, "duration": 7, "velocity": 108}, {"time": 2752, "pitch": 64, "duration": 4, "velocity": 93}, {"time": 2752, "pitch": 67, "duration": 4, "velocity": 96}, {"time": 2752, "pitch": 71, "duration": 4, "velocity": 88}, {"time": 2755, "pitch": 40, "duration": 1, "velocity": 97}, {"time": 2758, "pitch": 35, "duration": 6, "velocity": 108}, {"time": 2764, "pitch": 38, "duration": 3, "velocity": 97}, {"time": 2764, "pitch": 64, "duration": 6, "velocity": 100}, {"time": 2764, "pitch": 67, "duration": 6, "velocity": 108}, {"time": 2764, "pitch": 71, "duration": 5, "velocity": 102}, {"time": 2770, "pitch": 40, "duration": 7, "velocity": 107}, {"time": 2776, "pitch": 64, "duration": 5, "velocity": 92}, {"time": 2776, "pitch": 67, "duration": 5, "velocity": 98}, {"time": 2776, "pitch": 71, "duration": 5, "velocity": 92}, {"time": 2779, "pitch": 40, "duration": 1, "velocity": 97}, {"time": 2782, "pitch": 40, "duration": 10, "velocity": 104}, {"time": 2788, "pitch": 64, "duration": 5, "velocity": 88}, {"time": 2788, "pitch": 67, "duration": 6, "velocity": 94}, {"time": 2788, "pitch": 71, "duration": 5, "velocity": 91}, {"time": 2794, "pitch": 48, "duration": 7, "velocity": 110}, {"time": 2800, "pitch": 64, "duration": 7, "velocity": 91}, {"time": 2800, "pitch": 67, "duration": 7, "velocity": 96}, {"time": 2800, "pitch": 72, "duration": 7, "velocity": 88}, {"time": 2803, "pitch": 48, "duration": 1, "velocity": 114}, {"time": 2806, "pitch": 48, "duration": 4, "velocity": 104}, {"time": 2812, "pitch": 64, "duration": 6, "velocity": 98}, {"time": 2812, "pitch": 67, "duration": 6, "velocity": 107}, {"time": 2812, "pitch": 72, "duration": 7, "velocity": 93}, {"time": 2815, "pitch": 48, "duration": 2, "velocity": 107}, {"time": 2818, "pitch": 38, "duration": 6, "velocity": 114}, {"time": 2824, "pitch": 62, "duration": 9, "velocity": 89}, {"time": 2824, "pitch": 66, "duration": 9, "velocity": 91}, {"time": 2824, "pitch": 69, "duration": 9, "velocity": 88}, {"time": 2827, "pitch": 38, "duration": 3, "velocity": 102}, {"time": 2830, "pitch": 38, "duration": 7, "velocity": 104}, {"time": 2836, "pitch": 62, "duration": 6, "velocity": 88}, {"time": 2836, "pitch": 69, "duration": 7, "velocity": 91}, {"time": 2839, "pitch": 38, "duration": 2, "velocity": 94}, {"time": 2842, "pitch": 43, "duration": 7, "velocity": 98}, {"time": 2848, "pitch": 62, "duration": 5, "velocity": 102}, {"time": 2848, "pitch": 67, "duration": 5, "velocity": 104}, {"time": 2848, "pitch": 71, "duration": 5, "velocity": 96}, {"time": 2851, "pitch": 43, "duration": 1, "velocity": 97}, {"time": 2854, "pitch": 43, "duration": 9, "velocity": 89}, {"time": 2860, "pitch": 62, "duration": 4, "velocity": 98}, {"time": 2860, "pitch": 67, "duration": 6, "velocity": 98}, {"time": 2860, "pitch": 71, "duration": 6, "velocity": 92}, {"time": 2866, "pitch": 43, "duration": 7, "velocity": 89}, {"time": 2872, "pitch": 62, "duration": 5, "velocity": 94}, {"time": 2872, "pitch": 67, "duration": 5, "velocity": 98}, {"time": 2872, "pitch": 71, "duration": 5, "velocity": 94}, {"time": 2875, "pitch": 43, "duration": 1, "velocity": 97}, {"time": 2878, "pitch": 43, "duration": 9, "velocity": 96}, {"time": 2884, "pitch": 62, "duration": 2, "velocity": 96}, {"time": 2884, "pitch": 67, "duration": 3, "velocity": 100}, {"time": 2884, "pitch": 71, "duration": 3, "velocity": 93}, {"time": 2890, "pitch": 43, "duration": 6, "velocity": 107}, {"time": 2896, "pitch": 62, "duration": 4, "velocity": 102}, {"time": 2896, "pitch": 67, "duration": 4, "velocity": 107}, {"time": 2896, "pitch": 71, "duration": 4, "velocity": 98}, {"time": 2899, "pitch": 43, "duration": 1, "velocity": 97}, {"time": 2902, "pitch": 43, "duration": 11, "velocity": 107}, {"time": 2908, "pitch": 62, "duration": 3, "velocity": 89}, {"time": 2908, "pitch": 67, "duration": 4, "velocity": 94}, {"time": 2908, "pitch": 71, "duration": 4, "velocity": 91}, {"time": 2914, "pitch": 38, "duration": 8, "velocity": 90}, {"time": 2914, "pitch": 50, "duration": 8, "velocity": 93}, {"time": 2920, "pitch": 62, "duration": 6, "velocity": 91}, {"time": 2920, "pitch": 66, "duration": 7, "velocity": 97}, {"time": 2920, "pitch": 69, "duration": 6, "velocity": 96}, {"time": 2923, "pitch": 38, "duration": 1, "velocity": 77}, {"time": 2926, "pitch": 38, "duration": 3, "velocity": 88}, {"time": 2926, "pitch": 50, "duration": 3, "velocity": 90}, {"time": 2932, "pitch": 62, "duration": 6, "velocity": 89}, {"time": 2932, "pitch": 66, "duration": 6, "velocity": 95}, {"time": 2932, "pitch": 69, "duration": 5, "velocity": 91}, {"time": 2935, "pitch": 38, "duration": 1, "velocity": 97}, {"time": 2935, "pitch": 50, "duration": 1, "velocity": 86}, {"time": 2938, "pitch": 40, "duration": 6, "velocity": 86}, {"time": 2938, "pitch": 52, "duration": 6, "velocity": 90}, {"time": 2944, "pitch": 64, "duration": 9, "velocity": 88}, {"time": 2944, "pitch": 67, "duration": 9, "velocity": 87}, {"time": 2944, "pitch": 71, "duration": 8, "velocity": 88}, {"time": 2947, "pitch": 40, "duration": 1, "velocity": 90}, {"time": 2947, "pitch": 52, "duration": 1, "velocity": 88}, {"time": 2950, "pitch": 40, "duration": 7, "velocity": 91}, {"time": 2950, "pitch": 52, "duration": 7, "velocity": 94}, {"time": 2956, "pitch": 64, "duration": 9, "velocity": 93}, {"time": 2956, "pitch": 67, "duration": 8, "velocity": 91}, {"time": 2956, "pitch": 71, "duration": 8, "velocity": 93}, {"time": 2962, "pitch": 40, "duration": 7, "velocity": 89}, {"time": 2962, "pitch": 52, "duration": 7, "velocity": 96}, {"time": 2968, "pitch": 64, "duration": 6, "velocity": 104}, {"time": 2968, "pitch": 67, "duration": 6, "velocity": 102}, {"time": 2968, "pitch": 71, "duration": 5, "velocity": 102}, {"time": 2971, "pitch": 40, "duration": 1, "velocity": 97}, {"time": 2971, "pitch": 52, "duration": 3, "velocity": 97}, {"time": 2974, "pitch": 40, "duration": 6, "velocity": 86}, {"time": 2974, "pitch": 52, "duration": 5, "velocity": 81}, {"time": 2980, "pitch": 64, "duration": 5, "velocity": 94}, {"time": 2980, "pitch": 67, "duration": 5, "velocity": 92}, {"time": 2980, "pitch": 71, "duration": 5, "velocity": 92}, {"time": 2986, "pitch": 36, "duration": 9, "velocity": 89}, {"time": 2986, "pitch": 48, "duration": 8, "velocity": 89}, {"time": 2992, "pitch": 64, "duration": 4, "velocity": 93}, {"time": 2992, "pitch": 67, "duration": 4, "velocity": 104}, {"time": 2992, "pitch": 72, "duration": 4, "velocity": 91}, {"time": 2995, "pitch": 36, "duration": 1, "velocity": 97}, {"time": 2995, "pitch": 48, "duration": 1, "velocity": 97}, {"time": 2998, "pitch": 36, "duration": 6, "velocity": 94}, {"time": 2998, "pitch": 48, "duration": 6, "velocity": 90}, {"time": 3004, "pitch": 64, "duration": 5, "velocity": 96}, {"time": 3004, "pitch": 67, "duration": 5, "velocity": 104}, {"time": 3004, "pitch": 72, "duration": 6, "velocity": 91}, {"time": 3007, "pitch": 36, "duration": 1, "velocity": 91}, {"time": 3007, "pitch": 48, "duration": 1, "velocity": 96}, {"time": 3010, "pitch": 38, "duration": 7, "velocity": 98}, {"time": 3010, "pitch": 50, "duration": 7, "velocity": 100}, {"time": 3016, "pitch": 62, "duration": 8, "velocity": 91}, {"time": 3016, "pitch": 66, "duration": 9, "velocity": 97}, {"time": 3016, "pitch": 69, "duration": 8, "velocity": 90}, {"time": 3019, "pitch": 38, "duration": 1, "velocity": 107}, {"time": 3019, "pitch": 50, "duration": 1, "velocity": 96}, {"time": 3022, "pitch": 38, "duration": 3, "velocity": 102}, {"time": 3022, "pitch": 50, "duration": 3, "velocity": 91}, {"time": 3028, "pitch": 62, "duration": 6, "velocity": 98}, {"time": 3028, "pitch": 66, "duration": 7, "velocity": 106}, {"time": 3028, "pitch": 69, "duration": 7, "velocity": 104}, {"time": 3031, "pitch": 38, "duration": 1, "velocity": 89}, {"time": 3031, "pitch": 50, "duration": 1, "velocity": 90}, {"time": 3034, "pitch": 43, "duration": 7, "velocity": 87}, {"time": 3034, "pitch": 55, "duration": 8, "velocity": 84}, {"time": 3040, "pitch": 62, "duration": 5, "velocity": 90}, {"time": 3040, "pitch": 67, "duration": 5, "velocity": 91}, {"time": 3040, "pitch": 71, "duration": 4, "velocity": 89}, {"time": 3043, "pitch": 43, "duration": 1, "velocity": 97}, {"time": 3043, "pitch": 55, "duration": 1, "velocity": 97}, {"time": 3046, "pitch": 43, "duration": 9, "velocity": 83}, {"time": 3046, "pitch": 55, "duration": 9, "velocity": 80}, {"time": 3052, "pitch": 62, "duration": 6, "velocity": 92}, {"time": 3052, "pitch": 67, "duration": 6, "velocity": 100}, {"time": 3052, "pitch": 71, "duration": 6, "velocity": 92}, {"time": 3058, "pitch": 43, "duration": 3, "velocity": 81}, {"time": 3058, "pitch": 55, "duration": 3, "velocity": 77}, {"time": 3064, "pitch": 62, "duration": 3, "velocity": 94}, {"time": 3064, "pitch": 67, "duration": 3, "velocity": 96}, {"time": 3064, "pitch": 71, "duration": 4, "velocity": 89}, {"time": 3067, "pitch": 43, "duration": 3, "velocity": 87}, {"time": 3067, "pitch": 55, "duration": 3, "velocity": 88}, {"time": 3082, "pitch": 48, "duration": 7, "velocity": 102}, {"time": 3088, "pitch": 60, "duration": 6, "velocity": 96}, {"time": 3088, "pitch": 64, "duration": 6, "velocity": 108}, {"time": 3088, "pitch": 67, "duration": 4, "velocity": 100}, {"time": 3091, "pitch": 48, "duration": 1, "velocity": 97}, {"time": 3094, "pitch": 48, "duration": 10, "velocity": 91}, {"time": 3100, "pitch": 60, "duration": 9, "velocity": 92}, {"time": 3100, "pitch": 64, "duration": 9, "velocity": 107}, {"time": 3100, "pitch": 67, "duration": 7, "velocity": 92}, {"time": 3106, "pitch": 48, "duration": 7, "velocity": 90}, {"time": 3112, "pitch": 60, "duration": 6, "velocity": 94}, {"time": 3112, "pitch": 64, "duration": 5, "velocity": 107}, {"time": 3112, "pitch": 67, "duration": 5, "velocity": 100}, {"time": 3115, "pitch": 48, "duration": 1, "velocity": 97}, {"time": 3118, "pitch": 48, "duration": 11, "velocity": 89}, {"time": 3124, "pitch": 60, "duration": 5, "velocity": 93}, {"time": 3124, "pitch": 64, "duration": 5, "velocity": 104}, {"time": 3124, "pitch": 67, "duration": 5, "velocity": 98}, {"time": 3130, "pitch": 43, "duration": 7, "velocity": 87}, {"time": 3130, "pitch": 55, "duration": 8, "velocity": 92}, {"time": 3136, "pitch": 59, "duration": 6, "velocity": 92}, {"time": 3136, "pitch": 62, "duration": 6, "velocity": 102}, {"time": 3136, "pitch": 67, "duration": 5, "velocity": 94}, {"time": 3139, "pitch": 43, "duration": 1, "velocity": 97}, {"time": 3139, "pitch": 55, "duration": 1, "velocity": 97}, {"time": 3142, "pitch": 43, "duration": 9, "velocity": 87}, {"time": 3142, "pitch": 55, "duration": 9, "velocity": 88}, {"time": 3148, "pitch": 59, "duration": 6, "velocity": 92}, {"time": 3148, "pitch": 62, "duration": 6, "velocity": 107}, {"time": 3148, "pitch": 67, "duration": 6, "velocity": 96}, {"time": 3154, "pitch": 43, "duration": 7, "velocity": 88}, {"time": 3154, "pitch": 55, "duration": 8, "velocity": 91}, {"time": 3160, "pitch": 59, "duration": 6, "velocity": 94}, {"time": 3160, "pitch": 62, "duration": 6, "velocity": 108}, {"time": 3160, "pitch": 67, "duration": 5, "velocity": 96}, {"time": 3163, "pitch": 43, "duration": 1, "velocity": 97}, {"time": 3163, "pitch": 55, "duration": 1, "velocity": 97}, {"time": 3166, "pitch": 43, "duration": 6, "velocity": 88}, {"time": 3166, "pitch": 55, "duration": 7, "velocity": 92}, {"time": 3172, "pitch": 59, "duration": 5, "velocity": 93}, {"time": 3172, "pitch": 62, "duration": 6, "velocity": 110}, {"time": 3172, "pitch": 67, "duration": 5, "velocity": 100}, {"time": 3178, "pitch": 45, "duration": 7, "velocity": 89}, {"time": 3178, "pitch": 57, "duration": 8, "velocity": 89}, {"time": 3184, "pitch": 60, "duration": 6, "velocity": 89}, {"time": 3184, "pitch": 64, "duration": 6, "velocity": 100}, {"time": 3184, "pitch": 69, "duration": 5, "velocity": 92}, {"time": 3187, "pitch": 45, "duration": 1, "velocity": 97}, {"time": 3187, "pitch": 57, "duration": 1, "velocity": 97}, {"time": 3190, "pitch": 45, "duration": 10, "velocity": 86}, {"time": 3190, "pitch": 57, "duration": 10, "velocity": 89}, {"time": 3196, "pitch": 60, "duration": 6, "velocity": 92}, {"time": 3196, "pitch": 64, "duration": 6, "velocity": 104}, {"time": 3196, "pitch": 69, "duration": 6, "velocity": 92}, {"time": 3202, "pitch": 45, "duration": 7, "velocity": 85}, {"time": 3202, "pitch": 57, "duration": 8, "velocity": 87}, {"time": 3208, "pitch": 60, "duration": 6, "velocity": 89}, {"time": 3208, "pitch": 64, "duration": 7, "velocity": 104}, {"time": 3208, "pitch": 69, "duration": 6, "velocity": 90}, {"time": 3211, "pitch": 45, "duration": 1, "velocity": 97}, {"time": 3211, "pitch": 57, "duration": 1, "velocity": 97}, {"time": 3214, "pitch": 45, "duration": 10, "velocity": 87}, {"time": 3214, "pitch": 57, "duration": 9, "velocity": 91}, {"time": 3220, "pitch": 60, "duration": 3, "velocity": 90}, {"time": 3220, "pitch": 64, "duration": 5, "velocity": 102}, {"time": 3220, "pitch": 69, "duration": 4, "velocity": 90}, {"time": 3226, "pitch": 50, "duration": 7, "velocity": 93}, {"time": 3232, "pitch": 62, "duration": 7, "velocity": 96}, {"time": 3232, "pitch": 66, "duration": 7, "velocity": 97}, {"time": 3232, "pitch": 69, "duration": 7, "velocity": 94}, {"time": 3235, "pitch": 50, "duration": 1, "velocity": 97}, {"time": 3238, "pitch": 50, "duration": 10, "velocity": 89}, {"time": 3244, "pitch": 62, "duration": 6, "velocity": 98}, {"time": 3244, "pitch": 66, "duration": 5, "velocity": 103}, {"time": 3244, "pitch": 69, "duration": 5, "velocity": 100}, {"time": 3250, "pitch": 50, "duration": 7, "velocity": 93}, {"time": 3256, "pitch": 62, "duration": 6, "velocity": 93}, {"time": 3256, "pitch": 66, "duration": 6, "velocity": 100}, {"time": 3256, "pitch": 69, "duration": 5, "velocity": 98}, {"time": 3259, "pitch": 50, "duration": 1, "velocity": 97}, {"time": 3262, "pitch": 50, "duration": 10, "velocity": 90}, {"time": 3268, "pitch": 62, "duration": 3, "velocity": 94}, {"time": 3268, "pitch": 66, "duration": 4, "velocity": 103}, {"time": 3268, "pitch": 69, "duration": 4, "velocity": 98}, {"time": 3274, "pitch": 48, "duration": 7, "velocity": 94}, {"time": 3280, "pitch": 60, "duration": 5, "velocity": 91}, {"time": 3280, "pitch": 64, "duration": 6, "velocity": 102}, {"time": 3280, "pitch": 67, "duration": 5, "velocity": 100}, {"time": 3283, "pitch": 48, "duration": 1, "velocity": 97}, {"time": 3286, "pitch": 48, "duration": 10, "velocity": 88}, {"time": 3292, "pitch": 60, "duration": 6, "velocity": 91}, {"time": 3292, "pitch": 64, "duration": 6, "velocity": 100}, {"time": 3292, "pitch": 67, "duration": 6, "velocity": 94}, {"time": 3298, "pitch": 48, "duration": 7, "velocity": 91}, {"time": 3304, "pitch": 60, "duration": 6, "velocity": 91}, {"time": 3304, "pitch": 64, "duration": 7, "velocity": 98}, {"time": 3304, "pitch": 67, "duration": 6, "velocity": 96}, {"time": 3307, "pitch": 48, "duration": 1, "velocity": 97}, {"time": 3310, "pitch": 48, "duration": 7, "velocity": 93}, {"time": 3316, "pitch": 60, "duration": 5, "velocity": 91}, {"time": 3316, "pitch": 64, "duration": 6, "velocity": 98}, {"time": 3316, "pitch": 67, "duration": 6, "velocity": 92}, {"time": 3322, "pitch": 43, "duration": 7, "velocity": 91}, {"time": 3322, "pitch": 55, "duration": 7, "velocity": 96}, {"time": 3328, "pitch": 59, "duration": 3, "velocity": 87}, {"time": 3328, "pitch": 62, "duration": 4, "velocity": 104}, {"time": 3328, "pitch": 67, "duration": 4, "velocity": 89}, {"time": 3331, "pitch": 43, "duration": 1, "velocity": 97}, {"time": 3331, "pitch": 55, "duration": 1, "velocity": 97}, {"time": 3334, "pitch": 42, "duration": 8, "velocity": 90}, {"time": 3334, "pitch": 54, "duration": 7, "velocity": 88}, {"time": 3340, "pitch": 57, "duration": 2, "velocity": 88}, {"time": 3340, "pitch": 62, "duration": 2, "velocity": 98}, {"time": 3340, "pitch": 66, "duration": 3, "velocity": 87}, {"time": 3346, "pitch": 40, "duration": 7, "velocity": 88}, {"time": 3346, "pitch": 52, "duration": 7, "velocity": 87}, {"time": 3352, "pitch": 59, "duration": 6, "velocity": 96}, {"time": 3352, "pitch": 64, "duration": 6, "velocity": 98}, {"time": 3352, "pitch": 67, "duration": 6, "velocity": 94}, {"time": 3355, "pitch": 40, "duration": 1, "velocity": 97}, {"time": 3355, "pitch": 52, "duration": 1, "velocity": 97}, {"time": 3358, "pitch": 40, "duration": 6, "velocity": 91}, {"time": 3358, "pitch": 52, "duration": 8, "velocity": 96}, {"time": 3364, "pitch": 59, "duration": 1, "velocity": 98}, {"time": 3364, "pitch": 64, "duration": 1, "velocity": 104}, {"time": 3364, "pitch": 67, "duration": 1, "velocity": 93}, {"time": 3367, "pitch": 59, "duration": 1, "velocity": 90}, {"time": 3367, "pitch": 64, "duration": 2, "velocity": 102}, {"time": 3367, "pitch": 67, "duration": 2, "velocity": 92}, {"time": 3370, "pitch": 48, "duration": 7, "velocity": 98}, {"time": 3376, "pitch": 60, "duration": 6, "velocity": 96}, {"time": 3376, "pitch": 64, "duration": 7, "velocity": 107}, {"time": 3376, "pitch": 67, "duration": 6, "velocity": 100}, {"time": 3379, "pitch": 48, "duration": 1, "velocity": 97}, {"time": 3382, "pitch": 48, "duration": 10, "velocity": 90}, {"time": 3388, "pitch": 60, "duration": 1, "velocity": 90}, {"time": 3388, "pitch": 64, "duration": 1, "velocity": 100}, {"time": 3388, "pitch": 67, "duration": 1, "velocity": 89}, {"time": 3391, "pitch": 60, "duration": 3, "velocity": 96}, {"time": 3391, "pitch": 64, "duration": 3, "velocity": 107}, {"time": 3391, "pitch": 67, "duration": 3, "velocity": 100}, {"time": 3394, "pitch": 50, "duration": 7, "velocity": 102}, {"time": 3400, "pitch": 62, "duration": 7, "velocity": 98}, {"time": 3400, "pitch": 66, "duration": 7, "velocity": 106}, {"time": 3400, "pitch": 69, "duration": 7, "velocity": 102}, {"time": 3403, "pitch": 50, "duration": 1, "velocity": 97}, {"time": 3406, "pitch": 50, "duration": 11, "velocity": 94}, {"time": 3412, "pitch": 62, "duration": 1, "velocity": 90}, {"time": 3412, "pitch": 66, "duration": 1, "velocity": 97}, {"time": 3412, "pitch": 69, "duration": 1, "velocity": 89}, {"time": 3415, "pitch": 62, "duration": 3, "velocity": 98}, {"time": 3415, "pitch": 66, "duration": 3, "velocity": 106}, {"time": 3415, "pitch": 69, "duration": 3, "velocity": 98}, {"time": 3418, "pitch": 43, "duration": 7, "velocity": 87}, {"time": 3418, "pitch": 55, "duration": 10, "velocity": 93}, {"time": 3424, "pitch": 59, "duration": 5, "velocity": 90}, {"time": 3424, "pitch": 62, "duration": 6, "velocity": 102}, {"time": 3424, "pitch": 67, "duration": 6, "velocity": 92}, {"time": 3427, "pitch": 43, "duration": 1, "velocity": 97}, {"time": 3430, "pitch": 43, "duration": 6, "velocity": 89}, {"time": 3430, "pitch": 55, "duration": 9, "velocity": 92}, {"time": 3436, "pitch": 38, "duration": 4, "velocity": 97}, {"time": 3436, "pitch": 59, "duration": 5, "velocity": 90}, {"time": 3436, "pitch": 62, "duration": 6, "velocity": 102}, {"time": 3436, "pitch": 67, "duration": 6, "velocity": 92}, {"time": 3442, "pitch": 43, "duration": 20, "velocity": 93}, {"time": 3442, "pitch": 55, "duration": 20, "velocity": 98}, {"time": 3442, "pitch": 59, "duration": 19, "velocity": 108}, {"time": 3442, "pitch": 62, "duration": 19, "velocity": 116}, {"time": 3442, "pitch": 67, "duration": 1, "velocity": 108}, {"time": 3466, "pitch": 48, "duration": 10, "velocity": 88}, {"time": 3472, "pitch": 64, "duration": 1, "velocity": 84}, {"time": 3472, "pitch": 67, "duration": 1, "velocity": 88}, {"time": 3472, "pitch": 72, "duration": 2, "velocity": 86}, {"time": 3475, "pitch": 64, "duration": 4, "velocity": 91}, {"time": 3475, "pitch": 67, "duration": 5, "velocity": 100}, {"time": 3475, "pitch": 72, "duration": 4, "velocity": 89}, {"time": 3478, "pitch": 48, "duration": 7, "velocity": 93}, {"time": 3484, "pitch": 64, "duration": 5, "velocity": 100}, {"time": 3484, "pitch": 67, "duration": 6, "velocity": 107}, {"time": 3484, "pitch": 72, "duration": 5, "velocity": 91}, {"time": 3490, "pitch": 50, "duration": 10, "velocity": 89}, {"time": 3496, "pitch": 62, "duration": 1, "velocity": 92}, {"time": 3496, "pitch": 66, "duration": 1, "velocity": 95}, {"time": 3496, "pitch": 69, "duration": 1, "velocity": 92}, {"time": 3499, "pitch": 62, "duration": 5, "velocity": 102}, {"time": 3499, "pitch": 66, "duration": 6, "velocity": 106}, {"time": 3499, "pitch": 69, "duration": 5, "velocity": 100}, {"time": 3502, "pitch": 50, "duration": 11, "velocity": 91}, {"time": 3508, "pitch": 62, "duration": 6, "velocity": 92}, {"time": 3508, "pitch": 66, "duration": 6, "velocity": 103}, {"time": 3508, "pitch": 69, "duration": 7, "velocity": 100}, {"time": 3514, "pitch": 43, "duration": 10, "velocity": 86}, {"time": 3520, "pitch": 62, "duration": 1, "velocity": 93}, {"time": 3520, "pitch": 67, "duration": 1, "velocity": 94}, {"time": 3520, "pitch": 71, "duration": 1, "velocity": 88}, {"time": 3523, "pitch": 62, "duration": 4, "velocity": 104}, {"time": 3523, "pitch": 67, "duration": 4, "velocity": 107}, {"time": 3523, "pitch": 71, "duration": 5, "velocity": 94}, {"time": 3526, "pitch": 50, "duration": 11, "velocity": 93}, {"time": 3532, "pitch": 62, "duration": 1, "velocity": 94}, {"time": 3532, "pitch": 67, "duration": 1, "velocity": 96}, {"time": 3532, "pitch": 71, "duration": 1, "velocity": 91}, {"time": 3535, "pitch": 62, "duration": 6, "velocity": 98}, {"time": 3535, "pitch": 67, "duration": 6, "velocity": 107}, {"time": 3535, "pitch": 71, "duration": 5, "velocity": 96}, {"time": 3538, "pitch": 43, "duration": 9, "velocity": 94}, {"time": 3544, "pitch": 62, "duration": 1, "velocity": 91}, {"time": 3544, "pitch": 67, "duration": 1, "velocity": 91}, {"time": 3544, "pitch": 71, "duration": 1, "velocity": 87}, {"time": 3547, "pitch": 62, "duration": 6, "velocity": 94}, {"time": 3547, "pitch": 67, "duration": 7, "velocity": 100}, {"time": 3547, "pitch": 71, "duration": 7, "velocity": 91}, {"time": 3550, "pitch": 43, "duration": 3, "velocity": 102}, {"time": 3553, "pitch": 45, "duration": 4, "velocity": 83}, {"time": 3556, "pitch": 47, "duration": 6, "velocity": 110}, {"time": 3562, "pitch": 48, "duration": 11, "velocity": 108}, {"time": 3568, "pitch": 64, "duration": 1, "velocity": 94}, {"time": 3568, "pitch": 67, "duration": 1, "velocity": 98}, {"time": 3568, "pitch": 72, "duration": 1, "velocity": 89}, {"time": 3571, "pitch": 64, "duration": 1, "velocity": 94}, {"time": 3571, "pitch": 67, "duration": 1, "velocity": 107}, {"time": 3571, "pitch": 72, "duration": 2, "velocity": 90}, {"time": 3574, "pitch": 55, "duration": 10, "velocity": 100}, {"time": 3580, "pitch": 64, "duration": 1, "velocity": 96}, {"time": 3580, "pitch": 67, "duration": 1, "velocity": 107}, {"time": 3580, "pitch": 72, "duration": 1, "velocity": 91}, {"time": 3583, "pitch": 48, "duration": 3, "velocity": 91}, {"time": 3583, "pitch": 64, "duration": 1, "velocity": 98}, {"time": 3583, "pitch": 67, "duration": 1, "velocity": 108}, {"time": 3583, "pitch": 72, "duration": 2, "velocity": 89}, {"time": 3586, "pitch": 50, "duration": 7, "velocity": 117}, {"time": 3592, "pitch": 62, "duration": 1, "velocity": 90}, {"time": 3592, "pitch": 66, "duration": 1, "velocity": 89}, {"time": 3592, "pitch": 69, "duration": 1, "velocity": 90}, {"time": 3595, "pitch": 50, "duration": 3, "velocity": 92}, {"time": 3595, "pitch": 62, "duration": 4, "velocity": 92}, {"time": 3595, "pitch": 66, "duration": 4, "velocity": 95}, {"time": 3595, "pitch": 69, "duration": 3, "velocity": 93}, {"time": 3598, "pitch": 57, "duration": 8, "velocity": 113}, {"time": 3604, "pitch": 62, "duration": 4, "velocity": 100}, {"time": 3604, "pitch": 66, "duration": 4, "velocity": 106}, {"time": 3604, "pitch": 69, "duration": 5, "velocity": 107}, {"time": 3607, "pitch": 50, "duration": 3, "velocity": 91}, {"time": 3610, "pitch": 43, "duration": 10, "velocity": 102}, {"time": 3616, "pitch": 62, "duration": 1, "velocity": 89}, {"time": 3616, "pitch": 67, "duration": 1, "velocity": 92}, {"time": 3616, "pitch": 71, "duration": 1, "velocity": 89}, {"time": 3619, "pitch": 62, "duration": 1, "velocity": 102}, {"time": 3619, "pitch": 67, "duration": 3, "velocity": 108}, {"time": 3619, "pitch": 71, "duration": 3, "velocity": 94}, {"time": 3622, "pitch": 50, "duration": 7, "velocity": 94}, {"time": 3628, "pitch": 62, "duration": 1, "velocity": 96}, {"time": 3628, "pitch": 67, "duration": 1, "velocity": 98}, {"time": 3628, "pitch": 71, "duration": 2, "velocity": 92}, {"time": 3634, "pitch": 43, "duration": 7, "velocity": 96}, {"time": 3640, "pitch": 62, "duration": 2, "velocity": 89}, {"time": 3640, "pitch": 67, "duration": 4, "velocity": 91}, {"time": 3640, "pitch": 71, "duration": 4, "velocity": 89}, {"time": 3643, "pitch": 43, "duration": 2, "velocity": 92}, {"time": 3646, "pitch": 45, "duration": 6, "velocity": 107}, {"time": 3652, "pitch": 47, "duration": 6, "velocity": 100}, {"time": 3658, "pitch": 48, "duration": 11, "velocity": 96}, {"time": 3664, "pitch": 64, "duration": 1, "velocity": 92}, {"time": 3664, "pitch": 67, "duration": 1, "velocity": 107}, {"time": 3664, "pitch": 72, "duration": 1, "velocity": 90}, {"time": 3667, "pitch": 64, "duration": 1, "velocity": 108}, {"time": 3667, "pitch": 67, "duration": 1, "velocity": 114}, {"time": 3667, "pitch": 72, "duration": 2, "velocity": 93}, {"time": 3670, "pitch": 55, "duration": 11, "velocity": 100}, {"time": 3676, "pitch": 64, "duration": 1, "velocity": 98}, {"time": 3676, "pitch": 67, "duration": 1, "velocity": 94}, {"time": 3676, "pitch": 72, "duration": 1, "velocity": 91}, {"time": 3679, "pitch": 64, "duration": 2, "velocity": 98}, {"time": 3679, "pitch": 67, "duration": 3, "velocity": 113}, {"time": 3679, "pitch": 72, "duration": 3, "velocity": 91}, {"time": 3682, "pitch": 50, "duration": 7, "velocity": 98}, {"time": 3688, "pitch": 62, "duration": 1, "velocity": 98}, {"time": 3688, "pitch": 66, "duration": 1, "velocity": 97}, {"time": 3688, "pitch": 69, "duration": 1, "velocity": 91}, {"time": 3691, "pitch": 62, "duration": 4, "velocity": 102}, {"time": 3691, "pitch": 66, "duration": 4, "velocity": 109}, {"time": 3691, "pitch": 69, "duration": 4, "velocity": 104}, {"time": 3694, "pitch": 55, "duration": 7, "velocity": 104}, {"time": 3700, "pitch": 62, "duration": 4, "velocity": 96}, {"time": 3700, "pitch": 66, "duration": 5, "velocity": 103}, {"time": 3700, "pitch": 69, "duration": 4, "velocity": 100}, {"time": 3706, "pitch": 43, "duration": 10, "velocity": 92}, {"time": 3712, "pitch": 62, "duration": 1, "velocity": 89}, {"time": 3712, "pitch": 67, "duration": 1, "velocity": 98}, {"time": 3715, "pitch": 62, "duration": 4, "velocity": 93}, {"time": 3715, "pitch": 67, "duration": 4, "velocity": 102}, {"time": 3715, "pitch": 71, "duration": 4, "velocity": 94}, {"time": 3718, "pitch": 42, "duration": 12, "velocity": 90}, {"time": 3724, "pitch": 62, "duration": 1, "velocity": 87}, {"time": 3724, "pitch": 66, "duration": 1, "velocity": 86}, {"time": 3724, "pitch": 69, "duration": 2, "velocity": 88}, {"time": 3727, "pitch": 62, "duration": 3, "velocity": 87}, {"time": 3727, "pitch": 66, "duration": 4, "velocity": 89}, {"time": 3727, "pitch": 69, "duration": 4, "velocity": 88}, {"time": 3730, "pitch": 41, "duration": 11, "velocity": 86}, {"time": 3736, "pitch": 64, "duration": 1, "velocity": 84}, {"time": 3736, "pitch": 67, "duration": 1, "velocity": 85}, {"time": 3736, "pitch": 71, "duration": 1, "velocity": 86}, {"time": 3739, "pitch": 64, "duration": 5, "velocity": 88}, {"time": 3739, "pitch": 67, "duration": 6, "velocity": 92}, {"time": 3739, "pitch": 71, "duration": 5, "velocity": 89}, {"time": 3742, "pitch": 41, "duration": 8, "velocity": 88}, {"time": 3748, "pitch": 64, "duration": 6, "velocity": 88}, {"time": 3748, "pitch": 67, "duration": 6, "velocity": 94}, {"time": 3748, "pitch": 71, "duration": 6, "velocity": 88}, {"time": 3751, "pitch": 41, "duration": 2, "velocity": 91}, {"time": 3754, "pitch": 45, "duration": 10, "velocity": 96}, {"time": 3760, "pitch": 61, "duration": 1, "velocity": 86}, {"time": 3760, "pitch": 64, "duration": 1, "velocity": 88}, {"time": 3760, "pitch": 69, "duration": 1, "velocity": 89}, {"time": 3763, "pitch": 61, "duration": 4, "velocity": 86}, {"time": 3763, "pitch": 64, "duration": 5, "velocity": 96}, {"time": 3763, "pitch": 69, "duration": 4, "velocity": 98}, {"time": 3766, "pitch": 45, "duration": 7, "velocity": 91}, {"time": 3772, "pitch": 61, "duration": 3, "velocity": 95}, {"time": 3772, "pitch": 64, "duration": 5, "velocity": 98}, {"time": 3772, "pitch": 69, "duration": 4, "velocity": 96}, {"time": 3778, "pitch": 49, "duration": 10, "velocity": 106}, {"time": 3784, "pitch": 61, "duration": 1, "velocity": 84}, {"time": 3784, "pitch": 64, "duration": 1, "velocity": 86}, {"time": 3784, "pitch": 69, "duration": 1, "velocity": 86}, {"time": 3787, "pitch": 61, "duration": 3, "velocity": 86}, {"time": 3787, "pitch": 64, "duration": 4, "velocity": 94}, {"time": 3787, "pitch": 69, "duration": 3, "velocity": 89}, {"time": 3790, "pitch": 49, "duration": 9, "velocity": 106}, {"time": 3796, "pitch": 61, "duration": 3, "velocity": 103}, {"time": 3796, "pitch": 64, "duration": 8, "velocity": 91}, {"time": 3796, "pitch": 69, "duration": 4, "velocity": 94}, {"time": 3802, "pitch": 50, "duration": 10, "velocity": 88}, {"time": 3809, "pitch": 62, "duration": 1, "velocity": 92}, {"time": 3809, "pitch": 66, "duration": 2, "velocity": 103}, {"time": 3809, "pitch": 69, "duration": 1, "velocity": 93}, {"time": 3812, "pitch": 62, "duration": 6, "velocity": 91}, {"time": 3812, "pitch": 66, "duration": 7, "velocity": 95}, {"time": 3812, "pitch": 69, "duration": 5, "velocity": 93}, {"time": 3814, "pitch": 50, "duration": 7, "velocity": 89}, {"time": 3822, "pitch": 62, "duration": 5, "velocity": 102}, {"time": 3822, "pitch": 66, "duration": 5, "velocity": 103}, {"time": 3822, "pitch": 69, "duration": 5, "velocity": 94}, {"time": 3827, "pitch": 50, "duration": 19, "velocity": 77}, {"time": 3827, "pitch": 62, "duration": 19, "velocity": 77}, {"time": 3827, "pitch": 66, "duration": 19, "velocity": 77}, {"time": 3827, "pitch": 69, "duration": 19, "velocity": 81}, {"time": 3853, "pitch": 43, "duration": 9, "velocity": 87}, {"time": 3853, "pitch": 55, "duration": 9, "velocity": 88}, {"time": 3859, "pitch": 62, "duration": 1, "velocity": 88}, {"time": 3859, "pitch": 67, "duration": 1, "velocity": 88}, {"time": 3859, "pitch": 71, "duration": 1, "velocity": 88}, {"time": 3862, "pitch": 62, "duration": 3, "velocity": 91}, {"time": 3862, "pitch": 67, "duration": 3, "velocity": 92}, {"time": 3862, "pitch": 71, "duration": 2, "velocity": 89}, {"time": 3865, "pitch": 43, "duration": 6, "velocity": 89}, {"time": 3865, "pitch": 55, "duration": 6, "velocity": 88}, {"time": 3871, "pitch": 62, "duration": 7, "velocity": 89}, {"time": 3871, "pitch": 67, "duration": 7, "velocity": 88}, {"time": 3871, "pitch": 71, "duration": 7, "velocity": 89}, {"time": 3877, "pitch": 38, "duration": 9, "velocity": 92}, {"time": 3877, "pitch": 50, "duration": 10, "velocity": 88}, {"time": 3883, "pitch": 62, "duration": 1, "velocity": 90}, {"time": 3883, "pitch": 66, "duration": 1, "velocity": 87}, {"time": 3883, "pitch": 69, "duration": 1, "velocity": 88}, {"time": 3886, "pitch": 62, "duration": 6, "velocity": 88}, {"time": 3886, "pitch": 66, "duration": 6, "velocity": 89}, {"time": 3886, "pitch": 69, "duration": 6, "velocity": 89}, {"time": 3889, "pitch": 38, "duration": 6, "velocity": 96}, {"time": 3889, "pitch": 50, "duration": 7, "velocity": 94}, {"time": 3895, "pitch": 62, "duration": 5, "velocity": 88}, {"time": 3895, "pitch": 66, "duration": 6, "velocity": 93}, {"time": 3895, "pitch": 69, "duration": 6, "velocity": 91}, {"time": 3901, "pitch": 40, "duration": 9, "velocity": 92}, {"time": 3901, "pitch": 52, "duration": 10, "velocity": 88}, {"time": 3907, "pitch": 64, "duration": 1, "velocity": 88}, {"time": 3907, "pitch": 67, "duration": 1, "velocity": 89}, {"time": 3907, "pitch": 71, "duration": 1, "velocity": 88}, {"time": 3910, "pitch": 64, "duration": 4, "velocity": 89}, {"time": 3910, "pitch": 67, "duration": 3, "velocity": 92}, {"time": 3910, "pitch": 71, "duration": 3, "velocity": 91}, {"time": 3913, "pitch": 40, "duration": 9, "velocity": 88}, {"time": 3913, "pitch": 52, "duration": 10, "velocity": 88}, {"time": 3919, "pitch": 64, "duration": 1, "velocity": 91}, {"time": 3919, "pitch": 67, "duration": 1, "velocity": 96}, {"time": 3919, "pitch": 71, "duration": 1, "velocity": 87}, {"time": 3922, "pitch": 64, "duration": 4, "velocity": 90}, {"time": 3922, "pitch": 67, "duration": 4, "velocity": 92}, {"time": 3922, "pitch": 71, "duration": 4, "velocity": 90}, {"time": 3925, "pitch": 40, "duration": 10, "velocity": 88}, {"time": 3925, "pitch": 52, "duration": 10, "velocity": 89}, {"time": 3931, "pitch": 64, "duration": 1, "velocity": 88}, {"time": 3931, "pitch": 67, "duration": 1, "velocity": 88}, {"time": 3931, "pitch": 71, "duration": 1, "velocity": 88}, {"time": 3934, "pitch": 64, "duration": 4, "velocity": 91}, {"time": 3934, "pitch": 67, "duration": 4, "velocity": 93}, {"time": 3934, "pitch": 71, "duration": 4, "velocity": 92}, {"time": 3937, "pitch": 40, "duration": 5, "velocity": 94}, {"time": 3937, "pitch": 52, "duration": 5, "velocity": 96}, {"time": 3943, "pitch": 64, "duration": 5, "velocity": 88}, {"time": 3943, "pitch": 67, "duration": 5, "velocity": 92}, {"time": 3943, "pitch": 71, "duration": 5, "velocity": 89}, {"time": 3949, "pitch": 36, "duration": 9, "velocity": 94}, {"time": 3949, "pitch": 48, "duration": 9, "velocity": 91}, {"time": 3955, "pitch": 64, "duration": 1, "velocity": 92}, {"time": 3955, "pitch": 67, "duration": 1, "velocity": 100}, {"time": 3955, "pitch": 72, "duration": 1, "velocity": 88}, {"time": 3958, "pitch": 64, "duration": 6, "velocity": 91}, {"time": 3958, "pitch": 67, "duration": 5, "velocity": 96}, {"time": 3958, "pitch": 72, "duration": 4, "velocity": 89}, {"time": 3961, "pitch": 36, "duration": 6, "velocity": 100}, {"time": 3961, "pitch": 48, "duration": 6, "velocity": 100}, {"time": 3967, "pitch": 64, "duration": 1, "velocity": 91}, {"time": 3967, "pitch": 67, "duration": 1, "velocity": 98}, {"time": 3967, "pitch": 72, "duration": 1, "velocity": 88}, {"time": 3970, "pitch": 64, "duration": 3, "velocity": 90}, {"time": 3970, "pitch": 67, "duration": 3, "velocity": 102}, {"time": 3970, "pitch": 72, "duration": 4, "velocity": 88}, {"time": 3973, "pitch": 38, "duration": 9, "velocity": 107}, {"time": 3973, "pitch": 50, "duration": 9, "velocity": 91}, {"time": 3979, "pitch": 62, "duration": 1, "velocity": 86}, {"time": 3979, "pitch": 66, "duration": 1, "velocity": 85}, {"time": 3979, "pitch": 69, "duration": 1, "velocity": 87}, {"time": 3982, "pitch": 62, "duration": 3, "velocity": 88}, {"time": 3982, "pitch": 66, "duration": 4, "velocity": 90}, {"time": 3982, "pitch": 69, "duration": 6, "velocity": 88}, {"time": 3985, "pitch": 38, "duration": 5, "velocity": 104}, {"time": 3985, "pitch": 50, "duration": 6, "velocity": 90}, {"time": 3991, "pitch": 62, "duration": 6, "velocity": 89}, {"time": 3991, "pitch": 66, "duration": 6, "velocity": 100}, {"time": 3991, "pitch": 69, "duration": 6, "velocity": 91}, {"time": 3997, "pitch": 43, "duration": 9, "velocity": 94}, {"time": 3997, "pitch": 55, "duration": 9, "velocity": 98}, {"time": 4003, "pitch": 62, "duration": 1, "velocity": 90}, {"time": 4003, "pitch": 67, "duration": 1, "velocity": 88}, {"time": 4003, "pitch": 71, "duration": 1, "velocity": 87}, {"time": 4006, "pitch": 62, "duration": 2, "velocity": 91}, {"time": 4006, "pitch": 67, "duration": 3, "velocity": 93}, {"time": 4006, "pitch": 71, "duration": 3, "velocity": 88}, {"time": 4009, "pitch": 43, "duration": 9, "velocity": 88}, {"time": 4009, "pitch": 55, "duration": 9, "velocity": 89}, {"time": 4015, "pitch": 62, "duration": 1, "velocity": 96}, {"time": 4015, "pitch": 67, "duration": 1, "velocity": 96}, {"time": 4015, "pitch": 71, "duration": 1, "velocity": 90}, {"time": 4021, "pitch": 43, "duration": 8, "velocity": 88}, {"time": 4021, "pitch": 55, "duration": 9, "velocity": 88}, {"time": 4027, "pitch": 62, "duration": 1, "velocity": 86}, {"time": 4027, "pitch": 67, "duration": 1, "velocity": 83}, {"time": 4027, "pitch": 71, "duration": 1, "velocity": 86}, {"time": 4030, "pitch": 62, "duration": 3, "velocity": 89}, {"time": 4030, "pitch": 67, "duration": 3, "velocity": 91}, {"time": 4030, "pitch": 71, "duration": 3, "velocity": 89}, {"time": 4033, "pitch": 43, "duration": 7, "velocity": 92}, {"time": 4033, "pitch": 55, "duration": 7, "velocity": 89}, {"time": 4039, "pitch": 62, "duration": 5, "velocity": 90}, {"time": 4039, "pitch": 67, "duration": 5, "velocity": 91}, {"time": 4039, "pitch": 71, "duration": 5, "velocity": 88}, {"time": 4045, "pitch": 43, "duration": 9, "velocity": 100}, {"time": 4045, "pitch": 55, "duration": 9, "velocity": 89}, {"time": 4051, "pitch": 62, "duration": 1, "velocity": 89}, {"time": 4051, "pitch": 67, "duration": 1, "velocity": 90}, {"time": 4051, "pitch": 71, "duration": 1, "velocity": 85}, {"time": 4054, "pitch": 62, "duration": 3, "velocity": 90}, {"time": 4054, "pitch": 67, "duration": 3, "velocity": 91}, {"time": 4054, "pitch": 71, "duration": 3, "velocity": 91}, {"time": 4057, "pitch": 43, "duration": 8, "velocity": 90}, {"time": 4057, "pitch": 55, "duration": 7, "velocity": 93}, {"time": 4063, "pitch": 62, "duration": 1, "velocity": 94}, {"time": 4063, "pitch": 67, "duration": 1, "velocity": 102}, {"time": 4063, "pitch": 71, "duration": 1, "velocity": 98}, {"time": 4066, "pitch": 62, "duration": 2, "velocity": 91}, {"time": 4066, "pitch": 67, "duration": 2, "velocity": 94}, {"time": 4066, "pitch": 71, "duration": 2, "velocity": 91}, {"time": 4069, "pitch": 38, "duration": 9, "velocity": 88}, {"time": 4069, "pitch": 50, "duration": 9, "velocity": 90}, {"time": 4075, "pitch": 62, "duration": 1, "velocity": 87}, {"time": 4075, "pitch": 66, "duration": 1, "velocity": 87}, {"time": 4075, "pitch": 69, "duration": 1, "velocity": 88}, {"time": 4078, "pitch": 62, "duration": 4, "velocity": 89}, {"time": 4078, "pitch": 66, "duration": 4, "velocity": 90}, {"time": 4078, "pitch": 69, "duration": 4, "velocity": 92}, {"time": 4081, "pitch": 38, "duration": 7, "velocity": 92}, {"time": 4081, "pitch": 50, "duration": 7, "velocity": 96}, {"time": 4087, "pitch": 62, "duration": 4, "velocity": 88}, {"time": 4087, "pitch": 66, "duration": 5, "velocity": 93}, {"time": 4087, "pitch": 69, "duration": 5, "velocity": 94}, {"time": 4093, "pitch": 40, "duration": 8, "velocity": 100}, {"time": 4093, "pitch": 52, "duration": 9, "velocity": 89}, {"time": 4099, "pitch": 64, "duration": 1, "velocity": 86}, {"time": 4099, "pitch": 67, "duration": 1, "velocity": 87}, {"time": 4099, "pitch": 71, "duration": 1, "velocity": 84}, {"time": 4102, "pitch": 64, "duration": 4, "velocity": 89}, {"time": 4102, "pitch": 67, "duration": 4, "velocity": 94}, {"time": 4102, "pitch": 71, "duration": 4, "velocity": 93}, {"time": 4105, "pitch": 40, "duration": 9, "velocity": 90}, {"time": 4105, "pitch": 52, "duration": 10, "velocity": 94}, {"time": 4111, "pitch": 64, "duration": 1, "velocity": 91}, {"time": 4111, "pitch": 67, "duration": 1, "velocity": 93}, {"time": 4111, "pitch": 71, "duration": 1, "velocity": 88}, {"time": 4114, "pitch": 64, "duration": 4, "velocity": 89}, {"time": 4114, "pitch": 67, "duration": 3, "velocity": 94}, {"time": 4114, "pitch": 71, "duration": 4, "velocity": 92}, {"time": 4117, "pitch": 40, "duration": 9, "velocity": 94}, {"time": 4117, "pitch": 52, "duration": 9, "velocity": 94}, {"time": 4123, "pitch": 64, "duration": 1, "velocity": 87}, {"time": 4123, "pitch": 67, "duration": 1, "velocity": 86}, {"time": 4123, "pitch": 71, "duration": 1, "velocity": 83}, {"time": 4126, "pitch": 64, "duration": 5, "velocity": 90}, {"time": 4126, "pitch": 67, "duration": 3, "velocity": 96}, {"time": 4126, "pitch": 71, "duration": 4, "velocity": 92}, {"time": 4129, "pitch": 40, "duration": 6, "velocity": 96}, {"time": 4129, "pitch": 52, "duration": 5, "velocity": 93}, {"time": 4135, "pitch": 64, "duration": 5, "velocity": 89}, {"time": 4135, "pitch": 67, "duration": 5, "velocity": 91}, {"time": 4135, "pitch": 71, "duration": 5, "velocity": 91}, {"time": 4141, "pitch": 36, "duration": 9, "velocity": 83}, {"time": 4141, "pitch": 48, "duration": 9, "velocity": 92}, {"time": 4147, "pitch": 60, "duration": 1, "velocity": 89}, {"time": 4147, "pitch": 64, "duration": 1, "velocity": 92}, {"time": 4150, "pitch": 60, "duration": 4, "velocity": 88}, {"time": 4150, "pitch": 64, "duration": 4, "velocity": 94}, {"time": 4150, "pitch": 67, "duration": 4, "velocity": 93}, {"time": 4153, "pitch": 36, "duration": 6, "velocity": 90}, {"time": 4153, "pitch": 48, "duration": 6, "velocity": 96}, {"time": 4159, "pitch": 60, "duration": 5, "velocity": 91}, {"time": 4159, "pitch": 64, "duration": 5, "velocity": 98}, {"time": 4159, "pitch": 67, "duration": 5, "velocity": 89}, {"time": 4165, "pitch": 38, "duration": 8, "velocity": 107}, {"time": 4165, "pitch": 50, "duration": 9, "velocity": 92}, {"time": 4171, "pitch": 62, "duration": 1, "velocity": 88}, {"time": 4171, "pitch": 66, "duration": 1, "velocity": 90}, {"time": 4171, "pitch": 69, "duration": 1, "velocity": 90}, {"time": 4174, "pitch": 62, "duration": 6, "velocity": 91}, {"time": 4174, "pitch": 66, "duration": 4, "velocity": 95}, {"time": 4174, "pitch": 69, "duration": 4, "velocity": 98}, {"time": 4177, "pitch": 38, "duration": 5, "velocity": 102}, {"time": 4177, "pitch": 50, "duration": 6, "velocity": 100}, {"time": 4183, "pitch": 62, "duration": 5, "velocity": 89}, {"time": 4183, "pitch": 66, "duration": 5, "velocity": 93}, {"time": 4183, "pitch": 69, "duration": 5, "velocity": 91}, {"time": 4189, "pitch": 43, "duration": 8, "velocity": 89}, {"time": 4189, "pitch": 55, "duration": 9, "velocity": 91}, {"time": 4195, "pitch": 59, "duration": 1, "velocity": 87}, {"time": 4195, "pitch": 62, "duration": 1, "velocity": 87}, {"time": 4195, "pitch": 67, "duration": 1, "velocity": 87}, {"time": 4198, "pitch": 59, "duration": 3, "velocity": 86}, {"time": 4198, "pitch": 62, "duration": 4, "velocity": 88}, {"time": 4198, "pitch": 67, "duration": 4, "velocity": 88}, {"time": 4201, "pitch": 43, "duration": 10, "velocity": 88}, {"time": 4201, "pitch": 55, "duration": 10, "velocity": 87}, {"time": 4207, "pitch": 59, "duration": 1, "velocity": 89}, {"time": 4207, "pitch": 62, "duration": 1, "velocity": 90}, {"time": 4207, "pitch": 67, "duration": 1, "velocity": 88}, {"time": 4210, "pitch": 59, "duration": 3, "velocity": 91}, {"time": 4210, "pitch": 62, "duration": 5, "velocity": 100}, {"time": 4210, "pitch": 67, "duration": 5, "velocity": 91}, {"time": 4213, "pitch": 43, "duration": 9, "velocity": 90}, {"time": 4213, "pitch": 55, "duration": 9, "velocity": 91}, {"time": 4219, "pitch": 59, "duration": 1, "velocity": 84}, {"time": 4219, "pitch": 62, "duration": 1, "velocity": 86}, {"time": 4219, "pitch": 67, "duration": 1, "velocity": 86}, {"time": 4222, "pitch": 59, "duration": 3, "velocity": 86}, {"time": 4222, "pitch": 62, "duration": 5, "velocity": 91}, {"time": 4222, "pitch": 67, "duration": 4, "velocity": 89}, {"time": 4225, "pitch": 43, "duration": 6, "velocity": 88}, {"time": 4225, "pitch": 55, "duration": 5, "velocity": 98}, {"time": 4231, "pitch": 59, "duration": 4, "velocity": 89}, {"time": 4231, "pitch": 62, "duration": 6, "velocity": 92}, {"time": 4231, "pitch": 67, "duration": 6, "velocity": 90}, {"time": 4237, "pitch": 36, "duration": 9, "velocity": 102}, {"time": 4237, "pitch": 48, "duration": 9, "velocity": 88}, {"time": 4243, "pitch": 60, "duration": 1, "velocity": 85}, {"time": 4243, "pitch": 64, "duration": 1, "velocity": 87}, {"time": 4243, "pitch": 67, "duration": 1, "velocity": 84}, {"time": 4246, "pitch": 60, "duration": 4, "velocity": 87}, {"time": 4246, "pitch": 64, "duration": 4, "velocity": 89}, {"time": 4246, "pitch": 67, "duration": 5, "velocity": 90}, {"time": 4249, "pitch": 36, "duration": 6, "velocity": 96}, {"time": 4249, "pitch": 48, "duration": 6, "velocity": 92}, {"time": 4255, "pitch": 60, "duration": 5, "velocity": 91}, {"time": 4255, "pitch": 64, "duration": 6, "velocity": 98}, {"time": 4255, "pitch": 67, "duration": 6, "velocity": 90}, {"time": 4261, "pitch": 38, "duration": 9, "velocity": 107}, {"time": 4261, "pitch": 50, "duration": 9, "velocity": 91}, {"time": 4267, "pitch": 62, "duration": 1, "velocity": 87}, {"time": 4267, "pitch": 66, "duration": 1, "velocity": 84}, {"time": 4267, "pitch": 69, "duration": 1, "velocity": 87}, {"time": 4270, "pitch": 62, "duration": 6, "velocity": 87}, {"time": 4270, "pitch": 66, "duration": 7, "velocity": 86}, {"time": 4270, "pitch": 69, "duration": 5, "velocity": 89}, {"time": 4273, "pitch": 38, "duration": 5, "velocity": 96}, {"time": 4273, "pitch": 50, "duration": 5, "velocity": 93}, {"time": 4279, "pitch": 62, "duration": 6, "velocity": 89}, {"time": 4279, "pitch": 66, "duration": 6, "velocity": 103}, {"time": 4279, "pitch": 69, "duration": 6, "velocity": 91}, {"time": 4285, "pitch": 43, "duration": 9, "velocity": 92}, {"time": 4285, "pitch": 55, "duration": 9, "velocity": 91}, {"time": 4291, "pitch": 59, "duration": 1, "velocity": 86}, {"time": 4291, "pitch": 62, "duration": 1, "velocity": 87}, {"time": 4291, "pitch": 67, "duration": 1, "velocity": 86}, {"time": 4294, "pitch": 59, "duration": 3, "velocity": 81}, {"time": 4294, "pitch": 62, "duration": 5, "velocity": 85}, {"time": 4294, "pitch": 67, "duration": 4, "velocity": 81}, {"time": 4297, "pitch": 43, "duration": 7, "velocity": 84}, {"time": 4297, "pitch": 55, "duration": 7, "velocity": 88}, {"time": 4303, "pitch": 59, "duration": 5, "velocity": 87}, {"time": 4303, "pitch": 62, "duration": 6, "velocity": 88}, {"time": 4303, "pitch": 67, "duration": 6, "velocity": 88}, {"time": 4309, "pitch": 43, "duration": 7, "velocity": 92}, {"time": 4309, "pitch": 55, "duration": 7, "velocity": 94}, {"time": 4318, "pitch": 43, "duration": 1, "velocity": 85}, {"time": 4321, "pitch": 45, "duration": 5, "velocity": 108}, {"time": 4327, "pitch": 47, "duration": 4, "velocity": 107}, {"time": 4333, "pitch": 48, "duration": 20, "velocity": 88}, {"time": 4339, "pitch": 60, "duration": 10, "velocity": 70}, {"time": 4342, "pitch": 67, "duration": 8, "velocity": 86}, {"time": 4348, "pitch": 64, "duration": 9, "velocity": 81}, {"time": 4357, "pitch": 50, "duration": 23, "velocity": 88}, {"time": 4363, "pitch": 62, "duration": 17, "velocity": 73}, {"time": 4366, "pitch": 66, "duration": 6, "velocity": 86}, {"time": 4372, "pitch": 69, "duration": 7, "velocity": 86}, {"time": 4381, "pitch": 53, "duration": 23, "velocity": 94}, {"time": 4387, "pitch": 60, "duration": 19, "velocity": 65}, {"time": 4390, "pitch": 65, "duration": 16, "velocity": 82}, {"time": 4396, "pitch": 69, "duration": 9, "velocity": 84}, {"time": 4405, "pitch": 53, "duration": 25, "velocity": 86}, {"time": 4411, "pitch": 60, "duration": 17, "velocity": 71}, {"time": 4414, "pitch": 65, "duration": 15, "velocity": 79}, {"time": 4420, "pitch": 69, "duration": 8, "velocity": 78}, {"time": 4448, "pitch": 55, "duration": 60, "velocity": 90}, {"time": 4450, "pitch": 62, "duration": 50, "velocity": 38}, {"time": 4451, "pitch": 67, "duration": 43, "velocity": 68}, {"time": 4453, "pitch": 71, "duration": 41, "velocity": 65}], "annotations": [{"time": 10, "annotation": {"number": 64, "value": 127}, "group": "control_change"}, {"time": 32, "annotation": {"number": 64, "value": 74}, "group": "control_change"}, {"time": 32, "annotation": {"number": 64, "value": 0}, "group": "control_change"}, {"time": 34, "annotation": {"number": 64, "value": 127}, "group": "control_change"}, {"time": 57, "annotation": {"number": 64, "value": 0}, "group": "control_change"}, {"time": 58, "annotation": {"number": 64, "value": 127}, "group": "control_change"}, {"time": 81, "annotation": {"number": 64, "value": 74}, "group": "control_change"}, {"time": 81, "annotation": {"number": 64, "value": 0}, "group": "control_change"}, {"time": 82, "annotation": {"number": 64, "value": 127}, "group": "control_change"}, {"time": 104, "annotation": {"number": 64, "value": 38}, "group": "control_change"}, {"time": 104, "annotation": {"number": 64, "value": 0}, "group": "control_change"}, {"time": 106, "annotation": {"number": 64, "value": 127}, "group": "control_change"}, {"time": 128, "annotation": {"number": 64, "value": 74}, "group": "control_change"}, {"time": 128, "annotation": {"number": 64, "value": 0}, "group": "control_change"}, {"time": 130, "annotation": {"number": 64, "value": 127}, "group": "control_change"}, {"time": 152, "annotation": {"number": 64, "value": 38}, "group": "control_change"}, {"time": 152, "annotation": {"number": 64, "value": 0}, "group": "control_change"}, {"time": 154, "annotation": {"number": 64, "value": 127}, "group": "control_change"}, {"time": 175, "annotation": {"number": 64, "value": 38}, "group": "control_change"}, {"time": 176, "annotation": {"number": 64, "value": 0}, "group": "control_change"}, {"time": 177, "annotation": {"number": 64, "value": 127}, "group": "control_change"}, {"time": 200, "annotation": {"number": 64, "value": 38}, "group": "control_change"}, {"time": 200, "annotation": {"number": 64, "value": 0}, "group": "control_change"}, {"time": 202, "annotation": {"number": 64, "value": 127}, "group": "control_change"}, {"time": 224, "annotation": {"number": 64, "value": 38}, "group": "control_change"}, {"time": 224, "annotation": {"number": 64, "value": 0}, "group": "control_change"}, {"time": 226, "annotation": {"number": 64, "value": 38}, "group": "control_change"}, {"time": 226, "annotation": {"number": 64, "value": 127}, "group": "control_change"}, {"time": 248, "annotation": {"number": 64, "value": 0}, "group": "control_change"}, {"time": 250, "annotation": {"number": 64, "value": 127}, "group": "control_change"}, {"time": 259, "annotation": {"number": 64, "value": 74}, "group": "control_change"}, {"time": 259, "annotation": {"number": 64, "value": 0}, "group": "control_change"}, {"time": 260, "annotation": {"number": 64, "value": 38}, "group": "control_change"}, {"time": 260, "annotation": {"number": 64, "value": 0}, "group": "control_change"}, {"time": 262, "annotation": {"number": 64, "value": 127}, "group": "control_change"}, {"time": 271, "annotation": {"number": 64, "value": 38}, "group": "control_change"}, {"time": 271, "annotation": {"number": 64, "value": 0}, "group": "control_change"}, {"time": 272, "annotation": {"number": 64, "value": 38}, "group": "control_change"}, {"time": 272, "annotation": {"number": 64, "value": 0}, "group": "control_change"}, {"time": 274, "annotation": {"number": 64, "value": 127}, "group": "control_change"}, {"time": 275, "annotation": {"number": 64, "value": 127}, "group": "control_change"}, {"time": 295, "annotation": {"number": 64, "value": 74}, "group": "control_change"}, {"time": 295, "annotation": {"number": 64, "value": 0}, "group": "control_change"}, {"time": 296, "annotation": {"number": 64, "value": 74}, "group": "control_change"}, {"time": 296, "annotation": {"number": 64, "value": 0}, "group": "control_change"}, {"time": 298, "annotation": {"number": 64, "value": 127}, "group": "control_change"}, {"time": 306, "annotation": {"number": 64, "value": 0}, "group": "control_change"}, {"time": 308, "annotation": {"number": 64, "value": 74}, "group": "control_change"}, {"time": 308, "annotation": {"number": 64, "value": 0}, "group": "control_change"}, {"time": 320, "annotation": {"number": 64, "value": 74}, "group": "control_change"}, {"time": 320, "annotation": {"number": 64, "value": 0}, "group": "control_change"}, {"time": 322, "annotation": {"number": 64, "value": 127}, "group": "control_change"}, {"time": 344, "annotation": {"number": 64, "value": 0}, "group": "control_change"}, {"time": 346, "annotation": {"number": 64, "value": 127}, "group": "control_change"}, {"time": 347, "annotation": {"number": 64, "value": 127}, "group": "control_change"}, {"time": 367, "annotation": {"number": 64, "value": 0}, "group": "control_change"}, {"time": 368, "annotation": {"number": 64, "value": 74}, "group": "control_change"}, {"time": 368, "annotation": {"number": 64, "value": 0}, "group": "control_change"}, {"time": 370, "annotation": {"number": 64, "value": 127}, "group": "control_change"}, {"time": 386, "annotation": {"number": 64, "value": 74}, "group": "control_change"}, {"time": 386, "annotation": {"number": 64, "value": 0}, "group": "control_change"}, {"time": 389, "annotation": {"number": 64, "value": 74}, "group": "control_change"}, {"time": 389, "annotation": {"number": 64, "value": 38}, "group": "control_change"}, {"time": 389, "annotation": {"number": 64, "value": 0}, "group": "control_change"}, {"time": 394, "annotation": {"number": 64, "value": 74}, "group": "control_change"}, {"time": 394, "annotation": {"number": 64, "value": 127}, "group": "control_change"}, {"time": 416, "annotation": {"number": 64, "value": 74}, "group": "control_change"}, {"time": 416, "annotation": {"number": 64, "value": 0}, "group": "control_change"}, {"time": 418, "annotation": {"number": 64, "value": 74}, "group": "control_change"}, {"time": 418, "annotation": {"number": 64, "value": 127}, "group": "control_change"}, {"time": 440, "annotation": {"number": 64, "value": 38}, "group": "control_change"}, {"time": 440, "annotation": {"number": 64, "value": 0}, "group": "control_change"}, {"time": 442, "annotation": {"number": 64, "value": 127}, "group": "control_change"}, {"time": 464, "annotation": {"number": 64, "value": 38}, "group": "control_change"}, {"time": 464, "annotation": {"number": 64, "value": 0}, "group": "control_change"}, {"time": 466, "annotation": {"number": 64, "value": 74}, "group": "control_change"}, {"time": 466, "annotation": {"number": 64, "value": 127}, "group": "control_change"}, {"time": 488, "annotation": {"number": 64, "value": 38}, "group": "control_change"}, {"time": 488, "annotation": {"number": 64, "value": 0}, "group": "control_change"}, {"time": 490, "annotation": {"number": 64, "value": 127}, "group": "control_change"}, {"time": 512, "annotation": {"number": 64, "value": 38}, "group": "control_change"}, {"time": 512, "annotation": {"number": 64, "value": 0}, "group": "control_change"}, {"time": 514, "annotation": {"number": 64, "value": 127}, "group": "control_change"}, {"time": 536, "annotation": {"number": 64, "value": 74}, "group": "control_change"}, {"time": 536, "annotation": {"number": 64, "value": 0}, "group": "control_change"}, {"time": 538, "annotation": {"number": 64, "value": 127}, "group": "control_change"}, {"time": 560, "annotation": {"number": 64, "value": 0}, "group": "control_change"}, {"time": 562, "annotation": {"number": 64, "value": 127}, "group": "control_change"}, {"time": 584, "annotation": {"number": 64, "value": 38}, "group": "control_change"}, {"time": 584, "annotation": {"number": 64, "value": 0}, "group": "control_change"}, {"time": 586, "annotation": {"number": 64, "value": 127}, "group": "control_change"}, {"time": 608, "annotation": {"number": 64, "value": 0}, "group": "control_change"}, {"time": 610, "annotation": {"number": 64, "value": 127}, "group": "control_change"}, {"time": 632, "annotation": {"number": 64, "value": 38}, "group": "control_change"}, {"time": 632, "annotation": {"number": 64, "value": 0}, "group": "control_change"}, {"time": 634, "annotation": {"number": 64, "value": 127}, "group": "control_change"}, {"time": 653, "annotation": {"number": 64, "value": 0}, "group": "control_change"}, {"time": 656, "annotation": {"number": 64, "value": 38}, "group": "control_change"}, {"time": 656, "annotation": {"number": 64, "value": 0}, "group": "control_change"}, {"time": 657, "annotation": {"number": 64, "value": 127}, "group": "control_change"}, {"time": 680, "annotation": {"number": 64, "value": 0}, "group": "control_change"}, {"time": 682, "annotation": {"number": 64, "value": 127}, "group": "control_change"}, {"time": 704, "annotation": {"number": 64, "value": 74}, "group": "control_change"}, {"time": 704, "annotation": {"number": 64, "value": 0}, "group": "control_change"}, {"time": 706, "annotation": {"number": 64, "value": 127}, "group": "control_change"}, {"time": 728, "annotation": {"number": 64, "value": 0}, "group": "control_change"}, {"time": 730, "annotation": {"number": 64, "value": 127}, "group": "control_change"}, {"time": 752, "annotation": {"number": 64, "value": 38}, "group": "control_change"}, {"time": 752, "annotation": {"number": 64, "value": 0}, "group": "control_change"}, {"time": 754, "annotation": {"number": 64, "value": 127}, "group": "control_change"}, {"time": 776, "annotation": {"number": 64, "value": 38}, "group": "control_change"}, {"time": 776, "annotation": {"number": 64, "value": 0}, "group": "control_change"}, {"time": 778, "annotation": {"number": 64, "value": 127}, "group": "control_change"}, {"time": 788, "annotation": {"number": 64, "value": 74}, "group": "control_change"}, {"time": 788, "annotation": {"number": 64, "value": 0}, "group": "control_change"}, {"time": 790, "annotation": {"number": 64, "value": 127}, "group": "control_change"}, {"time": 800, "annotation": {"number": 64, "value": 38}, "group": "control_change"}, {"time": 800, "annotation": {"number": 64, "value": 0}, "group": "control_change"}, {"time": 802, "annotation": {"number": 64, "value": 127}, "group": "control_change"}, {"time": 824, "annotation": {"number": 64, "value": 74}, "group": "control_change"}, {"time": 824, "annotation": {"number": 64, "value": 0}, "group": "control_change"}, {"time": 826, "annotation": {"number": 64, "value": 127}, "group": "control_change"}, {"time": 847, "annotation": {"number": 64, "value": 74}, "group": "control_change"}, {"time": 847, "annotation": {"number": 64, "value": 0}, "group": "control_change"}, {"time": 849, "annotation": {"number": 64, "value": 127}, "group": "control_change"}, {"time": 872, "annotation": {"number": 64, "value": 38}, "group": "control_change"}, {"time": 872, "annotation": {"number": 64, "value": 0}, "group": "control_change"}, {"time": 874, "annotation": {"number": 64, "value": 127}, "group": "control_change"}, {"time": 896, "annotation": {"number": 64, "value": 38}, "group": "control_change"}, {"time": 897, "annotation": {"number": 64, "value": 0}, "group": "control_change"}, {"time": 899, "annotation": {"number": 64, "value": 127}, "group": "control_change"}, {"time": 920, "annotation": {"number": 64, "value": 38}, "group": "control_change"}, {"time": 920, "annotation": {"number": 64, "value": 0}, "group": "control_change"}, {"time": 922, "annotation": {"number": 64, "value": 74}, "group": "control_change"}, {"time": 922, "annotation": {"number": 64, "value": 127}, "group": "control_change"}, {"time": 932, "annotation": {"number": 64, "value": 0}, "group": "control_change"}, {"time": 934, "annotation": {"number": 64, "value": 127}, "group": "control_change"}, {"time": 938, "annotation": {"number": 64, "value": 0}, "group": "control_change"}, {"time": 939, "annotation": {"number": 64, "value": 127}, "group": "control_change"}, {"time": 943, "annotation": {"number": 64, "value": 74}, "group": "control_change"}, {"time": 943, "annotation": {"number": 64, "value": 0}, "group": "control_change"}, {"time": 944, "annotation": {"number": 64, "value": 0}, "group": "control_change"}, {"time": 945, "annotation": {"number": 64, "value": 74}, "group": "control_change"}, {"time": 945, "annotation": {"number": 64, "value": 127}, "group": "control_change"}, {"time": 946, "annotation": {"number": 64, "value": 127}, "group": "control_change"}, {"time": 956, "annotation": {"number": 64, "value": 0}, "group": "control_change"}, {"time": 958, "annotation": {"number": 64, "value": 127}, "group": "control_change"}, {"time": 961, "annotation": {"number": 64, "value": 38}, "group": "control_change"}, {"time": 961, "annotation": {"number": 64, "value": 0}, "group": "control_change"}, {"time": 962, "annotation": {"number": 64, "value": 38}, "group": "control_change"}, {"time": 962, "annotation": {"number": 64, "value": 0}, "group": "control_change"}, {"time": 963, "annotation": {"number": 64, "value": 127}, "group": "control_change"}, {"time": 968, "annotation": {"number": 64, "value": 38}, "group": "control_change"}, {"time": 968, "annotation": {"number": 64, "value": 0}, "group": "control_change"}, {"time": 970, "annotation": {"number": 64, "value": 127}, "group": "control_change"}, {"time": 992, "annotation": {"number": 64, "value": 38}, "group": "control_change"}, {"time": 992, "annotation": {"number": 64, "value": 0}, "group": "control_change"}, {"time": 994, "annotation": {"number": 64, "value": 127}, "group": "control_change"}, {"time": 1016, "annotation": {"number": 64, "value": 74}, "group": "control_change"}, {"time": 1016, "annotation": {"number": 64, "value": 0}, "group": "control_change"}, {"time": 1018, "annotation": {"number": 64, "value": 127}, "group": "control_change"}, {"time": 1027, "annotation": {"number": 64, "value": 38}, "group": "control_change"}, {"time": 1028, "annotation": {"number": 64, "value": 0}, "group": "control_change"}, {"time": 1029, "annotation": {"number": 64, "value": 127}, "group": "control_change"}, {"time": 1040, "annotation": {"number": 64, "value": 0}, "group": "control_change"}, {"time": 1040, "annotation": {"number": 64, "value": 38}, "group": "control_change"}, {"time": 1042, "annotation": {"number": 64, "value": 74}, "group": "control_change"}, {"time": 1042, "annotation": {"number": 64, "value": 127}, "group": "control_change"}, {"time": 1064, "annotation": {"number": 64, "value": 0}, "group": "control_change"}, {"time": 1066, "annotation": {"number": 64, "value": 127}, "group": "control_change"}, {"time": 1088, "annotation": {"number": 64, "value": 0}, "group": "control_change"}, {"time": 1088, "annotation": {"number": 64, "value": 38}, "group": "control_change"}, {"time": 1090, "annotation": {"number": 64, "value": 127}, "group": "control_change"}, {"time": 1112, "annotation": {"number": 64, "value": 0}, "group": "control_change"}, {"time": 1112, "annotation": {"number": 64, "value": 74}, "group": "control_change"}, {"time": 1114, "annotation": {"number": 64, "value": 127}, "group": "control_change"}, {"time": 1122, "annotation": {"number": 64, "value": 38}, "group": "control_change"}, {"time": 1122, "annotation": {"number": 64, "value": 0}, "group": "control_change"}, {"time": 1135, "annotation": {"number": 64, "value": 74}, "group": "control_change"}, {"time": 1135, "annotation": {"number": 64, "value": 0}, "group": "control_change"}, {"time": 1137, "annotation": {"number": 64, "value": 127}, "group": "control_change"}, {"time": 1158, "annotation": {"number": 64, "value": 38}, "group": "control_change"}, {"time": 1159, "annotation": {"number": 64, "value": 0}, "group": "control_change"}, {"time": 1162, "annotation": {"number": 64, "value": 127}, "group": "control_change"}, {"time": 1184, "annotation": {"number": 64, "value": 38}, "group": "control_change"}, {"time": 1184, "annotation": {"number": 64, "value": 0}, "group": "control_change"}, {"time": 1186, "annotation": {"number": 64, "value": 127}, "group": "control_change"}, {"time": 1208, "annotation": {"number": 64, "value": 38}, "group": "control_change"}, {"time": 1208, "annotation": {"number": 64, "value": 0}, "group": "control_change"}, {"time": 1210, "annotation": {"number": 64, "value": 127}, "group": "control_change"}, {"time": 1232, "annotation": {"number": 64, "value": 0}, "group": "control_change"}, {"time": 1233, "annotation": {"number": 64, "value": 127}, "group": "control_change"}, {"time": 1256, "annotation": {"number": 64, "value": 0}, "group": "control_change"}, {"time": 1258, "annotation": {"number": 64, "value": 74}, "group": "control_change"}, {"time": 1258, "annotation": {"number": 64, "value": 127}, "group": "control_change"}, {"time": 1279, "annotation": {"number": 64, "value": 38}, "group": "control_change"}, {"time": 1280, "annotation": {"number": 64, "value": 0}, "group": "control_change"}, {"time": 1282, "annotation": {"number": 64, "value": 127}, "group": "control_change"}, {"time": 1304, "annotation": {"number": 64, "value": 0}, "group": "control_change"}, {"time": 1306, "annotation": {"number": 64, "value": 127}, "group": "control_change"}, {"time": 1321, "annotation": {"number": 64, "value": 38}, "group": "control_change"}, {"time": 1321, "annotation": {"number": 64, "value": 0}, "group": "control_change"}, {"time": 1323, "annotation": {"number": 64, "value": 127}, "group": "control_change"}, {"time": 1352, "annotation": {"number": 64, "value": 38}, "group": "control_change"}, {"time": 1352, "annotation": {"number": 64, "value": 0}, "group": "control_change"}, {"time": 1354, "annotation": {"number": 64, "value": 127}, "group": "control_change"}, {"time": 1376, "annotation": {"number": 64, "value": 74}, "group": "control_change"}, {"time": 1376, "annotation": {"number": 64, "value": 0}, "group": "control_change"}, {"time": 1378, "annotation": {"number": 64, "value": 127}, "group": "control_change"}, {"time": 1400, "annotation": {"number": 64, "value": 0}, "group": "control_change"}, {"time": 1402, "annotation": {"number": 64, "value": 74}, "group": "control_change"}, {"time": 1402, "annotation": {"number": 64, "value": 127}, "group": "control_change"}, {"time": 1423, "annotation": {"number": 64, "value": 38}, "group": "control_change"}, {"time": 1423, "annotation": {"number": 64, "value": 0}, "group": "control_change"}, {"time": 1425, "annotation": {"number": 64, "value": 127}, "group": "control_change"}, {"time": 1448, "annotation": {"number": 64, "value": 38}, "group": "control_change"}, {"time": 1448, "annotation": {"number": 64, "value": 0}, "group": "control_change"}, {"time": 1450, "annotation": {"number": 64, "value": 127}, "group": "control_change"}, {"time": 1472, "annotation": {"number": 64, "value": 38}, "group": "control_change"}, {"time": 1472, "annotation": {"number": 64, "value": 0}, "group": "control_change"}, {"time": 1474, "annotation": {"number": 64, "value": 127}, "group": "control_change"}, {"time": 1496, "annotation": {"number": 64, "value": 0}, "group": "control_change"}, {"time": 1498, "annotation": {"number": 64, "value": 127}, "group": "control_change"}, {"time": 1520, "annotation": {"number": 64, "value": 38}, "group": "control_change"}, {"time": 1520, "annotation": {"number": 64, "value": 0}, "group": "control_change"}, {"time": 1521, "annotation": {"number": 64, "value": 127}, "group": "control_change"}, {"time": 1545, "annotation": {"number": 64, "value": 38}, "group": "control_change"}, {"time": 1545, "annotation": {"number": 64, "value": 0}, "group": "control_change"}, {"time": 1547, "annotation": {"number": 64, "value": 127}, "group": "control_change"}, {"time": 1568, "annotation": {"number": 64, "value": 74}, "group": "control_change"}, {"time": 1568, "annotation": {"number": 64, "value": 0}, "group": "control_change"}, {"time": 1569, "annotation": {"number": 64, "value": 127}, "group": "control_change"}, {"time": 1592, "annotation": {"number": 64, "value": 0}, "group": "control_change"}, {"time": 1594, "annotation": {"number": 64, "value": 127}, "group": "control_change"}, {"time": 1615, "annotation": {"number": 64, "value": 38}, "group": "control_change"}, {"time": 1615, "annotation": {"number": 64, "value": 0}, "group": "control_change"}, {"time": 1617, "annotation": {"number": 64, "value": 127}, "group": "control_change"}, {"time": 1640, "annotation": {"number": 64, "value": 38}, "group": "control_change"}, {"time": 1640, "annotation": {"number": 64, "value": 0}, "group": "control_change"}, {"time": 1642, "annotation": {"number": 64, "value": 127}, "group": "control_change"}, {"time": 1649, "annotation": {"number": 64, "value": 38}, "group": "control_change"}, {"time": 1649, "annotation": {"number": 64, "value": 0}, "group": "control_change"}, {"time": 1652, "annotation": {"number": 64, "value": 127}, "group": "control_change"}, {"time": 1655, "annotation": {"number": 64, "value": 74}, "group": "control_change"}, {"time": 1655, "annotation": {"number": 64, "value": 0}, "group": "control_change"}, {"time": 1688, "annotation": {"number": 64, "value": 38}, "group": "control_change"}, {"time": 1688, "annotation": {"number": 64, "value": 0}, "group": "control_change"}, {"time": 1690, "annotation": {"number": 64, "value": 127}, "group": "control_change"}, {"time": 1712, "annotation": {"number": 64, "value": 38}, "group": "control_change"}, {"time": 1712, "annotation": {"number": 64, "value": 0}, "group": "control_change"}, {"time": 1714, "annotation": {"number": 64, "value": 127}, "group": "control_change"}, {"time": 1736, "annotation": {"number": 64, "value": 38}, "group": "control_change"}, {"time": 1736, "annotation": {"number": 64, "value": 0}, "group": "control_change"}, {"time": 1738, "annotation": {"number": 64, "value": 127}, "group": "control_change"}, {"time": 1756, "annotation": {"number": 64, "value": 38}, "group": "control_change"}, {"time": 1756, "annotation": {"number": 64, "value": 0}, "group": "control_change"}, {"time": 1760, "annotation": {"number": 64, "value": 38}, "group": "control_change"}, {"time": 1760, "annotation": {"number": 64, "value": 0}, "group": "control_change"}, {"time": 1762, "annotation": {"number": 64, "value": 127}, "group": "control_change"}, {"time": 1784, "annotation": {"number": 64, "value": 38}, "group": "control_change"}, {"time": 1784, "annotation": {"number": 64, "value": 0}, "group": "control_change"}, {"time": 1785, "annotation": {"number": 64, "value": 127}, "group": "control_change"}, {"time": 1786, "annotation": {"number": 64, "value": 127}, "group": "control_change"}, {"time": 1796, "annotation": {"number": 64, "value": 0}, "group": "control_change"}, {"time": 1797, "annotation": {"number": 64, "value": 127}, "group": "control_change"}, {"time": 1808, "annotation": {"number": 64, "value": 0}, "group": "control_change"}, {"time": 1808, "annotation": {"number": 64, "value": 74}, "group": "control_change"}, {"time": 1809, "annotation": {"number": 64, "value": 0}, "group": "control_change"}, {"time": 1810, "annotation": {"number": 64, "value": 127}, "group": "control_change"}, {"time": 1833, "annotation": {"number": 64, "value": 0}, "group": "control_change"}, {"time": 1834, "annotation": {"number": 64, "value": 127}, "group": "control_change"}, {"time": 1835, "annotation": {"number": 64, "value": 127}, "group": "control_change"}, {"time": 1856, "annotation": {"number": 64, "value": 0}, "group": "control_change"}, {"time": 1856, "annotation": {"number": 64, "value": 74}, "group": "control_change"}, {"time": 1858, "annotation": {"number": 64, "value": 127}, "group": "control_change"}, {"time": 1868, "annotation": {"number": 64, "value": 38}, "group": "control_change"}, {"time": 1868, "annotation": {"number": 64, "value": 0}, "group": "control_change"}, {"time": 1880, "annotation": {"number": 64, "value": 38}, "group": "control_change"}, {"time": 1880, "annotation": {"number": 64, "value": 0}, "group": "control_change"}, {"time": 1882, "annotation": {"number": 64, "value": 127}, "group": "control_change"}, {"time": 1904, "annotation": {"number": 64, "value": 38}, "group": "control_change"}, {"time": 1904, "annotation": {"number": 64, "value": 0}, "group": "control_change"}, {"time": 1906, "annotation": {"number": 64, "value": 127}, "group": "control_change"}, {"time": 1926, "annotation": {"number": 64, "value": 0}, "group": "control_change"}, {"time": 1952, "annotation": {"number": 64, "value": 74}, "group": "control_change"}, {"time": 1952, "annotation": {"number": 64, "value": 0}, "group": "control_change"}, {"time": 1954, "annotation": {"number": 64, "value": 74}, "group": "control_change"}, {"time": 1954, "annotation": {"number": 64, "value": 127}, "group": "control_change"}, {"time": 1976, "annotation": {"number": 64, "value": 38}, "group": "control_change"}, {"time": 1976, "annotation": {"number": 64, "value": 0}, "group": "control_change"}, {"time": 1978, "annotation": {"number": 64, "value": 127}, "group": "control_change"}, {"time": 2000, "annotation": {"number": 64, "value": 38}, "group": "control_change"}, {"time": 2000, "annotation": {"number": 64, "value": 0}, "group": "control_change"}, {"time": 2002, "annotation": {"number": 64, "value": 74}, "group": "control_change"}, {"time": 2002, "annotation": {"number": 64, "value": 127}, "group": "control_change"}, {"time": 2024, "annotation": {"number": 64, "value": 38}, "group": "control_change"}, {"time": 2024, "annotation": {"number": 64, "value": 0}, "group": "control_change"}, {"time": 2026, "annotation": {"number": 64, "value": 127}, "group": "control_change"}, {"time": 2048, "annotation": {"number": 64, "value": 38}, "group": "control_change"}, {"time": 2048, "annotation": {"number": 64, "value": 0}, "group": "control_change"}, {"time": 2050, "annotation": {"number": 64, "value": 127}, "group": "control_change"}, {"time": 2072, "annotation": {"number": 64, "value": 74}, "group": "control_change"}, {"time": 2072, "annotation": {"number": 64, "value": 0}, "group": "control_change"}, {"time": 2074, "annotation": {"number": 64, "value": 127}, "group": "control_change"}, {"time": 2096, "annotation": {"number": 64, "value": 0}, "group": "control_change"}, {"time": 2098, "annotation": {"number": 64, "value": 127}, "group": "control_change"}, {"time": 2120, "annotation": {"number": 64, "value": 38}, "group": "control_change"}, {"time": 2120, "annotation": {"number": 64, "value": 0}, "group": "control_change"}, {"time": 2122, "annotation": {"number": 64, "value": 127}, "group": "control_change"}, {"time": 2144, "annotation": {"number": 64, "value": 0}, "group": "control_change"}, {"time": 2146, "annotation": {"number": 64, "value": 127}, "group": "control_change"}, {"time": 2168, "annotation": {"number": 64, "value": 38}, "group": "control_change"}, {"time": 2168, "annotation": {"number": 64, "value": 0}, "group": "control_change"}, {"time": 2170, "annotation": {"number": 64, "value": 127}, "group": "control_change"}, {"time": 2189, "annotation": {"number": 64, "value": 0}, "group": "control_change"}, {"time": 2192, "annotation": {"number": 64, "value": 38}, "group": "control_change"}, {"time": 2192, "annotation": {"number": 64, "value": 0}, "group": "control_change"}, {"time": 2193, "annotation": {"number": 64, "value": 127}, "group": "control_change"}, {"time": 2216, "annotation": {"number": 64, "value": 0}, "group": "control_change"}, {"time": 2218, "annotation": {"number": 64, "value": 127}, "group": "control_change"}, {"time": 2240, "annotation": {"number": 64, "value": 74}, "group": "control_change"}, {"time": 2240, "annotation": {"number": 64, "value": 0}, "group": "control_change"}, {"time": 2242, "annotation": {"number": 64, "value": 127}, "group": "control_change"}, {"time": 2264, "annotation": {"number": 64, "value": 0}, "group": "control_change"}, {"time": 2266, "annotation": {"number": 64, "value": 127}, "group": "control_change"}, {"time": 2288, "annotation": {"number": 64, "value": 38}, "group": "control_change"}, {"time": 2288, "annotation": {"number": 64, "value": 0}, "group": "control_change"}, {"time": 2290, "annotation": {"number": 64, "value": 127}, "group": "control_change"}, {"time": 2312, "annotation": {"number": 64, "value": 38}, "group": "control_change"}, {"time": 2312, "annotation": {"number": 64, "value": 0}, "group": "control_change"}]}]}